<?xml version="1.0" standalone="no"?>
<!DOCTYPE svg PUBLIC "-//W3C//DTD SVG 20010904//EN"
 "http://www.w3.org/TR/2001/REC-SVG-20010904/DTD/svg10.dtd">
<svg version="1.0" xmlns="http://www.w3.org/2000/svg" 
width="800" height="800" viewBox="0 0 800 800"
preserveAspectRatio = "xMidYMid meet" >
<metadata>
Created by ZoeQu, written in 2024
</metadata>

<g id="row0" transform="translate(0,0.0)">

<g id="0" transform="translate(0,0)scale(1,1)">


<rect x="0" y="0" width="14" height="200" fill="#2A8B8F"/>

<rect x="14" y="0" width="30" height="200" fill="#2A8B8F"/>

<rect x="44" y="0" width="95" height="200" fill="#FA8D1C"/>

<rect x="139" y="0" width="20" height="200" fill="#FA8D1C"/>

<rect x="159" y="0" width="27" height="200" fill="#FA8D1C"/>

<rect x="186" y="0" width="2" height="200" fill="#FA8D1C"/>

<rect x="188" y="0" width="5" height="200" fill="#2A8B8F"/>

<rect x="193" y="0" width="3" height="200" fill="#2A8B8F"/>

<rect x="196" y="0" width="3" height="200" fill="#E9E4E1"/>

<rect x="199" y="0" width="1" height="200" fill="#5DB4B7"/>

<g transform = "rotate(90, 100, 100)" fill-opacity="0.7">

<rect x="0" y="0" width="50" height="200" fill="#E9E4E1"/>

<rect x="50" y="0" width="146" height="200" fill="#E9E4E1"/>

<rect x="196" y="0" width="3" height="200" fill="#FA8D1C"/>

<rect x="199" y="0" width="1" height="200" fill="#E9E4E1"/>

</g>

</g>


<g id="1" transform="translate(200,0)scale(1,1)">


<rect x="0" y="0" width="14" height="200" fill="#2A8B8F"/>

<rect x="14" y="0" width="30" height="200" fill="#2A8B8F"/>

<rect x="44" y="0" width="95" height="200" fill="#FA8D1C"/>

<rect x="139" y="0" width="20" height="200" fill="#FA8D1C"/>

<rect x="159" y="0" width="27" height="200" fill="#FA8D1C"/>

<rect x="186" y="0" width="2" height="200" fill="#FA8D1C"/>

<rect x="188" y="0" width="5" height="200" fill="#2A8B8F"/>

<rect x="193" y="0" width="3" height="200" fill="#2A8B8F"/>

<rect x="196" y="0" width="3" height="200" fill="#E9E4E1"/>

<rect x="199" y="0" width="1" height="200" fill="#5DB4B7"/>

<g transform = "rotate(90, 100, 100)" fill-opacity="0.7">

<rect x="0" y="0" width="50" height="200" fill="#E9E4E1"/>

<rect x="50" y="0" width="146" height="200" fill="#E9E4E1"/>

<rect x="196" y="0" width="3" height="200" fill="#FA8D1C"/>

<rect x="199" y="0" width="1" height="200" fill="#E9E4E1"/>

</g>

</g>


<g id="2" transform="translate(400,0)scale(1,1)">


<rect x="0" y="0" width="14" height="200" fill="#2A8B8F"/>

<rect x="14" y="0" width="30" height="200" fill="#2A8B8F"/>

<rect x="44" y="0" width="95" height="200" fill="#FA8D1C"/>

<rect x="139" y="0" width="20" height="200" fill="#FA8D1C"/>

<rect x="159" y="0" width="27" height="200" fill="#FA8D1C"/>

<rect x="186" y="0" width="2" height="200" fill="#FA8D1C"/>

<rect x="188" y="0" width="5" height="200" fill="#2A8B8F"/>

<rect x="193" y="0" width="3" height="200" fill="#2A8B8F"/>

<rect x="196" y="0" width="3" height="200" fill="#E9E4E1"/>

<rect x="199" y="0" width="1" height="200" fill="#5DB4B7"/>

<g transform = "rotate(90, 100, 100)" fill-opacity="0.7">

<rect x="0" y="0" width="50" height="200" fill="#E9E4E1"/>

<rect x="50" y="0" width="146" height="200" fill="#E9E4E1"/>

<rect x="196" y="0" width="3" height="200" fill="#FA8D1C"/>

<rect x="199" y="0" width="1" height="200" fill="#E9E4E1"/>

</g>

</g>


<g id="3" transform="translate(600,0)scale(1,1)">


<rect x="0" y="0" width="14" height="200" fill="#2A8B8F"/>

<rect x="14" y="0" width="30" height="200" fill="#2A8B8F"/>

<rect x="44" y="0" width="95" height="200" fill="#FA8D1C"/>

<rect x="139" y="0" width="20" height="200" fill="#FA8D1C"/>

<rect x="159" y="0" width="27" height="200" fill="#FA8D1C"/>

<rect x="186" y="0" width="2" height="200" fill="#FA8D1C"/>

<rect x="188" y="0" width="5" height="200" fill="#2A8B8F"/>

<rect x="193" y="0" width="3" height="200" fill="#2A8B8F"/>

<rect x="196" y="0" width="3" height="200" fill="#E9E4E1"/>

<rect x="199" y="0" width="1" height="200" fill="#5DB4B7"/>

<g transform = "rotate(90, 100, 100)" fill-opacity="0.7">

<rect x="0" y="0" width="50" height="200" fill="#E9E4E1"/>

<rect x="50" y="0" width="146" height="200" fill="#E9E4E1"/>

<rect x="196" y="0" width="3" height="200" fill="#FA8D1C"/>

<rect x="199" y="0" width="1" height="200" fill="#E9E4E1"/>

</g>

</g>


<g id="4" transform="translate(800,0)scale(1,1)">


<rect x="0" y="0" width="14" height="200" fill="#2A8B8F"/>

<rect x="14" y="0" width="30" height="200" fill="#2A8B8F"/>

<rect x="44" y="0" width="95" height="200" fill="#FA8D1C"/>

<rect x="139" y="0" width="20" height="200" fill="#FA8D1C"/>

<rect x="159" y="0" width="27" height="200" fill="#FA8D1C"/>

<rect x="186" y="0" width="2" height="200" fill="#FA8D1C"/>

<rect x="188" y="0" width="5" height="200" fill="#2A8B8F"/>

<rect x="193" y="0" width="3" height="200" fill="#2A8B8F"/>

<rect x="196" y="0" width="3" height="200" fill="#E9E4E1"/>

<rect x="199" y="0" width="1" height="200" fill="#5DB4B7"/>

<g transform = "rotate(90, 100, 100)" fill-opacity="0.7">

<rect x="0" y="0" width="50" height="200" fill="#E9E4E1"/>

<rect x="50" y="0" width="146" height="200" fill="#E9E4E1"/>

<rect x="196" y="0" width="3" height="200" fill="#FA8D1C"/>

<rect x="199" y="0" width="1" height="200" fill="#E9E4E1"/>

</g>

</g>


</g>

<g id="row1" transform="translate(0,200.0)">

<g id="0" transform="translate(0,0)scale(1,1)">


<rect x="0" y="0" width="14" height="200" fill="#2A8B8F"/>

<rect x="14" y="0" width="30" height="200" fill="#2A8B8F"/>

<rect x="44" y="0" width="95" height="200" fill="#FA8D1C"/>

<rect x="139" y="0" width="20" height="200" fill="#FA8D1C"/>

<rect x="159" y="0" width="27" height="200" fill="#FA8D1C"/>

<rect x="186" y="0" width="2" height="200" fill="#FA8D1C"/>

<rect x="188" y="0" width="5" height="200" fill="#2A8B8F"/>

<rect x="193" y="0" width="3" height="200" fill="#2A8B8F"/>

<rect x="196" y="0" width="3" height="200" fill="#E9E4E1"/>

<rect x="199" y="0" width="1" height="200" fill="#5DB4B7"/>

<g transform = "rotate(90, 100, 100)" fill-opacity="0.7">

<rect x="0" y="0" width="50" height="200" fill="#E9E4E1"/>

<rect x="50" y="0" width="146" height="200" fill="#E9E4E1"/>

<rect x="196" y="0" width="3" height="200" fill="#FA8D1C"/>

<rect x="199" y="0" width="1" height="200" fill="#E9E4E1"/>

</g>

</g>


<g id="1" transform="translate(200,0)scale(1,1)">


<rect x="0" y="0" width="14" height="200" fill="#2A8B8F"/>

<rect x="14" y="0" width="30" height="200" fill="#2A8B8F"/>

<rect x="44" y="0" width="95" height="200" fill="#FA8D1C"/>

<rect x="139" y="0" width="20" height="200" fill="#FA8D1C"/>

<rect x="159" y="0" width="27" height="200" fill="#FA8D1C"/>

<rect x="186" y="0" width="2" height="200" fill="#FA8D1C"/>

<rect x="188" y="0" width="5" height="200" fill="#2A8B8F"/>

<rect x="193" y="0" width="3" height="200" fill="#2A8B8F"/>

<rect x="196" y="0" width="3" height="200" fill="#E9E4E1"/>

<rect x="199" y="0" width="1" height="200" fill="#5DB4B7"/>

<g transform = "rotate(90, 100, 100)" fill-opacity="0.7">

<rect x="0" y="0" width="50" height="200" fill="#E9E4E1"/>

<rect x="50" y="0" width="146" height="200" fill="#E9E4E1"/>

<rect x="196" y="0" width="3" height="200" fill="#FA8D1C"/>

<rect x="199" y="0" width="1" height="200" fill="#E9E4E1"/>

</g>

</g>


<g id="2" transform="translate(400,0)scale(1,1)">


<rect x="0" y="0" width="14" height="200" fill="#2A8B8F"/>

<rect x="14" y="0" width="30" height="200" fill="#2A8B8F"/>

<rect x="44" y="0" width="95" height="200" fill="#FA8D1C"/>

<rect x="139" y="0" width="20" height="200" fill="#FA8D1C"/>

<rect x="159" y="0" width="27" height="200" fill="#FA8D1C"/>

<rect x="186" y="0" width="2" height="200" fill="#FA8D1C"/>

<rect x="188" y="0" width="5" height="200" fill="#2A8B8F"/>

<rect x="193" y="0" width="3" height="200" fill="#2A8B8F"/>

<rect x="196" y="0" width="3" height="200" fill="#E9E4E1"/>

<rect x="199" y="0" width="1" height="200" fill="#5DB4B7"/>

<g transform = "rotate(90, 100, 100)" fill-opacity="0.7">

<rect x="0" y="0" width="50" height="200" fill="#E9E4E1"/>

<rect x="50" y="0" width="146" height="200" fill="#E9E4E1"/>

<rect x="196" y="0" width="3" height="200" fill="#FA8D1C"/>

<rect x="199" y="0" width="1" height="200" fill="#E9E4E1"/>

</g>

</g>


<g id="3" transform="translate(600,0)scale(1,1)">


<rect x="0" y="0" width="14" height="200" fill="#2A8B8F"/>

<rect x="14" y="0" width="30" height="200" fill="#2A8B8F"/>

<rect x="44" y="0" width="95" height="200" fill="#FA8D1C"/>

<rect x="139" y="0" width="20" height="200" fill="#FA8D1C"/>

<rect x="159" y="0" width="27" height="200" fill="#FA8D1C"/>

<rect x="186" y="0" width="2" height="200" fill="#FA8D1C"/>

<rect x="188" y="0" width="5" height="200" fill="#2A8B8F"/>

<rect x="193" y="0" width="3" height="200" fill="#2A8B8F"/>

<rect x="196" y="0" width="3" height="200" fill="#E9E4E1"/>

<rect x="199" y="0" width="1" height="200" fill="#5DB4B7"/>

<g transform = "rotate(90, 100, 100)" fill-opacity="0.7">

<rect x="0" y="0" width="50" height="200" fill="#E9E4E1"/>

<rect x="50" y="0" width="146" height="200" fill="#E9E4E1"/>

<rect x="196" y="0" width="3" height="200" fill="#FA8D1C"/>

<rect x="199" y="0" width="1" height="200" fill="#E9E4E1"/>

</g>

</g>


<g id="4" transform="translate(800,0)scale(1,1)">


<rect x="0" y="0" width="14" height="200" fill="#2A8B8F"/>

<rect x="14" y="0" width="30" height="200" fill="#2A8B8F"/>

<rect x="44" y="0" width="95" height="200" fill="#FA8D1C"/>

<rect x="139" y="0" width="20" height="200" fill="#FA8D1C"/>

<rect x="159" y="0" width="27" height="200" fill="#FA8D1C"/>

<rect x="186" y="0" width="2" height="200" fill="#FA8D1C"/>

<rect x="188" y="0" width="5" height="200" fill="#2A8B8F"/>

<rect x="193" y="0" width="3" height="200" fill="#2A8B8F"/>

<rect x="196" y="0" width="3" height="200" fill="#E9E4E1"/>

<rect x="199" y="0" width="1" height="200" fill="#5DB4B7"/>

<g transform = "rotate(90, 100, 100)" fill-opacity="0.7">

<rect x="0" y="0" width="50" height="200" fill="#E9E4E1"/>

<rect x="50" y="0" width="146" height="200" fill="#E9E4E1"/>

<rect x="196" y="0" width="3" height="200" fill="#FA8D1C"/>

<rect x="199" y="0" width="1" height="200" fill="#E9E4E1"/>

</g>

</g>


</g>

<g id="row2" transform="translate(0,400.0)">

<g id="0" transform="translate(0,0)scale(1,1)">


<rect x="0" y="0" width="14" height="200" fill="#2A8B8F"/>

<rect x="14" y="0" width="30" height="200" fill="#2A8B8F"/>

<rect x="44" y="0" width="95" height="200" fill="#FA8D1C"/>

<rect x="139" y="0" width="20" height="200" fill="#FA8D1C"/>

<rect x="159" y="0" width="27" height="200" fill="#FA8D1C"/>

<rect x="186" y="0" width="2" height="200" fill="#FA8D1C"/>

<rect x="188" y="0" width="5" height="200" fill="#2A8B8F"/>

<rect x="193" y="0" width="3" height="200" fill="#2A8B8F"/>

<rect x="196" y="0" width="3" height="200" fill="#E9E4E1"/>

<rect x="199" y="0" width="1" height="200" fill="#5DB4B7"/>

<g transform = "rotate(90, 100, 100)" fill-opacity="0.7">

<rect x="0" y="0" width="50" height="200" fill="#E9E4E1"/>

<rect x="50" y="0" width="146" height="200" fill="#E9E4E1"/>

<rect x="196" y="0" width="3" height="200" fill="#FA8D1C"/>

<rect x="199" y="0" width="1" height="200" fill="#E9E4E1"/>

</g>

</g>


<g id="1" transform="translate(200,0)scale(1,1)">


<rect x="0" y="0" width="14" height="200" fill="#2A8B8F"/>

<rect x="14" y="0" width="30" height="200" fill="#2A8B8F"/>

<rect x="44" y="0" width="95" height="200" fill="#FA8D1C"/>

<rect x="139" y="0" width="20" height="200" fill="#FA8D1C"/>

<rect x="159" y="0" width="27" height="200" fill="#FA8D1C"/>

<rect x="186" y="0" width="2" height="200" fill="#FA8D1C"/>

<rect x="188" y="0" width="5" height="200" fill="#2A8B8F"/>

<rect x="193" y="0" width="3" height="200" fill="#2A8B8F"/>

<rect x="196" y="0" width="3" height="200" fill="#E9E4E1"/>

<rect x="199" y="0" width="1" height="200" fill="#5DB4B7"/>

<g transform = "rotate(90, 100, 100)" fill-opacity="0.7">

<rect x="0" y="0" width="50" height="200" fill="#E9E4E1"/>

<rect x="50" y="0" width="146" height="200" fill="#E9E4E1"/>

<rect x="196" y="0" width="3" height="200" fill="#FA8D1C"/>

<rect x="199" y="0" width="1" height="200" fill="#E9E4E1"/>

</g>

</g>


<g id="2" transform="translate(400,0)scale(1,1)">


<rect x="0" y="0" width="14" height="200" fill="#2A8B8F"/>

<rect x="14" y="0" width="30" height="200" fill="#2A8B8F"/>

<rect x="44" y="0" width="95" height="200" fill="#FA8D1C"/>

<rect x="139" y="0" width="20" height="200" fill="#FA8D1C"/>

<rect x="159" y="0" width="27" height="200" fill="#FA8D1C"/>

<rect x="186" y="0" width="2" height="200" fill="#FA8D1C"/>

<rect x="188" y="0" width="5" height="200" fill="#2A8B8F"/>

<rect x="193" y="0" width="3" height="200" fill="#2A8B8F"/>

<rect x="196" y="0" width="3" height="200" fill="#E9E4E1"/>

<rect x="199" y="0" width="1" height="200" fill="#5DB4B7"/>

<g transform = "rotate(90, 100, 100)" fill-opacity="0.7">

<rect x="0" y="0" width="50" height="200" fill="#E9E4E1"/>

<rect x="50" y="0" width="146" height="200" fill="#E9E4E1"/>

<rect x="196" y="0" width="3" height="200" fill="#FA8D1C"/>

<rect x="199" y="0" width="1" height="200" fill="#E9E4E1"/>

</g>

</g>


<g id="3" transform="translate(600,0)scale(1,1)">


<rect x="0" y="0" width="14" height="200" fill="#2A8B8F"/>

<rect x="14" y="0" width="30" height="200" fill="#2A8B8F"/>

<rect x="44" y="0" width="95" height="200" fill="#FA8D1C"/>

<rect x="139" y="0" width="20" height="200" fill="#FA8D1C"/>

<rect x="159" y="0" width="27" height="200" fill="#FA8D1C"/>

<rect x="186" y="0" width="2" height="200" fill="#FA8D1C"/>

<rect x="188" y="0" width="5" height="200" fill="#2A8B8F"/>

<rect x="193" y="0" width="3" height="200" fill="#2A8B8F"/>

<rect x="196" y="0" width="3" height="200" fill="#E9E4E1"/>

<rect x="199" y="0" width="1" height="200" fill="#5DB4B7"/>

<g transform = "rotate(90, 100, 100)" fill-opacity="0.7">

<rect x="0" y="0" width="50" height="200" fill="#E9E4E1"/>

<rect x="50" y="0" width="146" height="200" fill="#E9E4E1"/>

<rect x="196" y="0" width="3" height="200" fill="#FA8D1C"/>

<rect x="199" y="0" width="1" height="200" fill="#E9E4E1"/>

</g>

</g>


<g id="4" transform="translate(800,0)scale(1,1)">


<rect x="0" y="0" width="14" height="200" fill="#2A8B8F"/>

<rect x="14" y="0" width="30" height="200" fill="#2A8B8F"/>

<rect x="44" y="0" width="95" height="200" fill="#FA8D1C"/>

<rect x="139" y="0" width="20" height="200" fill="#FA8D1C"/>

<rect x="159" y="0" width="27" height="200" fill="#FA8D1C"/>

<rect x="186" y="0" width="2" height="200" fill="#FA8D1C"/>

<rect x="188" y="0" width="5" height="200" fill="#2A8B8F"/>

<rect x="193" y="0" width="3" height="200" fill="#2A8B8F"/>

<rect x="196" y="0" width="3" height="200" fill="#E9E4E1"/>

<rect x="199" y="0" width="1" height="200" fill="#5DB4B7"/>

<g transform = "rotate(90, 100, 100)" fill-opacity="0.7">

<rect x="0" y="0" width="50" height="200" fill="#E9E4E1"/>

<rect x="50" y="0" width="146" height="200" fill="#E9E4E1"/>

<rect x="196" y="0" width="3" height="200" fill="#FA8D1C"/>

<rect x="199" y="0" width="1" height="200" fill="#E9E4E1"/>

</g>

</g>


</g>

<g id="row3" transform="translate(0,600.0)">

<g id="0" transform="translate(0,0)scale(1,1)">


<rect x="0" y="0" width="14" height="200" fill="#2A8B8F"/>

<rect x="14" y="0" width="30" height="200" fill="#2A8B8F"/>

<rect x="44" y="0" width="95" height="200" fill="#FA8D1C"/>

<rect x="139" y="0" width="20" height="200" fill="#FA8D1C"/>

<rect x="159" y="0" width="27" height="200" fill="#FA8D1C"/>

<rect x="186" y="0" width="2" height="200" fill="#FA8D1C"/>

<rect x="188" y="0" width="5" height="200" fill="#2A8B8F"/>

<rect x="193" y="0" width="3" height="200" fill="#2A8B8F"/>

<rect x="196" y="0" width="3" height="200" fill="#E9E4E1"/>

<rect x="199" y="0" width="1" height="200" fill="#5DB4B7"/>

<g transform = "rotate(90, 100, 100)" fill-opacity="0.7">

<rect x="0" y="0" width="50" height="200" fill="#E9E4E1"/>

<rect x="50" y="0" width="146" height="200" fill="#E9E4E1"/>

<rect x="196" y="0" width="3" height="200" fill="#FA8D1C"/>

<rect x="199" y="0" width="1" height="200" fill="#E9E4E1"/>

</g>

</g>


<g id="1" transform="translate(200,0)scale(1,1)">


<rect x="0" y="0" width="14" height="200" fill="#2A8B8F"/>

<rect x="14" y="0" width="30" height="200" fill="#2A8B8F"/>

<rect x="44" y="0" width="95" height="200" fill="#FA8D1C"/>

<rect x="139" y="0" width="20" height="200" fill="#FA8D1C"/>

<rect x="159" y="0" width="27" height="200" fill="#FA8D1C"/>

<rect x="186" y="0" width="2" height="200" fill="#FA8D1C"/>

<rect x="188" y="0" width="5" height="200" fill="#2A8B8F"/>

<rect x="193" y="0" width="3" height="200" fill="#2A8B8F"/>

<rect x="196" y="0" width="3" height="200" fill="#E9E4E1"/>

<rect x="199" y="0" width="1" height="200" fill="#5DB4B7"/>

<g transform = "rotate(90, 100, 100)" fill-opacity="0.7">

<rect x="0" y="0" width="50" height="200" fill="#E9E4E1"/>

<rect x="50" y="0" width="146" height="200" fill="#E9E4E1"/>

<rect x="196" y="0" width="3" height="200" fill="#FA8D1C"/>

<rect x="199" y="0" width="1" height="200" fill="#E9E4E1"/>

</g>

</g>


<g id="2" transform="translate(400,0)scale(1,1)">


<rect x="0" y="0" width="14" height="200" fill="#2A8B8F"/>

<rect x="14" y="0" width="30" height="200" fill="#2A8B8F"/>

<rect x="44" y="0" width="95" height="200" fill="#FA8D1C"/>

<rect x="139" y="0" width="20" height="200" fill="#FA8D1C"/>

<rect x="159" y="0" width="27" height="200" fill="#FA8D1C"/>

<rect x="186" y="0" width="2" height="200" fill="#FA8D1C"/>

<rect x="188" y="0" width="5" height="200" fill="#2A8B8F"/>

<rect x="193" y="0" width="3" height="200" fill="#2A8B8F"/>

<rect x="196" y="0" width="3" height="200" fill="#E9E4E1"/>

<rect x="199" y="0" width="1" height="200" fill="#5DB4B7"/>

<g transform = "rotate(90, 100, 100)" fill-opacity="0.7">

<rect x="0" y="0" width="50" height="200" fill="#E9E4E1"/>

<rect x="50" y="0" width="146" height="200" fill="#E9E4E1"/>

<rect x="196" y="0" width="3" height="200" fill="#FA8D1C"/>

<rect x="199" y="0" width="1" height="200" fill="#E9E4E1"/>

</g>

</g>


<g id="3" transform="translate(600,0)scale(1,1)">


<rect x="0" y="0" width="14" height="200" fill="#2A8B8F"/>

<rect x="14" y="0" width="30" height="200" fill="#2A8B8F"/>

<rect x="44" y="0" width="95" height="200" fill="#FA8D1C"/>

<rect x="139" y="0" width="20" height="200" fill="#FA8D1C"/>

<rect x="159" y="0" width="27" height="200" fill="#FA8D1C"/>

<rect x="186" y="0" width="2" height="200" fill="#FA8D1C"/>

<rect x="188" y="0" width="5" height="200" fill="#2A8B8F"/>

<rect x="193" y="0" width="3" height="200" fill="#2A8B8F"/>

<rect x="196" y="0" width="3" height="200" fill="#E9E4E1"/>

<rect x="199" y="0" width="1" height="200" fill="#5DB4B7"/>

<g transform = "rotate(90, 100, 100)" fill-opacity="0.7">

<rect x="0" y="0" width="50" height="200" fill="#E9E4E1"/>

<rect x="50" y="0" width="146" height="200" fill="#E9E4E1"/>

<rect x="196" y="0" width="3" height="200" fill="#FA8D1C"/>

<rect x="199" y="0" width="1" height="200" fill="#E9E4E1"/>

</g>

</g>


<g id="4" transform="translate(800,0)scale(1,1)">


<rect x="0" y="0" width="14" height="200" fill="#2A8B8F"/>

<rect x="14" y="0" width="30" height="200" fill="#2A8B8F"/>

<rect x="44" y="0" width="95" height="200" fill="#FA8D1C"/>

<rect x="139" y="0" width="20" height="200" fill="#FA8D1C"/>

<rect x="159" y="0" width="27" height="200" fill="#FA8D1C"/>

<rect x="186" y="0" width="2" height="200" fill="#FA8D1C"/>

<rect x="188" y="0" width="5" height="200" fill="#2A8B8F"/>

<rect x="193" y="0" width="3" height="200" fill="#2A8B8F"/>

<rect x="196" y="0" width="3" height="200" fill="#E9E4E1"/>

<rect x="199" y="0" width="1" height="200" fill="#5DB4B7"/>

<g transform = "rotate(90, 100, 100)" fill-opacity="0.7">

<rect x="0" y="0" width="50" height="200" fill="#E9E4E1"/>

<rect x="50" y="0" width="146" height="200" fill="#E9E4E1"/>

<rect x="196" y="0" width="3" height="200" fill="#FA8D1C"/>

<rect x="199" y="0" width="1" height="200" fill="#E9E4E1"/>

</g>

</g>


</g>

</svg>