<?xml version="1.0" standalone="no"?>
<!DOCTYPE svg PUBLIC "-//W3C//DTD SVG 20010904//EN"
 "http://www.w3.org/TR/2001/REC-SVG-20010904/DTD/svg10.dtd">
<svg version="1.0" xmlns="http://www.w3.org/2000/svg" 
width="800" height="800" viewBox="0 0 800 800"
preserveAspectRatio = "xMidYMid meet" >
<metadata>
Created by ZoeQu, written in 2024
</metadata>

<g id="row0" transform="translate(0,0.0)">

<g id="0" transform="translate(0,0)scale(1,1)">


<rect x="0" y="0" width="12" height="200" fill="#949271"/>

<rect x="12" y="0" width="38" height="200" fill="#EFB664"/>

<rect x="50" y="0" width="69" height="200" fill="#167F79"/>

<rect x="119" y="0" width="48" height="200" fill="#949271"/>

<rect x="167" y="0" width="22" height="200" fill="#167F79"/>

<rect x="189" y="0" width="10" height="200" fill="#167F79"/>

<rect x="199" y="0" width="1" height="200" fill="#EFB664"/>

<rect x="200" y="0" width="0" height="200" fill="#167F79"/>

<g transform = "rotate(90, 100, 100)" fill-opacity="0.7">

<rect x="0" y="0" width="15" height="200" fill="#EFB664"/>

<rect x="15" y="0" width="167" height="200" fill="#EFB664"/>

<rect x="182" y="0" width="12" height="200" fill="#EFB664"/>

<rect x="194" y="0" width="1" height="200" fill="#949271"/>

<rect x="195" y="0" width="1" height="200" fill="#949271"/>

<rect x="196" y="0" width="4" height="200" fill="#949271"/>

<rect x="200" y="0" width="0" height="200" fill="#949271"/>

<rect x="200" y="0" width="0" height="200" fill="#EFB664"/>

<rect x="200" y="0" width="0" height="200" fill="#EFB664"/>

</g>

</g>


<g id="1" transform="translate(200,0)scale(1,1)">


<rect x="0" y="0" width="12" height="200" fill="#949271"/>

<rect x="12" y="0" width="38" height="200" fill="#EFB664"/>

<rect x="50" y="0" width="69" height="200" fill="#167F79"/>

<rect x="119" y="0" width="48" height="200" fill="#949271"/>

<rect x="167" y="0" width="22" height="200" fill="#167F79"/>

<rect x="189" y="0" width="10" height="200" fill="#167F79"/>

<rect x="199" y="0" width="1" height="200" fill="#EFB664"/>

<rect x="200" y="0" width="0" height="200" fill="#167F79"/>

<g transform = "rotate(90, 100, 100)" fill-opacity="0.7">

<rect x="0" y="0" width="15" height="200" fill="#EFB664"/>

<rect x="15" y="0" width="167" height="200" fill="#EFB664"/>

<rect x="182" y="0" width="12" height="200" fill="#EFB664"/>

<rect x="194" y="0" width="1" height="200" fill="#949271"/>

<rect x="195" y="0" width="1" height="200" fill="#949271"/>

<rect x="196" y="0" width="4" height="200" fill="#949271"/>

<rect x="200" y="0" width="0" height="200" fill="#949271"/>

<rect x="200" y="0" width="0" height="200" fill="#EFB664"/>

<rect x="200" y="0" width="0" height="200" fill="#EFB664"/>

</g>

</g>


<g id="2" transform="translate(400,0)scale(1,1)">


<rect x="0" y="0" width="12" height="200" fill="#949271"/>

<rect x="12" y="0" width="38" height="200" fill="#EFB664"/>

<rect x="50" y="0" width="69" height="200" fill="#167F79"/>

<rect x="119" y="0" width="48" height="200" fill="#949271"/>

<rect x="167" y="0" width="22" height="200" fill="#167F79"/>

<rect x="189" y="0" width="10" height="200" fill="#167F79"/>

<rect x="199" y="0" width="1" height="200" fill="#EFB664"/>

<rect x="200" y="0" width="0" height="200" fill="#167F79"/>

<g transform = "rotate(90, 100, 100)" fill-opacity="0.7">

<rect x="0" y="0" width="15" height="200" fill="#EFB664"/>

<rect x="15" y="0" width="167" height="200" fill="#EFB664"/>

<rect x="182" y="0" width="12" height="200" fill="#EFB664"/>

<rect x="194" y="0" width="1" height="200" fill="#949271"/>

<rect x="195" y="0" width="1" height="200" fill="#949271"/>

<rect x="196" y="0" width="4" height="200" fill="#949271"/>

<rect x="200" y="0" width="0" height="200" fill="#949271"/>

<rect x="200" y="0" width="0" height="200" fill="#EFB664"/>

<rect x="200" y="0" width="0" height="200" fill="#EFB664"/>

</g>

</g>


<g id="3" transform="translate(600,0)scale(1,1)">


<rect x="0" y="0" width="12" height="200" fill="#949271"/>

<rect x="12" y="0" width="38" height="200" fill="#EFB664"/>

<rect x="50" y="0" width="69" height="200" fill="#167F79"/>

<rect x="119" y="0" width="48" height="200" fill="#949271"/>

<rect x="167" y="0" width="22" height="200" fill="#167F79"/>

<rect x="189" y="0" width="10" height="200" fill="#167F79"/>

<rect x="199" y="0" width="1" height="200" fill="#EFB664"/>

<rect x="200" y="0" width="0" height="200" fill="#167F79"/>

<g transform = "rotate(90, 100, 100)" fill-opacity="0.7">

<rect x="0" y="0" width="15" height="200" fill="#EFB664"/>

<rect x="15" y="0" width="167" height="200" fill="#EFB664"/>

<rect x="182" y="0" width="12" height="200" fill="#EFB664"/>

<rect x="194" y="0" width="1" height="200" fill="#949271"/>

<rect x="195" y="0" width="1" height="200" fill="#949271"/>

<rect x="196" y="0" width="4" height="200" fill="#949271"/>

<rect x="200" y="0" width="0" height="200" fill="#949271"/>

<rect x="200" y="0" width="0" height="200" fill="#EFB664"/>

<rect x="200" y="0" width="0" height="200" fill="#EFB664"/>

</g>

</g>


<g id="4" transform="translate(800,0)scale(1,1)">


<rect x="0" y="0" width="12" height="200" fill="#949271"/>

<rect x="12" y="0" width="38" height="200" fill="#EFB664"/>

<rect x="50" y="0" width="69" height="200" fill="#167F79"/>

<rect x="119" y="0" width="48" height="200" fill="#949271"/>

<rect x="167" y="0" width="22" height="200" fill="#167F79"/>

<rect x="189" y="0" width="10" height="200" fill="#167F79"/>

<rect x="199" y="0" width="1" height="200" fill="#EFB664"/>

<rect x="200" y="0" width="0" height="200" fill="#167F79"/>

<g transform = "rotate(90, 100, 100)" fill-opacity="0.7">

<rect x="0" y="0" width="15" height="200" fill="#EFB664"/>

<rect x="15" y="0" width="167" height="200" fill="#EFB664"/>

<rect x="182" y="0" width="12" height="200" fill="#EFB664"/>

<rect x="194" y="0" width="1" height="200" fill="#949271"/>

<rect x="195" y="0" width="1" height="200" fill="#949271"/>

<rect x="196" y="0" width="4" height="200" fill="#949271"/>

<rect x="200" y="0" width="0" height="200" fill="#949271"/>

<rect x="200" y="0" width="0" height="200" fill="#EFB664"/>

<rect x="200" y="0" width="0" height="200" fill="#EFB664"/>

</g>

</g>


</g>

<g id="row1" transform="translate(0,200.0)">

<g id="0" transform="translate(0,0)scale(1,1)">


<rect x="0" y="0" width="12" height="200" fill="#949271"/>

<rect x="12" y="0" width="38" height="200" fill="#EFB664"/>

<rect x="50" y="0" width="69" height="200" fill="#167F79"/>

<rect x="119" y="0" width="48" height="200" fill="#949271"/>

<rect x="167" y="0" width="22" height="200" fill="#167F79"/>

<rect x="189" y="0" width="10" height="200" fill="#167F79"/>

<rect x="199" y="0" width="1" height="200" fill="#EFB664"/>

<rect x="200" y="0" width="0" height="200" fill="#167F79"/>

<g transform = "rotate(90, 100, 100)" fill-opacity="0.7">

<rect x="0" y="0" width="15" height="200" fill="#EFB664"/>

<rect x="15" y="0" width="167" height="200" fill="#EFB664"/>

<rect x="182" y="0" width="12" height="200" fill="#EFB664"/>

<rect x="194" y="0" width="1" height="200" fill="#949271"/>

<rect x="195" y="0" width="1" height="200" fill="#949271"/>

<rect x="196" y="0" width="4" height="200" fill="#949271"/>

<rect x="200" y="0" width="0" height="200" fill="#949271"/>

<rect x="200" y="0" width="0" height="200" fill="#EFB664"/>

<rect x="200" y="0" width="0" height="200" fill="#EFB664"/>

</g>

</g>


<g id="1" transform="translate(200,0)scale(1,1)">


<rect x="0" y="0" width="12" height="200" fill="#949271"/>

<rect x="12" y="0" width="38" height="200" fill="#EFB664"/>

<rect x="50" y="0" width="69" height="200" fill="#167F79"/>

<rect x="119" y="0" width="48" height="200" fill="#949271"/>

<rect x="167" y="0" width="22" height="200" fill="#167F79"/>

<rect x="189" y="0" width="10" height="200" fill="#167F79"/>

<rect x="199" y="0" width="1" height="200" fill="#EFB664"/>

<rect x="200" y="0" width="0" height="200" fill="#167F79"/>

<g transform = "rotate(90, 100, 100)" fill-opacity="0.7">

<rect x="0" y="0" width="15" height="200" fill="#EFB664"/>

<rect x="15" y="0" width="167" height="200" fill="#EFB664"/>

<rect x="182" y="0" width="12" height="200" fill="#EFB664"/>

<rect x="194" y="0" width="1" height="200" fill="#949271"/>

<rect x="195" y="0" width="1" height="200" fill="#949271"/>

<rect x="196" y="0" width="4" height="200" fill="#949271"/>

<rect x="200" y="0" width="0" height="200" fill="#949271"/>

<rect x="200" y="0" width="0" height="200" fill="#EFB664"/>

<rect x="200" y="0" width="0" height="200" fill="#EFB664"/>

</g>

</g>


<g id="2" transform="translate(400,0)scale(1,1)">


<rect x="0" y="0" width="12" height="200" fill="#949271"/>

<rect x="12" y="0" width="38" height="200" fill="#EFB664"/>

<rect x="50" y="0" width="69" height="200" fill="#167F79"/>

<rect x="119" y="0" width="48" height="200" fill="#949271"/>

<rect x="167" y="0" width="22" height="200" fill="#167F79"/>

<rect x="189" y="0" width="10" height="200" fill="#167F79"/>

<rect x="199" y="0" width="1" height="200" fill="#EFB664"/>

<rect x="200" y="0" width="0" height="200" fill="#167F79"/>

<g transform = "rotate(90, 100, 100)" fill-opacity="0.7">

<rect x="0" y="0" width="15" height="200" fill="#EFB664"/>

<rect x="15" y="0" width="167" height="200" fill="#EFB664"/>

<rect x="182" y="0" width="12" height="200" fill="#EFB664"/>

<rect x="194" y="0" width="1" height="200" fill="#949271"/>

<rect x="195" y="0" width="1" height="200" fill="#949271"/>

<rect x="196" y="0" width="4" height="200" fill="#949271"/>

<rect x="200" y="0" width="0" height="200" fill="#949271"/>

<rect x="200" y="0" width="0" height="200" fill="#EFB664"/>

<rect x="200" y="0" width="0" height="200" fill="#EFB664"/>

</g>

</g>


<g id="3" transform="translate(600,0)scale(1,1)">


<rect x="0" y="0" width="12" height="200" fill="#949271"/>

<rect x="12" y="0" width="38" height="200" fill="#EFB664"/>

<rect x="50" y="0" width="69" height="200" fill="#167F79"/>

<rect x="119" y="0" width="48" height="200" fill="#949271"/>

<rect x="167" y="0" width="22" height="200" fill="#167F79"/>

<rect x="189" y="0" width="10" height="200" fill="#167F79"/>

<rect x="199" y="0" width="1" height="200" fill="#EFB664"/>

<rect x="200" y="0" width="0" height="200" fill="#167F79"/>

<g transform = "rotate(90, 100, 100)" fill-opacity="0.7">

<rect x="0" y="0" width="15" height="200" fill="#EFB664"/>

<rect x="15" y="0" width="167" height="200" fill="#EFB664"/>

<rect x="182" y="0" width="12" height="200" fill="#EFB664"/>

<rect x="194" y="0" width="1" height="200" fill="#949271"/>

<rect x="195" y="0" width="1" height="200" fill="#949271"/>

<rect x="196" y="0" width="4" height="200" fill="#949271"/>

<rect x="200" y="0" width="0" height="200" fill="#949271"/>

<rect x="200" y="0" width="0" height="200" fill="#EFB664"/>

<rect x="200" y="0" width="0" height="200" fill="#EFB664"/>

</g>

</g>


<g id="4" transform="translate(800,0)scale(1,1)">


<rect x="0" y="0" width="12" height="200" fill="#949271"/>

<rect x="12" y="0" width="38" height="200" fill="#EFB664"/>

<rect x="50" y="0" width="69" height="200" fill="#167F79"/>

<rect x="119" y="0" width="48" height="200" fill="#949271"/>

<rect x="167" y="0" width="22" height="200" fill="#167F79"/>

<rect x="189" y="0" width="10" height="200" fill="#167F79"/>

<rect x="199" y="0" width="1" height="200" fill="#EFB664"/>

<rect x="200" y="0" width="0" height="200" fill="#167F79"/>

<g transform = "rotate(90, 100, 100)" fill-opacity="0.7">

<rect x="0" y="0" width="15" height="200" fill="#EFB664"/>

<rect x="15" y="0" width="167" height="200" fill="#EFB664"/>

<rect x="182" y="0" width="12" height="200" fill="#EFB664"/>

<rect x="194" y="0" width="1" height="200" fill="#949271"/>

<rect x="195" y="0" width="1" height="200" fill="#949271"/>

<rect x="196" y="0" width="4" height="200" fill="#949271"/>

<rect x="200" y="0" width="0" height="200" fill="#949271"/>

<rect x="200" y="0" width="0" height="200" fill="#EFB664"/>

<rect x="200" y="0" width="0" height="200" fill="#EFB664"/>

</g>

</g>


</g>

<g id="row2" transform="translate(0,400.0)">

<g id="0" transform="translate(0,0)scale(1,1)">


<rect x="0" y="0" width="12" height="200" fill="#949271"/>

<rect x="12" y="0" width="38" height="200" fill="#EFB664"/>

<rect x="50" y="0" width="69" height="200" fill="#167F79"/>

<rect x="119" y="0" width="48" height="200" fill="#949271"/>

<rect x="167" y="0" width="22" height="200" fill="#167F79"/>

<rect x="189" y="0" width="10" height="200" fill="#167F79"/>

<rect x="199" y="0" width="1" height="200" fill="#EFB664"/>

<rect x="200" y="0" width="0" height="200" fill="#167F79"/>

<g transform = "rotate(90, 100, 100)" fill-opacity="0.7">

<rect x="0" y="0" width="15" height="200" fill="#EFB664"/>

<rect x="15" y="0" width="167" height="200" fill="#EFB664"/>

<rect x="182" y="0" width="12" height="200" fill="#EFB664"/>

<rect x="194" y="0" width="1" height="200" fill="#949271"/>

<rect x="195" y="0" width="1" height="200" fill="#949271"/>

<rect x="196" y="0" width="4" height="200" fill="#949271"/>

<rect x="200" y="0" width="0" height="200" fill="#949271"/>

<rect x="200" y="0" width="0" height="200" fill="#EFB664"/>

<rect x="200" y="0" width="0" height="200" fill="#EFB664"/>

</g>

</g>


<g id="1" transform="translate(200,0)scale(1,1)">


<rect x="0" y="0" width="12" height="200" fill="#949271"/>

<rect x="12" y="0" width="38" height="200" fill="#EFB664"/>

<rect x="50" y="0" width="69" height="200" fill="#167F79"/>

<rect x="119" y="0" width="48" height="200" fill="#949271"/>

<rect x="167" y="0" width="22" height="200" fill="#167F79"/>

<rect x="189" y="0" width="10" height="200" fill="#167F79"/>

<rect x="199" y="0" width="1" height="200" fill="#EFB664"/>

<rect x="200" y="0" width="0" height="200" fill="#167F79"/>

<g transform = "rotate(90, 100, 100)" fill-opacity="0.7">

<rect x="0" y="0" width="15" height="200" fill="#EFB664"/>

<rect x="15" y="0" width="167" height="200" fill="#EFB664"/>

<rect x="182" y="0" width="12" height="200" fill="#EFB664"/>

<rect x="194" y="0" width="1" height="200" fill="#949271"/>

<rect x="195" y="0" width="1" height="200" fill="#949271"/>

<rect x="196" y="0" width="4" height="200" fill="#949271"/>

<rect x="200" y="0" width="0" height="200" fill="#949271"/>

<rect x="200" y="0" width="0" height="200" fill="#EFB664"/>

<rect x="200" y="0" width="0" height="200" fill="#EFB664"/>

</g>

</g>


<g id="2" transform="translate(400,0)scale(1,1)">


<rect x="0" y="0" width="12" height="200" fill="#949271"/>

<rect x="12" y="0" width="38" height="200" fill="#EFB664"/>

<rect x="50" y="0" width="69" height="200" fill="#167F79"/>

<rect x="119" y="0" width="48" height="200" fill="#949271"/>

<rect x="167" y="0" width="22" height="200" fill="#167F79"/>

<rect x="189" y="0" width="10" height="200" fill="#167F79"/>

<rect x="199" y="0" width="1" height="200" fill="#EFB664"/>

<rect x="200" y="0" width="0" height="200" fill="#167F79"/>

<g transform = "rotate(90, 100, 100)" fill-opacity="0.7">

<rect x="0" y="0" width="15" height="200" fill="#EFB664"/>

<rect x="15" y="0" width="167" height="200" fill="#EFB664"/>

<rect x="182" y="0" width="12" height="200" fill="#EFB664"/>

<rect x="194" y="0" width="1" height="200" fill="#949271"/>

<rect x="195" y="0" width="1" height="200" fill="#949271"/>

<rect x="196" y="0" width="4" height="200" fill="#949271"/>

<rect x="200" y="0" width="0" height="200" fill="#949271"/>

<rect x="200" y="0" width="0" height="200" fill="#EFB664"/>

<rect x="200" y="0" width="0" height="200" fill="#EFB664"/>

</g>

</g>


<g id="3" transform="translate(600,0)scale(1,1)">


<rect x="0" y="0" width="12" height="200" fill="#949271"/>

<rect x="12" y="0" width="38" height="200" fill="#EFB664"/>

<rect x="50" y="0" width="69" height="200" fill="#167F79"/>

<rect x="119" y="0" width="48" height="200" fill="#949271"/>

<rect x="167" y="0" width="22" height="200" fill="#167F79"/>

<rect x="189" y="0" width="10" height="200" fill="#167F79"/>

<rect x="199" y="0" width="1" height="200" fill="#EFB664"/>

<rect x="200" y="0" width="0" height="200" fill="#167F79"/>

<g transform = "rotate(90, 100, 100)" fill-opacity="0.7">

<rect x="0" y="0" width="15" height="200" fill="#EFB664"/>

<rect x="15" y="0" width="167" height="200" fill="#EFB664"/>

<rect x="182" y="0" width="12" height="200" fill="#EFB664"/>

<rect x="194" y="0" width="1" height="200" fill="#949271"/>

<rect x="195" y="0" width="1" height="200" fill="#949271"/>

<rect x="196" y="0" width="4" height="200" fill="#949271"/>

<rect x="200" y="0" width="0" height="200" fill="#949271"/>

<rect x="200" y="0" width="0" height="200" fill="#EFB664"/>

<rect x="200" y="0" width="0" height="200" fill="#EFB664"/>

</g>

</g>


<g id="4" transform="translate(800,0)scale(1,1)">


<rect x="0" y="0" width="12" height="200" fill="#949271"/>

<rect x="12" y="0" width="38" height="200" fill="#EFB664"/>

<rect x="50" y="0" width="69" height="200" fill="#167F79"/>

<rect x="119" y="0" width="48" height="200" fill="#949271"/>

<rect x="167" y="0" width="22" height="200" fill="#167F79"/>

<rect x="189" y="0" width="10" height="200" fill="#167F79"/>

<rect x="199" y="0" width="1" height="200" fill="#EFB664"/>

<rect x="200" y="0" width="0" height="200" fill="#167F79"/>

<g transform = "rotate(90, 100, 100)" fill-opacity="0.7">

<rect x="0" y="0" width="15" height="200" fill="#EFB664"/>

<rect x="15" y="0" width="167" height="200" fill="#EFB664"/>

<rect x="182" y="0" width="12" height="200" fill="#EFB664"/>

<rect x="194" y="0" width="1" height="200" fill="#949271"/>

<rect x="195" y="0" width="1" height="200" fill="#949271"/>

<rect x="196" y="0" width="4" height="200" fill="#949271"/>

<rect x="200" y="0" width="0" height="200" fill="#949271"/>

<rect x="200" y="0" width="0" height="200" fill="#EFB664"/>

<rect x="200" y="0" width="0" height="200" fill="#EFB664"/>

</g>

</g>


</g>

<g id="row3" transform="translate(0,600.0)">

<g id="0" transform="translate(0,0)scale(1,1)">


<rect x="0" y="0" width="12" height="200" fill="#949271"/>

<rect x="12" y="0" width="38" height="200" fill="#EFB664"/>

<rect x="50" y="0" width="69" height="200" fill="#167F79"/>

<rect x="119" y="0" width="48" height="200" fill="#949271"/>

<rect x="167" y="0" width="22" height="200" fill="#167F79"/>

<rect x="189" y="0" width="10" height="200" fill="#167F79"/>

<rect x="199" y="0" width="1" height="200" fill="#EFB664"/>

<rect x="200" y="0" width="0" height="200" fill="#167F79"/>

<g transform = "rotate(90, 100, 100)" fill-opacity="0.7">

<rect x="0" y="0" width="15" height="200" fill="#EFB664"/>

<rect x="15" y="0" width="167" height="200" fill="#EFB664"/>

<rect x="182" y="0" width="12" height="200" fill="#EFB664"/>

<rect x="194" y="0" width="1" height="200" fill="#949271"/>

<rect x="195" y="0" width="1" height="200" fill="#949271"/>

<rect x="196" y="0" width="4" height="200" fill="#949271"/>

<rect x="200" y="0" width="0" height="200" fill="#949271"/>

<rect x="200" y="0" width="0" height="200" fill="#EFB664"/>

<rect x="200" y="0" width="0" height="200" fill="#EFB664"/>

</g>

</g>


<g id="1" transform="translate(200,0)scale(1,1)">


<rect x="0" y="0" width="12" height="200" fill="#949271"/>

<rect x="12" y="0" width="38" height="200" fill="#EFB664"/>

<rect x="50" y="0" width="69" height="200" fill="#167F79"/>

<rect x="119" y="0" width="48" height="200" fill="#949271"/>

<rect x="167" y="0" width="22" height="200" fill="#167F79"/>

<rect x="189" y="0" width="10" height="200" fill="#167F79"/>

<rect x="199" y="0" width="1" height="200" fill="#EFB664"/>

<rect x="200" y="0" width="0" height="200" fill="#167F79"/>

<g transform = "rotate(90, 100, 100)" fill-opacity="0.7">

<rect x="0" y="0" width="15" height="200" fill="#EFB664"/>

<rect x="15" y="0" width="167" height="200" fill="#EFB664"/>

<rect x="182" y="0" width="12" height="200" fill="#EFB664"/>

<rect x="194" y="0" width="1" height="200" fill="#949271"/>

<rect x="195" y="0" width="1" height="200" fill="#949271"/>

<rect x="196" y="0" width="4" height="200" fill="#949271"/>

<rect x="200" y="0" width="0" height="200" fill="#949271"/>

<rect x="200" y="0" width="0" height="200" fill="#EFB664"/>

<rect x="200" y="0" width="0" height="200" fill="#EFB664"/>

</g>

</g>


<g id="2" transform="translate(400,0)scale(1,1)">


<rect x="0" y="0" width="12" height="200" fill="#949271"/>

<rect x="12" y="0" width="38" height="200" fill="#EFB664"/>

<rect x="50" y="0" width="69" height="200" fill="#167F79"/>

<rect x="119" y="0" width="48" height="200" fill="#949271"/>

<rect x="167" y="0" width="22" height="200" fill="#167F79"/>

<rect x="189" y="0" width="10" height="200" fill="#167F79"/>

<rect x="199" y="0" width="1" height="200" fill="#EFB664"/>

<rect x="200" y="0" width="0" height="200" fill="#167F79"/>

<g transform = "rotate(90, 100, 100)" fill-opacity="0.7">

<rect x="0" y="0" width="15" height="200" fill="#EFB664"/>

<rect x="15" y="0" width="167" height="200" fill="#EFB664"/>

<rect x="182" y="0" width="12" height="200" fill="#EFB664"/>

<rect x="194" y="0" width="1" height="200" fill="#949271"/>

<rect x="195" y="0" width="1" height="200" fill="#949271"/>

<rect x="196" y="0" width="4" height="200" fill="#949271"/>

<rect x="200" y="0" width="0" height="200" fill="#949271"/>

<rect x="200" y="0" width="0" height="200" fill="#EFB664"/>

<rect x="200" y="0" width="0" height="200" fill="#EFB664"/>

</g>

</g>


<g id="3" transform="translate(600,0)scale(1,1)">


<rect x="0" y="0" width="12" height="200" fill="#949271"/>

<rect x="12" y="0" width="38" height="200" fill="#EFB664"/>

<rect x="50" y="0" width="69" height="200" fill="#167F79"/>

<rect x="119" y="0" width="48" height="200" fill="#949271"/>

<rect x="167" y="0" width="22" height="200" fill="#167F79"/>

<rect x="189" y="0" width="10" height="200" fill="#167F79"/>

<rect x="199" y="0" width="1" height="200" fill="#EFB664"/>

<rect x="200" y="0" width="0" height="200" fill="#167F79"/>

<g transform = "rotate(90, 100, 100)" fill-opacity="0.7">

<rect x="0" y="0" width="15" height="200" fill="#EFB664"/>

<rect x="15" y="0" width="167" height="200" fill="#EFB664"/>

<rect x="182" y="0" width="12" height="200" fill="#EFB664"/>

<rect x="194" y="0" width="1" height="200" fill="#949271"/>

<rect x="195" y="0" width="1" height="200" fill="#949271"/>

<rect x="196" y="0" width="4" height="200" fill="#949271"/>

<rect x="200" y="0" width="0" height="200" fill="#949271"/>

<rect x="200" y="0" width="0" height="200" fill="#EFB664"/>

<rect x="200" y="0" width="0" height="200" fill="#EFB664"/>

</g>

</g>


<g id="4" transform="translate(800,0)scale(1,1)">


<rect x="0" y="0" width="12" height="200" fill="#949271"/>

<rect x="12" y="0" width="38" height="200" fill="#EFB664"/>

<rect x="50" y="0" width="69" height="200" fill="#167F79"/>

<rect x="119" y="0" width="48" height="200" fill="#949271"/>

<rect x="167" y="0" width="22" height="200" fill="#167F79"/>

<rect x="189" y="0" width="10" height="200" fill="#167F79"/>

<rect x="199" y="0" width="1" height="200" fill="#EFB664"/>

<rect x="200" y="0" width="0" height="200" fill="#167F79"/>

<g transform = "rotate(90, 100, 100)" fill-opacity="0.7">

<rect x="0" y="0" width="15" height="200" fill="#EFB664"/>

<rect x="15" y="0" width="167" height="200" fill="#EFB664"/>

<rect x="182" y="0" width="12" height="200" fill="#EFB664"/>

<rect x="194" y="0" width="1" height="200" fill="#949271"/>

<rect x="195" y="0" width="1" height="200" fill="#949271"/>

<rect x="196" y="0" width="4" height="200" fill="#949271"/>

<rect x="200" y="0" width="0" height="200" fill="#949271"/>

<rect x="200" y="0" width="0" height="200" fill="#EFB664"/>

<rect x="200" y="0" width="0" height="200" fill="#EFB664"/>

</g>

</g>


</g>

</svg>