<?xml version="1.0" standalone="no"?>
<!DOCTYPE svg PUBLIC "-//W3C//DTD SVG 20010904//EN"
 "http://www.w3.org/TR/2001/REC-SVG-20010904/DTD/svg10.dtd">
<svg version="1.0" xmlns="http://www.w3.org/2000/svg" 
width="800" height="800" viewBox="0 0 800 800"
preserveAspectRatio = "xMidYMid meet" >
<metadata>
Created by ZoeQu, written in 2024
</metadata>

<g id="row0" transform="translate(0,0.0)">

<g id="0" transform="translate(0,0)scale(1,1)">


<rect x="0" y="0" width="21" height="200" fill="#38999E"/>

<rect x="21" y="0" width="172" height="200" fill="#38999E"/>

<rect x="193" y="0" width="7" height="200" fill="#E5E3DF"/>

<g transform = "rotate(90, 100, 100)" fill-opacity="0.7">

<rect x="0" y="0" width="20" height="200" fill="#38999E"/>

<rect x="20" y="0" width="9" height="200" fill="#FA8D1C"/>

<rect x="29" y="0" width="18" height="200" fill="#FA8D1C"/>

<rect x="47" y="0" width="51" height="200" fill="#FA8D1C"/>

<rect x="98" y="0" width="35" height="200" fill="#FA8D1C"/>

<rect x="133" y="0" width="35" height="200" fill="#E5E3DF"/>

<rect x="168" y="0" width="26" height="200" fill="#FA8D1C"/>

<rect x="194" y="0" width="0" height="200" fill="#FA8D1C"/>

<rect x="194" y="0" width="6" height="200" fill="#38999E"/>

</g>

</g>


<g id="1" transform="translate(200,0)scale(1,1)">


<rect x="0" y="0" width="21" height="200" fill="#38999E"/>

<rect x="21" y="0" width="172" height="200" fill="#38999E"/>

<rect x="193" y="0" width="7" height="200" fill="#E5E3DF"/>

<g transform = "rotate(90, 100, 100)" fill-opacity="0.7">

<rect x="0" y="0" width="20" height="200" fill="#38999E"/>

<rect x="20" y="0" width="9" height="200" fill="#FA8D1C"/>

<rect x="29" y="0" width="18" height="200" fill="#FA8D1C"/>

<rect x="47" y="0" width="51" height="200" fill="#FA8D1C"/>

<rect x="98" y="0" width="35" height="200" fill="#FA8D1C"/>

<rect x="133" y="0" width="35" height="200" fill="#E5E3DF"/>

<rect x="168" y="0" width="26" height="200" fill="#FA8D1C"/>

<rect x="194" y="0" width="0" height="200" fill="#FA8D1C"/>

<rect x="194" y="0" width="6" height="200" fill="#38999E"/>

</g>

</g>


<g id="2" transform="translate(400,0)scale(1,1)">


<rect x="0" y="0" width="21" height="200" fill="#38999E"/>

<rect x="21" y="0" width="172" height="200" fill="#38999E"/>

<rect x="193" y="0" width="7" height="200" fill="#E5E3DF"/>

<g transform = "rotate(90, 100, 100)" fill-opacity="0.7">

<rect x="0" y="0" width="20" height="200" fill="#38999E"/>

<rect x="20" y="0" width="9" height="200" fill="#FA8D1C"/>

<rect x="29" y="0" width="18" height="200" fill="#FA8D1C"/>

<rect x="47" y="0" width="51" height="200" fill="#FA8D1C"/>

<rect x="98" y="0" width="35" height="200" fill="#FA8D1C"/>

<rect x="133" y="0" width="35" height="200" fill="#E5E3DF"/>

<rect x="168" y="0" width="26" height="200" fill="#FA8D1C"/>

<rect x="194" y="0" width="0" height="200" fill="#FA8D1C"/>

<rect x="194" y="0" width="6" height="200" fill="#38999E"/>

</g>

</g>


<g id="3" transform="translate(600,0)scale(1,1)">


<rect x="0" y="0" width="21" height="200" fill="#38999E"/>

<rect x="21" y="0" width="172" height="200" fill="#38999E"/>

<rect x="193" y="0" width="7" height="200" fill="#E5E3DF"/>

<g transform = "rotate(90, 100, 100)" fill-opacity="0.7">

<rect x="0" y="0" width="20" height="200" fill="#38999E"/>

<rect x="20" y="0" width="9" height="200" fill="#FA8D1C"/>

<rect x="29" y="0" width="18" height="200" fill="#FA8D1C"/>

<rect x="47" y="0" width="51" height="200" fill="#FA8D1C"/>

<rect x="98" y="0" width="35" height="200" fill="#FA8D1C"/>

<rect x="133" y="0" width="35" height="200" fill="#E5E3DF"/>

<rect x="168" y="0" width="26" height="200" fill="#FA8D1C"/>

<rect x="194" y="0" width="0" height="200" fill="#FA8D1C"/>

<rect x="194" y="0" width="6" height="200" fill="#38999E"/>

</g>

</g>


<g id="4" transform="translate(800,0)scale(1,1)">


<rect x="0" y="0" width="21" height="200" fill="#38999E"/>

<rect x="21" y="0" width="172" height="200" fill="#38999E"/>

<rect x="193" y="0" width="7" height="200" fill="#E5E3DF"/>

<g transform = "rotate(90, 100, 100)" fill-opacity="0.7">

<rect x="0" y="0" width="20" height="200" fill="#38999E"/>

<rect x="20" y="0" width="9" height="200" fill="#FA8D1C"/>

<rect x="29" y="0" width="18" height="200" fill="#FA8D1C"/>

<rect x="47" y="0" width="51" height="200" fill="#FA8D1C"/>

<rect x="98" y="0" width="35" height="200" fill="#FA8D1C"/>

<rect x="133" y="0" width="35" height="200" fill="#E5E3DF"/>

<rect x="168" y="0" width="26" height="200" fill="#FA8D1C"/>

<rect x="194" y="0" width="0" height="200" fill="#FA8D1C"/>

<rect x="194" y="0" width="6" height="200" fill="#38999E"/>

</g>

</g>


</g>

<g id="row1" transform="translate(0,200.0)">

<g id="0" transform="translate(0,0)scale(1,1)">


<rect x="0" y="0" width="21" height="200" fill="#38999E"/>

<rect x="21" y="0" width="172" height="200" fill="#38999E"/>

<rect x="193" y="0" width="7" height="200" fill="#E5E3DF"/>

<g transform = "rotate(90, 100, 100)" fill-opacity="0.7">

<rect x="0" y="0" width="20" height="200" fill="#38999E"/>

<rect x="20" y="0" width="9" height="200" fill="#FA8D1C"/>

<rect x="29" y="0" width="18" height="200" fill="#FA8D1C"/>

<rect x="47" y="0" width="51" height="200" fill="#FA8D1C"/>

<rect x="98" y="0" width="35" height="200" fill="#FA8D1C"/>

<rect x="133" y="0" width="35" height="200" fill="#E5E3DF"/>

<rect x="168" y="0" width="26" height="200" fill="#FA8D1C"/>

<rect x="194" y="0" width="0" height="200" fill="#FA8D1C"/>

<rect x="194" y="0" width="6" height="200" fill="#38999E"/>

</g>

</g>


<g id="1" transform="translate(200,0)scale(1,1)">


<rect x="0" y="0" width="21" height="200" fill="#38999E"/>

<rect x="21" y="0" width="172" height="200" fill="#38999E"/>

<rect x="193" y="0" width="7" height="200" fill="#E5E3DF"/>

<g transform = "rotate(90, 100, 100)" fill-opacity="0.7">

<rect x="0" y="0" width="20" height="200" fill="#38999E"/>

<rect x="20" y="0" width="9" height="200" fill="#FA8D1C"/>

<rect x="29" y="0" width="18" height="200" fill="#FA8D1C"/>

<rect x="47" y="0" width="51" height="200" fill="#FA8D1C"/>

<rect x="98" y="0" width="35" height="200" fill="#FA8D1C"/>

<rect x="133" y="0" width="35" height="200" fill="#E5E3DF"/>

<rect x="168" y="0" width="26" height="200" fill="#FA8D1C"/>

<rect x="194" y="0" width="0" height="200" fill="#FA8D1C"/>

<rect x="194" y="0" width="6" height="200" fill="#38999E"/>

</g>

</g>


<g id="2" transform="translate(400,0)scale(1,1)">


<rect x="0" y="0" width="21" height="200" fill="#38999E"/>

<rect x="21" y="0" width="172" height="200" fill="#38999E"/>

<rect x="193" y="0" width="7" height="200" fill="#E5E3DF"/>

<g transform = "rotate(90, 100, 100)" fill-opacity="0.7">

<rect x="0" y="0" width="20" height="200" fill="#38999E"/>

<rect x="20" y="0" width="9" height="200" fill="#FA8D1C"/>

<rect x="29" y="0" width="18" height="200" fill="#FA8D1C"/>

<rect x="47" y="0" width="51" height="200" fill="#FA8D1C"/>

<rect x="98" y="0" width="35" height="200" fill="#FA8D1C"/>

<rect x="133" y="0" width="35" height="200" fill="#E5E3DF"/>

<rect x="168" y="0" width="26" height="200" fill="#FA8D1C"/>

<rect x="194" y="0" width="0" height="200" fill="#FA8D1C"/>

<rect x="194" y="0" width="6" height="200" fill="#38999E"/>

</g>

</g>


<g id="3" transform="translate(600,0)scale(1,1)">


<rect x="0" y="0" width="21" height="200" fill="#38999E"/>

<rect x="21" y="0" width="172" height="200" fill="#38999E"/>

<rect x="193" y="0" width="7" height="200" fill="#E5E3DF"/>

<g transform = "rotate(90, 100, 100)" fill-opacity="0.7">

<rect x="0" y="0" width="20" height="200" fill="#38999E"/>

<rect x="20" y="0" width="9" height="200" fill="#FA8D1C"/>

<rect x="29" y="0" width="18" height="200" fill="#FA8D1C"/>

<rect x="47" y="0" width="51" height="200" fill="#FA8D1C"/>

<rect x="98" y="0" width="35" height="200" fill="#FA8D1C"/>

<rect x="133" y="0" width="35" height="200" fill="#E5E3DF"/>

<rect x="168" y="0" width="26" height="200" fill="#FA8D1C"/>

<rect x="194" y="0" width="0" height="200" fill="#FA8D1C"/>

<rect x="194" y="0" width="6" height="200" fill="#38999E"/>

</g>

</g>


<g id="4" transform="translate(800,0)scale(1,1)">


<rect x="0" y="0" width="21" height="200" fill="#38999E"/>

<rect x="21" y="0" width="172" height="200" fill="#38999E"/>

<rect x="193" y="0" width="7" height="200" fill="#E5E3DF"/>

<g transform = "rotate(90, 100, 100)" fill-opacity="0.7">

<rect x="0" y="0" width="20" height="200" fill="#38999E"/>

<rect x="20" y="0" width="9" height="200" fill="#FA8D1C"/>

<rect x="29" y="0" width="18" height="200" fill="#FA8D1C"/>

<rect x="47" y="0" width="51" height="200" fill="#FA8D1C"/>

<rect x="98" y="0" width="35" height="200" fill="#FA8D1C"/>

<rect x="133" y="0" width="35" height="200" fill="#E5E3DF"/>

<rect x="168" y="0" width="26" height="200" fill="#FA8D1C"/>

<rect x="194" y="0" width="0" height="200" fill="#FA8D1C"/>

<rect x="194" y="0" width="6" height="200" fill="#38999E"/>

</g>

</g>


</g>

<g id="row2" transform="translate(0,400.0)">

<g id="0" transform="translate(0,0)scale(1,1)">


<rect x="0" y="0" width="21" height="200" fill="#38999E"/>

<rect x="21" y="0" width="172" height="200" fill="#38999E"/>

<rect x="193" y="0" width="7" height="200" fill="#E5E3DF"/>

<g transform = "rotate(90, 100, 100)" fill-opacity="0.7">

<rect x="0" y="0" width="20" height="200" fill="#38999E"/>

<rect x="20" y="0" width="9" height="200" fill="#FA8D1C"/>

<rect x="29" y="0" width="18" height="200" fill="#FA8D1C"/>

<rect x="47" y="0" width="51" height="200" fill="#FA8D1C"/>

<rect x="98" y="0" width="35" height="200" fill="#FA8D1C"/>

<rect x="133" y="0" width="35" height="200" fill="#E5E3DF"/>

<rect x="168" y="0" width="26" height="200" fill="#FA8D1C"/>

<rect x="194" y="0" width="0" height="200" fill="#FA8D1C"/>

<rect x="194" y="0" width="6" height="200" fill="#38999E"/>

</g>

</g>


<g id="1" transform="translate(200,0)scale(1,1)">


<rect x="0" y="0" width="21" height="200" fill="#38999E"/>

<rect x="21" y="0" width="172" height="200" fill="#38999E"/>

<rect x="193" y="0" width="7" height="200" fill="#E5E3DF"/>

<g transform = "rotate(90, 100, 100)" fill-opacity="0.7">

<rect x="0" y="0" width="20" height="200" fill="#38999E"/>

<rect x="20" y="0" width="9" height="200" fill="#FA8D1C"/>

<rect x="29" y="0" width="18" height="200" fill="#FA8D1C"/>

<rect x="47" y="0" width="51" height="200" fill="#FA8D1C"/>

<rect x="98" y="0" width="35" height="200" fill="#FA8D1C"/>

<rect x="133" y="0" width="35" height="200" fill="#E5E3DF"/>

<rect x="168" y="0" width="26" height="200" fill="#FA8D1C"/>

<rect x="194" y="0" width="0" height="200" fill="#FA8D1C"/>

<rect x="194" y="0" width="6" height="200" fill="#38999E"/>

</g>

</g>


<g id="2" transform="translate(400,0)scale(1,1)">


<rect x="0" y="0" width="21" height="200" fill="#38999E"/>

<rect x="21" y="0" width="172" height="200" fill="#38999E"/>

<rect x="193" y="0" width="7" height="200" fill="#E5E3DF"/>

<g transform = "rotate(90, 100, 100)" fill-opacity="0.7">

<rect x="0" y="0" width="20" height="200" fill="#38999E"/>

<rect x="20" y="0" width="9" height="200" fill="#FA8D1C"/>

<rect x="29" y="0" width="18" height="200" fill="#FA8D1C"/>

<rect x="47" y="0" width="51" height="200" fill="#FA8D1C"/>

<rect x="98" y="0" width="35" height="200" fill="#FA8D1C"/>

<rect x="133" y="0" width="35" height="200" fill="#E5E3DF"/>

<rect x="168" y="0" width="26" height="200" fill="#FA8D1C"/>

<rect x="194" y="0" width="0" height="200" fill="#FA8D1C"/>

<rect x="194" y="0" width="6" height="200" fill="#38999E"/>

</g>

</g>


<g id="3" transform="translate(600,0)scale(1,1)">


<rect x="0" y="0" width="21" height="200" fill="#38999E"/>

<rect x="21" y="0" width="172" height="200" fill="#38999E"/>

<rect x="193" y="0" width="7" height="200" fill="#E5E3DF"/>

<g transform = "rotate(90, 100, 100)" fill-opacity="0.7">

<rect x="0" y="0" width="20" height="200" fill="#38999E"/>

<rect x="20" y="0" width="9" height="200" fill="#FA8D1C"/>

<rect x="29" y="0" width="18" height="200" fill="#FA8D1C"/>

<rect x="47" y="0" width="51" height="200" fill="#FA8D1C"/>

<rect x="98" y="0" width="35" height="200" fill="#FA8D1C"/>

<rect x="133" y="0" width="35" height="200" fill="#E5E3DF"/>

<rect x="168" y="0" width="26" height="200" fill="#FA8D1C"/>

<rect x="194" y="0" width="0" height="200" fill="#FA8D1C"/>

<rect x="194" y="0" width="6" height="200" fill="#38999E"/>

</g>

</g>


<g id="4" transform="translate(800,0)scale(1,1)">


<rect x="0" y="0" width="21" height="200" fill="#38999E"/>

<rect x="21" y="0" width="172" height="200" fill="#38999E"/>

<rect x="193" y="0" width="7" height="200" fill="#E5E3DF"/>

<g transform = "rotate(90, 100, 100)" fill-opacity="0.7">

<rect x="0" y="0" width="20" height="200" fill="#38999E"/>

<rect x="20" y="0" width="9" height="200" fill="#FA8D1C"/>

<rect x="29" y="0" width="18" height="200" fill="#FA8D1C"/>

<rect x="47" y="0" width="51" height="200" fill="#FA8D1C"/>

<rect x="98" y="0" width="35" height="200" fill="#FA8D1C"/>

<rect x="133" y="0" width="35" height="200" fill="#E5E3DF"/>

<rect x="168" y="0" width="26" height="200" fill="#FA8D1C"/>

<rect x="194" y="0" width="0" height="200" fill="#FA8D1C"/>

<rect x="194" y="0" width="6" height="200" fill="#38999E"/>

</g>

</g>


</g>

<g id="row3" transform="translate(0,600.0)">

<g id="0" transform="translate(0,0)scale(1,1)">


<rect x="0" y="0" width="21" height="200" fill="#38999E"/>

<rect x="21" y="0" width="172" height="200" fill="#38999E"/>

<rect x="193" y="0" width="7" height="200" fill="#E5E3DF"/>

<g transform = "rotate(90, 100, 100)" fill-opacity="0.7">

<rect x="0" y="0" width="20" height="200" fill="#38999E"/>

<rect x="20" y="0" width="9" height="200" fill="#FA8D1C"/>

<rect x="29" y="0" width="18" height="200" fill="#FA8D1C"/>

<rect x="47" y="0" width="51" height="200" fill="#FA8D1C"/>

<rect x="98" y="0" width="35" height="200" fill="#FA8D1C"/>

<rect x="133" y="0" width="35" height="200" fill="#E5E3DF"/>

<rect x="168" y="0" width="26" height="200" fill="#FA8D1C"/>

<rect x="194" y="0" width="0" height="200" fill="#FA8D1C"/>

<rect x="194" y="0" width="6" height="200" fill="#38999E"/>

</g>

</g>


<g id="1" transform="translate(200,0)scale(1,1)">


<rect x="0" y="0" width="21" height="200" fill="#38999E"/>

<rect x="21" y="0" width="172" height="200" fill="#38999E"/>

<rect x="193" y="0" width="7" height="200" fill="#E5E3DF"/>

<g transform = "rotate(90, 100, 100)" fill-opacity="0.7">

<rect x="0" y="0" width="20" height="200" fill="#38999E"/>

<rect x="20" y="0" width="9" height="200" fill="#FA8D1C"/>

<rect x="29" y="0" width="18" height="200" fill="#FA8D1C"/>

<rect x="47" y="0" width="51" height="200" fill="#FA8D1C"/>

<rect x="98" y="0" width="35" height="200" fill="#FA8D1C"/>

<rect x="133" y="0" width="35" height="200" fill="#E5E3DF"/>

<rect x="168" y="0" width="26" height="200" fill="#FA8D1C"/>

<rect x="194" y="0" width="0" height="200" fill="#FA8D1C"/>

<rect x="194" y="0" width="6" height="200" fill="#38999E"/>

</g>

</g>


<g id="2" transform="translate(400,0)scale(1,1)">


<rect x="0" y="0" width="21" height="200" fill="#38999E"/>

<rect x="21" y="0" width="172" height="200" fill="#38999E"/>

<rect x="193" y="0" width="7" height="200" fill="#E5E3DF"/>

<g transform = "rotate(90, 100, 100)" fill-opacity="0.7">

<rect x="0" y="0" width="20" height="200" fill="#38999E"/>

<rect x="20" y="0" width="9" height="200" fill="#FA8D1C"/>

<rect x="29" y="0" width="18" height="200" fill="#FA8D1C"/>

<rect x="47" y="0" width="51" height="200" fill="#FA8D1C"/>

<rect x="98" y="0" width="35" height="200" fill="#FA8D1C"/>

<rect x="133" y="0" width="35" height="200" fill="#E5E3DF"/>

<rect x="168" y="0" width="26" height="200" fill="#FA8D1C"/>

<rect x="194" y="0" width="0" height="200" fill="#FA8D1C"/>

<rect x="194" y="0" width="6" height="200" fill="#38999E"/>

</g>

</g>


<g id="3" transform="translate(600,0)scale(1,1)">


<rect x="0" y="0" width="21" height="200" fill="#38999E"/>

<rect x="21" y="0" width="172" height="200" fill="#38999E"/>

<rect x="193" y="0" width="7" height="200" fill="#E5E3DF"/>

<g transform = "rotate(90, 100, 100)" fill-opacity="0.7">

<rect x="0" y="0" width="20" height="200" fill="#38999E"/>

<rect x="20" y="0" width="9" height="200" fill="#FA8D1C"/>

<rect x="29" y="0" width="18" height="200" fill="#FA8D1C"/>

<rect x="47" y="0" width="51" height="200" fill="#FA8D1C"/>

<rect x="98" y="0" width="35" height="200" fill="#FA8D1C"/>

<rect x="133" y="0" width="35" height="200" fill="#E5E3DF"/>

<rect x="168" y="0" width="26" height="200" fill="#FA8D1C"/>

<rect x="194" y="0" width="0" height="200" fill="#FA8D1C"/>

<rect x="194" y="0" width="6" height="200" fill="#38999E"/>

</g>

</g>


<g id="4" transform="translate(800,0)scale(1,1)">


<rect x="0" y="0" width="21" height="200" fill="#38999E"/>

<rect x="21" y="0" width="172" height="200" fill="#38999E"/>

<rect x="193" y="0" width="7" height="200" fill="#E5E3DF"/>

<g transform = "rotate(90, 100, 100)" fill-opacity="0.7">

<rect x="0" y="0" width="20" height="200" fill="#38999E"/>

<rect x="20" y="0" width="9" height="200" fill="#FA8D1C"/>

<rect x="29" y="0" width="18" height="200" fill="#FA8D1C"/>

<rect x="47" y="0" width="51" height="200" fill="#FA8D1C"/>

<rect x="98" y="0" width="35" height="200" fill="#FA8D1C"/>

<rect x="133" y="0" width="35" height="200" fill="#E5E3DF"/>

<rect x="168" y="0" width="26" height="200" fill="#FA8D1C"/>

<rect x="194" y="0" width="0" height="200" fill="#FA8D1C"/>

<rect x="194" y="0" width="6" height="200" fill="#38999E"/>

</g>

</g>


</g>

</svg>