<?xml version="1.0" standalone="no"?>
<!DOCTYPE svg PUBLIC "-//W3C//DTD SVG 20010904//EN"
 "http://www.w3.org/TR/2001/REC-SVG-20010904/DTD/svg10.dtd">
<svg version="1.0" xmlns="http://www.w3.org/2000/svg" 
width="800" height="800" viewBox="0 0 800 800"
preserveAspectRatio = "xMidYMid meet" >
<metadata>
Created by ZoeQu, written in 2024
</metadata>

<g id="row0" transform="translate(0,0.0)">

<g id="0" transform="translate(0,0)scale(1,1)">


<rect x="0" y="0" width="10" height="200" fill="#A4D7DC"/>

<rect x="10" y="0" width="167" height="200" fill="#43682B"/>

<rect x="177" y="0" width="4" height="200" fill="#A4D7DC"/>

<rect x="181" y="0" width="4" height="200" fill="#EA9D28"/>

<rect x="185" y="0" width="13" height="200" fill="#43682B"/>

<rect x="198" y="0" width="2" height="200" fill="#EA9D28"/>

<g transform = "rotate(90, 100, 100)" fill-opacity="0.7">

<rect x="0" y="0" width="10" height="200" fill="#A4D7DC"/>

<rect x="10" y="0" width="12" height="200" fill="#EA9D28"/>

<rect x="22" y="0" width="151" height="200" fill="#A4D7DC"/>

<rect x="173" y="0" width="25" height="200" fill="#A4D7DC"/>

<rect x="198" y="0" width="1" height="200" fill="#EA9D28"/>

<rect x="199" y="0" width="1" height="200" fill="#EA9D28"/>

<rect x="200" y="0" width="0" height="200" fill="#A4D7DC"/>

<rect x="200" y="0" width="0" height="200" fill="#A4D7DC"/>

<rect x="200" y="0" width="0" height="200" fill="#A4D7DC"/>

</g>

</g>


<g id="1" transform="translate(200,0)scale(1,1)">


<rect x="0" y="0" width="10" height="200" fill="#A4D7DC"/>

<rect x="10" y="0" width="167" height="200" fill="#43682B"/>

<rect x="177" y="0" width="4" height="200" fill="#A4D7DC"/>

<rect x="181" y="0" width="4" height="200" fill="#EA9D28"/>

<rect x="185" y="0" width="13" height="200" fill="#43682B"/>

<rect x="198" y="0" width="2" height="200" fill="#EA9D28"/>

<g transform = "rotate(90, 100, 100)" fill-opacity="0.7">

<rect x="0" y="0" width="10" height="200" fill="#A4D7DC"/>

<rect x="10" y="0" width="12" height="200" fill="#EA9D28"/>

<rect x="22" y="0" width="151" height="200" fill="#A4D7DC"/>

<rect x="173" y="0" width="25" height="200" fill="#A4D7DC"/>

<rect x="198" y="0" width="1" height="200" fill="#EA9D28"/>

<rect x="199" y="0" width="1" height="200" fill="#EA9D28"/>

<rect x="200" y="0" width="0" height="200" fill="#A4D7DC"/>

<rect x="200" y="0" width="0" height="200" fill="#A4D7DC"/>

<rect x="200" y="0" width="0" height="200" fill="#A4D7DC"/>

</g>

</g>


<g id="2" transform="translate(400,0)scale(1,1)">


<rect x="0" y="0" width="10" height="200" fill="#A4D7DC"/>

<rect x="10" y="0" width="167" height="200" fill="#43682B"/>

<rect x="177" y="0" width="4" height="200" fill="#A4D7DC"/>

<rect x="181" y="0" width="4" height="200" fill="#EA9D28"/>

<rect x="185" y="0" width="13" height="200" fill="#43682B"/>

<rect x="198" y="0" width="2" height="200" fill="#EA9D28"/>

<g transform = "rotate(90, 100, 100)" fill-opacity="0.7">

<rect x="0" y="0" width="10" height="200" fill="#A4D7DC"/>

<rect x="10" y="0" width="12" height="200" fill="#EA9D28"/>

<rect x="22" y="0" width="151" height="200" fill="#A4D7DC"/>

<rect x="173" y="0" width="25" height="200" fill="#A4D7DC"/>

<rect x="198" y="0" width="1" height="200" fill="#EA9D28"/>

<rect x="199" y="0" width="1" height="200" fill="#EA9D28"/>

<rect x="200" y="0" width="0" height="200" fill="#A4D7DC"/>

<rect x="200" y="0" width="0" height="200" fill="#A4D7DC"/>

<rect x="200" y="0" width="0" height="200" fill="#A4D7DC"/>

</g>

</g>


<g id="3" transform="translate(600,0)scale(1,1)">


<rect x="0" y="0" width="10" height="200" fill="#A4D7DC"/>

<rect x="10" y="0" width="167" height="200" fill="#43682B"/>

<rect x="177" y="0" width="4" height="200" fill="#A4D7DC"/>

<rect x="181" y="0" width="4" height="200" fill="#EA9D28"/>

<rect x="185" y="0" width="13" height="200" fill="#43682B"/>

<rect x="198" y="0" width="2" height="200" fill="#EA9D28"/>

<g transform = "rotate(90, 100, 100)" fill-opacity="0.7">

<rect x="0" y="0" width="10" height="200" fill="#A4D7DC"/>

<rect x="10" y="0" width="12" height="200" fill="#EA9D28"/>

<rect x="22" y="0" width="151" height="200" fill="#A4D7DC"/>

<rect x="173" y="0" width="25" height="200" fill="#A4D7DC"/>

<rect x="198" y="0" width="1" height="200" fill="#EA9D28"/>

<rect x="199" y="0" width="1" height="200" fill="#EA9D28"/>

<rect x="200" y="0" width="0" height="200" fill="#A4D7DC"/>

<rect x="200" y="0" width="0" height="200" fill="#A4D7DC"/>

<rect x="200" y="0" width="0" height="200" fill="#A4D7DC"/>

</g>

</g>


<g id="4" transform="translate(800,0)scale(1,1)">


<rect x="0" y="0" width="10" height="200" fill="#A4D7DC"/>

<rect x="10" y="0" width="167" height="200" fill="#43682B"/>

<rect x="177" y="0" width="4" height="200" fill="#A4D7DC"/>

<rect x="181" y="0" width="4" height="200" fill="#EA9D28"/>

<rect x="185" y="0" width="13" height="200" fill="#43682B"/>

<rect x="198" y="0" width="2" height="200" fill="#EA9D28"/>

<g transform = "rotate(90, 100, 100)" fill-opacity="0.7">

<rect x="0" y="0" width="10" height="200" fill="#A4D7DC"/>

<rect x="10" y="0" width="12" height="200" fill="#EA9D28"/>

<rect x="22" y="0" width="151" height="200" fill="#A4D7DC"/>

<rect x="173" y="0" width="25" height="200" fill="#A4D7DC"/>

<rect x="198" y="0" width="1" height="200" fill="#EA9D28"/>

<rect x="199" y="0" width="1" height="200" fill="#EA9D28"/>

<rect x="200" y="0" width="0" height="200" fill="#A4D7DC"/>

<rect x="200" y="0" width="0" height="200" fill="#A4D7DC"/>

<rect x="200" y="0" width="0" height="200" fill="#A4D7DC"/>

</g>

</g>


</g>

<g id="row1" transform="translate(0,200.0)">

<g id="0" transform="translate(0,0)scale(1,1)">


<rect x="0" y="0" width="10" height="200" fill="#A4D7DC"/>

<rect x="10" y="0" width="167" height="200" fill="#43682B"/>

<rect x="177" y="0" width="4" height="200" fill="#A4D7DC"/>

<rect x="181" y="0" width="4" height="200" fill="#EA9D28"/>

<rect x="185" y="0" width="13" height="200" fill="#43682B"/>

<rect x="198" y="0" width="2" height="200" fill="#EA9D28"/>

<g transform = "rotate(90, 100, 100)" fill-opacity="0.7">

<rect x="0" y="0" width="10" height="200" fill="#A4D7DC"/>

<rect x="10" y="0" width="12" height="200" fill="#EA9D28"/>

<rect x="22" y="0" width="151" height="200" fill="#A4D7DC"/>

<rect x="173" y="0" width="25" height="200" fill="#A4D7DC"/>

<rect x="198" y="0" width="1" height="200" fill="#EA9D28"/>

<rect x="199" y="0" width="1" height="200" fill="#EA9D28"/>

<rect x="200" y="0" width="0" height="200" fill="#A4D7DC"/>

<rect x="200" y="0" width="0" height="200" fill="#A4D7DC"/>

<rect x="200" y="0" width="0" height="200" fill="#A4D7DC"/>

</g>

</g>


<g id="1" transform="translate(200,0)scale(1,1)">


<rect x="0" y="0" width="10" height="200" fill="#A4D7DC"/>

<rect x="10" y="0" width="167" height="200" fill="#43682B"/>

<rect x="177" y="0" width="4" height="200" fill="#A4D7DC"/>

<rect x="181" y="0" width="4" height="200" fill="#EA9D28"/>

<rect x="185" y="0" width="13" height="200" fill="#43682B"/>

<rect x="198" y="0" width="2" height="200" fill="#EA9D28"/>

<g transform = "rotate(90, 100, 100)" fill-opacity="0.7">

<rect x="0" y="0" width="10" height="200" fill="#A4D7DC"/>

<rect x="10" y="0" width="12" height="200" fill="#EA9D28"/>

<rect x="22" y="0" width="151" height="200" fill="#A4D7DC"/>

<rect x="173" y="0" width="25" height="200" fill="#A4D7DC"/>

<rect x="198" y="0" width="1" height="200" fill="#EA9D28"/>

<rect x="199" y="0" width="1" height="200" fill="#EA9D28"/>

<rect x="200" y="0" width="0" height="200" fill="#A4D7DC"/>

<rect x="200" y="0" width="0" height="200" fill="#A4D7DC"/>

<rect x="200" y="0" width="0" height="200" fill="#A4D7DC"/>

</g>

</g>


<g id="2" transform="translate(400,0)scale(1,1)">


<rect x="0" y="0" width="10" height="200" fill="#A4D7DC"/>

<rect x="10" y="0" width="167" height="200" fill="#43682B"/>

<rect x="177" y="0" width="4" height="200" fill="#A4D7DC"/>

<rect x="181" y="0" width="4" height="200" fill="#EA9D28"/>

<rect x="185" y="0" width="13" height="200" fill="#43682B"/>

<rect x="198" y="0" width="2" height="200" fill="#EA9D28"/>

<g transform = "rotate(90, 100, 100)" fill-opacity="0.7">

<rect x="0" y="0" width="10" height="200" fill="#A4D7DC"/>

<rect x="10" y="0" width="12" height="200" fill="#EA9D28"/>

<rect x="22" y="0" width="151" height="200" fill="#A4D7DC"/>

<rect x="173" y="0" width="25" height="200" fill="#A4D7DC"/>

<rect x="198" y="0" width="1" height="200" fill="#EA9D28"/>

<rect x="199" y="0" width="1" height="200" fill="#EA9D28"/>

<rect x="200" y="0" width="0" height="200" fill="#A4D7DC"/>

<rect x="200" y="0" width="0" height="200" fill="#A4D7DC"/>

<rect x="200" y="0" width="0" height="200" fill="#A4D7DC"/>

</g>

</g>


<g id="3" transform="translate(600,0)scale(1,1)">


<rect x="0" y="0" width="10" height="200" fill="#A4D7DC"/>

<rect x="10" y="0" width="167" height="200" fill="#43682B"/>

<rect x="177" y="0" width="4" height="200" fill="#A4D7DC"/>

<rect x="181" y="0" width="4" height="200" fill="#EA9D28"/>

<rect x="185" y="0" width="13" height="200" fill="#43682B"/>

<rect x="198" y="0" width="2" height="200" fill="#EA9D28"/>

<g transform = "rotate(90, 100, 100)" fill-opacity="0.7">

<rect x="0" y="0" width="10" height="200" fill="#A4D7DC"/>

<rect x="10" y="0" width="12" height="200" fill="#EA9D28"/>

<rect x="22" y="0" width="151" height="200" fill="#A4D7DC"/>

<rect x="173" y="0" width="25" height="200" fill="#A4D7DC"/>

<rect x="198" y="0" width="1" height="200" fill="#EA9D28"/>

<rect x="199" y="0" width="1" height="200" fill="#EA9D28"/>

<rect x="200" y="0" width="0" height="200" fill="#A4D7DC"/>

<rect x="200" y="0" width="0" height="200" fill="#A4D7DC"/>

<rect x="200" y="0" width="0" height="200" fill="#A4D7DC"/>

</g>

</g>


<g id="4" transform="translate(800,0)scale(1,1)">


<rect x="0" y="0" width="10" height="200" fill="#A4D7DC"/>

<rect x="10" y="0" width="167" height="200" fill="#43682B"/>

<rect x="177" y="0" width="4" height="200" fill="#A4D7DC"/>

<rect x="181" y="0" width="4" height="200" fill="#EA9D28"/>

<rect x="185" y="0" width="13" height="200" fill="#43682B"/>

<rect x="198" y="0" width="2" height="200" fill="#EA9D28"/>

<g transform = "rotate(90, 100, 100)" fill-opacity="0.7">

<rect x="0" y="0" width="10" height="200" fill="#A4D7DC"/>

<rect x="10" y="0" width="12" height="200" fill="#EA9D28"/>

<rect x="22" y="0" width="151" height="200" fill="#A4D7DC"/>

<rect x="173" y="0" width="25" height="200" fill="#A4D7DC"/>

<rect x="198" y="0" width="1" height="200" fill="#EA9D28"/>

<rect x="199" y="0" width="1" height="200" fill="#EA9D28"/>

<rect x="200" y="0" width="0" height="200" fill="#A4D7DC"/>

<rect x="200" y="0" width="0" height="200" fill="#A4D7DC"/>

<rect x="200" y="0" width="0" height="200" fill="#A4D7DC"/>

</g>

</g>


</g>

<g id="row2" transform="translate(0,400.0)">

<g id="0" transform="translate(0,0)scale(1,1)">


<rect x="0" y="0" width="10" height="200" fill="#A4D7DC"/>

<rect x="10" y="0" width="167" height="200" fill="#43682B"/>

<rect x="177" y="0" width="4" height="200" fill="#A4D7DC"/>

<rect x="181" y="0" width="4" height="200" fill="#EA9D28"/>

<rect x="185" y="0" width="13" height="200" fill="#43682B"/>

<rect x="198" y="0" width="2" height="200" fill="#EA9D28"/>

<g transform = "rotate(90, 100, 100)" fill-opacity="0.7">

<rect x="0" y="0" width="10" height="200" fill="#A4D7DC"/>

<rect x="10" y="0" width="12" height="200" fill="#EA9D28"/>

<rect x="22" y="0" width="151" height="200" fill="#A4D7DC"/>

<rect x="173" y="0" width="25" height="200" fill="#A4D7DC"/>

<rect x="198" y="0" width="1" height="200" fill="#EA9D28"/>

<rect x="199" y="0" width="1" height="200" fill="#EA9D28"/>

<rect x="200" y="0" width="0" height="200" fill="#A4D7DC"/>

<rect x="200" y="0" width="0" height="200" fill="#A4D7DC"/>

<rect x="200" y="0" width="0" height="200" fill="#A4D7DC"/>

</g>

</g>


<g id="1" transform="translate(200,0)scale(1,1)">


<rect x="0" y="0" width="10" height="200" fill="#A4D7DC"/>

<rect x="10" y="0" width="167" height="200" fill="#43682B"/>

<rect x="177" y="0" width="4" height="200" fill="#A4D7DC"/>

<rect x="181" y="0" width="4" height="200" fill="#EA9D28"/>

<rect x="185" y="0" width="13" height="200" fill="#43682B"/>

<rect x="198" y="0" width="2" height="200" fill="#EA9D28"/>

<g transform = "rotate(90, 100, 100)" fill-opacity="0.7">

<rect x="0" y="0" width="10" height="200" fill="#A4D7DC"/>

<rect x="10" y="0" width="12" height="200" fill="#EA9D28"/>

<rect x="22" y="0" width="151" height="200" fill="#A4D7DC"/>

<rect x="173" y="0" width="25" height="200" fill="#A4D7DC"/>

<rect x="198" y="0" width="1" height="200" fill="#EA9D28"/>

<rect x="199" y="0" width="1" height="200" fill="#EA9D28"/>

<rect x="200" y="0" width="0" height="200" fill="#A4D7DC"/>

<rect x="200" y="0" width="0" height="200" fill="#A4D7DC"/>

<rect x="200" y="0" width="0" height="200" fill="#A4D7DC"/>

</g>

</g>


<g id="2" transform="translate(400,0)scale(1,1)">


<rect x="0" y="0" width="10" height="200" fill="#A4D7DC"/>

<rect x="10" y="0" width="167" height="200" fill="#43682B"/>

<rect x="177" y="0" width="4" height="200" fill="#A4D7DC"/>

<rect x="181" y="0" width="4" height="200" fill="#EA9D28"/>

<rect x="185" y="0" width="13" height="200" fill="#43682B"/>

<rect x="198" y="0" width="2" height="200" fill="#EA9D28"/>

<g transform = "rotate(90, 100, 100)" fill-opacity="0.7">

<rect x="0" y="0" width="10" height="200" fill="#A4D7DC"/>

<rect x="10" y="0" width="12" height="200" fill="#EA9D28"/>

<rect x="22" y="0" width="151" height="200" fill="#A4D7DC"/>

<rect x="173" y="0" width="25" height="200" fill="#A4D7DC"/>

<rect x="198" y="0" width="1" height="200" fill="#EA9D28"/>

<rect x="199" y="0" width="1" height="200" fill="#EA9D28"/>

<rect x="200" y="0" width="0" height="200" fill="#A4D7DC"/>

<rect x="200" y="0" width="0" height="200" fill="#A4D7DC"/>

<rect x="200" y="0" width="0" height="200" fill="#A4D7DC"/>

</g>

</g>


<g id="3" transform="translate(600,0)scale(1,1)">


<rect x="0" y="0" width="10" height="200" fill="#A4D7DC"/>

<rect x="10" y="0" width="167" height="200" fill="#43682B"/>

<rect x="177" y="0" width="4" height="200" fill="#A4D7DC"/>

<rect x="181" y="0" width="4" height="200" fill="#EA9D28"/>

<rect x="185" y="0" width="13" height="200" fill="#43682B"/>

<rect x="198" y="0" width="2" height="200" fill="#EA9D28"/>

<g transform = "rotate(90, 100, 100)" fill-opacity="0.7">

<rect x="0" y="0" width="10" height="200" fill="#A4D7DC"/>

<rect x="10" y="0" width="12" height="200" fill="#EA9D28"/>

<rect x="22" y="0" width="151" height="200" fill="#A4D7DC"/>

<rect x="173" y="0" width="25" height="200" fill="#A4D7DC"/>

<rect x="198" y="0" width="1" height="200" fill="#EA9D28"/>

<rect x="199" y="0" width="1" height="200" fill="#EA9D28"/>

<rect x="200" y="0" width="0" height="200" fill="#A4D7DC"/>

<rect x="200" y="0" width="0" height="200" fill="#A4D7DC"/>

<rect x="200" y="0" width="0" height="200" fill="#A4D7DC"/>

</g>

</g>


<g id="4" transform="translate(800,0)scale(1,1)">


<rect x="0" y="0" width="10" height="200" fill="#A4D7DC"/>

<rect x="10" y="0" width="167" height="200" fill="#43682B"/>

<rect x="177" y="0" width="4" height="200" fill="#A4D7DC"/>

<rect x="181" y="0" width="4" height="200" fill="#EA9D28"/>

<rect x="185" y="0" width="13" height="200" fill="#43682B"/>

<rect x="198" y="0" width="2" height="200" fill="#EA9D28"/>

<g transform = "rotate(90, 100, 100)" fill-opacity="0.7">

<rect x="0" y="0" width="10" height="200" fill="#A4D7DC"/>

<rect x="10" y="0" width="12" height="200" fill="#EA9D28"/>

<rect x="22" y="0" width="151" height="200" fill="#A4D7DC"/>

<rect x="173" y="0" width="25" height="200" fill="#A4D7DC"/>

<rect x="198" y="0" width="1" height="200" fill="#EA9D28"/>

<rect x="199" y="0" width="1" height="200" fill="#EA9D28"/>

<rect x="200" y="0" width="0" height="200" fill="#A4D7DC"/>

<rect x="200" y="0" width="0" height="200" fill="#A4D7DC"/>

<rect x="200" y="0" width="0" height="200" fill="#A4D7DC"/>

</g>

</g>


</g>

<g id="row3" transform="translate(0,600.0)">

<g id="0" transform="translate(0,0)scale(1,1)">


<rect x="0" y="0" width="10" height="200" fill="#A4D7DC"/>

<rect x="10" y="0" width="167" height="200" fill="#43682B"/>

<rect x="177" y="0" width="4" height="200" fill="#A4D7DC"/>

<rect x="181" y="0" width="4" height="200" fill="#EA9D28"/>

<rect x="185" y="0" width="13" height="200" fill="#43682B"/>

<rect x="198" y="0" width="2" height="200" fill="#EA9D28"/>

<g transform = "rotate(90, 100, 100)" fill-opacity="0.7">

<rect x="0" y="0" width="10" height="200" fill="#A4D7DC"/>

<rect x="10" y="0" width="12" height="200" fill="#EA9D28"/>

<rect x="22" y="0" width="151" height="200" fill="#A4D7DC"/>

<rect x="173" y="0" width="25" height="200" fill="#A4D7DC"/>

<rect x="198" y="0" width="1" height="200" fill="#EA9D28"/>

<rect x="199" y="0" width="1" height="200" fill="#EA9D28"/>

<rect x="200" y="0" width="0" height="200" fill="#A4D7DC"/>

<rect x="200" y="0" width="0" height="200" fill="#A4D7DC"/>

<rect x="200" y="0" width="0" height="200" fill="#A4D7DC"/>

</g>

</g>


<g id="1" transform="translate(200,0)scale(1,1)">


<rect x="0" y="0" width="10" height="200" fill="#A4D7DC"/>

<rect x="10" y="0" width="167" height="200" fill="#43682B"/>

<rect x="177" y="0" width="4" height="200" fill="#A4D7DC"/>

<rect x="181" y="0" width="4" height="200" fill="#EA9D28"/>

<rect x="185" y="0" width="13" height="200" fill="#43682B"/>

<rect x="198" y="0" width="2" height="200" fill="#EA9D28"/>

<g transform = "rotate(90, 100, 100)" fill-opacity="0.7">

<rect x="0" y="0" width="10" height="200" fill="#A4D7DC"/>

<rect x="10" y="0" width="12" height="200" fill="#EA9D28"/>

<rect x="22" y="0" width="151" height="200" fill="#A4D7DC"/>

<rect x="173" y="0" width="25" height="200" fill="#A4D7DC"/>

<rect x="198" y="0" width="1" height="200" fill="#EA9D28"/>

<rect x="199" y="0" width="1" height="200" fill="#EA9D28"/>

<rect x="200" y="0" width="0" height="200" fill="#A4D7DC"/>

<rect x="200" y="0" width="0" height="200" fill="#A4D7DC"/>

<rect x="200" y="0" width="0" height="200" fill="#A4D7DC"/>

</g>

</g>


<g id="2" transform="translate(400,0)scale(1,1)">


<rect x="0" y="0" width="10" height="200" fill="#A4D7DC"/>

<rect x="10" y="0" width="167" height="200" fill="#43682B"/>

<rect x="177" y="0" width="4" height="200" fill="#A4D7DC"/>

<rect x="181" y="0" width="4" height="200" fill="#EA9D28"/>

<rect x="185" y="0" width="13" height="200" fill="#43682B"/>

<rect x="198" y="0" width="2" height="200" fill="#EA9D28"/>

<g transform = "rotate(90, 100, 100)" fill-opacity="0.7">

<rect x="0" y="0" width="10" height="200" fill="#A4D7DC"/>

<rect x="10" y="0" width="12" height="200" fill="#EA9D28"/>

<rect x="22" y="0" width="151" height="200" fill="#A4D7DC"/>

<rect x="173" y="0" width="25" height="200" fill="#A4D7DC"/>

<rect x="198" y="0" width="1" height="200" fill="#EA9D28"/>

<rect x="199" y="0" width="1" height="200" fill="#EA9D28"/>

<rect x="200" y="0" width="0" height="200" fill="#A4D7DC"/>

<rect x="200" y="0" width="0" height="200" fill="#A4D7DC"/>

<rect x="200" y="0" width="0" height="200" fill="#A4D7DC"/>

</g>

</g>


<g id="3" transform="translate(600,0)scale(1,1)">


<rect x="0" y="0" width="10" height="200" fill="#A4D7DC"/>

<rect x="10" y="0" width="167" height="200" fill="#43682B"/>

<rect x="177" y="0" width="4" height="200" fill="#A4D7DC"/>

<rect x="181" y="0" width="4" height="200" fill="#EA9D28"/>

<rect x="185" y="0" width="13" height="200" fill="#43682B"/>

<rect x="198" y="0" width="2" height="200" fill="#EA9D28"/>

<g transform = "rotate(90, 100, 100)" fill-opacity="0.7">

<rect x="0" y="0" width="10" height="200" fill="#A4D7DC"/>

<rect x="10" y="0" width="12" height="200" fill="#EA9D28"/>

<rect x="22" y="0" width="151" height="200" fill="#A4D7DC"/>

<rect x="173" y="0" width="25" height="200" fill="#A4D7DC"/>

<rect x="198" y="0" width="1" height="200" fill="#EA9D28"/>

<rect x="199" y="0" width="1" height="200" fill="#EA9D28"/>

<rect x="200" y="0" width="0" height="200" fill="#A4D7DC"/>

<rect x="200" y="0" width="0" height="200" fill="#A4D7DC"/>

<rect x="200" y="0" width="0" height="200" fill="#A4D7DC"/>

</g>

</g>


<g id="4" transform="translate(800,0)scale(1,1)">


<rect x="0" y="0" width="10" height="200" fill="#A4D7DC"/>

<rect x="10" y="0" width="167" height="200" fill="#43682B"/>

<rect x="177" y="0" width="4" height="200" fill="#A4D7DC"/>

<rect x="181" y="0" width="4" height="200" fill="#EA9D28"/>

<rect x="185" y="0" width="13" height="200" fill="#43682B"/>

<rect x="198" y="0" width="2" height="200" fill="#EA9D28"/>

<g transform = "rotate(90, 100, 100)" fill-opacity="0.7">

<rect x="0" y="0" width="10" height="200" fill="#A4D7DC"/>

<rect x="10" y="0" width="12" height="200" fill="#EA9D28"/>

<rect x="22" y="0" width="151" height="200" fill="#A4D7DC"/>

<rect x="173" y="0" width="25" height="200" fill="#A4D7DC"/>

<rect x="198" y="0" width="1" height="200" fill="#EA9D28"/>

<rect x="199" y="0" width="1" height="200" fill="#EA9D28"/>

<rect x="200" y="0" width="0" height="200" fill="#A4D7DC"/>

<rect x="200" y="0" width="0" height="200" fill="#A4D7DC"/>

<rect x="200" y="0" width="0" height="200" fill="#A4D7DC"/>

</g>

</g>


</g>

</svg>