<?xml version="1.0" standalone="no"?>
<!DOCTYPE svg PUBLIC "-//W3C//DTD SVG 20010904//EN"
 "http://www.w3.org/TR/2001/REC-SVG-20010904/DTD/svg10.dtd">
<svg version="1.0" xmlns="http://www.w3.org/2000/svg" width="168pt" height="240pt" viewBox="0 0 168 240" preserveAspectRatio = "xMidYMid meet" >
<metadata>
Created by ZoeQu, written in 2022
</metadata>
<rect width="168" height="240" fill="#C2D1E0"/>
<g id="col0" transform="translate(0, 8)">
<g id="0" transform="translate(0,0.0)scale(0.8,0.8)">

<path d="M122 199 c2 -7 10 -15 17 -17 8 -3 12 1 9 9 -2 7 -10 15 -17 17 -8 3 -12 -1 -9 -9z" transform="translate(0,60) scale(0.1,-0.1)" stroke="none" fill="#4F7789"/>

<path d="M380 590 c0 -5 9 -10 20 -10 11 0 20 5 20 10 0 6 -9 10 -20 10 -11 0 -20 -4 -20 -10z" transform="translate(0,60) scale(0.1,-0.1)" stroke="none" fill="#4F7789"/>

<path d="M74 225 c3 -9 6 -19 6 -21 0 -2 7 -4 15 -4 21 0 19 13 -6 29 -19 11 -21 11 -15 -4z" transform="translate(0,60) scale(0.1,-0.1)" stroke="none" fill="#4F7789"/>

<path d="M180 155 c13 -14 27 -25 32 -25 4 0 -2 11 -14 25 -12 14 -26 25 -32 25 -5 0 1 -11 14 -25z" transform="translate(0,60) scale(0.1,-0.1)" stroke="none" fill="#4F7789"/>

<path d="M17 426 c-13 -11 -17 -28 -17 -87 0 -65 3 -76 21 -87 28 -18 35 -9 15 20 -22 31 -22 134 0 146 9 5 13 12 8 15 -5 3 -17 0 -27 -7z" transform="translate(0,60) scale(0.1,-0.1)" stroke="none" fill="#4F7789"/>

<path d="M225 91 c-7 -24 14 -51 39 -51 9 0 16 -4 16 -10 0 -5 9 -10 20 -10 11 0 20 -4 20 -10 0 -5 23 -10 50 -10 28 0 50 5 50 10 0 6 -16 10 -36 10 -39 0 -116 40 -138 72 -14 20 -14 20 -21 -1z" transform="translate(0,60) scale(0.1,-0.1)" stroke="none" fill="#4F7789"/>

<path d="M371 591 c-1 -8 -8 -11 -20 -8 -21 5 -56 -24 -44 -36 3 -4 -1 -7 -11 -7 -10 0 -15 5 -11 13 4 6 -2 2 -13 -10 -11 -13 -27 -23 -36 -23 -9 0 -21 -9 -28 -20 -9 -14 -24 -20 -50 -20 -27 0 -38 -4 -38 -15 0 -22 54 -8 125 32 94 54 98 56 140 69 25 8 32 13 18 13 -12 1 -24 7 -26 14 -4 9 -6 8 -6 -2z m-26 -21 c3 -5 -1 -10 -10 -10 -9 0 -13 5 -10 10 3 6 8 10 10 10 2 0 7 -4 10 -10z" transform="translate(0,60) scale(0.1,-0.1)" stroke="none" fill="#0E3035"/>

<path d="M55 450 c-4 -6 -10 -8 -15 -5 -4 3 -14 -3 -21 -13 -13 -15 -12 -16 3 -4 9 8 19 9 22 4 3 -6 -1 -12 -9 -16 -24 -9 -20 -106 6 -156 21 -40 44 -65 32 -35 -5 15 -3 15 16 4 11 -8 21 -19 21 -25 0 -6 8 -18 18 -25 14 -11 15 -11 5 1 -16 17 -17 30 -3 30 6 0 14 -10 19 -22 5 -13 23 -36 40 -52 22 -21 29 -36 26 -50 -5 -18 -4 -17 8 3 12 19 15 21 20 7 12 -30 99 -76 142 -74 l40 1 -35 6 c-51 9 -107 49 -173 124 -37 43 -68 68 -87 72 -16 4 -43 19 -60 35 -27 25 -30 34 -30 89 0 58 2 63 30 79 16 9 30 20 30 25 0 11 -38 9 -45 -3z m143 -295 c12 -14 18 -25 14 -25 -5 0 -19 11 -32 25 -13 14 -19 25 -14 25 6 0 20 -11 32 -25z" transform="translate(0,60) scale(0.1,-0.1)" stroke="none" fill="#0E3035"/>

</g>

<g id="1" transform="translate(0,60.0)scale(0.8,0.8)">

<path d="M122 199 c2 -7 10 -15 17 -17 8 -3 12 1 9 9 -2 7 -10 15 -17 17 -8 3 -12 -1 -9 -9z" transform="translate(0,60) scale(0.1,-0.1)" stroke="none" fill="#4F7789"/>

<path d="M380 590 c0 -5 9 -10 20 -10 11 0 20 5 20 10 0 6 -9 10 -20 10 -11 0 -20 -4 -20 -10z" transform="translate(0,60) scale(0.1,-0.1)" stroke="none" fill="#4F7789"/>

<path d="M74 225 c3 -9 6 -19 6 -21 0 -2 7 -4 15 -4 21 0 19 13 -6 29 -19 11 -21 11 -15 -4z" transform="translate(0,60) scale(0.1,-0.1)" stroke="none" fill="#4F7789"/>

<path d="M180 155 c13 -14 27 -25 32 -25 4 0 -2 11 -14 25 -12 14 -26 25 -32 25 -5 0 1 -11 14 -25z" transform="translate(0,60) scale(0.1,-0.1)" stroke="none" fill="#4F7789"/>

<path d="M17 426 c-13 -11 -17 -28 -17 -87 0 -65 3 -76 21 -87 28 -18 35 -9 15 20 -22 31 -22 134 0 146 9 5 13 12 8 15 -5 3 -17 0 -27 -7z" transform="translate(0,60) scale(0.1,-0.1)" stroke="none" fill="#4F7789"/>

<path d="M225 91 c-7 -24 14 -51 39 -51 9 0 16 -4 16 -10 0 -5 9 -10 20 -10 11 0 20 -4 20 -10 0 -5 23 -10 50 -10 28 0 50 5 50 10 0 6 -16 10 -36 10 -39 0 -116 40 -138 72 -14 20 -14 20 -21 -1z" transform="translate(0,60) scale(0.1,-0.1)" stroke="none" fill="#4F7789"/>

<path d="M371 591 c-1 -8 -8 -11 -20 -8 -21 5 -56 -24 -44 -36 3 -4 -1 -7 -11 -7 -10 0 -15 5 -11 13 4 6 -2 2 -13 -10 -11 -13 -27 -23 -36 -23 -9 0 -21 -9 -28 -20 -9 -14 -24 -20 -50 -20 -27 0 -38 -4 -38 -15 0 -22 54 -8 125 32 94 54 98 56 140 69 25 8 32 13 18 13 -12 1 -24 7 -26 14 -4 9 -6 8 -6 -2z m-26 -21 c3 -5 -1 -10 -10 -10 -9 0 -13 5 -10 10 3 6 8 10 10 10 2 0 7 -4 10 -10z" transform="translate(0,60) scale(0.1,-0.1)" stroke="none" fill="#0E3035"/>

<path d="M55 450 c-4 -6 -10 -8 -15 -5 -4 3 -14 -3 -21 -13 -13 -15 -12 -16 3 -4 9 8 19 9 22 4 3 -6 -1 -12 -9 -16 -24 -9 -20 -106 6 -156 21 -40 44 -65 32 -35 -5 15 -3 15 16 4 11 -8 21 -19 21 -25 0 -6 8 -18 18 -25 14 -11 15 -11 5 1 -16 17 -17 30 -3 30 6 0 14 -10 19 -22 5 -13 23 -36 40 -52 22 -21 29 -36 26 -50 -5 -18 -4 -17 8 3 12 19 15 21 20 7 12 -30 99 -76 142 -74 l40 1 -35 6 c-51 9 -107 49 -173 124 -37 43 -68 68 -87 72 -16 4 -43 19 -60 35 -27 25 -30 34 -30 89 0 58 2 63 30 79 16 9 30 20 30 25 0 11 -38 9 -45 -3z m143 -295 c12 -14 18 -25 14 -25 -5 0 -19 11 -32 25 -13 14 -19 25 -14 25 6 0 20 -11 32 -25z" transform="translate(0,60) scale(0.1,-0.1)" stroke="none" fill="#0E3035"/>

</g>

<g id="2" transform="translate(0,120.0)scale(0.8,0.8)">

<path d="M122 199 c2 -7 10 -15 17 -17 8 -3 12 1 9 9 -2 7 -10 15 -17 17 -8 3 -12 -1 -9 -9z" transform="translate(0,60) scale(0.1,-0.1)" stroke="none" fill="#4F7789"/>

<path d="M380 590 c0 -5 9 -10 20 -10 11 0 20 5 20 10 0 6 -9 10 -20 10 -11 0 -20 -4 -20 -10z" transform="translate(0,60) scale(0.1,-0.1)" stroke="none" fill="#4F7789"/>

<path d="M74 225 c3 -9 6 -19 6 -21 0 -2 7 -4 15 -4 21 0 19 13 -6 29 -19 11 -21 11 -15 -4z" transform="translate(0,60) scale(0.1,-0.1)" stroke="none" fill="#4F7789"/>

<path d="M180 155 c13 -14 27 -25 32 -25 4 0 -2 11 -14 25 -12 14 -26 25 -32 25 -5 0 1 -11 14 -25z" transform="translate(0,60) scale(0.1,-0.1)" stroke="none" fill="#4F7789"/>

<path d="M17 426 c-13 -11 -17 -28 -17 -87 0 -65 3 -76 21 -87 28 -18 35 -9 15 20 -22 31 -22 134 0 146 9 5 13 12 8 15 -5 3 -17 0 -27 -7z" transform="translate(0,60) scale(0.1,-0.1)" stroke="none" fill="#4F7789"/>

<path d="M225 91 c-7 -24 14 -51 39 -51 9 0 16 -4 16 -10 0 -5 9 -10 20 -10 11 0 20 -4 20 -10 0 -5 23 -10 50 -10 28 0 50 5 50 10 0 6 -16 10 -36 10 -39 0 -116 40 -138 72 -14 20 -14 20 -21 -1z" transform="translate(0,60) scale(0.1,-0.1)" stroke="none" fill="#4F7789"/>

<path d="M371 591 c-1 -8 -8 -11 -20 -8 -21 5 -56 -24 -44 -36 3 -4 -1 -7 -11 -7 -10 0 -15 5 -11 13 4 6 -2 2 -13 -10 -11 -13 -27 -23 -36 -23 -9 0 -21 -9 -28 -20 -9 -14 -24 -20 -50 -20 -27 0 -38 -4 -38 -15 0 -22 54 -8 125 32 94 54 98 56 140 69 25 8 32 13 18 13 -12 1 -24 7 -26 14 -4 9 -6 8 -6 -2z m-26 -21 c3 -5 -1 -10 -10 -10 -9 0 -13 5 -10 10 3 6 8 10 10 10 2 0 7 -4 10 -10z" transform="translate(0,60) scale(0.1,-0.1)" stroke="none" fill="#0E3035"/>

<path d="M55 450 c-4 -6 -10 -8 -15 -5 -4 3 -14 -3 -21 -13 -13 -15 -12 -16 3 -4 9 8 19 9 22 4 3 -6 -1 -12 -9 -16 -24 -9 -20 -106 6 -156 21 -40 44 -65 32 -35 -5 15 -3 15 16 4 11 -8 21 -19 21 -25 0 -6 8 -18 18 -25 14 -11 15 -11 5 1 -16 17 -17 30 -3 30 6 0 14 -10 19 -22 5 -13 23 -36 40 -52 22 -21 29 -36 26 -50 -5 -18 -4 -17 8 3 12 19 15 21 20 7 12 -30 99 -76 142 -74 l40 1 -35 6 c-51 9 -107 49 -173 124 -37 43 -68 68 -87 72 -16 4 -43 19 -60 35 -27 25 -30 34 -30 89 0 58 2 63 30 79 16 9 30 20 30 25 0 11 -38 9 -45 -3z m143 -295 c12 -14 18 -25 14 -25 -5 0 -19 11 -32 25 -13 14 -19 25 -14 25 6 0 20 -11 32 -25z" transform="translate(0,60) scale(0.1,-0.1)" stroke="none" fill="#0E3035"/>

</g>

<g id="3" transform="translate(0,180.0)scale(0.8,0.8)">

<path d="M122 199 c2 -7 10 -15 17 -17 8 -3 12 1 9 9 -2 7 -10 15 -17 17 -8 3 -12 -1 -9 -9z" transform="translate(0,60) scale(0.1,-0.1)" stroke="none" fill="#4F7789"/>

<path d="M380 590 c0 -5 9 -10 20 -10 11 0 20 5 20 10 0 6 -9 10 -20 10 -11 0 -20 -4 -20 -10z" transform="translate(0,60) scale(0.1,-0.1)" stroke="none" fill="#4F7789"/>

<path d="M74 225 c3 -9 6 -19 6 -21 0 -2 7 -4 15 -4 21 0 19 13 -6 29 -19 11 -21 11 -15 -4z" transform="translate(0,60) scale(0.1,-0.1)" stroke="none" fill="#4F7789"/>

<path d="M180 155 c13 -14 27 -25 32 -25 4 0 -2 11 -14 25 -12 14 -26 25 -32 25 -5 0 1 -11 14 -25z" transform="translate(0,60) scale(0.1,-0.1)" stroke="none" fill="#4F7789"/>

<path d="M17 426 c-13 -11 -17 -28 -17 -87 0 -65 3 -76 21 -87 28 -18 35 -9 15 20 -22 31 -22 134 0 146 9 5 13 12 8 15 -5 3 -17 0 -27 -7z" transform="translate(0,60) scale(0.1,-0.1)" stroke="none" fill="#4F7789"/>

<path d="M225 91 c-7 -24 14 -51 39 -51 9 0 16 -4 16 -10 0 -5 9 -10 20 -10 11 0 20 -4 20 -10 0 -5 23 -10 50 -10 28 0 50 5 50 10 0 6 -16 10 -36 10 -39 0 -116 40 -138 72 -14 20 -14 20 -21 -1z" transform="translate(0,60) scale(0.1,-0.1)" stroke="none" fill="#4F7789"/>

<path d="M371 591 c-1 -8 -8 -11 -20 -8 -21 5 -56 -24 -44 -36 3 -4 -1 -7 -11 -7 -10 0 -15 5 -11 13 4 6 -2 2 -13 -10 -11 -13 -27 -23 -36 -23 -9 0 -21 -9 -28 -20 -9 -14 -24 -20 -50 -20 -27 0 -38 -4 -38 -15 0 -22 54 -8 125 32 94 54 98 56 140 69 25 8 32 13 18 13 -12 1 -24 7 -26 14 -4 9 -6 8 -6 -2z m-26 -21 c3 -5 -1 -10 -10 -10 -9 0 -13 5 -10 10 3 6 8 10 10 10 2 0 7 -4 10 -10z" transform="translate(0,60) scale(0.1,-0.1)" stroke="none" fill="#0E3035"/>

<path d="M55 450 c-4 -6 -10 -8 -15 -5 -4 3 -14 -3 -21 -13 -13 -15 -12 -16 3 -4 9 8 19 9 22 4 3 -6 -1 -12 -9 -16 -24 -9 -20 -106 6 -156 21 -40 44 -65 32 -35 -5 15 -3 15 16 4 11 -8 21 -19 21 -25 0 -6 8 -18 18 -25 14 -11 15 -11 5 1 -16 17 -17 30 -3 30 6 0 14 -10 19 -22 5 -13 23 -36 40 -52 22 -21 29 -36 26 -50 -5 -18 -4 -17 8 3 12 19 15 21 20 7 12 -30 99 -76 142 -74 l40 1 -35 6 c-51 9 -107 49 -173 124 -37 43 -68 68 -87 72 -16 4 -43 19 -60 35 -27 25 -30 34 -30 89 0 58 2 63 30 79 16 9 30 20 30 25 0 11 -38 9 -45 -3z m143 -295 c12 -14 18 -25 14 -25 -5 0 -19 11 -32 25 -13 14 -19 25 -14 25 6 0 20 -11 32 -25z" transform="translate(0,60) scale(0.1,-0.1)" stroke="none" fill="#0E3035"/>

</g>

<g id="4" transform="translate(0,240.0)scale(0.8,0.8)">

<path d="M122 199 c2 -7 10 -15 17 -17 8 -3 12 1 9 9 -2 7 -10 15 -17 17 -8 3 -12 -1 -9 -9z" transform="translate(0,60) scale(0.1,-0.1)" stroke="none" fill="#4F7789"/>

<path d="M380 590 c0 -5 9 -10 20 -10 11 0 20 5 20 10 0 6 -9 10 -20 10 -11 0 -20 -4 -20 -10z" transform="translate(0,60) scale(0.1,-0.1)" stroke="none" fill="#4F7789"/>

<path d="M74 225 c3 -9 6 -19 6 -21 0 -2 7 -4 15 -4 21 0 19 13 -6 29 -19 11 -21 11 -15 -4z" transform="translate(0,60) scale(0.1,-0.1)" stroke="none" fill="#4F7789"/>

<path d="M180 155 c13 -14 27 -25 32 -25 4 0 -2 11 -14 25 -12 14 -26 25 -32 25 -5 0 1 -11 14 -25z" transform="translate(0,60) scale(0.1,-0.1)" stroke="none" fill="#4F7789"/>

<path d="M17 426 c-13 -11 -17 -28 -17 -87 0 -65 3 -76 21 -87 28 -18 35 -9 15 20 -22 31 -22 134 0 146 9 5 13 12 8 15 -5 3 -17 0 -27 -7z" transform="translate(0,60) scale(0.1,-0.1)" stroke="none" fill="#4F7789"/>

<path d="M225 91 c-7 -24 14 -51 39 -51 9 0 16 -4 16 -10 0 -5 9 -10 20 -10 11 0 20 -4 20 -10 0 -5 23 -10 50 -10 28 0 50 5 50 10 0 6 -16 10 -36 10 -39 0 -116 40 -138 72 -14 20 -14 20 -21 -1z" transform="translate(0,60) scale(0.1,-0.1)" stroke="none" fill="#4F7789"/>

<path d="M371 591 c-1 -8 -8 -11 -20 -8 -21 5 -56 -24 -44 -36 3 -4 -1 -7 -11 -7 -10 0 -15 5 -11 13 4 6 -2 2 -13 -10 -11 -13 -27 -23 -36 -23 -9 0 -21 -9 -28 -20 -9 -14 -24 -20 -50 -20 -27 0 -38 -4 -38 -15 0 -22 54 -8 125 32 94 54 98 56 140 69 25 8 32 13 18 13 -12 1 -24 7 -26 14 -4 9 -6 8 -6 -2z m-26 -21 c3 -5 -1 -10 -10 -10 -9 0 -13 5 -10 10 3 6 8 10 10 10 2 0 7 -4 10 -10z" transform="translate(0,60) scale(0.1,-0.1)" stroke="none" fill="#0E3035"/>

<path d="M55 450 c-4 -6 -10 -8 -15 -5 -4 3 -14 -3 -21 -13 -13 -15 -12 -16 3 -4 9 8 19 9 22 4 3 -6 -1 -12 -9 -16 -24 -9 -20 -106 6 -156 21 -40 44 -65 32 -35 -5 15 -3 15 16 4 11 -8 21 -19 21 -25 0 -6 8 -18 18 -25 14 -11 15 -11 5 1 -16 17 -17 30 -3 30 6 0 14 -10 19 -22 5 -13 23 -36 40 -52 22 -21 29 -36 26 -50 -5 -18 -4 -17 8 3 12 19 15 21 20 7 12 -30 99 -76 142 -74 l40 1 -35 6 c-51 9 -107 49 -173 124 -37 43 -68 68 -87 72 -16 4 -43 19 -60 35 -27 25 -30 34 -30 89 0 58 2 63 30 79 16 9 30 20 30 25 0 11 -38 9 -45 -3z m143 -295 c12 -14 18 -25 14 -25 -5 0 -19 11 -32 25 -13 14 -19 25 -14 25 6 0 20 -11 32 -25z" transform="translate(0,60) scale(0.1,-0.1)" stroke="none" fill="#0E3035"/>

</g>

</g>
<g id="col1" transform="translate(42, -22.0)">
<g id="0" transform="translate(0,0.0)scale(0.8,0.8)">

<path d="M122 199 c2 -7 10 -15 17 -17 8 -3 12 1 9 9 -2 7 -10 15 -17 17 -8 3 -12 -1 -9 -9z" transform="translate(0,60) scale(0.1,-0.1)" stroke="none" fill="#4F7789"/>

<path d="M380 590 c0 -5 9 -10 20 -10 11 0 20 5 20 10 0 6 -9 10 -20 10 -11 0 -20 -4 -20 -10z" transform="translate(0,60) scale(0.1,-0.1)" stroke="none" fill="#4F7789"/>

<path d="M74 225 c3 -9 6 -19 6 -21 0 -2 7 -4 15 -4 21 0 19 13 -6 29 -19 11 -21 11 -15 -4z" transform="translate(0,60) scale(0.1,-0.1)" stroke="none" fill="#4F7789"/>

<path d="M180 155 c13 -14 27 -25 32 -25 4 0 -2 11 -14 25 -12 14 -26 25 -32 25 -5 0 1 -11 14 -25z" transform="translate(0,60) scale(0.1,-0.1)" stroke="none" fill="#4F7789"/>

<path d="M17 426 c-13 -11 -17 -28 -17 -87 0 -65 3 -76 21 -87 28 -18 35 -9 15 20 -22 31 -22 134 0 146 9 5 13 12 8 15 -5 3 -17 0 -27 -7z" transform="translate(0,60) scale(0.1,-0.1)" stroke="none" fill="#4F7789"/>

<path d="M225 91 c-7 -24 14 -51 39 -51 9 0 16 -4 16 -10 0 -5 9 -10 20 -10 11 0 20 -4 20 -10 0 -5 23 -10 50 -10 28 0 50 5 50 10 0 6 -16 10 -36 10 -39 0 -116 40 -138 72 -14 20 -14 20 -21 -1z" transform="translate(0,60) scale(0.1,-0.1)" stroke="none" fill="#4F7789"/>

<path d="M371 591 c-1 -8 -8 -11 -20 -8 -21 5 -56 -24 -44 -36 3 -4 -1 -7 -11 -7 -10 0 -15 5 -11 13 4 6 -2 2 -13 -10 -11 -13 -27 -23 -36 -23 -9 0 -21 -9 -28 -20 -9 -14 -24 -20 -50 -20 -27 0 -38 -4 -38 -15 0 -22 54 -8 125 32 94 54 98 56 140 69 25 8 32 13 18 13 -12 1 -24 7 -26 14 -4 9 -6 8 -6 -2z m-26 -21 c3 -5 -1 -10 -10 -10 -9 0 -13 5 -10 10 3 6 8 10 10 10 2 0 7 -4 10 -10z" transform="translate(0,60) scale(0.1,-0.1)" stroke="none" fill="#0E3035"/>

<path d="M55 450 c-4 -6 -10 -8 -15 -5 -4 3 -14 -3 -21 -13 -13 -15 -12 -16 3 -4 9 8 19 9 22 4 3 -6 -1 -12 -9 -16 -24 -9 -20 -106 6 -156 21 -40 44 -65 32 -35 -5 15 -3 15 16 4 11 -8 21 -19 21 -25 0 -6 8 -18 18 -25 14 -11 15 -11 5 1 -16 17 -17 30 -3 30 6 0 14 -10 19 -22 5 -13 23 -36 40 -52 22 -21 29 -36 26 -50 -5 -18 -4 -17 8 3 12 19 15 21 20 7 12 -30 99 -76 142 -74 l40 1 -35 6 c-51 9 -107 49 -173 124 -37 43 -68 68 -87 72 -16 4 -43 19 -60 35 -27 25 -30 34 -30 89 0 58 2 63 30 79 16 9 30 20 30 25 0 11 -38 9 -45 -3z m143 -295 c12 -14 18 -25 14 -25 -5 0 -19 11 -32 25 -13 14 -19 25 -14 25 6 0 20 -11 32 -25z" transform="translate(0,60) scale(0.1,-0.1)" stroke="none" fill="#0E3035"/>

</g>

<g id="1" transform="translate(0,60.0)scale(0.8,0.8)">

<path d="M122 199 c2 -7 10 -15 17 -17 8 -3 12 1 9 9 -2 7 -10 15 -17 17 -8 3 -12 -1 -9 -9z" transform="translate(0,60) scale(0.1,-0.1)" stroke="none" fill="#4F7789"/>

<path d="M380 590 c0 -5 9 -10 20 -10 11 0 20 5 20 10 0 6 -9 10 -20 10 -11 0 -20 -4 -20 -10z" transform="translate(0,60) scale(0.1,-0.1)" stroke="none" fill="#4F7789"/>

<path d="M74 225 c3 -9 6 -19 6 -21 0 -2 7 -4 15 -4 21 0 19 13 -6 29 -19 11 -21 11 -15 -4z" transform="translate(0,60) scale(0.1,-0.1)" stroke="none" fill="#4F7789"/>

<path d="M180 155 c13 -14 27 -25 32 -25 4 0 -2 11 -14 25 -12 14 -26 25 -32 25 -5 0 1 -11 14 -25z" transform="translate(0,60) scale(0.1,-0.1)" stroke="none" fill="#4F7789"/>

<path d="M17 426 c-13 -11 -17 -28 -17 -87 0 -65 3 -76 21 -87 28 -18 35 -9 15 20 -22 31 -22 134 0 146 9 5 13 12 8 15 -5 3 -17 0 -27 -7z" transform="translate(0,60) scale(0.1,-0.1)" stroke="none" fill="#4F7789"/>

<path d="M225 91 c-7 -24 14 -51 39 -51 9 0 16 -4 16 -10 0 -5 9 -10 20 -10 11 0 20 -4 20 -10 0 -5 23 -10 50 -10 28 0 50 5 50 10 0 6 -16 10 -36 10 -39 0 -116 40 -138 72 -14 20 -14 20 -21 -1z" transform="translate(0,60) scale(0.1,-0.1)" stroke="none" fill="#4F7789"/>

<path d="M371 591 c-1 -8 -8 -11 -20 -8 -21 5 -56 -24 -44 -36 3 -4 -1 -7 -11 -7 -10 0 -15 5 -11 13 4 6 -2 2 -13 -10 -11 -13 -27 -23 -36 -23 -9 0 -21 -9 -28 -20 -9 -14 -24 -20 -50 -20 -27 0 -38 -4 -38 -15 0 -22 54 -8 125 32 94 54 98 56 140 69 25 8 32 13 18 13 -12 1 -24 7 -26 14 -4 9 -6 8 -6 -2z m-26 -21 c3 -5 -1 -10 -10 -10 -9 0 -13 5 -10 10 3 6 8 10 10 10 2 0 7 -4 10 -10z" transform="translate(0,60) scale(0.1,-0.1)" stroke="none" fill="#0E3035"/>

<path d="M55 450 c-4 -6 -10 -8 -15 -5 -4 3 -14 -3 -21 -13 -13 -15 -12 -16 3 -4 9 8 19 9 22 4 3 -6 -1 -12 -9 -16 -24 -9 -20 -106 6 -156 21 -40 44 -65 32 -35 -5 15 -3 15 16 4 11 -8 21 -19 21 -25 0 -6 8 -18 18 -25 14 -11 15 -11 5 1 -16 17 -17 30 -3 30 6 0 14 -10 19 -22 5 -13 23 -36 40 -52 22 -21 29 -36 26 -50 -5 -18 -4 -17 8 3 12 19 15 21 20 7 12 -30 99 -76 142 -74 l40 1 -35 6 c-51 9 -107 49 -173 124 -37 43 -68 68 -87 72 -16 4 -43 19 -60 35 -27 25 -30 34 -30 89 0 58 2 63 30 79 16 9 30 20 30 25 0 11 -38 9 -45 -3z m143 -295 c12 -14 18 -25 14 -25 -5 0 -19 11 -32 25 -13 14 -19 25 -14 25 6 0 20 -11 32 -25z" transform="translate(0,60) scale(0.1,-0.1)" stroke="none" fill="#0E3035"/>

</g>

<g id="2" transform="translate(0,120.0)scale(0.8,0.8)">

<path d="M122 199 c2 -7 10 -15 17 -17 8 -3 12 1 9 9 -2 7 -10 15 -17 17 -8 3 -12 -1 -9 -9z" transform="translate(0,60) scale(0.1,-0.1)" stroke="none" fill="#4F7789"/>

<path d="M380 590 c0 -5 9 -10 20 -10 11 0 20 5 20 10 0 6 -9 10 -20 10 -11 0 -20 -4 -20 -10z" transform="translate(0,60) scale(0.1,-0.1)" stroke="none" fill="#4F7789"/>

<path d="M74 225 c3 -9 6 -19 6 -21 0 -2 7 -4 15 -4 21 0 19 13 -6 29 -19 11 -21 11 -15 -4z" transform="translate(0,60) scale(0.1,-0.1)" stroke="none" fill="#4F7789"/>

<path d="M180 155 c13 -14 27 -25 32 -25 4 0 -2 11 -14 25 -12 14 -26 25 -32 25 -5 0 1 -11 14 -25z" transform="translate(0,60) scale(0.1,-0.1)" stroke="none" fill="#4F7789"/>

<path d="M17 426 c-13 -11 -17 -28 -17 -87 0 -65 3 -76 21 -87 28 -18 35 -9 15 20 -22 31 -22 134 0 146 9 5 13 12 8 15 -5 3 -17 0 -27 -7z" transform="translate(0,60) scale(0.1,-0.1)" stroke="none" fill="#4F7789"/>

<path d="M225 91 c-7 -24 14 -51 39 -51 9 0 16 -4 16 -10 0 -5 9 -10 20 -10 11 0 20 -4 20 -10 0 -5 23 -10 50 -10 28 0 50 5 50 10 0 6 -16 10 -36 10 -39 0 -116 40 -138 72 -14 20 -14 20 -21 -1z" transform="translate(0,60) scale(0.1,-0.1)" stroke="none" fill="#4F7789"/>

<path d="M371 591 c-1 -8 -8 -11 -20 -8 -21 5 -56 -24 -44 -36 3 -4 -1 -7 -11 -7 -10 0 -15 5 -11 13 4 6 -2 2 -13 -10 -11 -13 -27 -23 -36 -23 -9 0 -21 -9 -28 -20 -9 -14 -24 -20 -50 -20 -27 0 -38 -4 -38 -15 0 -22 54 -8 125 32 94 54 98 56 140 69 25 8 32 13 18 13 -12 1 -24 7 -26 14 -4 9 -6 8 -6 -2z m-26 -21 c3 -5 -1 -10 -10 -10 -9 0 -13 5 -10 10 3 6 8 10 10 10 2 0 7 -4 10 -10z" transform="translate(0,60) scale(0.1,-0.1)" stroke="none" fill="#0E3035"/>

<path d="M55 450 c-4 -6 -10 -8 -15 -5 -4 3 -14 -3 -21 -13 -13 -15 -12 -16 3 -4 9 8 19 9 22 4 3 -6 -1 -12 -9 -16 -24 -9 -20 -106 6 -156 21 -40 44 -65 32 -35 -5 15 -3 15 16 4 11 -8 21 -19 21 -25 0 -6 8 -18 18 -25 14 -11 15 -11 5 1 -16 17 -17 30 -3 30 6 0 14 -10 19 -22 5 -13 23 -36 40 -52 22 -21 29 -36 26 -50 -5 -18 -4 -17 8 3 12 19 15 21 20 7 12 -30 99 -76 142 -74 l40 1 -35 6 c-51 9 -107 49 -173 124 -37 43 -68 68 -87 72 -16 4 -43 19 -60 35 -27 25 -30 34 -30 89 0 58 2 63 30 79 16 9 30 20 30 25 0 11 -38 9 -45 -3z m143 -295 c12 -14 18 -25 14 -25 -5 0 -19 11 -32 25 -13 14 -19 25 -14 25 6 0 20 -11 32 -25z" transform="translate(0,60) scale(0.1,-0.1)" stroke="none" fill="#0E3035"/>

</g>

<g id="3" transform="translate(0,180.0)scale(0.8,0.8)">

<path d="M122 199 c2 -7 10 -15 17 -17 8 -3 12 1 9 9 -2 7 -10 15 -17 17 -8 3 -12 -1 -9 -9z" transform="translate(0,60) scale(0.1,-0.1)" stroke="none" fill="#4F7789"/>

<path d="M380 590 c0 -5 9 -10 20 -10 11 0 20 5 20 10 0 6 -9 10 -20 10 -11 0 -20 -4 -20 -10z" transform="translate(0,60) scale(0.1,-0.1)" stroke="none" fill="#4F7789"/>

<path d="M74 225 c3 -9 6 -19 6 -21 0 -2 7 -4 15 -4 21 0 19 13 -6 29 -19 11 -21 11 -15 -4z" transform="translate(0,60) scale(0.1,-0.1)" stroke="none" fill="#4F7789"/>

<path d="M180 155 c13 -14 27 -25 32 -25 4 0 -2 11 -14 25 -12 14 -26 25 -32 25 -5 0 1 -11 14 -25z" transform="translate(0,60) scale(0.1,-0.1)" stroke="none" fill="#4F7789"/>

<path d="M17 426 c-13 -11 -17 -28 -17 -87 0 -65 3 -76 21 -87 28 -18 35 -9 15 20 -22 31 -22 134 0 146 9 5 13 12 8 15 -5 3 -17 0 -27 -7z" transform="translate(0,60) scale(0.1,-0.1)" stroke="none" fill="#4F7789"/>

<path d="M225 91 c-7 -24 14 -51 39 -51 9 0 16 -4 16 -10 0 -5 9 -10 20 -10 11 0 20 -4 20 -10 0 -5 23 -10 50 -10 28 0 50 5 50 10 0 6 -16 10 -36 10 -39 0 -116 40 -138 72 -14 20 -14 20 -21 -1z" transform="translate(0,60) scale(0.1,-0.1)" stroke="none" fill="#4F7789"/>

<path d="M371 591 c-1 -8 -8 -11 -20 -8 -21 5 -56 -24 -44 -36 3 -4 -1 -7 -11 -7 -10 0 -15 5 -11 13 4 6 -2 2 -13 -10 -11 -13 -27 -23 -36 -23 -9 0 -21 -9 -28 -20 -9 -14 -24 -20 -50 -20 -27 0 -38 -4 -38 -15 0 -22 54 -8 125 32 94 54 98 56 140 69 25 8 32 13 18 13 -12 1 -24 7 -26 14 -4 9 -6 8 -6 -2z m-26 -21 c3 -5 -1 -10 -10 -10 -9 0 -13 5 -10 10 3 6 8 10 10 10 2 0 7 -4 10 -10z" transform="translate(0,60) scale(0.1,-0.1)" stroke="none" fill="#0E3035"/>

<path d="M55 450 c-4 -6 -10 -8 -15 -5 -4 3 -14 -3 -21 -13 -13 -15 -12 -16 3 -4 9 8 19 9 22 4 3 -6 -1 -12 -9 -16 -24 -9 -20 -106 6 -156 21 -40 44 -65 32 -35 -5 15 -3 15 16 4 11 -8 21 -19 21 -25 0 -6 8 -18 18 -25 14 -11 15 -11 5 1 -16 17 -17 30 -3 30 6 0 14 -10 19 -22 5 -13 23 -36 40 -52 22 -21 29 -36 26 -50 -5 -18 -4 -17 8 3 12 19 15 21 20 7 12 -30 99 -76 142 -74 l40 1 -35 6 c-51 9 -107 49 -173 124 -37 43 -68 68 -87 72 -16 4 -43 19 -60 35 -27 25 -30 34 -30 89 0 58 2 63 30 79 16 9 30 20 30 25 0 11 -38 9 -45 -3z m143 -295 c12 -14 18 -25 14 -25 -5 0 -19 11 -32 25 -13 14 -19 25 -14 25 6 0 20 -11 32 -25z" transform="translate(0,60) scale(0.1,-0.1)" stroke="none" fill="#0E3035"/>

</g>

<g id="4" transform="translate(0,240.0)scale(0.8,0.8)">

<path d="M122 199 c2 -7 10 -15 17 -17 8 -3 12 1 9 9 -2 7 -10 15 -17 17 -8 3 -12 -1 -9 -9z" transform="translate(0,60) scale(0.1,-0.1)" stroke="none" fill="#4F7789"/>

<path d="M380 590 c0 -5 9 -10 20 -10 11 0 20 5 20 10 0 6 -9 10 -20 10 -11 0 -20 -4 -20 -10z" transform="translate(0,60) scale(0.1,-0.1)" stroke="none" fill="#4F7789"/>

<path d="M74 225 c3 -9 6 -19 6 -21 0 -2 7 -4 15 -4 21 0 19 13 -6 29 -19 11 -21 11 -15 -4z" transform="translate(0,60) scale(0.1,-0.1)" stroke="none" fill="#4F7789"/>

<path d="M180 155 c13 -14 27 -25 32 -25 4 0 -2 11 -14 25 -12 14 -26 25 -32 25 -5 0 1 -11 14 -25z" transform="translate(0,60) scale(0.1,-0.1)" stroke="none" fill="#4F7789"/>

<path d="M17 426 c-13 -11 -17 -28 -17 -87 0 -65 3 -76 21 -87 28 -18 35 -9 15 20 -22 31 -22 134 0 146 9 5 13 12 8 15 -5 3 -17 0 -27 -7z" transform="translate(0,60) scale(0.1,-0.1)" stroke="none" fill="#4F7789"/>

<path d="M225 91 c-7 -24 14 -51 39 -51 9 0 16 -4 16 -10 0 -5 9 -10 20 -10 11 0 20 -4 20 -10 0 -5 23 -10 50 -10 28 0 50 5 50 10 0 6 -16 10 -36 10 -39 0 -116 40 -138 72 -14 20 -14 20 -21 -1z" transform="translate(0,60) scale(0.1,-0.1)" stroke="none" fill="#4F7789"/>

<path d="M371 591 c-1 -8 -8 -11 -20 -8 -21 5 -56 -24 -44 -36 3 -4 -1 -7 -11 -7 -10 0 -15 5 -11 13 4 6 -2 2 -13 -10 -11 -13 -27 -23 -36 -23 -9 0 -21 -9 -28 -20 -9 -14 -24 -20 -50 -20 -27 0 -38 -4 -38 -15 0 -22 54 -8 125 32 94 54 98 56 140 69 25 8 32 13 18 13 -12 1 -24 7 -26 14 -4 9 -6 8 -6 -2z m-26 -21 c3 -5 -1 -10 -10 -10 -9 0 -13 5 -10 10 3 6 8 10 10 10 2 0 7 -4 10 -10z" transform="translate(0,60) scale(0.1,-0.1)" stroke="none" fill="#0E3035"/>

<path d="M55 450 c-4 -6 -10 -8 -15 -5 -4 3 -14 -3 -21 -13 -13 -15 -12 -16 3 -4 9 8 19 9 22 4 3 -6 -1 -12 -9 -16 -24 -9 -20 -106 6 -156 21 -40 44 -65 32 -35 -5 15 -3 15 16 4 11 -8 21 -19 21 -25 0 -6 8 -18 18 -25 14 -11 15 -11 5 1 -16 17 -17 30 -3 30 6 0 14 -10 19 -22 5 -13 23 -36 40 -52 22 -21 29 -36 26 -50 -5 -18 -4 -17 8 3 12 19 15 21 20 7 12 -30 99 -76 142 -74 l40 1 -35 6 c-51 9 -107 49 -173 124 -37 43 -68 68 -87 72 -16 4 -43 19 -60 35 -27 25 -30 34 -30 89 0 58 2 63 30 79 16 9 30 20 30 25 0 11 -38 9 -45 -3z m143 -295 c12 -14 18 -25 14 -25 -5 0 -19 11 -32 25 -13 14 -19 25 -14 25 6 0 20 -11 32 -25z" transform="translate(0,60) scale(0.1,-0.1)" stroke="none" fill="#0E3035"/>

</g>

</g>
<g id="col2" transform="translate(84, 8)">
<g id="0" transform="translate(0,0.0)scale(0.8,0.8)">

<path d="M122 199 c2 -7 10 -15 17 -17 8 -3 12 1 9 9 -2 7 -10 15 -17 17 -8 3 -12 -1 -9 -9z" transform="translate(0,60) scale(0.1,-0.1)" stroke="none" fill="#4F7789"/>

<path d="M380 590 c0 -5 9 -10 20 -10 11 0 20 5 20 10 0 6 -9 10 -20 10 -11 0 -20 -4 -20 -10z" transform="translate(0,60) scale(0.1,-0.1)" stroke="none" fill="#4F7789"/>

<path d="M74 225 c3 -9 6 -19 6 -21 0 -2 7 -4 15 -4 21 0 19 13 -6 29 -19 11 -21 11 -15 -4z" transform="translate(0,60) scale(0.1,-0.1)" stroke="none" fill="#4F7789"/>

<path d="M180 155 c13 -14 27 -25 32 -25 4 0 -2 11 -14 25 -12 14 -26 25 -32 25 -5 0 1 -11 14 -25z" transform="translate(0,60) scale(0.1,-0.1)" stroke="none" fill="#4F7789"/>

<path d="M17 426 c-13 -11 -17 -28 -17 -87 0 -65 3 -76 21 -87 28 -18 35 -9 15 20 -22 31 -22 134 0 146 9 5 13 12 8 15 -5 3 -17 0 -27 -7z" transform="translate(0,60) scale(0.1,-0.1)" stroke="none" fill="#4F7789"/>

<path d="M225 91 c-7 -24 14 -51 39 -51 9 0 16 -4 16 -10 0 -5 9 -10 20 -10 11 0 20 -4 20 -10 0 -5 23 -10 50 -10 28 0 50 5 50 10 0 6 -16 10 -36 10 -39 0 -116 40 -138 72 -14 20 -14 20 -21 -1z" transform="translate(0,60) scale(0.1,-0.1)" stroke="none" fill="#4F7789"/>

<path d="M371 591 c-1 -8 -8 -11 -20 -8 -21 5 -56 -24 -44 -36 3 -4 -1 -7 -11 -7 -10 0 -15 5 -11 13 4 6 -2 2 -13 -10 -11 -13 -27 -23 -36 -23 -9 0 -21 -9 -28 -20 -9 -14 -24 -20 -50 -20 -27 0 -38 -4 -38 -15 0 -22 54 -8 125 32 94 54 98 56 140 69 25 8 32 13 18 13 -12 1 -24 7 -26 14 -4 9 -6 8 -6 -2z m-26 -21 c3 -5 -1 -10 -10 -10 -9 0 -13 5 -10 10 3 6 8 10 10 10 2 0 7 -4 10 -10z" transform="translate(0,60) scale(0.1,-0.1)" stroke="none" fill="#0E3035"/>

<path d="M55 450 c-4 -6 -10 -8 -15 -5 -4 3 -14 -3 -21 -13 -13 -15 -12 -16 3 -4 9 8 19 9 22 4 3 -6 -1 -12 -9 -16 -24 -9 -20 -106 6 -156 21 -40 44 -65 32 -35 -5 15 -3 15 16 4 11 -8 21 -19 21 -25 0 -6 8 -18 18 -25 14 -11 15 -11 5 1 -16 17 -17 30 -3 30 6 0 14 -10 19 -22 5 -13 23 -36 40 -52 22 -21 29 -36 26 -50 -5 -18 -4 -17 8 3 12 19 15 21 20 7 12 -30 99 -76 142 -74 l40 1 -35 6 c-51 9 -107 49 -173 124 -37 43 -68 68 -87 72 -16 4 -43 19 -60 35 -27 25 -30 34 -30 89 0 58 2 63 30 79 16 9 30 20 30 25 0 11 -38 9 -45 -3z m143 -295 c12 -14 18 -25 14 -25 -5 0 -19 11 -32 25 -13 14 -19 25 -14 25 6 0 20 -11 32 -25z" transform="translate(0,60) scale(0.1,-0.1)" stroke="none" fill="#0E3035"/>

</g>

<g id="1" transform="translate(0,60.0)scale(0.8,0.8)">

<path d="M122 199 c2 -7 10 -15 17 -17 8 -3 12 1 9 9 -2 7 -10 15 -17 17 -8 3 -12 -1 -9 -9z" transform="translate(0,60) scale(0.1,-0.1)" stroke="none" fill="#4F7789"/>

<path d="M380 590 c0 -5 9 -10 20 -10 11 0 20 5 20 10 0 6 -9 10 -20 10 -11 0 -20 -4 -20 -10z" transform="translate(0,60) scale(0.1,-0.1)" stroke="none" fill="#4F7789"/>

<path d="M74 225 c3 -9 6 -19 6 -21 0 -2 7 -4 15 -4 21 0 19 13 -6 29 -19 11 -21 11 -15 -4z" transform="translate(0,60) scale(0.1,-0.1)" stroke="none" fill="#4F7789"/>

<path d="M180 155 c13 -14 27 -25 32 -25 4 0 -2 11 -14 25 -12 14 -26 25 -32 25 -5 0 1 -11 14 -25z" transform="translate(0,60) scale(0.1,-0.1)" stroke="none" fill="#4F7789"/>

<path d="M17 426 c-13 -11 -17 -28 -17 -87 0 -65 3 -76 21 -87 28 -18 35 -9 15 20 -22 31 -22 134 0 146 9 5 13 12 8 15 -5 3 -17 0 -27 -7z" transform="translate(0,60) scale(0.1,-0.1)" stroke="none" fill="#4F7789"/>

<path d="M225 91 c-7 -24 14 -51 39 -51 9 0 16 -4 16 -10 0 -5 9 -10 20 -10 11 0 20 -4 20 -10 0 -5 23 -10 50 -10 28 0 50 5 50 10 0 6 -16 10 -36 10 -39 0 -116 40 -138 72 -14 20 -14 20 -21 -1z" transform="translate(0,60) scale(0.1,-0.1)" stroke="none" fill="#4F7789"/>

<path d="M371 591 c-1 -8 -8 -11 -20 -8 -21 5 -56 -24 -44 -36 3 -4 -1 -7 -11 -7 -10 0 -15 5 -11 13 4 6 -2 2 -13 -10 -11 -13 -27 -23 -36 -23 -9 0 -21 -9 -28 -20 -9 -14 -24 -20 -50 -20 -27 0 -38 -4 -38 -15 0 -22 54 -8 125 32 94 54 98 56 140 69 25 8 32 13 18 13 -12 1 -24 7 -26 14 -4 9 -6 8 -6 -2z m-26 -21 c3 -5 -1 -10 -10 -10 -9 0 -13 5 -10 10 3 6 8 10 10 10 2 0 7 -4 10 -10z" transform="translate(0,60) scale(0.1,-0.1)" stroke="none" fill="#0E3035"/>

<path d="M55 450 c-4 -6 -10 -8 -15 -5 -4 3 -14 -3 -21 -13 -13 -15 -12 -16 3 -4 9 8 19 9 22 4 3 -6 -1 -12 -9 -16 -24 -9 -20 -106 6 -156 21 -40 44 -65 32 -35 -5 15 -3 15 16 4 11 -8 21 -19 21 -25 0 -6 8 -18 18 -25 14 -11 15 -11 5 1 -16 17 -17 30 -3 30 6 0 14 -10 19 -22 5 -13 23 -36 40 -52 22 -21 29 -36 26 -50 -5 -18 -4 -17 8 3 12 19 15 21 20 7 12 -30 99 -76 142 -74 l40 1 -35 6 c-51 9 -107 49 -173 124 -37 43 -68 68 -87 72 -16 4 -43 19 -60 35 -27 25 -30 34 -30 89 0 58 2 63 30 79 16 9 30 20 30 25 0 11 -38 9 -45 -3z m143 -295 c12 -14 18 -25 14 -25 -5 0 -19 11 -32 25 -13 14 -19 25 -14 25 6 0 20 -11 32 -25z" transform="translate(0,60) scale(0.1,-0.1)" stroke="none" fill="#0E3035"/>

</g>

<g id="2" transform="translate(0,120.0)scale(0.8,0.8)">

<path d="M122 199 c2 -7 10 -15 17 -17 8 -3 12 1 9 9 -2 7 -10 15 -17 17 -8 3 -12 -1 -9 -9z" transform="translate(0,60) scale(0.1,-0.1)" stroke="none" fill="#4F7789"/>

<path d="M380 590 c0 -5 9 -10 20 -10 11 0 20 5 20 10 0 6 -9 10 -20 10 -11 0 -20 -4 -20 -10z" transform="translate(0,60) scale(0.1,-0.1)" stroke="none" fill="#4F7789"/>

<path d="M74 225 c3 -9 6 -19 6 -21 0 -2 7 -4 15 -4 21 0 19 13 -6 29 -19 11 -21 11 -15 -4z" transform="translate(0,60) scale(0.1,-0.1)" stroke="none" fill="#4F7789"/>

<path d="M180 155 c13 -14 27 -25 32 -25 4 0 -2 11 -14 25 -12 14 -26 25 -32 25 -5 0 1 -11 14 -25z" transform="translate(0,60) scale(0.1,-0.1)" stroke="none" fill="#4F7789"/>

<path d="M17 426 c-13 -11 -17 -28 -17 -87 0 -65 3 -76 21 -87 28 -18 35 -9 15 20 -22 31 -22 134 0 146 9 5 13 12 8 15 -5 3 -17 0 -27 -7z" transform="translate(0,60) scale(0.1,-0.1)" stroke="none" fill="#4F7789"/>

<path d="M225 91 c-7 -24 14 -51 39 -51 9 0 16 -4 16 -10 0 -5 9 -10 20 -10 11 0 20 -4 20 -10 0 -5 23 -10 50 -10 28 0 50 5 50 10 0 6 -16 10 -36 10 -39 0 -116 40 -138 72 -14 20 -14 20 -21 -1z" transform="translate(0,60) scale(0.1,-0.1)" stroke="none" fill="#4F7789"/>

<path d="M371 591 c-1 -8 -8 -11 -20 -8 -21 5 -56 -24 -44 -36 3 -4 -1 -7 -11 -7 -10 0 -15 5 -11 13 4 6 -2 2 -13 -10 -11 -13 -27 -23 -36 -23 -9 0 -21 -9 -28 -20 -9 -14 -24 -20 -50 -20 -27 0 -38 -4 -38 -15 0 -22 54 -8 125 32 94 54 98 56 140 69 25 8 32 13 18 13 -12 1 -24 7 -26 14 -4 9 -6 8 -6 -2z m-26 -21 c3 -5 -1 -10 -10 -10 -9 0 -13 5 -10 10 3 6 8 10 10 10 2 0 7 -4 10 -10z" transform="translate(0,60) scale(0.1,-0.1)" stroke="none" fill="#0E3035"/>

<path d="M55 450 c-4 -6 -10 -8 -15 -5 -4 3 -14 -3 -21 -13 -13 -15 -12 -16 3 -4 9 8 19 9 22 4 3 -6 -1 -12 -9 -16 -24 -9 -20 -106 6 -156 21 -40 44 -65 32 -35 -5 15 -3 15 16 4 11 -8 21 -19 21 -25 0 -6 8 -18 18 -25 14 -11 15 -11 5 1 -16 17 -17 30 -3 30 6 0 14 -10 19 -22 5 -13 23 -36 40 -52 22 -21 29 -36 26 -50 -5 -18 -4 -17 8 3 12 19 15 21 20 7 12 -30 99 -76 142 -74 l40 1 -35 6 c-51 9 -107 49 -173 124 -37 43 -68 68 -87 72 -16 4 -43 19 -60 35 -27 25 -30 34 -30 89 0 58 2 63 30 79 16 9 30 20 30 25 0 11 -38 9 -45 -3z m143 -295 c12 -14 18 -25 14 -25 -5 0 -19 11 -32 25 -13 14 -19 25 -14 25 6 0 20 -11 32 -25z" transform="translate(0,60) scale(0.1,-0.1)" stroke="none" fill="#0E3035"/>

</g>

<g id="3" transform="translate(0,180.0)scale(0.8,0.8)">

<path d="M122 199 c2 -7 10 -15 17 -17 8 -3 12 1 9 9 -2 7 -10 15 -17 17 -8 3 -12 -1 -9 -9z" transform="translate(0,60) scale(0.1,-0.1)" stroke="none" fill="#4F7789"/>

<path d="M380 590 c0 -5 9 -10 20 -10 11 0 20 5 20 10 0 6 -9 10 -20 10 -11 0 -20 -4 -20 -10z" transform="translate(0,60) scale(0.1,-0.1)" stroke="none" fill="#4F7789"/>

<path d="M74 225 c3 -9 6 -19 6 -21 0 -2 7 -4 15 -4 21 0 19 13 -6 29 -19 11 -21 11 -15 -4z" transform="translate(0,60) scale(0.1,-0.1)" stroke="none" fill="#4F7789"/>

<path d="M180 155 c13 -14 27 -25 32 -25 4 0 -2 11 -14 25 -12 14 -26 25 -32 25 -5 0 1 -11 14 -25z" transform="translate(0,60) scale(0.1,-0.1)" stroke="none" fill="#4F7789"/>

<path d="M17 426 c-13 -11 -17 -28 -17 -87 0 -65 3 -76 21 -87 28 -18 35 -9 15 20 -22 31 -22 134 0 146 9 5 13 12 8 15 -5 3 -17 0 -27 -7z" transform="translate(0,60) scale(0.1,-0.1)" stroke="none" fill="#4F7789"/>

<path d="M225 91 c-7 -24 14 -51 39 -51 9 0 16 -4 16 -10 0 -5 9 -10 20 -10 11 0 20 -4 20 -10 0 -5 23 -10 50 -10 28 0 50 5 50 10 0 6 -16 10 -36 10 -39 0 -116 40 -138 72 -14 20 -14 20 -21 -1z" transform="translate(0,60) scale(0.1,-0.1)" stroke="none" fill="#4F7789"/>

<path d="M371 591 c-1 -8 -8 -11 -20 -8 -21 5 -56 -24 -44 -36 3 -4 -1 -7 -11 -7 -10 0 -15 5 -11 13 4 6 -2 2 -13 -10 -11 -13 -27 -23 -36 -23 -9 0 -21 -9 -28 -20 -9 -14 -24 -20 -50 -20 -27 0 -38 -4 -38 -15 0 -22 54 -8 125 32 94 54 98 56 140 69 25 8 32 13 18 13 -12 1 -24 7 -26 14 -4 9 -6 8 -6 -2z m-26 -21 c3 -5 -1 -10 -10 -10 -9 0 -13 5 -10 10 3 6 8 10 10 10 2 0 7 -4 10 -10z" transform="translate(0,60) scale(0.1,-0.1)" stroke="none" fill="#0E3035"/>

<path d="M55 450 c-4 -6 -10 -8 -15 -5 -4 3 -14 -3 -21 -13 -13 -15 -12 -16 3 -4 9 8 19 9 22 4 3 -6 -1 -12 -9 -16 -24 -9 -20 -106 6 -156 21 -40 44 -65 32 -35 -5 15 -3 15 16 4 11 -8 21 -19 21 -25 0 -6 8 -18 18 -25 14 -11 15 -11 5 1 -16 17 -17 30 -3 30 6 0 14 -10 19 -22 5 -13 23 -36 40 -52 22 -21 29 -36 26 -50 -5 -18 -4 -17 8 3 12 19 15 21 20 7 12 -30 99 -76 142 -74 l40 1 -35 6 c-51 9 -107 49 -173 124 -37 43 -68 68 -87 72 -16 4 -43 19 -60 35 -27 25 -30 34 -30 89 0 58 2 63 30 79 16 9 30 20 30 25 0 11 -38 9 -45 -3z m143 -295 c12 -14 18 -25 14 -25 -5 0 -19 11 -32 25 -13 14 -19 25 -14 25 6 0 20 -11 32 -25z" transform="translate(0,60) scale(0.1,-0.1)" stroke="none" fill="#0E3035"/>

</g>

<g id="4" transform="translate(0,240.0)scale(0.8,0.8)">

<path d="M122 199 c2 -7 10 -15 17 -17 8 -3 12 1 9 9 -2 7 -10 15 -17 17 -8 3 -12 -1 -9 -9z" transform="translate(0,60) scale(0.1,-0.1)" stroke="none" fill="#4F7789"/>

<path d="M380 590 c0 -5 9 -10 20 -10 11 0 20 5 20 10 0 6 -9 10 -20 10 -11 0 -20 -4 -20 -10z" transform="translate(0,60) scale(0.1,-0.1)" stroke="none" fill="#4F7789"/>

<path d="M74 225 c3 -9 6 -19 6 -21 0 -2 7 -4 15 -4 21 0 19 13 -6 29 -19 11 -21 11 -15 -4z" transform="translate(0,60) scale(0.1,-0.1)" stroke="none" fill="#4F7789"/>

<path d="M180 155 c13 -14 27 -25 32 -25 4 0 -2 11 -14 25 -12 14 -26 25 -32 25 -5 0 1 -11 14 -25z" transform="translate(0,60) scale(0.1,-0.1)" stroke="none" fill="#4F7789"/>

<path d="M17 426 c-13 -11 -17 -28 -17 -87 0 -65 3 -76 21 -87 28 -18 35 -9 15 20 -22 31 -22 134 0 146 9 5 13 12 8 15 -5 3 -17 0 -27 -7z" transform="translate(0,60) scale(0.1,-0.1)" stroke="none" fill="#4F7789"/>

<path d="M225 91 c-7 -24 14 -51 39 -51 9 0 16 -4 16 -10 0 -5 9 -10 20 -10 11 0 20 -4 20 -10 0 -5 23 -10 50 -10 28 0 50 5 50 10 0 6 -16 10 -36 10 -39 0 -116 40 -138 72 -14 20 -14 20 -21 -1z" transform="translate(0,60) scale(0.1,-0.1)" stroke="none" fill="#4F7789"/>

<path d="M371 591 c-1 -8 -8 -11 -20 -8 -21 5 -56 -24 -44 -36 3 -4 -1 -7 -11 -7 -10 0 -15 5 -11 13 4 6 -2 2 -13 -10 -11 -13 -27 -23 -36 -23 -9 0 -21 -9 -28 -20 -9 -14 -24 -20 -50 -20 -27 0 -38 -4 -38 -15 0 -22 54 -8 125 32 94 54 98 56 140 69 25 8 32 13 18 13 -12 1 -24 7 -26 14 -4 9 -6 8 -6 -2z m-26 -21 c3 -5 -1 -10 -10 -10 -9 0 -13 5 -10 10 3 6 8 10 10 10 2 0 7 -4 10 -10z" transform="translate(0,60) scale(0.1,-0.1)" stroke="none" fill="#0E3035"/>

<path d="M55 450 c-4 -6 -10 -8 -15 -5 -4 3 -14 -3 -21 -13 -13 -15 -12 -16 3 -4 9 8 19 9 22 4 3 -6 -1 -12 -9 -16 -24 -9 -20 -106 6 -156 21 -40 44 -65 32 -35 -5 15 -3 15 16 4 11 -8 21 -19 21 -25 0 -6 8 -18 18 -25 14 -11 15 -11 5 1 -16 17 -17 30 -3 30 6 0 14 -10 19 -22 5 -13 23 -36 40 -52 22 -21 29 -36 26 -50 -5 -18 -4 -17 8 3 12 19 15 21 20 7 12 -30 99 -76 142 -74 l40 1 -35 6 c-51 9 -107 49 -173 124 -37 43 -68 68 -87 72 -16 4 -43 19 -60 35 -27 25 -30 34 -30 89 0 58 2 63 30 79 16 9 30 20 30 25 0 11 -38 9 -45 -3z m143 -295 c12 -14 18 -25 14 -25 -5 0 -19 11 -32 25 -13 14 -19 25 -14 25 6 0 20 -11 32 -25z" transform="translate(0,60) scale(0.1,-0.1)" stroke="none" fill="#0E3035"/>

</g>

</g>
<g id="col3" transform="translate(126, -22.0)">
<g id="0" transform="translate(0,0.0)scale(0.8,0.8)">

<path d="M122 199 c2 -7 10 -15 17 -17 8 -3 12 1 9 9 -2 7 -10 15 -17 17 -8 3 -12 -1 -9 -9z" transform="translate(0,60) scale(0.1,-0.1)" stroke="none" fill="#4F7789"/>

<path d="M380 590 c0 -5 9 -10 20 -10 11 0 20 5 20 10 0 6 -9 10 -20 10 -11 0 -20 -4 -20 -10z" transform="translate(0,60) scale(0.1,-0.1)" stroke="none" fill="#4F7789"/>

<path d="M74 225 c3 -9 6 -19 6 -21 0 -2 7 -4 15 -4 21 0 19 13 -6 29 -19 11 -21 11 -15 -4z" transform="translate(0,60) scale(0.1,-0.1)" stroke="none" fill="#4F7789"/>

<path d="M180 155 c13 -14 27 -25 32 -25 4 0 -2 11 -14 25 -12 14 -26 25 -32 25 -5 0 1 -11 14 -25z" transform="translate(0,60) scale(0.1,-0.1)" stroke="none" fill="#4F7789"/>

<path d="M17 426 c-13 -11 -17 -28 -17 -87 0 -65 3 -76 21 -87 28 -18 35 -9 15 20 -22 31 -22 134 0 146 9 5 13 12 8 15 -5 3 -17 0 -27 -7z" transform="translate(0,60) scale(0.1,-0.1)" stroke="none" fill="#4F7789"/>

<path d="M225 91 c-7 -24 14 -51 39 -51 9 0 16 -4 16 -10 0 -5 9 -10 20 -10 11 0 20 -4 20 -10 0 -5 23 -10 50 -10 28 0 50 5 50 10 0 6 -16 10 -36 10 -39 0 -116 40 -138 72 -14 20 -14 20 -21 -1z" transform="translate(0,60) scale(0.1,-0.1)" stroke="none" fill="#4F7789"/>

<path d="M371 591 c-1 -8 -8 -11 -20 -8 -21 5 -56 -24 -44 -36 3 -4 -1 -7 -11 -7 -10 0 -15 5 -11 13 4 6 -2 2 -13 -10 -11 -13 -27 -23 -36 -23 -9 0 -21 -9 -28 -20 -9 -14 -24 -20 -50 -20 -27 0 -38 -4 -38 -15 0 -22 54 -8 125 32 94 54 98 56 140 69 25 8 32 13 18 13 -12 1 -24 7 -26 14 -4 9 -6 8 -6 -2z m-26 -21 c3 -5 -1 -10 -10 -10 -9 0 -13 5 -10 10 3 6 8 10 10 10 2 0 7 -4 10 -10z" transform="translate(0,60) scale(0.1,-0.1)" stroke="none" fill="#0E3035"/>

<path d="M55 450 c-4 -6 -10 -8 -15 -5 -4 3 -14 -3 -21 -13 -13 -15 -12 -16 3 -4 9 8 19 9 22 4 3 -6 -1 -12 -9 -16 -24 -9 -20 -106 6 -156 21 -40 44 -65 32 -35 -5 15 -3 15 16 4 11 -8 21 -19 21 -25 0 -6 8 -18 18 -25 14 -11 15 -11 5 1 -16 17 -17 30 -3 30 6 0 14 -10 19 -22 5 -13 23 -36 40 -52 22 -21 29 -36 26 -50 -5 -18 -4 -17 8 3 12 19 15 21 20 7 12 -30 99 -76 142 -74 l40 1 -35 6 c-51 9 -107 49 -173 124 -37 43 -68 68 -87 72 -16 4 -43 19 -60 35 -27 25 -30 34 -30 89 0 58 2 63 30 79 16 9 30 20 30 25 0 11 -38 9 -45 -3z m143 -295 c12 -14 18 -25 14 -25 -5 0 -19 11 -32 25 -13 14 -19 25 -14 25 6 0 20 -11 32 -25z" transform="translate(0,60) scale(0.1,-0.1)" stroke="none" fill="#0E3035"/>

</g>

<g id="1" transform="translate(0,60.0)scale(0.8,0.8)">

<path d="M122 199 c2 -7 10 -15 17 -17 8 -3 12 1 9 9 -2 7 -10 15 -17 17 -8 3 -12 -1 -9 -9z" transform="translate(0,60) scale(0.1,-0.1)" stroke="none" fill="#4F7789"/>

<path d="M380 590 c0 -5 9 -10 20 -10 11 0 20 5 20 10 0 6 -9 10 -20 10 -11 0 -20 -4 -20 -10z" transform="translate(0,60) scale(0.1,-0.1)" stroke="none" fill="#4F7789"/>

<path d="M74 225 c3 -9 6 -19 6 -21 0 -2 7 -4 15 -4 21 0 19 13 -6 29 -19 11 -21 11 -15 -4z" transform="translate(0,60) scale(0.1,-0.1)" stroke="none" fill="#4F7789"/>

<path d="M180 155 c13 -14 27 -25 32 -25 4 0 -2 11 -14 25 -12 14 -26 25 -32 25 -5 0 1 -11 14 -25z" transform="translate(0,60) scale(0.1,-0.1)" stroke="none" fill="#4F7789"/>

<path d="M17 426 c-13 -11 -17 -28 -17 -87 0 -65 3 -76 21 -87 28 -18 35 -9 15 20 -22 31 -22 134 0 146 9 5 13 12 8 15 -5 3 -17 0 -27 -7z" transform="translate(0,60) scale(0.1,-0.1)" stroke="none" fill="#4F7789"/>

<path d="M225 91 c-7 -24 14 -51 39 -51 9 0 16 -4 16 -10 0 -5 9 -10 20 -10 11 0 20 -4 20 -10 0 -5 23 -10 50 -10 28 0 50 5 50 10 0 6 -16 10 -36 10 -39 0 -116 40 -138 72 -14 20 -14 20 -21 -1z" transform="translate(0,60) scale(0.1,-0.1)" stroke="none" fill="#4F7789"/>

<path d="M371 591 c-1 -8 -8 -11 -20 -8 -21 5 -56 -24 -44 -36 3 -4 -1 -7 -11 -7 -10 0 -15 5 -11 13 4 6 -2 2 -13 -10 -11 -13 -27 -23 -36 -23 -9 0 -21 -9 -28 -20 -9 -14 -24 -20 -50 -20 -27 0 -38 -4 -38 -15 0 -22 54 -8 125 32 94 54 98 56 140 69 25 8 32 13 18 13 -12 1 -24 7 -26 14 -4 9 -6 8 -6 -2z m-26 -21 c3 -5 -1 -10 -10 -10 -9 0 -13 5 -10 10 3 6 8 10 10 10 2 0 7 -4 10 -10z" transform="translate(0,60) scale(0.1,-0.1)" stroke="none" fill="#0E3035"/>

<path d="M55 450 c-4 -6 -10 -8 -15 -5 -4 3 -14 -3 -21 -13 -13 -15 -12 -16 3 -4 9 8 19 9 22 4 3 -6 -1 -12 -9 -16 -24 -9 -20 -106 6 -156 21 -40 44 -65 32 -35 -5 15 -3 15 16 4 11 -8 21 -19 21 -25 0 -6 8 -18 18 -25 14 -11 15 -11 5 1 -16 17 -17 30 -3 30 6 0 14 -10 19 -22 5 -13 23 -36 40 -52 22 -21 29 -36 26 -50 -5 -18 -4 -17 8 3 12 19 15 21 20 7 12 -30 99 -76 142 -74 l40 1 -35 6 c-51 9 -107 49 -173 124 -37 43 -68 68 -87 72 -16 4 -43 19 -60 35 -27 25 -30 34 -30 89 0 58 2 63 30 79 16 9 30 20 30 25 0 11 -38 9 -45 -3z m143 -295 c12 -14 18 -25 14 -25 -5 0 -19 11 -32 25 -13 14 -19 25 -14 25 6 0 20 -11 32 -25z" transform="translate(0,60) scale(0.1,-0.1)" stroke="none" fill="#0E3035"/>

</g>

<g id="2" transform="translate(0,120.0)scale(0.8,0.8)">

<path d="M122 199 c2 -7 10 -15 17 -17 8 -3 12 1 9 9 -2 7 -10 15 -17 17 -8 3 -12 -1 -9 -9z" transform="translate(0,60) scale(0.1,-0.1)" stroke="none" fill="#4F7789"/>

<path d="M380 590 c0 -5 9 -10 20 -10 11 0 20 5 20 10 0 6 -9 10 -20 10 -11 0 -20 -4 -20 -10z" transform="translate(0,60) scale(0.1,-0.1)" stroke="none" fill="#4F7789"/>

<path d="M74 225 c3 -9 6 -19 6 -21 0 -2 7 -4 15 -4 21 0 19 13 -6 29 -19 11 -21 11 -15 -4z" transform="translate(0,60) scale(0.1,-0.1)" stroke="none" fill="#4F7789"/>

<path d="M180 155 c13 -14 27 -25 32 -25 4 0 -2 11 -14 25 -12 14 -26 25 -32 25 -5 0 1 -11 14 -25z" transform="translate(0,60) scale(0.1,-0.1)" stroke="none" fill="#4F7789"/>

<path d="M17 426 c-13 -11 -17 -28 -17 -87 0 -65 3 -76 21 -87 28 -18 35 -9 15 20 -22 31 -22 134 0 146 9 5 13 12 8 15 -5 3 -17 0 -27 -7z" transform="translate(0,60) scale(0.1,-0.1)" stroke="none" fill="#4F7789"/>

<path d="M225 91 c-7 -24 14 -51 39 -51 9 0 16 -4 16 -10 0 -5 9 -10 20 -10 11 0 20 -4 20 -10 0 -5 23 -10 50 -10 28 0 50 5 50 10 0 6 -16 10 -36 10 -39 0 -116 40 -138 72 -14 20 -14 20 -21 -1z" transform="translate(0,60) scale(0.1,-0.1)" stroke="none" fill="#4F7789"/>

<path d="M371 591 c-1 -8 -8 -11 -20 -8 -21 5 -56 -24 -44 -36 3 -4 -1 -7 -11 -7 -10 0 -15 5 -11 13 4 6 -2 2 -13 -10 -11 -13 -27 -23 -36 -23 -9 0 -21 -9 -28 -20 -9 -14 -24 -20 -50 -20 -27 0 -38 -4 -38 -15 0 -22 54 -8 125 32 94 54 98 56 140 69 25 8 32 13 18 13 -12 1 -24 7 -26 14 -4 9 -6 8 -6 -2z m-26 -21 c3 -5 -1 -10 -10 -10 -9 0 -13 5 -10 10 3 6 8 10 10 10 2 0 7 -4 10 -10z" transform="translate(0,60) scale(0.1,-0.1)" stroke="none" fill="#0E3035"/>

<path d="M55 450 c-4 -6 -10 -8 -15 -5 -4 3 -14 -3 -21 -13 -13 -15 -12 -16 3 -4 9 8 19 9 22 4 3 -6 -1 -12 -9 -16 -24 -9 -20 -106 6 -156 21 -40 44 -65 32 -35 -5 15 -3 15 16 4 11 -8 21 -19 21 -25 0 -6 8 -18 18 -25 14 -11 15 -11 5 1 -16 17 -17 30 -3 30 6 0 14 -10 19 -22 5 -13 23 -36 40 -52 22 -21 29 -36 26 -50 -5 -18 -4 -17 8 3 12 19 15 21 20 7 12 -30 99 -76 142 -74 l40 1 -35 6 c-51 9 -107 49 -173 124 -37 43 -68 68 -87 72 -16 4 -43 19 -60 35 -27 25 -30 34 -30 89 0 58 2 63 30 79 16 9 30 20 30 25 0 11 -38 9 -45 -3z m143 -295 c12 -14 18 -25 14 -25 -5 0 -19 11 -32 25 -13 14 -19 25 -14 25 6 0 20 -11 32 -25z" transform="translate(0,60) scale(0.1,-0.1)" stroke="none" fill="#0E3035"/>

</g>

<g id="3" transform="translate(0,180.0)scale(0.8,0.8)">

<path d="M122 199 c2 -7 10 -15 17 -17 8 -3 12 1 9 9 -2 7 -10 15 -17 17 -8 3 -12 -1 -9 -9z" transform="translate(0,60) scale(0.1,-0.1)" stroke="none" fill="#4F7789"/>

<path d="M380 590 c0 -5 9 -10 20 -10 11 0 20 5 20 10 0 6 -9 10 -20 10 -11 0 -20 -4 -20 -10z" transform="translate(0,60) scale(0.1,-0.1)" stroke="none" fill="#4F7789"/>

<path d="M74 225 c3 -9 6 -19 6 -21 0 -2 7 -4 15 -4 21 0 19 13 -6 29 -19 11 -21 11 -15 -4z" transform="translate(0,60) scale(0.1,-0.1)" stroke="none" fill="#4F7789"/>

<path d="M180 155 c13 -14 27 -25 32 -25 4 0 -2 11 -14 25 -12 14 -26 25 -32 25 -5 0 1 -11 14 -25z" transform="translate(0,60) scale(0.1,-0.1)" stroke="none" fill="#4F7789"/>

<path d="M17 426 c-13 -11 -17 -28 -17 -87 0 -65 3 -76 21 -87 28 -18 35 -9 15 20 -22 31 -22 134 0 146 9 5 13 12 8 15 -5 3 -17 0 -27 -7z" transform="translate(0,60) scale(0.1,-0.1)" stroke="none" fill="#4F7789"/>

<path d="M225 91 c-7 -24 14 -51 39 -51 9 0 16 -4 16 -10 0 -5 9 -10 20 -10 11 0 20 -4 20 -10 0 -5 23 -10 50 -10 28 0 50 5 50 10 0 6 -16 10 -36 10 -39 0 -116 40 -138 72 -14 20 -14 20 -21 -1z" transform="translate(0,60) scale(0.1,-0.1)" stroke="none" fill="#4F7789"/>

<path d="M371 591 c-1 -8 -8 -11 -20 -8 -21 5 -56 -24 -44 -36 3 -4 -1 -7 -11 -7 -10 0 -15 5 -11 13 4 6 -2 2 -13 -10 -11 -13 -27 -23 -36 -23 -9 0 -21 -9 -28 -20 -9 -14 -24 -20 -50 -20 -27 0 -38 -4 -38 -15 0 -22 54 -8 125 32 94 54 98 56 140 69 25 8 32 13 18 13 -12 1 -24 7 -26 14 -4 9 -6 8 -6 -2z m-26 -21 c3 -5 -1 -10 -10 -10 -9 0 -13 5 -10 10 3 6 8 10 10 10 2 0 7 -4 10 -10z" transform="translate(0,60) scale(0.1,-0.1)" stroke="none" fill="#0E3035"/>

<path d="M55 450 c-4 -6 -10 -8 -15 -5 -4 3 -14 -3 -21 -13 -13 -15 -12 -16 3 -4 9 8 19 9 22 4 3 -6 -1 -12 -9 -16 -24 -9 -20 -106 6 -156 21 -40 44 -65 32 -35 -5 15 -3 15 16 4 11 -8 21 -19 21 -25 0 -6 8 -18 18 -25 14 -11 15 -11 5 1 -16 17 -17 30 -3 30 6 0 14 -10 19 -22 5 -13 23 -36 40 -52 22 -21 29 -36 26 -50 -5 -18 -4 -17 8 3 12 19 15 21 20 7 12 -30 99 -76 142 -74 l40 1 -35 6 c-51 9 -107 49 -173 124 -37 43 -68 68 -87 72 -16 4 -43 19 -60 35 -27 25 -30 34 -30 89 0 58 2 63 30 79 16 9 30 20 30 25 0 11 -38 9 -45 -3z m143 -295 c12 -14 18 -25 14 -25 -5 0 -19 11 -32 25 -13 14 -19 25 -14 25 6 0 20 -11 32 -25z" transform="translate(0,60) scale(0.1,-0.1)" stroke="none" fill="#0E3035"/>

</g>

<g id="4" transform="translate(0,240.0)scale(0.8,0.8)">

<path d="M122 199 c2 -7 10 -15 17 -17 8 -3 12 1 9 9 -2 7 -10 15 -17 17 -8 3 -12 -1 -9 -9z" transform="translate(0,60) scale(0.1,-0.1)" stroke="none" fill="#4F7789"/>

<path d="M380 590 c0 -5 9 -10 20 -10 11 0 20 5 20 10 0 6 -9 10 -20 10 -11 0 -20 -4 -20 -10z" transform="translate(0,60) scale(0.1,-0.1)" stroke="none" fill="#4F7789"/>

<path d="M74 225 c3 -9 6 -19 6 -21 0 -2 7 -4 15 -4 21 0 19 13 -6 29 -19 11 -21 11 -15 -4z" transform="translate(0,60) scale(0.1,-0.1)" stroke="none" fill="#4F7789"/>

<path d="M180 155 c13 -14 27 -25 32 -25 4 0 -2 11 -14 25 -12 14 -26 25 -32 25 -5 0 1 -11 14 -25z" transform="translate(0,60) scale(0.1,-0.1)" stroke="none" fill="#4F7789"/>

<path d="M17 426 c-13 -11 -17 -28 -17 -87 0 -65 3 -76 21 -87 28 -18 35 -9 15 20 -22 31 -22 134 0 146 9 5 13 12 8 15 -5 3 -17 0 -27 -7z" transform="translate(0,60) scale(0.1,-0.1)" stroke="none" fill="#4F7789"/>

<path d="M225 91 c-7 -24 14 -51 39 -51 9 0 16 -4 16 -10 0 -5 9 -10 20 -10 11 0 20 -4 20 -10 0 -5 23 -10 50 -10 28 0 50 5 50 10 0 6 -16 10 -36 10 -39 0 -116 40 -138 72 -14 20 -14 20 -21 -1z" transform="translate(0,60) scale(0.1,-0.1)" stroke="none" fill="#4F7789"/>

<path d="M371 591 c-1 -8 -8 -11 -20 -8 -21 5 -56 -24 -44 -36 3 -4 -1 -7 -11 -7 -10 0 -15 5 -11 13 4 6 -2 2 -13 -10 -11 -13 -27 -23 -36 -23 -9 0 -21 -9 -28 -20 -9 -14 -24 -20 -50 -20 -27 0 -38 -4 -38 -15 0 -22 54 -8 125 32 94 54 98 56 140 69 25 8 32 13 18 13 -12 1 -24 7 -26 14 -4 9 -6 8 -6 -2z m-26 -21 c3 -5 -1 -10 -10 -10 -9 0 -13 5 -10 10 3 6 8 10 10 10 2 0 7 -4 10 -10z" transform="translate(0,60) scale(0.1,-0.1)" stroke="none" fill="#0E3035"/>

<path d="M55 450 c-4 -6 -10 -8 -15 -5 -4 3 -14 -3 -21 -13 -13 -15 -12 -16 3 -4 9 8 19 9 22 4 3 -6 -1 -12 -9 -16 -24 -9 -20 -106 6 -156 21 -40 44 -65 32 -35 -5 15 -3 15 16 4 11 -8 21 -19 21 -25 0 -6 8 -18 18 -25 14 -11 15 -11 5 1 -16 17 -17 30 -3 30 6 0 14 -10 19 -22 5 -13 23 -36 40 -52 22 -21 29 -36 26 -50 -5 -18 -4 -17 8 3 12 19 15 21 20 7 12 -30 99 -76 142 -74 l40 1 -35 6 c-51 9 -107 49 -173 124 -37 43 -68 68 -87 72 -16 4 -43 19 -60 35 -27 25 -30 34 -30 89 0 58 2 63 30 79 16 9 30 20 30 25 0 11 -38 9 -45 -3z m143 -295 c12 -14 18 -25 14 -25 -5 0 -19 11 -32 25 -13 14 -19 25 -14 25 6 0 20 -11 32 -25z" transform="translate(0,60) scale(0.1,-0.1)" stroke="none" fill="#0E3035"/>

</g>

</g>
</svg>