<?xml version="1.0" standalone="no"?>
<!DOCTYPE svg PUBLIC "-//W3C//DTD SVG 20010904//EN"
 "http://www.w3.org/TR/2001/REC-SVG-20010904/DTD/svg10.dtd">
<svg version="1.0" xmlns="http://www.w3.org/2000/svg" width="4572pt" height="4572pt" viewBox="0 0 4572 4572" preserveAspectRatio = "xMidYMid meet" >
<metadata>
Created by ZoeQu, written in 2022
</metadata>
<rect width="4572" height="4572" fill="#3C5B62"/>
<g id="row0" transform="translate(0,0.0)">
<g id="0" transform="translate(0.0,0)scale(0.25,0.25)">

<g id="pattern">
<rect width="4953" height="4953" fill="#3C5B62"/>
<g id="pattern1" transform="matrix(1,0,0,1,308,308)">
<path d="M366 646 c-44 -53 -69 -125 -60 -175 6 -37 39 -99 74 -140 l20 -23 62 64 c44 46 84 75 133 98 l69 33 -34 12 c-57 20 -101 51 -166 116 l-61 61 -37 -46z" transform="translate(0.000000,0.000000) scale(1,1)" stroke="none" fill="#988B81"/>
<path d="M202 943 c-71 -35 -80 -123 -23 -207 23 -33 28 -47 19 -50 -7 -3 -30 -10 -50 -16 -46 -14 -105 -80 -114 -127 -11 -60 1 -122 33 -161 24 -31 83 -70 125 -84 13 -5 -7 -53 -32 -78 -14 -14 -20 -33 -20 -66 0 -60 36 -98 102 -108 57 -9 88 5 88 38 0 39 40 158 67 200 14 21 20 35 14 31 -22 -13 -94 95 -105 156 -9 50 16 122 59 175 32 39 39 43 53 32 15 -11 15 -11 0 7 -26 31 -56 109 -71 183 -11 53 -18 69 -38 79 -33 17 -67 16 -107 -4z" transform="translate(0.000000,0.000000) scale(1,1)" stroke="none" fill="#2E3637"/>
</g>
<g id="pattern2" transform="matrix(0.618,0,0,0.618,2346,689)">
<path d="M366 646 c-44 -53 -69 -125 -60 -175 6 -37 39 -99 74 -140 l20 -23 62 64 c44 46 84 75 133 98 l69 33 -34 12 c-57 20 -101 51 -166 116 l-61 61 -37 -46z" transform="translate(3108,0.000000) scale(-1,1)" stroke="none" fill="#988B81"/>
<path d="M202 943 c-71 -35 -80 -123 -23 -207 23 -33 28 -47 19 -50 -7 -3 -30 -10 -50 -16 -46 -14 -105 -80 -114 -127 -11 -60 1 -122 33 -161 24 -31 83 -70 125 -84 13 -5 -7 -53 -32 -78 -14 -14 -20 -33 -20 -66 0 -60 36 -98 102 -108 57 -9 88 5 88 38 0 39 40 158 67 200 14 21 20 35 14 31 -22 -13 -94 95 -105 156 -9 50 16 122 59 175 32 39 39 43 53 32 15 -11 15 -11 0 7 -26 31 -56 109 -71 183 -11 53 -18 69 -38 79 -33 17 -67 16 -107 -4z" transform="translate(3108,0.000000) scale(-1,1)" stroke="none" fill="#2E3637"/>
</g>
<g id="pattern3" transform="matrix(0.618,0,0,0.618,880,3108)matrix(0.71,0.71,-0.71,0.71,0,0)">
<path d="M366 646 c-44 -53 -69 -125 -60 -175 6 -37 39 -99 74 -140 l20 -23 62 64 c44 46 84 75 133 98 l69 33 -34 12 c-57 20 -101 51 -166 116 l-61 61 -37 -46z" transform="translate(499,-499) scale(1,1)" stroke="none" fill="#988B81"/>
<path d="M202 943 c-71 -35 -80 -123 -23 -207 23 -33 28 -47 19 -50 -7 -3 -30 -10 -50 -16 -46 -14 -105 -80 -114 -127 -11 -60 1 -122 33 -161 24 -31 83 -70 125 -84 13 -5 -7 -53 -32 -78 -14 -14 -20 -33 -20 -66 0 -60 36 -98 102 -108 57 -9 88 5 88 38 0 39 40 158 67 200 14 21 20 35 14 31 -22 -13 -94 95 -105 156 -9 50 16 122 59 175 32 39 39 43 53 32 15 -11 15 -11 0 7 -26 31 -56 109 -71 183 -11 53 -18 69 -38 79 -33 17 -67 16 -107 -4z" transform="translate(499,-499) scale(1,1)" stroke="none" fill="#2E3637"/>
</g>
<g id="pattern4" transform="matrix(1.618,0,0,1.618,1304,1304)matrix(0.87,0.5,-0.5,0.87,0,0)">
<path d="M366 646 c-44 -53 -69 -125 -60 -175 6 -37 39 -99 74 -140 l20 -23 62 64 c44 46 84 75 133 98 l69 33 -34 12 c-57 20 -101 51 -166 116 l-61 61 -37 -46z" transform="translate(499,-499) scale(1,1)" stroke="none" fill="#988B81"/>
<path d="M202 943 c-71 -35 -80 -123 -23 -207 23 -33 28 -47 19 -50 -7 -3 -30 -10 -50 -16 -46 -14 -105 -80 -114 -127 -11 -60 1 -122 33 -161 24 -31 83 -70 125 -84 13 -5 -7 -53 -32 -78 -14 -14 -20 -33 -20 -66 0 -60 36 -98 102 -108 57 -9 88 5 88 38 0 39 40 158 67 200 14 21 20 35 14 31 -22 -13 -94 95 -105 156 -9 50 16 122 59 175 32 39 39 43 53 32 15 -11 15 -11 0 7 -26 31 -56 109 -71 183 -11 53 -18 69 -38 79 -33 17 -67 16 -107 -4z" transform="translate(499,-499) scale(1,1)" stroke="none" fill="#2E3637"/>
</g>
</g>
</g>

<g id="1" transform="translate(1143.0,0)scale(0.25,0.25)">

<g id="pattern">
<rect width="4953" height="4953" fill="#3C5B62"/>
<g id="pattern1" transform="matrix(1,0,0,1,308,308)">
<path d="M366 646 c-44 -53 -69 -125 -60 -175 6 -37 39 -99 74 -140 l20 -23 62 64 c44 46 84 75 133 98 l69 33 -34 12 c-57 20 -101 51 -166 116 l-61 61 -37 -46z" transform="translate(0.000000,0.000000) scale(1,1)" stroke="none" fill="#988B81"/>
<path d="M202 943 c-71 -35 -80 -123 -23 -207 23 -33 28 -47 19 -50 -7 -3 -30 -10 -50 -16 -46 -14 -105 -80 -114 -127 -11 -60 1 -122 33 -161 24 -31 83 -70 125 -84 13 -5 -7 -53 -32 -78 -14 -14 -20 -33 -20 -66 0 -60 36 -98 102 -108 57 -9 88 5 88 38 0 39 40 158 67 200 14 21 20 35 14 31 -22 -13 -94 95 -105 156 -9 50 16 122 59 175 32 39 39 43 53 32 15 -11 15 -11 0 7 -26 31 -56 109 -71 183 -11 53 -18 69 -38 79 -33 17 -67 16 -107 -4z" transform="translate(0.000000,0.000000) scale(1,1)" stroke="none" fill="#2E3637"/>
</g>
<g id="pattern2" transform="matrix(0.618,0,0,0.618,2346,689)">
<path d="M366 646 c-44 -53 -69 -125 -60 -175 6 -37 39 -99 74 -140 l20 -23 62 64 c44 46 84 75 133 98 l69 33 -34 12 c-57 20 -101 51 -166 116 l-61 61 -37 -46z" transform="translate(3108,0.000000) scale(-1,1)" stroke="none" fill="#988B81"/>
<path d="M202 943 c-71 -35 -80 -123 -23 -207 23 -33 28 -47 19 -50 -7 -3 -30 -10 -50 -16 -46 -14 -105 -80 -114 -127 -11 -60 1 -122 33 -161 24 -31 83 -70 125 -84 13 -5 -7 -53 -32 -78 -14 -14 -20 -33 -20 -66 0 -60 36 -98 102 -108 57 -9 88 5 88 38 0 39 40 158 67 200 14 21 20 35 14 31 -22 -13 -94 95 -105 156 -9 50 16 122 59 175 32 39 39 43 53 32 15 -11 15 -11 0 7 -26 31 -56 109 -71 183 -11 53 -18 69 -38 79 -33 17 -67 16 -107 -4z" transform="translate(3108,0.000000) scale(-1,1)" stroke="none" fill="#2E3637"/>
</g>
<g id="pattern3" transform="matrix(0.618,0,0,0.618,880,3108)matrix(0.71,0.71,-0.71,0.71,0,0)">
<path d="M366 646 c-44 -53 -69 -125 -60 -175 6 -37 39 -99 74 -140 l20 -23 62 64 c44 46 84 75 133 98 l69 33 -34 12 c-57 20 -101 51 -166 116 l-61 61 -37 -46z" transform="translate(499,-499) scale(1,1)" stroke="none" fill="#988B81"/>
<path d="M202 943 c-71 -35 -80 -123 -23 -207 23 -33 28 -47 19 -50 -7 -3 -30 -10 -50 -16 -46 -14 -105 -80 -114 -127 -11 -60 1 -122 33 -161 24 -31 83 -70 125 -84 13 -5 -7 -53 -32 -78 -14 -14 -20 -33 -20 -66 0 -60 36 -98 102 -108 57 -9 88 5 88 38 0 39 40 158 67 200 14 21 20 35 14 31 -22 -13 -94 95 -105 156 -9 50 16 122 59 175 32 39 39 43 53 32 15 -11 15 -11 0 7 -26 31 -56 109 -71 183 -11 53 -18 69 -38 79 -33 17 -67 16 -107 -4z" transform="translate(499,-499) scale(1,1)" stroke="none" fill="#2E3637"/>
</g>
<g id="pattern4" transform="matrix(1.618,0,0,1.618,1304,1304)matrix(0.87,0.5,-0.5,0.87,0,0)">
<path d="M366 646 c-44 -53 -69 -125 -60 -175 6 -37 39 -99 74 -140 l20 -23 62 64 c44 46 84 75 133 98 l69 33 -34 12 c-57 20 -101 51 -166 116 l-61 61 -37 -46z" transform="translate(499,-499) scale(1,1)" stroke="none" fill="#988B81"/>
<path d="M202 943 c-71 -35 -80 -123 -23 -207 23 -33 28 -47 19 -50 -7 -3 -30 -10 -50 -16 -46 -14 -105 -80 -114 -127 -11 -60 1 -122 33 -161 24 -31 83 -70 125 -84 13 -5 -7 -53 -32 -78 -14 -14 -20 -33 -20 -66 0 -60 36 -98 102 -108 57 -9 88 5 88 38 0 39 40 158 67 200 14 21 20 35 14 31 -22 -13 -94 95 -105 156 -9 50 16 122 59 175 32 39 39 43 53 32 15 -11 15 -11 0 7 -26 31 -56 109 -71 183 -11 53 -18 69 -38 79 -33 17 -67 16 -107 -4z" transform="translate(499,-499) scale(1,1)" stroke="none" fill="#2E3637"/>
</g>
</g>
</g>

<g id="2" transform="translate(2286.0,0)scale(0.25,0.25)">

<g id="pattern">
<rect width="4953" height="4953" fill="#3C5B62"/>
<g id="pattern1" transform="matrix(1,0,0,1,308,308)">
<path d="M366 646 c-44 -53 -69 -125 -60 -175 6 -37 39 -99 74 -140 l20 -23 62 64 c44 46 84 75 133 98 l69 33 -34 12 c-57 20 -101 51 -166 116 l-61 61 -37 -46z" transform="translate(0.000000,0.000000) scale(1,1)" stroke="none" fill="#988B81"/>
<path d="M202 943 c-71 -35 -80 -123 -23 -207 23 -33 28 -47 19 -50 -7 -3 -30 -10 -50 -16 -46 -14 -105 -80 -114 -127 -11 -60 1 -122 33 -161 24 -31 83 -70 125 -84 13 -5 -7 -53 -32 -78 -14 -14 -20 -33 -20 -66 0 -60 36 -98 102 -108 57 -9 88 5 88 38 0 39 40 158 67 200 14 21 20 35 14 31 -22 -13 -94 95 -105 156 -9 50 16 122 59 175 32 39 39 43 53 32 15 -11 15 -11 0 7 -26 31 -56 109 -71 183 -11 53 -18 69 -38 79 -33 17 -67 16 -107 -4z" transform="translate(0.000000,0.000000) scale(1,1)" stroke="none" fill="#2E3637"/>
</g>
<g id="pattern2" transform="matrix(0.618,0,0,0.618,2346,689)">
<path d="M366 646 c-44 -53 -69 -125 -60 -175 6 -37 39 -99 74 -140 l20 -23 62 64 c44 46 84 75 133 98 l69 33 -34 12 c-57 20 -101 51 -166 116 l-61 61 -37 -46z" transform="translate(3108,0.000000) scale(-1,1)" stroke="none" fill="#988B81"/>
<path d="M202 943 c-71 -35 -80 -123 -23 -207 23 -33 28 -47 19 -50 -7 -3 -30 -10 -50 -16 -46 -14 -105 -80 -114 -127 -11 -60 1 -122 33 -161 24 -31 83 -70 125 -84 13 -5 -7 -53 -32 -78 -14 -14 -20 -33 -20 -66 0 -60 36 -98 102 -108 57 -9 88 5 88 38 0 39 40 158 67 200 14 21 20 35 14 31 -22 -13 -94 95 -105 156 -9 50 16 122 59 175 32 39 39 43 53 32 15 -11 15 -11 0 7 -26 31 -56 109 -71 183 -11 53 -18 69 -38 79 -33 17 -67 16 -107 -4z" transform="translate(3108,0.000000) scale(-1,1)" stroke="none" fill="#2E3637"/>
</g>
<g id="pattern3" transform="matrix(0.618,0,0,0.618,880,3108)matrix(0.71,0.71,-0.71,0.71,0,0)">
<path d="M366 646 c-44 -53 -69 -125 -60 -175 6 -37 39 -99 74 -140 l20 -23 62 64 c44 46 84 75 133 98 l69 33 -34 12 c-57 20 -101 51 -166 116 l-61 61 -37 -46z" transform="translate(499,-499) scale(1,1)" stroke="none" fill="#988B81"/>
<path d="M202 943 c-71 -35 -80 -123 -23 -207 23 -33 28 -47 19 -50 -7 -3 -30 -10 -50 -16 -46 -14 -105 -80 -114 -127 -11 -60 1 -122 33 -161 24 -31 83 -70 125 -84 13 -5 -7 -53 -32 -78 -14 -14 -20 -33 -20 -66 0 -60 36 -98 102 -108 57 -9 88 5 88 38 0 39 40 158 67 200 14 21 20 35 14 31 -22 -13 -94 95 -105 156 -9 50 16 122 59 175 32 39 39 43 53 32 15 -11 15 -11 0 7 -26 31 -56 109 -71 183 -11 53 -18 69 -38 79 -33 17 -67 16 -107 -4z" transform="translate(499,-499) scale(1,1)" stroke="none" fill="#2E3637"/>
</g>
<g id="pattern4" transform="matrix(1.618,0,0,1.618,1304,1304)matrix(0.87,0.5,-0.5,0.87,0,0)">
<path d="M366 646 c-44 -53 -69 -125 -60 -175 6 -37 39 -99 74 -140 l20 -23 62 64 c44 46 84 75 133 98 l69 33 -34 12 c-57 20 -101 51 -166 116 l-61 61 -37 -46z" transform="translate(499,-499) scale(1,1)" stroke="none" fill="#988B81"/>
<path d="M202 943 c-71 -35 -80 -123 -23 -207 23 -33 28 -47 19 -50 -7 -3 -30 -10 -50 -16 -46 -14 -105 -80 -114 -127 -11 -60 1 -122 33 -161 24 -31 83 -70 125 -84 13 -5 -7 -53 -32 -78 -14 -14 -20 -33 -20 -66 0 -60 36 -98 102 -108 57 -9 88 5 88 38 0 39 40 158 67 200 14 21 20 35 14 31 -22 -13 -94 95 -105 156 -9 50 16 122 59 175 32 39 39 43 53 32 15 -11 15 -11 0 7 -26 31 -56 109 -71 183 -11 53 -18 69 -38 79 -33 17 -67 16 -107 -4z" transform="translate(499,-499) scale(1,1)" stroke="none" fill="#2E3637"/>
</g>
</g>
</g>

<g id="3" transform="translate(3429.0,0)scale(0.25,0.25)">

<g id="pattern">
<rect width="4953" height="4953" fill="#3C5B62"/>
<g id="pattern1" transform="matrix(1,0,0,1,308,308)">
<path d="M366 646 c-44 -53 -69 -125 -60 -175 6 -37 39 -99 74 -140 l20 -23 62 64 c44 46 84 75 133 98 l69 33 -34 12 c-57 20 -101 51 -166 116 l-61 61 -37 -46z" transform="translate(0.000000,0.000000) scale(1,1)" stroke="none" fill="#988B81"/>
<path d="M202 943 c-71 -35 -80 -123 -23 -207 23 -33 28 -47 19 -50 -7 -3 -30 -10 -50 -16 -46 -14 -105 -80 -114 -127 -11 -60 1 -122 33 -161 24 -31 83 -70 125 -84 13 -5 -7 -53 -32 -78 -14 -14 -20 -33 -20 -66 0 -60 36 -98 102 -108 57 -9 88 5 88 38 0 39 40 158 67 200 14 21 20 35 14 31 -22 -13 -94 95 -105 156 -9 50 16 122 59 175 32 39 39 43 53 32 15 -11 15 -11 0 7 -26 31 -56 109 -71 183 -11 53 -18 69 -38 79 -33 17 -67 16 -107 -4z" transform="translate(0.000000,0.000000) scale(1,1)" stroke="none" fill="#2E3637"/>
</g>
<g id="pattern2" transform="matrix(0.618,0,0,0.618,2346,689)">
<path d="M366 646 c-44 -53 -69 -125 -60 -175 6 -37 39 -99 74 -140 l20 -23 62 64 c44 46 84 75 133 98 l69 33 -34 12 c-57 20 -101 51 -166 116 l-61 61 -37 -46z" transform="translate(3108,0.000000) scale(-1,1)" stroke="none" fill="#988B81"/>
<path d="M202 943 c-71 -35 -80 -123 -23 -207 23 -33 28 -47 19 -50 -7 -3 -30 -10 -50 -16 -46 -14 -105 -80 -114 -127 -11 -60 1 -122 33 -161 24 -31 83 -70 125 -84 13 -5 -7 -53 -32 -78 -14 -14 -20 -33 -20 -66 0 -60 36 -98 102 -108 57 -9 88 5 88 38 0 39 40 158 67 200 14 21 20 35 14 31 -22 -13 -94 95 -105 156 -9 50 16 122 59 175 32 39 39 43 53 32 15 -11 15 -11 0 7 -26 31 -56 109 -71 183 -11 53 -18 69 -38 79 -33 17 -67 16 -107 -4z" transform="translate(3108,0.000000) scale(-1,1)" stroke="none" fill="#2E3637"/>
</g>
<g id="pattern3" transform="matrix(0.618,0,0,0.618,880,3108)matrix(0.71,0.71,-0.71,0.71,0,0)">
<path d="M366 646 c-44 -53 -69 -125 -60 -175 6 -37 39 -99 74 -140 l20 -23 62 64 c44 46 84 75 133 98 l69 33 -34 12 c-57 20 -101 51 -166 116 l-61 61 -37 -46z" transform="translate(499,-499) scale(1,1)" stroke="none" fill="#988B81"/>
<path d="M202 943 c-71 -35 -80 -123 -23 -207 23 -33 28 -47 19 -50 -7 -3 -30 -10 -50 -16 -46 -14 -105 -80 -114 -127 -11 -60 1 -122 33 -161 24 -31 83 -70 125 -84 13 -5 -7 -53 -32 -78 -14 -14 -20 -33 -20 -66 0 -60 36 -98 102 -108 57 -9 88 5 88 38 0 39 40 158 67 200 14 21 20 35 14 31 -22 -13 -94 95 -105 156 -9 50 16 122 59 175 32 39 39 43 53 32 15 -11 15 -11 0 7 -26 31 -56 109 -71 183 -11 53 -18 69 -38 79 -33 17 -67 16 -107 -4z" transform="translate(499,-499) scale(1,1)" stroke="none" fill="#2E3637"/>
</g>
<g id="pattern4" transform="matrix(1.618,0,0,1.618,1304,1304)matrix(0.87,0.5,-0.5,0.87,0,0)">
<path d="M366 646 c-44 -53 -69 -125 -60 -175 6 -37 39 -99 74 -140 l20 -23 62 64 c44 46 84 75 133 98 l69 33 -34 12 c-57 20 -101 51 -166 116 l-61 61 -37 -46z" transform="translate(499,-499) scale(1,1)" stroke="none" fill="#988B81"/>
<path d="M202 943 c-71 -35 -80 -123 -23 -207 23 -33 28 -47 19 -50 -7 -3 -30 -10 -50 -16 -46 -14 -105 -80 -114 -127 -11 -60 1 -122 33 -161 24 -31 83 -70 125 -84 13 -5 -7 -53 -32 -78 -14 -14 -20 -33 -20 -66 0 -60 36 -98 102 -108 57 -9 88 5 88 38 0 39 40 158 67 200 14 21 20 35 14 31 -22 -13 -94 95 -105 156 -9 50 16 122 59 175 32 39 39 43 53 32 15 -11 15 -11 0 7 -26 31 -56 109 -71 183 -11 53 -18 69 -38 79 -33 17 -67 16 -107 -4z" transform="translate(499,-499) scale(1,1)" stroke="none" fill="#2E3637"/>
</g>
</g>
</g>

<g id="4" transform="translate(4572.0,0)scale(0.25,0.25)">

<g id="pattern">
<rect width="4953" height="4953" fill="#3C5B62"/>
<g id="pattern1" transform="matrix(1,0,0,1,308,308)">
<path d="M366 646 c-44 -53 -69 -125 -60 -175 6 -37 39 -99 74 -140 l20 -23 62 64 c44 46 84 75 133 98 l69 33 -34 12 c-57 20 -101 51 -166 116 l-61 61 -37 -46z" transform="translate(0.000000,0.000000) scale(1,1)" stroke="none" fill="#988B81"/>
<path d="M202 943 c-71 -35 -80 -123 -23 -207 23 -33 28 -47 19 -50 -7 -3 -30 -10 -50 -16 -46 -14 -105 -80 -114 -127 -11 -60 1 -122 33 -161 24 -31 83 -70 125 -84 13 -5 -7 -53 -32 -78 -14 -14 -20 -33 -20 -66 0 -60 36 -98 102 -108 57 -9 88 5 88 38 0 39 40 158 67 200 14 21 20 35 14 31 -22 -13 -94 95 -105 156 -9 50 16 122 59 175 32 39 39 43 53 32 15 -11 15 -11 0 7 -26 31 -56 109 -71 183 -11 53 -18 69 -38 79 -33 17 -67 16 -107 -4z" transform="translate(0.000000,0.000000) scale(1,1)" stroke="none" fill="#2E3637"/>
</g>
<g id="pattern2" transform="matrix(0.618,0,0,0.618,2346,689)">
<path d="M366 646 c-44 -53 -69 -125 -60 -175 6 -37 39 -99 74 -140 l20 -23 62 64 c44 46 84 75 133 98 l69 33 -34 12 c-57 20 -101 51 -166 116 l-61 61 -37 -46z" transform="translate(3108,0.000000) scale(-1,1)" stroke="none" fill="#988B81"/>
<path d="M202 943 c-71 -35 -80 -123 -23 -207 23 -33 28 -47 19 -50 -7 -3 -30 -10 -50 -16 -46 -14 -105 -80 -114 -127 -11 -60 1 -122 33 -161 24 -31 83 -70 125 -84 13 -5 -7 -53 -32 -78 -14 -14 -20 -33 -20 -66 0 -60 36 -98 102 -108 57 -9 88 5 88 38 0 39 40 158 67 200 14 21 20 35 14 31 -22 -13 -94 95 -105 156 -9 50 16 122 59 175 32 39 39 43 53 32 15 -11 15 -11 0 7 -26 31 -56 109 -71 183 -11 53 -18 69 -38 79 -33 17 -67 16 -107 -4z" transform="translate(3108,0.000000) scale(-1,1)" stroke="none" fill="#2E3637"/>
</g>
<g id="pattern3" transform="matrix(0.618,0,0,0.618,880,3108)matrix(0.71,0.71,-0.71,0.71,0,0)">
<path d="M366 646 c-44 -53 -69 -125 -60 -175 6 -37 39 -99 74 -140 l20 -23 62 64 c44 46 84 75 133 98 l69 33 -34 12 c-57 20 -101 51 -166 116 l-61 61 -37 -46z" transform="translate(499,-499) scale(1,1)" stroke="none" fill="#988B81"/>
<path d="M202 943 c-71 -35 -80 -123 -23 -207 23 -33 28 -47 19 -50 -7 -3 -30 -10 -50 -16 -46 -14 -105 -80 -114 -127 -11 -60 1 -122 33 -161 24 -31 83 -70 125 -84 13 -5 -7 -53 -32 -78 -14 -14 -20 -33 -20 -66 0 -60 36 -98 102 -108 57 -9 88 5 88 38 0 39 40 158 67 200 14 21 20 35 14 31 -22 -13 -94 95 -105 156 -9 50 16 122 59 175 32 39 39 43 53 32 15 -11 15 -11 0 7 -26 31 -56 109 -71 183 -11 53 -18 69 -38 79 -33 17 -67 16 -107 -4z" transform="translate(499,-499) scale(1,1)" stroke="none" fill="#2E3637"/>
</g>
<g id="pattern4" transform="matrix(1.618,0,0,1.618,1304,1304)matrix(0.87,0.5,-0.5,0.87,0,0)">
<path d="M366 646 c-44 -53 -69 -125 -60 -175 6 -37 39 -99 74 -140 l20 -23 62 64 c44 46 84 75 133 98 l69 33 -34 12 c-57 20 -101 51 -166 116 l-61 61 -37 -46z" transform="translate(499,-499) scale(1,1)" stroke="none" fill="#988B81"/>
<path d="M202 943 c-71 -35 -80 -123 -23 -207 23 -33 28 -47 19 -50 -7 -3 -30 -10 -50 -16 -46 -14 -105 -80 -114 -127 -11 -60 1 -122 33 -161 24 -31 83 -70 125 -84 13 -5 -7 -53 -32 -78 -14 -14 -20 -33 -20 -66 0 -60 36 -98 102 -108 57 -9 88 5 88 38 0 39 40 158 67 200 14 21 20 35 14 31 -22 -13 -94 95 -105 156 -9 50 16 122 59 175 32 39 39 43 53 32 15 -11 15 -11 0 7 -26 31 -56 109 -71 183 -11 53 -18 69 -38 79 -33 17 -67 16 -107 -4z" transform="translate(499,-499) scale(1,1)" stroke="none" fill="#2E3637"/>
</g>
</g>
</g>

</g>
<g id="row1" transform="translate(0,1143.0)">
<g id="0" transform="translate(0.0,0)scale(0.25,0.25)">

<g id="pattern">
<rect width="4953" height="4953" fill="#3C5B62"/>
<g id="pattern1" transform="matrix(1,0,0,1,308,308)">
<path d="M366 646 c-44 -53 -69 -125 -60 -175 6 -37 39 -99 74 -140 l20 -23 62 64 c44 46 84 75 133 98 l69 33 -34 12 c-57 20 -101 51 -166 116 l-61 61 -37 -46z" transform="translate(0.000000,0.000000) scale(1,1)" stroke="none" fill="#988B81"/>
<path d="M202 943 c-71 -35 -80 -123 -23 -207 23 -33 28 -47 19 -50 -7 -3 -30 -10 -50 -16 -46 -14 -105 -80 -114 -127 -11 -60 1 -122 33 -161 24 -31 83 -70 125 -84 13 -5 -7 -53 -32 -78 -14 -14 -20 -33 -20 -66 0 -60 36 -98 102 -108 57 -9 88 5 88 38 0 39 40 158 67 200 14 21 20 35 14 31 -22 -13 -94 95 -105 156 -9 50 16 122 59 175 32 39 39 43 53 32 15 -11 15 -11 0 7 -26 31 -56 109 -71 183 -11 53 -18 69 -38 79 -33 17 -67 16 -107 -4z" transform="translate(0.000000,0.000000) scale(1,1)" stroke="none" fill="#2E3637"/>
</g>
<g id="pattern2" transform="matrix(0.618,0,0,0.618,2346,689)">
<path d="M366 646 c-44 -53 -69 -125 -60 -175 6 -37 39 -99 74 -140 l20 -23 62 64 c44 46 84 75 133 98 l69 33 -34 12 c-57 20 -101 51 -166 116 l-61 61 -37 -46z" transform="translate(3108,0.000000) scale(-1,1)" stroke="none" fill="#988B81"/>
<path d="M202 943 c-71 -35 -80 -123 -23 -207 23 -33 28 -47 19 -50 -7 -3 -30 -10 -50 -16 -46 -14 -105 -80 -114 -127 -11 -60 1 -122 33 -161 24 -31 83 -70 125 -84 13 -5 -7 -53 -32 -78 -14 -14 -20 -33 -20 -66 0 -60 36 -98 102 -108 57 -9 88 5 88 38 0 39 40 158 67 200 14 21 20 35 14 31 -22 -13 -94 95 -105 156 -9 50 16 122 59 175 32 39 39 43 53 32 15 -11 15 -11 0 7 -26 31 -56 109 -71 183 -11 53 -18 69 -38 79 -33 17 -67 16 -107 -4z" transform="translate(3108,0.000000) scale(-1,1)" stroke="none" fill="#2E3637"/>
</g>
<g id="pattern3" transform="matrix(0.618,0,0,0.618,880,3108)matrix(0.71,0.71,-0.71,0.71,0,0)">
<path d="M366 646 c-44 -53 -69 -125 -60 -175 6 -37 39 -99 74 -140 l20 -23 62 64 c44 46 84 75 133 98 l69 33 -34 12 c-57 20 -101 51 -166 116 l-61 61 -37 -46z" transform="translate(499,-499) scale(1,1)" stroke="none" fill="#988B81"/>
<path d="M202 943 c-71 -35 -80 -123 -23 -207 23 -33 28 -47 19 -50 -7 -3 -30 -10 -50 -16 -46 -14 -105 -80 -114 -127 -11 -60 1 -122 33 -161 24 -31 83 -70 125 -84 13 -5 -7 -53 -32 -78 -14 -14 -20 -33 -20 -66 0 -60 36 -98 102 -108 57 -9 88 5 88 38 0 39 40 158 67 200 14 21 20 35 14 31 -22 -13 -94 95 -105 156 -9 50 16 122 59 175 32 39 39 43 53 32 15 -11 15 -11 0 7 -26 31 -56 109 -71 183 -11 53 -18 69 -38 79 -33 17 -67 16 -107 -4z" transform="translate(499,-499) scale(1,1)" stroke="none" fill="#2E3637"/>
</g>
<g id="pattern4" transform="matrix(1.618,0,0,1.618,1304,1304)matrix(0.87,0.5,-0.5,0.87,0,0)">
<path d="M366 646 c-44 -53 -69 -125 -60 -175 6 -37 39 -99 74 -140 l20 -23 62 64 c44 46 84 75 133 98 l69 33 -34 12 c-57 20 -101 51 -166 116 l-61 61 -37 -46z" transform="translate(499,-499) scale(1,1)" stroke="none" fill="#988B81"/>
<path d="M202 943 c-71 -35 -80 -123 -23 -207 23 -33 28 -47 19 -50 -7 -3 -30 -10 -50 -16 -46 -14 -105 -80 -114 -127 -11 -60 1 -122 33 -161 24 -31 83 -70 125 -84 13 -5 -7 -53 -32 -78 -14 -14 -20 -33 -20 -66 0 -60 36 -98 102 -108 57 -9 88 5 88 38 0 39 40 158 67 200 14 21 20 35 14 31 -22 -13 -94 95 -105 156 -9 50 16 122 59 175 32 39 39 43 53 32 15 -11 15 -11 0 7 -26 31 -56 109 -71 183 -11 53 -18 69 -38 79 -33 17 -67 16 -107 -4z" transform="translate(499,-499) scale(1,1)" stroke="none" fill="#2E3637"/>
</g>
</g>
</g>

<g id="1" transform="translate(1143.0,0)scale(0.25,0.25)">

<g id="pattern">
<rect width="4953" height="4953" fill="#3C5B62"/>
<g id="pattern1" transform="matrix(1,0,0,1,308,308)">
<path d="M366 646 c-44 -53 -69 -125 -60 -175 6 -37 39 -99 74 -140 l20 -23 62 64 c44 46 84 75 133 98 l69 33 -34 12 c-57 20 -101 51 -166 116 l-61 61 -37 -46z" transform="translate(0.000000,0.000000) scale(1,1)" stroke="none" fill="#988B81"/>
<path d="M202 943 c-71 -35 -80 -123 -23 -207 23 -33 28 -47 19 -50 -7 -3 -30 -10 -50 -16 -46 -14 -105 -80 -114 -127 -11 -60 1 -122 33 -161 24 -31 83 -70 125 -84 13 -5 -7 -53 -32 -78 -14 -14 -20 -33 -20 -66 0 -60 36 -98 102 -108 57 -9 88 5 88 38 0 39 40 158 67 200 14 21 20 35 14 31 -22 -13 -94 95 -105 156 -9 50 16 122 59 175 32 39 39 43 53 32 15 -11 15 -11 0 7 -26 31 -56 109 -71 183 -11 53 -18 69 -38 79 -33 17 -67 16 -107 -4z" transform="translate(0.000000,0.000000) scale(1,1)" stroke="none" fill="#2E3637"/>
</g>
<g id="pattern2" transform="matrix(0.618,0,0,0.618,2346,689)">
<path d="M366 646 c-44 -53 -69 -125 -60 -175 6 -37 39 -99 74 -140 l20 -23 62 64 c44 46 84 75 133 98 l69 33 -34 12 c-57 20 -101 51 -166 116 l-61 61 -37 -46z" transform="translate(3108,0.000000) scale(-1,1)" stroke="none" fill="#988B81"/>
<path d="M202 943 c-71 -35 -80 -123 -23 -207 23 -33 28 -47 19 -50 -7 -3 -30 -10 -50 -16 -46 -14 -105 -80 -114 -127 -11 -60 1 -122 33 -161 24 -31 83 -70 125 -84 13 -5 -7 -53 -32 -78 -14 -14 -20 -33 -20 -66 0 -60 36 -98 102 -108 57 -9 88 5 88 38 0 39 40 158 67 200 14 21 20 35 14 31 -22 -13 -94 95 -105 156 -9 50 16 122 59 175 32 39 39 43 53 32 15 -11 15 -11 0 7 -26 31 -56 109 -71 183 -11 53 -18 69 -38 79 -33 17 -67 16 -107 -4z" transform="translate(3108,0.000000) scale(-1,1)" stroke="none" fill="#2E3637"/>
</g>
<g id="pattern3" transform="matrix(0.618,0,0,0.618,880,3108)matrix(0.71,0.71,-0.71,0.71,0,0)">
<path d="M366 646 c-44 -53 -69 -125 -60 -175 6 -37 39 -99 74 -140 l20 -23 62 64 c44 46 84 75 133 98 l69 33 -34 12 c-57 20 -101 51 -166 116 l-61 61 -37 -46z" transform="translate(499,-499) scale(1,1)" stroke="none" fill="#988B81"/>
<path d="M202 943 c-71 -35 -80 -123 -23 -207 23 -33 28 -47 19 -50 -7 -3 -30 -10 -50 -16 -46 -14 -105 -80 -114 -127 -11 -60 1 -122 33 -161 24 -31 83 -70 125 -84 13 -5 -7 -53 -32 -78 -14 -14 -20 -33 -20 -66 0 -60 36 -98 102 -108 57 -9 88 5 88 38 0 39 40 158 67 200 14 21 20 35 14 31 -22 -13 -94 95 -105 156 -9 50 16 122 59 175 32 39 39 43 53 32 15 -11 15 -11 0 7 -26 31 -56 109 -71 183 -11 53 -18 69 -38 79 -33 17 -67 16 -107 -4z" transform="translate(499,-499) scale(1,1)" stroke="none" fill="#2E3637"/>
</g>
<g id="pattern4" transform="matrix(1.618,0,0,1.618,1304,1304)matrix(0.87,0.5,-0.5,0.87,0,0)">
<path d="M366 646 c-44 -53 -69 -125 -60 -175 6 -37 39 -99 74 -140 l20 -23 62 64 c44 46 84 75 133 98 l69 33 -34 12 c-57 20 -101 51 -166 116 l-61 61 -37 -46z" transform="translate(499,-499) scale(1,1)" stroke="none" fill="#988B81"/>
<path d="M202 943 c-71 -35 -80 -123 -23 -207 23 -33 28 -47 19 -50 -7 -3 -30 -10 -50 -16 -46 -14 -105 -80 -114 -127 -11 -60 1 -122 33 -161 24 -31 83 -70 125 -84 13 -5 -7 -53 -32 -78 -14 -14 -20 -33 -20 -66 0 -60 36 -98 102 -108 57 -9 88 5 88 38 0 39 40 158 67 200 14 21 20 35 14 31 -22 -13 -94 95 -105 156 -9 50 16 122 59 175 32 39 39 43 53 32 15 -11 15 -11 0 7 -26 31 -56 109 -71 183 -11 53 -18 69 -38 79 -33 17 -67 16 -107 -4z" transform="translate(499,-499) scale(1,1)" stroke="none" fill="#2E3637"/>
</g>
</g>
</g>

<g id="2" transform="translate(2286.0,0)scale(0.25,0.25)">

<g id="pattern">
<rect width="4953" height="4953" fill="#3C5B62"/>
<g id="pattern1" transform="matrix(1,0,0,1,308,308)">
<path d="M366 646 c-44 -53 -69 -125 -60 -175 6 -37 39 -99 74 -140 l20 -23 62 64 c44 46 84 75 133 98 l69 33 -34 12 c-57 20 -101 51 -166 116 l-61 61 -37 -46z" transform="translate(0.000000,0.000000) scale(1,1)" stroke="none" fill="#988B81"/>
<path d="M202 943 c-71 -35 -80 -123 -23 -207 23 -33 28 -47 19 -50 -7 -3 -30 -10 -50 -16 -46 -14 -105 -80 -114 -127 -11 -60 1 -122 33 -161 24 -31 83 -70 125 -84 13 -5 -7 -53 -32 -78 -14 -14 -20 -33 -20 -66 0 -60 36 -98 102 -108 57 -9 88 5 88 38 0 39 40 158 67 200 14 21 20 35 14 31 -22 -13 -94 95 -105 156 -9 50 16 122 59 175 32 39 39 43 53 32 15 -11 15 -11 0 7 -26 31 -56 109 -71 183 -11 53 -18 69 -38 79 -33 17 -67 16 -107 -4z" transform="translate(0.000000,0.000000) scale(1,1)" stroke="none" fill="#2E3637"/>
</g>
<g id="pattern2" transform="matrix(0.618,0,0,0.618,2346,689)">
<path d="M366 646 c-44 -53 -69 -125 -60 -175 6 -37 39 -99 74 -140 l20 -23 62 64 c44 46 84 75 133 98 l69 33 -34 12 c-57 20 -101 51 -166 116 l-61 61 -37 -46z" transform="translate(3108,0.000000) scale(-1,1)" stroke="none" fill="#988B81"/>
<path d="M202 943 c-71 -35 -80 -123 -23 -207 23 -33 28 -47 19 -50 -7 -3 -30 -10 -50 -16 -46 -14 -105 -80 -114 -127 -11 -60 1 -122 33 -161 24 -31 83 -70 125 -84 13 -5 -7 -53 -32 -78 -14 -14 -20 -33 -20 -66 0 -60 36 -98 102 -108 57 -9 88 5 88 38 0 39 40 158 67 200 14 21 20 35 14 31 -22 -13 -94 95 -105 156 -9 50 16 122 59 175 32 39 39 43 53 32 15 -11 15 -11 0 7 -26 31 -56 109 -71 183 -11 53 -18 69 -38 79 -33 17 -67 16 -107 -4z" transform="translate(3108,0.000000) scale(-1,1)" stroke="none" fill="#2E3637"/>
</g>
<g id="pattern3" transform="matrix(0.618,0,0,0.618,880,3108)matrix(0.71,0.71,-0.71,0.71,0,0)">
<path d="M366 646 c-44 -53 -69 -125 -60 -175 6 -37 39 -99 74 -140 l20 -23 62 64 c44 46 84 75 133 98 l69 33 -34 12 c-57 20 -101 51 -166 116 l-61 61 -37 -46z" transform="translate(499,-499) scale(1,1)" stroke="none" fill="#988B81"/>
<path d="M202 943 c-71 -35 -80 -123 -23 -207 23 -33 28 -47 19 -50 -7 -3 -30 -10 -50 -16 -46 -14 -105 -80 -114 -127 -11 -60 1 -122 33 -161 24 -31 83 -70 125 -84 13 -5 -7 -53 -32 -78 -14 -14 -20 -33 -20 -66 0 -60 36 -98 102 -108 57 -9 88 5 88 38 0 39 40 158 67 200 14 21 20 35 14 31 -22 -13 -94 95 -105 156 -9 50 16 122 59 175 32 39 39 43 53 32 15 -11 15 -11 0 7 -26 31 -56 109 -71 183 -11 53 -18 69 -38 79 -33 17 -67 16 -107 -4z" transform="translate(499,-499) scale(1,1)" stroke="none" fill="#2E3637"/>
</g>
<g id="pattern4" transform="matrix(1.618,0,0,1.618,1304,1304)matrix(0.87,0.5,-0.5,0.87,0,0)">
<path d="M366 646 c-44 -53 -69 -125 -60 -175 6 -37 39 -99 74 -140 l20 -23 62 64 c44 46 84 75 133 98 l69 33 -34 12 c-57 20 -101 51 -166 116 l-61 61 -37 -46z" transform="translate(499,-499) scale(1,1)" stroke="none" fill="#988B81"/>
<path d="M202 943 c-71 -35 -80 -123 -23 -207 23 -33 28 -47 19 -50 -7 -3 -30 -10 -50 -16 -46 -14 -105 -80 -114 -127 -11 -60 1 -122 33 -161 24 -31 83 -70 125 -84 13 -5 -7 -53 -32 -78 -14 -14 -20 -33 -20 -66 0 -60 36 -98 102 -108 57 -9 88 5 88 38 0 39 40 158 67 200 14 21 20 35 14 31 -22 -13 -94 95 -105 156 -9 50 16 122 59 175 32 39 39 43 53 32 15 -11 15 -11 0 7 -26 31 -56 109 -71 183 -11 53 -18 69 -38 79 -33 17 -67 16 -107 -4z" transform="translate(499,-499) scale(1,1)" stroke="none" fill="#2E3637"/>
</g>
</g>
</g>

<g id="3" transform="translate(3429.0,0)scale(0.25,0.25)">

<g id="pattern">
<rect width="4953" height="4953" fill="#3C5B62"/>
<g id="pattern1" transform="matrix(1,0,0,1,308,308)">
<path d="M366 646 c-44 -53 -69 -125 -60 -175 6 -37 39 -99 74 -140 l20 -23 62 64 c44 46 84 75 133 98 l69 33 -34 12 c-57 20 -101 51 -166 116 l-61 61 -37 -46z" transform="translate(0.000000,0.000000) scale(1,1)" stroke="none" fill="#988B81"/>
<path d="M202 943 c-71 -35 -80 -123 -23 -207 23 -33 28 -47 19 -50 -7 -3 -30 -10 -50 -16 -46 -14 -105 -80 -114 -127 -11 -60 1 -122 33 -161 24 -31 83 -70 125 -84 13 -5 -7 -53 -32 -78 -14 -14 -20 -33 -20 -66 0 -60 36 -98 102 -108 57 -9 88 5 88 38 0 39 40 158 67 200 14 21 20 35 14 31 -22 -13 -94 95 -105 156 -9 50 16 122 59 175 32 39 39 43 53 32 15 -11 15 -11 0 7 -26 31 -56 109 -71 183 -11 53 -18 69 -38 79 -33 17 -67 16 -107 -4z" transform="translate(0.000000,0.000000) scale(1,1)" stroke="none" fill="#2E3637"/>
</g>
<g id="pattern2" transform="matrix(0.618,0,0,0.618,2346,689)">
<path d="M366 646 c-44 -53 -69 -125 -60 -175 6 -37 39 -99 74 -140 l20 -23 62 64 c44 46 84 75 133 98 l69 33 -34 12 c-57 20 -101 51 -166 116 l-61 61 -37 -46z" transform="translate(3108,0.000000) scale(-1,1)" stroke="none" fill="#988B81"/>
<path d="M202 943 c-71 -35 -80 -123 -23 -207 23 -33 28 -47 19 -50 -7 -3 -30 -10 -50 -16 -46 -14 -105 -80 -114 -127 -11 -60 1 -122 33 -161 24 -31 83 -70 125 -84 13 -5 -7 -53 -32 -78 -14 -14 -20 -33 -20 -66 0 -60 36 -98 102 -108 57 -9 88 5 88 38 0 39 40 158 67 200 14 21 20 35 14 31 -22 -13 -94 95 -105 156 -9 50 16 122 59 175 32 39 39 43 53 32 15 -11 15 -11 0 7 -26 31 -56 109 -71 183 -11 53 -18 69 -38 79 -33 17 -67 16 -107 -4z" transform="translate(3108,0.000000) scale(-1,1)" stroke="none" fill="#2E3637"/>
</g>
<g id="pattern3" transform="matrix(0.618,0,0,0.618,880,3108)matrix(0.71,0.71,-0.71,0.71,0,0)">
<path d="M366 646 c-44 -53 -69 -125 -60 -175 6 -37 39 -99 74 -140 l20 -23 62 64 c44 46 84 75 133 98 l69 33 -34 12 c-57 20 -101 51 -166 116 l-61 61 -37 -46z" transform="translate(499,-499) scale(1,1)" stroke="none" fill="#988B81"/>
<path d="M202 943 c-71 -35 -80 -123 -23 -207 23 -33 28 -47 19 -50 -7 -3 -30 -10 -50 -16 -46 -14 -105 -80 -114 -127 -11 -60 1 -122 33 -161 24 -31 83 -70 125 -84 13 -5 -7 -53 -32 -78 -14 -14 -20 -33 -20 -66 0 -60 36 -98 102 -108 57 -9 88 5 88 38 0 39 40 158 67 200 14 21 20 35 14 31 -22 -13 -94 95 -105 156 -9 50 16 122 59 175 32 39 39 43 53 32 15 -11 15 -11 0 7 -26 31 -56 109 -71 183 -11 53 -18 69 -38 79 -33 17 -67 16 -107 -4z" transform="translate(499,-499) scale(1,1)" stroke="none" fill="#2E3637"/>
</g>
<g id="pattern4" transform="matrix(1.618,0,0,1.618,1304,1304)matrix(0.87,0.5,-0.5,0.87,0,0)">
<path d="M366 646 c-44 -53 -69 -125 -60 -175 6 -37 39 -99 74 -140 l20 -23 62 64 c44 46 84 75 133 98 l69 33 -34 12 c-57 20 -101 51 -166 116 l-61 61 -37 -46z" transform="translate(499,-499) scale(1,1)" stroke="none" fill="#988B81"/>
<path d="M202 943 c-71 -35 -80 -123 -23 -207 23 -33 28 -47 19 -50 -7 -3 -30 -10 -50 -16 -46 -14 -105 -80 -114 -127 -11 -60 1 -122 33 -161 24 -31 83 -70 125 -84 13 -5 -7 -53 -32 -78 -14 -14 -20 -33 -20 -66 0 -60 36 -98 102 -108 57 -9 88 5 88 38 0 39 40 158 67 200 14 21 20 35 14 31 -22 -13 -94 95 -105 156 -9 50 16 122 59 175 32 39 39 43 53 32 15 -11 15 -11 0 7 -26 31 -56 109 -71 183 -11 53 -18 69 -38 79 -33 17 -67 16 -107 -4z" transform="translate(499,-499) scale(1,1)" stroke="none" fill="#2E3637"/>
</g>
</g>
</g>

<g id="4" transform="translate(4572.0,0)scale(0.25,0.25)">

<g id="pattern">
<rect width="4953" height="4953" fill="#3C5B62"/>
<g id="pattern1" transform="matrix(1,0,0,1,308,308)">
<path d="M366 646 c-44 -53 -69 -125 -60 -175 6 -37 39 -99 74 -140 l20 -23 62 64 c44 46 84 75 133 98 l69 33 -34 12 c-57 20 -101 51 -166 116 l-61 61 -37 -46z" transform="translate(0.000000,0.000000) scale(1,1)" stroke="none" fill="#988B81"/>
<path d="M202 943 c-71 -35 -80 -123 -23 -207 23 -33 28 -47 19 -50 -7 -3 -30 -10 -50 -16 -46 -14 -105 -80 -114 -127 -11 -60 1 -122 33 -161 24 -31 83 -70 125 -84 13 -5 -7 -53 -32 -78 -14 -14 -20 -33 -20 -66 0 -60 36 -98 102 -108 57 -9 88 5 88 38 0 39 40 158 67 200 14 21 20 35 14 31 -22 -13 -94 95 -105 156 -9 50 16 122 59 175 32 39 39 43 53 32 15 -11 15 -11 0 7 -26 31 -56 109 -71 183 -11 53 -18 69 -38 79 -33 17 -67 16 -107 -4z" transform="translate(0.000000,0.000000) scale(1,1)" stroke="none" fill="#2E3637"/>
</g>
<g id="pattern2" transform="matrix(0.618,0,0,0.618,2346,689)">
<path d="M366 646 c-44 -53 -69 -125 -60 -175 6 -37 39 -99 74 -140 l20 -23 62 64 c44 46 84 75 133 98 l69 33 -34 12 c-57 20 -101 51 -166 116 l-61 61 -37 -46z" transform="translate(3108,0.000000) scale(-1,1)" stroke="none" fill="#988B81"/>
<path d="M202 943 c-71 -35 -80 -123 -23 -207 23 -33 28 -47 19 -50 -7 -3 -30 -10 -50 -16 -46 -14 -105 -80 -114 -127 -11 -60 1 -122 33 -161 24 -31 83 -70 125 -84 13 -5 -7 -53 -32 -78 -14 -14 -20 -33 -20 -66 0 -60 36 -98 102 -108 57 -9 88 5 88 38 0 39 40 158 67 200 14 21 20 35 14 31 -22 -13 -94 95 -105 156 -9 50 16 122 59 175 32 39 39 43 53 32 15 -11 15 -11 0 7 -26 31 -56 109 -71 183 -11 53 -18 69 -38 79 -33 17 -67 16 -107 -4z" transform="translate(3108,0.000000) scale(-1,1)" stroke="none" fill="#2E3637"/>
</g>
<g id="pattern3" transform="matrix(0.618,0,0,0.618,880,3108)matrix(0.71,0.71,-0.71,0.71,0,0)">
<path d="M366 646 c-44 -53 -69 -125 -60 -175 6 -37 39 -99 74 -140 l20 -23 62 64 c44 46 84 75 133 98 l69 33 -34 12 c-57 20 -101 51 -166 116 l-61 61 -37 -46z" transform="translate(499,-499) scale(1,1)" stroke="none" fill="#988B81"/>
<path d="M202 943 c-71 -35 -80 -123 -23 -207 23 -33 28 -47 19 -50 -7 -3 -30 -10 -50 -16 -46 -14 -105 -80 -114 -127 -11 -60 1 -122 33 -161 24 -31 83 -70 125 -84 13 -5 -7 -53 -32 -78 -14 -14 -20 -33 -20 -66 0 -60 36 -98 102 -108 57 -9 88 5 88 38 0 39 40 158 67 200 14 21 20 35 14 31 -22 -13 -94 95 -105 156 -9 50 16 122 59 175 32 39 39 43 53 32 15 -11 15 -11 0 7 -26 31 -56 109 -71 183 -11 53 -18 69 -38 79 -33 17 -67 16 -107 -4z" transform="translate(499,-499) scale(1,1)" stroke="none" fill="#2E3637"/>
</g>
<g id="pattern4" transform="matrix(1.618,0,0,1.618,1304,1304)matrix(0.87,0.5,-0.5,0.87,0,0)">
<path d="M366 646 c-44 -53 -69 -125 -60 -175 6 -37 39 -99 74 -140 l20 -23 62 64 c44 46 84 75 133 98 l69 33 -34 12 c-57 20 -101 51 -166 116 l-61 61 -37 -46z" transform="translate(499,-499) scale(1,1)" stroke="none" fill="#988B81"/>
<path d="M202 943 c-71 -35 -80 -123 -23 -207 23 -33 28 -47 19 -50 -7 -3 -30 -10 -50 -16 -46 -14 -105 -80 -114 -127 -11 -60 1 -122 33 -161 24 -31 83 -70 125 -84 13 -5 -7 -53 -32 -78 -14 -14 -20 -33 -20 -66 0 -60 36 -98 102 -108 57 -9 88 5 88 38 0 39 40 158 67 200 14 21 20 35 14 31 -22 -13 -94 95 -105 156 -9 50 16 122 59 175 32 39 39 43 53 32 15 -11 15 -11 0 7 -26 31 -56 109 -71 183 -11 53 -18 69 -38 79 -33 17 -67 16 -107 -4z" transform="translate(499,-499) scale(1,1)" stroke="none" fill="#2E3637"/>
</g>
</g>
</g>

</g>
<g id="row2" transform="translate(0,2286.0)">
<g id="0" transform="translate(0.0,0)scale(0.25,0.25)">

<g id="pattern">
<rect width="4953" height="4953" fill="#3C5B62"/>
<g id="pattern1" transform="matrix(1,0,0,1,308,308)">
<path d="M366 646 c-44 -53 -69 -125 -60 -175 6 -37 39 -99 74 -140 l20 -23 62 64 c44 46 84 75 133 98 l69 33 -34 12 c-57 20 -101 51 -166 116 l-61 61 -37 -46z" transform="translate(0.000000,0.000000) scale(1,1)" stroke="none" fill="#988B81"/>
<path d="M202 943 c-71 -35 -80 -123 -23 -207 23 -33 28 -47 19 -50 -7 -3 -30 -10 -50 -16 -46 -14 -105 -80 -114 -127 -11 -60 1 -122 33 -161 24 -31 83 -70 125 -84 13 -5 -7 -53 -32 -78 -14 -14 -20 -33 -20 -66 0 -60 36 -98 102 -108 57 -9 88 5 88 38 0 39 40 158 67 200 14 21 20 35 14 31 -22 -13 -94 95 -105 156 -9 50 16 122 59 175 32 39 39 43 53 32 15 -11 15 -11 0 7 -26 31 -56 109 -71 183 -11 53 -18 69 -38 79 -33 17 -67 16 -107 -4z" transform="translate(0.000000,0.000000) scale(1,1)" stroke="none" fill="#2E3637"/>
</g>
<g id="pattern2" transform="matrix(0.618,0,0,0.618,2346,689)">
<path d="M366 646 c-44 -53 -69 -125 -60 -175 6 -37 39 -99 74 -140 l20 -23 62 64 c44 46 84 75 133 98 l69 33 -34 12 c-57 20 -101 51 -166 116 l-61 61 -37 -46z" transform="translate(3108,0.000000) scale(-1,1)" stroke="none" fill="#988B81"/>
<path d="M202 943 c-71 -35 -80 -123 -23 -207 23 -33 28 -47 19 -50 -7 -3 -30 -10 -50 -16 -46 -14 -105 -80 -114 -127 -11 -60 1 -122 33 -161 24 -31 83 -70 125 -84 13 -5 -7 -53 -32 -78 -14 -14 -20 -33 -20 -66 0 -60 36 -98 102 -108 57 -9 88 5 88 38 0 39 40 158 67 200 14 21 20 35 14 31 -22 -13 -94 95 -105 156 -9 50 16 122 59 175 32 39 39 43 53 32 15 -11 15 -11 0 7 -26 31 -56 109 -71 183 -11 53 -18 69 -38 79 -33 17 -67 16 -107 -4z" transform="translate(3108,0.000000) scale(-1,1)" stroke="none" fill="#2E3637"/>
</g>
<g id="pattern3" transform="matrix(0.618,0,0,0.618,880,3108)matrix(0.71,0.71,-0.71,0.71,0,0)">
<path d="M366 646 c-44 -53 -69 -125 -60 -175 6 -37 39 -99 74 -140 l20 -23 62 64 c44 46 84 75 133 98 l69 33 -34 12 c-57 20 -101 51 -166 116 l-61 61 -37 -46z" transform="translate(499,-499) scale(1,1)" stroke="none" fill="#988B81"/>
<path d="M202 943 c-71 -35 -80 -123 -23 -207 23 -33 28 -47 19 -50 -7 -3 -30 -10 -50 -16 -46 -14 -105 -80 -114 -127 -11 -60 1 -122 33 -161 24 -31 83 -70 125 -84 13 -5 -7 -53 -32 -78 -14 -14 -20 -33 -20 -66 0 -60 36 -98 102 -108 57 -9 88 5 88 38 0 39 40 158 67 200 14 21 20 35 14 31 -22 -13 -94 95 -105 156 -9 50 16 122 59 175 32 39 39 43 53 32 15 -11 15 -11 0 7 -26 31 -56 109 -71 183 -11 53 -18 69 -38 79 -33 17 -67 16 -107 -4z" transform="translate(499,-499) scale(1,1)" stroke="none" fill="#2E3637"/>
</g>
<g id="pattern4" transform="matrix(1.618,0,0,1.618,1304,1304)matrix(0.87,0.5,-0.5,0.87,0,0)">
<path d="M366 646 c-44 -53 -69 -125 -60 -175 6 -37 39 -99 74 -140 l20 -23 62 64 c44 46 84 75 133 98 l69 33 -34 12 c-57 20 -101 51 -166 116 l-61 61 -37 -46z" transform="translate(499,-499) scale(1,1)" stroke="none" fill="#988B81"/>
<path d="M202 943 c-71 -35 -80 -123 -23 -207 23 -33 28 -47 19 -50 -7 -3 -30 -10 -50 -16 -46 -14 -105 -80 -114 -127 -11 -60 1 -122 33 -161 24 -31 83 -70 125 -84 13 -5 -7 -53 -32 -78 -14 -14 -20 -33 -20 -66 0 -60 36 -98 102 -108 57 -9 88 5 88 38 0 39 40 158 67 200 14 21 20 35 14 31 -22 -13 -94 95 -105 156 -9 50 16 122 59 175 32 39 39 43 53 32 15 -11 15 -11 0 7 -26 31 -56 109 -71 183 -11 53 -18 69 -38 79 -33 17 -67 16 -107 -4z" transform="translate(499,-499) scale(1,1)" stroke="none" fill="#2E3637"/>
</g>
</g>
</g>

<g id="1" transform="translate(1143.0,0)scale(0.25,0.25)">

<g id="pattern">
<rect width="4953" height="4953" fill="#3C5B62"/>
<g id="pattern1" transform="matrix(1,0,0,1,308,308)">
<path d="M366 646 c-44 -53 -69 -125 -60 -175 6 -37 39 -99 74 -140 l20 -23 62 64 c44 46 84 75 133 98 l69 33 -34 12 c-57 20 -101 51 -166 116 l-61 61 -37 -46z" transform="translate(0.000000,0.000000) scale(1,1)" stroke="none" fill="#988B81"/>
<path d="M202 943 c-71 -35 -80 -123 -23 -207 23 -33 28 -47 19 -50 -7 -3 -30 -10 -50 -16 -46 -14 -105 -80 -114 -127 -11 -60 1 -122 33 -161 24 -31 83 -70 125 -84 13 -5 -7 -53 -32 -78 -14 -14 -20 -33 -20 -66 0 -60 36 -98 102 -108 57 -9 88 5 88 38 0 39 40 158 67 200 14 21 20 35 14 31 -22 -13 -94 95 -105 156 -9 50 16 122 59 175 32 39 39 43 53 32 15 -11 15 -11 0 7 -26 31 -56 109 -71 183 -11 53 -18 69 -38 79 -33 17 -67 16 -107 -4z" transform="translate(0.000000,0.000000) scale(1,1)" stroke="none" fill="#2E3637"/>
</g>
<g id="pattern2" transform="matrix(0.618,0,0,0.618,2346,689)">
<path d="M366 646 c-44 -53 -69 -125 -60 -175 6 -37 39 -99 74 -140 l20 -23 62 64 c44 46 84 75 133 98 l69 33 -34 12 c-57 20 -101 51 -166 116 l-61 61 -37 -46z" transform="translate(3108,0.000000) scale(-1,1)" stroke="none" fill="#988B81"/>
<path d="M202 943 c-71 -35 -80 -123 -23 -207 23 -33 28 -47 19 -50 -7 -3 -30 -10 -50 -16 -46 -14 -105 -80 -114 -127 -11 -60 1 -122 33 -161 24 -31 83 -70 125 -84 13 -5 -7 -53 -32 -78 -14 -14 -20 -33 -20 -66 0 -60 36 -98 102 -108 57 -9 88 5 88 38 0 39 40 158 67 200 14 21 20 35 14 31 -22 -13 -94 95 -105 156 -9 50 16 122 59 175 32 39 39 43 53 32 15 -11 15 -11 0 7 -26 31 -56 109 -71 183 -11 53 -18 69 -38 79 -33 17 -67 16 -107 -4z" transform="translate(3108,0.000000) scale(-1,1)" stroke="none" fill="#2E3637"/>
</g>
<g id="pattern3" transform="matrix(0.618,0,0,0.618,880,3108)matrix(0.71,0.71,-0.71,0.71,0,0)">
<path d="M366 646 c-44 -53 -69 -125 -60 -175 6 -37 39 -99 74 -140 l20 -23 62 64 c44 46 84 75 133 98 l69 33 -34 12 c-57 20 -101 51 -166 116 l-61 61 -37 -46z" transform="translate(499,-499) scale(1,1)" stroke="none" fill="#988B81"/>
<path d="M202 943 c-71 -35 -80 -123 -23 -207 23 -33 28 -47 19 -50 -7 -3 -30 -10 -50 -16 -46 -14 -105 -80 -114 -127 -11 -60 1 -122 33 -161 24 -31 83 -70 125 -84 13 -5 -7 -53 -32 -78 -14 -14 -20 -33 -20 -66 0 -60 36 -98 102 -108 57 -9 88 5 88 38 0 39 40 158 67 200 14 21 20 35 14 31 -22 -13 -94 95 -105 156 -9 50 16 122 59 175 32 39 39 43 53 32 15 -11 15 -11 0 7 -26 31 -56 109 -71 183 -11 53 -18 69 -38 79 -33 17 -67 16 -107 -4z" transform="translate(499,-499) scale(1,1)" stroke="none" fill="#2E3637"/>
</g>
<g id="pattern4" transform="matrix(1.618,0,0,1.618,1304,1304)matrix(0.87,0.5,-0.5,0.87,0,0)">
<path d="M366 646 c-44 -53 -69 -125 -60 -175 6 -37 39 -99 74 -140 l20 -23 62 64 c44 46 84 75 133 98 l69 33 -34 12 c-57 20 -101 51 -166 116 l-61 61 -37 -46z" transform="translate(499,-499) scale(1,1)" stroke="none" fill="#988B81"/>
<path d="M202 943 c-71 -35 -80 -123 -23 -207 23 -33 28 -47 19 -50 -7 -3 -30 -10 -50 -16 -46 -14 -105 -80 -114 -127 -11 -60 1 -122 33 -161 24 -31 83 -70 125 -84 13 -5 -7 -53 -32 -78 -14 -14 -20 -33 -20 -66 0 -60 36 -98 102 -108 57 -9 88 5 88 38 0 39 40 158 67 200 14 21 20 35 14 31 -22 -13 -94 95 -105 156 -9 50 16 122 59 175 32 39 39 43 53 32 15 -11 15 -11 0 7 -26 31 -56 109 -71 183 -11 53 -18 69 -38 79 -33 17 -67 16 -107 -4z" transform="translate(499,-499) scale(1,1)" stroke="none" fill="#2E3637"/>
</g>
</g>
</g>

<g id="2" transform="translate(2286.0,0)scale(0.25,0.25)">

<g id="pattern">
<rect width="4953" height="4953" fill="#3C5B62"/>
<g id="pattern1" transform="matrix(1,0,0,1,308,308)">
<path d="M366 646 c-44 -53 -69 -125 -60 -175 6 -37 39 -99 74 -140 l20 -23 62 64 c44 46 84 75 133 98 l69 33 -34 12 c-57 20 -101 51 -166 116 l-61 61 -37 -46z" transform="translate(0.000000,0.000000) scale(1,1)" stroke="none" fill="#988B81"/>
<path d="M202 943 c-71 -35 -80 -123 -23 -207 23 -33 28 -47 19 -50 -7 -3 -30 -10 -50 -16 -46 -14 -105 -80 -114 -127 -11 -60 1 -122 33 -161 24 -31 83 -70 125 -84 13 -5 -7 -53 -32 -78 -14 -14 -20 -33 -20 -66 0 -60 36 -98 102 -108 57 -9 88 5 88 38 0 39 40 158 67 200 14 21 20 35 14 31 -22 -13 -94 95 -105 156 -9 50 16 122 59 175 32 39 39 43 53 32 15 -11 15 -11 0 7 -26 31 -56 109 -71 183 -11 53 -18 69 -38 79 -33 17 -67 16 -107 -4z" transform="translate(0.000000,0.000000) scale(1,1)" stroke="none" fill="#2E3637"/>
</g>
<g id="pattern2" transform="matrix(0.618,0,0,0.618,2346,689)">
<path d="M366 646 c-44 -53 -69 -125 -60 -175 6 -37 39 -99 74 -140 l20 -23 62 64 c44 46 84 75 133 98 l69 33 -34 12 c-57 20 -101 51 -166 116 l-61 61 -37 -46z" transform="translate(3108,0.000000) scale(-1,1)" stroke="none" fill="#988B81"/>
<path d="M202 943 c-71 -35 -80 -123 -23 -207 23 -33 28 -47 19 -50 -7 -3 -30 -10 -50 -16 -46 -14 -105 -80 -114 -127 -11 -60 1 -122 33 -161 24 -31 83 -70 125 -84 13 -5 -7 -53 -32 -78 -14 -14 -20 -33 -20 -66 0 -60 36 -98 102 -108 57 -9 88 5 88 38 0 39 40 158 67 200 14 21 20 35 14 31 -22 -13 -94 95 -105 156 -9 50 16 122 59 175 32 39 39 43 53 32 15 -11 15 -11 0 7 -26 31 -56 109 -71 183 -11 53 -18 69 -38 79 -33 17 -67 16 -107 -4z" transform="translate(3108,0.000000) scale(-1,1)" stroke="none" fill="#2E3637"/>
</g>
<g id="pattern3" transform="matrix(0.618,0,0,0.618,880,3108)matrix(0.71,0.71,-0.71,0.71,0,0)">
<path d="M366 646 c-44 -53 -69 -125 -60 -175 6 -37 39 -99 74 -140 l20 -23 62 64 c44 46 84 75 133 98 l69 33 -34 12 c-57 20 -101 51 -166 116 l-61 61 -37 -46z" transform="translate(499,-499) scale(1,1)" stroke="none" fill="#988B81"/>
<path d="M202 943 c-71 -35 -80 -123 -23 -207 23 -33 28 -47 19 -50 -7 -3 -30 -10 -50 -16 -46 -14 -105 -80 -114 -127 -11 -60 1 -122 33 -161 24 -31 83 -70 125 -84 13 -5 -7 -53 -32 -78 -14 -14 -20 -33 -20 -66 0 -60 36 -98 102 -108 57 -9 88 5 88 38 0 39 40 158 67 200 14 21 20 35 14 31 -22 -13 -94 95 -105 156 -9 50 16 122 59 175 32 39 39 43 53 32 15 -11 15 -11 0 7 -26 31 -56 109 -71 183 -11 53 -18 69 -38 79 -33 17 -67 16 -107 -4z" transform="translate(499,-499) scale(1,1)" stroke="none" fill="#2E3637"/>
</g>
<g id="pattern4" transform="matrix(1.618,0,0,1.618,1304,1304)matrix(0.87,0.5,-0.5,0.87,0,0)">
<path d="M366 646 c-44 -53 -69 -125 -60 -175 6 -37 39 -99 74 -140 l20 -23 62 64 c44 46 84 75 133 98 l69 33 -34 12 c-57 20 -101 51 -166 116 l-61 61 -37 -46z" transform="translate(499,-499) scale(1,1)" stroke="none" fill="#988B81"/>
<path d="M202 943 c-71 -35 -80 -123 -23 -207 23 -33 28 -47 19 -50 -7 -3 -30 -10 -50 -16 -46 -14 -105 -80 -114 -127 -11 -60 1 -122 33 -161 24 -31 83 -70 125 -84 13 -5 -7 -53 -32 -78 -14 -14 -20 -33 -20 -66 0 -60 36 -98 102 -108 57 -9 88 5 88 38 0 39 40 158 67 200 14 21 20 35 14 31 -22 -13 -94 95 -105 156 -9 50 16 122 59 175 32 39 39 43 53 32 15 -11 15 -11 0 7 -26 31 -56 109 -71 183 -11 53 -18 69 -38 79 -33 17 -67 16 -107 -4z" transform="translate(499,-499) scale(1,1)" stroke="none" fill="#2E3637"/>
</g>
</g>
</g>

<g id="3" transform="translate(3429.0,0)scale(0.25,0.25)">

<g id="pattern">
<rect width="4953" height="4953" fill="#3C5B62"/>
<g id="pattern1" transform="matrix(1,0,0,1,308,308)">
<path d="M366 646 c-44 -53 -69 -125 -60 -175 6 -37 39 -99 74 -140 l20 -23 62 64 c44 46 84 75 133 98 l69 33 -34 12 c-57 20 -101 51 -166 116 l-61 61 -37 -46z" transform="translate(0.000000,0.000000) scale(1,1)" stroke="none" fill="#988B81"/>
<path d="M202 943 c-71 -35 -80 -123 -23 -207 23 -33 28 -47 19 -50 -7 -3 -30 -10 -50 -16 -46 -14 -105 -80 -114 -127 -11 -60 1 -122 33 -161 24 -31 83 -70 125 -84 13 -5 -7 -53 -32 -78 -14 -14 -20 -33 -20 -66 0 -60 36 -98 102 -108 57 -9 88 5 88 38 0 39 40 158 67 200 14 21 20 35 14 31 -22 -13 -94 95 -105 156 -9 50 16 122 59 175 32 39 39 43 53 32 15 -11 15 -11 0 7 -26 31 -56 109 -71 183 -11 53 -18 69 -38 79 -33 17 -67 16 -107 -4z" transform="translate(0.000000,0.000000) scale(1,1)" stroke="none" fill="#2E3637"/>
</g>
<g id="pattern2" transform="matrix(0.618,0,0,0.618,2346,689)">
<path d="M366 646 c-44 -53 -69 -125 -60 -175 6 -37 39 -99 74 -140 l20 -23 62 64 c44 46 84 75 133 98 l69 33 -34 12 c-57 20 -101 51 -166 116 l-61 61 -37 -46z" transform="translate(3108,0.000000) scale(-1,1)" stroke="none" fill="#988B81"/>
<path d="M202 943 c-71 -35 -80 -123 -23 -207 23 -33 28 -47 19 -50 -7 -3 -30 -10 -50 -16 -46 -14 -105 -80 -114 -127 -11 -60 1 -122 33 -161 24 -31 83 -70 125 -84 13 -5 -7 -53 -32 -78 -14 -14 -20 -33 -20 -66 0 -60 36 -98 102 -108 57 -9 88 5 88 38 0 39 40 158 67 200 14 21 20 35 14 31 -22 -13 -94 95 -105 156 -9 50 16 122 59 175 32 39 39 43 53 32 15 -11 15 -11 0 7 -26 31 -56 109 -71 183 -11 53 -18 69 -38 79 -33 17 -67 16 -107 -4z" transform="translate(3108,0.000000) scale(-1,1)" stroke="none" fill="#2E3637"/>
</g>
<g id="pattern3" transform="matrix(0.618,0,0,0.618,880,3108)matrix(0.71,0.71,-0.71,0.71,0,0)">
<path d="M366 646 c-44 -53 -69 -125 -60 -175 6 -37 39 -99 74 -140 l20 -23 62 64 c44 46 84 75 133 98 l69 33 -34 12 c-57 20 -101 51 -166 116 l-61 61 -37 -46z" transform="translate(499,-499) scale(1,1)" stroke="none" fill="#988B81"/>
<path d="M202 943 c-71 -35 -80 -123 -23 -207 23 -33 28 -47 19 -50 -7 -3 -30 -10 -50 -16 -46 -14 -105 -80 -114 -127 -11 -60 1 -122 33 -161 24 -31 83 -70 125 -84 13 -5 -7 -53 -32 -78 -14 -14 -20 -33 -20 -66 0 -60 36 -98 102 -108 57 -9 88 5 88 38 0 39 40 158 67 200 14 21 20 35 14 31 -22 -13 -94 95 -105 156 -9 50 16 122 59 175 32 39 39 43 53 32 15 -11 15 -11 0 7 -26 31 -56 109 -71 183 -11 53 -18 69 -38 79 -33 17 -67 16 -107 -4z" transform="translate(499,-499) scale(1,1)" stroke="none" fill="#2E3637"/>
</g>
<g id="pattern4" transform="matrix(1.618,0,0,1.618,1304,1304)matrix(0.87,0.5,-0.5,0.87,0,0)">
<path d="M366 646 c-44 -53 -69 -125 -60 -175 6 -37 39 -99 74 -140 l20 -23 62 64 c44 46 84 75 133 98 l69 33 -34 12 c-57 20 -101 51 -166 116 l-61 61 -37 -46z" transform="translate(499,-499) scale(1,1)" stroke="none" fill="#988B81"/>
<path d="M202 943 c-71 -35 -80 -123 -23 -207 23 -33 28 -47 19 -50 -7 -3 -30 -10 -50 -16 -46 -14 -105 -80 -114 -127 -11 -60 1 -122 33 -161 24 -31 83 -70 125 -84 13 -5 -7 -53 -32 -78 -14 -14 -20 -33 -20 -66 0 -60 36 -98 102 -108 57 -9 88 5 88 38 0 39 40 158 67 200 14 21 20 35 14 31 -22 -13 -94 95 -105 156 -9 50 16 122 59 175 32 39 39 43 53 32 15 -11 15 -11 0 7 -26 31 -56 109 -71 183 -11 53 -18 69 -38 79 -33 17 -67 16 -107 -4z" transform="translate(499,-499) scale(1,1)" stroke="none" fill="#2E3637"/>
</g>
</g>
</g>

<g id="4" transform="translate(4572.0,0)scale(0.25,0.25)">

<g id="pattern">
<rect width="4953" height="4953" fill="#3C5B62"/>
<g id="pattern1" transform="matrix(1,0,0,1,308,308)">
<path d="M366 646 c-44 -53 -69 -125 -60 -175 6 -37 39 -99 74 -140 l20 -23 62 64 c44 46 84 75 133 98 l69 33 -34 12 c-57 20 -101 51 -166 116 l-61 61 -37 -46z" transform="translate(0.000000,0.000000) scale(1,1)" stroke="none" fill="#988B81"/>
<path d="M202 943 c-71 -35 -80 -123 -23 -207 23 -33 28 -47 19 -50 -7 -3 -30 -10 -50 -16 -46 -14 -105 -80 -114 -127 -11 -60 1 -122 33 -161 24 -31 83 -70 125 -84 13 -5 -7 -53 -32 -78 -14 -14 -20 -33 -20 -66 0 -60 36 -98 102 -108 57 -9 88 5 88 38 0 39 40 158 67 200 14 21 20 35 14 31 -22 -13 -94 95 -105 156 -9 50 16 122 59 175 32 39 39 43 53 32 15 -11 15 -11 0 7 -26 31 -56 109 -71 183 -11 53 -18 69 -38 79 -33 17 -67 16 -107 -4z" transform="translate(0.000000,0.000000) scale(1,1)" stroke="none" fill="#2E3637"/>
</g>
<g id="pattern2" transform="matrix(0.618,0,0,0.618,2346,689)">
<path d="M366 646 c-44 -53 -69 -125 -60 -175 6 -37 39 -99 74 -140 l20 -23 62 64 c44 46 84 75 133 98 l69 33 -34 12 c-57 20 -101 51 -166 116 l-61 61 -37 -46z" transform="translate(3108,0.000000) scale(-1,1)" stroke="none" fill="#988B81"/>
<path d="M202 943 c-71 -35 -80 -123 -23 -207 23 -33 28 -47 19 -50 -7 -3 -30 -10 -50 -16 -46 -14 -105 -80 -114 -127 -11 -60 1 -122 33 -161 24 -31 83 -70 125 -84 13 -5 -7 -53 -32 -78 -14 -14 -20 -33 -20 -66 0 -60 36 -98 102 -108 57 -9 88 5 88 38 0 39 40 158 67 200 14 21 20 35 14 31 -22 -13 -94 95 -105 156 -9 50 16 122 59 175 32 39 39 43 53 32 15 -11 15 -11 0 7 -26 31 -56 109 -71 183 -11 53 -18 69 -38 79 -33 17 -67 16 -107 -4z" transform="translate(3108,0.000000) scale(-1,1)" stroke="none" fill="#2E3637"/>
</g>
<g id="pattern3" transform="matrix(0.618,0,0,0.618,880,3108)matrix(0.71,0.71,-0.71,0.71,0,0)">
<path d="M366 646 c-44 -53 -69 -125 -60 -175 6 -37 39 -99 74 -140 l20 -23 62 64 c44 46 84 75 133 98 l69 33 -34 12 c-57 20 -101 51 -166 116 l-61 61 -37 -46z" transform="translate(499,-499) scale(1,1)" stroke="none" fill="#988B81"/>
<path d="M202 943 c-71 -35 -80 -123 -23 -207 23 -33 28 -47 19 -50 -7 -3 -30 -10 -50 -16 -46 -14 -105 -80 -114 -127 -11 -60 1 -122 33 -161 24 -31 83 -70 125 -84 13 -5 -7 -53 -32 -78 -14 -14 -20 -33 -20 -66 0 -60 36 -98 102 -108 57 -9 88 5 88 38 0 39 40 158 67 200 14 21 20 35 14 31 -22 -13 -94 95 -105 156 -9 50 16 122 59 175 32 39 39 43 53 32 15 -11 15 -11 0 7 -26 31 -56 109 -71 183 -11 53 -18 69 -38 79 -33 17 -67 16 -107 -4z" transform="translate(499,-499) scale(1,1)" stroke="none" fill="#2E3637"/>
</g>
<g id="pattern4" transform="matrix(1.618,0,0,1.618,1304,1304)matrix(0.87,0.5,-0.5,0.87,0,0)">
<path d="M366 646 c-44 -53 -69 -125 -60 -175 6 -37 39 -99 74 -140 l20 -23 62 64 c44 46 84 75 133 98 l69 33 -34 12 c-57 20 -101 51 -166 116 l-61 61 -37 -46z" transform="translate(499,-499) scale(1,1)" stroke="none" fill="#988B81"/>
<path d="M202 943 c-71 -35 -80 -123 -23 -207 23 -33 28 -47 19 -50 -7 -3 -30 -10 -50 -16 -46 -14 -105 -80 -114 -127 -11 -60 1 -122 33 -161 24 -31 83 -70 125 -84 13 -5 -7 -53 -32 -78 -14 -14 -20 -33 -20 -66 0 -60 36 -98 102 -108 57 -9 88 5 88 38 0 39 40 158 67 200 14 21 20 35 14 31 -22 -13 -94 95 -105 156 -9 50 16 122 59 175 32 39 39 43 53 32 15 -11 15 -11 0 7 -26 31 -56 109 -71 183 -11 53 -18 69 -38 79 -33 17 -67 16 -107 -4z" transform="translate(499,-499) scale(1,1)" stroke="none" fill="#2E3637"/>
</g>
</g>
</g>

</g>
<g id="row3" transform="translate(0,3429.0)">
<g id="0" transform="translate(0.0,0)scale(0.25,0.25)">

<g id="pattern">
<rect width="4953" height="4953" fill="#3C5B62"/>
<g id="pattern1" transform="matrix(1,0,0,1,308,308)">
<path d="M366 646 c-44 -53 -69 -125 -60 -175 6 -37 39 -99 74 -140 l20 -23 62 64 c44 46 84 75 133 98 l69 33 -34 12 c-57 20 -101 51 -166 116 l-61 61 -37 -46z" transform="translate(0.000000,0.000000) scale(1,1)" stroke="none" fill="#988B81"/>
<path d="M202 943 c-71 -35 -80 -123 -23 -207 23 -33 28 -47 19 -50 -7 -3 -30 -10 -50 -16 -46 -14 -105 -80 -114 -127 -11 -60 1 -122 33 -161 24 -31 83 -70 125 -84 13 -5 -7 -53 -32 -78 -14 -14 -20 -33 -20 -66 0 -60 36 -98 102 -108 57 -9 88 5 88 38 0 39 40 158 67 200 14 21 20 35 14 31 -22 -13 -94 95 -105 156 -9 50 16 122 59 175 32 39 39 43 53 32 15 -11 15 -11 0 7 -26 31 -56 109 -71 183 -11 53 -18 69 -38 79 -33 17 -67 16 -107 -4z" transform="translate(0.000000,0.000000) scale(1,1)" stroke="none" fill="#2E3637"/>
</g>
<g id="pattern2" transform="matrix(0.618,0,0,0.618,2346,689)">
<path d="M366 646 c-44 -53 -69 -125 -60 -175 6 -37 39 -99 74 -140 l20 -23 62 64 c44 46 84 75 133 98 l69 33 -34 12 c-57 20 -101 51 -166 116 l-61 61 -37 -46z" transform="translate(3108,0.000000) scale(-1,1)" stroke="none" fill="#988B81"/>
<path d="M202 943 c-71 -35 -80 -123 -23 -207 23 -33 28 -47 19 -50 -7 -3 -30 -10 -50 -16 -46 -14 -105 -80 -114 -127 -11 -60 1 -122 33 -161 24 -31 83 -70 125 -84 13 -5 -7 -53 -32 -78 -14 -14 -20 -33 -20 -66 0 -60 36 -98 102 -108 57 -9 88 5 88 38 0 39 40 158 67 200 14 21 20 35 14 31 -22 -13 -94 95 -105 156 -9 50 16 122 59 175 32 39 39 43 53 32 15 -11 15 -11 0 7 -26 31 -56 109 -71 183 -11 53 -18 69 -38 79 -33 17 -67 16 -107 -4z" transform="translate(3108,0.000000) scale(-1,1)" stroke="none" fill="#2E3637"/>
</g>
<g id="pattern3" transform="matrix(0.618,0,0,0.618,880,3108)matrix(0.71,0.71,-0.71,0.71,0,0)">
<path d="M366 646 c-44 -53 -69 -125 -60 -175 6 -37 39 -99 74 -140 l20 -23 62 64 c44 46 84 75 133 98 l69 33 -34 12 c-57 20 -101 51 -166 116 l-61 61 -37 -46z" transform="translate(499,-499) scale(1,1)" stroke="none" fill="#988B81"/>
<path d="M202 943 c-71 -35 -80 -123 -23 -207 23 -33 28 -47 19 -50 -7 -3 -30 -10 -50 -16 -46 -14 -105 -80 -114 -127 -11 -60 1 -122 33 -161 24 -31 83 -70 125 -84 13 -5 -7 -53 -32 -78 -14 -14 -20 -33 -20 -66 0 -60 36 -98 102 -108 57 -9 88 5 88 38 0 39 40 158 67 200 14 21 20 35 14 31 -22 -13 -94 95 -105 156 -9 50 16 122 59 175 32 39 39 43 53 32 15 -11 15 -11 0 7 -26 31 -56 109 -71 183 -11 53 -18 69 -38 79 -33 17 -67 16 -107 -4z" transform="translate(499,-499) scale(1,1)" stroke="none" fill="#2E3637"/>
</g>
<g id="pattern4" transform="matrix(1.618,0,0,1.618,1304,1304)matrix(0.87,0.5,-0.5,0.87,0,0)">
<path d="M366 646 c-44 -53 -69 -125 -60 -175 6 -37 39 -99 74 -140 l20 -23 62 64 c44 46 84 75 133 98 l69 33 -34 12 c-57 20 -101 51 -166 116 l-61 61 -37 -46z" transform="translate(499,-499) scale(1,1)" stroke="none" fill="#988B81"/>
<path d="M202 943 c-71 -35 -80 -123 -23 -207 23 -33 28 -47 19 -50 -7 -3 -30 -10 -50 -16 -46 -14 -105 -80 -114 -127 -11 -60 1 -122 33 -161 24 -31 83 -70 125 -84 13 -5 -7 -53 -32 -78 -14 -14 -20 -33 -20 -66 0 -60 36 -98 102 -108 57 -9 88 5 88 38 0 39 40 158 67 200 14 21 20 35 14 31 -22 -13 -94 95 -105 156 -9 50 16 122 59 175 32 39 39 43 53 32 15 -11 15 -11 0 7 -26 31 -56 109 -71 183 -11 53 -18 69 -38 79 -33 17 -67 16 -107 -4z" transform="translate(499,-499) scale(1,1)" stroke="none" fill="#2E3637"/>
</g>
</g>
</g>

<g id="1" transform="translate(1143.0,0)scale(0.25,0.25)">

<g id="pattern">
<rect width="4953" height="4953" fill="#3C5B62"/>
<g id="pattern1" transform="matrix(1,0,0,1,308,308)">
<path d="M366 646 c-44 -53 -69 -125 -60 -175 6 -37 39 -99 74 -140 l20 -23 62 64 c44 46 84 75 133 98 l69 33 -34 12 c-57 20 -101 51 -166 116 l-61 61 -37 -46z" transform="translate(0.000000,0.000000) scale(1,1)" stroke="none" fill="#988B81"/>
<path d="M202 943 c-71 -35 -80 -123 -23 -207 23 -33 28 -47 19 -50 -7 -3 -30 -10 -50 -16 -46 -14 -105 -80 -114 -127 -11 -60 1 -122 33 -161 24 -31 83 -70 125 -84 13 -5 -7 -53 -32 -78 -14 -14 -20 -33 -20 -66 0 -60 36 -98 102 -108 57 -9 88 5 88 38 0 39 40 158 67 200 14 21 20 35 14 31 -22 -13 -94 95 -105 156 -9 50 16 122 59 175 32 39 39 43 53 32 15 -11 15 -11 0 7 -26 31 -56 109 -71 183 -11 53 -18 69 -38 79 -33 17 -67 16 -107 -4z" transform="translate(0.000000,0.000000) scale(1,1)" stroke="none" fill="#2E3637"/>
</g>
<g id="pattern2" transform="matrix(0.618,0,0,0.618,2346,689)">
<path d="M366 646 c-44 -53 -69 -125 -60 -175 6 -37 39 -99 74 -140 l20 -23 62 64 c44 46 84 75 133 98 l69 33 -34 12 c-57 20 -101 51 -166 116 l-61 61 -37 -46z" transform="translate(3108,0.000000) scale(-1,1)" stroke="none" fill="#988B81"/>
<path d="M202 943 c-71 -35 -80 -123 -23 -207 23 -33 28 -47 19 -50 -7 -3 -30 -10 -50 -16 -46 -14 -105 -80 -114 -127 -11 -60 1 -122 33 -161 24 -31 83 -70 125 -84 13 -5 -7 -53 -32 -78 -14 -14 -20 -33 -20 -66 0 -60 36 -98 102 -108 57 -9 88 5 88 38 0 39 40 158 67 200 14 21 20 35 14 31 -22 -13 -94 95 -105 156 -9 50 16 122 59 175 32 39 39 43 53 32 15 -11 15 -11 0 7 -26 31 -56 109 -71 183 -11 53 -18 69 -38 79 -33 17 -67 16 -107 -4z" transform="translate(3108,0.000000) scale(-1,1)" stroke="none" fill="#2E3637"/>
</g>
<g id="pattern3" transform="matrix(0.618,0,0,0.618,880,3108)matrix(0.71,0.71,-0.71,0.71,0,0)">
<path d="M366 646 c-44 -53 -69 -125 -60 -175 6 -37 39 -99 74 -140 l20 -23 62 64 c44 46 84 75 133 98 l69 33 -34 12 c-57 20 -101 51 -166 116 l-61 61 -37 -46z" transform="translate(499,-499) scale(1,1)" stroke="none" fill="#988B81"/>
<path d="M202 943 c-71 -35 -80 -123 -23 -207 23 -33 28 -47 19 -50 -7 -3 -30 -10 -50 -16 -46 -14 -105 -80 -114 -127 -11 -60 1 -122 33 -161 24 -31 83 -70 125 -84 13 -5 -7 -53 -32 -78 -14 -14 -20 -33 -20 -66 0 -60 36 -98 102 -108 57 -9 88 5 88 38 0 39 40 158 67 200 14 21 20 35 14 31 -22 -13 -94 95 -105 156 -9 50 16 122 59 175 32 39 39 43 53 32 15 -11 15 -11 0 7 -26 31 -56 109 -71 183 -11 53 -18 69 -38 79 -33 17 -67 16 -107 -4z" transform="translate(499,-499) scale(1,1)" stroke="none" fill="#2E3637"/>
</g>
<g id="pattern4" transform="matrix(1.618,0,0,1.618,1304,1304)matrix(0.87,0.5,-0.5,0.87,0,0)">
<path d="M366 646 c-44 -53 -69 -125 -60 -175 6 -37 39 -99 74 -140 l20 -23 62 64 c44 46 84 75 133 98 l69 33 -34 12 c-57 20 -101 51 -166 116 l-61 61 -37 -46z" transform="translate(499,-499) scale(1,1)" stroke="none" fill="#988B81"/>
<path d="M202 943 c-71 -35 -80 -123 -23 -207 23 -33 28 -47 19 -50 -7 -3 -30 -10 -50 -16 -46 -14 -105 -80 -114 -127 -11 -60 1 -122 33 -161 24 -31 83 -70 125 -84 13 -5 -7 -53 -32 -78 -14 -14 -20 -33 -20 -66 0 -60 36 -98 102 -108 57 -9 88 5 88 38 0 39 40 158 67 200 14 21 20 35 14 31 -22 -13 -94 95 -105 156 -9 50 16 122 59 175 32 39 39 43 53 32 15 -11 15 -11 0 7 -26 31 -56 109 -71 183 -11 53 -18 69 -38 79 -33 17 -67 16 -107 -4z" transform="translate(499,-499) scale(1,1)" stroke="none" fill="#2E3637"/>
</g>
</g>
</g>

<g id="2" transform="translate(2286.0,0)scale(0.25,0.25)">

<g id="pattern">
<rect width="4953" height="4953" fill="#3C5B62"/>
<g id="pattern1" transform="matrix(1,0,0,1,308,308)">
<path d="M366 646 c-44 -53 -69 -125 -60 -175 6 -37 39 -99 74 -140 l20 -23 62 64 c44 46 84 75 133 98 l69 33 -34 12 c-57 20 -101 51 -166 116 l-61 61 -37 -46z" transform="translate(0.000000,0.000000) scale(1,1)" stroke="none" fill="#988B81"/>
<path d="M202 943 c-71 -35 -80 -123 -23 -207 23 -33 28 -47 19 -50 -7 -3 -30 -10 -50 -16 -46 -14 -105 -80 -114 -127 -11 -60 1 -122 33 -161 24 -31 83 -70 125 -84 13 -5 -7 -53 -32 -78 -14 -14 -20 -33 -20 -66 0 -60 36 -98 102 -108 57 -9 88 5 88 38 0 39 40 158 67 200 14 21 20 35 14 31 -22 -13 -94 95 -105 156 -9 50 16 122 59 175 32 39 39 43 53 32 15 -11 15 -11 0 7 -26 31 -56 109 -71 183 -11 53 -18 69 -38 79 -33 17 -67 16 -107 -4z" transform="translate(0.000000,0.000000) scale(1,1)" stroke="none" fill="#2E3637"/>
</g>
<g id="pattern2" transform="matrix(0.618,0,0,0.618,2346,689)">
<path d="M366 646 c-44 -53 -69 -125 -60 -175 6 -37 39 -99 74 -140 l20 -23 62 64 c44 46 84 75 133 98 l69 33 -34 12 c-57 20 -101 51 -166 116 l-61 61 -37 -46z" transform="translate(3108,0.000000) scale(-1,1)" stroke="none" fill="#988B81"/>
<path d="M202 943 c-71 -35 -80 -123 -23 -207 23 -33 28 -47 19 -50 -7 -3 -30 -10 -50 -16 -46 -14 -105 -80 -114 -127 -11 -60 1 -122 33 -161 24 -31 83 -70 125 -84 13 -5 -7 -53 -32 -78 -14 -14 -20 -33 -20 -66 0 -60 36 -98 102 -108 57 -9 88 5 88 38 0 39 40 158 67 200 14 21 20 35 14 31 -22 -13 -94 95 -105 156 -9 50 16 122 59 175 32 39 39 43 53 32 15 -11 15 -11 0 7 -26 31 -56 109 -71 183 -11 53 -18 69 -38 79 -33 17 -67 16 -107 -4z" transform="translate(3108,0.000000) scale(-1,1)" stroke="none" fill="#2E3637"/>
</g>
<g id="pattern3" transform="matrix(0.618,0,0,0.618,880,3108)matrix(0.71,0.71,-0.71,0.71,0,0)">
<path d="M366 646 c-44 -53 -69 -125 -60 -175 6 -37 39 -99 74 -140 l20 -23 62 64 c44 46 84 75 133 98 l69 33 -34 12 c-57 20 -101 51 -166 116 l-61 61 -37 -46z" transform="translate(499,-499) scale(1,1)" stroke="none" fill="#988B81"/>
<path d="M202 943 c-71 -35 -80 -123 -23 -207 23 -33 28 -47 19 -50 -7 -3 -30 -10 -50 -16 -46 -14 -105 -80 -114 -127 -11 -60 1 -122 33 -161 24 -31 83 -70 125 -84 13 -5 -7 -53 -32 -78 -14 -14 -20 -33 -20 -66 0 -60 36 -98 102 -108 57 -9 88 5 88 38 0 39 40 158 67 200 14 21 20 35 14 31 -22 -13 -94 95 -105 156 -9 50 16 122 59 175 32 39 39 43 53 32 15 -11 15 -11 0 7 -26 31 -56 109 -71 183 -11 53 -18 69 -38 79 -33 17 -67 16 -107 -4z" transform="translate(499,-499) scale(1,1)" stroke="none" fill="#2E3637"/>
</g>
<g id="pattern4" transform="matrix(1.618,0,0,1.618,1304,1304)matrix(0.87,0.5,-0.5,0.87,0,0)">
<path d="M366 646 c-44 -53 -69 -125 -60 -175 6 -37 39 -99 74 -140 l20 -23 62 64 c44 46 84 75 133 98 l69 33 -34 12 c-57 20 -101 51 -166 116 l-61 61 -37 -46z" transform="translate(499,-499) scale(1,1)" stroke="none" fill="#988B81"/>
<path d="M202 943 c-71 -35 -80 -123 -23 -207 23 -33 28 -47 19 -50 -7 -3 -30 -10 -50 -16 -46 -14 -105 -80 -114 -127 -11 -60 1 -122 33 -161 24 -31 83 -70 125 -84 13 -5 -7 -53 -32 -78 -14 -14 -20 -33 -20 -66 0 -60 36 -98 102 -108 57 -9 88 5 88 38 0 39 40 158 67 200 14 21 20 35 14 31 -22 -13 -94 95 -105 156 -9 50 16 122 59 175 32 39 39 43 53 32 15 -11 15 -11 0 7 -26 31 -56 109 -71 183 -11 53 -18 69 -38 79 -33 17 -67 16 -107 -4z" transform="translate(499,-499) scale(1,1)" stroke="none" fill="#2E3637"/>
</g>
</g>
</g>

<g id="3" transform="translate(3429.0,0)scale(0.25,0.25)">

<g id="pattern">
<rect width="4953" height="4953" fill="#3C5B62"/>
<g id="pattern1" transform="matrix(1,0,0,1,308,308)">
<path d="M366 646 c-44 -53 -69 -125 -60 -175 6 -37 39 -99 74 -140 l20 -23 62 64 c44 46 84 75 133 98 l69 33 -34 12 c-57 20 -101 51 -166 116 l-61 61 -37 -46z" transform="translate(0.000000,0.000000) scale(1,1)" stroke="none" fill="#988B81"/>
<path d="M202 943 c-71 -35 -80 -123 -23 -207 23 -33 28 -47 19 -50 -7 -3 -30 -10 -50 -16 -46 -14 -105 -80 -114 -127 -11 -60 1 -122 33 -161 24 -31 83 -70 125 -84 13 -5 -7 -53 -32 -78 -14 -14 -20 -33 -20 -66 0 -60 36 -98 102 -108 57 -9 88 5 88 38 0 39 40 158 67 200 14 21 20 35 14 31 -22 -13 -94 95 -105 156 -9 50 16 122 59 175 32 39 39 43 53 32 15 -11 15 -11 0 7 -26 31 -56 109 -71 183 -11 53 -18 69 -38 79 -33 17 -67 16 -107 -4z" transform="translate(0.000000,0.000000) scale(1,1)" stroke="none" fill="#2E3637"/>
</g>
<g id="pattern2" transform="matrix(0.618,0,0,0.618,2346,689)">
<path d="M366 646 c-44 -53 -69 -125 -60 -175 6 -37 39 -99 74 -140 l20 -23 62 64 c44 46 84 75 133 98 l69 33 -34 12 c-57 20 -101 51 -166 116 l-61 61 -37 -46z" transform="translate(3108,0.000000) scale(-1,1)" stroke="none" fill="#988B81"/>
<path d="M202 943 c-71 -35 -80 -123 -23 -207 23 -33 28 -47 19 -50 -7 -3 -30 -10 -50 -16 -46 -14 -105 -80 -114 -127 -11 -60 1 -122 33 -161 24 -31 83 -70 125 -84 13 -5 -7 -53 -32 -78 -14 -14 -20 -33 -20 -66 0 -60 36 -98 102 -108 57 -9 88 5 88 38 0 39 40 158 67 200 14 21 20 35 14 31 -22 -13 -94 95 -105 156 -9 50 16 122 59 175 32 39 39 43 53 32 15 -11 15 -11 0 7 -26 31 -56 109 -71 183 -11 53 -18 69 -38 79 -33 17 -67 16 -107 -4z" transform="translate(3108,0.000000) scale(-1,1)" stroke="none" fill="#2E3637"/>
</g>
<g id="pattern3" transform="matrix(0.618,0,0,0.618,880,3108)matrix(0.71,0.71,-0.71,0.71,0,0)">
<path d="M366 646 c-44 -53 -69 -125 -60 -175 6 -37 39 -99 74 -140 l20 -23 62 64 c44 46 84 75 133 98 l69 33 -34 12 c-57 20 -101 51 -166 116 l-61 61 -37 -46z" transform="translate(499,-499) scale(1,1)" stroke="none" fill="#988B81"/>
<path d="M202 943 c-71 -35 -80 -123 -23 -207 23 -33 28 -47 19 -50 -7 -3 -30 -10 -50 -16 -46 -14 -105 -80 -114 -127 -11 -60 1 -122 33 -161 24 -31 83 -70 125 -84 13 -5 -7 -53 -32 -78 -14 -14 -20 -33 -20 -66 0 -60 36 -98 102 -108 57 -9 88 5 88 38 0 39 40 158 67 200 14 21 20 35 14 31 -22 -13 -94 95 -105 156 -9 50 16 122 59 175 32 39 39 43 53 32 15 -11 15 -11 0 7 -26 31 -56 109 -71 183 -11 53 -18 69 -38 79 -33 17 -67 16 -107 -4z" transform="translate(499,-499) scale(1,1)" stroke="none" fill="#2E3637"/>
</g>
<g id="pattern4" transform="matrix(1.618,0,0,1.618,1304,1304)matrix(0.87,0.5,-0.5,0.87,0,0)">
<path d="M366 646 c-44 -53 -69 -125 -60 -175 6 -37 39 -99 74 -140 l20 -23 62 64 c44 46 84 75 133 98 l69 33 -34 12 c-57 20 -101 51 -166 116 l-61 61 -37 -46z" transform="translate(499,-499) scale(1,1)" stroke="none" fill="#988B81"/>
<path d="M202 943 c-71 -35 -80 -123 -23 -207 23 -33 28 -47 19 -50 -7 -3 -30 -10 -50 -16 -46 -14 -105 -80 -114 -127 -11 -60 1 -122 33 -161 24 -31 83 -70 125 -84 13 -5 -7 -53 -32 -78 -14 -14 -20 -33 -20 -66 0 -60 36 -98 102 -108 57 -9 88 5 88 38 0 39 40 158 67 200 14 21 20 35 14 31 -22 -13 -94 95 -105 156 -9 50 16 122 59 175 32 39 39 43 53 32 15 -11 15 -11 0 7 -26 31 -56 109 -71 183 -11 53 -18 69 -38 79 -33 17 -67 16 -107 -4z" transform="translate(499,-499) scale(1,1)" stroke="none" fill="#2E3637"/>
</g>
</g>
</g>

<g id="4" transform="translate(4572.0,0)scale(0.25,0.25)">

<g id="pattern">
<rect width="4953" height="4953" fill="#3C5B62"/>
<g id="pattern1" transform="matrix(1,0,0,1,308,308)">
<path d="M366 646 c-44 -53 -69 -125 -60 -175 6 -37 39 -99 74 -140 l20 -23 62 64 c44 46 84 75 133 98 l69 33 -34 12 c-57 20 -101 51 -166 116 l-61 61 -37 -46z" transform="translate(0.000000,0.000000) scale(1,1)" stroke="none" fill="#988B81"/>
<path d="M202 943 c-71 -35 -80 -123 -23 -207 23 -33 28 -47 19 -50 -7 -3 -30 -10 -50 -16 -46 -14 -105 -80 -114 -127 -11 -60 1 -122 33 -161 24 -31 83 -70 125 -84 13 -5 -7 -53 -32 -78 -14 -14 -20 -33 -20 -66 0 -60 36 -98 102 -108 57 -9 88 5 88 38 0 39 40 158 67 200 14 21 20 35 14 31 -22 -13 -94 95 -105 156 -9 50 16 122 59 175 32 39 39 43 53 32 15 -11 15 -11 0 7 -26 31 -56 109 -71 183 -11 53 -18 69 -38 79 -33 17 -67 16 -107 -4z" transform="translate(0.000000,0.000000) scale(1,1)" stroke="none" fill="#2E3637"/>
</g>
<g id="pattern2" transform="matrix(0.618,0,0,0.618,2346,689)">
<path d="M366 646 c-44 -53 -69 -125 -60 -175 6 -37 39 -99 74 -140 l20 -23 62 64 c44 46 84 75 133 98 l69 33 -34 12 c-57 20 -101 51 -166 116 l-61 61 -37 -46z" transform="translate(3108,0.000000) scale(-1,1)" stroke="none" fill="#988B81"/>
<path d="M202 943 c-71 -35 -80 -123 -23 -207 23 -33 28 -47 19 -50 -7 -3 -30 -10 -50 -16 -46 -14 -105 -80 -114 -127 -11 -60 1 -122 33 -161 24 -31 83 -70 125 -84 13 -5 -7 -53 -32 -78 -14 -14 -20 -33 -20 -66 0 -60 36 -98 102 -108 57 -9 88 5 88 38 0 39 40 158 67 200 14 21 20 35 14 31 -22 -13 -94 95 -105 156 -9 50 16 122 59 175 32 39 39 43 53 32 15 -11 15 -11 0 7 -26 31 -56 109 -71 183 -11 53 -18 69 -38 79 -33 17 -67 16 -107 -4z" transform="translate(3108,0.000000) scale(-1,1)" stroke="none" fill="#2E3637"/>
</g>
<g id="pattern3" transform="matrix(0.618,0,0,0.618,880,3108)matrix(0.71,0.71,-0.71,0.71,0,0)">
<path d="M366 646 c-44 -53 -69 -125 -60 -175 6 -37 39 -99 74 -140 l20 -23 62 64 c44 46 84 75 133 98 l69 33 -34 12 c-57 20 -101 51 -166 116 l-61 61 -37 -46z" transform="translate(499,-499) scale(1,1)" stroke="none" fill="#988B81"/>
<path d="M202 943 c-71 -35 -80 -123 -23 -207 23 -33 28 -47 19 -50 -7 -3 -30 -10 -50 -16 -46 -14 -105 -80 -114 -127 -11 -60 1 -122 33 -161 24 -31 83 -70 125 -84 13 -5 -7 -53 -32 -78 -14 -14 -20 -33 -20 -66 0 -60 36 -98 102 -108 57 -9 88 5 88 38 0 39 40 158 67 200 14 21 20 35 14 31 -22 -13 -94 95 -105 156 -9 50 16 122 59 175 32 39 39 43 53 32 15 -11 15 -11 0 7 -26 31 -56 109 -71 183 -11 53 -18 69 -38 79 -33 17 -67 16 -107 -4z" transform="translate(499,-499) scale(1,1)" stroke="none" fill="#2E3637"/>
</g>
<g id="pattern4" transform="matrix(1.618,0,0,1.618,1304,1304)matrix(0.87,0.5,-0.5,0.87,0,0)">
<path d="M366 646 c-44 -53 -69 -125 -60 -175 6 -37 39 -99 74 -140 l20 -23 62 64 c44 46 84 75 133 98 l69 33 -34 12 c-57 20 -101 51 -166 116 l-61 61 -37 -46z" transform="translate(499,-499) scale(1,1)" stroke="none" fill="#988B81"/>
<path d="M202 943 c-71 -35 -80 -123 -23 -207 23 -33 28 -47 19 -50 -7 -3 -30 -10 -50 -16 -46 -14 -105 -80 -114 -127 -11 -60 1 -122 33 -161 24 -31 83 -70 125 -84 13 -5 -7 -53 -32 -78 -14 -14 -20 -33 -20 -66 0 -60 36 -98 102 -108 57 -9 88 5 88 38 0 39 40 158 67 200 14 21 20 35 14 31 -22 -13 -94 95 -105 156 -9 50 16 122 59 175 32 39 39 43 53 32 15 -11 15 -11 0 7 -26 31 -56 109 -71 183 -11 53 -18 69 -38 79 -33 17 -67 16 -107 -4z" transform="translate(499,-499) scale(1,1)" stroke="none" fill="#2E3637"/>
</g>
</g>
</g>

</g>
</svg>