<?xml version="1.0" standalone="no"?>
<!DOCTYPE svg PUBLIC "-//W3C//DTD SVG 20010904//EN"
 "http://www.w3.org/TR/2001/REC-SVG-20010904/DTD/svg10.dtd">
<svg version="1.0" xmlns="http://www.w3.org/2000/svg" 
width="116.000000pt" height="112.000000pt" viewBox="0 0 116.000000 112.000000"
preserveAspectRatio = "xMidYMid meet" >
<metadata>
Created by ZoeQU, 2022
</metadata>
<rect width="116.000000" height="112.000000" fill="#BBC3BD"/>
<path d="M407 1023 c-9 -21 -19 -52 -22 -70 -4 -19 -14 -35 -25 -38 -24 -8 -100 -90 -100 -109 0 -8 -14 -19 -30 -25 -62 -21 -86 -47 -123 -138 -20 -48 -39 -113 -43 -143 -6 -55 -6 -55 32 -86 51 -41 145 -54 199 -28 20 9 38 14 42 11 3 -3 20 4 37 17 17 13 41 29 54 35 30 16 29 -3 -3 -31 -31 -26 -33 -58 -5 -58 25 0 25 -1 1 -42 -11 -18 -24 -65 -30 -104 -9 -60 -8 -76 5 -103 33 -66 108 -84 207 -50 131 45 161 63 185 112 22 43 57 71 144 115 15 8 31 27 37 43 8 25 15 29 46 29 36 0 85 35 85 61 0 30 -51 96 -92 118 -23 14 -45 28 -48 32 -10 14 -130 49 -170 49 -22 0 -40 5 -40 10 0 6 11 10 25 10 14 0 25 5 25 11 0 10 -44 9 -102 -3 -9 -2 -14 11 -16 47 -1 28 -9 64 -17 80 -7 17 -17 44 -21 60 -12 54 -46 125 -59 125 -7 0 -19 10 -28 23 -35 53 -66 77 -100 77 -30 0 -36 -5 -50 -37z m95 -153 c26 -65 29 -83 24 -139 -3 -36 -10 -69 -16 -75 -5 -5 -10 -18 -10 -29 0 -35 -25 -11 -67 64 -23 41 -42 77 -42 81 -1 4 15 23 34 44 35 37 47 85 25 99 -16 10 -11 37 6 33 10 -2 29 -34 46 -78z m-167 -266 c28 -31 60 -60 73 -65 12 -5 22 -13 22 -19 0 -19 -89 -51 -158 -57 -78 -6 -100 6 -83 48 5 13 15 44 22 69 14 52 35 80 58 80 9 0 39 -25 66 -56z m535 -129 c27 -14 60 -25 73 -25 14 0 30 -7 37 -15 10 -12 7 -17 -16 -26 -16 -7 -40 -11 -54 -10 -14 1 -46 -8 -72 -20 l-46 -22 -61 53 c-34 29 -61 59 -61 66 0 14 29 20 103 23 33 1 62 -7 97 -24z m-280 -76 c0 -28 48 -107 72 -120 13 -7 18 -19 16 -37 -2 -22 -11 -30 -53 -43 -100 -33 -135 -42 -142 -36 -10 11 -4 98 11 140 17 49 74 130 86 122 6 -3 10 -15 10 -26z" transform="translate(0.000000,112.000000) scale(0.100000,-0.100000)" stroke="none" fill="#82786C"/>

</svg>