<?xml version="1.0" standalone="no"?>
<!DOCTYPE svg PUBLIC "-//W3C//DTD SVG 20010904//EN"
 "http://www.w3.org/TR/2001/REC-SVG-20010904/DTD/svg10.dtd">
<svg version="1.0" xmlns="http://www.w3.org/2000/svg" width="412pt" height="336pt" viewBox="0 0 412 336" preserveAspectRatio = "xMidYMid meet" >
<metadata>
Created by ZoeQu, written in 2022
</metadata>
<rect width="412" height="336" fill="#FA8D1C"/>
<g id="row0" transform="translate(13,0.0)">
<g id="0" transform="translate(0.0,0)scale(1,1)">

<path d="M515 63 c-11 -2 -60 -8 -110 -13 l-90 -9 104 5 c57 2 111 9 120 14 16 10 12 10 -24 3z" transform="translate(0,84) scale(0.1,-0.1)" stroke="none" fill="#5DB4B7"/>

<path d="M83 304 c-26 -20 -33 -33 -33 -59 0 -18 7 -40 15 -49 8 -8 15 -19 15 -24 0 -12 80 -85 86 -79 3 3 -6 14 -20 25 -15 11 -26 25 -26 31 0 20 -32 61 -47 61 -10 0 -13 10 -11 37 3 32 9 41 43 60 22 13 33 23 25 23 -8 0 -30 -12 -47 -26z" transform="translate(0,84) scale(0.1,-0.1)" stroke="none" fill="#5DB4B7"/>

<path d="M845 521 c-14 -6 -4 -9 34 -9 54 -1 91 -20 91 -48 0 -49 -412 -180 -734 -234 -65 -11 -120 -21 -122 -22 -1 -2 7 -14 18 -28 l20 -24 106 18 c205 34 441 101 651 185 29 12 56 19 59 17 16 -17 -61 -146 -87 -146 -6 0 -15 -9 -21 -20 -18 -34 2 -22 48 28 52 56 70 95 76 164 6 64 -12 102 -55 117 -37 13 -56 13 -84 2z" transform="translate(0,84) scale(0.1,-0.1)" stroke="none" fill="#5DB4B7"/>

<path d="M529 776 l-36 -11 13 -37 c7 -22 9 -40 4 -43 -5 -3 -41 -14 -81 -24 -73 -20 -114 -48 -131 -91 -17 -40 -56 -199 -51 -204 2 -2 19 0 36 6 30 9 202 54 407 107 47 12 90 24 97 26 9 3 7 23 -8 77 -26 96 -60 131 -125 134 -51 2 -63 13 -56 50 5 27 -9 30 -69 10z m174 -140 c11 -43 4 -51 -51 -62 -40 -8 -47 -1 -56 48 -6 36 -5 38 26 47 56 16 71 10 81 -33z m-137 -22 c8 -20 13 -42 10 -49 -5 -15 -88 -37 -99 -26 -4 4 -8 24 -10 45 -2 36 1 40 33 52 50 18 49 18 66 -22z m-144 -21 c9 -10 22 -38 29 -62 12 -39 11 -45 -5 -57 -10 -7 -43 -19 -74 -25 -49 -12 -56 -11 -68 5 -13 18 -3 61 26 116 20 38 69 49 92 23z" transform="translate(0,84) scale(0.1,-0.1)" stroke="none" fill="#2A8B8F"/>

<path d="M840 509 c-28 -5 -252 -64 -610 -161 -19 -5 -49 -13 -67 -17 -18 -5 -47 -17 -65 -28 -27 -15 -34 -26 -36 -56 -3 -36 4 -43 39 -39 325 39 869 199 869 256 0 35 -63 57 -130 45z m-740 -284 c0 -8 -2 -15 -4 -15 -2 0 -6 7 -10 15 -3 8 -1 15 4 15 6 0 10 -7 10 -15z" transform="translate(0,84) scale(0.1,-0.1)" stroke="none" fill="#E9E4E1"/>

<path d="M905 358 c-228 -94 -623 -198 -752 -198 -39 0 -42 -14 -10 -41 88 -76 285 -88 469 -28 117 38 236 96 249 120 5 11 14 19 20 19 23 0 88 102 89 138 0 16 -5 15 -65 -10z" transform="translate(0,84) scale(0.1,-0.1)" stroke="none" fill="#E9E4E1"/>

</g>

<g id="1" transform="translate(103.0,0)scale(1,1)">

<path d="M515 63 c-11 -2 -60 -8 -110 -13 l-90 -9 104 5 c57 2 111 9 120 14 16 10 12 10 -24 3z" transform="translate(0,84) scale(0.1,-0.1)" stroke="none" fill="#5DB4B7"/>

<path d="M83 304 c-26 -20 -33 -33 -33 -59 0 -18 7 -40 15 -49 8 -8 15 -19 15 -24 0 -12 80 -85 86 -79 3 3 -6 14 -20 25 -15 11 -26 25 -26 31 0 20 -32 61 -47 61 -10 0 -13 10 -11 37 3 32 9 41 43 60 22 13 33 23 25 23 -8 0 -30 -12 -47 -26z" transform="translate(0,84) scale(0.1,-0.1)" stroke="none" fill="#5DB4B7"/>

<path d="M845 521 c-14 -6 -4 -9 34 -9 54 -1 91 -20 91 -48 0 -49 -412 -180 -734 -234 -65 -11 -120 -21 -122 -22 -1 -2 7 -14 18 -28 l20 -24 106 18 c205 34 441 101 651 185 29 12 56 19 59 17 16 -17 -61 -146 -87 -146 -6 0 -15 -9 -21 -20 -18 -34 2 -22 48 28 52 56 70 95 76 164 6 64 -12 102 -55 117 -37 13 -56 13 -84 2z" transform="translate(0,84) scale(0.1,-0.1)" stroke="none" fill="#5DB4B7"/>

<path d="M529 776 l-36 -11 13 -37 c7 -22 9 -40 4 -43 -5 -3 -41 -14 -81 -24 -73 -20 -114 -48 -131 -91 -17 -40 -56 -199 -51 -204 2 -2 19 0 36 6 30 9 202 54 407 107 47 12 90 24 97 26 9 3 7 23 -8 77 -26 96 -60 131 -125 134 -51 2 -63 13 -56 50 5 27 -9 30 -69 10z m174 -140 c11 -43 4 -51 -51 -62 -40 -8 -47 -1 -56 48 -6 36 -5 38 26 47 56 16 71 10 81 -33z m-137 -22 c8 -20 13 -42 10 -49 -5 -15 -88 -37 -99 -26 -4 4 -8 24 -10 45 -2 36 1 40 33 52 50 18 49 18 66 -22z m-144 -21 c9 -10 22 -38 29 -62 12 -39 11 -45 -5 -57 -10 -7 -43 -19 -74 -25 -49 -12 -56 -11 -68 5 -13 18 -3 61 26 116 20 38 69 49 92 23z" transform="translate(0,84) scale(0.1,-0.1)" stroke="none" fill="#2A8B8F"/>

<path d="M840 509 c-28 -5 -252 -64 -610 -161 -19 -5 -49 -13 -67 -17 -18 -5 -47 -17 -65 -28 -27 -15 -34 -26 -36 -56 -3 -36 4 -43 39 -39 325 39 869 199 869 256 0 35 -63 57 -130 45z m-740 -284 c0 -8 -2 -15 -4 -15 -2 0 -6 7 -10 15 -3 8 -1 15 4 15 6 0 10 -7 10 -15z" transform="translate(0,84) scale(0.1,-0.1)" stroke="none" fill="#E9E4E1"/>

<path d="M905 358 c-228 -94 -623 -198 -752 -198 -39 0 -42 -14 -10 -41 88 -76 285 -88 469 -28 117 38 236 96 249 120 5 11 14 19 20 19 23 0 88 102 89 138 0 16 -5 15 -65 -10z" transform="translate(0,84) scale(0.1,-0.1)" stroke="none" fill="#E9E4E1"/>

</g>

<g id="2" transform="translate(206.0,0)scale(1,1)">

<path d="M515 63 c-11 -2 -60 -8 -110 -13 l-90 -9 104 5 c57 2 111 9 120 14 16 10 12 10 -24 3z" transform="translate(0,84) scale(0.1,-0.1)" stroke="none" fill="#5DB4B7"/>

<path d="M83 304 c-26 -20 -33 -33 -33 -59 0 -18 7 -40 15 -49 8 -8 15 -19 15 -24 0 -12 80 -85 86 -79 3 3 -6 14 -20 25 -15 11 -26 25 -26 31 0 20 -32 61 -47 61 -10 0 -13 10 -11 37 3 32 9 41 43 60 22 13 33 23 25 23 -8 0 -30 -12 -47 -26z" transform="translate(0,84) scale(0.1,-0.1)" stroke="none" fill="#5DB4B7"/>

<path d="M845 521 c-14 -6 -4 -9 34 -9 54 -1 91 -20 91 -48 0 -49 -412 -180 -734 -234 -65 -11 -120 -21 -122 -22 -1 -2 7 -14 18 -28 l20 -24 106 18 c205 34 441 101 651 185 29 12 56 19 59 17 16 -17 -61 -146 -87 -146 -6 0 -15 -9 -21 -20 -18 -34 2 -22 48 28 52 56 70 95 76 164 6 64 -12 102 -55 117 -37 13 -56 13 -84 2z" transform="translate(0,84) scale(0.1,-0.1)" stroke="none" fill="#5DB4B7"/>

<path d="M529 776 l-36 -11 13 -37 c7 -22 9 -40 4 -43 -5 -3 -41 -14 -81 -24 -73 -20 -114 -48 -131 -91 -17 -40 -56 -199 -51 -204 2 -2 19 0 36 6 30 9 202 54 407 107 47 12 90 24 97 26 9 3 7 23 -8 77 -26 96 -60 131 -125 134 -51 2 -63 13 -56 50 5 27 -9 30 -69 10z m174 -140 c11 -43 4 -51 -51 -62 -40 -8 -47 -1 -56 48 -6 36 -5 38 26 47 56 16 71 10 81 -33z m-137 -22 c8 -20 13 -42 10 -49 -5 -15 -88 -37 -99 -26 -4 4 -8 24 -10 45 -2 36 1 40 33 52 50 18 49 18 66 -22z m-144 -21 c9 -10 22 -38 29 -62 12 -39 11 -45 -5 -57 -10 -7 -43 -19 -74 -25 -49 -12 -56 -11 -68 5 -13 18 -3 61 26 116 20 38 69 49 92 23z" transform="translate(0,84) scale(0.1,-0.1)" stroke="none" fill="#2A8B8F"/>

<path d="M840 509 c-28 -5 -252 -64 -610 -161 -19 -5 -49 -13 -67 -17 -18 -5 -47 -17 -65 -28 -27 -15 -34 -26 -36 -56 -3 -36 4 -43 39 -39 325 39 869 199 869 256 0 35 -63 57 -130 45z m-740 -284 c0 -8 -2 -15 -4 -15 -2 0 -6 7 -10 15 -3 8 -1 15 4 15 6 0 10 -7 10 -15z" transform="translate(0,84) scale(0.1,-0.1)" stroke="none" fill="#E9E4E1"/>

<path d="M905 358 c-228 -94 -623 -198 -752 -198 -39 0 -42 -14 -10 -41 88 -76 285 -88 469 -28 117 38 236 96 249 120 5 11 14 19 20 19 23 0 88 102 89 138 0 16 -5 15 -65 -10z" transform="translate(0,84) scale(0.1,-0.1)" stroke="none" fill="#E9E4E1"/>

</g>

<g id="3" transform="translate(309.0,0)scale(1,1)">

<path d="M515 63 c-11 -2 -60 -8 -110 -13 l-90 -9 104 5 c57 2 111 9 120 14 16 10 12 10 -24 3z" transform="translate(0,84) scale(0.1,-0.1)" stroke="none" fill="#5DB4B7"/>

<path d="M83 304 c-26 -20 -33 -33 -33 -59 0 -18 7 -40 15 -49 8 -8 15 -19 15 -24 0 -12 80 -85 86 -79 3 3 -6 14 -20 25 -15 11 -26 25 -26 31 0 20 -32 61 -47 61 -10 0 -13 10 -11 37 3 32 9 41 43 60 22 13 33 23 25 23 -8 0 -30 -12 -47 -26z" transform="translate(0,84) scale(0.1,-0.1)" stroke="none" fill="#5DB4B7"/>

<path d="M845 521 c-14 -6 -4 -9 34 -9 54 -1 91 -20 91 -48 0 -49 -412 -180 -734 -234 -65 -11 -120 -21 -122 -22 -1 -2 7 -14 18 -28 l20 -24 106 18 c205 34 441 101 651 185 29 12 56 19 59 17 16 -17 -61 -146 -87 -146 -6 0 -15 -9 -21 -20 -18 -34 2 -22 48 28 52 56 70 95 76 164 6 64 -12 102 -55 117 -37 13 -56 13 -84 2z" transform="translate(0,84) scale(0.1,-0.1)" stroke="none" fill="#5DB4B7"/>

<path d="M529 776 l-36 -11 13 -37 c7 -22 9 -40 4 -43 -5 -3 -41 -14 -81 -24 -73 -20 -114 -48 -131 -91 -17 -40 -56 -199 -51 -204 2 -2 19 0 36 6 30 9 202 54 407 107 47 12 90 24 97 26 9 3 7 23 -8 77 -26 96 -60 131 -125 134 -51 2 -63 13 -56 50 5 27 -9 30 -69 10z m174 -140 c11 -43 4 -51 -51 -62 -40 -8 -47 -1 -56 48 -6 36 -5 38 26 47 56 16 71 10 81 -33z m-137 -22 c8 -20 13 -42 10 -49 -5 -15 -88 -37 -99 -26 -4 4 -8 24 -10 45 -2 36 1 40 33 52 50 18 49 18 66 -22z m-144 -21 c9 -10 22 -38 29 -62 12 -39 11 -45 -5 -57 -10 -7 -43 -19 -74 -25 -49 -12 -56 -11 -68 5 -13 18 -3 61 26 116 20 38 69 49 92 23z" transform="translate(0,84) scale(0.1,-0.1)" stroke="none" fill="#2A8B8F"/>

<path d="M840 509 c-28 -5 -252 -64 -610 -161 -19 -5 -49 -13 -67 -17 -18 -5 -47 -17 -65 -28 -27 -15 -34 -26 -36 -56 -3 -36 4 -43 39 -39 325 39 869 199 869 256 0 35 -63 57 -130 45z m-740 -284 c0 -8 -2 -15 -4 -15 -2 0 -6 7 -10 15 -3 8 -1 15 4 15 6 0 10 -7 10 -15z" transform="translate(0,84) scale(0.1,-0.1)" stroke="none" fill="#E9E4E1"/>

<path d="M905 358 c-228 -94 -623 -198 -752 -198 -39 0 -42 -14 -10 -41 88 -76 285 -88 469 -28 117 38 236 96 249 120 5 11 14 19 20 19 23 0 88 102 89 138 0 16 -5 15 -65 -10z" transform="translate(0,84) scale(0.1,-0.1)" stroke="none" fill="#E9E4E1"/>

</g>

<g id="4" transform="translate(412.0,0)scale(1,1)">

<path d="M515 63 c-11 -2 -60 -8 -110 -13 l-90 -9 104 5 c57 2 111 9 120 14 16 10 12 10 -24 3z" transform="translate(0,84) scale(0.1,-0.1)" stroke="none" fill="#5DB4B7"/>

<path d="M83 304 c-26 -20 -33 -33 -33 -59 0 -18 7 -40 15 -49 8 -8 15 -19 15 -24 0 -12 80 -85 86 -79 3 3 -6 14 -20 25 -15 11 -26 25 -26 31 0 20 -32 61 -47 61 -10 0 -13 10 -11 37 3 32 9 41 43 60 22 13 33 23 25 23 -8 0 -30 -12 -47 -26z" transform="translate(0,84) scale(0.1,-0.1)" stroke="none" fill="#5DB4B7"/>

<path d="M845 521 c-14 -6 -4 -9 34 -9 54 -1 91 -20 91 -48 0 -49 -412 -180 -734 -234 -65 -11 -120 -21 -122 -22 -1 -2 7 -14 18 -28 l20 -24 106 18 c205 34 441 101 651 185 29 12 56 19 59 17 16 -17 -61 -146 -87 -146 -6 0 -15 -9 -21 -20 -18 -34 2 -22 48 28 52 56 70 95 76 164 6 64 -12 102 -55 117 -37 13 -56 13 -84 2z" transform="translate(0,84) scale(0.1,-0.1)" stroke="none" fill="#5DB4B7"/>

<path d="M529 776 l-36 -11 13 -37 c7 -22 9 -40 4 -43 -5 -3 -41 -14 -81 -24 -73 -20 -114 -48 -131 -91 -17 -40 -56 -199 -51 -204 2 -2 19 0 36 6 30 9 202 54 407 107 47 12 90 24 97 26 9 3 7 23 -8 77 -26 96 -60 131 -125 134 -51 2 -63 13 -56 50 5 27 -9 30 -69 10z m174 -140 c11 -43 4 -51 -51 -62 -40 -8 -47 -1 -56 48 -6 36 -5 38 26 47 56 16 71 10 81 -33z m-137 -22 c8 -20 13 -42 10 -49 -5 -15 -88 -37 -99 -26 -4 4 -8 24 -10 45 -2 36 1 40 33 52 50 18 49 18 66 -22z m-144 -21 c9 -10 22 -38 29 -62 12 -39 11 -45 -5 -57 -10 -7 -43 -19 -74 -25 -49 -12 -56 -11 -68 5 -13 18 -3 61 26 116 20 38 69 49 92 23z" transform="translate(0,84) scale(0.1,-0.1)" stroke="none" fill="#2A8B8F"/>

<path d="M840 509 c-28 -5 -252 -64 -610 -161 -19 -5 -49 -13 -67 -17 -18 -5 -47 -17 -65 -28 -27 -15 -34 -26 -36 -56 -3 -36 4 -43 39 -39 325 39 869 199 869 256 0 35 -63 57 -130 45z m-740 -284 c0 -8 -2 -15 -4 -15 -2 0 -6 7 -10 15 -3 8 -1 15 4 15 6 0 10 -7 10 -15z" transform="translate(0,84) scale(0.1,-0.1)" stroke="none" fill="#E9E4E1"/>

<path d="M905 358 c-228 -94 -623 -198 -752 -198 -39 0 -42 -14 -10 -41 88 -76 285 -88 469 -28 117 38 236 96 249 120 5 11 14 19 20 19 23 0 88 102 89 138 0 16 -5 15 -65 -10z" transform="translate(0,84) scale(0.1,-0.1)" stroke="none" fill="#E9E4E1"/>

</g>

</g>
<g id="row1" transform="translate(13,84.0)">
<g id="0" transform="translate(0.0,0)scale(1,1)">

<path d="M515 63 c-11 -2 -60 -8 -110 -13 l-90 -9 104 5 c57 2 111 9 120 14 16 10 12 10 -24 3z" transform="translate(0,84) scale(0.1,-0.1)" stroke="none" fill="#5DB4B7"/>

<path d="M83 304 c-26 -20 -33 -33 -33 -59 0 -18 7 -40 15 -49 8 -8 15 -19 15 -24 0 -12 80 -85 86 -79 3 3 -6 14 -20 25 -15 11 -26 25 -26 31 0 20 -32 61 -47 61 -10 0 -13 10 -11 37 3 32 9 41 43 60 22 13 33 23 25 23 -8 0 -30 -12 -47 -26z" transform="translate(0,84) scale(0.1,-0.1)" stroke="none" fill="#5DB4B7"/>

<path d="M845 521 c-14 -6 -4 -9 34 -9 54 -1 91 -20 91 -48 0 -49 -412 -180 -734 -234 -65 -11 -120 -21 -122 -22 -1 -2 7 -14 18 -28 l20 -24 106 18 c205 34 441 101 651 185 29 12 56 19 59 17 16 -17 -61 -146 -87 -146 -6 0 -15 -9 -21 -20 -18 -34 2 -22 48 28 52 56 70 95 76 164 6 64 -12 102 -55 117 -37 13 -56 13 -84 2z" transform="translate(0,84) scale(0.1,-0.1)" stroke="none" fill="#5DB4B7"/>

<path d="M529 776 l-36 -11 13 -37 c7 -22 9 -40 4 -43 -5 -3 -41 -14 -81 -24 -73 -20 -114 -48 -131 -91 -17 -40 -56 -199 -51 -204 2 -2 19 0 36 6 30 9 202 54 407 107 47 12 90 24 97 26 9 3 7 23 -8 77 -26 96 -60 131 -125 134 -51 2 -63 13 -56 50 5 27 -9 30 -69 10z m174 -140 c11 -43 4 -51 -51 -62 -40 -8 -47 -1 -56 48 -6 36 -5 38 26 47 56 16 71 10 81 -33z m-137 -22 c8 -20 13 -42 10 -49 -5 -15 -88 -37 -99 -26 -4 4 -8 24 -10 45 -2 36 1 40 33 52 50 18 49 18 66 -22z m-144 -21 c9 -10 22 -38 29 -62 12 -39 11 -45 -5 -57 -10 -7 -43 -19 -74 -25 -49 -12 -56 -11 -68 5 -13 18 -3 61 26 116 20 38 69 49 92 23z" transform="translate(0,84) scale(0.1,-0.1)" stroke="none" fill="#2A8B8F"/>

<path d="M840 509 c-28 -5 -252 -64 -610 -161 -19 -5 -49 -13 -67 -17 -18 -5 -47 -17 -65 -28 -27 -15 -34 -26 -36 -56 -3 -36 4 -43 39 -39 325 39 869 199 869 256 0 35 -63 57 -130 45z m-740 -284 c0 -8 -2 -15 -4 -15 -2 0 -6 7 -10 15 -3 8 -1 15 4 15 6 0 10 -7 10 -15z" transform="translate(0,84) scale(0.1,-0.1)" stroke="none" fill="#E9E4E1"/>

<path d="M905 358 c-228 -94 -623 -198 -752 -198 -39 0 -42 -14 -10 -41 88 -76 285 -88 469 -28 117 38 236 96 249 120 5 11 14 19 20 19 23 0 88 102 89 138 0 16 -5 15 -65 -10z" transform="translate(0,84) scale(0.1,-0.1)" stroke="none" fill="#E9E4E1"/>

</g>

<g id="1" transform="translate(103.0,0)scale(1,1)">

<path d="M515 63 c-11 -2 -60 -8 -110 -13 l-90 -9 104 5 c57 2 111 9 120 14 16 10 12 10 -24 3z" transform="translate(0,84) scale(0.1,-0.1)" stroke="none" fill="#5DB4B7"/>

<path d="M83 304 c-26 -20 -33 -33 -33 -59 0 -18 7 -40 15 -49 8 -8 15 -19 15 -24 0 -12 80 -85 86 -79 3 3 -6 14 -20 25 -15 11 -26 25 -26 31 0 20 -32 61 -47 61 -10 0 -13 10 -11 37 3 32 9 41 43 60 22 13 33 23 25 23 -8 0 -30 -12 -47 -26z" transform="translate(0,84) scale(0.1,-0.1)" stroke="none" fill="#5DB4B7"/>

<path d="M845 521 c-14 -6 -4 -9 34 -9 54 -1 91 -20 91 -48 0 -49 -412 -180 -734 -234 -65 -11 -120 -21 -122 -22 -1 -2 7 -14 18 -28 l20 -24 106 18 c205 34 441 101 651 185 29 12 56 19 59 17 16 -17 -61 -146 -87 -146 -6 0 -15 -9 -21 -20 -18 -34 2 -22 48 28 52 56 70 95 76 164 6 64 -12 102 -55 117 -37 13 -56 13 -84 2z" transform="translate(0,84) scale(0.1,-0.1)" stroke="none" fill="#5DB4B7"/>

<path d="M529 776 l-36 -11 13 -37 c7 -22 9 -40 4 -43 -5 -3 -41 -14 -81 -24 -73 -20 -114 -48 -131 -91 -17 -40 -56 -199 -51 -204 2 -2 19 0 36 6 30 9 202 54 407 107 47 12 90 24 97 26 9 3 7 23 -8 77 -26 96 -60 131 -125 134 -51 2 -63 13 -56 50 5 27 -9 30 -69 10z m174 -140 c11 -43 4 -51 -51 -62 -40 -8 -47 -1 -56 48 -6 36 -5 38 26 47 56 16 71 10 81 -33z m-137 -22 c8 -20 13 -42 10 -49 -5 -15 -88 -37 -99 -26 -4 4 -8 24 -10 45 -2 36 1 40 33 52 50 18 49 18 66 -22z m-144 -21 c9 -10 22 -38 29 -62 12 -39 11 -45 -5 -57 -10 -7 -43 -19 -74 -25 -49 -12 -56 -11 -68 5 -13 18 -3 61 26 116 20 38 69 49 92 23z" transform="translate(0,84) scale(0.1,-0.1)" stroke="none" fill="#2A8B8F"/>

<path d="M840 509 c-28 -5 -252 -64 -610 -161 -19 -5 -49 -13 -67 -17 -18 -5 -47 -17 -65 -28 -27 -15 -34 -26 -36 -56 -3 -36 4 -43 39 -39 325 39 869 199 869 256 0 35 -63 57 -130 45z m-740 -284 c0 -8 -2 -15 -4 -15 -2 0 -6 7 -10 15 -3 8 -1 15 4 15 6 0 10 -7 10 -15z" transform="translate(0,84) scale(0.1,-0.1)" stroke="none" fill="#E9E4E1"/>

<path d="M905 358 c-228 -94 -623 -198 -752 -198 -39 0 -42 -14 -10 -41 88 -76 285 -88 469 -28 117 38 236 96 249 120 5 11 14 19 20 19 23 0 88 102 89 138 0 16 -5 15 -65 -10z" transform="translate(0,84) scale(0.1,-0.1)" stroke="none" fill="#E9E4E1"/>

</g>

<g id="2" transform="translate(206.0,0)scale(1,1)">

<path d="M515 63 c-11 -2 -60 -8 -110 -13 l-90 -9 104 5 c57 2 111 9 120 14 16 10 12 10 -24 3z" transform="translate(0,84) scale(0.1,-0.1)" stroke="none" fill="#5DB4B7"/>

<path d="M83 304 c-26 -20 -33 -33 -33 -59 0 -18 7 -40 15 -49 8 -8 15 -19 15 -24 0 -12 80 -85 86 -79 3 3 -6 14 -20 25 -15 11 -26 25 -26 31 0 20 -32 61 -47 61 -10 0 -13 10 -11 37 3 32 9 41 43 60 22 13 33 23 25 23 -8 0 -30 -12 -47 -26z" transform="translate(0,84) scale(0.1,-0.1)" stroke="none" fill="#5DB4B7"/>

<path d="M845 521 c-14 -6 -4 -9 34 -9 54 -1 91 -20 91 -48 0 -49 -412 -180 -734 -234 -65 -11 -120 -21 -122 -22 -1 -2 7 -14 18 -28 l20 -24 106 18 c205 34 441 101 651 185 29 12 56 19 59 17 16 -17 -61 -146 -87 -146 -6 0 -15 -9 -21 -20 -18 -34 2 -22 48 28 52 56 70 95 76 164 6 64 -12 102 -55 117 -37 13 -56 13 -84 2z" transform="translate(0,84) scale(0.1,-0.1)" stroke="none" fill="#5DB4B7"/>

<path d="M529 776 l-36 -11 13 -37 c7 -22 9 -40 4 -43 -5 -3 -41 -14 -81 -24 -73 -20 -114 -48 -131 -91 -17 -40 -56 -199 -51 -204 2 -2 19 0 36 6 30 9 202 54 407 107 47 12 90 24 97 26 9 3 7 23 -8 77 -26 96 -60 131 -125 134 -51 2 -63 13 -56 50 5 27 -9 30 -69 10z m174 -140 c11 -43 4 -51 -51 -62 -40 -8 -47 -1 -56 48 -6 36 -5 38 26 47 56 16 71 10 81 -33z m-137 -22 c8 -20 13 -42 10 -49 -5 -15 -88 -37 -99 -26 -4 4 -8 24 -10 45 -2 36 1 40 33 52 50 18 49 18 66 -22z m-144 -21 c9 -10 22 -38 29 -62 12 -39 11 -45 -5 -57 -10 -7 -43 -19 -74 -25 -49 -12 -56 -11 -68 5 -13 18 -3 61 26 116 20 38 69 49 92 23z" transform="translate(0,84) scale(0.1,-0.1)" stroke="none" fill="#2A8B8F"/>

<path d="M840 509 c-28 -5 -252 -64 -610 -161 -19 -5 -49 -13 -67 -17 -18 -5 -47 -17 -65 -28 -27 -15 -34 -26 -36 -56 -3 -36 4 -43 39 -39 325 39 869 199 869 256 0 35 -63 57 -130 45z m-740 -284 c0 -8 -2 -15 -4 -15 -2 0 -6 7 -10 15 -3 8 -1 15 4 15 6 0 10 -7 10 -15z" transform="translate(0,84) scale(0.1,-0.1)" stroke="none" fill="#E9E4E1"/>

<path d="M905 358 c-228 -94 -623 -198 -752 -198 -39 0 -42 -14 -10 -41 88 -76 285 -88 469 -28 117 38 236 96 249 120 5 11 14 19 20 19 23 0 88 102 89 138 0 16 -5 15 -65 -10z" transform="translate(0,84) scale(0.1,-0.1)" stroke="none" fill="#E9E4E1"/>

</g>

<g id="3" transform="translate(309.0,0)scale(1,1)">

<path d="M515 63 c-11 -2 -60 -8 -110 -13 l-90 -9 104 5 c57 2 111 9 120 14 16 10 12 10 -24 3z" transform="translate(0,84) scale(0.1,-0.1)" stroke="none" fill="#5DB4B7"/>

<path d="M83 304 c-26 -20 -33 -33 -33 -59 0 -18 7 -40 15 -49 8 -8 15 -19 15 -24 0 -12 80 -85 86 -79 3 3 -6 14 -20 25 -15 11 -26 25 -26 31 0 20 -32 61 -47 61 -10 0 -13 10 -11 37 3 32 9 41 43 60 22 13 33 23 25 23 -8 0 -30 -12 -47 -26z" transform="translate(0,84) scale(0.1,-0.1)" stroke="none" fill="#5DB4B7"/>

<path d="M845 521 c-14 -6 -4 -9 34 -9 54 -1 91 -20 91 -48 0 -49 -412 -180 -734 -234 -65 -11 -120 -21 -122 -22 -1 -2 7 -14 18 -28 l20 -24 106 18 c205 34 441 101 651 185 29 12 56 19 59 17 16 -17 -61 -146 -87 -146 -6 0 -15 -9 -21 -20 -18 -34 2 -22 48 28 52 56 70 95 76 164 6 64 -12 102 -55 117 -37 13 -56 13 -84 2z" transform="translate(0,84) scale(0.1,-0.1)" stroke="none" fill="#5DB4B7"/>

<path d="M529 776 l-36 -11 13 -37 c7 -22 9 -40 4 -43 -5 -3 -41 -14 -81 -24 -73 -20 -114 -48 -131 -91 -17 -40 -56 -199 -51 -204 2 -2 19 0 36 6 30 9 202 54 407 107 47 12 90 24 97 26 9 3 7 23 -8 77 -26 96 -60 131 -125 134 -51 2 -63 13 -56 50 5 27 -9 30 -69 10z m174 -140 c11 -43 4 -51 -51 -62 -40 -8 -47 -1 -56 48 -6 36 -5 38 26 47 56 16 71 10 81 -33z m-137 -22 c8 -20 13 -42 10 -49 -5 -15 -88 -37 -99 -26 -4 4 -8 24 -10 45 -2 36 1 40 33 52 50 18 49 18 66 -22z m-144 -21 c9 -10 22 -38 29 -62 12 -39 11 -45 -5 -57 -10 -7 -43 -19 -74 -25 -49 -12 -56 -11 -68 5 -13 18 -3 61 26 116 20 38 69 49 92 23z" transform="translate(0,84) scale(0.1,-0.1)" stroke="none" fill="#2A8B8F"/>

<path d="M840 509 c-28 -5 -252 -64 -610 -161 -19 -5 -49 -13 -67 -17 -18 -5 -47 -17 -65 -28 -27 -15 -34 -26 -36 -56 -3 -36 4 -43 39 -39 325 39 869 199 869 256 0 35 -63 57 -130 45z m-740 -284 c0 -8 -2 -15 -4 -15 -2 0 -6 7 -10 15 -3 8 -1 15 4 15 6 0 10 -7 10 -15z" transform="translate(0,84) scale(0.1,-0.1)" stroke="none" fill="#E9E4E1"/>

<path d="M905 358 c-228 -94 -623 -198 -752 -198 -39 0 -42 -14 -10 -41 88 -76 285 -88 469 -28 117 38 236 96 249 120 5 11 14 19 20 19 23 0 88 102 89 138 0 16 -5 15 -65 -10z" transform="translate(0,84) scale(0.1,-0.1)" stroke="none" fill="#E9E4E1"/>

</g>

<g id="4" transform="translate(412.0,0)scale(1,1)">

<path d="M515 63 c-11 -2 -60 -8 -110 -13 l-90 -9 104 5 c57 2 111 9 120 14 16 10 12 10 -24 3z" transform="translate(0,84) scale(0.1,-0.1)" stroke="none" fill="#5DB4B7"/>

<path d="M83 304 c-26 -20 -33 -33 -33 -59 0 -18 7 -40 15 -49 8 -8 15 -19 15 -24 0 -12 80 -85 86 -79 3 3 -6 14 -20 25 -15 11 -26 25 -26 31 0 20 -32 61 -47 61 -10 0 -13 10 -11 37 3 32 9 41 43 60 22 13 33 23 25 23 -8 0 -30 -12 -47 -26z" transform="translate(0,84) scale(0.1,-0.1)" stroke="none" fill="#5DB4B7"/>

<path d="M845 521 c-14 -6 -4 -9 34 -9 54 -1 91 -20 91 -48 0 -49 -412 -180 -734 -234 -65 -11 -120 -21 -122 -22 -1 -2 7 -14 18 -28 l20 -24 106 18 c205 34 441 101 651 185 29 12 56 19 59 17 16 -17 -61 -146 -87 -146 -6 0 -15 -9 -21 -20 -18 -34 2 -22 48 28 52 56 70 95 76 164 6 64 -12 102 -55 117 -37 13 -56 13 -84 2z" transform="translate(0,84) scale(0.1,-0.1)" stroke="none" fill="#5DB4B7"/>

<path d="M529 776 l-36 -11 13 -37 c7 -22 9 -40 4 -43 -5 -3 -41 -14 -81 -24 -73 -20 -114 -48 -131 -91 -17 -40 -56 -199 -51 -204 2 -2 19 0 36 6 30 9 202 54 407 107 47 12 90 24 97 26 9 3 7 23 -8 77 -26 96 -60 131 -125 134 -51 2 -63 13 -56 50 5 27 -9 30 -69 10z m174 -140 c11 -43 4 -51 -51 -62 -40 -8 -47 -1 -56 48 -6 36 -5 38 26 47 56 16 71 10 81 -33z m-137 -22 c8 -20 13 -42 10 -49 -5 -15 -88 -37 -99 -26 -4 4 -8 24 -10 45 -2 36 1 40 33 52 50 18 49 18 66 -22z m-144 -21 c9 -10 22 -38 29 -62 12 -39 11 -45 -5 -57 -10 -7 -43 -19 -74 -25 -49 -12 -56 -11 -68 5 -13 18 -3 61 26 116 20 38 69 49 92 23z" transform="translate(0,84) scale(0.1,-0.1)" stroke="none" fill="#2A8B8F"/>

<path d="M840 509 c-28 -5 -252 -64 -610 -161 -19 -5 -49 -13 -67 -17 -18 -5 -47 -17 -65 -28 -27 -15 -34 -26 -36 -56 -3 -36 4 -43 39 -39 325 39 869 199 869 256 0 35 -63 57 -130 45z m-740 -284 c0 -8 -2 -15 -4 -15 -2 0 -6 7 -10 15 -3 8 -1 15 4 15 6 0 10 -7 10 -15z" transform="translate(0,84) scale(0.1,-0.1)" stroke="none" fill="#E9E4E1"/>

<path d="M905 358 c-228 -94 -623 -198 -752 -198 -39 0 -42 -14 -10 -41 88 -76 285 -88 469 -28 117 38 236 96 249 120 5 11 14 19 20 19 23 0 88 102 89 138 0 16 -5 15 -65 -10z" transform="translate(0,84) scale(0.1,-0.1)" stroke="none" fill="#E9E4E1"/>

</g>

</g>
<g id="row2" transform="translate(13,168.0)">
<g id="0" transform="translate(0.0,0)scale(1,1)">

<path d="M515 63 c-11 -2 -60 -8 -110 -13 l-90 -9 104 5 c57 2 111 9 120 14 16 10 12 10 -24 3z" transform="translate(0,84) scale(0.1,-0.1)" stroke="none" fill="#5DB4B7"/>

<path d="M83 304 c-26 -20 -33 -33 -33 -59 0 -18 7 -40 15 -49 8 -8 15 -19 15 -24 0 -12 80 -85 86 -79 3 3 -6 14 -20 25 -15 11 -26 25 -26 31 0 20 -32 61 -47 61 -10 0 -13 10 -11 37 3 32 9 41 43 60 22 13 33 23 25 23 -8 0 -30 -12 -47 -26z" transform="translate(0,84) scale(0.1,-0.1)" stroke="none" fill="#5DB4B7"/>

<path d="M845 521 c-14 -6 -4 -9 34 -9 54 -1 91 -20 91 -48 0 -49 -412 -180 -734 -234 -65 -11 -120 -21 -122 -22 -1 -2 7 -14 18 -28 l20 -24 106 18 c205 34 441 101 651 185 29 12 56 19 59 17 16 -17 -61 -146 -87 -146 -6 0 -15 -9 -21 -20 -18 -34 2 -22 48 28 52 56 70 95 76 164 6 64 -12 102 -55 117 -37 13 -56 13 -84 2z" transform="translate(0,84) scale(0.1,-0.1)" stroke="none" fill="#5DB4B7"/>

<path d="M529 776 l-36 -11 13 -37 c7 -22 9 -40 4 -43 -5 -3 -41 -14 -81 -24 -73 -20 -114 -48 -131 -91 -17 -40 -56 -199 -51 -204 2 -2 19 0 36 6 30 9 202 54 407 107 47 12 90 24 97 26 9 3 7 23 -8 77 -26 96 -60 131 -125 134 -51 2 -63 13 -56 50 5 27 -9 30 -69 10z m174 -140 c11 -43 4 -51 -51 -62 -40 -8 -47 -1 -56 48 -6 36 -5 38 26 47 56 16 71 10 81 -33z m-137 -22 c8 -20 13 -42 10 -49 -5 -15 -88 -37 -99 -26 -4 4 -8 24 -10 45 -2 36 1 40 33 52 50 18 49 18 66 -22z m-144 -21 c9 -10 22 -38 29 -62 12 -39 11 -45 -5 -57 -10 -7 -43 -19 -74 -25 -49 -12 -56 -11 -68 5 -13 18 -3 61 26 116 20 38 69 49 92 23z" transform="translate(0,84) scale(0.1,-0.1)" stroke="none" fill="#2A8B8F"/>

<path d="M840 509 c-28 -5 -252 -64 -610 -161 -19 -5 -49 -13 -67 -17 -18 -5 -47 -17 -65 -28 -27 -15 -34 -26 -36 -56 -3 -36 4 -43 39 -39 325 39 869 199 869 256 0 35 -63 57 -130 45z m-740 -284 c0 -8 -2 -15 -4 -15 -2 0 -6 7 -10 15 -3 8 -1 15 4 15 6 0 10 -7 10 -15z" transform="translate(0,84) scale(0.1,-0.1)" stroke="none" fill="#E9E4E1"/>

<path d="M905 358 c-228 -94 -623 -198 -752 -198 -39 0 -42 -14 -10 -41 88 -76 285 -88 469 -28 117 38 236 96 249 120 5 11 14 19 20 19 23 0 88 102 89 138 0 16 -5 15 -65 -10z" transform="translate(0,84) scale(0.1,-0.1)" stroke="none" fill="#E9E4E1"/>

</g>

<g id="1" transform="translate(103.0,0)scale(1,1)">

<path d="M515 63 c-11 -2 -60 -8 -110 -13 l-90 -9 104 5 c57 2 111 9 120 14 16 10 12 10 -24 3z" transform="translate(0,84) scale(0.1,-0.1)" stroke="none" fill="#5DB4B7"/>

<path d="M83 304 c-26 -20 -33 -33 -33 -59 0 -18 7 -40 15 -49 8 -8 15 -19 15 -24 0 -12 80 -85 86 -79 3 3 -6 14 -20 25 -15 11 -26 25 -26 31 0 20 -32 61 -47 61 -10 0 -13 10 -11 37 3 32 9 41 43 60 22 13 33 23 25 23 -8 0 -30 -12 -47 -26z" transform="translate(0,84) scale(0.1,-0.1)" stroke="none" fill="#5DB4B7"/>

<path d="M845 521 c-14 -6 -4 -9 34 -9 54 -1 91 -20 91 -48 0 -49 -412 -180 -734 -234 -65 -11 -120 -21 -122 -22 -1 -2 7 -14 18 -28 l20 -24 106 18 c205 34 441 101 651 185 29 12 56 19 59 17 16 -17 -61 -146 -87 -146 -6 0 -15 -9 -21 -20 -18 -34 2 -22 48 28 52 56 70 95 76 164 6 64 -12 102 -55 117 -37 13 -56 13 -84 2z" transform="translate(0,84) scale(0.1,-0.1)" stroke="none" fill="#5DB4B7"/>

<path d="M529 776 l-36 -11 13 -37 c7 -22 9 -40 4 -43 -5 -3 -41 -14 -81 -24 -73 -20 -114 -48 -131 -91 -17 -40 -56 -199 -51 -204 2 -2 19 0 36 6 30 9 202 54 407 107 47 12 90 24 97 26 9 3 7 23 -8 77 -26 96 -60 131 -125 134 -51 2 -63 13 -56 50 5 27 -9 30 -69 10z m174 -140 c11 -43 4 -51 -51 -62 -40 -8 -47 -1 -56 48 -6 36 -5 38 26 47 56 16 71 10 81 -33z m-137 -22 c8 -20 13 -42 10 -49 -5 -15 -88 -37 -99 -26 -4 4 -8 24 -10 45 -2 36 1 40 33 52 50 18 49 18 66 -22z m-144 -21 c9 -10 22 -38 29 -62 12 -39 11 -45 -5 -57 -10 -7 -43 -19 -74 -25 -49 -12 -56 -11 -68 5 -13 18 -3 61 26 116 20 38 69 49 92 23z" transform="translate(0,84) scale(0.1,-0.1)" stroke="none" fill="#2A8B8F"/>

<path d="M840 509 c-28 -5 -252 -64 -610 -161 -19 -5 -49 -13 -67 -17 -18 -5 -47 -17 -65 -28 -27 -15 -34 -26 -36 -56 -3 -36 4 -43 39 -39 325 39 869 199 869 256 0 35 -63 57 -130 45z m-740 -284 c0 -8 -2 -15 -4 -15 -2 0 -6 7 -10 15 -3 8 -1 15 4 15 6 0 10 -7 10 -15z" transform="translate(0,84) scale(0.1,-0.1)" stroke="none" fill="#E9E4E1"/>

<path d="M905 358 c-228 -94 -623 -198 -752 -198 -39 0 -42 -14 -10 -41 88 -76 285 -88 469 -28 117 38 236 96 249 120 5 11 14 19 20 19 23 0 88 102 89 138 0 16 -5 15 -65 -10z" transform="translate(0,84) scale(0.1,-0.1)" stroke="none" fill="#E9E4E1"/>

</g>

<g id="2" transform="translate(206.0,0)scale(1,1)">

<path d="M515 63 c-11 -2 -60 -8 -110 -13 l-90 -9 104 5 c57 2 111 9 120 14 16 10 12 10 -24 3z" transform="translate(0,84) scale(0.1,-0.1)" stroke="none" fill="#5DB4B7"/>

<path d="M83 304 c-26 -20 -33 -33 -33 -59 0 -18 7 -40 15 -49 8 -8 15 -19 15 -24 0 -12 80 -85 86 -79 3 3 -6 14 -20 25 -15 11 -26 25 -26 31 0 20 -32 61 -47 61 -10 0 -13 10 -11 37 3 32 9 41 43 60 22 13 33 23 25 23 -8 0 -30 -12 -47 -26z" transform="translate(0,84) scale(0.1,-0.1)" stroke="none" fill="#5DB4B7"/>

<path d="M845 521 c-14 -6 -4 -9 34 -9 54 -1 91 -20 91 -48 0 -49 -412 -180 -734 -234 -65 -11 -120 -21 -122 -22 -1 -2 7 -14 18 -28 l20 -24 106 18 c205 34 441 101 651 185 29 12 56 19 59 17 16 -17 -61 -146 -87 -146 -6 0 -15 -9 -21 -20 -18 -34 2 -22 48 28 52 56 70 95 76 164 6 64 -12 102 -55 117 -37 13 -56 13 -84 2z" transform="translate(0,84) scale(0.1,-0.1)" stroke="none" fill="#5DB4B7"/>

<path d="M529 776 l-36 -11 13 -37 c7 -22 9 -40 4 -43 -5 -3 -41 -14 -81 -24 -73 -20 -114 -48 -131 -91 -17 -40 -56 -199 -51 -204 2 -2 19 0 36 6 30 9 202 54 407 107 47 12 90 24 97 26 9 3 7 23 -8 77 -26 96 -60 131 -125 134 -51 2 -63 13 -56 50 5 27 -9 30 -69 10z m174 -140 c11 -43 4 -51 -51 -62 -40 -8 -47 -1 -56 48 -6 36 -5 38 26 47 56 16 71 10 81 -33z m-137 -22 c8 -20 13 -42 10 -49 -5 -15 -88 -37 -99 -26 -4 4 -8 24 -10 45 -2 36 1 40 33 52 50 18 49 18 66 -22z m-144 -21 c9 -10 22 -38 29 -62 12 -39 11 -45 -5 -57 -10 -7 -43 -19 -74 -25 -49 -12 -56 -11 -68 5 -13 18 -3 61 26 116 20 38 69 49 92 23z" transform="translate(0,84) scale(0.1,-0.1)" stroke="none" fill="#2A8B8F"/>

<path d="M840 509 c-28 -5 -252 -64 -610 -161 -19 -5 -49 -13 -67 -17 -18 -5 -47 -17 -65 -28 -27 -15 -34 -26 -36 -56 -3 -36 4 -43 39 -39 325 39 869 199 869 256 0 35 -63 57 -130 45z m-740 -284 c0 -8 -2 -15 -4 -15 -2 0 -6 7 -10 15 -3 8 -1 15 4 15 6 0 10 -7 10 -15z" transform="translate(0,84) scale(0.1,-0.1)" stroke="none" fill="#E9E4E1"/>

<path d="M905 358 c-228 -94 -623 -198 -752 -198 -39 0 -42 -14 -10 -41 88 -76 285 -88 469 -28 117 38 236 96 249 120 5 11 14 19 20 19 23 0 88 102 89 138 0 16 -5 15 -65 -10z" transform="translate(0,84) scale(0.1,-0.1)" stroke="none" fill="#E9E4E1"/>

</g>

<g id="3" transform="translate(309.0,0)scale(1,1)">

<path d="M515 63 c-11 -2 -60 -8 -110 -13 l-90 -9 104 5 c57 2 111 9 120 14 16 10 12 10 -24 3z" transform="translate(0,84) scale(0.1,-0.1)" stroke="none" fill="#5DB4B7"/>

<path d="M83 304 c-26 -20 -33 -33 -33 -59 0 -18 7 -40 15 -49 8 -8 15 -19 15 -24 0 -12 80 -85 86 -79 3 3 -6 14 -20 25 -15 11 -26 25 -26 31 0 20 -32 61 -47 61 -10 0 -13 10 -11 37 3 32 9 41 43 60 22 13 33 23 25 23 -8 0 -30 -12 -47 -26z" transform="translate(0,84) scale(0.1,-0.1)" stroke="none" fill="#5DB4B7"/>

<path d="M845 521 c-14 -6 -4 -9 34 -9 54 -1 91 -20 91 -48 0 -49 -412 -180 -734 -234 -65 -11 -120 -21 -122 -22 -1 -2 7 -14 18 -28 l20 -24 106 18 c205 34 441 101 651 185 29 12 56 19 59 17 16 -17 -61 -146 -87 -146 -6 0 -15 -9 -21 -20 -18 -34 2 -22 48 28 52 56 70 95 76 164 6 64 -12 102 -55 117 -37 13 -56 13 -84 2z" transform="translate(0,84) scale(0.1,-0.1)" stroke="none" fill="#5DB4B7"/>

<path d="M529 776 l-36 -11 13 -37 c7 -22 9 -40 4 -43 -5 -3 -41 -14 -81 -24 -73 -20 -114 -48 -131 -91 -17 -40 -56 -199 -51 -204 2 -2 19 0 36 6 30 9 202 54 407 107 47 12 90 24 97 26 9 3 7 23 -8 77 -26 96 -60 131 -125 134 -51 2 -63 13 -56 50 5 27 -9 30 -69 10z m174 -140 c11 -43 4 -51 -51 -62 -40 -8 -47 -1 -56 48 -6 36 -5 38 26 47 56 16 71 10 81 -33z m-137 -22 c8 -20 13 -42 10 -49 -5 -15 -88 -37 -99 -26 -4 4 -8 24 -10 45 -2 36 1 40 33 52 50 18 49 18 66 -22z m-144 -21 c9 -10 22 -38 29 -62 12 -39 11 -45 -5 -57 -10 -7 -43 -19 -74 -25 -49 -12 -56 -11 -68 5 -13 18 -3 61 26 116 20 38 69 49 92 23z" transform="translate(0,84) scale(0.1,-0.1)" stroke="none" fill="#2A8B8F"/>

<path d="M840 509 c-28 -5 -252 -64 -610 -161 -19 -5 -49 -13 -67 -17 -18 -5 -47 -17 -65 -28 -27 -15 -34 -26 -36 -56 -3 -36 4 -43 39 -39 325 39 869 199 869 256 0 35 -63 57 -130 45z m-740 -284 c0 -8 -2 -15 -4 -15 -2 0 -6 7 -10 15 -3 8 -1 15 4 15 6 0 10 -7 10 -15z" transform="translate(0,84) scale(0.1,-0.1)" stroke="none" fill="#E9E4E1"/>

<path d="M905 358 c-228 -94 -623 -198 -752 -198 -39 0 -42 -14 -10 -41 88 -76 285 -88 469 -28 117 38 236 96 249 120 5 11 14 19 20 19 23 0 88 102 89 138 0 16 -5 15 -65 -10z" transform="translate(0,84) scale(0.1,-0.1)" stroke="none" fill="#E9E4E1"/>

</g>

<g id="4" transform="translate(412.0,0)scale(1,1)">

<path d="M515 63 c-11 -2 -60 -8 -110 -13 l-90 -9 104 5 c57 2 111 9 120 14 16 10 12 10 -24 3z" transform="translate(0,84) scale(0.1,-0.1)" stroke="none" fill="#5DB4B7"/>

<path d="M83 304 c-26 -20 -33 -33 -33 -59 0 -18 7 -40 15 -49 8 -8 15 -19 15 -24 0 -12 80 -85 86 -79 3 3 -6 14 -20 25 -15 11 -26 25 -26 31 0 20 -32 61 -47 61 -10 0 -13 10 -11 37 3 32 9 41 43 60 22 13 33 23 25 23 -8 0 -30 -12 -47 -26z" transform="translate(0,84) scale(0.1,-0.1)" stroke="none" fill="#5DB4B7"/>

<path d="M845 521 c-14 -6 -4 -9 34 -9 54 -1 91 -20 91 -48 0 -49 -412 -180 -734 -234 -65 -11 -120 -21 -122 -22 -1 -2 7 -14 18 -28 l20 -24 106 18 c205 34 441 101 651 185 29 12 56 19 59 17 16 -17 -61 -146 -87 -146 -6 0 -15 -9 -21 -20 -18 -34 2 -22 48 28 52 56 70 95 76 164 6 64 -12 102 -55 117 -37 13 -56 13 -84 2z" transform="translate(0,84) scale(0.1,-0.1)" stroke="none" fill="#5DB4B7"/>

<path d="M529 776 l-36 -11 13 -37 c7 -22 9 -40 4 -43 -5 -3 -41 -14 -81 -24 -73 -20 -114 -48 -131 -91 -17 -40 -56 -199 -51 -204 2 -2 19 0 36 6 30 9 202 54 407 107 47 12 90 24 97 26 9 3 7 23 -8 77 -26 96 -60 131 -125 134 -51 2 -63 13 -56 50 5 27 -9 30 -69 10z m174 -140 c11 -43 4 -51 -51 -62 -40 -8 -47 -1 -56 48 -6 36 -5 38 26 47 56 16 71 10 81 -33z m-137 -22 c8 -20 13 -42 10 -49 -5 -15 -88 -37 -99 -26 -4 4 -8 24 -10 45 -2 36 1 40 33 52 50 18 49 18 66 -22z m-144 -21 c9 -10 22 -38 29 -62 12 -39 11 -45 -5 -57 -10 -7 -43 -19 -74 -25 -49 -12 -56 -11 -68 5 -13 18 -3 61 26 116 20 38 69 49 92 23z" transform="translate(0,84) scale(0.1,-0.1)" stroke="none" fill="#2A8B8F"/>

<path d="M840 509 c-28 -5 -252 -64 -610 -161 -19 -5 -49 -13 -67 -17 -18 -5 -47 -17 -65 -28 -27 -15 -34 -26 -36 -56 -3 -36 4 -43 39 -39 325 39 869 199 869 256 0 35 -63 57 -130 45z m-740 -284 c0 -8 -2 -15 -4 -15 -2 0 -6 7 -10 15 -3 8 -1 15 4 15 6 0 10 -7 10 -15z" transform="translate(0,84) scale(0.1,-0.1)" stroke="none" fill="#E9E4E1"/>

<path d="M905 358 c-228 -94 -623 -198 -752 -198 -39 0 -42 -14 -10 -41 88 -76 285 -88 469 -28 117 38 236 96 249 120 5 11 14 19 20 19 23 0 88 102 89 138 0 16 -5 15 -65 -10z" transform="translate(0,84) scale(0.1,-0.1)" stroke="none" fill="#E9E4E1"/>

</g>

</g>
<g id="row3" transform="translate(13,252.0)">
<g id="0" transform="translate(0.0,0)scale(1,1)">

<path d="M515 63 c-11 -2 -60 -8 -110 -13 l-90 -9 104 5 c57 2 111 9 120 14 16 10 12 10 -24 3z" transform="translate(0,84) scale(0.1,-0.1)" stroke="none" fill="#5DB4B7"/>

<path d="M83 304 c-26 -20 -33 -33 -33 -59 0 -18 7 -40 15 -49 8 -8 15 -19 15 -24 0 -12 80 -85 86 -79 3 3 -6 14 -20 25 -15 11 -26 25 -26 31 0 20 -32 61 -47 61 -10 0 -13 10 -11 37 3 32 9 41 43 60 22 13 33 23 25 23 -8 0 -30 -12 -47 -26z" transform="translate(0,84) scale(0.1,-0.1)" stroke="none" fill="#5DB4B7"/>

<path d="M845 521 c-14 -6 -4 -9 34 -9 54 -1 91 -20 91 -48 0 -49 -412 -180 -734 -234 -65 -11 -120 -21 -122 -22 -1 -2 7 -14 18 -28 l20 -24 106 18 c205 34 441 101 651 185 29 12 56 19 59 17 16 -17 -61 -146 -87 -146 -6 0 -15 -9 -21 -20 -18 -34 2 -22 48 28 52 56 70 95 76 164 6 64 -12 102 -55 117 -37 13 -56 13 -84 2z" transform="translate(0,84) scale(0.1,-0.1)" stroke="none" fill="#5DB4B7"/>

<path d="M529 776 l-36 -11 13 -37 c7 -22 9 -40 4 -43 -5 -3 -41 -14 -81 -24 -73 -20 -114 -48 -131 -91 -17 -40 -56 -199 -51 -204 2 -2 19 0 36 6 30 9 202 54 407 107 47 12 90 24 97 26 9 3 7 23 -8 77 -26 96 -60 131 -125 134 -51 2 -63 13 -56 50 5 27 -9 30 -69 10z m174 -140 c11 -43 4 -51 -51 -62 -40 -8 -47 -1 -56 48 -6 36 -5 38 26 47 56 16 71 10 81 -33z m-137 -22 c8 -20 13 -42 10 -49 -5 -15 -88 -37 -99 -26 -4 4 -8 24 -10 45 -2 36 1 40 33 52 50 18 49 18 66 -22z m-144 -21 c9 -10 22 -38 29 -62 12 -39 11 -45 -5 -57 -10 -7 -43 -19 -74 -25 -49 -12 -56 -11 -68 5 -13 18 -3 61 26 116 20 38 69 49 92 23z" transform="translate(0,84) scale(0.1,-0.1)" stroke="none" fill="#2A8B8F"/>

<path d="M840 509 c-28 -5 -252 -64 -610 -161 -19 -5 -49 -13 -67 -17 -18 -5 -47 -17 -65 -28 -27 -15 -34 -26 -36 -56 -3 -36 4 -43 39 -39 325 39 869 199 869 256 0 35 -63 57 -130 45z m-740 -284 c0 -8 -2 -15 -4 -15 -2 0 -6 7 -10 15 -3 8 -1 15 4 15 6 0 10 -7 10 -15z" transform="translate(0,84) scale(0.1,-0.1)" stroke="none" fill="#E9E4E1"/>

<path d="M905 358 c-228 -94 -623 -198 -752 -198 -39 0 -42 -14 -10 -41 88 -76 285 -88 469 -28 117 38 236 96 249 120 5 11 14 19 20 19 23 0 88 102 89 138 0 16 -5 15 -65 -10z" transform="translate(0,84) scale(0.1,-0.1)" stroke="none" fill="#E9E4E1"/>

</g>

<g id="1" transform="translate(103.0,0)scale(1,1)">

<path d="M515 63 c-11 -2 -60 -8 -110 -13 l-90 -9 104 5 c57 2 111 9 120 14 16 10 12 10 -24 3z" transform="translate(0,84) scale(0.1,-0.1)" stroke="none" fill="#5DB4B7"/>

<path d="M83 304 c-26 -20 -33 -33 -33 -59 0 -18 7 -40 15 -49 8 -8 15 -19 15 -24 0 -12 80 -85 86 -79 3 3 -6 14 -20 25 -15 11 -26 25 -26 31 0 20 -32 61 -47 61 -10 0 -13 10 -11 37 3 32 9 41 43 60 22 13 33 23 25 23 -8 0 -30 -12 -47 -26z" transform="translate(0,84) scale(0.1,-0.1)" stroke="none" fill="#5DB4B7"/>

<path d="M845 521 c-14 -6 -4 -9 34 -9 54 -1 91 -20 91 -48 0 -49 -412 -180 -734 -234 -65 -11 -120 -21 -122 -22 -1 -2 7 -14 18 -28 l20 -24 106 18 c205 34 441 101 651 185 29 12 56 19 59 17 16 -17 -61 -146 -87 -146 -6 0 -15 -9 -21 -20 -18 -34 2 -22 48 28 52 56 70 95 76 164 6 64 -12 102 -55 117 -37 13 -56 13 -84 2z" transform="translate(0,84) scale(0.1,-0.1)" stroke="none" fill="#5DB4B7"/>

<path d="M529 776 l-36 -11 13 -37 c7 -22 9 -40 4 -43 -5 -3 -41 -14 -81 -24 -73 -20 -114 -48 -131 -91 -17 -40 -56 -199 -51 -204 2 -2 19 0 36 6 30 9 202 54 407 107 47 12 90 24 97 26 9 3 7 23 -8 77 -26 96 -60 131 -125 134 -51 2 -63 13 -56 50 5 27 -9 30 -69 10z m174 -140 c11 -43 4 -51 -51 -62 -40 -8 -47 -1 -56 48 -6 36 -5 38 26 47 56 16 71 10 81 -33z m-137 -22 c8 -20 13 -42 10 -49 -5 -15 -88 -37 -99 -26 -4 4 -8 24 -10 45 -2 36 1 40 33 52 50 18 49 18 66 -22z m-144 -21 c9 -10 22 -38 29 -62 12 -39 11 -45 -5 -57 -10 -7 -43 -19 -74 -25 -49 -12 -56 -11 -68 5 -13 18 -3 61 26 116 20 38 69 49 92 23z" transform="translate(0,84) scale(0.1,-0.1)" stroke="none" fill="#2A8B8F"/>

<path d="M840 509 c-28 -5 -252 -64 -610 -161 -19 -5 -49 -13 -67 -17 -18 -5 -47 -17 -65 -28 -27 -15 -34 -26 -36 -56 -3 -36 4 -43 39 -39 325 39 869 199 869 256 0 35 -63 57 -130 45z m-740 -284 c0 -8 -2 -15 -4 -15 -2 0 -6 7 -10 15 -3 8 -1 15 4 15 6 0 10 -7 10 -15z" transform="translate(0,84) scale(0.1,-0.1)" stroke="none" fill="#E9E4E1"/>

<path d="M905 358 c-228 -94 -623 -198 -752 -198 -39 0 -42 -14 -10 -41 88 -76 285 -88 469 -28 117 38 236 96 249 120 5 11 14 19 20 19 23 0 88 102 89 138 0 16 -5 15 -65 -10z" transform="translate(0,84) scale(0.1,-0.1)" stroke="none" fill="#E9E4E1"/>

</g>

<g id="2" transform="translate(206.0,0)scale(1,1)">

<path d="M515 63 c-11 -2 -60 -8 -110 -13 l-90 -9 104 5 c57 2 111 9 120 14 16 10 12 10 -24 3z" transform="translate(0,84) scale(0.1,-0.1)" stroke="none" fill="#5DB4B7"/>

<path d="M83 304 c-26 -20 -33 -33 -33 -59 0 -18 7 -40 15 -49 8 -8 15 -19 15 -24 0 -12 80 -85 86 -79 3 3 -6 14 -20 25 -15 11 -26 25 -26 31 0 20 -32 61 -47 61 -10 0 -13 10 -11 37 3 32 9 41 43 60 22 13 33 23 25 23 -8 0 -30 -12 -47 -26z" transform="translate(0,84) scale(0.1,-0.1)" stroke="none" fill="#5DB4B7"/>

<path d="M845 521 c-14 -6 -4 -9 34 -9 54 -1 91 -20 91 -48 0 -49 -412 -180 -734 -234 -65 -11 -120 -21 -122 -22 -1 -2 7 -14 18 -28 l20 -24 106 18 c205 34 441 101 651 185 29 12 56 19 59 17 16 -17 -61 -146 -87 -146 -6 0 -15 -9 -21 -20 -18 -34 2 -22 48 28 52 56 70 95 76 164 6 64 -12 102 -55 117 -37 13 -56 13 -84 2z" transform="translate(0,84) scale(0.1,-0.1)" stroke="none" fill="#5DB4B7"/>

<path d="M529 776 l-36 -11 13 -37 c7 -22 9 -40 4 -43 -5 -3 -41 -14 -81 -24 -73 -20 -114 -48 -131 -91 -17 -40 -56 -199 -51 -204 2 -2 19 0 36 6 30 9 202 54 407 107 47 12 90 24 97 26 9 3 7 23 -8 77 -26 96 -60 131 -125 134 -51 2 -63 13 -56 50 5 27 -9 30 -69 10z m174 -140 c11 -43 4 -51 -51 -62 -40 -8 -47 -1 -56 48 -6 36 -5 38 26 47 56 16 71 10 81 -33z m-137 -22 c8 -20 13 -42 10 -49 -5 -15 -88 -37 -99 -26 -4 4 -8 24 -10 45 -2 36 1 40 33 52 50 18 49 18 66 -22z m-144 -21 c9 -10 22 -38 29 -62 12 -39 11 -45 -5 -57 -10 -7 -43 -19 -74 -25 -49 -12 -56 -11 -68 5 -13 18 -3 61 26 116 20 38 69 49 92 23z" transform="translate(0,84) scale(0.1,-0.1)" stroke="none" fill="#2A8B8F"/>

<path d="M840 509 c-28 -5 -252 -64 -610 -161 -19 -5 -49 -13 -67 -17 -18 -5 -47 -17 -65 -28 -27 -15 -34 -26 -36 -56 -3 -36 4 -43 39 -39 325 39 869 199 869 256 0 35 -63 57 -130 45z m-740 -284 c0 -8 -2 -15 -4 -15 -2 0 -6 7 -10 15 -3 8 -1 15 4 15 6 0 10 -7 10 -15z" transform="translate(0,84) scale(0.1,-0.1)" stroke="none" fill="#E9E4E1"/>

<path d="M905 358 c-228 -94 -623 -198 -752 -198 -39 0 -42 -14 -10 -41 88 -76 285 -88 469 -28 117 38 236 96 249 120 5 11 14 19 20 19 23 0 88 102 89 138 0 16 -5 15 -65 -10z" transform="translate(0,84) scale(0.1,-0.1)" stroke="none" fill="#E9E4E1"/>

</g>

<g id="3" transform="translate(309.0,0)scale(1,1)">

<path d="M515 63 c-11 -2 -60 -8 -110 -13 l-90 -9 104 5 c57 2 111 9 120 14 16 10 12 10 -24 3z" transform="translate(0,84) scale(0.1,-0.1)" stroke="none" fill="#5DB4B7"/>

<path d="M83 304 c-26 -20 -33 -33 -33 -59 0 -18 7 -40 15 -49 8 -8 15 -19 15 -24 0 -12 80 -85 86 -79 3 3 -6 14 -20 25 -15 11 -26 25 -26 31 0 20 -32 61 -47 61 -10 0 -13 10 -11 37 3 32 9 41 43 60 22 13 33 23 25 23 -8 0 -30 -12 -47 -26z" transform="translate(0,84) scale(0.1,-0.1)" stroke="none" fill="#5DB4B7"/>

<path d="M845 521 c-14 -6 -4 -9 34 -9 54 -1 91 -20 91 -48 0 -49 -412 -180 -734 -234 -65 -11 -120 -21 -122 -22 -1 -2 7 -14 18 -28 l20 -24 106 18 c205 34 441 101 651 185 29 12 56 19 59 17 16 -17 -61 -146 -87 -146 -6 0 -15 -9 -21 -20 -18 -34 2 -22 48 28 52 56 70 95 76 164 6 64 -12 102 -55 117 -37 13 -56 13 -84 2z" transform="translate(0,84) scale(0.1,-0.1)" stroke="none" fill="#5DB4B7"/>

<path d="M529 776 l-36 -11 13 -37 c7 -22 9 -40 4 -43 -5 -3 -41 -14 -81 -24 -73 -20 -114 -48 -131 -91 -17 -40 -56 -199 -51 -204 2 -2 19 0 36 6 30 9 202 54 407 107 47 12 90 24 97 26 9 3 7 23 -8 77 -26 96 -60 131 -125 134 -51 2 -63 13 -56 50 5 27 -9 30 -69 10z m174 -140 c11 -43 4 -51 -51 -62 -40 -8 -47 -1 -56 48 -6 36 -5 38 26 47 56 16 71 10 81 -33z m-137 -22 c8 -20 13 -42 10 -49 -5 -15 -88 -37 -99 -26 -4 4 -8 24 -10 45 -2 36 1 40 33 52 50 18 49 18 66 -22z m-144 -21 c9 -10 22 -38 29 -62 12 -39 11 -45 -5 -57 -10 -7 -43 -19 -74 -25 -49 -12 -56 -11 -68 5 -13 18 -3 61 26 116 20 38 69 49 92 23z" transform="translate(0,84) scale(0.1,-0.1)" stroke="none" fill="#2A8B8F"/>

<path d="M840 509 c-28 -5 -252 -64 -610 -161 -19 -5 -49 -13 -67 -17 -18 -5 -47 -17 -65 -28 -27 -15 -34 -26 -36 -56 -3 -36 4 -43 39 -39 325 39 869 199 869 256 0 35 -63 57 -130 45z m-740 -284 c0 -8 -2 -15 -4 -15 -2 0 -6 7 -10 15 -3 8 -1 15 4 15 6 0 10 -7 10 -15z" transform="translate(0,84) scale(0.1,-0.1)" stroke="none" fill="#E9E4E1"/>

<path d="M905 358 c-228 -94 -623 -198 -752 -198 -39 0 -42 -14 -10 -41 88 -76 285 -88 469 -28 117 38 236 96 249 120 5 11 14 19 20 19 23 0 88 102 89 138 0 16 -5 15 -65 -10z" transform="translate(0,84) scale(0.1,-0.1)" stroke="none" fill="#E9E4E1"/>

</g>

<g id="4" transform="translate(412.0,0)scale(1,1)">

<path d="M515 63 c-11 -2 -60 -8 -110 -13 l-90 -9 104 5 c57 2 111 9 120 14 16 10 12 10 -24 3z" transform="translate(0,84) scale(0.1,-0.1)" stroke="none" fill="#5DB4B7"/>

<path d="M83 304 c-26 -20 -33 -33 -33 -59 0 -18 7 -40 15 -49 8 -8 15 -19 15 -24 0 -12 80 -85 86 -79 3 3 -6 14 -20 25 -15 11 -26 25 -26 31 0 20 -32 61 -47 61 -10 0 -13 10 -11 37 3 32 9 41 43 60 22 13 33 23 25 23 -8 0 -30 -12 -47 -26z" transform="translate(0,84) scale(0.1,-0.1)" stroke="none" fill="#5DB4B7"/>

<path d="M845 521 c-14 -6 -4 -9 34 -9 54 -1 91 -20 91 -48 0 -49 -412 -180 -734 -234 -65 -11 -120 -21 -122 -22 -1 -2 7 -14 18 -28 l20 -24 106 18 c205 34 441 101 651 185 29 12 56 19 59 17 16 -17 -61 -146 -87 -146 -6 0 -15 -9 -21 -20 -18 -34 2 -22 48 28 52 56 70 95 76 164 6 64 -12 102 -55 117 -37 13 -56 13 -84 2z" transform="translate(0,84) scale(0.1,-0.1)" stroke="none" fill="#5DB4B7"/>

<path d="M529 776 l-36 -11 13 -37 c7 -22 9 -40 4 -43 -5 -3 -41 -14 -81 -24 -73 -20 -114 -48 -131 -91 -17 -40 -56 -199 -51 -204 2 -2 19 0 36 6 30 9 202 54 407 107 47 12 90 24 97 26 9 3 7 23 -8 77 -26 96 -60 131 -125 134 -51 2 -63 13 -56 50 5 27 -9 30 -69 10z m174 -140 c11 -43 4 -51 -51 -62 -40 -8 -47 -1 -56 48 -6 36 -5 38 26 47 56 16 71 10 81 -33z m-137 -22 c8 -20 13 -42 10 -49 -5 -15 -88 -37 -99 -26 -4 4 -8 24 -10 45 -2 36 1 40 33 52 50 18 49 18 66 -22z m-144 -21 c9 -10 22 -38 29 -62 12 -39 11 -45 -5 -57 -10 -7 -43 -19 -74 -25 -49 -12 -56 -11 -68 5 -13 18 -3 61 26 116 20 38 69 49 92 23z" transform="translate(0,84) scale(0.1,-0.1)" stroke="none" fill="#2A8B8F"/>

<path d="M840 509 c-28 -5 -252 -64 -610 -161 -19 -5 -49 -13 -67 -17 -18 -5 -47 -17 -65 -28 -27 -15 -34 -26 -36 -56 -3 -36 4 -43 39 -39 325 39 869 199 869 256 0 35 -63 57 -130 45z m-740 -284 c0 -8 -2 -15 -4 -15 -2 0 -6 7 -10 15 -3 8 -1 15 4 15 6 0 10 -7 10 -15z" transform="translate(0,84) scale(0.1,-0.1)" stroke="none" fill="#E9E4E1"/>

<path d="M905 358 c-228 -94 -623 -198 -752 -198 -39 0 -42 -14 -10 -41 88 -76 285 -88 469 -28 117 38 236 96 249 120 5 11 14 19 20 19 23 0 88 102 89 138 0 16 -5 15 -65 -10z" transform="translate(0,84) scale(0.1,-0.1)" stroke="none" fill="#E9E4E1"/>

</g>

</g>
</svg>