<?xml version="1.0" standalone="no"?>
<!DOCTYPE svg PUBLIC "-//W3C//DTD SVG 20010904//EN"
 "http://www.w3.org/TR/2001/REC-SVG-20010904/DTD/svg10.dtd">
<svg version="1.0" xmlns="http://www.w3.org/2000/svg" 
width="190.000000pt" height="190.000000pt" viewBox="0 0 190.000000 190.000000"
preserveAspectRatio = "xMidYMid meet" >
<metadata>
Created by potrace 1.16, written by Peter Selinger 2001-2019
</metadata>
<rect width="190.000000" height="190.000000" fill="#CBE3F2"/>
<path d="M800 1665 c-255 -59 -462 -249 -541 -495 -26 -81 -30 -110 -31 -210 -2 -189 44 -324 157 -465 159 -198 387 -297 635 -274 179 17 316 83 450 218 142 144 200 276 207 482 5 107 2 137 -16 205 -74 273 -268 465 -539 535 -87 22 -236 24 -322 4z m179 -25 c10 -5 36 -33 57 -62 82 -110 136 -243 173 -426 21 -105 7 -332 -20 -332 -30 0 -219 121 -219 140 0 268 -46 406 -192 572 -33 37 -57 72 -54 76 6 10 131 33 219 41 10 0 26 -3 36 -9z m143 -14 c69 -18 137 -45 168 -67 39 -27 126 -211 156 -329 18 -72 27 -265 17 -365 l-8 -80 -60 -3 c-33 -1 -82 4 -110 11 -44 12 -50 17 -48 38 1 13 3 87 3 164 2 228 -44 392 -159 565 -56 84 -54 80 -32 80 11 0 44 -6 73 -14z m-363 -113 c28 -31 51 -60 51 -63 0 -3 -21 -12 -47 -19 -27 -7 -93 -35 -149 -62 -115 -56 -235 -158 -298 -254 -21 -30 -41 -55 -46 -55 -10 0 35 151 61 202 64 126 164 229 290 297 63 35 67 34 138 -46z m688 -75 c89 -92 140 -179 179 -308 17 -58 28 -222 17 -279 -8 -41 -11 -45 -53 -57 -25 -8 -60 -14 -79 -14 -33 0 -33 0 -27 38 15 89 18 248 7 316 -19 118 -59 247 -97 313 -43 75 -27 72 53 -9z m-606 -35 c35 -42 85 -173 76 -197 -3 -8 -24 -17 -48 -21 -109 -19 -272 -107 -385 -208 -54 -49 -164 -203 -164 -231 0 -24 -29 -19 -35 7 -36 157 -34 191 10 276 74 140 186 246 335 318 74 35 87 41 145 61 43 14 50 14 66 -5z m99 -345 c0 -76 -3 -89 -17 -94 -62 -20 -136 -53 -188 -83 -113 -65 -236 -205 -290 -328 -10 -24 -22 -43 -26 -43 -18 0 -99 136 -99 166 0 48 110 215 187 285 106 96 278 186 383 201 43 7 50 -7 50 -104z m63 -164 c71 -53 115 -77 207 -111 54 -21 87 -26 195 -29 72 -2 148 1 170 6 22 5 42 7 44 4 14 -14 -53 -160 -81 -175 -33 -18 -289 -15 -358 4 -112 30 -197 65 -269 111 -71 46 -171 131 -171 146 0 12 156 84 194 89 4 0 36 -20 69 -45z m-225 -122 c156 -136 288 -195 497 -223 81 -10 192 -7 230 7 34 13 11 -27 -51 -91 -98 -99 -111 -105 -223 -105 -183 0 -357 52 -501 150 -70 48 -170 147 -170 169 1 22 126 151 146 151 3 0 36 -26 72 -58z m-183 -182 c66 -67 193 -155 270 -188 83 -34 195 -61 293 -68 112 -8 110 -21 -11 -55 -64 -18 -107 -23 -192 -23 -128 0 -207 18 -310 69 -84 42 -195 129 -195 152 0 20 70 173 79 173 4 0 33 -27 66 -60z" transform="translate(0.000000,190.000000) scale(0.100000,-0.100000)" stroke="none" fill="#464E53"/>

<path d="M800 1665 c-255 -59 -462 -249 -541 -495 -26 -81 -30 -110 -31 -210 -2 -189 44 -324 157 -465 159 -198 387 -297 635 -274 179 17 316 83 450 218 142 144 200 276 207 482 5 107 2 137 -16 205 -74 273 -268 465 -539 535 -87 22 -236 24 -322 4z m179 -25 c10 -5 36 -33 57 -62 82 -110 136 -243 173 -426 21 -105 7 -332 -20 -332 -30 0 -219 121 -219 140 0 268 -46 406 -192 572 -33 37 -57 72 -54 76 6 10 131 33 219 41 10 0 26 -3 36 -9z m143 -14 c69 -18 137 -45 168 -67 39 -27 126 -211 156 -329 18 -72 27 -265 17 -365 l-8 -80 -60 -3 c-33 -1 -82 4 -110 11 -44 12 -50 17 -48 38 1 13 3 87 3 164 2 228 -44 392 -159 565 -56 84 -54 80 -32 80 11 0 44 -6 73 -14z m-363 -113 c28 -31 51 -60 51 -63 0 -3 -21 -12 -47 -19 -27 -7 -93 -35 -149 -62 -115 -56 -235 -158 -298 -254 -21 -30 -41 -55 -46 -55 -10 0 35 151 61 202 64 126 164 229 290 297 63 35 67 34 138 -46z m688 -75 c89 -92 140 -179 179 -308 17 -58 28 -222 17 -279 -8 -41 -11 -45 -53 -57 -25 -8 -60 -14 -79 -14 -33 0 -33 0 -27 38 15 89 18 248 7 316 -19 118 -59 247 -97 313 -43 75 -27 72 53 -9z m-606 -35 c35 -42 85 -173 76 -197 -3 -8 -24 -17 -48 -21 -109 -19 -272 -107 -385 -208 -54 -49 -164 -203 -164 -231 0 -24 -29 -19 -35 7 -36 157 -34 191 10 276 74 140 186 246 335 318 74 35 87 41 145 61 43 14 50 14 66 -5z m99 -345 c0 -76 -3 -89 -17 -94 -62 -20 -136 -53 -188 -83 -113 -65 -236 -205 -290 -328 -10 -24 -22 -43 -26 -43 -18 0 -99 136 -99 166 0 48 110 215 187 285 106 96 278 186 383 201 43 7 50 -7 50 -104z m63 -164 c71 -53 115 -77 207 -111 54 -21 87 -26 195 -29 72 -2 148 1 170 6 22 5 42 7 44 4 14 -14 -53 -160 -81 -175 -33 -18 -289 -15 -358 4 -112 30 -197 65 -269 111 -71 46 -171 131 -171 146 0 12 156 84 194 89 4 0 36 -20 69 -45z m-225 -122 c156 -136 288 -195 497 -223 81 -10 192 -7 230 7 34 13 11 -27 -51 -91 -98 -99 -111 -105 -223 -105 -183 0 -357 52 -501 150 -70 48 -170 147 -170 169 1 22 126 151 146 151 3 0 36 -26 72 -58z m-183 -182 c66 -67 193 -155 270 -188 83 -34 195 -61 293 -68 112 -8 110 -21 -11 -55 -64 -18 -107 -23 -192 -23 -128 0 -207 18 -310 69 -84 42 -195 129 -195 152 0 20 70 173 79 173 4 0 33 -27 66 -60z" transform="translate(0.000000,190.000000) scale(0.100000,-0.100000)" stroke="none" fill="#464E53"/>

<path d="M86 1888 c-2 -7 -8 -31 -12 -52 -11 -50 -28 -56 -44 -16 -24 57 -30 41 -30 -74 0 -64 4 -116 9 -116 20 0 110 215 111 263 0 12 -30 8 -34 -5z" transform="translate(0.000000,190.000000) scale(0.100000,-0.100000)" stroke="none" fill="#464E53"/>

</svg>