<?xml version="1.0" standalone="no"?>
<!DOCTYPE svg PUBLIC "-//W3C//DTD SVG 20010904//EN"
 "http://www.w3.org/TR/2001/REC-SVG-20010904/DTD/svg10.dtd">
<svg version="1.0" xmlns="http://www.w3.org/2000/svg" 
width="186.000000pt" height="180.000000pt" viewBox="0 0 186.000000 180.000000"
preserveAspectRatio = "xMidYMid meet" >
<metadata>
Created by potrace 1.16, written by Peter Selinger 2001-2019
</metadata>
<rect width="186.000000" height="180.000000" fill="#F4F2E8"/>
<path d="M663 1570 c-11 -5 -36 -29 -55 -53 -37 -49 -53 -105 -63 -228 l-6 -77 -43 -4 c-54 -6 -152 -51 -189 -86 -54 -51 -94 -170 -84 -252 14 -119 101 -260 173 -279 28 -7 29 -10 30 -67 3 -98 22 -207 42 -234 31 -43 98 -70 172 -70 138 0 194 17 286 85 9 7 21 2 42 -18 35 -34 79 -47 156 -47 79 0 192 34 207 62 7 12 31 43 55 68 70 75 93 175 59 257 -8 19 -15 39 -15 44 0 4 26 17 58 29 122 46 159 99 164 234 3 98 7 93 -106 174 -44 31 -46 35 -46 82 0 71 -39 146 -113 219 -91 90 -179 108 -276 58 -28 -15 -59 -27 -68 -27 -10 0 -49 29 -87 64 -40 38 -80 66 -98 70 -44 9 -169 6 -195 -4z m309 -377 c27 -25 25 -97 -4 -118 -23 -17 -23 -17 7 -11 17 3 37 2 45 -3 12 -8 11 -13 -5 -33 l-20 -23 21 18 c27 22 56 22 104 -3 33 -17 40 -26 40 -49 0 -42 -20 -53 -82 -47 -32 3 -41 2 -23 -2 28 -7 31 -12 27 -43 -1 -6 -12 -8 -24 -5 -13 3 -8 -1 10 -9 35 -16 41 -39 18 -70 -13 -17 -19 -18 -55 -9 -23 6 -41 8 -41 3 0 -14 -73 -29 -115 -22 -49 7 -84 24 -110 53 -16 17 -20 36 -20 90 0 42 5 73 14 83 12 15 11 17 -3 17 -9 0 -22 12 -28 26 -11 22 -10 28 7 40 26 19 65 18 95 -3 14 -10 27 -16 30 -15 12 6 10 -41 -2 -56 -12 -15 -11 -16 5 -3 9 7 17 24 17 37 0 18 6 24 23 25 20 1 20 2 2 6 -11 2 -30 6 -42 9 -15 3 -23 12 -23 25 0 26 28 91 43 101 21 13 70 9 89 -9z" transform="translate(0.000000,180.000000) scale(0.100000,-0.100000)" stroke="none" fill="#EF5826"/>

<path d="M663 1570 c-11 -5 -36 -29 -55 -53 -37 -49 -53 -105 -63 -228 l-6 -77 -43 -4 c-54 -6 -152 -51 -189 -86 -54 -51 -94 -170 -84 -252 14 -119 101 -260 173 -279 28 -7 29 -10 30 -67 3 -98 22 -207 42 -234 31 -43 98 -70 172 -70 138 0 194 17 286 85 9 7 21 2 42 -18 35 -34 79 -47 156 -47 79 0 192 34 207 62 7 12 31 43 55 68 70 75 93 175 59 257 -8 19 -15 39 -15 44 0 4 26 17 58 29 122 46 159 99 164 234 3 98 7 93 -106 174 -44 31 -46 35 -46 82 0 71 -39 146 -113 219 -91 90 -179 108 -276 58 -28 -15 -59 -27 -68 -27 -10 0 -49 29 -87 64 -40 38 -80 66 -98 70 -44 9 -169 6 -195 -4z m309 -377 c27 -25 25 -97 -4 -118 -23 -17 -23 -17 7 -11 17 3 37 2 45 -3 12 -8 11 -13 -5 -33 l-20 -23 21 18 c27 22 56 22 104 -3 33 -17 40 -26 40 -49 0 -42 -20 -53 -82 -47 -32 3 -41 2 -23 -2 28 -7 31 -12 27 -43 -1 -6 -12 -8 -24 -5 -13 3 -8 -1 10 -9 35 -16 41 -39 18 -70 -13 -17 -19 -18 -55 -9 -23 6 -41 8 -41 3 0 -14 -73 -29 -115 -22 -49 7 -84 24 -110 53 -16 17 -20 36 -20 90 0 42 5 73 14 83 12 15 11 17 -3 17 -9 0 -22 12 -28 26 -11 22 -10 28 7 40 26 19 65 18 95 -3 14 -10 27 -16 30 -15 12 6 10 -41 -2 -56 -12 -15 -11 -16 5 -3 9 7 17 24 17 37 0 18 6 24 23 25 20 1 20 2 2 6 -11 2 -30 6 -42 9 -15 3 -23 12 -23 25 0 26 28 91 43 101 21 13 70 9 89 -9z" transform="translate(0.000000,180.000000) scale(0.100000,-0.100000)" stroke="none" fill="#EF5826"/>

<path d="M242 380 c-49 -35 -92 -105 -94 -152 -3 -73 36 -78 98 -13 71 74 102 153 72 183 -18 18 -31 15 -76 -18z" transform="translate(0.000000,180.000000) scale(0.100000,-0.100000)" stroke="none" fill="#464C73"/>

<path d="M1622 688 c-7 -7 -12 -18 -12 -24 0 -35 157 -112 205 -100 20 5 25 12 25 40 0 35 -15 54 -67 80 -37 19 -134 21 -151 4z" transform="translate(0.000000,180.000000) scale(0.100000,-0.100000)" stroke="none" fill="#464C73"/>

<path d="M880 1769 c26 -88 81 -159 124 -159 9 0 22 12 28 26 10 21 8 37 -12 95 l-23 69 -63 0 -63 0 9 -31z" transform="translate(0.000000,180.000000) scale(0.100000,-0.100000)" stroke="none" fill="#464C73"/>

<path d="M150 552 c-31 -5 -70 -40 -70 -63 0 -51 92 -63 170 -24 48 25 60 44 42 71 -7 12 -99 22 -142 16z" transform="translate(0.000000,180.000000) scale(0.100000,-0.100000)" stroke="none" fill="#464C73"/>

<path d="M883 1202 c-15 -10 -43 -75 -43 -101 0 -14 9 -22 28 -26 15 -4 38 -8 51 -11 13 -3 34 2 47 11 31 20 34 93 6 118 -19 18 -68 22 -89 9z" transform="translate(0.000000,180.000000) scale(0.100000,-0.100000)" stroke="none" fill="#464C73"/>

<path d="M1120 1727 c0 -75 9 -97 42 -97 19 0 50 53 62 105 4 17 9 38 12 48 5 15 -2 17 -55 17 l-61 0 0 -73z" transform="translate(0.000000,180.000000) scale(0.100000,-0.100000)" stroke="none" fill="#464C73"/>

<path d="M1017 1022 c-10 -10 -17 -33 -17 -50 0 -34 5 -36 83 -47 57 -8 77 4 77 46 0 23 -7 32 -40 49 -49 25 -82 25 -103 2z" transform="translate(0.000000,180.000000) scale(0.100000,-0.100000)" stroke="none" fill="#464C73"/>

<path d="M1605 526 c-17 -12 -18 -18 -7 -53 16 -53 53 -107 77 -112 23 -4 45 24 45 57 0 32 -66 120 -91 122 -3 0 -14 -6 -24 -14z" transform="translate(0.000000,180.000000) scale(0.100000,-0.100000)" stroke="none" fill="#464C73"/>

<path d="M735 1076 c-32 -23 -7 -60 50 -76 55 -15 79 -6 83 31 4 43 -91 76 -133 45z" transform="translate(0.000000,180.000000) scale(0.100000,-0.100000)" stroke="none" fill="#464C73"/>

<path d="M973 854 c-16 -26 -16 -27 6 -45 35 -29 91 -36 108 -14 23 32 16 54 -23 70 -51 21 -71 19 -91 -11z" transform="translate(0.000000,180.000000) scale(0.100000,-0.100000)" stroke="none" fill="#464C73"/>

<path d="M856 901 c-27 -30 -17 -55 24 -59 24 -3 38 2 47 14 19 26 16 39 -12 52 -34 16 -39 15 -59 -7z" transform="translate(0.000000,180.000000) scale(0.100000,-0.100000)" stroke="none" fill="#464C73"/>

<path d="M854 908 l-19 -23 22 19 c20 16 26 17 53 6 16 -7 30 -18 30 -24 0 -23 -25 -45 -55 -49 l-30 -4 32 -2 c23 -1 36 5 47 21 23 32 20 45 -14 63 -38 20 -43 19 -66 -7z" transform="translate(0.000000,180.000000) scale(0.100000,-0.100000)" stroke="none" fill="#EF5826"/>

<path d="M830 866 c0 -8 4 -17 9 -20 5 -4 7 3 4 14 -6 23 -13 26 -13 6z" transform="translate(0.000000,180.000000) scale(0.100000,-0.100000)" stroke="none" fill="#EF5826"/>

<path d="M992 970 c0 -14 2 -19 5 -12 2 6 2 18 0 25 -3 6 -5 1 -5 -13z" transform="translate(0.000000,180.000000) scale(0.100000,-0.100000)" stroke="none" fill="#EF5826"/>

<path d="M1008 883 c7 -3 16 -2 19 1 4 3 -2 6 -13 5 -11 0 -14 -3 -6 -6z" transform="translate(0.000000,180.000000) scale(0.100000,-0.100000)" stroke="none" fill="#EF5826"/>

<path d="M818 983 c7 -3 16 -2 19 1 4 3 -2 6 -13 5 -11 0 -14 -3 -6 -6z" transform="translate(0.000000,180.000000) scale(0.100000,-0.100000)" stroke="none" fill="#EF5826"/>

</svg>