<?xml version="1.0" standalone="no"?>
<!DOCTYPE svg PUBLIC "-//W3C//DTD SVG 20010904//EN"
 "http://www.w3.org/TR/2001/REC-SVG-20010904/DTD/svg10.dtd">
<svg version="1.0" xmlns="http://www.w3.org/2000/svg" 
width="135.000000pt" height="150.000000pt" viewBox="0 0 135.000000 150.000000"
preserveAspectRatio = "xMidYMid meet" >
<metadata>
Created by potrace 1.16, written by Peter Selinger 2001-2019
</metadata>
<rect width="135.000000" height="150.000000" fill="#E898C1"/>
<path d="M1049 1207 c-15 -23 -55 -82 -89 -132 -35 -49 -111 -160 -169 -245 -58 -85 -192 -281 -299 -435 -106 -154 -188 -281 -183 -283 5 -2 214 49 464 112 251 64 458 116 461 116 3 0 6 8 6 18 0 30 -154 892 -160 892 -3 0 -17 -20 -31 -43z" transform="translate(0.000000,150.000000) scale(0.100000,-0.100000)" stroke="none" fill="#004A47"/>

<path d="M1049 1207 c-15 -23 -55 -82 -89 -132 -35 -49 -111 -160 -169 -245 -58 -85 -192 -281 -299 -435 -106 -154 -188 -281 -183 -283 5 -2 214 49 464 112 251 64 458 116 461 116 3 0 6 8 6 18 0 30 -154 892 -160 892 -3 0 -17 -20 -31 -43z" transform="translate(0.000000,150.000000) scale(0.100000,-0.100000)" stroke="none" fill="#004A47"/>

<path d="M860 1368 c-5 -13 -34 -57 -63 -98 -29 -41 -91 -130 -138 -198 -255 -371 -306 -446 -371 -542 -39 -58 -97 -141 -129 -186 -33 -44 -59 -86 -59 -92 0 -6 33 -35 73 -65 132 -98 107 -103 202 36 45 67 166 244 268 392 102 149 210 305 239 348 29 43 79 115 111 160 101 143 101 125 -3 201 -49 36 -96 66 -105 66 -8 0 -20 -10 -25 -22z" transform="translate(0.000000,150.000000) scale(0.100000,-0.100000)" stroke="none" fill="#09918B"/>

<path d="M860 1368 c-5 -13 -34 -57 -63 -98 -29 -41 -91 -130 -138 -198 -255 -371 -306 -446 -371 -542 -39 -58 -97 -141 -129 -186 -33 -44 -59 -86 -59 -92 0 -6 33 -35 73 -65 132 -98 107 -103 202 36 45 67 166 244 268 392 102 149 210 305 239 348 29 43 79 115 111 160 101 143 101 125 -3 201 -49 36 -96 66 -105 66 -8 0 -20 -10 -25 -22z" transform="translate(0.000000,150.000000) scale(0.100000,-0.100000)" stroke="none" fill="#09918B"/>

<path d="M260 1329 c-102 -27 -201 -53 -220 -57 l-35 -8 -3 -284 -2 -284 152 222 c313 454 319 463 301 461 -4 -1 -91 -23 -193 -50z" transform="translate(0.000000,150.000000) scale(0.100000,-0.100000)" stroke="none" fill="#004A47"/>

<path d="M105 1483 c-27 -8 -62 -17 -78 -20 l-27 -5 0 -98 0 -98 33 8 c127 30 404 104 415 110 9 4 -12 25 -65 63 l-78 57 -75 -1 c-41 -1 -97 -8 -125 -16z" transform="translate(0.000000,150.000000) scale(0.100000,-0.100000)" stroke="none" fill="#09918B"/>

<path d="M868 1393 c-8 -10 -55 -76 -103 -148 -49 -71 -109 -159 -134 -195 -25 -36 -68 -99 -96 -140 -29 -41 -85 -124 -126 -183 -230 -335 -269 -392 -268 -397 0 -11 53 60 133 180 47 69 133 196 193 282 59 87 146 213 192 280 47 68 109 157 138 198 29 41 58 85 63 98 5 12 17 22 25 22 9 0 59 -31 111 -70 52 -38 94 -66 94 -62 0 7 -193 152 -203 152 -2 0 -11 -8 -19 -17z" transform="translate(0.000000,150.000000) scale(0.100000,-0.100000)" stroke="none" fill="#8C8DA2"/>

<path d="M900 37 l-125 -32 98 -3 c54 -1 139 -1 189 0 l92 3 -38 28 c-20 16 -49 30 -64 32 -15 2 -83 -11 -152 -28z" transform="translate(0.000000,150.000000) scale(0.100000,-0.100000)" stroke="none" fill="#09918B"/>

<path d="M107 291 c-9 -16 -17 -35 -17 -43 0 -14 156 -134 188 -145 9 -3 6 3 -8 12 -104 75 -170 128 -170 137 0 5 9 23 21 39 11 16 17 29 12 29 -5 0 -16 -13 -26 -29z" transform="translate(0.000000,150.000000) scale(0.100000,-0.100000)" stroke="none" fill="#8C8DA2"/>

<path d="M383 1444 c59 -43 77 -62 74 -76 -3 -10 -1 -16 4 -12 22 14 3 43 -61 89 -38 27 -75 51 -82 53 -7 2 22 -22 65 -54z" transform="translate(0.000000,150.000000) scale(0.100000,-0.100000)" stroke="none" fill="#8C8DA2"/>

<path d="M1000 70 c-18 -7 -12 -7 20 -4 41 5 50 2 93 -31 27 -20 50 -35 52 -33 3 2 -18 21 -45 41 -50 37 -73 42 -120 27z" transform="translate(0.000000,150.000000) scale(0.100000,-0.100000)" stroke="none" fill="#8C8DA2"/>

<path d="M390 1265 c-28 -41 -49 -75 -46 -75 2 0 24 28 48 63 55 78 60 87 54 87 -3 0 -28 -34 -56 -75z" transform="translate(0.000000,150.000000) scale(0.100000,-0.100000)" stroke="none" fill="#8C8DA2"/>

<path d="M52 773 c-47 -71 -54 -83 -49 -83 2 0 25 32 51 70 25 39 44 70 41 70 -2 0 -22 -26 -43 -57z" transform="translate(0.000000,150.000000) scale(0.100000,-0.100000)" stroke="none" fill="#8C8DA2"/>

<path d="M160 930 c-48 -71 -47 -81 2 -12 43 59 51 72 44 72 -3 0 -24 -27 -46 -60z" transform="translate(0.000000,150.000000) scale(0.100000,-0.100000)" stroke="none" fill="#8C8DA2"/>

<path d="M997 283 c-32 -9 -56 -17 -54 -20 5 -4 129 26 136 33 8 7 -23 2 -82 -13z" transform="translate(0.000000,150.000000) scale(0.100000,-0.100000)" stroke="none" fill="#8C8DA2"/>

<path d="M875 39 c-38 -12 -47 -17 -24 -14 46 7 130 33 104 33 -11 0 -47 -9 -80 -19z" transform="translate(0.000000,150.000000) scale(0.100000,-0.100000)" stroke="none" fill="#8C8DA2"/>

<path d="M260 1074 c-18 -25 -30 -47 -28 -49 1 -2 18 19 36 46 41 62 34 65 -8 3z" transform="translate(0.000000,150.000000) scale(0.100000,-0.100000)" stroke="none" fill="#8C8DA2"/>

<path d="M1241 363 c-1 -15 -11 -24 -38 -32 l-38 -11 35 5 c41 6 53 17 47 41 -4 16 -5 16 -6 -3z" transform="translate(0.000000,150.000000) scale(0.100000,-0.100000)" stroke="none" fill="#8C8DA2"/>

<path d="M20 1470 l-25 -8 25 -1 c14 0 32 4 40 9 13 9 13 10 0 9 -8 -1 -26 -5 -40 -9z" transform="translate(0.000000,150.000000) scale(0.100000,-0.100000)" stroke="none" fill="#8C8DA2"/>

<path d="M323 1168 c-20 -26 -26 -41 -15 -34 12 7 36 46 29 46 -3 0 -9 -6 -14 -12z" transform="translate(0.000000,150.000000) scale(0.100000,-0.100000)" stroke="none" fill="#8C8DA2"/>

<path d="M100 1490 c-20 -6 -21 -8 -5 -8 11 0 29 3 40 8 25 11 -1 11 -35 0z" transform="translate(0.000000,150.000000) scale(0.100000,-0.100000)" stroke="none" fill="#8C8DA2"/>

<path d="M400 130 c-20 -6 -21 -8 -5 -8 11 0 29 3 40 8 25 11 -1 11 -35 0z" transform="translate(0.000000,150.000000) scale(0.100000,-0.100000)" stroke="none" fill="#8C8DA2"/>

<path d="M760 10 c-20 -6 -21 -8 -5 -8 11 0 29 3 40 8 25 11 -1 11 -35 0z" transform="translate(0.000000,150.000000) scale(0.100000,-0.100000)" stroke="none" fill="#8C8DA2"/>

<path d="M875 250 c-25 -11 1 -11 35 0 20 6 21 8 5 8 -11 0 -29 -3 -40 -8z" transform="translate(0.000000,150.000000) scale(0.100000,-0.100000)" stroke="none" fill="#8C8DA2"/>

<path d="M715 210 c-13 -5 -14 -9 -5 -9 8 0 24 4 35 9 13 5 14 9 5 9 -8 0 -24 -4 -35 -9z" transform="translate(0.000000,150.000000) scale(0.100000,-0.100000)" stroke="none" fill="#8C8DA2"/>

<path d="M320 110 c-20 -6 -21 -8 -5 -8 11 0 29 3 40 8 25 11 -1 11 -35 0z" transform="translate(0.000000,150.000000) scale(0.100000,-0.100000)" stroke="none" fill="#8C8DA2"/>

<path d="M1092 1220 c0 -14 2 -19 5 -12 2 6 2 18 0 25 -3 6 -5 1 -5 -13z" transform="translate(0.000000,150.000000) scale(0.100000,-0.100000)" stroke="none" fill="#8C8DA2"/>

<path d="M1152 880 c0 -14 2 -19 5 -12 2 6 2 18 0 25 -3 6 -5 1 -5 -13z" transform="translate(0.000000,150.000000) scale(0.100000,-0.100000)" stroke="none" fill="#8C8DA2"/>

<path d="M1122 1050 c0 -14 2 -19 5 -12 2 6 2 18 0 25 -3 6 -5 1 -5 -13z" transform="translate(0.000000,150.000000) scale(0.100000,-0.100000)" stroke="none" fill="#8C8DA2"/>

<path d="M1212 540 c0 -14 2 -19 5 -12 2 6 2 18 0 25 -3 6 -5 1 -5 -13z" transform="translate(0.000000,150.000000) scale(0.100000,-0.100000)" stroke="none" fill="#8C8DA2"/>

<path d="M1112 1100 c0 -14 2 -19 5 -12 2 6 2 18 0 25 -3 6 -5 1 -5 -13z" transform="translate(0.000000,150.000000) scale(0.100000,-0.100000)" stroke="none" fill="#8C8DA2"/>

<path d="M1172 760 c0 -14 2 -19 5 -12 2 6 2 18 0 25 -3 6 -5 1 -5 -13z" transform="translate(0.000000,150.000000) scale(0.100000,-0.100000)" stroke="none" fill="#8C8DA2"/>

<path d="M1181 704 c0 -11 3 -14 6 -6 3 7 2 16 -1 19 -3 4 -6 -2 -5 -13z" transform="translate(0.000000,150.000000) scale(0.100000,-0.100000)" stroke="none" fill="#8C8DA2"/>

<path d="M1202 595 c0 -16 2 -22 5 -12 2 9 2 23 0 30 -3 6 -5 -1 -5 -18z" transform="translate(0.000000,150.000000) scale(0.100000,-0.100000)" stroke="none" fill="#8C8DA2"/>

<path d="M1232 430 c0 -14 2 -19 5 -12 2 6 2 18 0 25 -3 6 -5 1 -5 -13z" transform="translate(0.000000,150.000000) scale(0.100000,-0.100000)" stroke="none" fill="#8C8DA2"/>

<path d="M1138 313 c7 -3 16 -2 19 1 4 3 -2 6 -13 5 -11 0 -14 -3 -6 -6z" transform="translate(0.000000,150.000000) scale(0.100000,-0.100000)" stroke="none" fill="#8C8DA2"/>

<path d="M1098 303 c7 -3 16 -2 19 1 4 3 -2 6 -13 5 -11 0 -14 -3 -6 -6z" transform="translate(0.000000,150.000000) scale(0.100000,-0.100000)" stroke="none" fill="#8C8DA2"/>

<path d="M818 233 c6 -2 18 -2 25 0 6 3 1 5 -13 5 -14 0 -19 -2 -12 -5z" transform="translate(0.000000,150.000000) scale(0.100000,-0.100000)" stroke="none" fill="#8C8DA2"/>

<path d="M668 193 c7 -3 16 -2 19 1 4 3 -2 6 -13 5 -11 0 -14 -3 -6 -6z" transform="translate(0.000000,150.000000) scale(0.100000,-0.100000)" stroke="none" fill="#8C8DA2"/>

<path d="M628 183 c7 -3 16 -2 19 1 4 3 -2 6 -13 5 -11 0 -14 -3 -6 -6z" transform="translate(0.000000,150.000000) scale(0.100000,-0.100000)" stroke="none" fill="#8C8DA2"/>

<path d="M588 173 c7 -3 16 -2 19 1 4 3 -2 6 -13 5 -11 0 -14 -3 -6 -6z" transform="translate(0.000000,150.000000) scale(0.100000,-0.100000)" stroke="none" fill="#8C8DA2"/>

<path d="M548 163 c7 -3 16 -2 19 1 4 3 -2 6 -13 5 -11 0 -14 -3 -6 -6z" transform="translate(0.000000,150.000000) scale(0.100000,-0.100000)" stroke="none" fill="#8C8DA2"/>

<path d="M508 153 c7 -3 16 -2 19 1 4 3 -2 6 -13 5 -11 0 -14 -3 -6 -6z" transform="translate(0.000000,150.000000) scale(0.100000,-0.100000)" stroke="none" fill="#8C8DA2"/>

<path d="M468 143 c7 -3 16 -2 19 1 4 3 -2 6 -13 5 -11 0 -14 -3 -6 -6z" transform="translate(0.000000,150.000000) scale(0.100000,-0.100000)" stroke="none" fill="#8C8DA2"/>

<path d="M1102 1160 c0 -14 2 -19 5 -12 2 6 2 18 0 25 -3 6 -5 1 -5 -13z" transform="translate(0.000000,150.000000) scale(0.100000,-0.100000)" stroke="none" fill="#8C8DA2"/>

<path d="M1132 990 c0 -14 2 -19 5 -12 2 6 2 18 0 25 -3 6 -5 1 -5 -13z" transform="translate(0.000000,150.000000) scale(0.100000,-0.100000)" stroke="none" fill="#8C8DA2"/>

<path d="M1142 930 c0 -14 2 -19 5 -12 2 6 2 18 0 25 -3 6 -5 1 -5 -13z" transform="translate(0.000000,150.000000) scale(0.100000,-0.100000)" stroke="none" fill="#8C8DA2"/>

<path d="M1162 820 c0 -14 2 -19 5 -12 2 6 2 18 0 25 -3 6 -5 1 -5 -13z" transform="translate(0.000000,150.000000) scale(0.100000,-0.100000)" stroke="none" fill="#8C8DA2"/>

<path d="M1192 650 c0 -14 2 -19 5 -12 2 6 2 18 0 25 -3 6 -5 1 -5 -13z" transform="translate(0.000000,150.000000) scale(0.100000,-0.100000)" stroke="none" fill="#8C8DA2"/>

<path d="M1222 480 c0 -14 2 -19 5 -12 2 6 2 18 0 25 -3 6 -5 1 -5 -13z" transform="translate(0.000000,150.000000) scale(0.100000,-0.100000)" stroke="none" fill="#8C8DA2"/>

</svg>