<?xml version="1.0" standalone="no"?>
<!DOCTYPE svg PUBLIC "-//W3C//DTD SVG 20010904//EN"
 "http://www.w3.org/TR/2001/REC-SVG-20010904/DTD/svg10.dtd">
<svg version="1.0" xmlns="http://www.w3.org/2000/svg" 
width="122.000000pt" height="133.000000pt" viewBox="0 0 122.000000 133.000000"
preserveAspectRatio = "xMidYMid meet" >
<metadata>
Created by potrace 1.16, written by Peter Selinger 2001-2019
</metadata>
<rect width="122.000000" height="133.000000" fill="#FCF1A7"/>
<path d="M263 1098 c-40 -17 -87 -44 -104 -60 -29 -28 -30 -33 -25 -81 4 -28 11 -55 15 -61 5 -6 33 -20 62 -31 32 -12 73 -39 102 -67 l48 -47 -38 -53 c-21 -29 -54 -70 -74 -90 -41 -42 -54 -82 -33 -99 20 -17 71 21 136 99 15 18 32 30 38 27 13 -8 1 -31 -37 -70 -45 -46 -55 -81 -43 -144 11 -61 40 -116 59 -116 7 0 21 15 30 34 17 36 45 60 57 48 4 -4 0 -15 -9 -25 -10 -10 -17 -24 -17 -30 0 -7 -5 -12 -11 -12 -12 0 -8 -103 6 -134 7 -16 5 -18 -7 -13 -20 7 -53 -16 -44 -31 8 -13 129 -15 160 -3 16 6 20 18 20 56 1 57 21 71 30 21 5 -26 13 -37 34 -43 36 -13 432 -10 432 3 1 5 -19 12 -43 15 -104 16 -209 92 -246 180 -21 49 -79 138 -108 167 -25 25 -61 77 -89 127 -26 47 -28 61 -36 225 -10 187 -17 212 -64 230 -49 19 -126 11 -201 -22z m37 -83 c15 -18 5 -35 -21 -35 -14 0 -19 7 -19 25 0 28 21 33 40 10z" transform="translate(0.000000,133.000000) scale(0.100000,-0.100000)" stroke="none" fill="#F7D71D"/>

<path d="M263 1098 c-40 -17 -87 -44 -104 -60 -29 -28 -30 -33 -25 -81 4 -28 11 -55 15 -61 5 -6 33 -20 62 -31 32 -12 73 -39 102 -67 l48 -47 -38 -53 c-21 -29 -54 -70 -74 -90 -41 -42 -54 -82 -33 -99 20 -17 71 21 136 99 15 18 32 30 38 27 13 -8 1 -31 -37 -70 -45 -46 -55 -81 -43 -144 11 -61 40 -116 59 -116 7 0 21 15 30 34 17 36 45 60 57 48 4 -4 0 -15 -9 -25 -10 -10 -17 -24 -17 -30 0 -7 -5 -12 -11 -12 -12 0 -8 -103 6 -134 7 -16 5 -18 -7 -13 -20 7 -53 -16 -44 -31 8 -13 129 -15 160 -3 16 6 20 18 20 56 1 57 21 71 30 21 5 -26 13 -37 34 -43 36 -13 432 -10 432 3 1 5 -19 12 -43 15 -104 16 -209 92 -246 180 -21 49 -79 138 -108 167 -25 25 -61 77 -89 127 -26 47 -28 61 -36 225 -10 187 -17 212 -64 230 -49 19 -126 11 -201 -22z m37 -83 c15 -18 5 -35 -21 -35 -14 0 -19 7 -19 25 0 28 21 33 40 10z" transform="translate(0.000000,133.000000) scale(0.100000,-0.100000)" stroke="none" fill="#F7D71D"/>

<path d="M432 1198 c-17 -17 -24 -20 -34 -10 -26 26 -78 7 -78 -28 0 -11 -23 -26 -70 -44 -39 -16 -87 -43 -107 -62 -34 -33 -35 -36 -31 -93 5 -69 23 -96 77 -112 48 -14 115 -61 119 -83 7 -35 -9 -68 -62 -125 -64 -69 -78 -113 -48 -143 17 -17 25 -19 49 -10 l29 10 13 -74 c12 -73 44 -135 82 -162 25 -17 24 -54 -1 -70 -22 -14 -28 -66 -8 -78 7 -4 50 -7 97 -6 78 2 88 5 109 28 14 16 27 22 35 17 6 -4 121 -8 254 -9 255 -1 265 1 244 44 -37 78 -36 77 -72 77 -22 -1 -39 6 -47 17 -16 22 -45 23 -62 3 -18 -22 -33 -19 -20 4 5 11 10 33 10 50 0 24 -5 32 -25 37 -14 3 -32 4 -40 0 -19 -7 -19 -1 1 30 14 20 15 30 6 49 -10 21 -18 25 -57 25 -49 0 -50 1 -33 33 41 77 20 127 -47 108 -33 -9 -36 -8 -29 7 12 28 15 76 6 91 -5 7 -31 16 -56 18 l-47 6 25 26 c36 37 34 69 -4 85 -30 12 -30 13 -11 30 10 9 21 26 24 37 6 22 -27 69 -49 69 -17 0 -17 -1 2 45 14 33 14 39 -1 61 -10 15 -25 24 -41 24 -21 0 -25 3 -19 18 28 65 -33 110 -83 60z m76 -22 c2 -10 0 -22 -5 -27 -12 -12 -73 0 -73 15 0 37 72 48 78 12z m-131 -14 c-34 -4 -48 5 -27 18 8 5 22 4 34 -3 20 -11 20 -12 -7 -15z m93 -40 c49 -24 60 -67 61 -226 1 -160 22 -229 97 -316 64 -73 108 -139 137 -203 43 -96 120 -153 239 -176 44 -9 81 -21 83 -27 5 -15 -462 -17 -489 -3 -10 5 -18 21 -18 34 0 13 -5 27 -11 31 -8 4 -9 -6 -6 -33 10 -66 -6 -77 -104 -78 l-84 0 -3 27 c-3 27 4 33 36 29 15 -2 16 15 1 25 -18 11 -3 113 21 146 11 15 16 28 10 28 -13 0 -50 -60 -50 -82 0 -27 -15 -22 -44 16 -28 37 -45 98 -46 159 0 32 8 49 46 93 26 30 44 57 41 60 -3 4 -18 -8 -33 -26 -58 -69 -98 -100 -124 -98 -43 5 -38 46 12 107 92 113 108 134 108 144 0 6 -3 8 -6 4 -4 -3 -16 8 -28 26 -14 21 -46 44 -95 68 -80 39 -87 46 -94 103 -9 70 21 101 149 156 80 34 143 38 194 12z m100 -50 c0 -19 -17 -49 -23 -42 -2 3 -7 22 -11 43 -7 36 -6 38 13 27 12 -6 21 -18 21 -28z m24 -111 c20 -22 15 -50 -14 -76 -23 -20 -25 -16 -33 53 -4 35 -2 42 12 42 10 0 26 -9 35 -19z m33 -137 c6 -17 -54 -87 -69 -78 -4 3 -8 25 -8 50 0 44 0 44 35 44 23 0 38 -6 42 -16z m26 -105 c43 -12 45 -22 16 -85 -17 -38 -23 -43 -35 -34 -14 12 -74 112 -74 124 0 9 51 7 93 -5z m111 -145 c-1 -17 -10 -44 -20 -59 l-18 -28 -33 39 c-18 22 -31 44 -30 49 6 16 50 35 77 33 21 -3 25 -8 24 -34z m74 -130 c3 -20 -32 -74 -47 -74 -11 0 -42 81 -35 92 3 5 22 8 42 6 28 -3 38 -9 40 -24z m59 -121 c-9 -52 -20 -58 -56 -28 -49 42 -40 63 28 64 33 1 34 1 28 -36z m76 -55 c6 -8 7 -23 4 -32 -5 -13 -11 -14 -34 -4 -39 17 -38 16 -18 38 20 22 33 22 48 -2z m95 -40 c3 -15 -4 -18 -32 -18 -34 0 -47 15 -29 34 13 13 58 1 61 -16z" transform="translate(0.000000,133.000000) scale(0.100000,-0.100000)" stroke="none" fill="#261705"/>

<path d="M432 1198 c-17 -17 -24 -20 -34 -10 -26 26 -78 7 -78 -28 0 -11 -23 -26 -70 -44 -39 -16 -87 -43 -107 -62 -34 -33 -35 -36 -31 -93 5 -69 23 -96 77 -112 48 -14 115 -61 119 -83 7 -35 -9 -68 -62 -125 -64 -69 -78 -113 -48 -143 17 -17 25 -19 49 -10 l29 10 13 -74 c12 -73 44 -135 82 -162 25 -17 24 -54 -1 -70 -22 -14 -28 -66 -8 -78 7 -4 50 -7 97 -6 78 2 88 5 109 28 14 16 27 22 35 17 6 -4 121 -8 254 -9 255 -1 265 1 244 44 -37 78 -36 77 -72 77 -22 -1 -39 6 -47 17 -16 22 -45 23 -62 3 -18 -22 -33 -19 -20 4 5 11 10 33 10 50 0 24 -5 32 -25 37 -14 3 -32 4 -40 0 -19 -7 -19 -1 1 30 14 20 15 30 6 49 -10 21 -18 25 -57 25 -49 0 -50 1 -33 33 41 77 20 127 -47 108 -33 -9 -36 -8 -29 7 12 28 15 76 6 91 -5 7 -31 16 -56 18 l-47 6 25 26 c36 37 34 69 -4 85 -30 12 -30 13 -11 30 10 9 21 26 24 37 6 22 -27 69 -49 69 -17 0 -17 -1 2 45 14 33 14 39 -1 61 -10 15 -25 24 -41 24 -21 0 -25 3 -19 18 28 65 -33 110 -83 60z m76 -22 c2 -10 0 -22 -5 -27 -12 -12 -73 0 -73 15 0 37 72 48 78 12z m-131 -14 c-34 -4 -48 5 -27 18 8 5 22 4 34 -3 20 -11 20 -12 -7 -15z m93 -40 c49 -24 60 -67 61 -226 1 -160 22 -229 97 -316 64 -73 108 -139 137 -203 43 -96 120 -153 239 -176 44 -9 81 -21 83 -27 5 -15 -462 -17 -489 -3 -10 5 -18 21 -18 34 0 13 -5 27 -11 31 -8 4 -9 -6 -6 -33 10 -66 -6 -77 -104 -78 l-84 0 -3 27 c-3 27 4 33 36 29 15 -2 16 15 1 25 -18 11 -3 113 21 146 11 15 16 28 10 28 -13 0 -50 -60 -50 -82 0 -27 -15 -22 -44 16 -28 37 -45 98 -46 159 0 32 8 49 46 93 26 30 44 57 41 60 -3 4 -18 -8 -33 -26 -58 -69 -98 -100 -124 -98 -43 5 -38 46 12 107 92 113 108 134 108 144 0 6 -3 8 -6 4 -4 -3 -16 8 -28 26 -14 21 -46 44 -95 68 -80 39 -87 46 -94 103 -9 70 21 101 149 156 80 34 143 38 194 12z m100 -50 c0 -19 -17 -49 -23 -42 -2 3 -7 22 -11 43 -7 36 -6 38 13 27 12 -6 21 -18 21 -28z m24 -111 c20 -22 15 -50 -14 -76 -23 -20 -25 -16 -33 53 -4 35 -2 42 12 42 10 0 26 -9 35 -19z m33 -137 c6 -17 -54 -87 -69 -78 -4 3 -8 25 -8 50 0 44 0 44 35 44 23 0 38 -6 42 -16z m26 -105 c43 -12 45 -22 16 -85 -17 -38 -23 -43 -35 -34 -14 12 -74 112 -74 124 0 9 51 7 93 -5z m111 -145 c-1 -17 -10 -44 -20 -59 l-18 -28 -33 39 c-18 22 -31 44 -30 49 6 16 50 35 77 33 21 -3 25 -8 24 -34z m74 -130 c3 -20 -32 -74 -47 -74 -11 0 -42 81 -35 92 3 5 22 8 42 6 28 -3 38 -9 40 -24z m59 -121 c-9 -52 -20 -58 -56 -28 -49 42 -40 63 28 64 33 1 34 1 28 -36z m76 -55 c6 -8 7 -23 4 -32 -5 -13 -11 -14 -34 -4 -39 17 -38 16 -18 38 20 22 33 22 48 -2z m95 -40 c3 -15 -4 -18 -32 -18 -34 0 -47 15 -29 34 13 13 58 1 61 -16z" transform="translate(0.000000,133.000000) scale(0.100000,-0.100000)" stroke="none" fill="#261705"/>

<path d="M273 1023 c-18 -6 -16 -30 2 -37 9 -3 18 1 22 10 7 18 -7 33 -24 27z" transform="translate(0.000000,133.000000) scale(0.100000,-0.100000)" stroke="none" fill="#261705"/>

<path d="M610 692 c0 -4 9 -13 20 -20 19 -12 20 -11 8 8 -13 20 -28 27 -28 12z" transform="translate(0.000000,133.000000) scale(0.100000,-0.100000)" stroke="none" fill="#F7D71D"/>

</svg>