<?xml version="1.0" standalone="no"?>
<!DOCTYPE svg PUBLIC "-//W3C//DTD SVG 20010904//EN"
 "http://www.w3.org/TR/2001/REC-SVG-20010904/DTD/svg10.dtd">
<svg version="1.0" xmlns="http://www.w3.org/2000/svg" 
width="120.000000pt" height="102.000000pt" viewBox="0 0 120.000000 102.000000"
preserveAspectRatio = "xMidYMid meet" >
<metadata>
Created by potrace 1.16, written by Peter Selinger 2001-2019
</metadata>
<rect width="120.000000" height="102.000000" fill="#DCEAD9"/>
<path d="M281 486 c-63 -23 -90 -87 -56 -132 8 -10 15 -36 15 -56 0 -28 7 -42 28 -58 23 -19 36 -21 88 -17 33 2 82 14 110 26 53 24 107 69 98 83 -3 4 -41 8 -85 8 -71 0 -80 2 -77 18 3 14 16 17 81 20 42 2 77 6 77 11 0 10 -37 43 -73 66 -24 15 -134 45 -162 44 -5 0 -25 -6 -44 -13z" transform="translate(0.000000,102.000000) scale(0.100000,-0.100000)" stroke="none" fill="#AC352F"/>

<path d="M502 783 c-5 -9 -25 -21 -43 -27 -45 -15 -62 -50 -48 -102 21 -80 55 -134 112 -175 68 -49 74 -35 26 67 -26 54 -29 68 -18 75 8 5 17 9 20 9 12 0 38 -36 64 -87 14 -29 30 -53 35 -53 15 0 32 81 26 124 -9 61 -50 140 -84 164 -36 26 -77 28 -90 5z" transform="translate(0.000000,102.000000) scale(0.100000,-0.100000)" stroke="none" fill="#AC352F"/>

<path d="M556 253 c-30 -45 -56 -116 -56 -151 0 -13 5 -42 12 -63 l11 -39 118 0 117 0 11 48 c11 54 2 112 -28 170 -22 43 -58 78 -69 68 -4 -4 -9 -44 -12 -89 -4 -64 -8 -82 -21 -85 -23 -4 -39 41 -39 113 0 36 -4 65 -10 65 -5 0 -21 -17 -34 -37z" transform="translate(0.000000,102.000000) scale(0.100000,-0.100000)" stroke="none" fill="#AC352F"/>

<path d="M780 412 c0 -4 23 -25 51 -47 54 -42 74 -69 64 -85 -11 -18 -26 -10 -86 47 -32 31 -62 53 -66 50 -21 -22 60 -172 119 -222 54 -45 72 -44 130 14 67 67 69 99 11 151 -46 40 -109 74 -168 89 -48 13 -55 13 -55 3z" transform="translate(0.000000,102.000000) scale(0.100000,-0.100000)" stroke="none" fill="#AC352F"/>

<path d="M805 718 c-49 -38 -85 -106 -85 -160 0 -26 3 -48 8 -48 4 1 27 26 52 56 31 38 51 54 65 52 46 -7 0 -84 -85 -140 -19 -12 -22 -19 -13 -28 17 -18 115 13 156 50 19 16 45 49 58 74 28 53 20 93 -24 114 -15 7 -32 22 -37 33 -14 26 -60 25 -95 -3z" transform="translate(0.000000,102.000000) scale(0.100000,-0.100000)" stroke="none" fill="#AC352F"/>

<path d="M854 613 c12 -21 -21 -69 -74 -107 -56 -40 -63 -62 -24 -72 18 -5 22 -9 13 -15 -10 -6 -6 -14 16 -31 62 -48 108 -95 98 -101 -6 -4 -37 18 -71 48 -74 68 -87 70 -78 13 18 -113 162 -265 219 -231 27 16 107 114 107 131 0 23 -28 64 -66 96 -42 34 -132 76 -164 75 -21 -1 -19 -2 10 -10 55 -15 119 -50 163 -89 58 -52 56 -84 -11 -151 -58 -58 -76 -59 -130 -14 -59 50 -140 200 -119 222 4 3 34 -20 67 -51 57 -55 79 -64 88 -38 4 12 -20 38 -83 90 -30 25 -37 35 -26 41 11 7 11 9 0 14 -8 3 -4 6 9 6 50 2 138 66 168 123 24 46 15 44 -15 -3 -37 -59 -72 -86 -139 -105 -42 -12 -57 -13 -65 -4 -9 9 -6 16 13 28 80 54 123 114 99 136 -9 8 -10 8 -5 -1z" transform="translate(0.000000,102.000000) scale(0.100000,-0.100000)" stroke="none" fill="#C19789"/>

<path d="M402 486 c31 -7 70 -21 85 -31 36 -23 73 -56 73 -66 0 -5 -35 -9 -77 -11 -65 -3 -78 -6 -81 -20 -3 -16 6 -18 77 -18 44 0 82 -4 85 -8 8 -14 -45 -59 -97 -82 -26 -12 -76 -25 -110 -30 l-62 -9 68 4 c37 2 87 13 110 23 48 22 112 85 103 101 -4 7 -41 11 -89 11 -57 0 -77 3 -67 10 8 5 45 10 82 10 82 0 94 13 47 53 -50 42 -103 67 -156 72 l-48 5 57 -14z" transform="translate(0.000000,102.000000) scale(0.100000,-0.100000)" stroke="none" fill="#C19789"/>

<path d="M563 278 c-27 -30 -63 -102 -63 -125 1 -10 9 3 19 29 21 52 58 108 72 108 5 0 9 -29 9 -65 0 -72 16 -117 39 -113 13 3 17 21 21 85 3 45 8 85 12 89 20 19 80 -70 97 -143 8 -32 9 -34 10 -11 2 51 -66 168 -98 168 -23 0 -31 -27 -31 -107 0 -34 -5 -65 -10 -68 -17 -10 -32 47 -28 110 3 68 -13 82 -49 43z" transform="translate(0.000000,102.000000) scale(0.100000,-0.100000)" stroke="none" fill="#C19789"/>

<path d="M401 660 c-2 -60 75 -171 142 -207 60 -31 66 1 18 94 -11 23 -21 50 -21 59 0 15 2 15 21 -2 12 -10 32 -40 45 -66 13 -26 29 -50 35 -54 15 -9 39 23 38 50 -1 14 -4 10 -10 -11 -5 -18 -14 -33 -19 -33 -5 0 -21 24 -35 53 -26 51 -52 87 -64 87 -3 0 -12 -4 -20 -9 -11 -7 -8 -21 18 -75 48 -102 42 -116 -26 -67 -56 40 -91 95 -112 171 -7 29 -9 30 -10 10z" transform="translate(0.000000,102.000000) scale(0.100000,-0.100000)" stroke="none" fill="#C19789"/>

<path d="M1087 548 c3 -24 10 -54 17 -67 14 -31 83 -87 93 -76 5 4 2 10 -5 12 -11 4 -52 73 -52 88 0 11 24 4 42 -12 17 -15 18 -15 18 8 0 18 -13 33 -50 57 -27 17 -54 32 -59 32 -5 0 -7 -19 -4 -42z" transform="translate(0.000000,102.000000) scale(0.100000,-0.100000)" stroke="none" fill="#AC352F"/>

<path d="M1074 554 c3 -31 13 -69 21 -84 16 -31 74 -80 94 -80 7 0 -7 15 -31 33 -24 18 -48 44 -54 57 -16 35 -24 110 -12 110 5 0 29 -13 53 -30 47 -33 64 -38 45 -15 -15 18 -95 65 -111 65 -8 0 -10 -15 -5 -56z" transform="translate(0.000000,102.000000) scale(0.100000,-0.100000)" stroke="none" fill="#C19789"/>

<path d="M804 731 c-22 -16 -49 -47 -62 -69 -32 -57 -27 -64 7 -11 52 82 126 116 151 70 5 -11 22 -26 38 -33 16 -8 32 -27 39 -48 11 -33 12 -34 12 -7 1 15 -7 34 -16 42 -50 44 -106 85 -117 85 -7 0 -30 -13 -52 -29z" transform="translate(0.000000,102.000000) scale(0.100000,-0.100000)" stroke="none" fill="#C19789"/>

<path d="M492 785 c-12 -14 -18 -25 -12 -25 5 0 14 9 20 20 14 26 54 26 91 -1 37 -26 67 -83 85 -163 l14 -61 -5 55 c-7 69 -36 130 -81 170 -43 37 -82 39 -112 5z" transform="translate(0.000000,102.000000) scale(0.100000,-0.100000)" stroke="none" fill="#C19789"/>

<path d="M234 466 c-38 -38 -46 -87 -19 -122 8 -10 15 -34 15 -51 0 -33 29 -73 51 -73 7 0 0 9 -15 21 -19 15 -26 30 -26 57 0 20 -7 46 -15 56 -34 45 -7 109 56 132 29 10 30 13 11 13 -15 1 -38 -13 -58 -33z" transform="translate(0.000000,102.000000) scale(0.100000,-0.100000)" stroke="none" fill="#C19789"/>

<path d="M780 565 c-25 -29 -48 -54 -52 -55 -5 0 -8 21 -9 48 -1 38 -2 42 -9 22 -31 -95 7 -105 80 -20 29 33 48 60 43 60 -5 0 -29 -25 -53 -55z" transform="translate(0.000000,102.000000) scale(0.100000,-0.100000)" stroke="none" fill="#C19789"/>

<path d="M1140 505 c0 -15 42 -85 51 -85 5 0 3 10 -5 22 -21 29 -20 39 2 31 15 -6 15 -4 -2 15 -17 20 -46 30 -46 17z" transform="translate(0.000000,102.000000) scale(0.100000,-0.100000)" stroke="none" fill="#C19789"/>

<path d="M1105 1010 c3 -5 26 -10 51 -10 24 0 44 5 44 10 0 6 -23 10 -51 10 -31 0 -48 -4 -44 -10z" transform="translate(0.000000,102.000000) scale(0.100000,-0.100000)" stroke="none" fill="#AC352F"/>

<path d="M495 82 c2 -28 9 -60 15 -70 9 -14 10 -11 4 13 -4 17 -11 48 -15 70 -7 36 -8 35 -4 -13z" transform="translate(0.000000,102.000000) scale(0.100000,-0.100000)" stroke="none" fill="#C19789"/>

<path d="M1094 1005 c12 -9 38 -14 65 -13 l46 1 -45 4 c-25 3 -49 8 -54 14 -6 5 -15 9 -20 9 -6 0 -2 -7 8 -15z" transform="translate(0.000000,102.000000) scale(0.100000,-0.100000)" stroke="none" fill="#C19789"/>

<path d="M416 741 c-10 -11 -16 -26 -13 -33 4 -9 6 -7 6 4 1 9 11 24 23 32 12 9 18 16 12 16 -6 0 -19 -9 -28 -19z" transform="translate(0.000000,102.000000) scale(0.100000,-0.100000)" stroke="none" fill="#C19789"/>

<path d="M771 65 c-1 -11 -4 -31 -7 -45 -5 -22 -4 -23 6 -7 6 10 9 30 7 45 -3 18 -5 20 -6 7z" transform="translate(0.000000,102.000000) scale(0.100000,-0.100000)" stroke="none" fill="#C19789"/>

</svg>