<?xml version="1.0" standalone="no"?>
<!DOCTYPE svg PUBLIC "-//W3C//DTD SVG 20010904//EN"
 "http://www.w3.org/TR/2001/REC-SVG-20010904/DTD/svg10.dtd">
<svg version="1.0" xmlns="http://www.w3.org/2000/svg" 
width="84.000000pt" height="84.000000pt" viewBox="0 0 84.000000 84.000000"
preserveAspectRatio = "xMidYMid meet" >
<metadata>
Created by potrace 1.16, written by Peter Selinger 2001-2019
</metadata>
<rect width="84.000000" height="84.000000" fill="#DBC5B2"/>
<path d="M366 607 c-15 -19 -26 -40 -26 -48 0 -25 -30 -59 -52 -59 -11 0 -33 -9 -49 -21 -76 -54 -54 -106 63 -148 18 -7 30 -20 34 -38 4 -15 16 -40 26 -56 47 -66 96 -56 133 28 22 49 30 58 79 79 59 26 81 54 72 91 -6 25 -66 65 -97 65 -14 0 -26 14 -41 48 -43 98 -96 120 -142 59z m82 -123 c12 -4 29 -19 38 -35 13 -26 13 -32 0 -58 -9 -16 -23 -31 -31 -35 -80 -30 -144 62 -79 113 29 23 36 24 72 15z" transform="translate(0.000000,84.000000) scale(0.100000,-0.100000)" stroke="none" fill="#E76656"/>

<path d="M366 607 c-15 -19 -26 -40 -26 -48 0 -25 -30 -59 -52 -59 -11 0 -33 -9 -49 -21 -76 -54 -54 -106 63 -148 18 -7 30 -20 34 -38 4 -15 16 -40 26 -56 47 -66 96 -56 133 28 22 49 30 58 79 79 59 26 81 54 72 91 -6 25 -66 65 -97 65 -14 0 -26 14 -41 48 -43 98 -96 120 -142 59z m82 -123 c12 -4 29 -19 38 -35 13 -26 13 -32 0 -58 -9 -16 -23 -31 -31 -35 -80 -30 -144 62 -79 113 29 23 36 24 72 15z" transform="translate(0.000000,84.000000) scale(0.100000,-0.100000)" stroke="none" fill="#E76656"/>

<path d="M723 814 c-55 -62 0 -178 63 -136 24 15 54 84 54 122 l0 40 -47 0 c-39 0 -52 -5 -70 -26z" transform="translate(0.000000,84.000000) scale(0.100000,-0.100000)" stroke="none" fill="#F7F7F7"/>

<path d="M393 480 c-76 -31 -34 -143 47 -125 33 7 50 30 50 68 0 42 -54 74 -97 57z" transform="translate(0.000000,84.000000) scale(0.100000,-0.100000)" stroke="none" fill="#336BB0"/>

<path d="M7 823 c3 -10 21 -37 40 -60 25 -32 42 -43 62 -43 54 0 67 46 26 93 -21 23 -32 27 -79 27 -48 0 -55 -2 -49 -17z" transform="translate(0.000000,84.000000) scale(0.100000,-0.100000)" stroke="none" fill="#F7F7F7"/>

<path d="M537 622 c-23 -25 -21 -53 4 -81 27 -29 66 -24 92 10 17 24 18 30 6 55 -18 37 -75 46 -102 16z" transform="translate(0.000000,84.000000) scale(0.100000,-0.100000)" stroke="none" fill="#336BB0"/>

<path d="M204 615 c-19 -19 -23 -31 -18 -48 11 -36 25 -47 59 -47 59 0 84 56 45 98 -27 29 -55 28 -86 -3z" transform="translate(0.000000,84.000000) scale(0.100000,-0.100000)" stroke="none" fill="#336BB0"/>

<path d="M542 307 c-28 -30 -28 -48 1 -75 30 -29 71 -28 91 0 21 30 20 54 -4 78 -27 27 -62 25 -88 -3z" transform="translate(0.000000,84.000000) scale(0.100000,-0.100000)" stroke="none" fill="#336BB0"/>

<path d="M217 320 c-36 -29 -37 -73 -1 -96 58 -38 119 28 77 84 -26 35 -43 38 -76 12z" transform="translate(0.000000,84.000000) scale(0.100000,-0.100000)" stroke="none" fill="#336BB0"/>

<path d="M66 60 c-20 -22 -36 -45 -36 -50 0 -6 28 -10 65 -10 l65 0 0 38 c0 72 -40 82 -94 22z" transform="translate(0.000000,84.000000) scale(0.100000,-0.100000)" stroke="none" fill="#F7F7F7"/>

<path d="M555 648 c-30 -16 -45 -39 -45 -69 0 -33 41 -69 77 -69 27 0 73 41 73 64 0 28 -22 64 -47 75 -29 13 -33 13 -58 -1z m84 -42 c12 -25 11 -31 -6 -55 -26 -34 -65 -39 -92 -10 -42 46 -14 102 48 97 28 -2 39 -9 50 -32z" transform="translate(0.000000,84.000000) scale(0.100000,-0.100000)" stroke="none" fill="#8895AF"/>

<path d="M230 343 c-51 -19 -68 -85 -30 -123 61 -61 154 27 104 98 -8 12 -20 22 -25 22 -5 0 0 -14 13 -30 18 -24 20 -35 12 -57 -22 -64 -119 -47 -112 20 2 23 12 38 37 54 33 22 33 28 1 16z" transform="translate(0.000000,84.000000) scale(0.100000,-0.100000)" stroke="none" fill="#8895AF"/>

<path d="M561 339 c-27 -11 -50 -37 -51 -57 0 -8 12 0 26 17 30 36 65 40 94 11 24 -24 25 -48 4 -78 -19 -28 -65 -29 -89 -2 -10 11 -20 18 -23 15 -3 -3 3 -14 13 -25 25 -28 76 -26 103 3 31 33 28 70 -9 101 -34 29 -34 29 -68 15z" transform="translate(0.000000,84.000000) scale(0.100000,-0.100000)" stroke="none" fill="#8895AF"/>

<path d="M202 634 c-12 -8 -22 -21 -22 -29 0 -9 9 -6 25 10 30 31 58 32 85 3 42 -45 11 -102 -51 -96 -23 2 -37 10 -45 26 -16 32 -24 38 -17 13 7 -27 49 -61 75 -61 10 0 30 11 43 25 34 33 33 77 -1 104 -32 25 -61 27 -92 5z" transform="translate(0.000000,84.000000) scale(0.100000,-0.100000)" stroke="none" fill="#8895AF"/>

<path d="M683 40 c-51 -31 -41 -40 47 -40 44 0 80 4 80 8 0 17 -47 52 -71 52 -13 0 -39 -9 -56 -20z" transform="translate(0.000000,84.000000) scale(0.100000,-0.100000)" stroke="none" fill="#F7F7F7"/>

<path d="M815 670 c-3 -5 1 -10 9 -10 9 0 16 5 16 10 0 6 -4 10 -9 10 -6 0 -13 -4 -16 -10z" transform="translate(0.000000,84.000000) scale(0.100000,-0.100000)" stroke="none" fill="#F7F7F7"/>

<path d="M826 15 c-3 -8 -1 -15 4 -15 6 0 10 7 10 15 0 8 -2 15 -4 15 -2 0 -6 -7 -10 -15z" transform="translate(0.000000,84.000000) scale(0.100000,-0.100000)" stroke="none" fill="#F7F7F7"/>

</svg>