<?xml version="1.0" standalone="no"?>
<!DOCTYPE svg PUBLIC "-//W3C//DTD SVG 20010904//EN"
 "http://www.w3.org/TR/2001/REC-SVG-20010904/DTD/svg10.dtd">
<svg version="1.0" xmlns="http://www.w3.org/2000/svg" 
width="144.000000pt" height="145.000000pt" viewBox="0 0 144.000000 145.000000"
preserveAspectRatio = "xMidYMid meet" >
<metadata>
Created by potrace 1.16, written by Peter Selinger 2001-2019
</metadata>
<rect width="144.000000" height="145.000000" fill="#F1C2BD"/>
<path d="M693 1288 c-30 -34 -43 -63 -43 -100 0 -18 -6 -40 -13 -49 -13 -17 -8 -180 8 -261 5 -24 3 -38 -3 -38 -17 0 -49 60 -87 165 -62 172 -99 218 -156 195 -28 -12 -29 -14 -29 -84 0 -82 24 -142 85 -213 20 -23 31 -44 26 -47 -4 -3 -46 11 -92 31 -69 30 -96 37 -154 37 l-70 1 1 -44 c1 -36 6 -49 28 -66 31 -25 25 -35 -21 -35 -26 0 -33 -4 -33 -20 0 -28 34 -46 129 -69 46 -11 88 -24 94 -30 8 -8 -86 -51 -112 -51 -13 0 -70 -76 -77 -104 -6 -25 -5 -26 45 -26 28 0 73 9 101 19 33 13 52 16 57 9 3 -6 -1 -16 -9 -22 -93 -68 -143 -147 -104 -162 19 -7 43 6 134 76 42 33 78 57 80 55 2 -2 -3 -18 -12 -34 -9 -17 -23 -43 -30 -59 -18 -33 -41 -165 -33 -186 9 -23 63 -20 97 4 16 11 38 44 51 75 12 30 25 52 29 50 4 -2 12 -36 19 -75 14 -75 24 -87 65 -76 38 10 56 69 56 191 0 58 4 105 8 105 4 0 23 -37 42 -82 26 -65 46 -96 95 -145 49 -51 67 -63 92 -63 29 0 33 4 39 34 3 19 3 48 -1 65 -6 30 -55 101 -107 157 -21 23 -26 34 -18 39 8 5 28 -9 54 -37 44 -49 119 -91 177 -102 77 -14 125 34 95 93 -13 25 -42 44 -136 91 -110 55 -139 75 -128 86 3 2 23 -2 46 -10 23 -8 77 -20 122 -27 71 -10 86 -9 126 6 45 17 70 46 60 70 -7 20 -49 45 -119 70 -61 23 -62 23 -34 34 16 6 35 11 43 11 23 0 51 17 58 36 19 49 -64 58 -181 20 -42 -13 -24 11 25 34 71 33 109 66 122 105 18 55 1 69 -75 63 -64 -6 -112 -26 -202 -86 -29 -19 -56 -32 -59 -29 -8 8 28 60 83 120 93 101 109 197 32 197 -28 0 -99 -67 -99 -94 0 -8 -11 -27 -24 -43 -13 -15 -45 -71 -71 -123 -27 -52 -50 -89 -53 -82 -2 7 3 50 12 95 18 95 31 305 21 336 -9 28 -46 27 -72 -1z m92 -530 l40 -13 -4 -60 c-7 -118 -45 -149 -171 -139 -44 4 -85 12 -90 19 -18 22 -24 111 -10 146 21 50 64 71 135 66 33 -3 78 -11 100 -19z" transform="translate(0.000000,145.000000) scale(0.100000,-0.100000)" stroke="none" fill="#FAF9F7"/>

<path d="M693 1288 c-30 -34 -43 -63 -43 -100 0 -18 -6 -40 -13 -49 -13 -17 -8 -180 8 -261 5 -24 3 -38 -3 -38 -17 0 -49 60 -87 165 -62 172 -99 218 -156 195 -28 -12 -29 -14 -29 -84 0 -82 24 -142 85 -213 20 -23 31 -44 26 -47 -4 -3 -46 11 -92 31 -69 30 -96 37 -154 37 l-70 1 1 -44 c1 -36 6 -49 28 -66 31 -25 25 -35 -21 -35 -26 0 -33 -4 -33 -20 0 -28 34 -46 129 -69 46 -11 88 -24 94 -30 8 -8 -86 -51 -112 -51 -13 0 -70 -76 -77 -104 -6 -25 -5 -26 45 -26 28 0 73 9 101 19 33 13 52 16 57 9 3 -6 -1 -16 -9 -22 -93 -68 -143 -147 -104 -162 19 -7 43 6 134 76 42 33 78 57 80 55 2 -2 -3 -18 -12 -34 -9 -17 -23 -43 -30 -59 -18 -33 -41 -165 -33 -186 9 -23 63 -20 97 4 16 11 38 44 51 75 12 30 25 52 29 50 4 -2 12 -36 19 -75 14 -75 24 -87 65 -76 38 10 56 69 56 191 0 58 4 105 8 105 4 0 23 -37 42 -82 26 -65 46 -96 95 -145 49 -51 67 -63 92 -63 29 0 33 4 39 34 3 19 3 48 -1 65 -6 30 -55 101 -107 157 -21 23 -26 34 -18 39 8 5 28 -9 54 -37 44 -49 119 -91 177 -102 77 -14 125 34 95 93 -13 25 -42 44 -136 91 -110 55 -139 75 -128 86 3 2 23 -2 46 -10 23 -8 77 -20 122 -27 71 -10 86 -9 126 6 45 17 70 46 60 70 -7 20 -49 45 -119 70 -61 23 -62 23 -34 34 16 6 35 11 43 11 23 0 51 17 58 36 19 49 -64 58 -181 20 -42 -13 -24 11 25 34 71 33 109 66 122 105 18 55 1 69 -75 63 -64 -6 -112 -26 -202 -86 -29 -19 -56 -32 -59 -29 -8 8 28 60 83 120 93 101 109 197 32 197 -28 0 -99 -67 -99 -94 0 -8 -11 -27 -24 -43 -13 -15 -45 -71 -71 -123 -27 -52 -50 -89 -53 -82 -2 7 3 50 12 95 18 95 31 305 21 336 -9 28 -46 27 -72 -1z m92 -530 l40 -13 -4 -60 c-7 -118 -45 -149 -171 -139 -44 4 -85 12 -90 19 -18 22 -24 111 -10 146 21 50 64 71 135 66 33 -3 78 -11 100 -19z" transform="translate(0.000000,145.000000) scale(0.100000,-0.100000)" stroke="none" fill="#FAF9F7"/>

<path d="M1202 937 c-15 -41 -52 -74 -124 -107 -49 -23 -67 -47 -25 -34 117 38 200 29 181 -20 -7 -19 -35 -36 -58 -36 -8 0 -27 -5 -43 -11 -28 -11 -27 -11 34 -34 70 -25 112 -50 119 -70 10 -24 -15 -53 -60 -70 -40 -15 -55 -16 -126 -6 -45 7 -99 19 -122 27 -23 8 -43 12 -46 10 -11 -11 18 -31 128 -86 94 -47 123 -66 136 -91 30 -59 -18 -107 -95 -93 -58 11 -133 53 -177 102 -26 28 -46 42 -54 37 -8 -5 -3 -16 18 -39 90 -96 121 -162 107 -225 -6 -27 -11 -31 -38 -31 -25 0 -43 12 -92 63 -49 49 -69 80 -95 145 -19 45 -38 82 -42 82 -4 0 -8 -47 -8 -105 0 -122 -18 -181 -56 -191 -41 -11 -51 1 -65 76 -7 39 -15 73 -19 75 -4 2 -17 -20 -29 -50 -27 -65 -67 -98 -113 -93 -41 4 -45 25 -25 120 11 54 11 65 0 61 -22 -9 -14 12 9 22 20 9 65 81 56 90 -2 2 -38 -22 -80 -55 -115 -88 -133 -95 -147 -58 l-8 23 -8 -24 c-15 -49 68 -70 119 -30 41 33 51 14 32 -61 -21 -81 -20 -96 6 -114 47 -33 138 -5 158 49 14 36 23 31 50 -21 l23 -46 45 5 c59 6 85 35 76 82 -6 33 10 79 25 73 5 -2 34 -33 66 -70 66 -78 108 -97 157 -72 44 23 55 55 35 105 -15 38 -14 69 3 69 4 0 22 -7 39 -16 38 -19 116 -13 140 11 9 9 15 34 15 66 0 49 -3 55 -43 90 -40 34 -42 38 -25 47 11 5 41 13 68 17 108 15 131 109 41 165 -40 25 -43 39 -15 65 30 27 22 66 -15 85 -16 8 -32 16 -34 17 -2 2 2 9 8 17 7 8 11 34 9 58 l-3 43 -13 -38z" transform="translate(0.000000,145.000000) scale(0.100000,-0.100000)" stroke="none" fill="#E9D0CD"/>

<path d="M1202 937 c-15 -41 -52 -74 -124 -107 -49 -23 -67 -47 -25 -34 117 38 200 29 181 -20 -7 -19 -35 -36 -58 -36 -8 0 -27 -5 -43 -11 -28 -11 -27 -11 34 -34 70 -25 112 -50 119 -70 10 -24 -15 -53 -60 -70 -40 -15 -55 -16 -126 -6 -45 7 -99 19 -122 27 -23 8 -43 12 -46 10 -11 -11 18 -31 128 -86 94 -47 123 -66 136 -91 30 -59 -18 -107 -95 -93 -58 11 -133 53 -177 102 -26 28 -46 42 -54 37 -8 -5 -3 -16 18 -39 90 -96 121 -162 107 -225 -6 -27 -11 -31 -38 -31 -25 0 -43 12 -92 63 -49 49 -69 80 -95 145 -19 45 -38 82 -42 82 -4 0 -8 -47 -8 -105 0 -122 -18 -181 -56 -191 -41 -11 -51 1 -65 76 -7 39 -15 73 -19 75 -4 2 -17 -20 -29 -50 -27 -65 -67 -98 -113 -93 -41 4 -45 25 -25 120 11 54 11 65 0 61 -22 -9 -14 12 9 22 20 9 65 81 56 90 -2 2 -38 -22 -80 -55 -115 -88 -133 -95 -147 -58 l-8 23 -8 -24 c-15 -49 68 -70 119 -30 41 33 51 14 32 -61 -21 -81 -20 -96 6 -114 47 -33 138 -5 158 49 14 36 23 31 50 -21 l23 -46 45 5 c59 6 85 35 76 82 -6 33 10 79 25 73 5 -2 34 -33 66 -70 66 -78 108 -97 157 -72 44 23 55 55 35 105 -15 38 -14 69 3 69 4 0 22 -7 39 -16 38 -19 116 -13 140 11 9 9 15 34 15 66 0 49 -3 55 -43 90 -40 34 -42 38 -25 47 11 5 41 13 68 17 108 15 131 109 41 165 -40 25 -43 39 -15 65 30 27 22 66 -15 85 -16 8 -32 16 -34 17 -2 2 2 9 8 17 7 8 11 34 9 58 l-3 43 -13 -38z" transform="translate(0.000000,145.000000) scale(0.100000,-0.100000)" stroke="none" fill="#E9D0CD"/>

<path d="M594 762 c-41 -26 -58 -70 -51 -133 4 -28 11 -57 17 -64 5 -7 46 -15 90 -19 126 -10 164 21 171 139 l4 60 -40 13 c-71 24 -156 26 -191 4z" transform="translate(0.000000,145.000000) scale(0.100000,-0.100000)" stroke="none" fill="#E9D0CD"/>

<path d="M373 1203 c-10 -16 -22 -31 -27 -35 -6 -4 -3 -42 8 -100 10 -51 19 -102 19 -113 3 -29 -31 -30 -102 -5 -46 17 -63 20 -80 11 -32 -18 -45 -51 -46 -118 l0 -63 31 0 c43 0 49 10 18 35 -22 17 -27 30 -28 66 l-1 44 70 -1 c58 0 85 -7 154 -37 46 -20 88 -34 92 -31 5 3 -6 24 -26 47 -61 71 -85 131 -85 213 0 70 1 72 29 84 57 23 94 -23 156 -195 38 -105 70 -165 87 -165 6 0 8 14 3 38 -4 20 -10 82 -14 137 -5 76 -9 93 -15 70 -14 -53 -16 -57 -33 -53 -10 2 -22 20 -29 43 -17 60 -61 142 -79 149 -9 3 -32 6 -51 6 -26 0 -38 -6 -51 -27z" transform="translate(0.000000,145.000000) scale(0.100000,-0.100000)" stroke="none" fill="#E9D0CD"/>

<path d="M678 1304 c-23 -25 -35 -49 -39 -82 -4 -26 -10 -60 -14 -77 -7 -29 -7 -29 8 -10 9 11 17 35 17 53 0 83 95 165 115 101 10 -31 -3 -241 -21 -336 -9 -45 -14 -88 -12 -95 3 -7 23 23 46 68 34 68 38 82 25 90 -13 8 -13 26 -4 137 12 143 9 159 -40 176 -44 15 -45 15 -81 -25z" transform="translate(0.000000,145.000000) scale(0.100000,-0.100000)" stroke="none" fill="#E9D0CD"/>

<path d="M970 1210 c-12 -8 -10 -10 11 -10 75 0 58 -97 -34 -197 -55 -60 -91 -112 -83 -120 3 -3 30 10 59 29 29 20 73 46 97 58 55 28 152 38 177 19 17 -13 17 -13 4 4 -13 16 -27 18 -90 15 -100 -4 -106 1 -76 59 24 44 34 126 18 136 -20 12 -70 16 -83 7z" transform="translate(0.000000,145.000000) scale(0.100000,-0.100000)" stroke="none" fill="#E9D0CD"/>

<path d="M126 761 c-4 -7 -5 -23 -2 -36 5 -20 19 -28 77 -45 65 -20 71 -24 67 -45 -5 -23 -4 -23 34 -9 89 31 87 36 -33 65 -95 23 -118 33 -128 61 -5 15 -10 18 -15 9z" transform="translate(0.000000,145.000000) scale(0.100000,-0.100000)" stroke="none" fill="#E9D0CD"/>

<path d="M320 499 c-25 -10 -69 -18 -97 -18 -53 -1 -60 -5 -44 -29 6 -10 19 -11 46 -6 31 5 41 3 51 -11 12 -17 16 -15 56 20 66 59 62 73 -12 44z" transform="translate(0.000000,145.000000) scale(0.100000,-0.100000)" stroke="none" fill="#E9D0CD"/>

<path d="M912 1188 c-7 -7 -12 -17 -12 -23 0 -7 -9 -20 -21 -31 -23 -20 -42 -54 -54 -94 -6 -21 -2 -18 24 14 17 21 31 45 31 52 0 8 16 32 36 54 22 24 31 40 22 40 -8 0 -19 -5 -26 -12z" transform="translate(0.000000,145.000000) scale(0.100000,-0.100000)" stroke="none" fill="#E9D0CD"/>

<path d="M0 30 c0 -11 6 -20 13 -20 6 0 22 -3 35 -6 32 -9 27 13 -8 31 -37 19 -40 19 -40 -5z" transform="translate(0.000000,145.000000) scale(0.100000,-0.100000)" stroke="none" fill="#E9D0CD"/>

<path d="M7 141 c-4 -18 -7 -43 -7 -54 0 -20 1 -20 16 -5 13 13 15 24 7 55 l-9 38 -7 -34z" transform="translate(0.000000,145.000000) scale(0.100000,-0.100000)" stroke="none" fill="#E9D0CD"/>

<path d="M210 603 c-19 -8 -30 -23 -30 -46 0 -23 13 -15 40 23 21 30 19 34 -10 23z" transform="translate(0.000000,145.000000) scale(0.100000,-0.100000)" stroke="none" fill="#E9D0CD"/>

<path d="M260 395 c-7 -9 -10 -18 -7 -21 3 -3 10 4 17 15 13 25 8 27 -10 6z" transform="translate(0.000000,145.000000) scale(0.100000,-0.100000)" stroke="none" fill="#E9D0CD"/>

<path d="M2 155 c0 -16 2 -22 5 -12 2 9 2 23 0 30 -3 6 -5 -1 -5 -18z" transform="translate(0.000000,145.000000) scale(0.100000,-0.100000)" stroke="none" fill="#FAF9F7"/>

<path d="M7 3 c7 -2 19 -2 26 0 6 3 1 5 -13 5 -14 0 -19 -2 -13 -5z" transform="translate(0.000000,145.000000) scale(0.100000,-0.100000)" stroke="none" fill="#FAF9F7"/>

</svg>