<?xml version="1.0" standalone="no"?>
<!DOCTYPE svg PUBLIC "-//W3C//DTD SVG 20010904//EN"
 "http://www.w3.org/TR/2001/REC-SVG-20010904/DTD/svg10.dtd">
<svg version="1.0" xmlns="http://www.w3.org/2000/svg" 
width="144.000000pt" height="146.000000pt" viewBox="0 0 144.000000 146.000000"
preserveAspectRatio = "xMidYMid meet" >
<metadata>
Created by potrace 1.16, written by Peter Selinger 2001-2019
</metadata>
<rect width="144.000000" height="146.000000" fill="#E2E6E7"/>
<path d="M612 1203 c-21 -25 -32 -48 -32 -68 0 -17 -5 -36 -10 -41 -22 -22 51 -234 81 -234 5 0 9 -7 9 -15 0 -26 -21 -17 -62 26 -39 41 -58 44 -58 8 0 -24 -12 -24 -34 0 -9 10 -38 24 -64 30 -26 7 -62 16 -81 21 -73 19 -141 -43 -141 -128 0 -23 4 -50 9 -60 5 -9 19 -52 32 -94 20 -68 27 -81 60 -103 21 -14 42 -25 47 -25 5 0 28 -38 51 -84 32 -63 48 -86 67 -90 20 -5 24 -13 24 -41 0 -57 16 -85 47 -85 82 0 196 153 210 279 3 37 11 62 19 65 8 3 14 17 14 31 0 23 4 25 44 25 25 0 48 5 51 10 3 6 25 10 49 10 71 0 139 27 207 81 76 61 77 61 71 100 -5 31 -42 59 -81 59 -12 0 -37 22 -66 60 -25 33 -59 67 -75 75 -18 9 -32 27 -36 43 -16 68 -112 136 -239 171 -63 17 -79 14 -113 -26z m117 -94 c79 -29 109 -47 121 -68 8 -16 4 -25 -27 -53 -20 -18 -58 -55 -85 -82 -27 -27 -50 -47 -52 -45 -15 19 -37 102 -42 159 -6 60 -4 73 11 90 10 11 19 20 19 20 1 0 25 -9 55 -21z m251 -229 c12 -17 35 -37 52 -46 27 -14 32 -14 55 1 19 13 28 14 36 6 18 -18 -4 -44 -44 -54 -19 -4 -49 -15 -68 -24 -24 -11 -51 -14 -90 -10 -57 5 -154 44 -148 60 2 7 159 91 179 95 4 1 16 -12 28 -28z m-550 -40 c16 0 32 -4 35 -10 3 -5 15 -10 25 -10 20 0 120 -75 120 -90 0 -6 -11 -10 -25 -10 -32 0 -113 -41 -139 -69 -37 -41 -74 -18 -92 59 -5 19 -9 40 -10 45 0 6 -4 27 -9 49 -9 45 5 59 42 45 14 -5 37 -9 53 -9z m235 -128 c-8 -8 -25 10 -19 20 4 6 9 5 15 -3 4 -7 6 -15 4 -17z m-5 -150 c0 -49 -6 -86 -15 -102 -25 -44 -39 -75 -40 -93 -3 -25 -37 -59 -48 -48 -5 5 -11 37 -14 72 -3 35 -12 74 -19 86 -8 12 -14 28 -14 36 0 19 127 140 140 132 5 -3 10 -41 10 -83z" transform="translate(0.000000,146.000000) scale(0.100000,-0.100000)" stroke="none" fill="#024C5C"/>

<path d="M612 1203 c-21 -25 -32 -48 -32 -68 0 -17 -5 -36 -10 -41 -22 -22 51 -234 81 -234 5 0 9 -7 9 -15 0 -26 -21 -17 -62 26 -39 41 -58 44 -58 8 0 -24 -12 -24 -34 0 -9 10 -38 24 -64 30 -26 7 -62 16 -81 21 -73 19 -141 -43 -141 -128 0 -23 4 -50 9 -60 5 -9 19 -52 32 -94 20 -68 27 -81 60 -103 21 -14 42 -25 47 -25 5 0 28 -38 51 -84 32 -63 48 -86 67 -90 20 -5 24 -13 24 -41 0 -57 16 -85 47 -85 82 0 196 153 210 279 3 37 11 62 19 65 8 3 14 17 14 31 0 23 4 25 44 25 25 0 48 5 51 10 3 6 25 10 49 10 71 0 139 27 207 81 76 61 77 61 71 100 -5 31 -42 59 -81 59 -12 0 -37 22 -66 60 -25 33 -59 67 -75 75 -18 9 -32 27 -36 43 -16 68 -112 136 -239 171 -63 17 -79 14 -113 -26z m117 -94 c79 -29 109 -47 121 -68 8 -16 4 -25 -27 -53 -20 -18 -58 -55 -85 -82 -27 -27 -50 -47 -52 -45 -15 19 -37 102 -42 159 -6 60 -4 73 11 90 10 11 19 20 19 20 1 0 25 -9 55 -21z m251 -229 c12 -17 35 -37 52 -46 27 -14 32 -14 55 1 19 13 28 14 36 6 18 -18 -4 -44 -44 -54 -19 -4 -49 -15 -68 -24 -24 -11 -51 -14 -90 -10 -57 5 -154 44 -148 60 2 7 159 91 179 95 4 1 16 -12 28 -28z m-550 -40 c16 0 32 -4 35 -10 3 -5 15 -10 25 -10 20 0 120 -75 120 -90 0 -6 -11 -10 -25 -10 -32 0 -113 -41 -139 -69 -37 -41 -74 -18 -92 59 -5 19 -9 40 -10 45 0 6 -4 27 -9 49 -9 45 5 59 42 45 14 -5 37 -9 53 -9z m235 -128 c-8 -8 -25 10 -19 20 4 6 9 5 15 -3 4 -7 6 -15 4 -17z m-5 -150 c0 -49 -6 -86 -15 -102 -25 -44 -39 -75 -40 -93 -3 -25 -37 -59 -48 -48 -5 5 -11 37 -14 72 -3 35 -12 74 -19 86 -8 12 -14 28 -14 36 0 19 127 140 140 132 5 -3 10 -41 10 -83z" transform="translate(0.000000,146.000000) scale(0.100000,-0.100000)" stroke="none" fill="#024C5C"/>

<path d="M640 1248 c-75 -65 -97 -132 -77 -233 6 -33 14 -62 18 -65 10 -8 41 -71 36 -76 -2 -2 -14 7 -27 21 -24 26 -50 33 -50 14 0 -5 4 -7 10 -4 5 3 27 -12 48 -34 41 -43 62 -52 62 -26 0 8 -4 15 -9 15 -30 0 -103 212 -81 234 5 5 10 24 10 41 0 22 11 44 35 70 l34 39 55 -11 c31 -7 89 -28 130 -47 77 -37 118 -77 130 -128 4 -16 18 -34 36 -43 16 -8 50 -42 75 -75 29 -38 54 -60 66 -60 39 0 76 -28 81 -59 6 -39 5 -39 -71 -100 -68 -54 -136 -81 -207 -81 -24 0 -46 -4 -49 -10 -3 -5 -26 -10 -51 -10 -40 0 -44 -2 -44 -25 0 -14 -6 -28 -14 -31 -8 -3 -16 -28 -19 -65 -14 -126 -128 -279 -210 -279 -31 0 -47 28 -47 85 0 28 -4 36 -24 41 -19 4 -35 27 -67 90 -23 46 -46 84 -51 84 -5 0 -26 11 -47 25 -33 22 -40 35 -60 103 -13 42 -27 85 -32 94 -5 10 -10 35 -10 55 -2 33 -3 34 -6 9 -4 -27 1 -51 39 -180 15 -50 41 -82 84 -104 26 -13 43 -36 72 -92 25 -50 47 -79 65 -88 22 -11 27 -20 27 -50 0 -111 105 -108 190 4 43 57 73 117 85 172 6 30 25 55 25 33 0 -6 5 -11 11 -11 8 0 10 19 7 58 l-4 59 50 -5 c28 -2 59 -8 68 -13 26 -14 29 -11 22 16 -5 20 -2 25 13 25 51 0 139 32 165 61 15 16 31 29 35 29 5 0 23 13 41 29 46 43 45 91 -2 120 -18 12 -43 21 -55 21 -11 0 -28 8 -36 18 -71 83 -99 112 -115 117 -10 3 -21 17 -24 30 -16 62 -48 96 -130 137 -73 36 -103 48 -171 64 -11 3 -27 -1 -35 -8z" transform="translate(0.000000,146.000000) scale(0.100000,-0.100000)" stroke="none" fill="#73989F"/>

<path d="M860 864 c-46 -23 -86 -46 -87 -51 -2 -5 20 -20 48 -34 61 -28 178 -34 201 -10 11 12 10 13 -7 6 -46 -19 -104 -17 -165 6 -33 13 -60 26 -60 29 0 3 36 23 80 44 l80 39 46 -43 c46 -42 55 -44 109 -23 12 4 16 2 13 -7 -2 -8 -19 -18 -37 -23 -18 -4 -31 -10 -29 -12 9 -9 62 12 72 28 18 28 -6 42 -37 22 -23 -15 -28 -15 -55 -1 -17 9 -40 29 -52 46 -12 16 -24 29 -28 28 -4 0 -45 -20 -92 -44z" transform="translate(0.000000,146.000000) scale(0.100000,-0.100000)" stroke="none" fill="#73989F"/>

<path d="M655 1110 c-15 -17 -17 -30 -11 -90 5 -57 27 -140 42 -159 2 -2 25 18 52 45 27 27 65 64 85 82 55 50 38 71 -94 121 -30 12 -54 21 -55 21 0 0 -9 -9 -19 -20z m43 1 c9 -5 44 -20 77 -33 74 -29 80 -50 29 -93 -20 -16 -54 -47 -75 -69 l-38 -39 -12 29 c-22 56 -30 178 -14 203 8 13 11 13 33 2z" transform="translate(0.000000,146.000000) scale(0.100000,-0.100000)" stroke="none" fill="#73989F"/>

<path d="M340 850 c-9 -6 -10 -19 -5 -46 4 -22 9 -50 11 -63 2 -13 6 -26 10 -30 7 -7 0 57 -11 102 l-7 27 58 -6 c33 -4 61 -11 62 -16 2 -4 13 -8 25 -8 30 -1 120 -80 92 -80 -26 0 -93 -35 -126 -66 -35 -33 -57 -30 -74 9 -8 17 -14 25 -15 17 0 -24 29 -60 49 -60 10 0 26 9 37 21 26 28 107 69 139 69 14 0 25 4 25 10 0 15 -100 90 -120 90 -10 0 -22 5 -25 10 -3 6 -19 10 -35 10 -16 0 -39 4 -53 9 -13 5 -30 6 -37 1z" transform="translate(0.000000,146.000000) scale(0.100000,-0.100000)" stroke="none" fill="#73989F"/>

<path d="M575 589 c-69 -66 -73 -76 -51 -112 7 -12 16 -51 19 -86 3 -35 9 -67 14 -72 11 -11 45 23 48 48 1 18 15 49 40 93 17 29 21 175 5 185 -6 4 -39 -22 -75 -56z m73 -38 c-4 -65 -10 -87 -31 -120 -15 -22 -27 -52 -27 -65 0 -24 -16 -43 -27 -32 -3 3 -7 29 -8 58 -1 29 -10 70 -19 90 l-18 38 56 55 c30 30 61 55 67 55 8 0 10 -24 7 -79z" transform="translate(0.000000,146.000000) scale(0.100000,-0.100000)" stroke="none" fill="#73989F"/>

<path d="M0 1225 l0 -85 33 0 c21 0 41 8 51 19 15 17 16 25 6 55 -9 29 -69 96 -85 96 -3 0 -5 -38 -5 -85z" transform="translate(0.000000,146.000000) scale(0.100000,-0.100000)" stroke="none" fill="#024C5C"/>

<path d="M290 934 c-38 -16 -69 -50 -70 -74 0 -8 9 0 20 18 26 43 75 64 121 52 19 -5 55 -14 81 -21 26 -6 55 -20 64 -30 21 -23 34 -24 34 -4 0 8 -3 14 -7 13 -5 -1 -18 3 -29 10 -70 38 -168 55 -214 36z" transform="translate(0.000000,146.000000) scale(0.100000,-0.100000)" stroke="none" fill="#73989F"/>

<path d="M37 1285 c53 -45 73 -98 47 -126 -10 -11 -30 -19 -51 -19 -18 0 -33 -4 -33 -9 0 -15 83 6 97 25 15 21 16 34 4 67 -11 29 -76 97 -93 97 -6 0 7 -16 29 -35z" transform="translate(0.000000,146.000000) scale(0.100000,-0.100000)" stroke="none" fill="#73989F"/>

<path d="M1426 68 c-13 -40 -16 -72 -8 -63 10 11 24 75 16 75 -2 0 -6 -6 -8 -12z" transform="translate(0.000000,146.000000) scale(0.100000,-0.100000)" stroke="none" fill="#73989F"/>

<path d="M1428 30 c-3 -17 -1 -30 4 -30 4 0 8 13 8 30 0 17 -2 30 -4 30 -2 0 -6 -14 -8 -30z" transform="translate(0.000000,146.000000) scale(0.100000,-0.100000)" stroke="none" fill="#024C5C"/>

<path d="M646 732 c-3 -6 -1 -14 5 -17 14 -9 20 -2 10 14 -6 8 -11 9 -15 3z" transform="translate(0.000000,146.000000) scale(0.100000,-0.100000)" stroke="none" fill="#73989F"/>

</svg>