<?xml version="1.0" standalone="no"?>
<!DOCTYPE svg PUBLIC "-//W3C//DTD SVG 20010904//EN"
 "http://www.w3.org/TR/2001/REC-SVG-20010904/DTD/svg10.dtd">
<svg version="1.0" xmlns="http://www.w3.org/2000/svg" 
width="190.000000pt" height="140.000000pt" viewBox="0 0 190.000000 140.000000"
preserveAspectRatio = "xMidYMid meet" >
<metadata>
Created by potrace 1.16, written by Peter Selinger 2001-2019
</metadata>
<rect width="190.000000" height="140.000000" fill="#FCF7F4"/>
<path d="M1175 840 c-4 -7 -9 -48 -11 -91 -5 -91 -25 -151 -59 -173 -31 -20 -92 -20 -138 -1 -20 8 -39 15 -42 15 -13 0 -3 -37 20 -76 49 -84 199 -183 355 -233 66 -22 285 -70 352 -79 61 -7 58 15 -21 130 -90 133 -162 217 -245 287 -36 31 -65 60 -63 65 1 5 64 11 141 12 132 3 174 13 160 35 -9 15 -114 65 -184 88 -79 26 -253 40 -265 21z" transform="translate(0.000000,140.000000) scale(0.100000,-0.100000)" stroke="none" fill="#4D7A6F"/>

<path d="M1175 840 c-4 -7 -9 -48 -11 -91 -5 -91 -25 -151 -59 -173 -31 -20 -92 -20 -138 -1 -20 8 -39 15 -42 15 -13 0 -3 -37 20 -76 49 -84 199 -183 355 -233 66 -22 285 -70 352 -79 61 -7 58 15 -21 130 -90 133 -162 217 -245 287 -36 31 -65 60 -63 65 1 5 64 11 141 12 132 3 174 13 160 35 -9 15 -114 65 -184 88 -79 26 -253 40 -265 21z" transform="translate(0.000000,140.000000) scale(0.100000,-0.100000)" stroke="none" fill="#4D7A6F"/>

<path d="M720 893 c-86 -31 -130 -81 -130 -148 0 -74 50 -124 122 -125 138 -1 205 215 83 266 -36 15 -50 16 -75 7z" transform="translate(0.000000,140.000000) scale(0.100000,-0.100000)" stroke="none" fill="#DF9F81"/>

<path d="M905 579 c8 -28 54 -109 61 -109 3 0 -7 20 -21 43 -23 40 -33 77 -20 77 3 0 22 -7 42 -15 19 -8 43 -15 52 -15 20 1 -53 30 -93 37 -26 5 -28 4 -21 -18z" transform="translate(0.000000,140.000000) scale(0.100000,-0.100000)" stroke="none" fill="#DF9F81"/>

<path d="M1146 672 c-9 -47 -48 -102 -74 -103 -10 0 -12 -3 -5 -5 35 -15 102 83 91 132 -3 11 -8 1 -12 -24z" transform="translate(0.000000,140.000000) scale(0.100000,-0.100000)" stroke="none" fill="#DF9F81"/>

<path d="M1316 691 c-3 -4 4 -17 17 -27 12 -10 16 -12 10 -4 -18 20 -16 28 10 33 19 4 19 4 -5 6 -15 0 -29 -3 -32 -8z" transform="translate(0.000000,140.000000) scale(0.100000,-0.100000)" stroke="none" fill="#DF9F81"/>

<path d="M1511 796 c10 -9 69 -36 69 -32 0 6 -55 36 -66 36 -4 0 -5 -2 -3 -4z" transform="translate(0.000000,140.000000) scale(0.100000,-0.100000)" stroke="none" fill="#DF9F81"/>

<path d="M1475 230 c11 -5 29 -8 40 -8 16 0 15 2 -5 8 -34 11 -60 11 -35 0z" transform="translate(0.000000,140.000000) scale(0.100000,-0.100000)" stroke="none" fill="#DF9F81"/>

<path d="M1493 693 c15 -2 37 -2 50 0 12 2 0 4 -28 4 -27 0 -38 -2 -22 -4z" transform="translate(0.000000,140.000000) scale(0.100000,-0.100000)" stroke="none" fill="#DF9F81"/>

<path d="M1360 647 c0 -2 15 -16 33 -33 l32 -29 -29 33 c-28 30 -36 37 -36 29z" transform="translate(0.000000,140.000000) scale(0.100000,-0.100000)" stroke="none" fill="#DF9F81"/>

<path d="M1480 527 c0 -2 15 -16 33 -33 l32 -29 -29 33 c-28 30 -36 37 -36 29z" transform="translate(0.000000,140.000000) scale(0.100000,-0.100000)" stroke="none" fill="#DF9F81"/>

<path d="M1218 853 c18 -2 45 -2 60 0 15 2 0 4 -33 4 -33 0 -45 -2 -27 -4z" transform="translate(0.000000,140.000000) scale(0.100000,-0.100000)" stroke="none" fill="#DF9F81"/>

<path d="M1250 290 c8 -5 20 -10 25 -10 6 0 3 5 -5 10 -8 5 -19 10 -25 10 -5 0 -3 -5 5 -10z" transform="translate(0.000000,140.000000) scale(0.100000,-0.100000)" stroke="none" fill="#DF9F81"/>

<path d="M1670 200 c-23 -7 -23 -8 -3 -9 12 -1 25 4 28 9 3 6 5 10 3 9 -2 -1 -14 -5 -28 -9z" transform="translate(0.000000,140.000000) scale(0.100000,-0.100000)" stroke="none" fill="#DF9F81"/>

<path d="M1310 270 c8 -5 22 -9 30 -9 10 0 8 3 -5 9 -27 12 -43 12 -25 0z" transform="translate(0.000000,140.000000) scale(0.100000,-0.100000)" stroke="none" fill="#DF9F81"/>

<path d="M1575 210 c11 -5 27 -9 35 -9 9 0 8 4 -5 9 -11 5 -27 9 -35 9 -9 0 -8 -4 5 -9z" transform="translate(0.000000,140.000000) scale(0.100000,-0.100000)" stroke="none" fill="#DF9F81"/>

<path d="M1405 830 c27 -12 43 -12 25 0 -8 5 -22 9 -30 9 -10 0 -8 -3 5 -9z" transform="translate(0.000000,140.000000) scale(0.100000,-0.100000)" stroke="none" fill="#DF9F81"/>

<path d="M1035 410 c10 -11 20 -20 23 -20 3 0 -3 9 -13 20 -10 11 -20 20 -23 20 -3 0 3 -9 13 -20z" transform="translate(0.000000,140.000000) scale(0.100000,-0.100000)" stroke="none" fill="#DF9F81"/>

<path d="M1540 456 c0 -2 8 -10 18 -17 15 -13 16 -12 3 4 -13 16 -21 21 -21 13z" transform="translate(0.000000,140.000000) scale(0.100000,-0.100000)" stroke="none" fill="#DF9F81"/>

<path d="M1160 839 c0 -5 5 -7 10 -4 6 3 10 8 10 11 0 2 -4 4 -10 4 -5 0 -10 -5 -10 -11z" transform="translate(0.000000,140.000000) scale(0.100000,-0.100000)" stroke="none" fill="#DF9F81"/>

<path d="M1323 843 c9 -2 23 -2 30 0 6 3 -1 5 -18 5 -16 0 -22 -2 -12 -5z" transform="translate(0.000000,140.000000) scale(0.100000,-0.100000)" stroke="none" fill="#DF9F81"/>

<path d="M1470 810 c8 -5 20 -10 25 -10 6 0 3 5 -5 10 -8 5 -19 10 -25 10 -5 0 -3 -5 5 -10z" transform="translate(0.000000,140.000000) scale(0.100000,-0.100000)" stroke="none" fill="#DF9F81"/>

<path d="M1440 576 c0 -2 8 -10 18 -17 15 -13 16 -12 3 4 -13 16 -21 21 -21 13z" transform="translate(0.000000,140.000000) scale(0.100000,-0.100000)" stroke="none" fill="#DF9F81"/>

<path d="M1200 310 c8 -5 20 -10 25 -10 6 0 3 5 -5 10 -8 5 -19 10 -25 10 -5 0 -3 -5 5 -10z" transform="translate(0.000000,140.000000) scale(0.100000,-0.100000)" stroke="none" fill="#DF9F81"/>

<path d="M1570 416 c0 -2 8 -10 18 -17 15 -13 16 -12 3 4 -13 16 -21 21 -21 13z" transform="translate(0.000000,140.000000) scale(0.100000,-0.100000)" stroke="none" fill="#DF9F81"/>

<path d="M1162 780 c0 -19 2 -27 5 -17 2 9 2 25 0 35 -3 9 -5 1 -5 -18z" transform="translate(0.000000,140.000000) scale(0.100000,-0.100000)" stroke="none" fill="#DF9F81"/>

<path d="M1408 683 c12 -2 30 -2 40 0 9 3 -1 5 -23 4 -22 0 -30 -2 -17 -4z" transform="translate(0.000000,140.000000) scale(0.100000,-0.100000)" stroke="none" fill="#DF9F81"/>

<path d="M1150 336 c0 -2 7 -7 16 -10 8 -3 12 -2 9 4 -6 10 -25 14 -25 6z" transform="translate(0.000000,140.000000) scale(0.100000,-0.100000)" stroke="none" fill="#DF9F81"/>

<path d="M1408 243 c7 -3 16 -2 19 1 4 3 -2 6 -13 5 -11 0 -14 -3 -6 -6z" transform="translate(0.000000,140.000000) scale(0.100000,-0.100000)" stroke="none" fill="#DF9F81"/>

</svg>