<?xml version="1.0" standalone="no"?>
<!DOCTYPE svg PUBLIC "-//W3C//DTD SVG 20010904//EN"
 "http://www.w3.org/TR/2001/REC-SVG-20010904/DTD/svg10.dtd">
<svg version="1.0" xmlns="http://www.w3.org/2000/svg" 
width="104.000000pt" height="88.000000pt" viewBox="0 0 104.000000 88.000000"
preserveAspectRatio = "xMidYMid meet" >
<metadata>
Created by potrace 1.16, written by Peter Selinger 2001-2019
</metadata>
<rect width="104.000000" height="88.000000" fill="#FDFDFD"/>
<path d="M420 644 c-51 -7 -135 -50 -165 -85 -35 -42 -40 -68 -40 -194 0 -146 10 -164 87 -158 29 3 67 8 83 12 28 7 30 10 33 62 1 30 12 73 23 96 17 34 27 42 55 45 71 8 102 -26 107 -118 2 -33 7 -66 11 -72 11 -19 171 -16 200 4 21 13 23 19 15 47 -5 18 -9 63 -9 100 0 54 -6 80 -26 121 -54 108 -106 138 -244 142 -52 1 -111 0 -130 -2z m173 -25 c40 -11 110 -67 129 -103 8 -16 2 -13 -28 10 -21 17 -52 35 -69 41 -47 18 -137 24 -152 11 -10 -8 -21 -8 -41 2 -19 9 -23 14 -12 17 8 2 24 8 35 13 19 9 51 16 85 19 8 0 32 -4 53 -10z m-193 -9 c0 -5 -6 -10 -14 -10 -7 0 -31 -18 -53 -39 -35 -35 -48 -58 -79 -136 -7 -16 -9 -13 -12 18 -5 58 60 157 103 157 8 0 15 5 15 10 0 6 9 10 20 10 11 0 20 -4 20 -10z m26 -65 c-36 -27 -72 -61 -94 -90 -28 -36 -36 -28 -17 18 18 43 71 87 105 87 24 -1 24 -1 6 -15z m302 -106 c12 -22 12 -30 1 -47 -11 -17 -11 -24 -1 -34 18 -18 16 -107 -3 -115 -9 -3 -17 -4 -19 -2 -2 2 -6 41 -10 87 -4 57 -3 81 4 77 13 -8 26 25 14 34 -5 3 -15 18 -23 34 -8 15 -18 27 -23 27 -4 0 -8 6 -8 13 0 15 50 -39 68 -74z m-223 11 c3 -6 -4 -10 -18 -10 -14 0 -30 -7 -37 -15 -7 -8 -17 -15 -23 -15 -6 0 0 11 13 25 24 26 54 33 65 15z m-149 -97 c-3 -16 -8 -47 -11 -70 -7 -46 -20 -62 -37 -45 -13 13 27 142 45 142 5 0 6 -12 3 -27z m434 -100 c0 -7 -7 -13 -15 -13 -11 0 -15 11 -15 38 l1 37 14 -25 c8 -14 14 -31 15 -37z m-110 5 c0 -16 -3 -19 -11 -11 -6 6 -8 16 -5 22 11 17 16 13 16 -11z" transform="translate(0.000000,88.000000) scale(0.100000,-0.100000)" stroke="none" fill="#DAB4A1"/>

<path d="M420 644 c-51 -7 -135 -50 -165 -85 -35 -42 -40 -68 -40 -194 0 -146 10 -164 87 -158 29 3 67 8 83 12 28 7 30 10 33 62 1 30 12 73 23 96 17 34 27 42 55 45 71 8 102 -26 107 -118 2 -33 7 -66 11 -72 11 -19 171 -16 200 4 21 13 23 19 15 47 -5 18 -9 63 -9 100 0 54 -6 80 -26 121 -54 108 -106 138 -244 142 -52 1 -111 0 -130 -2z m173 -25 c40 -11 110 -67 129 -103 8 -16 2 -13 -28 10 -21 17 -52 35 -69 41 -47 18 -137 24 -152 11 -10 -8 -21 -8 -41 2 -19 9 -23 14 -12 17 8 2 24 8 35 13 19 9 51 16 85 19 8 0 32 -4 53 -10z m-193 -9 c0 -5 -6 -10 -14 -10 -7 0 -31 -18 -53 -39 -35 -35 -48 -58 -79 -136 -7 -16 -9 -13 -12 18 -5 58 60 157 103 157 8 0 15 5 15 10 0 6 9 10 20 10 11 0 20 -4 20 -10z m26 -65 c-36 -27 -72 -61 -94 -90 -28 -36 -36 -28 -17 18 18 43 71 87 105 87 24 -1 24 -1 6 -15z m302 -106 c12 -22 12 -30 1 -47 -11 -17 -11 -24 -1 -34 18 -18 16 -107 -3 -115 -9 -3 -17 -4 -19 -2 -2 2 -6 41 -10 87 -4 57 -3 81 4 77 13 -8 26 25 14 34 -5 3 -15 18 -23 34 -8 15 -18 27 -23 27 -4 0 -8 6 -8 13 0 15 50 -39 68 -74z m-223 11 c3 -6 -4 -10 -18 -10 -14 0 -30 -7 -37 -15 -7 -8 -17 -15 -23 -15 -6 0 0 11 13 25 24 26 54 33 65 15z m-149 -97 c-3 -16 -8 -47 -11 -70 -7 -46 -20 -62 -37 -45 -13 13 27 142 45 142 5 0 6 -12 3 -27z m434 -100 c0 -7 -7 -13 -15 -13 -11 0 -15 11 -15 38 l1 37 14 -25 c8 -14 14 -31 15 -37z m-110 5 c0 -16 -3 -19 -11 -11 -6 6 -8 16 -5 22 11 17 16 13 16 -11z" transform="translate(0.000000,88.000000) scale(0.100000,-0.100000)" stroke="none" fill="#DAB4A1"/>

<path d="M895 870 c3 -5 10 -10 16 -10 5 0 9 5 9 10 0 6 -7 10 -16 10 -8 0 -12 -4 -9 -10z" transform="translate(0.000000,88.000000) scale(0.100000,-0.100000)" stroke="none" fill="#DAB4A1"/>

<path d="M895 870 c3 -5 10 -10 16 -10 5 0 9 5 9 10 0 6 -7 10 -16 10 -8 0 -12 -4 -9 -10z" transform="translate(0.000000,88.000000) scale(0.100000,-0.100000)" stroke="none" fill="#DAB4A1"/>

</svg>