<?xml version="1.0" standalone="no"?>
<!DOCTYPE svg PUBLIC "-//W3C//DTD SVG 20010904//EN"
 "http://www.w3.org/TR/2001/REC-SVG-20010904/DTD/svg10.dtd">
<svg version="1.0" xmlns="http://www.w3.org/2000/svg" 
width="90.000000pt" height="114.000000pt" viewBox="0 0 90.000000 114.000000"
preserveAspectRatio = "xMidYMid meet" >
<metadata>
Created by potrace 1.16, written by Peter Selinger 2001-2019
</metadata>
<rect width="90.000000" height="114.000000" fill="#969798"/>
<path d="M287 934 
c-4 -4 8 -32 25 -63 
31 -55 32 -59 33 -181 
0 -93 -5 -140 -18 -185 
-34 -113 -58 -170 -98 -232 
-21 -34 -39 -67 -39 -72 
0 -31 166 -17 250 22 
119 55 251 253 258 388 
5 91 -16 147 -78 202 
-43 38 -124 84 -203 116 
-30 12 -120 15 -130 5z 
m171 -81 
c47 -29 113 -97 128 -132 
18 -44 18 -154 -1 -209 
-50 -142 -137 -250 -223 -275 
-26 -7 -50 -12 -55 -10 
-4 2 6 23 21 46 
105 156 153 417 102 548 
-21 52 -15 59 28 32z" 
transform="translate(0.000000,114.000000) scale(0.100000,-0.100000)" 
stroke="none" fill="#261F68"/>

</svg>
