<?xml version="1.0" standalone="no"?>
<!DOCTYPE svg PUBLIC "-//W3C//DTD SVG 20010904//EN"
 "http://www.w3.org/TR/2001/REC-SVG-20010904/DTD/svg10.dtd">
<svg version="1.0" xmlns="http://www.w3.org/2000/svg" 
width="158.000000pt" height="144.000000pt" viewBox="0 0 158.000000 144.000000"
preserveAspectRatio = "xMidYMid meet" >
<metadata>
Created by potrace 1.16, written by Peter Selinger 2001-2019
</metadata>
<rect width="158.000000" height="144.000000" fill="#FAFAFA"/>
<path d="M685 1026 c-159 -59 -264 -236 -234 -396 30 -166 119 -269 259 -299 184 -40 361 110 392 331 28 198 -26 306 -180 357 -68 23 -186 27 -237 7z" transform="translate(0.000000,144.000000) scale(0.100000,-0.100000)" stroke="none" fill="#C18D7A"/>

<path d="M685 1026 c-159 -59 -264 -236 -234 -396 30 -166 119 -269 259 -299 184 -40 361 110 392 331 28 198 -26 306 -180 357 -68 23 -186 27 -237 7z" transform="translate(0.000000,144.000000) scale(0.100000,-0.100000)" stroke="none" fill="#C18D7A"/>

<path d="M746 1220 c-184 -33 -384 -151 -460 -270 -61 -95 -90 -251 -67 -362 40 -189 192 -333 396 -374 268 -55 593 117 709 375 112 250 -6 524 -266 616 -52 18 -243 28 -312 15z m333 -90 c84 -39 144 -99 193 -191 30 -59 33 -71 33 -160 0 -89 -2 -99 -37 -170 -83 -167 -247 -291 -443 -335 -304 -67 -573 150 -552 447 13 189 159 346 382 414 111 33 117 34 241 31 102 -3 118 -6 183 -36z" transform="translate(0.000000,144.000000) scale(0.100000,-0.100000)" stroke="none" fill="#C18D7A"/>

<path d="M746 1220 c-184 -33 -384 -151 -460 -270 -61 -95 -90 -251 -67 -362 40 -189 192 -333 396 -374 268 -55 593 117 709 375 112 250 -6 524 -266 616 -52 18 -243 28 -312 15z m333 -90 c84 -39 144 -99 193 -191 30 -59 33 -71 33 -160 0 -89 -2 -99 -37 -170 -83 -167 -247 -291 -443 -335 -304 -67 -573 150 -552 447 13 189 159 346 382 414 111 33 117 34 241 31 102 -3 118 -6 183 -36z" transform="translate(0.000000,144.000000) scale(0.100000,-0.100000)" stroke="none" fill="#C18D7A"/>

</svg>