<?xml version="1.0" standalone="no"?>
<!DOCTYPE svg PUBLIC "-//W3C//DTD SVG 20010904//EN"
 "http://www.w3.org/TR/2001/REC-SVG-20010904/DTD/svg10.dtd">
<svg version="1.0" xmlns="http://www.w3.org/2000/svg" 
width="96.000000pt" height="112.000000pt" viewBox="0 0 96.000000 112.000000"
preserveAspectRatio = "xMidYMid meet" >
<metadata>
Created by potrace 1.16, written by Peter Selinger 2001-2019
</metadata>
<rect width="96.000000" height="112.000000" fill="#F7F8F3"/>
<path d="M667 473 c-4 -3 -7 -23 -7 -44 0 -51 -16 -57 -54 -20 -18 17 -36 31 -42 31 -19 0 -84 -62 -84 -80 0 -11 9 -24 20 -30 11 -6 20 -20 20 -32 0 -17 -4 -19 -22 -13 -58 19 -103 17 -126 -5 -38 -36 -15 -45 116 -45 77 0 125 -5 140 -13 32 -18 52 -8 52 25 0 35 22 61 81 101 40 27 59 49 59 68 0 9 -39 4 -45 -6 -11 -18 -26 -10 -20 11 9 27 -20 59 -55 59 -15 0 -30 -3 -33 -7z" transform="translate(0.000000,112.000000) scale(0.100000,-0.100000)" stroke="none" fill="#273646"/>

<path d="M452 505 l-29 -35 -11 25 c-9 19 -19 25 -42 25 -41 0 -64 -13 -91 -51 l-22 -32 24 -18 c13 -10 36 -19 51 -19 30 0 68 26 68 47 0 7 5 13 10 13 6 0 10 -6 10 -14 0 -7 12 -21 26 -31 25 -16 27 -16 47 3 12 10 39 26 60 36 39 18 40 24 4 64 -31 34 -70 29 -105 -13z" transform="translate(0.000000,112.000000) scale(0.100000,-0.100000)" stroke="none" fill="#273646"/>

<path d="M645 723 c-47 -7 -85 -40 -85 -72 0 -38 25 -59 51 -43 10 7 37 12 59 12 46 0 63 22 58 73 -3 34 -18 40 -83 30z" transform="translate(0.000000,112.000000) scale(0.100000,-0.100000)" stroke="none" fill="#273646"/>

<path d="M255 629 c-43 -38 -44 -61 -4 -90 31 -22 31 -22 67 -2 26 13 37 26 38 42 1 13 12 32 24 41 l23 18 -21 11 c-39 21 -89 13 -127 -20z" transform="translate(0.000000,112.000000) scale(0.100000,-0.100000)" stroke="none" fill="#273646"/>

<path d="M600 585 c-13 -16 -7 -60 18 -115 l15 -35 6 30 c5 26 11 30 43 33 31 3 38 7 43 32 11 49 -8 70 -64 70 -30 0 -53 -5 -61 -15z" transform="translate(0.000000,112.000000) scale(0.100000,-0.100000)" stroke="none" fill="#273646"/>

<path d="M433 620 c-34 -15 -43 -25 -43 -43 0 -14 7 -30 16 -38 13 -11 21 -10 49 6 24 12 45 16 70 12 28 -5 35 -3 35 11 0 23 -47 72 -68 71 -9 0 -36 -9 -59 -19z" transform="translate(0.000000,112.000000) scale(0.100000,-0.100000)" stroke="none" fill="#273646"/>

<path d="M423 746 c-30 -14 -36 -33 -20 -64 9 -18 19 -26 32 -24 11 2 38 5 60 7 47 3 54 19 30 64 -13 25 -21 31 -48 30 -17 -1 -42 -6 -54 -13z" transform="translate(0.000000,112.000000) scale(0.100000,-0.100000)" stroke="none" fill="#273646"/>

<path d="M243 729 c-39 -35 -40 -40 -13 -57 15 -9 26 -10 40 -2 10 5 37 10 59 10 50 0 58 12 31 50 -29 41 -73 41 -117 -1z" transform="translate(0.000000,112.000000) scale(0.100000,-0.100000)" stroke="none" fill="#273646"/>

<path d="M353 377 c-38 -25 -40 -37 -15 -60 22 -20 39 -22 44 -5 3 7 21 12 41 11 41 -1 42 0 26 46 -13 38 -47 41 -96 8z" transform="translate(0.000000,112.000000) scale(0.100000,-0.100000)" stroke="none" fill="#273646"/>

<path d="M407 836 c-40 -15 -67 -33 -67 -47 0 -5 11 -15 23 -24 45 -29 117 17 102 65 -7 23 -8 23 -58 6z" transform="translate(0.000000,112.000000) scale(0.100000,-0.100000)" stroke="none" fill="#273646"/>

<path d="M520 867 c-42 -14 -50 -45 -21 -71 20 -18 21 -18 49 5 16 13 38 29 48 35 16 10 17 13 5 28 -16 19 -33 19 -81 3z" transform="translate(0.000000,112.000000) scale(0.100000,-0.100000)" stroke="none" fill="#273646"/>

<path d="M600 803 c-42 -13 -60 -28 -60 -49 0 -13 5 -26 11 -29 16 -11 100 18 111 38 20 37 -11 57 -62 40z" transform="translate(0.000000,112.000000) scale(0.100000,-0.100000)" stroke="none" fill="#273646"/>

<path d="M318 878 c-22 -33 -30 -65 -20 -72 6 -3 16 2 23 11 8 9 38 27 67 39 28 13 52 28 52 34 0 5 -24 10 -54 10 -45 0 -56 -4 -68 -22z" transform="translate(0.000000,112.000000) scale(0.100000,-0.100000)" stroke="none" fill="#273646"/>

<path d="M757 533 c-24 -23 20 -88 53 -78 21 7 36 45 26 70 -5 15 -66 22 -79 8z" transform="translate(0.000000,112.000000) scale(0.100000,-0.100000)" stroke="none" fill="#273646"/>

<path d="M740 596 c0 -31 35 -45 57 -23 23 23 9 47 -27 47 -25 0 -30 -4 -30 -24z" transform="translate(0.000000,112.000000) scale(0.100000,-0.100000)" stroke="none" fill="#273646"/>

<path d="M242 388 c7 -19 34 -32 53 -24 14 5 15 9 5 21 -15 18 -63 20 -58 3z" transform="translate(0.000000,112.000000) scale(0.100000,-0.100000)" stroke="none" fill="#273646"/>

</svg>