<?xml version="1.0" standalone="no"?>
<!DOCTYPE svg PUBLIC "-//W3C//DTD SVG 20010904//EN"
 "http://www.w3.org/TR/2001/REC-SVG-20010904/DTD/svg10.dtd">
<svg version="1.0" xmlns="http://www.w3.org/2000/svg" 
width="135.000000pt" height="137.000000pt" viewBox="0 0 135.000000 137.000000"
preserveAspectRatio = "xMidYMid meet" >
<metadata>
Created by potrace 1.16, written by Peter Selinger 2001-2019
</metadata>
<rect width="135.000000" height="137.000000" fill="#B0C1A3"/>
<path d="M662 1254 c-28 -20 -52 -65 -52 -101 0 -15 -6 -39 -13 -53 -13 -26 -8 -213 8 -272 5 -21 4 -28 -7 -28 -16 0 -59 88 -103 214 -33 92 -75 146 -114 146 -47 0 -55 -13 -52 -82 3 -88 17 -126 67 -194 66 -87 63 -89 -51 -39 -81 35 -167 52 -204 40 -33 -10 -29 -69 9 -106 30 -31 29 -32 -22 -43 -16 -4 -28 -12 -28 -20 0 -26 39 -47 128 -69 49 -12 91 -26 93 -32 2 -5 -22 -19 -54 -30 -67 -24 -124 -76 -133 -122 -6 -32 -6 -33 29 -33 19 0 65 9 102 21 37 11 70 18 73 15 6 -7 -55 -66 -102 -100 -19 -14 -26 -28 -26 -52 0 -18 5 -36 11 -39 11 -8 64 25 154 93 31 24 59 41 62 38 3 -2 -9 -29 -26 -59 -39 -68 -62 -196 -41 -222 10 -12 23 -15 44 -11 41 8 70 38 95 97 12 27 25 49 29 49 5 0 14 -34 21 -75 l12 -75 34 0 c56 0 69 31 75 179 l6 126 18 -40 c49 -113 73 -151 121 -201 44 -45 59 -54 88 -54 37 0 47 15 47 71 0 31 -49 110 -102 165 -58 60 -30 70 30 11 111 -109 275 -132 275 -39 0 46 -25 68 -155 133 -108 54 -141 79 -104 79 7 0 33 -7 57 -16 70 -24 198 -30 237 -10 35 18 56 50 48 71 -6 17 -75 53 -129 70 -50 15 -49 28 5 38 48 10 84 38 75 60 -9 23 -58 27 -133 11 -82 -17 -77 -16 -69 -3 4 5 31 21 60 35 68 33 104 70 107 114 l3 35 -55 3 c-75 4 -129 -13 -203 -64 -34 -24 -68 -44 -75 -44 -19 0 8 45 66 110 106 118 121 210 34 210 -22 0 -92 -72 -92 -94 0 -7 -9 -24 -19 -38 -11 -14 -41 -65 -67 -114 -70 -133 -77 -133 -50 1 17 82 31 305 21 334 -8 25 -32 27 -63 5z m68 -534 c60 -17 61 -19 51 -94 -11 -74 -31 -105 -83 -127 -23 -9 -37 -10 -62 -1 -18 7 -51 12 -74 12 -22 0 -44 5 -47 10 -4 6 -9 36 -12 67 -11 102 44 159 142 148 28 -3 66 -10 85 -15z" transform="translate(0.000000,137.000000) scale(0.100000,-0.100000)" stroke="none" fill="#F69522"/>

<path d="M662 1254 c-28 -20 -52 -65 -52 -101 0 -15 -6 -39 -13 -53 -13 -26 -8 -213 8 -272 5 -21 4 -28 -7 -28 -16 0 -59 88 -103 214 -33 92 -75 146 -114 146 -47 0 -55 -13 -52 -82 3 -88 17 -126 67 -194 66 -87 63 -89 -51 -39 -81 35 -167 52 -204 40 -33 -10 -29 -69 9 -106 30 -31 29 -32 -22 -43 -16 -4 -28 -12 -28 -20 0 -26 39 -47 128 -69 49 -12 91 -26 93 -32 2 -5 -22 -19 -54 -30 -67 -24 -124 -76 -133 -122 -6 -32 -6 -33 29 -33 19 0 65 9 102 21 37 11 70 18 73 15 6 -7 -55 -66 -102 -100 -19 -14 -26 -28 -26 -52 0 -18 5 -36 11 -39 11 -8 64 25 154 93 31 24 59 41 62 38 3 -2 -9 -29 -26 -59 -39 -68 -62 -196 -41 -222 10 -12 23 -15 44 -11 41 8 70 38 95 97 12 27 25 49 29 49 5 0 14 -34 21 -75 l12 -75 34 0 c56 0 69 31 75 179 l6 126 18 -40 c49 -113 73 -151 121 -201 44 -45 59 -54 88 -54 37 0 47 15 47 71 0 31 -49 110 -102 165 -58 60 -30 70 30 11 111 -109 275 -132 275 -39 0 46 -25 68 -155 133 -108 54 -141 79 -104 79 7 0 33 -7 57 -16 70 -24 198 -30 237 -10 35 18 56 50 48 71 -6 17 -75 53 -129 70 -50 15 -49 28 5 38 48 10 84 38 75 60 -9 23 -58 27 -133 11 -82 -17 -77 -16 -69 -3 4 5 31 21 60 35 68 33 104 70 107 114 l3 35 -55 3 c-75 4 -129 -13 -203 -64 -34 -24 -68 -44 -75 -44 -19 0 8 45 66 110 106 118 121 210 34 210 -22 0 -92 -72 -92 -94 0 -7 -9 -24 -19 -38 -11 -14 -41 -65 -67 -114 -70 -133 -77 -133 -50 1 17 82 31 305 21 334 -8 25 -32 27 -63 5z m68 -534 c60 -17 61 -19 51 -94 -11 -74 -31 -105 -83 -127 -23 -9 -37 -10 -62 -1 -18 7 -51 12 -74 12 -22 0 -44 5 -47 10 -4 6 -9 36 -12 67 -11 102 44 159 142 148 28 -3 66 -10 85 -15z" transform="translate(0.000000,137.000000) scale(0.100000,-0.100000)" stroke="none" fill="#F69522"/>

</svg>