<?xml version="1.0" standalone="no"?>
<!DOCTYPE svg PUBLIC "-//W3C//DTD SVG 20010904//EN"
 "http://www.w3.org/TR/2001/REC-SVG-20010904/DTD/svg10.dtd">
<svg version="1.0" xmlns="http://www.w3.org/2000/svg" 
width="100.000000pt" height="106.000000pt" viewBox="0 0 100.000000 106.000000"
preserveAspectRatio = "xMidYMid meet" >
<metadata>
Created by potrace 1.16, written by Peter Selinger 2001-2019
</metadata>
<rect width="100.000000" height="106.000000" fill="#473A49"/>
<path d="M476 912 c-16 -25 -76 -77 -170 -146 -157 -116 -196 -161 -196 -229 0 -79 44 -133 181 -223 97 -64 138 -102 186 -175 l26 -39 25 37 c44 68 105 124 203 188 104 68 141 108 158 170 23 89 -14 144 -177 261 -130 94 -147 108 -183 157 l-28 38 -25 -39z m172 -164 c124 -90 169 -134 183 -176 25 -77 -17 -143 -145 -227 -84 -54 -117 -85 -159 -147 l-24 -37 -41 58 c-31 44 -65 75 -141 126 -118 78 -143 109 -148 179 -6 73 16 101 158 206 67 49 133 105 147 125 l25 35 24 -35 c13 -20 68 -68 121 -107z" transform="translate(0.000000,106.000000) scale(0.100000,-0.100000)" stroke="none" fill="#97A8B5"/>

<path d="M476 912 c-16 -25 -76 -77 -170 -146 -157 -116 -196 -161 -196 -229 0 -79 44 -133 181 -223 97 -64 138 -102 186 -175 l26 -39 25 37 c44 68 105 124 203 188 104 68 141 108 158 170 23 89 -14 144 -177 261 -130 94 -147 108 -183 157 l-28 38 -25 -39z m172 -164 c124 -90 169 -134 183 -176 25 -77 -17 -143 -145 -227 -84 -54 -117 -85 -159 -147 l-24 -37 -41 58 c-31 44 -65 75 -141 126 -118 78 -143 109 -148 179 -6 73 16 101 158 206 67 49 133 105 147 125 l25 35 24 -35 c13 -20 68 -68 121 -107z" transform="translate(0.000000,106.000000) scale(0.100000,-0.100000)" stroke="none" fill="#97A8B5"/>

<path d="M478 855 c-14 -20 -80 -76 -147 -125 -142 -105 -164 -133 -158 -206 5 -70 30 -101 148 -179 76 -51 110 -82 141 -126 l41 -58 24 37 c42 62 75 93 159 147 128 84 170 150 145 227 -14 42 -59 86 -183 176 -53 39 -108 87 -121 107 l-24 35 -25 -35z m155 -164 c113 -83 137 -111 137 -160 0 -53 -32 -96 -107 -145 -66 -43 -114 -87 -145 -133 -14 -22 -15 -22 -52 28 -21 29 -65 68 -104 93 -111 71 -144 123 -122 191 10 29 35 53 124 121 62 46 118 96 125 111 l12 26 19 -31 c11 -17 61 -62 113 -101z" transform="translate(0.000000,106.000000) scale(0.100000,-0.100000)" stroke="none" fill="#DAAD35"/>

<path d="M478 855 c-14 -20 -80 -76 -147 -125 -142 -105 -164 -133 -158 -206 5 -70 30 -101 148 -179 76 -51 110 -82 141 -126 l41 -58 24 37 c42 62 75 93 159 147 128 84 170 150 145 227 -14 42 -59 86 -183 176 -53 39 -108 87 -121 107 l-24 35 -25 -35z m155 -164 c113 -83 137 -111 137 -160 0 -53 -32 -96 -107 -145 -66 -43 -114 -87 -145 -133 -14 -22 -15 -22 -52 28 -21 29 -65 68 -104 93 -111 71 -144 123 -122 191 10 29 35 53 124 121 62 46 118 96 125 111 l12 26 19 -31 c11 -17 61 -62 113 -101z" transform="translate(0.000000,106.000000) scale(0.100000,-0.100000)" stroke="none" fill="#DAAD35"/>

<path d="M441 682 c-6 -11 -11 -29 -11 -39 -1 -13 -5 -10 -18 12 -15 28 -17 28 -20 8 -10 -67 53 -163 107 -163 56 0 102 56 116 140 7 40 6 43 -9 31 -9 -7 -16 -21 -17 -30 0 -9 -9 2 -19 24 -17 39 -21 38 -33 -5 -2 -10 -9 -6 -19 15 l-16 30 -13 -29 -13 -29 -12 28 c-11 28 -12 28 -23 7z" transform="translate(0.000000,106.000000) scale(0.100000,-0.100000)" stroke="none" fill="#CC3868"/>

<path d="M954 380 c-31 -43 -69 -75 -156 -133 -128 -85 -167 -130 -176 -202 -5 -45 -5 -45 27 -45 29 0 31 2 31 38 0 56 43 109 142 174 87 57 164 135 174 174 13 50 -3 48 -42 -6z" transform="translate(0.000000,106.000000) scale(0.100000,-0.100000)" stroke="none" fill="#97A8B5"/>

<path d="M0 386 c0 -42 54 -103 145 -162 122 -80 165 -131 165 -199 0 -20 5 -25 25 -25 32 0 39 18 26 67 -16 58 -70 114 -171 178 -51 32 -111 81 -140 113 -48 54 -50 55 -50 28z" transform="translate(0.000000,106.000000) scale(0.100000,-0.100000)" stroke="none" fill="#97A8B5"/>

<path d="M620 1051 c0 -24 24 -69 53 -99 18 -19 87 -74 154 -123 67 -50 134 -104 148 -122 l25 -32 0 28 c0 44 -31 79 -141 158 -120 86 -168 133 -176 171 -4 23 -11 28 -34 28 -16 0 -29 -4 -29 -9z" transform="translate(0.000000,106.000000) scale(0.100000,-0.100000)" stroke="none" fill="#97A8B5"/>

<path d="M992 374 c-4 -27 -92 -111 -170 -162 -99 -65 -142 -118 -142 -174 0 -36 1 -38 33 -38 30 0 32 2 32 38 1 53 25 83 119 146 98 66 139 118 133 168 -2 18 -5 28 -5 22z" transform="translate(0.000000,106.000000) scale(0.100000,-0.100000)" stroke="none" fill="#DAAD35"/>

<path d="M301 1027 c-14 -40 -50 -76 -156 -152 -116 -84 -145 -113 -145 -148 l0 -30 23 24 c12 14 49 45 82 69 215 157 237 178 255 240 8 28 7 30 -20 30 -23 0 -30 -6 -39 -33z" transform="translate(0.000000,106.000000) scale(0.100000,-0.100000)" stroke="none" fill="#97A8B5"/>

<path d="M680 1043 c0 -34 47 -85 145 -156 55 -39 117 -89 138 -110 l37 -38 0 31 c0 47 -13 64 -98 126 -96 70 -141 112 -153 142 -11 28 -69 33 -69 5z" transform="translate(0.000000,106.000000) scale(0.100000,-0.100000)" stroke="none" fill="#DAAD35"/>

<path d="M0 323 c0 -42 43 -91 120 -138 82 -50 120 -96 120 -145 0 -39 1 -40 35 -40 31 0 35 3 35 25 0 68 -44 121 -162 197 -43 27 -94 69 -113 91 l-35 42 0 -32z" transform="translate(0.000000,106.000000) scale(0.100000,-0.100000)" stroke="none" fill="#DAAD35"/>

<path d="M230 1027 c-8 -18 -44 -53 -80 -80 -137 -102 -150 -115 -150 -153 l0 -35 48 40 c26 22 85 68 131 103 85 64 114 94 126 136 6 20 3 22 -27 22 -27 0 -36 -6 -48 -33z" transform="translate(0.000000,106.000000) scale(0.100000,-0.100000)" stroke="none" fill="#DAAD35"/>

<path d="M916 1020 c-9 -22 -16 -55 -16 -73 l1 -32 18 34 18 34 7 -36 c9 -48 23 -55 32 -15 6 29 8 30 15 13 5 -13 8 4 8 48 l1 67 -34 0 c-30 0 -36 -4 -50 -40z" transform="translate(0.000000,106.000000) scale(0.100000,-0.100000)" stroke="none" fill="#CC3868"/>

<path d="M0 1018 c0 -24 5 -61 11 -83 l12 -40 18 40 c9 22 18 35 18 29 1 -5 8 -19 17 -30 14 -18 15 -16 9 25 -8 64 -31 101 -60 101 -23 0 -25 -4 -25 -42z" transform="translate(0.000000,106.000000) scale(0.100000,-0.100000)" stroke="none" fill="#CC3868"/>

<path d="M106 115 c4 -8 0 -23 -7 -33 -13 -16 -12 -16 4 -2 17 13 19 12 17 -5 -4 -32 1 -71 7 -57 4 10 8 10 21 0 15 -11 15 -11 5 3 -7 9 -9 20 -5 24 4 5 1 5 -5 1 -9 -5 -13 1 -13 18 0 34 8 33 24 -5 12 -29 14 -30 29 -14 25 24 21 35 -14 42 -19 3 -34 14 -36 25 -3 10 -11 18 -19 18 -8 0 -11 -6 -8 -15z" transform="translate(0.000000,106.000000) scale(0.100000,-0.100000)" stroke="none" fill="#5F6364"/>

<path d="M649 528 c-4 -15 -2 -33 2 -40 7 -10 9 -9 9 5 0 9 5 17 10 17 6 0 10 -6 10 -14 0 -15 -24 -39 -32 -31 -3 3 -8 -3 -11 -15 -7 -26 0 -25 22 2 10 12 28 23 41 25 30 4 32 6 24 27 -4 9 -14 16 -23 15 -31 -3 -40 1 -43 19 -3 12 -6 9 -9 -10z" transform="translate(0.000000,106.000000) scale(0.100000,-0.100000)" stroke="none" fill="#5F6364"/>

<path d="M847 110 c-9 -11 -26 -20 -36 -20 -29 0 -33 -15 -12 -41 l19 -24 16 39 16 38 27 -17 c27 -18 28 -18 12 1 -9 10 -14 25 -12 32 7 19 -11 14 -30 -8z" transform="translate(0.000000,106.000000) scale(0.100000,-0.100000)" stroke="none" fill="#5F6364"/>

<path d="M280 499 c-10 -17 -7 -20 19 -25 34 -7 64 -34 38 -34 -22 0 -41 -26 -26 -36 8 -4 9 -3 5 5 -5 7 3 15 23 22 19 7 28 15 24 25 -3 8 -9 12 -14 9 -10 -6 -32 32 -25 43 2 4 -4 9 -15 9 -10 1 -24 -7 -29 -18z" transform="translate(0.000000,106.000000) scale(0.100000,-0.100000)" stroke="none" fill="#5F6364"/>

<path d="M568 417 c-30 -25 -48 -57 -48 -84 1 -14 6 -12 26 12 28 33 57 85 52 90 -2 2 -16 -6 -30 -18z" transform="translate(0.000000,106.000000) scale(0.100000,-0.100000)" stroke="none" fill="#5F6364"/>

<path d="M419 405 c33 -55 71 -95 71 -74 0 22 -40 79 -70 98 l-24 16 23 -40z" transform="translate(0.000000,106.000000) scale(0.100000,-0.100000)" stroke="none" fill="#5F6364"/>

<path d="M966 209 c-15 -17 -34 -45 -42 -61 -15 -28 -14 -29 5 -19 35 19 82 93 68 107 -2 3 -16 -9 -31 -27z" transform="translate(0.000000,106.000000) scale(0.100000,-0.100000)" stroke="none" fill="#5F6364"/>

<path d="M112 1038 c-7 -7 -12 -22 -12 -35 0 -20 5 -23 30 -21 34 3 40 26 14 52 -19 19 -17 19 -32 4z" transform="translate(0.000000,106.000000) scale(0.100000,-0.100000)" stroke="none" fill="#DAAD35"/>

<path d="M630 602 c0 -10 6 -26 13 -37 13 -17 15 -17 30 6 25 35 21 49 -13 49 -22 0 -30 -5 -30 -18z" transform="translate(0.000000,106.000000) scale(0.100000,-0.100000)" stroke="none" fill="#DAAD35"/>

<path d="M0 207 c0 -16 13 -36 35 -56 20 -17 38 -31 40 -31 7 0 -55 99 -66 105 -5 4 -9 -5 -9 -18z" transform="translate(0.000000,106.000000) scale(0.100000,-0.100000)" stroke="none" fill="#5F6364"/>

<path d="M832 1021 c-8 -23 -8 -31 1 -32 7 0 20 -2 30 -4 15 -3 18 2 15 28 -4 43 -32 48 -46 8z" transform="translate(0.000000,106.000000) scale(0.100000,-0.100000)" stroke="none" fill="#DAAD35"/>

<path d="M327 611 c-14 -5 -15 -10 -4 -31 18 -35 41 -32 45 6 3 31 -6 37 -41 25z" transform="translate(0.000000,106.000000) scale(0.100000,-0.100000)" stroke="none" fill="#DAAD35"/>

<path d="M956 39 c-35 -28 -33 -39 9 -39 32 0 35 2 35 30 0 35 -8 37 -44 9z" transform="translate(0.000000,106.000000) scale(0.100000,-0.100000)" stroke="none" fill="#CC3868"/>

<path d="M0 30 c0 -27 3 -30 32 -30 l32 0 -29 30 c-16 17 -30 30 -32 30 -2 0 -3 -13 -3 -30z" transform="translate(0.000000,106.000000) scale(0.100000,-0.100000)" stroke="none" fill="#CC3868"/>

<path d="M541 454 c-21 -27 -29 -60 -12 -50 15 9 51 76 41 76 -5 0 -18 -12 -29 -26z" transform="translate(0.000000,106.000000) scale(0.100000,-0.100000)" stroke="none" fill="#5F6364"/>

<path d="M444 452 c15 -28 46 -61 46 -48 0 17 -31 64 -45 70 -14 5 -14 2 -1 -22z" transform="translate(0.000000,106.000000) scale(0.100000,-0.100000)" stroke="none" fill="#5F6364"/>

<path d="M964 125 c-15 -20 -24 -38 -22 -41 7 -6 58 54 58 67 0 16 -8 10 -36 -26z" transform="translate(0.000000,106.000000) scale(0.100000,-0.100000)" stroke="none" fill="#5F6364"/>

<path d="M0 143 c0 -22 12 -44 32 -54 17 -9 18 -8 9 8 -17 32 -40 58 -41 46z" transform="translate(0.000000,106.000000) scale(0.100000,-0.100000)" stroke="none" fill="#5F6364"/>

<path d="M620 514 c0 -12 7 -27 15 -34 20 -17 21 9 0 36 -14 19 -14 19 -15 -2z" transform="translate(0.000000,106.000000) scale(0.100000,-0.100000)" stroke="none" fill="#DAAD35"/>

<path d="M71 185 c0 -21 27 -45 50 -44 21 1 21 2 4 6 -11 3 -28 15 -37 26 -10 12 -18 18 -17 12z" transform="translate(0.000000,106.000000) scale(0.100000,-0.100000)" stroke="none" fill="#5F6364"/>

<path d="M365 504 c-20 -30 -10 -48 11 -20 13 18 19 46 10 46 -2 0 -11 -12 -21 -26z" transform="translate(0.000000,106.000000) scale(0.100000,-0.100000)" stroke="none" fill="#DAAD35"/>

<path d="M877 58 c13 -26 18 -29 21 -15 4 19 -14 47 -29 47 -5 0 -2 -15 8 -32z" transform="translate(0.000000,106.000000) scale(0.100000,-0.100000)" stroke="none" fill="#DAAD35"/>

<path d="M640 430 c-12 -8 -9 -10 12 -10 15 0 30 5 33 10 8 13 -25 13 -45 0z" transform="translate(0.000000,106.000000) scale(0.100000,-0.100000)" stroke="none" fill="#DAAD35"/>

<path d="M101 77 c-7 -9 -11 -24 -9 -34 3 -16 5 -15 17 5 15 29 10 50 -8 29z" transform="translate(0.000000,106.000000) scale(0.100000,-0.100000)" stroke="none" fill="#DAAD35"/>

<path d="M400 225 c19 -19 36 -35 39 -35 3 0 -10 16 -29 35 -19 19 -36 35 -39 35 -3 0 10 -16 29 -35z" transform="translate(0.000000,106.000000) scale(0.100000,-0.100000)" stroke="none" fill="#5F6364"/>

<path d="M194 988 l-29 -33 33 29 c30 28 37 36 29 36 -2 0 -16 -15 -33 -32z" transform="translate(0.000000,106.000000) scale(0.100000,-0.100000)" stroke="none" fill="#5F6364"/>

<path d="M366 422 c-3 -5 6 -20 21 -33 l26 -24 -19 30 c-10 17 -19 31 -20 33 -1 2 -5 -1 -8 -6z" transform="translate(0.000000,106.000000) scale(0.100000,-0.100000)" stroke="none" fill="#5F6364"/>

<path d="M300 541 c0 -10 31 -31 45 -31 11 0 -5 20 -26 30 -12 7 -19 7 -19 1z" transform="translate(0.000000,106.000000) scale(0.100000,-0.100000)" stroke="none" fill="#DAAD35"/>

<path d="M340 430 c-22 -6 -23 -8 -7 -15 11 -4 23 -3 30 4 15 15 7 19 -23 11z" transform="translate(0.000000,106.000000) scale(0.100000,-0.100000)" stroke="none" fill="#DAAD35"/>

<path d="M650 967 c0 -2 15 -16 33 -33 l32 -29 -29 33 c-28 30 -36 37 -36 29z" transform="translate(0.000000,106.000000) scale(0.100000,-0.100000)" stroke="none" fill="#5F6364"/>

<path d="M920 757 c0 -2 15 -16 33 -33 l32 -29 -29 33 c-28 30 -36 37 -36 29z" transform="translate(0.000000,106.000000) scale(0.100000,-0.100000)" stroke="none" fill="#5F6364"/>

<path d="M140 427 c0 -2 15 -16 33 -33 l32 -29 -29 33 c-28 30 -36 37 -36 29z" transform="translate(0.000000,106.000000) scale(0.100000,-0.100000)" stroke="none" fill="#5F6364"/>

<path d="M564 318 l-29 -33 33 29 c30 28 37 36 29 36 -2 0 -16 -15 -33 -32z" transform="translate(0.000000,106.000000) scale(0.100000,-0.100000)" stroke="none" fill="#5F6364"/>

<path d="M343 525 c2 -14 6 -25 10 -25 4 0 10 0 13 0 4 0 1 7 -6 15 -6 8 -9 19 -5 25 3 5 1 10 -5 10 -6 0 -9 -11 -7 -25z" transform="translate(0.000000,106.000000) scale(0.100000,-0.100000)" stroke="none" fill="#5F6364"/>

<path d="M820 35 c-16 -19 -1 -19 24 0 16 12 17 15 4 15 -8 0 -21 -7 -28 -15z" transform="translate(0.000000,106.000000) scale(0.100000,-0.100000)" stroke="none" fill="#DAAD35"/>

<path d="M894 175 c-9 -14 -15 -28 -12 -30 2 -2 12 9 22 25 21 36 13 40 -10 5z" transform="translate(0.000000,106.000000) scale(0.100000,-0.100000)" stroke="none" fill="#5F6364"/>

<path d="M115 130 c27 -12 35 -12 35 0 0 6 -12 10 -27 9 -25 0 -26 -1 -8 -9z" transform="translate(0.000000,106.000000) scale(0.100000,-0.100000)" stroke="none" fill="#DAAD35"/>

<path d="M439 873 l-24 -28 28 24 c25 23 32 31 24 31 -2 0 -14 -12 -28 -27z" transform="translate(0.000000,106.000000) scale(0.100000,-0.100000)" stroke="none" fill="#5F6364"/>

<path d="M719 433 l-24 -28 28 24 c25 23 32 31 24 31 -2 0 -14 -12 -28 -27z" transform="translate(0.000000,106.000000) scale(0.100000,-0.100000)" stroke="none" fill="#5F6364"/>

<path d="M909 333 l-24 -28 28 24 c25 23 32 31 24 31 -2 0 -14 -12 -28 -27z" transform="translate(0.000000,106.000000) scale(0.100000,-0.100000)" stroke="none" fill="#5F6364"/>

<path d="M835 140 c-4 -6 5 -10 19 -10 14 0 26 5 26 10 0 6 -9 10 -19 10 -11 0 -23 -4 -26 -10z" transform="translate(0.000000,106.000000) scale(0.100000,-0.100000)" stroke="none" fill="#DAAD35"/>

<path d="M144 31 c11 -11 23 -21 28 -21 14 0 -1 19 -25 31 -22 12 -22 12 -3 -10z" transform="translate(0.000000,106.000000) scale(0.100000,-0.100000)" stroke="none" fill="#DAAD35"/>

<path d="M674 535 c-17 -13 -17 -14 -2 -15 9 0 20 5 23 11 11 17 0 20 -21 4z" transform="translate(0.000000,106.000000) scale(0.100000,-0.100000)" stroke="none" fill="#DAAD35"/>

<path d="M300 165 c13 -14 26 -25 28 -25 3 0 -5 11 -18 25 -13 14 -26 25 -28 25 -3 0 5 -11 18 -25z" transform="translate(0.000000,106.000000) scale(0.100000,-0.100000)" stroke="none" fill="#5F6364"/>

<path d="M852 65 c-11 -13 -10 -15 7 -15 14 0 19 5 15 15 -7 18 -6 18 -22 0z" transform="translate(0.000000,106.000000) scale(0.100000,-0.100000)" stroke="none" fill="#5F6364"/>

<path d="M264 608 l-19 -23 23 19 c21 18 27 26 19 26 -2 0 -12 -10 -23 -22z" transform="translate(0.000000,106.000000) scale(0.100000,-0.100000)" stroke="none" fill="#5F6364"/>

<path d="M35 240 c10 -11 20 -20 23 -20 3 0 -3 9 -13 20 -10 11 -20 20 -23 20 -3 0 3 -9 13 -20z" transform="translate(0.000000,106.000000) scale(0.100000,-0.100000)" stroke="none" fill="#5F6364"/>

<path d="M14 848 l-19 -23 23 19 c21 18 27 26 19 26 -2 0 -12 -10 -23 -22z" transform="translate(0.000000,106.000000) scale(0.100000,-0.100000)" stroke="none" fill="#5F6364"/>

<path d="M835 660 c10 -11 20 -20 23 -20 3 0 -3 9 -13 20 -10 11 -20 20 -23 20 -3 0 3 -9 13 -20z" transform="translate(0.000000,106.000000) scale(0.100000,-0.100000)" stroke="none" fill="#5F6364"/>

<path d="M611 523 c0 -11 3 -13 6 -5 2 6 10 9 15 6 7 -4 8 -2 4 4 -11 18 -26 14 -25 -5z" transform="translate(0.000000,106.000000) scale(0.100000,-0.100000)" stroke="none" fill="#5F6364"/>

<path d="M820 986 c0 -2 9 -6 20 -9 11 -3 18 -1 14 4 -5 9 -34 13 -34 5z" transform="translate(0.000000,106.000000) scale(0.100000,-0.100000)" stroke="none" fill="#5F6364"/>

<path d="M259 903 c-13 -16 -12 -17 4 -4 16 13 21 21 13 21 -2 0 -10 -8 -17 -17z" transform="translate(0.000000,106.000000) scale(0.100000,-0.100000)" stroke="none" fill="#5F6364"/>

<path d="M530 766 c0 -2 8 -10 18 -17 15 -13 16 -12 3 4 -13 16 -21 21 -21 13z" transform="translate(0.000000,106.000000) scale(0.100000,-0.100000)" stroke="none" fill="#5F6364"/>

<path d="M157 991 c-4 -17 -3 -21 5 -13 5 5 8 16 6 23 -3 8 -7 3 -11 -10z" transform="translate(0.000000,106.000000) scale(0.100000,-0.100000)" stroke="none" fill="#5F6364"/>

<path d="M580 856 c0 -2 8 -10 18 -17 15 -13 16 -12 3 4 -13 16 -21 21 -21 13z" transform="translate(0.000000,106.000000) scale(0.100000,-0.100000)" stroke="none" fill="#5F6364"/>

<path d="M829 168 c-5 -18 -6 -38 -1 -34 7 8 12 36 6 36 -2 0 -4 -1 -5 -2z" transform="translate(0.000000,106.000000) scale(0.100000,-0.100000)" stroke="none" fill="#5F6364"/>

<path d="M779 123 c-13 -16 -12 -17 4 -4 16 13 21 21 13 21 -2 0 -10 -8 -17 -17z" transform="translate(0.000000,106.000000) scale(0.100000,-0.100000)" stroke="none" fill="#5F6364"/>

<path d="M80 35 c0 -8 4 -15 10 -15 5 0 7 7 4 15 -4 8 -8 15 -10 15 -2 0 -4 -7 -4 -15z" transform="translate(0.000000,106.000000) scale(0.100000,-0.100000)" stroke="none" fill="#5F6364"/>

<path d="M372 595 c0 -16 2 -22 5 -12 2 9 2 23 0 30 -3 6 -5 -1 -5 -18z" transform="translate(0.000000,106.000000) scale(0.100000,-0.100000)" stroke="none" fill="#CC3868"/>

<path d="M611 397 c-13 -21 -12 -21 5 -5 10 10 16 20 13 22 -3 3 -11 -5 -18 -17z" transform="translate(0.000000,106.000000) scale(0.100000,-0.100000)" stroke="none" fill="#5F6364"/>

<path d="M836 32 c-3 -5 1 -9 9 -9 8 0 15 4 15 9 0 10 -17 10 -24 0z" transform="translate(0.000000,106.000000) scale(0.100000,-0.100000)" stroke="none" fill="#5F6364"/>

<path d="M497 963 c-4 -3 -7 -11 -7 -17 0 -6 5 -5 12 2 6 6 9 14 7 17 -3 3 -9 2 -12 -2z" transform="translate(0.000000,106.000000) scale(0.100000,-0.100000)" stroke="none" fill="#5F6364"/>

<path d="M90 316 c0 -2 8 -10 18 -17 15 -13 16 -12 3 4 -13 16 -21 21 -21 13z" transform="translate(0.000000,106.000000) scale(0.100000,-0.100000)" stroke="none" fill="#5F6364"/>

<path d="M882 1010 c0 -14 2 -19 5 -12 2 6 2 18 0 25 -3 6 -5 1 -5 -13z" transform="translate(0.000000,106.000000) scale(0.100000,-0.100000)" stroke="none" fill="#CC3868"/>

<path d="M638 623 c6 -2 18 -2 25 0 6 3 1 5 -13 5 -14 0 -19 -2 -12 -5z" transform="translate(0.000000,106.000000) scale(0.100000,-0.100000)" stroke="none" fill="#CC3868"/>

<path d="M850 16 c0 -2 7 -7 16 -10 8 -3 12 -2 9 4 -6 10 -25 14 -25 6z" transform="translate(0.000000,106.000000) scale(0.100000,-0.100000)" stroke="none" fill="#CC3868"/>

<path d="M850 1056 c0 -2 7 -7 16 -10 8 -3 12 -2 9 4 -6 10 -25 14 -25 6z" transform="translate(0.000000,106.000000) scale(0.100000,-0.100000)" stroke="none" fill="#CC3868"/>

<path d="M621 604 c0 -11 3 -14 6 -6 3 7 2 16 -1 19 -3 4 -6 -2 -5 -13z" transform="translate(0.000000,106.000000) scale(0.100000,-0.100000)" stroke="none" fill="#5F6364"/>

<path d="M891 564 c0 -11 3 -14 6 -6 3 7 2 16 -1 19 -3 4 -6 -2 -5 -13z" transform="translate(0.000000,106.000000) scale(0.100000,-0.100000)" stroke="none" fill="#5F6364"/>

<path d="M101 534 c0 -11 3 -14 6 -6 3 7 2 16 -1 19 -3 4 -6 -2 -5 -13z" transform="translate(0.000000,106.000000) scale(0.100000,-0.100000)" stroke="none" fill="#5F6364"/>

<path d="M232 525 c0 -16 2 -22 5 -12 2 9 2 23 0 30 -3 6 -5 -1 -5 -18z" transform="translate(0.000000,106.000000) scale(0.100000,-0.100000)" stroke="none" fill="#5F6364"/>

<path d="M891 504 c0 -11 3 -14 6 -6 3 7 2 16 -1 19 -3 4 -6 -2 -5 -13z" transform="translate(0.000000,106.000000) scale(0.100000,-0.100000)" stroke="none" fill="#5F6364"/>

<path d="M611 24 c0 -11 3 -14 6 -6 3 7 2 16 -1 19 -3 4 -6 -2 -5 -13z" transform="translate(0.000000,106.000000) scale(0.100000,-0.100000)" stroke="none" fill="#5F6364"/>

<path d="M318 613 c7 -3 16 -2 19 1 4 3 -2 6 -13 5 -11 0 -14 -3 -6 -6z" transform="translate(0.000000,106.000000) scale(0.100000,-0.100000)" stroke="none" fill="#CC3868"/>

<path d="M742 35 c0 -17 2 -22 5 -12 2 9 2 23 0 30 -3 6 -5 -1 -5 -18z" transform="translate(0.000000,106.000000) scale(0.100000,-0.100000)" stroke="none" fill="#5F6364"/>

<path d="M848 3 c7 -3 16 -2 19 1 4 3 -2 6 -13 5 -11 0 -14 -3 -6 -6z" transform="translate(0.000000,106.000000) scale(0.100000,-0.100000)" stroke="none" fill="#DAAD35"/>

</svg>