<?xml version="1.0" standalone="no"?>
<!DOCTYPE svg PUBLIC "-//W3C//DTD SVG 20010904//EN"
 "http://www.w3.org/TR/2001/REC-SVG-20010904/DTD/svg10.dtd">
<svg version="1.0" xmlns="http://www.w3.org/2000/svg" 
width="122.000000pt" height="126.000000pt" viewBox="0 0 122.000000 126.000000"
preserveAspectRatio = "xMidYMid meet" >
<metadata>
Created by potrace 1.16, written by Peter Selinger 2001-2019
</metadata>
<rect width="122.000000" height="126.000000" fill="#FDFDFD"/>
<path d="M880 1051 c0 -5 -80 -82 -177 -172 -213 -195 -493 -470 -493 -484 0 -5 21 -21 47 -35 27 -14 86 -46 133 -73 48 -27 96 -47 110 -46 14 1 36 -2 50 -8 42 -18 93 -32 135 -38 38 -6 45 -2 129 62 145 110 152 119 159 188 4 33 12 112 18 175 12 107 11 120 -8 180 -11 36 -30 103 -43 150 -12 47 -24 91 -26 98 -4 14 -34 17 -34 3z m-102 -259 c2 -7 -6 -12 -21 -12 -13 0 -32 -9 -43 -21 -15 -17 -16 -23 -5 -40 11 -18 10 -20 -6 -17 -42 8 -17 92 29 101 31 6 41 3 46 -11z m-135 -210 c27 -28 27 -29 8 -46 -19 -17 -21 -17 -50 4 -36 25 -37 27 -14 52 21 24 24 23 56 -10z m107 -103 c0 -5 -9 -9 -20 -9 -11 0 -20 6 -20 14 0 9 7 12 20 9 11 -3 20 -9 20 -14z m-275 -14 c0 -22 -31 -33 -47 -17 -17 17 -1 44 24 40 15 -2 23 -10 23 -23z m155 -75 c0 -5 -4 -10 -10 -10 -5 0 -10 5 -10 10 0 6 5 10 10 10 6 0 10 -4 10 -10z m-40 -60 c0 -5 -9 -10 -20 -10 -11 0 -20 5 -20 10 0 6 9 10 20 10 11 0 20 -4 20 -10z" transform="translate(0.000000,126.000000) scale(0.100000,-0.100000)" stroke="none" fill="#EC3E41"/>

<path d="M880 1051 c0 -5 -80 -82 -177 -172 -213 -195 -493 -470 -493 -484 0 -5 21 -21 47 -35 27 -14 86 -46 133 -73 48 -27 96 -47 110 -46 14 1 36 -2 50 -8 42 -18 93 -32 135 -38 38 -6 45 -2 129 62 145 110 152 119 159 188 4 33 12 112 18 175 12 107 11 120 -8 180 -11 36 -30 103 -43 150 -12 47 -24 91 -26 98 -4 14 -34 17 -34 3z m-102 -259 c2 -7 -6 -12 -21 -12 -13 0 -32 -9 -43 -21 -15 -17 -16 -23 -5 -40 11 -18 10 -20 -6 -17 -42 8 -17 92 29 101 31 6 41 3 46 -11z m-135 -210 c27 -28 27 -29 8 -46 -19 -17 -21 -17 -50 4 -36 25 -37 27 -14 52 21 24 24 23 56 -10z m107 -103 c0 -5 -9 -9 -20 -9 -11 0 -20 6 -20 14 0 9 7 12 20 9 11 -3 20 -9 20 -14z m-275 -14 c0 -22 -31 -33 -47 -17 -17 17 -1 44 24 40 15 -2 23 -10 23 -23z m155 -75 c0 -5 -4 -10 -10 -10 -5 0 -10 5 -10 10 0 6 5 10 10 10 6 0 10 -4 10 -10z m-40 -60 c0 -5 -9 -10 -20 -10 -11 0 -20 5 -20 10 0 6 9 10 20 10 11 0 20 -4 20 -10z" transform="translate(0.000000,126.000000) scale(0.100000,-0.100000)" stroke="none" fill="#EC3E41"/>

<path d="M0 1125 c0 -132 1 -135 20 -125 45 24 100 -17 100 -75 0 -33 -34 -75 -61 -75 -8 0 -3 10 14 25 35 33 35 48 0 30 -34 -18 -60 -5 -66 32 -3 20 -4 15 -6 -14 0 -26 3 -43 10 -43 8 0 8 -4 -1 -14 -9 -12 -5 -16 26 -22 36 -7 40 -4 75 35 20 22 43 41 50 41 19 0 251 59 257 65 3 3 -25 36 -61 74 -37 38 -67 72 -67 76 0 4 11 20 25 37 36 43 32 83 -10 85 -16 1 -21 -5 -20 -25 0 -23 -5 -27 -32 -30 -27 -3 -33 0 -33 16 0 10 -6 19 -13 19 -23 0 -7 -44 20 -56 25 -12 73 -5 73 10 0 5 5 9 10 9 19 0 10 -19 -21 -41 -30 -21 -32 -21 -65 -5 -37 17 -58 56 -49 87 6 18 0 19 -84 19 l-91 0 0 -135z m116 -12 c18 -16 34 -32 34 -36 0 -9 -101 2 -111 12 -12 10 10 51 26 51 9 0 32 -12 51 -27z" transform="translate(0.000000,126.000000) scale(0.100000,-0.100000)" stroke="none" fill="#8AA4B5"/>

<path d="M0 1125 c0 -132 1 -135 20 -125 45 24 100 -17 100 -75 0 -33 -34 -75 -61 -75 -8 0 -3 10 14 25 35 33 35 48 0 30 -34 -18 -60 -5 -66 32 -3 20 -4 15 -6 -14 0 -26 3 -43 10 -43 8 0 8 -4 -1 -14 -9 -12 -5 -16 26 -22 36 -7 40 -4 75 35 20 22 43 41 50 41 19 0 251 59 257 65 3 3 -25 36 -61 74 -37 38 -67 72 -67 76 0 4 11 20 25 37 36 43 32 83 -10 85 -16 1 -21 -5 -20 -25 0 -23 -5 -27 -32 -30 -27 -3 -33 0 -33 16 0 10 -6 19 -13 19 -23 0 -7 -44 20 -56 25 -12 73 -5 73 10 0 5 5 9 10 9 19 0 10 -19 -21 -41 -30 -21 -32 -21 -65 -5 -37 17 -58 56 -49 87 6 18 0 19 -84 19 l-91 0 0 -135z m116 -12 c18 -16 34 -32 34 -36 0 -9 -101 2 -111 12 -12 10 10 51 26 51 9 0 32 -12 51 -27z" transform="translate(0.000000,126.000000) scale(0.100000,-0.100000)" stroke="none" fill="#8AA4B5"/>

<path d="M749 116 c-2 -2 -2 -29 -1 -60 l4 -56 111 0 c84 0 114 4 127 15 16 14 175 37 185 26 3 -2 5 -13 5 -23 0 -11 7 -18 20 -18 16 0 20 7 20 33 0 18 -6 39 -12 46 -10 11 -10 14 0 18 6 3 12 9 12 14 0 9 -462 14 -471 5z" transform="translate(0.000000,126.000000) scale(0.100000,-0.100000)" stroke="none" fill="#3C578D"/>

<path d="M749 116 c-2 -2 -2 -29 -1 -60 l4 -56 111 0 c84 0 114 4 127 15 16 14 175 37 185 26 3 -2 5 -13 5 -23 0 -11 7 -18 20 -18 16 0 20 7 20 33 0 18 -6 39 -12 46 -10 11 -10 14 0 18 6 3 12 9 12 14 0 9 -462 14 -471 5z" transform="translate(0.000000,126.000000) scale(0.100000,-0.100000)" stroke="none" fill="#3C578D"/>

<path d="M18 998 c-14 -10 -16 -22 -12 -51 8 -47 31 -61 67 -42 35 18 35 3 0 -30 -20 -18 -23 -25 -12 -25 26 0 59 44 59 77 0 56 -63 100 -102 71z m22 -28 c0 -5 -5 -10 -11 -10 -5 0 -7 5 -4 10 3 6 8 10 11 10 2 0 4 -4 4 -10z" transform="translate(0.000000,126.000000) scale(0.100000,-0.100000)" stroke="none" fill="#3C578D"/>

<path d="M18 998 c-14 -10 -16 -22 -12 -51 8 -47 31 -61 67 -42 35 18 35 3 0 -30 -20 -18 -23 -25 -12 -25 26 0 59 44 59 77 0 56 -63 100 -102 71z m22 -28 c0 -5 -5 -10 -11 -10 -5 0 -7 5 -4 10 3 6 8 10 11 10 2 0 4 -4 4 -10z" transform="translate(0.000000,126.000000) scale(0.100000,-0.100000)" stroke="none" fill="#3C578D"/>

<path d="M860 133 c-58 -2 -108 -7 -112 -11 -4 -4 101 -6 232 -4 146 2 240 6 240 12 0 10 -111 10 -360 3z" transform="translate(0.000000,126.000000) scale(0.100000,-0.100000)" stroke="none" fill="#8AA4B5"/>

<path d="M860 133 c-58 -2 -108 -7 -112 -11 -4 -4 101 -6 232 -4 146 2 240 6 240 12 0 10 -111 10 -360 3z" transform="translate(0.000000,126.000000) scale(0.100000,-0.100000)" stroke="none" fill="#8AA4B5"/>

<path d="M1086 38 c-49 -4 -86 -13 -95 -23 -14 -13 -5 -15 87 -15 94 0 102 1 102 19 0 27 -4 28 -94 19z" transform="translate(0.000000,126.000000) scale(0.100000,-0.100000)" stroke="none" fill="#8AA4B5"/>

<path d="M1086 38 c-49 -4 -86 -13 -95 -23 -14 -13 -5 -15 87 -15 94 0 102 1 102 19 0 27 -4 28 -94 19z" transform="translate(0.000000,126.000000) scale(0.100000,-0.100000)" stroke="none" fill="#8AA4B5"/>

<path d="M175 1241 c-9 -31 12 -70 49 -87 33 -16 35 -16 65 5 31 22 40 41 21 41 -5 0 -10 -4 -10 -9 0 -15 -48 -22 -74 -9 -24 10 -31 29 -27 66 3 19 -17 14 -24 -7z" transform="translate(0.000000,126.000000) scale(0.100000,-0.100000)" stroke="none" fill="#3C578D"/>

<path d="M175 1241 c-9 -31 12 -70 49 -87 33 -16 35 -16 65 5 31 22 40 41 21 41 -5 0 -10 -4 -10 -9 0 -15 -48 -22 -74 -9 -24 10 -31 29 -27 66 3 19 -17 14 -24 -7z" transform="translate(0.000000,126.000000) scale(0.100000,-0.100000)" stroke="none" fill="#3C578D"/>

<path d="M587 592 c-23 -25 -22 -27 14 -52 29 -21 31 -21 50 -4 19 17 19 18 -8 46 -32 33 -35 34 -56 10z" transform="translate(0.000000,126.000000) scale(0.100000,-0.100000)" stroke="none" fill="#3C578D"/>

<path d="M587 592 c-23 -25 -22 -27 14 -52 29 -21 31 -21 50 -4 19 17 19 18 -8 46 -32 33 -35 34 -56 10z" transform="translate(0.000000,126.000000) scale(0.100000,-0.100000)" stroke="none" fill="#3C578D"/>

<path d="M41 1118 c-5 -13 -6 -26 -2 -29 10 -10 111 -21 111 -12 0 13 -68 63 -85 63 -9 0 -20 -10 -24 -22z" transform="translate(0.000000,126.000000) scale(0.100000,-0.100000)" stroke="none" fill="#3C578D"/>

<path d="M41 1118 c-5 -13 -6 -26 -2 -29 10 -10 111 -21 111 -12 0 13 -68 63 -85 63 -9 0 -20 -10 -24 -22z" transform="translate(0.000000,126.000000) scale(0.100000,-0.100000)" stroke="none" fill="#3C578D"/>

<path d="M306 511 c-66 -66 -106 -114 -103 -122 4 -11 6 -11 6 1 1 8 49 63 108 122 59 60 105 108 103 108 -3 0 -54 -49 -114 -109z" transform="translate(0.000000,126.000000) scale(0.100000,-0.100000)" stroke="none" fill="#8AA4B5"/>

<path d="M306 511 c-66 -66 -106 -114 -103 -122 4 -11 6 -11 6 1 1 8 49 63 108 122 59 60 105 108 103 108 -3 0 -54 -49 -114 -109z" transform="translate(0.000000,126.000000) scale(0.100000,-0.100000)" stroke="none" fill="#8AA4B5"/>

<path d="M732 803 c-46 -9 -71 -93 -29 -101 16 -3 17 -1 6 17 -11 17 -10 23 5 40 11 12 30 21 43 21 15 0 23 5 21 12 -5 14 -15 17 -46 11z" transform="translate(0.000000,126.000000) scale(0.100000,-0.100000)" stroke="none" fill="#3C578D"/>

<path d="M732 803 c-46 -9 -71 -93 -29 -101 16 -3 17 -1 6 17 -11 17 -10 23 5 40 11 12 30 21 43 21 15 0 23 5 21 12 -5 14 -15 17 -46 11z" transform="translate(0.000000,126.000000) scale(0.100000,-0.100000)" stroke="none" fill="#3C578D"/>

<path d="M227 1254 c-4 -4 -7 -18 -7 -31 0 -21 4 -24 33 -21 27 2 32 7 32 28 0 19 -6 26 -25 28 -14 2 -29 0 -33 -4z" transform="translate(0.000000,126.000000) scale(0.100000,-0.100000)" stroke="none" fill="#3C578D"/>

<path d="M227 1254 c-4 -4 -7 -18 -7 -31 0 -21 4 -24 33 -21 27 2 32 7 32 28 0 19 -6 26 -25 28 -14 2 -29 0 -33 -4z" transform="translate(0.000000,126.000000) scale(0.100000,-0.100000)" stroke="none" fill="#3C578D"/>

<path d="M424 475 c-4 -9 -2 -21 4 -27 16 -16 47 -5 47 17 0 26 -42 34 -51 10z" transform="translate(0.000000,126.000000) scale(0.100000,-0.100000)" stroke="none" fill="#3C578D"/>

<path d="M424 475 c-4 -9 -2 -21 4 -27 16 -16 47 -5 47 17 0 26 -42 34 -51 10z" transform="translate(0.000000,126.000000) scale(0.100000,-0.100000)" stroke="none" fill="#3C578D"/>

<path d="M970 426 c0 -18 -9 -46 -21 -62 l-21 -29 26 28 c18 19 26 39 26 63 0 19 -2 34 -5 34 -3 0 -5 -15 -5 -34z" transform="translate(0.000000,126.000000) scale(0.100000,-0.100000)" stroke="none" fill="#8AA4B5"/>

<path d="M970 426 c0 -18 -9 -46 -21 -62 l-21 -29 26 28 c18 19 26 39 26 63 0 19 -2 34 -5 34 -3 0 -5 -15 -5 -34z" transform="translate(0.000000,126.000000) scale(0.100000,-0.100000)" stroke="none" fill="#8AA4B5"/>

<path d="M820 993 l-55 -58 58 55 c31 30 57 56 57 57 0 8 -10 -1 -60 -54z" transform="translate(0.000000,126.000000) scale(0.100000,-0.100000)" stroke="none" fill="#8AA4B5"/>

<path d="M820 993 l-55 -58 58 55 c31 30 57 56 57 57 0 8 -10 -1 -60 -54z" transform="translate(0.000000,126.000000) scale(0.100000,-0.100000)" stroke="none" fill="#8AA4B5"/>

<path d="M565 758 l-40 -43 43 40 c23 21 42 40 42 42 0 8 -9 0 -45 -39z" transform="translate(0.000000,126.000000) scale(0.100000,-0.100000)" stroke="none" fill="#8AA4B5"/>

<path d="M565 758 l-40 -43 43 40 c23 21 42 40 42 42 0 8 -9 0 -45 -39z" transform="translate(0.000000,126.000000) scale(0.100000,-0.100000)" stroke="none" fill="#8AA4B5"/>

<path d="M664 848 l-29 -33 33 29 c30 28 37 36 29 36 -2 0 -16 -15 -33 -32z" transform="translate(0.000000,126.000000) scale(0.100000,-0.100000)" stroke="none" fill="#8AA4B5"/>

<path d="M664 848 l-29 -33 33 29 c30 28 37 36 29 36 -2 0 -16 -15 -33 -32z" transform="translate(0.000000,126.000000) scale(0.100000,-0.100000)" stroke="none" fill="#8AA4B5"/>

<path d="M710 484 c0 -8 9 -14 20 -14 11 0 20 4 20 9 0 5 -9 11 -20 14 -13 3 -20 0 -20 -9z" transform="translate(0.000000,126.000000) scale(0.100000,-0.100000)" stroke="none" fill="#8AA4B5"/>

<path d="M710 484 c0 -8 9 -14 20 -14 11 0 20 4 20 9 0 5 -9 11 -20 14 -13 3 -20 0 -20 -9z" transform="translate(0.000000,126.000000) scale(0.100000,-0.100000)" stroke="none" fill="#8AA4B5"/>

<path d="M550 330 c0 -5 9 -10 20 -10 11 0 20 5 20 10 0 6 -9 10 -20 10 -11 0 -20 -4 -20 -10z" transform="translate(0.000000,126.000000) scale(0.100000,-0.100000)" stroke="none" fill="#8AA4B5"/>

<path d="M550 330 c0 -5 9 -10 20 -10 11 0 20 5 20 10 0 6 -9 10 -20 10 -11 0 -20 -4 -20 -10z" transform="translate(0.000000,126.000000) scale(0.100000,-0.100000)" stroke="none" fill="#8AA4B5"/>

<path d="M511 240 c-9 -5 -3 -9 16 -13 34 -6 37 -5 14 10 -10 6 -23 8 -30 3z" transform="translate(0.000000,126.000000) scale(0.100000,-0.100000)" stroke="none" fill="#8AA4B5"/>

<path d="M511 240 c-9 -5 -3 -9 16 -13 34 -6 37 -5 14 10 -10 6 -23 8 -30 3z" transform="translate(0.000000,126.000000) scale(0.100000,-0.100000)" stroke="none" fill="#8AA4B5"/>

<path d="M710 190 c-23 -7 -23 -8 -3 -9 12 -1 25 4 28 9 3 6 5 10 3 9 -2 -1 -14 -5 -28 -9z" transform="translate(0.000000,126.000000) scale(0.100000,-0.100000)" stroke="none" fill="#8AA4B5"/>

<path d="M710 190 c-23 -7 -23 -8 -3 -9 12 -1 25 4 28 9 3 6 5 10 3 9 -2 -1 -14 -5 -28 -9z" transform="translate(0.000000,126.000000) scale(0.100000,-0.100000)" stroke="none" fill="#8AA4B5"/>

<path d="M890 1066 c0 -2 7 -6 15 -10 8 -3 15 -1 15 4 0 6 -7 10 -15 10 -8 0 -15 -2 -15 -4z" transform="translate(0.000000,126.000000) scale(0.100000,-0.100000)" stroke="none" fill="#8AA4B5"/>

<path d="M890 1066 c0 -2 7 -6 15 -10 8 -3 15 -1 15 4 0 6 -7 10 -15 10 -8 0 -15 -2 -15 -4z" transform="translate(0.000000,126.000000) scale(0.100000,-0.100000)" stroke="none" fill="#8AA4B5"/>

<path d="M960 865 c0 -5 5 -17 10 -25 5 -8 10 -10 10 -5 0 6 -5 17 -10 25 -5 8 -10 11 -10 5z" transform="translate(0.000000,126.000000) scale(0.100000,-0.100000)" stroke="none" fill="#8AA4B5"/>

<path d="M960 865 c0 -5 5 -17 10 -25 5 -8 10 -10 10 -5 0 6 -5 17 -10 25 -5 8 -10 11 -10 5z" transform="translate(0.000000,126.000000) scale(0.100000,-0.100000)" stroke="none" fill="#8AA4B5"/>

<path d="M610 390 c0 -5 5 -10 10 -10 6 0 10 5 10 10 0 6 -4 10 -10 10 -5 0 -10 -4 -10 -10z" transform="translate(0.000000,126.000000) scale(0.100000,-0.100000)" stroke="none" fill="#8AA4B5"/>

<path d="M610 390 c0 -5 5 -10 10 -10 6 0 10 5 10 10 0 6 -4 10 -10 10 -5 0 -10 -4 -10 -10z" transform="translate(0.000000,126.000000) scale(0.100000,-0.100000)" stroke="none" fill="#8AA4B5"/>

<path d="M600 210 c8 -5 20 -10 25 -10 6 0 3 5 -5 10 -8 5 -19 10 -25 10 -5 0 -3 -5 5 -10z" transform="translate(0.000000,126.000000) scale(0.100000,-0.100000)" stroke="none" fill="#8AA4B5"/>

<path d="M600 210 c8 -5 20 -10 25 -10 6 0 3 5 -5 10 -8 5 -19 10 -25 10 -5 0 -3 -5 5 -10z" transform="translate(0.000000,126.000000) scale(0.100000,-0.100000)" stroke="none" fill="#8AA4B5"/>

<path d="M992 620 c0 -19 2 -27 5 -17 2 9 2 25 0 35 -3 9 -5 1 -5 -18z" transform="translate(0.000000,126.000000) scale(0.100000,-0.100000)" stroke="none" fill="#8AA4B5"/>

<path d="M992 620 c0 -19 2 -27 5 -17 2 9 2 25 0 35 -3 9 -5 1 -5 -18z" transform="translate(0.000000,126.000000) scale(0.100000,-0.100000)" stroke="none" fill="#8AA4B5"/>

<path d="M849 283 c-13 -16 -12 -17 4 -4 16 13 21 21 13 21 -2 0 -10 -8 -17 -17z" transform="translate(0.000000,126.000000) scale(0.100000,-0.100000)" stroke="none" fill="#8AA4B5"/>

<path d="M849 283 c-13 -16 -12 -17 4 -4 16 13 21 21 13 21 -2 0 -10 -8 -17 -17z" transform="translate(0.000000,126.000000) scale(0.100000,-0.100000)" stroke="none" fill="#8AA4B5"/>

<path d="M769 223 c-13 -16 -12 -17 4 -4 16 13 21 21 13 21 -2 0 -10 -8 -17 -17z" transform="translate(0.000000,126.000000) scale(0.100000,-0.100000)" stroke="none" fill="#8AA4B5"/>

<path d="M769 223 c-13 -16 -12 -17 4 -4 16 13 21 21 13 21 -2 0 -10 -8 -17 -17z" transform="translate(0.000000,126.000000) scale(0.100000,-0.100000)" stroke="none" fill="#8AA4B5"/>

<path d="M743 50 c0 -30 2 -43 4 -28 2 16 2 40 0 55 -2 16 -4 3 -4 -27z" transform="translate(0.000000,126.000000) scale(0.100000,-0.100000)" stroke="none" fill="#8AA4B5"/>

<path d="M743 50 c0 -30 2 -43 4 -28 2 16 2 40 0 55 -2 16 -4 3 -4 -27z" transform="translate(0.000000,126.000000) scale(0.100000,-0.100000)" stroke="none" fill="#8AA4B5"/>

<path d="M25 970 c-3 -5 -1 -10 4 -10 6 0 11 5 11 10 0 6 -2 10 -4 10 -3 0 -8 -4 -11 -10z" transform="translate(0.000000,126.000000) scale(0.100000,-0.100000)" stroke="none" fill="#8AA4B5"/>

<path d="M25 970 c-3 -5 -1 -10 4 -10 6 0 11 5 11 10 0 6 -2 10 -4 10 -3 0 -8 -4 -11 -10z" transform="translate(0.000000,126.000000) scale(0.100000,-0.100000)" stroke="none" fill="#8AA4B5"/>

<path d="M1200 91 c0 -6 5 -13 10 -16 6 -3 10 1 10 9 0 9 -4 16 -10 16 -5 0 -10 -4 -10 -9z" transform="translate(0.000000,126.000000) scale(0.100000,-0.100000)" stroke="none" fill="#8AA4B5"/>

<path d="M1200 91 c0 -6 5 -13 10 -16 6 -3 10 1 10 9 0 9 -4 16 -10 16 -5 0 -10 -4 -10 -9z" transform="translate(0.000000,126.000000) scale(0.100000,-0.100000)" stroke="none" fill="#8AA4B5"/>

<path d="M0 869 c0 -5 5 -7 10 -4 5 3 10 8 10 11 0 2 -4 4 -10 4 -5 0 -10 -5 -10 -11z" transform="translate(0.000000,126.000000) scale(0.100000,-0.100000)" stroke="none" fill="#3C578D"/>

<path d="M0 869 c0 -5 5 -7 10 -4 5 3 10 8 10 11 0 2 -4 4 -10 4 -5 0 -10 -5 -10 -11z" transform="translate(0.000000,126.000000) scale(0.100000,-0.100000)" stroke="none" fill="#3C578D"/>

<path d="M982 550 c0 -14 2 -19 5 -12 2 6 2 18 0 25 -3 6 -5 1 -5 -13z" transform="translate(0.000000,126.000000) scale(0.100000,-0.100000)" stroke="none" fill="#8AA4B5"/>

<path d="M982 550 c0 -14 2 -19 5 -12 2 6 2 18 0 25 -3 6 -5 1 -5 -13z" transform="translate(0.000000,126.000000) scale(0.100000,-0.100000)" stroke="none" fill="#8AA4B5"/>

</svg>