<?xml version="1.0" standalone="no"?>
<!DOCTYPE svg PUBLIC "-//W3C//DTD SVG 20010904//EN"
 "http://www.w3.org/TR/2001/REC-SVG-20010904/DTD/svg10.dtd">
<svg version="1.0" xmlns="http://www.w3.org/2000/svg" 
width="114.000000pt" height="74.000000pt" viewBox="0 0 114.000000 74.000000"
preserveAspectRatio = "xMidYMid meet" >
<metadata>
Created by potrace 1.16, written by Peter Selinger 2001-2019
</metadata>
<rect width="114.000000" height="74.000000" fill="#D6D2D5"/>
<path d="M566 599 c-36 -35 -45 -39 -91 -39 l-50 0 -2 -61 c-1 -56 -4 -65 -36 -98 l-36 -36 40 -39 c36 -35 39 -42 39 -92 l0 -54 52 0 c48 0 56 -4 94 -41 l42 -41 43 41 c40 38 47 41 97 41 47 0 53 2 48 17 -14 35 5 99 40 137 l35 38 -41 41 c-36 37 -40 46 -40 92 l0 52 -52 1 c-46 1 -56 5 -92 41 -23 23 -44 41 -46 40 -3 0 -23 -18 -44 -40z m104 -80 c0 -6 8 -9 18 -8 9 1 29 1 45 0 25 -1 27 -4 27 -41 0 -33 6 -46 33 -69 l32 -30 -30 -31 c-18 -19 -29 -40 -27 -52 2 -11 1 -31 -2 -44 -5 -20 -13 -24 -45 -24 -25 0 -41 -5 -44 -14 -3 -8 -18 -22 -32 -32 -25 -16 -27 -16 -55 11 -16 15 -27 32 -26 39 2 6 1 8 -1 4 -3 -5 -25 -8 -49 -8 l-44 0 0 39 c0 30 -7 48 -30 73 l-31 33 33 30 c29 27 33 36 30 73 -3 44 1 47 66 45 7 -1 26 12 43 28 l31 29 29 -21 c16 -11 29 -25 29 -30z" transform="translate(0.000000,74.000000) scale(0.100000,-0.100000)" stroke="none" fill="#485086"/>

<path d="M566 599 c-36 -35 -45 -39 -91 -39 l-50 0 -2 -61 c-1 -56 -4 -65 -36 -98 l-36 -36 40 -39 c36 -35 39 -42 39 -92 l0 -54 52 0 c48 0 56 -4 94 -41 l42 -41 43 41 c40 38 47 41 97 41 47 0 53 2 48 17 -14 35 5 99 40 137 l35 38 -41 41 c-36 37 -40 46 -40 92 l0 52 -52 1 c-46 1 -56 5 -92 41 -23 23 -44 41 -46 40 -3 0 -23 -18 -44 -40z m104 -80 c0 -6 8 -9 18 -8 9 1 29 1 45 0 25 -1 27 -4 27 -41 0 -33 6 -46 33 -69 l32 -30 -30 -31 c-18 -19 -29 -40 -27 -52 2 -11 1 -31 -2 -44 -5 -20 -13 -24 -45 -24 -25 0 -41 -5 -44 -14 -3 -8 -18 -22 -32 -32 -25 -16 -27 -16 -55 11 -16 15 -27 32 -26 39 2 6 1 8 -1 4 -3 -5 -25 -8 -49 -8 l-44 0 0 39 c0 30 -7 48 -30 73 l-31 33 33 30 c29 27 33 36 30 73 -3 44 1 47 66 45 7 -1 26 12 43 28 l31 29 29 -21 c16 -11 29 -25 29 -30z" transform="translate(0.000000,74.000000) scale(0.100000,-0.100000)" stroke="none" fill="#485086"/>

<path d="M596 518 c-9 -12 -16 -31 -16 -42 0 -18 -1 -18 -18 -3 -10 10 -28 17 -40 17 -17 0 -22 -6 -22 -28 0 -33 32 -67 55 -59 17 7 21 -8 4 -19 -6 -3 -16 -1 -22 5 -16 16 -63 13 -78 -5 -11 -14 -10 -19 10 -35 13 -11 30 -19 37 -19 12 0 12 -5 -1 -30 -24 -47 -4 -63 50 -38 17 7 25 19 25 36 0 20 2 22 15 12 13 -11 13 -14 0 -27 -20 -19 -19 -46 3 -73 17 -21 18 -21 34 -3 25 29 31 59 13 77 -9 9 -13 21 -9 28 5 8 10 4 15 -10 10 -27 54 -56 74 -48 16 6 12 49 -8 74 -7 9 -3 12 16 12 13 0 31 7 38 16 11 14 10 19 -10 35 -13 11 -29 19 -37 19 -11 0 -10 6 2 35 7 19 14 37 14 40 0 9 -54 5 -70 -5 -11 -7 -17 -2 -25 22 -13 40 -29 45 -49 16z m8 -89 c-8 -14 -24 -10 -24 6 0 9 6 12 15 9 8 -4 12 -10 9 -15z m42 -6 c-10 -10 -19 5 -10 18 6 11 8 11 12 0 2 -7 1 -15 -2 -18z m44 -28 c-7 -8 -14 -15 -15 -15 -2 0 -5 7 -9 15 -4 10 1 15 16 15 17 0 18 -2 8 -15z m-120 -56 c0 -5 -7 -9 -15 -9 -15 0 -20 12 -9 23 8 8 24 -1 24 -14z m120 11 c0 -5 -4 -10 -10 -10 -5 0 -10 5 -10 10 0 6 5 10 10 10 6 0 10 -4 10 -10z" transform="translate(0.000000,74.000000) scale(0.100000,-0.100000)" stroke="none" fill="#485086"/>

<path d="M13 733 c-30 -11 -6 -63 28 -63 16 0 17 -3 4 -34 -16 -38 -12 -46 22 -46 29 0 67 36 59 57 -5 13 -4 14 9 3 14 -12 14 -15 0 -30 -19 -21 -19 -40 1 -68 21 -30 28 -28 49 12 18 34 18 36 1 55 -10 11 -15 25 -11 30 9 16 25 13 19 -3 -7 -19 34 -56 63 -56 25 0 29 14 14 53 -8 21 -5 26 26 41 34 16 35 17 18 36 -20 22 -74 27 -93 8 -9 -9 -12 -9 -12 0 0 19 -97 16 -108 -4 -8 -14 -10 -14 -21 0 -13 16 -43 20 -68 9z m97 -54 c0 -5 -7 -9 -15 -9 -9 0 -12 6 -9 15 6 15 24 11 24 -6z m115 11 c3 -5 1 -10 -4 -10 -6 0 -11 5 -11 10 0 6 2 10 4 10 3 0 8 -4 11 -10z" transform="translate(0.000000,74.000000) scale(0.100000,-0.100000)" stroke="none" fill="#485086"/>

<path d="M136 178 c-9 -12 -16 -28 -16 -36 0 -10 -5 -10 -22 2 -36 25 -58 20 -58 -11 0 -16 4 -35 10 -43 7 -11 2 -17 -21 -27 -32 -13 -40 -47 -13 -57 29 -11 63 -6 73 12 9 16 10 16 16 0 11 -27 173 -26 206 1 l23 19 -34 21 c-19 12 -41 19 -49 16 -12 -5 -12 -2 1 12 43 50 26 87 -29 61 -27 -13 -28 -12 -38 16 -13 38 -29 43 -49 14z m7 -79 c5 -3 2 -9 -7 -12 -12 -5 -16 0 -16 15 0 12 3 17 8 12 4 -5 11 -12 15 -15z m47 -5 c0 -8 -4 -12 -10 -9 -5 3 -10 10 -10 16 0 5 5 9 10 9 6 0 10 -7 10 -16z m-86 -39 c-5 -12 -10 -13 -20 -4 -19 15 -18 19 6 19 13 0 18 -5 14 -15z m126 11 c0 -3 -4 -8 -10 -11 -5 -3 -10 -1 -10 4 0 6 5 11 10 11 6 0 10 -2 10 -4z" transform="translate(0.000000,74.000000) scale(0.100000,-0.100000)" stroke="none" fill="#485086"/>

<path d="M105 262 c-21 -20 -46 -37 -55 -38 -52 -3 -50 0 -50 -76 0 -39 3 -68 7 -64 4 4 6 27 4 52 l-3 46 46 -3 c29 -3 47 0 50 8 3 6 17 20 32 29 26 18 27 18 54 -13 16 -17 31 -29 34 -26 3 3 21 2 41 -1 32 -6 35 -10 35 -40 0 -24 9 -44 30 -66 29 -31 30 -34 14 -51 -16 -18 -16 -19 13 -19 17 0 37 8 47 19 16 18 15 20 -24 59 -36 37 -40 46 -40 90 l0 49 -54 7 c-42 5 -61 13 -92 41 -21 19 -40 35 -43 35 -4 0 -24 -17 -46 -38z" transform="translate(0.000000,74.000000) scale(0.100000,-0.100000)" stroke="none" fill="#485086"/>

<path d="M905 724 c-20 -15 -20 -15 4 -35 13 -10 32 -19 43 -19 18 0 18 -2 4 -22 -23 -33 -20 -58 7 -58 32 0 67 27 67 53 0 16 3 18 12 9 9 -9 9 -15 0 -24 -17 -17 -15 -60 3 -84 15 -19 15 -19 35 5 24 28 26 67 4 79 -14 8 -14 10 0 21 14 11 16 11 16 -6 0 -19 18 -43 32 -43 4 0 8 18 8 40 0 30 -4 40 -16 40 -8 0 -12 5 -9 10 4 6 11 8 16 5 5 -4 9 6 9 22 0 19 -3 24 -9 14 -6 -9 -11 -10 -15 -2 -10 15 -103 14 -109 -1 -4 -10 -7 -10 -18 0 -18 16 -60 15 -84 -4z m105 -39 c0 -8 -7 -15 -16 -15 -14 0 -14 3 -4 15 7 8 14 15 16 15 2 0 4 -7 4 -15z" transform="translate(0.000000,74.000000) scale(0.100000,-0.100000)" stroke="none" fill="#485086"/>

<path d="M1042 188 c-5 -7 -13 -23 -16 -36 -7 -21 -9 -21 -29 -7 -32 23 -57 19 -57 -8 0 -31 27 -67 51 -67 20 0 26 -15 10 -24 -5 -3 -14 1 -21 9 -16 19 -40 19 -68 -1 -22 -15 -22 -17 -6 -35 19 -22 64 -25 83 -6 11 9 14 9 18 0 7 -20 93 -16 110 5 14 16 14 16 9 0 -3 -10 -1 -18 4 -18 6 0 10 14 10 31 0 16 -4 28 -9 24 -5 -3 -12 -1 -16 5 -3 5 1 10 9 10 12 0 16 11 16 41 0 36 -3 41 -19 36 -14 -3 -23 3 -31 24 -13 31 -31 37 -48 17z m-2 -83 c10 -12 10 -15 -4 -15 -9 0 -16 7 -16 15 0 8 2 15 4 15 2 0 9 -7 16 -15z m50 -11 c0 -8 -5 -12 -10 -9 -6 4 -8 11 -5 16 9 14 15 11 15 -7z" transform="translate(0.000000,74.000000) scale(0.100000,-0.100000)" stroke="none" fill="#485086"/>

<path d="M340 731 c0 -6 5 -13 11 -17 7 -4 0 -17 -17 -35 -23 -25 -28 -37 -25 -74 l3 -45 -46 0 c-25 0 -46 -4 -46 -10 0 -5 -12 -20 -27 -34 l-26 -24 -29 21 c-15 11 -28 29 -28 39 0 15 -4 17 -17 10 -10 -5 -32 -7 -50 -5 -30 5 -32 8 -36 52 -3 37 -4 33 -5 -21 -2 -73 -3 -73 65 -71 6 0 30 -19 53 -42 l42 -42 41 43 c39 41 46 44 92 44 l51 0 1 56 c1 51 5 60 40 96 37 38 37 40 19 54 -22 16 -66 19 -66 5z" transform="translate(0.000000,74.000000) scale(0.100000,-0.100000)" stroke="none" fill="#485086"/>

<path d="M1012 265 c-23 -23 -50 -42 -60 -42 -9 1 -32 0 -49 -1 l-33 -2 0 -57 c0 -53 -3 -60 -37 -96 -37 -37 -37 -39 -19 -53 11 -8 31 -14 44 -14 21 0 23 2 12 15 -11 13 -8 21 16 46 15 16 29 39 29 52 4 68 3 67 44 67 29 0 48 7 67 25 15 14 30 25 35 25 4 0 21 -13 37 -30 16 -16 32 -26 36 -23 17 17 2 53 -36 89 l-43 41 -43 -42z" transform="translate(0.000000,74.000000) scale(0.100000,-0.100000)" stroke="none" fill="#485086"/>

<path d="M816 722 c-15 -18 -14 -21 17 -55 33 -34 54 -106 42 -139 -4 -10 9 -13 50 -11 52 1 57 -1 98 -40 l42 -42 38 38 c35 35 51 87 27 87 -5 0 -10 -6 -10 -14 0 -8 -13 -24 -29 -35 l-28 -20 -27 27 c-14 16 -26 34 -26 41 0 10 -3 11 -14 2 -7 -6 -27 -8 -45 -5 -29 6 -31 9 -31 50 0 31 -4 44 -14 44 -7 0 -21 12 -31 26 -16 24 -16 27 1 45 16 18 16 19 -13 19 -16 0 -37 -8 -47 -18z" transform="translate(0.000000,74.000000) scale(0.100000,-0.100000)" stroke="none" fill="#485086"/>

<path d="M280 407 c0 -7 -10 -13 -22 -14 -11 -1 -24 -6 -27 -11 -3 -5 -15 -12 -26 -17 -19 -8 -19 -9 3 -12 12 -3 22 -9 22 -14 0 -5 11 -9 24 -9 13 0 26 -5 28 -12 3 -8 14 -3 31 15 23 22 26 30 16 45 -17 27 -49 46 -49 29z" transform="translate(0.000000,74.000000) scale(0.100000,-0.100000)" stroke="none" fill="#485086"/>

<path d="M23 408 c-13 -13 -23 -34 -23 -46 0 -22 38 -50 49 -36 3 5 15 11 26 13 11 1 31 9 44 15 23 13 23 13 -22 32 -26 10 -48 25 -49 32 -2 9 -10 6 -25 -10z" transform="translate(0.000000,74.000000) scale(0.100000,-0.100000)" stroke="none" fill="#485086"/>

<path d="M923 406 c-13 -12 -23 -29 -23 -37 0 -21 39 -56 48 -44 4 6 15 11 26 13 10 2 30 8 44 13 21 8 23 12 12 19 -8 5 -18 6 -22 4 -4 -3 -8 -1 -8 5 0 6 -11 13 -24 17 -14 3 -26 12 -28 18 -2 9 -10 6 -25 -8z" transform="translate(0.000000,74.000000) scale(0.100000,-0.100000)" stroke="none" fill="#485086"/>

<path d="M443 721 c-10 -16 -8 -23 15 -46 19 -19 28 -23 32 -13 3 7 10 13 15 14 52 4 103 34 59 34 -8 0 -22 7 -30 15 -22 22 -77 19 -91 -4z" transform="translate(0.000000,74.000000) scale(0.100000,-0.100000)" stroke="none" fill="#485086"/>

<path d="M703 733 c-13 -2 -23 -8 -23 -13 0 -4 -10 -10 -22 -14 -23 -6 -22 -6 6 -21 15 -8 37 -15 47 -15 11 0 19 -5 19 -10 0 -16 36 6 44 25 3 9 1 25 -4 36 -10 19 -22 21 -67 12z" transform="translate(0.000000,74.000000) scale(0.100000,-0.100000)" stroke="none" fill="#485086"/>

<path d="M458 63 c-23 -24 -25 -30 -13 -46 9 -13 24 -17 54 -16 23 2 41 7 41 11 0 4 9 8 20 8 11 0 20 5 20 10 0 6 -7 10 -16 10 -8 0 -22 7 -31 16 -9 8 -21 13 -29 10 -7 -3 -14 2 -16 10 -2 12 -10 9 -30 -13z" transform="translate(0.000000,74.000000) scale(0.100000,-0.100000)" stroke="none" fill="#485086"/>

<path d="M713 67 c-24 -24 -40 -35 -59 -39 -16 -4 -15 -7 9 -16 38 -16 107 -15 108 1 3 25 -3 41 -19 54 -21 15 -24 15 -39 0z" transform="translate(0.000000,74.000000) scale(0.100000,-0.100000)" stroke="none" fill="#485086"/>

<path d="M1100 360 c0 -5 9 -10 20 -10 11 0 20 5 20 10 0 6 -9 10 -20 10 -11 0 -20 -4 -20 -10z" transform="translate(0.000000,74.000000) scale(0.100000,-0.100000)" stroke="none" fill="#485086"/>

<path d="M830 595 c0 -8 5 -15 10 -15 6 0 10 7 10 15 0 8 -4 15 -10 15 -5 0 -10 -7 -10 -15z" transform="translate(0.000000,74.000000) scale(0.100000,-0.100000)" stroke="none" fill="#485086"/>

<path d="M56 482 c-3 -6 -1 -14 5 -17 15 -10 25 3 12 16 -7 7 -13 7 -17 1z" transform="translate(0.000000,74.000000) scale(0.100000,-0.100000)" stroke="none" fill="#485086"/>

<path d="M370 135 c0 -16 16 -20 24 -6 3 5 -1 11 -9 15 -9 3 -15 0 -15 -9z" transform="translate(0.000000,74.000000) scale(0.100000,-0.100000)" stroke="none" fill="#485086"/>

<path d="M696 595 c4 -8 10 -12 15 -9 14 8 10 24 -6 24 -9 0 -12 -6 -9 -15z" transform="translate(0.000000,74.000000) scale(0.100000,-0.100000)" stroke="none" fill="#485086"/>

<path d="M35 260 c-3 -5 1 -10 9 -10 9 0 16 5 16 10 0 6 -4 10 -9 10 -6 0 -13 -4 -16 -10z" transform="translate(0.000000,74.000000) scale(0.100000,-0.100000)" stroke="none" fill="#485086"/>

<path d="M380 261 c0 -17 18 -21 24 -6 3 9 0 15 -9 15 -8 0 -15 -4 -15 -9z" transform="translate(0.000000,74.000000) scale(0.100000,-0.100000)" stroke="none" fill="#485086"/>

<path d="M510 138 c0 -8 7 -15 15 -15 18 0 15 19 -3 25 -7 2 -12 -3 -12 -10z" transform="translate(0.000000,74.000000) scale(0.100000,-0.100000)" stroke="none" fill="#485086"/>

<path d="M375 620 c3 -5 10 -10 16 -10 5 0 9 5 9 10 0 6 -7 10 -16 10 -8 0 -12 -4 -9 -10z" transform="translate(0.000000,74.000000) scale(0.100000,-0.100000)" stroke="none" fill="#485086"/>

<path d="M500 601 c0 -6 5 -13 10 -16 6 -3 10 1 10 9 0 9 -4 16 -10 16 -5 0 -10 -4 -10 -9z" transform="translate(0.000000,74.000000) scale(0.100000,-0.100000)" stroke="none" fill="#485086"/>

<path d="M826 471 c-3 -5 1 -11 9 -15 9 -3 15 0 15 9 0 16 -16 20 -24 6z" transform="translate(0.000000,74.000000) scale(0.100000,-0.100000)" stroke="none" fill="#485086"/>

<path d="M710 145 c0 -16 16 -20 24 -6 3 5 -1 11 -9 15 -9 3 -15 0 -15 -9z" transform="translate(0.000000,74.000000) scale(0.100000,-0.100000)" stroke="none" fill="#485086"/>

<path d="M966 481 c-4 -7 -5 -15 -2 -18 9 -9 19 4 14 18 -4 11 -6 11 -12 0z" transform="translate(0.000000,74.000000) scale(0.100000,-0.100000)" stroke="none" fill="#485086"/>

<path d="M250 480 c0 -5 4 -10 9 -10 6 0 13 5 16 10 3 6 -1 10 -9 10 -9 0 -16 -4 -16 -10z" transform="translate(0.000000,74.000000) scale(0.100000,-0.100000)" stroke="none" fill="#485086"/>

<path d="M380 470 c0 -5 5 -10 10 -10 6 0 10 5 10 10 0 6 -4 10 -10 10 -5 0 -10 -4 -10 -10z" transform="translate(0.000000,74.000000) scale(0.100000,-0.100000)" stroke="none" fill="#485086"/>

<path d="M240 260 c0 -5 5 -10 10 -10 6 0 10 5 10 10 0 6 -4 10 -10 10 -5 0 -10 -4 -10 -10z" transform="translate(0.000000,74.000000) scale(0.100000,-0.100000)" stroke="none" fill="#485086"/>

<path d="M940 260 c0 -5 5 -10 10 -10 6 0 10 5 10 10 0 6 -4 10 -10 10 -5 0 -10 -4 -10 -10z" transform="translate(0.000000,74.000000) scale(0.100000,-0.100000)" stroke="none" fill="#485086"/>

<path d="M820 130 c0 -5 7 -10 16 -10 8 0 12 5 9 10 -3 6 -10 10 -16 10 -5 0 -9 -4 -9 -10z" transform="translate(0.000000,74.000000) scale(0.100000,-0.100000)" stroke="none" fill="#485086"/>

<path d="M600 20 c0 -5 5 -10 10 -10 6 0 10 5 10 10 0 6 -4 10 -10 10 -5 0 -10 -4 -10 -10z" transform="translate(0.000000,74.000000) scale(0.100000,-0.100000)" stroke="none" fill="#485086"/>

<path d="M835 280 c3 -5 10 -10 16 -10 5 0 9 5 9 10 0 6 -7 10 -16 10 -8 0 -12 -4 -9 -10z" transform="translate(0.000000,74.000000) scale(0.100000,-0.100000)" stroke="none" fill="#485086"/>

<path d="M1060 360 c0 -5 5 -10 10 -10 6 0 10 5 10 10 0 6 -4 10 -10 10 -5 0 -10 -4 -10 -10z" transform="translate(0.000000,74.000000) scale(0.100000,-0.100000)" stroke="none" fill="#485086"/>

</svg>