<?xml version="1.0" standalone="no"?>
<!DOCTYPE svg PUBLIC "-//W3C//DTD SVG 20010904//EN"
 "http://www.w3.org/TR/2001/REC-SVG-20010904/DTD/svg10.dtd">
<svg version="1.0" xmlns="http://www.w3.org/2000/svg" 
width="156.000000pt" height="140.000000pt" viewBox="0 0 156.000000 140.000000"
preserveAspectRatio = "xMidYMid meet" >
<metadata>
Created by potrace 1.16, written by Peter Selinger 2001-2019
</metadata>
<rect width="156.000000" height="140.000000" fill="#283191"/>
<path d="M644 990 c-74 -36 -146 -110 -182 -188 -22 -46 -26 -72 -27 -137 0 -44 6 -96 14 -115 50 -130 105 -195 197 -230 75 -28 176 -25 246 8 49 23 130 97 152 141 60 116 77 306 36 394 -46 97 -161 157 -301 157 -61 0 -85 -6 -135 -30z" transform="translate(0.000000,140.000000) scale(0.100000,-0.100000)" stroke="none" fill="#EEA67D"/>

<path d="M644 990 c-74 -36 -146 -110 -182 -188 -22 -46 -26 -72 -27 -137 0 -44 6 -96 14 -115 50 -130 105 -195 197 -230 75 -28 176 -25 246 8 49 23 130 97 152 141 60 116 77 306 36 394 -46 97 -161 157 -301 157 -61 0 -85 -6 -135 -30z" transform="translate(0.000000,140.000000) scale(0.100000,-0.100000)" stroke="none" fill="#EEA67D"/>

<path d="M785 1139 c-161 -16 -342 -107 -431 -216 -132 -162 -121 -392 27 -548 77 -82 209 -135 333 -135 140 1 309 75 421 184 83 81 113 126 145 213 47 129 10 278 -95 386 -95 97 -224 134 -400 116z m132 -141 c79 -27 133 -72 163 -135 41 -88 24 -278 -36 -394 -22 -44 -103 -118 -152 -141 -70 -33 -171 -36 -246 -8 -92 35 -147 100 -197 230 -8 19 -14 71 -14 115 1 65 5 91 27 137 36 78 108 152 182 188 79 38 176 41 273 8z" transform="translate(0.000000,140.000000) scale(0.100000,-0.100000)" stroke="none" fill="#F7F6F4"/>

<path d="M785 1139 c-161 -16 -342 -107 -431 -216 -132 -162 -121 -392 27 -548 77 -82 209 -135 333 -135 140 1 309 75 421 184 83 81 113 126 145 213 47 129 10 278 -95 386 -95 97 -224 134 -400 116z m132 -141 c79 -27 133 -72 163 -135 41 -88 24 -278 -36 -394 -22 -44 -103 -118 -152 -141 -70 -33 -171 -36 -246 -8 -92 35 -147 100 -197 230 -8 19 -14 71 -14 115 1 65 5 91 27 137 36 78 108 152 182 188 79 38 176 41 273 8z" transform="translate(0.000000,140.000000) scale(0.100000,-0.100000)" stroke="none" fill="#F7F6F4"/>

<path d="M684 1180 c-193 -50 -374 -176 -431 -300 -127 -275 -3 -569 282 -668 272 -95 632 63 769 337 92 182 62 375 -79 516 -99 99 -198 135 -370 134 -63 -1 -126 -8 -171 -19z m288 -31 c174 -36 303 -168 338 -344 10 -51 9 -71 -5 -125 -49 -191 -201 -345 -415 -421 -54 -20 -85 -23 -185 -23 -117 0 -122 0 -198 36 -98 47 -172 118 -218 213 -33 67 -34 75 -33 180 0 122 13 162 82 258 116 162 421 270 634 226z" transform="translate(0.000000,140.000000) scale(0.100000,-0.100000)" stroke="none" fill="#0C0D17"/>

<path d="M1234 538 c-29 -55 -156 -173 -235 -217 -88 -48 -84 -55 5 -9 67 36 213 173 240 226 9 17 14 32 12 32 -3 0 -13 -14 -22 -32z" transform="translate(0.000000,140.000000) scale(0.100000,-0.100000)" stroke="none" fill="#EEA67D"/>

<path d="M1090 1095 c56 -30 87 -57 133 -118 21 -27 37 -45 37 -41 0 13 -79 109 -107 130 -33 24 -89 54 -100 54 -4 -1 12 -12 37 -25z" transform="translate(0.000000,140.000000) scale(0.100000,-0.100000)" stroke="none" fill="#EEA67D"/>

<path d="M485 1048 c-37 -21 -124 -99 -146 -131 -13 -20 -6 -15 19 14 22 25 66 63 96 84 31 21 56 40 56 42 0 5 -3 4 -25 -9z" transform="translate(0.000000,140.000000) scale(0.100000,-0.100000)" stroke="none" fill="#EEA67D"/>

<path d="M800 1151 c-33 -5 -18 -7 58 -8 57 -1 102 0 100 2 -9 7 -119 12 -158 6z" transform="translate(0.000000,140.000000) scale(0.100000,-0.100000)" stroke="none" fill="#EEA67D"/>

<path d="M328 425 c6 -11 32 -40 58 -65 l48 -45 -54 60 c-29 33 -56 62 -58 65 -3 3 0 -4 6 -15z" transform="translate(0.000000,140.000000) scale(0.100000,-0.100000)" stroke="none" fill="#EEA67D"/>

<path d="M261 588 c-1 -24 38 -126 51 -134 5 -4 4 4 -3 17 -7 13 -21 49 -30 79 -10 30 -18 47 -18 38z" transform="translate(0.000000,140.000000) scale(0.100000,-0.100000)" stroke="none" fill="#EEA67D"/>

<path d="M289 836 c-10 -24 -22 -59 -24 -78 -4 -21 1 -13 13 22 10 30 24 65 31 78 6 12 9 22 6 22 -3 0 -15 -20 -26 -44z" transform="translate(0.000000,140.000000) scale(0.100000,-0.100000)" stroke="none" fill="#EEA67D"/>

<path d="M445 311 c6 -11 96 -53 101 -49 2 2 -22 16 -52 30 -30 15 -52 23 -49 19z" transform="translate(0.000000,140.000000) scale(0.100000,-0.100000)" stroke="none" fill="#EEA67D"/>

<path d="M575 250 c19 -8 83 -14 74 -6 -2 2 -24 6 -49 9 -30 4 -38 3 -25 -3z" transform="translate(0.000000,140.000000) scale(0.100000,-0.100000)" stroke="none" fill="#EEA67D"/>

<path d="M800 250 c-34 -7 -34 -7 -5 -8 17 0 39 3 50 8 24 10 4 10 -45 0z" transform="translate(0.000000,140.000000) scale(0.100000,-0.100000)" stroke="none" fill="#EEA67D"/>

<path d="M1303 755 c0 -33 2 -45 4 -27 2 18 2 45 0 60 -2 15 -4 0 -4 -33z" transform="translate(0.000000,140.000000) scale(0.100000,-0.100000)" stroke="none" fill="#EEA67D"/>

<path d="M981 1136 c2 -2 18 -6 34 -10 22 -5 26 -4 15 4 -14 9 -59 15 -49 6z" transform="translate(0.000000,140.000000) scale(0.100000,-0.100000)" stroke="none" fill="#EEA67D"/>

<path d="M685 1130 c-25 -11 1 -11 35 0 20 6 21 8 5 8 -11 0 -29 -3 -40 -8z" transform="translate(0.000000,140.000000) scale(0.100000,-0.100000)" stroke="none" fill="#EEA67D"/>

<path d="M1281 875 c1 -19 18 -51 18 -35 0 8 -4 22 -9 30 -5 8 -9 11 -9 5z" transform="translate(0.000000,140.000000) scale(0.100000,-0.100000)" stroke="none" fill="#EEA67D"/>

<path d="M253 660 c0 -25 2 -35 4 -22 2 12 2 32 0 45 -2 12 -4 2 -4 -23z" transform="translate(0.000000,140.000000) scale(0.100000,-0.100000)" stroke="none" fill="#EEA67D"/>

<path d="M620 1110 c-18 -12 -2 -12 25 0 13 6 15 9 5 9 -8 0 -22 -4 -30 -9z" transform="translate(0.000000,140.000000) scale(0.100000,-0.100000)" stroke="none" fill="#EEA67D"/>

<path d="M885 270 c-13 -6 -15 -9 -5 -9 8 0 22 4 30 9 18 12 2 12 -25 0z" transform="translate(0.000000,140.000000) scale(0.100000,-0.100000)" stroke="none" fill="#EEA67D"/>

<path d="M1291 673 c-1 -6 -4 -20 -7 -30 -5 -17 -5 -17 6 0 6 10 9 23 6 30 -3 9 -5 9 -5 0z" transform="translate(0.000000,140.000000) scale(0.100000,-0.100000)" stroke="none" fill="#EEA67D"/>

<path d="M1266 605 c-9 -26 -7 -32 5 -12 6 10 9 21 6 23 -2 3 -7 -2 -11 -11z" transform="translate(0.000000,140.000000) scale(0.100000,-0.100000)" stroke="none" fill="#EEA67D"/>

<path d="M570 1090 c-8 -5 -10 -10 -5 -10 6 0 17 5 25 10 8 5 11 10 5 10 -5 0 -17 -5 -25 -10z" transform="translate(0.000000,140.000000) scale(0.100000,-0.100000)" stroke="none" fill="#EEA67D"/>

<path d="M525 1070 c-3 -6 1 -7 9 -4 18 7 21 14 7 14 -6 0 -13 -4 -16 -10z" transform="translate(0.000000,140.000000) scale(0.100000,-0.100000)" stroke="none" fill="#EEA67D"/>

<path d="M1266 907 c3 -10 9 -15 12 -12 3 3 0 11 -7 18 -10 9 -11 8 -5 -6z" transform="translate(0.000000,140.000000) scale(0.100000,-0.100000)" stroke="none" fill="#EEA67D"/>

<path d="M688 233 c12 -2 30 -2 40 0 9 3 -1 5 -23 4 -22 0 -30 -2 -17 -4z" transform="translate(0.000000,140.000000) scale(0.100000,-0.100000)" stroke="none" fill="#EEA67D"/>

</svg>