<?xml version="1.0" standalone="no"?>
<!DOCTYPE svg PUBLIC "-//W3C//DTD SVG 20010904//EN"
 "http://www.w3.org/TR/2001/REC-SVG-20010904/DTD/svg10.dtd">
<svg version="1.0" xmlns="http://www.w3.org/2000/svg" 
width="107.000000pt" height="107.000000pt" viewBox="0 0 107.000000 107.000000"
preserveAspectRatio = "xMidYMid meet" >
<metadata>
Created by ZoeQU, 2022
</metadata>
<rect width="107.000000" height="107.000000" fill="#F7BF6C"/>
<path d="M717 931 c24 -4 46 -11 50 -15 4 -4 8 -38 8 -76 0 -37 3 -66 8 -63 4 2 7 31 7 64 0 73 -21 100 -77 98 l-38 -2 42 -6z" transform="translate(0.000000,107.000000) scale(0.100000,-0.100000)" stroke="none" fill="#8F9579"/>

<path d="M553 945 c-23 -16 -113 -128 -113 -141 0 -6 20 18 55 65 5 7 25 29 43 49 31 32 36 34 80 29 31 -4 40 -3 27 3 -31 14 -69 11 -92 -5z" transform="translate(0.000000,107.000000) scale(0.100000,-0.100000)" stroke="none" fill="#8F9579"/>

<path d="M384 505 c-9 -14 -14 -28 -10 -32 3 -3 6 -1 6 5 0 7 5 12 11 12 7 0 17 7 24 17 7 9 19 14 29 10 20 -8 21 -47 1 -47 -9 0 -12 -6 -9 -15 4 -10 0 -15 -11 -15 -12 0 -15 5 -11 16 5 13 4 14 -7 6 -8 -7 -18 -8 -23 -4 -4 4 -2 -1 5 -10 20 -26 58 -22 77 7 15 23 15 27 0 50 -22 33 -60 33 -82 0z" transform="translate(0.000000,107.000000) scale(0.100000,-0.100000)" stroke="none" fill="#126F6F"/>

<path d="M743 763 c-7 -2 -13 -18 -13 -34 0 -55 80 -66 88 -12 6 37 -36 62 -75 46z" transform="translate(0.000000,107.000000) scale(0.100000,-0.100000)" stroke="none" fill="#D69548"/>

<path d="M600 511 c-14 -26 -13 -29 8 -27 9 0 17 -6 17 -14 0 -9 -8 -14 -20 -13 -20 1 -20 1 -1 -13 23 -17 40 -18 67 -4 22 12 26 59 7 78 -19 19 -66 15 -78 -7z m77 -7 c4 -10 -1 -22 -10 -29 -10 -7 -17 -17 -17 -24 0 -6 -4 -11 -9 -11 -6 0 -9 66 -2 78 5 9 33 -1 38 -14z" transform="translate(0.000000,107.000000) scale(0.100000,-0.100000)" stroke="none" fill="#126F6F"/>

<path d="M428 783 c-9 -2 -22 -20 -29 -40 -14 -45 -4 -53 68 -53 60 0 143 -28 193 -65 47 -35 66 -32 74 9 9 45 1 60 -43 90 -74 51 -192 78 -263 59z" transform="translate(0.000000,107.000000) scale(0.100000,-0.100000)" stroke="none" fill="#D69548"/>

<path d="M537 917 c-31 -32 -75 -87 -89 -111 -5 -8 9 -12 46 -12 62 -1 141 -26 191 -60 l36 -24 -6 57 c-6 53 -5 56 9 39 8 -10 17 -24 19 -29 2 -6 11 -7 21 -4 16 6 17 16 13 72 -2 36 -7 68 -10 71 -6 7 -151 33 -180 34 -11 0 -33 -15 -50 -33z" transform="translate(0.000000,107.000000) scale(0.100000,-0.100000)" stroke="none" fill="#126F6F"/>

<path d="M362 674 c-16 -11 -22 -25 -22 -54 0 -36 -4 -41 -34 -54 -43 -18 -48 -26 -55 -95 -5 -43 -11 -58 -27 -66 -56 -28 -69 -67 -39 -124 27 -53 52 -56 370 -52 176 2 295 7 303 13 6 6 12 28 12 49 0 32 -6 43 -40 70 -38 31 -40 35 -40 90 0 55 -2 60 -45 103 -25 25 -47 46 -51 46 -3 0 -24 13 -47 29 -82 56 -235 80 -285 45z m104 -169 c15 -23 15 -27 0 -50 -19 -29 -57 -33 -77 -8 -12 14 -12 16 1 9 9 -4 8 -1 -2 7 -20 16 -25 32 -6 21 7 -4 8 -3 4 5 -11 17 12 41 40 41 14 0 30 -10 40 -25z m212 13 c22 -22 14 -67 -13 -80 -38 -17 -72 2 -70 39 1 16 5 35 9 41 9 16 59 15 74 0z m-280 -121 c2 -11 -3 -17 -17 -17 -23 0 -35 15 -26 31 10 15 39 6 43 -14z m311 14 c17 -11 5 -31 -19 -31 -24 0 -36 20 -19 31 8 5 16 9 19 9 3 0 11 -4 19 -9z m-131 -16 c-8 -8 -77 -9 -85 -2 -3 4 15 7 42 7 27 0 46 -2 43 -5z" transform="translate(0.000000,107.000000) scale(0.100000,-0.100000)" stroke="none" fill="#8F9579"/>

<path d="M400 1001 c-136 -44 -234 -128 -294 -253 -166 -348 114 -734 499 -687 140 17 298 126 359 247 48 97 59 147 54 256 -4 89 -9 110 -40 177 -60 130 -177 228 -313 264 -78 20 -196 18 -265 -4z m309 -60 c70 -10 83 -27 80 -108 -2 -46 2 -65 14 -78 37 -37 7 -87 -41 -69 -27 10 -27 10 -28 -34 -1 -24 -7 -48 -14 -52 -9 -6 0 -20 35 -54 l47 -46 -6 -54 c-7 -53 -7 -54 27 -75 19 -12 38 -28 41 -37 10 -27 7 -81 -6 -92 -20 -16 -607 -20 -635 -4 -32 18 -55 67 -51 110 3 32 8 39 41 55 35 16 37 20 37 65 0 55 17 84 59 102 26 11 30 18 33 59 3 43 5 47 37 57 19 6 29 13 21 16 -18 6 6 78 26 78 8 0 13 4 11 10 -3 15 85 136 113 154 18 12 37 15 65 10 22 -3 64 -9 94 -13z" transform="translate(0.000000,107.000000) scale(0.100000,-0.100000)" stroke="none" fill="#268F83"/>

</svg>