<?xml version="1.0" standalone="no"?>
<!DOCTYPE svg PUBLIC "-//W3C//DTD SVG 20010904//EN"
 "http://www.w3.org/TR/2001/REC-SVG-20010904/DTD/svg10.dtd">
<svg version="1.0" xmlns="http://www.w3.org/2000/svg" 
width="86.000000pt" height="60.000000pt" viewBox="0 0 86.000000 60.000000"
preserveAspectRatio = "xMidYMid meet" >
<metadata>
Created by ZoeQU, 2022
</metadata>
<rect width="86.000000" height="60.000000" fill="#D9D6A4"/>
<path d="M580 79 c-19 -10 -41 -19 -49 -19 -8 0 -12 -2 -9 -5 9 -9 51 5 78 25 32 25 25 24 -20 -1z" transform="translate(0.000000,60.000000) scale(0.100000,-0.100000)" stroke="none" fill="#936C3F"/>

<path d="M315 156 c28 -14 59 -25 70 -25 11 0 -2 8 -30 18 -83 31 -92 32 -40 7z" transform="translate(0.000000,60.000000) scale(0.100000,-0.100000)" stroke="none" fill="#936C3F"/>

<path d="M680 153 c-30 -31 -40 -45 -22 -30 30 24 88 87 80 87 -1 0 -28 -26 -58 -57z" transform="translate(0.000000,60.000000) scale(0.100000,-0.100000)" stroke="none" fill="#936C3F"/>

<path d="M265 90 c5 -9 115 -44 120 -38 2 2 -25 13 -60 24 -36 12 -63 18 -60 14z" transform="translate(0.000000,60.000000) scale(0.100000,-0.100000)" stroke="none" fill="#936C3F"/>

<path d="M198 428 c16 -20 95 -58 119 -58 10 1 -2 8 -27 17 -25 8 -58 25 -75 36 -20 14 -26 16 -17 5z" transform="translate(0.000000,60.000000) scale(0.100000,-0.100000)" stroke="none" fill="#936C3F"/>

<path d="M65 552 c6 -4 25 -26 44 -50 18 -23 43 -47 54 -53 13 -7 7 2 -14 22 -19 19 -44 46 -53 62 -10 15 -23 27 -30 27 -7 0 -8 -3 -1 -8z" transform="translate(0.000000,60.000000) scale(0.100000,-0.100000)" stroke="none" fill="#936C3F"/>

<path d="M85 398 c9 -30 26 -47 18 -19 -7 29 6 26 52 -11 22 -18 36 -27 31 -20 -10 17 -86 72 -98 72 -5 0 -6 -10 -3 -22z" transform="translate(0.000000,60.000000) scale(0.100000,-0.100000)" stroke="none" fill="#936C3F"/>

<path d="M110 345 c1 -20 69 -102 111 -134 l44 -33 -48 43 c-26 24 -61 64 -77 89 -17 25 -30 41 -30 35z" transform="translate(0.000000,60.000000) scale(0.100000,-0.100000)" stroke="none" fill="#936C3F"/>

<path d="M702 219 c-53 -60 -132 -94 -219 -94 -46 0 -66 -3 -56 -9 27 -15 131 1 186 28 47 23 137 101 126 109 -2 2 -19 -14 -37 -34z" transform="translate(0.000000,60.000000) scale(0.100000,-0.100000)" stroke="none" fill="#936C3F"/>

<path d="M47 533 c-4 -3 -7 -34 -7 -67 0 -58 27 -155 61 -217 16 -31 108 -128 134 -141 11 -6 -6 13 -38 42 -96 87 -151 211 -145 326 2 35 3 64 2 64 0 0 -4 -3 -7 -7z" transform="translate(0.000000,60.000000) scale(0.100000,-0.100000)" stroke="none" fill="#936C3F"/>

<path d="M325 283 c59 -21 90 -25 195 -26 109 -1 131 1 173 20 42 20 47 20 47 6 0 -14 3 -14 12 -5 10 10 10 15 -1 21 -9 6 -31 1 -60 -12 -65 -30 -269 -29 -351 2 -30 12 -62 21 -70 20 -8 0 17 -12 55 -26z" transform="translate(0.000000,60.000000) scale(0.100000,-0.100000)" stroke="none" fill="#936C3F"/>

<path d="M780 391 c-16 -9 -42 -20 -100 -42 -50 -20 -212 -17 -279 4 -30 9 -56 15 -58 13 -3 -2 22 -12 54 -22 72 -22 232 -25 283 -5 56 21 84 33 102 42 28 14 28 12 2 -52 -14 -34 -23 -63 -21 -65 4 -5 52 117 50 126 -3 8 -18 9 -33 1z" transform="translate(0.000000,60.000000) scale(0.100000,-0.100000)" stroke="none" fill="#936C3F"/>

<path d="M56 534 c-22 -58 11 -213 64 -300 70 -111 226 -192 357 -182 126 9 235 100 294 245 20 48 35 89 33 91 -1 2 -10 -1 -21 -6 -19 -10 -46 -21 -103 -43 -21 -9 -73 -14 -130 -14 -91 1 -155 14 -275 58 -52 19 -144 87 -172 128 -31 43 -38 46 -47 23z m86 -149 c53 -43 101 -66 197 -96 103 -33 284 -34 352 -2 58 26 75 18 54 -24 -52 -104 -218 -176 -328 -143 -110 32 -171 65 -227 119 -46 46 -110 147 -110 174 0 15 21 5 62 -28z" transform="translate(0.000000,60.000000) scale(0.100000,-0.100000)" stroke="none" fill="#F3A181"/>

</svg>