<?xml version="1.0" standalone="no"?>
<!DOCTYPE svg PUBLIC "-//W3C//DTD SVG 20010904//EN"
 "http://www.w3.org/TR/2001/REC-SVG-20010904/DTD/svg10.dtd">
<svg version="1.0" xmlns="http://www.w3.org/2000/svg" width="492pt" height="568pt" viewBox="0 0 492 568" preserveAspectRatio = "xMidYMid meet" >
<metadata>
Created by ZoeQu, written in 2022
</metadata>
<rect width="492" height="568" fill="#C7D0CC"/>
<g id="row0" transform="translate(16,0.0)">
<g id="0" transform="translate(0.0,0)scale(1,1)">

<path d="M402 971 c-26 -16 -8 -45 35 -61 34 -11 45 -12 55 -2 24 24 -59 83 -90 63z" transform="translate(0,142) scale(0.1,-0.1)" stroke="none" fill="#B7758D"/>

<path d="M368 640 c-10 -6 -18 -20 -18 -32 0 -19 4 -20 51 -16 53 5 80 21 64 37 -16 15 -79 22 -97 11z" transform="translate(0,142) scale(0.1,-0.1)" stroke="none" fill="#B7758D"/>

<path d="M476 158 c-18 -26 -21 -74 -5 -83 13 -8 56 30 65 57 6 21 -11 48 -32 48 -7 0 -20 -10 -28 -22z" transform="translate(0,142) scale(0.1,-0.1)" stroke="none" fill="#B7758D"/>

<path d="M390 495 c-20 -24 -8 -50 25 -53 37 -3 81 28 72 52 -8 21 -80 22 -97 1z" transform="translate(0,142) scale(0.1,-0.1)" stroke="none" fill="#B7758D"/>

<path d="M353 789 c-17 -17 -3 -49 25 -56 33 -8 76 8 80 30 6 29 -80 51 -105 26z" transform="translate(0,142) scale(0.1,-0.1)" stroke="none" fill="#B7758D"/>

<path d="M245 1299 c-132 -179 -193 -393 -182 -642 5 -143 29 -242 84 -355 37 -76 54 -91 82 -73 11 7 8 23 -19 87 -73 175 -97 320 -80 481 19 176 66 313 152 446 l51 78 -20 21 -21 21 -47 -64z" transform="translate(0,142) scale(0.1,-0.1)" stroke="none" fill="#5F6F55"/>

<path d="M346 1198 c-50 -78 -97 -191 -123 -296 -26 -104 -23 -315 5 -414 27 -95 67 -188 82 -188 6 0 8 -5 5 -11 -8 -11 85 33 125 61 14 9 59 35 100 57 152 82 460 257 498 285 34 23 21 41 -108 149 -61 50 -110 95 -110 98 0 4 -55 47 -121 96 -67 50 -162 123 -211 163 -49 39 -91 72 -93 72 -2 0 -24 -32 -49 -72z m134 -254 c19 -19 22 -26 12 -36 -18 -18 -95 10 -100 36 -8 42 44 42 88 0z m-45 -154 c33 -13 30 -41 -6 -54 -35 -12 -75 -1 -82 23 -9 37 32 52 88 31z m236 -110 c-34 -29 -101 -25 -101 6 0 11 16 14 63 14 l62 -1 -24 -19z m-242 -36 c32 -7 62 -39 38 -42 -7 -1 -36 -4 -64 -8 -49 -6 -53 -5 -53 14 0 12 8 26 18 31 21 13 22 13 61 5z m58 -150 c9 -24 -35 -55 -72 -52 -33 3 -45 29 -25 53 17 21 89 20 97 -1z" transform="translate(0,142) scale(0.1,-0.1)" stroke="none" fill="#A0AFA6"/>

</g>

<g id="1" transform="translate(123.0,0)scale(1,1)">

<path d="M402 971 c-26 -16 -8 -45 35 -61 34 -11 45 -12 55 -2 24 24 -59 83 -90 63z" transform="translate(0,142) scale(0.1,-0.1)" stroke="none" fill="#B7758D"/>

<path d="M368 640 c-10 -6 -18 -20 -18 -32 0 -19 4 -20 51 -16 53 5 80 21 64 37 -16 15 -79 22 -97 11z" transform="translate(0,142) scale(0.1,-0.1)" stroke="none" fill="#B7758D"/>

<path d="M476 158 c-18 -26 -21 -74 -5 -83 13 -8 56 30 65 57 6 21 -11 48 -32 48 -7 0 -20 -10 -28 -22z" transform="translate(0,142) scale(0.1,-0.1)" stroke="none" fill="#B7758D"/>

<path d="M390 495 c-20 -24 -8 -50 25 -53 37 -3 81 28 72 52 -8 21 -80 22 -97 1z" transform="translate(0,142) scale(0.1,-0.1)" stroke="none" fill="#B7758D"/>

<path d="M353 789 c-17 -17 -3 -49 25 -56 33 -8 76 8 80 30 6 29 -80 51 -105 26z" transform="translate(0,142) scale(0.1,-0.1)" stroke="none" fill="#B7758D"/>

<path d="M245 1299 c-132 -179 -193 -393 -182 -642 5 -143 29 -242 84 -355 37 -76 54 -91 82 -73 11 7 8 23 -19 87 -73 175 -97 320 -80 481 19 176 66 313 152 446 l51 78 -20 21 -21 21 -47 -64z" transform="translate(0,142) scale(0.1,-0.1)" stroke="none" fill="#5F6F55"/>

<path d="M346 1198 c-50 -78 -97 -191 -123 -296 -26 -104 -23 -315 5 -414 27 -95 67 -188 82 -188 6 0 8 -5 5 -11 -8 -11 85 33 125 61 14 9 59 35 100 57 152 82 460 257 498 285 34 23 21 41 -108 149 -61 50 -110 95 -110 98 0 4 -55 47 -121 96 -67 50 -162 123 -211 163 -49 39 -91 72 -93 72 -2 0 -24 -32 -49 -72z m134 -254 c19 -19 22 -26 12 -36 -18 -18 -95 10 -100 36 -8 42 44 42 88 0z m-45 -154 c33 -13 30 -41 -6 -54 -35 -12 -75 -1 -82 23 -9 37 32 52 88 31z m236 -110 c-34 -29 -101 -25 -101 6 0 11 16 14 63 14 l62 -1 -24 -19z m-242 -36 c32 -7 62 -39 38 -42 -7 -1 -36 -4 -64 -8 -49 -6 -53 -5 -53 14 0 12 8 26 18 31 21 13 22 13 61 5z m58 -150 c9 -24 -35 -55 -72 -52 -33 3 -45 29 -25 53 17 21 89 20 97 -1z" transform="translate(0,142) scale(0.1,-0.1)" stroke="none" fill="#A0AFA6"/>

</g>

<g id="2" transform="translate(246.0,0)scale(1,1)">

<path d="M402 971 c-26 -16 -8 -45 35 -61 34 -11 45 -12 55 -2 24 24 -59 83 -90 63z" transform="translate(0,142) scale(0.1,-0.1)" stroke="none" fill="#B7758D"/>

<path d="M368 640 c-10 -6 -18 -20 -18 -32 0 -19 4 -20 51 -16 53 5 80 21 64 37 -16 15 -79 22 -97 11z" transform="translate(0,142) scale(0.1,-0.1)" stroke="none" fill="#B7758D"/>

<path d="M476 158 c-18 -26 -21 -74 -5 -83 13 -8 56 30 65 57 6 21 -11 48 -32 48 -7 0 -20 -10 -28 -22z" transform="translate(0,142) scale(0.1,-0.1)" stroke="none" fill="#B7758D"/>

<path d="M390 495 c-20 -24 -8 -50 25 -53 37 -3 81 28 72 52 -8 21 -80 22 -97 1z" transform="translate(0,142) scale(0.1,-0.1)" stroke="none" fill="#B7758D"/>

<path d="M353 789 c-17 -17 -3 -49 25 -56 33 -8 76 8 80 30 6 29 -80 51 -105 26z" transform="translate(0,142) scale(0.1,-0.1)" stroke="none" fill="#B7758D"/>

<path d="M245 1299 c-132 -179 -193 -393 -182 -642 5 -143 29 -242 84 -355 37 -76 54 -91 82 -73 11 7 8 23 -19 87 -73 175 -97 320 -80 481 19 176 66 313 152 446 l51 78 -20 21 -21 21 -47 -64z" transform="translate(0,142) scale(0.1,-0.1)" stroke="none" fill="#5F6F55"/>

<path d="M346 1198 c-50 -78 -97 -191 -123 -296 -26 -104 -23 -315 5 -414 27 -95 67 -188 82 -188 6 0 8 -5 5 -11 -8 -11 85 33 125 61 14 9 59 35 100 57 152 82 460 257 498 285 34 23 21 41 -108 149 -61 50 -110 95 -110 98 0 4 -55 47 -121 96 -67 50 -162 123 -211 163 -49 39 -91 72 -93 72 -2 0 -24 -32 -49 -72z m134 -254 c19 -19 22 -26 12 -36 -18 -18 -95 10 -100 36 -8 42 44 42 88 0z m-45 -154 c33 -13 30 -41 -6 -54 -35 -12 -75 -1 -82 23 -9 37 32 52 88 31z m236 -110 c-34 -29 -101 -25 -101 6 0 11 16 14 63 14 l62 -1 -24 -19z m-242 -36 c32 -7 62 -39 38 -42 -7 -1 -36 -4 -64 -8 -49 -6 -53 -5 -53 14 0 12 8 26 18 31 21 13 22 13 61 5z m58 -150 c9 -24 -35 -55 -72 -52 -33 3 -45 29 -25 53 17 21 89 20 97 -1z" transform="translate(0,142) scale(0.1,-0.1)" stroke="none" fill="#A0AFA6"/>

</g>

<g id="3" transform="translate(369.0,0)scale(1,1)">

<path d="M402 971 c-26 -16 -8 -45 35 -61 34 -11 45 -12 55 -2 24 24 -59 83 -90 63z" transform="translate(0,142) scale(0.1,-0.1)" stroke="none" fill="#B7758D"/>

<path d="M368 640 c-10 -6 -18 -20 -18 -32 0 -19 4 -20 51 -16 53 5 80 21 64 37 -16 15 -79 22 -97 11z" transform="translate(0,142) scale(0.1,-0.1)" stroke="none" fill="#B7758D"/>

<path d="M476 158 c-18 -26 -21 -74 -5 -83 13 -8 56 30 65 57 6 21 -11 48 -32 48 -7 0 -20 -10 -28 -22z" transform="translate(0,142) scale(0.1,-0.1)" stroke="none" fill="#B7758D"/>

<path d="M390 495 c-20 -24 -8 -50 25 -53 37 -3 81 28 72 52 -8 21 -80 22 -97 1z" transform="translate(0,142) scale(0.1,-0.1)" stroke="none" fill="#B7758D"/>

<path d="M353 789 c-17 -17 -3 -49 25 -56 33 -8 76 8 80 30 6 29 -80 51 -105 26z" transform="translate(0,142) scale(0.1,-0.1)" stroke="none" fill="#B7758D"/>

<path d="M245 1299 c-132 -179 -193 -393 -182 -642 5 -143 29 -242 84 -355 37 -76 54 -91 82 -73 11 7 8 23 -19 87 -73 175 -97 320 -80 481 19 176 66 313 152 446 l51 78 -20 21 -21 21 -47 -64z" transform="translate(0,142) scale(0.1,-0.1)" stroke="none" fill="#5F6F55"/>

<path d="M346 1198 c-50 -78 -97 -191 -123 -296 -26 -104 -23 -315 5 -414 27 -95 67 -188 82 -188 6 0 8 -5 5 -11 -8 -11 85 33 125 61 14 9 59 35 100 57 152 82 460 257 498 285 34 23 21 41 -108 149 -61 50 -110 95 -110 98 0 4 -55 47 -121 96 -67 50 -162 123 -211 163 -49 39 -91 72 -93 72 -2 0 -24 -32 -49 -72z m134 -254 c19 -19 22 -26 12 -36 -18 -18 -95 10 -100 36 -8 42 44 42 88 0z m-45 -154 c33 -13 30 -41 -6 -54 -35 -12 -75 -1 -82 23 -9 37 32 52 88 31z m236 -110 c-34 -29 -101 -25 -101 6 0 11 16 14 63 14 l62 -1 -24 -19z m-242 -36 c32 -7 62 -39 38 -42 -7 -1 -36 -4 -64 -8 -49 -6 -53 -5 -53 14 0 12 8 26 18 31 21 13 22 13 61 5z m58 -150 c9 -24 -35 -55 -72 -52 -33 3 -45 29 -25 53 17 21 89 20 97 -1z" transform="translate(0,142) scale(0.1,-0.1)" stroke="none" fill="#A0AFA6"/>

</g>

<g id="4" transform="translate(492.0,0)scale(1,1)">

<path d="M402 971 c-26 -16 -8 -45 35 -61 34 -11 45 -12 55 -2 24 24 -59 83 -90 63z" transform="translate(0,142) scale(0.1,-0.1)" stroke="none" fill="#B7758D"/>

<path d="M368 640 c-10 -6 -18 -20 -18 -32 0 -19 4 -20 51 -16 53 5 80 21 64 37 -16 15 -79 22 -97 11z" transform="translate(0,142) scale(0.1,-0.1)" stroke="none" fill="#B7758D"/>

<path d="M476 158 c-18 -26 -21 -74 -5 -83 13 -8 56 30 65 57 6 21 -11 48 -32 48 -7 0 -20 -10 -28 -22z" transform="translate(0,142) scale(0.1,-0.1)" stroke="none" fill="#B7758D"/>

<path d="M390 495 c-20 -24 -8 -50 25 -53 37 -3 81 28 72 52 -8 21 -80 22 -97 1z" transform="translate(0,142) scale(0.1,-0.1)" stroke="none" fill="#B7758D"/>

<path d="M353 789 c-17 -17 -3 -49 25 -56 33 -8 76 8 80 30 6 29 -80 51 -105 26z" transform="translate(0,142) scale(0.1,-0.1)" stroke="none" fill="#B7758D"/>

<path d="M245 1299 c-132 -179 -193 -393 -182 -642 5 -143 29 -242 84 -355 37 -76 54 -91 82 -73 11 7 8 23 -19 87 -73 175 -97 320 -80 481 19 176 66 313 152 446 l51 78 -20 21 -21 21 -47 -64z" transform="translate(0,142) scale(0.1,-0.1)" stroke="none" fill="#5F6F55"/>

<path d="M346 1198 c-50 -78 -97 -191 -123 -296 -26 -104 -23 -315 5 -414 27 -95 67 -188 82 -188 6 0 8 -5 5 -11 -8 -11 85 33 125 61 14 9 59 35 100 57 152 82 460 257 498 285 34 23 21 41 -108 149 -61 50 -110 95 -110 98 0 4 -55 47 -121 96 -67 50 -162 123 -211 163 -49 39 -91 72 -93 72 -2 0 -24 -32 -49 -72z m134 -254 c19 -19 22 -26 12 -36 -18 -18 -95 10 -100 36 -8 42 44 42 88 0z m-45 -154 c33 -13 30 -41 -6 -54 -35 -12 -75 -1 -82 23 -9 37 32 52 88 31z m236 -110 c-34 -29 -101 -25 -101 6 0 11 16 14 63 14 l62 -1 -24 -19z m-242 -36 c32 -7 62 -39 38 -42 -7 -1 -36 -4 -64 -8 -49 -6 -53 -5 -53 14 0 12 8 26 18 31 21 13 22 13 61 5z m58 -150 c9 -24 -35 -55 -72 -52 -33 3 -45 29 -25 53 17 21 89 20 97 -1z" transform="translate(0,142) scale(0.1,-0.1)" stroke="none" fill="#A0AFA6"/>

</g>

</g>
<g id="row1" transform="translate(-45,142.0)">
<g id="0" transform="translate(0.0,0)scale(1,1)">

<path d="M402 971 c-26 -16 -8 -45 35 -61 34 -11 45 -12 55 -2 24 24 -59 83 -90 63z" transform="translate(0,142) scale(0.1,-0.1)" stroke="none" fill="#B7758D"/>

<path d="M368 640 c-10 -6 -18 -20 -18 -32 0 -19 4 -20 51 -16 53 5 80 21 64 37 -16 15 -79 22 -97 11z" transform="translate(0,142) scale(0.1,-0.1)" stroke="none" fill="#B7758D"/>

<path d="M476 158 c-18 -26 -21 -74 -5 -83 13 -8 56 30 65 57 6 21 -11 48 -32 48 -7 0 -20 -10 -28 -22z" transform="translate(0,142) scale(0.1,-0.1)" stroke="none" fill="#B7758D"/>

<path d="M390 495 c-20 -24 -8 -50 25 -53 37 -3 81 28 72 52 -8 21 -80 22 -97 1z" transform="translate(0,142) scale(0.1,-0.1)" stroke="none" fill="#B7758D"/>

<path d="M353 789 c-17 -17 -3 -49 25 -56 33 -8 76 8 80 30 6 29 -80 51 -105 26z" transform="translate(0,142) scale(0.1,-0.1)" stroke="none" fill="#B7758D"/>

<path d="M245 1299 c-132 -179 -193 -393 -182 -642 5 -143 29 -242 84 -355 37 -76 54 -91 82 -73 11 7 8 23 -19 87 -73 175 -97 320 -80 481 19 176 66 313 152 446 l51 78 -20 21 -21 21 -47 -64z" transform="translate(0,142) scale(0.1,-0.1)" stroke="none" fill="#5F6F55"/>

<path d="M346 1198 c-50 -78 -97 -191 -123 -296 -26 -104 -23 -315 5 -414 27 -95 67 -188 82 -188 6 0 8 -5 5 -11 -8 -11 85 33 125 61 14 9 59 35 100 57 152 82 460 257 498 285 34 23 21 41 -108 149 -61 50 -110 95 -110 98 0 4 -55 47 -121 96 -67 50 -162 123 -211 163 -49 39 -91 72 -93 72 -2 0 -24 -32 -49 -72z m134 -254 c19 -19 22 -26 12 -36 -18 -18 -95 10 -100 36 -8 42 44 42 88 0z m-45 -154 c33 -13 30 -41 -6 -54 -35 -12 -75 -1 -82 23 -9 37 32 52 88 31z m236 -110 c-34 -29 -101 -25 -101 6 0 11 16 14 63 14 l62 -1 -24 -19z m-242 -36 c32 -7 62 -39 38 -42 -7 -1 -36 -4 -64 -8 -49 -6 -53 -5 -53 14 0 12 8 26 18 31 21 13 22 13 61 5z m58 -150 c9 -24 -35 -55 -72 -52 -33 3 -45 29 -25 53 17 21 89 20 97 -1z" transform="translate(0,142) scale(0.1,-0.1)" stroke="none" fill="#A0AFA6"/>

</g>

<g id="1" transform="translate(123.0,0)scale(1,1)">

<path d="M402 971 c-26 -16 -8 -45 35 -61 34 -11 45 -12 55 -2 24 24 -59 83 -90 63z" transform="translate(0,142) scale(0.1,-0.1)" stroke="none" fill="#B7758D"/>

<path d="M368 640 c-10 -6 -18 -20 -18 -32 0 -19 4 -20 51 -16 53 5 80 21 64 37 -16 15 -79 22 -97 11z" transform="translate(0,142) scale(0.1,-0.1)" stroke="none" fill="#B7758D"/>

<path d="M476 158 c-18 -26 -21 -74 -5 -83 13 -8 56 30 65 57 6 21 -11 48 -32 48 -7 0 -20 -10 -28 -22z" transform="translate(0,142) scale(0.1,-0.1)" stroke="none" fill="#B7758D"/>

<path d="M390 495 c-20 -24 -8 -50 25 -53 37 -3 81 28 72 52 -8 21 -80 22 -97 1z" transform="translate(0,142) scale(0.1,-0.1)" stroke="none" fill="#B7758D"/>

<path d="M353 789 c-17 -17 -3 -49 25 -56 33 -8 76 8 80 30 6 29 -80 51 -105 26z" transform="translate(0,142) scale(0.1,-0.1)" stroke="none" fill="#B7758D"/>

<path d="M245 1299 c-132 -179 -193 -393 -182 -642 5 -143 29 -242 84 -355 37 -76 54 -91 82 -73 11 7 8 23 -19 87 -73 175 -97 320 -80 481 19 176 66 313 152 446 l51 78 -20 21 -21 21 -47 -64z" transform="translate(0,142) scale(0.1,-0.1)" stroke="none" fill="#5F6F55"/>

<path d="M346 1198 c-50 -78 -97 -191 -123 -296 -26 -104 -23 -315 5 -414 27 -95 67 -188 82 -188 6 0 8 -5 5 -11 -8 -11 85 33 125 61 14 9 59 35 100 57 152 82 460 257 498 285 34 23 21 41 -108 149 -61 50 -110 95 -110 98 0 4 -55 47 -121 96 -67 50 -162 123 -211 163 -49 39 -91 72 -93 72 -2 0 -24 -32 -49 -72z m134 -254 c19 -19 22 -26 12 -36 -18 -18 -95 10 -100 36 -8 42 44 42 88 0z m-45 -154 c33 -13 30 -41 -6 -54 -35 -12 -75 -1 -82 23 -9 37 32 52 88 31z m236 -110 c-34 -29 -101 -25 -101 6 0 11 16 14 63 14 l62 -1 -24 -19z m-242 -36 c32 -7 62 -39 38 -42 -7 -1 -36 -4 -64 -8 -49 -6 -53 -5 -53 14 0 12 8 26 18 31 21 13 22 13 61 5z m58 -150 c9 -24 -35 -55 -72 -52 -33 3 -45 29 -25 53 17 21 89 20 97 -1z" transform="translate(0,142) scale(0.1,-0.1)" stroke="none" fill="#A0AFA6"/>

</g>

<g id="2" transform="translate(246.0,0)scale(1,1)">

<path d="M402 971 c-26 -16 -8 -45 35 -61 34 -11 45 -12 55 -2 24 24 -59 83 -90 63z" transform="translate(0,142) scale(0.1,-0.1)" stroke="none" fill="#B7758D"/>

<path d="M368 640 c-10 -6 -18 -20 -18 -32 0 -19 4 -20 51 -16 53 5 80 21 64 37 -16 15 -79 22 -97 11z" transform="translate(0,142) scale(0.1,-0.1)" stroke="none" fill="#B7758D"/>

<path d="M476 158 c-18 -26 -21 -74 -5 -83 13 -8 56 30 65 57 6 21 -11 48 -32 48 -7 0 -20 -10 -28 -22z" transform="translate(0,142) scale(0.1,-0.1)" stroke="none" fill="#B7758D"/>

<path d="M390 495 c-20 -24 -8 -50 25 -53 37 -3 81 28 72 52 -8 21 -80 22 -97 1z" transform="translate(0,142) scale(0.1,-0.1)" stroke="none" fill="#B7758D"/>

<path d="M353 789 c-17 -17 -3 -49 25 -56 33 -8 76 8 80 30 6 29 -80 51 -105 26z" transform="translate(0,142) scale(0.1,-0.1)" stroke="none" fill="#B7758D"/>

<path d="M245 1299 c-132 -179 -193 -393 -182 -642 5 -143 29 -242 84 -355 37 -76 54 -91 82 -73 11 7 8 23 -19 87 -73 175 -97 320 -80 481 19 176 66 313 152 446 l51 78 -20 21 -21 21 -47 -64z" transform="translate(0,142) scale(0.1,-0.1)" stroke="none" fill="#5F6F55"/>

<path d="M346 1198 c-50 -78 -97 -191 -123 -296 -26 -104 -23 -315 5 -414 27 -95 67 -188 82 -188 6 0 8 -5 5 -11 -8 -11 85 33 125 61 14 9 59 35 100 57 152 82 460 257 498 285 34 23 21 41 -108 149 -61 50 -110 95 -110 98 0 4 -55 47 -121 96 -67 50 -162 123 -211 163 -49 39 -91 72 -93 72 -2 0 -24 -32 -49 -72z m134 -254 c19 -19 22 -26 12 -36 -18 -18 -95 10 -100 36 -8 42 44 42 88 0z m-45 -154 c33 -13 30 -41 -6 -54 -35 -12 -75 -1 -82 23 -9 37 32 52 88 31z m236 -110 c-34 -29 -101 -25 -101 6 0 11 16 14 63 14 l62 -1 -24 -19z m-242 -36 c32 -7 62 -39 38 -42 -7 -1 -36 -4 -64 -8 -49 -6 -53 -5 -53 14 0 12 8 26 18 31 21 13 22 13 61 5z m58 -150 c9 -24 -35 -55 -72 -52 -33 3 -45 29 -25 53 17 21 89 20 97 -1z" transform="translate(0,142) scale(0.1,-0.1)" stroke="none" fill="#A0AFA6"/>

</g>

<g id="3" transform="translate(369.0,0)scale(1,1)">

<path d="M402 971 c-26 -16 -8 -45 35 -61 34 -11 45 -12 55 -2 24 24 -59 83 -90 63z" transform="translate(0,142) scale(0.1,-0.1)" stroke="none" fill="#B7758D"/>

<path d="M368 640 c-10 -6 -18 -20 -18 -32 0 -19 4 -20 51 -16 53 5 80 21 64 37 -16 15 -79 22 -97 11z" transform="translate(0,142) scale(0.1,-0.1)" stroke="none" fill="#B7758D"/>

<path d="M476 158 c-18 -26 -21 -74 -5 -83 13 -8 56 30 65 57 6 21 -11 48 -32 48 -7 0 -20 -10 -28 -22z" transform="translate(0,142) scale(0.1,-0.1)" stroke="none" fill="#B7758D"/>

<path d="M390 495 c-20 -24 -8 -50 25 -53 37 -3 81 28 72 52 -8 21 -80 22 -97 1z" transform="translate(0,142) scale(0.1,-0.1)" stroke="none" fill="#B7758D"/>

<path d="M353 789 c-17 -17 -3 -49 25 -56 33 -8 76 8 80 30 6 29 -80 51 -105 26z" transform="translate(0,142) scale(0.1,-0.1)" stroke="none" fill="#B7758D"/>

<path d="M245 1299 c-132 -179 -193 -393 -182 -642 5 -143 29 -242 84 -355 37 -76 54 -91 82 -73 11 7 8 23 -19 87 -73 175 -97 320 -80 481 19 176 66 313 152 446 l51 78 -20 21 -21 21 -47 -64z" transform="translate(0,142) scale(0.1,-0.1)" stroke="none" fill="#5F6F55"/>

<path d="M346 1198 c-50 -78 -97 -191 -123 -296 -26 -104 -23 -315 5 -414 27 -95 67 -188 82 -188 6 0 8 -5 5 -11 -8 -11 85 33 125 61 14 9 59 35 100 57 152 82 460 257 498 285 34 23 21 41 -108 149 -61 50 -110 95 -110 98 0 4 -55 47 -121 96 -67 50 -162 123 -211 163 -49 39 -91 72 -93 72 -2 0 -24 -32 -49 -72z m134 -254 c19 -19 22 -26 12 -36 -18 -18 -95 10 -100 36 -8 42 44 42 88 0z m-45 -154 c33 -13 30 -41 -6 -54 -35 -12 -75 -1 -82 23 -9 37 32 52 88 31z m236 -110 c-34 -29 -101 -25 -101 6 0 11 16 14 63 14 l62 -1 -24 -19z m-242 -36 c32 -7 62 -39 38 -42 -7 -1 -36 -4 -64 -8 -49 -6 -53 -5 -53 14 0 12 8 26 18 31 21 13 22 13 61 5z m58 -150 c9 -24 -35 -55 -72 -52 -33 3 -45 29 -25 53 17 21 89 20 97 -1z" transform="translate(0,142) scale(0.1,-0.1)" stroke="none" fill="#A0AFA6"/>

</g>

<g id="4" transform="translate(492.0,0)scale(1,1)">

<path d="M402 971 c-26 -16 -8 -45 35 -61 34 -11 45 -12 55 -2 24 24 -59 83 -90 63z" transform="translate(0,142) scale(0.1,-0.1)" stroke="none" fill="#B7758D"/>

<path d="M368 640 c-10 -6 -18 -20 -18 -32 0 -19 4 -20 51 -16 53 5 80 21 64 37 -16 15 -79 22 -97 11z" transform="translate(0,142) scale(0.1,-0.1)" stroke="none" fill="#B7758D"/>

<path d="M476 158 c-18 -26 -21 -74 -5 -83 13 -8 56 30 65 57 6 21 -11 48 -32 48 -7 0 -20 -10 -28 -22z" transform="translate(0,142) scale(0.1,-0.1)" stroke="none" fill="#B7758D"/>

<path d="M390 495 c-20 -24 -8 -50 25 -53 37 -3 81 28 72 52 -8 21 -80 22 -97 1z" transform="translate(0,142) scale(0.1,-0.1)" stroke="none" fill="#B7758D"/>

<path d="M353 789 c-17 -17 -3 -49 25 -56 33 -8 76 8 80 30 6 29 -80 51 -105 26z" transform="translate(0,142) scale(0.1,-0.1)" stroke="none" fill="#B7758D"/>

<path d="M245 1299 c-132 -179 -193 -393 -182 -642 5 -143 29 -242 84 -355 37 -76 54 -91 82 -73 11 7 8 23 -19 87 -73 175 -97 320 -80 481 19 176 66 313 152 446 l51 78 -20 21 -21 21 -47 -64z" transform="translate(0,142) scale(0.1,-0.1)" stroke="none" fill="#5F6F55"/>

<path d="M346 1198 c-50 -78 -97 -191 -123 -296 -26 -104 -23 -315 5 -414 27 -95 67 -188 82 -188 6 0 8 -5 5 -11 -8 -11 85 33 125 61 14 9 59 35 100 57 152 82 460 257 498 285 34 23 21 41 -108 149 -61 50 -110 95 -110 98 0 4 -55 47 -121 96 -67 50 -162 123 -211 163 -49 39 -91 72 -93 72 -2 0 -24 -32 -49 -72z m134 -254 c19 -19 22 -26 12 -36 -18 -18 -95 10 -100 36 -8 42 44 42 88 0z m-45 -154 c33 -13 30 -41 -6 -54 -35 -12 -75 -1 -82 23 -9 37 32 52 88 31z m236 -110 c-34 -29 -101 -25 -101 6 0 11 16 14 63 14 l62 -1 -24 -19z m-242 -36 c32 -7 62 -39 38 -42 -7 -1 -36 -4 -64 -8 -49 -6 -53 -5 -53 14 0 12 8 26 18 31 21 13 22 13 61 5z m58 -150 c9 -24 -35 -55 -72 -52 -33 3 -45 29 -25 53 17 21 89 20 97 -1z" transform="translate(0,142) scale(0.1,-0.1)" stroke="none" fill="#A0AFA6"/>

</g>

</g>
<g id="row2" transform="translate(16,284.0)">
<g id="0" transform="translate(0.0,0)scale(1,1)">

<path d="M402 971 c-26 -16 -8 -45 35 -61 34 -11 45 -12 55 -2 24 24 -59 83 -90 63z" transform="translate(0,142) scale(0.1,-0.1)" stroke="none" fill="#B7758D"/>

<path d="M368 640 c-10 -6 -18 -20 -18 -32 0 -19 4 -20 51 -16 53 5 80 21 64 37 -16 15 -79 22 -97 11z" transform="translate(0,142) scale(0.1,-0.1)" stroke="none" fill="#B7758D"/>

<path d="M476 158 c-18 -26 -21 -74 -5 -83 13 -8 56 30 65 57 6 21 -11 48 -32 48 -7 0 -20 -10 -28 -22z" transform="translate(0,142) scale(0.1,-0.1)" stroke="none" fill="#B7758D"/>

<path d="M390 495 c-20 -24 -8 -50 25 -53 37 -3 81 28 72 52 -8 21 -80 22 -97 1z" transform="translate(0,142) scale(0.1,-0.1)" stroke="none" fill="#B7758D"/>

<path d="M353 789 c-17 -17 -3 -49 25 -56 33 -8 76 8 80 30 6 29 -80 51 -105 26z" transform="translate(0,142) scale(0.1,-0.1)" stroke="none" fill="#B7758D"/>

<path d="M245 1299 c-132 -179 -193 -393 -182 -642 5 -143 29 -242 84 -355 37 -76 54 -91 82 -73 11 7 8 23 -19 87 -73 175 -97 320 -80 481 19 176 66 313 152 446 l51 78 -20 21 -21 21 -47 -64z" transform="translate(0,142) scale(0.1,-0.1)" stroke="none" fill="#5F6F55"/>

<path d="M346 1198 c-50 -78 -97 -191 -123 -296 -26 -104 -23 -315 5 -414 27 -95 67 -188 82 -188 6 0 8 -5 5 -11 -8 -11 85 33 125 61 14 9 59 35 100 57 152 82 460 257 498 285 34 23 21 41 -108 149 -61 50 -110 95 -110 98 0 4 -55 47 -121 96 -67 50 -162 123 -211 163 -49 39 -91 72 -93 72 -2 0 -24 -32 -49 -72z m134 -254 c19 -19 22 -26 12 -36 -18 -18 -95 10 -100 36 -8 42 44 42 88 0z m-45 -154 c33 -13 30 -41 -6 -54 -35 -12 -75 -1 -82 23 -9 37 32 52 88 31z m236 -110 c-34 -29 -101 -25 -101 6 0 11 16 14 63 14 l62 -1 -24 -19z m-242 -36 c32 -7 62 -39 38 -42 -7 -1 -36 -4 -64 -8 -49 -6 -53 -5 -53 14 0 12 8 26 18 31 21 13 22 13 61 5z m58 -150 c9 -24 -35 -55 -72 -52 -33 3 -45 29 -25 53 17 21 89 20 97 -1z" transform="translate(0,142) scale(0.1,-0.1)" stroke="none" fill="#A0AFA6"/>

</g>

<g id="1" transform="translate(123.0,0)scale(1,1)">

<path d="M402 971 c-26 -16 -8 -45 35 -61 34 -11 45 -12 55 -2 24 24 -59 83 -90 63z" transform="translate(0,142) scale(0.1,-0.1)" stroke="none" fill="#B7758D"/>

<path d="M368 640 c-10 -6 -18 -20 -18 -32 0 -19 4 -20 51 -16 53 5 80 21 64 37 -16 15 -79 22 -97 11z" transform="translate(0,142) scale(0.1,-0.1)" stroke="none" fill="#B7758D"/>

<path d="M476 158 c-18 -26 -21 -74 -5 -83 13 -8 56 30 65 57 6 21 -11 48 -32 48 -7 0 -20 -10 -28 -22z" transform="translate(0,142) scale(0.1,-0.1)" stroke="none" fill="#B7758D"/>

<path d="M390 495 c-20 -24 -8 -50 25 -53 37 -3 81 28 72 52 -8 21 -80 22 -97 1z" transform="translate(0,142) scale(0.1,-0.1)" stroke="none" fill="#B7758D"/>

<path d="M353 789 c-17 -17 -3 -49 25 -56 33 -8 76 8 80 30 6 29 -80 51 -105 26z" transform="translate(0,142) scale(0.1,-0.1)" stroke="none" fill="#B7758D"/>

<path d="M245 1299 c-132 -179 -193 -393 -182 -642 5 -143 29 -242 84 -355 37 -76 54 -91 82 -73 11 7 8 23 -19 87 -73 175 -97 320 -80 481 19 176 66 313 152 446 l51 78 -20 21 -21 21 -47 -64z" transform="translate(0,142) scale(0.1,-0.1)" stroke="none" fill="#5F6F55"/>

<path d="M346 1198 c-50 -78 -97 -191 -123 -296 -26 -104 -23 -315 5 -414 27 -95 67 -188 82 -188 6 0 8 -5 5 -11 -8 -11 85 33 125 61 14 9 59 35 100 57 152 82 460 257 498 285 34 23 21 41 -108 149 -61 50 -110 95 -110 98 0 4 -55 47 -121 96 -67 50 -162 123 -211 163 -49 39 -91 72 -93 72 -2 0 -24 -32 -49 -72z m134 -254 c19 -19 22 -26 12 -36 -18 -18 -95 10 -100 36 -8 42 44 42 88 0z m-45 -154 c33 -13 30 -41 -6 -54 -35 -12 -75 -1 -82 23 -9 37 32 52 88 31z m236 -110 c-34 -29 -101 -25 -101 6 0 11 16 14 63 14 l62 -1 -24 -19z m-242 -36 c32 -7 62 -39 38 -42 -7 -1 -36 -4 -64 -8 -49 -6 -53 -5 -53 14 0 12 8 26 18 31 21 13 22 13 61 5z m58 -150 c9 -24 -35 -55 -72 -52 -33 3 -45 29 -25 53 17 21 89 20 97 -1z" transform="translate(0,142) scale(0.1,-0.1)" stroke="none" fill="#A0AFA6"/>

</g>

<g id="2" transform="translate(246.0,0)scale(1,1)">

<path d="M402 971 c-26 -16 -8 -45 35 -61 34 -11 45 -12 55 -2 24 24 -59 83 -90 63z" transform="translate(0,142) scale(0.1,-0.1)" stroke="none" fill="#B7758D"/>

<path d="M368 640 c-10 -6 -18 -20 -18 -32 0 -19 4 -20 51 -16 53 5 80 21 64 37 -16 15 -79 22 -97 11z" transform="translate(0,142) scale(0.1,-0.1)" stroke="none" fill="#B7758D"/>

<path d="M476 158 c-18 -26 -21 -74 -5 -83 13 -8 56 30 65 57 6 21 -11 48 -32 48 -7 0 -20 -10 -28 -22z" transform="translate(0,142) scale(0.1,-0.1)" stroke="none" fill="#B7758D"/>

<path d="M390 495 c-20 -24 -8 -50 25 -53 37 -3 81 28 72 52 -8 21 -80 22 -97 1z" transform="translate(0,142) scale(0.1,-0.1)" stroke="none" fill="#B7758D"/>

<path d="M353 789 c-17 -17 -3 -49 25 -56 33 -8 76 8 80 30 6 29 -80 51 -105 26z" transform="translate(0,142) scale(0.1,-0.1)" stroke="none" fill="#B7758D"/>

<path d="M245 1299 c-132 -179 -193 -393 -182 -642 5 -143 29 -242 84 -355 37 -76 54 -91 82 -73 11 7 8 23 -19 87 -73 175 -97 320 -80 481 19 176 66 313 152 446 l51 78 -20 21 -21 21 -47 -64z" transform="translate(0,142) scale(0.1,-0.1)" stroke="none" fill="#5F6F55"/>

<path d="M346 1198 c-50 -78 -97 -191 -123 -296 -26 -104 -23 -315 5 -414 27 -95 67 -188 82 -188 6 0 8 -5 5 -11 -8 -11 85 33 125 61 14 9 59 35 100 57 152 82 460 257 498 285 34 23 21 41 -108 149 -61 50 -110 95 -110 98 0 4 -55 47 -121 96 -67 50 -162 123 -211 163 -49 39 -91 72 -93 72 -2 0 -24 -32 -49 -72z m134 -254 c19 -19 22 -26 12 -36 -18 -18 -95 10 -100 36 -8 42 44 42 88 0z m-45 -154 c33 -13 30 -41 -6 -54 -35 -12 -75 -1 -82 23 -9 37 32 52 88 31z m236 -110 c-34 -29 -101 -25 -101 6 0 11 16 14 63 14 l62 -1 -24 -19z m-242 -36 c32 -7 62 -39 38 -42 -7 -1 -36 -4 -64 -8 -49 -6 -53 -5 -53 14 0 12 8 26 18 31 21 13 22 13 61 5z m58 -150 c9 -24 -35 -55 -72 -52 -33 3 -45 29 -25 53 17 21 89 20 97 -1z" transform="translate(0,142) scale(0.1,-0.1)" stroke="none" fill="#A0AFA6"/>

</g>

<g id="3" transform="translate(369.0,0)scale(1,1)">

<path d="M402 971 c-26 -16 -8 -45 35 -61 34 -11 45 -12 55 -2 24 24 -59 83 -90 63z" transform="translate(0,142) scale(0.1,-0.1)" stroke="none" fill="#B7758D"/>

<path d="M368 640 c-10 -6 -18 -20 -18 -32 0 -19 4 -20 51 -16 53 5 80 21 64 37 -16 15 -79 22 -97 11z" transform="translate(0,142) scale(0.1,-0.1)" stroke="none" fill="#B7758D"/>

<path d="M476 158 c-18 -26 -21 -74 -5 -83 13 -8 56 30 65 57 6 21 -11 48 -32 48 -7 0 -20 -10 -28 -22z" transform="translate(0,142) scale(0.1,-0.1)" stroke="none" fill="#B7758D"/>

<path d="M390 495 c-20 -24 -8 -50 25 -53 37 -3 81 28 72 52 -8 21 -80 22 -97 1z" transform="translate(0,142) scale(0.1,-0.1)" stroke="none" fill="#B7758D"/>

<path d="M353 789 c-17 -17 -3 -49 25 -56 33 -8 76 8 80 30 6 29 -80 51 -105 26z" transform="translate(0,142) scale(0.1,-0.1)" stroke="none" fill="#B7758D"/>

<path d="M245 1299 c-132 -179 -193 -393 -182 -642 5 -143 29 -242 84 -355 37 -76 54 -91 82 -73 11 7 8 23 -19 87 -73 175 -97 320 -80 481 19 176 66 313 152 446 l51 78 -20 21 -21 21 -47 -64z" transform="translate(0,142) scale(0.1,-0.1)" stroke="none" fill="#5F6F55"/>

<path d="M346 1198 c-50 -78 -97 -191 -123 -296 -26 -104 -23 -315 5 -414 27 -95 67 -188 82 -188 6 0 8 -5 5 -11 -8 -11 85 33 125 61 14 9 59 35 100 57 152 82 460 257 498 285 34 23 21 41 -108 149 -61 50 -110 95 -110 98 0 4 -55 47 -121 96 -67 50 -162 123 -211 163 -49 39 -91 72 -93 72 -2 0 -24 -32 -49 -72z m134 -254 c19 -19 22 -26 12 -36 -18 -18 -95 10 -100 36 -8 42 44 42 88 0z m-45 -154 c33 -13 30 -41 -6 -54 -35 -12 -75 -1 -82 23 -9 37 32 52 88 31z m236 -110 c-34 -29 -101 -25 -101 6 0 11 16 14 63 14 l62 -1 -24 -19z m-242 -36 c32 -7 62 -39 38 -42 -7 -1 -36 -4 -64 -8 -49 -6 -53 -5 -53 14 0 12 8 26 18 31 21 13 22 13 61 5z m58 -150 c9 -24 -35 -55 -72 -52 -33 3 -45 29 -25 53 17 21 89 20 97 -1z" transform="translate(0,142) scale(0.1,-0.1)" stroke="none" fill="#A0AFA6"/>

</g>

<g id="4" transform="translate(492.0,0)scale(1,1)">

<path d="M402 971 c-26 -16 -8 -45 35 -61 34 -11 45 -12 55 -2 24 24 -59 83 -90 63z" transform="translate(0,142) scale(0.1,-0.1)" stroke="none" fill="#B7758D"/>

<path d="M368 640 c-10 -6 -18 -20 -18 -32 0 -19 4 -20 51 -16 53 5 80 21 64 37 -16 15 -79 22 -97 11z" transform="translate(0,142) scale(0.1,-0.1)" stroke="none" fill="#B7758D"/>

<path d="M476 158 c-18 -26 -21 -74 -5 -83 13 -8 56 30 65 57 6 21 -11 48 -32 48 -7 0 -20 -10 -28 -22z" transform="translate(0,142) scale(0.1,-0.1)" stroke="none" fill="#B7758D"/>

<path d="M390 495 c-20 -24 -8 -50 25 -53 37 -3 81 28 72 52 -8 21 -80 22 -97 1z" transform="translate(0,142) scale(0.1,-0.1)" stroke="none" fill="#B7758D"/>

<path d="M353 789 c-17 -17 -3 -49 25 -56 33 -8 76 8 80 30 6 29 -80 51 -105 26z" transform="translate(0,142) scale(0.1,-0.1)" stroke="none" fill="#B7758D"/>

<path d="M245 1299 c-132 -179 -193 -393 -182 -642 5 -143 29 -242 84 -355 37 -76 54 -91 82 -73 11 7 8 23 -19 87 -73 175 -97 320 -80 481 19 176 66 313 152 446 l51 78 -20 21 -21 21 -47 -64z" transform="translate(0,142) scale(0.1,-0.1)" stroke="none" fill="#5F6F55"/>

<path d="M346 1198 c-50 -78 -97 -191 -123 -296 -26 -104 -23 -315 5 -414 27 -95 67 -188 82 -188 6 0 8 -5 5 -11 -8 -11 85 33 125 61 14 9 59 35 100 57 152 82 460 257 498 285 34 23 21 41 -108 149 -61 50 -110 95 -110 98 0 4 -55 47 -121 96 -67 50 -162 123 -211 163 -49 39 -91 72 -93 72 -2 0 -24 -32 -49 -72z m134 -254 c19 -19 22 -26 12 -36 -18 -18 -95 10 -100 36 -8 42 44 42 88 0z m-45 -154 c33 -13 30 -41 -6 -54 -35 -12 -75 -1 -82 23 -9 37 32 52 88 31z m236 -110 c-34 -29 -101 -25 -101 6 0 11 16 14 63 14 l62 -1 -24 -19z m-242 -36 c32 -7 62 -39 38 -42 -7 -1 -36 -4 -64 -8 -49 -6 -53 -5 -53 14 0 12 8 26 18 31 21 13 22 13 61 5z m58 -150 c9 -24 -35 -55 -72 -52 -33 3 -45 29 -25 53 17 21 89 20 97 -1z" transform="translate(0,142) scale(0.1,-0.1)" stroke="none" fill="#A0AFA6"/>

</g>

</g>
<g id="row3" transform="translate(-45,426.0)">
<g id="0" transform="translate(0.0,0)scale(1,1)">

<path d="M402 971 c-26 -16 -8 -45 35 -61 34 -11 45 -12 55 -2 24 24 -59 83 -90 63z" transform="translate(0,142) scale(0.1,-0.1)" stroke="none" fill="#B7758D"/>

<path d="M368 640 c-10 -6 -18 -20 -18 -32 0 -19 4 -20 51 -16 53 5 80 21 64 37 -16 15 -79 22 -97 11z" transform="translate(0,142) scale(0.1,-0.1)" stroke="none" fill="#B7758D"/>

<path d="M476 158 c-18 -26 -21 -74 -5 -83 13 -8 56 30 65 57 6 21 -11 48 -32 48 -7 0 -20 -10 -28 -22z" transform="translate(0,142) scale(0.1,-0.1)" stroke="none" fill="#B7758D"/>

<path d="M390 495 c-20 -24 -8 -50 25 -53 37 -3 81 28 72 52 -8 21 -80 22 -97 1z" transform="translate(0,142) scale(0.1,-0.1)" stroke="none" fill="#B7758D"/>

<path d="M353 789 c-17 -17 -3 -49 25 -56 33 -8 76 8 80 30 6 29 -80 51 -105 26z" transform="translate(0,142) scale(0.1,-0.1)" stroke="none" fill="#B7758D"/>

<path d="M245 1299 c-132 -179 -193 -393 -182 -642 5 -143 29 -242 84 -355 37 -76 54 -91 82 -73 11 7 8 23 -19 87 -73 175 -97 320 -80 481 19 176 66 313 152 446 l51 78 -20 21 -21 21 -47 -64z" transform="translate(0,142) scale(0.1,-0.1)" stroke="none" fill="#5F6F55"/>

<path d="M346 1198 c-50 -78 -97 -191 -123 -296 -26 -104 -23 -315 5 -414 27 -95 67 -188 82 -188 6 0 8 -5 5 -11 -8 -11 85 33 125 61 14 9 59 35 100 57 152 82 460 257 498 285 34 23 21 41 -108 149 -61 50 -110 95 -110 98 0 4 -55 47 -121 96 -67 50 -162 123 -211 163 -49 39 -91 72 -93 72 -2 0 -24 -32 -49 -72z m134 -254 c19 -19 22 -26 12 -36 -18 -18 -95 10 -100 36 -8 42 44 42 88 0z m-45 -154 c33 -13 30 -41 -6 -54 -35 -12 -75 -1 -82 23 -9 37 32 52 88 31z m236 -110 c-34 -29 -101 -25 -101 6 0 11 16 14 63 14 l62 -1 -24 -19z m-242 -36 c32 -7 62 -39 38 -42 -7 -1 -36 -4 -64 -8 -49 -6 -53 -5 -53 14 0 12 8 26 18 31 21 13 22 13 61 5z m58 -150 c9 -24 -35 -55 -72 -52 -33 3 -45 29 -25 53 17 21 89 20 97 -1z" transform="translate(0,142) scale(0.1,-0.1)" stroke="none" fill="#A0AFA6"/>

</g>

<g id="1" transform="translate(123.0,0)scale(1,1)">

<path d="M402 971 c-26 -16 -8 -45 35 -61 34 -11 45 -12 55 -2 24 24 -59 83 -90 63z" transform="translate(0,142) scale(0.1,-0.1)" stroke="none" fill="#B7758D"/>

<path d="M368 640 c-10 -6 -18 -20 -18 -32 0 -19 4 -20 51 -16 53 5 80 21 64 37 -16 15 -79 22 -97 11z" transform="translate(0,142) scale(0.1,-0.1)" stroke="none" fill="#B7758D"/>

<path d="M476 158 c-18 -26 -21 -74 -5 -83 13 -8 56 30 65 57 6 21 -11 48 -32 48 -7 0 -20 -10 -28 -22z" transform="translate(0,142) scale(0.1,-0.1)" stroke="none" fill="#B7758D"/>

<path d="M390 495 c-20 -24 -8 -50 25 -53 37 -3 81 28 72 52 -8 21 -80 22 -97 1z" transform="translate(0,142) scale(0.1,-0.1)" stroke="none" fill="#B7758D"/>

<path d="M353 789 c-17 -17 -3 -49 25 -56 33 -8 76 8 80 30 6 29 -80 51 -105 26z" transform="translate(0,142) scale(0.1,-0.1)" stroke="none" fill="#B7758D"/>

<path d="M245 1299 c-132 -179 -193 -393 -182 -642 5 -143 29 -242 84 -355 37 -76 54 -91 82 -73 11 7 8 23 -19 87 -73 175 -97 320 -80 481 19 176 66 313 152 446 l51 78 -20 21 -21 21 -47 -64z" transform="translate(0,142) scale(0.1,-0.1)" stroke="none" fill="#5F6F55"/>

<path d="M346 1198 c-50 -78 -97 -191 -123 -296 -26 -104 -23 -315 5 -414 27 -95 67 -188 82 -188 6 0 8 -5 5 -11 -8 -11 85 33 125 61 14 9 59 35 100 57 152 82 460 257 498 285 34 23 21 41 -108 149 -61 50 -110 95 -110 98 0 4 -55 47 -121 96 -67 50 -162 123 -211 163 -49 39 -91 72 -93 72 -2 0 -24 -32 -49 -72z m134 -254 c19 -19 22 -26 12 -36 -18 -18 -95 10 -100 36 -8 42 44 42 88 0z m-45 -154 c33 -13 30 -41 -6 -54 -35 -12 -75 -1 -82 23 -9 37 32 52 88 31z m236 -110 c-34 -29 -101 -25 -101 6 0 11 16 14 63 14 l62 -1 -24 -19z m-242 -36 c32 -7 62 -39 38 -42 -7 -1 -36 -4 -64 -8 -49 -6 -53 -5 -53 14 0 12 8 26 18 31 21 13 22 13 61 5z m58 -150 c9 -24 -35 -55 -72 -52 -33 3 -45 29 -25 53 17 21 89 20 97 -1z" transform="translate(0,142) scale(0.1,-0.1)" stroke="none" fill="#A0AFA6"/>

</g>

<g id="2" transform="translate(246.0,0)scale(1,1)">

<path d="M402 971 c-26 -16 -8 -45 35 -61 34 -11 45 -12 55 -2 24 24 -59 83 -90 63z" transform="translate(0,142) scale(0.1,-0.1)" stroke="none" fill="#B7758D"/>

<path d="M368 640 c-10 -6 -18 -20 -18 -32 0 -19 4 -20 51 -16 53 5 80 21 64 37 -16 15 -79 22 -97 11z" transform="translate(0,142) scale(0.1,-0.1)" stroke="none" fill="#B7758D"/>

<path d="M476 158 c-18 -26 -21 -74 -5 -83 13 -8 56 30 65 57 6 21 -11 48 -32 48 -7 0 -20 -10 -28 -22z" transform="translate(0,142) scale(0.1,-0.1)" stroke="none" fill="#B7758D"/>

<path d="M390 495 c-20 -24 -8 -50 25 -53 37 -3 81 28 72 52 -8 21 -80 22 -97 1z" transform="translate(0,142) scale(0.1,-0.1)" stroke="none" fill="#B7758D"/>

<path d="M353 789 c-17 -17 -3 -49 25 -56 33 -8 76 8 80 30 6 29 -80 51 -105 26z" transform="translate(0,142) scale(0.1,-0.1)" stroke="none" fill="#B7758D"/>

<path d="M245 1299 c-132 -179 -193 -393 -182 -642 5 -143 29 -242 84 -355 37 -76 54 -91 82 -73 11 7 8 23 -19 87 -73 175 -97 320 -80 481 19 176 66 313 152 446 l51 78 -20 21 -21 21 -47 -64z" transform="translate(0,142) scale(0.1,-0.1)" stroke="none" fill="#5F6F55"/>

<path d="M346 1198 c-50 -78 -97 -191 -123 -296 -26 -104 -23 -315 5 -414 27 -95 67 -188 82 -188 6 0 8 -5 5 -11 -8 -11 85 33 125 61 14 9 59 35 100 57 152 82 460 257 498 285 34 23 21 41 -108 149 -61 50 -110 95 -110 98 0 4 -55 47 -121 96 -67 50 -162 123 -211 163 -49 39 -91 72 -93 72 -2 0 -24 -32 -49 -72z m134 -254 c19 -19 22 -26 12 -36 -18 -18 -95 10 -100 36 -8 42 44 42 88 0z m-45 -154 c33 -13 30 -41 -6 -54 -35 -12 -75 -1 -82 23 -9 37 32 52 88 31z m236 -110 c-34 -29 -101 -25 -101 6 0 11 16 14 63 14 l62 -1 -24 -19z m-242 -36 c32 -7 62 -39 38 -42 -7 -1 -36 -4 -64 -8 -49 -6 -53 -5 -53 14 0 12 8 26 18 31 21 13 22 13 61 5z m58 -150 c9 -24 -35 -55 -72 -52 -33 3 -45 29 -25 53 17 21 89 20 97 -1z" transform="translate(0,142) scale(0.1,-0.1)" stroke="none" fill="#A0AFA6"/>

</g>

<g id="3" transform="translate(369.0,0)scale(1,1)">

<path d="M402 971 c-26 -16 -8 -45 35 -61 34 -11 45 -12 55 -2 24 24 -59 83 -90 63z" transform="translate(0,142) scale(0.1,-0.1)" stroke="none" fill="#B7758D"/>

<path d="M368 640 c-10 -6 -18 -20 -18 -32 0 -19 4 -20 51 -16 53 5 80 21 64 37 -16 15 -79 22 -97 11z" transform="translate(0,142) scale(0.1,-0.1)" stroke="none" fill="#B7758D"/>

<path d="M476 158 c-18 -26 -21 -74 -5 -83 13 -8 56 30 65 57 6 21 -11 48 -32 48 -7 0 -20 -10 -28 -22z" transform="translate(0,142) scale(0.1,-0.1)" stroke="none" fill="#B7758D"/>

<path d="M390 495 c-20 -24 -8 -50 25 -53 37 -3 81 28 72 52 -8 21 -80 22 -97 1z" transform="translate(0,142) scale(0.1,-0.1)" stroke="none" fill="#B7758D"/>

<path d="M353 789 c-17 -17 -3 -49 25 -56 33 -8 76 8 80 30 6 29 -80 51 -105 26z" transform="translate(0,142) scale(0.1,-0.1)" stroke="none" fill="#B7758D"/>

<path d="M245 1299 c-132 -179 -193 -393 -182 -642 5 -143 29 -242 84 -355 37 -76 54 -91 82 -73 11 7 8 23 -19 87 -73 175 -97 320 -80 481 19 176 66 313 152 446 l51 78 -20 21 -21 21 -47 -64z" transform="translate(0,142) scale(0.1,-0.1)" stroke="none" fill="#5F6F55"/>

<path d="M346 1198 c-50 -78 -97 -191 -123 -296 -26 -104 -23 -315 5 -414 27 -95 67 -188 82 -188 6 0 8 -5 5 -11 -8 -11 85 33 125 61 14 9 59 35 100 57 152 82 460 257 498 285 34 23 21 41 -108 149 -61 50 -110 95 -110 98 0 4 -55 47 -121 96 -67 50 -162 123 -211 163 -49 39 -91 72 -93 72 -2 0 -24 -32 -49 -72z m134 -254 c19 -19 22 -26 12 -36 -18 -18 -95 10 -100 36 -8 42 44 42 88 0z m-45 -154 c33 -13 30 -41 -6 -54 -35 -12 -75 -1 -82 23 -9 37 32 52 88 31z m236 -110 c-34 -29 -101 -25 -101 6 0 11 16 14 63 14 l62 -1 -24 -19z m-242 -36 c32 -7 62 -39 38 -42 -7 -1 -36 -4 -64 -8 -49 -6 -53 -5 -53 14 0 12 8 26 18 31 21 13 22 13 61 5z m58 -150 c9 -24 -35 -55 -72 -52 -33 3 -45 29 -25 53 17 21 89 20 97 -1z" transform="translate(0,142) scale(0.1,-0.1)" stroke="none" fill="#A0AFA6"/>

</g>

<g id="4" transform="translate(492.0,0)scale(1,1)">

<path d="M402 971 c-26 -16 -8 -45 35 -61 34 -11 45 -12 55 -2 24 24 -59 83 -90 63z" transform="translate(0,142) scale(0.1,-0.1)" stroke="none" fill="#B7758D"/>

<path d="M368 640 c-10 -6 -18 -20 -18 -32 0 -19 4 -20 51 -16 53 5 80 21 64 37 -16 15 -79 22 -97 11z" transform="translate(0,142) scale(0.1,-0.1)" stroke="none" fill="#B7758D"/>

<path d="M476 158 c-18 -26 -21 -74 -5 -83 13 -8 56 30 65 57 6 21 -11 48 -32 48 -7 0 -20 -10 -28 -22z" transform="translate(0,142) scale(0.1,-0.1)" stroke="none" fill="#B7758D"/>

<path d="M390 495 c-20 -24 -8 -50 25 -53 37 -3 81 28 72 52 -8 21 -80 22 -97 1z" transform="translate(0,142) scale(0.1,-0.1)" stroke="none" fill="#B7758D"/>

<path d="M353 789 c-17 -17 -3 -49 25 -56 33 -8 76 8 80 30 6 29 -80 51 -105 26z" transform="translate(0,142) scale(0.1,-0.1)" stroke="none" fill="#B7758D"/>

<path d="M245 1299 c-132 -179 -193 -393 -182 -642 5 -143 29 -242 84 -355 37 -76 54 -91 82 -73 11 7 8 23 -19 87 -73 175 -97 320 -80 481 19 176 66 313 152 446 l51 78 -20 21 -21 21 -47 -64z" transform="translate(0,142) scale(0.1,-0.1)" stroke="none" fill="#5F6F55"/>

<path d="M346 1198 c-50 -78 -97 -191 -123 -296 -26 -104 -23 -315 5 -414 27 -95 67 -188 82 -188 6 0 8 -5 5 -11 -8 -11 85 33 125 61 14 9 59 35 100 57 152 82 460 257 498 285 34 23 21 41 -108 149 -61 50 -110 95 -110 98 0 4 -55 47 -121 96 -67 50 -162 123 -211 163 -49 39 -91 72 -93 72 -2 0 -24 -32 -49 -72z m134 -254 c19 -19 22 -26 12 -36 -18 -18 -95 10 -100 36 -8 42 44 42 88 0z m-45 -154 c33 -13 30 -41 -6 -54 -35 -12 -75 -1 -82 23 -9 37 32 52 88 31z m236 -110 c-34 -29 -101 -25 -101 6 0 11 16 14 63 14 l62 -1 -24 -19z m-242 -36 c32 -7 62 -39 38 -42 -7 -1 -36 -4 -64 -8 -49 -6 -53 -5 -53 14 0 12 8 26 18 31 21 13 22 13 61 5z m58 -150 c9 -24 -35 -55 -72 -52 -33 3 -45 29 -25 53 17 21 89 20 97 -1z" transform="translate(0,142) scale(0.1,-0.1)" stroke="none" fill="#A0AFA6"/>

</g>

</g>
</svg>