<?xml version="1.0" standalone="no"?>
<!DOCTYPE svg PUBLIC "-//W3C//DTD SVG 20010904//EN"
 "http://www.w3.org/TR/2001/REC-SVG-20010904/DTD/svg10.dtd">
<svg version="1.0" xmlns="http://www.w3.org/2000/svg" width="384pt" height="456pt" viewBox="0 0 384 456" preserveAspectRatio = "xMidYMid meet" >
<metadata>
Created by ZoeQu, written in 2022
</metadata>
<rect width="384" height="456" fill="#D8DCC0"/>
<g id="col0" transform="translate(0, 15)">
<g id="0" transform="translate(0,0.0)scale(0.8,0.8)">

<path d="M243 1073 c-11 -16 -19 -52 -21 -95 -4 -63 -6 -68 -27 -68 -59 0 -145 -57 -145 -96 0 -40 11 -52 96 -115 46 -34 84 -63 84 -65 0 -1 -26 -12 -57 -24 -59 -22 -102 -61 -103 -92 0 -10 6 -18 13 -19 24 -2 93 1 152 7 l60 6 -19 -21 c-19 -21 -19 -21 9 -21 15 0 43 9 61 21 l34 21 0 -42 c0 -35 3 -40 18 -36 16 5 17 -4 14 -132 -4 -139 5 -213 25 -219 8 -3 10 46 7 173 -2 97 -1 181 2 186 3 5 13 3 21 -4 13 -11 15 -7 12 35 -5 60 8 60 54 1 36 -46 36 -46 43 -20 4 17 -1 39 -15 66 -12 22 -21 45 -21 50 0 16 115 12 167 -6 26 -9 81 -32 122 -51 44 -21 77 -31 82 -26 12 12 -14 86 -46 135 -35 53 -89 78 -169 78 l-64 0 53 54 c29 30 62 75 75 100 41 85 39 178 -5 222 -36 36 -85 32 -184 -16 -110 -53 -146 -53 -226 0 -33 22 -66 40 -72 40 -7 0 -20 -12 -30 -27z" transform="translate(0,114) scale(0.1,-0.1)" stroke="none" fill="#A89BB9"/>

</g>

<g id="1" transform="translate(0,114.0)scale(0.8,0.8)">

<path d="M243 1073 c-11 -16 -19 -52 -21 -95 -4 -63 -6 -68 -27 -68 -59 0 -145 -57 -145 -96 0 -40 11 -52 96 -115 46 -34 84 -63 84 -65 0 -1 -26 -12 -57 -24 -59 -22 -102 -61 -103 -92 0 -10 6 -18 13 -19 24 -2 93 1 152 7 l60 6 -19 -21 c-19 -21 -19 -21 9 -21 15 0 43 9 61 21 l34 21 0 -42 c0 -35 3 -40 18 -36 16 5 17 -4 14 -132 -4 -139 5 -213 25 -219 8 -3 10 46 7 173 -2 97 -1 181 2 186 3 5 13 3 21 -4 13 -11 15 -7 12 35 -5 60 8 60 54 1 36 -46 36 -46 43 -20 4 17 -1 39 -15 66 -12 22 -21 45 -21 50 0 16 115 12 167 -6 26 -9 81 -32 122 -51 44 -21 77 -31 82 -26 12 12 -14 86 -46 135 -35 53 -89 78 -169 78 l-64 0 53 54 c29 30 62 75 75 100 41 85 39 178 -5 222 -36 36 -85 32 -184 -16 -110 -53 -146 -53 -226 0 -33 22 -66 40 -72 40 -7 0 -20 -12 -30 -27z" transform="translate(0,114) scale(0.1,-0.1)" stroke="none" fill="#A89BB9"/>

</g>

<g id="2" transform="translate(0,228.0)scale(0.8,0.8)">

<path d="M243 1073 c-11 -16 -19 -52 -21 -95 -4 -63 -6 -68 -27 -68 -59 0 -145 -57 -145 -96 0 -40 11 -52 96 -115 46 -34 84 -63 84 -65 0 -1 -26 -12 -57 -24 -59 -22 -102 -61 -103 -92 0 -10 6 -18 13 -19 24 -2 93 1 152 7 l60 6 -19 -21 c-19 -21 -19 -21 9 -21 15 0 43 9 61 21 l34 21 0 -42 c0 -35 3 -40 18 -36 16 5 17 -4 14 -132 -4 -139 5 -213 25 -219 8 -3 10 46 7 173 -2 97 -1 181 2 186 3 5 13 3 21 -4 13 -11 15 -7 12 35 -5 60 8 60 54 1 36 -46 36 -46 43 -20 4 17 -1 39 -15 66 -12 22 -21 45 -21 50 0 16 115 12 167 -6 26 -9 81 -32 122 -51 44 -21 77 -31 82 -26 12 12 -14 86 -46 135 -35 53 -89 78 -169 78 l-64 0 53 54 c29 30 62 75 75 100 41 85 39 178 -5 222 -36 36 -85 32 -184 -16 -110 -53 -146 -53 -226 0 -33 22 -66 40 -72 40 -7 0 -20 -12 -30 -27z" transform="translate(0,114) scale(0.1,-0.1)" stroke="none" fill="#A89BB9"/>

</g>

<g id="3" transform="translate(0,342.0)scale(0.8,0.8)">

<path d="M243 1073 c-11 -16 -19 -52 -21 -95 -4 -63 -6 -68 -27 -68 -59 0 -145 -57 -145 -96 0 -40 11 -52 96 -115 46 -34 84 -63 84 -65 0 -1 -26 -12 -57 -24 -59 -22 -102 -61 -103 -92 0 -10 6 -18 13 -19 24 -2 93 1 152 7 l60 6 -19 -21 c-19 -21 -19 -21 9 -21 15 0 43 9 61 21 l34 21 0 -42 c0 -35 3 -40 18 -36 16 5 17 -4 14 -132 -4 -139 5 -213 25 -219 8 -3 10 46 7 173 -2 97 -1 181 2 186 3 5 13 3 21 -4 13 -11 15 -7 12 35 -5 60 8 60 54 1 36 -46 36 -46 43 -20 4 17 -1 39 -15 66 -12 22 -21 45 -21 50 0 16 115 12 167 -6 26 -9 81 -32 122 -51 44 -21 77 -31 82 -26 12 12 -14 86 -46 135 -35 53 -89 78 -169 78 l-64 0 53 54 c29 30 62 75 75 100 41 85 39 178 -5 222 -36 36 -85 32 -184 -16 -110 -53 -146 -53 -226 0 -33 22 -66 40 -72 40 -7 0 -20 -12 -30 -27z" transform="translate(0,114) scale(0.1,-0.1)" stroke="none" fill="#A89BB9"/>

</g>

<g id="4" transform="translate(0,456.0)scale(0.8,0.8)">

<path d="M243 1073 c-11 -16 -19 -52 -21 -95 -4 -63 -6 -68 -27 -68 -59 0 -145 -57 -145 -96 0 -40 11 -52 96 -115 46 -34 84 -63 84 -65 0 -1 -26 -12 -57 -24 -59 -22 -102 -61 -103 -92 0 -10 6 -18 13 -19 24 -2 93 1 152 7 l60 6 -19 -21 c-19 -21 -19 -21 9 -21 15 0 43 9 61 21 l34 21 0 -42 c0 -35 3 -40 18 -36 16 5 17 -4 14 -132 -4 -139 5 -213 25 -219 8 -3 10 46 7 173 -2 97 -1 181 2 186 3 5 13 3 21 -4 13 -11 15 -7 12 35 -5 60 8 60 54 1 36 -46 36 -46 43 -20 4 17 -1 39 -15 66 -12 22 -21 45 -21 50 0 16 115 12 167 -6 26 -9 81 -32 122 -51 44 -21 77 -31 82 -26 12 12 -14 86 -46 135 -35 53 -89 78 -169 78 l-64 0 53 54 c29 30 62 75 75 100 41 85 39 178 -5 222 -36 36 -85 32 -184 -16 -110 -53 -146 -53 -226 0 -33 22 -66 40 -72 40 -7 0 -20 -12 -30 -27z" transform="translate(0,114) scale(0.1,-0.1)" stroke="none" fill="#A89BB9"/>

</g>

</g>
<g id="col1" transform="translate(96, -42.0)">
<g id="0" transform="translate(0,0.0)scale(0.8,0.8)">

<path d="M243 1073 c-11 -16 -19 -52 -21 -95 -4 -63 -6 -68 -27 -68 -59 0 -145 -57 -145 -96 0 -40 11 -52 96 -115 46 -34 84 -63 84 -65 0 -1 -26 -12 -57 -24 -59 -22 -102 -61 -103 -92 0 -10 6 -18 13 -19 24 -2 93 1 152 7 l60 6 -19 -21 c-19 -21 -19 -21 9 -21 15 0 43 9 61 21 l34 21 0 -42 c0 -35 3 -40 18 -36 16 5 17 -4 14 -132 -4 -139 5 -213 25 -219 8 -3 10 46 7 173 -2 97 -1 181 2 186 3 5 13 3 21 -4 13 -11 15 -7 12 35 -5 60 8 60 54 1 36 -46 36 -46 43 -20 4 17 -1 39 -15 66 -12 22 -21 45 -21 50 0 16 115 12 167 -6 26 -9 81 -32 122 -51 44 -21 77 -31 82 -26 12 12 -14 86 -46 135 -35 53 -89 78 -169 78 l-64 0 53 54 c29 30 62 75 75 100 41 85 39 178 -5 222 -36 36 -85 32 -184 -16 -110 -53 -146 -53 -226 0 -33 22 -66 40 -72 40 -7 0 -20 -12 -30 -27z" transform="translate(0,114) scale(0.1,-0.1)" stroke="none" fill="#A89BB9"/>

</g>

<g id="1" transform="translate(0,114.0)scale(0.8,0.8)">

<path d="M243 1073 c-11 -16 -19 -52 -21 -95 -4 -63 -6 -68 -27 -68 -59 0 -145 -57 -145 -96 0 -40 11 -52 96 -115 46 -34 84 -63 84 -65 0 -1 -26 -12 -57 -24 -59 -22 -102 -61 -103 -92 0 -10 6 -18 13 -19 24 -2 93 1 152 7 l60 6 -19 -21 c-19 -21 -19 -21 9 -21 15 0 43 9 61 21 l34 21 0 -42 c0 -35 3 -40 18 -36 16 5 17 -4 14 -132 -4 -139 5 -213 25 -219 8 -3 10 46 7 173 -2 97 -1 181 2 186 3 5 13 3 21 -4 13 -11 15 -7 12 35 -5 60 8 60 54 1 36 -46 36 -46 43 -20 4 17 -1 39 -15 66 -12 22 -21 45 -21 50 0 16 115 12 167 -6 26 -9 81 -32 122 -51 44 -21 77 -31 82 -26 12 12 -14 86 -46 135 -35 53 -89 78 -169 78 l-64 0 53 54 c29 30 62 75 75 100 41 85 39 178 -5 222 -36 36 -85 32 -184 -16 -110 -53 -146 -53 -226 0 -33 22 -66 40 -72 40 -7 0 -20 -12 -30 -27z" transform="translate(0,114) scale(0.1,-0.1)" stroke="none" fill="#A89BB9"/>

</g>

<g id="2" transform="translate(0,228.0)scale(0.8,0.8)">

<path d="M243 1073 c-11 -16 -19 -52 -21 -95 -4 -63 -6 -68 -27 -68 -59 0 -145 -57 -145 -96 0 -40 11 -52 96 -115 46 -34 84 -63 84 -65 0 -1 -26 -12 -57 -24 -59 -22 -102 -61 -103 -92 0 -10 6 -18 13 -19 24 -2 93 1 152 7 l60 6 -19 -21 c-19 -21 -19 -21 9 -21 15 0 43 9 61 21 l34 21 0 -42 c0 -35 3 -40 18 -36 16 5 17 -4 14 -132 -4 -139 5 -213 25 -219 8 -3 10 46 7 173 -2 97 -1 181 2 186 3 5 13 3 21 -4 13 -11 15 -7 12 35 -5 60 8 60 54 1 36 -46 36 -46 43 -20 4 17 -1 39 -15 66 -12 22 -21 45 -21 50 0 16 115 12 167 -6 26 -9 81 -32 122 -51 44 -21 77 -31 82 -26 12 12 -14 86 -46 135 -35 53 -89 78 -169 78 l-64 0 53 54 c29 30 62 75 75 100 41 85 39 178 -5 222 -36 36 -85 32 -184 -16 -110 -53 -146 -53 -226 0 -33 22 -66 40 -72 40 -7 0 -20 -12 -30 -27z" transform="translate(0,114) scale(0.1,-0.1)" stroke="none" fill="#A89BB9"/>

</g>

<g id="3" transform="translate(0,342.0)scale(0.8,0.8)">

<path d="M243 1073 c-11 -16 -19 -52 -21 -95 -4 -63 -6 -68 -27 -68 -59 0 -145 -57 -145 -96 0 -40 11 -52 96 -115 46 -34 84 -63 84 -65 0 -1 -26 -12 -57 -24 -59 -22 -102 -61 -103 -92 0 -10 6 -18 13 -19 24 -2 93 1 152 7 l60 6 -19 -21 c-19 -21 -19 -21 9 -21 15 0 43 9 61 21 l34 21 0 -42 c0 -35 3 -40 18 -36 16 5 17 -4 14 -132 -4 -139 5 -213 25 -219 8 -3 10 46 7 173 -2 97 -1 181 2 186 3 5 13 3 21 -4 13 -11 15 -7 12 35 -5 60 8 60 54 1 36 -46 36 -46 43 -20 4 17 -1 39 -15 66 -12 22 -21 45 -21 50 0 16 115 12 167 -6 26 -9 81 -32 122 -51 44 -21 77 -31 82 -26 12 12 -14 86 -46 135 -35 53 -89 78 -169 78 l-64 0 53 54 c29 30 62 75 75 100 41 85 39 178 -5 222 -36 36 -85 32 -184 -16 -110 -53 -146 -53 -226 0 -33 22 -66 40 -72 40 -7 0 -20 -12 -30 -27z" transform="translate(0,114) scale(0.1,-0.1)" stroke="none" fill="#A89BB9"/>

</g>

<g id="4" transform="translate(0,456.0)scale(0.8,0.8)">

<path d="M243 1073 c-11 -16 -19 -52 -21 -95 -4 -63 -6 -68 -27 -68 -59 0 -145 -57 -145 -96 0 -40 11 -52 96 -115 46 -34 84 -63 84 -65 0 -1 -26 -12 -57 -24 -59 -22 -102 -61 -103 -92 0 -10 6 -18 13 -19 24 -2 93 1 152 7 l60 6 -19 -21 c-19 -21 -19 -21 9 -21 15 0 43 9 61 21 l34 21 0 -42 c0 -35 3 -40 18 -36 16 5 17 -4 14 -132 -4 -139 5 -213 25 -219 8 -3 10 46 7 173 -2 97 -1 181 2 186 3 5 13 3 21 -4 13 -11 15 -7 12 35 -5 60 8 60 54 1 36 -46 36 -46 43 -20 4 17 -1 39 -15 66 -12 22 -21 45 -21 50 0 16 115 12 167 -6 26 -9 81 -32 122 -51 44 -21 77 -31 82 -26 12 12 -14 86 -46 135 -35 53 -89 78 -169 78 l-64 0 53 54 c29 30 62 75 75 100 41 85 39 178 -5 222 -36 36 -85 32 -184 -16 -110 -53 -146 -53 -226 0 -33 22 -66 40 -72 40 -7 0 -20 -12 -30 -27z" transform="translate(0,114) scale(0.1,-0.1)" stroke="none" fill="#A89BB9"/>

</g>

</g>
<g id="col2" transform="translate(192, 15)">
<g id="0" transform="translate(0,0.0)scale(0.8,0.8)">

<path d="M243 1073 c-11 -16 -19 -52 -21 -95 -4 -63 -6 -68 -27 -68 -59 0 -145 -57 -145 -96 0 -40 11 -52 96 -115 46 -34 84 -63 84 -65 0 -1 -26 -12 -57 -24 -59 -22 -102 -61 -103 -92 0 -10 6 -18 13 -19 24 -2 93 1 152 7 l60 6 -19 -21 c-19 -21 -19 -21 9 -21 15 0 43 9 61 21 l34 21 0 -42 c0 -35 3 -40 18 -36 16 5 17 -4 14 -132 -4 -139 5 -213 25 -219 8 -3 10 46 7 173 -2 97 -1 181 2 186 3 5 13 3 21 -4 13 -11 15 -7 12 35 -5 60 8 60 54 1 36 -46 36 -46 43 -20 4 17 -1 39 -15 66 -12 22 -21 45 -21 50 0 16 115 12 167 -6 26 -9 81 -32 122 -51 44 -21 77 -31 82 -26 12 12 -14 86 -46 135 -35 53 -89 78 -169 78 l-64 0 53 54 c29 30 62 75 75 100 41 85 39 178 -5 222 -36 36 -85 32 -184 -16 -110 -53 -146 -53 -226 0 -33 22 -66 40 -72 40 -7 0 -20 -12 -30 -27z" transform="translate(0,114) scale(0.1,-0.1)" stroke="none" fill="#A89BB9"/>

</g>

<g id="1" transform="translate(0,114.0)scale(0.8,0.8)">

<path d="M243 1073 c-11 -16 -19 -52 -21 -95 -4 -63 -6 -68 -27 -68 -59 0 -145 -57 -145 -96 0 -40 11 -52 96 -115 46 -34 84 -63 84 -65 0 -1 -26 -12 -57 -24 -59 -22 -102 -61 -103 -92 0 -10 6 -18 13 -19 24 -2 93 1 152 7 l60 6 -19 -21 c-19 -21 -19 -21 9 -21 15 0 43 9 61 21 l34 21 0 -42 c0 -35 3 -40 18 -36 16 5 17 -4 14 -132 -4 -139 5 -213 25 -219 8 -3 10 46 7 173 -2 97 -1 181 2 186 3 5 13 3 21 -4 13 -11 15 -7 12 35 -5 60 8 60 54 1 36 -46 36 -46 43 -20 4 17 -1 39 -15 66 -12 22 -21 45 -21 50 0 16 115 12 167 -6 26 -9 81 -32 122 -51 44 -21 77 -31 82 -26 12 12 -14 86 -46 135 -35 53 -89 78 -169 78 l-64 0 53 54 c29 30 62 75 75 100 41 85 39 178 -5 222 -36 36 -85 32 -184 -16 -110 -53 -146 -53 -226 0 -33 22 -66 40 -72 40 -7 0 -20 -12 -30 -27z" transform="translate(0,114) scale(0.1,-0.1)" stroke="none" fill="#A89BB9"/>

</g>

<g id="2" transform="translate(0,228.0)scale(0.8,0.8)">

<path d="M243 1073 c-11 -16 -19 -52 -21 -95 -4 -63 -6 -68 -27 -68 -59 0 -145 -57 -145 -96 0 -40 11 -52 96 -115 46 -34 84 -63 84 -65 0 -1 -26 -12 -57 -24 -59 -22 -102 -61 -103 -92 0 -10 6 -18 13 -19 24 -2 93 1 152 7 l60 6 -19 -21 c-19 -21 -19 -21 9 -21 15 0 43 9 61 21 l34 21 0 -42 c0 -35 3 -40 18 -36 16 5 17 -4 14 -132 -4 -139 5 -213 25 -219 8 -3 10 46 7 173 -2 97 -1 181 2 186 3 5 13 3 21 -4 13 -11 15 -7 12 35 -5 60 8 60 54 1 36 -46 36 -46 43 -20 4 17 -1 39 -15 66 -12 22 -21 45 -21 50 0 16 115 12 167 -6 26 -9 81 -32 122 -51 44 -21 77 -31 82 -26 12 12 -14 86 -46 135 -35 53 -89 78 -169 78 l-64 0 53 54 c29 30 62 75 75 100 41 85 39 178 -5 222 -36 36 -85 32 -184 -16 -110 -53 -146 -53 -226 0 -33 22 -66 40 -72 40 -7 0 -20 -12 -30 -27z" transform="translate(0,114) scale(0.1,-0.1)" stroke="none" fill="#A89BB9"/>

</g>

<g id="3" transform="translate(0,342.0)scale(0.8,0.8)">

<path d="M243 1073 c-11 -16 -19 -52 -21 -95 -4 -63 -6 -68 -27 -68 -59 0 -145 -57 -145 -96 0 -40 11 -52 96 -115 46 -34 84 -63 84 -65 0 -1 -26 -12 -57 -24 -59 -22 -102 -61 -103 -92 0 -10 6 -18 13 -19 24 -2 93 1 152 7 l60 6 -19 -21 c-19 -21 -19 -21 9 -21 15 0 43 9 61 21 l34 21 0 -42 c0 -35 3 -40 18 -36 16 5 17 -4 14 -132 -4 -139 5 -213 25 -219 8 -3 10 46 7 173 -2 97 -1 181 2 186 3 5 13 3 21 -4 13 -11 15 -7 12 35 -5 60 8 60 54 1 36 -46 36 -46 43 -20 4 17 -1 39 -15 66 -12 22 -21 45 -21 50 0 16 115 12 167 -6 26 -9 81 -32 122 -51 44 -21 77 -31 82 -26 12 12 -14 86 -46 135 -35 53 -89 78 -169 78 l-64 0 53 54 c29 30 62 75 75 100 41 85 39 178 -5 222 -36 36 -85 32 -184 -16 -110 -53 -146 -53 -226 0 -33 22 -66 40 -72 40 -7 0 -20 -12 -30 -27z" transform="translate(0,114) scale(0.1,-0.1)" stroke="none" fill="#A89BB9"/>

</g>

<g id="4" transform="translate(0,456.0)scale(0.8,0.8)">

<path d="M243 1073 c-11 -16 -19 -52 -21 -95 -4 -63 -6 -68 -27 -68 -59 0 -145 -57 -145 -96 0 -40 11 -52 96 -115 46 -34 84 -63 84 -65 0 -1 -26 -12 -57 -24 -59 -22 -102 -61 -103 -92 0 -10 6 -18 13 -19 24 -2 93 1 152 7 l60 6 -19 -21 c-19 -21 -19 -21 9 -21 15 0 43 9 61 21 l34 21 0 -42 c0 -35 3 -40 18 -36 16 5 17 -4 14 -132 -4 -139 5 -213 25 -219 8 -3 10 46 7 173 -2 97 -1 181 2 186 3 5 13 3 21 -4 13 -11 15 -7 12 35 -5 60 8 60 54 1 36 -46 36 -46 43 -20 4 17 -1 39 -15 66 -12 22 -21 45 -21 50 0 16 115 12 167 -6 26 -9 81 -32 122 -51 44 -21 77 -31 82 -26 12 12 -14 86 -46 135 -35 53 -89 78 -169 78 l-64 0 53 54 c29 30 62 75 75 100 41 85 39 178 -5 222 -36 36 -85 32 -184 -16 -110 -53 -146 -53 -226 0 -33 22 -66 40 -72 40 -7 0 -20 -12 -30 -27z" transform="translate(0,114) scale(0.1,-0.1)" stroke="none" fill="#A89BB9"/>

</g>

</g>
<g id="col3" transform="translate(288, -42.0)">
<g id="0" transform="translate(0,0.0)scale(0.8,0.8)">

<path d="M243 1073 c-11 -16 -19 -52 -21 -95 -4 -63 -6 -68 -27 -68 -59 0 -145 -57 -145 -96 0 -40 11 -52 96 -115 46 -34 84 -63 84 -65 0 -1 -26 -12 -57 -24 -59 -22 -102 -61 -103 -92 0 -10 6 -18 13 -19 24 -2 93 1 152 7 l60 6 -19 -21 c-19 -21 -19 -21 9 -21 15 0 43 9 61 21 l34 21 0 -42 c0 -35 3 -40 18 -36 16 5 17 -4 14 -132 -4 -139 5 -213 25 -219 8 -3 10 46 7 173 -2 97 -1 181 2 186 3 5 13 3 21 -4 13 -11 15 -7 12 35 -5 60 8 60 54 1 36 -46 36 -46 43 -20 4 17 -1 39 -15 66 -12 22 -21 45 -21 50 0 16 115 12 167 -6 26 -9 81 -32 122 -51 44 -21 77 -31 82 -26 12 12 -14 86 -46 135 -35 53 -89 78 -169 78 l-64 0 53 54 c29 30 62 75 75 100 41 85 39 178 -5 222 -36 36 -85 32 -184 -16 -110 -53 -146 -53 -226 0 -33 22 -66 40 -72 40 -7 0 -20 -12 -30 -27z" transform="translate(0,114) scale(0.1,-0.1)" stroke="none" fill="#A89BB9"/>

</g>

<g id="1" transform="translate(0,114.0)scale(0.8,0.8)">

<path d="M243 1073 c-11 -16 -19 -52 -21 -95 -4 -63 -6 -68 -27 -68 -59 0 -145 -57 -145 -96 0 -40 11 -52 96 -115 46 -34 84 -63 84 -65 0 -1 -26 -12 -57 -24 -59 -22 -102 -61 -103 -92 0 -10 6 -18 13 -19 24 -2 93 1 152 7 l60 6 -19 -21 c-19 -21 -19 -21 9 -21 15 0 43 9 61 21 l34 21 0 -42 c0 -35 3 -40 18 -36 16 5 17 -4 14 -132 -4 -139 5 -213 25 -219 8 -3 10 46 7 173 -2 97 -1 181 2 186 3 5 13 3 21 -4 13 -11 15 -7 12 35 -5 60 8 60 54 1 36 -46 36 -46 43 -20 4 17 -1 39 -15 66 -12 22 -21 45 -21 50 0 16 115 12 167 -6 26 -9 81 -32 122 -51 44 -21 77 -31 82 -26 12 12 -14 86 -46 135 -35 53 -89 78 -169 78 l-64 0 53 54 c29 30 62 75 75 100 41 85 39 178 -5 222 -36 36 -85 32 -184 -16 -110 -53 -146 -53 -226 0 -33 22 -66 40 -72 40 -7 0 -20 -12 -30 -27z" transform="translate(0,114) scale(0.1,-0.1)" stroke="none" fill="#A89BB9"/>

</g>

<g id="2" transform="translate(0,228.0)scale(0.8,0.8)">

<path d="M243 1073 c-11 -16 -19 -52 -21 -95 -4 -63 -6 -68 -27 -68 -59 0 -145 -57 -145 -96 0 -40 11 -52 96 -115 46 -34 84 -63 84 -65 0 -1 -26 -12 -57 -24 -59 -22 -102 -61 -103 -92 0 -10 6 -18 13 -19 24 -2 93 1 152 7 l60 6 -19 -21 c-19 -21 -19 -21 9 -21 15 0 43 9 61 21 l34 21 0 -42 c0 -35 3 -40 18 -36 16 5 17 -4 14 -132 -4 -139 5 -213 25 -219 8 -3 10 46 7 173 -2 97 -1 181 2 186 3 5 13 3 21 -4 13 -11 15 -7 12 35 -5 60 8 60 54 1 36 -46 36 -46 43 -20 4 17 -1 39 -15 66 -12 22 -21 45 -21 50 0 16 115 12 167 -6 26 -9 81 -32 122 -51 44 -21 77 -31 82 -26 12 12 -14 86 -46 135 -35 53 -89 78 -169 78 l-64 0 53 54 c29 30 62 75 75 100 41 85 39 178 -5 222 -36 36 -85 32 -184 -16 -110 -53 -146 -53 -226 0 -33 22 -66 40 -72 40 -7 0 -20 -12 -30 -27z" transform="translate(0,114) scale(0.1,-0.1)" stroke="none" fill="#A89BB9"/>

</g>

<g id="3" transform="translate(0,342.0)scale(0.8,0.8)">

<path d="M243 1073 c-11 -16 -19 -52 -21 -95 -4 -63 -6 -68 -27 -68 -59 0 -145 -57 -145 -96 0 -40 11 -52 96 -115 46 -34 84 -63 84 -65 0 -1 -26 -12 -57 -24 -59 -22 -102 -61 -103 -92 0 -10 6 -18 13 -19 24 -2 93 1 152 7 l60 6 -19 -21 c-19 -21 -19 -21 9 -21 15 0 43 9 61 21 l34 21 0 -42 c0 -35 3 -40 18 -36 16 5 17 -4 14 -132 -4 -139 5 -213 25 -219 8 -3 10 46 7 173 -2 97 -1 181 2 186 3 5 13 3 21 -4 13 -11 15 -7 12 35 -5 60 8 60 54 1 36 -46 36 -46 43 -20 4 17 -1 39 -15 66 -12 22 -21 45 -21 50 0 16 115 12 167 -6 26 -9 81 -32 122 -51 44 -21 77 -31 82 -26 12 12 -14 86 -46 135 -35 53 -89 78 -169 78 l-64 0 53 54 c29 30 62 75 75 100 41 85 39 178 -5 222 -36 36 -85 32 -184 -16 -110 -53 -146 -53 -226 0 -33 22 -66 40 -72 40 -7 0 -20 -12 -30 -27z" transform="translate(0,114) scale(0.1,-0.1)" stroke="none" fill="#A89BB9"/>

</g>

<g id="4" transform="translate(0,456.0)scale(0.8,0.8)">

<path d="M243 1073 c-11 -16 -19 -52 -21 -95 -4 -63 -6 -68 -27 -68 -59 0 -145 -57 -145 -96 0 -40 11 -52 96 -115 46 -34 84 -63 84 -65 0 -1 -26 -12 -57 -24 -59 -22 -102 -61 -103 -92 0 -10 6 -18 13 -19 24 -2 93 1 152 7 l60 6 -19 -21 c-19 -21 -19 -21 9 -21 15 0 43 9 61 21 l34 21 0 -42 c0 -35 3 -40 18 -36 16 5 17 -4 14 -132 -4 -139 5 -213 25 -219 8 -3 10 46 7 173 -2 97 -1 181 2 186 3 5 13 3 21 -4 13 -11 15 -7 12 35 -5 60 8 60 54 1 36 -46 36 -46 43 -20 4 17 -1 39 -15 66 -12 22 -21 45 -21 50 0 16 115 12 167 -6 26 -9 81 -32 122 -51 44 -21 77 -31 82 -26 12 12 -14 86 -46 135 -35 53 -89 78 -169 78 l-64 0 53 54 c29 30 62 75 75 100 41 85 39 178 -5 222 -36 36 -85 32 -184 -16 -110 -53 -146 -53 -226 0 -33 22 -66 40 -72 40 -7 0 -20 -12 -30 -27z" transform="translate(0,114) scale(0.1,-0.1)" stroke="none" fill="#A89BB9"/>

</g>

</g>
</svg>