<?xml version="1.0" standalone="no"?>
<!DOCTYPE svg PUBLIC "-//W3C//DTD SVG 20010904//EN"
 "http://www.w3.org/TR/2001/REC-SVG-20010904/DTD/svg10.dtd">
<svg version="1.0" xmlns="http://www.w3.org/2000/svg" width="296pt" height="312pt" viewBox="0 0 296 312" preserveAspectRatio = "xMidYMid meet" >
<metadata>
Created by ZoeQu, written in 2022
</metadata>
<rect width="296" height="312" fill="#BBC3BD"/>
<g id="row0" transform="translate(9,0.0)">
<g id="0" transform="translate(0.0,0)scale(1,1)">

<path d="M226 708 c-9 -12 -16 -31 -16 -41 0 -16 -5 -14 -37 13 -30 27 -42 31 -71 26 -20 -3 -45 -15 -56 -26 -19 -19 -20 -23 -6 -47 8 -14 30 -33 47 -42 36 -18 42 -31 15 -31 -24 0 -42 -19 -42 -46 0 -42 119 -131 157 -117 8 3 17 18 20 34 5 28 23 41 23 18 0 -6 9 -24 21 -40 14 -21 29 -29 50 -29 35 0 36 -6 7 -30 -22 -18 -22 -20 -8 -47 9 -15 27 -34 42 -41 23 -11 25 -15 15 -37 -7 -14 -18 -25 -24 -25 -40 0 15 -76 83 -116 52 -31 70 -27 82 18 l9 33 22 -36 c29 -49 72 -67 106 -45 14 9 25 24 25 32 0 22 -97 114 -120 114 -5 0 -10 5 -10 11 0 7 7 8 18 4 84 -35 166 0 116 49 -18 19 -94 22 -112 4 -21 -21 -25 0 -4 29 43 62 36 103 -19 103 -23 0 -31 -7 -45 -37 -10 -21 -19 -40 -20 -42 -2 -2 -15 11 -29 28 -19 22 -36 31 -56 31 -30 0 -36 9 -18 27 16 16 -3 45 -53 84 -67 51 -67 51 -8 44 89 -10 119 29 55 71 -23 15 -31 16 -62 5 -19 -7 -37 -10 -40 -7 -3 3 5 26 18 51 24 45 24 46 5 61 -29 21 -63 17 -80 -8z m38 -143 c3 -9 -3 -19 -14 -25 -15 -8 -24 -6 -40 10 -27 27 -26 30 14 30 21 0 36 -6 40 -15z m285 -321 c2 -2 1 -10 -2 -19 -7 -17 -34 -20 -56 -6 -23 14 5 43 33 35 12 -4 23 -8 25 -10z" transform="translate(0,78) scale(0.1,-0.1)" stroke="none" fill="#82786C"/>

</g>

<g id="1" transform="translate(74.0,0)scale(1,1)">

<path d="M226 708 c-9 -12 -16 -31 -16 -41 0 -16 -5 -14 -37 13 -30 27 -42 31 -71 26 -20 -3 -45 -15 -56 -26 -19 -19 -20 -23 -6 -47 8 -14 30 -33 47 -42 36 -18 42 -31 15 -31 -24 0 -42 -19 -42 -46 0 -42 119 -131 157 -117 8 3 17 18 20 34 5 28 23 41 23 18 0 -6 9 -24 21 -40 14 -21 29 -29 50 -29 35 0 36 -6 7 -30 -22 -18 -22 -20 -8 -47 9 -15 27 -34 42 -41 23 -11 25 -15 15 -37 -7 -14 -18 -25 -24 -25 -40 0 15 -76 83 -116 52 -31 70 -27 82 18 l9 33 22 -36 c29 -49 72 -67 106 -45 14 9 25 24 25 32 0 22 -97 114 -120 114 -5 0 -10 5 -10 11 0 7 7 8 18 4 84 -35 166 0 116 49 -18 19 -94 22 -112 4 -21 -21 -25 0 -4 29 43 62 36 103 -19 103 -23 0 -31 -7 -45 -37 -10 -21 -19 -40 -20 -42 -2 -2 -15 11 -29 28 -19 22 -36 31 -56 31 -30 0 -36 9 -18 27 16 16 -3 45 -53 84 -67 51 -67 51 -8 44 89 -10 119 29 55 71 -23 15 -31 16 -62 5 -19 -7 -37 -10 -40 -7 -3 3 5 26 18 51 24 45 24 46 5 61 -29 21 -63 17 -80 -8z m38 -143 c3 -9 -3 -19 -14 -25 -15 -8 -24 -6 -40 10 -27 27 -26 30 14 30 21 0 36 -6 40 -15z m285 -321 c2 -2 1 -10 -2 -19 -7 -17 -34 -20 -56 -6 -23 14 5 43 33 35 12 -4 23 -8 25 -10z" transform="translate(0,78) scale(0.1,-0.1)" stroke="none" fill="#82786C"/>

</g>

<g id="2" transform="translate(148.0,0)scale(1,1)">

<path d="M226 708 c-9 -12 -16 -31 -16 -41 0 -16 -5 -14 -37 13 -30 27 -42 31 -71 26 -20 -3 -45 -15 -56 -26 -19 -19 -20 -23 -6 -47 8 -14 30 -33 47 -42 36 -18 42 -31 15 -31 -24 0 -42 -19 -42 -46 0 -42 119 -131 157 -117 8 3 17 18 20 34 5 28 23 41 23 18 0 -6 9 -24 21 -40 14 -21 29 -29 50 -29 35 0 36 -6 7 -30 -22 -18 -22 -20 -8 -47 9 -15 27 -34 42 -41 23 -11 25 -15 15 -37 -7 -14 -18 -25 -24 -25 -40 0 15 -76 83 -116 52 -31 70 -27 82 18 l9 33 22 -36 c29 -49 72 -67 106 -45 14 9 25 24 25 32 0 22 -97 114 -120 114 -5 0 -10 5 -10 11 0 7 7 8 18 4 84 -35 166 0 116 49 -18 19 -94 22 -112 4 -21 -21 -25 0 -4 29 43 62 36 103 -19 103 -23 0 -31 -7 -45 -37 -10 -21 -19 -40 -20 -42 -2 -2 -15 11 -29 28 -19 22 -36 31 -56 31 -30 0 -36 9 -18 27 16 16 -3 45 -53 84 -67 51 -67 51 -8 44 89 -10 119 29 55 71 -23 15 -31 16 -62 5 -19 -7 -37 -10 -40 -7 -3 3 5 26 18 51 24 45 24 46 5 61 -29 21 -63 17 -80 -8z m38 -143 c3 -9 -3 -19 -14 -25 -15 -8 -24 -6 -40 10 -27 27 -26 30 14 30 21 0 36 -6 40 -15z m285 -321 c2 -2 1 -10 -2 -19 -7 -17 -34 -20 -56 -6 -23 14 5 43 33 35 12 -4 23 -8 25 -10z" transform="translate(0,78) scale(0.1,-0.1)" stroke="none" fill="#82786C"/>

</g>

<g id="3" transform="translate(222.0,0)scale(1,1)">

<path d="M226 708 c-9 -12 -16 -31 -16 -41 0 -16 -5 -14 -37 13 -30 27 -42 31 -71 26 -20 -3 -45 -15 -56 -26 -19 -19 -20 -23 -6 -47 8 -14 30 -33 47 -42 36 -18 42 -31 15 -31 -24 0 -42 -19 -42 -46 0 -42 119 -131 157 -117 8 3 17 18 20 34 5 28 23 41 23 18 0 -6 9 -24 21 -40 14 -21 29 -29 50 -29 35 0 36 -6 7 -30 -22 -18 -22 -20 -8 -47 9 -15 27 -34 42 -41 23 -11 25 -15 15 -37 -7 -14 -18 -25 -24 -25 -40 0 15 -76 83 -116 52 -31 70 -27 82 18 l9 33 22 -36 c29 -49 72 -67 106 -45 14 9 25 24 25 32 0 22 -97 114 -120 114 -5 0 -10 5 -10 11 0 7 7 8 18 4 84 -35 166 0 116 49 -18 19 -94 22 -112 4 -21 -21 -25 0 -4 29 43 62 36 103 -19 103 -23 0 -31 -7 -45 -37 -10 -21 -19 -40 -20 -42 -2 -2 -15 11 -29 28 -19 22 -36 31 -56 31 -30 0 -36 9 -18 27 16 16 -3 45 -53 84 -67 51 -67 51 -8 44 89 -10 119 29 55 71 -23 15 -31 16 -62 5 -19 -7 -37 -10 -40 -7 -3 3 5 26 18 51 24 45 24 46 5 61 -29 21 -63 17 -80 -8z m38 -143 c3 -9 -3 -19 -14 -25 -15 -8 -24 -6 -40 10 -27 27 -26 30 14 30 21 0 36 -6 40 -15z m285 -321 c2 -2 1 -10 -2 -19 -7 -17 -34 -20 -56 -6 -23 14 5 43 33 35 12 -4 23 -8 25 -10z" transform="translate(0,78) scale(0.1,-0.1)" stroke="none" fill="#82786C"/>

</g>

<g id="4" transform="translate(296.0,0)scale(1,1)">

<path d="M226 708 c-9 -12 -16 -31 -16 -41 0 -16 -5 -14 -37 13 -30 27 -42 31 -71 26 -20 -3 -45 -15 -56 -26 -19 -19 -20 -23 -6 -47 8 -14 30 -33 47 -42 36 -18 42 -31 15 -31 -24 0 -42 -19 -42 -46 0 -42 119 -131 157 -117 8 3 17 18 20 34 5 28 23 41 23 18 0 -6 9 -24 21 -40 14 -21 29 -29 50 -29 35 0 36 -6 7 -30 -22 -18 -22 -20 -8 -47 9 -15 27 -34 42 -41 23 -11 25 -15 15 -37 -7 -14 -18 -25 -24 -25 -40 0 15 -76 83 -116 52 -31 70 -27 82 18 l9 33 22 -36 c29 -49 72 -67 106 -45 14 9 25 24 25 32 0 22 -97 114 -120 114 -5 0 -10 5 -10 11 0 7 7 8 18 4 84 -35 166 0 116 49 -18 19 -94 22 -112 4 -21 -21 -25 0 -4 29 43 62 36 103 -19 103 -23 0 -31 -7 -45 -37 -10 -21 -19 -40 -20 -42 -2 -2 -15 11 -29 28 -19 22 -36 31 -56 31 -30 0 -36 9 -18 27 16 16 -3 45 -53 84 -67 51 -67 51 -8 44 89 -10 119 29 55 71 -23 15 -31 16 -62 5 -19 -7 -37 -10 -40 -7 -3 3 5 26 18 51 24 45 24 46 5 61 -29 21 -63 17 -80 -8z m38 -143 c3 -9 -3 -19 -14 -25 -15 -8 -24 -6 -40 10 -27 27 -26 30 14 30 21 0 36 -6 40 -15z m285 -321 c2 -2 1 -10 -2 -19 -7 -17 -34 -20 -56 -6 -23 14 5 43 33 35 12 -4 23 -8 25 -10z" transform="translate(0,78) scale(0.1,-0.1)" stroke="none" fill="#82786C"/>

</g>

</g>
<g id="row1" transform="translate(-28,78.0)">
<g id="0" transform="translate(0.0,0)scale(1,1)">

<path d="M226 708 c-9 -12 -16 -31 -16 -41 0 -16 -5 -14 -37 13 -30 27 -42 31 -71 26 -20 -3 -45 -15 -56 -26 -19 -19 -20 -23 -6 -47 8 -14 30 -33 47 -42 36 -18 42 -31 15 -31 -24 0 -42 -19 -42 -46 0 -42 119 -131 157 -117 8 3 17 18 20 34 5 28 23 41 23 18 0 -6 9 -24 21 -40 14 -21 29 -29 50 -29 35 0 36 -6 7 -30 -22 -18 -22 -20 -8 -47 9 -15 27 -34 42 -41 23 -11 25 -15 15 -37 -7 -14 -18 -25 -24 -25 -40 0 15 -76 83 -116 52 -31 70 -27 82 18 l9 33 22 -36 c29 -49 72 -67 106 -45 14 9 25 24 25 32 0 22 -97 114 -120 114 -5 0 -10 5 -10 11 0 7 7 8 18 4 84 -35 166 0 116 49 -18 19 -94 22 -112 4 -21 -21 -25 0 -4 29 43 62 36 103 -19 103 -23 0 -31 -7 -45 -37 -10 -21 -19 -40 -20 -42 -2 -2 -15 11 -29 28 -19 22 -36 31 -56 31 -30 0 -36 9 -18 27 16 16 -3 45 -53 84 -67 51 -67 51 -8 44 89 -10 119 29 55 71 -23 15 -31 16 -62 5 -19 -7 -37 -10 -40 -7 -3 3 5 26 18 51 24 45 24 46 5 61 -29 21 -63 17 -80 -8z m38 -143 c3 -9 -3 -19 -14 -25 -15 -8 -24 -6 -40 10 -27 27 -26 30 14 30 21 0 36 -6 40 -15z m285 -321 c2 -2 1 -10 -2 -19 -7 -17 -34 -20 -56 -6 -23 14 5 43 33 35 12 -4 23 -8 25 -10z" transform="translate(0,78) scale(0.1,-0.1)" stroke="none" fill="#82786C"/>

</g>

<g id="1" transform="translate(74.0,0)scale(1,1)">

<path d="M226 708 c-9 -12 -16 -31 -16 -41 0 -16 -5 -14 -37 13 -30 27 -42 31 -71 26 -20 -3 -45 -15 -56 -26 -19 -19 -20 -23 -6 -47 8 -14 30 -33 47 -42 36 -18 42 -31 15 -31 -24 0 -42 -19 -42 -46 0 -42 119 -131 157 -117 8 3 17 18 20 34 5 28 23 41 23 18 0 -6 9 -24 21 -40 14 -21 29 -29 50 -29 35 0 36 -6 7 -30 -22 -18 -22 -20 -8 -47 9 -15 27 -34 42 -41 23 -11 25 -15 15 -37 -7 -14 -18 -25 -24 -25 -40 0 15 -76 83 -116 52 -31 70 -27 82 18 l9 33 22 -36 c29 -49 72 -67 106 -45 14 9 25 24 25 32 0 22 -97 114 -120 114 -5 0 -10 5 -10 11 0 7 7 8 18 4 84 -35 166 0 116 49 -18 19 -94 22 -112 4 -21 -21 -25 0 -4 29 43 62 36 103 -19 103 -23 0 -31 -7 -45 -37 -10 -21 -19 -40 -20 -42 -2 -2 -15 11 -29 28 -19 22 -36 31 -56 31 -30 0 -36 9 -18 27 16 16 -3 45 -53 84 -67 51 -67 51 -8 44 89 -10 119 29 55 71 -23 15 -31 16 -62 5 -19 -7 -37 -10 -40 -7 -3 3 5 26 18 51 24 45 24 46 5 61 -29 21 -63 17 -80 -8z m38 -143 c3 -9 -3 -19 -14 -25 -15 -8 -24 -6 -40 10 -27 27 -26 30 14 30 21 0 36 -6 40 -15z m285 -321 c2 -2 1 -10 -2 -19 -7 -17 -34 -20 -56 -6 -23 14 5 43 33 35 12 -4 23 -8 25 -10z" transform="translate(0,78) scale(0.1,-0.1)" stroke="none" fill="#82786C"/>

</g>

<g id="2" transform="translate(148.0,0)scale(1,1)">

<path d="M226 708 c-9 -12 -16 -31 -16 -41 0 -16 -5 -14 -37 13 -30 27 -42 31 -71 26 -20 -3 -45 -15 -56 -26 -19 -19 -20 -23 -6 -47 8 -14 30 -33 47 -42 36 -18 42 -31 15 -31 -24 0 -42 -19 -42 -46 0 -42 119 -131 157 -117 8 3 17 18 20 34 5 28 23 41 23 18 0 -6 9 -24 21 -40 14 -21 29 -29 50 -29 35 0 36 -6 7 -30 -22 -18 -22 -20 -8 -47 9 -15 27 -34 42 -41 23 -11 25 -15 15 -37 -7 -14 -18 -25 -24 -25 -40 0 15 -76 83 -116 52 -31 70 -27 82 18 l9 33 22 -36 c29 -49 72 -67 106 -45 14 9 25 24 25 32 0 22 -97 114 -120 114 -5 0 -10 5 -10 11 0 7 7 8 18 4 84 -35 166 0 116 49 -18 19 -94 22 -112 4 -21 -21 -25 0 -4 29 43 62 36 103 -19 103 -23 0 -31 -7 -45 -37 -10 -21 -19 -40 -20 -42 -2 -2 -15 11 -29 28 -19 22 -36 31 -56 31 -30 0 -36 9 -18 27 16 16 -3 45 -53 84 -67 51 -67 51 -8 44 89 -10 119 29 55 71 -23 15 -31 16 -62 5 -19 -7 -37 -10 -40 -7 -3 3 5 26 18 51 24 45 24 46 5 61 -29 21 -63 17 -80 -8z m38 -143 c3 -9 -3 -19 -14 -25 -15 -8 -24 -6 -40 10 -27 27 -26 30 14 30 21 0 36 -6 40 -15z m285 -321 c2 -2 1 -10 -2 -19 -7 -17 -34 -20 -56 -6 -23 14 5 43 33 35 12 -4 23 -8 25 -10z" transform="translate(0,78) scale(0.1,-0.1)" stroke="none" fill="#82786C"/>

</g>

<g id="3" transform="translate(222.0,0)scale(1,1)">

<path d="M226 708 c-9 -12 -16 -31 -16 -41 0 -16 -5 -14 -37 13 -30 27 -42 31 -71 26 -20 -3 -45 -15 -56 -26 -19 -19 -20 -23 -6 -47 8 -14 30 -33 47 -42 36 -18 42 -31 15 -31 -24 0 -42 -19 -42 -46 0 -42 119 -131 157 -117 8 3 17 18 20 34 5 28 23 41 23 18 0 -6 9 -24 21 -40 14 -21 29 -29 50 -29 35 0 36 -6 7 -30 -22 -18 -22 -20 -8 -47 9 -15 27 -34 42 -41 23 -11 25 -15 15 -37 -7 -14 -18 -25 -24 -25 -40 0 15 -76 83 -116 52 -31 70 -27 82 18 l9 33 22 -36 c29 -49 72 -67 106 -45 14 9 25 24 25 32 0 22 -97 114 -120 114 -5 0 -10 5 -10 11 0 7 7 8 18 4 84 -35 166 0 116 49 -18 19 -94 22 -112 4 -21 -21 -25 0 -4 29 43 62 36 103 -19 103 -23 0 -31 -7 -45 -37 -10 -21 -19 -40 -20 -42 -2 -2 -15 11 -29 28 -19 22 -36 31 -56 31 -30 0 -36 9 -18 27 16 16 -3 45 -53 84 -67 51 -67 51 -8 44 89 -10 119 29 55 71 -23 15 -31 16 -62 5 -19 -7 -37 -10 -40 -7 -3 3 5 26 18 51 24 45 24 46 5 61 -29 21 -63 17 -80 -8z m38 -143 c3 -9 -3 -19 -14 -25 -15 -8 -24 -6 -40 10 -27 27 -26 30 14 30 21 0 36 -6 40 -15z m285 -321 c2 -2 1 -10 -2 -19 -7 -17 -34 -20 -56 -6 -23 14 5 43 33 35 12 -4 23 -8 25 -10z" transform="translate(0,78) scale(0.1,-0.1)" stroke="none" fill="#82786C"/>

</g>

<g id="4" transform="translate(296.0,0)scale(1,1)">

<path d="M226 708 c-9 -12 -16 -31 -16 -41 0 -16 -5 -14 -37 13 -30 27 -42 31 -71 26 -20 -3 -45 -15 -56 -26 -19 -19 -20 -23 -6 -47 8 -14 30 -33 47 -42 36 -18 42 -31 15 -31 -24 0 -42 -19 -42 -46 0 -42 119 -131 157 -117 8 3 17 18 20 34 5 28 23 41 23 18 0 -6 9 -24 21 -40 14 -21 29 -29 50 -29 35 0 36 -6 7 -30 -22 -18 -22 -20 -8 -47 9 -15 27 -34 42 -41 23 -11 25 -15 15 -37 -7 -14 -18 -25 -24 -25 -40 0 15 -76 83 -116 52 -31 70 -27 82 18 l9 33 22 -36 c29 -49 72 -67 106 -45 14 9 25 24 25 32 0 22 -97 114 -120 114 -5 0 -10 5 -10 11 0 7 7 8 18 4 84 -35 166 0 116 49 -18 19 -94 22 -112 4 -21 -21 -25 0 -4 29 43 62 36 103 -19 103 -23 0 -31 -7 -45 -37 -10 -21 -19 -40 -20 -42 -2 -2 -15 11 -29 28 -19 22 -36 31 -56 31 -30 0 -36 9 -18 27 16 16 -3 45 -53 84 -67 51 -67 51 -8 44 89 -10 119 29 55 71 -23 15 -31 16 -62 5 -19 -7 -37 -10 -40 -7 -3 3 5 26 18 51 24 45 24 46 5 61 -29 21 -63 17 -80 -8z m38 -143 c3 -9 -3 -19 -14 -25 -15 -8 -24 -6 -40 10 -27 27 -26 30 14 30 21 0 36 -6 40 -15z m285 -321 c2 -2 1 -10 -2 -19 -7 -17 -34 -20 -56 -6 -23 14 5 43 33 35 12 -4 23 -8 25 -10z" transform="translate(0,78) scale(0.1,-0.1)" stroke="none" fill="#82786C"/>

</g>

</g>
<g id="row2" transform="translate(9,156.0)">
<g id="0" transform="translate(0.0,0)scale(1,1)">

<path d="M226 708 c-9 -12 -16 -31 -16 -41 0 -16 -5 -14 -37 13 -30 27 -42 31 -71 26 -20 -3 -45 -15 -56 -26 -19 -19 -20 -23 -6 -47 8 -14 30 -33 47 -42 36 -18 42 -31 15 -31 -24 0 -42 -19 -42 -46 0 -42 119 -131 157 -117 8 3 17 18 20 34 5 28 23 41 23 18 0 -6 9 -24 21 -40 14 -21 29 -29 50 -29 35 0 36 -6 7 -30 -22 -18 -22 -20 -8 -47 9 -15 27 -34 42 -41 23 -11 25 -15 15 -37 -7 -14 -18 -25 -24 -25 -40 0 15 -76 83 -116 52 -31 70 -27 82 18 l9 33 22 -36 c29 -49 72 -67 106 -45 14 9 25 24 25 32 0 22 -97 114 -120 114 -5 0 -10 5 -10 11 0 7 7 8 18 4 84 -35 166 0 116 49 -18 19 -94 22 -112 4 -21 -21 -25 0 -4 29 43 62 36 103 -19 103 -23 0 -31 -7 -45 -37 -10 -21 -19 -40 -20 -42 -2 -2 -15 11 -29 28 -19 22 -36 31 -56 31 -30 0 -36 9 -18 27 16 16 -3 45 -53 84 -67 51 -67 51 -8 44 89 -10 119 29 55 71 -23 15 -31 16 -62 5 -19 -7 -37 -10 -40 -7 -3 3 5 26 18 51 24 45 24 46 5 61 -29 21 -63 17 -80 -8z m38 -143 c3 -9 -3 -19 -14 -25 -15 -8 -24 -6 -40 10 -27 27 -26 30 14 30 21 0 36 -6 40 -15z m285 -321 c2 -2 1 -10 -2 -19 -7 -17 -34 -20 -56 -6 -23 14 5 43 33 35 12 -4 23 -8 25 -10z" transform="translate(0,78) scale(0.1,-0.1)" stroke="none" fill="#82786C"/>

</g>

<g id="1" transform="translate(74.0,0)scale(1,1)">

<path d="M226 708 c-9 -12 -16 -31 -16 -41 0 -16 -5 -14 -37 13 -30 27 -42 31 -71 26 -20 -3 -45 -15 -56 -26 -19 -19 -20 -23 -6 -47 8 -14 30 -33 47 -42 36 -18 42 -31 15 -31 -24 0 -42 -19 -42 -46 0 -42 119 -131 157 -117 8 3 17 18 20 34 5 28 23 41 23 18 0 -6 9 -24 21 -40 14 -21 29 -29 50 -29 35 0 36 -6 7 -30 -22 -18 -22 -20 -8 -47 9 -15 27 -34 42 -41 23 -11 25 -15 15 -37 -7 -14 -18 -25 -24 -25 -40 0 15 -76 83 -116 52 -31 70 -27 82 18 l9 33 22 -36 c29 -49 72 -67 106 -45 14 9 25 24 25 32 0 22 -97 114 -120 114 -5 0 -10 5 -10 11 0 7 7 8 18 4 84 -35 166 0 116 49 -18 19 -94 22 -112 4 -21 -21 -25 0 -4 29 43 62 36 103 -19 103 -23 0 -31 -7 -45 -37 -10 -21 -19 -40 -20 -42 -2 -2 -15 11 -29 28 -19 22 -36 31 -56 31 -30 0 -36 9 -18 27 16 16 -3 45 -53 84 -67 51 -67 51 -8 44 89 -10 119 29 55 71 -23 15 -31 16 -62 5 -19 -7 -37 -10 -40 -7 -3 3 5 26 18 51 24 45 24 46 5 61 -29 21 -63 17 -80 -8z m38 -143 c3 -9 -3 -19 -14 -25 -15 -8 -24 -6 -40 10 -27 27 -26 30 14 30 21 0 36 -6 40 -15z m285 -321 c2 -2 1 -10 -2 -19 -7 -17 -34 -20 -56 -6 -23 14 5 43 33 35 12 -4 23 -8 25 -10z" transform="translate(0,78) scale(0.1,-0.1)" stroke="none" fill="#82786C"/>

</g>

<g id="2" transform="translate(148.0,0)scale(1,1)">

<path d="M226 708 c-9 -12 -16 -31 -16 -41 0 -16 -5 -14 -37 13 -30 27 -42 31 -71 26 -20 -3 -45 -15 -56 -26 -19 -19 -20 -23 -6 -47 8 -14 30 -33 47 -42 36 -18 42 -31 15 -31 -24 0 -42 -19 -42 -46 0 -42 119 -131 157 -117 8 3 17 18 20 34 5 28 23 41 23 18 0 -6 9 -24 21 -40 14 -21 29 -29 50 -29 35 0 36 -6 7 -30 -22 -18 -22 -20 -8 -47 9 -15 27 -34 42 -41 23 -11 25 -15 15 -37 -7 -14 -18 -25 -24 -25 -40 0 15 -76 83 -116 52 -31 70 -27 82 18 l9 33 22 -36 c29 -49 72 -67 106 -45 14 9 25 24 25 32 0 22 -97 114 -120 114 -5 0 -10 5 -10 11 0 7 7 8 18 4 84 -35 166 0 116 49 -18 19 -94 22 -112 4 -21 -21 -25 0 -4 29 43 62 36 103 -19 103 -23 0 -31 -7 -45 -37 -10 -21 -19 -40 -20 -42 -2 -2 -15 11 -29 28 -19 22 -36 31 -56 31 -30 0 -36 9 -18 27 16 16 -3 45 -53 84 -67 51 -67 51 -8 44 89 -10 119 29 55 71 -23 15 -31 16 -62 5 -19 -7 -37 -10 -40 -7 -3 3 5 26 18 51 24 45 24 46 5 61 -29 21 -63 17 -80 -8z m38 -143 c3 -9 -3 -19 -14 -25 -15 -8 -24 -6 -40 10 -27 27 -26 30 14 30 21 0 36 -6 40 -15z m285 -321 c2 -2 1 -10 -2 -19 -7 -17 -34 -20 -56 -6 -23 14 5 43 33 35 12 -4 23 -8 25 -10z" transform="translate(0,78) scale(0.1,-0.1)" stroke="none" fill="#82786C"/>

</g>

<g id="3" transform="translate(222.0,0)scale(1,1)">

<path d="M226 708 c-9 -12 -16 -31 -16 -41 0 -16 -5 -14 -37 13 -30 27 -42 31 -71 26 -20 -3 -45 -15 -56 -26 -19 -19 -20 -23 -6 -47 8 -14 30 -33 47 -42 36 -18 42 -31 15 -31 -24 0 -42 -19 -42 -46 0 -42 119 -131 157 -117 8 3 17 18 20 34 5 28 23 41 23 18 0 -6 9 -24 21 -40 14 -21 29 -29 50 -29 35 0 36 -6 7 -30 -22 -18 -22 -20 -8 -47 9 -15 27 -34 42 -41 23 -11 25 -15 15 -37 -7 -14 -18 -25 -24 -25 -40 0 15 -76 83 -116 52 -31 70 -27 82 18 l9 33 22 -36 c29 -49 72 -67 106 -45 14 9 25 24 25 32 0 22 -97 114 -120 114 -5 0 -10 5 -10 11 0 7 7 8 18 4 84 -35 166 0 116 49 -18 19 -94 22 -112 4 -21 -21 -25 0 -4 29 43 62 36 103 -19 103 -23 0 -31 -7 -45 -37 -10 -21 -19 -40 -20 -42 -2 -2 -15 11 -29 28 -19 22 -36 31 -56 31 -30 0 -36 9 -18 27 16 16 -3 45 -53 84 -67 51 -67 51 -8 44 89 -10 119 29 55 71 -23 15 -31 16 -62 5 -19 -7 -37 -10 -40 -7 -3 3 5 26 18 51 24 45 24 46 5 61 -29 21 -63 17 -80 -8z m38 -143 c3 -9 -3 -19 -14 -25 -15 -8 -24 -6 -40 10 -27 27 -26 30 14 30 21 0 36 -6 40 -15z m285 -321 c2 -2 1 -10 -2 -19 -7 -17 -34 -20 -56 -6 -23 14 5 43 33 35 12 -4 23 -8 25 -10z" transform="translate(0,78) scale(0.1,-0.1)" stroke="none" fill="#82786C"/>

</g>

<g id="4" transform="translate(296.0,0)scale(1,1)">

<path d="M226 708 c-9 -12 -16 -31 -16 -41 0 -16 -5 -14 -37 13 -30 27 -42 31 -71 26 -20 -3 -45 -15 -56 -26 -19 -19 -20 -23 -6 -47 8 -14 30 -33 47 -42 36 -18 42 -31 15 -31 -24 0 -42 -19 -42 -46 0 -42 119 -131 157 -117 8 3 17 18 20 34 5 28 23 41 23 18 0 -6 9 -24 21 -40 14 -21 29 -29 50 -29 35 0 36 -6 7 -30 -22 -18 -22 -20 -8 -47 9 -15 27 -34 42 -41 23 -11 25 -15 15 -37 -7 -14 -18 -25 -24 -25 -40 0 15 -76 83 -116 52 -31 70 -27 82 18 l9 33 22 -36 c29 -49 72 -67 106 -45 14 9 25 24 25 32 0 22 -97 114 -120 114 -5 0 -10 5 -10 11 0 7 7 8 18 4 84 -35 166 0 116 49 -18 19 -94 22 -112 4 -21 -21 -25 0 -4 29 43 62 36 103 -19 103 -23 0 -31 -7 -45 -37 -10 -21 -19 -40 -20 -42 -2 -2 -15 11 -29 28 -19 22 -36 31 -56 31 -30 0 -36 9 -18 27 16 16 -3 45 -53 84 -67 51 -67 51 -8 44 89 -10 119 29 55 71 -23 15 -31 16 -62 5 -19 -7 -37 -10 -40 -7 -3 3 5 26 18 51 24 45 24 46 5 61 -29 21 -63 17 -80 -8z m38 -143 c3 -9 -3 -19 -14 -25 -15 -8 -24 -6 -40 10 -27 27 -26 30 14 30 21 0 36 -6 40 -15z m285 -321 c2 -2 1 -10 -2 -19 -7 -17 -34 -20 -56 -6 -23 14 5 43 33 35 12 -4 23 -8 25 -10z" transform="translate(0,78) scale(0.1,-0.1)" stroke="none" fill="#82786C"/>

</g>

</g>
<g id="row3" transform="translate(-28,234.0)">
<g id="0" transform="translate(0.0,0)scale(1,1)">

<path d="M226 708 c-9 -12 -16 -31 -16 -41 0 -16 -5 -14 -37 13 -30 27 -42 31 -71 26 -20 -3 -45 -15 -56 -26 -19 -19 -20 -23 -6 -47 8 -14 30 -33 47 -42 36 -18 42 -31 15 -31 -24 0 -42 -19 -42 -46 0 -42 119 -131 157 -117 8 3 17 18 20 34 5 28 23 41 23 18 0 -6 9 -24 21 -40 14 -21 29 -29 50 -29 35 0 36 -6 7 -30 -22 -18 -22 -20 -8 -47 9 -15 27 -34 42 -41 23 -11 25 -15 15 -37 -7 -14 -18 -25 -24 -25 -40 0 15 -76 83 -116 52 -31 70 -27 82 18 l9 33 22 -36 c29 -49 72 -67 106 -45 14 9 25 24 25 32 0 22 -97 114 -120 114 -5 0 -10 5 -10 11 0 7 7 8 18 4 84 -35 166 0 116 49 -18 19 -94 22 -112 4 -21 -21 -25 0 -4 29 43 62 36 103 -19 103 -23 0 -31 -7 -45 -37 -10 -21 -19 -40 -20 -42 -2 -2 -15 11 -29 28 -19 22 -36 31 -56 31 -30 0 -36 9 -18 27 16 16 -3 45 -53 84 -67 51 -67 51 -8 44 89 -10 119 29 55 71 -23 15 -31 16 -62 5 -19 -7 -37 -10 -40 -7 -3 3 5 26 18 51 24 45 24 46 5 61 -29 21 -63 17 -80 -8z m38 -143 c3 -9 -3 -19 -14 -25 -15 -8 -24 -6 -40 10 -27 27 -26 30 14 30 21 0 36 -6 40 -15z m285 -321 c2 -2 1 -10 -2 -19 -7 -17 -34 -20 -56 -6 -23 14 5 43 33 35 12 -4 23 -8 25 -10z" transform="translate(0,78) scale(0.1,-0.1)" stroke="none" fill="#82786C"/>

</g>

<g id="1" transform="translate(74.0,0)scale(1,1)">

<path d="M226 708 c-9 -12 -16 -31 -16 -41 0 -16 -5 -14 -37 13 -30 27 -42 31 -71 26 -20 -3 -45 -15 -56 -26 -19 -19 -20 -23 -6 -47 8 -14 30 -33 47 -42 36 -18 42 -31 15 -31 -24 0 -42 -19 -42 -46 0 -42 119 -131 157 -117 8 3 17 18 20 34 5 28 23 41 23 18 0 -6 9 -24 21 -40 14 -21 29 -29 50 -29 35 0 36 -6 7 -30 -22 -18 -22 -20 -8 -47 9 -15 27 -34 42 -41 23 -11 25 -15 15 -37 -7 -14 -18 -25 -24 -25 -40 0 15 -76 83 -116 52 -31 70 -27 82 18 l9 33 22 -36 c29 -49 72 -67 106 -45 14 9 25 24 25 32 0 22 -97 114 -120 114 -5 0 -10 5 -10 11 0 7 7 8 18 4 84 -35 166 0 116 49 -18 19 -94 22 -112 4 -21 -21 -25 0 -4 29 43 62 36 103 -19 103 -23 0 -31 -7 -45 -37 -10 -21 -19 -40 -20 -42 -2 -2 -15 11 -29 28 -19 22 -36 31 -56 31 -30 0 -36 9 -18 27 16 16 -3 45 -53 84 -67 51 -67 51 -8 44 89 -10 119 29 55 71 -23 15 -31 16 -62 5 -19 -7 -37 -10 -40 -7 -3 3 5 26 18 51 24 45 24 46 5 61 -29 21 -63 17 -80 -8z m38 -143 c3 -9 -3 -19 -14 -25 -15 -8 -24 -6 -40 10 -27 27 -26 30 14 30 21 0 36 -6 40 -15z m285 -321 c2 -2 1 -10 -2 -19 -7 -17 -34 -20 -56 -6 -23 14 5 43 33 35 12 -4 23 -8 25 -10z" transform="translate(0,78) scale(0.1,-0.1)" stroke="none" fill="#82786C"/>

</g>

<g id="2" transform="translate(148.0,0)scale(1,1)">

<path d="M226 708 c-9 -12 -16 -31 -16 -41 0 -16 -5 -14 -37 13 -30 27 -42 31 -71 26 -20 -3 -45 -15 -56 -26 -19 -19 -20 -23 -6 -47 8 -14 30 -33 47 -42 36 -18 42 -31 15 -31 -24 0 -42 -19 -42 -46 0 -42 119 -131 157 -117 8 3 17 18 20 34 5 28 23 41 23 18 0 -6 9 -24 21 -40 14 -21 29 -29 50 -29 35 0 36 -6 7 -30 -22 -18 -22 -20 -8 -47 9 -15 27 -34 42 -41 23 -11 25 -15 15 -37 -7 -14 -18 -25 -24 -25 -40 0 15 -76 83 -116 52 -31 70 -27 82 18 l9 33 22 -36 c29 -49 72 -67 106 -45 14 9 25 24 25 32 0 22 -97 114 -120 114 -5 0 -10 5 -10 11 0 7 7 8 18 4 84 -35 166 0 116 49 -18 19 -94 22 -112 4 -21 -21 -25 0 -4 29 43 62 36 103 -19 103 -23 0 -31 -7 -45 -37 -10 -21 -19 -40 -20 -42 -2 -2 -15 11 -29 28 -19 22 -36 31 -56 31 -30 0 -36 9 -18 27 16 16 -3 45 -53 84 -67 51 -67 51 -8 44 89 -10 119 29 55 71 -23 15 -31 16 -62 5 -19 -7 -37 -10 -40 -7 -3 3 5 26 18 51 24 45 24 46 5 61 -29 21 -63 17 -80 -8z m38 -143 c3 -9 -3 -19 -14 -25 -15 -8 -24 -6 -40 10 -27 27 -26 30 14 30 21 0 36 -6 40 -15z m285 -321 c2 -2 1 -10 -2 -19 -7 -17 -34 -20 -56 -6 -23 14 5 43 33 35 12 -4 23 -8 25 -10z" transform="translate(0,78) scale(0.1,-0.1)" stroke="none" fill="#82786C"/>

</g>

<g id="3" transform="translate(222.0,0)scale(1,1)">

<path d="M226 708 c-9 -12 -16 -31 -16 -41 0 -16 -5 -14 -37 13 -30 27 -42 31 -71 26 -20 -3 -45 -15 -56 -26 -19 -19 -20 -23 -6 -47 8 -14 30 -33 47 -42 36 -18 42 -31 15 -31 -24 0 -42 -19 -42 -46 0 -42 119 -131 157 -117 8 3 17 18 20 34 5 28 23 41 23 18 0 -6 9 -24 21 -40 14 -21 29 -29 50 -29 35 0 36 -6 7 -30 -22 -18 -22 -20 -8 -47 9 -15 27 -34 42 -41 23 -11 25 -15 15 -37 -7 -14 -18 -25 -24 -25 -40 0 15 -76 83 -116 52 -31 70 -27 82 18 l9 33 22 -36 c29 -49 72 -67 106 -45 14 9 25 24 25 32 0 22 -97 114 -120 114 -5 0 -10 5 -10 11 0 7 7 8 18 4 84 -35 166 0 116 49 -18 19 -94 22 -112 4 -21 -21 -25 0 -4 29 43 62 36 103 -19 103 -23 0 -31 -7 -45 -37 -10 -21 -19 -40 -20 -42 -2 -2 -15 11 -29 28 -19 22 -36 31 -56 31 -30 0 -36 9 -18 27 16 16 -3 45 -53 84 -67 51 -67 51 -8 44 89 -10 119 29 55 71 -23 15 -31 16 -62 5 -19 -7 -37 -10 -40 -7 -3 3 5 26 18 51 24 45 24 46 5 61 -29 21 -63 17 -80 -8z m38 -143 c3 -9 -3 -19 -14 -25 -15 -8 -24 -6 -40 10 -27 27 -26 30 14 30 21 0 36 -6 40 -15z m285 -321 c2 -2 1 -10 -2 -19 -7 -17 -34 -20 -56 -6 -23 14 5 43 33 35 12 -4 23 -8 25 -10z" transform="translate(0,78) scale(0.1,-0.1)" stroke="none" fill="#82786C"/>

</g>

<g id="4" transform="translate(296.0,0)scale(1,1)">

<path d="M226 708 c-9 -12 -16 -31 -16 -41 0 -16 -5 -14 -37 13 -30 27 -42 31 -71 26 -20 -3 -45 -15 -56 -26 -19 -19 -20 -23 -6 -47 8 -14 30 -33 47 -42 36 -18 42 -31 15 -31 -24 0 -42 -19 -42 -46 0 -42 119 -131 157 -117 8 3 17 18 20 34 5 28 23 41 23 18 0 -6 9 -24 21 -40 14 -21 29 -29 50 -29 35 0 36 -6 7 -30 -22 -18 -22 -20 -8 -47 9 -15 27 -34 42 -41 23 -11 25 -15 15 -37 -7 -14 -18 -25 -24 -25 -40 0 15 -76 83 -116 52 -31 70 -27 82 18 l9 33 22 -36 c29 -49 72 -67 106 -45 14 9 25 24 25 32 0 22 -97 114 -120 114 -5 0 -10 5 -10 11 0 7 7 8 18 4 84 -35 166 0 116 49 -18 19 -94 22 -112 4 -21 -21 -25 0 -4 29 43 62 36 103 -19 103 -23 0 -31 -7 -45 -37 -10 -21 -19 -40 -20 -42 -2 -2 -15 11 -29 28 -19 22 -36 31 -56 31 -30 0 -36 9 -18 27 16 16 -3 45 -53 84 -67 51 -67 51 -8 44 89 -10 119 29 55 71 -23 15 -31 16 -62 5 -19 -7 -37 -10 -40 -7 -3 3 5 26 18 51 24 45 24 46 5 61 -29 21 -63 17 -80 -8z m38 -143 c3 -9 -3 -19 -14 -25 -15 -8 -24 -6 -40 10 -27 27 -26 30 14 30 21 0 36 -6 40 -15z m285 -321 c2 -2 1 -10 -2 -19 -7 -17 -34 -20 -56 -6 -23 14 5 43 33 35 12 -4 23 -8 25 -10z" transform="translate(0,78) scale(0.1,-0.1)" stroke="none" fill="#82786C"/>

</g>

</g>
</svg>