<?xml version="1.0" standalone="no"?>
<!DOCTYPE svg PUBLIC "-//W3C//DTD SVG 20010904//EN"
 "http://www.w3.org/TR/2001/REC-SVG-20010904/DTD/svg10.dtd">
<svg version="1.0" xmlns="http://www.w3.org/2000/svg" width="368pt" height="376pt" viewBox="0 0 368 376" preserveAspectRatio = "xMidYMid meet" >
<metadata>
Created by ZoeQu, written in 2022
</metadata>
<rect width="368" height="376" fill="#DDDEE6"/>
<g id="row0" transform="translate(12,0.0)">
<g id="0" transform="translate(0.0,0)scale(1,1)">

<path d="M18 919 c-10 -10 -18 -31 -18 -46 0 -25 0 -26 20 -8 20 18 20 17 20 -253 0 -218 3 -272 13 -272 7 0 71 61 143 136 71 75 135 142 142 148 73 61 263 256 258 264 -9 15 -488 15 -497 0 -5 -8 -12 -6 -23 5 -10 10 -12 18 -6 22 18 11 11 25 -12 24 -13 0 -31 -9 -40 -20z" transform="translate(0,94) scale(0.1,-0.1)" stroke="none" fill="#BACF62"/>

<path d="M372 658 c-12 -13 -37 -39 -57 -58 -19 -19 -35 -39 -34 -45 0 -5 3 -4 6 3 2 6 13 12 22 12 16 0 18 -17 19 -217 2 -269 2 -291 9 -275 7 18 21 15 25 -5 3 -13 74 52 258 234 241 240 253 254 235 268 -11 8 -15 15 -7 15 6 0 12 5 12 10 0 6 -88 10 -245 10 -261 0 -263 0 -229 48 20 28 13 28 -14 0z m19 -73 c0 -5 -9 -11 -21 -13 -20 -3 -27 8 -13 22 10 9 34 3 34 -9z" transform="translate(0,94) scale(0.1,-0.1)" stroke="none" fill="#A798B9"/>

</g>

<g id="1" transform="translate(92.0,0)scale(1,1)">

<path d="M18 919 c-10 -10 -18 -31 -18 -46 0 -25 0 -26 20 -8 20 18 20 17 20 -253 0 -218 3 -272 13 -272 7 0 71 61 143 136 71 75 135 142 142 148 73 61 263 256 258 264 -9 15 -488 15 -497 0 -5 -8 -12 -6 -23 5 -10 10 -12 18 -6 22 18 11 11 25 -12 24 -13 0 -31 -9 -40 -20z" transform="translate(0,94) scale(0.1,-0.1)" stroke="none" fill="#BACF62"/>

<path d="M372 658 c-12 -13 -37 -39 -57 -58 -19 -19 -35 -39 -34 -45 0 -5 3 -4 6 3 2 6 13 12 22 12 16 0 18 -17 19 -217 2 -269 2 -291 9 -275 7 18 21 15 25 -5 3 -13 74 52 258 234 241 240 253 254 235 268 -11 8 -15 15 -7 15 6 0 12 5 12 10 0 6 -88 10 -245 10 -261 0 -263 0 -229 48 20 28 13 28 -14 0z m19 -73 c0 -5 -9 -11 -21 -13 -20 -3 -27 8 -13 22 10 9 34 3 34 -9z" transform="translate(0,94) scale(0.1,-0.1)" stroke="none" fill="#A798B9"/>

</g>

<g id="2" transform="translate(184.0,0)scale(1,1)">

<path d="M18 919 c-10 -10 -18 -31 -18 -46 0 -25 0 -26 20 -8 20 18 20 17 20 -253 0 -218 3 -272 13 -272 7 0 71 61 143 136 71 75 135 142 142 148 73 61 263 256 258 264 -9 15 -488 15 -497 0 -5 -8 -12 -6 -23 5 -10 10 -12 18 -6 22 18 11 11 25 -12 24 -13 0 -31 -9 -40 -20z" transform="translate(0,94) scale(0.1,-0.1)" stroke="none" fill="#BACF62"/>

<path d="M372 658 c-12 -13 -37 -39 -57 -58 -19 -19 -35 -39 -34 -45 0 -5 3 -4 6 3 2 6 13 12 22 12 16 0 18 -17 19 -217 2 -269 2 -291 9 -275 7 18 21 15 25 -5 3 -13 74 52 258 234 241 240 253 254 235 268 -11 8 -15 15 -7 15 6 0 12 5 12 10 0 6 -88 10 -245 10 -261 0 -263 0 -229 48 20 28 13 28 -14 0z m19 -73 c0 -5 -9 -11 -21 -13 -20 -3 -27 8 -13 22 10 9 34 3 34 -9z" transform="translate(0,94) scale(0.1,-0.1)" stroke="none" fill="#A798B9"/>

</g>

<g id="3" transform="translate(276.0,0)scale(1,1)">

<path d="M18 919 c-10 -10 -18 -31 -18 -46 0 -25 0 -26 20 -8 20 18 20 17 20 -253 0 -218 3 -272 13 -272 7 0 71 61 143 136 71 75 135 142 142 148 73 61 263 256 258 264 -9 15 -488 15 -497 0 -5 -8 -12 -6 -23 5 -10 10 -12 18 -6 22 18 11 11 25 -12 24 -13 0 -31 -9 -40 -20z" transform="translate(0,94) scale(0.1,-0.1)" stroke="none" fill="#BACF62"/>

<path d="M372 658 c-12 -13 -37 -39 -57 -58 -19 -19 -35 -39 -34 -45 0 -5 3 -4 6 3 2 6 13 12 22 12 16 0 18 -17 19 -217 2 -269 2 -291 9 -275 7 18 21 15 25 -5 3 -13 74 52 258 234 241 240 253 254 235 268 -11 8 -15 15 -7 15 6 0 12 5 12 10 0 6 -88 10 -245 10 -261 0 -263 0 -229 48 20 28 13 28 -14 0z m19 -73 c0 -5 -9 -11 -21 -13 -20 -3 -27 8 -13 22 10 9 34 3 34 -9z" transform="translate(0,94) scale(0.1,-0.1)" stroke="none" fill="#A798B9"/>

</g>

<g id="4" transform="translate(368.0,0)scale(1,1)">

<path d="M18 919 c-10 -10 -18 -31 -18 -46 0 -25 0 -26 20 -8 20 18 20 17 20 -253 0 -218 3 -272 13 -272 7 0 71 61 143 136 71 75 135 142 142 148 73 61 263 256 258 264 -9 15 -488 15 -497 0 -5 -8 -12 -6 -23 5 -10 10 -12 18 -6 22 18 11 11 25 -12 24 -13 0 -31 -9 -40 -20z" transform="translate(0,94) scale(0.1,-0.1)" stroke="none" fill="#BACF62"/>

<path d="M372 658 c-12 -13 -37 -39 -57 -58 -19 -19 -35 -39 -34 -45 0 -5 3 -4 6 3 2 6 13 12 22 12 16 0 18 -17 19 -217 2 -269 2 -291 9 -275 7 18 21 15 25 -5 3 -13 74 52 258 234 241 240 253 254 235 268 -11 8 -15 15 -7 15 6 0 12 5 12 10 0 6 -88 10 -245 10 -261 0 -263 0 -229 48 20 28 13 28 -14 0z m19 -73 c0 -5 -9 -11 -21 -13 -20 -3 -27 8 -13 22 10 9 34 3 34 -9z" transform="translate(0,94) scale(0.1,-0.1)" stroke="none" fill="#A798B9"/>

</g>

</g>
<g id="row1" transform="translate(12,94.0)">
<g id="0" transform="translate(0.0,0)scale(1,1)">

<path d="M18 919 c-10 -10 -18 -31 -18 -46 0 -25 0 -26 20 -8 20 18 20 17 20 -253 0 -218 3 -272 13 -272 7 0 71 61 143 136 71 75 135 142 142 148 73 61 263 256 258 264 -9 15 -488 15 -497 0 -5 -8 -12 -6 -23 5 -10 10 -12 18 -6 22 18 11 11 25 -12 24 -13 0 -31 -9 -40 -20z" transform="translate(0,94) scale(0.1,-0.1)" stroke="none" fill="#BACF62"/>

<path d="M372 658 c-12 -13 -37 -39 -57 -58 -19 -19 -35 -39 -34 -45 0 -5 3 -4 6 3 2 6 13 12 22 12 16 0 18 -17 19 -217 2 -269 2 -291 9 -275 7 18 21 15 25 -5 3 -13 74 52 258 234 241 240 253 254 235 268 -11 8 -15 15 -7 15 6 0 12 5 12 10 0 6 -88 10 -245 10 -261 0 -263 0 -229 48 20 28 13 28 -14 0z m19 -73 c0 -5 -9 -11 -21 -13 -20 -3 -27 8 -13 22 10 9 34 3 34 -9z" transform="translate(0,94) scale(0.1,-0.1)" stroke="none" fill="#A798B9"/>

</g>

<g id="1" transform="translate(92.0,0)scale(1,1)">

<path d="M18 919 c-10 -10 -18 -31 -18 -46 0 -25 0 -26 20 -8 20 18 20 17 20 -253 0 -218 3 -272 13 -272 7 0 71 61 143 136 71 75 135 142 142 148 73 61 263 256 258 264 -9 15 -488 15 -497 0 -5 -8 -12 -6 -23 5 -10 10 -12 18 -6 22 18 11 11 25 -12 24 -13 0 -31 -9 -40 -20z" transform="translate(0,94) scale(0.1,-0.1)" stroke="none" fill="#BACF62"/>

<path d="M372 658 c-12 -13 -37 -39 -57 -58 -19 -19 -35 -39 -34 -45 0 -5 3 -4 6 3 2 6 13 12 22 12 16 0 18 -17 19 -217 2 -269 2 -291 9 -275 7 18 21 15 25 -5 3 -13 74 52 258 234 241 240 253 254 235 268 -11 8 -15 15 -7 15 6 0 12 5 12 10 0 6 -88 10 -245 10 -261 0 -263 0 -229 48 20 28 13 28 -14 0z m19 -73 c0 -5 -9 -11 -21 -13 -20 -3 -27 8 -13 22 10 9 34 3 34 -9z" transform="translate(0,94) scale(0.1,-0.1)" stroke="none" fill="#A798B9"/>

</g>

<g id="2" transform="translate(184.0,0)scale(1,1)">

<path d="M18 919 c-10 -10 -18 -31 -18 -46 0 -25 0 -26 20 -8 20 18 20 17 20 -253 0 -218 3 -272 13 -272 7 0 71 61 143 136 71 75 135 142 142 148 73 61 263 256 258 264 -9 15 -488 15 -497 0 -5 -8 -12 -6 -23 5 -10 10 -12 18 -6 22 18 11 11 25 -12 24 -13 0 -31 -9 -40 -20z" transform="translate(0,94) scale(0.1,-0.1)" stroke="none" fill="#BACF62"/>

<path d="M372 658 c-12 -13 -37 -39 -57 -58 -19 -19 -35 -39 -34 -45 0 -5 3 -4 6 3 2 6 13 12 22 12 16 0 18 -17 19 -217 2 -269 2 -291 9 -275 7 18 21 15 25 -5 3 -13 74 52 258 234 241 240 253 254 235 268 -11 8 -15 15 -7 15 6 0 12 5 12 10 0 6 -88 10 -245 10 -261 0 -263 0 -229 48 20 28 13 28 -14 0z m19 -73 c0 -5 -9 -11 -21 -13 -20 -3 -27 8 -13 22 10 9 34 3 34 -9z" transform="translate(0,94) scale(0.1,-0.1)" stroke="none" fill="#A798B9"/>

</g>

<g id="3" transform="translate(276.0,0)scale(1,1)">

<path d="M18 919 c-10 -10 -18 -31 -18 -46 0 -25 0 -26 20 -8 20 18 20 17 20 -253 0 -218 3 -272 13 -272 7 0 71 61 143 136 71 75 135 142 142 148 73 61 263 256 258 264 -9 15 -488 15 -497 0 -5 -8 -12 -6 -23 5 -10 10 -12 18 -6 22 18 11 11 25 -12 24 -13 0 -31 -9 -40 -20z" transform="translate(0,94) scale(0.1,-0.1)" stroke="none" fill="#BACF62"/>

<path d="M372 658 c-12 -13 -37 -39 -57 -58 -19 -19 -35 -39 -34 -45 0 -5 3 -4 6 3 2 6 13 12 22 12 16 0 18 -17 19 -217 2 -269 2 -291 9 -275 7 18 21 15 25 -5 3 -13 74 52 258 234 241 240 253 254 235 268 -11 8 -15 15 -7 15 6 0 12 5 12 10 0 6 -88 10 -245 10 -261 0 -263 0 -229 48 20 28 13 28 -14 0z m19 -73 c0 -5 -9 -11 -21 -13 -20 -3 -27 8 -13 22 10 9 34 3 34 -9z" transform="translate(0,94) scale(0.1,-0.1)" stroke="none" fill="#A798B9"/>

</g>

<g id="4" transform="translate(368.0,0)scale(1,1)">

<path d="M18 919 c-10 -10 -18 -31 -18 -46 0 -25 0 -26 20 -8 20 18 20 17 20 -253 0 -218 3 -272 13 -272 7 0 71 61 143 136 71 75 135 142 142 148 73 61 263 256 258 264 -9 15 -488 15 -497 0 -5 -8 -12 -6 -23 5 -10 10 -12 18 -6 22 18 11 11 25 -12 24 -13 0 -31 -9 -40 -20z" transform="translate(0,94) scale(0.1,-0.1)" stroke="none" fill="#BACF62"/>

<path d="M372 658 c-12 -13 -37 -39 -57 -58 -19 -19 -35 -39 -34 -45 0 -5 3 -4 6 3 2 6 13 12 22 12 16 0 18 -17 19 -217 2 -269 2 -291 9 -275 7 18 21 15 25 -5 3 -13 74 52 258 234 241 240 253 254 235 268 -11 8 -15 15 -7 15 6 0 12 5 12 10 0 6 -88 10 -245 10 -261 0 -263 0 -229 48 20 28 13 28 -14 0z m19 -73 c0 -5 -9 -11 -21 -13 -20 -3 -27 8 -13 22 10 9 34 3 34 -9z" transform="translate(0,94) scale(0.1,-0.1)" stroke="none" fill="#A798B9"/>

</g>

</g>
<g id="row2" transform="translate(12,188.0)">
<g id="0" transform="translate(0.0,0)scale(1,1)">

<path d="M18 919 c-10 -10 -18 -31 -18 -46 0 -25 0 -26 20 -8 20 18 20 17 20 -253 0 -218 3 -272 13 -272 7 0 71 61 143 136 71 75 135 142 142 148 73 61 263 256 258 264 -9 15 -488 15 -497 0 -5 -8 -12 -6 -23 5 -10 10 -12 18 -6 22 18 11 11 25 -12 24 -13 0 -31 -9 -40 -20z" transform="translate(0,94) scale(0.1,-0.1)" stroke="none" fill="#BACF62"/>

<path d="M372 658 c-12 -13 -37 -39 -57 -58 -19 -19 -35 -39 -34 -45 0 -5 3 -4 6 3 2 6 13 12 22 12 16 0 18 -17 19 -217 2 -269 2 -291 9 -275 7 18 21 15 25 -5 3 -13 74 52 258 234 241 240 253 254 235 268 -11 8 -15 15 -7 15 6 0 12 5 12 10 0 6 -88 10 -245 10 -261 0 -263 0 -229 48 20 28 13 28 -14 0z m19 -73 c0 -5 -9 -11 -21 -13 -20 -3 -27 8 -13 22 10 9 34 3 34 -9z" transform="translate(0,94) scale(0.1,-0.1)" stroke="none" fill="#A798B9"/>

</g>

<g id="1" transform="translate(92.0,0)scale(1,1)">

<path d="M18 919 c-10 -10 -18 -31 -18 -46 0 -25 0 -26 20 -8 20 18 20 17 20 -253 0 -218 3 -272 13 -272 7 0 71 61 143 136 71 75 135 142 142 148 73 61 263 256 258 264 -9 15 -488 15 -497 0 -5 -8 -12 -6 -23 5 -10 10 -12 18 -6 22 18 11 11 25 -12 24 -13 0 -31 -9 -40 -20z" transform="translate(0,94) scale(0.1,-0.1)" stroke="none" fill="#BACF62"/>

<path d="M372 658 c-12 -13 -37 -39 -57 -58 -19 -19 -35 -39 -34 -45 0 -5 3 -4 6 3 2 6 13 12 22 12 16 0 18 -17 19 -217 2 -269 2 -291 9 -275 7 18 21 15 25 -5 3 -13 74 52 258 234 241 240 253 254 235 268 -11 8 -15 15 -7 15 6 0 12 5 12 10 0 6 -88 10 -245 10 -261 0 -263 0 -229 48 20 28 13 28 -14 0z m19 -73 c0 -5 -9 -11 -21 -13 -20 -3 -27 8 -13 22 10 9 34 3 34 -9z" transform="translate(0,94) scale(0.1,-0.1)" stroke="none" fill="#A798B9"/>

</g>

<g id="2" transform="translate(184.0,0)scale(1,1)">

<path d="M18 919 c-10 -10 -18 -31 -18 -46 0 -25 0 -26 20 -8 20 18 20 17 20 -253 0 -218 3 -272 13 -272 7 0 71 61 143 136 71 75 135 142 142 148 73 61 263 256 258 264 -9 15 -488 15 -497 0 -5 -8 -12 -6 -23 5 -10 10 -12 18 -6 22 18 11 11 25 -12 24 -13 0 -31 -9 -40 -20z" transform="translate(0,94) scale(0.1,-0.1)" stroke="none" fill="#BACF62"/>

<path d="M372 658 c-12 -13 -37 -39 -57 -58 -19 -19 -35 -39 -34 -45 0 -5 3 -4 6 3 2 6 13 12 22 12 16 0 18 -17 19 -217 2 -269 2 -291 9 -275 7 18 21 15 25 -5 3 -13 74 52 258 234 241 240 253 254 235 268 -11 8 -15 15 -7 15 6 0 12 5 12 10 0 6 -88 10 -245 10 -261 0 -263 0 -229 48 20 28 13 28 -14 0z m19 -73 c0 -5 -9 -11 -21 -13 -20 -3 -27 8 -13 22 10 9 34 3 34 -9z" transform="translate(0,94) scale(0.1,-0.1)" stroke="none" fill="#A798B9"/>

</g>

<g id="3" transform="translate(276.0,0)scale(1,1)">

<path d="M18 919 c-10 -10 -18 -31 -18 -46 0 -25 0 -26 20 -8 20 18 20 17 20 -253 0 -218 3 -272 13 -272 7 0 71 61 143 136 71 75 135 142 142 148 73 61 263 256 258 264 -9 15 -488 15 -497 0 -5 -8 -12 -6 -23 5 -10 10 -12 18 -6 22 18 11 11 25 -12 24 -13 0 -31 -9 -40 -20z" transform="translate(0,94) scale(0.1,-0.1)" stroke="none" fill="#BACF62"/>

<path d="M372 658 c-12 -13 -37 -39 -57 -58 -19 -19 -35 -39 -34 -45 0 -5 3 -4 6 3 2 6 13 12 22 12 16 0 18 -17 19 -217 2 -269 2 -291 9 -275 7 18 21 15 25 -5 3 -13 74 52 258 234 241 240 253 254 235 268 -11 8 -15 15 -7 15 6 0 12 5 12 10 0 6 -88 10 -245 10 -261 0 -263 0 -229 48 20 28 13 28 -14 0z m19 -73 c0 -5 -9 -11 -21 -13 -20 -3 -27 8 -13 22 10 9 34 3 34 -9z" transform="translate(0,94) scale(0.1,-0.1)" stroke="none" fill="#A798B9"/>

</g>

<g id="4" transform="translate(368.0,0)scale(1,1)">

<path d="M18 919 c-10 -10 -18 -31 -18 -46 0 -25 0 -26 20 -8 20 18 20 17 20 -253 0 -218 3 -272 13 -272 7 0 71 61 143 136 71 75 135 142 142 148 73 61 263 256 258 264 -9 15 -488 15 -497 0 -5 -8 -12 -6 -23 5 -10 10 -12 18 -6 22 18 11 11 25 -12 24 -13 0 -31 -9 -40 -20z" transform="translate(0,94) scale(0.1,-0.1)" stroke="none" fill="#BACF62"/>

<path d="M372 658 c-12 -13 -37 -39 -57 -58 -19 -19 -35 -39 -34 -45 0 -5 3 -4 6 3 2 6 13 12 22 12 16 0 18 -17 19 -217 2 -269 2 -291 9 -275 7 18 21 15 25 -5 3 -13 74 52 258 234 241 240 253 254 235 268 -11 8 -15 15 -7 15 6 0 12 5 12 10 0 6 -88 10 -245 10 -261 0 -263 0 -229 48 20 28 13 28 -14 0z m19 -73 c0 -5 -9 -11 -21 -13 -20 -3 -27 8 -13 22 10 9 34 3 34 -9z" transform="translate(0,94) scale(0.1,-0.1)" stroke="none" fill="#A798B9"/>

</g>

</g>
<g id="row3" transform="translate(12,282.0)">
<g id="0" transform="translate(0.0,0)scale(1,1)">

<path d="M18 919 c-10 -10 -18 -31 -18 -46 0 -25 0 -26 20 -8 20 18 20 17 20 -253 0 -218 3 -272 13 -272 7 0 71 61 143 136 71 75 135 142 142 148 73 61 263 256 258 264 -9 15 -488 15 -497 0 -5 -8 -12 -6 -23 5 -10 10 -12 18 -6 22 18 11 11 25 -12 24 -13 0 -31 -9 -40 -20z" transform="translate(0,94) scale(0.1,-0.1)" stroke="none" fill="#BACF62"/>

<path d="M372 658 c-12 -13 -37 -39 -57 -58 -19 -19 -35 -39 -34 -45 0 -5 3 -4 6 3 2 6 13 12 22 12 16 0 18 -17 19 -217 2 -269 2 -291 9 -275 7 18 21 15 25 -5 3 -13 74 52 258 234 241 240 253 254 235 268 -11 8 -15 15 -7 15 6 0 12 5 12 10 0 6 -88 10 -245 10 -261 0 -263 0 -229 48 20 28 13 28 -14 0z m19 -73 c0 -5 -9 -11 -21 -13 -20 -3 -27 8 -13 22 10 9 34 3 34 -9z" transform="translate(0,94) scale(0.1,-0.1)" stroke="none" fill="#A798B9"/>

</g>

<g id="1" transform="translate(92.0,0)scale(1,1)">

<path d="M18 919 c-10 -10 -18 -31 -18 -46 0 -25 0 -26 20 -8 20 18 20 17 20 -253 0 -218 3 -272 13 -272 7 0 71 61 143 136 71 75 135 142 142 148 73 61 263 256 258 264 -9 15 -488 15 -497 0 -5 -8 -12 -6 -23 5 -10 10 -12 18 -6 22 18 11 11 25 -12 24 -13 0 -31 -9 -40 -20z" transform="translate(0,94) scale(0.1,-0.1)" stroke="none" fill="#BACF62"/>

<path d="M372 658 c-12 -13 -37 -39 -57 -58 -19 -19 -35 -39 -34 -45 0 -5 3 -4 6 3 2 6 13 12 22 12 16 0 18 -17 19 -217 2 -269 2 -291 9 -275 7 18 21 15 25 -5 3 -13 74 52 258 234 241 240 253 254 235 268 -11 8 -15 15 -7 15 6 0 12 5 12 10 0 6 -88 10 -245 10 -261 0 -263 0 -229 48 20 28 13 28 -14 0z m19 -73 c0 -5 -9 -11 -21 -13 -20 -3 -27 8 -13 22 10 9 34 3 34 -9z" transform="translate(0,94) scale(0.1,-0.1)" stroke="none" fill="#A798B9"/>

</g>

<g id="2" transform="translate(184.0,0)scale(1,1)">

<path d="M18 919 c-10 -10 -18 -31 -18 -46 0 -25 0 -26 20 -8 20 18 20 17 20 -253 0 -218 3 -272 13 -272 7 0 71 61 143 136 71 75 135 142 142 148 73 61 263 256 258 264 -9 15 -488 15 -497 0 -5 -8 -12 -6 -23 5 -10 10 -12 18 -6 22 18 11 11 25 -12 24 -13 0 -31 -9 -40 -20z" transform="translate(0,94) scale(0.1,-0.1)" stroke="none" fill="#BACF62"/>

<path d="M372 658 c-12 -13 -37 -39 -57 -58 -19 -19 -35 -39 -34 -45 0 -5 3 -4 6 3 2 6 13 12 22 12 16 0 18 -17 19 -217 2 -269 2 -291 9 -275 7 18 21 15 25 -5 3 -13 74 52 258 234 241 240 253 254 235 268 -11 8 -15 15 -7 15 6 0 12 5 12 10 0 6 -88 10 -245 10 -261 0 -263 0 -229 48 20 28 13 28 -14 0z m19 -73 c0 -5 -9 -11 -21 -13 -20 -3 -27 8 -13 22 10 9 34 3 34 -9z" transform="translate(0,94) scale(0.1,-0.1)" stroke="none" fill="#A798B9"/>

</g>

<g id="3" transform="translate(276.0,0)scale(1,1)">

<path d="M18 919 c-10 -10 -18 -31 -18 -46 0 -25 0 -26 20 -8 20 18 20 17 20 -253 0 -218 3 -272 13 -272 7 0 71 61 143 136 71 75 135 142 142 148 73 61 263 256 258 264 -9 15 -488 15 -497 0 -5 -8 -12 -6 -23 5 -10 10 -12 18 -6 22 18 11 11 25 -12 24 -13 0 -31 -9 -40 -20z" transform="translate(0,94) scale(0.1,-0.1)" stroke="none" fill="#BACF62"/>

<path d="M372 658 c-12 -13 -37 -39 -57 -58 -19 -19 -35 -39 -34 -45 0 -5 3 -4 6 3 2 6 13 12 22 12 16 0 18 -17 19 -217 2 -269 2 -291 9 -275 7 18 21 15 25 -5 3 -13 74 52 258 234 241 240 253 254 235 268 -11 8 -15 15 -7 15 6 0 12 5 12 10 0 6 -88 10 -245 10 -261 0 -263 0 -229 48 20 28 13 28 -14 0z m19 -73 c0 -5 -9 -11 -21 -13 -20 -3 -27 8 -13 22 10 9 34 3 34 -9z" transform="translate(0,94) scale(0.1,-0.1)" stroke="none" fill="#A798B9"/>

</g>

<g id="4" transform="translate(368.0,0)scale(1,1)">

<path d="M18 919 c-10 -10 -18 -31 -18 -46 0 -25 0 -26 20 -8 20 18 20 17 20 -253 0 -218 3 -272 13 -272 7 0 71 61 143 136 71 75 135 142 142 148 73 61 263 256 258 264 -9 15 -488 15 -497 0 -5 -8 -12 -6 -23 5 -10 10 -12 18 -6 22 18 11 11 25 -12 24 -13 0 -31 -9 -40 -20z" transform="translate(0,94) scale(0.1,-0.1)" stroke="none" fill="#BACF62"/>

<path d="M372 658 c-12 -13 -37 -39 -57 -58 -19 -19 -35 -39 -34 -45 0 -5 3 -4 6 3 2 6 13 12 22 12 16 0 18 -17 19 -217 2 -269 2 -291 9 -275 7 18 21 15 25 -5 3 -13 74 52 258 234 241 240 253 254 235 268 -11 8 -15 15 -7 15 6 0 12 5 12 10 0 6 -88 10 -245 10 -261 0 -263 0 -229 48 20 28 13 28 -14 0z m19 -73 c0 -5 -9 -11 -21 -13 -20 -3 -27 8 -13 22 10 9 34 3 34 -9z" transform="translate(0,94) scale(0.1,-0.1)" stroke="none" fill="#A798B9"/>

</g>

</g>
</svg>