<?xml version="1.0" standalone="no"?>
<!DOCTYPE svg PUBLIC "-//W3C//DTD SVG 20010904//EN"
 "http://www.w3.org/TR/2001/REC-SVG-20010904/DTD/svg10.dtd">
<svg version="1.0" xmlns="http://www.w3.org/2000/svg" width="440pt" height="436pt" viewBox="0 0 440 436" preserveAspectRatio = "xMidYMid meet" >
<metadata>
Created by ZoeQu, written in 2022
</metadata>
<rect width="440" height="436" fill="#A36CB7"/>
<g id="col0" transform="translate(0, 14)">
<g id="0" transform="translate(0,0.0)scale(0.8,0.8)">

<path d="M562 123 c4 -78 24 -80 26 -3 1 48 -1 60 -14 60 -12 0 -14 -11 -12 -57z" transform="translate(0,109) scale(0.1,-0.1)" stroke="none" fill="#D6DACA"/>

<path d="M520 725 c-20 -25 -8 -50 25 -50 36 0 47 31 19 52 -23 17 -29 16 -44 -2z" transform="translate(0,109) scale(0.1,-0.1)" stroke="none" fill="#D6DACA"/>

<path d="M683 694 c-8 -22 10 -49 32 -49 22 0 40 27 32 49 -8 21 -56 21 -64 0z" transform="translate(0,109) scale(0.1,-0.1)" stroke="none" fill="#D6DACA"/>

<path d="M773 449 c-13 -5 -23 -15 -23 -23 0 -21 -28 -46 -51 -46 -10 0 -28 9 -38 19 -23 23 -61 17 -61 -9 0 -23 42 -57 80 -65 41 -9 95 19 114 60 27 57 19 80 -21 64z" transform="translate(0,109) scale(0.1,-0.1)" stroke="none" fill="#D6DACA"/>

<path d="M658 1013 c-9 -10 -96 -124 -193 -253 -98 -129 -223 -295 -279 -368 -130 -172 -130 -172 -124 -177 3 -3 76 -12 164 -20 87 -8 183 -19 212 -23 28 -5 52 -6 52 -3 0 10 94 8 101 -2 3 -5 51 -12 105 -17 54 -5 155 -14 223 -21 67 -6 127 -7 131 -2 5 4 -9 51 -31 103 -42 99 -117 282 -149 360 -70 176 -184 440 -190 440 -4 0 -14 -8 -22 -17z m-94 -286 c28 -21 17 -52 -19 -52 -33 0 -45 25 -25 50 15 18 21 19 44 2z m183 -33 c8 -22 -10 -49 -32 -49 -22 0 -40 27 -32 49 8 21 56 21 64 0z m-93 -111 c2 -10 8 -33 11 -51 l7 -34 -59 7 c-32 4 -59 9 -61 10 -5 5 18 47 36 68 8 9 25 17 38 17 13 0 25 -7 28 -17z m156 -150 c0 -60 -73 -121 -130 -108 -38 8 -80 42 -80 65 0 26 38 32 61 9 10 -10 28 -19 38 -19 23 0 51 25 51 46 0 15 39 35 53 27 4 -2 7 -11 7 -20z" transform="translate(0,109) scale(0.1,-0.1)" stroke="none" fill="#F7B83F"/>

</g>

<g id="1" transform="translate(0,109.0)scale(0.8,0.8)">

<path d="M562 123 c4 -78 24 -80 26 -3 1 48 -1 60 -14 60 -12 0 -14 -11 -12 -57z" transform="translate(0,109) scale(0.1,-0.1)" stroke="none" fill="#D6DACA"/>

<path d="M520 725 c-20 -25 -8 -50 25 -50 36 0 47 31 19 52 -23 17 -29 16 -44 -2z" transform="translate(0,109) scale(0.1,-0.1)" stroke="none" fill="#D6DACA"/>

<path d="M683 694 c-8 -22 10 -49 32 -49 22 0 40 27 32 49 -8 21 -56 21 -64 0z" transform="translate(0,109) scale(0.1,-0.1)" stroke="none" fill="#D6DACA"/>

<path d="M773 449 c-13 -5 -23 -15 -23 -23 0 -21 -28 -46 -51 -46 -10 0 -28 9 -38 19 -23 23 -61 17 -61 -9 0 -23 42 -57 80 -65 41 -9 95 19 114 60 27 57 19 80 -21 64z" transform="translate(0,109) scale(0.1,-0.1)" stroke="none" fill="#D6DACA"/>

<path d="M658 1013 c-9 -10 -96 -124 -193 -253 -98 -129 -223 -295 -279 -368 -130 -172 -130 -172 -124 -177 3 -3 76 -12 164 -20 87 -8 183 -19 212 -23 28 -5 52 -6 52 -3 0 10 94 8 101 -2 3 -5 51 -12 105 -17 54 -5 155 -14 223 -21 67 -6 127 -7 131 -2 5 4 -9 51 -31 103 -42 99 -117 282 -149 360 -70 176 -184 440 -190 440 -4 0 -14 -8 -22 -17z m-94 -286 c28 -21 17 -52 -19 -52 -33 0 -45 25 -25 50 15 18 21 19 44 2z m183 -33 c8 -22 -10 -49 -32 -49 -22 0 -40 27 -32 49 8 21 56 21 64 0z m-93 -111 c2 -10 8 -33 11 -51 l7 -34 -59 7 c-32 4 -59 9 -61 10 -5 5 18 47 36 68 8 9 25 17 38 17 13 0 25 -7 28 -17z m156 -150 c0 -60 -73 -121 -130 -108 -38 8 -80 42 -80 65 0 26 38 32 61 9 10 -10 28 -19 38 -19 23 0 51 25 51 46 0 15 39 35 53 27 4 -2 7 -11 7 -20z" transform="translate(0,109) scale(0.1,-0.1)" stroke="none" fill="#F7B83F"/>

</g>

<g id="2" transform="translate(0,218.0)scale(0.8,0.8)">

<path d="M562 123 c4 -78 24 -80 26 -3 1 48 -1 60 -14 60 -12 0 -14 -11 -12 -57z" transform="translate(0,109) scale(0.1,-0.1)" stroke="none" fill="#D6DACA"/>

<path d="M520 725 c-20 -25 -8 -50 25 -50 36 0 47 31 19 52 -23 17 -29 16 -44 -2z" transform="translate(0,109) scale(0.1,-0.1)" stroke="none" fill="#D6DACA"/>

<path d="M683 694 c-8 -22 10 -49 32 -49 22 0 40 27 32 49 -8 21 -56 21 -64 0z" transform="translate(0,109) scale(0.1,-0.1)" stroke="none" fill="#D6DACA"/>

<path d="M773 449 c-13 -5 -23 -15 -23 -23 0 -21 -28 -46 -51 -46 -10 0 -28 9 -38 19 -23 23 -61 17 -61 -9 0 -23 42 -57 80 -65 41 -9 95 19 114 60 27 57 19 80 -21 64z" transform="translate(0,109) scale(0.1,-0.1)" stroke="none" fill="#D6DACA"/>

<path d="M658 1013 c-9 -10 -96 -124 -193 -253 -98 -129 -223 -295 -279 -368 -130 -172 -130 -172 -124 -177 3 -3 76 -12 164 -20 87 -8 183 -19 212 -23 28 -5 52 -6 52 -3 0 10 94 8 101 -2 3 -5 51 -12 105 -17 54 -5 155 -14 223 -21 67 -6 127 -7 131 -2 5 4 -9 51 -31 103 -42 99 -117 282 -149 360 -70 176 -184 440 -190 440 -4 0 -14 -8 -22 -17z m-94 -286 c28 -21 17 -52 -19 -52 -33 0 -45 25 -25 50 15 18 21 19 44 2z m183 -33 c8 -22 -10 -49 -32 -49 -22 0 -40 27 -32 49 8 21 56 21 64 0z m-93 -111 c2 -10 8 -33 11 -51 l7 -34 -59 7 c-32 4 -59 9 -61 10 -5 5 18 47 36 68 8 9 25 17 38 17 13 0 25 -7 28 -17z m156 -150 c0 -60 -73 -121 -130 -108 -38 8 -80 42 -80 65 0 26 38 32 61 9 10 -10 28 -19 38 -19 23 0 51 25 51 46 0 15 39 35 53 27 4 -2 7 -11 7 -20z" transform="translate(0,109) scale(0.1,-0.1)" stroke="none" fill="#F7B83F"/>

</g>

<g id="3" transform="translate(0,327.0)scale(0.8,0.8)">

<path d="M562 123 c4 -78 24 -80 26 -3 1 48 -1 60 -14 60 -12 0 -14 -11 -12 -57z" transform="translate(0,109) scale(0.1,-0.1)" stroke="none" fill="#D6DACA"/>

<path d="M520 725 c-20 -25 -8 -50 25 -50 36 0 47 31 19 52 -23 17 -29 16 -44 -2z" transform="translate(0,109) scale(0.1,-0.1)" stroke="none" fill="#D6DACA"/>

<path d="M683 694 c-8 -22 10 -49 32 -49 22 0 40 27 32 49 -8 21 -56 21 -64 0z" transform="translate(0,109) scale(0.1,-0.1)" stroke="none" fill="#D6DACA"/>

<path d="M773 449 c-13 -5 -23 -15 -23 -23 0 -21 -28 -46 -51 -46 -10 0 -28 9 -38 19 -23 23 -61 17 -61 -9 0 -23 42 -57 80 -65 41 -9 95 19 114 60 27 57 19 80 -21 64z" transform="translate(0,109) scale(0.1,-0.1)" stroke="none" fill="#D6DACA"/>

<path d="M658 1013 c-9 -10 -96 -124 -193 -253 -98 -129 -223 -295 -279 -368 -130 -172 -130 -172 -124 -177 3 -3 76 -12 164 -20 87 -8 183 -19 212 -23 28 -5 52 -6 52 -3 0 10 94 8 101 -2 3 -5 51 -12 105 -17 54 -5 155 -14 223 -21 67 -6 127 -7 131 -2 5 4 -9 51 -31 103 -42 99 -117 282 -149 360 -70 176 -184 440 -190 440 -4 0 -14 -8 -22 -17z m-94 -286 c28 -21 17 -52 -19 -52 -33 0 -45 25 -25 50 15 18 21 19 44 2z m183 -33 c8 -22 -10 -49 -32 -49 -22 0 -40 27 -32 49 8 21 56 21 64 0z m-93 -111 c2 -10 8 -33 11 -51 l7 -34 -59 7 c-32 4 -59 9 -61 10 -5 5 18 47 36 68 8 9 25 17 38 17 13 0 25 -7 28 -17z m156 -150 c0 -60 -73 -121 -130 -108 -38 8 -80 42 -80 65 0 26 38 32 61 9 10 -10 28 -19 38 -19 23 0 51 25 51 46 0 15 39 35 53 27 4 -2 7 -11 7 -20z" transform="translate(0,109) scale(0.1,-0.1)" stroke="none" fill="#F7B83F"/>

</g>

<g id="4" transform="translate(0,436.0)scale(0.8,0.8)">

<path d="M562 123 c4 -78 24 -80 26 -3 1 48 -1 60 -14 60 -12 0 -14 -11 -12 -57z" transform="translate(0,109) scale(0.1,-0.1)" stroke="none" fill="#D6DACA"/>

<path d="M520 725 c-20 -25 -8 -50 25 -50 36 0 47 31 19 52 -23 17 -29 16 -44 -2z" transform="translate(0,109) scale(0.1,-0.1)" stroke="none" fill="#D6DACA"/>

<path d="M683 694 c-8 -22 10 -49 32 -49 22 0 40 27 32 49 -8 21 -56 21 -64 0z" transform="translate(0,109) scale(0.1,-0.1)" stroke="none" fill="#D6DACA"/>

<path d="M773 449 c-13 -5 -23 -15 -23 -23 0 -21 -28 -46 -51 -46 -10 0 -28 9 -38 19 -23 23 -61 17 -61 -9 0 -23 42 -57 80 -65 41 -9 95 19 114 60 27 57 19 80 -21 64z" transform="translate(0,109) scale(0.1,-0.1)" stroke="none" fill="#D6DACA"/>

<path d="M658 1013 c-9 -10 -96 -124 -193 -253 -98 -129 -223 -295 -279 -368 -130 -172 -130 -172 -124 -177 3 -3 76 -12 164 -20 87 -8 183 -19 212 -23 28 -5 52 -6 52 -3 0 10 94 8 101 -2 3 -5 51 -12 105 -17 54 -5 155 -14 223 -21 67 -6 127 -7 131 -2 5 4 -9 51 -31 103 -42 99 -117 282 -149 360 -70 176 -184 440 -190 440 -4 0 -14 -8 -22 -17z m-94 -286 c28 -21 17 -52 -19 -52 -33 0 -45 25 -25 50 15 18 21 19 44 2z m183 -33 c8 -22 -10 -49 -32 -49 -22 0 -40 27 -32 49 8 21 56 21 64 0z m-93 -111 c2 -10 8 -33 11 -51 l7 -34 -59 7 c-32 4 -59 9 -61 10 -5 5 18 47 36 68 8 9 25 17 38 17 13 0 25 -7 28 -17z m156 -150 c0 -60 -73 -121 -130 -108 -38 8 -80 42 -80 65 0 26 38 32 61 9 10 -10 28 -19 38 -19 23 0 51 25 51 46 0 15 39 35 53 27 4 -2 7 -11 7 -20z" transform="translate(0,109) scale(0.1,-0.1)" stroke="none" fill="#F7B83F"/>

</g>

</g>
<g id="col1" transform="translate(110, -40.5)">
<g id="0" transform="translate(0,0.0)scale(0.8,0.8)">

<path d="M562 123 c4 -78 24 -80 26 -3 1 48 -1 60 -14 60 -12 0 -14 -11 -12 -57z" transform="translate(0,109) scale(0.1,-0.1)" stroke="none" fill="#D6DACA"/>

<path d="M520 725 c-20 -25 -8 -50 25 -50 36 0 47 31 19 52 -23 17 -29 16 -44 -2z" transform="translate(0,109) scale(0.1,-0.1)" stroke="none" fill="#D6DACA"/>

<path d="M683 694 c-8 -22 10 -49 32 -49 22 0 40 27 32 49 -8 21 -56 21 -64 0z" transform="translate(0,109) scale(0.1,-0.1)" stroke="none" fill="#D6DACA"/>

<path d="M773 449 c-13 -5 -23 -15 -23 -23 0 -21 -28 -46 -51 -46 -10 0 -28 9 -38 19 -23 23 -61 17 -61 -9 0 -23 42 -57 80 -65 41 -9 95 19 114 60 27 57 19 80 -21 64z" transform="translate(0,109) scale(0.1,-0.1)" stroke="none" fill="#D6DACA"/>

<path d="M658 1013 c-9 -10 -96 -124 -193 -253 -98 -129 -223 -295 -279 -368 -130 -172 -130 -172 -124 -177 3 -3 76 -12 164 -20 87 -8 183 -19 212 -23 28 -5 52 -6 52 -3 0 10 94 8 101 -2 3 -5 51 -12 105 -17 54 -5 155 -14 223 -21 67 -6 127 -7 131 -2 5 4 -9 51 -31 103 -42 99 -117 282 -149 360 -70 176 -184 440 -190 440 -4 0 -14 -8 -22 -17z m-94 -286 c28 -21 17 -52 -19 -52 -33 0 -45 25 -25 50 15 18 21 19 44 2z m183 -33 c8 -22 -10 -49 -32 -49 -22 0 -40 27 -32 49 8 21 56 21 64 0z m-93 -111 c2 -10 8 -33 11 -51 l7 -34 -59 7 c-32 4 -59 9 -61 10 -5 5 18 47 36 68 8 9 25 17 38 17 13 0 25 -7 28 -17z m156 -150 c0 -60 -73 -121 -130 -108 -38 8 -80 42 -80 65 0 26 38 32 61 9 10 -10 28 -19 38 -19 23 0 51 25 51 46 0 15 39 35 53 27 4 -2 7 -11 7 -20z" transform="translate(0,109) scale(0.1,-0.1)" stroke="none" fill="#F7B83F"/>

</g>

<g id="1" transform="translate(0,109.0)scale(0.8,0.8)">

<path d="M562 123 c4 -78 24 -80 26 -3 1 48 -1 60 -14 60 -12 0 -14 -11 -12 -57z" transform="translate(0,109) scale(0.1,-0.1)" stroke="none" fill="#D6DACA"/>

<path d="M520 725 c-20 -25 -8 -50 25 -50 36 0 47 31 19 52 -23 17 -29 16 -44 -2z" transform="translate(0,109) scale(0.1,-0.1)" stroke="none" fill="#D6DACA"/>

<path d="M683 694 c-8 -22 10 -49 32 -49 22 0 40 27 32 49 -8 21 -56 21 -64 0z" transform="translate(0,109) scale(0.1,-0.1)" stroke="none" fill="#D6DACA"/>

<path d="M773 449 c-13 -5 -23 -15 -23 -23 0 -21 -28 -46 -51 -46 -10 0 -28 9 -38 19 -23 23 -61 17 -61 -9 0 -23 42 -57 80 -65 41 -9 95 19 114 60 27 57 19 80 -21 64z" transform="translate(0,109) scale(0.1,-0.1)" stroke="none" fill="#D6DACA"/>

<path d="M658 1013 c-9 -10 -96 -124 -193 -253 -98 -129 -223 -295 -279 -368 -130 -172 -130 -172 -124 -177 3 -3 76 -12 164 -20 87 -8 183 -19 212 -23 28 -5 52 -6 52 -3 0 10 94 8 101 -2 3 -5 51 -12 105 -17 54 -5 155 -14 223 -21 67 -6 127 -7 131 -2 5 4 -9 51 -31 103 -42 99 -117 282 -149 360 -70 176 -184 440 -190 440 -4 0 -14 -8 -22 -17z m-94 -286 c28 -21 17 -52 -19 -52 -33 0 -45 25 -25 50 15 18 21 19 44 2z m183 -33 c8 -22 -10 -49 -32 -49 -22 0 -40 27 -32 49 8 21 56 21 64 0z m-93 -111 c2 -10 8 -33 11 -51 l7 -34 -59 7 c-32 4 -59 9 -61 10 -5 5 18 47 36 68 8 9 25 17 38 17 13 0 25 -7 28 -17z m156 -150 c0 -60 -73 -121 -130 -108 -38 8 -80 42 -80 65 0 26 38 32 61 9 10 -10 28 -19 38 -19 23 0 51 25 51 46 0 15 39 35 53 27 4 -2 7 -11 7 -20z" transform="translate(0,109) scale(0.1,-0.1)" stroke="none" fill="#F7B83F"/>

</g>

<g id="2" transform="translate(0,218.0)scale(0.8,0.8)">

<path d="M562 123 c4 -78 24 -80 26 -3 1 48 -1 60 -14 60 -12 0 -14 -11 -12 -57z" transform="translate(0,109) scale(0.1,-0.1)" stroke="none" fill="#D6DACA"/>

<path d="M520 725 c-20 -25 -8 -50 25 -50 36 0 47 31 19 52 -23 17 -29 16 -44 -2z" transform="translate(0,109) scale(0.1,-0.1)" stroke="none" fill="#D6DACA"/>

<path d="M683 694 c-8 -22 10 -49 32 -49 22 0 40 27 32 49 -8 21 -56 21 -64 0z" transform="translate(0,109) scale(0.1,-0.1)" stroke="none" fill="#D6DACA"/>

<path d="M773 449 c-13 -5 -23 -15 -23 -23 0 -21 -28 -46 -51 -46 -10 0 -28 9 -38 19 -23 23 -61 17 -61 -9 0 -23 42 -57 80 -65 41 -9 95 19 114 60 27 57 19 80 -21 64z" transform="translate(0,109) scale(0.1,-0.1)" stroke="none" fill="#D6DACA"/>

<path d="M658 1013 c-9 -10 -96 -124 -193 -253 -98 -129 -223 -295 -279 -368 -130 -172 -130 -172 -124 -177 3 -3 76 -12 164 -20 87 -8 183 -19 212 -23 28 -5 52 -6 52 -3 0 10 94 8 101 -2 3 -5 51 -12 105 -17 54 -5 155 -14 223 -21 67 -6 127 -7 131 -2 5 4 -9 51 -31 103 -42 99 -117 282 -149 360 -70 176 -184 440 -190 440 -4 0 -14 -8 -22 -17z m-94 -286 c28 -21 17 -52 -19 -52 -33 0 -45 25 -25 50 15 18 21 19 44 2z m183 -33 c8 -22 -10 -49 -32 -49 -22 0 -40 27 -32 49 8 21 56 21 64 0z m-93 -111 c2 -10 8 -33 11 -51 l7 -34 -59 7 c-32 4 -59 9 -61 10 -5 5 18 47 36 68 8 9 25 17 38 17 13 0 25 -7 28 -17z m156 -150 c0 -60 -73 -121 -130 -108 -38 8 -80 42 -80 65 0 26 38 32 61 9 10 -10 28 -19 38 -19 23 0 51 25 51 46 0 15 39 35 53 27 4 -2 7 -11 7 -20z" transform="translate(0,109) scale(0.1,-0.1)" stroke="none" fill="#F7B83F"/>

</g>

<g id="3" transform="translate(0,327.0)scale(0.8,0.8)">

<path d="M562 123 c4 -78 24 -80 26 -3 1 48 -1 60 -14 60 -12 0 -14 -11 -12 -57z" transform="translate(0,109) scale(0.1,-0.1)" stroke="none" fill="#D6DACA"/>

<path d="M520 725 c-20 -25 -8 -50 25 -50 36 0 47 31 19 52 -23 17 -29 16 -44 -2z" transform="translate(0,109) scale(0.1,-0.1)" stroke="none" fill="#D6DACA"/>

<path d="M683 694 c-8 -22 10 -49 32 -49 22 0 40 27 32 49 -8 21 -56 21 -64 0z" transform="translate(0,109) scale(0.1,-0.1)" stroke="none" fill="#D6DACA"/>

<path d="M773 449 c-13 -5 -23 -15 -23 -23 0 -21 -28 -46 -51 -46 -10 0 -28 9 -38 19 -23 23 -61 17 -61 -9 0 -23 42 -57 80 -65 41 -9 95 19 114 60 27 57 19 80 -21 64z" transform="translate(0,109) scale(0.1,-0.1)" stroke="none" fill="#D6DACA"/>

<path d="M658 1013 c-9 -10 -96 -124 -193 -253 -98 -129 -223 -295 -279 -368 -130 -172 -130 -172 -124 -177 3 -3 76 -12 164 -20 87 -8 183 -19 212 -23 28 -5 52 -6 52 -3 0 10 94 8 101 -2 3 -5 51 -12 105 -17 54 -5 155 -14 223 -21 67 -6 127 -7 131 -2 5 4 -9 51 -31 103 -42 99 -117 282 -149 360 -70 176 -184 440 -190 440 -4 0 -14 -8 -22 -17z m-94 -286 c28 -21 17 -52 -19 -52 -33 0 -45 25 -25 50 15 18 21 19 44 2z m183 -33 c8 -22 -10 -49 -32 -49 -22 0 -40 27 -32 49 8 21 56 21 64 0z m-93 -111 c2 -10 8 -33 11 -51 l7 -34 -59 7 c-32 4 -59 9 -61 10 -5 5 18 47 36 68 8 9 25 17 38 17 13 0 25 -7 28 -17z m156 -150 c0 -60 -73 -121 -130 -108 -38 8 -80 42 -80 65 0 26 38 32 61 9 10 -10 28 -19 38 -19 23 0 51 25 51 46 0 15 39 35 53 27 4 -2 7 -11 7 -20z" transform="translate(0,109) scale(0.1,-0.1)" stroke="none" fill="#F7B83F"/>

</g>

<g id="4" transform="translate(0,436.0)scale(0.8,0.8)">

<path d="M562 123 c4 -78 24 -80 26 -3 1 48 -1 60 -14 60 -12 0 -14 -11 -12 -57z" transform="translate(0,109) scale(0.1,-0.1)" stroke="none" fill="#D6DACA"/>

<path d="M520 725 c-20 -25 -8 -50 25 -50 36 0 47 31 19 52 -23 17 -29 16 -44 -2z" transform="translate(0,109) scale(0.1,-0.1)" stroke="none" fill="#D6DACA"/>

<path d="M683 694 c-8 -22 10 -49 32 -49 22 0 40 27 32 49 -8 21 -56 21 -64 0z" transform="translate(0,109) scale(0.1,-0.1)" stroke="none" fill="#D6DACA"/>

<path d="M773 449 c-13 -5 -23 -15 -23 -23 0 -21 -28 -46 -51 -46 -10 0 -28 9 -38 19 -23 23 -61 17 -61 -9 0 -23 42 -57 80 -65 41 -9 95 19 114 60 27 57 19 80 -21 64z" transform="translate(0,109) scale(0.1,-0.1)" stroke="none" fill="#D6DACA"/>

<path d="M658 1013 c-9 -10 -96 -124 -193 -253 -98 -129 -223 -295 -279 -368 -130 -172 -130 -172 -124 -177 3 -3 76 -12 164 -20 87 -8 183 -19 212 -23 28 -5 52 -6 52 -3 0 10 94 8 101 -2 3 -5 51 -12 105 -17 54 -5 155 -14 223 -21 67 -6 127 -7 131 -2 5 4 -9 51 -31 103 -42 99 -117 282 -149 360 -70 176 -184 440 -190 440 -4 0 -14 -8 -22 -17z m-94 -286 c28 -21 17 -52 -19 -52 -33 0 -45 25 -25 50 15 18 21 19 44 2z m183 -33 c8 -22 -10 -49 -32 -49 -22 0 -40 27 -32 49 8 21 56 21 64 0z m-93 -111 c2 -10 8 -33 11 -51 l7 -34 -59 7 c-32 4 -59 9 -61 10 -5 5 18 47 36 68 8 9 25 17 38 17 13 0 25 -7 28 -17z m156 -150 c0 -60 -73 -121 -130 -108 -38 8 -80 42 -80 65 0 26 38 32 61 9 10 -10 28 -19 38 -19 23 0 51 25 51 46 0 15 39 35 53 27 4 -2 7 -11 7 -20z" transform="translate(0,109) scale(0.1,-0.1)" stroke="none" fill="#F7B83F"/>

</g>

</g>
<g id="col2" transform="translate(220, 14)">
<g id="0" transform="translate(0,0.0)scale(0.8,0.8)">

<path d="M562 123 c4 -78 24 -80 26 -3 1 48 -1 60 -14 60 -12 0 -14 -11 -12 -57z" transform="translate(0,109) scale(0.1,-0.1)" stroke="none" fill="#D6DACA"/>

<path d="M520 725 c-20 -25 -8 -50 25 -50 36 0 47 31 19 52 -23 17 -29 16 -44 -2z" transform="translate(0,109) scale(0.1,-0.1)" stroke="none" fill="#D6DACA"/>

<path d="M683 694 c-8 -22 10 -49 32 -49 22 0 40 27 32 49 -8 21 -56 21 -64 0z" transform="translate(0,109) scale(0.1,-0.1)" stroke="none" fill="#D6DACA"/>

<path d="M773 449 c-13 -5 -23 -15 -23 -23 0 -21 -28 -46 -51 -46 -10 0 -28 9 -38 19 -23 23 -61 17 -61 -9 0 -23 42 -57 80 -65 41 -9 95 19 114 60 27 57 19 80 -21 64z" transform="translate(0,109) scale(0.1,-0.1)" stroke="none" fill="#D6DACA"/>

<path d="M658 1013 c-9 -10 -96 -124 -193 -253 -98 -129 -223 -295 -279 -368 -130 -172 -130 -172 -124 -177 3 -3 76 -12 164 -20 87 -8 183 -19 212 -23 28 -5 52 -6 52 -3 0 10 94 8 101 -2 3 -5 51 -12 105 -17 54 -5 155 -14 223 -21 67 -6 127 -7 131 -2 5 4 -9 51 -31 103 -42 99 -117 282 -149 360 -70 176 -184 440 -190 440 -4 0 -14 -8 -22 -17z m-94 -286 c28 -21 17 -52 -19 -52 -33 0 -45 25 -25 50 15 18 21 19 44 2z m183 -33 c8 -22 -10 -49 -32 -49 -22 0 -40 27 -32 49 8 21 56 21 64 0z m-93 -111 c2 -10 8 -33 11 -51 l7 -34 -59 7 c-32 4 -59 9 -61 10 -5 5 18 47 36 68 8 9 25 17 38 17 13 0 25 -7 28 -17z m156 -150 c0 -60 -73 -121 -130 -108 -38 8 -80 42 -80 65 0 26 38 32 61 9 10 -10 28 -19 38 -19 23 0 51 25 51 46 0 15 39 35 53 27 4 -2 7 -11 7 -20z" transform="translate(0,109) scale(0.1,-0.1)" stroke="none" fill="#F7B83F"/>

</g>

<g id="1" transform="translate(0,109.0)scale(0.8,0.8)">

<path d="M562 123 c4 -78 24 -80 26 -3 1 48 -1 60 -14 60 -12 0 -14 -11 -12 -57z" transform="translate(0,109) scale(0.1,-0.1)" stroke="none" fill="#D6DACA"/>

<path d="M520 725 c-20 -25 -8 -50 25 -50 36 0 47 31 19 52 -23 17 -29 16 -44 -2z" transform="translate(0,109) scale(0.1,-0.1)" stroke="none" fill="#D6DACA"/>

<path d="M683 694 c-8 -22 10 -49 32 -49 22 0 40 27 32 49 -8 21 -56 21 -64 0z" transform="translate(0,109) scale(0.1,-0.1)" stroke="none" fill="#D6DACA"/>

<path d="M773 449 c-13 -5 -23 -15 -23 -23 0 -21 -28 -46 -51 -46 -10 0 -28 9 -38 19 -23 23 -61 17 -61 -9 0 -23 42 -57 80 -65 41 -9 95 19 114 60 27 57 19 80 -21 64z" transform="translate(0,109) scale(0.1,-0.1)" stroke="none" fill="#D6DACA"/>

<path d="M658 1013 c-9 -10 -96 -124 -193 -253 -98 -129 -223 -295 -279 -368 -130 -172 -130 -172 -124 -177 3 -3 76 -12 164 -20 87 -8 183 -19 212 -23 28 -5 52 -6 52 -3 0 10 94 8 101 -2 3 -5 51 -12 105 -17 54 -5 155 -14 223 -21 67 -6 127 -7 131 -2 5 4 -9 51 -31 103 -42 99 -117 282 -149 360 -70 176 -184 440 -190 440 -4 0 -14 -8 -22 -17z m-94 -286 c28 -21 17 -52 -19 -52 -33 0 -45 25 -25 50 15 18 21 19 44 2z m183 -33 c8 -22 -10 -49 -32 -49 -22 0 -40 27 -32 49 8 21 56 21 64 0z m-93 -111 c2 -10 8 -33 11 -51 l7 -34 -59 7 c-32 4 -59 9 -61 10 -5 5 18 47 36 68 8 9 25 17 38 17 13 0 25 -7 28 -17z m156 -150 c0 -60 -73 -121 -130 -108 -38 8 -80 42 -80 65 0 26 38 32 61 9 10 -10 28 -19 38 -19 23 0 51 25 51 46 0 15 39 35 53 27 4 -2 7 -11 7 -20z" transform="translate(0,109) scale(0.1,-0.1)" stroke="none" fill="#F7B83F"/>

</g>

<g id="2" transform="translate(0,218.0)scale(0.8,0.8)">

<path d="M562 123 c4 -78 24 -80 26 -3 1 48 -1 60 -14 60 -12 0 -14 -11 -12 -57z" transform="translate(0,109) scale(0.1,-0.1)" stroke="none" fill="#D6DACA"/>

<path d="M520 725 c-20 -25 -8 -50 25 -50 36 0 47 31 19 52 -23 17 -29 16 -44 -2z" transform="translate(0,109) scale(0.1,-0.1)" stroke="none" fill="#D6DACA"/>

<path d="M683 694 c-8 -22 10 -49 32 -49 22 0 40 27 32 49 -8 21 -56 21 -64 0z" transform="translate(0,109) scale(0.1,-0.1)" stroke="none" fill="#D6DACA"/>

<path d="M773 449 c-13 -5 -23 -15 -23 -23 0 -21 -28 -46 -51 -46 -10 0 -28 9 -38 19 -23 23 -61 17 -61 -9 0 -23 42 -57 80 -65 41 -9 95 19 114 60 27 57 19 80 -21 64z" transform="translate(0,109) scale(0.1,-0.1)" stroke="none" fill="#D6DACA"/>

<path d="M658 1013 c-9 -10 -96 -124 -193 -253 -98 -129 -223 -295 -279 -368 -130 -172 -130 -172 -124 -177 3 -3 76 -12 164 -20 87 -8 183 -19 212 -23 28 -5 52 -6 52 -3 0 10 94 8 101 -2 3 -5 51 -12 105 -17 54 -5 155 -14 223 -21 67 -6 127 -7 131 -2 5 4 -9 51 -31 103 -42 99 -117 282 -149 360 -70 176 -184 440 -190 440 -4 0 -14 -8 -22 -17z m-94 -286 c28 -21 17 -52 -19 -52 -33 0 -45 25 -25 50 15 18 21 19 44 2z m183 -33 c8 -22 -10 -49 -32 -49 -22 0 -40 27 -32 49 8 21 56 21 64 0z m-93 -111 c2 -10 8 -33 11 -51 l7 -34 -59 7 c-32 4 -59 9 -61 10 -5 5 18 47 36 68 8 9 25 17 38 17 13 0 25 -7 28 -17z m156 -150 c0 -60 -73 -121 -130 -108 -38 8 -80 42 -80 65 0 26 38 32 61 9 10 -10 28 -19 38 -19 23 0 51 25 51 46 0 15 39 35 53 27 4 -2 7 -11 7 -20z" transform="translate(0,109) scale(0.1,-0.1)" stroke="none" fill="#F7B83F"/>

</g>

<g id="3" transform="translate(0,327.0)scale(0.8,0.8)">

<path d="M562 123 c4 -78 24 -80 26 -3 1 48 -1 60 -14 60 -12 0 -14 -11 -12 -57z" transform="translate(0,109) scale(0.1,-0.1)" stroke="none" fill="#D6DACA"/>

<path d="M520 725 c-20 -25 -8 -50 25 -50 36 0 47 31 19 52 -23 17 -29 16 -44 -2z" transform="translate(0,109) scale(0.1,-0.1)" stroke="none" fill="#D6DACA"/>

<path d="M683 694 c-8 -22 10 -49 32 -49 22 0 40 27 32 49 -8 21 -56 21 -64 0z" transform="translate(0,109) scale(0.1,-0.1)" stroke="none" fill="#D6DACA"/>

<path d="M773 449 c-13 -5 -23 -15 -23 -23 0 -21 -28 -46 -51 -46 -10 0 -28 9 -38 19 -23 23 -61 17 -61 -9 0 -23 42 -57 80 -65 41 -9 95 19 114 60 27 57 19 80 -21 64z" transform="translate(0,109) scale(0.1,-0.1)" stroke="none" fill="#D6DACA"/>

<path d="M658 1013 c-9 -10 -96 -124 -193 -253 -98 -129 -223 -295 -279 -368 -130 -172 -130 -172 -124 -177 3 -3 76 -12 164 -20 87 -8 183 -19 212 -23 28 -5 52 -6 52 -3 0 10 94 8 101 -2 3 -5 51 -12 105 -17 54 -5 155 -14 223 -21 67 -6 127 -7 131 -2 5 4 -9 51 -31 103 -42 99 -117 282 -149 360 -70 176 -184 440 -190 440 -4 0 -14 -8 -22 -17z m-94 -286 c28 -21 17 -52 -19 -52 -33 0 -45 25 -25 50 15 18 21 19 44 2z m183 -33 c8 -22 -10 -49 -32 -49 -22 0 -40 27 -32 49 8 21 56 21 64 0z m-93 -111 c2 -10 8 -33 11 -51 l7 -34 -59 7 c-32 4 -59 9 -61 10 -5 5 18 47 36 68 8 9 25 17 38 17 13 0 25 -7 28 -17z m156 -150 c0 -60 -73 -121 -130 -108 -38 8 -80 42 -80 65 0 26 38 32 61 9 10 -10 28 -19 38 -19 23 0 51 25 51 46 0 15 39 35 53 27 4 -2 7 -11 7 -20z" transform="translate(0,109) scale(0.1,-0.1)" stroke="none" fill="#F7B83F"/>

</g>

<g id="4" transform="translate(0,436.0)scale(0.8,0.8)">

<path d="M562 123 c4 -78 24 -80 26 -3 1 48 -1 60 -14 60 -12 0 -14 -11 -12 -57z" transform="translate(0,109) scale(0.1,-0.1)" stroke="none" fill="#D6DACA"/>

<path d="M520 725 c-20 -25 -8 -50 25 -50 36 0 47 31 19 52 -23 17 -29 16 -44 -2z" transform="translate(0,109) scale(0.1,-0.1)" stroke="none" fill="#D6DACA"/>

<path d="M683 694 c-8 -22 10 -49 32 -49 22 0 40 27 32 49 -8 21 -56 21 -64 0z" transform="translate(0,109) scale(0.1,-0.1)" stroke="none" fill="#D6DACA"/>

<path d="M773 449 c-13 -5 -23 -15 -23 -23 0 -21 -28 -46 -51 -46 -10 0 -28 9 -38 19 -23 23 -61 17 -61 -9 0 -23 42 -57 80 -65 41 -9 95 19 114 60 27 57 19 80 -21 64z" transform="translate(0,109) scale(0.1,-0.1)" stroke="none" fill="#D6DACA"/>

<path d="M658 1013 c-9 -10 -96 -124 -193 -253 -98 -129 -223 -295 -279 -368 -130 -172 -130 -172 -124 -177 3 -3 76 -12 164 -20 87 -8 183 -19 212 -23 28 -5 52 -6 52 -3 0 10 94 8 101 -2 3 -5 51 -12 105 -17 54 -5 155 -14 223 -21 67 -6 127 -7 131 -2 5 4 -9 51 -31 103 -42 99 -117 282 -149 360 -70 176 -184 440 -190 440 -4 0 -14 -8 -22 -17z m-94 -286 c28 -21 17 -52 -19 -52 -33 0 -45 25 -25 50 15 18 21 19 44 2z m183 -33 c8 -22 -10 -49 -32 -49 -22 0 -40 27 -32 49 8 21 56 21 64 0z m-93 -111 c2 -10 8 -33 11 -51 l7 -34 -59 7 c-32 4 -59 9 -61 10 -5 5 18 47 36 68 8 9 25 17 38 17 13 0 25 -7 28 -17z m156 -150 c0 -60 -73 -121 -130 -108 -38 8 -80 42 -80 65 0 26 38 32 61 9 10 -10 28 -19 38 -19 23 0 51 25 51 46 0 15 39 35 53 27 4 -2 7 -11 7 -20z" transform="translate(0,109) scale(0.1,-0.1)" stroke="none" fill="#F7B83F"/>

</g>

</g>
<g id="col3" transform="translate(330, -40.5)">
<g id="0" transform="translate(0,0.0)scale(0.8,0.8)">

<path d="M562 123 c4 -78 24 -80 26 -3 1 48 -1 60 -14 60 -12 0 -14 -11 -12 -57z" transform="translate(0,109) scale(0.1,-0.1)" stroke="none" fill="#D6DACA"/>

<path d="M520 725 c-20 -25 -8 -50 25 -50 36 0 47 31 19 52 -23 17 -29 16 -44 -2z" transform="translate(0,109) scale(0.1,-0.1)" stroke="none" fill="#D6DACA"/>

<path d="M683 694 c-8 -22 10 -49 32 -49 22 0 40 27 32 49 -8 21 -56 21 -64 0z" transform="translate(0,109) scale(0.1,-0.1)" stroke="none" fill="#D6DACA"/>

<path d="M773 449 c-13 -5 -23 -15 -23 -23 0 -21 -28 -46 -51 -46 -10 0 -28 9 -38 19 -23 23 -61 17 -61 -9 0 -23 42 -57 80 -65 41 -9 95 19 114 60 27 57 19 80 -21 64z" transform="translate(0,109) scale(0.1,-0.1)" stroke="none" fill="#D6DACA"/>

<path d="M658 1013 c-9 -10 -96 -124 -193 -253 -98 -129 -223 -295 -279 -368 -130 -172 -130 -172 -124 -177 3 -3 76 -12 164 -20 87 -8 183 -19 212 -23 28 -5 52 -6 52 -3 0 10 94 8 101 -2 3 -5 51 -12 105 -17 54 -5 155 -14 223 -21 67 -6 127 -7 131 -2 5 4 -9 51 -31 103 -42 99 -117 282 -149 360 -70 176 -184 440 -190 440 -4 0 -14 -8 -22 -17z m-94 -286 c28 -21 17 -52 -19 -52 -33 0 -45 25 -25 50 15 18 21 19 44 2z m183 -33 c8 -22 -10 -49 -32 -49 -22 0 -40 27 -32 49 8 21 56 21 64 0z m-93 -111 c2 -10 8 -33 11 -51 l7 -34 -59 7 c-32 4 -59 9 -61 10 -5 5 18 47 36 68 8 9 25 17 38 17 13 0 25 -7 28 -17z m156 -150 c0 -60 -73 -121 -130 -108 -38 8 -80 42 -80 65 0 26 38 32 61 9 10 -10 28 -19 38 -19 23 0 51 25 51 46 0 15 39 35 53 27 4 -2 7 -11 7 -20z" transform="translate(0,109) scale(0.1,-0.1)" stroke="none" fill="#F7B83F"/>

</g>

<g id="1" transform="translate(0,109.0)scale(0.8,0.8)">

<path d="M562 123 c4 -78 24 -80 26 -3 1 48 -1 60 -14 60 -12 0 -14 -11 -12 -57z" transform="translate(0,109) scale(0.1,-0.1)" stroke="none" fill="#D6DACA"/>

<path d="M520 725 c-20 -25 -8 -50 25 -50 36 0 47 31 19 52 -23 17 -29 16 -44 -2z" transform="translate(0,109) scale(0.1,-0.1)" stroke="none" fill="#D6DACA"/>

<path d="M683 694 c-8 -22 10 -49 32 -49 22 0 40 27 32 49 -8 21 -56 21 -64 0z" transform="translate(0,109) scale(0.1,-0.1)" stroke="none" fill="#D6DACA"/>

<path d="M773 449 c-13 -5 -23 -15 -23 -23 0 -21 -28 -46 -51 -46 -10 0 -28 9 -38 19 -23 23 -61 17 -61 -9 0 -23 42 -57 80 -65 41 -9 95 19 114 60 27 57 19 80 -21 64z" transform="translate(0,109) scale(0.1,-0.1)" stroke="none" fill="#D6DACA"/>

<path d="M658 1013 c-9 -10 -96 -124 -193 -253 -98 -129 -223 -295 -279 -368 -130 -172 -130 -172 -124 -177 3 -3 76 -12 164 -20 87 -8 183 -19 212 -23 28 -5 52 -6 52 -3 0 10 94 8 101 -2 3 -5 51 -12 105 -17 54 -5 155 -14 223 -21 67 -6 127 -7 131 -2 5 4 -9 51 -31 103 -42 99 -117 282 -149 360 -70 176 -184 440 -190 440 -4 0 -14 -8 -22 -17z m-94 -286 c28 -21 17 -52 -19 -52 -33 0 -45 25 -25 50 15 18 21 19 44 2z m183 -33 c8 -22 -10 -49 -32 -49 -22 0 -40 27 -32 49 8 21 56 21 64 0z m-93 -111 c2 -10 8 -33 11 -51 l7 -34 -59 7 c-32 4 -59 9 -61 10 -5 5 18 47 36 68 8 9 25 17 38 17 13 0 25 -7 28 -17z m156 -150 c0 -60 -73 -121 -130 -108 -38 8 -80 42 -80 65 0 26 38 32 61 9 10 -10 28 -19 38 -19 23 0 51 25 51 46 0 15 39 35 53 27 4 -2 7 -11 7 -20z" transform="translate(0,109) scale(0.1,-0.1)" stroke="none" fill="#F7B83F"/>

</g>

<g id="2" transform="translate(0,218.0)scale(0.8,0.8)">

<path d="M562 123 c4 -78 24 -80 26 -3 1 48 -1 60 -14 60 -12 0 -14 -11 -12 -57z" transform="translate(0,109) scale(0.1,-0.1)" stroke="none" fill="#D6DACA"/>

<path d="M520 725 c-20 -25 -8 -50 25 -50 36 0 47 31 19 52 -23 17 -29 16 -44 -2z" transform="translate(0,109) scale(0.1,-0.1)" stroke="none" fill="#D6DACA"/>

<path d="M683 694 c-8 -22 10 -49 32 -49 22 0 40 27 32 49 -8 21 -56 21 -64 0z" transform="translate(0,109) scale(0.1,-0.1)" stroke="none" fill="#D6DACA"/>

<path d="M773 449 c-13 -5 -23 -15 -23 -23 0 -21 -28 -46 -51 -46 -10 0 -28 9 -38 19 -23 23 -61 17 -61 -9 0 -23 42 -57 80 -65 41 -9 95 19 114 60 27 57 19 80 -21 64z" transform="translate(0,109) scale(0.1,-0.1)" stroke="none" fill="#D6DACA"/>

<path d="M658 1013 c-9 -10 -96 -124 -193 -253 -98 -129 -223 -295 -279 -368 -130 -172 -130 -172 -124 -177 3 -3 76 -12 164 -20 87 -8 183 -19 212 -23 28 -5 52 -6 52 -3 0 10 94 8 101 -2 3 -5 51 -12 105 -17 54 -5 155 -14 223 -21 67 -6 127 -7 131 -2 5 4 -9 51 -31 103 -42 99 -117 282 -149 360 -70 176 -184 440 -190 440 -4 0 -14 -8 -22 -17z m-94 -286 c28 -21 17 -52 -19 -52 -33 0 -45 25 -25 50 15 18 21 19 44 2z m183 -33 c8 -22 -10 -49 -32 -49 -22 0 -40 27 -32 49 8 21 56 21 64 0z m-93 -111 c2 -10 8 -33 11 -51 l7 -34 -59 7 c-32 4 -59 9 -61 10 -5 5 18 47 36 68 8 9 25 17 38 17 13 0 25 -7 28 -17z m156 -150 c0 -60 -73 -121 -130 -108 -38 8 -80 42 -80 65 0 26 38 32 61 9 10 -10 28 -19 38 -19 23 0 51 25 51 46 0 15 39 35 53 27 4 -2 7 -11 7 -20z" transform="translate(0,109) scale(0.1,-0.1)" stroke="none" fill="#F7B83F"/>

</g>

<g id="3" transform="translate(0,327.0)scale(0.8,0.8)">

<path d="M562 123 c4 -78 24 -80 26 -3 1 48 -1 60 -14 60 -12 0 -14 -11 -12 -57z" transform="translate(0,109) scale(0.1,-0.1)" stroke="none" fill="#D6DACA"/>

<path d="M520 725 c-20 -25 -8 -50 25 -50 36 0 47 31 19 52 -23 17 -29 16 -44 -2z" transform="translate(0,109) scale(0.1,-0.1)" stroke="none" fill="#D6DACA"/>

<path d="M683 694 c-8 -22 10 -49 32 -49 22 0 40 27 32 49 -8 21 -56 21 -64 0z" transform="translate(0,109) scale(0.1,-0.1)" stroke="none" fill="#D6DACA"/>

<path d="M773 449 c-13 -5 -23 -15 -23 -23 0 -21 -28 -46 -51 -46 -10 0 -28 9 -38 19 -23 23 -61 17 -61 -9 0 -23 42 -57 80 -65 41 -9 95 19 114 60 27 57 19 80 -21 64z" transform="translate(0,109) scale(0.1,-0.1)" stroke="none" fill="#D6DACA"/>

<path d="M658 1013 c-9 -10 -96 -124 -193 -253 -98 -129 -223 -295 -279 -368 -130 -172 -130 -172 -124 -177 3 -3 76 -12 164 -20 87 -8 183 -19 212 -23 28 -5 52 -6 52 -3 0 10 94 8 101 -2 3 -5 51 -12 105 -17 54 -5 155 -14 223 -21 67 -6 127 -7 131 -2 5 4 -9 51 -31 103 -42 99 -117 282 -149 360 -70 176 -184 440 -190 440 -4 0 -14 -8 -22 -17z m-94 -286 c28 -21 17 -52 -19 -52 -33 0 -45 25 -25 50 15 18 21 19 44 2z m183 -33 c8 -22 -10 -49 -32 -49 -22 0 -40 27 -32 49 8 21 56 21 64 0z m-93 -111 c2 -10 8 -33 11 -51 l7 -34 -59 7 c-32 4 -59 9 -61 10 -5 5 18 47 36 68 8 9 25 17 38 17 13 0 25 -7 28 -17z m156 -150 c0 -60 -73 -121 -130 -108 -38 8 -80 42 -80 65 0 26 38 32 61 9 10 -10 28 -19 38 -19 23 0 51 25 51 46 0 15 39 35 53 27 4 -2 7 -11 7 -20z" transform="translate(0,109) scale(0.1,-0.1)" stroke="none" fill="#F7B83F"/>

</g>

<g id="4" transform="translate(0,436.0)scale(0.8,0.8)">

<path d="M562 123 c4 -78 24 -80 26 -3 1 48 -1 60 -14 60 -12 0 -14 -11 -12 -57z" transform="translate(0,109) scale(0.1,-0.1)" stroke="none" fill="#D6DACA"/>

<path d="M520 725 c-20 -25 -8 -50 25 -50 36 0 47 31 19 52 -23 17 -29 16 -44 -2z" transform="translate(0,109) scale(0.1,-0.1)" stroke="none" fill="#D6DACA"/>

<path d="M683 694 c-8 -22 10 -49 32 -49 22 0 40 27 32 49 -8 21 -56 21 -64 0z" transform="translate(0,109) scale(0.1,-0.1)" stroke="none" fill="#D6DACA"/>

<path d="M773 449 c-13 -5 -23 -15 -23 -23 0 -21 -28 -46 -51 -46 -10 0 -28 9 -38 19 -23 23 -61 17 -61 -9 0 -23 42 -57 80 -65 41 -9 95 19 114 60 27 57 19 80 -21 64z" transform="translate(0,109) scale(0.1,-0.1)" stroke="none" fill="#D6DACA"/>

<path d="M658 1013 c-9 -10 -96 -124 -193 -253 -98 -129 -223 -295 -279 -368 -130 -172 -130 -172 -124 -177 3 -3 76 -12 164 -20 87 -8 183 -19 212 -23 28 -5 52 -6 52 -3 0 10 94 8 101 -2 3 -5 51 -12 105 -17 54 -5 155 -14 223 -21 67 -6 127 -7 131 -2 5 4 -9 51 -31 103 -42 99 -117 282 -149 360 -70 176 -184 440 -190 440 -4 0 -14 -8 -22 -17z m-94 -286 c28 -21 17 -52 -19 -52 -33 0 -45 25 -25 50 15 18 21 19 44 2z m183 -33 c8 -22 -10 -49 -32 -49 -22 0 -40 27 -32 49 8 21 56 21 64 0z m-93 -111 c2 -10 8 -33 11 -51 l7 -34 -59 7 c-32 4 -59 9 -61 10 -5 5 18 47 36 68 8 9 25 17 38 17 13 0 25 -7 28 -17z m156 -150 c0 -60 -73 -121 -130 -108 -38 8 -80 42 -80 65 0 26 38 32 61 9 10 -10 28 -19 38 -19 23 0 51 25 51 46 0 15 39 35 53 27 4 -2 7 -11 7 -20z" transform="translate(0,109) scale(0.1,-0.1)" stroke="none" fill="#F7B83F"/>

</g>

</g>
</svg>