<?xml version="1.0" standalone="no"?>
<!DOCTYPE svg PUBLIC "-//W3C//DTD SVG 20010904//EN"
 "http://www.w3.org/TR/2001/REC-SVG-20010904/DTD/svg10.dtd">
<svg version="1.0" xmlns="http://www.w3.org/2000/svg" width="236pt" height="600pt" viewBox="0 0 236 600" preserveAspectRatio = "xMidYMid meet" >
<metadata>
Created by ZoeQu, written in 2022
</metadata>
<rect width="236" height="600" fill="#324144"/>
<g id="row0" transform="translate(7,0.0)">
<g id="0" transform="translate(0.0,0)scale(1,1)">

<path d="M511 1403 c-7 -16 -30 -41 -51 -56 -22 -16 -40 -33 -40 -38 0 -5 -4 -9 -9 -9 -29 0 -171 -81 -185 -105 -6 -10 -24 -30 -41 -44 -16 -14 -36 -34 -44 -43 -9 -10 -20 -18 -26 -18 -13 0 -48 -86 -40 -100 3 -5 2 -10 -3 -10 -20 0 -34 -80 -19 -112 6 -13 3 -18 -9 -18 -10 0 -15 -3 -11 -6 3 -3 2 -16 -3 -28 -4 -13 -4 -29 2 -40 6 -11 6 -21 -1 -30 -6 -7 -9 -15 -6 -17 2 -3 5 -24 6 -48 2 -24 8 -45 14 -47 5 -2 10 -19 9 -37 -1 -20 8 -44 24 -64 13 -18 21 -33 17 -33 -4 0 0 -11 9 -25 18 -27 21 -49 6 -40 -5 3 -10 2 -10 -3 0 -5 12 -9 26 -9 26 0 46 -17 77 -65 10 -16 22 -28 27 -28 5 0 21 -12 37 -26 18 -17 35 -24 50 -21 15 3 23 -1 23 -9 0 -8 9 -19 20 -26 11 -7 20 -19 20 -27 0 -8 7 -11 20 -8 11 3 20 1 20 -4 0 -16 45 -56 58 -51 7 2 12 -6 12 -20 0 -27 27 -71 40 -63 4 3 11 28 15 55 7 54 -11 100 -39 100 -8 0 -28 14 -46 30 -25 24 -36 28 -46 19 -11 -9 -14 -8 -14 5 0 9 -4 16 -8 16 -5 0 -14 11 -20 25 -10 21 -16 24 -30 16 -14 -8 -22 -3 -41 24 -12 18 -33 36 -46 39 -13 3 -27 16 -30 29 -4 12 -18 32 -33 44 -18 15 -26 32 -26 57 -1 27 -7 38 -25 46 -18 8 -21 14 -13 22 20 20 14 57 -13 74 -28 18 -31 27 -12 46 22 22 29 51 15 59 -10 6 -7 18 10 53 21 45 21 46 2 56 -30 16 -25 25 20 39 45 13 51 32 18 49 -13 6 -17 11 -10 11 6 1 12 8 12 16 0 9 16 23 35 32 21 10 31 20 24 24 -16 10 -1 49 19 49 21 1 52 23 52 39 0 6 4 11 9 11 5 0 11 8 13 18 3 10 23 22 51 31 26 7 45 16 44 20 -3 12 35 60 54 66 11 4 17 11 13 16 -3 6 4 7 19 4 14 -4 27 -3 30 2 12 19 15 63 5 63 -6 0 -8 11 -6 25 7 33 -7 32 -21 -2z" transform="translate(0,150) scale(0.1,-0.1)" stroke="none" fill="#617376"/>

</g>

<g id="1" transform="translate(59.0,0)scale(1,1)">

<path d="M511 1403 c-7 -16 -30 -41 -51 -56 -22 -16 -40 -33 -40 -38 0 -5 -4 -9 -9 -9 -29 0 -171 -81 -185 -105 -6 -10 -24 -30 -41 -44 -16 -14 -36 -34 -44 -43 -9 -10 -20 -18 -26 -18 -13 0 -48 -86 -40 -100 3 -5 2 -10 -3 -10 -20 0 -34 -80 -19 -112 6 -13 3 -18 -9 -18 -10 0 -15 -3 -11 -6 3 -3 2 -16 -3 -28 -4 -13 -4 -29 2 -40 6 -11 6 -21 -1 -30 -6 -7 -9 -15 -6 -17 2 -3 5 -24 6 -48 2 -24 8 -45 14 -47 5 -2 10 -19 9 -37 -1 -20 8 -44 24 -64 13 -18 21 -33 17 -33 -4 0 0 -11 9 -25 18 -27 21 -49 6 -40 -5 3 -10 2 -10 -3 0 -5 12 -9 26 -9 26 0 46 -17 77 -65 10 -16 22 -28 27 -28 5 0 21 -12 37 -26 18 -17 35 -24 50 -21 15 3 23 -1 23 -9 0 -8 9 -19 20 -26 11 -7 20 -19 20 -27 0 -8 7 -11 20 -8 11 3 20 1 20 -4 0 -16 45 -56 58 -51 7 2 12 -6 12 -20 0 -27 27 -71 40 -63 4 3 11 28 15 55 7 54 -11 100 -39 100 -8 0 -28 14 -46 30 -25 24 -36 28 -46 19 -11 -9 -14 -8 -14 5 0 9 -4 16 -8 16 -5 0 -14 11 -20 25 -10 21 -16 24 -30 16 -14 -8 -22 -3 -41 24 -12 18 -33 36 -46 39 -13 3 -27 16 -30 29 -4 12 -18 32 -33 44 -18 15 -26 32 -26 57 -1 27 -7 38 -25 46 -18 8 -21 14 -13 22 20 20 14 57 -13 74 -28 18 -31 27 -12 46 22 22 29 51 15 59 -10 6 -7 18 10 53 21 45 21 46 2 56 -30 16 -25 25 20 39 45 13 51 32 18 49 -13 6 -17 11 -10 11 6 1 12 8 12 16 0 9 16 23 35 32 21 10 31 20 24 24 -16 10 -1 49 19 49 21 1 52 23 52 39 0 6 4 11 9 11 5 0 11 8 13 18 3 10 23 22 51 31 26 7 45 16 44 20 -3 12 35 60 54 66 11 4 17 11 13 16 -3 6 4 7 19 4 14 -4 27 -3 30 2 12 19 15 63 5 63 -6 0 -8 11 -6 25 7 33 -7 32 -21 -2z" transform="translate(0,150) scale(0.1,-0.1)" stroke="none" fill="#617376"/>

</g>

<g id="2" transform="translate(118.0,0)scale(1,1)">

<path d="M511 1403 c-7 -16 -30 -41 -51 -56 -22 -16 -40 -33 -40 -38 0 -5 -4 -9 -9 -9 -29 0 -171 -81 -185 -105 -6 -10 -24 -30 -41 -44 -16 -14 -36 -34 -44 -43 -9 -10 -20 -18 -26 -18 -13 0 -48 -86 -40 -100 3 -5 2 -10 -3 -10 -20 0 -34 -80 -19 -112 6 -13 3 -18 -9 -18 -10 0 -15 -3 -11 -6 3 -3 2 -16 -3 -28 -4 -13 -4 -29 2 -40 6 -11 6 -21 -1 -30 -6 -7 -9 -15 -6 -17 2 -3 5 -24 6 -48 2 -24 8 -45 14 -47 5 -2 10 -19 9 -37 -1 -20 8 -44 24 -64 13 -18 21 -33 17 -33 -4 0 0 -11 9 -25 18 -27 21 -49 6 -40 -5 3 -10 2 -10 -3 0 -5 12 -9 26 -9 26 0 46 -17 77 -65 10 -16 22 -28 27 -28 5 0 21 -12 37 -26 18 -17 35 -24 50 -21 15 3 23 -1 23 -9 0 -8 9 -19 20 -26 11 -7 20 -19 20 -27 0 -8 7 -11 20 -8 11 3 20 1 20 -4 0 -16 45 -56 58 -51 7 2 12 -6 12 -20 0 -27 27 -71 40 -63 4 3 11 28 15 55 7 54 -11 100 -39 100 -8 0 -28 14 -46 30 -25 24 -36 28 -46 19 -11 -9 -14 -8 -14 5 0 9 -4 16 -8 16 -5 0 -14 11 -20 25 -10 21 -16 24 -30 16 -14 -8 -22 -3 -41 24 -12 18 -33 36 -46 39 -13 3 -27 16 -30 29 -4 12 -18 32 -33 44 -18 15 -26 32 -26 57 -1 27 -7 38 -25 46 -18 8 -21 14 -13 22 20 20 14 57 -13 74 -28 18 -31 27 -12 46 22 22 29 51 15 59 -10 6 -7 18 10 53 21 45 21 46 2 56 -30 16 -25 25 20 39 45 13 51 32 18 49 -13 6 -17 11 -10 11 6 1 12 8 12 16 0 9 16 23 35 32 21 10 31 20 24 24 -16 10 -1 49 19 49 21 1 52 23 52 39 0 6 4 11 9 11 5 0 11 8 13 18 3 10 23 22 51 31 26 7 45 16 44 20 -3 12 35 60 54 66 11 4 17 11 13 16 -3 6 4 7 19 4 14 -4 27 -3 30 2 12 19 15 63 5 63 -6 0 -8 11 -6 25 7 33 -7 32 -21 -2z" transform="translate(0,150) scale(0.1,-0.1)" stroke="none" fill="#617376"/>

</g>

<g id="3" transform="translate(177.0,0)scale(1,1)">

<path d="M511 1403 c-7 -16 -30 -41 -51 -56 -22 -16 -40 -33 -40 -38 0 -5 -4 -9 -9 -9 -29 0 -171 -81 -185 -105 -6 -10 -24 -30 -41 -44 -16 -14 -36 -34 -44 -43 -9 -10 -20 -18 -26 -18 -13 0 -48 -86 -40 -100 3 -5 2 -10 -3 -10 -20 0 -34 -80 -19 -112 6 -13 3 -18 -9 -18 -10 0 -15 -3 -11 -6 3 -3 2 -16 -3 -28 -4 -13 -4 -29 2 -40 6 -11 6 -21 -1 -30 -6 -7 -9 -15 -6 -17 2 -3 5 -24 6 -48 2 -24 8 -45 14 -47 5 -2 10 -19 9 -37 -1 -20 8 -44 24 -64 13 -18 21 -33 17 -33 -4 0 0 -11 9 -25 18 -27 21 -49 6 -40 -5 3 -10 2 -10 -3 0 -5 12 -9 26 -9 26 0 46 -17 77 -65 10 -16 22 -28 27 -28 5 0 21 -12 37 -26 18 -17 35 -24 50 -21 15 3 23 -1 23 -9 0 -8 9 -19 20 -26 11 -7 20 -19 20 -27 0 -8 7 -11 20 -8 11 3 20 1 20 -4 0 -16 45 -56 58 -51 7 2 12 -6 12 -20 0 -27 27 -71 40 -63 4 3 11 28 15 55 7 54 -11 100 -39 100 -8 0 -28 14 -46 30 -25 24 -36 28 -46 19 -11 -9 -14 -8 -14 5 0 9 -4 16 -8 16 -5 0 -14 11 -20 25 -10 21 -16 24 -30 16 -14 -8 -22 -3 -41 24 -12 18 -33 36 -46 39 -13 3 -27 16 -30 29 -4 12 -18 32 -33 44 -18 15 -26 32 -26 57 -1 27 -7 38 -25 46 -18 8 -21 14 -13 22 20 20 14 57 -13 74 -28 18 -31 27 -12 46 22 22 29 51 15 59 -10 6 -7 18 10 53 21 45 21 46 2 56 -30 16 -25 25 20 39 45 13 51 32 18 49 -13 6 -17 11 -10 11 6 1 12 8 12 16 0 9 16 23 35 32 21 10 31 20 24 24 -16 10 -1 49 19 49 21 1 52 23 52 39 0 6 4 11 9 11 5 0 11 8 13 18 3 10 23 22 51 31 26 7 45 16 44 20 -3 12 35 60 54 66 11 4 17 11 13 16 -3 6 4 7 19 4 14 -4 27 -3 30 2 12 19 15 63 5 63 -6 0 -8 11 -6 25 7 33 -7 32 -21 -2z" transform="translate(0,150) scale(0.1,-0.1)" stroke="none" fill="#617376"/>

</g>

<g id="4" transform="translate(236.0,0)scale(1,1)">

<path d="M511 1403 c-7 -16 -30 -41 -51 -56 -22 -16 -40 -33 -40 -38 0 -5 -4 -9 -9 -9 -29 0 -171 -81 -185 -105 -6 -10 -24 -30 -41 -44 -16 -14 -36 -34 -44 -43 -9 -10 -20 -18 -26 -18 -13 0 -48 -86 -40 -100 3 -5 2 -10 -3 -10 -20 0 -34 -80 -19 -112 6 -13 3 -18 -9 -18 -10 0 -15 -3 -11 -6 3 -3 2 -16 -3 -28 -4 -13 -4 -29 2 -40 6 -11 6 -21 -1 -30 -6 -7 -9 -15 -6 -17 2 -3 5 -24 6 -48 2 -24 8 -45 14 -47 5 -2 10 -19 9 -37 -1 -20 8 -44 24 -64 13 -18 21 -33 17 -33 -4 0 0 -11 9 -25 18 -27 21 -49 6 -40 -5 3 -10 2 -10 -3 0 -5 12 -9 26 -9 26 0 46 -17 77 -65 10 -16 22 -28 27 -28 5 0 21 -12 37 -26 18 -17 35 -24 50 -21 15 3 23 -1 23 -9 0 -8 9 -19 20 -26 11 -7 20 -19 20 -27 0 -8 7 -11 20 -8 11 3 20 1 20 -4 0 -16 45 -56 58 -51 7 2 12 -6 12 -20 0 -27 27 -71 40 -63 4 3 11 28 15 55 7 54 -11 100 -39 100 -8 0 -28 14 -46 30 -25 24 -36 28 -46 19 -11 -9 -14 -8 -14 5 0 9 -4 16 -8 16 -5 0 -14 11 -20 25 -10 21 -16 24 -30 16 -14 -8 -22 -3 -41 24 -12 18 -33 36 -46 39 -13 3 -27 16 -30 29 -4 12 -18 32 -33 44 -18 15 -26 32 -26 57 -1 27 -7 38 -25 46 -18 8 -21 14 -13 22 20 20 14 57 -13 74 -28 18 -31 27 -12 46 22 22 29 51 15 59 -10 6 -7 18 10 53 21 45 21 46 2 56 -30 16 -25 25 20 39 45 13 51 32 18 49 -13 6 -17 11 -10 11 6 1 12 8 12 16 0 9 16 23 35 32 21 10 31 20 24 24 -16 10 -1 49 19 49 21 1 52 23 52 39 0 6 4 11 9 11 5 0 11 8 13 18 3 10 23 22 51 31 26 7 45 16 44 20 -3 12 35 60 54 66 11 4 17 11 13 16 -3 6 4 7 19 4 14 -4 27 -3 30 2 12 19 15 63 5 63 -6 0 -8 11 -6 25 7 33 -7 32 -21 -2z" transform="translate(0,150) scale(0.1,-0.1)" stroke="none" fill="#617376"/>

</g>

</g>
<g id="row1" transform="translate(7,150.0)">
<g id="0" transform="translate(0.0,0)scale(1,1)">

<path d="M511 1403 c-7 -16 -30 -41 -51 -56 -22 -16 -40 -33 -40 -38 0 -5 -4 -9 -9 -9 -29 0 -171 -81 -185 -105 -6 -10 -24 -30 -41 -44 -16 -14 -36 -34 -44 -43 -9 -10 -20 -18 -26 -18 -13 0 -48 -86 -40 -100 3 -5 2 -10 -3 -10 -20 0 -34 -80 -19 -112 6 -13 3 -18 -9 -18 -10 0 -15 -3 -11 -6 3 -3 2 -16 -3 -28 -4 -13 -4 -29 2 -40 6 -11 6 -21 -1 -30 -6 -7 -9 -15 -6 -17 2 -3 5 -24 6 -48 2 -24 8 -45 14 -47 5 -2 10 -19 9 -37 -1 -20 8 -44 24 -64 13 -18 21 -33 17 -33 -4 0 0 -11 9 -25 18 -27 21 -49 6 -40 -5 3 -10 2 -10 -3 0 -5 12 -9 26 -9 26 0 46 -17 77 -65 10 -16 22 -28 27 -28 5 0 21 -12 37 -26 18 -17 35 -24 50 -21 15 3 23 -1 23 -9 0 -8 9 -19 20 -26 11 -7 20 -19 20 -27 0 -8 7 -11 20 -8 11 3 20 1 20 -4 0 -16 45 -56 58 -51 7 2 12 -6 12 -20 0 -27 27 -71 40 -63 4 3 11 28 15 55 7 54 -11 100 -39 100 -8 0 -28 14 -46 30 -25 24 -36 28 -46 19 -11 -9 -14 -8 -14 5 0 9 -4 16 -8 16 -5 0 -14 11 -20 25 -10 21 -16 24 -30 16 -14 -8 -22 -3 -41 24 -12 18 -33 36 -46 39 -13 3 -27 16 -30 29 -4 12 -18 32 -33 44 -18 15 -26 32 -26 57 -1 27 -7 38 -25 46 -18 8 -21 14 -13 22 20 20 14 57 -13 74 -28 18 -31 27 -12 46 22 22 29 51 15 59 -10 6 -7 18 10 53 21 45 21 46 2 56 -30 16 -25 25 20 39 45 13 51 32 18 49 -13 6 -17 11 -10 11 6 1 12 8 12 16 0 9 16 23 35 32 21 10 31 20 24 24 -16 10 -1 49 19 49 21 1 52 23 52 39 0 6 4 11 9 11 5 0 11 8 13 18 3 10 23 22 51 31 26 7 45 16 44 20 -3 12 35 60 54 66 11 4 17 11 13 16 -3 6 4 7 19 4 14 -4 27 -3 30 2 12 19 15 63 5 63 -6 0 -8 11 -6 25 7 33 -7 32 -21 -2z" transform="translate(0,150) scale(0.1,-0.1)" stroke="none" fill="#617376"/>

</g>

<g id="1" transform="translate(59.0,0)scale(1,1)">

<path d="M511 1403 c-7 -16 -30 -41 -51 -56 -22 -16 -40 -33 -40 -38 0 -5 -4 -9 -9 -9 -29 0 -171 -81 -185 -105 -6 -10 -24 -30 -41 -44 -16 -14 -36 -34 -44 -43 -9 -10 -20 -18 -26 -18 -13 0 -48 -86 -40 -100 3 -5 2 -10 -3 -10 -20 0 -34 -80 -19 -112 6 -13 3 -18 -9 -18 -10 0 -15 -3 -11 -6 3 -3 2 -16 -3 -28 -4 -13 -4 -29 2 -40 6 -11 6 -21 -1 -30 -6 -7 -9 -15 -6 -17 2 -3 5 -24 6 -48 2 -24 8 -45 14 -47 5 -2 10 -19 9 -37 -1 -20 8 -44 24 -64 13 -18 21 -33 17 -33 -4 0 0 -11 9 -25 18 -27 21 -49 6 -40 -5 3 -10 2 -10 -3 0 -5 12 -9 26 -9 26 0 46 -17 77 -65 10 -16 22 -28 27 -28 5 0 21 -12 37 -26 18 -17 35 -24 50 -21 15 3 23 -1 23 -9 0 -8 9 -19 20 -26 11 -7 20 -19 20 -27 0 -8 7 -11 20 -8 11 3 20 1 20 -4 0 -16 45 -56 58 -51 7 2 12 -6 12 -20 0 -27 27 -71 40 -63 4 3 11 28 15 55 7 54 -11 100 -39 100 -8 0 -28 14 -46 30 -25 24 -36 28 -46 19 -11 -9 -14 -8 -14 5 0 9 -4 16 -8 16 -5 0 -14 11 -20 25 -10 21 -16 24 -30 16 -14 -8 -22 -3 -41 24 -12 18 -33 36 -46 39 -13 3 -27 16 -30 29 -4 12 -18 32 -33 44 -18 15 -26 32 -26 57 -1 27 -7 38 -25 46 -18 8 -21 14 -13 22 20 20 14 57 -13 74 -28 18 -31 27 -12 46 22 22 29 51 15 59 -10 6 -7 18 10 53 21 45 21 46 2 56 -30 16 -25 25 20 39 45 13 51 32 18 49 -13 6 -17 11 -10 11 6 1 12 8 12 16 0 9 16 23 35 32 21 10 31 20 24 24 -16 10 -1 49 19 49 21 1 52 23 52 39 0 6 4 11 9 11 5 0 11 8 13 18 3 10 23 22 51 31 26 7 45 16 44 20 -3 12 35 60 54 66 11 4 17 11 13 16 -3 6 4 7 19 4 14 -4 27 -3 30 2 12 19 15 63 5 63 -6 0 -8 11 -6 25 7 33 -7 32 -21 -2z" transform="translate(0,150) scale(0.1,-0.1)" stroke="none" fill="#617376"/>

</g>

<g id="2" transform="translate(118.0,0)scale(1,1)">

<path d="M511 1403 c-7 -16 -30 -41 -51 -56 -22 -16 -40 -33 -40 -38 0 -5 -4 -9 -9 -9 -29 0 -171 -81 -185 -105 -6 -10 -24 -30 -41 -44 -16 -14 -36 -34 -44 -43 -9 -10 -20 -18 -26 -18 -13 0 -48 -86 -40 -100 3 -5 2 -10 -3 -10 -20 0 -34 -80 -19 -112 6 -13 3 -18 -9 -18 -10 0 -15 -3 -11 -6 3 -3 2 -16 -3 -28 -4 -13 -4 -29 2 -40 6 -11 6 -21 -1 -30 -6 -7 -9 -15 -6 -17 2 -3 5 -24 6 -48 2 -24 8 -45 14 -47 5 -2 10 -19 9 -37 -1 -20 8 -44 24 -64 13 -18 21 -33 17 -33 -4 0 0 -11 9 -25 18 -27 21 -49 6 -40 -5 3 -10 2 -10 -3 0 -5 12 -9 26 -9 26 0 46 -17 77 -65 10 -16 22 -28 27 -28 5 0 21 -12 37 -26 18 -17 35 -24 50 -21 15 3 23 -1 23 -9 0 -8 9 -19 20 -26 11 -7 20 -19 20 -27 0 -8 7 -11 20 -8 11 3 20 1 20 -4 0 -16 45 -56 58 -51 7 2 12 -6 12 -20 0 -27 27 -71 40 -63 4 3 11 28 15 55 7 54 -11 100 -39 100 -8 0 -28 14 -46 30 -25 24 -36 28 -46 19 -11 -9 -14 -8 -14 5 0 9 -4 16 -8 16 -5 0 -14 11 -20 25 -10 21 -16 24 -30 16 -14 -8 -22 -3 -41 24 -12 18 -33 36 -46 39 -13 3 -27 16 -30 29 -4 12 -18 32 -33 44 -18 15 -26 32 -26 57 -1 27 -7 38 -25 46 -18 8 -21 14 -13 22 20 20 14 57 -13 74 -28 18 -31 27 -12 46 22 22 29 51 15 59 -10 6 -7 18 10 53 21 45 21 46 2 56 -30 16 -25 25 20 39 45 13 51 32 18 49 -13 6 -17 11 -10 11 6 1 12 8 12 16 0 9 16 23 35 32 21 10 31 20 24 24 -16 10 -1 49 19 49 21 1 52 23 52 39 0 6 4 11 9 11 5 0 11 8 13 18 3 10 23 22 51 31 26 7 45 16 44 20 -3 12 35 60 54 66 11 4 17 11 13 16 -3 6 4 7 19 4 14 -4 27 -3 30 2 12 19 15 63 5 63 -6 0 -8 11 -6 25 7 33 -7 32 -21 -2z" transform="translate(0,150) scale(0.1,-0.1)" stroke="none" fill="#617376"/>

</g>

<g id="3" transform="translate(177.0,0)scale(1,1)">

<path d="M511 1403 c-7 -16 -30 -41 -51 -56 -22 -16 -40 -33 -40 -38 0 -5 -4 -9 -9 -9 -29 0 -171 -81 -185 -105 -6 -10 -24 -30 -41 -44 -16 -14 -36 -34 -44 -43 -9 -10 -20 -18 -26 -18 -13 0 -48 -86 -40 -100 3 -5 2 -10 -3 -10 -20 0 -34 -80 -19 -112 6 -13 3 -18 -9 -18 -10 0 -15 -3 -11 -6 3 -3 2 -16 -3 -28 -4 -13 -4 -29 2 -40 6 -11 6 -21 -1 -30 -6 -7 -9 -15 -6 -17 2 -3 5 -24 6 -48 2 -24 8 -45 14 -47 5 -2 10 -19 9 -37 -1 -20 8 -44 24 -64 13 -18 21 -33 17 -33 -4 0 0 -11 9 -25 18 -27 21 -49 6 -40 -5 3 -10 2 -10 -3 0 -5 12 -9 26 -9 26 0 46 -17 77 -65 10 -16 22 -28 27 -28 5 0 21 -12 37 -26 18 -17 35 -24 50 -21 15 3 23 -1 23 -9 0 -8 9 -19 20 -26 11 -7 20 -19 20 -27 0 -8 7 -11 20 -8 11 3 20 1 20 -4 0 -16 45 -56 58 -51 7 2 12 -6 12 -20 0 -27 27 -71 40 -63 4 3 11 28 15 55 7 54 -11 100 -39 100 -8 0 -28 14 -46 30 -25 24 -36 28 -46 19 -11 -9 -14 -8 -14 5 0 9 -4 16 -8 16 -5 0 -14 11 -20 25 -10 21 -16 24 -30 16 -14 -8 -22 -3 -41 24 -12 18 -33 36 -46 39 -13 3 -27 16 -30 29 -4 12 -18 32 -33 44 -18 15 -26 32 -26 57 -1 27 -7 38 -25 46 -18 8 -21 14 -13 22 20 20 14 57 -13 74 -28 18 -31 27 -12 46 22 22 29 51 15 59 -10 6 -7 18 10 53 21 45 21 46 2 56 -30 16 -25 25 20 39 45 13 51 32 18 49 -13 6 -17 11 -10 11 6 1 12 8 12 16 0 9 16 23 35 32 21 10 31 20 24 24 -16 10 -1 49 19 49 21 1 52 23 52 39 0 6 4 11 9 11 5 0 11 8 13 18 3 10 23 22 51 31 26 7 45 16 44 20 -3 12 35 60 54 66 11 4 17 11 13 16 -3 6 4 7 19 4 14 -4 27 -3 30 2 12 19 15 63 5 63 -6 0 -8 11 -6 25 7 33 -7 32 -21 -2z" transform="translate(0,150) scale(0.1,-0.1)" stroke="none" fill="#617376"/>

</g>

<g id="4" transform="translate(236.0,0)scale(1,1)">

<path d="M511 1403 c-7 -16 -30 -41 -51 -56 -22 -16 -40 -33 -40 -38 0 -5 -4 -9 -9 -9 -29 0 -171 -81 -185 -105 -6 -10 -24 -30 -41 -44 -16 -14 -36 -34 -44 -43 -9 -10 -20 -18 -26 -18 -13 0 -48 -86 -40 -100 3 -5 2 -10 -3 -10 -20 0 -34 -80 -19 -112 6 -13 3 -18 -9 -18 -10 0 -15 -3 -11 -6 3 -3 2 -16 -3 -28 -4 -13 -4 -29 2 -40 6 -11 6 -21 -1 -30 -6 -7 -9 -15 -6 -17 2 -3 5 -24 6 -48 2 -24 8 -45 14 -47 5 -2 10 -19 9 -37 -1 -20 8 -44 24 -64 13 -18 21 -33 17 -33 -4 0 0 -11 9 -25 18 -27 21 -49 6 -40 -5 3 -10 2 -10 -3 0 -5 12 -9 26 -9 26 0 46 -17 77 -65 10 -16 22 -28 27 -28 5 0 21 -12 37 -26 18 -17 35 -24 50 -21 15 3 23 -1 23 -9 0 -8 9 -19 20 -26 11 -7 20 -19 20 -27 0 -8 7 -11 20 -8 11 3 20 1 20 -4 0 -16 45 -56 58 -51 7 2 12 -6 12 -20 0 -27 27 -71 40 -63 4 3 11 28 15 55 7 54 -11 100 -39 100 -8 0 -28 14 -46 30 -25 24 -36 28 -46 19 -11 -9 -14 -8 -14 5 0 9 -4 16 -8 16 -5 0 -14 11 -20 25 -10 21 -16 24 -30 16 -14 -8 -22 -3 -41 24 -12 18 -33 36 -46 39 -13 3 -27 16 -30 29 -4 12 -18 32 -33 44 -18 15 -26 32 -26 57 -1 27 -7 38 -25 46 -18 8 -21 14 -13 22 20 20 14 57 -13 74 -28 18 -31 27 -12 46 22 22 29 51 15 59 -10 6 -7 18 10 53 21 45 21 46 2 56 -30 16 -25 25 20 39 45 13 51 32 18 49 -13 6 -17 11 -10 11 6 1 12 8 12 16 0 9 16 23 35 32 21 10 31 20 24 24 -16 10 -1 49 19 49 21 1 52 23 52 39 0 6 4 11 9 11 5 0 11 8 13 18 3 10 23 22 51 31 26 7 45 16 44 20 -3 12 35 60 54 66 11 4 17 11 13 16 -3 6 4 7 19 4 14 -4 27 -3 30 2 12 19 15 63 5 63 -6 0 -8 11 -6 25 7 33 -7 32 -21 -2z" transform="translate(0,150) scale(0.1,-0.1)" stroke="none" fill="#617376"/>

</g>

</g>
<g id="row2" transform="translate(7,300.0)">
<g id="0" transform="translate(0.0,0)scale(1,1)">

<path d="M511 1403 c-7 -16 -30 -41 -51 -56 -22 -16 -40 -33 -40 -38 0 -5 -4 -9 -9 -9 -29 0 -171 -81 -185 -105 -6 -10 -24 -30 -41 -44 -16 -14 -36 -34 -44 -43 -9 -10 -20 -18 -26 -18 -13 0 -48 -86 -40 -100 3 -5 2 -10 -3 -10 -20 0 -34 -80 -19 -112 6 -13 3 -18 -9 -18 -10 0 -15 -3 -11 -6 3 -3 2 -16 -3 -28 -4 -13 -4 -29 2 -40 6 -11 6 -21 -1 -30 -6 -7 -9 -15 -6 -17 2 -3 5 -24 6 -48 2 -24 8 -45 14 -47 5 -2 10 -19 9 -37 -1 -20 8 -44 24 -64 13 -18 21 -33 17 -33 -4 0 0 -11 9 -25 18 -27 21 -49 6 -40 -5 3 -10 2 -10 -3 0 -5 12 -9 26 -9 26 0 46 -17 77 -65 10 -16 22 -28 27 -28 5 0 21 -12 37 -26 18 -17 35 -24 50 -21 15 3 23 -1 23 -9 0 -8 9 -19 20 -26 11 -7 20 -19 20 -27 0 -8 7 -11 20 -8 11 3 20 1 20 -4 0 -16 45 -56 58 -51 7 2 12 -6 12 -20 0 -27 27 -71 40 -63 4 3 11 28 15 55 7 54 -11 100 -39 100 -8 0 -28 14 -46 30 -25 24 -36 28 -46 19 -11 -9 -14 -8 -14 5 0 9 -4 16 -8 16 -5 0 -14 11 -20 25 -10 21 -16 24 -30 16 -14 -8 -22 -3 -41 24 -12 18 -33 36 -46 39 -13 3 -27 16 -30 29 -4 12 -18 32 -33 44 -18 15 -26 32 -26 57 -1 27 -7 38 -25 46 -18 8 -21 14 -13 22 20 20 14 57 -13 74 -28 18 -31 27 -12 46 22 22 29 51 15 59 -10 6 -7 18 10 53 21 45 21 46 2 56 -30 16 -25 25 20 39 45 13 51 32 18 49 -13 6 -17 11 -10 11 6 1 12 8 12 16 0 9 16 23 35 32 21 10 31 20 24 24 -16 10 -1 49 19 49 21 1 52 23 52 39 0 6 4 11 9 11 5 0 11 8 13 18 3 10 23 22 51 31 26 7 45 16 44 20 -3 12 35 60 54 66 11 4 17 11 13 16 -3 6 4 7 19 4 14 -4 27 -3 30 2 12 19 15 63 5 63 -6 0 -8 11 -6 25 7 33 -7 32 -21 -2z" transform="translate(0,150) scale(0.1,-0.1)" stroke="none" fill="#617376"/>

</g>

<g id="1" transform="translate(59.0,0)scale(1,1)">

<path d="M511 1403 c-7 -16 -30 -41 -51 -56 -22 -16 -40 -33 -40 -38 0 -5 -4 -9 -9 -9 -29 0 -171 -81 -185 -105 -6 -10 -24 -30 -41 -44 -16 -14 -36 -34 -44 -43 -9 -10 -20 -18 -26 -18 -13 0 -48 -86 -40 -100 3 -5 2 -10 -3 -10 -20 0 -34 -80 -19 -112 6 -13 3 -18 -9 -18 -10 0 -15 -3 -11 -6 3 -3 2 -16 -3 -28 -4 -13 -4 -29 2 -40 6 -11 6 -21 -1 -30 -6 -7 -9 -15 -6 -17 2 -3 5 -24 6 -48 2 -24 8 -45 14 -47 5 -2 10 -19 9 -37 -1 -20 8 -44 24 -64 13 -18 21 -33 17 -33 -4 0 0 -11 9 -25 18 -27 21 -49 6 -40 -5 3 -10 2 -10 -3 0 -5 12 -9 26 -9 26 0 46 -17 77 -65 10 -16 22 -28 27 -28 5 0 21 -12 37 -26 18 -17 35 -24 50 -21 15 3 23 -1 23 -9 0 -8 9 -19 20 -26 11 -7 20 -19 20 -27 0 -8 7 -11 20 -8 11 3 20 1 20 -4 0 -16 45 -56 58 -51 7 2 12 -6 12 -20 0 -27 27 -71 40 -63 4 3 11 28 15 55 7 54 -11 100 -39 100 -8 0 -28 14 -46 30 -25 24 -36 28 -46 19 -11 -9 -14 -8 -14 5 0 9 -4 16 -8 16 -5 0 -14 11 -20 25 -10 21 -16 24 -30 16 -14 -8 -22 -3 -41 24 -12 18 -33 36 -46 39 -13 3 -27 16 -30 29 -4 12 -18 32 -33 44 -18 15 -26 32 -26 57 -1 27 -7 38 -25 46 -18 8 -21 14 -13 22 20 20 14 57 -13 74 -28 18 -31 27 -12 46 22 22 29 51 15 59 -10 6 -7 18 10 53 21 45 21 46 2 56 -30 16 -25 25 20 39 45 13 51 32 18 49 -13 6 -17 11 -10 11 6 1 12 8 12 16 0 9 16 23 35 32 21 10 31 20 24 24 -16 10 -1 49 19 49 21 1 52 23 52 39 0 6 4 11 9 11 5 0 11 8 13 18 3 10 23 22 51 31 26 7 45 16 44 20 -3 12 35 60 54 66 11 4 17 11 13 16 -3 6 4 7 19 4 14 -4 27 -3 30 2 12 19 15 63 5 63 -6 0 -8 11 -6 25 7 33 -7 32 -21 -2z" transform="translate(0,150) scale(0.1,-0.1)" stroke="none" fill="#617376"/>

</g>

<g id="2" transform="translate(118.0,0)scale(1,1)">

<path d="M511 1403 c-7 -16 -30 -41 -51 -56 -22 -16 -40 -33 -40 -38 0 -5 -4 -9 -9 -9 -29 0 -171 -81 -185 -105 -6 -10 -24 -30 -41 -44 -16 -14 -36 -34 -44 -43 -9 -10 -20 -18 -26 -18 -13 0 -48 -86 -40 -100 3 -5 2 -10 -3 -10 -20 0 -34 -80 -19 -112 6 -13 3 -18 -9 -18 -10 0 -15 -3 -11 -6 3 -3 2 -16 -3 -28 -4 -13 -4 -29 2 -40 6 -11 6 -21 -1 -30 -6 -7 -9 -15 -6 -17 2 -3 5 -24 6 -48 2 -24 8 -45 14 -47 5 -2 10 -19 9 -37 -1 -20 8 -44 24 -64 13 -18 21 -33 17 -33 -4 0 0 -11 9 -25 18 -27 21 -49 6 -40 -5 3 -10 2 -10 -3 0 -5 12 -9 26 -9 26 0 46 -17 77 -65 10 -16 22 -28 27 -28 5 0 21 -12 37 -26 18 -17 35 -24 50 -21 15 3 23 -1 23 -9 0 -8 9 -19 20 -26 11 -7 20 -19 20 -27 0 -8 7 -11 20 -8 11 3 20 1 20 -4 0 -16 45 -56 58 -51 7 2 12 -6 12 -20 0 -27 27 -71 40 -63 4 3 11 28 15 55 7 54 -11 100 -39 100 -8 0 -28 14 -46 30 -25 24 -36 28 -46 19 -11 -9 -14 -8 -14 5 0 9 -4 16 -8 16 -5 0 -14 11 -20 25 -10 21 -16 24 -30 16 -14 -8 -22 -3 -41 24 -12 18 -33 36 -46 39 -13 3 -27 16 -30 29 -4 12 -18 32 -33 44 -18 15 -26 32 -26 57 -1 27 -7 38 -25 46 -18 8 -21 14 -13 22 20 20 14 57 -13 74 -28 18 -31 27 -12 46 22 22 29 51 15 59 -10 6 -7 18 10 53 21 45 21 46 2 56 -30 16 -25 25 20 39 45 13 51 32 18 49 -13 6 -17 11 -10 11 6 1 12 8 12 16 0 9 16 23 35 32 21 10 31 20 24 24 -16 10 -1 49 19 49 21 1 52 23 52 39 0 6 4 11 9 11 5 0 11 8 13 18 3 10 23 22 51 31 26 7 45 16 44 20 -3 12 35 60 54 66 11 4 17 11 13 16 -3 6 4 7 19 4 14 -4 27 -3 30 2 12 19 15 63 5 63 -6 0 -8 11 -6 25 7 33 -7 32 -21 -2z" transform="translate(0,150) scale(0.1,-0.1)" stroke="none" fill="#617376"/>

</g>

<g id="3" transform="translate(177.0,0)scale(1,1)">

<path d="M511 1403 c-7 -16 -30 -41 -51 -56 -22 -16 -40 -33 -40 -38 0 -5 -4 -9 -9 -9 -29 0 -171 -81 -185 -105 -6 -10 -24 -30 -41 -44 -16 -14 -36 -34 -44 -43 -9 -10 -20 -18 -26 -18 -13 0 -48 -86 -40 -100 3 -5 2 -10 -3 -10 -20 0 -34 -80 -19 -112 6 -13 3 -18 -9 -18 -10 0 -15 -3 -11 -6 3 -3 2 -16 -3 -28 -4 -13 -4 -29 2 -40 6 -11 6 -21 -1 -30 -6 -7 -9 -15 -6 -17 2 -3 5 -24 6 -48 2 -24 8 -45 14 -47 5 -2 10 -19 9 -37 -1 -20 8 -44 24 -64 13 -18 21 -33 17 -33 -4 0 0 -11 9 -25 18 -27 21 -49 6 -40 -5 3 -10 2 -10 -3 0 -5 12 -9 26 -9 26 0 46 -17 77 -65 10 -16 22 -28 27 -28 5 0 21 -12 37 -26 18 -17 35 -24 50 -21 15 3 23 -1 23 -9 0 -8 9 -19 20 -26 11 -7 20 -19 20 -27 0 -8 7 -11 20 -8 11 3 20 1 20 -4 0 -16 45 -56 58 -51 7 2 12 -6 12 -20 0 -27 27 -71 40 -63 4 3 11 28 15 55 7 54 -11 100 -39 100 -8 0 -28 14 -46 30 -25 24 -36 28 -46 19 -11 -9 -14 -8 -14 5 0 9 -4 16 -8 16 -5 0 -14 11 -20 25 -10 21 -16 24 -30 16 -14 -8 -22 -3 -41 24 -12 18 -33 36 -46 39 -13 3 -27 16 -30 29 -4 12 -18 32 -33 44 -18 15 -26 32 -26 57 -1 27 -7 38 -25 46 -18 8 -21 14 -13 22 20 20 14 57 -13 74 -28 18 -31 27 -12 46 22 22 29 51 15 59 -10 6 -7 18 10 53 21 45 21 46 2 56 -30 16 -25 25 20 39 45 13 51 32 18 49 -13 6 -17 11 -10 11 6 1 12 8 12 16 0 9 16 23 35 32 21 10 31 20 24 24 -16 10 -1 49 19 49 21 1 52 23 52 39 0 6 4 11 9 11 5 0 11 8 13 18 3 10 23 22 51 31 26 7 45 16 44 20 -3 12 35 60 54 66 11 4 17 11 13 16 -3 6 4 7 19 4 14 -4 27 -3 30 2 12 19 15 63 5 63 -6 0 -8 11 -6 25 7 33 -7 32 -21 -2z" transform="translate(0,150) scale(0.1,-0.1)" stroke="none" fill="#617376"/>

</g>

<g id="4" transform="translate(236.0,0)scale(1,1)">

<path d="M511 1403 c-7 -16 -30 -41 -51 -56 -22 -16 -40 -33 -40 -38 0 -5 -4 -9 -9 -9 -29 0 -171 -81 -185 -105 -6 -10 -24 -30 -41 -44 -16 -14 -36 -34 -44 -43 -9 -10 -20 -18 -26 -18 -13 0 -48 -86 -40 -100 3 -5 2 -10 -3 -10 -20 0 -34 -80 -19 -112 6 -13 3 -18 -9 -18 -10 0 -15 -3 -11 -6 3 -3 2 -16 -3 -28 -4 -13 -4 -29 2 -40 6 -11 6 -21 -1 -30 -6 -7 -9 -15 -6 -17 2 -3 5 -24 6 -48 2 -24 8 -45 14 -47 5 -2 10 -19 9 -37 -1 -20 8 -44 24 -64 13 -18 21 -33 17 -33 -4 0 0 -11 9 -25 18 -27 21 -49 6 -40 -5 3 -10 2 -10 -3 0 -5 12 -9 26 -9 26 0 46 -17 77 -65 10 -16 22 -28 27 -28 5 0 21 -12 37 -26 18 -17 35 -24 50 -21 15 3 23 -1 23 -9 0 -8 9 -19 20 -26 11 -7 20 -19 20 -27 0 -8 7 -11 20 -8 11 3 20 1 20 -4 0 -16 45 -56 58 -51 7 2 12 -6 12 -20 0 -27 27 -71 40 -63 4 3 11 28 15 55 7 54 -11 100 -39 100 -8 0 -28 14 -46 30 -25 24 -36 28 -46 19 -11 -9 -14 -8 -14 5 0 9 -4 16 -8 16 -5 0 -14 11 -20 25 -10 21 -16 24 -30 16 -14 -8 -22 -3 -41 24 -12 18 -33 36 -46 39 -13 3 -27 16 -30 29 -4 12 -18 32 -33 44 -18 15 -26 32 -26 57 -1 27 -7 38 -25 46 -18 8 -21 14 -13 22 20 20 14 57 -13 74 -28 18 -31 27 -12 46 22 22 29 51 15 59 -10 6 -7 18 10 53 21 45 21 46 2 56 -30 16 -25 25 20 39 45 13 51 32 18 49 -13 6 -17 11 -10 11 6 1 12 8 12 16 0 9 16 23 35 32 21 10 31 20 24 24 -16 10 -1 49 19 49 21 1 52 23 52 39 0 6 4 11 9 11 5 0 11 8 13 18 3 10 23 22 51 31 26 7 45 16 44 20 -3 12 35 60 54 66 11 4 17 11 13 16 -3 6 4 7 19 4 14 -4 27 -3 30 2 12 19 15 63 5 63 -6 0 -8 11 -6 25 7 33 -7 32 -21 -2z" transform="translate(0,150) scale(0.1,-0.1)" stroke="none" fill="#617376"/>

</g>

</g>
<g id="row3" transform="translate(7,450.0)">
<g id="0" transform="translate(0.0,0)scale(1,1)">

<path d="M511 1403 c-7 -16 -30 -41 -51 -56 -22 -16 -40 -33 -40 -38 0 -5 -4 -9 -9 -9 -29 0 -171 -81 -185 -105 -6 -10 -24 -30 -41 -44 -16 -14 -36 -34 -44 -43 -9 -10 -20 -18 -26 -18 -13 0 -48 -86 -40 -100 3 -5 2 -10 -3 -10 -20 0 -34 -80 -19 -112 6 -13 3 -18 -9 -18 -10 0 -15 -3 -11 -6 3 -3 2 -16 -3 -28 -4 -13 -4 -29 2 -40 6 -11 6 -21 -1 -30 -6 -7 -9 -15 -6 -17 2 -3 5 -24 6 -48 2 -24 8 -45 14 -47 5 -2 10 -19 9 -37 -1 -20 8 -44 24 -64 13 -18 21 -33 17 -33 -4 0 0 -11 9 -25 18 -27 21 -49 6 -40 -5 3 -10 2 -10 -3 0 -5 12 -9 26 -9 26 0 46 -17 77 -65 10 -16 22 -28 27 -28 5 0 21 -12 37 -26 18 -17 35 -24 50 -21 15 3 23 -1 23 -9 0 -8 9 -19 20 -26 11 -7 20 -19 20 -27 0 -8 7 -11 20 -8 11 3 20 1 20 -4 0 -16 45 -56 58 -51 7 2 12 -6 12 -20 0 -27 27 -71 40 -63 4 3 11 28 15 55 7 54 -11 100 -39 100 -8 0 -28 14 -46 30 -25 24 -36 28 -46 19 -11 -9 -14 -8 -14 5 0 9 -4 16 -8 16 -5 0 -14 11 -20 25 -10 21 -16 24 -30 16 -14 -8 -22 -3 -41 24 -12 18 -33 36 -46 39 -13 3 -27 16 -30 29 -4 12 -18 32 -33 44 -18 15 -26 32 -26 57 -1 27 -7 38 -25 46 -18 8 -21 14 -13 22 20 20 14 57 -13 74 -28 18 -31 27 -12 46 22 22 29 51 15 59 -10 6 -7 18 10 53 21 45 21 46 2 56 -30 16 -25 25 20 39 45 13 51 32 18 49 -13 6 -17 11 -10 11 6 1 12 8 12 16 0 9 16 23 35 32 21 10 31 20 24 24 -16 10 -1 49 19 49 21 1 52 23 52 39 0 6 4 11 9 11 5 0 11 8 13 18 3 10 23 22 51 31 26 7 45 16 44 20 -3 12 35 60 54 66 11 4 17 11 13 16 -3 6 4 7 19 4 14 -4 27 -3 30 2 12 19 15 63 5 63 -6 0 -8 11 -6 25 7 33 -7 32 -21 -2z" transform="translate(0,150) scale(0.1,-0.1)" stroke="none" fill="#617376"/>

</g>

<g id="1" transform="translate(59.0,0)scale(1,1)">

<path d="M511 1403 c-7 -16 -30 -41 -51 -56 -22 -16 -40 -33 -40 -38 0 -5 -4 -9 -9 -9 -29 0 -171 -81 -185 -105 -6 -10 -24 -30 -41 -44 -16 -14 -36 -34 -44 -43 -9 -10 -20 -18 -26 -18 -13 0 -48 -86 -40 -100 3 -5 2 -10 -3 -10 -20 0 -34 -80 -19 -112 6 -13 3 -18 -9 -18 -10 0 -15 -3 -11 -6 3 -3 2 -16 -3 -28 -4 -13 -4 -29 2 -40 6 -11 6 -21 -1 -30 -6 -7 -9 -15 -6 -17 2 -3 5 -24 6 -48 2 -24 8 -45 14 -47 5 -2 10 -19 9 -37 -1 -20 8 -44 24 -64 13 -18 21 -33 17 -33 -4 0 0 -11 9 -25 18 -27 21 -49 6 -40 -5 3 -10 2 -10 -3 0 -5 12 -9 26 -9 26 0 46 -17 77 -65 10 -16 22 -28 27 -28 5 0 21 -12 37 -26 18 -17 35 -24 50 -21 15 3 23 -1 23 -9 0 -8 9 -19 20 -26 11 -7 20 -19 20 -27 0 -8 7 -11 20 -8 11 3 20 1 20 -4 0 -16 45 -56 58 -51 7 2 12 -6 12 -20 0 -27 27 -71 40 -63 4 3 11 28 15 55 7 54 -11 100 -39 100 -8 0 -28 14 -46 30 -25 24 -36 28 -46 19 -11 -9 -14 -8 -14 5 0 9 -4 16 -8 16 -5 0 -14 11 -20 25 -10 21 -16 24 -30 16 -14 -8 -22 -3 -41 24 -12 18 -33 36 -46 39 -13 3 -27 16 -30 29 -4 12 -18 32 -33 44 -18 15 -26 32 -26 57 -1 27 -7 38 -25 46 -18 8 -21 14 -13 22 20 20 14 57 -13 74 -28 18 -31 27 -12 46 22 22 29 51 15 59 -10 6 -7 18 10 53 21 45 21 46 2 56 -30 16 -25 25 20 39 45 13 51 32 18 49 -13 6 -17 11 -10 11 6 1 12 8 12 16 0 9 16 23 35 32 21 10 31 20 24 24 -16 10 -1 49 19 49 21 1 52 23 52 39 0 6 4 11 9 11 5 0 11 8 13 18 3 10 23 22 51 31 26 7 45 16 44 20 -3 12 35 60 54 66 11 4 17 11 13 16 -3 6 4 7 19 4 14 -4 27 -3 30 2 12 19 15 63 5 63 -6 0 -8 11 -6 25 7 33 -7 32 -21 -2z" transform="translate(0,150) scale(0.1,-0.1)" stroke="none" fill="#617376"/>

</g>

<g id="2" transform="translate(118.0,0)scale(1,1)">

<path d="M511 1403 c-7 -16 -30 -41 -51 -56 -22 -16 -40 -33 -40 -38 0 -5 -4 -9 -9 -9 -29 0 -171 -81 -185 -105 -6 -10 -24 -30 -41 -44 -16 -14 -36 -34 -44 -43 -9 -10 -20 -18 -26 -18 -13 0 -48 -86 -40 -100 3 -5 2 -10 -3 -10 -20 0 -34 -80 -19 -112 6 -13 3 -18 -9 -18 -10 0 -15 -3 -11 -6 3 -3 2 -16 -3 -28 -4 -13 -4 -29 2 -40 6 -11 6 -21 -1 -30 -6 -7 -9 -15 -6 -17 2 -3 5 -24 6 -48 2 -24 8 -45 14 -47 5 -2 10 -19 9 -37 -1 -20 8 -44 24 -64 13 -18 21 -33 17 -33 -4 0 0 -11 9 -25 18 -27 21 -49 6 -40 -5 3 -10 2 -10 -3 0 -5 12 -9 26 -9 26 0 46 -17 77 -65 10 -16 22 -28 27 -28 5 0 21 -12 37 -26 18 -17 35 -24 50 -21 15 3 23 -1 23 -9 0 -8 9 -19 20 -26 11 -7 20 -19 20 -27 0 -8 7 -11 20 -8 11 3 20 1 20 -4 0 -16 45 -56 58 -51 7 2 12 -6 12 -20 0 -27 27 -71 40 -63 4 3 11 28 15 55 7 54 -11 100 -39 100 -8 0 -28 14 -46 30 -25 24 -36 28 -46 19 -11 -9 -14 -8 -14 5 0 9 -4 16 -8 16 -5 0 -14 11 -20 25 -10 21 -16 24 -30 16 -14 -8 -22 -3 -41 24 -12 18 -33 36 -46 39 -13 3 -27 16 -30 29 -4 12 -18 32 -33 44 -18 15 -26 32 -26 57 -1 27 -7 38 -25 46 -18 8 -21 14 -13 22 20 20 14 57 -13 74 -28 18 -31 27 -12 46 22 22 29 51 15 59 -10 6 -7 18 10 53 21 45 21 46 2 56 -30 16 -25 25 20 39 45 13 51 32 18 49 -13 6 -17 11 -10 11 6 1 12 8 12 16 0 9 16 23 35 32 21 10 31 20 24 24 -16 10 -1 49 19 49 21 1 52 23 52 39 0 6 4 11 9 11 5 0 11 8 13 18 3 10 23 22 51 31 26 7 45 16 44 20 -3 12 35 60 54 66 11 4 17 11 13 16 -3 6 4 7 19 4 14 -4 27 -3 30 2 12 19 15 63 5 63 -6 0 -8 11 -6 25 7 33 -7 32 -21 -2z" transform="translate(0,150) scale(0.1,-0.1)" stroke="none" fill="#617376"/>

</g>

<g id="3" transform="translate(177.0,0)scale(1,1)">

<path d="M511 1403 c-7 -16 -30 -41 -51 -56 -22 -16 -40 -33 -40 -38 0 -5 -4 -9 -9 -9 -29 0 -171 -81 -185 -105 -6 -10 -24 -30 -41 -44 -16 -14 -36 -34 -44 -43 -9 -10 -20 -18 -26 -18 -13 0 -48 -86 -40 -100 3 -5 2 -10 -3 -10 -20 0 -34 -80 -19 -112 6 -13 3 -18 -9 -18 -10 0 -15 -3 -11 -6 3 -3 2 -16 -3 -28 -4 -13 -4 -29 2 -40 6 -11 6 -21 -1 -30 -6 -7 -9 -15 -6 -17 2 -3 5 -24 6 -48 2 -24 8 -45 14 -47 5 -2 10 -19 9 -37 -1 -20 8 -44 24 -64 13 -18 21 -33 17 -33 -4 0 0 -11 9 -25 18 -27 21 -49 6 -40 -5 3 -10 2 -10 -3 0 -5 12 -9 26 -9 26 0 46 -17 77 -65 10 -16 22 -28 27 -28 5 0 21 -12 37 -26 18 -17 35 -24 50 -21 15 3 23 -1 23 -9 0 -8 9 -19 20 -26 11 -7 20 -19 20 -27 0 -8 7 -11 20 -8 11 3 20 1 20 -4 0 -16 45 -56 58 -51 7 2 12 -6 12 -20 0 -27 27 -71 40 -63 4 3 11 28 15 55 7 54 -11 100 -39 100 -8 0 -28 14 -46 30 -25 24 -36 28 -46 19 -11 -9 -14 -8 -14 5 0 9 -4 16 -8 16 -5 0 -14 11 -20 25 -10 21 -16 24 -30 16 -14 -8 -22 -3 -41 24 -12 18 -33 36 -46 39 -13 3 -27 16 -30 29 -4 12 -18 32 -33 44 -18 15 -26 32 -26 57 -1 27 -7 38 -25 46 -18 8 -21 14 -13 22 20 20 14 57 -13 74 -28 18 -31 27 -12 46 22 22 29 51 15 59 -10 6 -7 18 10 53 21 45 21 46 2 56 -30 16 -25 25 20 39 45 13 51 32 18 49 -13 6 -17 11 -10 11 6 1 12 8 12 16 0 9 16 23 35 32 21 10 31 20 24 24 -16 10 -1 49 19 49 21 1 52 23 52 39 0 6 4 11 9 11 5 0 11 8 13 18 3 10 23 22 51 31 26 7 45 16 44 20 -3 12 35 60 54 66 11 4 17 11 13 16 -3 6 4 7 19 4 14 -4 27 -3 30 2 12 19 15 63 5 63 -6 0 -8 11 -6 25 7 33 -7 32 -21 -2z" transform="translate(0,150) scale(0.1,-0.1)" stroke="none" fill="#617376"/>

</g>

<g id="4" transform="translate(236.0,0)scale(1,1)">

<path d="M511 1403 c-7 -16 -30 -41 -51 -56 -22 -16 -40 -33 -40 -38 0 -5 -4 -9 -9 -9 -29 0 -171 -81 -185 -105 -6 -10 -24 -30 -41 -44 -16 -14 -36 -34 -44 -43 -9 -10 -20 -18 -26 -18 -13 0 -48 -86 -40 -100 3 -5 2 -10 -3 -10 -20 0 -34 -80 -19 -112 6 -13 3 -18 -9 -18 -10 0 -15 -3 -11 -6 3 -3 2 -16 -3 -28 -4 -13 -4 -29 2 -40 6 -11 6 -21 -1 -30 -6 -7 -9 -15 -6 -17 2 -3 5 -24 6 -48 2 -24 8 -45 14 -47 5 -2 10 -19 9 -37 -1 -20 8 -44 24 -64 13 -18 21 -33 17 -33 -4 0 0 -11 9 -25 18 -27 21 -49 6 -40 -5 3 -10 2 -10 -3 0 -5 12 -9 26 -9 26 0 46 -17 77 -65 10 -16 22 -28 27 -28 5 0 21 -12 37 -26 18 -17 35 -24 50 -21 15 3 23 -1 23 -9 0 -8 9 -19 20 -26 11 -7 20 -19 20 -27 0 -8 7 -11 20 -8 11 3 20 1 20 -4 0 -16 45 -56 58 -51 7 2 12 -6 12 -20 0 -27 27 -71 40 -63 4 3 11 28 15 55 7 54 -11 100 -39 100 -8 0 -28 14 -46 30 -25 24 -36 28 -46 19 -11 -9 -14 -8 -14 5 0 9 -4 16 -8 16 -5 0 -14 11 -20 25 -10 21 -16 24 -30 16 -14 -8 -22 -3 -41 24 -12 18 -33 36 -46 39 -13 3 -27 16 -30 29 -4 12 -18 32 -33 44 -18 15 -26 32 -26 57 -1 27 -7 38 -25 46 -18 8 -21 14 -13 22 20 20 14 57 -13 74 -28 18 -31 27 -12 46 22 22 29 51 15 59 -10 6 -7 18 10 53 21 45 21 46 2 56 -30 16 -25 25 20 39 45 13 51 32 18 49 -13 6 -17 11 -10 11 6 1 12 8 12 16 0 9 16 23 35 32 21 10 31 20 24 24 -16 10 -1 49 19 49 21 1 52 23 52 39 0 6 4 11 9 11 5 0 11 8 13 18 3 10 23 22 51 31 26 7 45 16 44 20 -3 12 35 60 54 66 11 4 17 11 13 16 -3 6 4 7 19 4 14 -4 27 -3 30 2 12 19 15 63 5 63 -6 0 -8 11 -6 25 7 33 -7 32 -21 -2z" transform="translate(0,150) scale(0.1,-0.1)" stroke="none" fill="#617376"/>

</g>

</g>
</svg>