<?xml version="1.0" standalone="no"?>
<!DOCTYPE svg PUBLIC "-//W3C//DTD SVG 20010904//EN"
 "http://www.w3.org/TR/2001/REC-SVG-20010904/DTD/svg10.dtd">
<svg version="1.0" xmlns="http://www.w3.org/2000/svg" width="464pt" height="744pt" viewBox="0 0 464 744" preserveAspectRatio = "xMidYMid meet" >
<metadata>
Created by ZoeQu, written in 2022
</metadata>
<rect width="464" height="744" fill="#FA8D1C"/>
<g id="col0" transform="translate(0, 24)">
<g id="0" transform="translate(0,0.0)scale(0.8,0.8)">

<path d="M770 1551 c-17 -5 5 -8 65 -8 71 0 98 -4 130 -21 70 -36 107 -86 125 -172 l8 -35 1 33 c2 70 -59 158 -130 186 -46 19 -164 29 -199 17z" transform="translate(0,186) scale(0.1,-0.1)" stroke="none" fill="#5DB4B7"/>

<path d="M1092 1272 c-2 -42 -32 -106 -72 -157 -21 -27 -29 -46 -25 -60 3 -11 10 -42 15 -69 36 -178 -94 -343 -252 -322 -38 5 -40 4 -13 -5 37 -12 105 -5 146 17 107 55 157 186 129 336 -10 49 -10 72 -3 76 6 4 27 37 48 74 28 52 35 75 32 105 -4 37 -4 37 -5 5z" transform="translate(0,186) scale(0.1,-0.1)" stroke="none" fill="#5DB4B7"/>

<path d="M285 1761 c-53 -25 -98 -68 -127 -122 -20 -38 -23 -58 -22 -144 0 -89 4 -108 32 -175 18 -41 32 -79 32 -85 0 -6 -11 -17 -24 -25 -76 -47 -145 -183 -131 -258 23 -123 142 -224 260 -220 l50 1 -55 6 c-56 6 -136 45 -176 85 -45 46 -64 91 -64 155 0 78 23 126 96 196 50 50 67 86 45 100 -23 14 -55 142 -56 220 0 125 44 204 140 249 65 31 112 33 184 6 81 -29 136 -81 182 -172 30 -58 47 -69 79 -47 12 8 8 9 -14 7 -26 -3 -32 3 -62 60 -40 75 -79 114 -156 153 -70 35 -151 39 -213 10z" transform="translate(0,186) scale(0.1,-0.1)" stroke="none" fill="#5DB4B7"/>

<path d="M552 1363 c-5 -10 -7 -24 -5 -30 3 -8 -3 -13 -14 -13 -10 0 -29 -7 -42 -16 -17 -13 -21 -22 -16 -42 3 -14 14 -31 23 -38 13 -10 14 -16 6 -24 -28 -28 22 -84 51 -60 12 10 17 7 24 -13 5 -14 16 -27 23 -30 16 -5 49 11 64 31 6 8 17 12 25 10 8 -3 22 -1 31 3 32 17 16 145 -25 197 -13 16 -37 -3 -37 -29 0 -11 -7 -19 -15 -19 -18 0 -18 2 -4 34 9 20 9 29 -1 41 -18 21 -77 20 -88 -2z m38 -77 c0 -3 -4 -8 -10 -11 -5 -3 -10 -1 -10 4 0 6 5 11 10 11 6 0 10 -2 10 -4z m-15 -74 c-8 -8 -25 10 -19 20 4 6 9 5 15 -3 4 -7 6 -15 4 -17z m25 -22 c0 -5 -4 -10 -10 -10 -5 0 -10 5 -10 10 0 6 5 10 10 10 6 0 10 -4 10 -10z m67 -26 c-9 -9 -28 6 -21 18 4 6 10 6 17 -1 6 -6 8 -13 4 -17z" transform="translate(0,186) scale(0.1,-0.1)" stroke="none" fill="#2A8B8F"/>

<path d="M531 1406 c-19 -7 -36 -17 -38 -23 -2 -6 -12 -9 -22 -6 -24 6 -97 -77 -111 -126 -13 -46 -13 -128 0 -136 6 -3 10 -17 10 -30 0 -32 78 -109 137 -135 54 -24 100 -25 166 -5 71 21 100 42 138 97 31 47 34 57 33 122 0 57 -5 79 -25 112 -37 62 -65 94 -83 94 -9 0 -16 4 -16 9 0 10 -106 41 -136 40 -10 0 -34 -6 -53 -13z m133 -38 c34 -16 48 -31 64 -67 21 -48 28 -146 11 -156 -5 -4 -7 -10 -5 -14 3 -4 -8 -5 -24 -3 -19 3 -35 -3 -49 -17 -39 -39 -179 -13 -205 38 -25 47 -24 122 2 147 9 10 17 22 17 28 0 6 15 19 34 28 19 9 39 22 44 27 17 17 63 13 111 -11z" transform="translate(0,186) scale(0.1,-0.1)" stroke="none" fill="#5DB4B7"/>

<path d="M504 750 c-14 -14 -137 -39 -166 -33 -40 8 -49 -16 -55 -139 -4 -85 -2 -131 10 -184 24 -105 77 -223 120 -271 30 -33 84 -31 118 5 44 45 119 153 150 214 36 71 79 218 79 268 0 35 -3 39 -32 45 -41 9 -125 53 -158 83 -27 24 -50 28 -66 12z" transform="translate(0,186) scale(0.1,-0.1)" stroke="none" fill="#2A8B8F"/>

<path d="M283 1744 c-95 -46 -138 -125 -138 -249 1 -78 33 -206 56 -220 22 -14 5 -50 -45 -100 -73 -70 -96 -118 -96 -196 0 -93 39 -151 142 -208 51 -29 64 -32 145 -32 68 -1 98 4 133 20 58 27 61 26 101 -9 42 -38 120 -75 177 -85 156 -26 288 142 252 321 -5 27 -12 58 -15 69 -4 14 4 33 25 60 92 116 97 267 12 358 -67 72 -175 89 -324 52 -25 -7 -29 -3 -56 51 -47 93 -102 145 -183 174 -71 26 -123 25 -186 -6z m379 -340 c32 -9 58 -21 58 -25 0 -5 7 -9 16 -9 18 0 46 -32 83 -94 20 -33 25 -55 25 -112 1 -65 -2 -75 -33 -122 -38 -55 -67 -76 -138 -97 -66 -20 -112 -19 -166 5 -59 26 -137 103 -137 135 0 13 -4 27 -10 30 -13 8 -13 90 0 136 14 49 87 132 111 126 10 -3 20 0 22 6 4 12 62 35 91 36 11 1 46 -6 78 -15z" transform="translate(0,186) scale(0.1,-0.1)" stroke="none" fill="#E9E4E1"/>

</g>

<g id="1" transform="translate(0,186.0)scale(0.8,0.8)">

<path d="M770 1551 c-17 -5 5 -8 65 -8 71 0 98 -4 130 -21 70 -36 107 -86 125 -172 l8 -35 1 33 c2 70 -59 158 -130 186 -46 19 -164 29 -199 17z" transform="translate(0,186) scale(0.1,-0.1)" stroke="none" fill="#5DB4B7"/>

<path d="M1092 1272 c-2 -42 -32 -106 -72 -157 -21 -27 -29 -46 -25 -60 3 -11 10 -42 15 -69 36 -178 -94 -343 -252 -322 -38 5 -40 4 -13 -5 37 -12 105 -5 146 17 107 55 157 186 129 336 -10 49 -10 72 -3 76 6 4 27 37 48 74 28 52 35 75 32 105 -4 37 -4 37 -5 5z" transform="translate(0,186) scale(0.1,-0.1)" stroke="none" fill="#5DB4B7"/>

<path d="M285 1761 c-53 -25 -98 -68 -127 -122 -20 -38 -23 -58 -22 -144 0 -89 4 -108 32 -175 18 -41 32 -79 32 -85 0 -6 -11 -17 -24 -25 -76 -47 -145 -183 -131 -258 23 -123 142 -224 260 -220 l50 1 -55 6 c-56 6 -136 45 -176 85 -45 46 -64 91 -64 155 0 78 23 126 96 196 50 50 67 86 45 100 -23 14 -55 142 -56 220 0 125 44 204 140 249 65 31 112 33 184 6 81 -29 136 -81 182 -172 30 -58 47 -69 79 -47 12 8 8 9 -14 7 -26 -3 -32 3 -62 60 -40 75 -79 114 -156 153 -70 35 -151 39 -213 10z" transform="translate(0,186) scale(0.1,-0.1)" stroke="none" fill="#5DB4B7"/>

<path d="M552 1363 c-5 -10 -7 -24 -5 -30 3 -8 -3 -13 -14 -13 -10 0 -29 -7 -42 -16 -17 -13 -21 -22 -16 -42 3 -14 14 -31 23 -38 13 -10 14 -16 6 -24 -28 -28 22 -84 51 -60 12 10 17 7 24 -13 5 -14 16 -27 23 -30 16 -5 49 11 64 31 6 8 17 12 25 10 8 -3 22 -1 31 3 32 17 16 145 -25 197 -13 16 -37 -3 -37 -29 0 -11 -7 -19 -15 -19 -18 0 -18 2 -4 34 9 20 9 29 -1 41 -18 21 -77 20 -88 -2z m38 -77 c0 -3 -4 -8 -10 -11 -5 -3 -10 -1 -10 4 0 6 5 11 10 11 6 0 10 -2 10 -4z m-15 -74 c-8 -8 -25 10 -19 20 4 6 9 5 15 -3 4 -7 6 -15 4 -17z m25 -22 c0 -5 -4 -10 -10 -10 -5 0 -10 5 -10 10 0 6 5 10 10 10 6 0 10 -4 10 -10z m67 -26 c-9 -9 -28 6 -21 18 4 6 10 6 17 -1 6 -6 8 -13 4 -17z" transform="translate(0,186) scale(0.1,-0.1)" stroke="none" fill="#2A8B8F"/>

<path d="M531 1406 c-19 -7 -36 -17 -38 -23 -2 -6 -12 -9 -22 -6 -24 6 -97 -77 -111 -126 -13 -46 -13 -128 0 -136 6 -3 10 -17 10 -30 0 -32 78 -109 137 -135 54 -24 100 -25 166 -5 71 21 100 42 138 97 31 47 34 57 33 122 0 57 -5 79 -25 112 -37 62 -65 94 -83 94 -9 0 -16 4 -16 9 0 10 -106 41 -136 40 -10 0 -34 -6 -53 -13z m133 -38 c34 -16 48 -31 64 -67 21 -48 28 -146 11 -156 -5 -4 -7 -10 -5 -14 3 -4 -8 -5 -24 -3 -19 3 -35 -3 -49 -17 -39 -39 -179 -13 -205 38 -25 47 -24 122 2 147 9 10 17 22 17 28 0 6 15 19 34 28 19 9 39 22 44 27 17 17 63 13 111 -11z" transform="translate(0,186) scale(0.1,-0.1)" stroke="none" fill="#5DB4B7"/>

<path d="M504 750 c-14 -14 -137 -39 -166 -33 -40 8 -49 -16 -55 -139 -4 -85 -2 -131 10 -184 24 -105 77 -223 120 -271 30 -33 84 -31 118 5 44 45 119 153 150 214 36 71 79 218 79 268 0 35 -3 39 -32 45 -41 9 -125 53 -158 83 -27 24 -50 28 -66 12z" transform="translate(0,186) scale(0.1,-0.1)" stroke="none" fill="#2A8B8F"/>

<path d="M283 1744 c-95 -46 -138 -125 -138 -249 1 -78 33 -206 56 -220 22 -14 5 -50 -45 -100 -73 -70 -96 -118 -96 -196 0 -93 39 -151 142 -208 51 -29 64 -32 145 -32 68 -1 98 4 133 20 58 27 61 26 101 -9 42 -38 120 -75 177 -85 156 -26 288 142 252 321 -5 27 -12 58 -15 69 -4 14 4 33 25 60 92 116 97 267 12 358 -67 72 -175 89 -324 52 -25 -7 -29 -3 -56 51 -47 93 -102 145 -183 174 -71 26 -123 25 -186 -6z m379 -340 c32 -9 58 -21 58 -25 0 -5 7 -9 16 -9 18 0 46 -32 83 -94 20 -33 25 -55 25 -112 1 -65 -2 -75 -33 -122 -38 -55 -67 -76 -138 -97 -66 -20 -112 -19 -166 5 -59 26 -137 103 -137 135 0 13 -4 27 -10 30 -13 8 -13 90 0 136 14 49 87 132 111 126 10 -3 20 0 22 6 4 12 62 35 91 36 11 1 46 -6 78 -15z" transform="translate(0,186) scale(0.1,-0.1)" stroke="none" fill="#E9E4E1"/>

</g>

<g id="2" transform="translate(0,372.0)scale(0.8,0.8)">

<path d="M770 1551 c-17 -5 5 -8 65 -8 71 0 98 -4 130 -21 70 -36 107 -86 125 -172 l8 -35 1 33 c2 70 -59 158 -130 186 -46 19 -164 29 -199 17z" transform="translate(0,186) scale(0.1,-0.1)" stroke="none" fill="#5DB4B7"/>

<path d="M1092 1272 c-2 -42 -32 -106 -72 -157 -21 -27 -29 -46 -25 -60 3 -11 10 -42 15 -69 36 -178 -94 -343 -252 -322 -38 5 -40 4 -13 -5 37 -12 105 -5 146 17 107 55 157 186 129 336 -10 49 -10 72 -3 76 6 4 27 37 48 74 28 52 35 75 32 105 -4 37 -4 37 -5 5z" transform="translate(0,186) scale(0.1,-0.1)" stroke="none" fill="#5DB4B7"/>

<path d="M285 1761 c-53 -25 -98 -68 -127 -122 -20 -38 -23 -58 -22 -144 0 -89 4 -108 32 -175 18 -41 32 -79 32 -85 0 -6 -11 -17 -24 -25 -76 -47 -145 -183 -131 -258 23 -123 142 -224 260 -220 l50 1 -55 6 c-56 6 -136 45 -176 85 -45 46 -64 91 -64 155 0 78 23 126 96 196 50 50 67 86 45 100 -23 14 -55 142 -56 220 0 125 44 204 140 249 65 31 112 33 184 6 81 -29 136 -81 182 -172 30 -58 47 -69 79 -47 12 8 8 9 -14 7 -26 -3 -32 3 -62 60 -40 75 -79 114 -156 153 -70 35 -151 39 -213 10z" transform="translate(0,186) scale(0.1,-0.1)" stroke="none" fill="#5DB4B7"/>

<path d="M552 1363 c-5 -10 -7 -24 -5 -30 3 -8 -3 -13 -14 -13 -10 0 -29 -7 -42 -16 -17 -13 -21 -22 -16 -42 3 -14 14 -31 23 -38 13 -10 14 -16 6 -24 -28 -28 22 -84 51 -60 12 10 17 7 24 -13 5 -14 16 -27 23 -30 16 -5 49 11 64 31 6 8 17 12 25 10 8 -3 22 -1 31 3 32 17 16 145 -25 197 -13 16 -37 -3 -37 -29 0 -11 -7 -19 -15 -19 -18 0 -18 2 -4 34 9 20 9 29 -1 41 -18 21 -77 20 -88 -2z m38 -77 c0 -3 -4 -8 -10 -11 -5 -3 -10 -1 -10 4 0 6 5 11 10 11 6 0 10 -2 10 -4z m-15 -74 c-8 -8 -25 10 -19 20 4 6 9 5 15 -3 4 -7 6 -15 4 -17z m25 -22 c0 -5 -4 -10 -10 -10 -5 0 -10 5 -10 10 0 6 5 10 10 10 6 0 10 -4 10 -10z m67 -26 c-9 -9 -28 6 -21 18 4 6 10 6 17 -1 6 -6 8 -13 4 -17z" transform="translate(0,186) scale(0.1,-0.1)" stroke="none" fill="#2A8B8F"/>

<path d="M531 1406 c-19 -7 -36 -17 -38 -23 -2 -6 -12 -9 -22 -6 -24 6 -97 -77 -111 -126 -13 -46 -13 -128 0 -136 6 -3 10 -17 10 -30 0 -32 78 -109 137 -135 54 -24 100 -25 166 -5 71 21 100 42 138 97 31 47 34 57 33 122 0 57 -5 79 -25 112 -37 62 -65 94 -83 94 -9 0 -16 4 -16 9 0 10 -106 41 -136 40 -10 0 -34 -6 -53 -13z m133 -38 c34 -16 48 -31 64 -67 21 -48 28 -146 11 -156 -5 -4 -7 -10 -5 -14 3 -4 -8 -5 -24 -3 -19 3 -35 -3 -49 -17 -39 -39 -179 -13 -205 38 -25 47 -24 122 2 147 9 10 17 22 17 28 0 6 15 19 34 28 19 9 39 22 44 27 17 17 63 13 111 -11z" transform="translate(0,186) scale(0.1,-0.1)" stroke="none" fill="#5DB4B7"/>

<path d="M504 750 c-14 -14 -137 -39 -166 -33 -40 8 -49 -16 -55 -139 -4 -85 -2 -131 10 -184 24 -105 77 -223 120 -271 30 -33 84 -31 118 5 44 45 119 153 150 214 36 71 79 218 79 268 0 35 -3 39 -32 45 -41 9 -125 53 -158 83 -27 24 -50 28 -66 12z" transform="translate(0,186) scale(0.1,-0.1)" stroke="none" fill="#2A8B8F"/>

<path d="M283 1744 c-95 -46 -138 -125 -138 -249 1 -78 33 -206 56 -220 22 -14 5 -50 -45 -100 -73 -70 -96 -118 -96 -196 0 -93 39 -151 142 -208 51 -29 64 -32 145 -32 68 -1 98 4 133 20 58 27 61 26 101 -9 42 -38 120 -75 177 -85 156 -26 288 142 252 321 -5 27 -12 58 -15 69 -4 14 4 33 25 60 92 116 97 267 12 358 -67 72 -175 89 -324 52 -25 -7 -29 -3 -56 51 -47 93 -102 145 -183 174 -71 26 -123 25 -186 -6z m379 -340 c32 -9 58 -21 58 -25 0 -5 7 -9 16 -9 18 0 46 -32 83 -94 20 -33 25 -55 25 -112 1 -65 -2 -75 -33 -122 -38 -55 -67 -76 -138 -97 -66 -20 -112 -19 -166 5 -59 26 -137 103 -137 135 0 13 -4 27 -10 30 -13 8 -13 90 0 136 14 49 87 132 111 126 10 -3 20 0 22 6 4 12 62 35 91 36 11 1 46 -6 78 -15z" transform="translate(0,186) scale(0.1,-0.1)" stroke="none" fill="#E9E4E1"/>

</g>

<g id="3" transform="translate(0,558.0)scale(0.8,0.8)">

<path d="M770 1551 c-17 -5 5 -8 65 -8 71 0 98 -4 130 -21 70 -36 107 -86 125 -172 l8 -35 1 33 c2 70 -59 158 -130 186 -46 19 -164 29 -199 17z" transform="translate(0,186) scale(0.1,-0.1)" stroke="none" fill="#5DB4B7"/>

<path d="M1092 1272 c-2 -42 -32 -106 -72 -157 -21 -27 -29 -46 -25 -60 3 -11 10 -42 15 -69 36 -178 -94 -343 -252 -322 -38 5 -40 4 -13 -5 37 -12 105 -5 146 17 107 55 157 186 129 336 -10 49 -10 72 -3 76 6 4 27 37 48 74 28 52 35 75 32 105 -4 37 -4 37 -5 5z" transform="translate(0,186) scale(0.1,-0.1)" stroke="none" fill="#5DB4B7"/>

<path d="M285 1761 c-53 -25 -98 -68 -127 -122 -20 -38 -23 -58 -22 -144 0 -89 4 -108 32 -175 18 -41 32 -79 32 -85 0 -6 -11 -17 -24 -25 -76 -47 -145 -183 -131 -258 23 -123 142 -224 260 -220 l50 1 -55 6 c-56 6 -136 45 -176 85 -45 46 -64 91 -64 155 0 78 23 126 96 196 50 50 67 86 45 100 -23 14 -55 142 -56 220 0 125 44 204 140 249 65 31 112 33 184 6 81 -29 136 -81 182 -172 30 -58 47 -69 79 -47 12 8 8 9 -14 7 -26 -3 -32 3 -62 60 -40 75 -79 114 -156 153 -70 35 -151 39 -213 10z" transform="translate(0,186) scale(0.1,-0.1)" stroke="none" fill="#5DB4B7"/>

<path d="M552 1363 c-5 -10 -7 -24 -5 -30 3 -8 -3 -13 -14 -13 -10 0 -29 -7 -42 -16 -17 -13 -21 -22 -16 -42 3 -14 14 -31 23 -38 13 -10 14 -16 6 -24 -28 -28 22 -84 51 -60 12 10 17 7 24 -13 5 -14 16 -27 23 -30 16 -5 49 11 64 31 6 8 17 12 25 10 8 -3 22 -1 31 3 32 17 16 145 -25 197 -13 16 -37 -3 -37 -29 0 -11 -7 -19 -15 -19 -18 0 -18 2 -4 34 9 20 9 29 -1 41 -18 21 -77 20 -88 -2z m38 -77 c0 -3 -4 -8 -10 -11 -5 -3 -10 -1 -10 4 0 6 5 11 10 11 6 0 10 -2 10 -4z m-15 -74 c-8 -8 -25 10 -19 20 4 6 9 5 15 -3 4 -7 6 -15 4 -17z m25 -22 c0 -5 -4 -10 -10 -10 -5 0 -10 5 -10 10 0 6 5 10 10 10 6 0 10 -4 10 -10z m67 -26 c-9 -9 -28 6 -21 18 4 6 10 6 17 -1 6 -6 8 -13 4 -17z" transform="translate(0,186) scale(0.1,-0.1)" stroke="none" fill="#2A8B8F"/>

<path d="M531 1406 c-19 -7 -36 -17 -38 -23 -2 -6 -12 -9 -22 -6 -24 6 -97 -77 -111 -126 -13 -46 -13 -128 0 -136 6 -3 10 -17 10 -30 0 -32 78 -109 137 -135 54 -24 100 -25 166 -5 71 21 100 42 138 97 31 47 34 57 33 122 0 57 -5 79 -25 112 -37 62 -65 94 -83 94 -9 0 -16 4 -16 9 0 10 -106 41 -136 40 -10 0 -34 -6 -53 -13z m133 -38 c34 -16 48 -31 64 -67 21 -48 28 -146 11 -156 -5 -4 -7 -10 -5 -14 3 -4 -8 -5 -24 -3 -19 3 -35 -3 -49 -17 -39 -39 -179 -13 -205 38 -25 47 -24 122 2 147 9 10 17 22 17 28 0 6 15 19 34 28 19 9 39 22 44 27 17 17 63 13 111 -11z" transform="translate(0,186) scale(0.1,-0.1)" stroke="none" fill="#5DB4B7"/>

<path d="M504 750 c-14 -14 -137 -39 -166 -33 -40 8 -49 -16 -55 -139 -4 -85 -2 -131 10 -184 24 -105 77 -223 120 -271 30 -33 84 -31 118 5 44 45 119 153 150 214 36 71 79 218 79 268 0 35 -3 39 -32 45 -41 9 -125 53 -158 83 -27 24 -50 28 -66 12z" transform="translate(0,186) scale(0.1,-0.1)" stroke="none" fill="#2A8B8F"/>

<path d="M283 1744 c-95 -46 -138 -125 -138 -249 1 -78 33 -206 56 -220 22 -14 5 -50 -45 -100 -73 -70 -96 -118 -96 -196 0 -93 39 -151 142 -208 51 -29 64 -32 145 -32 68 -1 98 4 133 20 58 27 61 26 101 -9 42 -38 120 -75 177 -85 156 -26 288 142 252 321 -5 27 -12 58 -15 69 -4 14 4 33 25 60 92 116 97 267 12 358 -67 72 -175 89 -324 52 -25 -7 -29 -3 -56 51 -47 93 -102 145 -183 174 -71 26 -123 25 -186 -6z m379 -340 c32 -9 58 -21 58 -25 0 -5 7 -9 16 -9 18 0 46 -32 83 -94 20 -33 25 -55 25 -112 1 -65 -2 -75 -33 -122 -38 -55 -67 -76 -138 -97 -66 -20 -112 -19 -166 5 -59 26 -137 103 -137 135 0 13 -4 27 -10 30 -13 8 -13 90 0 136 14 49 87 132 111 126 10 -3 20 0 22 6 4 12 62 35 91 36 11 1 46 -6 78 -15z" transform="translate(0,186) scale(0.1,-0.1)" stroke="none" fill="#E9E4E1"/>

</g>

<g id="4" transform="translate(0,744.0)scale(0.8,0.8)">

<path d="M770 1551 c-17 -5 5 -8 65 -8 71 0 98 -4 130 -21 70 -36 107 -86 125 -172 l8 -35 1 33 c2 70 -59 158 -130 186 -46 19 -164 29 -199 17z" transform="translate(0,186) scale(0.1,-0.1)" stroke="none" fill="#5DB4B7"/>

<path d="M1092 1272 c-2 -42 -32 -106 -72 -157 -21 -27 -29 -46 -25 -60 3 -11 10 -42 15 -69 36 -178 -94 -343 -252 -322 -38 5 -40 4 -13 -5 37 -12 105 -5 146 17 107 55 157 186 129 336 -10 49 -10 72 -3 76 6 4 27 37 48 74 28 52 35 75 32 105 -4 37 -4 37 -5 5z" transform="translate(0,186) scale(0.1,-0.1)" stroke="none" fill="#5DB4B7"/>

<path d="M285 1761 c-53 -25 -98 -68 -127 -122 -20 -38 -23 -58 -22 -144 0 -89 4 -108 32 -175 18 -41 32 -79 32 -85 0 -6 -11 -17 -24 -25 -76 -47 -145 -183 -131 -258 23 -123 142 -224 260 -220 l50 1 -55 6 c-56 6 -136 45 -176 85 -45 46 -64 91 -64 155 0 78 23 126 96 196 50 50 67 86 45 100 -23 14 -55 142 -56 220 0 125 44 204 140 249 65 31 112 33 184 6 81 -29 136 -81 182 -172 30 -58 47 -69 79 -47 12 8 8 9 -14 7 -26 -3 -32 3 -62 60 -40 75 -79 114 -156 153 -70 35 -151 39 -213 10z" transform="translate(0,186) scale(0.1,-0.1)" stroke="none" fill="#5DB4B7"/>

<path d="M552 1363 c-5 -10 -7 -24 -5 -30 3 -8 -3 -13 -14 -13 -10 0 -29 -7 -42 -16 -17 -13 -21 -22 -16 -42 3 -14 14 -31 23 -38 13 -10 14 -16 6 -24 -28 -28 22 -84 51 -60 12 10 17 7 24 -13 5 -14 16 -27 23 -30 16 -5 49 11 64 31 6 8 17 12 25 10 8 -3 22 -1 31 3 32 17 16 145 -25 197 -13 16 -37 -3 -37 -29 0 -11 -7 -19 -15 -19 -18 0 -18 2 -4 34 9 20 9 29 -1 41 -18 21 -77 20 -88 -2z m38 -77 c0 -3 -4 -8 -10 -11 -5 -3 -10 -1 -10 4 0 6 5 11 10 11 6 0 10 -2 10 -4z m-15 -74 c-8 -8 -25 10 -19 20 4 6 9 5 15 -3 4 -7 6 -15 4 -17z m25 -22 c0 -5 -4 -10 -10 -10 -5 0 -10 5 -10 10 0 6 5 10 10 10 6 0 10 -4 10 -10z m67 -26 c-9 -9 -28 6 -21 18 4 6 10 6 17 -1 6 -6 8 -13 4 -17z" transform="translate(0,186) scale(0.1,-0.1)" stroke="none" fill="#2A8B8F"/>

<path d="M531 1406 c-19 -7 -36 -17 -38 -23 -2 -6 -12 -9 -22 -6 -24 6 -97 -77 -111 -126 -13 -46 -13 -128 0 -136 6 -3 10 -17 10 -30 0 -32 78 -109 137 -135 54 -24 100 -25 166 -5 71 21 100 42 138 97 31 47 34 57 33 122 0 57 -5 79 -25 112 -37 62 -65 94 -83 94 -9 0 -16 4 -16 9 0 10 -106 41 -136 40 -10 0 -34 -6 -53 -13z m133 -38 c34 -16 48 -31 64 -67 21 -48 28 -146 11 -156 -5 -4 -7 -10 -5 -14 3 -4 -8 -5 -24 -3 -19 3 -35 -3 -49 -17 -39 -39 -179 -13 -205 38 -25 47 -24 122 2 147 9 10 17 22 17 28 0 6 15 19 34 28 19 9 39 22 44 27 17 17 63 13 111 -11z" transform="translate(0,186) scale(0.1,-0.1)" stroke="none" fill="#5DB4B7"/>

<path d="M504 750 c-14 -14 -137 -39 -166 -33 -40 8 -49 -16 -55 -139 -4 -85 -2 -131 10 -184 24 -105 77 -223 120 -271 30 -33 84 -31 118 5 44 45 119 153 150 214 36 71 79 218 79 268 0 35 -3 39 -32 45 -41 9 -125 53 -158 83 -27 24 -50 28 -66 12z" transform="translate(0,186) scale(0.1,-0.1)" stroke="none" fill="#2A8B8F"/>

<path d="M283 1744 c-95 -46 -138 -125 -138 -249 1 -78 33 -206 56 -220 22 -14 5 -50 -45 -100 -73 -70 -96 -118 -96 -196 0 -93 39 -151 142 -208 51 -29 64 -32 145 -32 68 -1 98 4 133 20 58 27 61 26 101 -9 42 -38 120 -75 177 -85 156 -26 288 142 252 321 -5 27 -12 58 -15 69 -4 14 4 33 25 60 92 116 97 267 12 358 -67 72 -175 89 -324 52 -25 -7 -29 -3 -56 51 -47 93 -102 145 -183 174 -71 26 -123 25 -186 -6z m379 -340 c32 -9 58 -21 58 -25 0 -5 7 -9 16 -9 18 0 46 -32 83 -94 20 -33 25 -55 25 -112 1 -65 -2 -75 -33 -122 -38 -55 -67 -76 -138 -97 -66 -20 -112 -19 -166 5 -59 26 -137 103 -137 135 0 13 -4 27 -10 30 -13 8 -13 90 0 136 14 49 87 132 111 126 10 -3 20 0 22 6 4 12 62 35 91 36 11 1 46 -6 78 -15z" transform="translate(0,186) scale(0.1,-0.1)" stroke="none" fill="#E9E4E1"/>

</g>

</g>
<g id="col1" transform="translate(116, -69.0)">
<g id="0" transform="translate(0,0.0)scale(0.8,0.8)">

<path d="M770 1551 c-17 -5 5 -8 65 -8 71 0 98 -4 130 -21 70 -36 107 -86 125 -172 l8 -35 1 33 c2 70 -59 158 -130 186 -46 19 -164 29 -199 17z" transform="translate(0,186) scale(0.1,-0.1)" stroke="none" fill="#5DB4B7"/>

<path d="M1092 1272 c-2 -42 -32 -106 -72 -157 -21 -27 -29 -46 -25 -60 3 -11 10 -42 15 -69 36 -178 -94 -343 -252 -322 -38 5 -40 4 -13 -5 37 -12 105 -5 146 17 107 55 157 186 129 336 -10 49 -10 72 -3 76 6 4 27 37 48 74 28 52 35 75 32 105 -4 37 -4 37 -5 5z" transform="translate(0,186) scale(0.1,-0.1)" stroke="none" fill="#5DB4B7"/>

<path d="M285 1761 c-53 -25 -98 -68 -127 -122 -20 -38 -23 -58 -22 -144 0 -89 4 -108 32 -175 18 -41 32 -79 32 -85 0 -6 -11 -17 -24 -25 -76 -47 -145 -183 -131 -258 23 -123 142 -224 260 -220 l50 1 -55 6 c-56 6 -136 45 -176 85 -45 46 -64 91 -64 155 0 78 23 126 96 196 50 50 67 86 45 100 -23 14 -55 142 -56 220 0 125 44 204 140 249 65 31 112 33 184 6 81 -29 136 -81 182 -172 30 -58 47 -69 79 -47 12 8 8 9 -14 7 -26 -3 -32 3 -62 60 -40 75 -79 114 -156 153 -70 35 -151 39 -213 10z" transform="translate(0,186) scale(0.1,-0.1)" stroke="none" fill="#5DB4B7"/>

<path d="M552 1363 c-5 -10 -7 -24 -5 -30 3 -8 -3 -13 -14 -13 -10 0 -29 -7 -42 -16 -17 -13 -21 -22 -16 -42 3 -14 14 -31 23 -38 13 -10 14 -16 6 -24 -28 -28 22 -84 51 -60 12 10 17 7 24 -13 5 -14 16 -27 23 -30 16 -5 49 11 64 31 6 8 17 12 25 10 8 -3 22 -1 31 3 32 17 16 145 -25 197 -13 16 -37 -3 -37 -29 0 -11 -7 -19 -15 -19 -18 0 -18 2 -4 34 9 20 9 29 -1 41 -18 21 -77 20 -88 -2z m38 -77 c0 -3 -4 -8 -10 -11 -5 -3 -10 -1 -10 4 0 6 5 11 10 11 6 0 10 -2 10 -4z m-15 -74 c-8 -8 -25 10 -19 20 4 6 9 5 15 -3 4 -7 6 -15 4 -17z m25 -22 c0 -5 -4 -10 -10 -10 -5 0 -10 5 -10 10 0 6 5 10 10 10 6 0 10 -4 10 -10z m67 -26 c-9 -9 -28 6 -21 18 4 6 10 6 17 -1 6 -6 8 -13 4 -17z" transform="translate(0,186) scale(0.1,-0.1)" stroke="none" fill="#2A8B8F"/>

<path d="M531 1406 c-19 -7 -36 -17 -38 -23 -2 -6 -12 -9 -22 -6 -24 6 -97 -77 -111 -126 -13 -46 -13 -128 0 -136 6 -3 10 -17 10 -30 0 -32 78 -109 137 -135 54 -24 100 -25 166 -5 71 21 100 42 138 97 31 47 34 57 33 122 0 57 -5 79 -25 112 -37 62 -65 94 -83 94 -9 0 -16 4 -16 9 0 10 -106 41 -136 40 -10 0 -34 -6 -53 -13z m133 -38 c34 -16 48 -31 64 -67 21 -48 28 -146 11 -156 -5 -4 -7 -10 -5 -14 3 -4 -8 -5 -24 -3 -19 3 -35 -3 -49 -17 -39 -39 -179 -13 -205 38 -25 47 -24 122 2 147 9 10 17 22 17 28 0 6 15 19 34 28 19 9 39 22 44 27 17 17 63 13 111 -11z" transform="translate(0,186) scale(0.1,-0.1)" stroke="none" fill="#5DB4B7"/>

<path d="M504 750 c-14 -14 -137 -39 -166 -33 -40 8 -49 -16 -55 -139 -4 -85 -2 -131 10 -184 24 -105 77 -223 120 -271 30 -33 84 -31 118 5 44 45 119 153 150 214 36 71 79 218 79 268 0 35 -3 39 -32 45 -41 9 -125 53 -158 83 -27 24 -50 28 -66 12z" transform="translate(0,186) scale(0.1,-0.1)" stroke="none" fill="#2A8B8F"/>

<path d="M283 1744 c-95 -46 -138 -125 -138 -249 1 -78 33 -206 56 -220 22 -14 5 -50 -45 -100 -73 -70 -96 -118 -96 -196 0 -93 39 -151 142 -208 51 -29 64 -32 145 -32 68 -1 98 4 133 20 58 27 61 26 101 -9 42 -38 120 -75 177 -85 156 -26 288 142 252 321 -5 27 -12 58 -15 69 -4 14 4 33 25 60 92 116 97 267 12 358 -67 72 -175 89 -324 52 -25 -7 -29 -3 -56 51 -47 93 -102 145 -183 174 -71 26 -123 25 -186 -6z m379 -340 c32 -9 58 -21 58 -25 0 -5 7 -9 16 -9 18 0 46 -32 83 -94 20 -33 25 -55 25 -112 1 -65 -2 -75 -33 -122 -38 -55 -67 -76 -138 -97 -66 -20 -112 -19 -166 5 -59 26 -137 103 -137 135 0 13 -4 27 -10 30 -13 8 -13 90 0 136 14 49 87 132 111 126 10 -3 20 0 22 6 4 12 62 35 91 36 11 1 46 -6 78 -15z" transform="translate(0,186) scale(0.1,-0.1)" stroke="none" fill="#E9E4E1"/>

</g>

<g id="1" transform="translate(0,186.0)scale(0.8,0.8)">

<path d="M770 1551 c-17 -5 5 -8 65 -8 71 0 98 -4 130 -21 70 -36 107 -86 125 -172 l8 -35 1 33 c2 70 -59 158 -130 186 -46 19 -164 29 -199 17z" transform="translate(0,186) scale(0.1,-0.1)" stroke="none" fill="#5DB4B7"/>

<path d="M1092 1272 c-2 -42 -32 -106 -72 -157 -21 -27 -29 -46 -25 -60 3 -11 10 -42 15 -69 36 -178 -94 -343 -252 -322 -38 5 -40 4 -13 -5 37 -12 105 -5 146 17 107 55 157 186 129 336 -10 49 -10 72 -3 76 6 4 27 37 48 74 28 52 35 75 32 105 -4 37 -4 37 -5 5z" transform="translate(0,186) scale(0.1,-0.1)" stroke="none" fill="#5DB4B7"/>

<path d="M285 1761 c-53 -25 -98 -68 -127 -122 -20 -38 -23 -58 -22 -144 0 -89 4 -108 32 -175 18 -41 32 -79 32 -85 0 -6 -11 -17 -24 -25 -76 -47 -145 -183 -131 -258 23 -123 142 -224 260 -220 l50 1 -55 6 c-56 6 -136 45 -176 85 -45 46 -64 91 -64 155 0 78 23 126 96 196 50 50 67 86 45 100 -23 14 -55 142 -56 220 0 125 44 204 140 249 65 31 112 33 184 6 81 -29 136 -81 182 -172 30 -58 47 -69 79 -47 12 8 8 9 -14 7 -26 -3 -32 3 -62 60 -40 75 -79 114 -156 153 -70 35 -151 39 -213 10z" transform="translate(0,186) scale(0.1,-0.1)" stroke="none" fill="#5DB4B7"/>

<path d="M552 1363 c-5 -10 -7 -24 -5 -30 3 -8 -3 -13 -14 -13 -10 0 -29 -7 -42 -16 -17 -13 -21 -22 -16 -42 3 -14 14 -31 23 -38 13 -10 14 -16 6 -24 -28 -28 22 -84 51 -60 12 10 17 7 24 -13 5 -14 16 -27 23 -30 16 -5 49 11 64 31 6 8 17 12 25 10 8 -3 22 -1 31 3 32 17 16 145 -25 197 -13 16 -37 -3 -37 -29 0 -11 -7 -19 -15 -19 -18 0 -18 2 -4 34 9 20 9 29 -1 41 -18 21 -77 20 -88 -2z m38 -77 c0 -3 -4 -8 -10 -11 -5 -3 -10 -1 -10 4 0 6 5 11 10 11 6 0 10 -2 10 -4z m-15 -74 c-8 -8 -25 10 -19 20 4 6 9 5 15 -3 4 -7 6 -15 4 -17z m25 -22 c0 -5 -4 -10 -10 -10 -5 0 -10 5 -10 10 0 6 5 10 10 10 6 0 10 -4 10 -10z m67 -26 c-9 -9 -28 6 -21 18 4 6 10 6 17 -1 6 -6 8 -13 4 -17z" transform="translate(0,186) scale(0.1,-0.1)" stroke="none" fill="#2A8B8F"/>

<path d="M531 1406 c-19 -7 -36 -17 -38 -23 -2 -6 -12 -9 -22 -6 -24 6 -97 -77 -111 -126 -13 -46 -13 -128 0 -136 6 -3 10 -17 10 -30 0 -32 78 -109 137 -135 54 -24 100 -25 166 -5 71 21 100 42 138 97 31 47 34 57 33 122 0 57 -5 79 -25 112 -37 62 -65 94 -83 94 -9 0 -16 4 -16 9 0 10 -106 41 -136 40 -10 0 -34 -6 -53 -13z m133 -38 c34 -16 48 -31 64 -67 21 -48 28 -146 11 -156 -5 -4 -7 -10 -5 -14 3 -4 -8 -5 -24 -3 -19 3 -35 -3 -49 -17 -39 -39 -179 -13 -205 38 -25 47 -24 122 2 147 9 10 17 22 17 28 0 6 15 19 34 28 19 9 39 22 44 27 17 17 63 13 111 -11z" transform="translate(0,186) scale(0.1,-0.1)" stroke="none" fill="#5DB4B7"/>

<path d="M504 750 c-14 -14 -137 -39 -166 -33 -40 8 -49 -16 -55 -139 -4 -85 -2 -131 10 -184 24 -105 77 -223 120 -271 30 -33 84 -31 118 5 44 45 119 153 150 214 36 71 79 218 79 268 0 35 -3 39 -32 45 -41 9 -125 53 -158 83 -27 24 -50 28 -66 12z" transform="translate(0,186) scale(0.1,-0.1)" stroke="none" fill="#2A8B8F"/>

<path d="M283 1744 c-95 -46 -138 -125 -138 -249 1 -78 33 -206 56 -220 22 -14 5 -50 -45 -100 -73 -70 -96 -118 -96 -196 0 -93 39 -151 142 -208 51 -29 64 -32 145 -32 68 -1 98 4 133 20 58 27 61 26 101 -9 42 -38 120 -75 177 -85 156 -26 288 142 252 321 -5 27 -12 58 -15 69 -4 14 4 33 25 60 92 116 97 267 12 358 -67 72 -175 89 -324 52 -25 -7 -29 -3 -56 51 -47 93 -102 145 -183 174 -71 26 -123 25 -186 -6z m379 -340 c32 -9 58 -21 58 -25 0 -5 7 -9 16 -9 18 0 46 -32 83 -94 20 -33 25 -55 25 -112 1 -65 -2 -75 -33 -122 -38 -55 -67 -76 -138 -97 -66 -20 -112 -19 -166 5 -59 26 -137 103 -137 135 0 13 -4 27 -10 30 -13 8 -13 90 0 136 14 49 87 132 111 126 10 -3 20 0 22 6 4 12 62 35 91 36 11 1 46 -6 78 -15z" transform="translate(0,186) scale(0.1,-0.1)" stroke="none" fill="#E9E4E1"/>

</g>

<g id="2" transform="translate(0,372.0)scale(0.8,0.8)">

<path d="M770 1551 c-17 -5 5 -8 65 -8 71 0 98 -4 130 -21 70 -36 107 -86 125 -172 l8 -35 1 33 c2 70 -59 158 -130 186 -46 19 -164 29 -199 17z" transform="translate(0,186) scale(0.1,-0.1)" stroke="none" fill="#5DB4B7"/>

<path d="M1092 1272 c-2 -42 -32 -106 -72 -157 -21 -27 -29 -46 -25 -60 3 -11 10 -42 15 -69 36 -178 -94 -343 -252 -322 -38 5 -40 4 -13 -5 37 -12 105 -5 146 17 107 55 157 186 129 336 -10 49 -10 72 -3 76 6 4 27 37 48 74 28 52 35 75 32 105 -4 37 -4 37 -5 5z" transform="translate(0,186) scale(0.1,-0.1)" stroke="none" fill="#5DB4B7"/>

<path d="M285 1761 c-53 -25 -98 -68 -127 -122 -20 -38 -23 -58 -22 -144 0 -89 4 -108 32 -175 18 -41 32 -79 32 -85 0 -6 -11 -17 -24 -25 -76 -47 -145 -183 -131 -258 23 -123 142 -224 260 -220 l50 1 -55 6 c-56 6 -136 45 -176 85 -45 46 -64 91 -64 155 0 78 23 126 96 196 50 50 67 86 45 100 -23 14 -55 142 -56 220 0 125 44 204 140 249 65 31 112 33 184 6 81 -29 136 -81 182 -172 30 -58 47 -69 79 -47 12 8 8 9 -14 7 -26 -3 -32 3 -62 60 -40 75 -79 114 -156 153 -70 35 -151 39 -213 10z" transform="translate(0,186) scale(0.1,-0.1)" stroke="none" fill="#5DB4B7"/>

<path d="M552 1363 c-5 -10 -7 -24 -5 -30 3 -8 -3 -13 -14 -13 -10 0 -29 -7 -42 -16 -17 -13 -21 -22 -16 -42 3 -14 14 -31 23 -38 13 -10 14 -16 6 -24 -28 -28 22 -84 51 -60 12 10 17 7 24 -13 5 -14 16 -27 23 -30 16 -5 49 11 64 31 6 8 17 12 25 10 8 -3 22 -1 31 3 32 17 16 145 -25 197 -13 16 -37 -3 -37 -29 0 -11 -7 -19 -15 -19 -18 0 -18 2 -4 34 9 20 9 29 -1 41 -18 21 -77 20 -88 -2z m38 -77 c0 -3 -4 -8 -10 -11 -5 -3 -10 -1 -10 4 0 6 5 11 10 11 6 0 10 -2 10 -4z m-15 -74 c-8 -8 -25 10 -19 20 4 6 9 5 15 -3 4 -7 6 -15 4 -17z m25 -22 c0 -5 -4 -10 -10 -10 -5 0 -10 5 -10 10 0 6 5 10 10 10 6 0 10 -4 10 -10z m67 -26 c-9 -9 -28 6 -21 18 4 6 10 6 17 -1 6 -6 8 -13 4 -17z" transform="translate(0,186) scale(0.1,-0.1)" stroke="none" fill="#2A8B8F"/>

<path d="M531 1406 c-19 -7 -36 -17 -38 -23 -2 -6 -12 -9 -22 -6 -24 6 -97 -77 -111 -126 -13 -46 -13 -128 0 -136 6 -3 10 -17 10 -30 0 -32 78 -109 137 -135 54 -24 100 -25 166 -5 71 21 100 42 138 97 31 47 34 57 33 122 0 57 -5 79 -25 112 -37 62 -65 94 -83 94 -9 0 -16 4 -16 9 0 10 -106 41 -136 40 -10 0 -34 -6 -53 -13z m133 -38 c34 -16 48 -31 64 -67 21 -48 28 -146 11 -156 -5 -4 -7 -10 -5 -14 3 -4 -8 -5 -24 -3 -19 3 -35 -3 -49 -17 -39 -39 -179 -13 -205 38 -25 47 -24 122 2 147 9 10 17 22 17 28 0 6 15 19 34 28 19 9 39 22 44 27 17 17 63 13 111 -11z" transform="translate(0,186) scale(0.1,-0.1)" stroke="none" fill="#5DB4B7"/>

<path d="M504 750 c-14 -14 -137 -39 -166 -33 -40 8 -49 -16 -55 -139 -4 -85 -2 -131 10 -184 24 -105 77 -223 120 -271 30 -33 84 -31 118 5 44 45 119 153 150 214 36 71 79 218 79 268 0 35 -3 39 -32 45 -41 9 -125 53 -158 83 -27 24 -50 28 -66 12z" transform="translate(0,186) scale(0.1,-0.1)" stroke="none" fill="#2A8B8F"/>

<path d="M283 1744 c-95 -46 -138 -125 -138 -249 1 -78 33 -206 56 -220 22 -14 5 -50 -45 -100 -73 -70 -96 -118 -96 -196 0 -93 39 -151 142 -208 51 -29 64 -32 145 -32 68 -1 98 4 133 20 58 27 61 26 101 -9 42 -38 120 -75 177 -85 156 -26 288 142 252 321 -5 27 -12 58 -15 69 -4 14 4 33 25 60 92 116 97 267 12 358 -67 72 -175 89 -324 52 -25 -7 -29 -3 -56 51 -47 93 -102 145 -183 174 -71 26 -123 25 -186 -6z m379 -340 c32 -9 58 -21 58 -25 0 -5 7 -9 16 -9 18 0 46 -32 83 -94 20 -33 25 -55 25 -112 1 -65 -2 -75 -33 -122 -38 -55 -67 -76 -138 -97 -66 -20 -112 -19 -166 5 -59 26 -137 103 -137 135 0 13 -4 27 -10 30 -13 8 -13 90 0 136 14 49 87 132 111 126 10 -3 20 0 22 6 4 12 62 35 91 36 11 1 46 -6 78 -15z" transform="translate(0,186) scale(0.1,-0.1)" stroke="none" fill="#E9E4E1"/>

</g>

<g id="3" transform="translate(0,558.0)scale(0.8,0.8)">

<path d="M770 1551 c-17 -5 5 -8 65 -8 71 0 98 -4 130 -21 70 -36 107 -86 125 -172 l8 -35 1 33 c2 70 -59 158 -130 186 -46 19 -164 29 -199 17z" transform="translate(0,186) scale(0.1,-0.1)" stroke="none" fill="#5DB4B7"/>

<path d="M1092 1272 c-2 -42 -32 -106 -72 -157 -21 -27 -29 -46 -25 -60 3 -11 10 -42 15 -69 36 -178 -94 -343 -252 -322 -38 5 -40 4 -13 -5 37 -12 105 -5 146 17 107 55 157 186 129 336 -10 49 -10 72 -3 76 6 4 27 37 48 74 28 52 35 75 32 105 -4 37 -4 37 -5 5z" transform="translate(0,186) scale(0.1,-0.1)" stroke="none" fill="#5DB4B7"/>

<path d="M285 1761 c-53 -25 -98 -68 -127 -122 -20 -38 -23 -58 -22 -144 0 -89 4 -108 32 -175 18 -41 32 -79 32 -85 0 -6 -11 -17 -24 -25 -76 -47 -145 -183 -131 -258 23 -123 142 -224 260 -220 l50 1 -55 6 c-56 6 -136 45 -176 85 -45 46 -64 91 -64 155 0 78 23 126 96 196 50 50 67 86 45 100 -23 14 -55 142 -56 220 0 125 44 204 140 249 65 31 112 33 184 6 81 -29 136 -81 182 -172 30 -58 47 -69 79 -47 12 8 8 9 -14 7 -26 -3 -32 3 -62 60 -40 75 -79 114 -156 153 -70 35 -151 39 -213 10z" transform="translate(0,186) scale(0.1,-0.1)" stroke="none" fill="#5DB4B7"/>

<path d="M552 1363 c-5 -10 -7 -24 -5 -30 3 -8 -3 -13 -14 -13 -10 0 -29 -7 -42 -16 -17 -13 -21 -22 -16 -42 3 -14 14 -31 23 -38 13 -10 14 -16 6 -24 -28 -28 22 -84 51 -60 12 10 17 7 24 -13 5 -14 16 -27 23 -30 16 -5 49 11 64 31 6 8 17 12 25 10 8 -3 22 -1 31 3 32 17 16 145 -25 197 -13 16 -37 -3 -37 -29 0 -11 -7 -19 -15 -19 -18 0 -18 2 -4 34 9 20 9 29 -1 41 -18 21 -77 20 -88 -2z m38 -77 c0 -3 -4 -8 -10 -11 -5 -3 -10 -1 -10 4 0 6 5 11 10 11 6 0 10 -2 10 -4z m-15 -74 c-8 -8 -25 10 -19 20 4 6 9 5 15 -3 4 -7 6 -15 4 -17z m25 -22 c0 -5 -4 -10 -10 -10 -5 0 -10 5 -10 10 0 6 5 10 10 10 6 0 10 -4 10 -10z m67 -26 c-9 -9 -28 6 -21 18 4 6 10 6 17 -1 6 -6 8 -13 4 -17z" transform="translate(0,186) scale(0.1,-0.1)" stroke="none" fill="#2A8B8F"/>

<path d="M531 1406 c-19 -7 -36 -17 -38 -23 -2 -6 -12 -9 -22 -6 -24 6 -97 -77 -111 -126 -13 -46 -13 -128 0 -136 6 -3 10 -17 10 -30 0 -32 78 -109 137 -135 54 -24 100 -25 166 -5 71 21 100 42 138 97 31 47 34 57 33 122 0 57 -5 79 -25 112 -37 62 -65 94 -83 94 -9 0 -16 4 -16 9 0 10 -106 41 -136 40 -10 0 -34 -6 -53 -13z m133 -38 c34 -16 48 -31 64 -67 21 -48 28 -146 11 -156 -5 -4 -7 -10 -5 -14 3 -4 -8 -5 -24 -3 -19 3 -35 -3 -49 -17 -39 -39 -179 -13 -205 38 -25 47 -24 122 2 147 9 10 17 22 17 28 0 6 15 19 34 28 19 9 39 22 44 27 17 17 63 13 111 -11z" transform="translate(0,186) scale(0.1,-0.1)" stroke="none" fill="#5DB4B7"/>

<path d="M504 750 c-14 -14 -137 -39 -166 -33 -40 8 -49 -16 -55 -139 -4 -85 -2 -131 10 -184 24 -105 77 -223 120 -271 30 -33 84 -31 118 5 44 45 119 153 150 214 36 71 79 218 79 268 0 35 -3 39 -32 45 -41 9 -125 53 -158 83 -27 24 -50 28 -66 12z" transform="translate(0,186) scale(0.1,-0.1)" stroke="none" fill="#2A8B8F"/>

<path d="M283 1744 c-95 -46 -138 -125 -138 -249 1 -78 33 -206 56 -220 22 -14 5 -50 -45 -100 -73 -70 -96 -118 -96 -196 0 -93 39 -151 142 -208 51 -29 64 -32 145 -32 68 -1 98 4 133 20 58 27 61 26 101 -9 42 -38 120 -75 177 -85 156 -26 288 142 252 321 -5 27 -12 58 -15 69 -4 14 4 33 25 60 92 116 97 267 12 358 -67 72 -175 89 -324 52 -25 -7 -29 -3 -56 51 -47 93 -102 145 -183 174 -71 26 -123 25 -186 -6z m379 -340 c32 -9 58 -21 58 -25 0 -5 7 -9 16 -9 18 0 46 -32 83 -94 20 -33 25 -55 25 -112 1 -65 -2 -75 -33 -122 -38 -55 -67 -76 -138 -97 -66 -20 -112 -19 -166 5 -59 26 -137 103 -137 135 0 13 -4 27 -10 30 -13 8 -13 90 0 136 14 49 87 132 111 126 10 -3 20 0 22 6 4 12 62 35 91 36 11 1 46 -6 78 -15z" transform="translate(0,186) scale(0.1,-0.1)" stroke="none" fill="#E9E4E1"/>

</g>

<g id="4" transform="translate(0,744.0)scale(0.8,0.8)">

<path d="M770 1551 c-17 -5 5 -8 65 -8 71 0 98 -4 130 -21 70 -36 107 -86 125 -172 l8 -35 1 33 c2 70 -59 158 -130 186 -46 19 -164 29 -199 17z" transform="translate(0,186) scale(0.1,-0.1)" stroke="none" fill="#5DB4B7"/>

<path d="M1092 1272 c-2 -42 -32 -106 -72 -157 -21 -27 -29 -46 -25 -60 3 -11 10 -42 15 -69 36 -178 -94 -343 -252 -322 -38 5 -40 4 -13 -5 37 -12 105 -5 146 17 107 55 157 186 129 336 -10 49 -10 72 -3 76 6 4 27 37 48 74 28 52 35 75 32 105 -4 37 -4 37 -5 5z" transform="translate(0,186) scale(0.1,-0.1)" stroke="none" fill="#5DB4B7"/>

<path d="M285 1761 c-53 -25 -98 -68 -127 -122 -20 -38 -23 -58 -22 -144 0 -89 4 -108 32 -175 18 -41 32 -79 32 -85 0 -6 -11 -17 -24 -25 -76 -47 -145 -183 -131 -258 23 -123 142 -224 260 -220 l50 1 -55 6 c-56 6 -136 45 -176 85 -45 46 -64 91 -64 155 0 78 23 126 96 196 50 50 67 86 45 100 -23 14 -55 142 -56 220 0 125 44 204 140 249 65 31 112 33 184 6 81 -29 136 -81 182 -172 30 -58 47 -69 79 -47 12 8 8 9 -14 7 -26 -3 -32 3 -62 60 -40 75 -79 114 -156 153 -70 35 -151 39 -213 10z" transform="translate(0,186) scale(0.1,-0.1)" stroke="none" fill="#5DB4B7"/>

<path d="M552 1363 c-5 -10 -7 -24 -5 -30 3 -8 -3 -13 -14 -13 -10 0 -29 -7 -42 -16 -17 -13 -21 -22 -16 -42 3 -14 14 -31 23 -38 13 -10 14 -16 6 -24 -28 -28 22 -84 51 -60 12 10 17 7 24 -13 5 -14 16 -27 23 -30 16 -5 49 11 64 31 6 8 17 12 25 10 8 -3 22 -1 31 3 32 17 16 145 -25 197 -13 16 -37 -3 -37 -29 0 -11 -7 -19 -15 -19 -18 0 -18 2 -4 34 9 20 9 29 -1 41 -18 21 -77 20 -88 -2z m38 -77 c0 -3 -4 -8 -10 -11 -5 -3 -10 -1 -10 4 0 6 5 11 10 11 6 0 10 -2 10 -4z m-15 -74 c-8 -8 -25 10 -19 20 4 6 9 5 15 -3 4 -7 6 -15 4 -17z m25 -22 c0 -5 -4 -10 -10 -10 -5 0 -10 5 -10 10 0 6 5 10 10 10 6 0 10 -4 10 -10z m67 -26 c-9 -9 -28 6 -21 18 4 6 10 6 17 -1 6 -6 8 -13 4 -17z" transform="translate(0,186) scale(0.1,-0.1)" stroke="none" fill="#2A8B8F"/>

<path d="M531 1406 c-19 -7 -36 -17 -38 -23 -2 -6 -12 -9 -22 -6 -24 6 -97 -77 -111 -126 -13 -46 -13 -128 0 -136 6 -3 10 -17 10 -30 0 -32 78 -109 137 -135 54 -24 100 -25 166 -5 71 21 100 42 138 97 31 47 34 57 33 122 0 57 -5 79 -25 112 -37 62 -65 94 -83 94 -9 0 -16 4 -16 9 0 10 -106 41 -136 40 -10 0 -34 -6 -53 -13z m133 -38 c34 -16 48 -31 64 -67 21 -48 28 -146 11 -156 -5 -4 -7 -10 -5 -14 3 -4 -8 -5 -24 -3 -19 3 -35 -3 -49 -17 -39 -39 -179 -13 -205 38 -25 47 -24 122 2 147 9 10 17 22 17 28 0 6 15 19 34 28 19 9 39 22 44 27 17 17 63 13 111 -11z" transform="translate(0,186) scale(0.1,-0.1)" stroke="none" fill="#5DB4B7"/>

<path d="M504 750 c-14 -14 -137 -39 -166 -33 -40 8 -49 -16 -55 -139 -4 -85 -2 -131 10 -184 24 -105 77 -223 120 -271 30 -33 84 -31 118 5 44 45 119 153 150 214 36 71 79 218 79 268 0 35 -3 39 -32 45 -41 9 -125 53 -158 83 -27 24 -50 28 -66 12z" transform="translate(0,186) scale(0.1,-0.1)" stroke="none" fill="#2A8B8F"/>

<path d="M283 1744 c-95 -46 -138 -125 -138 -249 1 -78 33 -206 56 -220 22 -14 5 -50 -45 -100 -73 -70 -96 -118 -96 -196 0 -93 39 -151 142 -208 51 -29 64 -32 145 -32 68 -1 98 4 133 20 58 27 61 26 101 -9 42 -38 120 -75 177 -85 156 -26 288 142 252 321 -5 27 -12 58 -15 69 -4 14 4 33 25 60 92 116 97 267 12 358 -67 72 -175 89 -324 52 -25 -7 -29 -3 -56 51 -47 93 -102 145 -183 174 -71 26 -123 25 -186 -6z m379 -340 c32 -9 58 -21 58 -25 0 -5 7 -9 16 -9 18 0 46 -32 83 -94 20 -33 25 -55 25 -112 1 -65 -2 -75 -33 -122 -38 -55 -67 -76 -138 -97 -66 -20 -112 -19 -166 5 -59 26 -137 103 -137 135 0 13 -4 27 -10 30 -13 8 -13 90 0 136 14 49 87 132 111 126 10 -3 20 0 22 6 4 12 62 35 91 36 11 1 46 -6 78 -15z" transform="translate(0,186) scale(0.1,-0.1)" stroke="none" fill="#E9E4E1"/>

</g>

</g>
<g id="col2" transform="translate(232, 24)">
<g id="0" transform="translate(0,0.0)scale(0.8,0.8)">

<path d="M770 1551 c-17 -5 5 -8 65 -8 71 0 98 -4 130 -21 70 -36 107 -86 125 -172 l8 -35 1 33 c2 70 -59 158 -130 186 -46 19 -164 29 -199 17z" transform="translate(0,186) scale(0.1,-0.1)" stroke="none" fill="#5DB4B7"/>

<path d="M1092 1272 c-2 -42 -32 -106 -72 -157 -21 -27 -29 -46 -25 -60 3 -11 10 -42 15 -69 36 -178 -94 -343 -252 -322 -38 5 -40 4 -13 -5 37 -12 105 -5 146 17 107 55 157 186 129 336 -10 49 -10 72 -3 76 6 4 27 37 48 74 28 52 35 75 32 105 -4 37 -4 37 -5 5z" transform="translate(0,186) scale(0.1,-0.1)" stroke="none" fill="#5DB4B7"/>

<path d="M285 1761 c-53 -25 -98 -68 -127 -122 -20 -38 -23 -58 -22 -144 0 -89 4 -108 32 -175 18 -41 32 -79 32 -85 0 -6 -11 -17 -24 -25 -76 -47 -145 -183 -131 -258 23 -123 142 -224 260 -220 l50 1 -55 6 c-56 6 -136 45 -176 85 -45 46 -64 91 -64 155 0 78 23 126 96 196 50 50 67 86 45 100 -23 14 -55 142 -56 220 0 125 44 204 140 249 65 31 112 33 184 6 81 -29 136 -81 182 -172 30 -58 47 -69 79 -47 12 8 8 9 -14 7 -26 -3 -32 3 -62 60 -40 75 -79 114 -156 153 -70 35 -151 39 -213 10z" transform="translate(0,186) scale(0.1,-0.1)" stroke="none" fill="#5DB4B7"/>

<path d="M552 1363 c-5 -10 -7 -24 -5 -30 3 -8 -3 -13 -14 -13 -10 0 -29 -7 -42 -16 -17 -13 -21 -22 -16 -42 3 -14 14 -31 23 -38 13 -10 14 -16 6 -24 -28 -28 22 -84 51 -60 12 10 17 7 24 -13 5 -14 16 -27 23 -30 16 -5 49 11 64 31 6 8 17 12 25 10 8 -3 22 -1 31 3 32 17 16 145 -25 197 -13 16 -37 -3 -37 -29 0 -11 -7 -19 -15 -19 -18 0 -18 2 -4 34 9 20 9 29 -1 41 -18 21 -77 20 -88 -2z m38 -77 c0 -3 -4 -8 -10 -11 -5 -3 -10 -1 -10 4 0 6 5 11 10 11 6 0 10 -2 10 -4z m-15 -74 c-8 -8 -25 10 -19 20 4 6 9 5 15 -3 4 -7 6 -15 4 -17z m25 -22 c0 -5 -4 -10 -10 -10 -5 0 -10 5 -10 10 0 6 5 10 10 10 6 0 10 -4 10 -10z m67 -26 c-9 -9 -28 6 -21 18 4 6 10 6 17 -1 6 -6 8 -13 4 -17z" transform="translate(0,186) scale(0.1,-0.1)" stroke="none" fill="#2A8B8F"/>

<path d="M531 1406 c-19 -7 -36 -17 -38 -23 -2 -6 -12 -9 -22 -6 -24 6 -97 -77 -111 -126 -13 -46 -13 -128 0 -136 6 -3 10 -17 10 -30 0 -32 78 -109 137 -135 54 -24 100 -25 166 -5 71 21 100 42 138 97 31 47 34 57 33 122 0 57 -5 79 -25 112 -37 62 -65 94 -83 94 -9 0 -16 4 -16 9 0 10 -106 41 -136 40 -10 0 -34 -6 -53 -13z m133 -38 c34 -16 48 -31 64 -67 21 -48 28 -146 11 -156 -5 -4 -7 -10 -5 -14 3 -4 -8 -5 -24 -3 -19 3 -35 -3 -49 -17 -39 -39 -179 -13 -205 38 -25 47 -24 122 2 147 9 10 17 22 17 28 0 6 15 19 34 28 19 9 39 22 44 27 17 17 63 13 111 -11z" transform="translate(0,186) scale(0.1,-0.1)" stroke="none" fill="#5DB4B7"/>

<path d="M504 750 c-14 -14 -137 -39 -166 -33 -40 8 -49 -16 -55 -139 -4 -85 -2 -131 10 -184 24 -105 77 -223 120 -271 30 -33 84 -31 118 5 44 45 119 153 150 214 36 71 79 218 79 268 0 35 -3 39 -32 45 -41 9 -125 53 -158 83 -27 24 -50 28 -66 12z" transform="translate(0,186) scale(0.1,-0.1)" stroke="none" fill="#2A8B8F"/>

<path d="M283 1744 c-95 -46 -138 -125 -138 -249 1 -78 33 -206 56 -220 22 -14 5 -50 -45 -100 -73 -70 -96 -118 -96 -196 0 -93 39 -151 142 -208 51 -29 64 -32 145 -32 68 -1 98 4 133 20 58 27 61 26 101 -9 42 -38 120 -75 177 -85 156 -26 288 142 252 321 -5 27 -12 58 -15 69 -4 14 4 33 25 60 92 116 97 267 12 358 -67 72 -175 89 -324 52 -25 -7 -29 -3 -56 51 -47 93 -102 145 -183 174 -71 26 -123 25 -186 -6z m379 -340 c32 -9 58 -21 58 -25 0 -5 7 -9 16 -9 18 0 46 -32 83 -94 20 -33 25 -55 25 -112 1 -65 -2 -75 -33 -122 -38 -55 -67 -76 -138 -97 -66 -20 -112 -19 -166 5 -59 26 -137 103 -137 135 0 13 -4 27 -10 30 -13 8 -13 90 0 136 14 49 87 132 111 126 10 -3 20 0 22 6 4 12 62 35 91 36 11 1 46 -6 78 -15z" transform="translate(0,186) scale(0.1,-0.1)" stroke="none" fill="#E9E4E1"/>

</g>

<g id="1" transform="translate(0,186.0)scale(0.8,0.8)">

<path d="M770 1551 c-17 -5 5 -8 65 -8 71 0 98 -4 130 -21 70 -36 107 -86 125 -172 l8 -35 1 33 c2 70 -59 158 -130 186 -46 19 -164 29 -199 17z" transform="translate(0,186) scale(0.1,-0.1)" stroke="none" fill="#5DB4B7"/>

<path d="M1092 1272 c-2 -42 -32 -106 -72 -157 -21 -27 -29 -46 -25 -60 3 -11 10 -42 15 -69 36 -178 -94 -343 -252 -322 -38 5 -40 4 -13 -5 37 -12 105 -5 146 17 107 55 157 186 129 336 -10 49 -10 72 -3 76 6 4 27 37 48 74 28 52 35 75 32 105 -4 37 -4 37 -5 5z" transform="translate(0,186) scale(0.1,-0.1)" stroke="none" fill="#5DB4B7"/>

<path d="M285 1761 c-53 -25 -98 -68 -127 -122 -20 -38 -23 -58 -22 -144 0 -89 4 -108 32 -175 18 -41 32 -79 32 -85 0 -6 -11 -17 -24 -25 -76 -47 -145 -183 -131 -258 23 -123 142 -224 260 -220 l50 1 -55 6 c-56 6 -136 45 -176 85 -45 46 -64 91 -64 155 0 78 23 126 96 196 50 50 67 86 45 100 -23 14 -55 142 -56 220 0 125 44 204 140 249 65 31 112 33 184 6 81 -29 136 -81 182 -172 30 -58 47 -69 79 -47 12 8 8 9 -14 7 -26 -3 -32 3 -62 60 -40 75 -79 114 -156 153 -70 35 -151 39 -213 10z" transform="translate(0,186) scale(0.1,-0.1)" stroke="none" fill="#5DB4B7"/>

<path d="M552 1363 c-5 -10 -7 -24 -5 -30 3 -8 -3 -13 -14 -13 -10 0 -29 -7 -42 -16 -17 -13 -21 -22 -16 -42 3 -14 14 -31 23 -38 13 -10 14 -16 6 -24 -28 -28 22 -84 51 -60 12 10 17 7 24 -13 5 -14 16 -27 23 -30 16 -5 49 11 64 31 6 8 17 12 25 10 8 -3 22 -1 31 3 32 17 16 145 -25 197 -13 16 -37 -3 -37 -29 0 -11 -7 -19 -15 -19 -18 0 -18 2 -4 34 9 20 9 29 -1 41 -18 21 -77 20 -88 -2z m38 -77 c0 -3 -4 -8 -10 -11 -5 -3 -10 -1 -10 4 0 6 5 11 10 11 6 0 10 -2 10 -4z m-15 -74 c-8 -8 -25 10 -19 20 4 6 9 5 15 -3 4 -7 6 -15 4 -17z m25 -22 c0 -5 -4 -10 -10 -10 -5 0 -10 5 -10 10 0 6 5 10 10 10 6 0 10 -4 10 -10z m67 -26 c-9 -9 -28 6 -21 18 4 6 10 6 17 -1 6 -6 8 -13 4 -17z" transform="translate(0,186) scale(0.1,-0.1)" stroke="none" fill="#2A8B8F"/>

<path d="M531 1406 c-19 -7 -36 -17 -38 -23 -2 -6 -12 -9 -22 -6 -24 6 -97 -77 -111 -126 -13 -46 -13 -128 0 -136 6 -3 10 -17 10 -30 0 -32 78 -109 137 -135 54 -24 100 -25 166 -5 71 21 100 42 138 97 31 47 34 57 33 122 0 57 -5 79 -25 112 -37 62 -65 94 -83 94 -9 0 -16 4 -16 9 0 10 -106 41 -136 40 -10 0 -34 -6 -53 -13z m133 -38 c34 -16 48 -31 64 -67 21 -48 28 -146 11 -156 -5 -4 -7 -10 -5 -14 3 -4 -8 -5 -24 -3 -19 3 -35 -3 -49 -17 -39 -39 -179 -13 -205 38 -25 47 -24 122 2 147 9 10 17 22 17 28 0 6 15 19 34 28 19 9 39 22 44 27 17 17 63 13 111 -11z" transform="translate(0,186) scale(0.1,-0.1)" stroke="none" fill="#5DB4B7"/>

<path d="M504 750 c-14 -14 -137 -39 -166 -33 -40 8 -49 -16 -55 -139 -4 -85 -2 -131 10 -184 24 -105 77 -223 120 -271 30 -33 84 -31 118 5 44 45 119 153 150 214 36 71 79 218 79 268 0 35 -3 39 -32 45 -41 9 -125 53 -158 83 -27 24 -50 28 -66 12z" transform="translate(0,186) scale(0.1,-0.1)" stroke="none" fill="#2A8B8F"/>

<path d="M283 1744 c-95 -46 -138 -125 -138 -249 1 -78 33 -206 56 -220 22 -14 5 -50 -45 -100 -73 -70 -96 -118 -96 -196 0 -93 39 -151 142 -208 51 -29 64 -32 145 -32 68 -1 98 4 133 20 58 27 61 26 101 -9 42 -38 120 -75 177 -85 156 -26 288 142 252 321 -5 27 -12 58 -15 69 -4 14 4 33 25 60 92 116 97 267 12 358 -67 72 -175 89 -324 52 -25 -7 -29 -3 -56 51 -47 93 -102 145 -183 174 -71 26 -123 25 -186 -6z m379 -340 c32 -9 58 -21 58 -25 0 -5 7 -9 16 -9 18 0 46 -32 83 -94 20 -33 25 -55 25 -112 1 -65 -2 -75 -33 -122 -38 -55 -67 -76 -138 -97 -66 -20 -112 -19 -166 5 -59 26 -137 103 -137 135 0 13 -4 27 -10 30 -13 8 -13 90 0 136 14 49 87 132 111 126 10 -3 20 0 22 6 4 12 62 35 91 36 11 1 46 -6 78 -15z" transform="translate(0,186) scale(0.1,-0.1)" stroke="none" fill="#E9E4E1"/>

</g>

<g id="2" transform="translate(0,372.0)scale(0.8,0.8)">

<path d="M770 1551 c-17 -5 5 -8 65 -8 71 0 98 -4 130 -21 70 -36 107 -86 125 -172 l8 -35 1 33 c2 70 -59 158 -130 186 -46 19 -164 29 -199 17z" transform="translate(0,186) scale(0.1,-0.1)" stroke="none" fill="#5DB4B7"/>

<path d="M1092 1272 c-2 -42 -32 -106 -72 -157 -21 -27 -29 -46 -25 -60 3 -11 10 -42 15 -69 36 -178 -94 -343 -252 -322 -38 5 -40 4 -13 -5 37 -12 105 -5 146 17 107 55 157 186 129 336 -10 49 -10 72 -3 76 6 4 27 37 48 74 28 52 35 75 32 105 -4 37 -4 37 -5 5z" transform="translate(0,186) scale(0.1,-0.1)" stroke="none" fill="#5DB4B7"/>

<path d="M285 1761 c-53 -25 -98 -68 -127 -122 -20 -38 -23 -58 -22 -144 0 -89 4 -108 32 -175 18 -41 32 -79 32 -85 0 -6 -11 -17 -24 -25 -76 -47 -145 -183 -131 -258 23 -123 142 -224 260 -220 l50 1 -55 6 c-56 6 -136 45 -176 85 -45 46 -64 91 -64 155 0 78 23 126 96 196 50 50 67 86 45 100 -23 14 -55 142 -56 220 0 125 44 204 140 249 65 31 112 33 184 6 81 -29 136 -81 182 -172 30 -58 47 -69 79 -47 12 8 8 9 -14 7 -26 -3 -32 3 -62 60 -40 75 -79 114 -156 153 -70 35 -151 39 -213 10z" transform="translate(0,186) scale(0.1,-0.1)" stroke="none" fill="#5DB4B7"/>

<path d="M552 1363 c-5 -10 -7 -24 -5 -30 3 -8 -3 -13 -14 -13 -10 0 -29 -7 -42 -16 -17 -13 -21 -22 -16 -42 3 -14 14 -31 23 -38 13 -10 14 -16 6 -24 -28 -28 22 -84 51 -60 12 10 17 7 24 -13 5 -14 16 -27 23 -30 16 -5 49 11 64 31 6 8 17 12 25 10 8 -3 22 -1 31 3 32 17 16 145 -25 197 -13 16 -37 -3 -37 -29 0 -11 -7 -19 -15 -19 -18 0 -18 2 -4 34 9 20 9 29 -1 41 -18 21 -77 20 -88 -2z m38 -77 c0 -3 -4 -8 -10 -11 -5 -3 -10 -1 -10 4 0 6 5 11 10 11 6 0 10 -2 10 -4z m-15 -74 c-8 -8 -25 10 -19 20 4 6 9 5 15 -3 4 -7 6 -15 4 -17z m25 -22 c0 -5 -4 -10 -10 -10 -5 0 -10 5 -10 10 0 6 5 10 10 10 6 0 10 -4 10 -10z m67 -26 c-9 -9 -28 6 -21 18 4 6 10 6 17 -1 6 -6 8 -13 4 -17z" transform="translate(0,186) scale(0.1,-0.1)" stroke="none" fill="#2A8B8F"/>

<path d="M531 1406 c-19 -7 -36 -17 -38 -23 -2 -6 -12 -9 -22 -6 -24 6 -97 -77 -111 -126 -13 -46 -13 -128 0 -136 6 -3 10 -17 10 -30 0 -32 78 -109 137 -135 54 -24 100 -25 166 -5 71 21 100 42 138 97 31 47 34 57 33 122 0 57 -5 79 -25 112 -37 62 -65 94 -83 94 -9 0 -16 4 -16 9 0 10 -106 41 -136 40 -10 0 -34 -6 -53 -13z m133 -38 c34 -16 48 -31 64 -67 21 -48 28 -146 11 -156 -5 -4 -7 -10 -5 -14 3 -4 -8 -5 -24 -3 -19 3 -35 -3 -49 -17 -39 -39 -179 -13 -205 38 -25 47 -24 122 2 147 9 10 17 22 17 28 0 6 15 19 34 28 19 9 39 22 44 27 17 17 63 13 111 -11z" transform="translate(0,186) scale(0.1,-0.1)" stroke="none" fill="#5DB4B7"/>

<path d="M504 750 c-14 -14 -137 -39 -166 -33 -40 8 -49 -16 -55 -139 -4 -85 -2 -131 10 -184 24 -105 77 -223 120 -271 30 -33 84 -31 118 5 44 45 119 153 150 214 36 71 79 218 79 268 0 35 -3 39 -32 45 -41 9 -125 53 -158 83 -27 24 -50 28 -66 12z" transform="translate(0,186) scale(0.1,-0.1)" stroke="none" fill="#2A8B8F"/>

<path d="M283 1744 c-95 -46 -138 -125 -138 -249 1 -78 33 -206 56 -220 22 -14 5 -50 -45 -100 -73 -70 -96 -118 -96 -196 0 -93 39 -151 142 -208 51 -29 64 -32 145 -32 68 -1 98 4 133 20 58 27 61 26 101 -9 42 -38 120 -75 177 -85 156 -26 288 142 252 321 -5 27 -12 58 -15 69 -4 14 4 33 25 60 92 116 97 267 12 358 -67 72 -175 89 -324 52 -25 -7 -29 -3 -56 51 -47 93 -102 145 -183 174 -71 26 -123 25 -186 -6z m379 -340 c32 -9 58 -21 58 -25 0 -5 7 -9 16 -9 18 0 46 -32 83 -94 20 -33 25 -55 25 -112 1 -65 -2 -75 -33 -122 -38 -55 -67 -76 -138 -97 -66 -20 -112 -19 -166 5 -59 26 -137 103 -137 135 0 13 -4 27 -10 30 -13 8 -13 90 0 136 14 49 87 132 111 126 10 -3 20 0 22 6 4 12 62 35 91 36 11 1 46 -6 78 -15z" transform="translate(0,186) scale(0.1,-0.1)" stroke="none" fill="#E9E4E1"/>

</g>

<g id="3" transform="translate(0,558.0)scale(0.8,0.8)">

<path d="M770 1551 c-17 -5 5 -8 65 -8 71 0 98 -4 130 -21 70 -36 107 -86 125 -172 l8 -35 1 33 c2 70 -59 158 -130 186 -46 19 -164 29 -199 17z" transform="translate(0,186) scale(0.1,-0.1)" stroke="none" fill="#5DB4B7"/>

<path d="M1092 1272 c-2 -42 -32 -106 -72 -157 -21 -27 -29 -46 -25 -60 3 -11 10 -42 15 -69 36 -178 -94 -343 -252 -322 -38 5 -40 4 -13 -5 37 -12 105 -5 146 17 107 55 157 186 129 336 -10 49 -10 72 -3 76 6 4 27 37 48 74 28 52 35 75 32 105 -4 37 -4 37 -5 5z" transform="translate(0,186) scale(0.1,-0.1)" stroke="none" fill="#5DB4B7"/>

<path d="M285 1761 c-53 -25 -98 -68 -127 -122 -20 -38 -23 -58 -22 -144 0 -89 4 -108 32 -175 18 -41 32 -79 32 -85 0 -6 -11 -17 -24 -25 -76 -47 -145 -183 -131 -258 23 -123 142 -224 260 -220 l50 1 -55 6 c-56 6 -136 45 -176 85 -45 46 -64 91 -64 155 0 78 23 126 96 196 50 50 67 86 45 100 -23 14 -55 142 -56 220 0 125 44 204 140 249 65 31 112 33 184 6 81 -29 136 -81 182 -172 30 -58 47 -69 79 -47 12 8 8 9 -14 7 -26 -3 -32 3 -62 60 -40 75 -79 114 -156 153 -70 35 -151 39 -213 10z" transform="translate(0,186) scale(0.1,-0.1)" stroke="none" fill="#5DB4B7"/>

<path d="M552 1363 c-5 -10 -7 -24 -5 -30 3 -8 -3 -13 -14 -13 -10 0 -29 -7 -42 -16 -17 -13 -21 -22 -16 -42 3 -14 14 -31 23 -38 13 -10 14 -16 6 -24 -28 -28 22 -84 51 -60 12 10 17 7 24 -13 5 -14 16 -27 23 -30 16 -5 49 11 64 31 6 8 17 12 25 10 8 -3 22 -1 31 3 32 17 16 145 -25 197 -13 16 -37 -3 -37 -29 0 -11 -7 -19 -15 -19 -18 0 -18 2 -4 34 9 20 9 29 -1 41 -18 21 -77 20 -88 -2z m38 -77 c0 -3 -4 -8 -10 -11 -5 -3 -10 -1 -10 4 0 6 5 11 10 11 6 0 10 -2 10 -4z m-15 -74 c-8 -8 -25 10 -19 20 4 6 9 5 15 -3 4 -7 6 -15 4 -17z m25 -22 c0 -5 -4 -10 -10 -10 -5 0 -10 5 -10 10 0 6 5 10 10 10 6 0 10 -4 10 -10z m67 -26 c-9 -9 -28 6 -21 18 4 6 10 6 17 -1 6 -6 8 -13 4 -17z" transform="translate(0,186) scale(0.1,-0.1)" stroke="none" fill="#2A8B8F"/>

<path d="M531 1406 c-19 -7 -36 -17 -38 -23 -2 -6 -12 -9 -22 -6 -24 6 -97 -77 -111 -126 -13 -46 -13 -128 0 -136 6 -3 10 -17 10 -30 0 -32 78 -109 137 -135 54 -24 100 -25 166 -5 71 21 100 42 138 97 31 47 34 57 33 122 0 57 -5 79 -25 112 -37 62 -65 94 -83 94 -9 0 -16 4 -16 9 0 10 -106 41 -136 40 -10 0 -34 -6 -53 -13z m133 -38 c34 -16 48 -31 64 -67 21 -48 28 -146 11 -156 -5 -4 -7 -10 -5 -14 3 -4 -8 -5 -24 -3 -19 3 -35 -3 -49 -17 -39 -39 -179 -13 -205 38 -25 47 -24 122 2 147 9 10 17 22 17 28 0 6 15 19 34 28 19 9 39 22 44 27 17 17 63 13 111 -11z" transform="translate(0,186) scale(0.1,-0.1)" stroke="none" fill="#5DB4B7"/>

<path d="M504 750 c-14 -14 -137 -39 -166 -33 -40 8 -49 -16 -55 -139 -4 -85 -2 -131 10 -184 24 -105 77 -223 120 -271 30 -33 84 -31 118 5 44 45 119 153 150 214 36 71 79 218 79 268 0 35 -3 39 -32 45 -41 9 -125 53 -158 83 -27 24 -50 28 -66 12z" transform="translate(0,186) scale(0.1,-0.1)" stroke="none" fill="#2A8B8F"/>

<path d="M283 1744 c-95 -46 -138 -125 -138 -249 1 -78 33 -206 56 -220 22 -14 5 -50 -45 -100 -73 -70 -96 -118 -96 -196 0 -93 39 -151 142 -208 51 -29 64 -32 145 -32 68 -1 98 4 133 20 58 27 61 26 101 -9 42 -38 120 -75 177 -85 156 -26 288 142 252 321 -5 27 -12 58 -15 69 -4 14 4 33 25 60 92 116 97 267 12 358 -67 72 -175 89 -324 52 -25 -7 -29 -3 -56 51 -47 93 -102 145 -183 174 -71 26 -123 25 -186 -6z m379 -340 c32 -9 58 -21 58 -25 0 -5 7 -9 16 -9 18 0 46 -32 83 -94 20 -33 25 -55 25 -112 1 -65 -2 -75 -33 -122 -38 -55 -67 -76 -138 -97 -66 -20 -112 -19 -166 5 -59 26 -137 103 -137 135 0 13 -4 27 -10 30 -13 8 -13 90 0 136 14 49 87 132 111 126 10 -3 20 0 22 6 4 12 62 35 91 36 11 1 46 -6 78 -15z" transform="translate(0,186) scale(0.1,-0.1)" stroke="none" fill="#E9E4E1"/>

</g>

<g id="4" transform="translate(0,744.0)scale(0.8,0.8)">

<path d="M770 1551 c-17 -5 5 -8 65 -8 71 0 98 -4 130 -21 70 -36 107 -86 125 -172 l8 -35 1 33 c2 70 -59 158 -130 186 -46 19 -164 29 -199 17z" transform="translate(0,186) scale(0.1,-0.1)" stroke="none" fill="#5DB4B7"/>

<path d="M1092 1272 c-2 -42 -32 -106 -72 -157 -21 -27 -29 -46 -25 -60 3 -11 10 -42 15 -69 36 -178 -94 -343 -252 -322 -38 5 -40 4 -13 -5 37 -12 105 -5 146 17 107 55 157 186 129 336 -10 49 -10 72 -3 76 6 4 27 37 48 74 28 52 35 75 32 105 -4 37 -4 37 -5 5z" transform="translate(0,186) scale(0.1,-0.1)" stroke="none" fill="#5DB4B7"/>

<path d="M285 1761 c-53 -25 -98 -68 -127 -122 -20 -38 -23 -58 -22 -144 0 -89 4 -108 32 -175 18 -41 32 -79 32 -85 0 -6 -11 -17 -24 -25 -76 -47 -145 -183 -131 -258 23 -123 142 -224 260 -220 l50 1 -55 6 c-56 6 -136 45 -176 85 -45 46 -64 91 -64 155 0 78 23 126 96 196 50 50 67 86 45 100 -23 14 -55 142 -56 220 0 125 44 204 140 249 65 31 112 33 184 6 81 -29 136 -81 182 -172 30 -58 47 -69 79 -47 12 8 8 9 -14 7 -26 -3 -32 3 -62 60 -40 75 -79 114 -156 153 -70 35 -151 39 -213 10z" transform="translate(0,186) scale(0.1,-0.1)" stroke="none" fill="#5DB4B7"/>

<path d="M552 1363 c-5 -10 -7 -24 -5 -30 3 -8 -3 -13 -14 -13 -10 0 -29 -7 -42 -16 -17 -13 -21 -22 -16 -42 3 -14 14 -31 23 -38 13 -10 14 -16 6 -24 -28 -28 22 -84 51 -60 12 10 17 7 24 -13 5 -14 16 -27 23 -30 16 -5 49 11 64 31 6 8 17 12 25 10 8 -3 22 -1 31 3 32 17 16 145 -25 197 -13 16 -37 -3 -37 -29 0 -11 -7 -19 -15 -19 -18 0 -18 2 -4 34 9 20 9 29 -1 41 -18 21 -77 20 -88 -2z m38 -77 c0 -3 -4 -8 -10 -11 -5 -3 -10 -1 -10 4 0 6 5 11 10 11 6 0 10 -2 10 -4z m-15 -74 c-8 -8 -25 10 -19 20 4 6 9 5 15 -3 4 -7 6 -15 4 -17z m25 -22 c0 -5 -4 -10 -10 -10 -5 0 -10 5 -10 10 0 6 5 10 10 10 6 0 10 -4 10 -10z m67 -26 c-9 -9 -28 6 -21 18 4 6 10 6 17 -1 6 -6 8 -13 4 -17z" transform="translate(0,186) scale(0.1,-0.1)" stroke="none" fill="#2A8B8F"/>

<path d="M531 1406 c-19 -7 -36 -17 -38 -23 -2 -6 -12 -9 -22 -6 -24 6 -97 -77 -111 -126 -13 -46 -13 -128 0 -136 6 -3 10 -17 10 -30 0 -32 78 -109 137 -135 54 -24 100 -25 166 -5 71 21 100 42 138 97 31 47 34 57 33 122 0 57 -5 79 -25 112 -37 62 -65 94 -83 94 -9 0 -16 4 -16 9 0 10 -106 41 -136 40 -10 0 -34 -6 -53 -13z m133 -38 c34 -16 48 -31 64 -67 21 -48 28 -146 11 -156 -5 -4 -7 -10 -5 -14 3 -4 -8 -5 -24 -3 -19 3 -35 -3 -49 -17 -39 -39 -179 -13 -205 38 -25 47 -24 122 2 147 9 10 17 22 17 28 0 6 15 19 34 28 19 9 39 22 44 27 17 17 63 13 111 -11z" transform="translate(0,186) scale(0.1,-0.1)" stroke="none" fill="#5DB4B7"/>

<path d="M504 750 c-14 -14 -137 -39 -166 -33 -40 8 -49 -16 -55 -139 -4 -85 -2 -131 10 -184 24 -105 77 -223 120 -271 30 -33 84 -31 118 5 44 45 119 153 150 214 36 71 79 218 79 268 0 35 -3 39 -32 45 -41 9 -125 53 -158 83 -27 24 -50 28 -66 12z" transform="translate(0,186) scale(0.1,-0.1)" stroke="none" fill="#2A8B8F"/>

<path d="M283 1744 c-95 -46 -138 -125 -138 -249 1 -78 33 -206 56 -220 22 -14 5 -50 -45 -100 -73 -70 -96 -118 -96 -196 0 -93 39 -151 142 -208 51 -29 64 -32 145 -32 68 -1 98 4 133 20 58 27 61 26 101 -9 42 -38 120 -75 177 -85 156 -26 288 142 252 321 -5 27 -12 58 -15 69 -4 14 4 33 25 60 92 116 97 267 12 358 -67 72 -175 89 -324 52 -25 -7 -29 -3 -56 51 -47 93 -102 145 -183 174 -71 26 -123 25 -186 -6z m379 -340 c32 -9 58 -21 58 -25 0 -5 7 -9 16 -9 18 0 46 -32 83 -94 20 -33 25 -55 25 -112 1 -65 -2 -75 -33 -122 -38 -55 -67 -76 -138 -97 -66 -20 -112 -19 -166 5 -59 26 -137 103 -137 135 0 13 -4 27 -10 30 -13 8 -13 90 0 136 14 49 87 132 111 126 10 -3 20 0 22 6 4 12 62 35 91 36 11 1 46 -6 78 -15z" transform="translate(0,186) scale(0.1,-0.1)" stroke="none" fill="#E9E4E1"/>

</g>

</g>
<g id="col3" transform="translate(348, -69.0)">
<g id="0" transform="translate(0,0.0)scale(0.8,0.8)">

<path d="M770 1551 c-17 -5 5 -8 65 -8 71 0 98 -4 130 -21 70 -36 107 -86 125 -172 l8 -35 1 33 c2 70 -59 158 -130 186 -46 19 -164 29 -199 17z" transform="translate(0,186) scale(0.1,-0.1)" stroke="none" fill="#5DB4B7"/>

<path d="M1092 1272 c-2 -42 -32 -106 -72 -157 -21 -27 -29 -46 -25 -60 3 -11 10 -42 15 -69 36 -178 -94 -343 -252 -322 -38 5 -40 4 -13 -5 37 -12 105 -5 146 17 107 55 157 186 129 336 -10 49 -10 72 -3 76 6 4 27 37 48 74 28 52 35 75 32 105 -4 37 -4 37 -5 5z" transform="translate(0,186) scale(0.1,-0.1)" stroke="none" fill="#5DB4B7"/>

<path d="M285 1761 c-53 -25 -98 -68 -127 -122 -20 -38 -23 -58 -22 -144 0 -89 4 -108 32 -175 18 -41 32 -79 32 -85 0 -6 -11 -17 -24 -25 -76 -47 -145 -183 -131 -258 23 -123 142 -224 260 -220 l50 1 -55 6 c-56 6 -136 45 -176 85 -45 46 -64 91 -64 155 0 78 23 126 96 196 50 50 67 86 45 100 -23 14 -55 142 -56 220 0 125 44 204 140 249 65 31 112 33 184 6 81 -29 136 -81 182 -172 30 -58 47 -69 79 -47 12 8 8 9 -14 7 -26 -3 -32 3 -62 60 -40 75 -79 114 -156 153 -70 35 -151 39 -213 10z" transform="translate(0,186) scale(0.1,-0.1)" stroke="none" fill="#5DB4B7"/>

<path d="M552 1363 c-5 -10 -7 -24 -5 -30 3 -8 -3 -13 -14 -13 -10 0 -29 -7 -42 -16 -17 -13 -21 -22 -16 -42 3 -14 14 -31 23 -38 13 -10 14 -16 6 -24 -28 -28 22 -84 51 -60 12 10 17 7 24 -13 5 -14 16 -27 23 -30 16 -5 49 11 64 31 6 8 17 12 25 10 8 -3 22 -1 31 3 32 17 16 145 -25 197 -13 16 -37 -3 -37 -29 0 -11 -7 -19 -15 -19 -18 0 -18 2 -4 34 9 20 9 29 -1 41 -18 21 -77 20 -88 -2z m38 -77 c0 -3 -4 -8 -10 -11 -5 -3 -10 -1 -10 4 0 6 5 11 10 11 6 0 10 -2 10 -4z m-15 -74 c-8 -8 -25 10 -19 20 4 6 9 5 15 -3 4 -7 6 -15 4 -17z m25 -22 c0 -5 -4 -10 -10 -10 -5 0 -10 5 -10 10 0 6 5 10 10 10 6 0 10 -4 10 -10z m67 -26 c-9 -9 -28 6 -21 18 4 6 10 6 17 -1 6 -6 8 -13 4 -17z" transform="translate(0,186) scale(0.1,-0.1)" stroke="none" fill="#2A8B8F"/>

<path d="M531 1406 c-19 -7 -36 -17 -38 -23 -2 -6 -12 -9 -22 -6 -24 6 -97 -77 -111 -126 -13 -46 -13 -128 0 -136 6 -3 10 -17 10 -30 0 -32 78 -109 137 -135 54 -24 100 -25 166 -5 71 21 100 42 138 97 31 47 34 57 33 122 0 57 -5 79 -25 112 -37 62 -65 94 -83 94 -9 0 -16 4 -16 9 0 10 -106 41 -136 40 -10 0 -34 -6 -53 -13z m133 -38 c34 -16 48 -31 64 -67 21 -48 28 -146 11 -156 -5 -4 -7 -10 -5 -14 3 -4 -8 -5 -24 -3 -19 3 -35 -3 -49 -17 -39 -39 -179 -13 -205 38 -25 47 -24 122 2 147 9 10 17 22 17 28 0 6 15 19 34 28 19 9 39 22 44 27 17 17 63 13 111 -11z" transform="translate(0,186) scale(0.1,-0.1)" stroke="none" fill="#5DB4B7"/>

<path d="M504 750 c-14 -14 -137 -39 -166 -33 -40 8 -49 -16 -55 -139 -4 -85 -2 -131 10 -184 24 -105 77 -223 120 -271 30 -33 84 -31 118 5 44 45 119 153 150 214 36 71 79 218 79 268 0 35 -3 39 -32 45 -41 9 -125 53 -158 83 -27 24 -50 28 -66 12z" transform="translate(0,186) scale(0.1,-0.1)" stroke="none" fill="#2A8B8F"/>

<path d="M283 1744 c-95 -46 -138 -125 -138 -249 1 -78 33 -206 56 -220 22 -14 5 -50 -45 -100 -73 -70 -96 -118 -96 -196 0 -93 39 -151 142 -208 51 -29 64 -32 145 -32 68 -1 98 4 133 20 58 27 61 26 101 -9 42 -38 120 -75 177 -85 156 -26 288 142 252 321 -5 27 -12 58 -15 69 -4 14 4 33 25 60 92 116 97 267 12 358 -67 72 -175 89 -324 52 -25 -7 -29 -3 -56 51 -47 93 -102 145 -183 174 -71 26 -123 25 -186 -6z m379 -340 c32 -9 58 -21 58 -25 0 -5 7 -9 16 -9 18 0 46 -32 83 -94 20 -33 25 -55 25 -112 1 -65 -2 -75 -33 -122 -38 -55 -67 -76 -138 -97 -66 -20 -112 -19 -166 5 -59 26 -137 103 -137 135 0 13 -4 27 -10 30 -13 8 -13 90 0 136 14 49 87 132 111 126 10 -3 20 0 22 6 4 12 62 35 91 36 11 1 46 -6 78 -15z" transform="translate(0,186) scale(0.1,-0.1)" stroke="none" fill="#E9E4E1"/>

</g>

<g id="1" transform="translate(0,186.0)scale(0.8,0.8)">

<path d="M770 1551 c-17 -5 5 -8 65 -8 71 0 98 -4 130 -21 70 -36 107 -86 125 -172 l8 -35 1 33 c2 70 -59 158 -130 186 -46 19 -164 29 -199 17z" transform="translate(0,186) scale(0.1,-0.1)" stroke="none" fill="#5DB4B7"/>

<path d="M1092 1272 c-2 -42 -32 -106 -72 -157 -21 -27 -29 -46 -25 -60 3 -11 10 -42 15 -69 36 -178 -94 -343 -252 -322 -38 5 -40 4 -13 -5 37 -12 105 -5 146 17 107 55 157 186 129 336 -10 49 -10 72 -3 76 6 4 27 37 48 74 28 52 35 75 32 105 -4 37 -4 37 -5 5z" transform="translate(0,186) scale(0.1,-0.1)" stroke="none" fill="#5DB4B7"/>

<path d="M285 1761 c-53 -25 -98 -68 -127 -122 -20 -38 -23 -58 -22 -144 0 -89 4 -108 32 -175 18 -41 32 -79 32 -85 0 -6 -11 -17 -24 -25 -76 -47 -145 -183 -131 -258 23 -123 142 -224 260 -220 l50 1 -55 6 c-56 6 -136 45 -176 85 -45 46 -64 91 -64 155 0 78 23 126 96 196 50 50 67 86 45 100 -23 14 -55 142 -56 220 0 125 44 204 140 249 65 31 112 33 184 6 81 -29 136 -81 182 -172 30 -58 47 -69 79 -47 12 8 8 9 -14 7 -26 -3 -32 3 -62 60 -40 75 -79 114 -156 153 -70 35 -151 39 -213 10z" transform="translate(0,186) scale(0.1,-0.1)" stroke="none" fill="#5DB4B7"/>

<path d="M552 1363 c-5 -10 -7 -24 -5 -30 3 -8 -3 -13 -14 -13 -10 0 -29 -7 -42 -16 -17 -13 -21 -22 -16 -42 3 -14 14 -31 23 -38 13 -10 14 -16 6 -24 -28 -28 22 -84 51 -60 12 10 17 7 24 -13 5 -14 16 -27 23 -30 16 -5 49 11 64 31 6 8 17 12 25 10 8 -3 22 -1 31 3 32 17 16 145 -25 197 -13 16 -37 -3 -37 -29 0 -11 -7 -19 -15 -19 -18 0 -18 2 -4 34 9 20 9 29 -1 41 -18 21 -77 20 -88 -2z m38 -77 c0 -3 -4 -8 -10 -11 -5 -3 -10 -1 -10 4 0 6 5 11 10 11 6 0 10 -2 10 -4z m-15 -74 c-8 -8 -25 10 -19 20 4 6 9 5 15 -3 4 -7 6 -15 4 -17z m25 -22 c0 -5 -4 -10 -10 -10 -5 0 -10 5 -10 10 0 6 5 10 10 10 6 0 10 -4 10 -10z m67 -26 c-9 -9 -28 6 -21 18 4 6 10 6 17 -1 6 -6 8 -13 4 -17z" transform="translate(0,186) scale(0.1,-0.1)" stroke="none" fill="#2A8B8F"/>

<path d="M531 1406 c-19 -7 -36 -17 -38 -23 -2 -6 -12 -9 -22 -6 -24 6 -97 -77 -111 -126 -13 -46 -13 -128 0 -136 6 -3 10 -17 10 -30 0 -32 78 -109 137 -135 54 -24 100 -25 166 -5 71 21 100 42 138 97 31 47 34 57 33 122 0 57 -5 79 -25 112 -37 62 -65 94 -83 94 -9 0 -16 4 -16 9 0 10 -106 41 -136 40 -10 0 -34 -6 -53 -13z m133 -38 c34 -16 48 -31 64 -67 21 -48 28 -146 11 -156 -5 -4 -7 -10 -5 -14 3 -4 -8 -5 -24 -3 -19 3 -35 -3 -49 -17 -39 -39 -179 -13 -205 38 -25 47 -24 122 2 147 9 10 17 22 17 28 0 6 15 19 34 28 19 9 39 22 44 27 17 17 63 13 111 -11z" transform="translate(0,186) scale(0.1,-0.1)" stroke="none" fill="#5DB4B7"/>

<path d="M504 750 c-14 -14 -137 -39 -166 -33 -40 8 -49 -16 -55 -139 -4 -85 -2 -131 10 -184 24 -105 77 -223 120 -271 30 -33 84 -31 118 5 44 45 119 153 150 214 36 71 79 218 79 268 0 35 -3 39 -32 45 -41 9 -125 53 -158 83 -27 24 -50 28 -66 12z" transform="translate(0,186) scale(0.1,-0.1)" stroke="none" fill="#2A8B8F"/>

<path d="M283 1744 c-95 -46 -138 -125 -138 -249 1 -78 33 -206 56 -220 22 -14 5 -50 -45 -100 -73 -70 -96 -118 -96 -196 0 -93 39 -151 142 -208 51 -29 64 -32 145 -32 68 -1 98 4 133 20 58 27 61 26 101 -9 42 -38 120 -75 177 -85 156 -26 288 142 252 321 -5 27 -12 58 -15 69 -4 14 4 33 25 60 92 116 97 267 12 358 -67 72 -175 89 -324 52 -25 -7 -29 -3 -56 51 -47 93 -102 145 -183 174 -71 26 -123 25 -186 -6z m379 -340 c32 -9 58 -21 58 -25 0 -5 7 -9 16 -9 18 0 46 -32 83 -94 20 -33 25 -55 25 -112 1 -65 -2 -75 -33 -122 -38 -55 -67 -76 -138 -97 -66 -20 -112 -19 -166 5 -59 26 -137 103 -137 135 0 13 -4 27 -10 30 -13 8 -13 90 0 136 14 49 87 132 111 126 10 -3 20 0 22 6 4 12 62 35 91 36 11 1 46 -6 78 -15z" transform="translate(0,186) scale(0.1,-0.1)" stroke="none" fill="#E9E4E1"/>

</g>

<g id="2" transform="translate(0,372.0)scale(0.8,0.8)">

<path d="M770 1551 c-17 -5 5 -8 65 -8 71 0 98 -4 130 -21 70 -36 107 -86 125 -172 l8 -35 1 33 c2 70 -59 158 -130 186 -46 19 -164 29 -199 17z" transform="translate(0,186) scale(0.1,-0.1)" stroke="none" fill="#5DB4B7"/>

<path d="M1092 1272 c-2 -42 -32 -106 -72 -157 -21 -27 -29 -46 -25 -60 3 -11 10 -42 15 -69 36 -178 -94 -343 -252 -322 -38 5 -40 4 -13 -5 37 -12 105 -5 146 17 107 55 157 186 129 336 -10 49 -10 72 -3 76 6 4 27 37 48 74 28 52 35 75 32 105 -4 37 -4 37 -5 5z" transform="translate(0,186) scale(0.1,-0.1)" stroke="none" fill="#5DB4B7"/>

<path d="M285 1761 c-53 -25 -98 -68 -127 -122 -20 -38 -23 -58 -22 -144 0 -89 4 -108 32 -175 18 -41 32 -79 32 -85 0 -6 -11 -17 -24 -25 -76 -47 -145 -183 -131 -258 23 -123 142 -224 260 -220 l50 1 -55 6 c-56 6 -136 45 -176 85 -45 46 -64 91 -64 155 0 78 23 126 96 196 50 50 67 86 45 100 -23 14 -55 142 -56 220 0 125 44 204 140 249 65 31 112 33 184 6 81 -29 136 -81 182 -172 30 -58 47 -69 79 -47 12 8 8 9 -14 7 -26 -3 -32 3 -62 60 -40 75 -79 114 -156 153 -70 35 -151 39 -213 10z" transform="translate(0,186) scale(0.1,-0.1)" stroke="none" fill="#5DB4B7"/>

<path d="M552 1363 c-5 -10 -7 -24 -5 -30 3 -8 -3 -13 -14 -13 -10 0 -29 -7 -42 -16 -17 -13 -21 -22 -16 -42 3 -14 14 -31 23 -38 13 -10 14 -16 6 -24 -28 -28 22 -84 51 -60 12 10 17 7 24 -13 5 -14 16 -27 23 -30 16 -5 49 11 64 31 6 8 17 12 25 10 8 -3 22 -1 31 3 32 17 16 145 -25 197 -13 16 -37 -3 -37 -29 0 -11 -7 -19 -15 -19 -18 0 -18 2 -4 34 9 20 9 29 -1 41 -18 21 -77 20 -88 -2z m38 -77 c0 -3 -4 -8 -10 -11 -5 -3 -10 -1 -10 4 0 6 5 11 10 11 6 0 10 -2 10 -4z m-15 -74 c-8 -8 -25 10 -19 20 4 6 9 5 15 -3 4 -7 6 -15 4 -17z m25 -22 c0 -5 -4 -10 -10 -10 -5 0 -10 5 -10 10 0 6 5 10 10 10 6 0 10 -4 10 -10z m67 -26 c-9 -9 -28 6 -21 18 4 6 10 6 17 -1 6 -6 8 -13 4 -17z" transform="translate(0,186) scale(0.1,-0.1)" stroke="none" fill="#2A8B8F"/>

<path d="M531 1406 c-19 -7 -36 -17 -38 -23 -2 -6 -12 -9 -22 -6 -24 6 -97 -77 -111 -126 -13 -46 -13 -128 0 -136 6 -3 10 -17 10 -30 0 -32 78 -109 137 -135 54 -24 100 -25 166 -5 71 21 100 42 138 97 31 47 34 57 33 122 0 57 -5 79 -25 112 -37 62 -65 94 -83 94 -9 0 -16 4 -16 9 0 10 -106 41 -136 40 -10 0 -34 -6 -53 -13z m133 -38 c34 -16 48 -31 64 -67 21 -48 28 -146 11 -156 -5 -4 -7 -10 -5 -14 3 -4 -8 -5 -24 -3 -19 3 -35 -3 -49 -17 -39 -39 -179 -13 -205 38 -25 47 -24 122 2 147 9 10 17 22 17 28 0 6 15 19 34 28 19 9 39 22 44 27 17 17 63 13 111 -11z" transform="translate(0,186) scale(0.1,-0.1)" stroke="none" fill="#5DB4B7"/>

<path d="M504 750 c-14 -14 -137 -39 -166 -33 -40 8 -49 -16 -55 -139 -4 -85 -2 -131 10 -184 24 -105 77 -223 120 -271 30 -33 84 -31 118 5 44 45 119 153 150 214 36 71 79 218 79 268 0 35 -3 39 -32 45 -41 9 -125 53 -158 83 -27 24 -50 28 -66 12z" transform="translate(0,186) scale(0.1,-0.1)" stroke="none" fill="#2A8B8F"/>

<path d="M283 1744 c-95 -46 -138 -125 -138 -249 1 -78 33 -206 56 -220 22 -14 5 -50 -45 -100 -73 -70 -96 -118 -96 -196 0 -93 39 -151 142 -208 51 -29 64 -32 145 -32 68 -1 98 4 133 20 58 27 61 26 101 -9 42 -38 120 -75 177 -85 156 -26 288 142 252 321 -5 27 -12 58 -15 69 -4 14 4 33 25 60 92 116 97 267 12 358 -67 72 -175 89 -324 52 -25 -7 -29 -3 -56 51 -47 93 -102 145 -183 174 -71 26 -123 25 -186 -6z m379 -340 c32 -9 58 -21 58 -25 0 -5 7 -9 16 -9 18 0 46 -32 83 -94 20 -33 25 -55 25 -112 1 -65 -2 -75 -33 -122 -38 -55 -67 -76 -138 -97 -66 -20 -112 -19 -166 5 -59 26 -137 103 -137 135 0 13 -4 27 -10 30 -13 8 -13 90 0 136 14 49 87 132 111 126 10 -3 20 0 22 6 4 12 62 35 91 36 11 1 46 -6 78 -15z" transform="translate(0,186) scale(0.1,-0.1)" stroke="none" fill="#E9E4E1"/>

</g>

<g id="3" transform="translate(0,558.0)scale(0.8,0.8)">

<path d="M770 1551 c-17 -5 5 -8 65 -8 71 0 98 -4 130 -21 70 -36 107 -86 125 -172 l8 -35 1 33 c2 70 -59 158 -130 186 -46 19 -164 29 -199 17z" transform="translate(0,186) scale(0.1,-0.1)" stroke="none" fill="#5DB4B7"/>

<path d="M1092 1272 c-2 -42 -32 -106 -72 -157 -21 -27 -29 -46 -25 -60 3 -11 10 -42 15 -69 36 -178 -94 -343 -252 -322 -38 5 -40 4 -13 -5 37 -12 105 -5 146 17 107 55 157 186 129 336 -10 49 -10 72 -3 76 6 4 27 37 48 74 28 52 35 75 32 105 -4 37 -4 37 -5 5z" transform="translate(0,186) scale(0.1,-0.1)" stroke="none" fill="#5DB4B7"/>

<path d="M285 1761 c-53 -25 -98 -68 -127 -122 -20 -38 -23 -58 -22 -144 0 -89 4 -108 32 -175 18 -41 32 -79 32 -85 0 -6 -11 -17 -24 -25 -76 -47 -145 -183 -131 -258 23 -123 142 -224 260 -220 l50 1 -55 6 c-56 6 -136 45 -176 85 -45 46 -64 91 -64 155 0 78 23 126 96 196 50 50 67 86 45 100 -23 14 -55 142 -56 220 0 125 44 204 140 249 65 31 112 33 184 6 81 -29 136 -81 182 -172 30 -58 47 -69 79 -47 12 8 8 9 -14 7 -26 -3 -32 3 -62 60 -40 75 -79 114 -156 153 -70 35 -151 39 -213 10z" transform="translate(0,186) scale(0.1,-0.1)" stroke="none" fill="#5DB4B7"/>

<path d="M552 1363 c-5 -10 -7 -24 -5 -30 3 -8 -3 -13 -14 -13 -10 0 -29 -7 -42 -16 -17 -13 -21 -22 -16 -42 3 -14 14 -31 23 -38 13 -10 14 -16 6 -24 -28 -28 22 -84 51 -60 12 10 17 7 24 -13 5 -14 16 -27 23 -30 16 -5 49 11 64 31 6 8 17 12 25 10 8 -3 22 -1 31 3 32 17 16 145 -25 197 -13 16 -37 -3 -37 -29 0 -11 -7 -19 -15 -19 -18 0 -18 2 -4 34 9 20 9 29 -1 41 -18 21 -77 20 -88 -2z m38 -77 c0 -3 -4 -8 -10 -11 -5 -3 -10 -1 -10 4 0 6 5 11 10 11 6 0 10 -2 10 -4z m-15 -74 c-8 -8 -25 10 -19 20 4 6 9 5 15 -3 4 -7 6 -15 4 -17z m25 -22 c0 -5 -4 -10 -10 -10 -5 0 -10 5 -10 10 0 6 5 10 10 10 6 0 10 -4 10 -10z m67 -26 c-9 -9 -28 6 -21 18 4 6 10 6 17 -1 6 -6 8 -13 4 -17z" transform="translate(0,186) scale(0.1,-0.1)" stroke="none" fill="#2A8B8F"/>

<path d="M531 1406 c-19 -7 -36 -17 -38 -23 -2 -6 -12 -9 -22 -6 -24 6 -97 -77 -111 -126 -13 -46 -13 -128 0 -136 6 -3 10 -17 10 -30 0 -32 78 -109 137 -135 54 -24 100 -25 166 -5 71 21 100 42 138 97 31 47 34 57 33 122 0 57 -5 79 -25 112 -37 62 -65 94 -83 94 -9 0 -16 4 -16 9 0 10 -106 41 -136 40 -10 0 -34 -6 -53 -13z m133 -38 c34 -16 48 -31 64 -67 21 -48 28 -146 11 -156 -5 -4 -7 -10 -5 -14 3 -4 -8 -5 -24 -3 -19 3 -35 -3 -49 -17 -39 -39 -179 -13 -205 38 -25 47 -24 122 2 147 9 10 17 22 17 28 0 6 15 19 34 28 19 9 39 22 44 27 17 17 63 13 111 -11z" transform="translate(0,186) scale(0.1,-0.1)" stroke="none" fill="#5DB4B7"/>

<path d="M504 750 c-14 -14 -137 -39 -166 -33 -40 8 -49 -16 -55 -139 -4 -85 -2 -131 10 -184 24 -105 77 -223 120 -271 30 -33 84 -31 118 5 44 45 119 153 150 214 36 71 79 218 79 268 0 35 -3 39 -32 45 -41 9 -125 53 -158 83 -27 24 -50 28 -66 12z" transform="translate(0,186) scale(0.1,-0.1)" stroke="none" fill="#2A8B8F"/>

<path d="M283 1744 c-95 -46 -138 -125 -138 -249 1 -78 33 -206 56 -220 22 -14 5 -50 -45 -100 -73 -70 -96 -118 -96 -196 0 -93 39 -151 142 -208 51 -29 64 -32 145 -32 68 -1 98 4 133 20 58 27 61 26 101 -9 42 -38 120 -75 177 -85 156 -26 288 142 252 321 -5 27 -12 58 -15 69 -4 14 4 33 25 60 92 116 97 267 12 358 -67 72 -175 89 -324 52 -25 -7 -29 -3 -56 51 -47 93 -102 145 -183 174 -71 26 -123 25 -186 -6z m379 -340 c32 -9 58 -21 58 -25 0 -5 7 -9 16 -9 18 0 46 -32 83 -94 20 -33 25 -55 25 -112 1 -65 -2 -75 -33 -122 -38 -55 -67 -76 -138 -97 -66 -20 -112 -19 -166 5 -59 26 -137 103 -137 135 0 13 -4 27 -10 30 -13 8 -13 90 0 136 14 49 87 132 111 126 10 -3 20 0 22 6 4 12 62 35 91 36 11 1 46 -6 78 -15z" transform="translate(0,186) scale(0.1,-0.1)" stroke="none" fill="#E9E4E1"/>

</g>

<g id="4" transform="translate(0,744.0)scale(0.8,0.8)">

<path d="M770 1551 c-17 -5 5 -8 65 -8 71 0 98 -4 130 -21 70 -36 107 -86 125 -172 l8 -35 1 33 c2 70 -59 158 -130 186 -46 19 -164 29 -199 17z" transform="translate(0,186) scale(0.1,-0.1)" stroke="none" fill="#5DB4B7"/>

<path d="M1092 1272 c-2 -42 -32 -106 -72 -157 -21 -27 -29 -46 -25 -60 3 -11 10 -42 15 -69 36 -178 -94 -343 -252 -322 -38 5 -40 4 -13 -5 37 -12 105 -5 146 17 107 55 157 186 129 336 -10 49 -10 72 -3 76 6 4 27 37 48 74 28 52 35 75 32 105 -4 37 -4 37 -5 5z" transform="translate(0,186) scale(0.1,-0.1)" stroke="none" fill="#5DB4B7"/>

<path d="M285 1761 c-53 -25 -98 -68 -127 -122 -20 -38 -23 -58 -22 -144 0 -89 4 -108 32 -175 18 -41 32 -79 32 -85 0 -6 -11 -17 -24 -25 -76 -47 -145 -183 -131 -258 23 -123 142 -224 260 -220 l50 1 -55 6 c-56 6 -136 45 -176 85 -45 46 -64 91 -64 155 0 78 23 126 96 196 50 50 67 86 45 100 -23 14 -55 142 -56 220 0 125 44 204 140 249 65 31 112 33 184 6 81 -29 136 -81 182 -172 30 -58 47 -69 79 -47 12 8 8 9 -14 7 -26 -3 -32 3 -62 60 -40 75 -79 114 -156 153 -70 35 -151 39 -213 10z" transform="translate(0,186) scale(0.1,-0.1)" stroke="none" fill="#5DB4B7"/>

<path d="M552 1363 c-5 -10 -7 -24 -5 -30 3 -8 -3 -13 -14 -13 -10 0 -29 -7 -42 -16 -17 -13 -21 -22 -16 -42 3 -14 14 -31 23 -38 13 -10 14 -16 6 -24 -28 -28 22 -84 51 -60 12 10 17 7 24 -13 5 -14 16 -27 23 -30 16 -5 49 11 64 31 6 8 17 12 25 10 8 -3 22 -1 31 3 32 17 16 145 -25 197 -13 16 -37 -3 -37 -29 0 -11 -7 -19 -15 -19 -18 0 -18 2 -4 34 9 20 9 29 -1 41 -18 21 -77 20 -88 -2z m38 -77 c0 -3 -4 -8 -10 -11 -5 -3 -10 -1 -10 4 0 6 5 11 10 11 6 0 10 -2 10 -4z m-15 -74 c-8 -8 -25 10 -19 20 4 6 9 5 15 -3 4 -7 6 -15 4 -17z m25 -22 c0 -5 -4 -10 -10 -10 -5 0 -10 5 -10 10 0 6 5 10 10 10 6 0 10 -4 10 -10z m67 -26 c-9 -9 -28 6 -21 18 4 6 10 6 17 -1 6 -6 8 -13 4 -17z" transform="translate(0,186) scale(0.1,-0.1)" stroke="none" fill="#2A8B8F"/>

<path d="M531 1406 c-19 -7 -36 -17 -38 -23 -2 -6 -12 -9 -22 -6 -24 6 -97 -77 -111 -126 -13 -46 -13 -128 0 -136 6 -3 10 -17 10 -30 0 -32 78 -109 137 -135 54 -24 100 -25 166 -5 71 21 100 42 138 97 31 47 34 57 33 122 0 57 -5 79 -25 112 -37 62 -65 94 -83 94 -9 0 -16 4 -16 9 0 10 -106 41 -136 40 -10 0 -34 -6 -53 -13z m133 -38 c34 -16 48 -31 64 -67 21 -48 28 -146 11 -156 -5 -4 -7 -10 -5 -14 3 -4 -8 -5 -24 -3 -19 3 -35 -3 -49 -17 -39 -39 -179 -13 -205 38 -25 47 -24 122 2 147 9 10 17 22 17 28 0 6 15 19 34 28 19 9 39 22 44 27 17 17 63 13 111 -11z" transform="translate(0,186) scale(0.1,-0.1)" stroke="none" fill="#5DB4B7"/>

<path d="M504 750 c-14 -14 -137 -39 -166 -33 -40 8 -49 -16 -55 -139 -4 -85 -2 -131 10 -184 24 -105 77 -223 120 -271 30 -33 84 -31 118 5 44 45 119 153 150 214 36 71 79 218 79 268 0 35 -3 39 -32 45 -41 9 -125 53 -158 83 -27 24 -50 28 -66 12z" transform="translate(0,186) scale(0.1,-0.1)" stroke="none" fill="#2A8B8F"/>

<path d="M283 1744 c-95 -46 -138 -125 -138 -249 1 -78 33 -206 56 -220 22 -14 5 -50 -45 -100 -73 -70 -96 -118 -96 -196 0 -93 39 -151 142 -208 51 -29 64 -32 145 -32 68 -1 98 4 133 20 58 27 61 26 101 -9 42 -38 120 -75 177 -85 156 -26 288 142 252 321 -5 27 -12 58 -15 69 -4 14 4 33 25 60 92 116 97 267 12 358 -67 72 -175 89 -324 52 -25 -7 -29 -3 -56 51 -47 93 -102 145 -183 174 -71 26 -123 25 -186 -6z m379 -340 c32 -9 58 -21 58 -25 0 -5 7 -9 16 -9 18 0 46 -32 83 -94 20 -33 25 -55 25 -112 1 -65 -2 -75 -33 -122 -38 -55 -67 -76 -138 -97 -66 -20 -112 -19 -166 5 -59 26 -137 103 -137 135 0 13 -4 27 -10 30 -13 8 -13 90 0 136 14 49 87 132 111 126 10 -3 20 0 22 6 4 12 62 35 91 36 11 1 46 -6 78 -15z" transform="translate(0,186) scale(0.1,-0.1)" stroke="none" fill="#E9E4E1"/>

</g>

</g>
</svg>