<?xml version="1.0" standalone="no"?>
<!DOCTYPE svg PUBLIC "-//W3C//DTD SVG 20010904//EN"
 "http://www.w3.org/TR/2001/REC-SVG-20010904/DTD/svg10.dtd">
<svg version="1.0" xmlns="http://www.w3.org/2000/svg" width="5496pt" height="5496pt" viewBox="0 0 5496 5496" preserveAspectRatio = "xMidYMid meet" >
<metadata>
Created by ZoeQu, written in 2022
</metadata>
<rect width="5496" height="5496" fill="#C2CCC8"/>
<g id="row0" transform="translate(0,0.0)">
<g id="0" transform="translate(0.0,0)scale(0.25,0.25)">

<g id="pattern">
<rect width="5954" height="5954" fill="#C2CCC8"/>
<g id="pattern1" transform="matrix(1,0,0,1,370,370)">
<path d="M400 946 c-161 -36 -259 -145 -290 -321 -11 -64 -10 -76 10 -144 40 -137 107 -215 234 -275 45 -21 162 -43 172 -33 4 4 0 24 -10 44 -27 58 -24 185 6 243 44 84 66 112 110 142 72 49 104 58 199 58 97 0 103 4 75 58 -21 38 -124 135 -171 160 -71 38 -132 60 -182 67 -26 3 -59 8 -73 10 -14 2 -50 -2 -80 -9z" transform="translate(0.000000,0.000000) scale(1,1)" stroke="none" fill="#696959"/>
<path d="M400 1004 c-177 -30 -327 -192 -345 -374 -28 -276 163 -486 466 -514 42 -4 89 -14 105 -23 66 -34 165 -45 219 -23 11 4 41 15 66 24 59 21 159 123 194 197 47 101 24 198 -65 276 -25 22 -40 46 -49 81 -39 155 -190 286 -386 337 -57 15 -168 25 -205 19z m153 -59 c50 -7 111 -29 182 -67 47 -25 150 -122 171 -160 28 -54 22 -58 -75 -58 -95 0 -127 -9 -199 -58 -44 -30 -66 -58 -110 -142 -30 -58 -33 -185 -6 -243 10 -20 14 -40 10 -44 -10 -10 -127 12 -172 33 -127 60 -194 138 -234 275 -20 68 -21 80 -10 144 24 137 95 241 199 292 46 22 139 43 171 38 14 -2 47 -7 73 -10z" transform="translate(0.000000,0.000000) scale(1,1)" stroke="none" fill="#A49E98"/>
</g>
<g id="pattern2" transform="matrix(0.618,0,0,0.618,2821,828)">
<path d="M400 946 c-161 -36 -259 -145 -290 -321 -11 -64 -10 -76 10 -144 40 -137 107 -215 234 -275 45 -21 162 -43 172 -33 4 4 0 24 -10 44 -27 58 -24 185 6 243 44 84 66 112 110 142 72 49 104 58 199 58 97 0 103 4 75 58 -21 38 -124 135 -171 160 -71 38 -132 60 -182 67 -26 3 -59 8 -73 10 -14 2 -50 -2 -80 -9z" transform="translate(3737,0.000000) scale(-1,1)" stroke="none" fill="#696959"/>
<path d="M400 1004 c-177 -30 -327 -192 -345 -374 -28 -276 163 -486 466 -514 42 -4 89 -14 105 -23 66 -34 165 -45 219 -23 11 4 41 15 66 24 59 21 159 123 194 197 47 101 24 198 -65 276 -25 22 -40 46 -49 81 -39 155 -190 286 -386 337 -57 15 -168 25 -205 19z m153 -59 c50 -7 111 -29 182 -67 47 -25 150 -122 171 -160 28 -54 22 -58 -75 -58 -95 0 -127 -9 -199 -58 -44 -30 -66 -58 -110 -142 -30 -58 -33 -185 -6 -243 10 -20 14 -40 10 -44 -10 -10 -127 12 -172 33 -127 60 -194 138 -234 275 -20 68 -21 80 -10 144 24 137 95 241 199 292 46 22 139 43 171 38 14 -2 47 -7 73 -10z" transform="translate(3737,0.000000) scale(-1,1)" stroke="none" fill="#A49E98"/>
</g>
<g id="pattern3" transform="matrix(0.618,0,0,0.618,1057,3737)matrix(0.71,0.71,-0.71,0.71,0,0)">
<path d="M400 946 c-161 -36 -259 -145 -290 -321 -11 -64 -10 -76 10 -144 40 -137 107 -215 234 -275 45 -21 162 -43 172 -33 4 4 0 24 -10 44 -27 58 -24 185 6 243 44 84 66 112 110 142 72 49 104 58 199 58 97 0 103 4 75 58 -21 38 -124 135 -171 160 -71 38 -132 60 -182 67 -26 3 -59 8 -73 10 -14 2 -50 -2 -80 -9z" transform="translate(599,-599) scale(1,1)" stroke="none" fill="#696959"/>
<path d="M400 1004 c-177 -30 -327 -192 -345 -374 -28 -276 163 -486 466 -514 42 -4 89 -14 105 -23 66 -34 165 -45 219 -23 11 4 41 15 66 24 59 21 159 123 194 197 47 101 24 198 -65 276 -25 22 -40 46 -49 81 -39 155 -190 286 -386 337 -57 15 -168 25 -205 19z m153 -59 c50 -7 111 -29 182 -67 47 -25 150 -122 171 -160 28 -54 22 -58 -75 -58 -95 0 -127 -9 -199 -58 -44 -30 -66 -58 -110 -142 -30 -58 -33 -185 -6 -243 10 -20 14 -40 10 -44 -10 -10 -127 12 -172 33 -127 60 -194 138 -234 275 -20 68 -21 80 -10 144 24 137 95 241 199 292 46 22 139 43 171 38 14 -2 47 -7 73 -10z" transform="translate(599,-599) scale(1,1)" stroke="none" fill="#A49E98"/>
</g>
<g id="pattern4" transform="matrix(1.618,0,0,1.618,1568,1568)matrix(0.87,0.5,-0.5,0.87,0,0)">
<path d="M400 946 c-161 -36 -259 -145 -290 -321 -11 -64 -10 -76 10 -144 40 -137 107 -215 234 -275 45 -21 162 -43 172 -33 4 4 0 24 -10 44 -27 58 -24 185 6 243 44 84 66 112 110 142 72 49 104 58 199 58 97 0 103 4 75 58 -21 38 -124 135 -171 160 -71 38 -132 60 -182 67 -26 3 -59 8 -73 10 -14 2 -50 -2 -80 -9z" transform="translate(599,-599) scale(1,1)" stroke="none" fill="#696959"/>
<path d="M400 1004 c-177 -30 -327 -192 -345 -374 -28 -276 163 -486 466 -514 42 -4 89 -14 105 -23 66 -34 165 -45 219 -23 11 4 41 15 66 24 59 21 159 123 194 197 47 101 24 198 -65 276 -25 22 -40 46 -49 81 -39 155 -190 286 -386 337 -57 15 -168 25 -205 19z m153 -59 c50 -7 111 -29 182 -67 47 -25 150 -122 171 -160 28 -54 22 -58 -75 -58 -95 0 -127 -9 -199 -58 -44 -30 -66 -58 -110 -142 -30 -58 -33 -185 -6 -243 10 -20 14 -40 10 -44 -10 -10 -127 12 -172 33 -127 60 -194 138 -234 275 -20 68 -21 80 -10 144 24 137 95 241 199 292 46 22 139 43 171 38 14 -2 47 -7 73 -10z" transform="translate(599,-599) scale(1,1)" stroke="none" fill="#A49E98"/>
</g>
</g>
</g>

<g id="1" transform="translate(1374.0,0)scale(0.25,0.25)">

<g id="pattern">
<rect width="5954" height="5954" fill="#C2CCC8"/>
<g id="pattern1" transform="matrix(1,0,0,1,370,370)">
<path d="M400 946 c-161 -36 -259 -145 -290 -321 -11 -64 -10 -76 10 -144 40 -137 107 -215 234 -275 45 -21 162 -43 172 -33 4 4 0 24 -10 44 -27 58 -24 185 6 243 44 84 66 112 110 142 72 49 104 58 199 58 97 0 103 4 75 58 -21 38 -124 135 -171 160 -71 38 -132 60 -182 67 -26 3 -59 8 -73 10 -14 2 -50 -2 -80 -9z" transform="translate(0.000000,0.000000) scale(1,1)" stroke="none" fill="#696959"/>
<path d="M400 1004 c-177 -30 -327 -192 -345 -374 -28 -276 163 -486 466 -514 42 -4 89 -14 105 -23 66 -34 165 -45 219 -23 11 4 41 15 66 24 59 21 159 123 194 197 47 101 24 198 -65 276 -25 22 -40 46 -49 81 -39 155 -190 286 -386 337 -57 15 -168 25 -205 19z m153 -59 c50 -7 111 -29 182 -67 47 -25 150 -122 171 -160 28 -54 22 -58 -75 -58 -95 0 -127 -9 -199 -58 -44 -30 -66 -58 -110 -142 -30 -58 -33 -185 -6 -243 10 -20 14 -40 10 -44 -10 -10 -127 12 -172 33 -127 60 -194 138 -234 275 -20 68 -21 80 -10 144 24 137 95 241 199 292 46 22 139 43 171 38 14 -2 47 -7 73 -10z" transform="translate(0.000000,0.000000) scale(1,1)" stroke="none" fill="#A49E98"/>
</g>
<g id="pattern2" transform="matrix(0.618,0,0,0.618,2821,828)">
<path d="M400 946 c-161 -36 -259 -145 -290 -321 -11 -64 -10 -76 10 -144 40 -137 107 -215 234 -275 45 -21 162 -43 172 -33 4 4 0 24 -10 44 -27 58 -24 185 6 243 44 84 66 112 110 142 72 49 104 58 199 58 97 0 103 4 75 58 -21 38 -124 135 -171 160 -71 38 -132 60 -182 67 -26 3 -59 8 -73 10 -14 2 -50 -2 -80 -9z" transform="translate(3737,0.000000) scale(-1,1)" stroke="none" fill="#696959"/>
<path d="M400 1004 c-177 -30 -327 -192 -345 -374 -28 -276 163 -486 466 -514 42 -4 89 -14 105 -23 66 -34 165 -45 219 -23 11 4 41 15 66 24 59 21 159 123 194 197 47 101 24 198 -65 276 -25 22 -40 46 -49 81 -39 155 -190 286 -386 337 -57 15 -168 25 -205 19z m153 -59 c50 -7 111 -29 182 -67 47 -25 150 -122 171 -160 28 -54 22 -58 -75 -58 -95 0 -127 -9 -199 -58 -44 -30 -66 -58 -110 -142 -30 -58 -33 -185 -6 -243 10 -20 14 -40 10 -44 -10 -10 -127 12 -172 33 -127 60 -194 138 -234 275 -20 68 -21 80 -10 144 24 137 95 241 199 292 46 22 139 43 171 38 14 -2 47 -7 73 -10z" transform="translate(3737,0.000000) scale(-1,1)" stroke="none" fill="#A49E98"/>
</g>
<g id="pattern3" transform="matrix(0.618,0,0,0.618,1057,3737)matrix(0.71,0.71,-0.71,0.71,0,0)">
<path d="M400 946 c-161 -36 -259 -145 -290 -321 -11 -64 -10 -76 10 -144 40 -137 107 -215 234 -275 45 -21 162 -43 172 -33 4 4 0 24 -10 44 -27 58 -24 185 6 243 44 84 66 112 110 142 72 49 104 58 199 58 97 0 103 4 75 58 -21 38 -124 135 -171 160 -71 38 -132 60 -182 67 -26 3 -59 8 -73 10 -14 2 -50 -2 -80 -9z" transform="translate(599,-599) scale(1,1)" stroke="none" fill="#696959"/>
<path d="M400 1004 c-177 -30 -327 -192 -345 -374 -28 -276 163 -486 466 -514 42 -4 89 -14 105 -23 66 -34 165 -45 219 -23 11 4 41 15 66 24 59 21 159 123 194 197 47 101 24 198 -65 276 -25 22 -40 46 -49 81 -39 155 -190 286 -386 337 -57 15 -168 25 -205 19z m153 -59 c50 -7 111 -29 182 -67 47 -25 150 -122 171 -160 28 -54 22 -58 -75 -58 -95 0 -127 -9 -199 -58 -44 -30 -66 -58 -110 -142 -30 -58 -33 -185 -6 -243 10 -20 14 -40 10 -44 -10 -10 -127 12 -172 33 -127 60 -194 138 -234 275 -20 68 -21 80 -10 144 24 137 95 241 199 292 46 22 139 43 171 38 14 -2 47 -7 73 -10z" transform="translate(599,-599) scale(1,1)" stroke="none" fill="#A49E98"/>
</g>
<g id="pattern4" transform="matrix(1.618,0,0,1.618,1568,1568)matrix(0.87,0.5,-0.5,0.87,0,0)">
<path d="M400 946 c-161 -36 -259 -145 -290 -321 -11 -64 -10 -76 10 -144 40 -137 107 -215 234 -275 45 -21 162 -43 172 -33 4 4 0 24 -10 44 -27 58 -24 185 6 243 44 84 66 112 110 142 72 49 104 58 199 58 97 0 103 4 75 58 -21 38 -124 135 -171 160 -71 38 -132 60 -182 67 -26 3 -59 8 -73 10 -14 2 -50 -2 -80 -9z" transform="translate(599,-599) scale(1,1)" stroke="none" fill="#696959"/>
<path d="M400 1004 c-177 -30 -327 -192 -345 -374 -28 -276 163 -486 466 -514 42 -4 89 -14 105 -23 66 -34 165 -45 219 -23 11 4 41 15 66 24 59 21 159 123 194 197 47 101 24 198 -65 276 -25 22 -40 46 -49 81 -39 155 -190 286 -386 337 -57 15 -168 25 -205 19z m153 -59 c50 -7 111 -29 182 -67 47 -25 150 -122 171 -160 28 -54 22 -58 -75 -58 -95 0 -127 -9 -199 -58 -44 -30 -66 -58 -110 -142 -30 -58 -33 -185 -6 -243 10 -20 14 -40 10 -44 -10 -10 -127 12 -172 33 -127 60 -194 138 -234 275 -20 68 -21 80 -10 144 24 137 95 241 199 292 46 22 139 43 171 38 14 -2 47 -7 73 -10z" transform="translate(599,-599) scale(1,1)" stroke="none" fill="#A49E98"/>
</g>
</g>
</g>

<g id="2" transform="translate(2748.0,0)scale(0.25,0.25)">

<g id="pattern">
<rect width="5954" height="5954" fill="#C2CCC8"/>
<g id="pattern1" transform="matrix(1,0,0,1,370,370)">
<path d="M400 946 c-161 -36 -259 -145 -290 -321 -11 -64 -10 -76 10 -144 40 -137 107 -215 234 -275 45 -21 162 -43 172 -33 4 4 0 24 -10 44 -27 58 -24 185 6 243 44 84 66 112 110 142 72 49 104 58 199 58 97 0 103 4 75 58 -21 38 -124 135 -171 160 -71 38 -132 60 -182 67 -26 3 -59 8 -73 10 -14 2 -50 -2 -80 -9z" transform="translate(0.000000,0.000000) scale(1,1)" stroke="none" fill="#696959"/>
<path d="M400 1004 c-177 -30 -327 -192 -345 -374 -28 -276 163 -486 466 -514 42 -4 89 -14 105 -23 66 -34 165 -45 219 -23 11 4 41 15 66 24 59 21 159 123 194 197 47 101 24 198 -65 276 -25 22 -40 46 -49 81 -39 155 -190 286 -386 337 -57 15 -168 25 -205 19z m153 -59 c50 -7 111 -29 182 -67 47 -25 150 -122 171 -160 28 -54 22 -58 -75 -58 -95 0 -127 -9 -199 -58 -44 -30 -66 -58 -110 -142 -30 -58 -33 -185 -6 -243 10 -20 14 -40 10 -44 -10 -10 -127 12 -172 33 -127 60 -194 138 -234 275 -20 68 -21 80 -10 144 24 137 95 241 199 292 46 22 139 43 171 38 14 -2 47 -7 73 -10z" transform="translate(0.000000,0.000000) scale(1,1)" stroke="none" fill="#A49E98"/>
</g>
<g id="pattern2" transform="matrix(0.618,0,0,0.618,2821,828)">
<path d="M400 946 c-161 -36 -259 -145 -290 -321 -11 -64 -10 -76 10 -144 40 -137 107 -215 234 -275 45 -21 162 -43 172 -33 4 4 0 24 -10 44 -27 58 -24 185 6 243 44 84 66 112 110 142 72 49 104 58 199 58 97 0 103 4 75 58 -21 38 -124 135 -171 160 -71 38 -132 60 -182 67 -26 3 -59 8 -73 10 -14 2 -50 -2 -80 -9z" transform="translate(3737,0.000000) scale(-1,1)" stroke="none" fill="#696959"/>
<path d="M400 1004 c-177 -30 -327 -192 -345 -374 -28 -276 163 -486 466 -514 42 -4 89 -14 105 -23 66 -34 165 -45 219 -23 11 4 41 15 66 24 59 21 159 123 194 197 47 101 24 198 -65 276 -25 22 -40 46 -49 81 -39 155 -190 286 -386 337 -57 15 -168 25 -205 19z m153 -59 c50 -7 111 -29 182 -67 47 -25 150 -122 171 -160 28 -54 22 -58 -75 -58 -95 0 -127 -9 -199 -58 -44 -30 -66 -58 -110 -142 -30 -58 -33 -185 -6 -243 10 -20 14 -40 10 -44 -10 -10 -127 12 -172 33 -127 60 -194 138 -234 275 -20 68 -21 80 -10 144 24 137 95 241 199 292 46 22 139 43 171 38 14 -2 47 -7 73 -10z" transform="translate(3737,0.000000) scale(-1,1)" stroke="none" fill="#A49E98"/>
</g>
<g id="pattern3" transform="matrix(0.618,0,0,0.618,1057,3737)matrix(0.71,0.71,-0.71,0.71,0,0)">
<path d="M400 946 c-161 -36 -259 -145 -290 -321 -11 -64 -10 -76 10 -144 40 -137 107 -215 234 -275 45 -21 162 -43 172 -33 4 4 0 24 -10 44 -27 58 -24 185 6 243 44 84 66 112 110 142 72 49 104 58 199 58 97 0 103 4 75 58 -21 38 -124 135 -171 160 -71 38 -132 60 -182 67 -26 3 -59 8 -73 10 -14 2 -50 -2 -80 -9z" transform="translate(599,-599) scale(1,1)" stroke="none" fill="#696959"/>
<path d="M400 1004 c-177 -30 -327 -192 -345 -374 -28 -276 163 -486 466 -514 42 -4 89 -14 105 -23 66 -34 165 -45 219 -23 11 4 41 15 66 24 59 21 159 123 194 197 47 101 24 198 -65 276 -25 22 -40 46 -49 81 -39 155 -190 286 -386 337 -57 15 -168 25 -205 19z m153 -59 c50 -7 111 -29 182 -67 47 -25 150 -122 171 -160 28 -54 22 -58 -75 -58 -95 0 -127 -9 -199 -58 -44 -30 -66 -58 -110 -142 -30 -58 -33 -185 -6 -243 10 -20 14 -40 10 -44 -10 -10 -127 12 -172 33 -127 60 -194 138 -234 275 -20 68 -21 80 -10 144 24 137 95 241 199 292 46 22 139 43 171 38 14 -2 47 -7 73 -10z" transform="translate(599,-599) scale(1,1)" stroke="none" fill="#A49E98"/>
</g>
<g id="pattern4" transform="matrix(1.618,0,0,1.618,1568,1568)matrix(0.87,0.5,-0.5,0.87,0,0)">
<path d="M400 946 c-161 -36 -259 -145 -290 -321 -11 -64 -10 -76 10 -144 40 -137 107 -215 234 -275 45 -21 162 -43 172 -33 4 4 0 24 -10 44 -27 58 -24 185 6 243 44 84 66 112 110 142 72 49 104 58 199 58 97 0 103 4 75 58 -21 38 -124 135 -171 160 -71 38 -132 60 -182 67 -26 3 -59 8 -73 10 -14 2 -50 -2 -80 -9z" transform="translate(599,-599) scale(1,1)" stroke="none" fill="#696959"/>
<path d="M400 1004 c-177 -30 -327 -192 -345 -374 -28 -276 163 -486 466 -514 42 -4 89 -14 105 -23 66 -34 165 -45 219 -23 11 4 41 15 66 24 59 21 159 123 194 197 47 101 24 198 -65 276 -25 22 -40 46 -49 81 -39 155 -190 286 -386 337 -57 15 -168 25 -205 19z m153 -59 c50 -7 111 -29 182 -67 47 -25 150 -122 171 -160 28 -54 22 -58 -75 -58 -95 0 -127 -9 -199 -58 -44 -30 -66 -58 -110 -142 -30 -58 -33 -185 -6 -243 10 -20 14 -40 10 -44 -10 -10 -127 12 -172 33 -127 60 -194 138 -234 275 -20 68 -21 80 -10 144 24 137 95 241 199 292 46 22 139 43 171 38 14 -2 47 -7 73 -10z" transform="translate(599,-599) scale(1,1)" stroke="none" fill="#A49E98"/>
</g>
</g>
</g>

<g id="3" transform="translate(4122.0,0)scale(0.25,0.25)">

<g id="pattern">
<rect width="5954" height="5954" fill="#C2CCC8"/>
<g id="pattern1" transform="matrix(1,0,0,1,370,370)">
<path d="M400 946 c-161 -36 -259 -145 -290 -321 -11 -64 -10 -76 10 -144 40 -137 107 -215 234 -275 45 -21 162 -43 172 -33 4 4 0 24 -10 44 -27 58 -24 185 6 243 44 84 66 112 110 142 72 49 104 58 199 58 97 0 103 4 75 58 -21 38 -124 135 -171 160 -71 38 -132 60 -182 67 -26 3 -59 8 -73 10 -14 2 -50 -2 -80 -9z" transform="translate(0.000000,0.000000) scale(1,1)" stroke="none" fill="#696959"/>
<path d="M400 1004 c-177 -30 -327 -192 -345 -374 -28 -276 163 -486 466 -514 42 -4 89 -14 105 -23 66 -34 165 -45 219 -23 11 4 41 15 66 24 59 21 159 123 194 197 47 101 24 198 -65 276 -25 22 -40 46 -49 81 -39 155 -190 286 -386 337 -57 15 -168 25 -205 19z m153 -59 c50 -7 111 -29 182 -67 47 -25 150 -122 171 -160 28 -54 22 -58 -75 -58 -95 0 -127 -9 -199 -58 -44 -30 -66 -58 -110 -142 -30 -58 -33 -185 -6 -243 10 -20 14 -40 10 -44 -10 -10 -127 12 -172 33 -127 60 -194 138 -234 275 -20 68 -21 80 -10 144 24 137 95 241 199 292 46 22 139 43 171 38 14 -2 47 -7 73 -10z" transform="translate(0.000000,0.000000) scale(1,1)" stroke="none" fill="#A49E98"/>
</g>
<g id="pattern2" transform="matrix(0.618,0,0,0.618,2821,828)">
<path d="M400 946 c-161 -36 -259 -145 -290 -321 -11 -64 -10 -76 10 -144 40 -137 107 -215 234 -275 45 -21 162 -43 172 -33 4 4 0 24 -10 44 -27 58 -24 185 6 243 44 84 66 112 110 142 72 49 104 58 199 58 97 0 103 4 75 58 -21 38 -124 135 -171 160 -71 38 -132 60 -182 67 -26 3 -59 8 -73 10 -14 2 -50 -2 -80 -9z" transform="translate(3737,0.000000) scale(-1,1)" stroke="none" fill="#696959"/>
<path d="M400 1004 c-177 -30 -327 -192 -345 -374 -28 -276 163 -486 466 -514 42 -4 89 -14 105 -23 66 -34 165 -45 219 -23 11 4 41 15 66 24 59 21 159 123 194 197 47 101 24 198 -65 276 -25 22 -40 46 -49 81 -39 155 -190 286 -386 337 -57 15 -168 25 -205 19z m153 -59 c50 -7 111 -29 182 -67 47 -25 150 -122 171 -160 28 -54 22 -58 -75 -58 -95 0 -127 -9 -199 -58 -44 -30 -66 -58 -110 -142 -30 -58 -33 -185 -6 -243 10 -20 14 -40 10 -44 -10 -10 -127 12 -172 33 -127 60 -194 138 -234 275 -20 68 -21 80 -10 144 24 137 95 241 199 292 46 22 139 43 171 38 14 -2 47 -7 73 -10z" transform="translate(3737,0.000000) scale(-1,1)" stroke="none" fill="#A49E98"/>
</g>
<g id="pattern3" transform="matrix(0.618,0,0,0.618,1057,3737)matrix(0.71,0.71,-0.71,0.71,0,0)">
<path d="M400 946 c-161 -36 -259 -145 -290 -321 -11 -64 -10 -76 10 -144 40 -137 107 -215 234 -275 45 -21 162 -43 172 -33 4 4 0 24 -10 44 -27 58 -24 185 6 243 44 84 66 112 110 142 72 49 104 58 199 58 97 0 103 4 75 58 -21 38 -124 135 -171 160 -71 38 -132 60 -182 67 -26 3 -59 8 -73 10 -14 2 -50 -2 -80 -9z" transform="translate(599,-599) scale(1,1)" stroke="none" fill="#696959"/>
<path d="M400 1004 c-177 -30 -327 -192 -345 -374 -28 -276 163 -486 466 -514 42 -4 89 -14 105 -23 66 -34 165 -45 219 -23 11 4 41 15 66 24 59 21 159 123 194 197 47 101 24 198 -65 276 -25 22 -40 46 -49 81 -39 155 -190 286 -386 337 -57 15 -168 25 -205 19z m153 -59 c50 -7 111 -29 182 -67 47 -25 150 -122 171 -160 28 -54 22 -58 -75 -58 -95 0 -127 -9 -199 -58 -44 -30 -66 -58 -110 -142 -30 -58 -33 -185 -6 -243 10 -20 14 -40 10 -44 -10 -10 -127 12 -172 33 -127 60 -194 138 -234 275 -20 68 -21 80 -10 144 24 137 95 241 199 292 46 22 139 43 171 38 14 -2 47 -7 73 -10z" transform="translate(599,-599) scale(1,1)" stroke="none" fill="#A49E98"/>
</g>
<g id="pattern4" transform="matrix(1.618,0,0,1.618,1568,1568)matrix(0.87,0.5,-0.5,0.87,0,0)">
<path d="M400 946 c-161 -36 -259 -145 -290 -321 -11 -64 -10 -76 10 -144 40 -137 107 -215 234 -275 45 -21 162 -43 172 -33 4 4 0 24 -10 44 -27 58 -24 185 6 243 44 84 66 112 110 142 72 49 104 58 199 58 97 0 103 4 75 58 -21 38 -124 135 -171 160 -71 38 -132 60 -182 67 -26 3 -59 8 -73 10 -14 2 -50 -2 -80 -9z" transform="translate(599,-599) scale(1,1)" stroke="none" fill="#696959"/>
<path d="M400 1004 c-177 -30 -327 -192 -345 -374 -28 -276 163 -486 466 -514 42 -4 89 -14 105 -23 66 -34 165 -45 219 -23 11 4 41 15 66 24 59 21 159 123 194 197 47 101 24 198 -65 276 -25 22 -40 46 -49 81 -39 155 -190 286 -386 337 -57 15 -168 25 -205 19z m153 -59 c50 -7 111 -29 182 -67 47 -25 150 -122 171 -160 28 -54 22 -58 -75 -58 -95 0 -127 -9 -199 -58 -44 -30 -66 -58 -110 -142 -30 -58 -33 -185 -6 -243 10 -20 14 -40 10 -44 -10 -10 -127 12 -172 33 -127 60 -194 138 -234 275 -20 68 -21 80 -10 144 24 137 95 241 199 292 46 22 139 43 171 38 14 -2 47 -7 73 -10z" transform="translate(599,-599) scale(1,1)" stroke="none" fill="#A49E98"/>
</g>
</g>
</g>

<g id="4" transform="translate(5496.0,0)scale(0.25,0.25)">

<g id="pattern">
<rect width="5954" height="5954" fill="#C2CCC8"/>
<g id="pattern1" transform="matrix(1,0,0,1,370,370)">
<path d="M400 946 c-161 -36 -259 -145 -290 -321 -11 -64 -10 -76 10 -144 40 -137 107 -215 234 -275 45 -21 162 -43 172 -33 4 4 0 24 -10 44 -27 58 -24 185 6 243 44 84 66 112 110 142 72 49 104 58 199 58 97 0 103 4 75 58 -21 38 -124 135 -171 160 -71 38 -132 60 -182 67 -26 3 -59 8 -73 10 -14 2 -50 -2 -80 -9z" transform="translate(0.000000,0.000000) scale(1,1)" stroke="none" fill="#696959"/>
<path d="M400 1004 c-177 -30 -327 -192 -345 -374 -28 -276 163 -486 466 -514 42 -4 89 -14 105 -23 66 -34 165 -45 219 -23 11 4 41 15 66 24 59 21 159 123 194 197 47 101 24 198 -65 276 -25 22 -40 46 -49 81 -39 155 -190 286 -386 337 -57 15 -168 25 -205 19z m153 -59 c50 -7 111 -29 182 -67 47 -25 150 -122 171 -160 28 -54 22 -58 -75 -58 -95 0 -127 -9 -199 -58 -44 -30 -66 -58 -110 -142 -30 -58 -33 -185 -6 -243 10 -20 14 -40 10 -44 -10 -10 -127 12 -172 33 -127 60 -194 138 -234 275 -20 68 -21 80 -10 144 24 137 95 241 199 292 46 22 139 43 171 38 14 -2 47 -7 73 -10z" transform="translate(0.000000,0.000000) scale(1,1)" stroke="none" fill="#A49E98"/>
</g>
<g id="pattern2" transform="matrix(0.618,0,0,0.618,2821,828)">
<path d="M400 946 c-161 -36 -259 -145 -290 -321 -11 -64 -10 -76 10 -144 40 -137 107 -215 234 -275 45 -21 162 -43 172 -33 4 4 0 24 -10 44 -27 58 -24 185 6 243 44 84 66 112 110 142 72 49 104 58 199 58 97 0 103 4 75 58 -21 38 -124 135 -171 160 -71 38 -132 60 -182 67 -26 3 -59 8 -73 10 -14 2 -50 -2 -80 -9z" transform="translate(3737,0.000000) scale(-1,1)" stroke="none" fill="#696959"/>
<path d="M400 1004 c-177 -30 -327 -192 -345 -374 -28 -276 163 -486 466 -514 42 -4 89 -14 105 -23 66 -34 165 -45 219 -23 11 4 41 15 66 24 59 21 159 123 194 197 47 101 24 198 -65 276 -25 22 -40 46 -49 81 -39 155 -190 286 -386 337 -57 15 -168 25 -205 19z m153 -59 c50 -7 111 -29 182 -67 47 -25 150 -122 171 -160 28 -54 22 -58 -75 -58 -95 0 -127 -9 -199 -58 -44 -30 -66 -58 -110 -142 -30 -58 -33 -185 -6 -243 10 -20 14 -40 10 -44 -10 -10 -127 12 -172 33 -127 60 -194 138 -234 275 -20 68 -21 80 -10 144 24 137 95 241 199 292 46 22 139 43 171 38 14 -2 47 -7 73 -10z" transform="translate(3737,0.000000) scale(-1,1)" stroke="none" fill="#A49E98"/>
</g>
<g id="pattern3" transform="matrix(0.618,0,0,0.618,1057,3737)matrix(0.71,0.71,-0.71,0.71,0,0)">
<path d="M400 946 c-161 -36 -259 -145 -290 -321 -11 -64 -10 -76 10 -144 40 -137 107 -215 234 -275 45 -21 162 -43 172 -33 4 4 0 24 -10 44 -27 58 -24 185 6 243 44 84 66 112 110 142 72 49 104 58 199 58 97 0 103 4 75 58 -21 38 -124 135 -171 160 -71 38 -132 60 -182 67 -26 3 -59 8 -73 10 -14 2 -50 -2 -80 -9z" transform="translate(599,-599) scale(1,1)" stroke="none" fill="#696959"/>
<path d="M400 1004 c-177 -30 -327 -192 -345 -374 -28 -276 163 -486 466 -514 42 -4 89 -14 105 -23 66 -34 165 -45 219 -23 11 4 41 15 66 24 59 21 159 123 194 197 47 101 24 198 -65 276 -25 22 -40 46 -49 81 -39 155 -190 286 -386 337 -57 15 -168 25 -205 19z m153 -59 c50 -7 111 -29 182 -67 47 -25 150 -122 171 -160 28 -54 22 -58 -75 -58 -95 0 -127 -9 -199 -58 -44 -30 -66 -58 -110 -142 -30 -58 -33 -185 -6 -243 10 -20 14 -40 10 -44 -10 -10 -127 12 -172 33 -127 60 -194 138 -234 275 -20 68 -21 80 -10 144 24 137 95 241 199 292 46 22 139 43 171 38 14 -2 47 -7 73 -10z" transform="translate(599,-599) scale(1,1)" stroke="none" fill="#A49E98"/>
</g>
<g id="pattern4" transform="matrix(1.618,0,0,1.618,1568,1568)matrix(0.87,0.5,-0.5,0.87,0,0)">
<path d="M400 946 c-161 -36 -259 -145 -290 -321 -11 -64 -10 -76 10 -144 40 -137 107 -215 234 -275 45 -21 162 -43 172 -33 4 4 0 24 -10 44 -27 58 -24 185 6 243 44 84 66 112 110 142 72 49 104 58 199 58 97 0 103 4 75 58 -21 38 -124 135 -171 160 -71 38 -132 60 -182 67 -26 3 -59 8 -73 10 -14 2 -50 -2 -80 -9z" transform="translate(599,-599) scale(1,1)" stroke="none" fill="#696959"/>
<path d="M400 1004 c-177 -30 -327 -192 -345 -374 -28 -276 163 -486 466 -514 42 -4 89 -14 105 -23 66 -34 165 -45 219 -23 11 4 41 15 66 24 59 21 159 123 194 197 47 101 24 198 -65 276 -25 22 -40 46 -49 81 -39 155 -190 286 -386 337 -57 15 -168 25 -205 19z m153 -59 c50 -7 111 -29 182 -67 47 -25 150 -122 171 -160 28 -54 22 -58 -75 -58 -95 0 -127 -9 -199 -58 -44 -30 -66 -58 -110 -142 -30 -58 -33 -185 -6 -243 10 -20 14 -40 10 -44 -10 -10 -127 12 -172 33 -127 60 -194 138 -234 275 -20 68 -21 80 -10 144 24 137 95 241 199 292 46 22 139 43 171 38 14 -2 47 -7 73 -10z" transform="translate(599,-599) scale(1,1)" stroke="none" fill="#A49E98"/>
</g>
</g>
</g>

</g>
<g id="row1" transform="translate(0,1374.0)">
<g id="0" transform="translate(0.0,0)scale(0.25,0.25)">

<g id="pattern">
<rect width="5954" height="5954" fill="#C2CCC8"/>
<g id="pattern1" transform="matrix(1,0,0,1,370,370)">
<path d="M400 946 c-161 -36 -259 -145 -290 -321 -11 -64 -10 -76 10 -144 40 -137 107 -215 234 -275 45 -21 162 -43 172 -33 4 4 0 24 -10 44 -27 58 -24 185 6 243 44 84 66 112 110 142 72 49 104 58 199 58 97 0 103 4 75 58 -21 38 -124 135 -171 160 -71 38 -132 60 -182 67 -26 3 -59 8 -73 10 -14 2 -50 -2 -80 -9z" transform="translate(0.000000,0.000000) scale(1,1)" stroke="none" fill="#696959"/>
<path d="M400 1004 c-177 -30 -327 -192 -345 -374 -28 -276 163 -486 466 -514 42 -4 89 -14 105 -23 66 -34 165 -45 219 -23 11 4 41 15 66 24 59 21 159 123 194 197 47 101 24 198 -65 276 -25 22 -40 46 -49 81 -39 155 -190 286 -386 337 -57 15 -168 25 -205 19z m153 -59 c50 -7 111 -29 182 -67 47 -25 150 -122 171 -160 28 -54 22 -58 -75 -58 -95 0 -127 -9 -199 -58 -44 -30 -66 -58 -110 -142 -30 -58 -33 -185 -6 -243 10 -20 14 -40 10 -44 -10 -10 -127 12 -172 33 -127 60 -194 138 -234 275 -20 68 -21 80 -10 144 24 137 95 241 199 292 46 22 139 43 171 38 14 -2 47 -7 73 -10z" transform="translate(0.000000,0.000000) scale(1,1)" stroke="none" fill="#A49E98"/>
</g>
<g id="pattern2" transform="matrix(0.618,0,0,0.618,2821,828)">
<path d="M400 946 c-161 -36 -259 -145 -290 -321 -11 -64 -10 -76 10 -144 40 -137 107 -215 234 -275 45 -21 162 -43 172 -33 4 4 0 24 -10 44 -27 58 -24 185 6 243 44 84 66 112 110 142 72 49 104 58 199 58 97 0 103 4 75 58 -21 38 -124 135 -171 160 -71 38 -132 60 -182 67 -26 3 -59 8 -73 10 -14 2 -50 -2 -80 -9z" transform="translate(3737,0.000000) scale(-1,1)" stroke="none" fill="#696959"/>
<path d="M400 1004 c-177 -30 -327 -192 -345 -374 -28 -276 163 -486 466 -514 42 -4 89 -14 105 -23 66 -34 165 -45 219 -23 11 4 41 15 66 24 59 21 159 123 194 197 47 101 24 198 -65 276 -25 22 -40 46 -49 81 -39 155 -190 286 -386 337 -57 15 -168 25 -205 19z m153 -59 c50 -7 111 -29 182 -67 47 -25 150 -122 171 -160 28 -54 22 -58 -75 -58 -95 0 -127 -9 -199 -58 -44 -30 -66 -58 -110 -142 -30 -58 -33 -185 -6 -243 10 -20 14 -40 10 -44 -10 -10 -127 12 -172 33 -127 60 -194 138 -234 275 -20 68 -21 80 -10 144 24 137 95 241 199 292 46 22 139 43 171 38 14 -2 47 -7 73 -10z" transform="translate(3737,0.000000) scale(-1,1)" stroke="none" fill="#A49E98"/>
</g>
<g id="pattern3" transform="matrix(0.618,0,0,0.618,1057,3737)matrix(0.71,0.71,-0.71,0.71,0,0)">
<path d="M400 946 c-161 -36 -259 -145 -290 -321 -11 -64 -10 -76 10 -144 40 -137 107 -215 234 -275 45 -21 162 -43 172 -33 4 4 0 24 -10 44 -27 58 -24 185 6 243 44 84 66 112 110 142 72 49 104 58 199 58 97 0 103 4 75 58 -21 38 -124 135 -171 160 -71 38 -132 60 -182 67 -26 3 -59 8 -73 10 -14 2 -50 -2 -80 -9z" transform="translate(599,-599) scale(1,1)" stroke="none" fill="#696959"/>
<path d="M400 1004 c-177 -30 -327 -192 -345 -374 -28 -276 163 -486 466 -514 42 -4 89 -14 105 -23 66 -34 165 -45 219 -23 11 4 41 15 66 24 59 21 159 123 194 197 47 101 24 198 -65 276 -25 22 -40 46 -49 81 -39 155 -190 286 -386 337 -57 15 -168 25 -205 19z m153 -59 c50 -7 111 -29 182 -67 47 -25 150 -122 171 -160 28 -54 22 -58 -75 -58 -95 0 -127 -9 -199 -58 -44 -30 -66 -58 -110 -142 -30 -58 -33 -185 -6 -243 10 -20 14 -40 10 -44 -10 -10 -127 12 -172 33 -127 60 -194 138 -234 275 -20 68 -21 80 -10 144 24 137 95 241 199 292 46 22 139 43 171 38 14 -2 47 -7 73 -10z" transform="translate(599,-599) scale(1,1)" stroke="none" fill="#A49E98"/>
</g>
<g id="pattern4" transform="matrix(1.618,0,0,1.618,1568,1568)matrix(0.87,0.5,-0.5,0.87,0,0)">
<path d="M400 946 c-161 -36 -259 -145 -290 -321 -11 -64 -10 -76 10 -144 40 -137 107 -215 234 -275 45 -21 162 -43 172 -33 4 4 0 24 -10 44 -27 58 -24 185 6 243 44 84 66 112 110 142 72 49 104 58 199 58 97 0 103 4 75 58 -21 38 -124 135 -171 160 -71 38 -132 60 -182 67 -26 3 -59 8 -73 10 -14 2 -50 -2 -80 -9z" transform="translate(599,-599) scale(1,1)" stroke="none" fill="#696959"/>
<path d="M400 1004 c-177 -30 -327 -192 -345 -374 -28 -276 163 -486 466 -514 42 -4 89 -14 105 -23 66 -34 165 -45 219 -23 11 4 41 15 66 24 59 21 159 123 194 197 47 101 24 198 -65 276 -25 22 -40 46 -49 81 -39 155 -190 286 -386 337 -57 15 -168 25 -205 19z m153 -59 c50 -7 111 -29 182 -67 47 -25 150 -122 171 -160 28 -54 22 -58 -75 -58 -95 0 -127 -9 -199 -58 -44 -30 -66 -58 -110 -142 -30 -58 -33 -185 -6 -243 10 -20 14 -40 10 -44 -10 -10 -127 12 -172 33 -127 60 -194 138 -234 275 -20 68 -21 80 -10 144 24 137 95 241 199 292 46 22 139 43 171 38 14 -2 47 -7 73 -10z" transform="translate(599,-599) scale(1,1)" stroke="none" fill="#A49E98"/>
</g>
</g>
</g>

<g id="1" transform="translate(1374.0,0)scale(0.25,0.25)">

<g id="pattern">
<rect width="5954" height="5954" fill="#C2CCC8"/>
<g id="pattern1" transform="matrix(1,0,0,1,370,370)">
<path d="M400 946 c-161 -36 -259 -145 -290 -321 -11 -64 -10 -76 10 -144 40 -137 107 -215 234 -275 45 -21 162 -43 172 -33 4 4 0 24 -10 44 -27 58 -24 185 6 243 44 84 66 112 110 142 72 49 104 58 199 58 97 0 103 4 75 58 -21 38 -124 135 -171 160 -71 38 -132 60 -182 67 -26 3 -59 8 -73 10 -14 2 -50 -2 -80 -9z" transform="translate(0.000000,0.000000) scale(1,1)" stroke="none" fill="#696959"/>
<path d="M400 1004 c-177 -30 -327 -192 -345 -374 -28 -276 163 -486 466 -514 42 -4 89 -14 105 -23 66 -34 165 -45 219 -23 11 4 41 15 66 24 59 21 159 123 194 197 47 101 24 198 -65 276 -25 22 -40 46 -49 81 -39 155 -190 286 -386 337 -57 15 -168 25 -205 19z m153 -59 c50 -7 111 -29 182 -67 47 -25 150 -122 171 -160 28 -54 22 -58 -75 -58 -95 0 -127 -9 -199 -58 -44 -30 -66 -58 -110 -142 -30 -58 -33 -185 -6 -243 10 -20 14 -40 10 -44 -10 -10 -127 12 -172 33 -127 60 -194 138 -234 275 -20 68 -21 80 -10 144 24 137 95 241 199 292 46 22 139 43 171 38 14 -2 47 -7 73 -10z" transform="translate(0.000000,0.000000) scale(1,1)" stroke="none" fill="#A49E98"/>
</g>
<g id="pattern2" transform="matrix(0.618,0,0,0.618,2821,828)">
<path d="M400 946 c-161 -36 -259 -145 -290 -321 -11 -64 -10 -76 10 -144 40 -137 107 -215 234 -275 45 -21 162 -43 172 -33 4 4 0 24 -10 44 -27 58 -24 185 6 243 44 84 66 112 110 142 72 49 104 58 199 58 97 0 103 4 75 58 -21 38 -124 135 -171 160 -71 38 -132 60 -182 67 -26 3 -59 8 -73 10 -14 2 -50 -2 -80 -9z" transform="translate(3737,0.000000) scale(-1,1)" stroke="none" fill="#696959"/>
<path d="M400 1004 c-177 -30 -327 -192 -345 -374 -28 -276 163 -486 466 -514 42 -4 89 -14 105 -23 66 -34 165 -45 219 -23 11 4 41 15 66 24 59 21 159 123 194 197 47 101 24 198 -65 276 -25 22 -40 46 -49 81 -39 155 -190 286 -386 337 -57 15 -168 25 -205 19z m153 -59 c50 -7 111 -29 182 -67 47 -25 150 -122 171 -160 28 -54 22 -58 -75 -58 -95 0 -127 -9 -199 -58 -44 -30 -66 -58 -110 -142 -30 -58 -33 -185 -6 -243 10 -20 14 -40 10 -44 -10 -10 -127 12 -172 33 -127 60 -194 138 -234 275 -20 68 -21 80 -10 144 24 137 95 241 199 292 46 22 139 43 171 38 14 -2 47 -7 73 -10z" transform="translate(3737,0.000000) scale(-1,1)" stroke="none" fill="#A49E98"/>
</g>
<g id="pattern3" transform="matrix(0.618,0,0,0.618,1057,3737)matrix(0.71,0.71,-0.71,0.71,0,0)">
<path d="M400 946 c-161 -36 -259 -145 -290 -321 -11 -64 -10 -76 10 -144 40 -137 107 -215 234 -275 45 -21 162 -43 172 -33 4 4 0 24 -10 44 -27 58 -24 185 6 243 44 84 66 112 110 142 72 49 104 58 199 58 97 0 103 4 75 58 -21 38 -124 135 -171 160 -71 38 -132 60 -182 67 -26 3 -59 8 -73 10 -14 2 -50 -2 -80 -9z" transform="translate(599,-599) scale(1,1)" stroke="none" fill="#696959"/>
<path d="M400 1004 c-177 -30 -327 -192 -345 -374 -28 -276 163 -486 466 -514 42 -4 89 -14 105 -23 66 -34 165 -45 219 -23 11 4 41 15 66 24 59 21 159 123 194 197 47 101 24 198 -65 276 -25 22 -40 46 -49 81 -39 155 -190 286 -386 337 -57 15 -168 25 -205 19z m153 -59 c50 -7 111 -29 182 -67 47 -25 150 -122 171 -160 28 -54 22 -58 -75 -58 -95 0 -127 -9 -199 -58 -44 -30 -66 -58 -110 -142 -30 -58 -33 -185 -6 -243 10 -20 14 -40 10 -44 -10 -10 -127 12 -172 33 -127 60 -194 138 -234 275 -20 68 -21 80 -10 144 24 137 95 241 199 292 46 22 139 43 171 38 14 -2 47 -7 73 -10z" transform="translate(599,-599) scale(1,1)" stroke="none" fill="#A49E98"/>
</g>
<g id="pattern4" transform="matrix(1.618,0,0,1.618,1568,1568)matrix(0.87,0.5,-0.5,0.87,0,0)">
<path d="M400 946 c-161 -36 -259 -145 -290 -321 -11 -64 -10 -76 10 -144 40 -137 107 -215 234 -275 45 -21 162 -43 172 -33 4 4 0 24 -10 44 -27 58 -24 185 6 243 44 84 66 112 110 142 72 49 104 58 199 58 97 0 103 4 75 58 -21 38 -124 135 -171 160 -71 38 -132 60 -182 67 -26 3 -59 8 -73 10 -14 2 -50 -2 -80 -9z" transform="translate(599,-599) scale(1,1)" stroke="none" fill="#696959"/>
<path d="M400 1004 c-177 -30 -327 -192 -345 -374 -28 -276 163 -486 466 -514 42 -4 89 -14 105 -23 66 -34 165 -45 219 -23 11 4 41 15 66 24 59 21 159 123 194 197 47 101 24 198 -65 276 -25 22 -40 46 -49 81 -39 155 -190 286 -386 337 -57 15 -168 25 -205 19z m153 -59 c50 -7 111 -29 182 -67 47 -25 150 -122 171 -160 28 -54 22 -58 -75 -58 -95 0 -127 -9 -199 -58 -44 -30 -66 -58 -110 -142 -30 -58 -33 -185 -6 -243 10 -20 14 -40 10 -44 -10 -10 -127 12 -172 33 -127 60 -194 138 -234 275 -20 68 -21 80 -10 144 24 137 95 241 199 292 46 22 139 43 171 38 14 -2 47 -7 73 -10z" transform="translate(599,-599) scale(1,1)" stroke="none" fill="#A49E98"/>
</g>
</g>
</g>

<g id="2" transform="translate(2748.0,0)scale(0.25,0.25)">

<g id="pattern">
<rect width="5954" height="5954" fill="#C2CCC8"/>
<g id="pattern1" transform="matrix(1,0,0,1,370,370)">
<path d="M400 946 c-161 -36 -259 -145 -290 -321 -11 -64 -10 -76 10 -144 40 -137 107 -215 234 -275 45 -21 162 -43 172 -33 4 4 0 24 -10 44 -27 58 -24 185 6 243 44 84 66 112 110 142 72 49 104 58 199 58 97 0 103 4 75 58 -21 38 -124 135 -171 160 -71 38 -132 60 -182 67 -26 3 -59 8 -73 10 -14 2 -50 -2 -80 -9z" transform="translate(0.000000,0.000000) scale(1,1)" stroke="none" fill="#696959"/>
<path d="M400 1004 c-177 -30 -327 -192 -345 -374 -28 -276 163 -486 466 -514 42 -4 89 -14 105 -23 66 -34 165 -45 219 -23 11 4 41 15 66 24 59 21 159 123 194 197 47 101 24 198 -65 276 -25 22 -40 46 -49 81 -39 155 -190 286 -386 337 -57 15 -168 25 -205 19z m153 -59 c50 -7 111 -29 182 -67 47 -25 150 -122 171 -160 28 -54 22 -58 -75 -58 -95 0 -127 -9 -199 -58 -44 -30 -66 -58 -110 -142 -30 -58 -33 -185 -6 -243 10 -20 14 -40 10 -44 -10 -10 -127 12 -172 33 -127 60 -194 138 -234 275 -20 68 -21 80 -10 144 24 137 95 241 199 292 46 22 139 43 171 38 14 -2 47 -7 73 -10z" transform="translate(0.000000,0.000000) scale(1,1)" stroke="none" fill="#A49E98"/>
</g>
<g id="pattern2" transform="matrix(0.618,0,0,0.618,2821,828)">
<path d="M400 946 c-161 -36 -259 -145 -290 -321 -11 -64 -10 -76 10 -144 40 -137 107 -215 234 -275 45 -21 162 -43 172 -33 4 4 0 24 -10 44 -27 58 -24 185 6 243 44 84 66 112 110 142 72 49 104 58 199 58 97 0 103 4 75 58 -21 38 -124 135 -171 160 -71 38 -132 60 -182 67 -26 3 -59 8 -73 10 -14 2 -50 -2 -80 -9z" transform="translate(3737,0.000000) scale(-1,1)" stroke="none" fill="#696959"/>
<path d="M400 1004 c-177 -30 -327 -192 -345 -374 -28 -276 163 -486 466 -514 42 -4 89 -14 105 -23 66 -34 165 -45 219 -23 11 4 41 15 66 24 59 21 159 123 194 197 47 101 24 198 -65 276 -25 22 -40 46 -49 81 -39 155 -190 286 -386 337 -57 15 -168 25 -205 19z m153 -59 c50 -7 111 -29 182 -67 47 -25 150 -122 171 -160 28 -54 22 -58 -75 -58 -95 0 -127 -9 -199 -58 -44 -30 -66 -58 -110 -142 -30 -58 -33 -185 -6 -243 10 -20 14 -40 10 -44 -10 -10 -127 12 -172 33 -127 60 -194 138 -234 275 -20 68 -21 80 -10 144 24 137 95 241 199 292 46 22 139 43 171 38 14 -2 47 -7 73 -10z" transform="translate(3737,0.000000) scale(-1,1)" stroke="none" fill="#A49E98"/>
</g>
<g id="pattern3" transform="matrix(0.618,0,0,0.618,1057,3737)matrix(0.71,0.71,-0.71,0.71,0,0)">
<path d="M400 946 c-161 -36 -259 -145 -290 -321 -11 -64 -10 -76 10 -144 40 -137 107 -215 234 -275 45 -21 162 -43 172 -33 4 4 0 24 -10 44 -27 58 -24 185 6 243 44 84 66 112 110 142 72 49 104 58 199 58 97 0 103 4 75 58 -21 38 -124 135 -171 160 -71 38 -132 60 -182 67 -26 3 -59 8 -73 10 -14 2 -50 -2 -80 -9z" transform="translate(599,-599) scale(1,1)" stroke="none" fill="#696959"/>
<path d="M400 1004 c-177 -30 -327 -192 -345 -374 -28 -276 163 -486 466 -514 42 -4 89 -14 105 -23 66 -34 165 -45 219 -23 11 4 41 15 66 24 59 21 159 123 194 197 47 101 24 198 -65 276 -25 22 -40 46 -49 81 -39 155 -190 286 -386 337 -57 15 -168 25 -205 19z m153 -59 c50 -7 111 -29 182 -67 47 -25 150 -122 171 -160 28 -54 22 -58 -75 -58 -95 0 -127 -9 -199 -58 -44 -30 -66 -58 -110 -142 -30 -58 -33 -185 -6 -243 10 -20 14 -40 10 -44 -10 -10 -127 12 -172 33 -127 60 -194 138 -234 275 -20 68 -21 80 -10 144 24 137 95 241 199 292 46 22 139 43 171 38 14 -2 47 -7 73 -10z" transform="translate(599,-599) scale(1,1)" stroke="none" fill="#A49E98"/>
</g>
<g id="pattern4" transform="matrix(1.618,0,0,1.618,1568,1568)matrix(0.87,0.5,-0.5,0.87,0,0)">
<path d="M400 946 c-161 -36 -259 -145 -290 -321 -11 -64 -10 -76 10 -144 40 -137 107 -215 234 -275 45 -21 162 -43 172 -33 4 4 0 24 -10 44 -27 58 -24 185 6 243 44 84 66 112 110 142 72 49 104 58 199 58 97 0 103 4 75 58 -21 38 -124 135 -171 160 -71 38 -132 60 -182 67 -26 3 -59 8 -73 10 -14 2 -50 -2 -80 -9z" transform="translate(599,-599) scale(1,1)" stroke="none" fill="#696959"/>
<path d="M400 1004 c-177 -30 -327 -192 -345 -374 -28 -276 163 -486 466 -514 42 -4 89 -14 105 -23 66 -34 165 -45 219 -23 11 4 41 15 66 24 59 21 159 123 194 197 47 101 24 198 -65 276 -25 22 -40 46 -49 81 -39 155 -190 286 -386 337 -57 15 -168 25 -205 19z m153 -59 c50 -7 111 -29 182 -67 47 -25 150 -122 171 -160 28 -54 22 -58 -75 -58 -95 0 -127 -9 -199 -58 -44 -30 -66 -58 -110 -142 -30 -58 -33 -185 -6 -243 10 -20 14 -40 10 -44 -10 -10 -127 12 -172 33 -127 60 -194 138 -234 275 -20 68 -21 80 -10 144 24 137 95 241 199 292 46 22 139 43 171 38 14 -2 47 -7 73 -10z" transform="translate(599,-599) scale(1,1)" stroke="none" fill="#A49E98"/>
</g>
</g>
</g>

<g id="3" transform="translate(4122.0,0)scale(0.25,0.25)">

<g id="pattern">
<rect width="5954" height="5954" fill="#C2CCC8"/>
<g id="pattern1" transform="matrix(1,0,0,1,370,370)">
<path d="M400 946 c-161 -36 -259 -145 -290 -321 -11 -64 -10 -76 10 -144 40 -137 107 -215 234 -275 45 -21 162 -43 172 -33 4 4 0 24 -10 44 -27 58 -24 185 6 243 44 84 66 112 110 142 72 49 104 58 199 58 97 0 103 4 75 58 -21 38 -124 135 -171 160 -71 38 -132 60 -182 67 -26 3 -59 8 -73 10 -14 2 -50 -2 -80 -9z" transform="translate(0.000000,0.000000) scale(1,1)" stroke="none" fill="#696959"/>
<path d="M400 1004 c-177 -30 -327 -192 -345 -374 -28 -276 163 -486 466 -514 42 -4 89 -14 105 -23 66 -34 165 -45 219 -23 11 4 41 15 66 24 59 21 159 123 194 197 47 101 24 198 -65 276 -25 22 -40 46 -49 81 -39 155 -190 286 -386 337 -57 15 -168 25 -205 19z m153 -59 c50 -7 111 -29 182 -67 47 -25 150 -122 171 -160 28 -54 22 -58 -75 -58 -95 0 -127 -9 -199 -58 -44 -30 -66 -58 -110 -142 -30 -58 -33 -185 -6 -243 10 -20 14 -40 10 -44 -10 -10 -127 12 -172 33 -127 60 -194 138 -234 275 -20 68 -21 80 -10 144 24 137 95 241 199 292 46 22 139 43 171 38 14 -2 47 -7 73 -10z" transform="translate(0.000000,0.000000) scale(1,1)" stroke="none" fill="#A49E98"/>
</g>
<g id="pattern2" transform="matrix(0.618,0,0,0.618,2821,828)">
<path d="M400 946 c-161 -36 -259 -145 -290 -321 -11 -64 -10 -76 10 -144 40 -137 107 -215 234 -275 45 -21 162 -43 172 -33 4 4 0 24 -10 44 -27 58 -24 185 6 243 44 84 66 112 110 142 72 49 104 58 199 58 97 0 103 4 75 58 -21 38 -124 135 -171 160 -71 38 -132 60 -182 67 -26 3 -59 8 -73 10 -14 2 -50 -2 -80 -9z" transform="translate(3737,0.000000) scale(-1,1)" stroke="none" fill="#696959"/>
<path d="M400 1004 c-177 -30 -327 -192 -345 -374 -28 -276 163 -486 466 -514 42 -4 89 -14 105 -23 66 -34 165 -45 219 -23 11 4 41 15 66 24 59 21 159 123 194 197 47 101 24 198 -65 276 -25 22 -40 46 -49 81 -39 155 -190 286 -386 337 -57 15 -168 25 -205 19z m153 -59 c50 -7 111 -29 182 -67 47 -25 150 -122 171 -160 28 -54 22 -58 -75 -58 -95 0 -127 -9 -199 -58 -44 -30 -66 -58 -110 -142 -30 -58 -33 -185 -6 -243 10 -20 14 -40 10 -44 -10 -10 -127 12 -172 33 -127 60 -194 138 -234 275 -20 68 -21 80 -10 144 24 137 95 241 199 292 46 22 139 43 171 38 14 -2 47 -7 73 -10z" transform="translate(3737,0.000000) scale(-1,1)" stroke="none" fill="#A49E98"/>
</g>
<g id="pattern3" transform="matrix(0.618,0,0,0.618,1057,3737)matrix(0.71,0.71,-0.71,0.71,0,0)">
<path d="M400 946 c-161 -36 -259 -145 -290 -321 -11 -64 -10 -76 10 -144 40 -137 107 -215 234 -275 45 -21 162 -43 172 -33 4 4 0 24 -10 44 -27 58 -24 185 6 243 44 84 66 112 110 142 72 49 104 58 199 58 97 0 103 4 75 58 -21 38 -124 135 -171 160 -71 38 -132 60 -182 67 -26 3 -59 8 -73 10 -14 2 -50 -2 -80 -9z" transform="translate(599,-599) scale(1,1)" stroke="none" fill="#696959"/>
<path d="M400 1004 c-177 -30 -327 -192 -345 -374 -28 -276 163 -486 466 -514 42 -4 89 -14 105 -23 66 -34 165 -45 219 -23 11 4 41 15 66 24 59 21 159 123 194 197 47 101 24 198 -65 276 -25 22 -40 46 -49 81 -39 155 -190 286 -386 337 -57 15 -168 25 -205 19z m153 -59 c50 -7 111 -29 182 -67 47 -25 150 -122 171 -160 28 -54 22 -58 -75 -58 -95 0 -127 -9 -199 -58 -44 -30 -66 -58 -110 -142 -30 -58 -33 -185 -6 -243 10 -20 14 -40 10 -44 -10 -10 -127 12 -172 33 -127 60 -194 138 -234 275 -20 68 -21 80 -10 144 24 137 95 241 199 292 46 22 139 43 171 38 14 -2 47 -7 73 -10z" transform="translate(599,-599) scale(1,1)" stroke="none" fill="#A49E98"/>
</g>
<g id="pattern4" transform="matrix(1.618,0,0,1.618,1568,1568)matrix(0.87,0.5,-0.5,0.87,0,0)">
<path d="M400 946 c-161 -36 -259 -145 -290 -321 -11 -64 -10 -76 10 -144 40 -137 107 -215 234 -275 45 -21 162 -43 172 -33 4 4 0 24 -10 44 -27 58 -24 185 6 243 44 84 66 112 110 142 72 49 104 58 199 58 97 0 103 4 75 58 -21 38 -124 135 -171 160 -71 38 -132 60 -182 67 -26 3 -59 8 -73 10 -14 2 -50 -2 -80 -9z" transform="translate(599,-599) scale(1,1)" stroke="none" fill="#696959"/>
<path d="M400 1004 c-177 -30 -327 -192 -345 -374 -28 -276 163 -486 466 -514 42 -4 89 -14 105 -23 66 -34 165 -45 219 -23 11 4 41 15 66 24 59 21 159 123 194 197 47 101 24 198 -65 276 -25 22 -40 46 -49 81 -39 155 -190 286 -386 337 -57 15 -168 25 -205 19z m153 -59 c50 -7 111 -29 182 -67 47 -25 150 -122 171 -160 28 -54 22 -58 -75 -58 -95 0 -127 -9 -199 -58 -44 -30 -66 -58 -110 -142 -30 -58 -33 -185 -6 -243 10 -20 14 -40 10 -44 -10 -10 -127 12 -172 33 -127 60 -194 138 -234 275 -20 68 -21 80 -10 144 24 137 95 241 199 292 46 22 139 43 171 38 14 -2 47 -7 73 -10z" transform="translate(599,-599) scale(1,1)" stroke="none" fill="#A49E98"/>
</g>
</g>
</g>

<g id="4" transform="translate(5496.0,0)scale(0.25,0.25)">

<g id="pattern">
<rect width="5954" height="5954" fill="#C2CCC8"/>
<g id="pattern1" transform="matrix(1,0,0,1,370,370)">
<path d="M400 946 c-161 -36 -259 -145 -290 -321 -11 -64 -10 -76 10 -144 40 -137 107 -215 234 -275 45 -21 162 -43 172 -33 4 4 0 24 -10 44 -27 58 -24 185 6 243 44 84 66 112 110 142 72 49 104 58 199 58 97 0 103 4 75 58 -21 38 -124 135 -171 160 -71 38 -132 60 -182 67 -26 3 -59 8 -73 10 -14 2 -50 -2 -80 -9z" transform="translate(0.000000,0.000000) scale(1,1)" stroke="none" fill="#696959"/>
<path d="M400 1004 c-177 -30 -327 -192 -345 -374 -28 -276 163 -486 466 -514 42 -4 89 -14 105 -23 66 -34 165 -45 219 -23 11 4 41 15 66 24 59 21 159 123 194 197 47 101 24 198 -65 276 -25 22 -40 46 -49 81 -39 155 -190 286 -386 337 -57 15 -168 25 -205 19z m153 -59 c50 -7 111 -29 182 -67 47 -25 150 -122 171 -160 28 -54 22 -58 -75 -58 -95 0 -127 -9 -199 -58 -44 -30 -66 -58 -110 -142 -30 -58 -33 -185 -6 -243 10 -20 14 -40 10 -44 -10 -10 -127 12 -172 33 -127 60 -194 138 -234 275 -20 68 -21 80 -10 144 24 137 95 241 199 292 46 22 139 43 171 38 14 -2 47 -7 73 -10z" transform="translate(0.000000,0.000000) scale(1,1)" stroke="none" fill="#A49E98"/>
</g>
<g id="pattern2" transform="matrix(0.618,0,0,0.618,2821,828)">
<path d="M400 946 c-161 -36 -259 -145 -290 -321 -11 -64 -10 -76 10 -144 40 -137 107 -215 234 -275 45 -21 162 -43 172 -33 4 4 0 24 -10 44 -27 58 -24 185 6 243 44 84 66 112 110 142 72 49 104 58 199 58 97 0 103 4 75 58 -21 38 -124 135 -171 160 -71 38 -132 60 -182 67 -26 3 -59 8 -73 10 -14 2 -50 -2 -80 -9z" transform="translate(3737,0.000000) scale(-1,1)" stroke="none" fill="#696959"/>
<path d="M400 1004 c-177 -30 -327 -192 -345 -374 -28 -276 163 -486 466 -514 42 -4 89 -14 105 -23 66 -34 165 -45 219 -23 11 4 41 15 66 24 59 21 159 123 194 197 47 101 24 198 -65 276 -25 22 -40 46 -49 81 -39 155 -190 286 -386 337 -57 15 -168 25 -205 19z m153 -59 c50 -7 111 -29 182 -67 47 -25 150 -122 171 -160 28 -54 22 -58 -75 -58 -95 0 -127 -9 -199 -58 -44 -30 -66 -58 -110 -142 -30 -58 -33 -185 -6 -243 10 -20 14 -40 10 -44 -10 -10 -127 12 -172 33 -127 60 -194 138 -234 275 -20 68 -21 80 -10 144 24 137 95 241 199 292 46 22 139 43 171 38 14 -2 47 -7 73 -10z" transform="translate(3737,0.000000) scale(-1,1)" stroke="none" fill="#A49E98"/>
</g>
<g id="pattern3" transform="matrix(0.618,0,0,0.618,1057,3737)matrix(0.71,0.71,-0.71,0.71,0,0)">
<path d="M400 946 c-161 -36 -259 -145 -290 -321 -11 -64 -10 -76 10 -144 40 -137 107 -215 234 -275 45 -21 162 -43 172 -33 4 4 0 24 -10 44 -27 58 -24 185 6 243 44 84 66 112 110 142 72 49 104 58 199 58 97 0 103 4 75 58 -21 38 -124 135 -171 160 -71 38 -132 60 -182 67 -26 3 -59 8 -73 10 -14 2 -50 -2 -80 -9z" transform="translate(599,-599) scale(1,1)" stroke="none" fill="#696959"/>
<path d="M400 1004 c-177 -30 -327 -192 -345 -374 -28 -276 163 -486 466 -514 42 -4 89 -14 105 -23 66 -34 165 -45 219 -23 11 4 41 15 66 24 59 21 159 123 194 197 47 101 24 198 -65 276 -25 22 -40 46 -49 81 -39 155 -190 286 -386 337 -57 15 -168 25 -205 19z m153 -59 c50 -7 111 -29 182 -67 47 -25 150 -122 171 -160 28 -54 22 -58 -75 -58 -95 0 -127 -9 -199 -58 -44 -30 -66 -58 -110 -142 -30 -58 -33 -185 -6 -243 10 -20 14 -40 10 -44 -10 -10 -127 12 -172 33 -127 60 -194 138 -234 275 -20 68 -21 80 -10 144 24 137 95 241 199 292 46 22 139 43 171 38 14 -2 47 -7 73 -10z" transform="translate(599,-599) scale(1,1)" stroke="none" fill="#A49E98"/>
</g>
<g id="pattern4" transform="matrix(1.618,0,0,1.618,1568,1568)matrix(0.87,0.5,-0.5,0.87,0,0)">
<path d="M400 946 c-161 -36 -259 -145 -290 -321 -11 -64 -10 -76 10 -144 40 -137 107 -215 234 -275 45 -21 162 -43 172 -33 4 4 0 24 -10 44 -27 58 -24 185 6 243 44 84 66 112 110 142 72 49 104 58 199 58 97 0 103 4 75 58 -21 38 -124 135 -171 160 -71 38 -132 60 -182 67 -26 3 -59 8 -73 10 -14 2 -50 -2 -80 -9z" transform="translate(599,-599) scale(1,1)" stroke="none" fill="#696959"/>
<path d="M400 1004 c-177 -30 -327 -192 -345 -374 -28 -276 163 -486 466 -514 42 -4 89 -14 105 -23 66 -34 165 -45 219 -23 11 4 41 15 66 24 59 21 159 123 194 197 47 101 24 198 -65 276 -25 22 -40 46 -49 81 -39 155 -190 286 -386 337 -57 15 -168 25 -205 19z m153 -59 c50 -7 111 -29 182 -67 47 -25 150 -122 171 -160 28 -54 22 -58 -75 -58 -95 0 -127 -9 -199 -58 -44 -30 -66 -58 -110 -142 -30 -58 -33 -185 -6 -243 10 -20 14 -40 10 -44 -10 -10 -127 12 -172 33 -127 60 -194 138 -234 275 -20 68 -21 80 -10 144 24 137 95 241 199 292 46 22 139 43 171 38 14 -2 47 -7 73 -10z" transform="translate(599,-599) scale(1,1)" stroke="none" fill="#A49E98"/>
</g>
</g>
</g>

</g>
<g id="row2" transform="translate(0,2748.0)">
<g id="0" transform="translate(0.0,0)scale(0.25,0.25)">

<g id="pattern">
<rect width="5954" height="5954" fill="#C2CCC8"/>
<g id="pattern1" transform="matrix(1,0,0,1,370,370)">
<path d="M400 946 c-161 -36 -259 -145 -290 -321 -11 -64 -10 -76 10 -144 40 -137 107 -215 234 -275 45 -21 162 -43 172 -33 4 4 0 24 -10 44 -27 58 -24 185 6 243 44 84 66 112 110 142 72 49 104 58 199 58 97 0 103 4 75 58 -21 38 -124 135 -171 160 -71 38 -132 60 -182 67 -26 3 -59 8 -73 10 -14 2 -50 -2 -80 -9z" transform="translate(0.000000,0.000000) scale(1,1)" stroke="none" fill="#696959"/>
<path d="M400 1004 c-177 -30 -327 -192 -345 -374 -28 -276 163 -486 466 -514 42 -4 89 -14 105 -23 66 -34 165 -45 219 -23 11 4 41 15 66 24 59 21 159 123 194 197 47 101 24 198 -65 276 -25 22 -40 46 -49 81 -39 155 -190 286 -386 337 -57 15 -168 25 -205 19z m153 -59 c50 -7 111 -29 182 -67 47 -25 150 -122 171 -160 28 -54 22 -58 -75 -58 -95 0 -127 -9 -199 -58 -44 -30 -66 -58 -110 -142 -30 -58 -33 -185 -6 -243 10 -20 14 -40 10 -44 -10 -10 -127 12 -172 33 -127 60 -194 138 -234 275 -20 68 -21 80 -10 144 24 137 95 241 199 292 46 22 139 43 171 38 14 -2 47 -7 73 -10z" transform="translate(0.000000,0.000000) scale(1,1)" stroke="none" fill="#A49E98"/>
</g>
<g id="pattern2" transform="matrix(0.618,0,0,0.618,2821,828)">
<path d="M400 946 c-161 -36 -259 -145 -290 -321 -11 -64 -10 -76 10 -144 40 -137 107 -215 234 -275 45 -21 162 -43 172 -33 4 4 0 24 -10 44 -27 58 -24 185 6 243 44 84 66 112 110 142 72 49 104 58 199 58 97 0 103 4 75 58 -21 38 -124 135 -171 160 -71 38 -132 60 -182 67 -26 3 -59 8 -73 10 -14 2 -50 -2 -80 -9z" transform="translate(3737,0.000000) scale(-1,1)" stroke="none" fill="#696959"/>
<path d="M400 1004 c-177 -30 -327 -192 -345 -374 -28 -276 163 -486 466 -514 42 -4 89 -14 105 -23 66 -34 165 -45 219 -23 11 4 41 15 66 24 59 21 159 123 194 197 47 101 24 198 -65 276 -25 22 -40 46 -49 81 -39 155 -190 286 -386 337 -57 15 -168 25 -205 19z m153 -59 c50 -7 111 -29 182 -67 47 -25 150 -122 171 -160 28 -54 22 -58 -75 -58 -95 0 -127 -9 -199 -58 -44 -30 -66 -58 -110 -142 -30 -58 -33 -185 -6 -243 10 -20 14 -40 10 -44 -10 -10 -127 12 -172 33 -127 60 -194 138 -234 275 -20 68 -21 80 -10 144 24 137 95 241 199 292 46 22 139 43 171 38 14 -2 47 -7 73 -10z" transform="translate(3737,0.000000) scale(-1,1)" stroke="none" fill="#A49E98"/>
</g>
<g id="pattern3" transform="matrix(0.618,0,0,0.618,1057,3737)matrix(0.71,0.71,-0.71,0.71,0,0)">
<path d="M400 946 c-161 -36 -259 -145 -290 -321 -11 -64 -10 -76 10 -144 40 -137 107 -215 234 -275 45 -21 162 -43 172 -33 4 4 0 24 -10 44 -27 58 -24 185 6 243 44 84 66 112 110 142 72 49 104 58 199 58 97 0 103 4 75 58 -21 38 -124 135 -171 160 -71 38 -132 60 -182 67 -26 3 -59 8 -73 10 -14 2 -50 -2 -80 -9z" transform="translate(599,-599) scale(1,1)" stroke="none" fill="#696959"/>
<path d="M400 1004 c-177 -30 -327 -192 -345 -374 -28 -276 163 -486 466 -514 42 -4 89 -14 105 -23 66 -34 165 -45 219 -23 11 4 41 15 66 24 59 21 159 123 194 197 47 101 24 198 -65 276 -25 22 -40 46 -49 81 -39 155 -190 286 -386 337 -57 15 -168 25 -205 19z m153 -59 c50 -7 111 -29 182 -67 47 -25 150 -122 171 -160 28 -54 22 -58 -75 -58 -95 0 -127 -9 -199 -58 -44 -30 -66 -58 -110 -142 -30 -58 -33 -185 -6 -243 10 -20 14 -40 10 -44 -10 -10 -127 12 -172 33 -127 60 -194 138 -234 275 -20 68 -21 80 -10 144 24 137 95 241 199 292 46 22 139 43 171 38 14 -2 47 -7 73 -10z" transform="translate(599,-599) scale(1,1)" stroke="none" fill="#A49E98"/>
</g>
<g id="pattern4" transform="matrix(1.618,0,0,1.618,1568,1568)matrix(0.87,0.5,-0.5,0.87,0,0)">
<path d="M400 946 c-161 -36 -259 -145 -290 -321 -11 -64 -10 -76 10 -144 40 -137 107 -215 234 -275 45 -21 162 -43 172 -33 4 4 0 24 -10 44 -27 58 -24 185 6 243 44 84 66 112 110 142 72 49 104 58 199 58 97 0 103 4 75 58 -21 38 -124 135 -171 160 -71 38 -132 60 -182 67 -26 3 -59 8 -73 10 -14 2 -50 -2 -80 -9z" transform="translate(599,-599) scale(1,1)" stroke="none" fill="#696959"/>
<path d="M400 1004 c-177 -30 -327 -192 -345 -374 -28 -276 163 -486 466 -514 42 -4 89 -14 105 -23 66 -34 165 -45 219 -23 11 4 41 15 66 24 59 21 159 123 194 197 47 101 24 198 -65 276 -25 22 -40 46 -49 81 -39 155 -190 286 -386 337 -57 15 -168 25 -205 19z m153 -59 c50 -7 111 -29 182 -67 47 -25 150 -122 171 -160 28 -54 22 -58 -75 -58 -95 0 -127 -9 -199 -58 -44 -30 -66 -58 -110 -142 -30 -58 -33 -185 -6 -243 10 -20 14 -40 10 -44 -10 -10 -127 12 -172 33 -127 60 -194 138 -234 275 -20 68 -21 80 -10 144 24 137 95 241 199 292 46 22 139 43 171 38 14 -2 47 -7 73 -10z" transform="translate(599,-599) scale(1,1)" stroke="none" fill="#A49E98"/>
</g>
</g>
</g>

<g id="1" transform="translate(1374.0,0)scale(0.25,0.25)">

<g id="pattern">
<rect width="5954" height="5954" fill="#C2CCC8"/>
<g id="pattern1" transform="matrix(1,0,0,1,370,370)">
<path d="M400 946 c-161 -36 -259 -145 -290 -321 -11 -64 -10 -76 10 -144 40 -137 107 -215 234 -275 45 -21 162 -43 172 -33 4 4 0 24 -10 44 -27 58 -24 185 6 243 44 84 66 112 110 142 72 49 104 58 199 58 97 0 103 4 75 58 -21 38 -124 135 -171 160 -71 38 -132 60 -182 67 -26 3 -59 8 -73 10 -14 2 -50 -2 -80 -9z" transform="translate(0.000000,0.000000) scale(1,1)" stroke="none" fill="#696959"/>
<path d="M400 1004 c-177 -30 -327 -192 -345 -374 -28 -276 163 -486 466 -514 42 -4 89 -14 105 -23 66 -34 165 -45 219 -23 11 4 41 15 66 24 59 21 159 123 194 197 47 101 24 198 -65 276 -25 22 -40 46 -49 81 -39 155 -190 286 -386 337 -57 15 -168 25 -205 19z m153 -59 c50 -7 111 -29 182 -67 47 -25 150 -122 171 -160 28 -54 22 -58 -75 -58 -95 0 -127 -9 -199 -58 -44 -30 -66 -58 -110 -142 -30 -58 -33 -185 -6 -243 10 -20 14 -40 10 -44 -10 -10 -127 12 -172 33 -127 60 -194 138 -234 275 -20 68 -21 80 -10 144 24 137 95 241 199 292 46 22 139 43 171 38 14 -2 47 -7 73 -10z" transform="translate(0.000000,0.000000) scale(1,1)" stroke="none" fill="#A49E98"/>
</g>
<g id="pattern2" transform="matrix(0.618,0,0,0.618,2821,828)">
<path d="M400 946 c-161 -36 -259 -145 -290 -321 -11 -64 -10 -76 10 -144 40 -137 107 -215 234 -275 45 -21 162 -43 172 -33 4 4 0 24 -10 44 -27 58 -24 185 6 243 44 84 66 112 110 142 72 49 104 58 199 58 97 0 103 4 75 58 -21 38 -124 135 -171 160 -71 38 -132 60 -182 67 -26 3 -59 8 -73 10 -14 2 -50 -2 -80 -9z" transform="translate(3737,0.000000) scale(-1,1)" stroke="none" fill="#696959"/>
<path d="M400 1004 c-177 -30 -327 -192 -345 -374 -28 -276 163 -486 466 -514 42 -4 89 -14 105 -23 66 -34 165 -45 219 -23 11 4 41 15 66 24 59 21 159 123 194 197 47 101 24 198 -65 276 -25 22 -40 46 -49 81 -39 155 -190 286 -386 337 -57 15 -168 25 -205 19z m153 -59 c50 -7 111 -29 182 -67 47 -25 150 -122 171 -160 28 -54 22 -58 -75 -58 -95 0 -127 -9 -199 -58 -44 -30 -66 -58 -110 -142 -30 -58 -33 -185 -6 -243 10 -20 14 -40 10 -44 -10 -10 -127 12 -172 33 -127 60 -194 138 -234 275 -20 68 -21 80 -10 144 24 137 95 241 199 292 46 22 139 43 171 38 14 -2 47 -7 73 -10z" transform="translate(3737,0.000000) scale(-1,1)" stroke="none" fill="#A49E98"/>
</g>
<g id="pattern3" transform="matrix(0.618,0,0,0.618,1057,3737)matrix(0.71,0.71,-0.71,0.71,0,0)">
<path d="M400 946 c-161 -36 -259 -145 -290 -321 -11 -64 -10 -76 10 -144 40 -137 107 -215 234 -275 45 -21 162 -43 172 -33 4 4 0 24 -10 44 -27 58 -24 185 6 243 44 84 66 112 110 142 72 49 104 58 199 58 97 0 103 4 75 58 -21 38 -124 135 -171 160 -71 38 -132 60 -182 67 -26 3 -59 8 -73 10 -14 2 -50 -2 -80 -9z" transform="translate(599,-599) scale(1,1)" stroke="none" fill="#696959"/>
<path d="M400 1004 c-177 -30 -327 -192 -345 -374 -28 -276 163 -486 466 -514 42 -4 89 -14 105 -23 66 -34 165 -45 219 -23 11 4 41 15 66 24 59 21 159 123 194 197 47 101 24 198 -65 276 -25 22 -40 46 -49 81 -39 155 -190 286 -386 337 -57 15 -168 25 -205 19z m153 -59 c50 -7 111 -29 182 -67 47 -25 150 -122 171 -160 28 -54 22 -58 -75 -58 -95 0 -127 -9 -199 -58 -44 -30 -66 -58 -110 -142 -30 -58 -33 -185 -6 -243 10 -20 14 -40 10 -44 -10 -10 -127 12 -172 33 -127 60 -194 138 -234 275 -20 68 -21 80 -10 144 24 137 95 241 199 292 46 22 139 43 171 38 14 -2 47 -7 73 -10z" transform="translate(599,-599) scale(1,1)" stroke="none" fill="#A49E98"/>
</g>
<g id="pattern4" transform="matrix(1.618,0,0,1.618,1568,1568)matrix(0.87,0.5,-0.5,0.87,0,0)">
<path d="M400 946 c-161 -36 -259 -145 -290 -321 -11 -64 -10 -76 10 -144 40 -137 107 -215 234 -275 45 -21 162 -43 172 -33 4 4 0 24 -10 44 -27 58 -24 185 6 243 44 84 66 112 110 142 72 49 104 58 199 58 97 0 103 4 75 58 -21 38 -124 135 -171 160 -71 38 -132 60 -182 67 -26 3 -59 8 -73 10 -14 2 -50 -2 -80 -9z" transform="translate(599,-599) scale(1,1)" stroke="none" fill="#696959"/>
<path d="M400 1004 c-177 -30 -327 -192 -345 -374 -28 -276 163 -486 466 -514 42 -4 89 -14 105 -23 66 -34 165 -45 219 -23 11 4 41 15 66 24 59 21 159 123 194 197 47 101 24 198 -65 276 -25 22 -40 46 -49 81 -39 155 -190 286 -386 337 -57 15 -168 25 -205 19z m153 -59 c50 -7 111 -29 182 -67 47 -25 150 -122 171 -160 28 -54 22 -58 -75 -58 -95 0 -127 -9 -199 -58 -44 -30 -66 -58 -110 -142 -30 -58 -33 -185 -6 -243 10 -20 14 -40 10 -44 -10 -10 -127 12 -172 33 -127 60 -194 138 -234 275 -20 68 -21 80 -10 144 24 137 95 241 199 292 46 22 139 43 171 38 14 -2 47 -7 73 -10z" transform="translate(599,-599) scale(1,1)" stroke="none" fill="#A49E98"/>
</g>
</g>
</g>

<g id="2" transform="translate(2748.0,0)scale(0.25,0.25)">

<g id="pattern">
<rect width="5954" height="5954" fill="#C2CCC8"/>
<g id="pattern1" transform="matrix(1,0,0,1,370,370)">
<path d="M400 946 c-161 -36 -259 -145 -290 -321 -11 -64 -10 -76 10 -144 40 -137 107 -215 234 -275 45 -21 162 -43 172 -33 4 4 0 24 -10 44 -27 58 -24 185 6 243 44 84 66 112 110 142 72 49 104 58 199 58 97 0 103 4 75 58 -21 38 -124 135 -171 160 -71 38 -132 60 -182 67 -26 3 -59 8 -73 10 -14 2 -50 -2 -80 -9z" transform="translate(0.000000,0.000000) scale(1,1)" stroke="none" fill="#696959"/>
<path d="M400 1004 c-177 -30 -327 -192 -345 -374 -28 -276 163 -486 466 -514 42 -4 89 -14 105 -23 66 -34 165 -45 219 -23 11 4 41 15 66 24 59 21 159 123 194 197 47 101 24 198 -65 276 -25 22 -40 46 -49 81 -39 155 -190 286 -386 337 -57 15 -168 25 -205 19z m153 -59 c50 -7 111 -29 182 -67 47 -25 150 -122 171 -160 28 -54 22 -58 -75 -58 -95 0 -127 -9 -199 -58 -44 -30 -66 -58 -110 -142 -30 -58 -33 -185 -6 -243 10 -20 14 -40 10 -44 -10 -10 -127 12 -172 33 -127 60 -194 138 -234 275 -20 68 -21 80 -10 144 24 137 95 241 199 292 46 22 139 43 171 38 14 -2 47 -7 73 -10z" transform="translate(0.000000,0.000000) scale(1,1)" stroke="none" fill="#A49E98"/>
</g>
<g id="pattern2" transform="matrix(0.618,0,0,0.618,2821,828)">
<path d="M400 946 c-161 -36 -259 -145 -290 -321 -11 -64 -10 -76 10 -144 40 -137 107 -215 234 -275 45 -21 162 -43 172 -33 4 4 0 24 -10 44 -27 58 -24 185 6 243 44 84 66 112 110 142 72 49 104 58 199 58 97 0 103 4 75 58 -21 38 -124 135 -171 160 -71 38 -132 60 -182 67 -26 3 -59 8 -73 10 -14 2 -50 -2 -80 -9z" transform="translate(3737,0.000000) scale(-1,1)" stroke="none" fill="#696959"/>
<path d="M400 1004 c-177 -30 -327 -192 -345 -374 -28 -276 163 -486 466 -514 42 -4 89 -14 105 -23 66 -34 165 -45 219 -23 11 4 41 15 66 24 59 21 159 123 194 197 47 101 24 198 -65 276 -25 22 -40 46 -49 81 -39 155 -190 286 -386 337 -57 15 -168 25 -205 19z m153 -59 c50 -7 111 -29 182 -67 47 -25 150 -122 171 -160 28 -54 22 -58 -75 -58 -95 0 -127 -9 -199 -58 -44 -30 -66 -58 -110 -142 -30 -58 -33 -185 -6 -243 10 -20 14 -40 10 -44 -10 -10 -127 12 -172 33 -127 60 -194 138 -234 275 -20 68 -21 80 -10 144 24 137 95 241 199 292 46 22 139 43 171 38 14 -2 47 -7 73 -10z" transform="translate(3737,0.000000) scale(-1,1)" stroke="none" fill="#A49E98"/>
</g>
<g id="pattern3" transform="matrix(0.618,0,0,0.618,1057,3737)matrix(0.71,0.71,-0.71,0.71,0,0)">
<path d="M400 946 c-161 -36 -259 -145 -290 -321 -11 -64 -10 -76 10 -144 40 -137 107 -215 234 -275 45 -21 162 -43 172 -33 4 4 0 24 -10 44 -27 58 -24 185 6 243 44 84 66 112 110 142 72 49 104 58 199 58 97 0 103 4 75 58 -21 38 -124 135 -171 160 -71 38 -132 60 -182 67 -26 3 -59 8 -73 10 -14 2 -50 -2 -80 -9z" transform="translate(599,-599) scale(1,1)" stroke="none" fill="#696959"/>
<path d="M400 1004 c-177 -30 -327 -192 -345 -374 -28 -276 163 -486 466 -514 42 -4 89 -14 105 -23 66 -34 165 -45 219 -23 11 4 41 15 66 24 59 21 159 123 194 197 47 101 24 198 -65 276 -25 22 -40 46 -49 81 -39 155 -190 286 -386 337 -57 15 -168 25 -205 19z m153 -59 c50 -7 111 -29 182 -67 47 -25 150 -122 171 -160 28 -54 22 -58 -75 -58 -95 0 -127 -9 -199 -58 -44 -30 -66 -58 -110 -142 -30 -58 -33 -185 -6 -243 10 -20 14 -40 10 -44 -10 -10 -127 12 -172 33 -127 60 -194 138 -234 275 -20 68 -21 80 -10 144 24 137 95 241 199 292 46 22 139 43 171 38 14 -2 47 -7 73 -10z" transform="translate(599,-599) scale(1,1)" stroke="none" fill="#A49E98"/>
</g>
<g id="pattern4" transform="matrix(1.618,0,0,1.618,1568,1568)matrix(0.87,0.5,-0.5,0.87,0,0)">
<path d="M400 946 c-161 -36 -259 -145 -290 -321 -11 -64 -10 -76 10 -144 40 -137 107 -215 234 -275 45 -21 162 -43 172 -33 4 4 0 24 -10 44 -27 58 -24 185 6 243 44 84 66 112 110 142 72 49 104 58 199 58 97 0 103 4 75 58 -21 38 -124 135 -171 160 -71 38 -132 60 -182 67 -26 3 -59 8 -73 10 -14 2 -50 -2 -80 -9z" transform="translate(599,-599) scale(1,1)" stroke="none" fill="#696959"/>
<path d="M400 1004 c-177 -30 -327 -192 -345 -374 -28 -276 163 -486 466 -514 42 -4 89 -14 105 -23 66 -34 165 -45 219 -23 11 4 41 15 66 24 59 21 159 123 194 197 47 101 24 198 -65 276 -25 22 -40 46 -49 81 -39 155 -190 286 -386 337 -57 15 -168 25 -205 19z m153 -59 c50 -7 111 -29 182 -67 47 -25 150 -122 171 -160 28 -54 22 -58 -75 -58 -95 0 -127 -9 -199 -58 -44 -30 -66 -58 -110 -142 -30 -58 -33 -185 -6 -243 10 -20 14 -40 10 -44 -10 -10 -127 12 -172 33 -127 60 -194 138 -234 275 -20 68 -21 80 -10 144 24 137 95 241 199 292 46 22 139 43 171 38 14 -2 47 -7 73 -10z" transform="translate(599,-599) scale(1,1)" stroke="none" fill="#A49E98"/>
</g>
</g>
</g>

<g id="3" transform="translate(4122.0,0)scale(0.25,0.25)">

<g id="pattern">
<rect width="5954" height="5954" fill="#C2CCC8"/>
<g id="pattern1" transform="matrix(1,0,0,1,370,370)">
<path d="M400 946 c-161 -36 -259 -145 -290 -321 -11 -64 -10 -76 10 -144 40 -137 107 -215 234 -275 45 -21 162 -43 172 -33 4 4 0 24 -10 44 -27 58 -24 185 6 243 44 84 66 112 110 142 72 49 104 58 199 58 97 0 103 4 75 58 -21 38 -124 135 -171 160 -71 38 -132 60 -182 67 -26 3 -59 8 -73 10 -14 2 -50 -2 -80 -9z" transform="translate(0.000000,0.000000) scale(1,1)" stroke="none" fill="#696959"/>
<path d="M400 1004 c-177 -30 -327 -192 -345 -374 -28 -276 163 -486 466 -514 42 -4 89 -14 105 -23 66 -34 165 -45 219 -23 11 4 41 15 66 24 59 21 159 123 194 197 47 101 24 198 -65 276 -25 22 -40 46 -49 81 -39 155 -190 286 -386 337 -57 15 -168 25 -205 19z m153 -59 c50 -7 111 -29 182 -67 47 -25 150 -122 171 -160 28 -54 22 -58 -75 -58 -95 0 -127 -9 -199 -58 -44 -30 -66 -58 -110 -142 -30 -58 -33 -185 -6 -243 10 -20 14 -40 10 -44 -10 -10 -127 12 -172 33 -127 60 -194 138 -234 275 -20 68 -21 80 -10 144 24 137 95 241 199 292 46 22 139 43 171 38 14 -2 47 -7 73 -10z" transform="translate(0.000000,0.000000) scale(1,1)" stroke="none" fill="#A49E98"/>
</g>
<g id="pattern2" transform="matrix(0.618,0,0,0.618,2821,828)">
<path d="M400 946 c-161 -36 -259 -145 -290 -321 -11 -64 -10 -76 10 -144 40 -137 107 -215 234 -275 45 -21 162 -43 172 -33 4 4 0 24 -10 44 -27 58 -24 185 6 243 44 84 66 112 110 142 72 49 104 58 199 58 97 0 103 4 75 58 -21 38 -124 135 -171 160 -71 38 -132 60 -182 67 -26 3 -59 8 -73 10 -14 2 -50 -2 -80 -9z" transform="translate(3737,0.000000) scale(-1,1)" stroke="none" fill="#696959"/>
<path d="M400 1004 c-177 -30 -327 -192 -345 -374 -28 -276 163 -486 466 -514 42 -4 89 -14 105 -23 66 -34 165 -45 219 -23 11 4 41 15 66 24 59 21 159 123 194 197 47 101 24 198 -65 276 -25 22 -40 46 -49 81 -39 155 -190 286 -386 337 -57 15 -168 25 -205 19z m153 -59 c50 -7 111 -29 182 -67 47 -25 150 -122 171 -160 28 -54 22 -58 -75 -58 -95 0 -127 -9 -199 -58 -44 -30 -66 -58 -110 -142 -30 -58 -33 -185 -6 -243 10 -20 14 -40 10 -44 -10 -10 -127 12 -172 33 -127 60 -194 138 -234 275 -20 68 -21 80 -10 144 24 137 95 241 199 292 46 22 139 43 171 38 14 -2 47 -7 73 -10z" transform="translate(3737,0.000000) scale(-1,1)" stroke="none" fill="#A49E98"/>
</g>
<g id="pattern3" transform="matrix(0.618,0,0,0.618,1057,3737)matrix(0.71,0.71,-0.71,0.71,0,0)">
<path d="M400 946 c-161 -36 -259 -145 -290 -321 -11 -64 -10 -76 10 -144 40 -137 107 -215 234 -275 45 -21 162 -43 172 -33 4 4 0 24 -10 44 -27 58 -24 185 6 243 44 84 66 112 110 142 72 49 104 58 199 58 97 0 103 4 75 58 -21 38 -124 135 -171 160 -71 38 -132 60 -182 67 -26 3 -59 8 -73 10 -14 2 -50 -2 -80 -9z" transform="translate(599,-599) scale(1,1)" stroke="none" fill="#696959"/>
<path d="M400 1004 c-177 -30 -327 -192 -345 -374 -28 -276 163 -486 466 -514 42 -4 89 -14 105 -23 66 -34 165 -45 219 -23 11 4 41 15 66 24 59 21 159 123 194 197 47 101 24 198 -65 276 -25 22 -40 46 -49 81 -39 155 -190 286 -386 337 -57 15 -168 25 -205 19z m153 -59 c50 -7 111 -29 182 -67 47 -25 150 -122 171 -160 28 -54 22 -58 -75 -58 -95 0 -127 -9 -199 -58 -44 -30 -66 -58 -110 -142 -30 -58 -33 -185 -6 -243 10 -20 14 -40 10 -44 -10 -10 -127 12 -172 33 -127 60 -194 138 -234 275 -20 68 -21 80 -10 144 24 137 95 241 199 292 46 22 139 43 171 38 14 -2 47 -7 73 -10z" transform="translate(599,-599) scale(1,1)" stroke="none" fill="#A49E98"/>
</g>
<g id="pattern4" transform="matrix(1.618,0,0,1.618,1568,1568)matrix(0.87,0.5,-0.5,0.87,0,0)">
<path d="M400 946 c-161 -36 -259 -145 -290 -321 -11 -64 -10 -76 10 -144 40 -137 107 -215 234 -275 45 -21 162 -43 172 -33 4 4 0 24 -10 44 -27 58 -24 185 6 243 44 84 66 112 110 142 72 49 104 58 199 58 97 0 103 4 75 58 -21 38 -124 135 -171 160 -71 38 -132 60 -182 67 -26 3 -59 8 -73 10 -14 2 -50 -2 -80 -9z" transform="translate(599,-599) scale(1,1)" stroke="none" fill="#696959"/>
<path d="M400 1004 c-177 -30 -327 -192 -345 -374 -28 -276 163 -486 466 -514 42 -4 89 -14 105 -23 66 -34 165 -45 219 -23 11 4 41 15 66 24 59 21 159 123 194 197 47 101 24 198 -65 276 -25 22 -40 46 -49 81 -39 155 -190 286 -386 337 -57 15 -168 25 -205 19z m153 -59 c50 -7 111 -29 182 -67 47 -25 150 -122 171 -160 28 -54 22 -58 -75 -58 -95 0 -127 -9 -199 -58 -44 -30 -66 -58 -110 -142 -30 -58 -33 -185 -6 -243 10 -20 14 -40 10 -44 -10 -10 -127 12 -172 33 -127 60 -194 138 -234 275 -20 68 -21 80 -10 144 24 137 95 241 199 292 46 22 139 43 171 38 14 -2 47 -7 73 -10z" transform="translate(599,-599) scale(1,1)" stroke="none" fill="#A49E98"/>
</g>
</g>
</g>

<g id="4" transform="translate(5496.0,0)scale(0.25,0.25)">

<g id="pattern">
<rect width="5954" height="5954" fill="#C2CCC8"/>
<g id="pattern1" transform="matrix(1,0,0,1,370,370)">
<path d="M400 946 c-161 -36 -259 -145 -290 -321 -11 -64 -10 -76 10 -144 40 -137 107 -215 234 -275 45 -21 162 -43 172 -33 4 4 0 24 -10 44 -27 58 -24 185 6 243 44 84 66 112 110 142 72 49 104 58 199 58 97 0 103 4 75 58 -21 38 -124 135 -171 160 -71 38 -132 60 -182 67 -26 3 -59 8 -73 10 -14 2 -50 -2 -80 -9z" transform="translate(0.000000,0.000000) scale(1,1)" stroke="none" fill="#696959"/>
<path d="M400 1004 c-177 -30 -327 -192 -345 -374 -28 -276 163 -486 466 -514 42 -4 89 -14 105 -23 66 -34 165 -45 219 -23 11 4 41 15 66 24 59 21 159 123 194 197 47 101 24 198 -65 276 -25 22 -40 46 -49 81 -39 155 -190 286 -386 337 -57 15 -168 25 -205 19z m153 -59 c50 -7 111 -29 182 -67 47 -25 150 -122 171 -160 28 -54 22 -58 -75 -58 -95 0 -127 -9 -199 -58 -44 -30 -66 -58 -110 -142 -30 -58 -33 -185 -6 -243 10 -20 14 -40 10 -44 -10 -10 -127 12 -172 33 -127 60 -194 138 -234 275 -20 68 -21 80 -10 144 24 137 95 241 199 292 46 22 139 43 171 38 14 -2 47 -7 73 -10z" transform="translate(0.000000,0.000000) scale(1,1)" stroke="none" fill="#A49E98"/>
</g>
<g id="pattern2" transform="matrix(0.618,0,0,0.618,2821,828)">
<path d="M400 946 c-161 -36 -259 -145 -290 -321 -11 -64 -10 -76 10 -144 40 -137 107 -215 234 -275 45 -21 162 -43 172 -33 4 4 0 24 -10 44 -27 58 -24 185 6 243 44 84 66 112 110 142 72 49 104 58 199 58 97 0 103 4 75 58 -21 38 -124 135 -171 160 -71 38 -132 60 -182 67 -26 3 -59 8 -73 10 -14 2 -50 -2 -80 -9z" transform="translate(3737,0.000000) scale(-1,1)" stroke="none" fill="#696959"/>
<path d="M400 1004 c-177 -30 -327 -192 -345 -374 -28 -276 163 -486 466 -514 42 -4 89 -14 105 -23 66 -34 165 -45 219 -23 11 4 41 15 66 24 59 21 159 123 194 197 47 101 24 198 -65 276 -25 22 -40 46 -49 81 -39 155 -190 286 -386 337 -57 15 -168 25 -205 19z m153 -59 c50 -7 111 -29 182 -67 47 -25 150 -122 171 -160 28 -54 22 -58 -75 -58 -95 0 -127 -9 -199 -58 -44 -30 -66 -58 -110 -142 -30 -58 -33 -185 -6 -243 10 -20 14 -40 10 -44 -10 -10 -127 12 -172 33 -127 60 -194 138 -234 275 -20 68 -21 80 -10 144 24 137 95 241 199 292 46 22 139 43 171 38 14 -2 47 -7 73 -10z" transform="translate(3737,0.000000) scale(-1,1)" stroke="none" fill="#A49E98"/>
</g>
<g id="pattern3" transform="matrix(0.618,0,0,0.618,1057,3737)matrix(0.71,0.71,-0.71,0.71,0,0)">
<path d="M400 946 c-161 -36 -259 -145 -290 -321 -11 -64 -10 -76 10 -144 40 -137 107 -215 234 -275 45 -21 162 -43 172 -33 4 4 0 24 -10 44 -27 58 -24 185 6 243 44 84 66 112 110 142 72 49 104 58 199 58 97 0 103 4 75 58 -21 38 -124 135 -171 160 -71 38 -132 60 -182 67 -26 3 -59 8 -73 10 -14 2 -50 -2 -80 -9z" transform="translate(599,-599) scale(1,1)" stroke="none" fill="#696959"/>
<path d="M400 1004 c-177 -30 -327 -192 -345 -374 -28 -276 163 -486 466 -514 42 -4 89 -14 105 -23 66 -34 165 -45 219 -23 11 4 41 15 66 24 59 21 159 123 194 197 47 101 24 198 -65 276 -25 22 -40 46 -49 81 -39 155 -190 286 -386 337 -57 15 -168 25 -205 19z m153 -59 c50 -7 111 -29 182 -67 47 -25 150 -122 171 -160 28 -54 22 -58 -75 -58 -95 0 -127 -9 -199 -58 -44 -30 -66 -58 -110 -142 -30 -58 -33 -185 -6 -243 10 -20 14 -40 10 -44 -10 -10 -127 12 -172 33 -127 60 -194 138 -234 275 -20 68 -21 80 -10 144 24 137 95 241 199 292 46 22 139 43 171 38 14 -2 47 -7 73 -10z" transform="translate(599,-599) scale(1,1)" stroke="none" fill="#A49E98"/>
</g>
<g id="pattern4" transform="matrix(1.618,0,0,1.618,1568,1568)matrix(0.87,0.5,-0.5,0.87,0,0)">
<path d="M400 946 c-161 -36 -259 -145 -290 -321 -11 -64 -10 -76 10 -144 40 -137 107 -215 234 -275 45 -21 162 -43 172 -33 4 4 0 24 -10 44 -27 58 -24 185 6 243 44 84 66 112 110 142 72 49 104 58 199 58 97 0 103 4 75 58 -21 38 -124 135 -171 160 -71 38 -132 60 -182 67 -26 3 -59 8 -73 10 -14 2 -50 -2 -80 -9z" transform="translate(599,-599) scale(1,1)" stroke="none" fill="#696959"/>
<path d="M400 1004 c-177 -30 -327 -192 -345 -374 -28 -276 163 -486 466 -514 42 -4 89 -14 105 -23 66 -34 165 -45 219 -23 11 4 41 15 66 24 59 21 159 123 194 197 47 101 24 198 -65 276 -25 22 -40 46 -49 81 -39 155 -190 286 -386 337 -57 15 -168 25 -205 19z m153 -59 c50 -7 111 -29 182 -67 47 -25 150 -122 171 -160 28 -54 22 -58 -75 -58 -95 0 -127 -9 -199 -58 -44 -30 -66 -58 -110 -142 -30 -58 -33 -185 -6 -243 10 -20 14 -40 10 -44 -10 -10 -127 12 -172 33 -127 60 -194 138 -234 275 -20 68 -21 80 -10 144 24 137 95 241 199 292 46 22 139 43 171 38 14 -2 47 -7 73 -10z" transform="translate(599,-599) scale(1,1)" stroke="none" fill="#A49E98"/>
</g>
</g>
</g>

</g>
<g id="row3" transform="translate(0,4122.0)">
<g id="0" transform="translate(0.0,0)scale(0.25,0.25)">

<g id="pattern">
<rect width="5954" height="5954" fill="#C2CCC8"/>
<g id="pattern1" transform="matrix(1,0,0,1,370,370)">
<path d="M400 946 c-161 -36 -259 -145 -290 -321 -11 -64 -10 -76 10 -144 40 -137 107 -215 234 -275 45 -21 162 -43 172 -33 4 4 0 24 -10 44 -27 58 -24 185 6 243 44 84 66 112 110 142 72 49 104 58 199 58 97 0 103 4 75 58 -21 38 -124 135 -171 160 -71 38 -132 60 -182 67 -26 3 -59 8 -73 10 -14 2 -50 -2 -80 -9z" transform="translate(0.000000,0.000000) scale(1,1)" stroke="none" fill="#696959"/>
<path d="M400 1004 c-177 -30 -327 -192 -345 -374 -28 -276 163 -486 466 -514 42 -4 89 -14 105 -23 66 -34 165 -45 219 -23 11 4 41 15 66 24 59 21 159 123 194 197 47 101 24 198 -65 276 -25 22 -40 46 -49 81 -39 155 -190 286 -386 337 -57 15 -168 25 -205 19z m153 -59 c50 -7 111 -29 182 -67 47 -25 150 -122 171 -160 28 -54 22 -58 -75 -58 -95 0 -127 -9 -199 -58 -44 -30 -66 -58 -110 -142 -30 -58 -33 -185 -6 -243 10 -20 14 -40 10 -44 -10 -10 -127 12 -172 33 -127 60 -194 138 -234 275 -20 68 -21 80 -10 144 24 137 95 241 199 292 46 22 139 43 171 38 14 -2 47 -7 73 -10z" transform="translate(0.000000,0.000000) scale(1,1)" stroke="none" fill="#A49E98"/>
</g>
<g id="pattern2" transform="matrix(0.618,0,0,0.618,2821,828)">
<path d="M400 946 c-161 -36 -259 -145 -290 -321 -11 -64 -10 -76 10 -144 40 -137 107 -215 234 -275 45 -21 162 -43 172 -33 4 4 0 24 -10 44 -27 58 -24 185 6 243 44 84 66 112 110 142 72 49 104 58 199 58 97 0 103 4 75 58 -21 38 -124 135 -171 160 -71 38 -132 60 -182 67 -26 3 -59 8 -73 10 -14 2 -50 -2 -80 -9z" transform="translate(3737,0.000000) scale(-1,1)" stroke="none" fill="#696959"/>
<path d="M400 1004 c-177 -30 -327 -192 -345 -374 -28 -276 163 -486 466 -514 42 -4 89 -14 105 -23 66 -34 165 -45 219 -23 11 4 41 15 66 24 59 21 159 123 194 197 47 101 24 198 -65 276 -25 22 -40 46 -49 81 -39 155 -190 286 -386 337 -57 15 -168 25 -205 19z m153 -59 c50 -7 111 -29 182 -67 47 -25 150 -122 171 -160 28 -54 22 -58 -75 -58 -95 0 -127 -9 -199 -58 -44 -30 -66 -58 -110 -142 -30 -58 -33 -185 -6 -243 10 -20 14 -40 10 -44 -10 -10 -127 12 -172 33 -127 60 -194 138 -234 275 -20 68 -21 80 -10 144 24 137 95 241 199 292 46 22 139 43 171 38 14 -2 47 -7 73 -10z" transform="translate(3737,0.000000) scale(-1,1)" stroke="none" fill="#A49E98"/>
</g>
<g id="pattern3" transform="matrix(0.618,0,0,0.618,1057,3737)matrix(0.71,0.71,-0.71,0.71,0,0)">
<path d="M400 946 c-161 -36 -259 -145 -290 -321 -11 -64 -10 -76 10 -144 40 -137 107 -215 234 -275 45 -21 162 -43 172 -33 4 4 0 24 -10 44 -27 58 -24 185 6 243 44 84 66 112 110 142 72 49 104 58 199 58 97 0 103 4 75 58 -21 38 -124 135 -171 160 -71 38 -132 60 -182 67 -26 3 -59 8 -73 10 -14 2 -50 -2 -80 -9z" transform="translate(599,-599) scale(1,1)" stroke="none" fill="#696959"/>
<path d="M400 1004 c-177 -30 -327 -192 -345 -374 -28 -276 163 -486 466 -514 42 -4 89 -14 105 -23 66 -34 165 -45 219 -23 11 4 41 15 66 24 59 21 159 123 194 197 47 101 24 198 -65 276 -25 22 -40 46 -49 81 -39 155 -190 286 -386 337 -57 15 -168 25 -205 19z m153 -59 c50 -7 111 -29 182 -67 47 -25 150 -122 171 -160 28 -54 22 -58 -75 -58 -95 0 -127 -9 -199 -58 -44 -30 -66 -58 -110 -142 -30 -58 -33 -185 -6 -243 10 -20 14 -40 10 -44 -10 -10 -127 12 -172 33 -127 60 -194 138 -234 275 -20 68 -21 80 -10 144 24 137 95 241 199 292 46 22 139 43 171 38 14 -2 47 -7 73 -10z" transform="translate(599,-599) scale(1,1)" stroke="none" fill="#A49E98"/>
</g>
<g id="pattern4" transform="matrix(1.618,0,0,1.618,1568,1568)matrix(0.87,0.5,-0.5,0.87,0,0)">
<path d="M400 946 c-161 -36 -259 -145 -290 -321 -11 -64 -10 -76 10 -144 40 -137 107 -215 234 -275 45 -21 162 -43 172 -33 4 4 0 24 -10 44 -27 58 -24 185 6 243 44 84 66 112 110 142 72 49 104 58 199 58 97 0 103 4 75 58 -21 38 -124 135 -171 160 -71 38 -132 60 -182 67 -26 3 -59 8 -73 10 -14 2 -50 -2 -80 -9z" transform="translate(599,-599) scale(1,1)" stroke="none" fill="#696959"/>
<path d="M400 1004 c-177 -30 -327 -192 -345 -374 -28 -276 163 -486 466 -514 42 -4 89 -14 105 -23 66 -34 165 -45 219 -23 11 4 41 15 66 24 59 21 159 123 194 197 47 101 24 198 -65 276 -25 22 -40 46 -49 81 -39 155 -190 286 -386 337 -57 15 -168 25 -205 19z m153 -59 c50 -7 111 -29 182 -67 47 -25 150 -122 171 -160 28 -54 22 -58 -75 -58 -95 0 -127 -9 -199 -58 -44 -30 -66 -58 -110 -142 -30 -58 -33 -185 -6 -243 10 -20 14 -40 10 -44 -10 -10 -127 12 -172 33 -127 60 -194 138 -234 275 -20 68 -21 80 -10 144 24 137 95 241 199 292 46 22 139 43 171 38 14 -2 47 -7 73 -10z" transform="translate(599,-599) scale(1,1)" stroke="none" fill="#A49E98"/>
</g>
</g>
</g>

<g id="1" transform="translate(1374.0,0)scale(0.25,0.25)">

<g id="pattern">
<rect width="5954" height="5954" fill="#C2CCC8"/>
<g id="pattern1" transform="matrix(1,0,0,1,370,370)">
<path d="M400 946 c-161 -36 -259 -145 -290 -321 -11 -64 -10 -76 10 -144 40 -137 107 -215 234 -275 45 -21 162 -43 172 -33 4 4 0 24 -10 44 -27 58 -24 185 6 243 44 84 66 112 110 142 72 49 104 58 199 58 97 0 103 4 75 58 -21 38 -124 135 -171 160 -71 38 -132 60 -182 67 -26 3 -59 8 -73 10 -14 2 -50 -2 -80 -9z" transform="translate(0.000000,0.000000) scale(1,1)" stroke="none" fill="#696959"/>
<path d="M400 1004 c-177 -30 -327 -192 -345 -374 -28 -276 163 -486 466 -514 42 -4 89 -14 105 -23 66 -34 165 -45 219 -23 11 4 41 15 66 24 59 21 159 123 194 197 47 101 24 198 -65 276 -25 22 -40 46 -49 81 -39 155 -190 286 -386 337 -57 15 -168 25 -205 19z m153 -59 c50 -7 111 -29 182 -67 47 -25 150 -122 171 -160 28 -54 22 -58 -75 -58 -95 0 -127 -9 -199 -58 -44 -30 -66 -58 -110 -142 -30 -58 -33 -185 -6 -243 10 -20 14 -40 10 -44 -10 -10 -127 12 -172 33 -127 60 -194 138 -234 275 -20 68 -21 80 -10 144 24 137 95 241 199 292 46 22 139 43 171 38 14 -2 47 -7 73 -10z" transform="translate(0.000000,0.000000) scale(1,1)" stroke="none" fill="#A49E98"/>
</g>
<g id="pattern2" transform="matrix(0.618,0,0,0.618,2821,828)">
<path d="M400 946 c-161 -36 -259 -145 -290 -321 -11 -64 -10 -76 10 -144 40 -137 107 -215 234 -275 45 -21 162 -43 172 -33 4 4 0 24 -10 44 -27 58 -24 185 6 243 44 84 66 112 110 142 72 49 104 58 199 58 97 0 103 4 75 58 -21 38 -124 135 -171 160 -71 38 -132 60 -182 67 -26 3 -59 8 -73 10 -14 2 -50 -2 -80 -9z" transform="translate(3737,0.000000) scale(-1,1)" stroke="none" fill="#696959"/>
<path d="M400 1004 c-177 -30 -327 -192 -345 -374 -28 -276 163 -486 466 -514 42 -4 89 -14 105 -23 66 -34 165 -45 219 -23 11 4 41 15 66 24 59 21 159 123 194 197 47 101 24 198 -65 276 -25 22 -40 46 -49 81 -39 155 -190 286 -386 337 -57 15 -168 25 -205 19z m153 -59 c50 -7 111 -29 182 -67 47 -25 150 -122 171 -160 28 -54 22 -58 -75 -58 -95 0 -127 -9 -199 -58 -44 -30 -66 -58 -110 -142 -30 -58 -33 -185 -6 -243 10 -20 14 -40 10 -44 -10 -10 -127 12 -172 33 -127 60 -194 138 -234 275 -20 68 -21 80 -10 144 24 137 95 241 199 292 46 22 139 43 171 38 14 -2 47 -7 73 -10z" transform="translate(3737,0.000000) scale(-1,1)" stroke="none" fill="#A49E98"/>
</g>
<g id="pattern3" transform="matrix(0.618,0,0,0.618,1057,3737)matrix(0.71,0.71,-0.71,0.71,0,0)">
<path d="M400 946 c-161 -36 -259 -145 -290 -321 -11 -64 -10 -76 10 -144 40 -137 107 -215 234 -275 45 -21 162 -43 172 -33 4 4 0 24 -10 44 -27 58 -24 185 6 243 44 84 66 112 110 142 72 49 104 58 199 58 97 0 103 4 75 58 -21 38 -124 135 -171 160 -71 38 -132 60 -182 67 -26 3 -59 8 -73 10 -14 2 -50 -2 -80 -9z" transform="translate(599,-599) scale(1,1)" stroke="none" fill="#696959"/>
<path d="M400 1004 c-177 -30 -327 -192 -345 -374 -28 -276 163 -486 466 -514 42 -4 89 -14 105 -23 66 -34 165 -45 219 -23 11 4 41 15 66 24 59 21 159 123 194 197 47 101 24 198 -65 276 -25 22 -40 46 -49 81 -39 155 -190 286 -386 337 -57 15 -168 25 -205 19z m153 -59 c50 -7 111 -29 182 -67 47 -25 150 -122 171 -160 28 -54 22 -58 -75 -58 -95 0 -127 -9 -199 -58 -44 -30 -66 -58 -110 -142 -30 -58 -33 -185 -6 -243 10 -20 14 -40 10 -44 -10 -10 -127 12 -172 33 -127 60 -194 138 -234 275 -20 68 -21 80 -10 144 24 137 95 241 199 292 46 22 139 43 171 38 14 -2 47 -7 73 -10z" transform="translate(599,-599) scale(1,1)" stroke="none" fill="#A49E98"/>
</g>
<g id="pattern4" transform="matrix(1.618,0,0,1.618,1568,1568)matrix(0.87,0.5,-0.5,0.87,0,0)">
<path d="M400 946 c-161 -36 -259 -145 -290 -321 -11 -64 -10 -76 10 -144 40 -137 107 -215 234 -275 45 -21 162 -43 172 -33 4 4 0 24 -10 44 -27 58 -24 185 6 243 44 84 66 112 110 142 72 49 104 58 199 58 97 0 103 4 75 58 -21 38 -124 135 -171 160 -71 38 -132 60 -182 67 -26 3 -59 8 -73 10 -14 2 -50 -2 -80 -9z" transform="translate(599,-599) scale(1,1)" stroke="none" fill="#696959"/>
<path d="M400 1004 c-177 -30 -327 -192 -345 -374 -28 -276 163 -486 466 -514 42 -4 89 -14 105 -23 66 -34 165 -45 219 -23 11 4 41 15 66 24 59 21 159 123 194 197 47 101 24 198 -65 276 -25 22 -40 46 -49 81 -39 155 -190 286 -386 337 -57 15 -168 25 -205 19z m153 -59 c50 -7 111 -29 182 -67 47 -25 150 -122 171 -160 28 -54 22 -58 -75 -58 -95 0 -127 -9 -199 -58 -44 -30 -66 -58 -110 -142 -30 -58 -33 -185 -6 -243 10 -20 14 -40 10 -44 -10 -10 -127 12 -172 33 -127 60 -194 138 -234 275 -20 68 -21 80 -10 144 24 137 95 241 199 292 46 22 139 43 171 38 14 -2 47 -7 73 -10z" transform="translate(599,-599) scale(1,1)" stroke="none" fill="#A49E98"/>
</g>
</g>
</g>

<g id="2" transform="translate(2748.0,0)scale(0.25,0.25)">

<g id="pattern">
<rect width="5954" height="5954" fill="#C2CCC8"/>
<g id="pattern1" transform="matrix(1,0,0,1,370,370)">
<path d="M400 946 c-161 -36 -259 -145 -290 -321 -11 -64 -10 -76 10 -144 40 -137 107 -215 234 -275 45 -21 162 -43 172 -33 4 4 0 24 -10 44 -27 58 -24 185 6 243 44 84 66 112 110 142 72 49 104 58 199 58 97 0 103 4 75 58 -21 38 -124 135 -171 160 -71 38 -132 60 -182 67 -26 3 -59 8 -73 10 -14 2 -50 -2 -80 -9z" transform="translate(0.000000,0.000000) scale(1,1)" stroke="none" fill="#696959"/>
<path d="M400 1004 c-177 -30 -327 -192 -345 -374 -28 -276 163 -486 466 -514 42 -4 89 -14 105 -23 66 -34 165 -45 219 -23 11 4 41 15 66 24 59 21 159 123 194 197 47 101 24 198 -65 276 -25 22 -40 46 -49 81 -39 155 -190 286 -386 337 -57 15 -168 25 -205 19z m153 -59 c50 -7 111 -29 182 -67 47 -25 150 -122 171 -160 28 -54 22 -58 -75 -58 -95 0 -127 -9 -199 -58 -44 -30 -66 -58 -110 -142 -30 -58 -33 -185 -6 -243 10 -20 14 -40 10 -44 -10 -10 -127 12 -172 33 -127 60 -194 138 -234 275 -20 68 -21 80 -10 144 24 137 95 241 199 292 46 22 139 43 171 38 14 -2 47 -7 73 -10z" transform="translate(0.000000,0.000000) scale(1,1)" stroke="none" fill="#A49E98"/>
</g>
<g id="pattern2" transform="matrix(0.618,0,0,0.618,2821,828)">
<path d="M400 946 c-161 -36 -259 -145 -290 -321 -11 -64 -10 -76 10 -144 40 -137 107 -215 234 -275 45 -21 162 -43 172 -33 4 4 0 24 -10 44 -27 58 -24 185 6 243 44 84 66 112 110 142 72 49 104 58 199 58 97 0 103 4 75 58 -21 38 -124 135 -171 160 -71 38 -132 60 -182 67 -26 3 -59 8 -73 10 -14 2 -50 -2 -80 -9z" transform="translate(3737,0.000000) scale(-1,1)" stroke="none" fill="#696959"/>
<path d="M400 1004 c-177 -30 -327 -192 -345 -374 -28 -276 163 -486 466 -514 42 -4 89 -14 105 -23 66 -34 165 -45 219 -23 11 4 41 15 66 24 59 21 159 123 194 197 47 101 24 198 -65 276 -25 22 -40 46 -49 81 -39 155 -190 286 -386 337 -57 15 -168 25 -205 19z m153 -59 c50 -7 111 -29 182 -67 47 -25 150 -122 171 -160 28 -54 22 -58 -75 -58 -95 0 -127 -9 -199 -58 -44 -30 -66 -58 -110 -142 -30 -58 -33 -185 -6 -243 10 -20 14 -40 10 -44 -10 -10 -127 12 -172 33 -127 60 -194 138 -234 275 -20 68 -21 80 -10 144 24 137 95 241 199 292 46 22 139 43 171 38 14 -2 47 -7 73 -10z" transform="translate(3737,0.000000) scale(-1,1)" stroke="none" fill="#A49E98"/>
</g>
<g id="pattern3" transform="matrix(0.618,0,0,0.618,1057,3737)matrix(0.71,0.71,-0.71,0.71,0,0)">
<path d="M400 946 c-161 -36 -259 -145 -290 -321 -11 -64 -10 -76 10 -144 40 -137 107 -215 234 -275 45 -21 162 -43 172 -33 4 4 0 24 -10 44 -27 58 -24 185 6 243 44 84 66 112 110 142 72 49 104 58 199 58 97 0 103 4 75 58 -21 38 -124 135 -171 160 -71 38 -132 60 -182 67 -26 3 -59 8 -73 10 -14 2 -50 -2 -80 -9z" transform="translate(599,-599) scale(1,1)" stroke="none" fill="#696959"/>
<path d="M400 1004 c-177 -30 -327 -192 -345 -374 -28 -276 163 -486 466 -514 42 -4 89 -14 105 -23 66 -34 165 -45 219 -23 11 4 41 15 66 24 59 21 159 123 194 197 47 101 24 198 -65 276 -25 22 -40 46 -49 81 -39 155 -190 286 -386 337 -57 15 -168 25 -205 19z m153 -59 c50 -7 111 -29 182 -67 47 -25 150 -122 171 -160 28 -54 22 -58 -75 -58 -95 0 -127 -9 -199 -58 -44 -30 -66 -58 -110 -142 -30 -58 -33 -185 -6 -243 10 -20 14 -40 10 -44 -10 -10 -127 12 -172 33 -127 60 -194 138 -234 275 -20 68 -21 80 -10 144 24 137 95 241 199 292 46 22 139 43 171 38 14 -2 47 -7 73 -10z" transform="translate(599,-599) scale(1,1)" stroke="none" fill="#A49E98"/>
</g>
<g id="pattern4" transform="matrix(1.618,0,0,1.618,1568,1568)matrix(0.87,0.5,-0.5,0.87,0,0)">
<path d="M400 946 c-161 -36 -259 -145 -290 -321 -11 -64 -10 -76 10 -144 40 -137 107 -215 234 -275 45 -21 162 -43 172 -33 4 4 0 24 -10 44 -27 58 -24 185 6 243 44 84 66 112 110 142 72 49 104 58 199 58 97 0 103 4 75 58 -21 38 -124 135 -171 160 -71 38 -132 60 -182 67 -26 3 -59 8 -73 10 -14 2 -50 -2 -80 -9z" transform="translate(599,-599) scale(1,1)" stroke="none" fill="#696959"/>
<path d="M400 1004 c-177 -30 -327 -192 -345 -374 -28 -276 163 -486 466 -514 42 -4 89 -14 105 -23 66 -34 165 -45 219 -23 11 4 41 15 66 24 59 21 159 123 194 197 47 101 24 198 -65 276 -25 22 -40 46 -49 81 -39 155 -190 286 -386 337 -57 15 -168 25 -205 19z m153 -59 c50 -7 111 -29 182 -67 47 -25 150 -122 171 -160 28 -54 22 -58 -75 -58 -95 0 -127 -9 -199 -58 -44 -30 -66 -58 -110 -142 -30 -58 -33 -185 -6 -243 10 -20 14 -40 10 -44 -10 -10 -127 12 -172 33 -127 60 -194 138 -234 275 -20 68 -21 80 -10 144 24 137 95 241 199 292 46 22 139 43 171 38 14 -2 47 -7 73 -10z" transform="translate(599,-599) scale(1,1)" stroke="none" fill="#A49E98"/>
</g>
</g>
</g>

<g id="3" transform="translate(4122.0,0)scale(0.25,0.25)">

<g id="pattern">
<rect width="5954" height="5954" fill="#C2CCC8"/>
<g id="pattern1" transform="matrix(1,0,0,1,370,370)">
<path d="M400 946 c-161 -36 -259 -145 -290 -321 -11 -64 -10 -76 10 -144 40 -137 107 -215 234 -275 45 -21 162 -43 172 -33 4 4 0 24 -10 44 -27 58 -24 185 6 243 44 84 66 112 110 142 72 49 104 58 199 58 97 0 103 4 75 58 -21 38 -124 135 -171 160 -71 38 -132 60 -182 67 -26 3 -59 8 -73 10 -14 2 -50 -2 -80 -9z" transform="translate(0.000000,0.000000) scale(1,1)" stroke="none" fill="#696959"/>
<path d="M400 1004 c-177 -30 -327 -192 -345 -374 -28 -276 163 -486 466 -514 42 -4 89 -14 105 -23 66 -34 165 -45 219 -23 11 4 41 15 66 24 59 21 159 123 194 197 47 101 24 198 -65 276 -25 22 -40 46 -49 81 -39 155 -190 286 -386 337 -57 15 -168 25 -205 19z m153 -59 c50 -7 111 -29 182 -67 47 -25 150 -122 171 -160 28 -54 22 -58 -75 -58 -95 0 -127 -9 -199 -58 -44 -30 -66 -58 -110 -142 -30 -58 -33 -185 -6 -243 10 -20 14 -40 10 -44 -10 -10 -127 12 -172 33 -127 60 -194 138 -234 275 -20 68 -21 80 -10 144 24 137 95 241 199 292 46 22 139 43 171 38 14 -2 47 -7 73 -10z" transform="translate(0.000000,0.000000) scale(1,1)" stroke="none" fill="#A49E98"/>
</g>
<g id="pattern2" transform="matrix(0.618,0,0,0.618,2821,828)">
<path d="M400 946 c-161 -36 -259 -145 -290 -321 -11 -64 -10 -76 10 -144 40 -137 107 -215 234 -275 45 -21 162 -43 172 -33 4 4 0 24 -10 44 -27 58 -24 185 6 243 44 84 66 112 110 142 72 49 104 58 199 58 97 0 103 4 75 58 -21 38 -124 135 -171 160 -71 38 -132 60 -182 67 -26 3 -59 8 -73 10 -14 2 -50 -2 -80 -9z" transform="translate(3737,0.000000) scale(-1,1)" stroke="none" fill="#696959"/>
<path d="M400 1004 c-177 -30 -327 -192 -345 -374 -28 -276 163 -486 466 -514 42 -4 89 -14 105 -23 66 -34 165 -45 219 -23 11 4 41 15 66 24 59 21 159 123 194 197 47 101 24 198 -65 276 -25 22 -40 46 -49 81 -39 155 -190 286 -386 337 -57 15 -168 25 -205 19z m153 -59 c50 -7 111 -29 182 -67 47 -25 150 -122 171 -160 28 -54 22 -58 -75 -58 -95 0 -127 -9 -199 -58 -44 -30 -66 -58 -110 -142 -30 -58 -33 -185 -6 -243 10 -20 14 -40 10 -44 -10 -10 -127 12 -172 33 -127 60 -194 138 -234 275 -20 68 -21 80 -10 144 24 137 95 241 199 292 46 22 139 43 171 38 14 -2 47 -7 73 -10z" transform="translate(3737,0.000000) scale(-1,1)" stroke="none" fill="#A49E98"/>
</g>
<g id="pattern3" transform="matrix(0.618,0,0,0.618,1057,3737)matrix(0.71,0.71,-0.71,0.71,0,0)">
<path d="M400 946 c-161 -36 -259 -145 -290 -321 -11 -64 -10 -76 10 -144 40 -137 107 -215 234 -275 45 -21 162 -43 172 -33 4 4 0 24 -10 44 -27 58 -24 185 6 243 44 84 66 112 110 142 72 49 104 58 199 58 97 0 103 4 75 58 -21 38 -124 135 -171 160 -71 38 -132 60 -182 67 -26 3 -59 8 -73 10 -14 2 -50 -2 -80 -9z" transform="translate(599,-599) scale(1,1)" stroke="none" fill="#696959"/>
<path d="M400 1004 c-177 -30 -327 -192 -345 -374 -28 -276 163 -486 466 -514 42 -4 89 -14 105 -23 66 -34 165 -45 219 -23 11 4 41 15 66 24 59 21 159 123 194 197 47 101 24 198 -65 276 -25 22 -40 46 -49 81 -39 155 -190 286 -386 337 -57 15 -168 25 -205 19z m153 -59 c50 -7 111 -29 182 -67 47 -25 150 -122 171 -160 28 -54 22 -58 -75 -58 -95 0 -127 -9 -199 -58 -44 -30 -66 -58 -110 -142 -30 -58 -33 -185 -6 -243 10 -20 14 -40 10 -44 -10 -10 -127 12 -172 33 -127 60 -194 138 -234 275 -20 68 -21 80 -10 144 24 137 95 241 199 292 46 22 139 43 171 38 14 -2 47 -7 73 -10z" transform="translate(599,-599) scale(1,1)" stroke="none" fill="#A49E98"/>
</g>
<g id="pattern4" transform="matrix(1.618,0,0,1.618,1568,1568)matrix(0.87,0.5,-0.5,0.87,0,0)">
<path d="M400 946 c-161 -36 -259 -145 -290 -321 -11 -64 -10 -76 10 -144 40 -137 107 -215 234 -275 45 -21 162 -43 172 -33 4 4 0 24 -10 44 -27 58 -24 185 6 243 44 84 66 112 110 142 72 49 104 58 199 58 97 0 103 4 75 58 -21 38 -124 135 -171 160 -71 38 -132 60 -182 67 -26 3 -59 8 -73 10 -14 2 -50 -2 -80 -9z" transform="translate(599,-599) scale(1,1)" stroke="none" fill="#696959"/>
<path d="M400 1004 c-177 -30 -327 -192 -345 -374 -28 -276 163 -486 466 -514 42 -4 89 -14 105 -23 66 -34 165 -45 219 -23 11 4 41 15 66 24 59 21 159 123 194 197 47 101 24 198 -65 276 -25 22 -40 46 -49 81 -39 155 -190 286 -386 337 -57 15 -168 25 -205 19z m153 -59 c50 -7 111 -29 182 -67 47 -25 150 -122 171 -160 28 -54 22 -58 -75 -58 -95 0 -127 -9 -199 -58 -44 -30 -66 -58 -110 -142 -30 -58 -33 -185 -6 -243 10 -20 14 -40 10 -44 -10 -10 -127 12 -172 33 -127 60 -194 138 -234 275 -20 68 -21 80 -10 144 24 137 95 241 199 292 46 22 139 43 171 38 14 -2 47 -7 73 -10z" transform="translate(599,-599) scale(1,1)" stroke="none" fill="#A49E98"/>
</g>
</g>
</g>

<g id="4" transform="translate(5496.0,0)scale(0.25,0.25)">

<g id="pattern">
<rect width="5954" height="5954" fill="#C2CCC8"/>
<g id="pattern1" transform="matrix(1,0,0,1,370,370)">
<path d="M400 946 c-161 -36 -259 -145 -290 -321 -11 -64 -10 -76 10 -144 40 -137 107 -215 234 -275 45 -21 162 -43 172 -33 4 4 0 24 -10 44 -27 58 -24 185 6 243 44 84 66 112 110 142 72 49 104 58 199 58 97 0 103 4 75 58 -21 38 -124 135 -171 160 -71 38 -132 60 -182 67 -26 3 -59 8 -73 10 -14 2 -50 -2 -80 -9z" transform="translate(0.000000,0.000000) scale(1,1)" stroke="none" fill="#696959"/>
<path d="M400 1004 c-177 -30 -327 -192 -345 -374 -28 -276 163 -486 466 -514 42 -4 89 -14 105 -23 66 -34 165 -45 219 -23 11 4 41 15 66 24 59 21 159 123 194 197 47 101 24 198 -65 276 -25 22 -40 46 -49 81 -39 155 -190 286 -386 337 -57 15 -168 25 -205 19z m153 -59 c50 -7 111 -29 182 -67 47 -25 150 -122 171 -160 28 -54 22 -58 -75 -58 -95 0 -127 -9 -199 -58 -44 -30 -66 -58 -110 -142 -30 -58 -33 -185 -6 -243 10 -20 14 -40 10 -44 -10 -10 -127 12 -172 33 -127 60 -194 138 -234 275 -20 68 -21 80 -10 144 24 137 95 241 199 292 46 22 139 43 171 38 14 -2 47 -7 73 -10z" transform="translate(0.000000,0.000000) scale(1,1)" stroke="none" fill="#A49E98"/>
</g>
<g id="pattern2" transform="matrix(0.618,0,0,0.618,2821,828)">
<path d="M400 946 c-161 -36 -259 -145 -290 -321 -11 -64 -10 -76 10 -144 40 -137 107 -215 234 -275 45 -21 162 -43 172 -33 4 4 0 24 -10 44 -27 58 -24 185 6 243 44 84 66 112 110 142 72 49 104 58 199 58 97 0 103 4 75 58 -21 38 -124 135 -171 160 -71 38 -132 60 -182 67 -26 3 -59 8 -73 10 -14 2 -50 -2 -80 -9z" transform="translate(3737,0.000000) scale(-1,1)" stroke="none" fill="#696959"/>
<path d="M400 1004 c-177 -30 -327 -192 -345 -374 -28 -276 163 -486 466 -514 42 -4 89 -14 105 -23 66 -34 165 -45 219 -23 11 4 41 15 66 24 59 21 159 123 194 197 47 101 24 198 -65 276 -25 22 -40 46 -49 81 -39 155 -190 286 -386 337 -57 15 -168 25 -205 19z m153 -59 c50 -7 111 -29 182 -67 47 -25 150 -122 171 -160 28 -54 22 -58 -75 -58 -95 0 -127 -9 -199 -58 -44 -30 -66 -58 -110 -142 -30 -58 -33 -185 -6 -243 10 -20 14 -40 10 -44 -10 -10 -127 12 -172 33 -127 60 -194 138 -234 275 -20 68 -21 80 -10 144 24 137 95 241 199 292 46 22 139 43 171 38 14 -2 47 -7 73 -10z" transform="translate(3737,0.000000) scale(-1,1)" stroke="none" fill="#A49E98"/>
</g>
<g id="pattern3" transform="matrix(0.618,0,0,0.618,1057,3737)matrix(0.71,0.71,-0.71,0.71,0,0)">
<path d="M400 946 c-161 -36 -259 -145 -290 -321 -11 -64 -10 -76 10 -144 40 -137 107 -215 234 -275 45 -21 162 -43 172 -33 4 4 0 24 -10 44 -27 58 -24 185 6 243 44 84 66 112 110 142 72 49 104 58 199 58 97 0 103 4 75 58 -21 38 -124 135 -171 160 -71 38 -132 60 -182 67 -26 3 -59 8 -73 10 -14 2 -50 -2 -80 -9z" transform="translate(599,-599) scale(1,1)" stroke="none" fill="#696959"/>
<path d="M400 1004 c-177 -30 -327 -192 -345 -374 -28 -276 163 -486 466 -514 42 -4 89 -14 105 -23 66 -34 165 -45 219 -23 11 4 41 15 66 24 59 21 159 123 194 197 47 101 24 198 -65 276 -25 22 -40 46 -49 81 -39 155 -190 286 -386 337 -57 15 -168 25 -205 19z m153 -59 c50 -7 111 -29 182 -67 47 -25 150 -122 171 -160 28 -54 22 -58 -75 -58 -95 0 -127 -9 -199 -58 -44 -30 -66 -58 -110 -142 -30 -58 -33 -185 -6 -243 10 -20 14 -40 10 -44 -10 -10 -127 12 -172 33 -127 60 -194 138 -234 275 -20 68 -21 80 -10 144 24 137 95 241 199 292 46 22 139 43 171 38 14 -2 47 -7 73 -10z" transform="translate(599,-599) scale(1,1)" stroke="none" fill="#A49E98"/>
</g>
<g id="pattern4" transform="matrix(1.618,0,0,1.618,1568,1568)matrix(0.87,0.5,-0.5,0.87,0,0)">
<path d="M400 946 c-161 -36 -259 -145 -290 -321 -11 -64 -10 -76 10 -144 40 -137 107 -215 234 -275 45 -21 162 -43 172 -33 4 4 0 24 -10 44 -27 58 -24 185 6 243 44 84 66 112 110 142 72 49 104 58 199 58 97 0 103 4 75 58 -21 38 -124 135 -171 160 -71 38 -132 60 -182 67 -26 3 -59 8 -73 10 -14 2 -50 -2 -80 -9z" transform="translate(599,-599) scale(1,1)" stroke="none" fill="#696959"/>
<path d="M400 1004 c-177 -30 -327 -192 -345 -374 -28 -276 163 -486 466 -514 42 -4 89 -14 105 -23 66 -34 165 -45 219 -23 11 4 41 15 66 24 59 21 159 123 194 197 47 101 24 198 -65 276 -25 22 -40 46 -49 81 -39 155 -190 286 -386 337 -57 15 -168 25 -205 19z m153 -59 c50 -7 111 -29 182 -67 47 -25 150 -122 171 -160 28 -54 22 -58 -75 -58 -95 0 -127 -9 -199 -58 -44 -30 -66 -58 -110 -142 -30 -58 -33 -185 -6 -243 10 -20 14 -40 10 -44 -10 -10 -127 12 -172 33 -127 60 -194 138 -234 275 -20 68 -21 80 -10 144 24 137 95 241 199 292 46 22 139 43 171 38 14 -2 47 -7 73 -10z" transform="translate(599,-599) scale(1,1)" stroke="none" fill="#A49E98"/>
</g>
</g>
</g>

</g>
</svg>