<?xml version="1.0" standalone="no"?>
<!DOCTYPE svg PUBLIC "-//W3C//DTD SVG 20010904//EN"
 "http://www.w3.org/TR/2001/REC-SVG-20010904/DTD/svg10.dtd">
<svg version="1.0" xmlns="http://www.w3.org/2000/svg" 
width="121.000000pt" height="146.000000pt" viewBox="0 0 121.000000 146.000000"
preserveAspectRatio = "xMidYMid meet" >
<metadata>
Created by ZoeQU, 2022
</metadata>
<rect width="121.000000" height="146.000000" fill="#FA8D1C"/>
<path d="M223 545 c-48 -41 -55 -60 -19 -53 21 4 24 1 23 -21 -1 -17 4 -26 17 -29 28 -6 33 8 27 76 l-6 63 -42 -36z" transform="translate(0.000000,146.000000) scale(0.100000,-0.100000)" stroke="none" fill="#38999E"/>

<path d="M597 234 c-4 -41 -13 -74 -23 -85 -16 -18 -16 -19 14 -19 34 0 96 47 107 80 3 10 -1 35 -9 54 -13 31 -19 36 -49 36 l-34 0 -6 -66z" transform="translate(0.000000,146.000000) scale(0.100000,-0.100000)" stroke="none" fill="#38999E"/>

<path d="M425 558 c-18 -27 -58 -149 -50 -156 3 -3 15 4 28 16 27 26 42 28 33 7 -8 -21 17 -19 36 3 23 25 48 78 48 100 0 24 -31 52 -58 52 -11 0 -28 -10 -37 -22z" transform="translate(0.000000,146.000000) scale(0.100000,-0.100000)" stroke="none" fill="#38999E"/>

<path d="M188 1361 c-71 -56 -152 -351 -127 -462 11 -47 51 -109 99 -154 18 -16 50 -57 71 -89 38 -57 39 -60 22 -80 -17 -20 -17 -20 0 -7 16 12 17 9 19 -45 0 -33 2 -63 3 -69 11 -62 20 -86 33 -98 36 -30 122 -57 196 -61 42 -3 80 -8 86 -11 5 -3 10 -1 10 4 0 6 16 11 35 11 41 0 56 -21 61 -91 3 -37 -2 -55 -21 -84 -32 -46 -31 -50 2 -28 l26 17 -7 -28 -7 -29 43 6 c64 9 83 37 91 132 4 43 12 84 18 91 6 7 27 18 47 25 123 40 253 199 252 309 l-1 45 -28 -32 c-24 -28 -36 -34 -89 -39 -72 -8 -84 -2 -211 100 -47 38 -99 75 -118 82 -38 16 -111 18 -207 4 -119 -18 -160 0 -196 84 -23 56 -21 63 50 146 56 65 84 116 70 125 -12 7 -22 2 -76 -42 -44 -35 -67 -44 -41 -15 15 17 17 21 17 42 0 6 9 10 19 10 22 0 35 15 26 30 -4 6 -16 4 -31 -6 -21 -14 -24 -15 -18 -1 3 8 16 18 30 21 17 5 24 13 24 31 0 14 5 34 12 44 18 29 -3 66 -59 101 -54 35 -90 38 -125 11z m-15 -213 c-7 -43 -23 -60 -24 -27 -1 24 -1 24 -12 -3 -6 -16 -15 -28 -20 -28 -13 0 1 52 20 73 27 29 43 22 36 -15z m27 -89 c0 -17 -20 -49 -30 -49 -11 0 -14 43 -3 53 10 11 33 8 33 -4z m302 -496 c10 -9 18 -25 18 -35 0 -22 -25 -75 -48 -100 -19 -22 -44 -24 -36 -3 9 21 -6 19 -33 -7 -13 -12 -25 -19 -28 -16 -8 7 32 129 50 156 19 26 51 29 77 5z" transform="translate(0.000000,146.000000) scale(0.100000,-0.100000)" stroke="none" fill="#E5E3DF"/>

</svg>