<?xml version="1.0" standalone="no"?>
<!DOCTYPE svg PUBLIC "-//W3C//DTD SVG 20010904//EN"
 "http://www.w3.org/TR/2001/REC-SVG-20010904/DTD/svg10.dtd">
<svg version="1.0" xmlns="http://www.w3.org/2000/svg" width="224pt" height="328pt" viewBox="0 0 224 328" preserveAspectRatio = "xMidYMid meet" >
<metadata>
Created by ZoeQu, written in 2022
</metadata>
<rect width="224" height="328" fill="#324144"/>
<g id="row0" transform="translate(7,0.0)">
<g id="0" transform="translate(0.0,0)scale(1,1)">

<g transform="matrix(0.5,0,0,0.5,0,0)">

<path d="M130 763 c0 -5 14 -32 30 -62 28 -51 30 -61 30 -165 0 -164 -45 -317 -131 -443 -16 -23 -29 -45 -29 -49 0 -4 40 -4 89 -2 163 10 266 83 350 252 68 137 68 254 0 330 -37 43 -117 95 -188 124 -51 21 -151 30 -151 15z m166 -59 c24 -14 63 -47 87 -74 66 -73 82 -153 52 -253 -56 -185 -177 -317 -292 -317 -30 0 -29 6 7 60 49 72 87 169 109 278 13 64 14 215 2 240 -26 52 -33 71 -27 81 10 15 11 15 62 -15z" transform="translate(0,82.0) scale(0.1,-0.1)" stroke="none" fill="#627477"/>

<path d="M130 763 c0 -5 14 -32 30 -62 28 -51 30 -61 30 -165 0 -164 -45 -317 -131 -443 -16 -23 -29 -45 -29 -49 0 -4 40 -4 89 -2 163 10 266 83 350 252 68 137 68 254 0 330 -37 43 -117 95 -188 124 -51 21 -151 30 -151 15z m166 -59 c24 -14 63 -47 87 -74 66 -73 82 -153 52 -253 -56 -185 -177 -317 -292 -317 -30 0 -29 6 7 60 49 72 87 169 109 278 13 64 14 215 2 240 -26 52 -33 71 -27 81 10 15 11 15 62 -15z" transform="translate(112.0,82.0) scale(-0.1,-0.1)" stroke="none" fill="#627477"/>

<path d="M130 763 c0 -5 14 -32 30 -62 28 -51 30 -61 30 -165 0 -164 -45 -317 -131 -443 -16 -23 -29 -45 -29 -49 0 -4 40 -4 89 -2 163 10 266 83 350 252 68 137 68 254 0 330 -37 43 -117 95 -188 124 -51 21 -151 30 -151 15z m166 -59 c24 -14 63 -47 87 -74 66 -73 82 -153 52 -253 -56 -185 -177 -317 -292 -317 -30 0 -29 6 7 60 49 72 87 169 109 278 13 64 14 215 2 240 -26 52 -33 71 -27 81 10 15 11 15 62 -15z" transform="translate(0,82.0) scale(0.1,0.1)" stroke="none" fill="#627477"/>

<path d="M130 763 c0 -5 14 -32 30 -62 28 -51 30 -61 30 -165 0 -164 -45 -317 -131 -443 -16 -23 -29 -45 -29 -49 0 -4 40 -4 89 -2 163 10 266 83 350 252 68 137 68 254 0 330 -37 43 -117 95 -188 124 -51 21 -151 30 -151 15z m166 -59 c24 -14 63 -47 87 -74 66 -73 82 -153 52 -253 -56 -185 -177 -317 -292 -317 -30 0 -29 6 7 60 49 72 87 169 109 278 13 64 14 215 2 240 -26 52 -33 71 -27 81 10 15 11 15 62 -15z" transform="translate(112.0,82.0) scale(-0.1,0.1)" stroke="none" fill="#627477"/>

</g>

</g>

<g id="1" transform="translate(56.0,0)scale(1,1)">

<g transform="matrix(0.5,0,0,0.5,0,0)">

<path d="M130 763 c0 -5 14 -32 30 -62 28 -51 30 -61 30 -165 0 -164 -45 -317 -131 -443 -16 -23 -29 -45 -29 -49 0 -4 40 -4 89 -2 163 10 266 83 350 252 68 137 68 254 0 330 -37 43 -117 95 -188 124 -51 21 -151 30 -151 15z m166 -59 c24 -14 63 -47 87 -74 66 -73 82 -153 52 -253 -56 -185 -177 -317 -292 -317 -30 0 -29 6 7 60 49 72 87 169 109 278 13 64 14 215 2 240 -26 52 -33 71 -27 81 10 15 11 15 62 -15z" transform="translate(0,82.0) scale(0.1,-0.1)" stroke="none" fill="#627477"/>

<path d="M130 763 c0 -5 14 -32 30 -62 28 -51 30 -61 30 -165 0 -164 -45 -317 -131 -443 -16 -23 -29 -45 -29 -49 0 -4 40 -4 89 -2 163 10 266 83 350 252 68 137 68 254 0 330 -37 43 -117 95 -188 124 -51 21 -151 30 -151 15z m166 -59 c24 -14 63 -47 87 -74 66 -73 82 -153 52 -253 -56 -185 -177 -317 -292 -317 -30 0 -29 6 7 60 49 72 87 169 109 278 13 64 14 215 2 240 -26 52 -33 71 -27 81 10 15 11 15 62 -15z" transform="translate(112.0,82.0) scale(-0.1,-0.1)" stroke="none" fill="#627477"/>

<path d="M130 763 c0 -5 14 -32 30 -62 28 -51 30 -61 30 -165 0 -164 -45 -317 -131 -443 -16 -23 -29 -45 -29 -49 0 -4 40 -4 89 -2 163 10 266 83 350 252 68 137 68 254 0 330 -37 43 -117 95 -188 124 -51 21 -151 30 -151 15z m166 -59 c24 -14 63 -47 87 -74 66 -73 82 -153 52 -253 -56 -185 -177 -317 -292 -317 -30 0 -29 6 7 60 49 72 87 169 109 278 13 64 14 215 2 240 -26 52 -33 71 -27 81 10 15 11 15 62 -15z" transform="translate(0,82.0) scale(0.1,0.1)" stroke="none" fill="#627477"/>

<path d="M130 763 c0 -5 14 -32 30 -62 28 -51 30 -61 30 -165 0 -164 -45 -317 -131 -443 -16 -23 -29 -45 -29 -49 0 -4 40 -4 89 -2 163 10 266 83 350 252 68 137 68 254 0 330 -37 43 -117 95 -188 124 -51 21 -151 30 -151 15z m166 -59 c24 -14 63 -47 87 -74 66 -73 82 -153 52 -253 -56 -185 -177 -317 -292 -317 -30 0 -29 6 7 60 49 72 87 169 109 278 13 64 14 215 2 240 -26 52 -33 71 -27 81 10 15 11 15 62 -15z" transform="translate(112.0,82.0) scale(-0.1,0.1)" stroke="none" fill="#627477"/>

</g>

</g>

<g id="2" transform="translate(112.0,0)scale(1,1)">

<g transform="matrix(0.5,0,0,0.5,0,0)">

<path d="M130 763 c0 -5 14 -32 30 -62 28 -51 30 -61 30 -165 0 -164 -45 -317 -131 -443 -16 -23 -29 -45 -29 -49 0 -4 40 -4 89 -2 163 10 266 83 350 252 68 137 68 254 0 330 -37 43 -117 95 -188 124 -51 21 -151 30 -151 15z m166 -59 c24 -14 63 -47 87 -74 66 -73 82 -153 52 -253 -56 -185 -177 -317 -292 -317 -30 0 -29 6 7 60 49 72 87 169 109 278 13 64 14 215 2 240 -26 52 -33 71 -27 81 10 15 11 15 62 -15z" transform="translate(0,82.0) scale(0.1,-0.1)" stroke="none" fill="#627477"/>

<path d="M130 763 c0 -5 14 -32 30 -62 28 -51 30 -61 30 -165 0 -164 -45 -317 -131 -443 -16 -23 -29 -45 -29 -49 0 -4 40 -4 89 -2 163 10 266 83 350 252 68 137 68 254 0 330 -37 43 -117 95 -188 124 -51 21 -151 30 -151 15z m166 -59 c24 -14 63 -47 87 -74 66 -73 82 -153 52 -253 -56 -185 -177 -317 -292 -317 -30 0 -29 6 7 60 49 72 87 169 109 278 13 64 14 215 2 240 -26 52 -33 71 -27 81 10 15 11 15 62 -15z" transform="translate(112.0,82.0) scale(-0.1,-0.1)" stroke="none" fill="#627477"/>

<path d="M130 763 c0 -5 14 -32 30 -62 28 -51 30 -61 30 -165 0 -164 -45 -317 -131 -443 -16 -23 -29 -45 -29 -49 0 -4 40 -4 89 -2 163 10 266 83 350 252 68 137 68 254 0 330 -37 43 -117 95 -188 124 -51 21 -151 30 -151 15z m166 -59 c24 -14 63 -47 87 -74 66 -73 82 -153 52 -253 -56 -185 -177 -317 -292 -317 -30 0 -29 6 7 60 49 72 87 169 109 278 13 64 14 215 2 240 -26 52 -33 71 -27 81 10 15 11 15 62 -15z" transform="translate(0,82.0) scale(0.1,0.1)" stroke="none" fill="#627477"/>

<path d="M130 763 c0 -5 14 -32 30 -62 28 -51 30 -61 30 -165 0 -164 -45 -317 -131 -443 -16 -23 -29 -45 -29 -49 0 -4 40 -4 89 -2 163 10 266 83 350 252 68 137 68 254 0 330 -37 43 -117 95 -188 124 -51 21 -151 30 -151 15z m166 -59 c24 -14 63 -47 87 -74 66 -73 82 -153 52 -253 -56 -185 -177 -317 -292 -317 -30 0 -29 6 7 60 49 72 87 169 109 278 13 64 14 215 2 240 -26 52 -33 71 -27 81 10 15 11 15 62 -15z" transform="translate(112.0,82.0) scale(-0.1,0.1)" stroke="none" fill="#627477"/>

</g>

</g>

<g id="3" transform="translate(168.0,0)scale(1,1)">

<g transform="matrix(0.5,0,0,0.5,0,0)">

<path d="M130 763 c0 -5 14 -32 30 -62 28 -51 30 -61 30 -165 0 -164 -45 -317 -131 -443 -16 -23 -29 -45 -29 -49 0 -4 40 -4 89 -2 163 10 266 83 350 252 68 137 68 254 0 330 -37 43 -117 95 -188 124 -51 21 -151 30 -151 15z m166 -59 c24 -14 63 -47 87 -74 66 -73 82 -153 52 -253 -56 -185 -177 -317 -292 -317 -30 0 -29 6 7 60 49 72 87 169 109 278 13 64 14 215 2 240 -26 52 -33 71 -27 81 10 15 11 15 62 -15z" transform="translate(0,82.0) scale(0.1,-0.1)" stroke="none" fill="#627477"/>

<path d="M130 763 c0 -5 14 -32 30 -62 28 -51 30 -61 30 -165 0 -164 -45 -317 -131 -443 -16 -23 -29 -45 -29 -49 0 -4 40 -4 89 -2 163 10 266 83 350 252 68 137 68 254 0 330 -37 43 -117 95 -188 124 -51 21 -151 30 -151 15z m166 -59 c24 -14 63 -47 87 -74 66 -73 82 -153 52 -253 -56 -185 -177 -317 -292 -317 -30 0 -29 6 7 60 49 72 87 169 109 278 13 64 14 215 2 240 -26 52 -33 71 -27 81 10 15 11 15 62 -15z" transform="translate(112.0,82.0) scale(-0.1,-0.1)" stroke="none" fill="#627477"/>

<path d="M130 763 c0 -5 14 -32 30 -62 28 -51 30 -61 30 -165 0 -164 -45 -317 -131 -443 -16 -23 -29 -45 -29 -49 0 -4 40 -4 89 -2 163 10 266 83 350 252 68 137 68 254 0 330 -37 43 -117 95 -188 124 -51 21 -151 30 -151 15z m166 -59 c24 -14 63 -47 87 -74 66 -73 82 -153 52 -253 -56 -185 -177 -317 -292 -317 -30 0 -29 6 7 60 49 72 87 169 109 278 13 64 14 215 2 240 -26 52 -33 71 -27 81 10 15 11 15 62 -15z" transform="translate(0,82.0) scale(0.1,0.1)" stroke="none" fill="#627477"/>

<path d="M130 763 c0 -5 14 -32 30 -62 28 -51 30 -61 30 -165 0 -164 -45 -317 -131 -443 -16 -23 -29 -45 -29 -49 0 -4 40 -4 89 -2 163 10 266 83 350 252 68 137 68 254 0 330 -37 43 -117 95 -188 124 -51 21 -151 30 -151 15z m166 -59 c24 -14 63 -47 87 -74 66 -73 82 -153 52 -253 -56 -185 -177 -317 -292 -317 -30 0 -29 6 7 60 49 72 87 169 109 278 13 64 14 215 2 240 -26 52 -33 71 -27 81 10 15 11 15 62 -15z" transform="translate(112.0,82.0) scale(-0.1,0.1)" stroke="none" fill="#627477"/>

</g>

</g>

<g id="4" transform="translate(224.0,0)scale(1,1)">

<g transform="matrix(0.5,0,0,0.5,0,0)">

<path d="M130 763 c0 -5 14 -32 30 -62 28 -51 30 -61 30 -165 0 -164 -45 -317 -131 -443 -16 -23 -29 -45 -29 -49 0 -4 40 -4 89 -2 163 10 266 83 350 252 68 137 68 254 0 330 -37 43 -117 95 -188 124 -51 21 -151 30 -151 15z m166 -59 c24 -14 63 -47 87 -74 66 -73 82 -153 52 -253 -56 -185 -177 -317 -292 -317 -30 0 -29 6 7 60 49 72 87 169 109 278 13 64 14 215 2 240 -26 52 -33 71 -27 81 10 15 11 15 62 -15z" transform="translate(0,82.0) scale(0.1,-0.1)" stroke="none" fill="#627477"/>

<path d="M130 763 c0 -5 14 -32 30 -62 28 -51 30 -61 30 -165 0 -164 -45 -317 -131 -443 -16 -23 -29 -45 -29 -49 0 -4 40 -4 89 -2 163 10 266 83 350 252 68 137 68 254 0 330 -37 43 -117 95 -188 124 -51 21 -151 30 -151 15z m166 -59 c24 -14 63 -47 87 -74 66 -73 82 -153 52 -253 -56 -185 -177 -317 -292 -317 -30 0 -29 6 7 60 49 72 87 169 109 278 13 64 14 215 2 240 -26 52 -33 71 -27 81 10 15 11 15 62 -15z" transform="translate(112.0,82.0) scale(-0.1,-0.1)" stroke="none" fill="#627477"/>

<path d="M130 763 c0 -5 14 -32 30 -62 28 -51 30 -61 30 -165 0 -164 -45 -317 -131 -443 -16 -23 -29 -45 -29 -49 0 -4 40 -4 89 -2 163 10 266 83 350 252 68 137 68 254 0 330 -37 43 -117 95 -188 124 -51 21 -151 30 -151 15z m166 -59 c24 -14 63 -47 87 -74 66 -73 82 -153 52 -253 -56 -185 -177 -317 -292 -317 -30 0 -29 6 7 60 49 72 87 169 109 278 13 64 14 215 2 240 -26 52 -33 71 -27 81 10 15 11 15 62 -15z" transform="translate(0,82.0) scale(0.1,0.1)" stroke="none" fill="#627477"/>

<path d="M130 763 c0 -5 14 -32 30 -62 28 -51 30 -61 30 -165 0 -164 -45 -317 -131 -443 -16 -23 -29 -45 -29 -49 0 -4 40 -4 89 -2 163 10 266 83 350 252 68 137 68 254 0 330 -37 43 -117 95 -188 124 -51 21 -151 30 -151 15z m166 -59 c24 -14 63 -47 87 -74 66 -73 82 -153 52 -253 -56 -185 -177 -317 -292 -317 -30 0 -29 6 7 60 49 72 87 169 109 278 13 64 14 215 2 240 -26 52 -33 71 -27 81 10 15 11 15 62 -15z" transform="translate(112.0,82.0) scale(-0.1,0.1)" stroke="none" fill="#627477"/>

</g>

</g>

</g>
<g id="row1" transform="translate(7,82.0)">
<g id="0" transform="translate(0.0,0)scale(1,1)">

<g transform="matrix(0.5,0,0,0.5,0,0)">

<path d="M130 763 c0 -5 14 -32 30 -62 28 -51 30 -61 30 -165 0 -164 -45 -317 -131 -443 -16 -23 -29 -45 -29 -49 0 -4 40 -4 89 -2 163 10 266 83 350 252 68 137 68 254 0 330 -37 43 -117 95 -188 124 -51 21 -151 30 -151 15z m166 -59 c24 -14 63 -47 87 -74 66 -73 82 -153 52 -253 -56 -185 -177 -317 -292 -317 -30 0 -29 6 7 60 49 72 87 169 109 278 13 64 14 215 2 240 -26 52 -33 71 -27 81 10 15 11 15 62 -15z" transform="translate(0,82.0) scale(0.1,-0.1)" stroke="none" fill="#627477"/>

<path d="M130 763 c0 -5 14 -32 30 -62 28 -51 30 -61 30 -165 0 -164 -45 -317 -131 -443 -16 -23 -29 -45 -29 -49 0 -4 40 -4 89 -2 163 10 266 83 350 252 68 137 68 254 0 330 -37 43 -117 95 -188 124 -51 21 -151 30 -151 15z m166 -59 c24 -14 63 -47 87 -74 66 -73 82 -153 52 -253 -56 -185 -177 -317 -292 -317 -30 0 -29 6 7 60 49 72 87 169 109 278 13 64 14 215 2 240 -26 52 -33 71 -27 81 10 15 11 15 62 -15z" transform="translate(112.0,82.0) scale(-0.1,-0.1)" stroke="none" fill="#627477"/>

<path d="M130 763 c0 -5 14 -32 30 -62 28 -51 30 -61 30 -165 0 -164 -45 -317 -131 -443 -16 -23 -29 -45 -29 -49 0 -4 40 -4 89 -2 163 10 266 83 350 252 68 137 68 254 0 330 -37 43 -117 95 -188 124 -51 21 -151 30 -151 15z m166 -59 c24 -14 63 -47 87 -74 66 -73 82 -153 52 -253 -56 -185 -177 -317 -292 -317 -30 0 -29 6 7 60 49 72 87 169 109 278 13 64 14 215 2 240 -26 52 -33 71 -27 81 10 15 11 15 62 -15z" transform="translate(0,82.0) scale(0.1,0.1)" stroke="none" fill="#627477"/>

<path d="M130 763 c0 -5 14 -32 30 -62 28 -51 30 -61 30 -165 0 -164 -45 -317 -131 -443 -16 -23 -29 -45 -29 -49 0 -4 40 -4 89 -2 163 10 266 83 350 252 68 137 68 254 0 330 -37 43 -117 95 -188 124 -51 21 -151 30 -151 15z m166 -59 c24 -14 63 -47 87 -74 66 -73 82 -153 52 -253 -56 -185 -177 -317 -292 -317 -30 0 -29 6 7 60 49 72 87 169 109 278 13 64 14 215 2 240 -26 52 -33 71 -27 81 10 15 11 15 62 -15z" transform="translate(112.0,82.0) scale(-0.1,0.1)" stroke="none" fill="#627477"/>

</g>

</g>

<g id="1" transform="translate(56.0,0)scale(1,1)">

<g transform="matrix(0.5,0,0,0.5,0,0)">

<path d="M130 763 c0 -5 14 -32 30 -62 28 -51 30 -61 30 -165 0 -164 -45 -317 -131 -443 -16 -23 -29 -45 -29 -49 0 -4 40 -4 89 -2 163 10 266 83 350 252 68 137 68 254 0 330 -37 43 -117 95 -188 124 -51 21 -151 30 -151 15z m166 -59 c24 -14 63 -47 87 -74 66 -73 82 -153 52 -253 -56 -185 -177 -317 -292 -317 -30 0 -29 6 7 60 49 72 87 169 109 278 13 64 14 215 2 240 -26 52 -33 71 -27 81 10 15 11 15 62 -15z" transform="translate(0,82.0) scale(0.1,-0.1)" stroke="none" fill="#627477"/>

<path d="M130 763 c0 -5 14 -32 30 -62 28 -51 30 -61 30 -165 0 -164 -45 -317 -131 -443 -16 -23 -29 -45 -29 -49 0 -4 40 -4 89 -2 163 10 266 83 350 252 68 137 68 254 0 330 -37 43 -117 95 -188 124 -51 21 -151 30 -151 15z m166 -59 c24 -14 63 -47 87 -74 66 -73 82 -153 52 -253 -56 -185 -177 -317 -292 -317 -30 0 -29 6 7 60 49 72 87 169 109 278 13 64 14 215 2 240 -26 52 -33 71 -27 81 10 15 11 15 62 -15z" transform="translate(112.0,82.0) scale(-0.1,-0.1)" stroke="none" fill="#627477"/>

<path d="M130 763 c0 -5 14 -32 30 -62 28 -51 30 -61 30 -165 0 -164 -45 -317 -131 -443 -16 -23 -29 -45 -29 -49 0 -4 40 -4 89 -2 163 10 266 83 350 252 68 137 68 254 0 330 -37 43 -117 95 -188 124 -51 21 -151 30 -151 15z m166 -59 c24 -14 63 -47 87 -74 66 -73 82 -153 52 -253 -56 -185 -177 -317 -292 -317 -30 0 -29 6 7 60 49 72 87 169 109 278 13 64 14 215 2 240 -26 52 -33 71 -27 81 10 15 11 15 62 -15z" transform="translate(0,82.0) scale(0.1,0.1)" stroke="none" fill="#627477"/>

<path d="M130 763 c0 -5 14 -32 30 -62 28 -51 30 -61 30 -165 0 -164 -45 -317 -131 -443 -16 -23 -29 -45 -29 -49 0 -4 40 -4 89 -2 163 10 266 83 350 252 68 137 68 254 0 330 -37 43 -117 95 -188 124 -51 21 -151 30 -151 15z m166 -59 c24 -14 63 -47 87 -74 66 -73 82 -153 52 -253 -56 -185 -177 -317 -292 -317 -30 0 -29 6 7 60 49 72 87 169 109 278 13 64 14 215 2 240 -26 52 -33 71 -27 81 10 15 11 15 62 -15z" transform="translate(112.0,82.0) scale(-0.1,0.1)" stroke="none" fill="#627477"/>

</g>

</g>

<g id="2" transform="translate(112.0,0)scale(1,1)">

<g transform="matrix(0.5,0,0,0.5,0,0)">

<path d="M130 763 c0 -5 14 -32 30 -62 28 -51 30 -61 30 -165 0 -164 -45 -317 -131 -443 -16 -23 -29 -45 -29 -49 0 -4 40 -4 89 -2 163 10 266 83 350 252 68 137 68 254 0 330 -37 43 -117 95 -188 124 -51 21 -151 30 -151 15z m166 -59 c24 -14 63 -47 87 -74 66 -73 82 -153 52 -253 -56 -185 -177 -317 -292 -317 -30 0 -29 6 7 60 49 72 87 169 109 278 13 64 14 215 2 240 -26 52 -33 71 -27 81 10 15 11 15 62 -15z" transform="translate(0,82.0) scale(0.1,-0.1)" stroke="none" fill="#627477"/>

<path d="M130 763 c0 -5 14 -32 30 -62 28 -51 30 -61 30 -165 0 -164 -45 -317 -131 -443 -16 -23 -29 -45 -29 -49 0 -4 40 -4 89 -2 163 10 266 83 350 252 68 137 68 254 0 330 -37 43 -117 95 -188 124 -51 21 -151 30 -151 15z m166 -59 c24 -14 63 -47 87 -74 66 -73 82 -153 52 -253 -56 -185 -177 -317 -292 -317 -30 0 -29 6 7 60 49 72 87 169 109 278 13 64 14 215 2 240 -26 52 -33 71 -27 81 10 15 11 15 62 -15z" transform="translate(112.0,82.0) scale(-0.1,-0.1)" stroke="none" fill="#627477"/>

<path d="M130 763 c0 -5 14 -32 30 -62 28 -51 30 -61 30 -165 0 -164 -45 -317 -131 -443 -16 -23 -29 -45 -29 -49 0 -4 40 -4 89 -2 163 10 266 83 350 252 68 137 68 254 0 330 -37 43 -117 95 -188 124 -51 21 -151 30 -151 15z m166 -59 c24 -14 63 -47 87 -74 66 -73 82 -153 52 -253 -56 -185 -177 -317 -292 -317 -30 0 -29 6 7 60 49 72 87 169 109 278 13 64 14 215 2 240 -26 52 -33 71 -27 81 10 15 11 15 62 -15z" transform="translate(0,82.0) scale(0.1,0.1)" stroke="none" fill="#627477"/>

<path d="M130 763 c0 -5 14 -32 30 -62 28 -51 30 -61 30 -165 0 -164 -45 -317 -131 -443 -16 -23 -29 -45 -29 -49 0 -4 40 -4 89 -2 163 10 266 83 350 252 68 137 68 254 0 330 -37 43 -117 95 -188 124 -51 21 -151 30 -151 15z m166 -59 c24 -14 63 -47 87 -74 66 -73 82 -153 52 -253 -56 -185 -177 -317 -292 -317 -30 0 -29 6 7 60 49 72 87 169 109 278 13 64 14 215 2 240 -26 52 -33 71 -27 81 10 15 11 15 62 -15z" transform="translate(112.0,82.0) scale(-0.1,0.1)" stroke="none" fill="#627477"/>

</g>

</g>

<g id="3" transform="translate(168.0,0)scale(1,1)">

<g transform="matrix(0.5,0,0,0.5,0,0)">

<path d="M130 763 c0 -5 14 -32 30 -62 28 -51 30 -61 30 -165 0 -164 -45 -317 -131 -443 -16 -23 -29 -45 -29 -49 0 -4 40 -4 89 -2 163 10 266 83 350 252 68 137 68 254 0 330 -37 43 -117 95 -188 124 -51 21 -151 30 -151 15z m166 -59 c24 -14 63 -47 87 -74 66 -73 82 -153 52 -253 -56 -185 -177 -317 -292 -317 -30 0 -29 6 7 60 49 72 87 169 109 278 13 64 14 215 2 240 -26 52 -33 71 -27 81 10 15 11 15 62 -15z" transform="translate(0,82.0) scale(0.1,-0.1)" stroke="none" fill="#627477"/>

<path d="M130 763 c0 -5 14 -32 30 -62 28 -51 30 -61 30 -165 0 -164 -45 -317 -131 -443 -16 -23 -29 -45 -29 -49 0 -4 40 -4 89 -2 163 10 266 83 350 252 68 137 68 254 0 330 -37 43 -117 95 -188 124 -51 21 -151 30 -151 15z m166 -59 c24 -14 63 -47 87 -74 66 -73 82 -153 52 -253 -56 -185 -177 -317 -292 -317 -30 0 -29 6 7 60 49 72 87 169 109 278 13 64 14 215 2 240 -26 52 -33 71 -27 81 10 15 11 15 62 -15z" transform="translate(112.0,82.0) scale(-0.1,-0.1)" stroke="none" fill="#627477"/>

<path d="M130 763 c0 -5 14 -32 30 -62 28 -51 30 -61 30 -165 0 -164 -45 -317 -131 -443 -16 -23 -29 -45 -29 -49 0 -4 40 -4 89 -2 163 10 266 83 350 252 68 137 68 254 0 330 -37 43 -117 95 -188 124 -51 21 -151 30 -151 15z m166 -59 c24 -14 63 -47 87 -74 66 -73 82 -153 52 -253 -56 -185 -177 -317 -292 -317 -30 0 -29 6 7 60 49 72 87 169 109 278 13 64 14 215 2 240 -26 52 -33 71 -27 81 10 15 11 15 62 -15z" transform="translate(0,82.0) scale(0.1,0.1)" stroke="none" fill="#627477"/>

<path d="M130 763 c0 -5 14 -32 30 -62 28 -51 30 -61 30 -165 0 -164 -45 -317 -131 -443 -16 -23 -29 -45 -29 -49 0 -4 40 -4 89 -2 163 10 266 83 350 252 68 137 68 254 0 330 -37 43 -117 95 -188 124 -51 21 -151 30 -151 15z m166 -59 c24 -14 63 -47 87 -74 66 -73 82 -153 52 -253 -56 -185 -177 -317 -292 -317 -30 0 -29 6 7 60 49 72 87 169 109 278 13 64 14 215 2 240 -26 52 -33 71 -27 81 10 15 11 15 62 -15z" transform="translate(112.0,82.0) scale(-0.1,0.1)" stroke="none" fill="#627477"/>

</g>

</g>

<g id="4" transform="translate(224.0,0)scale(1,1)">

<g transform="matrix(0.5,0,0,0.5,0,0)">

<path d="M130 763 c0 -5 14 -32 30 -62 28 -51 30 -61 30 -165 0 -164 -45 -317 -131 -443 -16 -23 -29 -45 -29 -49 0 -4 40 -4 89 -2 163 10 266 83 350 252 68 137 68 254 0 330 -37 43 -117 95 -188 124 -51 21 -151 30 -151 15z m166 -59 c24 -14 63 -47 87 -74 66 -73 82 -153 52 -253 -56 -185 -177 -317 -292 -317 -30 0 -29 6 7 60 49 72 87 169 109 278 13 64 14 215 2 240 -26 52 -33 71 -27 81 10 15 11 15 62 -15z" transform="translate(0,82.0) scale(0.1,-0.1)" stroke="none" fill="#627477"/>

<path d="M130 763 c0 -5 14 -32 30 -62 28 -51 30 -61 30 -165 0 -164 -45 -317 -131 -443 -16 -23 -29 -45 -29 -49 0 -4 40 -4 89 -2 163 10 266 83 350 252 68 137 68 254 0 330 -37 43 -117 95 -188 124 -51 21 -151 30 -151 15z m166 -59 c24 -14 63 -47 87 -74 66 -73 82 -153 52 -253 -56 -185 -177 -317 -292 -317 -30 0 -29 6 7 60 49 72 87 169 109 278 13 64 14 215 2 240 -26 52 -33 71 -27 81 10 15 11 15 62 -15z" transform="translate(112.0,82.0) scale(-0.1,-0.1)" stroke="none" fill="#627477"/>

<path d="M130 763 c0 -5 14 -32 30 -62 28 -51 30 -61 30 -165 0 -164 -45 -317 -131 -443 -16 -23 -29 -45 -29 -49 0 -4 40 -4 89 -2 163 10 266 83 350 252 68 137 68 254 0 330 -37 43 -117 95 -188 124 -51 21 -151 30 -151 15z m166 -59 c24 -14 63 -47 87 -74 66 -73 82 -153 52 -253 -56 -185 -177 -317 -292 -317 -30 0 -29 6 7 60 49 72 87 169 109 278 13 64 14 215 2 240 -26 52 -33 71 -27 81 10 15 11 15 62 -15z" transform="translate(0,82.0) scale(0.1,0.1)" stroke="none" fill="#627477"/>

<path d="M130 763 c0 -5 14 -32 30 -62 28 -51 30 -61 30 -165 0 -164 -45 -317 -131 -443 -16 -23 -29 -45 -29 -49 0 -4 40 -4 89 -2 163 10 266 83 350 252 68 137 68 254 0 330 -37 43 -117 95 -188 124 -51 21 -151 30 -151 15z m166 -59 c24 -14 63 -47 87 -74 66 -73 82 -153 52 -253 -56 -185 -177 -317 -292 -317 -30 0 -29 6 7 60 49 72 87 169 109 278 13 64 14 215 2 240 -26 52 -33 71 -27 81 10 15 11 15 62 -15z" transform="translate(112.0,82.0) scale(-0.1,0.1)" stroke="none" fill="#627477"/>

</g>

</g>

</g>
<g id="row2" transform="translate(7,164.0)">
<g id="0" transform="translate(0.0,0)scale(1,1)">

<g transform="matrix(0.5,0,0,0.5,0,0)">

<path d="M130 763 c0 -5 14 -32 30 -62 28 -51 30 -61 30 -165 0 -164 -45 -317 -131 -443 -16 -23 -29 -45 -29 -49 0 -4 40 -4 89 -2 163 10 266 83 350 252 68 137 68 254 0 330 -37 43 -117 95 -188 124 -51 21 -151 30 -151 15z m166 -59 c24 -14 63 -47 87 -74 66 -73 82 -153 52 -253 -56 -185 -177 -317 -292 -317 -30 0 -29 6 7 60 49 72 87 169 109 278 13 64 14 215 2 240 -26 52 -33 71 -27 81 10 15 11 15 62 -15z" transform="translate(0,82.0) scale(0.1,-0.1)" stroke="none" fill="#627477"/>

<path d="M130 763 c0 -5 14 -32 30 -62 28 -51 30 -61 30 -165 0 -164 -45 -317 -131 -443 -16 -23 -29 -45 -29 -49 0 -4 40 -4 89 -2 163 10 266 83 350 252 68 137 68 254 0 330 -37 43 -117 95 -188 124 -51 21 -151 30 -151 15z m166 -59 c24 -14 63 -47 87 -74 66 -73 82 -153 52 -253 -56 -185 -177 -317 -292 -317 -30 0 -29 6 7 60 49 72 87 169 109 278 13 64 14 215 2 240 -26 52 -33 71 -27 81 10 15 11 15 62 -15z" transform="translate(112.0,82.0) scale(-0.1,-0.1)" stroke="none" fill="#627477"/>

<path d="M130 763 c0 -5 14 -32 30 -62 28 -51 30 -61 30 -165 0 -164 -45 -317 -131 -443 -16 -23 -29 -45 -29 -49 0 -4 40 -4 89 -2 163 10 266 83 350 252 68 137 68 254 0 330 -37 43 -117 95 -188 124 -51 21 -151 30 -151 15z m166 -59 c24 -14 63 -47 87 -74 66 -73 82 -153 52 -253 -56 -185 -177 -317 -292 -317 -30 0 -29 6 7 60 49 72 87 169 109 278 13 64 14 215 2 240 -26 52 -33 71 -27 81 10 15 11 15 62 -15z" transform="translate(0,82.0) scale(0.1,0.1)" stroke="none" fill="#627477"/>

<path d="M130 763 c0 -5 14 -32 30 -62 28 -51 30 -61 30 -165 0 -164 -45 -317 -131 -443 -16 -23 -29 -45 -29 -49 0 -4 40 -4 89 -2 163 10 266 83 350 252 68 137 68 254 0 330 -37 43 -117 95 -188 124 -51 21 -151 30 -151 15z m166 -59 c24 -14 63 -47 87 -74 66 -73 82 -153 52 -253 -56 -185 -177 -317 -292 -317 -30 0 -29 6 7 60 49 72 87 169 109 278 13 64 14 215 2 240 -26 52 -33 71 -27 81 10 15 11 15 62 -15z" transform="translate(112.0,82.0) scale(-0.1,0.1)" stroke="none" fill="#627477"/>

</g>

</g>

<g id="1" transform="translate(56.0,0)scale(1,1)">

<g transform="matrix(0.5,0,0,0.5,0,0)">

<path d="M130 763 c0 -5 14 -32 30 -62 28 -51 30 -61 30 -165 0 -164 -45 -317 -131 -443 -16 -23 -29 -45 -29 -49 0 -4 40 -4 89 -2 163 10 266 83 350 252 68 137 68 254 0 330 -37 43 -117 95 -188 124 -51 21 -151 30 -151 15z m166 -59 c24 -14 63 -47 87 -74 66 -73 82 -153 52 -253 -56 -185 -177 -317 -292 -317 -30 0 -29 6 7 60 49 72 87 169 109 278 13 64 14 215 2 240 -26 52 -33 71 -27 81 10 15 11 15 62 -15z" transform="translate(0,82.0) scale(0.1,-0.1)" stroke="none" fill="#627477"/>

<path d="M130 763 c0 -5 14 -32 30 -62 28 -51 30 -61 30 -165 0 -164 -45 -317 -131 -443 -16 -23 -29 -45 -29 -49 0 -4 40 -4 89 -2 163 10 266 83 350 252 68 137 68 254 0 330 -37 43 -117 95 -188 124 -51 21 -151 30 -151 15z m166 -59 c24 -14 63 -47 87 -74 66 -73 82 -153 52 -253 -56 -185 -177 -317 -292 -317 -30 0 -29 6 7 60 49 72 87 169 109 278 13 64 14 215 2 240 -26 52 -33 71 -27 81 10 15 11 15 62 -15z" transform="translate(112.0,82.0) scale(-0.1,-0.1)" stroke="none" fill="#627477"/>

<path d="M130 763 c0 -5 14 -32 30 -62 28 -51 30 -61 30 -165 0 -164 -45 -317 -131 -443 -16 -23 -29 -45 -29 -49 0 -4 40 -4 89 -2 163 10 266 83 350 252 68 137 68 254 0 330 -37 43 -117 95 -188 124 -51 21 -151 30 -151 15z m166 -59 c24 -14 63 -47 87 -74 66 -73 82 -153 52 -253 -56 -185 -177 -317 -292 -317 -30 0 -29 6 7 60 49 72 87 169 109 278 13 64 14 215 2 240 -26 52 -33 71 -27 81 10 15 11 15 62 -15z" transform="translate(0,82.0) scale(0.1,0.1)" stroke="none" fill="#627477"/>

<path d="M130 763 c0 -5 14 -32 30 -62 28 -51 30 -61 30 -165 0 -164 -45 -317 -131 -443 -16 -23 -29 -45 -29 -49 0 -4 40 -4 89 -2 163 10 266 83 350 252 68 137 68 254 0 330 -37 43 -117 95 -188 124 -51 21 -151 30 -151 15z m166 -59 c24 -14 63 -47 87 -74 66 -73 82 -153 52 -253 -56 -185 -177 -317 -292 -317 -30 0 -29 6 7 60 49 72 87 169 109 278 13 64 14 215 2 240 -26 52 -33 71 -27 81 10 15 11 15 62 -15z" transform="translate(112.0,82.0) scale(-0.1,0.1)" stroke="none" fill="#627477"/>

</g>

</g>

<g id="2" transform="translate(112.0,0)scale(1,1)">

<g transform="matrix(0.5,0,0,0.5,0,0)">

<path d="M130 763 c0 -5 14 -32 30 -62 28 -51 30 -61 30 -165 0 -164 -45 -317 -131 -443 -16 -23 -29 -45 -29 -49 0 -4 40 -4 89 -2 163 10 266 83 350 252 68 137 68 254 0 330 -37 43 -117 95 -188 124 -51 21 -151 30 -151 15z m166 -59 c24 -14 63 -47 87 -74 66 -73 82 -153 52 -253 -56 -185 -177 -317 -292 -317 -30 0 -29 6 7 60 49 72 87 169 109 278 13 64 14 215 2 240 -26 52 -33 71 -27 81 10 15 11 15 62 -15z" transform="translate(0,82.0) scale(0.1,-0.1)" stroke="none" fill="#627477"/>

<path d="M130 763 c0 -5 14 -32 30 -62 28 -51 30 -61 30 -165 0 -164 -45 -317 -131 -443 -16 -23 -29 -45 -29 -49 0 -4 40 -4 89 -2 163 10 266 83 350 252 68 137 68 254 0 330 -37 43 -117 95 -188 124 -51 21 -151 30 -151 15z m166 -59 c24 -14 63 -47 87 -74 66 -73 82 -153 52 -253 -56 -185 -177 -317 -292 -317 -30 0 -29 6 7 60 49 72 87 169 109 278 13 64 14 215 2 240 -26 52 -33 71 -27 81 10 15 11 15 62 -15z" transform="translate(112.0,82.0) scale(-0.1,-0.1)" stroke="none" fill="#627477"/>

<path d="M130 763 c0 -5 14 -32 30 -62 28 -51 30 -61 30 -165 0 -164 -45 -317 -131 -443 -16 -23 -29 -45 -29 -49 0 -4 40 -4 89 -2 163 10 266 83 350 252 68 137 68 254 0 330 -37 43 -117 95 -188 124 -51 21 -151 30 -151 15z m166 -59 c24 -14 63 -47 87 -74 66 -73 82 -153 52 -253 -56 -185 -177 -317 -292 -317 -30 0 -29 6 7 60 49 72 87 169 109 278 13 64 14 215 2 240 -26 52 -33 71 -27 81 10 15 11 15 62 -15z" transform="translate(0,82.0) scale(0.1,0.1)" stroke="none" fill="#627477"/>

<path d="M130 763 c0 -5 14 -32 30 -62 28 -51 30 -61 30 -165 0 -164 -45 -317 -131 -443 -16 -23 -29 -45 -29 -49 0 -4 40 -4 89 -2 163 10 266 83 350 252 68 137 68 254 0 330 -37 43 -117 95 -188 124 -51 21 -151 30 -151 15z m166 -59 c24 -14 63 -47 87 -74 66 -73 82 -153 52 -253 -56 -185 -177 -317 -292 -317 -30 0 -29 6 7 60 49 72 87 169 109 278 13 64 14 215 2 240 -26 52 -33 71 -27 81 10 15 11 15 62 -15z" transform="translate(112.0,82.0) scale(-0.1,0.1)" stroke="none" fill="#627477"/>

</g>

</g>

<g id="3" transform="translate(168.0,0)scale(1,1)">

<g transform="matrix(0.5,0,0,0.5,0,0)">

<path d="M130 763 c0 -5 14 -32 30 -62 28 -51 30 -61 30 -165 0 -164 -45 -317 -131 -443 -16 -23 -29 -45 -29 -49 0 -4 40 -4 89 -2 163 10 266 83 350 252 68 137 68 254 0 330 -37 43 -117 95 -188 124 -51 21 -151 30 -151 15z m166 -59 c24 -14 63 -47 87 -74 66 -73 82 -153 52 -253 -56 -185 -177 -317 -292 -317 -30 0 -29 6 7 60 49 72 87 169 109 278 13 64 14 215 2 240 -26 52 -33 71 -27 81 10 15 11 15 62 -15z" transform="translate(0,82.0) scale(0.1,-0.1)" stroke="none" fill="#627477"/>

<path d="M130 763 c0 -5 14 -32 30 -62 28 -51 30 -61 30 -165 0 -164 -45 -317 -131 -443 -16 -23 -29 -45 -29 -49 0 -4 40 -4 89 -2 163 10 266 83 350 252 68 137 68 254 0 330 -37 43 -117 95 -188 124 -51 21 -151 30 -151 15z m166 -59 c24 -14 63 -47 87 -74 66 -73 82 -153 52 -253 -56 -185 -177 -317 -292 -317 -30 0 -29 6 7 60 49 72 87 169 109 278 13 64 14 215 2 240 -26 52 -33 71 -27 81 10 15 11 15 62 -15z" transform="translate(112.0,82.0) scale(-0.1,-0.1)" stroke="none" fill="#627477"/>

<path d="M130 763 c0 -5 14 -32 30 -62 28 -51 30 -61 30 -165 0 -164 -45 -317 -131 -443 -16 -23 -29 -45 -29 -49 0 -4 40 -4 89 -2 163 10 266 83 350 252 68 137 68 254 0 330 -37 43 -117 95 -188 124 -51 21 -151 30 -151 15z m166 -59 c24 -14 63 -47 87 -74 66 -73 82 -153 52 -253 -56 -185 -177 -317 -292 -317 -30 0 -29 6 7 60 49 72 87 169 109 278 13 64 14 215 2 240 -26 52 -33 71 -27 81 10 15 11 15 62 -15z" transform="translate(0,82.0) scale(0.1,0.1)" stroke="none" fill="#627477"/>

<path d="M130 763 c0 -5 14 -32 30 -62 28 -51 30 -61 30 -165 0 -164 -45 -317 -131 -443 -16 -23 -29 -45 -29 -49 0 -4 40 -4 89 -2 163 10 266 83 350 252 68 137 68 254 0 330 -37 43 -117 95 -188 124 -51 21 -151 30 -151 15z m166 -59 c24 -14 63 -47 87 -74 66 -73 82 -153 52 -253 -56 -185 -177 -317 -292 -317 -30 0 -29 6 7 60 49 72 87 169 109 278 13 64 14 215 2 240 -26 52 -33 71 -27 81 10 15 11 15 62 -15z" transform="translate(112.0,82.0) scale(-0.1,0.1)" stroke="none" fill="#627477"/>

</g>

</g>

<g id="4" transform="translate(224.0,0)scale(1,1)">

<g transform="matrix(0.5,0,0,0.5,0,0)">

<path d="M130 763 c0 -5 14 -32 30 -62 28 -51 30 -61 30 -165 0 -164 -45 -317 -131 -443 -16 -23 -29 -45 -29 -49 0 -4 40 -4 89 -2 163 10 266 83 350 252 68 137 68 254 0 330 -37 43 -117 95 -188 124 -51 21 -151 30 -151 15z m166 -59 c24 -14 63 -47 87 -74 66 -73 82 -153 52 -253 -56 -185 -177 -317 -292 -317 -30 0 -29 6 7 60 49 72 87 169 109 278 13 64 14 215 2 240 -26 52 -33 71 -27 81 10 15 11 15 62 -15z" transform="translate(0,82.0) scale(0.1,-0.1)" stroke="none" fill="#627477"/>

<path d="M130 763 c0 -5 14 -32 30 -62 28 -51 30 -61 30 -165 0 -164 -45 -317 -131 -443 -16 -23 -29 -45 -29 -49 0 -4 40 -4 89 -2 163 10 266 83 350 252 68 137 68 254 0 330 -37 43 -117 95 -188 124 -51 21 -151 30 -151 15z m166 -59 c24 -14 63 -47 87 -74 66 -73 82 -153 52 -253 -56 -185 -177 -317 -292 -317 -30 0 -29 6 7 60 49 72 87 169 109 278 13 64 14 215 2 240 -26 52 -33 71 -27 81 10 15 11 15 62 -15z" transform="translate(112.0,82.0) scale(-0.1,-0.1)" stroke="none" fill="#627477"/>

<path d="M130 763 c0 -5 14 -32 30 -62 28 -51 30 -61 30 -165 0 -164 -45 -317 -131 -443 -16 -23 -29 -45 -29 -49 0 -4 40 -4 89 -2 163 10 266 83 350 252 68 137 68 254 0 330 -37 43 -117 95 -188 124 -51 21 -151 30 -151 15z m166 -59 c24 -14 63 -47 87 -74 66 -73 82 -153 52 -253 -56 -185 -177 -317 -292 -317 -30 0 -29 6 7 60 49 72 87 169 109 278 13 64 14 215 2 240 -26 52 -33 71 -27 81 10 15 11 15 62 -15z" transform="translate(0,82.0) scale(0.1,0.1)" stroke="none" fill="#627477"/>

<path d="M130 763 c0 -5 14 -32 30 -62 28 -51 30 -61 30 -165 0 -164 -45 -317 -131 -443 -16 -23 -29 -45 -29 -49 0 -4 40 -4 89 -2 163 10 266 83 350 252 68 137 68 254 0 330 -37 43 -117 95 -188 124 -51 21 -151 30 -151 15z m166 -59 c24 -14 63 -47 87 -74 66 -73 82 -153 52 -253 -56 -185 -177 -317 -292 -317 -30 0 -29 6 7 60 49 72 87 169 109 278 13 64 14 215 2 240 -26 52 -33 71 -27 81 10 15 11 15 62 -15z" transform="translate(112.0,82.0) scale(-0.1,0.1)" stroke="none" fill="#627477"/>

</g>

</g>

</g>
<g id="row3" transform="translate(7,246.0)">
<g id="0" transform="translate(0.0,0)scale(1,1)">

<g transform="matrix(0.5,0,0,0.5,0,0)">

<path d="M130 763 c0 -5 14 -32 30 -62 28 -51 30 -61 30 -165 0 -164 -45 -317 -131 -443 -16 -23 -29 -45 -29 -49 0 -4 40 -4 89 -2 163 10 266 83 350 252 68 137 68 254 0 330 -37 43 -117 95 -188 124 -51 21 -151 30 -151 15z m166 -59 c24 -14 63 -47 87 -74 66 -73 82 -153 52 -253 -56 -185 -177 -317 -292 -317 -30 0 -29 6 7 60 49 72 87 169 109 278 13 64 14 215 2 240 -26 52 -33 71 -27 81 10 15 11 15 62 -15z" transform="translate(0,82.0) scale(0.1,-0.1)" stroke="none" fill="#627477"/>

<path d="M130 763 c0 -5 14 -32 30 -62 28 -51 30 -61 30 -165 0 -164 -45 -317 -131 -443 -16 -23 -29 -45 -29 -49 0 -4 40 -4 89 -2 163 10 266 83 350 252 68 137 68 254 0 330 -37 43 -117 95 -188 124 -51 21 -151 30 -151 15z m166 -59 c24 -14 63 -47 87 -74 66 -73 82 -153 52 -253 -56 -185 -177 -317 -292 -317 -30 0 -29 6 7 60 49 72 87 169 109 278 13 64 14 215 2 240 -26 52 -33 71 -27 81 10 15 11 15 62 -15z" transform="translate(112.0,82.0) scale(-0.1,-0.1)" stroke="none" fill="#627477"/>

<path d="M130 763 c0 -5 14 -32 30 -62 28 -51 30 -61 30 -165 0 -164 -45 -317 -131 -443 -16 -23 -29 -45 -29 -49 0 -4 40 -4 89 -2 163 10 266 83 350 252 68 137 68 254 0 330 -37 43 -117 95 -188 124 -51 21 -151 30 -151 15z m166 -59 c24 -14 63 -47 87 -74 66 -73 82 -153 52 -253 -56 -185 -177 -317 -292 -317 -30 0 -29 6 7 60 49 72 87 169 109 278 13 64 14 215 2 240 -26 52 -33 71 -27 81 10 15 11 15 62 -15z" transform="translate(0,82.0) scale(0.1,0.1)" stroke="none" fill="#627477"/>

<path d="M130 763 c0 -5 14 -32 30 -62 28 -51 30 -61 30 -165 0 -164 -45 -317 -131 -443 -16 -23 -29 -45 -29 -49 0 -4 40 -4 89 -2 163 10 266 83 350 252 68 137 68 254 0 330 -37 43 -117 95 -188 124 -51 21 -151 30 -151 15z m166 -59 c24 -14 63 -47 87 -74 66 -73 82 -153 52 -253 -56 -185 -177 -317 -292 -317 -30 0 -29 6 7 60 49 72 87 169 109 278 13 64 14 215 2 240 -26 52 -33 71 -27 81 10 15 11 15 62 -15z" transform="translate(112.0,82.0) scale(-0.1,0.1)" stroke="none" fill="#627477"/>

</g>

</g>

<g id="1" transform="translate(56.0,0)scale(1,1)">

<g transform="matrix(0.5,0,0,0.5,0,0)">

<path d="M130 763 c0 -5 14 -32 30 -62 28 -51 30 -61 30 -165 0 -164 -45 -317 -131 -443 -16 -23 -29 -45 -29 -49 0 -4 40 -4 89 -2 163 10 266 83 350 252 68 137 68 254 0 330 -37 43 -117 95 -188 124 -51 21 -151 30 -151 15z m166 -59 c24 -14 63 -47 87 -74 66 -73 82 -153 52 -253 -56 -185 -177 -317 -292 -317 -30 0 -29 6 7 60 49 72 87 169 109 278 13 64 14 215 2 240 -26 52 -33 71 -27 81 10 15 11 15 62 -15z" transform="translate(0,82.0) scale(0.1,-0.1)" stroke="none" fill="#627477"/>

<path d="M130 763 c0 -5 14 -32 30 -62 28 -51 30 -61 30 -165 0 -164 -45 -317 -131 -443 -16 -23 -29 -45 -29 -49 0 -4 40 -4 89 -2 163 10 266 83 350 252 68 137 68 254 0 330 -37 43 -117 95 -188 124 -51 21 -151 30 -151 15z m166 -59 c24 -14 63 -47 87 -74 66 -73 82 -153 52 -253 -56 -185 -177 -317 -292 -317 -30 0 -29 6 7 60 49 72 87 169 109 278 13 64 14 215 2 240 -26 52 -33 71 -27 81 10 15 11 15 62 -15z" transform="translate(112.0,82.0) scale(-0.1,-0.1)" stroke="none" fill="#627477"/>

<path d="M130 763 c0 -5 14 -32 30 -62 28 -51 30 -61 30 -165 0 -164 -45 -317 -131 -443 -16 -23 -29 -45 -29 -49 0 -4 40 -4 89 -2 163 10 266 83 350 252 68 137 68 254 0 330 -37 43 -117 95 -188 124 -51 21 -151 30 -151 15z m166 -59 c24 -14 63 -47 87 -74 66 -73 82 -153 52 -253 -56 -185 -177 -317 -292 -317 -30 0 -29 6 7 60 49 72 87 169 109 278 13 64 14 215 2 240 -26 52 -33 71 -27 81 10 15 11 15 62 -15z" transform="translate(0,82.0) scale(0.1,0.1)" stroke="none" fill="#627477"/>

<path d="M130 763 c0 -5 14 -32 30 -62 28 -51 30 -61 30 -165 0 -164 -45 -317 -131 -443 -16 -23 -29 -45 -29 -49 0 -4 40 -4 89 -2 163 10 266 83 350 252 68 137 68 254 0 330 -37 43 -117 95 -188 124 -51 21 -151 30 -151 15z m166 -59 c24 -14 63 -47 87 -74 66 -73 82 -153 52 -253 -56 -185 -177 -317 -292 -317 -30 0 -29 6 7 60 49 72 87 169 109 278 13 64 14 215 2 240 -26 52 -33 71 -27 81 10 15 11 15 62 -15z" transform="translate(112.0,82.0) scale(-0.1,0.1)" stroke="none" fill="#627477"/>

</g>

</g>

<g id="2" transform="translate(112.0,0)scale(1,1)">

<g transform="matrix(0.5,0,0,0.5,0,0)">

<path d="M130 763 c0 -5 14 -32 30 -62 28 -51 30 -61 30 -165 0 -164 -45 -317 -131 -443 -16 -23 -29 -45 -29 -49 0 -4 40 -4 89 -2 163 10 266 83 350 252 68 137 68 254 0 330 -37 43 -117 95 -188 124 -51 21 -151 30 -151 15z m166 -59 c24 -14 63 -47 87 -74 66 -73 82 -153 52 -253 -56 -185 -177 -317 -292 -317 -30 0 -29 6 7 60 49 72 87 169 109 278 13 64 14 215 2 240 -26 52 -33 71 -27 81 10 15 11 15 62 -15z" transform="translate(0,82.0) scale(0.1,-0.1)" stroke="none" fill="#627477"/>

<path d="M130 763 c0 -5 14 -32 30 -62 28 -51 30 -61 30 -165 0 -164 -45 -317 -131 -443 -16 -23 -29 -45 -29 -49 0 -4 40 -4 89 -2 163 10 266 83 350 252 68 137 68 254 0 330 -37 43 -117 95 -188 124 -51 21 -151 30 -151 15z m166 -59 c24 -14 63 -47 87 -74 66 -73 82 -153 52 -253 -56 -185 -177 -317 -292 -317 -30 0 -29 6 7 60 49 72 87 169 109 278 13 64 14 215 2 240 -26 52 -33 71 -27 81 10 15 11 15 62 -15z" transform="translate(112.0,82.0) scale(-0.1,-0.1)" stroke="none" fill="#627477"/>

<path d="M130 763 c0 -5 14 -32 30 -62 28 -51 30 -61 30 -165 0 -164 -45 -317 -131 -443 -16 -23 -29 -45 -29 -49 0 -4 40 -4 89 -2 163 10 266 83 350 252 68 137 68 254 0 330 -37 43 -117 95 -188 124 -51 21 -151 30 -151 15z m166 -59 c24 -14 63 -47 87 -74 66 -73 82 -153 52 -253 -56 -185 -177 -317 -292 -317 -30 0 -29 6 7 60 49 72 87 169 109 278 13 64 14 215 2 240 -26 52 -33 71 -27 81 10 15 11 15 62 -15z" transform="translate(0,82.0) scale(0.1,0.1)" stroke="none" fill="#627477"/>

<path d="M130 763 c0 -5 14 -32 30 -62 28 -51 30 -61 30 -165 0 -164 -45 -317 -131 -443 -16 -23 -29 -45 -29 -49 0 -4 40 -4 89 -2 163 10 266 83 350 252 68 137 68 254 0 330 -37 43 -117 95 -188 124 -51 21 -151 30 -151 15z m166 -59 c24 -14 63 -47 87 -74 66 -73 82 -153 52 -253 -56 -185 -177 -317 -292 -317 -30 0 -29 6 7 60 49 72 87 169 109 278 13 64 14 215 2 240 -26 52 -33 71 -27 81 10 15 11 15 62 -15z" transform="translate(112.0,82.0) scale(-0.1,0.1)" stroke="none" fill="#627477"/>

</g>

</g>

<g id="3" transform="translate(168.0,0)scale(1,1)">

<g transform="matrix(0.5,0,0,0.5,0,0)">

<path d="M130 763 c0 -5 14 -32 30 -62 28 -51 30 -61 30 -165 0 -164 -45 -317 -131 -443 -16 -23 -29 -45 -29 -49 0 -4 40 -4 89 -2 163 10 266 83 350 252 68 137 68 254 0 330 -37 43 -117 95 -188 124 -51 21 -151 30 -151 15z m166 -59 c24 -14 63 -47 87 -74 66 -73 82 -153 52 -253 -56 -185 -177 -317 -292 -317 -30 0 -29 6 7 60 49 72 87 169 109 278 13 64 14 215 2 240 -26 52 -33 71 -27 81 10 15 11 15 62 -15z" transform="translate(0,82.0) scale(0.1,-0.1)" stroke="none" fill="#627477"/>

<path d="M130 763 c0 -5 14 -32 30 -62 28 -51 30 -61 30 -165 0 -164 -45 -317 -131 -443 -16 -23 -29 -45 -29 -49 0 -4 40 -4 89 -2 163 10 266 83 350 252 68 137 68 254 0 330 -37 43 -117 95 -188 124 -51 21 -151 30 -151 15z m166 -59 c24 -14 63 -47 87 -74 66 -73 82 -153 52 -253 -56 -185 -177 -317 -292 -317 -30 0 -29 6 7 60 49 72 87 169 109 278 13 64 14 215 2 240 -26 52 -33 71 -27 81 10 15 11 15 62 -15z" transform="translate(112.0,82.0) scale(-0.1,-0.1)" stroke="none" fill="#627477"/>

<path d="M130 763 c0 -5 14 -32 30 -62 28 -51 30 -61 30 -165 0 -164 -45 -317 -131 -443 -16 -23 -29 -45 -29 -49 0 -4 40 -4 89 -2 163 10 266 83 350 252 68 137 68 254 0 330 -37 43 -117 95 -188 124 -51 21 -151 30 -151 15z m166 -59 c24 -14 63 -47 87 -74 66 -73 82 -153 52 -253 -56 -185 -177 -317 -292 -317 -30 0 -29 6 7 60 49 72 87 169 109 278 13 64 14 215 2 240 -26 52 -33 71 -27 81 10 15 11 15 62 -15z" transform="translate(0,82.0) scale(0.1,0.1)" stroke="none" fill="#627477"/>

<path d="M130 763 c0 -5 14 -32 30 -62 28 -51 30 -61 30 -165 0 -164 -45 -317 -131 -443 -16 -23 -29 -45 -29 -49 0 -4 40 -4 89 -2 163 10 266 83 350 252 68 137 68 254 0 330 -37 43 -117 95 -188 124 -51 21 -151 30 -151 15z m166 -59 c24 -14 63 -47 87 -74 66 -73 82 -153 52 -253 -56 -185 -177 -317 -292 -317 -30 0 -29 6 7 60 49 72 87 169 109 278 13 64 14 215 2 240 -26 52 -33 71 -27 81 10 15 11 15 62 -15z" transform="translate(112.0,82.0) scale(-0.1,0.1)" stroke="none" fill="#627477"/>

</g>

</g>

<g id="4" transform="translate(224.0,0)scale(1,1)">

<g transform="matrix(0.5,0,0,0.5,0,0)">

<path d="M130 763 c0 -5 14 -32 30 -62 28 -51 30 -61 30 -165 0 -164 -45 -317 -131 -443 -16 -23 -29 -45 -29 -49 0 -4 40 -4 89 -2 163 10 266 83 350 252 68 137 68 254 0 330 -37 43 -117 95 -188 124 -51 21 -151 30 -151 15z m166 -59 c24 -14 63 -47 87 -74 66 -73 82 -153 52 -253 -56 -185 -177 -317 -292 -317 -30 0 -29 6 7 60 49 72 87 169 109 278 13 64 14 215 2 240 -26 52 -33 71 -27 81 10 15 11 15 62 -15z" transform="translate(0,82.0) scale(0.1,-0.1)" stroke="none" fill="#627477"/>

<path d="M130 763 c0 -5 14 -32 30 -62 28 -51 30 -61 30 -165 0 -164 -45 -317 -131 -443 -16 -23 -29 -45 -29 -49 0 -4 40 -4 89 -2 163 10 266 83 350 252 68 137 68 254 0 330 -37 43 -117 95 -188 124 -51 21 -151 30 -151 15z m166 -59 c24 -14 63 -47 87 -74 66 -73 82 -153 52 -253 -56 -185 -177 -317 -292 -317 -30 0 -29 6 7 60 49 72 87 169 109 278 13 64 14 215 2 240 -26 52 -33 71 -27 81 10 15 11 15 62 -15z" transform="translate(112.0,82.0) scale(-0.1,-0.1)" stroke="none" fill="#627477"/>

<path d="M130 763 c0 -5 14 -32 30 -62 28 -51 30 -61 30 -165 0 -164 -45 -317 -131 -443 -16 -23 -29 -45 -29 -49 0 -4 40 -4 89 -2 163 10 266 83 350 252 68 137 68 254 0 330 -37 43 -117 95 -188 124 -51 21 -151 30 -151 15z m166 -59 c24 -14 63 -47 87 -74 66 -73 82 -153 52 -253 -56 -185 -177 -317 -292 -317 -30 0 -29 6 7 60 49 72 87 169 109 278 13 64 14 215 2 240 -26 52 -33 71 -27 81 10 15 11 15 62 -15z" transform="translate(0,82.0) scale(0.1,0.1)" stroke="none" fill="#627477"/>

<path d="M130 763 c0 -5 14 -32 30 -62 28 -51 30 -61 30 -165 0 -164 -45 -317 -131 -443 -16 -23 -29 -45 -29 -49 0 -4 40 -4 89 -2 163 10 266 83 350 252 68 137 68 254 0 330 -37 43 -117 95 -188 124 -51 21 -151 30 -151 15z m166 -59 c24 -14 63 -47 87 -74 66 -73 82 -153 52 -253 -56 -185 -177 -317 -292 -317 -30 0 -29 6 7 60 49 72 87 169 109 278 13 64 14 215 2 240 -26 52 -33 71 -27 81 10 15 11 15 62 -15z" transform="translate(112.0,82.0) scale(-0.1,0.1)" stroke="none" fill="#627477"/>

</g>

</g>

</g>
</svg>