<?xml version="1.0" standalone="no"?>
<!DOCTYPE svg PUBLIC "-//W3C//DTD SVG 20010904//EN"
 "http://www.w3.org/TR/2001/REC-SVG-20010904/DTD/svg10.dtd">
<svg version="1.0" xmlns="http://www.w3.org/2000/svg" width="8424pt" height="8424pt" viewBox="0 0 8424 8424" preserveAspectRatio = "xMidYMid meet" >
<metadata>
Created by ZoeQu, written in 2022
</metadata>
<rect width="8424" height="8424" fill="#D8DCC0"/>
<g id="row0" transform="translate(0,0.0)">
<g id="0" transform="translate(0.0,0)scale(0.25,0.25)">

<g id="pattern">
<rect width="9126" height="9126" fill="#D8DCC0"/>
<g id="pattern1" transform="matrix(1,0,0,1,568,568)">
<path d="M515 595 c-37 -21 -41 -29 -57 -91 -26 -109 -24 -174 15 -366 20 -101 48 -69 87 97 15 66 20 121 20 235 0 166 1 164 -65 125z" transform="translate(0.000000,0.000000) scale(1,1)" stroke="none" fill="#A89BB9"/>
<path d="M84 859 c-4 -7 2 -19 14 -30 12 -9 43 -35 69 -58 66 -55 106 -83 191 -131 69 -40 89 -60 57 -60 -8 0 -15 -4 -15 -9 0 -19 25 -17 58 5 18 13 55 33 83 45 27 13 49 26 49 31 0 4 9 8 20 8 11 0 37 7 58 16 71 30 226 84 243 84 9 0 23 7 30 16 12 15 10 16 -21 10 -19 -4 -44 -11 -55 -15 -11 -5 -51 -18 -90 -30 -62 -20 -124 -45 -177 -72 -31 -16 -72 -10 -86 11 -7 11 -19 20 -28 20 -8 0 -27 14 -41 30 -13 17 -31 30 -39 30 -8 0 -27 14 -42 30 -16 17 -36 30 -44 30 -8 0 -18 4 -24 8 -11 10 -89 28 -156 37 -31 4 -49 2 -54 -6z" transform="translate(0.000000,0.000000) scale(1,1)" stroke="none" fill="#A89BB9"/>
</g>
<g id="pattern2" transform="matrix(0.618,0,0,0.618,4324,1270)">
<path d="M515 595 c-37 -21 -41 -29 -57 -91 -26 -109 -24 -174 15 -366 20 -101 48 -69 87 97 15 66 20 121 20 235 0 166 1 164 -65 125z" transform="translate(5728,0.000000) scale(-1,1)" stroke="none" fill="#A89BB9"/>
<path d="M84 859 c-4 -7 2 -19 14 -30 12 -9 43 -35 69 -58 66 -55 106 -83 191 -131 69 -40 89 -60 57 -60 -8 0 -15 -4 -15 -9 0 -19 25 -17 58 5 18 13 55 33 83 45 27 13 49 26 49 31 0 4 9 8 20 8 11 0 37 7 58 16 71 30 226 84 243 84 9 0 23 7 30 16 12 15 10 16 -21 10 -19 -4 -44 -11 -55 -15 -11 -5 -51 -18 -90 -30 -62 -20 -124 -45 -177 -72 -31 -16 -72 -10 -86 11 -7 11 -19 20 -28 20 -8 0 -27 14 -41 30 -13 17 -31 30 -39 30 -8 0 -27 14 -42 30 -16 17 -36 30 -44 30 -8 0 -18 4 -24 8 -11 10 -89 28 -156 37 -31 4 -49 2 -54 -6z" transform="translate(5728,0.000000) scale(-1,1)" stroke="none" fill="#A89BB9"/>
</g>
<g id="pattern3" transform="matrix(0.618,0,0,0.618,1621,5728)matrix(0.71,0.71,-0.71,0.71,0,0)">
<path d="M515 595 c-37 -21 -41 -29 -57 -91 -26 -109 -24 -174 15 -366 20 -101 48 -69 87 97 15 66 20 121 20 235 0 166 1 164 -65 125z" transform="translate(919,-919) scale(1,1)" stroke="none" fill="#A89BB9"/>
<path d="M84 859 c-4 -7 2 -19 14 -30 12 -9 43 -35 69 -58 66 -55 106 -83 191 -131 69 -40 89 -60 57 -60 -8 0 -15 -4 -15 -9 0 -19 25 -17 58 5 18 13 55 33 83 45 27 13 49 26 49 31 0 4 9 8 20 8 11 0 37 7 58 16 71 30 226 84 243 84 9 0 23 7 30 16 12 15 10 16 -21 10 -19 -4 -44 -11 -55 -15 -11 -5 -51 -18 -90 -30 -62 -20 -124 -45 -177 -72 -31 -16 -72 -10 -86 11 -7 11 -19 20 -28 20 -8 0 -27 14 -41 30 -13 17 -31 30 -39 30 -8 0 -27 14 -42 30 -16 17 -36 30 -44 30 -8 0 -18 4 -24 8 -11 10 -89 28 -156 37 -31 4 -49 2 -54 -6z" transform="translate(919,-919) scale(1,1)" stroke="none" fill="#A89BB9"/>
</g>
<g id="pattern4" transform="matrix(1.618,0,0,1.618,2403,2403)matrix(0.87,0.5,-0.5,0.87,0,0)">
<path d="M515 595 c-37 -21 -41 -29 -57 -91 -26 -109 -24 -174 15 -366 20 -101 48 -69 87 97 15 66 20 121 20 235 0 166 1 164 -65 125z" transform="translate(919,-919) scale(1,1)" stroke="none" fill="#A89BB9"/>
<path d="M84 859 c-4 -7 2 -19 14 -30 12 -9 43 -35 69 -58 66 -55 106 -83 191 -131 69 -40 89 -60 57 -60 -8 0 -15 -4 -15 -9 0 -19 25 -17 58 5 18 13 55 33 83 45 27 13 49 26 49 31 0 4 9 8 20 8 11 0 37 7 58 16 71 30 226 84 243 84 9 0 23 7 30 16 12 15 10 16 -21 10 -19 -4 -44 -11 -55 -15 -11 -5 -51 -18 -90 -30 -62 -20 -124 -45 -177 -72 -31 -16 -72 -10 -86 11 -7 11 -19 20 -28 20 -8 0 -27 14 -41 30 -13 17 -31 30 -39 30 -8 0 -27 14 -42 30 -16 17 -36 30 -44 30 -8 0 -18 4 -24 8 -11 10 -89 28 -156 37 -31 4 -49 2 -54 -6z" transform="translate(919,-919) scale(1,1)" stroke="none" fill="#A89BB9"/>
</g>
</g>
</g>

<g id="1" transform="translate(2106.0,0)scale(0.25,0.25)">

<g id="pattern">
<rect width="9126" height="9126" fill="#D8DCC0"/>
<g id="pattern1" transform="matrix(1,0,0,1,568,568)">
<path d="M515 595 c-37 -21 -41 -29 -57 -91 -26 -109 -24 -174 15 -366 20 -101 48 -69 87 97 15 66 20 121 20 235 0 166 1 164 -65 125z" transform="translate(0.000000,0.000000) scale(1,1)" stroke="none" fill="#A89BB9"/>
<path d="M84 859 c-4 -7 2 -19 14 -30 12 -9 43 -35 69 -58 66 -55 106 -83 191 -131 69 -40 89 -60 57 -60 -8 0 -15 -4 -15 -9 0 -19 25 -17 58 5 18 13 55 33 83 45 27 13 49 26 49 31 0 4 9 8 20 8 11 0 37 7 58 16 71 30 226 84 243 84 9 0 23 7 30 16 12 15 10 16 -21 10 -19 -4 -44 -11 -55 -15 -11 -5 -51 -18 -90 -30 -62 -20 -124 -45 -177 -72 -31 -16 -72 -10 -86 11 -7 11 -19 20 -28 20 -8 0 -27 14 -41 30 -13 17 -31 30 -39 30 -8 0 -27 14 -42 30 -16 17 -36 30 -44 30 -8 0 -18 4 -24 8 -11 10 -89 28 -156 37 -31 4 -49 2 -54 -6z" transform="translate(0.000000,0.000000) scale(1,1)" stroke="none" fill="#A89BB9"/>
</g>
<g id="pattern2" transform="matrix(0.618,0,0,0.618,4324,1270)">
<path d="M515 595 c-37 -21 -41 -29 -57 -91 -26 -109 -24 -174 15 -366 20 -101 48 -69 87 97 15 66 20 121 20 235 0 166 1 164 -65 125z" transform="translate(5728,0.000000) scale(-1,1)" stroke="none" fill="#A89BB9"/>
<path d="M84 859 c-4 -7 2 -19 14 -30 12 -9 43 -35 69 -58 66 -55 106 -83 191 -131 69 -40 89 -60 57 -60 -8 0 -15 -4 -15 -9 0 -19 25 -17 58 5 18 13 55 33 83 45 27 13 49 26 49 31 0 4 9 8 20 8 11 0 37 7 58 16 71 30 226 84 243 84 9 0 23 7 30 16 12 15 10 16 -21 10 -19 -4 -44 -11 -55 -15 -11 -5 -51 -18 -90 -30 -62 -20 -124 -45 -177 -72 -31 -16 -72 -10 -86 11 -7 11 -19 20 -28 20 -8 0 -27 14 -41 30 -13 17 -31 30 -39 30 -8 0 -27 14 -42 30 -16 17 -36 30 -44 30 -8 0 -18 4 -24 8 -11 10 -89 28 -156 37 -31 4 -49 2 -54 -6z" transform="translate(5728,0.000000) scale(-1,1)" stroke="none" fill="#A89BB9"/>
</g>
<g id="pattern3" transform="matrix(0.618,0,0,0.618,1621,5728)matrix(0.71,0.71,-0.71,0.71,0,0)">
<path d="M515 595 c-37 -21 -41 -29 -57 -91 -26 -109 -24 -174 15 -366 20 -101 48 -69 87 97 15 66 20 121 20 235 0 166 1 164 -65 125z" transform="translate(919,-919) scale(1,1)" stroke="none" fill="#A89BB9"/>
<path d="M84 859 c-4 -7 2 -19 14 -30 12 -9 43 -35 69 -58 66 -55 106 -83 191 -131 69 -40 89 -60 57 -60 -8 0 -15 -4 -15 -9 0 -19 25 -17 58 5 18 13 55 33 83 45 27 13 49 26 49 31 0 4 9 8 20 8 11 0 37 7 58 16 71 30 226 84 243 84 9 0 23 7 30 16 12 15 10 16 -21 10 -19 -4 -44 -11 -55 -15 -11 -5 -51 -18 -90 -30 -62 -20 -124 -45 -177 -72 -31 -16 -72 -10 -86 11 -7 11 -19 20 -28 20 -8 0 -27 14 -41 30 -13 17 -31 30 -39 30 -8 0 -27 14 -42 30 -16 17 -36 30 -44 30 -8 0 -18 4 -24 8 -11 10 -89 28 -156 37 -31 4 -49 2 -54 -6z" transform="translate(919,-919) scale(1,1)" stroke="none" fill="#A89BB9"/>
</g>
<g id="pattern4" transform="matrix(1.618,0,0,1.618,2403,2403)matrix(0.87,0.5,-0.5,0.87,0,0)">
<path d="M515 595 c-37 -21 -41 -29 -57 -91 -26 -109 -24 -174 15 -366 20 -101 48 -69 87 97 15 66 20 121 20 235 0 166 1 164 -65 125z" transform="translate(919,-919) scale(1,1)" stroke="none" fill="#A89BB9"/>
<path d="M84 859 c-4 -7 2 -19 14 -30 12 -9 43 -35 69 -58 66 -55 106 -83 191 -131 69 -40 89 -60 57 -60 -8 0 -15 -4 -15 -9 0 -19 25 -17 58 5 18 13 55 33 83 45 27 13 49 26 49 31 0 4 9 8 20 8 11 0 37 7 58 16 71 30 226 84 243 84 9 0 23 7 30 16 12 15 10 16 -21 10 -19 -4 -44 -11 -55 -15 -11 -5 -51 -18 -90 -30 -62 -20 -124 -45 -177 -72 -31 -16 -72 -10 -86 11 -7 11 -19 20 -28 20 -8 0 -27 14 -41 30 -13 17 -31 30 -39 30 -8 0 -27 14 -42 30 -16 17 -36 30 -44 30 -8 0 -18 4 -24 8 -11 10 -89 28 -156 37 -31 4 -49 2 -54 -6z" transform="translate(919,-919) scale(1,1)" stroke="none" fill="#A89BB9"/>
</g>
</g>
</g>

<g id="2" transform="translate(4212.0,0)scale(0.25,0.25)">

<g id="pattern">
<rect width="9126" height="9126" fill="#D8DCC0"/>
<g id="pattern1" transform="matrix(1,0,0,1,568,568)">
<path d="M515 595 c-37 -21 -41 -29 -57 -91 -26 -109 -24 -174 15 -366 20 -101 48 -69 87 97 15 66 20 121 20 235 0 166 1 164 -65 125z" transform="translate(0.000000,0.000000) scale(1,1)" stroke="none" fill="#A89BB9"/>
<path d="M84 859 c-4 -7 2 -19 14 -30 12 -9 43 -35 69 -58 66 -55 106 -83 191 -131 69 -40 89 -60 57 -60 -8 0 -15 -4 -15 -9 0 -19 25 -17 58 5 18 13 55 33 83 45 27 13 49 26 49 31 0 4 9 8 20 8 11 0 37 7 58 16 71 30 226 84 243 84 9 0 23 7 30 16 12 15 10 16 -21 10 -19 -4 -44 -11 -55 -15 -11 -5 -51 -18 -90 -30 -62 -20 -124 -45 -177 -72 -31 -16 -72 -10 -86 11 -7 11 -19 20 -28 20 -8 0 -27 14 -41 30 -13 17 -31 30 -39 30 -8 0 -27 14 -42 30 -16 17 -36 30 -44 30 -8 0 -18 4 -24 8 -11 10 -89 28 -156 37 -31 4 -49 2 -54 -6z" transform="translate(0.000000,0.000000) scale(1,1)" stroke="none" fill="#A89BB9"/>
</g>
<g id="pattern2" transform="matrix(0.618,0,0,0.618,4324,1270)">
<path d="M515 595 c-37 -21 -41 -29 -57 -91 -26 -109 -24 -174 15 -366 20 -101 48 -69 87 97 15 66 20 121 20 235 0 166 1 164 -65 125z" transform="translate(5728,0.000000) scale(-1,1)" stroke="none" fill="#A89BB9"/>
<path d="M84 859 c-4 -7 2 -19 14 -30 12 -9 43 -35 69 -58 66 -55 106 -83 191 -131 69 -40 89 -60 57 -60 -8 0 -15 -4 -15 -9 0 -19 25 -17 58 5 18 13 55 33 83 45 27 13 49 26 49 31 0 4 9 8 20 8 11 0 37 7 58 16 71 30 226 84 243 84 9 0 23 7 30 16 12 15 10 16 -21 10 -19 -4 -44 -11 -55 -15 -11 -5 -51 -18 -90 -30 -62 -20 -124 -45 -177 -72 -31 -16 -72 -10 -86 11 -7 11 -19 20 -28 20 -8 0 -27 14 -41 30 -13 17 -31 30 -39 30 -8 0 -27 14 -42 30 -16 17 -36 30 -44 30 -8 0 -18 4 -24 8 -11 10 -89 28 -156 37 -31 4 -49 2 -54 -6z" transform="translate(5728,0.000000) scale(-1,1)" stroke="none" fill="#A89BB9"/>
</g>
<g id="pattern3" transform="matrix(0.618,0,0,0.618,1621,5728)matrix(0.71,0.71,-0.71,0.71,0,0)">
<path d="M515 595 c-37 -21 -41 -29 -57 -91 -26 -109 -24 -174 15 -366 20 -101 48 -69 87 97 15 66 20 121 20 235 0 166 1 164 -65 125z" transform="translate(919,-919) scale(1,1)" stroke="none" fill="#A89BB9"/>
<path d="M84 859 c-4 -7 2 -19 14 -30 12 -9 43 -35 69 -58 66 -55 106 -83 191 -131 69 -40 89 -60 57 -60 -8 0 -15 -4 -15 -9 0 -19 25 -17 58 5 18 13 55 33 83 45 27 13 49 26 49 31 0 4 9 8 20 8 11 0 37 7 58 16 71 30 226 84 243 84 9 0 23 7 30 16 12 15 10 16 -21 10 -19 -4 -44 -11 -55 -15 -11 -5 -51 -18 -90 -30 -62 -20 -124 -45 -177 -72 -31 -16 -72 -10 -86 11 -7 11 -19 20 -28 20 -8 0 -27 14 -41 30 -13 17 -31 30 -39 30 -8 0 -27 14 -42 30 -16 17 -36 30 -44 30 -8 0 -18 4 -24 8 -11 10 -89 28 -156 37 -31 4 -49 2 -54 -6z" transform="translate(919,-919) scale(1,1)" stroke="none" fill="#A89BB9"/>
</g>
<g id="pattern4" transform="matrix(1.618,0,0,1.618,2403,2403)matrix(0.87,0.5,-0.5,0.87,0,0)">
<path d="M515 595 c-37 -21 -41 -29 -57 -91 -26 -109 -24 -174 15 -366 20 -101 48 -69 87 97 15 66 20 121 20 235 0 166 1 164 -65 125z" transform="translate(919,-919) scale(1,1)" stroke="none" fill="#A89BB9"/>
<path d="M84 859 c-4 -7 2 -19 14 -30 12 -9 43 -35 69 -58 66 -55 106 -83 191 -131 69 -40 89 -60 57 -60 -8 0 -15 -4 -15 -9 0 -19 25 -17 58 5 18 13 55 33 83 45 27 13 49 26 49 31 0 4 9 8 20 8 11 0 37 7 58 16 71 30 226 84 243 84 9 0 23 7 30 16 12 15 10 16 -21 10 -19 -4 -44 -11 -55 -15 -11 -5 -51 -18 -90 -30 -62 -20 -124 -45 -177 -72 -31 -16 -72 -10 -86 11 -7 11 -19 20 -28 20 -8 0 -27 14 -41 30 -13 17 -31 30 -39 30 -8 0 -27 14 -42 30 -16 17 -36 30 -44 30 -8 0 -18 4 -24 8 -11 10 -89 28 -156 37 -31 4 -49 2 -54 -6z" transform="translate(919,-919) scale(1,1)" stroke="none" fill="#A89BB9"/>
</g>
</g>
</g>

<g id="3" transform="translate(6318.0,0)scale(0.25,0.25)">

<g id="pattern">
<rect width="9126" height="9126" fill="#D8DCC0"/>
<g id="pattern1" transform="matrix(1,0,0,1,568,568)">
<path d="M515 595 c-37 -21 -41 -29 -57 -91 -26 -109 -24 -174 15 -366 20 -101 48 -69 87 97 15 66 20 121 20 235 0 166 1 164 -65 125z" transform="translate(0.000000,0.000000) scale(1,1)" stroke="none" fill="#A89BB9"/>
<path d="M84 859 c-4 -7 2 -19 14 -30 12 -9 43 -35 69 -58 66 -55 106 -83 191 -131 69 -40 89 -60 57 -60 -8 0 -15 -4 -15 -9 0 -19 25 -17 58 5 18 13 55 33 83 45 27 13 49 26 49 31 0 4 9 8 20 8 11 0 37 7 58 16 71 30 226 84 243 84 9 0 23 7 30 16 12 15 10 16 -21 10 -19 -4 -44 -11 -55 -15 -11 -5 -51 -18 -90 -30 -62 -20 -124 -45 -177 -72 -31 -16 -72 -10 -86 11 -7 11 -19 20 -28 20 -8 0 -27 14 -41 30 -13 17 -31 30 -39 30 -8 0 -27 14 -42 30 -16 17 -36 30 -44 30 -8 0 -18 4 -24 8 -11 10 -89 28 -156 37 -31 4 -49 2 -54 -6z" transform="translate(0.000000,0.000000) scale(1,1)" stroke="none" fill="#A89BB9"/>
</g>
<g id="pattern2" transform="matrix(0.618,0,0,0.618,4324,1270)">
<path d="M515 595 c-37 -21 -41 -29 -57 -91 -26 -109 -24 -174 15 -366 20 -101 48 -69 87 97 15 66 20 121 20 235 0 166 1 164 -65 125z" transform="translate(5728,0.000000) scale(-1,1)" stroke="none" fill="#A89BB9"/>
<path d="M84 859 c-4 -7 2 -19 14 -30 12 -9 43 -35 69 -58 66 -55 106 -83 191 -131 69 -40 89 -60 57 -60 -8 0 -15 -4 -15 -9 0 -19 25 -17 58 5 18 13 55 33 83 45 27 13 49 26 49 31 0 4 9 8 20 8 11 0 37 7 58 16 71 30 226 84 243 84 9 0 23 7 30 16 12 15 10 16 -21 10 -19 -4 -44 -11 -55 -15 -11 -5 -51 -18 -90 -30 -62 -20 -124 -45 -177 -72 -31 -16 -72 -10 -86 11 -7 11 -19 20 -28 20 -8 0 -27 14 -41 30 -13 17 -31 30 -39 30 -8 0 -27 14 -42 30 -16 17 -36 30 -44 30 -8 0 -18 4 -24 8 -11 10 -89 28 -156 37 -31 4 -49 2 -54 -6z" transform="translate(5728,0.000000) scale(-1,1)" stroke="none" fill="#A89BB9"/>
</g>
<g id="pattern3" transform="matrix(0.618,0,0,0.618,1621,5728)matrix(0.71,0.71,-0.71,0.71,0,0)">
<path d="M515 595 c-37 -21 -41 -29 -57 -91 -26 -109 -24 -174 15 -366 20 -101 48 -69 87 97 15 66 20 121 20 235 0 166 1 164 -65 125z" transform="translate(919,-919) scale(1,1)" stroke="none" fill="#A89BB9"/>
<path d="M84 859 c-4 -7 2 -19 14 -30 12 -9 43 -35 69 -58 66 -55 106 -83 191 -131 69 -40 89 -60 57 -60 -8 0 -15 -4 -15 -9 0 -19 25 -17 58 5 18 13 55 33 83 45 27 13 49 26 49 31 0 4 9 8 20 8 11 0 37 7 58 16 71 30 226 84 243 84 9 0 23 7 30 16 12 15 10 16 -21 10 -19 -4 -44 -11 -55 -15 -11 -5 -51 -18 -90 -30 -62 -20 -124 -45 -177 -72 -31 -16 -72 -10 -86 11 -7 11 -19 20 -28 20 -8 0 -27 14 -41 30 -13 17 -31 30 -39 30 -8 0 -27 14 -42 30 -16 17 -36 30 -44 30 -8 0 -18 4 -24 8 -11 10 -89 28 -156 37 -31 4 -49 2 -54 -6z" transform="translate(919,-919) scale(1,1)" stroke="none" fill="#A89BB9"/>
</g>
<g id="pattern4" transform="matrix(1.618,0,0,1.618,2403,2403)matrix(0.87,0.5,-0.5,0.87,0,0)">
<path d="M515 595 c-37 -21 -41 -29 -57 -91 -26 -109 -24 -174 15 -366 20 -101 48 -69 87 97 15 66 20 121 20 235 0 166 1 164 -65 125z" transform="translate(919,-919) scale(1,1)" stroke="none" fill="#A89BB9"/>
<path d="M84 859 c-4 -7 2 -19 14 -30 12 -9 43 -35 69 -58 66 -55 106 -83 191 -131 69 -40 89 -60 57 -60 -8 0 -15 -4 -15 -9 0 -19 25 -17 58 5 18 13 55 33 83 45 27 13 49 26 49 31 0 4 9 8 20 8 11 0 37 7 58 16 71 30 226 84 243 84 9 0 23 7 30 16 12 15 10 16 -21 10 -19 -4 -44 -11 -55 -15 -11 -5 -51 -18 -90 -30 -62 -20 -124 -45 -177 -72 -31 -16 -72 -10 -86 11 -7 11 -19 20 -28 20 -8 0 -27 14 -41 30 -13 17 -31 30 -39 30 -8 0 -27 14 -42 30 -16 17 -36 30 -44 30 -8 0 -18 4 -24 8 -11 10 -89 28 -156 37 -31 4 -49 2 -54 -6z" transform="translate(919,-919) scale(1,1)" stroke="none" fill="#A89BB9"/>
</g>
</g>
</g>

<g id="4" transform="translate(8424.0,0)scale(0.25,0.25)">

<g id="pattern">
<rect width="9126" height="9126" fill="#D8DCC0"/>
<g id="pattern1" transform="matrix(1,0,0,1,568,568)">
<path d="M515 595 c-37 -21 -41 -29 -57 -91 -26 -109 -24 -174 15 -366 20 -101 48 -69 87 97 15 66 20 121 20 235 0 166 1 164 -65 125z" transform="translate(0.000000,0.000000) scale(1,1)" stroke="none" fill="#A89BB9"/>
<path d="M84 859 c-4 -7 2 -19 14 -30 12 -9 43 -35 69 -58 66 -55 106 -83 191 -131 69 -40 89 -60 57 -60 -8 0 -15 -4 -15 -9 0 -19 25 -17 58 5 18 13 55 33 83 45 27 13 49 26 49 31 0 4 9 8 20 8 11 0 37 7 58 16 71 30 226 84 243 84 9 0 23 7 30 16 12 15 10 16 -21 10 -19 -4 -44 -11 -55 -15 -11 -5 -51 -18 -90 -30 -62 -20 -124 -45 -177 -72 -31 -16 -72 -10 -86 11 -7 11 -19 20 -28 20 -8 0 -27 14 -41 30 -13 17 -31 30 -39 30 -8 0 -27 14 -42 30 -16 17 -36 30 -44 30 -8 0 -18 4 -24 8 -11 10 -89 28 -156 37 -31 4 -49 2 -54 -6z" transform="translate(0.000000,0.000000) scale(1,1)" stroke="none" fill="#A89BB9"/>
</g>
<g id="pattern2" transform="matrix(0.618,0,0,0.618,4324,1270)">
<path d="M515 595 c-37 -21 -41 -29 -57 -91 -26 -109 -24 -174 15 -366 20 -101 48 -69 87 97 15 66 20 121 20 235 0 166 1 164 -65 125z" transform="translate(5728,0.000000) scale(-1,1)" stroke="none" fill="#A89BB9"/>
<path d="M84 859 c-4 -7 2 -19 14 -30 12 -9 43 -35 69 -58 66 -55 106 -83 191 -131 69 -40 89 -60 57 -60 -8 0 -15 -4 -15 -9 0 -19 25 -17 58 5 18 13 55 33 83 45 27 13 49 26 49 31 0 4 9 8 20 8 11 0 37 7 58 16 71 30 226 84 243 84 9 0 23 7 30 16 12 15 10 16 -21 10 -19 -4 -44 -11 -55 -15 -11 -5 -51 -18 -90 -30 -62 -20 -124 -45 -177 -72 -31 -16 -72 -10 -86 11 -7 11 -19 20 -28 20 -8 0 -27 14 -41 30 -13 17 -31 30 -39 30 -8 0 -27 14 -42 30 -16 17 -36 30 -44 30 -8 0 -18 4 -24 8 -11 10 -89 28 -156 37 -31 4 -49 2 -54 -6z" transform="translate(5728,0.000000) scale(-1,1)" stroke="none" fill="#A89BB9"/>
</g>
<g id="pattern3" transform="matrix(0.618,0,0,0.618,1621,5728)matrix(0.71,0.71,-0.71,0.71,0,0)">
<path d="M515 595 c-37 -21 -41 -29 -57 -91 -26 -109 -24 -174 15 -366 20 -101 48 -69 87 97 15 66 20 121 20 235 0 166 1 164 -65 125z" transform="translate(919,-919) scale(1,1)" stroke="none" fill="#A89BB9"/>
<path d="M84 859 c-4 -7 2 -19 14 -30 12 -9 43 -35 69 -58 66 -55 106 -83 191 -131 69 -40 89 -60 57 -60 -8 0 -15 -4 -15 -9 0 -19 25 -17 58 5 18 13 55 33 83 45 27 13 49 26 49 31 0 4 9 8 20 8 11 0 37 7 58 16 71 30 226 84 243 84 9 0 23 7 30 16 12 15 10 16 -21 10 -19 -4 -44 -11 -55 -15 -11 -5 -51 -18 -90 -30 -62 -20 -124 -45 -177 -72 -31 -16 -72 -10 -86 11 -7 11 -19 20 -28 20 -8 0 -27 14 -41 30 -13 17 -31 30 -39 30 -8 0 -27 14 -42 30 -16 17 -36 30 -44 30 -8 0 -18 4 -24 8 -11 10 -89 28 -156 37 -31 4 -49 2 -54 -6z" transform="translate(919,-919) scale(1,1)" stroke="none" fill="#A89BB9"/>
</g>
<g id="pattern4" transform="matrix(1.618,0,0,1.618,2403,2403)matrix(0.87,0.5,-0.5,0.87,0,0)">
<path d="M515 595 c-37 -21 -41 -29 -57 -91 -26 -109 -24 -174 15 -366 20 -101 48 -69 87 97 15 66 20 121 20 235 0 166 1 164 -65 125z" transform="translate(919,-919) scale(1,1)" stroke="none" fill="#A89BB9"/>
<path d="M84 859 c-4 -7 2 -19 14 -30 12 -9 43 -35 69 -58 66 -55 106 -83 191 -131 69 -40 89 -60 57 -60 -8 0 -15 -4 -15 -9 0 -19 25 -17 58 5 18 13 55 33 83 45 27 13 49 26 49 31 0 4 9 8 20 8 11 0 37 7 58 16 71 30 226 84 243 84 9 0 23 7 30 16 12 15 10 16 -21 10 -19 -4 -44 -11 -55 -15 -11 -5 -51 -18 -90 -30 -62 -20 -124 -45 -177 -72 -31 -16 -72 -10 -86 11 -7 11 -19 20 -28 20 -8 0 -27 14 -41 30 -13 17 -31 30 -39 30 -8 0 -27 14 -42 30 -16 17 -36 30 -44 30 -8 0 -18 4 -24 8 -11 10 -89 28 -156 37 -31 4 -49 2 -54 -6z" transform="translate(919,-919) scale(1,1)" stroke="none" fill="#A89BB9"/>
</g>
</g>
</g>

</g>
<g id="row1" transform="translate(0,2106.0)">
<g id="0" transform="translate(0.0,0)scale(0.25,0.25)">

<g id="pattern">
<rect width="9126" height="9126" fill="#D8DCC0"/>
<g id="pattern1" transform="matrix(1,0,0,1,568,568)">
<path d="M515 595 c-37 -21 -41 -29 -57 -91 -26 -109 -24 -174 15 -366 20 -101 48 -69 87 97 15 66 20 121 20 235 0 166 1 164 -65 125z" transform="translate(0.000000,0.000000) scale(1,1)" stroke="none" fill="#A89BB9"/>
<path d="M84 859 c-4 -7 2 -19 14 -30 12 -9 43 -35 69 -58 66 -55 106 -83 191 -131 69 -40 89 -60 57 -60 -8 0 -15 -4 -15 -9 0 -19 25 -17 58 5 18 13 55 33 83 45 27 13 49 26 49 31 0 4 9 8 20 8 11 0 37 7 58 16 71 30 226 84 243 84 9 0 23 7 30 16 12 15 10 16 -21 10 -19 -4 -44 -11 -55 -15 -11 -5 -51 -18 -90 -30 -62 -20 -124 -45 -177 -72 -31 -16 -72 -10 -86 11 -7 11 -19 20 -28 20 -8 0 -27 14 -41 30 -13 17 -31 30 -39 30 -8 0 -27 14 -42 30 -16 17 -36 30 -44 30 -8 0 -18 4 -24 8 -11 10 -89 28 -156 37 -31 4 -49 2 -54 -6z" transform="translate(0.000000,0.000000) scale(1,1)" stroke="none" fill="#A89BB9"/>
</g>
<g id="pattern2" transform="matrix(0.618,0,0,0.618,4324,1270)">
<path d="M515 595 c-37 -21 -41 -29 -57 -91 -26 -109 -24 -174 15 -366 20 -101 48 -69 87 97 15 66 20 121 20 235 0 166 1 164 -65 125z" transform="translate(5728,0.000000) scale(-1,1)" stroke="none" fill="#A89BB9"/>
<path d="M84 859 c-4 -7 2 -19 14 -30 12 -9 43 -35 69 -58 66 -55 106 -83 191 -131 69 -40 89 -60 57 -60 -8 0 -15 -4 -15 -9 0 -19 25 -17 58 5 18 13 55 33 83 45 27 13 49 26 49 31 0 4 9 8 20 8 11 0 37 7 58 16 71 30 226 84 243 84 9 0 23 7 30 16 12 15 10 16 -21 10 -19 -4 -44 -11 -55 -15 -11 -5 -51 -18 -90 -30 -62 -20 -124 -45 -177 -72 -31 -16 -72 -10 -86 11 -7 11 -19 20 -28 20 -8 0 -27 14 -41 30 -13 17 -31 30 -39 30 -8 0 -27 14 -42 30 -16 17 -36 30 -44 30 -8 0 -18 4 -24 8 -11 10 -89 28 -156 37 -31 4 -49 2 -54 -6z" transform="translate(5728,0.000000) scale(-1,1)" stroke="none" fill="#A89BB9"/>
</g>
<g id="pattern3" transform="matrix(0.618,0,0,0.618,1621,5728)matrix(0.71,0.71,-0.71,0.71,0,0)">
<path d="M515 595 c-37 -21 -41 -29 -57 -91 -26 -109 -24 -174 15 -366 20 -101 48 -69 87 97 15 66 20 121 20 235 0 166 1 164 -65 125z" transform="translate(919,-919) scale(1,1)" stroke="none" fill="#A89BB9"/>
<path d="M84 859 c-4 -7 2 -19 14 -30 12 -9 43 -35 69 -58 66 -55 106 -83 191 -131 69 -40 89 -60 57 -60 -8 0 -15 -4 -15 -9 0 -19 25 -17 58 5 18 13 55 33 83 45 27 13 49 26 49 31 0 4 9 8 20 8 11 0 37 7 58 16 71 30 226 84 243 84 9 0 23 7 30 16 12 15 10 16 -21 10 -19 -4 -44 -11 -55 -15 -11 -5 -51 -18 -90 -30 -62 -20 -124 -45 -177 -72 -31 -16 -72 -10 -86 11 -7 11 -19 20 -28 20 -8 0 -27 14 -41 30 -13 17 -31 30 -39 30 -8 0 -27 14 -42 30 -16 17 -36 30 -44 30 -8 0 -18 4 -24 8 -11 10 -89 28 -156 37 -31 4 -49 2 -54 -6z" transform="translate(919,-919) scale(1,1)" stroke="none" fill="#A89BB9"/>
</g>
<g id="pattern4" transform="matrix(1.618,0,0,1.618,2403,2403)matrix(0.87,0.5,-0.5,0.87,0,0)">
<path d="M515 595 c-37 -21 -41 -29 -57 -91 -26 -109 -24 -174 15 -366 20 -101 48 -69 87 97 15 66 20 121 20 235 0 166 1 164 -65 125z" transform="translate(919,-919) scale(1,1)" stroke="none" fill="#A89BB9"/>
<path d="M84 859 c-4 -7 2 -19 14 -30 12 -9 43 -35 69 -58 66 -55 106 -83 191 -131 69 -40 89 -60 57 -60 -8 0 -15 -4 -15 -9 0 -19 25 -17 58 5 18 13 55 33 83 45 27 13 49 26 49 31 0 4 9 8 20 8 11 0 37 7 58 16 71 30 226 84 243 84 9 0 23 7 30 16 12 15 10 16 -21 10 -19 -4 -44 -11 -55 -15 -11 -5 -51 -18 -90 -30 -62 -20 -124 -45 -177 -72 -31 -16 -72 -10 -86 11 -7 11 -19 20 -28 20 -8 0 -27 14 -41 30 -13 17 -31 30 -39 30 -8 0 -27 14 -42 30 -16 17 -36 30 -44 30 -8 0 -18 4 -24 8 -11 10 -89 28 -156 37 -31 4 -49 2 -54 -6z" transform="translate(919,-919) scale(1,1)" stroke="none" fill="#A89BB9"/>
</g>
</g>
</g>

<g id="1" transform="translate(2106.0,0)scale(0.25,0.25)">

<g id="pattern">
<rect width="9126" height="9126" fill="#D8DCC0"/>
<g id="pattern1" transform="matrix(1,0,0,1,568,568)">
<path d="M515 595 c-37 -21 -41 -29 -57 -91 -26 -109 -24 -174 15 -366 20 -101 48 -69 87 97 15 66 20 121 20 235 0 166 1 164 -65 125z" transform="translate(0.000000,0.000000) scale(1,1)" stroke="none" fill="#A89BB9"/>
<path d="M84 859 c-4 -7 2 -19 14 -30 12 -9 43 -35 69 -58 66 -55 106 -83 191 -131 69 -40 89 -60 57 -60 -8 0 -15 -4 -15 -9 0 -19 25 -17 58 5 18 13 55 33 83 45 27 13 49 26 49 31 0 4 9 8 20 8 11 0 37 7 58 16 71 30 226 84 243 84 9 0 23 7 30 16 12 15 10 16 -21 10 -19 -4 -44 -11 -55 -15 -11 -5 -51 -18 -90 -30 -62 -20 -124 -45 -177 -72 -31 -16 -72 -10 -86 11 -7 11 -19 20 -28 20 -8 0 -27 14 -41 30 -13 17 -31 30 -39 30 -8 0 -27 14 -42 30 -16 17 -36 30 -44 30 -8 0 -18 4 -24 8 -11 10 -89 28 -156 37 -31 4 -49 2 -54 -6z" transform="translate(0.000000,0.000000) scale(1,1)" stroke="none" fill="#A89BB9"/>
</g>
<g id="pattern2" transform="matrix(0.618,0,0,0.618,4324,1270)">
<path d="M515 595 c-37 -21 -41 -29 -57 -91 -26 -109 -24 -174 15 -366 20 -101 48 -69 87 97 15 66 20 121 20 235 0 166 1 164 -65 125z" transform="translate(5728,0.000000) scale(-1,1)" stroke="none" fill="#A89BB9"/>
<path d="M84 859 c-4 -7 2 -19 14 -30 12 -9 43 -35 69 -58 66 -55 106 -83 191 -131 69 -40 89 -60 57 -60 -8 0 -15 -4 -15 -9 0 -19 25 -17 58 5 18 13 55 33 83 45 27 13 49 26 49 31 0 4 9 8 20 8 11 0 37 7 58 16 71 30 226 84 243 84 9 0 23 7 30 16 12 15 10 16 -21 10 -19 -4 -44 -11 -55 -15 -11 -5 -51 -18 -90 -30 -62 -20 -124 -45 -177 -72 -31 -16 -72 -10 -86 11 -7 11 -19 20 -28 20 -8 0 -27 14 -41 30 -13 17 -31 30 -39 30 -8 0 -27 14 -42 30 -16 17 -36 30 -44 30 -8 0 -18 4 -24 8 -11 10 -89 28 -156 37 -31 4 -49 2 -54 -6z" transform="translate(5728,0.000000) scale(-1,1)" stroke="none" fill="#A89BB9"/>
</g>
<g id="pattern3" transform="matrix(0.618,0,0,0.618,1621,5728)matrix(0.71,0.71,-0.71,0.71,0,0)">
<path d="M515 595 c-37 -21 -41 -29 -57 -91 -26 -109 -24 -174 15 -366 20 -101 48 -69 87 97 15 66 20 121 20 235 0 166 1 164 -65 125z" transform="translate(919,-919) scale(1,1)" stroke="none" fill="#A89BB9"/>
<path d="M84 859 c-4 -7 2 -19 14 -30 12 -9 43 -35 69 -58 66 -55 106 -83 191 -131 69 -40 89 -60 57 -60 -8 0 -15 -4 -15 -9 0 -19 25 -17 58 5 18 13 55 33 83 45 27 13 49 26 49 31 0 4 9 8 20 8 11 0 37 7 58 16 71 30 226 84 243 84 9 0 23 7 30 16 12 15 10 16 -21 10 -19 -4 -44 -11 -55 -15 -11 -5 -51 -18 -90 -30 -62 -20 -124 -45 -177 -72 -31 -16 -72 -10 -86 11 -7 11 -19 20 -28 20 -8 0 -27 14 -41 30 -13 17 -31 30 -39 30 -8 0 -27 14 -42 30 -16 17 -36 30 -44 30 -8 0 -18 4 -24 8 -11 10 -89 28 -156 37 -31 4 -49 2 -54 -6z" transform="translate(919,-919) scale(1,1)" stroke="none" fill="#A89BB9"/>
</g>
<g id="pattern4" transform="matrix(1.618,0,0,1.618,2403,2403)matrix(0.87,0.5,-0.5,0.87,0,0)">
<path d="M515 595 c-37 -21 -41 -29 -57 -91 -26 -109 -24 -174 15 -366 20 -101 48 -69 87 97 15 66 20 121 20 235 0 166 1 164 -65 125z" transform="translate(919,-919) scale(1,1)" stroke="none" fill="#A89BB9"/>
<path d="M84 859 c-4 -7 2 -19 14 -30 12 -9 43 -35 69 -58 66 -55 106 -83 191 -131 69 -40 89 -60 57 -60 -8 0 -15 -4 -15 -9 0 -19 25 -17 58 5 18 13 55 33 83 45 27 13 49 26 49 31 0 4 9 8 20 8 11 0 37 7 58 16 71 30 226 84 243 84 9 0 23 7 30 16 12 15 10 16 -21 10 -19 -4 -44 -11 -55 -15 -11 -5 -51 -18 -90 -30 -62 -20 -124 -45 -177 -72 -31 -16 -72 -10 -86 11 -7 11 -19 20 -28 20 -8 0 -27 14 -41 30 -13 17 -31 30 -39 30 -8 0 -27 14 -42 30 -16 17 -36 30 -44 30 -8 0 -18 4 -24 8 -11 10 -89 28 -156 37 -31 4 -49 2 -54 -6z" transform="translate(919,-919) scale(1,1)" stroke="none" fill="#A89BB9"/>
</g>
</g>
</g>

<g id="2" transform="translate(4212.0,0)scale(0.25,0.25)">

<g id="pattern">
<rect width="9126" height="9126" fill="#D8DCC0"/>
<g id="pattern1" transform="matrix(1,0,0,1,568,568)">
<path d="M515 595 c-37 -21 -41 -29 -57 -91 -26 -109 -24 -174 15 -366 20 -101 48 -69 87 97 15 66 20 121 20 235 0 166 1 164 -65 125z" transform="translate(0.000000,0.000000) scale(1,1)" stroke="none" fill="#A89BB9"/>
<path d="M84 859 c-4 -7 2 -19 14 -30 12 -9 43 -35 69 -58 66 -55 106 -83 191 -131 69 -40 89 -60 57 -60 -8 0 -15 -4 -15 -9 0 -19 25 -17 58 5 18 13 55 33 83 45 27 13 49 26 49 31 0 4 9 8 20 8 11 0 37 7 58 16 71 30 226 84 243 84 9 0 23 7 30 16 12 15 10 16 -21 10 -19 -4 -44 -11 -55 -15 -11 -5 -51 -18 -90 -30 -62 -20 -124 -45 -177 -72 -31 -16 -72 -10 -86 11 -7 11 -19 20 -28 20 -8 0 -27 14 -41 30 -13 17 -31 30 -39 30 -8 0 -27 14 -42 30 -16 17 -36 30 -44 30 -8 0 -18 4 -24 8 -11 10 -89 28 -156 37 -31 4 -49 2 -54 -6z" transform="translate(0.000000,0.000000) scale(1,1)" stroke="none" fill="#A89BB9"/>
</g>
<g id="pattern2" transform="matrix(0.618,0,0,0.618,4324,1270)">
<path d="M515 595 c-37 -21 -41 -29 -57 -91 -26 -109 -24 -174 15 -366 20 -101 48 -69 87 97 15 66 20 121 20 235 0 166 1 164 -65 125z" transform="translate(5728,0.000000) scale(-1,1)" stroke="none" fill="#A89BB9"/>
<path d="M84 859 c-4 -7 2 -19 14 -30 12 -9 43 -35 69 -58 66 -55 106 -83 191 -131 69 -40 89 -60 57 -60 -8 0 -15 -4 -15 -9 0 -19 25 -17 58 5 18 13 55 33 83 45 27 13 49 26 49 31 0 4 9 8 20 8 11 0 37 7 58 16 71 30 226 84 243 84 9 0 23 7 30 16 12 15 10 16 -21 10 -19 -4 -44 -11 -55 -15 -11 -5 -51 -18 -90 -30 -62 -20 -124 -45 -177 -72 -31 -16 -72 -10 -86 11 -7 11 -19 20 -28 20 -8 0 -27 14 -41 30 -13 17 -31 30 -39 30 -8 0 -27 14 -42 30 -16 17 -36 30 -44 30 -8 0 -18 4 -24 8 -11 10 -89 28 -156 37 -31 4 -49 2 -54 -6z" transform="translate(5728,0.000000) scale(-1,1)" stroke="none" fill="#A89BB9"/>
</g>
<g id="pattern3" transform="matrix(0.618,0,0,0.618,1621,5728)matrix(0.71,0.71,-0.71,0.71,0,0)">
<path d="M515 595 c-37 -21 -41 -29 -57 -91 -26 -109 -24 -174 15 -366 20 -101 48 -69 87 97 15 66 20 121 20 235 0 166 1 164 -65 125z" transform="translate(919,-919) scale(1,1)" stroke="none" fill="#A89BB9"/>
<path d="M84 859 c-4 -7 2 -19 14 -30 12 -9 43 -35 69 -58 66 -55 106 -83 191 -131 69 -40 89 -60 57 -60 -8 0 -15 -4 -15 -9 0 -19 25 -17 58 5 18 13 55 33 83 45 27 13 49 26 49 31 0 4 9 8 20 8 11 0 37 7 58 16 71 30 226 84 243 84 9 0 23 7 30 16 12 15 10 16 -21 10 -19 -4 -44 -11 -55 -15 -11 -5 -51 -18 -90 -30 -62 -20 -124 -45 -177 -72 -31 -16 -72 -10 -86 11 -7 11 -19 20 -28 20 -8 0 -27 14 -41 30 -13 17 -31 30 -39 30 -8 0 -27 14 -42 30 -16 17 -36 30 -44 30 -8 0 -18 4 -24 8 -11 10 -89 28 -156 37 -31 4 -49 2 -54 -6z" transform="translate(919,-919) scale(1,1)" stroke="none" fill="#A89BB9"/>
</g>
<g id="pattern4" transform="matrix(1.618,0,0,1.618,2403,2403)matrix(0.87,0.5,-0.5,0.87,0,0)">
<path d="M515 595 c-37 -21 -41 -29 -57 -91 -26 -109 -24 -174 15 -366 20 -101 48 -69 87 97 15 66 20 121 20 235 0 166 1 164 -65 125z" transform="translate(919,-919) scale(1,1)" stroke="none" fill="#A89BB9"/>
<path d="M84 859 c-4 -7 2 -19 14 -30 12 -9 43 -35 69 -58 66 -55 106 -83 191 -131 69 -40 89 -60 57 -60 -8 0 -15 -4 -15 -9 0 -19 25 -17 58 5 18 13 55 33 83 45 27 13 49 26 49 31 0 4 9 8 20 8 11 0 37 7 58 16 71 30 226 84 243 84 9 0 23 7 30 16 12 15 10 16 -21 10 -19 -4 -44 -11 -55 -15 -11 -5 -51 -18 -90 -30 -62 -20 -124 -45 -177 -72 -31 -16 -72 -10 -86 11 -7 11 -19 20 -28 20 -8 0 -27 14 -41 30 -13 17 -31 30 -39 30 -8 0 -27 14 -42 30 -16 17 -36 30 -44 30 -8 0 -18 4 -24 8 -11 10 -89 28 -156 37 -31 4 -49 2 -54 -6z" transform="translate(919,-919) scale(1,1)" stroke="none" fill="#A89BB9"/>
</g>
</g>
</g>

<g id="3" transform="translate(6318.0,0)scale(0.25,0.25)">

<g id="pattern">
<rect width="9126" height="9126" fill="#D8DCC0"/>
<g id="pattern1" transform="matrix(1,0,0,1,568,568)">
<path d="M515 595 c-37 -21 -41 -29 -57 -91 -26 -109 -24 -174 15 -366 20 -101 48 -69 87 97 15 66 20 121 20 235 0 166 1 164 -65 125z" transform="translate(0.000000,0.000000) scale(1,1)" stroke="none" fill="#A89BB9"/>
<path d="M84 859 c-4 -7 2 -19 14 -30 12 -9 43 -35 69 -58 66 -55 106 -83 191 -131 69 -40 89 -60 57 -60 -8 0 -15 -4 -15 -9 0 -19 25 -17 58 5 18 13 55 33 83 45 27 13 49 26 49 31 0 4 9 8 20 8 11 0 37 7 58 16 71 30 226 84 243 84 9 0 23 7 30 16 12 15 10 16 -21 10 -19 -4 -44 -11 -55 -15 -11 -5 -51 -18 -90 -30 -62 -20 -124 -45 -177 -72 -31 -16 -72 -10 -86 11 -7 11 -19 20 -28 20 -8 0 -27 14 -41 30 -13 17 -31 30 -39 30 -8 0 -27 14 -42 30 -16 17 -36 30 -44 30 -8 0 -18 4 -24 8 -11 10 -89 28 -156 37 -31 4 -49 2 -54 -6z" transform="translate(0.000000,0.000000) scale(1,1)" stroke="none" fill="#A89BB9"/>
</g>
<g id="pattern2" transform="matrix(0.618,0,0,0.618,4324,1270)">
<path d="M515 595 c-37 -21 -41 -29 -57 -91 -26 -109 -24 -174 15 -366 20 -101 48 -69 87 97 15 66 20 121 20 235 0 166 1 164 -65 125z" transform="translate(5728,0.000000) scale(-1,1)" stroke="none" fill="#A89BB9"/>
<path d="M84 859 c-4 -7 2 -19 14 -30 12 -9 43 -35 69 -58 66 -55 106 -83 191 -131 69 -40 89 -60 57 -60 -8 0 -15 -4 -15 -9 0 -19 25 -17 58 5 18 13 55 33 83 45 27 13 49 26 49 31 0 4 9 8 20 8 11 0 37 7 58 16 71 30 226 84 243 84 9 0 23 7 30 16 12 15 10 16 -21 10 -19 -4 -44 -11 -55 -15 -11 -5 -51 -18 -90 -30 -62 -20 -124 -45 -177 -72 -31 -16 -72 -10 -86 11 -7 11 -19 20 -28 20 -8 0 -27 14 -41 30 -13 17 -31 30 -39 30 -8 0 -27 14 -42 30 -16 17 -36 30 -44 30 -8 0 -18 4 -24 8 -11 10 -89 28 -156 37 -31 4 -49 2 -54 -6z" transform="translate(5728,0.000000) scale(-1,1)" stroke="none" fill="#A89BB9"/>
</g>
<g id="pattern3" transform="matrix(0.618,0,0,0.618,1621,5728)matrix(0.71,0.71,-0.71,0.71,0,0)">
<path d="M515 595 c-37 -21 -41 -29 -57 -91 -26 -109 -24 -174 15 -366 20 -101 48 -69 87 97 15 66 20 121 20 235 0 166 1 164 -65 125z" transform="translate(919,-919) scale(1,1)" stroke="none" fill="#A89BB9"/>
<path d="M84 859 c-4 -7 2 -19 14 -30 12 -9 43 -35 69 -58 66 -55 106 -83 191 -131 69 -40 89 -60 57 -60 -8 0 -15 -4 -15 -9 0 -19 25 -17 58 5 18 13 55 33 83 45 27 13 49 26 49 31 0 4 9 8 20 8 11 0 37 7 58 16 71 30 226 84 243 84 9 0 23 7 30 16 12 15 10 16 -21 10 -19 -4 -44 -11 -55 -15 -11 -5 -51 -18 -90 -30 -62 -20 -124 -45 -177 -72 -31 -16 -72 -10 -86 11 -7 11 -19 20 -28 20 -8 0 -27 14 -41 30 -13 17 -31 30 -39 30 -8 0 -27 14 -42 30 -16 17 -36 30 -44 30 -8 0 -18 4 -24 8 -11 10 -89 28 -156 37 -31 4 -49 2 -54 -6z" transform="translate(919,-919) scale(1,1)" stroke="none" fill="#A89BB9"/>
</g>
<g id="pattern4" transform="matrix(1.618,0,0,1.618,2403,2403)matrix(0.87,0.5,-0.5,0.87,0,0)">
<path d="M515 595 c-37 -21 -41 -29 -57 -91 -26 -109 -24 -174 15 -366 20 -101 48 -69 87 97 15 66 20 121 20 235 0 166 1 164 -65 125z" transform="translate(919,-919) scale(1,1)" stroke="none" fill="#A89BB9"/>
<path d="M84 859 c-4 -7 2 -19 14 -30 12 -9 43 -35 69 -58 66 -55 106 -83 191 -131 69 -40 89 -60 57 -60 -8 0 -15 -4 -15 -9 0 -19 25 -17 58 5 18 13 55 33 83 45 27 13 49 26 49 31 0 4 9 8 20 8 11 0 37 7 58 16 71 30 226 84 243 84 9 0 23 7 30 16 12 15 10 16 -21 10 -19 -4 -44 -11 -55 -15 -11 -5 -51 -18 -90 -30 -62 -20 -124 -45 -177 -72 -31 -16 -72 -10 -86 11 -7 11 -19 20 -28 20 -8 0 -27 14 -41 30 -13 17 -31 30 -39 30 -8 0 -27 14 -42 30 -16 17 -36 30 -44 30 -8 0 -18 4 -24 8 -11 10 -89 28 -156 37 -31 4 -49 2 -54 -6z" transform="translate(919,-919) scale(1,1)" stroke="none" fill="#A89BB9"/>
</g>
</g>
</g>

<g id="4" transform="translate(8424.0,0)scale(0.25,0.25)">

<g id="pattern">
<rect width="9126" height="9126" fill="#D8DCC0"/>
<g id="pattern1" transform="matrix(1,0,0,1,568,568)">
<path d="M515 595 c-37 -21 -41 -29 -57 -91 -26 -109 -24 -174 15 -366 20 -101 48 -69 87 97 15 66 20 121 20 235 0 166 1 164 -65 125z" transform="translate(0.000000,0.000000) scale(1,1)" stroke="none" fill="#A89BB9"/>
<path d="M84 859 c-4 -7 2 -19 14 -30 12 -9 43 -35 69 -58 66 -55 106 -83 191 -131 69 -40 89 -60 57 -60 -8 0 -15 -4 -15 -9 0 -19 25 -17 58 5 18 13 55 33 83 45 27 13 49 26 49 31 0 4 9 8 20 8 11 0 37 7 58 16 71 30 226 84 243 84 9 0 23 7 30 16 12 15 10 16 -21 10 -19 -4 -44 -11 -55 -15 -11 -5 -51 -18 -90 -30 -62 -20 -124 -45 -177 -72 -31 -16 -72 -10 -86 11 -7 11 -19 20 -28 20 -8 0 -27 14 -41 30 -13 17 -31 30 -39 30 -8 0 -27 14 -42 30 -16 17 -36 30 -44 30 -8 0 -18 4 -24 8 -11 10 -89 28 -156 37 -31 4 -49 2 -54 -6z" transform="translate(0.000000,0.000000) scale(1,1)" stroke="none" fill="#A89BB9"/>
</g>
<g id="pattern2" transform="matrix(0.618,0,0,0.618,4324,1270)">
<path d="M515 595 c-37 -21 -41 -29 -57 -91 -26 -109 -24 -174 15 -366 20 -101 48 -69 87 97 15 66 20 121 20 235 0 166 1 164 -65 125z" transform="translate(5728,0.000000) scale(-1,1)" stroke="none" fill="#A89BB9"/>
<path d="M84 859 c-4 -7 2 -19 14 -30 12 -9 43 -35 69 -58 66 -55 106 -83 191 -131 69 -40 89 -60 57 -60 -8 0 -15 -4 -15 -9 0 -19 25 -17 58 5 18 13 55 33 83 45 27 13 49 26 49 31 0 4 9 8 20 8 11 0 37 7 58 16 71 30 226 84 243 84 9 0 23 7 30 16 12 15 10 16 -21 10 -19 -4 -44 -11 -55 -15 -11 -5 -51 -18 -90 -30 -62 -20 -124 -45 -177 -72 -31 -16 -72 -10 -86 11 -7 11 -19 20 -28 20 -8 0 -27 14 -41 30 -13 17 -31 30 -39 30 -8 0 -27 14 -42 30 -16 17 -36 30 -44 30 -8 0 -18 4 -24 8 -11 10 -89 28 -156 37 -31 4 -49 2 -54 -6z" transform="translate(5728,0.000000) scale(-1,1)" stroke="none" fill="#A89BB9"/>
</g>
<g id="pattern3" transform="matrix(0.618,0,0,0.618,1621,5728)matrix(0.71,0.71,-0.71,0.71,0,0)">
<path d="M515 595 c-37 -21 -41 -29 -57 -91 -26 -109 -24 -174 15 -366 20 -101 48 -69 87 97 15 66 20 121 20 235 0 166 1 164 -65 125z" transform="translate(919,-919) scale(1,1)" stroke="none" fill="#A89BB9"/>
<path d="M84 859 c-4 -7 2 -19 14 -30 12 -9 43 -35 69 -58 66 -55 106 -83 191 -131 69 -40 89 -60 57 -60 -8 0 -15 -4 -15 -9 0 -19 25 -17 58 5 18 13 55 33 83 45 27 13 49 26 49 31 0 4 9 8 20 8 11 0 37 7 58 16 71 30 226 84 243 84 9 0 23 7 30 16 12 15 10 16 -21 10 -19 -4 -44 -11 -55 -15 -11 -5 -51 -18 -90 -30 -62 -20 -124 -45 -177 -72 -31 -16 -72 -10 -86 11 -7 11 -19 20 -28 20 -8 0 -27 14 -41 30 -13 17 -31 30 -39 30 -8 0 -27 14 -42 30 -16 17 -36 30 -44 30 -8 0 -18 4 -24 8 -11 10 -89 28 -156 37 -31 4 -49 2 -54 -6z" transform="translate(919,-919) scale(1,1)" stroke="none" fill="#A89BB9"/>
</g>
<g id="pattern4" transform="matrix(1.618,0,0,1.618,2403,2403)matrix(0.87,0.5,-0.5,0.87,0,0)">
<path d="M515 595 c-37 -21 -41 -29 -57 -91 -26 -109 -24 -174 15 -366 20 -101 48 -69 87 97 15 66 20 121 20 235 0 166 1 164 -65 125z" transform="translate(919,-919) scale(1,1)" stroke="none" fill="#A89BB9"/>
<path d="M84 859 c-4 -7 2 -19 14 -30 12 -9 43 -35 69 -58 66 -55 106 -83 191 -131 69 -40 89 -60 57 -60 -8 0 -15 -4 -15 -9 0 -19 25 -17 58 5 18 13 55 33 83 45 27 13 49 26 49 31 0 4 9 8 20 8 11 0 37 7 58 16 71 30 226 84 243 84 9 0 23 7 30 16 12 15 10 16 -21 10 -19 -4 -44 -11 -55 -15 -11 -5 -51 -18 -90 -30 -62 -20 -124 -45 -177 -72 -31 -16 -72 -10 -86 11 -7 11 -19 20 -28 20 -8 0 -27 14 -41 30 -13 17 -31 30 -39 30 -8 0 -27 14 -42 30 -16 17 -36 30 -44 30 -8 0 -18 4 -24 8 -11 10 -89 28 -156 37 -31 4 -49 2 -54 -6z" transform="translate(919,-919) scale(1,1)" stroke="none" fill="#A89BB9"/>
</g>
</g>
</g>

</g>
<g id="row2" transform="translate(0,4212.0)">
<g id="0" transform="translate(0.0,0)scale(0.25,0.25)">

<g id="pattern">
<rect width="9126" height="9126" fill="#D8DCC0"/>
<g id="pattern1" transform="matrix(1,0,0,1,568,568)">
<path d="M515 595 c-37 -21 -41 -29 -57 -91 -26 -109 -24 -174 15 -366 20 -101 48 -69 87 97 15 66 20 121 20 235 0 166 1 164 -65 125z" transform="translate(0.000000,0.000000) scale(1,1)" stroke="none" fill="#A89BB9"/>
<path d="M84 859 c-4 -7 2 -19 14 -30 12 -9 43 -35 69 -58 66 -55 106 -83 191 -131 69 -40 89 -60 57 -60 -8 0 -15 -4 -15 -9 0 -19 25 -17 58 5 18 13 55 33 83 45 27 13 49 26 49 31 0 4 9 8 20 8 11 0 37 7 58 16 71 30 226 84 243 84 9 0 23 7 30 16 12 15 10 16 -21 10 -19 -4 -44 -11 -55 -15 -11 -5 -51 -18 -90 -30 -62 -20 -124 -45 -177 -72 -31 -16 -72 -10 -86 11 -7 11 -19 20 -28 20 -8 0 -27 14 -41 30 -13 17 -31 30 -39 30 -8 0 -27 14 -42 30 -16 17 -36 30 -44 30 -8 0 -18 4 -24 8 -11 10 -89 28 -156 37 -31 4 -49 2 -54 -6z" transform="translate(0.000000,0.000000) scale(1,1)" stroke="none" fill="#A89BB9"/>
</g>
<g id="pattern2" transform="matrix(0.618,0,0,0.618,4324,1270)">
<path d="M515 595 c-37 -21 -41 -29 -57 -91 -26 -109 -24 -174 15 -366 20 -101 48 -69 87 97 15 66 20 121 20 235 0 166 1 164 -65 125z" transform="translate(5728,0.000000) scale(-1,1)" stroke="none" fill="#A89BB9"/>
<path d="M84 859 c-4 -7 2 -19 14 -30 12 -9 43 -35 69 -58 66 -55 106 -83 191 -131 69 -40 89 -60 57 -60 -8 0 -15 -4 -15 -9 0 -19 25 -17 58 5 18 13 55 33 83 45 27 13 49 26 49 31 0 4 9 8 20 8 11 0 37 7 58 16 71 30 226 84 243 84 9 0 23 7 30 16 12 15 10 16 -21 10 -19 -4 -44 -11 -55 -15 -11 -5 -51 -18 -90 -30 -62 -20 -124 -45 -177 -72 -31 -16 -72 -10 -86 11 -7 11 -19 20 -28 20 -8 0 -27 14 -41 30 -13 17 -31 30 -39 30 -8 0 -27 14 -42 30 -16 17 -36 30 -44 30 -8 0 -18 4 -24 8 -11 10 -89 28 -156 37 -31 4 -49 2 -54 -6z" transform="translate(5728,0.000000) scale(-1,1)" stroke="none" fill="#A89BB9"/>
</g>
<g id="pattern3" transform="matrix(0.618,0,0,0.618,1621,5728)matrix(0.71,0.71,-0.71,0.71,0,0)">
<path d="M515 595 c-37 -21 -41 -29 -57 -91 -26 -109 -24 -174 15 -366 20 -101 48 -69 87 97 15 66 20 121 20 235 0 166 1 164 -65 125z" transform="translate(919,-919) scale(1,1)" stroke="none" fill="#A89BB9"/>
<path d="M84 859 c-4 -7 2 -19 14 -30 12 -9 43 -35 69 -58 66 -55 106 -83 191 -131 69 -40 89 -60 57 -60 -8 0 -15 -4 -15 -9 0 -19 25 -17 58 5 18 13 55 33 83 45 27 13 49 26 49 31 0 4 9 8 20 8 11 0 37 7 58 16 71 30 226 84 243 84 9 0 23 7 30 16 12 15 10 16 -21 10 -19 -4 -44 -11 -55 -15 -11 -5 -51 -18 -90 -30 -62 -20 -124 -45 -177 -72 -31 -16 -72 -10 -86 11 -7 11 -19 20 -28 20 -8 0 -27 14 -41 30 -13 17 -31 30 -39 30 -8 0 -27 14 -42 30 -16 17 -36 30 -44 30 -8 0 -18 4 -24 8 -11 10 -89 28 -156 37 -31 4 -49 2 -54 -6z" transform="translate(919,-919) scale(1,1)" stroke="none" fill="#A89BB9"/>
</g>
<g id="pattern4" transform="matrix(1.618,0,0,1.618,2403,2403)matrix(0.87,0.5,-0.5,0.87,0,0)">
<path d="M515 595 c-37 -21 -41 -29 -57 -91 -26 -109 -24 -174 15 -366 20 -101 48 -69 87 97 15 66 20 121 20 235 0 166 1 164 -65 125z" transform="translate(919,-919) scale(1,1)" stroke="none" fill="#A89BB9"/>
<path d="M84 859 c-4 -7 2 -19 14 -30 12 -9 43 -35 69 -58 66 -55 106 -83 191 -131 69 -40 89 -60 57 -60 -8 0 -15 -4 -15 -9 0 -19 25 -17 58 5 18 13 55 33 83 45 27 13 49 26 49 31 0 4 9 8 20 8 11 0 37 7 58 16 71 30 226 84 243 84 9 0 23 7 30 16 12 15 10 16 -21 10 -19 -4 -44 -11 -55 -15 -11 -5 -51 -18 -90 -30 -62 -20 -124 -45 -177 -72 -31 -16 -72 -10 -86 11 -7 11 -19 20 -28 20 -8 0 -27 14 -41 30 -13 17 -31 30 -39 30 -8 0 -27 14 -42 30 -16 17 -36 30 -44 30 -8 0 -18 4 -24 8 -11 10 -89 28 -156 37 -31 4 -49 2 -54 -6z" transform="translate(919,-919) scale(1,1)" stroke="none" fill="#A89BB9"/>
</g>
</g>
</g>

<g id="1" transform="translate(2106.0,0)scale(0.25,0.25)">

<g id="pattern">
<rect width="9126" height="9126" fill="#D8DCC0"/>
<g id="pattern1" transform="matrix(1,0,0,1,568,568)">
<path d="M515 595 c-37 -21 -41 -29 -57 -91 -26 -109 -24 -174 15 -366 20 -101 48 -69 87 97 15 66 20 121 20 235 0 166 1 164 -65 125z" transform="translate(0.000000,0.000000) scale(1,1)" stroke="none" fill="#A89BB9"/>
<path d="M84 859 c-4 -7 2 -19 14 -30 12 -9 43 -35 69 -58 66 -55 106 -83 191 -131 69 -40 89 -60 57 -60 -8 0 -15 -4 -15 -9 0 -19 25 -17 58 5 18 13 55 33 83 45 27 13 49 26 49 31 0 4 9 8 20 8 11 0 37 7 58 16 71 30 226 84 243 84 9 0 23 7 30 16 12 15 10 16 -21 10 -19 -4 -44 -11 -55 -15 -11 -5 -51 -18 -90 -30 -62 -20 -124 -45 -177 -72 -31 -16 -72 -10 -86 11 -7 11 -19 20 -28 20 -8 0 -27 14 -41 30 -13 17 -31 30 -39 30 -8 0 -27 14 -42 30 -16 17 -36 30 -44 30 -8 0 -18 4 -24 8 -11 10 -89 28 -156 37 -31 4 -49 2 -54 -6z" transform="translate(0.000000,0.000000) scale(1,1)" stroke="none" fill="#A89BB9"/>
</g>
<g id="pattern2" transform="matrix(0.618,0,0,0.618,4324,1270)">
<path d="M515 595 c-37 -21 -41 -29 -57 -91 -26 -109 -24 -174 15 -366 20 -101 48 -69 87 97 15 66 20 121 20 235 0 166 1 164 -65 125z" transform="translate(5728,0.000000) scale(-1,1)" stroke="none" fill="#A89BB9"/>
<path d="M84 859 c-4 -7 2 -19 14 -30 12 -9 43 -35 69 -58 66 -55 106 -83 191 -131 69 -40 89 -60 57 -60 -8 0 -15 -4 -15 -9 0 -19 25 -17 58 5 18 13 55 33 83 45 27 13 49 26 49 31 0 4 9 8 20 8 11 0 37 7 58 16 71 30 226 84 243 84 9 0 23 7 30 16 12 15 10 16 -21 10 -19 -4 -44 -11 -55 -15 -11 -5 -51 -18 -90 -30 -62 -20 -124 -45 -177 -72 -31 -16 -72 -10 -86 11 -7 11 -19 20 -28 20 -8 0 -27 14 -41 30 -13 17 -31 30 -39 30 -8 0 -27 14 -42 30 -16 17 -36 30 -44 30 -8 0 -18 4 -24 8 -11 10 -89 28 -156 37 -31 4 -49 2 -54 -6z" transform="translate(5728,0.000000) scale(-1,1)" stroke="none" fill="#A89BB9"/>
</g>
<g id="pattern3" transform="matrix(0.618,0,0,0.618,1621,5728)matrix(0.71,0.71,-0.71,0.71,0,0)">
<path d="M515 595 c-37 -21 -41 -29 -57 -91 -26 -109 -24 -174 15 -366 20 -101 48 -69 87 97 15 66 20 121 20 235 0 166 1 164 -65 125z" transform="translate(919,-919) scale(1,1)" stroke="none" fill="#A89BB9"/>
<path d="M84 859 c-4 -7 2 -19 14 -30 12 -9 43 -35 69 -58 66 -55 106 -83 191 -131 69 -40 89 -60 57 -60 -8 0 -15 -4 -15 -9 0 -19 25 -17 58 5 18 13 55 33 83 45 27 13 49 26 49 31 0 4 9 8 20 8 11 0 37 7 58 16 71 30 226 84 243 84 9 0 23 7 30 16 12 15 10 16 -21 10 -19 -4 -44 -11 -55 -15 -11 -5 -51 -18 -90 -30 -62 -20 -124 -45 -177 -72 -31 -16 -72 -10 -86 11 -7 11 -19 20 -28 20 -8 0 -27 14 -41 30 -13 17 -31 30 -39 30 -8 0 -27 14 -42 30 -16 17 -36 30 -44 30 -8 0 -18 4 -24 8 -11 10 -89 28 -156 37 -31 4 -49 2 -54 -6z" transform="translate(919,-919) scale(1,1)" stroke="none" fill="#A89BB9"/>
</g>
<g id="pattern4" transform="matrix(1.618,0,0,1.618,2403,2403)matrix(0.87,0.5,-0.5,0.87,0,0)">
<path d="M515 595 c-37 -21 -41 -29 -57 -91 -26 -109 -24 -174 15 -366 20 -101 48 -69 87 97 15 66 20 121 20 235 0 166 1 164 -65 125z" transform="translate(919,-919) scale(1,1)" stroke="none" fill="#A89BB9"/>
<path d="M84 859 c-4 -7 2 -19 14 -30 12 -9 43 -35 69 -58 66 -55 106 -83 191 -131 69 -40 89 -60 57 -60 -8 0 -15 -4 -15 -9 0 -19 25 -17 58 5 18 13 55 33 83 45 27 13 49 26 49 31 0 4 9 8 20 8 11 0 37 7 58 16 71 30 226 84 243 84 9 0 23 7 30 16 12 15 10 16 -21 10 -19 -4 -44 -11 -55 -15 -11 -5 -51 -18 -90 -30 -62 -20 -124 -45 -177 -72 -31 -16 -72 -10 -86 11 -7 11 -19 20 -28 20 -8 0 -27 14 -41 30 -13 17 -31 30 -39 30 -8 0 -27 14 -42 30 -16 17 -36 30 -44 30 -8 0 -18 4 -24 8 -11 10 -89 28 -156 37 -31 4 -49 2 -54 -6z" transform="translate(919,-919) scale(1,1)" stroke="none" fill="#A89BB9"/>
</g>
</g>
</g>

<g id="2" transform="translate(4212.0,0)scale(0.25,0.25)">

<g id="pattern">
<rect width="9126" height="9126" fill="#D8DCC0"/>
<g id="pattern1" transform="matrix(1,0,0,1,568,568)">
<path d="M515 595 c-37 -21 -41 -29 -57 -91 -26 -109 -24 -174 15 -366 20 -101 48 -69 87 97 15 66 20 121 20 235 0 166 1 164 -65 125z" transform="translate(0.000000,0.000000) scale(1,1)" stroke="none" fill="#A89BB9"/>
<path d="M84 859 c-4 -7 2 -19 14 -30 12 -9 43 -35 69 -58 66 -55 106 -83 191 -131 69 -40 89 -60 57 -60 -8 0 -15 -4 -15 -9 0 -19 25 -17 58 5 18 13 55 33 83 45 27 13 49 26 49 31 0 4 9 8 20 8 11 0 37 7 58 16 71 30 226 84 243 84 9 0 23 7 30 16 12 15 10 16 -21 10 -19 -4 -44 -11 -55 -15 -11 -5 -51 -18 -90 -30 -62 -20 -124 -45 -177 -72 -31 -16 -72 -10 -86 11 -7 11 -19 20 -28 20 -8 0 -27 14 -41 30 -13 17 -31 30 -39 30 -8 0 -27 14 -42 30 -16 17 -36 30 -44 30 -8 0 -18 4 -24 8 -11 10 -89 28 -156 37 -31 4 -49 2 -54 -6z" transform="translate(0.000000,0.000000) scale(1,1)" stroke="none" fill="#A89BB9"/>
</g>
<g id="pattern2" transform="matrix(0.618,0,0,0.618,4324,1270)">
<path d="M515 595 c-37 -21 -41 -29 -57 -91 -26 -109 -24 -174 15 -366 20 -101 48 -69 87 97 15 66 20 121 20 235 0 166 1 164 -65 125z" transform="translate(5728,0.000000) scale(-1,1)" stroke="none" fill="#A89BB9"/>
<path d="M84 859 c-4 -7 2 -19 14 -30 12 -9 43 -35 69 -58 66 -55 106 -83 191 -131 69 -40 89 -60 57 -60 -8 0 -15 -4 -15 -9 0 -19 25 -17 58 5 18 13 55 33 83 45 27 13 49 26 49 31 0 4 9 8 20 8 11 0 37 7 58 16 71 30 226 84 243 84 9 0 23 7 30 16 12 15 10 16 -21 10 -19 -4 -44 -11 -55 -15 -11 -5 -51 -18 -90 -30 -62 -20 -124 -45 -177 -72 -31 -16 -72 -10 -86 11 -7 11 -19 20 -28 20 -8 0 -27 14 -41 30 -13 17 -31 30 -39 30 -8 0 -27 14 -42 30 -16 17 -36 30 -44 30 -8 0 -18 4 -24 8 -11 10 -89 28 -156 37 -31 4 -49 2 -54 -6z" transform="translate(5728,0.000000) scale(-1,1)" stroke="none" fill="#A89BB9"/>
</g>
<g id="pattern3" transform="matrix(0.618,0,0,0.618,1621,5728)matrix(0.71,0.71,-0.71,0.71,0,0)">
<path d="M515 595 c-37 -21 -41 -29 -57 -91 -26 -109 -24 -174 15 -366 20 -101 48 -69 87 97 15 66 20 121 20 235 0 166 1 164 -65 125z" transform="translate(919,-919) scale(1,1)" stroke="none" fill="#A89BB9"/>
<path d="M84 859 c-4 -7 2 -19 14 -30 12 -9 43 -35 69 -58 66 -55 106 -83 191 -131 69 -40 89 -60 57 -60 -8 0 -15 -4 -15 -9 0 -19 25 -17 58 5 18 13 55 33 83 45 27 13 49 26 49 31 0 4 9 8 20 8 11 0 37 7 58 16 71 30 226 84 243 84 9 0 23 7 30 16 12 15 10 16 -21 10 -19 -4 -44 -11 -55 -15 -11 -5 -51 -18 -90 -30 -62 -20 -124 -45 -177 -72 -31 -16 -72 -10 -86 11 -7 11 -19 20 -28 20 -8 0 -27 14 -41 30 -13 17 -31 30 -39 30 -8 0 -27 14 -42 30 -16 17 -36 30 -44 30 -8 0 -18 4 -24 8 -11 10 -89 28 -156 37 -31 4 -49 2 -54 -6z" transform="translate(919,-919) scale(1,1)" stroke="none" fill="#A89BB9"/>
</g>
<g id="pattern4" transform="matrix(1.618,0,0,1.618,2403,2403)matrix(0.87,0.5,-0.5,0.87,0,0)">
<path d="M515 595 c-37 -21 -41 -29 -57 -91 -26 -109 -24 -174 15 -366 20 -101 48 -69 87 97 15 66 20 121 20 235 0 166 1 164 -65 125z" transform="translate(919,-919) scale(1,1)" stroke="none" fill="#A89BB9"/>
<path d="M84 859 c-4 -7 2 -19 14 -30 12 -9 43 -35 69 -58 66 -55 106 -83 191 -131 69 -40 89 -60 57 -60 -8 0 -15 -4 -15 -9 0 -19 25 -17 58 5 18 13 55 33 83 45 27 13 49 26 49 31 0 4 9 8 20 8 11 0 37 7 58 16 71 30 226 84 243 84 9 0 23 7 30 16 12 15 10 16 -21 10 -19 -4 -44 -11 -55 -15 -11 -5 -51 -18 -90 -30 -62 -20 -124 -45 -177 -72 -31 -16 -72 -10 -86 11 -7 11 -19 20 -28 20 -8 0 -27 14 -41 30 -13 17 -31 30 -39 30 -8 0 -27 14 -42 30 -16 17 -36 30 -44 30 -8 0 -18 4 -24 8 -11 10 -89 28 -156 37 -31 4 -49 2 -54 -6z" transform="translate(919,-919) scale(1,1)" stroke="none" fill="#A89BB9"/>
</g>
</g>
</g>

<g id="3" transform="translate(6318.0,0)scale(0.25,0.25)">

<g id="pattern">
<rect width="9126" height="9126" fill="#D8DCC0"/>
<g id="pattern1" transform="matrix(1,0,0,1,568,568)">
<path d="M515 595 c-37 -21 -41 -29 -57 -91 -26 -109 -24 -174 15 -366 20 -101 48 -69 87 97 15 66 20 121 20 235 0 166 1 164 -65 125z" transform="translate(0.000000,0.000000) scale(1,1)" stroke="none" fill="#A89BB9"/>
<path d="M84 859 c-4 -7 2 -19 14 -30 12 -9 43 -35 69 -58 66 -55 106 -83 191 -131 69 -40 89 -60 57 -60 -8 0 -15 -4 -15 -9 0 -19 25 -17 58 5 18 13 55 33 83 45 27 13 49 26 49 31 0 4 9 8 20 8 11 0 37 7 58 16 71 30 226 84 243 84 9 0 23 7 30 16 12 15 10 16 -21 10 -19 -4 -44 -11 -55 -15 -11 -5 -51 -18 -90 -30 -62 -20 -124 -45 -177 -72 -31 -16 -72 -10 -86 11 -7 11 -19 20 -28 20 -8 0 -27 14 -41 30 -13 17 -31 30 -39 30 -8 0 -27 14 -42 30 -16 17 -36 30 -44 30 -8 0 -18 4 -24 8 -11 10 -89 28 -156 37 -31 4 -49 2 -54 -6z" transform="translate(0.000000,0.000000) scale(1,1)" stroke="none" fill="#A89BB9"/>
</g>
<g id="pattern2" transform="matrix(0.618,0,0,0.618,4324,1270)">
<path d="M515 595 c-37 -21 -41 -29 -57 -91 -26 -109 -24 -174 15 -366 20 -101 48 -69 87 97 15 66 20 121 20 235 0 166 1 164 -65 125z" transform="translate(5728,0.000000) scale(-1,1)" stroke="none" fill="#A89BB9"/>
<path d="M84 859 c-4 -7 2 -19 14 -30 12 -9 43 -35 69 -58 66 -55 106 -83 191 -131 69 -40 89 -60 57 -60 -8 0 -15 -4 -15 -9 0 -19 25 -17 58 5 18 13 55 33 83 45 27 13 49 26 49 31 0 4 9 8 20 8 11 0 37 7 58 16 71 30 226 84 243 84 9 0 23 7 30 16 12 15 10 16 -21 10 -19 -4 -44 -11 -55 -15 -11 -5 -51 -18 -90 -30 -62 -20 -124 -45 -177 -72 -31 -16 -72 -10 -86 11 -7 11 -19 20 -28 20 -8 0 -27 14 -41 30 -13 17 -31 30 -39 30 -8 0 -27 14 -42 30 -16 17 -36 30 -44 30 -8 0 -18 4 -24 8 -11 10 -89 28 -156 37 -31 4 -49 2 -54 -6z" transform="translate(5728,0.000000) scale(-1,1)" stroke="none" fill="#A89BB9"/>
</g>
<g id="pattern3" transform="matrix(0.618,0,0,0.618,1621,5728)matrix(0.71,0.71,-0.71,0.71,0,0)">
<path d="M515 595 c-37 -21 -41 -29 -57 -91 -26 -109 -24 -174 15 -366 20 -101 48 -69 87 97 15 66 20 121 20 235 0 166 1 164 -65 125z" transform="translate(919,-919) scale(1,1)" stroke="none" fill="#A89BB9"/>
<path d="M84 859 c-4 -7 2 -19 14 -30 12 -9 43 -35 69 -58 66 -55 106 -83 191 -131 69 -40 89 -60 57 -60 -8 0 -15 -4 -15 -9 0 -19 25 -17 58 5 18 13 55 33 83 45 27 13 49 26 49 31 0 4 9 8 20 8 11 0 37 7 58 16 71 30 226 84 243 84 9 0 23 7 30 16 12 15 10 16 -21 10 -19 -4 -44 -11 -55 -15 -11 -5 -51 -18 -90 -30 -62 -20 -124 -45 -177 -72 -31 -16 -72 -10 -86 11 -7 11 -19 20 -28 20 -8 0 -27 14 -41 30 -13 17 -31 30 -39 30 -8 0 -27 14 -42 30 -16 17 -36 30 -44 30 -8 0 -18 4 -24 8 -11 10 -89 28 -156 37 -31 4 -49 2 -54 -6z" transform="translate(919,-919) scale(1,1)" stroke="none" fill="#A89BB9"/>
</g>
<g id="pattern4" transform="matrix(1.618,0,0,1.618,2403,2403)matrix(0.87,0.5,-0.5,0.87,0,0)">
<path d="M515 595 c-37 -21 -41 -29 -57 -91 -26 -109 -24 -174 15 -366 20 -101 48 -69 87 97 15 66 20 121 20 235 0 166 1 164 -65 125z" transform="translate(919,-919) scale(1,1)" stroke="none" fill="#A89BB9"/>
<path d="M84 859 c-4 -7 2 -19 14 -30 12 -9 43 -35 69 -58 66 -55 106 -83 191 -131 69 -40 89 -60 57 -60 -8 0 -15 -4 -15 -9 0 -19 25 -17 58 5 18 13 55 33 83 45 27 13 49 26 49 31 0 4 9 8 20 8 11 0 37 7 58 16 71 30 226 84 243 84 9 0 23 7 30 16 12 15 10 16 -21 10 -19 -4 -44 -11 -55 -15 -11 -5 -51 -18 -90 -30 -62 -20 -124 -45 -177 -72 -31 -16 -72 -10 -86 11 -7 11 -19 20 -28 20 -8 0 -27 14 -41 30 -13 17 -31 30 -39 30 -8 0 -27 14 -42 30 -16 17 -36 30 -44 30 -8 0 -18 4 -24 8 -11 10 -89 28 -156 37 -31 4 -49 2 -54 -6z" transform="translate(919,-919) scale(1,1)" stroke="none" fill="#A89BB9"/>
</g>
</g>
</g>

<g id="4" transform="translate(8424.0,0)scale(0.25,0.25)">

<g id="pattern">
<rect width="9126" height="9126" fill="#D8DCC0"/>
<g id="pattern1" transform="matrix(1,0,0,1,568,568)">
<path d="M515 595 c-37 -21 -41 -29 -57 -91 -26 -109 -24 -174 15 -366 20 -101 48 -69 87 97 15 66 20 121 20 235 0 166 1 164 -65 125z" transform="translate(0.000000,0.000000) scale(1,1)" stroke="none" fill="#A89BB9"/>
<path d="M84 859 c-4 -7 2 -19 14 -30 12 -9 43 -35 69 -58 66 -55 106 -83 191 -131 69 -40 89 -60 57 -60 -8 0 -15 -4 -15 -9 0 -19 25 -17 58 5 18 13 55 33 83 45 27 13 49 26 49 31 0 4 9 8 20 8 11 0 37 7 58 16 71 30 226 84 243 84 9 0 23 7 30 16 12 15 10 16 -21 10 -19 -4 -44 -11 -55 -15 -11 -5 -51 -18 -90 -30 -62 -20 -124 -45 -177 -72 -31 -16 -72 -10 -86 11 -7 11 -19 20 -28 20 -8 0 -27 14 -41 30 -13 17 -31 30 -39 30 -8 0 -27 14 -42 30 -16 17 -36 30 -44 30 -8 0 -18 4 -24 8 -11 10 -89 28 -156 37 -31 4 -49 2 -54 -6z" transform="translate(0.000000,0.000000) scale(1,1)" stroke="none" fill="#A89BB9"/>
</g>
<g id="pattern2" transform="matrix(0.618,0,0,0.618,4324,1270)">
<path d="M515 595 c-37 -21 -41 -29 -57 -91 -26 -109 -24 -174 15 -366 20 -101 48 -69 87 97 15 66 20 121 20 235 0 166 1 164 -65 125z" transform="translate(5728,0.000000) scale(-1,1)" stroke="none" fill="#A89BB9"/>
<path d="M84 859 c-4 -7 2 -19 14 -30 12 -9 43 -35 69 -58 66 -55 106 -83 191 -131 69 -40 89 -60 57 -60 -8 0 -15 -4 -15 -9 0 -19 25 -17 58 5 18 13 55 33 83 45 27 13 49 26 49 31 0 4 9 8 20 8 11 0 37 7 58 16 71 30 226 84 243 84 9 0 23 7 30 16 12 15 10 16 -21 10 -19 -4 -44 -11 -55 -15 -11 -5 -51 -18 -90 -30 -62 -20 -124 -45 -177 -72 -31 -16 -72 -10 -86 11 -7 11 -19 20 -28 20 -8 0 -27 14 -41 30 -13 17 -31 30 -39 30 -8 0 -27 14 -42 30 -16 17 -36 30 -44 30 -8 0 -18 4 -24 8 -11 10 -89 28 -156 37 -31 4 -49 2 -54 -6z" transform="translate(5728,0.000000) scale(-1,1)" stroke="none" fill="#A89BB9"/>
</g>
<g id="pattern3" transform="matrix(0.618,0,0,0.618,1621,5728)matrix(0.71,0.71,-0.71,0.71,0,0)">
<path d="M515 595 c-37 -21 -41 -29 -57 -91 -26 -109 -24 -174 15 -366 20 -101 48 -69 87 97 15 66 20 121 20 235 0 166 1 164 -65 125z" transform="translate(919,-919) scale(1,1)" stroke="none" fill="#A89BB9"/>
<path d="M84 859 c-4 -7 2 -19 14 -30 12 -9 43 -35 69 -58 66 -55 106 -83 191 -131 69 -40 89 -60 57 -60 -8 0 -15 -4 -15 -9 0 -19 25 -17 58 5 18 13 55 33 83 45 27 13 49 26 49 31 0 4 9 8 20 8 11 0 37 7 58 16 71 30 226 84 243 84 9 0 23 7 30 16 12 15 10 16 -21 10 -19 -4 -44 -11 -55 -15 -11 -5 -51 -18 -90 -30 -62 -20 -124 -45 -177 -72 -31 -16 -72 -10 -86 11 -7 11 -19 20 -28 20 -8 0 -27 14 -41 30 -13 17 -31 30 -39 30 -8 0 -27 14 -42 30 -16 17 -36 30 -44 30 -8 0 -18 4 -24 8 -11 10 -89 28 -156 37 -31 4 -49 2 -54 -6z" transform="translate(919,-919) scale(1,1)" stroke="none" fill="#A89BB9"/>
</g>
<g id="pattern4" transform="matrix(1.618,0,0,1.618,2403,2403)matrix(0.87,0.5,-0.5,0.87,0,0)">
<path d="M515 595 c-37 -21 -41 -29 -57 -91 -26 -109 -24 -174 15 -366 20 -101 48 -69 87 97 15 66 20 121 20 235 0 166 1 164 -65 125z" transform="translate(919,-919) scale(1,1)" stroke="none" fill="#A89BB9"/>
<path d="M84 859 c-4 -7 2 -19 14 -30 12 -9 43 -35 69 -58 66 -55 106 -83 191 -131 69 -40 89 -60 57 -60 -8 0 -15 -4 -15 -9 0 -19 25 -17 58 5 18 13 55 33 83 45 27 13 49 26 49 31 0 4 9 8 20 8 11 0 37 7 58 16 71 30 226 84 243 84 9 0 23 7 30 16 12 15 10 16 -21 10 -19 -4 -44 -11 -55 -15 -11 -5 -51 -18 -90 -30 -62 -20 -124 -45 -177 -72 -31 -16 -72 -10 -86 11 -7 11 -19 20 -28 20 -8 0 -27 14 -41 30 -13 17 -31 30 -39 30 -8 0 -27 14 -42 30 -16 17 -36 30 -44 30 -8 0 -18 4 -24 8 -11 10 -89 28 -156 37 -31 4 -49 2 -54 -6z" transform="translate(919,-919) scale(1,1)" stroke="none" fill="#A89BB9"/>
</g>
</g>
</g>

</g>
<g id="row3" transform="translate(0,6318.0)">
<g id="0" transform="translate(0.0,0)scale(0.25,0.25)">

<g id="pattern">
<rect width="9126" height="9126" fill="#D8DCC0"/>
<g id="pattern1" transform="matrix(1,0,0,1,568,568)">
<path d="M515 595 c-37 -21 -41 -29 -57 -91 -26 -109 -24 -174 15 -366 20 -101 48 -69 87 97 15 66 20 121 20 235 0 166 1 164 -65 125z" transform="translate(0.000000,0.000000) scale(1,1)" stroke="none" fill="#A89BB9"/>
<path d="M84 859 c-4 -7 2 -19 14 -30 12 -9 43 -35 69 -58 66 -55 106 -83 191 -131 69 -40 89 -60 57 -60 -8 0 -15 -4 -15 -9 0 -19 25 -17 58 5 18 13 55 33 83 45 27 13 49 26 49 31 0 4 9 8 20 8 11 0 37 7 58 16 71 30 226 84 243 84 9 0 23 7 30 16 12 15 10 16 -21 10 -19 -4 -44 -11 -55 -15 -11 -5 -51 -18 -90 -30 -62 -20 -124 -45 -177 -72 -31 -16 -72 -10 -86 11 -7 11 -19 20 -28 20 -8 0 -27 14 -41 30 -13 17 -31 30 -39 30 -8 0 -27 14 -42 30 -16 17 -36 30 -44 30 -8 0 -18 4 -24 8 -11 10 -89 28 -156 37 -31 4 -49 2 -54 -6z" transform="translate(0.000000,0.000000) scale(1,1)" stroke="none" fill="#A89BB9"/>
</g>
<g id="pattern2" transform="matrix(0.618,0,0,0.618,4324,1270)">
<path d="M515 595 c-37 -21 -41 -29 -57 -91 -26 -109 -24 -174 15 -366 20 -101 48 -69 87 97 15 66 20 121 20 235 0 166 1 164 -65 125z" transform="translate(5728,0.000000) scale(-1,1)" stroke="none" fill="#A89BB9"/>
<path d="M84 859 c-4 -7 2 -19 14 -30 12 -9 43 -35 69 -58 66 -55 106 -83 191 -131 69 -40 89 -60 57 -60 -8 0 -15 -4 -15 -9 0 -19 25 -17 58 5 18 13 55 33 83 45 27 13 49 26 49 31 0 4 9 8 20 8 11 0 37 7 58 16 71 30 226 84 243 84 9 0 23 7 30 16 12 15 10 16 -21 10 -19 -4 -44 -11 -55 -15 -11 -5 -51 -18 -90 -30 -62 -20 -124 -45 -177 -72 -31 -16 -72 -10 -86 11 -7 11 -19 20 -28 20 -8 0 -27 14 -41 30 -13 17 -31 30 -39 30 -8 0 -27 14 -42 30 -16 17 -36 30 -44 30 -8 0 -18 4 -24 8 -11 10 -89 28 -156 37 -31 4 -49 2 -54 -6z" transform="translate(5728,0.000000) scale(-1,1)" stroke="none" fill="#A89BB9"/>
</g>
<g id="pattern3" transform="matrix(0.618,0,0,0.618,1621,5728)matrix(0.71,0.71,-0.71,0.71,0,0)">
<path d="M515 595 c-37 -21 -41 -29 -57 -91 -26 -109 -24 -174 15 -366 20 -101 48 -69 87 97 15 66 20 121 20 235 0 166 1 164 -65 125z" transform="translate(919,-919) scale(1,1)" stroke="none" fill="#A89BB9"/>
<path d="M84 859 c-4 -7 2 -19 14 -30 12 -9 43 -35 69 -58 66 -55 106 -83 191 -131 69 -40 89 -60 57 -60 -8 0 -15 -4 -15 -9 0 -19 25 -17 58 5 18 13 55 33 83 45 27 13 49 26 49 31 0 4 9 8 20 8 11 0 37 7 58 16 71 30 226 84 243 84 9 0 23 7 30 16 12 15 10 16 -21 10 -19 -4 -44 -11 -55 -15 -11 -5 -51 -18 -90 -30 -62 -20 -124 -45 -177 -72 -31 -16 -72 -10 -86 11 -7 11 -19 20 -28 20 -8 0 -27 14 -41 30 -13 17 -31 30 -39 30 -8 0 -27 14 -42 30 -16 17 -36 30 -44 30 -8 0 -18 4 -24 8 -11 10 -89 28 -156 37 -31 4 -49 2 -54 -6z" transform="translate(919,-919) scale(1,1)" stroke="none" fill="#A89BB9"/>
</g>
<g id="pattern4" transform="matrix(1.618,0,0,1.618,2403,2403)matrix(0.87,0.5,-0.5,0.87,0,0)">
<path d="M515 595 c-37 -21 -41 -29 -57 -91 -26 -109 -24 -174 15 -366 20 -101 48 -69 87 97 15 66 20 121 20 235 0 166 1 164 -65 125z" transform="translate(919,-919) scale(1,1)" stroke="none" fill="#A89BB9"/>
<path d="M84 859 c-4 -7 2 -19 14 -30 12 -9 43 -35 69 -58 66 -55 106 -83 191 -131 69 -40 89 -60 57 -60 -8 0 -15 -4 -15 -9 0 -19 25 -17 58 5 18 13 55 33 83 45 27 13 49 26 49 31 0 4 9 8 20 8 11 0 37 7 58 16 71 30 226 84 243 84 9 0 23 7 30 16 12 15 10 16 -21 10 -19 -4 -44 -11 -55 -15 -11 -5 -51 -18 -90 -30 -62 -20 -124 -45 -177 -72 -31 -16 -72 -10 -86 11 -7 11 -19 20 -28 20 -8 0 -27 14 -41 30 -13 17 -31 30 -39 30 -8 0 -27 14 -42 30 -16 17 -36 30 -44 30 -8 0 -18 4 -24 8 -11 10 -89 28 -156 37 -31 4 -49 2 -54 -6z" transform="translate(919,-919) scale(1,1)" stroke="none" fill="#A89BB9"/>
</g>
</g>
</g>

<g id="1" transform="translate(2106.0,0)scale(0.25,0.25)">

<g id="pattern">
<rect width="9126" height="9126" fill="#D8DCC0"/>
<g id="pattern1" transform="matrix(1,0,0,1,568,568)">
<path d="M515 595 c-37 -21 -41 -29 -57 -91 -26 -109 -24 -174 15 -366 20 -101 48 -69 87 97 15 66 20 121 20 235 0 166 1 164 -65 125z" transform="translate(0.000000,0.000000) scale(1,1)" stroke="none" fill="#A89BB9"/>
<path d="M84 859 c-4 -7 2 -19 14 -30 12 -9 43 -35 69 -58 66 -55 106 -83 191 -131 69 -40 89 -60 57 -60 -8 0 -15 -4 -15 -9 0 -19 25 -17 58 5 18 13 55 33 83 45 27 13 49 26 49 31 0 4 9 8 20 8 11 0 37 7 58 16 71 30 226 84 243 84 9 0 23 7 30 16 12 15 10 16 -21 10 -19 -4 -44 -11 -55 -15 -11 -5 -51 -18 -90 -30 -62 -20 -124 -45 -177 -72 -31 -16 -72 -10 -86 11 -7 11 -19 20 -28 20 -8 0 -27 14 -41 30 -13 17 -31 30 -39 30 -8 0 -27 14 -42 30 -16 17 -36 30 -44 30 -8 0 -18 4 -24 8 -11 10 -89 28 -156 37 -31 4 -49 2 -54 -6z" transform="translate(0.000000,0.000000) scale(1,1)" stroke="none" fill="#A89BB9"/>
</g>
<g id="pattern2" transform="matrix(0.618,0,0,0.618,4324,1270)">
<path d="M515 595 c-37 -21 -41 -29 -57 -91 -26 -109 -24 -174 15 -366 20 -101 48 -69 87 97 15 66 20 121 20 235 0 166 1 164 -65 125z" transform="translate(5728,0.000000) scale(-1,1)" stroke="none" fill="#A89BB9"/>
<path d="M84 859 c-4 -7 2 -19 14 -30 12 -9 43 -35 69 -58 66 -55 106 -83 191 -131 69 -40 89 -60 57 -60 -8 0 -15 -4 -15 -9 0 -19 25 -17 58 5 18 13 55 33 83 45 27 13 49 26 49 31 0 4 9 8 20 8 11 0 37 7 58 16 71 30 226 84 243 84 9 0 23 7 30 16 12 15 10 16 -21 10 -19 -4 -44 -11 -55 -15 -11 -5 -51 -18 -90 -30 -62 -20 -124 -45 -177 -72 -31 -16 -72 -10 -86 11 -7 11 -19 20 -28 20 -8 0 -27 14 -41 30 -13 17 -31 30 -39 30 -8 0 -27 14 -42 30 -16 17 -36 30 -44 30 -8 0 -18 4 -24 8 -11 10 -89 28 -156 37 -31 4 -49 2 -54 -6z" transform="translate(5728,0.000000) scale(-1,1)" stroke="none" fill="#A89BB9"/>
</g>
<g id="pattern3" transform="matrix(0.618,0,0,0.618,1621,5728)matrix(0.71,0.71,-0.71,0.71,0,0)">
<path d="M515 595 c-37 -21 -41 -29 -57 -91 -26 -109 -24 -174 15 -366 20 -101 48 -69 87 97 15 66 20 121 20 235 0 166 1 164 -65 125z" transform="translate(919,-919) scale(1,1)" stroke="none" fill="#A89BB9"/>
<path d="M84 859 c-4 -7 2 -19 14 -30 12 -9 43 -35 69 -58 66 -55 106 -83 191 -131 69 -40 89 -60 57 -60 -8 0 -15 -4 -15 -9 0 -19 25 -17 58 5 18 13 55 33 83 45 27 13 49 26 49 31 0 4 9 8 20 8 11 0 37 7 58 16 71 30 226 84 243 84 9 0 23 7 30 16 12 15 10 16 -21 10 -19 -4 -44 -11 -55 -15 -11 -5 -51 -18 -90 -30 -62 -20 -124 -45 -177 -72 -31 -16 -72 -10 -86 11 -7 11 -19 20 -28 20 -8 0 -27 14 -41 30 -13 17 -31 30 -39 30 -8 0 -27 14 -42 30 -16 17 -36 30 -44 30 -8 0 -18 4 -24 8 -11 10 -89 28 -156 37 -31 4 -49 2 -54 -6z" transform="translate(919,-919) scale(1,1)" stroke="none" fill="#A89BB9"/>
</g>
<g id="pattern4" transform="matrix(1.618,0,0,1.618,2403,2403)matrix(0.87,0.5,-0.5,0.87,0,0)">
<path d="M515 595 c-37 -21 -41 -29 -57 -91 -26 -109 -24 -174 15 -366 20 -101 48 -69 87 97 15 66 20 121 20 235 0 166 1 164 -65 125z" transform="translate(919,-919) scale(1,1)" stroke="none" fill="#A89BB9"/>
<path d="M84 859 c-4 -7 2 -19 14 -30 12 -9 43 -35 69 -58 66 -55 106 -83 191 -131 69 -40 89 -60 57 -60 -8 0 -15 -4 -15 -9 0 -19 25 -17 58 5 18 13 55 33 83 45 27 13 49 26 49 31 0 4 9 8 20 8 11 0 37 7 58 16 71 30 226 84 243 84 9 0 23 7 30 16 12 15 10 16 -21 10 -19 -4 -44 -11 -55 -15 -11 -5 -51 -18 -90 -30 -62 -20 -124 -45 -177 -72 -31 -16 -72 -10 -86 11 -7 11 -19 20 -28 20 -8 0 -27 14 -41 30 -13 17 -31 30 -39 30 -8 0 -27 14 -42 30 -16 17 -36 30 -44 30 -8 0 -18 4 -24 8 -11 10 -89 28 -156 37 -31 4 -49 2 -54 -6z" transform="translate(919,-919) scale(1,1)" stroke="none" fill="#A89BB9"/>
</g>
</g>
</g>

<g id="2" transform="translate(4212.0,0)scale(0.25,0.25)">

<g id="pattern">
<rect width="9126" height="9126" fill="#D8DCC0"/>
<g id="pattern1" transform="matrix(1,0,0,1,568,568)">
<path d="M515 595 c-37 -21 -41 -29 -57 -91 -26 -109 -24 -174 15 -366 20 -101 48 -69 87 97 15 66 20 121 20 235 0 166 1 164 -65 125z" transform="translate(0.000000,0.000000) scale(1,1)" stroke="none" fill="#A89BB9"/>
<path d="M84 859 c-4 -7 2 -19 14 -30 12 -9 43 -35 69 -58 66 -55 106 -83 191 -131 69 -40 89 -60 57 -60 -8 0 -15 -4 -15 -9 0 -19 25 -17 58 5 18 13 55 33 83 45 27 13 49 26 49 31 0 4 9 8 20 8 11 0 37 7 58 16 71 30 226 84 243 84 9 0 23 7 30 16 12 15 10 16 -21 10 -19 -4 -44 -11 -55 -15 -11 -5 -51 -18 -90 -30 -62 -20 -124 -45 -177 -72 -31 -16 -72 -10 -86 11 -7 11 -19 20 -28 20 -8 0 -27 14 -41 30 -13 17 -31 30 -39 30 -8 0 -27 14 -42 30 -16 17 -36 30 -44 30 -8 0 -18 4 -24 8 -11 10 -89 28 -156 37 -31 4 -49 2 -54 -6z" transform="translate(0.000000,0.000000) scale(1,1)" stroke="none" fill="#A89BB9"/>
</g>
<g id="pattern2" transform="matrix(0.618,0,0,0.618,4324,1270)">
<path d="M515 595 c-37 -21 -41 -29 -57 -91 -26 -109 -24 -174 15 -366 20 -101 48 -69 87 97 15 66 20 121 20 235 0 166 1 164 -65 125z" transform="translate(5728,0.000000) scale(-1,1)" stroke="none" fill="#A89BB9"/>
<path d="M84 859 c-4 -7 2 -19 14 -30 12 -9 43 -35 69 -58 66 -55 106 -83 191 -131 69 -40 89 -60 57 -60 -8 0 -15 -4 -15 -9 0 -19 25 -17 58 5 18 13 55 33 83 45 27 13 49 26 49 31 0 4 9 8 20 8 11 0 37 7 58 16 71 30 226 84 243 84 9 0 23 7 30 16 12 15 10 16 -21 10 -19 -4 -44 -11 -55 -15 -11 -5 -51 -18 -90 -30 -62 -20 -124 -45 -177 -72 -31 -16 -72 -10 -86 11 -7 11 -19 20 -28 20 -8 0 -27 14 -41 30 -13 17 -31 30 -39 30 -8 0 -27 14 -42 30 -16 17 -36 30 -44 30 -8 0 -18 4 -24 8 -11 10 -89 28 -156 37 -31 4 -49 2 -54 -6z" transform="translate(5728,0.000000) scale(-1,1)" stroke="none" fill="#A89BB9"/>
</g>
<g id="pattern3" transform="matrix(0.618,0,0,0.618,1621,5728)matrix(0.71,0.71,-0.71,0.71,0,0)">
<path d="M515 595 c-37 -21 -41 -29 -57 -91 -26 -109 -24 -174 15 -366 20 -101 48 -69 87 97 15 66 20 121 20 235 0 166 1 164 -65 125z" transform="translate(919,-919) scale(1,1)" stroke="none" fill="#A89BB9"/>
<path d="M84 859 c-4 -7 2 -19 14 -30 12 -9 43 -35 69 -58 66 -55 106 -83 191 -131 69 -40 89 -60 57 -60 -8 0 -15 -4 -15 -9 0 -19 25 -17 58 5 18 13 55 33 83 45 27 13 49 26 49 31 0 4 9 8 20 8 11 0 37 7 58 16 71 30 226 84 243 84 9 0 23 7 30 16 12 15 10 16 -21 10 -19 -4 -44 -11 -55 -15 -11 -5 -51 -18 -90 -30 -62 -20 -124 -45 -177 -72 -31 -16 -72 -10 -86 11 -7 11 -19 20 -28 20 -8 0 -27 14 -41 30 -13 17 -31 30 -39 30 -8 0 -27 14 -42 30 -16 17 -36 30 -44 30 -8 0 -18 4 -24 8 -11 10 -89 28 -156 37 -31 4 -49 2 -54 -6z" transform="translate(919,-919) scale(1,1)" stroke="none" fill="#A89BB9"/>
</g>
<g id="pattern4" transform="matrix(1.618,0,0,1.618,2403,2403)matrix(0.87,0.5,-0.5,0.87,0,0)">
<path d="M515 595 c-37 -21 -41 -29 -57 -91 -26 -109 -24 -174 15 -366 20 -101 48 -69 87 97 15 66 20 121 20 235 0 166 1 164 -65 125z" transform="translate(919,-919) scale(1,1)" stroke="none" fill="#A89BB9"/>
<path d="M84 859 c-4 -7 2 -19 14 -30 12 -9 43 -35 69 -58 66 -55 106 -83 191 -131 69 -40 89 -60 57 -60 -8 0 -15 -4 -15 -9 0 -19 25 -17 58 5 18 13 55 33 83 45 27 13 49 26 49 31 0 4 9 8 20 8 11 0 37 7 58 16 71 30 226 84 243 84 9 0 23 7 30 16 12 15 10 16 -21 10 -19 -4 -44 -11 -55 -15 -11 -5 -51 -18 -90 -30 -62 -20 -124 -45 -177 -72 -31 -16 -72 -10 -86 11 -7 11 -19 20 -28 20 -8 0 -27 14 -41 30 -13 17 -31 30 -39 30 -8 0 -27 14 -42 30 -16 17 -36 30 -44 30 -8 0 -18 4 -24 8 -11 10 -89 28 -156 37 -31 4 -49 2 -54 -6z" transform="translate(919,-919) scale(1,1)" stroke="none" fill="#A89BB9"/>
</g>
</g>
</g>

<g id="3" transform="translate(6318.0,0)scale(0.25,0.25)">

<g id="pattern">
<rect width="9126" height="9126" fill="#D8DCC0"/>
<g id="pattern1" transform="matrix(1,0,0,1,568,568)">
<path d="M515 595 c-37 -21 -41 -29 -57 -91 -26 -109 -24 -174 15 -366 20 -101 48 -69 87 97 15 66 20 121 20 235 0 166 1 164 -65 125z" transform="translate(0.000000,0.000000) scale(1,1)" stroke="none" fill="#A89BB9"/>
<path d="M84 859 c-4 -7 2 -19 14 -30 12 -9 43 -35 69 -58 66 -55 106 -83 191 -131 69 -40 89 -60 57 -60 -8 0 -15 -4 -15 -9 0 -19 25 -17 58 5 18 13 55 33 83 45 27 13 49 26 49 31 0 4 9 8 20 8 11 0 37 7 58 16 71 30 226 84 243 84 9 0 23 7 30 16 12 15 10 16 -21 10 -19 -4 -44 -11 -55 -15 -11 -5 -51 -18 -90 -30 -62 -20 -124 -45 -177 -72 -31 -16 -72 -10 -86 11 -7 11 -19 20 -28 20 -8 0 -27 14 -41 30 -13 17 -31 30 -39 30 -8 0 -27 14 -42 30 -16 17 -36 30 -44 30 -8 0 -18 4 -24 8 -11 10 -89 28 -156 37 -31 4 -49 2 -54 -6z" transform="translate(0.000000,0.000000) scale(1,1)" stroke="none" fill="#A89BB9"/>
</g>
<g id="pattern2" transform="matrix(0.618,0,0,0.618,4324,1270)">
<path d="M515 595 c-37 -21 -41 -29 -57 -91 -26 -109 -24 -174 15 -366 20 -101 48 -69 87 97 15 66 20 121 20 235 0 166 1 164 -65 125z" transform="translate(5728,0.000000) scale(-1,1)" stroke="none" fill="#A89BB9"/>
<path d="M84 859 c-4 -7 2 -19 14 -30 12 -9 43 -35 69 -58 66 -55 106 -83 191 -131 69 -40 89 -60 57 -60 -8 0 -15 -4 -15 -9 0 -19 25 -17 58 5 18 13 55 33 83 45 27 13 49 26 49 31 0 4 9 8 20 8 11 0 37 7 58 16 71 30 226 84 243 84 9 0 23 7 30 16 12 15 10 16 -21 10 -19 -4 -44 -11 -55 -15 -11 -5 -51 -18 -90 -30 -62 -20 -124 -45 -177 -72 -31 -16 -72 -10 -86 11 -7 11 -19 20 -28 20 -8 0 -27 14 -41 30 -13 17 -31 30 -39 30 -8 0 -27 14 -42 30 -16 17 -36 30 -44 30 -8 0 -18 4 -24 8 -11 10 -89 28 -156 37 -31 4 -49 2 -54 -6z" transform="translate(5728,0.000000) scale(-1,1)" stroke="none" fill="#A89BB9"/>
</g>
<g id="pattern3" transform="matrix(0.618,0,0,0.618,1621,5728)matrix(0.71,0.71,-0.71,0.71,0,0)">
<path d="M515 595 c-37 -21 -41 -29 -57 -91 -26 -109 -24 -174 15 -366 20 -101 48 -69 87 97 15 66 20 121 20 235 0 166 1 164 -65 125z" transform="translate(919,-919) scale(1,1)" stroke="none" fill="#A89BB9"/>
<path d="M84 859 c-4 -7 2 -19 14 -30 12 -9 43 -35 69 -58 66 -55 106 -83 191 -131 69 -40 89 -60 57 -60 -8 0 -15 -4 -15 -9 0 -19 25 -17 58 5 18 13 55 33 83 45 27 13 49 26 49 31 0 4 9 8 20 8 11 0 37 7 58 16 71 30 226 84 243 84 9 0 23 7 30 16 12 15 10 16 -21 10 -19 -4 -44 -11 -55 -15 -11 -5 -51 -18 -90 -30 -62 -20 -124 -45 -177 -72 -31 -16 -72 -10 -86 11 -7 11 -19 20 -28 20 -8 0 -27 14 -41 30 -13 17 -31 30 -39 30 -8 0 -27 14 -42 30 -16 17 -36 30 -44 30 -8 0 -18 4 -24 8 -11 10 -89 28 -156 37 -31 4 -49 2 -54 -6z" transform="translate(919,-919) scale(1,1)" stroke="none" fill="#A89BB9"/>
</g>
<g id="pattern4" transform="matrix(1.618,0,0,1.618,2403,2403)matrix(0.87,0.5,-0.5,0.87,0,0)">
<path d="M515 595 c-37 -21 -41 -29 -57 -91 -26 -109 -24 -174 15 -366 20 -101 48 -69 87 97 15 66 20 121 20 235 0 166 1 164 -65 125z" transform="translate(919,-919) scale(1,1)" stroke="none" fill="#A89BB9"/>
<path d="M84 859 c-4 -7 2 -19 14 -30 12 -9 43 -35 69 -58 66 -55 106 -83 191 -131 69 -40 89 -60 57 -60 -8 0 -15 -4 -15 -9 0 -19 25 -17 58 5 18 13 55 33 83 45 27 13 49 26 49 31 0 4 9 8 20 8 11 0 37 7 58 16 71 30 226 84 243 84 9 0 23 7 30 16 12 15 10 16 -21 10 -19 -4 -44 -11 -55 -15 -11 -5 -51 -18 -90 -30 -62 -20 -124 -45 -177 -72 -31 -16 -72 -10 -86 11 -7 11 -19 20 -28 20 -8 0 -27 14 -41 30 -13 17 -31 30 -39 30 -8 0 -27 14 -42 30 -16 17 -36 30 -44 30 -8 0 -18 4 -24 8 -11 10 -89 28 -156 37 -31 4 -49 2 -54 -6z" transform="translate(919,-919) scale(1,1)" stroke="none" fill="#A89BB9"/>
</g>
</g>
</g>

<g id="4" transform="translate(8424.0,0)scale(0.25,0.25)">

<g id="pattern">
<rect width="9126" height="9126" fill="#D8DCC0"/>
<g id="pattern1" transform="matrix(1,0,0,1,568,568)">
<path d="M515 595 c-37 -21 -41 -29 -57 -91 -26 -109 -24 -174 15 -366 20 -101 48 -69 87 97 15 66 20 121 20 235 0 166 1 164 -65 125z" transform="translate(0.000000,0.000000) scale(1,1)" stroke="none" fill="#A89BB9"/>
<path d="M84 859 c-4 -7 2 -19 14 -30 12 -9 43 -35 69 -58 66 -55 106 -83 191 -131 69 -40 89 -60 57 -60 -8 0 -15 -4 -15 -9 0 -19 25 -17 58 5 18 13 55 33 83 45 27 13 49 26 49 31 0 4 9 8 20 8 11 0 37 7 58 16 71 30 226 84 243 84 9 0 23 7 30 16 12 15 10 16 -21 10 -19 -4 -44 -11 -55 -15 -11 -5 -51 -18 -90 -30 -62 -20 -124 -45 -177 -72 -31 -16 -72 -10 -86 11 -7 11 -19 20 -28 20 -8 0 -27 14 -41 30 -13 17 -31 30 -39 30 -8 0 -27 14 -42 30 -16 17 -36 30 -44 30 -8 0 -18 4 -24 8 -11 10 -89 28 -156 37 -31 4 -49 2 -54 -6z" transform="translate(0.000000,0.000000) scale(1,1)" stroke="none" fill="#A89BB9"/>
</g>
<g id="pattern2" transform="matrix(0.618,0,0,0.618,4324,1270)">
<path d="M515 595 c-37 -21 -41 -29 -57 -91 -26 -109 -24 -174 15 -366 20 -101 48 -69 87 97 15 66 20 121 20 235 0 166 1 164 -65 125z" transform="translate(5728,0.000000) scale(-1,1)" stroke="none" fill="#A89BB9"/>
<path d="M84 859 c-4 -7 2 -19 14 -30 12 -9 43 -35 69 -58 66 -55 106 -83 191 -131 69 -40 89 -60 57 -60 -8 0 -15 -4 -15 -9 0 -19 25 -17 58 5 18 13 55 33 83 45 27 13 49 26 49 31 0 4 9 8 20 8 11 0 37 7 58 16 71 30 226 84 243 84 9 0 23 7 30 16 12 15 10 16 -21 10 -19 -4 -44 -11 -55 -15 -11 -5 -51 -18 -90 -30 -62 -20 -124 -45 -177 -72 -31 -16 -72 -10 -86 11 -7 11 -19 20 -28 20 -8 0 -27 14 -41 30 -13 17 -31 30 -39 30 -8 0 -27 14 -42 30 -16 17 -36 30 -44 30 -8 0 -18 4 -24 8 -11 10 -89 28 -156 37 -31 4 -49 2 -54 -6z" transform="translate(5728,0.000000) scale(-1,1)" stroke="none" fill="#A89BB9"/>
</g>
<g id="pattern3" transform="matrix(0.618,0,0,0.618,1621,5728)matrix(0.71,0.71,-0.71,0.71,0,0)">
<path d="M515 595 c-37 -21 -41 -29 -57 -91 -26 -109 -24 -174 15 -366 20 -101 48 -69 87 97 15 66 20 121 20 235 0 166 1 164 -65 125z" transform="translate(919,-919) scale(1,1)" stroke="none" fill="#A89BB9"/>
<path d="M84 859 c-4 -7 2 -19 14 -30 12 -9 43 -35 69 -58 66 -55 106 -83 191 -131 69 -40 89 -60 57 -60 -8 0 -15 -4 -15 -9 0 -19 25 -17 58 5 18 13 55 33 83 45 27 13 49 26 49 31 0 4 9 8 20 8 11 0 37 7 58 16 71 30 226 84 243 84 9 0 23 7 30 16 12 15 10 16 -21 10 -19 -4 -44 -11 -55 -15 -11 -5 -51 -18 -90 -30 -62 -20 -124 -45 -177 -72 -31 -16 -72 -10 -86 11 -7 11 -19 20 -28 20 -8 0 -27 14 -41 30 -13 17 -31 30 -39 30 -8 0 -27 14 -42 30 -16 17 -36 30 -44 30 -8 0 -18 4 -24 8 -11 10 -89 28 -156 37 -31 4 -49 2 -54 -6z" transform="translate(919,-919) scale(1,1)" stroke="none" fill="#A89BB9"/>
</g>
<g id="pattern4" transform="matrix(1.618,0,0,1.618,2403,2403)matrix(0.87,0.5,-0.5,0.87,0,0)">
<path d="M515 595 c-37 -21 -41 -29 -57 -91 -26 -109 -24 -174 15 -366 20 -101 48 -69 87 97 15 66 20 121 20 235 0 166 1 164 -65 125z" transform="translate(919,-919) scale(1,1)" stroke="none" fill="#A89BB9"/>
<path d="M84 859 c-4 -7 2 -19 14 -30 12 -9 43 -35 69 -58 66 -55 106 -83 191 -131 69 -40 89 -60 57 -60 -8 0 -15 -4 -15 -9 0 -19 25 -17 58 5 18 13 55 33 83 45 27 13 49 26 49 31 0 4 9 8 20 8 11 0 37 7 58 16 71 30 226 84 243 84 9 0 23 7 30 16 12 15 10 16 -21 10 -19 -4 -44 -11 -55 -15 -11 -5 -51 -18 -90 -30 -62 -20 -124 -45 -177 -72 -31 -16 -72 -10 -86 11 -7 11 -19 20 -28 20 -8 0 -27 14 -41 30 -13 17 -31 30 -39 30 -8 0 -27 14 -42 30 -16 17 -36 30 -44 30 -8 0 -18 4 -24 8 -11 10 -89 28 -156 37 -31 4 -49 2 -54 -6z" transform="translate(919,-919) scale(1,1)" stroke="none" fill="#A89BB9"/>
</g>
</g>
</g>

</g>
</svg>