<?xml version="1.0" standalone="no"?>
<!DOCTYPE svg PUBLIC "-//W3C//DTD SVG 20010904//EN"
 "http://www.w3.org/TR/2001/REC-SVG-20010904/DTD/svg10.dtd">
<svg version="1.0" xmlns="http://www.w3.org/2000/svg" width="736pt" height="504pt" viewBox="0 0 736 504" preserveAspectRatio = "xMidYMid meet" >
<metadata>
Created by ZoeQu, written in 2022
</metadata>
<rect width="736" height="504" fill="#D8DCC0"/>
<g id="row0" transform="translate(24,0.0)">
<g id="0" transform="translate(0.0,0)scale(1,1)">

<path d="M515 595 c-37 -21 -41 -29 -57 -91 -26 -109 -24 -174 15 -366 20 -101 48 -69 87 97 15 66 20 121 20 235 0 166 1 164 -65 125z" transform="translate(0,126) scale(0.1,-0.1)" stroke="none" fill="#A89BB9"/>

<path d="M84 859 c-4 -7 2 -19 14 -30 12 -9 43 -35 69 -58 66 -55 106 -83 191 -131 69 -40 89 -60 57 -60 -8 0 -15 -4 -15 -9 0 -19 25 -17 58 5 18 13 55 33 83 45 27 13 49 26 49 31 0 4 9 8 20 8 11 0 37 7 58 16 71 30 226 84 243 84 9 0 23 7 30 16 12 15 10 16 -21 10 -19 -4 -44 -11 -55 -15 -11 -5 -51 -18 -90 -30 -62 -20 -124 -45 -177 -72 -31 -16 -72 -10 -86 11 -7 11 -19 20 -28 20 -8 0 -27 14 -41 30 -13 17 -31 30 -39 30 -8 0 -27 14 -42 30 -16 17 -36 30 -44 30 -8 0 -18 4 -24 8 -11 10 -89 28 -156 37 -31 4 -49 2 -54 -6z" transform="translate(0,126) scale(0.1,-0.1)" stroke="none" fill="#A89BB9"/>

</g>

<g id="1" transform="translate(184.0,0)scale(1,1)">

<path d="M515 595 c-37 -21 -41 -29 -57 -91 -26 -109 -24 -174 15 -366 20 -101 48 -69 87 97 15 66 20 121 20 235 0 166 1 164 -65 125z" transform="translate(0,126) scale(0.1,-0.1)" stroke="none" fill="#A89BB9"/>

<path d="M84 859 c-4 -7 2 -19 14 -30 12 -9 43 -35 69 -58 66 -55 106 -83 191 -131 69 -40 89 -60 57 -60 -8 0 -15 -4 -15 -9 0 -19 25 -17 58 5 18 13 55 33 83 45 27 13 49 26 49 31 0 4 9 8 20 8 11 0 37 7 58 16 71 30 226 84 243 84 9 0 23 7 30 16 12 15 10 16 -21 10 -19 -4 -44 -11 -55 -15 -11 -5 -51 -18 -90 -30 -62 -20 -124 -45 -177 -72 -31 -16 -72 -10 -86 11 -7 11 -19 20 -28 20 -8 0 -27 14 -41 30 -13 17 -31 30 -39 30 -8 0 -27 14 -42 30 -16 17 -36 30 -44 30 -8 0 -18 4 -24 8 -11 10 -89 28 -156 37 -31 4 -49 2 -54 -6z" transform="translate(0,126) scale(0.1,-0.1)" stroke="none" fill="#A89BB9"/>

</g>

<g id="2" transform="translate(368.0,0)scale(1,1)">

<path d="M515 595 c-37 -21 -41 -29 -57 -91 -26 -109 -24 -174 15 -366 20 -101 48 -69 87 97 15 66 20 121 20 235 0 166 1 164 -65 125z" transform="translate(0,126) scale(0.1,-0.1)" stroke="none" fill="#A89BB9"/>

<path d="M84 859 c-4 -7 2 -19 14 -30 12 -9 43 -35 69 -58 66 -55 106 -83 191 -131 69 -40 89 -60 57 -60 -8 0 -15 -4 -15 -9 0 -19 25 -17 58 5 18 13 55 33 83 45 27 13 49 26 49 31 0 4 9 8 20 8 11 0 37 7 58 16 71 30 226 84 243 84 9 0 23 7 30 16 12 15 10 16 -21 10 -19 -4 -44 -11 -55 -15 -11 -5 -51 -18 -90 -30 -62 -20 -124 -45 -177 -72 -31 -16 -72 -10 -86 11 -7 11 -19 20 -28 20 -8 0 -27 14 -41 30 -13 17 -31 30 -39 30 -8 0 -27 14 -42 30 -16 17 -36 30 -44 30 -8 0 -18 4 -24 8 -11 10 -89 28 -156 37 -31 4 -49 2 -54 -6z" transform="translate(0,126) scale(0.1,-0.1)" stroke="none" fill="#A89BB9"/>

</g>

<g id="3" transform="translate(552.0,0)scale(1,1)">

<path d="M515 595 c-37 -21 -41 -29 -57 -91 -26 -109 -24 -174 15 -366 20 -101 48 -69 87 97 15 66 20 121 20 235 0 166 1 164 -65 125z" transform="translate(0,126) scale(0.1,-0.1)" stroke="none" fill="#A89BB9"/>

<path d="M84 859 c-4 -7 2 -19 14 -30 12 -9 43 -35 69 -58 66 -55 106 -83 191 -131 69 -40 89 -60 57 -60 -8 0 -15 -4 -15 -9 0 -19 25 -17 58 5 18 13 55 33 83 45 27 13 49 26 49 31 0 4 9 8 20 8 11 0 37 7 58 16 71 30 226 84 243 84 9 0 23 7 30 16 12 15 10 16 -21 10 -19 -4 -44 -11 -55 -15 -11 -5 -51 -18 -90 -30 -62 -20 -124 -45 -177 -72 -31 -16 -72 -10 -86 11 -7 11 -19 20 -28 20 -8 0 -27 14 -41 30 -13 17 -31 30 -39 30 -8 0 -27 14 -42 30 -16 17 -36 30 -44 30 -8 0 -18 4 -24 8 -11 10 -89 28 -156 37 -31 4 -49 2 -54 -6z" transform="translate(0,126) scale(0.1,-0.1)" stroke="none" fill="#A89BB9"/>

</g>

<g id="4" transform="translate(736.0,0)scale(1,1)">

<path d="M515 595 c-37 -21 -41 -29 -57 -91 -26 -109 -24 -174 15 -366 20 -101 48 -69 87 97 15 66 20 121 20 235 0 166 1 164 -65 125z" transform="translate(0,126) scale(0.1,-0.1)" stroke="none" fill="#A89BB9"/>

<path d="M84 859 c-4 -7 2 -19 14 -30 12 -9 43 -35 69 -58 66 -55 106 -83 191 -131 69 -40 89 -60 57 -60 -8 0 -15 -4 -15 -9 0 -19 25 -17 58 5 18 13 55 33 83 45 27 13 49 26 49 31 0 4 9 8 20 8 11 0 37 7 58 16 71 30 226 84 243 84 9 0 23 7 30 16 12 15 10 16 -21 10 -19 -4 -44 -11 -55 -15 -11 -5 -51 -18 -90 -30 -62 -20 -124 -45 -177 -72 -31 -16 -72 -10 -86 11 -7 11 -19 20 -28 20 -8 0 -27 14 -41 30 -13 17 -31 30 -39 30 -8 0 -27 14 -42 30 -16 17 -36 30 -44 30 -8 0 -18 4 -24 8 -11 10 -89 28 -156 37 -31 4 -49 2 -54 -6z" transform="translate(0,126) scale(0.1,-0.1)" stroke="none" fill="#A89BB9"/>

</g>

</g>
<g id="row1" transform="translate(24,126.0)">
<g id="0" transform="translate(0.0,0)scale(1,1)">

<path d="M515 595 c-37 -21 -41 -29 -57 -91 -26 -109 -24 -174 15 -366 20 -101 48 -69 87 97 15 66 20 121 20 235 0 166 1 164 -65 125z" transform="translate(0,126) scale(0.1,-0.1)" stroke="none" fill="#A89BB9"/>

<path d="M84 859 c-4 -7 2 -19 14 -30 12 -9 43 -35 69 -58 66 -55 106 -83 191 -131 69 -40 89 -60 57 -60 -8 0 -15 -4 -15 -9 0 -19 25 -17 58 5 18 13 55 33 83 45 27 13 49 26 49 31 0 4 9 8 20 8 11 0 37 7 58 16 71 30 226 84 243 84 9 0 23 7 30 16 12 15 10 16 -21 10 -19 -4 -44 -11 -55 -15 -11 -5 -51 -18 -90 -30 -62 -20 -124 -45 -177 -72 -31 -16 -72 -10 -86 11 -7 11 -19 20 -28 20 -8 0 -27 14 -41 30 -13 17 -31 30 -39 30 -8 0 -27 14 -42 30 -16 17 -36 30 -44 30 -8 0 -18 4 -24 8 -11 10 -89 28 -156 37 -31 4 -49 2 -54 -6z" transform="translate(0,126) scale(0.1,-0.1)" stroke="none" fill="#A89BB9"/>

</g>

<g id="1" transform="translate(184.0,0)scale(1,1)">

<path d="M515 595 c-37 -21 -41 -29 -57 -91 -26 -109 -24 -174 15 -366 20 -101 48 -69 87 97 15 66 20 121 20 235 0 166 1 164 -65 125z" transform="translate(0,126) scale(0.1,-0.1)" stroke="none" fill="#A89BB9"/>

<path d="M84 859 c-4 -7 2 -19 14 -30 12 -9 43 -35 69 -58 66 -55 106 -83 191 -131 69 -40 89 -60 57 -60 -8 0 -15 -4 -15 -9 0 -19 25 -17 58 5 18 13 55 33 83 45 27 13 49 26 49 31 0 4 9 8 20 8 11 0 37 7 58 16 71 30 226 84 243 84 9 0 23 7 30 16 12 15 10 16 -21 10 -19 -4 -44 -11 -55 -15 -11 -5 -51 -18 -90 -30 -62 -20 -124 -45 -177 -72 -31 -16 -72 -10 -86 11 -7 11 -19 20 -28 20 -8 0 -27 14 -41 30 -13 17 -31 30 -39 30 -8 0 -27 14 -42 30 -16 17 -36 30 -44 30 -8 0 -18 4 -24 8 -11 10 -89 28 -156 37 -31 4 -49 2 -54 -6z" transform="translate(0,126) scale(0.1,-0.1)" stroke="none" fill="#A89BB9"/>

</g>

<g id="2" transform="translate(368.0,0)scale(1,1)">

<path d="M515 595 c-37 -21 -41 -29 -57 -91 -26 -109 -24 -174 15 -366 20 -101 48 -69 87 97 15 66 20 121 20 235 0 166 1 164 -65 125z" transform="translate(0,126) scale(0.1,-0.1)" stroke="none" fill="#A89BB9"/>

<path d="M84 859 c-4 -7 2 -19 14 -30 12 -9 43 -35 69 -58 66 -55 106 -83 191 -131 69 -40 89 -60 57 -60 -8 0 -15 -4 -15 -9 0 -19 25 -17 58 5 18 13 55 33 83 45 27 13 49 26 49 31 0 4 9 8 20 8 11 0 37 7 58 16 71 30 226 84 243 84 9 0 23 7 30 16 12 15 10 16 -21 10 -19 -4 -44 -11 -55 -15 -11 -5 -51 -18 -90 -30 -62 -20 -124 -45 -177 -72 -31 -16 -72 -10 -86 11 -7 11 -19 20 -28 20 -8 0 -27 14 -41 30 -13 17 -31 30 -39 30 -8 0 -27 14 -42 30 -16 17 -36 30 -44 30 -8 0 -18 4 -24 8 -11 10 -89 28 -156 37 -31 4 -49 2 -54 -6z" transform="translate(0,126) scale(0.1,-0.1)" stroke="none" fill="#A89BB9"/>

</g>

<g id="3" transform="translate(552.0,0)scale(1,1)">

<path d="M515 595 c-37 -21 -41 -29 -57 -91 -26 -109 -24 -174 15 -366 20 -101 48 -69 87 97 15 66 20 121 20 235 0 166 1 164 -65 125z" transform="translate(0,126) scale(0.1,-0.1)" stroke="none" fill="#A89BB9"/>

<path d="M84 859 c-4 -7 2 -19 14 -30 12 -9 43 -35 69 -58 66 -55 106 -83 191 -131 69 -40 89 -60 57 -60 -8 0 -15 -4 -15 -9 0 -19 25 -17 58 5 18 13 55 33 83 45 27 13 49 26 49 31 0 4 9 8 20 8 11 0 37 7 58 16 71 30 226 84 243 84 9 0 23 7 30 16 12 15 10 16 -21 10 -19 -4 -44 -11 -55 -15 -11 -5 -51 -18 -90 -30 -62 -20 -124 -45 -177 -72 -31 -16 -72 -10 -86 11 -7 11 -19 20 -28 20 -8 0 -27 14 -41 30 -13 17 -31 30 -39 30 -8 0 -27 14 -42 30 -16 17 -36 30 -44 30 -8 0 -18 4 -24 8 -11 10 -89 28 -156 37 -31 4 -49 2 -54 -6z" transform="translate(0,126) scale(0.1,-0.1)" stroke="none" fill="#A89BB9"/>

</g>

<g id="4" transform="translate(736.0,0)scale(1,1)">

<path d="M515 595 c-37 -21 -41 -29 -57 -91 -26 -109 -24 -174 15 -366 20 -101 48 -69 87 97 15 66 20 121 20 235 0 166 1 164 -65 125z" transform="translate(0,126) scale(0.1,-0.1)" stroke="none" fill="#A89BB9"/>

<path d="M84 859 c-4 -7 2 -19 14 -30 12 -9 43 -35 69 -58 66 -55 106 -83 191 -131 69 -40 89 -60 57 -60 -8 0 -15 -4 -15 -9 0 -19 25 -17 58 5 18 13 55 33 83 45 27 13 49 26 49 31 0 4 9 8 20 8 11 0 37 7 58 16 71 30 226 84 243 84 9 0 23 7 30 16 12 15 10 16 -21 10 -19 -4 -44 -11 -55 -15 -11 -5 -51 -18 -90 -30 -62 -20 -124 -45 -177 -72 -31 -16 -72 -10 -86 11 -7 11 -19 20 -28 20 -8 0 -27 14 -41 30 -13 17 -31 30 -39 30 -8 0 -27 14 -42 30 -16 17 -36 30 -44 30 -8 0 -18 4 -24 8 -11 10 -89 28 -156 37 -31 4 -49 2 -54 -6z" transform="translate(0,126) scale(0.1,-0.1)" stroke="none" fill="#A89BB9"/>

</g>

</g>
<g id="row2" transform="translate(24,252.0)">
<g id="0" transform="translate(0.0,0)scale(1,1)">

<path d="M515 595 c-37 -21 -41 -29 -57 -91 -26 -109 -24 -174 15 -366 20 -101 48 -69 87 97 15 66 20 121 20 235 0 166 1 164 -65 125z" transform="translate(0,126) scale(0.1,-0.1)" stroke="none" fill="#A89BB9"/>

<path d="M84 859 c-4 -7 2 -19 14 -30 12 -9 43 -35 69 -58 66 -55 106 -83 191 -131 69 -40 89 -60 57 -60 -8 0 -15 -4 -15 -9 0 -19 25 -17 58 5 18 13 55 33 83 45 27 13 49 26 49 31 0 4 9 8 20 8 11 0 37 7 58 16 71 30 226 84 243 84 9 0 23 7 30 16 12 15 10 16 -21 10 -19 -4 -44 -11 -55 -15 -11 -5 -51 -18 -90 -30 -62 -20 -124 -45 -177 -72 -31 -16 -72 -10 -86 11 -7 11 -19 20 -28 20 -8 0 -27 14 -41 30 -13 17 -31 30 -39 30 -8 0 -27 14 -42 30 -16 17 -36 30 -44 30 -8 0 -18 4 -24 8 -11 10 -89 28 -156 37 -31 4 -49 2 -54 -6z" transform="translate(0,126) scale(0.1,-0.1)" stroke="none" fill="#A89BB9"/>

</g>

<g id="1" transform="translate(184.0,0)scale(1,1)">

<path d="M515 595 c-37 -21 -41 -29 -57 -91 -26 -109 -24 -174 15 -366 20 -101 48 -69 87 97 15 66 20 121 20 235 0 166 1 164 -65 125z" transform="translate(0,126) scale(0.1,-0.1)" stroke="none" fill="#A89BB9"/>

<path d="M84 859 c-4 -7 2 -19 14 -30 12 -9 43 -35 69 -58 66 -55 106 -83 191 -131 69 -40 89 -60 57 -60 -8 0 -15 -4 -15 -9 0 -19 25 -17 58 5 18 13 55 33 83 45 27 13 49 26 49 31 0 4 9 8 20 8 11 0 37 7 58 16 71 30 226 84 243 84 9 0 23 7 30 16 12 15 10 16 -21 10 -19 -4 -44 -11 -55 -15 -11 -5 -51 -18 -90 -30 -62 -20 -124 -45 -177 -72 -31 -16 -72 -10 -86 11 -7 11 -19 20 -28 20 -8 0 -27 14 -41 30 -13 17 -31 30 -39 30 -8 0 -27 14 -42 30 -16 17 -36 30 -44 30 -8 0 -18 4 -24 8 -11 10 -89 28 -156 37 -31 4 -49 2 -54 -6z" transform="translate(0,126) scale(0.1,-0.1)" stroke="none" fill="#A89BB9"/>

</g>

<g id="2" transform="translate(368.0,0)scale(1,1)">

<path d="M515 595 c-37 -21 -41 -29 -57 -91 -26 -109 -24 -174 15 -366 20 -101 48 -69 87 97 15 66 20 121 20 235 0 166 1 164 -65 125z" transform="translate(0,126) scale(0.1,-0.1)" stroke="none" fill="#A89BB9"/>

<path d="M84 859 c-4 -7 2 -19 14 -30 12 -9 43 -35 69 -58 66 -55 106 -83 191 -131 69 -40 89 -60 57 -60 -8 0 -15 -4 -15 -9 0 -19 25 -17 58 5 18 13 55 33 83 45 27 13 49 26 49 31 0 4 9 8 20 8 11 0 37 7 58 16 71 30 226 84 243 84 9 0 23 7 30 16 12 15 10 16 -21 10 -19 -4 -44 -11 -55 -15 -11 -5 -51 -18 -90 -30 -62 -20 -124 -45 -177 -72 -31 -16 -72 -10 -86 11 -7 11 -19 20 -28 20 -8 0 -27 14 -41 30 -13 17 -31 30 -39 30 -8 0 -27 14 -42 30 -16 17 -36 30 -44 30 -8 0 -18 4 -24 8 -11 10 -89 28 -156 37 -31 4 -49 2 -54 -6z" transform="translate(0,126) scale(0.1,-0.1)" stroke="none" fill="#A89BB9"/>

</g>

<g id="3" transform="translate(552.0,0)scale(1,1)">

<path d="M515 595 c-37 -21 -41 -29 -57 -91 -26 -109 -24 -174 15 -366 20 -101 48 -69 87 97 15 66 20 121 20 235 0 166 1 164 -65 125z" transform="translate(0,126) scale(0.1,-0.1)" stroke="none" fill="#A89BB9"/>

<path d="M84 859 c-4 -7 2 -19 14 -30 12 -9 43 -35 69 -58 66 -55 106 -83 191 -131 69 -40 89 -60 57 -60 -8 0 -15 -4 -15 -9 0 -19 25 -17 58 5 18 13 55 33 83 45 27 13 49 26 49 31 0 4 9 8 20 8 11 0 37 7 58 16 71 30 226 84 243 84 9 0 23 7 30 16 12 15 10 16 -21 10 -19 -4 -44 -11 -55 -15 -11 -5 -51 -18 -90 -30 -62 -20 -124 -45 -177 -72 -31 -16 -72 -10 -86 11 -7 11 -19 20 -28 20 -8 0 -27 14 -41 30 -13 17 -31 30 -39 30 -8 0 -27 14 -42 30 -16 17 -36 30 -44 30 -8 0 -18 4 -24 8 -11 10 -89 28 -156 37 -31 4 -49 2 -54 -6z" transform="translate(0,126) scale(0.1,-0.1)" stroke="none" fill="#A89BB9"/>

</g>

<g id="4" transform="translate(736.0,0)scale(1,1)">

<path d="M515 595 c-37 -21 -41 -29 -57 -91 -26 -109 -24 -174 15 -366 20 -101 48 -69 87 97 15 66 20 121 20 235 0 166 1 164 -65 125z" transform="translate(0,126) scale(0.1,-0.1)" stroke="none" fill="#A89BB9"/>

<path d="M84 859 c-4 -7 2 -19 14 -30 12 -9 43 -35 69 -58 66 -55 106 -83 191 -131 69 -40 89 -60 57 -60 -8 0 -15 -4 -15 -9 0 -19 25 -17 58 5 18 13 55 33 83 45 27 13 49 26 49 31 0 4 9 8 20 8 11 0 37 7 58 16 71 30 226 84 243 84 9 0 23 7 30 16 12 15 10 16 -21 10 -19 -4 -44 -11 -55 -15 -11 -5 -51 -18 -90 -30 -62 -20 -124 -45 -177 -72 -31 -16 -72 -10 -86 11 -7 11 -19 20 -28 20 -8 0 -27 14 -41 30 -13 17 -31 30 -39 30 -8 0 -27 14 -42 30 -16 17 -36 30 -44 30 -8 0 -18 4 -24 8 -11 10 -89 28 -156 37 -31 4 -49 2 -54 -6z" transform="translate(0,126) scale(0.1,-0.1)" stroke="none" fill="#A89BB9"/>

</g>

</g>
<g id="row3" transform="translate(24,378.0)">
<g id="0" transform="translate(0.0,0)scale(1,1)">

<path d="M515 595 c-37 -21 -41 -29 -57 -91 -26 -109 -24 -174 15 -366 20 -101 48 -69 87 97 15 66 20 121 20 235 0 166 1 164 -65 125z" transform="translate(0,126) scale(0.1,-0.1)" stroke="none" fill="#A89BB9"/>

<path d="M84 859 c-4 -7 2 -19 14 -30 12 -9 43 -35 69 -58 66 -55 106 -83 191 -131 69 -40 89 -60 57 -60 -8 0 -15 -4 -15 -9 0 -19 25 -17 58 5 18 13 55 33 83 45 27 13 49 26 49 31 0 4 9 8 20 8 11 0 37 7 58 16 71 30 226 84 243 84 9 0 23 7 30 16 12 15 10 16 -21 10 -19 -4 -44 -11 -55 -15 -11 -5 -51 -18 -90 -30 -62 -20 -124 -45 -177 -72 -31 -16 -72 -10 -86 11 -7 11 -19 20 -28 20 -8 0 -27 14 -41 30 -13 17 -31 30 -39 30 -8 0 -27 14 -42 30 -16 17 -36 30 -44 30 -8 0 -18 4 -24 8 -11 10 -89 28 -156 37 -31 4 -49 2 -54 -6z" transform="translate(0,126) scale(0.1,-0.1)" stroke="none" fill="#A89BB9"/>

</g>

<g id="1" transform="translate(184.0,0)scale(1,1)">

<path d="M515 595 c-37 -21 -41 -29 -57 -91 -26 -109 -24 -174 15 -366 20 -101 48 -69 87 97 15 66 20 121 20 235 0 166 1 164 -65 125z" transform="translate(0,126) scale(0.1,-0.1)" stroke="none" fill="#A89BB9"/>

<path d="M84 859 c-4 -7 2 -19 14 -30 12 -9 43 -35 69 -58 66 -55 106 -83 191 -131 69 -40 89 -60 57 -60 -8 0 -15 -4 -15 -9 0 -19 25 -17 58 5 18 13 55 33 83 45 27 13 49 26 49 31 0 4 9 8 20 8 11 0 37 7 58 16 71 30 226 84 243 84 9 0 23 7 30 16 12 15 10 16 -21 10 -19 -4 -44 -11 -55 -15 -11 -5 -51 -18 -90 -30 -62 -20 -124 -45 -177 -72 -31 -16 -72 -10 -86 11 -7 11 -19 20 -28 20 -8 0 -27 14 -41 30 -13 17 -31 30 -39 30 -8 0 -27 14 -42 30 -16 17 -36 30 -44 30 -8 0 -18 4 -24 8 -11 10 -89 28 -156 37 -31 4 -49 2 -54 -6z" transform="translate(0,126) scale(0.1,-0.1)" stroke="none" fill="#A89BB9"/>

</g>

<g id="2" transform="translate(368.0,0)scale(1,1)">

<path d="M515 595 c-37 -21 -41 -29 -57 -91 -26 -109 -24 -174 15 -366 20 -101 48 -69 87 97 15 66 20 121 20 235 0 166 1 164 -65 125z" transform="translate(0,126) scale(0.1,-0.1)" stroke="none" fill="#A89BB9"/>

<path d="M84 859 c-4 -7 2 -19 14 -30 12 -9 43 -35 69 -58 66 -55 106 -83 191 -131 69 -40 89 -60 57 -60 -8 0 -15 -4 -15 -9 0 -19 25 -17 58 5 18 13 55 33 83 45 27 13 49 26 49 31 0 4 9 8 20 8 11 0 37 7 58 16 71 30 226 84 243 84 9 0 23 7 30 16 12 15 10 16 -21 10 -19 -4 -44 -11 -55 -15 -11 -5 -51 -18 -90 -30 -62 -20 -124 -45 -177 -72 -31 -16 -72 -10 -86 11 -7 11 -19 20 -28 20 -8 0 -27 14 -41 30 -13 17 -31 30 -39 30 -8 0 -27 14 -42 30 -16 17 -36 30 -44 30 -8 0 -18 4 -24 8 -11 10 -89 28 -156 37 -31 4 -49 2 -54 -6z" transform="translate(0,126) scale(0.1,-0.1)" stroke="none" fill="#A89BB9"/>

</g>

<g id="3" transform="translate(552.0,0)scale(1,1)">

<path d="M515 595 c-37 -21 -41 -29 -57 -91 -26 -109 -24 -174 15 -366 20 -101 48 -69 87 97 15 66 20 121 20 235 0 166 1 164 -65 125z" transform="translate(0,126) scale(0.1,-0.1)" stroke="none" fill="#A89BB9"/>

<path d="M84 859 c-4 -7 2 -19 14 -30 12 -9 43 -35 69 -58 66 -55 106 -83 191 -131 69 -40 89 -60 57 -60 -8 0 -15 -4 -15 -9 0 -19 25 -17 58 5 18 13 55 33 83 45 27 13 49 26 49 31 0 4 9 8 20 8 11 0 37 7 58 16 71 30 226 84 243 84 9 0 23 7 30 16 12 15 10 16 -21 10 -19 -4 -44 -11 -55 -15 -11 -5 -51 -18 -90 -30 -62 -20 -124 -45 -177 -72 -31 -16 -72 -10 -86 11 -7 11 -19 20 -28 20 -8 0 -27 14 -41 30 -13 17 -31 30 -39 30 -8 0 -27 14 -42 30 -16 17 -36 30 -44 30 -8 0 -18 4 -24 8 -11 10 -89 28 -156 37 -31 4 -49 2 -54 -6z" transform="translate(0,126) scale(0.1,-0.1)" stroke="none" fill="#A89BB9"/>

</g>

<g id="4" transform="translate(736.0,0)scale(1,1)">

<path d="M515 595 c-37 -21 -41 -29 -57 -91 -26 -109 -24 -174 15 -366 20 -101 48 -69 87 97 15 66 20 121 20 235 0 166 1 164 -65 125z" transform="translate(0,126) scale(0.1,-0.1)" stroke="none" fill="#A89BB9"/>

<path d="M84 859 c-4 -7 2 -19 14 -30 12 -9 43 -35 69 -58 66 -55 106 -83 191 -131 69 -40 89 -60 57 -60 -8 0 -15 -4 -15 -9 0 -19 25 -17 58 5 18 13 55 33 83 45 27 13 49 26 49 31 0 4 9 8 20 8 11 0 37 7 58 16 71 30 226 84 243 84 9 0 23 7 30 16 12 15 10 16 -21 10 -19 -4 -44 -11 -55 -15 -11 -5 -51 -18 -90 -30 -62 -20 -124 -45 -177 -72 -31 -16 -72 -10 -86 11 -7 11 -19 20 -28 20 -8 0 -27 14 -41 30 -13 17 -31 30 -39 30 -8 0 -27 14 -42 30 -16 17 -36 30 -44 30 -8 0 -18 4 -24 8 -11 10 -89 28 -156 37 -31 4 -49 2 -54 -6z" transform="translate(0,126) scale(0.1,-0.1)" stroke="none" fill="#A89BB9"/>

</g>

</g>
</svg>