<?xml version="1.0" standalone="no"?>
<!DOCTYPE svg PUBLIC "-//W3C//DTD SVG 20010904//EN"
 "http://www.w3.org/TR/2001/REC-SVG-20010904/DTD/svg10.dtd">
<svg version="1.0" xmlns="http://www.w3.org/2000/svg" width="320pt" height="368pt" viewBox="0 0 320 368" preserveAspectRatio = "xMidYMid meet" >
<metadata>
Created by ZoeQu, written in 2022
</metadata>
<rect width="320" height="368" fill="#A4D7DC"/>
<g id="col0" transform="translate(0, 12)">
<g id="0" transform="translate(0,0.0)scale(0.8,0.8)">

<path d="M445 891 c-18 -4 10 -7 70 -8 127 0 180 -14 200 -53 14 -26 13 -30 -3 -39 -16 -10 -16 -10 1 -11 29 0 31 28 4 64 -22 29 -34 34 -96 44 -75 13 -129 14 -176 3z" transform="translate(0,92) scale(0.1,-0.1)" stroke="none" fill="#EA9D28"/>

<path d="M259 841 c-149 -74 -231 -198 -227 -343 l1 -73 7 80 c7 94 32 162 78 216 36 41 115 99 172 123 19 8 28 15 20 15 -8 0 -31 -8 -51 -18z" transform="translate(0,92) scale(0.1,-0.1)" stroke="none" fill="#EA9D28"/>

<path d="M41 393 c-1 -27 57 -140 99 -193 35 -44 171 -150 193 -150 16 0 15 36 -4 125 -6 28 -7 16 -3 -39 l6 -78 -59 40 c-106 73 -179 163 -214 266 -10 29 -18 42 -18 29z" transform="translate(0,92) scale(0.1,-0.1)" stroke="none" fill="#EA9D28"/>

<path d="M602 741 c-40 -21 -86 -51 -103 -67 -75 -71 -180 -277 -178 -347 0 -12 11 16 25 63 24 83 85 190 152 267 15 17 64 50 110 73 75 38 95 51 75 49 -5 0 -41 -18 -81 -38z" transform="translate(0,92) scale(0.1,-0.1)" stroke="none" fill="#EA9D28"/>

<path d="M429 806 c-73 -21 -149 -66 -210 -126 -81 -80 -92 -106 -97 -227 -5 -129 12 -188 75 -250 41 -41 72 -52 65 -23 -2 7 -6 56 -9 109 -4 72 -1 112 11 160 20 79 14 93 -8 18 -17 -60 -21 -199 -7 -259 5 -21 5 -38 1 -38 -4 0 -28 22 -53 48 -56 61 -71 120 -65 250 3 76 8 96 30 129 58 86 152 159 240 189 27 9 51 14 53 12 3 -2 -22 -32 -55 -66 -55 -58 -130 -186 -116 -199 3 -3 10 7 16 23 26 68 47 101 103 160 32 35 71 69 88 76 62 27 21 36 -62 14z" transform="translate(0,92) scale(0.1,-0.1)" stroke="none" fill="#EA9D28"/>

<path d="M450 880 c-145 -25 -170 -34 -255 -91 -168 -114 -206 -342 -86 -526 46 -71 88 -112 164 -165 l59 -40 -9 78 c-19 179 5 293 90 423 72 111 101 137 214 192 l103 50 -15 29 c-10 20 -27 32 -53 39 -56 15 -161 20 -212 11z m70 -68 c0 -4 -13 -13 -29 -20 -38 -17 -142 -128 -164 -175 -9 -20 -24 -52 -32 -69 -34 -76 -48 -161 -42 -259 3 -53 7 -102 9 -109 7 -29 -24 -18 -65 23 -63 62 -80 121 -75 250 3 74 9 112 22 137 27 50 123 141 185 174 77 41 191 70 191 48z" transform="translate(0,92) scale(0.1,-0.1)" stroke="none" fill="#43682B"/>

</g>

<g id="1" transform="translate(0,92.0)scale(0.8,0.8)">

<path d="M445 891 c-18 -4 10 -7 70 -8 127 0 180 -14 200 -53 14 -26 13 -30 -3 -39 -16 -10 -16 -10 1 -11 29 0 31 28 4 64 -22 29 -34 34 -96 44 -75 13 -129 14 -176 3z" transform="translate(0,92) scale(0.1,-0.1)" stroke="none" fill="#EA9D28"/>

<path d="M259 841 c-149 -74 -231 -198 -227 -343 l1 -73 7 80 c7 94 32 162 78 216 36 41 115 99 172 123 19 8 28 15 20 15 -8 0 -31 -8 -51 -18z" transform="translate(0,92) scale(0.1,-0.1)" stroke="none" fill="#EA9D28"/>

<path d="M41 393 c-1 -27 57 -140 99 -193 35 -44 171 -150 193 -150 16 0 15 36 -4 125 -6 28 -7 16 -3 -39 l6 -78 -59 40 c-106 73 -179 163 -214 266 -10 29 -18 42 -18 29z" transform="translate(0,92) scale(0.1,-0.1)" stroke="none" fill="#EA9D28"/>

<path d="M602 741 c-40 -21 -86 -51 -103 -67 -75 -71 -180 -277 -178 -347 0 -12 11 16 25 63 24 83 85 190 152 267 15 17 64 50 110 73 75 38 95 51 75 49 -5 0 -41 -18 -81 -38z" transform="translate(0,92) scale(0.1,-0.1)" stroke="none" fill="#EA9D28"/>

<path d="M429 806 c-73 -21 -149 -66 -210 -126 -81 -80 -92 -106 -97 -227 -5 -129 12 -188 75 -250 41 -41 72 -52 65 -23 -2 7 -6 56 -9 109 -4 72 -1 112 11 160 20 79 14 93 -8 18 -17 -60 -21 -199 -7 -259 5 -21 5 -38 1 -38 -4 0 -28 22 -53 48 -56 61 -71 120 -65 250 3 76 8 96 30 129 58 86 152 159 240 189 27 9 51 14 53 12 3 -2 -22 -32 -55 -66 -55 -58 -130 -186 -116 -199 3 -3 10 7 16 23 26 68 47 101 103 160 32 35 71 69 88 76 62 27 21 36 -62 14z" transform="translate(0,92) scale(0.1,-0.1)" stroke="none" fill="#EA9D28"/>

<path d="M450 880 c-145 -25 -170 -34 -255 -91 -168 -114 -206 -342 -86 -526 46 -71 88 -112 164 -165 l59 -40 -9 78 c-19 179 5 293 90 423 72 111 101 137 214 192 l103 50 -15 29 c-10 20 -27 32 -53 39 -56 15 -161 20 -212 11z m70 -68 c0 -4 -13 -13 -29 -20 -38 -17 -142 -128 -164 -175 -9 -20 -24 -52 -32 -69 -34 -76 -48 -161 -42 -259 3 -53 7 -102 9 -109 7 -29 -24 -18 -65 23 -63 62 -80 121 -75 250 3 74 9 112 22 137 27 50 123 141 185 174 77 41 191 70 191 48z" transform="translate(0,92) scale(0.1,-0.1)" stroke="none" fill="#43682B"/>

</g>

<g id="2" transform="translate(0,184.0)scale(0.8,0.8)">

<path d="M445 891 c-18 -4 10 -7 70 -8 127 0 180 -14 200 -53 14 -26 13 -30 -3 -39 -16 -10 -16 -10 1 -11 29 0 31 28 4 64 -22 29 -34 34 -96 44 -75 13 -129 14 -176 3z" transform="translate(0,92) scale(0.1,-0.1)" stroke="none" fill="#EA9D28"/>

<path d="M259 841 c-149 -74 -231 -198 -227 -343 l1 -73 7 80 c7 94 32 162 78 216 36 41 115 99 172 123 19 8 28 15 20 15 -8 0 -31 -8 -51 -18z" transform="translate(0,92) scale(0.1,-0.1)" stroke="none" fill="#EA9D28"/>

<path d="M41 393 c-1 -27 57 -140 99 -193 35 -44 171 -150 193 -150 16 0 15 36 -4 125 -6 28 -7 16 -3 -39 l6 -78 -59 40 c-106 73 -179 163 -214 266 -10 29 -18 42 -18 29z" transform="translate(0,92) scale(0.1,-0.1)" stroke="none" fill="#EA9D28"/>

<path d="M602 741 c-40 -21 -86 -51 -103 -67 -75 -71 -180 -277 -178 -347 0 -12 11 16 25 63 24 83 85 190 152 267 15 17 64 50 110 73 75 38 95 51 75 49 -5 0 -41 -18 -81 -38z" transform="translate(0,92) scale(0.1,-0.1)" stroke="none" fill="#EA9D28"/>

<path d="M429 806 c-73 -21 -149 -66 -210 -126 -81 -80 -92 -106 -97 -227 -5 -129 12 -188 75 -250 41 -41 72 -52 65 -23 -2 7 -6 56 -9 109 -4 72 -1 112 11 160 20 79 14 93 -8 18 -17 -60 -21 -199 -7 -259 5 -21 5 -38 1 -38 -4 0 -28 22 -53 48 -56 61 -71 120 -65 250 3 76 8 96 30 129 58 86 152 159 240 189 27 9 51 14 53 12 3 -2 -22 -32 -55 -66 -55 -58 -130 -186 -116 -199 3 -3 10 7 16 23 26 68 47 101 103 160 32 35 71 69 88 76 62 27 21 36 -62 14z" transform="translate(0,92) scale(0.1,-0.1)" stroke="none" fill="#EA9D28"/>

<path d="M450 880 c-145 -25 -170 -34 -255 -91 -168 -114 -206 -342 -86 -526 46 -71 88 -112 164 -165 l59 -40 -9 78 c-19 179 5 293 90 423 72 111 101 137 214 192 l103 50 -15 29 c-10 20 -27 32 -53 39 -56 15 -161 20 -212 11z m70 -68 c0 -4 -13 -13 -29 -20 -38 -17 -142 -128 -164 -175 -9 -20 -24 -52 -32 -69 -34 -76 -48 -161 -42 -259 3 -53 7 -102 9 -109 7 -29 -24 -18 -65 23 -63 62 -80 121 -75 250 3 74 9 112 22 137 27 50 123 141 185 174 77 41 191 70 191 48z" transform="translate(0,92) scale(0.1,-0.1)" stroke="none" fill="#43682B"/>

</g>

<g id="3" transform="translate(0,276.0)scale(0.8,0.8)">

<path d="M445 891 c-18 -4 10 -7 70 -8 127 0 180 -14 200 -53 14 -26 13 -30 -3 -39 -16 -10 -16 -10 1 -11 29 0 31 28 4 64 -22 29 -34 34 -96 44 -75 13 -129 14 -176 3z" transform="translate(0,92) scale(0.1,-0.1)" stroke="none" fill="#EA9D28"/>

<path d="M259 841 c-149 -74 -231 -198 -227 -343 l1 -73 7 80 c7 94 32 162 78 216 36 41 115 99 172 123 19 8 28 15 20 15 -8 0 -31 -8 -51 -18z" transform="translate(0,92) scale(0.1,-0.1)" stroke="none" fill="#EA9D28"/>

<path d="M41 393 c-1 -27 57 -140 99 -193 35 -44 171 -150 193 -150 16 0 15 36 -4 125 -6 28 -7 16 -3 -39 l6 -78 -59 40 c-106 73 -179 163 -214 266 -10 29 -18 42 -18 29z" transform="translate(0,92) scale(0.1,-0.1)" stroke="none" fill="#EA9D28"/>

<path d="M602 741 c-40 -21 -86 -51 -103 -67 -75 -71 -180 -277 -178 -347 0 -12 11 16 25 63 24 83 85 190 152 267 15 17 64 50 110 73 75 38 95 51 75 49 -5 0 -41 -18 -81 -38z" transform="translate(0,92) scale(0.1,-0.1)" stroke="none" fill="#EA9D28"/>

<path d="M429 806 c-73 -21 -149 -66 -210 -126 -81 -80 -92 -106 -97 -227 -5 -129 12 -188 75 -250 41 -41 72 -52 65 -23 -2 7 -6 56 -9 109 -4 72 -1 112 11 160 20 79 14 93 -8 18 -17 -60 -21 -199 -7 -259 5 -21 5 -38 1 -38 -4 0 -28 22 -53 48 -56 61 -71 120 -65 250 3 76 8 96 30 129 58 86 152 159 240 189 27 9 51 14 53 12 3 -2 -22 -32 -55 -66 -55 -58 -130 -186 -116 -199 3 -3 10 7 16 23 26 68 47 101 103 160 32 35 71 69 88 76 62 27 21 36 -62 14z" transform="translate(0,92) scale(0.1,-0.1)" stroke="none" fill="#EA9D28"/>

<path d="M450 880 c-145 -25 -170 -34 -255 -91 -168 -114 -206 -342 -86 -526 46 -71 88 -112 164 -165 l59 -40 -9 78 c-19 179 5 293 90 423 72 111 101 137 214 192 l103 50 -15 29 c-10 20 -27 32 -53 39 -56 15 -161 20 -212 11z m70 -68 c0 -4 -13 -13 -29 -20 -38 -17 -142 -128 -164 -175 -9 -20 -24 -52 -32 -69 -34 -76 -48 -161 -42 -259 3 -53 7 -102 9 -109 7 -29 -24 -18 -65 23 -63 62 -80 121 -75 250 3 74 9 112 22 137 27 50 123 141 185 174 77 41 191 70 191 48z" transform="translate(0,92) scale(0.1,-0.1)" stroke="none" fill="#43682B"/>

</g>

<g id="4" transform="translate(0,368.0)scale(0.8,0.8)">

<path d="M445 891 c-18 -4 10 -7 70 -8 127 0 180 -14 200 -53 14 -26 13 -30 -3 -39 -16 -10 -16 -10 1 -11 29 0 31 28 4 64 -22 29 -34 34 -96 44 -75 13 -129 14 -176 3z" transform="translate(0,92) scale(0.1,-0.1)" stroke="none" fill="#EA9D28"/>

<path d="M259 841 c-149 -74 -231 -198 -227 -343 l1 -73 7 80 c7 94 32 162 78 216 36 41 115 99 172 123 19 8 28 15 20 15 -8 0 -31 -8 -51 -18z" transform="translate(0,92) scale(0.1,-0.1)" stroke="none" fill="#EA9D28"/>

<path d="M41 393 c-1 -27 57 -140 99 -193 35 -44 171 -150 193 -150 16 0 15 36 -4 125 -6 28 -7 16 -3 -39 l6 -78 -59 40 c-106 73 -179 163 -214 266 -10 29 -18 42 -18 29z" transform="translate(0,92) scale(0.1,-0.1)" stroke="none" fill="#EA9D28"/>

<path d="M602 741 c-40 -21 -86 -51 -103 -67 -75 -71 -180 -277 -178 -347 0 -12 11 16 25 63 24 83 85 190 152 267 15 17 64 50 110 73 75 38 95 51 75 49 -5 0 -41 -18 -81 -38z" transform="translate(0,92) scale(0.1,-0.1)" stroke="none" fill="#EA9D28"/>

<path d="M429 806 c-73 -21 -149 -66 -210 -126 -81 -80 -92 -106 -97 -227 -5 -129 12 -188 75 -250 41 -41 72 -52 65 -23 -2 7 -6 56 -9 109 -4 72 -1 112 11 160 20 79 14 93 -8 18 -17 -60 -21 -199 -7 -259 5 -21 5 -38 1 -38 -4 0 -28 22 -53 48 -56 61 -71 120 -65 250 3 76 8 96 30 129 58 86 152 159 240 189 27 9 51 14 53 12 3 -2 -22 -32 -55 -66 -55 -58 -130 -186 -116 -199 3 -3 10 7 16 23 26 68 47 101 103 160 32 35 71 69 88 76 62 27 21 36 -62 14z" transform="translate(0,92) scale(0.1,-0.1)" stroke="none" fill="#EA9D28"/>

<path d="M450 880 c-145 -25 -170 -34 -255 -91 -168 -114 -206 -342 -86 -526 46 -71 88 -112 164 -165 l59 -40 -9 78 c-19 179 5 293 90 423 72 111 101 137 214 192 l103 50 -15 29 c-10 20 -27 32 -53 39 -56 15 -161 20 -212 11z m70 -68 c0 -4 -13 -13 -29 -20 -38 -17 -142 -128 -164 -175 -9 -20 -24 -52 -32 -69 -34 -76 -48 -161 -42 -259 3 -53 7 -102 9 -109 7 -29 -24 -18 -65 23 -63 62 -80 121 -75 250 3 74 9 112 22 137 27 50 123 141 185 174 77 41 191 70 191 48z" transform="translate(0,92) scale(0.1,-0.1)" stroke="none" fill="#43682B"/>

</g>

</g>
<g id="col1" transform="translate(80, -34.0)">
<g id="0" transform="translate(0,0.0)scale(0.8,0.8)">

<path d="M445 891 c-18 -4 10 -7 70 -8 127 0 180 -14 200 -53 14 -26 13 -30 -3 -39 -16 -10 -16 -10 1 -11 29 0 31 28 4 64 -22 29 -34 34 -96 44 -75 13 -129 14 -176 3z" transform="translate(0,92) scale(0.1,-0.1)" stroke="none" fill="#EA9D28"/>

<path d="M259 841 c-149 -74 -231 -198 -227 -343 l1 -73 7 80 c7 94 32 162 78 216 36 41 115 99 172 123 19 8 28 15 20 15 -8 0 -31 -8 -51 -18z" transform="translate(0,92) scale(0.1,-0.1)" stroke="none" fill="#EA9D28"/>

<path d="M41 393 c-1 -27 57 -140 99 -193 35 -44 171 -150 193 -150 16 0 15 36 -4 125 -6 28 -7 16 -3 -39 l6 -78 -59 40 c-106 73 -179 163 -214 266 -10 29 -18 42 -18 29z" transform="translate(0,92) scale(0.1,-0.1)" stroke="none" fill="#EA9D28"/>

<path d="M602 741 c-40 -21 -86 -51 -103 -67 -75 -71 -180 -277 -178 -347 0 -12 11 16 25 63 24 83 85 190 152 267 15 17 64 50 110 73 75 38 95 51 75 49 -5 0 -41 -18 -81 -38z" transform="translate(0,92) scale(0.1,-0.1)" stroke="none" fill="#EA9D28"/>

<path d="M429 806 c-73 -21 -149 -66 -210 -126 -81 -80 -92 -106 -97 -227 -5 -129 12 -188 75 -250 41 -41 72 -52 65 -23 -2 7 -6 56 -9 109 -4 72 -1 112 11 160 20 79 14 93 -8 18 -17 -60 -21 -199 -7 -259 5 -21 5 -38 1 -38 -4 0 -28 22 -53 48 -56 61 -71 120 -65 250 3 76 8 96 30 129 58 86 152 159 240 189 27 9 51 14 53 12 3 -2 -22 -32 -55 -66 -55 -58 -130 -186 -116 -199 3 -3 10 7 16 23 26 68 47 101 103 160 32 35 71 69 88 76 62 27 21 36 -62 14z" transform="translate(0,92) scale(0.1,-0.1)" stroke="none" fill="#EA9D28"/>

<path d="M450 880 c-145 -25 -170 -34 -255 -91 -168 -114 -206 -342 -86 -526 46 -71 88 -112 164 -165 l59 -40 -9 78 c-19 179 5 293 90 423 72 111 101 137 214 192 l103 50 -15 29 c-10 20 -27 32 -53 39 -56 15 -161 20 -212 11z m70 -68 c0 -4 -13 -13 -29 -20 -38 -17 -142 -128 -164 -175 -9 -20 -24 -52 -32 -69 -34 -76 -48 -161 -42 -259 3 -53 7 -102 9 -109 7 -29 -24 -18 -65 23 -63 62 -80 121 -75 250 3 74 9 112 22 137 27 50 123 141 185 174 77 41 191 70 191 48z" transform="translate(0,92) scale(0.1,-0.1)" stroke="none" fill="#43682B"/>

</g>

<g id="1" transform="translate(0,92.0)scale(0.8,0.8)">

<path d="M445 891 c-18 -4 10 -7 70 -8 127 0 180 -14 200 -53 14 -26 13 -30 -3 -39 -16 -10 -16 -10 1 -11 29 0 31 28 4 64 -22 29 -34 34 -96 44 -75 13 -129 14 -176 3z" transform="translate(0,92) scale(0.1,-0.1)" stroke="none" fill="#EA9D28"/>

<path d="M259 841 c-149 -74 -231 -198 -227 -343 l1 -73 7 80 c7 94 32 162 78 216 36 41 115 99 172 123 19 8 28 15 20 15 -8 0 -31 -8 -51 -18z" transform="translate(0,92) scale(0.1,-0.1)" stroke="none" fill="#EA9D28"/>

<path d="M41 393 c-1 -27 57 -140 99 -193 35 -44 171 -150 193 -150 16 0 15 36 -4 125 -6 28 -7 16 -3 -39 l6 -78 -59 40 c-106 73 -179 163 -214 266 -10 29 -18 42 -18 29z" transform="translate(0,92) scale(0.1,-0.1)" stroke="none" fill="#EA9D28"/>

<path d="M602 741 c-40 -21 -86 -51 -103 -67 -75 -71 -180 -277 -178 -347 0 -12 11 16 25 63 24 83 85 190 152 267 15 17 64 50 110 73 75 38 95 51 75 49 -5 0 -41 -18 -81 -38z" transform="translate(0,92) scale(0.1,-0.1)" stroke="none" fill="#EA9D28"/>

<path d="M429 806 c-73 -21 -149 -66 -210 -126 -81 -80 -92 -106 -97 -227 -5 -129 12 -188 75 -250 41 -41 72 -52 65 -23 -2 7 -6 56 -9 109 -4 72 -1 112 11 160 20 79 14 93 -8 18 -17 -60 -21 -199 -7 -259 5 -21 5 -38 1 -38 -4 0 -28 22 -53 48 -56 61 -71 120 -65 250 3 76 8 96 30 129 58 86 152 159 240 189 27 9 51 14 53 12 3 -2 -22 -32 -55 -66 -55 -58 -130 -186 -116 -199 3 -3 10 7 16 23 26 68 47 101 103 160 32 35 71 69 88 76 62 27 21 36 -62 14z" transform="translate(0,92) scale(0.1,-0.1)" stroke="none" fill="#EA9D28"/>

<path d="M450 880 c-145 -25 -170 -34 -255 -91 -168 -114 -206 -342 -86 -526 46 -71 88 -112 164 -165 l59 -40 -9 78 c-19 179 5 293 90 423 72 111 101 137 214 192 l103 50 -15 29 c-10 20 -27 32 -53 39 -56 15 -161 20 -212 11z m70 -68 c0 -4 -13 -13 -29 -20 -38 -17 -142 -128 -164 -175 -9 -20 -24 -52 -32 -69 -34 -76 -48 -161 -42 -259 3 -53 7 -102 9 -109 7 -29 -24 -18 -65 23 -63 62 -80 121 -75 250 3 74 9 112 22 137 27 50 123 141 185 174 77 41 191 70 191 48z" transform="translate(0,92) scale(0.1,-0.1)" stroke="none" fill="#43682B"/>

</g>

<g id="2" transform="translate(0,184.0)scale(0.8,0.8)">

<path d="M445 891 c-18 -4 10 -7 70 -8 127 0 180 -14 200 -53 14 -26 13 -30 -3 -39 -16 -10 -16 -10 1 -11 29 0 31 28 4 64 -22 29 -34 34 -96 44 -75 13 -129 14 -176 3z" transform="translate(0,92) scale(0.1,-0.1)" stroke="none" fill="#EA9D28"/>

<path d="M259 841 c-149 -74 -231 -198 -227 -343 l1 -73 7 80 c7 94 32 162 78 216 36 41 115 99 172 123 19 8 28 15 20 15 -8 0 -31 -8 -51 -18z" transform="translate(0,92) scale(0.1,-0.1)" stroke="none" fill="#EA9D28"/>

<path d="M41 393 c-1 -27 57 -140 99 -193 35 -44 171 -150 193 -150 16 0 15 36 -4 125 -6 28 -7 16 -3 -39 l6 -78 -59 40 c-106 73 -179 163 -214 266 -10 29 -18 42 -18 29z" transform="translate(0,92) scale(0.1,-0.1)" stroke="none" fill="#EA9D28"/>

<path d="M602 741 c-40 -21 -86 -51 -103 -67 -75 -71 -180 -277 -178 -347 0 -12 11 16 25 63 24 83 85 190 152 267 15 17 64 50 110 73 75 38 95 51 75 49 -5 0 -41 -18 -81 -38z" transform="translate(0,92) scale(0.1,-0.1)" stroke="none" fill="#EA9D28"/>

<path d="M429 806 c-73 -21 -149 -66 -210 -126 -81 -80 -92 -106 -97 -227 -5 -129 12 -188 75 -250 41 -41 72 -52 65 -23 -2 7 -6 56 -9 109 -4 72 -1 112 11 160 20 79 14 93 -8 18 -17 -60 -21 -199 -7 -259 5 -21 5 -38 1 -38 -4 0 -28 22 -53 48 -56 61 -71 120 -65 250 3 76 8 96 30 129 58 86 152 159 240 189 27 9 51 14 53 12 3 -2 -22 -32 -55 -66 -55 -58 -130 -186 -116 -199 3 -3 10 7 16 23 26 68 47 101 103 160 32 35 71 69 88 76 62 27 21 36 -62 14z" transform="translate(0,92) scale(0.1,-0.1)" stroke="none" fill="#EA9D28"/>

<path d="M450 880 c-145 -25 -170 -34 -255 -91 -168 -114 -206 -342 -86 -526 46 -71 88 -112 164 -165 l59 -40 -9 78 c-19 179 5 293 90 423 72 111 101 137 214 192 l103 50 -15 29 c-10 20 -27 32 -53 39 -56 15 -161 20 -212 11z m70 -68 c0 -4 -13 -13 -29 -20 -38 -17 -142 -128 -164 -175 -9 -20 -24 -52 -32 -69 -34 -76 -48 -161 -42 -259 3 -53 7 -102 9 -109 7 -29 -24 -18 -65 23 -63 62 -80 121 -75 250 3 74 9 112 22 137 27 50 123 141 185 174 77 41 191 70 191 48z" transform="translate(0,92) scale(0.1,-0.1)" stroke="none" fill="#43682B"/>

</g>

<g id="3" transform="translate(0,276.0)scale(0.8,0.8)">

<path d="M445 891 c-18 -4 10 -7 70 -8 127 0 180 -14 200 -53 14 -26 13 -30 -3 -39 -16 -10 -16 -10 1 -11 29 0 31 28 4 64 -22 29 -34 34 -96 44 -75 13 -129 14 -176 3z" transform="translate(0,92) scale(0.1,-0.1)" stroke="none" fill="#EA9D28"/>

<path d="M259 841 c-149 -74 -231 -198 -227 -343 l1 -73 7 80 c7 94 32 162 78 216 36 41 115 99 172 123 19 8 28 15 20 15 -8 0 -31 -8 -51 -18z" transform="translate(0,92) scale(0.1,-0.1)" stroke="none" fill="#EA9D28"/>

<path d="M41 393 c-1 -27 57 -140 99 -193 35 -44 171 -150 193 -150 16 0 15 36 -4 125 -6 28 -7 16 -3 -39 l6 -78 -59 40 c-106 73 -179 163 -214 266 -10 29 -18 42 -18 29z" transform="translate(0,92) scale(0.1,-0.1)" stroke="none" fill="#EA9D28"/>

<path d="M602 741 c-40 -21 -86 -51 -103 -67 -75 -71 -180 -277 -178 -347 0 -12 11 16 25 63 24 83 85 190 152 267 15 17 64 50 110 73 75 38 95 51 75 49 -5 0 -41 -18 -81 -38z" transform="translate(0,92) scale(0.1,-0.1)" stroke="none" fill="#EA9D28"/>

<path d="M429 806 c-73 -21 -149 -66 -210 -126 -81 -80 -92 -106 -97 -227 -5 -129 12 -188 75 -250 41 -41 72 -52 65 -23 -2 7 -6 56 -9 109 -4 72 -1 112 11 160 20 79 14 93 -8 18 -17 -60 -21 -199 -7 -259 5 -21 5 -38 1 -38 -4 0 -28 22 -53 48 -56 61 -71 120 -65 250 3 76 8 96 30 129 58 86 152 159 240 189 27 9 51 14 53 12 3 -2 -22 -32 -55 -66 -55 -58 -130 -186 -116 -199 3 -3 10 7 16 23 26 68 47 101 103 160 32 35 71 69 88 76 62 27 21 36 -62 14z" transform="translate(0,92) scale(0.1,-0.1)" stroke="none" fill="#EA9D28"/>

<path d="M450 880 c-145 -25 -170 -34 -255 -91 -168 -114 -206 -342 -86 -526 46 -71 88 -112 164 -165 l59 -40 -9 78 c-19 179 5 293 90 423 72 111 101 137 214 192 l103 50 -15 29 c-10 20 -27 32 -53 39 -56 15 -161 20 -212 11z m70 -68 c0 -4 -13 -13 -29 -20 -38 -17 -142 -128 -164 -175 -9 -20 -24 -52 -32 -69 -34 -76 -48 -161 -42 -259 3 -53 7 -102 9 -109 7 -29 -24 -18 -65 23 -63 62 -80 121 -75 250 3 74 9 112 22 137 27 50 123 141 185 174 77 41 191 70 191 48z" transform="translate(0,92) scale(0.1,-0.1)" stroke="none" fill="#43682B"/>

</g>

<g id="4" transform="translate(0,368.0)scale(0.8,0.8)">

<path d="M445 891 c-18 -4 10 -7 70 -8 127 0 180 -14 200 -53 14 -26 13 -30 -3 -39 -16 -10 -16 -10 1 -11 29 0 31 28 4 64 -22 29 -34 34 -96 44 -75 13 -129 14 -176 3z" transform="translate(0,92) scale(0.1,-0.1)" stroke="none" fill="#EA9D28"/>

<path d="M259 841 c-149 -74 -231 -198 -227 -343 l1 -73 7 80 c7 94 32 162 78 216 36 41 115 99 172 123 19 8 28 15 20 15 -8 0 -31 -8 -51 -18z" transform="translate(0,92) scale(0.1,-0.1)" stroke="none" fill="#EA9D28"/>

<path d="M41 393 c-1 -27 57 -140 99 -193 35 -44 171 -150 193 -150 16 0 15 36 -4 125 -6 28 -7 16 -3 -39 l6 -78 -59 40 c-106 73 -179 163 -214 266 -10 29 -18 42 -18 29z" transform="translate(0,92) scale(0.1,-0.1)" stroke="none" fill="#EA9D28"/>

<path d="M602 741 c-40 -21 -86 -51 -103 -67 -75 -71 -180 -277 -178 -347 0 -12 11 16 25 63 24 83 85 190 152 267 15 17 64 50 110 73 75 38 95 51 75 49 -5 0 -41 -18 -81 -38z" transform="translate(0,92) scale(0.1,-0.1)" stroke="none" fill="#EA9D28"/>

<path d="M429 806 c-73 -21 -149 -66 -210 -126 -81 -80 -92 -106 -97 -227 -5 -129 12 -188 75 -250 41 -41 72 -52 65 -23 -2 7 -6 56 -9 109 -4 72 -1 112 11 160 20 79 14 93 -8 18 -17 -60 -21 -199 -7 -259 5 -21 5 -38 1 -38 -4 0 -28 22 -53 48 -56 61 -71 120 -65 250 3 76 8 96 30 129 58 86 152 159 240 189 27 9 51 14 53 12 3 -2 -22 -32 -55 -66 -55 -58 -130 -186 -116 -199 3 -3 10 7 16 23 26 68 47 101 103 160 32 35 71 69 88 76 62 27 21 36 -62 14z" transform="translate(0,92) scale(0.1,-0.1)" stroke="none" fill="#EA9D28"/>

<path d="M450 880 c-145 -25 -170 -34 -255 -91 -168 -114 -206 -342 -86 -526 46 -71 88 -112 164 -165 l59 -40 -9 78 c-19 179 5 293 90 423 72 111 101 137 214 192 l103 50 -15 29 c-10 20 -27 32 -53 39 -56 15 -161 20 -212 11z m70 -68 c0 -4 -13 -13 -29 -20 -38 -17 -142 -128 -164 -175 -9 -20 -24 -52 -32 -69 -34 -76 -48 -161 -42 -259 3 -53 7 -102 9 -109 7 -29 -24 -18 -65 23 -63 62 -80 121 -75 250 3 74 9 112 22 137 27 50 123 141 185 174 77 41 191 70 191 48z" transform="translate(0,92) scale(0.1,-0.1)" stroke="none" fill="#43682B"/>

</g>

</g>
<g id="col2" transform="translate(160, 12)">
<g id="0" transform="translate(0,0.0)scale(0.8,0.8)">

<path d="M445 891 c-18 -4 10 -7 70 -8 127 0 180 -14 200 -53 14 -26 13 -30 -3 -39 -16 -10 -16 -10 1 -11 29 0 31 28 4 64 -22 29 -34 34 -96 44 -75 13 -129 14 -176 3z" transform="translate(0,92) scale(0.1,-0.1)" stroke="none" fill="#EA9D28"/>

<path d="M259 841 c-149 -74 -231 -198 -227 -343 l1 -73 7 80 c7 94 32 162 78 216 36 41 115 99 172 123 19 8 28 15 20 15 -8 0 -31 -8 -51 -18z" transform="translate(0,92) scale(0.1,-0.1)" stroke="none" fill="#EA9D28"/>

<path d="M41 393 c-1 -27 57 -140 99 -193 35 -44 171 -150 193 -150 16 0 15 36 -4 125 -6 28 -7 16 -3 -39 l6 -78 -59 40 c-106 73 -179 163 -214 266 -10 29 -18 42 -18 29z" transform="translate(0,92) scale(0.1,-0.1)" stroke="none" fill="#EA9D28"/>

<path d="M602 741 c-40 -21 -86 -51 -103 -67 -75 -71 -180 -277 -178 -347 0 -12 11 16 25 63 24 83 85 190 152 267 15 17 64 50 110 73 75 38 95 51 75 49 -5 0 -41 -18 -81 -38z" transform="translate(0,92) scale(0.1,-0.1)" stroke="none" fill="#EA9D28"/>

<path d="M429 806 c-73 -21 -149 -66 -210 -126 -81 -80 -92 -106 -97 -227 -5 -129 12 -188 75 -250 41 -41 72 -52 65 -23 -2 7 -6 56 -9 109 -4 72 -1 112 11 160 20 79 14 93 -8 18 -17 -60 -21 -199 -7 -259 5 -21 5 -38 1 -38 -4 0 -28 22 -53 48 -56 61 -71 120 -65 250 3 76 8 96 30 129 58 86 152 159 240 189 27 9 51 14 53 12 3 -2 -22 -32 -55 -66 -55 -58 -130 -186 -116 -199 3 -3 10 7 16 23 26 68 47 101 103 160 32 35 71 69 88 76 62 27 21 36 -62 14z" transform="translate(0,92) scale(0.1,-0.1)" stroke="none" fill="#EA9D28"/>

<path d="M450 880 c-145 -25 -170 -34 -255 -91 -168 -114 -206 -342 -86 -526 46 -71 88 -112 164 -165 l59 -40 -9 78 c-19 179 5 293 90 423 72 111 101 137 214 192 l103 50 -15 29 c-10 20 -27 32 -53 39 -56 15 -161 20 -212 11z m70 -68 c0 -4 -13 -13 -29 -20 -38 -17 -142 -128 -164 -175 -9 -20 -24 -52 -32 -69 -34 -76 -48 -161 -42 -259 3 -53 7 -102 9 -109 7 -29 -24 -18 -65 23 -63 62 -80 121 -75 250 3 74 9 112 22 137 27 50 123 141 185 174 77 41 191 70 191 48z" transform="translate(0,92) scale(0.1,-0.1)" stroke="none" fill="#43682B"/>

</g>

<g id="1" transform="translate(0,92.0)scale(0.8,0.8)">

<path d="M445 891 c-18 -4 10 -7 70 -8 127 0 180 -14 200 -53 14 -26 13 -30 -3 -39 -16 -10 -16 -10 1 -11 29 0 31 28 4 64 -22 29 -34 34 -96 44 -75 13 -129 14 -176 3z" transform="translate(0,92) scale(0.1,-0.1)" stroke="none" fill="#EA9D28"/>

<path d="M259 841 c-149 -74 -231 -198 -227 -343 l1 -73 7 80 c7 94 32 162 78 216 36 41 115 99 172 123 19 8 28 15 20 15 -8 0 -31 -8 -51 -18z" transform="translate(0,92) scale(0.1,-0.1)" stroke="none" fill="#EA9D28"/>

<path d="M41 393 c-1 -27 57 -140 99 -193 35 -44 171 -150 193 -150 16 0 15 36 -4 125 -6 28 -7 16 -3 -39 l6 -78 -59 40 c-106 73 -179 163 -214 266 -10 29 -18 42 -18 29z" transform="translate(0,92) scale(0.1,-0.1)" stroke="none" fill="#EA9D28"/>

<path d="M602 741 c-40 -21 -86 -51 -103 -67 -75 -71 -180 -277 -178 -347 0 -12 11 16 25 63 24 83 85 190 152 267 15 17 64 50 110 73 75 38 95 51 75 49 -5 0 -41 -18 -81 -38z" transform="translate(0,92) scale(0.1,-0.1)" stroke="none" fill="#EA9D28"/>

<path d="M429 806 c-73 -21 -149 -66 -210 -126 -81 -80 -92 -106 -97 -227 -5 -129 12 -188 75 -250 41 -41 72 -52 65 -23 -2 7 -6 56 -9 109 -4 72 -1 112 11 160 20 79 14 93 -8 18 -17 -60 -21 -199 -7 -259 5 -21 5 -38 1 -38 -4 0 -28 22 -53 48 -56 61 -71 120 -65 250 3 76 8 96 30 129 58 86 152 159 240 189 27 9 51 14 53 12 3 -2 -22 -32 -55 -66 -55 -58 -130 -186 -116 -199 3 -3 10 7 16 23 26 68 47 101 103 160 32 35 71 69 88 76 62 27 21 36 -62 14z" transform="translate(0,92) scale(0.1,-0.1)" stroke="none" fill="#EA9D28"/>

<path d="M450 880 c-145 -25 -170 -34 -255 -91 -168 -114 -206 -342 -86 -526 46 -71 88 -112 164 -165 l59 -40 -9 78 c-19 179 5 293 90 423 72 111 101 137 214 192 l103 50 -15 29 c-10 20 -27 32 -53 39 -56 15 -161 20 -212 11z m70 -68 c0 -4 -13 -13 -29 -20 -38 -17 -142 -128 -164 -175 -9 -20 -24 -52 -32 -69 -34 -76 -48 -161 -42 -259 3 -53 7 -102 9 -109 7 -29 -24 -18 -65 23 -63 62 -80 121 -75 250 3 74 9 112 22 137 27 50 123 141 185 174 77 41 191 70 191 48z" transform="translate(0,92) scale(0.1,-0.1)" stroke="none" fill="#43682B"/>

</g>

<g id="2" transform="translate(0,184.0)scale(0.8,0.8)">

<path d="M445 891 c-18 -4 10 -7 70 -8 127 0 180 -14 200 -53 14 -26 13 -30 -3 -39 -16 -10 -16 -10 1 -11 29 0 31 28 4 64 -22 29 -34 34 -96 44 -75 13 -129 14 -176 3z" transform="translate(0,92) scale(0.1,-0.1)" stroke="none" fill="#EA9D28"/>

<path d="M259 841 c-149 -74 -231 -198 -227 -343 l1 -73 7 80 c7 94 32 162 78 216 36 41 115 99 172 123 19 8 28 15 20 15 -8 0 -31 -8 -51 -18z" transform="translate(0,92) scale(0.1,-0.1)" stroke="none" fill="#EA9D28"/>

<path d="M41 393 c-1 -27 57 -140 99 -193 35 -44 171 -150 193 -150 16 0 15 36 -4 125 -6 28 -7 16 -3 -39 l6 -78 -59 40 c-106 73 -179 163 -214 266 -10 29 -18 42 -18 29z" transform="translate(0,92) scale(0.1,-0.1)" stroke="none" fill="#EA9D28"/>

<path d="M602 741 c-40 -21 -86 -51 -103 -67 -75 -71 -180 -277 -178 -347 0 -12 11 16 25 63 24 83 85 190 152 267 15 17 64 50 110 73 75 38 95 51 75 49 -5 0 -41 -18 -81 -38z" transform="translate(0,92) scale(0.1,-0.1)" stroke="none" fill="#EA9D28"/>

<path d="M429 806 c-73 -21 -149 -66 -210 -126 -81 -80 -92 -106 -97 -227 -5 -129 12 -188 75 -250 41 -41 72 -52 65 -23 -2 7 -6 56 -9 109 -4 72 -1 112 11 160 20 79 14 93 -8 18 -17 -60 -21 -199 -7 -259 5 -21 5 -38 1 -38 -4 0 -28 22 -53 48 -56 61 -71 120 -65 250 3 76 8 96 30 129 58 86 152 159 240 189 27 9 51 14 53 12 3 -2 -22 -32 -55 -66 -55 -58 -130 -186 -116 -199 3 -3 10 7 16 23 26 68 47 101 103 160 32 35 71 69 88 76 62 27 21 36 -62 14z" transform="translate(0,92) scale(0.1,-0.1)" stroke="none" fill="#EA9D28"/>

<path d="M450 880 c-145 -25 -170 -34 -255 -91 -168 -114 -206 -342 -86 -526 46 -71 88 -112 164 -165 l59 -40 -9 78 c-19 179 5 293 90 423 72 111 101 137 214 192 l103 50 -15 29 c-10 20 -27 32 -53 39 -56 15 -161 20 -212 11z m70 -68 c0 -4 -13 -13 -29 -20 -38 -17 -142 -128 -164 -175 -9 -20 -24 -52 -32 -69 -34 -76 -48 -161 -42 -259 3 -53 7 -102 9 -109 7 -29 -24 -18 -65 23 -63 62 -80 121 -75 250 3 74 9 112 22 137 27 50 123 141 185 174 77 41 191 70 191 48z" transform="translate(0,92) scale(0.1,-0.1)" stroke="none" fill="#43682B"/>

</g>

<g id="3" transform="translate(0,276.0)scale(0.8,0.8)">

<path d="M445 891 c-18 -4 10 -7 70 -8 127 0 180 -14 200 -53 14 -26 13 -30 -3 -39 -16 -10 -16 -10 1 -11 29 0 31 28 4 64 -22 29 -34 34 -96 44 -75 13 -129 14 -176 3z" transform="translate(0,92) scale(0.1,-0.1)" stroke="none" fill="#EA9D28"/>

<path d="M259 841 c-149 -74 -231 -198 -227 -343 l1 -73 7 80 c7 94 32 162 78 216 36 41 115 99 172 123 19 8 28 15 20 15 -8 0 -31 -8 -51 -18z" transform="translate(0,92) scale(0.1,-0.1)" stroke="none" fill="#EA9D28"/>

<path d="M41 393 c-1 -27 57 -140 99 -193 35 -44 171 -150 193 -150 16 0 15 36 -4 125 -6 28 -7 16 -3 -39 l6 -78 -59 40 c-106 73 -179 163 -214 266 -10 29 -18 42 -18 29z" transform="translate(0,92) scale(0.1,-0.1)" stroke="none" fill="#EA9D28"/>

<path d="M602 741 c-40 -21 -86 -51 -103 -67 -75 -71 -180 -277 -178 -347 0 -12 11 16 25 63 24 83 85 190 152 267 15 17 64 50 110 73 75 38 95 51 75 49 -5 0 -41 -18 -81 -38z" transform="translate(0,92) scale(0.1,-0.1)" stroke="none" fill="#EA9D28"/>

<path d="M429 806 c-73 -21 -149 -66 -210 -126 -81 -80 -92 -106 -97 -227 -5 -129 12 -188 75 -250 41 -41 72 -52 65 -23 -2 7 -6 56 -9 109 -4 72 -1 112 11 160 20 79 14 93 -8 18 -17 -60 -21 -199 -7 -259 5 -21 5 -38 1 -38 -4 0 -28 22 -53 48 -56 61 -71 120 -65 250 3 76 8 96 30 129 58 86 152 159 240 189 27 9 51 14 53 12 3 -2 -22 -32 -55 -66 -55 -58 -130 -186 -116 -199 3 -3 10 7 16 23 26 68 47 101 103 160 32 35 71 69 88 76 62 27 21 36 -62 14z" transform="translate(0,92) scale(0.1,-0.1)" stroke="none" fill="#EA9D28"/>

<path d="M450 880 c-145 -25 -170 -34 -255 -91 -168 -114 -206 -342 -86 -526 46 -71 88 -112 164 -165 l59 -40 -9 78 c-19 179 5 293 90 423 72 111 101 137 214 192 l103 50 -15 29 c-10 20 -27 32 -53 39 -56 15 -161 20 -212 11z m70 -68 c0 -4 -13 -13 -29 -20 -38 -17 -142 -128 -164 -175 -9 -20 -24 -52 -32 -69 -34 -76 -48 -161 -42 -259 3 -53 7 -102 9 -109 7 -29 -24 -18 -65 23 -63 62 -80 121 -75 250 3 74 9 112 22 137 27 50 123 141 185 174 77 41 191 70 191 48z" transform="translate(0,92) scale(0.1,-0.1)" stroke="none" fill="#43682B"/>

</g>

<g id="4" transform="translate(0,368.0)scale(0.8,0.8)">

<path d="M445 891 c-18 -4 10 -7 70 -8 127 0 180 -14 200 -53 14 -26 13 -30 -3 -39 -16 -10 -16 -10 1 -11 29 0 31 28 4 64 -22 29 -34 34 -96 44 -75 13 -129 14 -176 3z" transform="translate(0,92) scale(0.1,-0.1)" stroke="none" fill="#EA9D28"/>

<path d="M259 841 c-149 -74 -231 -198 -227 -343 l1 -73 7 80 c7 94 32 162 78 216 36 41 115 99 172 123 19 8 28 15 20 15 -8 0 -31 -8 -51 -18z" transform="translate(0,92) scale(0.1,-0.1)" stroke="none" fill="#EA9D28"/>

<path d="M41 393 c-1 -27 57 -140 99 -193 35 -44 171 -150 193 -150 16 0 15 36 -4 125 -6 28 -7 16 -3 -39 l6 -78 -59 40 c-106 73 -179 163 -214 266 -10 29 -18 42 -18 29z" transform="translate(0,92) scale(0.1,-0.1)" stroke="none" fill="#EA9D28"/>

<path d="M602 741 c-40 -21 -86 -51 -103 -67 -75 -71 -180 -277 -178 -347 0 -12 11 16 25 63 24 83 85 190 152 267 15 17 64 50 110 73 75 38 95 51 75 49 -5 0 -41 -18 -81 -38z" transform="translate(0,92) scale(0.1,-0.1)" stroke="none" fill="#EA9D28"/>

<path d="M429 806 c-73 -21 -149 -66 -210 -126 -81 -80 -92 -106 -97 -227 -5 -129 12 -188 75 -250 41 -41 72 -52 65 -23 -2 7 -6 56 -9 109 -4 72 -1 112 11 160 20 79 14 93 -8 18 -17 -60 -21 -199 -7 -259 5 -21 5 -38 1 -38 -4 0 -28 22 -53 48 -56 61 -71 120 -65 250 3 76 8 96 30 129 58 86 152 159 240 189 27 9 51 14 53 12 3 -2 -22 -32 -55 -66 -55 -58 -130 -186 -116 -199 3 -3 10 7 16 23 26 68 47 101 103 160 32 35 71 69 88 76 62 27 21 36 -62 14z" transform="translate(0,92) scale(0.1,-0.1)" stroke="none" fill="#EA9D28"/>

<path d="M450 880 c-145 -25 -170 -34 -255 -91 -168 -114 -206 -342 -86 -526 46 -71 88 -112 164 -165 l59 -40 -9 78 c-19 179 5 293 90 423 72 111 101 137 214 192 l103 50 -15 29 c-10 20 -27 32 -53 39 -56 15 -161 20 -212 11z m70 -68 c0 -4 -13 -13 -29 -20 -38 -17 -142 -128 -164 -175 -9 -20 -24 -52 -32 -69 -34 -76 -48 -161 -42 -259 3 -53 7 -102 9 -109 7 -29 -24 -18 -65 23 -63 62 -80 121 -75 250 3 74 9 112 22 137 27 50 123 141 185 174 77 41 191 70 191 48z" transform="translate(0,92) scale(0.1,-0.1)" stroke="none" fill="#43682B"/>

</g>

</g>
<g id="col3" transform="translate(240, -34.0)">
<g id="0" transform="translate(0,0.0)scale(0.8,0.8)">

<path d="M445 891 c-18 -4 10 -7 70 -8 127 0 180 -14 200 -53 14 -26 13 -30 -3 -39 -16 -10 -16 -10 1 -11 29 0 31 28 4 64 -22 29 -34 34 -96 44 -75 13 -129 14 -176 3z" transform="translate(0,92) scale(0.1,-0.1)" stroke="none" fill="#EA9D28"/>

<path d="M259 841 c-149 -74 -231 -198 -227 -343 l1 -73 7 80 c7 94 32 162 78 216 36 41 115 99 172 123 19 8 28 15 20 15 -8 0 -31 -8 -51 -18z" transform="translate(0,92) scale(0.1,-0.1)" stroke="none" fill="#EA9D28"/>

<path d="M41 393 c-1 -27 57 -140 99 -193 35 -44 171 -150 193 -150 16 0 15 36 -4 125 -6 28 -7 16 -3 -39 l6 -78 -59 40 c-106 73 -179 163 -214 266 -10 29 -18 42 -18 29z" transform="translate(0,92) scale(0.1,-0.1)" stroke="none" fill="#EA9D28"/>

<path d="M602 741 c-40 -21 -86 -51 -103 -67 -75 -71 -180 -277 -178 -347 0 -12 11 16 25 63 24 83 85 190 152 267 15 17 64 50 110 73 75 38 95 51 75 49 -5 0 -41 -18 -81 -38z" transform="translate(0,92) scale(0.1,-0.1)" stroke="none" fill="#EA9D28"/>

<path d="M429 806 c-73 -21 -149 -66 -210 -126 -81 -80 -92 -106 -97 -227 -5 -129 12 -188 75 -250 41 -41 72 -52 65 -23 -2 7 -6 56 -9 109 -4 72 -1 112 11 160 20 79 14 93 -8 18 -17 -60 -21 -199 -7 -259 5 -21 5 -38 1 -38 -4 0 -28 22 -53 48 -56 61 -71 120 -65 250 3 76 8 96 30 129 58 86 152 159 240 189 27 9 51 14 53 12 3 -2 -22 -32 -55 -66 -55 -58 -130 -186 -116 -199 3 -3 10 7 16 23 26 68 47 101 103 160 32 35 71 69 88 76 62 27 21 36 -62 14z" transform="translate(0,92) scale(0.1,-0.1)" stroke="none" fill="#EA9D28"/>

<path d="M450 880 c-145 -25 -170 -34 -255 -91 -168 -114 -206 -342 -86 -526 46 -71 88 -112 164 -165 l59 -40 -9 78 c-19 179 5 293 90 423 72 111 101 137 214 192 l103 50 -15 29 c-10 20 -27 32 -53 39 -56 15 -161 20 -212 11z m70 -68 c0 -4 -13 -13 -29 -20 -38 -17 -142 -128 -164 -175 -9 -20 -24 -52 -32 -69 -34 -76 -48 -161 -42 -259 3 -53 7 -102 9 -109 7 -29 -24 -18 -65 23 -63 62 -80 121 -75 250 3 74 9 112 22 137 27 50 123 141 185 174 77 41 191 70 191 48z" transform="translate(0,92) scale(0.1,-0.1)" stroke="none" fill="#43682B"/>

</g>

<g id="1" transform="translate(0,92.0)scale(0.8,0.8)">

<path d="M445 891 c-18 -4 10 -7 70 -8 127 0 180 -14 200 -53 14 -26 13 -30 -3 -39 -16 -10 -16 -10 1 -11 29 0 31 28 4 64 -22 29 -34 34 -96 44 -75 13 -129 14 -176 3z" transform="translate(0,92) scale(0.1,-0.1)" stroke="none" fill="#EA9D28"/>

<path d="M259 841 c-149 -74 -231 -198 -227 -343 l1 -73 7 80 c7 94 32 162 78 216 36 41 115 99 172 123 19 8 28 15 20 15 -8 0 -31 -8 -51 -18z" transform="translate(0,92) scale(0.1,-0.1)" stroke="none" fill="#EA9D28"/>

<path d="M41 393 c-1 -27 57 -140 99 -193 35 -44 171 -150 193 -150 16 0 15 36 -4 125 -6 28 -7 16 -3 -39 l6 -78 -59 40 c-106 73 -179 163 -214 266 -10 29 -18 42 -18 29z" transform="translate(0,92) scale(0.1,-0.1)" stroke="none" fill="#EA9D28"/>

<path d="M602 741 c-40 -21 -86 -51 -103 -67 -75 -71 -180 -277 -178 -347 0 -12 11 16 25 63 24 83 85 190 152 267 15 17 64 50 110 73 75 38 95 51 75 49 -5 0 -41 -18 -81 -38z" transform="translate(0,92) scale(0.1,-0.1)" stroke="none" fill="#EA9D28"/>

<path d="M429 806 c-73 -21 -149 -66 -210 -126 -81 -80 -92 -106 -97 -227 -5 -129 12 -188 75 -250 41 -41 72 -52 65 -23 -2 7 -6 56 -9 109 -4 72 -1 112 11 160 20 79 14 93 -8 18 -17 -60 -21 -199 -7 -259 5 -21 5 -38 1 -38 -4 0 -28 22 -53 48 -56 61 -71 120 -65 250 3 76 8 96 30 129 58 86 152 159 240 189 27 9 51 14 53 12 3 -2 -22 -32 -55 -66 -55 -58 -130 -186 -116 -199 3 -3 10 7 16 23 26 68 47 101 103 160 32 35 71 69 88 76 62 27 21 36 -62 14z" transform="translate(0,92) scale(0.1,-0.1)" stroke="none" fill="#EA9D28"/>

<path d="M450 880 c-145 -25 -170 -34 -255 -91 -168 -114 -206 -342 -86 -526 46 -71 88 -112 164 -165 l59 -40 -9 78 c-19 179 5 293 90 423 72 111 101 137 214 192 l103 50 -15 29 c-10 20 -27 32 -53 39 -56 15 -161 20 -212 11z m70 -68 c0 -4 -13 -13 -29 -20 -38 -17 -142 -128 -164 -175 -9 -20 -24 -52 -32 -69 -34 -76 -48 -161 -42 -259 3 -53 7 -102 9 -109 7 -29 -24 -18 -65 23 -63 62 -80 121 -75 250 3 74 9 112 22 137 27 50 123 141 185 174 77 41 191 70 191 48z" transform="translate(0,92) scale(0.1,-0.1)" stroke="none" fill="#43682B"/>

</g>

<g id="2" transform="translate(0,184.0)scale(0.8,0.8)">

<path d="M445 891 c-18 -4 10 -7 70 -8 127 0 180 -14 200 -53 14 -26 13 -30 -3 -39 -16 -10 -16 -10 1 -11 29 0 31 28 4 64 -22 29 -34 34 -96 44 -75 13 -129 14 -176 3z" transform="translate(0,92) scale(0.1,-0.1)" stroke="none" fill="#EA9D28"/>

<path d="M259 841 c-149 -74 -231 -198 -227 -343 l1 -73 7 80 c7 94 32 162 78 216 36 41 115 99 172 123 19 8 28 15 20 15 -8 0 -31 -8 -51 -18z" transform="translate(0,92) scale(0.1,-0.1)" stroke="none" fill="#EA9D28"/>

<path d="M41 393 c-1 -27 57 -140 99 -193 35 -44 171 -150 193 -150 16 0 15 36 -4 125 -6 28 -7 16 -3 -39 l6 -78 -59 40 c-106 73 -179 163 -214 266 -10 29 -18 42 -18 29z" transform="translate(0,92) scale(0.1,-0.1)" stroke="none" fill="#EA9D28"/>

<path d="M602 741 c-40 -21 -86 -51 -103 -67 -75 -71 -180 -277 -178 -347 0 -12 11 16 25 63 24 83 85 190 152 267 15 17 64 50 110 73 75 38 95 51 75 49 -5 0 -41 -18 -81 -38z" transform="translate(0,92) scale(0.1,-0.1)" stroke="none" fill="#EA9D28"/>

<path d="M429 806 c-73 -21 -149 -66 -210 -126 -81 -80 -92 -106 -97 -227 -5 -129 12 -188 75 -250 41 -41 72 -52 65 -23 -2 7 -6 56 -9 109 -4 72 -1 112 11 160 20 79 14 93 -8 18 -17 -60 -21 -199 -7 -259 5 -21 5 -38 1 -38 -4 0 -28 22 -53 48 -56 61 -71 120 -65 250 3 76 8 96 30 129 58 86 152 159 240 189 27 9 51 14 53 12 3 -2 -22 -32 -55 -66 -55 -58 -130 -186 -116 -199 3 -3 10 7 16 23 26 68 47 101 103 160 32 35 71 69 88 76 62 27 21 36 -62 14z" transform="translate(0,92) scale(0.1,-0.1)" stroke="none" fill="#EA9D28"/>

<path d="M450 880 c-145 -25 -170 -34 -255 -91 -168 -114 -206 -342 -86 -526 46 -71 88 -112 164 -165 l59 -40 -9 78 c-19 179 5 293 90 423 72 111 101 137 214 192 l103 50 -15 29 c-10 20 -27 32 -53 39 -56 15 -161 20 -212 11z m70 -68 c0 -4 -13 -13 -29 -20 -38 -17 -142 -128 -164 -175 -9 -20 -24 -52 -32 -69 -34 -76 -48 -161 -42 -259 3 -53 7 -102 9 -109 7 -29 -24 -18 -65 23 -63 62 -80 121 -75 250 3 74 9 112 22 137 27 50 123 141 185 174 77 41 191 70 191 48z" transform="translate(0,92) scale(0.1,-0.1)" stroke="none" fill="#43682B"/>

</g>

<g id="3" transform="translate(0,276.0)scale(0.8,0.8)">

<path d="M445 891 c-18 -4 10 -7 70 -8 127 0 180 -14 200 -53 14 -26 13 -30 -3 -39 -16 -10 -16 -10 1 -11 29 0 31 28 4 64 -22 29 -34 34 -96 44 -75 13 -129 14 -176 3z" transform="translate(0,92) scale(0.1,-0.1)" stroke="none" fill="#EA9D28"/>

<path d="M259 841 c-149 -74 -231 -198 -227 -343 l1 -73 7 80 c7 94 32 162 78 216 36 41 115 99 172 123 19 8 28 15 20 15 -8 0 -31 -8 -51 -18z" transform="translate(0,92) scale(0.1,-0.1)" stroke="none" fill="#EA9D28"/>

<path d="M41 393 c-1 -27 57 -140 99 -193 35 -44 171 -150 193 -150 16 0 15 36 -4 125 -6 28 -7 16 -3 -39 l6 -78 -59 40 c-106 73 -179 163 -214 266 -10 29 -18 42 -18 29z" transform="translate(0,92) scale(0.1,-0.1)" stroke="none" fill="#EA9D28"/>

<path d="M602 741 c-40 -21 -86 -51 -103 -67 -75 -71 -180 -277 -178 -347 0 -12 11 16 25 63 24 83 85 190 152 267 15 17 64 50 110 73 75 38 95 51 75 49 -5 0 -41 -18 -81 -38z" transform="translate(0,92) scale(0.1,-0.1)" stroke="none" fill="#EA9D28"/>

<path d="M429 806 c-73 -21 -149 -66 -210 -126 -81 -80 -92 -106 -97 -227 -5 -129 12 -188 75 -250 41 -41 72 -52 65 -23 -2 7 -6 56 -9 109 -4 72 -1 112 11 160 20 79 14 93 -8 18 -17 -60 -21 -199 -7 -259 5 -21 5 -38 1 -38 -4 0 -28 22 -53 48 -56 61 -71 120 -65 250 3 76 8 96 30 129 58 86 152 159 240 189 27 9 51 14 53 12 3 -2 -22 -32 -55 -66 -55 -58 -130 -186 -116 -199 3 -3 10 7 16 23 26 68 47 101 103 160 32 35 71 69 88 76 62 27 21 36 -62 14z" transform="translate(0,92) scale(0.1,-0.1)" stroke="none" fill="#EA9D28"/>

<path d="M450 880 c-145 -25 -170 -34 -255 -91 -168 -114 -206 -342 -86 -526 46 -71 88 -112 164 -165 l59 -40 -9 78 c-19 179 5 293 90 423 72 111 101 137 214 192 l103 50 -15 29 c-10 20 -27 32 -53 39 -56 15 -161 20 -212 11z m70 -68 c0 -4 -13 -13 -29 -20 -38 -17 -142 -128 -164 -175 -9 -20 -24 -52 -32 -69 -34 -76 -48 -161 -42 -259 3 -53 7 -102 9 -109 7 -29 -24 -18 -65 23 -63 62 -80 121 -75 250 3 74 9 112 22 137 27 50 123 141 185 174 77 41 191 70 191 48z" transform="translate(0,92) scale(0.1,-0.1)" stroke="none" fill="#43682B"/>

</g>

<g id="4" transform="translate(0,368.0)scale(0.8,0.8)">

<path d="M445 891 c-18 -4 10 -7 70 -8 127 0 180 -14 200 -53 14 -26 13 -30 -3 -39 -16 -10 -16 -10 1 -11 29 0 31 28 4 64 -22 29 -34 34 -96 44 -75 13 -129 14 -176 3z" transform="translate(0,92) scale(0.1,-0.1)" stroke="none" fill="#EA9D28"/>

<path d="M259 841 c-149 -74 -231 -198 -227 -343 l1 -73 7 80 c7 94 32 162 78 216 36 41 115 99 172 123 19 8 28 15 20 15 -8 0 -31 -8 -51 -18z" transform="translate(0,92) scale(0.1,-0.1)" stroke="none" fill="#EA9D28"/>

<path d="M41 393 c-1 -27 57 -140 99 -193 35 -44 171 -150 193 -150 16 0 15 36 -4 125 -6 28 -7 16 -3 -39 l6 -78 -59 40 c-106 73 -179 163 -214 266 -10 29 -18 42 -18 29z" transform="translate(0,92) scale(0.1,-0.1)" stroke="none" fill="#EA9D28"/>

<path d="M602 741 c-40 -21 -86 -51 -103 -67 -75 -71 -180 -277 -178 -347 0 -12 11 16 25 63 24 83 85 190 152 267 15 17 64 50 110 73 75 38 95 51 75 49 -5 0 -41 -18 -81 -38z" transform="translate(0,92) scale(0.1,-0.1)" stroke="none" fill="#EA9D28"/>

<path d="M429 806 c-73 -21 -149 -66 -210 -126 -81 -80 -92 -106 -97 -227 -5 -129 12 -188 75 -250 41 -41 72 -52 65 -23 -2 7 -6 56 -9 109 -4 72 -1 112 11 160 20 79 14 93 -8 18 -17 -60 -21 -199 -7 -259 5 -21 5 -38 1 -38 -4 0 -28 22 -53 48 -56 61 -71 120 -65 250 3 76 8 96 30 129 58 86 152 159 240 189 27 9 51 14 53 12 3 -2 -22 -32 -55 -66 -55 -58 -130 -186 -116 -199 3 -3 10 7 16 23 26 68 47 101 103 160 32 35 71 69 88 76 62 27 21 36 -62 14z" transform="translate(0,92) scale(0.1,-0.1)" stroke="none" fill="#EA9D28"/>

<path d="M450 880 c-145 -25 -170 -34 -255 -91 -168 -114 -206 -342 -86 -526 46 -71 88 -112 164 -165 l59 -40 -9 78 c-19 179 5 293 90 423 72 111 101 137 214 192 l103 50 -15 29 c-10 20 -27 32 -53 39 -56 15 -161 20 -212 11z m70 -68 c0 -4 -13 -13 -29 -20 -38 -17 -142 -128 -164 -175 -9 -20 -24 -52 -32 -69 -34 -76 -48 -161 -42 -259 3 -53 7 -102 9 -109 7 -29 -24 -18 -65 23 -63 62 -80 121 -75 250 3 74 9 112 22 137 27 50 123 141 185 174 77 41 191 70 191 48z" transform="translate(0,92) scale(0.1,-0.1)" stroke="none" fill="#43682B"/>

</g>

</g>
</svg>