<?xml version="1.0" standalone="no"?>
<!DOCTYPE svg PUBLIC "-//W3C//DTD SVG 20010904//EN"
 "http://www.w3.org/TR/2001/REC-SVG-20010904/DTD/svg10.dtd">
<svg version="1.0" xmlns="http://www.w3.org/2000/svg" width="560pt" height="464pt" viewBox="0 0 560 464" preserveAspectRatio = "xMidYMid meet" >
<metadata>
Created by ZoeQu, written in 2022
</metadata>
<rect width="560" height="464" fill="#E3E4EA"/>
<g id="row0" transform="translate(18,0.0)">
<g id="0" transform="translate(0.0,0)scale(1,1)">

<path d="M820 470 c0 -18 27 -64 49 -84 12 -11 21 -27 21 -36 0 -10 7 -23 16 -31 26 -21 44 -66 44 -109 0 -67 -65 -116 -125 -94 -22 9 -41 50 -49 106 -4 26 -12 50 -18 54 -11 7 -2 121 13 161 7 18 5 23 -7 23 -11 0 -13 -6 -9 -20 4 -11 2 -20 -4 -20 -17 0 -14 -223 3 -264 21 -49 74 -86 125 -86 35 0 47 6 72 32 56 62 51 146 -14 236 -23 32 -55 77 -72 100 -30 41 -45 52 -45 32z" transform="translate(0,116) scale(0.1,-0.1)" stroke="none" fill="#B9CF64"/>

<path d="M620 531 c0 -4 -22 -11 -49 -14 -73 -9 -211 -78 -238 -119 -76 -113 55 -243 183 -182 51 24 129 117 160 190 15 35 24 67 20 71 -10 10 -63 -58 -70 -89 -7 -35 -102 -131 -144 -146 -40 -14 -132 2 -132 22 0 7 -3 33 -6 58 l-6 45 59 40 c75 51 137 83 161 83 24 0 82 29 82 41 0 5 -4 9 -10 9 -5 0 -10 -4 -10 -9z" transform="translate(0,116) scale(0.1,-0.1)" stroke="none" fill="#B9CF64"/>

<path d="M705 664 c-16 -8 -43 -33 -58 -55 l-28 -41 33 -37 c53 -60 148 -79 192 -37 42 38 36 84 -19 140 -48 50 -71 55 -120 30z" transform="translate(0,116) scale(0.1,-0.1)" stroke="none" fill="#806379"/>

<path d="M1070 599 c-168 -18 -191 -22 -187 -33 4 -13 51 -13 188 -1 l95 8 52 -34 c65 -43 81 -69 61 -105 -17 -34 -46 -44 -119 -44 -62 0 -97 13 -205 75 -58 33 -105 44 -105 26 0 -5 55 -37 123 -71 118 -60 126 -62 201 -63 l79 -1 33 38 c27 31 34 48 34 80 0 47 -16 65 -89 101 -60 29 -83 33 -161 24z" transform="translate(0,116) scale(0.1,-0.1)" stroke="none" fill="#B9CF64"/>

<path d="M205 350 c-9 -10 -30 -22 -47 -25 -17 -4 -34 -17 -40 -31 -15 -32 5 -60 77 -109 51 -36 63 -40 117 -39 45 1 64 6 79 21 20 20 20 20 -20 56 -49 44 -61 66 -61 109 0 32 -1 33 -44 35 -32 1 -48 -3 -61 -17z" transform="translate(0,116) scale(0.1,-0.1)" stroke="none" fill="#806379"/>

<path d="M295 866 c-48 -24 -65 -42 -76 -80 -21 -75 22 -149 111 -189 36 -17 66 -21 145 -21 202 0 205 30 4 39 -143 8 -177 19 -207 74 -29 52 -28 82 7 118 58 61 135 49 230 -37 24 -22 52 -42 62 -45 10 -3 21 -14 24 -24 3 -10 18 -30 34 -45 25 -24 29 -25 35 -10 7 19 -85 116 -177 184 -48 36 -68 44 -110 47 -32 2 -64 -2 -82 -11z" transform="translate(0,116) scale(0.1,-0.1)" stroke="none" fill="#B9CF64"/>

<path d="M990 885 c0 -9 -12 -28 -27 -43 -29 -28 -143 -178 -143 -187 0 -3 7 -17 16 -31 14 -21 18 -22 28 -9 12 16 137 78 178 88 34 9 69 58 70 99 1 24 -7 39 -35 65 -39 35 -87 45 -87 18z" transform="translate(0,116) scale(0.1,-0.1)" stroke="none" fill="#B6AECD"/>

<path d="M645 1030 c-16 -17 -17 -33 -12 -121 5 -96 7 -103 33 -124 22 -18 27 -30 28 -72 l1 -50 34 12 c28 9 34 17 37 46 2 19 9 47 14 63 14 42 12 161 -4 199 -7 18 -21 40 -30 50 -24 23 -78 22 -101 -3z" transform="translate(0,116) scale(0.1,-0.1)" stroke="none" fill="#B6AECD"/>

<path d="M780 456 c-18 -23 -35 -155 -22 -176 6 -10 14 -35 17 -56 4 -22 11 -52 17 -67 21 -54 79 -63 127 -18 25 23 31 37 31 71 0 43 -18 88 -44 109 -9 8 -16 21 -16 30 0 10 -11 28 -24 40 -14 13 -30 36 -36 52 -14 32 -31 37 -50 15z" transform="translate(0,116) scale(0.1,-0.1)" stroke="none" fill="#B6AECD"/>

<path d="M995 558 c-33 -5 -75 -7 -92 -4 -30 4 -33 3 -33 -22 1 -23 10 -32 71 -62 38 -19 89 -45 112 -57 30 -16 60 -22 104 -23 76 0 104 10 122 44 19 35 4 62 -59 104 -55 35 -101 39 -225 20z" transform="translate(0,116) scale(0.1,-0.1)" stroke="none" fill="#B6AECD"/>

<path d="M170 734 c0 -9 -9 -18 -19 -21 -11 -3 -31 -29 -47 -61 -23 -47 -28 -72 -30 -140 -2 -99 8 -116 64 -106 37 7 149 86 159 112 4 8 1 23 -5 33 -18 28 -15 32 23 25 22 -4 35 -3 35 4 0 5 -4 10 -8 10 -5 0 -30 14 -56 31 -48 32 -76 72 -76 109 0 13 -7 20 -20 20 -12 0 -20 -7 -20 -16z" transform="translate(0,116) scale(0.1,-0.1)" stroke="none" fill="#806379"/>

<path d="M640 532 c0 -13 -56 -42 -82 -42 -24 0 -86 -32 -161 -83 l-59 -40 6 -45 c3 -25 6 -51 6 -58 0 -20 92 -36 132 -22 41 14 136 109 144 146 4 15 20 42 35 61 20 25 26 39 19 51 -12 23 -40 45 -40 32z" transform="translate(0,116) scale(0.1,-0.1)" stroke="none" fill="#B6AECD"/>

<path d="M327 840 c-36 -11 -77 -58 -77 -89 0 -36 40 -99 74 -115 19 -8 79 -17 150 -20 65 -4 130 -9 143 -12 43 -11 46 15 7 58 -19 21 -34 42 -34 47 0 5 -8 12 -19 16 -10 3 -38 23 -62 45 -46 42 -115 81 -140 79 -8 0 -27 -5 -42 -9z" transform="translate(0,116) scale(0.1,-0.1)" stroke="none" fill="#B6AECD"/>

<path d="M654 1074 c-53 -34 -74 -74 -74 -139 0 -44 9 -70 50 -151 28 -54 50 -105 50 -113 0 -11 3 -12 11 -4 20 20 2 99 -27 121 -24 17 -26 26 -31 120 -5 89 -4 105 12 122 23 25 77 26 101 3 45 -45 58 -160 29 -268 -13 -51 -13 -59 1 -81 9 -13 23 -24 30 -24 8 0 40 35 72 78 31 42 70 89 85 104 15 15 27 34 27 43 0 27 48 17 87 -18 28 -26 36 -41 35 -65 -1 -45 -36 -89 -80 -102 -52 -15 -165 -73 -170 -88 -6 -19 28 -14 108 17 87 34 140 75 165 127 23 49 15 108 -19 143 -22 22 -35 26 -81 25 -46 0 -59 -5 -85 -29 -16 -16 -30 -35 -30 -42 0 -7 -4 -13 -10 -13 -5 0 -10 -9 -10 -20 0 -11 -4 -20 -10 -20 -5 0 -10 -7 -10 -15 0 -17 -69 -89 -78 -81 -3 3 0 43 6 88 26 181 11 260 -54 291 -46 22 -53 22 -100 -9z" transform="translate(0,116) scale(0.1,-0.1)" stroke="none" fill="#B9CF64"/>

</g>

<g id="1" transform="translate(140.0,0)scale(1,1)">

<path d="M820 470 c0 -18 27 -64 49 -84 12 -11 21 -27 21 -36 0 -10 7 -23 16 -31 26 -21 44 -66 44 -109 0 -67 -65 -116 -125 -94 -22 9 -41 50 -49 106 -4 26 -12 50 -18 54 -11 7 -2 121 13 161 7 18 5 23 -7 23 -11 0 -13 -6 -9 -20 4 -11 2 -20 -4 -20 -17 0 -14 -223 3 -264 21 -49 74 -86 125 -86 35 0 47 6 72 32 56 62 51 146 -14 236 -23 32 -55 77 -72 100 -30 41 -45 52 -45 32z" transform="translate(0,116) scale(0.1,-0.1)" stroke="none" fill="#B9CF64"/>

<path d="M620 531 c0 -4 -22 -11 -49 -14 -73 -9 -211 -78 -238 -119 -76 -113 55 -243 183 -182 51 24 129 117 160 190 15 35 24 67 20 71 -10 10 -63 -58 -70 -89 -7 -35 -102 -131 -144 -146 -40 -14 -132 2 -132 22 0 7 -3 33 -6 58 l-6 45 59 40 c75 51 137 83 161 83 24 0 82 29 82 41 0 5 -4 9 -10 9 -5 0 -10 -4 -10 -9z" transform="translate(0,116) scale(0.1,-0.1)" stroke="none" fill="#B9CF64"/>

<path d="M705 664 c-16 -8 -43 -33 -58 -55 l-28 -41 33 -37 c53 -60 148 -79 192 -37 42 38 36 84 -19 140 -48 50 -71 55 -120 30z" transform="translate(0,116) scale(0.1,-0.1)" stroke="none" fill="#806379"/>

<path d="M1070 599 c-168 -18 -191 -22 -187 -33 4 -13 51 -13 188 -1 l95 8 52 -34 c65 -43 81 -69 61 -105 -17 -34 -46 -44 -119 -44 -62 0 -97 13 -205 75 -58 33 -105 44 -105 26 0 -5 55 -37 123 -71 118 -60 126 -62 201 -63 l79 -1 33 38 c27 31 34 48 34 80 0 47 -16 65 -89 101 -60 29 -83 33 -161 24z" transform="translate(0,116) scale(0.1,-0.1)" stroke="none" fill="#B9CF64"/>

<path d="M205 350 c-9 -10 -30 -22 -47 -25 -17 -4 -34 -17 -40 -31 -15 -32 5 -60 77 -109 51 -36 63 -40 117 -39 45 1 64 6 79 21 20 20 20 20 -20 56 -49 44 -61 66 -61 109 0 32 -1 33 -44 35 -32 1 -48 -3 -61 -17z" transform="translate(0,116) scale(0.1,-0.1)" stroke="none" fill="#806379"/>

<path d="M295 866 c-48 -24 -65 -42 -76 -80 -21 -75 22 -149 111 -189 36 -17 66 -21 145 -21 202 0 205 30 4 39 -143 8 -177 19 -207 74 -29 52 -28 82 7 118 58 61 135 49 230 -37 24 -22 52 -42 62 -45 10 -3 21 -14 24 -24 3 -10 18 -30 34 -45 25 -24 29 -25 35 -10 7 19 -85 116 -177 184 -48 36 -68 44 -110 47 -32 2 -64 -2 -82 -11z" transform="translate(0,116) scale(0.1,-0.1)" stroke="none" fill="#B9CF64"/>

<path d="M990 885 c0 -9 -12 -28 -27 -43 -29 -28 -143 -178 -143 -187 0 -3 7 -17 16 -31 14 -21 18 -22 28 -9 12 16 137 78 178 88 34 9 69 58 70 99 1 24 -7 39 -35 65 -39 35 -87 45 -87 18z" transform="translate(0,116) scale(0.1,-0.1)" stroke="none" fill="#B6AECD"/>

<path d="M645 1030 c-16 -17 -17 -33 -12 -121 5 -96 7 -103 33 -124 22 -18 27 -30 28 -72 l1 -50 34 12 c28 9 34 17 37 46 2 19 9 47 14 63 14 42 12 161 -4 199 -7 18 -21 40 -30 50 -24 23 -78 22 -101 -3z" transform="translate(0,116) scale(0.1,-0.1)" stroke="none" fill="#B6AECD"/>

<path d="M780 456 c-18 -23 -35 -155 -22 -176 6 -10 14 -35 17 -56 4 -22 11 -52 17 -67 21 -54 79 -63 127 -18 25 23 31 37 31 71 0 43 -18 88 -44 109 -9 8 -16 21 -16 30 0 10 -11 28 -24 40 -14 13 -30 36 -36 52 -14 32 -31 37 -50 15z" transform="translate(0,116) scale(0.1,-0.1)" stroke="none" fill="#B6AECD"/>

<path d="M995 558 c-33 -5 -75 -7 -92 -4 -30 4 -33 3 -33 -22 1 -23 10 -32 71 -62 38 -19 89 -45 112 -57 30 -16 60 -22 104 -23 76 0 104 10 122 44 19 35 4 62 -59 104 -55 35 -101 39 -225 20z" transform="translate(0,116) scale(0.1,-0.1)" stroke="none" fill="#B6AECD"/>

<path d="M170 734 c0 -9 -9 -18 -19 -21 -11 -3 -31 -29 -47 -61 -23 -47 -28 -72 -30 -140 -2 -99 8 -116 64 -106 37 7 149 86 159 112 4 8 1 23 -5 33 -18 28 -15 32 23 25 22 -4 35 -3 35 4 0 5 -4 10 -8 10 -5 0 -30 14 -56 31 -48 32 -76 72 -76 109 0 13 -7 20 -20 20 -12 0 -20 -7 -20 -16z" transform="translate(0,116) scale(0.1,-0.1)" stroke="none" fill="#806379"/>

<path d="M640 532 c0 -13 -56 -42 -82 -42 -24 0 -86 -32 -161 -83 l-59 -40 6 -45 c3 -25 6 -51 6 -58 0 -20 92 -36 132 -22 41 14 136 109 144 146 4 15 20 42 35 61 20 25 26 39 19 51 -12 23 -40 45 -40 32z" transform="translate(0,116) scale(0.1,-0.1)" stroke="none" fill="#B6AECD"/>

<path d="M327 840 c-36 -11 -77 -58 -77 -89 0 -36 40 -99 74 -115 19 -8 79 -17 150 -20 65 -4 130 -9 143 -12 43 -11 46 15 7 58 -19 21 -34 42 -34 47 0 5 -8 12 -19 16 -10 3 -38 23 -62 45 -46 42 -115 81 -140 79 -8 0 -27 -5 -42 -9z" transform="translate(0,116) scale(0.1,-0.1)" stroke="none" fill="#B6AECD"/>

<path d="M654 1074 c-53 -34 -74 -74 -74 -139 0 -44 9 -70 50 -151 28 -54 50 -105 50 -113 0 -11 3 -12 11 -4 20 20 2 99 -27 121 -24 17 -26 26 -31 120 -5 89 -4 105 12 122 23 25 77 26 101 3 45 -45 58 -160 29 -268 -13 -51 -13 -59 1 -81 9 -13 23 -24 30 -24 8 0 40 35 72 78 31 42 70 89 85 104 15 15 27 34 27 43 0 27 48 17 87 -18 28 -26 36 -41 35 -65 -1 -45 -36 -89 -80 -102 -52 -15 -165 -73 -170 -88 -6 -19 28 -14 108 17 87 34 140 75 165 127 23 49 15 108 -19 143 -22 22 -35 26 -81 25 -46 0 -59 -5 -85 -29 -16 -16 -30 -35 -30 -42 0 -7 -4 -13 -10 -13 -5 0 -10 -9 -10 -20 0 -11 -4 -20 -10 -20 -5 0 -10 -7 -10 -15 0 -17 -69 -89 -78 -81 -3 3 0 43 6 88 26 181 11 260 -54 291 -46 22 -53 22 -100 -9z" transform="translate(0,116) scale(0.1,-0.1)" stroke="none" fill="#B9CF64"/>

</g>

<g id="2" transform="translate(280.0,0)scale(1,1)">

<path d="M820 470 c0 -18 27 -64 49 -84 12 -11 21 -27 21 -36 0 -10 7 -23 16 -31 26 -21 44 -66 44 -109 0 -67 -65 -116 -125 -94 -22 9 -41 50 -49 106 -4 26 -12 50 -18 54 -11 7 -2 121 13 161 7 18 5 23 -7 23 -11 0 -13 -6 -9 -20 4 -11 2 -20 -4 -20 -17 0 -14 -223 3 -264 21 -49 74 -86 125 -86 35 0 47 6 72 32 56 62 51 146 -14 236 -23 32 -55 77 -72 100 -30 41 -45 52 -45 32z" transform="translate(0,116) scale(0.1,-0.1)" stroke="none" fill="#B9CF64"/>

<path d="M620 531 c0 -4 -22 -11 -49 -14 -73 -9 -211 -78 -238 -119 -76 -113 55 -243 183 -182 51 24 129 117 160 190 15 35 24 67 20 71 -10 10 -63 -58 -70 -89 -7 -35 -102 -131 -144 -146 -40 -14 -132 2 -132 22 0 7 -3 33 -6 58 l-6 45 59 40 c75 51 137 83 161 83 24 0 82 29 82 41 0 5 -4 9 -10 9 -5 0 -10 -4 -10 -9z" transform="translate(0,116) scale(0.1,-0.1)" stroke="none" fill="#B9CF64"/>

<path d="M705 664 c-16 -8 -43 -33 -58 -55 l-28 -41 33 -37 c53 -60 148 -79 192 -37 42 38 36 84 -19 140 -48 50 -71 55 -120 30z" transform="translate(0,116) scale(0.1,-0.1)" stroke="none" fill="#806379"/>

<path d="M1070 599 c-168 -18 -191 -22 -187 -33 4 -13 51 -13 188 -1 l95 8 52 -34 c65 -43 81 -69 61 -105 -17 -34 -46 -44 -119 -44 -62 0 -97 13 -205 75 -58 33 -105 44 -105 26 0 -5 55 -37 123 -71 118 -60 126 -62 201 -63 l79 -1 33 38 c27 31 34 48 34 80 0 47 -16 65 -89 101 -60 29 -83 33 -161 24z" transform="translate(0,116) scale(0.1,-0.1)" stroke="none" fill="#B9CF64"/>

<path d="M205 350 c-9 -10 -30 -22 -47 -25 -17 -4 -34 -17 -40 -31 -15 -32 5 -60 77 -109 51 -36 63 -40 117 -39 45 1 64 6 79 21 20 20 20 20 -20 56 -49 44 -61 66 -61 109 0 32 -1 33 -44 35 -32 1 -48 -3 -61 -17z" transform="translate(0,116) scale(0.1,-0.1)" stroke="none" fill="#806379"/>

<path d="M295 866 c-48 -24 -65 -42 -76 -80 -21 -75 22 -149 111 -189 36 -17 66 -21 145 -21 202 0 205 30 4 39 -143 8 -177 19 -207 74 -29 52 -28 82 7 118 58 61 135 49 230 -37 24 -22 52 -42 62 -45 10 -3 21 -14 24 -24 3 -10 18 -30 34 -45 25 -24 29 -25 35 -10 7 19 -85 116 -177 184 -48 36 -68 44 -110 47 -32 2 -64 -2 -82 -11z" transform="translate(0,116) scale(0.1,-0.1)" stroke="none" fill="#B9CF64"/>

<path d="M990 885 c0 -9 -12 -28 -27 -43 -29 -28 -143 -178 -143 -187 0 -3 7 -17 16 -31 14 -21 18 -22 28 -9 12 16 137 78 178 88 34 9 69 58 70 99 1 24 -7 39 -35 65 -39 35 -87 45 -87 18z" transform="translate(0,116) scale(0.1,-0.1)" stroke="none" fill="#B6AECD"/>

<path d="M645 1030 c-16 -17 -17 -33 -12 -121 5 -96 7 -103 33 -124 22 -18 27 -30 28 -72 l1 -50 34 12 c28 9 34 17 37 46 2 19 9 47 14 63 14 42 12 161 -4 199 -7 18 -21 40 -30 50 -24 23 -78 22 -101 -3z" transform="translate(0,116) scale(0.1,-0.1)" stroke="none" fill="#B6AECD"/>

<path d="M780 456 c-18 -23 -35 -155 -22 -176 6 -10 14 -35 17 -56 4 -22 11 -52 17 -67 21 -54 79 -63 127 -18 25 23 31 37 31 71 0 43 -18 88 -44 109 -9 8 -16 21 -16 30 0 10 -11 28 -24 40 -14 13 -30 36 -36 52 -14 32 -31 37 -50 15z" transform="translate(0,116) scale(0.1,-0.1)" stroke="none" fill="#B6AECD"/>

<path d="M995 558 c-33 -5 -75 -7 -92 -4 -30 4 -33 3 -33 -22 1 -23 10 -32 71 -62 38 -19 89 -45 112 -57 30 -16 60 -22 104 -23 76 0 104 10 122 44 19 35 4 62 -59 104 -55 35 -101 39 -225 20z" transform="translate(0,116) scale(0.1,-0.1)" stroke="none" fill="#B6AECD"/>

<path d="M170 734 c0 -9 -9 -18 -19 -21 -11 -3 -31 -29 -47 -61 -23 -47 -28 -72 -30 -140 -2 -99 8 -116 64 -106 37 7 149 86 159 112 4 8 1 23 -5 33 -18 28 -15 32 23 25 22 -4 35 -3 35 4 0 5 -4 10 -8 10 -5 0 -30 14 -56 31 -48 32 -76 72 -76 109 0 13 -7 20 -20 20 -12 0 -20 -7 -20 -16z" transform="translate(0,116) scale(0.1,-0.1)" stroke="none" fill="#806379"/>

<path d="M640 532 c0 -13 -56 -42 -82 -42 -24 0 -86 -32 -161 -83 l-59 -40 6 -45 c3 -25 6 -51 6 -58 0 -20 92 -36 132 -22 41 14 136 109 144 146 4 15 20 42 35 61 20 25 26 39 19 51 -12 23 -40 45 -40 32z" transform="translate(0,116) scale(0.1,-0.1)" stroke="none" fill="#B6AECD"/>

<path d="M327 840 c-36 -11 -77 -58 -77 -89 0 -36 40 -99 74 -115 19 -8 79 -17 150 -20 65 -4 130 -9 143 -12 43 -11 46 15 7 58 -19 21 -34 42 -34 47 0 5 -8 12 -19 16 -10 3 -38 23 -62 45 -46 42 -115 81 -140 79 -8 0 -27 -5 -42 -9z" transform="translate(0,116) scale(0.1,-0.1)" stroke="none" fill="#B6AECD"/>

<path d="M654 1074 c-53 -34 -74 -74 -74 -139 0 -44 9 -70 50 -151 28 -54 50 -105 50 -113 0 -11 3 -12 11 -4 20 20 2 99 -27 121 -24 17 -26 26 -31 120 -5 89 -4 105 12 122 23 25 77 26 101 3 45 -45 58 -160 29 -268 -13 -51 -13 -59 1 -81 9 -13 23 -24 30 -24 8 0 40 35 72 78 31 42 70 89 85 104 15 15 27 34 27 43 0 27 48 17 87 -18 28 -26 36 -41 35 -65 -1 -45 -36 -89 -80 -102 -52 -15 -165 -73 -170 -88 -6 -19 28 -14 108 17 87 34 140 75 165 127 23 49 15 108 -19 143 -22 22 -35 26 -81 25 -46 0 -59 -5 -85 -29 -16 -16 -30 -35 -30 -42 0 -7 -4 -13 -10 -13 -5 0 -10 -9 -10 -20 0 -11 -4 -20 -10 -20 -5 0 -10 -7 -10 -15 0 -17 -69 -89 -78 -81 -3 3 0 43 6 88 26 181 11 260 -54 291 -46 22 -53 22 -100 -9z" transform="translate(0,116) scale(0.1,-0.1)" stroke="none" fill="#B9CF64"/>

</g>

<g id="3" transform="translate(420.0,0)scale(1,1)">

<path d="M820 470 c0 -18 27 -64 49 -84 12 -11 21 -27 21 -36 0 -10 7 -23 16 -31 26 -21 44 -66 44 -109 0 -67 -65 -116 -125 -94 -22 9 -41 50 -49 106 -4 26 -12 50 -18 54 -11 7 -2 121 13 161 7 18 5 23 -7 23 -11 0 -13 -6 -9 -20 4 -11 2 -20 -4 -20 -17 0 -14 -223 3 -264 21 -49 74 -86 125 -86 35 0 47 6 72 32 56 62 51 146 -14 236 -23 32 -55 77 -72 100 -30 41 -45 52 -45 32z" transform="translate(0,116) scale(0.1,-0.1)" stroke="none" fill="#B9CF64"/>

<path d="M620 531 c0 -4 -22 -11 -49 -14 -73 -9 -211 -78 -238 -119 -76 -113 55 -243 183 -182 51 24 129 117 160 190 15 35 24 67 20 71 -10 10 -63 -58 -70 -89 -7 -35 -102 -131 -144 -146 -40 -14 -132 2 -132 22 0 7 -3 33 -6 58 l-6 45 59 40 c75 51 137 83 161 83 24 0 82 29 82 41 0 5 -4 9 -10 9 -5 0 -10 -4 -10 -9z" transform="translate(0,116) scale(0.1,-0.1)" stroke="none" fill="#B9CF64"/>

<path d="M705 664 c-16 -8 -43 -33 -58 -55 l-28 -41 33 -37 c53 -60 148 -79 192 -37 42 38 36 84 -19 140 -48 50 -71 55 -120 30z" transform="translate(0,116) scale(0.1,-0.1)" stroke="none" fill="#806379"/>

<path d="M1070 599 c-168 -18 -191 -22 -187 -33 4 -13 51 -13 188 -1 l95 8 52 -34 c65 -43 81 -69 61 -105 -17 -34 -46 -44 -119 -44 -62 0 -97 13 -205 75 -58 33 -105 44 -105 26 0 -5 55 -37 123 -71 118 -60 126 -62 201 -63 l79 -1 33 38 c27 31 34 48 34 80 0 47 -16 65 -89 101 -60 29 -83 33 -161 24z" transform="translate(0,116) scale(0.1,-0.1)" stroke="none" fill="#B9CF64"/>

<path d="M205 350 c-9 -10 -30 -22 -47 -25 -17 -4 -34 -17 -40 -31 -15 -32 5 -60 77 -109 51 -36 63 -40 117 -39 45 1 64 6 79 21 20 20 20 20 -20 56 -49 44 -61 66 -61 109 0 32 -1 33 -44 35 -32 1 -48 -3 -61 -17z" transform="translate(0,116) scale(0.1,-0.1)" stroke="none" fill="#806379"/>

<path d="M295 866 c-48 -24 -65 -42 -76 -80 -21 -75 22 -149 111 -189 36 -17 66 -21 145 -21 202 0 205 30 4 39 -143 8 -177 19 -207 74 -29 52 -28 82 7 118 58 61 135 49 230 -37 24 -22 52 -42 62 -45 10 -3 21 -14 24 -24 3 -10 18 -30 34 -45 25 -24 29 -25 35 -10 7 19 -85 116 -177 184 -48 36 -68 44 -110 47 -32 2 -64 -2 -82 -11z" transform="translate(0,116) scale(0.1,-0.1)" stroke="none" fill="#B9CF64"/>

<path d="M990 885 c0 -9 -12 -28 -27 -43 -29 -28 -143 -178 -143 -187 0 -3 7 -17 16 -31 14 -21 18 -22 28 -9 12 16 137 78 178 88 34 9 69 58 70 99 1 24 -7 39 -35 65 -39 35 -87 45 -87 18z" transform="translate(0,116) scale(0.1,-0.1)" stroke="none" fill="#B6AECD"/>

<path d="M645 1030 c-16 -17 -17 -33 -12 -121 5 -96 7 -103 33 -124 22 -18 27 -30 28 -72 l1 -50 34 12 c28 9 34 17 37 46 2 19 9 47 14 63 14 42 12 161 -4 199 -7 18 -21 40 -30 50 -24 23 -78 22 -101 -3z" transform="translate(0,116) scale(0.1,-0.1)" stroke="none" fill="#B6AECD"/>

<path d="M780 456 c-18 -23 -35 -155 -22 -176 6 -10 14 -35 17 -56 4 -22 11 -52 17 -67 21 -54 79 -63 127 -18 25 23 31 37 31 71 0 43 -18 88 -44 109 -9 8 -16 21 -16 30 0 10 -11 28 -24 40 -14 13 -30 36 -36 52 -14 32 -31 37 -50 15z" transform="translate(0,116) scale(0.1,-0.1)" stroke="none" fill="#B6AECD"/>

<path d="M995 558 c-33 -5 -75 -7 -92 -4 -30 4 -33 3 -33 -22 1 -23 10 -32 71 -62 38 -19 89 -45 112 -57 30 -16 60 -22 104 -23 76 0 104 10 122 44 19 35 4 62 -59 104 -55 35 -101 39 -225 20z" transform="translate(0,116) scale(0.1,-0.1)" stroke="none" fill="#B6AECD"/>

<path d="M170 734 c0 -9 -9 -18 -19 -21 -11 -3 -31 -29 -47 -61 -23 -47 -28 -72 -30 -140 -2 -99 8 -116 64 -106 37 7 149 86 159 112 4 8 1 23 -5 33 -18 28 -15 32 23 25 22 -4 35 -3 35 4 0 5 -4 10 -8 10 -5 0 -30 14 -56 31 -48 32 -76 72 -76 109 0 13 -7 20 -20 20 -12 0 -20 -7 -20 -16z" transform="translate(0,116) scale(0.1,-0.1)" stroke="none" fill="#806379"/>

<path d="M640 532 c0 -13 -56 -42 -82 -42 -24 0 -86 -32 -161 -83 l-59 -40 6 -45 c3 -25 6 -51 6 -58 0 -20 92 -36 132 -22 41 14 136 109 144 146 4 15 20 42 35 61 20 25 26 39 19 51 -12 23 -40 45 -40 32z" transform="translate(0,116) scale(0.1,-0.1)" stroke="none" fill="#B6AECD"/>

<path d="M327 840 c-36 -11 -77 -58 -77 -89 0 -36 40 -99 74 -115 19 -8 79 -17 150 -20 65 -4 130 -9 143 -12 43 -11 46 15 7 58 -19 21 -34 42 -34 47 0 5 -8 12 -19 16 -10 3 -38 23 -62 45 -46 42 -115 81 -140 79 -8 0 -27 -5 -42 -9z" transform="translate(0,116) scale(0.1,-0.1)" stroke="none" fill="#B6AECD"/>

<path d="M654 1074 c-53 -34 -74 -74 -74 -139 0 -44 9 -70 50 -151 28 -54 50 -105 50 -113 0 -11 3 -12 11 -4 20 20 2 99 -27 121 -24 17 -26 26 -31 120 -5 89 -4 105 12 122 23 25 77 26 101 3 45 -45 58 -160 29 -268 -13 -51 -13 -59 1 -81 9 -13 23 -24 30 -24 8 0 40 35 72 78 31 42 70 89 85 104 15 15 27 34 27 43 0 27 48 17 87 -18 28 -26 36 -41 35 -65 -1 -45 -36 -89 -80 -102 -52 -15 -165 -73 -170 -88 -6 -19 28 -14 108 17 87 34 140 75 165 127 23 49 15 108 -19 143 -22 22 -35 26 -81 25 -46 0 -59 -5 -85 -29 -16 -16 -30 -35 -30 -42 0 -7 -4 -13 -10 -13 -5 0 -10 -9 -10 -20 0 -11 -4 -20 -10 -20 -5 0 -10 -7 -10 -15 0 -17 -69 -89 -78 -81 -3 3 0 43 6 88 26 181 11 260 -54 291 -46 22 -53 22 -100 -9z" transform="translate(0,116) scale(0.1,-0.1)" stroke="none" fill="#B9CF64"/>

</g>

<g id="4" transform="translate(560.0,0)scale(1,1)">

<path d="M820 470 c0 -18 27 -64 49 -84 12 -11 21 -27 21 -36 0 -10 7 -23 16 -31 26 -21 44 -66 44 -109 0 -67 -65 -116 -125 -94 -22 9 -41 50 -49 106 -4 26 -12 50 -18 54 -11 7 -2 121 13 161 7 18 5 23 -7 23 -11 0 -13 -6 -9 -20 4 -11 2 -20 -4 -20 -17 0 -14 -223 3 -264 21 -49 74 -86 125 -86 35 0 47 6 72 32 56 62 51 146 -14 236 -23 32 -55 77 -72 100 -30 41 -45 52 -45 32z" transform="translate(0,116) scale(0.1,-0.1)" stroke="none" fill="#B9CF64"/>

<path d="M620 531 c0 -4 -22 -11 -49 -14 -73 -9 -211 -78 -238 -119 -76 -113 55 -243 183 -182 51 24 129 117 160 190 15 35 24 67 20 71 -10 10 -63 -58 -70 -89 -7 -35 -102 -131 -144 -146 -40 -14 -132 2 -132 22 0 7 -3 33 -6 58 l-6 45 59 40 c75 51 137 83 161 83 24 0 82 29 82 41 0 5 -4 9 -10 9 -5 0 -10 -4 -10 -9z" transform="translate(0,116) scale(0.1,-0.1)" stroke="none" fill="#B9CF64"/>

<path d="M705 664 c-16 -8 -43 -33 -58 -55 l-28 -41 33 -37 c53 -60 148 -79 192 -37 42 38 36 84 -19 140 -48 50 -71 55 -120 30z" transform="translate(0,116) scale(0.1,-0.1)" stroke="none" fill="#806379"/>

<path d="M1070 599 c-168 -18 -191 -22 -187 -33 4 -13 51 -13 188 -1 l95 8 52 -34 c65 -43 81 -69 61 -105 -17 -34 -46 -44 -119 -44 -62 0 -97 13 -205 75 -58 33 -105 44 -105 26 0 -5 55 -37 123 -71 118 -60 126 -62 201 -63 l79 -1 33 38 c27 31 34 48 34 80 0 47 -16 65 -89 101 -60 29 -83 33 -161 24z" transform="translate(0,116) scale(0.1,-0.1)" stroke="none" fill="#B9CF64"/>

<path d="M205 350 c-9 -10 -30 -22 -47 -25 -17 -4 -34 -17 -40 -31 -15 -32 5 -60 77 -109 51 -36 63 -40 117 -39 45 1 64 6 79 21 20 20 20 20 -20 56 -49 44 -61 66 -61 109 0 32 -1 33 -44 35 -32 1 -48 -3 -61 -17z" transform="translate(0,116) scale(0.1,-0.1)" stroke="none" fill="#806379"/>

<path d="M295 866 c-48 -24 -65 -42 -76 -80 -21 -75 22 -149 111 -189 36 -17 66 -21 145 -21 202 0 205 30 4 39 -143 8 -177 19 -207 74 -29 52 -28 82 7 118 58 61 135 49 230 -37 24 -22 52 -42 62 -45 10 -3 21 -14 24 -24 3 -10 18 -30 34 -45 25 -24 29 -25 35 -10 7 19 -85 116 -177 184 -48 36 -68 44 -110 47 -32 2 -64 -2 -82 -11z" transform="translate(0,116) scale(0.1,-0.1)" stroke="none" fill="#B9CF64"/>

<path d="M990 885 c0 -9 -12 -28 -27 -43 -29 -28 -143 -178 -143 -187 0 -3 7 -17 16 -31 14 -21 18 -22 28 -9 12 16 137 78 178 88 34 9 69 58 70 99 1 24 -7 39 -35 65 -39 35 -87 45 -87 18z" transform="translate(0,116) scale(0.1,-0.1)" stroke="none" fill="#B6AECD"/>

<path d="M645 1030 c-16 -17 -17 -33 -12 -121 5 -96 7 -103 33 -124 22 -18 27 -30 28 -72 l1 -50 34 12 c28 9 34 17 37 46 2 19 9 47 14 63 14 42 12 161 -4 199 -7 18 -21 40 -30 50 -24 23 -78 22 -101 -3z" transform="translate(0,116) scale(0.1,-0.1)" stroke="none" fill="#B6AECD"/>

<path d="M780 456 c-18 -23 -35 -155 -22 -176 6 -10 14 -35 17 -56 4 -22 11 -52 17 -67 21 -54 79 -63 127 -18 25 23 31 37 31 71 0 43 -18 88 -44 109 -9 8 -16 21 -16 30 0 10 -11 28 -24 40 -14 13 -30 36 -36 52 -14 32 -31 37 -50 15z" transform="translate(0,116) scale(0.1,-0.1)" stroke="none" fill="#B6AECD"/>

<path d="M995 558 c-33 -5 -75 -7 -92 -4 -30 4 -33 3 -33 -22 1 -23 10 -32 71 -62 38 -19 89 -45 112 -57 30 -16 60 -22 104 -23 76 0 104 10 122 44 19 35 4 62 -59 104 -55 35 -101 39 -225 20z" transform="translate(0,116) scale(0.1,-0.1)" stroke="none" fill="#B6AECD"/>

<path d="M170 734 c0 -9 -9 -18 -19 -21 -11 -3 -31 -29 -47 -61 -23 -47 -28 -72 -30 -140 -2 -99 8 -116 64 -106 37 7 149 86 159 112 4 8 1 23 -5 33 -18 28 -15 32 23 25 22 -4 35 -3 35 4 0 5 -4 10 -8 10 -5 0 -30 14 -56 31 -48 32 -76 72 -76 109 0 13 -7 20 -20 20 -12 0 -20 -7 -20 -16z" transform="translate(0,116) scale(0.1,-0.1)" stroke="none" fill="#806379"/>

<path d="M640 532 c0 -13 -56 -42 -82 -42 -24 0 -86 -32 -161 -83 l-59 -40 6 -45 c3 -25 6 -51 6 -58 0 -20 92 -36 132 -22 41 14 136 109 144 146 4 15 20 42 35 61 20 25 26 39 19 51 -12 23 -40 45 -40 32z" transform="translate(0,116) scale(0.1,-0.1)" stroke="none" fill="#B6AECD"/>

<path d="M327 840 c-36 -11 -77 -58 -77 -89 0 -36 40 -99 74 -115 19 -8 79 -17 150 -20 65 -4 130 -9 143 -12 43 -11 46 15 7 58 -19 21 -34 42 -34 47 0 5 -8 12 -19 16 -10 3 -38 23 -62 45 -46 42 -115 81 -140 79 -8 0 -27 -5 -42 -9z" transform="translate(0,116) scale(0.1,-0.1)" stroke="none" fill="#B6AECD"/>

<path d="M654 1074 c-53 -34 -74 -74 -74 -139 0 -44 9 -70 50 -151 28 -54 50 -105 50 -113 0 -11 3 -12 11 -4 20 20 2 99 -27 121 -24 17 -26 26 -31 120 -5 89 -4 105 12 122 23 25 77 26 101 3 45 -45 58 -160 29 -268 -13 -51 -13 -59 1 -81 9 -13 23 -24 30 -24 8 0 40 35 72 78 31 42 70 89 85 104 15 15 27 34 27 43 0 27 48 17 87 -18 28 -26 36 -41 35 -65 -1 -45 -36 -89 -80 -102 -52 -15 -165 -73 -170 -88 -6 -19 28 -14 108 17 87 34 140 75 165 127 23 49 15 108 -19 143 -22 22 -35 26 -81 25 -46 0 -59 -5 -85 -29 -16 -16 -30 -35 -30 -42 0 -7 -4 -13 -10 -13 -5 0 -10 -9 -10 -20 0 -11 -4 -20 -10 -20 -5 0 -10 -7 -10 -15 0 -17 -69 -89 -78 -81 -3 3 0 43 6 88 26 181 11 260 -54 291 -46 22 -53 22 -100 -9z" transform="translate(0,116) scale(0.1,-0.1)" stroke="none" fill="#B9CF64"/>

</g>

</g>
<g id="row1" transform="translate(18,116.0)">
<g id="0" transform="translate(0.0,0)scale(1,1)">

<path d="M820 470 c0 -18 27 -64 49 -84 12 -11 21 -27 21 -36 0 -10 7 -23 16 -31 26 -21 44 -66 44 -109 0 -67 -65 -116 -125 -94 -22 9 -41 50 -49 106 -4 26 -12 50 -18 54 -11 7 -2 121 13 161 7 18 5 23 -7 23 -11 0 -13 -6 -9 -20 4 -11 2 -20 -4 -20 -17 0 -14 -223 3 -264 21 -49 74 -86 125 -86 35 0 47 6 72 32 56 62 51 146 -14 236 -23 32 -55 77 -72 100 -30 41 -45 52 -45 32z" transform="translate(0,116) scale(0.1,-0.1)" stroke="none" fill="#B9CF64"/>

<path d="M620 531 c0 -4 -22 -11 -49 -14 -73 -9 -211 -78 -238 -119 -76 -113 55 -243 183 -182 51 24 129 117 160 190 15 35 24 67 20 71 -10 10 -63 -58 -70 -89 -7 -35 -102 -131 -144 -146 -40 -14 -132 2 -132 22 0 7 -3 33 -6 58 l-6 45 59 40 c75 51 137 83 161 83 24 0 82 29 82 41 0 5 -4 9 -10 9 -5 0 -10 -4 -10 -9z" transform="translate(0,116) scale(0.1,-0.1)" stroke="none" fill="#B9CF64"/>

<path d="M705 664 c-16 -8 -43 -33 -58 -55 l-28 -41 33 -37 c53 -60 148 -79 192 -37 42 38 36 84 -19 140 -48 50 -71 55 -120 30z" transform="translate(0,116) scale(0.1,-0.1)" stroke="none" fill="#806379"/>

<path d="M1070 599 c-168 -18 -191 -22 -187 -33 4 -13 51 -13 188 -1 l95 8 52 -34 c65 -43 81 -69 61 -105 -17 -34 -46 -44 -119 -44 -62 0 -97 13 -205 75 -58 33 -105 44 -105 26 0 -5 55 -37 123 -71 118 -60 126 -62 201 -63 l79 -1 33 38 c27 31 34 48 34 80 0 47 -16 65 -89 101 -60 29 -83 33 -161 24z" transform="translate(0,116) scale(0.1,-0.1)" stroke="none" fill="#B9CF64"/>

<path d="M205 350 c-9 -10 -30 -22 -47 -25 -17 -4 -34 -17 -40 -31 -15 -32 5 -60 77 -109 51 -36 63 -40 117 -39 45 1 64 6 79 21 20 20 20 20 -20 56 -49 44 -61 66 -61 109 0 32 -1 33 -44 35 -32 1 -48 -3 -61 -17z" transform="translate(0,116) scale(0.1,-0.1)" stroke="none" fill="#806379"/>

<path d="M295 866 c-48 -24 -65 -42 -76 -80 -21 -75 22 -149 111 -189 36 -17 66 -21 145 -21 202 0 205 30 4 39 -143 8 -177 19 -207 74 -29 52 -28 82 7 118 58 61 135 49 230 -37 24 -22 52 -42 62 -45 10 -3 21 -14 24 -24 3 -10 18 -30 34 -45 25 -24 29 -25 35 -10 7 19 -85 116 -177 184 -48 36 -68 44 -110 47 -32 2 -64 -2 -82 -11z" transform="translate(0,116) scale(0.1,-0.1)" stroke="none" fill="#B9CF64"/>

<path d="M990 885 c0 -9 -12 -28 -27 -43 -29 -28 -143 -178 -143 -187 0 -3 7 -17 16 -31 14 -21 18 -22 28 -9 12 16 137 78 178 88 34 9 69 58 70 99 1 24 -7 39 -35 65 -39 35 -87 45 -87 18z" transform="translate(0,116) scale(0.1,-0.1)" stroke="none" fill="#B6AECD"/>

<path d="M645 1030 c-16 -17 -17 -33 -12 -121 5 -96 7 -103 33 -124 22 -18 27 -30 28 -72 l1 -50 34 12 c28 9 34 17 37 46 2 19 9 47 14 63 14 42 12 161 -4 199 -7 18 -21 40 -30 50 -24 23 -78 22 -101 -3z" transform="translate(0,116) scale(0.1,-0.1)" stroke="none" fill="#B6AECD"/>

<path d="M780 456 c-18 -23 -35 -155 -22 -176 6 -10 14 -35 17 -56 4 -22 11 -52 17 -67 21 -54 79 -63 127 -18 25 23 31 37 31 71 0 43 -18 88 -44 109 -9 8 -16 21 -16 30 0 10 -11 28 -24 40 -14 13 -30 36 -36 52 -14 32 -31 37 -50 15z" transform="translate(0,116) scale(0.1,-0.1)" stroke="none" fill="#B6AECD"/>

<path d="M995 558 c-33 -5 -75 -7 -92 -4 -30 4 -33 3 -33 -22 1 -23 10 -32 71 -62 38 -19 89 -45 112 -57 30 -16 60 -22 104 -23 76 0 104 10 122 44 19 35 4 62 -59 104 -55 35 -101 39 -225 20z" transform="translate(0,116) scale(0.1,-0.1)" stroke="none" fill="#B6AECD"/>

<path d="M170 734 c0 -9 -9 -18 -19 -21 -11 -3 -31 -29 -47 -61 -23 -47 -28 -72 -30 -140 -2 -99 8 -116 64 -106 37 7 149 86 159 112 4 8 1 23 -5 33 -18 28 -15 32 23 25 22 -4 35 -3 35 4 0 5 -4 10 -8 10 -5 0 -30 14 -56 31 -48 32 -76 72 -76 109 0 13 -7 20 -20 20 -12 0 -20 -7 -20 -16z" transform="translate(0,116) scale(0.1,-0.1)" stroke="none" fill="#806379"/>

<path d="M640 532 c0 -13 -56 -42 -82 -42 -24 0 -86 -32 -161 -83 l-59 -40 6 -45 c3 -25 6 -51 6 -58 0 -20 92 -36 132 -22 41 14 136 109 144 146 4 15 20 42 35 61 20 25 26 39 19 51 -12 23 -40 45 -40 32z" transform="translate(0,116) scale(0.1,-0.1)" stroke="none" fill="#B6AECD"/>

<path d="M327 840 c-36 -11 -77 -58 -77 -89 0 -36 40 -99 74 -115 19 -8 79 -17 150 -20 65 -4 130 -9 143 -12 43 -11 46 15 7 58 -19 21 -34 42 -34 47 0 5 -8 12 -19 16 -10 3 -38 23 -62 45 -46 42 -115 81 -140 79 -8 0 -27 -5 -42 -9z" transform="translate(0,116) scale(0.1,-0.1)" stroke="none" fill="#B6AECD"/>

<path d="M654 1074 c-53 -34 -74 -74 -74 -139 0 -44 9 -70 50 -151 28 -54 50 -105 50 -113 0 -11 3 -12 11 -4 20 20 2 99 -27 121 -24 17 -26 26 -31 120 -5 89 -4 105 12 122 23 25 77 26 101 3 45 -45 58 -160 29 -268 -13 -51 -13 -59 1 -81 9 -13 23 -24 30 -24 8 0 40 35 72 78 31 42 70 89 85 104 15 15 27 34 27 43 0 27 48 17 87 -18 28 -26 36 -41 35 -65 -1 -45 -36 -89 -80 -102 -52 -15 -165 -73 -170 -88 -6 -19 28 -14 108 17 87 34 140 75 165 127 23 49 15 108 -19 143 -22 22 -35 26 -81 25 -46 0 -59 -5 -85 -29 -16 -16 -30 -35 -30 -42 0 -7 -4 -13 -10 -13 -5 0 -10 -9 -10 -20 0 -11 -4 -20 -10 -20 -5 0 -10 -7 -10 -15 0 -17 -69 -89 -78 -81 -3 3 0 43 6 88 26 181 11 260 -54 291 -46 22 -53 22 -100 -9z" transform="translate(0,116) scale(0.1,-0.1)" stroke="none" fill="#B9CF64"/>

</g>

<g id="1" transform="translate(140.0,0)scale(1,1)">

<path d="M820 470 c0 -18 27 -64 49 -84 12 -11 21 -27 21 -36 0 -10 7 -23 16 -31 26 -21 44 -66 44 -109 0 -67 -65 -116 -125 -94 -22 9 -41 50 -49 106 -4 26 -12 50 -18 54 -11 7 -2 121 13 161 7 18 5 23 -7 23 -11 0 -13 -6 -9 -20 4 -11 2 -20 -4 -20 -17 0 -14 -223 3 -264 21 -49 74 -86 125 -86 35 0 47 6 72 32 56 62 51 146 -14 236 -23 32 -55 77 -72 100 -30 41 -45 52 -45 32z" transform="translate(0,116) scale(0.1,-0.1)" stroke="none" fill="#B9CF64"/>

<path d="M620 531 c0 -4 -22 -11 -49 -14 -73 -9 -211 -78 -238 -119 -76 -113 55 -243 183 -182 51 24 129 117 160 190 15 35 24 67 20 71 -10 10 -63 -58 -70 -89 -7 -35 -102 -131 -144 -146 -40 -14 -132 2 -132 22 0 7 -3 33 -6 58 l-6 45 59 40 c75 51 137 83 161 83 24 0 82 29 82 41 0 5 -4 9 -10 9 -5 0 -10 -4 -10 -9z" transform="translate(0,116) scale(0.1,-0.1)" stroke="none" fill="#B9CF64"/>

<path d="M705 664 c-16 -8 -43 -33 -58 -55 l-28 -41 33 -37 c53 -60 148 -79 192 -37 42 38 36 84 -19 140 -48 50 -71 55 -120 30z" transform="translate(0,116) scale(0.1,-0.1)" stroke="none" fill="#806379"/>

<path d="M1070 599 c-168 -18 -191 -22 -187 -33 4 -13 51 -13 188 -1 l95 8 52 -34 c65 -43 81 -69 61 -105 -17 -34 -46 -44 -119 -44 -62 0 -97 13 -205 75 -58 33 -105 44 -105 26 0 -5 55 -37 123 -71 118 -60 126 -62 201 -63 l79 -1 33 38 c27 31 34 48 34 80 0 47 -16 65 -89 101 -60 29 -83 33 -161 24z" transform="translate(0,116) scale(0.1,-0.1)" stroke="none" fill="#B9CF64"/>

<path d="M205 350 c-9 -10 -30 -22 -47 -25 -17 -4 -34 -17 -40 -31 -15 -32 5 -60 77 -109 51 -36 63 -40 117 -39 45 1 64 6 79 21 20 20 20 20 -20 56 -49 44 -61 66 -61 109 0 32 -1 33 -44 35 -32 1 -48 -3 -61 -17z" transform="translate(0,116) scale(0.1,-0.1)" stroke="none" fill="#806379"/>

<path d="M295 866 c-48 -24 -65 -42 -76 -80 -21 -75 22 -149 111 -189 36 -17 66 -21 145 -21 202 0 205 30 4 39 -143 8 -177 19 -207 74 -29 52 -28 82 7 118 58 61 135 49 230 -37 24 -22 52 -42 62 -45 10 -3 21 -14 24 -24 3 -10 18 -30 34 -45 25 -24 29 -25 35 -10 7 19 -85 116 -177 184 -48 36 -68 44 -110 47 -32 2 -64 -2 -82 -11z" transform="translate(0,116) scale(0.1,-0.1)" stroke="none" fill="#B9CF64"/>

<path d="M990 885 c0 -9 -12 -28 -27 -43 -29 -28 -143 -178 -143 -187 0 -3 7 -17 16 -31 14 -21 18 -22 28 -9 12 16 137 78 178 88 34 9 69 58 70 99 1 24 -7 39 -35 65 -39 35 -87 45 -87 18z" transform="translate(0,116) scale(0.1,-0.1)" stroke="none" fill="#B6AECD"/>

<path d="M645 1030 c-16 -17 -17 -33 -12 -121 5 -96 7 -103 33 -124 22 -18 27 -30 28 -72 l1 -50 34 12 c28 9 34 17 37 46 2 19 9 47 14 63 14 42 12 161 -4 199 -7 18 -21 40 -30 50 -24 23 -78 22 -101 -3z" transform="translate(0,116) scale(0.1,-0.1)" stroke="none" fill="#B6AECD"/>

<path d="M780 456 c-18 -23 -35 -155 -22 -176 6 -10 14 -35 17 -56 4 -22 11 -52 17 -67 21 -54 79 -63 127 -18 25 23 31 37 31 71 0 43 -18 88 -44 109 -9 8 -16 21 -16 30 0 10 -11 28 -24 40 -14 13 -30 36 -36 52 -14 32 -31 37 -50 15z" transform="translate(0,116) scale(0.1,-0.1)" stroke="none" fill="#B6AECD"/>

<path d="M995 558 c-33 -5 -75 -7 -92 -4 -30 4 -33 3 -33 -22 1 -23 10 -32 71 -62 38 -19 89 -45 112 -57 30 -16 60 -22 104 -23 76 0 104 10 122 44 19 35 4 62 -59 104 -55 35 -101 39 -225 20z" transform="translate(0,116) scale(0.1,-0.1)" stroke="none" fill="#B6AECD"/>

<path d="M170 734 c0 -9 -9 -18 -19 -21 -11 -3 -31 -29 -47 -61 -23 -47 -28 -72 -30 -140 -2 -99 8 -116 64 -106 37 7 149 86 159 112 4 8 1 23 -5 33 -18 28 -15 32 23 25 22 -4 35 -3 35 4 0 5 -4 10 -8 10 -5 0 -30 14 -56 31 -48 32 -76 72 -76 109 0 13 -7 20 -20 20 -12 0 -20 -7 -20 -16z" transform="translate(0,116) scale(0.1,-0.1)" stroke="none" fill="#806379"/>

<path d="M640 532 c0 -13 -56 -42 -82 -42 -24 0 -86 -32 -161 -83 l-59 -40 6 -45 c3 -25 6 -51 6 -58 0 -20 92 -36 132 -22 41 14 136 109 144 146 4 15 20 42 35 61 20 25 26 39 19 51 -12 23 -40 45 -40 32z" transform="translate(0,116) scale(0.1,-0.1)" stroke="none" fill="#B6AECD"/>

<path d="M327 840 c-36 -11 -77 -58 -77 -89 0 -36 40 -99 74 -115 19 -8 79 -17 150 -20 65 -4 130 -9 143 -12 43 -11 46 15 7 58 -19 21 -34 42 -34 47 0 5 -8 12 -19 16 -10 3 -38 23 -62 45 -46 42 -115 81 -140 79 -8 0 -27 -5 -42 -9z" transform="translate(0,116) scale(0.1,-0.1)" stroke="none" fill="#B6AECD"/>

<path d="M654 1074 c-53 -34 -74 -74 -74 -139 0 -44 9 -70 50 -151 28 -54 50 -105 50 -113 0 -11 3 -12 11 -4 20 20 2 99 -27 121 -24 17 -26 26 -31 120 -5 89 -4 105 12 122 23 25 77 26 101 3 45 -45 58 -160 29 -268 -13 -51 -13 -59 1 -81 9 -13 23 -24 30 -24 8 0 40 35 72 78 31 42 70 89 85 104 15 15 27 34 27 43 0 27 48 17 87 -18 28 -26 36 -41 35 -65 -1 -45 -36 -89 -80 -102 -52 -15 -165 -73 -170 -88 -6 -19 28 -14 108 17 87 34 140 75 165 127 23 49 15 108 -19 143 -22 22 -35 26 -81 25 -46 0 -59 -5 -85 -29 -16 -16 -30 -35 -30 -42 0 -7 -4 -13 -10 -13 -5 0 -10 -9 -10 -20 0 -11 -4 -20 -10 -20 -5 0 -10 -7 -10 -15 0 -17 -69 -89 -78 -81 -3 3 0 43 6 88 26 181 11 260 -54 291 -46 22 -53 22 -100 -9z" transform="translate(0,116) scale(0.1,-0.1)" stroke="none" fill="#B9CF64"/>

</g>

<g id="2" transform="translate(280.0,0)scale(1,1)">

<path d="M820 470 c0 -18 27 -64 49 -84 12 -11 21 -27 21 -36 0 -10 7 -23 16 -31 26 -21 44 -66 44 -109 0 -67 -65 -116 -125 -94 -22 9 -41 50 -49 106 -4 26 -12 50 -18 54 -11 7 -2 121 13 161 7 18 5 23 -7 23 -11 0 -13 -6 -9 -20 4 -11 2 -20 -4 -20 -17 0 -14 -223 3 -264 21 -49 74 -86 125 -86 35 0 47 6 72 32 56 62 51 146 -14 236 -23 32 -55 77 -72 100 -30 41 -45 52 -45 32z" transform="translate(0,116) scale(0.1,-0.1)" stroke="none" fill="#B9CF64"/>

<path d="M620 531 c0 -4 -22 -11 -49 -14 -73 -9 -211 -78 -238 -119 -76 -113 55 -243 183 -182 51 24 129 117 160 190 15 35 24 67 20 71 -10 10 -63 -58 -70 -89 -7 -35 -102 -131 -144 -146 -40 -14 -132 2 -132 22 0 7 -3 33 -6 58 l-6 45 59 40 c75 51 137 83 161 83 24 0 82 29 82 41 0 5 -4 9 -10 9 -5 0 -10 -4 -10 -9z" transform="translate(0,116) scale(0.1,-0.1)" stroke="none" fill="#B9CF64"/>

<path d="M705 664 c-16 -8 -43 -33 -58 -55 l-28 -41 33 -37 c53 -60 148 -79 192 -37 42 38 36 84 -19 140 -48 50 -71 55 -120 30z" transform="translate(0,116) scale(0.1,-0.1)" stroke="none" fill="#806379"/>

<path d="M1070 599 c-168 -18 -191 -22 -187 -33 4 -13 51 -13 188 -1 l95 8 52 -34 c65 -43 81 -69 61 -105 -17 -34 -46 -44 -119 -44 -62 0 -97 13 -205 75 -58 33 -105 44 -105 26 0 -5 55 -37 123 -71 118 -60 126 -62 201 -63 l79 -1 33 38 c27 31 34 48 34 80 0 47 -16 65 -89 101 -60 29 -83 33 -161 24z" transform="translate(0,116) scale(0.1,-0.1)" stroke="none" fill="#B9CF64"/>

<path d="M205 350 c-9 -10 -30 -22 -47 -25 -17 -4 -34 -17 -40 -31 -15 -32 5 -60 77 -109 51 -36 63 -40 117 -39 45 1 64 6 79 21 20 20 20 20 -20 56 -49 44 -61 66 -61 109 0 32 -1 33 -44 35 -32 1 -48 -3 -61 -17z" transform="translate(0,116) scale(0.1,-0.1)" stroke="none" fill="#806379"/>

<path d="M295 866 c-48 -24 -65 -42 -76 -80 -21 -75 22 -149 111 -189 36 -17 66 -21 145 -21 202 0 205 30 4 39 -143 8 -177 19 -207 74 -29 52 -28 82 7 118 58 61 135 49 230 -37 24 -22 52 -42 62 -45 10 -3 21 -14 24 -24 3 -10 18 -30 34 -45 25 -24 29 -25 35 -10 7 19 -85 116 -177 184 -48 36 -68 44 -110 47 -32 2 -64 -2 -82 -11z" transform="translate(0,116) scale(0.1,-0.1)" stroke="none" fill="#B9CF64"/>

<path d="M990 885 c0 -9 -12 -28 -27 -43 -29 -28 -143 -178 -143 -187 0 -3 7 -17 16 -31 14 -21 18 -22 28 -9 12 16 137 78 178 88 34 9 69 58 70 99 1 24 -7 39 -35 65 -39 35 -87 45 -87 18z" transform="translate(0,116) scale(0.1,-0.1)" stroke="none" fill="#B6AECD"/>

<path d="M645 1030 c-16 -17 -17 -33 -12 -121 5 -96 7 -103 33 -124 22 -18 27 -30 28 -72 l1 -50 34 12 c28 9 34 17 37 46 2 19 9 47 14 63 14 42 12 161 -4 199 -7 18 -21 40 -30 50 -24 23 -78 22 -101 -3z" transform="translate(0,116) scale(0.1,-0.1)" stroke="none" fill="#B6AECD"/>

<path d="M780 456 c-18 -23 -35 -155 -22 -176 6 -10 14 -35 17 -56 4 -22 11 -52 17 -67 21 -54 79 -63 127 -18 25 23 31 37 31 71 0 43 -18 88 -44 109 -9 8 -16 21 -16 30 0 10 -11 28 -24 40 -14 13 -30 36 -36 52 -14 32 -31 37 -50 15z" transform="translate(0,116) scale(0.1,-0.1)" stroke="none" fill="#B6AECD"/>

<path d="M995 558 c-33 -5 -75 -7 -92 -4 -30 4 -33 3 -33 -22 1 -23 10 -32 71 -62 38 -19 89 -45 112 -57 30 -16 60 -22 104 -23 76 0 104 10 122 44 19 35 4 62 -59 104 -55 35 -101 39 -225 20z" transform="translate(0,116) scale(0.1,-0.1)" stroke="none" fill="#B6AECD"/>

<path d="M170 734 c0 -9 -9 -18 -19 -21 -11 -3 -31 -29 -47 -61 -23 -47 -28 -72 -30 -140 -2 -99 8 -116 64 -106 37 7 149 86 159 112 4 8 1 23 -5 33 -18 28 -15 32 23 25 22 -4 35 -3 35 4 0 5 -4 10 -8 10 -5 0 -30 14 -56 31 -48 32 -76 72 -76 109 0 13 -7 20 -20 20 -12 0 -20 -7 -20 -16z" transform="translate(0,116) scale(0.1,-0.1)" stroke="none" fill="#806379"/>

<path d="M640 532 c0 -13 -56 -42 -82 -42 -24 0 -86 -32 -161 -83 l-59 -40 6 -45 c3 -25 6 -51 6 -58 0 -20 92 -36 132 -22 41 14 136 109 144 146 4 15 20 42 35 61 20 25 26 39 19 51 -12 23 -40 45 -40 32z" transform="translate(0,116) scale(0.1,-0.1)" stroke="none" fill="#B6AECD"/>

<path d="M327 840 c-36 -11 -77 -58 -77 -89 0 -36 40 -99 74 -115 19 -8 79 -17 150 -20 65 -4 130 -9 143 -12 43 -11 46 15 7 58 -19 21 -34 42 -34 47 0 5 -8 12 -19 16 -10 3 -38 23 -62 45 -46 42 -115 81 -140 79 -8 0 -27 -5 -42 -9z" transform="translate(0,116) scale(0.1,-0.1)" stroke="none" fill="#B6AECD"/>

<path d="M654 1074 c-53 -34 -74 -74 -74 -139 0 -44 9 -70 50 -151 28 -54 50 -105 50 -113 0 -11 3 -12 11 -4 20 20 2 99 -27 121 -24 17 -26 26 -31 120 -5 89 -4 105 12 122 23 25 77 26 101 3 45 -45 58 -160 29 -268 -13 -51 -13 -59 1 -81 9 -13 23 -24 30 -24 8 0 40 35 72 78 31 42 70 89 85 104 15 15 27 34 27 43 0 27 48 17 87 -18 28 -26 36 -41 35 -65 -1 -45 -36 -89 -80 -102 -52 -15 -165 -73 -170 -88 -6 -19 28 -14 108 17 87 34 140 75 165 127 23 49 15 108 -19 143 -22 22 -35 26 -81 25 -46 0 -59 -5 -85 -29 -16 -16 -30 -35 -30 -42 0 -7 -4 -13 -10 -13 -5 0 -10 -9 -10 -20 0 -11 -4 -20 -10 -20 -5 0 -10 -7 -10 -15 0 -17 -69 -89 -78 -81 -3 3 0 43 6 88 26 181 11 260 -54 291 -46 22 -53 22 -100 -9z" transform="translate(0,116) scale(0.1,-0.1)" stroke="none" fill="#B9CF64"/>

</g>

<g id="3" transform="translate(420.0,0)scale(1,1)">

<path d="M820 470 c0 -18 27 -64 49 -84 12 -11 21 -27 21 -36 0 -10 7 -23 16 -31 26 -21 44 -66 44 -109 0 -67 -65 -116 -125 -94 -22 9 -41 50 -49 106 -4 26 -12 50 -18 54 -11 7 -2 121 13 161 7 18 5 23 -7 23 -11 0 -13 -6 -9 -20 4 -11 2 -20 -4 -20 -17 0 -14 -223 3 -264 21 -49 74 -86 125 -86 35 0 47 6 72 32 56 62 51 146 -14 236 -23 32 -55 77 -72 100 -30 41 -45 52 -45 32z" transform="translate(0,116) scale(0.1,-0.1)" stroke="none" fill="#B9CF64"/>

<path d="M620 531 c0 -4 -22 -11 -49 -14 -73 -9 -211 -78 -238 -119 -76 -113 55 -243 183 -182 51 24 129 117 160 190 15 35 24 67 20 71 -10 10 -63 -58 -70 -89 -7 -35 -102 -131 -144 -146 -40 -14 -132 2 -132 22 0 7 -3 33 -6 58 l-6 45 59 40 c75 51 137 83 161 83 24 0 82 29 82 41 0 5 -4 9 -10 9 -5 0 -10 -4 -10 -9z" transform="translate(0,116) scale(0.1,-0.1)" stroke="none" fill="#B9CF64"/>

<path d="M705 664 c-16 -8 -43 -33 -58 -55 l-28 -41 33 -37 c53 -60 148 -79 192 -37 42 38 36 84 -19 140 -48 50 -71 55 -120 30z" transform="translate(0,116) scale(0.1,-0.1)" stroke="none" fill="#806379"/>

<path d="M1070 599 c-168 -18 -191 -22 -187 -33 4 -13 51 -13 188 -1 l95 8 52 -34 c65 -43 81 -69 61 -105 -17 -34 -46 -44 -119 -44 -62 0 -97 13 -205 75 -58 33 -105 44 -105 26 0 -5 55 -37 123 -71 118 -60 126 -62 201 -63 l79 -1 33 38 c27 31 34 48 34 80 0 47 -16 65 -89 101 -60 29 -83 33 -161 24z" transform="translate(0,116) scale(0.1,-0.1)" stroke="none" fill="#B9CF64"/>

<path d="M205 350 c-9 -10 -30 -22 -47 -25 -17 -4 -34 -17 -40 -31 -15 -32 5 -60 77 -109 51 -36 63 -40 117 -39 45 1 64 6 79 21 20 20 20 20 -20 56 -49 44 -61 66 -61 109 0 32 -1 33 -44 35 -32 1 -48 -3 -61 -17z" transform="translate(0,116) scale(0.1,-0.1)" stroke="none" fill="#806379"/>

<path d="M295 866 c-48 -24 -65 -42 -76 -80 -21 -75 22 -149 111 -189 36 -17 66 -21 145 -21 202 0 205 30 4 39 -143 8 -177 19 -207 74 -29 52 -28 82 7 118 58 61 135 49 230 -37 24 -22 52 -42 62 -45 10 -3 21 -14 24 -24 3 -10 18 -30 34 -45 25 -24 29 -25 35 -10 7 19 -85 116 -177 184 -48 36 -68 44 -110 47 -32 2 -64 -2 -82 -11z" transform="translate(0,116) scale(0.1,-0.1)" stroke="none" fill="#B9CF64"/>

<path d="M990 885 c0 -9 -12 -28 -27 -43 -29 -28 -143 -178 -143 -187 0 -3 7 -17 16 -31 14 -21 18 -22 28 -9 12 16 137 78 178 88 34 9 69 58 70 99 1 24 -7 39 -35 65 -39 35 -87 45 -87 18z" transform="translate(0,116) scale(0.1,-0.1)" stroke="none" fill="#B6AECD"/>

<path d="M645 1030 c-16 -17 -17 -33 -12 -121 5 -96 7 -103 33 -124 22 -18 27 -30 28 -72 l1 -50 34 12 c28 9 34 17 37 46 2 19 9 47 14 63 14 42 12 161 -4 199 -7 18 -21 40 -30 50 -24 23 -78 22 -101 -3z" transform="translate(0,116) scale(0.1,-0.1)" stroke="none" fill="#B6AECD"/>

<path d="M780 456 c-18 -23 -35 -155 -22 -176 6 -10 14 -35 17 -56 4 -22 11 -52 17 -67 21 -54 79 -63 127 -18 25 23 31 37 31 71 0 43 -18 88 -44 109 -9 8 -16 21 -16 30 0 10 -11 28 -24 40 -14 13 -30 36 -36 52 -14 32 -31 37 -50 15z" transform="translate(0,116) scale(0.1,-0.1)" stroke="none" fill="#B6AECD"/>

<path d="M995 558 c-33 -5 -75 -7 -92 -4 -30 4 -33 3 -33 -22 1 -23 10 -32 71 -62 38 -19 89 -45 112 -57 30 -16 60 -22 104 -23 76 0 104 10 122 44 19 35 4 62 -59 104 -55 35 -101 39 -225 20z" transform="translate(0,116) scale(0.1,-0.1)" stroke="none" fill="#B6AECD"/>

<path d="M170 734 c0 -9 -9 -18 -19 -21 -11 -3 -31 -29 -47 -61 -23 -47 -28 -72 -30 -140 -2 -99 8 -116 64 -106 37 7 149 86 159 112 4 8 1 23 -5 33 -18 28 -15 32 23 25 22 -4 35 -3 35 4 0 5 -4 10 -8 10 -5 0 -30 14 -56 31 -48 32 -76 72 -76 109 0 13 -7 20 -20 20 -12 0 -20 -7 -20 -16z" transform="translate(0,116) scale(0.1,-0.1)" stroke="none" fill="#806379"/>

<path d="M640 532 c0 -13 -56 -42 -82 -42 -24 0 -86 -32 -161 -83 l-59 -40 6 -45 c3 -25 6 -51 6 -58 0 -20 92 -36 132 -22 41 14 136 109 144 146 4 15 20 42 35 61 20 25 26 39 19 51 -12 23 -40 45 -40 32z" transform="translate(0,116) scale(0.1,-0.1)" stroke="none" fill="#B6AECD"/>

<path d="M327 840 c-36 -11 -77 -58 -77 -89 0 -36 40 -99 74 -115 19 -8 79 -17 150 -20 65 -4 130 -9 143 -12 43 -11 46 15 7 58 -19 21 -34 42 -34 47 0 5 -8 12 -19 16 -10 3 -38 23 -62 45 -46 42 -115 81 -140 79 -8 0 -27 -5 -42 -9z" transform="translate(0,116) scale(0.1,-0.1)" stroke="none" fill="#B6AECD"/>

<path d="M654 1074 c-53 -34 -74 -74 -74 -139 0 -44 9 -70 50 -151 28 -54 50 -105 50 -113 0 -11 3 -12 11 -4 20 20 2 99 -27 121 -24 17 -26 26 -31 120 -5 89 -4 105 12 122 23 25 77 26 101 3 45 -45 58 -160 29 -268 -13 -51 -13 -59 1 -81 9 -13 23 -24 30 -24 8 0 40 35 72 78 31 42 70 89 85 104 15 15 27 34 27 43 0 27 48 17 87 -18 28 -26 36 -41 35 -65 -1 -45 -36 -89 -80 -102 -52 -15 -165 -73 -170 -88 -6 -19 28 -14 108 17 87 34 140 75 165 127 23 49 15 108 -19 143 -22 22 -35 26 -81 25 -46 0 -59 -5 -85 -29 -16 -16 -30 -35 -30 -42 0 -7 -4 -13 -10 -13 -5 0 -10 -9 -10 -20 0 -11 -4 -20 -10 -20 -5 0 -10 -7 -10 -15 0 -17 -69 -89 -78 -81 -3 3 0 43 6 88 26 181 11 260 -54 291 -46 22 -53 22 -100 -9z" transform="translate(0,116) scale(0.1,-0.1)" stroke="none" fill="#B9CF64"/>

</g>

<g id="4" transform="translate(560.0,0)scale(1,1)">

<path d="M820 470 c0 -18 27 -64 49 -84 12 -11 21 -27 21 -36 0 -10 7 -23 16 -31 26 -21 44 -66 44 -109 0 -67 -65 -116 -125 -94 -22 9 -41 50 -49 106 -4 26 -12 50 -18 54 -11 7 -2 121 13 161 7 18 5 23 -7 23 -11 0 -13 -6 -9 -20 4 -11 2 -20 -4 -20 -17 0 -14 -223 3 -264 21 -49 74 -86 125 -86 35 0 47 6 72 32 56 62 51 146 -14 236 -23 32 -55 77 -72 100 -30 41 -45 52 -45 32z" transform="translate(0,116) scale(0.1,-0.1)" stroke="none" fill="#B9CF64"/>

<path d="M620 531 c0 -4 -22 -11 -49 -14 -73 -9 -211 -78 -238 -119 -76 -113 55 -243 183 -182 51 24 129 117 160 190 15 35 24 67 20 71 -10 10 -63 -58 -70 -89 -7 -35 -102 -131 -144 -146 -40 -14 -132 2 -132 22 0 7 -3 33 -6 58 l-6 45 59 40 c75 51 137 83 161 83 24 0 82 29 82 41 0 5 -4 9 -10 9 -5 0 -10 -4 -10 -9z" transform="translate(0,116) scale(0.1,-0.1)" stroke="none" fill="#B9CF64"/>

<path d="M705 664 c-16 -8 -43 -33 -58 -55 l-28 -41 33 -37 c53 -60 148 -79 192 -37 42 38 36 84 -19 140 -48 50 -71 55 -120 30z" transform="translate(0,116) scale(0.1,-0.1)" stroke="none" fill="#806379"/>

<path d="M1070 599 c-168 -18 -191 -22 -187 -33 4 -13 51 -13 188 -1 l95 8 52 -34 c65 -43 81 -69 61 -105 -17 -34 -46 -44 -119 -44 -62 0 -97 13 -205 75 -58 33 -105 44 -105 26 0 -5 55 -37 123 -71 118 -60 126 -62 201 -63 l79 -1 33 38 c27 31 34 48 34 80 0 47 -16 65 -89 101 -60 29 -83 33 -161 24z" transform="translate(0,116) scale(0.1,-0.1)" stroke="none" fill="#B9CF64"/>

<path d="M205 350 c-9 -10 -30 -22 -47 -25 -17 -4 -34 -17 -40 -31 -15 -32 5 -60 77 -109 51 -36 63 -40 117 -39 45 1 64 6 79 21 20 20 20 20 -20 56 -49 44 -61 66 -61 109 0 32 -1 33 -44 35 -32 1 -48 -3 -61 -17z" transform="translate(0,116) scale(0.1,-0.1)" stroke="none" fill="#806379"/>

<path d="M295 866 c-48 -24 -65 -42 -76 -80 -21 -75 22 -149 111 -189 36 -17 66 -21 145 -21 202 0 205 30 4 39 -143 8 -177 19 -207 74 -29 52 -28 82 7 118 58 61 135 49 230 -37 24 -22 52 -42 62 -45 10 -3 21 -14 24 -24 3 -10 18 -30 34 -45 25 -24 29 -25 35 -10 7 19 -85 116 -177 184 -48 36 -68 44 -110 47 -32 2 -64 -2 -82 -11z" transform="translate(0,116) scale(0.1,-0.1)" stroke="none" fill="#B9CF64"/>

<path d="M990 885 c0 -9 -12 -28 -27 -43 -29 -28 -143 -178 -143 -187 0 -3 7 -17 16 -31 14 -21 18 -22 28 -9 12 16 137 78 178 88 34 9 69 58 70 99 1 24 -7 39 -35 65 -39 35 -87 45 -87 18z" transform="translate(0,116) scale(0.1,-0.1)" stroke="none" fill="#B6AECD"/>

<path d="M645 1030 c-16 -17 -17 -33 -12 -121 5 -96 7 -103 33 -124 22 -18 27 -30 28 -72 l1 -50 34 12 c28 9 34 17 37 46 2 19 9 47 14 63 14 42 12 161 -4 199 -7 18 -21 40 -30 50 -24 23 -78 22 -101 -3z" transform="translate(0,116) scale(0.1,-0.1)" stroke="none" fill="#B6AECD"/>

<path d="M780 456 c-18 -23 -35 -155 -22 -176 6 -10 14 -35 17 -56 4 -22 11 -52 17 -67 21 -54 79 -63 127 -18 25 23 31 37 31 71 0 43 -18 88 -44 109 -9 8 -16 21 -16 30 0 10 -11 28 -24 40 -14 13 -30 36 -36 52 -14 32 -31 37 -50 15z" transform="translate(0,116) scale(0.1,-0.1)" stroke="none" fill="#B6AECD"/>

<path d="M995 558 c-33 -5 -75 -7 -92 -4 -30 4 -33 3 -33 -22 1 -23 10 -32 71 -62 38 -19 89 -45 112 -57 30 -16 60 -22 104 -23 76 0 104 10 122 44 19 35 4 62 -59 104 -55 35 -101 39 -225 20z" transform="translate(0,116) scale(0.1,-0.1)" stroke="none" fill="#B6AECD"/>

<path d="M170 734 c0 -9 -9 -18 -19 -21 -11 -3 -31 -29 -47 -61 -23 -47 -28 -72 -30 -140 -2 -99 8 -116 64 -106 37 7 149 86 159 112 4 8 1 23 -5 33 -18 28 -15 32 23 25 22 -4 35 -3 35 4 0 5 -4 10 -8 10 -5 0 -30 14 -56 31 -48 32 -76 72 -76 109 0 13 -7 20 -20 20 -12 0 -20 -7 -20 -16z" transform="translate(0,116) scale(0.1,-0.1)" stroke="none" fill="#806379"/>

<path d="M640 532 c0 -13 -56 -42 -82 -42 -24 0 -86 -32 -161 -83 l-59 -40 6 -45 c3 -25 6 -51 6 -58 0 -20 92 -36 132 -22 41 14 136 109 144 146 4 15 20 42 35 61 20 25 26 39 19 51 -12 23 -40 45 -40 32z" transform="translate(0,116) scale(0.1,-0.1)" stroke="none" fill="#B6AECD"/>

<path d="M327 840 c-36 -11 -77 -58 -77 -89 0 -36 40 -99 74 -115 19 -8 79 -17 150 -20 65 -4 130 -9 143 -12 43 -11 46 15 7 58 -19 21 -34 42 -34 47 0 5 -8 12 -19 16 -10 3 -38 23 -62 45 -46 42 -115 81 -140 79 -8 0 -27 -5 -42 -9z" transform="translate(0,116) scale(0.1,-0.1)" stroke="none" fill="#B6AECD"/>

<path d="M654 1074 c-53 -34 -74 -74 -74 -139 0 -44 9 -70 50 -151 28 -54 50 -105 50 -113 0 -11 3 -12 11 -4 20 20 2 99 -27 121 -24 17 -26 26 -31 120 -5 89 -4 105 12 122 23 25 77 26 101 3 45 -45 58 -160 29 -268 -13 -51 -13 -59 1 -81 9 -13 23 -24 30 -24 8 0 40 35 72 78 31 42 70 89 85 104 15 15 27 34 27 43 0 27 48 17 87 -18 28 -26 36 -41 35 -65 -1 -45 -36 -89 -80 -102 -52 -15 -165 -73 -170 -88 -6 -19 28 -14 108 17 87 34 140 75 165 127 23 49 15 108 -19 143 -22 22 -35 26 -81 25 -46 0 -59 -5 -85 -29 -16 -16 -30 -35 -30 -42 0 -7 -4 -13 -10 -13 -5 0 -10 -9 -10 -20 0 -11 -4 -20 -10 -20 -5 0 -10 -7 -10 -15 0 -17 -69 -89 -78 -81 -3 3 0 43 6 88 26 181 11 260 -54 291 -46 22 -53 22 -100 -9z" transform="translate(0,116) scale(0.1,-0.1)" stroke="none" fill="#B9CF64"/>

</g>

</g>
<g id="row2" transform="translate(18,232.0)">
<g id="0" transform="translate(0.0,0)scale(1,1)">

<path d="M820 470 c0 -18 27 -64 49 -84 12 -11 21 -27 21 -36 0 -10 7 -23 16 -31 26 -21 44 -66 44 -109 0 -67 -65 -116 -125 -94 -22 9 -41 50 -49 106 -4 26 -12 50 -18 54 -11 7 -2 121 13 161 7 18 5 23 -7 23 -11 0 -13 -6 -9 -20 4 -11 2 -20 -4 -20 -17 0 -14 -223 3 -264 21 -49 74 -86 125 -86 35 0 47 6 72 32 56 62 51 146 -14 236 -23 32 -55 77 -72 100 -30 41 -45 52 -45 32z" transform="translate(0,116) scale(0.1,-0.1)" stroke="none" fill="#B9CF64"/>

<path d="M620 531 c0 -4 -22 -11 -49 -14 -73 -9 -211 -78 -238 -119 -76 -113 55 -243 183 -182 51 24 129 117 160 190 15 35 24 67 20 71 -10 10 -63 -58 -70 -89 -7 -35 -102 -131 -144 -146 -40 -14 -132 2 -132 22 0 7 -3 33 -6 58 l-6 45 59 40 c75 51 137 83 161 83 24 0 82 29 82 41 0 5 -4 9 -10 9 -5 0 -10 -4 -10 -9z" transform="translate(0,116) scale(0.1,-0.1)" stroke="none" fill="#B9CF64"/>

<path d="M705 664 c-16 -8 -43 -33 -58 -55 l-28 -41 33 -37 c53 -60 148 -79 192 -37 42 38 36 84 -19 140 -48 50 -71 55 -120 30z" transform="translate(0,116) scale(0.1,-0.1)" stroke="none" fill="#806379"/>

<path d="M1070 599 c-168 -18 -191 -22 -187 -33 4 -13 51 -13 188 -1 l95 8 52 -34 c65 -43 81 -69 61 -105 -17 -34 -46 -44 -119 -44 -62 0 -97 13 -205 75 -58 33 -105 44 -105 26 0 -5 55 -37 123 -71 118 -60 126 -62 201 -63 l79 -1 33 38 c27 31 34 48 34 80 0 47 -16 65 -89 101 -60 29 -83 33 -161 24z" transform="translate(0,116) scale(0.1,-0.1)" stroke="none" fill="#B9CF64"/>

<path d="M205 350 c-9 -10 -30 -22 -47 -25 -17 -4 -34 -17 -40 -31 -15 -32 5 -60 77 -109 51 -36 63 -40 117 -39 45 1 64 6 79 21 20 20 20 20 -20 56 -49 44 -61 66 -61 109 0 32 -1 33 -44 35 -32 1 -48 -3 -61 -17z" transform="translate(0,116) scale(0.1,-0.1)" stroke="none" fill="#806379"/>

<path d="M295 866 c-48 -24 -65 -42 -76 -80 -21 -75 22 -149 111 -189 36 -17 66 -21 145 -21 202 0 205 30 4 39 -143 8 -177 19 -207 74 -29 52 -28 82 7 118 58 61 135 49 230 -37 24 -22 52 -42 62 -45 10 -3 21 -14 24 -24 3 -10 18 -30 34 -45 25 -24 29 -25 35 -10 7 19 -85 116 -177 184 -48 36 -68 44 -110 47 -32 2 -64 -2 -82 -11z" transform="translate(0,116) scale(0.1,-0.1)" stroke="none" fill="#B9CF64"/>

<path d="M990 885 c0 -9 -12 -28 -27 -43 -29 -28 -143 -178 -143 -187 0 -3 7 -17 16 -31 14 -21 18 -22 28 -9 12 16 137 78 178 88 34 9 69 58 70 99 1 24 -7 39 -35 65 -39 35 -87 45 -87 18z" transform="translate(0,116) scale(0.1,-0.1)" stroke="none" fill="#B6AECD"/>

<path d="M645 1030 c-16 -17 -17 -33 -12 -121 5 -96 7 -103 33 -124 22 -18 27 -30 28 -72 l1 -50 34 12 c28 9 34 17 37 46 2 19 9 47 14 63 14 42 12 161 -4 199 -7 18 -21 40 -30 50 -24 23 -78 22 -101 -3z" transform="translate(0,116) scale(0.1,-0.1)" stroke="none" fill="#B6AECD"/>

<path d="M780 456 c-18 -23 -35 -155 -22 -176 6 -10 14 -35 17 -56 4 -22 11 -52 17 -67 21 -54 79 -63 127 -18 25 23 31 37 31 71 0 43 -18 88 -44 109 -9 8 -16 21 -16 30 0 10 -11 28 -24 40 -14 13 -30 36 -36 52 -14 32 -31 37 -50 15z" transform="translate(0,116) scale(0.1,-0.1)" stroke="none" fill="#B6AECD"/>

<path d="M995 558 c-33 -5 -75 -7 -92 -4 -30 4 -33 3 -33 -22 1 -23 10 -32 71 -62 38 -19 89 -45 112 -57 30 -16 60 -22 104 -23 76 0 104 10 122 44 19 35 4 62 -59 104 -55 35 -101 39 -225 20z" transform="translate(0,116) scale(0.1,-0.1)" stroke="none" fill="#B6AECD"/>

<path d="M170 734 c0 -9 -9 -18 -19 -21 -11 -3 -31 -29 -47 -61 -23 -47 -28 -72 -30 -140 -2 -99 8 -116 64 -106 37 7 149 86 159 112 4 8 1 23 -5 33 -18 28 -15 32 23 25 22 -4 35 -3 35 4 0 5 -4 10 -8 10 -5 0 -30 14 -56 31 -48 32 -76 72 -76 109 0 13 -7 20 -20 20 -12 0 -20 -7 -20 -16z" transform="translate(0,116) scale(0.1,-0.1)" stroke="none" fill="#806379"/>

<path d="M640 532 c0 -13 -56 -42 -82 -42 -24 0 -86 -32 -161 -83 l-59 -40 6 -45 c3 -25 6 -51 6 -58 0 -20 92 -36 132 -22 41 14 136 109 144 146 4 15 20 42 35 61 20 25 26 39 19 51 -12 23 -40 45 -40 32z" transform="translate(0,116) scale(0.1,-0.1)" stroke="none" fill="#B6AECD"/>

<path d="M327 840 c-36 -11 -77 -58 -77 -89 0 -36 40 -99 74 -115 19 -8 79 -17 150 -20 65 -4 130 -9 143 -12 43 -11 46 15 7 58 -19 21 -34 42 -34 47 0 5 -8 12 -19 16 -10 3 -38 23 -62 45 -46 42 -115 81 -140 79 -8 0 -27 -5 -42 -9z" transform="translate(0,116) scale(0.1,-0.1)" stroke="none" fill="#B6AECD"/>

<path d="M654 1074 c-53 -34 -74 -74 -74 -139 0 -44 9 -70 50 -151 28 -54 50 -105 50 -113 0 -11 3 -12 11 -4 20 20 2 99 -27 121 -24 17 -26 26 -31 120 -5 89 -4 105 12 122 23 25 77 26 101 3 45 -45 58 -160 29 -268 -13 -51 -13 -59 1 -81 9 -13 23 -24 30 -24 8 0 40 35 72 78 31 42 70 89 85 104 15 15 27 34 27 43 0 27 48 17 87 -18 28 -26 36 -41 35 -65 -1 -45 -36 -89 -80 -102 -52 -15 -165 -73 -170 -88 -6 -19 28 -14 108 17 87 34 140 75 165 127 23 49 15 108 -19 143 -22 22 -35 26 -81 25 -46 0 -59 -5 -85 -29 -16 -16 -30 -35 -30 -42 0 -7 -4 -13 -10 -13 -5 0 -10 -9 -10 -20 0 -11 -4 -20 -10 -20 -5 0 -10 -7 -10 -15 0 -17 -69 -89 -78 -81 -3 3 0 43 6 88 26 181 11 260 -54 291 -46 22 -53 22 -100 -9z" transform="translate(0,116) scale(0.1,-0.1)" stroke="none" fill="#B9CF64"/>

</g>

<g id="1" transform="translate(140.0,0)scale(1,1)">

<path d="M820 470 c0 -18 27 -64 49 -84 12 -11 21 -27 21 -36 0 -10 7 -23 16 -31 26 -21 44 -66 44 -109 0 -67 -65 -116 -125 -94 -22 9 -41 50 -49 106 -4 26 -12 50 -18 54 -11 7 -2 121 13 161 7 18 5 23 -7 23 -11 0 -13 -6 -9 -20 4 -11 2 -20 -4 -20 -17 0 -14 -223 3 -264 21 -49 74 -86 125 -86 35 0 47 6 72 32 56 62 51 146 -14 236 -23 32 -55 77 -72 100 -30 41 -45 52 -45 32z" transform="translate(0,116) scale(0.1,-0.1)" stroke="none" fill="#B9CF64"/>

<path d="M620 531 c0 -4 -22 -11 -49 -14 -73 -9 -211 -78 -238 -119 -76 -113 55 -243 183 -182 51 24 129 117 160 190 15 35 24 67 20 71 -10 10 -63 -58 -70 -89 -7 -35 -102 -131 -144 -146 -40 -14 -132 2 -132 22 0 7 -3 33 -6 58 l-6 45 59 40 c75 51 137 83 161 83 24 0 82 29 82 41 0 5 -4 9 -10 9 -5 0 -10 -4 -10 -9z" transform="translate(0,116) scale(0.1,-0.1)" stroke="none" fill="#B9CF64"/>

<path d="M705 664 c-16 -8 -43 -33 -58 -55 l-28 -41 33 -37 c53 -60 148 -79 192 -37 42 38 36 84 -19 140 -48 50 -71 55 -120 30z" transform="translate(0,116) scale(0.1,-0.1)" stroke="none" fill="#806379"/>

<path d="M1070 599 c-168 -18 -191 -22 -187 -33 4 -13 51 -13 188 -1 l95 8 52 -34 c65 -43 81 -69 61 -105 -17 -34 -46 -44 -119 -44 -62 0 -97 13 -205 75 -58 33 -105 44 -105 26 0 -5 55 -37 123 -71 118 -60 126 -62 201 -63 l79 -1 33 38 c27 31 34 48 34 80 0 47 -16 65 -89 101 -60 29 -83 33 -161 24z" transform="translate(0,116) scale(0.1,-0.1)" stroke="none" fill="#B9CF64"/>

<path d="M205 350 c-9 -10 -30 -22 -47 -25 -17 -4 -34 -17 -40 -31 -15 -32 5 -60 77 -109 51 -36 63 -40 117 -39 45 1 64 6 79 21 20 20 20 20 -20 56 -49 44 -61 66 -61 109 0 32 -1 33 -44 35 -32 1 -48 -3 -61 -17z" transform="translate(0,116) scale(0.1,-0.1)" stroke="none" fill="#806379"/>

<path d="M295 866 c-48 -24 -65 -42 -76 -80 -21 -75 22 -149 111 -189 36 -17 66 -21 145 -21 202 0 205 30 4 39 -143 8 -177 19 -207 74 -29 52 -28 82 7 118 58 61 135 49 230 -37 24 -22 52 -42 62 -45 10 -3 21 -14 24 -24 3 -10 18 -30 34 -45 25 -24 29 -25 35 -10 7 19 -85 116 -177 184 -48 36 -68 44 -110 47 -32 2 -64 -2 -82 -11z" transform="translate(0,116) scale(0.1,-0.1)" stroke="none" fill="#B9CF64"/>

<path d="M990 885 c0 -9 -12 -28 -27 -43 -29 -28 -143 -178 -143 -187 0 -3 7 -17 16 -31 14 -21 18 -22 28 -9 12 16 137 78 178 88 34 9 69 58 70 99 1 24 -7 39 -35 65 -39 35 -87 45 -87 18z" transform="translate(0,116) scale(0.1,-0.1)" stroke="none" fill="#B6AECD"/>

<path d="M645 1030 c-16 -17 -17 -33 -12 -121 5 -96 7 -103 33 -124 22 -18 27 -30 28 -72 l1 -50 34 12 c28 9 34 17 37 46 2 19 9 47 14 63 14 42 12 161 -4 199 -7 18 -21 40 -30 50 -24 23 -78 22 -101 -3z" transform="translate(0,116) scale(0.1,-0.1)" stroke="none" fill="#B6AECD"/>

<path d="M780 456 c-18 -23 -35 -155 -22 -176 6 -10 14 -35 17 -56 4 -22 11 -52 17 -67 21 -54 79 -63 127 -18 25 23 31 37 31 71 0 43 -18 88 -44 109 -9 8 -16 21 -16 30 0 10 -11 28 -24 40 -14 13 -30 36 -36 52 -14 32 -31 37 -50 15z" transform="translate(0,116) scale(0.1,-0.1)" stroke="none" fill="#B6AECD"/>

<path d="M995 558 c-33 -5 -75 -7 -92 -4 -30 4 -33 3 -33 -22 1 -23 10 -32 71 -62 38 -19 89 -45 112 -57 30 -16 60 -22 104 -23 76 0 104 10 122 44 19 35 4 62 -59 104 -55 35 -101 39 -225 20z" transform="translate(0,116) scale(0.1,-0.1)" stroke="none" fill="#B6AECD"/>

<path d="M170 734 c0 -9 -9 -18 -19 -21 -11 -3 -31 -29 -47 -61 -23 -47 -28 -72 -30 -140 -2 -99 8 -116 64 -106 37 7 149 86 159 112 4 8 1 23 -5 33 -18 28 -15 32 23 25 22 -4 35 -3 35 4 0 5 -4 10 -8 10 -5 0 -30 14 -56 31 -48 32 -76 72 -76 109 0 13 -7 20 -20 20 -12 0 -20 -7 -20 -16z" transform="translate(0,116) scale(0.1,-0.1)" stroke="none" fill="#806379"/>

<path d="M640 532 c0 -13 -56 -42 -82 -42 -24 0 -86 -32 -161 -83 l-59 -40 6 -45 c3 -25 6 -51 6 -58 0 -20 92 -36 132 -22 41 14 136 109 144 146 4 15 20 42 35 61 20 25 26 39 19 51 -12 23 -40 45 -40 32z" transform="translate(0,116) scale(0.1,-0.1)" stroke="none" fill="#B6AECD"/>

<path d="M327 840 c-36 -11 -77 -58 -77 -89 0 -36 40 -99 74 -115 19 -8 79 -17 150 -20 65 -4 130 -9 143 -12 43 -11 46 15 7 58 -19 21 -34 42 -34 47 0 5 -8 12 -19 16 -10 3 -38 23 -62 45 -46 42 -115 81 -140 79 -8 0 -27 -5 -42 -9z" transform="translate(0,116) scale(0.1,-0.1)" stroke="none" fill="#B6AECD"/>

<path d="M654 1074 c-53 -34 -74 -74 -74 -139 0 -44 9 -70 50 -151 28 -54 50 -105 50 -113 0 -11 3 -12 11 -4 20 20 2 99 -27 121 -24 17 -26 26 -31 120 -5 89 -4 105 12 122 23 25 77 26 101 3 45 -45 58 -160 29 -268 -13 -51 -13 -59 1 -81 9 -13 23 -24 30 -24 8 0 40 35 72 78 31 42 70 89 85 104 15 15 27 34 27 43 0 27 48 17 87 -18 28 -26 36 -41 35 -65 -1 -45 -36 -89 -80 -102 -52 -15 -165 -73 -170 -88 -6 -19 28 -14 108 17 87 34 140 75 165 127 23 49 15 108 -19 143 -22 22 -35 26 -81 25 -46 0 -59 -5 -85 -29 -16 -16 -30 -35 -30 -42 0 -7 -4 -13 -10 -13 -5 0 -10 -9 -10 -20 0 -11 -4 -20 -10 -20 -5 0 -10 -7 -10 -15 0 -17 -69 -89 -78 -81 -3 3 0 43 6 88 26 181 11 260 -54 291 -46 22 -53 22 -100 -9z" transform="translate(0,116) scale(0.1,-0.1)" stroke="none" fill="#B9CF64"/>

</g>

<g id="2" transform="translate(280.0,0)scale(1,1)">

<path d="M820 470 c0 -18 27 -64 49 -84 12 -11 21 -27 21 -36 0 -10 7 -23 16 -31 26 -21 44 -66 44 -109 0 -67 -65 -116 -125 -94 -22 9 -41 50 -49 106 -4 26 -12 50 -18 54 -11 7 -2 121 13 161 7 18 5 23 -7 23 -11 0 -13 -6 -9 -20 4 -11 2 -20 -4 -20 -17 0 -14 -223 3 -264 21 -49 74 -86 125 -86 35 0 47 6 72 32 56 62 51 146 -14 236 -23 32 -55 77 -72 100 -30 41 -45 52 -45 32z" transform="translate(0,116) scale(0.1,-0.1)" stroke="none" fill="#B9CF64"/>

<path d="M620 531 c0 -4 -22 -11 -49 -14 -73 -9 -211 -78 -238 -119 -76 -113 55 -243 183 -182 51 24 129 117 160 190 15 35 24 67 20 71 -10 10 -63 -58 -70 -89 -7 -35 -102 -131 -144 -146 -40 -14 -132 2 -132 22 0 7 -3 33 -6 58 l-6 45 59 40 c75 51 137 83 161 83 24 0 82 29 82 41 0 5 -4 9 -10 9 -5 0 -10 -4 -10 -9z" transform="translate(0,116) scale(0.1,-0.1)" stroke="none" fill="#B9CF64"/>

<path d="M705 664 c-16 -8 -43 -33 -58 -55 l-28 -41 33 -37 c53 -60 148 -79 192 -37 42 38 36 84 -19 140 -48 50 -71 55 -120 30z" transform="translate(0,116) scale(0.1,-0.1)" stroke="none" fill="#806379"/>

<path d="M1070 599 c-168 -18 -191 -22 -187 -33 4 -13 51 -13 188 -1 l95 8 52 -34 c65 -43 81 -69 61 -105 -17 -34 -46 -44 -119 -44 -62 0 -97 13 -205 75 -58 33 -105 44 -105 26 0 -5 55 -37 123 -71 118 -60 126 -62 201 -63 l79 -1 33 38 c27 31 34 48 34 80 0 47 -16 65 -89 101 -60 29 -83 33 -161 24z" transform="translate(0,116) scale(0.1,-0.1)" stroke="none" fill="#B9CF64"/>

<path d="M205 350 c-9 -10 -30 -22 -47 -25 -17 -4 -34 -17 -40 -31 -15 -32 5 -60 77 -109 51 -36 63 -40 117 -39 45 1 64 6 79 21 20 20 20 20 -20 56 -49 44 -61 66 -61 109 0 32 -1 33 -44 35 -32 1 -48 -3 -61 -17z" transform="translate(0,116) scale(0.1,-0.1)" stroke="none" fill="#806379"/>

<path d="M295 866 c-48 -24 -65 -42 -76 -80 -21 -75 22 -149 111 -189 36 -17 66 -21 145 -21 202 0 205 30 4 39 -143 8 -177 19 -207 74 -29 52 -28 82 7 118 58 61 135 49 230 -37 24 -22 52 -42 62 -45 10 -3 21 -14 24 -24 3 -10 18 -30 34 -45 25 -24 29 -25 35 -10 7 19 -85 116 -177 184 -48 36 -68 44 -110 47 -32 2 -64 -2 -82 -11z" transform="translate(0,116) scale(0.1,-0.1)" stroke="none" fill="#B9CF64"/>

<path d="M990 885 c0 -9 -12 -28 -27 -43 -29 -28 -143 -178 -143 -187 0 -3 7 -17 16 -31 14 -21 18 -22 28 -9 12 16 137 78 178 88 34 9 69 58 70 99 1 24 -7 39 -35 65 -39 35 -87 45 -87 18z" transform="translate(0,116) scale(0.1,-0.1)" stroke="none" fill="#B6AECD"/>

<path d="M645 1030 c-16 -17 -17 -33 -12 -121 5 -96 7 -103 33 -124 22 -18 27 -30 28 -72 l1 -50 34 12 c28 9 34 17 37 46 2 19 9 47 14 63 14 42 12 161 -4 199 -7 18 -21 40 -30 50 -24 23 -78 22 -101 -3z" transform="translate(0,116) scale(0.1,-0.1)" stroke="none" fill="#B6AECD"/>

<path d="M780 456 c-18 -23 -35 -155 -22 -176 6 -10 14 -35 17 -56 4 -22 11 -52 17 -67 21 -54 79 -63 127 -18 25 23 31 37 31 71 0 43 -18 88 -44 109 -9 8 -16 21 -16 30 0 10 -11 28 -24 40 -14 13 -30 36 -36 52 -14 32 -31 37 -50 15z" transform="translate(0,116) scale(0.1,-0.1)" stroke="none" fill="#B6AECD"/>

<path d="M995 558 c-33 -5 -75 -7 -92 -4 -30 4 -33 3 -33 -22 1 -23 10 -32 71 -62 38 -19 89 -45 112 -57 30 -16 60 -22 104 -23 76 0 104 10 122 44 19 35 4 62 -59 104 -55 35 -101 39 -225 20z" transform="translate(0,116) scale(0.1,-0.1)" stroke="none" fill="#B6AECD"/>

<path d="M170 734 c0 -9 -9 -18 -19 -21 -11 -3 -31 -29 -47 -61 -23 -47 -28 -72 -30 -140 -2 -99 8 -116 64 -106 37 7 149 86 159 112 4 8 1 23 -5 33 -18 28 -15 32 23 25 22 -4 35 -3 35 4 0 5 -4 10 -8 10 -5 0 -30 14 -56 31 -48 32 -76 72 -76 109 0 13 -7 20 -20 20 -12 0 -20 -7 -20 -16z" transform="translate(0,116) scale(0.1,-0.1)" stroke="none" fill="#806379"/>

<path d="M640 532 c0 -13 -56 -42 -82 -42 -24 0 -86 -32 -161 -83 l-59 -40 6 -45 c3 -25 6 -51 6 -58 0 -20 92 -36 132 -22 41 14 136 109 144 146 4 15 20 42 35 61 20 25 26 39 19 51 -12 23 -40 45 -40 32z" transform="translate(0,116) scale(0.1,-0.1)" stroke="none" fill="#B6AECD"/>

<path d="M327 840 c-36 -11 -77 -58 -77 -89 0 -36 40 -99 74 -115 19 -8 79 -17 150 -20 65 -4 130 -9 143 -12 43 -11 46 15 7 58 -19 21 -34 42 -34 47 0 5 -8 12 -19 16 -10 3 -38 23 -62 45 -46 42 -115 81 -140 79 -8 0 -27 -5 -42 -9z" transform="translate(0,116) scale(0.1,-0.1)" stroke="none" fill="#B6AECD"/>

<path d="M654 1074 c-53 -34 -74 -74 -74 -139 0 -44 9 -70 50 -151 28 -54 50 -105 50 -113 0 -11 3 -12 11 -4 20 20 2 99 -27 121 -24 17 -26 26 -31 120 -5 89 -4 105 12 122 23 25 77 26 101 3 45 -45 58 -160 29 -268 -13 -51 -13 -59 1 -81 9 -13 23 -24 30 -24 8 0 40 35 72 78 31 42 70 89 85 104 15 15 27 34 27 43 0 27 48 17 87 -18 28 -26 36 -41 35 -65 -1 -45 -36 -89 -80 -102 -52 -15 -165 -73 -170 -88 -6 -19 28 -14 108 17 87 34 140 75 165 127 23 49 15 108 -19 143 -22 22 -35 26 -81 25 -46 0 -59 -5 -85 -29 -16 -16 -30 -35 -30 -42 0 -7 -4 -13 -10 -13 -5 0 -10 -9 -10 -20 0 -11 -4 -20 -10 -20 -5 0 -10 -7 -10 -15 0 -17 -69 -89 -78 -81 -3 3 0 43 6 88 26 181 11 260 -54 291 -46 22 -53 22 -100 -9z" transform="translate(0,116) scale(0.1,-0.1)" stroke="none" fill="#B9CF64"/>

</g>

<g id="3" transform="translate(420.0,0)scale(1,1)">

<path d="M820 470 c0 -18 27 -64 49 -84 12 -11 21 -27 21 -36 0 -10 7 -23 16 -31 26 -21 44 -66 44 -109 0 -67 -65 -116 -125 -94 -22 9 -41 50 -49 106 -4 26 -12 50 -18 54 -11 7 -2 121 13 161 7 18 5 23 -7 23 -11 0 -13 -6 -9 -20 4 -11 2 -20 -4 -20 -17 0 -14 -223 3 -264 21 -49 74 -86 125 -86 35 0 47 6 72 32 56 62 51 146 -14 236 -23 32 -55 77 -72 100 -30 41 -45 52 -45 32z" transform="translate(0,116) scale(0.1,-0.1)" stroke="none" fill="#B9CF64"/>

<path d="M620 531 c0 -4 -22 -11 -49 -14 -73 -9 -211 -78 -238 -119 -76 -113 55 -243 183 -182 51 24 129 117 160 190 15 35 24 67 20 71 -10 10 -63 -58 -70 -89 -7 -35 -102 -131 -144 -146 -40 -14 -132 2 -132 22 0 7 -3 33 -6 58 l-6 45 59 40 c75 51 137 83 161 83 24 0 82 29 82 41 0 5 -4 9 -10 9 -5 0 -10 -4 -10 -9z" transform="translate(0,116) scale(0.1,-0.1)" stroke="none" fill="#B9CF64"/>

<path d="M705 664 c-16 -8 -43 -33 -58 -55 l-28 -41 33 -37 c53 -60 148 -79 192 -37 42 38 36 84 -19 140 -48 50 -71 55 -120 30z" transform="translate(0,116) scale(0.1,-0.1)" stroke="none" fill="#806379"/>

<path d="M1070 599 c-168 -18 -191 -22 -187 -33 4 -13 51 -13 188 -1 l95 8 52 -34 c65 -43 81 -69 61 -105 -17 -34 -46 -44 -119 -44 -62 0 -97 13 -205 75 -58 33 -105 44 -105 26 0 -5 55 -37 123 -71 118 -60 126 -62 201 -63 l79 -1 33 38 c27 31 34 48 34 80 0 47 -16 65 -89 101 -60 29 -83 33 -161 24z" transform="translate(0,116) scale(0.1,-0.1)" stroke="none" fill="#B9CF64"/>

<path d="M205 350 c-9 -10 -30 -22 -47 -25 -17 -4 -34 -17 -40 -31 -15 -32 5 -60 77 -109 51 -36 63 -40 117 -39 45 1 64 6 79 21 20 20 20 20 -20 56 -49 44 -61 66 -61 109 0 32 -1 33 -44 35 -32 1 -48 -3 -61 -17z" transform="translate(0,116) scale(0.1,-0.1)" stroke="none" fill="#806379"/>

<path d="M295 866 c-48 -24 -65 -42 -76 -80 -21 -75 22 -149 111 -189 36 -17 66 -21 145 -21 202 0 205 30 4 39 -143 8 -177 19 -207 74 -29 52 -28 82 7 118 58 61 135 49 230 -37 24 -22 52 -42 62 -45 10 -3 21 -14 24 -24 3 -10 18 -30 34 -45 25 -24 29 -25 35 -10 7 19 -85 116 -177 184 -48 36 -68 44 -110 47 -32 2 -64 -2 -82 -11z" transform="translate(0,116) scale(0.1,-0.1)" stroke="none" fill="#B9CF64"/>

<path d="M990 885 c0 -9 -12 -28 -27 -43 -29 -28 -143 -178 -143 -187 0 -3 7 -17 16 -31 14 -21 18 -22 28 -9 12 16 137 78 178 88 34 9 69 58 70 99 1 24 -7 39 -35 65 -39 35 -87 45 -87 18z" transform="translate(0,116) scale(0.1,-0.1)" stroke="none" fill="#B6AECD"/>

<path d="M645 1030 c-16 -17 -17 -33 -12 -121 5 -96 7 -103 33 -124 22 -18 27 -30 28 -72 l1 -50 34 12 c28 9 34 17 37 46 2 19 9 47 14 63 14 42 12 161 -4 199 -7 18 -21 40 -30 50 -24 23 -78 22 -101 -3z" transform="translate(0,116) scale(0.1,-0.1)" stroke="none" fill="#B6AECD"/>

<path d="M780 456 c-18 -23 -35 -155 -22 -176 6 -10 14 -35 17 -56 4 -22 11 -52 17 -67 21 -54 79 -63 127 -18 25 23 31 37 31 71 0 43 -18 88 -44 109 -9 8 -16 21 -16 30 0 10 -11 28 -24 40 -14 13 -30 36 -36 52 -14 32 -31 37 -50 15z" transform="translate(0,116) scale(0.1,-0.1)" stroke="none" fill="#B6AECD"/>

<path d="M995 558 c-33 -5 -75 -7 -92 -4 -30 4 -33 3 -33 -22 1 -23 10 -32 71 -62 38 -19 89 -45 112 -57 30 -16 60 -22 104 -23 76 0 104 10 122 44 19 35 4 62 -59 104 -55 35 -101 39 -225 20z" transform="translate(0,116) scale(0.1,-0.1)" stroke="none" fill="#B6AECD"/>

<path d="M170 734 c0 -9 -9 -18 -19 -21 -11 -3 -31 -29 -47 -61 -23 -47 -28 -72 -30 -140 -2 -99 8 -116 64 -106 37 7 149 86 159 112 4 8 1 23 -5 33 -18 28 -15 32 23 25 22 -4 35 -3 35 4 0 5 -4 10 -8 10 -5 0 -30 14 -56 31 -48 32 -76 72 -76 109 0 13 -7 20 -20 20 -12 0 -20 -7 -20 -16z" transform="translate(0,116) scale(0.1,-0.1)" stroke="none" fill="#806379"/>

<path d="M640 532 c0 -13 -56 -42 -82 -42 -24 0 -86 -32 -161 -83 l-59 -40 6 -45 c3 -25 6 -51 6 -58 0 -20 92 -36 132 -22 41 14 136 109 144 146 4 15 20 42 35 61 20 25 26 39 19 51 -12 23 -40 45 -40 32z" transform="translate(0,116) scale(0.1,-0.1)" stroke="none" fill="#B6AECD"/>

<path d="M327 840 c-36 -11 -77 -58 -77 -89 0 -36 40 -99 74 -115 19 -8 79 -17 150 -20 65 -4 130 -9 143 -12 43 -11 46 15 7 58 -19 21 -34 42 -34 47 0 5 -8 12 -19 16 -10 3 -38 23 -62 45 -46 42 -115 81 -140 79 -8 0 -27 -5 -42 -9z" transform="translate(0,116) scale(0.1,-0.1)" stroke="none" fill="#B6AECD"/>

<path d="M654 1074 c-53 -34 -74 -74 -74 -139 0 -44 9 -70 50 -151 28 -54 50 -105 50 -113 0 -11 3 -12 11 -4 20 20 2 99 -27 121 -24 17 -26 26 -31 120 -5 89 -4 105 12 122 23 25 77 26 101 3 45 -45 58 -160 29 -268 -13 -51 -13 -59 1 -81 9 -13 23 -24 30 -24 8 0 40 35 72 78 31 42 70 89 85 104 15 15 27 34 27 43 0 27 48 17 87 -18 28 -26 36 -41 35 -65 -1 -45 -36 -89 -80 -102 -52 -15 -165 -73 -170 -88 -6 -19 28 -14 108 17 87 34 140 75 165 127 23 49 15 108 -19 143 -22 22 -35 26 -81 25 -46 0 -59 -5 -85 -29 -16 -16 -30 -35 -30 -42 0 -7 -4 -13 -10 -13 -5 0 -10 -9 -10 -20 0 -11 -4 -20 -10 -20 -5 0 -10 -7 -10 -15 0 -17 -69 -89 -78 -81 -3 3 0 43 6 88 26 181 11 260 -54 291 -46 22 -53 22 -100 -9z" transform="translate(0,116) scale(0.1,-0.1)" stroke="none" fill="#B9CF64"/>

</g>

<g id="4" transform="translate(560.0,0)scale(1,1)">

<path d="M820 470 c0 -18 27 -64 49 -84 12 -11 21 -27 21 -36 0 -10 7 -23 16 -31 26 -21 44 -66 44 -109 0 -67 -65 -116 -125 -94 -22 9 -41 50 -49 106 -4 26 -12 50 -18 54 -11 7 -2 121 13 161 7 18 5 23 -7 23 -11 0 -13 -6 -9 -20 4 -11 2 -20 -4 -20 -17 0 -14 -223 3 -264 21 -49 74 -86 125 -86 35 0 47 6 72 32 56 62 51 146 -14 236 -23 32 -55 77 -72 100 -30 41 -45 52 -45 32z" transform="translate(0,116) scale(0.1,-0.1)" stroke="none" fill="#B9CF64"/>

<path d="M620 531 c0 -4 -22 -11 -49 -14 -73 -9 -211 -78 -238 -119 -76 -113 55 -243 183 -182 51 24 129 117 160 190 15 35 24 67 20 71 -10 10 -63 -58 -70 -89 -7 -35 -102 -131 -144 -146 -40 -14 -132 2 -132 22 0 7 -3 33 -6 58 l-6 45 59 40 c75 51 137 83 161 83 24 0 82 29 82 41 0 5 -4 9 -10 9 -5 0 -10 -4 -10 -9z" transform="translate(0,116) scale(0.1,-0.1)" stroke="none" fill="#B9CF64"/>

<path d="M705 664 c-16 -8 -43 -33 -58 -55 l-28 -41 33 -37 c53 -60 148 -79 192 -37 42 38 36 84 -19 140 -48 50 -71 55 -120 30z" transform="translate(0,116) scale(0.1,-0.1)" stroke="none" fill="#806379"/>

<path d="M1070 599 c-168 -18 -191 -22 -187 -33 4 -13 51 -13 188 -1 l95 8 52 -34 c65 -43 81 -69 61 -105 -17 -34 -46 -44 -119 -44 -62 0 -97 13 -205 75 -58 33 -105 44 -105 26 0 -5 55 -37 123 -71 118 -60 126 -62 201 -63 l79 -1 33 38 c27 31 34 48 34 80 0 47 -16 65 -89 101 -60 29 -83 33 -161 24z" transform="translate(0,116) scale(0.1,-0.1)" stroke="none" fill="#B9CF64"/>

<path d="M205 350 c-9 -10 -30 -22 -47 -25 -17 -4 -34 -17 -40 -31 -15 -32 5 -60 77 -109 51 -36 63 -40 117 -39 45 1 64 6 79 21 20 20 20 20 -20 56 -49 44 -61 66 -61 109 0 32 -1 33 -44 35 -32 1 -48 -3 -61 -17z" transform="translate(0,116) scale(0.1,-0.1)" stroke="none" fill="#806379"/>

<path d="M295 866 c-48 -24 -65 -42 -76 -80 -21 -75 22 -149 111 -189 36 -17 66 -21 145 -21 202 0 205 30 4 39 -143 8 -177 19 -207 74 -29 52 -28 82 7 118 58 61 135 49 230 -37 24 -22 52 -42 62 -45 10 -3 21 -14 24 -24 3 -10 18 -30 34 -45 25 -24 29 -25 35 -10 7 19 -85 116 -177 184 -48 36 -68 44 -110 47 -32 2 -64 -2 -82 -11z" transform="translate(0,116) scale(0.1,-0.1)" stroke="none" fill="#B9CF64"/>

<path d="M990 885 c0 -9 -12 -28 -27 -43 -29 -28 -143 -178 -143 -187 0 -3 7 -17 16 -31 14 -21 18 -22 28 -9 12 16 137 78 178 88 34 9 69 58 70 99 1 24 -7 39 -35 65 -39 35 -87 45 -87 18z" transform="translate(0,116) scale(0.1,-0.1)" stroke="none" fill="#B6AECD"/>

<path d="M645 1030 c-16 -17 -17 -33 -12 -121 5 -96 7 -103 33 -124 22 -18 27 -30 28 -72 l1 -50 34 12 c28 9 34 17 37 46 2 19 9 47 14 63 14 42 12 161 -4 199 -7 18 -21 40 -30 50 -24 23 -78 22 -101 -3z" transform="translate(0,116) scale(0.1,-0.1)" stroke="none" fill="#B6AECD"/>

<path d="M780 456 c-18 -23 -35 -155 -22 -176 6 -10 14 -35 17 -56 4 -22 11 -52 17 -67 21 -54 79 -63 127 -18 25 23 31 37 31 71 0 43 -18 88 -44 109 -9 8 -16 21 -16 30 0 10 -11 28 -24 40 -14 13 -30 36 -36 52 -14 32 -31 37 -50 15z" transform="translate(0,116) scale(0.1,-0.1)" stroke="none" fill="#B6AECD"/>

<path d="M995 558 c-33 -5 -75 -7 -92 -4 -30 4 -33 3 -33 -22 1 -23 10 -32 71 -62 38 -19 89 -45 112 -57 30 -16 60 -22 104 -23 76 0 104 10 122 44 19 35 4 62 -59 104 -55 35 -101 39 -225 20z" transform="translate(0,116) scale(0.1,-0.1)" stroke="none" fill="#B6AECD"/>

<path d="M170 734 c0 -9 -9 -18 -19 -21 -11 -3 -31 -29 -47 -61 -23 -47 -28 -72 -30 -140 -2 -99 8 -116 64 -106 37 7 149 86 159 112 4 8 1 23 -5 33 -18 28 -15 32 23 25 22 -4 35 -3 35 4 0 5 -4 10 -8 10 -5 0 -30 14 -56 31 -48 32 -76 72 -76 109 0 13 -7 20 -20 20 -12 0 -20 -7 -20 -16z" transform="translate(0,116) scale(0.1,-0.1)" stroke="none" fill="#806379"/>

<path d="M640 532 c0 -13 -56 -42 -82 -42 -24 0 -86 -32 -161 -83 l-59 -40 6 -45 c3 -25 6 -51 6 -58 0 -20 92 -36 132 -22 41 14 136 109 144 146 4 15 20 42 35 61 20 25 26 39 19 51 -12 23 -40 45 -40 32z" transform="translate(0,116) scale(0.1,-0.1)" stroke="none" fill="#B6AECD"/>

<path d="M327 840 c-36 -11 -77 -58 -77 -89 0 -36 40 -99 74 -115 19 -8 79 -17 150 -20 65 -4 130 -9 143 -12 43 -11 46 15 7 58 -19 21 -34 42 -34 47 0 5 -8 12 -19 16 -10 3 -38 23 -62 45 -46 42 -115 81 -140 79 -8 0 -27 -5 -42 -9z" transform="translate(0,116) scale(0.1,-0.1)" stroke="none" fill="#B6AECD"/>

<path d="M654 1074 c-53 -34 -74 -74 -74 -139 0 -44 9 -70 50 -151 28 -54 50 -105 50 -113 0 -11 3 -12 11 -4 20 20 2 99 -27 121 -24 17 -26 26 -31 120 -5 89 -4 105 12 122 23 25 77 26 101 3 45 -45 58 -160 29 -268 -13 -51 -13 -59 1 -81 9 -13 23 -24 30 -24 8 0 40 35 72 78 31 42 70 89 85 104 15 15 27 34 27 43 0 27 48 17 87 -18 28 -26 36 -41 35 -65 -1 -45 -36 -89 -80 -102 -52 -15 -165 -73 -170 -88 -6 -19 28 -14 108 17 87 34 140 75 165 127 23 49 15 108 -19 143 -22 22 -35 26 -81 25 -46 0 -59 -5 -85 -29 -16 -16 -30 -35 -30 -42 0 -7 -4 -13 -10 -13 -5 0 -10 -9 -10 -20 0 -11 -4 -20 -10 -20 -5 0 -10 -7 -10 -15 0 -17 -69 -89 -78 -81 -3 3 0 43 6 88 26 181 11 260 -54 291 -46 22 -53 22 -100 -9z" transform="translate(0,116) scale(0.1,-0.1)" stroke="none" fill="#B9CF64"/>

</g>

</g>
<g id="row3" transform="translate(18,348.0)">
<g id="0" transform="translate(0.0,0)scale(1,1)">

<path d="M820 470 c0 -18 27 -64 49 -84 12 -11 21 -27 21 -36 0 -10 7 -23 16 -31 26 -21 44 -66 44 -109 0 -67 -65 -116 -125 -94 -22 9 -41 50 -49 106 -4 26 -12 50 -18 54 -11 7 -2 121 13 161 7 18 5 23 -7 23 -11 0 -13 -6 -9 -20 4 -11 2 -20 -4 -20 -17 0 -14 -223 3 -264 21 -49 74 -86 125 -86 35 0 47 6 72 32 56 62 51 146 -14 236 -23 32 -55 77 -72 100 -30 41 -45 52 -45 32z" transform="translate(0,116) scale(0.1,-0.1)" stroke="none" fill="#B9CF64"/>

<path d="M620 531 c0 -4 -22 -11 -49 -14 -73 -9 -211 -78 -238 -119 -76 -113 55 -243 183 -182 51 24 129 117 160 190 15 35 24 67 20 71 -10 10 -63 -58 -70 -89 -7 -35 -102 -131 -144 -146 -40 -14 -132 2 -132 22 0 7 -3 33 -6 58 l-6 45 59 40 c75 51 137 83 161 83 24 0 82 29 82 41 0 5 -4 9 -10 9 -5 0 -10 -4 -10 -9z" transform="translate(0,116) scale(0.1,-0.1)" stroke="none" fill="#B9CF64"/>

<path d="M705 664 c-16 -8 -43 -33 -58 -55 l-28 -41 33 -37 c53 -60 148 -79 192 -37 42 38 36 84 -19 140 -48 50 -71 55 -120 30z" transform="translate(0,116) scale(0.1,-0.1)" stroke="none" fill="#806379"/>

<path d="M1070 599 c-168 -18 -191 -22 -187 -33 4 -13 51 -13 188 -1 l95 8 52 -34 c65 -43 81 -69 61 -105 -17 -34 -46 -44 -119 -44 -62 0 -97 13 -205 75 -58 33 -105 44 -105 26 0 -5 55 -37 123 -71 118 -60 126 -62 201 -63 l79 -1 33 38 c27 31 34 48 34 80 0 47 -16 65 -89 101 -60 29 -83 33 -161 24z" transform="translate(0,116) scale(0.1,-0.1)" stroke="none" fill="#B9CF64"/>

<path d="M205 350 c-9 -10 -30 -22 -47 -25 -17 -4 -34 -17 -40 -31 -15 -32 5 -60 77 -109 51 -36 63 -40 117 -39 45 1 64 6 79 21 20 20 20 20 -20 56 -49 44 -61 66 -61 109 0 32 -1 33 -44 35 -32 1 -48 -3 -61 -17z" transform="translate(0,116) scale(0.1,-0.1)" stroke="none" fill="#806379"/>

<path d="M295 866 c-48 -24 -65 -42 -76 -80 -21 -75 22 -149 111 -189 36 -17 66 -21 145 -21 202 0 205 30 4 39 -143 8 -177 19 -207 74 -29 52 -28 82 7 118 58 61 135 49 230 -37 24 -22 52 -42 62 -45 10 -3 21 -14 24 -24 3 -10 18 -30 34 -45 25 -24 29 -25 35 -10 7 19 -85 116 -177 184 -48 36 -68 44 -110 47 -32 2 -64 -2 -82 -11z" transform="translate(0,116) scale(0.1,-0.1)" stroke="none" fill="#B9CF64"/>

<path d="M990 885 c0 -9 -12 -28 -27 -43 -29 -28 -143 -178 -143 -187 0 -3 7 -17 16 -31 14 -21 18 -22 28 -9 12 16 137 78 178 88 34 9 69 58 70 99 1 24 -7 39 -35 65 -39 35 -87 45 -87 18z" transform="translate(0,116) scale(0.1,-0.1)" stroke="none" fill="#B6AECD"/>

<path d="M645 1030 c-16 -17 -17 -33 -12 -121 5 -96 7 -103 33 -124 22 -18 27 -30 28 -72 l1 -50 34 12 c28 9 34 17 37 46 2 19 9 47 14 63 14 42 12 161 -4 199 -7 18 -21 40 -30 50 -24 23 -78 22 -101 -3z" transform="translate(0,116) scale(0.1,-0.1)" stroke="none" fill="#B6AECD"/>

<path d="M780 456 c-18 -23 -35 -155 -22 -176 6 -10 14 -35 17 -56 4 -22 11 -52 17 -67 21 -54 79 -63 127 -18 25 23 31 37 31 71 0 43 -18 88 -44 109 -9 8 -16 21 -16 30 0 10 -11 28 -24 40 -14 13 -30 36 -36 52 -14 32 -31 37 -50 15z" transform="translate(0,116) scale(0.1,-0.1)" stroke="none" fill="#B6AECD"/>

<path d="M995 558 c-33 -5 -75 -7 -92 -4 -30 4 -33 3 -33 -22 1 -23 10 -32 71 -62 38 -19 89 -45 112 -57 30 -16 60 -22 104 -23 76 0 104 10 122 44 19 35 4 62 -59 104 -55 35 -101 39 -225 20z" transform="translate(0,116) scale(0.1,-0.1)" stroke="none" fill="#B6AECD"/>

<path d="M170 734 c0 -9 -9 -18 -19 -21 -11 -3 -31 -29 -47 -61 -23 -47 -28 -72 -30 -140 -2 -99 8 -116 64 -106 37 7 149 86 159 112 4 8 1 23 -5 33 -18 28 -15 32 23 25 22 -4 35 -3 35 4 0 5 -4 10 -8 10 -5 0 -30 14 -56 31 -48 32 -76 72 -76 109 0 13 -7 20 -20 20 -12 0 -20 -7 -20 -16z" transform="translate(0,116) scale(0.1,-0.1)" stroke="none" fill="#806379"/>

<path d="M640 532 c0 -13 -56 -42 -82 -42 -24 0 -86 -32 -161 -83 l-59 -40 6 -45 c3 -25 6 -51 6 -58 0 -20 92 -36 132 -22 41 14 136 109 144 146 4 15 20 42 35 61 20 25 26 39 19 51 -12 23 -40 45 -40 32z" transform="translate(0,116) scale(0.1,-0.1)" stroke="none" fill="#B6AECD"/>

<path d="M327 840 c-36 -11 -77 -58 -77 -89 0 -36 40 -99 74 -115 19 -8 79 -17 150 -20 65 -4 130 -9 143 -12 43 -11 46 15 7 58 -19 21 -34 42 -34 47 0 5 -8 12 -19 16 -10 3 -38 23 -62 45 -46 42 -115 81 -140 79 -8 0 -27 -5 -42 -9z" transform="translate(0,116) scale(0.1,-0.1)" stroke="none" fill="#B6AECD"/>

<path d="M654 1074 c-53 -34 -74 -74 -74 -139 0 -44 9 -70 50 -151 28 -54 50 -105 50 -113 0 -11 3 -12 11 -4 20 20 2 99 -27 121 -24 17 -26 26 -31 120 -5 89 -4 105 12 122 23 25 77 26 101 3 45 -45 58 -160 29 -268 -13 -51 -13 -59 1 -81 9 -13 23 -24 30 -24 8 0 40 35 72 78 31 42 70 89 85 104 15 15 27 34 27 43 0 27 48 17 87 -18 28 -26 36 -41 35 -65 -1 -45 -36 -89 -80 -102 -52 -15 -165 -73 -170 -88 -6 -19 28 -14 108 17 87 34 140 75 165 127 23 49 15 108 -19 143 -22 22 -35 26 -81 25 -46 0 -59 -5 -85 -29 -16 -16 -30 -35 -30 -42 0 -7 -4 -13 -10 -13 -5 0 -10 -9 -10 -20 0 -11 -4 -20 -10 -20 -5 0 -10 -7 -10 -15 0 -17 -69 -89 -78 -81 -3 3 0 43 6 88 26 181 11 260 -54 291 -46 22 -53 22 -100 -9z" transform="translate(0,116) scale(0.1,-0.1)" stroke="none" fill="#B9CF64"/>

</g>

<g id="1" transform="translate(140.0,0)scale(1,1)">

<path d="M820 470 c0 -18 27 -64 49 -84 12 -11 21 -27 21 -36 0 -10 7 -23 16 -31 26 -21 44 -66 44 -109 0 -67 -65 -116 -125 -94 -22 9 -41 50 -49 106 -4 26 -12 50 -18 54 -11 7 -2 121 13 161 7 18 5 23 -7 23 -11 0 -13 -6 -9 -20 4 -11 2 -20 -4 -20 -17 0 -14 -223 3 -264 21 -49 74 -86 125 -86 35 0 47 6 72 32 56 62 51 146 -14 236 -23 32 -55 77 -72 100 -30 41 -45 52 -45 32z" transform="translate(0,116) scale(0.1,-0.1)" stroke="none" fill="#B9CF64"/>

<path d="M620 531 c0 -4 -22 -11 -49 -14 -73 -9 -211 -78 -238 -119 -76 -113 55 -243 183 -182 51 24 129 117 160 190 15 35 24 67 20 71 -10 10 -63 -58 -70 -89 -7 -35 -102 -131 -144 -146 -40 -14 -132 2 -132 22 0 7 -3 33 -6 58 l-6 45 59 40 c75 51 137 83 161 83 24 0 82 29 82 41 0 5 -4 9 -10 9 -5 0 -10 -4 -10 -9z" transform="translate(0,116) scale(0.1,-0.1)" stroke="none" fill="#B9CF64"/>

<path d="M705 664 c-16 -8 -43 -33 -58 -55 l-28 -41 33 -37 c53 -60 148 -79 192 -37 42 38 36 84 -19 140 -48 50 -71 55 -120 30z" transform="translate(0,116) scale(0.1,-0.1)" stroke="none" fill="#806379"/>

<path d="M1070 599 c-168 -18 -191 -22 -187 -33 4 -13 51 -13 188 -1 l95 8 52 -34 c65 -43 81 -69 61 -105 -17 -34 -46 -44 -119 -44 -62 0 -97 13 -205 75 -58 33 -105 44 -105 26 0 -5 55 -37 123 -71 118 -60 126 -62 201 -63 l79 -1 33 38 c27 31 34 48 34 80 0 47 -16 65 -89 101 -60 29 -83 33 -161 24z" transform="translate(0,116) scale(0.1,-0.1)" stroke="none" fill="#B9CF64"/>

<path d="M205 350 c-9 -10 -30 -22 -47 -25 -17 -4 -34 -17 -40 -31 -15 -32 5 -60 77 -109 51 -36 63 -40 117 -39 45 1 64 6 79 21 20 20 20 20 -20 56 -49 44 -61 66 -61 109 0 32 -1 33 -44 35 -32 1 -48 -3 -61 -17z" transform="translate(0,116) scale(0.1,-0.1)" stroke="none" fill="#806379"/>

<path d="M295 866 c-48 -24 -65 -42 -76 -80 -21 -75 22 -149 111 -189 36 -17 66 -21 145 -21 202 0 205 30 4 39 -143 8 -177 19 -207 74 -29 52 -28 82 7 118 58 61 135 49 230 -37 24 -22 52 -42 62 -45 10 -3 21 -14 24 -24 3 -10 18 -30 34 -45 25 -24 29 -25 35 -10 7 19 -85 116 -177 184 -48 36 -68 44 -110 47 -32 2 -64 -2 -82 -11z" transform="translate(0,116) scale(0.1,-0.1)" stroke="none" fill="#B9CF64"/>

<path d="M990 885 c0 -9 -12 -28 -27 -43 -29 -28 -143 -178 -143 -187 0 -3 7 -17 16 -31 14 -21 18 -22 28 -9 12 16 137 78 178 88 34 9 69 58 70 99 1 24 -7 39 -35 65 -39 35 -87 45 -87 18z" transform="translate(0,116) scale(0.1,-0.1)" stroke="none" fill="#B6AECD"/>

<path d="M645 1030 c-16 -17 -17 -33 -12 -121 5 -96 7 -103 33 -124 22 -18 27 -30 28 -72 l1 -50 34 12 c28 9 34 17 37 46 2 19 9 47 14 63 14 42 12 161 -4 199 -7 18 -21 40 -30 50 -24 23 -78 22 -101 -3z" transform="translate(0,116) scale(0.1,-0.1)" stroke="none" fill="#B6AECD"/>

<path d="M780 456 c-18 -23 -35 -155 -22 -176 6 -10 14 -35 17 -56 4 -22 11 -52 17 -67 21 -54 79 -63 127 -18 25 23 31 37 31 71 0 43 -18 88 -44 109 -9 8 -16 21 -16 30 0 10 -11 28 -24 40 -14 13 -30 36 -36 52 -14 32 -31 37 -50 15z" transform="translate(0,116) scale(0.1,-0.1)" stroke="none" fill="#B6AECD"/>

<path d="M995 558 c-33 -5 -75 -7 -92 -4 -30 4 -33 3 -33 -22 1 -23 10 -32 71 -62 38 -19 89 -45 112 -57 30 -16 60 -22 104 -23 76 0 104 10 122 44 19 35 4 62 -59 104 -55 35 -101 39 -225 20z" transform="translate(0,116) scale(0.1,-0.1)" stroke="none" fill="#B6AECD"/>

<path d="M170 734 c0 -9 -9 -18 -19 -21 -11 -3 -31 -29 -47 -61 -23 -47 -28 -72 -30 -140 -2 -99 8 -116 64 -106 37 7 149 86 159 112 4 8 1 23 -5 33 -18 28 -15 32 23 25 22 -4 35 -3 35 4 0 5 -4 10 -8 10 -5 0 -30 14 -56 31 -48 32 -76 72 -76 109 0 13 -7 20 -20 20 -12 0 -20 -7 -20 -16z" transform="translate(0,116) scale(0.1,-0.1)" stroke="none" fill="#806379"/>

<path d="M640 532 c0 -13 -56 -42 -82 -42 -24 0 -86 -32 -161 -83 l-59 -40 6 -45 c3 -25 6 -51 6 -58 0 -20 92 -36 132 -22 41 14 136 109 144 146 4 15 20 42 35 61 20 25 26 39 19 51 -12 23 -40 45 -40 32z" transform="translate(0,116) scale(0.1,-0.1)" stroke="none" fill="#B6AECD"/>

<path d="M327 840 c-36 -11 -77 -58 -77 -89 0 -36 40 -99 74 -115 19 -8 79 -17 150 -20 65 -4 130 -9 143 -12 43 -11 46 15 7 58 -19 21 -34 42 -34 47 0 5 -8 12 -19 16 -10 3 -38 23 -62 45 -46 42 -115 81 -140 79 -8 0 -27 -5 -42 -9z" transform="translate(0,116) scale(0.1,-0.1)" stroke="none" fill="#B6AECD"/>

<path d="M654 1074 c-53 -34 -74 -74 -74 -139 0 -44 9 -70 50 -151 28 -54 50 -105 50 -113 0 -11 3 -12 11 -4 20 20 2 99 -27 121 -24 17 -26 26 -31 120 -5 89 -4 105 12 122 23 25 77 26 101 3 45 -45 58 -160 29 -268 -13 -51 -13 -59 1 -81 9 -13 23 -24 30 -24 8 0 40 35 72 78 31 42 70 89 85 104 15 15 27 34 27 43 0 27 48 17 87 -18 28 -26 36 -41 35 -65 -1 -45 -36 -89 -80 -102 -52 -15 -165 -73 -170 -88 -6 -19 28 -14 108 17 87 34 140 75 165 127 23 49 15 108 -19 143 -22 22 -35 26 -81 25 -46 0 -59 -5 -85 -29 -16 -16 -30 -35 -30 -42 0 -7 -4 -13 -10 -13 -5 0 -10 -9 -10 -20 0 -11 -4 -20 -10 -20 -5 0 -10 -7 -10 -15 0 -17 -69 -89 -78 -81 -3 3 0 43 6 88 26 181 11 260 -54 291 -46 22 -53 22 -100 -9z" transform="translate(0,116) scale(0.1,-0.1)" stroke="none" fill="#B9CF64"/>

</g>

<g id="2" transform="translate(280.0,0)scale(1,1)">

<path d="M820 470 c0 -18 27 -64 49 -84 12 -11 21 -27 21 -36 0 -10 7 -23 16 -31 26 -21 44 -66 44 -109 0 -67 -65 -116 -125 -94 -22 9 -41 50 -49 106 -4 26 -12 50 -18 54 -11 7 -2 121 13 161 7 18 5 23 -7 23 -11 0 -13 -6 -9 -20 4 -11 2 -20 -4 -20 -17 0 -14 -223 3 -264 21 -49 74 -86 125 -86 35 0 47 6 72 32 56 62 51 146 -14 236 -23 32 -55 77 -72 100 -30 41 -45 52 -45 32z" transform="translate(0,116) scale(0.1,-0.1)" stroke="none" fill="#B9CF64"/>

<path d="M620 531 c0 -4 -22 -11 -49 -14 -73 -9 -211 -78 -238 -119 -76 -113 55 -243 183 -182 51 24 129 117 160 190 15 35 24 67 20 71 -10 10 -63 -58 -70 -89 -7 -35 -102 -131 -144 -146 -40 -14 -132 2 -132 22 0 7 -3 33 -6 58 l-6 45 59 40 c75 51 137 83 161 83 24 0 82 29 82 41 0 5 -4 9 -10 9 -5 0 -10 -4 -10 -9z" transform="translate(0,116) scale(0.1,-0.1)" stroke="none" fill="#B9CF64"/>

<path d="M705 664 c-16 -8 -43 -33 -58 -55 l-28 -41 33 -37 c53 -60 148 -79 192 -37 42 38 36 84 -19 140 -48 50 -71 55 -120 30z" transform="translate(0,116) scale(0.1,-0.1)" stroke="none" fill="#806379"/>

<path d="M1070 599 c-168 -18 -191 -22 -187 -33 4 -13 51 -13 188 -1 l95 8 52 -34 c65 -43 81 -69 61 -105 -17 -34 -46 -44 -119 -44 -62 0 -97 13 -205 75 -58 33 -105 44 -105 26 0 -5 55 -37 123 -71 118 -60 126 -62 201 -63 l79 -1 33 38 c27 31 34 48 34 80 0 47 -16 65 -89 101 -60 29 -83 33 -161 24z" transform="translate(0,116) scale(0.1,-0.1)" stroke="none" fill="#B9CF64"/>

<path d="M205 350 c-9 -10 -30 -22 -47 -25 -17 -4 -34 -17 -40 -31 -15 -32 5 -60 77 -109 51 -36 63 -40 117 -39 45 1 64 6 79 21 20 20 20 20 -20 56 -49 44 -61 66 -61 109 0 32 -1 33 -44 35 -32 1 -48 -3 -61 -17z" transform="translate(0,116) scale(0.1,-0.1)" stroke="none" fill="#806379"/>

<path d="M295 866 c-48 -24 -65 -42 -76 -80 -21 -75 22 -149 111 -189 36 -17 66 -21 145 -21 202 0 205 30 4 39 -143 8 -177 19 -207 74 -29 52 -28 82 7 118 58 61 135 49 230 -37 24 -22 52 -42 62 -45 10 -3 21 -14 24 -24 3 -10 18 -30 34 -45 25 -24 29 -25 35 -10 7 19 -85 116 -177 184 -48 36 -68 44 -110 47 -32 2 -64 -2 -82 -11z" transform="translate(0,116) scale(0.1,-0.1)" stroke="none" fill="#B9CF64"/>

<path d="M990 885 c0 -9 -12 -28 -27 -43 -29 -28 -143 -178 -143 -187 0 -3 7 -17 16 -31 14 -21 18 -22 28 -9 12 16 137 78 178 88 34 9 69 58 70 99 1 24 -7 39 -35 65 -39 35 -87 45 -87 18z" transform="translate(0,116) scale(0.1,-0.1)" stroke="none" fill="#B6AECD"/>

<path d="M645 1030 c-16 -17 -17 -33 -12 -121 5 -96 7 -103 33 -124 22 -18 27 -30 28 -72 l1 -50 34 12 c28 9 34 17 37 46 2 19 9 47 14 63 14 42 12 161 -4 199 -7 18 -21 40 -30 50 -24 23 -78 22 -101 -3z" transform="translate(0,116) scale(0.1,-0.1)" stroke="none" fill="#B6AECD"/>

<path d="M780 456 c-18 -23 -35 -155 -22 -176 6 -10 14 -35 17 -56 4 -22 11 -52 17 -67 21 -54 79 -63 127 -18 25 23 31 37 31 71 0 43 -18 88 -44 109 -9 8 -16 21 -16 30 0 10 -11 28 -24 40 -14 13 -30 36 -36 52 -14 32 -31 37 -50 15z" transform="translate(0,116) scale(0.1,-0.1)" stroke="none" fill="#B6AECD"/>

<path d="M995 558 c-33 -5 -75 -7 -92 -4 -30 4 -33 3 -33 -22 1 -23 10 -32 71 -62 38 -19 89 -45 112 -57 30 -16 60 -22 104 -23 76 0 104 10 122 44 19 35 4 62 -59 104 -55 35 -101 39 -225 20z" transform="translate(0,116) scale(0.1,-0.1)" stroke="none" fill="#B6AECD"/>

<path d="M170 734 c0 -9 -9 -18 -19 -21 -11 -3 -31 -29 -47 -61 -23 -47 -28 -72 -30 -140 -2 -99 8 -116 64 -106 37 7 149 86 159 112 4 8 1 23 -5 33 -18 28 -15 32 23 25 22 -4 35 -3 35 4 0 5 -4 10 -8 10 -5 0 -30 14 -56 31 -48 32 -76 72 -76 109 0 13 -7 20 -20 20 -12 0 -20 -7 -20 -16z" transform="translate(0,116) scale(0.1,-0.1)" stroke="none" fill="#806379"/>

<path d="M640 532 c0 -13 -56 -42 -82 -42 -24 0 -86 -32 -161 -83 l-59 -40 6 -45 c3 -25 6 -51 6 -58 0 -20 92 -36 132 -22 41 14 136 109 144 146 4 15 20 42 35 61 20 25 26 39 19 51 -12 23 -40 45 -40 32z" transform="translate(0,116) scale(0.1,-0.1)" stroke="none" fill="#B6AECD"/>

<path d="M327 840 c-36 -11 -77 -58 -77 -89 0 -36 40 -99 74 -115 19 -8 79 -17 150 -20 65 -4 130 -9 143 -12 43 -11 46 15 7 58 -19 21 -34 42 -34 47 0 5 -8 12 -19 16 -10 3 -38 23 -62 45 -46 42 -115 81 -140 79 -8 0 -27 -5 -42 -9z" transform="translate(0,116) scale(0.1,-0.1)" stroke="none" fill="#B6AECD"/>

<path d="M654 1074 c-53 -34 -74 -74 -74 -139 0 -44 9 -70 50 -151 28 -54 50 -105 50 -113 0 -11 3 -12 11 -4 20 20 2 99 -27 121 -24 17 -26 26 -31 120 -5 89 -4 105 12 122 23 25 77 26 101 3 45 -45 58 -160 29 -268 -13 -51 -13 -59 1 -81 9 -13 23 -24 30 -24 8 0 40 35 72 78 31 42 70 89 85 104 15 15 27 34 27 43 0 27 48 17 87 -18 28 -26 36 -41 35 -65 -1 -45 -36 -89 -80 -102 -52 -15 -165 -73 -170 -88 -6 -19 28 -14 108 17 87 34 140 75 165 127 23 49 15 108 -19 143 -22 22 -35 26 -81 25 -46 0 -59 -5 -85 -29 -16 -16 -30 -35 -30 -42 0 -7 -4 -13 -10 -13 -5 0 -10 -9 -10 -20 0 -11 -4 -20 -10 -20 -5 0 -10 -7 -10 -15 0 -17 -69 -89 -78 -81 -3 3 0 43 6 88 26 181 11 260 -54 291 -46 22 -53 22 -100 -9z" transform="translate(0,116) scale(0.1,-0.1)" stroke="none" fill="#B9CF64"/>

</g>

<g id="3" transform="translate(420.0,0)scale(1,1)">

<path d="M820 470 c0 -18 27 -64 49 -84 12 -11 21 -27 21 -36 0 -10 7 -23 16 -31 26 -21 44 -66 44 -109 0 -67 -65 -116 -125 -94 -22 9 -41 50 -49 106 -4 26 -12 50 -18 54 -11 7 -2 121 13 161 7 18 5 23 -7 23 -11 0 -13 -6 -9 -20 4 -11 2 -20 -4 -20 -17 0 -14 -223 3 -264 21 -49 74 -86 125 -86 35 0 47 6 72 32 56 62 51 146 -14 236 -23 32 -55 77 -72 100 -30 41 -45 52 -45 32z" transform="translate(0,116) scale(0.1,-0.1)" stroke="none" fill="#B9CF64"/>

<path d="M620 531 c0 -4 -22 -11 -49 -14 -73 -9 -211 -78 -238 -119 -76 -113 55 -243 183 -182 51 24 129 117 160 190 15 35 24 67 20 71 -10 10 -63 -58 -70 -89 -7 -35 -102 -131 -144 -146 -40 -14 -132 2 -132 22 0 7 -3 33 -6 58 l-6 45 59 40 c75 51 137 83 161 83 24 0 82 29 82 41 0 5 -4 9 -10 9 -5 0 -10 -4 -10 -9z" transform="translate(0,116) scale(0.1,-0.1)" stroke="none" fill="#B9CF64"/>

<path d="M705 664 c-16 -8 -43 -33 -58 -55 l-28 -41 33 -37 c53 -60 148 -79 192 -37 42 38 36 84 -19 140 -48 50 -71 55 -120 30z" transform="translate(0,116) scale(0.1,-0.1)" stroke="none" fill="#806379"/>

<path d="M1070 599 c-168 -18 -191 -22 -187 -33 4 -13 51 -13 188 -1 l95 8 52 -34 c65 -43 81 -69 61 -105 -17 -34 -46 -44 -119 -44 -62 0 -97 13 -205 75 -58 33 -105 44 -105 26 0 -5 55 -37 123 -71 118 -60 126 -62 201 -63 l79 -1 33 38 c27 31 34 48 34 80 0 47 -16 65 -89 101 -60 29 -83 33 -161 24z" transform="translate(0,116) scale(0.1,-0.1)" stroke="none" fill="#B9CF64"/>

<path d="M205 350 c-9 -10 -30 -22 -47 -25 -17 -4 -34 -17 -40 -31 -15 -32 5 -60 77 -109 51 -36 63 -40 117 -39 45 1 64 6 79 21 20 20 20 20 -20 56 -49 44 -61 66 -61 109 0 32 -1 33 -44 35 -32 1 -48 -3 -61 -17z" transform="translate(0,116) scale(0.1,-0.1)" stroke="none" fill="#806379"/>

<path d="M295 866 c-48 -24 -65 -42 -76 -80 -21 -75 22 -149 111 -189 36 -17 66 -21 145 -21 202 0 205 30 4 39 -143 8 -177 19 -207 74 -29 52 -28 82 7 118 58 61 135 49 230 -37 24 -22 52 -42 62 -45 10 -3 21 -14 24 -24 3 -10 18 -30 34 -45 25 -24 29 -25 35 -10 7 19 -85 116 -177 184 -48 36 -68 44 -110 47 -32 2 -64 -2 -82 -11z" transform="translate(0,116) scale(0.1,-0.1)" stroke="none" fill="#B9CF64"/>

<path d="M990 885 c0 -9 -12 -28 -27 -43 -29 -28 -143 -178 -143 -187 0 -3 7 -17 16 -31 14 -21 18 -22 28 -9 12 16 137 78 178 88 34 9 69 58 70 99 1 24 -7 39 -35 65 -39 35 -87 45 -87 18z" transform="translate(0,116) scale(0.1,-0.1)" stroke="none" fill="#B6AECD"/>

<path d="M645 1030 c-16 -17 -17 -33 -12 -121 5 -96 7 -103 33 -124 22 -18 27 -30 28 -72 l1 -50 34 12 c28 9 34 17 37 46 2 19 9 47 14 63 14 42 12 161 -4 199 -7 18 -21 40 -30 50 -24 23 -78 22 -101 -3z" transform="translate(0,116) scale(0.1,-0.1)" stroke="none" fill="#B6AECD"/>

<path d="M780 456 c-18 -23 -35 -155 -22 -176 6 -10 14 -35 17 -56 4 -22 11 -52 17 -67 21 -54 79 -63 127 -18 25 23 31 37 31 71 0 43 -18 88 -44 109 -9 8 -16 21 -16 30 0 10 -11 28 -24 40 -14 13 -30 36 -36 52 -14 32 -31 37 -50 15z" transform="translate(0,116) scale(0.1,-0.1)" stroke="none" fill="#B6AECD"/>

<path d="M995 558 c-33 -5 -75 -7 -92 -4 -30 4 -33 3 -33 -22 1 -23 10 -32 71 -62 38 -19 89 -45 112 -57 30 -16 60 -22 104 -23 76 0 104 10 122 44 19 35 4 62 -59 104 -55 35 -101 39 -225 20z" transform="translate(0,116) scale(0.1,-0.1)" stroke="none" fill="#B6AECD"/>

<path d="M170 734 c0 -9 -9 -18 -19 -21 -11 -3 -31 -29 -47 -61 -23 -47 -28 -72 -30 -140 -2 -99 8 -116 64 -106 37 7 149 86 159 112 4 8 1 23 -5 33 -18 28 -15 32 23 25 22 -4 35 -3 35 4 0 5 -4 10 -8 10 -5 0 -30 14 -56 31 -48 32 -76 72 -76 109 0 13 -7 20 -20 20 -12 0 -20 -7 -20 -16z" transform="translate(0,116) scale(0.1,-0.1)" stroke="none" fill="#806379"/>

<path d="M640 532 c0 -13 -56 -42 -82 -42 -24 0 -86 -32 -161 -83 l-59 -40 6 -45 c3 -25 6 -51 6 -58 0 -20 92 -36 132 -22 41 14 136 109 144 146 4 15 20 42 35 61 20 25 26 39 19 51 -12 23 -40 45 -40 32z" transform="translate(0,116) scale(0.1,-0.1)" stroke="none" fill="#B6AECD"/>

<path d="M327 840 c-36 -11 -77 -58 -77 -89 0 -36 40 -99 74 -115 19 -8 79 -17 150 -20 65 -4 130 -9 143 -12 43 -11 46 15 7 58 -19 21 -34 42 -34 47 0 5 -8 12 -19 16 -10 3 -38 23 -62 45 -46 42 -115 81 -140 79 -8 0 -27 -5 -42 -9z" transform="translate(0,116) scale(0.1,-0.1)" stroke="none" fill="#B6AECD"/>

<path d="M654 1074 c-53 -34 -74 -74 -74 -139 0 -44 9 -70 50 -151 28 -54 50 -105 50 -113 0 -11 3 -12 11 -4 20 20 2 99 -27 121 -24 17 -26 26 -31 120 -5 89 -4 105 12 122 23 25 77 26 101 3 45 -45 58 -160 29 -268 -13 -51 -13 -59 1 -81 9 -13 23 -24 30 -24 8 0 40 35 72 78 31 42 70 89 85 104 15 15 27 34 27 43 0 27 48 17 87 -18 28 -26 36 -41 35 -65 -1 -45 -36 -89 -80 -102 -52 -15 -165 -73 -170 -88 -6 -19 28 -14 108 17 87 34 140 75 165 127 23 49 15 108 -19 143 -22 22 -35 26 -81 25 -46 0 -59 -5 -85 -29 -16 -16 -30 -35 -30 -42 0 -7 -4 -13 -10 -13 -5 0 -10 -9 -10 -20 0 -11 -4 -20 -10 -20 -5 0 -10 -7 -10 -15 0 -17 -69 -89 -78 -81 -3 3 0 43 6 88 26 181 11 260 -54 291 -46 22 -53 22 -100 -9z" transform="translate(0,116) scale(0.1,-0.1)" stroke="none" fill="#B9CF64"/>

</g>

<g id="4" transform="translate(560.0,0)scale(1,1)">

<path d="M820 470 c0 -18 27 -64 49 -84 12 -11 21 -27 21 -36 0 -10 7 -23 16 -31 26 -21 44 -66 44 -109 0 -67 -65 -116 -125 -94 -22 9 -41 50 -49 106 -4 26 -12 50 -18 54 -11 7 -2 121 13 161 7 18 5 23 -7 23 -11 0 -13 -6 -9 -20 4 -11 2 -20 -4 -20 -17 0 -14 -223 3 -264 21 -49 74 -86 125 -86 35 0 47 6 72 32 56 62 51 146 -14 236 -23 32 -55 77 -72 100 -30 41 -45 52 -45 32z" transform="translate(0,116) scale(0.1,-0.1)" stroke="none" fill="#B9CF64"/>

<path d="M620 531 c0 -4 -22 -11 -49 -14 -73 -9 -211 -78 -238 -119 -76 -113 55 -243 183 -182 51 24 129 117 160 190 15 35 24 67 20 71 -10 10 -63 -58 -70 -89 -7 -35 -102 -131 -144 -146 -40 -14 -132 2 -132 22 0 7 -3 33 -6 58 l-6 45 59 40 c75 51 137 83 161 83 24 0 82 29 82 41 0 5 -4 9 -10 9 -5 0 -10 -4 -10 -9z" transform="translate(0,116) scale(0.1,-0.1)" stroke="none" fill="#B9CF64"/>

<path d="M705 664 c-16 -8 -43 -33 -58 -55 l-28 -41 33 -37 c53 -60 148 -79 192 -37 42 38 36 84 -19 140 -48 50 -71 55 -120 30z" transform="translate(0,116) scale(0.1,-0.1)" stroke="none" fill="#806379"/>

<path d="M1070 599 c-168 -18 -191 -22 -187 -33 4 -13 51 -13 188 -1 l95 8 52 -34 c65 -43 81 -69 61 -105 -17 -34 -46 -44 -119 -44 -62 0 -97 13 -205 75 -58 33 -105 44 -105 26 0 -5 55 -37 123 -71 118 -60 126 -62 201 -63 l79 -1 33 38 c27 31 34 48 34 80 0 47 -16 65 -89 101 -60 29 -83 33 -161 24z" transform="translate(0,116) scale(0.1,-0.1)" stroke="none" fill="#B9CF64"/>

<path d="M205 350 c-9 -10 -30 -22 -47 -25 -17 -4 -34 -17 -40 -31 -15 -32 5 -60 77 -109 51 -36 63 -40 117 -39 45 1 64 6 79 21 20 20 20 20 -20 56 -49 44 -61 66 -61 109 0 32 -1 33 -44 35 -32 1 -48 -3 -61 -17z" transform="translate(0,116) scale(0.1,-0.1)" stroke="none" fill="#806379"/>

<path d="M295 866 c-48 -24 -65 -42 -76 -80 -21 -75 22 -149 111 -189 36 -17 66 -21 145 -21 202 0 205 30 4 39 -143 8 -177 19 -207 74 -29 52 -28 82 7 118 58 61 135 49 230 -37 24 -22 52 -42 62 -45 10 -3 21 -14 24 -24 3 -10 18 -30 34 -45 25 -24 29 -25 35 -10 7 19 -85 116 -177 184 -48 36 -68 44 -110 47 -32 2 -64 -2 -82 -11z" transform="translate(0,116) scale(0.1,-0.1)" stroke="none" fill="#B9CF64"/>

<path d="M990 885 c0 -9 -12 -28 -27 -43 -29 -28 -143 -178 -143 -187 0 -3 7 -17 16 -31 14 -21 18 -22 28 -9 12 16 137 78 178 88 34 9 69 58 70 99 1 24 -7 39 -35 65 -39 35 -87 45 -87 18z" transform="translate(0,116) scale(0.1,-0.1)" stroke="none" fill="#B6AECD"/>

<path d="M645 1030 c-16 -17 -17 -33 -12 -121 5 -96 7 -103 33 -124 22 -18 27 -30 28 -72 l1 -50 34 12 c28 9 34 17 37 46 2 19 9 47 14 63 14 42 12 161 -4 199 -7 18 -21 40 -30 50 -24 23 -78 22 -101 -3z" transform="translate(0,116) scale(0.1,-0.1)" stroke="none" fill="#B6AECD"/>

<path d="M780 456 c-18 -23 -35 -155 -22 -176 6 -10 14 -35 17 -56 4 -22 11 -52 17 -67 21 -54 79 -63 127 -18 25 23 31 37 31 71 0 43 -18 88 -44 109 -9 8 -16 21 -16 30 0 10 -11 28 -24 40 -14 13 -30 36 -36 52 -14 32 -31 37 -50 15z" transform="translate(0,116) scale(0.1,-0.1)" stroke="none" fill="#B6AECD"/>

<path d="M995 558 c-33 -5 -75 -7 -92 -4 -30 4 -33 3 -33 -22 1 -23 10 -32 71 -62 38 -19 89 -45 112 -57 30 -16 60 -22 104 -23 76 0 104 10 122 44 19 35 4 62 -59 104 -55 35 -101 39 -225 20z" transform="translate(0,116) scale(0.1,-0.1)" stroke="none" fill="#B6AECD"/>

<path d="M170 734 c0 -9 -9 -18 -19 -21 -11 -3 -31 -29 -47 -61 -23 -47 -28 -72 -30 -140 -2 -99 8 -116 64 -106 37 7 149 86 159 112 4 8 1 23 -5 33 -18 28 -15 32 23 25 22 -4 35 -3 35 4 0 5 -4 10 -8 10 -5 0 -30 14 -56 31 -48 32 -76 72 -76 109 0 13 -7 20 -20 20 -12 0 -20 -7 -20 -16z" transform="translate(0,116) scale(0.1,-0.1)" stroke="none" fill="#806379"/>

<path d="M640 532 c0 -13 -56 -42 -82 -42 -24 0 -86 -32 -161 -83 l-59 -40 6 -45 c3 -25 6 -51 6 -58 0 -20 92 -36 132 -22 41 14 136 109 144 146 4 15 20 42 35 61 20 25 26 39 19 51 -12 23 -40 45 -40 32z" transform="translate(0,116) scale(0.1,-0.1)" stroke="none" fill="#B6AECD"/>

<path d="M327 840 c-36 -11 -77 -58 -77 -89 0 -36 40 -99 74 -115 19 -8 79 -17 150 -20 65 -4 130 -9 143 -12 43 -11 46 15 7 58 -19 21 -34 42 -34 47 0 5 -8 12 -19 16 -10 3 -38 23 -62 45 -46 42 -115 81 -140 79 -8 0 -27 -5 -42 -9z" transform="translate(0,116) scale(0.1,-0.1)" stroke="none" fill="#B6AECD"/>

<path d="M654 1074 c-53 -34 -74 -74 -74 -139 0 -44 9 -70 50 -151 28 -54 50 -105 50 -113 0 -11 3 -12 11 -4 20 20 2 99 -27 121 -24 17 -26 26 -31 120 -5 89 -4 105 12 122 23 25 77 26 101 3 45 -45 58 -160 29 -268 -13 -51 -13 -59 1 -81 9 -13 23 -24 30 -24 8 0 40 35 72 78 31 42 70 89 85 104 15 15 27 34 27 43 0 27 48 17 87 -18 28 -26 36 -41 35 -65 -1 -45 -36 -89 -80 -102 -52 -15 -165 -73 -170 -88 -6 -19 28 -14 108 17 87 34 140 75 165 127 23 49 15 108 -19 143 -22 22 -35 26 -81 25 -46 0 -59 -5 -85 -29 -16 -16 -30 -35 -30 -42 0 -7 -4 -13 -10 -13 -5 0 -10 -9 -10 -20 0 -11 -4 -20 -10 -20 -5 0 -10 -7 -10 -15 0 -17 -69 -89 -78 -81 -3 3 0 43 6 88 26 181 11 260 -54 291 -46 22 -53 22 -100 -9z" transform="translate(0,116) scale(0.1,-0.1)" stroke="none" fill="#B9CF64"/>

</g>

</g>
</svg>