<?xml version="1.0" standalone="no"?>
<!DOCTYPE svg PUBLIC "-//W3C//DTD SVG 20010904//EN"
 "http://www.w3.org/TR/2001/REC-SVG-20010904/DTD/svg10.dtd">
<svg version="1.0" xmlns="http://www.w3.org/2000/svg" width="272pt" height="216pt" viewBox="0 0 272 216" preserveAspectRatio = "xMidYMid meet" >
<metadata>
Created by ZoeQu, written in 2022
</metadata>
<rect width="272" height="216" fill="#3D2C1E"/>
<g id="row0" transform="translate(9,0.0)">
<g id="0" transform="translate(0.0,0)scale(1,1)">

<path d="M610 525 c0 -16 30 -35 54 -35 20 0 21 17 2 36 -19 18 -56 18 -56 -1z" transform="translate(0,54) scale(0.1,-0.1)" stroke="none" fill="#885837"/>

<path d="M529 475 c-51 -26 -99 -94 -99 -139 0 -49 88 -75 137 -41 39 27 68 113 64 188 -1 25 -46 21 -102 -8z" transform="translate(0,54) scale(0.1,-0.1)" stroke="none" fill="#E0945A"/>

<path d="M245 433 c-66 -16 -61 -55 13 -115 28 -23 28 -36 -3 -50 -22 -10 -28 -7 -63 29 -50 51 -119 66 -161 35 -36 -27 -36 -41 2 -84 25 -29 37 -36 55 -32 13 4 22 14 22 25 0 30 44 24 79 -10 29 -28 165 -121 177 -121 4 0 23 -17 44 -39 41 -42 96 -59 130 -41 37 20 22 47 -80 149 -55 55 -100 102 -100 106 0 12 28 4 34 -10 3 -8 12 -15 21 -15 15 0 64 -27 75 -41 3 -3 15 -11 28 -18 28 -15 52 0 52 32 0 26 -28 46 -65 47 -38 0 -75 25 -75 51 0 10 -4 19 -8 19 -4 0 -39 20 -77 45 -39 25 -72 44 -75 44 -3 -1 -14 -4 -25 -6z" transform="translate(0,54) scale(0.1,-0.1)" stroke="none" fill="#885837"/>

</g>

<g id="1" transform="translate(68.0,0)scale(1,1)">

<path d="M610 525 c0 -16 30 -35 54 -35 20 0 21 17 2 36 -19 18 -56 18 -56 -1z" transform="translate(0,54) scale(0.1,-0.1)" stroke="none" fill="#885837"/>

<path d="M529 475 c-51 -26 -99 -94 -99 -139 0 -49 88 -75 137 -41 39 27 68 113 64 188 -1 25 -46 21 -102 -8z" transform="translate(0,54) scale(0.1,-0.1)" stroke="none" fill="#E0945A"/>

<path d="M245 433 c-66 -16 -61 -55 13 -115 28 -23 28 -36 -3 -50 -22 -10 -28 -7 -63 29 -50 51 -119 66 -161 35 -36 -27 -36 -41 2 -84 25 -29 37 -36 55 -32 13 4 22 14 22 25 0 30 44 24 79 -10 29 -28 165 -121 177 -121 4 0 23 -17 44 -39 41 -42 96 -59 130 -41 37 20 22 47 -80 149 -55 55 -100 102 -100 106 0 12 28 4 34 -10 3 -8 12 -15 21 -15 15 0 64 -27 75 -41 3 -3 15 -11 28 -18 28 -15 52 0 52 32 0 26 -28 46 -65 47 -38 0 -75 25 -75 51 0 10 -4 19 -8 19 -4 0 -39 20 -77 45 -39 25 -72 44 -75 44 -3 -1 -14 -4 -25 -6z" transform="translate(0,54) scale(0.1,-0.1)" stroke="none" fill="#885837"/>

</g>

<g id="2" transform="translate(136.0,0)scale(1,1)">

<path d="M610 525 c0 -16 30 -35 54 -35 20 0 21 17 2 36 -19 18 -56 18 -56 -1z" transform="translate(0,54) scale(0.1,-0.1)" stroke="none" fill="#885837"/>

<path d="M529 475 c-51 -26 -99 -94 -99 -139 0 -49 88 -75 137 -41 39 27 68 113 64 188 -1 25 -46 21 -102 -8z" transform="translate(0,54) scale(0.1,-0.1)" stroke="none" fill="#E0945A"/>

<path d="M245 433 c-66 -16 -61 -55 13 -115 28 -23 28 -36 -3 -50 -22 -10 -28 -7 -63 29 -50 51 -119 66 -161 35 -36 -27 -36 -41 2 -84 25 -29 37 -36 55 -32 13 4 22 14 22 25 0 30 44 24 79 -10 29 -28 165 -121 177 -121 4 0 23 -17 44 -39 41 -42 96 -59 130 -41 37 20 22 47 -80 149 -55 55 -100 102 -100 106 0 12 28 4 34 -10 3 -8 12 -15 21 -15 15 0 64 -27 75 -41 3 -3 15 -11 28 -18 28 -15 52 0 52 32 0 26 -28 46 -65 47 -38 0 -75 25 -75 51 0 10 -4 19 -8 19 -4 0 -39 20 -77 45 -39 25 -72 44 -75 44 -3 -1 -14 -4 -25 -6z" transform="translate(0,54) scale(0.1,-0.1)" stroke="none" fill="#885837"/>

</g>

<g id="3" transform="translate(204.0,0)scale(1,1)">

<path d="M610 525 c0 -16 30 -35 54 -35 20 0 21 17 2 36 -19 18 -56 18 -56 -1z" transform="translate(0,54) scale(0.1,-0.1)" stroke="none" fill="#885837"/>

<path d="M529 475 c-51 -26 -99 -94 -99 -139 0 -49 88 -75 137 -41 39 27 68 113 64 188 -1 25 -46 21 -102 -8z" transform="translate(0,54) scale(0.1,-0.1)" stroke="none" fill="#E0945A"/>

<path d="M245 433 c-66 -16 -61 -55 13 -115 28 -23 28 -36 -3 -50 -22 -10 -28 -7 -63 29 -50 51 -119 66 -161 35 -36 -27 -36 -41 2 -84 25 -29 37 -36 55 -32 13 4 22 14 22 25 0 30 44 24 79 -10 29 -28 165 -121 177 -121 4 0 23 -17 44 -39 41 -42 96 -59 130 -41 37 20 22 47 -80 149 -55 55 -100 102 -100 106 0 12 28 4 34 -10 3 -8 12 -15 21 -15 15 0 64 -27 75 -41 3 -3 15 -11 28 -18 28 -15 52 0 52 32 0 26 -28 46 -65 47 -38 0 -75 25 -75 51 0 10 -4 19 -8 19 -4 0 -39 20 -77 45 -39 25 -72 44 -75 44 -3 -1 -14 -4 -25 -6z" transform="translate(0,54) scale(0.1,-0.1)" stroke="none" fill="#885837"/>

</g>

<g id="4" transform="translate(272.0,0)scale(1,1)">

<path d="M610 525 c0 -16 30 -35 54 -35 20 0 21 17 2 36 -19 18 -56 18 -56 -1z" transform="translate(0,54) scale(0.1,-0.1)" stroke="none" fill="#885837"/>

<path d="M529 475 c-51 -26 -99 -94 -99 -139 0 -49 88 -75 137 -41 39 27 68 113 64 188 -1 25 -46 21 -102 -8z" transform="translate(0,54) scale(0.1,-0.1)" stroke="none" fill="#E0945A"/>

<path d="M245 433 c-66 -16 -61 -55 13 -115 28 -23 28 -36 -3 -50 -22 -10 -28 -7 -63 29 -50 51 -119 66 -161 35 -36 -27 -36 -41 2 -84 25 -29 37 -36 55 -32 13 4 22 14 22 25 0 30 44 24 79 -10 29 -28 165 -121 177 -121 4 0 23 -17 44 -39 41 -42 96 -59 130 -41 37 20 22 47 -80 149 -55 55 -100 102 -100 106 0 12 28 4 34 -10 3 -8 12 -15 21 -15 15 0 64 -27 75 -41 3 -3 15 -11 28 -18 28 -15 52 0 52 32 0 26 -28 46 -65 47 -38 0 -75 25 -75 51 0 10 -4 19 -8 19 -4 0 -39 20 -77 45 -39 25 -72 44 -75 44 -3 -1 -14 -4 -25 -6z" transform="translate(0,54) scale(0.1,-0.1)" stroke="none" fill="#885837"/>

</g>

</g>
<g id="row1" transform="translate(-25,54.0)">
<g id="0" transform="translate(0.0,0)scale(1,1)">

<path d="M610 525 c0 -16 30 -35 54 -35 20 0 21 17 2 36 -19 18 -56 18 -56 -1z" transform="translate(0,54) scale(0.1,-0.1)" stroke="none" fill="#885837"/>

<path d="M529 475 c-51 -26 -99 -94 -99 -139 0 -49 88 -75 137 -41 39 27 68 113 64 188 -1 25 -46 21 -102 -8z" transform="translate(0,54) scale(0.1,-0.1)" stroke="none" fill="#E0945A"/>

<path d="M245 433 c-66 -16 -61 -55 13 -115 28 -23 28 -36 -3 -50 -22 -10 -28 -7 -63 29 -50 51 -119 66 -161 35 -36 -27 -36 -41 2 -84 25 -29 37 -36 55 -32 13 4 22 14 22 25 0 30 44 24 79 -10 29 -28 165 -121 177 -121 4 0 23 -17 44 -39 41 -42 96 -59 130 -41 37 20 22 47 -80 149 -55 55 -100 102 -100 106 0 12 28 4 34 -10 3 -8 12 -15 21 -15 15 0 64 -27 75 -41 3 -3 15 -11 28 -18 28 -15 52 0 52 32 0 26 -28 46 -65 47 -38 0 -75 25 -75 51 0 10 -4 19 -8 19 -4 0 -39 20 -77 45 -39 25 -72 44 -75 44 -3 -1 -14 -4 -25 -6z" transform="translate(0,54) scale(0.1,-0.1)" stroke="none" fill="#885837"/>

</g>

<g id="1" transform="translate(68.0,0)scale(1,1)">

<path d="M610 525 c0 -16 30 -35 54 -35 20 0 21 17 2 36 -19 18 -56 18 -56 -1z" transform="translate(0,54) scale(0.1,-0.1)" stroke="none" fill="#885837"/>

<path d="M529 475 c-51 -26 -99 -94 -99 -139 0 -49 88 -75 137 -41 39 27 68 113 64 188 -1 25 -46 21 -102 -8z" transform="translate(0,54) scale(0.1,-0.1)" stroke="none" fill="#E0945A"/>

<path d="M245 433 c-66 -16 -61 -55 13 -115 28 -23 28 -36 -3 -50 -22 -10 -28 -7 -63 29 -50 51 -119 66 -161 35 -36 -27 -36 -41 2 -84 25 -29 37 -36 55 -32 13 4 22 14 22 25 0 30 44 24 79 -10 29 -28 165 -121 177 -121 4 0 23 -17 44 -39 41 -42 96 -59 130 -41 37 20 22 47 -80 149 -55 55 -100 102 -100 106 0 12 28 4 34 -10 3 -8 12 -15 21 -15 15 0 64 -27 75 -41 3 -3 15 -11 28 -18 28 -15 52 0 52 32 0 26 -28 46 -65 47 -38 0 -75 25 -75 51 0 10 -4 19 -8 19 -4 0 -39 20 -77 45 -39 25 -72 44 -75 44 -3 -1 -14 -4 -25 -6z" transform="translate(0,54) scale(0.1,-0.1)" stroke="none" fill="#885837"/>

</g>

<g id="2" transform="translate(136.0,0)scale(1,1)">

<path d="M610 525 c0 -16 30 -35 54 -35 20 0 21 17 2 36 -19 18 -56 18 -56 -1z" transform="translate(0,54) scale(0.1,-0.1)" stroke="none" fill="#885837"/>

<path d="M529 475 c-51 -26 -99 -94 -99 -139 0 -49 88 -75 137 -41 39 27 68 113 64 188 -1 25 -46 21 -102 -8z" transform="translate(0,54) scale(0.1,-0.1)" stroke="none" fill="#E0945A"/>

<path d="M245 433 c-66 -16 -61 -55 13 -115 28 -23 28 -36 -3 -50 -22 -10 -28 -7 -63 29 -50 51 -119 66 -161 35 -36 -27 -36 -41 2 -84 25 -29 37 -36 55 -32 13 4 22 14 22 25 0 30 44 24 79 -10 29 -28 165 -121 177 -121 4 0 23 -17 44 -39 41 -42 96 -59 130 -41 37 20 22 47 -80 149 -55 55 -100 102 -100 106 0 12 28 4 34 -10 3 -8 12 -15 21 -15 15 0 64 -27 75 -41 3 -3 15 -11 28 -18 28 -15 52 0 52 32 0 26 -28 46 -65 47 -38 0 -75 25 -75 51 0 10 -4 19 -8 19 -4 0 -39 20 -77 45 -39 25 -72 44 -75 44 -3 -1 -14 -4 -25 -6z" transform="translate(0,54) scale(0.1,-0.1)" stroke="none" fill="#885837"/>

</g>

<g id="3" transform="translate(204.0,0)scale(1,1)">

<path d="M610 525 c0 -16 30 -35 54 -35 20 0 21 17 2 36 -19 18 -56 18 -56 -1z" transform="translate(0,54) scale(0.1,-0.1)" stroke="none" fill="#885837"/>

<path d="M529 475 c-51 -26 -99 -94 -99 -139 0 -49 88 -75 137 -41 39 27 68 113 64 188 -1 25 -46 21 -102 -8z" transform="translate(0,54) scale(0.1,-0.1)" stroke="none" fill="#E0945A"/>

<path d="M245 433 c-66 -16 -61 -55 13 -115 28 -23 28 -36 -3 -50 -22 -10 -28 -7 -63 29 -50 51 -119 66 -161 35 -36 -27 -36 -41 2 -84 25 -29 37 -36 55 -32 13 4 22 14 22 25 0 30 44 24 79 -10 29 -28 165 -121 177 -121 4 0 23 -17 44 -39 41 -42 96 -59 130 -41 37 20 22 47 -80 149 -55 55 -100 102 -100 106 0 12 28 4 34 -10 3 -8 12 -15 21 -15 15 0 64 -27 75 -41 3 -3 15 -11 28 -18 28 -15 52 0 52 32 0 26 -28 46 -65 47 -38 0 -75 25 -75 51 0 10 -4 19 -8 19 -4 0 -39 20 -77 45 -39 25 -72 44 -75 44 -3 -1 -14 -4 -25 -6z" transform="translate(0,54) scale(0.1,-0.1)" stroke="none" fill="#885837"/>

</g>

<g id="4" transform="translate(272.0,0)scale(1,1)">

<path d="M610 525 c0 -16 30 -35 54 -35 20 0 21 17 2 36 -19 18 -56 18 -56 -1z" transform="translate(0,54) scale(0.1,-0.1)" stroke="none" fill="#885837"/>

<path d="M529 475 c-51 -26 -99 -94 -99 -139 0 -49 88 -75 137 -41 39 27 68 113 64 188 -1 25 -46 21 -102 -8z" transform="translate(0,54) scale(0.1,-0.1)" stroke="none" fill="#E0945A"/>

<path d="M245 433 c-66 -16 -61 -55 13 -115 28 -23 28 -36 -3 -50 -22 -10 -28 -7 -63 29 -50 51 -119 66 -161 35 -36 -27 -36 -41 2 -84 25 -29 37 -36 55 -32 13 4 22 14 22 25 0 30 44 24 79 -10 29 -28 165 -121 177 -121 4 0 23 -17 44 -39 41 -42 96 -59 130 -41 37 20 22 47 -80 149 -55 55 -100 102 -100 106 0 12 28 4 34 -10 3 -8 12 -15 21 -15 15 0 64 -27 75 -41 3 -3 15 -11 28 -18 28 -15 52 0 52 32 0 26 -28 46 -65 47 -38 0 -75 25 -75 51 0 10 -4 19 -8 19 -4 0 -39 20 -77 45 -39 25 -72 44 -75 44 -3 -1 -14 -4 -25 -6z" transform="translate(0,54) scale(0.1,-0.1)" stroke="none" fill="#885837"/>

</g>

</g>
<g id="row2" transform="translate(9,108.0)">
<g id="0" transform="translate(0.0,0)scale(1,1)">

<path d="M610 525 c0 -16 30 -35 54 -35 20 0 21 17 2 36 -19 18 -56 18 -56 -1z" transform="translate(0,54) scale(0.1,-0.1)" stroke="none" fill="#885837"/>

<path d="M529 475 c-51 -26 -99 -94 -99 -139 0 -49 88 -75 137 -41 39 27 68 113 64 188 -1 25 -46 21 -102 -8z" transform="translate(0,54) scale(0.1,-0.1)" stroke="none" fill="#E0945A"/>

<path d="M245 433 c-66 -16 -61 -55 13 -115 28 -23 28 -36 -3 -50 -22 -10 -28 -7 -63 29 -50 51 -119 66 -161 35 -36 -27 -36 -41 2 -84 25 -29 37 -36 55 -32 13 4 22 14 22 25 0 30 44 24 79 -10 29 -28 165 -121 177 -121 4 0 23 -17 44 -39 41 -42 96 -59 130 -41 37 20 22 47 -80 149 -55 55 -100 102 -100 106 0 12 28 4 34 -10 3 -8 12 -15 21 -15 15 0 64 -27 75 -41 3 -3 15 -11 28 -18 28 -15 52 0 52 32 0 26 -28 46 -65 47 -38 0 -75 25 -75 51 0 10 -4 19 -8 19 -4 0 -39 20 -77 45 -39 25 -72 44 -75 44 -3 -1 -14 -4 -25 -6z" transform="translate(0,54) scale(0.1,-0.1)" stroke="none" fill="#885837"/>

</g>

<g id="1" transform="translate(68.0,0)scale(1,1)">

<path d="M610 525 c0 -16 30 -35 54 -35 20 0 21 17 2 36 -19 18 -56 18 -56 -1z" transform="translate(0,54) scale(0.1,-0.1)" stroke="none" fill="#885837"/>

<path d="M529 475 c-51 -26 -99 -94 -99 -139 0 -49 88 -75 137 -41 39 27 68 113 64 188 -1 25 -46 21 -102 -8z" transform="translate(0,54) scale(0.1,-0.1)" stroke="none" fill="#E0945A"/>

<path d="M245 433 c-66 -16 -61 -55 13 -115 28 -23 28 -36 -3 -50 -22 -10 -28 -7 -63 29 -50 51 -119 66 -161 35 -36 -27 -36 -41 2 -84 25 -29 37 -36 55 -32 13 4 22 14 22 25 0 30 44 24 79 -10 29 -28 165 -121 177 -121 4 0 23 -17 44 -39 41 -42 96 -59 130 -41 37 20 22 47 -80 149 -55 55 -100 102 -100 106 0 12 28 4 34 -10 3 -8 12 -15 21 -15 15 0 64 -27 75 -41 3 -3 15 -11 28 -18 28 -15 52 0 52 32 0 26 -28 46 -65 47 -38 0 -75 25 -75 51 0 10 -4 19 -8 19 -4 0 -39 20 -77 45 -39 25 -72 44 -75 44 -3 -1 -14 -4 -25 -6z" transform="translate(0,54) scale(0.1,-0.1)" stroke="none" fill="#885837"/>

</g>

<g id="2" transform="translate(136.0,0)scale(1,1)">

<path d="M610 525 c0 -16 30 -35 54 -35 20 0 21 17 2 36 -19 18 -56 18 -56 -1z" transform="translate(0,54) scale(0.1,-0.1)" stroke="none" fill="#885837"/>

<path d="M529 475 c-51 -26 -99 -94 -99 -139 0 -49 88 -75 137 -41 39 27 68 113 64 188 -1 25 -46 21 -102 -8z" transform="translate(0,54) scale(0.1,-0.1)" stroke="none" fill="#E0945A"/>

<path d="M245 433 c-66 -16 -61 -55 13 -115 28 -23 28 -36 -3 -50 -22 -10 -28 -7 -63 29 -50 51 -119 66 -161 35 -36 -27 -36 -41 2 -84 25 -29 37 -36 55 -32 13 4 22 14 22 25 0 30 44 24 79 -10 29 -28 165 -121 177 -121 4 0 23 -17 44 -39 41 -42 96 -59 130 -41 37 20 22 47 -80 149 -55 55 -100 102 -100 106 0 12 28 4 34 -10 3 -8 12 -15 21 -15 15 0 64 -27 75 -41 3 -3 15 -11 28 -18 28 -15 52 0 52 32 0 26 -28 46 -65 47 -38 0 -75 25 -75 51 0 10 -4 19 -8 19 -4 0 -39 20 -77 45 -39 25 -72 44 -75 44 -3 -1 -14 -4 -25 -6z" transform="translate(0,54) scale(0.1,-0.1)" stroke="none" fill="#885837"/>

</g>

<g id="3" transform="translate(204.0,0)scale(1,1)">

<path d="M610 525 c0 -16 30 -35 54 -35 20 0 21 17 2 36 -19 18 -56 18 -56 -1z" transform="translate(0,54) scale(0.1,-0.1)" stroke="none" fill="#885837"/>

<path d="M529 475 c-51 -26 -99 -94 -99 -139 0 -49 88 -75 137 -41 39 27 68 113 64 188 -1 25 -46 21 -102 -8z" transform="translate(0,54) scale(0.1,-0.1)" stroke="none" fill="#E0945A"/>

<path d="M245 433 c-66 -16 -61 -55 13 -115 28 -23 28 -36 -3 -50 -22 -10 -28 -7 -63 29 -50 51 -119 66 -161 35 -36 -27 -36 -41 2 -84 25 -29 37 -36 55 -32 13 4 22 14 22 25 0 30 44 24 79 -10 29 -28 165 -121 177 -121 4 0 23 -17 44 -39 41 -42 96 -59 130 -41 37 20 22 47 -80 149 -55 55 -100 102 -100 106 0 12 28 4 34 -10 3 -8 12 -15 21 -15 15 0 64 -27 75 -41 3 -3 15 -11 28 -18 28 -15 52 0 52 32 0 26 -28 46 -65 47 -38 0 -75 25 -75 51 0 10 -4 19 -8 19 -4 0 -39 20 -77 45 -39 25 -72 44 -75 44 -3 -1 -14 -4 -25 -6z" transform="translate(0,54) scale(0.1,-0.1)" stroke="none" fill="#885837"/>

</g>

<g id="4" transform="translate(272.0,0)scale(1,1)">

<path d="M610 525 c0 -16 30 -35 54 -35 20 0 21 17 2 36 -19 18 -56 18 -56 -1z" transform="translate(0,54) scale(0.1,-0.1)" stroke="none" fill="#885837"/>

<path d="M529 475 c-51 -26 -99 -94 -99 -139 0 -49 88 -75 137 -41 39 27 68 113 64 188 -1 25 -46 21 -102 -8z" transform="translate(0,54) scale(0.1,-0.1)" stroke="none" fill="#E0945A"/>

<path d="M245 433 c-66 -16 -61 -55 13 -115 28 -23 28 -36 -3 -50 -22 -10 -28 -7 -63 29 -50 51 -119 66 -161 35 -36 -27 -36 -41 2 -84 25 -29 37 -36 55 -32 13 4 22 14 22 25 0 30 44 24 79 -10 29 -28 165 -121 177 -121 4 0 23 -17 44 -39 41 -42 96 -59 130 -41 37 20 22 47 -80 149 -55 55 -100 102 -100 106 0 12 28 4 34 -10 3 -8 12 -15 21 -15 15 0 64 -27 75 -41 3 -3 15 -11 28 -18 28 -15 52 0 52 32 0 26 -28 46 -65 47 -38 0 -75 25 -75 51 0 10 -4 19 -8 19 -4 0 -39 20 -77 45 -39 25 -72 44 -75 44 -3 -1 -14 -4 -25 -6z" transform="translate(0,54) scale(0.1,-0.1)" stroke="none" fill="#885837"/>

</g>

</g>
<g id="row3" transform="translate(-25,162.0)">
<g id="0" transform="translate(0.0,0)scale(1,1)">

<path d="M610 525 c0 -16 30 -35 54 -35 20 0 21 17 2 36 -19 18 -56 18 -56 -1z" transform="translate(0,54) scale(0.1,-0.1)" stroke="none" fill="#885837"/>

<path d="M529 475 c-51 -26 -99 -94 -99 -139 0 -49 88 -75 137 -41 39 27 68 113 64 188 -1 25 -46 21 -102 -8z" transform="translate(0,54) scale(0.1,-0.1)" stroke="none" fill="#E0945A"/>

<path d="M245 433 c-66 -16 -61 -55 13 -115 28 -23 28 -36 -3 -50 -22 -10 -28 -7 -63 29 -50 51 -119 66 -161 35 -36 -27 -36 -41 2 -84 25 -29 37 -36 55 -32 13 4 22 14 22 25 0 30 44 24 79 -10 29 -28 165 -121 177 -121 4 0 23 -17 44 -39 41 -42 96 -59 130 -41 37 20 22 47 -80 149 -55 55 -100 102 -100 106 0 12 28 4 34 -10 3 -8 12 -15 21 -15 15 0 64 -27 75 -41 3 -3 15 -11 28 -18 28 -15 52 0 52 32 0 26 -28 46 -65 47 -38 0 -75 25 -75 51 0 10 -4 19 -8 19 -4 0 -39 20 -77 45 -39 25 -72 44 -75 44 -3 -1 -14 -4 -25 -6z" transform="translate(0,54) scale(0.1,-0.1)" stroke="none" fill="#885837"/>

</g>

<g id="1" transform="translate(68.0,0)scale(1,1)">

<path d="M610 525 c0 -16 30 -35 54 -35 20 0 21 17 2 36 -19 18 -56 18 -56 -1z" transform="translate(0,54) scale(0.1,-0.1)" stroke="none" fill="#885837"/>

<path d="M529 475 c-51 -26 -99 -94 -99 -139 0 -49 88 -75 137 -41 39 27 68 113 64 188 -1 25 -46 21 -102 -8z" transform="translate(0,54) scale(0.1,-0.1)" stroke="none" fill="#E0945A"/>

<path d="M245 433 c-66 -16 -61 -55 13 -115 28 -23 28 -36 -3 -50 -22 -10 -28 -7 -63 29 -50 51 -119 66 -161 35 -36 -27 -36 -41 2 -84 25 -29 37 -36 55 -32 13 4 22 14 22 25 0 30 44 24 79 -10 29 -28 165 -121 177 -121 4 0 23 -17 44 -39 41 -42 96 -59 130 -41 37 20 22 47 -80 149 -55 55 -100 102 -100 106 0 12 28 4 34 -10 3 -8 12 -15 21 -15 15 0 64 -27 75 -41 3 -3 15 -11 28 -18 28 -15 52 0 52 32 0 26 -28 46 -65 47 -38 0 -75 25 -75 51 0 10 -4 19 -8 19 -4 0 -39 20 -77 45 -39 25 -72 44 -75 44 -3 -1 -14 -4 -25 -6z" transform="translate(0,54) scale(0.1,-0.1)" stroke="none" fill="#885837"/>

</g>

<g id="2" transform="translate(136.0,0)scale(1,1)">

<path d="M610 525 c0 -16 30 -35 54 -35 20 0 21 17 2 36 -19 18 -56 18 -56 -1z" transform="translate(0,54) scale(0.1,-0.1)" stroke="none" fill="#885837"/>

<path d="M529 475 c-51 -26 -99 -94 -99 -139 0 -49 88 -75 137 -41 39 27 68 113 64 188 -1 25 -46 21 -102 -8z" transform="translate(0,54) scale(0.1,-0.1)" stroke="none" fill="#E0945A"/>

<path d="M245 433 c-66 -16 -61 -55 13 -115 28 -23 28 -36 -3 -50 -22 -10 -28 -7 -63 29 -50 51 -119 66 -161 35 -36 -27 -36 -41 2 -84 25 -29 37 -36 55 -32 13 4 22 14 22 25 0 30 44 24 79 -10 29 -28 165 -121 177 -121 4 0 23 -17 44 -39 41 -42 96 -59 130 -41 37 20 22 47 -80 149 -55 55 -100 102 -100 106 0 12 28 4 34 -10 3 -8 12 -15 21 -15 15 0 64 -27 75 -41 3 -3 15 -11 28 -18 28 -15 52 0 52 32 0 26 -28 46 -65 47 -38 0 -75 25 -75 51 0 10 -4 19 -8 19 -4 0 -39 20 -77 45 -39 25 -72 44 -75 44 -3 -1 -14 -4 -25 -6z" transform="translate(0,54) scale(0.1,-0.1)" stroke="none" fill="#885837"/>

</g>

<g id="3" transform="translate(204.0,0)scale(1,1)">

<path d="M610 525 c0 -16 30 -35 54 -35 20 0 21 17 2 36 -19 18 -56 18 -56 -1z" transform="translate(0,54) scale(0.1,-0.1)" stroke="none" fill="#885837"/>

<path d="M529 475 c-51 -26 -99 -94 -99 -139 0 -49 88 -75 137 -41 39 27 68 113 64 188 -1 25 -46 21 -102 -8z" transform="translate(0,54) scale(0.1,-0.1)" stroke="none" fill="#E0945A"/>

<path d="M245 433 c-66 -16 -61 -55 13 -115 28 -23 28 -36 -3 -50 -22 -10 -28 -7 -63 29 -50 51 -119 66 -161 35 -36 -27 -36 -41 2 -84 25 -29 37 -36 55 -32 13 4 22 14 22 25 0 30 44 24 79 -10 29 -28 165 -121 177 -121 4 0 23 -17 44 -39 41 -42 96 -59 130 -41 37 20 22 47 -80 149 -55 55 -100 102 -100 106 0 12 28 4 34 -10 3 -8 12 -15 21 -15 15 0 64 -27 75 -41 3 -3 15 -11 28 -18 28 -15 52 0 52 32 0 26 -28 46 -65 47 -38 0 -75 25 -75 51 0 10 -4 19 -8 19 -4 0 -39 20 -77 45 -39 25 -72 44 -75 44 -3 -1 -14 -4 -25 -6z" transform="translate(0,54) scale(0.1,-0.1)" stroke="none" fill="#885837"/>

</g>

<g id="4" transform="translate(272.0,0)scale(1,1)">

<path d="M610 525 c0 -16 30 -35 54 -35 20 0 21 17 2 36 -19 18 -56 18 -56 -1z" transform="translate(0,54) scale(0.1,-0.1)" stroke="none" fill="#885837"/>

<path d="M529 475 c-51 -26 -99 -94 -99 -139 0 -49 88 -75 137 -41 39 27 68 113 64 188 -1 25 -46 21 -102 -8z" transform="translate(0,54) scale(0.1,-0.1)" stroke="none" fill="#E0945A"/>

<path d="M245 433 c-66 -16 -61 -55 13 -115 28 -23 28 -36 -3 -50 -22 -10 -28 -7 -63 29 -50 51 -119 66 -161 35 -36 -27 -36 -41 2 -84 25 -29 37 -36 55 -32 13 4 22 14 22 25 0 30 44 24 79 -10 29 -28 165 -121 177 -121 4 0 23 -17 44 -39 41 -42 96 -59 130 -41 37 20 22 47 -80 149 -55 55 -100 102 -100 106 0 12 28 4 34 -10 3 -8 12 -15 21 -15 15 0 64 -27 75 -41 3 -3 15 -11 28 -18 28 -15 52 0 52 32 0 26 -28 46 -65 47 -38 0 -75 25 -75 51 0 10 -4 19 -8 19 -4 0 -39 20 -77 45 -39 25 -72 44 -75 44 -3 -1 -14 -4 -25 -6z" transform="translate(0,54) scale(0.1,-0.1)" stroke="none" fill="#885837"/>

</g>

</g>
</svg>