<?xml version="1.0" standalone="no"?>
<!DOCTYPE svg PUBLIC "-//W3C//DTD SVG 20010904//EN"
 "http://www.w3.org/TR/2001/REC-SVG-20010904/DTD/svg10.dtd">
<svg version="1.0" xmlns="http://www.w3.org/2000/svg" width="728pt" height="1084pt" viewBox="0 0 728 1084" preserveAspectRatio = "xMidYMid meet" >
<metadata>
Created by ZoeQu, written in 2022
</metadata>
<rect width="728" height="1084" fill="#BBC3BD"/>
<g id="col0" transform="translate(0, 36)">
<g id="0" transform="translate(0,0.0)scale(0.8,0.8)">

<path d="M286 1413 c-14 -14 -5 -62 19 -97 l25 -37 -46 7 c-41 6 -46 5 -41 -9 5 -14 -6 -17 -76 -19 -78 -3 -82 -4 -85 -27 -3 -19 0 -22 13 -17 38 14 212 7 303 -13 89 -19 146 -40 112 -41 -8 0 -37 7 -65 16 -59 18 -240 33 -314 26 -60 -5 -65 -21 -18 -56 27 -20 41 -21 210 -21 165 0 182 -2 185 -17 2 -12 -3 -18 -14 -18 -9 0 -42 -8 -73 -17 l-56 -18 43 -5 42 -5 -101 -55 c-116 -62 -136 -76 -128 -85 4 -3 34 13 69 35 34 23 64 39 67 36 3 -3 -9 -13 -27 -23 -18 -10 -47 -30 -64 -45 -26 -23 -29 -29 -16 -38 26 -17 66 -11 106 16 21 15 41 29 44 33 8 10 113 96 138 113 21 15 62 14 62 -1 0 -3 -14 -19 -31 -35 -16 -17 -28 -35 -25 -42 2 -6 -4 -24 -15 -40 -20 -31 -26 -74 -9 -74 6 0 10 8 10 18 0 21 52 129 79 162 35 43 33 15 -4 -45 -34 -56 -61 -123 -53 -130 3 -4 18 23 66 121 25 51 39 65 79 79 21 8 33 14 28 15 -11 0 -36 101 -33 130 0 8 0 31 -1 50 -2 29 -4 32 -11 15 -5 -11 -9 -37 -9 -57 -1 -46 -21 -51 -22 -5 -1 17 -4 43 -8 57 l-7 25 -8 -23 c-4 -12 -5 -36 -1 -52 6 -25 4 -29 -10 -24 -10 4 -21 1 -26 -7 -6 -11 -14 -7 -36 17 -69 79 -256 238 -267 227z m243 -356 c-11 -10 -139 -65 -139 -61 0 6 121 64 134 64 5 0 7 -2 5 -3z" transform="translate(0,271) scale(0.1,-0.1)" stroke="none" fill="#82786C"/>

<path d="M1263 1872 c-21 -3 -20 -5 16 -85 35 -75 67 -175 59 -183 -2 -2 -14 28 -27 67 -44 127 -33 64 19 -111 28 -94 54 -179 57 -188 2 -10 -5 -2 -17 16 -27 40 -31 40 -20 3 6 -21 4 -33 -4 -40 -16 -13 -26 -4 -26 23 0 32 -44 118 -74 145 -20 19 -30 22 -46 15 -20 -9 -20 -10 12 -49 53 -63 101 -144 94 -160 -3 -8 -1 -17 3 -20 12 -7 32 -129 25 -151 -4 -14 -2 -14 8 3 7 12 33 37 58 57 42 34 49 36 118 36 59 0 77 4 94 20 19 17 19 20 5 26 -17 6 -116 -8 -151 -22 -14 -5 -17 -3 -14 7 2 8 31 20 63 28 33 8 68 23 79 33 19 18 19 18 -23 18 -23 0 -60 -9 -82 -20 -36 -19 -39 -19 -28 -3 10 16 56 49 201 140 45 28 71 64 62 87 -3 9 -9 16 -13 16 -14 0 -141 -105 -213 -177 -43 -42 -78 -71 -78 -64 0 18 144 155 218 208 34 25 59 49 56 54 -3 6 -15 4 -27 -5 -50 -36 -57 -38 -57 -16 0 27 -6 26 -56 -16 -24 -19 -44 -34 -44 -32 0 2 11 35 25 73 24 69 31 119 19 149 -12 31 -32 15 -60 -49 -15 -35 -30 -62 -32 -60 -2 2 9 33 26 69 36 78 30 95 -12 29 l-29 -48 -12 28 -12 29 -15 -34 c-9 -18 -18 -40 -20 -48 -2 -8 -10 15 -17 50 -22 111 -57 161 -108 152z m181 -306 c-10 -31 -19 -54 -22 -52 -2 2 4 29 14 60 10 31 19 54 22 52 2 -2 -4 -29 -14 -60z m-87 -38 c-3 -8 -6 -5 -6 6 -1 11 2 17 5 13 3 -3 4 -12 1 -19z m60 -50 c-3 -8 -6 -5 -6 6 -1 11 2 17 5 13 3 -3 4 -12 1 -19z" transform="translate(0,271) scale(0.1,-0.1)" stroke="none" fill="#82786C"/>

<path d="M464 2596 c-34 -24 -48 -85 -41 -178 3 -46 13 -104 21 -130 8 -27 13 -48 12 -48 -1 0 -19 9 -41 20 -41 21 -70 25 -79 12 -6 -11 81 -158 136 -230 23 -30 75 -89 115 -130 39 -42 70 -78 67 -81 -8 -9 -124 112 -186 193 -33 44 -80 115 -105 158 -47 80 -65 93 -83 59 -52 -98 91 -280 336 -427 34 -20 7 -27 -43 -10 -131 43 -271 22 -273 -41 0 -10 37 -13 155 -13 97 0 155 -4 155 -10 0 -6 -43 -10 -107 -10 -181 0 -214 -13 -143 -54 31 -18 38 -18 124 -6 124 19 180 17 252 -10 l62 -22 35 -82 c20 -44 51 -120 70 -168 36 -92 35 -98 -16 -98 -16 0 -11 -6 19 -19 48 -22 56 -41 109 -244 43 -170 44 -175 10 -153 -34 22 -31 12 9 -36 31 -35 37 -53 60 -176 14 -75 28 -162 32 -192 3 -30 10 -72 15 -92 5 -21 11 -65 13 -98 3 -34 9 -67 15 -74 6 -7 20 -38 31 -67 l20 -54 -6 75 c-3 41 -16 143 -27 225 -14 97 -20 169 -16 205 4 30 2 73 -4 95 -9 38 -11 39 -18 15 -4 -14 -7 -22 -8 -17 -1 4 -14 69 -30 145 -16 75 -29 154 -28 174 1 23 -5 43 -14 50 -9 7 -24 45 -34 83 -28 109 -90 284 -149 420 -29 68 -56 139 -60 158 -6 33 -4 37 37 67 43 31 137 147 137 169 0 25 -30 8 -81 -46 -30 -32 -65 -71 -77 -87 -12 -16 -25 -27 -27 -24 -3 3 34 47 82 97 67 72 83 95 72 102 -21 13 -41 11 -72 -10 -32 -21 -97 -107 -97 -128 0 -7 -5 -13 -10 -13 -16 0 -24 28 -12 43 9 11 118 296 124 326 2 7 -2 15 -9 18 -15 5 -87 -180 -123 -314 -6 -24 -15 -43 -20 -43 -13 0 -13 -1 15 98 28 103 44 147 79 225 25 56 25 57 5 57 -12 0 -34 -13 -49 -30 -15 -16 -30 -30 -33 -30 -3 0 -8 17 -12 37 -12 65 -64 147 -82 130 -3 -4 0 -68 7 -144 7 -76 11 -151 8 -168 -2 -16 -7 11 -12 60 -11 134 -44 368 -56 400 -26 68 -80 115 -107 93 -9 -7 -13 -7 -13 1 0 15 -11 14 -36 -3z m53 -93 c-2 -16 -4 -3 -4 27 0 30 2 43 4 28 2 -16 2 -40 0 -55z m21 -158 c0 -22 -3 -18 -9 15 -4 25 -7 59 -7 75 0 22 3 18 9 -15 4 -25 7 -58 7 -75z m159 -457 c-2 -18 -4 -6 -4 27 0 33 2 48 4 33 2 -15 2 -42 0 -60z" transform="translate(0,271) scale(0.1,-0.1)" stroke="none" fill="#82786C"/>

</g>

<g id="1" transform="translate(0,271.0)scale(0.8,0.8)">

<path d="M286 1413 c-14 -14 -5 -62 19 -97 l25 -37 -46 7 c-41 6 -46 5 -41 -9 5 -14 -6 -17 -76 -19 -78 -3 -82 -4 -85 -27 -3 -19 0 -22 13 -17 38 14 212 7 303 -13 89 -19 146 -40 112 -41 -8 0 -37 7 -65 16 -59 18 -240 33 -314 26 -60 -5 -65 -21 -18 -56 27 -20 41 -21 210 -21 165 0 182 -2 185 -17 2 -12 -3 -18 -14 -18 -9 0 -42 -8 -73 -17 l-56 -18 43 -5 42 -5 -101 -55 c-116 -62 -136 -76 -128 -85 4 -3 34 13 69 35 34 23 64 39 67 36 3 -3 -9 -13 -27 -23 -18 -10 -47 -30 -64 -45 -26 -23 -29 -29 -16 -38 26 -17 66 -11 106 16 21 15 41 29 44 33 8 10 113 96 138 113 21 15 62 14 62 -1 0 -3 -14 -19 -31 -35 -16 -17 -28 -35 -25 -42 2 -6 -4 -24 -15 -40 -20 -31 -26 -74 -9 -74 6 0 10 8 10 18 0 21 52 129 79 162 35 43 33 15 -4 -45 -34 -56 -61 -123 -53 -130 3 -4 18 23 66 121 25 51 39 65 79 79 21 8 33 14 28 15 -11 0 -36 101 -33 130 0 8 0 31 -1 50 -2 29 -4 32 -11 15 -5 -11 -9 -37 -9 -57 -1 -46 -21 -51 -22 -5 -1 17 -4 43 -8 57 l-7 25 -8 -23 c-4 -12 -5 -36 -1 -52 6 -25 4 -29 -10 -24 -10 4 -21 1 -26 -7 -6 -11 -14 -7 -36 17 -69 79 -256 238 -267 227z m243 -356 c-11 -10 -139 -65 -139 -61 0 6 121 64 134 64 5 0 7 -2 5 -3z" transform="translate(0,271) scale(0.1,-0.1)" stroke="none" fill="#82786C"/>

<path d="M1263 1872 c-21 -3 -20 -5 16 -85 35 -75 67 -175 59 -183 -2 -2 -14 28 -27 67 -44 127 -33 64 19 -111 28 -94 54 -179 57 -188 2 -10 -5 -2 -17 16 -27 40 -31 40 -20 3 6 -21 4 -33 -4 -40 -16 -13 -26 -4 -26 23 0 32 -44 118 -74 145 -20 19 -30 22 -46 15 -20 -9 -20 -10 12 -49 53 -63 101 -144 94 -160 -3 -8 -1 -17 3 -20 12 -7 32 -129 25 -151 -4 -14 -2 -14 8 3 7 12 33 37 58 57 42 34 49 36 118 36 59 0 77 4 94 20 19 17 19 20 5 26 -17 6 -116 -8 -151 -22 -14 -5 -17 -3 -14 7 2 8 31 20 63 28 33 8 68 23 79 33 19 18 19 18 -23 18 -23 0 -60 -9 -82 -20 -36 -19 -39 -19 -28 -3 10 16 56 49 201 140 45 28 71 64 62 87 -3 9 -9 16 -13 16 -14 0 -141 -105 -213 -177 -43 -42 -78 -71 -78 -64 0 18 144 155 218 208 34 25 59 49 56 54 -3 6 -15 4 -27 -5 -50 -36 -57 -38 -57 -16 0 27 -6 26 -56 -16 -24 -19 -44 -34 -44 -32 0 2 11 35 25 73 24 69 31 119 19 149 -12 31 -32 15 -60 -49 -15 -35 -30 -62 -32 -60 -2 2 9 33 26 69 36 78 30 95 -12 29 l-29 -48 -12 28 -12 29 -15 -34 c-9 -18 -18 -40 -20 -48 -2 -8 -10 15 -17 50 -22 111 -57 161 -108 152z m181 -306 c-10 -31 -19 -54 -22 -52 -2 2 4 29 14 60 10 31 19 54 22 52 2 -2 -4 -29 -14 -60z m-87 -38 c-3 -8 -6 -5 -6 6 -1 11 2 17 5 13 3 -3 4 -12 1 -19z m60 -50 c-3 -8 -6 -5 -6 6 -1 11 2 17 5 13 3 -3 4 -12 1 -19z" transform="translate(0,271) scale(0.1,-0.1)" stroke="none" fill="#82786C"/>

<path d="M464 2596 c-34 -24 -48 -85 -41 -178 3 -46 13 -104 21 -130 8 -27 13 -48 12 -48 -1 0 -19 9 -41 20 -41 21 -70 25 -79 12 -6 -11 81 -158 136 -230 23 -30 75 -89 115 -130 39 -42 70 -78 67 -81 -8 -9 -124 112 -186 193 -33 44 -80 115 -105 158 -47 80 -65 93 -83 59 -52 -98 91 -280 336 -427 34 -20 7 -27 -43 -10 -131 43 -271 22 -273 -41 0 -10 37 -13 155 -13 97 0 155 -4 155 -10 0 -6 -43 -10 -107 -10 -181 0 -214 -13 -143 -54 31 -18 38 -18 124 -6 124 19 180 17 252 -10 l62 -22 35 -82 c20 -44 51 -120 70 -168 36 -92 35 -98 -16 -98 -16 0 -11 -6 19 -19 48 -22 56 -41 109 -244 43 -170 44 -175 10 -153 -34 22 -31 12 9 -36 31 -35 37 -53 60 -176 14 -75 28 -162 32 -192 3 -30 10 -72 15 -92 5 -21 11 -65 13 -98 3 -34 9 -67 15 -74 6 -7 20 -38 31 -67 l20 -54 -6 75 c-3 41 -16 143 -27 225 -14 97 -20 169 -16 205 4 30 2 73 -4 95 -9 38 -11 39 -18 15 -4 -14 -7 -22 -8 -17 -1 4 -14 69 -30 145 -16 75 -29 154 -28 174 1 23 -5 43 -14 50 -9 7 -24 45 -34 83 -28 109 -90 284 -149 420 -29 68 -56 139 -60 158 -6 33 -4 37 37 67 43 31 137 147 137 169 0 25 -30 8 -81 -46 -30 -32 -65 -71 -77 -87 -12 -16 -25 -27 -27 -24 -3 3 34 47 82 97 67 72 83 95 72 102 -21 13 -41 11 -72 -10 -32 -21 -97 -107 -97 -128 0 -7 -5 -13 -10 -13 -16 0 -24 28 -12 43 9 11 118 296 124 326 2 7 -2 15 -9 18 -15 5 -87 -180 -123 -314 -6 -24 -15 -43 -20 -43 -13 0 -13 -1 15 98 28 103 44 147 79 225 25 56 25 57 5 57 -12 0 -34 -13 -49 -30 -15 -16 -30 -30 -33 -30 -3 0 -8 17 -12 37 -12 65 -64 147 -82 130 -3 -4 0 -68 7 -144 7 -76 11 -151 8 -168 -2 -16 -7 11 -12 60 -11 134 -44 368 -56 400 -26 68 -80 115 -107 93 -9 -7 -13 -7 -13 1 0 15 -11 14 -36 -3z m53 -93 c-2 -16 -4 -3 -4 27 0 30 2 43 4 28 2 -16 2 -40 0 -55z m21 -158 c0 -22 -3 -18 -9 15 -4 25 -7 59 -7 75 0 22 3 18 9 -15 4 -25 7 -58 7 -75z m159 -457 c-2 -18 -4 -6 -4 27 0 33 2 48 4 33 2 -15 2 -42 0 -60z" transform="translate(0,271) scale(0.1,-0.1)" stroke="none" fill="#82786C"/>

</g>

<g id="2" transform="translate(0,542.0)scale(0.8,0.8)">

<path d="M286 1413 c-14 -14 -5 -62 19 -97 l25 -37 -46 7 c-41 6 -46 5 -41 -9 5 -14 -6 -17 -76 -19 -78 -3 -82 -4 -85 -27 -3 -19 0 -22 13 -17 38 14 212 7 303 -13 89 -19 146 -40 112 -41 -8 0 -37 7 -65 16 -59 18 -240 33 -314 26 -60 -5 -65 -21 -18 -56 27 -20 41 -21 210 -21 165 0 182 -2 185 -17 2 -12 -3 -18 -14 -18 -9 0 -42 -8 -73 -17 l-56 -18 43 -5 42 -5 -101 -55 c-116 -62 -136 -76 -128 -85 4 -3 34 13 69 35 34 23 64 39 67 36 3 -3 -9 -13 -27 -23 -18 -10 -47 -30 -64 -45 -26 -23 -29 -29 -16 -38 26 -17 66 -11 106 16 21 15 41 29 44 33 8 10 113 96 138 113 21 15 62 14 62 -1 0 -3 -14 -19 -31 -35 -16 -17 -28 -35 -25 -42 2 -6 -4 -24 -15 -40 -20 -31 -26 -74 -9 -74 6 0 10 8 10 18 0 21 52 129 79 162 35 43 33 15 -4 -45 -34 -56 -61 -123 -53 -130 3 -4 18 23 66 121 25 51 39 65 79 79 21 8 33 14 28 15 -11 0 -36 101 -33 130 0 8 0 31 -1 50 -2 29 -4 32 -11 15 -5 -11 -9 -37 -9 -57 -1 -46 -21 -51 -22 -5 -1 17 -4 43 -8 57 l-7 25 -8 -23 c-4 -12 -5 -36 -1 -52 6 -25 4 -29 -10 -24 -10 4 -21 1 -26 -7 -6 -11 -14 -7 -36 17 -69 79 -256 238 -267 227z m243 -356 c-11 -10 -139 -65 -139 -61 0 6 121 64 134 64 5 0 7 -2 5 -3z" transform="translate(0,271) scale(0.1,-0.1)" stroke="none" fill="#82786C"/>

<path d="M1263 1872 c-21 -3 -20 -5 16 -85 35 -75 67 -175 59 -183 -2 -2 -14 28 -27 67 -44 127 -33 64 19 -111 28 -94 54 -179 57 -188 2 -10 -5 -2 -17 16 -27 40 -31 40 -20 3 6 -21 4 -33 -4 -40 -16 -13 -26 -4 -26 23 0 32 -44 118 -74 145 -20 19 -30 22 -46 15 -20 -9 -20 -10 12 -49 53 -63 101 -144 94 -160 -3 -8 -1 -17 3 -20 12 -7 32 -129 25 -151 -4 -14 -2 -14 8 3 7 12 33 37 58 57 42 34 49 36 118 36 59 0 77 4 94 20 19 17 19 20 5 26 -17 6 -116 -8 -151 -22 -14 -5 -17 -3 -14 7 2 8 31 20 63 28 33 8 68 23 79 33 19 18 19 18 -23 18 -23 0 -60 -9 -82 -20 -36 -19 -39 -19 -28 -3 10 16 56 49 201 140 45 28 71 64 62 87 -3 9 -9 16 -13 16 -14 0 -141 -105 -213 -177 -43 -42 -78 -71 -78 -64 0 18 144 155 218 208 34 25 59 49 56 54 -3 6 -15 4 -27 -5 -50 -36 -57 -38 -57 -16 0 27 -6 26 -56 -16 -24 -19 -44 -34 -44 -32 0 2 11 35 25 73 24 69 31 119 19 149 -12 31 -32 15 -60 -49 -15 -35 -30 -62 -32 -60 -2 2 9 33 26 69 36 78 30 95 -12 29 l-29 -48 -12 28 -12 29 -15 -34 c-9 -18 -18 -40 -20 -48 -2 -8 -10 15 -17 50 -22 111 -57 161 -108 152z m181 -306 c-10 -31 -19 -54 -22 -52 -2 2 4 29 14 60 10 31 19 54 22 52 2 -2 -4 -29 -14 -60z m-87 -38 c-3 -8 -6 -5 -6 6 -1 11 2 17 5 13 3 -3 4 -12 1 -19z m60 -50 c-3 -8 -6 -5 -6 6 -1 11 2 17 5 13 3 -3 4 -12 1 -19z" transform="translate(0,271) scale(0.1,-0.1)" stroke="none" fill="#82786C"/>

<path d="M464 2596 c-34 -24 -48 -85 -41 -178 3 -46 13 -104 21 -130 8 -27 13 -48 12 -48 -1 0 -19 9 -41 20 -41 21 -70 25 -79 12 -6 -11 81 -158 136 -230 23 -30 75 -89 115 -130 39 -42 70 -78 67 -81 -8 -9 -124 112 -186 193 -33 44 -80 115 -105 158 -47 80 -65 93 -83 59 -52 -98 91 -280 336 -427 34 -20 7 -27 -43 -10 -131 43 -271 22 -273 -41 0 -10 37 -13 155 -13 97 0 155 -4 155 -10 0 -6 -43 -10 -107 -10 -181 0 -214 -13 -143 -54 31 -18 38 -18 124 -6 124 19 180 17 252 -10 l62 -22 35 -82 c20 -44 51 -120 70 -168 36 -92 35 -98 -16 -98 -16 0 -11 -6 19 -19 48 -22 56 -41 109 -244 43 -170 44 -175 10 -153 -34 22 -31 12 9 -36 31 -35 37 -53 60 -176 14 -75 28 -162 32 -192 3 -30 10 -72 15 -92 5 -21 11 -65 13 -98 3 -34 9 -67 15 -74 6 -7 20 -38 31 -67 l20 -54 -6 75 c-3 41 -16 143 -27 225 -14 97 -20 169 -16 205 4 30 2 73 -4 95 -9 38 -11 39 -18 15 -4 -14 -7 -22 -8 -17 -1 4 -14 69 -30 145 -16 75 -29 154 -28 174 1 23 -5 43 -14 50 -9 7 -24 45 -34 83 -28 109 -90 284 -149 420 -29 68 -56 139 -60 158 -6 33 -4 37 37 67 43 31 137 147 137 169 0 25 -30 8 -81 -46 -30 -32 -65 -71 -77 -87 -12 -16 -25 -27 -27 -24 -3 3 34 47 82 97 67 72 83 95 72 102 -21 13 -41 11 -72 -10 -32 -21 -97 -107 -97 -128 0 -7 -5 -13 -10 -13 -16 0 -24 28 -12 43 9 11 118 296 124 326 2 7 -2 15 -9 18 -15 5 -87 -180 -123 -314 -6 -24 -15 -43 -20 -43 -13 0 -13 -1 15 98 28 103 44 147 79 225 25 56 25 57 5 57 -12 0 -34 -13 -49 -30 -15 -16 -30 -30 -33 -30 -3 0 -8 17 -12 37 -12 65 -64 147 -82 130 -3 -4 0 -68 7 -144 7 -76 11 -151 8 -168 -2 -16 -7 11 -12 60 -11 134 -44 368 -56 400 -26 68 -80 115 -107 93 -9 -7 -13 -7 -13 1 0 15 -11 14 -36 -3z m53 -93 c-2 -16 -4 -3 -4 27 0 30 2 43 4 28 2 -16 2 -40 0 -55z m21 -158 c0 -22 -3 -18 -9 15 -4 25 -7 59 -7 75 0 22 3 18 9 -15 4 -25 7 -58 7 -75z m159 -457 c-2 -18 -4 -6 -4 27 0 33 2 48 4 33 2 -15 2 -42 0 -60z" transform="translate(0,271) scale(0.1,-0.1)" stroke="none" fill="#82786C"/>

</g>

<g id="3" transform="translate(0,813.0)scale(0.8,0.8)">

<path d="M286 1413 c-14 -14 -5 -62 19 -97 l25 -37 -46 7 c-41 6 -46 5 -41 -9 5 -14 -6 -17 -76 -19 -78 -3 -82 -4 -85 -27 -3 -19 0 -22 13 -17 38 14 212 7 303 -13 89 -19 146 -40 112 -41 -8 0 -37 7 -65 16 -59 18 -240 33 -314 26 -60 -5 -65 -21 -18 -56 27 -20 41 -21 210 -21 165 0 182 -2 185 -17 2 -12 -3 -18 -14 -18 -9 0 -42 -8 -73 -17 l-56 -18 43 -5 42 -5 -101 -55 c-116 -62 -136 -76 -128 -85 4 -3 34 13 69 35 34 23 64 39 67 36 3 -3 -9 -13 -27 -23 -18 -10 -47 -30 -64 -45 -26 -23 -29 -29 -16 -38 26 -17 66 -11 106 16 21 15 41 29 44 33 8 10 113 96 138 113 21 15 62 14 62 -1 0 -3 -14 -19 -31 -35 -16 -17 -28 -35 -25 -42 2 -6 -4 -24 -15 -40 -20 -31 -26 -74 -9 -74 6 0 10 8 10 18 0 21 52 129 79 162 35 43 33 15 -4 -45 -34 -56 -61 -123 -53 -130 3 -4 18 23 66 121 25 51 39 65 79 79 21 8 33 14 28 15 -11 0 -36 101 -33 130 0 8 0 31 -1 50 -2 29 -4 32 -11 15 -5 -11 -9 -37 -9 -57 -1 -46 -21 -51 -22 -5 -1 17 -4 43 -8 57 l-7 25 -8 -23 c-4 -12 -5 -36 -1 -52 6 -25 4 -29 -10 -24 -10 4 -21 1 -26 -7 -6 -11 -14 -7 -36 17 -69 79 -256 238 -267 227z m243 -356 c-11 -10 -139 -65 -139 -61 0 6 121 64 134 64 5 0 7 -2 5 -3z" transform="translate(0,271) scale(0.1,-0.1)" stroke="none" fill="#82786C"/>

<path d="M1263 1872 c-21 -3 -20 -5 16 -85 35 -75 67 -175 59 -183 -2 -2 -14 28 -27 67 -44 127 -33 64 19 -111 28 -94 54 -179 57 -188 2 -10 -5 -2 -17 16 -27 40 -31 40 -20 3 6 -21 4 -33 -4 -40 -16 -13 -26 -4 -26 23 0 32 -44 118 -74 145 -20 19 -30 22 -46 15 -20 -9 -20 -10 12 -49 53 -63 101 -144 94 -160 -3 -8 -1 -17 3 -20 12 -7 32 -129 25 -151 -4 -14 -2 -14 8 3 7 12 33 37 58 57 42 34 49 36 118 36 59 0 77 4 94 20 19 17 19 20 5 26 -17 6 -116 -8 -151 -22 -14 -5 -17 -3 -14 7 2 8 31 20 63 28 33 8 68 23 79 33 19 18 19 18 -23 18 -23 0 -60 -9 -82 -20 -36 -19 -39 -19 -28 -3 10 16 56 49 201 140 45 28 71 64 62 87 -3 9 -9 16 -13 16 -14 0 -141 -105 -213 -177 -43 -42 -78 -71 -78 -64 0 18 144 155 218 208 34 25 59 49 56 54 -3 6 -15 4 -27 -5 -50 -36 -57 -38 -57 -16 0 27 -6 26 -56 -16 -24 -19 -44 -34 -44 -32 0 2 11 35 25 73 24 69 31 119 19 149 -12 31 -32 15 -60 -49 -15 -35 -30 -62 -32 -60 -2 2 9 33 26 69 36 78 30 95 -12 29 l-29 -48 -12 28 -12 29 -15 -34 c-9 -18 -18 -40 -20 -48 -2 -8 -10 15 -17 50 -22 111 -57 161 -108 152z m181 -306 c-10 -31 -19 -54 -22 -52 -2 2 4 29 14 60 10 31 19 54 22 52 2 -2 -4 -29 -14 -60z m-87 -38 c-3 -8 -6 -5 -6 6 -1 11 2 17 5 13 3 -3 4 -12 1 -19z m60 -50 c-3 -8 -6 -5 -6 6 -1 11 2 17 5 13 3 -3 4 -12 1 -19z" transform="translate(0,271) scale(0.1,-0.1)" stroke="none" fill="#82786C"/>

<path d="M464 2596 c-34 -24 -48 -85 -41 -178 3 -46 13 -104 21 -130 8 -27 13 -48 12 -48 -1 0 -19 9 -41 20 -41 21 -70 25 -79 12 -6 -11 81 -158 136 -230 23 -30 75 -89 115 -130 39 -42 70 -78 67 -81 -8 -9 -124 112 -186 193 -33 44 -80 115 -105 158 -47 80 -65 93 -83 59 -52 -98 91 -280 336 -427 34 -20 7 -27 -43 -10 -131 43 -271 22 -273 -41 0 -10 37 -13 155 -13 97 0 155 -4 155 -10 0 -6 -43 -10 -107 -10 -181 0 -214 -13 -143 -54 31 -18 38 -18 124 -6 124 19 180 17 252 -10 l62 -22 35 -82 c20 -44 51 -120 70 -168 36 -92 35 -98 -16 -98 -16 0 -11 -6 19 -19 48 -22 56 -41 109 -244 43 -170 44 -175 10 -153 -34 22 -31 12 9 -36 31 -35 37 -53 60 -176 14 -75 28 -162 32 -192 3 -30 10 -72 15 -92 5 -21 11 -65 13 -98 3 -34 9 -67 15 -74 6 -7 20 -38 31 -67 l20 -54 -6 75 c-3 41 -16 143 -27 225 -14 97 -20 169 -16 205 4 30 2 73 -4 95 -9 38 -11 39 -18 15 -4 -14 -7 -22 -8 -17 -1 4 -14 69 -30 145 -16 75 -29 154 -28 174 1 23 -5 43 -14 50 -9 7 -24 45 -34 83 -28 109 -90 284 -149 420 -29 68 -56 139 -60 158 -6 33 -4 37 37 67 43 31 137 147 137 169 0 25 -30 8 -81 -46 -30 -32 -65 -71 -77 -87 -12 -16 -25 -27 -27 -24 -3 3 34 47 82 97 67 72 83 95 72 102 -21 13 -41 11 -72 -10 -32 -21 -97 -107 -97 -128 0 -7 -5 -13 -10 -13 -16 0 -24 28 -12 43 9 11 118 296 124 326 2 7 -2 15 -9 18 -15 5 -87 -180 -123 -314 -6 -24 -15 -43 -20 -43 -13 0 -13 -1 15 98 28 103 44 147 79 225 25 56 25 57 5 57 -12 0 -34 -13 -49 -30 -15 -16 -30 -30 -33 -30 -3 0 -8 17 -12 37 -12 65 -64 147 -82 130 -3 -4 0 -68 7 -144 7 -76 11 -151 8 -168 -2 -16 -7 11 -12 60 -11 134 -44 368 -56 400 -26 68 -80 115 -107 93 -9 -7 -13 -7 -13 1 0 15 -11 14 -36 -3z m53 -93 c-2 -16 -4 -3 -4 27 0 30 2 43 4 28 2 -16 2 -40 0 -55z m21 -158 c0 -22 -3 -18 -9 15 -4 25 -7 59 -7 75 0 22 3 18 9 -15 4 -25 7 -58 7 -75z m159 -457 c-2 -18 -4 -6 -4 27 0 33 2 48 4 33 2 -15 2 -42 0 -60z" transform="translate(0,271) scale(0.1,-0.1)" stroke="none" fill="#82786C"/>

</g>

<g id="4" transform="translate(0,1084.0)scale(0.8,0.8)">

<path d="M286 1413 c-14 -14 -5 -62 19 -97 l25 -37 -46 7 c-41 6 -46 5 -41 -9 5 -14 -6 -17 -76 -19 -78 -3 -82 -4 -85 -27 -3 -19 0 -22 13 -17 38 14 212 7 303 -13 89 -19 146 -40 112 -41 -8 0 -37 7 -65 16 -59 18 -240 33 -314 26 -60 -5 -65 -21 -18 -56 27 -20 41 -21 210 -21 165 0 182 -2 185 -17 2 -12 -3 -18 -14 -18 -9 0 -42 -8 -73 -17 l-56 -18 43 -5 42 -5 -101 -55 c-116 -62 -136 -76 -128 -85 4 -3 34 13 69 35 34 23 64 39 67 36 3 -3 -9 -13 -27 -23 -18 -10 -47 -30 -64 -45 -26 -23 -29 -29 -16 -38 26 -17 66 -11 106 16 21 15 41 29 44 33 8 10 113 96 138 113 21 15 62 14 62 -1 0 -3 -14 -19 -31 -35 -16 -17 -28 -35 -25 -42 2 -6 -4 -24 -15 -40 -20 -31 -26 -74 -9 -74 6 0 10 8 10 18 0 21 52 129 79 162 35 43 33 15 -4 -45 -34 -56 -61 -123 -53 -130 3 -4 18 23 66 121 25 51 39 65 79 79 21 8 33 14 28 15 -11 0 -36 101 -33 130 0 8 0 31 -1 50 -2 29 -4 32 -11 15 -5 -11 -9 -37 -9 -57 -1 -46 -21 -51 -22 -5 -1 17 -4 43 -8 57 l-7 25 -8 -23 c-4 -12 -5 -36 -1 -52 6 -25 4 -29 -10 -24 -10 4 -21 1 -26 -7 -6 -11 -14 -7 -36 17 -69 79 -256 238 -267 227z m243 -356 c-11 -10 -139 -65 -139 -61 0 6 121 64 134 64 5 0 7 -2 5 -3z" transform="translate(0,271) scale(0.1,-0.1)" stroke="none" fill="#82786C"/>

<path d="M1263 1872 c-21 -3 -20 -5 16 -85 35 -75 67 -175 59 -183 -2 -2 -14 28 -27 67 -44 127 -33 64 19 -111 28 -94 54 -179 57 -188 2 -10 -5 -2 -17 16 -27 40 -31 40 -20 3 6 -21 4 -33 -4 -40 -16 -13 -26 -4 -26 23 0 32 -44 118 -74 145 -20 19 -30 22 -46 15 -20 -9 -20 -10 12 -49 53 -63 101 -144 94 -160 -3 -8 -1 -17 3 -20 12 -7 32 -129 25 -151 -4 -14 -2 -14 8 3 7 12 33 37 58 57 42 34 49 36 118 36 59 0 77 4 94 20 19 17 19 20 5 26 -17 6 -116 -8 -151 -22 -14 -5 -17 -3 -14 7 2 8 31 20 63 28 33 8 68 23 79 33 19 18 19 18 -23 18 -23 0 -60 -9 -82 -20 -36 -19 -39 -19 -28 -3 10 16 56 49 201 140 45 28 71 64 62 87 -3 9 -9 16 -13 16 -14 0 -141 -105 -213 -177 -43 -42 -78 -71 -78 -64 0 18 144 155 218 208 34 25 59 49 56 54 -3 6 -15 4 -27 -5 -50 -36 -57 -38 -57 -16 0 27 -6 26 -56 -16 -24 -19 -44 -34 -44 -32 0 2 11 35 25 73 24 69 31 119 19 149 -12 31 -32 15 -60 -49 -15 -35 -30 -62 -32 -60 -2 2 9 33 26 69 36 78 30 95 -12 29 l-29 -48 -12 28 -12 29 -15 -34 c-9 -18 -18 -40 -20 -48 -2 -8 -10 15 -17 50 -22 111 -57 161 -108 152z m181 -306 c-10 -31 -19 -54 -22 -52 -2 2 4 29 14 60 10 31 19 54 22 52 2 -2 -4 -29 -14 -60z m-87 -38 c-3 -8 -6 -5 -6 6 -1 11 2 17 5 13 3 -3 4 -12 1 -19z m60 -50 c-3 -8 -6 -5 -6 6 -1 11 2 17 5 13 3 -3 4 -12 1 -19z" transform="translate(0,271) scale(0.1,-0.1)" stroke="none" fill="#82786C"/>

<path d="M464 2596 c-34 -24 -48 -85 -41 -178 3 -46 13 -104 21 -130 8 -27 13 -48 12 -48 -1 0 -19 9 -41 20 -41 21 -70 25 -79 12 -6 -11 81 -158 136 -230 23 -30 75 -89 115 -130 39 -42 70 -78 67 -81 -8 -9 -124 112 -186 193 -33 44 -80 115 -105 158 -47 80 -65 93 -83 59 -52 -98 91 -280 336 -427 34 -20 7 -27 -43 -10 -131 43 -271 22 -273 -41 0 -10 37 -13 155 -13 97 0 155 -4 155 -10 0 -6 -43 -10 -107 -10 -181 0 -214 -13 -143 -54 31 -18 38 -18 124 -6 124 19 180 17 252 -10 l62 -22 35 -82 c20 -44 51 -120 70 -168 36 -92 35 -98 -16 -98 -16 0 -11 -6 19 -19 48 -22 56 -41 109 -244 43 -170 44 -175 10 -153 -34 22 -31 12 9 -36 31 -35 37 -53 60 -176 14 -75 28 -162 32 -192 3 -30 10 -72 15 -92 5 -21 11 -65 13 -98 3 -34 9 -67 15 -74 6 -7 20 -38 31 -67 l20 -54 -6 75 c-3 41 -16 143 -27 225 -14 97 -20 169 -16 205 4 30 2 73 -4 95 -9 38 -11 39 -18 15 -4 -14 -7 -22 -8 -17 -1 4 -14 69 -30 145 -16 75 -29 154 -28 174 1 23 -5 43 -14 50 -9 7 -24 45 -34 83 -28 109 -90 284 -149 420 -29 68 -56 139 -60 158 -6 33 -4 37 37 67 43 31 137 147 137 169 0 25 -30 8 -81 -46 -30 -32 -65 -71 -77 -87 -12 -16 -25 -27 -27 -24 -3 3 34 47 82 97 67 72 83 95 72 102 -21 13 -41 11 -72 -10 -32 -21 -97 -107 -97 -128 0 -7 -5 -13 -10 -13 -16 0 -24 28 -12 43 9 11 118 296 124 326 2 7 -2 15 -9 18 -15 5 -87 -180 -123 -314 -6 -24 -15 -43 -20 -43 -13 0 -13 -1 15 98 28 103 44 147 79 225 25 56 25 57 5 57 -12 0 -34 -13 -49 -30 -15 -16 -30 -30 -33 -30 -3 0 -8 17 -12 37 -12 65 -64 147 -82 130 -3 -4 0 -68 7 -144 7 -76 11 -151 8 -168 -2 -16 -7 11 -12 60 -11 134 -44 368 -56 400 -26 68 -80 115 -107 93 -9 -7 -13 -7 -13 1 0 15 -11 14 -36 -3z m53 -93 c-2 -16 -4 -3 -4 27 0 30 2 43 4 28 2 -16 2 -40 0 -55z m21 -158 c0 -22 -3 -18 -9 15 -4 25 -7 59 -7 75 0 22 3 18 9 -15 4 -25 7 -58 7 -75z m159 -457 c-2 -18 -4 -6 -4 27 0 33 2 48 4 33 2 -15 2 -42 0 -60z" transform="translate(0,271) scale(0.1,-0.1)" stroke="none" fill="#82786C"/>

</g>

</g>
<g id="col1" transform="translate(182, -99.5)">
<g id="0" transform="translate(0,0.0)scale(0.8,0.8)">

<path d="M286 1413 c-14 -14 -5 -62 19 -97 l25 -37 -46 7 c-41 6 -46 5 -41 -9 5 -14 -6 -17 -76 -19 -78 -3 -82 -4 -85 -27 -3 -19 0 -22 13 -17 38 14 212 7 303 -13 89 -19 146 -40 112 -41 -8 0 -37 7 -65 16 -59 18 -240 33 -314 26 -60 -5 -65 -21 -18 -56 27 -20 41 -21 210 -21 165 0 182 -2 185 -17 2 -12 -3 -18 -14 -18 -9 0 -42 -8 -73 -17 l-56 -18 43 -5 42 -5 -101 -55 c-116 -62 -136 -76 -128 -85 4 -3 34 13 69 35 34 23 64 39 67 36 3 -3 -9 -13 -27 -23 -18 -10 -47 -30 -64 -45 -26 -23 -29 -29 -16 -38 26 -17 66 -11 106 16 21 15 41 29 44 33 8 10 113 96 138 113 21 15 62 14 62 -1 0 -3 -14 -19 -31 -35 -16 -17 -28 -35 -25 -42 2 -6 -4 -24 -15 -40 -20 -31 -26 -74 -9 -74 6 0 10 8 10 18 0 21 52 129 79 162 35 43 33 15 -4 -45 -34 -56 -61 -123 -53 -130 3 -4 18 23 66 121 25 51 39 65 79 79 21 8 33 14 28 15 -11 0 -36 101 -33 130 0 8 0 31 -1 50 -2 29 -4 32 -11 15 -5 -11 -9 -37 -9 -57 -1 -46 -21 -51 -22 -5 -1 17 -4 43 -8 57 l-7 25 -8 -23 c-4 -12 -5 -36 -1 -52 6 -25 4 -29 -10 -24 -10 4 -21 1 -26 -7 -6 -11 -14 -7 -36 17 -69 79 -256 238 -267 227z m243 -356 c-11 -10 -139 -65 -139 -61 0 6 121 64 134 64 5 0 7 -2 5 -3z" transform="translate(0,271) scale(0.1,-0.1)" stroke="none" fill="#82786C"/>

<path d="M1263 1872 c-21 -3 -20 -5 16 -85 35 -75 67 -175 59 -183 -2 -2 -14 28 -27 67 -44 127 -33 64 19 -111 28 -94 54 -179 57 -188 2 -10 -5 -2 -17 16 -27 40 -31 40 -20 3 6 -21 4 -33 -4 -40 -16 -13 -26 -4 -26 23 0 32 -44 118 -74 145 -20 19 -30 22 -46 15 -20 -9 -20 -10 12 -49 53 -63 101 -144 94 -160 -3 -8 -1 -17 3 -20 12 -7 32 -129 25 -151 -4 -14 -2 -14 8 3 7 12 33 37 58 57 42 34 49 36 118 36 59 0 77 4 94 20 19 17 19 20 5 26 -17 6 -116 -8 -151 -22 -14 -5 -17 -3 -14 7 2 8 31 20 63 28 33 8 68 23 79 33 19 18 19 18 -23 18 -23 0 -60 -9 -82 -20 -36 -19 -39 -19 -28 -3 10 16 56 49 201 140 45 28 71 64 62 87 -3 9 -9 16 -13 16 -14 0 -141 -105 -213 -177 -43 -42 -78 -71 -78 -64 0 18 144 155 218 208 34 25 59 49 56 54 -3 6 -15 4 -27 -5 -50 -36 -57 -38 -57 -16 0 27 -6 26 -56 -16 -24 -19 -44 -34 -44 -32 0 2 11 35 25 73 24 69 31 119 19 149 -12 31 -32 15 -60 -49 -15 -35 -30 -62 -32 -60 -2 2 9 33 26 69 36 78 30 95 -12 29 l-29 -48 -12 28 -12 29 -15 -34 c-9 -18 -18 -40 -20 -48 -2 -8 -10 15 -17 50 -22 111 -57 161 -108 152z m181 -306 c-10 -31 -19 -54 -22 -52 -2 2 4 29 14 60 10 31 19 54 22 52 2 -2 -4 -29 -14 -60z m-87 -38 c-3 -8 -6 -5 -6 6 -1 11 2 17 5 13 3 -3 4 -12 1 -19z m60 -50 c-3 -8 -6 -5 -6 6 -1 11 2 17 5 13 3 -3 4 -12 1 -19z" transform="translate(0,271) scale(0.1,-0.1)" stroke="none" fill="#82786C"/>

<path d="M464 2596 c-34 -24 -48 -85 -41 -178 3 -46 13 -104 21 -130 8 -27 13 -48 12 -48 -1 0 -19 9 -41 20 -41 21 -70 25 -79 12 -6 -11 81 -158 136 -230 23 -30 75 -89 115 -130 39 -42 70 -78 67 -81 -8 -9 -124 112 -186 193 -33 44 -80 115 -105 158 -47 80 -65 93 -83 59 -52 -98 91 -280 336 -427 34 -20 7 -27 -43 -10 -131 43 -271 22 -273 -41 0 -10 37 -13 155 -13 97 0 155 -4 155 -10 0 -6 -43 -10 -107 -10 -181 0 -214 -13 -143 -54 31 -18 38 -18 124 -6 124 19 180 17 252 -10 l62 -22 35 -82 c20 -44 51 -120 70 -168 36 -92 35 -98 -16 -98 -16 0 -11 -6 19 -19 48 -22 56 -41 109 -244 43 -170 44 -175 10 -153 -34 22 -31 12 9 -36 31 -35 37 -53 60 -176 14 -75 28 -162 32 -192 3 -30 10 -72 15 -92 5 -21 11 -65 13 -98 3 -34 9 -67 15 -74 6 -7 20 -38 31 -67 l20 -54 -6 75 c-3 41 -16 143 -27 225 -14 97 -20 169 -16 205 4 30 2 73 -4 95 -9 38 -11 39 -18 15 -4 -14 -7 -22 -8 -17 -1 4 -14 69 -30 145 -16 75 -29 154 -28 174 1 23 -5 43 -14 50 -9 7 -24 45 -34 83 -28 109 -90 284 -149 420 -29 68 -56 139 -60 158 -6 33 -4 37 37 67 43 31 137 147 137 169 0 25 -30 8 -81 -46 -30 -32 -65 -71 -77 -87 -12 -16 -25 -27 -27 -24 -3 3 34 47 82 97 67 72 83 95 72 102 -21 13 -41 11 -72 -10 -32 -21 -97 -107 -97 -128 0 -7 -5 -13 -10 -13 -16 0 -24 28 -12 43 9 11 118 296 124 326 2 7 -2 15 -9 18 -15 5 -87 -180 -123 -314 -6 -24 -15 -43 -20 -43 -13 0 -13 -1 15 98 28 103 44 147 79 225 25 56 25 57 5 57 -12 0 -34 -13 -49 -30 -15 -16 -30 -30 -33 -30 -3 0 -8 17 -12 37 -12 65 -64 147 -82 130 -3 -4 0 -68 7 -144 7 -76 11 -151 8 -168 -2 -16 -7 11 -12 60 -11 134 -44 368 -56 400 -26 68 -80 115 -107 93 -9 -7 -13 -7 -13 1 0 15 -11 14 -36 -3z m53 -93 c-2 -16 -4 -3 -4 27 0 30 2 43 4 28 2 -16 2 -40 0 -55z m21 -158 c0 -22 -3 -18 -9 15 -4 25 -7 59 -7 75 0 22 3 18 9 -15 4 -25 7 -58 7 -75z m159 -457 c-2 -18 -4 -6 -4 27 0 33 2 48 4 33 2 -15 2 -42 0 -60z" transform="translate(0,271) scale(0.1,-0.1)" stroke="none" fill="#82786C"/>

</g>

<g id="1" transform="translate(0,271.0)scale(0.8,0.8)">

<path d="M286 1413 c-14 -14 -5 -62 19 -97 l25 -37 -46 7 c-41 6 -46 5 -41 -9 5 -14 -6 -17 -76 -19 -78 -3 -82 -4 -85 -27 -3 -19 0 -22 13 -17 38 14 212 7 303 -13 89 -19 146 -40 112 -41 -8 0 -37 7 -65 16 -59 18 -240 33 -314 26 -60 -5 -65 -21 -18 -56 27 -20 41 -21 210 -21 165 0 182 -2 185 -17 2 -12 -3 -18 -14 -18 -9 0 -42 -8 -73 -17 l-56 -18 43 -5 42 -5 -101 -55 c-116 -62 -136 -76 -128 -85 4 -3 34 13 69 35 34 23 64 39 67 36 3 -3 -9 -13 -27 -23 -18 -10 -47 -30 -64 -45 -26 -23 -29 -29 -16 -38 26 -17 66 -11 106 16 21 15 41 29 44 33 8 10 113 96 138 113 21 15 62 14 62 -1 0 -3 -14 -19 -31 -35 -16 -17 -28 -35 -25 -42 2 -6 -4 -24 -15 -40 -20 -31 -26 -74 -9 -74 6 0 10 8 10 18 0 21 52 129 79 162 35 43 33 15 -4 -45 -34 -56 -61 -123 -53 -130 3 -4 18 23 66 121 25 51 39 65 79 79 21 8 33 14 28 15 -11 0 -36 101 -33 130 0 8 0 31 -1 50 -2 29 -4 32 -11 15 -5 -11 -9 -37 -9 -57 -1 -46 -21 -51 -22 -5 -1 17 -4 43 -8 57 l-7 25 -8 -23 c-4 -12 -5 -36 -1 -52 6 -25 4 -29 -10 -24 -10 4 -21 1 -26 -7 -6 -11 -14 -7 -36 17 -69 79 -256 238 -267 227z m243 -356 c-11 -10 -139 -65 -139 -61 0 6 121 64 134 64 5 0 7 -2 5 -3z" transform="translate(0,271) scale(0.1,-0.1)" stroke="none" fill="#82786C"/>

<path d="M1263 1872 c-21 -3 -20 -5 16 -85 35 -75 67 -175 59 -183 -2 -2 -14 28 -27 67 -44 127 -33 64 19 -111 28 -94 54 -179 57 -188 2 -10 -5 -2 -17 16 -27 40 -31 40 -20 3 6 -21 4 -33 -4 -40 -16 -13 -26 -4 -26 23 0 32 -44 118 -74 145 -20 19 -30 22 -46 15 -20 -9 -20 -10 12 -49 53 -63 101 -144 94 -160 -3 -8 -1 -17 3 -20 12 -7 32 -129 25 -151 -4 -14 -2 -14 8 3 7 12 33 37 58 57 42 34 49 36 118 36 59 0 77 4 94 20 19 17 19 20 5 26 -17 6 -116 -8 -151 -22 -14 -5 -17 -3 -14 7 2 8 31 20 63 28 33 8 68 23 79 33 19 18 19 18 -23 18 -23 0 -60 -9 -82 -20 -36 -19 -39 -19 -28 -3 10 16 56 49 201 140 45 28 71 64 62 87 -3 9 -9 16 -13 16 -14 0 -141 -105 -213 -177 -43 -42 -78 -71 -78 -64 0 18 144 155 218 208 34 25 59 49 56 54 -3 6 -15 4 -27 -5 -50 -36 -57 -38 -57 -16 0 27 -6 26 -56 -16 -24 -19 -44 -34 -44 -32 0 2 11 35 25 73 24 69 31 119 19 149 -12 31 -32 15 -60 -49 -15 -35 -30 -62 -32 -60 -2 2 9 33 26 69 36 78 30 95 -12 29 l-29 -48 -12 28 -12 29 -15 -34 c-9 -18 -18 -40 -20 -48 -2 -8 -10 15 -17 50 -22 111 -57 161 -108 152z m181 -306 c-10 -31 -19 -54 -22 -52 -2 2 4 29 14 60 10 31 19 54 22 52 2 -2 -4 -29 -14 -60z m-87 -38 c-3 -8 -6 -5 -6 6 -1 11 2 17 5 13 3 -3 4 -12 1 -19z m60 -50 c-3 -8 -6 -5 -6 6 -1 11 2 17 5 13 3 -3 4 -12 1 -19z" transform="translate(0,271) scale(0.1,-0.1)" stroke="none" fill="#82786C"/>

<path d="M464 2596 c-34 -24 -48 -85 -41 -178 3 -46 13 -104 21 -130 8 -27 13 -48 12 -48 -1 0 -19 9 -41 20 -41 21 -70 25 -79 12 -6 -11 81 -158 136 -230 23 -30 75 -89 115 -130 39 -42 70 -78 67 -81 -8 -9 -124 112 -186 193 -33 44 -80 115 -105 158 -47 80 -65 93 -83 59 -52 -98 91 -280 336 -427 34 -20 7 -27 -43 -10 -131 43 -271 22 -273 -41 0 -10 37 -13 155 -13 97 0 155 -4 155 -10 0 -6 -43 -10 -107 -10 -181 0 -214 -13 -143 -54 31 -18 38 -18 124 -6 124 19 180 17 252 -10 l62 -22 35 -82 c20 -44 51 -120 70 -168 36 -92 35 -98 -16 -98 -16 0 -11 -6 19 -19 48 -22 56 -41 109 -244 43 -170 44 -175 10 -153 -34 22 -31 12 9 -36 31 -35 37 -53 60 -176 14 -75 28 -162 32 -192 3 -30 10 -72 15 -92 5 -21 11 -65 13 -98 3 -34 9 -67 15 -74 6 -7 20 -38 31 -67 l20 -54 -6 75 c-3 41 -16 143 -27 225 -14 97 -20 169 -16 205 4 30 2 73 -4 95 -9 38 -11 39 -18 15 -4 -14 -7 -22 -8 -17 -1 4 -14 69 -30 145 -16 75 -29 154 -28 174 1 23 -5 43 -14 50 -9 7 -24 45 -34 83 -28 109 -90 284 -149 420 -29 68 -56 139 -60 158 -6 33 -4 37 37 67 43 31 137 147 137 169 0 25 -30 8 -81 -46 -30 -32 -65 -71 -77 -87 -12 -16 -25 -27 -27 -24 -3 3 34 47 82 97 67 72 83 95 72 102 -21 13 -41 11 -72 -10 -32 -21 -97 -107 -97 -128 0 -7 -5 -13 -10 -13 -16 0 -24 28 -12 43 9 11 118 296 124 326 2 7 -2 15 -9 18 -15 5 -87 -180 -123 -314 -6 -24 -15 -43 -20 -43 -13 0 -13 -1 15 98 28 103 44 147 79 225 25 56 25 57 5 57 -12 0 -34 -13 -49 -30 -15 -16 -30 -30 -33 -30 -3 0 -8 17 -12 37 -12 65 -64 147 -82 130 -3 -4 0 -68 7 -144 7 -76 11 -151 8 -168 -2 -16 -7 11 -12 60 -11 134 -44 368 -56 400 -26 68 -80 115 -107 93 -9 -7 -13 -7 -13 1 0 15 -11 14 -36 -3z m53 -93 c-2 -16 -4 -3 -4 27 0 30 2 43 4 28 2 -16 2 -40 0 -55z m21 -158 c0 -22 -3 -18 -9 15 -4 25 -7 59 -7 75 0 22 3 18 9 -15 4 -25 7 -58 7 -75z m159 -457 c-2 -18 -4 -6 -4 27 0 33 2 48 4 33 2 -15 2 -42 0 -60z" transform="translate(0,271) scale(0.1,-0.1)" stroke="none" fill="#82786C"/>

</g>

<g id="2" transform="translate(0,542.0)scale(0.8,0.8)">

<path d="M286 1413 c-14 -14 -5 -62 19 -97 l25 -37 -46 7 c-41 6 -46 5 -41 -9 5 -14 -6 -17 -76 -19 -78 -3 -82 -4 -85 -27 -3 -19 0 -22 13 -17 38 14 212 7 303 -13 89 -19 146 -40 112 -41 -8 0 -37 7 -65 16 -59 18 -240 33 -314 26 -60 -5 -65 -21 -18 -56 27 -20 41 -21 210 -21 165 0 182 -2 185 -17 2 -12 -3 -18 -14 -18 -9 0 -42 -8 -73 -17 l-56 -18 43 -5 42 -5 -101 -55 c-116 -62 -136 -76 -128 -85 4 -3 34 13 69 35 34 23 64 39 67 36 3 -3 -9 -13 -27 -23 -18 -10 -47 -30 -64 -45 -26 -23 -29 -29 -16 -38 26 -17 66 -11 106 16 21 15 41 29 44 33 8 10 113 96 138 113 21 15 62 14 62 -1 0 -3 -14 -19 -31 -35 -16 -17 -28 -35 -25 -42 2 -6 -4 -24 -15 -40 -20 -31 -26 -74 -9 -74 6 0 10 8 10 18 0 21 52 129 79 162 35 43 33 15 -4 -45 -34 -56 -61 -123 -53 -130 3 -4 18 23 66 121 25 51 39 65 79 79 21 8 33 14 28 15 -11 0 -36 101 -33 130 0 8 0 31 -1 50 -2 29 -4 32 -11 15 -5 -11 -9 -37 -9 -57 -1 -46 -21 -51 -22 -5 -1 17 -4 43 -8 57 l-7 25 -8 -23 c-4 -12 -5 -36 -1 -52 6 -25 4 -29 -10 -24 -10 4 -21 1 -26 -7 -6 -11 -14 -7 -36 17 -69 79 -256 238 -267 227z m243 -356 c-11 -10 -139 -65 -139 -61 0 6 121 64 134 64 5 0 7 -2 5 -3z" transform="translate(0,271) scale(0.1,-0.1)" stroke="none" fill="#82786C"/>

<path d="M1263 1872 c-21 -3 -20 -5 16 -85 35 -75 67 -175 59 -183 -2 -2 -14 28 -27 67 -44 127 -33 64 19 -111 28 -94 54 -179 57 -188 2 -10 -5 -2 -17 16 -27 40 -31 40 -20 3 6 -21 4 -33 -4 -40 -16 -13 -26 -4 -26 23 0 32 -44 118 -74 145 -20 19 -30 22 -46 15 -20 -9 -20 -10 12 -49 53 -63 101 -144 94 -160 -3 -8 -1 -17 3 -20 12 -7 32 -129 25 -151 -4 -14 -2 -14 8 3 7 12 33 37 58 57 42 34 49 36 118 36 59 0 77 4 94 20 19 17 19 20 5 26 -17 6 -116 -8 -151 -22 -14 -5 -17 -3 -14 7 2 8 31 20 63 28 33 8 68 23 79 33 19 18 19 18 -23 18 -23 0 -60 -9 -82 -20 -36 -19 -39 -19 -28 -3 10 16 56 49 201 140 45 28 71 64 62 87 -3 9 -9 16 -13 16 -14 0 -141 -105 -213 -177 -43 -42 -78 -71 -78 -64 0 18 144 155 218 208 34 25 59 49 56 54 -3 6 -15 4 -27 -5 -50 -36 -57 -38 -57 -16 0 27 -6 26 -56 -16 -24 -19 -44 -34 -44 -32 0 2 11 35 25 73 24 69 31 119 19 149 -12 31 -32 15 -60 -49 -15 -35 -30 -62 -32 -60 -2 2 9 33 26 69 36 78 30 95 -12 29 l-29 -48 -12 28 -12 29 -15 -34 c-9 -18 -18 -40 -20 -48 -2 -8 -10 15 -17 50 -22 111 -57 161 -108 152z m181 -306 c-10 -31 -19 -54 -22 -52 -2 2 4 29 14 60 10 31 19 54 22 52 2 -2 -4 -29 -14 -60z m-87 -38 c-3 -8 -6 -5 -6 6 -1 11 2 17 5 13 3 -3 4 -12 1 -19z m60 -50 c-3 -8 -6 -5 -6 6 -1 11 2 17 5 13 3 -3 4 -12 1 -19z" transform="translate(0,271) scale(0.1,-0.1)" stroke="none" fill="#82786C"/>

<path d="M464 2596 c-34 -24 -48 -85 -41 -178 3 -46 13 -104 21 -130 8 -27 13 -48 12 -48 -1 0 -19 9 -41 20 -41 21 -70 25 -79 12 -6 -11 81 -158 136 -230 23 -30 75 -89 115 -130 39 -42 70 -78 67 -81 -8 -9 -124 112 -186 193 -33 44 -80 115 -105 158 -47 80 -65 93 -83 59 -52 -98 91 -280 336 -427 34 -20 7 -27 -43 -10 -131 43 -271 22 -273 -41 0 -10 37 -13 155 -13 97 0 155 -4 155 -10 0 -6 -43 -10 -107 -10 -181 0 -214 -13 -143 -54 31 -18 38 -18 124 -6 124 19 180 17 252 -10 l62 -22 35 -82 c20 -44 51 -120 70 -168 36 -92 35 -98 -16 -98 -16 0 -11 -6 19 -19 48 -22 56 -41 109 -244 43 -170 44 -175 10 -153 -34 22 -31 12 9 -36 31 -35 37 -53 60 -176 14 -75 28 -162 32 -192 3 -30 10 -72 15 -92 5 -21 11 -65 13 -98 3 -34 9 -67 15 -74 6 -7 20 -38 31 -67 l20 -54 -6 75 c-3 41 -16 143 -27 225 -14 97 -20 169 -16 205 4 30 2 73 -4 95 -9 38 -11 39 -18 15 -4 -14 -7 -22 -8 -17 -1 4 -14 69 -30 145 -16 75 -29 154 -28 174 1 23 -5 43 -14 50 -9 7 -24 45 -34 83 -28 109 -90 284 -149 420 -29 68 -56 139 -60 158 -6 33 -4 37 37 67 43 31 137 147 137 169 0 25 -30 8 -81 -46 -30 -32 -65 -71 -77 -87 -12 -16 -25 -27 -27 -24 -3 3 34 47 82 97 67 72 83 95 72 102 -21 13 -41 11 -72 -10 -32 -21 -97 -107 -97 -128 0 -7 -5 -13 -10 -13 -16 0 -24 28 -12 43 9 11 118 296 124 326 2 7 -2 15 -9 18 -15 5 -87 -180 -123 -314 -6 -24 -15 -43 -20 -43 -13 0 -13 -1 15 98 28 103 44 147 79 225 25 56 25 57 5 57 -12 0 -34 -13 -49 -30 -15 -16 -30 -30 -33 -30 -3 0 -8 17 -12 37 -12 65 -64 147 -82 130 -3 -4 0 -68 7 -144 7 -76 11 -151 8 -168 -2 -16 -7 11 -12 60 -11 134 -44 368 -56 400 -26 68 -80 115 -107 93 -9 -7 -13 -7 -13 1 0 15 -11 14 -36 -3z m53 -93 c-2 -16 -4 -3 -4 27 0 30 2 43 4 28 2 -16 2 -40 0 -55z m21 -158 c0 -22 -3 -18 -9 15 -4 25 -7 59 -7 75 0 22 3 18 9 -15 4 -25 7 -58 7 -75z m159 -457 c-2 -18 -4 -6 -4 27 0 33 2 48 4 33 2 -15 2 -42 0 -60z" transform="translate(0,271) scale(0.1,-0.1)" stroke="none" fill="#82786C"/>

</g>

<g id="3" transform="translate(0,813.0)scale(0.8,0.8)">

<path d="M286 1413 c-14 -14 -5 -62 19 -97 l25 -37 -46 7 c-41 6 -46 5 -41 -9 5 -14 -6 -17 -76 -19 -78 -3 -82 -4 -85 -27 -3 -19 0 -22 13 -17 38 14 212 7 303 -13 89 -19 146 -40 112 -41 -8 0 -37 7 -65 16 -59 18 -240 33 -314 26 -60 -5 -65 -21 -18 -56 27 -20 41 -21 210 -21 165 0 182 -2 185 -17 2 -12 -3 -18 -14 -18 -9 0 -42 -8 -73 -17 l-56 -18 43 -5 42 -5 -101 -55 c-116 -62 -136 -76 -128 -85 4 -3 34 13 69 35 34 23 64 39 67 36 3 -3 -9 -13 -27 -23 -18 -10 -47 -30 -64 -45 -26 -23 -29 -29 -16 -38 26 -17 66 -11 106 16 21 15 41 29 44 33 8 10 113 96 138 113 21 15 62 14 62 -1 0 -3 -14 -19 -31 -35 -16 -17 -28 -35 -25 -42 2 -6 -4 -24 -15 -40 -20 -31 -26 -74 -9 -74 6 0 10 8 10 18 0 21 52 129 79 162 35 43 33 15 -4 -45 -34 -56 -61 -123 -53 -130 3 -4 18 23 66 121 25 51 39 65 79 79 21 8 33 14 28 15 -11 0 -36 101 -33 130 0 8 0 31 -1 50 -2 29 -4 32 -11 15 -5 -11 -9 -37 -9 -57 -1 -46 -21 -51 -22 -5 -1 17 -4 43 -8 57 l-7 25 -8 -23 c-4 -12 -5 -36 -1 -52 6 -25 4 -29 -10 -24 -10 4 -21 1 -26 -7 -6 -11 -14 -7 -36 17 -69 79 -256 238 -267 227z m243 -356 c-11 -10 -139 -65 -139 -61 0 6 121 64 134 64 5 0 7 -2 5 -3z" transform="translate(0,271) scale(0.1,-0.1)" stroke="none" fill="#82786C"/>

<path d="M1263 1872 c-21 -3 -20 -5 16 -85 35 -75 67 -175 59 -183 -2 -2 -14 28 -27 67 -44 127 -33 64 19 -111 28 -94 54 -179 57 -188 2 -10 -5 -2 -17 16 -27 40 -31 40 -20 3 6 -21 4 -33 -4 -40 -16 -13 -26 -4 -26 23 0 32 -44 118 -74 145 -20 19 -30 22 -46 15 -20 -9 -20 -10 12 -49 53 -63 101 -144 94 -160 -3 -8 -1 -17 3 -20 12 -7 32 -129 25 -151 -4 -14 -2 -14 8 3 7 12 33 37 58 57 42 34 49 36 118 36 59 0 77 4 94 20 19 17 19 20 5 26 -17 6 -116 -8 -151 -22 -14 -5 -17 -3 -14 7 2 8 31 20 63 28 33 8 68 23 79 33 19 18 19 18 -23 18 -23 0 -60 -9 -82 -20 -36 -19 -39 -19 -28 -3 10 16 56 49 201 140 45 28 71 64 62 87 -3 9 -9 16 -13 16 -14 0 -141 -105 -213 -177 -43 -42 -78 -71 -78 -64 0 18 144 155 218 208 34 25 59 49 56 54 -3 6 -15 4 -27 -5 -50 -36 -57 -38 -57 -16 0 27 -6 26 -56 -16 -24 -19 -44 -34 -44 -32 0 2 11 35 25 73 24 69 31 119 19 149 -12 31 -32 15 -60 -49 -15 -35 -30 -62 -32 -60 -2 2 9 33 26 69 36 78 30 95 -12 29 l-29 -48 -12 28 -12 29 -15 -34 c-9 -18 -18 -40 -20 -48 -2 -8 -10 15 -17 50 -22 111 -57 161 -108 152z m181 -306 c-10 -31 -19 -54 -22 -52 -2 2 4 29 14 60 10 31 19 54 22 52 2 -2 -4 -29 -14 -60z m-87 -38 c-3 -8 -6 -5 -6 6 -1 11 2 17 5 13 3 -3 4 -12 1 -19z m60 -50 c-3 -8 -6 -5 -6 6 -1 11 2 17 5 13 3 -3 4 -12 1 -19z" transform="translate(0,271) scale(0.1,-0.1)" stroke="none" fill="#82786C"/>

<path d="M464 2596 c-34 -24 -48 -85 -41 -178 3 -46 13 -104 21 -130 8 -27 13 -48 12 -48 -1 0 -19 9 -41 20 -41 21 -70 25 -79 12 -6 -11 81 -158 136 -230 23 -30 75 -89 115 -130 39 -42 70 -78 67 -81 -8 -9 -124 112 -186 193 -33 44 -80 115 -105 158 -47 80 -65 93 -83 59 -52 -98 91 -280 336 -427 34 -20 7 -27 -43 -10 -131 43 -271 22 -273 -41 0 -10 37 -13 155 -13 97 0 155 -4 155 -10 0 -6 -43 -10 -107 -10 -181 0 -214 -13 -143 -54 31 -18 38 -18 124 -6 124 19 180 17 252 -10 l62 -22 35 -82 c20 -44 51 -120 70 -168 36 -92 35 -98 -16 -98 -16 0 -11 -6 19 -19 48 -22 56 -41 109 -244 43 -170 44 -175 10 -153 -34 22 -31 12 9 -36 31 -35 37 -53 60 -176 14 -75 28 -162 32 -192 3 -30 10 -72 15 -92 5 -21 11 -65 13 -98 3 -34 9 -67 15 -74 6 -7 20 -38 31 -67 l20 -54 -6 75 c-3 41 -16 143 -27 225 -14 97 -20 169 -16 205 4 30 2 73 -4 95 -9 38 -11 39 -18 15 -4 -14 -7 -22 -8 -17 -1 4 -14 69 -30 145 -16 75 -29 154 -28 174 1 23 -5 43 -14 50 -9 7 -24 45 -34 83 -28 109 -90 284 -149 420 -29 68 -56 139 -60 158 -6 33 -4 37 37 67 43 31 137 147 137 169 0 25 -30 8 -81 -46 -30 -32 -65 -71 -77 -87 -12 -16 -25 -27 -27 -24 -3 3 34 47 82 97 67 72 83 95 72 102 -21 13 -41 11 -72 -10 -32 -21 -97 -107 -97 -128 0 -7 -5 -13 -10 -13 -16 0 -24 28 -12 43 9 11 118 296 124 326 2 7 -2 15 -9 18 -15 5 -87 -180 -123 -314 -6 -24 -15 -43 -20 -43 -13 0 -13 -1 15 98 28 103 44 147 79 225 25 56 25 57 5 57 -12 0 -34 -13 -49 -30 -15 -16 -30 -30 -33 -30 -3 0 -8 17 -12 37 -12 65 -64 147 -82 130 -3 -4 0 -68 7 -144 7 -76 11 -151 8 -168 -2 -16 -7 11 -12 60 -11 134 -44 368 -56 400 -26 68 -80 115 -107 93 -9 -7 -13 -7 -13 1 0 15 -11 14 -36 -3z m53 -93 c-2 -16 -4 -3 -4 27 0 30 2 43 4 28 2 -16 2 -40 0 -55z m21 -158 c0 -22 -3 -18 -9 15 -4 25 -7 59 -7 75 0 22 3 18 9 -15 4 -25 7 -58 7 -75z m159 -457 c-2 -18 -4 -6 -4 27 0 33 2 48 4 33 2 -15 2 -42 0 -60z" transform="translate(0,271) scale(0.1,-0.1)" stroke="none" fill="#82786C"/>

</g>

<g id="4" transform="translate(0,1084.0)scale(0.8,0.8)">

<path d="M286 1413 c-14 -14 -5 -62 19 -97 l25 -37 -46 7 c-41 6 -46 5 -41 -9 5 -14 -6 -17 -76 -19 -78 -3 -82 -4 -85 -27 -3 -19 0 -22 13 -17 38 14 212 7 303 -13 89 -19 146 -40 112 -41 -8 0 -37 7 -65 16 -59 18 -240 33 -314 26 -60 -5 -65 -21 -18 -56 27 -20 41 -21 210 -21 165 0 182 -2 185 -17 2 -12 -3 -18 -14 -18 -9 0 -42 -8 -73 -17 l-56 -18 43 -5 42 -5 -101 -55 c-116 -62 -136 -76 -128 -85 4 -3 34 13 69 35 34 23 64 39 67 36 3 -3 -9 -13 -27 -23 -18 -10 -47 -30 -64 -45 -26 -23 -29 -29 -16 -38 26 -17 66 -11 106 16 21 15 41 29 44 33 8 10 113 96 138 113 21 15 62 14 62 -1 0 -3 -14 -19 -31 -35 -16 -17 -28 -35 -25 -42 2 -6 -4 -24 -15 -40 -20 -31 -26 -74 -9 -74 6 0 10 8 10 18 0 21 52 129 79 162 35 43 33 15 -4 -45 -34 -56 -61 -123 -53 -130 3 -4 18 23 66 121 25 51 39 65 79 79 21 8 33 14 28 15 -11 0 -36 101 -33 130 0 8 0 31 -1 50 -2 29 -4 32 -11 15 -5 -11 -9 -37 -9 -57 -1 -46 -21 -51 -22 -5 -1 17 -4 43 -8 57 l-7 25 -8 -23 c-4 -12 -5 -36 -1 -52 6 -25 4 -29 -10 -24 -10 4 -21 1 -26 -7 -6 -11 -14 -7 -36 17 -69 79 -256 238 -267 227z m243 -356 c-11 -10 -139 -65 -139 -61 0 6 121 64 134 64 5 0 7 -2 5 -3z" transform="translate(0,271) scale(0.1,-0.1)" stroke="none" fill="#82786C"/>

<path d="M1263 1872 c-21 -3 -20 -5 16 -85 35 -75 67 -175 59 -183 -2 -2 -14 28 -27 67 -44 127 -33 64 19 -111 28 -94 54 -179 57 -188 2 -10 -5 -2 -17 16 -27 40 -31 40 -20 3 6 -21 4 -33 -4 -40 -16 -13 -26 -4 -26 23 0 32 -44 118 -74 145 -20 19 -30 22 -46 15 -20 -9 -20 -10 12 -49 53 -63 101 -144 94 -160 -3 -8 -1 -17 3 -20 12 -7 32 -129 25 -151 -4 -14 -2 -14 8 3 7 12 33 37 58 57 42 34 49 36 118 36 59 0 77 4 94 20 19 17 19 20 5 26 -17 6 -116 -8 -151 -22 -14 -5 -17 -3 -14 7 2 8 31 20 63 28 33 8 68 23 79 33 19 18 19 18 -23 18 -23 0 -60 -9 -82 -20 -36 -19 -39 -19 -28 -3 10 16 56 49 201 140 45 28 71 64 62 87 -3 9 -9 16 -13 16 -14 0 -141 -105 -213 -177 -43 -42 -78 -71 -78 -64 0 18 144 155 218 208 34 25 59 49 56 54 -3 6 -15 4 -27 -5 -50 -36 -57 -38 -57 -16 0 27 -6 26 -56 -16 -24 -19 -44 -34 -44 -32 0 2 11 35 25 73 24 69 31 119 19 149 -12 31 -32 15 -60 -49 -15 -35 -30 -62 -32 -60 -2 2 9 33 26 69 36 78 30 95 -12 29 l-29 -48 -12 28 -12 29 -15 -34 c-9 -18 -18 -40 -20 -48 -2 -8 -10 15 -17 50 -22 111 -57 161 -108 152z m181 -306 c-10 -31 -19 -54 -22 -52 -2 2 4 29 14 60 10 31 19 54 22 52 2 -2 -4 -29 -14 -60z m-87 -38 c-3 -8 -6 -5 -6 6 -1 11 2 17 5 13 3 -3 4 -12 1 -19z m60 -50 c-3 -8 -6 -5 -6 6 -1 11 2 17 5 13 3 -3 4 -12 1 -19z" transform="translate(0,271) scale(0.1,-0.1)" stroke="none" fill="#82786C"/>

<path d="M464 2596 c-34 -24 -48 -85 -41 -178 3 -46 13 -104 21 -130 8 -27 13 -48 12 -48 -1 0 -19 9 -41 20 -41 21 -70 25 -79 12 -6 -11 81 -158 136 -230 23 -30 75 -89 115 -130 39 -42 70 -78 67 -81 -8 -9 -124 112 -186 193 -33 44 -80 115 -105 158 -47 80 -65 93 -83 59 -52 -98 91 -280 336 -427 34 -20 7 -27 -43 -10 -131 43 -271 22 -273 -41 0 -10 37 -13 155 -13 97 0 155 -4 155 -10 0 -6 -43 -10 -107 -10 -181 0 -214 -13 -143 -54 31 -18 38 -18 124 -6 124 19 180 17 252 -10 l62 -22 35 -82 c20 -44 51 -120 70 -168 36 -92 35 -98 -16 -98 -16 0 -11 -6 19 -19 48 -22 56 -41 109 -244 43 -170 44 -175 10 -153 -34 22 -31 12 9 -36 31 -35 37 -53 60 -176 14 -75 28 -162 32 -192 3 -30 10 -72 15 -92 5 -21 11 -65 13 -98 3 -34 9 -67 15 -74 6 -7 20 -38 31 -67 l20 -54 -6 75 c-3 41 -16 143 -27 225 -14 97 -20 169 -16 205 4 30 2 73 -4 95 -9 38 -11 39 -18 15 -4 -14 -7 -22 -8 -17 -1 4 -14 69 -30 145 -16 75 -29 154 -28 174 1 23 -5 43 -14 50 -9 7 -24 45 -34 83 -28 109 -90 284 -149 420 -29 68 -56 139 -60 158 -6 33 -4 37 37 67 43 31 137 147 137 169 0 25 -30 8 -81 -46 -30 -32 -65 -71 -77 -87 -12 -16 -25 -27 -27 -24 -3 3 34 47 82 97 67 72 83 95 72 102 -21 13 -41 11 -72 -10 -32 -21 -97 -107 -97 -128 0 -7 -5 -13 -10 -13 -16 0 -24 28 -12 43 9 11 118 296 124 326 2 7 -2 15 -9 18 -15 5 -87 -180 -123 -314 -6 -24 -15 -43 -20 -43 -13 0 -13 -1 15 98 28 103 44 147 79 225 25 56 25 57 5 57 -12 0 -34 -13 -49 -30 -15 -16 -30 -30 -33 -30 -3 0 -8 17 -12 37 -12 65 -64 147 -82 130 -3 -4 0 -68 7 -144 7 -76 11 -151 8 -168 -2 -16 -7 11 -12 60 -11 134 -44 368 -56 400 -26 68 -80 115 -107 93 -9 -7 -13 -7 -13 1 0 15 -11 14 -36 -3z m53 -93 c-2 -16 -4 -3 -4 27 0 30 2 43 4 28 2 -16 2 -40 0 -55z m21 -158 c0 -22 -3 -18 -9 15 -4 25 -7 59 -7 75 0 22 3 18 9 -15 4 -25 7 -58 7 -75z m159 -457 c-2 -18 -4 -6 -4 27 0 33 2 48 4 33 2 -15 2 -42 0 -60z" transform="translate(0,271) scale(0.1,-0.1)" stroke="none" fill="#82786C"/>

</g>

</g>
<g id="col2" transform="translate(364, 36)">
<g id="0" transform="translate(0,0.0)scale(0.8,0.8)">

<path d="M286 1413 c-14 -14 -5 -62 19 -97 l25 -37 -46 7 c-41 6 -46 5 -41 -9 5 -14 -6 -17 -76 -19 -78 -3 -82 -4 -85 -27 -3 -19 0 -22 13 -17 38 14 212 7 303 -13 89 -19 146 -40 112 -41 -8 0 -37 7 -65 16 -59 18 -240 33 -314 26 -60 -5 -65 -21 -18 -56 27 -20 41 -21 210 -21 165 0 182 -2 185 -17 2 -12 -3 -18 -14 -18 -9 0 -42 -8 -73 -17 l-56 -18 43 -5 42 -5 -101 -55 c-116 -62 -136 -76 -128 -85 4 -3 34 13 69 35 34 23 64 39 67 36 3 -3 -9 -13 -27 -23 -18 -10 -47 -30 -64 -45 -26 -23 -29 -29 -16 -38 26 -17 66 -11 106 16 21 15 41 29 44 33 8 10 113 96 138 113 21 15 62 14 62 -1 0 -3 -14 -19 -31 -35 -16 -17 -28 -35 -25 -42 2 -6 -4 -24 -15 -40 -20 -31 -26 -74 -9 -74 6 0 10 8 10 18 0 21 52 129 79 162 35 43 33 15 -4 -45 -34 -56 -61 -123 -53 -130 3 -4 18 23 66 121 25 51 39 65 79 79 21 8 33 14 28 15 -11 0 -36 101 -33 130 0 8 0 31 -1 50 -2 29 -4 32 -11 15 -5 -11 -9 -37 -9 -57 -1 -46 -21 -51 -22 -5 -1 17 -4 43 -8 57 l-7 25 -8 -23 c-4 -12 -5 -36 -1 -52 6 -25 4 -29 -10 -24 -10 4 -21 1 -26 -7 -6 -11 -14 -7 -36 17 -69 79 -256 238 -267 227z m243 -356 c-11 -10 -139 -65 -139 -61 0 6 121 64 134 64 5 0 7 -2 5 -3z" transform="translate(0,271) scale(0.1,-0.1)" stroke="none" fill="#82786C"/>

<path d="M1263 1872 c-21 -3 -20 -5 16 -85 35 -75 67 -175 59 -183 -2 -2 -14 28 -27 67 -44 127 -33 64 19 -111 28 -94 54 -179 57 -188 2 -10 -5 -2 -17 16 -27 40 -31 40 -20 3 6 -21 4 -33 -4 -40 -16 -13 -26 -4 -26 23 0 32 -44 118 -74 145 -20 19 -30 22 -46 15 -20 -9 -20 -10 12 -49 53 -63 101 -144 94 -160 -3 -8 -1 -17 3 -20 12 -7 32 -129 25 -151 -4 -14 -2 -14 8 3 7 12 33 37 58 57 42 34 49 36 118 36 59 0 77 4 94 20 19 17 19 20 5 26 -17 6 -116 -8 -151 -22 -14 -5 -17 -3 -14 7 2 8 31 20 63 28 33 8 68 23 79 33 19 18 19 18 -23 18 -23 0 -60 -9 -82 -20 -36 -19 -39 -19 -28 -3 10 16 56 49 201 140 45 28 71 64 62 87 -3 9 -9 16 -13 16 -14 0 -141 -105 -213 -177 -43 -42 -78 -71 -78 -64 0 18 144 155 218 208 34 25 59 49 56 54 -3 6 -15 4 -27 -5 -50 -36 -57 -38 -57 -16 0 27 -6 26 -56 -16 -24 -19 -44 -34 -44 -32 0 2 11 35 25 73 24 69 31 119 19 149 -12 31 -32 15 -60 -49 -15 -35 -30 -62 -32 -60 -2 2 9 33 26 69 36 78 30 95 -12 29 l-29 -48 -12 28 -12 29 -15 -34 c-9 -18 -18 -40 -20 -48 -2 -8 -10 15 -17 50 -22 111 -57 161 -108 152z m181 -306 c-10 -31 -19 -54 -22 -52 -2 2 4 29 14 60 10 31 19 54 22 52 2 -2 -4 -29 -14 -60z m-87 -38 c-3 -8 -6 -5 -6 6 -1 11 2 17 5 13 3 -3 4 -12 1 -19z m60 -50 c-3 -8 -6 -5 -6 6 -1 11 2 17 5 13 3 -3 4 -12 1 -19z" transform="translate(0,271) scale(0.1,-0.1)" stroke="none" fill="#82786C"/>

<path d="M464 2596 c-34 -24 -48 -85 -41 -178 3 -46 13 -104 21 -130 8 -27 13 -48 12 -48 -1 0 -19 9 -41 20 -41 21 -70 25 -79 12 -6 -11 81 -158 136 -230 23 -30 75 -89 115 -130 39 -42 70 -78 67 -81 -8 -9 -124 112 -186 193 -33 44 -80 115 -105 158 -47 80 -65 93 -83 59 -52 -98 91 -280 336 -427 34 -20 7 -27 -43 -10 -131 43 -271 22 -273 -41 0 -10 37 -13 155 -13 97 0 155 -4 155 -10 0 -6 -43 -10 -107 -10 -181 0 -214 -13 -143 -54 31 -18 38 -18 124 -6 124 19 180 17 252 -10 l62 -22 35 -82 c20 -44 51 -120 70 -168 36 -92 35 -98 -16 -98 -16 0 -11 -6 19 -19 48 -22 56 -41 109 -244 43 -170 44 -175 10 -153 -34 22 -31 12 9 -36 31 -35 37 -53 60 -176 14 -75 28 -162 32 -192 3 -30 10 -72 15 -92 5 -21 11 -65 13 -98 3 -34 9 -67 15 -74 6 -7 20 -38 31 -67 l20 -54 -6 75 c-3 41 -16 143 -27 225 -14 97 -20 169 -16 205 4 30 2 73 -4 95 -9 38 -11 39 -18 15 -4 -14 -7 -22 -8 -17 -1 4 -14 69 -30 145 -16 75 -29 154 -28 174 1 23 -5 43 -14 50 -9 7 -24 45 -34 83 -28 109 -90 284 -149 420 -29 68 -56 139 -60 158 -6 33 -4 37 37 67 43 31 137 147 137 169 0 25 -30 8 -81 -46 -30 -32 -65 -71 -77 -87 -12 -16 -25 -27 -27 -24 -3 3 34 47 82 97 67 72 83 95 72 102 -21 13 -41 11 -72 -10 -32 -21 -97 -107 -97 -128 0 -7 -5 -13 -10 -13 -16 0 -24 28 -12 43 9 11 118 296 124 326 2 7 -2 15 -9 18 -15 5 -87 -180 -123 -314 -6 -24 -15 -43 -20 -43 -13 0 -13 -1 15 98 28 103 44 147 79 225 25 56 25 57 5 57 -12 0 -34 -13 -49 -30 -15 -16 -30 -30 -33 -30 -3 0 -8 17 -12 37 -12 65 -64 147 -82 130 -3 -4 0 -68 7 -144 7 -76 11 -151 8 -168 -2 -16 -7 11 -12 60 -11 134 -44 368 -56 400 -26 68 -80 115 -107 93 -9 -7 -13 -7 -13 1 0 15 -11 14 -36 -3z m53 -93 c-2 -16 -4 -3 -4 27 0 30 2 43 4 28 2 -16 2 -40 0 -55z m21 -158 c0 -22 -3 -18 -9 15 -4 25 -7 59 -7 75 0 22 3 18 9 -15 4 -25 7 -58 7 -75z m159 -457 c-2 -18 -4 -6 -4 27 0 33 2 48 4 33 2 -15 2 -42 0 -60z" transform="translate(0,271) scale(0.1,-0.1)" stroke="none" fill="#82786C"/>

</g>

<g id="1" transform="translate(0,271.0)scale(0.8,0.8)">

<path d="M286 1413 c-14 -14 -5 -62 19 -97 l25 -37 -46 7 c-41 6 -46 5 -41 -9 5 -14 -6 -17 -76 -19 -78 -3 -82 -4 -85 -27 -3 -19 0 -22 13 -17 38 14 212 7 303 -13 89 -19 146 -40 112 -41 -8 0 -37 7 -65 16 -59 18 -240 33 -314 26 -60 -5 -65 -21 -18 -56 27 -20 41 -21 210 -21 165 0 182 -2 185 -17 2 -12 -3 -18 -14 -18 -9 0 -42 -8 -73 -17 l-56 -18 43 -5 42 -5 -101 -55 c-116 -62 -136 -76 -128 -85 4 -3 34 13 69 35 34 23 64 39 67 36 3 -3 -9 -13 -27 -23 -18 -10 -47 -30 -64 -45 -26 -23 -29 -29 -16 -38 26 -17 66 -11 106 16 21 15 41 29 44 33 8 10 113 96 138 113 21 15 62 14 62 -1 0 -3 -14 -19 -31 -35 -16 -17 -28 -35 -25 -42 2 -6 -4 -24 -15 -40 -20 -31 -26 -74 -9 -74 6 0 10 8 10 18 0 21 52 129 79 162 35 43 33 15 -4 -45 -34 -56 -61 -123 -53 -130 3 -4 18 23 66 121 25 51 39 65 79 79 21 8 33 14 28 15 -11 0 -36 101 -33 130 0 8 0 31 -1 50 -2 29 -4 32 -11 15 -5 -11 -9 -37 -9 -57 -1 -46 -21 -51 -22 -5 -1 17 -4 43 -8 57 l-7 25 -8 -23 c-4 -12 -5 -36 -1 -52 6 -25 4 -29 -10 -24 -10 4 -21 1 -26 -7 -6 -11 -14 -7 -36 17 -69 79 -256 238 -267 227z m243 -356 c-11 -10 -139 -65 -139 -61 0 6 121 64 134 64 5 0 7 -2 5 -3z" transform="translate(0,271) scale(0.1,-0.1)" stroke="none" fill="#82786C"/>

<path d="M1263 1872 c-21 -3 -20 -5 16 -85 35 -75 67 -175 59 -183 -2 -2 -14 28 -27 67 -44 127 -33 64 19 -111 28 -94 54 -179 57 -188 2 -10 -5 -2 -17 16 -27 40 -31 40 -20 3 6 -21 4 -33 -4 -40 -16 -13 -26 -4 -26 23 0 32 -44 118 -74 145 -20 19 -30 22 -46 15 -20 -9 -20 -10 12 -49 53 -63 101 -144 94 -160 -3 -8 -1 -17 3 -20 12 -7 32 -129 25 -151 -4 -14 -2 -14 8 3 7 12 33 37 58 57 42 34 49 36 118 36 59 0 77 4 94 20 19 17 19 20 5 26 -17 6 -116 -8 -151 -22 -14 -5 -17 -3 -14 7 2 8 31 20 63 28 33 8 68 23 79 33 19 18 19 18 -23 18 -23 0 -60 -9 -82 -20 -36 -19 -39 -19 -28 -3 10 16 56 49 201 140 45 28 71 64 62 87 -3 9 -9 16 -13 16 -14 0 -141 -105 -213 -177 -43 -42 -78 -71 -78 -64 0 18 144 155 218 208 34 25 59 49 56 54 -3 6 -15 4 -27 -5 -50 -36 -57 -38 -57 -16 0 27 -6 26 -56 -16 -24 -19 -44 -34 -44 -32 0 2 11 35 25 73 24 69 31 119 19 149 -12 31 -32 15 -60 -49 -15 -35 -30 -62 -32 -60 -2 2 9 33 26 69 36 78 30 95 -12 29 l-29 -48 -12 28 -12 29 -15 -34 c-9 -18 -18 -40 -20 -48 -2 -8 -10 15 -17 50 -22 111 -57 161 -108 152z m181 -306 c-10 -31 -19 -54 -22 -52 -2 2 4 29 14 60 10 31 19 54 22 52 2 -2 -4 -29 -14 -60z m-87 -38 c-3 -8 -6 -5 -6 6 -1 11 2 17 5 13 3 -3 4 -12 1 -19z m60 -50 c-3 -8 -6 -5 -6 6 -1 11 2 17 5 13 3 -3 4 -12 1 -19z" transform="translate(0,271) scale(0.1,-0.1)" stroke="none" fill="#82786C"/>

<path d="M464 2596 c-34 -24 -48 -85 -41 -178 3 -46 13 -104 21 -130 8 -27 13 -48 12 -48 -1 0 -19 9 -41 20 -41 21 -70 25 -79 12 -6 -11 81 -158 136 -230 23 -30 75 -89 115 -130 39 -42 70 -78 67 -81 -8 -9 -124 112 -186 193 -33 44 -80 115 -105 158 -47 80 -65 93 -83 59 -52 -98 91 -280 336 -427 34 -20 7 -27 -43 -10 -131 43 -271 22 -273 -41 0 -10 37 -13 155 -13 97 0 155 -4 155 -10 0 -6 -43 -10 -107 -10 -181 0 -214 -13 -143 -54 31 -18 38 -18 124 -6 124 19 180 17 252 -10 l62 -22 35 -82 c20 -44 51 -120 70 -168 36 -92 35 -98 -16 -98 -16 0 -11 -6 19 -19 48 -22 56 -41 109 -244 43 -170 44 -175 10 -153 -34 22 -31 12 9 -36 31 -35 37 -53 60 -176 14 -75 28 -162 32 -192 3 -30 10 -72 15 -92 5 -21 11 -65 13 -98 3 -34 9 -67 15 -74 6 -7 20 -38 31 -67 l20 -54 -6 75 c-3 41 -16 143 -27 225 -14 97 -20 169 -16 205 4 30 2 73 -4 95 -9 38 -11 39 -18 15 -4 -14 -7 -22 -8 -17 -1 4 -14 69 -30 145 -16 75 -29 154 -28 174 1 23 -5 43 -14 50 -9 7 -24 45 -34 83 -28 109 -90 284 -149 420 -29 68 -56 139 -60 158 -6 33 -4 37 37 67 43 31 137 147 137 169 0 25 -30 8 -81 -46 -30 -32 -65 -71 -77 -87 -12 -16 -25 -27 -27 -24 -3 3 34 47 82 97 67 72 83 95 72 102 -21 13 -41 11 -72 -10 -32 -21 -97 -107 -97 -128 0 -7 -5 -13 -10 -13 -16 0 -24 28 -12 43 9 11 118 296 124 326 2 7 -2 15 -9 18 -15 5 -87 -180 -123 -314 -6 -24 -15 -43 -20 -43 -13 0 -13 -1 15 98 28 103 44 147 79 225 25 56 25 57 5 57 -12 0 -34 -13 -49 -30 -15 -16 -30 -30 -33 -30 -3 0 -8 17 -12 37 -12 65 -64 147 -82 130 -3 -4 0 -68 7 -144 7 -76 11 -151 8 -168 -2 -16 -7 11 -12 60 -11 134 -44 368 -56 400 -26 68 -80 115 -107 93 -9 -7 -13 -7 -13 1 0 15 -11 14 -36 -3z m53 -93 c-2 -16 -4 -3 -4 27 0 30 2 43 4 28 2 -16 2 -40 0 -55z m21 -158 c0 -22 -3 -18 -9 15 -4 25 -7 59 -7 75 0 22 3 18 9 -15 4 -25 7 -58 7 -75z m159 -457 c-2 -18 -4 -6 -4 27 0 33 2 48 4 33 2 -15 2 -42 0 -60z" transform="translate(0,271) scale(0.1,-0.1)" stroke="none" fill="#82786C"/>

</g>

<g id="2" transform="translate(0,542.0)scale(0.8,0.8)">

<path d="M286 1413 c-14 -14 -5 -62 19 -97 l25 -37 -46 7 c-41 6 -46 5 -41 -9 5 -14 -6 -17 -76 -19 -78 -3 -82 -4 -85 -27 -3 -19 0 -22 13 -17 38 14 212 7 303 -13 89 -19 146 -40 112 -41 -8 0 -37 7 -65 16 -59 18 -240 33 -314 26 -60 -5 -65 -21 -18 -56 27 -20 41 -21 210 -21 165 0 182 -2 185 -17 2 -12 -3 -18 -14 -18 -9 0 -42 -8 -73 -17 l-56 -18 43 -5 42 -5 -101 -55 c-116 -62 -136 -76 -128 -85 4 -3 34 13 69 35 34 23 64 39 67 36 3 -3 -9 -13 -27 -23 -18 -10 -47 -30 -64 -45 -26 -23 -29 -29 -16 -38 26 -17 66 -11 106 16 21 15 41 29 44 33 8 10 113 96 138 113 21 15 62 14 62 -1 0 -3 -14 -19 -31 -35 -16 -17 -28 -35 -25 -42 2 -6 -4 -24 -15 -40 -20 -31 -26 -74 -9 -74 6 0 10 8 10 18 0 21 52 129 79 162 35 43 33 15 -4 -45 -34 -56 -61 -123 -53 -130 3 -4 18 23 66 121 25 51 39 65 79 79 21 8 33 14 28 15 -11 0 -36 101 -33 130 0 8 0 31 -1 50 -2 29 -4 32 -11 15 -5 -11 -9 -37 -9 -57 -1 -46 -21 -51 -22 -5 -1 17 -4 43 -8 57 l-7 25 -8 -23 c-4 -12 -5 -36 -1 -52 6 -25 4 -29 -10 -24 -10 4 -21 1 -26 -7 -6 -11 -14 -7 -36 17 -69 79 -256 238 -267 227z m243 -356 c-11 -10 -139 -65 -139 -61 0 6 121 64 134 64 5 0 7 -2 5 -3z" transform="translate(0,271) scale(0.1,-0.1)" stroke="none" fill="#82786C"/>

<path d="M1263 1872 c-21 -3 -20 -5 16 -85 35 -75 67 -175 59 -183 -2 -2 -14 28 -27 67 -44 127 -33 64 19 -111 28 -94 54 -179 57 -188 2 -10 -5 -2 -17 16 -27 40 -31 40 -20 3 6 -21 4 -33 -4 -40 -16 -13 -26 -4 -26 23 0 32 -44 118 -74 145 -20 19 -30 22 -46 15 -20 -9 -20 -10 12 -49 53 -63 101 -144 94 -160 -3 -8 -1 -17 3 -20 12 -7 32 -129 25 -151 -4 -14 -2 -14 8 3 7 12 33 37 58 57 42 34 49 36 118 36 59 0 77 4 94 20 19 17 19 20 5 26 -17 6 -116 -8 -151 -22 -14 -5 -17 -3 -14 7 2 8 31 20 63 28 33 8 68 23 79 33 19 18 19 18 -23 18 -23 0 -60 -9 -82 -20 -36 -19 -39 -19 -28 -3 10 16 56 49 201 140 45 28 71 64 62 87 -3 9 -9 16 -13 16 -14 0 -141 -105 -213 -177 -43 -42 -78 -71 -78 -64 0 18 144 155 218 208 34 25 59 49 56 54 -3 6 -15 4 -27 -5 -50 -36 -57 -38 -57 -16 0 27 -6 26 -56 -16 -24 -19 -44 -34 -44 -32 0 2 11 35 25 73 24 69 31 119 19 149 -12 31 -32 15 -60 -49 -15 -35 -30 -62 -32 -60 -2 2 9 33 26 69 36 78 30 95 -12 29 l-29 -48 -12 28 -12 29 -15 -34 c-9 -18 -18 -40 -20 -48 -2 -8 -10 15 -17 50 -22 111 -57 161 -108 152z m181 -306 c-10 -31 -19 -54 -22 -52 -2 2 4 29 14 60 10 31 19 54 22 52 2 -2 -4 -29 -14 -60z m-87 -38 c-3 -8 -6 -5 -6 6 -1 11 2 17 5 13 3 -3 4 -12 1 -19z m60 -50 c-3 -8 -6 -5 -6 6 -1 11 2 17 5 13 3 -3 4 -12 1 -19z" transform="translate(0,271) scale(0.1,-0.1)" stroke="none" fill="#82786C"/>

<path d="M464 2596 c-34 -24 -48 -85 -41 -178 3 -46 13 -104 21 -130 8 -27 13 -48 12 -48 -1 0 -19 9 -41 20 -41 21 -70 25 -79 12 -6 -11 81 -158 136 -230 23 -30 75 -89 115 -130 39 -42 70 -78 67 -81 -8 -9 -124 112 -186 193 -33 44 -80 115 -105 158 -47 80 -65 93 -83 59 -52 -98 91 -280 336 -427 34 -20 7 -27 -43 -10 -131 43 -271 22 -273 -41 0 -10 37 -13 155 -13 97 0 155 -4 155 -10 0 -6 -43 -10 -107 -10 -181 0 -214 -13 -143 -54 31 -18 38 -18 124 -6 124 19 180 17 252 -10 l62 -22 35 -82 c20 -44 51 -120 70 -168 36 -92 35 -98 -16 -98 -16 0 -11 -6 19 -19 48 -22 56 -41 109 -244 43 -170 44 -175 10 -153 -34 22 -31 12 9 -36 31 -35 37 -53 60 -176 14 -75 28 -162 32 -192 3 -30 10 -72 15 -92 5 -21 11 -65 13 -98 3 -34 9 -67 15 -74 6 -7 20 -38 31 -67 l20 -54 -6 75 c-3 41 -16 143 -27 225 -14 97 -20 169 -16 205 4 30 2 73 -4 95 -9 38 -11 39 -18 15 -4 -14 -7 -22 -8 -17 -1 4 -14 69 -30 145 -16 75 -29 154 -28 174 1 23 -5 43 -14 50 -9 7 -24 45 -34 83 -28 109 -90 284 -149 420 -29 68 -56 139 -60 158 -6 33 -4 37 37 67 43 31 137 147 137 169 0 25 -30 8 -81 -46 -30 -32 -65 -71 -77 -87 -12 -16 -25 -27 -27 -24 -3 3 34 47 82 97 67 72 83 95 72 102 -21 13 -41 11 -72 -10 -32 -21 -97 -107 -97 -128 0 -7 -5 -13 -10 -13 -16 0 -24 28 -12 43 9 11 118 296 124 326 2 7 -2 15 -9 18 -15 5 -87 -180 -123 -314 -6 -24 -15 -43 -20 -43 -13 0 -13 -1 15 98 28 103 44 147 79 225 25 56 25 57 5 57 -12 0 -34 -13 -49 -30 -15 -16 -30 -30 -33 -30 -3 0 -8 17 -12 37 -12 65 -64 147 -82 130 -3 -4 0 -68 7 -144 7 -76 11 -151 8 -168 -2 -16 -7 11 -12 60 -11 134 -44 368 -56 400 -26 68 -80 115 -107 93 -9 -7 -13 -7 -13 1 0 15 -11 14 -36 -3z m53 -93 c-2 -16 -4 -3 -4 27 0 30 2 43 4 28 2 -16 2 -40 0 -55z m21 -158 c0 -22 -3 -18 -9 15 -4 25 -7 59 -7 75 0 22 3 18 9 -15 4 -25 7 -58 7 -75z m159 -457 c-2 -18 -4 -6 -4 27 0 33 2 48 4 33 2 -15 2 -42 0 -60z" transform="translate(0,271) scale(0.1,-0.1)" stroke="none" fill="#82786C"/>

</g>

<g id="3" transform="translate(0,813.0)scale(0.8,0.8)">

<path d="M286 1413 c-14 -14 -5 -62 19 -97 l25 -37 -46 7 c-41 6 -46 5 -41 -9 5 -14 -6 -17 -76 -19 -78 -3 -82 -4 -85 -27 -3 -19 0 -22 13 -17 38 14 212 7 303 -13 89 -19 146 -40 112 -41 -8 0 -37 7 -65 16 -59 18 -240 33 -314 26 -60 -5 -65 -21 -18 -56 27 -20 41 -21 210 -21 165 0 182 -2 185 -17 2 -12 -3 -18 -14 -18 -9 0 -42 -8 -73 -17 l-56 -18 43 -5 42 -5 -101 -55 c-116 -62 -136 -76 -128 -85 4 -3 34 13 69 35 34 23 64 39 67 36 3 -3 -9 -13 -27 -23 -18 -10 -47 -30 -64 -45 -26 -23 -29 -29 -16 -38 26 -17 66 -11 106 16 21 15 41 29 44 33 8 10 113 96 138 113 21 15 62 14 62 -1 0 -3 -14 -19 -31 -35 -16 -17 -28 -35 -25 -42 2 -6 -4 -24 -15 -40 -20 -31 -26 -74 -9 -74 6 0 10 8 10 18 0 21 52 129 79 162 35 43 33 15 -4 -45 -34 -56 -61 -123 -53 -130 3 -4 18 23 66 121 25 51 39 65 79 79 21 8 33 14 28 15 -11 0 -36 101 -33 130 0 8 0 31 -1 50 -2 29 -4 32 -11 15 -5 -11 -9 -37 -9 -57 -1 -46 -21 -51 -22 -5 -1 17 -4 43 -8 57 l-7 25 -8 -23 c-4 -12 -5 -36 -1 -52 6 -25 4 -29 -10 -24 -10 4 -21 1 -26 -7 -6 -11 -14 -7 -36 17 -69 79 -256 238 -267 227z m243 -356 c-11 -10 -139 -65 -139 -61 0 6 121 64 134 64 5 0 7 -2 5 -3z" transform="translate(0,271) scale(0.1,-0.1)" stroke="none" fill="#82786C"/>

<path d="M1263 1872 c-21 -3 -20 -5 16 -85 35 -75 67 -175 59 -183 -2 -2 -14 28 -27 67 -44 127 -33 64 19 -111 28 -94 54 -179 57 -188 2 -10 -5 -2 -17 16 -27 40 -31 40 -20 3 6 -21 4 -33 -4 -40 -16 -13 -26 -4 -26 23 0 32 -44 118 -74 145 -20 19 -30 22 -46 15 -20 -9 -20 -10 12 -49 53 -63 101 -144 94 -160 -3 -8 -1 -17 3 -20 12 -7 32 -129 25 -151 -4 -14 -2 -14 8 3 7 12 33 37 58 57 42 34 49 36 118 36 59 0 77 4 94 20 19 17 19 20 5 26 -17 6 -116 -8 -151 -22 -14 -5 -17 -3 -14 7 2 8 31 20 63 28 33 8 68 23 79 33 19 18 19 18 -23 18 -23 0 -60 -9 -82 -20 -36 -19 -39 -19 -28 -3 10 16 56 49 201 140 45 28 71 64 62 87 -3 9 -9 16 -13 16 -14 0 -141 -105 -213 -177 -43 -42 -78 -71 -78 -64 0 18 144 155 218 208 34 25 59 49 56 54 -3 6 -15 4 -27 -5 -50 -36 -57 -38 -57 -16 0 27 -6 26 -56 -16 -24 -19 -44 -34 -44 -32 0 2 11 35 25 73 24 69 31 119 19 149 -12 31 -32 15 -60 -49 -15 -35 -30 -62 -32 -60 -2 2 9 33 26 69 36 78 30 95 -12 29 l-29 -48 -12 28 -12 29 -15 -34 c-9 -18 -18 -40 -20 -48 -2 -8 -10 15 -17 50 -22 111 -57 161 -108 152z m181 -306 c-10 -31 -19 -54 -22 -52 -2 2 4 29 14 60 10 31 19 54 22 52 2 -2 -4 -29 -14 -60z m-87 -38 c-3 -8 -6 -5 -6 6 -1 11 2 17 5 13 3 -3 4 -12 1 -19z m60 -50 c-3 -8 -6 -5 -6 6 -1 11 2 17 5 13 3 -3 4 -12 1 -19z" transform="translate(0,271) scale(0.1,-0.1)" stroke="none" fill="#82786C"/>

<path d="M464 2596 c-34 -24 -48 -85 -41 -178 3 -46 13 -104 21 -130 8 -27 13 -48 12 -48 -1 0 -19 9 -41 20 -41 21 -70 25 -79 12 -6 -11 81 -158 136 -230 23 -30 75 -89 115 -130 39 -42 70 -78 67 -81 -8 -9 -124 112 -186 193 -33 44 -80 115 -105 158 -47 80 -65 93 -83 59 -52 -98 91 -280 336 -427 34 -20 7 -27 -43 -10 -131 43 -271 22 -273 -41 0 -10 37 -13 155 -13 97 0 155 -4 155 -10 0 -6 -43 -10 -107 -10 -181 0 -214 -13 -143 -54 31 -18 38 -18 124 -6 124 19 180 17 252 -10 l62 -22 35 -82 c20 -44 51 -120 70 -168 36 -92 35 -98 -16 -98 -16 0 -11 -6 19 -19 48 -22 56 -41 109 -244 43 -170 44 -175 10 -153 -34 22 -31 12 9 -36 31 -35 37 -53 60 -176 14 -75 28 -162 32 -192 3 -30 10 -72 15 -92 5 -21 11 -65 13 -98 3 -34 9 -67 15 -74 6 -7 20 -38 31 -67 l20 -54 -6 75 c-3 41 -16 143 -27 225 -14 97 -20 169 -16 205 4 30 2 73 -4 95 -9 38 -11 39 -18 15 -4 -14 -7 -22 -8 -17 -1 4 -14 69 -30 145 -16 75 -29 154 -28 174 1 23 -5 43 -14 50 -9 7 -24 45 -34 83 -28 109 -90 284 -149 420 -29 68 -56 139 -60 158 -6 33 -4 37 37 67 43 31 137 147 137 169 0 25 -30 8 -81 -46 -30 -32 -65 -71 -77 -87 -12 -16 -25 -27 -27 -24 -3 3 34 47 82 97 67 72 83 95 72 102 -21 13 -41 11 -72 -10 -32 -21 -97 -107 -97 -128 0 -7 -5 -13 -10 -13 -16 0 -24 28 -12 43 9 11 118 296 124 326 2 7 -2 15 -9 18 -15 5 -87 -180 -123 -314 -6 -24 -15 -43 -20 -43 -13 0 -13 -1 15 98 28 103 44 147 79 225 25 56 25 57 5 57 -12 0 -34 -13 -49 -30 -15 -16 -30 -30 -33 -30 -3 0 -8 17 -12 37 -12 65 -64 147 -82 130 -3 -4 0 -68 7 -144 7 -76 11 -151 8 -168 -2 -16 -7 11 -12 60 -11 134 -44 368 -56 400 -26 68 -80 115 -107 93 -9 -7 -13 -7 -13 1 0 15 -11 14 -36 -3z m53 -93 c-2 -16 -4 -3 -4 27 0 30 2 43 4 28 2 -16 2 -40 0 -55z m21 -158 c0 -22 -3 -18 -9 15 -4 25 -7 59 -7 75 0 22 3 18 9 -15 4 -25 7 -58 7 -75z m159 -457 c-2 -18 -4 -6 -4 27 0 33 2 48 4 33 2 -15 2 -42 0 -60z" transform="translate(0,271) scale(0.1,-0.1)" stroke="none" fill="#82786C"/>

</g>

<g id="4" transform="translate(0,1084.0)scale(0.8,0.8)">

<path d="M286 1413 c-14 -14 -5 -62 19 -97 l25 -37 -46 7 c-41 6 -46 5 -41 -9 5 -14 -6 -17 -76 -19 -78 -3 -82 -4 -85 -27 -3 -19 0 -22 13 -17 38 14 212 7 303 -13 89 -19 146 -40 112 -41 -8 0 -37 7 -65 16 -59 18 -240 33 -314 26 -60 -5 -65 -21 -18 -56 27 -20 41 -21 210 -21 165 0 182 -2 185 -17 2 -12 -3 -18 -14 -18 -9 0 -42 -8 -73 -17 l-56 -18 43 -5 42 -5 -101 -55 c-116 -62 -136 -76 -128 -85 4 -3 34 13 69 35 34 23 64 39 67 36 3 -3 -9 -13 -27 -23 -18 -10 -47 -30 -64 -45 -26 -23 -29 -29 -16 -38 26 -17 66 -11 106 16 21 15 41 29 44 33 8 10 113 96 138 113 21 15 62 14 62 -1 0 -3 -14 -19 -31 -35 -16 -17 -28 -35 -25 -42 2 -6 -4 -24 -15 -40 -20 -31 -26 -74 -9 -74 6 0 10 8 10 18 0 21 52 129 79 162 35 43 33 15 -4 -45 -34 -56 -61 -123 -53 -130 3 -4 18 23 66 121 25 51 39 65 79 79 21 8 33 14 28 15 -11 0 -36 101 -33 130 0 8 0 31 -1 50 -2 29 -4 32 -11 15 -5 -11 -9 -37 -9 -57 -1 -46 -21 -51 -22 -5 -1 17 -4 43 -8 57 l-7 25 -8 -23 c-4 -12 -5 -36 -1 -52 6 -25 4 -29 -10 -24 -10 4 -21 1 -26 -7 -6 -11 -14 -7 -36 17 -69 79 -256 238 -267 227z m243 -356 c-11 -10 -139 -65 -139 -61 0 6 121 64 134 64 5 0 7 -2 5 -3z" transform="translate(0,271) scale(0.1,-0.1)" stroke="none" fill="#82786C"/>

<path d="M1263 1872 c-21 -3 -20 -5 16 -85 35 -75 67 -175 59 -183 -2 -2 -14 28 -27 67 -44 127 -33 64 19 -111 28 -94 54 -179 57 -188 2 -10 -5 -2 -17 16 -27 40 -31 40 -20 3 6 -21 4 -33 -4 -40 -16 -13 -26 -4 -26 23 0 32 -44 118 -74 145 -20 19 -30 22 -46 15 -20 -9 -20 -10 12 -49 53 -63 101 -144 94 -160 -3 -8 -1 -17 3 -20 12 -7 32 -129 25 -151 -4 -14 -2 -14 8 3 7 12 33 37 58 57 42 34 49 36 118 36 59 0 77 4 94 20 19 17 19 20 5 26 -17 6 -116 -8 -151 -22 -14 -5 -17 -3 -14 7 2 8 31 20 63 28 33 8 68 23 79 33 19 18 19 18 -23 18 -23 0 -60 -9 -82 -20 -36 -19 -39 -19 -28 -3 10 16 56 49 201 140 45 28 71 64 62 87 -3 9 -9 16 -13 16 -14 0 -141 -105 -213 -177 -43 -42 -78 -71 -78 -64 0 18 144 155 218 208 34 25 59 49 56 54 -3 6 -15 4 -27 -5 -50 -36 -57 -38 -57 -16 0 27 -6 26 -56 -16 -24 -19 -44 -34 -44 -32 0 2 11 35 25 73 24 69 31 119 19 149 -12 31 -32 15 -60 -49 -15 -35 -30 -62 -32 -60 -2 2 9 33 26 69 36 78 30 95 -12 29 l-29 -48 -12 28 -12 29 -15 -34 c-9 -18 -18 -40 -20 -48 -2 -8 -10 15 -17 50 -22 111 -57 161 -108 152z m181 -306 c-10 -31 -19 -54 -22 -52 -2 2 4 29 14 60 10 31 19 54 22 52 2 -2 -4 -29 -14 -60z m-87 -38 c-3 -8 -6 -5 -6 6 -1 11 2 17 5 13 3 -3 4 -12 1 -19z m60 -50 c-3 -8 -6 -5 -6 6 -1 11 2 17 5 13 3 -3 4 -12 1 -19z" transform="translate(0,271) scale(0.1,-0.1)" stroke="none" fill="#82786C"/>

<path d="M464 2596 c-34 -24 -48 -85 -41 -178 3 -46 13 -104 21 -130 8 -27 13 -48 12 -48 -1 0 -19 9 -41 20 -41 21 -70 25 -79 12 -6 -11 81 -158 136 -230 23 -30 75 -89 115 -130 39 -42 70 -78 67 -81 -8 -9 -124 112 -186 193 -33 44 -80 115 -105 158 -47 80 -65 93 -83 59 -52 -98 91 -280 336 -427 34 -20 7 -27 -43 -10 -131 43 -271 22 -273 -41 0 -10 37 -13 155 -13 97 0 155 -4 155 -10 0 -6 -43 -10 -107 -10 -181 0 -214 -13 -143 -54 31 -18 38 -18 124 -6 124 19 180 17 252 -10 l62 -22 35 -82 c20 -44 51 -120 70 -168 36 -92 35 -98 -16 -98 -16 0 -11 -6 19 -19 48 -22 56 -41 109 -244 43 -170 44 -175 10 -153 -34 22 -31 12 9 -36 31 -35 37 -53 60 -176 14 -75 28 -162 32 -192 3 -30 10 -72 15 -92 5 -21 11 -65 13 -98 3 -34 9 -67 15 -74 6 -7 20 -38 31 -67 l20 -54 -6 75 c-3 41 -16 143 -27 225 -14 97 -20 169 -16 205 4 30 2 73 -4 95 -9 38 -11 39 -18 15 -4 -14 -7 -22 -8 -17 -1 4 -14 69 -30 145 -16 75 -29 154 -28 174 1 23 -5 43 -14 50 -9 7 -24 45 -34 83 -28 109 -90 284 -149 420 -29 68 -56 139 -60 158 -6 33 -4 37 37 67 43 31 137 147 137 169 0 25 -30 8 -81 -46 -30 -32 -65 -71 -77 -87 -12 -16 -25 -27 -27 -24 -3 3 34 47 82 97 67 72 83 95 72 102 -21 13 -41 11 -72 -10 -32 -21 -97 -107 -97 -128 0 -7 -5 -13 -10 -13 -16 0 -24 28 -12 43 9 11 118 296 124 326 2 7 -2 15 -9 18 -15 5 -87 -180 -123 -314 -6 -24 -15 -43 -20 -43 -13 0 -13 -1 15 98 28 103 44 147 79 225 25 56 25 57 5 57 -12 0 -34 -13 -49 -30 -15 -16 -30 -30 -33 -30 -3 0 -8 17 -12 37 -12 65 -64 147 -82 130 -3 -4 0 -68 7 -144 7 -76 11 -151 8 -168 -2 -16 -7 11 -12 60 -11 134 -44 368 -56 400 -26 68 -80 115 -107 93 -9 -7 -13 -7 -13 1 0 15 -11 14 -36 -3z m53 -93 c-2 -16 -4 -3 -4 27 0 30 2 43 4 28 2 -16 2 -40 0 -55z m21 -158 c0 -22 -3 -18 -9 15 -4 25 -7 59 -7 75 0 22 3 18 9 -15 4 -25 7 -58 7 -75z m159 -457 c-2 -18 -4 -6 -4 27 0 33 2 48 4 33 2 -15 2 -42 0 -60z" transform="translate(0,271) scale(0.1,-0.1)" stroke="none" fill="#82786C"/>

</g>

</g>
<g id="col3" transform="translate(546, -99.5)">
<g id="0" transform="translate(0,0.0)scale(0.8,0.8)">

<path d="M286 1413 c-14 -14 -5 -62 19 -97 l25 -37 -46 7 c-41 6 -46 5 -41 -9 5 -14 -6 -17 -76 -19 -78 -3 -82 -4 -85 -27 -3 -19 0 -22 13 -17 38 14 212 7 303 -13 89 -19 146 -40 112 -41 -8 0 -37 7 -65 16 -59 18 -240 33 -314 26 -60 -5 -65 -21 -18 -56 27 -20 41 -21 210 -21 165 0 182 -2 185 -17 2 -12 -3 -18 -14 -18 -9 0 -42 -8 -73 -17 l-56 -18 43 -5 42 -5 -101 -55 c-116 -62 -136 -76 -128 -85 4 -3 34 13 69 35 34 23 64 39 67 36 3 -3 -9 -13 -27 -23 -18 -10 -47 -30 -64 -45 -26 -23 -29 -29 -16 -38 26 -17 66 -11 106 16 21 15 41 29 44 33 8 10 113 96 138 113 21 15 62 14 62 -1 0 -3 -14 -19 -31 -35 -16 -17 -28 -35 -25 -42 2 -6 -4 -24 -15 -40 -20 -31 -26 -74 -9 -74 6 0 10 8 10 18 0 21 52 129 79 162 35 43 33 15 -4 -45 -34 -56 -61 -123 -53 -130 3 -4 18 23 66 121 25 51 39 65 79 79 21 8 33 14 28 15 -11 0 -36 101 -33 130 0 8 0 31 -1 50 -2 29 -4 32 -11 15 -5 -11 -9 -37 -9 -57 -1 -46 -21 -51 -22 -5 -1 17 -4 43 -8 57 l-7 25 -8 -23 c-4 -12 -5 -36 -1 -52 6 -25 4 -29 -10 -24 -10 4 -21 1 -26 -7 -6 -11 -14 -7 -36 17 -69 79 -256 238 -267 227z m243 -356 c-11 -10 -139 -65 -139 -61 0 6 121 64 134 64 5 0 7 -2 5 -3z" transform="translate(0,271) scale(0.1,-0.1)" stroke="none" fill="#82786C"/>

<path d="M1263 1872 c-21 -3 -20 -5 16 -85 35 -75 67 -175 59 -183 -2 -2 -14 28 -27 67 -44 127 -33 64 19 -111 28 -94 54 -179 57 -188 2 -10 -5 -2 -17 16 -27 40 -31 40 -20 3 6 -21 4 -33 -4 -40 -16 -13 -26 -4 -26 23 0 32 -44 118 -74 145 -20 19 -30 22 -46 15 -20 -9 -20 -10 12 -49 53 -63 101 -144 94 -160 -3 -8 -1 -17 3 -20 12 -7 32 -129 25 -151 -4 -14 -2 -14 8 3 7 12 33 37 58 57 42 34 49 36 118 36 59 0 77 4 94 20 19 17 19 20 5 26 -17 6 -116 -8 -151 -22 -14 -5 -17 -3 -14 7 2 8 31 20 63 28 33 8 68 23 79 33 19 18 19 18 -23 18 -23 0 -60 -9 -82 -20 -36 -19 -39 -19 -28 -3 10 16 56 49 201 140 45 28 71 64 62 87 -3 9 -9 16 -13 16 -14 0 -141 -105 -213 -177 -43 -42 -78 -71 -78 -64 0 18 144 155 218 208 34 25 59 49 56 54 -3 6 -15 4 -27 -5 -50 -36 -57 -38 -57 -16 0 27 -6 26 -56 -16 -24 -19 -44 -34 -44 -32 0 2 11 35 25 73 24 69 31 119 19 149 -12 31 -32 15 -60 -49 -15 -35 -30 -62 -32 -60 -2 2 9 33 26 69 36 78 30 95 -12 29 l-29 -48 -12 28 -12 29 -15 -34 c-9 -18 -18 -40 -20 -48 -2 -8 -10 15 -17 50 -22 111 -57 161 -108 152z m181 -306 c-10 -31 -19 -54 -22 -52 -2 2 4 29 14 60 10 31 19 54 22 52 2 -2 -4 -29 -14 -60z m-87 -38 c-3 -8 -6 -5 -6 6 -1 11 2 17 5 13 3 -3 4 -12 1 -19z m60 -50 c-3 -8 -6 -5 -6 6 -1 11 2 17 5 13 3 -3 4 -12 1 -19z" transform="translate(0,271) scale(0.1,-0.1)" stroke="none" fill="#82786C"/>

<path d="M464 2596 c-34 -24 -48 -85 -41 -178 3 -46 13 -104 21 -130 8 -27 13 -48 12 -48 -1 0 -19 9 -41 20 -41 21 -70 25 -79 12 -6 -11 81 -158 136 -230 23 -30 75 -89 115 -130 39 -42 70 -78 67 -81 -8 -9 -124 112 -186 193 -33 44 -80 115 -105 158 -47 80 -65 93 -83 59 -52 -98 91 -280 336 -427 34 -20 7 -27 -43 -10 -131 43 -271 22 -273 -41 0 -10 37 -13 155 -13 97 0 155 -4 155 -10 0 -6 -43 -10 -107 -10 -181 0 -214 -13 -143 -54 31 -18 38 -18 124 -6 124 19 180 17 252 -10 l62 -22 35 -82 c20 -44 51 -120 70 -168 36 -92 35 -98 -16 -98 -16 0 -11 -6 19 -19 48 -22 56 -41 109 -244 43 -170 44 -175 10 -153 -34 22 -31 12 9 -36 31 -35 37 -53 60 -176 14 -75 28 -162 32 -192 3 -30 10 -72 15 -92 5 -21 11 -65 13 -98 3 -34 9 -67 15 -74 6 -7 20 -38 31 -67 l20 -54 -6 75 c-3 41 -16 143 -27 225 -14 97 -20 169 -16 205 4 30 2 73 -4 95 -9 38 -11 39 -18 15 -4 -14 -7 -22 -8 -17 -1 4 -14 69 -30 145 -16 75 -29 154 -28 174 1 23 -5 43 -14 50 -9 7 -24 45 -34 83 -28 109 -90 284 -149 420 -29 68 -56 139 -60 158 -6 33 -4 37 37 67 43 31 137 147 137 169 0 25 -30 8 -81 -46 -30 -32 -65 -71 -77 -87 -12 -16 -25 -27 -27 -24 -3 3 34 47 82 97 67 72 83 95 72 102 -21 13 -41 11 -72 -10 -32 -21 -97 -107 -97 -128 0 -7 -5 -13 -10 -13 -16 0 -24 28 -12 43 9 11 118 296 124 326 2 7 -2 15 -9 18 -15 5 -87 -180 -123 -314 -6 -24 -15 -43 -20 -43 -13 0 -13 -1 15 98 28 103 44 147 79 225 25 56 25 57 5 57 -12 0 -34 -13 -49 -30 -15 -16 -30 -30 -33 -30 -3 0 -8 17 -12 37 -12 65 -64 147 -82 130 -3 -4 0 -68 7 -144 7 -76 11 -151 8 -168 -2 -16 -7 11 -12 60 -11 134 -44 368 -56 400 -26 68 -80 115 -107 93 -9 -7 -13 -7 -13 1 0 15 -11 14 -36 -3z m53 -93 c-2 -16 -4 -3 -4 27 0 30 2 43 4 28 2 -16 2 -40 0 -55z m21 -158 c0 -22 -3 -18 -9 15 -4 25 -7 59 -7 75 0 22 3 18 9 -15 4 -25 7 -58 7 -75z m159 -457 c-2 -18 -4 -6 -4 27 0 33 2 48 4 33 2 -15 2 -42 0 -60z" transform="translate(0,271) scale(0.1,-0.1)" stroke="none" fill="#82786C"/>

</g>

<g id="1" transform="translate(0,271.0)scale(0.8,0.8)">

<path d="M286 1413 c-14 -14 -5 -62 19 -97 l25 -37 -46 7 c-41 6 -46 5 -41 -9 5 -14 -6 -17 -76 -19 -78 -3 -82 -4 -85 -27 -3 -19 0 -22 13 -17 38 14 212 7 303 -13 89 -19 146 -40 112 -41 -8 0 -37 7 -65 16 -59 18 -240 33 -314 26 -60 -5 -65 -21 -18 -56 27 -20 41 -21 210 -21 165 0 182 -2 185 -17 2 -12 -3 -18 -14 -18 -9 0 -42 -8 -73 -17 l-56 -18 43 -5 42 -5 -101 -55 c-116 -62 -136 -76 -128 -85 4 -3 34 13 69 35 34 23 64 39 67 36 3 -3 -9 -13 -27 -23 -18 -10 -47 -30 -64 -45 -26 -23 -29 -29 -16 -38 26 -17 66 -11 106 16 21 15 41 29 44 33 8 10 113 96 138 113 21 15 62 14 62 -1 0 -3 -14 -19 -31 -35 -16 -17 -28 -35 -25 -42 2 -6 -4 -24 -15 -40 -20 -31 -26 -74 -9 -74 6 0 10 8 10 18 0 21 52 129 79 162 35 43 33 15 -4 -45 -34 -56 -61 -123 -53 -130 3 -4 18 23 66 121 25 51 39 65 79 79 21 8 33 14 28 15 -11 0 -36 101 -33 130 0 8 0 31 -1 50 -2 29 -4 32 -11 15 -5 -11 -9 -37 -9 -57 -1 -46 -21 -51 -22 -5 -1 17 -4 43 -8 57 l-7 25 -8 -23 c-4 -12 -5 -36 -1 -52 6 -25 4 -29 -10 -24 -10 4 -21 1 -26 -7 -6 -11 -14 -7 -36 17 -69 79 -256 238 -267 227z m243 -356 c-11 -10 -139 -65 -139 -61 0 6 121 64 134 64 5 0 7 -2 5 -3z" transform="translate(0,271) scale(0.1,-0.1)" stroke="none" fill="#82786C"/>

<path d="M1263 1872 c-21 -3 -20 -5 16 -85 35 -75 67 -175 59 -183 -2 -2 -14 28 -27 67 -44 127 -33 64 19 -111 28 -94 54 -179 57 -188 2 -10 -5 -2 -17 16 -27 40 -31 40 -20 3 6 -21 4 -33 -4 -40 -16 -13 -26 -4 -26 23 0 32 -44 118 -74 145 -20 19 -30 22 -46 15 -20 -9 -20 -10 12 -49 53 -63 101 -144 94 -160 -3 -8 -1 -17 3 -20 12 -7 32 -129 25 -151 -4 -14 -2 -14 8 3 7 12 33 37 58 57 42 34 49 36 118 36 59 0 77 4 94 20 19 17 19 20 5 26 -17 6 -116 -8 -151 -22 -14 -5 -17 -3 -14 7 2 8 31 20 63 28 33 8 68 23 79 33 19 18 19 18 -23 18 -23 0 -60 -9 -82 -20 -36 -19 -39 -19 -28 -3 10 16 56 49 201 140 45 28 71 64 62 87 -3 9 -9 16 -13 16 -14 0 -141 -105 -213 -177 -43 -42 -78 -71 -78 -64 0 18 144 155 218 208 34 25 59 49 56 54 -3 6 -15 4 -27 -5 -50 -36 -57 -38 -57 -16 0 27 -6 26 -56 -16 -24 -19 -44 -34 -44 -32 0 2 11 35 25 73 24 69 31 119 19 149 -12 31 -32 15 -60 -49 -15 -35 -30 -62 -32 -60 -2 2 9 33 26 69 36 78 30 95 -12 29 l-29 -48 -12 28 -12 29 -15 -34 c-9 -18 -18 -40 -20 -48 -2 -8 -10 15 -17 50 -22 111 -57 161 -108 152z m181 -306 c-10 -31 -19 -54 -22 -52 -2 2 4 29 14 60 10 31 19 54 22 52 2 -2 -4 -29 -14 -60z m-87 -38 c-3 -8 -6 -5 -6 6 -1 11 2 17 5 13 3 -3 4 -12 1 -19z m60 -50 c-3 -8 -6 -5 -6 6 -1 11 2 17 5 13 3 -3 4 -12 1 -19z" transform="translate(0,271) scale(0.1,-0.1)" stroke="none" fill="#82786C"/>

<path d="M464 2596 c-34 -24 -48 -85 -41 -178 3 -46 13 -104 21 -130 8 -27 13 -48 12 -48 -1 0 -19 9 -41 20 -41 21 -70 25 -79 12 -6 -11 81 -158 136 -230 23 -30 75 -89 115 -130 39 -42 70 -78 67 -81 -8 -9 -124 112 -186 193 -33 44 -80 115 -105 158 -47 80 -65 93 -83 59 -52 -98 91 -280 336 -427 34 -20 7 -27 -43 -10 -131 43 -271 22 -273 -41 0 -10 37 -13 155 -13 97 0 155 -4 155 -10 0 -6 -43 -10 -107 -10 -181 0 -214 -13 -143 -54 31 -18 38 -18 124 -6 124 19 180 17 252 -10 l62 -22 35 -82 c20 -44 51 -120 70 -168 36 -92 35 -98 -16 -98 -16 0 -11 -6 19 -19 48 -22 56 -41 109 -244 43 -170 44 -175 10 -153 -34 22 -31 12 9 -36 31 -35 37 -53 60 -176 14 -75 28 -162 32 -192 3 -30 10 -72 15 -92 5 -21 11 -65 13 -98 3 -34 9 -67 15 -74 6 -7 20 -38 31 -67 l20 -54 -6 75 c-3 41 -16 143 -27 225 -14 97 -20 169 -16 205 4 30 2 73 -4 95 -9 38 -11 39 -18 15 -4 -14 -7 -22 -8 -17 -1 4 -14 69 -30 145 -16 75 -29 154 -28 174 1 23 -5 43 -14 50 -9 7 -24 45 -34 83 -28 109 -90 284 -149 420 -29 68 -56 139 -60 158 -6 33 -4 37 37 67 43 31 137 147 137 169 0 25 -30 8 -81 -46 -30 -32 -65 -71 -77 -87 -12 -16 -25 -27 -27 -24 -3 3 34 47 82 97 67 72 83 95 72 102 -21 13 -41 11 -72 -10 -32 -21 -97 -107 -97 -128 0 -7 -5 -13 -10 -13 -16 0 -24 28 -12 43 9 11 118 296 124 326 2 7 -2 15 -9 18 -15 5 -87 -180 -123 -314 -6 -24 -15 -43 -20 -43 -13 0 -13 -1 15 98 28 103 44 147 79 225 25 56 25 57 5 57 -12 0 -34 -13 -49 -30 -15 -16 -30 -30 -33 -30 -3 0 -8 17 -12 37 -12 65 -64 147 -82 130 -3 -4 0 -68 7 -144 7 -76 11 -151 8 -168 -2 -16 -7 11 -12 60 -11 134 -44 368 -56 400 -26 68 -80 115 -107 93 -9 -7 -13 -7 -13 1 0 15 -11 14 -36 -3z m53 -93 c-2 -16 -4 -3 -4 27 0 30 2 43 4 28 2 -16 2 -40 0 -55z m21 -158 c0 -22 -3 -18 -9 15 -4 25 -7 59 -7 75 0 22 3 18 9 -15 4 -25 7 -58 7 -75z m159 -457 c-2 -18 -4 -6 -4 27 0 33 2 48 4 33 2 -15 2 -42 0 -60z" transform="translate(0,271) scale(0.1,-0.1)" stroke="none" fill="#82786C"/>

</g>

<g id="2" transform="translate(0,542.0)scale(0.8,0.8)">

<path d="M286 1413 c-14 -14 -5 -62 19 -97 l25 -37 -46 7 c-41 6 -46 5 -41 -9 5 -14 -6 -17 -76 -19 -78 -3 -82 -4 -85 -27 -3 -19 0 -22 13 -17 38 14 212 7 303 -13 89 -19 146 -40 112 -41 -8 0 -37 7 -65 16 -59 18 -240 33 -314 26 -60 -5 -65 -21 -18 -56 27 -20 41 -21 210 -21 165 0 182 -2 185 -17 2 -12 -3 -18 -14 -18 -9 0 -42 -8 -73 -17 l-56 -18 43 -5 42 -5 -101 -55 c-116 -62 -136 -76 -128 -85 4 -3 34 13 69 35 34 23 64 39 67 36 3 -3 -9 -13 -27 -23 -18 -10 -47 -30 -64 -45 -26 -23 -29 -29 -16 -38 26 -17 66 -11 106 16 21 15 41 29 44 33 8 10 113 96 138 113 21 15 62 14 62 -1 0 -3 -14 -19 -31 -35 -16 -17 -28 -35 -25 -42 2 -6 -4 -24 -15 -40 -20 -31 -26 -74 -9 -74 6 0 10 8 10 18 0 21 52 129 79 162 35 43 33 15 -4 -45 -34 -56 -61 -123 -53 -130 3 -4 18 23 66 121 25 51 39 65 79 79 21 8 33 14 28 15 -11 0 -36 101 -33 130 0 8 0 31 -1 50 -2 29 -4 32 -11 15 -5 -11 -9 -37 -9 -57 -1 -46 -21 -51 -22 -5 -1 17 -4 43 -8 57 l-7 25 -8 -23 c-4 -12 -5 -36 -1 -52 6 -25 4 -29 -10 -24 -10 4 -21 1 -26 -7 -6 -11 -14 -7 -36 17 -69 79 -256 238 -267 227z m243 -356 c-11 -10 -139 -65 -139 -61 0 6 121 64 134 64 5 0 7 -2 5 -3z" transform="translate(0,271) scale(0.1,-0.1)" stroke="none" fill="#82786C"/>

<path d="M1263 1872 c-21 -3 -20 -5 16 -85 35 -75 67 -175 59 -183 -2 -2 -14 28 -27 67 -44 127 -33 64 19 -111 28 -94 54 -179 57 -188 2 -10 -5 -2 -17 16 -27 40 -31 40 -20 3 6 -21 4 -33 -4 -40 -16 -13 -26 -4 -26 23 0 32 -44 118 -74 145 -20 19 -30 22 -46 15 -20 -9 -20 -10 12 -49 53 -63 101 -144 94 -160 -3 -8 -1 -17 3 -20 12 -7 32 -129 25 -151 -4 -14 -2 -14 8 3 7 12 33 37 58 57 42 34 49 36 118 36 59 0 77 4 94 20 19 17 19 20 5 26 -17 6 -116 -8 -151 -22 -14 -5 -17 -3 -14 7 2 8 31 20 63 28 33 8 68 23 79 33 19 18 19 18 -23 18 -23 0 -60 -9 -82 -20 -36 -19 -39 -19 -28 -3 10 16 56 49 201 140 45 28 71 64 62 87 -3 9 -9 16 -13 16 -14 0 -141 -105 -213 -177 -43 -42 -78 -71 -78 -64 0 18 144 155 218 208 34 25 59 49 56 54 -3 6 -15 4 -27 -5 -50 -36 -57 -38 -57 -16 0 27 -6 26 -56 -16 -24 -19 -44 -34 -44 -32 0 2 11 35 25 73 24 69 31 119 19 149 -12 31 -32 15 -60 -49 -15 -35 -30 -62 -32 -60 -2 2 9 33 26 69 36 78 30 95 -12 29 l-29 -48 -12 28 -12 29 -15 -34 c-9 -18 -18 -40 -20 -48 -2 -8 -10 15 -17 50 -22 111 -57 161 -108 152z m181 -306 c-10 -31 -19 -54 -22 -52 -2 2 4 29 14 60 10 31 19 54 22 52 2 -2 -4 -29 -14 -60z m-87 -38 c-3 -8 -6 -5 -6 6 -1 11 2 17 5 13 3 -3 4 -12 1 -19z m60 -50 c-3 -8 -6 -5 -6 6 -1 11 2 17 5 13 3 -3 4 -12 1 -19z" transform="translate(0,271) scale(0.1,-0.1)" stroke="none" fill="#82786C"/>

<path d="M464 2596 c-34 -24 -48 -85 -41 -178 3 -46 13 -104 21 -130 8 -27 13 -48 12 -48 -1 0 -19 9 -41 20 -41 21 -70 25 -79 12 -6 -11 81 -158 136 -230 23 -30 75 -89 115 -130 39 -42 70 -78 67 -81 -8 -9 -124 112 -186 193 -33 44 -80 115 -105 158 -47 80 -65 93 -83 59 -52 -98 91 -280 336 -427 34 -20 7 -27 -43 -10 -131 43 -271 22 -273 -41 0 -10 37 -13 155 -13 97 0 155 -4 155 -10 0 -6 -43 -10 -107 -10 -181 0 -214 -13 -143 -54 31 -18 38 -18 124 -6 124 19 180 17 252 -10 l62 -22 35 -82 c20 -44 51 -120 70 -168 36 -92 35 -98 -16 -98 -16 0 -11 -6 19 -19 48 -22 56 -41 109 -244 43 -170 44 -175 10 -153 -34 22 -31 12 9 -36 31 -35 37 -53 60 -176 14 -75 28 -162 32 -192 3 -30 10 -72 15 -92 5 -21 11 -65 13 -98 3 -34 9 -67 15 -74 6 -7 20 -38 31 -67 l20 -54 -6 75 c-3 41 -16 143 -27 225 -14 97 -20 169 -16 205 4 30 2 73 -4 95 -9 38 -11 39 -18 15 -4 -14 -7 -22 -8 -17 -1 4 -14 69 -30 145 -16 75 -29 154 -28 174 1 23 -5 43 -14 50 -9 7 -24 45 -34 83 -28 109 -90 284 -149 420 -29 68 -56 139 -60 158 -6 33 -4 37 37 67 43 31 137 147 137 169 0 25 -30 8 -81 -46 -30 -32 -65 -71 -77 -87 -12 -16 -25 -27 -27 -24 -3 3 34 47 82 97 67 72 83 95 72 102 -21 13 -41 11 -72 -10 -32 -21 -97 -107 -97 -128 0 -7 -5 -13 -10 -13 -16 0 -24 28 -12 43 9 11 118 296 124 326 2 7 -2 15 -9 18 -15 5 -87 -180 -123 -314 -6 -24 -15 -43 -20 -43 -13 0 -13 -1 15 98 28 103 44 147 79 225 25 56 25 57 5 57 -12 0 -34 -13 -49 -30 -15 -16 -30 -30 -33 -30 -3 0 -8 17 -12 37 -12 65 -64 147 -82 130 -3 -4 0 -68 7 -144 7 -76 11 -151 8 -168 -2 -16 -7 11 -12 60 -11 134 -44 368 -56 400 -26 68 -80 115 -107 93 -9 -7 -13 -7 -13 1 0 15 -11 14 -36 -3z m53 -93 c-2 -16 -4 -3 -4 27 0 30 2 43 4 28 2 -16 2 -40 0 -55z m21 -158 c0 -22 -3 -18 -9 15 -4 25 -7 59 -7 75 0 22 3 18 9 -15 4 -25 7 -58 7 -75z m159 -457 c-2 -18 -4 -6 -4 27 0 33 2 48 4 33 2 -15 2 -42 0 -60z" transform="translate(0,271) scale(0.1,-0.1)" stroke="none" fill="#82786C"/>

</g>

<g id="3" transform="translate(0,813.0)scale(0.8,0.8)">

<path d="M286 1413 c-14 -14 -5 -62 19 -97 l25 -37 -46 7 c-41 6 -46 5 -41 -9 5 -14 -6 -17 -76 -19 -78 -3 -82 -4 -85 -27 -3 -19 0 -22 13 -17 38 14 212 7 303 -13 89 -19 146 -40 112 -41 -8 0 -37 7 -65 16 -59 18 -240 33 -314 26 -60 -5 -65 -21 -18 -56 27 -20 41 -21 210 -21 165 0 182 -2 185 -17 2 -12 -3 -18 -14 -18 -9 0 -42 -8 -73 -17 l-56 -18 43 -5 42 -5 -101 -55 c-116 -62 -136 -76 -128 -85 4 -3 34 13 69 35 34 23 64 39 67 36 3 -3 -9 -13 -27 -23 -18 -10 -47 -30 -64 -45 -26 -23 -29 -29 -16 -38 26 -17 66 -11 106 16 21 15 41 29 44 33 8 10 113 96 138 113 21 15 62 14 62 -1 0 -3 -14 -19 -31 -35 -16 -17 -28 -35 -25 -42 2 -6 -4 -24 -15 -40 -20 -31 -26 -74 -9 -74 6 0 10 8 10 18 0 21 52 129 79 162 35 43 33 15 -4 -45 -34 -56 -61 -123 -53 -130 3 -4 18 23 66 121 25 51 39 65 79 79 21 8 33 14 28 15 -11 0 -36 101 -33 130 0 8 0 31 -1 50 -2 29 -4 32 -11 15 -5 -11 -9 -37 -9 -57 -1 -46 -21 -51 -22 -5 -1 17 -4 43 -8 57 l-7 25 -8 -23 c-4 -12 -5 -36 -1 -52 6 -25 4 -29 -10 -24 -10 4 -21 1 -26 -7 -6 -11 -14 -7 -36 17 -69 79 -256 238 -267 227z m243 -356 c-11 -10 -139 -65 -139 -61 0 6 121 64 134 64 5 0 7 -2 5 -3z" transform="translate(0,271) scale(0.1,-0.1)" stroke="none" fill="#82786C"/>

<path d="M1263 1872 c-21 -3 -20 -5 16 -85 35 -75 67 -175 59 -183 -2 -2 -14 28 -27 67 -44 127 -33 64 19 -111 28 -94 54 -179 57 -188 2 -10 -5 -2 -17 16 -27 40 -31 40 -20 3 6 -21 4 -33 -4 -40 -16 -13 -26 -4 -26 23 0 32 -44 118 -74 145 -20 19 -30 22 -46 15 -20 -9 -20 -10 12 -49 53 -63 101 -144 94 -160 -3 -8 -1 -17 3 -20 12 -7 32 -129 25 -151 -4 -14 -2 -14 8 3 7 12 33 37 58 57 42 34 49 36 118 36 59 0 77 4 94 20 19 17 19 20 5 26 -17 6 -116 -8 -151 -22 -14 -5 -17 -3 -14 7 2 8 31 20 63 28 33 8 68 23 79 33 19 18 19 18 -23 18 -23 0 -60 -9 -82 -20 -36 -19 -39 -19 -28 -3 10 16 56 49 201 140 45 28 71 64 62 87 -3 9 -9 16 -13 16 -14 0 -141 -105 -213 -177 -43 -42 -78 -71 -78 -64 0 18 144 155 218 208 34 25 59 49 56 54 -3 6 -15 4 -27 -5 -50 -36 -57 -38 -57 -16 0 27 -6 26 -56 -16 -24 -19 -44 -34 -44 -32 0 2 11 35 25 73 24 69 31 119 19 149 -12 31 -32 15 -60 -49 -15 -35 -30 -62 -32 -60 -2 2 9 33 26 69 36 78 30 95 -12 29 l-29 -48 -12 28 -12 29 -15 -34 c-9 -18 -18 -40 -20 -48 -2 -8 -10 15 -17 50 -22 111 -57 161 -108 152z m181 -306 c-10 -31 -19 -54 -22 -52 -2 2 4 29 14 60 10 31 19 54 22 52 2 -2 -4 -29 -14 -60z m-87 -38 c-3 -8 -6 -5 -6 6 -1 11 2 17 5 13 3 -3 4 -12 1 -19z m60 -50 c-3 -8 -6 -5 -6 6 -1 11 2 17 5 13 3 -3 4 -12 1 -19z" transform="translate(0,271) scale(0.1,-0.1)" stroke="none" fill="#82786C"/>

<path d="M464 2596 c-34 -24 -48 -85 -41 -178 3 -46 13 -104 21 -130 8 -27 13 -48 12 -48 -1 0 -19 9 -41 20 -41 21 -70 25 -79 12 -6 -11 81 -158 136 -230 23 -30 75 -89 115 -130 39 -42 70 -78 67 -81 -8 -9 -124 112 -186 193 -33 44 -80 115 -105 158 -47 80 -65 93 -83 59 -52 -98 91 -280 336 -427 34 -20 7 -27 -43 -10 -131 43 -271 22 -273 -41 0 -10 37 -13 155 -13 97 0 155 -4 155 -10 0 -6 -43 -10 -107 -10 -181 0 -214 -13 -143 -54 31 -18 38 -18 124 -6 124 19 180 17 252 -10 l62 -22 35 -82 c20 -44 51 -120 70 -168 36 -92 35 -98 -16 -98 -16 0 -11 -6 19 -19 48 -22 56 -41 109 -244 43 -170 44 -175 10 -153 -34 22 -31 12 9 -36 31 -35 37 -53 60 -176 14 -75 28 -162 32 -192 3 -30 10 -72 15 -92 5 -21 11 -65 13 -98 3 -34 9 -67 15 -74 6 -7 20 -38 31 -67 l20 -54 -6 75 c-3 41 -16 143 -27 225 -14 97 -20 169 -16 205 4 30 2 73 -4 95 -9 38 -11 39 -18 15 -4 -14 -7 -22 -8 -17 -1 4 -14 69 -30 145 -16 75 -29 154 -28 174 1 23 -5 43 -14 50 -9 7 -24 45 -34 83 -28 109 -90 284 -149 420 -29 68 -56 139 -60 158 -6 33 -4 37 37 67 43 31 137 147 137 169 0 25 -30 8 -81 -46 -30 -32 -65 -71 -77 -87 -12 -16 -25 -27 -27 -24 -3 3 34 47 82 97 67 72 83 95 72 102 -21 13 -41 11 -72 -10 -32 -21 -97 -107 -97 -128 0 -7 -5 -13 -10 -13 -16 0 -24 28 -12 43 9 11 118 296 124 326 2 7 -2 15 -9 18 -15 5 -87 -180 -123 -314 -6 -24 -15 -43 -20 -43 -13 0 -13 -1 15 98 28 103 44 147 79 225 25 56 25 57 5 57 -12 0 -34 -13 -49 -30 -15 -16 -30 -30 -33 -30 -3 0 -8 17 -12 37 -12 65 -64 147 -82 130 -3 -4 0 -68 7 -144 7 -76 11 -151 8 -168 -2 -16 -7 11 -12 60 -11 134 -44 368 -56 400 -26 68 -80 115 -107 93 -9 -7 -13 -7 -13 1 0 15 -11 14 -36 -3z m53 -93 c-2 -16 -4 -3 -4 27 0 30 2 43 4 28 2 -16 2 -40 0 -55z m21 -158 c0 -22 -3 -18 -9 15 -4 25 -7 59 -7 75 0 22 3 18 9 -15 4 -25 7 -58 7 -75z m159 -457 c-2 -18 -4 -6 -4 27 0 33 2 48 4 33 2 -15 2 -42 0 -60z" transform="translate(0,271) scale(0.1,-0.1)" stroke="none" fill="#82786C"/>

</g>

<g id="4" transform="translate(0,1084.0)scale(0.8,0.8)">

<path d="M286 1413 c-14 -14 -5 -62 19 -97 l25 -37 -46 7 c-41 6 -46 5 -41 -9 5 -14 -6 -17 -76 -19 -78 -3 -82 -4 -85 -27 -3 -19 0 -22 13 -17 38 14 212 7 303 -13 89 -19 146 -40 112 -41 -8 0 -37 7 -65 16 -59 18 -240 33 -314 26 -60 -5 -65 -21 -18 -56 27 -20 41 -21 210 -21 165 0 182 -2 185 -17 2 -12 -3 -18 -14 -18 -9 0 -42 -8 -73 -17 l-56 -18 43 -5 42 -5 -101 -55 c-116 -62 -136 -76 -128 -85 4 -3 34 13 69 35 34 23 64 39 67 36 3 -3 -9 -13 -27 -23 -18 -10 -47 -30 -64 -45 -26 -23 -29 -29 -16 -38 26 -17 66 -11 106 16 21 15 41 29 44 33 8 10 113 96 138 113 21 15 62 14 62 -1 0 -3 -14 -19 -31 -35 -16 -17 -28 -35 -25 -42 2 -6 -4 -24 -15 -40 -20 -31 -26 -74 -9 -74 6 0 10 8 10 18 0 21 52 129 79 162 35 43 33 15 -4 -45 -34 -56 -61 -123 -53 -130 3 -4 18 23 66 121 25 51 39 65 79 79 21 8 33 14 28 15 -11 0 -36 101 -33 130 0 8 0 31 -1 50 -2 29 -4 32 -11 15 -5 -11 -9 -37 -9 -57 -1 -46 -21 -51 -22 -5 -1 17 -4 43 -8 57 l-7 25 -8 -23 c-4 -12 -5 -36 -1 -52 6 -25 4 -29 -10 -24 -10 4 -21 1 -26 -7 -6 -11 -14 -7 -36 17 -69 79 -256 238 -267 227z m243 -356 c-11 -10 -139 -65 -139 -61 0 6 121 64 134 64 5 0 7 -2 5 -3z" transform="translate(0,271) scale(0.1,-0.1)" stroke="none" fill="#82786C"/>

<path d="M1263 1872 c-21 -3 -20 -5 16 -85 35 -75 67 -175 59 -183 -2 -2 -14 28 -27 67 -44 127 -33 64 19 -111 28 -94 54 -179 57 -188 2 -10 -5 -2 -17 16 -27 40 -31 40 -20 3 6 -21 4 -33 -4 -40 -16 -13 -26 -4 -26 23 0 32 -44 118 -74 145 -20 19 -30 22 -46 15 -20 -9 -20 -10 12 -49 53 -63 101 -144 94 -160 -3 -8 -1 -17 3 -20 12 -7 32 -129 25 -151 -4 -14 -2 -14 8 3 7 12 33 37 58 57 42 34 49 36 118 36 59 0 77 4 94 20 19 17 19 20 5 26 -17 6 -116 -8 -151 -22 -14 -5 -17 -3 -14 7 2 8 31 20 63 28 33 8 68 23 79 33 19 18 19 18 -23 18 -23 0 -60 -9 -82 -20 -36 -19 -39 -19 -28 -3 10 16 56 49 201 140 45 28 71 64 62 87 -3 9 -9 16 -13 16 -14 0 -141 -105 -213 -177 -43 -42 -78 -71 -78 -64 0 18 144 155 218 208 34 25 59 49 56 54 -3 6 -15 4 -27 -5 -50 -36 -57 -38 -57 -16 0 27 -6 26 -56 -16 -24 -19 -44 -34 -44 -32 0 2 11 35 25 73 24 69 31 119 19 149 -12 31 -32 15 -60 -49 -15 -35 -30 -62 -32 -60 -2 2 9 33 26 69 36 78 30 95 -12 29 l-29 -48 -12 28 -12 29 -15 -34 c-9 -18 -18 -40 -20 -48 -2 -8 -10 15 -17 50 -22 111 -57 161 -108 152z m181 -306 c-10 -31 -19 -54 -22 -52 -2 2 4 29 14 60 10 31 19 54 22 52 2 -2 -4 -29 -14 -60z m-87 -38 c-3 -8 -6 -5 -6 6 -1 11 2 17 5 13 3 -3 4 -12 1 -19z m60 -50 c-3 -8 -6 -5 -6 6 -1 11 2 17 5 13 3 -3 4 -12 1 -19z" transform="translate(0,271) scale(0.1,-0.1)" stroke="none" fill="#82786C"/>

<path d="M464 2596 c-34 -24 -48 -85 -41 -178 3 -46 13 -104 21 -130 8 -27 13 -48 12 -48 -1 0 -19 9 -41 20 -41 21 -70 25 -79 12 -6 -11 81 -158 136 -230 23 -30 75 -89 115 -130 39 -42 70 -78 67 -81 -8 -9 -124 112 -186 193 -33 44 -80 115 -105 158 -47 80 -65 93 -83 59 -52 -98 91 -280 336 -427 34 -20 7 -27 -43 -10 -131 43 -271 22 -273 -41 0 -10 37 -13 155 -13 97 0 155 -4 155 -10 0 -6 -43 -10 -107 -10 -181 0 -214 -13 -143 -54 31 -18 38 -18 124 -6 124 19 180 17 252 -10 l62 -22 35 -82 c20 -44 51 -120 70 -168 36 -92 35 -98 -16 -98 -16 0 -11 -6 19 -19 48 -22 56 -41 109 -244 43 -170 44 -175 10 -153 -34 22 -31 12 9 -36 31 -35 37 -53 60 -176 14 -75 28 -162 32 -192 3 -30 10 -72 15 -92 5 -21 11 -65 13 -98 3 -34 9 -67 15 -74 6 -7 20 -38 31 -67 l20 -54 -6 75 c-3 41 -16 143 -27 225 -14 97 -20 169 -16 205 4 30 2 73 -4 95 -9 38 -11 39 -18 15 -4 -14 -7 -22 -8 -17 -1 4 -14 69 -30 145 -16 75 -29 154 -28 174 1 23 -5 43 -14 50 -9 7 -24 45 -34 83 -28 109 -90 284 -149 420 -29 68 -56 139 -60 158 -6 33 -4 37 37 67 43 31 137 147 137 169 0 25 -30 8 -81 -46 -30 -32 -65 -71 -77 -87 -12 -16 -25 -27 -27 -24 -3 3 34 47 82 97 67 72 83 95 72 102 -21 13 -41 11 -72 -10 -32 -21 -97 -107 -97 -128 0 -7 -5 -13 -10 -13 -16 0 -24 28 -12 43 9 11 118 296 124 326 2 7 -2 15 -9 18 -15 5 -87 -180 -123 -314 -6 -24 -15 -43 -20 -43 -13 0 -13 -1 15 98 28 103 44 147 79 225 25 56 25 57 5 57 -12 0 -34 -13 -49 -30 -15 -16 -30 -30 -33 -30 -3 0 -8 17 -12 37 -12 65 -64 147 -82 130 -3 -4 0 -68 7 -144 7 -76 11 -151 8 -168 -2 -16 -7 11 -12 60 -11 134 -44 368 -56 400 -26 68 -80 115 -107 93 -9 -7 -13 -7 -13 1 0 15 -11 14 -36 -3z m53 -93 c-2 -16 -4 -3 -4 27 0 30 2 43 4 28 2 -16 2 -40 0 -55z m21 -158 c0 -22 -3 -18 -9 15 -4 25 -7 59 -7 75 0 22 3 18 9 -15 4 -25 7 -58 7 -75z m159 -457 c-2 -18 -4 -6 -4 27 0 33 2 48 4 33 2 -15 2 -42 0 -60z" transform="translate(0,271) scale(0.1,-0.1)" stroke="none" fill="#82786C"/>

</g>

</g>
</svg>