<?xml version="1.0" standalone="no"?>
<!DOCTYPE svg PUBLIC "-//W3C//DTD SVG 20010904//EN"
 "http://www.w3.org/TR/2001/REC-SVG-20010904/DTD/svg10.dtd">
<svg version="1.0" xmlns="http://www.w3.org/2000/svg" width="784pt" height="584pt" viewBox="0 0 784 584" preserveAspectRatio = "xMidYMid meet" >
<metadata>
Created by ZoeQu, written in 2022
</metadata>
<rect width="784" height="584" fill="#E8BF96"/>
<g id="row0" transform="translate(26,0.0)">
<g id="0" transform="translate(0.0,0)scale(1,1)">

<path d="M702 1374 c-22 -15 -32 -74 -12 -74 6 0 10 -8 10 -19 0 -10 18 -35 40 -55 22 -20 40 -43 40 -51 0 -8 9 -20 20 -27 11 -7 20 -21 20 -30 0 -10 4 -18 9 -18 13 0 22 168 11 210 -18 69 -87 100 -138 64z" transform="translate(0,146) scale(0.1,-0.1)" stroke="none" fill="#9B7044"/>

<path d="M115 886 c-17 -7 -36 -26 -43 -41 -11 -23 -10 -32 6 -58 24 -43 87 -66 180 -66 42 -1 88 -8 110 -16 63 -27 112 -35 112 -19 0 9 -11 14 -30 14 -16 0 -30 5 -30 10 0 6 -9 10 -20 10 -11 0 -20 5 -20 10 0 6 -13 10 -30 10 -16 0 -30 5 -30 10 0 6 -7 10 -16 10 -8 0 -41 26 -72 58 -82 82 -82 82 -117 68z" transform="translate(0,146) scale(0.1,-0.1)" stroke="none" fill="#9B7044"/>

<path d="M1745 1070 c-3 -5 -15 -10 -26 -10 -10 0 -19 -4 -19 -10 0 -5 -13 -10 -30 -10 -16 0 -30 -4 -30 -9 0 -5 -30 -14 -67 -21 -87 -16 -147 -35 -202 -66 -51 -28 -55 -29 -47 -9 6 17 -2 45 -13 45 -13 0 -36 -65 -33 -92 4 -35 13 -35 65 1 23 15 52 33 64 39 61 33 253 64 253 42 0 -5 9 -10 20 -10 11 0 20 -4 20 -10 0 -5 9 -10 20 -10 11 0 20 -4 20 -10 0 -13 33 -13 64 1 30 14 51 60 42 94 -9 36 -86 70 -101 45z" transform="translate(0,146) scale(0.1,-0.1)" stroke="none" fill="#9B7044"/>

<path d="M425 1044 c-37 -19 -45 -31 -45 -71 0 -56 44 -80 129 -70 42 5 72 15 149 50 42 20 242 -23 242 -52 0 -10 56 -96 87 -134 13 -16 23 -33 23 -38 0 -5 -25 -9 -56 -9 -40 0 -55 -3 -52 -12 3 -9 30 -14 74 -16 l70 -3 84 -84 c47 -47 88 -85 92 -85 5 0 32 -22 61 -50 28 -27 56 -50 60 -50 5 0 15 -7 23 -15 19 -19 34 -19 34 -1 0 7 -11 21 -25 30 -14 10 -31 29 -37 44 -11 26 -42 62 -52 62 -2 0 -6 -8 -8 -17 -3 -13 -34 12 -119 97 -117 117 -201 230 -255 345 -16 33 -30 62 -31 64 -1 2 -10 -2 -18 -9 -11 -9 -13 -16 -5 -24 20 -20 8 -23 -96 -18 -99 4 -111 7 -180 43 -83 43 -105 46 -149 23z" transform="translate(0,146) scale(0.1,-0.1)" stroke="none" fill="#9B7044"/>

<path d="M645 690 c-3 -5 -37 -10 -75 -10 -65 0 -105 -15 -58 -22 17 -2 8 -10 -43 -36 -36 -19 -88 -53 -115 -76 -27 -24 -76 -57 -109 -74 -100 -50 -139 -98 -128 -155 6 -30 46 -67 73 -67 23 0 70 38 70 56 0 8 5 14 10 14 6 0 10 14 10 30 0 17 5 30 10 30 6 0 10 11 10 24 0 38 34 88 91 130 62 48 177 107 184 96 3 -5 1 -11 -5 -15 -19 -12 -50 -88 -56 -139 -4 -27 -20 -79 -36 -115 -32 -70 -49 -151 -41 -193 14 -72 103 -103 158 -55 22 19 27 31 27 72 0 27 -5 51 -11 53 -6 2 -11 12 -11 23 0 10 -4 19 -10 19 -5 0 -10 9 -10 20 0 11 -4 20 -10 20 -5 0 -10 9 -10 20 0 11 -4 20 -10 20 -15 0 -12 111 5 161 9 24 31 65 50 91 29 40 41 48 85 57 28 6 67 11 85 11 19 0 35 5 35 10 0 6 -33 10 -79 10 -44 0 -83 -4 -86 -10z" transform="translate(0,146) scale(0.1,-0.1)" stroke="none" fill="#9B7044"/>

</g>

<g id="1" transform="translate(196.0,0)scale(1,1)">

<path d="M702 1374 c-22 -15 -32 -74 -12 -74 6 0 10 -8 10 -19 0 -10 18 -35 40 -55 22 -20 40 -43 40 -51 0 -8 9 -20 20 -27 11 -7 20 -21 20 -30 0 -10 4 -18 9 -18 13 0 22 168 11 210 -18 69 -87 100 -138 64z" transform="translate(0,146) scale(0.1,-0.1)" stroke="none" fill="#9B7044"/>

<path d="M115 886 c-17 -7 -36 -26 -43 -41 -11 -23 -10 -32 6 -58 24 -43 87 -66 180 -66 42 -1 88 -8 110 -16 63 -27 112 -35 112 -19 0 9 -11 14 -30 14 -16 0 -30 5 -30 10 0 6 -9 10 -20 10 -11 0 -20 5 -20 10 0 6 -13 10 -30 10 -16 0 -30 5 -30 10 0 6 -7 10 -16 10 -8 0 -41 26 -72 58 -82 82 -82 82 -117 68z" transform="translate(0,146) scale(0.1,-0.1)" stroke="none" fill="#9B7044"/>

<path d="M1745 1070 c-3 -5 -15 -10 -26 -10 -10 0 -19 -4 -19 -10 0 -5 -13 -10 -30 -10 -16 0 -30 -4 -30 -9 0 -5 -30 -14 -67 -21 -87 -16 -147 -35 -202 -66 -51 -28 -55 -29 -47 -9 6 17 -2 45 -13 45 -13 0 -36 -65 -33 -92 4 -35 13 -35 65 1 23 15 52 33 64 39 61 33 253 64 253 42 0 -5 9 -10 20 -10 11 0 20 -4 20 -10 0 -5 9 -10 20 -10 11 0 20 -4 20 -10 0 -13 33 -13 64 1 30 14 51 60 42 94 -9 36 -86 70 -101 45z" transform="translate(0,146) scale(0.1,-0.1)" stroke="none" fill="#9B7044"/>

<path d="M425 1044 c-37 -19 -45 -31 -45 -71 0 -56 44 -80 129 -70 42 5 72 15 149 50 42 20 242 -23 242 -52 0 -10 56 -96 87 -134 13 -16 23 -33 23 -38 0 -5 -25 -9 -56 -9 -40 0 -55 -3 -52 -12 3 -9 30 -14 74 -16 l70 -3 84 -84 c47 -47 88 -85 92 -85 5 0 32 -22 61 -50 28 -27 56 -50 60 -50 5 0 15 -7 23 -15 19 -19 34 -19 34 -1 0 7 -11 21 -25 30 -14 10 -31 29 -37 44 -11 26 -42 62 -52 62 -2 0 -6 -8 -8 -17 -3 -13 -34 12 -119 97 -117 117 -201 230 -255 345 -16 33 -30 62 -31 64 -1 2 -10 -2 -18 -9 -11 -9 -13 -16 -5 -24 20 -20 8 -23 -96 -18 -99 4 -111 7 -180 43 -83 43 -105 46 -149 23z" transform="translate(0,146) scale(0.1,-0.1)" stroke="none" fill="#9B7044"/>

<path d="M645 690 c-3 -5 -37 -10 -75 -10 -65 0 -105 -15 -58 -22 17 -2 8 -10 -43 -36 -36 -19 -88 -53 -115 -76 -27 -24 -76 -57 -109 -74 -100 -50 -139 -98 -128 -155 6 -30 46 -67 73 -67 23 0 70 38 70 56 0 8 5 14 10 14 6 0 10 14 10 30 0 17 5 30 10 30 6 0 10 11 10 24 0 38 34 88 91 130 62 48 177 107 184 96 3 -5 1 -11 -5 -15 -19 -12 -50 -88 -56 -139 -4 -27 -20 -79 -36 -115 -32 -70 -49 -151 -41 -193 14 -72 103 -103 158 -55 22 19 27 31 27 72 0 27 -5 51 -11 53 -6 2 -11 12 -11 23 0 10 -4 19 -10 19 -5 0 -10 9 -10 20 0 11 -4 20 -10 20 -5 0 -10 9 -10 20 0 11 -4 20 -10 20 -15 0 -12 111 5 161 9 24 31 65 50 91 29 40 41 48 85 57 28 6 67 11 85 11 19 0 35 5 35 10 0 6 -33 10 -79 10 -44 0 -83 -4 -86 -10z" transform="translate(0,146) scale(0.1,-0.1)" stroke="none" fill="#9B7044"/>

</g>

<g id="2" transform="translate(392.0,0)scale(1,1)">

<path d="M702 1374 c-22 -15 -32 -74 -12 -74 6 0 10 -8 10 -19 0 -10 18 -35 40 -55 22 -20 40 -43 40 -51 0 -8 9 -20 20 -27 11 -7 20 -21 20 -30 0 -10 4 -18 9 -18 13 0 22 168 11 210 -18 69 -87 100 -138 64z" transform="translate(0,146) scale(0.1,-0.1)" stroke="none" fill="#9B7044"/>

<path d="M115 886 c-17 -7 -36 -26 -43 -41 -11 -23 -10 -32 6 -58 24 -43 87 -66 180 -66 42 -1 88 -8 110 -16 63 -27 112 -35 112 -19 0 9 -11 14 -30 14 -16 0 -30 5 -30 10 0 6 -9 10 -20 10 -11 0 -20 5 -20 10 0 6 -13 10 -30 10 -16 0 -30 5 -30 10 0 6 -7 10 -16 10 -8 0 -41 26 -72 58 -82 82 -82 82 -117 68z" transform="translate(0,146) scale(0.1,-0.1)" stroke="none" fill="#9B7044"/>

<path d="M1745 1070 c-3 -5 -15 -10 -26 -10 -10 0 -19 -4 -19 -10 0 -5 -13 -10 -30 -10 -16 0 -30 -4 -30 -9 0 -5 -30 -14 -67 -21 -87 -16 -147 -35 -202 -66 -51 -28 -55 -29 -47 -9 6 17 -2 45 -13 45 -13 0 -36 -65 -33 -92 4 -35 13 -35 65 1 23 15 52 33 64 39 61 33 253 64 253 42 0 -5 9 -10 20 -10 11 0 20 -4 20 -10 0 -5 9 -10 20 -10 11 0 20 -4 20 -10 0 -13 33 -13 64 1 30 14 51 60 42 94 -9 36 -86 70 -101 45z" transform="translate(0,146) scale(0.1,-0.1)" stroke="none" fill="#9B7044"/>

<path d="M425 1044 c-37 -19 -45 -31 -45 -71 0 -56 44 -80 129 -70 42 5 72 15 149 50 42 20 242 -23 242 -52 0 -10 56 -96 87 -134 13 -16 23 -33 23 -38 0 -5 -25 -9 -56 -9 -40 0 -55 -3 -52 -12 3 -9 30 -14 74 -16 l70 -3 84 -84 c47 -47 88 -85 92 -85 5 0 32 -22 61 -50 28 -27 56 -50 60 -50 5 0 15 -7 23 -15 19 -19 34 -19 34 -1 0 7 -11 21 -25 30 -14 10 -31 29 -37 44 -11 26 -42 62 -52 62 -2 0 -6 -8 -8 -17 -3 -13 -34 12 -119 97 -117 117 -201 230 -255 345 -16 33 -30 62 -31 64 -1 2 -10 -2 -18 -9 -11 -9 -13 -16 -5 -24 20 -20 8 -23 -96 -18 -99 4 -111 7 -180 43 -83 43 -105 46 -149 23z" transform="translate(0,146) scale(0.1,-0.1)" stroke="none" fill="#9B7044"/>

<path d="M645 690 c-3 -5 -37 -10 -75 -10 -65 0 -105 -15 -58 -22 17 -2 8 -10 -43 -36 -36 -19 -88 -53 -115 -76 -27 -24 -76 -57 -109 -74 -100 -50 -139 -98 -128 -155 6 -30 46 -67 73 -67 23 0 70 38 70 56 0 8 5 14 10 14 6 0 10 14 10 30 0 17 5 30 10 30 6 0 10 11 10 24 0 38 34 88 91 130 62 48 177 107 184 96 3 -5 1 -11 -5 -15 -19 -12 -50 -88 -56 -139 -4 -27 -20 -79 -36 -115 -32 -70 -49 -151 -41 -193 14 -72 103 -103 158 -55 22 19 27 31 27 72 0 27 -5 51 -11 53 -6 2 -11 12 -11 23 0 10 -4 19 -10 19 -5 0 -10 9 -10 20 0 11 -4 20 -10 20 -5 0 -10 9 -10 20 0 11 -4 20 -10 20 -15 0 -12 111 5 161 9 24 31 65 50 91 29 40 41 48 85 57 28 6 67 11 85 11 19 0 35 5 35 10 0 6 -33 10 -79 10 -44 0 -83 -4 -86 -10z" transform="translate(0,146) scale(0.1,-0.1)" stroke="none" fill="#9B7044"/>

</g>

<g id="3" transform="translate(588.0,0)scale(1,1)">

<path d="M702 1374 c-22 -15 -32 -74 -12 -74 6 0 10 -8 10 -19 0 -10 18 -35 40 -55 22 -20 40 -43 40 -51 0 -8 9 -20 20 -27 11 -7 20 -21 20 -30 0 -10 4 -18 9 -18 13 0 22 168 11 210 -18 69 -87 100 -138 64z" transform="translate(0,146) scale(0.1,-0.1)" stroke="none" fill="#9B7044"/>

<path d="M115 886 c-17 -7 -36 -26 -43 -41 -11 -23 -10 -32 6 -58 24 -43 87 -66 180 -66 42 -1 88 -8 110 -16 63 -27 112 -35 112 -19 0 9 -11 14 -30 14 -16 0 -30 5 -30 10 0 6 -9 10 -20 10 -11 0 -20 5 -20 10 0 6 -13 10 -30 10 -16 0 -30 5 -30 10 0 6 -7 10 -16 10 -8 0 -41 26 -72 58 -82 82 -82 82 -117 68z" transform="translate(0,146) scale(0.1,-0.1)" stroke="none" fill="#9B7044"/>

<path d="M1745 1070 c-3 -5 -15 -10 -26 -10 -10 0 -19 -4 -19 -10 0 -5 -13 -10 -30 -10 -16 0 -30 -4 -30 -9 0 -5 -30 -14 -67 -21 -87 -16 -147 -35 -202 -66 -51 -28 -55 -29 -47 -9 6 17 -2 45 -13 45 -13 0 -36 -65 -33 -92 4 -35 13 -35 65 1 23 15 52 33 64 39 61 33 253 64 253 42 0 -5 9 -10 20 -10 11 0 20 -4 20 -10 0 -5 9 -10 20 -10 11 0 20 -4 20 -10 0 -13 33 -13 64 1 30 14 51 60 42 94 -9 36 -86 70 -101 45z" transform="translate(0,146) scale(0.1,-0.1)" stroke="none" fill="#9B7044"/>

<path d="M425 1044 c-37 -19 -45 -31 -45 -71 0 -56 44 -80 129 -70 42 5 72 15 149 50 42 20 242 -23 242 -52 0 -10 56 -96 87 -134 13 -16 23 -33 23 -38 0 -5 -25 -9 -56 -9 -40 0 -55 -3 -52 -12 3 -9 30 -14 74 -16 l70 -3 84 -84 c47 -47 88 -85 92 -85 5 0 32 -22 61 -50 28 -27 56 -50 60 -50 5 0 15 -7 23 -15 19 -19 34 -19 34 -1 0 7 -11 21 -25 30 -14 10 -31 29 -37 44 -11 26 -42 62 -52 62 -2 0 -6 -8 -8 -17 -3 -13 -34 12 -119 97 -117 117 -201 230 -255 345 -16 33 -30 62 -31 64 -1 2 -10 -2 -18 -9 -11 -9 -13 -16 -5 -24 20 -20 8 -23 -96 -18 -99 4 -111 7 -180 43 -83 43 -105 46 -149 23z" transform="translate(0,146) scale(0.1,-0.1)" stroke="none" fill="#9B7044"/>

<path d="M645 690 c-3 -5 -37 -10 -75 -10 -65 0 -105 -15 -58 -22 17 -2 8 -10 -43 -36 -36 -19 -88 -53 -115 -76 -27 -24 -76 -57 -109 -74 -100 -50 -139 -98 -128 -155 6 -30 46 -67 73 -67 23 0 70 38 70 56 0 8 5 14 10 14 6 0 10 14 10 30 0 17 5 30 10 30 6 0 10 11 10 24 0 38 34 88 91 130 62 48 177 107 184 96 3 -5 1 -11 -5 -15 -19 -12 -50 -88 -56 -139 -4 -27 -20 -79 -36 -115 -32 -70 -49 -151 -41 -193 14 -72 103 -103 158 -55 22 19 27 31 27 72 0 27 -5 51 -11 53 -6 2 -11 12 -11 23 0 10 -4 19 -10 19 -5 0 -10 9 -10 20 0 11 -4 20 -10 20 -5 0 -10 9 -10 20 0 11 -4 20 -10 20 -15 0 -12 111 5 161 9 24 31 65 50 91 29 40 41 48 85 57 28 6 67 11 85 11 19 0 35 5 35 10 0 6 -33 10 -79 10 -44 0 -83 -4 -86 -10z" transform="translate(0,146) scale(0.1,-0.1)" stroke="none" fill="#9B7044"/>

</g>

<g id="4" transform="translate(784.0,0)scale(1,1)">

<path d="M702 1374 c-22 -15 -32 -74 -12 -74 6 0 10 -8 10 -19 0 -10 18 -35 40 -55 22 -20 40 -43 40 -51 0 -8 9 -20 20 -27 11 -7 20 -21 20 -30 0 -10 4 -18 9 -18 13 0 22 168 11 210 -18 69 -87 100 -138 64z" transform="translate(0,146) scale(0.1,-0.1)" stroke="none" fill="#9B7044"/>

<path d="M115 886 c-17 -7 -36 -26 -43 -41 -11 -23 -10 -32 6 -58 24 -43 87 -66 180 -66 42 -1 88 -8 110 -16 63 -27 112 -35 112 -19 0 9 -11 14 -30 14 -16 0 -30 5 -30 10 0 6 -9 10 -20 10 -11 0 -20 5 -20 10 0 6 -13 10 -30 10 -16 0 -30 5 -30 10 0 6 -7 10 -16 10 -8 0 -41 26 -72 58 -82 82 -82 82 -117 68z" transform="translate(0,146) scale(0.1,-0.1)" stroke="none" fill="#9B7044"/>

<path d="M1745 1070 c-3 -5 -15 -10 -26 -10 -10 0 -19 -4 -19 -10 0 -5 -13 -10 -30 -10 -16 0 -30 -4 -30 -9 0 -5 -30 -14 -67 -21 -87 -16 -147 -35 -202 -66 -51 -28 -55 -29 -47 -9 6 17 -2 45 -13 45 -13 0 -36 -65 -33 -92 4 -35 13 -35 65 1 23 15 52 33 64 39 61 33 253 64 253 42 0 -5 9 -10 20 -10 11 0 20 -4 20 -10 0 -5 9 -10 20 -10 11 0 20 -4 20 -10 0 -13 33 -13 64 1 30 14 51 60 42 94 -9 36 -86 70 -101 45z" transform="translate(0,146) scale(0.1,-0.1)" stroke="none" fill="#9B7044"/>

<path d="M425 1044 c-37 -19 -45 -31 -45 -71 0 -56 44 -80 129 -70 42 5 72 15 149 50 42 20 242 -23 242 -52 0 -10 56 -96 87 -134 13 -16 23 -33 23 -38 0 -5 -25 -9 -56 -9 -40 0 -55 -3 -52 -12 3 -9 30 -14 74 -16 l70 -3 84 -84 c47 -47 88 -85 92 -85 5 0 32 -22 61 -50 28 -27 56 -50 60 -50 5 0 15 -7 23 -15 19 -19 34 -19 34 -1 0 7 -11 21 -25 30 -14 10 -31 29 -37 44 -11 26 -42 62 -52 62 -2 0 -6 -8 -8 -17 -3 -13 -34 12 -119 97 -117 117 -201 230 -255 345 -16 33 -30 62 -31 64 -1 2 -10 -2 -18 -9 -11 -9 -13 -16 -5 -24 20 -20 8 -23 -96 -18 -99 4 -111 7 -180 43 -83 43 -105 46 -149 23z" transform="translate(0,146) scale(0.1,-0.1)" stroke="none" fill="#9B7044"/>

<path d="M645 690 c-3 -5 -37 -10 -75 -10 -65 0 -105 -15 -58 -22 17 -2 8 -10 -43 -36 -36 -19 -88 -53 -115 -76 -27 -24 -76 -57 -109 -74 -100 -50 -139 -98 -128 -155 6 -30 46 -67 73 -67 23 0 70 38 70 56 0 8 5 14 10 14 6 0 10 14 10 30 0 17 5 30 10 30 6 0 10 11 10 24 0 38 34 88 91 130 62 48 177 107 184 96 3 -5 1 -11 -5 -15 -19 -12 -50 -88 -56 -139 -4 -27 -20 -79 -36 -115 -32 -70 -49 -151 -41 -193 14 -72 103 -103 158 -55 22 19 27 31 27 72 0 27 -5 51 -11 53 -6 2 -11 12 -11 23 0 10 -4 19 -10 19 -5 0 -10 9 -10 20 0 11 -4 20 -10 20 -5 0 -10 9 -10 20 0 11 -4 20 -10 20 -15 0 -12 111 5 161 9 24 31 65 50 91 29 40 41 48 85 57 28 6 67 11 85 11 19 0 35 5 35 10 0 6 -33 10 -79 10 -44 0 -83 -4 -86 -10z" transform="translate(0,146) scale(0.1,-0.1)" stroke="none" fill="#9B7044"/>

</g>

</g>
<g id="row1" transform="translate(26,146.0)">
<g id="0" transform="translate(0.0,0)scale(1,1)">

<path d="M702 1374 c-22 -15 -32 -74 -12 -74 6 0 10 -8 10 -19 0 -10 18 -35 40 -55 22 -20 40 -43 40 -51 0 -8 9 -20 20 -27 11 -7 20 -21 20 -30 0 -10 4 -18 9 -18 13 0 22 168 11 210 -18 69 -87 100 -138 64z" transform="translate(0,146) scale(0.1,-0.1)" stroke="none" fill="#9B7044"/>

<path d="M115 886 c-17 -7 -36 -26 -43 -41 -11 -23 -10 -32 6 -58 24 -43 87 -66 180 -66 42 -1 88 -8 110 -16 63 -27 112 -35 112 -19 0 9 -11 14 -30 14 -16 0 -30 5 -30 10 0 6 -9 10 -20 10 -11 0 -20 5 -20 10 0 6 -13 10 -30 10 -16 0 -30 5 -30 10 0 6 -7 10 -16 10 -8 0 -41 26 -72 58 -82 82 -82 82 -117 68z" transform="translate(0,146) scale(0.1,-0.1)" stroke="none" fill="#9B7044"/>

<path d="M1745 1070 c-3 -5 -15 -10 -26 -10 -10 0 -19 -4 -19 -10 0 -5 -13 -10 -30 -10 -16 0 -30 -4 -30 -9 0 -5 -30 -14 -67 -21 -87 -16 -147 -35 -202 -66 -51 -28 -55 -29 -47 -9 6 17 -2 45 -13 45 -13 0 -36 -65 -33 -92 4 -35 13 -35 65 1 23 15 52 33 64 39 61 33 253 64 253 42 0 -5 9 -10 20 -10 11 0 20 -4 20 -10 0 -5 9 -10 20 -10 11 0 20 -4 20 -10 0 -13 33 -13 64 1 30 14 51 60 42 94 -9 36 -86 70 -101 45z" transform="translate(0,146) scale(0.1,-0.1)" stroke="none" fill="#9B7044"/>

<path d="M425 1044 c-37 -19 -45 -31 -45 -71 0 -56 44 -80 129 -70 42 5 72 15 149 50 42 20 242 -23 242 -52 0 -10 56 -96 87 -134 13 -16 23 -33 23 -38 0 -5 -25 -9 -56 -9 -40 0 -55 -3 -52 -12 3 -9 30 -14 74 -16 l70 -3 84 -84 c47 -47 88 -85 92 -85 5 0 32 -22 61 -50 28 -27 56 -50 60 -50 5 0 15 -7 23 -15 19 -19 34 -19 34 -1 0 7 -11 21 -25 30 -14 10 -31 29 -37 44 -11 26 -42 62 -52 62 -2 0 -6 -8 -8 -17 -3 -13 -34 12 -119 97 -117 117 -201 230 -255 345 -16 33 -30 62 -31 64 -1 2 -10 -2 -18 -9 -11 -9 -13 -16 -5 -24 20 -20 8 -23 -96 -18 -99 4 -111 7 -180 43 -83 43 -105 46 -149 23z" transform="translate(0,146) scale(0.1,-0.1)" stroke="none" fill="#9B7044"/>

<path d="M645 690 c-3 -5 -37 -10 -75 -10 -65 0 -105 -15 -58 -22 17 -2 8 -10 -43 -36 -36 -19 -88 -53 -115 -76 -27 -24 -76 -57 -109 -74 -100 -50 -139 -98 -128 -155 6 -30 46 -67 73 -67 23 0 70 38 70 56 0 8 5 14 10 14 6 0 10 14 10 30 0 17 5 30 10 30 6 0 10 11 10 24 0 38 34 88 91 130 62 48 177 107 184 96 3 -5 1 -11 -5 -15 -19 -12 -50 -88 -56 -139 -4 -27 -20 -79 -36 -115 -32 -70 -49 -151 -41 -193 14 -72 103 -103 158 -55 22 19 27 31 27 72 0 27 -5 51 -11 53 -6 2 -11 12 -11 23 0 10 -4 19 -10 19 -5 0 -10 9 -10 20 0 11 -4 20 -10 20 -5 0 -10 9 -10 20 0 11 -4 20 -10 20 -15 0 -12 111 5 161 9 24 31 65 50 91 29 40 41 48 85 57 28 6 67 11 85 11 19 0 35 5 35 10 0 6 -33 10 -79 10 -44 0 -83 -4 -86 -10z" transform="translate(0,146) scale(0.1,-0.1)" stroke="none" fill="#9B7044"/>

</g>

<g id="1" transform="translate(196.0,0)scale(1,1)">

<path d="M702 1374 c-22 -15 -32 -74 -12 -74 6 0 10 -8 10 -19 0 -10 18 -35 40 -55 22 -20 40 -43 40 -51 0 -8 9 -20 20 -27 11 -7 20 -21 20 -30 0 -10 4 -18 9 -18 13 0 22 168 11 210 -18 69 -87 100 -138 64z" transform="translate(0,146) scale(0.1,-0.1)" stroke="none" fill="#9B7044"/>

<path d="M115 886 c-17 -7 -36 -26 -43 -41 -11 -23 -10 -32 6 -58 24 -43 87 -66 180 -66 42 -1 88 -8 110 -16 63 -27 112 -35 112 -19 0 9 -11 14 -30 14 -16 0 -30 5 -30 10 0 6 -9 10 -20 10 -11 0 -20 5 -20 10 0 6 -13 10 -30 10 -16 0 -30 5 -30 10 0 6 -7 10 -16 10 -8 0 -41 26 -72 58 -82 82 -82 82 -117 68z" transform="translate(0,146) scale(0.1,-0.1)" stroke="none" fill="#9B7044"/>

<path d="M1745 1070 c-3 -5 -15 -10 -26 -10 -10 0 -19 -4 -19 -10 0 -5 -13 -10 -30 -10 -16 0 -30 -4 -30 -9 0 -5 -30 -14 -67 -21 -87 -16 -147 -35 -202 -66 -51 -28 -55 -29 -47 -9 6 17 -2 45 -13 45 -13 0 -36 -65 -33 -92 4 -35 13 -35 65 1 23 15 52 33 64 39 61 33 253 64 253 42 0 -5 9 -10 20 -10 11 0 20 -4 20 -10 0 -5 9 -10 20 -10 11 0 20 -4 20 -10 0 -13 33 -13 64 1 30 14 51 60 42 94 -9 36 -86 70 -101 45z" transform="translate(0,146) scale(0.1,-0.1)" stroke="none" fill="#9B7044"/>

<path d="M425 1044 c-37 -19 -45 -31 -45 -71 0 -56 44 -80 129 -70 42 5 72 15 149 50 42 20 242 -23 242 -52 0 -10 56 -96 87 -134 13 -16 23 -33 23 -38 0 -5 -25 -9 -56 -9 -40 0 -55 -3 -52 -12 3 -9 30 -14 74 -16 l70 -3 84 -84 c47 -47 88 -85 92 -85 5 0 32 -22 61 -50 28 -27 56 -50 60 -50 5 0 15 -7 23 -15 19 -19 34 -19 34 -1 0 7 -11 21 -25 30 -14 10 -31 29 -37 44 -11 26 -42 62 -52 62 -2 0 -6 -8 -8 -17 -3 -13 -34 12 -119 97 -117 117 -201 230 -255 345 -16 33 -30 62 -31 64 -1 2 -10 -2 -18 -9 -11 -9 -13 -16 -5 -24 20 -20 8 -23 -96 -18 -99 4 -111 7 -180 43 -83 43 -105 46 -149 23z" transform="translate(0,146) scale(0.1,-0.1)" stroke="none" fill="#9B7044"/>

<path d="M645 690 c-3 -5 -37 -10 -75 -10 -65 0 -105 -15 -58 -22 17 -2 8 -10 -43 -36 -36 -19 -88 -53 -115 -76 -27 -24 -76 -57 -109 -74 -100 -50 -139 -98 -128 -155 6 -30 46 -67 73 -67 23 0 70 38 70 56 0 8 5 14 10 14 6 0 10 14 10 30 0 17 5 30 10 30 6 0 10 11 10 24 0 38 34 88 91 130 62 48 177 107 184 96 3 -5 1 -11 -5 -15 -19 -12 -50 -88 -56 -139 -4 -27 -20 -79 -36 -115 -32 -70 -49 -151 -41 -193 14 -72 103 -103 158 -55 22 19 27 31 27 72 0 27 -5 51 -11 53 -6 2 -11 12 -11 23 0 10 -4 19 -10 19 -5 0 -10 9 -10 20 0 11 -4 20 -10 20 -5 0 -10 9 -10 20 0 11 -4 20 -10 20 -15 0 -12 111 5 161 9 24 31 65 50 91 29 40 41 48 85 57 28 6 67 11 85 11 19 0 35 5 35 10 0 6 -33 10 -79 10 -44 0 -83 -4 -86 -10z" transform="translate(0,146) scale(0.1,-0.1)" stroke="none" fill="#9B7044"/>

</g>

<g id="2" transform="translate(392.0,0)scale(1,1)">

<path d="M702 1374 c-22 -15 -32 -74 -12 -74 6 0 10 -8 10 -19 0 -10 18 -35 40 -55 22 -20 40 -43 40 -51 0 -8 9 -20 20 -27 11 -7 20 -21 20 -30 0 -10 4 -18 9 -18 13 0 22 168 11 210 -18 69 -87 100 -138 64z" transform="translate(0,146) scale(0.1,-0.1)" stroke="none" fill="#9B7044"/>

<path d="M115 886 c-17 -7 -36 -26 -43 -41 -11 -23 -10 -32 6 -58 24 -43 87 -66 180 -66 42 -1 88 -8 110 -16 63 -27 112 -35 112 -19 0 9 -11 14 -30 14 -16 0 -30 5 -30 10 0 6 -9 10 -20 10 -11 0 -20 5 -20 10 0 6 -13 10 -30 10 -16 0 -30 5 -30 10 0 6 -7 10 -16 10 -8 0 -41 26 -72 58 -82 82 -82 82 -117 68z" transform="translate(0,146) scale(0.1,-0.1)" stroke="none" fill="#9B7044"/>

<path d="M1745 1070 c-3 -5 -15 -10 -26 -10 -10 0 -19 -4 -19 -10 0 -5 -13 -10 -30 -10 -16 0 -30 -4 -30 -9 0 -5 -30 -14 -67 -21 -87 -16 -147 -35 -202 -66 -51 -28 -55 -29 -47 -9 6 17 -2 45 -13 45 -13 0 -36 -65 -33 -92 4 -35 13 -35 65 1 23 15 52 33 64 39 61 33 253 64 253 42 0 -5 9 -10 20 -10 11 0 20 -4 20 -10 0 -5 9 -10 20 -10 11 0 20 -4 20 -10 0 -13 33 -13 64 1 30 14 51 60 42 94 -9 36 -86 70 -101 45z" transform="translate(0,146) scale(0.1,-0.1)" stroke="none" fill="#9B7044"/>

<path d="M425 1044 c-37 -19 -45 -31 -45 -71 0 -56 44 -80 129 -70 42 5 72 15 149 50 42 20 242 -23 242 -52 0 -10 56 -96 87 -134 13 -16 23 -33 23 -38 0 -5 -25 -9 -56 -9 -40 0 -55 -3 -52 -12 3 -9 30 -14 74 -16 l70 -3 84 -84 c47 -47 88 -85 92 -85 5 0 32 -22 61 -50 28 -27 56 -50 60 -50 5 0 15 -7 23 -15 19 -19 34 -19 34 -1 0 7 -11 21 -25 30 -14 10 -31 29 -37 44 -11 26 -42 62 -52 62 -2 0 -6 -8 -8 -17 -3 -13 -34 12 -119 97 -117 117 -201 230 -255 345 -16 33 -30 62 -31 64 -1 2 -10 -2 -18 -9 -11 -9 -13 -16 -5 -24 20 -20 8 -23 -96 -18 -99 4 -111 7 -180 43 -83 43 -105 46 -149 23z" transform="translate(0,146) scale(0.1,-0.1)" stroke="none" fill="#9B7044"/>

<path d="M645 690 c-3 -5 -37 -10 -75 -10 -65 0 -105 -15 -58 -22 17 -2 8 -10 -43 -36 -36 -19 -88 -53 -115 -76 -27 -24 -76 -57 -109 -74 -100 -50 -139 -98 -128 -155 6 -30 46 -67 73 -67 23 0 70 38 70 56 0 8 5 14 10 14 6 0 10 14 10 30 0 17 5 30 10 30 6 0 10 11 10 24 0 38 34 88 91 130 62 48 177 107 184 96 3 -5 1 -11 -5 -15 -19 -12 -50 -88 -56 -139 -4 -27 -20 -79 -36 -115 -32 -70 -49 -151 -41 -193 14 -72 103 -103 158 -55 22 19 27 31 27 72 0 27 -5 51 -11 53 -6 2 -11 12 -11 23 0 10 -4 19 -10 19 -5 0 -10 9 -10 20 0 11 -4 20 -10 20 -5 0 -10 9 -10 20 0 11 -4 20 -10 20 -15 0 -12 111 5 161 9 24 31 65 50 91 29 40 41 48 85 57 28 6 67 11 85 11 19 0 35 5 35 10 0 6 -33 10 -79 10 -44 0 -83 -4 -86 -10z" transform="translate(0,146) scale(0.1,-0.1)" stroke="none" fill="#9B7044"/>

</g>

<g id="3" transform="translate(588.0,0)scale(1,1)">

<path d="M702 1374 c-22 -15 -32 -74 -12 -74 6 0 10 -8 10 -19 0 -10 18 -35 40 -55 22 -20 40 -43 40 -51 0 -8 9 -20 20 -27 11 -7 20 -21 20 -30 0 -10 4 -18 9 -18 13 0 22 168 11 210 -18 69 -87 100 -138 64z" transform="translate(0,146) scale(0.1,-0.1)" stroke="none" fill="#9B7044"/>

<path d="M115 886 c-17 -7 -36 -26 -43 -41 -11 -23 -10 -32 6 -58 24 -43 87 -66 180 -66 42 -1 88 -8 110 -16 63 -27 112 -35 112 -19 0 9 -11 14 -30 14 -16 0 -30 5 -30 10 0 6 -9 10 -20 10 -11 0 -20 5 -20 10 0 6 -13 10 -30 10 -16 0 -30 5 -30 10 0 6 -7 10 -16 10 -8 0 -41 26 -72 58 -82 82 -82 82 -117 68z" transform="translate(0,146) scale(0.1,-0.1)" stroke="none" fill="#9B7044"/>

<path d="M1745 1070 c-3 -5 -15 -10 -26 -10 -10 0 -19 -4 -19 -10 0 -5 -13 -10 -30 -10 -16 0 -30 -4 -30 -9 0 -5 -30 -14 -67 -21 -87 -16 -147 -35 -202 -66 -51 -28 -55 -29 -47 -9 6 17 -2 45 -13 45 -13 0 -36 -65 -33 -92 4 -35 13 -35 65 1 23 15 52 33 64 39 61 33 253 64 253 42 0 -5 9 -10 20 -10 11 0 20 -4 20 -10 0 -5 9 -10 20 -10 11 0 20 -4 20 -10 0 -13 33 -13 64 1 30 14 51 60 42 94 -9 36 -86 70 -101 45z" transform="translate(0,146) scale(0.1,-0.1)" stroke="none" fill="#9B7044"/>

<path d="M425 1044 c-37 -19 -45 -31 -45 -71 0 -56 44 -80 129 -70 42 5 72 15 149 50 42 20 242 -23 242 -52 0 -10 56 -96 87 -134 13 -16 23 -33 23 -38 0 -5 -25 -9 -56 -9 -40 0 -55 -3 -52 -12 3 -9 30 -14 74 -16 l70 -3 84 -84 c47 -47 88 -85 92 -85 5 0 32 -22 61 -50 28 -27 56 -50 60 -50 5 0 15 -7 23 -15 19 -19 34 -19 34 -1 0 7 -11 21 -25 30 -14 10 -31 29 -37 44 -11 26 -42 62 -52 62 -2 0 -6 -8 -8 -17 -3 -13 -34 12 -119 97 -117 117 -201 230 -255 345 -16 33 -30 62 -31 64 -1 2 -10 -2 -18 -9 -11 -9 -13 -16 -5 -24 20 -20 8 -23 -96 -18 -99 4 -111 7 -180 43 -83 43 -105 46 -149 23z" transform="translate(0,146) scale(0.1,-0.1)" stroke="none" fill="#9B7044"/>

<path d="M645 690 c-3 -5 -37 -10 -75 -10 -65 0 -105 -15 -58 -22 17 -2 8 -10 -43 -36 -36 -19 -88 -53 -115 -76 -27 -24 -76 -57 -109 -74 -100 -50 -139 -98 -128 -155 6 -30 46 -67 73 -67 23 0 70 38 70 56 0 8 5 14 10 14 6 0 10 14 10 30 0 17 5 30 10 30 6 0 10 11 10 24 0 38 34 88 91 130 62 48 177 107 184 96 3 -5 1 -11 -5 -15 -19 -12 -50 -88 -56 -139 -4 -27 -20 -79 -36 -115 -32 -70 -49 -151 -41 -193 14 -72 103 -103 158 -55 22 19 27 31 27 72 0 27 -5 51 -11 53 -6 2 -11 12 -11 23 0 10 -4 19 -10 19 -5 0 -10 9 -10 20 0 11 -4 20 -10 20 -5 0 -10 9 -10 20 0 11 -4 20 -10 20 -15 0 -12 111 5 161 9 24 31 65 50 91 29 40 41 48 85 57 28 6 67 11 85 11 19 0 35 5 35 10 0 6 -33 10 -79 10 -44 0 -83 -4 -86 -10z" transform="translate(0,146) scale(0.1,-0.1)" stroke="none" fill="#9B7044"/>

</g>

<g id="4" transform="translate(784.0,0)scale(1,1)">

<path d="M702 1374 c-22 -15 -32 -74 -12 -74 6 0 10 -8 10 -19 0 -10 18 -35 40 -55 22 -20 40 -43 40 -51 0 -8 9 -20 20 -27 11 -7 20 -21 20 -30 0 -10 4 -18 9 -18 13 0 22 168 11 210 -18 69 -87 100 -138 64z" transform="translate(0,146) scale(0.1,-0.1)" stroke="none" fill="#9B7044"/>

<path d="M115 886 c-17 -7 -36 -26 -43 -41 -11 -23 -10 -32 6 -58 24 -43 87 -66 180 -66 42 -1 88 -8 110 -16 63 -27 112 -35 112 -19 0 9 -11 14 -30 14 -16 0 -30 5 -30 10 0 6 -9 10 -20 10 -11 0 -20 5 -20 10 0 6 -13 10 -30 10 -16 0 -30 5 -30 10 0 6 -7 10 -16 10 -8 0 -41 26 -72 58 -82 82 -82 82 -117 68z" transform="translate(0,146) scale(0.1,-0.1)" stroke="none" fill="#9B7044"/>

<path d="M1745 1070 c-3 -5 -15 -10 -26 -10 -10 0 -19 -4 -19 -10 0 -5 -13 -10 -30 -10 -16 0 -30 -4 -30 -9 0 -5 -30 -14 -67 -21 -87 -16 -147 -35 -202 -66 -51 -28 -55 -29 -47 -9 6 17 -2 45 -13 45 -13 0 -36 -65 -33 -92 4 -35 13 -35 65 1 23 15 52 33 64 39 61 33 253 64 253 42 0 -5 9 -10 20 -10 11 0 20 -4 20 -10 0 -5 9 -10 20 -10 11 0 20 -4 20 -10 0 -13 33 -13 64 1 30 14 51 60 42 94 -9 36 -86 70 -101 45z" transform="translate(0,146) scale(0.1,-0.1)" stroke="none" fill="#9B7044"/>

<path d="M425 1044 c-37 -19 -45 -31 -45 -71 0 -56 44 -80 129 -70 42 5 72 15 149 50 42 20 242 -23 242 -52 0 -10 56 -96 87 -134 13 -16 23 -33 23 -38 0 -5 -25 -9 -56 -9 -40 0 -55 -3 -52 -12 3 -9 30 -14 74 -16 l70 -3 84 -84 c47 -47 88 -85 92 -85 5 0 32 -22 61 -50 28 -27 56 -50 60 -50 5 0 15 -7 23 -15 19 -19 34 -19 34 -1 0 7 -11 21 -25 30 -14 10 -31 29 -37 44 -11 26 -42 62 -52 62 -2 0 -6 -8 -8 -17 -3 -13 -34 12 -119 97 -117 117 -201 230 -255 345 -16 33 -30 62 -31 64 -1 2 -10 -2 -18 -9 -11 -9 -13 -16 -5 -24 20 -20 8 -23 -96 -18 -99 4 -111 7 -180 43 -83 43 -105 46 -149 23z" transform="translate(0,146) scale(0.1,-0.1)" stroke="none" fill="#9B7044"/>

<path d="M645 690 c-3 -5 -37 -10 -75 -10 -65 0 -105 -15 -58 -22 17 -2 8 -10 -43 -36 -36 -19 -88 -53 -115 -76 -27 -24 -76 -57 -109 -74 -100 -50 -139 -98 -128 -155 6 -30 46 -67 73 -67 23 0 70 38 70 56 0 8 5 14 10 14 6 0 10 14 10 30 0 17 5 30 10 30 6 0 10 11 10 24 0 38 34 88 91 130 62 48 177 107 184 96 3 -5 1 -11 -5 -15 -19 -12 -50 -88 -56 -139 -4 -27 -20 -79 -36 -115 -32 -70 -49 -151 -41 -193 14 -72 103 -103 158 -55 22 19 27 31 27 72 0 27 -5 51 -11 53 -6 2 -11 12 -11 23 0 10 -4 19 -10 19 -5 0 -10 9 -10 20 0 11 -4 20 -10 20 -5 0 -10 9 -10 20 0 11 -4 20 -10 20 -15 0 -12 111 5 161 9 24 31 65 50 91 29 40 41 48 85 57 28 6 67 11 85 11 19 0 35 5 35 10 0 6 -33 10 -79 10 -44 0 -83 -4 -86 -10z" transform="translate(0,146) scale(0.1,-0.1)" stroke="none" fill="#9B7044"/>

</g>

</g>
<g id="row2" transform="translate(26,292.0)">
<g id="0" transform="translate(0.0,0)scale(1,1)">

<path d="M702 1374 c-22 -15 -32 -74 -12 -74 6 0 10 -8 10 -19 0 -10 18 -35 40 -55 22 -20 40 -43 40 -51 0 -8 9 -20 20 -27 11 -7 20 -21 20 -30 0 -10 4 -18 9 -18 13 0 22 168 11 210 -18 69 -87 100 -138 64z" transform="translate(0,146) scale(0.1,-0.1)" stroke="none" fill="#9B7044"/>

<path d="M115 886 c-17 -7 -36 -26 -43 -41 -11 -23 -10 -32 6 -58 24 -43 87 -66 180 -66 42 -1 88 -8 110 -16 63 -27 112 -35 112 -19 0 9 -11 14 -30 14 -16 0 -30 5 -30 10 0 6 -9 10 -20 10 -11 0 -20 5 -20 10 0 6 -13 10 -30 10 -16 0 -30 5 -30 10 0 6 -7 10 -16 10 -8 0 -41 26 -72 58 -82 82 -82 82 -117 68z" transform="translate(0,146) scale(0.1,-0.1)" stroke="none" fill="#9B7044"/>

<path d="M1745 1070 c-3 -5 -15 -10 -26 -10 -10 0 -19 -4 -19 -10 0 -5 -13 -10 -30 -10 -16 0 -30 -4 -30 -9 0 -5 -30 -14 -67 -21 -87 -16 -147 -35 -202 -66 -51 -28 -55 -29 -47 -9 6 17 -2 45 -13 45 -13 0 -36 -65 -33 -92 4 -35 13 -35 65 1 23 15 52 33 64 39 61 33 253 64 253 42 0 -5 9 -10 20 -10 11 0 20 -4 20 -10 0 -5 9 -10 20 -10 11 0 20 -4 20 -10 0 -13 33 -13 64 1 30 14 51 60 42 94 -9 36 -86 70 -101 45z" transform="translate(0,146) scale(0.1,-0.1)" stroke="none" fill="#9B7044"/>

<path d="M425 1044 c-37 -19 -45 -31 -45 -71 0 -56 44 -80 129 -70 42 5 72 15 149 50 42 20 242 -23 242 -52 0 -10 56 -96 87 -134 13 -16 23 -33 23 -38 0 -5 -25 -9 -56 -9 -40 0 -55 -3 -52 -12 3 -9 30 -14 74 -16 l70 -3 84 -84 c47 -47 88 -85 92 -85 5 0 32 -22 61 -50 28 -27 56 -50 60 -50 5 0 15 -7 23 -15 19 -19 34 -19 34 -1 0 7 -11 21 -25 30 -14 10 -31 29 -37 44 -11 26 -42 62 -52 62 -2 0 -6 -8 -8 -17 -3 -13 -34 12 -119 97 -117 117 -201 230 -255 345 -16 33 -30 62 -31 64 -1 2 -10 -2 -18 -9 -11 -9 -13 -16 -5 -24 20 -20 8 -23 -96 -18 -99 4 -111 7 -180 43 -83 43 -105 46 -149 23z" transform="translate(0,146) scale(0.1,-0.1)" stroke="none" fill="#9B7044"/>

<path d="M645 690 c-3 -5 -37 -10 -75 -10 -65 0 -105 -15 -58 -22 17 -2 8 -10 -43 -36 -36 -19 -88 -53 -115 -76 -27 -24 -76 -57 -109 -74 -100 -50 -139 -98 -128 -155 6 -30 46 -67 73 -67 23 0 70 38 70 56 0 8 5 14 10 14 6 0 10 14 10 30 0 17 5 30 10 30 6 0 10 11 10 24 0 38 34 88 91 130 62 48 177 107 184 96 3 -5 1 -11 -5 -15 -19 -12 -50 -88 -56 -139 -4 -27 -20 -79 -36 -115 -32 -70 -49 -151 -41 -193 14 -72 103 -103 158 -55 22 19 27 31 27 72 0 27 -5 51 -11 53 -6 2 -11 12 -11 23 0 10 -4 19 -10 19 -5 0 -10 9 -10 20 0 11 -4 20 -10 20 -5 0 -10 9 -10 20 0 11 -4 20 -10 20 -15 0 -12 111 5 161 9 24 31 65 50 91 29 40 41 48 85 57 28 6 67 11 85 11 19 0 35 5 35 10 0 6 -33 10 -79 10 -44 0 -83 -4 -86 -10z" transform="translate(0,146) scale(0.1,-0.1)" stroke="none" fill="#9B7044"/>

</g>

<g id="1" transform="translate(196.0,0)scale(1,1)">

<path d="M702 1374 c-22 -15 -32 -74 -12 -74 6 0 10 -8 10 -19 0 -10 18 -35 40 -55 22 -20 40 -43 40 -51 0 -8 9 -20 20 -27 11 -7 20 -21 20 -30 0 -10 4 -18 9 -18 13 0 22 168 11 210 -18 69 -87 100 -138 64z" transform="translate(0,146) scale(0.1,-0.1)" stroke="none" fill="#9B7044"/>

<path d="M115 886 c-17 -7 -36 -26 -43 -41 -11 -23 -10 -32 6 -58 24 -43 87 -66 180 -66 42 -1 88 -8 110 -16 63 -27 112 -35 112 -19 0 9 -11 14 -30 14 -16 0 -30 5 -30 10 0 6 -9 10 -20 10 -11 0 -20 5 -20 10 0 6 -13 10 -30 10 -16 0 -30 5 -30 10 0 6 -7 10 -16 10 -8 0 -41 26 -72 58 -82 82 -82 82 -117 68z" transform="translate(0,146) scale(0.1,-0.1)" stroke="none" fill="#9B7044"/>

<path d="M1745 1070 c-3 -5 -15 -10 -26 -10 -10 0 -19 -4 -19 -10 0 -5 -13 -10 -30 -10 -16 0 -30 -4 -30 -9 0 -5 -30 -14 -67 -21 -87 -16 -147 -35 -202 -66 -51 -28 -55 -29 -47 -9 6 17 -2 45 -13 45 -13 0 -36 -65 -33 -92 4 -35 13 -35 65 1 23 15 52 33 64 39 61 33 253 64 253 42 0 -5 9 -10 20 -10 11 0 20 -4 20 -10 0 -5 9 -10 20 -10 11 0 20 -4 20 -10 0 -13 33 -13 64 1 30 14 51 60 42 94 -9 36 -86 70 -101 45z" transform="translate(0,146) scale(0.1,-0.1)" stroke="none" fill="#9B7044"/>

<path d="M425 1044 c-37 -19 -45 -31 -45 -71 0 -56 44 -80 129 -70 42 5 72 15 149 50 42 20 242 -23 242 -52 0 -10 56 -96 87 -134 13 -16 23 -33 23 -38 0 -5 -25 -9 -56 -9 -40 0 -55 -3 -52 -12 3 -9 30 -14 74 -16 l70 -3 84 -84 c47 -47 88 -85 92 -85 5 0 32 -22 61 -50 28 -27 56 -50 60 -50 5 0 15 -7 23 -15 19 -19 34 -19 34 -1 0 7 -11 21 -25 30 -14 10 -31 29 -37 44 -11 26 -42 62 -52 62 -2 0 -6 -8 -8 -17 -3 -13 -34 12 -119 97 -117 117 -201 230 -255 345 -16 33 -30 62 -31 64 -1 2 -10 -2 -18 -9 -11 -9 -13 -16 -5 -24 20 -20 8 -23 -96 -18 -99 4 -111 7 -180 43 -83 43 -105 46 -149 23z" transform="translate(0,146) scale(0.1,-0.1)" stroke="none" fill="#9B7044"/>

<path d="M645 690 c-3 -5 -37 -10 -75 -10 -65 0 -105 -15 -58 -22 17 -2 8 -10 -43 -36 -36 -19 -88 -53 -115 -76 -27 -24 -76 -57 -109 -74 -100 -50 -139 -98 -128 -155 6 -30 46 -67 73 -67 23 0 70 38 70 56 0 8 5 14 10 14 6 0 10 14 10 30 0 17 5 30 10 30 6 0 10 11 10 24 0 38 34 88 91 130 62 48 177 107 184 96 3 -5 1 -11 -5 -15 -19 -12 -50 -88 -56 -139 -4 -27 -20 -79 -36 -115 -32 -70 -49 -151 -41 -193 14 -72 103 -103 158 -55 22 19 27 31 27 72 0 27 -5 51 -11 53 -6 2 -11 12 -11 23 0 10 -4 19 -10 19 -5 0 -10 9 -10 20 0 11 -4 20 -10 20 -5 0 -10 9 -10 20 0 11 -4 20 -10 20 -15 0 -12 111 5 161 9 24 31 65 50 91 29 40 41 48 85 57 28 6 67 11 85 11 19 0 35 5 35 10 0 6 -33 10 -79 10 -44 0 -83 -4 -86 -10z" transform="translate(0,146) scale(0.1,-0.1)" stroke="none" fill="#9B7044"/>

</g>

<g id="2" transform="translate(392.0,0)scale(1,1)">

<path d="M702 1374 c-22 -15 -32 -74 -12 -74 6 0 10 -8 10 -19 0 -10 18 -35 40 -55 22 -20 40 -43 40 -51 0 -8 9 -20 20 -27 11 -7 20 -21 20 -30 0 -10 4 -18 9 -18 13 0 22 168 11 210 -18 69 -87 100 -138 64z" transform="translate(0,146) scale(0.1,-0.1)" stroke="none" fill="#9B7044"/>

<path d="M115 886 c-17 -7 -36 -26 -43 -41 -11 -23 -10 -32 6 -58 24 -43 87 -66 180 -66 42 -1 88 -8 110 -16 63 -27 112 -35 112 -19 0 9 -11 14 -30 14 -16 0 -30 5 -30 10 0 6 -9 10 -20 10 -11 0 -20 5 -20 10 0 6 -13 10 -30 10 -16 0 -30 5 -30 10 0 6 -7 10 -16 10 -8 0 -41 26 -72 58 -82 82 -82 82 -117 68z" transform="translate(0,146) scale(0.1,-0.1)" stroke="none" fill="#9B7044"/>

<path d="M1745 1070 c-3 -5 -15 -10 -26 -10 -10 0 -19 -4 -19 -10 0 -5 -13 -10 -30 -10 -16 0 -30 -4 -30 -9 0 -5 -30 -14 -67 -21 -87 -16 -147 -35 -202 -66 -51 -28 -55 -29 -47 -9 6 17 -2 45 -13 45 -13 0 -36 -65 -33 -92 4 -35 13 -35 65 1 23 15 52 33 64 39 61 33 253 64 253 42 0 -5 9 -10 20 -10 11 0 20 -4 20 -10 0 -5 9 -10 20 -10 11 0 20 -4 20 -10 0 -13 33 -13 64 1 30 14 51 60 42 94 -9 36 -86 70 -101 45z" transform="translate(0,146) scale(0.1,-0.1)" stroke="none" fill="#9B7044"/>

<path d="M425 1044 c-37 -19 -45 -31 -45 -71 0 -56 44 -80 129 -70 42 5 72 15 149 50 42 20 242 -23 242 -52 0 -10 56 -96 87 -134 13 -16 23 -33 23 -38 0 -5 -25 -9 -56 -9 -40 0 -55 -3 -52 -12 3 -9 30 -14 74 -16 l70 -3 84 -84 c47 -47 88 -85 92 -85 5 0 32 -22 61 -50 28 -27 56 -50 60 -50 5 0 15 -7 23 -15 19 -19 34 -19 34 -1 0 7 -11 21 -25 30 -14 10 -31 29 -37 44 -11 26 -42 62 -52 62 -2 0 -6 -8 -8 -17 -3 -13 -34 12 -119 97 -117 117 -201 230 -255 345 -16 33 -30 62 -31 64 -1 2 -10 -2 -18 -9 -11 -9 -13 -16 -5 -24 20 -20 8 -23 -96 -18 -99 4 -111 7 -180 43 -83 43 -105 46 -149 23z" transform="translate(0,146) scale(0.1,-0.1)" stroke="none" fill="#9B7044"/>

<path d="M645 690 c-3 -5 -37 -10 -75 -10 -65 0 -105 -15 -58 -22 17 -2 8 -10 -43 -36 -36 -19 -88 -53 -115 -76 -27 -24 -76 -57 -109 -74 -100 -50 -139 -98 -128 -155 6 -30 46 -67 73 -67 23 0 70 38 70 56 0 8 5 14 10 14 6 0 10 14 10 30 0 17 5 30 10 30 6 0 10 11 10 24 0 38 34 88 91 130 62 48 177 107 184 96 3 -5 1 -11 -5 -15 -19 -12 -50 -88 -56 -139 -4 -27 -20 -79 -36 -115 -32 -70 -49 -151 -41 -193 14 -72 103 -103 158 -55 22 19 27 31 27 72 0 27 -5 51 -11 53 -6 2 -11 12 -11 23 0 10 -4 19 -10 19 -5 0 -10 9 -10 20 0 11 -4 20 -10 20 -5 0 -10 9 -10 20 0 11 -4 20 -10 20 -15 0 -12 111 5 161 9 24 31 65 50 91 29 40 41 48 85 57 28 6 67 11 85 11 19 0 35 5 35 10 0 6 -33 10 -79 10 -44 0 -83 -4 -86 -10z" transform="translate(0,146) scale(0.1,-0.1)" stroke="none" fill="#9B7044"/>

</g>

<g id="3" transform="translate(588.0,0)scale(1,1)">

<path d="M702 1374 c-22 -15 -32 -74 -12 -74 6 0 10 -8 10 -19 0 -10 18 -35 40 -55 22 -20 40 -43 40 -51 0 -8 9 -20 20 -27 11 -7 20 -21 20 -30 0 -10 4 -18 9 -18 13 0 22 168 11 210 -18 69 -87 100 -138 64z" transform="translate(0,146) scale(0.1,-0.1)" stroke="none" fill="#9B7044"/>

<path d="M115 886 c-17 -7 -36 -26 -43 -41 -11 -23 -10 -32 6 -58 24 -43 87 -66 180 -66 42 -1 88 -8 110 -16 63 -27 112 -35 112 -19 0 9 -11 14 -30 14 -16 0 -30 5 -30 10 0 6 -9 10 -20 10 -11 0 -20 5 -20 10 0 6 -13 10 -30 10 -16 0 -30 5 -30 10 0 6 -7 10 -16 10 -8 0 -41 26 -72 58 -82 82 -82 82 -117 68z" transform="translate(0,146) scale(0.1,-0.1)" stroke="none" fill="#9B7044"/>

<path d="M1745 1070 c-3 -5 -15 -10 -26 -10 -10 0 -19 -4 -19 -10 0 -5 -13 -10 -30 -10 -16 0 -30 -4 -30 -9 0 -5 -30 -14 -67 -21 -87 -16 -147 -35 -202 -66 -51 -28 -55 -29 -47 -9 6 17 -2 45 -13 45 -13 0 -36 -65 -33 -92 4 -35 13 -35 65 1 23 15 52 33 64 39 61 33 253 64 253 42 0 -5 9 -10 20 -10 11 0 20 -4 20 -10 0 -5 9 -10 20 -10 11 0 20 -4 20 -10 0 -13 33 -13 64 1 30 14 51 60 42 94 -9 36 -86 70 -101 45z" transform="translate(0,146) scale(0.1,-0.1)" stroke="none" fill="#9B7044"/>

<path d="M425 1044 c-37 -19 -45 -31 -45 -71 0 -56 44 -80 129 -70 42 5 72 15 149 50 42 20 242 -23 242 -52 0 -10 56 -96 87 -134 13 -16 23 -33 23 -38 0 -5 -25 -9 -56 -9 -40 0 -55 -3 -52 -12 3 -9 30 -14 74 -16 l70 -3 84 -84 c47 -47 88 -85 92 -85 5 0 32 -22 61 -50 28 -27 56 -50 60 -50 5 0 15 -7 23 -15 19 -19 34 -19 34 -1 0 7 -11 21 -25 30 -14 10 -31 29 -37 44 -11 26 -42 62 -52 62 -2 0 -6 -8 -8 -17 -3 -13 -34 12 -119 97 -117 117 -201 230 -255 345 -16 33 -30 62 -31 64 -1 2 -10 -2 -18 -9 -11 -9 -13 -16 -5 -24 20 -20 8 -23 -96 -18 -99 4 -111 7 -180 43 -83 43 -105 46 -149 23z" transform="translate(0,146) scale(0.1,-0.1)" stroke="none" fill="#9B7044"/>

<path d="M645 690 c-3 -5 -37 -10 -75 -10 -65 0 -105 -15 -58 -22 17 -2 8 -10 -43 -36 -36 -19 -88 -53 -115 -76 -27 -24 -76 -57 -109 -74 -100 -50 -139 -98 -128 -155 6 -30 46 -67 73 -67 23 0 70 38 70 56 0 8 5 14 10 14 6 0 10 14 10 30 0 17 5 30 10 30 6 0 10 11 10 24 0 38 34 88 91 130 62 48 177 107 184 96 3 -5 1 -11 -5 -15 -19 -12 -50 -88 -56 -139 -4 -27 -20 -79 -36 -115 -32 -70 -49 -151 -41 -193 14 -72 103 -103 158 -55 22 19 27 31 27 72 0 27 -5 51 -11 53 -6 2 -11 12 -11 23 0 10 -4 19 -10 19 -5 0 -10 9 -10 20 0 11 -4 20 -10 20 -5 0 -10 9 -10 20 0 11 -4 20 -10 20 -15 0 -12 111 5 161 9 24 31 65 50 91 29 40 41 48 85 57 28 6 67 11 85 11 19 0 35 5 35 10 0 6 -33 10 -79 10 -44 0 -83 -4 -86 -10z" transform="translate(0,146) scale(0.1,-0.1)" stroke="none" fill="#9B7044"/>

</g>

<g id="4" transform="translate(784.0,0)scale(1,1)">

<path d="M702 1374 c-22 -15 -32 -74 -12 -74 6 0 10 -8 10 -19 0 -10 18 -35 40 -55 22 -20 40 -43 40 -51 0 -8 9 -20 20 -27 11 -7 20 -21 20 -30 0 -10 4 -18 9 -18 13 0 22 168 11 210 -18 69 -87 100 -138 64z" transform="translate(0,146) scale(0.1,-0.1)" stroke="none" fill="#9B7044"/>

<path d="M115 886 c-17 -7 -36 -26 -43 -41 -11 -23 -10 -32 6 -58 24 -43 87 -66 180 -66 42 -1 88 -8 110 -16 63 -27 112 -35 112 -19 0 9 -11 14 -30 14 -16 0 -30 5 -30 10 0 6 -9 10 -20 10 -11 0 -20 5 -20 10 0 6 -13 10 -30 10 -16 0 -30 5 -30 10 0 6 -7 10 -16 10 -8 0 -41 26 -72 58 -82 82 -82 82 -117 68z" transform="translate(0,146) scale(0.1,-0.1)" stroke="none" fill="#9B7044"/>

<path d="M1745 1070 c-3 -5 -15 -10 -26 -10 -10 0 -19 -4 -19 -10 0 -5 -13 -10 -30 -10 -16 0 -30 -4 -30 -9 0 -5 -30 -14 -67 -21 -87 -16 -147 -35 -202 -66 -51 -28 -55 -29 -47 -9 6 17 -2 45 -13 45 -13 0 -36 -65 -33 -92 4 -35 13 -35 65 1 23 15 52 33 64 39 61 33 253 64 253 42 0 -5 9 -10 20 -10 11 0 20 -4 20 -10 0 -5 9 -10 20 -10 11 0 20 -4 20 -10 0 -13 33 -13 64 1 30 14 51 60 42 94 -9 36 -86 70 -101 45z" transform="translate(0,146) scale(0.1,-0.1)" stroke="none" fill="#9B7044"/>

<path d="M425 1044 c-37 -19 -45 -31 -45 -71 0 -56 44 -80 129 -70 42 5 72 15 149 50 42 20 242 -23 242 -52 0 -10 56 -96 87 -134 13 -16 23 -33 23 -38 0 -5 -25 -9 -56 -9 -40 0 -55 -3 -52 -12 3 -9 30 -14 74 -16 l70 -3 84 -84 c47 -47 88 -85 92 -85 5 0 32 -22 61 -50 28 -27 56 -50 60 -50 5 0 15 -7 23 -15 19 -19 34 -19 34 -1 0 7 -11 21 -25 30 -14 10 -31 29 -37 44 -11 26 -42 62 -52 62 -2 0 -6 -8 -8 -17 -3 -13 -34 12 -119 97 -117 117 -201 230 -255 345 -16 33 -30 62 -31 64 -1 2 -10 -2 -18 -9 -11 -9 -13 -16 -5 -24 20 -20 8 -23 -96 -18 -99 4 -111 7 -180 43 -83 43 -105 46 -149 23z" transform="translate(0,146) scale(0.1,-0.1)" stroke="none" fill="#9B7044"/>

<path d="M645 690 c-3 -5 -37 -10 -75 -10 -65 0 -105 -15 -58 -22 17 -2 8 -10 -43 -36 -36 -19 -88 -53 -115 -76 -27 -24 -76 -57 -109 -74 -100 -50 -139 -98 -128 -155 6 -30 46 -67 73 -67 23 0 70 38 70 56 0 8 5 14 10 14 6 0 10 14 10 30 0 17 5 30 10 30 6 0 10 11 10 24 0 38 34 88 91 130 62 48 177 107 184 96 3 -5 1 -11 -5 -15 -19 -12 -50 -88 -56 -139 -4 -27 -20 -79 -36 -115 -32 -70 -49 -151 -41 -193 14 -72 103 -103 158 -55 22 19 27 31 27 72 0 27 -5 51 -11 53 -6 2 -11 12 -11 23 0 10 -4 19 -10 19 -5 0 -10 9 -10 20 0 11 -4 20 -10 20 -5 0 -10 9 -10 20 0 11 -4 20 -10 20 -15 0 -12 111 5 161 9 24 31 65 50 91 29 40 41 48 85 57 28 6 67 11 85 11 19 0 35 5 35 10 0 6 -33 10 -79 10 -44 0 -83 -4 -86 -10z" transform="translate(0,146) scale(0.1,-0.1)" stroke="none" fill="#9B7044"/>

</g>

</g>
<g id="row3" transform="translate(26,438.0)">
<g id="0" transform="translate(0.0,0)scale(1,1)">

<path d="M702 1374 c-22 -15 -32 -74 -12 -74 6 0 10 -8 10 -19 0 -10 18 -35 40 -55 22 -20 40 -43 40 -51 0 -8 9 -20 20 -27 11 -7 20 -21 20 -30 0 -10 4 -18 9 -18 13 0 22 168 11 210 -18 69 -87 100 -138 64z" transform="translate(0,146) scale(0.1,-0.1)" stroke="none" fill="#9B7044"/>

<path d="M115 886 c-17 -7 -36 -26 -43 -41 -11 -23 -10 -32 6 -58 24 -43 87 -66 180 -66 42 -1 88 -8 110 -16 63 -27 112 -35 112 -19 0 9 -11 14 -30 14 -16 0 -30 5 -30 10 0 6 -9 10 -20 10 -11 0 -20 5 -20 10 0 6 -13 10 -30 10 -16 0 -30 5 -30 10 0 6 -7 10 -16 10 -8 0 -41 26 -72 58 -82 82 -82 82 -117 68z" transform="translate(0,146) scale(0.1,-0.1)" stroke="none" fill="#9B7044"/>

<path d="M1745 1070 c-3 -5 -15 -10 -26 -10 -10 0 -19 -4 -19 -10 0 -5 -13 -10 -30 -10 -16 0 -30 -4 -30 -9 0 -5 -30 -14 -67 -21 -87 -16 -147 -35 -202 -66 -51 -28 -55 -29 -47 -9 6 17 -2 45 -13 45 -13 0 -36 -65 -33 -92 4 -35 13 -35 65 1 23 15 52 33 64 39 61 33 253 64 253 42 0 -5 9 -10 20 -10 11 0 20 -4 20 -10 0 -5 9 -10 20 -10 11 0 20 -4 20 -10 0 -13 33 -13 64 1 30 14 51 60 42 94 -9 36 -86 70 -101 45z" transform="translate(0,146) scale(0.1,-0.1)" stroke="none" fill="#9B7044"/>

<path d="M425 1044 c-37 -19 -45 -31 -45 -71 0 -56 44 -80 129 -70 42 5 72 15 149 50 42 20 242 -23 242 -52 0 -10 56 -96 87 -134 13 -16 23 -33 23 -38 0 -5 -25 -9 -56 -9 -40 0 -55 -3 -52 -12 3 -9 30 -14 74 -16 l70 -3 84 -84 c47 -47 88 -85 92 -85 5 0 32 -22 61 -50 28 -27 56 -50 60 -50 5 0 15 -7 23 -15 19 -19 34 -19 34 -1 0 7 -11 21 -25 30 -14 10 -31 29 -37 44 -11 26 -42 62 -52 62 -2 0 -6 -8 -8 -17 -3 -13 -34 12 -119 97 -117 117 -201 230 -255 345 -16 33 -30 62 -31 64 -1 2 -10 -2 -18 -9 -11 -9 -13 -16 -5 -24 20 -20 8 -23 -96 -18 -99 4 -111 7 -180 43 -83 43 -105 46 -149 23z" transform="translate(0,146) scale(0.1,-0.1)" stroke="none" fill="#9B7044"/>

<path d="M645 690 c-3 -5 -37 -10 -75 -10 -65 0 -105 -15 -58 -22 17 -2 8 -10 -43 -36 -36 -19 -88 -53 -115 -76 -27 -24 -76 -57 -109 -74 -100 -50 -139 -98 -128 -155 6 -30 46 -67 73 -67 23 0 70 38 70 56 0 8 5 14 10 14 6 0 10 14 10 30 0 17 5 30 10 30 6 0 10 11 10 24 0 38 34 88 91 130 62 48 177 107 184 96 3 -5 1 -11 -5 -15 -19 -12 -50 -88 -56 -139 -4 -27 -20 -79 -36 -115 -32 -70 -49 -151 -41 -193 14 -72 103 -103 158 -55 22 19 27 31 27 72 0 27 -5 51 -11 53 -6 2 -11 12 -11 23 0 10 -4 19 -10 19 -5 0 -10 9 -10 20 0 11 -4 20 -10 20 -5 0 -10 9 -10 20 0 11 -4 20 -10 20 -15 0 -12 111 5 161 9 24 31 65 50 91 29 40 41 48 85 57 28 6 67 11 85 11 19 0 35 5 35 10 0 6 -33 10 -79 10 -44 0 -83 -4 -86 -10z" transform="translate(0,146) scale(0.1,-0.1)" stroke="none" fill="#9B7044"/>

</g>

<g id="1" transform="translate(196.0,0)scale(1,1)">

<path d="M702 1374 c-22 -15 -32 -74 -12 -74 6 0 10 -8 10 -19 0 -10 18 -35 40 -55 22 -20 40 -43 40 -51 0 -8 9 -20 20 -27 11 -7 20 -21 20 -30 0 -10 4 -18 9 -18 13 0 22 168 11 210 -18 69 -87 100 -138 64z" transform="translate(0,146) scale(0.1,-0.1)" stroke="none" fill="#9B7044"/>

<path d="M115 886 c-17 -7 -36 -26 -43 -41 -11 -23 -10 -32 6 -58 24 -43 87 -66 180 -66 42 -1 88 -8 110 -16 63 -27 112 -35 112 -19 0 9 -11 14 -30 14 -16 0 -30 5 -30 10 0 6 -9 10 -20 10 -11 0 -20 5 -20 10 0 6 -13 10 -30 10 -16 0 -30 5 -30 10 0 6 -7 10 -16 10 -8 0 -41 26 -72 58 -82 82 -82 82 -117 68z" transform="translate(0,146) scale(0.1,-0.1)" stroke="none" fill="#9B7044"/>

<path d="M1745 1070 c-3 -5 -15 -10 -26 -10 -10 0 -19 -4 -19 -10 0 -5 -13 -10 -30 -10 -16 0 -30 -4 -30 -9 0 -5 -30 -14 -67 -21 -87 -16 -147 -35 -202 -66 -51 -28 -55 -29 -47 -9 6 17 -2 45 -13 45 -13 0 -36 -65 -33 -92 4 -35 13 -35 65 1 23 15 52 33 64 39 61 33 253 64 253 42 0 -5 9 -10 20 -10 11 0 20 -4 20 -10 0 -5 9 -10 20 -10 11 0 20 -4 20 -10 0 -13 33 -13 64 1 30 14 51 60 42 94 -9 36 -86 70 -101 45z" transform="translate(0,146) scale(0.1,-0.1)" stroke="none" fill="#9B7044"/>

<path d="M425 1044 c-37 -19 -45 -31 -45 -71 0 -56 44 -80 129 -70 42 5 72 15 149 50 42 20 242 -23 242 -52 0 -10 56 -96 87 -134 13 -16 23 -33 23 -38 0 -5 -25 -9 -56 -9 -40 0 -55 -3 -52 -12 3 -9 30 -14 74 -16 l70 -3 84 -84 c47 -47 88 -85 92 -85 5 0 32 -22 61 -50 28 -27 56 -50 60 -50 5 0 15 -7 23 -15 19 -19 34 -19 34 -1 0 7 -11 21 -25 30 -14 10 -31 29 -37 44 -11 26 -42 62 -52 62 -2 0 -6 -8 -8 -17 -3 -13 -34 12 -119 97 -117 117 -201 230 -255 345 -16 33 -30 62 -31 64 -1 2 -10 -2 -18 -9 -11 -9 -13 -16 -5 -24 20 -20 8 -23 -96 -18 -99 4 -111 7 -180 43 -83 43 -105 46 -149 23z" transform="translate(0,146) scale(0.1,-0.1)" stroke="none" fill="#9B7044"/>

<path d="M645 690 c-3 -5 -37 -10 -75 -10 -65 0 -105 -15 -58 -22 17 -2 8 -10 -43 -36 -36 -19 -88 -53 -115 -76 -27 -24 -76 -57 -109 -74 -100 -50 -139 -98 -128 -155 6 -30 46 -67 73 -67 23 0 70 38 70 56 0 8 5 14 10 14 6 0 10 14 10 30 0 17 5 30 10 30 6 0 10 11 10 24 0 38 34 88 91 130 62 48 177 107 184 96 3 -5 1 -11 -5 -15 -19 -12 -50 -88 -56 -139 -4 -27 -20 -79 -36 -115 -32 -70 -49 -151 -41 -193 14 -72 103 -103 158 -55 22 19 27 31 27 72 0 27 -5 51 -11 53 -6 2 -11 12 -11 23 0 10 -4 19 -10 19 -5 0 -10 9 -10 20 0 11 -4 20 -10 20 -5 0 -10 9 -10 20 0 11 -4 20 -10 20 -15 0 -12 111 5 161 9 24 31 65 50 91 29 40 41 48 85 57 28 6 67 11 85 11 19 0 35 5 35 10 0 6 -33 10 -79 10 -44 0 -83 -4 -86 -10z" transform="translate(0,146) scale(0.1,-0.1)" stroke="none" fill="#9B7044"/>

</g>

<g id="2" transform="translate(392.0,0)scale(1,1)">

<path d="M702 1374 c-22 -15 -32 -74 -12 -74 6 0 10 -8 10 -19 0 -10 18 -35 40 -55 22 -20 40 -43 40 -51 0 -8 9 -20 20 -27 11 -7 20 -21 20 -30 0 -10 4 -18 9 -18 13 0 22 168 11 210 -18 69 -87 100 -138 64z" transform="translate(0,146) scale(0.1,-0.1)" stroke="none" fill="#9B7044"/>

<path d="M115 886 c-17 -7 -36 -26 -43 -41 -11 -23 -10 -32 6 -58 24 -43 87 -66 180 -66 42 -1 88 -8 110 -16 63 -27 112 -35 112 -19 0 9 -11 14 -30 14 -16 0 -30 5 -30 10 0 6 -9 10 -20 10 -11 0 -20 5 -20 10 0 6 -13 10 -30 10 -16 0 -30 5 -30 10 0 6 -7 10 -16 10 -8 0 -41 26 -72 58 -82 82 -82 82 -117 68z" transform="translate(0,146) scale(0.1,-0.1)" stroke="none" fill="#9B7044"/>

<path d="M1745 1070 c-3 -5 -15 -10 -26 -10 -10 0 -19 -4 -19 -10 0 -5 -13 -10 -30 -10 -16 0 -30 -4 -30 -9 0 -5 -30 -14 -67 -21 -87 -16 -147 -35 -202 -66 -51 -28 -55 -29 -47 -9 6 17 -2 45 -13 45 -13 0 -36 -65 -33 -92 4 -35 13 -35 65 1 23 15 52 33 64 39 61 33 253 64 253 42 0 -5 9 -10 20 -10 11 0 20 -4 20 -10 0 -5 9 -10 20 -10 11 0 20 -4 20 -10 0 -13 33 -13 64 1 30 14 51 60 42 94 -9 36 -86 70 -101 45z" transform="translate(0,146) scale(0.1,-0.1)" stroke="none" fill="#9B7044"/>

<path d="M425 1044 c-37 -19 -45 -31 -45 -71 0 -56 44 -80 129 -70 42 5 72 15 149 50 42 20 242 -23 242 -52 0 -10 56 -96 87 -134 13 -16 23 -33 23 -38 0 -5 -25 -9 -56 -9 -40 0 -55 -3 -52 -12 3 -9 30 -14 74 -16 l70 -3 84 -84 c47 -47 88 -85 92 -85 5 0 32 -22 61 -50 28 -27 56 -50 60 -50 5 0 15 -7 23 -15 19 -19 34 -19 34 -1 0 7 -11 21 -25 30 -14 10 -31 29 -37 44 -11 26 -42 62 -52 62 -2 0 -6 -8 -8 -17 -3 -13 -34 12 -119 97 -117 117 -201 230 -255 345 -16 33 -30 62 -31 64 -1 2 -10 -2 -18 -9 -11 -9 -13 -16 -5 -24 20 -20 8 -23 -96 -18 -99 4 -111 7 -180 43 -83 43 -105 46 -149 23z" transform="translate(0,146) scale(0.1,-0.1)" stroke="none" fill="#9B7044"/>

<path d="M645 690 c-3 -5 -37 -10 -75 -10 -65 0 -105 -15 -58 -22 17 -2 8 -10 -43 -36 -36 -19 -88 -53 -115 -76 -27 -24 -76 -57 -109 -74 -100 -50 -139 -98 -128 -155 6 -30 46 -67 73 -67 23 0 70 38 70 56 0 8 5 14 10 14 6 0 10 14 10 30 0 17 5 30 10 30 6 0 10 11 10 24 0 38 34 88 91 130 62 48 177 107 184 96 3 -5 1 -11 -5 -15 -19 -12 -50 -88 -56 -139 -4 -27 -20 -79 -36 -115 -32 -70 -49 -151 -41 -193 14 -72 103 -103 158 -55 22 19 27 31 27 72 0 27 -5 51 -11 53 -6 2 -11 12 -11 23 0 10 -4 19 -10 19 -5 0 -10 9 -10 20 0 11 -4 20 -10 20 -5 0 -10 9 -10 20 0 11 -4 20 -10 20 -15 0 -12 111 5 161 9 24 31 65 50 91 29 40 41 48 85 57 28 6 67 11 85 11 19 0 35 5 35 10 0 6 -33 10 -79 10 -44 0 -83 -4 -86 -10z" transform="translate(0,146) scale(0.1,-0.1)" stroke="none" fill="#9B7044"/>

</g>

<g id="3" transform="translate(588.0,0)scale(1,1)">

<path d="M702 1374 c-22 -15 -32 -74 -12 -74 6 0 10 -8 10 -19 0 -10 18 -35 40 -55 22 -20 40 -43 40 -51 0 -8 9 -20 20 -27 11 -7 20 -21 20 -30 0 -10 4 -18 9 -18 13 0 22 168 11 210 -18 69 -87 100 -138 64z" transform="translate(0,146) scale(0.1,-0.1)" stroke="none" fill="#9B7044"/>

<path d="M115 886 c-17 -7 -36 -26 -43 -41 -11 -23 -10 -32 6 -58 24 -43 87 -66 180 -66 42 -1 88 -8 110 -16 63 -27 112 -35 112 -19 0 9 -11 14 -30 14 -16 0 -30 5 -30 10 0 6 -9 10 -20 10 -11 0 -20 5 -20 10 0 6 -13 10 -30 10 -16 0 -30 5 -30 10 0 6 -7 10 -16 10 -8 0 -41 26 -72 58 -82 82 -82 82 -117 68z" transform="translate(0,146) scale(0.1,-0.1)" stroke="none" fill="#9B7044"/>

<path d="M1745 1070 c-3 -5 -15 -10 -26 -10 -10 0 -19 -4 -19 -10 0 -5 -13 -10 -30 -10 -16 0 -30 -4 -30 -9 0 -5 -30 -14 -67 -21 -87 -16 -147 -35 -202 -66 -51 -28 -55 -29 -47 -9 6 17 -2 45 -13 45 -13 0 -36 -65 -33 -92 4 -35 13 -35 65 1 23 15 52 33 64 39 61 33 253 64 253 42 0 -5 9 -10 20 -10 11 0 20 -4 20 -10 0 -5 9 -10 20 -10 11 0 20 -4 20 -10 0 -13 33 -13 64 1 30 14 51 60 42 94 -9 36 -86 70 -101 45z" transform="translate(0,146) scale(0.1,-0.1)" stroke="none" fill="#9B7044"/>

<path d="M425 1044 c-37 -19 -45 -31 -45 -71 0 -56 44 -80 129 -70 42 5 72 15 149 50 42 20 242 -23 242 -52 0 -10 56 -96 87 -134 13 -16 23 -33 23 -38 0 -5 -25 -9 -56 -9 -40 0 -55 -3 -52 -12 3 -9 30 -14 74 -16 l70 -3 84 -84 c47 -47 88 -85 92 -85 5 0 32 -22 61 -50 28 -27 56 -50 60 -50 5 0 15 -7 23 -15 19 -19 34 -19 34 -1 0 7 -11 21 -25 30 -14 10 -31 29 -37 44 -11 26 -42 62 -52 62 -2 0 -6 -8 -8 -17 -3 -13 -34 12 -119 97 -117 117 -201 230 -255 345 -16 33 -30 62 -31 64 -1 2 -10 -2 -18 -9 -11 -9 -13 -16 -5 -24 20 -20 8 -23 -96 -18 -99 4 -111 7 -180 43 -83 43 -105 46 -149 23z" transform="translate(0,146) scale(0.1,-0.1)" stroke="none" fill="#9B7044"/>

<path d="M645 690 c-3 -5 -37 -10 -75 -10 -65 0 -105 -15 -58 -22 17 -2 8 -10 -43 -36 -36 -19 -88 -53 -115 -76 -27 -24 -76 -57 -109 -74 -100 -50 -139 -98 -128 -155 6 -30 46 -67 73 -67 23 0 70 38 70 56 0 8 5 14 10 14 6 0 10 14 10 30 0 17 5 30 10 30 6 0 10 11 10 24 0 38 34 88 91 130 62 48 177 107 184 96 3 -5 1 -11 -5 -15 -19 -12 -50 -88 -56 -139 -4 -27 -20 -79 -36 -115 -32 -70 -49 -151 -41 -193 14 -72 103 -103 158 -55 22 19 27 31 27 72 0 27 -5 51 -11 53 -6 2 -11 12 -11 23 0 10 -4 19 -10 19 -5 0 -10 9 -10 20 0 11 -4 20 -10 20 -5 0 -10 9 -10 20 0 11 -4 20 -10 20 -15 0 -12 111 5 161 9 24 31 65 50 91 29 40 41 48 85 57 28 6 67 11 85 11 19 0 35 5 35 10 0 6 -33 10 -79 10 -44 0 -83 -4 -86 -10z" transform="translate(0,146) scale(0.1,-0.1)" stroke="none" fill="#9B7044"/>

</g>

<g id="4" transform="translate(784.0,0)scale(1,1)">

<path d="M702 1374 c-22 -15 -32 -74 -12 -74 6 0 10 -8 10 -19 0 -10 18 -35 40 -55 22 -20 40 -43 40 -51 0 -8 9 -20 20 -27 11 -7 20 -21 20 -30 0 -10 4 -18 9 -18 13 0 22 168 11 210 -18 69 -87 100 -138 64z" transform="translate(0,146) scale(0.1,-0.1)" stroke="none" fill="#9B7044"/>

<path d="M115 886 c-17 -7 -36 -26 -43 -41 -11 -23 -10 -32 6 -58 24 -43 87 -66 180 -66 42 -1 88 -8 110 -16 63 -27 112 -35 112 -19 0 9 -11 14 -30 14 -16 0 -30 5 -30 10 0 6 -9 10 -20 10 -11 0 -20 5 -20 10 0 6 -13 10 -30 10 -16 0 -30 5 -30 10 0 6 -7 10 -16 10 -8 0 -41 26 -72 58 -82 82 -82 82 -117 68z" transform="translate(0,146) scale(0.1,-0.1)" stroke="none" fill="#9B7044"/>

<path d="M1745 1070 c-3 -5 -15 -10 -26 -10 -10 0 -19 -4 -19 -10 0 -5 -13 -10 -30 -10 -16 0 -30 -4 -30 -9 0 -5 -30 -14 -67 -21 -87 -16 -147 -35 -202 -66 -51 -28 -55 -29 -47 -9 6 17 -2 45 -13 45 -13 0 -36 -65 -33 -92 4 -35 13 -35 65 1 23 15 52 33 64 39 61 33 253 64 253 42 0 -5 9 -10 20 -10 11 0 20 -4 20 -10 0 -5 9 -10 20 -10 11 0 20 -4 20 -10 0 -13 33 -13 64 1 30 14 51 60 42 94 -9 36 -86 70 -101 45z" transform="translate(0,146) scale(0.1,-0.1)" stroke="none" fill="#9B7044"/>

<path d="M425 1044 c-37 -19 -45 -31 -45 -71 0 -56 44 -80 129 -70 42 5 72 15 149 50 42 20 242 -23 242 -52 0 -10 56 -96 87 -134 13 -16 23 -33 23 -38 0 -5 -25 -9 -56 -9 -40 0 -55 -3 -52 -12 3 -9 30 -14 74 -16 l70 -3 84 -84 c47 -47 88 -85 92 -85 5 0 32 -22 61 -50 28 -27 56 -50 60 -50 5 0 15 -7 23 -15 19 -19 34 -19 34 -1 0 7 -11 21 -25 30 -14 10 -31 29 -37 44 -11 26 -42 62 -52 62 -2 0 -6 -8 -8 -17 -3 -13 -34 12 -119 97 -117 117 -201 230 -255 345 -16 33 -30 62 -31 64 -1 2 -10 -2 -18 -9 -11 -9 -13 -16 -5 -24 20 -20 8 -23 -96 -18 -99 4 -111 7 -180 43 -83 43 -105 46 -149 23z" transform="translate(0,146) scale(0.1,-0.1)" stroke="none" fill="#9B7044"/>

<path d="M645 690 c-3 -5 -37 -10 -75 -10 -65 0 -105 -15 -58 -22 17 -2 8 -10 -43 -36 -36 -19 -88 -53 -115 -76 -27 -24 -76 -57 -109 -74 -100 -50 -139 -98 -128 -155 6 -30 46 -67 73 -67 23 0 70 38 70 56 0 8 5 14 10 14 6 0 10 14 10 30 0 17 5 30 10 30 6 0 10 11 10 24 0 38 34 88 91 130 62 48 177 107 184 96 3 -5 1 -11 -5 -15 -19 -12 -50 -88 -56 -139 -4 -27 -20 -79 -36 -115 -32 -70 -49 -151 -41 -193 14 -72 103 -103 158 -55 22 19 27 31 27 72 0 27 -5 51 -11 53 -6 2 -11 12 -11 23 0 10 -4 19 -10 19 -5 0 -10 9 -10 20 0 11 -4 20 -10 20 -5 0 -10 9 -10 20 0 11 -4 20 -10 20 -15 0 -12 111 5 161 9 24 31 65 50 91 29 40 41 48 85 57 28 6 67 11 85 11 19 0 35 5 35 10 0 6 -33 10 -79 10 -44 0 -83 -4 -86 -10z" transform="translate(0,146) scale(0.1,-0.1)" stroke="none" fill="#9B7044"/>

</g>

</g>
</svg>