<?xml version="1.0" standalone="no"?>
<!DOCTYPE svg PUBLIC "-//W3C//DTD SVG 20010904//EN"
 "http://www.w3.org/TR/2001/REC-SVG-20010904/DTD/svg10.dtd">
<svg version="1.0" xmlns="http://www.w3.org/2000/svg" width="320pt" height="304pt" viewBox="0 0 320 304" preserveAspectRatio = "xMidYMid meet" >
<metadata>
Created by ZoeQu, written in 2022
</metadata>
<rect width="320" height="304" fill="#ACB8DD"/>
<g id="col0" transform="translate(0, 10)">
<g id="0" transform="translate(0,0.0)scale(0.8,0.8)">

<path d="M712 644 c-66 -17 -242 -101 -242 -114 0 -18 46 -11 65 10 10 11 26 20 36 20 9 0 43 14 74 30 31 17 69 30 84 30 26 0 51 16 51 32 0 10 -4 10 -68 -8z" transform="translate(0,76) scale(0.1,-0.1)" stroke="none" fill="#497DD8"/>

<path d="M13 663 c-10 -4 -13 -80 -13 -334 l0 -329 28 0 c31 0 52 16 52 39 0 21 67 156 85 171 8 7 15 18 15 24 0 14 151 166 165 166 5 0 21 12 36 26 15 15 38 32 51 38 22 11 39 56 21 56 -29 -1 -216 -167 -282 -250 -45 -56 -103 -165 -115 -213 -3 -15 -11 -27 -16 -27 -7 0 -10 110 -8 320 2 176 1 320 -2 319 -3 0 -11 -3 -17 -6z" transform="translate(0,76) scale(0.1,-0.1)" stroke="none" fill="#497DD8"/>

</g>

<g id="1" transform="translate(0,76.0)scale(0.8,0.8)">

<path d="M712 644 c-66 -17 -242 -101 -242 -114 0 -18 46 -11 65 10 10 11 26 20 36 20 9 0 43 14 74 30 31 17 69 30 84 30 26 0 51 16 51 32 0 10 -4 10 -68 -8z" transform="translate(0,76) scale(0.1,-0.1)" stroke="none" fill="#497DD8"/>

<path d="M13 663 c-10 -4 -13 -80 -13 -334 l0 -329 28 0 c31 0 52 16 52 39 0 21 67 156 85 171 8 7 15 18 15 24 0 14 151 166 165 166 5 0 21 12 36 26 15 15 38 32 51 38 22 11 39 56 21 56 -29 -1 -216 -167 -282 -250 -45 -56 -103 -165 -115 -213 -3 -15 -11 -27 -16 -27 -7 0 -10 110 -8 320 2 176 1 320 -2 319 -3 0 -11 -3 -17 -6z" transform="translate(0,76) scale(0.1,-0.1)" stroke="none" fill="#497DD8"/>

</g>

<g id="2" transform="translate(0,152.0)scale(0.8,0.8)">

<path d="M712 644 c-66 -17 -242 -101 -242 -114 0 -18 46 -11 65 10 10 11 26 20 36 20 9 0 43 14 74 30 31 17 69 30 84 30 26 0 51 16 51 32 0 10 -4 10 -68 -8z" transform="translate(0,76) scale(0.1,-0.1)" stroke="none" fill="#497DD8"/>

<path d="M13 663 c-10 -4 -13 -80 -13 -334 l0 -329 28 0 c31 0 52 16 52 39 0 21 67 156 85 171 8 7 15 18 15 24 0 14 151 166 165 166 5 0 21 12 36 26 15 15 38 32 51 38 22 11 39 56 21 56 -29 -1 -216 -167 -282 -250 -45 -56 -103 -165 -115 -213 -3 -15 -11 -27 -16 -27 -7 0 -10 110 -8 320 2 176 1 320 -2 319 -3 0 -11 -3 -17 -6z" transform="translate(0,76) scale(0.1,-0.1)" stroke="none" fill="#497DD8"/>

</g>

<g id="3" transform="translate(0,228.0)scale(0.8,0.8)">

<path d="M712 644 c-66 -17 -242 -101 -242 -114 0 -18 46 -11 65 10 10 11 26 20 36 20 9 0 43 14 74 30 31 17 69 30 84 30 26 0 51 16 51 32 0 10 -4 10 -68 -8z" transform="translate(0,76) scale(0.1,-0.1)" stroke="none" fill="#497DD8"/>

<path d="M13 663 c-10 -4 -13 -80 -13 -334 l0 -329 28 0 c31 0 52 16 52 39 0 21 67 156 85 171 8 7 15 18 15 24 0 14 151 166 165 166 5 0 21 12 36 26 15 15 38 32 51 38 22 11 39 56 21 56 -29 -1 -216 -167 -282 -250 -45 -56 -103 -165 -115 -213 -3 -15 -11 -27 -16 -27 -7 0 -10 110 -8 320 2 176 1 320 -2 319 -3 0 -11 -3 -17 -6z" transform="translate(0,76) scale(0.1,-0.1)" stroke="none" fill="#497DD8"/>

</g>

<g id="4" transform="translate(0,304.0)scale(0.8,0.8)">

<path d="M712 644 c-66 -17 -242 -101 -242 -114 0 -18 46 -11 65 10 10 11 26 20 36 20 9 0 43 14 74 30 31 17 69 30 84 30 26 0 51 16 51 32 0 10 -4 10 -68 -8z" transform="translate(0,76) scale(0.1,-0.1)" stroke="none" fill="#497DD8"/>

<path d="M13 663 c-10 -4 -13 -80 -13 -334 l0 -329 28 0 c31 0 52 16 52 39 0 21 67 156 85 171 8 7 15 18 15 24 0 14 151 166 165 166 5 0 21 12 36 26 15 15 38 32 51 38 22 11 39 56 21 56 -29 -1 -216 -167 -282 -250 -45 -56 -103 -165 -115 -213 -3 -15 -11 -27 -16 -27 -7 0 -10 110 -8 320 2 176 1 320 -2 319 -3 0 -11 -3 -17 -6z" transform="translate(0,76) scale(0.1,-0.1)" stroke="none" fill="#497DD8"/>

</g>

</g>
<g id="col1" transform="translate(80, -28.0)">
<g id="0" transform="translate(0,0.0)scale(0.8,0.8)">

<path d="M712 644 c-66 -17 -242 -101 -242 -114 0 -18 46 -11 65 10 10 11 26 20 36 20 9 0 43 14 74 30 31 17 69 30 84 30 26 0 51 16 51 32 0 10 -4 10 -68 -8z" transform="translate(0,76) scale(0.1,-0.1)" stroke="none" fill="#497DD8"/>

<path d="M13 663 c-10 -4 -13 -80 -13 -334 l0 -329 28 0 c31 0 52 16 52 39 0 21 67 156 85 171 8 7 15 18 15 24 0 14 151 166 165 166 5 0 21 12 36 26 15 15 38 32 51 38 22 11 39 56 21 56 -29 -1 -216 -167 -282 -250 -45 -56 -103 -165 -115 -213 -3 -15 -11 -27 -16 -27 -7 0 -10 110 -8 320 2 176 1 320 -2 319 -3 0 -11 -3 -17 -6z" transform="translate(0,76) scale(0.1,-0.1)" stroke="none" fill="#497DD8"/>

</g>

<g id="1" transform="translate(0,76.0)scale(0.8,0.8)">

<path d="M712 644 c-66 -17 -242 -101 -242 -114 0 -18 46 -11 65 10 10 11 26 20 36 20 9 0 43 14 74 30 31 17 69 30 84 30 26 0 51 16 51 32 0 10 -4 10 -68 -8z" transform="translate(0,76) scale(0.1,-0.1)" stroke="none" fill="#497DD8"/>

<path d="M13 663 c-10 -4 -13 -80 -13 -334 l0 -329 28 0 c31 0 52 16 52 39 0 21 67 156 85 171 8 7 15 18 15 24 0 14 151 166 165 166 5 0 21 12 36 26 15 15 38 32 51 38 22 11 39 56 21 56 -29 -1 -216 -167 -282 -250 -45 -56 -103 -165 -115 -213 -3 -15 -11 -27 -16 -27 -7 0 -10 110 -8 320 2 176 1 320 -2 319 -3 0 -11 -3 -17 -6z" transform="translate(0,76) scale(0.1,-0.1)" stroke="none" fill="#497DD8"/>

</g>

<g id="2" transform="translate(0,152.0)scale(0.8,0.8)">

<path d="M712 644 c-66 -17 -242 -101 -242 -114 0 -18 46 -11 65 10 10 11 26 20 36 20 9 0 43 14 74 30 31 17 69 30 84 30 26 0 51 16 51 32 0 10 -4 10 -68 -8z" transform="translate(0,76) scale(0.1,-0.1)" stroke="none" fill="#497DD8"/>

<path d="M13 663 c-10 -4 -13 -80 -13 -334 l0 -329 28 0 c31 0 52 16 52 39 0 21 67 156 85 171 8 7 15 18 15 24 0 14 151 166 165 166 5 0 21 12 36 26 15 15 38 32 51 38 22 11 39 56 21 56 -29 -1 -216 -167 -282 -250 -45 -56 -103 -165 -115 -213 -3 -15 -11 -27 -16 -27 -7 0 -10 110 -8 320 2 176 1 320 -2 319 -3 0 -11 -3 -17 -6z" transform="translate(0,76) scale(0.1,-0.1)" stroke="none" fill="#497DD8"/>

</g>

<g id="3" transform="translate(0,228.0)scale(0.8,0.8)">

<path d="M712 644 c-66 -17 -242 -101 -242 -114 0 -18 46 -11 65 10 10 11 26 20 36 20 9 0 43 14 74 30 31 17 69 30 84 30 26 0 51 16 51 32 0 10 -4 10 -68 -8z" transform="translate(0,76) scale(0.1,-0.1)" stroke="none" fill="#497DD8"/>

<path d="M13 663 c-10 -4 -13 -80 -13 -334 l0 -329 28 0 c31 0 52 16 52 39 0 21 67 156 85 171 8 7 15 18 15 24 0 14 151 166 165 166 5 0 21 12 36 26 15 15 38 32 51 38 22 11 39 56 21 56 -29 -1 -216 -167 -282 -250 -45 -56 -103 -165 -115 -213 -3 -15 -11 -27 -16 -27 -7 0 -10 110 -8 320 2 176 1 320 -2 319 -3 0 -11 -3 -17 -6z" transform="translate(0,76) scale(0.1,-0.1)" stroke="none" fill="#497DD8"/>

</g>

<g id="4" transform="translate(0,304.0)scale(0.8,0.8)">

<path d="M712 644 c-66 -17 -242 -101 -242 -114 0 -18 46 -11 65 10 10 11 26 20 36 20 9 0 43 14 74 30 31 17 69 30 84 30 26 0 51 16 51 32 0 10 -4 10 -68 -8z" transform="translate(0,76) scale(0.1,-0.1)" stroke="none" fill="#497DD8"/>

<path d="M13 663 c-10 -4 -13 -80 -13 -334 l0 -329 28 0 c31 0 52 16 52 39 0 21 67 156 85 171 8 7 15 18 15 24 0 14 151 166 165 166 5 0 21 12 36 26 15 15 38 32 51 38 22 11 39 56 21 56 -29 -1 -216 -167 -282 -250 -45 -56 -103 -165 -115 -213 -3 -15 -11 -27 -16 -27 -7 0 -10 110 -8 320 2 176 1 320 -2 319 -3 0 -11 -3 -17 -6z" transform="translate(0,76) scale(0.1,-0.1)" stroke="none" fill="#497DD8"/>

</g>

</g>
<g id="col2" transform="translate(160, 10)">
<g id="0" transform="translate(0,0.0)scale(0.8,0.8)">

<path d="M712 644 c-66 -17 -242 -101 -242 -114 0 -18 46 -11 65 10 10 11 26 20 36 20 9 0 43 14 74 30 31 17 69 30 84 30 26 0 51 16 51 32 0 10 -4 10 -68 -8z" transform="translate(0,76) scale(0.1,-0.1)" stroke="none" fill="#497DD8"/>

<path d="M13 663 c-10 -4 -13 -80 -13 -334 l0 -329 28 0 c31 0 52 16 52 39 0 21 67 156 85 171 8 7 15 18 15 24 0 14 151 166 165 166 5 0 21 12 36 26 15 15 38 32 51 38 22 11 39 56 21 56 -29 -1 -216 -167 -282 -250 -45 -56 -103 -165 -115 -213 -3 -15 -11 -27 -16 -27 -7 0 -10 110 -8 320 2 176 1 320 -2 319 -3 0 -11 -3 -17 -6z" transform="translate(0,76) scale(0.1,-0.1)" stroke="none" fill="#497DD8"/>

</g>

<g id="1" transform="translate(0,76.0)scale(0.8,0.8)">

<path d="M712 644 c-66 -17 -242 -101 -242 -114 0 -18 46 -11 65 10 10 11 26 20 36 20 9 0 43 14 74 30 31 17 69 30 84 30 26 0 51 16 51 32 0 10 -4 10 -68 -8z" transform="translate(0,76) scale(0.1,-0.1)" stroke="none" fill="#497DD8"/>

<path d="M13 663 c-10 -4 -13 -80 -13 -334 l0 -329 28 0 c31 0 52 16 52 39 0 21 67 156 85 171 8 7 15 18 15 24 0 14 151 166 165 166 5 0 21 12 36 26 15 15 38 32 51 38 22 11 39 56 21 56 -29 -1 -216 -167 -282 -250 -45 -56 -103 -165 -115 -213 -3 -15 -11 -27 -16 -27 -7 0 -10 110 -8 320 2 176 1 320 -2 319 -3 0 -11 -3 -17 -6z" transform="translate(0,76) scale(0.1,-0.1)" stroke="none" fill="#497DD8"/>

</g>

<g id="2" transform="translate(0,152.0)scale(0.8,0.8)">

<path d="M712 644 c-66 -17 -242 -101 -242 -114 0 -18 46 -11 65 10 10 11 26 20 36 20 9 0 43 14 74 30 31 17 69 30 84 30 26 0 51 16 51 32 0 10 -4 10 -68 -8z" transform="translate(0,76) scale(0.1,-0.1)" stroke="none" fill="#497DD8"/>

<path d="M13 663 c-10 -4 -13 -80 -13 -334 l0 -329 28 0 c31 0 52 16 52 39 0 21 67 156 85 171 8 7 15 18 15 24 0 14 151 166 165 166 5 0 21 12 36 26 15 15 38 32 51 38 22 11 39 56 21 56 -29 -1 -216 -167 -282 -250 -45 -56 -103 -165 -115 -213 -3 -15 -11 -27 -16 -27 -7 0 -10 110 -8 320 2 176 1 320 -2 319 -3 0 -11 -3 -17 -6z" transform="translate(0,76) scale(0.1,-0.1)" stroke="none" fill="#497DD8"/>

</g>

<g id="3" transform="translate(0,228.0)scale(0.8,0.8)">

<path d="M712 644 c-66 -17 -242 -101 -242 -114 0 -18 46 -11 65 10 10 11 26 20 36 20 9 0 43 14 74 30 31 17 69 30 84 30 26 0 51 16 51 32 0 10 -4 10 -68 -8z" transform="translate(0,76) scale(0.1,-0.1)" stroke="none" fill="#497DD8"/>

<path d="M13 663 c-10 -4 -13 -80 -13 -334 l0 -329 28 0 c31 0 52 16 52 39 0 21 67 156 85 171 8 7 15 18 15 24 0 14 151 166 165 166 5 0 21 12 36 26 15 15 38 32 51 38 22 11 39 56 21 56 -29 -1 -216 -167 -282 -250 -45 -56 -103 -165 -115 -213 -3 -15 -11 -27 -16 -27 -7 0 -10 110 -8 320 2 176 1 320 -2 319 -3 0 -11 -3 -17 -6z" transform="translate(0,76) scale(0.1,-0.1)" stroke="none" fill="#497DD8"/>

</g>

<g id="4" transform="translate(0,304.0)scale(0.8,0.8)">

<path d="M712 644 c-66 -17 -242 -101 -242 -114 0 -18 46 -11 65 10 10 11 26 20 36 20 9 0 43 14 74 30 31 17 69 30 84 30 26 0 51 16 51 32 0 10 -4 10 -68 -8z" transform="translate(0,76) scale(0.1,-0.1)" stroke="none" fill="#497DD8"/>

<path d="M13 663 c-10 -4 -13 -80 -13 -334 l0 -329 28 0 c31 0 52 16 52 39 0 21 67 156 85 171 8 7 15 18 15 24 0 14 151 166 165 166 5 0 21 12 36 26 15 15 38 32 51 38 22 11 39 56 21 56 -29 -1 -216 -167 -282 -250 -45 -56 -103 -165 -115 -213 -3 -15 -11 -27 -16 -27 -7 0 -10 110 -8 320 2 176 1 320 -2 319 -3 0 -11 -3 -17 -6z" transform="translate(0,76) scale(0.1,-0.1)" stroke="none" fill="#497DD8"/>

</g>

</g>
<g id="col3" transform="translate(240, -28.0)">
<g id="0" transform="translate(0,0.0)scale(0.8,0.8)">

<path d="M712 644 c-66 -17 -242 -101 -242 -114 0 -18 46 -11 65 10 10 11 26 20 36 20 9 0 43 14 74 30 31 17 69 30 84 30 26 0 51 16 51 32 0 10 -4 10 -68 -8z" transform="translate(0,76) scale(0.1,-0.1)" stroke="none" fill="#497DD8"/>

<path d="M13 663 c-10 -4 -13 -80 -13 -334 l0 -329 28 0 c31 0 52 16 52 39 0 21 67 156 85 171 8 7 15 18 15 24 0 14 151 166 165 166 5 0 21 12 36 26 15 15 38 32 51 38 22 11 39 56 21 56 -29 -1 -216 -167 -282 -250 -45 -56 -103 -165 -115 -213 -3 -15 -11 -27 -16 -27 -7 0 -10 110 -8 320 2 176 1 320 -2 319 -3 0 -11 -3 -17 -6z" transform="translate(0,76) scale(0.1,-0.1)" stroke="none" fill="#497DD8"/>

</g>

<g id="1" transform="translate(0,76.0)scale(0.8,0.8)">

<path d="M712 644 c-66 -17 -242 -101 -242 -114 0 -18 46 -11 65 10 10 11 26 20 36 20 9 0 43 14 74 30 31 17 69 30 84 30 26 0 51 16 51 32 0 10 -4 10 -68 -8z" transform="translate(0,76) scale(0.1,-0.1)" stroke="none" fill="#497DD8"/>

<path d="M13 663 c-10 -4 -13 -80 -13 -334 l0 -329 28 0 c31 0 52 16 52 39 0 21 67 156 85 171 8 7 15 18 15 24 0 14 151 166 165 166 5 0 21 12 36 26 15 15 38 32 51 38 22 11 39 56 21 56 -29 -1 -216 -167 -282 -250 -45 -56 -103 -165 -115 -213 -3 -15 -11 -27 -16 -27 -7 0 -10 110 -8 320 2 176 1 320 -2 319 -3 0 -11 -3 -17 -6z" transform="translate(0,76) scale(0.1,-0.1)" stroke="none" fill="#497DD8"/>

</g>

<g id="2" transform="translate(0,152.0)scale(0.8,0.8)">

<path d="M712 644 c-66 -17 -242 -101 -242 -114 0 -18 46 -11 65 10 10 11 26 20 36 20 9 0 43 14 74 30 31 17 69 30 84 30 26 0 51 16 51 32 0 10 -4 10 -68 -8z" transform="translate(0,76) scale(0.1,-0.1)" stroke="none" fill="#497DD8"/>

<path d="M13 663 c-10 -4 -13 -80 -13 -334 l0 -329 28 0 c31 0 52 16 52 39 0 21 67 156 85 171 8 7 15 18 15 24 0 14 151 166 165 166 5 0 21 12 36 26 15 15 38 32 51 38 22 11 39 56 21 56 -29 -1 -216 -167 -282 -250 -45 -56 -103 -165 -115 -213 -3 -15 -11 -27 -16 -27 -7 0 -10 110 -8 320 2 176 1 320 -2 319 -3 0 -11 -3 -17 -6z" transform="translate(0,76) scale(0.1,-0.1)" stroke="none" fill="#497DD8"/>

</g>

<g id="3" transform="translate(0,228.0)scale(0.8,0.8)">

<path d="M712 644 c-66 -17 -242 -101 -242 -114 0 -18 46 -11 65 10 10 11 26 20 36 20 9 0 43 14 74 30 31 17 69 30 84 30 26 0 51 16 51 32 0 10 -4 10 -68 -8z" transform="translate(0,76) scale(0.1,-0.1)" stroke="none" fill="#497DD8"/>

<path d="M13 663 c-10 -4 -13 -80 -13 -334 l0 -329 28 0 c31 0 52 16 52 39 0 21 67 156 85 171 8 7 15 18 15 24 0 14 151 166 165 166 5 0 21 12 36 26 15 15 38 32 51 38 22 11 39 56 21 56 -29 -1 -216 -167 -282 -250 -45 -56 -103 -165 -115 -213 -3 -15 -11 -27 -16 -27 -7 0 -10 110 -8 320 2 176 1 320 -2 319 -3 0 -11 -3 -17 -6z" transform="translate(0,76) scale(0.1,-0.1)" stroke="none" fill="#497DD8"/>

</g>

<g id="4" transform="translate(0,304.0)scale(0.8,0.8)">

<path d="M712 644 c-66 -17 -242 -101 -242 -114 0 -18 46 -11 65 10 10 11 26 20 36 20 9 0 43 14 74 30 31 17 69 30 84 30 26 0 51 16 51 32 0 10 -4 10 -68 -8z" transform="translate(0,76) scale(0.1,-0.1)" stroke="none" fill="#497DD8"/>

<path d="M13 663 c-10 -4 -13 -80 -13 -334 l0 -329 28 0 c31 0 52 16 52 39 0 21 67 156 85 171 8 7 15 18 15 24 0 14 151 166 165 166 5 0 21 12 36 26 15 15 38 32 51 38 22 11 39 56 21 56 -29 -1 -216 -167 -282 -250 -45 -56 -103 -165 -115 -213 -3 -15 -11 -27 -16 -27 -7 0 -10 110 -8 320 2 176 1 320 -2 319 -3 0 -11 -3 -17 -6z" transform="translate(0,76) scale(0.1,-0.1)" stroke="none" fill="#497DD8"/>

</g>

</g>
</svg>