<?xml version="1.0" standalone="no"?>
<!DOCTYPE svg PUBLIC "-//W3C//DTD SVG 20010904//EN"
 "http://www.w3.org/TR/2001/REC-SVG-20010904/DTD/svg10.dtd">
<svg version="1.0" xmlns="http://www.w3.org/2000/svg" width="400pt" height="372pt" viewBox="0 0 400 372" preserveAspectRatio = "xMidYMid meet" >
<metadata>
Created by ZoeQu, written in 2022
</metadata>
<rect width="400" height="372" fill="#C8814D"/>
<g id="row0" transform="translate(13,0.0)">
<g id="0" transform="translate(0.0,0)scale(1,1)">

<g transform="matrix(0.5,0,0,0.5,0,0)">

<path d="M465 864 c-99 -7 -201 -13 -226 -13 -42 -1 -47 -4 -62 -36 -13 -28 -22 -35 -46 -35 -36 0 -81 -49 -81 -88 0 -15 9 -42 21 -61 l20 -34 -22 -62 -22 -63 114 -195 113 -195 40 -6 c107 -14 407 -29 415 -20 14 14 221 376 221 385 0 5 -19 47 -42 93 l-42 85 22 39 c43 78 19 134 -59 134 -44 0 -47 1 -67 44 -25 52 -3 49 -297 28z m396 -104 c23 -13 25 -57 5 -85 -13 -18 -15 -15 -40 33 -14 28 -26 54 -26 57 0 9 40 5 61 -5z m-711 -9 c0 -5 -10 -35 -22 -66 -20 -52 -23 -55 -35 -39 -22 30 -16 70 13 93 29 22 44 27 44 12z m537 -87 c8 -21 -13 -42 -28 -27 -13 13 -5 43 11 43 6 0 13 -7 17 -16z m-347 -34 c0 -21 -33 -29 -45 -10 -9 15 4 30 26 30 12 0 19 -7 19 -20z" transform="translate(0,93.0) scale(0.1,-0.1)" stroke="none" fill="#4D3725"/>

<path d="M465 864 c-99 -7 -201 -13 -226 -13 -42 -1 -47 -4 -62 -36 -13 -28 -22 -35 -46 -35 -36 0 -81 -49 -81 -88 0 -15 9 -42 21 -61 l20 -34 -22 -62 -22 -63 114 -195 113 -195 40 -6 c107 -14 407 -29 415 -20 14 14 221 376 221 385 0 5 -19 47 -42 93 l-42 85 22 39 c43 78 19 134 -59 134 -44 0 -47 1 -67 44 -25 52 -3 49 -297 28z m396 -104 c23 -13 25 -57 5 -85 -13 -18 -15 -15 -40 33 -14 28 -26 54 -26 57 0 9 40 5 61 -5z m-711 -9 c0 -5 -10 -35 -22 -66 -20 -52 -23 -55 -35 -39 -22 30 -16 70 13 93 29 22 44 27 44 12z m537 -87 c8 -21 -13 -42 -28 -27 -13 13 -5 43 11 43 6 0 13 -7 17 -16z m-347 -34 c0 -21 -33 -29 -45 -10 -9 15 4 30 26 30 12 0 19 -7 19 -20z" transform="translate(200.0,93.0) scale(-0.1,-0.1)" stroke="none" fill="#4D3725"/>

<path d="M465 864 c-99 -7 -201 -13 -226 -13 -42 -1 -47 -4 -62 -36 -13 -28 -22 -35 -46 -35 -36 0 -81 -49 -81 -88 0 -15 9 -42 21 -61 l20 -34 -22 -62 -22 -63 114 -195 113 -195 40 -6 c107 -14 407 -29 415 -20 14 14 221 376 221 385 0 5 -19 47 -42 93 l-42 85 22 39 c43 78 19 134 -59 134 -44 0 -47 1 -67 44 -25 52 -3 49 -297 28z m396 -104 c23 -13 25 -57 5 -85 -13 -18 -15 -15 -40 33 -14 28 -26 54 -26 57 0 9 40 5 61 -5z m-711 -9 c0 -5 -10 -35 -22 -66 -20 -52 -23 -55 -35 -39 -22 30 -16 70 13 93 29 22 44 27 44 12z m537 -87 c8 -21 -13 -42 -28 -27 -13 13 -5 43 11 43 6 0 13 -7 17 -16z m-347 -34 c0 -21 -33 -29 -45 -10 -9 15 4 30 26 30 12 0 19 -7 19 -20z" transform="translate(0,93.0) scale(0.1,0.1)" stroke="none" fill="#4D3725"/>

<path d="M465 864 c-99 -7 -201 -13 -226 -13 -42 -1 -47 -4 -62 -36 -13 -28 -22 -35 -46 -35 -36 0 -81 -49 -81 -88 0 -15 9 -42 21 -61 l20 -34 -22 -62 -22 -63 114 -195 113 -195 40 -6 c107 -14 407 -29 415 -20 14 14 221 376 221 385 0 5 -19 47 -42 93 l-42 85 22 39 c43 78 19 134 -59 134 -44 0 -47 1 -67 44 -25 52 -3 49 -297 28z m396 -104 c23 -13 25 -57 5 -85 -13 -18 -15 -15 -40 33 -14 28 -26 54 -26 57 0 9 40 5 61 -5z m-711 -9 c0 -5 -10 -35 -22 -66 -20 -52 -23 -55 -35 -39 -22 30 -16 70 13 93 29 22 44 27 44 12z m537 -87 c8 -21 -13 -42 -28 -27 -13 13 -5 43 11 43 6 0 13 -7 17 -16z m-347 -34 c0 -21 -33 -29 -45 -10 -9 15 4 30 26 30 12 0 19 -7 19 -20z" transform="translate(200.0,93.0) scale(-0.1,0.1)" stroke="none" fill="#4D3725"/>

</g>

</g>

<g id="1" transform="translate(100.0,0)scale(1,1)">

<g transform="matrix(0.5,0,0,0.5,0,0)">

<path d="M465 864 c-99 -7 -201 -13 -226 -13 -42 -1 -47 -4 -62 -36 -13 -28 -22 -35 -46 -35 -36 0 -81 -49 -81 -88 0 -15 9 -42 21 -61 l20 -34 -22 -62 -22 -63 114 -195 113 -195 40 -6 c107 -14 407 -29 415 -20 14 14 221 376 221 385 0 5 -19 47 -42 93 l-42 85 22 39 c43 78 19 134 -59 134 -44 0 -47 1 -67 44 -25 52 -3 49 -297 28z m396 -104 c23 -13 25 -57 5 -85 -13 -18 -15 -15 -40 33 -14 28 -26 54 -26 57 0 9 40 5 61 -5z m-711 -9 c0 -5 -10 -35 -22 -66 -20 -52 -23 -55 -35 -39 -22 30 -16 70 13 93 29 22 44 27 44 12z m537 -87 c8 -21 -13 -42 -28 -27 -13 13 -5 43 11 43 6 0 13 -7 17 -16z m-347 -34 c0 -21 -33 -29 -45 -10 -9 15 4 30 26 30 12 0 19 -7 19 -20z" transform="translate(0,93.0) scale(0.1,-0.1)" stroke="none" fill="#4D3725"/>

<path d="M465 864 c-99 -7 -201 -13 -226 -13 -42 -1 -47 -4 -62 -36 -13 -28 -22 -35 -46 -35 -36 0 -81 -49 -81 -88 0 -15 9 -42 21 -61 l20 -34 -22 -62 -22 -63 114 -195 113 -195 40 -6 c107 -14 407 -29 415 -20 14 14 221 376 221 385 0 5 -19 47 -42 93 l-42 85 22 39 c43 78 19 134 -59 134 -44 0 -47 1 -67 44 -25 52 -3 49 -297 28z m396 -104 c23 -13 25 -57 5 -85 -13 -18 -15 -15 -40 33 -14 28 -26 54 -26 57 0 9 40 5 61 -5z m-711 -9 c0 -5 -10 -35 -22 -66 -20 -52 -23 -55 -35 -39 -22 30 -16 70 13 93 29 22 44 27 44 12z m537 -87 c8 -21 -13 -42 -28 -27 -13 13 -5 43 11 43 6 0 13 -7 17 -16z m-347 -34 c0 -21 -33 -29 -45 -10 -9 15 4 30 26 30 12 0 19 -7 19 -20z" transform="translate(200.0,93.0) scale(-0.1,-0.1)" stroke="none" fill="#4D3725"/>

<path d="M465 864 c-99 -7 -201 -13 -226 -13 -42 -1 -47 -4 -62 -36 -13 -28 -22 -35 -46 -35 -36 0 -81 -49 -81 -88 0 -15 9 -42 21 -61 l20 -34 -22 -62 -22 -63 114 -195 113 -195 40 -6 c107 -14 407 -29 415 -20 14 14 221 376 221 385 0 5 -19 47 -42 93 l-42 85 22 39 c43 78 19 134 -59 134 -44 0 -47 1 -67 44 -25 52 -3 49 -297 28z m396 -104 c23 -13 25 -57 5 -85 -13 -18 -15 -15 -40 33 -14 28 -26 54 -26 57 0 9 40 5 61 -5z m-711 -9 c0 -5 -10 -35 -22 -66 -20 -52 -23 -55 -35 -39 -22 30 -16 70 13 93 29 22 44 27 44 12z m537 -87 c8 -21 -13 -42 -28 -27 -13 13 -5 43 11 43 6 0 13 -7 17 -16z m-347 -34 c0 -21 -33 -29 -45 -10 -9 15 4 30 26 30 12 0 19 -7 19 -20z" transform="translate(0,93.0) scale(0.1,0.1)" stroke="none" fill="#4D3725"/>

<path d="M465 864 c-99 -7 -201 -13 -226 -13 -42 -1 -47 -4 -62 -36 -13 -28 -22 -35 -46 -35 -36 0 -81 -49 -81 -88 0 -15 9 -42 21 -61 l20 -34 -22 -62 -22 -63 114 -195 113 -195 40 -6 c107 -14 407 -29 415 -20 14 14 221 376 221 385 0 5 -19 47 -42 93 l-42 85 22 39 c43 78 19 134 -59 134 -44 0 -47 1 -67 44 -25 52 -3 49 -297 28z m396 -104 c23 -13 25 -57 5 -85 -13 -18 -15 -15 -40 33 -14 28 -26 54 -26 57 0 9 40 5 61 -5z m-711 -9 c0 -5 -10 -35 -22 -66 -20 -52 -23 -55 -35 -39 -22 30 -16 70 13 93 29 22 44 27 44 12z m537 -87 c8 -21 -13 -42 -28 -27 -13 13 -5 43 11 43 6 0 13 -7 17 -16z m-347 -34 c0 -21 -33 -29 -45 -10 -9 15 4 30 26 30 12 0 19 -7 19 -20z" transform="translate(200.0,93.0) scale(-0.1,0.1)" stroke="none" fill="#4D3725"/>

</g>

</g>

<g id="2" transform="translate(200.0,0)scale(1,1)">

<g transform="matrix(0.5,0,0,0.5,0,0)">

<path d="M465 864 c-99 -7 -201 -13 -226 -13 -42 -1 -47 -4 -62 -36 -13 -28 -22 -35 -46 -35 -36 0 -81 -49 -81 -88 0 -15 9 -42 21 -61 l20 -34 -22 -62 -22 -63 114 -195 113 -195 40 -6 c107 -14 407 -29 415 -20 14 14 221 376 221 385 0 5 -19 47 -42 93 l-42 85 22 39 c43 78 19 134 -59 134 -44 0 -47 1 -67 44 -25 52 -3 49 -297 28z m396 -104 c23 -13 25 -57 5 -85 -13 -18 -15 -15 -40 33 -14 28 -26 54 -26 57 0 9 40 5 61 -5z m-711 -9 c0 -5 -10 -35 -22 -66 -20 -52 -23 -55 -35 -39 -22 30 -16 70 13 93 29 22 44 27 44 12z m537 -87 c8 -21 -13 -42 -28 -27 -13 13 -5 43 11 43 6 0 13 -7 17 -16z m-347 -34 c0 -21 -33 -29 -45 -10 -9 15 4 30 26 30 12 0 19 -7 19 -20z" transform="translate(0,93.0) scale(0.1,-0.1)" stroke="none" fill="#4D3725"/>

<path d="M465 864 c-99 -7 -201 -13 -226 -13 -42 -1 -47 -4 -62 -36 -13 -28 -22 -35 -46 -35 -36 0 -81 -49 -81 -88 0 -15 9 -42 21 -61 l20 -34 -22 -62 -22 -63 114 -195 113 -195 40 -6 c107 -14 407 -29 415 -20 14 14 221 376 221 385 0 5 -19 47 -42 93 l-42 85 22 39 c43 78 19 134 -59 134 -44 0 -47 1 -67 44 -25 52 -3 49 -297 28z m396 -104 c23 -13 25 -57 5 -85 -13 -18 -15 -15 -40 33 -14 28 -26 54 -26 57 0 9 40 5 61 -5z m-711 -9 c0 -5 -10 -35 -22 -66 -20 -52 -23 -55 -35 -39 -22 30 -16 70 13 93 29 22 44 27 44 12z m537 -87 c8 -21 -13 -42 -28 -27 -13 13 -5 43 11 43 6 0 13 -7 17 -16z m-347 -34 c0 -21 -33 -29 -45 -10 -9 15 4 30 26 30 12 0 19 -7 19 -20z" transform="translate(200.0,93.0) scale(-0.1,-0.1)" stroke="none" fill="#4D3725"/>

<path d="M465 864 c-99 -7 -201 -13 -226 -13 -42 -1 -47 -4 -62 -36 -13 -28 -22 -35 -46 -35 -36 0 -81 -49 -81 -88 0 -15 9 -42 21 -61 l20 -34 -22 -62 -22 -63 114 -195 113 -195 40 -6 c107 -14 407 -29 415 -20 14 14 221 376 221 385 0 5 -19 47 -42 93 l-42 85 22 39 c43 78 19 134 -59 134 -44 0 -47 1 -67 44 -25 52 -3 49 -297 28z m396 -104 c23 -13 25 -57 5 -85 -13 -18 -15 -15 -40 33 -14 28 -26 54 -26 57 0 9 40 5 61 -5z m-711 -9 c0 -5 -10 -35 -22 -66 -20 -52 -23 -55 -35 -39 -22 30 -16 70 13 93 29 22 44 27 44 12z m537 -87 c8 -21 -13 -42 -28 -27 -13 13 -5 43 11 43 6 0 13 -7 17 -16z m-347 -34 c0 -21 -33 -29 -45 -10 -9 15 4 30 26 30 12 0 19 -7 19 -20z" transform="translate(0,93.0) scale(0.1,0.1)" stroke="none" fill="#4D3725"/>

<path d="M465 864 c-99 -7 -201 -13 -226 -13 -42 -1 -47 -4 -62 -36 -13 -28 -22 -35 -46 -35 -36 0 -81 -49 -81 -88 0 -15 9 -42 21 -61 l20 -34 -22 -62 -22 -63 114 -195 113 -195 40 -6 c107 -14 407 -29 415 -20 14 14 221 376 221 385 0 5 -19 47 -42 93 l-42 85 22 39 c43 78 19 134 -59 134 -44 0 -47 1 -67 44 -25 52 -3 49 -297 28z m396 -104 c23 -13 25 -57 5 -85 -13 -18 -15 -15 -40 33 -14 28 -26 54 -26 57 0 9 40 5 61 -5z m-711 -9 c0 -5 -10 -35 -22 -66 -20 -52 -23 -55 -35 -39 -22 30 -16 70 13 93 29 22 44 27 44 12z m537 -87 c8 -21 -13 -42 -28 -27 -13 13 -5 43 11 43 6 0 13 -7 17 -16z m-347 -34 c0 -21 -33 -29 -45 -10 -9 15 4 30 26 30 12 0 19 -7 19 -20z" transform="translate(200.0,93.0) scale(-0.1,0.1)" stroke="none" fill="#4D3725"/>

</g>

</g>

<g id="3" transform="translate(300.0,0)scale(1,1)">

<g transform="matrix(0.5,0,0,0.5,0,0)">

<path d="M465 864 c-99 -7 -201 -13 -226 -13 -42 -1 -47 -4 -62 -36 -13 -28 -22 -35 -46 -35 -36 0 -81 -49 -81 -88 0 -15 9 -42 21 -61 l20 -34 -22 -62 -22 -63 114 -195 113 -195 40 -6 c107 -14 407 -29 415 -20 14 14 221 376 221 385 0 5 -19 47 -42 93 l-42 85 22 39 c43 78 19 134 -59 134 -44 0 -47 1 -67 44 -25 52 -3 49 -297 28z m396 -104 c23 -13 25 -57 5 -85 -13 -18 -15 -15 -40 33 -14 28 -26 54 -26 57 0 9 40 5 61 -5z m-711 -9 c0 -5 -10 -35 -22 -66 -20 -52 -23 -55 -35 -39 -22 30 -16 70 13 93 29 22 44 27 44 12z m537 -87 c8 -21 -13 -42 -28 -27 -13 13 -5 43 11 43 6 0 13 -7 17 -16z m-347 -34 c0 -21 -33 -29 -45 -10 -9 15 4 30 26 30 12 0 19 -7 19 -20z" transform="translate(0,93.0) scale(0.1,-0.1)" stroke="none" fill="#4D3725"/>

<path d="M465 864 c-99 -7 -201 -13 -226 -13 -42 -1 -47 -4 -62 -36 -13 -28 -22 -35 -46 -35 -36 0 -81 -49 -81 -88 0 -15 9 -42 21 -61 l20 -34 -22 -62 -22 -63 114 -195 113 -195 40 -6 c107 -14 407 -29 415 -20 14 14 221 376 221 385 0 5 -19 47 -42 93 l-42 85 22 39 c43 78 19 134 -59 134 -44 0 -47 1 -67 44 -25 52 -3 49 -297 28z m396 -104 c23 -13 25 -57 5 -85 -13 -18 -15 -15 -40 33 -14 28 -26 54 -26 57 0 9 40 5 61 -5z m-711 -9 c0 -5 -10 -35 -22 -66 -20 -52 -23 -55 -35 -39 -22 30 -16 70 13 93 29 22 44 27 44 12z m537 -87 c8 -21 -13 -42 -28 -27 -13 13 -5 43 11 43 6 0 13 -7 17 -16z m-347 -34 c0 -21 -33 -29 -45 -10 -9 15 4 30 26 30 12 0 19 -7 19 -20z" transform="translate(200.0,93.0) scale(-0.1,-0.1)" stroke="none" fill="#4D3725"/>

<path d="M465 864 c-99 -7 -201 -13 -226 -13 -42 -1 -47 -4 -62 -36 -13 -28 -22 -35 -46 -35 -36 0 -81 -49 -81 -88 0 -15 9 -42 21 -61 l20 -34 -22 -62 -22 -63 114 -195 113 -195 40 -6 c107 -14 407 -29 415 -20 14 14 221 376 221 385 0 5 -19 47 -42 93 l-42 85 22 39 c43 78 19 134 -59 134 -44 0 -47 1 -67 44 -25 52 -3 49 -297 28z m396 -104 c23 -13 25 -57 5 -85 -13 -18 -15 -15 -40 33 -14 28 -26 54 -26 57 0 9 40 5 61 -5z m-711 -9 c0 -5 -10 -35 -22 -66 -20 -52 -23 -55 -35 -39 -22 30 -16 70 13 93 29 22 44 27 44 12z m537 -87 c8 -21 -13 -42 -28 -27 -13 13 -5 43 11 43 6 0 13 -7 17 -16z m-347 -34 c0 -21 -33 -29 -45 -10 -9 15 4 30 26 30 12 0 19 -7 19 -20z" transform="translate(0,93.0) scale(0.1,0.1)" stroke="none" fill="#4D3725"/>

<path d="M465 864 c-99 -7 -201 -13 -226 -13 -42 -1 -47 -4 -62 -36 -13 -28 -22 -35 -46 -35 -36 0 -81 -49 -81 -88 0 -15 9 -42 21 -61 l20 -34 -22 -62 -22 -63 114 -195 113 -195 40 -6 c107 -14 407 -29 415 -20 14 14 221 376 221 385 0 5 -19 47 -42 93 l-42 85 22 39 c43 78 19 134 -59 134 -44 0 -47 1 -67 44 -25 52 -3 49 -297 28z m396 -104 c23 -13 25 -57 5 -85 -13 -18 -15 -15 -40 33 -14 28 -26 54 -26 57 0 9 40 5 61 -5z m-711 -9 c0 -5 -10 -35 -22 -66 -20 -52 -23 -55 -35 -39 -22 30 -16 70 13 93 29 22 44 27 44 12z m537 -87 c8 -21 -13 -42 -28 -27 -13 13 -5 43 11 43 6 0 13 -7 17 -16z m-347 -34 c0 -21 -33 -29 -45 -10 -9 15 4 30 26 30 12 0 19 -7 19 -20z" transform="translate(200.0,93.0) scale(-0.1,0.1)" stroke="none" fill="#4D3725"/>

</g>

</g>

<g id="4" transform="translate(400.0,0)scale(1,1)">

<g transform="matrix(0.5,0,0,0.5,0,0)">

<path d="M465 864 c-99 -7 -201 -13 -226 -13 -42 -1 -47 -4 -62 -36 -13 -28 -22 -35 -46 -35 -36 0 -81 -49 -81 -88 0 -15 9 -42 21 -61 l20 -34 -22 -62 -22 -63 114 -195 113 -195 40 -6 c107 -14 407 -29 415 -20 14 14 221 376 221 385 0 5 -19 47 -42 93 l-42 85 22 39 c43 78 19 134 -59 134 -44 0 -47 1 -67 44 -25 52 -3 49 -297 28z m396 -104 c23 -13 25 -57 5 -85 -13 -18 -15 -15 -40 33 -14 28 -26 54 -26 57 0 9 40 5 61 -5z m-711 -9 c0 -5 -10 -35 -22 -66 -20 -52 -23 -55 -35 -39 -22 30 -16 70 13 93 29 22 44 27 44 12z m537 -87 c8 -21 -13 -42 -28 -27 -13 13 -5 43 11 43 6 0 13 -7 17 -16z m-347 -34 c0 -21 -33 -29 -45 -10 -9 15 4 30 26 30 12 0 19 -7 19 -20z" transform="translate(0,93.0) scale(0.1,-0.1)" stroke="none" fill="#4D3725"/>

<path d="M465 864 c-99 -7 -201 -13 -226 -13 -42 -1 -47 -4 -62 -36 -13 -28 -22 -35 -46 -35 -36 0 -81 -49 -81 -88 0 -15 9 -42 21 -61 l20 -34 -22 -62 -22 -63 114 -195 113 -195 40 -6 c107 -14 407 -29 415 -20 14 14 221 376 221 385 0 5 -19 47 -42 93 l-42 85 22 39 c43 78 19 134 -59 134 -44 0 -47 1 -67 44 -25 52 -3 49 -297 28z m396 -104 c23 -13 25 -57 5 -85 -13 -18 -15 -15 -40 33 -14 28 -26 54 -26 57 0 9 40 5 61 -5z m-711 -9 c0 -5 -10 -35 -22 -66 -20 -52 -23 -55 -35 -39 -22 30 -16 70 13 93 29 22 44 27 44 12z m537 -87 c8 -21 -13 -42 -28 -27 -13 13 -5 43 11 43 6 0 13 -7 17 -16z m-347 -34 c0 -21 -33 -29 -45 -10 -9 15 4 30 26 30 12 0 19 -7 19 -20z" transform="translate(200.0,93.0) scale(-0.1,-0.1)" stroke="none" fill="#4D3725"/>

<path d="M465 864 c-99 -7 -201 -13 -226 -13 -42 -1 -47 -4 -62 -36 -13 -28 -22 -35 -46 -35 -36 0 -81 -49 -81 -88 0 -15 9 -42 21 -61 l20 -34 -22 -62 -22 -63 114 -195 113 -195 40 -6 c107 -14 407 -29 415 -20 14 14 221 376 221 385 0 5 -19 47 -42 93 l-42 85 22 39 c43 78 19 134 -59 134 -44 0 -47 1 -67 44 -25 52 -3 49 -297 28z m396 -104 c23 -13 25 -57 5 -85 -13 -18 -15 -15 -40 33 -14 28 -26 54 -26 57 0 9 40 5 61 -5z m-711 -9 c0 -5 -10 -35 -22 -66 -20 -52 -23 -55 -35 -39 -22 30 -16 70 13 93 29 22 44 27 44 12z m537 -87 c8 -21 -13 -42 -28 -27 -13 13 -5 43 11 43 6 0 13 -7 17 -16z m-347 -34 c0 -21 -33 -29 -45 -10 -9 15 4 30 26 30 12 0 19 -7 19 -20z" transform="translate(0,93.0) scale(0.1,0.1)" stroke="none" fill="#4D3725"/>

<path d="M465 864 c-99 -7 -201 -13 -226 -13 -42 -1 -47 -4 -62 -36 -13 -28 -22 -35 -46 -35 -36 0 -81 -49 -81 -88 0 -15 9 -42 21 -61 l20 -34 -22 -62 -22 -63 114 -195 113 -195 40 -6 c107 -14 407 -29 415 -20 14 14 221 376 221 385 0 5 -19 47 -42 93 l-42 85 22 39 c43 78 19 134 -59 134 -44 0 -47 1 -67 44 -25 52 -3 49 -297 28z m396 -104 c23 -13 25 -57 5 -85 -13 -18 -15 -15 -40 33 -14 28 -26 54 -26 57 0 9 40 5 61 -5z m-711 -9 c0 -5 -10 -35 -22 -66 -20 -52 -23 -55 -35 -39 -22 30 -16 70 13 93 29 22 44 27 44 12z m537 -87 c8 -21 -13 -42 -28 -27 -13 13 -5 43 11 43 6 0 13 -7 17 -16z m-347 -34 c0 -21 -33 -29 -45 -10 -9 15 4 30 26 30 12 0 19 -7 19 -20z" transform="translate(200.0,93.0) scale(-0.1,0.1)" stroke="none" fill="#4D3725"/>

</g>

</g>

</g>
<g id="row1" transform="translate(13,93.0)">
<g id="0" transform="translate(0.0,0)scale(1,1)">

<g transform="matrix(0.5,0,0,0.5,0,0)">

<path d="M465 864 c-99 -7 -201 -13 -226 -13 -42 -1 -47 -4 -62 -36 -13 -28 -22 -35 -46 -35 -36 0 -81 -49 -81 -88 0 -15 9 -42 21 -61 l20 -34 -22 -62 -22 -63 114 -195 113 -195 40 -6 c107 -14 407 -29 415 -20 14 14 221 376 221 385 0 5 -19 47 -42 93 l-42 85 22 39 c43 78 19 134 -59 134 -44 0 -47 1 -67 44 -25 52 -3 49 -297 28z m396 -104 c23 -13 25 -57 5 -85 -13 -18 -15 -15 -40 33 -14 28 -26 54 -26 57 0 9 40 5 61 -5z m-711 -9 c0 -5 -10 -35 -22 -66 -20 -52 -23 -55 -35 -39 -22 30 -16 70 13 93 29 22 44 27 44 12z m537 -87 c8 -21 -13 -42 -28 -27 -13 13 -5 43 11 43 6 0 13 -7 17 -16z m-347 -34 c0 -21 -33 -29 -45 -10 -9 15 4 30 26 30 12 0 19 -7 19 -20z" transform="translate(0,93.0) scale(0.1,-0.1)" stroke="none" fill="#4D3725"/>

<path d="M465 864 c-99 -7 -201 -13 -226 -13 -42 -1 -47 -4 -62 -36 -13 -28 -22 -35 -46 -35 -36 0 -81 -49 -81 -88 0 -15 9 -42 21 -61 l20 -34 -22 -62 -22 -63 114 -195 113 -195 40 -6 c107 -14 407 -29 415 -20 14 14 221 376 221 385 0 5 -19 47 -42 93 l-42 85 22 39 c43 78 19 134 -59 134 -44 0 -47 1 -67 44 -25 52 -3 49 -297 28z m396 -104 c23 -13 25 -57 5 -85 -13 -18 -15 -15 -40 33 -14 28 -26 54 -26 57 0 9 40 5 61 -5z m-711 -9 c0 -5 -10 -35 -22 -66 -20 -52 -23 -55 -35 -39 -22 30 -16 70 13 93 29 22 44 27 44 12z m537 -87 c8 -21 -13 -42 -28 -27 -13 13 -5 43 11 43 6 0 13 -7 17 -16z m-347 -34 c0 -21 -33 -29 -45 -10 -9 15 4 30 26 30 12 0 19 -7 19 -20z" transform="translate(200.0,93.0) scale(-0.1,-0.1)" stroke="none" fill="#4D3725"/>

<path d="M465 864 c-99 -7 -201 -13 -226 -13 -42 -1 -47 -4 -62 -36 -13 -28 -22 -35 -46 -35 -36 0 -81 -49 -81 -88 0 -15 9 -42 21 -61 l20 -34 -22 -62 -22 -63 114 -195 113 -195 40 -6 c107 -14 407 -29 415 -20 14 14 221 376 221 385 0 5 -19 47 -42 93 l-42 85 22 39 c43 78 19 134 -59 134 -44 0 -47 1 -67 44 -25 52 -3 49 -297 28z m396 -104 c23 -13 25 -57 5 -85 -13 -18 -15 -15 -40 33 -14 28 -26 54 -26 57 0 9 40 5 61 -5z m-711 -9 c0 -5 -10 -35 -22 -66 -20 -52 -23 -55 -35 -39 -22 30 -16 70 13 93 29 22 44 27 44 12z m537 -87 c8 -21 -13 -42 -28 -27 -13 13 -5 43 11 43 6 0 13 -7 17 -16z m-347 -34 c0 -21 -33 -29 -45 -10 -9 15 4 30 26 30 12 0 19 -7 19 -20z" transform="translate(0,93.0) scale(0.1,0.1)" stroke="none" fill="#4D3725"/>

<path d="M465 864 c-99 -7 -201 -13 -226 -13 -42 -1 -47 -4 -62 -36 -13 -28 -22 -35 -46 -35 -36 0 -81 -49 -81 -88 0 -15 9 -42 21 -61 l20 -34 -22 -62 -22 -63 114 -195 113 -195 40 -6 c107 -14 407 -29 415 -20 14 14 221 376 221 385 0 5 -19 47 -42 93 l-42 85 22 39 c43 78 19 134 -59 134 -44 0 -47 1 -67 44 -25 52 -3 49 -297 28z m396 -104 c23 -13 25 -57 5 -85 -13 -18 -15 -15 -40 33 -14 28 -26 54 -26 57 0 9 40 5 61 -5z m-711 -9 c0 -5 -10 -35 -22 -66 -20 -52 -23 -55 -35 -39 -22 30 -16 70 13 93 29 22 44 27 44 12z m537 -87 c8 -21 -13 -42 -28 -27 -13 13 -5 43 11 43 6 0 13 -7 17 -16z m-347 -34 c0 -21 -33 -29 -45 -10 -9 15 4 30 26 30 12 0 19 -7 19 -20z" transform="translate(200.0,93.0) scale(-0.1,0.1)" stroke="none" fill="#4D3725"/>

</g>

</g>

<g id="1" transform="translate(100.0,0)scale(1,1)">

<g transform="matrix(0.5,0,0,0.5,0,0)">

<path d="M465 864 c-99 -7 -201 -13 -226 -13 -42 -1 -47 -4 -62 -36 -13 -28 -22 -35 -46 -35 -36 0 -81 -49 -81 -88 0 -15 9 -42 21 -61 l20 -34 -22 -62 -22 -63 114 -195 113 -195 40 -6 c107 -14 407 -29 415 -20 14 14 221 376 221 385 0 5 -19 47 -42 93 l-42 85 22 39 c43 78 19 134 -59 134 -44 0 -47 1 -67 44 -25 52 -3 49 -297 28z m396 -104 c23 -13 25 -57 5 -85 -13 -18 -15 -15 -40 33 -14 28 -26 54 -26 57 0 9 40 5 61 -5z m-711 -9 c0 -5 -10 -35 -22 -66 -20 -52 -23 -55 -35 -39 -22 30 -16 70 13 93 29 22 44 27 44 12z m537 -87 c8 -21 -13 -42 -28 -27 -13 13 -5 43 11 43 6 0 13 -7 17 -16z m-347 -34 c0 -21 -33 -29 -45 -10 -9 15 4 30 26 30 12 0 19 -7 19 -20z" transform="translate(0,93.0) scale(0.1,-0.1)" stroke="none" fill="#4D3725"/>

<path d="M465 864 c-99 -7 -201 -13 -226 -13 -42 -1 -47 -4 -62 -36 -13 -28 -22 -35 -46 -35 -36 0 -81 -49 -81 -88 0 -15 9 -42 21 -61 l20 -34 -22 -62 -22 -63 114 -195 113 -195 40 -6 c107 -14 407 -29 415 -20 14 14 221 376 221 385 0 5 -19 47 -42 93 l-42 85 22 39 c43 78 19 134 -59 134 -44 0 -47 1 -67 44 -25 52 -3 49 -297 28z m396 -104 c23 -13 25 -57 5 -85 -13 -18 -15 -15 -40 33 -14 28 -26 54 -26 57 0 9 40 5 61 -5z m-711 -9 c0 -5 -10 -35 -22 -66 -20 -52 -23 -55 -35 -39 -22 30 -16 70 13 93 29 22 44 27 44 12z m537 -87 c8 -21 -13 -42 -28 -27 -13 13 -5 43 11 43 6 0 13 -7 17 -16z m-347 -34 c0 -21 -33 -29 -45 -10 -9 15 4 30 26 30 12 0 19 -7 19 -20z" transform="translate(200.0,93.0) scale(-0.1,-0.1)" stroke="none" fill="#4D3725"/>

<path d="M465 864 c-99 -7 -201 -13 -226 -13 -42 -1 -47 -4 -62 -36 -13 -28 -22 -35 -46 -35 -36 0 -81 -49 -81 -88 0 -15 9 -42 21 -61 l20 -34 -22 -62 -22 -63 114 -195 113 -195 40 -6 c107 -14 407 -29 415 -20 14 14 221 376 221 385 0 5 -19 47 -42 93 l-42 85 22 39 c43 78 19 134 -59 134 -44 0 -47 1 -67 44 -25 52 -3 49 -297 28z m396 -104 c23 -13 25 -57 5 -85 -13 -18 -15 -15 -40 33 -14 28 -26 54 -26 57 0 9 40 5 61 -5z m-711 -9 c0 -5 -10 -35 -22 -66 -20 -52 -23 -55 -35 -39 -22 30 -16 70 13 93 29 22 44 27 44 12z m537 -87 c8 -21 -13 -42 -28 -27 -13 13 -5 43 11 43 6 0 13 -7 17 -16z m-347 -34 c0 -21 -33 -29 -45 -10 -9 15 4 30 26 30 12 0 19 -7 19 -20z" transform="translate(0,93.0) scale(0.1,0.1)" stroke="none" fill="#4D3725"/>

<path d="M465 864 c-99 -7 -201 -13 -226 -13 -42 -1 -47 -4 -62 -36 -13 -28 -22 -35 -46 -35 -36 0 -81 -49 -81 -88 0 -15 9 -42 21 -61 l20 -34 -22 -62 -22 -63 114 -195 113 -195 40 -6 c107 -14 407 -29 415 -20 14 14 221 376 221 385 0 5 -19 47 -42 93 l-42 85 22 39 c43 78 19 134 -59 134 -44 0 -47 1 -67 44 -25 52 -3 49 -297 28z m396 -104 c23 -13 25 -57 5 -85 -13 -18 -15 -15 -40 33 -14 28 -26 54 -26 57 0 9 40 5 61 -5z m-711 -9 c0 -5 -10 -35 -22 -66 -20 -52 -23 -55 -35 -39 -22 30 -16 70 13 93 29 22 44 27 44 12z m537 -87 c8 -21 -13 -42 -28 -27 -13 13 -5 43 11 43 6 0 13 -7 17 -16z m-347 -34 c0 -21 -33 -29 -45 -10 -9 15 4 30 26 30 12 0 19 -7 19 -20z" transform="translate(200.0,93.0) scale(-0.1,0.1)" stroke="none" fill="#4D3725"/>

</g>

</g>

<g id="2" transform="translate(200.0,0)scale(1,1)">

<g transform="matrix(0.5,0,0,0.5,0,0)">

<path d="M465 864 c-99 -7 -201 -13 -226 -13 -42 -1 -47 -4 -62 -36 -13 -28 -22 -35 -46 -35 -36 0 -81 -49 -81 -88 0 -15 9 -42 21 -61 l20 -34 -22 -62 -22 -63 114 -195 113 -195 40 -6 c107 -14 407 -29 415 -20 14 14 221 376 221 385 0 5 -19 47 -42 93 l-42 85 22 39 c43 78 19 134 -59 134 -44 0 -47 1 -67 44 -25 52 -3 49 -297 28z m396 -104 c23 -13 25 -57 5 -85 -13 -18 -15 -15 -40 33 -14 28 -26 54 -26 57 0 9 40 5 61 -5z m-711 -9 c0 -5 -10 -35 -22 -66 -20 -52 -23 -55 -35 -39 -22 30 -16 70 13 93 29 22 44 27 44 12z m537 -87 c8 -21 -13 -42 -28 -27 -13 13 -5 43 11 43 6 0 13 -7 17 -16z m-347 -34 c0 -21 -33 -29 -45 -10 -9 15 4 30 26 30 12 0 19 -7 19 -20z" transform="translate(0,93.0) scale(0.1,-0.1)" stroke="none" fill="#4D3725"/>

<path d="M465 864 c-99 -7 -201 -13 -226 -13 -42 -1 -47 -4 -62 -36 -13 -28 -22 -35 -46 -35 -36 0 -81 -49 -81 -88 0 -15 9 -42 21 -61 l20 -34 -22 -62 -22 -63 114 -195 113 -195 40 -6 c107 -14 407 -29 415 -20 14 14 221 376 221 385 0 5 -19 47 -42 93 l-42 85 22 39 c43 78 19 134 -59 134 -44 0 -47 1 -67 44 -25 52 -3 49 -297 28z m396 -104 c23 -13 25 -57 5 -85 -13 -18 -15 -15 -40 33 -14 28 -26 54 -26 57 0 9 40 5 61 -5z m-711 -9 c0 -5 -10 -35 -22 -66 -20 -52 -23 -55 -35 -39 -22 30 -16 70 13 93 29 22 44 27 44 12z m537 -87 c8 -21 -13 -42 -28 -27 -13 13 -5 43 11 43 6 0 13 -7 17 -16z m-347 -34 c0 -21 -33 -29 -45 -10 -9 15 4 30 26 30 12 0 19 -7 19 -20z" transform="translate(200.0,93.0) scale(-0.1,-0.1)" stroke="none" fill="#4D3725"/>

<path d="M465 864 c-99 -7 -201 -13 -226 -13 -42 -1 -47 -4 -62 -36 -13 -28 -22 -35 -46 -35 -36 0 -81 -49 -81 -88 0 -15 9 -42 21 -61 l20 -34 -22 -62 -22 -63 114 -195 113 -195 40 -6 c107 -14 407 -29 415 -20 14 14 221 376 221 385 0 5 -19 47 -42 93 l-42 85 22 39 c43 78 19 134 -59 134 -44 0 -47 1 -67 44 -25 52 -3 49 -297 28z m396 -104 c23 -13 25 -57 5 -85 -13 -18 -15 -15 -40 33 -14 28 -26 54 -26 57 0 9 40 5 61 -5z m-711 -9 c0 -5 -10 -35 -22 -66 -20 -52 -23 -55 -35 -39 -22 30 -16 70 13 93 29 22 44 27 44 12z m537 -87 c8 -21 -13 -42 -28 -27 -13 13 -5 43 11 43 6 0 13 -7 17 -16z m-347 -34 c0 -21 -33 -29 -45 -10 -9 15 4 30 26 30 12 0 19 -7 19 -20z" transform="translate(0,93.0) scale(0.1,0.1)" stroke="none" fill="#4D3725"/>

<path d="M465 864 c-99 -7 -201 -13 -226 -13 -42 -1 -47 -4 -62 -36 -13 -28 -22 -35 -46 -35 -36 0 -81 -49 -81 -88 0 -15 9 -42 21 -61 l20 -34 -22 -62 -22 -63 114 -195 113 -195 40 -6 c107 -14 407 -29 415 -20 14 14 221 376 221 385 0 5 -19 47 -42 93 l-42 85 22 39 c43 78 19 134 -59 134 -44 0 -47 1 -67 44 -25 52 -3 49 -297 28z m396 -104 c23 -13 25 -57 5 -85 -13 -18 -15 -15 -40 33 -14 28 -26 54 -26 57 0 9 40 5 61 -5z m-711 -9 c0 -5 -10 -35 -22 -66 -20 -52 -23 -55 -35 -39 -22 30 -16 70 13 93 29 22 44 27 44 12z m537 -87 c8 -21 -13 -42 -28 -27 -13 13 -5 43 11 43 6 0 13 -7 17 -16z m-347 -34 c0 -21 -33 -29 -45 -10 -9 15 4 30 26 30 12 0 19 -7 19 -20z" transform="translate(200.0,93.0) scale(-0.1,0.1)" stroke="none" fill="#4D3725"/>

</g>

</g>

<g id="3" transform="translate(300.0,0)scale(1,1)">

<g transform="matrix(0.5,0,0,0.5,0,0)">

<path d="M465 864 c-99 -7 -201 -13 -226 -13 -42 -1 -47 -4 -62 -36 -13 -28 -22 -35 -46 -35 -36 0 -81 -49 -81 -88 0 -15 9 -42 21 -61 l20 -34 -22 -62 -22 -63 114 -195 113 -195 40 -6 c107 -14 407 -29 415 -20 14 14 221 376 221 385 0 5 -19 47 -42 93 l-42 85 22 39 c43 78 19 134 -59 134 -44 0 -47 1 -67 44 -25 52 -3 49 -297 28z m396 -104 c23 -13 25 -57 5 -85 -13 -18 -15 -15 -40 33 -14 28 -26 54 -26 57 0 9 40 5 61 -5z m-711 -9 c0 -5 -10 -35 -22 -66 -20 -52 -23 -55 -35 -39 -22 30 -16 70 13 93 29 22 44 27 44 12z m537 -87 c8 -21 -13 -42 -28 -27 -13 13 -5 43 11 43 6 0 13 -7 17 -16z m-347 -34 c0 -21 -33 -29 -45 -10 -9 15 4 30 26 30 12 0 19 -7 19 -20z" transform="translate(0,93.0) scale(0.1,-0.1)" stroke="none" fill="#4D3725"/>

<path d="M465 864 c-99 -7 -201 -13 -226 -13 -42 -1 -47 -4 -62 -36 -13 -28 -22 -35 -46 -35 -36 0 -81 -49 -81 -88 0 -15 9 -42 21 -61 l20 -34 -22 -62 -22 -63 114 -195 113 -195 40 -6 c107 -14 407 -29 415 -20 14 14 221 376 221 385 0 5 -19 47 -42 93 l-42 85 22 39 c43 78 19 134 -59 134 -44 0 -47 1 -67 44 -25 52 -3 49 -297 28z m396 -104 c23 -13 25 -57 5 -85 -13 -18 -15 -15 -40 33 -14 28 -26 54 -26 57 0 9 40 5 61 -5z m-711 -9 c0 -5 -10 -35 -22 -66 -20 -52 -23 -55 -35 -39 -22 30 -16 70 13 93 29 22 44 27 44 12z m537 -87 c8 -21 -13 -42 -28 -27 -13 13 -5 43 11 43 6 0 13 -7 17 -16z m-347 -34 c0 -21 -33 -29 -45 -10 -9 15 4 30 26 30 12 0 19 -7 19 -20z" transform="translate(200.0,93.0) scale(-0.1,-0.1)" stroke="none" fill="#4D3725"/>

<path d="M465 864 c-99 -7 -201 -13 -226 -13 -42 -1 -47 -4 -62 -36 -13 -28 -22 -35 -46 -35 -36 0 -81 -49 -81 -88 0 -15 9 -42 21 -61 l20 -34 -22 -62 -22 -63 114 -195 113 -195 40 -6 c107 -14 407 -29 415 -20 14 14 221 376 221 385 0 5 -19 47 -42 93 l-42 85 22 39 c43 78 19 134 -59 134 -44 0 -47 1 -67 44 -25 52 -3 49 -297 28z m396 -104 c23 -13 25 -57 5 -85 -13 -18 -15 -15 -40 33 -14 28 -26 54 -26 57 0 9 40 5 61 -5z m-711 -9 c0 -5 -10 -35 -22 -66 -20 -52 -23 -55 -35 -39 -22 30 -16 70 13 93 29 22 44 27 44 12z m537 -87 c8 -21 -13 -42 -28 -27 -13 13 -5 43 11 43 6 0 13 -7 17 -16z m-347 -34 c0 -21 -33 -29 -45 -10 -9 15 4 30 26 30 12 0 19 -7 19 -20z" transform="translate(0,93.0) scale(0.1,0.1)" stroke="none" fill="#4D3725"/>

<path d="M465 864 c-99 -7 -201 -13 -226 -13 -42 -1 -47 -4 -62 -36 -13 -28 -22 -35 -46 -35 -36 0 -81 -49 -81 -88 0 -15 9 -42 21 -61 l20 -34 -22 -62 -22 -63 114 -195 113 -195 40 -6 c107 -14 407 -29 415 -20 14 14 221 376 221 385 0 5 -19 47 -42 93 l-42 85 22 39 c43 78 19 134 -59 134 -44 0 -47 1 -67 44 -25 52 -3 49 -297 28z m396 -104 c23 -13 25 -57 5 -85 -13 -18 -15 -15 -40 33 -14 28 -26 54 -26 57 0 9 40 5 61 -5z m-711 -9 c0 -5 -10 -35 -22 -66 -20 -52 -23 -55 -35 -39 -22 30 -16 70 13 93 29 22 44 27 44 12z m537 -87 c8 -21 -13 -42 -28 -27 -13 13 -5 43 11 43 6 0 13 -7 17 -16z m-347 -34 c0 -21 -33 -29 -45 -10 -9 15 4 30 26 30 12 0 19 -7 19 -20z" transform="translate(200.0,93.0) scale(-0.1,0.1)" stroke="none" fill="#4D3725"/>

</g>

</g>

<g id="4" transform="translate(400.0,0)scale(1,1)">

<g transform="matrix(0.5,0,0,0.5,0,0)">

<path d="M465 864 c-99 -7 -201 -13 -226 -13 -42 -1 -47 -4 -62 -36 -13 -28 -22 -35 -46 -35 -36 0 -81 -49 -81 -88 0 -15 9 -42 21 -61 l20 -34 -22 -62 -22 -63 114 -195 113 -195 40 -6 c107 -14 407 -29 415 -20 14 14 221 376 221 385 0 5 -19 47 -42 93 l-42 85 22 39 c43 78 19 134 -59 134 -44 0 -47 1 -67 44 -25 52 -3 49 -297 28z m396 -104 c23 -13 25 -57 5 -85 -13 -18 -15 -15 -40 33 -14 28 -26 54 -26 57 0 9 40 5 61 -5z m-711 -9 c0 -5 -10 -35 -22 -66 -20 -52 -23 -55 -35 -39 -22 30 -16 70 13 93 29 22 44 27 44 12z m537 -87 c8 -21 -13 -42 -28 -27 -13 13 -5 43 11 43 6 0 13 -7 17 -16z m-347 -34 c0 -21 -33 -29 -45 -10 -9 15 4 30 26 30 12 0 19 -7 19 -20z" transform="translate(0,93.0) scale(0.1,-0.1)" stroke="none" fill="#4D3725"/>

<path d="M465 864 c-99 -7 -201 -13 -226 -13 -42 -1 -47 -4 -62 -36 -13 -28 -22 -35 -46 -35 -36 0 -81 -49 -81 -88 0 -15 9 -42 21 -61 l20 -34 -22 -62 -22 -63 114 -195 113 -195 40 -6 c107 -14 407 -29 415 -20 14 14 221 376 221 385 0 5 -19 47 -42 93 l-42 85 22 39 c43 78 19 134 -59 134 -44 0 -47 1 -67 44 -25 52 -3 49 -297 28z m396 -104 c23 -13 25 -57 5 -85 -13 -18 -15 -15 -40 33 -14 28 -26 54 -26 57 0 9 40 5 61 -5z m-711 -9 c0 -5 -10 -35 -22 -66 -20 -52 -23 -55 -35 -39 -22 30 -16 70 13 93 29 22 44 27 44 12z m537 -87 c8 -21 -13 -42 -28 -27 -13 13 -5 43 11 43 6 0 13 -7 17 -16z m-347 -34 c0 -21 -33 -29 -45 -10 -9 15 4 30 26 30 12 0 19 -7 19 -20z" transform="translate(200.0,93.0) scale(-0.1,-0.1)" stroke="none" fill="#4D3725"/>

<path d="M465 864 c-99 -7 -201 -13 -226 -13 -42 -1 -47 -4 -62 -36 -13 -28 -22 -35 -46 -35 -36 0 -81 -49 -81 -88 0 -15 9 -42 21 -61 l20 -34 -22 -62 -22 -63 114 -195 113 -195 40 -6 c107 -14 407 -29 415 -20 14 14 221 376 221 385 0 5 -19 47 -42 93 l-42 85 22 39 c43 78 19 134 -59 134 -44 0 -47 1 -67 44 -25 52 -3 49 -297 28z m396 -104 c23 -13 25 -57 5 -85 -13 -18 -15 -15 -40 33 -14 28 -26 54 -26 57 0 9 40 5 61 -5z m-711 -9 c0 -5 -10 -35 -22 -66 -20 -52 -23 -55 -35 -39 -22 30 -16 70 13 93 29 22 44 27 44 12z m537 -87 c8 -21 -13 -42 -28 -27 -13 13 -5 43 11 43 6 0 13 -7 17 -16z m-347 -34 c0 -21 -33 -29 -45 -10 -9 15 4 30 26 30 12 0 19 -7 19 -20z" transform="translate(0,93.0) scale(0.1,0.1)" stroke="none" fill="#4D3725"/>

<path d="M465 864 c-99 -7 -201 -13 -226 -13 -42 -1 -47 -4 -62 -36 -13 -28 -22 -35 -46 -35 -36 0 -81 -49 -81 -88 0 -15 9 -42 21 -61 l20 -34 -22 -62 -22 -63 114 -195 113 -195 40 -6 c107 -14 407 -29 415 -20 14 14 221 376 221 385 0 5 -19 47 -42 93 l-42 85 22 39 c43 78 19 134 -59 134 -44 0 -47 1 -67 44 -25 52 -3 49 -297 28z m396 -104 c23 -13 25 -57 5 -85 -13 -18 -15 -15 -40 33 -14 28 -26 54 -26 57 0 9 40 5 61 -5z m-711 -9 c0 -5 -10 -35 -22 -66 -20 -52 -23 -55 -35 -39 -22 30 -16 70 13 93 29 22 44 27 44 12z m537 -87 c8 -21 -13 -42 -28 -27 -13 13 -5 43 11 43 6 0 13 -7 17 -16z m-347 -34 c0 -21 -33 -29 -45 -10 -9 15 4 30 26 30 12 0 19 -7 19 -20z" transform="translate(200.0,93.0) scale(-0.1,0.1)" stroke="none" fill="#4D3725"/>

</g>

</g>

</g>
<g id="row2" transform="translate(13,186.0)">
<g id="0" transform="translate(0.0,0)scale(1,1)">

<g transform="matrix(0.5,0,0,0.5,0,0)">

<path d="M465 864 c-99 -7 -201 -13 -226 -13 -42 -1 -47 -4 -62 -36 -13 -28 -22 -35 -46 -35 -36 0 -81 -49 -81 -88 0 -15 9 -42 21 -61 l20 -34 -22 -62 -22 -63 114 -195 113 -195 40 -6 c107 -14 407 -29 415 -20 14 14 221 376 221 385 0 5 -19 47 -42 93 l-42 85 22 39 c43 78 19 134 -59 134 -44 0 -47 1 -67 44 -25 52 -3 49 -297 28z m396 -104 c23 -13 25 -57 5 -85 -13 -18 -15 -15 -40 33 -14 28 -26 54 -26 57 0 9 40 5 61 -5z m-711 -9 c0 -5 -10 -35 -22 -66 -20 -52 -23 -55 -35 -39 -22 30 -16 70 13 93 29 22 44 27 44 12z m537 -87 c8 -21 -13 -42 -28 -27 -13 13 -5 43 11 43 6 0 13 -7 17 -16z m-347 -34 c0 -21 -33 -29 -45 -10 -9 15 4 30 26 30 12 0 19 -7 19 -20z" transform="translate(0,93.0) scale(0.1,-0.1)" stroke="none" fill="#4D3725"/>

<path d="M465 864 c-99 -7 -201 -13 -226 -13 -42 -1 -47 -4 -62 -36 -13 -28 -22 -35 -46 -35 -36 0 -81 -49 -81 -88 0 -15 9 -42 21 -61 l20 -34 -22 -62 -22 -63 114 -195 113 -195 40 -6 c107 -14 407 -29 415 -20 14 14 221 376 221 385 0 5 -19 47 -42 93 l-42 85 22 39 c43 78 19 134 -59 134 -44 0 -47 1 -67 44 -25 52 -3 49 -297 28z m396 -104 c23 -13 25 -57 5 -85 -13 -18 -15 -15 -40 33 -14 28 -26 54 -26 57 0 9 40 5 61 -5z m-711 -9 c0 -5 -10 -35 -22 -66 -20 -52 -23 -55 -35 -39 -22 30 -16 70 13 93 29 22 44 27 44 12z m537 -87 c8 -21 -13 -42 -28 -27 -13 13 -5 43 11 43 6 0 13 -7 17 -16z m-347 -34 c0 -21 -33 -29 -45 -10 -9 15 4 30 26 30 12 0 19 -7 19 -20z" transform="translate(200.0,93.0) scale(-0.1,-0.1)" stroke="none" fill="#4D3725"/>

<path d="M465 864 c-99 -7 -201 -13 -226 -13 -42 -1 -47 -4 -62 -36 -13 -28 -22 -35 -46 -35 -36 0 -81 -49 -81 -88 0 -15 9 -42 21 -61 l20 -34 -22 -62 -22 -63 114 -195 113 -195 40 -6 c107 -14 407 -29 415 -20 14 14 221 376 221 385 0 5 -19 47 -42 93 l-42 85 22 39 c43 78 19 134 -59 134 -44 0 -47 1 -67 44 -25 52 -3 49 -297 28z m396 -104 c23 -13 25 -57 5 -85 -13 -18 -15 -15 -40 33 -14 28 -26 54 -26 57 0 9 40 5 61 -5z m-711 -9 c0 -5 -10 -35 -22 -66 -20 -52 -23 -55 -35 -39 -22 30 -16 70 13 93 29 22 44 27 44 12z m537 -87 c8 -21 -13 -42 -28 -27 -13 13 -5 43 11 43 6 0 13 -7 17 -16z m-347 -34 c0 -21 -33 -29 -45 -10 -9 15 4 30 26 30 12 0 19 -7 19 -20z" transform="translate(0,93.0) scale(0.1,0.1)" stroke="none" fill="#4D3725"/>

<path d="M465 864 c-99 -7 -201 -13 -226 -13 -42 -1 -47 -4 -62 -36 -13 -28 -22 -35 -46 -35 -36 0 -81 -49 -81 -88 0 -15 9 -42 21 -61 l20 -34 -22 -62 -22 -63 114 -195 113 -195 40 -6 c107 -14 407 -29 415 -20 14 14 221 376 221 385 0 5 -19 47 -42 93 l-42 85 22 39 c43 78 19 134 -59 134 -44 0 -47 1 -67 44 -25 52 -3 49 -297 28z m396 -104 c23 -13 25 -57 5 -85 -13 -18 -15 -15 -40 33 -14 28 -26 54 -26 57 0 9 40 5 61 -5z m-711 -9 c0 -5 -10 -35 -22 -66 -20 -52 -23 -55 -35 -39 -22 30 -16 70 13 93 29 22 44 27 44 12z m537 -87 c8 -21 -13 -42 -28 -27 -13 13 -5 43 11 43 6 0 13 -7 17 -16z m-347 -34 c0 -21 -33 -29 -45 -10 -9 15 4 30 26 30 12 0 19 -7 19 -20z" transform="translate(200.0,93.0) scale(-0.1,0.1)" stroke="none" fill="#4D3725"/>

</g>

</g>

<g id="1" transform="translate(100.0,0)scale(1,1)">

<g transform="matrix(0.5,0,0,0.5,0,0)">

<path d="M465 864 c-99 -7 -201 -13 -226 -13 -42 -1 -47 -4 -62 -36 -13 -28 -22 -35 -46 -35 -36 0 -81 -49 -81 -88 0 -15 9 -42 21 -61 l20 -34 -22 -62 -22 -63 114 -195 113 -195 40 -6 c107 -14 407 -29 415 -20 14 14 221 376 221 385 0 5 -19 47 -42 93 l-42 85 22 39 c43 78 19 134 -59 134 -44 0 -47 1 -67 44 -25 52 -3 49 -297 28z m396 -104 c23 -13 25 -57 5 -85 -13 -18 -15 -15 -40 33 -14 28 -26 54 -26 57 0 9 40 5 61 -5z m-711 -9 c0 -5 -10 -35 -22 -66 -20 -52 -23 -55 -35 -39 -22 30 -16 70 13 93 29 22 44 27 44 12z m537 -87 c8 -21 -13 -42 -28 -27 -13 13 -5 43 11 43 6 0 13 -7 17 -16z m-347 -34 c0 -21 -33 -29 -45 -10 -9 15 4 30 26 30 12 0 19 -7 19 -20z" transform="translate(0,93.0) scale(0.1,-0.1)" stroke="none" fill="#4D3725"/>

<path d="M465 864 c-99 -7 -201 -13 -226 -13 -42 -1 -47 -4 -62 -36 -13 -28 -22 -35 -46 -35 -36 0 -81 -49 -81 -88 0 -15 9 -42 21 -61 l20 -34 -22 -62 -22 -63 114 -195 113 -195 40 -6 c107 -14 407 -29 415 -20 14 14 221 376 221 385 0 5 -19 47 -42 93 l-42 85 22 39 c43 78 19 134 -59 134 -44 0 -47 1 -67 44 -25 52 -3 49 -297 28z m396 -104 c23 -13 25 -57 5 -85 -13 -18 -15 -15 -40 33 -14 28 -26 54 -26 57 0 9 40 5 61 -5z m-711 -9 c0 -5 -10 -35 -22 -66 -20 -52 -23 -55 -35 -39 -22 30 -16 70 13 93 29 22 44 27 44 12z m537 -87 c8 -21 -13 -42 -28 -27 -13 13 -5 43 11 43 6 0 13 -7 17 -16z m-347 -34 c0 -21 -33 -29 -45 -10 -9 15 4 30 26 30 12 0 19 -7 19 -20z" transform="translate(200.0,93.0) scale(-0.1,-0.1)" stroke="none" fill="#4D3725"/>

<path d="M465 864 c-99 -7 -201 -13 -226 -13 -42 -1 -47 -4 -62 -36 -13 -28 -22 -35 -46 -35 -36 0 -81 -49 -81 -88 0 -15 9 -42 21 -61 l20 -34 -22 -62 -22 -63 114 -195 113 -195 40 -6 c107 -14 407 -29 415 -20 14 14 221 376 221 385 0 5 -19 47 -42 93 l-42 85 22 39 c43 78 19 134 -59 134 -44 0 -47 1 -67 44 -25 52 -3 49 -297 28z m396 -104 c23 -13 25 -57 5 -85 -13 -18 -15 -15 -40 33 -14 28 -26 54 -26 57 0 9 40 5 61 -5z m-711 -9 c0 -5 -10 -35 -22 -66 -20 -52 -23 -55 -35 -39 -22 30 -16 70 13 93 29 22 44 27 44 12z m537 -87 c8 -21 -13 -42 -28 -27 -13 13 -5 43 11 43 6 0 13 -7 17 -16z m-347 -34 c0 -21 -33 -29 -45 -10 -9 15 4 30 26 30 12 0 19 -7 19 -20z" transform="translate(0,93.0) scale(0.1,0.1)" stroke="none" fill="#4D3725"/>

<path d="M465 864 c-99 -7 -201 -13 -226 -13 -42 -1 -47 -4 -62 -36 -13 -28 -22 -35 -46 -35 -36 0 -81 -49 -81 -88 0 -15 9 -42 21 -61 l20 -34 -22 -62 -22 -63 114 -195 113 -195 40 -6 c107 -14 407 -29 415 -20 14 14 221 376 221 385 0 5 -19 47 -42 93 l-42 85 22 39 c43 78 19 134 -59 134 -44 0 -47 1 -67 44 -25 52 -3 49 -297 28z m396 -104 c23 -13 25 -57 5 -85 -13 -18 -15 -15 -40 33 -14 28 -26 54 -26 57 0 9 40 5 61 -5z m-711 -9 c0 -5 -10 -35 -22 -66 -20 -52 -23 -55 -35 -39 -22 30 -16 70 13 93 29 22 44 27 44 12z m537 -87 c8 -21 -13 -42 -28 -27 -13 13 -5 43 11 43 6 0 13 -7 17 -16z m-347 -34 c0 -21 -33 -29 -45 -10 -9 15 4 30 26 30 12 0 19 -7 19 -20z" transform="translate(200.0,93.0) scale(-0.1,0.1)" stroke="none" fill="#4D3725"/>

</g>

</g>

<g id="2" transform="translate(200.0,0)scale(1,1)">

<g transform="matrix(0.5,0,0,0.5,0,0)">

<path d="M465 864 c-99 -7 -201 -13 -226 -13 -42 -1 -47 -4 -62 -36 -13 -28 -22 -35 -46 -35 -36 0 -81 -49 -81 -88 0 -15 9 -42 21 -61 l20 -34 -22 -62 -22 -63 114 -195 113 -195 40 -6 c107 -14 407 -29 415 -20 14 14 221 376 221 385 0 5 -19 47 -42 93 l-42 85 22 39 c43 78 19 134 -59 134 -44 0 -47 1 -67 44 -25 52 -3 49 -297 28z m396 -104 c23 -13 25 -57 5 -85 -13 -18 -15 -15 -40 33 -14 28 -26 54 -26 57 0 9 40 5 61 -5z m-711 -9 c0 -5 -10 -35 -22 -66 -20 -52 -23 -55 -35 -39 -22 30 -16 70 13 93 29 22 44 27 44 12z m537 -87 c8 -21 -13 -42 -28 -27 -13 13 -5 43 11 43 6 0 13 -7 17 -16z m-347 -34 c0 -21 -33 -29 -45 -10 -9 15 4 30 26 30 12 0 19 -7 19 -20z" transform="translate(0,93.0) scale(0.1,-0.1)" stroke="none" fill="#4D3725"/>

<path d="M465 864 c-99 -7 -201 -13 -226 -13 -42 -1 -47 -4 -62 -36 -13 -28 -22 -35 -46 -35 -36 0 -81 -49 -81 -88 0 -15 9 -42 21 -61 l20 -34 -22 -62 -22 -63 114 -195 113 -195 40 -6 c107 -14 407 -29 415 -20 14 14 221 376 221 385 0 5 -19 47 -42 93 l-42 85 22 39 c43 78 19 134 -59 134 -44 0 -47 1 -67 44 -25 52 -3 49 -297 28z m396 -104 c23 -13 25 -57 5 -85 -13 -18 -15 -15 -40 33 -14 28 -26 54 -26 57 0 9 40 5 61 -5z m-711 -9 c0 -5 -10 -35 -22 -66 -20 -52 -23 -55 -35 -39 -22 30 -16 70 13 93 29 22 44 27 44 12z m537 -87 c8 -21 -13 -42 -28 -27 -13 13 -5 43 11 43 6 0 13 -7 17 -16z m-347 -34 c0 -21 -33 -29 -45 -10 -9 15 4 30 26 30 12 0 19 -7 19 -20z" transform="translate(200.0,93.0) scale(-0.1,-0.1)" stroke="none" fill="#4D3725"/>

<path d="M465 864 c-99 -7 -201 -13 -226 -13 -42 -1 -47 -4 -62 -36 -13 -28 -22 -35 -46 -35 -36 0 -81 -49 -81 -88 0 -15 9 -42 21 -61 l20 -34 -22 -62 -22 -63 114 -195 113 -195 40 -6 c107 -14 407 -29 415 -20 14 14 221 376 221 385 0 5 -19 47 -42 93 l-42 85 22 39 c43 78 19 134 -59 134 -44 0 -47 1 -67 44 -25 52 -3 49 -297 28z m396 -104 c23 -13 25 -57 5 -85 -13 -18 -15 -15 -40 33 -14 28 -26 54 -26 57 0 9 40 5 61 -5z m-711 -9 c0 -5 -10 -35 -22 -66 -20 -52 -23 -55 -35 -39 -22 30 -16 70 13 93 29 22 44 27 44 12z m537 -87 c8 -21 -13 -42 -28 -27 -13 13 -5 43 11 43 6 0 13 -7 17 -16z m-347 -34 c0 -21 -33 -29 -45 -10 -9 15 4 30 26 30 12 0 19 -7 19 -20z" transform="translate(0,93.0) scale(0.1,0.1)" stroke="none" fill="#4D3725"/>

<path d="M465 864 c-99 -7 -201 -13 -226 -13 -42 -1 -47 -4 -62 -36 -13 -28 -22 -35 -46 -35 -36 0 -81 -49 -81 -88 0 -15 9 -42 21 -61 l20 -34 -22 -62 -22 -63 114 -195 113 -195 40 -6 c107 -14 407 -29 415 -20 14 14 221 376 221 385 0 5 -19 47 -42 93 l-42 85 22 39 c43 78 19 134 -59 134 -44 0 -47 1 -67 44 -25 52 -3 49 -297 28z m396 -104 c23 -13 25 -57 5 -85 -13 -18 -15 -15 -40 33 -14 28 -26 54 -26 57 0 9 40 5 61 -5z m-711 -9 c0 -5 -10 -35 -22 -66 -20 -52 -23 -55 -35 -39 -22 30 -16 70 13 93 29 22 44 27 44 12z m537 -87 c8 -21 -13 -42 -28 -27 -13 13 -5 43 11 43 6 0 13 -7 17 -16z m-347 -34 c0 -21 -33 -29 -45 -10 -9 15 4 30 26 30 12 0 19 -7 19 -20z" transform="translate(200.0,93.0) scale(-0.1,0.1)" stroke="none" fill="#4D3725"/>

</g>

</g>

<g id="3" transform="translate(300.0,0)scale(1,1)">

<g transform="matrix(0.5,0,0,0.5,0,0)">

<path d="M465 864 c-99 -7 -201 -13 -226 -13 -42 -1 -47 -4 -62 -36 -13 -28 -22 -35 -46 -35 -36 0 -81 -49 -81 -88 0 -15 9 -42 21 -61 l20 -34 -22 -62 -22 -63 114 -195 113 -195 40 -6 c107 -14 407 -29 415 -20 14 14 221 376 221 385 0 5 -19 47 -42 93 l-42 85 22 39 c43 78 19 134 -59 134 -44 0 -47 1 -67 44 -25 52 -3 49 -297 28z m396 -104 c23 -13 25 -57 5 -85 -13 -18 -15 -15 -40 33 -14 28 -26 54 -26 57 0 9 40 5 61 -5z m-711 -9 c0 -5 -10 -35 -22 -66 -20 -52 -23 -55 -35 -39 -22 30 -16 70 13 93 29 22 44 27 44 12z m537 -87 c8 -21 -13 -42 -28 -27 -13 13 -5 43 11 43 6 0 13 -7 17 -16z m-347 -34 c0 -21 -33 -29 -45 -10 -9 15 4 30 26 30 12 0 19 -7 19 -20z" transform="translate(0,93.0) scale(0.1,-0.1)" stroke="none" fill="#4D3725"/>

<path d="M465 864 c-99 -7 -201 -13 -226 -13 -42 -1 -47 -4 -62 -36 -13 -28 -22 -35 -46 -35 -36 0 -81 -49 -81 -88 0 -15 9 -42 21 -61 l20 -34 -22 -62 -22 -63 114 -195 113 -195 40 -6 c107 -14 407 -29 415 -20 14 14 221 376 221 385 0 5 -19 47 -42 93 l-42 85 22 39 c43 78 19 134 -59 134 -44 0 -47 1 -67 44 -25 52 -3 49 -297 28z m396 -104 c23 -13 25 -57 5 -85 -13 -18 -15 -15 -40 33 -14 28 -26 54 -26 57 0 9 40 5 61 -5z m-711 -9 c0 -5 -10 -35 -22 -66 -20 -52 -23 -55 -35 -39 -22 30 -16 70 13 93 29 22 44 27 44 12z m537 -87 c8 -21 -13 -42 -28 -27 -13 13 -5 43 11 43 6 0 13 -7 17 -16z m-347 -34 c0 -21 -33 -29 -45 -10 -9 15 4 30 26 30 12 0 19 -7 19 -20z" transform="translate(200.0,93.0) scale(-0.1,-0.1)" stroke="none" fill="#4D3725"/>

<path d="M465 864 c-99 -7 -201 -13 -226 -13 -42 -1 -47 -4 -62 -36 -13 -28 -22 -35 -46 -35 -36 0 -81 -49 -81 -88 0 -15 9 -42 21 -61 l20 -34 -22 -62 -22 -63 114 -195 113 -195 40 -6 c107 -14 407 -29 415 -20 14 14 221 376 221 385 0 5 -19 47 -42 93 l-42 85 22 39 c43 78 19 134 -59 134 -44 0 -47 1 -67 44 -25 52 -3 49 -297 28z m396 -104 c23 -13 25 -57 5 -85 -13 -18 -15 -15 -40 33 -14 28 -26 54 -26 57 0 9 40 5 61 -5z m-711 -9 c0 -5 -10 -35 -22 -66 -20 -52 -23 -55 -35 -39 -22 30 -16 70 13 93 29 22 44 27 44 12z m537 -87 c8 -21 -13 -42 -28 -27 -13 13 -5 43 11 43 6 0 13 -7 17 -16z m-347 -34 c0 -21 -33 -29 -45 -10 -9 15 4 30 26 30 12 0 19 -7 19 -20z" transform="translate(0,93.0) scale(0.1,0.1)" stroke="none" fill="#4D3725"/>

<path d="M465 864 c-99 -7 -201 -13 -226 -13 -42 -1 -47 -4 -62 -36 -13 -28 -22 -35 -46 -35 -36 0 -81 -49 -81 -88 0 -15 9 -42 21 -61 l20 -34 -22 -62 -22 -63 114 -195 113 -195 40 -6 c107 -14 407 -29 415 -20 14 14 221 376 221 385 0 5 -19 47 -42 93 l-42 85 22 39 c43 78 19 134 -59 134 -44 0 -47 1 -67 44 -25 52 -3 49 -297 28z m396 -104 c23 -13 25 -57 5 -85 -13 -18 -15 -15 -40 33 -14 28 -26 54 -26 57 0 9 40 5 61 -5z m-711 -9 c0 -5 -10 -35 -22 -66 -20 -52 -23 -55 -35 -39 -22 30 -16 70 13 93 29 22 44 27 44 12z m537 -87 c8 -21 -13 -42 -28 -27 -13 13 -5 43 11 43 6 0 13 -7 17 -16z m-347 -34 c0 -21 -33 -29 -45 -10 -9 15 4 30 26 30 12 0 19 -7 19 -20z" transform="translate(200.0,93.0) scale(-0.1,0.1)" stroke="none" fill="#4D3725"/>

</g>

</g>

<g id="4" transform="translate(400.0,0)scale(1,1)">

<g transform="matrix(0.5,0,0,0.5,0,0)">

<path d="M465 864 c-99 -7 -201 -13 -226 -13 -42 -1 -47 -4 -62 -36 -13 -28 -22 -35 -46 -35 -36 0 -81 -49 -81 -88 0 -15 9 -42 21 -61 l20 -34 -22 -62 -22 -63 114 -195 113 -195 40 -6 c107 -14 407 -29 415 -20 14 14 221 376 221 385 0 5 -19 47 -42 93 l-42 85 22 39 c43 78 19 134 -59 134 -44 0 -47 1 -67 44 -25 52 -3 49 -297 28z m396 -104 c23 -13 25 -57 5 -85 -13 -18 -15 -15 -40 33 -14 28 -26 54 -26 57 0 9 40 5 61 -5z m-711 -9 c0 -5 -10 -35 -22 -66 -20 -52 -23 -55 -35 -39 -22 30 -16 70 13 93 29 22 44 27 44 12z m537 -87 c8 -21 -13 -42 -28 -27 -13 13 -5 43 11 43 6 0 13 -7 17 -16z m-347 -34 c0 -21 -33 -29 -45 -10 -9 15 4 30 26 30 12 0 19 -7 19 -20z" transform="translate(0,93.0) scale(0.1,-0.1)" stroke="none" fill="#4D3725"/>

<path d="M465 864 c-99 -7 -201 -13 -226 -13 -42 -1 -47 -4 -62 -36 -13 -28 -22 -35 -46 -35 -36 0 -81 -49 -81 -88 0 -15 9 -42 21 -61 l20 -34 -22 -62 -22 -63 114 -195 113 -195 40 -6 c107 -14 407 -29 415 -20 14 14 221 376 221 385 0 5 -19 47 -42 93 l-42 85 22 39 c43 78 19 134 -59 134 -44 0 -47 1 -67 44 -25 52 -3 49 -297 28z m396 -104 c23 -13 25 -57 5 -85 -13 -18 -15 -15 -40 33 -14 28 -26 54 -26 57 0 9 40 5 61 -5z m-711 -9 c0 -5 -10 -35 -22 -66 -20 -52 -23 -55 -35 -39 -22 30 -16 70 13 93 29 22 44 27 44 12z m537 -87 c8 -21 -13 -42 -28 -27 -13 13 -5 43 11 43 6 0 13 -7 17 -16z m-347 -34 c0 -21 -33 -29 -45 -10 -9 15 4 30 26 30 12 0 19 -7 19 -20z" transform="translate(200.0,93.0) scale(-0.1,-0.1)" stroke="none" fill="#4D3725"/>

<path d="M465 864 c-99 -7 -201 -13 -226 -13 -42 -1 -47 -4 -62 -36 -13 -28 -22 -35 -46 -35 -36 0 -81 -49 -81 -88 0 -15 9 -42 21 -61 l20 -34 -22 -62 -22 -63 114 -195 113 -195 40 -6 c107 -14 407 -29 415 -20 14 14 221 376 221 385 0 5 -19 47 -42 93 l-42 85 22 39 c43 78 19 134 -59 134 -44 0 -47 1 -67 44 -25 52 -3 49 -297 28z m396 -104 c23 -13 25 -57 5 -85 -13 -18 -15 -15 -40 33 -14 28 -26 54 -26 57 0 9 40 5 61 -5z m-711 -9 c0 -5 -10 -35 -22 -66 -20 -52 -23 -55 -35 -39 -22 30 -16 70 13 93 29 22 44 27 44 12z m537 -87 c8 -21 -13 -42 -28 -27 -13 13 -5 43 11 43 6 0 13 -7 17 -16z m-347 -34 c0 -21 -33 -29 -45 -10 -9 15 4 30 26 30 12 0 19 -7 19 -20z" transform="translate(0,93.0) scale(0.1,0.1)" stroke="none" fill="#4D3725"/>

<path d="M465 864 c-99 -7 -201 -13 -226 -13 -42 -1 -47 -4 -62 -36 -13 -28 -22 -35 -46 -35 -36 0 -81 -49 -81 -88 0 -15 9 -42 21 -61 l20 -34 -22 -62 -22 -63 114 -195 113 -195 40 -6 c107 -14 407 -29 415 -20 14 14 221 376 221 385 0 5 -19 47 -42 93 l-42 85 22 39 c43 78 19 134 -59 134 -44 0 -47 1 -67 44 -25 52 -3 49 -297 28z m396 -104 c23 -13 25 -57 5 -85 -13 -18 -15 -15 -40 33 -14 28 -26 54 -26 57 0 9 40 5 61 -5z m-711 -9 c0 -5 -10 -35 -22 -66 -20 -52 -23 -55 -35 -39 -22 30 -16 70 13 93 29 22 44 27 44 12z m537 -87 c8 -21 -13 -42 -28 -27 -13 13 -5 43 11 43 6 0 13 -7 17 -16z m-347 -34 c0 -21 -33 -29 -45 -10 -9 15 4 30 26 30 12 0 19 -7 19 -20z" transform="translate(200.0,93.0) scale(-0.1,0.1)" stroke="none" fill="#4D3725"/>

</g>

</g>

</g>
<g id="row3" transform="translate(13,279.0)">
<g id="0" transform="translate(0.0,0)scale(1,1)">

<g transform="matrix(0.5,0,0,0.5,0,0)">

<path d="M465 864 c-99 -7 -201 -13 -226 -13 -42 -1 -47 -4 -62 -36 -13 -28 -22 -35 -46 -35 -36 0 -81 -49 -81 -88 0 -15 9 -42 21 -61 l20 -34 -22 -62 -22 -63 114 -195 113 -195 40 -6 c107 -14 407 -29 415 -20 14 14 221 376 221 385 0 5 -19 47 -42 93 l-42 85 22 39 c43 78 19 134 -59 134 -44 0 -47 1 -67 44 -25 52 -3 49 -297 28z m396 -104 c23 -13 25 -57 5 -85 -13 -18 -15 -15 -40 33 -14 28 -26 54 -26 57 0 9 40 5 61 -5z m-711 -9 c0 -5 -10 -35 -22 -66 -20 -52 -23 -55 -35 -39 -22 30 -16 70 13 93 29 22 44 27 44 12z m537 -87 c8 -21 -13 -42 -28 -27 -13 13 -5 43 11 43 6 0 13 -7 17 -16z m-347 -34 c0 -21 -33 -29 -45 -10 -9 15 4 30 26 30 12 0 19 -7 19 -20z" transform="translate(0,93.0) scale(0.1,-0.1)" stroke="none" fill="#4D3725"/>

<path d="M465 864 c-99 -7 -201 -13 -226 -13 -42 -1 -47 -4 -62 -36 -13 -28 -22 -35 -46 -35 -36 0 -81 -49 -81 -88 0 -15 9 -42 21 -61 l20 -34 -22 -62 -22 -63 114 -195 113 -195 40 -6 c107 -14 407 -29 415 -20 14 14 221 376 221 385 0 5 -19 47 -42 93 l-42 85 22 39 c43 78 19 134 -59 134 -44 0 -47 1 -67 44 -25 52 -3 49 -297 28z m396 -104 c23 -13 25 -57 5 -85 -13 -18 -15 -15 -40 33 -14 28 -26 54 -26 57 0 9 40 5 61 -5z m-711 -9 c0 -5 -10 -35 -22 -66 -20 -52 -23 -55 -35 -39 -22 30 -16 70 13 93 29 22 44 27 44 12z m537 -87 c8 -21 -13 -42 -28 -27 -13 13 -5 43 11 43 6 0 13 -7 17 -16z m-347 -34 c0 -21 -33 -29 -45 -10 -9 15 4 30 26 30 12 0 19 -7 19 -20z" transform="translate(200.0,93.0) scale(-0.1,-0.1)" stroke="none" fill="#4D3725"/>

<path d="M465 864 c-99 -7 -201 -13 -226 -13 -42 -1 -47 -4 -62 -36 -13 -28 -22 -35 -46 -35 -36 0 -81 -49 -81 -88 0 -15 9 -42 21 -61 l20 -34 -22 -62 -22 -63 114 -195 113 -195 40 -6 c107 -14 407 -29 415 -20 14 14 221 376 221 385 0 5 -19 47 -42 93 l-42 85 22 39 c43 78 19 134 -59 134 -44 0 -47 1 -67 44 -25 52 -3 49 -297 28z m396 -104 c23 -13 25 -57 5 -85 -13 -18 -15 -15 -40 33 -14 28 -26 54 -26 57 0 9 40 5 61 -5z m-711 -9 c0 -5 -10 -35 -22 -66 -20 -52 -23 -55 -35 -39 -22 30 -16 70 13 93 29 22 44 27 44 12z m537 -87 c8 -21 -13 -42 -28 -27 -13 13 -5 43 11 43 6 0 13 -7 17 -16z m-347 -34 c0 -21 -33 -29 -45 -10 -9 15 4 30 26 30 12 0 19 -7 19 -20z" transform="translate(0,93.0) scale(0.1,0.1)" stroke="none" fill="#4D3725"/>

<path d="M465 864 c-99 -7 -201 -13 -226 -13 -42 -1 -47 -4 -62 -36 -13 -28 -22 -35 -46 -35 -36 0 -81 -49 -81 -88 0 -15 9 -42 21 -61 l20 -34 -22 -62 -22 -63 114 -195 113 -195 40 -6 c107 -14 407 -29 415 -20 14 14 221 376 221 385 0 5 -19 47 -42 93 l-42 85 22 39 c43 78 19 134 -59 134 -44 0 -47 1 -67 44 -25 52 -3 49 -297 28z m396 -104 c23 -13 25 -57 5 -85 -13 -18 -15 -15 -40 33 -14 28 -26 54 -26 57 0 9 40 5 61 -5z m-711 -9 c0 -5 -10 -35 -22 -66 -20 -52 -23 -55 -35 -39 -22 30 -16 70 13 93 29 22 44 27 44 12z m537 -87 c8 -21 -13 -42 -28 -27 -13 13 -5 43 11 43 6 0 13 -7 17 -16z m-347 -34 c0 -21 -33 -29 -45 -10 -9 15 4 30 26 30 12 0 19 -7 19 -20z" transform="translate(200.0,93.0) scale(-0.1,0.1)" stroke="none" fill="#4D3725"/>

</g>

</g>

<g id="1" transform="translate(100.0,0)scale(1,1)">

<g transform="matrix(0.5,0,0,0.5,0,0)">

<path d="M465 864 c-99 -7 -201 -13 -226 -13 -42 -1 -47 -4 -62 -36 -13 -28 -22 -35 -46 -35 -36 0 -81 -49 -81 -88 0 -15 9 -42 21 -61 l20 -34 -22 -62 -22 -63 114 -195 113 -195 40 -6 c107 -14 407 -29 415 -20 14 14 221 376 221 385 0 5 -19 47 -42 93 l-42 85 22 39 c43 78 19 134 -59 134 -44 0 -47 1 -67 44 -25 52 -3 49 -297 28z m396 -104 c23 -13 25 -57 5 -85 -13 -18 -15 -15 -40 33 -14 28 -26 54 -26 57 0 9 40 5 61 -5z m-711 -9 c0 -5 -10 -35 -22 -66 -20 -52 -23 -55 -35 -39 -22 30 -16 70 13 93 29 22 44 27 44 12z m537 -87 c8 -21 -13 -42 -28 -27 -13 13 -5 43 11 43 6 0 13 -7 17 -16z m-347 -34 c0 -21 -33 -29 -45 -10 -9 15 4 30 26 30 12 0 19 -7 19 -20z" transform="translate(0,93.0) scale(0.1,-0.1)" stroke="none" fill="#4D3725"/>

<path d="M465 864 c-99 -7 -201 -13 -226 -13 -42 -1 -47 -4 -62 -36 -13 -28 -22 -35 -46 -35 -36 0 -81 -49 -81 -88 0 -15 9 -42 21 -61 l20 -34 -22 -62 -22 -63 114 -195 113 -195 40 -6 c107 -14 407 -29 415 -20 14 14 221 376 221 385 0 5 -19 47 -42 93 l-42 85 22 39 c43 78 19 134 -59 134 -44 0 -47 1 -67 44 -25 52 -3 49 -297 28z m396 -104 c23 -13 25 -57 5 -85 -13 -18 -15 -15 -40 33 -14 28 -26 54 -26 57 0 9 40 5 61 -5z m-711 -9 c0 -5 -10 -35 -22 -66 -20 -52 -23 -55 -35 -39 -22 30 -16 70 13 93 29 22 44 27 44 12z m537 -87 c8 -21 -13 -42 -28 -27 -13 13 -5 43 11 43 6 0 13 -7 17 -16z m-347 -34 c0 -21 -33 -29 -45 -10 -9 15 4 30 26 30 12 0 19 -7 19 -20z" transform="translate(200.0,93.0) scale(-0.1,-0.1)" stroke="none" fill="#4D3725"/>

<path d="M465 864 c-99 -7 -201 -13 -226 -13 -42 -1 -47 -4 -62 -36 -13 -28 -22 -35 -46 -35 -36 0 -81 -49 -81 -88 0 -15 9 -42 21 -61 l20 -34 -22 -62 -22 -63 114 -195 113 -195 40 -6 c107 -14 407 -29 415 -20 14 14 221 376 221 385 0 5 -19 47 -42 93 l-42 85 22 39 c43 78 19 134 -59 134 -44 0 -47 1 -67 44 -25 52 -3 49 -297 28z m396 -104 c23 -13 25 -57 5 -85 -13 -18 -15 -15 -40 33 -14 28 -26 54 -26 57 0 9 40 5 61 -5z m-711 -9 c0 -5 -10 -35 -22 -66 -20 -52 -23 -55 -35 -39 -22 30 -16 70 13 93 29 22 44 27 44 12z m537 -87 c8 -21 -13 -42 -28 -27 -13 13 -5 43 11 43 6 0 13 -7 17 -16z m-347 -34 c0 -21 -33 -29 -45 -10 -9 15 4 30 26 30 12 0 19 -7 19 -20z" transform="translate(0,93.0) scale(0.1,0.1)" stroke="none" fill="#4D3725"/>

<path d="M465 864 c-99 -7 -201 -13 -226 -13 -42 -1 -47 -4 -62 -36 -13 -28 -22 -35 -46 -35 -36 0 -81 -49 -81 -88 0 -15 9 -42 21 -61 l20 -34 -22 -62 -22 -63 114 -195 113 -195 40 -6 c107 -14 407 -29 415 -20 14 14 221 376 221 385 0 5 -19 47 -42 93 l-42 85 22 39 c43 78 19 134 -59 134 -44 0 -47 1 -67 44 -25 52 -3 49 -297 28z m396 -104 c23 -13 25 -57 5 -85 -13 -18 -15 -15 -40 33 -14 28 -26 54 -26 57 0 9 40 5 61 -5z m-711 -9 c0 -5 -10 -35 -22 -66 -20 -52 -23 -55 -35 -39 -22 30 -16 70 13 93 29 22 44 27 44 12z m537 -87 c8 -21 -13 -42 -28 -27 -13 13 -5 43 11 43 6 0 13 -7 17 -16z m-347 -34 c0 -21 -33 -29 -45 -10 -9 15 4 30 26 30 12 0 19 -7 19 -20z" transform="translate(200.0,93.0) scale(-0.1,0.1)" stroke="none" fill="#4D3725"/>

</g>

</g>

<g id="2" transform="translate(200.0,0)scale(1,1)">

<g transform="matrix(0.5,0,0,0.5,0,0)">

<path d="M465 864 c-99 -7 -201 -13 -226 -13 -42 -1 -47 -4 -62 -36 -13 -28 -22 -35 -46 -35 -36 0 -81 -49 -81 -88 0 -15 9 -42 21 -61 l20 -34 -22 -62 -22 -63 114 -195 113 -195 40 -6 c107 -14 407 -29 415 -20 14 14 221 376 221 385 0 5 -19 47 -42 93 l-42 85 22 39 c43 78 19 134 -59 134 -44 0 -47 1 -67 44 -25 52 -3 49 -297 28z m396 -104 c23 -13 25 -57 5 -85 -13 -18 -15 -15 -40 33 -14 28 -26 54 -26 57 0 9 40 5 61 -5z m-711 -9 c0 -5 -10 -35 -22 -66 -20 -52 -23 -55 -35 -39 -22 30 -16 70 13 93 29 22 44 27 44 12z m537 -87 c8 -21 -13 -42 -28 -27 -13 13 -5 43 11 43 6 0 13 -7 17 -16z m-347 -34 c0 -21 -33 -29 -45 -10 -9 15 4 30 26 30 12 0 19 -7 19 -20z" transform="translate(0,93.0) scale(0.1,-0.1)" stroke="none" fill="#4D3725"/>

<path d="M465 864 c-99 -7 -201 -13 -226 -13 -42 -1 -47 -4 -62 -36 -13 -28 -22 -35 -46 -35 -36 0 -81 -49 -81 -88 0 -15 9 -42 21 -61 l20 -34 -22 -62 -22 -63 114 -195 113 -195 40 -6 c107 -14 407 -29 415 -20 14 14 221 376 221 385 0 5 -19 47 -42 93 l-42 85 22 39 c43 78 19 134 -59 134 -44 0 -47 1 -67 44 -25 52 -3 49 -297 28z m396 -104 c23 -13 25 -57 5 -85 -13 -18 -15 -15 -40 33 -14 28 -26 54 -26 57 0 9 40 5 61 -5z m-711 -9 c0 -5 -10 -35 -22 -66 -20 -52 -23 -55 -35 -39 -22 30 -16 70 13 93 29 22 44 27 44 12z m537 -87 c8 -21 -13 -42 -28 -27 -13 13 -5 43 11 43 6 0 13 -7 17 -16z m-347 -34 c0 -21 -33 -29 -45 -10 -9 15 4 30 26 30 12 0 19 -7 19 -20z" transform="translate(200.0,93.0) scale(-0.1,-0.1)" stroke="none" fill="#4D3725"/>

<path d="M465 864 c-99 -7 -201 -13 -226 -13 -42 -1 -47 -4 -62 -36 -13 -28 -22 -35 -46 -35 -36 0 -81 -49 -81 -88 0 -15 9 -42 21 -61 l20 -34 -22 -62 -22 -63 114 -195 113 -195 40 -6 c107 -14 407 -29 415 -20 14 14 221 376 221 385 0 5 -19 47 -42 93 l-42 85 22 39 c43 78 19 134 -59 134 -44 0 -47 1 -67 44 -25 52 -3 49 -297 28z m396 -104 c23 -13 25 -57 5 -85 -13 -18 -15 -15 -40 33 -14 28 -26 54 -26 57 0 9 40 5 61 -5z m-711 -9 c0 -5 -10 -35 -22 -66 -20 -52 -23 -55 -35 -39 -22 30 -16 70 13 93 29 22 44 27 44 12z m537 -87 c8 -21 -13 -42 -28 -27 -13 13 -5 43 11 43 6 0 13 -7 17 -16z m-347 -34 c0 -21 -33 -29 -45 -10 -9 15 4 30 26 30 12 0 19 -7 19 -20z" transform="translate(0,93.0) scale(0.1,0.1)" stroke="none" fill="#4D3725"/>

<path d="M465 864 c-99 -7 -201 -13 -226 -13 -42 -1 -47 -4 -62 -36 -13 -28 -22 -35 -46 -35 -36 0 -81 -49 -81 -88 0 -15 9 -42 21 -61 l20 -34 -22 -62 -22 -63 114 -195 113 -195 40 -6 c107 -14 407 -29 415 -20 14 14 221 376 221 385 0 5 -19 47 -42 93 l-42 85 22 39 c43 78 19 134 -59 134 -44 0 -47 1 -67 44 -25 52 -3 49 -297 28z m396 -104 c23 -13 25 -57 5 -85 -13 -18 -15 -15 -40 33 -14 28 -26 54 -26 57 0 9 40 5 61 -5z m-711 -9 c0 -5 -10 -35 -22 -66 -20 -52 -23 -55 -35 -39 -22 30 -16 70 13 93 29 22 44 27 44 12z m537 -87 c8 -21 -13 -42 -28 -27 -13 13 -5 43 11 43 6 0 13 -7 17 -16z m-347 -34 c0 -21 -33 -29 -45 -10 -9 15 4 30 26 30 12 0 19 -7 19 -20z" transform="translate(200.0,93.0) scale(-0.1,0.1)" stroke="none" fill="#4D3725"/>

</g>

</g>

<g id="3" transform="translate(300.0,0)scale(1,1)">

<g transform="matrix(0.5,0,0,0.5,0,0)">

<path d="M465 864 c-99 -7 -201 -13 -226 -13 -42 -1 -47 -4 -62 -36 -13 -28 -22 -35 -46 -35 -36 0 -81 -49 -81 -88 0 -15 9 -42 21 -61 l20 -34 -22 -62 -22 -63 114 -195 113 -195 40 -6 c107 -14 407 -29 415 -20 14 14 221 376 221 385 0 5 -19 47 -42 93 l-42 85 22 39 c43 78 19 134 -59 134 -44 0 -47 1 -67 44 -25 52 -3 49 -297 28z m396 -104 c23 -13 25 -57 5 -85 -13 -18 -15 -15 -40 33 -14 28 -26 54 -26 57 0 9 40 5 61 -5z m-711 -9 c0 -5 -10 -35 -22 -66 -20 -52 -23 -55 -35 -39 -22 30 -16 70 13 93 29 22 44 27 44 12z m537 -87 c8 -21 -13 -42 -28 -27 -13 13 -5 43 11 43 6 0 13 -7 17 -16z m-347 -34 c0 -21 -33 -29 -45 -10 -9 15 4 30 26 30 12 0 19 -7 19 -20z" transform="translate(0,93.0) scale(0.1,-0.1)" stroke="none" fill="#4D3725"/>

<path d="M465 864 c-99 -7 -201 -13 -226 -13 -42 -1 -47 -4 -62 -36 -13 -28 -22 -35 -46 -35 -36 0 -81 -49 -81 -88 0 -15 9 -42 21 -61 l20 -34 -22 -62 -22 -63 114 -195 113 -195 40 -6 c107 -14 407 -29 415 -20 14 14 221 376 221 385 0 5 -19 47 -42 93 l-42 85 22 39 c43 78 19 134 -59 134 -44 0 -47 1 -67 44 -25 52 -3 49 -297 28z m396 -104 c23 -13 25 -57 5 -85 -13 -18 -15 -15 -40 33 -14 28 -26 54 -26 57 0 9 40 5 61 -5z m-711 -9 c0 -5 -10 -35 -22 -66 -20 -52 -23 -55 -35 -39 -22 30 -16 70 13 93 29 22 44 27 44 12z m537 -87 c8 -21 -13 -42 -28 -27 -13 13 -5 43 11 43 6 0 13 -7 17 -16z m-347 -34 c0 -21 -33 -29 -45 -10 -9 15 4 30 26 30 12 0 19 -7 19 -20z" transform="translate(200.0,93.0) scale(-0.1,-0.1)" stroke="none" fill="#4D3725"/>

<path d="M465 864 c-99 -7 -201 -13 -226 -13 -42 -1 -47 -4 -62 -36 -13 -28 -22 -35 -46 -35 -36 0 -81 -49 -81 -88 0 -15 9 -42 21 -61 l20 -34 -22 -62 -22 -63 114 -195 113 -195 40 -6 c107 -14 407 -29 415 -20 14 14 221 376 221 385 0 5 -19 47 -42 93 l-42 85 22 39 c43 78 19 134 -59 134 -44 0 -47 1 -67 44 -25 52 -3 49 -297 28z m396 -104 c23 -13 25 -57 5 -85 -13 -18 -15 -15 -40 33 -14 28 -26 54 -26 57 0 9 40 5 61 -5z m-711 -9 c0 -5 -10 -35 -22 -66 -20 -52 -23 -55 -35 -39 -22 30 -16 70 13 93 29 22 44 27 44 12z m537 -87 c8 -21 -13 -42 -28 -27 -13 13 -5 43 11 43 6 0 13 -7 17 -16z m-347 -34 c0 -21 -33 -29 -45 -10 -9 15 4 30 26 30 12 0 19 -7 19 -20z" transform="translate(0,93.0) scale(0.1,0.1)" stroke="none" fill="#4D3725"/>

<path d="M465 864 c-99 -7 -201 -13 -226 -13 -42 -1 -47 -4 -62 -36 -13 -28 -22 -35 -46 -35 -36 0 -81 -49 -81 -88 0 -15 9 -42 21 -61 l20 -34 -22 -62 -22 -63 114 -195 113 -195 40 -6 c107 -14 407 -29 415 -20 14 14 221 376 221 385 0 5 -19 47 -42 93 l-42 85 22 39 c43 78 19 134 -59 134 -44 0 -47 1 -67 44 -25 52 -3 49 -297 28z m396 -104 c23 -13 25 -57 5 -85 -13 -18 -15 -15 -40 33 -14 28 -26 54 -26 57 0 9 40 5 61 -5z m-711 -9 c0 -5 -10 -35 -22 -66 -20 -52 -23 -55 -35 -39 -22 30 -16 70 13 93 29 22 44 27 44 12z m537 -87 c8 -21 -13 -42 -28 -27 -13 13 -5 43 11 43 6 0 13 -7 17 -16z m-347 -34 c0 -21 -33 -29 -45 -10 -9 15 4 30 26 30 12 0 19 -7 19 -20z" transform="translate(200.0,93.0) scale(-0.1,0.1)" stroke="none" fill="#4D3725"/>

</g>

</g>

<g id="4" transform="translate(400.0,0)scale(1,1)">

<g transform="matrix(0.5,0,0,0.5,0,0)">

<path d="M465 864 c-99 -7 -201 -13 -226 -13 -42 -1 -47 -4 -62 -36 -13 -28 -22 -35 -46 -35 -36 0 -81 -49 -81 -88 0 -15 9 -42 21 -61 l20 -34 -22 -62 -22 -63 114 -195 113 -195 40 -6 c107 -14 407 -29 415 -20 14 14 221 376 221 385 0 5 -19 47 -42 93 l-42 85 22 39 c43 78 19 134 -59 134 -44 0 -47 1 -67 44 -25 52 -3 49 -297 28z m396 -104 c23 -13 25 -57 5 -85 -13 -18 -15 -15 -40 33 -14 28 -26 54 -26 57 0 9 40 5 61 -5z m-711 -9 c0 -5 -10 -35 -22 -66 -20 -52 -23 -55 -35 -39 -22 30 -16 70 13 93 29 22 44 27 44 12z m537 -87 c8 -21 -13 -42 -28 -27 -13 13 -5 43 11 43 6 0 13 -7 17 -16z m-347 -34 c0 -21 -33 -29 -45 -10 -9 15 4 30 26 30 12 0 19 -7 19 -20z" transform="translate(0,93.0) scale(0.1,-0.1)" stroke="none" fill="#4D3725"/>

<path d="M465 864 c-99 -7 -201 -13 -226 -13 -42 -1 -47 -4 -62 -36 -13 -28 -22 -35 -46 -35 -36 0 -81 -49 -81 -88 0 -15 9 -42 21 -61 l20 -34 -22 -62 -22 -63 114 -195 113 -195 40 -6 c107 -14 407 -29 415 -20 14 14 221 376 221 385 0 5 -19 47 -42 93 l-42 85 22 39 c43 78 19 134 -59 134 -44 0 -47 1 -67 44 -25 52 -3 49 -297 28z m396 -104 c23 -13 25 -57 5 -85 -13 -18 -15 -15 -40 33 -14 28 -26 54 -26 57 0 9 40 5 61 -5z m-711 -9 c0 -5 -10 -35 -22 -66 -20 -52 -23 -55 -35 -39 -22 30 -16 70 13 93 29 22 44 27 44 12z m537 -87 c8 -21 -13 -42 -28 -27 -13 13 -5 43 11 43 6 0 13 -7 17 -16z m-347 -34 c0 -21 -33 -29 -45 -10 -9 15 4 30 26 30 12 0 19 -7 19 -20z" transform="translate(200.0,93.0) scale(-0.1,-0.1)" stroke="none" fill="#4D3725"/>

<path d="M465 864 c-99 -7 -201 -13 -226 -13 -42 -1 -47 -4 -62 -36 -13 -28 -22 -35 -46 -35 -36 0 -81 -49 -81 -88 0 -15 9 -42 21 -61 l20 -34 -22 -62 -22 -63 114 -195 113 -195 40 -6 c107 -14 407 -29 415 -20 14 14 221 376 221 385 0 5 -19 47 -42 93 l-42 85 22 39 c43 78 19 134 -59 134 -44 0 -47 1 -67 44 -25 52 -3 49 -297 28z m396 -104 c23 -13 25 -57 5 -85 -13 -18 -15 -15 -40 33 -14 28 -26 54 -26 57 0 9 40 5 61 -5z m-711 -9 c0 -5 -10 -35 -22 -66 -20 -52 -23 -55 -35 -39 -22 30 -16 70 13 93 29 22 44 27 44 12z m537 -87 c8 -21 -13 -42 -28 -27 -13 13 -5 43 11 43 6 0 13 -7 17 -16z m-347 -34 c0 -21 -33 -29 -45 -10 -9 15 4 30 26 30 12 0 19 -7 19 -20z" transform="translate(0,93.0) scale(0.1,0.1)" stroke="none" fill="#4D3725"/>

<path d="M465 864 c-99 -7 -201 -13 -226 -13 -42 -1 -47 -4 -62 -36 -13 -28 -22 -35 -46 -35 -36 0 -81 -49 -81 -88 0 -15 9 -42 21 -61 l20 -34 -22 -62 -22 -63 114 -195 113 -195 40 -6 c107 -14 407 -29 415 -20 14 14 221 376 221 385 0 5 -19 47 -42 93 l-42 85 22 39 c43 78 19 134 -59 134 -44 0 -47 1 -67 44 -25 52 -3 49 -297 28z m396 -104 c23 -13 25 -57 5 -85 -13 -18 -15 -15 -40 33 -14 28 -26 54 -26 57 0 9 40 5 61 -5z m-711 -9 c0 -5 -10 -35 -22 -66 -20 -52 -23 -55 -35 -39 -22 30 -16 70 13 93 29 22 44 27 44 12z m537 -87 c8 -21 -13 -42 -28 -27 -13 13 -5 43 11 43 6 0 13 -7 17 -16z m-347 -34 c0 -21 -33 -29 -45 -10 -9 15 4 30 26 30 12 0 19 -7 19 -20z" transform="translate(200.0,93.0) scale(-0.1,0.1)" stroke="none" fill="#4D3725"/>

</g>

</g>

</g>
</svg>