<?xml version="1.0" standalone="no"?>
<!DOCTYPE svg PUBLIC "-//W3C//DTD SVG 20010904//EN"
 "http://www.w3.org/TR/2001/REC-SVG-20010904/DTD/svg10.dtd">
<svg version="1.0" xmlns="http://www.w3.org/2000/svg" 
width="82.000000pt" height="70.000000pt" viewBox="0 0 82.000000 70.000000"
preserveAspectRatio = "xMidYMid meet" >
<metadata>
Created by ZoeQU, 2022
</metadata>
<rect width="82.000000" height="70.000000" fill="#3A4B4E"/>
<path d="M132 673 c-30 -6 -46 -37 -32 -63 9 -17 19 -20 53 -17 34 3 43 8 45 26 3 21 -23 63 -37 60 -3 -1 -16 -4 -29 -6z" transform="translate(0.000000,70.000000) scale(0.100000,-0.100000)" stroke="none" fill="#AE7449"/>

<path d="M95 570 c5 -14 -4 -37 -26 -71 -57 -89 -52 -215 12 -303 33 -45 150 -132 191 -141 15 -4 28 -10 28 -14 0 -13 197 -33 217 -23 10 5 35 12 56 15 47 7 139 49 169 76 12 12 27 21 34 21 19 0 27 62 9 73 -8 4 -15 21 -15 37 0 35 -30 47 -83 35 -17 -5 -81 -9 -142 -9 -97 -1 -116 2 -158 23 -26 13 -55 34 -64 47 -8 13 -21 24 -29 24 -20 0 -46 45 -74 130 -21 62 -28 74 -38 63 -7 -7 -9 -13 -4 -13 4 0 16 -24 25 -53 21 -65 75 -152 109 -175 14 -9 37 -25 52 -36 14 -10 43 -22 63 -26 37 -9 231 2 285 16 24 5 29 2 39 -22 6 -16 15 -37 20 -46 14 -27 3 -41 -64 -84 -68 -44 -178 -84 -232 -84 -56 0 -135 21 -214 55 -188 83 -258 239 -181 402 17 34 30 69 30 77 0 8 8 17 18 19 10 3 6 5 -11 6 -24 1 -27 -2 -22 -19z" transform="translate(0.000000,70.000000) scale(0.100000,-0.100000)" stroke="none" fill="#8798A2"/>

<path d="M174 581 c4 -6 3 -17 -2 -24 -19 -24 2 -125 39 -187 5 -8 14 -27 20 -42 8 -20 20 -29 45 -34 19 -3 32 -10 29 -14 -8 -13 41 -47 81 -54 73 -14 300 -9 321 7 20 14 40 1 46 -29 7 -38 -44 -84 -131 -119 -125 -50 -208 -44 -357 25 -136 63 -195 140 -195 250 0 34 5 71 12 83 19 37 47 137 37 137 -5 0 -9 -7 -9 -15 0 -8 -13 -44 -30 -78 -77 -163 -7 -319 181 -402 79 -34 158 -55 214 -55 54 0 164 40 232 84 67 43 78 57 64 84 -5 9 -14 30 -20 46 -10 24 -15 27 -39 22 -54 -14 -248 -25 -285 -16 -20 4 -49 16 -63 26 -15 11 -38 27 -52 36 -33 22 -87 107 -108 172 -9 28 -22 54 -28 58 -8 5 -7 8 2 8 15 0 16 26 0 36 -7 4 -8 3 -4 -5z" transform="translate(0.000000,70.000000) scale(0.100000,-0.100000)" stroke="none" fill="#356876"/>

<path d="M141 581 c-23 -15 -63 -140 -68 -212 -4 -54 -1 -75 17 -108 31 -62 86 -109 175 -151 149 -69 232 -75 357 -25 87 35 138 81 131 119 -6 30 -26 43 -46 29 -21 -16 -248 -21 -321 -7 -40 7 -89 41 -81 54 3 4 -10 11 -29 14 -25 5 -37 14 -45 34 -6 15 -15 34 -20 42 -37 62 -58 163 -39 187 10 12 3 33 -10 33 -4 0 -13 -4 -21 -9z" transform="translate(0.000000,70.000000) scale(0.100000,-0.100000)" stroke="none" fill="#2B3030"/>

</svg>