<?xml version="1.0" standalone="no"?>
<!DOCTYPE svg PUBLIC "-//W3C//DTD SVG 20010904//EN"
 "http://www.w3.org/TR/2001/REC-SVG-20010904/DTD/svg10.dtd">
<svg version="1.0" xmlns="http://www.w3.org/2000/svg" 
width="400" height="400" viewBox="0 0 400 400"
preserveAspectRatio = "xMidYMid meet" >
<metadata>
Created by ZoeQu, written in 2022
</metadata>

<g id="row0" transform="translate(0,0.0)">

<g id="0" transform="translate(0,0)scale(1,1)">


<rect x="0" y="0" width="24" height="100" fill="#936C3F"/>

<rect x="24" y="0" width="18" height="100" fill="#F3A181"/>

<rect x="42" y="0" width="58" height="100" fill="#D9D6A4"/>

<g transform = "rotate(90, 50, 50)" fill-opacity="0.7">

<rect x="0" y="0" width="18" height="100" fill="#936C3F"/>

<rect x="18" y="0" width="47" height="100" fill="#F3A181"/>

<rect x="65" y="0" width="35" height="100" fill="#D9D6A4"/>

</g>

</g>


<g id="1" transform="translate(100,0)scale(1,1)">


<rect x="0" y="0" width="24" height="100" fill="#936C3F"/>

<rect x="24" y="0" width="18" height="100" fill="#F3A181"/>

<rect x="42" y="0" width="58" height="100" fill="#D9D6A4"/>

<g transform = "rotate(90, 50, 50)" fill-opacity="0.7">

<rect x="0" y="0" width="18" height="100" fill="#936C3F"/>

<rect x="18" y="0" width="47" height="100" fill="#F3A181"/>

<rect x="65" y="0" width="35" height="100" fill="#D9D6A4"/>

</g>

</g>


<g id="2" transform="translate(200,0)scale(1,1)">


<rect x="0" y="0" width="24" height="100" fill="#936C3F"/>

<rect x="24" y="0" width="18" height="100" fill="#F3A181"/>

<rect x="42" y="0" width="58" height="100" fill="#D9D6A4"/>

<g transform = "rotate(90, 50, 50)" fill-opacity="0.7">

<rect x="0" y="0" width="18" height="100" fill="#936C3F"/>

<rect x="18" y="0" width="47" height="100" fill="#F3A181"/>

<rect x="65" y="0" width="35" height="100" fill="#D9D6A4"/>

</g>

</g>


<g id="3" transform="translate(300,0)scale(1,1)">


<rect x="0" y="0" width="24" height="100" fill="#936C3F"/>

<rect x="24" y="0" width="18" height="100" fill="#F3A181"/>

<rect x="42" y="0" width="58" height="100" fill="#D9D6A4"/>

<g transform = "rotate(90, 50, 50)" fill-opacity="0.7">

<rect x="0" y="0" width="18" height="100" fill="#936C3F"/>

<rect x="18" y="0" width="47" height="100" fill="#F3A181"/>

<rect x="65" y="0" width="35" height="100" fill="#D9D6A4"/>

</g>

</g>


<g id="4" transform="translate(400,0)scale(1,1)">


<rect x="0" y="0" width="24" height="100" fill="#936C3F"/>

<rect x="24" y="0" width="18" height="100" fill="#F3A181"/>

<rect x="42" y="0" width="58" height="100" fill="#D9D6A4"/>

<g transform = "rotate(90, 50, 50)" fill-opacity="0.7">

<rect x="0" y="0" width="18" height="100" fill="#936C3F"/>

<rect x="18" y="0" width="47" height="100" fill="#F3A181"/>

<rect x="65" y="0" width="35" height="100" fill="#D9D6A4"/>

</g>

</g>


</g>

<g id="row1" transform="translate(0,100.0)">

<g id="0" transform="translate(0,0)scale(1,1)">


<rect x="0" y="0" width="24" height="100" fill="#936C3F"/>

<rect x="24" y="0" width="18" height="100" fill="#F3A181"/>

<rect x="42" y="0" width="58" height="100" fill="#D9D6A4"/>

<g transform = "rotate(90, 50, 50)" fill-opacity="0.7">

<rect x="0" y="0" width="18" height="100" fill="#936C3F"/>

<rect x="18" y="0" width="47" height="100" fill="#F3A181"/>

<rect x="65" y="0" width="35" height="100" fill="#D9D6A4"/>

</g>

</g>


<g id="1" transform="translate(100,0)scale(1,1)">


<rect x="0" y="0" width="24" height="100" fill="#936C3F"/>

<rect x="24" y="0" width="18" height="100" fill="#F3A181"/>

<rect x="42" y="0" width="58" height="100" fill="#D9D6A4"/>

<g transform = "rotate(90, 50, 50)" fill-opacity="0.7">

<rect x="0" y="0" width="18" height="100" fill="#936C3F"/>

<rect x="18" y="0" width="47" height="100" fill="#F3A181"/>

<rect x="65" y="0" width="35" height="100" fill="#D9D6A4"/>

</g>

</g>


<g id="2" transform="translate(200,0)scale(1,1)">


<rect x="0" y="0" width="24" height="100" fill="#936C3F"/>

<rect x="24" y="0" width="18" height="100" fill="#F3A181"/>

<rect x="42" y="0" width="58" height="100" fill="#D9D6A4"/>

<g transform = "rotate(90, 50, 50)" fill-opacity="0.7">

<rect x="0" y="0" width="18" height="100" fill="#936C3F"/>

<rect x="18" y="0" width="47" height="100" fill="#F3A181"/>

<rect x="65" y="0" width="35" height="100" fill="#D9D6A4"/>

</g>

</g>


<g id="3" transform="translate(300,0)scale(1,1)">


<rect x="0" y="0" width="24" height="100" fill="#936C3F"/>

<rect x="24" y="0" width="18" height="100" fill="#F3A181"/>

<rect x="42" y="0" width="58" height="100" fill="#D9D6A4"/>

<g transform = "rotate(90, 50, 50)" fill-opacity="0.7">

<rect x="0" y="0" width="18" height="100" fill="#936C3F"/>

<rect x="18" y="0" width="47" height="100" fill="#F3A181"/>

<rect x="65" y="0" width="35" height="100" fill="#D9D6A4"/>

</g>

</g>


<g id="4" transform="translate(400,0)scale(1,1)">


<rect x="0" y="0" width="24" height="100" fill="#936C3F"/>

<rect x="24" y="0" width="18" height="100" fill="#F3A181"/>

<rect x="42" y="0" width="58" height="100" fill="#D9D6A4"/>

<g transform = "rotate(90, 50, 50)" fill-opacity="0.7">

<rect x="0" y="0" width="18" height="100" fill="#936C3F"/>

<rect x="18" y="0" width="47" height="100" fill="#F3A181"/>

<rect x="65" y="0" width="35" height="100" fill="#D9D6A4"/>

</g>

</g>


</g>

<g id="row2" transform="translate(0,200.0)">

<g id="0" transform="translate(0,0)scale(1,1)">


<rect x="0" y="0" width="24" height="100" fill="#936C3F"/>

<rect x="24" y="0" width="18" height="100" fill="#F3A181"/>

<rect x="42" y="0" width="58" height="100" fill="#D9D6A4"/>

<g transform = "rotate(90, 50, 50)" fill-opacity="0.7">

<rect x="0" y="0" width="18" height="100" fill="#936C3F"/>

<rect x="18" y="0" width="47" height="100" fill="#F3A181"/>

<rect x="65" y="0" width="35" height="100" fill="#D9D6A4"/>

</g>

</g>


<g id="1" transform="translate(100,0)scale(1,1)">


<rect x="0" y="0" width="24" height="100" fill="#936C3F"/>

<rect x="24" y="0" width="18" height="100" fill="#F3A181"/>

<rect x="42" y="0" width="58" height="100" fill="#D9D6A4"/>

<g transform = "rotate(90, 50, 50)" fill-opacity="0.7">

<rect x="0" y="0" width="18" height="100" fill="#936C3F"/>

<rect x="18" y="0" width="47" height="100" fill="#F3A181"/>

<rect x="65" y="0" width="35" height="100" fill="#D9D6A4"/>

</g>

</g>


<g id="2" transform="translate(200,0)scale(1,1)">


<rect x="0" y="0" width="24" height="100" fill="#936C3F"/>

<rect x="24" y="0" width="18" height="100" fill="#F3A181"/>

<rect x="42" y="0" width="58" height="100" fill="#D9D6A4"/>

<g transform = "rotate(90, 50, 50)" fill-opacity="0.7">

<rect x="0" y="0" width="18" height="100" fill="#936C3F"/>

<rect x="18" y="0" width="47" height="100" fill="#F3A181"/>

<rect x="65" y="0" width="35" height="100" fill="#D9D6A4"/>

</g>

</g>


<g id="3" transform="translate(300,0)scale(1,1)">


<rect x="0" y="0" width="24" height="100" fill="#936C3F"/>

<rect x="24" y="0" width="18" height="100" fill="#F3A181"/>

<rect x="42" y="0" width="58" height="100" fill="#D9D6A4"/>

<g transform = "rotate(90, 50, 50)" fill-opacity="0.7">

<rect x="0" y="0" width="18" height="100" fill="#936C3F"/>

<rect x="18" y="0" width="47" height="100" fill="#F3A181"/>

<rect x="65" y="0" width="35" height="100" fill="#D9D6A4"/>

</g>

</g>


<g id="4" transform="translate(400,0)scale(1,1)">


<rect x="0" y="0" width="24" height="100" fill="#936C3F"/>

<rect x="24" y="0" width="18" height="100" fill="#F3A181"/>

<rect x="42" y="0" width="58" height="100" fill="#D9D6A4"/>

<g transform = "rotate(90, 50, 50)" fill-opacity="0.7">

<rect x="0" y="0" width="18" height="100" fill="#936C3F"/>

<rect x="18" y="0" width="47" height="100" fill="#F3A181"/>

<rect x="65" y="0" width="35" height="100" fill="#D9D6A4"/>

</g>

</g>


</g>

<g id="row3" transform="translate(0,300.0)">

<g id="0" transform="translate(0,0)scale(1,1)">


<rect x="0" y="0" width="24" height="100" fill="#936C3F"/>

<rect x="24" y="0" width="18" height="100" fill="#F3A181"/>

<rect x="42" y="0" width="58" height="100" fill="#D9D6A4"/>

<g transform = "rotate(90, 50, 50)" fill-opacity="0.7">

<rect x="0" y="0" width="18" height="100" fill="#936C3F"/>

<rect x="18" y="0" width="47" height="100" fill="#F3A181"/>

<rect x="65" y="0" width="35" height="100" fill="#D9D6A4"/>

</g>

</g>


<g id="1" transform="translate(100,0)scale(1,1)">


<rect x="0" y="0" width="24" height="100" fill="#936C3F"/>

<rect x="24" y="0" width="18" height="100" fill="#F3A181"/>

<rect x="42" y="0" width="58" height="100" fill="#D9D6A4"/>

<g transform = "rotate(90, 50, 50)" fill-opacity="0.7">

<rect x="0" y="0" width="18" height="100" fill="#936C3F"/>

<rect x="18" y="0" width="47" height="100" fill="#F3A181"/>

<rect x="65" y="0" width="35" height="100" fill="#D9D6A4"/>

</g>

</g>


<g id="2" transform="translate(200,0)scale(1,1)">


<rect x="0" y="0" width="24" height="100" fill="#936C3F"/>

<rect x="24" y="0" width="18" height="100" fill="#F3A181"/>

<rect x="42" y="0" width="58" height="100" fill="#D9D6A4"/>

<g transform = "rotate(90, 50, 50)" fill-opacity="0.7">

<rect x="0" y="0" width="18" height="100" fill="#936C3F"/>

<rect x="18" y="0" width="47" height="100" fill="#F3A181"/>

<rect x="65" y="0" width="35" height="100" fill="#D9D6A4"/>

</g>

</g>


<g id="3" transform="translate(300,0)scale(1,1)">


<rect x="0" y="0" width="24" height="100" fill="#936C3F"/>

<rect x="24" y="0" width="18" height="100" fill="#F3A181"/>

<rect x="42" y="0" width="58" height="100" fill="#D9D6A4"/>

<g transform = "rotate(90, 50, 50)" fill-opacity="0.7">

<rect x="0" y="0" width="18" height="100" fill="#936C3F"/>

<rect x="18" y="0" width="47" height="100" fill="#F3A181"/>

<rect x="65" y="0" width="35" height="100" fill="#D9D6A4"/>

</g>

</g>


<g id="4" transform="translate(400,0)scale(1,1)">


<rect x="0" y="0" width="24" height="100" fill="#936C3F"/>

<rect x="24" y="0" width="18" height="100" fill="#F3A181"/>

<rect x="42" y="0" width="58" height="100" fill="#D9D6A4"/>

<g transform = "rotate(90, 50, 50)" fill-opacity="0.7">

<rect x="0" y="0" width="18" height="100" fill="#936C3F"/>

<rect x="18" y="0" width="47" height="100" fill="#F3A181"/>

<rect x="65" y="0" width="35" height="100" fill="#D9D6A4"/>

</g>

</g>


</g>

</svg>