<?xml version="1.0" standalone="no"?>
<!DOCTYPE svg PUBLIC "-//W3C//DTD SVG 20010904//EN"
 "http://www.w3.org/TR/2001/REC-SVG-20010904/DTD/svg10.dtd">
<svg version="1.0" xmlns="http://www.w3.org/2000/svg" 
width="400" height="400" viewBox="0 0 400 400"
preserveAspectRatio = "xMidYMid meet" >
<metadata>
Created by ZoeQu, written in 2022
</metadata>

<g id="row0" transform="translate(0,0.0)">

<g id="0" transform="translate(0,0)scale(1,1)">


<rect x="0" y="0" width="31" height="100" fill="#D6DACA"/>

<rect x="31" y="0" width="37" height="100" fill="#F7B83F"/>

<rect x="68" y="0" width="32" height="100" fill="#A36CB7"/>

<g transform = "rotate(90, 50, 50)" fill-opacity="0.7">

<rect x="0" y="0" width="26" height="100" fill="#D6DACA"/>

<rect x="26" y="0" width="27" height="100" fill="#F7B83F"/>

<rect x="53" y="0" width="47" height="100" fill="#A36CB7"/>

</g>

</g>


<g id="1" transform="translate(100,0)scale(1,1)">


<rect x="0" y="0" width="31" height="100" fill="#D6DACA"/>

<rect x="31" y="0" width="37" height="100" fill="#F7B83F"/>

<rect x="68" y="0" width="32" height="100" fill="#A36CB7"/>

<g transform = "rotate(90, 50, 50)" fill-opacity="0.7">

<rect x="0" y="0" width="26" height="100" fill="#D6DACA"/>

<rect x="26" y="0" width="27" height="100" fill="#F7B83F"/>

<rect x="53" y="0" width="47" height="100" fill="#A36CB7"/>

</g>

</g>


<g id="2" transform="translate(200,0)scale(1,1)">


<rect x="0" y="0" width="31" height="100" fill="#D6DACA"/>

<rect x="31" y="0" width="37" height="100" fill="#F7B83F"/>

<rect x="68" y="0" width="32" height="100" fill="#A36CB7"/>

<g transform = "rotate(90, 50, 50)" fill-opacity="0.7">

<rect x="0" y="0" width="26" height="100" fill="#D6DACA"/>

<rect x="26" y="0" width="27" height="100" fill="#F7B83F"/>

<rect x="53" y="0" width="47" height="100" fill="#A36CB7"/>

</g>

</g>


<g id="3" transform="translate(300,0)scale(1,1)">


<rect x="0" y="0" width="31" height="100" fill="#D6DACA"/>

<rect x="31" y="0" width="37" height="100" fill="#F7B83F"/>

<rect x="68" y="0" width="32" height="100" fill="#A36CB7"/>

<g transform = "rotate(90, 50, 50)" fill-opacity="0.7">

<rect x="0" y="0" width="26" height="100" fill="#D6DACA"/>

<rect x="26" y="0" width="27" height="100" fill="#F7B83F"/>

<rect x="53" y="0" width="47" height="100" fill="#A36CB7"/>

</g>

</g>


<g id="4" transform="translate(400,0)scale(1,1)">


<rect x="0" y="0" width="31" height="100" fill="#D6DACA"/>

<rect x="31" y="0" width="37" height="100" fill="#F7B83F"/>

<rect x="68" y="0" width="32" height="100" fill="#A36CB7"/>

<g transform = "rotate(90, 50, 50)" fill-opacity="0.7">

<rect x="0" y="0" width="26" height="100" fill="#D6DACA"/>

<rect x="26" y="0" width="27" height="100" fill="#F7B83F"/>

<rect x="53" y="0" width="47" height="100" fill="#A36CB7"/>

</g>

</g>


</g>

<g id="row1" transform="translate(0,100.0)">

<g id="0" transform="translate(0,0)scale(1,1)">


<rect x="0" y="0" width="31" height="100" fill="#D6DACA"/>

<rect x="31" y="0" width="37" height="100" fill="#F7B83F"/>

<rect x="68" y="0" width="32" height="100" fill="#A36CB7"/>

<g transform = "rotate(90, 50, 50)" fill-opacity="0.7">

<rect x="0" y="0" width="26" height="100" fill="#D6DACA"/>

<rect x="26" y="0" width="27" height="100" fill="#F7B83F"/>

<rect x="53" y="0" width="47" height="100" fill="#A36CB7"/>

</g>

</g>


<g id="1" transform="translate(100,0)scale(1,1)">


<rect x="0" y="0" width="31" height="100" fill="#D6DACA"/>

<rect x="31" y="0" width="37" height="100" fill="#F7B83F"/>

<rect x="68" y="0" width="32" height="100" fill="#A36CB7"/>

<g transform = "rotate(90, 50, 50)" fill-opacity="0.7">

<rect x="0" y="0" width="26" height="100" fill="#D6DACA"/>

<rect x="26" y="0" width="27" height="100" fill="#F7B83F"/>

<rect x="53" y="0" width="47" height="100" fill="#A36CB7"/>

</g>

</g>


<g id="2" transform="translate(200,0)scale(1,1)">


<rect x="0" y="0" width="31" height="100" fill="#D6DACA"/>

<rect x="31" y="0" width="37" height="100" fill="#F7B83F"/>

<rect x="68" y="0" width="32" height="100" fill="#A36CB7"/>

<g transform = "rotate(90, 50, 50)" fill-opacity="0.7">

<rect x="0" y="0" width="26" height="100" fill="#D6DACA"/>

<rect x="26" y="0" width="27" height="100" fill="#F7B83F"/>

<rect x="53" y="0" width="47" height="100" fill="#A36CB7"/>

</g>

</g>


<g id="3" transform="translate(300,0)scale(1,1)">


<rect x="0" y="0" width="31" height="100" fill="#D6DACA"/>

<rect x="31" y="0" width="37" height="100" fill="#F7B83F"/>

<rect x="68" y="0" width="32" height="100" fill="#A36CB7"/>

<g transform = "rotate(90, 50, 50)" fill-opacity="0.7">

<rect x="0" y="0" width="26" height="100" fill="#D6DACA"/>

<rect x="26" y="0" width="27" height="100" fill="#F7B83F"/>

<rect x="53" y="0" width="47" height="100" fill="#A36CB7"/>

</g>

</g>


<g id="4" transform="translate(400,0)scale(1,1)">


<rect x="0" y="0" width="31" height="100" fill="#D6DACA"/>

<rect x="31" y="0" width="37" height="100" fill="#F7B83F"/>

<rect x="68" y="0" width="32" height="100" fill="#A36CB7"/>

<g transform = "rotate(90, 50, 50)" fill-opacity="0.7">

<rect x="0" y="0" width="26" height="100" fill="#D6DACA"/>

<rect x="26" y="0" width="27" height="100" fill="#F7B83F"/>

<rect x="53" y="0" width="47" height="100" fill="#A36CB7"/>

</g>

</g>


</g>

<g id="row2" transform="translate(0,200.0)">

<g id="0" transform="translate(0,0)scale(1,1)">


<rect x="0" y="0" width="31" height="100" fill="#D6DACA"/>

<rect x="31" y="0" width="37" height="100" fill="#F7B83F"/>

<rect x="68" y="0" width="32" height="100" fill="#A36CB7"/>

<g transform = "rotate(90, 50, 50)" fill-opacity="0.7">

<rect x="0" y="0" width="26" height="100" fill="#D6DACA"/>

<rect x="26" y="0" width="27" height="100" fill="#F7B83F"/>

<rect x="53" y="0" width="47" height="100" fill="#A36CB7"/>

</g>

</g>


<g id="1" transform="translate(100,0)scale(1,1)">


<rect x="0" y="0" width="31" height="100" fill="#D6DACA"/>

<rect x="31" y="0" width="37" height="100" fill="#F7B83F"/>

<rect x="68" y="0" width="32" height="100" fill="#A36CB7"/>

<g transform = "rotate(90, 50, 50)" fill-opacity="0.7">

<rect x="0" y="0" width="26" height="100" fill="#D6DACA"/>

<rect x="26" y="0" width="27" height="100" fill="#F7B83F"/>

<rect x="53" y="0" width="47" height="100" fill="#A36CB7"/>

</g>

</g>


<g id="2" transform="translate(200,0)scale(1,1)">


<rect x="0" y="0" width="31" height="100" fill="#D6DACA"/>

<rect x="31" y="0" width="37" height="100" fill="#F7B83F"/>

<rect x="68" y="0" width="32" height="100" fill="#A36CB7"/>

<g transform = "rotate(90, 50, 50)" fill-opacity="0.7">

<rect x="0" y="0" width="26" height="100" fill="#D6DACA"/>

<rect x="26" y="0" width="27" height="100" fill="#F7B83F"/>

<rect x="53" y="0" width="47" height="100" fill="#A36CB7"/>

</g>

</g>


<g id="3" transform="translate(300,0)scale(1,1)">


<rect x="0" y="0" width="31" height="100" fill="#D6DACA"/>

<rect x="31" y="0" width="37" height="100" fill="#F7B83F"/>

<rect x="68" y="0" width="32" height="100" fill="#A36CB7"/>

<g transform = "rotate(90, 50, 50)" fill-opacity="0.7">

<rect x="0" y="0" width="26" height="100" fill="#D6DACA"/>

<rect x="26" y="0" width="27" height="100" fill="#F7B83F"/>

<rect x="53" y="0" width="47" height="100" fill="#A36CB7"/>

</g>

</g>


<g id="4" transform="translate(400,0)scale(1,1)">


<rect x="0" y="0" width="31" height="100" fill="#D6DACA"/>

<rect x="31" y="0" width="37" height="100" fill="#F7B83F"/>

<rect x="68" y="0" width="32" height="100" fill="#A36CB7"/>

<g transform = "rotate(90, 50, 50)" fill-opacity="0.7">

<rect x="0" y="0" width="26" height="100" fill="#D6DACA"/>

<rect x="26" y="0" width="27" height="100" fill="#F7B83F"/>

<rect x="53" y="0" width="47" height="100" fill="#A36CB7"/>

</g>

</g>


</g>

<g id="row3" transform="translate(0,300.0)">

<g id="0" transform="translate(0,0)scale(1,1)">


<rect x="0" y="0" width="31" height="100" fill="#D6DACA"/>

<rect x="31" y="0" width="37" height="100" fill="#F7B83F"/>

<rect x="68" y="0" width="32" height="100" fill="#A36CB7"/>

<g transform = "rotate(90, 50, 50)" fill-opacity="0.7">

<rect x="0" y="0" width="26" height="100" fill="#D6DACA"/>

<rect x="26" y="0" width="27" height="100" fill="#F7B83F"/>

<rect x="53" y="0" width="47" height="100" fill="#A36CB7"/>

</g>

</g>


<g id="1" transform="translate(100,0)scale(1,1)">


<rect x="0" y="0" width="31" height="100" fill="#D6DACA"/>

<rect x="31" y="0" width="37" height="100" fill="#F7B83F"/>

<rect x="68" y="0" width="32" height="100" fill="#A36CB7"/>

<g transform = "rotate(90, 50, 50)" fill-opacity="0.7">

<rect x="0" y="0" width="26" height="100" fill="#D6DACA"/>

<rect x="26" y="0" width="27" height="100" fill="#F7B83F"/>

<rect x="53" y="0" width="47" height="100" fill="#A36CB7"/>

</g>

</g>


<g id="2" transform="translate(200,0)scale(1,1)">


<rect x="0" y="0" width="31" height="100" fill="#D6DACA"/>

<rect x="31" y="0" width="37" height="100" fill="#F7B83F"/>

<rect x="68" y="0" width="32" height="100" fill="#A36CB7"/>

<g transform = "rotate(90, 50, 50)" fill-opacity="0.7">

<rect x="0" y="0" width="26" height="100" fill="#D6DACA"/>

<rect x="26" y="0" width="27" height="100" fill="#F7B83F"/>

<rect x="53" y="0" width="47" height="100" fill="#A36CB7"/>

</g>

</g>


<g id="3" transform="translate(300,0)scale(1,1)">


<rect x="0" y="0" width="31" height="100" fill="#D6DACA"/>

<rect x="31" y="0" width="37" height="100" fill="#F7B83F"/>

<rect x="68" y="0" width="32" height="100" fill="#A36CB7"/>

<g transform = "rotate(90, 50, 50)" fill-opacity="0.7">

<rect x="0" y="0" width="26" height="100" fill="#D6DACA"/>

<rect x="26" y="0" width="27" height="100" fill="#F7B83F"/>

<rect x="53" y="0" width="47" height="100" fill="#A36CB7"/>

</g>

</g>


<g id="4" transform="translate(400,0)scale(1,1)">


<rect x="0" y="0" width="31" height="100" fill="#D6DACA"/>

<rect x="31" y="0" width="37" height="100" fill="#F7B83F"/>

<rect x="68" y="0" width="32" height="100" fill="#A36CB7"/>

<g transform = "rotate(90, 50, 50)" fill-opacity="0.7">

<rect x="0" y="0" width="26" height="100" fill="#D6DACA"/>

<rect x="26" y="0" width="27" height="100" fill="#F7B83F"/>

<rect x="53" y="0" width="47" height="100" fill="#A36CB7"/>

</g>

</g>


</g>

</svg>