<?xml version="1.0" standalone="no"?>
<!DOCTYPE svg PUBLIC "-//W3C//DTD SVG 20010904//EN"
 "http://www.w3.org/TR/2001/REC-SVG-20010904/DTD/svg10.dtd">
<svg version="1.0" xmlns="http://www.w3.org/2000/svg" width="288pt" height="312pt" viewBox="0 0 288 312" preserveAspectRatio = "xMidYMid meet" >
<metadata>
Created by ZoeQu, written in 2022
</metadata>
<rect width="288" height="312" fill="#D9D6A4"/>
<g id="col0" transform="translate(0, 10)">
<g id="0" transform="translate(0,0.0)scale(0.8,0.8)">

<path d="M648 265 c32 -14 44 -47 22 -58 -6 -3 -5 -4 2 -3 38 8 5 76 -36 76 -16 -1 -14 -4 12 -15z" transform="translate(0,78) scale(0.1,-0.1)" stroke="none" fill="#936C3F"/>

<path d="M298 598 c-58 -21 -13 -62 61 -56 29 2 37 8 39 25 3 17 -3 26 -23 33 -31 12 -41 12 -77 -2z" transform="translate(0,78) scale(0.1,-0.1)" stroke="none" fill="#F3A181"/>

<path d="M229 713 c-5 -33 -4 -123 1 -123 25 0 87 101 74 121 -6 11 -74 12 -75 2z" transform="translate(0,78) scale(0.1,-0.1)" stroke="none" fill="#F3A181"/>

<path d="M578 262 c-21 -9 -38 -20 -38 -24 0 -21 105 -45 128 -29 22 14 10 43 -23 57 -25 10 -36 9 -67 -4z" transform="translate(0,78) scale(0.1,-0.1)" stroke="none" fill="#F3A181"/>

<path d="M514 378 c-5 -7 -9 -17 -9 -23 -1 -5 -5 -19 -10 -29 -5 -13 -5 -21 2 -23 6 -2 9 -13 6 -23 -9 -35 23 -23 51 19 34 49 32 85 -6 89 -14 2 -30 -3 -34 -10z" transform="translate(0,78) scale(0.1,-0.1)" stroke="none" fill="#F3A181"/>

<path d="M242 503 c-2 -39 38 -106 71 -117 23 -8 31 -6 48 11 27 27 16 49 -48 98 -55 42 -68 44 -71 8z" transform="translate(0,78) scale(0.1,-0.1)" stroke="none" fill="#F3A181"/>

<path d="M90 702 c-64 -10 -69 -60 -10 -97 45 -29 82 -32 104 -9 20 20 20 25 -1 63 -19 33 -53 49 -93 43z" transform="translate(0,78) scale(0.1,-0.1)" stroke="none" fill="#F3A181"/>

<path d="M111 561 c-72 -13 -63 -71 18 -123 72 -45 91 -36 91 42 0 30 -6 44 -31 64 -17 14 -34 25 -37 25 -4 -1 -22 -4 -41 -8z" transform="translate(0,78) scale(0.1,-0.1)" stroke="none" fill="#F3A181"/>

<path d="M337 373 c-43 -42 -45 -55 -16 -84 17 -17 19 -23 8 -30 -7 -4 -10 -11 -6 -16 5 -4 12 -1 17 6 4 8 15 11 24 8 14 -6 11 -11 -15 -35 -31 -28 -31 -28 -15 -60 17 -33 81 -86 117 -97 23 -8 49 11 48 34 0 11 -3 9 -9 -7 -12 -29 -27 -28 -75 4 -80 54 -97 102 -45 129 17 9 30 19 30 23 0 4 -18 15 -40 25 -66 30 -63 80 5 93 47 9 71 -2 94 -42 26 -44 26 -49 -1 -73 l-21 -20 26 -27 c21 -21 30 -24 41 -15 19 16 55 0 105 -45 42 -37 50 -61 29 -82 -35 -35 -104 13 -114 79 -4 21 -10 36 -15 33 -11 -6 -12 -41 -1 -46 4 -2 14 -16 24 -33 23 -43 60 -62 95 -49 44 15 43 52 -4 97 -20 21 -41 37 -45 37 -4 0 -8 5 -8 10 0 6 12 10 28 11 25 1 25 2 -6 9 -32 7 -61 26 -51 33 2 2 20 11 39 20 26 12 30 17 15 17 -12 0 -26 -5 -33 -12 -18 -18 -14 -4 13 48 24 44 24 48 9 66 -21 23 -57 23 -75 1 -13 -16 -12 -17 3 -5 9 8 27 12 40 10 34 -5 35 -42 2 -89 -28 -42 -60 -54 -51 -19 3 10 0 21 -7 23 -8 3 -8 10 2 26 18 30 15 37 -8 16 -19 -17 -20 -17 -41 9 -14 18 -30 26 -51 26 -23 0 -29 4 -24 15 8 22 3 19 -37 -22z m180 -139 c5 -15 -28 -27 -40 -15 -5 5 -6 14 -2 21 8 13 37 9 42 -6z" transform="translate(0,78) scale(0.1,-0.1)" stroke="none" fill="#936C3F"/>

<path d="M233 725 c-11 -8 -24 -26 -27 -40 l-7 -26 -28 30 c-16 17 -38 31 -49 31 -34 0 -77 -20 -91 -41 -11 -19 -10 -25 8 -50 12 -16 17 -29 11 -29 -5 0 -10 -9 -10 -19 0 -11 -6 -21 -12 -24 -8 -2 -9 -8 -4 -13 5 -5 11 -4 13 4 9 24 22 12 17 -16 -7 -33 21 -72 77 -108 55 -34 86 -32 94 6 l7 31 29 -41 c16 -22 35 -40 42 -40 6 0 4 5 -6 11 -39 23 -74 139 -41 139 15 0 101 -66 113 -88 6 -9 11 -12 11 -5 0 6 -24 32 -52 57 -41 36 -48 46 -33 47 18 0 18 1 -2 9 -35 14 -28 38 15 50 50 16 95 0 90 -33 -2 -17 -11 -23 -43 -28 -36 -6 -37 -6 -8 -8 45 -2 63 8 63 35 0 43 -65 68 -112 43 -30 -16 -32 -5 -3 36 31 46 31 59 3 79 -28 20 -38 20 -65 1z m71 -14 c13 -20 -49 -121 -74 -121 -5 0 -6 90 -1 123 1 10 69 9 75 -2z m-121 -52 c21 -38 21 -43 1 -63 -22 -23 -59 -20 -104 9 -59 37 -54 87 10 97 40 6 74 -10 93 -43z m-98 -79 c0 -7 -6 -15 -12 -17 -8 -3 -13 4 -13 17 0 13 5 20 13 18 6 -3 12 -11 12 -18z m159 -15 c6 -16 -10 -20 -38 -9 -24 9 -19 24 8 24 13 0 26 -7 30 -15z m-55 -21 c25 -20 31 -34 31 -64 0 -78 -19 -87 -91 -42 -81 52 -90 110 -18 123 19 4 37 7 41 8 3 0 20 -11 37 -25z" transform="translate(0,78) scale(0.1,-0.1)" stroke="none" fill="#936C3F"/>

<path d="M344 360 c-49 -20 -41 -60 16 -87 22 -10 40 -21 40 -25 0 -4 -13 -14 -30 -23 -54 -28 -33 -81 53 -134 47 -29 64 -23 72 26 11 64 17 71 27 26 15 -70 81 -116 116 -81 21 21 13 45 -29 82 -50 45 -86 61 -105 45 -11 -9 -20 -6 -41 15 l-26 27 21 20 c26 24 27 32 5 67 -32 51 -66 64 -119 42z" transform="translate(0,78) scale(0.1,-0.1)" stroke="none" fill="#F3A181"/>

</g>

<g id="1" transform="translate(0,78.0)scale(0.8,0.8)">

<path d="M648 265 c32 -14 44 -47 22 -58 -6 -3 -5 -4 2 -3 38 8 5 76 -36 76 -16 -1 -14 -4 12 -15z" transform="translate(0,78) scale(0.1,-0.1)" stroke="none" fill="#936C3F"/>

<path d="M298 598 c-58 -21 -13 -62 61 -56 29 2 37 8 39 25 3 17 -3 26 -23 33 -31 12 -41 12 -77 -2z" transform="translate(0,78) scale(0.1,-0.1)" stroke="none" fill="#F3A181"/>

<path d="M229 713 c-5 -33 -4 -123 1 -123 25 0 87 101 74 121 -6 11 -74 12 -75 2z" transform="translate(0,78) scale(0.1,-0.1)" stroke="none" fill="#F3A181"/>

<path d="M578 262 c-21 -9 -38 -20 -38 -24 0 -21 105 -45 128 -29 22 14 10 43 -23 57 -25 10 -36 9 -67 -4z" transform="translate(0,78) scale(0.1,-0.1)" stroke="none" fill="#F3A181"/>

<path d="M514 378 c-5 -7 -9 -17 -9 -23 -1 -5 -5 -19 -10 -29 -5 -13 -5 -21 2 -23 6 -2 9 -13 6 -23 -9 -35 23 -23 51 19 34 49 32 85 -6 89 -14 2 -30 -3 -34 -10z" transform="translate(0,78) scale(0.1,-0.1)" stroke="none" fill="#F3A181"/>

<path d="M242 503 c-2 -39 38 -106 71 -117 23 -8 31 -6 48 11 27 27 16 49 -48 98 -55 42 -68 44 -71 8z" transform="translate(0,78) scale(0.1,-0.1)" stroke="none" fill="#F3A181"/>

<path d="M90 702 c-64 -10 -69 -60 -10 -97 45 -29 82 -32 104 -9 20 20 20 25 -1 63 -19 33 -53 49 -93 43z" transform="translate(0,78) scale(0.1,-0.1)" stroke="none" fill="#F3A181"/>

<path d="M111 561 c-72 -13 -63 -71 18 -123 72 -45 91 -36 91 42 0 30 -6 44 -31 64 -17 14 -34 25 -37 25 -4 -1 -22 -4 -41 -8z" transform="translate(0,78) scale(0.1,-0.1)" stroke="none" fill="#F3A181"/>

<path d="M337 373 c-43 -42 -45 -55 -16 -84 17 -17 19 -23 8 -30 -7 -4 -10 -11 -6 -16 5 -4 12 -1 17 6 4 8 15 11 24 8 14 -6 11 -11 -15 -35 -31 -28 -31 -28 -15 -60 17 -33 81 -86 117 -97 23 -8 49 11 48 34 0 11 -3 9 -9 -7 -12 -29 -27 -28 -75 4 -80 54 -97 102 -45 129 17 9 30 19 30 23 0 4 -18 15 -40 25 -66 30 -63 80 5 93 47 9 71 -2 94 -42 26 -44 26 -49 -1 -73 l-21 -20 26 -27 c21 -21 30 -24 41 -15 19 16 55 0 105 -45 42 -37 50 -61 29 -82 -35 -35 -104 13 -114 79 -4 21 -10 36 -15 33 -11 -6 -12 -41 -1 -46 4 -2 14 -16 24 -33 23 -43 60 -62 95 -49 44 15 43 52 -4 97 -20 21 -41 37 -45 37 -4 0 -8 5 -8 10 0 6 12 10 28 11 25 1 25 2 -6 9 -32 7 -61 26 -51 33 2 2 20 11 39 20 26 12 30 17 15 17 -12 0 -26 -5 -33 -12 -18 -18 -14 -4 13 48 24 44 24 48 9 66 -21 23 -57 23 -75 1 -13 -16 -12 -17 3 -5 9 8 27 12 40 10 34 -5 35 -42 2 -89 -28 -42 -60 -54 -51 -19 3 10 0 21 -7 23 -8 3 -8 10 2 26 18 30 15 37 -8 16 -19 -17 -20 -17 -41 9 -14 18 -30 26 -51 26 -23 0 -29 4 -24 15 8 22 3 19 -37 -22z m180 -139 c5 -15 -28 -27 -40 -15 -5 5 -6 14 -2 21 8 13 37 9 42 -6z" transform="translate(0,78) scale(0.1,-0.1)" stroke="none" fill="#936C3F"/>

<path d="M233 725 c-11 -8 -24 -26 -27 -40 l-7 -26 -28 30 c-16 17 -38 31 -49 31 -34 0 -77 -20 -91 -41 -11 -19 -10 -25 8 -50 12 -16 17 -29 11 -29 -5 0 -10 -9 -10 -19 0 -11 -6 -21 -12 -24 -8 -2 -9 -8 -4 -13 5 -5 11 -4 13 4 9 24 22 12 17 -16 -7 -33 21 -72 77 -108 55 -34 86 -32 94 6 l7 31 29 -41 c16 -22 35 -40 42 -40 6 0 4 5 -6 11 -39 23 -74 139 -41 139 15 0 101 -66 113 -88 6 -9 11 -12 11 -5 0 6 -24 32 -52 57 -41 36 -48 46 -33 47 18 0 18 1 -2 9 -35 14 -28 38 15 50 50 16 95 0 90 -33 -2 -17 -11 -23 -43 -28 -36 -6 -37 -6 -8 -8 45 -2 63 8 63 35 0 43 -65 68 -112 43 -30 -16 -32 -5 -3 36 31 46 31 59 3 79 -28 20 -38 20 -65 1z m71 -14 c13 -20 -49 -121 -74 -121 -5 0 -6 90 -1 123 1 10 69 9 75 -2z m-121 -52 c21 -38 21 -43 1 -63 -22 -23 -59 -20 -104 9 -59 37 -54 87 10 97 40 6 74 -10 93 -43z m-98 -79 c0 -7 -6 -15 -12 -17 -8 -3 -13 4 -13 17 0 13 5 20 13 18 6 -3 12 -11 12 -18z m159 -15 c6 -16 -10 -20 -38 -9 -24 9 -19 24 8 24 13 0 26 -7 30 -15z m-55 -21 c25 -20 31 -34 31 -64 0 -78 -19 -87 -91 -42 -81 52 -90 110 -18 123 19 4 37 7 41 8 3 0 20 -11 37 -25z" transform="translate(0,78) scale(0.1,-0.1)" stroke="none" fill="#936C3F"/>

<path d="M344 360 c-49 -20 -41 -60 16 -87 22 -10 40 -21 40 -25 0 -4 -13 -14 -30 -23 -54 -28 -33 -81 53 -134 47 -29 64 -23 72 26 11 64 17 71 27 26 15 -70 81 -116 116 -81 21 21 13 45 -29 82 -50 45 -86 61 -105 45 -11 -9 -20 -6 -41 15 l-26 27 21 20 c26 24 27 32 5 67 -32 51 -66 64 -119 42z" transform="translate(0,78) scale(0.1,-0.1)" stroke="none" fill="#F3A181"/>

</g>

<g id="2" transform="translate(0,156.0)scale(0.8,0.8)">

<path d="M648 265 c32 -14 44 -47 22 -58 -6 -3 -5 -4 2 -3 38 8 5 76 -36 76 -16 -1 -14 -4 12 -15z" transform="translate(0,78) scale(0.1,-0.1)" stroke="none" fill="#936C3F"/>

<path d="M298 598 c-58 -21 -13 -62 61 -56 29 2 37 8 39 25 3 17 -3 26 -23 33 -31 12 -41 12 -77 -2z" transform="translate(0,78) scale(0.1,-0.1)" stroke="none" fill="#F3A181"/>

<path d="M229 713 c-5 -33 -4 -123 1 -123 25 0 87 101 74 121 -6 11 -74 12 -75 2z" transform="translate(0,78) scale(0.1,-0.1)" stroke="none" fill="#F3A181"/>

<path d="M578 262 c-21 -9 -38 -20 -38 -24 0 -21 105 -45 128 -29 22 14 10 43 -23 57 -25 10 -36 9 -67 -4z" transform="translate(0,78) scale(0.1,-0.1)" stroke="none" fill="#F3A181"/>

<path d="M514 378 c-5 -7 -9 -17 -9 -23 -1 -5 -5 -19 -10 -29 -5 -13 -5 -21 2 -23 6 -2 9 -13 6 -23 -9 -35 23 -23 51 19 34 49 32 85 -6 89 -14 2 -30 -3 -34 -10z" transform="translate(0,78) scale(0.1,-0.1)" stroke="none" fill="#F3A181"/>

<path d="M242 503 c-2 -39 38 -106 71 -117 23 -8 31 -6 48 11 27 27 16 49 -48 98 -55 42 -68 44 -71 8z" transform="translate(0,78) scale(0.1,-0.1)" stroke="none" fill="#F3A181"/>

<path d="M90 702 c-64 -10 -69 -60 -10 -97 45 -29 82 -32 104 -9 20 20 20 25 -1 63 -19 33 -53 49 -93 43z" transform="translate(0,78) scale(0.1,-0.1)" stroke="none" fill="#F3A181"/>

<path d="M111 561 c-72 -13 -63 -71 18 -123 72 -45 91 -36 91 42 0 30 -6 44 -31 64 -17 14 -34 25 -37 25 -4 -1 -22 -4 -41 -8z" transform="translate(0,78) scale(0.1,-0.1)" stroke="none" fill="#F3A181"/>

<path d="M337 373 c-43 -42 -45 -55 -16 -84 17 -17 19 -23 8 -30 -7 -4 -10 -11 -6 -16 5 -4 12 -1 17 6 4 8 15 11 24 8 14 -6 11 -11 -15 -35 -31 -28 -31 -28 -15 -60 17 -33 81 -86 117 -97 23 -8 49 11 48 34 0 11 -3 9 -9 -7 -12 -29 -27 -28 -75 4 -80 54 -97 102 -45 129 17 9 30 19 30 23 0 4 -18 15 -40 25 -66 30 -63 80 5 93 47 9 71 -2 94 -42 26 -44 26 -49 -1 -73 l-21 -20 26 -27 c21 -21 30 -24 41 -15 19 16 55 0 105 -45 42 -37 50 -61 29 -82 -35 -35 -104 13 -114 79 -4 21 -10 36 -15 33 -11 -6 -12 -41 -1 -46 4 -2 14 -16 24 -33 23 -43 60 -62 95 -49 44 15 43 52 -4 97 -20 21 -41 37 -45 37 -4 0 -8 5 -8 10 0 6 12 10 28 11 25 1 25 2 -6 9 -32 7 -61 26 -51 33 2 2 20 11 39 20 26 12 30 17 15 17 -12 0 -26 -5 -33 -12 -18 -18 -14 -4 13 48 24 44 24 48 9 66 -21 23 -57 23 -75 1 -13 -16 -12 -17 3 -5 9 8 27 12 40 10 34 -5 35 -42 2 -89 -28 -42 -60 -54 -51 -19 3 10 0 21 -7 23 -8 3 -8 10 2 26 18 30 15 37 -8 16 -19 -17 -20 -17 -41 9 -14 18 -30 26 -51 26 -23 0 -29 4 -24 15 8 22 3 19 -37 -22z m180 -139 c5 -15 -28 -27 -40 -15 -5 5 -6 14 -2 21 8 13 37 9 42 -6z" transform="translate(0,78) scale(0.1,-0.1)" stroke="none" fill="#936C3F"/>

<path d="M233 725 c-11 -8 -24 -26 -27 -40 l-7 -26 -28 30 c-16 17 -38 31 -49 31 -34 0 -77 -20 -91 -41 -11 -19 -10 -25 8 -50 12 -16 17 -29 11 -29 -5 0 -10 -9 -10 -19 0 -11 -6 -21 -12 -24 -8 -2 -9 -8 -4 -13 5 -5 11 -4 13 4 9 24 22 12 17 -16 -7 -33 21 -72 77 -108 55 -34 86 -32 94 6 l7 31 29 -41 c16 -22 35 -40 42 -40 6 0 4 5 -6 11 -39 23 -74 139 -41 139 15 0 101 -66 113 -88 6 -9 11 -12 11 -5 0 6 -24 32 -52 57 -41 36 -48 46 -33 47 18 0 18 1 -2 9 -35 14 -28 38 15 50 50 16 95 0 90 -33 -2 -17 -11 -23 -43 -28 -36 -6 -37 -6 -8 -8 45 -2 63 8 63 35 0 43 -65 68 -112 43 -30 -16 -32 -5 -3 36 31 46 31 59 3 79 -28 20 -38 20 -65 1z m71 -14 c13 -20 -49 -121 -74 -121 -5 0 -6 90 -1 123 1 10 69 9 75 -2z m-121 -52 c21 -38 21 -43 1 -63 -22 -23 -59 -20 -104 9 -59 37 -54 87 10 97 40 6 74 -10 93 -43z m-98 -79 c0 -7 -6 -15 -12 -17 -8 -3 -13 4 -13 17 0 13 5 20 13 18 6 -3 12 -11 12 -18z m159 -15 c6 -16 -10 -20 -38 -9 -24 9 -19 24 8 24 13 0 26 -7 30 -15z m-55 -21 c25 -20 31 -34 31 -64 0 -78 -19 -87 -91 -42 -81 52 -90 110 -18 123 19 4 37 7 41 8 3 0 20 -11 37 -25z" transform="translate(0,78) scale(0.1,-0.1)" stroke="none" fill="#936C3F"/>

<path d="M344 360 c-49 -20 -41 -60 16 -87 22 -10 40 -21 40 -25 0 -4 -13 -14 -30 -23 -54 -28 -33 -81 53 -134 47 -29 64 -23 72 26 11 64 17 71 27 26 15 -70 81 -116 116 -81 21 21 13 45 -29 82 -50 45 -86 61 -105 45 -11 -9 -20 -6 -41 15 l-26 27 21 20 c26 24 27 32 5 67 -32 51 -66 64 -119 42z" transform="translate(0,78) scale(0.1,-0.1)" stroke="none" fill="#F3A181"/>

</g>

<g id="3" transform="translate(0,234.0)scale(0.8,0.8)">

<path d="M648 265 c32 -14 44 -47 22 -58 -6 -3 -5 -4 2 -3 38 8 5 76 -36 76 -16 -1 -14 -4 12 -15z" transform="translate(0,78) scale(0.1,-0.1)" stroke="none" fill="#936C3F"/>

<path d="M298 598 c-58 -21 -13 -62 61 -56 29 2 37 8 39 25 3 17 -3 26 -23 33 -31 12 -41 12 -77 -2z" transform="translate(0,78) scale(0.1,-0.1)" stroke="none" fill="#F3A181"/>

<path d="M229 713 c-5 -33 -4 -123 1 -123 25 0 87 101 74 121 -6 11 -74 12 -75 2z" transform="translate(0,78) scale(0.1,-0.1)" stroke="none" fill="#F3A181"/>

<path d="M578 262 c-21 -9 -38 -20 -38 -24 0 -21 105 -45 128 -29 22 14 10 43 -23 57 -25 10 -36 9 -67 -4z" transform="translate(0,78) scale(0.1,-0.1)" stroke="none" fill="#F3A181"/>

<path d="M514 378 c-5 -7 -9 -17 -9 -23 -1 -5 -5 -19 -10 -29 -5 -13 -5 -21 2 -23 6 -2 9 -13 6 -23 -9 -35 23 -23 51 19 34 49 32 85 -6 89 -14 2 -30 -3 -34 -10z" transform="translate(0,78) scale(0.1,-0.1)" stroke="none" fill="#F3A181"/>

<path d="M242 503 c-2 -39 38 -106 71 -117 23 -8 31 -6 48 11 27 27 16 49 -48 98 -55 42 -68 44 -71 8z" transform="translate(0,78) scale(0.1,-0.1)" stroke="none" fill="#F3A181"/>

<path d="M90 702 c-64 -10 -69 -60 -10 -97 45 -29 82 -32 104 -9 20 20 20 25 -1 63 -19 33 -53 49 -93 43z" transform="translate(0,78) scale(0.1,-0.1)" stroke="none" fill="#F3A181"/>

<path d="M111 561 c-72 -13 -63 -71 18 -123 72 -45 91 -36 91 42 0 30 -6 44 -31 64 -17 14 -34 25 -37 25 -4 -1 -22 -4 -41 -8z" transform="translate(0,78) scale(0.1,-0.1)" stroke="none" fill="#F3A181"/>

<path d="M337 373 c-43 -42 -45 -55 -16 -84 17 -17 19 -23 8 -30 -7 -4 -10 -11 -6 -16 5 -4 12 -1 17 6 4 8 15 11 24 8 14 -6 11 -11 -15 -35 -31 -28 -31 -28 -15 -60 17 -33 81 -86 117 -97 23 -8 49 11 48 34 0 11 -3 9 -9 -7 -12 -29 -27 -28 -75 4 -80 54 -97 102 -45 129 17 9 30 19 30 23 0 4 -18 15 -40 25 -66 30 -63 80 5 93 47 9 71 -2 94 -42 26 -44 26 -49 -1 -73 l-21 -20 26 -27 c21 -21 30 -24 41 -15 19 16 55 0 105 -45 42 -37 50 -61 29 -82 -35 -35 -104 13 -114 79 -4 21 -10 36 -15 33 -11 -6 -12 -41 -1 -46 4 -2 14 -16 24 -33 23 -43 60 -62 95 -49 44 15 43 52 -4 97 -20 21 -41 37 -45 37 -4 0 -8 5 -8 10 0 6 12 10 28 11 25 1 25 2 -6 9 -32 7 -61 26 -51 33 2 2 20 11 39 20 26 12 30 17 15 17 -12 0 -26 -5 -33 -12 -18 -18 -14 -4 13 48 24 44 24 48 9 66 -21 23 -57 23 -75 1 -13 -16 -12 -17 3 -5 9 8 27 12 40 10 34 -5 35 -42 2 -89 -28 -42 -60 -54 -51 -19 3 10 0 21 -7 23 -8 3 -8 10 2 26 18 30 15 37 -8 16 -19 -17 -20 -17 -41 9 -14 18 -30 26 -51 26 -23 0 -29 4 -24 15 8 22 3 19 -37 -22z m180 -139 c5 -15 -28 -27 -40 -15 -5 5 -6 14 -2 21 8 13 37 9 42 -6z" transform="translate(0,78) scale(0.1,-0.1)" stroke="none" fill="#936C3F"/>

<path d="M233 725 c-11 -8 -24 -26 -27 -40 l-7 -26 -28 30 c-16 17 -38 31 -49 31 -34 0 -77 -20 -91 -41 -11 -19 -10 -25 8 -50 12 -16 17 -29 11 -29 -5 0 -10 -9 -10 -19 0 -11 -6 -21 -12 -24 -8 -2 -9 -8 -4 -13 5 -5 11 -4 13 4 9 24 22 12 17 -16 -7 -33 21 -72 77 -108 55 -34 86 -32 94 6 l7 31 29 -41 c16 -22 35 -40 42 -40 6 0 4 5 -6 11 -39 23 -74 139 -41 139 15 0 101 -66 113 -88 6 -9 11 -12 11 -5 0 6 -24 32 -52 57 -41 36 -48 46 -33 47 18 0 18 1 -2 9 -35 14 -28 38 15 50 50 16 95 0 90 -33 -2 -17 -11 -23 -43 -28 -36 -6 -37 -6 -8 -8 45 -2 63 8 63 35 0 43 -65 68 -112 43 -30 -16 -32 -5 -3 36 31 46 31 59 3 79 -28 20 -38 20 -65 1z m71 -14 c13 -20 -49 -121 -74 -121 -5 0 -6 90 -1 123 1 10 69 9 75 -2z m-121 -52 c21 -38 21 -43 1 -63 -22 -23 -59 -20 -104 9 -59 37 -54 87 10 97 40 6 74 -10 93 -43z m-98 -79 c0 -7 -6 -15 -12 -17 -8 -3 -13 4 -13 17 0 13 5 20 13 18 6 -3 12 -11 12 -18z m159 -15 c6 -16 -10 -20 -38 -9 -24 9 -19 24 8 24 13 0 26 -7 30 -15z m-55 -21 c25 -20 31 -34 31 -64 0 -78 -19 -87 -91 -42 -81 52 -90 110 -18 123 19 4 37 7 41 8 3 0 20 -11 37 -25z" transform="translate(0,78) scale(0.1,-0.1)" stroke="none" fill="#936C3F"/>

<path d="M344 360 c-49 -20 -41 -60 16 -87 22 -10 40 -21 40 -25 0 -4 -13 -14 -30 -23 -54 -28 -33 -81 53 -134 47 -29 64 -23 72 26 11 64 17 71 27 26 15 -70 81 -116 116 -81 21 21 13 45 -29 82 -50 45 -86 61 -105 45 -11 -9 -20 -6 -41 15 l-26 27 21 20 c26 24 27 32 5 67 -32 51 -66 64 -119 42z" transform="translate(0,78) scale(0.1,-0.1)" stroke="none" fill="#F3A181"/>

</g>

<g id="4" transform="translate(0,312.0)scale(0.8,0.8)">

<path d="M648 265 c32 -14 44 -47 22 -58 -6 -3 -5 -4 2 -3 38 8 5 76 -36 76 -16 -1 -14 -4 12 -15z" transform="translate(0,78) scale(0.1,-0.1)" stroke="none" fill="#936C3F"/>

<path d="M298 598 c-58 -21 -13 -62 61 -56 29 2 37 8 39 25 3 17 -3 26 -23 33 -31 12 -41 12 -77 -2z" transform="translate(0,78) scale(0.1,-0.1)" stroke="none" fill="#F3A181"/>

<path d="M229 713 c-5 -33 -4 -123 1 -123 25 0 87 101 74 121 -6 11 -74 12 -75 2z" transform="translate(0,78) scale(0.1,-0.1)" stroke="none" fill="#F3A181"/>

<path d="M578 262 c-21 -9 -38 -20 -38 -24 0 -21 105 -45 128 -29 22 14 10 43 -23 57 -25 10 -36 9 -67 -4z" transform="translate(0,78) scale(0.1,-0.1)" stroke="none" fill="#F3A181"/>

<path d="M514 378 c-5 -7 -9 -17 -9 -23 -1 -5 -5 -19 -10 -29 -5 -13 -5 -21 2 -23 6 -2 9 -13 6 -23 -9 -35 23 -23 51 19 34 49 32 85 -6 89 -14 2 -30 -3 -34 -10z" transform="translate(0,78) scale(0.1,-0.1)" stroke="none" fill="#F3A181"/>

<path d="M242 503 c-2 -39 38 -106 71 -117 23 -8 31 -6 48 11 27 27 16 49 -48 98 -55 42 -68 44 -71 8z" transform="translate(0,78) scale(0.1,-0.1)" stroke="none" fill="#F3A181"/>

<path d="M90 702 c-64 -10 -69 -60 -10 -97 45 -29 82 -32 104 -9 20 20 20 25 -1 63 -19 33 -53 49 -93 43z" transform="translate(0,78) scale(0.1,-0.1)" stroke="none" fill="#F3A181"/>

<path d="M111 561 c-72 -13 -63 -71 18 -123 72 -45 91 -36 91 42 0 30 -6 44 -31 64 -17 14 -34 25 -37 25 -4 -1 -22 -4 -41 -8z" transform="translate(0,78) scale(0.1,-0.1)" stroke="none" fill="#F3A181"/>

<path d="M337 373 c-43 -42 -45 -55 -16 -84 17 -17 19 -23 8 -30 -7 -4 -10 -11 -6 -16 5 -4 12 -1 17 6 4 8 15 11 24 8 14 -6 11 -11 -15 -35 -31 -28 -31 -28 -15 -60 17 -33 81 -86 117 -97 23 -8 49 11 48 34 0 11 -3 9 -9 -7 -12 -29 -27 -28 -75 4 -80 54 -97 102 -45 129 17 9 30 19 30 23 0 4 -18 15 -40 25 -66 30 -63 80 5 93 47 9 71 -2 94 -42 26 -44 26 -49 -1 -73 l-21 -20 26 -27 c21 -21 30 -24 41 -15 19 16 55 0 105 -45 42 -37 50 -61 29 -82 -35 -35 -104 13 -114 79 -4 21 -10 36 -15 33 -11 -6 -12 -41 -1 -46 4 -2 14 -16 24 -33 23 -43 60 -62 95 -49 44 15 43 52 -4 97 -20 21 -41 37 -45 37 -4 0 -8 5 -8 10 0 6 12 10 28 11 25 1 25 2 -6 9 -32 7 -61 26 -51 33 2 2 20 11 39 20 26 12 30 17 15 17 -12 0 -26 -5 -33 -12 -18 -18 -14 -4 13 48 24 44 24 48 9 66 -21 23 -57 23 -75 1 -13 -16 -12 -17 3 -5 9 8 27 12 40 10 34 -5 35 -42 2 -89 -28 -42 -60 -54 -51 -19 3 10 0 21 -7 23 -8 3 -8 10 2 26 18 30 15 37 -8 16 -19 -17 -20 -17 -41 9 -14 18 -30 26 -51 26 -23 0 -29 4 -24 15 8 22 3 19 -37 -22z m180 -139 c5 -15 -28 -27 -40 -15 -5 5 -6 14 -2 21 8 13 37 9 42 -6z" transform="translate(0,78) scale(0.1,-0.1)" stroke="none" fill="#936C3F"/>

<path d="M233 725 c-11 -8 -24 -26 -27 -40 l-7 -26 -28 30 c-16 17 -38 31 -49 31 -34 0 -77 -20 -91 -41 -11 -19 -10 -25 8 -50 12 -16 17 -29 11 -29 -5 0 -10 -9 -10 -19 0 -11 -6 -21 -12 -24 -8 -2 -9 -8 -4 -13 5 -5 11 -4 13 4 9 24 22 12 17 -16 -7 -33 21 -72 77 -108 55 -34 86 -32 94 6 l7 31 29 -41 c16 -22 35 -40 42 -40 6 0 4 5 -6 11 -39 23 -74 139 -41 139 15 0 101 -66 113 -88 6 -9 11 -12 11 -5 0 6 -24 32 -52 57 -41 36 -48 46 -33 47 18 0 18 1 -2 9 -35 14 -28 38 15 50 50 16 95 0 90 -33 -2 -17 -11 -23 -43 -28 -36 -6 -37 -6 -8 -8 45 -2 63 8 63 35 0 43 -65 68 -112 43 -30 -16 -32 -5 -3 36 31 46 31 59 3 79 -28 20 -38 20 -65 1z m71 -14 c13 -20 -49 -121 -74 -121 -5 0 -6 90 -1 123 1 10 69 9 75 -2z m-121 -52 c21 -38 21 -43 1 -63 -22 -23 -59 -20 -104 9 -59 37 -54 87 10 97 40 6 74 -10 93 -43z m-98 -79 c0 -7 -6 -15 -12 -17 -8 -3 -13 4 -13 17 0 13 5 20 13 18 6 -3 12 -11 12 -18z m159 -15 c6 -16 -10 -20 -38 -9 -24 9 -19 24 8 24 13 0 26 -7 30 -15z m-55 -21 c25 -20 31 -34 31 -64 0 -78 -19 -87 -91 -42 -81 52 -90 110 -18 123 19 4 37 7 41 8 3 0 20 -11 37 -25z" transform="translate(0,78) scale(0.1,-0.1)" stroke="none" fill="#936C3F"/>

<path d="M344 360 c-49 -20 -41 -60 16 -87 22 -10 40 -21 40 -25 0 -4 -13 -14 -30 -23 -54 -28 -33 -81 53 -134 47 -29 64 -23 72 26 11 64 17 71 27 26 15 -70 81 -116 116 -81 21 21 13 45 -29 82 -50 45 -86 61 -105 45 -11 -9 -20 -6 -41 15 l-26 27 21 20 c26 24 27 32 5 67 -32 51 -66 64 -119 42z" transform="translate(0,78) scale(0.1,-0.1)" stroke="none" fill="#F3A181"/>

</g>

</g>
<g id="col1" transform="translate(72, -29.0)">
<g id="0" transform="translate(0,0.0)scale(0.8,0.8)">

<path d="M648 265 c32 -14 44 -47 22 -58 -6 -3 -5 -4 2 -3 38 8 5 76 -36 76 -16 -1 -14 -4 12 -15z" transform="translate(0,78) scale(0.1,-0.1)" stroke="none" fill="#936C3F"/>

<path d="M298 598 c-58 -21 -13 -62 61 -56 29 2 37 8 39 25 3 17 -3 26 -23 33 -31 12 -41 12 -77 -2z" transform="translate(0,78) scale(0.1,-0.1)" stroke="none" fill="#F3A181"/>

<path d="M229 713 c-5 -33 -4 -123 1 -123 25 0 87 101 74 121 -6 11 -74 12 -75 2z" transform="translate(0,78) scale(0.1,-0.1)" stroke="none" fill="#F3A181"/>

<path d="M578 262 c-21 -9 -38 -20 -38 -24 0 -21 105 -45 128 -29 22 14 10 43 -23 57 -25 10 -36 9 -67 -4z" transform="translate(0,78) scale(0.1,-0.1)" stroke="none" fill="#F3A181"/>

<path d="M514 378 c-5 -7 -9 -17 -9 -23 -1 -5 -5 -19 -10 -29 -5 -13 -5 -21 2 -23 6 -2 9 -13 6 -23 -9 -35 23 -23 51 19 34 49 32 85 -6 89 -14 2 -30 -3 -34 -10z" transform="translate(0,78) scale(0.1,-0.1)" stroke="none" fill="#F3A181"/>

<path d="M242 503 c-2 -39 38 -106 71 -117 23 -8 31 -6 48 11 27 27 16 49 -48 98 -55 42 -68 44 -71 8z" transform="translate(0,78) scale(0.1,-0.1)" stroke="none" fill="#F3A181"/>

<path d="M90 702 c-64 -10 -69 -60 -10 -97 45 -29 82 -32 104 -9 20 20 20 25 -1 63 -19 33 -53 49 -93 43z" transform="translate(0,78) scale(0.1,-0.1)" stroke="none" fill="#F3A181"/>

<path d="M111 561 c-72 -13 -63 -71 18 -123 72 -45 91 -36 91 42 0 30 -6 44 -31 64 -17 14 -34 25 -37 25 -4 -1 -22 -4 -41 -8z" transform="translate(0,78) scale(0.1,-0.1)" stroke="none" fill="#F3A181"/>

<path d="M337 373 c-43 -42 -45 -55 -16 -84 17 -17 19 -23 8 -30 -7 -4 -10 -11 -6 -16 5 -4 12 -1 17 6 4 8 15 11 24 8 14 -6 11 -11 -15 -35 -31 -28 -31 -28 -15 -60 17 -33 81 -86 117 -97 23 -8 49 11 48 34 0 11 -3 9 -9 -7 -12 -29 -27 -28 -75 4 -80 54 -97 102 -45 129 17 9 30 19 30 23 0 4 -18 15 -40 25 -66 30 -63 80 5 93 47 9 71 -2 94 -42 26 -44 26 -49 -1 -73 l-21 -20 26 -27 c21 -21 30 -24 41 -15 19 16 55 0 105 -45 42 -37 50 -61 29 -82 -35 -35 -104 13 -114 79 -4 21 -10 36 -15 33 -11 -6 -12 -41 -1 -46 4 -2 14 -16 24 -33 23 -43 60 -62 95 -49 44 15 43 52 -4 97 -20 21 -41 37 -45 37 -4 0 -8 5 -8 10 0 6 12 10 28 11 25 1 25 2 -6 9 -32 7 -61 26 -51 33 2 2 20 11 39 20 26 12 30 17 15 17 -12 0 -26 -5 -33 -12 -18 -18 -14 -4 13 48 24 44 24 48 9 66 -21 23 -57 23 -75 1 -13 -16 -12 -17 3 -5 9 8 27 12 40 10 34 -5 35 -42 2 -89 -28 -42 -60 -54 -51 -19 3 10 0 21 -7 23 -8 3 -8 10 2 26 18 30 15 37 -8 16 -19 -17 -20 -17 -41 9 -14 18 -30 26 -51 26 -23 0 -29 4 -24 15 8 22 3 19 -37 -22z m180 -139 c5 -15 -28 -27 -40 -15 -5 5 -6 14 -2 21 8 13 37 9 42 -6z" transform="translate(0,78) scale(0.1,-0.1)" stroke="none" fill="#936C3F"/>

<path d="M233 725 c-11 -8 -24 -26 -27 -40 l-7 -26 -28 30 c-16 17 -38 31 -49 31 -34 0 -77 -20 -91 -41 -11 -19 -10 -25 8 -50 12 -16 17 -29 11 -29 -5 0 -10 -9 -10 -19 0 -11 -6 -21 -12 -24 -8 -2 -9 -8 -4 -13 5 -5 11 -4 13 4 9 24 22 12 17 -16 -7 -33 21 -72 77 -108 55 -34 86 -32 94 6 l7 31 29 -41 c16 -22 35 -40 42 -40 6 0 4 5 -6 11 -39 23 -74 139 -41 139 15 0 101 -66 113 -88 6 -9 11 -12 11 -5 0 6 -24 32 -52 57 -41 36 -48 46 -33 47 18 0 18 1 -2 9 -35 14 -28 38 15 50 50 16 95 0 90 -33 -2 -17 -11 -23 -43 -28 -36 -6 -37 -6 -8 -8 45 -2 63 8 63 35 0 43 -65 68 -112 43 -30 -16 -32 -5 -3 36 31 46 31 59 3 79 -28 20 -38 20 -65 1z m71 -14 c13 -20 -49 -121 -74 -121 -5 0 -6 90 -1 123 1 10 69 9 75 -2z m-121 -52 c21 -38 21 -43 1 -63 -22 -23 -59 -20 -104 9 -59 37 -54 87 10 97 40 6 74 -10 93 -43z m-98 -79 c0 -7 -6 -15 -12 -17 -8 -3 -13 4 -13 17 0 13 5 20 13 18 6 -3 12 -11 12 -18z m159 -15 c6 -16 -10 -20 -38 -9 -24 9 -19 24 8 24 13 0 26 -7 30 -15z m-55 -21 c25 -20 31 -34 31 -64 0 -78 -19 -87 -91 -42 -81 52 -90 110 -18 123 19 4 37 7 41 8 3 0 20 -11 37 -25z" transform="translate(0,78) scale(0.1,-0.1)" stroke="none" fill="#936C3F"/>

<path d="M344 360 c-49 -20 -41 -60 16 -87 22 -10 40 -21 40 -25 0 -4 -13 -14 -30 -23 -54 -28 -33 -81 53 -134 47 -29 64 -23 72 26 11 64 17 71 27 26 15 -70 81 -116 116 -81 21 21 13 45 -29 82 -50 45 -86 61 -105 45 -11 -9 -20 -6 -41 15 l-26 27 21 20 c26 24 27 32 5 67 -32 51 -66 64 -119 42z" transform="translate(0,78) scale(0.1,-0.1)" stroke="none" fill="#F3A181"/>

</g>

<g id="1" transform="translate(0,78.0)scale(0.8,0.8)">

<path d="M648 265 c32 -14 44 -47 22 -58 -6 -3 -5 -4 2 -3 38 8 5 76 -36 76 -16 -1 -14 -4 12 -15z" transform="translate(0,78) scale(0.1,-0.1)" stroke="none" fill="#936C3F"/>

<path d="M298 598 c-58 -21 -13 -62 61 -56 29 2 37 8 39 25 3 17 -3 26 -23 33 -31 12 -41 12 -77 -2z" transform="translate(0,78) scale(0.1,-0.1)" stroke="none" fill="#F3A181"/>

<path d="M229 713 c-5 -33 -4 -123 1 -123 25 0 87 101 74 121 -6 11 -74 12 -75 2z" transform="translate(0,78) scale(0.1,-0.1)" stroke="none" fill="#F3A181"/>

<path d="M578 262 c-21 -9 -38 -20 -38 -24 0 -21 105 -45 128 -29 22 14 10 43 -23 57 -25 10 -36 9 -67 -4z" transform="translate(0,78) scale(0.1,-0.1)" stroke="none" fill="#F3A181"/>

<path d="M514 378 c-5 -7 -9 -17 -9 -23 -1 -5 -5 -19 -10 -29 -5 -13 -5 -21 2 -23 6 -2 9 -13 6 -23 -9 -35 23 -23 51 19 34 49 32 85 -6 89 -14 2 -30 -3 -34 -10z" transform="translate(0,78) scale(0.1,-0.1)" stroke="none" fill="#F3A181"/>

<path d="M242 503 c-2 -39 38 -106 71 -117 23 -8 31 -6 48 11 27 27 16 49 -48 98 -55 42 -68 44 -71 8z" transform="translate(0,78) scale(0.1,-0.1)" stroke="none" fill="#F3A181"/>

<path d="M90 702 c-64 -10 -69 -60 -10 -97 45 -29 82 -32 104 -9 20 20 20 25 -1 63 -19 33 -53 49 -93 43z" transform="translate(0,78) scale(0.1,-0.1)" stroke="none" fill="#F3A181"/>

<path d="M111 561 c-72 -13 -63 -71 18 -123 72 -45 91 -36 91 42 0 30 -6 44 -31 64 -17 14 -34 25 -37 25 -4 -1 -22 -4 -41 -8z" transform="translate(0,78) scale(0.1,-0.1)" stroke="none" fill="#F3A181"/>

<path d="M337 373 c-43 -42 -45 -55 -16 -84 17 -17 19 -23 8 -30 -7 -4 -10 -11 -6 -16 5 -4 12 -1 17 6 4 8 15 11 24 8 14 -6 11 -11 -15 -35 -31 -28 -31 -28 -15 -60 17 -33 81 -86 117 -97 23 -8 49 11 48 34 0 11 -3 9 -9 -7 -12 -29 -27 -28 -75 4 -80 54 -97 102 -45 129 17 9 30 19 30 23 0 4 -18 15 -40 25 -66 30 -63 80 5 93 47 9 71 -2 94 -42 26 -44 26 -49 -1 -73 l-21 -20 26 -27 c21 -21 30 -24 41 -15 19 16 55 0 105 -45 42 -37 50 -61 29 -82 -35 -35 -104 13 -114 79 -4 21 -10 36 -15 33 -11 -6 -12 -41 -1 -46 4 -2 14 -16 24 -33 23 -43 60 -62 95 -49 44 15 43 52 -4 97 -20 21 -41 37 -45 37 -4 0 -8 5 -8 10 0 6 12 10 28 11 25 1 25 2 -6 9 -32 7 -61 26 -51 33 2 2 20 11 39 20 26 12 30 17 15 17 -12 0 -26 -5 -33 -12 -18 -18 -14 -4 13 48 24 44 24 48 9 66 -21 23 -57 23 -75 1 -13 -16 -12 -17 3 -5 9 8 27 12 40 10 34 -5 35 -42 2 -89 -28 -42 -60 -54 -51 -19 3 10 0 21 -7 23 -8 3 -8 10 2 26 18 30 15 37 -8 16 -19 -17 -20 -17 -41 9 -14 18 -30 26 -51 26 -23 0 -29 4 -24 15 8 22 3 19 -37 -22z m180 -139 c5 -15 -28 -27 -40 -15 -5 5 -6 14 -2 21 8 13 37 9 42 -6z" transform="translate(0,78) scale(0.1,-0.1)" stroke="none" fill="#936C3F"/>

<path d="M233 725 c-11 -8 -24 -26 -27 -40 l-7 -26 -28 30 c-16 17 -38 31 -49 31 -34 0 -77 -20 -91 -41 -11 -19 -10 -25 8 -50 12 -16 17 -29 11 -29 -5 0 -10 -9 -10 -19 0 -11 -6 -21 -12 -24 -8 -2 -9 -8 -4 -13 5 -5 11 -4 13 4 9 24 22 12 17 -16 -7 -33 21 -72 77 -108 55 -34 86 -32 94 6 l7 31 29 -41 c16 -22 35 -40 42 -40 6 0 4 5 -6 11 -39 23 -74 139 -41 139 15 0 101 -66 113 -88 6 -9 11 -12 11 -5 0 6 -24 32 -52 57 -41 36 -48 46 -33 47 18 0 18 1 -2 9 -35 14 -28 38 15 50 50 16 95 0 90 -33 -2 -17 -11 -23 -43 -28 -36 -6 -37 -6 -8 -8 45 -2 63 8 63 35 0 43 -65 68 -112 43 -30 -16 -32 -5 -3 36 31 46 31 59 3 79 -28 20 -38 20 -65 1z m71 -14 c13 -20 -49 -121 -74 -121 -5 0 -6 90 -1 123 1 10 69 9 75 -2z m-121 -52 c21 -38 21 -43 1 -63 -22 -23 -59 -20 -104 9 -59 37 -54 87 10 97 40 6 74 -10 93 -43z m-98 -79 c0 -7 -6 -15 -12 -17 -8 -3 -13 4 -13 17 0 13 5 20 13 18 6 -3 12 -11 12 -18z m159 -15 c6 -16 -10 -20 -38 -9 -24 9 -19 24 8 24 13 0 26 -7 30 -15z m-55 -21 c25 -20 31 -34 31 -64 0 -78 -19 -87 -91 -42 -81 52 -90 110 -18 123 19 4 37 7 41 8 3 0 20 -11 37 -25z" transform="translate(0,78) scale(0.1,-0.1)" stroke="none" fill="#936C3F"/>

<path d="M344 360 c-49 -20 -41 -60 16 -87 22 -10 40 -21 40 -25 0 -4 -13 -14 -30 -23 -54 -28 -33 -81 53 -134 47 -29 64 -23 72 26 11 64 17 71 27 26 15 -70 81 -116 116 -81 21 21 13 45 -29 82 -50 45 -86 61 -105 45 -11 -9 -20 -6 -41 15 l-26 27 21 20 c26 24 27 32 5 67 -32 51 -66 64 -119 42z" transform="translate(0,78) scale(0.1,-0.1)" stroke="none" fill="#F3A181"/>

</g>

<g id="2" transform="translate(0,156.0)scale(0.8,0.8)">

<path d="M648 265 c32 -14 44 -47 22 -58 -6 -3 -5 -4 2 -3 38 8 5 76 -36 76 -16 -1 -14 -4 12 -15z" transform="translate(0,78) scale(0.1,-0.1)" stroke="none" fill="#936C3F"/>

<path d="M298 598 c-58 -21 -13 -62 61 -56 29 2 37 8 39 25 3 17 -3 26 -23 33 -31 12 -41 12 -77 -2z" transform="translate(0,78) scale(0.1,-0.1)" stroke="none" fill="#F3A181"/>

<path d="M229 713 c-5 -33 -4 -123 1 -123 25 0 87 101 74 121 -6 11 -74 12 -75 2z" transform="translate(0,78) scale(0.1,-0.1)" stroke="none" fill="#F3A181"/>

<path d="M578 262 c-21 -9 -38 -20 -38 -24 0 -21 105 -45 128 -29 22 14 10 43 -23 57 -25 10 -36 9 -67 -4z" transform="translate(0,78) scale(0.1,-0.1)" stroke="none" fill="#F3A181"/>

<path d="M514 378 c-5 -7 -9 -17 -9 -23 -1 -5 -5 -19 -10 -29 -5 -13 -5 -21 2 -23 6 -2 9 -13 6 -23 -9 -35 23 -23 51 19 34 49 32 85 -6 89 -14 2 -30 -3 -34 -10z" transform="translate(0,78) scale(0.1,-0.1)" stroke="none" fill="#F3A181"/>

<path d="M242 503 c-2 -39 38 -106 71 -117 23 -8 31 -6 48 11 27 27 16 49 -48 98 -55 42 -68 44 -71 8z" transform="translate(0,78) scale(0.1,-0.1)" stroke="none" fill="#F3A181"/>

<path d="M90 702 c-64 -10 -69 -60 -10 -97 45 -29 82 -32 104 -9 20 20 20 25 -1 63 -19 33 -53 49 -93 43z" transform="translate(0,78) scale(0.1,-0.1)" stroke="none" fill="#F3A181"/>

<path d="M111 561 c-72 -13 -63 -71 18 -123 72 -45 91 -36 91 42 0 30 -6 44 -31 64 -17 14 -34 25 -37 25 -4 -1 -22 -4 -41 -8z" transform="translate(0,78) scale(0.1,-0.1)" stroke="none" fill="#F3A181"/>

<path d="M337 373 c-43 -42 -45 -55 -16 -84 17 -17 19 -23 8 -30 -7 -4 -10 -11 -6 -16 5 -4 12 -1 17 6 4 8 15 11 24 8 14 -6 11 -11 -15 -35 -31 -28 -31 -28 -15 -60 17 -33 81 -86 117 -97 23 -8 49 11 48 34 0 11 -3 9 -9 -7 -12 -29 -27 -28 -75 4 -80 54 -97 102 -45 129 17 9 30 19 30 23 0 4 -18 15 -40 25 -66 30 -63 80 5 93 47 9 71 -2 94 -42 26 -44 26 -49 -1 -73 l-21 -20 26 -27 c21 -21 30 -24 41 -15 19 16 55 0 105 -45 42 -37 50 -61 29 -82 -35 -35 -104 13 -114 79 -4 21 -10 36 -15 33 -11 -6 -12 -41 -1 -46 4 -2 14 -16 24 -33 23 -43 60 -62 95 -49 44 15 43 52 -4 97 -20 21 -41 37 -45 37 -4 0 -8 5 -8 10 0 6 12 10 28 11 25 1 25 2 -6 9 -32 7 -61 26 -51 33 2 2 20 11 39 20 26 12 30 17 15 17 -12 0 -26 -5 -33 -12 -18 -18 -14 -4 13 48 24 44 24 48 9 66 -21 23 -57 23 -75 1 -13 -16 -12 -17 3 -5 9 8 27 12 40 10 34 -5 35 -42 2 -89 -28 -42 -60 -54 -51 -19 3 10 0 21 -7 23 -8 3 -8 10 2 26 18 30 15 37 -8 16 -19 -17 -20 -17 -41 9 -14 18 -30 26 -51 26 -23 0 -29 4 -24 15 8 22 3 19 -37 -22z m180 -139 c5 -15 -28 -27 -40 -15 -5 5 -6 14 -2 21 8 13 37 9 42 -6z" transform="translate(0,78) scale(0.1,-0.1)" stroke="none" fill="#936C3F"/>

<path d="M233 725 c-11 -8 -24 -26 -27 -40 l-7 -26 -28 30 c-16 17 -38 31 -49 31 -34 0 -77 -20 -91 -41 -11 -19 -10 -25 8 -50 12 -16 17 -29 11 -29 -5 0 -10 -9 -10 -19 0 -11 -6 -21 -12 -24 -8 -2 -9 -8 -4 -13 5 -5 11 -4 13 4 9 24 22 12 17 -16 -7 -33 21 -72 77 -108 55 -34 86 -32 94 6 l7 31 29 -41 c16 -22 35 -40 42 -40 6 0 4 5 -6 11 -39 23 -74 139 -41 139 15 0 101 -66 113 -88 6 -9 11 -12 11 -5 0 6 -24 32 -52 57 -41 36 -48 46 -33 47 18 0 18 1 -2 9 -35 14 -28 38 15 50 50 16 95 0 90 -33 -2 -17 -11 -23 -43 -28 -36 -6 -37 -6 -8 -8 45 -2 63 8 63 35 0 43 -65 68 -112 43 -30 -16 -32 -5 -3 36 31 46 31 59 3 79 -28 20 -38 20 -65 1z m71 -14 c13 -20 -49 -121 -74 -121 -5 0 -6 90 -1 123 1 10 69 9 75 -2z m-121 -52 c21 -38 21 -43 1 -63 -22 -23 -59 -20 -104 9 -59 37 -54 87 10 97 40 6 74 -10 93 -43z m-98 -79 c0 -7 -6 -15 -12 -17 -8 -3 -13 4 -13 17 0 13 5 20 13 18 6 -3 12 -11 12 -18z m159 -15 c6 -16 -10 -20 -38 -9 -24 9 -19 24 8 24 13 0 26 -7 30 -15z m-55 -21 c25 -20 31 -34 31 -64 0 -78 -19 -87 -91 -42 -81 52 -90 110 -18 123 19 4 37 7 41 8 3 0 20 -11 37 -25z" transform="translate(0,78) scale(0.1,-0.1)" stroke="none" fill="#936C3F"/>

<path d="M344 360 c-49 -20 -41 -60 16 -87 22 -10 40 -21 40 -25 0 -4 -13 -14 -30 -23 -54 -28 -33 -81 53 -134 47 -29 64 -23 72 26 11 64 17 71 27 26 15 -70 81 -116 116 -81 21 21 13 45 -29 82 -50 45 -86 61 -105 45 -11 -9 -20 -6 -41 15 l-26 27 21 20 c26 24 27 32 5 67 -32 51 -66 64 -119 42z" transform="translate(0,78) scale(0.1,-0.1)" stroke="none" fill="#F3A181"/>

</g>

<g id="3" transform="translate(0,234.0)scale(0.8,0.8)">

<path d="M648 265 c32 -14 44 -47 22 -58 -6 -3 -5 -4 2 -3 38 8 5 76 -36 76 -16 -1 -14 -4 12 -15z" transform="translate(0,78) scale(0.1,-0.1)" stroke="none" fill="#936C3F"/>

<path d="M298 598 c-58 -21 -13 -62 61 -56 29 2 37 8 39 25 3 17 -3 26 -23 33 -31 12 -41 12 -77 -2z" transform="translate(0,78) scale(0.1,-0.1)" stroke="none" fill="#F3A181"/>

<path d="M229 713 c-5 -33 -4 -123 1 -123 25 0 87 101 74 121 -6 11 -74 12 -75 2z" transform="translate(0,78) scale(0.1,-0.1)" stroke="none" fill="#F3A181"/>

<path d="M578 262 c-21 -9 -38 -20 -38 -24 0 -21 105 -45 128 -29 22 14 10 43 -23 57 -25 10 -36 9 -67 -4z" transform="translate(0,78) scale(0.1,-0.1)" stroke="none" fill="#F3A181"/>

<path d="M514 378 c-5 -7 -9 -17 -9 -23 -1 -5 -5 -19 -10 -29 -5 -13 -5 -21 2 -23 6 -2 9 -13 6 -23 -9 -35 23 -23 51 19 34 49 32 85 -6 89 -14 2 -30 -3 -34 -10z" transform="translate(0,78) scale(0.1,-0.1)" stroke="none" fill="#F3A181"/>

<path d="M242 503 c-2 -39 38 -106 71 -117 23 -8 31 -6 48 11 27 27 16 49 -48 98 -55 42 -68 44 -71 8z" transform="translate(0,78) scale(0.1,-0.1)" stroke="none" fill="#F3A181"/>

<path d="M90 702 c-64 -10 -69 -60 -10 -97 45 -29 82 -32 104 -9 20 20 20 25 -1 63 -19 33 -53 49 -93 43z" transform="translate(0,78) scale(0.1,-0.1)" stroke="none" fill="#F3A181"/>

<path d="M111 561 c-72 -13 -63 -71 18 -123 72 -45 91 -36 91 42 0 30 -6 44 -31 64 -17 14 -34 25 -37 25 -4 -1 -22 -4 -41 -8z" transform="translate(0,78) scale(0.1,-0.1)" stroke="none" fill="#F3A181"/>

<path d="M337 373 c-43 -42 -45 -55 -16 -84 17 -17 19 -23 8 -30 -7 -4 -10 -11 -6 -16 5 -4 12 -1 17 6 4 8 15 11 24 8 14 -6 11 -11 -15 -35 -31 -28 -31 -28 -15 -60 17 -33 81 -86 117 -97 23 -8 49 11 48 34 0 11 -3 9 -9 -7 -12 -29 -27 -28 -75 4 -80 54 -97 102 -45 129 17 9 30 19 30 23 0 4 -18 15 -40 25 -66 30 -63 80 5 93 47 9 71 -2 94 -42 26 -44 26 -49 -1 -73 l-21 -20 26 -27 c21 -21 30 -24 41 -15 19 16 55 0 105 -45 42 -37 50 -61 29 -82 -35 -35 -104 13 -114 79 -4 21 -10 36 -15 33 -11 -6 -12 -41 -1 -46 4 -2 14 -16 24 -33 23 -43 60 -62 95 -49 44 15 43 52 -4 97 -20 21 -41 37 -45 37 -4 0 -8 5 -8 10 0 6 12 10 28 11 25 1 25 2 -6 9 -32 7 -61 26 -51 33 2 2 20 11 39 20 26 12 30 17 15 17 -12 0 -26 -5 -33 -12 -18 -18 -14 -4 13 48 24 44 24 48 9 66 -21 23 -57 23 -75 1 -13 -16 -12 -17 3 -5 9 8 27 12 40 10 34 -5 35 -42 2 -89 -28 -42 -60 -54 -51 -19 3 10 0 21 -7 23 -8 3 -8 10 2 26 18 30 15 37 -8 16 -19 -17 -20 -17 -41 9 -14 18 -30 26 -51 26 -23 0 -29 4 -24 15 8 22 3 19 -37 -22z m180 -139 c5 -15 -28 -27 -40 -15 -5 5 -6 14 -2 21 8 13 37 9 42 -6z" transform="translate(0,78) scale(0.1,-0.1)" stroke="none" fill="#936C3F"/>

<path d="M233 725 c-11 -8 -24 -26 -27 -40 l-7 -26 -28 30 c-16 17 -38 31 -49 31 -34 0 -77 -20 -91 -41 -11 -19 -10 -25 8 -50 12 -16 17 -29 11 -29 -5 0 -10 -9 -10 -19 0 -11 -6 -21 -12 -24 -8 -2 -9 -8 -4 -13 5 -5 11 -4 13 4 9 24 22 12 17 -16 -7 -33 21 -72 77 -108 55 -34 86 -32 94 6 l7 31 29 -41 c16 -22 35 -40 42 -40 6 0 4 5 -6 11 -39 23 -74 139 -41 139 15 0 101 -66 113 -88 6 -9 11 -12 11 -5 0 6 -24 32 -52 57 -41 36 -48 46 -33 47 18 0 18 1 -2 9 -35 14 -28 38 15 50 50 16 95 0 90 -33 -2 -17 -11 -23 -43 -28 -36 -6 -37 -6 -8 -8 45 -2 63 8 63 35 0 43 -65 68 -112 43 -30 -16 -32 -5 -3 36 31 46 31 59 3 79 -28 20 -38 20 -65 1z m71 -14 c13 -20 -49 -121 -74 -121 -5 0 -6 90 -1 123 1 10 69 9 75 -2z m-121 -52 c21 -38 21 -43 1 -63 -22 -23 -59 -20 -104 9 -59 37 -54 87 10 97 40 6 74 -10 93 -43z m-98 -79 c0 -7 -6 -15 -12 -17 -8 -3 -13 4 -13 17 0 13 5 20 13 18 6 -3 12 -11 12 -18z m159 -15 c6 -16 -10 -20 -38 -9 -24 9 -19 24 8 24 13 0 26 -7 30 -15z m-55 -21 c25 -20 31 -34 31 -64 0 -78 -19 -87 -91 -42 -81 52 -90 110 -18 123 19 4 37 7 41 8 3 0 20 -11 37 -25z" transform="translate(0,78) scale(0.1,-0.1)" stroke="none" fill="#936C3F"/>

<path d="M344 360 c-49 -20 -41 -60 16 -87 22 -10 40 -21 40 -25 0 -4 -13 -14 -30 -23 -54 -28 -33 -81 53 -134 47 -29 64 -23 72 26 11 64 17 71 27 26 15 -70 81 -116 116 -81 21 21 13 45 -29 82 -50 45 -86 61 -105 45 -11 -9 -20 -6 -41 15 l-26 27 21 20 c26 24 27 32 5 67 -32 51 -66 64 -119 42z" transform="translate(0,78) scale(0.1,-0.1)" stroke="none" fill="#F3A181"/>

</g>

<g id="4" transform="translate(0,312.0)scale(0.8,0.8)">

<path d="M648 265 c32 -14 44 -47 22 -58 -6 -3 -5 -4 2 -3 38 8 5 76 -36 76 -16 -1 -14 -4 12 -15z" transform="translate(0,78) scale(0.1,-0.1)" stroke="none" fill="#936C3F"/>

<path d="M298 598 c-58 -21 -13 -62 61 -56 29 2 37 8 39 25 3 17 -3 26 -23 33 -31 12 -41 12 -77 -2z" transform="translate(0,78) scale(0.1,-0.1)" stroke="none" fill="#F3A181"/>

<path d="M229 713 c-5 -33 -4 -123 1 -123 25 0 87 101 74 121 -6 11 -74 12 -75 2z" transform="translate(0,78) scale(0.1,-0.1)" stroke="none" fill="#F3A181"/>

<path d="M578 262 c-21 -9 -38 -20 -38 -24 0 -21 105 -45 128 -29 22 14 10 43 -23 57 -25 10 -36 9 -67 -4z" transform="translate(0,78) scale(0.1,-0.1)" stroke="none" fill="#F3A181"/>

<path d="M514 378 c-5 -7 -9 -17 -9 -23 -1 -5 -5 -19 -10 -29 -5 -13 -5 -21 2 -23 6 -2 9 -13 6 -23 -9 -35 23 -23 51 19 34 49 32 85 -6 89 -14 2 -30 -3 -34 -10z" transform="translate(0,78) scale(0.1,-0.1)" stroke="none" fill="#F3A181"/>

<path d="M242 503 c-2 -39 38 -106 71 -117 23 -8 31 -6 48 11 27 27 16 49 -48 98 -55 42 -68 44 -71 8z" transform="translate(0,78) scale(0.1,-0.1)" stroke="none" fill="#F3A181"/>

<path d="M90 702 c-64 -10 -69 -60 -10 -97 45 -29 82 -32 104 -9 20 20 20 25 -1 63 -19 33 -53 49 -93 43z" transform="translate(0,78) scale(0.1,-0.1)" stroke="none" fill="#F3A181"/>

<path d="M111 561 c-72 -13 -63 -71 18 -123 72 -45 91 -36 91 42 0 30 -6 44 -31 64 -17 14 -34 25 -37 25 -4 -1 -22 -4 -41 -8z" transform="translate(0,78) scale(0.1,-0.1)" stroke="none" fill="#F3A181"/>

<path d="M337 373 c-43 -42 -45 -55 -16 -84 17 -17 19 -23 8 -30 -7 -4 -10 -11 -6 -16 5 -4 12 -1 17 6 4 8 15 11 24 8 14 -6 11 -11 -15 -35 -31 -28 -31 -28 -15 -60 17 -33 81 -86 117 -97 23 -8 49 11 48 34 0 11 -3 9 -9 -7 -12 -29 -27 -28 -75 4 -80 54 -97 102 -45 129 17 9 30 19 30 23 0 4 -18 15 -40 25 -66 30 -63 80 5 93 47 9 71 -2 94 -42 26 -44 26 -49 -1 -73 l-21 -20 26 -27 c21 -21 30 -24 41 -15 19 16 55 0 105 -45 42 -37 50 -61 29 -82 -35 -35 -104 13 -114 79 -4 21 -10 36 -15 33 -11 -6 -12 -41 -1 -46 4 -2 14 -16 24 -33 23 -43 60 -62 95 -49 44 15 43 52 -4 97 -20 21 -41 37 -45 37 -4 0 -8 5 -8 10 0 6 12 10 28 11 25 1 25 2 -6 9 -32 7 -61 26 -51 33 2 2 20 11 39 20 26 12 30 17 15 17 -12 0 -26 -5 -33 -12 -18 -18 -14 -4 13 48 24 44 24 48 9 66 -21 23 -57 23 -75 1 -13 -16 -12 -17 3 -5 9 8 27 12 40 10 34 -5 35 -42 2 -89 -28 -42 -60 -54 -51 -19 3 10 0 21 -7 23 -8 3 -8 10 2 26 18 30 15 37 -8 16 -19 -17 -20 -17 -41 9 -14 18 -30 26 -51 26 -23 0 -29 4 -24 15 8 22 3 19 -37 -22z m180 -139 c5 -15 -28 -27 -40 -15 -5 5 -6 14 -2 21 8 13 37 9 42 -6z" transform="translate(0,78) scale(0.1,-0.1)" stroke="none" fill="#936C3F"/>

<path d="M233 725 c-11 -8 -24 -26 -27 -40 l-7 -26 -28 30 c-16 17 -38 31 -49 31 -34 0 -77 -20 -91 -41 -11 -19 -10 -25 8 -50 12 -16 17 -29 11 -29 -5 0 -10 -9 -10 -19 0 -11 -6 -21 -12 -24 -8 -2 -9 -8 -4 -13 5 -5 11 -4 13 4 9 24 22 12 17 -16 -7 -33 21 -72 77 -108 55 -34 86 -32 94 6 l7 31 29 -41 c16 -22 35 -40 42 -40 6 0 4 5 -6 11 -39 23 -74 139 -41 139 15 0 101 -66 113 -88 6 -9 11 -12 11 -5 0 6 -24 32 -52 57 -41 36 -48 46 -33 47 18 0 18 1 -2 9 -35 14 -28 38 15 50 50 16 95 0 90 -33 -2 -17 -11 -23 -43 -28 -36 -6 -37 -6 -8 -8 45 -2 63 8 63 35 0 43 -65 68 -112 43 -30 -16 -32 -5 -3 36 31 46 31 59 3 79 -28 20 -38 20 -65 1z m71 -14 c13 -20 -49 -121 -74 -121 -5 0 -6 90 -1 123 1 10 69 9 75 -2z m-121 -52 c21 -38 21 -43 1 -63 -22 -23 -59 -20 -104 9 -59 37 -54 87 10 97 40 6 74 -10 93 -43z m-98 -79 c0 -7 -6 -15 -12 -17 -8 -3 -13 4 -13 17 0 13 5 20 13 18 6 -3 12 -11 12 -18z m159 -15 c6 -16 -10 -20 -38 -9 -24 9 -19 24 8 24 13 0 26 -7 30 -15z m-55 -21 c25 -20 31 -34 31 -64 0 -78 -19 -87 -91 -42 -81 52 -90 110 -18 123 19 4 37 7 41 8 3 0 20 -11 37 -25z" transform="translate(0,78) scale(0.1,-0.1)" stroke="none" fill="#936C3F"/>

<path d="M344 360 c-49 -20 -41 -60 16 -87 22 -10 40 -21 40 -25 0 -4 -13 -14 -30 -23 -54 -28 -33 -81 53 -134 47 -29 64 -23 72 26 11 64 17 71 27 26 15 -70 81 -116 116 -81 21 21 13 45 -29 82 -50 45 -86 61 -105 45 -11 -9 -20 -6 -41 15 l-26 27 21 20 c26 24 27 32 5 67 -32 51 -66 64 -119 42z" transform="translate(0,78) scale(0.1,-0.1)" stroke="none" fill="#F3A181"/>

</g>

</g>
<g id="col2" transform="translate(144, 10)">
<g id="0" transform="translate(0,0.0)scale(0.8,0.8)">

<path d="M648 265 c32 -14 44 -47 22 -58 -6 -3 -5 -4 2 -3 38 8 5 76 -36 76 -16 -1 -14 -4 12 -15z" transform="translate(0,78) scale(0.1,-0.1)" stroke="none" fill="#936C3F"/>

<path d="M298 598 c-58 -21 -13 -62 61 -56 29 2 37 8 39 25 3 17 -3 26 -23 33 -31 12 -41 12 -77 -2z" transform="translate(0,78) scale(0.1,-0.1)" stroke="none" fill="#F3A181"/>

<path d="M229 713 c-5 -33 -4 -123 1 -123 25 0 87 101 74 121 -6 11 -74 12 -75 2z" transform="translate(0,78) scale(0.1,-0.1)" stroke="none" fill="#F3A181"/>

<path d="M578 262 c-21 -9 -38 -20 -38 -24 0 -21 105 -45 128 -29 22 14 10 43 -23 57 -25 10 -36 9 -67 -4z" transform="translate(0,78) scale(0.1,-0.1)" stroke="none" fill="#F3A181"/>

<path d="M514 378 c-5 -7 -9 -17 -9 -23 -1 -5 -5 -19 -10 -29 -5 -13 -5 -21 2 -23 6 -2 9 -13 6 -23 -9 -35 23 -23 51 19 34 49 32 85 -6 89 -14 2 -30 -3 -34 -10z" transform="translate(0,78) scale(0.1,-0.1)" stroke="none" fill="#F3A181"/>

<path d="M242 503 c-2 -39 38 -106 71 -117 23 -8 31 -6 48 11 27 27 16 49 -48 98 -55 42 -68 44 -71 8z" transform="translate(0,78) scale(0.1,-0.1)" stroke="none" fill="#F3A181"/>

<path d="M90 702 c-64 -10 -69 -60 -10 -97 45 -29 82 -32 104 -9 20 20 20 25 -1 63 -19 33 -53 49 -93 43z" transform="translate(0,78) scale(0.1,-0.1)" stroke="none" fill="#F3A181"/>

<path d="M111 561 c-72 -13 -63 -71 18 -123 72 -45 91 -36 91 42 0 30 -6 44 -31 64 -17 14 -34 25 -37 25 -4 -1 -22 -4 -41 -8z" transform="translate(0,78) scale(0.1,-0.1)" stroke="none" fill="#F3A181"/>

<path d="M337 373 c-43 -42 -45 -55 -16 -84 17 -17 19 -23 8 -30 -7 -4 -10 -11 -6 -16 5 -4 12 -1 17 6 4 8 15 11 24 8 14 -6 11 -11 -15 -35 -31 -28 -31 -28 -15 -60 17 -33 81 -86 117 -97 23 -8 49 11 48 34 0 11 -3 9 -9 -7 -12 -29 -27 -28 -75 4 -80 54 -97 102 -45 129 17 9 30 19 30 23 0 4 -18 15 -40 25 -66 30 -63 80 5 93 47 9 71 -2 94 -42 26 -44 26 -49 -1 -73 l-21 -20 26 -27 c21 -21 30 -24 41 -15 19 16 55 0 105 -45 42 -37 50 -61 29 -82 -35 -35 -104 13 -114 79 -4 21 -10 36 -15 33 -11 -6 -12 -41 -1 -46 4 -2 14 -16 24 -33 23 -43 60 -62 95 -49 44 15 43 52 -4 97 -20 21 -41 37 -45 37 -4 0 -8 5 -8 10 0 6 12 10 28 11 25 1 25 2 -6 9 -32 7 -61 26 -51 33 2 2 20 11 39 20 26 12 30 17 15 17 -12 0 -26 -5 -33 -12 -18 -18 -14 -4 13 48 24 44 24 48 9 66 -21 23 -57 23 -75 1 -13 -16 -12 -17 3 -5 9 8 27 12 40 10 34 -5 35 -42 2 -89 -28 -42 -60 -54 -51 -19 3 10 0 21 -7 23 -8 3 -8 10 2 26 18 30 15 37 -8 16 -19 -17 -20 -17 -41 9 -14 18 -30 26 -51 26 -23 0 -29 4 -24 15 8 22 3 19 -37 -22z m180 -139 c5 -15 -28 -27 -40 -15 -5 5 -6 14 -2 21 8 13 37 9 42 -6z" transform="translate(0,78) scale(0.1,-0.1)" stroke="none" fill="#936C3F"/>

<path d="M233 725 c-11 -8 -24 -26 -27 -40 l-7 -26 -28 30 c-16 17 -38 31 -49 31 -34 0 -77 -20 -91 -41 -11 -19 -10 -25 8 -50 12 -16 17 -29 11 -29 -5 0 -10 -9 -10 -19 0 -11 -6 -21 -12 -24 -8 -2 -9 -8 -4 -13 5 -5 11 -4 13 4 9 24 22 12 17 -16 -7 -33 21 -72 77 -108 55 -34 86 -32 94 6 l7 31 29 -41 c16 -22 35 -40 42 -40 6 0 4 5 -6 11 -39 23 -74 139 -41 139 15 0 101 -66 113 -88 6 -9 11 -12 11 -5 0 6 -24 32 -52 57 -41 36 -48 46 -33 47 18 0 18 1 -2 9 -35 14 -28 38 15 50 50 16 95 0 90 -33 -2 -17 -11 -23 -43 -28 -36 -6 -37 -6 -8 -8 45 -2 63 8 63 35 0 43 -65 68 -112 43 -30 -16 -32 -5 -3 36 31 46 31 59 3 79 -28 20 -38 20 -65 1z m71 -14 c13 -20 -49 -121 -74 -121 -5 0 -6 90 -1 123 1 10 69 9 75 -2z m-121 -52 c21 -38 21 -43 1 -63 -22 -23 -59 -20 -104 9 -59 37 -54 87 10 97 40 6 74 -10 93 -43z m-98 -79 c0 -7 -6 -15 -12 -17 -8 -3 -13 4 -13 17 0 13 5 20 13 18 6 -3 12 -11 12 -18z m159 -15 c6 -16 -10 -20 -38 -9 -24 9 -19 24 8 24 13 0 26 -7 30 -15z m-55 -21 c25 -20 31 -34 31 -64 0 -78 -19 -87 -91 -42 -81 52 -90 110 -18 123 19 4 37 7 41 8 3 0 20 -11 37 -25z" transform="translate(0,78) scale(0.1,-0.1)" stroke="none" fill="#936C3F"/>

<path d="M344 360 c-49 -20 -41 -60 16 -87 22 -10 40 -21 40 -25 0 -4 -13 -14 -30 -23 -54 -28 -33 -81 53 -134 47 -29 64 -23 72 26 11 64 17 71 27 26 15 -70 81 -116 116 -81 21 21 13 45 -29 82 -50 45 -86 61 -105 45 -11 -9 -20 -6 -41 15 l-26 27 21 20 c26 24 27 32 5 67 -32 51 -66 64 -119 42z" transform="translate(0,78) scale(0.1,-0.1)" stroke="none" fill="#F3A181"/>

</g>

<g id="1" transform="translate(0,78.0)scale(0.8,0.8)">

<path d="M648 265 c32 -14 44 -47 22 -58 -6 -3 -5 -4 2 -3 38 8 5 76 -36 76 -16 -1 -14 -4 12 -15z" transform="translate(0,78) scale(0.1,-0.1)" stroke="none" fill="#936C3F"/>

<path d="M298 598 c-58 -21 -13 -62 61 -56 29 2 37 8 39 25 3 17 -3 26 -23 33 -31 12 -41 12 -77 -2z" transform="translate(0,78) scale(0.1,-0.1)" stroke="none" fill="#F3A181"/>

<path d="M229 713 c-5 -33 -4 -123 1 -123 25 0 87 101 74 121 -6 11 -74 12 -75 2z" transform="translate(0,78) scale(0.1,-0.1)" stroke="none" fill="#F3A181"/>

<path d="M578 262 c-21 -9 -38 -20 -38 -24 0 -21 105 -45 128 -29 22 14 10 43 -23 57 -25 10 -36 9 -67 -4z" transform="translate(0,78) scale(0.1,-0.1)" stroke="none" fill="#F3A181"/>

<path d="M514 378 c-5 -7 -9 -17 -9 -23 -1 -5 -5 -19 -10 -29 -5 -13 -5 -21 2 -23 6 -2 9 -13 6 -23 -9 -35 23 -23 51 19 34 49 32 85 -6 89 -14 2 -30 -3 -34 -10z" transform="translate(0,78) scale(0.1,-0.1)" stroke="none" fill="#F3A181"/>

<path d="M242 503 c-2 -39 38 -106 71 -117 23 -8 31 -6 48 11 27 27 16 49 -48 98 -55 42 -68 44 -71 8z" transform="translate(0,78) scale(0.1,-0.1)" stroke="none" fill="#F3A181"/>

<path d="M90 702 c-64 -10 -69 -60 -10 -97 45 -29 82 -32 104 -9 20 20 20 25 -1 63 -19 33 -53 49 -93 43z" transform="translate(0,78) scale(0.1,-0.1)" stroke="none" fill="#F3A181"/>

<path d="M111 561 c-72 -13 -63 -71 18 -123 72 -45 91 -36 91 42 0 30 -6 44 -31 64 -17 14 -34 25 -37 25 -4 -1 -22 -4 -41 -8z" transform="translate(0,78) scale(0.1,-0.1)" stroke="none" fill="#F3A181"/>

<path d="M337 373 c-43 -42 -45 -55 -16 -84 17 -17 19 -23 8 -30 -7 -4 -10 -11 -6 -16 5 -4 12 -1 17 6 4 8 15 11 24 8 14 -6 11 -11 -15 -35 -31 -28 -31 -28 -15 -60 17 -33 81 -86 117 -97 23 -8 49 11 48 34 0 11 -3 9 -9 -7 -12 -29 -27 -28 -75 4 -80 54 -97 102 -45 129 17 9 30 19 30 23 0 4 -18 15 -40 25 -66 30 -63 80 5 93 47 9 71 -2 94 -42 26 -44 26 -49 -1 -73 l-21 -20 26 -27 c21 -21 30 -24 41 -15 19 16 55 0 105 -45 42 -37 50 -61 29 -82 -35 -35 -104 13 -114 79 -4 21 -10 36 -15 33 -11 -6 -12 -41 -1 -46 4 -2 14 -16 24 -33 23 -43 60 -62 95 -49 44 15 43 52 -4 97 -20 21 -41 37 -45 37 -4 0 -8 5 -8 10 0 6 12 10 28 11 25 1 25 2 -6 9 -32 7 -61 26 -51 33 2 2 20 11 39 20 26 12 30 17 15 17 -12 0 -26 -5 -33 -12 -18 -18 -14 -4 13 48 24 44 24 48 9 66 -21 23 -57 23 -75 1 -13 -16 -12 -17 3 -5 9 8 27 12 40 10 34 -5 35 -42 2 -89 -28 -42 -60 -54 -51 -19 3 10 0 21 -7 23 -8 3 -8 10 2 26 18 30 15 37 -8 16 -19 -17 -20 -17 -41 9 -14 18 -30 26 -51 26 -23 0 -29 4 -24 15 8 22 3 19 -37 -22z m180 -139 c5 -15 -28 -27 -40 -15 -5 5 -6 14 -2 21 8 13 37 9 42 -6z" transform="translate(0,78) scale(0.1,-0.1)" stroke="none" fill="#936C3F"/>

<path d="M233 725 c-11 -8 -24 -26 -27 -40 l-7 -26 -28 30 c-16 17 -38 31 -49 31 -34 0 -77 -20 -91 -41 -11 -19 -10 -25 8 -50 12 -16 17 -29 11 -29 -5 0 -10 -9 -10 -19 0 -11 -6 -21 -12 -24 -8 -2 -9 -8 -4 -13 5 -5 11 -4 13 4 9 24 22 12 17 -16 -7 -33 21 -72 77 -108 55 -34 86 -32 94 6 l7 31 29 -41 c16 -22 35 -40 42 -40 6 0 4 5 -6 11 -39 23 -74 139 -41 139 15 0 101 -66 113 -88 6 -9 11 -12 11 -5 0 6 -24 32 -52 57 -41 36 -48 46 -33 47 18 0 18 1 -2 9 -35 14 -28 38 15 50 50 16 95 0 90 -33 -2 -17 -11 -23 -43 -28 -36 -6 -37 -6 -8 -8 45 -2 63 8 63 35 0 43 -65 68 -112 43 -30 -16 -32 -5 -3 36 31 46 31 59 3 79 -28 20 -38 20 -65 1z m71 -14 c13 -20 -49 -121 -74 -121 -5 0 -6 90 -1 123 1 10 69 9 75 -2z m-121 -52 c21 -38 21 -43 1 -63 -22 -23 -59 -20 -104 9 -59 37 -54 87 10 97 40 6 74 -10 93 -43z m-98 -79 c0 -7 -6 -15 -12 -17 -8 -3 -13 4 -13 17 0 13 5 20 13 18 6 -3 12 -11 12 -18z m159 -15 c6 -16 -10 -20 -38 -9 -24 9 -19 24 8 24 13 0 26 -7 30 -15z m-55 -21 c25 -20 31 -34 31 -64 0 -78 -19 -87 -91 -42 -81 52 -90 110 -18 123 19 4 37 7 41 8 3 0 20 -11 37 -25z" transform="translate(0,78) scale(0.1,-0.1)" stroke="none" fill="#936C3F"/>

<path d="M344 360 c-49 -20 -41 -60 16 -87 22 -10 40 -21 40 -25 0 -4 -13 -14 -30 -23 -54 -28 -33 -81 53 -134 47 -29 64 -23 72 26 11 64 17 71 27 26 15 -70 81 -116 116 -81 21 21 13 45 -29 82 -50 45 -86 61 -105 45 -11 -9 -20 -6 -41 15 l-26 27 21 20 c26 24 27 32 5 67 -32 51 -66 64 -119 42z" transform="translate(0,78) scale(0.1,-0.1)" stroke="none" fill="#F3A181"/>

</g>

<g id="2" transform="translate(0,156.0)scale(0.8,0.8)">

<path d="M648 265 c32 -14 44 -47 22 -58 -6 -3 -5 -4 2 -3 38 8 5 76 -36 76 -16 -1 -14 -4 12 -15z" transform="translate(0,78) scale(0.1,-0.1)" stroke="none" fill="#936C3F"/>

<path d="M298 598 c-58 -21 -13 -62 61 -56 29 2 37 8 39 25 3 17 -3 26 -23 33 -31 12 -41 12 -77 -2z" transform="translate(0,78) scale(0.1,-0.1)" stroke="none" fill="#F3A181"/>

<path d="M229 713 c-5 -33 -4 -123 1 -123 25 0 87 101 74 121 -6 11 -74 12 -75 2z" transform="translate(0,78) scale(0.1,-0.1)" stroke="none" fill="#F3A181"/>

<path d="M578 262 c-21 -9 -38 -20 -38 -24 0 -21 105 -45 128 -29 22 14 10 43 -23 57 -25 10 -36 9 -67 -4z" transform="translate(0,78) scale(0.1,-0.1)" stroke="none" fill="#F3A181"/>

<path d="M514 378 c-5 -7 -9 -17 -9 -23 -1 -5 -5 -19 -10 -29 -5 -13 -5 -21 2 -23 6 -2 9 -13 6 -23 -9 -35 23 -23 51 19 34 49 32 85 -6 89 -14 2 -30 -3 -34 -10z" transform="translate(0,78) scale(0.1,-0.1)" stroke="none" fill="#F3A181"/>

<path d="M242 503 c-2 -39 38 -106 71 -117 23 -8 31 -6 48 11 27 27 16 49 -48 98 -55 42 -68 44 -71 8z" transform="translate(0,78) scale(0.1,-0.1)" stroke="none" fill="#F3A181"/>

<path d="M90 702 c-64 -10 -69 -60 -10 -97 45 -29 82 -32 104 -9 20 20 20 25 -1 63 -19 33 -53 49 -93 43z" transform="translate(0,78) scale(0.1,-0.1)" stroke="none" fill="#F3A181"/>

<path d="M111 561 c-72 -13 -63 -71 18 -123 72 -45 91 -36 91 42 0 30 -6 44 -31 64 -17 14 -34 25 -37 25 -4 -1 -22 -4 -41 -8z" transform="translate(0,78) scale(0.1,-0.1)" stroke="none" fill="#F3A181"/>

<path d="M337 373 c-43 -42 -45 -55 -16 -84 17 -17 19 -23 8 -30 -7 -4 -10 -11 -6 -16 5 -4 12 -1 17 6 4 8 15 11 24 8 14 -6 11 -11 -15 -35 -31 -28 -31 -28 -15 -60 17 -33 81 -86 117 -97 23 -8 49 11 48 34 0 11 -3 9 -9 -7 -12 -29 -27 -28 -75 4 -80 54 -97 102 -45 129 17 9 30 19 30 23 0 4 -18 15 -40 25 -66 30 -63 80 5 93 47 9 71 -2 94 -42 26 -44 26 -49 -1 -73 l-21 -20 26 -27 c21 -21 30 -24 41 -15 19 16 55 0 105 -45 42 -37 50 -61 29 -82 -35 -35 -104 13 -114 79 -4 21 -10 36 -15 33 -11 -6 -12 -41 -1 -46 4 -2 14 -16 24 -33 23 -43 60 -62 95 -49 44 15 43 52 -4 97 -20 21 -41 37 -45 37 -4 0 -8 5 -8 10 0 6 12 10 28 11 25 1 25 2 -6 9 -32 7 -61 26 -51 33 2 2 20 11 39 20 26 12 30 17 15 17 -12 0 -26 -5 -33 -12 -18 -18 -14 -4 13 48 24 44 24 48 9 66 -21 23 -57 23 -75 1 -13 -16 -12 -17 3 -5 9 8 27 12 40 10 34 -5 35 -42 2 -89 -28 -42 -60 -54 -51 -19 3 10 0 21 -7 23 -8 3 -8 10 2 26 18 30 15 37 -8 16 -19 -17 -20 -17 -41 9 -14 18 -30 26 -51 26 -23 0 -29 4 -24 15 8 22 3 19 -37 -22z m180 -139 c5 -15 -28 -27 -40 -15 -5 5 -6 14 -2 21 8 13 37 9 42 -6z" transform="translate(0,78) scale(0.1,-0.1)" stroke="none" fill="#936C3F"/>

<path d="M233 725 c-11 -8 -24 -26 -27 -40 l-7 -26 -28 30 c-16 17 -38 31 -49 31 -34 0 -77 -20 -91 -41 -11 -19 -10 -25 8 -50 12 -16 17 -29 11 -29 -5 0 -10 -9 -10 -19 0 -11 -6 -21 -12 -24 -8 -2 -9 -8 -4 -13 5 -5 11 -4 13 4 9 24 22 12 17 -16 -7 -33 21 -72 77 -108 55 -34 86 -32 94 6 l7 31 29 -41 c16 -22 35 -40 42 -40 6 0 4 5 -6 11 -39 23 -74 139 -41 139 15 0 101 -66 113 -88 6 -9 11 -12 11 -5 0 6 -24 32 -52 57 -41 36 -48 46 -33 47 18 0 18 1 -2 9 -35 14 -28 38 15 50 50 16 95 0 90 -33 -2 -17 -11 -23 -43 -28 -36 -6 -37 -6 -8 -8 45 -2 63 8 63 35 0 43 -65 68 -112 43 -30 -16 -32 -5 -3 36 31 46 31 59 3 79 -28 20 -38 20 -65 1z m71 -14 c13 -20 -49 -121 -74 -121 -5 0 -6 90 -1 123 1 10 69 9 75 -2z m-121 -52 c21 -38 21 -43 1 -63 -22 -23 -59 -20 -104 9 -59 37 -54 87 10 97 40 6 74 -10 93 -43z m-98 -79 c0 -7 -6 -15 -12 -17 -8 -3 -13 4 -13 17 0 13 5 20 13 18 6 -3 12 -11 12 -18z m159 -15 c6 -16 -10 -20 -38 -9 -24 9 -19 24 8 24 13 0 26 -7 30 -15z m-55 -21 c25 -20 31 -34 31 -64 0 -78 -19 -87 -91 -42 -81 52 -90 110 -18 123 19 4 37 7 41 8 3 0 20 -11 37 -25z" transform="translate(0,78) scale(0.1,-0.1)" stroke="none" fill="#936C3F"/>

<path d="M344 360 c-49 -20 -41 -60 16 -87 22 -10 40 -21 40 -25 0 -4 -13 -14 -30 -23 -54 -28 -33 -81 53 -134 47 -29 64 -23 72 26 11 64 17 71 27 26 15 -70 81 -116 116 -81 21 21 13 45 -29 82 -50 45 -86 61 -105 45 -11 -9 -20 -6 -41 15 l-26 27 21 20 c26 24 27 32 5 67 -32 51 -66 64 -119 42z" transform="translate(0,78) scale(0.1,-0.1)" stroke="none" fill="#F3A181"/>

</g>

<g id="3" transform="translate(0,234.0)scale(0.8,0.8)">

<path d="M648 265 c32 -14 44 -47 22 -58 -6 -3 -5 -4 2 -3 38 8 5 76 -36 76 -16 -1 -14 -4 12 -15z" transform="translate(0,78) scale(0.1,-0.1)" stroke="none" fill="#936C3F"/>

<path d="M298 598 c-58 -21 -13 -62 61 -56 29 2 37 8 39 25 3 17 -3 26 -23 33 -31 12 -41 12 -77 -2z" transform="translate(0,78) scale(0.1,-0.1)" stroke="none" fill="#F3A181"/>

<path d="M229 713 c-5 -33 -4 -123 1 -123 25 0 87 101 74 121 -6 11 -74 12 -75 2z" transform="translate(0,78) scale(0.1,-0.1)" stroke="none" fill="#F3A181"/>

<path d="M578 262 c-21 -9 -38 -20 -38 -24 0 -21 105 -45 128 -29 22 14 10 43 -23 57 -25 10 -36 9 -67 -4z" transform="translate(0,78) scale(0.1,-0.1)" stroke="none" fill="#F3A181"/>

<path d="M514 378 c-5 -7 -9 -17 -9 -23 -1 -5 -5 -19 -10 -29 -5 -13 -5 -21 2 -23 6 -2 9 -13 6 -23 -9 -35 23 -23 51 19 34 49 32 85 -6 89 -14 2 -30 -3 -34 -10z" transform="translate(0,78) scale(0.1,-0.1)" stroke="none" fill="#F3A181"/>

<path d="M242 503 c-2 -39 38 -106 71 -117 23 -8 31 -6 48 11 27 27 16 49 -48 98 -55 42 -68 44 -71 8z" transform="translate(0,78) scale(0.1,-0.1)" stroke="none" fill="#F3A181"/>

<path d="M90 702 c-64 -10 -69 -60 -10 -97 45 -29 82 -32 104 -9 20 20 20 25 -1 63 -19 33 -53 49 -93 43z" transform="translate(0,78) scale(0.1,-0.1)" stroke="none" fill="#F3A181"/>

<path d="M111 561 c-72 -13 -63 -71 18 -123 72 -45 91 -36 91 42 0 30 -6 44 -31 64 -17 14 -34 25 -37 25 -4 -1 -22 -4 -41 -8z" transform="translate(0,78) scale(0.1,-0.1)" stroke="none" fill="#F3A181"/>

<path d="M337 373 c-43 -42 -45 -55 -16 -84 17 -17 19 -23 8 -30 -7 -4 -10 -11 -6 -16 5 -4 12 -1 17 6 4 8 15 11 24 8 14 -6 11 -11 -15 -35 -31 -28 -31 -28 -15 -60 17 -33 81 -86 117 -97 23 -8 49 11 48 34 0 11 -3 9 -9 -7 -12 -29 -27 -28 -75 4 -80 54 -97 102 -45 129 17 9 30 19 30 23 0 4 -18 15 -40 25 -66 30 -63 80 5 93 47 9 71 -2 94 -42 26 -44 26 -49 -1 -73 l-21 -20 26 -27 c21 -21 30 -24 41 -15 19 16 55 0 105 -45 42 -37 50 -61 29 -82 -35 -35 -104 13 -114 79 -4 21 -10 36 -15 33 -11 -6 -12 -41 -1 -46 4 -2 14 -16 24 -33 23 -43 60 -62 95 -49 44 15 43 52 -4 97 -20 21 -41 37 -45 37 -4 0 -8 5 -8 10 0 6 12 10 28 11 25 1 25 2 -6 9 -32 7 -61 26 -51 33 2 2 20 11 39 20 26 12 30 17 15 17 -12 0 -26 -5 -33 -12 -18 -18 -14 -4 13 48 24 44 24 48 9 66 -21 23 -57 23 -75 1 -13 -16 -12 -17 3 -5 9 8 27 12 40 10 34 -5 35 -42 2 -89 -28 -42 -60 -54 -51 -19 3 10 0 21 -7 23 -8 3 -8 10 2 26 18 30 15 37 -8 16 -19 -17 -20 -17 -41 9 -14 18 -30 26 -51 26 -23 0 -29 4 -24 15 8 22 3 19 -37 -22z m180 -139 c5 -15 -28 -27 -40 -15 -5 5 -6 14 -2 21 8 13 37 9 42 -6z" transform="translate(0,78) scale(0.1,-0.1)" stroke="none" fill="#936C3F"/>

<path d="M233 725 c-11 -8 -24 -26 -27 -40 l-7 -26 -28 30 c-16 17 -38 31 -49 31 -34 0 -77 -20 -91 -41 -11 -19 -10 -25 8 -50 12 -16 17 -29 11 -29 -5 0 -10 -9 -10 -19 0 -11 -6 -21 -12 -24 -8 -2 -9 -8 -4 -13 5 -5 11 -4 13 4 9 24 22 12 17 -16 -7 -33 21 -72 77 -108 55 -34 86 -32 94 6 l7 31 29 -41 c16 -22 35 -40 42 -40 6 0 4 5 -6 11 -39 23 -74 139 -41 139 15 0 101 -66 113 -88 6 -9 11 -12 11 -5 0 6 -24 32 -52 57 -41 36 -48 46 -33 47 18 0 18 1 -2 9 -35 14 -28 38 15 50 50 16 95 0 90 -33 -2 -17 -11 -23 -43 -28 -36 -6 -37 -6 -8 -8 45 -2 63 8 63 35 0 43 -65 68 -112 43 -30 -16 -32 -5 -3 36 31 46 31 59 3 79 -28 20 -38 20 -65 1z m71 -14 c13 -20 -49 -121 -74 -121 -5 0 -6 90 -1 123 1 10 69 9 75 -2z m-121 -52 c21 -38 21 -43 1 -63 -22 -23 -59 -20 -104 9 -59 37 -54 87 10 97 40 6 74 -10 93 -43z m-98 -79 c0 -7 -6 -15 -12 -17 -8 -3 -13 4 -13 17 0 13 5 20 13 18 6 -3 12 -11 12 -18z m159 -15 c6 -16 -10 -20 -38 -9 -24 9 -19 24 8 24 13 0 26 -7 30 -15z m-55 -21 c25 -20 31 -34 31 -64 0 -78 -19 -87 -91 -42 -81 52 -90 110 -18 123 19 4 37 7 41 8 3 0 20 -11 37 -25z" transform="translate(0,78) scale(0.1,-0.1)" stroke="none" fill="#936C3F"/>

<path d="M344 360 c-49 -20 -41 -60 16 -87 22 -10 40 -21 40 -25 0 -4 -13 -14 -30 -23 -54 -28 -33 -81 53 -134 47 -29 64 -23 72 26 11 64 17 71 27 26 15 -70 81 -116 116 -81 21 21 13 45 -29 82 -50 45 -86 61 -105 45 -11 -9 -20 -6 -41 15 l-26 27 21 20 c26 24 27 32 5 67 -32 51 -66 64 -119 42z" transform="translate(0,78) scale(0.1,-0.1)" stroke="none" fill="#F3A181"/>

</g>

<g id="4" transform="translate(0,312.0)scale(0.8,0.8)">

<path d="M648 265 c32 -14 44 -47 22 -58 -6 -3 -5 -4 2 -3 38 8 5 76 -36 76 -16 -1 -14 -4 12 -15z" transform="translate(0,78) scale(0.1,-0.1)" stroke="none" fill="#936C3F"/>

<path d="M298 598 c-58 -21 -13 -62 61 -56 29 2 37 8 39 25 3 17 -3 26 -23 33 -31 12 -41 12 -77 -2z" transform="translate(0,78) scale(0.1,-0.1)" stroke="none" fill="#F3A181"/>

<path d="M229 713 c-5 -33 -4 -123 1 -123 25 0 87 101 74 121 -6 11 -74 12 -75 2z" transform="translate(0,78) scale(0.1,-0.1)" stroke="none" fill="#F3A181"/>

<path d="M578 262 c-21 -9 -38 -20 -38 -24 0 -21 105 -45 128 -29 22 14 10 43 -23 57 -25 10 -36 9 -67 -4z" transform="translate(0,78) scale(0.1,-0.1)" stroke="none" fill="#F3A181"/>

<path d="M514 378 c-5 -7 -9 -17 -9 -23 -1 -5 -5 -19 -10 -29 -5 -13 -5 -21 2 -23 6 -2 9 -13 6 -23 -9 -35 23 -23 51 19 34 49 32 85 -6 89 -14 2 -30 -3 -34 -10z" transform="translate(0,78) scale(0.1,-0.1)" stroke="none" fill="#F3A181"/>

<path d="M242 503 c-2 -39 38 -106 71 -117 23 -8 31 -6 48 11 27 27 16 49 -48 98 -55 42 -68 44 -71 8z" transform="translate(0,78) scale(0.1,-0.1)" stroke="none" fill="#F3A181"/>

<path d="M90 702 c-64 -10 -69 -60 -10 -97 45 -29 82 -32 104 -9 20 20 20 25 -1 63 -19 33 -53 49 -93 43z" transform="translate(0,78) scale(0.1,-0.1)" stroke="none" fill="#F3A181"/>

<path d="M111 561 c-72 -13 -63 -71 18 -123 72 -45 91 -36 91 42 0 30 -6 44 -31 64 -17 14 -34 25 -37 25 -4 -1 -22 -4 -41 -8z" transform="translate(0,78) scale(0.1,-0.1)" stroke="none" fill="#F3A181"/>

<path d="M337 373 c-43 -42 -45 -55 -16 -84 17 -17 19 -23 8 -30 -7 -4 -10 -11 -6 -16 5 -4 12 -1 17 6 4 8 15 11 24 8 14 -6 11 -11 -15 -35 -31 -28 -31 -28 -15 -60 17 -33 81 -86 117 -97 23 -8 49 11 48 34 0 11 -3 9 -9 -7 -12 -29 -27 -28 -75 4 -80 54 -97 102 -45 129 17 9 30 19 30 23 0 4 -18 15 -40 25 -66 30 -63 80 5 93 47 9 71 -2 94 -42 26 -44 26 -49 -1 -73 l-21 -20 26 -27 c21 -21 30 -24 41 -15 19 16 55 0 105 -45 42 -37 50 -61 29 -82 -35 -35 -104 13 -114 79 -4 21 -10 36 -15 33 -11 -6 -12 -41 -1 -46 4 -2 14 -16 24 -33 23 -43 60 -62 95 -49 44 15 43 52 -4 97 -20 21 -41 37 -45 37 -4 0 -8 5 -8 10 0 6 12 10 28 11 25 1 25 2 -6 9 -32 7 -61 26 -51 33 2 2 20 11 39 20 26 12 30 17 15 17 -12 0 -26 -5 -33 -12 -18 -18 -14 -4 13 48 24 44 24 48 9 66 -21 23 -57 23 -75 1 -13 -16 -12 -17 3 -5 9 8 27 12 40 10 34 -5 35 -42 2 -89 -28 -42 -60 -54 -51 -19 3 10 0 21 -7 23 -8 3 -8 10 2 26 18 30 15 37 -8 16 -19 -17 -20 -17 -41 9 -14 18 -30 26 -51 26 -23 0 -29 4 -24 15 8 22 3 19 -37 -22z m180 -139 c5 -15 -28 -27 -40 -15 -5 5 -6 14 -2 21 8 13 37 9 42 -6z" transform="translate(0,78) scale(0.1,-0.1)" stroke="none" fill="#936C3F"/>

<path d="M233 725 c-11 -8 -24 -26 -27 -40 l-7 -26 -28 30 c-16 17 -38 31 -49 31 -34 0 -77 -20 -91 -41 -11 -19 -10 -25 8 -50 12 -16 17 -29 11 -29 -5 0 -10 -9 -10 -19 0 -11 -6 -21 -12 -24 -8 -2 -9 -8 -4 -13 5 -5 11 -4 13 4 9 24 22 12 17 -16 -7 -33 21 -72 77 -108 55 -34 86 -32 94 6 l7 31 29 -41 c16 -22 35 -40 42 -40 6 0 4 5 -6 11 -39 23 -74 139 -41 139 15 0 101 -66 113 -88 6 -9 11 -12 11 -5 0 6 -24 32 -52 57 -41 36 -48 46 -33 47 18 0 18 1 -2 9 -35 14 -28 38 15 50 50 16 95 0 90 -33 -2 -17 -11 -23 -43 -28 -36 -6 -37 -6 -8 -8 45 -2 63 8 63 35 0 43 -65 68 -112 43 -30 -16 -32 -5 -3 36 31 46 31 59 3 79 -28 20 -38 20 -65 1z m71 -14 c13 -20 -49 -121 -74 -121 -5 0 -6 90 -1 123 1 10 69 9 75 -2z m-121 -52 c21 -38 21 -43 1 -63 -22 -23 -59 -20 -104 9 -59 37 -54 87 10 97 40 6 74 -10 93 -43z m-98 -79 c0 -7 -6 -15 -12 -17 -8 -3 -13 4 -13 17 0 13 5 20 13 18 6 -3 12 -11 12 -18z m159 -15 c6 -16 -10 -20 -38 -9 -24 9 -19 24 8 24 13 0 26 -7 30 -15z m-55 -21 c25 -20 31 -34 31 -64 0 -78 -19 -87 -91 -42 -81 52 -90 110 -18 123 19 4 37 7 41 8 3 0 20 -11 37 -25z" transform="translate(0,78) scale(0.1,-0.1)" stroke="none" fill="#936C3F"/>

<path d="M344 360 c-49 -20 -41 -60 16 -87 22 -10 40 -21 40 -25 0 -4 -13 -14 -30 -23 -54 -28 -33 -81 53 -134 47 -29 64 -23 72 26 11 64 17 71 27 26 15 -70 81 -116 116 -81 21 21 13 45 -29 82 -50 45 -86 61 -105 45 -11 -9 -20 -6 -41 15 l-26 27 21 20 c26 24 27 32 5 67 -32 51 -66 64 -119 42z" transform="translate(0,78) scale(0.1,-0.1)" stroke="none" fill="#F3A181"/>

</g>

</g>
<g id="col3" transform="translate(216, -29.0)">
<g id="0" transform="translate(0,0.0)scale(0.8,0.8)">

<path d="M648 265 c32 -14 44 -47 22 -58 -6 -3 -5 -4 2 -3 38 8 5 76 -36 76 -16 -1 -14 -4 12 -15z" transform="translate(0,78) scale(0.1,-0.1)" stroke="none" fill="#936C3F"/>

<path d="M298 598 c-58 -21 -13 -62 61 -56 29 2 37 8 39 25 3 17 -3 26 -23 33 -31 12 -41 12 -77 -2z" transform="translate(0,78) scale(0.1,-0.1)" stroke="none" fill="#F3A181"/>

<path d="M229 713 c-5 -33 -4 -123 1 -123 25 0 87 101 74 121 -6 11 -74 12 -75 2z" transform="translate(0,78) scale(0.1,-0.1)" stroke="none" fill="#F3A181"/>

<path d="M578 262 c-21 -9 -38 -20 -38 -24 0 -21 105 -45 128 -29 22 14 10 43 -23 57 -25 10 -36 9 -67 -4z" transform="translate(0,78) scale(0.1,-0.1)" stroke="none" fill="#F3A181"/>

<path d="M514 378 c-5 -7 -9 -17 -9 -23 -1 -5 -5 -19 -10 -29 -5 -13 -5 -21 2 -23 6 -2 9 -13 6 -23 -9 -35 23 -23 51 19 34 49 32 85 -6 89 -14 2 -30 -3 -34 -10z" transform="translate(0,78) scale(0.1,-0.1)" stroke="none" fill="#F3A181"/>

<path d="M242 503 c-2 -39 38 -106 71 -117 23 -8 31 -6 48 11 27 27 16 49 -48 98 -55 42 -68 44 -71 8z" transform="translate(0,78) scale(0.1,-0.1)" stroke="none" fill="#F3A181"/>

<path d="M90 702 c-64 -10 -69 -60 -10 -97 45 -29 82 -32 104 -9 20 20 20 25 -1 63 -19 33 -53 49 -93 43z" transform="translate(0,78) scale(0.1,-0.1)" stroke="none" fill="#F3A181"/>

<path d="M111 561 c-72 -13 -63 -71 18 -123 72 -45 91 -36 91 42 0 30 -6 44 -31 64 -17 14 -34 25 -37 25 -4 -1 -22 -4 -41 -8z" transform="translate(0,78) scale(0.1,-0.1)" stroke="none" fill="#F3A181"/>

<path d="M337 373 c-43 -42 -45 -55 -16 -84 17 -17 19 -23 8 -30 -7 -4 -10 -11 -6 -16 5 -4 12 -1 17 6 4 8 15 11 24 8 14 -6 11 -11 -15 -35 -31 -28 -31 -28 -15 -60 17 -33 81 -86 117 -97 23 -8 49 11 48 34 0 11 -3 9 -9 -7 -12 -29 -27 -28 -75 4 -80 54 -97 102 -45 129 17 9 30 19 30 23 0 4 -18 15 -40 25 -66 30 -63 80 5 93 47 9 71 -2 94 -42 26 -44 26 -49 -1 -73 l-21 -20 26 -27 c21 -21 30 -24 41 -15 19 16 55 0 105 -45 42 -37 50 -61 29 -82 -35 -35 -104 13 -114 79 -4 21 -10 36 -15 33 -11 -6 -12 -41 -1 -46 4 -2 14 -16 24 -33 23 -43 60 -62 95 -49 44 15 43 52 -4 97 -20 21 -41 37 -45 37 -4 0 -8 5 -8 10 0 6 12 10 28 11 25 1 25 2 -6 9 -32 7 -61 26 -51 33 2 2 20 11 39 20 26 12 30 17 15 17 -12 0 -26 -5 -33 -12 -18 -18 -14 -4 13 48 24 44 24 48 9 66 -21 23 -57 23 -75 1 -13 -16 -12 -17 3 -5 9 8 27 12 40 10 34 -5 35 -42 2 -89 -28 -42 -60 -54 -51 -19 3 10 0 21 -7 23 -8 3 -8 10 2 26 18 30 15 37 -8 16 -19 -17 -20 -17 -41 9 -14 18 -30 26 -51 26 -23 0 -29 4 -24 15 8 22 3 19 -37 -22z m180 -139 c5 -15 -28 -27 -40 -15 -5 5 -6 14 -2 21 8 13 37 9 42 -6z" transform="translate(0,78) scale(0.1,-0.1)" stroke="none" fill="#936C3F"/>

<path d="M233 725 c-11 -8 -24 -26 -27 -40 l-7 -26 -28 30 c-16 17 -38 31 -49 31 -34 0 -77 -20 -91 -41 -11 -19 -10 -25 8 -50 12 -16 17 -29 11 -29 -5 0 -10 -9 -10 -19 0 -11 -6 -21 -12 -24 -8 -2 -9 -8 -4 -13 5 -5 11 -4 13 4 9 24 22 12 17 -16 -7 -33 21 -72 77 -108 55 -34 86 -32 94 6 l7 31 29 -41 c16 -22 35 -40 42 -40 6 0 4 5 -6 11 -39 23 -74 139 -41 139 15 0 101 -66 113 -88 6 -9 11 -12 11 -5 0 6 -24 32 -52 57 -41 36 -48 46 -33 47 18 0 18 1 -2 9 -35 14 -28 38 15 50 50 16 95 0 90 -33 -2 -17 -11 -23 -43 -28 -36 -6 -37 -6 -8 -8 45 -2 63 8 63 35 0 43 -65 68 -112 43 -30 -16 -32 -5 -3 36 31 46 31 59 3 79 -28 20 -38 20 -65 1z m71 -14 c13 -20 -49 -121 -74 -121 -5 0 -6 90 -1 123 1 10 69 9 75 -2z m-121 -52 c21 -38 21 -43 1 -63 -22 -23 -59 -20 -104 9 -59 37 -54 87 10 97 40 6 74 -10 93 -43z m-98 -79 c0 -7 -6 -15 -12 -17 -8 -3 -13 4 -13 17 0 13 5 20 13 18 6 -3 12 -11 12 -18z m159 -15 c6 -16 -10 -20 -38 -9 -24 9 -19 24 8 24 13 0 26 -7 30 -15z m-55 -21 c25 -20 31 -34 31 -64 0 -78 -19 -87 -91 -42 -81 52 -90 110 -18 123 19 4 37 7 41 8 3 0 20 -11 37 -25z" transform="translate(0,78) scale(0.1,-0.1)" stroke="none" fill="#936C3F"/>

<path d="M344 360 c-49 -20 -41 -60 16 -87 22 -10 40 -21 40 -25 0 -4 -13 -14 -30 -23 -54 -28 -33 -81 53 -134 47 -29 64 -23 72 26 11 64 17 71 27 26 15 -70 81 -116 116 -81 21 21 13 45 -29 82 -50 45 -86 61 -105 45 -11 -9 -20 -6 -41 15 l-26 27 21 20 c26 24 27 32 5 67 -32 51 -66 64 -119 42z" transform="translate(0,78) scale(0.1,-0.1)" stroke="none" fill="#F3A181"/>

</g>

<g id="1" transform="translate(0,78.0)scale(0.8,0.8)">

<path d="M648 265 c32 -14 44 -47 22 -58 -6 -3 -5 -4 2 -3 38 8 5 76 -36 76 -16 -1 -14 -4 12 -15z" transform="translate(0,78) scale(0.1,-0.1)" stroke="none" fill="#936C3F"/>

<path d="M298 598 c-58 -21 -13 -62 61 -56 29 2 37 8 39 25 3 17 -3 26 -23 33 -31 12 -41 12 -77 -2z" transform="translate(0,78) scale(0.1,-0.1)" stroke="none" fill="#F3A181"/>

<path d="M229 713 c-5 -33 -4 -123 1 -123 25 0 87 101 74 121 -6 11 -74 12 -75 2z" transform="translate(0,78) scale(0.1,-0.1)" stroke="none" fill="#F3A181"/>

<path d="M578 262 c-21 -9 -38 -20 -38 -24 0 -21 105 -45 128 -29 22 14 10 43 -23 57 -25 10 -36 9 -67 -4z" transform="translate(0,78) scale(0.1,-0.1)" stroke="none" fill="#F3A181"/>

<path d="M514 378 c-5 -7 -9 -17 -9 -23 -1 -5 -5 -19 -10 -29 -5 -13 -5 -21 2 -23 6 -2 9 -13 6 -23 -9 -35 23 -23 51 19 34 49 32 85 -6 89 -14 2 -30 -3 -34 -10z" transform="translate(0,78) scale(0.1,-0.1)" stroke="none" fill="#F3A181"/>

<path d="M242 503 c-2 -39 38 -106 71 -117 23 -8 31 -6 48 11 27 27 16 49 -48 98 -55 42 -68 44 -71 8z" transform="translate(0,78) scale(0.1,-0.1)" stroke="none" fill="#F3A181"/>

<path d="M90 702 c-64 -10 -69 -60 -10 -97 45 -29 82 -32 104 -9 20 20 20 25 -1 63 -19 33 -53 49 -93 43z" transform="translate(0,78) scale(0.1,-0.1)" stroke="none" fill="#F3A181"/>

<path d="M111 561 c-72 -13 -63 -71 18 -123 72 -45 91 -36 91 42 0 30 -6 44 -31 64 -17 14 -34 25 -37 25 -4 -1 -22 -4 -41 -8z" transform="translate(0,78) scale(0.1,-0.1)" stroke="none" fill="#F3A181"/>

<path d="M337 373 c-43 -42 -45 -55 -16 -84 17 -17 19 -23 8 -30 -7 -4 -10 -11 -6 -16 5 -4 12 -1 17 6 4 8 15 11 24 8 14 -6 11 -11 -15 -35 -31 -28 -31 -28 -15 -60 17 -33 81 -86 117 -97 23 -8 49 11 48 34 0 11 -3 9 -9 -7 -12 -29 -27 -28 -75 4 -80 54 -97 102 -45 129 17 9 30 19 30 23 0 4 -18 15 -40 25 -66 30 -63 80 5 93 47 9 71 -2 94 -42 26 -44 26 -49 -1 -73 l-21 -20 26 -27 c21 -21 30 -24 41 -15 19 16 55 0 105 -45 42 -37 50 -61 29 -82 -35 -35 -104 13 -114 79 -4 21 -10 36 -15 33 -11 -6 -12 -41 -1 -46 4 -2 14 -16 24 -33 23 -43 60 -62 95 -49 44 15 43 52 -4 97 -20 21 -41 37 -45 37 -4 0 -8 5 -8 10 0 6 12 10 28 11 25 1 25 2 -6 9 -32 7 -61 26 -51 33 2 2 20 11 39 20 26 12 30 17 15 17 -12 0 -26 -5 -33 -12 -18 -18 -14 -4 13 48 24 44 24 48 9 66 -21 23 -57 23 -75 1 -13 -16 -12 -17 3 -5 9 8 27 12 40 10 34 -5 35 -42 2 -89 -28 -42 -60 -54 -51 -19 3 10 0 21 -7 23 -8 3 -8 10 2 26 18 30 15 37 -8 16 -19 -17 -20 -17 -41 9 -14 18 -30 26 -51 26 -23 0 -29 4 -24 15 8 22 3 19 -37 -22z m180 -139 c5 -15 -28 -27 -40 -15 -5 5 -6 14 -2 21 8 13 37 9 42 -6z" transform="translate(0,78) scale(0.1,-0.1)" stroke="none" fill="#936C3F"/>

<path d="M233 725 c-11 -8 -24 -26 -27 -40 l-7 -26 -28 30 c-16 17 -38 31 -49 31 -34 0 -77 -20 -91 -41 -11 -19 -10 -25 8 -50 12 -16 17 -29 11 -29 -5 0 -10 -9 -10 -19 0 -11 -6 -21 -12 -24 -8 -2 -9 -8 -4 -13 5 -5 11 -4 13 4 9 24 22 12 17 -16 -7 -33 21 -72 77 -108 55 -34 86 -32 94 6 l7 31 29 -41 c16 -22 35 -40 42 -40 6 0 4 5 -6 11 -39 23 -74 139 -41 139 15 0 101 -66 113 -88 6 -9 11 -12 11 -5 0 6 -24 32 -52 57 -41 36 -48 46 -33 47 18 0 18 1 -2 9 -35 14 -28 38 15 50 50 16 95 0 90 -33 -2 -17 -11 -23 -43 -28 -36 -6 -37 -6 -8 -8 45 -2 63 8 63 35 0 43 -65 68 -112 43 -30 -16 -32 -5 -3 36 31 46 31 59 3 79 -28 20 -38 20 -65 1z m71 -14 c13 -20 -49 -121 -74 -121 -5 0 -6 90 -1 123 1 10 69 9 75 -2z m-121 -52 c21 -38 21 -43 1 -63 -22 -23 -59 -20 -104 9 -59 37 -54 87 10 97 40 6 74 -10 93 -43z m-98 -79 c0 -7 -6 -15 -12 -17 -8 -3 -13 4 -13 17 0 13 5 20 13 18 6 -3 12 -11 12 -18z m159 -15 c6 -16 -10 -20 -38 -9 -24 9 -19 24 8 24 13 0 26 -7 30 -15z m-55 -21 c25 -20 31 -34 31 -64 0 -78 -19 -87 -91 -42 -81 52 -90 110 -18 123 19 4 37 7 41 8 3 0 20 -11 37 -25z" transform="translate(0,78) scale(0.1,-0.1)" stroke="none" fill="#936C3F"/>

<path d="M344 360 c-49 -20 -41 -60 16 -87 22 -10 40 -21 40 -25 0 -4 -13 -14 -30 -23 -54 -28 -33 -81 53 -134 47 -29 64 -23 72 26 11 64 17 71 27 26 15 -70 81 -116 116 -81 21 21 13 45 -29 82 -50 45 -86 61 -105 45 -11 -9 -20 -6 -41 15 l-26 27 21 20 c26 24 27 32 5 67 -32 51 -66 64 -119 42z" transform="translate(0,78) scale(0.1,-0.1)" stroke="none" fill="#F3A181"/>

</g>

<g id="2" transform="translate(0,156.0)scale(0.8,0.8)">

<path d="M648 265 c32 -14 44 -47 22 -58 -6 -3 -5 -4 2 -3 38 8 5 76 -36 76 -16 -1 -14 -4 12 -15z" transform="translate(0,78) scale(0.1,-0.1)" stroke="none" fill="#936C3F"/>

<path d="M298 598 c-58 -21 -13 -62 61 -56 29 2 37 8 39 25 3 17 -3 26 -23 33 -31 12 -41 12 -77 -2z" transform="translate(0,78) scale(0.1,-0.1)" stroke="none" fill="#F3A181"/>

<path d="M229 713 c-5 -33 -4 -123 1 -123 25 0 87 101 74 121 -6 11 -74 12 -75 2z" transform="translate(0,78) scale(0.1,-0.1)" stroke="none" fill="#F3A181"/>

<path d="M578 262 c-21 -9 -38 -20 -38 -24 0 -21 105 -45 128 -29 22 14 10 43 -23 57 -25 10 -36 9 -67 -4z" transform="translate(0,78) scale(0.1,-0.1)" stroke="none" fill="#F3A181"/>

<path d="M514 378 c-5 -7 -9 -17 -9 -23 -1 -5 -5 -19 -10 -29 -5 -13 -5 -21 2 -23 6 -2 9 -13 6 -23 -9 -35 23 -23 51 19 34 49 32 85 -6 89 -14 2 -30 -3 -34 -10z" transform="translate(0,78) scale(0.1,-0.1)" stroke="none" fill="#F3A181"/>

<path d="M242 503 c-2 -39 38 -106 71 -117 23 -8 31 -6 48 11 27 27 16 49 -48 98 -55 42 -68 44 -71 8z" transform="translate(0,78) scale(0.1,-0.1)" stroke="none" fill="#F3A181"/>

<path d="M90 702 c-64 -10 -69 -60 -10 -97 45 -29 82 -32 104 -9 20 20 20 25 -1 63 -19 33 -53 49 -93 43z" transform="translate(0,78) scale(0.1,-0.1)" stroke="none" fill="#F3A181"/>

<path d="M111 561 c-72 -13 -63 -71 18 -123 72 -45 91 -36 91 42 0 30 -6 44 -31 64 -17 14 -34 25 -37 25 -4 -1 -22 -4 -41 -8z" transform="translate(0,78) scale(0.1,-0.1)" stroke="none" fill="#F3A181"/>

<path d="M337 373 c-43 -42 -45 -55 -16 -84 17 -17 19 -23 8 -30 -7 -4 -10 -11 -6 -16 5 -4 12 -1 17 6 4 8 15 11 24 8 14 -6 11 -11 -15 -35 -31 -28 -31 -28 -15 -60 17 -33 81 -86 117 -97 23 -8 49 11 48 34 0 11 -3 9 -9 -7 -12 -29 -27 -28 -75 4 -80 54 -97 102 -45 129 17 9 30 19 30 23 0 4 -18 15 -40 25 -66 30 -63 80 5 93 47 9 71 -2 94 -42 26 -44 26 -49 -1 -73 l-21 -20 26 -27 c21 -21 30 -24 41 -15 19 16 55 0 105 -45 42 -37 50 -61 29 -82 -35 -35 -104 13 -114 79 -4 21 -10 36 -15 33 -11 -6 -12 -41 -1 -46 4 -2 14 -16 24 -33 23 -43 60 -62 95 -49 44 15 43 52 -4 97 -20 21 -41 37 -45 37 -4 0 -8 5 -8 10 0 6 12 10 28 11 25 1 25 2 -6 9 -32 7 -61 26 -51 33 2 2 20 11 39 20 26 12 30 17 15 17 -12 0 -26 -5 -33 -12 -18 -18 -14 -4 13 48 24 44 24 48 9 66 -21 23 -57 23 -75 1 -13 -16 -12 -17 3 -5 9 8 27 12 40 10 34 -5 35 -42 2 -89 -28 -42 -60 -54 -51 -19 3 10 0 21 -7 23 -8 3 -8 10 2 26 18 30 15 37 -8 16 -19 -17 -20 -17 -41 9 -14 18 -30 26 -51 26 -23 0 -29 4 -24 15 8 22 3 19 -37 -22z m180 -139 c5 -15 -28 -27 -40 -15 -5 5 -6 14 -2 21 8 13 37 9 42 -6z" transform="translate(0,78) scale(0.1,-0.1)" stroke="none" fill="#936C3F"/>

<path d="M233 725 c-11 -8 -24 -26 -27 -40 l-7 -26 -28 30 c-16 17 -38 31 -49 31 -34 0 -77 -20 -91 -41 -11 -19 -10 -25 8 -50 12 -16 17 -29 11 -29 -5 0 -10 -9 -10 -19 0 -11 -6 -21 -12 -24 -8 -2 -9 -8 -4 -13 5 -5 11 -4 13 4 9 24 22 12 17 -16 -7 -33 21 -72 77 -108 55 -34 86 -32 94 6 l7 31 29 -41 c16 -22 35 -40 42 -40 6 0 4 5 -6 11 -39 23 -74 139 -41 139 15 0 101 -66 113 -88 6 -9 11 -12 11 -5 0 6 -24 32 -52 57 -41 36 -48 46 -33 47 18 0 18 1 -2 9 -35 14 -28 38 15 50 50 16 95 0 90 -33 -2 -17 -11 -23 -43 -28 -36 -6 -37 -6 -8 -8 45 -2 63 8 63 35 0 43 -65 68 -112 43 -30 -16 -32 -5 -3 36 31 46 31 59 3 79 -28 20 -38 20 -65 1z m71 -14 c13 -20 -49 -121 -74 -121 -5 0 -6 90 -1 123 1 10 69 9 75 -2z m-121 -52 c21 -38 21 -43 1 -63 -22 -23 -59 -20 -104 9 -59 37 -54 87 10 97 40 6 74 -10 93 -43z m-98 -79 c0 -7 -6 -15 -12 -17 -8 -3 -13 4 -13 17 0 13 5 20 13 18 6 -3 12 -11 12 -18z m159 -15 c6 -16 -10 -20 -38 -9 -24 9 -19 24 8 24 13 0 26 -7 30 -15z m-55 -21 c25 -20 31 -34 31 -64 0 -78 -19 -87 -91 -42 -81 52 -90 110 -18 123 19 4 37 7 41 8 3 0 20 -11 37 -25z" transform="translate(0,78) scale(0.1,-0.1)" stroke="none" fill="#936C3F"/>

<path d="M344 360 c-49 -20 -41 -60 16 -87 22 -10 40 -21 40 -25 0 -4 -13 -14 -30 -23 -54 -28 -33 -81 53 -134 47 -29 64 -23 72 26 11 64 17 71 27 26 15 -70 81 -116 116 -81 21 21 13 45 -29 82 -50 45 -86 61 -105 45 -11 -9 -20 -6 -41 15 l-26 27 21 20 c26 24 27 32 5 67 -32 51 -66 64 -119 42z" transform="translate(0,78) scale(0.1,-0.1)" stroke="none" fill="#F3A181"/>

</g>

<g id="3" transform="translate(0,234.0)scale(0.8,0.8)">

<path d="M648 265 c32 -14 44 -47 22 -58 -6 -3 -5 -4 2 -3 38 8 5 76 -36 76 -16 -1 -14 -4 12 -15z" transform="translate(0,78) scale(0.1,-0.1)" stroke="none" fill="#936C3F"/>

<path d="M298 598 c-58 -21 -13 -62 61 -56 29 2 37 8 39 25 3 17 -3 26 -23 33 -31 12 -41 12 -77 -2z" transform="translate(0,78) scale(0.1,-0.1)" stroke="none" fill="#F3A181"/>

<path d="M229 713 c-5 -33 -4 -123 1 -123 25 0 87 101 74 121 -6 11 -74 12 -75 2z" transform="translate(0,78) scale(0.1,-0.1)" stroke="none" fill="#F3A181"/>

<path d="M578 262 c-21 -9 -38 -20 -38 -24 0 -21 105 -45 128 -29 22 14 10 43 -23 57 -25 10 -36 9 -67 -4z" transform="translate(0,78) scale(0.1,-0.1)" stroke="none" fill="#F3A181"/>

<path d="M514 378 c-5 -7 -9 -17 -9 -23 -1 -5 -5 -19 -10 -29 -5 -13 -5 -21 2 -23 6 -2 9 -13 6 -23 -9 -35 23 -23 51 19 34 49 32 85 -6 89 -14 2 -30 -3 -34 -10z" transform="translate(0,78) scale(0.1,-0.1)" stroke="none" fill="#F3A181"/>

<path d="M242 503 c-2 -39 38 -106 71 -117 23 -8 31 -6 48 11 27 27 16 49 -48 98 -55 42 -68 44 -71 8z" transform="translate(0,78) scale(0.1,-0.1)" stroke="none" fill="#F3A181"/>

<path d="M90 702 c-64 -10 -69 -60 -10 -97 45 -29 82 -32 104 -9 20 20 20 25 -1 63 -19 33 -53 49 -93 43z" transform="translate(0,78) scale(0.1,-0.1)" stroke="none" fill="#F3A181"/>

<path d="M111 561 c-72 -13 -63 -71 18 -123 72 -45 91 -36 91 42 0 30 -6 44 -31 64 -17 14 -34 25 -37 25 -4 -1 -22 -4 -41 -8z" transform="translate(0,78) scale(0.1,-0.1)" stroke="none" fill="#F3A181"/>

<path d="M337 373 c-43 -42 -45 -55 -16 -84 17 -17 19 -23 8 -30 -7 -4 -10 -11 -6 -16 5 -4 12 -1 17 6 4 8 15 11 24 8 14 -6 11 -11 -15 -35 -31 -28 -31 -28 -15 -60 17 -33 81 -86 117 -97 23 -8 49 11 48 34 0 11 -3 9 -9 -7 -12 -29 -27 -28 -75 4 -80 54 -97 102 -45 129 17 9 30 19 30 23 0 4 -18 15 -40 25 -66 30 -63 80 5 93 47 9 71 -2 94 -42 26 -44 26 -49 -1 -73 l-21 -20 26 -27 c21 -21 30 -24 41 -15 19 16 55 0 105 -45 42 -37 50 -61 29 -82 -35 -35 -104 13 -114 79 -4 21 -10 36 -15 33 -11 -6 -12 -41 -1 -46 4 -2 14 -16 24 -33 23 -43 60 -62 95 -49 44 15 43 52 -4 97 -20 21 -41 37 -45 37 -4 0 -8 5 -8 10 0 6 12 10 28 11 25 1 25 2 -6 9 -32 7 -61 26 -51 33 2 2 20 11 39 20 26 12 30 17 15 17 -12 0 -26 -5 -33 -12 -18 -18 -14 -4 13 48 24 44 24 48 9 66 -21 23 -57 23 -75 1 -13 -16 -12 -17 3 -5 9 8 27 12 40 10 34 -5 35 -42 2 -89 -28 -42 -60 -54 -51 -19 3 10 0 21 -7 23 -8 3 -8 10 2 26 18 30 15 37 -8 16 -19 -17 -20 -17 -41 9 -14 18 -30 26 -51 26 -23 0 -29 4 -24 15 8 22 3 19 -37 -22z m180 -139 c5 -15 -28 -27 -40 -15 -5 5 -6 14 -2 21 8 13 37 9 42 -6z" transform="translate(0,78) scale(0.1,-0.1)" stroke="none" fill="#936C3F"/>

<path d="M233 725 c-11 -8 -24 -26 -27 -40 l-7 -26 -28 30 c-16 17 -38 31 -49 31 -34 0 -77 -20 -91 -41 -11 -19 -10 -25 8 -50 12 -16 17 -29 11 -29 -5 0 -10 -9 -10 -19 0 -11 -6 -21 -12 -24 -8 -2 -9 -8 -4 -13 5 -5 11 -4 13 4 9 24 22 12 17 -16 -7 -33 21 -72 77 -108 55 -34 86 -32 94 6 l7 31 29 -41 c16 -22 35 -40 42 -40 6 0 4 5 -6 11 -39 23 -74 139 -41 139 15 0 101 -66 113 -88 6 -9 11 -12 11 -5 0 6 -24 32 -52 57 -41 36 -48 46 -33 47 18 0 18 1 -2 9 -35 14 -28 38 15 50 50 16 95 0 90 -33 -2 -17 -11 -23 -43 -28 -36 -6 -37 -6 -8 -8 45 -2 63 8 63 35 0 43 -65 68 -112 43 -30 -16 -32 -5 -3 36 31 46 31 59 3 79 -28 20 -38 20 -65 1z m71 -14 c13 -20 -49 -121 -74 -121 -5 0 -6 90 -1 123 1 10 69 9 75 -2z m-121 -52 c21 -38 21 -43 1 -63 -22 -23 -59 -20 -104 9 -59 37 -54 87 10 97 40 6 74 -10 93 -43z m-98 -79 c0 -7 -6 -15 -12 -17 -8 -3 -13 4 -13 17 0 13 5 20 13 18 6 -3 12 -11 12 -18z m159 -15 c6 -16 -10 -20 -38 -9 -24 9 -19 24 8 24 13 0 26 -7 30 -15z m-55 -21 c25 -20 31 -34 31 -64 0 -78 -19 -87 -91 -42 -81 52 -90 110 -18 123 19 4 37 7 41 8 3 0 20 -11 37 -25z" transform="translate(0,78) scale(0.1,-0.1)" stroke="none" fill="#936C3F"/>

<path d="M344 360 c-49 -20 -41 -60 16 -87 22 -10 40 -21 40 -25 0 -4 -13 -14 -30 -23 -54 -28 -33 -81 53 -134 47 -29 64 -23 72 26 11 64 17 71 27 26 15 -70 81 -116 116 -81 21 21 13 45 -29 82 -50 45 -86 61 -105 45 -11 -9 -20 -6 -41 15 l-26 27 21 20 c26 24 27 32 5 67 -32 51 -66 64 -119 42z" transform="translate(0,78) scale(0.1,-0.1)" stroke="none" fill="#F3A181"/>

</g>

<g id="4" transform="translate(0,312.0)scale(0.8,0.8)">

<path d="M648 265 c32 -14 44 -47 22 -58 -6 -3 -5 -4 2 -3 38 8 5 76 -36 76 -16 -1 -14 -4 12 -15z" transform="translate(0,78) scale(0.1,-0.1)" stroke="none" fill="#936C3F"/>

<path d="M298 598 c-58 -21 -13 -62 61 -56 29 2 37 8 39 25 3 17 -3 26 -23 33 -31 12 -41 12 -77 -2z" transform="translate(0,78) scale(0.1,-0.1)" stroke="none" fill="#F3A181"/>

<path d="M229 713 c-5 -33 -4 -123 1 -123 25 0 87 101 74 121 -6 11 -74 12 -75 2z" transform="translate(0,78) scale(0.1,-0.1)" stroke="none" fill="#F3A181"/>

<path d="M578 262 c-21 -9 -38 -20 -38 -24 0 -21 105 -45 128 -29 22 14 10 43 -23 57 -25 10 -36 9 -67 -4z" transform="translate(0,78) scale(0.1,-0.1)" stroke="none" fill="#F3A181"/>

<path d="M514 378 c-5 -7 -9 -17 -9 -23 -1 -5 -5 -19 -10 -29 -5 -13 -5 -21 2 -23 6 -2 9 -13 6 -23 -9 -35 23 -23 51 19 34 49 32 85 -6 89 -14 2 -30 -3 -34 -10z" transform="translate(0,78) scale(0.1,-0.1)" stroke="none" fill="#F3A181"/>

<path d="M242 503 c-2 -39 38 -106 71 -117 23 -8 31 -6 48 11 27 27 16 49 -48 98 -55 42 -68 44 -71 8z" transform="translate(0,78) scale(0.1,-0.1)" stroke="none" fill="#F3A181"/>

<path d="M90 702 c-64 -10 -69 -60 -10 -97 45 -29 82 -32 104 -9 20 20 20 25 -1 63 -19 33 -53 49 -93 43z" transform="translate(0,78) scale(0.1,-0.1)" stroke="none" fill="#F3A181"/>

<path d="M111 561 c-72 -13 -63 -71 18 -123 72 -45 91 -36 91 42 0 30 -6 44 -31 64 -17 14 -34 25 -37 25 -4 -1 -22 -4 -41 -8z" transform="translate(0,78) scale(0.1,-0.1)" stroke="none" fill="#F3A181"/>

<path d="M337 373 c-43 -42 -45 -55 -16 -84 17 -17 19 -23 8 -30 -7 -4 -10 -11 -6 -16 5 -4 12 -1 17 6 4 8 15 11 24 8 14 -6 11 -11 -15 -35 -31 -28 -31 -28 -15 -60 17 -33 81 -86 117 -97 23 -8 49 11 48 34 0 11 -3 9 -9 -7 -12 -29 -27 -28 -75 4 -80 54 -97 102 -45 129 17 9 30 19 30 23 0 4 -18 15 -40 25 -66 30 -63 80 5 93 47 9 71 -2 94 -42 26 -44 26 -49 -1 -73 l-21 -20 26 -27 c21 -21 30 -24 41 -15 19 16 55 0 105 -45 42 -37 50 -61 29 -82 -35 -35 -104 13 -114 79 -4 21 -10 36 -15 33 -11 -6 -12 -41 -1 -46 4 -2 14 -16 24 -33 23 -43 60 -62 95 -49 44 15 43 52 -4 97 -20 21 -41 37 -45 37 -4 0 -8 5 -8 10 0 6 12 10 28 11 25 1 25 2 -6 9 -32 7 -61 26 -51 33 2 2 20 11 39 20 26 12 30 17 15 17 -12 0 -26 -5 -33 -12 -18 -18 -14 -4 13 48 24 44 24 48 9 66 -21 23 -57 23 -75 1 -13 -16 -12 -17 3 -5 9 8 27 12 40 10 34 -5 35 -42 2 -89 -28 -42 -60 -54 -51 -19 3 10 0 21 -7 23 -8 3 -8 10 2 26 18 30 15 37 -8 16 -19 -17 -20 -17 -41 9 -14 18 -30 26 -51 26 -23 0 -29 4 -24 15 8 22 3 19 -37 -22z m180 -139 c5 -15 -28 -27 -40 -15 -5 5 -6 14 -2 21 8 13 37 9 42 -6z" transform="translate(0,78) scale(0.1,-0.1)" stroke="none" fill="#936C3F"/>

<path d="M233 725 c-11 -8 -24 -26 -27 -40 l-7 -26 -28 30 c-16 17 -38 31 -49 31 -34 0 -77 -20 -91 -41 -11 -19 -10 -25 8 -50 12 -16 17 -29 11 -29 -5 0 -10 -9 -10 -19 0 -11 -6 -21 -12 -24 -8 -2 -9 -8 -4 -13 5 -5 11 -4 13 4 9 24 22 12 17 -16 -7 -33 21 -72 77 -108 55 -34 86 -32 94 6 l7 31 29 -41 c16 -22 35 -40 42 -40 6 0 4 5 -6 11 -39 23 -74 139 -41 139 15 0 101 -66 113 -88 6 -9 11 -12 11 -5 0 6 -24 32 -52 57 -41 36 -48 46 -33 47 18 0 18 1 -2 9 -35 14 -28 38 15 50 50 16 95 0 90 -33 -2 -17 -11 -23 -43 -28 -36 -6 -37 -6 -8 -8 45 -2 63 8 63 35 0 43 -65 68 -112 43 -30 -16 -32 -5 -3 36 31 46 31 59 3 79 -28 20 -38 20 -65 1z m71 -14 c13 -20 -49 -121 -74 -121 -5 0 -6 90 -1 123 1 10 69 9 75 -2z m-121 -52 c21 -38 21 -43 1 -63 -22 -23 -59 -20 -104 9 -59 37 -54 87 10 97 40 6 74 -10 93 -43z m-98 -79 c0 -7 -6 -15 -12 -17 -8 -3 -13 4 -13 17 0 13 5 20 13 18 6 -3 12 -11 12 -18z m159 -15 c6 -16 -10 -20 -38 -9 -24 9 -19 24 8 24 13 0 26 -7 30 -15z m-55 -21 c25 -20 31 -34 31 -64 0 -78 -19 -87 -91 -42 -81 52 -90 110 -18 123 19 4 37 7 41 8 3 0 20 -11 37 -25z" transform="translate(0,78) scale(0.1,-0.1)" stroke="none" fill="#936C3F"/>

<path d="M344 360 c-49 -20 -41 -60 16 -87 22 -10 40 -21 40 -25 0 -4 -13 -14 -30 -23 -54 -28 -33 -81 53 -134 47 -29 64 -23 72 26 11 64 17 71 27 26 15 -70 81 -116 116 -81 21 21 13 45 -29 82 -50 45 -86 61 -105 45 -11 -9 -20 -6 -41 15 l-26 27 21 20 c26 24 27 32 5 67 -32 51 -66 64 -119 42z" transform="translate(0,78) scale(0.1,-0.1)" stroke="none" fill="#F3A181"/>

</g>

</g>
</svg>