<?xml version="1.0" standalone="no"?>
<!DOCTYPE svg PUBLIC "-//W3C//DTD SVG 20010904//EN"
 "http://www.w3.org/TR/2001/REC-SVG-20010904/DTD/svg10.dtd">
<svg version="1.0" xmlns="http://www.w3.org/2000/svg" width="468pt" height="336pt" viewBox="0 0 468 336" preserveAspectRatio = "xMidYMid meet" >
<metadata>
Created by ZoeQu, written in 2022
</metadata>
<rect width="468" height="336" fill="#D9D6A4"/>
<g id="row0" transform="translate(15,0.0)">
<g id="0" transform="translate(0.0,0)scale(1,1)">

<path d="M475 783 c-41 -11 -65 -37 -104 -113 -40 -77 -41 -101 -4 -82 10 5 45 12 77 15 33 3 65 12 71 19 22 24 49 130 38 147 -10 17 -44 23 -78 14z" transform="translate(0,84) scale(0.1,-0.1)" stroke="none" fill="#936C3F"/>

<path d="M533 324 c-63 -27 -77 -95 -26 -123 10 -5 48 -34 85 -63 82 -66 141 -98 177 -98 34 0 81 41 81 70 0 43 -55 117 -138 185 -48 40 -60 45 -101 44 -25 0 -60 -7 -78 -15z" transform="translate(0,84) scale(0.1,-0.1)" stroke="none" fill="#936C3F"/>

<path d="M967 632 c-56 -59 -80 -65 -186 -45 -188 34 -195 35 -276 23 -71 -9 -185 -31 -185 -34 0 -1 9 -19 20 -41 59 -115 -11 -195 -169 -195 -28 0 -51 -4 -51 -10 0 -5 -13 -25 -30 -43 -55 -63 -30 -156 52 -193 54 -24 207 -15 313 20 103 34 117 42 90 58 -35 21 -75 66 -75 85 0 41 81 88 146 87 36 -1 52 -8 100 -49 l56 -49 47 25 c141 74 263 177 277 234 10 41 -2 115 -23 144 -31 41 -53 37 -106 -17z m-207 -111 c18 -35 12 -61 -17 -72 -35 -13 -54 -2 -65 37 -6 22 -4 32 9 42 25 18 61 15 73 -7z m-123 -23 c17 -22 22 -57 9 -67 -6 -5 -23 -12 -38 -16 -30 -8 -48 15 -48 59 0 32 57 50 77 24z m-123 -34 c35 -35 10 -84 -44 -84 -40 0 -51 83 -12 93 31 8 41 7 56 -9z m-410 -221 c-8 -31 -8 -38 1 -73 l7 -25 -21 24 c-24 26 -25 38 -11 75 13 35 32 34 24 -1z" transform="translate(0,84) scale(0.1,-0.1)" stroke="none" fill="#F3A181"/>

</g>

<g id="1" transform="translate(117.0,0)scale(1,1)">

<path d="M475 783 c-41 -11 -65 -37 -104 -113 -40 -77 -41 -101 -4 -82 10 5 45 12 77 15 33 3 65 12 71 19 22 24 49 130 38 147 -10 17 -44 23 -78 14z" transform="translate(0,84) scale(0.1,-0.1)" stroke="none" fill="#936C3F"/>

<path d="M533 324 c-63 -27 -77 -95 -26 -123 10 -5 48 -34 85 -63 82 -66 141 -98 177 -98 34 0 81 41 81 70 0 43 -55 117 -138 185 -48 40 -60 45 -101 44 -25 0 -60 -7 -78 -15z" transform="translate(0,84) scale(0.1,-0.1)" stroke="none" fill="#936C3F"/>

<path d="M967 632 c-56 -59 -80 -65 -186 -45 -188 34 -195 35 -276 23 -71 -9 -185 -31 -185 -34 0 -1 9 -19 20 -41 59 -115 -11 -195 -169 -195 -28 0 -51 -4 -51 -10 0 -5 -13 -25 -30 -43 -55 -63 -30 -156 52 -193 54 -24 207 -15 313 20 103 34 117 42 90 58 -35 21 -75 66 -75 85 0 41 81 88 146 87 36 -1 52 -8 100 -49 l56 -49 47 25 c141 74 263 177 277 234 10 41 -2 115 -23 144 -31 41 -53 37 -106 -17z m-207 -111 c18 -35 12 -61 -17 -72 -35 -13 -54 -2 -65 37 -6 22 -4 32 9 42 25 18 61 15 73 -7z m-123 -23 c17 -22 22 -57 9 -67 -6 -5 -23 -12 -38 -16 -30 -8 -48 15 -48 59 0 32 57 50 77 24z m-123 -34 c35 -35 10 -84 -44 -84 -40 0 -51 83 -12 93 31 8 41 7 56 -9z m-410 -221 c-8 -31 -8 -38 1 -73 l7 -25 -21 24 c-24 26 -25 38 -11 75 13 35 32 34 24 -1z" transform="translate(0,84) scale(0.1,-0.1)" stroke="none" fill="#F3A181"/>

</g>

<g id="2" transform="translate(234.0,0)scale(1,1)">

<path d="M475 783 c-41 -11 -65 -37 -104 -113 -40 -77 -41 -101 -4 -82 10 5 45 12 77 15 33 3 65 12 71 19 22 24 49 130 38 147 -10 17 -44 23 -78 14z" transform="translate(0,84) scale(0.1,-0.1)" stroke="none" fill="#936C3F"/>

<path d="M533 324 c-63 -27 -77 -95 -26 -123 10 -5 48 -34 85 -63 82 -66 141 -98 177 -98 34 0 81 41 81 70 0 43 -55 117 -138 185 -48 40 -60 45 -101 44 -25 0 -60 -7 -78 -15z" transform="translate(0,84) scale(0.1,-0.1)" stroke="none" fill="#936C3F"/>

<path d="M967 632 c-56 -59 -80 -65 -186 -45 -188 34 -195 35 -276 23 -71 -9 -185 -31 -185 -34 0 -1 9 -19 20 -41 59 -115 -11 -195 -169 -195 -28 0 -51 -4 -51 -10 0 -5 -13 -25 -30 -43 -55 -63 -30 -156 52 -193 54 -24 207 -15 313 20 103 34 117 42 90 58 -35 21 -75 66 -75 85 0 41 81 88 146 87 36 -1 52 -8 100 -49 l56 -49 47 25 c141 74 263 177 277 234 10 41 -2 115 -23 144 -31 41 -53 37 -106 -17z m-207 -111 c18 -35 12 -61 -17 -72 -35 -13 -54 -2 -65 37 -6 22 -4 32 9 42 25 18 61 15 73 -7z m-123 -23 c17 -22 22 -57 9 -67 -6 -5 -23 -12 -38 -16 -30 -8 -48 15 -48 59 0 32 57 50 77 24z m-123 -34 c35 -35 10 -84 -44 -84 -40 0 -51 83 -12 93 31 8 41 7 56 -9z m-410 -221 c-8 -31 -8 -38 1 -73 l7 -25 -21 24 c-24 26 -25 38 -11 75 13 35 32 34 24 -1z" transform="translate(0,84) scale(0.1,-0.1)" stroke="none" fill="#F3A181"/>

</g>

<g id="3" transform="translate(351.0,0)scale(1,1)">

<path d="M475 783 c-41 -11 -65 -37 -104 -113 -40 -77 -41 -101 -4 -82 10 5 45 12 77 15 33 3 65 12 71 19 22 24 49 130 38 147 -10 17 -44 23 -78 14z" transform="translate(0,84) scale(0.1,-0.1)" stroke="none" fill="#936C3F"/>

<path d="M533 324 c-63 -27 -77 -95 -26 -123 10 -5 48 -34 85 -63 82 -66 141 -98 177 -98 34 0 81 41 81 70 0 43 -55 117 -138 185 -48 40 -60 45 -101 44 -25 0 -60 -7 -78 -15z" transform="translate(0,84) scale(0.1,-0.1)" stroke="none" fill="#936C3F"/>

<path d="M967 632 c-56 -59 -80 -65 -186 -45 -188 34 -195 35 -276 23 -71 -9 -185 -31 -185 -34 0 -1 9 -19 20 -41 59 -115 -11 -195 -169 -195 -28 0 -51 -4 -51 -10 0 -5 -13 -25 -30 -43 -55 -63 -30 -156 52 -193 54 -24 207 -15 313 20 103 34 117 42 90 58 -35 21 -75 66 -75 85 0 41 81 88 146 87 36 -1 52 -8 100 -49 l56 -49 47 25 c141 74 263 177 277 234 10 41 -2 115 -23 144 -31 41 -53 37 -106 -17z m-207 -111 c18 -35 12 -61 -17 -72 -35 -13 -54 -2 -65 37 -6 22 -4 32 9 42 25 18 61 15 73 -7z m-123 -23 c17 -22 22 -57 9 -67 -6 -5 -23 -12 -38 -16 -30 -8 -48 15 -48 59 0 32 57 50 77 24z m-123 -34 c35 -35 10 -84 -44 -84 -40 0 -51 83 -12 93 31 8 41 7 56 -9z m-410 -221 c-8 -31 -8 -38 1 -73 l7 -25 -21 24 c-24 26 -25 38 -11 75 13 35 32 34 24 -1z" transform="translate(0,84) scale(0.1,-0.1)" stroke="none" fill="#F3A181"/>

</g>

<g id="4" transform="translate(468.0,0)scale(1,1)">

<path d="M475 783 c-41 -11 -65 -37 -104 -113 -40 -77 -41 -101 -4 -82 10 5 45 12 77 15 33 3 65 12 71 19 22 24 49 130 38 147 -10 17 -44 23 -78 14z" transform="translate(0,84) scale(0.1,-0.1)" stroke="none" fill="#936C3F"/>

<path d="M533 324 c-63 -27 -77 -95 -26 -123 10 -5 48 -34 85 -63 82 -66 141 -98 177 -98 34 0 81 41 81 70 0 43 -55 117 -138 185 -48 40 -60 45 -101 44 -25 0 -60 -7 -78 -15z" transform="translate(0,84) scale(0.1,-0.1)" stroke="none" fill="#936C3F"/>

<path d="M967 632 c-56 -59 -80 -65 -186 -45 -188 34 -195 35 -276 23 -71 -9 -185 -31 -185 -34 0 -1 9 -19 20 -41 59 -115 -11 -195 -169 -195 -28 0 -51 -4 -51 -10 0 -5 -13 -25 -30 -43 -55 -63 -30 -156 52 -193 54 -24 207 -15 313 20 103 34 117 42 90 58 -35 21 -75 66 -75 85 0 41 81 88 146 87 36 -1 52 -8 100 -49 l56 -49 47 25 c141 74 263 177 277 234 10 41 -2 115 -23 144 -31 41 -53 37 -106 -17z m-207 -111 c18 -35 12 -61 -17 -72 -35 -13 -54 -2 -65 37 -6 22 -4 32 9 42 25 18 61 15 73 -7z m-123 -23 c17 -22 22 -57 9 -67 -6 -5 -23 -12 -38 -16 -30 -8 -48 15 -48 59 0 32 57 50 77 24z m-123 -34 c35 -35 10 -84 -44 -84 -40 0 -51 83 -12 93 31 8 41 7 56 -9z m-410 -221 c-8 -31 -8 -38 1 -73 l7 -25 -21 24 c-24 26 -25 38 -11 75 13 35 32 34 24 -1z" transform="translate(0,84) scale(0.1,-0.1)" stroke="none" fill="#F3A181"/>

</g>

</g>
<g id="row1" transform="translate(-43,84.0)">
<g id="0" transform="translate(0.0,0)scale(1,1)">

<path d="M475 783 c-41 -11 -65 -37 -104 -113 -40 -77 -41 -101 -4 -82 10 5 45 12 77 15 33 3 65 12 71 19 22 24 49 130 38 147 -10 17 -44 23 -78 14z" transform="translate(0,84) scale(0.1,-0.1)" stroke="none" fill="#936C3F"/>

<path d="M533 324 c-63 -27 -77 -95 -26 -123 10 -5 48 -34 85 -63 82 -66 141 -98 177 -98 34 0 81 41 81 70 0 43 -55 117 -138 185 -48 40 -60 45 -101 44 -25 0 -60 -7 -78 -15z" transform="translate(0,84) scale(0.1,-0.1)" stroke="none" fill="#936C3F"/>

<path d="M967 632 c-56 -59 -80 -65 -186 -45 -188 34 -195 35 -276 23 -71 -9 -185 -31 -185 -34 0 -1 9 -19 20 -41 59 -115 -11 -195 -169 -195 -28 0 -51 -4 -51 -10 0 -5 -13 -25 -30 -43 -55 -63 -30 -156 52 -193 54 -24 207 -15 313 20 103 34 117 42 90 58 -35 21 -75 66 -75 85 0 41 81 88 146 87 36 -1 52 -8 100 -49 l56 -49 47 25 c141 74 263 177 277 234 10 41 -2 115 -23 144 -31 41 -53 37 -106 -17z m-207 -111 c18 -35 12 -61 -17 -72 -35 -13 -54 -2 -65 37 -6 22 -4 32 9 42 25 18 61 15 73 -7z m-123 -23 c17 -22 22 -57 9 -67 -6 -5 -23 -12 -38 -16 -30 -8 -48 15 -48 59 0 32 57 50 77 24z m-123 -34 c35 -35 10 -84 -44 -84 -40 0 -51 83 -12 93 31 8 41 7 56 -9z m-410 -221 c-8 -31 -8 -38 1 -73 l7 -25 -21 24 c-24 26 -25 38 -11 75 13 35 32 34 24 -1z" transform="translate(0,84) scale(0.1,-0.1)" stroke="none" fill="#F3A181"/>

</g>

<g id="1" transform="translate(117.0,0)scale(1,1)">

<path d="M475 783 c-41 -11 -65 -37 -104 -113 -40 -77 -41 -101 -4 -82 10 5 45 12 77 15 33 3 65 12 71 19 22 24 49 130 38 147 -10 17 -44 23 -78 14z" transform="translate(0,84) scale(0.1,-0.1)" stroke="none" fill="#936C3F"/>

<path d="M533 324 c-63 -27 -77 -95 -26 -123 10 -5 48 -34 85 -63 82 -66 141 -98 177 -98 34 0 81 41 81 70 0 43 -55 117 -138 185 -48 40 -60 45 -101 44 -25 0 -60 -7 -78 -15z" transform="translate(0,84) scale(0.1,-0.1)" stroke="none" fill="#936C3F"/>

<path d="M967 632 c-56 -59 -80 -65 -186 -45 -188 34 -195 35 -276 23 -71 -9 -185 -31 -185 -34 0 -1 9 -19 20 -41 59 -115 -11 -195 -169 -195 -28 0 -51 -4 -51 -10 0 -5 -13 -25 -30 -43 -55 -63 -30 -156 52 -193 54 -24 207 -15 313 20 103 34 117 42 90 58 -35 21 -75 66 -75 85 0 41 81 88 146 87 36 -1 52 -8 100 -49 l56 -49 47 25 c141 74 263 177 277 234 10 41 -2 115 -23 144 -31 41 -53 37 -106 -17z m-207 -111 c18 -35 12 -61 -17 -72 -35 -13 -54 -2 -65 37 -6 22 -4 32 9 42 25 18 61 15 73 -7z m-123 -23 c17 -22 22 -57 9 -67 -6 -5 -23 -12 -38 -16 -30 -8 -48 15 -48 59 0 32 57 50 77 24z m-123 -34 c35 -35 10 -84 -44 -84 -40 0 -51 83 -12 93 31 8 41 7 56 -9z m-410 -221 c-8 -31 -8 -38 1 -73 l7 -25 -21 24 c-24 26 -25 38 -11 75 13 35 32 34 24 -1z" transform="translate(0,84) scale(0.1,-0.1)" stroke="none" fill="#F3A181"/>

</g>

<g id="2" transform="translate(234.0,0)scale(1,1)">

<path d="M475 783 c-41 -11 -65 -37 -104 -113 -40 -77 -41 -101 -4 -82 10 5 45 12 77 15 33 3 65 12 71 19 22 24 49 130 38 147 -10 17 -44 23 -78 14z" transform="translate(0,84) scale(0.1,-0.1)" stroke="none" fill="#936C3F"/>

<path d="M533 324 c-63 -27 -77 -95 -26 -123 10 -5 48 -34 85 -63 82 -66 141 -98 177 -98 34 0 81 41 81 70 0 43 -55 117 -138 185 -48 40 -60 45 -101 44 -25 0 -60 -7 -78 -15z" transform="translate(0,84) scale(0.1,-0.1)" stroke="none" fill="#936C3F"/>

<path d="M967 632 c-56 -59 -80 -65 -186 -45 -188 34 -195 35 -276 23 -71 -9 -185 -31 -185 -34 0 -1 9 -19 20 -41 59 -115 -11 -195 -169 -195 -28 0 -51 -4 -51 -10 0 -5 -13 -25 -30 -43 -55 -63 -30 -156 52 -193 54 -24 207 -15 313 20 103 34 117 42 90 58 -35 21 -75 66 -75 85 0 41 81 88 146 87 36 -1 52 -8 100 -49 l56 -49 47 25 c141 74 263 177 277 234 10 41 -2 115 -23 144 -31 41 -53 37 -106 -17z m-207 -111 c18 -35 12 -61 -17 -72 -35 -13 -54 -2 -65 37 -6 22 -4 32 9 42 25 18 61 15 73 -7z m-123 -23 c17 -22 22 -57 9 -67 -6 -5 -23 -12 -38 -16 -30 -8 -48 15 -48 59 0 32 57 50 77 24z m-123 -34 c35 -35 10 -84 -44 -84 -40 0 -51 83 -12 93 31 8 41 7 56 -9z m-410 -221 c-8 -31 -8 -38 1 -73 l7 -25 -21 24 c-24 26 -25 38 -11 75 13 35 32 34 24 -1z" transform="translate(0,84) scale(0.1,-0.1)" stroke="none" fill="#F3A181"/>

</g>

<g id="3" transform="translate(351.0,0)scale(1,1)">

<path d="M475 783 c-41 -11 -65 -37 -104 -113 -40 -77 -41 -101 -4 -82 10 5 45 12 77 15 33 3 65 12 71 19 22 24 49 130 38 147 -10 17 -44 23 -78 14z" transform="translate(0,84) scale(0.1,-0.1)" stroke="none" fill="#936C3F"/>

<path d="M533 324 c-63 -27 -77 -95 -26 -123 10 -5 48 -34 85 -63 82 -66 141 -98 177 -98 34 0 81 41 81 70 0 43 -55 117 -138 185 -48 40 -60 45 -101 44 -25 0 -60 -7 -78 -15z" transform="translate(0,84) scale(0.1,-0.1)" stroke="none" fill="#936C3F"/>

<path d="M967 632 c-56 -59 -80 -65 -186 -45 -188 34 -195 35 -276 23 -71 -9 -185 -31 -185 -34 0 -1 9 -19 20 -41 59 -115 -11 -195 -169 -195 -28 0 -51 -4 -51 -10 0 -5 -13 -25 -30 -43 -55 -63 -30 -156 52 -193 54 -24 207 -15 313 20 103 34 117 42 90 58 -35 21 -75 66 -75 85 0 41 81 88 146 87 36 -1 52 -8 100 -49 l56 -49 47 25 c141 74 263 177 277 234 10 41 -2 115 -23 144 -31 41 -53 37 -106 -17z m-207 -111 c18 -35 12 -61 -17 -72 -35 -13 -54 -2 -65 37 -6 22 -4 32 9 42 25 18 61 15 73 -7z m-123 -23 c17 -22 22 -57 9 -67 -6 -5 -23 -12 -38 -16 -30 -8 -48 15 -48 59 0 32 57 50 77 24z m-123 -34 c35 -35 10 -84 -44 -84 -40 0 -51 83 -12 93 31 8 41 7 56 -9z m-410 -221 c-8 -31 -8 -38 1 -73 l7 -25 -21 24 c-24 26 -25 38 -11 75 13 35 32 34 24 -1z" transform="translate(0,84) scale(0.1,-0.1)" stroke="none" fill="#F3A181"/>

</g>

<g id="4" transform="translate(468.0,0)scale(1,1)">

<path d="M475 783 c-41 -11 -65 -37 -104 -113 -40 -77 -41 -101 -4 -82 10 5 45 12 77 15 33 3 65 12 71 19 22 24 49 130 38 147 -10 17 -44 23 -78 14z" transform="translate(0,84) scale(0.1,-0.1)" stroke="none" fill="#936C3F"/>

<path d="M533 324 c-63 -27 -77 -95 -26 -123 10 -5 48 -34 85 -63 82 -66 141 -98 177 -98 34 0 81 41 81 70 0 43 -55 117 -138 185 -48 40 -60 45 -101 44 -25 0 -60 -7 -78 -15z" transform="translate(0,84) scale(0.1,-0.1)" stroke="none" fill="#936C3F"/>

<path d="M967 632 c-56 -59 -80 -65 -186 -45 -188 34 -195 35 -276 23 -71 -9 -185 -31 -185 -34 0 -1 9 -19 20 -41 59 -115 -11 -195 -169 -195 -28 0 -51 -4 -51 -10 0 -5 -13 -25 -30 -43 -55 -63 -30 -156 52 -193 54 -24 207 -15 313 20 103 34 117 42 90 58 -35 21 -75 66 -75 85 0 41 81 88 146 87 36 -1 52 -8 100 -49 l56 -49 47 25 c141 74 263 177 277 234 10 41 -2 115 -23 144 -31 41 -53 37 -106 -17z m-207 -111 c18 -35 12 -61 -17 -72 -35 -13 -54 -2 -65 37 -6 22 -4 32 9 42 25 18 61 15 73 -7z m-123 -23 c17 -22 22 -57 9 -67 -6 -5 -23 -12 -38 -16 -30 -8 -48 15 -48 59 0 32 57 50 77 24z m-123 -34 c35 -35 10 -84 -44 -84 -40 0 -51 83 -12 93 31 8 41 7 56 -9z m-410 -221 c-8 -31 -8 -38 1 -73 l7 -25 -21 24 c-24 26 -25 38 -11 75 13 35 32 34 24 -1z" transform="translate(0,84) scale(0.1,-0.1)" stroke="none" fill="#F3A181"/>

</g>

</g>
<g id="row2" transform="translate(15,168.0)">
<g id="0" transform="translate(0.0,0)scale(1,1)">

<path d="M475 783 c-41 -11 -65 -37 -104 -113 -40 -77 -41 -101 -4 -82 10 5 45 12 77 15 33 3 65 12 71 19 22 24 49 130 38 147 -10 17 -44 23 -78 14z" transform="translate(0,84) scale(0.1,-0.1)" stroke="none" fill="#936C3F"/>

<path d="M533 324 c-63 -27 -77 -95 -26 -123 10 -5 48 -34 85 -63 82 -66 141 -98 177 -98 34 0 81 41 81 70 0 43 -55 117 -138 185 -48 40 -60 45 -101 44 -25 0 -60 -7 -78 -15z" transform="translate(0,84) scale(0.1,-0.1)" stroke="none" fill="#936C3F"/>

<path d="M967 632 c-56 -59 -80 -65 -186 -45 -188 34 -195 35 -276 23 -71 -9 -185 -31 -185 -34 0 -1 9 -19 20 -41 59 -115 -11 -195 -169 -195 -28 0 -51 -4 -51 -10 0 -5 -13 -25 -30 -43 -55 -63 -30 -156 52 -193 54 -24 207 -15 313 20 103 34 117 42 90 58 -35 21 -75 66 -75 85 0 41 81 88 146 87 36 -1 52 -8 100 -49 l56 -49 47 25 c141 74 263 177 277 234 10 41 -2 115 -23 144 -31 41 -53 37 -106 -17z m-207 -111 c18 -35 12 -61 -17 -72 -35 -13 -54 -2 -65 37 -6 22 -4 32 9 42 25 18 61 15 73 -7z m-123 -23 c17 -22 22 -57 9 -67 -6 -5 -23 -12 -38 -16 -30 -8 -48 15 -48 59 0 32 57 50 77 24z m-123 -34 c35 -35 10 -84 -44 -84 -40 0 -51 83 -12 93 31 8 41 7 56 -9z m-410 -221 c-8 -31 -8 -38 1 -73 l7 -25 -21 24 c-24 26 -25 38 -11 75 13 35 32 34 24 -1z" transform="translate(0,84) scale(0.1,-0.1)" stroke="none" fill="#F3A181"/>

</g>

<g id="1" transform="translate(117.0,0)scale(1,1)">

<path d="M475 783 c-41 -11 -65 -37 -104 -113 -40 -77 -41 -101 -4 -82 10 5 45 12 77 15 33 3 65 12 71 19 22 24 49 130 38 147 -10 17 -44 23 -78 14z" transform="translate(0,84) scale(0.1,-0.1)" stroke="none" fill="#936C3F"/>

<path d="M533 324 c-63 -27 -77 -95 -26 -123 10 -5 48 -34 85 -63 82 -66 141 -98 177 -98 34 0 81 41 81 70 0 43 -55 117 -138 185 -48 40 -60 45 -101 44 -25 0 -60 -7 -78 -15z" transform="translate(0,84) scale(0.1,-0.1)" stroke="none" fill="#936C3F"/>

<path d="M967 632 c-56 -59 -80 -65 -186 -45 -188 34 -195 35 -276 23 -71 -9 -185 -31 -185 -34 0 -1 9 -19 20 -41 59 -115 -11 -195 -169 -195 -28 0 -51 -4 -51 -10 0 -5 -13 -25 -30 -43 -55 -63 -30 -156 52 -193 54 -24 207 -15 313 20 103 34 117 42 90 58 -35 21 -75 66 -75 85 0 41 81 88 146 87 36 -1 52 -8 100 -49 l56 -49 47 25 c141 74 263 177 277 234 10 41 -2 115 -23 144 -31 41 -53 37 -106 -17z m-207 -111 c18 -35 12 -61 -17 -72 -35 -13 -54 -2 -65 37 -6 22 -4 32 9 42 25 18 61 15 73 -7z m-123 -23 c17 -22 22 -57 9 -67 -6 -5 -23 -12 -38 -16 -30 -8 -48 15 -48 59 0 32 57 50 77 24z m-123 -34 c35 -35 10 -84 -44 -84 -40 0 -51 83 -12 93 31 8 41 7 56 -9z m-410 -221 c-8 -31 -8 -38 1 -73 l7 -25 -21 24 c-24 26 -25 38 -11 75 13 35 32 34 24 -1z" transform="translate(0,84) scale(0.1,-0.1)" stroke="none" fill="#F3A181"/>

</g>

<g id="2" transform="translate(234.0,0)scale(1,1)">

<path d="M475 783 c-41 -11 -65 -37 -104 -113 -40 -77 -41 -101 -4 -82 10 5 45 12 77 15 33 3 65 12 71 19 22 24 49 130 38 147 -10 17 -44 23 -78 14z" transform="translate(0,84) scale(0.1,-0.1)" stroke="none" fill="#936C3F"/>

<path d="M533 324 c-63 -27 -77 -95 -26 -123 10 -5 48 -34 85 -63 82 -66 141 -98 177 -98 34 0 81 41 81 70 0 43 -55 117 -138 185 -48 40 -60 45 -101 44 -25 0 -60 -7 -78 -15z" transform="translate(0,84) scale(0.1,-0.1)" stroke="none" fill="#936C3F"/>

<path d="M967 632 c-56 -59 -80 -65 -186 -45 -188 34 -195 35 -276 23 -71 -9 -185 -31 -185 -34 0 -1 9 -19 20 -41 59 -115 -11 -195 -169 -195 -28 0 -51 -4 -51 -10 0 -5 -13 -25 -30 -43 -55 -63 -30 -156 52 -193 54 -24 207 -15 313 20 103 34 117 42 90 58 -35 21 -75 66 -75 85 0 41 81 88 146 87 36 -1 52 -8 100 -49 l56 -49 47 25 c141 74 263 177 277 234 10 41 -2 115 -23 144 -31 41 -53 37 -106 -17z m-207 -111 c18 -35 12 -61 -17 -72 -35 -13 -54 -2 -65 37 -6 22 -4 32 9 42 25 18 61 15 73 -7z m-123 -23 c17 -22 22 -57 9 -67 -6 -5 -23 -12 -38 -16 -30 -8 -48 15 -48 59 0 32 57 50 77 24z m-123 -34 c35 -35 10 -84 -44 -84 -40 0 -51 83 -12 93 31 8 41 7 56 -9z m-410 -221 c-8 -31 -8 -38 1 -73 l7 -25 -21 24 c-24 26 -25 38 -11 75 13 35 32 34 24 -1z" transform="translate(0,84) scale(0.1,-0.1)" stroke="none" fill="#F3A181"/>

</g>

<g id="3" transform="translate(351.0,0)scale(1,1)">

<path d="M475 783 c-41 -11 -65 -37 -104 -113 -40 -77 -41 -101 -4 -82 10 5 45 12 77 15 33 3 65 12 71 19 22 24 49 130 38 147 -10 17 -44 23 -78 14z" transform="translate(0,84) scale(0.1,-0.1)" stroke="none" fill="#936C3F"/>

<path d="M533 324 c-63 -27 -77 -95 -26 -123 10 -5 48 -34 85 -63 82 -66 141 -98 177 -98 34 0 81 41 81 70 0 43 -55 117 -138 185 -48 40 -60 45 -101 44 -25 0 -60 -7 -78 -15z" transform="translate(0,84) scale(0.1,-0.1)" stroke="none" fill="#936C3F"/>

<path d="M967 632 c-56 -59 -80 -65 -186 -45 -188 34 -195 35 -276 23 -71 -9 -185 -31 -185 -34 0 -1 9 -19 20 -41 59 -115 -11 -195 -169 -195 -28 0 -51 -4 -51 -10 0 -5 -13 -25 -30 -43 -55 -63 -30 -156 52 -193 54 -24 207 -15 313 20 103 34 117 42 90 58 -35 21 -75 66 -75 85 0 41 81 88 146 87 36 -1 52 -8 100 -49 l56 -49 47 25 c141 74 263 177 277 234 10 41 -2 115 -23 144 -31 41 -53 37 -106 -17z m-207 -111 c18 -35 12 -61 -17 -72 -35 -13 -54 -2 -65 37 -6 22 -4 32 9 42 25 18 61 15 73 -7z m-123 -23 c17 -22 22 -57 9 -67 -6 -5 -23 -12 -38 -16 -30 -8 -48 15 -48 59 0 32 57 50 77 24z m-123 -34 c35 -35 10 -84 -44 -84 -40 0 -51 83 -12 93 31 8 41 7 56 -9z m-410 -221 c-8 -31 -8 -38 1 -73 l7 -25 -21 24 c-24 26 -25 38 -11 75 13 35 32 34 24 -1z" transform="translate(0,84) scale(0.1,-0.1)" stroke="none" fill="#F3A181"/>

</g>

<g id="4" transform="translate(468.0,0)scale(1,1)">

<path d="M475 783 c-41 -11 -65 -37 -104 -113 -40 -77 -41 -101 -4 -82 10 5 45 12 77 15 33 3 65 12 71 19 22 24 49 130 38 147 -10 17 -44 23 -78 14z" transform="translate(0,84) scale(0.1,-0.1)" stroke="none" fill="#936C3F"/>

<path d="M533 324 c-63 -27 -77 -95 -26 -123 10 -5 48 -34 85 -63 82 -66 141 -98 177 -98 34 0 81 41 81 70 0 43 -55 117 -138 185 -48 40 -60 45 -101 44 -25 0 -60 -7 -78 -15z" transform="translate(0,84) scale(0.1,-0.1)" stroke="none" fill="#936C3F"/>

<path d="M967 632 c-56 -59 -80 -65 -186 -45 -188 34 -195 35 -276 23 -71 -9 -185 -31 -185 -34 0 -1 9 -19 20 -41 59 -115 -11 -195 -169 -195 -28 0 -51 -4 -51 -10 0 -5 -13 -25 -30 -43 -55 -63 -30 -156 52 -193 54 -24 207 -15 313 20 103 34 117 42 90 58 -35 21 -75 66 -75 85 0 41 81 88 146 87 36 -1 52 -8 100 -49 l56 -49 47 25 c141 74 263 177 277 234 10 41 -2 115 -23 144 -31 41 -53 37 -106 -17z m-207 -111 c18 -35 12 -61 -17 -72 -35 -13 -54 -2 -65 37 -6 22 -4 32 9 42 25 18 61 15 73 -7z m-123 -23 c17 -22 22 -57 9 -67 -6 -5 -23 -12 -38 -16 -30 -8 -48 15 -48 59 0 32 57 50 77 24z m-123 -34 c35 -35 10 -84 -44 -84 -40 0 -51 83 -12 93 31 8 41 7 56 -9z m-410 -221 c-8 -31 -8 -38 1 -73 l7 -25 -21 24 c-24 26 -25 38 -11 75 13 35 32 34 24 -1z" transform="translate(0,84) scale(0.1,-0.1)" stroke="none" fill="#F3A181"/>

</g>

</g>
<g id="row3" transform="translate(-43,252.0)">
<g id="0" transform="translate(0.0,0)scale(1,1)">

<path d="M475 783 c-41 -11 -65 -37 -104 -113 -40 -77 -41 -101 -4 -82 10 5 45 12 77 15 33 3 65 12 71 19 22 24 49 130 38 147 -10 17 -44 23 -78 14z" transform="translate(0,84) scale(0.1,-0.1)" stroke="none" fill="#936C3F"/>

<path d="M533 324 c-63 -27 -77 -95 -26 -123 10 -5 48 -34 85 -63 82 -66 141 -98 177 -98 34 0 81 41 81 70 0 43 -55 117 -138 185 -48 40 -60 45 -101 44 -25 0 -60 -7 -78 -15z" transform="translate(0,84) scale(0.1,-0.1)" stroke="none" fill="#936C3F"/>

<path d="M967 632 c-56 -59 -80 -65 -186 -45 -188 34 -195 35 -276 23 -71 -9 -185 -31 -185 -34 0 -1 9 -19 20 -41 59 -115 -11 -195 -169 -195 -28 0 -51 -4 -51 -10 0 -5 -13 -25 -30 -43 -55 -63 -30 -156 52 -193 54 -24 207 -15 313 20 103 34 117 42 90 58 -35 21 -75 66 -75 85 0 41 81 88 146 87 36 -1 52 -8 100 -49 l56 -49 47 25 c141 74 263 177 277 234 10 41 -2 115 -23 144 -31 41 -53 37 -106 -17z m-207 -111 c18 -35 12 -61 -17 -72 -35 -13 -54 -2 -65 37 -6 22 -4 32 9 42 25 18 61 15 73 -7z m-123 -23 c17 -22 22 -57 9 -67 -6 -5 -23 -12 -38 -16 -30 -8 -48 15 -48 59 0 32 57 50 77 24z m-123 -34 c35 -35 10 -84 -44 -84 -40 0 -51 83 -12 93 31 8 41 7 56 -9z m-410 -221 c-8 -31 -8 -38 1 -73 l7 -25 -21 24 c-24 26 -25 38 -11 75 13 35 32 34 24 -1z" transform="translate(0,84) scale(0.1,-0.1)" stroke="none" fill="#F3A181"/>

</g>

<g id="1" transform="translate(117.0,0)scale(1,1)">

<path d="M475 783 c-41 -11 -65 -37 -104 -113 -40 -77 -41 -101 -4 -82 10 5 45 12 77 15 33 3 65 12 71 19 22 24 49 130 38 147 -10 17 -44 23 -78 14z" transform="translate(0,84) scale(0.1,-0.1)" stroke="none" fill="#936C3F"/>

<path d="M533 324 c-63 -27 -77 -95 -26 -123 10 -5 48 -34 85 -63 82 -66 141 -98 177 -98 34 0 81 41 81 70 0 43 -55 117 -138 185 -48 40 -60 45 -101 44 -25 0 -60 -7 -78 -15z" transform="translate(0,84) scale(0.1,-0.1)" stroke="none" fill="#936C3F"/>

<path d="M967 632 c-56 -59 -80 -65 -186 -45 -188 34 -195 35 -276 23 -71 -9 -185 -31 -185 -34 0 -1 9 -19 20 -41 59 -115 -11 -195 -169 -195 -28 0 -51 -4 -51 -10 0 -5 -13 -25 -30 -43 -55 -63 -30 -156 52 -193 54 -24 207 -15 313 20 103 34 117 42 90 58 -35 21 -75 66 -75 85 0 41 81 88 146 87 36 -1 52 -8 100 -49 l56 -49 47 25 c141 74 263 177 277 234 10 41 -2 115 -23 144 -31 41 -53 37 -106 -17z m-207 -111 c18 -35 12 -61 -17 -72 -35 -13 -54 -2 -65 37 -6 22 -4 32 9 42 25 18 61 15 73 -7z m-123 -23 c17 -22 22 -57 9 -67 -6 -5 -23 -12 -38 -16 -30 -8 -48 15 -48 59 0 32 57 50 77 24z m-123 -34 c35 -35 10 -84 -44 -84 -40 0 -51 83 -12 93 31 8 41 7 56 -9z m-410 -221 c-8 -31 -8 -38 1 -73 l7 -25 -21 24 c-24 26 -25 38 -11 75 13 35 32 34 24 -1z" transform="translate(0,84) scale(0.1,-0.1)" stroke="none" fill="#F3A181"/>

</g>

<g id="2" transform="translate(234.0,0)scale(1,1)">

<path d="M475 783 c-41 -11 -65 -37 -104 -113 -40 -77 -41 -101 -4 -82 10 5 45 12 77 15 33 3 65 12 71 19 22 24 49 130 38 147 -10 17 -44 23 -78 14z" transform="translate(0,84) scale(0.1,-0.1)" stroke="none" fill="#936C3F"/>

<path d="M533 324 c-63 -27 -77 -95 -26 -123 10 -5 48 -34 85 -63 82 -66 141 -98 177 -98 34 0 81 41 81 70 0 43 -55 117 -138 185 -48 40 -60 45 -101 44 -25 0 -60 -7 -78 -15z" transform="translate(0,84) scale(0.1,-0.1)" stroke="none" fill="#936C3F"/>

<path d="M967 632 c-56 -59 -80 -65 -186 -45 -188 34 -195 35 -276 23 -71 -9 -185 -31 -185 -34 0 -1 9 -19 20 -41 59 -115 -11 -195 -169 -195 -28 0 -51 -4 -51 -10 0 -5 -13 -25 -30 -43 -55 -63 -30 -156 52 -193 54 -24 207 -15 313 20 103 34 117 42 90 58 -35 21 -75 66 -75 85 0 41 81 88 146 87 36 -1 52 -8 100 -49 l56 -49 47 25 c141 74 263 177 277 234 10 41 -2 115 -23 144 -31 41 -53 37 -106 -17z m-207 -111 c18 -35 12 -61 -17 -72 -35 -13 -54 -2 -65 37 -6 22 -4 32 9 42 25 18 61 15 73 -7z m-123 -23 c17 -22 22 -57 9 -67 -6 -5 -23 -12 -38 -16 -30 -8 -48 15 -48 59 0 32 57 50 77 24z m-123 -34 c35 -35 10 -84 -44 -84 -40 0 -51 83 -12 93 31 8 41 7 56 -9z m-410 -221 c-8 -31 -8 -38 1 -73 l7 -25 -21 24 c-24 26 -25 38 -11 75 13 35 32 34 24 -1z" transform="translate(0,84) scale(0.1,-0.1)" stroke="none" fill="#F3A181"/>

</g>

<g id="3" transform="translate(351.0,0)scale(1,1)">

<path d="M475 783 c-41 -11 -65 -37 -104 -113 -40 -77 -41 -101 -4 -82 10 5 45 12 77 15 33 3 65 12 71 19 22 24 49 130 38 147 -10 17 -44 23 -78 14z" transform="translate(0,84) scale(0.1,-0.1)" stroke="none" fill="#936C3F"/>

<path d="M533 324 c-63 -27 -77 -95 -26 -123 10 -5 48 -34 85 -63 82 -66 141 -98 177 -98 34 0 81 41 81 70 0 43 -55 117 -138 185 -48 40 -60 45 -101 44 -25 0 -60 -7 -78 -15z" transform="translate(0,84) scale(0.1,-0.1)" stroke="none" fill="#936C3F"/>

<path d="M967 632 c-56 -59 -80 -65 -186 -45 -188 34 -195 35 -276 23 -71 -9 -185 -31 -185 -34 0 -1 9 -19 20 -41 59 -115 -11 -195 -169 -195 -28 0 -51 -4 -51 -10 0 -5 -13 -25 -30 -43 -55 -63 -30 -156 52 -193 54 -24 207 -15 313 20 103 34 117 42 90 58 -35 21 -75 66 -75 85 0 41 81 88 146 87 36 -1 52 -8 100 -49 l56 -49 47 25 c141 74 263 177 277 234 10 41 -2 115 -23 144 -31 41 -53 37 -106 -17z m-207 -111 c18 -35 12 -61 -17 -72 -35 -13 -54 -2 -65 37 -6 22 -4 32 9 42 25 18 61 15 73 -7z m-123 -23 c17 -22 22 -57 9 -67 -6 -5 -23 -12 -38 -16 -30 -8 -48 15 -48 59 0 32 57 50 77 24z m-123 -34 c35 -35 10 -84 -44 -84 -40 0 -51 83 -12 93 31 8 41 7 56 -9z m-410 -221 c-8 -31 -8 -38 1 -73 l7 -25 -21 24 c-24 26 -25 38 -11 75 13 35 32 34 24 -1z" transform="translate(0,84) scale(0.1,-0.1)" stroke="none" fill="#F3A181"/>

</g>

<g id="4" transform="translate(468.0,0)scale(1,1)">

<path d="M475 783 c-41 -11 -65 -37 -104 -113 -40 -77 -41 -101 -4 -82 10 5 45 12 77 15 33 3 65 12 71 19 22 24 49 130 38 147 -10 17 -44 23 -78 14z" transform="translate(0,84) scale(0.1,-0.1)" stroke="none" fill="#936C3F"/>

<path d="M533 324 c-63 -27 -77 -95 -26 -123 10 -5 48 -34 85 -63 82 -66 141 -98 177 -98 34 0 81 41 81 70 0 43 -55 117 -138 185 -48 40 -60 45 -101 44 -25 0 -60 -7 -78 -15z" transform="translate(0,84) scale(0.1,-0.1)" stroke="none" fill="#936C3F"/>

<path d="M967 632 c-56 -59 -80 -65 -186 -45 -188 34 -195 35 -276 23 -71 -9 -185 -31 -185 -34 0 -1 9 -19 20 -41 59 -115 -11 -195 -169 -195 -28 0 -51 -4 -51 -10 0 -5 -13 -25 -30 -43 -55 -63 -30 -156 52 -193 54 -24 207 -15 313 20 103 34 117 42 90 58 -35 21 -75 66 -75 85 0 41 81 88 146 87 36 -1 52 -8 100 -49 l56 -49 47 25 c141 74 263 177 277 234 10 41 -2 115 -23 144 -31 41 -53 37 -106 -17z m-207 -111 c18 -35 12 -61 -17 -72 -35 -13 -54 -2 -65 37 -6 22 -4 32 9 42 25 18 61 15 73 -7z m-123 -23 c17 -22 22 -57 9 -67 -6 -5 -23 -12 -38 -16 -30 -8 -48 15 -48 59 0 32 57 50 77 24z m-123 -34 c35 -35 10 -84 -44 -84 -40 0 -51 83 -12 93 31 8 41 7 56 -9z m-410 -221 c-8 -31 -8 -38 1 -73 l7 -25 -21 24 c-24 26 -25 38 -11 75 13 35 32 34 24 -1z" transform="translate(0,84) scale(0.1,-0.1)" stroke="none" fill="#F3A181"/>

</g>

</g>
</svg>