<?xml version="1.0" standalone="no"?>
<!DOCTYPE svg PUBLIC "-//W3C//DTD SVG 20010904//EN"
 "http://www.w3.org/TR/2001/REC-SVG-20010904/DTD/svg10.dtd">
<svg version="1.0" xmlns="http://www.w3.org/2000/svg" width="6228pt" height="6228pt" viewBox="0 0 6228 6228" preserveAspectRatio = "xMidYMid meet" >
<metadata>
Created by ZoeQu, written in 2022
</metadata>
<rect width="6228" height="6228" fill="#B3C6D5"/>
<g id="row0" transform="translate(0,0.0)">
<g id="0" transform="translate(0.0,0)scale(0.25,0.25)">

<g id="pattern">
<rect width="6747" height="6747" fill="#B3C6D5"/>
<g id="pattern1" transform="matrix(1,0,0,1,420,420)">
<path d="M780 1271 c-30 -10 -107 -48 -127 -64 -44 -36 -91 -90 -108 -124 -11 -21 -24 -41 -28 -44 -4 -3 -31 0 -60 8 -89 24 -211 -2 -289 -61 -56 -43 -99 -137 -91 -200 9 -88 111 -217 221 -282 31 -18 33 -21 26 -54 -5 -19 -8 -73 -8 -120 -1 -78 2 -89 29 -130 38 -57 65 -79 134 -109 43 -18 67 -22 103 -18 87 11 204 90 193 131 -5 16 -4 18 4 6 12 -17 10 -19 51 47 17 29 35 53 38 53 4 0 34 -7 67 -15 79 -19 110 -18 165 2 48 17 100 59 100 79 0 7 3 14 8 16 16 7 43 83 48 136 9 83 -21 161 -83 221 -27 25 -57 51 -68 57 -18 10 -18 15 -7 70 20 97 21 103 12 163 -17 123 -77 206 -165 230 -45 12 -127 13 -165 2z m-16 -522 c36 -43 32 -72 -17 -126 -44 -49 -127 -10 -127 59 0 85 93 128 144 67z" transform="translate(0.000000,0.000000) scale(1,1)" stroke="none" fill="#1F444E"/>
</g>
<g id="pattern2" transform="matrix(0.618,0,0,0.618,3197,939)">
<path d="M780 1271 c-30 -10 -107 -48 -127 -64 -44 -36 -91 -90 -108 -124 -11 -21 -24 -41 -28 -44 -4 -3 -31 0 -60 8 -89 24 -211 -2 -289 -61 -56 -43 -99 -137 -91 -200 9 -88 111 -217 221 -282 31 -18 33 -21 26 -54 -5 -19 -8 -73 -8 -120 -1 -78 2 -89 29 -130 38 -57 65 -79 134 -109 43 -18 67 -22 103 -18 87 11 204 90 193 131 -5 16 -4 18 4 6 12 -17 10 -19 51 47 17 29 35 53 38 53 4 0 34 -7 67 -15 79 -19 110 -18 165 2 48 17 100 59 100 79 0 7 3 14 8 16 16 7 43 83 48 136 9 83 -21 161 -83 221 -27 25 -57 51 -68 57 -18 10 -18 15 -7 70 20 97 21 103 12 163 -17 123 -77 206 -165 230 -45 12 -127 13 -165 2z m-16 -522 c36 -43 32 -72 -17 -126 -44 -49 -127 -10 -127 59 0 85 93 128 144 67z" transform="translate(4235,0.000000) scale(-1,1)" stroke="none" fill="#1F444E"/>
</g>
<g id="pattern3" transform="matrix(0.618,0,0,0.618,1198,4235)matrix(0.71,0.71,-0.71,0.71,0,0)">
<path d="M780 1271 c-30 -10 -107 -48 -127 -64 -44 -36 -91 -90 -108 -124 -11 -21 -24 -41 -28 -44 -4 -3 -31 0 -60 8 -89 24 -211 -2 -289 -61 -56 -43 -99 -137 -91 -200 9 -88 111 -217 221 -282 31 -18 33 -21 26 -54 -5 -19 -8 -73 -8 -120 -1 -78 2 -89 29 -130 38 -57 65 -79 134 -109 43 -18 67 -22 103 -18 87 11 204 90 193 131 -5 16 -4 18 4 6 12 -17 10 -19 51 47 17 29 35 53 38 53 4 0 34 -7 67 -15 79 -19 110 -18 165 2 48 17 100 59 100 79 0 7 3 14 8 16 16 7 43 83 48 136 9 83 -21 161 -83 221 -27 25 -57 51 -68 57 -18 10 -18 15 -7 70 20 97 21 103 12 163 -17 123 -77 206 -165 230 -45 12 -127 13 -165 2z m-16 -522 c36 -43 32 -72 -17 -126 -44 -49 -127 -10 -127 59 0 85 93 128 144 67z" transform="translate(679,-679) scale(1,1)" stroke="none" fill="#1F444E"/>
</g>
<g id="pattern4" transform="matrix(1.618,0,0,1.618,1777,1777)matrix(0.87,0.5,-0.5,0.87,0,0)">
<path d="M780 1271 c-30 -10 -107 -48 -127 -64 -44 -36 -91 -90 -108 -124 -11 -21 -24 -41 -28 -44 -4 -3 -31 0 -60 8 -89 24 -211 -2 -289 -61 -56 -43 -99 -137 -91 -200 9 -88 111 -217 221 -282 31 -18 33 -21 26 -54 -5 -19 -8 -73 -8 -120 -1 -78 2 -89 29 -130 38 -57 65 -79 134 -109 43 -18 67 -22 103 -18 87 11 204 90 193 131 -5 16 -4 18 4 6 12 -17 10 -19 51 47 17 29 35 53 38 53 4 0 34 -7 67 -15 79 -19 110 -18 165 2 48 17 100 59 100 79 0 7 3 14 8 16 16 7 43 83 48 136 9 83 -21 161 -83 221 -27 25 -57 51 -68 57 -18 10 -18 15 -7 70 20 97 21 103 12 163 -17 123 -77 206 -165 230 -45 12 -127 13 -165 2z m-16 -522 c36 -43 32 -72 -17 -126 -44 -49 -127 -10 -127 59 0 85 93 128 144 67z" transform="translate(679,-679) scale(1,1)" stroke="none" fill="#1F444E"/>
</g>
</g>
</g>

<g id="1" transform="translate(1557.0,0)scale(0.25,0.25)">

<g id="pattern">
<rect width="6747" height="6747" fill="#B3C6D5"/>
<g id="pattern1" transform="matrix(1,0,0,1,420,420)">
<path d="M780 1271 c-30 -10 -107 -48 -127 -64 -44 -36 -91 -90 -108 -124 -11 -21 -24 -41 -28 -44 -4 -3 -31 0 -60 8 -89 24 -211 -2 -289 -61 -56 -43 -99 -137 -91 -200 9 -88 111 -217 221 -282 31 -18 33 -21 26 -54 -5 -19 -8 -73 -8 -120 -1 -78 2 -89 29 -130 38 -57 65 -79 134 -109 43 -18 67 -22 103 -18 87 11 204 90 193 131 -5 16 -4 18 4 6 12 -17 10 -19 51 47 17 29 35 53 38 53 4 0 34 -7 67 -15 79 -19 110 -18 165 2 48 17 100 59 100 79 0 7 3 14 8 16 16 7 43 83 48 136 9 83 -21 161 -83 221 -27 25 -57 51 -68 57 -18 10 -18 15 -7 70 20 97 21 103 12 163 -17 123 -77 206 -165 230 -45 12 -127 13 -165 2z m-16 -522 c36 -43 32 -72 -17 -126 -44 -49 -127 -10 -127 59 0 85 93 128 144 67z" transform="translate(0.000000,0.000000) scale(1,1)" stroke="none" fill="#1F444E"/>
</g>
<g id="pattern2" transform="matrix(0.618,0,0,0.618,3197,939)">
<path d="M780 1271 c-30 -10 -107 -48 -127 -64 -44 -36 -91 -90 -108 -124 -11 -21 -24 -41 -28 -44 -4 -3 -31 0 -60 8 -89 24 -211 -2 -289 -61 -56 -43 -99 -137 -91 -200 9 -88 111 -217 221 -282 31 -18 33 -21 26 -54 -5 -19 -8 -73 -8 -120 -1 -78 2 -89 29 -130 38 -57 65 -79 134 -109 43 -18 67 -22 103 -18 87 11 204 90 193 131 -5 16 -4 18 4 6 12 -17 10 -19 51 47 17 29 35 53 38 53 4 0 34 -7 67 -15 79 -19 110 -18 165 2 48 17 100 59 100 79 0 7 3 14 8 16 16 7 43 83 48 136 9 83 -21 161 -83 221 -27 25 -57 51 -68 57 -18 10 -18 15 -7 70 20 97 21 103 12 163 -17 123 -77 206 -165 230 -45 12 -127 13 -165 2z m-16 -522 c36 -43 32 -72 -17 -126 -44 -49 -127 -10 -127 59 0 85 93 128 144 67z" transform="translate(4235,0.000000) scale(-1,1)" stroke="none" fill="#1F444E"/>
</g>
<g id="pattern3" transform="matrix(0.618,0,0,0.618,1198,4235)matrix(0.71,0.71,-0.71,0.71,0,0)">
<path d="M780 1271 c-30 -10 -107 -48 -127 -64 -44 -36 -91 -90 -108 -124 -11 -21 -24 -41 -28 -44 -4 -3 -31 0 -60 8 -89 24 -211 -2 -289 -61 -56 -43 -99 -137 -91 -200 9 -88 111 -217 221 -282 31 -18 33 -21 26 -54 -5 -19 -8 -73 -8 -120 -1 -78 2 -89 29 -130 38 -57 65 -79 134 -109 43 -18 67 -22 103 -18 87 11 204 90 193 131 -5 16 -4 18 4 6 12 -17 10 -19 51 47 17 29 35 53 38 53 4 0 34 -7 67 -15 79 -19 110 -18 165 2 48 17 100 59 100 79 0 7 3 14 8 16 16 7 43 83 48 136 9 83 -21 161 -83 221 -27 25 -57 51 -68 57 -18 10 -18 15 -7 70 20 97 21 103 12 163 -17 123 -77 206 -165 230 -45 12 -127 13 -165 2z m-16 -522 c36 -43 32 -72 -17 -126 -44 -49 -127 -10 -127 59 0 85 93 128 144 67z" transform="translate(679,-679) scale(1,1)" stroke="none" fill="#1F444E"/>
</g>
<g id="pattern4" transform="matrix(1.618,0,0,1.618,1777,1777)matrix(0.87,0.5,-0.5,0.87,0,0)">
<path d="M780 1271 c-30 -10 -107 -48 -127 -64 -44 -36 -91 -90 -108 -124 -11 -21 -24 -41 -28 -44 -4 -3 -31 0 -60 8 -89 24 -211 -2 -289 -61 -56 -43 -99 -137 -91 -200 9 -88 111 -217 221 -282 31 -18 33 -21 26 -54 -5 -19 -8 -73 -8 -120 -1 -78 2 -89 29 -130 38 -57 65 -79 134 -109 43 -18 67 -22 103 -18 87 11 204 90 193 131 -5 16 -4 18 4 6 12 -17 10 -19 51 47 17 29 35 53 38 53 4 0 34 -7 67 -15 79 -19 110 -18 165 2 48 17 100 59 100 79 0 7 3 14 8 16 16 7 43 83 48 136 9 83 -21 161 -83 221 -27 25 -57 51 -68 57 -18 10 -18 15 -7 70 20 97 21 103 12 163 -17 123 -77 206 -165 230 -45 12 -127 13 -165 2z m-16 -522 c36 -43 32 -72 -17 -126 -44 -49 -127 -10 -127 59 0 85 93 128 144 67z" transform="translate(679,-679) scale(1,1)" stroke="none" fill="#1F444E"/>
</g>
</g>
</g>

<g id="2" transform="translate(3114.0,0)scale(0.25,0.25)">

<g id="pattern">
<rect width="6747" height="6747" fill="#B3C6D5"/>
<g id="pattern1" transform="matrix(1,0,0,1,420,420)">
<path d="M780 1271 c-30 -10 -107 -48 -127 -64 -44 -36 -91 -90 -108 -124 -11 -21 -24 -41 -28 -44 -4 -3 -31 0 -60 8 -89 24 -211 -2 -289 -61 -56 -43 -99 -137 -91 -200 9 -88 111 -217 221 -282 31 -18 33 -21 26 -54 -5 -19 -8 -73 -8 -120 -1 -78 2 -89 29 -130 38 -57 65 -79 134 -109 43 -18 67 -22 103 -18 87 11 204 90 193 131 -5 16 -4 18 4 6 12 -17 10 -19 51 47 17 29 35 53 38 53 4 0 34 -7 67 -15 79 -19 110 -18 165 2 48 17 100 59 100 79 0 7 3 14 8 16 16 7 43 83 48 136 9 83 -21 161 -83 221 -27 25 -57 51 -68 57 -18 10 -18 15 -7 70 20 97 21 103 12 163 -17 123 -77 206 -165 230 -45 12 -127 13 -165 2z m-16 -522 c36 -43 32 -72 -17 -126 -44 -49 -127 -10 -127 59 0 85 93 128 144 67z" transform="translate(0.000000,0.000000) scale(1,1)" stroke="none" fill="#1F444E"/>
</g>
<g id="pattern2" transform="matrix(0.618,0,0,0.618,3197,939)">
<path d="M780 1271 c-30 -10 -107 -48 -127 -64 -44 -36 -91 -90 -108 -124 -11 -21 -24 -41 -28 -44 -4 -3 -31 0 -60 8 -89 24 -211 -2 -289 -61 -56 -43 -99 -137 -91 -200 9 -88 111 -217 221 -282 31 -18 33 -21 26 -54 -5 -19 -8 -73 -8 -120 -1 -78 2 -89 29 -130 38 -57 65 -79 134 -109 43 -18 67 -22 103 -18 87 11 204 90 193 131 -5 16 -4 18 4 6 12 -17 10 -19 51 47 17 29 35 53 38 53 4 0 34 -7 67 -15 79 -19 110 -18 165 2 48 17 100 59 100 79 0 7 3 14 8 16 16 7 43 83 48 136 9 83 -21 161 -83 221 -27 25 -57 51 -68 57 -18 10 -18 15 -7 70 20 97 21 103 12 163 -17 123 -77 206 -165 230 -45 12 -127 13 -165 2z m-16 -522 c36 -43 32 -72 -17 -126 -44 -49 -127 -10 -127 59 0 85 93 128 144 67z" transform="translate(4235,0.000000) scale(-1,1)" stroke="none" fill="#1F444E"/>
</g>
<g id="pattern3" transform="matrix(0.618,0,0,0.618,1198,4235)matrix(0.71,0.71,-0.71,0.71,0,0)">
<path d="M780 1271 c-30 -10 -107 -48 -127 -64 -44 -36 -91 -90 -108 -124 -11 -21 -24 -41 -28 -44 -4 -3 -31 0 -60 8 -89 24 -211 -2 -289 -61 -56 -43 -99 -137 -91 -200 9 -88 111 -217 221 -282 31 -18 33 -21 26 -54 -5 -19 -8 -73 -8 -120 -1 -78 2 -89 29 -130 38 -57 65 -79 134 -109 43 -18 67 -22 103 -18 87 11 204 90 193 131 -5 16 -4 18 4 6 12 -17 10 -19 51 47 17 29 35 53 38 53 4 0 34 -7 67 -15 79 -19 110 -18 165 2 48 17 100 59 100 79 0 7 3 14 8 16 16 7 43 83 48 136 9 83 -21 161 -83 221 -27 25 -57 51 -68 57 -18 10 -18 15 -7 70 20 97 21 103 12 163 -17 123 -77 206 -165 230 -45 12 -127 13 -165 2z m-16 -522 c36 -43 32 -72 -17 -126 -44 -49 -127 -10 -127 59 0 85 93 128 144 67z" transform="translate(679,-679) scale(1,1)" stroke="none" fill="#1F444E"/>
</g>
<g id="pattern4" transform="matrix(1.618,0,0,1.618,1777,1777)matrix(0.87,0.5,-0.5,0.87,0,0)">
<path d="M780 1271 c-30 -10 -107 -48 -127 -64 -44 -36 -91 -90 -108 -124 -11 -21 -24 -41 -28 -44 -4 -3 -31 0 -60 8 -89 24 -211 -2 -289 -61 -56 -43 -99 -137 -91 -200 9 -88 111 -217 221 -282 31 -18 33 -21 26 -54 -5 -19 -8 -73 -8 -120 -1 -78 2 -89 29 -130 38 -57 65 -79 134 -109 43 -18 67 -22 103 -18 87 11 204 90 193 131 -5 16 -4 18 4 6 12 -17 10 -19 51 47 17 29 35 53 38 53 4 0 34 -7 67 -15 79 -19 110 -18 165 2 48 17 100 59 100 79 0 7 3 14 8 16 16 7 43 83 48 136 9 83 -21 161 -83 221 -27 25 -57 51 -68 57 -18 10 -18 15 -7 70 20 97 21 103 12 163 -17 123 -77 206 -165 230 -45 12 -127 13 -165 2z m-16 -522 c36 -43 32 -72 -17 -126 -44 -49 -127 -10 -127 59 0 85 93 128 144 67z" transform="translate(679,-679) scale(1,1)" stroke="none" fill="#1F444E"/>
</g>
</g>
</g>

<g id="3" transform="translate(4671.0,0)scale(0.25,0.25)">

<g id="pattern">
<rect width="6747" height="6747" fill="#B3C6D5"/>
<g id="pattern1" transform="matrix(1,0,0,1,420,420)">
<path d="M780 1271 c-30 -10 -107 -48 -127 -64 -44 -36 -91 -90 -108 -124 -11 -21 -24 -41 -28 -44 -4 -3 -31 0 -60 8 -89 24 -211 -2 -289 -61 -56 -43 -99 -137 -91 -200 9 -88 111 -217 221 -282 31 -18 33 -21 26 -54 -5 -19 -8 -73 -8 -120 -1 -78 2 -89 29 -130 38 -57 65 -79 134 -109 43 -18 67 -22 103 -18 87 11 204 90 193 131 -5 16 -4 18 4 6 12 -17 10 -19 51 47 17 29 35 53 38 53 4 0 34 -7 67 -15 79 -19 110 -18 165 2 48 17 100 59 100 79 0 7 3 14 8 16 16 7 43 83 48 136 9 83 -21 161 -83 221 -27 25 -57 51 -68 57 -18 10 -18 15 -7 70 20 97 21 103 12 163 -17 123 -77 206 -165 230 -45 12 -127 13 -165 2z m-16 -522 c36 -43 32 -72 -17 -126 -44 -49 -127 -10 -127 59 0 85 93 128 144 67z" transform="translate(0.000000,0.000000) scale(1,1)" stroke="none" fill="#1F444E"/>
</g>
<g id="pattern2" transform="matrix(0.618,0,0,0.618,3197,939)">
<path d="M780 1271 c-30 -10 -107 -48 -127 -64 -44 -36 -91 -90 -108 -124 -11 -21 -24 -41 -28 -44 -4 -3 -31 0 -60 8 -89 24 -211 -2 -289 -61 -56 -43 -99 -137 -91 -200 9 -88 111 -217 221 -282 31 -18 33 -21 26 -54 -5 -19 -8 -73 -8 -120 -1 -78 2 -89 29 -130 38 -57 65 -79 134 -109 43 -18 67 -22 103 -18 87 11 204 90 193 131 -5 16 -4 18 4 6 12 -17 10 -19 51 47 17 29 35 53 38 53 4 0 34 -7 67 -15 79 -19 110 -18 165 2 48 17 100 59 100 79 0 7 3 14 8 16 16 7 43 83 48 136 9 83 -21 161 -83 221 -27 25 -57 51 -68 57 -18 10 -18 15 -7 70 20 97 21 103 12 163 -17 123 -77 206 -165 230 -45 12 -127 13 -165 2z m-16 -522 c36 -43 32 -72 -17 -126 -44 -49 -127 -10 -127 59 0 85 93 128 144 67z" transform="translate(4235,0.000000) scale(-1,1)" stroke="none" fill="#1F444E"/>
</g>
<g id="pattern3" transform="matrix(0.618,0,0,0.618,1198,4235)matrix(0.71,0.71,-0.71,0.71,0,0)">
<path d="M780 1271 c-30 -10 -107 -48 -127 -64 -44 -36 -91 -90 -108 -124 -11 -21 -24 -41 -28 -44 -4 -3 -31 0 -60 8 -89 24 -211 -2 -289 -61 -56 -43 -99 -137 -91 -200 9 -88 111 -217 221 -282 31 -18 33 -21 26 -54 -5 -19 -8 -73 -8 -120 -1 -78 2 -89 29 -130 38 -57 65 -79 134 -109 43 -18 67 -22 103 -18 87 11 204 90 193 131 -5 16 -4 18 4 6 12 -17 10 -19 51 47 17 29 35 53 38 53 4 0 34 -7 67 -15 79 -19 110 -18 165 2 48 17 100 59 100 79 0 7 3 14 8 16 16 7 43 83 48 136 9 83 -21 161 -83 221 -27 25 -57 51 -68 57 -18 10 -18 15 -7 70 20 97 21 103 12 163 -17 123 -77 206 -165 230 -45 12 -127 13 -165 2z m-16 -522 c36 -43 32 -72 -17 -126 -44 -49 -127 -10 -127 59 0 85 93 128 144 67z" transform="translate(679,-679) scale(1,1)" stroke="none" fill="#1F444E"/>
</g>
<g id="pattern4" transform="matrix(1.618,0,0,1.618,1777,1777)matrix(0.87,0.5,-0.5,0.87,0,0)">
<path d="M780 1271 c-30 -10 -107 -48 -127 -64 -44 -36 -91 -90 -108 -124 -11 -21 -24 -41 -28 -44 -4 -3 -31 0 -60 8 -89 24 -211 -2 -289 -61 -56 -43 -99 -137 -91 -200 9 -88 111 -217 221 -282 31 -18 33 -21 26 -54 -5 -19 -8 -73 -8 -120 -1 -78 2 -89 29 -130 38 -57 65 -79 134 -109 43 -18 67 -22 103 -18 87 11 204 90 193 131 -5 16 -4 18 4 6 12 -17 10 -19 51 47 17 29 35 53 38 53 4 0 34 -7 67 -15 79 -19 110 -18 165 2 48 17 100 59 100 79 0 7 3 14 8 16 16 7 43 83 48 136 9 83 -21 161 -83 221 -27 25 -57 51 -68 57 -18 10 -18 15 -7 70 20 97 21 103 12 163 -17 123 -77 206 -165 230 -45 12 -127 13 -165 2z m-16 -522 c36 -43 32 -72 -17 -126 -44 -49 -127 -10 -127 59 0 85 93 128 144 67z" transform="translate(679,-679) scale(1,1)" stroke="none" fill="#1F444E"/>
</g>
</g>
</g>

<g id="4" transform="translate(6228.0,0)scale(0.25,0.25)">

<g id="pattern">
<rect width="6747" height="6747" fill="#B3C6D5"/>
<g id="pattern1" transform="matrix(1,0,0,1,420,420)">
<path d="M780 1271 c-30 -10 -107 -48 -127 -64 -44 -36 -91 -90 -108 -124 -11 -21 -24 -41 -28 -44 -4 -3 -31 0 -60 8 -89 24 -211 -2 -289 -61 -56 -43 -99 -137 -91 -200 9 -88 111 -217 221 -282 31 -18 33 -21 26 -54 -5 -19 -8 -73 -8 -120 -1 -78 2 -89 29 -130 38 -57 65 -79 134 -109 43 -18 67 -22 103 -18 87 11 204 90 193 131 -5 16 -4 18 4 6 12 -17 10 -19 51 47 17 29 35 53 38 53 4 0 34 -7 67 -15 79 -19 110 -18 165 2 48 17 100 59 100 79 0 7 3 14 8 16 16 7 43 83 48 136 9 83 -21 161 -83 221 -27 25 -57 51 -68 57 -18 10 -18 15 -7 70 20 97 21 103 12 163 -17 123 -77 206 -165 230 -45 12 -127 13 -165 2z m-16 -522 c36 -43 32 -72 -17 -126 -44 -49 -127 -10 -127 59 0 85 93 128 144 67z" transform="translate(0.000000,0.000000) scale(1,1)" stroke="none" fill="#1F444E"/>
</g>
<g id="pattern2" transform="matrix(0.618,0,0,0.618,3197,939)">
<path d="M780 1271 c-30 -10 -107 -48 -127 -64 -44 -36 -91 -90 -108 -124 -11 -21 -24 -41 -28 -44 -4 -3 -31 0 -60 8 -89 24 -211 -2 -289 -61 -56 -43 -99 -137 -91 -200 9 -88 111 -217 221 -282 31 -18 33 -21 26 -54 -5 -19 -8 -73 -8 -120 -1 -78 2 -89 29 -130 38 -57 65 -79 134 -109 43 -18 67 -22 103 -18 87 11 204 90 193 131 -5 16 -4 18 4 6 12 -17 10 -19 51 47 17 29 35 53 38 53 4 0 34 -7 67 -15 79 -19 110 -18 165 2 48 17 100 59 100 79 0 7 3 14 8 16 16 7 43 83 48 136 9 83 -21 161 -83 221 -27 25 -57 51 -68 57 -18 10 -18 15 -7 70 20 97 21 103 12 163 -17 123 -77 206 -165 230 -45 12 -127 13 -165 2z m-16 -522 c36 -43 32 -72 -17 -126 -44 -49 -127 -10 -127 59 0 85 93 128 144 67z" transform="translate(4235,0.000000) scale(-1,1)" stroke="none" fill="#1F444E"/>
</g>
<g id="pattern3" transform="matrix(0.618,0,0,0.618,1198,4235)matrix(0.71,0.71,-0.71,0.71,0,0)">
<path d="M780 1271 c-30 -10 -107 -48 -127 -64 -44 -36 -91 -90 -108 -124 -11 -21 -24 -41 -28 -44 -4 -3 -31 0 -60 8 -89 24 -211 -2 -289 -61 -56 -43 -99 -137 -91 -200 9 -88 111 -217 221 -282 31 -18 33 -21 26 -54 -5 -19 -8 -73 -8 -120 -1 -78 2 -89 29 -130 38 -57 65 -79 134 -109 43 -18 67 -22 103 -18 87 11 204 90 193 131 -5 16 -4 18 4 6 12 -17 10 -19 51 47 17 29 35 53 38 53 4 0 34 -7 67 -15 79 -19 110 -18 165 2 48 17 100 59 100 79 0 7 3 14 8 16 16 7 43 83 48 136 9 83 -21 161 -83 221 -27 25 -57 51 -68 57 -18 10 -18 15 -7 70 20 97 21 103 12 163 -17 123 -77 206 -165 230 -45 12 -127 13 -165 2z m-16 -522 c36 -43 32 -72 -17 -126 -44 -49 -127 -10 -127 59 0 85 93 128 144 67z" transform="translate(679,-679) scale(1,1)" stroke="none" fill="#1F444E"/>
</g>
<g id="pattern4" transform="matrix(1.618,0,0,1.618,1777,1777)matrix(0.87,0.5,-0.5,0.87,0,0)">
<path d="M780 1271 c-30 -10 -107 -48 -127 -64 -44 -36 -91 -90 -108 -124 -11 -21 -24 -41 -28 -44 -4 -3 -31 0 -60 8 -89 24 -211 -2 -289 -61 -56 -43 -99 -137 -91 -200 9 -88 111 -217 221 -282 31 -18 33 -21 26 -54 -5 -19 -8 -73 -8 -120 -1 -78 2 -89 29 -130 38 -57 65 -79 134 -109 43 -18 67 -22 103 -18 87 11 204 90 193 131 -5 16 -4 18 4 6 12 -17 10 -19 51 47 17 29 35 53 38 53 4 0 34 -7 67 -15 79 -19 110 -18 165 2 48 17 100 59 100 79 0 7 3 14 8 16 16 7 43 83 48 136 9 83 -21 161 -83 221 -27 25 -57 51 -68 57 -18 10 -18 15 -7 70 20 97 21 103 12 163 -17 123 -77 206 -165 230 -45 12 -127 13 -165 2z m-16 -522 c36 -43 32 -72 -17 -126 -44 -49 -127 -10 -127 59 0 85 93 128 144 67z" transform="translate(679,-679) scale(1,1)" stroke="none" fill="#1F444E"/>
</g>
</g>
</g>

</g>
<g id="row1" transform="translate(0,1557.0)">
<g id="0" transform="translate(0.0,0)scale(0.25,0.25)">

<g id="pattern">
<rect width="6747" height="6747" fill="#B3C6D5"/>
<g id="pattern1" transform="matrix(1,0,0,1,420,420)">
<path d="M780 1271 c-30 -10 -107 -48 -127 -64 -44 -36 -91 -90 -108 -124 -11 -21 -24 -41 -28 -44 -4 -3 -31 0 -60 8 -89 24 -211 -2 -289 -61 -56 -43 -99 -137 -91 -200 9 -88 111 -217 221 -282 31 -18 33 -21 26 -54 -5 -19 -8 -73 -8 -120 -1 -78 2 -89 29 -130 38 -57 65 -79 134 -109 43 -18 67 -22 103 -18 87 11 204 90 193 131 -5 16 -4 18 4 6 12 -17 10 -19 51 47 17 29 35 53 38 53 4 0 34 -7 67 -15 79 -19 110 -18 165 2 48 17 100 59 100 79 0 7 3 14 8 16 16 7 43 83 48 136 9 83 -21 161 -83 221 -27 25 -57 51 -68 57 -18 10 -18 15 -7 70 20 97 21 103 12 163 -17 123 -77 206 -165 230 -45 12 -127 13 -165 2z m-16 -522 c36 -43 32 -72 -17 -126 -44 -49 -127 -10 -127 59 0 85 93 128 144 67z" transform="translate(0.000000,0.000000) scale(1,1)" stroke="none" fill="#1F444E"/>
</g>
<g id="pattern2" transform="matrix(0.618,0,0,0.618,3197,939)">
<path d="M780 1271 c-30 -10 -107 -48 -127 -64 -44 -36 -91 -90 -108 -124 -11 -21 -24 -41 -28 -44 -4 -3 -31 0 -60 8 -89 24 -211 -2 -289 -61 -56 -43 -99 -137 -91 -200 9 -88 111 -217 221 -282 31 -18 33 -21 26 -54 -5 -19 -8 -73 -8 -120 -1 -78 2 -89 29 -130 38 -57 65 -79 134 -109 43 -18 67 -22 103 -18 87 11 204 90 193 131 -5 16 -4 18 4 6 12 -17 10 -19 51 47 17 29 35 53 38 53 4 0 34 -7 67 -15 79 -19 110 -18 165 2 48 17 100 59 100 79 0 7 3 14 8 16 16 7 43 83 48 136 9 83 -21 161 -83 221 -27 25 -57 51 -68 57 -18 10 -18 15 -7 70 20 97 21 103 12 163 -17 123 -77 206 -165 230 -45 12 -127 13 -165 2z m-16 -522 c36 -43 32 -72 -17 -126 -44 -49 -127 -10 -127 59 0 85 93 128 144 67z" transform="translate(4235,0.000000) scale(-1,1)" stroke="none" fill="#1F444E"/>
</g>
<g id="pattern3" transform="matrix(0.618,0,0,0.618,1198,4235)matrix(0.71,0.71,-0.71,0.71,0,0)">
<path d="M780 1271 c-30 -10 -107 -48 -127 -64 -44 -36 -91 -90 -108 -124 -11 -21 -24 -41 -28 -44 -4 -3 -31 0 -60 8 -89 24 -211 -2 -289 -61 -56 -43 -99 -137 -91 -200 9 -88 111 -217 221 -282 31 -18 33 -21 26 -54 -5 -19 -8 -73 -8 -120 -1 -78 2 -89 29 -130 38 -57 65 -79 134 -109 43 -18 67 -22 103 -18 87 11 204 90 193 131 -5 16 -4 18 4 6 12 -17 10 -19 51 47 17 29 35 53 38 53 4 0 34 -7 67 -15 79 -19 110 -18 165 2 48 17 100 59 100 79 0 7 3 14 8 16 16 7 43 83 48 136 9 83 -21 161 -83 221 -27 25 -57 51 -68 57 -18 10 -18 15 -7 70 20 97 21 103 12 163 -17 123 -77 206 -165 230 -45 12 -127 13 -165 2z m-16 -522 c36 -43 32 -72 -17 -126 -44 -49 -127 -10 -127 59 0 85 93 128 144 67z" transform="translate(679,-679) scale(1,1)" stroke="none" fill="#1F444E"/>
</g>
<g id="pattern4" transform="matrix(1.618,0,0,1.618,1777,1777)matrix(0.87,0.5,-0.5,0.87,0,0)">
<path d="M780 1271 c-30 -10 -107 -48 -127 -64 -44 -36 -91 -90 -108 -124 -11 -21 -24 -41 -28 -44 -4 -3 -31 0 -60 8 -89 24 -211 -2 -289 -61 -56 -43 -99 -137 -91 -200 9 -88 111 -217 221 -282 31 -18 33 -21 26 -54 -5 -19 -8 -73 -8 -120 -1 -78 2 -89 29 -130 38 -57 65 -79 134 -109 43 -18 67 -22 103 -18 87 11 204 90 193 131 -5 16 -4 18 4 6 12 -17 10 -19 51 47 17 29 35 53 38 53 4 0 34 -7 67 -15 79 -19 110 -18 165 2 48 17 100 59 100 79 0 7 3 14 8 16 16 7 43 83 48 136 9 83 -21 161 -83 221 -27 25 -57 51 -68 57 -18 10 -18 15 -7 70 20 97 21 103 12 163 -17 123 -77 206 -165 230 -45 12 -127 13 -165 2z m-16 -522 c36 -43 32 -72 -17 -126 -44 -49 -127 -10 -127 59 0 85 93 128 144 67z" transform="translate(679,-679) scale(1,1)" stroke="none" fill="#1F444E"/>
</g>
</g>
</g>

<g id="1" transform="translate(1557.0,0)scale(0.25,0.25)">

<g id="pattern">
<rect width="6747" height="6747" fill="#B3C6D5"/>
<g id="pattern1" transform="matrix(1,0,0,1,420,420)">
<path d="M780 1271 c-30 -10 -107 -48 -127 -64 -44 -36 -91 -90 -108 -124 -11 -21 -24 -41 -28 -44 -4 -3 -31 0 -60 8 -89 24 -211 -2 -289 -61 -56 -43 -99 -137 -91 -200 9 -88 111 -217 221 -282 31 -18 33 -21 26 -54 -5 -19 -8 -73 -8 -120 -1 -78 2 -89 29 -130 38 -57 65 -79 134 -109 43 -18 67 -22 103 -18 87 11 204 90 193 131 -5 16 -4 18 4 6 12 -17 10 -19 51 47 17 29 35 53 38 53 4 0 34 -7 67 -15 79 -19 110 -18 165 2 48 17 100 59 100 79 0 7 3 14 8 16 16 7 43 83 48 136 9 83 -21 161 -83 221 -27 25 -57 51 -68 57 -18 10 -18 15 -7 70 20 97 21 103 12 163 -17 123 -77 206 -165 230 -45 12 -127 13 -165 2z m-16 -522 c36 -43 32 -72 -17 -126 -44 -49 -127 -10 -127 59 0 85 93 128 144 67z" transform="translate(0.000000,0.000000) scale(1,1)" stroke="none" fill="#1F444E"/>
</g>
<g id="pattern2" transform="matrix(0.618,0,0,0.618,3197,939)">
<path d="M780 1271 c-30 -10 -107 -48 -127 -64 -44 -36 -91 -90 -108 -124 -11 -21 -24 -41 -28 -44 -4 -3 -31 0 -60 8 -89 24 -211 -2 -289 -61 -56 -43 -99 -137 -91 -200 9 -88 111 -217 221 -282 31 -18 33 -21 26 -54 -5 -19 -8 -73 -8 -120 -1 -78 2 -89 29 -130 38 -57 65 -79 134 -109 43 -18 67 -22 103 -18 87 11 204 90 193 131 -5 16 -4 18 4 6 12 -17 10 -19 51 47 17 29 35 53 38 53 4 0 34 -7 67 -15 79 -19 110 -18 165 2 48 17 100 59 100 79 0 7 3 14 8 16 16 7 43 83 48 136 9 83 -21 161 -83 221 -27 25 -57 51 -68 57 -18 10 -18 15 -7 70 20 97 21 103 12 163 -17 123 -77 206 -165 230 -45 12 -127 13 -165 2z m-16 -522 c36 -43 32 -72 -17 -126 -44 -49 -127 -10 -127 59 0 85 93 128 144 67z" transform="translate(4235,0.000000) scale(-1,1)" stroke="none" fill="#1F444E"/>
</g>
<g id="pattern3" transform="matrix(0.618,0,0,0.618,1198,4235)matrix(0.71,0.71,-0.71,0.71,0,0)">
<path d="M780 1271 c-30 -10 -107 -48 -127 -64 -44 -36 -91 -90 -108 -124 -11 -21 -24 -41 -28 -44 -4 -3 -31 0 -60 8 -89 24 -211 -2 -289 -61 -56 -43 -99 -137 -91 -200 9 -88 111 -217 221 -282 31 -18 33 -21 26 -54 -5 -19 -8 -73 -8 -120 -1 -78 2 -89 29 -130 38 -57 65 -79 134 -109 43 -18 67 -22 103 -18 87 11 204 90 193 131 -5 16 -4 18 4 6 12 -17 10 -19 51 47 17 29 35 53 38 53 4 0 34 -7 67 -15 79 -19 110 -18 165 2 48 17 100 59 100 79 0 7 3 14 8 16 16 7 43 83 48 136 9 83 -21 161 -83 221 -27 25 -57 51 -68 57 -18 10 -18 15 -7 70 20 97 21 103 12 163 -17 123 -77 206 -165 230 -45 12 -127 13 -165 2z m-16 -522 c36 -43 32 -72 -17 -126 -44 -49 -127 -10 -127 59 0 85 93 128 144 67z" transform="translate(679,-679) scale(1,1)" stroke="none" fill="#1F444E"/>
</g>
<g id="pattern4" transform="matrix(1.618,0,0,1.618,1777,1777)matrix(0.87,0.5,-0.5,0.87,0,0)">
<path d="M780 1271 c-30 -10 -107 -48 -127 -64 -44 -36 -91 -90 -108 -124 -11 -21 -24 -41 -28 -44 -4 -3 -31 0 -60 8 -89 24 -211 -2 -289 -61 -56 -43 -99 -137 -91 -200 9 -88 111 -217 221 -282 31 -18 33 -21 26 -54 -5 -19 -8 -73 -8 -120 -1 -78 2 -89 29 -130 38 -57 65 -79 134 -109 43 -18 67 -22 103 -18 87 11 204 90 193 131 -5 16 -4 18 4 6 12 -17 10 -19 51 47 17 29 35 53 38 53 4 0 34 -7 67 -15 79 -19 110 -18 165 2 48 17 100 59 100 79 0 7 3 14 8 16 16 7 43 83 48 136 9 83 -21 161 -83 221 -27 25 -57 51 -68 57 -18 10 -18 15 -7 70 20 97 21 103 12 163 -17 123 -77 206 -165 230 -45 12 -127 13 -165 2z m-16 -522 c36 -43 32 -72 -17 -126 -44 -49 -127 -10 -127 59 0 85 93 128 144 67z" transform="translate(679,-679) scale(1,1)" stroke="none" fill="#1F444E"/>
</g>
</g>
</g>

<g id="2" transform="translate(3114.0,0)scale(0.25,0.25)">

<g id="pattern">
<rect width="6747" height="6747" fill="#B3C6D5"/>
<g id="pattern1" transform="matrix(1,0,0,1,420,420)">
<path d="M780 1271 c-30 -10 -107 -48 -127 -64 -44 -36 -91 -90 -108 -124 -11 -21 -24 -41 -28 -44 -4 -3 -31 0 -60 8 -89 24 -211 -2 -289 -61 -56 -43 -99 -137 -91 -200 9 -88 111 -217 221 -282 31 -18 33 -21 26 -54 -5 -19 -8 -73 -8 -120 -1 -78 2 -89 29 -130 38 -57 65 -79 134 -109 43 -18 67 -22 103 -18 87 11 204 90 193 131 -5 16 -4 18 4 6 12 -17 10 -19 51 47 17 29 35 53 38 53 4 0 34 -7 67 -15 79 -19 110 -18 165 2 48 17 100 59 100 79 0 7 3 14 8 16 16 7 43 83 48 136 9 83 -21 161 -83 221 -27 25 -57 51 -68 57 -18 10 -18 15 -7 70 20 97 21 103 12 163 -17 123 -77 206 -165 230 -45 12 -127 13 -165 2z m-16 -522 c36 -43 32 -72 -17 -126 -44 -49 -127 -10 -127 59 0 85 93 128 144 67z" transform="translate(0.000000,0.000000) scale(1,1)" stroke="none" fill="#1F444E"/>
</g>
<g id="pattern2" transform="matrix(0.618,0,0,0.618,3197,939)">
<path d="M780 1271 c-30 -10 -107 -48 -127 -64 -44 -36 -91 -90 -108 -124 -11 -21 -24 -41 -28 -44 -4 -3 -31 0 -60 8 -89 24 -211 -2 -289 -61 -56 -43 -99 -137 -91 -200 9 -88 111 -217 221 -282 31 -18 33 -21 26 -54 -5 -19 -8 -73 -8 -120 -1 -78 2 -89 29 -130 38 -57 65 -79 134 -109 43 -18 67 -22 103 -18 87 11 204 90 193 131 -5 16 -4 18 4 6 12 -17 10 -19 51 47 17 29 35 53 38 53 4 0 34 -7 67 -15 79 -19 110 -18 165 2 48 17 100 59 100 79 0 7 3 14 8 16 16 7 43 83 48 136 9 83 -21 161 -83 221 -27 25 -57 51 -68 57 -18 10 -18 15 -7 70 20 97 21 103 12 163 -17 123 -77 206 -165 230 -45 12 -127 13 -165 2z m-16 -522 c36 -43 32 -72 -17 -126 -44 -49 -127 -10 -127 59 0 85 93 128 144 67z" transform="translate(4235,0.000000) scale(-1,1)" stroke="none" fill="#1F444E"/>
</g>
<g id="pattern3" transform="matrix(0.618,0,0,0.618,1198,4235)matrix(0.71,0.71,-0.71,0.71,0,0)">
<path d="M780 1271 c-30 -10 -107 -48 -127 -64 -44 -36 -91 -90 -108 -124 -11 -21 -24 -41 -28 -44 -4 -3 -31 0 -60 8 -89 24 -211 -2 -289 -61 -56 -43 -99 -137 -91 -200 9 -88 111 -217 221 -282 31 -18 33 -21 26 -54 -5 -19 -8 -73 -8 -120 -1 -78 2 -89 29 -130 38 -57 65 -79 134 -109 43 -18 67 -22 103 -18 87 11 204 90 193 131 -5 16 -4 18 4 6 12 -17 10 -19 51 47 17 29 35 53 38 53 4 0 34 -7 67 -15 79 -19 110 -18 165 2 48 17 100 59 100 79 0 7 3 14 8 16 16 7 43 83 48 136 9 83 -21 161 -83 221 -27 25 -57 51 -68 57 -18 10 -18 15 -7 70 20 97 21 103 12 163 -17 123 -77 206 -165 230 -45 12 -127 13 -165 2z m-16 -522 c36 -43 32 -72 -17 -126 -44 -49 -127 -10 -127 59 0 85 93 128 144 67z" transform="translate(679,-679) scale(1,1)" stroke="none" fill="#1F444E"/>
</g>
<g id="pattern4" transform="matrix(1.618,0,0,1.618,1777,1777)matrix(0.87,0.5,-0.5,0.87,0,0)">
<path d="M780 1271 c-30 -10 -107 -48 -127 -64 -44 -36 -91 -90 -108 -124 -11 -21 -24 -41 -28 -44 -4 -3 -31 0 -60 8 -89 24 -211 -2 -289 -61 -56 -43 -99 -137 -91 -200 9 -88 111 -217 221 -282 31 -18 33 -21 26 -54 -5 -19 -8 -73 -8 -120 -1 -78 2 -89 29 -130 38 -57 65 -79 134 -109 43 -18 67 -22 103 -18 87 11 204 90 193 131 -5 16 -4 18 4 6 12 -17 10 -19 51 47 17 29 35 53 38 53 4 0 34 -7 67 -15 79 -19 110 -18 165 2 48 17 100 59 100 79 0 7 3 14 8 16 16 7 43 83 48 136 9 83 -21 161 -83 221 -27 25 -57 51 -68 57 -18 10 -18 15 -7 70 20 97 21 103 12 163 -17 123 -77 206 -165 230 -45 12 -127 13 -165 2z m-16 -522 c36 -43 32 -72 -17 -126 -44 -49 -127 -10 -127 59 0 85 93 128 144 67z" transform="translate(679,-679) scale(1,1)" stroke="none" fill="#1F444E"/>
</g>
</g>
</g>

<g id="3" transform="translate(4671.0,0)scale(0.25,0.25)">

<g id="pattern">
<rect width="6747" height="6747" fill="#B3C6D5"/>
<g id="pattern1" transform="matrix(1,0,0,1,420,420)">
<path d="M780 1271 c-30 -10 -107 -48 -127 -64 -44 -36 -91 -90 -108 -124 -11 -21 -24 -41 -28 -44 -4 -3 -31 0 -60 8 -89 24 -211 -2 -289 -61 -56 -43 -99 -137 -91 -200 9 -88 111 -217 221 -282 31 -18 33 -21 26 -54 -5 -19 -8 -73 -8 -120 -1 -78 2 -89 29 -130 38 -57 65 -79 134 -109 43 -18 67 -22 103 -18 87 11 204 90 193 131 -5 16 -4 18 4 6 12 -17 10 -19 51 47 17 29 35 53 38 53 4 0 34 -7 67 -15 79 -19 110 -18 165 2 48 17 100 59 100 79 0 7 3 14 8 16 16 7 43 83 48 136 9 83 -21 161 -83 221 -27 25 -57 51 -68 57 -18 10 -18 15 -7 70 20 97 21 103 12 163 -17 123 -77 206 -165 230 -45 12 -127 13 -165 2z m-16 -522 c36 -43 32 -72 -17 -126 -44 -49 -127 -10 -127 59 0 85 93 128 144 67z" transform="translate(0.000000,0.000000) scale(1,1)" stroke="none" fill="#1F444E"/>
</g>
<g id="pattern2" transform="matrix(0.618,0,0,0.618,3197,939)">
<path d="M780 1271 c-30 -10 -107 -48 -127 -64 -44 -36 -91 -90 -108 -124 -11 -21 -24 -41 -28 -44 -4 -3 -31 0 -60 8 -89 24 -211 -2 -289 -61 -56 -43 -99 -137 -91 -200 9 -88 111 -217 221 -282 31 -18 33 -21 26 -54 -5 -19 -8 -73 -8 -120 -1 -78 2 -89 29 -130 38 -57 65 -79 134 -109 43 -18 67 -22 103 -18 87 11 204 90 193 131 -5 16 -4 18 4 6 12 -17 10 -19 51 47 17 29 35 53 38 53 4 0 34 -7 67 -15 79 -19 110 -18 165 2 48 17 100 59 100 79 0 7 3 14 8 16 16 7 43 83 48 136 9 83 -21 161 -83 221 -27 25 -57 51 -68 57 -18 10 -18 15 -7 70 20 97 21 103 12 163 -17 123 -77 206 -165 230 -45 12 -127 13 -165 2z m-16 -522 c36 -43 32 -72 -17 -126 -44 -49 -127 -10 -127 59 0 85 93 128 144 67z" transform="translate(4235,0.000000) scale(-1,1)" stroke="none" fill="#1F444E"/>
</g>
<g id="pattern3" transform="matrix(0.618,0,0,0.618,1198,4235)matrix(0.71,0.71,-0.71,0.71,0,0)">
<path d="M780 1271 c-30 -10 -107 -48 -127 -64 -44 -36 -91 -90 -108 -124 -11 -21 -24 -41 -28 -44 -4 -3 -31 0 -60 8 -89 24 -211 -2 -289 -61 -56 -43 -99 -137 -91 -200 9 -88 111 -217 221 -282 31 -18 33 -21 26 -54 -5 -19 -8 -73 -8 -120 -1 -78 2 -89 29 -130 38 -57 65 -79 134 -109 43 -18 67 -22 103 -18 87 11 204 90 193 131 -5 16 -4 18 4 6 12 -17 10 -19 51 47 17 29 35 53 38 53 4 0 34 -7 67 -15 79 -19 110 -18 165 2 48 17 100 59 100 79 0 7 3 14 8 16 16 7 43 83 48 136 9 83 -21 161 -83 221 -27 25 -57 51 -68 57 -18 10 -18 15 -7 70 20 97 21 103 12 163 -17 123 -77 206 -165 230 -45 12 -127 13 -165 2z m-16 -522 c36 -43 32 -72 -17 -126 -44 -49 -127 -10 -127 59 0 85 93 128 144 67z" transform="translate(679,-679) scale(1,1)" stroke="none" fill="#1F444E"/>
</g>
<g id="pattern4" transform="matrix(1.618,0,0,1.618,1777,1777)matrix(0.87,0.5,-0.5,0.87,0,0)">
<path d="M780 1271 c-30 -10 -107 -48 -127 -64 -44 -36 -91 -90 -108 -124 -11 -21 -24 -41 -28 -44 -4 -3 -31 0 -60 8 -89 24 -211 -2 -289 -61 -56 -43 -99 -137 -91 -200 9 -88 111 -217 221 -282 31 -18 33 -21 26 -54 -5 -19 -8 -73 -8 -120 -1 -78 2 -89 29 -130 38 -57 65 -79 134 -109 43 -18 67 -22 103 -18 87 11 204 90 193 131 -5 16 -4 18 4 6 12 -17 10 -19 51 47 17 29 35 53 38 53 4 0 34 -7 67 -15 79 -19 110 -18 165 2 48 17 100 59 100 79 0 7 3 14 8 16 16 7 43 83 48 136 9 83 -21 161 -83 221 -27 25 -57 51 -68 57 -18 10 -18 15 -7 70 20 97 21 103 12 163 -17 123 -77 206 -165 230 -45 12 -127 13 -165 2z m-16 -522 c36 -43 32 -72 -17 -126 -44 -49 -127 -10 -127 59 0 85 93 128 144 67z" transform="translate(679,-679) scale(1,1)" stroke="none" fill="#1F444E"/>
</g>
</g>
</g>

<g id="4" transform="translate(6228.0,0)scale(0.25,0.25)">

<g id="pattern">
<rect width="6747" height="6747" fill="#B3C6D5"/>
<g id="pattern1" transform="matrix(1,0,0,1,420,420)">
<path d="M780 1271 c-30 -10 -107 -48 -127 -64 -44 -36 -91 -90 -108 -124 -11 -21 -24 -41 -28 -44 -4 -3 -31 0 -60 8 -89 24 -211 -2 -289 -61 -56 -43 -99 -137 -91 -200 9 -88 111 -217 221 -282 31 -18 33 -21 26 -54 -5 -19 -8 -73 -8 -120 -1 -78 2 -89 29 -130 38 -57 65 -79 134 -109 43 -18 67 -22 103 -18 87 11 204 90 193 131 -5 16 -4 18 4 6 12 -17 10 -19 51 47 17 29 35 53 38 53 4 0 34 -7 67 -15 79 -19 110 -18 165 2 48 17 100 59 100 79 0 7 3 14 8 16 16 7 43 83 48 136 9 83 -21 161 -83 221 -27 25 -57 51 -68 57 -18 10 -18 15 -7 70 20 97 21 103 12 163 -17 123 -77 206 -165 230 -45 12 -127 13 -165 2z m-16 -522 c36 -43 32 -72 -17 -126 -44 -49 -127 -10 -127 59 0 85 93 128 144 67z" transform="translate(0.000000,0.000000) scale(1,1)" stroke="none" fill="#1F444E"/>
</g>
<g id="pattern2" transform="matrix(0.618,0,0,0.618,3197,939)">
<path d="M780 1271 c-30 -10 -107 -48 -127 -64 -44 -36 -91 -90 -108 -124 -11 -21 -24 -41 -28 -44 -4 -3 -31 0 -60 8 -89 24 -211 -2 -289 -61 -56 -43 -99 -137 -91 -200 9 -88 111 -217 221 -282 31 -18 33 -21 26 -54 -5 -19 -8 -73 -8 -120 -1 -78 2 -89 29 -130 38 -57 65 -79 134 -109 43 -18 67 -22 103 -18 87 11 204 90 193 131 -5 16 -4 18 4 6 12 -17 10 -19 51 47 17 29 35 53 38 53 4 0 34 -7 67 -15 79 -19 110 -18 165 2 48 17 100 59 100 79 0 7 3 14 8 16 16 7 43 83 48 136 9 83 -21 161 -83 221 -27 25 -57 51 -68 57 -18 10 -18 15 -7 70 20 97 21 103 12 163 -17 123 -77 206 -165 230 -45 12 -127 13 -165 2z m-16 -522 c36 -43 32 -72 -17 -126 -44 -49 -127 -10 -127 59 0 85 93 128 144 67z" transform="translate(4235,0.000000) scale(-1,1)" stroke="none" fill="#1F444E"/>
</g>
<g id="pattern3" transform="matrix(0.618,0,0,0.618,1198,4235)matrix(0.71,0.71,-0.71,0.71,0,0)">
<path d="M780 1271 c-30 -10 -107 -48 -127 -64 -44 -36 -91 -90 -108 -124 -11 -21 -24 -41 -28 -44 -4 -3 -31 0 -60 8 -89 24 -211 -2 -289 -61 -56 -43 -99 -137 -91 -200 9 -88 111 -217 221 -282 31 -18 33 -21 26 -54 -5 -19 -8 -73 -8 -120 -1 -78 2 -89 29 -130 38 -57 65 -79 134 -109 43 -18 67 -22 103 -18 87 11 204 90 193 131 -5 16 -4 18 4 6 12 -17 10 -19 51 47 17 29 35 53 38 53 4 0 34 -7 67 -15 79 -19 110 -18 165 2 48 17 100 59 100 79 0 7 3 14 8 16 16 7 43 83 48 136 9 83 -21 161 -83 221 -27 25 -57 51 -68 57 -18 10 -18 15 -7 70 20 97 21 103 12 163 -17 123 -77 206 -165 230 -45 12 -127 13 -165 2z m-16 -522 c36 -43 32 -72 -17 -126 -44 -49 -127 -10 -127 59 0 85 93 128 144 67z" transform="translate(679,-679) scale(1,1)" stroke="none" fill="#1F444E"/>
</g>
<g id="pattern4" transform="matrix(1.618,0,0,1.618,1777,1777)matrix(0.87,0.5,-0.5,0.87,0,0)">
<path d="M780 1271 c-30 -10 -107 -48 -127 -64 -44 -36 -91 -90 -108 -124 -11 -21 -24 -41 -28 -44 -4 -3 -31 0 -60 8 -89 24 -211 -2 -289 -61 -56 -43 -99 -137 -91 -200 9 -88 111 -217 221 -282 31 -18 33 -21 26 -54 -5 -19 -8 -73 -8 -120 -1 -78 2 -89 29 -130 38 -57 65 -79 134 -109 43 -18 67 -22 103 -18 87 11 204 90 193 131 -5 16 -4 18 4 6 12 -17 10 -19 51 47 17 29 35 53 38 53 4 0 34 -7 67 -15 79 -19 110 -18 165 2 48 17 100 59 100 79 0 7 3 14 8 16 16 7 43 83 48 136 9 83 -21 161 -83 221 -27 25 -57 51 -68 57 -18 10 -18 15 -7 70 20 97 21 103 12 163 -17 123 -77 206 -165 230 -45 12 -127 13 -165 2z m-16 -522 c36 -43 32 -72 -17 -126 -44 -49 -127 -10 -127 59 0 85 93 128 144 67z" transform="translate(679,-679) scale(1,1)" stroke="none" fill="#1F444E"/>
</g>
</g>
</g>

</g>
<g id="row2" transform="translate(0,3114.0)">
<g id="0" transform="translate(0.0,0)scale(0.25,0.25)">

<g id="pattern">
<rect width="6747" height="6747" fill="#B3C6D5"/>
<g id="pattern1" transform="matrix(1,0,0,1,420,420)">
<path d="M780 1271 c-30 -10 -107 -48 -127 -64 -44 -36 -91 -90 -108 -124 -11 -21 -24 -41 -28 -44 -4 -3 -31 0 -60 8 -89 24 -211 -2 -289 -61 -56 -43 -99 -137 -91 -200 9 -88 111 -217 221 -282 31 -18 33 -21 26 -54 -5 -19 -8 -73 -8 -120 -1 -78 2 -89 29 -130 38 -57 65 -79 134 -109 43 -18 67 -22 103 -18 87 11 204 90 193 131 -5 16 -4 18 4 6 12 -17 10 -19 51 47 17 29 35 53 38 53 4 0 34 -7 67 -15 79 -19 110 -18 165 2 48 17 100 59 100 79 0 7 3 14 8 16 16 7 43 83 48 136 9 83 -21 161 -83 221 -27 25 -57 51 -68 57 -18 10 -18 15 -7 70 20 97 21 103 12 163 -17 123 -77 206 -165 230 -45 12 -127 13 -165 2z m-16 -522 c36 -43 32 -72 -17 -126 -44 -49 -127 -10 -127 59 0 85 93 128 144 67z" transform="translate(0.000000,0.000000) scale(1,1)" stroke="none" fill="#1F444E"/>
</g>
<g id="pattern2" transform="matrix(0.618,0,0,0.618,3197,939)">
<path d="M780 1271 c-30 -10 -107 -48 -127 -64 -44 -36 -91 -90 -108 -124 -11 -21 -24 -41 -28 -44 -4 -3 -31 0 -60 8 -89 24 -211 -2 -289 -61 -56 -43 -99 -137 -91 -200 9 -88 111 -217 221 -282 31 -18 33 -21 26 -54 -5 -19 -8 -73 -8 -120 -1 -78 2 -89 29 -130 38 -57 65 -79 134 -109 43 -18 67 -22 103 -18 87 11 204 90 193 131 -5 16 -4 18 4 6 12 -17 10 -19 51 47 17 29 35 53 38 53 4 0 34 -7 67 -15 79 -19 110 -18 165 2 48 17 100 59 100 79 0 7 3 14 8 16 16 7 43 83 48 136 9 83 -21 161 -83 221 -27 25 -57 51 -68 57 -18 10 -18 15 -7 70 20 97 21 103 12 163 -17 123 -77 206 -165 230 -45 12 -127 13 -165 2z m-16 -522 c36 -43 32 -72 -17 -126 -44 -49 -127 -10 -127 59 0 85 93 128 144 67z" transform="translate(4235,0.000000) scale(-1,1)" stroke="none" fill="#1F444E"/>
</g>
<g id="pattern3" transform="matrix(0.618,0,0,0.618,1198,4235)matrix(0.71,0.71,-0.71,0.71,0,0)">
<path d="M780 1271 c-30 -10 -107 -48 -127 -64 -44 -36 -91 -90 -108 -124 -11 -21 -24 -41 -28 -44 -4 -3 -31 0 -60 8 -89 24 -211 -2 -289 -61 -56 -43 -99 -137 -91 -200 9 -88 111 -217 221 -282 31 -18 33 -21 26 -54 -5 -19 -8 -73 -8 -120 -1 -78 2 -89 29 -130 38 -57 65 -79 134 -109 43 -18 67 -22 103 -18 87 11 204 90 193 131 -5 16 -4 18 4 6 12 -17 10 -19 51 47 17 29 35 53 38 53 4 0 34 -7 67 -15 79 -19 110 -18 165 2 48 17 100 59 100 79 0 7 3 14 8 16 16 7 43 83 48 136 9 83 -21 161 -83 221 -27 25 -57 51 -68 57 -18 10 -18 15 -7 70 20 97 21 103 12 163 -17 123 -77 206 -165 230 -45 12 -127 13 -165 2z m-16 -522 c36 -43 32 -72 -17 -126 -44 -49 -127 -10 -127 59 0 85 93 128 144 67z" transform="translate(679,-679) scale(1,1)" stroke="none" fill="#1F444E"/>
</g>
<g id="pattern4" transform="matrix(1.618,0,0,1.618,1777,1777)matrix(0.87,0.5,-0.5,0.87,0,0)">
<path d="M780 1271 c-30 -10 -107 -48 -127 -64 -44 -36 -91 -90 -108 -124 -11 -21 -24 -41 -28 -44 -4 -3 -31 0 -60 8 -89 24 -211 -2 -289 -61 -56 -43 -99 -137 -91 -200 9 -88 111 -217 221 -282 31 -18 33 -21 26 -54 -5 -19 -8 -73 -8 -120 -1 -78 2 -89 29 -130 38 -57 65 -79 134 -109 43 -18 67 -22 103 -18 87 11 204 90 193 131 -5 16 -4 18 4 6 12 -17 10 -19 51 47 17 29 35 53 38 53 4 0 34 -7 67 -15 79 -19 110 -18 165 2 48 17 100 59 100 79 0 7 3 14 8 16 16 7 43 83 48 136 9 83 -21 161 -83 221 -27 25 -57 51 -68 57 -18 10 -18 15 -7 70 20 97 21 103 12 163 -17 123 -77 206 -165 230 -45 12 -127 13 -165 2z m-16 -522 c36 -43 32 -72 -17 -126 -44 -49 -127 -10 -127 59 0 85 93 128 144 67z" transform="translate(679,-679) scale(1,1)" stroke="none" fill="#1F444E"/>
</g>
</g>
</g>

<g id="1" transform="translate(1557.0,0)scale(0.25,0.25)">

<g id="pattern">
<rect width="6747" height="6747" fill="#B3C6D5"/>
<g id="pattern1" transform="matrix(1,0,0,1,420,420)">
<path d="M780 1271 c-30 -10 -107 -48 -127 -64 -44 -36 -91 -90 -108 -124 -11 -21 -24 -41 -28 -44 -4 -3 -31 0 -60 8 -89 24 -211 -2 -289 -61 -56 -43 -99 -137 -91 -200 9 -88 111 -217 221 -282 31 -18 33 -21 26 -54 -5 -19 -8 -73 -8 -120 -1 -78 2 -89 29 -130 38 -57 65 -79 134 -109 43 -18 67 -22 103 -18 87 11 204 90 193 131 -5 16 -4 18 4 6 12 -17 10 -19 51 47 17 29 35 53 38 53 4 0 34 -7 67 -15 79 -19 110 -18 165 2 48 17 100 59 100 79 0 7 3 14 8 16 16 7 43 83 48 136 9 83 -21 161 -83 221 -27 25 -57 51 -68 57 -18 10 -18 15 -7 70 20 97 21 103 12 163 -17 123 -77 206 -165 230 -45 12 -127 13 -165 2z m-16 -522 c36 -43 32 -72 -17 -126 -44 -49 -127 -10 -127 59 0 85 93 128 144 67z" transform="translate(0.000000,0.000000) scale(1,1)" stroke="none" fill="#1F444E"/>
</g>
<g id="pattern2" transform="matrix(0.618,0,0,0.618,3197,939)">
<path d="M780 1271 c-30 -10 -107 -48 -127 -64 -44 -36 -91 -90 -108 -124 -11 -21 -24 -41 -28 -44 -4 -3 -31 0 -60 8 -89 24 -211 -2 -289 -61 -56 -43 -99 -137 -91 -200 9 -88 111 -217 221 -282 31 -18 33 -21 26 -54 -5 -19 -8 -73 -8 -120 -1 -78 2 -89 29 -130 38 -57 65 -79 134 -109 43 -18 67 -22 103 -18 87 11 204 90 193 131 -5 16 -4 18 4 6 12 -17 10 -19 51 47 17 29 35 53 38 53 4 0 34 -7 67 -15 79 -19 110 -18 165 2 48 17 100 59 100 79 0 7 3 14 8 16 16 7 43 83 48 136 9 83 -21 161 -83 221 -27 25 -57 51 -68 57 -18 10 -18 15 -7 70 20 97 21 103 12 163 -17 123 -77 206 -165 230 -45 12 -127 13 -165 2z m-16 -522 c36 -43 32 -72 -17 -126 -44 -49 -127 -10 -127 59 0 85 93 128 144 67z" transform="translate(4235,0.000000) scale(-1,1)" stroke="none" fill="#1F444E"/>
</g>
<g id="pattern3" transform="matrix(0.618,0,0,0.618,1198,4235)matrix(0.71,0.71,-0.71,0.71,0,0)">
<path d="M780 1271 c-30 -10 -107 -48 -127 -64 -44 -36 -91 -90 -108 -124 -11 -21 -24 -41 -28 -44 -4 -3 -31 0 -60 8 -89 24 -211 -2 -289 -61 -56 -43 -99 -137 -91 -200 9 -88 111 -217 221 -282 31 -18 33 -21 26 -54 -5 -19 -8 -73 -8 -120 -1 -78 2 -89 29 -130 38 -57 65 -79 134 -109 43 -18 67 -22 103 -18 87 11 204 90 193 131 -5 16 -4 18 4 6 12 -17 10 -19 51 47 17 29 35 53 38 53 4 0 34 -7 67 -15 79 -19 110 -18 165 2 48 17 100 59 100 79 0 7 3 14 8 16 16 7 43 83 48 136 9 83 -21 161 -83 221 -27 25 -57 51 -68 57 -18 10 -18 15 -7 70 20 97 21 103 12 163 -17 123 -77 206 -165 230 -45 12 -127 13 -165 2z m-16 -522 c36 -43 32 -72 -17 -126 -44 -49 -127 -10 -127 59 0 85 93 128 144 67z" transform="translate(679,-679) scale(1,1)" stroke="none" fill="#1F444E"/>
</g>
<g id="pattern4" transform="matrix(1.618,0,0,1.618,1777,1777)matrix(0.87,0.5,-0.5,0.87,0,0)">
<path d="M780 1271 c-30 -10 -107 -48 -127 -64 -44 -36 -91 -90 -108 -124 -11 -21 -24 -41 -28 -44 -4 -3 -31 0 -60 8 -89 24 -211 -2 -289 -61 -56 -43 -99 -137 -91 -200 9 -88 111 -217 221 -282 31 -18 33 -21 26 -54 -5 -19 -8 -73 -8 -120 -1 -78 2 -89 29 -130 38 -57 65 -79 134 -109 43 -18 67 -22 103 -18 87 11 204 90 193 131 -5 16 -4 18 4 6 12 -17 10 -19 51 47 17 29 35 53 38 53 4 0 34 -7 67 -15 79 -19 110 -18 165 2 48 17 100 59 100 79 0 7 3 14 8 16 16 7 43 83 48 136 9 83 -21 161 -83 221 -27 25 -57 51 -68 57 -18 10 -18 15 -7 70 20 97 21 103 12 163 -17 123 -77 206 -165 230 -45 12 -127 13 -165 2z m-16 -522 c36 -43 32 -72 -17 -126 -44 -49 -127 -10 -127 59 0 85 93 128 144 67z" transform="translate(679,-679) scale(1,1)" stroke="none" fill="#1F444E"/>
</g>
</g>
</g>

<g id="2" transform="translate(3114.0,0)scale(0.25,0.25)">

<g id="pattern">
<rect width="6747" height="6747" fill="#B3C6D5"/>
<g id="pattern1" transform="matrix(1,0,0,1,420,420)">
<path d="M780 1271 c-30 -10 -107 -48 -127 -64 -44 -36 -91 -90 -108 -124 -11 -21 -24 -41 -28 -44 -4 -3 -31 0 -60 8 -89 24 -211 -2 -289 -61 -56 -43 -99 -137 -91 -200 9 -88 111 -217 221 -282 31 -18 33 -21 26 -54 -5 -19 -8 -73 -8 -120 -1 -78 2 -89 29 -130 38 -57 65 -79 134 -109 43 -18 67 -22 103 -18 87 11 204 90 193 131 -5 16 -4 18 4 6 12 -17 10 -19 51 47 17 29 35 53 38 53 4 0 34 -7 67 -15 79 -19 110 -18 165 2 48 17 100 59 100 79 0 7 3 14 8 16 16 7 43 83 48 136 9 83 -21 161 -83 221 -27 25 -57 51 -68 57 -18 10 -18 15 -7 70 20 97 21 103 12 163 -17 123 -77 206 -165 230 -45 12 -127 13 -165 2z m-16 -522 c36 -43 32 -72 -17 -126 -44 -49 -127 -10 -127 59 0 85 93 128 144 67z" transform="translate(0.000000,0.000000) scale(1,1)" stroke="none" fill="#1F444E"/>
</g>
<g id="pattern2" transform="matrix(0.618,0,0,0.618,3197,939)">
<path d="M780 1271 c-30 -10 -107 -48 -127 -64 -44 -36 -91 -90 -108 -124 -11 -21 -24 -41 -28 -44 -4 -3 -31 0 -60 8 -89 24 -211 -2 -289 -61 -56 -43 -99 -137 -91 -200 9 -88 111 -217 221 -282 31 -18 33 -21 26 -54 -5 -19 -8 -73 -8 -120 -1 -78 2 -89 29 -130 38 -57 65 -79 134 -109 43 -18 67 -22 103 -18 87 11 204 90 193 131 -5 16 -4 18 4 6 12 -17 10 -19 51 47 17 29 35 53 38 53 4 0 34 -7 67 -15 79 -19 110 -18 165 2 48 17 100 59 100 79 0 7 3 14 8 16 16 7 43 83 48 136 9 83 -21 161 -83 221 -27 25 -57 51 -68 57 -18 10 -18 15 -7 70 20 97 21 103 12 163 -17 123 -77 206 -165 230 -45 12 -127 13 -165 2z m-16 -522 c36 -43 32 -72 -17 -126 -44 -49 -127 -10 -127 59 0 85 93 128 144 67z" transform="translate(4235,0.000000) scale(-1,1)" stroke="none" fill="#1F444E"/>
</g>
<g id="pattern3" transform="matrix(0.618,0,0,0.618,1198,4235)matrix(0.71,0.71,-0.71,0.71,0,0)">
<path d="M780 1271 c-30 -10 -107 -48 -127 -64 -44 -36 -91 -90 -108 -124 -11 -21 -24 -41 -28 -44 -4 -3 -31 0 -60 8 -89 24 -211 -2 -289 -61 -56 -43 -99 -137 -91 -200 9 -88 111 -217 221 -282 31 -18 33 -21 26 -54 -5 -19 -8 -73 -8 -120 -1 -78 2 -89 29 -130 38 -57 65 -79 134 -109 43 -18 67 -22 103 -18 87 11 204 90 193 131 -5 16 -4 18 4 6 12 -17 10 -19 51 47 17 29 35 53 38 53 4 0 34 -7 67 -15 79 -19 110 -18 165 2 48 17 100 59 100 79 0 7 3 14 8 16 16 7 43 83 48 136 9 83 -21 161 -83 221 -27 25 -57 51 -68 57 -18 10 -18 15 -7 70 20 97 21 103 12 163 -17 123 -77 206 -165 230 -45 12 -127 13 -165 2z m-16 -522 c36 -43 32 -72 -17 -126 -44 -49 -127 -10 -127 59 0 85 93 128 144 67z" transform="translate(679,-679) scale(1,1)" stroke="none" fill="#1F444E"/>
</g>
<g id="pattern4" transform="matrix(1.618,0,0,1.618,1777,1777)matrix(0.87,0.5,-0.5,0.87,0,0)">
<path d="M780 1271 c-30 -10 -107 -48 -127 -64 -44 -36 -91 -90 -108 -124 -11 -21 -24 -41 -28 -44 -4 -3 -31 0 -60 8 -89 24 -211 -2 -289 -61 -56 -43 -99 -137 -91 -200 9 -88 111 -217 221 -282 31 -18 33 -21 26 -54 -5 -19 -8 -73 -8 -120 -1 -78 2 -89 29 -130 38 -57 65 -79 134 -109 43 -18 67 -22 103 -18 87 11 204 90 193 131 -5 16 -4 18 4 6 12 -17 10 -19 51 47 17 29 35 53 38 53 4 0 34 -7 67 -15 79 -19 110 -18 165 2 48 17 100 59 100 79 0 7 3 14 8 16 16 7 43 83 48 136 9 83 -21 161 -83 221 -27 25 -57 51 -68 57 -18 10 -18 15 -7 70 20 97 21 103 12 163 -17 123 -77 206 -165 230 -45 12 -127 13 -165 2z m-16 -522 c36 -43 32 -72 -17 -126 -44 -49 -127 -10 -127 59 0 85 93 128 144 67z" transform="translate(679,-679) scale(1,1)" stroke="none" fill="#1F444E"/>
</g>
</g>
</g>

<g id="3" transform="translate(4671.0,0)scale(0.25,0.25)">

<g id="pattern">
<rect width="6747" height="6747" fill="#B3C6D5"/>
<g id="pattern1" transform="matrix(1,0,0,1,420,420)">
<path d="M780 1271 c-30 -10 -107 -48 -127 -64 -44 -36 -91 -90 -108 -124 -11 -21 -24 -41 -28 -44 -4 -3 -31 0 -60 8 -89 24 -211 -2 -289 -61 -56 -43 -99 -137 -91 -200 9 -88 111 -217 221 -282 31 -18 33 -21 26 -54 -5 -19 -8 -73 -8 -120 -1 -78 2 -89 29 -130 38 -57 65 -79 134 -109 43 -18 67 -22 103 -18 87 11 204 90 193 131 -5 16 -4 18 4 6 12 -17 10 -19 51 47 17 29 35 53 38 53 4 0 34 -7 67 -15 79 -19 110 -18 165 2 48 17 100 59 100 79 0 7 3 14 8 16 16 7 43 83 48 136 9 83 -21 161 -83 221 -27 25 -57 51 -68 57 -18 10 -18 15 -7 70 20 97 21 103 12 163 -17 123 -77 206 -165 230 -45 12 -127 13 -165 2z m-16 -522 c36 -43 32 -72 -17 -126 -44 -49 -127 -10 -127 59 0 85 93 128 144 67z" transform="translate(0.000000,0.000000) scale(1,1)" stroke="none" fill="#1F444E"/>
</g>
<g id="pattern2" transform="matrix(0.618,0,0,0.618,3197,939)">
<path d="M780 1271 c-30 -10 -107 -48 -127 -64 -44 -36 -91 -90 -108 -124 -11 -21 -24 -41 -28 -44 -4 -3 -31 0 -60 8 -89 24 -211 -2 -289 -61 -56 -43 -99 -137 -91 -200 9 -88 111 -217 221 -282 31 -18 33 -21 26 -54 -5 -19 -8 -73 -8 -120 -1 -78 2 -89 29 -130 38 -57 65 -79 134 -109 43 -18 67 -22 103 -18 87 11 204 90 193 131 -5 16 -4 18 4 6 12 -17 10 -19 51 47 17 29 35 53 38 53 4 0 34 -7 67 -15 79 -19 110 -18 165 2 48 17 100 59 100 79 0 7 3 14 8 16 16 7 43 83 48 136 9 83 -21 161 -83 221 -27 25 -57 51 -68 57 -18 10 -18 15 -7 70 20 97 21 103 12 163 -17 123 -77 206 -165 230 -45 12 -127 13 -165 2z m-16 -522 c36 -43 32 -72 -17 -126 -44 -49 -127 -10 -127 59 0 85 93 128 144 67z" transform="translate(4235,0.000000) scale(-1,1)" stroke="none" fill="#1F444E"/>
</g>
<g id="pattern3" transform="matrix(0.618,0,0,0.618,1198,4235)matrix(0.71,0.71,-0.71,0.71,0,0)">
<path d="M780 1271 c-30 -10 -107 -48 -127 -64 -44 -36 -91 -90 -108 -124 -11 -21 -24 -41 -28 -44 -4 -3 -31 0 -60 8 -89 24 -211 -2 -289 -61 -56 -43 -99 -137 -91 -200 9 -88 111 -217 221 -282 31 -18 33 -21 26 -54 -5 -19 -8 -73 -8 -120 -1 -78 2 -89 29 -130 38 -57 65 -79 134 -109 43 -18 67 -22 103 -18 87 11 204 90 193 131 -5 16 -4 18 4 6 12 -17 10 -19 51 47 17 29 35 53 38 53 4 0 34 -7 67 -15 79 -19 110 -18 165 2 48 17 100 59 100 79 0 7 3 14 8 16 16 7 43 83 48 136 9 83 -21 161 -83 221 -27 25 -57 51 -68 57 -18 10 -18 15 -7 70 20 97 21 103 12 163 -17 123 -77 206 -165 230 -45 12 -127 13 -165 2z m-16 -522 c36 -43 32 -72 -17 -126 -44 -49 -127 -10 -127 59 0 85 93 128 144 67z" transform="translate(679,-679) scale(1,1)" stroke="none" fill="#1F444E"/>
</g>
<g id="pattern4" transform="matrix(1.618,0,0,1.618,1777,1777)matrix(0.87,0.5,-0.5,0.87,0,0)">
<path d="M780 1271 c-30 -10 -107 -48 -127 -64 -44 -36 -91 -90 -108 -124 -11 -21 -24 -41 -28 -44 -4 -3 -31 0 -60 8 -89 24 -211 -2 -289 -61 -56 -43 -99 -137 -91 -200 9 -88 111 -217 221 -282 31 -18 33 -21 26 -54 -5 -19 -8 -73 -8 -120 -1 -78 2 -89 29 -130 38 -57 65 -79 134 -109 43 -18 67 -22 103 -18 87 11 204 90 193 131 -5 16 -4 18 4 6 12 -17 10 -19 51 47 17 29 35 53 38 53 4 0 34 -7 67 -15 79 -19 110 -18 165 2 48 17 100 59 100 79 0 7 3 14 8 16 16 7 43 83 48 136 9 83 -21 161 -83 221 -27 25 -57 51 -68 57 -18 10 -18 15 -7 70 20 97 21 103 12 163 -17 123 -77 206 -165 230 -45 12 -127 13 -165 2z m-16 -522 c36 -43 32 -72 -17 -126 -44 -49 -127 -10 -127 59 0 85 93 128 144 67z" transform="translate(679,-679) scale(1,1)" stroke="none" fill="#1F444E"/>
</g>
</g>
</g>

<g id="4" transform="translate(6228.0,0)scale(0.25,0.25)">

<g id="pattern">
<rect width="6747" height="6747" fill="#B3C6D5"/>
<g id="pattern1" transform="matrix(1,0,0,1,420,420)">
<path d="M780 1271 c-30 -10 -107 -48 -127 -64 -44 -36 -91 -90 -108 -124 -11 -21 -24 -41 -28 -44 -4 -3 -31 0 -60 8 -89 24 -211 -2 -289 -61 -56 -43 -99 -137 -91 -200 9 -88 111 -217 221 -282 31 -18 33 -21 26 -54 -5 -19 -8 -73 -8 -120 -1 -78 2 -89 29 -130 38 -57 65 -79 134 -109 43 -18 67 -22 103 -18 87 11 204 90 193 131 -5 16 -4 18 4 6 12 -17 10 -19 51 47 17 29 35 53 38 53 4 0 34 -7 67 -15 79 -19 110 -18 165 2 48 17 100 59 100 79 0 7 3 14 8 16 16 7 43 83 48 136 9 83 -21 161 -83 221 -27 25 -57 51 -68 57 -18 10 -18 15 -7 70 20 97 21 103 12 163 -17 123 -77 206 -165 230 -45 12 -127 13 -165 2z m-16 -522 c36 -43 32 -72 -17 -126 -44 -49 -127 -10 -127 59 0 85 93 128 144 67z" transform="translate(0.000000,0.000000) scale(1,1)" stroke="none" fill="#1F444E"/>
</g>
<g id="pattern2" transform="matrix(0.618,0,0,0.618,3197,939)">
<path d="M780 1271 c-30 -10 -107 -48 -127 -64 -44 -36 -91 -90 -108 -124 -11 -21 -24 -41 -28 -44 -4 -3 -31 0 -60 8 -89 24 -211 -2 -289 -61 -56 -43 -99 -137 -91 -200 9 -88 111 -217 221 -282 31 -18 33 -21 26 -54 -5 -19 -8 -73 -8 -120 -1 -78 2 -89 29 -130 38 -57 65 -79 134 -109 43 -18 67 -22 103 -18 87 11 204 90 193 131 -5 16 -4 18 4 6 12 -17 10 -19 51 47 17 29 35 53 38 53 4 0 34 -7 67 -15 79 -19 110 -18 165 2 48 17 100 59 100 79 0 7 3 14 8 16 16 7 43 83 48 136 9 83 -21 161 -83 221 -27 25 -57 51 -68 57 -18 10 -18 15 -7 70 20 97 21 103 12 163 -17 123 -77 206 -165 230 -45 12 -127 13 -165 2z m-16 -522 c36 -43 32 -72 -17 -126 -44 -49 -127 -10 -127 59 0 85 93 128 144 67z" transform="translate(4235,0.000000) scale(-1,1)" stroke="none" fill="#1F444E"/>
</g>
<g id="pattern3" transform="matrix(0.618,0,0,0.618,1198,4235)matrix(0.71,0.71,-0.71,0.71,0,0)">
<path d="M780 1271 c-30 -10 -107 -48 -127 -64 -44 -36 -91 -90 -108 -124 -11 -21 -24 -41 -28 -44 -4 -3 -31 0 -60 8 -89 24 -211 -2 -289 -61 -56 -43 -99 -137 -91 -200 9 -88 111 -217 221 -282 31 -18 33 -21 26 -54 -5 -19 -8 -73 -8 -120 -1 -78 2 -89 29 -130 38 -57 65 -79 134 -109 43 -18 67 -22 103 -18 87 11 204 90 193 131 -5 16 -4 18 4 6 12 -17 10 -19 51 47 17 29 35 53 38 53 4 0 34 -7 67 -15 79 -19 110 -18 165 2 48 17 100 59 100 79 0 7 3 14 8 16 16 7 43 83 48 136 9 83 -21 161 -83 221 -27 25 -57 51 -68 57 -18 10 -18 15 -7 70 20 97 21 103 12 163 -17 123 -77 206 -165 230 -45 12 -127 13 -165 2z m-16 -522 c36 -43 32 -72 -17 -126 -44 -49 -127 -10 -127 59 0 85 93 128 144 67z" transform="translate(679,-679) scale(1,1)" stroke="none" fill="#1F444E"/>
</g>
<g id="pattern4" transform="matrix(1.618,0,0,1.618,1777,1777)matrix(0.87,0.5,-0.5,0.87,0,0)">
<path d="M780 1271 c-30 -10 -107 -48 -127 -64 -44 -36 -91 -90 -108 -124 -11 -21 -24 -41 -28 -44 -4 -3 -31 0 -60 8 -89 24 -211 -2 -289 -61 -56 -43 -99 -137 -91 -200 9 -88 111 -217 221 -282 31 -18 33 -21 26 -54 -5 -19 -8 -73 -8 -120 -1 -78 2 -89 29 -130 38 -57 65 -79 134 -109 43 -18 67 -22 103 -18 87 11 204 90 193 131 -5 16 -4 18 4 6 12 -17 10 -19 51 47 17 29 35 53 38 53 4 0 34 -7 67 -15 79 -19 110 -18 165 2 48 17 100 59 100 79 0 7 3 14 8 16 16 7 43 83 48 136 9 83 -21 161 -83 221 -27 25 -57 51 -68 57 -18 10 -18 15 -7 70 20 97 21 103 12 163 -17 123 -77 206 -165 230 -45 12 -127 13 -165 2z m-16 -522 c36 -43 32 -72 -17 -126 -44 -49 -127 -10 -127 59 0 85 93 128 144 67z" transform="translate(679,-679) scale(1,1)" stroke="none" fill="#1F444E"/>
</g>
</g>
</g>

</g>
<g id="row3" transform="translate(0,4671.0)">
<g id="0" transform="translate(0.0,0)scale(0.25,0.25)">

<g id="pattern">
<rect width="6747" height="6747" fill="#B3C6D5"/>
<g id="pattern1" transform="matrix(1,0,0,1,420,420)">
<path d="M780 1271 c-30 -10 -107 -48 -127 -64 -44 -36 -91 -90 -108 -124 -11 -21 -24 -41 -28 -44 -4 -3 -31 0 -60 8 -89 24 -211 -2 -289 -61 -56 -43 -99 -137 -91 -200 9 -88 111 -217 221 -282 31 -18 33 -21 26 -54 -5 -19 -8 -73 -8 -120 -1 -78 2 -89 29 -130 38 -57 65 -79 134 -109 43 -18 67 -22 103 -18 87 11 204 90 193 131 -5 16 -4 18 4 6 12 -17 10 -19 51 47 17 29 35 53 38 53 4 0 34 -7 67 -15 79 -19 110 -18 165 2 48 17 100 59 100 79 0 7 3 14 8 16 16 7 43 83 48 136 9 83 -21 161 -83 221 -27 25 -57 51 -68 57 -18 10 -18 15 -7 70 20 97 21 103 12 163 -17 123 -77 206 -165 230 -45 12 -127 13 -165 2z m-16 -522 c36 -43 32 -72 -17 -126 -44 -49 -127 -10 -127 59 0 85 93 128 144 67z" transform="translate(0.000000,0.000000) scale(1,1)" stroke="none" fill="#1F444E"/>
</g>
<g id="pattern2" transform="matrix(0.618,0,0,0.618,3197,939)">
<path d="M780 1271 c-30 -10 -107 -48 -127 -64 -44 -36 -91 -90 -108 -124 -11 -21 -24 -41 -28 -44 -4 -3 -31 0 -60 8 -89 24 -211 -2 -289 -61 -56 -43 -99 -137 -91 -200 9 -88 111 -217 221 -282 31 -18 33 -21 26 -54 -5 -19 -8 -73 -8 -120 -1 -78 2 -89 29 -130 38 -57 65 -79 134 -109 43 -18 67 -22 103 -18 87 11 204 90 193 131 -5 16 -4 18 4 6 12 -17 10 -19 51 47 17 29 35 53 38 53 4 0 34 -7 67 -15 79 -19 110 -18 165 2 48 17 100 59 100 79 0 7 3 14 8 16 16 7 43 83 48 136 9 83 -21 161 -83 221 -27 25 -57 51 -68 57 -18 10 -18 15 -7 70 20 97 21 103 12 163 -17 123 -77 206 -165 230 -45 12 -127 13 -165 2z m-16 -522 c36 -43 32 -72 -17 -126 -44 -49 -127 -10 -127 59 0 85 93 128 144 67z" transform="translate(4235,0.000000) scale(-1,1)" stroke="none" fill="#1F444E"/>
</g>
<g id="pattern3" transform="matrix(0.618,0,0,0.618,1198,4235)matrix(0.71,0.71,-0.71,0.71,0,0)">
<path d="M780 1271 c-30 -10 -107 -48 -127 -64 -44 -36 -91 -90 -108 -124 -11 -21 -24 -41 -28 -44 -4 -3 -31 0 -60 8 -89 24 -211 -2 -289 -61 -56 -43 -99 -137 -91 -200 9 -88 111 -217 221 -282 31 -18 33 -21 26 -54 -5 -19 -8 -73 -8 -120 -1 -78 2 -89 29 -130 38 -57 65 -79 134 -109 43 -18 67 -22 103 -18 87 11 204 90 193 131 -5 16 -4 18 4 6 12 -17 10 -19 51 47 17 29 35 53 38 53 4 0 34 -7 67 -15 79 -19 110 -18 165 2 48 17 100 59 100 79 0 7 3 14 8 16 16 7 43 83 48 136 9 83 -21 161 -83 221 -27 25 -57 51 -68 57 -18 10 -18 15 -7 70 20 97 21 103 12 163 -17 123 -77 206 -165 230 -45 12 -127 13 -165 2z m-16 -522 c36 -43 32 -72 -17 -126 -44 -49 -127 -10 -127 59 0 85 93 128 144 67z" transform="translate(679,-679) scale(1,1)" stroke="none" fill="#1F444E"/>
</g>
<g id="pattern4" transform="matrix(1.618,0,0,1.618,1777,1777)matrix(0.87,0.5,-0.5,0.87,0,0)">
<path d="M780 1271 c-30 -10 -107 -48 -127 -64 -44 -36 -91 -90 -108 -124 -11 -21 -24 -41 -28 -44 -4 -3 -31 0 -60 8 -89 24 -211 -2 -289 -61 -56 -43 -99 -137 -91 -200 9 -88 111 -217 221 -282 31 -18 33 -21 26 -54 -5 -19 -8 -73 -8 -120 -1 -78 2 -89 29 -130 38 -57 65 -79 134 -109 43 -18 67 -22 103 -18 87 11 204 90 193 131 -5 16 -4 18 4 6 12 -17 10 -19 51 47 17 29 35 53 38 53 4 0 34 -7 67 -15 79 -19 110 -18 165 2 48 17 100 59 100 79 0 7 3 14 8 16 16 7 43 83 48 136 9 83 -21 161 -83 221 -27 25 -57 51 -68 57 -18 10 -18 15 -7 70 20 97 21 103 12 163 -17 123 -77 206 -165 230 -45 12 -127 13 -165 2z m-16 -522 c36 -43 32 -72 -17 -126 -44 -49 -127 -10 -127 59 0 85 93 128 144 67z" transform="translate(679,-679) scale(1,1)" stroke="none" fill="#1F444E"/>
</g>
</g>
</g>

<g id="1" transform="translate(1557.0,0)scale(0.25,0.25)">

<g id="pattern">
<rect width="6747" height="6747" fill="#B3C6D5"/>
<g id="pattern1" transform="matrix(1,0,0,1,420,420)">
<path d="M780 1271 c-30 -10 -107 -48 -127 -64 -44 -36 -91 -90 -108 -124 -11 -21 -24 -41 -28 -44 -4 -3 -31 0 -60 8 -89 24 -211 -2 -289 -61 -56 -43 -99 -137 -91 -200 9 -88 111 -217 221 -282 31 -18 33 -21 26 -54 -5 -19 -8 -73 -8 -120 -1 -78 2 -89 29 -130 38 -57 65 -79 134 -109 43 -18 67 -22 103 -18 87 11 204 90 193 131 -5 16 -4 18 4 6 12 -17 10 -19 51 47 17 29 35 53 38 53 4 0 34 -7 67 -15 79 -19 110 -18 165 2 48 17 100 59 100 79 0 7 3 14 8 16 16 7 43 83 48 136 9 83 -21 161 -83 221 -27 25 -57 51 -68 57 -18 10 -18 15 -7 70 20 97 21 103 12 163 -17 123 -77 206 -165 230 -45 12 -127 13 -165 2z m-16 -522 c36 -43 32 -72 -17 -126 -44 -49 -127 -10 -127 59 0 85 93 128 144 67z" transform="translate(0.000000,0.000000) scale(1,1)" stroke="none" fill="#1F444E"/>
</g>
<g id="pattern2" transform="matrix(0.618,0,0,0.618,3197,939)">
<path d="M780 1271 c-30 -10 -107 -48 -127 -64 -44 -36 -91 -90 -108 -124 -11 -21 -24 -41 -28 -44 -4 -3 -31 0 -60 8 -89 24 -211 -2 -289 -61 -56 -43 -99 -137 -91 -200 9 -88 111 -217 221 -282 31 -18 33 -21 26 -54 -5 -19 -8 -73 -8 -120 -1 -78 2 -89 29 -130 38 -57 65 -79 134 -109 43 -18 67 -22 103 -18 87 11 204 90 193 131 -5 16 -4 18 4 6 12 -17 10 -19 51 47 17 29 35 53 38 53 4 0 34 -7 67 -15 79 -19 110 -18 165 2 48 17 100 59 100 79 0 7 3 14 8 16 16 7 43 83 48 136 9 83 -21 161 -83 221 -27 25 -57 51 -68 57 -18 10 -18 15 -7 70 20 97 21 103 12 163 -17 123 -77 206 -165 230 -45 12 -127 13 -165 2z m-16 -522 c36 -43 32 -72 -17 -126 -44 -49 -127 -10 -127 59 0 85 93 128 144 67z" transform="translate(4235,0.000000) scale(-1,1)" stroke="none" fill="#1F444E"/>
</g>
<g id="pattern3" transform="matrix(0.618,0,0,0.618,1198,4235)matrix(0.71,0.71,-0.71,0.71,0,0)">
<path d="M780 1271 c-30 -10 -107 -48 -127 -64 -44 -36 -91 -90 -108 -124 -11 -21 -24 -41 -28 -44 -4 -3 -31 0 -60 8 -89 24 -211 -2 -289 -61 -56 -43 -99 -137 -91 -200 9 -88 111 -217 221 -282 31 -18 33 -21 26 -54 -5 -19 -8 -73 -8 -120 -1 -78 2 -89 29 -130 38 -57 65 -79 134 -109 43 -18 67 -22 103 -18 87 11 204 90 193 131 -5 16 -4 18 4 6 12 -17 10 -19 51 47 17 29 35 53 38 53 4 0 34 -7 67 -15 79 -19 110 -18 165 2 48 17 100 59 100 79 0 7 3 14 8 16 16 7 43 83 48 136 9 83 -21 161 -83 221 -27 25 -57 51 -68 57 -18 10 -18 15 -7 70 20 97 21 103 12 163 -17 123 -77 206 -165 230 -45 12 -127 13 -165 2z m-16 -522 c36 -43 32 -72 -17 -126 -44 -49 -127 -10 -127 59 0 85 93 128 144 67z" transform="translate(679,-679) scale(1,1)" stroke="none" fill="#1F444E"/>
</g>
<g id="pattern4" transform="matrix(1.618,0,0,1.618,1777,1777)matrix(0.87,0.5,-0.5,0.87,0,0)">
<path d="M780 1271 c-30 -10 -107 -48 -127 -64 -44 -36 -91 -90 -108 -124 -11 -21 -24 -41 -28 -44 -4 -3 -31 0 -60 8 -89 24 -211 -2 -289 -61 -56 -43 -99 -137 -91 -200 9 -88 111 -217 221 -282 31 -18 33 -21 26 -54 -5 -19 -8 -73 -8 -120 -1 -78 2 -89 29 -130 38 -57 65 -79 134 -109 43 -18 67 -22 103 -18 87 11 204 90 193 131 -5 16 -4 18 4 6 12 -17 10 -19 51 47 17 29 35 53 38 53 4 0 34 -7 67 -15 79 -19 110 -18 165 2 48 17 100 59 100 79 0 7 3 14 8 16 16 7 43 83 48 136 9 83 -21 161 -83 221 -27 25 -57 51 -68 57 -18 10 -18 15 -7 70 20 97 21 103 12 163 -17 123 -77 206 -165 230 -45 12 -127 13 -165 2z m-16 -522 c36 -43 32 -72 -17 -126 -44 -49 -127 -10 -127 59 0 85 93 128 144 67z" transform="translate(679,-679) scale(1,1)" stroke="none" fill="#1F444E"/>
</g>
</g>
</g>

<g id="2" transform="translate(3114.0,0)scale(0.25,0.25)">

<g id="pattern">
<rect width="6747" height="6747" fill="#B3C6D5"/>
<g id="pattern1" transform="matrix(1,0,0,1,420,420)">
<path d="M780 1271 c-30 -10 -107 -48 -127 -64 -44 -36 -91 -90 -108 -124 -11 -21 -24 -41 -28 -44 -4 -3 -31 0 -60 8 -89 24 -211 -2 -289 -61 -56 -43 -99 -137 -91 -200 9 -88 111 -217 221 -282 31 -18 33 -21 26 -54 -5 -19 -8 -73 -8 -120 -1 -78 2 -89 29 -130 38 -57 65 -79 134 -109 43 -18 67 -22 103 -18 87 11 204 90 193 131 -5 16 -4 18 4 6 12 -17 10 -19 51 47 17 29 35 53 38 53 4 0 34 -7 67 -15 79 -19 110 -18 165 2 48 17 100 59 100 79 0 7 3 14 8 16 16 7 43 83 48 136 9 83 -21 161 -83 221 -27 25 -57 51 -68 57 -18 10 -18 15 -7 70 20 97 21 103 12 163 -17 123 -77 206 -165 230 -45 12 -127 13 -165 2z m-16 -522 c36 -43 32 -72 -17 -126 -44 -49 -127 -10 -127 59 0 85 93 128 144 67z" transform="translate(0.000000,0.000000) scale(1,1)" stroke="none" fill="#1F444E"/>
</g>
<g id="pattern2" transform="matrix(0.618,0,0,0.618,3197,939)">
<path d="M780 1271 c-30 -10 -107 -48 -127 -64 -44 -36 -91 -90 -108 -124 -11 -21 -24 -41 -28 -44 -4 -3 -31 0 -60 8 -89 24 -211 -2 -289 -61 -56 -43 -99 -137 -91 -200 9 -88 111 -217 221 -282 31 -18 33 -21 26 -54 -5 -19 -8 -73 -8 -120 -1 -78 2 -89 29 -130 38 -57 65 -79 134 -109 43 -18 67 -22 103 -18 87 11 204 90 193 131 -5 16 -4 18 4 6 12 -17 10 -19 51 47 17 29 35 53 38 53 4 0 34 -7 67 -15 79 -19 110 -18 165 2 48 17 100 59 100 79 0 7 3 14 8 16 16 7 43 83 48 136 9 83 -21 161 -83 221 -27 25 -57 51 -68 57 -18 10 -18 15 -7 70 20 97 21 103 12 163 -17 123 -77 206 -165 230 -45 12 -127 13 -165 2z m-16 -522 c36 -43 32 -72 -17 -126 -44 -49 -127 -10 -127 59 0 85 93 128 144 67z" transform="translate(4235,0.000000) scale(-1,1)" stroke="none" fill="#1F444E"/>
</g>
<g id="pattern3" transform="matrix(0.618,0,0,0.618,1198,4235)matrix(0.71,0.71,-0.71,0.71,0,0)">
<path d="M780 1271 c-30 -10 -107 -48 -127 -64 -44 -36 -91 -90 -108 -124 -11 -21 -24 -41 -28 -44 -4 -3 -31 0 -60 8 -89 24 -211 -2 -289 -61 -56 -43 -99 -137 -91 -200 9 -88 111 -217 221 -282 31 -18 33 -21 26 -54 -5 -19 -8 -73 -8 -120 -1 -78 2 -89 29 -130 38 -57 65 -79 134 -109 43 -18 67 -22 103 -18 87 11 204 90 193 131 -5 16 -4 18 4 6 12 -17 10 -19 51 47 17 29 35 53 38 53 4 0 34 -7 67 -15 79 -19 110 -18 165 2 48 17 100 59 100 79 0 7 3 14 8 16 16 7 43 83 48 136 9 83 -21 161 -83 221 -27 25 -57 51 -68 57 -18 10 -18 15 -7 70 20 97 21 103 12 163 -17 123 -77 206 -165 230 -45 12 -127 13 -165 2z m-16 -522 c36 -43 32 -72 -17 -126 -44 -49 -127 -10 -127 59 0 85 93 128 144 67z" transform="translate(679,-679) scale(1,1)" stroke="none" fill="#1F444E"/>
</g>
<g id="pattern4" transform="matrix(1.618,0,0,1.618,1777,1777)matrix(0.87,0.5,-0.5,0.87,0,0)">
<path d="M780 1271 c-30 -10 -107 -48 -127 -64 -44 -36 -91 -90 -108 -124 -11 -21 -24 -41 -28 -44 -4 -3 -31 0 -60 8 -89 24 -211 -2 -289 -61 -56 -43 -99 -137 -91 -200 9 -88 111 -217 221 -282 31 -18 33 -21 26 -54 -5 -19 -8 -73 -8 -120 -1 -78 2 -89 29 -130 38 -57 65 -79 134 -109 43 -18 67 -22 103 -18 87 11 204 90 193 131 -5 16 -4 18 4 6 12 -17 10 -19 51 47 17 29 35 53 38 53 4 0 34 -7 67 -15 79 -19 110 -18 165 2 48 17 100 59 100 79 0 7 3 14 8 16 16 7 43 83 48 136 9 83 -21 161 -83 221 -27 25 -57 51 -68 57 -18 10 -18 15 -7 70 20 97 21 103 12 163 -17 123 -77 206 -165 230 -45 12 -127 13 -165 2z m-16 -522 c36 -43 32 -72 -17 -126 -44 -49 -127 -10 -127 59 0 85 93 128 144 67z" transform="translate(679,-679) scale(1,1)" stroke="none" fill="#1F444E"/>
</g>
</g>
</g>

<g id="3" transform="translate(4671.0,0)scale(0.25,0.25)">

<g id="pattern">
<rect width="6747" height="6747" fill="#B3C6D5"/>
<g id="pattern1" transform="matrix(1,0,0,1,420,420)">
<path d="M780 1271 c-30 -10 -107 -48 -127 -64 -44 -36 -91 -90 -108 -124 -11 -21 -24 -41 -28 -44 -4 -3 -31 0 -60 8 -89 24 -211 -2 -289 -61 -56 -43 -99 -137 -91 -200 9 -88 111 -217 221 -282 31 -18 33 -21 26 -54 -5 -19 -8 -73 -8 -120 -1 -78 2 -89 29 -130 38 -57 65 -79 134 -109 43 -18 67 -22 103 -18 87 11 204 90 193 131 -5 16 -4 18 4 6 12 -17 10 -19 51 47 17 29 35 53 38 53 4 0 34 -7 67 -15 79 -19 110 -18 165 2 48 17 100 59 100 79 0 7 3 14 8 16 16 7 43 83 48 136 9 83 -21 161 -83 221 -27 25 -57 51 -68 57 -18 10 -18 15 -7 70 20 97 21 103 12 163 -17 123 -77 206 -165 230 -45 12 -127 13 -165 2z m-16 -522 c36 -43 32 -72 -17 -126 -44 -49 -127 -10 -127 59 0 85 93 128 144 67z" transform="translate(0.000000,0.000000) scale(1,1)" stroke="none" fill="#1F444E"/>
</g>
<g id="pattern2" transform="matrix(0.618,0,0,0.618,3197,939)">
<path d="M780 1271 c-30 -10 -107 -48 -127 -64 -44 -36 -91 -90 -108 -124 -11 -21 -24 -41 -28 -44 -4 -3 -31 0 -60 8 -89 24 -211 -2 -289 -61 -56 -43 -99 -137 -91 -200 9 -88 111 -217 221 -282 31 -18 33 -21 26 -54 -5 -19 -8 -73 -8 -120 -1 -78 2 -89 29 -130 38 -57 65 -79 134 -109 43 -18 67 -22 103 -18 87 11 204 90 193 131 -5 16 -4 18 4 6 12 -17 10 -19 51 47 17 29 35 53 38 53 4 0 34 -7 67 -15 79 -19 110 -18 165 2 48 17 100 59 100 79 0 7 3 14 8 16 16 7 43 83 48 136 9 83 -21 161 -83 221 -27 25 -57 51 -68 57 -18 10 -18 15 -7 70 20 97 21 103 12 163 -17 123 -77 206 -165 230 -45 12 -127 13 -165 2z m-16 -522 c36 -43 32 -72 -17 -126 -44 -49 -127 -10 -127 59 0 85 93 128 144 67z" transform="translate(4235,0.000000) scale(-1,1)" stroke="none" fill="#1F444E"/>
</g>
<g id="pattern3" transform="matrix(0.618,0,0,0.618,1198,4235)matrix(0.71,0.71,-0.71,0.71,0,0)">
<path d="M780 1271 c-30 -10 -107 -48 -127 -64 -44 -36 -91 -90 -108 -124 -11 -21 -24 -41 -28 -44 -4 -3 -31 0 -60 8 -89 24 -211 -2 -289 -61 -56 -43 -99 -137 -91 -200 9 -88 111 -217 221 -282 31 -18 33 -21 26 -54 -5 -19 -8 -73 -8 -120 -1 -78 2 -89 29 -130 38 -57 65 -79 134 -109 43 -18 67 -22 103 -18 87 11 204 90 193 131 -5 16 -4 18 4 6 12 -17 10 -19 51 47 17 29 35 53 38 53 4 0 34 -7 67 -15 79 -19 110 -18 165 2 48 17 100 59 100 79 0 7 3 14 8 16 16 7 43 83 48 136 9 83 -21 161 -83 221 -27 25 -57 51 -68 57 -18 10 -18 15 -7 70 20 97 21 103 12 163 -17 123 -77 206 -165 230 -45 12 -127 13 -165 2z m-16 -522 c36 -43 32 -72 -17 -126 -44 -49 -127 -10 -127 59 0 85 93 128 144 67z" transform="translate(679,-679) scale(1,1)" stroke="none" fill="#1F444E"/>
</g>
<g id="pattern4" transform="matrix(1.618,0,0,1.618,1777,1777)matrix(0.87,0.5,-0.5,0.87,0,0)">
<path d="M780 1271 c-30 -10 -107 -48 -127 -64 -44 -36 -91 -90 -108 -124 -11 -21 -24 -41 -28 -44 -4 -3 -31 0 -60 8 -89 24 -211 -2 -289 -61 -56 -43 -99 -137 -91 -200 9 -88 111 -217 221 -282 31 -18 33 -21 26 -54 -5 -19 -8 -73 -8 -120 -1 -78 2 -89 29 -130 38 -57 65 -79 134 -109 43 -18 67 -22 103 -18 87 11 204 90 193 131 -5 16 -4 18 4 6 12 -17 10 -19 51 47 17 29 35 53 38 53 4 0 34 -7 67 -15 79 -19 110 -18 165 2 48 17 100 59 100 79 0 7 3 14 8 16 16 7 43 83 48 136 9 83 -21 161 -83 221 -27 25 -57 51 -68 57 -18 10 -18 15 -7 70 20 97 21 103 12 163 -17 123 -77 206 -165 230 -45 12 -127 13 -165 2z m-16 -522 c36 -43 32 -72 -17 -126 -44 -49 -127 -10 -127 59 0 85 93 128 144 67z" transform="translate(679,-679) scale(1,1)" stroke="none" fill="#1F444E"/>
</g>
</g>
</g>

<g id="4" transform="translate(6228.0,0)scale(0.25,0.25)">

<g id="pattern">
<rect width="6747" height="6747" fill="#B3C6D5"/>
<g id="pattern1" transform="matrix(1,0,0,1,420,420)">
<path d="M780 1271 c-30 -10 -107 -48 -127 -64 -44 -36 -91 -90 -108 -124 -11 -21 -24 -41 -28 -44 -4 -3 -31 0 -60 8 -89 24 -211 -2 -289 -61 -56 -43 -99 -137 -91 -200 9 -88 111 -217 221 -282 31 -18 33 -21 26 -54 -5 -19 -8 -73 -8 -120 -1 -78 2 -89 29 -130 38 -57 65 -79 134 -109 43 -18 67 -22 103 -18 87 11 204 90 193 131 -5 16 -4 18 4 6 12 -17 10 -19 51 47 17 29 35 53 38 53 4 0 34 -7 67 -15 79 -19 110 -18 165 2 48 17 100 59 100 79 0 7 3 14 8 16 16 7 43 83 48 136 9 83 -21 161 -83 221 -27 25 -57 51 -68 57 -18 10 -18 15 -7 70 20 97 21 103 12 163 -17 123 -77 206 -165 230 -45 12 -127 13 -165 2z m-16 -522 c36 -43 32 -72 -17 -126 -44 -49 -127 -10 -127 59 0 85 93 128 144 67z" transform="translate(0.000000,0.000000) scale(1,1)" stroke="none" fill="#1F444E"/>
</g>
<g id="pattern2" transform="matrix(0.618,0,0,0.618,3197,939)">
<path d="M780 1271 c-30 -10 -107 -48 -127 -64 -44 -36 -91 -90 -108 -124 -11 -21 -24 -41 -28 -44 -4 -3 -31 0 -60 8 -89 24 -211 -2 -289 -61 -56 -43 -99 -137 -91 -200 9 -88 111 -217 221 -282 31 -18 33 -21 26 -54 -5 -19 -8 -73 -8 -120 -1 -78 2 -89 29 -130 38 -57 65 -79 134 -109 43 -18 67 -22 103 -18 87 11 204 90 193 131 -5 16 -4 18 4 6 12 -17 10 -19 51 47 17 29 35 53 38 53 4 0 34 -7 67 -15 79 -19 110 -18 165 2 48 17 100 59 100 79 0 7 3 14 8 16 16 7 43 83 48 136 9 83 -21 161 -83 221 -27 25 -57 51 -68 57 -18 10 -18 15 -7 70 20 97 21 103 12 163 -17 123 -77 206 -165 230 -45 12 -127 13 -165 2z m-16 -522 c36 -43 32 -72 -17 -126 -44 -49 -127 -10 -127 59 0 85 93 128 144 67z" transform="translate(4235,0.000000) scale(-1,1)" stroke="none" fill="#1F444E"/>
</g>
<g id="pattern3" transform="matrix(0.618,0,0,0.618,1198,4235)matrix(0.71,0.71,-0.71,0.71,0,0)">
<path d="M780 1271 c-30 -10 -107 -48 -127 -64 -44 -36 -91 -90 -108 -124 -11 -21 -24 -41 -28 -44 -4 -3 -31 0 -60 8 -89 24 -211 -2 -289 -61 -56 -43 -99 -137 -91 -200 9 -88 111 -217 221 -282 31 -18 33 -21 26 -54 -5 -19 -8 -73 -8 -120 -1 -78 2 -89 29 -130 38 -57 65 -79 134 -109 43 -18 67 -22 103 -18 87 11 204 90 193 131 -5 16 -4 18 4 6 12 -17 10 -19 51 47 17 29 35 53 38 53 4 0 34 -7 67 -15 79 -19 110 -18 165 2 48 17 100 59 100 79 0 7 3 14 8 16 16 7 43 83 48 136 9 83 -21 161 -83 221 -27 25 -57 51 -68 57 -18 10 -18 15 -7 70 20 97 21 103 12 163 -17 123 -77 206 -165 230 -45 12 -127 13 -165 2z m-16 -522 c36 -43 32 -72 -17 -126 -44 -49 -127 -10 -127 59 0 85 93 128 144 67z" transform="translate(679,-679) scale(1,1)" stroke="none" fill="#1F444E"/>
</g>
<g id="pattern4" transform="matrix(1.618,0,0,1.618,1777,1777)matrix(0.87,0.5,-0.5,0.87,0,0)">
<path d="M780 1271 c-30 -10 -107 -48 -127 -64 -44 -36 -91 -90 -108 -124 -11 -21 -24 -41 -28 -44 -4 -3 -31 0 -60 8 -89 24 -211 -2 -289 -61 -56 -43 -99 -137 -91 -200 9 -88 111 -217 221 -282 31 -18 33 -21 26 -54 -5 -19 -8 -73 -8 -120 -1 -78 2 -89 29 -130 38 -57 65 -79 134 -109 43 -18 67 -22 103 -18 87 11 204 90 193 131 -5 16 -4 18 4 6 12 -17 10 -19 51 47 17 29 35 53 38 53 4 0 34 -7 67 -15 79 -19 110 -18 165 2 48 17 100 59 100 79 0 7 3 14 8 16 16 7 43 83 48 136 9 83 -21 161 -83 221 -27 25 -57 51 -68 57 -18 10 -18 15 -7 70 20 97 21 103 12 163 -17 123 -77 206 -165 230 -45 12 -127 13 -165 2z m-16 -522 c36 -43 32 -72 -17 -126 -44 -49 -127 -10 -127 59 0 85 93 128 144 67z" transform="translate(679,-679) scale(1,1)" stroke="none" fill="#1F444E"/>
</g>
</g>
</g>

</g>
</svg>