<?xml version="1.0" standalone="no"?>
<!DOCTYPE svg PUBLIC "-//W3C//DTD SVG 20010904//EN"
 "http://www.w3.org/TR/2001/REC-SVG-20010904/DTD/svg10.dtd">
<svg version="1.0" xmlns="http://www.w3.org/2000/svg" width="508pt" height="520pt" viewBox="0 0 508 520" preserveAspectRatio = "xMidYMid meet" >
<metadata>
Created by ZoeQu, written in 2022
</metadata>
<rect width="508" height="520" fill="#DDDEE6"/>
<g id="row0" transform="translate(16,0.0)">
<g id="0" transform="translate(0.0,0)scale(1,1)">

<path d="M430 579 c-31 -64 -82 -123 -136 -156 -10 -6 -14 -12 -7 -12 26 -2 119 98 151 164 19 36 32 68 30 70 -2 2 -19 -27 -38 -66z" transform="translate(0,130) scale(0.1,-0.1)" stroke="none" fill="#B9CF64"/>

<path d="M781 89 c-13 -5 -32 -7 -42 -4 -12 4 -19 1 -19 -7 0 -10 -2 -10 -9 1 -6 9 -11 10 -15 2 -7 -11 -96 -9 -114 3 -6 3 -13 2 -16 -3 -6 -10 51 -21 109 -21 22 1 81 9 130 19 76 16 83 19 45 19 -25 1 -56 -4 -69 -9z" transform="translate(0,130) scale(0.1,-0.1)" stroke="none" fill="#B9CF64"/>

<path d="M282 240 c83 -82 178 -146 178 -120 0 6 -7 10 -15 10 -8 0 -15 5 -15 10 0 6 -5 10 -10 10 -18 0 -139 102 -146 122 -3 10 -9 18 -14 18 -5 0 -16 3 -24 6 -9 4 12 -22 46 -56z" transform="translate(0,130) scale(0.1,-0.1)" stroke="none" fill="#B9CF64"/>

<path d="M1200 1210 c8 -5 10 -10 4 -10 -20 0 -141 -180 -148 -222 -1 -7 -10 -28 -20 -46 -10 -19 -15 -36 -12 -40 8 -8 8 -9 65 106 28 57 69 126 91 154 38 48 43 68 17 68 -7 0 -6 -4 3 -10z" transform="translate(0,130) scale(0.1,-0.1)" stroke="none" fill="#B9CF64"/>

<path d="M1011 859 c-5 -13 -18 -45 -30 -72 -11 -26 -21 -51 -22 -55 -1 -4 -10 -13 -20 -20 -11 -7 -19 -18 -19 -24 0 -39 -285 -244 -322 -232 -11 3 -18 0 -18 -8 0 -7 -43 -31 -95 -52 -98 -41 -117 -59 -65 -63 30 -2 41 11 18 20 -7 3 1 10 17 16 34 14 83 36 211 97 50 24 94 44 97 44 24 0 177 145 177 167 0 5 5 14 11 20 14 14 80 176 74 182 -3 2 -9 -7 -14 -20z" transform="translate(0,130) scale(0.1,-0.1)" stroke="none" fill="#B9CF64"/>

<path d="M1065 1213 c-98 -10 -278 -61 -269 -75 3 -4 -2 -5 -11 -2 -40 16 -168 -118 -219 -229 -14 -32 -42 -106 -62 -165 -85 -252 -162 -337 -328 -363 -34 -5 -69 -12 -78 -15 -19 -6 -25 -34 -8 -34 5 0 9 -6 7 -12 -3 -17 40 -23 58 -8 18 15 113 -17 120 -41 6 -18 129 -119 145 -119 5 0 10 -4 10 -10 0 -5 7 -10 15 -10 8 0 15 -3 15 -8 0 -26 211 -62 237 -40 10 8 13 7 13 -3 0 -9 3 -10 8 -4 4 6 18 11 32 12 83 6 151 17 156 24 3 5 21 9 40 9 46 0 43 16 -5 24 -21 3 -102 35 -180 70 -98 45 -168 70 -229 82 -48 9 -95 23 -104 31 -9 8 -22 12 -27 8 -6 -3 -11 0 -11 8 0 7 40 30 95 53 52 21 95 45 95 52 0 8 7 11 18 8 37 -12 322 193 322 232 0 6 8 17 19 24 10 7 19 16 20 20 1 4 11 29 22 55 39 90 42 98 41 106 -1 4 5 22 15 40 9 18 18 38 19 45 7 42 128 222 148 222 6 0 5 4 -3 9 -13 8 -80 11 -136 4z" transform="translate(0,130) scale(0.1,-0.1)" stroke="none" fill="#A798B9"/>

</g>

<g id="1" transform="translate(127.0,0)scale(1,1)">

<path d="M430 579 c-31 -64 -82 -123 -136 -156 -10 -6 -14 -12 -7 -12 26 -2 119 98 151 164 19 36 32 68 30 70 -2 2 -19 -27 -38 -66z" transform="translate(0,130) scale(0.1,-0.1)" stroke="none" fill="#B9CF64"/>

<path d="M781 89 c-13 -5 -32 -7 -42 -4 -12 4 -19 1 -19 -7 0 -10 -2 -10 -9 1 -6 9 -11 10 -15 2 -7 -11 -96 -9 -114 3 -6 3 -13 2 -16 -3 -6 -10 51 -21 109 -21 22 1 81 9 130 19 76 16 83 19 45 19 -25 1 -56 -4 -69 -9z" transform="translate(0,130) scale(0.1,-0.1)" stroke="none" fill="#B9CF64"/>

<path d="M282 240 c83 -82 178 -146 178 -120 0 6 -7 10 -15 10 -8 0 -15 5 -15 10 0 6 -5 10 -10 10 -18 0 -139 102 -146 122 -3 10 -9 18 -14 18 -5 0 -16 3 -24 6 -9 4 12 -22 46 -56z" transform="translate(0,130) scale(0.1,-0.1)" stroke="none" fill="#B9CF64"/>

<path d="M1200 1210 c8 -5 10 -10 4 -10 -20 0 -141 -180 -148 -222 -1 -7 -10 -28 -20 -46 -10 -19 -15 -36 -12 -40 8 -8 8 -9 65 106 28 57 69 126 91 154 38 48 43 68 17 68 -7 0 -6 -4 3 -10z" transform="translate(0,130) scale(0.1,-0.1)" stroke="none" fill="#B9CF64"/>

<path d="M1011 859 c-5 -13 -18 -45 -30 -72 -11 -26 -21 -51 -22 -55 -1 -4 -10 -13 -20 -20 -11 -7 -19 -18 -19 -24 0 -39 -285 -244 -322 -232 -11 3 -18 0 -18 -8 0 -7 -43 -31 -95 -52 -98 -41 -117 -59 -65 -63 30 -2 41 11 18 20 -7 3 1 10 17 16 34 14 83 36 211 97 50 24 94 44 97 44 24 0 177 145 177 167 0 5 5 14 11 20 14 14 80 176 74 182 -3 2 -9 -7 -14 -20z" transform="translate(0,130) scale(0.1,-0.1)" stroke="none" fill="#B9CF64"/>

<path d="M1065 1213 c-98 -10 -278 -61 -269 -75 3 -4 -2 -5 -11 -2 -40 16 -168 -118 -219 -229 -14 -32 -42 -106 -62 -165 -85 -252 -162 -337 -328 -363 -34 -5 -69 -12 -78 -15 -19 -6 -25 -34 -8 -34 5 0 9 -6 7 -12 -3 -17 40 -23 58 -8 18 15 113 -17 120 -41 6 -18 129 -119 145 -119 5 0 10 -4 10 -10 0 -5 7 -10 15 -10 8 0 15 -3 15 -8 0 -26 211 -62 237 -40 10 8 13 7 13 -3 0 -9 3 -10 8 -4 4 6 18 11 32 12 83 6 151 17 156 24 3 5 21 9 40 9 46 0 43 16 -5 24 -21 3 -102 35 -180 70 -98 45 -168 70 -229 82 -48 9 -95 23 -104 31 -9 8 -22 12 -27 8 -6 -3 -11 0 -11 8 0 7 40 30 95 53 52 21 95 45 95 52 0 8 7 11 18 8 37 -12 322 193 322 232 0 6 8 17 19 24 10 7 19 16 20 20 1 4 11 29 22 55 39 90 42 98 41 106 -1 4 5 22 15 40 9 18 18 38 19 45 7 42 128 222 148 222 6 0 5 4 -3 9 -13 8 -80 11 -136 4z" transform="translate(0,130) scale(0.1,-0.1)" stroke="none" fill="#A798B9"/>

</g>

<g id="2" transform="translate(254.0,0)scale(1,1)">

<path d="M430 579 c-31 -64 -82 -123 -136 -156 -10 -6 -14 -12 -7 -12 26 -2 119 98 151 164 19 36 32 68 30 70 -2 2 -19 -27 -38 -66z" transform="translate(0,130) scale(0.1,-0.1)" stroke="none" fill="#B9CF64"/>

<path d="M781 89 c-13 -5 -32 -7 -42 -4 -12 4 -19 1 -19 -7 0 -10 -2 -10 -9 1 -6 9 -11 10 -15 2 -7 -11 -96 -9 -114 3 -6 3 -13 2 -16 -3 -6 -10 51 -21 109 -21 22 1 81 9 130 19 76 16 83 19 45 19 -25 1 -56 -4 -69 -9z" transform="translate(0,130) scale(0.1,-0.1)" stroke="none" fill="#B9CF64"/>

<path d="M282 240 c83 -82 178 -146 178 -120 0 6 -7 10 -15 10 -8 0 -15 5 -15 10 0 6 -5 10 -10 10 -18 0 -139 102 -146 122 -3 10 -9 18 -14 18 -5 0 -16 3 -24 6 -9 4 12 -22 46 -56z" transform="translate(0,130) scale(0.1,-0.1)" stroke="none" fill="#B9CF64"/>

<path d="M1200 1210 c8 -5 10 -10 4 -10 -20 0 -141 -180 -148 -222 -1 -7 -10 -28 -20 -46 -10 -19 -15 -36 -12 -40 8 -8 8 -9 65 106 28 57 69 126 91 154 38 48 43 68 17 68 -7 0 -6 -4 3 -10z" transform="translate(0,130) scale(0.1,-0.1)" stroke="none" fill="#B9CF64"/>

<path d="M1011 859 c-5 -13 -18 -45 -30 -72 -11 -26 -21 -51 -22 -55 -1 -4 -10 -13 -20 -20 -11 -7 -19 -18 -19 -24 0 -39 -285 -244 -322 -232 -11 3 -18 0 -18 -8 0 -7 -43 -31 -95 -52 -98 -41 -117 -59 -65 -63 30 -2 41 11 18 20 -7 3 1 10 17 16 34 14 83 36 211 97 50 24 94 44 97 44 24 0 177 145 177 167 0 5 5 14 11 20 14 14 80 176 74 182 -3 2 -9 -7 -14 -20z" transform="translate(0,130) scale(0.1,-0.1)" stroke="none" fill="#B9CF64"/>

<path d="M1065 1213 c-98 -10 -278 -61 -269 -75 3 -4 -2 -5 -11 -2 -40 16 -168 -118 -219 -229 -14 -32 -42 -106 -62 -165 -85 -252 -162 -337 -328 -363 -34 -5 -69 -12 -78 -15 -19 -6 -25 -34 -8 -34 5 0 9 -6 7 -12 -3 -17 40 -23 58 -8 18 15 113 -17 120 -41 6 -18 129 -119 145 -119 5 0 10 -4 10 -10 0 -5 7 -10 15 -10 8 0 15 -3 15 -8 0 -26 211 -62 237 -40 10 8 13 7 13 -3 0 -9 3 -10 8 -4 4 6 18 11 32 12 83 6 151 17 156 24 3 5 21 9 40 9 46 0 43 16 -5 24 -21 3 -102 35 -180 70 -98 45 -168 70 -229 82 -48 9 -95 23 -104 31 -9 8 -22 12 -27 8 -6 -3 -11 0 -11 8 0 7 40 30 95 53 52 21 95 45 95 52 0 8 7 11 18 8 37 -12 322 193 322 232 0 6 8 17 19 24 10 7 19 16 20 20 1 4 11 29 22 55 39 90 42 98 41 106 -1 4 5 22 15 40 9 18 18 38 19 45 7 42 128 222 148 222 6 0 5 4 -3 9 -13 8 -80 11 -136 4z" transform="translate(0,130) scale(0.1,-0.1)" stroke="none" fill="#A798B9"/>

</g>

<g id="3" transform="translate(381.0,0)scale(1,1)">

<path d="M430 579 c-31 -64 -82 -123 -136 -156 -10 -6 -14 -12 -7 -12 26 -2 119 98 151 164 19 36 32 68 30 70 -2 2 -19 -27 -38 -66z" transform="translate(0,130) scale(0.1,-0.1)" stroke="none" fill="#B9CF64"/>

<path d="M781 89 c-13 -5 -32 -7 -42 -4 -12 4 -19 1 -19 -7 0 -10 -2 -10 -9 1 -6 9 -11 10 -15 2 -7 -11 -96 -9 -114 3 -6 3 -13 2 -16 -3 -6 -10 51 -21 109 -21 22 1 81 9 130 19 76 16 83 19 45 19 -25 1 -56 -4 -69 -9z" transform="translate(0,130) scale(0.1,-0.1)" stroke="none" fill="#B9CF64"/>

<path d="M282 240 c83 -82 178 -146 178 -120 0 6 -7 10 -15 10 -8 0 -15 5 -15 10 0 6 -5 10 -10 10 -18 0 -139 102 -146 122 -3 10 -9 18 -14 18 -5 0 -16 3 -24 6 -9 4 12 -22 46 -56z" transform="translate(0,130) scale(0.1,-0.1)" stroke="none" fill="#B9CF64"/>

<path d="M1200 1210 c8 -5 10 -10 4 -10 -20 0 -141 -180 -148 -222 -1 -7 -10 -28 -20 -46 -10 -19 -15 -36 -12 -40 8 -8 8 -9 65 106 28 57 69 126 91 154 38 48 43 68 17 68 -7 0 -6 -4 3 -10z" transform="translate(0,130) scale(0.1,-0.1)" stroke="none" fill="#B9CF64"/>

<path d="M1011 859 c-5 -13 -18 -45 -30 -72 -11 -26 -21 -51 -22 -55 -1 -4 -10 -13 -20 -20 -11 -7 -19 -18 -19 -24 0 -39 -285 -244 -322 -232 -11 3 -18 0 -18 -8 0 -7 -43 -31 -95 -52 -98 -41 -117 -59 -65 -63 30 -2 41 11 18 20 -7 3 1 10 17 16 34 14 83 36 211 97 50 24 94 44 97 44 24 0 177 145 177 167 0 5 5 14 11 20 14 14 80 176 74 182 -3 2 -9 -7 -14 -20z" transform="translate(0,130) scale(0.1,-0.1)" stroke="none" fill="#B9CF64"/>

<path d="M1065 1213 c-98 -10 -278 -61 -269 -75 3 -4 -2 -5 -11 -2 -40 16 -168 -118 -219 -229 -14 -32 -42 -106 -62 -165 -85 -252 -162 -337 -328 -363 -34 -5 -69 -12 -78 -15 -19 -6 -25 -34 -8 -34 5 0 9 -6 7 -12 -3 -17 40 -23 58 -8 18 15 113 -17 120 -41 6 -18 129 -119 145 -119 5 0 10 -4 10 -10 0 -5 7 -10 15 -10 8 0 15 -3 15 -8 0 -26 211 -62 237 -40 10 8 13 7 13 -3 0 -9 3 -10 8 -4 4 6 18 11 32 12 83 6 151 17 156 24 3 5 21 9 40 9 46 0 43 16 -5 24 -21 3 -102 35 -180 70 -98 45 -168 70 -229 82 -48 9 -95 23 -104 31 -9 8 -22 12 -27 8 -6 -3 -11 0 -11 8 0 7 40 30 95 53 52 21 95 45 95 52 0 8 7 11 18 8 37 -12 322 193 322 232 0 6 8 17 19 24 10 7 19 16 20 20 1 4 11 29 22 55 39 90 42 98 41 106 -1 4 5 22 15 40 9 18 18 38 19 45 7 42 128 222 148 222 6 0 5 4 -3 9 -13 8 -80 11 -136 4z" transform="translate(0,130) scale(0.1,-0.1)" stroke="none" fill="#A798B9"/>

</g>

<g id="4" transform="translate(508.0,0)scale(1,1)">

<path d="M430 579 c-31 -64 -82 -123 -136 -156 -10 -6 -14 -12 -7 -12 26 -2 119 98 151 164 19 36 32 68 30 70 -2 2 -19 -27 -38 -66z" transform="translate(0,130) scale(0.1,-0.1)" stroke="none" fill="#B9CF64"/>

<path d="M781 89 c-13 -5 -32 -7 -42 -4 -12 4 -19 1 -19 -7 0 -10 -2 -10 -9 1 -6 9 -11 10 -15 2 -7 -11 -96 -9 -114 3 -6 3 -13 2 -16 -3 -6 -10 51 -21 109 -21 22 1 81 9 130 19 76 16 83 19 45 19 -25 1 -56 -4 -69 -9z" transform="translate(0,130) scale(0.1,-0.1)" stroke="none" fill="#B9CF64"/>

<path d="M282 240 c83 -82 178 -146 178 -120 0 6 -7 10 -15 10 -8 0 -15 5 -15 10 0 6 -5 10 -10 10 -18 0 -139 102 -146 122 -3 10 -9 18 -14 18 -5 0 -16 3 -24 6 -9 4 12 -22 46 -56z" transform="translate(0,130) scale(0.1,-0.1)" stroke="none" fill="#B9CF64"/>

<path d="M1200 1210 c8 -5 10 -10 4 -10 -20 0 -141 -180 -148 -222 -1 -7 -10 -28 -20 -46 -10 -19 -15 -36 -12 -40 8 -8 8 -9 65 106 28 57 69 126 91 154 38 48 43 68 17 68 -7 0 -6 -4 3 -10z" transform="translate(0,130) scale(0.1,-0.1)" stroke="none" fill="#B9CF64"/>

<path d="M1011 859 c-5 -13 -18 -45 -30 -72 -11 -26 -21 -51 -22 -55 -1 -4 -10 -13 -20 -20 -11 -7 -19 -18 -19 -24 0 -39 -285 -244 -322 -232 -11 3 -18 0 -18 -8 0 -7 -43 -31 -95 -52 -98 -41 -117 -59 -65 -63 30 -2 41 11 18 20 -7 3 1 10 17 16 34 14 83 36 211 97 50 24 94 44 97 44 24 0 177 145 177 167 0 5 5 14 11 20 14 14 80 176 74 182 -3 2 -9 -7 -14 -20z" transform="translate(0,130) scale(0.1,-0.1)" stroke="none" fill="#B9CF64"/>

<path d="M1065 1213 c-98 -10 -278 -61 -269 -75 3 -4 -2 -5 -11 -2 -40 16 -168 -118 -219 -229 -14 -32 -42 -106 -62 -165 -85 -252 -162 -337 -328 -363 -34 -5 -69 -12 -78 -15 -19 -6 -25 -34 -8 -34 5 0 9 -6 7 -12 -3 -17 40 -23 58 -8 18 15 113 -17 120 -41 6 -18 129 -119 145 -119 5 0 10 -4 10 -10 0 -5 7 -10 15 -10 8 0 15 -3 15 -8 0 -26 211 -62 237 -40 10 8 13 7 13 -3 0 -9 3 -10 8 -4 4 6 18 11 32 12 83 6 151 17 156 24 3 5 21 9 40 9 46 0 43 16 -5 24 -21 3 -102 35 -180 70 -98 45 -168 70 -229 82 -48 9 -95 23 -104 31 -9 8 -22 12 -27 8 -6 -3 -11 0 -11 8 0 7 40 30 95 53 52 21 95 45 95 52 0 8 7 11 18 8 37 -12 322 193 322 232 0 6 8 17 19 24 10 7 19 16 20 20 1 4 11 29 22 55 39 90 42 98 41 106 -1 4 5 22 15 40 9 18 18 38 19 45 7 42 128 222 148 222 6 0 5 4 -3 9 -13 8 -80 11 -136 4z" transform="translate(0,130) scale(0.1,-0.1)" stroke="none" fill="#A798B9"/>

</g>

</g>
<g id="row1" transform="translate(-47,130.0)">
<g id="0" transform="translate(0.0,0)scale(1,1)">

<path d="M430 579 c-31 -64 -82 -123 -136 -156 -10 -6 -14 -12 -7 -12 26 -2 119 98 151 164 19 36 32 68 30 70 -2 2 -19 -27 -38 -66z" transform="translate(0,130) scale(0.1,-0.1)" stroke="none" fill="#B9CF64"/>

<path d="M781 89 c-13 -5 -32 -7 -42 -4 -12 4 -19 1 -19 -7 0 -10 -2 -10 -9 1 -6 9 -11 10 -15 2 -7 -11 -96 -9 -114 3 -6 3 -13 2 -16 -3 -6 -10 51 -21 109 -21 22 1 81 9 130 19 76 16 83 19 45 19 -25 1 -56 -4 -69 -9z" transform="translate(0,130) scale(0.1,-0.1)" stroke="none" fill="#B9CF64"/>

<path d="M282 240 c83 -82 178 -146 178 -120 0 6 -7 10 -15 10 -8 0 -15 5 -15 10 0 6 -5 10 -10 10 -18 0 -139 102 -146 122 -3 10 -9 18 -14 18 -5 0 -16 3 -24 6 -9 4 12 -22 46 -56z" transform="translate(0,130) scale(0.1,-0.1)" stroke="none" fill="#B9CF64"/>

<path d="M1200 1210 c8 -5 10 -10 4 -10 -20 0 -141 -180 -148 -222 -1 -7 -10 -28 -20 -46 -10 -19 -15 -36 -12 -40 8 -8 8 -9 65 106 28 57 69 126 91 154 38 48 43 68 17 68 -7 0 -6 -4 3 -10z" transform="translate(0,130) scale(0.1,-0.1)" stroke="none" fill="#B9CF64"/>

<path d="M1011 859 c-5 -13 -18 -45 -30 -72 -11 -26 -21 -51 -22 -55 -1 -4 -10 -13 -20 -20 -11 -7 -19 -18 -19 -24 0 -39 -285 -244 -322 -232 -11 3 -18 0 -18 -8 0 -7 -43 -31 -95 -52 -98 -41 -117 -59 -65 -63 30 -2 41 11 18 20 -7 3 1 10 17 16 34 14 83 36 211 97 50 24 94 44 97 44 24 0 177 145 177 167 0 5 5 14 11 20 14 14 80 176 74 182 -3 2 -9 -7 -14 -20z" transform="translate(0,130) scale(0.1,-0.1)" stroke="none" fill="#B9CF64"/>

<path d="M1065 1213 c-98 -10 -278 -61 -269 -75 3 -4 -2 -5 -11 -2 -40 16 -168 -118 -219 -229 -14 -32 -42 -106 -62 -165 -85 -252 -162 -337 -328 -363 -34 -5 -69 -12 -78 -15 -19 -6 -25 -34 -8 -34 5 0 9 -6 7 -12 -3 -17 40 -23 58 -8 18 15 113 -17 120 -41 6 -18 129 -119 145 -119 5 0 10 -4 10 -10 0 -5 7 -10 15 -10 8 0 15 -3 15 -8 0 -26 211 -62 237 -40 10 8 13 7 13 -3 0 -9 3 -10 8 -4 4 6 18 11 32 12 83 6 151 17 156 24 3 5 21 9 40 9 46 0 43 16 -5 24 -21 3 -102 35 -180 70 -98 45 -168 70 -229 82 -48 9 -95 23 -104 31 -9 8 -22 12 -27 8 -6 -3 -11 0 -11 8 0 7 40 30 95 53 52 21 95 45 95 52 0 8 7 11 18 8 37 -12 322 193 322 232 0 6 8 17 19 24 10 7 19 16 20 20 1 4 11 29 22 55 39 90 42 98 41 106 -1 4 5 22 15 40 9 18 18 38 19 45 7 42 128 222 148 222 6 0 5 4 -3 9 -13 8 -80 11 -136 4z" transform="translate(0,130) scale(0.1,-0.1)" stroke="none" fill="#A798B9"/>

</g>

<g id="1" transform="translate(127.0,0)scale(1,1)">

<path d="M430 579 c-31 -64 -82 -123 -136 -156 -10 -6 -14 -12 -7 -12 26 -2 119 98 151 164 19 36 32 68 30 70 -2 2 -19 -27 -38 -66z" transform="translate(0,130) scale(0.1,-0.1)" stroke="none" fill="#B9CF64"/>

<path d="M781 89 c-13 -5 -32 -7 -42 -4 -12 4 -19 1 -19 -7 0 -10 -2 -10 -9 1 -6 9 -11 10 -15 2 -7 -11 -96 -9 -114 3 -6 3 -13 2 -16 -3 -6 -10 51 -21 109 -21 22 1 81 9 130 19 76 16 83 19 45 19 -25 1 -56 -4 -69 -9z" transform="translate(0,130) scale(0.1,-0.1)" stroke="none" fill="#B9CF64"/>

<path d="M282 240 c83 -82 178 -146 178 -120 0 6 -7 10 -15 10 -8 0 -15 5 -15 10 0 6 -5 10 -10 10 -18 0 -139 102 -146 122 -3 10 -9 18 -14 18 -5 0 -16 3 -24 6 -9 4 12 -22 46 -56z" transform="translate(0,130) scale(0.1,-0.1)" stroke="none" fill="#B9CF64"/>

<path d="M1200 1210 c8 -5 10 -10 4 -10 -20 0 -141 -180 -148 -222 -1 -7 -10 -28 -20 -46 -10 -19 -15 -36 -12 -40 8 -8 8 -9 65 106 28 57 69 126 91 154 38 48 43 68 17 68 -7 0 -6 -4 3 -10z" transform="translate(0,130) scale(0.1,-0.1)" stroke="none" fill="#B9CF64"/>

<path d="M1011 859 c-5 -13 -18 -45 -30 -72 -11 -26 -21 -51 -22 -55 -1 -4 -10 -13 -20 -20 -11 -7 -19 -18 -19 -24 0 -39 -285 -244 -322 -232 -11 3 -18 0 -18 -8 0 -7 -43 -31 -95 -52 -98 -41 -117 -59 -65 -63 30 -2 41 11 18 20 -7 3 1 10 17 16 34 14 83 36 211 97 50 24 94 44 97 44 24 0 177 145 177 167 0 5 5 14 11 20 14 14 80 176 74 182 -3 2 -9 -7 -14 -20z" transform="translate(0,130) scale(0.1,-0.1)" stroke="none" fill="#B9CF64"/>

<path d="M1065 1213 c-98 -10 -278 -61 -269 -75 3 -4 -2 -5 -11 -2 -40 16 -168 -118 -219 -229 -14 -32 -42 -106 -62 -165 -85 -252 -162 -337 -328 -363 -34 -5 -69 -12 -78 -15 -19 -6 -25 -34 -8 -34 5 0 9 -6 7 -12 -3 -17 40 -23 58 -8 18 15 113 -17 120 -41 6 -18 129 -119 145 -119 5 0 10 -4 10 -10 0 -5 7 -10 15 -10 8 0 15 -3 15 -8 0 -26 211 -62 237 -40 10 8 13 7 13 -3 0 -9 3 -10 8 -4 4 6 18 11 32 12 83 6 151 17 156 24 3 5 21 9 40 9 46 0 43 16 -5 24 -21 3 -102 35 -180 70 -98 45 -168 70 -229 82 -48 9 -95 23 -104 31 -9 8 -22 12 -27 8 -6 -3 -11 0 -11 8 0 7 40 30 95 53 52 21 95 45 95 52 0 8 7 11 18 8 37 -12 322 193 322 232 0 6 8 17 19 24 10 7 19 16 20 20 1 4 11 29 22 55 39 90 42 98 41 106 -1 4 5 22 15 40 9 18 18 38 19 45 7 42 128 222 148 222 6 0 5 4 -3 9 -13 8 -80 11 -136 4z" transform="translate(0,130) scale(0.1,-0.1)" stroke="none" fill="#A798B9"/>

</g>

<g id="2" transform="translate(254.0,0)scale(1,1)">

<path d="M430 579 c-31 -64 -82 -123 -136 -156 -10 -6 -14 -12 -7 -12 26 -2 119 98 151 164 19 36 32 68 30 70 -2 2 -19 -27 -38 -66z" transform="translate(0,130) scale(0.1,-0.1)" stroke="none" fill="#B9CF64"/>

<path d="M781 89 c-13 -5 -32 -7 -42 -4 -12 4 -19 1 -19 -7 0 -10 -2 -10 -9 1 -6 9 -11 10 -15 2 -7 -11 -96 -9 -114 3 -6 3 -13 2 -16 -3 -6 -10 51 -21 109 -21 22 1 81 9 130 19 76 16 83 19 45 19 -25 1 -56 -4 -69 -9z" transform="translate(0,130) scale(0.1,-0.1)" stroke="none" fill="#B9CF64"/>

<path d="M282 240 c83 -82 178 -146 178 -120 0 6 -7 10 -15 10 -8 0 -15 5 -15 10 0 6 -5 10 -10 10 -18 0 -139 102 -146 122 -3 10 -9 18 -14 18 -5 0 -16 3 -24 6 -9 4 12 -22 46 -56z" transform="translate(0,130) scale(0.1,-0.1)" stroke="none" fill="#B9CF64"/>

<path d="M1200 1210 c8 -5 10 -10 4 -10 -20 0 -141 -180 -148 -222 -1 -7 -10 -28 -20 -46 -10 -19 -15 -36 -12 -40 8 -8 8 -9 65 106 28 57 69 126 91 154 38 48 43 68 17 68 -7 0 -6 -4 3 -10z" transform="translate(0,130) scale(0.1,-0.1)" stroke="none" fill="#B9CF64"/>

<path d="M1011 859 c-5 -13 -18 -45 -30 -72 -11 -26 -21 -51 -22 -55 -1 -4 -10 -13 -20 -20 -11 -7 -19 -18 -19 -24 0 -39 -285 -244 -322 -232 -11 3 -18 0 -18 -8 0 -7 -43 -31 -95 -52 -98 -41 -117 -59 -65 -63 30 -2 41 11 18 20 -7 3 1 10 17 16 34 14 83 36 211 97 50 24 94 44 97 44 24 0 177 145 177 167 0 5 5 14 11 20 14 14 80 176 74 182 -3 2 -9 -7 -14 -20z" transform="translate(0,130) scale(0.1,-0.1)" stroke="none" fill="#B9CF64"/>

<path d="M1065 1213 c-98 -10 -278 -61 -269 -75 3 -4 -2 -5 -11 -2 -40 16 -168 -118 -219 -229 -14 -32 -42 -106 -62 -165 -85 -252 -162 -337 -328 -363 -34 -5 -69 -12 -78 -15 -19 -6 -25 -34 -8 -34 5 0 9 -6 7 -12 -3 -17 40 -23 58 -8 18 15 113 -17 120 -41 6 -18 129 -119 145 -119 5 0 10 -4 10 -10 0 -5 7 -10 15 -10 8 0 15 -3 15 -8 0 -26 211 -62 237 -40 10 8 13 7 13 -3 0 -9 3 -10 8 -4 4 6 18 11 32 12 83 6 151 17 156 24 3 5 21 9 40 9 46 0 43 16 -5 24 -21 3 -102 35 -180 70 -98 45 -168 70 -229 82 -48 9 -95 23 -104 31 -9 8 -22 12 -27 8 -6 -3 -11 0 -11 8 0 7 40 30 95 53 52 21 95 45 95 52 0 8 7 11 18 8 37 -12 322 193 322 232 0 6 8 17 19 24 10 7 19 16 20 20 1 4 11 29 22 55 39 90 42 98 41 106 -1 4 5 22 15 40 9 18 18 38 19 45 7 42 128 222 148 222 6 0 5 4 -3 9 -13 8 -80 11 -136 4z" transform="translate(0,130) scale(0.1,-0.1)" stroke="none" fill="#A798B9"/>

</g>

<g id="3" transform="translate(381.0,0)scale(1,1)">

<path d="M430 579 c-31 -64 -82 -123 -136 -156 -10 -6 -14 -12 -7 -12 26 -2 119 98 151 164 19 36 32 68 30 70 -2 2 -19 -27 -38 -66z" transform="translate(0,130) scale(0.1,-0.1)" stroke="none" fill="#B9CF64"/>

<path d="M781 89 c-13 -5 -32 -7 -42 -4 -12 4 -19 1 -19 -7 0 -10 -2 -10 -9 1 -6 9 -11 10 -15 2 -7 -11 -96 -9 -114 3 -6 3 -13 2 -16 -3 -6 -10 51 -21 109 -21 22 1 81 9 130 19 76 16 83 19 45 19 -25 1 -56 -4 -69 -9z" transform="translate(0,130) scale(0.1,-0.1)" stroke="none" fill="#B9CF64"/>

<path d="M282 240 c83 -82 178 -146 178 -120 0 6 -7 10 -15 10 -8 0 -15 5 -15 10 0 6 -5 10 -10 10 -18 0 -139 102 -146 122 -3 10 -9 18 -14 18 -5 0 -16 3 -24 6 -9 4 12 -22 46 -56z" transform="translate(0,130) scale(0.1,-0.1)" stroke="none" fill="#B9CF64"/>

<path d="M1200 1210 c8 -5 10 -10 4 -10 -20 0 -141 -180 -148 -222 -1 -7 -10 -28 -20 -46 -10 -19 -15 -36 -12 -40 8 -8 8 -9 65 106 28 57 69 126 91 154 38 48 43 68 17 68 -7 0 -6 -4 3 -10z" transform="translate(0,130) scale(0.1,-0.1)" stroke="none" fill="#B9CF64"/>

<path d="M1011 859 c-5 -13 -18 -45 -30 -72 -11 -26 -21 -51 -22 -55 -1 -4 -10 -13 -20 -20 -11 -7 -19 -18 -19 -24 0 -39 -285 -244 -322 -232 -11 3 -18 0 -18 -8 0 -7 -43 -31 -95 -52 -98 -41 -117 -59 -65 -63 30 -2 41 11 18 20 -7 3 1 10 17 16 34 14 83 36 211 97 50 24 94 44 97 44 24 0 177 145 177 167 0 5 5 14 11 20 14 14 80 176 74 182 -3 2 -9 -7 -14 -20z" transform="translate(0,130) scale(0.1,-0.1)" stroke="none" fill="#B9CF64"/>

<path d="M1065 1213 c-98 -10 -278 -61 -269 -75 3 -4 -2 -5 -11 -2 -40 16 -168 -118 -219 -229 -14 -32 -42 -106 -62 -165 -85 -252 -162 -337 -328 -363 -34 -5 -69 -12 -78 -15 -19 -6 -25 -34 -8 -34 5 0 9 -6 7 -12 -3 -17 40 -23 58 -8 18 15 113 -17 120 -41 6 -18 129 -119 145 -119 5 0 10 -4 10 -10 0 -5 7 -10 15 -10 8 0 15 -3 15 -8 0 -26 211 -62 237 -40 10 8 13 7 13 -3 0 -9 3 -10 8 -4 4 6 18 11 32 12 83 6 151 17 156 24 3 5 21 9 40 9 46 0 43 16 -5 24 -21 3 -102 35 -180 70 -98 45 -168 70 -229 82 -48 9 -95 23 -104 31 -9 8 -22 12 -27 8 -6 -3 -11 0 -11 8 0 7 40 30 95 53 52 21 95 45 95 52 0 8 7 11 18 8 37 -12 322 193 322 232 0 6 8 17 19 24 10 7 19 16 20 20 1 4 11 29 22 55 39 90 42 98 41 106 -1 4 5 22 15 40 9 18 18 38 19 45 7 42 128 222 148 222 6 0 5 4 -3 9 -13 8 -80 11 -136 4z" transform="translate(0,130) scale(0.1,-0.1)" stroke="none" fill="#A798B9"/>

</g>

<g id="4" transform="translate(508.0,0)scale(1,1)">

<path d="M430 579 c-31 -64 -82 -123 -136 -156 -10 -6 -14 -12 -7 -12 26 -2 119 98 151 164 19 36 32 68 30 70 -2 2 -19 -27 -38 -66z" transform="translate(0,130) scale(0.1,-0.1)" stroke="none" fill="#B9CF64"/>

<path d="M781 89 c-13 -5 -32 -7 -42 -4 -12 4 -19 1 -19 -7 0 -10 -2 -10 -9 1 -6 9 -11 10 -15 2 -7 -11 -96 -9 -114 3 -6 3 -13 2 -16 -3 -6 -10 51 -21 109 -21 22 1 81 9 130 19 76 16 83 19 45 19 -25 1 -56 -4 -69 -9z" transform="translate(0,130) scale(0.1,-0.1)" stroke="none" fill="#B9CF64"/>

<path d="M282 240 c83 -82 178 -146 178 -120 0 6 -7 10 -15 10 -8 0 -15 5 -15 10 0 6 -5 10 -10 10 -18 0 -139 102 -146 122 -3 10 -9 18 -14 18 -5 0 -16 3 -24 6 -9 4 12 -22 46 -56z" transform="translate(0,130) scale(0.1,-0.1)" stroke="none" fill="#B9CF64"/>

<path d="M1200 1210 c8 -5 10 -10 4 -10 -20 0 -141 -180 -148 -222 -1 -7 -10 -28 -20 -46 -10 -19 -15 -36 -12 -40 8 -8 8 -9 65 106 28 57 69 126 91 154 38 48 43 68 17 68 -7 0 -6 -4 3 -10z" transform="translate(0,130) scale(0.1,-0.1)" stroke="none" fill="#B9CF64"/>

<path d="M1011 859 c-5 -13 -18 -45 -30 -72 -11 -26 -21 -51 -22 -55 -1 -4 -10 -13 -20 -20 -11 -7 -19 -18 -19 -24 0 -39 -285 -244 -322 -232 -11 3 -18 0 -18 -8 0 -7 -43 -31 -95 -52 -98 -41 -117 -59 -65 -63 30 -2 41 11 18 20 -7 3 1 10 17 16 34 14 83 36 211 97 50 24 94 44 97 44 24 0 177 145 177 167 0 5 5 14 11 20 14 14 80 176 74 182 -3 2 -9 -7 -14 -20z" transform="translate(0,130) scale(0.1,-0.1)" stroke="none" fill="#B9CF64"/>

<path d="M1065 1213 c-98 -10 -278 -61 -269 -75 3 -4 -2 -5 -11 -2 -40 16 -168 -118 -219 -229 -14 -32 -42 -106 -62 -165 -85 -252 -162 -337 -328 -363 -34 -5 -69 -12 -78 -15 -19 -6 -25 -34 -8 -34 5 0 9 -6 7 -12 -3 -17 40 -23 58 -8 18 15 113 -17 120 -41 6 -18 129 -119 145 -119 5 0 10 -4 10 -10 0 -5 7 -10 15 -10 8 0 15 -3 15 -8 0 -26 211 -62 237 -40 10 8 13 7 13 -3 0 -9 3 -10 8 -4 4 6 18 11 32 12 83 6 151 17 156 24 3 5 21 9 40 9 46 0 43 16 -5 24 -21 3 -102 35 -180 70 -98 45 -168 70 -229 82 -48 9 -95 23 -104 31 -9 8 -22 12 -27 8 -6 -3 -11 0 -11 8 0 7 40 30 95 53 52 21 95 45 95 52 0 8 7 11 18 8 37 -12 322 193 322 232 0 6 8 17 19 24 10 7 19 16 20 20 1 4 11 29 22 55 39 90 42 98 41 106 -1 4 5 22 15 40 9 18 18 38 19 45 7 42 128 222 148 222 6 0 5 4 -3 9 -13 8 -80 11 -136 4z" transform="translate(0,130) scale(0.1,-0.1)" stroke="none" fill="#A798B9"/>

</g>

</g>
<g id="row2" transform="translate(16,260.0)">
<g id="0" transform="translate(0.0,0)scale(1,1)">

<path d="M430 579 c-31 -64 -82 -123 -136 -156 -10 -6 -14 -12 -7 -12 26 -2 119 98 151 164 19 36 32 68 30 70 -2 2 -19 -27 -38 -66z" transform="translate(0,130) scale(0.1,-0.1)" stroke="none" fill="#B9CF64"/>

<path d="M781 89 c-13 -5 -32 -7 -42 -4 -12 4 -19 1 -19 -7 0 -10 -2 -10 -9 1 -6 9 -11 10 -15 2 -7 -11 -96 -9 -114 3 -6 3 -13 2 -16 -3 -6 -10 51 -21 109 -21 22 1 81 9 130 19 76 16 83 19 45 19 -25 1 -56 -4 -69 -9z" transform="translate(0,130) scale(0.1,-0.1)" stroke="none" fill="#B9CF64"/>

<path d="M282 240 c83 -82 178 -146 178 -120 0 6 -7 10 -15 10 -8 0 -15 5 -15 10 0 6 -5 10 -10 10 -18 0 -139 102 -146 122 -3 10 -9 18 -14 18 -5 0 -16 3 -24 6 -9 4 12 -22 46 -56z" transform="translate(0,130) scale(0.1,-0.1)" stroke="none" fill="#B9CF64"/>

<path d="M1200 1210 c8 -5 10 -10 4 -10 -20 0 -141 -180 -148 -222 -1 -7 -10 -28 -20 -46 -10 -19 -15 -36 -12 -40 8 -8 8 -9 65 106 28 57 69 126 91 154 38 48 43 68 17 68 -7 0 -6 -4 3 -10z" transform="translate(0,130) scale(0.1,-0.1)" stroke="none" fill="#B9CF64"/>

<path d="M1011 859 c-5 -13 -18 -45 -30 -72 -11 -26 -21 -51 -22 -55 -1 -4 -10 -13 -20 -20 -11 -7 -19 -18 -19 -24 0 -39 -285 -244 -322 -232 -11 3 -18 0 -18 -8 0 -7 -43 -31 -95 -52 -98 -41 -117 -59 -65 -63 30 -2 41 11 18 20 -7 3 1 10 17 16 34 14 83 36 211 97 50 24 94 44 97 44 24 0 177 145 177 167 0 5 5 14 11 20 14 14 80 176 74 182 -3 2 -9 -7 -14 -20z" transform="translate(0,130) scale(0.1,-0.1)" stroke="none" fill="#B9CF64"/>

<path d="M1065 1213 c-98 -10 -278 -61 -269 -75 3 -4 -2 -5 -11 -2 -40 16 -168 -118 -219 -229 -14 -32 -42 -106 -62 -165 -85 -252 -162 -337 -328 -363 -34 -5 -69 -12 -78 -15 -19 -6 -25 -34 -8 -34 5 0 9 -6 7 -12 -3 -17 40 -23 58 -8 18 15 113 -17 120 -41 6 -18 129 -119 145 -119 5 0 10 -4 10 -10 0 -5 7 -10 15 -10 8 0 15 -3 15 -8 0 -26 211 -62 237 -40 10 8 13 7 13 -3 0 -9 3 -10 8 -4 4 6 18 11 32 12 83 6 151 17 156 24 3 5 21 9 40 9 46 0 43 16 -5 24 -21 3 -102 35 -180 70 -98 45 -168 70 -229 82 -48 9 -95 23 -104 31 -9 8 -22 12 -27 8 -6 -3 -11 0 -11 8 0 7 40 30 95 53 52 21 95 45 95 52 0 8 7 11 18 8 37 -12 322 193 322 232 0 6 8 17 19 24 10 7 19 16 20 20 1 4 11 29 22 55 39 90 42 98 41 106 -1 4 5 22 15 40 9 18 18 38 19 45 7 42 128 222 148 222 6 0 5 4 -3 9 -13 8 -80 11 -136 4z" transform="translate(0,130) scale(0.1,-0.1)" stroke="none" fill="#A798B9"/>

</g>

<g id="1" transform="translate(127.0,0)scale(1,1)">

<path d="M430 579 c-31 -64 -82 -123 -136 -156 -10 -6 -14 -12 -7 -12 26 -2 119 98 151 164 19 36 32 68 30 70 -2 2 -19 -27 -38 -66z" transform="translate(0,130) scale(0.1,-0.1)" stroke="none" fill="#B9CF64"/>

<path d="M781 89 c-13 -5 -32 -7 -42 -4 -12 4 -19 1 -19 -7 0 -10 -2 -10 -9 1 -6 9 -11 10 -15 2 -7 -11 -96 -9 -114 3 -6 3 -13 2 -16 -3 -6 -10 51 -21 109 -21 22 1 81 9 130 19 76 16 83 19 45 19 -25 1 -56 -4 -69 -9z" transform="translate(0,130) scale(0.1,-0.1)" stroke="none" fill="#B9CF64"/>

<path d="M282 240 c83 -82 178 -146 178 -120 0 6 -7 10 -15 10 -8 0 -15 5 -15 10 0 6 -5 10 -10 10 -18 0 -139 102 -146 122 -3 10 -9 18 -14 18 -5 0 -16 3 -24 6 -9 4 12 -22 46 -56z" transform="translate(0,130) scale(0.1,-0.1)" stroke="none" fill="#B9CF64"/>

<path d="M1200 1210 c8 -5 10 -10 4 -10 -20 0 -141 -180 -148 -222 -1 -7 -10 -28 -20 -46 -10 -19 -15 -36 -12 -40 8 -8 8 -9 65 106 28 57 69 126 91 154 38 48 43 68 17 68 -7 0 -6 -4 3 -10z" transform="translate(0,130) scale(0.1,-0.1)" stroke="none" fill="#B9CF64"/>

<path d="M1011 859 c-5 -13 -18 -45 -30 -72 -11 -26 -21 -51 -22 -55 -1 -4 -10 -13 -20 -20 -11 -7 -19 -18 -19 -24 0 -39 -285 -244 -322 -232 -11 3 -18 0 -18 -8 0 -7 -43 -31 -95 -52 -98 -41 -117 -59 -65 -63 30 -2 41 11 18 20 -7 3 1 10 17 16 34 14 83 36 211 97 50 24 94 44 97 44 24 0 177 145 177 167 0 5 5 14 11 20 14 14 80 176 74 182 -3 2 -9 -7 -14 -20z" transform="translate(0,130) scale(0.1,-0.1)" stroke="none" fill="#B9CF64"/>

<path d="M1065 1213 c-98 -10 -278 -61 -269 -75 3 -4 -2 -5 -11 -2 -40 16 -168 -118 -219 -229 -14 -32 -42 -106 -62 -165 -85 -252 -162 -337 -328 -363 -34 -5 -69 -12 -78 -15 -19 -6 -25 -34 -8 -34 5 0 9 -6 7 -12 -3 -17 40 -23 58 -8 18 15 113 -17 120 -41 6 -18 129 -119 145 -119 5 0 10 -4 10 -10 0 -5 7 -10 15 -10 8 0 15 -3 15 -8 0 -26 211 -62 237 -40 10 8 13 7 13 -3 0 -9 3 -10 8 -4 4 6 18 11 32 12 83 6 151 17 156 24 3 5 21 9 40 9 46 0 43 16 -5 24 -21 3 -102 35 -180 70 -98 45 -168 70 -229 82 -48 9 -95 23 -104 31 -9 8 -22 12 -27 8 -6 -3 -11 0 -11 8 0 7 40 30 95 53 52 21 95 45 95 52 0 8 7 11 18 8 37 -12 322 193 322 232 0 6 8 17 19 24 10 7 19 16 20 20 1 4 11 29 22 55 39 90 42 98 41 106 -1 4 5 22 15 40 9 18 18 38 19 45 7 42 128 222 148 222 6 0 5 4 -3 9 -13 8 -80 11 -136 4z" transform="translate(0,130) scale(0.1,-0.1)" stroke="none" fill="#A798B9"/>

</g>

<g id="2" transform="translate(254.0,0)scale(1,1)">

<path d="M430 579 c-31 -64 -82 -123 -136 -156 -10 -6 -14 -12 -7 -12 26 -2 119 98 151 164 19 36 32 68 30 70 -2 2 -19 -27 -38 -66z" transform="translate(0,130) scale(0.1,-0.1)" stroke="none" fill="#B9CF64"/>

<path d="M781 89 c-13 -5 -32 -7 -42 -4 -12 4 -19 1 -19 -7 0 -10 -2 -10 -9 1 -6 9 -11 10 -15 2 -7 -11 -96 -9 -114 3 -6 3 -13 2 -16 -3 -6 -10 51 -21 109 -21 22 1 81 9 130 19 76 16 83 19 45 19 -25 1 -56 -4 -69 -9z" transform="translate(0,130) scale(0.1,-0.1)" stroke="none" fill="#B9CF64"/>

<path d="M282 240 c83 -82 178 -146 178 -120 0 6 -7 10 -15 10 -8 0 -15 5 -15 10 0 6 -5 10 -10 10 -18 0 -139 102 -146 122 -3 10 -9 18 -14 18 -5 0 -16 3 -24 6 -9 4 12 -22 46 -56z" transform="translate(0,130) scale(0.1,-0.1)" stroke="none" fill="#B9CF64"/>

<path d="M1200 1210 c8 -5 10 -10 4 -10 -20 0 -141 -180 -148 -222 -1 -7 -10 -28 -20 -46 -10 -19 -15 -36 -12 -40 8 -8 8 -9 65 106 28 57 69 126 91 154 38 48 43 68 17 68 -7 0 -6 -4 3 -10z" transform="translate(0,130) scale(0.1,-0.1)" stroke="none" fill="#B9CF64"/>

<path d="M1011 859 c-5 -13 -18 -45 -30 -72 -11 -26 -21 -51 -22 -55 -1 -4 -10 -13 -20 -20 -11 -7 -19 -18 -19 -24 0 -39 -285 -244 -322 -232 -11 3 -18 0 -18 -8 0 -7 -43 -31 -95 -52 -98 -41 -117 -59 -65 -63 30 -2 41 11 18 20 -7 3 1 10 17 16 34 14 83 36 211 97 50 24 94 44 97 44 24 0 177 145 177 167 0 5 5 14 11 20 14 14 80 176 74 182 -3 2 -9 -7 -14 -20z" transform="translate(0,130) scale(0.1,-0.1)" stroke="none" fill="#B9CF64"/>

<path d="M1065 1213 c-98 -10 -278 -61 -269 -75 3 -4 -2 -5 -11 -2 -40 16 -168 -118 -219 -229 -14 -32 -42 -106 -62 -165 -85 -252 -162 -337 -328 -363 -34 -5 -69 -12 -78 -15 -19 -6 -25 -34 -8 -34 5 0 9 -6 7 -12 -3 -17 40 -23 58 -8 18 15 113 -17 120 -41 6 -18 129 -119 145 -119 5 0 10 -4 10 -10 0 -5 7 -10 15 -10 8 0 15 -3 15 -8 0 -26 211 -62 237 -40 10 8 13 7 13 -3 0 -9 3 -10 8 -4 4 6 18 11 32 12 83 6 151 17 156 24 3 5 21 9 40 9 46 0 43 16 -5 24 -21 3 -102 35 -180 70 -98 45 -168 70 -229 82 -48 9 -95 23 -104 31 -9 8 -22 12 -27 8 -6 -3 -11 0 -11 8 0 7 40 30 95 53 52 21 95 45 95 52 0 8 7 11 18 8 37 -12 322 193 322 232 0 6 8 17 19 24 10 7 19 16 20 20 1 4 11 29 22 55 39 90 42 98 41 106 -1 4 5 22 15 40 9 18 18 38 19 45 7 42 128 222 148 222 6 0 5 4 -3 9 -13 8 -80 11 -136 4z" transform="translate(0,130) scale(0.1,-0.1)" stroke="none" fill="#A798B9"/>

</g>

<g id="3" transform="translate(381.0,0)scale(1,1)">

<path d="M430 579 c-31 -64 -82 -123 -136 -156 -10 -6 -14 -12 -7 -12 26 -2 119 98 151 164 19 36 32 68 30 70 -2 2 -19 -27 -38 -66z" transform="translate(0,130) scale(0.1,-0.1)" stroke="none" fill="#B9CF64"/>

<path d="M781 89 c-13 -5 -32 -7 -42 -4 -12 4 -19 1 -19 -7 0 -10 -2 -10 -9 1 -6 9 -11 10 -15 2 -7 -11 -96 -9 -114 3 -6 3 -13 2 -16 -3 -6 -10 51 -21 109 -21 22 1 81 9 130 19 76 16 83 19 45 19 -25 1 -56 -4 -69 -9z" transform="translate(0,130) scale(0.1,-0.1)" stroke="none" fill="#B9CF64"/>

<path d="M282 240 c83 -82 178 -146 178 -120 0 6 -7 10 -15 10 -8 0 -15 5 -15 10 0 6 -5 10 -10 10 -18 0 -139 102 -146 122 -3 10 -9 18 -14 18 -5 0 -16 3 -24 6 -9 4 12 -22 46 -56z" transform="translate(0,130) scale(0.1,-0.1)" stroke="none" fill="#B9CF64"/>

<path d="M1200 1210 c8 -5 10 -10 4 -10 -20 0 -141 -180 -148 -222 -1 -7 -10 -28 -20 -46 -10 -19 -15 -36 -12 -40 8 -8 8 -9 65 106 28 57 69 126 91 154 38 48 43 68 17 68 -7 0 -6 -4 3 -10z" transform="translate(0,130) scale(0.1,-0.1)" stroke="none" fill="#B9CF64"/>

<path d="M1011 859 c-5 -13 -18 -45 -30 -72 -11 -26 -21 -51 -22 -55 -1 -4 -10 -13 -20 -20 -11 -7 -19 -18 -19 -24 0 -39 -285 -244 -322 -232 -11 3 -18 0 -18 -8 0 -7 -43 -31 -95 -52 -98 -41 -117 -59 -65 -63 30 -2 41 11 18 20 -7 3 1 10 17 16 34 14 83 36 211 97 50 24 94 44 97 44 24 0 177 145 177 167 0 5 5 14 11 20 14 14 80 176 74 182 -3 2 -9 -7 -14 -20z" transform="translate(0,130) scale(0.1,-0.1)" stroke="none" fill="#B9CF64"/>

<path d="M1065 1213 c-98 -10 -278 -61 -269 -75 3 -4 -2 -5 -11 -2 -40 16 -168 -118 -219 -229 -14 -32 -42 -106 -62 -165 -85 -252 -162 -337 -328 -363 -34 -5 -69 -12 -78 -15 -19 -6 -25 -34 -8 -34 5 0 9 -6 7 -12 -3 -17 40 -23 58 -8 18 15 113 -17 120 -41 6 -18 129 -119 145 -119 5 0 10 -4 10 -10 0 -5 7 -10 15 -10 8 0 15 -3 15 -8 0 -26 211 -62 237 -40 10 8 13 7 13 -3 0 -9 3 -10 8 -4 4 6 18 11 32 12 83 6 151 17 156 24 3 5 21 9 40 9 46 0 43 16 -5 24 -21 3 -102 35 -180 70 -98 45 -168 70 -229 82 -48 9 -95 23 -104 31 -9 8 -22 12 -27 8 -6 -3 -11 0 -11 8 0 7 40 30 95 53 52 21 95 45 95 52 0 8 7 11 18 8 37 -12 322 193 322 232 0 6 8 17 19 24 10 7 19 16 20 20 1 4 11 29 22 55 39 90 42 98 41 106 -1 4 5 22 15 40 9 18 18 38 19 45 7 42 128 222 148 222 6 0 5 4 -3 9 -13 8 -80 11 -136 4z" transform="translate(0,130) scale(0.1,-0.1)" stroke="none" fill="#A798B9"/>

</g>

<g id="4" transform="translate(508.0,0)scale(1,1)">

<path d="M430 579 c-31 -64 -82 -123 -136 -156 -10 -6 -14 -12 -7 -12 26 -2 119 98 151 164 19 36 32 68 30 70 -2 2 -19 -27 -38 -66z" transform="translate(0,130) scale(0.1,-0.1)" stroke="none" fill="#B9CF64"/>

<path d="M781 89 c-13 -5 -32 -7 -42 -4 -12 4 -19 1 -19 -7 0 -10 -2 -10 -9 1 -6 9 -11 10 -15 2 -7 -11 -96 -9 -114 3 -6 3 -13 2 -16 -3 -6 -10 51 -21 109 -21 22 1 81 9 130 19 76 16 83 19 45 19 -25 1 -56 -4 -69 -9z" transform="translate(0,130) scale(0.1,-0.1)" stroke="none" fill="#B9CF64"/>

<path d="M282 240 c83 -82 178 -146 178 -120 0 6 -7 10 -15 10 -8 0 -15 5 -15 10 0 6 -5 10 -10 10 -18 0 -139 102 -146 122 -3 10 -9 18 -14 18 -5 0 -16 3 -24 6 -9 4 12 -22 46 -56z" transform="translate(0,130) scale(0.1,-0.1)" stroke="none" fill="#B9CF64"/>

<path d="M1200 1210 c8 -5 10 -10 4 -10 -20 0 -141 -180 -148 -222 -1 -7 -10 -28 -20 -46 -10 -19 -15 -36 -12 -40 8 -8 8 -9 65 106 28 57 69 126 91 154 38 48 43 68 17 68 -7 0 -6 -4 3 -10z" transform="translate(0,130) scale(0.1,-0.1)" stroke="none" fill="#B9CF64"/>

<path d="M1011 859 c-5 -13 -18 -45 -30 -72 -11 -26 -21 -51 -22 -55 -1 -4 -10 -13 -20 -20 -11 -7 -19 -18 -19 -24 0 -39 -285 -244 -322 -232 -11 3 -18 0 -18 -8 0 -7 -43 -31 -95 -52 -98 -41 -117 -59 -65 -63 30 -2 41 11 18 20 -7 3 1 10 17 16 34 14 83 36 211 97 50 24 94 44 97 44 24 0 177 145 177 167 0 5 5 14 11 20 14 14 80 176 74 182 -3 2 -9 -7 -14 -20z" transform="translate(0,130) scale(0.1,-0.1)" stroke="none" fill="#B9CF64"/>

<path d="M1065 1213 c-98 -10 -278 -61 -269 -75 3 -4 -2 -5 -11 -2 -40 16 -168 -118 -219 -229 -14 -32 -42 -106 -62 -165 -85 -252 -162 -337 -328 -363 -34 -5 -69 -12 -78 -15 -19 -6 -25 -34 -8 -34 5 0 9 -6 7 -12 -3 -17 40 -23 58 -8 18 15 113 -17 120 -41 6 -18 129 -119 145 -119 5 0 10 -4 10 -10 0 -5 7 -10 15 -10 8 0 15 -3 15 -8 0 -26 211 -62 237 -40 10 8 13 7 13 -3 0 -9 3 -10 8 -4 4 6 18 11 32 12 83 6 151 17 156 24 3 5 21 9 40 9 46 0 43 16 -5 24 -21 3 -102 35 -180 70 -98 45 -168 70 -229 82 -48 9 -95 23 -104 31 -9 8 -22 12 -27 8 -6 -3 -11 0 -11 8 0 7 40 30 95 53 52 21 95 45 95 52 0 8 7 11 18 8 37 -12 322 193 322 232 0 6 8 17 19 24 10 7 19 16 20 20 1 4 11 29 22 55 39 90 42 98 41 106 -1 4 5 22 15 40 9 18 18 38 19 45 7 42 128 222 148 222 6 0 5 4 -3 9 -13 8 -80 11 -136 4z" transform="translate(0,130) scale(0.1,-0.1)" stroke="none" fill="#A798B9"/>

</g>

</g>
<g id="row3" transform="translate(-47,390.0)">
<g id="0" transform="translate(0.0,0)scale(1,1)">

<path d="M430 579 c-31 -64 -82 -123 -136 -156 -10 -6 -14 -12 -7 -12 26 -2 119 98 151 164 19 36 32 68 30 70 -2 2 -19 -27 -38 -66z" transform="translate(0,130) scale(0.1,-0.1)" stroke="none" fill="#B9CF64"/>

<path d="M781 89 c-13 -5 -32 -7 -42 -4 -12 4 -19 1 -19 -7 0 -10 -2 -10 -9 1 -6 9 -11 10 -15 2 -7 -11 -96 -9 -114 3 -6 3 -13 2 -16 -3 -6 -10 51 -21 109 -21 22 1 81 9 130 19 76 16 83 19 45 19 -25 1 -56 -4 -69 -9z" transform="translate(0,130) scale(0.1,-0.1)" stroke="none" fill="#B9CF64"/>

<path d="M282 240 c83 -82 178 -146 178 -120 0 6 -7 10 -15 10 -8 0 -15 5 -15 10 0 6 -5 10 -10 10 -18 0 -139 102 -146 122 -3 10 -9 18 -14 18 -5 0 -16 3 -24 6 -9 4 12 -22 46 -56z" transform="translate(0,130) scale(0.1,-0.1)" stroke="none" fill="#B9CF64"/>

<path d="M1200 1210 c8 -5 10 -10 4 -10 -20 0 -141 -180 -148 -222 -1 -7 -10 -28 -20 -46 -10 -19 -15 -36 -12 -40 8 -8 8 -9 65 106 28 57 69 126 91 154 38 48 43 68 17 68 -7 0 -6 -4 3 -10z" transform="translate(0,130) scale(0.1,-0.1)" stroke="none" fill="#B9CF64"/>

<path d="M1011 859 c-5 -13 -18 -45 -30 -72 -11 -26 -21 -51 -22 -55 -1 -4 -10 -13 -20 -20 -11 -7 -19 -18 -19 -24 0 -39 -285 -244 -322 -232 -11 3 -18 0 -18 -8 0 -7 -43 -31 -95 -52 -98 -41 -117 -59 -65 -63 30 -2 41 11 18 20 -7 3 1 10 17 16 34 14 83 36 211 97 50 24 94 44 97 44 24 0 177 145 177 167 0 5 5 14 11 20 14 14 80 176 74 182 -3 2 -9 -7 -14 -20z" transform="translate(0,130) scale(0.1,-0.1)" stroke="none" fill="#B9CF64"/>

<path d="M1065 1213 c-98 -10 -278 -61 -269 -75 3 -4 -2 -5 -11 -2 -40 16 -168 -118 -219 -229 -14 -32 -42 -106 -62 -165 -85 -252 -162 -337 -328 -363 -34 -5 -69 -12 -78 -15 -19 -6 -25 -34 -8 -34 5 0 9 -6 7 -12 -3 -17 40 -23 58 -8 18 15 113 -17 120 -41 6 -18 129 -119 145 -119 5 0 10 -4 10 -10 0 -5 7 -10 15 -10 8 0 15 -3 15 -8 0 -26 211 -62 237 -40 10 8 13 7 13 -3 0 -9 3 -10 8 -4 4 6 18 11 32 12 83 6 151 17 156 24 3 5 21 9 40 9 46 0 43 16 -5 24 -21 3 -102 35 -180 70 -98 45 -168 70 -229 82 -48 9 -95 23 -104 31 -9 8 -22 12 -27 8 -6 -3 -11 0 -11 8 0 7 40 30 95 53 52 21 95 45 95 52 0 8 7 11 18 8 37 -12 322 193 322 232 0 6 8 17 19 24 10 7 19 16 20 20 1 4 11 29 22 55 39 90 42 98 41 106 -1 4 5 22 15 40 9 18 18 38 19 45 7 42 128 222 148 222 6 0 5 4 -3 9 -13 8 -80 11 -136 4z" transform="translate(0,130) scale(0.1,-0.1)" stroke="none" fill="#A798B9"/>

</g>

<g id="1" transform="translate(127.0,0)scale(1,1)">

<path d="M430 579 c-31 -64 -82 -123 -136 -156 -10 -6 -14 -12 -7 -12 26 -2 119 98 151 164 19 36 32 68 30 70 -2 2 -19 -27 -38 -66z" transform="translate(0,130) scale(0.1,-0.1)" stroke="none" fill="#B9CF64"/>

<path d="M781 89 c-13 -5 -32 -7 -42 -4 -12 4 -19 1 -19 -7 0 -10 -2 -10 -9 1 -6 9 -11 10 -15 2 -7 -11 -96 -9 -114 3 -6 3 -13 2 -16 -3 -6 -10 51 -21 109 -21 22 1 81 9 130 19 76 16 83 19 45 19 -25 1 -56 -4 -69 -9z" transform="translate(0,130) scale(0.1,-0.1)" stroke="none" fill="#B9CF64"/>

<path d="M282 240 c83 -82 178 -146 178 -120 0 6 -7 10 -15 10 -8 0 -15 5 -15 10 0 6 -5 10 -10 10 -18 0 -139 102 -146 122 -3 10 -9 18 -14 18 -5 0 -16 3 -24 6 -9 4 12 -22 46 -56z" transform="translate(0,130) scale(0.1,-0.1)" stroke="none" fill="#B9CF64"/>

<path d="M1200 1210 c8 -5 10 -10 4 -10 -20 0 -141 -180 -148 -222 -1 -7 -10 -28 -20 -46 -10 -19 -15 -36 -12 -40 8 -8 8 -9 65 106 28 57 69 126 91 154 38 48 43 68 17 68 -7 0 -6 -4 3 -10z" transform="translate(0,130) scale(0.1,-0.1)" stroke="none" fill="#B9CF64"/>

<path d="M1011 859 c-5 -13 -18 -45 -30 -72 -11 -26 -21 -51 -22 -55 -1 -4 -10 -13 -20 -20 -11 -7 -19 -18 -19 -24 0 -39 -285 -244 -322 -232 -11 3 -18 0 -18 -8 0 -7 -43 -31 -95 -52 -98 -41 -117 -59 -65 -63 30 -2 41 11 18 20 -7 3 1 10 17 16 34 14 83 36 211 97 50 24 94 44 97 44 24 0 177 145 177 167 0 5 5 14 11 20 14 14 80 176 74 182 -3 2 -9 -7 -14 -20z" transform="translate(0,130) scale(0.1,-0.1)" stroke="none" fill="#B9CF64"/>

<path d="M1065 1213 c-98 -10 -278 -61 -269 -75 3 -4 -2 -5 -11 -2 -40 16 -168 -118 -219 -229 -14 -32 -42 -106 -62 -165 -85 -252 -162 -337 -328 -363 -34 -5 -69 -12 -78 -15 -19 -6 -25 -34 -8 -34 5 0 9 -6 7 -12 -3 -17 40 -23 58 -8 18 15 113 -17 120 -41 6 -18 129 -119 145 -119 5 0 10 -4 10 -10 0 -5 7 -10 15 -10 8 0 15 -3 15 -8 0 -26 211 -62 237 -40 10 8 13 7 13 -3 0 -9 3 -10 8 -4 4 6 18 11 32 12 83 6 151 17 156 24 3 5 21 9 40 9 46 0 43 16 -5 24 -21 3 -102 35 -180 70 -98 45 -168 70 -229 82 -48 9 -95 23 -104 31 -9 8 -22 12 -27 8 -6 -3 -11 0 -11 8 0 7 40 30 95 53 52 21 95 45 95 52 0 8 7 11 18 8 37 -12 322 193 322 232 0 6 8 17 19 24 10 7 19 16 20 20 1 4 11 29 22 55 39 90 42 98 41 106 -1 4 5 22 15 40 9 18 18 38 19 45 7 42 128 222 148 222 6 0 5 4 -3 9 -13 8 -80 11 -136 4z" transform="translate(0,130) scale(0.1,-0.1)" stroke="none" fill="#A798B9"/>

</g>

<g id="2" transform="translate(254.0,0)scale(1,1)">

<path d="M430 579 c-31 -64 -82 -123 -136 -156 -10 -6 -14 -12 -7 -12 26 -2 119 98 151 164 19 36 32 68 30 70 -2 2 -19 -27 -38 -66z" transform="translate(0,130) scale(0.1,-0.1)" stroke="none" fill="#B9CF64"/>

<path d="M781 89 c-13 -5 -32 -7 -42 -4 -12 4 -19 1 -19 -7 0 -10 -2 -10 -9 1 -6 9 -11 10 -15 2 -7 -11 -96 -9 -114 3 -6 3 -13 2 -16 -3 -6 -10 51 -21 109 -21 22 1 81 9 130 19 76 16 83 19 45 19 -25 1 -56 -4 -69 -9z" transform="translate(0,130) scale(0.1,-0.1)" stroke="none" fill="#B9CF64"/>

<path d="M282 240 c83 -82 178 -146 178 -120 0 6 -7 10 -15 10 -8 0 -15 5 -15 10 0 6 -5 10 -10 10 -18 0 -139 102 -146 122 -3 10 -9 18 -14 18 -5 0 -16 3 -24 6 -9 4 12 -22 46 -56z" transform="translate(0,130) scale(0.1,-0.1)" stroke="none" fill="#B9CF64"/>

<path d="M1200 1210 c8 -5 10 -10 4 -10 -20 0 -141 -180 -148 -222 -1 -7 -10 -28 -20 -46 -10 -19 -15 -36 -12 -40 8 -8 8 -9 65 106 28 57 69 126 91 154 38 48 43 68 17 68 -7 0 -6 -4 3 -10z" transform="translate(0,130) scale(0.1,-0.1)" stroke="none" fill="#B9CF64"/>

<path d="M1011 859 c-5 -13 -18 -45 -30 -72 -11 -26 -21 -51 -22 -55 -1 -4 -10 -13 -20 -20 -11 -7 -19 -18 -19 -24 0 -39 -285 -244 -322 -232 -11 3 -18 0 -18 -8 0 -7 -43 -31 -95 -52 -98 -41 -117 -59 -65 -63 30 -2 41 11 18 20 -7 3 1 10 17 16 34 14 83 36 211 97 50 24 94 44 97 44 24 0 177 145 177 167 0 5 5 14 11 20 14 14 80 176 74 182 -3 2 -9 -7 -14 -20z" transform="translate(0,130) scale(0.1,-0.1)" stroke="none" fill="#B9CF64"/>

<path d="M1065 1213 c-98 -10 -278 -61 -269 -75 3 -4 -2 -5 -11 -2 -40 16 -168 -118 -219 -229 -14 -32 -42 -106 -62 -165 -85 -252 -162 -337 -328 -363 -34 -5 -69 -12 -78 -15 -19 -6 -25 -34 -8 -34 5 0 9 -6 7 -12 -3 -17 40 -23 58 -8 18 15 113 -17 120 -41 6 -18 129 -119 145 -119 5 0 10 -4 10 -10 0 -5 7 -10 15 -10 8 0 15 -3 15 -8 0 -26 211 -62 237 -40 10 8 13 7 13 -3 0 -9 3 -10 8 -4 4 6 18 11 32 12 83 6 151 17 156 24 3 5 21 9 40 9 46 0 43 16 -5 24 -21 3 -102 35 -180 70 -98 45 -168 70 -229 82 -48 9 -95 23 -104 31 -9 8 -22 12 -27 8 -6 -3 -11 0 -11 8 0 7 40 30 95 53 52 21 95 45 95 52 0 8 7 11 18 8 37 -12 322 193 322 232 0 6 8 17 19 24 10 7 19 16 20 20 1 4 11 29 22 55 39 90 42 98 41 106 -1 4 5 22 15 40 9 18 18 38 19 45 7 42 128 222 148 222 6 0 5 4 -3 9 -13 8 -80 11 -136 4z" transform="translate(0,130) scale(0.1,-0.1)" stroke="none" fill="#A798B9"/>

</g>

<g id="3" transform="translate(381.0,0)scale(1,1)">

<path d="M430 579 c-31 -64 -82 -123 -136 -156 -10 -6 -14 -12 -7 -12 26 -2 119 98 151 164 19 36 32 68 30 70 -2 2 -19 -27 -38 -66z" transform="translate(0,130) scale(0.1,-0.1)" stroke="none" fill="#B9CF64"/>

<path d="M781 89 c-13 -5 -32 -7 -42 -4 -12 4 -19 1 -19 -7 0 -10 -2 -10 -9 1 -6 9 -11 10 -15 2 -7 -11 -96 -9 -114 3 -6 3 -13 2 -16 -3 -6 -10 51 -21 109 -21 22 1 81 9 130 19 76 16 83 19 45 19 -25 1 -56 -4 -69 -9z" transform="translate(0,130) scale(0.1,-0.1)" stroke="none" fill="#B9CF64"/>

<path d="M282 240 c83 -82 178 -146 178 -120 0 6 -7 10 -15 10 -8 0 -15 5 -15 10 0 6 -5 10 -10 10 -18 0 -139 102 -146 122 -3 10 -9 18 -14 18 -5 0 -16 3 -24 6 -9 4 12 -22 46 -56z" transform="translate(0,130) scale(0.1,-0.1)" stroke="none" fill="#B9CF64"/>

<path d="M1200 1210 c8 -5 10 -10 4 -10 -20 0 -141 -180 -148 -222 -1 -7 -10 -28 -20 -46 -10 -19 -15 -36 -12 -40 8 -8 8 -9 65 106 28 57 69 126 91 154 38 48 43 68 17 68 -7 0 -6 -4 3 -10z" transform="translate(0,130) scale(0.1,-0.1)" stroke="none" fill="#B9CF64"/>

<path d="M1011 859 c-5 -13 -18 -45 -30 -72 -11 -26 -21 -51 -22 -55 -1 -4 -10 -13 -20 -20 -11 -7 -19 -18 -19 -24 0 -39 -285 -244 -322 -232 -11 3 -18 0 -18 -8 0 -7 -43 -31 -95 -52 -98 -41 -117 -59 -65 -63 30 -2 41 11 18 20 -7 3 1 10 17 16 34 14 83 36 211 97 50 24 94 44 97 44 24 0 177 145 177 167 0 5 5 14 11 20 14 14 80 176 74 182 -3 2 -9 -7 -14 -20z" transform="translate(0,130) scale(0.1,-0.1)" stroke="none" fill="#B9CF64"/>

<path d="M1065 1213 c-98 -10 -278 -61 -269 -75 3 -4 -2 -5 -11 -2 -40 16 -168 -118 -219 -229 -14 -32 -42 -106 -62 -165 -85 -252 -162 -337 -328 -363 -34 -5 -69 -12 -78 -15 -19 -6 -25 -34 -8 -34 5 0 9 -6 7 -12 -3 -17 40 -23 58 -8 18 15 113 -17 120 -41 6 -18 129 -119 145 -119 5 0 10 -4 10 -10 0 -5 7 -10 15 -10 8 0 15 -3 15 -8 0 -26 211 -62 237 -40 10 8 13 7 13 -3 0 -9 3 -10 8 -4 4 6 18 11 32 12 83 6 151 17 156 24 3 5 21 9 40 9 46 0 43 16 -5 24 -21 3 -102 35 -180 70 -98 45 -168 70 -229 82 -48 9 -95 23 -104 31 -9 8 -22 12 -27 8 -6 -3 -11 0 -11 8 0 7 40 30 95 53 52 21 95 45 95 52 0 8 7 11 18 8 37 -12 322 193 322 232 0 6 8 17 19 24 10 7 19 16 20 20 1 4 11 29 22 55 39 90 42 98 41 106 -1 4 5 22 15 40 9 18 18 38 19 45 7 42 128 222 148 222 6 0 5 4 -3 9 -13 8 -80 11 -136 4z" transform="translate(0,130) scale(0.1,-0.1)" stroke="none" fill="#A798B9"/>

</g>

<g id="4" transform="translate(508.0,0)scale(1,1)">

<path d="M430 579 c-31 -64 -82 -123 -136 -156 -10 -6 -14 -12 -7 -12 26 -2 119 98 151 164 19 36 32 68 30 70 -2 2 -19 -27 -38 -66z" transform="translate(0,130) scale(0.1,-0.1)" stroke="none" fill="#B9CF64"/>

<path d="M781 89 c-13 -5 -32 -7 -42 -4 -12 4 -19 1 -19 -7 0 -10 -2 -10 -9 1 -6 9 -11 10 -15 2 -7 -11 -96 -9 -114 3 -6 3 -13 2 -16 -3 -6 -10 51 -21 109 -21 22 1 81 9 130 19 76 16 83 19 45 19 -25 1 -56 -4 -69 -9z" transform="translate(0,130) scale(0.1,-0.1)" stroke="none" fill="#B9CF64"/>

<path d="M282 240 c83 -82 178 -146 178 -120 0 6 -7 10 -15 10 -8 0 -15 5 -15 10 0 6 -5 10 -10 10 -18 0 -139 102 -146 122 -3 10 -9 18 -14 18 -5 0 -16 3 -24 6 -9 4 12 -22 46 -56z" transform="translate(0,130) scale(0.1,-0.1)" stroke="none" fill="#B9CF64"/>

<path d="M1200 1210 c8 -5 10 -10 4 -10 -20 0 -141 -180 -148 -222 -1 -7 -10 -28 -20 -46 -10 -19 -15 -36 -12 -40 8 -8 8 -9 65 106 28 57 69 126 91 154 38 48 43 68 17 68 -7 0 -6 -4 3 -10z" transform="translate(0,130) scale(0.1,-0.1)" stroke="none" fill="#B9CF64"/>

<path d="M1011 859 c-5 -13 -18 -45 -30 -72 -11 -26 -21 -51 -22 -55 -1 -4 -10 -13 -20 -20 -11 -7 -19 -18 -19 -24 0 -39 -285 -244 -322 -232 -11 3 -18 0 -18 -8 0 -7 -43 -31 -95 -52 -98 -41 -117 -59 -65 -63 30 -2 41 11 18 20 -7 3 1 10 17 16 34 14 83 36 211 97 50 24 94 44 97 44 24 0 177 145 177 167 0 5 5 14 11 20 14 14 80 176 74 182 -3 2 -9 -7 -14 -20z" transform="translate(0,130) scale(0.1,-0.1)" stroke="none" fill="#B9CF64"/>

<path d="M1065 1213 c-98 -10 -278 -61 -269 -75 3 -4 -2 -5 -11 -2 -40 16 -168 -118 -219 -229 -14 -32 -42 -106 -62 -165 -85 -252 -162 -337 -328 -363 -34 -5 -69 -12 -78 -15 -19 -6 -25 -34 -8 -34 5 0 9 -6 7 -12 -3 -17 40 -23 58 -8 18 15 113 -17 120 -41 6 -18 129 -119 145 -119 5 0 10 -4 10 -10 0 -5 7 -10 15 -10 8 0 15 -3 15 -8 0 -26 211 -62 237 -40 10 8 13 7 13 -3 0 -9 3 -10 8 -4 4 6 18 11 32 12 83 6 151 17 156 24 3 5 21 9 40 9 46 0 43 16 -5 24 -21 3 -102 35 -180 70 -98 45 -168 70 -229 82 -48 9 -95 23 -104 31 -9 8 -22 12 -27 8 -6 -3 -11 0 -11 8 0 7 40 30 95 53 52 21 95 45 95 52 0 8 7 11 18 8 37 -12 322 193 322 232 0 6 8 17 19 24 10 7 19 16 20 20 1 4 11 29 22 55 39 90 42 98 41 106 -1 4 5 22 15 40 9 18 18 38 19 45 7 42 128 222 148 222 6 0 5 4 -3 9 -13 8 -80 11 -136 4z" transform="translate(0,130) scale(0.1,-0.1)" stroke="none" fill="#A798B9"/>

</g>

</g>
</svg>