<?xml version="1.0" standalone="no"?>
<!DOCTYPE svg PUBLIC "-//W3C//DTD SVG 20010904//EN"
 "http://www.w3.org/TR/2001/REC-SVG-20010904/DTD/svg10.dtd">
<svg version="1.0" xmlns="http://www.w3.org/2000/svg" width="280pt" height="272pt" viewBox="0 0 280 272" preserveAspectRatio = "xMidYMid meet" >
<metadata>
Created by ZoeQu, written in 2022
</metadata>
<rect width="280" height="272" fill="#202031"/>
<g id="row0" transform="translate(9,0.0)">
<g id="0" transform="translate(0.0,0)scale(1,1)">

<path d="M290 442 c-30 -3 -67 -59 -50 -76 5 -5 10 -17 10 -25 0 -9 11 -29 25 -45 21 -24 33 -29 80 -32 48 -3 58 0 80 22 14 14 25 30 26 37 4 40 -5 74 -22 89 -10 9 -19 21 -19 28 0 10 -52 11 -130 2z" transform="translate(0,68) scale(0.1,-0.1)" stroke="none" fill="#D29A5B"/>

<path d="M346 634 c-15 -15 -32 -40 -38 -55 -11 -31 -28 -39 -28 -14 0 31 -42 75 -72 75 -18 0 -28 -5 -28 -15 0 -11 -8 -13 -30 -8 -27 5 -30 3 -30 -20 0 -19 -6 -26 -22 -29 -18 -2 -23 -10 -23 -30 0 -17 -9 -34 -22 -43 -13 -9 -23 -22 -23 -29 0 -17 33 -46 51 -46 9 0 24 -7 35 -15 18 -13 18 -14 -11 -20 -16 -4 -40 -15 -53 -25 -20 -16 -22 -25 -16 -57 3 -21 12 -45 19 -53 6 -8 15 -23 18 -32 4 -10 16 -18 29 -18 17 0 19 -3 10 -12 -16 -16 -15 -28 3 -28 8 0 19 -9 25 -20 6 -11 17 -20 26 -20 22 0 86 35 108 59 29 31 39 26 33 -17 -4 -20 -4 -54 0 -75 5 -32 9 -37 32 -37 15 0 33 -6 39 -12 10 -10 17 -10 33 0 16 10 24 10 35 1 11 -9 18 -8 32 5 10 9 28 16 39 16 11 0 28 11 36 24 9 13 24 23 34 22 26 -2 28 38 4 78 -12 18 -21 36 -21 39 0 4 20 4 43 1 l44 -6 -1 90 c-2 88 -3 92 -33 121 -18 16 -36 39 -42 50 -7 13 -17 17 -31 14 -15 -4 -20 0 -20 15 0 25 -23 44 -47 40 -12 -2 -19 4 -21 19 -5 34 -29 50 -54 34 -17 -11 -22 -10 -29 1 -11 17 -11 26 1 33 12 7 13 25 2 25 -4 0 -20 -12 -36 -26z m102 -197 c16 -17 25 -40 29 -79 5 -54 5 -56 -29 -81 -76 -59 -164 -40 -205 43 -28 56 -28 75 -3 110 24 34 45 40 125 34 45 -3 65 -10 83 -27z" transform="translate(0,68) scale(0.1,-0.1)" stroke="none" fill="#903F12"/>

</g>

<g id="1" transform="translate(70.0,0)scale(1,1)">

<path d="M290 442 c-30 -3 -67 -59 -50 -76 5 -5 10 -17 10 -25 0 -9 11 -29 25 -45 21 -24 33 -29 80 -32 48 -3 58 0 80 22 14 14 25 30 26 37 4 40 -5 74 -22 89 -10 9 -19 21 -19 28 0 10 -52 11 -130 2z" transform="translate(0,68) scale(0.1,-0.1)" stroke="none" fill="#D29A5B"/>

<path d="M346 634 c-15 -15 -32 -40 -38 -55 -11 -31 -28 -39 -28 -14 0 31 -42 75 -72 75 -18 0 -28 -5 -28 -15 0 -11 -8 -13 -30 -8 -27 5 -30 3 -30 -20 0 -19 -6 -26 -22 -29 -18 -2 -23 -10 -23 -30 0 -17 -9 -34 -22 -43 -13 -9 -23 -22 -23 -29 0 -17 33 -46 51 -46 9 0 24 -7 35 -15 18 -13 18 -14 -11 -20 -16 -4 -40 -15 -53 -25 -20 -16 -22 -25 -16 -57 3 -21 12 -45 19 -53 6 -8 15 -23 18 -32 4 -10 16 -18 29 -18 17 0 19 -3 10 -12 -16 -16 -15 -28 3 -28 8 0 19 -9 25 -20 6 -11 17 -20 26 -20 22 0 86 35 108 59 29 31 39 26 33 -17 -4 -20 -4 -54 0 -75 5 -32 9 -37 32 -37 15 0 33 -6 39 -12 10 -10 17 -10 33 0 16 10 24 10 35 1 11 -9 18 -8 32 5 10 9 28 16 39 16 11 0 28 11 36 24 9 13 24 23 34 22 26 -2 28 38 4 78 -12 18 -21 36 -21 39 0 4 20 4 43 1 l44 -6 -1 90 c-2 88 -3 92 -33 121 -18 16 -36 39 -42 50 -7 13 -17 17 -31 14 -15 -4 -20 0 -20 15 0 25 -23 44 -47 40 -12 -2 -19 4 -21 19 -5 34 -29 50 -54 34 -17 -11 -22 -10 -29 1 -11 17 -11 26 1 33 12 7 13 25 2 25 -4 0 -20 -12 -36 -26z m102 -197 c16 -17 25 -40 29 -79 5 -54 5 -56 -29 -81 -76 -59 -164 -40 -205 43 -28 56 -28 75 -3 110 24 34 45 40 125 34 45 -3 65 -10 83 -27z" transform="translate(0,68) scale(0.1,-0.1)" stroke="none" fill="#903F12"/>

</g>

<g id="2" transform="translate(140.0,0)scale(1,1)">

<path d="M290 442 c-30 -3 -67 -59 -50 -76 5 -5 10 -17 10 -25 0 -9 11 -29 25 -45 21 -24 33 -29 80 -32 48 -3 58 0 80 22 14 14 25 30 26 37 4 40 -5 74 -22 89 -10 9 -19 21 -19 28 0 10 -52 11 -130 2z" transform="translate(0,68) scale(0.1,-0.1)" stroke="none" fill="#D29A5B"/>

<path d="M346 634 c-15 -15 -32 -40 -38 -55 -11 -31 -28 -39 -28 -14 0 31 -42 75 -72 75 -18 0 -28 -5 -28 -15 0 -11 -8 -13 -30 -8 -27 5 -30 3 -30 -20 0 -19 -6 -26 -22 -29 -18 -2 -23 -10 -23 -30 0 -17 -9 -34 -22 -43 -13 -9 -23 -22 -23 -29 0 -17 33 -46 51 -46 9 0 24 -7 35 -15 18 -13 18 -14 -11 -20 -16 -4 -40 -15 -53 -25 -20 -16 -22 -25 -16 -57 3 -21 12 -45 19 -53 6 -8 15 -23 18 -32 4 -10 16 -18 29 -18 17 0 19 -3 10 -12 -16 -16 -15 -28 3 -28 8 0 19 -9 25 -20 6 -11 17 -20 26 -20 22 0 86 35 108 59 29 31 39 26 33 -17 -4 -20 -4 -54 0 -75 5 -32 9 -37 32 -37 15 0 33 -6 39 -12 10 -10 17 -10 33 0 16 10 24 10 35 1 11 -9 18 -8 32 5 10 9 28 16 39 16 11 0 28 11 36 24 9 13 24 23 34 22 26 -2 28 38 4 78 -12 18 -21 36 -21 39 0 4 20 4 43 1 l44 -6 -1 90 c-2 88 -3 92 -33 121 -18 16 -36 39 -42 50 -7 13 -17 17 -31 14 -15 -4 -20 0 -20 15 0 25 -23 44 -47 40 -12 -2 -19 4 -21 19 -5 34 -29 50 -54 34 -17 -11 -22 -10 -29 1 -11 17 -11 26 1 33 12 7 13 25 2 25 -4 0 -20 -12 -36 -26z m102 -197 c16 -17 25 -40 29 -79 5 -54 5 -56 -29 -81 -76 -59 -164 -40 -205 43 -28 56 -28 75 -3 110 24 34 45 40 125 34 45 -3 65 -10 83 -27z" transform="translate(0,68) scale(0.1,-0.1)" stroke="none" fill="#903F12"/>

</g>

<g id="3" transform="translate(210.0,0)scale(1,1)">

<path d="M290 442 c-30 -3 -67 -59 -50 -76 5 -5 10 -17 10 -25 0 -9 11 -29 25 -45 21 -24 33 -29 80 -32 48 -3 58 0 80 22 14 14 25 30 26 37 4 40 -5 74 -22 89 -10 9 -19 21 -19 28 0 10 -52 11 -130 2z" transform="translate(0,68) scale(0.1,-0.1)" stroke="none" fill="#D29A5B"/>

<path d="M346 634 c-15 -15 -32 -40 -38 -55 -11 -31 -28 -39 -28 -14 0 31 -42 75 -72 75 -18 0 -28 -5 -28 -15 0 -11 -8 -13 -30 -8 -27 5 -30 3 -30 -20 0 -19 -6 -26 -22 -29 -18 -2 -23 -10 -23 -30 0 -17 -9 -34 -22 -43 -13 -9 -23 -22 -23 -29 0 -17 33 -46 51 -46 9 0 24 -7 35 -15 18 -13 18 -14 -11 -20 -16 -4 -40 -15 -53 -25 -20 -16 -22 -25 -16 -57 3 -21 12 -45 19 -53 6 -8 15 -23 18 -32 4 -10 16 -18 29 -18 17 0 19 -3 10 -12 -16 -16 -15 -28 3 -28 8 0 19 -9 25 -20 6 -11 17 -20 26 -20 22 0 86 35 108 59 29 31 39 26 33 -17 -4 -20 -4 -54 0 -75 5 -32 9 -37 32 -37 15 0 33 -6 39 -12 10 -10 17 -10 33 0 16 10 24 10 35 1 11 -9 18 -8 32 5 10 9 28 16 39 16 11 0 28 11 36 24 9 13 24 23 34 22 26 -2 28 38 4 78 -12 18 -21 36 -21 39 0 4 20 4 43 1 l44 -6 -1 90 c-2 88 -3 92 -33 121 -18 16 -36 39 -42 50 -7 13 -17 17 -31 14 -15 -4 -20 0 -20 15 0 25 -23 44 -47 40 -12 -2 -19 4 -21 19 -5 34 -29 50 -54 34 -17 -11 -22 -10 -29 1 -11 17 -11 26 1 33 12 7 13 25 2 25 -4 0 -20 -12 -36 -26z m102 -197 c16 -17 25 -40 29 -79 5 -54 5 -56 -29 -81 -76 -59 -164 -40 -205 43 -28 56 -28 75 -3 110 24 34 45 40 125 34 45 -3 65 -10 83 -27z" transform="translate(0,68) scale(0.1,-0.1)" stroke="none" fill="#903F12"/>

</g>

<g id="4" transform="translate(280.0,0)scale(1,1)">

<path d="M290 442 c-30 -3 -67 -59 -50 -76 5 -5 10 -17 10 -25 0 -9 11 -29 25 -45 21 -24 33 -29 80 -32 48 -3 58 0 80 22 14 14 25 30 26 37 4 40 -5 74 -22 89 -10 9 -19 21 -19 28 0 10 -52 11 -130 2z" transform="translate(0,68) scale(0.1,-0.1)" stroke="none" fill="#D29A5B"/>

<path d="M346 634 c-15 -15 -32 -40 -38 -55 -11 -31 -28 -39 -28 -14 0 31 -42 75 -72 75 -18 0 -28 -5 -28 -15 0 -11 -8 -13 -30 -8 -27 5 -30 3 -30 -20 0 -19 -6 -26 -22 -29 -18 -2 -23 -10 -23 -30 0 -17 -9 -34 -22 -43 -13 -9 -23 -22 -23 -29 0 -17 33 -46 51 -46 9 0 24 -7 35 -15 18 -13 18 -14 -11 -20 -16 -4 -40 -15 -53 -25 -20 -16 -22 -25 -16 -57 3 -21 12 -45 19 -53 6 -8 15 -23 18 -32 4 -10 16 -18 29 -18 17 0 19 -3 10 -12 -16 -16 -15 -28 3 -28 8 0 19 -9 25 -20 6 -11 17 -20 26 -20 22 0 86 35 108 59 29 31 39 26 33 -17 -4 -20 -4 -54 0 -75 5 -32 9 -37 32 -37 15 0 33 -6 39 -12 10 -10 17 -10 33 0 16 10 24 10 35 1 11 -9 18 -8 32 5 10 9 28 16 39 16 11 0 28 11 36 24 9 13 24 23 34 22 26 -2 28 38 4 78 -12 18 -21 36 -21 39 0 4 20 4 43 1 l44 -6 -1 90 c-2 88 -3 92 -33 121 -18 16 -36 39 -42 50 -7 13 -17 17 -31 14 -15 -4 -20 0 -20 15 0 25 -23 44 -47 40 -12 -2 -19 4 -21 19 -5 34 -29 50 -54 34 -17 -11 -22 -10 -29 1 -11 17 -11 26 1 33 12 7 13 25 2 25 -4 0 -20 -12 -36 -26z m102 -197 c16 -17 25 -40 29 -79 5 -54 5 -56 -29 -81 -76 -59 -164 -40 -205 43 -28 56 -28 75 -3 110 24 34 45 40 125 34 45 -3 65 -10 83 -27z" transform="translate(0,68) scale(0.1,-0.1)" stroke="none" fill="#903F12"/>

</g>

</g>
<g id="row1" transform="translate(9,68.0)">
<g id="0" transform="translate(0.0,0)scale(1,1)">

<path d="M290 442 c-30 -3 -67 -59 -50 -76 5 -5 10 -17 10 -25 0 -9 11 -29 25 -45 21 -24 33 -29 80 -32 48 -3 58 0 80 22 14 14 25 30 26 37 4 40 -5 74 -22 89 -10 9 -19 21 -19 28 0 10 -52 11 -130 2z" transform="translate(0,68) scale(0.1,-0.1)" stroke="none" fill="#D29A5B"/>

<path d="M346 634 c-15 -15 -32 -40 -38 -55 -11 -31 -28 -39 -28 -14 0 31 -42 75 -72 75 -18 0 -28 -5 -28 -15 0 -11 -8 -13 -30 -8 -27 5 -30 3 -30 -20 0 -19 -6 -26 -22 -29 -18 -2 -23 -10 -23 -30 0 -17 -9 -34 -22 -43 -13 -9 -23 -22 -23 -29 0 -17 33 -46 51 -46 9 0 24 -7 35 -15 18 -13 18 -14 -11 -20 -16 -4 -40 -15 -53 -25 -20 -16 -22 -25 -16 -57 3 -21 12 -45 19 -53 6 -8 15 -23 18 -32 4 -10 16 -18 29 -18 17 0 19 -3 10 -12 -16 -16 -15 -28 3 -28 8 0 19 -9 25 -20 6 -11 17 -20 26 -20 22 0 86 35 108 59 29 31 39 26 33 -17 -4 -20 -4 -54 0 -75 5 -32 9 -37 32 -37 15 0 33 -6 39 -12 10 -10 17 -10 33 0 16 10 24 10 35 1 11 -9 18 -8 32 5 10 9 28 16 39 16 11 0 28 11 36 24 9 13 24 23 34 22 26 -2 28 38 4 78 -12 18 -21 36 -21 39 0 4 20 4 43 1 l44 -6 -1 90 c-2 88 -3 92 -33 121 -18 16 -36 39 -42 50 -7 13 -17 17 -31 14 -15 -4 -20 0 -20 15 0 25 -23 44 -47 40 -12 -2 -19 4 -21 19 -5 34 -29 50 -54 34 -17 -11 -22 -10 -29 1 -11 17 -11 26 1 33 12 7 13 25 2 25 -4 0 -20 -12 -36 -26z m102 -197 c16 -17 25 -40 29 -79 5 -54 5 -56 -29 -81 -76 -59 -164 -40 -205 43 -28 56 -28 75 -3 110 24 34 45 40 125 34 45 -3 65 -10 83 -27z" transform="translate(0,68) scale(0.1,-0.1)" stroke="none" fill="#903F12"/>

</g>

<g id="1" transform="translate(70.0,0)scale(1,1)">

<path d="M290 442 c-30 -3 -67 -59 -50 -76 5 -5 10 -17 10 -25 0 -9 11 -29 25 -45 21 -24 33 -29 80 -32 48 -3 58 0 80 22 14 14 25 30 26 37 4 40 -5 74 -22 89 -10 9 -19 21 -19 28 0 10 -52 11 -130 2z" transform="translate(0,68) scale(0.1,-0.1)" stroke="none" fill="#D29A5B"/>

<path d="M346 634 c-15 -15 -32 -40 -38 -55 -11 -31 -28 -39 -28 -14 0 31 -42 75 -72 75 -18 0 -28 -5 -28 -15 0 -11 -8 -13 -30 -8 -27 5 -30 3 -30 -20 0 -19 -6 -26 -22 -29 -18 -2 -23 -10 -23 -30 0 -17 -9 -34 -22 -43 -13 -9 -23 -22 -23 -29 0 -17 33 -46 51 -46 9 0 24 -7 35 -15 18 -13 18 -14 -11 -20 -16 -4 -40 -15 -53 -25 -20 -16 -22 -25 -16 -57 3 -21 12 -45 19 -53 6 -8 15 -23 18 -32 4 -10 16 -18 29 -18 17 0 19 -3 10 -12 -16 -16 -15 -28 3 -28 8 0 19 -9 25 -20 6 -11 17 -20 26 -20 22 0 86 35 108 59 29 31 39 26 33 -17 -4 -20 -4 -54 0 -75 5 -32 9 -37 32 -37 15 0 33 -6 39 -12 10 -10 17 -10 33 0 16 10 24 10 35 1 11 -9 18 -8 32 5 10 9 28 16 39 16 11 0 28 11 36 24 9 13 24 23 34 22 26 -2 28 38 4 78 -12 18 -21 36 -21 39 0 4 20 4 43 1 l44 -6 -1 90 c-2 88 -3 92 -33 121 -18 16 -36 39 -42 50 -7 13 -17 17 -31 14 -15 -4 -20 0 -20 15 0 25 -23 44 -47 40 -12 -2 -19 4 -21 19 -5 34 -29 50 -54 34 -17 -11 -22 -10 -29 1 -11 17 -11 26 1 33 12 7 13 25 2 25 -4 0 -20 -12 -36 -26z m102 -197 c16 -17 25 -40 29 -79 5 -54 5 -56 -29 -81 -76 -59 -164 -40 -205 43 -28 56 -28 75 -3 110 24 34 45 40 125 34 45 -3 65 -10 83 -27z" transform="translate(0,68) scale(0.1,-0.1)" stroke="none" fill="#903F12"/>

</g>

<g id="2" transform="translate(140.0,0)scale(1,1)">

<path d="M290 442 c-30 -3 -67 -59 -50 -76 5 -5 10 -17 10 -25 0 -9 11 -29 25 -45 21 -24 33 -29 80 -32 48 -3 58 0 80 22 14 14 25 30 26 37 4 40 -5 74 -22 89 -10 9 -19 21 -19 28 0 10 -52 11 -130 2z" transform="translate(0,68) scale(0.1,-0.1)" stroke="none" fill="#D29A5B"/>

<path d="M346 634 c-15 -15 -32 -40 -38 -55 -11 -31 -28 -39 -28 -14 0 31 -42 75 -72 75 -18 0 -28 -5 -28 -15 0 -11 -8 -13 -30 -8 -27 5 -30 3 -30 -20 0 -19 -6 -26 -22 -29 -18 -2 -23 -10 -23 -30 0 -17 -9 -34 -22 -43 -13 -9 -23 -22 -23 -29 0 -17 33 -46 51 -46 9 0 24 -7 35 -15 18 -13 18 -14 -11 -20 -16 -4 -40 -15 -53 -25 -20 -16 -22 -25 -16 -57 3 -21 12 -45 19 -53 6 -8 15 -23 18 -32 4 -10 16 -18 29 -18 17 0 19 -3 10 -12 -16 -16 -15 -28 3 -28 8 0 19 -9 25 -20 6 -11 17 -20 26 -20 22 0 86 35 108 59 29 31 39 26 33 -17 -4 -20 -4 -54 0 -75 5 -32 9 -37 32 -37 15 0 33 -6 39 -12 10 -10 17 -10 33 0 16 10 24 10 35 1 11 -9 18 -8 32 5 10 9 28 16 39 16 11 0 28 11 36 24 9 13 24 23 34 22 26 -2 28 38 4 78 -12 18 -21 36 -21 39 0 4 20 4 43 1 l44 -6 -1 90 c-2 88 -3 92 -33 121 -18 16 -36 39 -42 50 -7 13 -17 17 -31 14 -15 -4 -20 0 -20 15 0 25 -23 44 -47 40 -12 -2 -19 4 -21 19 -5 34 -29 50 -54 34 -17 -11 -22 -10 -29 1 -11 17 -11 26 1 33 12 7 13 25 2 25 -4 0 -20 -12 -36 -26z m102 -197 c16 -17 25 -40 29 -79 5 -54 5 -56 -29 -81 -76 -59 -164 -40 -205 43 -28 56 -28 75 -3 110 24 34 45 40 125 34 45 -3 65 -10 83 -27z" transform="translate(0,68) scale(0.1,-0.1)" stroke="none" fill="#903F12"/>

</g>

<g id="3" transform="translate(210.0,0)scale(1,1)">

<path d="M290 442 c-30 -3 -67 -59 -50 -76 5 -5 10 -17 10 -25 0 -9 11 -29 25 -45 21 -24 33 -29 80 -32 48 -3 58 0 80 22 14 14 25 30 26 37 4 40 -5 74 -22 89 -10 9 -19 21 -19 28 0 10 -52 11 -130 2z" transform="translate(0,68) scale(0.1,-0.1)" stroke="none" fill="#D29A5B"/>

<path d="M346 634 c-15 -15 -32 -40 -38 -55 -11 -31 -28 -39 -28 -14 0 31 -42 75 -72 75 -18 0 -28 -5 -28 -15 0 -11 -8 -13 -30 -8 -27 5 -30 3 -30 -20 0 -19 -6 -26 -22 -29 -18 -2 -23 -10 -23 -30 0 -17 -9 -34 -22 -43 -13 -9 -23 -22 -23 -29 0 -17 33 -46 51 -46 9 0 24 -7 35 -15 18 -13 18 -14 -11 -20 -16 -4 -40 -15 -53 -25 -20 -16 -22 -25 -16 -57 3 -21 12 -45 19 -53 6 -8 15 -23 18 -32 4 -10 16 -18 29 -18 17 0 19 -3 10 -12 -16 -16 -15 -28 3 -28 8 0 19 -9 25 -20 6 -11 17 -20 26 -20 22 0 86 35 108 59 29 31 39 26 33 -17 -4 -20 -4 -54 0 -75 5 -32 9 -37 32 -37 15 0 33 -6 39 -12 10 -10 17 -10 33 0 16 10 24 10 35 1 11 -9 18 -8 32 5 10 9 28 16 39 16 11 0 28 11 36 24 9 13 24 23 34 22 26 -2 28 38 4 78 -12 18 -21 36 -21 39 0 4 20 4 43 1 l44 -6 -1 90 c-2 88 -3 92 -33 121 -18 16 -36 39 -42 50 -7 13 -17 17 -31 14 -15 -4 -20 0 -20 15 0 25 -23 44 -47 40 -12 -2 -19 4 -21 19 -5 34 -29 50 -54 34 -17 -11 -22 -10 -29 1 -11 17 -11 26 1 33 12 7 13 25 2 25 -4 0 -20 -12 -36 -26z m102 -197 c16 -17 25 -40 29 -79 5 -54 5 -56 -29 -81 -76 -59 -164 -40 -205 43 -28 56 -28 75 -3 110 24 34 45 40 125 34 45 -3 65 -10 83 -27z" transform="translate(0,68) scale(0.1,-0.1)" stroke="none" fill="#903F12"/>

</g>

<g id="4" transform="translate(280.0,0)scale(1,1)">

<path d="M290 442 c-30 -3 -67 -59 -50 -76 5 -5 10 -17 10 -25 0 -9 11 -29 25 -45 21 -24 33 -29 80 -32 48 -3 58 0 80 22 14 14 25 30 26 37 4 40 -5 74 -22 89 -10 9 -19 21 -19 28 0 10 -52 11 -130 2z" transform="translate(0,68) scale(0.1,-0.1)" stroke="none" fill="#D29A5B"/>

<path d="M346 634 c-15 -15 -32 -40 -38 -55 -11 -31 -28 -39 -28 -14 0 31 -42 75 -72 75 -18 0 -28 -5 -28 -15 0 -11 -8 -13 -30 -8 -27 5 -30 3 -30 -20 0 -19 -6 -26 -22 -29 -18 -2 -23 -10 -23 -30 0 -17 -9 -34 -22 -43 -13 -9 -23 -22 -23 -29 0 -17 33 -46 51 -46 9 0 24 -7 35 -15 18 -13 18 -14 -11 -20 -16 -4 -40 -15 -53 -25 -20 -16 -22 -25 -16 -57 3 -21 12 -45 19 -53 6 -8 15 -23 18 -32 4 -10 16 -18 29 -18 17 0 19 -3 10 -12 -16 -16 -15 -28 3 -28 8 0 19 -9 25 -20 6 -11 17 -20 26 -20 22 0 86 35 108 59 29 31 39 26 33 -17 -4 -20 -4 -54 0 -75 5 -32 9 -37 32 -37 15 0 33 -6 39 -12 10 -10 17 -10 33 0 16 10 24 10 35 1 11 -9 18 -8 32 5 10 9 28 16 39 16 11 0 28 11 36 24 9 13 24 23 34 22 26 -2 28 38 4 78 -12 18 -21 36 -21 39 0 4 20 4 43 1 l44 -6 -1 90 c-2 88 -3 92 -33 121 -18 16 -36 39 -42 50 -7 13 -17 17 -31 14 -15 -4 -20 0 -20 15 0 25 -23 44 -47 40 -12 -2 -19 4 -21 19 -5 34 -29 50 -54 34 -17 -11 -22 -10 -29 1 -11 17 -11 26 1 33 12 7 13 25 2 25 -4 0 -20 -12 -36 -26z m102 -197 c16 -17 25 -40 29 -79 5 -54 5 -56 -29 -81 -76 -59 -164 -40 -205 43 -28 56 -28 75 -3 110 24 34 45 40 125 34 45 -3 65 -10 83 -27z" transform="translate(0,68) scale(0.1,-0.1)" stroke="none" fill="#903F12"/>

</g>

</g>
<g id="row2" transform="translate(9,136.0)">
<g id="0" transform="translate(0.0,0)scale(1,1)">

<path d="M290 442 c-30 -3 -67 -59 -50 -76 5 -5 10 -17 10 -25 0 -9 11 -29 25 -45 21 -24 33 -29 80 -32 48 -3 58 0 80 22 14 14 25 30 26 37 4 40 -5 74 -22 89 -10 9 -19 21 -19 28 0 10 -52 11 -130 2z" transform="translate(0,68) scale(0.1,-0.1)" stroke="none" fill="#D29A5B"/>

<path d="M346 634 c-15 -15 -32 -40 -38 -55 -11 -31 -28 -39 -28 -14 0 31 -42 75 -72 75 -18 0 -28 -5 -28 -15 0 -11 -8 -13 -30 -8 -27 5 -30 3 -30 -20 0 -19 -6 -26 -22 -29 -18 -2 -23 -10 -23 -30 0 -17 -9 -34 -22 -43 -13 -9 -23 -22 -23 -29 0 -17 33 -46 51 -46 9 0 24 -7 35 -15 18 -13 18 -14 -11 -20 -16 -4 -40 -15 -53 -25 -20 -16 -22 -25 -16 -57 3 -21 12 -45 19 -53 6 -8 15 -23 18 -32 4 -10 16 -18 29 -18 17 0 19 -3 10 -12 -16 -16 -15 -28 3 -28 8 0 19 -9 25 -20 6 -11 17 -20 26 -20 22 0 86 35 108 59 29 31 39 26 33 -17 -4 -20 -4 -54 0 -75 5 -32 9 -37 32 -37 15 0 33 -6 39 -12 10 -10 17 -10 33 0 16 10 24 10 35 1 11 -9 18 -8 32 5 10 9 28 16 39 16 11 0 28 11 36 24 9 13 24 23 34 22 26 -2 28 38 4 78 -12 18 -21 36 -21 39 0 4 20 4 43 1 l44 -6 -1 90 c-2 88 -3 92 -33 121 -18 16 -36 39 -42 50 -7 13 -17 17 -31 14 -15 -4 -20 0 -20 15 0 25 -23 44 -47 40 -12 -2 -19 4 -21 19 -5 34 -29 50 -54 34 -17 -11 -22 -10 -29 1 -11 17 -11 26 1 33 12 7 13 25 2 25 -4 0 -20 -12 -36 -26z m102 -197 c16 -17 25 -40 29 -79 5 -54 5 -56 -29 -81 -76 -59 -164 -40 -205 43 -28 56 -28 75 -3 110 24 34 45 40 125 34 45 -3 65 -10 83 -27z" transform="translate(0,68) scale(0.1,-0.1)" stroke="none" fill="#903F12"/>

</g>

<g id="1" transform="translate(70.0,0)scale(1,1)">

<path d="M290 442 c-30 -3 -67 -59 -50 -76 5 -5 10 -17 10 -25 0 -9 11 -29 25 -45 21 -24 33 -29 80 -32 48 -3 58 0 80 22 14 14 25 30 26 37 4 40 -5 74 -22 89 -10 9 -19 21 -19 28 0 10 -52 11 -130 2z" transform="translate(0,68) scale(0.1,-0.1)" stroke="none" fill="#D29A5B"/>

<path d="M346 634 c-15 -15 -32 -40 -38 -55 -11 -31 -28 -39 -28 -14 0 31 -42 75 -72 75 -18 0 -28 -5 -28 -15 0 -11 -8 -13 -30 -8 -27 5 -30 3 -30 -20 0 -19 -6 -26 -22 -29 -18 -2 -23 -10 -23 -30 0 -17 -9 -34 -22 -43 -13 -9 -23 -22 -23 -29 0 -17 33 -46 51 -46 9 0 24 -7 35 -15 18 -13 18 -14 -11 -20 -16 -4 -40 -15 -53 -25 -20 -16 -22 -25 -16 -57 3 -21 12 -45 19 -53 6 -8 15 -23 18 -32 4 -10 16 -18 29 -18 17 0 19 -3 10 -12 -16 -16 -15 -28 3 -28 8 0 19 -9 25 -20 6 -11 17 -20 26 -20 22 0 86 35 108 59 29 31 39 26 33 -17 -4 -20 -4 -54 0 -75 5 -32 9 -37 32 -37 15 0 33 -6 39 -12 10 -10 17 -10 33 0 16 10 24 10 35 1 11 -9 18 -8 32 5 10 9 28 16 39 16 11 0 28 11 36 24 9 13 24 23 34 22 26 -2 28 38 4 78 -12 18 -21 36 -21 39 0 4 20 4 43 1 l44 -6 -1 90 c-2 88 -3 92 -33 121 -18 16 -36 39 -42 50 -7 13 -17 17 -31 14 -15 -4 -20 0 -20 15 0 25 -23 44 -47 40 -12 -2 -19 4 -21 19 -5 34 -29 50 -54 34 -17 -11 -22 -10 -29 1 -11 17 -11 26 1 33 12 7 13 25 2 25 -4 0 -20 -12 -36 -26z m102 -197 c16 -17 25 -40 29 -79 5 -54 5 -56 -29 -81 -76 -59 -164 -40 -205 43 -28 56 -28 75 -3 110 24 34 45 40 125 34 45 -3 65 -10 83 -27z" transform="translate(0,68) scale(0.1,-0.1)" stroke="none" fill="#903F12"/>

</g>

<g id="2" transform="translate(140.0,0)scale(1,1)">

<path d="M290 442 c-30 -3 -67 -59 -50 -76 5 -5 10 -17 10 -25 0 -9 11 -29 25 -45 21 -24 33 -29 80 -32 48 -3 58 0 80 22 14 14 25 30 26 37 4 40 -5 74 -22 89 -10 9 -19 21 -19 28 0 10 -52 11 -130 2z" transform="translate(0,68) scale(0.1,-0.1)" stroke="none" fill="#D29A5B"/>

<path d="M346 634 c-15 -15 -32 -40 -38 -55 -11 -31 -28 -39 -28 -14 0 31 -42 75 -72 75 -18 0 -28 -5 -28 -15 0 -11 -8 -13 -30 -8 -27 5 -30 3 -30 -20 0 -19 -6 -26 -22 -29 -18 -2 -23 -10 -23 -30 0 -17 -9 -34 -22 -43 -13 -9 -23 -22 -23 -29 0 -17 33 -46 51 -46 9 0 24 -7 35 -15 18 -13 18 -14 -11 -20 -16 -4 -40 -15 -53 -25 -20 -16 -22 -25 -16 -57 3 -21 12 -45 19 -53 6 -8 15 -23 18 -32 4 -10 16 -18 29 -18 17 0 19 -3 10 -12 -16 -16 -15 -28 3 -28 8 0 19 -9 25 -20 6 -11 17 -20 26 -20 22 0 86 35 108 59 29 31 39 26 33 -17 -4 -20 -4 -54 0 -75 5 -32 9 -37 32 -37 15 0 33 -6 39 -12 10 -10 17 -10 33 0 16 10 24 10 35 1 11 -9 18 -8 32 5 10 9 28 16 39 16 11 0 28 11 36 24 9 13 24 23 34 22 26 -2 28 38 4 78 -12 18 -21 36 -21 39 0 4 20 4 43 1 l44 -6 -1 90 c-2 88 -3 92 -33 121 -18 16 -36 39 -42 50 -7 13 -17 17 -31 14 -15 -4 -20 0 -20 15 0 25 -23 44 -47 40 -12 -2 -19 4 -21 19 -5 34 -29 50 -54 34 -17 -11 -22 -10 -29 1 -11 17 -11 26 1 33 12 7 13 25 2 25 -4 0 -20 -12 -36 -26z m102 -197 c16 -17 25 -40 29 -79 5 -54 5 -56 -29 -81 -76 -59 -164 -40 -205 43 -28 56 -28 75 -3 110 24 34 45 40 125 34 45 -3 65 -10 83 -27z" transform="translate(0,68) scale(0.1,-0.1)" stroke="none" fill="#903F12"/>

</g>

<g id="3" transform="translate(210.0,0)scale(1,1)">

<path d="M290 442 c-30 -3 -67 -59 -50 -76 5 -5 10 -17 10 -25 0 -9 11 -29 25 -45 21 -24 33 -29 80 -32 48 -3 58 0 80 22 14 14 25 30 26 37 4 40 -5 74 -22 89 -10 9 -19 21 -19 28 0 10 -52 11 -130 2z" transform="translate(0,68) scale(0.1,-0.1)" stroke="none" fill="#D29A5B"/>

<path d="M346 634 c-15 -15 -32 -40 -38 -55 -11 -31 -28 -39 -28 -14 0 31 -42 75 -72 75 -18 0 -28 -5 -28 -15 0 -11 -8 -13 -30 -8 -27 5 -30 3 -30 -20 0 -19 -6 -26 -22 -29 -18 -2 -23 -10 -23 -30 0 -17 -9 -34 -22 -43 -13 -9 -23 -22 -23 -29 0 -17 33 -46 51 -46 9 0 24 -7 35 -15 18 -13 18 -14 -11 -20 -16 -4 -40 -15 -53 -25 -20 -16 -22 -25 -16 -57 3 -21 12 -45 19 -53 6 -8 15 -23 18 -32 4 -10 16 -18 29 -18 17 0 19 -3 10 -12 -16 -16 -15 -28 3 -28 8 0 19 -9 25 -20 6 -11 17 -20 26 -20 22 0 86 35 108 59 29 31 39 26 33 -17 -4 -20 -4 -54 0 -75 5 -32 9 -37 32 -37 15 0 33 -6 39 -12 10 -10 17 -10 33 0 16 10 24 10 35 1 11 -9 18 -8 32 5 10 9 28 16 39 16 11 0 28 11 36 24 9 13 24 23 34 22 26 -2 28 38 4 78 -12 18 -21 36 -21 39 0 4 20 4 43 1 l44 -6 -1 90 c-2 88 -3 92 -33 121 -18 16 -36 39 -42 50 -7 13 -17 17 -31 14 -15 -4 -20 0 -20 15 0 25 -23 44 -47 40 -12 -2 -19 4 -21 19 -5 34 -29 50 -54 34 -17 -11 -22 -10 -29 1 -11 17 -11 26 1 33 12 7 13 25 2 25 -4 0 -20 -12 -36 -26z m102 -197 c16 -17 25 -40 29 -79 5 -54 5 -56 -29 -81 -76 -59 -164 -40 -205 43 -28 56 -28 75 -3 110 24 34 45 40 125 34 45 -3 65 -10 83 -27z" transform="translate(0,68) scale(0.1,-0.1)" stroke="none" fill="#903F12"/>

</g>

<g id="4" transform="translate(280.0,0)scale(1,1)">

<path d="M290 442 c-30 -3 -67 -59 -50 -76 5 -5 10 -17 10 -25 0 -9 11 -29 25 -45 21 -24 33 -29 80 -32 48 -3 58 0 80 22 14 14 25 30 26 37 4 40 -5 74 -22 89 -10 9 -19 21 -19 28 0 10 -52 11 -130 2z" transform="translate(0,68) scale(0.1,-0.1)" stroke="none" fill="#D29A5B"/>

<path d="M346 634 c-15 -15 -32 -40 -38 -55 -11 -31 -28 -39 -28 -14 0 31 -42 75 -72 75 -18 0 -28 -5 -28 -15 0 -11 -8 -13 -30 -8 -27 5 -30 3 -30 -20 0 -19 -6 -26 -22 -29 -18 -2 -23 -10 -23 -30 0 -17 -9 -34 -22 -43 -13 -9 -23 -22 -23 -29 0 -17 33 -46 51 -46 9 0 24 -7 35 -15 18 -13 18 -14 -11 -20 -16 -4 -40 -15 -53 -25 -20 -16 -22 -25 -16 -57 3 -21 12 -45 19 -53 6 -8 15 -23 18 -32 4 -10 16 -18 29 -18 17 0 19 -3 10 -12 -16 -16 -15 -28 3 -28 8 0 19 -9 25 -20 6 -11 17 -20 26 -20 22 0 86 35 108 59 29 31 39 26 33 -17 -4 -20 -4 -54 0 -75 5 -32 9 -37 32 -37 15 0 33 -6 39 -12 10 -10 17 -10 33 0 16 10 24 10 35 1 11 -9 18 -8 32 5 10 9 28 16 39 16 11 0 28 11 36 24 9 13 24 23 34 22 26 -2 28 38 4 78 -12 18 -21 36 -21 39 0 4 20 4 43 1 l44 -6 -1 90 c-2 88 -3 92 -33 121 -18 16 -36 39 -42 50 -7 13 -17 17 -31 14 -15 -4 -20 0 -20 15 0 25 -23 44 -47 40 -12 -2 -19 4 -21 19 -5 34 -29 50 -54 34 -17 -11 -22 -10 -29 1 -11 17 -11 26 1 33 12 7 13 25 2 25 -4 0 -20 -12 -36 -26z m102 -197 c16 -17 25 -40 29 -79 5 -54 5 -56 -29 -81 -76 -59 -164 -40 -205 43 -28 56 -28 75 -3 110 24 34 45 40 125 34 45 -3 65 -10 83 -27z" transform="translate(0,68) scale(0.1,-0.1)" stroke="none" fill="#903F12"/>

</g>

</g>
<g id="row3" transform="translate(9,204.0)">
<g id="0" transform="translate(0.0,0)scale(1,1)">

<path d="M290 442 c-30 -3 -67 -59 -50 -76 5 -5 10 -17 10 -25 0 -9 11 -29 25 -45 21 -24 33 -29 80 -32 48 -3 58 0 80 22 14 14 25 30 26 37 4 40 -5 74 -22 89 -10 9 -19 21 -19 28 0 10 -52 11 -130 2z" transform="translate(0,68) scale(0.1,-0.1)" stroke="none" fill="#D29A5B"/>

<path d="M346 634 c-15 -15 -32 -40 -38 -55 -11 -31 -28 -39 -28 -14 0 31 -42 75 -72 75 -18 0 -28 -5 -28 -15 0 -11 -8 -13 -30 -8 -27 5 -30 3 -30 -20 0 -19 -6 -26 -22 -29 -18 -2 -23 -10 -23 -30 0 -17 -9 -34 -22 -43 -13 -9 -23 -22 -23 -29 0 -17 33 -46 51 -46 9 0 24 -7 35 -15 18 -13 18 -14 -11 -20 -16 -4 -40 -15 -53 -25 -20 -16 -22 -25 -16 -57 3 -21 12 -45 19 -53 6 -8 15 -23 18 -32 4 -10 16 -18 29 -18 17 0 19 -3 10 -12 -16 -16 -15 -28 3 -28 8 0 19 -9 25 -20 6 -11 17 -20 26 -20 22 0 86 35 108 59 29 31 39 26 33 -17 -4 -20 -4 -54 0 -75 5 -32 9 -37 32 -37 15 0 33 -6 39 -12 10 -10 17 -10 33 0 16 10 24 10 35 1 11 -9 18 -8 32 5 10 9 28 16 39 16 11 0 28 11 36 24 9 13 24 23 34 22 26 -2 28 38 4 78 -12 18 -21 36 -21 39 0 4 20 4 43 1 l44 -6 -1 90 c-2 88 -3 92 -33 121 -18 16 -36 39 -42 50 -7 13 -17 17 -31 14 -15 -4 -20 0 -20 15 0 25 -23 44 -47 40 -12 -2 -19 4 -21 19 -5 34 -29 50 -54 34 -17 -11 -22 -10 -29 1 -11 17 -11 26 1 33 12 7 13 25 2 25 -4 0 -20 -12 -36 -26z m102 -197 c16 -17 25 -40 29 -79 5 -54 5 -56 -29 -81 -76 -59 -164 -40 -205 43 -28 56 -28 75 -3 110 24 34 45 40 125 34 45 -3 65 -10 83 -27z" transform="translate(0,68) scale(0.1,-0.1)" stroke="none" fill="#903F12"/>

</g>

<g id="1" transform="translate(70.0,0)scale(1,1)">

<path d="M290 442 c-30 -3 -67 -59 -50 -76 5 -5 10 -17 10 -25 0 -9 11 -29 25 -45 21 -24 33 -29 80 -32 48 -3 58 0 80 22 14 14 25 30 26 37 4 40 -5 74 -22 89 -10 9 -19 21 -19 28 0 10 -52 11 -130 2z" transform="translate(0,68) scale(0.1,-0.1)" stroke="none" fill="#D29A5B"/>

<path d="M346 634 c-15 -15 -32 -40 -38 -55 -11 -31 -28 -39 -28 -14 0 31 -42 75 -72 75 -18 0 -28 -5 -28 -15 0 -11 -8 -13 -30 -8 -27 5 -30 3 -30 -20 0 -19 -6 -26 -22 -29 -18 -2 -23 -10 -23 -30 0 -17 -9 -34 -22 -43 -13 -9 -23 -22 -23 -29 0 -17 33 -46 51 -46 9 0 24 -7 35 -15 18 -13 18 -14 -11 -20 -16 -4 -40 -15 -53 -25 -20 -16 -22 -25 -16 -57 3 -21 12 -45 19 -53 6 -8 15 -23 18 -32 4 -10 16 -18 29 -18 17 0 19 -3 10 -12 -16 -16 -15 -28 3 -28 8 0 19 -9 25 -20 6 -11 17 -20 26 -20 22 0 86 35 108 59 29 31 39 26 33 -17 -4 -20 -4 -54 0 -75 5 -32 9 -37 32 -37 15 0 33 -6 39 -12 10 -10 17 -10 33 0 16 10 24 10 35 1 11 -9 18 -8 32 5 10 9 28 16 39 16 11 0 28 11 36 24 9 13 24 23 34 22 26 -2 28 38 4 78 -12 18 -21 36 -21 39 0 4 20 4 43 1 l44 -6 -1 90 c-2 88 -3 92 -33 121 -18 16 -36 39 -42 50 -7 13 -17 17 -31 14 -15 -4 -20 0 -20 15 0 25 -23 44 -47 40 -12 -2 -19 4 -21 19 -5 34 -29 50 -54 34 -17 -11 -22 -10 -29 1 -11 17 -11 26 1 33 12 7 13 25 2 25 -4 0 -20 -12 -36 -26z m102 -197 c16 -17 25 -40 29 -79 5 -54 5 -56 -29 -81 -76 -59 -164 -40 -205 43 -28 56 -28 75 -3 110 24 34 45 40 125 34 45 -3 65 -10 83 -27z" transform="translate(0,68) scale(0.1,-0.1)" stroke="none" fill="#903F12"/>

</g>

<g id="2" transform="translate(140.0,0)scale(1,1)">

<path d="M290 442 c-30 -3 -67 -59 -50 -76 5 -5 10 -17 10 -25 0 -9 11 -29 25 -45 21 -24 33 -29 80 -32 48 -3 58 0 80 22 14 14 25 30 26 37 4 40 -5 74 -22 89 -10 9 -19 21 -19 28 0 10 -52 11 -130 2z" transform="translate(0,68) scale(0.1,-0.1)" stroke="none" fill="#D29A5B"/>

<path d="M346 634 c-15 -15 -32 -40 -38 -55 -11 -31 -28 -39 -28 -14 0 31 -42 75 -72 75 -18 0 -28 -5 -28 -15 0 -11 -8 -13 -30 -8 -27 5 -30 3 -30 -20 0 -19 -6 -26 -22 -29 -18 -2 -23 -10 -23 -30 0 -17 -9 -34 -22 -43 -13 -9 -23 -22 -23 -29 0 -17 33 -46 51 -46 9 0 24 -7 35 -15 18 -13 18 -14 -11 -20 -16 -4 -40 -15 -53 -25 -20 -16 -22 -25 -16 -57 3 -21 12 -45 19 -53 6 -8 15 -23 18 -32 4 -10 16 -18 29 -18 17 0 19 -3 10 -12 -16 -16 -15 -28 3 -28 8 0 19 -9 25 -20 6 -11 17 -20 26 -20 22 0 86 35 108 59 29 31 39 26 33 -17 -4 -20 -4 -54 0 -75 5 -32 9 -37 32 -37 15 0 33 -6 39 -12 10 -10 17 -10 33 0 16 10 24 10 35 1 11 -9 18 -8 32 5 10 9 28 16 39 16 11 0 28 11 36 24 9 13 24 23 34 22 26 -2 28 38 4 78 -12 18 -21 36 -21 39 0 4 20 4 43 1 l44 -6 -1 90 c-2 88 -3 92 -33 121 -18 16 -36 39 -42 50 -7 13 -17 17 -31 14 -15 -4 -20 0 -20 15 0 25 -23 44 -47 40 -12 -2 -19 4 -21 19 -5 34 -29 50 -54 34 -17 -11 -22 -10 -29 1 -11 17 -11 26 1 33 12 7 13 25 2 25 -4 0 -20 -12 -36 -26z m102 -197 c16 -17 25 -40 29 -79 5 -54 5 -56 -29 -81 -76 -59 -164 -40 -205 43 -28 56 -28 75 -3 110 24 34 45 40 125 34 45 -3 65 -10 83 -27z" transform="translate(0,68) scale(0.1,-0.1)" stroke="none" fill="#903F12"/>

</g>

<g id="3" transform="translate(210.0,0)scale(1,1)">

<path d="M290 442 c-30 -3 -67 -59 -50 -76 5 -5 10 -17 10 -25 0 -9 11 -29 25 -45 21 -24 33 -29 80 -32 48 -3 58 0 80 22 14 14 25 30 26 37 4 40 -5 74 -22 89 -10 9 -19 21 -19 28 0 10 -52 11 -130 2z" transform="translate(0,68) scale(0.1,-0.1)" stroke="none" fill="#D29A5B"/>

<path d="M346 634 c-15 -15 -32 -40 -38 -55 -11 -31 -28 -39 -28 -14 0 31 -42 75 -72 75 -18 0 -28 -5 -28 -15 0 -11 -8 -13 -30 -8 -27 5 -30 3 -30 -20 0 -19 -6 -26 -22 -29 -18 -2 -23 -10 -23 -30 0 -17 -9 -34 -22 -43 -13 -9 -23 -22 -23 -29 0 -17 33 -46 51 -46 9 0 24 -7 35 -15 18 -13 18 -14 -11 -20 -16 -4 -40 -15 -53 -25 -20 -16 -22 -25 -16 -57 3 -21 12 -45 19 -53 6 -8 15 -23 18 -32 4 -10 16 -18 29 -18 17 0 19 -3 10 -12 -16 -16 -15 -28 3 -28 8 0 19 -9 25 -20 6 -11 17 -20 26 -20 22 0 86 35 108 59 29 31 39 26 33 -17 -4 -20 -4 -54 0 -75 5 -32 9 -37 32 -37 15 0 33 -6 39 -12 10 -10 17 -10 33 0 16 10 24 10 35 1 11 -9 18 -8 32 5 10 9 28 16 39 16 11 0 28 11 36 24 9 13 24 23 34 22 26 -2 28 38 4 78 -12 18 -21 36 -21 39 0 4 20 4 43 1 l44 -6 -1 90 c-2 88 -3 92 -33 121 -18 16 -36 39 -42 50 -7 13 -17 17 -31 14 -15 -4 -20 0 -20 15 0 25 -23 44 -47 40 -12 -2 -19 4 -21 19 -5 34 -29 50 -54 34 -17 -11 -22 -10 -29 1 -11 17 -11 26 1 33 12 7 13 25 2 25 -4 0 -20 -12 -36 -26z m102 -197 c16 -17 25 -40 29 -79 5 -54 5 -56 -29 -81 -76 -59 -164 -40 -205 43 -28 56 -28 75 -3 110 24 34 45 40 125 34 45 -3 65 -10 83 -27z" transform="translate(0,68) scale(0.1,-0.1)" stroke="none" fill="#903F12"/>

</g>

<g id="4" transform="translate(280.0,0)scale(1,1)">

<path d="M290 442 c-30 -3 -67 -59 -50 -76 5 -5 10 -17 10 -25 0 -9 11 -29 25 -45 21 -24 33 -29 80 -32 48 -3 58 0 80 22 14 14 25 30 26 37 4 40 -5 74 -22 89 -10 9 -19 21 -19 28 0 10 -52 11 -130 2z" transform="translate(0,68) scale(0.1,-0.1)" stroke="none" fill="#D29A5B"/>

<path d="M346 634 c-15 -15 -32 -40 -38 -55 -11 -31 -28 -39 -28 -14 0 31 -42 75 -72 75 -18 0 -28 -5 -28 -15 0 -11 -8 -13 -30 -8 -27 5 -30 3 -30 -20 0 -19 -6 -26 -22 -29 -18 -2 -23 -10 -23 -30 0 -17 -9 -34 -22 -43 -13 -9 -23 -22 -23 -29 0 -17 33 -46 51 -46 9 0 24 -7 35 -15 18 -13 18 -14 -11 -20 -16 -4 -40 -15 -53 -25 -20 -16 -22 -25 -16 -57 3 -21 12 -45 19 -53 6 -8 15 -23 18 -32 4 -10 16 -18 29 -18 17 0 19 -3 10 -12 -16 -16 -15 -28 3 -28 8 0 19 -9 25 -20 6 -11 17 -20 26 -20 22 0 86 35 108 59 29 31 39 26 33 -17 -4 -20 -4 -54 0 -75 5 -32 9 -37 32 -37 15 0 33 -6 39 -12 10 -10 17 -10 33 0 16 10 24 10 35 1 11 -9 18 -8 32 5 10 9 28 16 39 16 11 0 28 11 36 24 9 13 24 23 34 22 26 -2 28 38 4 78 -12 18 -21 36 -21 39 0 4 20 4 43 1 l44 -6 -1 90 c-2 88 -3 92 -33 121 -18 16 -36 39 -42 50 -7 13 -17 17 -31 14 -15 -4 -20 0 -20 15 0 25 -23 44 -47 40 -12 -2 -19 4 -21 19 -5 34 -29 50 -54 34 -17 -11 -22 -10 -29 1 -11 17 -11 26 1 33 12 7 13 25 2 25 -4 0 -20 -12 -36 -26z m102 -197 c16 -17 25 -40 29 -79 5 -54 5 -56 -29 -81 -76 -59 -164 -40 -205 43 -28 56 -28 75 -3 110 24 34 45 40 125 34 45 -3 65 -10 83 -27z" transform="translate(0,68) scale(0.1,-0.1)" stroke="none" fill="#903F12"/>

</g>

</g>
</svg>