<?xml version="1.0" standalone="no"?>
<!DOCTYPE svg PUBLIC "-//W3C//DTD SVG 20010904//EN"
 "http://www.w3.org/TR/2001/REC-SVG-20010904/DTD/svg10.dtd">
<svg version="1.0" xmlns="http://www.w3.org/2000/svg" 
width="103.000000pt" height="81.000000pt" viewBox="0 0 103.000000 81.000000"
preserveAspectRatio = "xMidYMid meet" >
<metadata>
Created by ZoeQU, 2022
</metadata>
<rect width="103.000000" height="81.000000" fill="#A8D7DD"/>
<path d="M652 338 c-7 -7 -12 -8 -12 -4 0 5 -7 3 -15 -4 -8 -7 -12 -16 -9 -22 3 -5 0 -16 -7 -24 -10 -12 -8 -18 7 -33 36 -33 100 -37 73 -4 -9 9 -8 13 0 13 6 0 11 -4 11 -10 0 -5 9 -10 19 -10 16 0 19 7 19 45 -1 43 -6 50 -35 46 -7 -1 -13 3 -13 9 0 14 -23 13 -38 -2z" transform="translate(0.000000,81.000000) scale(0.100000,-0.100000)" stroke="none" fill="#2A5417"/>

<path d="M610 423 c-52 -19 -86 -87 -74 -145 11 -52 47 -79 113 -86 47 -4 53 -2 84 29 47 47 56 102 26 153 -12 21 -33 42 -46 47 -26 10 -79 11 -103 2z m122 -70 c12 -11 18 -30 18 -60 0 -38 -4 -46 -31 -62 -33 -20 -58 -17 -97 10 -20 14 -22 22 -17 53 12 64 84 98 127 59z" transform="translate(0.000000,81.000000) scale(0.100000,-0.100000)" stroke="none" fill="#69894E"/>

<path d="M252 748 c-40 -40 30 -230 113 -308 l26 -25 -68 -12 c-126 -23 -277 -119 -271 -171 2 -22 13 -30 53 -45 75 -28 192 -34 270 -12 65 17 78 28 50 39 -26 10 -55 69 -55 112 0 54 29 90 96 120 42 18 53 29 59 53 3 16 13 35 21 42 23 19 17 33 -36 85 -81 81 -229 151 -258 122z" transform="translate(0.000000,81.000000) scale(0.100000,-0.100000)" stroke="none" fill="#2A5417"/>

<path d="M636 600 c-41 -13 -95 -68 -107 -110 -9 -31 -17 -38 -53 -48 -22 -6 -54 -25 -71 -42 -57 -60 -29 -158 57 -198 20 -9 38 -23 38 -30 0 -30 41 -89 73 -106 70 -38 142 -7 178 76 11 27 14 28 64 22 60 -7 113 12 146 55 26 32 22 104 -7 144 -19 26 -117 77 -148 77 -12 0 -16 10 -16 45 0 81 -77 139 -154 115z m77 -179 c13 -5 34 -26 46 -47 30 -51 21 -106 -26 -153 -31 -31 -37 -33 -84 -29 -66 7 -102 34 -113 86 -12 58 22 126 74 145 24 9 77 8 103 -2z" transform="translate(0.000000,81.000000) scale(0.100000,-0.100000)" stroke="none" fill="#EB9C25"/>

</svg>