<?xml version="1.0" standalone="no"?>
<!DOCTYPE svg PUBLIC "-//W3C//DTD SVG 20010904//EN"
 "http://www.w3.org/TR/2001/REC-SVG-20010904/DTD/svg10.dtd">
<svg version="1.0" xmlns="http://www.w3.org/2000/svg" width="376pt" height="560pt" viewBox="0 0 376 560" preserveAspectRatio = "xMidYMid meet" >
<metadata>
Created by ZoeQu, written in 2022
</metadata>
<rect width="376" height="560" fill="#CBD7E6"/>
<g id="col0" transform="translate(0, 18)">
<g id="0" transform="translate(0,0.0)scale(0.8,0.8)">

<path d="M366 524 c-8 -21 11 -44 35 -44 24 0 42 33 27 48 -17 17 -55 15 -62 -4z" transform="translate(0,140) scale(0.1,-0.1)" stroke="none" fill="#082223"/>

<path d="M436 578 c-10 -39 -7 -48 19 -48 29 0 47 28 34 53 -14 24 -46 21 -53 -5z" transform="translate(0,140) scale(0.1,-0.1)" stroke="none" fill="#082223"/>

<path d="M552 308 c-16 -16 -15 -33 3 -52 29 -29 64 10 43 48 -11 19 -29 21 -46 4z" transform="translate(0,140) scale(0.1,-0.1)" stroke="none" fill="#082223"/>

<path d="M565 549 c-12 -19 4 -59 25 -59 26 0 46 36 29 56 -13 16 -45 19 -54 3z" transform="translate(0,140) scale(0.1,-0.1)" stroke="none" fill="#082223"/>

<path d="M289 484 c-16 -20 -1 -48 29 -52 22 -3 45 27 34 45 -13 20 -49 24 -63 7z" transform="translate(0,140) scale(0.1,-0.1)" stroke="none" fill="#082223"/>

<path d="M435 310 c-3 -6 -3 -19 0 -30 5 -16 2 -20 -14 -20 -24 0 -43 -30 -32 -49 5 -7 19 -11 32 -9 18 2 25 10 27 31 2 18 9 27 21 27 24 0 45 25 37 45 -6 17 -61 21 -71 5z" transform="translate(0,140) scale(0.1,-0.1)" stroke="none" fill="#082223"/>

<path d="M313 398 c-5 -7 -13 -21 -16 -30 -4 -10 -13 -18 -21 -18 -7 0 -16 -7 -20 -15 -6 -18 2 -45 15 -45 5 0 15 -13 24 -30 16 -30 56 -42 70 -20 9 15 -4 50 -20 50 -18 0 -28 31 -15 44 8 8 17 3 32 -16 22 -31 40 -35 58 -13 17 21 3 55 -23 55 -13 0 -26 9 -32 22 -12 27 -38 34 -52 16z" transform="translate(0,140) scale(0.1,-0.1)" stroke="none" fill="#082223"/>

<path d="M301 1306 c-6 -7 -9 -26 -6 -42 2 -16 6 -69 9 -119 6 -99 24 -277 31 -313 5 -20 10 -22 38 -17 19 4 47 0 69 -9 36 -15 98 -80 98 -102 0 -6 6 -17 14 -24 12 -9 27 -7 73 10 52 19 64 29 113 95 62 84 75 118 54 136 -19 16 -109 5 -169 -21 -26 -11 -50 -20 -54 -20 -5 0 -10 39 -13 88 -11 181 -115 352 -215 352 -17 0 -36 -6 -42 -14z" transform="translate(0,140) scale(0.1,-0.1)" stroke="none" fill="#7195A6"/>

<path d="M294 781 c-36 -22 -69 -72 -79 -119 -5 -24 -13 -33 -33 -38 -44 -9 -86 -26 -104 -42 -43 -36 -28 -110 35 -173 l37 -35 -20 -53 c-40 -104 -21 -202 49 -248 63 -42 179 -24 246 39 36 33 34 33 88 9 79 -35 123 -43 169 -30 99 26 138 72 138 162 0 41 -6 63 -25 91 -14 20 -25 40 -25 44 0 4 18 18 40 32 22 13 40 30 40 37 0 7 4 13 10 13 15 0 33 75 26 112 -19 94 -142 141 -256 99 -30 -12 -60 -21 -67 -21 -7 0 -21 17 -32 38 -11 21 -34 52 -52 70 -30 29 -39 32 -93 32 -42 0 -71 -6 -92 -19z m195 -198 c13 -25 -5 -53 -34 -53 -26 0 -29 9 -19 48 7 26 39 29 53 5z m130 -37 c17 -20 -3 -56 -29 -56 -21 0 -37 40 -25 59 9 16 41 13 54 -3z m-191 -18 c15 -15 -3 -48 -27 -48 -24 0 -43 23 -35 44 7 19 45 21 62 4z m97 -53 c0 -23 -5 -30 -19 -30 -24 0 -41 27 -33 49 4 11 15 16 29 14 18 -2 23 -9 23 -33z m-173 2 c11 -18 -12 -48 -34 -45 -30 4 -45 32 -29 52 14 17 50 13 63 -7z m93 -72 c0 -36 -28 -46 -44 -16 -15 27 -3 53 23 49 16 -2 21 -10 21 -33z m210 25 c11 -17 -5 -50 -24 -50 -24 0 -45 25 -37 45 6 17 51 21 61 5z m-290 -48 c6 -13 19 -22 32 -22 26 0 40 -34 23 -55 -18 -22 -36 -18 -58 13 -15 19 -24 24 -32 16 -13 -13 -3 -44 15 -44 16 0 29 -35 20 -50 -14 -22 -54 -10 -70 20 -9 17 -19 30 -24 30 -13 0 -21 27 -15 45 4 8 13 15 20 15 8 0 17 8 21 18 17 47 50 54 68 14z m190 -2 c0 -18 -6 -26 -23 -28 -13 -2 -25 3 -28 12 -10 26 4 48 28 44 17 -2 23 -10 23 -28z m-49 -75 c8 -20 -13 -45 -37 -45 -12 0 -19 -9 -21 -27 -2 -21 -9 -29 -27 -31 -13 -2 -27 2 -32 9 -11 19 8 49 32 49 16 0 19 4 14 20 -3 11 -3 24 0 30 10 16 65 12 71 -5z m92 -1 c21 -38 -14 -77 -43 -48 -18 19 -19 36 -3 52 17 17 35 15 46 -4z" transform="translate(0,140) scale(0.1,-0.1)" stroke="none" fill="#295565"/>

</g>

<g id="1" transform="translate(0,140.0)scale(0.8,0.8)">

<path d="M366 524 c-8 -21 11 -44 35 -44 24 0 42 33 27 48 -17 17 -55 15 -62 -4z" transform="translate(0,140) scale(0.1,-0.1)" stroke="none" fill="#082223"/>

<path d="M436 578 c-10 -39 -7 -48 19 -48 29 0 47 28 34 53 -14 24 -46 21 -53 -5z" transform="translate(0,140) scale(0.1,-0.1)" stroke="none" fill="#082223"/>

<path d="M552 308 c-16 -16 -15 -33 3 -52 29 -29 64 10 43 48 -11 19 -29 21 -46 4z" transform="translate(0,140) scale(0.1,-0.1)" stroke="none" fill="#082223"/>

<path d="M565 549 c-12 -19 4 -59 25 -59 26 0 46 36 29 56 -13 16 -45 19 -54 3z" transform="translate(0,140) scale(0.1,-0.1)" stroke="none" fill="#082223"/>

<path d="M289 484 c-16 -20 -1 -48 29 -52 22 -3 45 27 34 45 -13 20 -49 24 -63 7z" transform="translate(0,140) scale(0.1,-0.1)" stroke="none" fill="#082223"/>

<path d="M435 310 c-3 -6 -3 -19 0 -30 5 -16 2 -20 -14 -20 -24 0 -43 -30 -32 -49 5 -7 19 -11 32 -9 18 2 25 10 27 31 2 18 9 27 21 27 24 0 45 25 37 45 -6 17 -61 21 -71 5z" transform="translate(0,140) scale(0.1,-0.1)" stroke="none" fill="#082223"/>

<path d="M313 398 c-5 -7 -13 -21 -16 -30 -4 -10 -13 -18 -21 -18 -7 0 -16 -7 -20 -15 -6 -18 2 -45 15 -45 5 0 15 -13 24 -30 16 -30 56 -42 70 -20 9 15 -4 50 -20 50 -18 0 -28 31 -15 44 8 8 17 3 32 -16 22 -31 40 -35 58 -13 17 21 3 55 -23 55 -13 0 -26 9 -32 22 -12 27 -38 34 -52 16z" transform="translate(0,140) scale(0.1,-0.1)" stroke="none" fill="#082223"/>

<path d="M301 1306 c-6 -7 -9 -26 -6 -42 2 -16 6 -69 9 -119 6 -99 24 -277 31 -313 5 -20 10 -22 38 -17 19 4 47 0 69 -9 36 -15 98 -80 98 -102 0 -6 6 -17 14 -24 12 -9 27 -7 73 10 52 19 64 29 113 95 62 84 75 118 54 136 -19 16 -109 5 -169 -21 -26 -11 -50 -20 -54 -20 -5 0 -10 39 -13 88 -11 181 -115 352 -215 352 -17 0 -36 -6 -42 -14z" transform="translate(0,140) scale(0.1,-0.1)" stroke="none" fill="#7195A6"/>

<path d="M294 781 c-36 -22 -69 -72 -79 -119 -5 -24 -13 -33 -33 -38 -44 -9 -86 -26 -104 -42 -43 -36 -28 -110 35 -173 l37 -35 -20 -53 c-40 -104 -21 -202 49 -248 63 -42 179 -24 246 39 36 33 34 33 88 9 79 -35 123 -43 169 -30 99 26 138 72 138 162 0 41 -6 63 -25 91 -14 20 -25 40 -25 44 0 4 18 18 40 32 22 13 40 30 40 37 0 7 4 13 10 13 15 0 33 75 26 112 -19 94 -142 141 -256 99 -30 -12 -60 -21 -67 -21 -7 0 -21 17 -32 38 -11 21 -34 52 -52 70 -30 29 -39 32 -93 32 -42 0 -71 -6 -92 -19z m195 -198 c13 -25 -5 -53 -34 -53 -26 0 -29 9 -19 48 7 26 39 29 53 5z m130 -37 c17 -20 -3 -56 -29 -56 -21 0 -37 40 -25 59 9 16 41 13 54 -3z m-191 -18 c15 -15 -3 -48 -27 -48 -24 0 -43 23 -35 44 7 19 45 21 62 4z m97 -53 c0 -23 -5 -30 -19 -30 -24 0 -41 27 -33 49 4 11 15 16 29 14 18 -2 23 -9 23 -33z m-173 2 c11 -18 -12 -48 -34 -45 -30 4 -45 32 -29 52 14 17 50 13 63 -7z m93 -72 c0 -36 -28 -46 -44 -16 -15 27 -3 53 23 49 16 -2 21 -10 21 -33z m210 25 c11 -17 -5 -50 -24 -50 -24 0 -45 25 -37 45 6 17 51 21 61 5z m-290 -48 c6 -13 19 -22 32 -22 26 0 40 -34 23 -55 -18 -22 -36 -18 -58 13 -15 19 -24 24 -32 16 -13 -13 -3 -44 15 -44 16 0 29 -35 20 -50 -14 -22 -54 -10 -70 20 -9 17 -19 30 -24 30 -13 0 -21 27 -15 45 4 8 13 15 20 15 8 0 17 8 21 18 17 47 50 54 68 14z m190 -2 c0 -18 -6 -26 -23 -28 -13 -2 -25 3 -28 12 -10 26 4 48 28 44 17 -2 23 -10 23 -28z m-49 -75 c8 -20 -13 -45 -37 -45 -12 0 -19 -9 -21 -27 -2 -21 -9 -29 -27 -31 -13 -2 -27 2 -32 9 -11 19 8 49 32 49 16 0 19 4 14 20 -3 11 -3 24 0 30 10 16 65 12 71 -5z m92 -1 c21 -38 -14 -77 -43 -48 -18 19 -19 36 -3 52 17 17 35 15 46 -4z" transform="translate(0,140) scale(0.1,-0.1)" stroke="none" fill="#295565"/>

</g>

<g id="2" transform="translate(0,280.0)scale(0.8,0.8)">

<path d="M366 524 c-8 -21 11 -44 35 -44 24 0 42 33 27 48 -17 17 -55 15 -62 -4z" transform="translate(0,140) scale(0.1,-0.1)" stroke="none" fill="#082223"/>

<path d="M436 578 c-10 -39 -7 -48 19 -48 29 0 47 28 34 53 -14 24 -46 21 -53 -5z" transform="translate(0,140) scale(0.1,-0.1)" stroke="none" fill="#082223"/>

<path d="M552 308 c-16 -16 -15 -33 3 -52 29 -29 64 10 43 48 -11 19 -29 21 -46 4z" transform="translate(0,140) scale(0.1,-0.1)" stroke="none" fill="#082223"/>

<path d="M565 549 c-12 -19 4 -59 25 -59 26 0 46 36 29 56 -13 16 -45 19 -54 3z" transform="translate(0,140) scale(0.1,-0.1)" stroke="none" fill="#082223"/>

<path d="M289 484 c-16 -20 -1 -48 29 -52 22 -3 45 27 34 45 -13 20 -49 24 -63 7z" transform="translate(0,140) scale(0.1,-0.1)" stroke="none" fill="#082223"/>

<path d="M435 310 c-3 -6 -3 -19 0 -30 5 -16 2 -20 -14 -20 -24 0 -43 -30 -32 -49 5 -7 19 -11 32 -9 18 2 25 10 27 31 2 18 9 27 21 27 24 0 45 25 37 45 -6 17 -61 21 -71 5z" transform="translate(0,140) scale(0.1,-0.1)" stroke="none" fill="#082223"/>

<path d="M313 398 c-5 -7 -13 -21 -16 -30 -4 -10 -13 -18 -21 -18 -7 0 -16 -7 -20 -15 -6 -18 2 -45 15 -45 5 0 15 -13 24 -30 16 -30 56 -42 70 -20 9 15 -4 50 -20 50 -18 0 -28 31 -15 44 8 8 17 3 32 -16 22 -31 40 -35 58 -13 17 21 3 55 -23 55 -13 0 -26 9 -32 22 -12 27 -38 34 -52 16z" transform="translate(0,140) scale(0.1,-0.1)" stroke="none" fill="#082223"/>

<path d="M301 1306 c-6 -7 -9 -26 -6 -42 2 -16 6 -69 9 -119 6 -99 24 -277 31 -313 5 -20 10 -22 38 -17 19 4 47 0 69 -9 36 -15 98 -80 98 -102 0 -6 6 -17 14 -24 12 -9 27 -7 73 10 52 19 64 29 113 95 62 84 75 118 54 136 -19 16 -109 5 -169 -21 -26 -11 -50 -20 -54 -20 -5 0 -10 39 -13 88 -11 181 -115 352 -215 352 -17 0 -36 -6 -42 -14z" transform="translate(0,140) scale(0.1,-0.1)" stroke="none" fill="#7195A6"/>

<path d="M294 781 c-36 -22 -69 -72 -79 -119 -5 -24 -13 -33 -33 -38 -44 -9 -86 -26 -104 -42 -43 -36 -28 -110 35 -173 l37 -35 -20 -53 c-40 -104 -21 -202 49 -248 63 -42 179 -24 246 39 36 33 34 33 88 9 79 -35 123 -43 169 -30 99 26 138 72 138 162 0 41 -6 63 -25 91 -14 20 -25 40 -25 44 0 4 18 18 40 32 22 13 40 30 40 37 0 7 4 13 10 13 15 0 33 75 26 112 -19 94 -142 141 -256 99 -30 -12 -60 -21 -67 -21 -7 0 -21 17 -32 38 -11 21 -34 52 -52 70 -30 29 -39 32 -93 32 -42 0 -71 -6 -92 -19z m195 -198 c13 -25 -5 -53 -34 -53 -26 0 -29 9 -19 48 7 26 39 29 53 5z m130 -37 c17 -20 -3 -56 -29 -56 -21 0 -37 40 -25 59 9 16 41 13 54 -3z m-191 -18 c15 -15 -3 -48 -27 -48 -24 0 -43 23 -35 44 7 19 45 21 62 4z m97 -53 c0 -23 -5 -30 -19 -30 -24 0 -41 27 -33 49 4 11 15 16 29 14 18 -2 23 -9 23 -33z m-173 2 c11 -18 -12 -48 -34 -45 -30 4 -45 32 -29 52 14 17 50 13 63 -7z m93 -72 c0 -36 -28 -46 -44 -16 -15 27 -3 53 23 49 16 -2 21 -10 21 -33z m210 25 c11 -17 -5 -50 -24 -50 -24 0 -45 25 -37 45 6 17 51 21 61 5z m-290 -48 c6 -13 19 -22 32 -22 26 0 40 -34 23 -55 -18 -22 -36 -18 -58 13 -15 19 -24 24 -32 16 -13 -13 -3 -44 15 -44 16 0 29 -35 20 -50 -14 -22 -54 -10 -70 20 -9 17 -19 30 -24 30 -13 0 -21 27 -15 45 4 8 13 15 20 15 8 0 17 8 21 18 17 47 50 54 68 14z m190 -2 c0 -18 -6 -26 -23 -28 -13 -2 -25 3 -28 12 -10 26 4 48 28 44 17 -2 23 -10 23 -28z m-49 -75 c8 -20 -13 -45 -37 -45 -12 0 -19 -9 -21 -27 -2 -21 -9 -29 -27 -31 -13 -2 -27 2 -32 9 -11 19 8 49 32 49 16 0 19 4 14 20 -3 11 -3 24 0 30 10 16 65 12 71 -5z m92 -1 c21 -38 -14 -77 -43 -48 -18 19 -19 36 -3 52 17 17 35 15 46 -4z" transform="translate(0,140) scale(0.1,-0.1)" stroke="none" fill="#295565"/>

</g>

<g id="3" transform="translate(0,420.0)scale(0.8,0.8)">

<path d="M366 524 c-8 -21 11 -44 35 -44 24 0 42 33 27 48 -17 17 -55 15 -62 -4z" transform="translate(0,140) scale(0.1,-0.1)" stroke="none" fill="#082223"/>

<path d="M436 578 c-10 -39 -7 -48 19 -48 29 0 47 28 34 53 -14 24 -46 21 -53 -5z" transform="translate(0,140) scale(0.1,-0.1)" stroke="none" fill="#082223"/>

<path d="M552 308 c-16 -16 -15 -33 3 -52 29 -29 64 10 43 48 -11 19 -29 21 -46 4z" transform="translate(0,140) scale(0.1,-0.1)" stroke="none" fill="#082223"/>

<path d="M565 549 c-12 -19 4 -59 25 -59 26 0 46 36 29 56 -13 16 -45 19 -54 3z" transform="translate(0,140) scale(0.1,-0.1)" stroke="none" fill="#082223"/>

<path d="M289 484 c-16 -20 -1 -48 29 -52 22 -3 45 27 34 45 -13 20 -49 24 -63 7z" transform="translate(0,140) scale(0.1,-0.1)" stroke="none" fill="#082223"/>

<path d="M435 310 c-3 -6 -3 -19 0 -30 5 -16 2 -20 -14 -20 -24 0 -43 -30 -32 -49 5 -7 19 -11 32 -9 18 2 25 10 27 31 2 18 9 27 21 27 24 0 45 25 37 45 -6 17 -61 21 -71 5z" transform="translate(0,140) scale(0.1,-0.1)" stroke="none" fill="#082223"/>

<path d="M313 398 c-5 -7 -13 -21 -16 -30 -4 -10 -13 -18 -21 -18 -7 0 -16 -7 -20 -15 -6 -18 2 -45 15 -45 5 0 15 -13 24 -30 16 -30 56 -42 70 -20 9 15 -4 50 -20 50 -18 0 -28 31 -15 44 8 8 17 3 32 -16 22 -31 40 -35 58 -13 17 21 3 55 -23 55 -13 0 -26 9 -32 22 -12 27 -38 34 -52 16z" transform="translate(0,140) scale(0.1,-0.1)" stroke="none" fill="#082223"/>

<path d="M301 1306 c-6 -7 -9 -26 -6 -42 2 -16 6 -69 9 -119 6 -99 24 -277 31 -313 5 -20 10 -22 38 -17 19 4 47 0 69 -9 36 -15 98 -80 98 -102 0 -6 6 -17 14 -24 12 -9 27 -7 73 10 52 19 64 29 113 95 62 84 75 118 54 136 -19 16 -109 5 -169 -21 -26 -11 -50 -20 -54 -20 -5 0 -10 39 -13 88 -11 181 -115 352 -215 352 -17 0 -36 -6 -42 -14z" transform="translate(0,140) scale(0.1,-0.1)" stroke="none" fill="#7195A6"/>

<path d="M294 781 c-36 -22 -69 -72 -79 -119 -5 -24 -13 -33 -33 -38 -44 -9 -86 -26 -104 -42 -43 -36 -28 -110 35 -173 l37 -35 -20 -53 c-40 -104 -21 -202 49 -248 63 -42 179 -24 246 39 36 33 34 33 88 9 79 -35 123 -43 169 -30 99 26 138 72 138 162 0 41 -6 63 -25 91 -14 20 -25 40 -25 44 0 4 18 18 40 32 22 13 40 30 40 37 0 7 4 13 10 13 15 0 33 75 26 112 -19 94 -142 141 -256 99 -30 -12 -60 -21 -67 -21 -7 0 -21 17 -32 38 -11 21 -34 52 -52 70 -30 29 -39 32 -93 32 -42 0 -71 -6 -92 -19z m195 -198 c13 -25 -5 -53 -34 -53 -26 0 -29 9 -19 48 7 26 39 29 53 5z m130 -37 c17 -20 -3 -56 -29 -56 -21 0 -37 40 -25 59 9 16 41 13 54 -3z m-191 -18 c15 -15 -3 -48 -27 -48 -24 0 -43 23 -35 44 7 19 45 21 62 4z m97 -53 c0 -23 -5 -30 -19 -30 -24 0 -41 27 -33 49 4 11 15 16 29 14 18 -2 23 -9 23 -33z m-173 2 c11 -18 -12 -48 -34 -45 -30 4 -45 32 -29 52 14 17 50 13 63 -7z m93 -72 c0 -36 -28 -46 -44 -16 -15 27 -3 53 23 49 16 -2 21 -10 21 -33z m210 25 c11 -17 -5 -50 -24 -50 -24 0 -45 25 -37 45 6 17 51 21 61 5z m-290 -48 c6 -13 19 -22 32 -22 26 0 40 -34 23 -55 -18 -22 -36 -18 -58 13 -15 19 -24 24 -32 16 -13 -13 -3 -44 15 -44 16 0 29 -35 20 -50 -14 -22 -54 -10 -70 20 -9 17 -19 30 -24 30 -13 0 -21 27 -15 45 4 8 13 15 20 15 8 0 17 8 21 18 17 47 50 54 68 14z m190 -2 c0 -18 -6 -26 -23 -28 -13 -2 -25 3 -28 12 -10 26 4 48 28 44 17 -2 23 -10 23 -28z m-49 -75 c8 -20 -13 -45 -37 -45 -12 0 -19 -9 -21 -27 -2 -21 -9 -29 -27 -31 -13 -2 -27 2 -32 9 -11 19 8 49 32 49 16 0 19 4 14 20 -3 11 -3 24 0 30 10 16 65 12 71 -5z m92 -1 c21 -38 -14 -77 -43 -48 -18 19 -19 36 -3 52 17 17 35 15 46 -4z" transform="translate(0,140) scale(0.1,-0.1)" stroke="none" fill="#295565"/>

</g>

<g id="4" transform="translate(0,560.0)scale(0.8,0.8)">

<path d="M366 524 c-8 -21 11 -44 35 -44 24 0 42 33 27 48 -17 17 -55 15 -62 -4z" transform="translate(0,140) scale(0.1,-0.1)" stroke="none" fill="#082223"/>

<path d="M436 578 c-10 -39 -7 -48 19 -48 29 0 47 28 34 53 -14 24 -46 21 -53 -5z" transform="translate(0,140) scale(0.1,-0.1)" stroke="none" fill="#082223"/>

<path d="M552 308 c-16 -16 -15 -33 3 -52 29 -29 64 10 43 48 -11 19 -29 21 -46 4z" transform="translate(0,140) scale(0.1,-0.1)" stroke="none" fill="#082223"/>

<path d="M565 549 c-12 -19 4 -59 25 -59 26 0 46 36 29 56 -13 16 -45 19 -54 3z" transform="translate(0,140) scale(0.1,-0.1)" stroke="none" fill="#082223"/>

<path d="M289 484 c-16 -20 -1 -48 29 -52 22 -3 45 27 34 45 -13 20 -49 24 -63 7z" transform="translate(0,140) scale(0.1,-0.1)" stroke="none" fill="#082223"/>

<path d="M435 310 c-3 -6 -3 -19 0 -30 5 -16 2 -20 -14 -20 -24 0 -43 -30 -32 -49 5 -7 19 -11 32 -9 18 2 25 10 27 31 2 18 9 27 21 27 24 0 45 25 37 45 -6 17 -61 21 -71 5z" transform="translate(0,140) scale(0.1,-0.1)" stroke="none" fill="#082223"/>

<path d="M313 398 c-5 -7 -13 -21 -16 -30 -4 -10 -13 -18 -21 -18 -7 0 -16 -7 -20 -15 -6 -18 2 -45 15 -45 5 0 15 -13 24 -30 16 -30 56 -42 70 -20 9 15 -4 50 -20 50 -18 0 -28 31 -15 44 8 8 17 3 32 -16 22 -31 40 -35 58 -13 17 21 3 55 -23 55 -13 0 -26 9 -32 22 -12 27 -38 34 -52 16z" transform="translate(0,140) scale(0.1,-0.1)" stroke="none" fill="#082223"/>

<path d="M301 1306 c-6 -7 -9 -26 -6 -42 2 -16 6 -69 9 -119 6 -99 24 -277 31 -313 5 -20 10 -22 38 -17 19 4 47 0 69 -9 36 -15 98 -80 98 -102 0 -6 6 -17 14 -24 12 -9 27 -7 73 10 52 19 64 29 113 95 62 84 75 118 54 136 -19 16 -109 5 -169 -21 -26 -11 -50 -20 -54 -20 -5 0 -10 39 -13 88 -11 181 -115 352 -215 352 -17 0 -36 -6 -42 -14z" transform="translate(0,140) scale(0.1,-0.1)" stroke="none" fill="#7195A6"/>

<path d="M294 781 c-36 -22 -69 -72 -79 -119 -5 -24 -13 -33 -33 -38 -44 -9 -86 -26 -104 -42 -43 -36 -28 -110 35 -173 l37 -35 -20 -53 c-40 -104 -21 -202 49 -248 63 -42 179 -24 246 39 36 33 34 33 88 9 79 -35 123 -43 169 -30 99 26 138 72 138 162 0 41 -6 63 -25 91 -14 20 -25 40 -25 44 0 4 18 18 40 32 22 13 40 30 40 37 0 7 4 13 10 13 15 0 33 75 26 112 -19 94 -142 141 -256 99 -30 -12 -60 -21 -67 -21 -7 0 -21 17 -32 38 -11 21 -34 52 -52 70 -30 29 -39 32 -93 32 -42 0 -71 -6 -92 -19z m195 -198 c13 -25 -5 -53 -34 -53 -26 0 -29 9 -19 48 7 26 39 29 53 5z m130 -37 c17 -20 -3 -56 -29 -56 -21 0 -37 40 -25 59 9 16 41 13 54 -3z m-191 -18 c15 -15 -3 -48 -27 -48 -24 0 -43 23 -35 44 7 19 45 21 62 4z m97 -53 c0 -23 -5 -30 -19 -30 -24 0 -41 27 -33 49 4 11 15 16 29 14 18 -2 23 -9 23 -33z m-173 2 c11 -18 -12 -48 -34 -45 -30 4 -45 32 -29 52 14 17 50 13 63 -7z m93 -72 c0 -36 -28 -46 -44 -16 -15 27 -3 53 23 49 16 -2 21 -10 21 -33z m210 25 c11 -17 -5 -50 -24 -50 -24 0 -45 25 -37 45 6 17 51 21 61 5z m-290 -48 c6 -13 19 -22 32 -22 26 0 40 -34 23 -55 -18 -22 -36 -18 -58 13 -15 19 -24 24 -32 16 -13 -13 -3 -44 15 -44 16 0 29 -35 20 -50 -14 -22 -54 -10 -70 20 -9 17 -19 30 -24 30 -13 0 -21 27 -15 45 4 8 13 15 20 15 8 0 17 8 21 18 17 47 50 54 68 14z m190 -2 c0 -18 -6 -26 -23 -28 -13 -2 -25 3 -28 12 -10 26 4 48 28 44 17 -2 23 -10 23 -28z m-49 -75 c8 -20 -13 -45 -37 -45 -12 0 -19 -9 -21 -27 -2 -21 -9 -29 -27 -31 -13 -2 -27 2 -32 9 -11 19 8 49 32 49 16 0 19 4 14 20 -3 11 -3 24 0 30 10 16 65 12 71 -5z m92 -1 c21 -38 -14 -77 -43 -48 -18 19 -19 36 -3 52 17 17 35 15 46 -4z" transform="translate(0,140) scale(0.1,-0.1)" stroke="none" fill="#295565"/>

</g>

</g>
<g id="col1" transform="translate(94, -52.0)">
<g id="0" transform="translate(0,0.0)scale(0.8,0.8)">

<path d="M366 524 c-8 -21 11 -44 35 -44 24 0 42 33 27 48 -17 17 -55 15 -62 -4z" transform="translate(0,140) scale(0.1,-0.1)" stroke="none" fill="#082223"/>

<path d="M436 578 c-10 -39 -7 -48 19 -48 29 0 47 28 34 53 -14 24 -46 21 -53 -5z" transform="translate(0,140) scale(0.1,-0.1)" stroke="none" fill="#082223"/>

<path d="M552 308 c-16 -16 -15 -33 3 -52 29 -29 64 10 43 48 -11 19 -29 21 -46 4z" transform="translate(0,140) scale(0.1,-0.1)" stroke="none" fill="#082223"/>

<path d="M565 549 c-12 -19 4 -59 25 -59 26 0 46 36 29 56 -13 16 -45 19 -54 3z" transform="translate(0,140) scale(0.1,-0.1)" stroke="none" fill="#082223"/>

<path d="M289 484 c-16 -20 -1 -48 29 -52 22 -3 45 27 34 45 -13 20 -49 24 -63 7z" transform="translate(0,140) scale(0.1,-0.1)" stroke="none" fill="#082223"/>

<path d="M435 310 c-3 -6 -3 -19 0 -30 5 -16 2 -20 -14 -20 -24 0 -43 -30 -32 -49 5 -7 19 -11 32 -9 18 2 25 10 27 31 2 18 9 27 21 27 24 0 45 25 37 45 -6 17 -61 21 -71 5z" transform="translate(0,140) scale(0.1,-0.1)" stroke="none" fill="#082223"/>

<path d="M313 398 c-5 -7 -13 -21 -16 -30 -4 -10 -13 -18 -21 -18 -7 0 -16 -7 -20 -15 -6 -18 2 -45 15 -45 5 0 15 -13 24 -30 16 -30 56 -42 70 -20 9 15 -4 50 -20 50 -18 0 -28 31 -15 44 8 8 17 3 32 -16 22 -31 40 -35 58 -13 17 21 3 55 -23 55 -13 0 -26 9 -32 22 -12 27 -38 34 -52 16z" transform="translate(0,140) scale(0.1,-0.1)" stroke="none" fill="#082223"/>

<path d="M301 1306 c-6 -7 -9 -26 -6 -42 2 -16 6 -69 9 -119 6 -99 24 -277 31 -313 5 -20 10 -22 38 -17 19 4 47 0 69 -9 36 -15 98 -80 98 -102 0 -6 6 -17 14 -24 12 -9 27 -7 73 10 52 19 64 29 113 95 62 84 75 118 54 136 -19 16 -109 5 -169 -21 -26 -11 -50 -20 -54 -20 -5 0 -10 39 -13 88 -11 181 -115 352 -215 352 -17 0 -36 -6 -42 -14z" transform="translate(0,140) scale(0.1,-0.1)" stroke="none" fill="#7195A6"/>

<path d="M294 781 c-36 -22 -69 -72 -79 -119 -5 -24 -13 -33 -33 -38 -44 -9 -86 -26 -104 -42 -43 -36 -28 -110 35 -173 l37 -35 -20 -53 c-40 -104 -21 -202 49 -248 63 -42 179 -24 246 39 36 33 34 33 88 9 79 -35 123 -43 169 -30 99 26 138 72 138 162 0 41 -6 63 -25 91 -14 20 -25 40 -25 44 0 4 18 18 40 32 22 13 40 30 40 37 0 7 4 13 10 13 15 0 33 75 26 112 -19 94 -142 141 -256 99 -30 -12 -60 -21 -67 -21 -7 0 -21 17 -32 38 -11 21 -34 52 -52 70 -30 29 -39 32 -93 32 -42 0 -71 -6 -92 -19z m195 -198 c13 -25 -5 -53 -34 -53 -26 0 -29 9 -19 48 7 26 39 29 53 5z m130 -37 c17 -20 -3 -56 -29 -56 -21 0 -37 40 -25 59 9 16 41 13 54 -3z m-191 -18 c15 -15 -3 -48 -27 -48 -24 0 -43 23 -35 44 7 19 45 21 62 4z m97 -53 c0 -23 -5 -30 -19 -30 -24 0 -41 27 -33 49 4 11 15 16 29 14 18 -2 23 -9 23 -33z m-173 2 c11 -18 -12 -48 -34 -45 -30 4 -45 32 -29 52 14 17 50 13 63 -7z m93 -72 c0 -36 -28 -46 -44 -16 -15 27 -3 53 23 49 16 -2 21 -10 21 -33z m210 25 c11 -17 -5 -50 -24 -50 -24 0 -45 25 -37 45 6 17 51 21 61 5z m-290 -48 c6 -13 19 -22 32 -22 26 0 40 -34 23 -55 -18 -22 -36 -18 -58 13 -15 19 -24 24 -32 16 -13 -13 -3 -44 15 -44 16 0 29 -35 20 -50 -14 -22 -54 -10 -70 20 -9 17 -19 30 -24 30 -13 0 -21 27 -15 45 4 8 13 15 20 15 8 0 17 8 21 18 17 47 50 54 68 14z m190 -2 c0 -18 -6 -26 -23 -28 -13 -2 -25 3 -28 12 -10 26 4 48 28 44 17 -2 23 -10 23 -28z m-49 -75 c8 -20 -13 -45 -37 -45 -12 0 -19 -9 -21 -27 -2 -21 -9 -29 -27 -31 -13 -2 -27 2 -32 9 -11 19 8 49 32 49 16 0 19 4 14 20 -3 11 -3 24 0 30 10 16 65 12 71 -5z m92 -1 c21 -38 -14 -77 -43 -48 -18 19 -19 36 -3 52 17 17 35 15 46 -4z" transform="translate(0,140) scale(0.1,-0.1)" stroke="none" fill="#295565"/>

</g>

<g id="1" transform="translate(0,140.0)scale(0.8,0.8)">

<path d="M366 524 c-8 -21 11 -44 35 -44 24 0 42 33 27 48 -17 17 -55 15 -62 -4z" transform="translate(0,140) scale(0.1,-0.1)" stroke="none" fill="#082223"/>

<path d="M436 578 c-10 -39 -7 -48 19 -48 29 0 47 28 34 53 -14 24 -46 21 -53 -5z" transform="translate(0,140) scale(0.1,-0.1)" stroke="none" fill="#082223"/>

<path d="M552 308 c-16 -16 -15 -33 3 -52 29 -29 64 10 43 48 -11 19 -29 21 -46 4z" transform="translate(0,140) scale(0.1,-0.1)" stroke="none" fill="#082223"/>

<path d="M565 549 c-12 -19 4 -59 25 -59 26 0 46 36 29 56 -13 16 -45 19 -54 3z" transform="translate(0,140) scale(0.1,-0.1)" stroke="none" fill="#082223"/>

<path d="M289 484 c-16 -20 -1 -48 29 -52 22 -3 45 27 34 45 -13 20 -49 24 -63 7z" transform="translate(0,140) scale(0.1,-0.1)" stroke="none" fill="#082223"/>

<path d="M435 310 c-3 -6 -3 -19 0 -30 5 -16 2 -20 -14 -20 -24 0 -43 -30 -32 -49 5 -7 19 -11 32 -9 18 2 25 10 27 31 2 18 9 27 21 27 24 0 45 25 37 45 -6 17 -61 21 -71 5z" transform="translate(0,140) scale(0.1,-0.1)" stroke="none" fill="#082223"/>

<path d="M313 398 c-5 -7 -13 -21 -16 -30 -4 -10 -13 -18 -21 -18 -7 0 -16 -7 -20 -15 -6 -18 2 -45 15 -45 5 0 15 -13 24 -30 16 -30 56 -42 70 -20 9 15 -4 50 -20 50 -18 0 -28 31 -15 44 8 8 17 3 32 -16 22 -31 40 -35 58 -13 17 21 3 55 -23 55 -13 0 -26 9 -32 22 -12 27 -38 34 -52 16z" transform="translate(0,140) scale(0.1,-0.1)" stroke="none" fill="#082223"/>

<path d="M301 1306 c-6 -7 -9 -26 -6 -42 2 -16 6 -69 9 -119 6 -99 24 -277 31 -313 5 -20 10 -22 38 -17 19 4 47 0 69 -9 36 -15 98 -80 98 -102 0 -6 6 -17 14 -24 12 -9 27 -7 73 10 52 19 64 29 113 95 62 84 75 118 54 136 -19 16 -109 5 -169 -21 -26 -11 -50 -20 -54 -20 -5 0 -10 39 -13 88 -11 181 -115 352 -215 352 -17 0 -36 -6 -42 -14z" transform="translate(0,140) scale(0.1,-0.1)" stroke="none" fill="#7195A6"/>

<path d="M294 781 c-36 -22 -69 -72 -79 -119 -5 -24 -13 -33 -33 -38 -44 -9 -86 -26 -104 -42 -43 -36 -28 -110 35 -173 l37 -35 -20 -53 c-40 -104 -21 -202 49 -248 63 -42 179 -24 246 39 36 33 34 33 88 9 79 -35 123 -43 169 -30 99 26 138 72 138 162 0 41 -6 63 -25 91 -14 20 -25 40 -25 44 0 4 18 18 40 32 22 13 40 30 40 37 0 7 4 13 10 13 15 0 33 75 26 112 -19 94 -142 141 -256 99 -30 -12 -60 -21 -67 -21 -7 0 -21 17 -32 38 -11 21 -34 52 -52 70 -30 29 -39 32 -93 32 -42 0 -71 -6 -92 -19z m195 -198 c13 -25 -5 -53 -34 -53 -26 0 -29 9 -19 48 7 26 39 29 53 5z m130 -37 c17 -20 -3 -56 -29 -56 -21 0 -37 40 -25 59 9 16 41 13 54 -3z m-191 -18 c15 -15 -3 -48 -27 -48 -24 0 -43 23 -35 44 7 19 45 21 62 4z m97 -53 c0 -23 -5 -30 -19 -30 -24 0 -41 27 -33 49 4 11 15 16 29 14 18 -2 23 -9 23 -33z m-173 2 c11 -18 -12 -48 -34 -45 -30 4 -45 32 -29 52 14 17 50 13 63 -7z m93 -72 c0 -36 -28 -46 -44 -16 -15 27 -3 53 23 49 16 -2 21 -10 21 -33z m210 25 c11 -17 -5 -50 -24 -50 -24 0 -45 25 -37 45 6 17 51 21 61 5z m-290 -48 c6 -13 19 -22 32 -22 26 0 40 -34 23 -55 -18 -22 -36 -18 -58 13 -15 19 -24 24 -32 16 -13 -13 -3 -44 15 -44 16 0 29 -35 20 -50 -14 -22 -54 -10 -70 20 -9 17 -19 30 -24 30 -13 0 -21 27 -15 45 4 8 13 15 20 15 8 0 17 8 21 18 17 47 50 54 68 14z m190 -2 c0 -18 -6 -26 -23 -28 -13 -2 -25 3 -28 12 -10 26 4 48 28 44 17 -2 23 -10 23 -28z m-49 -75 c8 -20 -13 -45 -37 -45 -12 0 -19 -9 -21 -27 -2 -21 -9 -29 -27 -31 -13 -2 -27 2 -32 9 -11 19 8 49 32 49 16 0 19 4 14 20 -3 11 -3 24 0 30 10 16 65 12 71 -5z m92 -1 c21 -38 -14 -77 -43 -48 -18 19 -19 36 -3 52 17 17 35 15 46 -4z" transform="translate(0,140) scale(0.1,-0.1)" stroke="none" fill="#295565"/>

</g>

<g id="2" transform="translate(0,280.0)scale(0.8,0.8)">

<path d="M366 524 c-8 -21 11 -44 35 -44 24 0 42 33 27 48 -17 17 -55 15 -62 -4z" transform="translate(0,140) scale(0.1,-0.1)" stroke="none" fill="#082223"/>

<path d="M436 578 c-10 -39 -7 -48 19 -48 29 0 47 28 34 53 -14 24 -46 21 -53 -5z" transform="translate(0,140) scale(0.1,-0.1)" stroke="none" fill="#082223"/>

<path d="M552 308 c-16 -16 -15 -33 3 -52 29 -29 64 10 43 48 -11 19 -29 21 -46 4z" transform="translate(0,140) scale(0.1,-0.1)" stroke="none" fill="#082223"/>

<path d="M565 549 c-12 -19 4 -59 25 -59 26 0 46 36 29 56 -13 16 -45 19 -54 3z" transform="translate(0,140) scale(0.1,-0.1)" stroke="none" fill="#082223"/>

<path d="M289 484 c-16 -20 -1 -48 29 -52 22 -3 45 27 34 45 -13 20 -49 24 -63 7z" transform="translate(0,140) scale(0.1,-0.1)" stroke="none" fill="#082223"/>

<path d="M435 310 c-3 -6 -3 -19 0 -30 5 -16 2 -20 -14 -20 -24 0 -43 -30 -32 -49 5 -7 19 -11 32 -9 18 2 25 10 27 31 2 18 9 27 21 27 24 0 45 25 37 45 -6 17 -61 21 -71 5z" transform="translate(0,140) scale(0.1,-0.1)" stroke="none" fill="#082223"/>

<path d="M313 398 c-5 -7 -13 -21 -16 -30 -4 -10 -13 -18 -21 -18 -7 0 -16 -7 -20 -15 -6 -18 2 -45 15 -45 5 0 15 -13 24 -30 16 -30 56 -42 70 -20 9 15 -4 50 -20 50 -18 0 -28 31 -15 44 8 8 17 3 32 -16 22 -31 40 -35 58 -13 17 21 3 55 -23 55 -13 0 -26 9 -32 22 -12 27 -38 34 -52 16z" transform="translate(0,140) scale(0.1,-0.1)" stroke="none" fill="#082223"/>

<path d="M301 1306 c-6 -7 -9 -26 -6 -42 2 -16 6 -69 9 -119 6 -99 24 -277 31 -313 5 -20 10 -22 38 -17 19 4 47 0 69 -9 36 -15 98 -80 98 -102 0 -6 6 -17 14 -24 12 -9 27 -7 73 10 52 19 64 29 113 95 62 84 75 118 54 136 -19 16 -109 5 -169 -21 -26 -11 -50 -20 -54 -20 -5 0 -10 39 -13 88 -11 181 -115 352 -215 352 -17 0 -36 -6 -42 -14z" transform="translate(0,140) scale(0.1,-0.1)" stroke="none" fill="#7195A6"/>

<path d="M294 781 c-36 -22 -69 -72 -79 -119 -5 -24 -13 -33 -33 -38 -44 -9 -86 -26 -104 -42 -43 -36 -28 -110 35 -173 l37 -35 -20 -53 c-40 -104 -21 -202 49 -248 63 -42 179 -24 246 39 36 33 34 33 88 9 79 -35 123 -43 169 -30 99 26 138 72 138 162 0 41 -6 63 -25 91 -14 20 -25 40 -25 44 0 4 18 18 40 32 22 13 40 30 40 37 0 7 4 13 10 13 15 0 33 75 26 112 -19 94 -142 141 -256 99 -30 -12 -60 -21 -67 -21 -7 0 -21 17 -32 38 -11 21 -34 52 -52 70 -30 29 -39 32 -93 32 -42 0 -71 -6 -92 -19z m195 -198 c13 -25 -5 -53 -34 -53 -26 0 -29 9 -19 48 7 26 39 29 53 5z m130 -37 c17 -20 -3 -56 -29 -56 -21 0 -37 40 -25 59 9 16 41 13 54 -3z m-191 -18 c15 -15 -3 -48 -27 -48 -24 0 -43 23 -35 44 7 19 45 21 62 4z m97 -53 c0 -23 -5 -30 -19 -30 -24 0 -41 27 -33 49 4 11 15 16 29 14 18 -2 23 -9 23 -33z m-173 2 c11 -18 -12 -48 -34 -45 -30 4 -45 32 -29 52 14 17 50 13 63 -7z m93 -72 c0 -36 -28 -46 -44 -16 -15 27 -3 53 23 49 16 -2 21 -10 21 -33z m210 25 c11 -17 -5 -50 -24 -50 -24 0 -45 25 -37 45 6 17 51 21 61 5z m-290 -48 c6 -13 19 -22 32 -22 26 0 40 -34 23 -55 -18 -22 -36 -18 -58 13 -15 19 -24 24 -32 16 -13 -13 -3 -44 15 -44 16 0 29 -35 20 -50 -14 -22 -54 -10 -70 20 -9 17 -19 30 -24 30 -13 0 -21 27 -15 45 4 8 13 15 20 15 8 0 17 8 21 18 17 47 50 54 68 14z m190 -2 c0 -18 -6 -26 -23 -28 -13 -2 -25 3 -28 12 -10 26 4 48 28 44 17 -2 23 -10 23 -28z m-49 -75 c8 -20 -13 -45 -37 -45 -12 0 -19 -9 -21 -27 -2 -21 -9 -29 -27 -31 -13 -2 -27 2 -32 9 -11 19 8 49 32 49 16 0 19 4 14 20 -3 11 -3 24 0 30 10 16 65 12 71 -5z m92 -1 c21 -38 -14 -77 -43 -48 -18 19 -19 36 -3 52 17 17 35 15 46 -4z" transform="translate(0,140) scale(0.1,-0.1)" stroke="none" fill="#295565"/>

</g>

<g id="3" transform="translate(0,420.0)scale(0.8,0.8)">

<path d="M366 524 c-8 -21 11 -44 35 -44 24 0 42 33 27 48 -17 17 -55 15 -62 -4z" transform="translate(0,140) scale(0.1,-0.1)" stroke="none" fill="#082223"/>

<path d="M436 578 c-10 -39 -7 -48 19 -48 29 0 47 28 34 53 -14 24 -46 21 -53 -5z" transform="translate(0,140) scale(0.1,-0.1)" stroke="none" fill="#082223"/>

<path d="M552 308 c-16 -16 -15 -33 3 -52 29 -29 64 10 43 48 -11 19 -29 21 -46 4z" transform="translate(0,140) scale(0.1,-0.1)" stroke="none" fill="#082223"/>

<path d="M565 549 c-12 -19 4 -59 25 -59 26 0 46 36 29 56 -13 16 -45 19 -54 3z" transform="translate(0,140) scale(0.1,-0.1)" stroke="none" fill="#082223"/>

<path d="M289 484 c-16 -20 -1 -48 29 -52 22 -3 45 27 34 45 -13 20 -49 24 -63 7z" transform="translate(0,140) scale(0.1,-0.1)" stroke="none" fill="#082223"/>

<path d="M435 310 c-3 -6 -3 -19 0 -30 5 -16 2 -20 -14 -20 -24 0 -43 -30 -32 -49 5 -7 19 -11 32 -9 18 2 25 10 27 31 2 18 9 27 21 27 24 0 45 25 37 45 -6 17 -61 21 -71 5z" transform="translate(0,140) scale(0.1,-0.1)" stroke="none" fill="#082223"/>

<path d="M313 398 c-5 -7 -13 -21 -16 -30 -4 -10 -13 -18 -21 -18 -7 0 -16 -7 -20 -15 -6 -18 2 -45 15 -45 5 0 15 -13 24 -30 16 -30 56 -42 70 -20 9 15 -4 50 -20 50 -18 0 -28 31 -15 44 8 8 17 3 32 -16 22 -31 40 -35 58 -13 17 21 3 55 -23 55 -13 0 -26 9 -32 22 -12 27 -38 34 -52 16z" transform="translate(0,140) scale(0.1,-0.1)" stroke="none" fill="#082223"/>

<path d="M301 1306 c-6 -7 -9 -26 -6 -42 2 -16 6 -69 9 -119 6 -99 24 -277 31 -313 5 -20 10 -22 38 -17 19 4 47 0 69 -9 36 -15 98 -80 98 -102 0 -6 6 -17 14 -24 12 -9 27 -7 73 10 52 19 64 29 113 95 62 84 75 118 54 136 -19 16 -109 5 -169 -21 -26 -11 -50 -20 -54 -20 -5 0 -10 39 -13 88 -11 181 -115 352 -215 352 -17 0 -36 -6 -42 -14z" transform="translate(0,140) scale(0.1,-0.1)" stroke="none" fill="#7195A6"/>

<path d="M294 781 c-36 -22 -69 -72 -79 -119 -5 -24 -13 -33 -33 -38 -44 -9 -86 -26 -104 -42 -43 -36 -28 -110 35 -173 l37 -35 -20 -53 c-40 -104 -21 -202 49 -248 63 -42 179 -24 246 39 36 33 34 33 88 9 79 -35 123 -43 169 -30 99 26 138 72 138 162 0 41 -6 63 -25 91 -14 20 -25 40 -25 44 0 4 18 18 40 32 22 13 40 30 40 37 0 7 4 13 10 13 15 0 33 75 26 112 -19 94 -142 141 -256 99 -30 -12 -60 -21 -67 -21 -7 0 -21 17 -32 38 -11 21 -34 52 -52 70 -30 29 -39 32 -93 32 -42 0 -71 -6 -92 -19z m195 -198 c13 -25 -5 -53 -34 -53 -26 0 -29 9 -19 48 7 26 39 29 53 5z m130 -37 c17 -20 -3 -56 -29 -56 -21 0 -37 40 -25 59 9 16 41 13 54 -3z m-191 -18 c15 -15 -3 -48 -27 -48 -24 0 -43 23 -35 44 7 19 45 21 62 4z m97 -53 c0 -23 -5 -30 -19 -30 -24 0 -41 27 -33 49 4 11 15 16 29 14 18 -2 23 -9 23 -33z m-173 2 c11 -18 -12 -48 -34 -45 -30 4 -45 32 -29 52 14 17 50 13 63 -7z m93 -72 c0 -36 -28 -46 -44 -16 -15 27 -3 53 23 49 16 -2 21 -10 21 -33z m210 25 c11 -17 -5 -50 -24 -50 -24 0 -45 25 -37 45 6 17 51 21 61 5z m-290 -48 c6 -13 19 -22 32 -22 26 0 40 -34 23 -55 -18 -22 -36 -18 -58 13 -15 19 -24 24 -32 16 -13 -13 -3 -44 15 -44 16 0 29 -35 20 -50 -14 -22 -54 -10 -70 20 -9 17 -19 30 -24 30 -13 0 -21 27 -15 45 4 8 13 15 20 15 8 0 17 8 21 18 17 47 50 54 68 14z m190 -2 c0 -18 -6 -26 -23 -28 -13 -2 -25 3 -28 12 -10 26 4 48 28 44 17 -2 23 -10 23 -28z m-49 -75 c8 -20 -13 -45 -37 -45 -12 0 -19 -9 -21 -27 -2 -21 -9 -29 -27 -31 -13 -2 -27 2 -32 9 -11 19 8 49 32 49 16 0 19 4 14 20 -3 11 -3 24 0 30 10 16 65 12 71 -5z m92 -1 c21 -38 -14 -77 -43 -48 -18 19 -19 36 -3 52 17 17 35 15 46 -4z" transform="translate(0,140) scale(0.1,-0.1)" stroke="none" fill="#295565"/>

</g>

<g id="4" transform="translate(0,560.0)scale(0.8,0.8)">

<path d="M366 524 c-8 -21 11 -44 35 -44 24 0 42 33 27 48 -17 17 -55 15 -62 -4z" transform="translate(0,140) scale(0.1,-0.1)" stroke="none" fill="#082223"/>

<path d="M436 578 c-10 -39 -7 -48 19 -48 29 0 47 28 34 53 -14 24 -46 21 -53 -5z" transform="translate(0,140) scale(0.1,-0.1)" stroke="none" fill="#082223"/>

<path d="M552 308 c-16 -16 -15 -33 3 -52 29 -29 64 10 43 48 -11 19 -29 21 -46 4z" transform="translate(0,140) scale(0.1,-0.1)" stroke="none" fill="#082223"/>

<path d="M565 549 c-12 -19 4 -59 25 -59 26 0 46 36 29 56 -13 16 -45 19 -54 3z" transform="translate(0,140) scale(0.1,-0.1)" stroke="none" fill="#082223"/>

<path d="M289 484 c-16 -20 -1 -48 29 -52 22 -3 45 27 34 45 -13 20 -49 24 -63 7z" transform="translate(0,140) scale(0.1,-0.1)" stroke="none" fill="#082223"/>

<path d="M435 310 c-3 -6 -3 -19 0 -30 5 -16 2 -20 -14 -20 -24 0 -43 -30 -32 -49 5 -7 19 -11 32 -9 18 2 25 10 27 31 2 18 9 27 21 27 24 0 45 25 37 45 -6 17 -61 21 -71 5z" transform="translate(0,140) scale(0.1,-0.1)" stroke="none" fill="#082223"/>

<path d="M313 398 c-5 -7 -13 -21 -16 -30 -4 -10 -13 -18 -21 -18 -7 0 -16 -7 -20 -15 -6 -18 2 -45 15 -45 5 0 15 -13 24 -30 16 -30 56 -42 70 -20 9 15 -4 50 -20 50 -18 0 -28 31 -15 44 8 8 17 3 32 -16 22 -31 40 -35 58 -13 17 21 3 55 -23 55 -13 0 -26 9 -32 22 -12 27 -38 34 -52 16z" transform="translate(0,140) scale(0.1,-0.1)" stroke="none" fill="#082223"/>

<path d="M301 1306 c-6 -7 -9 -26 -6 -42 2 -16 6 -69 9 -119 6 -99 24 -277 31 -313 5 -20 10 -22 38 -17 19 4 47 0 69 -9 36 -15 98 -80 98 -102 0 -6 6 -17 14 -24 12 -9 27 -7 73 10 52 19 64 29 113 95 62 84 75 118 54 136 -19 16 -109 5 -169 -21 -26 -11 -50 -20 -54 -20 -5 0 -10 39 -13 88 -11 181 -115 352 -215 352 -17 0 -36 -6 -42 -14z" transform="translate(0,140) scale(0.1,-0.1)" stroke="none" fill="#7195A6"/>

<path d="M294 781 c-36 -22 -69 -72 -79 -119 -5 -24 -13 -33 -33 -38 -44 -9 -86 -26 -104 -42 -43 -36 -28 -110 35 -173 l37 -35 -20 -53 c-40 -104 -21 -202 49 -248 63 -42 179 -24 246 39 36 33 34 33 88 9 79 -35 123 -43 169 -30 99 26 138 72 138 162 0 41 -6 63 -25 91 -14 20 -25 40 -25 44 0 4 18 18 40 32 22 13 40 30 40 37 0 7 4 13 10 13 15 0 33 75 26 112 -19 94 -142 141 -256 99 -30 -12 -60 -21 -67 -21 -7 0 -21 17 -32 38 -11 21 -34 52 -52 70 -30 29 -39 32 -93 32 -42 0 -71 -6 -92 -19z m195 -198 c13 -25 -5 -53 -34 -53 -26 0 -29 9 -19 48 7 26 39 29 53 5z m130 -37 c17 -20 -3 -56 -29 -56 -21 0 -37 40 -25 59 9 16 41 13 54 -3z m-191 -18 c15 -15 -3 -48 -27 -48 -24 0 -43 23 -35 44 7 19 45 21 62 4z m97 -53 c0 -23 -5 -30 -19 -30 -24 0 -41 27 -33 49 4 11 15 16 29 14 18 -2 23 -9 23 -33z m-173 2 c11 -18 -12 -48 -34 -45 -30 4 -45 32 -29 52 14 17 50 13 63 -7z m93 -72 c0 -36 -28 -46 -44 -16 -15 27 -3 53 23 49 16 -2 21 -10 21 -33z m210 25 c11 -17 -5 -50 -24 -50 -24 0 -45 25 -37 45 6 17 51 21 61 5z m-290 -48 c6 -13 19 -22 32 -22 26 0 40 -34 23 -55 -18 -22 -36 -18 -58 13 -15 19 -24 24 -32 16 -13 -13 -3 -44 15 -44 16 0 29 -35 20 -50 -14 -22 -54 -10 -70 20 -9 17 -19 30 -24 30 -13 0 -21 27 -15 45 4 8 13 15 20 15 8 0 17 8 21 18 17 47 50 54 68 14z m190 -2 c0 -18 -6 -26 -23 -28 -13 -2 -25 3 -28 12 -10 26 4 48 28 44 17 -2 23 -10 23 -28z m-49 -75 c8 -20 -13 -45 -37 -45 -12 0 -19 -9 -21 -27 -2 -21 -9 -29 -27 -31 -13 -2 -27 2 -32 9 -11 19 8 49 32 49 16 0 19 4 14 20 -3 11 -3 24 0 30 10 16 65 12 71 -5z m92 -1 c21 -38 -14 -77 -43 -48 -18 19 -19 36 -3 52 17 17 35 15 46 -4z" transform="translate(0,140) scale(0.1,-0.1)" stroke="none" fill="#295565"/>

</g>

</g>
<g id="col2" transform="translate(188, 18)">
<g id="0" transform="translate(0,0.0)scale(0.8,0.8)">

<path d="M366 524 c-8 -21 11 -44 35 -44 24 0 42 33 27 48 -17 17 -55 15 -62 -4z" transform="translate(0,140) scale(0.1,-0.1)" stroke="none" fill="#082223"/>

<path d="M436 578 c-10 -39 -7 -48 19 -48 29 0 47 28 34 53 -14 24 -46 21 -53 -5z" transform="translate(0,140) scale(0.1,-0.1)" stroke="none" fill="#082223"/>

<path d="M552 308 c-16 -16 -15 -33 3 -52 29 -29 64 10 43 48 -11 19 -29 21 -46 4z" transform="translate(0,140) scale(0.1,-0.1)" stroke="none" fill="#082223"/>

<path d="M565 549 c-12 -19 4 -59 25 -59 26 0 46 36 29 56 -13 16 -45 19 -54 3z" transform="translate(0,140) scale(0.1,-0.1)" stroke="none" fill="#082223"/>

<path d="M289 484 c-16 -20 -1 -48 29 -52 22 -3 45 27 34 45 -13 20 -49 24 -63 7z" transform="translate(0,140) scale(0.1,-0.1)" stroke="none" fill="#082223"/>

<path d="M435 310 c-3 -6 -3 -19 0 -30 5 -16 2 -20 -14 -20 -24 0 -43 -30 -32 -49 5 -7 19 -11 32 -9 18 2 25 10 27 31 2 18 9 27 21 27 24 0 45 25 37 45 -6 17 -61 21 -71 5z" transform="translate(0,140) scale(0.1,-0.1)" stroke="none" fill="#082223"/>

<path d="M313 398 c-5 -7 -13 -21 -16 -30 -4 -10 -13 -18 -21 -18 -7 0 -16 -7 -20 -15 -6 -18 2 -45 15 -45 5 0 15 -13 24 -30 16 -30 56 -42 70 -20 9 15 -4 50 -20 50 -18 0 -28 31 -15 44 8 8 17 3 32 -16 22 -31 40 -35 58 -13 17 21 3 55 -23 55 -13 0 -26 9 -32 22 -12 27 -38 34 -52 16z" transform="translate(0,140) scale(0.1,-0.1)" stroke="none" fill="#082223"/>

<path d="M301 1306 c-6 -7 -9 -26 -6 -42 2 -16 6 -69 9 -119 6 -99 24 -277 31 -313 5 -20 10 -22 38 -17 19 4 47 0 69 -9 36 -15 98 -80 98 -102 0 -6 6 -17 14 -24 12 -9 27 -7 73 10 52 19 64 29 113 95 62 84 75 118 54 136 -19 16 -109 5 -169 -21 -26 -11 -50 -20 -54 -20 -5 0 -10 39 -13 88 -11 181 -115 352 -215 352 -17 0 -36 -6 -42 -14z" transform="translate(0,140) scale(0.1,-0.1)" stroke="none" fill="#7195A6"/>

<path d="M294 781 c-36 -22 -69 -72 -79 -119 -5 -24 -13 -33 -33 -38 -44 -9 -86 -26 -104 -42 -43 -36 -28 -110 35 -173 l37 -35 -20 -53 c-40 -104 -21 -202 49 -248 63 -42 179 -24 246 39 36 33 34 33 88 9 79 -35 123 -43 169 -30 99 26 138 72 138 162 0 41 -6 63 -25 91 -14 20 -25 40 -25 44 0 4 18 18 40 32 22 13 40 30 40 37 0 7 4 13 10 13 15 0 33 75 26 112 -19 94 -142 141 -256 99 -30 -12 -60 -21 -67 -21 -7 0 -21 17 -32 38 -11 21 -34 52 -52 70 -30 29 -39 32 -93 32 -42 0 -71 -6 -92 -19z m195 -198 c13 -25 -5 -53 -34 -53 -26 0 -29 9 -19 48 7 26 39 29 53 5z m130 -37 c17 -20 -3 -56 -29 -56 -21 0 -37 40 -25 59 9 16 41 13 54 -3z m-191 -18 c15 -15 -3 -48 -27 -48 -24 0 -43 23 -35 44 7 19 45 21 62 4z m97 -53 c0 -23 -5 -30 -19 -30 -24 0 -41 27 -33 49 4 11 15 16 29 14 18 -2 23 -9 23 -33z m-173 2 c11 -18 -12 -48 -34 -45 -30 4 -45 32 -29 52 14 17 50 13 63 -7z m93 -72 c0 -36 -28 -46 -44 -16 -15 27 -3 53 23 49 16 -2 21 -10 21 -33z m210 25 c11 -17 -5 -50 -24 -50 -24 0 -45 25 -37 45 6 17 51 21 61 5z m-290 -48 c6 -13 19 -22 32 -22 26 0 40 -34 23 -55 -18 -22 -36 -18 -58 13 -15 19 -24 24 -32 16 -13 -13 -3 -44 15 -44 16 0 29 -35 20 -50 -14 -22 -54 -10 -70 20 -9 17 -19 30 -24 30 -13 0 -21 27 -15 45 4 8 13 15 20 15 8 0 17 8 21 18 17 47 50 54 68 14z m190 -2 c0 -18 -6 -26 -23 -28 -13 -2 -25 3 -28 12 -10 26 4 48 28 44 17 -2 23 -10 23 -28z m-49 -75 c8 -20 -13 -45 -37 -45 -12 0 -19 -9 -21 -27 -2 -21 -9 -29 -27 -31 -13 -2 -27 2 -32 9 -11 19 8 49 32 49 16 0 19 4 14 20 -3 11 -3 24 0 30 10 16 65 12 71 -5z m92 -1 c21 -38 -14 -77 -43 -48 -18 19 -19 36 -3 52 17 17 35 15 46 -4z" transform="translate(0,140) scale(0.1,-0.1)" stroke="none" fill="#295565"/>

</g>

<g id="1" transform="translate(0,140.0)scale(0.8,0.8)">

<path d="M366 524 c-8 -21 11 -44 35 -44 24 0 42 33 27 48 -17 17 -55 15 -62 -4z" transform="translate(0,140) scale(0.1,-0.1)" stroke="none" fill="#082223"/>

<path d="M436 578 c-10 -39 -7 -48 19 -48 29 0 47 28 34 53 -14 24 -46 21 -53 -5z" transform="translate(0,140) scale(0.1,-0.1)" stroke="none" fill="#082223"/>

<path d="M552 308 c-16 -16 -15 -33 3 -52 29 -29 64 10 43 48 -11 19 -29 21 -46 4z" transform="translate(0,140) scale(0.1,-0.1)" stroke="none" fill="#082223"/>

<path d="M565 549 c-12 -19 4 -59 25 -59 26 0 46 36 29 56 -13 16 -45 19 -54 3z" transform="translate(0,140) scale(0.1,-0.1)" stroke="none" fill="#082223"/>

<path d="M289 484 c-16 -20 -1 -48 29 -52 22 -3 45 27 34 45 -13 20 -49 24 -63 7z" transform="translate(0,140) scale(0.1,-0.1)" stroke="none" fill="#082223"/>

<path d="M435 310 c-3 -6 -3 -19 0 -30 5 -16 2 -20 -14 -20 -24 0 -43 -30 -32 -49 5 -7 19 -11 32 -9 18 2 25 10 27 31 2 18 9 27 21 27 24 0 45 25 37 45 -6 17 -61 21 -71 5z" transform="translate(0,140) scale(0.1,-0.1)" stroke="none" fill="#082223"/>

<path d="M313 398 c-5 -7 -13 -21 -16 -30 -4 -10 -13 -18 -21 -18 -7 0 -16 -7 -20 -15 -6 -18 2 -45 15 -45 5 0 15 -13 24 -30 16 -30 56 -42 70 -20 9 15 -4 50 -20 50 -18 0 -28 31 -15 44 8 8 17 3 32 -16 22 -31 40 -35 58 -13 17 21 3 55 -23 55 -13 0 -26 9 -32 22 -12 27 -38 34 -52 16z" transform="translate(0,140) scale(0.1,-0.1)" stroke="none" fill="#082223"/>

<path d="M301 1306 c-6 -7 -9 -26 -6 -42 2 -16 6 -69 9 -119 6 -99 24 -277 31 -313 5 -20 10 -22 38 -17 19 4 47 0 69 -9 36 -15 98 -80 98 -102 0 -6 6 -17 14 -24 12 -9 27 -7 73 10 52 19 64 29 113 95 62 84 75 118 54 136 -19 16 -109 5 -169 -21 -26 -11 -50 -20 -54 -20 -5 0 -10 39 -13 88 -11 181 -115 352 -215 352 -17 0 -36 -6 -42 -14z" transform="translate(0,140) scale(0.1,-0.1)" stroke="none" fill="#7195A6"/>

<path d="M294 781 c-36 -22 -69 -72 -79 -119 -5 -24 -13 -33 -33 -38 -44 -9 -86 -26 -104 -42 -43 -36 -28 -110 35 -173 l37 -35 -20 -53 c-40 -104 -21 -202 49 -248 63 -42 179 -24 246 39 36 33 34 33 88 9 79 -35 123 -43 169 -30 99 26 138 72 138 162 0 41 -6 63 -25 91 -14 20 -25 40 -25 44 0 4 18 18 40 32 22 13 40 30 40 37 0 7 4 13 10 13 15 0 33 75 26 112 -19 94 -142 141 -256 99 -30 -12 -60 -21 -67 -21 -7 0 -21 17 -32 38 -11 21 -34 52 -52 70 -30 29 -39 32 -93 32 -42 0 -71 -6 -92 -19z m195 -198 c13 -25 -5 -53 -34 -53 -26 0 -29 9 -19 48 7 26 39 29 53 5z m130 -37 c17 -20 -3 -56 -29 -56 -21 0 -37 40 -25 59 9 16 41 13 54 -3z m-191 -18 c15 -15 -3 -48 -27 -48 -24 0 -43 23 -35 44 7 19 45 21 62 4z m97 -53 c0 -23 -5 -30 -19 -30 -24 0 -41 27 -33 49 4 11 15 16 29 14 18 -2 23 -9 23 -33z m-173 2 c11 -18 -12 -48 -34 -45 -30 4 -45 32 -29 52 14 17 50 13 63 -7z m93 -72 c0 -36 -28 -46 -44 -16 -15 27 -3 53 23 49 16 -2 21 -10 21 -33z m210 25 c11 -17 -5 -50 -24 -50 -24 0 -45 25 -37 45 6 17 51 21 61 5z m-290 -48 c6 -13 19 -22 32 -22 26 0 40 -34 23 -55 -18 -22 -36 -18 -58 13 -15 19 -24 24 -32 16 -13 -13 -3 -44 15 -44 16 0 29 -35 20 -50 -14 -22 -54 -10 -70 20 -9 17 -19 30 -24 30 -13 0 -21 27 -15 45 4 8 13 15 20 15 8 0 17 8 21 18 17 47 50 54 68 14z m190 -2 c0 -18 -6 -26 -23 -28 -13 -2 -25 3 -28 12 -10 26 4 48 28 44 17 -2 23 -10 23 -28z m-49 -75 c8 -20 -13 -45 -37 -45 -12 0 -19 -9 -21 -27 -2 -21 -9 -29 -27 -31 -13 -2 -27 2 -32 9 -11 19 8 49 32 49 16 0 19 4 14 20 -3 11 -3 24 0 30 10 16 65 12 71 -5z m92 -1 c21 -38 -14 -77 -43 -48 -18 19 -19 36 -3 52 17 17 35 15 46 -4z" transform="translate(0,140) scale(0.1,-0.1)" stroke="none" fill="#295565"/>

</g>

<g id="2" transform="translate(0,280.0)scale(0.8,0.8)">

<path d="M366 524 c-8 -21 11 -44 35 -44 24 0 42 33 27 48 -17 17 -55 15 -62 -4z" transform="translate(0,140) scale(0.1,-0.1)" stroke="none" fill="#082223"/>

<path d="M436 578 c-10 -39 -7 -48 19 -48 29 0 47 28 34 53 -14 24 -46 21 -53 -5z" transform="translate(0,140) scale(0.1,-0.1)" stroke="none" fill="#082223"/>

<path d="M552 308 c-16 -16 -15 -33 3 -52 29 -29 64 10 43 48 -11 19 -29 21 -46 4z" transform="translate(0,140) scale(0.1,-0.1)" stroke="none" fill="#082223"/>

<path d="M565 549 c-12 -19 4 -59 25 -59 26 0 46 36 29 56 -13 16 -45 19 -54 3z" transform="translate(0,140) scale(0.1,-0.1)" stroke="none" fill="#082223"/>

<path d="M289 484 c-16 -20 -1 -48 29 -52 22 -3 45 27 34 45 -13 20 -49 24 -63 7z" transform="translate(0,140) scale(0.1,-0.1)" stroke="none" fill="#082223"/>

<path d="M435 310 c-3 -6 -3 -19 0 -30 5 -16 2 -20 -14 -20 -24 0 -43 -30 -32 -49 5 -7 19 -11 32 -9 18 2 25 10 27 31 2 18 9 27 21 27 24 0 45 25 37 45 -6 17 -61 21 -71 5z" transform="translate(0,140) scale(0.1,-0.1)" stroke="none" fill="#082223"/>

<path d="M313 398 c-5 -7 -13 -21 -16 -30 -4 -10 -13 -18 -21 -18 -7 0 -16 -7 -20 -15 -6 -18 2 -45 15 -45 5 0 15 -13 24 -30 16 -30 56 -42 70 -20 9 15 -4 50 -20 50 -18 0 -28 31 -15 44 8 8 17 3 32 -16 22 -31 40 -35 58 -13 17 21 3 55 -23 55 -13 0 -26 9 -32 22 -12 27 -38 34 -52 16z" transform="translate(0,140) scale(0.1,-0.1)" stroke="none" fill="#082223"/>

<path d="M301 1306 c-6 -7 -9 -26 -6 -42 2 -16 6 -69 9 -119 6 -99 24 -277 31 -313 5 -20 10 -22 38 -17 19 4 47 0 69 -9 36 -15 98 -80 98 -102 0 -6 6 -17 14 -24 12 -9 27 -7 73 10 52 19 64 29 113 95 62 84 75 118 54 136 -19 16 -109 5 -169 -21 -26 -11 -50 -20 -54 -20 -5 0 -10 39 -13 88 -11 181 -115 352 -215 352 -17 0 -36 -6 -42 -14z" transform="translate(0,140) scale(0.1,-0.1)" stroke="none" fill="#7195A6"/>

<path d="M294 781 c-36 -22 -69 -72 -79 -119 -5 -24 -13 -33 -33 -38 -44 -9 -86 -26 -104 -42 -43 -36 -28 -110 35 -173 l37 -35 -20 -53 c-40 -104 -21 -202 49 -248 63 -42 179 -24 246 39 36 33 34 33 88 9 79 -35 123 -43 169 -30 99 26 138 72 138 162 0 41 -6 63 -25 91 -14 20 -25 40 -25 44 0 4 18 18 40 32 22 13 40 30 40 37 0 7 4 13 10 13 15 0 33 75 26 112 -19 94 -142 141 -256 99 -30 -12 -60 -21 -67 -21 -7 0 -21 17 -32 38 -11 21 -34 52 -52 70 -30 29 -39 32 -93 32 -42 0 -71 -6 -92 -19z m195 -198 c13 -25 -5 -53 -34 -53 -26 0 -29 9 -19 48 7 26 39 29 53 5z m130 -37 c17 -20 -3 -56 -29 -56 -21 0 -37 40 -25 59 9 16 41 13 54 -3z m-191 -18 c15 -15 -3 -48 -27 -48 -24 0 -43 23 -35 44 7 19 45 21 62 4z m97 -53 c0 -23 -5 -30 -19 -30 -24 0 -41 27 -33 49 4 11 15 16 29 14 18 -2 23 -9 23 -33z m-173 2 c11 -18 -12 -48 -34 -45 -30 4 -45 32 -29 52 14 17 50 13 63 -7z m93 -72 c0 -36 -28 -46 -44 -16 -15 27 -3 53 23 49 16 -2 21 -10 21 -33z m210 25 c11 -17 -5 -50 -24 -50 -24 0 -45 25 -37 45 6 17 51 21 61 5z m-290 -48 c6 -13 19 -22 32 -22 26 0 40 -34 23 -55 -18 -22 -36 -18 -58 13 -15 19 -24 24 -32 16 -13 -13 -3 -44 15 -44 16 0 29 -35 20 -50 -14 -22 -54 -10 -70 20 -9 17 -19 30 -24 30 -13 0 -21 27 -15 45 4 8 13 15 20 15 8 0 17 8 21 18 17 47 50 54 68 14z m190 -2 c0 -18 -6 -26 -23 -28 -13 -2 -25 3 -28 12 -10 26 4 48 28 44 17 -2 23 -10 23 -28z m-49 -75 c8 -20 -13 -45 -37 -45 -12 0 -19 -9 -21 -27 -2 -21 -9 -29 -27 -31 -13 -2 -27 2 -32 9 -11 19 8 49 32 49 16 0 19 4 14 20 -3 11 -3 24 0 30 10 16 65 12 71 -5z m92 -1 c21 -38 -14 -77 -43 -48 -18 19 -19 36 -3 52 17 17 35 15 46 -4z" transform="translate(0,140) scale(0.1,-0.1)" stroke="none" fill="#295565"/>

</g>

<g id="3" transform="translate(0,420.0)scale(0.8,0.8)">

<path d="M366 524 c-8 -21 11 -44 35 -44 24 0 42 33 27 48 -17 17 -55 15 -62 -4z" transform="translate(0,140) scale(0.1,-0.1)" stroke="none" fill="#082223"/>

<path d="M436 578 c-10 -39 -7 -48 19 -48 29 0 47 28 34 53 -14 24 -46 21 -53 -5z" transform="translate(0,140) scale(0.1,-0.1)" stroke="none" fill="#082223"/>

<path d="M552 308 c-16 -16 -15 -33 3 -52 29 -29 64 10 43 48 -11 19 -29 21 -46 4z" transform="translate(0,140) scale(0.1,-0.1)" stroke="none" fill="#082223"/>

<path d="M565 549 c-12 -19 4 -59 25 -59 26 0 46 36 29 56 -13 16 -45 19 -54 3z" transform="translate(0,140) scale(0.1,-0.1)" stroke="none" fill="#082223"/>

<path d="M289 484 c-16 -20 -1 -48 29 -52 22 -3 45 27 34 45 -13 20 -49 24 -63 7z" transform="translate(0,140) scale(0.1,-0.1)" stroke="none" fill="#082223"/>

<path d="M435 310 c-3 -6 -3 -19 0 -30 5 -16 2 -20 -14 -20 -24 0 -43 -30 -32 -49 5 -7 19 -11 32 -9 18 2 25 10 27 31 2 18 9 27 21 27 24 0 45 25 37 45 -6 17 -61 21 -71 5z" transform="translate(0,140) scale(0.1,-0.1)" stroke="none" fill="#082223"/>

<path d="M313 398 c-5 -7 -13 -21 -16 -30 -4 -10 -13 -18 -21 -18 -7 0 -16 -7 -20 -15 -6 -18 2 -45 15 -45 5 0 15 -13 24 -30 16 -30 56 -42 70 -20 9 15 -4 50 -20 50 -18 0 -28 31 -15 44 8 8 17 3 32 -16 22 -31 40 -35 58 -13 17 21 3 55 -23 55 -13 0 -26 9 -32 22 -12 27 -38 34 -52 16z" transform="translate(0,140) scale(0.1,-0.1)" stroke="none" fill="#082223"/>

<path d="M301 1306 c-6 -7 -9 -26 -6 -42 2 -16 6 -69 9 -119 6 -99 24 -277 31 -313 5 -20 10 -22 38 -17 19 4 47 0 69 -9 36 -15 98 -80 98 -102 0 -6 6 -17 14 -24 12 -9 27 -7 73 10 52 19 64 29 113 95 62 84 75 118 54 136 -19 16 -109 5 -169 -21 -26 -11 -50 -20 -54 -20 -5 0 -10 39 -13 88 -11 181 -115 352 -215 352 -17 0 -36 -6 -42 -14z" transform="translate(0,140) scale(0.1,-0.1)" stroke="none" fill="#7195A6"/>

<path d="M294 781 c-36 -22 -69 -72 -79 -119 -5 -24 -13 -33 -33 -38 -44 -9 -86 -26 -104 -42 -43 -36 -28 -110 35 -173 l37 -35 -20 -53 c-40 -104 -21 -202 49 -248 63 -42 179 -24 246 39 36 33 34 33 88 9 79 -35 123 -43 169 -30 99 26 138 72 138 162 0 41 -6 63 -25 91 -14 20 -25 40 -25 44 0 4 18 18 40 32 22 13 40 30 40 37 0 7 4 13 10 13 15 0 33 75 26 112 -19 94 -142 141 -256 99 -30 -12 -60 -21 -67 -21 -7 0 -21 17 -32 38 -11 21 -34 52 -52 70 -30 29 -39 32 -93 32 -42 0 -71 -6 -92 -19z m195 -198 c13 -25 -5 -53 -34 -53 -26 0 -29 9 -19 48 7 26 39 29 53 5z m130 -37 c17 -20 -3 -56 -29 -56 -21 0 -37 40 -25 59 9 16 41 13 54 -3z m-191 -18 c15 -15 -3 -48 -27 -48 -24 0 -43 23 -35 44 7 19 45 21 62 4z m97 -53 c0 -23 -5 -30 -19 -30 -24 0 -41 27 -33 49 4 11 15 16 29 14 18 -2 23 -9 23 -33z m-173 2 c11 -18 -12 -48 -34 -45 -30 4 -45 32 -29 52 14 17 50 13 63 -7z m93 -72 c0 -36 -28 -46 -44 -16 -15 27 -3 53 23 49 16 -2 21 -10 21 -33z m210 25 c11 -17 -5 -50 -24 -50 -24 0 -45 25 -37 45 6 17 51 21 61 5z m-290 -48 c6 -13 19 -22 32 -22 26 0 40 -34 23 -55 -18 -22 -36 -18 -58 13 -15 19 -24 24 -32 16 -13 -13 -3 -44 15 -44 16 0 29 -35 20 -50 -14 -22 -54 -10 -70 20 -9 17 -19 30 -24 30 -13 0 -21 27 -15 45 4 8 13 15 20 15 8 0 17 8 21 18 17 47 50 54 68 14z m190 -2 c0 -18 -6 -26 -23 -28 -13 -2 -25 3 -28 12 -10 26 4 48 28 44 17 -2 23 -10 23 -28z m-49 -75 c8 -20 -13 -45 -37 -45 -12 0 -19 -9 -21 -27 -2 -21 -9 -29 -27 -31 -13 -2 -27 2 -32 9 -11 19 8 49 32 49 16 0 19 4 14 20 -3 11 -3 24 0 30 10 16 65 12 71 -5z m92 -1 c21 -38 -14 -77 -43 -48 -18 19 -19 36 -3 52 17 17 35 15 46 -4z" transform="translate(0,140) scale(0.1,-0.1)" stroke="none" fill="#295565"/>

</g>

<g id="4" transform="translate(0,560.0)scale(0.8,0.8)">

<path d="M366 524 c-8 -21 11 -44 35 -44 24 0 42 33 27 48 -17 17 -55 15 -62 -4z" transform="translate(0,140) scale(0.1,-0.1)" stroke="none" fill="#082223"/>

<path d="M436 578 c-10 -39 -7 -48 19 -48 29 0 47 28 34 53 -14 24 -46 21 -53 -5z" transform="translate(0,140) scale(0.1,-0.1)" stroke="none" fill="#082223"/>

<path d="M552 308 c-16 -16 -15 -33 3 -52 29 -29 64 10 43 48 -11 19 -29 21 -46 4z" transform="translate(0,140) scale(0.1,-0.1)" stroke="none" fill="#082223"/>

<path d="M565 549 c-12 -19 4 -59 25 -59 26 0 46 36 29 56 -13 16 -45 19 -54 3z" transform="translate(0,140) scale(0.1,-0.1)" stroke="none" fill="#082223"/>

<path d="M289 484 c-16 -20 -1 -48 29 -52 22 -3 45 27 34 45 -13 20 -49 24 -63 7z" transform="translate(0,140) scale(0.1,-0.1)" stroke="none" fill="#082223"/>

<path d="M435 310 c-3 -6 -3 -19 0 -30 5 -16 2 -20 -14 -20 -24 0 -43 -30 -32 -49 5 -7 19 -11 32 -9 18 2 25 10 27 31 2 18 9 27 21 27 24 0 45 25 37 45 -6 17 -61 21 -71 5z" transform="translate(0,140) scale(0.1,-0.1)" stroke="none" fill="#082223"/>

<path d="M313 398 c-5 -7 -13 -21 -16 -30 -4 -10 -13 -18 -21 -18 -7 0 -16 -7 -20 -15 -6 -18 2 -45 15 -45 5 0 15 -13 24 -30 16 -30 56 -42 70 -20 9 15 -4 50 -20 50 -18 0 -28 31 -15 44 8 8 17 3 32 -16 22 -31 40 -35 58 -13 17 21 3 55 -23 55 -13 0 -26 9 -32 22 -12 27 -38 34 -52 16z" transform="translate(0,140) scale(0.1,-0.1)" stroke="none" fill="#082223"/>

<path d="M301 1306 c-6 -7 -9 -26 -6 -42 2 -16 6 -69 9 -119 6 -99 24 -277 31 -313 5 -20 10 -22 38 -17 19 4 47 0 69 -9 36 -15 98 -80 98 -102 0 -6 6 -17 14 -24 12 -9 27 -7 73 10 52 19 64 29 113 95 62 84 75 118 54 136 -19 16 -109 5 -169 -21 -26 -11 -50 -20 -54 -20 -5 0 -10 39 -13 88 -11 181 -115 352 -215 352 -17 0 -36 -6 -42 -14z" transform="translate(0,140) scale(0.1,-0.1)" stroke="none" fill="#7195A6"/>

<path d="M294 781 c-36 -22 -69 -72 -79 -119 -5 -24 -13 -33 -33 -38 -44 -9 -86 -26 -104 -42 -43 -36 -28 -110 35 -173 l37 -35 -20 -53 c-40 -104 -21 -202 49 -248 63 -42 179 -24 246 39 36 33 34 33 88 9 79 -35 123 -43 169 -30 99 26 138 72 138 162 0 41 -6 63 -25 91 -14 20 -25 40 -25 44 0 4 18 18 40 32 22 13 40 30 40 37 0 7 4 13 10 13 15 0 33 75 26 112 -19 94 -142 141 -256 99 -30 -12 -60 -21 -67 -21 -7 0 -21 17 -32 38 -11 21 -34 52 -52 70 -30 29 -39 32 -93 32 -42 0 -71 -6 -92 -19z m195 -198 c13 -25 -5 -53 -34 -53 -26 0 -29 9 -19 48 7 26 39 29 53 5z m130 -37 c17 -20 -3 -56 -29 -56 -21 0 -37 40 -25 59 9 16 41 13 54 -3z m-191 -18 c15 -15 -3 -48 -27 -48 -24 0 -43 23 -35 44 7 19 45 21 62 4z m97 -53 c0 -23 -5 -30 -19 -30 -24 0 -41 27 -33 49 4 11 15 16 29 14 18 -2 23 -9 23 -33z m-173 2 c11 -18 -12 -48 -34 -45 -30 4 -45 32 -29 52 14 17 50 13 63 -7z m93 -72 c0 -36 -28 -46 -44 -16 -15 27 -3 53 23 49 16 -2 21 -10 21 -33z m210 25 c11 -17 -5 -50 -24 -50 -24 0 -45 25 -37 45 6 17 51 21 61 5z m-290 -48 c6 -13 19 -22 32 -22 26 0 40 -34 23 -55 -18 -22 -36 -18 -58 13 -15 19 -24 24 -32 16 -13 -13 -3 -44 15 -44 16 0 29 -35 20 -50 -14 -22 -54 -10 -70 20 -9 17 -19 30 -24 30 -13 0 -21 27 -15 45 4 8 13 15 20 15 8 0 17 8 21 18 17 47 50 54 68 14z m190 -2 c0 -18 -6 -26 -23 -28 -13 -2 -25 3 -28 12 -10 26 4 48 28 44 17 -2 23 -10 23 -28z m-49 -75 c8 -20 -13 -45 -37 -45 -12 0 -19 -9 -21 -27 -2 -21 -9 -29 -27 -31 -13 -2 -27 2 -32 9 -11 19 8 49 32 49 16 0 19 4 14 20 -3 11 -3 24 0 30 10 16 65 12 71 -5z m92 -1 c21 -38 -14 -77 -43 -48 -18 19 -19 36 -3 52 17 17 35 15 46 -4z" transform="translate(0,140) scale(0.1,-0.1)" stroke="none" fill="#295565"/>

</g>

</g>
<g id="col3" transform="translate(282, -52.0)">
<g id="0" transform="translate(0,0.0)scale(0.8,0.8)">

<path d="M366 524 c-8 -21 11 -44 35 -44 24 0 42 33 27 48 -17 17 -55 15 -62 -4z" transform="translate(0,140) scale(0.1,-0.1)" stroke="none" fill="#082223"/>

<path d="M436 578 c-10 -39 -7 -48 19 -48 29 0 47 28 34 53 -14 24 -46 21 -53 -5z" transform="translate(0,140) scale(0.1,-0.1)" stroke="none" fill="#082223"/>

<path d="M552 308 c-16 -16 -15 -33 3 -52 29 -29 64 10 43 48 -11 19 -29 21 -46 4z" transform="translate(0,140) scale(0.1,-0.1)" stroke="none" fill="#082223"/>

<path d="M565 549 c-12 -19 4 -59 25 -59 26 0 46 36 29 56 -13 16 -45 19 -54 3z" transform="translate(0,140) scale(0.1,-0.1)" stroke="none" fill="#082223"/>

<path d="M289 484 c-16 -20 -1 -48 29 -52 22 -3 45 27 34 45 -13 20 -49 24 -63 7z" transform="translate(0,140) scale(0.1,-0.1)" stroke="none" fill="#082223"/>

<path d="M435 310 c-3 -6 -3 -19 0 -30 5 -16 2 -20 -14 -20 -24 0 -43 -30 -32 -49 5 -7 19 -11 32 -9 18 2 25 10 27 31 2 18 9 27 21 27 24 0 45 25 37 45 -6 17 -61 21 -71 5z" transform="translate(0,140) scale(0.1,-0.1)" stroke="none" fill="#082223"/>

<path d="M313 398 c-5 -7 -13 -21 -16 -30 -4 -10 -13 -18 -21 -18 -7 0 -16 -7 -20 -15 -6 -18 2 -45 15 -45 5 0 15 -13 24 -30 16 -30 56 -42 70 -20 9 15 -4 50 -20 50 -18 0 -28 31 -15 44 8 8 17 3 32 -16 22 -31 40 -35 58 -13 17 21 3 55 -23 55 -13 0 -26 9 -32 22 -12 27 -38 34 -52 16z" transform="translate(0,140) scale(0.1,-0.1)" stroke="none" fill="#082223"/>

<path d="M301 1306 c-6 -7 -9 -26 -6 -42 2 -16 6 -69 9 -119 6 -99 24 -277 31 -313 5 -20 10 -22 38 -17 19 4 47 0 69 -9 36 -15 98 -80 98 -102 0 -6 6 -17 14 -24 12 -9 27 -7 73 10 52 19 64 29 113 95 62 84 75 118 54 136 -19 16 -109 5 -169 -21 -26 -11 -50 -20 -54 -20 -5 0 -10 39 -13 88 -11 181 -115 352 -215 352 -17 0 -36 -6 -42 -14z" transform="translate(0,140) scale(0.1,-0.1)" stroke="none" fill="#7195A6"/>

<path d="M294 781 c-36 -22 -69 -72 -79 -119 -5 -24 -13 -33 -33 -38 -44 -9 -86 -26 -104 -42 -43 -36 -28 -110 35 -173 l37 -35 -20 -53 c-40 -104 -21 -202 49 -248 63 -42 179 -24 246 39 36 33 34 33 88 9 79 -35 123 -43 169 -30 99 26 138 72 138 162 0 41 -6 63 -25 91 -14 20 -25 40 -25 44 0 4 18 18 40 32 22 13 40 30 40 37 0 7 4 13 10 13 15 0 33 75 26 112 -19 94 -142 141 -256 99 -30 -12 -60 -21 -67 -21 -7 0 -21 17 -32 38 -11 21 -34 52 -52 70 -30 29 -39 32 -93 32 -42 0 -71 -6 -92 -19z m195 -198 c13 -25 -5 -53 -34 -53 -26 0 -29 9 -19 48 7 26 39 29 53 5z m130 -37 c17 -20 -3 -56 -29 -56 -21 0 -37 40 -25 59 9 16 41 13 54 -3z m-191 -18 c15 -15 -3 -48 -27 -48 -24 0 -43 23 -35 44 7 19 45 21 62 4z m97 -53 c0 -23 -5 -30 -19 -30 -24 0 -41 27 -33 49 4 11 15 16 29 14 18 -2 23 -9 23 -33z m-173 2 c11 -18 -12 -48 -34 -45 -30 4 -45 32 -29 52 14 17 50 13 63 -7z m93 -72 c0 -36 -28 -46 -44 -16 -15 27 -3 53 23 49 16 -2 21 -10 21 -33z m210 25 c11 -17 -5 -50 -24 -50 -24 0 -45 25 -37 45 6 17 51 21 61 5z m-290 -48 c6 -13 19 -22 32 -22 26 0 40 -34 23 -55 -18 -22 -36 -18 -58 13 -15 19 -24 24 -32 16 -13 -13 -3 -44 15 -44 16 0 29 -35 20 -50 -14 -22 -54 -10 -70 20 -9 17 -19 30 -24 30 -13 0 -21 27 -15 45 4 8 13 15 20 15 8 0 17 8 21 18 17 47 50 54 68 14z m190 -2 c0 -18 -6 -26 -23 -28 -13 -2 -25 3 -28 12 -10 26 4 48 28 44 17 -2 23 -10 23 -28z m-49 -75 c8 -20 -13 -45 -37 -45 -12 0 -19 -9 -21 -27 -2 -21 -9 -29 -27 -31 -13 -2 -27 2 -32 9 -11 19 8 49 32 49 16 0 19 4 14 20 -3 11 -3 24 0 30 10 16 65 12 71 -5z m92 -1 c21 -38 -14 -77 -43 -48 -18 19 -19 36 -3 52 17 17 35 15 46 -4z" transform="translate(0,140) scale(0.1,-0.1)" stroke="none" fill="#295565"/>

</g>

<g id="1" transform="translate(0,140.0)scale(0.8,0.8)">

<path d="M366 524 c-8 -21 11 -44 35 -44 24 0 42 33 27 48 -17 17 -55 15 -62 -4z" transform="translate(0,140) scale(0.1,-0.1)" stroke="none" fill="#082223"/>

<path d="M436 578 c-10 -39 -7 -48 19 -48 29 0 47 28 34 53 -14 24 -46 21 -53 -5z" transform="translate(0,140) scale(0.1,-0.1)" stroke="none" fill="#082223"/>

<path d="M552 308 c-16 -16 -15 -33 3 -52 29 -29 64 10 43 48 -11 19 -29 21 -46 4z" transform="translate(0,140) scale(0.1,-0.1)" stroke="none" fill="#082223"/>

<path d="M565 549 c-12 -19 4 -59 25 -59 26 0 46 36 29 56 -13 16 -45 19 -54 3z" transform="translate(0,140) scale(0.1,-0.1)" stroke="none" fill="#082223"/>

<path d="M289 484 c-16 -20 -1 -48 29 -52 22 -3 45 27 34 45 -13 20 -49 24 -63 7z" transform="translate(0,140) scale(0.1,-0.1)" stroke="none" fill="#082223"/>

<path d="M435 310 c-3 -6 -3 -19 0 -30 5 -16 2 -20 -14 -20 -24 0 -43 -30 -32 -49 5 -7 19 -11 32 -9 18 2 25 10 27 31 2 18 9 27 21 27 24 0 45 25 37 45 -6 17 -61 21 -71 5z" transform="translate(0,140) scale(0.1,-0.1)" stroke="none" fill="#082223"/>

<path d="M313 398 c-5 -7 -13 -21 -16 -30 -4 -10 -13 -18 -21 -18 -7 0 -16 -7 -20 -15 -6 -18 2 -45 15 -45 5 0 15 -13 24 -30 16 -30 56 -42 70 -20 9 15 -4 50 -20 50 -18 0 -28 31 -15 44 8 8 17 3 32 -16 22 -31 40 -35 58 -13 17 21 3 55 -23 55 -13 0 -26 9 -32 22 -12 27 -38 34 -52 16z" transform="translate(0,140) scale(0.1,-0.1)" stroke="none" fill="#082223"/>

<path d="M301 1306 c-6 -7 -9 -26 -6 -42 2 -16 6 -69 9 -119 6 -99 24 -277 31 -313 5 -20 10 -22 38 -17 19 4 47 0 69 -9 36 -15 98 -80 98 -102 0 -6 6 -17 14 -24 12 -9 27 -7 73 10 52 19 64 29 113 95 62 84 75 118 54 136 -19 16 -109 5 -169 -21 -26 -11 -50 -20 -54 -20 -5 0 -10 39 -13 88 -11 181 -115 352 -215 352 -17 0 -36 -6 -42 -14z" transform="translate(0,140) scale(0.1,-0.1)" stroke="none" fill="#7195A6"/>

<path d="M294 781 c-36 -22 -69 -72 -79 -119 -5 -24 -13 -33 -33 -38 -44 -9 -86 -26 -104 -42 -43 -36 -28 -110 35 -173 l37 -35 -20 -53 c-40 -104 -21 -202 49 -248 63 -42 179 -24 246 39 36 33 34 33 88 9 79 -35 123 -43 169 -30 99 26 138 72 138 162 0 41 -6 63 -25 91 -14 20 -25 40 -25 44 0 4 18 18 40 32 22 13 40 30 40 37 0 7 4 13 10 13 15 0 33 75 26 112 -19 94 -142 141 -256 99 -30 -12 -60 -21 -67 -21 -7 0 -21 17 -32 38 -11 21 -34 52 -52 70 -30 29 -39 32 -93 32 -42 0 -71 -6 -92 -19z m195 -198 c13 -25 -5 -53 -34 -53 -26 0 -29 9 -19 48 7 26 39 29 53 5z m130 -37 c17 -20 -3 -56 -29 -56 -21 0 -37 40 -25 59 9 16 41 13 54 -3z m-191 -18 c15 -15 -3 -48 -27 -48 -24 0 -43 23 -35 44 7 19 45 21 62 4z m97 -53 c0 -23 -5 -30 -19 -30 -24 0 -41 27 -33 49 4 11 15 16 29 14 18 -2 23 -9 23 -33z m-173 2 c11 -18 -12 -48 -34 -45 -30 4 -45 32 -29 52 14 17 50 13 63 -7z m93 -72 c0 -36 -28 -46 -44 -16 -15 27 -3 53 23 49 16 -2 21 -10 21 -33z m210 25 c11 -17 -5 -50 -24 -50 -24 0 -45 25 -37 45 6 17 51 21 61 5z m-290 -48 c6 -13 19 -22 32 -22 26 0 40 -34 23 -55 -18 -22 -36 -18 -58 13 -15 19 -24 24 -32 16 -13 -13 -3 -44 15 -44 16 0 29 -35 20 -50 -14 -22 -54 -10 -70 20 -9 17 -19 30 -24 30 -13 0 -21 27 -15 45 4 8 13 15 20 15 8 0 17 8 21 18 17 47 50 54 68 14z m190 -2 c0 -18 -6 -26 -23 -28 -13 -2 -25 3 -28 12 -10 26 4 48 28 44 17 -2 23 -10 23 -28z m-49 -75 c8 -20 -13 -45 -37 -45 -12 0 -19 -9 -21 -27 -2 -21 -9 -29 -27 -31 -13 -2 -27 2 -32 9 -11 19 8 49 32 49 16 0 19 4 14 20 -3 11 -3 24 0 30 10 16 65 12 71 -5z m92 -1 c21 -38 -14 -77 -43 -48 -18 19 -19 36 -3 52 17 17 35 15 46 -4z" transform="translate(0,140) scale(0.1,-0.1)" stroke="none" fill="#295565"/>

</g>

<g id="2" transform="translate(0,280.0)scale(0.8,0.8)">

<path d="M366 524 c-8 -21 11 -44 35 -44 24 0 42 33 27 48 -17 17 -55 15 -62 -4z" transform="translate(0,140) scale(0.1,-0.1)" stroke="none" fill="#082223"/>

<path d="M436 578 c-10 -39 -7 -48 19 -48 29 0 47 28 34 53 -14 24 -46 21 -53 -5z" transform="translate(0,140) scale(0.1,-0.1)" stroke="none" fill="#082223"/>

<path d="M552 308 c-16 -16 -15 -33 3 -52 29 -29 64 10 43 48 -11 19 -29 21 -46 4z" transform="translate(0,140) scale(0.1,-0.1)" stroke="none" fill="#082223"/>

<path d="M565 549 c-12 -19 4 -59 25 -59 26 0 46 36 29 56 -13 16 -45 19 -54 3z" transform="translate(0,140) scale(0.1,-0.1)" stroke="none" fill="#082223"/>

<path d="M289 484 c-16 -20 -1 -48 29 -52 22 -3 45 27 34 45 -13 20 -49 24 -63 7z" transform="translate(0,140) scale(0.1,-0.1)" stroke="none" fill="#082223"/>

<path d="M435 310 c-3 -6 -3 -19 0 -30 5 -16 2 -20 -14 -20 -24 0 -43 -30 -32 -49 5 -7 19 -11 32 -9 18 2 25 10 27 31 2 18 9 27 21 27 24 0 45 25 37 45 -6 17 -61 21 -71 5z" transform="translate(0,140) scale(0.1,-0.1)" stroke="none" fill="#082223"/>

<path d="M313 398 c-5 -7 -13 -21 -16 -30 -4 -10 -13 -18 -21 -18 -7 0 -16 -7 -20 -15 -6 -18 2 -45 15 -45 5 0 15 -13 24 -30 16 -30 56 -42 70 -20 9 15 -4 50 -20 50 -18 0 -28 31 -15 44 8 8 17 3 32 -16 22 -31 40 -35 58 -13 17 21 3 55 -23 55 -13 0 -26 9 -32 22 -12 27 -38 34 -52 16z" transform="translate(0,140) scale(0.1,-0.1)" stroke="none" fill="#082223"/>

<path d="M301 1306 c-6 -7 -9 -26 -6 -42 2 -16 6 -69 9 -119 6 -99 24 -277 31 -313 5 -20 10 -22 38 -17 19 4 47 0 69 -9 36 -15 98 -80 98 -102 0 -6 6 -17 14 -24 12 -9 27 -7 73 10 52 19 64 29 113 95 62 84 75 118 54 136 -19 16 -109 5 -169 -21 -26 -11 -50 -20 -54 -20 -5 0 -10 39 -13 88 -11 181 -115 352 -215 352 -17 0 -36 -6 -42 -14z" transform="translate(0,140) scale(0.1,-0.1)" stroke="none" fill="#7195A6"/>

<path d="M294 781 c-36 -22 -69 -72 -79 -119 -5 -24 -13 -33 -33 -38 -44 -9 -86 -26 -104 -42 -43 -36 -28 -110 35 -173 l37 -35 -20 -53 c-40 -104 -21 -202 49 -248 63 -42 179 -24 246 39 36 33 34 33 88 9 79 -35 123 -43 169 -30 99 26 138 72 138 162 0 41 -6 63 -25 91 -14 20 -25 40 -25 44 0 4 18 18 40 32 22 13 40 30 40 37 0 7 4 13 10 13 15 0 33 75 26 112 -19 94 -142 141 -256 99 -30 -12 -60 -21 -67 -21 -7 0 -21 17 -32 38 -11 21 -34 52 -52 70 -30 29 -39 32 -93 32 -42 0 -71 -6 -92 -19z m195 -198 c13 -25 -5 -53 -34 -53 -26 0 -29 9 -19 48 7 26 39 29 53 5z m130 -37 c17 -20 -3 -56 -29 -56 -21 0 -37 40 -25 59 9 16 41 13 54 -3z m-191 -18 c15 -15 -3 -48 -27 -48 -24 0 -43 23 -35 44 7 19 45 21 62 4z m97 -53 c0 -23 -5 -30 -19 -30 -24 0 -41 27 -33 49 4 11 15 16 29 14 18 -2 23 -9 23 -33z m-173 2 c11 -18 -12 -48 -34 -45 -30 4 -45 32 -29 52 14 17 50 13 63 -7z m93 -72 c0 -36 -28 -46 -44 -16 -15 27 -3 53 23 49 16 -2 21 -10 21 -33z m210 25 c11 -17 -5 -50 -24 -50 -24 0 -45 25 -37 45 6 17 51 21 61 5z m-290 -48 c6 -13 19 -22 32 -22 26 0 40 -34 23 -55 -18 -22 -36 -18 -58 13 -15 19 -24 24 -32 16 -13 -13 -3 -44 15 -44 16 0 29 -35 20 -50 -14 -22 -54 -10 -70 20 -9 17 -19 30 -24 30 -13 0 -21 27 -15 45 4 8 13 15 20 15 8 0 17 8 21 18 17 47 50 54 68 14z m190 -2 c0 -18 -6 -26 -23 -28 -13 -2 -25 3 -28 12 -10 26 4 48 28 44 17 -2 23 -10 23 -28z m-49 -75 c8 -20 -13 -45 -37 -45 -12 0 -19 -9 -21 -27 -2 -21 -9 -29 -27 -31 -13 -2 -27 2 -32 9 -11 19 8 49 32 49 16 0 19 4 14 20 -3 11 -3 24 0 30 10 16 65 12 71 -5z m92 -1 c21 -38 -14 -77 -43 -48 -18 19 -19 36 -3 52 17 17 35 15 46 -4z" transform="translate(0,140) scale(0.1,-0.1)" stroke="none" fill="#295565"/>

</g>

<g id="3" transform="translate(0,420.0)scale(0.8,0.8)">

<path d="M366 524 c-8 -21 11 -44 35 -44 24 0 42 33 27 48 -17 17 -55 15 -62 -4z" transform="translate(0,140) scale(0.1,-0.1)" stroke="none" fill="#082223"/>

<path d="M436 578 c-10 -39 -7 -48 19 -48 29 0 47 28 34 53 -14 24 -46 21 -53 -5z" transform="translate(0,140) scale(0.1,-0.1)" stroke="none" fill="#082223"/>

<path d="M552 308 c-16 -16 -15 -33 3 -52 29 -29 64 10 43 48 -11 19 -29 21 -46 4z" transform="translate(0,140) scale(0.1,-0.1)" stroke="none" fill="#082223"/>

<path d="M565 549 c-12 -19 4 -59 25 -59 26 0 46 36 29 56 -13 16 -45 19 -54 3z" transform="translate(0,140) scale(0.1,-0.1)" stroke="none" fill="#082223"/>

<path d="M289 484 c-16 -20 -1 -48 29 -52 22 -3 45 27 34 45 -13 20 -49 24 -63 7z" transform="translate(0,140) scale(0.1,-0.1)" stroke="none" fill="#082223"/>

<path d="M435 310 c-3 -6 -3 -19 0 -30 5 -16 2 -20 -14 -20 -24 0 -43 -30 -32 -49 5 -7 19 -11 32 -9 18 2 25 10 27 31 2 18 9 27 21 27 24 0 45 25 37 45 -6 17 -61 21 -71 5z" transform="translate(0,140) scale(0.1,-0.1)" stroke="none" fill="#082223"/>

<path d="M313 398 c-5 -7 -13 -21 -16 -30 -4 -10 -13 -18 -21 -18 -7 0 -16 -7 -20 -15 -6 -18 2 -45 15 -45 5 0 15 -13 24 -30 16 -30 56 -42 70 -20 9 15 -4 50 -20 50 -18 0 -28 31 -15 44 8 8 17 3 32 -16 22 -31 40 -35 58 -13 17 21 3 55 -23 55 -13 0 -26 9 -32 22 -12 27 -38 34 -52 16z" transform="translate(0,140) scale(0.1,-0.1)" stroke="none" fill="#082223"/>

<path d="M301 1306 c-6 -7 -9 -26 -6 -42 2 -16 6 -69 9 -119 6 -99 24 -277 31 -313 5 -20 10 -22 38 -17 19 4 47 0 69 -9 36 -15 98 -80 98 -102 0 -6 6 -17 14 -24 12 -9 27 -7 73 10 52 19 64 29 113 95 62 84 75 118 54 136 -19 16 -109 5 -169 -21 -26 -11 -50 -20 -54 -20 -5 0 -10 39 -13 88 -11 181 -115 352 -215 352 -17 0 -36 -6 -42 -14z" transform="translate(0,140) scale(0.1,-0.1)" stroke="none" fill="#7195A6"/>

<path d="M294 781 c-36 -22 -69 -72 -79 -119 -5 -24 -13 -33 -33 -38 -44 -9 -86 -26 -104 -42 -43 -36 -28 -110 35 -173 l37 -35 -20 -53 c-40 -104 -21 -202 49 -248 63 -42 179 -24 246 39 36 33 34 33 88 9 79 -35 123 -43 169 -30 99 26 138 72 138 162 0 41 -6 63 -25 91 -14 20 -25 40 -25 44 0 4 18 18 40 32 22 13 40 30 40 37 0 7 4 13 10 13 15 0 33 75 26 112 -19 94 -142 141 -256 99 -30 -12 -60 -21 -67 -21 -7 0 -21 17 -32 38 -11 21 -34 52 -52 70 -30 29 -39 32 -93 32 -42 0 -71 -6 -92 -19z m195 -198 c13 -25 -5 -53 -34 -53 -26 0 -29 9 -19 48 7 26 39 29 53 5z m130 -37 c17 -20 -3 -56 -29 -56 -21 0 -37 40 -25 59 9 16 41 13 54 -3z m-191 -18 c15 -15 -3 -48 -27 -48 -24 0 -43 23 -35 44 7 19 45 21 62 4z m97 -53 c0 -23 -5 -30 -19 -30 -24 0 -41 27 -33 49 4 11 15 16 29 14 18 -2 23 -9 23 -33z m-173 2 c11 -18 -12 -48 -34 -45 -30 4 -45 32 -29 52 14 17 50 13 63 -7z m93 -72 c0 -36 -28 -46 -44 -16 -15 27 -3 53 23 49 16 -2 21 -10 21 -33z m210 25 c11 -17 -5 -50 -24 -50 -24 0 -45 25 -37 45 6 17 51 21 61 5z m-290 -48 c6 -13 19 -22 32 -22 26 0 40 -34 23 -55 -18 -22 -36 -18 -58 13 -15 19 -24 24 -32 16 -13 -13 -3 -44 15 -44 16 0 29 -35 20 -50 -14 -22 -54 -10 -70 20 -9 17 -19 30 -24 30 -13 0 -21 27 -15 45 4 8 13 15 20 15 8 0 17 8 21 18 17 47 50 54 68 14z m190 -2 c0 -18 -6 -26 -23 -28 -13 -2 -25 3 -28 12 -10 26 4 48 28 44 17 -2 23 -10 23 -28z m-49 -75 c8 -20 -13 -45 -37 -45 -12 0 -19 -9 -21 -27 -2 -21 -9 -29 -27 -31 -13 -2 -27 2 -32 9 -11 19 8 49 32 49 16 0 19 4 14 20 -3 11 -3 24 0 30 10 16 65 12 71 -5z m92 -1 c21 -38 -14 -77 -43 -48 -18 19 -19 36 -3 52 17 17 35 15 46 -4z" transform="translate(0,140) scale(0.1,-0.1)" stroke="none" fill="#295565"/>

</g>

<g id="4" transform="translate(0,560.0)scale(0.8,0.8)">

<path d="M366 524 c-8 -21 11 -44 35 -44 24 0 42 33 27 48 -17 17 -55 15 -62 -4z" transform="translate(0,140) scale(0.1,-0.1)" stroke="none" fill="#082223"/>

<path d="M436 578 c-10 -39 -7 -48 19 -48 29 0 47 28 34 53 -14 24 -46 21 -53 -5z" transform="translate(0,140) scale(0.1,-0.1)" stroke="none" fill="#082223"/>

<path d="M552 308 c-16 -16 -15 -33 3 -52 29 -29 64 10 43 48 -11 19 -29 21 -46 4z" transform="translate(0,140) scale(0.1,-0.1)" stroke="none" fill="#082223"/>

<path d="M565 549 c-12 -19 4 -59 25 -59 26 0 46 36 29 56 -13 16 -45 19 -54 3z" transform="translate(0,140) scale(0.1,-0.1)" stroke="none" fill="#082223"/>

<path d="M289 484 c-16 -20 -1 -48 29 -52 22 -3 45 27 34 45 -13 20 -49 24 -63 7z" transform="translate(0,140) scale(0.1,-0.1)" stroke="none" fill="#082223"/>

<path d="M435 310 c-3 -6 -3 -19 0 -30 5 -16 2 -20 -14 -20 -24 0 -43 -30 -32 -49 5 -7 19 -11 32 -9 18 2 25 10 27 31 2 18 9 27 21 27 24 0 45 25 37 45 -6 17 -61 21 -71 5z" transform="translate(0,140) scale(0.1,-0.1)" stroke="none" fill="#082223"/>

<path d="M313 398 c-5 -7 -13 -21 -16 -30 -4 -10 -13 -18 -21 -18 -7 0 -16 -7 -20 -15 -6 -18 2 -45 15 -45 5 0 15 -13 24 -30 16 -30 56 -42 70 -20 9 15 -4 50 -20 50 -18 0 -28 31 -15 44 8 8 17 3 32 -16 22 -31 40 -35 58 -13 17 21 3 55 -23 55 -13 0 -26 9 -32 22 -12 27 -38 34 -52 16z" transform="translate(0,140) scale(0.1,-0.1)" stroke="none" fill="#082223"/>

<path d="M301 1306 c-6 -7 -9 -26 -6 -42 2 -16 6 -69 9 -119 6 -99 24 -277 31 -313 5 -20 10 -22 38 -17 19 4 47 0 69 -9 36 -15 98 -80 98 -102 0 -6 6 -17 14 -24 12 -9 27 -7 73 10 52 19 64 29 113 95 62 84 75 118 54 136 -19 16 -109 5 -169 -21 -26 -11 -50 -20 -54 -20 -5 0 -10 39 -13 88 -11 181 -115 352 -215 352 -17 0 -36 -6 -42 -14z" transform="translate(0,140) scale(0.1,-0.1)" stroke="none" fill="#7195A6"/>

<path d="M294 781 c-36 -22 -69 -72 -79 -119 -5 -24 -13 -33 -33 -38 -44 -9 -86 -26 -104 -42 -43 -36 -28 -110 35 -173 l37 -35 -20 -53 c-40 -104 -21 -202 49 -248 63 -42 179 -24 246 39 36 33 34 33 88 9 79 -35 123 -43 169 -30 99 26 138 72 138 162 0 41 -6 63 -25 91 -14 20 -25 40 -25 44 0 4 18 18 40 32 22 13 40 30 40 37 0 7 4 13 10 13 15 0 33 75 26 112 -19 94 -142 141 -256 99 -30 -12 -60 -21 -67 -21 -7 0 -21 17 -32 38 -11 21 -34 52 -52 70 -30 29 -39 32 -93 32 -42 0 -71 -6 -92 -19z m195 -198 c13 -25 -5 -53 -34 -53 -26 0 -29 9 -19 48 7 26 39 29 53 5z m130 -37 c17 -20 -3 -56 -29 -56 -21 0 -37 40 -25 59 9 16 41 13 54 -3z m-191 -18 c15 -15 -3 -48 -27 -48 -24 0 -43 23 -35 44 7 19 45 21 62 4z m97 -53 c0 -23 -5 -30 -19 -30 -24 0 -41 27 -33 49 4 11 15 16 29 14 18 -2 23 -9 23 -33z m-173 2 c11 -18 -12 -48 -34 -45 -30 4 -45 32 -29 52 14 17 50 13 63 -7z m93 -72 c0 -36 -28 -46 -44 -16 -15 27 -3 53 23 49 16 -2 21 -10 21 -33z m210 25 c11 -17 -5 -50 -24 -50 -24 0 -45 25 -37 45 6 17 51 21 61 5z m-290 -48 c6 -13 19 -22 32 -22 26 0 40 -34 23 -55 -18 -22 -36 -18 -58 13 -15 19 -24 24 -32 16 -13 -13 -3 -44 15 -44 16 0 29 -35 20 -50 -14 -22 -54 -10 -70 20 -9 17 -19 30 -24 30 -13 0 -21 27 -15 45 4 8 13 15 20 15 8 0 17 8 21 18 17 47 50 54 68 14z m190 -2 c0 -18 -6 -26 -23 -28 -13 -2 -25 3 -28 12 -10 26 4 48 28 44 17 -2 23 -10 23 -28z m-49 -75 c8 -20 -13 -45 -37 -45 -12 0 -19 -9 -21 -27 -2 -21 -9 -29 -27 -31 -13 -2 -27 2 -32 9 -11 19 8 49 32 49 16 0 19 4 14 20 -3 11 -3 24 0 30 10 16 65 12 71 -5z m92 -1 c21 -38 -14 -77 -43 -48 -18 19 -19 36 -3 52 17 17 35 15 46 -4z" transform="translate(0,140) scale(0.1,-0.1)" stroke="none" fill="#295565"/>

</g>

</g>
</svg>