<?xml version="1.0" standalone="no"?>
<!DOCTYPE svg PUBLIC "-//W3C//DTD SVG 20010904//EN"
 "http://www.w3.org/TR/2001/REC-SVG-20010904/DTD/svg10.dtd">
<svg version="1.0" xmlns="http://www.w3.org/2000/svg" width="476pt" height="468pt" viewBox="0 0 476 468" preserveAspectRatio = "xMidYMid meet" >
<metadata>
Created by ZoeQu, written in 2022
</metadata>
<rect width="476" height="468" fill="#A36CB7"/>
<g id="col0" transform="translate(0, 15)">
<g id="0" transform="translate(0,0.0)scale(0.8,0.8)">

<path d="M700 787 c0 -8 -10 -13 -22 -13 -19 1 -23 -5 -24 -28 -2 -41 18 -78 38 -72 9 2 19 -2 22 -10 7 -19 35 -18 43 2 4 11 -1 22 -12 30 -23 17 -12 18 15 2 30 -19 44 1 27 41 -18 42 -87 80 -87 48z m15 -95 c-3 -3 -11 0 -18 7 -9 10 -8 11 6 5 10 -3 15 -9 12 -12z" transform="translate(0,117) scale(0.1,-0.1)" stroke="none" fill="#D6DACA"/>

<path d="M211 853 c-57 -20 -141 -100 -141 -135 0 -19 8 -29 38 -41 66 -29 155 -50 237 -56 l80 -6 32 43 33 42 -34 45 c-19 24 -39 60 -46 79 -7 21 -19 36 -33 40 -39 10 -121 5 -166 -11z" transform="translate(0,117) scale(0.1,-0.1)" stroke="none" fill="#D6DACA"/>

<path d="M762 455 c-30 -31 -32 -37 -27 -80 12 -94 81 -225 153 -288 62 -55 107 28 99 183 -3 52 -11 111 -17 130 -11 32 -19 38 -79 58 -94 33 -93 33 -129 -3z" transform="translate(0,117) scale(0.1,-0.1)" stroke="none" fill="#D6DACA"/>

<path d="M844 1105 c-17 -9 -48 -33 -68 -54 l-37 -38 -50 25 c-136 68 -275 11 -287 -117 -5 -58 27 -147 67 -185 l30 -29 -42 -59 c-35 -50 -42 -67 -41 -104 1 -55 25 -90 84 -121 81 -43 194 -27 261 37 l41 39 41 -18 c23 -10 64 -23 90 -30 132 -32 231 72 193 202 -16 53 -61 111 -97 122 -19 6 -26 30 -10 39 4 3 16 33 26 67 24 86 14 140 -34 192 -32 34 -44 40 -87 44 -32 2 -60 -2 -80 -12z m-60 -303 c54 -49 57 -121 6 -147 -62 -32 -122 -9 -141 54 -27 89 67 153 135 93z" transform="translate(0,117) scale(0.1,-0.1)" stroke="none" fill="#F7B83F"/>

</g>

<g id="1" transform="translate(0,117.0)scale(0.8,0.8)">

<path d="M700 787 c0 -8 -10 -13 -22 -13 -19 1 -23 -5 -24 -28 -2 -41 18 -78 38 -72 9 2 19 -2 22 -10 7 -19 35 -18 43 2 4 11 -1 22 -12 30 -23 17 -12 18 15 2 30 -19 44 1 27 41 -18 42 -87 80 -87 48z m15 -95 c-3 -3 -11 0 -18 7 -9 10 -8 11 6 5 10 -3 15 -9 12 -12z" transform="translate(0,117) scale(0.1,-0.1)" stroke="none" fill="#D6DACA"/>

<path d="M211 853 c-57 -20 -141 -100 -141 -135 0 -19 8 -29 38 -41 66 -29 155 -50 237 -56 l80 -6 32 43 33 42 -34 45 c-19 24 -39 60 -46 79 -7 21 -19 36 -33 40 -39 10 -121 5 -166 -11z" transform="translate(0,117) scale(0.1,-0.1)" stroke="none" fill="#D6DACA"/>

<path d="M762 455 c-30 -31 -32 -37 -27 -80 12 -94 81 -225 153 -288 62 -55 107 28 99 183 -3 52 -11 111 -17 130 -11 32 -19 38 -79 58 -94 33 -93 33 -129 -3z" transform="translate(0,117) scale(0.1,-0.1)" stroke="none" fill="#D6DACA"/>

<path d="M844 1105 c-17 -9 -48 -33 -68 -54 l-37 -38 -50 25 c-136 68 -275 11 -287 -117 -5 -58 27 -147 67 -185 l30 -29 -42 -59 c-35 -50 -42 -67 -41 -104 1 -55 25 -90 84 -121 81 -43 194 -27 261 37 l41 39 41 -18 c23 -10 64 -23 90 -30 132 -32 231 72 193 202 -16 53 -61 111 -97 122 -19 6 -26 30 -10 39 4 3 16 33 26 67 24 86 14 140 -34 192 -32 34 -44 40 -87 44 -32 2 -60 -2 -80 -12z m-60 -303 c54 -49 57 -121 6 -147 -62 -32 -122 -9 -141 54 -27 89 67 153 135 93z" transform="translate(0,117) scale(0.1,-0.1)" stroke="none" fill="#F7B83F"/>

</g>

<g id="2" transform="translate(0,234.0)scale(0.8,0.8)">

<path d="M700 787 c0 -8 -10 -13 -22 -13 -19 1 -23 -5 -24 -28 -2 -41 18 -78 38 -72 9 2 19 -2 22 -10 7 -19 35 -18 43 2 4 11 -1 22 -12 30 -23 17 -12 18 15 2 30 -19 44 1 27 41 -18 42 -87 80 -87 48z m15 -95 c-3 -3 -11 0 -18 7 -9 10 -8 11 6 5 10 -3 15 -9 12 -12z" transform="translate(0,117) scale(0.1,-0.1)" stroke="none" fill="#D6DACA"/>

<path d="M211 853 c-57 -20 -141 -100 -141 -135 0 -19 8 -29 38 -41 66 -29 155 -50 237 -56 l80 -6 32 43 33 42 -34 45 c-19 24 -39 60 -46 79 -7 21 -19 36 -33 40 -39 10 -121 5 -166 -11z" transform="translate(0,117) scale(0.1,-0.1)" stroke="none" fill="#D6DACA"/>

<path d="M762 455 c-30 -31 -32 -37 -27 -80 12 -94 81 -225 153 -288 62 -55 107 28 99 183 -3 52 -11 111 -17 130 -11 32 -19 38 -79 58 -94 33 -93 33 -129 -3z" transform="translate(0,117) scale(0.1,-0.1)" stroke="none" fill="#D6DACA"/>

<path d="M844 1105 c-17 -9 -48 -33 -68 -54 l-37 -38 -50 25 c-136 68 -275 11 -287 -117 -5 -58 27 -147 67 -185 l30 -29 -42 -59 c-35 -50 -42 -67 -41 -104 1 -55 25 -90 84 -121 81 -43 194 -27 261 37 l41 39 41 -18 c23 -10 64 -23 90 -30 132 -32 231 72 193 202 -16 53 -61 111 -97 122 -19 6 -26 30 -10 39 4 3 16 33 26 67 24 86 14 140 -34 192 -32 34 -44 40 -87 44 -32 2 -60 -2 -80 -12z m-60 -303 c54 -49 57 -121 6 -147 -62 -32 -122 -9 -141 54 -27 89 67 153 135 93z" transform="translate(0,117) scale(0.1,-0.1)" stroke="none" fill="#F7B83F"/>

</g>

<g id="3" transform="translate(0,351.0)scale(0.8,0.8)">

<path d="M700 787 c0 -8 -10 -13 -22 -13 -19 1 -23 -5 -24 -28 -2 -41 18 -78 38 -72 9 2 19 -2 22 -10 7 -19 35 -18 43 2 4 11 -1 22 -12 30 -23 17 -12 18 15 2 30 -19 44 1 27 41 -18 42 -87 80 -87 48z m15 -95 c-3 -3 -11 0 -18 7 -9 10 -8 11 6 5 10 -3 15 -9 12 -12z" transform="translate(0,117) scale(0.1,-0.1)" stroke="none" fill="#D6DACA"/>

<path d="M211 853 c-57 -20 -141 -100 -141 -135 0 -19 8 -29 38 -41 66 -29 155 -50 237 -56 l80 -6 32 43 33 42 -34 45 c-19 24 -39 60 -46 79 -7 21 -19 36 -33 40 -39 10 -121 5 -166 -11z" transform="translate(0,117) scale(0.1,-0.1)" stroke="none" fill="#D6DACA"/>

<path d="M762 455 c-30 -31 -32 -37 -27 -80 12 -94 81 -225 153 -288 62 -55 107 28 99 183 -3 52 -11 111 -17 130 -11 32 -19 38 -79 58 -94 33 -93 33 -129 -3z" transform="translate(0,117) scale(0.1,-0.1)" stroke="none" fill="#D6DACA"/>

<path d="M844 1105 c-17 -9 -48 -33 -68 -54 l-37 -38 -50 25 c-136 68 -275 11 -287 -117 -5 -58 27 -147 67 -185 l30 -29 -42 -59 c-35 -50 -42 -67 -41 -104 1 -55 25 -90 84 -121 81 -43 194 -27 261 37 l41 39 41 -18 c23 -10 64 -23 90 -30 132 -32 231 72 193 202 -16 53 -61 111 -97 122 -19 6 -26 30 -10 39 4 3 16 33 26 67 24 86 14 140 -34 192 -32 34 -44 40 -87 44 -32 2 -60 -2 -80 -12z m-60 -303 c54 -49 57 -121 6 -147 -62 -32 -122 -9 -141 54 -27 89 67 153 135 93z" transform="translate(0,117) scale(0.1,-0.1)" stroke="none" fill="#F7B83F"/>

</g>

<g id="4" transform="translate(0,468.0)scale(0.8,0.8)">

<path d="M700 787 c0 -8 -10 -13 -22 -13 -19 1 -23 -5 -24 -28 -2 -41 18 -78 38 -72 9 2 19 -2 22 -10 7 -19 35 -18 43 2 4 11 -1 22 -12 30 -23 17 -12 18 15 2 30 -19 44 1 27 41 -18 42 -87 80 -87 48z m15 -95 c-3 -3 -11 0 -18 7 -9 10 -8 11 6 5 10 -3 15 -9 12 -12z" transform="translate(0,117) scale(0.1,-0.1)" stroke="none" fill="#D6DACA"/>

<path d="M211 853 c-57 -20 -141 -100 -141 -135 0 -19 8 -29 38 -41 66 -29 155 -50 237 -56 l80 -6 32 43 33 42 -34 45 c-19 24 -39 60 -46 79 -7 21 -19 36 -33 40 -39 10 -121 5 -166 -11z" transform="translate(0,117) scale(0.1,-0.1)" stroke="none" fill="#D6DACA"/>

<path d="M762 455 c-30 -31 -32 -37 -27 -80 12 -94 81 -225 153 -288 62 -55 107 28 99 183 -3 52 -11 111 -17 130 -11 32 -19 38 -79 58 -94 33 -93 33 -129 -3z" transform="translate(0,117) scale(0.1,-0.1)" stroke="none" fill="#D6DACA"/>

<path d="M844 1105 c-17 -9 -48 -33 -68 -54 l-37 -38 -50 25 c-136 68 -275 11 -287 -117 -5 -58 27 -147 67 -185 l30 -29 -42 -59 c-35 -50 -42 -67 -41 -104 1 -55 25 -90 84 -121 81 -43 194 -27 261 37 l41 39 41 -18 c23 -10 64 -23 90 -30 132 -32 231 72 193 202 -16 53 -61 111 -97 122 -19 6 -26 30 -10 39 4 3 16 33 26 67 24 86 14 140 -34 192 -32 34 -44 40 -87 44 -32 2 -60 -2 -80 -12z m-60 -303 c54 -49 57 -121 6 -147 -62 -32 -122 -9 -141 54 -27 89 67 153 135 93z" transform="translate(0,117) scale(0.1,-0.1)" stroke="none" fill="#F7B83F"/>

</g>

</g>
<g id="col1" transform="translate(119, -43.5)">
<g id="0" transform="translate(0,0.0)scale(0.8,0.8)">

<path d="M700 787 c0 -8 -10 -13 -22 -13 -19 1 -23 -5 -24 -28 -2 -41 18 -78 38 -72 9 2 19 -2 22 -10 7 -19 35 -18 43 2 4 11 -1 22 -12 30 -23 17 -12 18 15 2 30 -19 44 1 27 41 -18 42 -87 80 -87 48z m15 -95 c-3 -3 -11 0 -18 7 -9 10 -8 11 6 5 10 -3 15 -9 12 -12z" transform="translate(0,117) scale(0.1,-0.1)" stroke="none" fill="#D6DACA"/>

<path d="M211 853 c-57 -20 -141 -100 -141 -135 0 -19 8 -29 38 -41 66 -29 155 -50 237 -56 l80 -6 32 43 33 42 -34 45 c-19 24 -39 60 -46 79 -7 21 -19 36 -33 40 -39 10 -121 5 -166 -11z" transform="translate(0,117) scale(0.1,-0.1)" stroke="none" fill="#D6DACA"/>

<path d="M762 455 c-30 -31 -32 -37 -27 -80 12 -94 81 -225 153 -288 62 -55 107 28 99 183 -3 52 -11 111 -17 130 -11 32 -19 38 -79 58 -94 33 -93 33 -129 -3z" transform="translate(0,117) scale(0.1,-0.1)" stroke="none" fill="#D6DACA"/>

<path d="M844 1105 c-17 -9 -48 -33 -68 -54 l-37 -38 -50 25 c-136 68 -275 11 -287 -117 -5 -58 27 -147 67 -185 l30 -29 -42 -59 c-35 -50 -42 -67 -41 -104 1 -55 25 -90 84 -121 81 -43 194 -27 261 37 l41 39 41 -18 c23 -10 64 -23 90 -30 132 -32 231 72 193 202 -16 53 -61 111 -97 122 -19 6 -26 30 -10 39 4 3 16 33 26 67 24 86 14 140 -34 192 -32 34 -44 40 -87 44 -32 2 -60 -2 -80 -12z m-60 -303 c54 -49 57 -121 6 -147 -62 -32 -122 -9 -141 54 -27 89 67 153 135 93z" transform="translate(0,117) scale(0.1,-0.1)" stroke="none" fill="#F7B83F"/>

</g>

<g id="1" transform="translate(0,117.0)scale(0.8,0.8)">

<path d="M700 787 c0 -8 -10 -13 -22 -13 -19 1 -23 -5 -24 -28 -2 -41 18 -78 38 -72 9 2 19 -2 22 -10 7 -19 35 -18 43 2 4 11 -1 22 -12 30 -23 17 -12 18 15 2 30 -19 44 1 27 41 -18 42 -87 80 -87 48z m15 -95 c-3 -3 -11 0 -18 7 -9 10 -8 11 6 5 10 -3 15 -9 12 -12z" transform="translate(0,117) scale(0.1,-0.1)" stroke="none" fill="#D6DACA"/>

<path d="M211 853 c-57 -20 -141 -100 -141 -135 0 -19 8 -29 38 -41 66 -29 155 -50 237 -56 l80 -6 32 43 33 42 -34 45 c-19 24 -39 60 -46 79 -7 21 -19 36 -33 40 -39 10 -121 5 -166 -11z" transform="translate(0,117) scale(0.1,-0.1)" stroke="none" fill="#D6DACA"/>

<path d="M762 455 c-30 -31 -32 -37 -27 -80 12 -94 81 -225 153 -288 62 -55 107 28 99 183 -3 52 -11 111 -17 130 -11 32 -19 38 -79 58 -94 33 -93 33 -129 -3z" transform="translate(0,117) scale(0.1,-0.1)" stroke="none" fill="#D6DACA"/>

<path d="M844 1105 c-17 -9 -48 -33 -68 -54 l-37 -38 -50 25 c-136 68 -275 11 -287 -117 -5 -58 27 -147 67 -185 l30 -29 -42 -59 c-35 -50 -42 -67 -41 -104 1 -55 25 -90 84 -121 81 -43 194 -27 261 37 l41 39 41 -18 c23 -10 64 -23 90 -30 132 -32 231 72 193 202 -16 53 -61 111 -97 122 -19 6 -26 30 -10 39 4 3 16 33 26 67 24 86 14 140 -34 192 -32 34 -44 40 -87 44 -32 2 -60 -2 -80 -12z m-60 -303 c54 -49 57 -121 6 -147 -62 -32 -122 -9 -141 54 -27 89 67 153 135 93z" transform="translate(0,117) scale(0.1,-0.1)" stroke="none" fill="#F7B83F"/>

</g>

<g id="2" transform="translate(0,234.0)scale(0.8,0.8)">

<path d="M700 787 c0 -8 -10 -13 -22 -13 -19 1 -23 -5 -24 -28 -2 -41 18 -78 38 -72 9 2 19 -2 22 -10 7 -19 35 -18 43 2 4 11 -1 22 -12 30 -23 17 -12 18 15 2 30 -19 44 1 27 41 -18 42 -87 80 -87 48z m15 -95 c-3 -3 -11 0 -18 7 -9 10 -8 11 6 5 10 -3 15 -9 12 -12z" transform="translate(0,117) scale(0.1,-0.1)" stroke="none" fill="#D6DACA"/>

<path d="M211 853 c-57 -20 -141 -100 -141 -135 0 -19 8 -29 38 -41 66 -29 155 -50 237 -56 l80 -6 32 43 33 42 -34 45 c-19 24 -39 60 -46 79 -7 21 -19 36 -33 40 -39 10 -121 5 -166 -11z" transform="translate(0,117) scale(0.1,-0.1)" stroke="none" fill="#D6DACA"/>

<path d="M762 455 c-30 -31 -32 -37 -27 -80 12 -94 81 -225 153 -288 62 -55 107 28 99 183 -3 52 -11 111 -17 130 -11 32 -19 38 -79 58 -94 33 -93 33 -129 -3z" transform="translate(0,117) scale(0.1,-0.1)" stroke="none" fill="#D6DACA"/>

<path d="M844 1105 c-17 -9 -48 -33 -68 -54 l-37 -38 -50 25 c-136 68 -275 11 -287 -117 -5 -58 27 -147 67 -185 l30 -29 -42 -59 c-35 -50 -42 -67 -41 -104 1 -55 25 -90 84 -121 81 -43 194 -27 261 37 l41 39 41 -18 c23 -10 64 -23 90 -30 132 -32 231 72 193 202 -16 53 -61 111 -97 122 -19 6 -26 30 -10 39 4 3 16 33 26 67 24 86 14 140 -34 192 -32 34 -44 40 -87 44 -32 2 -60 -2 -80 -12z m-60 -303 c54 -49 57 -121 6 -147 -62 -32 -122 -9 -141 54 -27 89 67 153 135 93z" transform="translate(0,117) scale(0.1,-0.1)" stroke="none" fill="#F7B83F"/>

</g>

<g id="3" transform="translate(0,351.0)scale(0.8,0.8)">

<path d="M700 787 c0 -8 -10 -13 -22 -13 -19 1 -23 -5 -24 -28 -2 -41 18 -78 38 -72 9 2 19 -2 22 -10 7 -19 35 -18 43 2 4 11 -1 22 -12 30 -23 17 -12 18 15 2 30 -19 44 1 27 41 -18 42 -87 80 -87 48z m15 -95 c-3 -3 -11 0 -18 7 -9 10 -8 11 6 5 10 -3 15 -9 12 -12z" transform="translate(0,117) scale(0.1,-0.1)" stroke="none" fill="#D6DACA"/>

<path d="M211 853 c-57 -20 -141 -100 -141 -135 0 -19 8 -29 38 -41 66 -29 155 -50 237 -56 l80 -6 32 43 33 42 -34 45 c-19 24 -39 60 -46 79 -7 21 -19 36 -33 40 -39 10 -121 5 -166 -11z" transform="translate(0,117) scale(0.1,-0.1)" stroke="none" fill="#D6DACA"/>

<path d="M762 455 c-30 -31 -32 -37 -27 -80 12 -94 81 -225 153 -288 62 -55 107 28 99 183 -3 52 -11 111 -17 130 -11 32 -19 38 -79 58 -94 33 -93 33 -129 -3z" transform="translate(0,117) scale(0.1,-0.1)" stroke="none" fill="#D6DACA"/>

<path d="M844 1105 c-17 -9 -48 -33 -68 -54 l-37 -38 -50 25 c-136 68 -275 11 -287 -117 -5 -58 27 -147 67 -185 l30 -29 -42 -59 c-35 -50 -42 -67 -41 -104 1 -55 25 -90 84 -121 81 -43 194 -27 261 37 l41 39 41 -18 c23 -10 64 -23 90 -30 132 -32 231 72 193 202 -16 53 -61 111 -97 122 -19 6 -26 30 -10 39 4 3 16 33 26 67 24 86 14 140 -34 192 -32 34 -44 40 -87 44 -32 2 -60 -2 -80 -12z m-60 -303 c54 -49 57 -121 6 -147 -62 -32 -122 -9 -141 54 -27 89 67 153 135 93z" transform="translate(0,117) scale(0.1,-0.1)" stroke="none" fill="#F7B83F"/>

</g>

<g id="4" transform="translate(0,468.0)scale(0.8,0.8)">

<path d="M700 787 c0 -8 -10 -13 -22 -13 -19 1 -23 -5 -24 -28 -2 -41 18 -78 38 -72 9 2 19 -2 22 -10 7 -19 35 -18 43 2 4 11 -1 22 -12 30 -23 17 -12 18 15 2 30 -19 44 1 27 41 -18 42 -87 80 -87 48z m15 -95 c-3 -3 -11 0 -18 7 -9 10 -8 11 6 5 10 -3 15 -9 12 -12z" transform="translate(0,117) scale(0.1,-0.1)" stroke="none" fill="#D6DACA"/>

<path d="M211 853 c-57 -20 -141 -100 -141 -135 0 -19 8 -29 38 -41 66 -29 155 -50 237 -56 l80 -6 32 43 33 42 -34 45 c-19 24 -39 60 -46 79 -7 21 -19 36 -33 40 -39 10 -121 5 -166 -11z" transform="translate(0,117) scale(0.1,-0.1)" stroke="none" fill="#D6DACA"/>

<path d="M762 455 c-30 -31 -32 -37 -27 -80 12 -94 81 -225 153 -288 62 -55 107 28 99 183 -3 52 -11 111 -17 130 -11 32 -19 38 -79 58 -94 33 -93 33 -129 -3z" transform="translate(0,117) scale(0.1,-0.1)" stroke="none" fill="#D6DACA"/>

<path d="M844 1105 c-17 -9 -48 -33 -68 -54 l-37 -38 -50 25 c-136 68 -275 11 -287 -117 -5 -58 27 -147 67 -185 l30 -29 -42 -59 c-35 -50 -42 -67 -41 -104 1 -55 25 -90 84 -121 81 -43 194 -27 261 37 l41 39 41 -18 c23 -10 64 -23 90 -30 132 -32 231 72 193 202 -16 53 -61 111 -97 122 -19 6 -26 30 -10 39 4 3 16 33 26 67 24 86 14 140 -34 192 -32 34 -44 40 -87 44 -32 2 -60 -2 -80 -12z m-60 -303 c54 -49 57 -121 6 -147 -62 -32 -122 -9 -141 54 -27 89 67 153 135 93z" transform="translate(0,117) scale(0.1,-0.1)" stroke="none" fill="#F7B83F"/>

</g>

</g>
<g id="col2" transform="translate(238, 15)">
<g id="0" transform="translate(0,0.0)scale(0.8,0.8)">

<path d="M700 787 c0 -8 -10 -13 -22 -13 -19 1 -23 -5 -24 -28 -2 -41 18 -78 38 -72 9 2 19 -2 22 -10 7 -19 35 -18 43 2 4 11 -1 22 -12 30 -23 17 -12 18 15 2 30 -19 44 1 27 41 -18 42 -87 80 -87 48z m15 -95 c-3 -3 -11 0 -18 7 -9 10 -8 11 6 5 10 -3 15 -9 12 -12z" transform="translate(0,117) scale(0.1,-0.1)" stroke="none" fill="#D6DACA"/>

<path d="M211 853 c-57 -20 -141 -100 -141 -135 0 -19 8 -29 38 -41 66 -29 155 -50 237 -56 l80 -6 32 43 33 42 -34 45 c-19 24 -39 60 -46 79 -7 21 -19 36 -33 40 -39 10 -121 5 -166 -11z" transform="translate(0,117) scale(0.1,-0.1)" stroke="none" fill="#D6DACA"/>

<path d="M762 455 c-30 -31 -32 -37 -27 -80 12 -94 81 -225 153 -288 62 -55 107 28 99 183 -3 52 -11 111 -17 130 -11 32 -19 38 -79 58 -94 33 -93 33 -129 -3z" transform="translate(0,117) scale(0.1,-0.1)" stroke="none" fill="#D6DACA"/>

<path d="M844 1105 c-17 -9 -48 -33 -68 -54 l-37 -38 -50 25 c-136 68 -275 11 -287 -117 -5 -58 27 -147 67 -185 l30 -29 -42 -59 c-35 -50 -42 -67 -41 -104 1 -55 25 -90 84 -121 81 -43 194 -27 261 37 l41 39 41 -18 c23 -10 64 -23 90 -30 132 -32 231 72 193 202 -16 53 -61 111 -97 122 -19 6 -26 30 -10 39 4 3 16 33 26 67 24 86 14 140 -34 192 -32 34 -44 40 -87 44 -32 2 -60 -2 -80 -12z m-60 -303 c54 -49 57 -121 6 -147 -62 -32 -122 -9 -141 54 -27 89 67 153 135 93z" transform="translate(0,117) scale(0.1,-0.1)" stroke="none" fill="#F7B83F"/>

</g>

<g id="1" transform="translate(0,117.0)scale(0.8,0.8)">

<path d="M700 787 c0 -8 -10 -13 -22 -13 -19 1 -23 -5 -24 -28 -2 -41 18 -78 38 -72 9 2 19 -2 22 -10 7 -19 35 -18 43 2 4 11 -1 22 -12 30 -23 17 -12 18 15 2 30 -19 44 1 27 41 -18 42 -87 80 -87 48z m15 -95 c-3 -3 -11 0 -18 7 -9 10 -8 11 6 5 10 -3 15 -9 12 -12z" transform="translate(0,117) scale(0.1,-0.1)" stroke="none" fill="#D6DACA"/>

<path d="M211 853 c-57 -20 -141 -100 -141 -135 0 -19 8 -29 38 -41 66 -29 155 -50 237 -56 l80 -6 32 43 33 42 -34 45 c-19 24 -39 60 -46 79 -7 21 -19 36 -33 40 -39 10 -121 5 -166 -11z" transform="translate(0,117) scale(0.1,-0.1)" stroke="none" fill="#D6DACA"/>

<path d="M762 455 c-30 -31 -32 -37 -27 -80 12 -94 81 -225 153 -288 62 -55 107 28 99 183 -3 52 -11 111 -17 130 -11 32 -19 38 -79 58 -94 33 -93 33 -129 -3z" transform="translate(0,117) scale(0.1,-0.1)" stroke="none" fill="#D6DACA"/>

<path d="M844 1105 c-17 -9 -48 -33 -68 -54 l-37 -38 -50 25 c-136 68 -275 11 -287 -117 -5 -58 27 -147 67 -185 l30 -29 -42 -59 c-35 -50 -42 -67 -41 -104 1 -55 25 -90 84 -121 81 -43 194 -27 261 37 l41 39 41 -18 c23 -10 64 -23 90 -30 132 -32 231 72 193 202 -16 53 -61 111 -97 122 -19 6 -26 30 -10 39 4 3 16 33 26 67 24 86 14 140 -34 192 -32 34 -44 40 -87 44 -32 2 -60 -2 -80 -12z m-60 -303 c54 -49 57 -121 6 -147 -62 -32 -122 -9 -141 54 -27 89 67 153 135 93z" transform="translate(0,117) scale(0.1,-0.1)" stroke="none" fill="#F7B83F"/>

</g>

<g id="2" transform="translate(0,234.0)scale(0.8,0.8)">

<path d="M700 787 c0 -8 -10 -13 -22 -13 -19 1 -23 -5 -24 -28 -2 -41 18 -78 38 -72 9 2 19 -2 22 -10 7 -19 35 -18 43 2 4 11 -1 22 -12 30 -23 17 -12 18 15 2 30 -19 44 1 27 41 -18 42 -87 80 -87 48z m15 -95 c-3 -3 -11 0 -18 7 -9 10 -8 11 6 5 10 -3 15 -9 12 -12z" transform="translate(0,117) scale(0.1,-0.1)" stroke="none" fill="#D6DACA"/>

<path d="M211 853 c-57 -20 -141 -100 -141 -135 0 -19 8 -29 38 -41 66 -29 155 -50 237 -56 l80 -6 32 43 33 42 -34 45 c-19 24 -39 60 -46 79 -7 21 -19 36 -33 40 -39 10 -121 5 -166 -11z" transform="translate(0,117) scale(0.1,-0.1)" stroke="none" fill="#D6DACA"/>

<path d="M762 455 c-30 -31 -32 -37 -27 -80 12 -94 81 -225 153 -288 62 -55 107 28 99 183 -3 52 -11 111 -17 130 -11 32 -19 38 -79 58 -94 33 -93 33 -129 -3z" transform="translate(0,117) scale(0.1,-0.1)" stroke="none" fill="#D6DACA"/>

<path d="M844 1105 c-17 -9 -48 -33 -68 -54 l-37 -38 -50 25 c-136 68 -275 11 -287 -117 -5 -58 27 -147 67 -185 l30 -29 -42 -59 c-35 -50 -42 -67 -41 -104 1 -55 25 -90 84 -121 81 -43 194 -27 261 37 l41 39 41 -18 c23 -10 64 -23 90 -30 132 -32 231 72 193 202 -16 53 -61 111 -97 122 -19 6 -26 30 -10 39 4 3 16 33 26 67 24 86 14 140 -34 192 -32 34 -44 40 -87 44 -32 2 -60 -2 -80 -12z m-60 -303 c54 -49 57 -121 6 -147 -62 -32 -122 -9 -141 54 -27 89 67 153 135 93z" transform="translate(0,117) scale(0.1,-0.1)" stroke="none" fill="#F7B83F"/>

</g>

<g id="3" transform="translate(0,351.0)scale(0.8,0.8)">

<path d="M700 787 c0 -8 -10 -13 -22 -13 -19 1 -23 -5 -24 -28 -2 -41 18 -78 38 -72 9 2 19 -2 22 -10 7 -19 35 -18 43 2 4 11 -1 22 -12 30 -23 17 -12 18 15 2 30 -19 44 1 27 41 -18 42 -87 80 -87 48z m15 -95 c-3 -3 -11 0 -18 7 -9 10 -8 11 6 5 10 -3 15 -9 12 -12z" transform="translate(0,117) scale(0.1,-0.1)" stroke="none" fill="#D6DACA"/>

<path d="M211 853 c-57 -20 -141 -100 -141 -135 0 -19 8 -29 38 -41 66 -29 155 -50 237 -56 l80 -6 32 43 33 42 -34 45 c-19 24 -39 60 -46 79 -7 21 -19 36 -33 40 -39 10 -121 5 -166 -11z" transform="translate(0,117) scale(0.1,-0.1)" stroke="none" fill="#D6DACA"/>

<path d="M762 455 c-30 -31 -32 -37 -27 -80 12 -94 81 -225 153 -288 62 -55 107 28 99 183 -3 52 -11 111 -17 130 -11 32 -19 38 -79 58 -94 33 -93 33 -129 -3z" transform="translate(0,117) scale(0.1,-0.1)" stroke="none" fill="#D6DACA"/>

<path d="M844 1105 c-17 -9 -48 -33 -68 -54 l-37 -38 -50 25 c-136 68 -275 11 -287 -117 -5 -58 27 -147 67 -185 l30 -29 -42 -59 c-35 -50 -42 -67 -41 -104 1 -55 25 -90 84 -121 81 -43 194 -27 261 37 l41 39 41 -18 c23 -10 64 -23 90 -30 132 -32 231 72 193 202 -16 53 -61 111 -97 122 -19 6 -26 30 -10 39 4 3 16 33 26 67 24 86 14 140 -34 192 -32 34 -44 40 -87 44 -32 2 -60 -2 -80 -12z m-60 -303 c54 -49 57 -121 6 -147 -62 -32 -122 -9 -141 54 -27 89 67 153 135 93z" transform="translate(0,117) scale(0.1,-0.1)" stroke="none" fill="#F7B83F"/>

</g>

<g id="4" transform="translate(0,468.0)scale(0.8,0.8)">

<path d="M700 787 c0 -8 -10 -13 -22 -13 -19 1 -23 -5 -24 -28 -2 -41 18 -78 38 -72 9 2 19 -2 22 -10 7 -19 35 -18 43 2 4 11 -1 22 -12 30 -23 17 -12 18 15 2 30 -19 44 1 27 41 -18 42 -87 80 -87 48z m15 -95 c-3 -3 -11 0 -18 7 -9 10 -8 11 6 5 10 -3 15 -9 12 -12z" transform="translate(0,117) scale(0.1,-0.1)" stroke="none" fill="#D6DACA"/>

<path d="M211 853 c-57 -20 -141 -100 -141 -135 0 -19 8 -29 38 -41 66 -29 155 -50 237 -56 l80 -6 32 43 33 42 -34 45 c-19 24 -39 60 -46 79 -7 21 -19 36 -33 40 -39 10 -121 5 -166 -11z" transform="translate(0,117) scale(0.1,-0.1)" stroke="none" fill="#D6DACA"/>

<path d="M762 455 c-30 -31 -32 -37 -27 -80 12 -94 81 -225 153 -288 62 -55 107 28 99 183 -3 52 -11 111 -17 130 -11 32 -19 38 -79 58 -94 33 -93 33 -129 -3z" transform="translate(0,117) scale(0.1,-0.1)" stroke="none" fill="#D6DACA"/>

<path d="M844 1105 c-17 -9 -48 -33 -68 -54 l-37 -38 -50 25 c-136 68 -275 11 -287 -117 -5 -58 27 -147 67 -185 l30 -29 -42 -59 c-35 -50 -42 -67 -41 -104 1 -55 25 -90 84 -121 81 -43 194 -27 261 37 l41 39 41 -18 c23 -10 64 -23 90 -30 132 -32 231 72 193 202 -16 53 -61 111 -97 122 -19 6 -26 30 -10 39 4 3 16 33 26 67 24 86 14 140 -34 192 -32 34 -44 40 -87 44 -32 2 -60 -2 -80 -12z m-60 -303 c54 -49 57 -121 6 -147 -62 -32 -122 -9 -141 54 -27 89 67 153 135 93z" transform="translate(0,117) scale(0.1,-0.1)" stroke="none" fill="#F7B83F"/>

</g>

</g>
<g id="col3" transform="translate(357, -43.5)">
<g id="0" transform="translate(0,0.0)scale(0.8,0.8)">

<path d="M700 787 c0 -8 -10 -13 -22 -13 -19 1 -23 -5 -24 -28 -2 -41 18 -78 38 -72 9 2 19 -2 22 -10 7 -19 35 -18 43 2 4 11 -1 22 -12 30 -23 17 -12 18 15 2 30 -19 44 1 27 41 -18 42 -87 80 -87 48z m15 -95 c-3 -3 -11 0 -18 7 -9 10 -8 11 6 5 10 -3 15 -9 12 -12z" transform="translate(0,117) scale(0.1,-0.1)" stroke="none" fill="#D6DACA"/>

<path d="M211 853 c-57 -20 -141 -100 -141 -135 0 -19 8 -29 38 -41 66 -29 155 -50 237 -56 l80 -6 32 43 33 42 -34 45 c-19 24 -39 60 -46 79 -7 21 -19 36 -33 40 -39 10 -121 5 -166 -11z" transform="translate(0,117) scale(0.1,-0.1)" stroke="none" fill="#D6DACA"/>

<path d="M762 455 c-30 -31 -32 -37 -27 -80 12 -94 81 -225 153 -288 62 -55 107 28 99 183 -3 52 -11 111 -17 130 -11 32 -19 38 -79 58 -94 33 -93 33 -129 -3z" transform="translate(0,117) scale(0.1,-0.1)" stroke="none" fill="#D6DACA"/>

<path d="M844 1105 c-17 -9 -48 -33 -68 -54 l-37 -38 -50 25 c-136 68 -275 11 -287 -117 -5 -58 27 -147 67 -185 l30 -29 -42 -59 c-35 -50 -42 -67 -41 -104 1 -55 25 -90 84 -121 81 -43 194 -27 261 37 l41 39 41 -18 c23 -10 64 -23 90 -30 132 -32 231 72 193 202 -16 53 -61 111 -97 122 -19 6 -26 30 -10 39 4 3 16 33 26 67 24 86 14 140 -34 192 -32 34 -44 40 -87 44 -32 2 -60 -2 -80 -12z m-60 -303 c54 -49 57 -121 6 -147 -62 -32 -122 -9 -141 54 -27 89 67 153 135 93z" transform="translate(0,117) scale(0.1,-0.1)" stroke="none" fill="#F7B83F"/>

</g>

<g id="1" transform="translate(0,117.0)scale(0.8,0.8)">

<path d="M700 787 c0 -8 -10 -13 -22 -13 -19 1 -23 -5 -24 -28 -2 -41 18 -78 38 -72 9 2 19 -2 22 -10 7 -19 35 -18 43 2 4 11 -1 22 -12 30 -23 17 -12 18 15 2 30 -19 44 1 27 41 -18 42 -87 80 -87 48z m15 -95 c-3 -3 -11 0 -18 7 -9 10 -8 11 6 5 10 -3 15 -9 12 -12z" transform="translate(0,117) scale(0.1,-0.1)" stroke="none" fill="#D6DACA"/>

<path d="M211 853 c-57 -20 -141 -100 -141 -135 0 -19 8 -29 38 -41 66 -29 155 -50 237 -56 l80 -6 32 43 33 42 -34 45 c-19 24 -39 60 -46 79 -7 21 -19 36 -33 40 -39 10 -121 5 -166 -11z" transform="translate(0,117) scale(0.1,-0.1)" stroke="none" fill="#D6DACA"/>

<path d="M762 455 c-30 -31 -32 -37 -27 -80 12 -94 81 -225 153 -288 62 -55 107 28 99 183 -3 52 -11 111 -17 130 -11 32 -19 38 -79 58 -94 33 -93 33 -129 -3z" transform="translate(0,117) scale(0.1,-0.1)" stroke="none" fill="#D6DACA"/>

<path d="M844 1105 c-17 -9 -48 -33 -68 -54 l-37 -38 -50 25 c-136 68 -275 11 -287 -117 -5 -58 27 -147 67 -185 l30 -29 -42 -59 c-35 -50 -42 -67 -41 -104 1 -55 25 -90 84 -121 81 -43 194 -27 261 37 l41 39 41 -18 c23 -10 64 -23 90 -30 132 -32 231 72 193 202 -16 53 -61 111 -97 122 -19 6 -26 30 -10 39 4 3 16 33 26 67 24 86 14 140 -34 192 -32 34 -44 40 -87 44 -32 2 -60 -2 -80 -12z m-60 -303 c54 -49 57 -121 6 -147 -62 -32 -122 -9 -141 54 -27 89 67 153 135 93z" transform="translate(0,117) scale(0.1,-0.1)" stroke="none" fill="#F7B83F"/>

</g>

<g id="2" transform="translate(0,234.0)scale(0.8,0.8)">

<path d="M700 787 c0 -8 -10 -13 -22 -13 -19 1 -23 -5 -24 -28 -2 -41 18 -78 38 -72 9 2 19 -2 22 -10 7 -19 35 -18 43 2 4 11 -1 22 -12 30 -23 17 -12 18 15 2 30 -19 44 1 27 41 -18 42 -87 80 -87 48z m15 -95 c-3 -3 -11 0 -18 7 -9 10 -8 11 6 5 10 -3 15 -9 12 -12z" transform="translate(0,117) scale(0.1,-0.1)" stroke="none" fill="#D6DACA"/>

<path d="M211 853 c-57 -20 -141 -100 -141 -135 0 -19 8 -29 38 -41 66 -29 155 -50 237 -56 l80 -6 32 43 33 42 -34 45 c-19 24 -39 60 -46 79 -7 21 -19 36 -33 40 -39 10 -121 5 -166 -11z" transform="translate(0,117) scale(0.1,-0.1)" stroke="none" fill="#D6DACA"/>

<path d="M762 455 c-30 -31 -32 -37 -27 -80 12 -94 81 -225 153 -288 62 -55 107 28 99 183 -3 52 -11 111 -17 130 -11 32 -19 38 -79 58 -94 33 -93 33 -129 -3z" transform="translate(0,117) scale(0.1,-0.1)" stroke="none" fill="#D6DACA"/>

<path d="M844 1105 c-17 -9 -48 -33 -68 -54 l-37 -38 -50 25 c-136 68 -275 11 -287 -117 -5 -58 27 -147 67 -185 l30 -29 -42 -59 c-35 -50 -42 -67 -41 -104 1 -55 25 -90 84 -121 81 -43 194 -27 261 37 l41 39 41 -18 c23 -10 64 -23 90 -30 132 -32 231 72 193 202 -16 53 -61 111 -97 122 -19 6 -26 30 -10 39 4 3 16 33 26 67 24 86 14 140 -34 192 -32 34 -44 40 -87 44 -32 2 -60 -2 -80 -12z m-60 -303 c54 -49 57 -121 6 -147 -62 -32 -122 -9 -141 54 -27 89 67 153 135 93z" transform="translate(0,117) scale(0.1,-0.1)" stroke="none" fill="#F7B83F"/>

</g>

<g id="3" transform="translate(0,351.0)scale(0.8,0.8)">

<path d="M700 787 c0 -8 -10 -13 -22 -13 -19 1 -23 -5 -24 -28 -2 -41 18 -78 38 -72 9 2 19 -2 22 -10 7 -19 35 -18 43 2 4 11 -1 22 -12 30 -23 17 -12 18 15 2 30 -19 44 1 27 41 -18 42 -87 80 -87 48z m15 -95 c-3 -3 -11 0 -18 7 -9 10 -8 11 6 5 10 -3 15 -9 12 -12z" transform="translate(0,117) scale(0.1,-0.1)" stroke="none" fill="#D6DACA"/>

<path d="M211 853 c-57 -20 -141 -100 -141 -135 0 -19 8 -29 38 -41 66 -29 155 -50 237 -56 l80 -6 32 43 33 42 -34 45 c-19 24 -39 60 -46 79 -7 21 -19 36 -33 40 -39 10 -121 5 -166 -11z" transform="translate(0,117) scale(0.1,-0.1)" stroke="none" fill="#D6DACA"/>

<path d="M762 455 c-30 -31 -32 -37 -27 -80 12 -94 81 -225 153 -288 62 -55 107 28 99 183 -3 52 -11 111 -17 130 -11 32 -19 38 -79 58 -94 33 -93 33 -129 -3z" transform="translate(0,117) scale(0.1,-0.1)" stroke="none" fill="#D6DACA"/>

<path d="M844 1105 c-17 -9 -48 -33 -68 -54 l-37 -38 -50 25 c-136 68 -275 11 -287 -117 -5 -58 27 -147 67 -185 l30 -29 -42 -59 c-35 -50 -42 -67 -41 -104 1 -55 25 -90 84 -121 81 -43 194 -27 261 37 l41 39 41 -18 c23 -10 64 -23 90 -30 132 -32 231 72 193 202 -16 53 -61 111 -97 122 -19 6 -26 30 -10 39 4 3 16 33 26 67 24 86 14 140 -34 192 -32 34 -44 40 -87 44 -32 2 -60 -2 -80 -12z m-60 -303 c54 -49 57 -121 6 -147 -62 -32 -122 -9 -141 54 -27 89 67 153 135 93z" transform="translate(0,117) scale(0.1,-0.1)" stroke="none" fill="#F7B83F"/>

</g>

<g id="4" transform="translate(0,468.0)scale(0.8,0.8)">

<path d="M700 787 c0 -8 -10 -13 -22 -13 -19 1 -23 -5 -24 -28 -2 -41 18 -78 38 -72 9 2 19 -2 22 -10 7 -19 35 -18 43 2 4 11 -1 22 -12 30 -23 17 -12 18 15 2 30 -19 44 1 27 41 -18 42 -87 80 -87 48z m15 -95 c-3 -3 -11 0 -18 7 -9 10 -8 11 6 5 10 -3 15 -9 12 -12z" transform="translate(0,117) scale(0.1,-0.1)" stroke="none" fill="#D6DACA"/>

<path d="M211 853 c-57 -20 -141 -100 -141 -135 0 -19 8 -29 38 -41 66 -29 155 -50 237 -56 l80 -6 32 43 33 42 -34 45 c-19 24 -39 60 -46 79 -7 21 -19 36 -33 40 -39 10 -121 5 -166 -11z" transform="translate(0,117) scale(0.1,-0.1)" stroke="none" fill="#D6DACA"/>

<path d="M762 455 c-30 -31 -32 -37 -27 -80 12 -94 81 -225 153 -288 62 -55 107 28 99 183 -3 52 -11 111 -17 130 -11 32 -19 38 -79 58 -94 33 -93 33 -129 -3z" transform="translate(0,117) scale(0.1,-0.1)" stroke="none" fill="#D6DACA"/>

<path d="M844 1105 c-17 -9 -48 -33 -68 -54 l-37 -38 -50 25 c-136 68 -275 11 -287 -117 -5 -58 27 -147 67 -185 l30 -29 -42 -59 c-35 -50 -42 -67 -41 -104 1 -55 25 -90 84 -121 81 -43 194 -27 261 37 l41 39 41 -18 c23 -10 64 -23 90 -30 132 -32 231 72 193 202 -16 53 -61 111 -97 122 -19 6 -26 30 -10 39 4 3 16 33 26 67 24 86 14 140 -34 192 -32 34 -44 40 -87 44 -32 2 -60 -2 -80 -12z m-60 -303 c54 -49 57 -121 6 -147 -62 -32 -122 -9 -141 54 -27 89 67 153 135 93z" transform="translate(0,117) scale(0.1,-0.1)" stroke="none" fill="#F7B83F"/>

</g>

</g>
</svg>