<?xml version="1.0" standalone="no"?>
<!DOCTYPE svg PUBLIC "-//W3C//DTD SVG 20010904//EN"
 "http://www.w3.org/TR/2001/REC-SVG-20010904/DTD/svg10.dtd">
<svg version="1.0" xmlns="http://www.w3.org/2000/svg" 
width="92.000000pt" height="88.000000pt" viewBox="0 0 92.000000 88.000000"
preserveAspectRatio = "xMidYMid meet" >
<metadata>
Created by ZoeQU, 2022
</metadata>
<rect width="92.000000" height="88.000000" fill="#A8D6DA"/>
<path d="M277 808 c-3 -13 -40 -122 -81 -243 -44 -127 -74 -229 -71 -241 3 -13 -1 -24 -9 -27 -7 -3 -16 -16 -19 -29 -2 -13 -18 -67 -35 -121 -25 -82 -27 -99 -15 -104 13 -5 234 27 335 49 42 9 51 7 74 -11 39 -31 77 -27 108 10 14 17 26 34 26 38 0 4 28 13 63 20 84 18 211 51 216 57 3 2 -15 26 -40 52 -24 26 -55 59 -69 75 l-24 27 27 28 c22 23 26 33 20 65 -6 40 -42 77 -74 77 -9 0 -32 -12 -50 -27 l-32 -27 -19 24 c-56 69 -304 330 -314 330 -7 0 -14 -10 -17 -22z m23 -218 c0 -5 -4 -10 -10 -10 -5 0 -10 5 -10 10 0 6 5 10 10 10 6 0 10 -4 10 -10z m0 -100 c0 -5 -4 -10 -10 -10 -5 0 -10 5 -10 10 0 6 5 10 10 10 6 0 10 -4 10 -10z m-60 -60 c0 -5 -4 -10 -10 -10 -5 0 -10 5 -10 10 0 6 5 10 10 10 6 0 10 -4 10 -10z" transform="translate(0.000000,88.000000) scale(0.100000,-0.100000)" stroke="none" fill="#93822A"/>

</svg>