<?xml version="1.0" standalone="no"?>
<!DOCTYPE svg PUBLIC "-//W3C//DTD SVG 20010904//EN"
 "http://www.w3.org/TR/2001/REC-SVG-20010904/DTD/svg10.dtd">
<svg version="1.0" xmlns="http://www.w3.org/2000/svg" 
width="134.000000pt" height="131.000000pt" viewBox="0 0 134.000000 131.000000"
preserveAspectRatio = "xMidYMid meet" >
<metadata>
Created by ZoeQU, 2022
</metadata>
<rect width="134.000000" height="131.000000" fill="#A36CB7"/>
<path d="M250 1048 c1 -80 41 -197 106 -308 19 -32 34 -61 34 -65 0 -4 -35 -4 -77 0 -66 6 -89 13 -146 47 -38 22 -70 38 -73 36 -8 -9 61 -104 112 -154 66 -65 127 -94 199 -94 30 0 55 -3 55 -6 0 -21 -192 -249 -265 -315 -22 -20 -55 -49 -73 -65 -21 -19 -29 -33 -24 -42 6 -9 49 29 148 130 77 79 162 171 190 204 l51 62 17 -60 c41 -149 118 -272 200 -318 72 -42 83 -38 45 16 -28 41 -44 89 -63 191 l-5 33 53 -44 c70 -57 149 -86 253 -93 l83 -6 -84 89 c-47 49 -83 90 -81 92 1 2 25 -3 53 -11 102 -31 272 -34 272 -5 0 19 -71 78 -129 107 -52 27 -61 28 -111 19 -109 -20 -330 35 -401 99 -60 54 -110 165 -117 255 -3 56 -9 79 -26 96 -27 30 -174 142 -187 142 -5 0 -9 -15 -9 -32z" transform="translate(0.000000,131.000000) scale(0.100000,-0.100000)" stroke="none" fill="#D6DACA"/>

<path d="M785 1231 c-22 -10 -57 -37 -78 -60 -37 -41 -97 -152 -97 -178 0 -7 -5 -13 -11 -13 -23 0 -1 121 31 173 l29 47 -28 -14 c-55 -29 -118 -120 -147 -211 -7 -23 -17 -39 -25 -37 -9 2 -9 0 -2 -10 6 -7 13 -46 15 -86 7 -90 57 -201 117 -255 66 -60 281 -116 386 -101 28 4 57 8 66 9 28 2 104 52 127 85 l24 31 -29 -14 c-15 -8 -46 -16 -68 -17 -59 -4 -159 -1 -154 5 3 2 38 11 79 20 89 19 189 72 226 121 34 44 43 117 20 162 -9 17 -34 46 -57 64 -38 30 -40 35 -35 73 12 92 -38 149 -132 150 -52 1 -60 4 -95 38 -32 31 -45 37 -80 37 -23 0 -60 -9 -82 -19z" transform="translate(0.000000,131.000000) scale(0.100000,-0.100000)" stroke="none" fill="#F7B83F"/>

</svg>