<?xml version="1.0" standalone="no"?>
<!DOCTYPE svg PUBLIC "-//W3C//DTD SVG 20010904//EN"
 "http://www.w3.org/TR/2001/REC-SVG-20010904/DTD/svg10.dtd">
<svg version="1.0" xmlns="http://www.w3.org/2000/svg" width="352pt" height="392pt" viewBox="0 0 352 392" preserveAspectRatio = "xMidYMid meet" >
<metadata>
Created by ZoeQu, written in 2022
</metadata>
<rect width="352" height="392" fill="#B3C6D5"/>
<g id="row0" transform="translate(11,0.0)">
<g id="0" transform="translate(0.0,0)scale(1,1)">

<g transform="matrix(0.5,0,0,0.5,0,0)">

<path d="M628 824 c-62 -60 -140 -134 -173 -163 -127 -114 -415 -405 -408 -412 9 -9 214 -123 240 -134 10 -4 34 -11 53 -15 42 -10 182 -47 201 -55 8 -3 48 21 90 52 41 32 96 74 122 93 25 19 49 42 53 50 6 15 16 105 30 282 4 53 3 98 -3 115 -6 15 -16 46 -22 68 -44 159 -61 219 -66 223 -3 3 -56 -44 -117 -104z" transform="translate(0,98.0) scale(0.1,-0.1)" stroke="none" fill="#1F444E"/>

<path d="M628 824 c-62 -60 -140 -134 -173 -163 -127 -114 -415 -405 -408 -412 9 -9 214 -123 240 -134 10 -4 34 -11 53 -15 42 -10 182 -47 201 -55 8 -3 48 21 90 52 41 32 96 74 122 93 25 19 49 42 53 50 6 15 16 105 30 282 4 53 3 98 -3 115 -6 15 -16 46 -22 68 -44 159 -61 219 -66 223 -3 3 -56 -44 -117 -104z" transform="translate(176.0,98.0) scale(-0.1,-0.1)" stroke="none" fill="#1F444E"/>

<path d="M628 824 c-62 -60 -140 -134 -173 -163 -127 -114 -415 -405 -408 -412 9 -9 214 -123 240 -134 10 -4 34 -11 53 -15 42 -10 182 -47 201 -55 8 -3 48 21 90 52 41 32 96 74 122 93 25 19 49 42 53 50 6 15 16 105 30 282 4 53 3 98 -3 115 -6 15 -16 46 -22 68 -44 159 -61 219 -66 223 -3 3 -56 -44 -117 -104z" transform="translate(0,98.0) scale(0.1,0.1)" stroke="none" fill="#1F444E"/>

<path d="M628 824 c-62 -60 -140 -134 -173 -163 -127 -114 -415 -405 -408 -412 9 -9 214 -123 240 -134 10 -4 34 -11 53 -15 42 -10 182 -47 201 -55 8 -3 48 21 90 52 41 32 96 74 122 93 25 19 49 42 53 50 6 15 16 105 30 282 4 53 3 98 -3 115 -6 15 -16 46 -22 68 -44 159 -61 219 -66 223 -3 3 -56 -44 -117 -104z" transform="translate(176.0,98.0) scale(-0.1,0.1)" stroke="none" fill="#1F444E"/>

</g>

</g>

<g id="1" transform="translate(88.0,0)scale(1,1)">

<g transform="matrix(0.5,0,0,0.5,0,0)">

<path d="M628 824 c-62 -60 -140 -134 -173 -163 -127 -114 -415 -405 -408 -412 9 -9 214 -123 240 -134 10 -4 34 -11 53 -15 42 -10 182 -47 201 -55 8 -3 48 21 90 52 41 32 96 74 122 93 25 19 49 42 53 50 6 15 16 105 30 282 4 53 3 98 -3 115 -6 15 -16 46 -22 68 -44 159 -61 219 -66 223 -3 3 -56 -44 -117 -104z" transform="translate(0,98.0) scale(0.1,-0.1)" stroke="none" fill="#1F444E"/>

<path d="M628 824 c-62 -60 -140 -134 -173 -163 -127 -114 -415 -405 -408 -412 9 -9 214 -123 240 -134 10 -4 34 -11 53 -15 42 -10 182 -47 201 -55 8 -3 48 21 90 52 41 32 96 74 122 93 25 19 49 42 53 50 6 15 16 105 30 282 4 53 3 98 -3 115 -6 15 -16 46 -22 68 -44 159 -61 219 -66 223 -3 3 -56 -44 -117 -104z" transform="translate(176.0,98.0) scale(-0.1,-0.1)" stroke="none" fill="#1F444E"/>

<path d="M628 824 c-62 -60 -140 -134 -173 -163 -127 -114 -415 -405 -408 -412 9 -9 214 -123 240 -134 10 -4 34 -11 53 -15 42 -10 182 -47 201 -55 8 -3 48 21 90 52 41 32 96 74 122 93 25 19 49 42 53 50 6 15 16 105 30 282 4 53 3 98 -3 115 -6 15 -16 46 -22 68 -44 159 -61 219 -66 223 -3 3 -56 -44 -117 -104z" transform="translate(0,98.0) scale(0.1,0.1)" stroke="none" fill="#1F444E"/>

<path d="M628 824 c-62 -60 -140 -134 -173 -163 -127 -114 -415 -405 -408 -412 9 -9 214 -123 240 -134 10 -4 34 -11 53 -15 42 -10 182 -47 201 -55 8 -3 48 21 90 52 41 32 96 74 122 93 25 19 49 42 53 50 6 15 16 105 30 282 4 53 3 98 -3 115 -6 15 -16 46 -22 68 -44 159 -61 219 -66 223 -3 3 -56 -44 -117 -104z" transform="translate(176.0,98.0) scale(-0.1,0.1)" stroke="none" fill="#1F444E"/>

</g>

</g>

<g id="2" transform="translate(176.0,0)scale(1,1)">

<g transform="matrix(0.5,0,0,0.5,0,0)">

<path d="M628 824 c-62 -60 -140 -134 -173 -163 -127 -114 -415 -405 -408 -412 9 -9 214 -123 240 -134 10 -4 34 -11 53 -15 42 -10 182 -47 201 -55 8 -3 48 21 90 52 41 32 96 74 122 93 25 19 49 42 53 50 6 15 16 105 30 282 4 53 3 98 -3 115 -6 15 -16 46 -22 68 -44 159 -61 219 -66 223 -3 3 -56 -44 -117 -104z" transform="translate(0,98.0) scale(0.1,-0.1)" stroke="none" fill="#1F444E"/>

<path d="M628 824 c-62 -60 -140 -134 -173 -163 -127 -114 -415 -405 -408 -412 9 -9 214 -123 240 -134 10 -4 34 -11 53 -15 42 -10 182 -47 201 -55 8 -3 48 21 90 52 41 32 96 74 122 93 25 19 49 42 53 50 6 15 16 105 30 282 4 53 3 98 -3 115 -6 15 -16 46 -22 68 -44 159 -61 219 -66 223 -3 3 -56 -44 -117 -104z" transform="translate(176.0,98.0) scale(-0.1,-0.1)" stroke="none" fill="#1F444E"/>

<path d="M628 824 c-62 -60 -140 -134 -173 -163 -127 -114 -415 -405 -408 -412 9 -9 214 -123 240 -134 10 -4 34 -11 53 -15 42 -10 182 -47 201 -55 8 -3 48 21 90 52 41 32 96 74 122 93 25 19 49 42 53 50 6 15 16 105 30 282 4 53 3 98 -3 115 -6 15 -16 46 -22 68 -44 159 -61 219 -66 223 -3 3 -56 -44 -117 -104z" transform="translate(0,98.0) scale(0.1,0.1)" stroke="none" fill="#1F444E"/>

<path d="M628 824 c-62 -60 -140 -134 -173 -163 -127 -114 -415 -405 -408 -412 9 -9 214 -123 240 -134 10 -4 34 -11 53 -15 42 -10 182 -47 201 -55 8 -3 48 21 90 52 41 32 96 74 122 93 25 19 49 42 53 50 6 15 16 105 30 282 4 53 3 98 -3 115 -6 15 -16 46 -22 68 -44 159 -61 219 -66 223 -3 3 -56 -44 -117 -104z" transform="translate(176.0,98.0) scale(-0.1,0.1)" stroke="none" fill="#1F444E"/>

</g>

</g>

<g id="3" transform="translate(264.0,0)scale(1,1)">

<g transform="matrix(0.5,0,0,0.5,0,0)">

<path d="M628 824 c-62 -60 -140 -134 -173 -163 -127 -114 -415 -405 -408 -412 9 -9 214 -123 240 -134 10 -4 34 -11 53 -15 42 -10 182 -47 201 -55 8 -3 48 21 90 52 41 32 96 74 122 93 25 19 49 42 53 50 6 15 16 105 30 282 4 53 3 98 -3 115 -6 15 -16 46 -22 68 -44 159 -61 219 -66 223 -3 3 -56 -44 -117 -104z" transform="translate(0,98.0) scale(0.1,-0.1)" stroke="none" fill="#1F444E"/>

<path d="M628 824 c-62 -60 -140 -134 -173 -163 -127 -114 -415 -405 -408 -412 9 -9 214 -123 240 -134 10 -4 34 -11 53 -15 42 -10 182 -47 201 -55 8 -3 48 21 90 52 41 32 96 74 122 93 25 19 49 42 53 50 6 15 16 105 30 282 4 53 3 98 -3 115 -6 15 -16 46 -22 68 -44 159 -61 219 -66 223 -3 3 -56 -44 -117 -104z" transform="translate(176.0,98.0) scale(-0.1,-0.1)" stroke="none" fill="#1F444E"/>

<path d="M628 824 c-62 -60 -140 -134 -173 -163 -127 -114 -415 -405 -408 -412 9 -9 214 -123 240 -134 10 -4 34 -11 53 -15 42 -10 182 -47 201 -55 8 -3 48 21 90 52 41 32 96 74 122 93 25 19 49 42 53 50 6 15 16 105 30 282 4 53 3 98 -3 115 -6 15 -16 46 -22 68 -44 159 -61 219 -66 223 -3 3 -56 -44 -117 -104z" transform="translate(0,98.0) scale(0.1,0.1)" stroke="none" fill="#1F444E"/>

<path d="M628 824 c-62 -60 -140 -134 -173 -163 -127 -114 -415 -405 -408 -412 9 -9 214 -123 240 -134 10 -4 34 -11 53 -15 42 -10 182 -47 201 -55 8 -3 48 21 90 52 41 32 96 74 122 93 25 19 49 42 53 50 6 15 16 105 30 282 4 53 3 98 -3 115 -6 15 -16 46 -22 68 -44 159 -61 219 -66 223 -3 3 -56 -44 -117 -104z" transform="translate(176.0,98.0) scale(-0.1,0.1)" stroke="none" fill="#1F444E"/>

</g>

</g>

<g id="4" transform="translate(352.0,0)scale(1,1)">

<g transform="matrix(0.5,0,0,0.5,0,0)">

<path d="M628 824 c-62 -60 -140 -134 -173 -163 -127 -114 -415 -405 -408 -412 9 -9 214 -123 240 -134 10 -4 34 -11 53 -15 42 -10 182 -47 201 -55 8 -3 48 21 90 52 41 32 96 74 122 93 25 19 49 42 53 50 6 15 16 105 30 282 4 53 3 98 -3 115 -6 15 -16 46 -22 68 -44 159 -61 219 -66 223 -3 3 -56 -44 -117 -104z" transform="translate(0,98.0) scale(0.1,-0.1)" stroke="none" fill="#1F444E"/>

<path d="M628 824 c-62 -60 -140 -134 -173 -163 -127 -114 -415 -405 -408 -412 9 -9 214 -123 240 -134 10 -4 34 -11 53 -15 42 -10 182 -47 201 -55 8 -3 48 21 90 52 41 32 96 74 122 93 25 19 49 42 53 50 6 15 16 105 30 282 4 53 3 98 -3 115 -6 15 -16 46 -22 68 -44 159 -61 219 -66 223 -3 3 -56 -44 -117 -104z" transform="translate(176.0,98.0) scale(-0.1,-0.1)" stroke="none" fill="#1F444E"/>

<path d="M628 824 c-62 -60 -140 -134 -173 -163 -127 -114 -415 -405 -408 -412 9 -9 214 -123 240 -134 10 -4 34 -11 53 -15 42 -10 182 -47 201 -55 8 -3 48 21 90 52 41 32 96 74 122 93 25 19 49 42 53 50 6 15 16 105 30 282 4 53 3 98 -3 115 -6 15 -16 46 -22 68 -44 159 -61 219 -66 223 -3 3 -56 -44 -117 -104z" transform="translate(0,98.0) scale(0.1,0.1)" stroke="none" fill="#1F444E"/>

<path d="M628 824 c-62 -60 -140 -134 -173 -163 -127 -114 -415 -405 -408 -412 9 -9 214 -123 240 -134 10 -4 34 -11 53 -15 42 -10 182 -47 201 -55 8 -3 48 21 90 52 41 32 96 74 122 93 25 19 49 42 53 50 6 15 16 105 30 282 4 53 3 98 -3 115 -6 15 -16 46 -22 68 -44 159 -61 219 -66 223 -3 3 -56 -44 -117 -104z" transform="translate(176.0,98.0) scale(-0.1,0.1)" stroke="none" fill="#1F444E"/>

</g>

</g>

</g>
<g id="row1" transform="translate(11,98.0)">
<g id="0" transform="translate(0.0,0)scale(1,1)">

<g transform="matrix(0.5,0,0,0.5,0,0)">

<path d="M628 824 c-62 -60 -140 -134 -173 -163 -127 -114 -415 -405 -408 -412 9 -9 214 -123 240 -134 10 -4 34 -11 53 -15 42 -10 182 -47 201 -55 8 -3 48 21 90 52 41 32 96 74 122 93 25 19 49 42 53 50 6 15 16 105 30 282 4 53 3 98 -3 115 -6 15 -16 46 -22 68 -44 159 -61 219 -66 223 -3 3 -56 -44 -117 -104z" transform="translate(0,98.0) scale(0.1,-0.1)" stroke="none" fill="#1F444E"/>

<path d="M628 824 c-62 -60 -140 -134 -173 -163 -127 -114 -415 -405 -408 -412 9 -9 214 -123 240 -134 10 -4 34 -11 53 -15 42 -10 182 -47 201 -55 8 -3 48 21 90 52 41 32 96 74 122 93 25 19 49 42 53 50 6 15 16 105 30 282 4 53 3 98 -3 115 -6 15 -16 46 -22 68 -44 159 -61 219 -66 223 -3 3 -56 -44 -117 -104z" transform="translate(176.0,98.0) scale(-0.1,-0.1)" stroke="none" fill="#1F444E"/>

<path d="M628 824 c-62 -60 -140 -134 -173 -163 -127 -114 -415 -405 -408 -412 9 -9 214 -123 240 -134 10 -4 34 -11 53 -15 42 -10 182 -47 201 -55 8 -3 48 21 90 52 41 32 96 74 122 93 25 19 49 42 53 50 6 15 16 105 30 282 4 53 3 98 -3 115 -6 15 -16 46 -22 68 -44 159 -61 219 -66 223 -3 3 -56 -44 -117 -104z" transform="translate(0,98.0) scale(0.1,0.1)" stroke="none" fill="#1F444E"/>

<path d="M628 824 c-62 -60 -140 -134 -173 -163 -127 -114 -415 -405 -408 -412 9 -9 214 -123 240 -134 10 -4 34 -11 53 -15 42 -10 182 -47 201 -55 8 -3 48 21 90 52 41 32 96 74 122 93 25 19 49 42 53 50 6 15 16 105 30 282 4 53 3 98 -3 115 -6 15 -16 46 -22 68 -44 159 -61 219 -66 223 -3 3 -56 -44 -117 -104z" transform="translate(176.0,98.0) scale(-0.1,0.1)" stroke="none" fill="#1F444E"/>

</g>

</g>

<g id="1" transform="translate(88.0,0)scale(1,1)">

<g transform="matrix(0.5,0,0,0.5,0,0)">

<path d="M628 824 c-62 -60 -140 -134 -173 -163 -127 -114 -415 -405 -408 -412 9 -9 214 -123 240 -134 10 -4 34 -11 53 -15 42 -10 182 -47 201 -55 8 -3 48 21 90 52 41 32 96 74 122 93 25 19 49 42 53 50 6 15 16 105 30 282 4 53 3 98 -3 115 -6 15 -16 46 -22 68 -44 159 -61 219 -66 223 -3 3 -56 -44 -117 -104z" transform="translate(0,98.0) scale(0.1,-0.1)" stroke="none" fill="#1F444E"/>

<path d="M628 824 c-62 -60 -140 -134 -173 -163 -127 -114 -415 -405 -408 -412 9 -9 214 -123 240 -134 10 -4 34 -11 53 -15 42 -10 182 -47 201 -55 8 -3 48 21 90 52 41 32 96 74 122 93 25 19 49 42 53 50 6 15 16 105 30 282 4 53 3 98 -3 115 -6 15 -16 46 -22 68 -44 159 -61 219 -66 223 -3 3 -56 -44 -117 -104z" transform="translate(176.0,98.0) scale(-0.1,-0.1)" stroke="none" fill="#1F444E"/>

<path d="M628 824 c-62 -60 -140 -134 -173 -163 -127 -114 -415 -405 -408 -412 9 -9 214 -123 240 -134 10 -4 34 -11 53 -15 42 -10 182 -47 201 -55 8 -3 48 21 90 52 41 32 96 74 122 93 25 19 49 42 53 50 6 15 16 105 30 282 4 53 3 98 -3 115 -6 15 -16 46 -22 68 -44 159 -61 219 -66 223 -3 3 -56 -44 -117 -104z" transform="translate(0,98.0) scale(0.1,0.1)" stroke="none" fill="#1F444E"/>

<path d="M628 824 c-62 -60 -140 -134 -173 -163 -127 -114 -415 -405 -408 -412 9 -9 214 -123 240 -134 10 -4 34 -11 53 -15 42 -10 182 -47 201 -55 8 -3 48 21 90 52 41 32 96 74 122 93 25 19 49 42 53 50 6 15 16 105 30 282 4 53 3 98 -3 115 -6 15 -16 46 -22 68 -44 159 -61 219 -66 223 -3 3 -56 -44 -117 -104z" transform="translate(176.0,98.0) scale(-0.1,0.1)" stroke="none" fill="#1F444E"/>

</g>

</g>

<g id="2" transform="translate(176.0,0)scale(1,1)">

<g transform="matrix(0.5,0,0,0.5,0,0)">

<path d="M628 824 c-62 -60 -140 -134 -173 -163 -127 -114 -415 -405 -408 -412 9 -9 214 -123 240 -134 10 -4 34 -11 53 -15 42 -10 182 -47 201 -55 8 -3 48 21 90 52 41 32 96 74 122 93 25 19 49 42 53 50 6 15 16 105 30 282 4 53 3 98 -3 115 -6 15 -16 46 -22 68 -44 159 -61 219 -66 223 -3 3 -56 -44 -117 -104z" transform="translate(0,98.0) scale(0.1,-0.1)" stroke="none" fill="#1F444E"/>

<path d="M628 824 c-62 -60 -140 -134 -173 -163 -127 -114 -415 -405 -408 -412 9 -9 214 -123 240 -134 10 -4 34 -11 53 -15 42 -10 182 -47 201 -55 8 -3 48 21 90 52 41 32 96 74 122 93 25 19 49 42 53 50 6 15 16 105 30 282 4 53 3 98 -3 115 -6 15 -16 46 -22 68 -44 159 -61 219 -66 223 -3 3 -56 -44 -117 -104z" transform="translate(176.0,98.0) scale(-0.1,-0.1)" stroke="none" fill="#1F444E"/>

<path d="M628 824 c-62 -60 -140 -134 -173 -163 -127 -114 -415 -405 -408 -412 9 -9 214 -123 240 -134 10 -4 34 -11 53 -15 42 -10 182 -47 201 -55 8 -3 48 21 90 52 41 32 96 74 122 93 25 19 49 42 53 50 6 15 16 105 30 282 4 53 3 98 -3 115 -6 15 -16 46 -22 68 -44 159 -61 219 -66 223 -3 3 -56 -44 -117 -104z" transform="translate(0,98.0) scale(0.1,0.1)" stroke="none" fill="#1F444E"/>

<path d="M628 824 c-62 -60 -140 -134 -173 -163 -127 -114 -415 -405 -408 -412 9 -9 214 -123 240 -134 10 -4 34 -11 53 -15 42 -10 182 -47 201 -55 8 -3 48 21 90 52 41 32 96 74 122 93 25 19 49 42 53 50 6 15 16 105 30 282 4 53 3 98 -3 115 -6 15 -16 46 -22 68 -44 159 -61 219 -66 223 -3 3 -56 -44 -117 -104z" transform="translate(176.0,98.0) scale(-0.1,0.1)" stroke="none" fill="#1F444E"/>

</g>

</g>

<g id="3" transform="translate(264.0,0)scale(1,1)">

<g transform="matrix(0.5,0,0,0.5,0,0)">

<path d="M628 824 c-62 -60 -140 -134 -173 -163 -127 -114 -415 -405 -408 -412 9 -9 214 -123 240 -134 10 -4 34 -11 53 -15 42 -10 182 -47 201 -55 8 -3 48 21 90 52 41 32 96 74 122 93 25 19 49 42 53 50 6 15 16 105 30 282 4 53 3 98 -3 115 -6 15 -16 46 -22 68 -44 159 -61 219 -66 223 -3 3 -56 -44 -117 -104z" transform="translate(0,98.0) scale(0.1,-0.1)" stroke="none" fill="#1F444E"/>

<path d="M628 824 c-62 -60 -140 -134 -173 -163 -127 -114 -415 -405 -408 -412 9 -9 214 -123 240 -134 10 -4 34 -11 53 -15 42 -10 182 -47 201 -55 8 -3 48 21 90 52 41 32 96 74 122 93 25 19 49 42 53 50 6 15 16 105 30 282 4 53 3 98 -3 115 -6 15 -16 46 -22 68 -44 159 -61 219 -66 223 -3 3 -56 -44 -117 -104z" transform="translate(176.0,98.0) scale(-0.1,-0.1)" stroke="none" fill="#1F444E"/>

<path d="M628 824 c-62 -60 -140 -134 -173 -163 -127 -114 -415 -405 -408 -412 9 -9 214 -123 240 -134 10 -4 34 -11 53 -15 42 -10 182 -47 201 -55 8 -3 48 21 90 52 41 32 96 74 122 93 25 19 49 42 53 50 6 15 16 105 30 282 4 53 3 98 -3 115 -6 15 -16 46 -22 68 -44 159 -61 219 -66 223 -3 3 -56 -44 -117 -104z" transform="translate(0,98.0) scale(0.1,0.1)" stroke="none" fill="#1F444E"/>

<path d="M628 824 c-62 -60 -140 -134 -173 -163 -127 -114 -415 -405 -408 -412 9 -9 214 -123 240 -134 10 -4 34 -11 53 -15 42 -10 182 -47 201 -55 8 -3 48 21 90 52 41 32 96 74 122 93 25 19 49 42 53 50 6 15 16 105 30 282 4 53 3 98 -3 115 -6 15 -16 46 -22 68 -44 159 -61 219 -66 223 -3 3 -56 -44 -117 -104z" transform="translate(176.0,98.0) scale(-0.1,0.1)" stroke="none" fill="#1F444E"/>

</g>

</g>

<g id="4" transform="translate(352.0,0)scale(1,1)">

<g transform="matrix(0.5,0,0,0.5,0,0)">

<path d="M628 824 c-62 -60 -140 -134 -173 -163 -127 -114 -415 -405 -408 -412 9 -9 214 -123 240 -134 10 -4 34 -11 53 -15 42 -10 182 -47 201 -55 8 -3 48 21 90 52 41 32 96 74 122 93 25 19 49 42 53 50 6 15 16 105 30 282 4 53 3 98 -3 115 -6 15 -16 46 -22 68 -44 159 -61 219 -66 223 -3 3 -56 -44 -117 -104z" transform="translate(0,98.0) scale(0.1,-0.1)" stroke="none" fill="#1F444E"/>

<path d="M628 824 c-62 -60 -140 -134 -173 -163 -127 -114 -415 -405 -408 -412 9 -9 214 -123 240 -134 10 -4 34 -11 53 -15 42 -10 182 -47 201 -55 8 -3 48 21 90 52 41 32 96 74 122 93 25 19 49 42 53 50 6 15 16 105 30 282 4 53 3 98 -3 115 -6 15 -16 46 -22 68 -44 159 -61 219 -66 223 -3 3 -56 -44 -117 -104z" transform="translate(176.0,98.0) scale(-0.1,-0.1)" stroke="none" fill="#1F444E"/>

<path d="M628 824 c-62 -60 -140 -134 -173 -163 -127 -114 -415 -405 -408 -412 9 -9 214 -123 240 -134 10 -4 34 -11 53 -15 42 -10 182 -47 201 -55 8 -3 48 21 90 52 41 32 96 74 122 93 25 19 49 42 53 50 6 15 16 105 30 282 4 53 3 98 -3 115 -6 15 -16 46 -22 68 -44 159 -61 219 -66 223 -3 3 -56 -44 -117 -104z" transform="translate(0,98.0) scale(0.1,0.1)" stroke="none" fill="#1F444E"/>

<path d="M628 824 c-62 -60 -140 -134 -173 -163 -127 -114 -415 -405 -408 -412 9 -9 214 -123 240 -134 10 -4 34 -11 53 -15 42 -10 182 -47 201 -55 8 -3 48 21 90 52 41 32 96 74 122 93 25 19 49 42 53 50 6 15 16 105 30 282 4 53 3 98 -3 115 -6 15 -16 46 -22 68 -44 159 -61 219 -66 223 -3 3 -56 -44 -117 -104z" transform="translate(176.0,98.0) scale(-0.1,0.1)" stroke="none" fill="#1F444E"/>

</g>

</g>

</g>
<g id="row2" transform="translate(11,196.0)">
<g id="0" transform="translate(0.0,0)scale(1,1)">

<g transform="matrix(0.5,0,0,0.5,0,0)">

<path d="M628 824 c-62 -60 -140 -134 -173 -163 -127 -114 -415 -405 -408 -412 9 -9 214 -123 240 -134 10 -4 34 -11 53 -15 42 -10 182 -47 201 -55 8 -3 48 21 90 52 41 32 96 74 122 93 25 19 49 42 53 50 6 15 16 105 30 282 4 53 3 98 -3 115 -6 15 -16 46 -22 68 -44 159 -61 219 -66 223 -3 3 -56 -44 -117 -104z" transform="translate(0,98.0) scale(0.1,-0.1)" stroke="none" fill="#1F444E"/>

<path d="M628 824 c-62 -60 -140 -134 -173 -163 -127 -114 -415 -405 -408 -412 9 -9 214 -123 240 -134 10 -4 34 -11 53 -15 42 -10 182 -47 201 -55 8 -3 48 21 90 52 41 32 96 74 122 93 25 19 49 42 53 50 6 15 16 105 30 282 4 53 3 98 -3 115 -6 15 -16 46 -22 68 -44 159 -61 219 -66 223 -3 3 -56 -44 -117 -104z" transform="translate(176.0,98.0) scale(-0.1,-0.1)" stroke="none" fill="#1F444E"/>

<path d="M628 824 c-62 -60 -140 -134 -173 -163 -127 -114 -415 -405 -408 -412 9 -9 214 -123 240 -134 10 -4 34 -11 53 -15 42 -10 182 -47 201 -55 8 -3 48 21 90 52 41 32 96 74 122 93 25 19 49 42 53 50 6 15 16 105 30 282 4 53 3 98 -3 115 -6 15 -16 46 -22 68 -44 159 -61 219 -66 223 -3 3 -56 -44 -117 -104z" transform="translate(0,98.0) scale(0.1,0.1)" stroke="none" fill="#1F444E"/>

<path d="M628 824 c-62 -60 -140 -134 -173 -163 -127 -114 -415 -405 -408 -412 9 -9 214 -123 240 -134 10 -4 34 -11 53 -15 42 -10 182 -47 201 -55 8 -3 48 21 90 52 41 32 96 74 122 93 25 19 49 42 53 50 6 15 16 105 30 282 4 53 3 98 -3 115 -6 15 -16 46 -22 68 -44 159 -61 219 -66 223 -3 3 -56 -44 -117 -104z" transform="translate(176.0,98.0) scale(-0.1,0.1)" stroke="none" fill="#1F444E"/>

</g>

</g>

<g id="1" transform="translate(88.0,0)scale(1,1)">

<g transform="matrix(0.5,0,0,0.5,0,0)">

<path d="M628 824 c-62 -60 -140 -134 -173 -163 -127 -114 -415 -405 -408 -412 9 -9 214 -123 240 -134 10 -4 34 -11 53 -15 42 -10 182 -47 201 -55 8 -3 48 21 90 52 41 32 96 74 122 93 25 19 49 42 53 50 6 15 16 105 30 282 4 53 3 98 -3 115 -6 15 -16 46 -22 68 -44 159 -61 219 -66 223 -3 3 -56 -44 -117 -104z" transform="translate(0,98.0) scale(0.1,-0.1)" stroke="none" fill="#1F444E"/>

<path d="M628 824 c-62 -60 -140 -134 -173 -163 -127 -114 -415 -405 -408 -412 9 -9 214 -123 240 -134 10 -4 34 -11 53 -15 42 -10 182 -47 201 -55 8 -3 48 21 90 52 41 32 96 74 122 93 25 19 49 42 53 50 6 15 16 105 30 282 4 53 3 98 -3 115 -6 15 -16 46 -22 68 -44 159 -61 219 -66 223 -3 3 -56 -44 -117 -104z" transform="translate(176.0,98.0) scale(-0.1,-0.1)" stroke="none" fill="#1F444E"/>

<path d="M628 824 c-62 -60 -140 -134 -173 -163 -127 -114 -415 -405 -408 -412 9 -9 214 -123 240 -134 10 -4 34 -11 53 -15 42 -10 182 -47 201 -55 8 -3 48 21 90 52 41 32 96 74 122 93 25 19 49 42 53 50 6 15 16 105 30 282 4 53 3 98 -3 115 -6 15 -16 46 -22 68 -44 159 -61 219 -66 223 -3 3 -56 -44 -117 -104z" transform="translate(0,98.0) scale(0.1,0.1)" stroke="none" fill="#1F444E"/>

<path d="M628 824 c-62 -60 -140 -134 -173 -163 -127 -114 -415 -405 -408 -412 9 -9 214 -123 240 -134 10 -4 34 -11 53 -15 42 -10 182 -47 201 -55 8 -3 48 21 90 52 41 32 96 74 122 93 25 19 49 42 53 50 6 15 16 105 30 282 4 53 3 98 -3 115 -6 15 -16 46 -22 68 -44 159 -61 219 -66 223 -3 3 -56 -44 -117 -104z" transform="translate(176.0,98.0) scale(-0.1,0.1)" stroke="none" fill="#1F444E"/>

</g>

</g>

<g id="2" transform="translate(176.0,0)scale(1,1)">

<g transform="matrix(0.5,0,0,0.5,0,0)">

<path d="M628 824 c-62 -60 -140 -134 -173 -163 -127 -114 -415 -405 -408 -412 9 -9 214 -123 240 -134 10 -4 34 -11 53 -15 42 -10 182 -47 201 -55 8 -3 48 21 90 52 41 32 96 74 122 93 25 19 49 42 53 50 6 15 16 105 30 282 4 53 3 98 -3 115 -6 15 -16 46 -22 68 -44 159 -61 219 -66 223 -3 3 -56 -44 -117 -104z" transform="translate(0,98.0) scale(0.1,-0.1)" stroke="none" fill="#1F444E"/>

<path d="M628 824 c-62 -60 -140 -134 -173 -163 -127 -114 -415 -405 -408 -412 9 -9 214 -123 240 -134 10 -4 34 -11 53 -15 42 -10 182 -47 201 -55 8 -3 48 21 90 52 41 32 96 74 122 93 25 19 49 42 53 50 6 15 16 105 30 282 4 53 3 98 -3 115 -6 15 -16 46 -22 68 -44 159 -61 219 -66 223 -3 3 -56 -44 -117 -104z" transform="translate(176.0,98.0) scale(-0.1,-0.1)" stroke="none" fill="#1F444E"/>

<path d="M628 824 c-62 -60 -140 -134 -173 -163 -127 -114 -415 -405 -408 -412 9 -9 214 -123 240 -134 10 -4 34 -11 53 -15 42 -10 182 -47 201 -55 8 -3 48 21 90 52 41 32 96 74 122 93 25 19 49 42 53 50 6 15 16 105 30 282 4 53 3 98 -3 115 -6 15 -16 46 -22 68 -44 159 -61 219 -66 223 -3 3 -56 -44 -117 -104z" transform="translate(0,98.0) scale(0.1,0.1)" stroke="none" fill="#1F444E"/>

<path d="M628 824 c-62 -60 -140 -134 -173 -163 -127 -114 -415 -405 -408 -412 9 -9 214 -123 240 -134 10 -4 34 -11 53 -15 42 -10 182 -47 201 -55 8 -3 48 21 90 52 41 32 96 74 122 93 25 19 49 42 53 50 6 15 16 105 30 282 4 53 3 98 -3 115 -6 15 -16 46 -22 68 -44 159 -61 219 -66 223 -3 3 -56 -44 -117 -104z" transform="translate(176.0,98.0) scale(-0.1,0.1)" stroke="none" fill="#1F444E"/>

</g>

</g>

<g id="3" transform="translate(264.0,0)scale(1,1)">

<g transform="matrix(0.5,0,0,0.5,0,0)">

<path d="M628 824 c-62 -60 -140 -134 -173 -163 -127 -114 -415 -405 -408 -412 9 -9 214 -123 240 -134 10 -4 34 -11 53 -15 42 -10 182 -47 201 -55 8 -3 48 21 90 52 41 32 96 74 122 93 25 19 49 42 53 50 6 15 16 105 30 282 4 53 3 98 -3 115 -6 15 -16 46 -22 68 -44 159 -61 219 -66 223 -3 3 -56 -44 -117 -104z" transform="translate(0,98.0) scale(0.1,-0.1)" stroke="none" fill="#1F444E"/>

<path d="M628 824 c-62 -60 -140 -134 -173 -163 -127 -114 -415 -405 -408 -412 9 -9 214 -123 240 -134 10 -4 34 -11 53 -15 42 -10 182 -47 201 -55 8 -3 48 21 90 52 41 32 96 74 122 93 25 19 49 42 53 50 6 15 16 105 30 282 4 53 3 98 -3 115 -6 15 -16 46 -22 68 -44 159 -61 219 -66 223 -3 3 -56 -44 -117 -104z" transform="translate(176.0,98.0) scale(-0.1,-0.1)" stroke="none" fill="#1F444E"/>

<path d="M628 824 c-62 -60 -140 -134 -173 -163 -127 -114 -415 -405 -408 -412 9 -9 214 -123 240 -134 10 -4 34 -11 53 -15 42 -10 182 -47 201 -55 8 -3 48 21 90 52 41 32 96 74 122 93 25 19 49 42 53 50 6 15 16 105 30 282 4 53 3 98 -3 115 -6 15 -16 46 -22 68 -44 159 -61 219 -66 223 -3 3 -56 -44 -117 -104z" transform="translate(0,98.0) scale(0.1,0.1)" stroke="none" fill="#1F444E"/>

<path d="M628 824 c-62 -60 -140 -134 -173 -163 -127 -114 -415 -405 -408 -412 9 -9 214 -123 240 -134 10 -4 34 -11 53 -15 42 -10 182 -47 201 -55 8 -3 48 21 90 52 41 32 96 74 122 93 25 19 49 42 53 50 6 15 16 105 30 282 4 53 3 98 -3 115 -6 15 -16 46 -22 68 -44 159 -61 219 -66 223 -3 3 -56 -44 -117 -104z" transform="translate(176.0,98.0) scale(-0.1,0.1)" stroke="none" fill="#1F444E"/>

</g>

</g>

<g id="4" transform="translate(352.0,0)scale(1,1)">

<g transform="matrix(0.5,0,0,0.5,0,0)">

<path d="M628 824 c-62 -60 -140 -134 -173 -163 -127 -114 -415 -405 -408 -412 9 -9 214 -123 240 -134 10 -4 34 -11 53 -15 42 -10 182 -47 201 -55 8 -3 48 21 90 52 41 32 96 74 122 93 25 19 49 42 53 50 6 15 16 105 30 282 4 53 3 98 -3 115 -6 15 -16 46 -22 68 -44 159 -61 219 -66 223 -3 3 -56 -44 -117 -104z" transform="translate(0,98.0) scale(0.1,-0.1)" stroke="none" fill="#1F444E"/>

<path d="M628 824 c-62 -60 -140 -134 -173 -163 -127 -114 -415 -405 -408 -412 9 -9 214 -123 240 -134 10 -4 34 -11 53 -15 42 -10 182 -47 201 -55 8 -3 48 21 90 52 41 32 96 74 122 93 25 19 49 42 53 50 6 15 16 105 30 282 4 53 3 98 -3 115 -6 15 -16 46 -22 68 -44 159 -61 219 -66 223 -3 3 -56 -44 -117 -104z" transform="translate(176.0,98.0) scale(-0.1,-0.1)" stroke="none" fill="#1F444E"/>

<path d="M628 824 c-62 -60 -140 -134 -173 -163 -127 -114 -415 -405 -408 -412 9 -9 214 -123 240 -134 10 -4 34 -11 53 -15 42 -10 182 -47 201 -55 8 -3 48 21 90 52 41 32 96 74 122 93 25 19 49 42 53 50 6 15 16 105 30 282 4 53 3 98 -3 115 -6 15 -16 46 -22 68 -44 159 -61 219 -66 223 -3 3 -56 -44 -117 -104z" transform="translate(0,98.0) scale(0.1,0.1)" stroke="none" fill="#1F444E"/>

<path d="M628 824 c-62 -60 -140 -134 -173 -163 -127 -114 -415 -405 -408 -412 9 -9 214 -123 240 -134 10 -4 34 -11 53 -15 42 -10 182 -47 201 -55 8 -3 48 21 90 52 41 32 96 74 122 93 25 19 49 42 53 50 6 15 16 105 30 282 4 53 3 98 -3 115 -6 15 -16 46 -22 68 -44 159 -61 219 -66 223 -3 3 -56 -44 -117 -104z" transform="translate(176.0,98.0) scale(-0.1,0.1)" stroke="none" fill="#1F444E"/>

</g>

</g>

</g>
<g id="row3" transform="translate(11,294.0)">
<g id="0" transform="translate(0.0,0)scale(1,1)">

<g transform="matrix(0.5,0,0,0.5,0,0)">

<path d="M628 824 c-62 -60 -140 -134 -173 -163 -127 -114 -415 -405 -408 -412 9 -9 214 -123 240 -134 10 -4 34 -11 53 -15 42 -10 182 -47 201 -55 8 -3 48 21 90 52 41 32 96 74 122 93 25 19 49 42 53 50 6 15 16 105 30 282 4 53 3 98 -3 115 -6 15 -16 46 -22 68 -44 159 -61 219 -66 223 -3 3 -56 -44 -117 -104z" transform="translate(0,98.0) scale(0.1,-0.1)" stroke="none" fill="#1F444E"/>

<path d="M628 824 c-62 -60 -140 -134 -173 -163 -127 -114 -415 -405 -408 -412 9 -9 214 -123 240 -134 10 -4 34 -11 53 -15 42 -10 182 -47 201 -55 8 -3 48 21 90 52 41 32 96 74 122 93 25 19 49 42 53 50 6 15 16 105 30 282 4 53 3 98 -3 115 -6 15 -16 46 -22 68 -44 159 -61 219 -66 223 -3 3 -56 -44 -117 -104z" transform="translate(176.0,98.0) scale(-0.1,-0.1)" stroke="none" fill="#1F444E"/>

<path d="M628 824 c-62 -60 -140 -134 -173 -163 -127 -114 -415 -405 -408 -412 9 -9 214 -123 240 -134 10 -4 34 -11 53 -15 42 -10 182 -47 201 -55 8 -3 48 21 90 52 41 32 96 74 122 93 25 19 49 42 53 50 6 15 16 105 30 282 4 53 3 98 -3 115 -6 15 -16 46 -22 68 -44 159 -61 219 -66 223 -3 3 -56 -44 -117 -104z" transform="translate(0,98.0) scale(0.1,0.1)" stroke="none" fill="#1F444E"/>

<path d="M628 824 c-62 -60 -140 -134 -173 -163 -127 -114 -415 -405 -408 -412 9 -9 214 -123 240 -134 10 -4 34 -11 53 -15 42 -10 182 -47 201 -55 8 -3 48 21 90 52 41 32 96 74 122 93 25 19 49 42 53 50 6 15 16 105 30 282 4 53 3 98 -3 115 -6 15 -16 46 -22 68 -44 159 -61 219 -66 223 -3 3 -56 -44 -117 -104z" transform="translate(176.0,98.0) scale(-0.1,0.1)" stroke="none" fill="#1F444E"/>

</g>

</g>

<g id="1" transform="translate(88.0,0)scale(1,1)">

<g transform="matrix(0.5,0,0,0.5,0,0)">

<path d="M628 824 c-62 -60 -140 -134 -173 -163 -127 -114 -415 -405 -408 -412 9 -9 214 -123 240 -134 10 -4 34 -11 53 -15 42 -10 182 -47 201 -55 8 -3 48 21 90 52 41 32 96 74 122 93 25 19 49 42 53 50 6 15 16 105 30 282 4 53 3 98 -3 115 -6 15 -16 46 -22 68 -44 159 -61 219 -66 223 -3 3 -56 -44 -117 -104z" transform="translate(0,98.0) scale(0.1,-0.1)" stroke="none" fill="#1F444E"/>

<path d="M628 824 c-62 -60 -140 -134 -173 -163 -127 -114 -415 -405 -408 -412 9 -9 214 -123 240 -134 10 -4 34 -11 53 -15 42 -10 182 -47 201 -55 8 -3 48 21 90 52 41 32 96 74 122 93 25 19 49 42 53 50 6 15 16 105 30 282 4 53 3 98 -3 115 -6 15 -16 46 -22 68 -44 159 -61 219 -66 223 -3 3 -56 -44 -117 -104z" transform="translate(176.0,98.0) scale(-0.1,-0.1)" stroke="none" fill="#1F444E"/>

<path d="M628 824 c-62 -60 -140 -134 -173 -163 -127 -114 -415 -405 -408 -412 9 -9 214 -123 240 -134 10 -4 34 -11 53 -15 42 -10 182 -47 201 -55 8 -3 48 21 90 52 41 32 96 74 122 93 25 19 49 42 53 50 6 15 16 105 30 282 4 53 3 98 -3 115 -6 15 -16 46 -22 68 -44 159 -61 219 -66 223 -3 3 -56 -44 -117 -104z" transform="translate(0,98.0) scale(0.1,0.1)" stroke="none" fill="#1F444E"/>

<path d="M628 824 c-62 -60 -140 -134 -173 -163 -127 -114 -415 -405 -408 -412 9 -9 214 -123 240 -134 10 -4 34 -11 53 -15 42 -10 182 -47 201 -55 8 -3 48 21 90 52 41 32 96 74 122 93 25 19 49 42 53 50 6 15 16 105 30 282 4 53 3 98 -3 115 -6 15 -16 46 -22 68 -44 159 -61 219 -66 223 -3 3 -56 -44 -117 -104z" transform="translate(176.0,98.0) scale(-0.1,0.1)" stroke="none" fill="#1F444E"/>

</g>

</g>

<g id="2" transform="translate(176.0,0)scale(1,1)">

<g transform="matrix(0.5,0,0,0.5,0,0)">

<path d="M628 824 c-62 -60 -140 -134 -173 -163 -127 -114 -415 -405 -408 -412 9 -9 214 -123 240 -134 10 -4 34 -11 53 -15 42 -10 182 -47 201 -55 8 -3 48 21 90 52 41 32 96 74 122 93 25 19 49 42 53 50 6 15 16 105 30 282 4 53 3 98 -3 115 -6 15 -16 46 -22 68 -44 159 -61 219 -66 223 -3 3 -56 -44 -117 -104z" transform="translate(0,98.0) scale(0.1,-0.1)" stroke="none" fill="#1F444E"/>

<path d="M628 824 c-62 -60 -140 -134 -173 -163 -127 -114 -415 -405 -408 -412 9 -9 214 -123 240 -134 10 -4 34 -11 53 -15 42 -10 182 -47 201 -55 8 -3 48 21 90 52 41 32 96 74 122 93 25 19 49 42 53 50 6 15 16 105 30 282 4 53 3 98 -3 115 -6 15 -16 46 -22 68 -44 159 -61 219 -66 223 -3 3 -56 -44 -117 -104z" transform="translate(176.0,98.0) scale(-0.1,-0.1)" stroke="none" fill="#1F444E"/>

<path d="M628 824 c-62 -60 -140 -134 -173 -163 -127 -114 -415 -405 -408 -412 9 -9 214 -123 240 -134 10 -4 34 -11 53 -15 42 -10 182 -47 201 -55 8 -3 48 21 90 52 41 32 96 74 122 93 25 19 49 42 53 50 6 15 16 105 30 282 4 53 3 98 -3 115 -6 15 -16 46 -22 68 -44 159 -61 219 -66 223 -3 3 -56 -44 -117 -104z" transform="translate(0,98.0) scale(0.1,0.1)" stroke="none" fill="#1F444E"/>

<path d="M628 824 c-62 -60 -140 -134 -173 -163 -127 -114 -415 -405 -408 -412 9 -9 214 -123 240 -134 10 -4 34 -11 53 -15 42 -10 182 -47 201 -55 8 -3 48 21 90 52 41 32 96 74 122 93 25 19 49 42 53 50 6 15 16 105 30 282 4 53 3 98 -3 115 -6 15 -16 46 -22 68 -44 159 -61 219 -66 223 -3 3 -56 -44 -117 -104z" transform="translate(176.0,98.0) scale(-0.1,0.1)" stroke="none" fill="#1F444E"/>

</g>

</g>

<g id="3" transform="translate(264.0,0)scale(1,1)">

<g transform="matrix(0.5,0,0,0.5,0,0)">

<path d="M628 824 c-62 -60 -140 -134 -173 -163 -127 -114 -415 -405 -408 -412 9 -9 214 -123 240 -134 10 -4 34 -11 53 -15 42 -10 182 -47 201 -55 8 -3 48 21 90 52 41 32 96 74 122 93 25 19 49 42 53 50 6 15 16 105 30 282 4 53 3 98 -3 115 -6 15 -16 46 -22 68 -44 159 -61 219 -66 223 -3 3 -56 -44 -117 -104z" transform="translate(0,98.0) scale(0.1,-0.1)" stroke="none" fill="#1F444E"/>

<path d="M628 824 c-62 -60 -140 -134 -173 -163 -127 -114 -415 -405 -408 -412 9 -9 214 -123 240 -134 10 -4 34 -11 53 -15 42 -10 182 -47 201 -55 8 -3 48 21 90 52 41 32 96 74 122 93 25 19 49 42 53 50 6 15 16 105 30 282 4 53 3 98 -3 115 -6 15 -16 46 -22 68 -44 159 -61 219 -66 223 -3 3 -56 -44 -117 -104z" transform="translate(176.0,98.0) scale(-0.1,-0.1)" stroke="none" fill="#1F444E"/>

<path d="M628 824 c-62 -60 -140 -134 -173 -163 -127 -114 -415 -405 -408 -412 9 -9 214 -123 240 -134 10 -4 34 -11 53 -15 42 -10 182 -47 201 -55 8 -3 48 21 90 52 41 32 96 74 122 93 25 19 49 42 53 50 6 15 16 105 30 282 4 53 3 98 -3 115 -6 15 -16 46 -22 68 -44 159 -61 219 -66 223 -3 3 -56 -44 -117 -104z" transform="translate(0,98.0) scale(0.1,0.1)" stroke="none" fill="#1F444E"/>

<path d="M628 824 c-62 -60 -140 -134 -173 -163 -127 -114 -415 -405 -408 -412 9 -9 214 -123 240 -134 10 -4 34 -11 53 -15 42 -10 182 -47 201 -55 8 -3 48 21 90 52 41 32 96 74 122 93 25 19 49 42 53 50 6 15 16 105 30 282 4 53 3 98 -3 115 -6 15 -16 46 -22 68 -44 159 -61 219 -66 223 -3 3 -56 -44 -117 -104z" transform="translate(176.0,98.0) scale(-0.1,0.1)" stroke="none" fill="#1F444E"/>

</g>

</g>

<g id="4" transform="translate(352.0,0)scale(1,1)">

<g transform="matrix(0.5,0,0,0.5,0,0)">

<path d="M628 824 c-62 -60 -140 -134 -173 -163 -127 -114 -415 -405 -408 -412 9 -9 214 -123 240 -134 10 -4 34 -11 53 -15 42 -10 182 -47 201 -55 8 -3 48 21 90 52 41 32 96 74 122 93 25 19 49 42 53 50 6 15 16 105 30 282 4 53 3 98 -3 115 -6 15 -16 46 -22 68 -44 159 -61 219 -66 223 -3 3 -56 -44 -117 -104z" transform="translate(0,98.0) scale(0.1,-0.1)" stroke="none" fill="#1F444E"/>

<path d="M628 824 c-62 -60 -140 -134 -173 -163 -127 -114 -415 -405 -408 -412 9 -9 214 -123 240 -134 10 -4 34 -11 53 -15 42 -10 182 -47 201 -55 8 -3 48 21 90 52 41 32 96 74 122 93 25 19 49 42 53 50 6 15 16 105 30 282 4 53 3 98 -3 115 -6 15 -16 46 -22 68 -44 159 -61 219 -66 223 -3 3 -56 -44 -117 -104z" transform="translate(176.0,98.0) scale(-0.1,-0.1)" stroke="none" fill="#1F444E"/>

<path d="M628 824 c-62 -60 -140 -134 -173 -163 -127 -114 -415 -405 -408 -412 9 -9 214 -123 240 -134 10 -4 34 -11 53 -15 42 -10 182 -47 201 -55 8 -3 48 21 90 52 41 32 96 74 122 93 25 19 49 42 53 50 6 15 16 105 30 282 4 53 3 98 -3 115 -6 15 -16 46 -22 68 -44 159 -61 219 -66 223 -3 3 -56 -44 -117 -104z" transform="translate(0,98.0) scale(0.1,0.1)" stroke="none" fill="#1F444E"/>

<path d="M628 824 c-62 -60 -140 -134 -173 -163 -127 -114 -415 -405 -408 -412 9 -9 214 -123 240 -134 10 -4 34 -11 53 -15 42 -10 182 -47 201 -55 8 -3 48 21 90 52 41 32 96 74 122 93 25 19 49 42 53 50 6 15 16 105 30 282 4 53 3 98 -3 115 -6 15 -16 46 -22 68 -44 159 -61 219 -66 223 -3 3 -56 -44 -117 -104z" transform="translate(176.0,98.0) scale(-0.1,0.1)" stroke="none" fill="#1F444E"/>

</g>

</g>

</g>
</svg>