<?xml version="1.0" standalone="no"?>
<!DOCTYPE svg PUBLIC "-//W3C//DTD SVG 20010904//EN"
 "http://www.w3.org/TR/2001/REC-SVG-20010904/DTD/svg10.dtd">
<svg version="1.0" xmlns="http://www.w3.org/2000/svg" width="4488pt" height="4488pt" viewBox="0 0 4488 4488" preserveAspectRatio = "xMidYMid meet" >
<metadata>
Created by ZoeQu, written in 2022
</metadata>
<rect width="4488" height="4488" fill="#324144"/>
<g id="row0" transform="translate(0,0.0)">
<g id="0" transform="translate(0.0,0)scale(0.25,0.25)">

<g id="pattern">
<rect width="4862" height="4862" fill="#324144"/>
<g id="pattern1" transform="matrix(1,0,0,1,302,302)">
<path d="M628 824 c-62 -60 -140 -134 -173 -163 -127 -114 -415 -405 -408 -412 9 -9 214 -123 240 -134 10 -4 34 -11 53 -15 42 -10 182 -47 201 -55 8 -3 48 21 90 52 41 32 96 74 122 93 25 19 49 42 53 50 6 15 16 105 30 282 4 53 3 98 -3 115 -6 15 -16 46 -22 68 -44 159 -61 219 -66 223 -3 3 -56 -44 -117 -104z" transform="translate(0.000000,0.000000) scale(1,1)" stroke="none" fill="#627477"/>
</g>
<g id="pattern2" transform="matrix(0.618,0,0,0.618,2303,676)">
<path d="M628 824 c-62 -60 -140 -134 -173 -163 -127 -114 -415 -405 -408 -412 9 -9 214 -123 240 -134 10 -4 34 -11 53 -15 42 -10 182 -47 201 -55 8 -3 48 21 90 52 41 32 96 74 122 93 25 19 49 42 53 50 6 15 16 105 30 282 4 53 3 98 -3 115 -6 15 -16 46 -22 68 -44 159 -61 219 -66 223 -3 3 -56 -44 -117 -104z" transform="translate(3051,0.000000) scale(-1,1)" stroke="none" fill="#627477"/>
</g>
<g id="pattern3" transform="matrix(0.618,0,0,0.618,863,3051)matrix(0.71,0.71,-0.71,0.71,0,0)">
<path d="M628 824 c-62 -60 -140 -134 -173 -163 -127 -114 -415 -405 -408 -412 9 -9 214 -123 240 -134 10 -4 34 -11 53 -15 42 -10 182 -47 201 -55 8 -3 48 21 90 52 41 32 96 74 122 93 25 19 49 42 53 50 6 15 16 105 30 282 4 53 3 98 -3 115 -6 15 -16 46 -22 68 -44 159 -61 219 -66 223 -3 3 -56 -44 -117 -104z" transform="translate(489,-489) scale(1,1)" stroke="none" fill="#627477"/>
</g>
<g id="pattern4" transform="matrix(1.618,0,0,1.618,1280,1280)matrix(0.87,0.5,-0.5,0.87,0,0)">
<path d="M628 824 c-62 -60 -140 -134 -173 -163 -127 -114 -415 -405 -408 -412 9 -9 214 -123 240 -134 10 -4 34 -11 53 -15 42 -10 182 -47 201 -55 8 -3 48 21 90 52 41 32 96 74 122 93 25 19 49 42 53 50 6 15 16 105 30 282 4 53 3 98 -3 115 -6 15 -16 46 -22 68 -44 159 -61 219 -66 223 -3 3 -56 -44 -117 -104z" transform="translate(489,-489) scale(1,1)" stroke="none" fill="#627477"/>
</g>
</g>
</g>

<g id="1" transform="translate(1122.0,0)scale(0.25,0.25)">

<g id="pattern">
<rect width="4862" height="4862" fill="#324144"/>
<g id="pattern1" transform="matrix(1,0,0,1,302,302)">
<path d="M628 824 c-62 -60 -140 -134 -173 -163 -127 -114 -415 -405 -408 -412 9 -9 214 -123 240 -134 10 -4 34 -11 53 -15 42 -10 182 -47 201 -55 8 -3 48 21 90 52 41 32 96 74 122 93 25 19 49 42 53 50 6 15 16 105 30 282 4 53 3 98 -3 115 -6 15 -16 46 -22 68 -44 159 -61 219 -66 223 -3 3 -56 -44 -117 -104z" transform="translate(0.000000,0.000000) scale(1,1)" stroke="none" fill="#627477"/>
</g>
<g id="pattern2" transform="matrix(0.618,0,0,0.618,2303,676)">
<path d="M628 824 c-62 -60 -140 -134 -173 -163 -127 -114 -415 -405 -408 -412 9 -9 214 -123 240 -134 10 -4 34 -11 53 -15 42 -10 182 -47 201 -55 8 -3 48 21 90 52 41 32 96 74 122 93 25 19 49 42 53 50 6 15 16 105 30 282 4 53 3 98 -3 115 -6 15 -16 46 -22 68 -44 159 -61 219 -66 223 -3 3 -56 -44 -117 -104z" transform="translate(3051,0.000000) scale(-1,1)" stroke="none" fill="#627477"/>
</g>
<g id="pattern3" transform="matrix(0.618,0,0,0.618,863,3051)matrix(0.71,0.71,-0.71,0.71,0,0)">
<path d="M628 824 c-62 -60 -140 -134 -173 -163 -127 -114 -415 -405 -408 -412 9 -9 214 -123 240 -134 10 -4 34 -11 53 -15 42 -10 182 -47 201 -55 8 -3 48 21 90 52 41 32 96 74 122 93 25 19 49 42 53 50 6 15 16 105 30 282 4 53 3 98 -3 115 -6 15 -16 46 -22 68 -44 159 -61 219 -66 223 -3 3 -56 -44 -117 -104z" transform="translate(489,-489) scale(1,1)" stroke="none" fill="#627477"/>
</g>
<g id="pattern4" transform="matrix(1.618,0,0,1.618,1280,1280)matrix(0.87,0.5,-0.5,0.87,0,0)">
<path d="M628 824 c-62 -60 -140 -134 -173 -163 -127 -114 -415 -405 -408 -412 9 -9 214 -123 240 -134 10 -4 34 -11 53 -15 42 -10 182 -47 201 -55 8 -3 48 21 90 52 41 32 96 74 122 93 25 19 49 42 53 50 6 15 16 105 30 282 4 53 3 98 -3 115 -6 15 -16 46 -22 68 -44 159 -61 219 -66 223 -3 3 -56 -44 -117 -104z" transform="translate(489,-489) scale(1,1)" stroke="none" fill="#627477"/>
</g>
</g>
</g>

<g id="2" transform="translate(2244.0,0)scale(0.25,0.25)">

<g id="pattern">
<rect width="4862" height="4862" fill="#324144"/>
<g id="pattern1" transform="matrix(1,0,0,1,302,302)">
<path d="M628 824 c-62 -60 -140 -134 -173 -163 -127 -114 -415 -405 -408 -412 9 -9 214 -123 240 -134 10 -4 34 -11 53 -15 42 -10 182 -47 201 -55 8 -3 48 21 90 52 41 32 96 74 122 93 25 19 49 42 53 50 6 15 16 105 30 282 4 53 3 98 -3 115 -6 15 -16 46 -22 68 -44 159 -61 219 -66 223 -3 3 -56 -44 -117 -104z" transform="translate(0.000000,0.000000) scale(1,1)" stroke="none" fill="#627477"/>
</g>
<g id="pattern2" transform="matrix(0.618,0,0,0.618,2303,676)">
<path d="M628 824 c-62 -60 -140 -134 -173 -163 -127 -114 -415 -405 -408 -412 9 -9 214 -123 240 -134 10 -4 34 -11 53 -15 42 -10 182 -47 201 -55 8 -3 48 21 90 52 41 32 96 74 122 93 25 19 49 42 53 50 6 15 16 105 30 282 4 53 3 98 -3 115 -6 15 -16 46 -22 68 -44 159 -61 219 -66 223 -3 3 -56 -44 -117 -104z" transform="translate(3051,0.000000) scale(-1,1)" stroke="none" fill="#627477"/>
</g>
<g id="pattern3" transform="matrix(0.618,0,0,0.618,863,3051)matrix(0.71,0.71,-0.71,0.71,0,0)">
<path d="M628 824 c-62 -60 -140 -134 -173 -163 -127 -114 -415 -405 -408 -412 9 -9 214 -123 240 -134 10 -4 34 -11 53 -15 42 -10 182 -47 201 -55 8 -3 48 21 90 52 41 32 96 74 122 93 25 19 49 42 53 50 6 15 16 105 30 282 4 53 3 98 -3 115 -6 15 -16 46 -22 68 -44 159 -61 219 -66 223 -3 3 -56 -44 -117 -104z" transform="translate(489,-489) scale(1,1)" stroke="none" fill="#627477"/>
</g>
<g id="pattern4" transform="matrix(1.618,0,0,1.618,1280,1280)matrix(0.87,0.5,-0.5,0.87,0,0)">
<path d="M628 824 c-62 -60 -140 -134 -173 -163 -127 -114 -415 -405 -408 -412 9 -9 214 -123 240 -134 10 -4 34 -11 53 -15 42 -10 182 -47 201 -55 8 -3 48 21 90 52 41 32 96 74 122 93 25 19 49 42 53 50 6 15 16 105 30 282 4 53 3 98 -3 115 -6 15 -16 46 -22 68 -44 159 -61 219 -66 223 -3 3 -56 -44 -117 -104z" transform="translate(489,-489) scale(1,1)" stroke="none" fill="#627477"/>
</g>
</g>
</g>

<g id="3" transform="translate(3366.0,0)scale(0.25,0.25)">

<g id="pattern">
<rect width="4862" height="4862" fill="#324144"/>
<g id="pattern1" transform="matrix(1,0,0,1,302,302)">
<path d="M628 824 c-62 -60 -140 -134 -173 -163 -127 -114 -415 -405 -408 -412 9 -9 214 -123 240 -134 10 -4 34 -11 53 -15 42 -10 182 -47 201 -55 8 -3 48 21 90 52 41 32 96 74 122 93 25 19 49 42 53 50 6 15 16 105 30 282 4 53 3 98 -3 115 -6 15 -16 46 -22 68 -44 159 -61 219 -66 223 -3 3 -56 -44 -117 -104z" transform="translate(0.000000,0.000000) scale(1,1)" stroke="none" fill="#627477"/>
</g>
<g id="pattern2" transform="matrix(0.618,0,0,0.618,2303,676)">
<path d="M628 824 c-62 -60 -140 -134 -173 -163 -127 -114 -415 -405 -408 -412 9 -9 214 -123 240 -134 10 -4 34 -11 53 -15 42 -10 182 -47 201 -55 8 -3 48 21 90 52 41 32 96 74 122 93 25 19 49 42 53 50 6 15 16 105 30 282 4 53 3 98 -3 115 -6 15 -16 46 -22 68 -44 159 -61 219 -66 223 -3 3 -56 -44 -117 -104z" transform="translate(3051,0.000000) scale(-1,1)" stroke="none" fill="#627477"/>
</g>
<g id="pattern3" transform="matrix(0.618,0,0,0.618,863,3051)matrix(0.71,0.71,-0.71,0.71,0,0)">
<path d="M628 824 c-62 -60 -140 -134 -173 -163 -127 -114 -415 -405 -408 -412 9 -9 214 -123 240 -134 10 -4 34 -11 53 -15 42 -10 182 -47 201 -55 8 -3 48 21 90 52 41 32 96 74 122 93 25 19 49 42 53 50 6 15 16 105 30 282 4 53 3 98 -3 115 -6 15 -16 46 -22 68 -44 159 -61 219 -66 223 -3 3 -56 -44 -117 -104z" transform="translate(489,-489) scale(1,1)" stroke="none" fill="#627477"/>
</g>
<g id="pattern4" transform="matrix(1.618,0,0,1.618,1280,1280)matrix(0.87,0.5,-0.5,0.87,0,0)">
<path d="M628 824 c-62 -60 -140 -134 -173 -163 -127 -114 -415 -405 -408 -412 9 -9 214 -123 240 -134 10 -4 34 -11 53 -15 42 -10 182 -47 201 -55 8 -3 48 21 90 52 41 32 96 74 122 93 25 19 49 42 53 50 6 15 16 105 30 282 4 53 3 98 -3 115 -6 15 -16 46 -22 68 -44 159 -61 219 -66 223 -3 3 -56 -44 -117 -104z" transform="translate(489,-489) scale(1,1)" stroke="none" fill="#627477"/>
</g>
</g>
</g>

<g id="4" transform="translate(4488.0,0)scale(0.25,0.25)">

<g id="pattern">
<rect width="4862" height="4862" fill="#324144"/>
<g id="pattern1" transform="matrix(1,0,0,1,302,302)">
<path d="M628 824 c-62 -60 -140 -134 -173 -163 -127 -114 -415 -405 -408 -412 9 -9 214 -123 240 -134 10 -4 34 -11 53 -15 42 -10 182 -47 201 -55 8 -3 48 21 90 52 41 32 96 74 122 93 25 19 49 42 53 50 6 15 16 105 30 282 4 53 3 98 -3 115 -6 15 -16 46 -22 68 -44 159 -61 219 -66 223 -3 3 -56 -44 -117 -104z" transform="translate(0.000000,0.000000) scale(1,1)" stroke="none" fill="#627477"/>
</g>
<g id="pattern2" transform="matrix(0.618,0,0,0.618,2303,676)">
<path d="M628 824 c-62 -60 -140 -134 -173 -163 -127 -114 -415 -405 -408 -412 9 -9 214 -123 240 -134 10 -4 34 -11 53 -15 42 -10 182 -47 201 -55 8 -3 48 21 90 52 41 32 96 74 122 93 25 19 49 42 53 50 6 15 16 105 30 282 4 53 3 98 -3 115 -6 15 -16 46 -22 68 -44 159 -61 219 -66 223 -3 3 -56 -44 -117 -104z" transform="translate(3051,0.000000) scale(-1,1)" stroke="none" fill="#627477"/>
</g>
<g id="pattern3" transform="matrix(0.618,0,0,0.618,863,3051)matrix(0.71,0.71,-0.71,0.71,0,0)">
<path d="M628 824 c-62 -60 -140 -134 -173 -163 -127 -114 -415 -405 -408 -412 9 -9 214 -123 240 -134 10 -4 34 -11 53 -15 42 -10 182 -47 201 -55 8 -3 48 21 90 52 41 32 96 74 122 93 25 19 49 42 53 50 6 15 16 105 30 282 4 53 3 98 -3 115 -6 15 -16 46 -22 68 -44 159 -61 219 -66 223 -3 3 -56 -44 -117 -104z" transform="translate(489,-489) scale(1,1)" stroke="none" fill="#627477"/>
</g>
<g id="pattern4" transform="matrix(1.618,0,0,1.618,1280,1280)matrix(0.87,0.5,-0.5,0.87,0,0)">
<path d="M628 824 c-62 -60 -140 -134 -173 -163 -127 -114 -415 -405 -408 -412 9 -9 214 -123 240 -134 10 -4 34 -11 53 -15 42 -10 182 -47 201 -55 8 -3 48 21 90 52 41 32 96 74 122 93 25 19 49 42 53 50 6 15 16 105 30 282 4 53 3 98 -3 115 -6 15 -16 46 -22 68 -44 159 -61 219 -66 223 -3 3 -56 -44 -117 -104z" transform="translate(489,-489) scale(1,1)" stroke="none" fill="#627477"/>
</g>
</g>
</g>

</g>
<g id="row1" transform="translate(0,1122.0)">
<g id="0" transform="translate(0.0,0)scale(0.25,0.25)">

<g id="pattern">
<rect width="4862" height="4862" fill="#324144"/>
<g id="pattern1" transform="matrix(1,0,0,1,302,302)">
<path d="M628 824 c-62 -60 -140 -134 -173 -163 -127 -114 -415 -405 -408 -412 9 -9 214 -123 240 -134 10 -4 34 -11 53 -15 42 -10 182 -47 201 -55 8 -3 48 21 90 52 41 32 96 74 122 93 25 19 49 42 53 50 6 15 16 105 30 282 4 53 3 98 -3 115 -6 15 -16 46 -22 68 -44 159 -61 219 -66 223 -3 3 -56 -44 -117 -104z" transform="translate(0.000000,0.000000) scale(1,1)" stroke="none" fill="#627477"/>
</g>
<g id="pattern2" transform="matrix(0.618,0,0,0.618,2303,676)">
<path d="M628 824 c-62 -60 -140 -134 -173 -163 -127 -114 -415 -405 -408 -412 9 -9 214 -123 240 -134 10 -4 34 -11 53 -15 42 -10 182 -47 201 -55 8 -3 48 21 90 52 41 32 96 74 122 93 25 19 49 42 53 50 6 15 16 105 30 282 4 53 3 98 -3 115 -6 15 -16 46 -22 68 -44 159 -61 219 -66 223 -3 3 -56 -44 -117 -104z" transform="translate(3051,0.000000) scale(-1,1)" stroke="none" fill="#627477"/>
</g>
<g id="pattern3" transform="matrix(0.618,0,0,0.618,863,3051)matrix(0.71,0.71,-0.71,0.71,0,0)">
<path d="M628 824 c-62 -60 -140 -134 -173 -163 -127 -114 -415 -405 -408 -412 9 -9 214 -123 240 -134 10 -4 34 -11 53 -15 42 -10 182 -47 201 -55 8 -3 48 21 90 52 41 32 96 74 122 93 25 19 49 42 53 50 6 15 16 105 30 282 4 53 3 98 -3 115 -6 15 -16 46 -22 68 -44 159 -61 219 -66 223 -3 3 -56 -44 -117 -104z" transform="translate(489,-489) scale(1,1)" stroke="none" fill="#627477"/>
</g>
<g id="pattern4" transform="matrix(1.618,0,0,1.618,1280,1280)matrix(0.87,0.5,-0.5,0.87,0,0)">
<path d="M628 824 c-62 -60 -140 -134 -173 -163 -127 -114 -415 -405 -408 -412 9 -9 214 -123 240 -134 10 -4 34 -11 53 -15 42 -10 182 -47 201 -55 8 -3 48 21 90 52 41 32 96 74 122 93 25 19 49 42 53 50 6 15 16 105 30 282 4 53 3 98 -3 115 -6 15 -16 46 -22 68 -44 159 -61 219 -66 223 -3 3 -56 -44 -117 -104z" transform="translate(489,-489) scale(1,1)" stroke="none" fill="#627477"/>
</g>
</g>
</g>

<g id="1" transform="translate(1122.0,0)scale(0.25,0.25)">

<g id="pattern">
<rect width="4862" height="4862" fill="#324144"/>
<g id="pattern1" transform="matrix(1,0,0,1,302,302)">
<path d="M628 824 c-62 -60 -140 -134 -173 -163 -127 -114 -415 -405 -408 -412 9 -9 214 -123 240 -134 10 -4 34 -11 53 -15 42 -10 182 -47 201 -55 8 -3 48 21 90 52 41 32 96 74 122 93 25 19 49 42 53 50 6 15 16 105 30 282 4 53 3 98 -3 115 -6 15 -16 46 -22 68 -44 159 -61 219 -66 223 -3 3 -56 -44 -117 -104z" transform="translate(0.000000,0.000000) scale(1,1)" stroke="none" fill="#627477"/>
</g>
<g id="pattern2" transform="matrix(0.618,0,0,0.618,2303,676)">
<path d="M628 824 c-62 -60 -140 -134 -173 -163 -127 -114 -415 -405 -408 -412 9 -9 214 -123 240 -134 10 -4 34 -11 53 -15 42 -10 182 -47 201 -55 8 -3 48 21 90 52 41 32 96 74 122 93 25 19 49 42 53 50 6 15 16 105 30 282 4 53 3 98 -3 115 -6 15 -16 46 -22 68 -44 159 -61 219 -66 223 -3 3 -56 -44 -117 -104z" transform="translate(3051,0.000000) scale(-1,1)" stroke="none" fill="#627477"/>
</g>
<g id="pattern3" transform="matrix(0.618,0,0,0.618,863,3051)matrix(0.71,0.71,-0.71,0.71,0,0)">
<path d="M628 824 c-62 -60 -140 -134 -173 -163 -127 -114 -415 -405 -408 -412 9 -9 214 -123 240 -134 10 -4 34 -11 53 -15 42 -10 182 -47 201 -55 8 -3 48 21 90 52 41 32 96 74 122 93 25 19 49 42 53 50 6 15 16 105 30 282 4 53 3 98 -3 115 -6 15 -16 46 -22 68 -44 159 -61 219 -66 223 -3 3 -56 -44 -117 -104z" transform="translate(489,-489) scale(1,1)" stroke="none" fill="#627477"/>
</g>
<g id="pattern4" transform="matrix(1.618,0,0,1.618,1280,1280)matrix(0.87,0.5,-0.5,0.87,0,0)">
<path d="M628 824 c-62 -60 -140 -134 -173 -163 -127 -114 -415 -405 -408 -412 9 -9 214 -123 240 -134 10 -4 34 -11 53 -15 42 -10 182 -47 201 -55 8 -3 48 21 90 52 41 32 96 74 122 93 25 19 49 42 53 50 6 15 16 105 30 282 4 53 3 98 -3 115 -6 15 -16 46 -22 68 -44 159 -61 219 -66 223 -3 3 -56 -44 -117 -104z" transform="translate(489,-489) scale(1,1)" stroke="none" fill="#627477"/>
</g>
</g>
</g>

<g id="2" transform="translate(2244.0,0)scale(0.25,0.25)">

<g id="pattern">
<rect width="4862" height="4862" fill="#324144"/>
<g id="pattern1" transform="matrix(1,0,0,1,302,302)">
<path d="M628 824 c-62 -60 -140 -134 -173 -163 -127 -114 -415 -405 -408 -412 9 -9 214 -123 240 -134 10 -4 34 -11 53 -15 42 -10 182 -47 201 -55 8 -3 48 21 90 52 41 32 96 74 122 93 25 19 49 42 53 50 6 15 16 105 30 282 4 53 3 98 -3 115 -6 15 -16 46 -22 68 -44 159 -61 219 -66 223 -3 3 -56 -44 -117 -104z" transform="translate(0.000000,0.000000) scale(1,1)" stroke="none" fill="#627477"/>
</g>
<g id="pattern2" transform="matrix(0.618,0,0,0.618,2303,676)">
<path d="M628 824 c-62 -60 -140 -134 -173 -163 -127 -114 -415 -405 -408 -412 9 -9 214 -123 240 -134 10 -4 34 -11 53 -15 42 -10 182 -47 201 -55 8 -3 48 21 90 52 41 32 96 74 122 93 25 19 49 42 53 50 6 15 16 105 30 282 4 53 3 98 -3 115 -6 15 -16 46 -22 68 -44 159 -61 219 -66 223 -3 3 -56 -44 -117 -104z" transform="translate(3051,0.000000) scale(-1,1)" stroke="none" fill="#627477"/>
</g>
<g id="pattern3" transform="matrix(0.618,0,0,0.618,863,3051)matrix(0.71,0.71,-0.71,0.71,0,0)">
<path d="M628 824 c-62 -60 -140 -134 -173 -163 -127 -114 -415 -405 -408 -412 9 -9 214 -123 240 -134 10 -4 34 -11 53 -15 42 -10 182 -47 201 -55 8 -3 48 21 90 52 41 32 96 74 122 93 25 19 49 42 53 50 6 15 16 105 30 282 4 53 3 98 -3 115 -6 15 -16 46 -22 68 -44 159 -61 219 -66 223 -3 3 -56 -44 -117 -104z" transform="translate(489,-489) scale(1,1)" stroke="none" fill="#627477"/>
</g>
<g id="pattern4" transform="matrix(1.618,0,0,1.618,1280,1280)matrix(0.87,0.5,-0.5,0.87,0,0)">
<path d="M628 824 c-62 -60 -140 -134 -173 -163 -127 -114 -415 -405 -408 -412 9 -9 214 -123 240 -134 10 -4 34 -11 53 -15 42 -10 182 -47 201 -55 8 -3 48 21 90 52 41 32 96 74 122 93 25 19 49 42 53 50 6 15 16 105 30 282 4 53 3 98 -3 115 -6 15 -16 46 -22 68 -44 159 -61 219 -66 223 -3 3 -56 -44 -117 -104z" transform="translate(489,-489) scale(1,1)" stroke="none" fill="#627477"/>
</g>
</g>
</g>

<g id="3" transform="translate(3366.0,0)scale(0.25,0.25)">

<g id="pattern">
<rect width="4862" height="4862" fill="#324144"/>
<g id="pattern1" transform="matrix(1,0,0,1,302,302)">
<path d="M628 824 c-62 -60 -140 -134 -173 -163 -127 -114 -415 -405 -408 -412 9 -9 214 -123 240 -134 10 -4 34 -11 53 -15 42 -10 182 -47 201 -55 8 -3 48 21 90 52 41 32 96 74 122 93 25 19 49 42 53 50 6 15 16 105 30 282 4 53 3 98 -3 115 -6 15 -16 46 -22 68 -44 159 -61 219 -66 223 -3 3 -56 -44 -117 -104z" transform="translate(0.000000,0.000000) scale(1,1)" stroke="none" fill="#627477"/>
</g>
<g id="pattern2" transform="matrix(0.618,0,0,0.618,2303,676)">
<path d="M628 824 c-62 -60 -140 -134 -173 -163 -127 -114 -415 -405 -408 -412 9 -9 214 -123 240 -134 10 -4 34 -11 53 -15 42 -10 182 -47 201 -55 8 -3 48 21 90 52 41 32 96 74 122 93 25 19 49 42 53 50 6 15 16 105 30 282 4 53 3 98 -3 115 -6 15 -16 46 -22 68 -44 159 -61 219 -66 223 -3 3 -56 -44 -117 -104z" transform="translate(3051,0.000000) scale(-1,1)" stroke="none" fill="#627477"/>
</g>
<g id="pattern3" transform="matrix(0.618,0,0,0.618,863,3051)matrix(0.71,0.71,-0.71,0.71,0,0)">
<path d="M628 824 c-62 -60 -140 -134 -173 -163 -127 -114 -415 -405 -408 -412 9 -9 214 -123 240 -134 10 -4 34 -11 53 -15 42 -10 182 -47 201 -55 8 -3 48 21 90 52 41 32 96 74 122 93 25 19 49 42 53 50 6 15 16 105 30 282 4 53 3 98 -3 115 -6 15 -16 46 -22 68 -44 159 -61 219 -66 223 -3 3 -56 -44 -117 -104z" transform="translate(489,-489) scale(1,1)" stroke="none" fill="#627477"/>
</g>
<g id="pattern4" transform="matrix(1.618,0,0,1.618,1280,1280)matrix(0.87,0.5,-0.5,0.87,0,0)">
<path d="M628 824 c-62 -60 -140 -134 -173 -163 -127 -114 -415 -405 -408 -412 9 -9 214 -123 240 -134 10 -4 34 -11 53 -15 42 -10 182 -47 201 -55 8 -3 48 21 90 52 41 32 96 74 122 93 25 19 49 42 53 50 6 15 16 105 30 282 4 53 3 98 -3 115 -6 15 -16 46 -22 68 -44 159 -61 219 -66 223 -3 3 -56 -44 -117 -104z" transform="translate(489,-489) scale(1,1)" stroke="none" fill="#627477"/>
</g>
</g>
</g>

<g id="4" transform="translate(4488.0,0)scale(0.25,0.25)">

<g id="pattern">
<rect width="4862" height="4862" fill="#324144"/>
<g id="pattern1" transform="matrix(1,0,0,1,302,302)">
<path d="M628 824 c-62 -60 -140 -134 -173 -163 -127 -114 -415 -405 -408 -412 9 -9 214 -123 240 -134 10 -4 34 -11 53 -15 42 -10 182 -47 201 -55 8 -3 48 21 90 52 41 32 96 74 122 93 25 19 49 42 53 50 6 15 16 105 30 282 4 53 3 98 -3 115 -6 15 -16 46 -22 68 -44 159 -61 219 -66 223 -3 3 -56 -44 -117 -104z" transform="translate(0.000000,0.000000) scale(1,1)" stroke="none" fill="#627477"/>
</g>
<g id="pattern2" transform="matrix(0.618,0,0,0.618,2303,676)">
<path d="M628 824 c-62 -60 -140 -134 -173 -163 -127 -114 -415 -405 -408 -412 9 -9 214 -123 240 -134 10 -4 34 -11 53 -15 42 -10 182 -47 201 -55 8 -3 48 21 90 52 41 32 96 74 122 93 25 19 49 42 53 50 6 15 16 105 30 282 4 53 3 98 -3 115 -6 15 -16 46 -22 68 -44 159 -61 219 -66 223 -3 3 -56 -44 -117 -104z" transform="translate(3051,0.000000) scale(-1,1)" stroke="none" fill="#627477"/>
</g>
<g id="pattern3" transform="matrix(0.618,0,0,0.618,863,3051)matrix(0.71,0.71,-0.71,0.71,0,0)">
<path d="M628 824 c-62 -60 -140 -134 -173 -163 -127 -114 -415 -405 -408 -412 9 -9 214 -123 240 -134 10 -4 34 -11 53 -15 42 -10 182 -47 201 -55 8 -3 48 21 90 52 41 32 96 74 122 93 25 19 49 42 53 50 6 15 16 105 30 282 4 53 3 98 -3 115 -6 15 -16 46 -22 68 -44 159 -61 219 -66 223 -3 3 -56 -44 -117 -104z" transform="translate(489,-489) scale(1,1)" stroke="none" fill="#627477"/>
</g>
<g id="pattern4" transform="matrix(1.618,0,0,1.618,1280,1280)matrix(0.87,0.5,-0.5,0.87,0,0)">
<path d="M628 824 c-62 -60 -140 -134 -173 -163 -127 -114 -415 -405 -408 -412 9 -9 214 -123 240 -134 10 -4 34 -11 53 -15 42 -10 182 -47 201 -55 8 -3 48 21 90 52 41 32 96 74 122 93 25 19 49 42 53 50 6 15 16 105 30 282 4 53 3 98 -3 115 -6 15 -16 46 -22 68 -44 159 -61 219 -66 223 -3 3 -56 -44 -117 -104z" transform="translate(489,-489) scale(1,1)" stroke="none" fill="#627477"/>
</g>
</g>
</g>

</g>
<g id="row2" transform="translate(0,2244.0)">
<g id="0" transform="translate(0.0,0)scale(0.25,0.25)">

<g id="pattern">
<rect width="4862" height="4862" fill="#324144"/>
<g id="pattern1" transform="matrix(1,0,0,1,302,302)">
<path d="M628 824 c-62 -60 -140 -134 -173 -163 -127 -114 -415 -405 -408 -412 9 -9 214 -123 240 -134 10 -4 34 -11 53 -15 42 -10 182 -47 201 -55 8 -3 48 21 90 52 41 32 96 74 122 93 25 19 49 42 53 50 6 15 16 105 30 282 4 53 3 98 -3 115 -6 15 -16 46 -22 68 -44 159 -61 219 -66 223 -3 3 -56 -44 -117 -104z" transform="translate(0.000000,0.000000) scale(1,1)" stroke="none" fill="#627477"/>
</g>
<g id="pattern2" transform="matrix(0.618,0,0,0.618,2303,676)">
<path d="M628 824 c-62 -60 -140 -134 -173 -163 -127 -114 -415 -405 -408 -412 9 -9 214 -123 240 -134 10 -4 34 -11 53 -15 42 -10 182 -47 201 -55 8 -3 48 21 90 52 41 32 96 74 122 93 25 19 49 42 53 50 6 15 16 105 30 282 4 53 3 98 -3 115 -6 15 -16 46 -22 68 -44 159 -61 219 -66 223 -3 3 -56 -44 -117 -104z" transform="translate(3051,0.000000) scale(-1,1)" stroke="none" fill="#627477"/>
</g>
<g id="pattern3" transform="matrix(0.618,0,0,0.618,863,3051)matrix(0.71,0.71,-0.71,0.71,0,0)">
<path d="M628 824 c-62 -60 -140 -134 -173 -163 -127 -114 -415 -405 -408 -412 9 -9 214 -123 240 -134 10 -4 34 -11 53 -15 42 -10 182 -47 201 -55 8 -3 48 21 90 52 41 32 96 74 122 93 25 19 49 42 53 50 6 15 16 105 30 282 4 53 3 98 -3 115 -6 15 -16 46 -22 68 -44 159 -61 219 -66 223 -3 3 -56 -44 -117 -104z" transform="translate(489,-489) scale(1,1)" stroke="none" fill="#627477"/>
</g>
<g id="pattern4" transform="matrix(1.618,0,0,1.618,1280,1280)matrix(0.87,0.5,-0.5,0.87,0,0)">
<path d="M628 824 c-62 -60 -140 -134 -173 -163 -127 -114 -415 -405 -408 -412 9 -9 214 -123 240 -134 10 -4 34 -11 53 -15 42 -10 182 -47 201 -55 8 -3 48 21 90 52 41 32 96 74 122 93 25 19 49 42 53 50 6 15 16 105 30 282 4 53 3 98 -3 115 -6 15 -16 46 -22 68 -44 159 -61 219 -66 223 -3 3 -56 -44 -117 -104z" transform="translate(489,-489) scale(1,1)" stroke="none" fill="#627477"/>
</g>
</g>
</g>

<g id="1" transform="translate(1122.0,0)scale(0.25,0.25)">

<g id="pattern">
<rect width="4862" height="4862" fill="#324144"/>
<g id="pattern1" transform="matrix(1,0,0,1,302,302)">
<path d="M628 824 c-62 -60 -140 -134 -173 -163 -127 -114 -415 -405 -408 -412 9 -9 214 -123 240 -134 10 -4 34 -11 53 -15 42 -10 182 -47 201 -55 8 -3 48 21 90 52 41 32 96 74 122 93 25 19 49 42 53 50 6 15 16 105 30 282 4 53 3 98 -3 115 -6 15 -16 46 -22 68 -44 159 -61 219 -66 223 -3 3 -56 -44 -117 -104z" transform="translate(0.000000,0.000000) scale(1,1)" stroke="none" fill="#627477"/>
</g>
<g id="pattern2" transform="matrix(0.618,0,0,0.618,2303,676)">
<path d="M628 824 c-62 -60 -140 -134 -173 -163 -127 -114 -415 -405 -408 -412 9 -9 214 -123 240 -134 10 -4 34 -11 53 -15 42 -10 182 -47 201 -55 8 -3 48 21 90 52 41 32 96 74 122 93 25 19 49 42 53 50 6 15 16 105 30 282 4 53 3 98 -3 115 -6 15 -16 46 -22 68 -44 159 -61 219 -66 223 -3 3 -56 -44 -117 -104z" transform="translate(3051,0.000000) scale(-1,1)" stroke="none" fill="#627477"/>
</g>
<g id="pattern3" transform="matrix(0.618,0,0,0.618,863,3051)matrix(0.71,0.71,-0.71,0.71,0,0)">
<path d="M628 824 c-62 -60 -140 -134 -173 -163 -127 -114 -415 -405 -408 -412 9 -9 214 -123 240 -134 10 -4 34 -11 53 -15 42 -10 182 -47 201 -55 8 -3 48 21 90 52 41 32 96 74 122 93 25 19 49 42 53 50 6 15 16 105 30 282 4 53 3 98 -3 115 -6 15 -16 46 -22 68 -44 159 -61 219 -66 223 -3 3 -56 -44 -117 -104z" transform="translate(489,-489) scale(1,1)" stroke="none" fill="#627477"/>
</g>
<g id="pattern4" transform="matrix(1.618,0,0,1.618,1280,1280)matrix(0.87,0.5,-0.5,0.87,0,0)">
<path d="M628 824 c-62 -60 -140 -134 -173 -163 -127 -114 -415 -405 -408 -412 9 -9 214 -123 240 -134 10 -4 34 -11 53 -15 42 -10 182 -47 201 -55 8 -3 48 21 90 52 41 32 96 74 122 93 25 19 49 42 53 50 6 15 16 105 30 282 4 53 3 98 -3 115 -6 15 -16 46 -22 68 -44 159 -61 219 -66 223 -3 3 -56 -44 -117 -104z" transform="translate(489,-489) scale(1,1)" stroke="none" fill="#627477"/>
</g>
</g>
</g>

<g id="2" transform="translate(2244.0,0)scale(0.25,0.25)">

<g id="pattern">
<rect width="4862" height="4862" fill="#324144"/>
<g id="pattern1" transform="matrix(1,0,0,1,302,302)">
<path d="M628 824 c-62 -60 -140 -134 -173 -163 -127 -114 -415 -405 -408 -412 9 -9 214 -123 240 -134 10 -4 34 -11 53 -15 42 -10 182 -47 201 -55 8 -3 48 21 90 52 41 32 96 74 122 93 25 19 49 42 53 50 6 15 16 105 30 282 4 53 3 98 -3 115 -6 15 -16 46 -22 68 -44 159 -61 219 -66 223 -3 3 -56 -44 -117 -104z" transform="translate(0.000000,0.000000) scale(1,1)" stroke="none" fill="#627477"/>
</g>
<g id="pattern2" transform="matrix(0.618,0,0,0.618,2303,676)">
<path d="M628 824 c-62 -60 -140 -134 -173 -163 -127 -114 -415 -405 -408 -412 9 -9 214 -123 240 -134 10 -4 34 -11 53 -15 42 -10 182 -47 201 -55 8 -3 48 21 90 52 41 32 96 74 122 93 25 19 49 42 53 50 6 15 16 105 30 282 4 53 3 98 -3 115 -6 15 -16 46 -22 68 -44 159 -61 219 -66 223 -3 3 -56 -44 -117 -104z" transform="translate(3051,0.000000) scale(-1,1)" stroke="none" fill="#627477"/>
</g>
<g id="pattern3" transform="matrix(0.618,0,0,0.618,863,3051)matrix(0.71,0.71,-0.71,0.71,0,0)">
<path d="M628 824 c-62 -60 -140 -134 -173 -163 -127 -114 -415 -405 -408 -412 9 -9 214 -123 240 -134 10 -4 34 -11 53 -15 42 -10 182 -47 201 -55 8 -3 48 21 90 52 41 32 96 74 122 93 25 19 49 42 53 50 6 15 16 105 30 282 4 53 3 98 -3 115 -6 15 -16 46 -22 68 -44 159 -61 219 -66 223 -3 3 -56 -44 -117 -104z" transform="translate(489,-489) scale(1,1)" stroke="none" fill="#627477"/>
</g>
<g id="pattern4" transform="matrix(1.618,0,0,1.618,1280,1280)matrix(0.87,0.5,-0.5,0.87,0,0)">
<path d="M628 824 c-62 -60 -140 -134 -173 -163 -127 -114 -415 -405 -408 -412 9 -9 214 -123 240 -134 10 -4 34 -11 53 -15 42 -10 182 -47 201 -55 8 -3 48 21 90 52 41 32 96 74 122 93 25 19 49 42 53 50 6 15 16 105 30 282 4 53 3 98 -3 115 -6 15 -16 46 -22 68 -44 159 -61 219 -66 223 -3 3 -56 -44 -117 -104z" transform="translate(489,-489) scale(1,1)" stroke="none" fill="#627477"/>
</g>
</g>
</g>

<g id="3" transform="translate(3366.0,0)scale(0.25,0.25)">

<g id="pattern">
<rect width="4862" height="4862" fill="#324144"/>
<g id="pattern1" transform="matrix(1,0,0,1,302,302)">
<path d="M628 824 c-62 -60 -140 -134 -173 -163 -127 -114 -415 -405 -408 -412 9 -9 214 -123 240 -134 10 -4 34 -11 53 -15 42 -10 182 -47 201 -55 8 -3 48 21 90 52 41 32 96 74 122 93 25 19 49 42 53 50 6 15 16 105 30 282 4 53 3 98 -3 115 -6 15 -16 46 -22 68 -44 159 -61 219 -66 223 -3 3 -56 -44 -117 -104z" transform="translate(0.000000,0.000000) scale(1,1)" stroke="none" fill="#627477"/>
</g>
<g id="pattern2" transform="matrix(0.618,0,0,0.618,2303,676)">
<path d="M628 824 c-62 -60 -140 -134 -173 -163 -127 -114 -415 -405 -408 -412 9 -9 214 -123 240 -134 10 -4 34 -11 53 -15 42 -10 182 -47 201 -55 8 -3 48 21 90 52 41 32 96 74 122 93 25 19 49 42 53 50 6 15 16 105 30 282 4 53 3 98 -3 115 -6 15 -16 46 -22 68 -44 159 -61 219 -66 223 -3 3 -56 -44 -117 -104z" transform="translate(3051,0.000000) scale(-1,1)" stroke="none" fill="#627477"/>
</g>
<g id="pattern3" transform="matrix(0.618,0,0,0.618,863,3051)matrix(0.71,0.71,-0.71,0.71,0,0)">
<path d="M628 824 c-62 -60 -140 -134 -173 -163 -127 -114 -415 -405 -408 -412 9 -9 214 -123 240 -134 10 -4 34 -11 53 -15 42 -10 182 -47 201 -55 8 -3 48 21 90 52 41 32 96 74 122 93 25 19 49 42 53 50 6 15 16 105 30 282 4 53 3 98 -3 115 -6 15 -16 46 -22 68 -44 159 -61 219 -66 223 -3 3 -56 -44 -117 -104z" transform="translate(489,-489) scale(1,1)" stroke="none" fill="#627477"/>
</g>
<g id="pattern4" transform="matrix(1.618,0,0,1.618,1280,1280)matrix(0.87,0.5,-0.5,0.87,0,0)">
<path d="M628 824 c-62 -60 -140 -134 -173 -163 -127 -114 -415 -405 -408 -412 9 -9 214 -123 240 -134 10 -4 34 -11 53 -15 42 -10 182 -47 201 -55 8 -3 48 21 90 52 41 32 96 74 122 93 25 19 49 42 53 50 6 15 16 105 30 282 4 53 3 98 -3 115 -6 15 -16 46 -22 68 -44 159 -61 219 -66 223 -3 3 -56 -44 -117 -104z" transform="translate(489,-489) scale(1,1)" stroke="none" fill="#627477"/>
</g>
</g>
</g>

<g id="4" transform="translate(4488.0,0)scale(0.25,0.25)">

<g id="pattern">
<rect width="4862" height="4862" fill="#324144"/>
<g id="pattern1" transform="matrix(1,0,0,1,302,302)">
<path d="M628 824 c-62 -60 -140 -134 -173 -163 -127 -114 -415 -405 -408 -412 9 -9 214 -123 240 -134 10 -4 34 -11 53 -15 42 -10 182 -47 201 -55 8 -3 48 21 90 52 41 32 96 74 122 93 25 19 49 42 53 50 6 15 16 105 30 282 4 53 3 98 -3 115 -6 15 -16 46 -22 68 -44 159 -61 219 -66 223 -3 3 -56 -44 -117 -104z" transform="translate(0.000000,0.000000) scale(1,1)" stroke="none" fill="#627477"/>
</g>
<g id="pattern2" transform="matrix(0.618,0,0,0.618,2303,676)">
<path d="M628 824 c-62 -60 -140 -134 -173 -163 -127 -114 -415 -405 -408 -412 9 -9 214 -123 240 -134 10 -4 34 -11 53 -15 42 -10 182 -47 201 -55 8 -3 48 21 90 52 41 32 96 74 122 93 25 19 49 42 53 50 6 15 16 105 30 282 4 53 3 98 -3 115 -6 15 -16 46 -22 68 -44 159 -61 219 -66 223 -3 3 -56 -44 -117 -104z" transform="translate(3051,0.000000) scale(-1,1)" stroke="none" fill="#627477"/>
</g>
<g id="pattern3" transform="matrix(0.618,0,0,0.618,863,3051)matrix(0.71,0.71,-0.71,0.71,0,0)">
<path d="M628 824 c-62 -60 -140 -134 -173 -163 -127 -114 -415 -405 -408 -412 9 -9 214 -123 240 -134 10 -4 34 -11 53 -15 42 -10 182 -47 201 -55 8 -3 48 21 90 52 41 32 96 74 122 93 25 19 49 42 53 50 6 15 16 105 30 282 4 53 3 98 -3 115 -6 15 -16 46 -22 68 -44 159 -61 219 -66 223 -3 3 -56 -44 -117 -104z" transform="translate(489,-489) scale(1,1)" stroke="none" fill="#627477"/>
</g>
<g id="pattern4" transform="matrix(1.618,0,0,1.618,1280,1280)matrix(0.87,0.5,-0.5,0.87,0,0)">
<path d="M628 824 c-62 -60 -140 -134 -173 -163 -127 -114 -415 -405 -408 -412 9 -9 214 -123 240 -134 10 -4 34 -11 53 -15 42 -10 182 -47 201 -55 8 -3 48 21 90 52 41 32 96 74 122 93 25 19 49 42 53 50 6 15 16 105 30 282 4 53 3 98 -3 115 -6 15 -16 46 -22 68 -44 159 -61 219 -66 223 -3 3 -56 -44 -117 -104z" transform="translate(489,-489) scale(1,1)" stroke="none" fill="#627477"/>
</g>
</g>
</g>

</g>
<g id="row3" transform="translate(0,3366.0)">
<g id="0" transform="translate(0.0,0)scale(0.25,0.25)">

<g id="pattern">
<rect width="4862" height="4862" fill="#324144"/>
<g id="pattern1" transform="matrix(1,0,0,1,302,302)">
<path d="M628 824 c-62 -60 -140 -134 -173 -163 -127 -114 -415 -405 -408 -412 9 -9 214 -123 240 -134 10 -4 34 -11 53 -15 42 -10 182 -47 201 -55 8 -3 48 21 90 52 41 32 96 74 122 93 25 19 49 42 53 50 6 15 16 105 30 282 4 53 3 98 -3 115 -6 15 -16 46 -22 68 -44 159 -61 219 -66 223 -3 3 -56 -44 -117 -104z" transform="translate(0.000000,0.000000) scale(1,1)" stroke="none" fill="#627477"/>
</g>
<g id="pattern2" transform="matrix(0.618,0,0,0.618,2303,676)">
<path d="M628 824 c-62 -60 -140 -134 -173 -163 -127 -114 -415 -405 -408 -412 9 -9 214 -123 240 -134 10 -4 34 -11 53 -15 42 -10 182 -47 201 -55 8 -3 48 21 90 52 41 32 96 74 122 93 25 19 49 42 53 50 6 15 16 105 30 282 4 53 3 98 -3 115 -6 15 -16 46 -22 68 -44 159 -61 219 -66 223 -3 3 -56 -44 -117 -104z" transform="translate(3051,0.000000) scale(-1,1)" stroke="none" fill="#627477"/>
</g>
<g id="pattern3" transform="matrix(0.618,0,0,0.618,863,3051)matrix(0.71,0.71,-0.71,0.71,0,0)">
<path d="M628 824 c-62 -60 -140 -134 -173 -163 -127 -114 -415 -405 -408 -412 9 -9 214 -123 240 -134 10 -4 34 -11 53 -15 42 -10 182 -47 201 -55 8 -3 48 21 90 52 41 32 96 74 122 93 25 19 49 42 53 50 6 15 16 105 30 282 4 53 3 98 -3 115 -6 15 -16 46 -22 68 -44 159 -61 219 -66 223 -3 3 -56 -44 -117 -104z" transform="translate(489,-489) scale(1,1)" stroke="none" fill="#627477"/>
</g>
<g id="pattern4" transform="matrix(1.618,0,0,1.618,1280,1280)matrix(0.87,0.5,-0.5,0.87,0,0)">
<path d="M628 824 c-62 -60 -140 -134 -173 -163 -127 -114 -415 -405 -408 -412 9 -9 214 -123 240 -134 10 -4 34 -11 53 -15 42 -10 182 -47 201 -55 8 -3 48 21 90 52 41 32 96 74 122 93 25 19 49 42 53 50 6 15 16 105 30 282 4 53 3 98 -3 115 -6 15 -16 46 -22 68 -44 159 -61 219 -66 223 -3 3 -56 -44 -117 -104z" transform="translate(489,-489) scale(1,1)" stroke="none" fill="#627477"/>
</g>
</g>
</g>

<g id="1" transform="translate(1122.0,0)scale(0.25,0.25)">

<g id="pattern">
<rect width="4862" height="4862" fill="#324144"/>
<g id="pattern1" transform="matrix(1,0,0,1,302,302)">
<path d="M628 824 c-62 -60 -140 -134 -173 -163 -127 -114 -415 -405 -408 -412 9 -9 214 -123 240 -134 10 -4 34 -11 53 -15 42 -10 182 -47 201 -55 8 -3 48 21 90 52 41 32 96 74 122 93 25 19 49 42 53 50 6 15 16 105 30 282 4 53 3 98 -3 115 -6 15 -16 46 -22 68 -44 159 -61 219 -66 223 -3 3 -56 -44 -117 -104z" transform="translate(0.000000,0.000000) scale(1,1)" stroke="none" fill="#627477"/>
</g>
<g id="pattern2" transform="matrix(0.618,0,0,0.618,2303,676)">
<path d="M628 824 c-62 -60 -140 -134 -173 -163 -127 -114 -415 -405 -408 -412 9 -9 214 -123 240 -134 10 -4 34 -11 53 -15 42 -10 182 -47 201 -55 8 -3 48 21 90 52 41 32 96 74 122 93 25 19 49 42 53 50 6 15 16 105 30 282 4 53 3 98 -3 115 -6 15 -16 46 -22 68 -44 159 -61 219 -66 223 -3 3 -56 -44 -117 -104z" transform="translate(3051,0.000000) scale(-1,1)" stroke="none" fill="#627477"/>
</g>
<g id="pattern3" transform="matrix(0.618,0,0,0.618,863,3051)matrix(0.71,0.71,-0.71,0.71,0,0)">
<path d="M628 824 c-62 -60 -140 -134 -173 -163 -127 -114 -415 -405 -408 -412 9 -9 214 -123 240 -134 10 -4 34 -11 53 -15 42 -10 182 -47 201 -55 8 -3 48 21 90 52 41 32 96 74 122 93 25 19 49 42 53 50 6 15 16 105 30 282 4 53 3 98 -3 115 -6 15 -16 46 -22 68 -44 159 -61 219 -66 223 -3 3 -56 -44 -117 -104z" transform="translate(489,-489) scale(1,1)" stroke="none" fill="#627477"/>
</g>
<g id="pattern4" transform="matrix(1.618,0,0,1.618,1280,1280)matrix(0.87,0.5,-0.5,0.87,0,0)">
<path d="M628 824 c-62 -60 -140 -134 -173 -163 -127 -114 -415 -405 -408 -412 9 -9 214 -123 240 -134 10 -4 34 -11 53 -15 42 -10 182 -47 201 -55 8 -3 48 21 90 52 41 32 96 74 122 93 25 19 49 42 53 50 6 15 16 105 30 282 4 53 3 98 -3 115 -6 15 -16 46 -22 68 -44 159 -61 219 -66 223 -3 3 -56 -44 -117 -104z" transform="translate(489,-489) scale(1,1)" stroke="none" fill="#627477"/>
</g>
</g>
</g>

<g id="2" transform="translate(2244.0,0)scale(0.25,0.25)">

<g id="pattern">
<rect width="4862" height="4862" fill="#324144"/>
<g id="pattern1" transform="matrix(1,0,0,1,302,302)">
<path d="M628 824 c-62 -60 -140 -134 -173 -163 -127 -114 -415 -405 -408 -412 9 -9 214 -123 240 -134 10 -4 34 -11 53 -15 42 -10 182 -47 201 -55 8 -3 48 21 90 52 41 32 96 74 122 93 25 19 49 42 53 50 6 15 16 105 30 282 4 53 3 98 -3 115 -6 15 -16 46 -22 68 -44 159 -61 219 -66 223 -3 3 -56 -44 -117 -104z" transform="translate(0.000000,0.000000) scale(1,1)" stroke="none" fill="#627477"/>
</g>
<g id="pattern2" transform="matrix(0.618,0,0,0.618,2303,676)">
<path d="M628 824 c-62 -60 -140 -134 -173 -163 -127 -114 -415 -405 -408 -412 9 -9 214 -123 240 -134 10 -4 34 -11 53 -15 42 -10 182 -47 201 -55 8 -3 48 21 90 52 41 32 96 74 122 93 25 19 49 42 53 50 6 15 16 105 30 282 4 53 3 98 -3 115 -6 15 -16 46 -22 68 -44 159 -61 219 -66 223 -3 3 -56 -44 -117 -104z" transform="translate(3051,0.000000) scale(-1,1)" stroke="none" fill="#627477"/>
</g>
<g id="pattern3" transform="matrix(0.618,0,0,0.618,863,3051)matrix(0.71,0.71,-0.71,0.71,0,0)">
<path d="M628 824 c-62 -60 -140 -134 -173 -163 -127 -114 -415 -405 -408 -412 9 -9 214 -123 240 -134 10 -4 34 -11 53 -15 42 -10 182 -47 201 -55 8 -3 48 21 90 52 41 32 96 74 122 93 25 19 49 42 53 50 6 15 16 105 30 282 4 53 3 98 -3 115 -6 15 -16 46 -22 68 -44 159 -61 219 -66 223 -3 3 -56 -44 -117 -104z" transform="translate(489,-489) scale(1,1)" stroke="none" fill="#627477"/>
</g>
<g id="pattern4" transform="matrix(1.618,0,0,1.618,1280,1280)matrix(0.87,0.5,-0.5,0.87,0,0)">
<path d="M628 824 c-62 -60 -140 -134 -173 -163 -127 -114 -415 -405 -408 -412 9 -9 214 -123 240 -134 10 -4 34 -11 53 -15 42 -10 182 -47 201 -55 8 -3 48 21 90 52 41 32 96 74 122 93 25 19 49 42 53 50 6 15 16 105 30 282 4 53 3 98 -3 115 -6 15 -16 46 -22 68 -44 159 -61 219 -66 223 -3 3 -56 -44 -117 -104z" transform="translate(489,-489) scale(1,1)" stroke="none" fill="#627477"/>
</g>
</g>
</g>

<g id="3" transform="translate(3366.0,0)scale(0.25,0.25)">

<g id="pattern">
<rect width="4862" height="4862" fill="#324144"/>
<g id="pattern1" transform="matrix(1,0,0,1,302,302)">
<path d="M628 824 c-62 -60 -140 -134 -173 -163 -127 -114 -415 -405 -408 -412 9 -9 214 -123 240 -134 10 -4 34 -11 53 -15 42 -10 182 -47 201 -55 8 -3 48 21 90 52 41 32 96 74 122 93 25 19 49 42 53 50 6 15 16 105 30 282 4 53 3 98 -3 115 -6 15 -16 46 -22 68 -44 159 -61 219 -66 223 -3 3 -56 -44 -117 -104z" transform="translate(0.000000,0.000000) scale(1,1)" stroke="none" fill="#627477"/>
</g>
<g id="pattern2" transform="matrix(0.618,0,0,0.618,2303,676)">
<path d="M628 824 c-62 -60 -140 -134 -173 -163 -127 -114 -415 -405 -408 -412 9 -9 214 -123 240 -134 10 -4 34 -11 53 -15 42 -10 182 -47 201 -55 8 -3 48 21 90 52 41 32 96 74 122 93 25 19 49 42 53 50 6 15 16 105 30 282 4 53 3 98 -3 115 -6 15 -16 46 -22 68 -44 159 -61 219 -66 223 -3 3 -56 -44 -117 -104z" transform="translate(3051,0.000000) scale(-1,1)" stroke="none" fill="#627477"/>
</g>
<g id="pattern3" transform="matrix(0.618,0,0,0.618,863,3051)matrix(0.71,0.71,-0.71,0.71,0,0)">
<path d="M628 824 c-62 -60 -140 -134 -173 -163 -127 -114 -415 -405 -408 -412 9 -9 214 -123 240 -134 10 -4 34 -11 53 -15 42 -10 182 -47 201 -55 8 -3 48 21 90 52 41 32 96 74 122 93 25 19 49 42 53 50 6 15 16 105 30 282 4 53 3 98 -3 115 -6 15 -16 46 -22 68 -44 159 -61 219 -66 223 -3 3 -56 -44 -117 -104z" transform="translate(489,-489) scale(1,1)" stroke="none" fill="#627477"/>
</g>
<g id="pattern4" transform="matrix(1.618,0,0,1.618,1280,1280)matrix(0.87,0.5,-0.5,0.87,0,0)">
<path d="M628 824 c-62 -60 -140 -134 -173 -163 -127 -114 -415 -405 -408 -412 9 -9 214 -123 240 -134 10 -4 34 -11 53 -15 42 -10 182 -47 201 -55 8 -3 48 21 90 52 41 32 96 74 122 93 25 19 49 42 53 50 6 15 16 105 30 282 4 53 3 98 -3 115 -6 15 -16 46 -22 68 -44 159 -61 219 -66 223 -3 3 -56 -44 -117 -104z" transform="translate(489,-489) scale(1,1)" stroke="none" fill="#627477"/>
</g>
</g>
</g>

<g id="4" transform="translate(4488.0,0)scale(0.25,0.25)">

<g id="pattern">
<rect width="4862" height="4862" fill="#324144"/>
<g id="pattern1" transform="matrix(1,0,0,1,302,302)">
<path d="M628 824 c-62 -60 -140 -134 -173 -163 -127 -114 -415 -405 -408 -412 9 -9 214 -123 240 -134 10 -4 34 -11 53 -15 42 -10 182 -47 201 -55 8 -3 48 21 90 52 41 32 96 74 122 93 25 19 49 42 53 50 6 15 16 105 30 282 4 53 3 98 -3 115 -6 15 -16 46 -22 68 -44 159 -61 219 -66 223 -3 3 -56 -44 -117 -104z" transform="translate(0.000000,0.000000) scale(1,1)" stroke="none" fill="#627477"/>
</g>
<g id="pattern2" transform="matrix(0.618,0,0,0.618,2303,676)">
<path d="M628 824 c-62 -60 -140 -134 -173 -163 -127 -114 -415 -405 -408 -412 9 -9 214 -123 240 -134 10 -4 34 -11 53 -15 42 -10 182 -47 201 -55 8 -3 48 21 90 52 41 32 96 74 122 93 25 19 49 42 53 50 6 15 16 105 30 282 4 53 3 98 -3 115 -6 15 -16 46 -22 68 -44 159 -61 219 -66 223 -3 3 -56 -44 -117 -104z" transform="translate(3051,0.000000) scale(-1,1)" stroke="none" fill="#627477"/>
</g>
<g id="pattern3" transform="matrix(0.618,0,0,0.618,863,3051)matrix(0.71,0.71,-0.71,0.71,0,0)">
<path d="M628 824 c-62 -60 -140 -134 -173 -163 -127 -114 -415 -405 -408 -412 9 -9 214 -123 240 -134 10 -4 34 -11 53 -15 42 -10 182 -47 201 -55 8 -3 48 21 90 52 41 32 96 74 122 93 25 19 49 42 53 50 6 15 16 105 30 282 4 53 3 98 -3 115 -6 15 -16 46 -22 68 -44 159 -61 219 -66 223 -3 3 -56 -44 -117 -104z" transform="translate(489,-489) scale(1,1)" stroke="none" fill="#627477"/>
</g>
<g id="pattern4" transform="matrix(1.618,0,0,1.618,1280,1280)matrix(0.87,0.5,-0.5,0.87,0,0)">
<path d="M628 824 c-62 -60 -140 -134 -173 -163 -127 -114 -415 -405 -408 -412 9 -9 214 -123 240 -134 10 -4 34 -11 53 -15 42 -10 182 -47 201 -55 8 -3 48 21 90 52 41 32 96 74 122 93 25 19 49 42 53 50 6 15 16 105 30 282 4 53 3 98 -3 115 -6 15 -16 46 -22 68 -44 159 -61 219 -66 223 -3 3 -56 -44 -117 -104z" transform="translate(489,-489) scale(1,1)" stroke="none" fill="#627477"/>
</g>
</g>
</g>

</g>
</svg>