<?xml version="1.0" standalone="no"?>
<!DOCTYPE svg PUBLIC "-//W3C//DTD SVG 20010904//EN"
 "http://www.w3.org/TR/2001/REC-SVG-20010904/DTD/svg10.dtd">
<svg version="1.0" xmlns="http://www.w3.org/2000/svg" width="452pt" height="316pt" viewBox="0 0 452 316" preserveAspectRatio = "xMidYMid meet" >
<metadata>
Created by ZoeQu, written in 2022
</metadata>
<rect width="452" height="316" fill="#BFCBC6"/>
<g id="row0" transform="translate(15,0.0)">
<g id="0" transform="translate(0.0,0)scale(1,1)">

<g transform="matrix(0.5,0,0,0.5,0,0)">

<path d="M568 447 c-20 -8 -52 -27 -70 -42 -31 -26 -98 -111 -98 -125 0 -3 25 -17 55 -29 74 -31 164 -98 208 -155 l34 -45 6 58 c8 72 46 177 87 237 16 25 30 47 30 50 0 3 -25 16 -55 30 -67 31 -147 39 -197 21z" transform="translate(0,79.0) scale(0.1,-0.1)" stroke="none" fill="#696959"/>

<path d="M454 741 c-74 -34 -119 -101 -130 -195 -7 -54 -8 -55 -33 -49 -14 3 -34 10 -43 14 -9 5 -39 9 -67 9 -42 0 -56 -5 -86 -31 -32 -29 -35 -35 -35 -89 0 -31 5 -71 11 -87 l10 -30 112 4 c62 2 132 0 157 -4 l44 -8 36 52 c89 132 202 164 341 96 l56 -28 29 29 c34 33 166 122 194 131 27 9 27 88 1 131 -21 34 -75 64 -115 64 -41 0 -104 -37 -128 -74 -12 -19 -30 -39 -40 -45 -15 -9 -20 -6 -32 17 -50 96 -180 139 -282 93z" transform="translate(0,79.0) scale(0.1,-0.1)" stroke="none" fill="#A59E96"/>

<path d="M568 447 c-20 -8 -52 -27 -70 -42 -31 -26 -98 -111 -98 -125 0 -3 25 -17 55 -29 74 -31 164 -98 208 -155 l34 -45 6 58 c8 72 46 177 87 237 16 25 30 47 30 50 0 3 -25 16 -55 30 -67 31 -147 39 -197 21z" transform="translate(226.0,79.0) scale(-0.1,-0.1)" stroke="none" fill="#696959"/>

<path d="M454 741 c-74 -34 -119 -101 -130 -195 -7 -54 -8 -55 -33 -49 -14 3 -34 10 -43 14 -9 5 -39 9 -67 9 -42 0 -56 -5 -86 -31 -32 -29 -35 -35 -35 -89 0 -31 5 -71 11 -87 l10 -30 112 4 c62 2 132 0 157 -4 l44 -8 36 52 c89 132 202 164 341 96 l56 -28 29 29 c34 33 166 122 194 131 27 9 27 88 1 131 -21 34 -75 64 -115 64 -41 0 -104 -37 -128 -74 -12 -19 -30 -39 -40 -45 -15 -9 -20 -6 -32 17 -50 96 -180 139 -282 93z" transform="translate(226.0,79.0) scale(-0.1,-0.1)" stroke="none" fill="#A59E96"/>

<path d="M568 447 c-20 -8 -52 -27 -70 -42 -31 -26 -98 -111 -98 -125 0 -3 25 -17 55 -29 74 -31 164 -98 208 -155 l34 -45 6 58 c8 72 46 177 87 237 16 25 30 47 30 50 0 3 -25 16 -55 30 -67 31 -147 39 -197 21z" transform="translate(0,79.0) scale(0.1,0.1)" stroke="none" fill="#696959"/>

<path d="M454 741 c-74 -34 -119 -101 -130 -195 -7 -54 -8 -55 -33 -49 -14 3 -34 10 -43 14 -9 5 -39 9 -67 9 -42 0 -56 -5 -86 -31 -32 -29 -35 -35 -35 -89 0 -31 5 -71 11 -87 l10 -30 112 4 c62 2 132 0 157 -4 l44 -8 36 52 c89 132 202 164 341 96 l56 -28 29 29 c34 33 166 122 194 131 27 9 27 88 1 131 -21 34 -75 64 -115 64 -41 0 -104 -37 -128 -74 -12 -19 -30 -39 -40 -45 -15 -9 -20 -6 -32 17 -50 96 -180 139 -282 93z" transform="translate(0,79.0) scale(0.1,0.1)" stroke="none" fill="#A59E96"/>

<path d="M568 447 c-20 -8 -52 -27 -70 -42 -31 -26 -98 -111 -98 -125 0 -3 25 -17 55 -29 74 -31 164 -98 208 -155 l34 -45 6 58 c8 72 46 177 87 237 16 25 30 47 30 50 0 3 -25 16 -55 30 -67 31 -147 39 -197 21z" transform="translate(226.0,79.0) scale(-0.1,0.1)" stroke="none" fill="#696959"/>

<path d="M454 741 c-74 -34 -119 -101 -130 -195 -7 -54 -8 -55 -33 -49 -14 3 -34 10 -43 14 -9 5 -39 9 -67 9 -42 0 -56 -5 -86 -31 -32 -29 -35 -35 -35 -89 0 -31 5 -71 11 -87 l10 -30 112 4 c62 2 132 0 157 -4 l44 -8 36 52 c89 132 202 164 341 96 l56 -28 29 29 c34 33 166 122 194 131 27 9 27 88 1 131 -21 34 -75 64 -115 64 -41 0 -104 -37 -128 -74 -12 -19 -30 -39 -40 -45 -15 -9 -20 -6 -32 17 -50 96 -180 139 -282 93z" transform="translate(226.0,79.0) scale(-0.1,0.1)" stroke="none" fill="#A59E96"/>

</g>

</g>

<g id="1" transform="translate(113.0,0)scale(1,1)">

<g transform="matrix(0.5,0,0,0.5,0,0)">

<path d="M568 447 c-20 -8 -52 -27 -70 -42 -31 -26 -98 -111 -98 -125 0 -3 25 -17 55 -29 74 -31 164 -98 208 -155 l34 -45 6 58 c8 72 46 177 87 237 16 25 30 47 30 50 0 3 -25 16 -55 30 -67 31 -147 39 -197 21z" transform="translate(0,79.0) scale(0.1,-0.1)" stroke="none" fill="#696959"/>

<path d="M454 741 c-74 -34 -119 -101 -130 -195 -7 -54 -8 -55 -33 -49 -14 3 -34 10 -43 14 -9 5 -39 9 -67 9 -42 0 -56 -5 -86 -31 -32 -29 -35 -35 -35 -89 0 -31 5 -71 11 -87 l10 -30 112 4 c62 2 132 0 157 -4 l44 -8 36 52 c89 132 202 164 341 96 l56 -28 29 29 c34 33 166 122 194 131 27 9 27 88 1 131 -21 34 -75 64 -115 64 -41 0 -104 -37 -128 -74 -12 -19 -30 -39 -40 -45 -15 -9 -20 -6 -32 17 -50 96 -180 139 -282 93z" transform="translate(0,79.0) scale(0.1,-0.1)" stroke="none" fill="#A59E96"/>

<path d="M568 447 c-20 -8 -52 -27 -70 -42 -31 -26 -98 -111 -98 -125 0 -3 25 -17 55 -29 74 -31 164 -98 208 -155 l34 -45 6 58 c8 72 46 177 87 237 16 25 30 47 30 50 0 3 -25 16 -55 30 -67 31 -147 39 -197 21z" transform="translate(226.0,79.0) scale(-0.1,-0.1)" stroke="none" fill="#696959"/>

<path d="M454 741 c-74 -34 -119 -101 -130 -195 -7 -54 -8 -55 -33 -49 -14 3 -34 10 -43 14 -9 5 -39 9 -67 9 -42 0 -56 -5 -86 -31 -32 -29 -35 -35 -35 -89 0 -31 5 -71 11 -87 l10 -30 112 4 c62 2 132 0 157 -4 l44 -8 36 52 c89 132 202 164 341 96 l56 -28 29 29 c34 33 166 122 194 131 27 9 27 88 1 131 -21 34 -75 64 -115 64 -41 0 -104 -37 -128 -74 -12 -19 -30 -39 -40 -45 -15 -9 -20 -6 -32 17 -50 96 -180 139 -282 93z" transform="translate(226.0,79.0) scale(-0.1,-0.1)" stroke="none" fill="#A59E96"/>

<path d="M568 447 c-20 -8 -52 -27 -70 -42 -31 -26 -98 -111 -98 -125 0 -3 25 -17 55 -29 74 -31 164 -98 208 -155 l34 -45 6 58 c8 72 46 177 87 237 16 25 30 47 30 50 0 3 -25 16 -55 30 -67 31 -147 39 -197 21z" transform="translate(0,79.0) scale(0.1,0.1)" stroke="none" fill="#696959"/>

<path d="M454 741 c-74 -34 -119 -101 -130 -195 -7 -54 -8 -55 -33 -49 -14 3 -34 10 -43 14 -9 5 -39 9 -67 9 -42 0 -56 -5 -86 -31 -32 -29 -35 -35 -35 -89 0 -31 5 -71 11 -87 l10 -30 112 4 c62 2 132 0 157 -4 l44 -8 36 52 c89 132 202 164 341 96 l56 -28 29 29 c34 33 166 122 194 131 27 9 27 88 1 131 -21 34 -75 64 -115 64 -41 0 -104 -37 -128 -74 -12 -19 -30 -39 -40 -45 -15 -9 -20 -6 -32 17 -50 96 -180 139 -282 93z" transform="translate(0,79.0) scale(0.1,0.1)" stroke="none" fill="#A59E96"/>

<path d="M568 447 c-20 -8 -52 -27 -70 -42 -31 -26 -98 -111 -98 -125 0 -3 25 -17 55 -29 74 -31 164 -98 208 -155 l34 -45 6 58 c8 72 46 177 87 237 16 25 30 47 30 50 0 3 -25 16 -55 30 -67 31 -147 39 -197 21z" transform="translate(226.0,79.0) scale(-0.1,0.1)" stroke="none" fill="#696959"/>

<path d="M454 741 c-74 -34 -119 -101 -130 -195 -7 -54 -8 -55 -33 -49 -14 3 -34 10 -43 14 -9 5 -39 9 -67 9 -42 0 -56 -5 -86 -31 -32 -29 -35 -35 -35 -89 0 -31 5 -71 11 -87 l10 -30 112 4 c62 2 132 0 157 -4 l44 -8 36 52 c89 132 202 164 341 96 l56 -28 29 29 c34 33 166 122 194 131 27 9 27 88 1 131 -21 34 -75 64 -115 64 -41 0 -104 -37 -128 -74 -12 -19 -30 -39 -40 -45 -15 -9 -20 -6 -32 17 -50 96 -180 139 -282 93z" transform="translate(226.0,79.0) scale(-0.1,0.1)" stroke="none" fill="#A59E96"/>

</g>

</g>

<g id="2" transform="translate(226.0,0)scale(1,1)">

<g transform="matrix(0.5,0,0,0.5,0,0)">

<path d="M568 447 c-20 -8 -52 -27 -70 -42 -31 -26 -98 -111 -98 -125 0 -3 25 -17 55 -29 74 -31 164 -98 208 -155 l34 -45 6 58 c8 72 46 177 87 237 16 25 30 47 30 50 0 3 -25 16 -55 30 -67 31 -147 39 -197 21z" transform="translate(0,79.0) scale(0.1,-0.1)" stroke="none" fill="#696959"/>

<path d="M454 741 c-74 -34 -119 -101 -130 -195 -7 -54 -8 -55 -33 -49 -14 3 -34 10 -43 14 -9 5 -39 9 -67 9 -42 0 -56 -5 -86 -31 -32 -29 -35 -35 -35 -89 0 -31 5 -71 11 -87 l10 -30 112 4 c62 2 132 0 157 -4 l44 -8 36 52 c89 132 202 164 341 96 l56 -28 29 29 c34 33 166 122 194 131 27 9 27 88 1 131 -21 34 -75 64 -115 64 -41 0 -104 -37 -128 -74 -12 -19 -30 -39 -40 -45 -15 -9 -20 -6 -32 17 -50 96 -180 139 -282 93z" transform="translate(0,79.0) scale(0.1,-0.1)" stroke="none" fill="#A59E96"/>

<path d="M568 447 c-20 -8 -52 -27 -70 -42 -31 -26 -98 -111 -98 -125 0 -3 25 -17 55 -29 74 -31 164 -98 208 -155 l34 -45 6 58 c8 72 46 177 87 237 16 25 30 47 30 50 0 3 -25 16 -55 30 -67 31 -147 39 -197 21z" transform="translate(226.0,79.0) scale(-0.1,-0.1)" stroke="none" fill="#696959"/>

<path d="M454 741 c-74 -34 -119 -101 -130 -195 -7 -54 -8 -55 -33 -49 -14 3 -34 10 -43 14 -9 5 -39 9 -67 9 -42 0 -56 -5 -86 -31 -32 -29 -35 -35 -35 -89 0 -31 5 -71 11 -87 l10 -30 112 4 c62 2 132 0 157 -4 l44 -8 36 52 c89 132 202 164 341 96 l56 -28 29 29 c34 33 166 122 194 131 27 9 27 88 1 131 -21 34 -75 64 -115 64 -41 0 -104 -37 -128 -74 -12 -19 -30 -39 -40 -45 -15 -9 -20 -6 -32 17 -50 96 -180 139 -282 93z" transform="translate(226.0,79.0) scale(-0.1,-0.1)" stroke="none" fill="#A59E96"/>

<path d="M568 447 c-20 -8 -52 -27 -70 -42 -31 -26 -98 -111 -98 -125 0 -3 25 -17 55 -29 74 -31 164 -98 208 -155 l34 -45 6 58 c8 72 46 177 87 237 16 25 30 47 30 50 0 3 -25 16 -55 30 -67 31 -147 39 -197 21z" transform="translate(0,79.0) scale(0.1,0.1)" stroke="none" fill="#696959"/>

<path d="M454 741 c-74 -34 -119 -101 -130 -195 -7 -54 -8 -55 -33 -49 -14 3 -34 10 -43 14 -9 5 -39 9 -67 9 -42 0 -56 -5 -86 -31 -32 -29 -35 -35 -35 -89 0 -31 5 -71 11 -87 l10 -30 112 4 c62 2 132 0 157 -4 l44 -8 36 52 c89 132 202 164 341 96 l56 -28 29 29 c34 33 166 122 194 131 27 9 27 88 1 131 -21 34 -75 64 -115 64 -41 0 -104 -37 -128 -74 -12 -19 -30 -39 -40 -45 -15 -9 -20 -6 -32 17 -50 96 -180 139 -282 93z" transform="translate(0,79.0) scale(0.1,0.1)" stroke="none" fill="#A59E96"/>

<path d="M568 447 c-20 -8 -52 -27 -70 -42 -31 -26 -98 -111 -98 -125 0 -3 25 -17 55 -29 74 -31 164 -98 208 -155 l34 -45 6 58 c8 72 46 177 87 237 16 25 30 47 30 50 0 3 -25 16 -55 30 -67 31 -147 39 -197 21z" transform="translate(226.0,79.0) scale(-0.1,0.1)" stroke="none" fill="#696959"/>

<path d="M454 741 c-74 -34 -119 -101 -130 -195 -7 -54 -8 -55 -33 -49 -14 3 -34 10 -43 14 -9 5 -39 9 -67 9 -42 0 -56 -5 -86 -31 -32 -29 -35 -35 -35 -89 0 -31 5 -71 11 -87 l10 -30 112 4 c62 2 132 0 157 -4 l44 -8 36 52 c89 132 202 164 341 96 l56 -28 29 29 c34 33 166 122 194 131 27 9 27 88 1 131 -21 34 -75 64 -115 64 -41 0 -104 -37 -128 -74 -12 -19 -30 -39 -40 -45 -15 -9 -20 -6 -32 17 -50 96 -180 139 -282 93z" transform="translate(226.0,79.0) scale(-0.1,0.1)" stroke="none" fill="#A59E96"/>

</g>

</g>

<g id="3" transform="translate(339.0,0)scale(1,1)">

<g transform="matrix(0.5,0,0,0.5,0,0)">

<path d="M568 447 c-20 -8 -52 -27 -70 -42 -31 -26 -98 -111 -98 -125 0 -3 25 -17 55 -29 74 -31 164 -98 208 -155 l34 -45 6 58 c8 72 46 177 87 237 16 25 30 47 30 50 0 3 -25 16 -55 30 -67 31 -147 39 -197 21z" transform="translate(0,79.0) scale(0.1,-0.1)" stroke="none" fill="#696959"/>

<path d="M454 741 c-74 -34 -119 -101 -130 -195 -7 -54 -8 -55 -33 -49 -14 3 -34 10 -43 14 -9 5 -39 9 -67 9 -42 0 -56 -5 -86 -31 -32 -29 -35 -35 -35 -89 0 -31 5 -71 11 -87 l10 -30 112 4 c62 2 132 0 157 -4 l44 -8 36 52 c89 132 202 164 341 96 l56 -28 29 29 c34 33 166 122 194 131 27 9 27 88 1 131 -21 34 -75 64 -115 64 -41 0 -104 -37 -128 -74 -12 -19 -30 -39 -40 -45 -15 -9 -20 -6 -32 17 -50 96 -180 139 -282 93z" transform="translate(0,79.0) scale(0.1,-0.1)" stroke="none" fill="#A59E96"/>

<path d="M568 447 c-20 -8 -52 -27 -70 -42 -31 -26 -98 -111 -98 -125 0 -3 25 -17 55 -29 74 -31 164 -98 208 -155 l34 -45 6 58 c8 72 46 177 87 237 16 25 30 47 30 50 0 3 -25 16 -55 30 -67 31 -147 39 -197 21z" transform="translate(226.0,79.0) scale(-0.1,-0.1)" stroke="none" fill="#696959"/>

<path d="M454 741 c-74 -34 -119 -101 -130 -195 -7 -54 -8 -55 -33 -49 -14 3 -34 10 -43 14 -9 5 -39 9 -67 9 -42 0 -56 -5 -86 -31 -32 -29 -35 -35 -35 -89 0 -31 5 -71 11 -87 l10 -30 112 4 c62 2 132 0 157 -4 l44 -8 36 52 c89 132 202 164 341 96 l56 -28 29 29 c34 33 166 122 194 131 27 9 27 88 1 131 -21 34 -75 64 -115 64 -41 0 -104 -37 -128 -74 -12 -19 -30 -39 -40 -45 -15 -9 -20 -6 -32 17 -50 96 -180 139 -282 93z" transform="translate(226.0,79.0) scale(-0.1,-0.1)" stroke="none" fill="#A59E96"/>

<path d="M568 447 c-20 -8 -52 -27 -70 -42 -31 -26 -98 -111 -98 -125 0 -3 25 -17 55 -29 74 -31 164 -98 208 -155 l34 -45 6 58 c8 72 46 177 87 237 16 25 30 47 30 50 0 3 -25 16 -55 30 -67 31 -147 39 -197 21z" transform="translate(0,79.0) scale(0.1,0.1)" stroke="none" fill="#696959"/>

<path d="M454 741 c-74 -34 -119 -101 -130 -195 -7 -54 -8 -55 -33 -49 -14 3 -34 10 -43 14 -9 5 -39 9 -67 9 -42 0 -56 -5 -86 -31 -32 -29 -35 -35 -35 -89 0 -31 5 -71 11 -87 l10 -30 112 4 c62 2 132 0 157 -4 l44 -8 36 52 c89 132 202 164 341 96 l56 -28 29 29 c34 33 166 122 194 131 27 9 27 88 1 131 -21 34 -75 64 -115 64 -41 0 -104 -37 -128 -74 -12 -19 -30 -39 -40 -45 -15 -9 -20 -6 -32 17 -50 96 -180 139 -282 93z" transform="translate(0,79.0) scale(0.1,0.1)" stroke="none" fill="#A59E96"/>

<path d="M568 447 c-20 -8 -52 -27 -70 -42 -31 -26 -98 -111 -98 -125 0 -3 25 -17 55 -29 74 -31 164 -98 208 -155 l34 -45 6 58 c8 72 46 177 87 237 16 25 30 47 30 50 0 3 -25 16 -55 30 -67 31 -147 39 -197 21z" transform="translate(226.0,79.0) scale(-0.1,0.1)" stroke="none" fill="#696959"/>

<path d="M454 741 c-74 -34 -119 -101 -130 -195 -7 -54 -8 -55 -33 -49 -14 3 -34 10 -43 14 -9 5 -39 9 -67 9 -42 0 -56 -5 -86 -31 -32 -29 -35 -35 -35 -89 0 -31 5 -71 11 -87 l10 -30 112 4 c62 2 132 0 157 -4 l44 -8 36 52 c89 132 202 164 341 96 l56 -28 29 29 c34 33 166 122 194 131 27 9 27 88 1 131 -21 34 -75 64 -115 64 -41 0 -104 -37 -128 -74 -12 -19 -30 -39 -40 -45 -15 -9 -20 -6 -32 17 -50 96 -180 139 -282 93z" transform="translate(226.0,79.0) scale(-0.1,0.1)" stroke="none" fill="#A59E96"/>

</g>

</g>

<g id="4" transform="translate(452.0,0)scale(1,1)">

<g transform="matrix(0.5,0,0,0.5,0,0)">

<path d="M568 447 c-20 -8 -52 -27 -70 -42 -31 -26 -98 -111 -98 -125 0 -3 25 -17 55 -29 74 -31 164 -98 208 -155 l34 -45 6 58 c8 72 46 177 87 237 16 25 30 47 30 50 0 3 -25 16 -55 30 -67 31 -147 39 -197 21z" transform="translate(0,79.0) scale(0.1,-0.1)" stroke="none" fill="#696959"/>

<path d="M454 741 c-74 -34 -119 -101 -130 -195 -7 -54 -8 -55 -33 -49 -14 3 -34 10 -43 14 -9 5 -39 9 -67 9 -42 0 -56 -5 -86 -31 -32 -29 -35 -35 -35 -89 0 -31 5 -71 11 -87 l10 -30 112 4 c62 2 132 0 157 -4 l44 -8 36 52 c89 132 202 164 341 96 l56 -28 29 29 c34 33 166 122 194 131 27 9 27 88 1 131 -21 34 -75 64 -115 64 -41 0 -104 -37 -128 -74 -12 -19 -30 -39 -40 -45 -15 -9 -20 -6 -32 17 -50 96 -180 139 -282 93z" transform="translate(0,79.0) scale(0.1,-0.1)" stroke="none" fill="#A59E96"/>

<path d="M568 447 c-20 -8 -52 -27 -70 -42 -31 -26 -98 -111 -98 -125 0 -3 25 -17 55 -29 74 -31 164 -98 208 -155 l34 -45 6 58 c8 72 46 177 87 237 16 25 30 47 30 50 0 3 -25 16 -55 30 -67 31 -147 39 -197 21z" transform="translate(226.0,79.0) scale(-0.1,-0.1)" stroke="none" fill="#696959"/>

<path d="M454 741 c-74 -34 -119 -101 -130 -195 -7 -54 -8 -55 -33 -49 -14 3 -34 10 -43 14 -9 5 -39 9 -67 9 -42 0 -56 -5 -86 -31 -32 -29 -35 -35 -35 -89 0 -31 5 -71 11 -87 l10 -30 112 4 c62 2 132 0 157 -4 l44 -8 36 52 c89 132 202 164 341 96 l56 -28 29 29 c34 33 166 122 194 131 27 9 27 88 1 131 -21 34 -75 64 -115 64 -41 0 -104 -37 -128 -74 -12 -19 -30 -39 -40 -45 -15 -9 -20 -6 -32 17 -50 96 -180 139 -282 93z" transform="translate(226.0,79.0) scale(-0.1,-0.1)" stroke="none" fill="#A59E96"/>

<path d="M568 447 c-20 -8 -52 -27 -70 -42 -31 -26 -98 -111 -98 -125 0 -3 25 -17 55 -29 74 -31 164 -98 208 -155 l34 -45 6 58 c8 72 46 177 87 237 16 25 30 47 30 50 0 3 -25 16 -55 30 -67 31 -147 39 -197 21z" transform="translate(0,79.0) scale(0.1,0.1)" stroke="none" fill="#696959"/>

<path d="M454 741 c-74 -34 -119 -101 -130 -195 -7 -54 -8 -55 -33 -49 -14 3 -34 10 -43 14 -9 5 -39 9 -67 9 -42 0 -56 -5 -86 -31 -32 -29 -35 -35 -35 -89 0 -31 5 -71 11 -87 l10 -30 112 4 c62 2 132 0 157 -4 l44 -8 36 52 c89 132 202 164 341 96 l56 -28 29 29 c34 33 166 122 194 131 27 9 27 88 1 131 -21 34 -75 64 -115 64 -41 0 -104 -37 -128 -74 -12 -19 -30 -39 -40 -45 -15 -9 -20 -6 -32 17 -50 96 -180 139 -282 93z" transform="translate(0,79.0) scale(0.1,0.1)" stroke="none" fill="#A59E96"/>

<path d="M568 447 c-20 -8 -52 -27 -70 -42 -31 -26 -98 -111 -98 -125 0 -3 25 -17 55 -29 74 -31 164 -98 208 -155 l34 -45 6 58 c8 72 46 177 87 237 16 25 30 47 30 50 0 3 -25 16 -55 30 -67 31 -147 39 -197 21z" transform="translate(226.0,79.0) scale(-0.1,0.1)" stroke="none" fill="#696959"/>

<path d="M454 741 c-74 -34 -119 -101 -130 -195 -7 -54 -8 -55 -33 -49 -14 3 -34 10 -43 14 -9 5 -39 9 -67 9 -42 0 -56 -5 -86 -31 -32 -29 -35 -35 -35 -89 0 -31 5 -71 11 -87 l10 -30 112 4 c62 2 132 0 157 -4 l44 -8 36 52 c89 132 202 164 341 96 l56 -28 29 29 c34 33 166 122 194 131 27 9 27 88 1 131 -21 34 -75 64 -115 64 -41 0 -104 -37 -128 -74 -12 -19 -30 -39 -40 -45 -15 -9 -20 -6 -32 17 -50 96 -180 139 -282 93z" transform="translate(226.0,79.0) scale(-0.1,0.1)" stroke="none" fill="#A59E96"/>

</g>

</g>

</g>
<g id="row1" transform="translate(15,79.0)">
<g id="0" transform="translate(0.0,0)scale(1,1)">

<g transform="matrix(0.5,0,0,0.5,0,0)">

<path d="M568 447 c-20 -8 -52 -27 -70 -42 -31 -26 -98 -111 -98 -125 0 -3 25 -17 55 -29 74 -31 164 -98 208 -155 l34 -45 6 58 c8 72 46 177 87 237 16 25 30 47 30 50 0 3 -25 16 -55 30 -67 31 -147 39 -197 21z" transform="translate(0,79.0) scale(0.1,-0.1)" stroke="none" fill="#696959"/>

<path d="M454 741 c-74 -34 -119 -101 -130 -195 -7 -54 -8 -55 -33 -49 -14 3 -34 10 -43 14 -9 5 -39 9 -67 9 -42 0 -56 -5 -86 -31 -32 -29 -35 -35 -35 -89 0 -31 5 -71 11 -87 l10 -30 112 4 c62 2 132 0 157 -4 l44 -8 36 52 c89 132 202 164 341 96 l56 -28 29 29 c34 33 166 122 194 131 27 9 27 88 1 131 -21 34 -75 64 -115 64 -41 0 -104 -37 -128 -74 -12 -19 -30 -39 -40 -45 -15 -9 -20 -6 -32 17 -50 96 -180 139 -282 93z" transform="translate(0,79.0) scale(0.1,-0.1)" stroke="none" fill="#A59E96"/>

<path d="M568 447 c-20 -8 -52 -27 -70 -42 -31 -26 -98 -111 -98 -125 0 -3 25 -17 55 -29 74 -31 164 -98 208 -155 l34 -45 6 58 c8 72 46 177 87 237 16 25 30 47 30 50 0 3 -25 16 -55 30 -67 31 -147 39 -197 21z" transform="translate(226.0,79.0) scale(-0.1,-0.1)" stroke="none" fill="#696959"/>

<path d="M454 741 c-74 -34 -119 -101 -130 -195 -7 -54 -8 -55 -33 -49 -14 3 -34 10 -43 14 -9 5 -39 9 -67 9 -42 0 -56 -5 -86 -31 -32 -29 -35 -35 -35 -89 0 -31 5 -71 11 -87 l10 -30 112 4 c62 2 132 0 157 -4 l44 -8 36 52 c89 132 202 164 341 96 l56 -28 29 29 c34 33 166 122 194 131 27 9 27 88 1 131 -21 34 -75 64 -115 64 -41 0 -104 -37 -128 -74 -12 -19 -30 -39 -40 -45 -15 -9 -20 -6 -32 17 -50 96 -180 139 -282 93z" transform="translate(226.0,79.0) scale(-0.1,-0.1)" stroke="none" fill="#A59E96"/>

<path d="M568 447 c-20 -8 -52 -27 -70 -42 -31 -26 -98 -111 -98 -125 0 -3 25 -17 55 -29 74 -31 164 -98 208 -155 l34 -45 6 58 c8 72 46 177 87 237 16 25 30 47 30 50 0 3 -25 16 -55 30 -67 31 -147 39 -197 21z" transform="translate(0,79.0) scale(0.1,0.1)" stroke="none" fill="#696959"/>

<path d="M454 741 c-74 -34 -119 -101 -130 -195 -7 -54 -8 -55 -33 -49 -14 3 -34 10 -43 14 -9 5 -39 9 -67 9 -42 0 -56 -5 -86 -31 -32 -29 -35 -35 -35 -89 0 -31 5 -71 11 -87 l10 -30 112 4 c62 2 132 0 157 -4 l44 -8 36 52 c89 132 202 164 341 96 l56 -28 29 29 c34 33 166 122 194 131 27 9 27 88 1 131 -21 34 -75 64 -115 64 -41 0 -104 -37 -128 -74 -12 -19 -30 -39 -40 -45 -15 -9 -20 -6 -32 17 -50 96 -180 139 -282 93z" transform="translate(0,79.0) scale(0.1,0.1)" stroke="none" fill="#A59E96"/>

<path d="M568 447 c-20 -8 -52 -27 -70 -42 -31 -26 -98 -111 -98 -125 0 -3 25 -17 55 -29 74 -31 164 -98 208 -155 l34 -45 6 58 c8 72 46 177 87 237 16 25 30 47 30 50 0 3 -25 16 -55 30 -67 31 -147 39 -197 21z" transform="translate(226.0,79.0) scale(-0.1,0.1)" stroke="none" fill="#696959"/>

<path d="M454 741 c-74 -34 -119 -101 -130 -195 -7 -54 -8 -55 -33 -49 -14 3 -34 10 -43 14 -9 5 -39 9 -67 9 -42 0 -56 -5 -86 -31 -32 -29 -35 -35 -35 -89 0 -31 5 -71 11 -87 l10 -30 112 4 c62 2 132 0 157 -4 l44 -8 36 52 c89 132 202 164 341 96 l56 -28 29 29 c34 33 166 122 194 131 27 9 27 88 1 131 -21 34 -75 64 -115 64 -41 0 -104 -37 -128 -74 -12 -19 -30 -39 -40 -45 -15 -9 -20 -6 -32 17 -50 96 -180 139 -282 93z" transform="translate(226.0,79.0) scale(-0.1,0.1)" stroke="none" fill="#A59E96"/>

</g>

</g>

<g id="1" transform="translate(113.0,0)scale(1,1)">

<g transform="matrix(0.5,0,0,0.5,0,0)">

<path d="M568 447 c-20 -8 -52 -27 -70 -42 -31 -26 -98 -111 -98 -125 0 -3 25 -17 55 -29 74 -31 164 -98 208 -155 l34 -45 6 58 c8 72 46 177 87 237 16 25 30 47 30 50 0 3 -25 16 -55 30 -67 31 -147 39 -197 21z" transform="translate(0,79.0) scale(0.1,-0.1)" stroke="none" fill="#696959"/>

<path d="M454 741 c-74 -34 -119 -101 -130 -195 -7 -54 -8 -55 -33 -49 -14 3 -34 10 -43 14 -9 5 -39 9 -67 9 -42 0 -56 -5 -86 -31 -32 -29 -35 -35 -35 -89 0 -31 5 -71 11 -87 l10 -30 112 4 c62 2 132 0 157 -4 l44 -8 36 52 c89 132 202 164 341 96 l56 -28 29 29 c34 33 166 122 194 131 27 9 27 88 1 131 -21 34 -75 64 -115 64 -41 0 -104 -37 -128 -74 -12 -19 -30 -39 -40 -45 -15 -9 -20 -6 -32 17 -50 96 -180 139 -282 93z" transform="translate(0,79.0) scale(0.1,-0.1)" stroke="none" fill="#A59E96"/>

<path d="M568 447 c-20 -8 -52 -27 -70 -42 -31 -26 -98 -111 -98 -125 0 -3 25 -17 55 -29 74 -31 164 -98 208 -155 l34 -45 6 58 c8 72 46 177 87 237 16 25 30 47 30 50 0 3 -25 16 -55 30 -67 31 -147 39 -197 21z" transform="translate(226.0,79.0) scale(-0.1,-0.1)" stroke="none" fill="#696959"/>

<path d="M454 741 c-74 -34 -119 -101 -130 -195 -7 -54 -8 -55 -33 -49 -14 3 -34 10 -43 14 -9 5 -39 9 -67 9 -42 0 -56 -5 -86 -31 -32 -29 -35 -35 -35 -89 0 -31 5 -71 11 -87 l10 -30 112 4 c62 2 132 0 157 -4 l44 -8 36 52 c89 132 202 164 341 96 l56 -28 29 29 c34 33 166 122 194 131 27 9 27 88 1 131 -21 34 -75 64 -115 64 -41 0 -104 -37 -128 -74 -12 -19 -30 -39 -40 -45 -15 -9 -20 -6 -32 17 -50 96 -180 139 -282 93z" transform="translate(226.0,79.0) scale(-0.1,-0.1)" stroke="none" fill="#A59E96"/>

<path d="M568 447 c-20 -8 -52 -27 -70 -42 -31 -26 -98 -111 -98 -125 0 -3 25 -17 55 -29 74 -31 164 -98 208 -155 l34 -45 6 58 c8 72 46 177 87 237 16 25 30 47 30 50 0 3 -25 16 -55 30 -67 31 -147 39 -197 21z" transform="translate(0,79.0) scale(0.1,0.1)" stroke="none" fill="#696959"/>

<path d="M454 741 c-74 -34 -119 -101 -130 -195 -7 -54 -8 -55 -33 -49 -14 3 -34 10 -43 14 -9 5 -39 9 -67 9 -42 0 -56 -5 -86 -31 -32 -29 -35 -35 -35 -89 0 -31 5 -71 11 -87 l10 -30 112 4 c62 2 132 0 157 -4 l44 -8 36 52 c89 132 202 164 341 96 l56 -28 29 29 c34 33 166 122 194 131 27 9 27 88 1 131 -21 34 -75 64 -115 64 -41 0 -104 -37 -128 -74 -12 -19 -30 -39 -40 -45 -15 -9 -20 -6 -32 17 -50 96 -180 139 -282 93z" transform="translate(0,79.0) scale(0.1,0.1)" stroke="none" fill="#A59E96"/>

<path d="M568 447 c-20 -8 -52 -27 -70 -42 -31 -26 -98 -111 -98 -125 0 -3 25 -17 55 -29 74 -31 164 -98 208 -155 l34 -45 6 58 c8 72 46 177 87 237 16 25 30 47 30 50 0 3 -25 16 -55 30 -67 31 -147 39 -197 21z" transform="translate(226.0,79.0) scale(-0.1,0.1)" stroke="none" fill="#696959"/>

<path d="M454 741 c-74 -34 -119 -101 -130 -195 -7 -54 -8 -55 -33 -49 -14 3 -34 10 -43 14 -9 5 -39 9 -67 9 -42 0 -56 -5 -86 -31 -32 -29 -35 -35 -35 -89 0 -31 5 -71 11 -87 l10 -30 112 4 c62 2 132 0 157 -4 l44 -8 36 52 c89 132 202 164 341 96 l56 -28 29 29 c34 33 166 122 194 131 27 9 27 88 1 131 -21 34 -75 64 -115 64 -41 0 -104 -37 -128 -74 -12 -19 -30 -39 -40 -45 -15 -9 -20 -6 -32 17 -50 96 -180 139 -282 93z" transform="translate(226.0,79.0) scale(-0.1,0.1)" stroke="none" fill="#A59E96"/>

</g>

</g>

<g id="2" transform="translate(226.0,0)scale(1,1)">

<g transform="matrix(0.5,0,0,0.5,0,0)">

<path d="M568 447 c-20 -8 -52 -27 -70 -42 -31 -26 -98 -111 -98 -125 0 -3 25 -17 55 -29 74 -31 164 -98 208 -155 l34 -45 6 58 c8 72 46 177 87 237 16 25 30 47 30 50 0 3 -25 16 -55 30 -67 31 -147 39 -197 21z" transform="translate(0,79.0) scale(0.1,-0.1)" stroke="none" fill="#696959"/>

<path d="M454 741 c-74 -34 -119 -101 -130 -195 -7 -54 -8 -55 -33 -49 -14 3 -34 10 -43 14 -9 5 -39 9 -67 9 -42 0 -56 -5 -86 -31 -32 -29 -35 -35 -35 -89 0 -31 5 -71 11 -87 l10 -30 112 4 c62 2 132 0 157 -4 l44 -8 36 52 c89 132 202 164 341 96 l56 -28 29 29 c34 33 166 122 194 131 27 9 27 88 1 131 -21 34 -75 64 -115 64 -41 0 -104 -37 -128 -74 -12 -19 -30 -39 -40 -45 -15 -9 -20 -6 -32 17 -50 96 -180 139 -282 93z" transform="translate(0,79.0) scale(0.1,-0.1)" stroke="none" fill="#A59E96"/>

<path d="M568 447 c-20 -8 -52 -27 -70 -42 -31 -26 -98 -111 -98 -125 0 -3 25 -17 55 -29 74 -31 164 -98 208 -155 l34 -45 6 58 c8 72 46 177 87 237 16 25 30 47 30 50 0 3 -25 16 -55 30 -67 31 -147 39 -197 21z" transform="translate(226.0,79.0) scale(-0.1,-0.1)" stroke="none" fill="#696959"/>

<path d="M454 741 c-74 -34 -119 -101 -130 -195 -7 -54 -8 -55 -33 -49 -14 3 -34 10 -43 14 -9 5 -39 9 -67 9 -42 0 -56 -5 -86 -31 -32 -29 -35 -35 -35 -89 0 -31 5 -71 11 -87 l10 -30 112 4 c62 2 132 0 157 -4 l44 -8 36 52 c89 132 202 164 341 96 l56 -28 29 29 c34 33 166 122 194 131 27 9 27 88 1 131 -21 34 -75 64 -115 64 -41 0 -104 -37 -128 -74 -12 -19 -30 -39 -40 -45 -15 -9 -20 -6 -32 17 -50 96 -180 139 -282 93z" transform="translate(226.0,79.0) scale(-0.1,-0.1)" stroke="none" fill="#A59E96"/>

<path d="M568 447 c-20 -8 -52 -27 -70 -42 -31 -26 -98 -111 -98 -125 0 -3 25 -17 55 -29 74 -31 164 -98 208 -155 l34 -45 6 58 c8 72 46 177 87 237 16 25 30 47 30 50 0 3 -25 16 -55 30 -67 31 -147 39 -197 21z" transform="translate(0,79.0) scale(0.1,0.1)" stroke="none" fill="#696959"/>

<path d="M454 741 c-74 -34 -119 -101 -130 -195 -7 -54 -8 -55 -33 -49 -14 3 -34 10 -43 14 -9 5 -39 9 -67 9 -42 0 -56 -5 -86 -31 -32 -29 -35 -35 -35 -89 0 -31 5 -71 11 -87 l10 -30 112 4 c62 2 132 0 157 -4 l44 -8 36 52 c89 132 202 164 341 96 l56 -28 29 29 c34 33 166 122 194 131 27 9 27 88 1 131 -21 34 -75 64 -115 64 -41 0 -104 -37 -128 -74 -12 -19 -30 -39 -40 -45 -15 -9 -20 -6 -32 17 -50 96 -180 139 -282 93z" transform="translate(0,79.0) scale(0.1,0.1)" stroke="none" fill="#A59E96"/>

<path d="M568 447 c-20 -8 -52 -27 -70 -42 -31 -26 -98 -111 -98 -125 0 -3 25 -17 55 -29 74 -31 164 -98 208 -155 l34 -45 6 58 c8 72 46 177 87 237 16 25 30 47 30 50 0 3 -25 16 -55 30 -67 31 -147 39 -197 21z" transform="translate(226.0,79.0) scale(-0.1,0.1)" stroke="none" fill="#696959"/>

<path d="M454 741 c-74 -34 -119 -101 -130 -195 -7 -54 -8 -55 -33 -49 -14 3 -34 10 -43 14 -9 5 -39 9 -67 9 -42 0 -56 -5 -86 -31 -32 -29 -35 -35 -35 -89 0 -31 5 -71 11 -87 l10 -30 112 4 c62 2 132 0 157 -4 l44 -8 36 52 c89 132 202 164 341 96 l56 -28 29 29 c34 33 166 122 194 131 27 9 27 88 1 131 -21 34 -75 64 -115 64 -41 0 -104 -37 -128 -74 -12 -19 -30 -39 -40 -45 -15 -9 -20 -6 -32 17 -50 96 -180 139 -282 93z" transform="translate(226.0,79.0) scale(-0.1,0.1)" stroke="none" fill="#A59E96"/>

</g>

</g>

<g id="3" transform="translate(339.0,0)scale(1,1)">

<g transform="matrix(0.5,0,0,0.5,0,0)">

<path d="M568 447 c-20 -8 -52 -27 -70 -42 -31 -26 -98 -111 -98 -125 0 -3 25 -17 55 -29 74 -31 164 -98 208 -155 l34 -45 6 58 c8 72 46 177 87 237 16 25 30 47 30 50 0 3 -25 16 -55 30 -67 31 -147 39 -197 21z" transform="translate(0,79.0) scale(0.1,-0.1)" stroke="none" fill="#696959"/>

<path d="M454 741 c-74 -34 -119 -101 -130 -195 -7 -54 -8 -55 -33 -49 -14 3 -34 10 -43 14 -9 5 -39 9 -67 9 -42 0 -56 -5 -86 -31 -32 -29 -35 -35 -35 -89 0 -31 5 -71 11 -87 l10 -30 112 4 c62 2 132 0 157 -4 l44 -8 36 52 c89 132 202 164 341 96 l56 -28 29 29 c34 33 166 122 194 131 27 9 27 88 1 131 -21 34 -75 64 -115 64 -41 0 -104 -37 -128 -74 -12 -19 -30 -39 -40 -45 -15 -9 -20 -6 -32 17 -50 96 -180 139 -282 93z" transform="translate(0,79.0) scale(0.1,-0.1)" stroke="none" fill="#A59E96"/>

<path d="M568 447 c-20 -8 -52 -27 -70 -42 -31 -26 -98 -111 -98 -125 0 -3 25 -17 55 -29 74 -31 164 -98 208 -155 l34 -45 6 58 c8 72 46 177 87 237 16 25 30 47 30 50 0 3 -25 16 -55 30 -67 31 -147 39 -197 21z" transform="translate(226.0,79.0) scale(-0.1,-0.1)" stroke="none" fill="#696959"/>

<path d="M454 741 c-74 -34 -119 -101 -130 -195 -7 -54 -8 -55 -33 -49 -14 3 -34 10 -43 14 -9 5 -39 9 -67 9 -42 0 -56 -5 -86 -31 -32 -29 -35 -35 -35 -89 0 -31 5 -71 11 -87 l10 -30 112 4 c62 2 132 0 157 -4 l44 -8 36 52 c89 132 202 164 341 96 l56 -28 29 29 c34 33 166 122 194 131 27 9 27 88 1 131 -21 34 -75 64 -115 64 -41 0 -104 -37 -128 -74 -12 -19 -30 -39 -40 -45 -15 -9 -20 -6 -32 17 -50 96 -180 139 -282 93z" transform="translate(226.0,79.0) scale(-0.1,-0.1)" stroke="none" fill="#A59E96"/>

<path d="M568 447 c-20 -8 -52 -27 -70 -42 -31 -26 -98 -111 -98 -125 0 -3 25 -17 55 -29 74 -31 164 -98 208 -155 l34 -45 6 58 c8 72 46 177 87 237 16 25 30 47 30 50 0 3 -25 16 -55 30 -67 31 -147 39 -197 21z" transform="translate(0,79.0) scale(0.1,0.1)" stroke="none" fill="#696959"/>

<path d="M454 741 c-74 -34 -119 -101 -130 -195 -7 -54 -8 -55 -33 -49 -14 3 -34 10 -43 14 -9 5 -39 9 -67 9 -42 0 -56 -5 -86 -31 -32 -29 -35 -35 -35 -89 0 -31 5 -71 11 -87 l10 -30 112 4 c62 2 132 0 157 -4 l44 -8 36 52 c89 132 202 164 341 96 l56 -28 29 29 c34 33 166 122 194 131 27 9 27 88 1 131 -21 34 -75 64 -115 64 -41 0 -104 -37 -128 -74 -12 -19 -30 -39 -40 -45 -15 -9 -20 -6 -32 17 -50 96 -180 139 -282 93z" transform="translate(0,79.0) scale(0.1,0.1)" stroke="none" fill="#A59E96"/>

<path d="M568 447 c-20 -8 -52 -27 -70 -42 -31 -26 -98 -111 -98 -125 0 -3 25 -17 55 -29 74 -31 164 -98 208 -155 l34 -45 6 58 c8 72 46 177 87 237 16 25 30 47 30 50 0 3 -25 16 -55 30 -67 31 -147 39 -197 21z" transform="translate(226.0,79.0) scale(-0.1,0.1)" stroke="none" fill="#696959"/>

<path d="M454 741 c-74 -34 -119 -101 -130 -195 -7 -54 -8 -55 -33 -49 -14 3 -34 10 -43 14 -9 5 -39 9 -67 9 -42 0 -56 -5 -86 -31 -32 -29 -35 -35 -35 -89 0 -31 5 -71 11 -87 l10 -30 112 4 c62 2 132 0 157 -4 l44 -8 36 52 c89 132 202 164 341 96 l56 -28 29 29 c34 33 166 122 194 131 27 9 27 88 1 131 -21 34 -75 64 -115 64 -41 0 -104 -37 -128 -74 -12 -19 -30 -39 -40 -45 -15 -9 -20 -6 -32 17 -50 96 -180 139 -282 93z" transform="translate(226.0,79.0) scale(-0.1,0.1)" stroke="none" fill="#A59E96"/>

</g>

</g>

<g id="4" transform="translate(452.0,0)scale(1,1)">

<g transform="matrix(0.5,0,0,0.5,0,0)">

<path d="M568 447 c-20 -8 -52 -27 -70 -42 -31 -26 -98 -111 -98 -125 0 -3 25 -17 55 -29 74 -31 164 -98 208 -155 l34 -45 6 58 c8 72 46 177 87 237 16 25 30 47 30 50 0 3 -25 16 -55 30 -67 31 -147 39 -197 21z" transform="translate(0,79.0) scale(0.1,-0.1)" stroke="none" fill="#696959"/>

<path d="M454 741 c-74 -34 -119 -101 -130 -195 -7 -54 -8 -55 -33 -49 -14 3 -34 10 -43 14 -9 5 -39 9 -67 9 -42 0 -56 -5 -86 -31 -32 -29 -35 -35 -35 -89 0 -31 5 -71 11 -87 l10 -30 112 4 c62 2 132 0 157 -4 l44 -8 36 52 c89 132 202 164 341 96 l56 -28 29 29 c34 33 166 122 194 131 27 9 27 88 1 131 -21 34 -75 64 -115 64 -41 0 -104 -37 -128 -74 -12 -19 -30 -39 -40 -45 -15 -9 -20 -6 -32 17 -50 96 -180 139 -282 93z" transform="translate(0,79.0) scale(0.1,-0.1)" stroke="none" fill="#A59E96"/>

<path d="M568 447 c-20 -8 -52 -27 -70 -42 -31 -26 -98 -111 -98 -125 0 -3 25 -17 55 -29 74 -31 164 -98 208 -155 l34 -45 6 58 c8 72 46 177 87 237 16 25 30 47 30 50 0 3 -25 16 -55 30 -67 31 -147 39 -197 21z" transform="translate(226.0,79.0) scale(-0.1,-0.1)" stroke="none" fill="#696959"/>

<path d="M454 741 c-74 -34 -119 -101 -130 -195 -7 -54 -8 -55 -33 -49 -14 3 -34 10 -43 14 -9 5 -39 9 -67 9 -42 0 -56 -5 -86 -31 -32 -29 -35 -35 -35 -89 0 -31 5 -71 11 -87 l10 -30 112 4 c62 2 132 0 157 -4 l44 -8 36 52 c89 132 202 164 341 96 l56 -28 29 29 c34 33 166 122 194 131 27 9 27 88 1 131 -21 34 -75 64 -115 64 -41 0 -104 -37 -128 -74 -12 -19 -30 -39 -40 -45 -15 -9 -20 -6 -32 17 -50 96 -180 139 -282 93z" transform="translate(226.0,79.0) scale(-0.1,-0.1)" stroke="none" fill="#A59E96"/>

<path d="M568 447 c-20 -8 -52 -27 -70 -42 -31 -26 -98 -111 -98 -125 0 -3 25 -17 55 -29 74 -31 164 -98 208 -155 l34 -45 6 58 c8 72 46 177 87 237 16 25 30 47 30 50 0 3 -25 16 -55 30 -67 31 -147 39 -197 21z" transform="translate(0,79.0) scale(0.1,0.1)" stroke="none" fill="#696959"/>

<path d="M454 741 c-74 -34 -119 -101 -130 -195 -7 -54 -8 -55 -33 -49 -14 3 -34 10 -43 14 -9 5 -39 9 -67 9 -42 0 -56 -5 -86 -31 -32 -29 -35 -35 -35 -89 0 -31 5 -71 11 -87 l10 -30 112 4 c62 2 132 0 157 -4 l44 -8 36 52 c89 132 202 164 341 96 l56 -28 29 29 c34 33 166 122 194 131 27 9 27 88 1 131 -21 34 -75 64 -115 64 -41 0 -104 -37 -128 -74 -12 -19 -30 -39 -40 -45 -15 -9 -20 -6 -32 17 -50 96 -180 139 -282 93z" transform="translate(0,79.0) scale(0.1,0.1)" stroke="none" fill="#A59E96"/>

<path d="M568 447 c-20 -8 -52 -27 -70 -42 -31 -26 -98 -111 -98 -125 0 -3 25 -17 55 -29 74 -31 164 -98 208 -155 l34 -45 6 58 c8 72 46 177 87 237 16 25 30 47 30 50 0 3 -25 16 -55 30 -67 31 -147 39 -197 21z" transform="translate(226.0,79.0) scale(-0.1,0.1)" stroke="none" fill="#696959"/>

<path d="M454 741 c-74 -34 -119 -101 -130 -195 -7 -54 -8 -55 -33 -49 -14 3 -34 10 -43 14 -9 5 -39 9 -67 9 -42 0 -56 -5 -86 -31 -32 -29 -35 -35 -35 -89 0 -31 5 -71 11 -87 l10 -30 112 4 c62 2 132 0 157 -4 l44 -8 36 52 c89 132 202 164 341 96 l56 -28 29 29 c34 33 166 122 194 131 27 9 27 88 1 131 -21 34 -75 64 -115 64 -41 0 -104 -37 -128 -74 -12 -19 -30 -39 -40 -45 -15 -9 -20 -6 -32 17 -50 96 -180 139 -282 93z" transform="translate(226.0,79.0) scale(-0.1,0.1)" stroke="none" fill="#A59E96"/>

</g>

</g>

</g>
<g id="row2" transform="translate(15,158.0)">
<g id="0" transform="translate(0.0,0)scale(1,1)">

<g transform="matrix(0.5,0,0,0.5,0,0)">

<path d="M568 447 c-20 -8 -52 -27 -70 -42 -31 -26 -98 -111 -98 -125 0 -3 25 -17 55 -29 74 -31 164 -98 208 -155 l34 -45 6 58 c8 72 46 177 87 237 16 25 30 47 30 50 0 3 -25 16 -55 30 -67 31 -147 39 -197 21z" transform="translate(0,79.0) scale(0.1,-0.1)" stroke="none" fill="#696959"/>

<path d="M454 741 c-74 -34 -119 -101 -130 -195 -7 -54 -8 -55 -33 -49 -14 3 -34 10 -43 14 -9 5 -39 9 -67 9 -42 0 -56 -5 -86 -31 -32 -29 -35 -35 -35 -89 0 -31 5 -71 11 -87 l10 -30 112 4 c62 2 132 0 157 -4 l44 -8 36 52 c89 132 202 164 341 96 l56 -28 29 29 c34 33 166 122 194 131 27 9 27 88 1 131 -21 34 -75 64 -115 64 -41 0 -104 -37 -128 -74 -12 -19 -30 -39 -40 -45 -15 -9 -20 -6 -32 17 -50 96 -180 139 -282 93z" transform="translate(0,79.0) scale(0.1,-0.1)" stroke="none" fill="#A59E96"/>

<path d="M568 447 c-20 -8 -52 -27 -70 -42 -31 -26 -98 -111 -98 -125 0 -3 25 -17 55 -29 74 -31 164 -98 208 -155 l34 -45 6 58 c8 72 46 177 87 237 16 25 30 47 30 50 0 3 -25 16 -55 30 -67 31 -147 39 -197 21z" transform="translate(226.0,79.0) scale(-0.1,-0.1)" stroke="none" fill="#696959"/>

<path d="M454 741 c-74 -34 -119 -101 -130 -195 -7 -54 -8 -55 -33 -49 -14 3 -34 10 -43 14 -9 5 -39 9 -67 9 -42 0 -56 -5 -86 -31 -32 -29 -35 -35 -35 -89 0 -31 5 -71 11 -87 l10 -30 112 4 c62 2 132 0 157 -4 l44 -8 36 52 c89 132 202 164 341 96 l56 -28 29 29 c34 33 166 122 194 131 27 9 27 88 1 131 -21 34 -75 64 -115 64 -41 0 -104 -37 -128 -74 -12 -19 -30 -39 -40 -45 -15 -9 -20 -6 -32 17 -50 96 -180 139 -282 93z" transform="translate(226.0,79.0) scale(-0.1,-0.1)" stroke="none" fill="#A59E96"/>

<path d="M568 447 c-20 -8 -52 -27 -70 -42 -31 -26 -98 -111 -98 -125 0 -3 25 -17 55 -29 74 -31 164 -98 208 -155 l34 -45 6 58 c8 72 46 177 87 237 16 25 30 47 30 50 0 3 -25 16 -55 30 -67 31 -147 39 -197 21z" transform="translate(0,79.0) scale(0.1,0.1)" stroke="none" fill="#696959"/>

<path d="M454 741 c-74 -34 -119 -101 -130 -195 -7 -54 -8 -55 -33 -49 -14 3 -34 10 -43 14 -9 5 -39 9 -67 9 -42 0 -56 -5 -86 -31 -32 -29 -35 -35 -35 -89 0 -31 5 -71 11 -87 l10 -30 112 4 c62 2 132 0 157 -4 l44 -8 36 52 c89 132 202 164 341 96 l56 -28 29 29 c34 33 166 122 194 131 27 9 27 88 1 131 -21 34 -75 64 -115 64 -41 0 -104 -37 -128 -74 -12 -19 -30 -39 -40 -45 -15 -9 -20 -6 -32 17 -50 96 -180 139 -282 93z" transform="translate(0,79.0) scale(0.1,0.1)" stroke="none" fill="#A59E96"/>

<path d="M568 447 c-20 -8 -52 -27 -70 -42 -31 -26 -98 -111 -98 -125 0 -3 25 -17 55 -29 74 -31 164 -98 208 -155 l34 -45 6 58 c8 72 46 177 87 237 16 25 30 47 30 50 0 3 -25 16 -55 30 -67 31 -147 39 -197 21z" transform="translate(226.0,79.0) scale(-0.1,0.1)" stroke="none" fill="#696959"/>

<path d="M454 741 c-74 -34 -119 -101 -130 -195 -7 -54 -8 -55 -33 -49 -14 3 -34 10 -43 14 -9 5 -39 9 -67 9 -42 0 -56 -5 -86 -31 -32 -29 -35 -35 -35 -89 0 -31 5 -71 11 -87 l10 -30 112 4 c62 2 132 0 157 -4 l44 -8 36 52 c89 132 202 164 341 96 l56 -28 29 29 c34 33 166 122 194 131 27 9 27 88 1 131 -21 34 -75 64 -115 64 -41 0 -104 -37 -128 -74 -12 -19 -30 -39 -40 -45 -15 -9 -20 -6 -32 17 -50 96 -180 139 -282 93z" transform="translate(226.0,79.0) scale(-0.1,0.1)" stroke="none" fill="#A59E96"/>

</g>

</g>

<g id="1" transform="translate(113.0,0)scale(1,1)">

<g transform="matrix(0.5,0,0,0.5,0,0)">

<path d="M568 447 c-20 -8 -52 -27 -70 -42 -31 -26 -98 -111 -98 -125 0 -3 25 -17 55 -29 74 -31 164 -98 208 -155 l34 -45 6 58 c8 72 46 177 87 237 16 25 30 47 30 50 0 3 -25 16 -55 30 -67 31 -147 39 -197 21z" transform="translate(0,79.0) scale(0.1,-0.1)" stroke="none" fill="#696959"/>

<path d="M454 741 c-74 -34 -119 -101 -130 -195 -7 -54 -8 -55 -33 -49 -14 3 -34 10 -43 14 -9 5 -39 9 -67 9 -42 0 -56 -5 -86 -31 -32 -29 -35 -35 -35 -89 0 -31 5 -71 11 -87 l10 -30 112 4 c62 2 132 0 157 -4 l44 -8 36 52 c89 132 202 164 341 96 l56 -28 29 29 c34 33 166 122 194 131 27 9 27 88 1 131 -21 34 -75 64 -115 64 -41 0 -104 -37 -128 -74 -12 -19 -30 -39 -40 -45 -15 -9 -20 -6 -32 17 -50 96 -180 139 -282 93z" transform="translate(0,79.0) scale(0.1,-0.1)" stroke="none" fill="#A59E96"/>

<path d="M568 447 c-20 -8 -52 -27 -70 -42 -31 -26 -98 -111 -98 -125 0 -3 25 -17 55 -29 74 -31 164 -98 208 -155 l34 -45 6 58 c8 72 46 177 87 237 16 25 30 47 30 50 0 3 -25 16 -55 30 -67 31 -147 39 -197 21z" transform="translate(226.0,79.0) scale(-0.1,-0.1)" stroke="none" fill="#696959"/>

<path d="M454 741 c-74 -34 -119 -101 -130 -195 -7 -54 -8 -55 -33 -49 -14 3 -34 10 -43 14 -9 5 -39 9 -67 9 -42 0 -56 -5 -86 -31 -32 -29 -35 -35 -35 -89 0 -31 5 -71 11 -87 l10 -30 112 4 c62 2 132 0 157 -4 l44 -8 36 52 c89 132 202 164 341 96 l56 -28 29 29 c34 33 166 122 194 131 27 9 27 88 1 131 -21 34 -75 64 -115 64 -41 0 -104 -37 -128 -74 -12 -19 -30 -39 -40 -45 -15 -9 -20 -6 -32 17 -50 96 -180 139 -282 93z" transform="translate(226.0,79.0) scale(-0.1,-0.1)" stroke="none" fill="#A59E96"/>

<path d="M568 447 c-20 -8 -52 -27 -70 -42 -31 -26 -98 -111 -98 -125 0 -3 25 -17 55 -29 74 -31 164 -98 208 -155 l34 -45 6 58 c8 72 46 177 87 237 16 25 30 47 30 50 0 3 -25 16 -55 30 -67 31 -147 39 -197 21z" transform="translate(0,79.0) scale(0.1,0.1)" stroke="none" fill="#696959"/>

<path d="M454 741 c-74 -34 -119 -101 -130 -195 -7 -54 -8 -55 -33 -49 -14 3 -34 10 -43 14 -9 5 -39 9 -67 9 -42 0 -56 -5 -86 -31 -32 -29 -35 -35 -35 -89 0 -31 5 -71 11 -87 l10 -30 112 4 c62 2 132 0 157 -4 l44 -8 36 52 c89 132 202 164 341 96 l56 -28 29 29 c34 33 166 122 194 131 27 9 27 88 1 131 -21 34 -75 64 -115 64 -41 0 -104 -37 -128 -74 -12 -19 -30 -39 -40 -45 -15 -9 -20 -6 -32 17 -50 96 -180 139 -282 93z" transform="translate(0,79.0) scale(0.1,0.1)" stroke="none" fill="#A59E96"/>

<path d="M568 447 c-20 -8 -52 -27 -70 -42 -31 -26 -98 -111 -98 -125 0 -3 25 -17 55 -29 74 -31 164 -98 208 -155 l34 -45 6 58 c8 72 46 177 87 237 16 25 30 47 30 50 0 3 -25 16 -55 30 -67 31 -147 39 -197 21z" transform="translate(226.0,79.0) scale(-0.1,0.1)" stroke="none" fill="#696959"/>

<path d="M454 741 c-74 -34 -119 -101 -130 -195 -7 -54 -8 -55 -33 -49 -14 3 -34 10 -43 14 -9 5 -39 9 -67 9 -42 0 -56 -5 -86 -31 -32 -29 -35 -35 -35 -89 0 -31 5 -71 11 -87 l10 -30 112 4 c62 2 132 0 157 -4 l44 -8 36 52 c89 132 202 164 341 96 l56 -28 29 29 c34 33 166 122 194 131 27 9 27 88 1 131 -21 34 -75 64 -115 64 -41 0 -104 -37 -128 -74 -12 -19 -30 -39 -40 -45 -15 -9 -20 -6 -32 17 -50 96 -180 139 -282 93z" transform="translate(226.0,79.0) scale(-0.1,0.1)" stroke="none" fill="#A59E96"/>

</g>

</g>

<g id="2" transform="translate(226.0,0)scale(1,1)">

<g transform="matrix(0.5,0,0,0.5,0,0)">

<path d="M568 447 c-20 -8 -52 -27 -70 -42 -31 -26 -98 -111 -98 -125 0 -3 25 -17 55 -29 74 -31 164 -98 208 -155 l34 -45 6 58 c8 72 46 177 87 237 16 25 30 47 30 50 0 3 -25 16 -55 30 -67 31 -147 39 -197 21z" transform="translate(0,79.0) scale(0.1,-0.1)" stroke="none" fill="#696959"/>

<path d="M454 741 c-74 -34 -119 -101 -130 -195 -7 -54 -8 -55 -33 -49 -14 3 -34 10 -43 14 -9 5 -39 9 -67 9 -42 0 -56 -5 -86 -31 -32 -29 -35 -35 -35 -89 0 -31 5 -71 11 -87 l10 -30 112 4 c62 2 132 0 157 -4 l44 -8 36 52 c89 132 202 164 341 96 l56 -28 29 29 c34 33 166 122 194 131 27 9 27 88 1 131 -21 34 -75 64 -115 64 -41 0 -104 -37 -128 -74 -12 -19 -30 -39 -40 -45 -15 -9 -20 -6 -32 17 -50 96 -180 139 -282 93z" transform="translate(0,79.0) scale(0.1,-0.1)" stroke="none" fill="#A59E96"/>

<path d="M568 447 c-20 -8 -52 -27 -70 -42 -31 -26 -98 -111 -98 -125 0 -3 25 -17 55 -29 74 -31 164 -98 208 -155 l34 -45 6 58 c8 72 46 177 87 237 16 25 30 47 30 50 0 3 -25 16 -55 30 -67 31 -147 39 -197 21z" transform="translate(226.0,79.0) scale(-0.1,-0.1)" stroke="none" fill="#696959"/>

<path d="M454 741 c-74 -34 -119 -101 -130 -195 -7 -54 -8 -55 -33 -49 -14 3 -34 10 -43 14 -9 5 -39 9 -67 9 -42 0 -56 -5 -86 -31 -32 -29 -35 -35 -35 -89 0 -31 5 -71 11 -87 l10 -30 112 4 c62 2 132 0 157 -4 l44 -8 36 52 c89 132 202 164 341 96 l56 -28 29 29 c34 33 166 122 194 131 27 9 27 88 1 131 -21 34 -75 64 -115 64 -41 0 -104 -37 -128 -74 -12 -19 -30 -39 -40 -45 -15 -9 -20 -6 -32 17 -50 96 -180 139 -282 93z" transform="translate(226.0,79.0) scale(-0.1,-0.1)" stroke="none" fill="#A59E96"/>

<path d="M568 447 c-20 -8 -52 -27 -70 -42 -31 -26 -98 -111 -98 -125 0 -3 25 -17 55 -29 74 -31 164 -98 208 -155 l34 -45 6 58 c8 72 46 177 87 237 16 25 30 47 30 50 0 3 -25 16 -55 30 -67 31 -147 39 -197 21z" transform="translate(0,79.0) scale(0.1,0.1)" stroke="none" fill="#696959"/>

<path d="M454 741 c-74 -34 -119 -101 -130 -195 -7 -54 -8 -55 -33 -49 -14 3 -34 10 -43 14 -9 5 -39 9 -67 9 -42 0 -56 -5 -86 -31 -32 -29 -35 -35 -35 -89 0 -31 5 -71 11 -87 l10 -30 112 4 c62 2 132 0 157 -4 l44 -8 36 52 c89 132 202 164 341 96 l56 -28 29 29 c34 33 166 122 194 131 27 9 27 88 1 131 -21 34 -75 64 -115 64 -41 0 -104 -37 -128 -74 -12 -19 -30 -39 -40 -45 -15 -9 -20 -6 -32 17 -50 96 -180 139 -282 93z" transform="translate(0,79.0) scale(0.1,0.1)" stroke="none" fill="#A59E96"/>

<path d="M568 447 c-20 -8 -52 -27 -70 -42 -31 -26 -98 -111 -98 -125 0 -3 25 -17 55 -29 74 -31 164 -98 208 -155 l34 -45 6 58 c8 72 46 177 87 237 16 25 30 47 30 50 0 3 -25 16 -55 30 -67 31 -147 39 -197 21z" transform="translate(226.0,79.0) scale(-0.1,0.1)" stroke="none" fill="#696959"/>

<path d="M454 741 c-74 -34 -119 -101 -130 -195 -7 -54 -8 -55 -33 -49 -14 3 -34 10 -43 14 -9 5 -39 9 -67 9 -42 0 -56 -5 -86 -31 -32 -29 -35 -35 -35 -89 0 -31 5 -71 11 -87 l10 -30 112 4 c62 2 132 0 157 -4 l44 -8 36 52 c89 132 202 164 341 96 l56 -28 29 29 c34 33 166 122 194 131 27 9 27 88 1 131 -21 34 -75 64 -115 64 -41 0 -104 -37 -128 -74 -12 -19 -30 -39 -40 -45 -15 -9 -20 -6 -32 17 -50 96 -180 139 -282 93z" transform="translate(226.0,79.0) scale(-0.1,0.1)" stroke="none" fill="#A59E96"/>

</g>

</g>

<g id="3" transform="translate(339.0,0)scale(1,1)">

<g transform="matrix(0.5,0,0,0.5,0,0)">

<path d="M568 447 c-20 -8 -52 -27 -70 -42 -31 -26 -98 -111 -98 -125 0 -3 25 -17 55 -29 74 -31 164 -98 208 -155 l34 -45 6 58 c8 72 46 177 87 237 16 25 30 47 30 50 0 3 -25 16 -55 30 -67 31 -147 39 -197 21z" transform="translate(0,79.0) scale(0.1,-0.1)" stroke="none" fill="#696959"/>

<path d="M454 741 c-74 -34 -119 -101 -130 -195 -7 -54 -8 -55 -33 -49 -14 3 -34 10 -43 14 -9 5 -39 9 -67 9 -42 0 -56 -5 -86 -31 -32 -29 -35 -35 -35 -89 0 -31 5 -71 11 -87 l10 -30 112 4 c62 2 132 0 157 -4 l44 -8 36 52 c89 132 202 164 341 96 l56 -28 29 29 c34 33 166 122 194 131 27 9 27 88 1 131 -21 34 -75 64 -115 64 -41 0 -104 -37 -128 -74 -12 -19 -30 -39 -40 -45 -15 -9 -20 -6 -32 17 -50 96 -180 139 -282 93z" transform="translate(0,79.0) scale(0.1,-0.1)" stroke="none" fill="#A59E96"/>

<path d="M568 447 c-20 -8 -52 -27 -70 -42 -31 -26 -98 -111 -98 -125 0 -3 25 -17 55 -29 74 -31 164 -98 208 -155 l34 -45 6 58 c8 72 46 177 87 237 16 25 30 47 30 50 0 3 -25 16 -55 30 -67 31 -147 39 -197 21z" transform="translate(226.0,79.0) scale(-0.1,-0.1)" stroke="none" fill="#696959"/>

<path d="M454 741 c-74 -34 -119 -101 -130 -195 -7 -54 -8 -55 -33 -49 -14 3 -34 10 -43 14 -9 5 -39 9 -67 9 -42 0 -56 -5 -86 -31 -32 -29 -35 -35 -35 -89 0 -31 5 -71 11 -87 l10 -30 112 4 c62 2 132 0 157 -4 l44 -8 36 52 c89 132 202 164 341 96 l56 -28 29 29 c34 33 166 122 194 131 27 9 27 88 1 131 -21 34 -75 64 -115 64 -41 0 -104 -37 -128 -74 -12 -19 -30 -39 -40 -45 -15 -9 -20 -6 -32 17 -50 96 -180 139 -282 93z" transform="translate(226.0,79.0) scale(-0.1,-0.1)" stroke="none" fill="#A59E96"/>

<path d="M568 447 c-20 -8 -52 -27 -70 -42 -31 -26 -98 -111 -98 -125 0 -3 25 -17 55 -29 74 -31 164 -98 208 -155 l34 -45 6 58 c8 72 46 177 87 237 16 25 30 47 30 50 0 3 -25 16 -55 30 -67 31 -147 39 -197 21z" transform="translate(0,79.0) scale(0.1,0.1)" stroke="none" fill="#696959"/>

<path d="M454 741 c-74 -34 -119 -101 -130 -195 -7 -54 -8 -55 -33 -49 -14 3 -34 10 -43 14 -9 5 -39 9 -67 9 -42 0 -56 -5 -86 -31 -32 -29 -35 -35 -35 -89 0 -31 5 -71 11 -87 l10 -30 112 4 c62 2 132 0 157 -4 l44 -8 36 52 c89 132 202 164 341 96 l56 -28 29 29 c34 33 166 122 194 131 27 9 27 88 1 131 -21 34 -75 64 -115 64 -41 0 -104 -37 -128 -74 -12 -19 -30 -39 -40 -45 -15 -9 -20 -6 -32 17 -50 96 -180 139 -282 93z" transform="translate(0,79.0) scale(0.1,0.1)" stroke="none" fill="#A59E96"/>

<path d="M568 447 c-20 -8 -52 -27 -70 -42 -31 -26 -98 -111 -98 -125 0 -3 25 -17 55 -29 74 -31 164 -98 208 -155 l34 -45 6 58 c8 72 46 177 87 237 16 25 30 47 30 50 0 3 -25 16 -55 30 -67 31 -147 39 -197 21z" transform="translate(226.0,79.0) scale(-0.1,0.1)" stroke="none" fill="#696959"/>

<path d="M454 741 c-74 -34 -119 -101 -130 -195 -7 -54 -8 -55 -33 -49 -14 3 -34 10 -43 14 -9 5 -39 9 -67 9 -42 0 -56 -5 -86 -31 -32 -29 -35 -35 -35 -89 0 -31 5 -71 11 -87 l10 -30 112 4 c62 2 132 0 157 -4 l44 -8 36 52 c89 132 202 164 341 96 l56 -28 29 29 c34 33 166 122 194 131 27 9 27 88 1 131 -21 34 -75 64 -115 64 -41 0 -104 -37 -128 -74 -12 -19 -30 -39 -40 -45 -15 -9 -20 -6 -32 17 -50 96 -180 139 -282 93z" transform="translate(226.0,79.0) scale(-0.1,0.1)" stroke="none" fill="#A59E96"/>

</g>

</g>

<g id="4" transform="translate(452.0,0)scale(1,1)">

<g transform="matrix(0.5,0,0,0.5,0,0)">

<path d="M568 447 c-20 -8 -52 -27 -70 -42 -31 -26 -98 -111 -98 -125 0 -3 25 -17 55 -29 74 -31 164 -98 208 -155 l34 -45 6 58 c8 72 46 177 87 237 16 25 30 47 30 50 0 3 -25 16 -55 30 -67 31 -147 39 -197 21z" transform="translate(0,79.0) scale(0.1,-0.1)" stroke="none" fill="#696959"/>

<path d="M454 741 c-74 -34 -119 -101 -130 -195 -7 -54 -8 -55 -33 -49 -14 3 -34 10 -43 14 -9 5 -39 9 -67 9 -42 0 -56 -5 -86 -31 -32 -29 -35 -35 -35 -89 0 -31 5 -71 11 -87 l10 -30 112 4 c62 2 132 0 157 -4 l44 -8 36 52 c89 132 202 164 341 96 l56 -28 29 29 c34 33 166 122 194 131 27 9 27 88 1 131 -21 34 -75 64 -115 64 -41 0 -104 -37 -128 -74 -12 -19 -30 -39 -40 -45 -15 -9 -20 -6 -32 17 -50 96 -180 139 -282 93z" transform="translate(0,79.0) scale(0.1,-0.1)" stroke="none" fill="#A59E96"/>

<path d="M568 447 c-20 -8 -52 -27 -70 -42 -31 -26 -98 -111 -98 -125 0 -3 25 -17 55 -29 74 -31 164 -98 208 -155 l34 -45 6 58 c8 72 46 177 87 237 16 25 30 47 30 50 0 3 -25 16 -55 30 -67 31 -147 39 -197 21z" transform="translate(226.0,79.0) scale(-0.1,-0.1)" stroke="none" fill="#696959"/>

<path d="M454 741 c-74 -34 -119 -101 -130 -195 -7 -54 -8 -55 -33 -49 -14 3 -34 10 -43 14 -9 5 -39 9 -67 9 -42 0 -56 -5 -86 -31 -32 -29 -35 -35 -35 -89 0 -31 5 -71 11 -87 l10 -30 112 4 c62 2 132 0 157 -4 l44 -8 36 52 c89 132 202 164 341 96 l56 -28 29 29 c34 33 166 122 194 131 27 9 27 88 1 131 -21 34 -75 64 -115 64 -41 0 -104 -37 -128 -74 -12 -19 -30 -39 -40 -45 -15 -9 -20 -6 -32 17 -50 96 -180 139 -282 93z" transform="translate(226.0,79.0) scale(-0.1,-0.1)" stroke="none" fill="#A59E96"/>

<path d="M568 447 c-20 -8 -52 -27 -70 -42 -31 -26 -98 -111 -98 -125 0 -3 25 -17 55 -29 74 -31 164 -98 208 -155 l34 -45 6 58 c8 72 46 177 87 237 16 25 30 47 30 50 0 3 -25 16 -55 30 -67 31 -147 39 -197 21z" transform="translate(0,79.0) scale(0.1,0.1)" stroke="none" fill="#696959"/>

<path d="M454 741 c-74 -34 -119 -101 -130 -195 -7 -54 -8 -55 -33 -49 -14 3 -34 10 -43 14 -9 5 -39 9 -67 9 -42 0 -56 -5 -86 -31 -32 -29 -35 -35 -35 -89 0 -31 5 -71 11 -87 l10 -30 112 4 c62 2 132 0 157 -4 l44 -8 36 52 c89 132 202 164 341 96 l56 -28 29 29 c34 33 166 122 194 131 27 9 27 88 1 131 -21 34 -75 64 -115 64 -41 0 -104 -37 -128 -74 -12 -19 -30 -39 -40 -45 -15 -9 -20 -6 -32 17 -50 96 -180 139 -282 93z" transform="translate(0,79.0) scale(0.1,0.1)" stroke="none" fill="#A59E96"/>

<path d="M568 447 c-20 -8 -52 -27 -70 -42 -31 -26 -98 -111 -98 -125 0 -3 25 -17 55 -29 74 -31 164 -98 208 -155 l34 -45 6 58 c8 72 46 177 87 237 16 25 30 47 30 50 0 3 -25 16 -55 30 -67 31 -147 39 -197 21z" transform="translate(226.0,79.0) scale(-0.1,0.1)" stroke="none" fill="#696959"/>

<path d="M454 741 c-74 -34 -119 -101 -130 -195 -7 -54 -8 -55 -33 -49 -14 3 -34 10 -43 14 -9 5 -39 9 -67 9 -42 0 -56 -5 -86 -31 -32 -29 -35 -35 -35 -89 0 -31 5 -71 11 -87 l10 -30 112 4 c62 2 132 0 157 -4 l44 -8 36 52 c89 132 202 164 341 96 l56 -28 29 29 c34 33 166 122 194 131 27 9 27 88 1 131 -21 34 -75 64 -115 64 -41 0 -104 -37 -128 -74 -12 -19 -30 -39 -40 -45 -15 -9 -20 -6 -32 17 -50 96 -180 139 -282 93z" transform="translate(226.0,79.0) scale(-0.1,0.1)" stroke="none" fill="#A59E96"/>

</g>

</g>

</g>
<g id="row3" transform="translate(15,237.0)">
<g id="0" transform="translate(0.0,0)scale(1,1)">

<g transform="matrix(0.5,0,0,0.5,0,0)">

<path d="M568 447 c-20 -8 -52 -27 -70 -42 -31 -26 -98 -111 -98 -125 0 -3 25 -17 55 -29 74 -31 164 -98 208 -155 l34 -45 6 58 c8 72 46 177 87 237 16 25 30 47 30 50 0 3 -25 16 -55 30 -67 31 -147 39 -197 21z" transform="translate(0,79.0) scale(0.1,-0.1)" stroke="none" fill="#696959"/>

<path d="M454 741 c-74 -34 -119 -101 -130 -195 -7 -54 -8 -55 -33 -49 -14 3 -34 10 -43 14 -9 5 -39 9 -67 9 -42 0 -56 -5 -86 -31 -32 -29 -35 -35 -35 -89 0 -31 5 -71 11 -87 l10 -30 112 4 c62 2 132 0 157 -4 l44 -8 36 52 c89 132 202 164 341 96 l56 -28 29 29 c34 33 166 122 194 131 27 9 27 88 1 131 -21 34 -75 64 -115 64 -41 0 -104 -37 -128 -74 -12 -19 -30 -39 -40 -45 -15 -9 -20 -6 -32 17 -50 96 -180 139 -282 93z" transform="translate(0,79.0) scale(0.1,-0.1)" stroke="none" fill="#A59E96"/>

<path d="M568 447 c-20 -8 -52 -27 -70 -42 -31 -26 -98 -111 -98 -125 0 -3 25 -17 55 -29 74 -31 164 -98 208 -155 l34 -45 6 58 c8 72 46 177 87 237 16 25 30 47 30 50 0 3 -25 16 -55 30 -67 31 -147 39 -197 21z" transform="translate(226.0,79.0) scale(-0.1,-0.1)" stroke="none" fill="#696959"/>

<path d="M454 741 c-74 -34 -119 -101 -130 -195 -7 -54 -8 -55 -33 -49 -14 3 -34 10 -43 14 -9 5 -39 9 -67 9 -42 0 -56 -5 -86 -31 -32 -29 -35 -35 -35 -89 0 -31 5 -71 11 -87 l10 -30 112 4 c62 2 132 0 157 -4 l44 -8 36 52 c89 132 202 164 341 96 l56 -28 29 29 c34 33 166 122 194 131 27 9 27 88 1 131 -21 34 -75 64 -115 64 -41 0 -104 -37 -128 -74 -12 -19 -30 -39 -40 -45 -15 -9 -20 -6 -32 17 -50 96 -180 139 -282 93z" transform="translate(226.0,79.0) scale(-0.1,-0.1)" stroke="none" fill="#A59E96"/>

<path d="M568 447 c-20 -8 -52 -27 -70 -42 -31 -26 -98 -111 -98 -125 0 -3 25 -17 55 -29 74 -31 164 -98 208 -155 l34 -45 6 58 c8 72 46 177 87 237 16 25 30 47 30 50 0 3 -25 16 -55 30 -67 31 -147 39 -197 21z" transform="translate(0,79.0) scale(0.1,0.1)" stroke="none" fill="#696959"/>

<path d="M454 741 c-74 -34 -119 -101 -130 -195 -7 -54 -8 -55 -33 -49 -14 3 -34 10 -43 14 -9 5 -39 9 -67 9 -42 0 -56 -5 -86 -31 -32 -29 -35 -35 -35 -89 0 -31 5 -71 11 -87 l10 -30 112 4 c62 2 132 0 157 -4 l44 -8 36 52 c89 132 202 164 341 96 l56 -28 29 29 c34 33 166 122 194 131 27 9 27 88 1 131 -21 34 -75 64 -115 64 -41 0 -104 -37 -128 -74 -12 -19 -30 -39 -40 -45 -15 -9 -20 -6 -32 17 -50 96 -180 139 -282 93z" transform="translate(0,79.0) scale(0.1,0.1)" stroke="none" fill="#A59E96"/>

<path d="M568 447 c-20 -8 -52 -27 -70 -42 -31 -26 -98 -111 -98 -125 0 -3 25 -17 55 -29 74 -31 164 -98 208 -155 l34 -45 6 58 c8 72 46 177 87 237 16 25 30 47 30 50 0 3 -25 16 -55 30 -67 31 -147 39 -197 21z" transform="translate(226.0,79.0) scale(-0.1,0.1)" stroke="none" fill="#696959"/>

<path d="M454 741 c-74 -34 -119 -101 -130 -195 -7 -54 -8 -55 -33 -49 -14 3 -34 10 -43 14 -9 5 -39 9 -67 9 -42 0 -56 -5 -86 -31 -32 -29 -35 -35 -35 -89 0 -31 5 -71 11 -87 l10 -30 112 4 c62 2 132 0 157 -4 l44 -8 36 52 c89 132 202 164 341 96 l56 -28 29 29 c34 33 166 122 194 131 27 9 27 88 1 131 -21 34 -75 64 -115 64 -41 0 -104 -37 -128 -74 -12 -19 -30 -39 -40 -45 -15 -9 -20 -6 -32 17 -50 96 -180 139 -282 93z" transform="translate(226.0,79.0) scale(-0.1,0.1)" stroke="none" fill="#A59E96"/>

</g>

</g>

<g id="1" transform="translate(113.0,0)scale(1,1)">

<g transform="matrix(0.5,0,0,0.5,0,0)">

<path d="M568 447 c-20 -8 -52 -27 -70 -42 -31 -26 -98 -111 -98 -125 0 -3 25 -17 55 -29 74 -31 164 -98 208 -155 l34 -45 6 58 c8 72 46 177 87 237 16 25 30 47 30 50 0 3 -25 16 -55 30 -67 31 -147 39 -197 21z" transform="translate(0,79.0) scale(0.1,-0.1)" stroke="none" fill="#696959"/>

<path d="M454 741 c-74 -34 -119 -101 -130 -195 -7 -54 -8 -55 -33 -49 -14 3 -34 10 -43 14 -9 5 -39 9 -67 9 -42 0 -56 -5 -86 -31 -32 -29 -35 -35 -35 -89 0 -31 5 -71 11 -87 l10 -30 112 4 c62 2 132 0 157 -4 l44 -8 36 52 c89 132 202 164 341 96 l56 -28 29 29 c34 33 166 122 194 131 27 9 27 88 1 131 -21 34 -75 64 -115 64 -41 0 -104 -37 -128 -74 -12 -19 -30 -39 -40 -45 -15 -9 -20 -6 -32 17 -50 96 -180 139 -282 93z" transform="translate(0,79.0) scale(0.1,-0.1)" stroke="none" fill="#A59E96"/>

<path d="M568 447 c-20 -8 -52 -27 -70 -42 -31 -26 -98 -111 -98 -125 0 -3 25 -17 55 -29 74 -31 164 -98 208 -155 l34 -45 6 58 c8 72 46 177 87 237 16 25 30 47 30 50 0 3 -25 16 -55 30 -67 31 -147 39 -197 21z" transform="translate(226.0,79.0) scale(-0.1,-0.1)" stroke="none" fill="#696959"/>

<path d="M454 741 c-74 -34 -119 -101 -130 -195 -7 -54 -8 -55 -33 -49 -14 3 -34 10 -43 14 -9 5 -39 9 -67 9 -42 0 -56 -5 -86 -31 -32 -29 -35 -35 -35 -89 0 -31 5 -71 11 -87 l10 -30 112 4 c62 2 132 0 157 -4 l44 -8 36 52 c89 132 202 164 341 96 l56 -28 29 29 c34 33 166 122 194 131 27 9 27 88 1 131 -21 34 -75 64 -115 64 -41 0 -104 -37 -128 -74 -12 -19 -30 -39 -40 -45 -15 -9 -20 -6 -32 17 -50 96 -180 139 -282 93z" transform="translate(226.0,79.0) scale(-0.1,-0.1)" stroke="none" fill="#A59E96"/>

<path d="M568 447 c-20 -8 -52 -27 -70 -42 -31 -26 -98 -111 -98 -125 0 -3 25 -17 55 -29 74 -31 164 -98 208 -155 l34 -45 6 58 c8 72 46 177 87 237 16 25 30 47 30 50 0 3 -25 16 -55 30 -67 31 -147 39 -197 21z" transform="translate(0,79.0) scale(0.1,0.1)" stroke="none" fill="#696959"/>

<path d="M454 741 c-74 -34 -119 -101 -130 -195 -7 -54 -8 -55 -33 -49 -14 3 -34 10 -43 14 -9 5 -39 9 -67 9 -42 0 -56 -5 -86 -31 -32 -29 -35 -35 -35 -89 0 -31 5 -71 11 -87 l10 -30 112 4 c62 2 132 0 157 -4 l44 -8 36 52 c89 132 202 164 341 96 l56 -28 29 29 c34 33 166 122 194 131 27 9 27 88 1 131 -21 34 -75 64 -115 64 -41 0 -104 -37 -128 -74 -12 -19 -30 -39 -40 -45 -15 -9 -20 -6 -32 17 -50 96 -180 139 -282 93z" transform="translate(0,79.0) scale(0.1,0.1)" stroke="none" fill="#A59E96"/>

<path d="M568 447 c-20 -8 -52 -27 -70 -42 -31 -26 -98 -111 -98 -125 0 -3 25 -17 55 -29 74 -31 164 -98 208 -155 l34 -45 6 58 c8 72 46 177 87 237 16 25 30 47 30 50 0 3 -25 16 -55 30 -67 31 -147 39 -197 21z" transform="translate(226.0,79.0) scale(-0.1,0.1)" stroke="none" fill="#696959"/>

<path d="M454 741 c-74 -34 -119 -101 -130 -195 -7 -54 -8 -55 -33 -49 -14 3 -34 10 -43 14 -9 5 -39 9 -67 9 -42 0 -56 -5 -86 -31 -32 -29 -35 -35 -35 -89 0 -31 5 -71 11 -87 l10 -30 112 4 c62 2 132 0 157 -4 l44 -8 36 52 c89 132 202 164 341 96 l56 -28 29 29 c34 33 166 122 194 131 27 9 27 88 1 131 -21 34 -75 64 -115 64 -41 0 -104 -37 -128 -74 -12 -19 -30 -39 -40 -45 -15 -9 -20 -6 -32 17 -50 96 -180 139 -282 93z" transform="translate(226.0,79.0) scale(-0.1,0.1)" stroke="none" fill="#A59E96"/>

</g>

</g>

<g id="2" transform="translate(226.0,0)scale(1,1)">

<g transform="matrix(0.5,0,0,0.5,0,0)">

<path d="M568 447 c-20 -8 -52 -27 -70 -42 -31 -26 -98 -111 -98 -125 0 -3 25 -17 55 -29 74 -31 164 -98 208 -155 l34 -45 6 58 c8 72 46 177 87 237 16 25 30 47 30 50 0 3 -25 16 -55 30 -67 31 -147 39 -197 21z" transform="translate(0,79.0) scale(0.1,-0.1)" stroke="none" fill="#696959"/>

<path d="M454 741 c-74 -34 -119 -101 -130 -195 -7 -54 -8 -55 -33 -49 -14 3 -34 10 -43 14 -9 5 -39 9 -67 9 -42 0 -56 -5 -86 -31 -32 -29 -35 -35 -35 -89 0 -31 5 -71 11 -87 l10 -30 112 4 c62 2 132 0 157 -4 l44 -8 36 52 c89 132 202 164 341 96 l56 -28 29 29 c34 33 166 122 194 131 27 9 27 88 1 131 -21 34 -75 64 -115 64 -41 0 -104 -37 -128 -74 -12 -19 -30 -39 -40 -45 -15 -9 -20 -6 -32 17 -50 96 -180 139 -282 93z" transform="translate(0,79.0) scale(0.1,-0.1)" stroke="none" fill="#A59E96"/>

<path d="M568 447 c-20 -8 -52 -27 -70 -42 -31 -26 -98 -111 -98 -125 0 -3 25 -17 55 -29 74 -31 164 -98 208 -155 l34 -45 6 58 c8 72 46 177 87 237 16 25 30 47 30 50 0 3 -25 16 -55 30 -67 31 -147 39 -197 21z" transform="translate(226.0,79.0) scale(-0.1,-0.1)" stroke="none" fill="#696959"/>

<path d="M454 741 c-74 -34 -119 -101 -130 -195 -7 -54 -8 -55 -33 -49 -14 3 -34 10 -43 14 -9 5 -39 9 -67 9 -42 0 -56 -5 -86 -31 -32 -29 -35 -35 -35 -89 0 -31 5 -71 11 -87 l10 -30 112 4 c62 2 132 0 157 -4 l44 -8 36 52 c89 132 202 164 341 96 l56 -28 29 29 c34 33 166 122 194 131 27 9 27 88 1 131 -21 34 -75 64 -115 64 -41 0 -104 -37 -128 -74 -12 -19 -30 -39 -40 -45 -15 -9 -20 -6 -32 17 -50 96 -180 139 -282 93z" transform="translate(226.0,79.0) scale(-0.1,-0.1)" stroke="none" fill="#A59E96"/>

<path d="M568 447 c-20 -8 -52 -27 -70 -42 -31 -26 -98 -111 -98 -125 0 -3 25 -17 55 -29 74 -31 164 -98 208 -155 l34 -45 6 58 c8 72 46 177 87 237 16 25 30 47 30 50 0 3 -25 16 -55 30 -67 31 -147 39 -197 21z" transform="translate(0,79.0) scale(0.1,0.1)" stroke="none" fill="#696959"/>

<path d="M454 741 c-74 -34 -119 -101 -130 -195 -7 -54 -8 -55 -33 -49 -14 3 -34 10 -43 14 -9 5 -39 9 -67 9 -42 0 -56 -5 -86 -31 -32 -29 -35 -35 -35 -89 0 -31 5 -71 11 -87 l10 -30 112 4 c62 2 132 0 157 -4 l44 -8 36 52 c89 132 202 164 341 96 l56 -28 29 29 c34 33 166 122 194 131 27 9 27 88 1 131 -21 34 -75 64 -115 64 -41 0 -104 -37 -128 -74 -12 -19 -30 -39 -40 -45 -15 -9 -20 -6 -32 17 -50 96 -180 139 -282 93z" transform="translate(0,79.0) scale(0.1,0.1)" stroke="none" fill="#A59E96"/>

<path d="M568 447 c-20 -8 -52 -27 -70 -42 -31 -26 -98 -111 -98 -125 0 -3 25 -17 55 -29 74 -31 164 -98 208 -155 l34 -45 6 58 c8 72 46 177 87 237 16 25 30 47 30 50 0 3 -25 16 -55 30 -67 31 -147 39 -197 21z" transform="translate(226.0,79.0) scale(-0.1,0.1)" stroke="none" fill="#696959"/>

<path d="M454 741 c-74 -34 -119 -101 -130 -195 -7 -54 -8 -55 -33 -49 -14 3 -34 10 -43 14 -9 5 -39 9 -67 9 -42 0 -56 -5 -86 -31 -32 -29 -35 -35 -35 -89 0 -31 5 -71 11 -87 l10 -30 112 4 c62 2 132 0 157 -4 l44 -8 36 52 c89 132 202 164 341 96 l56 -28 29 29 c34 33 166 122 194 131 27 9 27 88 1 131 -21 34 -75 64 -115 64 -41 0 -104 -37 -128 -74 -12 -19 -30 -39 -40 -45 -15 -9 -20 -6 -32 17 -50 96 -180 139 -282 93z" transform="translate(226.0,79.0) scale(-0.1,0.1)" stroke="none" fill="#A59E96"/>

</g>

</g>

<g id="3" transform="translate(339.0,0)scale(1,1)">

<g transform="matrix(0.5,0,0,0.5,0,0)">

<path d="M568 447 c-20 -8 -52 -27 -70 -42 -31 -26 -98 -111 -98 -125 0 -3 25 -17 55 -29 74 -31 164 -98 208 -155 l34 -45 6 58 c8 72 46 177 87 237 16 25 30 47 30 50 0 3 -25 16 -55 30 -67 31 -147 39 -197 21z" transform="translate(0,79.0) scale(0.1,-0.1)" stroke="none" fill="#696959"/>

<path d="M454 741 c-74 -34 -119 -101 -130 -195 -7 -54 -8 -55 -33 -49 -14 3 -34 10 -43 14 -9 5 -39 9 -67 9 -42 0 -56 -5 -86 -31 -32 -29 -35 -35 -35 -89 0 -31 5 -71 11 -87 l10 -30 112 4 c62 2 132 0 157 -4 l44 -8 36 52 c89 132 202 164 341 96 l56 -28 29 29 c34 33 166 122 194 131 27 9 27 88 1 131 -21 34 -75 64 -115 64 -41 0 -104 -37 -128 -74 -12 -19 -30 -39 -40 -45 -15 -9 -20 -6 -32 17 -50 96 -180 139 -282 93z" transform="translate(0,79.0) scale(0.1,-0.1)" stroke="none" fill="#A59E96"/>

<path d="M568 447 c-20 -8 -52 -27 -70 -42 -31 -26 -98 -111 -98 -125 0 -3 25 -17 55 -29 74 -31 164 -98 208 -155 l34 -45 6 58 c8 72 46 177 87 237 16 25 30 47 30 50 0 3 -25 16 -55 30 -67 31 -147 39 -197 21z" transform="translate(226.0,79.0) scale(-0.1,-0.1)" stroke="none" fill="#696959"/>

<path d="M454 741 c-74 -34 -119 -101 -130 -195 -7 -54 -8 -55 -33 -49 -14 3 -34 10 -43 14 -9 5 -39 9 -67 9 -42 0 -56 -5 -86 -31 -32 -29 -35 -35 -35 -89 0 -31 5 -71 11 -87 l10 -30 112 4 c62 2 132 0 157 -4 l44 -8 36 52 c89 132 202 164 341 96 l56 -28 29 29 c34 33 166 122 194 131 27 9 27 88 1 131 -21 34 -75 64 -115 64 -41 0 -104 -37 -128 -74 -12 -19 -30 -39 -40 -45 -15 -9 -20 -6 -32 17 -50 96 -180 139 -282 93z" transform="translate(226.0,79.0) scale(-0.1,-0.1)" stroke="none" fill="#A59E96"/>

<path d="M568 447 c-20 -8 -52 -27 -70 -42 -31 -26 -98 -111 -98 -125 0 -3 25 -17 55 -29 74 -31 164 -98 208 -155 l34 -45 6 58 c8 72 46 177 87 237 16 25 30 47 30 50 0 3 -25 16 -55 30 -67 31 -147 39 -197 21z" transform="translate(0,79.0) scale(0.1,0.1)" stroke="none" fill="#696959"/>

<path d="M454 741 c-74 -34 -119 -101 -130 -195 -7 -54 -8 -55 -33 -49 -14 3 -34 10 -43 14 -9 5 -39 9 -67 9 -42 0 -56 -5 -86 -31 -32 -29 -35 -35 -35 -89 0 -31 5 -71 11 -87 l10 -30 112 4 c62 2 132 0 157 -4 l44 -8 36 52 c89 132 202 164 341 96 l56 -28 29 29 c34 33 166 122 194 131 27 9 27 88 1 131 -21 34 -75 64 -115 64 -41 0 -104 -37 -128 -74 -12 -19 -30 -39 -40 -45 -15 -9 -20 -6 -32 17 -50 96 -180 139 -282 93z" transform="translate(0,79.0) scale(0.1,0.1)" stroke="none" fill="#A59E96"/>

<path d="M568 447 c-20 -8 -52 -27 -70 -42 -31 -26 -98 -111 -98 -125 0 -3 25 -17 55 -29 74 -31 164 -98 208 -155 l34 -45 6 58 c8 72 46 177 87 237 16 25 30 47 30 50 0 3 -25 16 -55 30 -67 31 -147 39 -197 21z" transform="translate(226.0,79.0) scale(-0.1,0.1)" stroke="none" fill="#696959"/>

<path d="M454 741 c-74 -34 -119 -101 -130 -195 -7 -54 -8 -55 -33 -49 -14 3 -34 10 -43 14 -9 5 -39 9 -67 9 -42 0 -56 -5 -86 -31 -32 -29 -35 -35 -35 -89 0 -31 5 -71 11 -87 l10 -30 112 4 c62 2 132 0 157 -4 l44 -8 36 52 c89 132 202 164 341 96 l56 -28 29 29 c34 33 166 122 194 131 27 9 27 88 1 131 -21 34 -75 64 -115 64 -41 0 -104 -37 -128 -74 -12 -19 -30 -39 -40 -45 -15 -9 -20 -6 -32 17 -50 96 -180 139 -282 93z" transform="translate(226.0,79.0) scale(-0.1,0.1)" stroke="none" fill="#A59E96"/>

</g>

</g>

<g id="4" transform="translate(452.0,0)scale(1,1)">

<g transform="matrix(0.5,0,0,0.5,0,0)">

<path d="M568 447 c-20 -8 -52 -27 -70 -42 -31 -26 -98 -111 -98 -125 0 -3 25 -17 55 -29 74 -31 164 -98 208 -155 l34 -45 6 58 c8 72 46 177 87 237 16 25 30 47 30 50 0 3 -25 16 -55 30 -67 31 -147 39 -197 21z" transform="translate(0,79.0) scale(0.1,-0.1)" stroke="none" fill="#696959"/>

<path d="M454 741 c-74 -34 -119 -101 -130 -195 -7 -54 -8 -55 -33 -49 -14 3 -34 10 -43 14 -9 5 -39 9 -67 9 -42 0 -56 -5 -86 -31 -32 -29 -35 -35 -35 -89 0 -31 5 -71 11 -87 l10 -30 112 4 c62 2 132 0 157 -4 l44 -8 36 52 c89 132 202 164 341 96 l56 -28 29 29 c34 33 166 122 194 131 27 9 27 88 1 131 -21 34 -75 64 -115 64 -41 0 -104 -37 -128 -74 -12 -19 -30 -39 -40 -45 -15 -9 -20 -6 -32 17 -50 96 -180 139 -282 93z" transform="translate(0,79.0) scale(0.1,-0.1)" stroke="none" fill="#A59E96"/>

<path d="M568 447 c-20 -8 -52 -27 -70 -42 -31 -26 -98 -111 -98 -125 0 -3 25 -17 55 -29 74 -31 164 -98 208 -155 l34 -45 6 58 c8 72 46 177 87 237 16 25 30 47 30 50 0 3 -25 16 -55 30 -67 31 -147 39 -197 21z" transform="translate(226.0,79.0) scale(-0.1,-0.1)" stroke="none" fill="#696959"/>

<path d="M454 741 c-74 -34 -119 -101 -130 -195 -7 -54 -8 -55 -33 -49 -14 3 -34 10 -43 14 -9 5 -39 9 -67 9 -42 0 -56 -5 -86 -31 -32 -29 -35 -35 -35 -89 0 -31 5 -71 11 -87 l10 -30 112 4 c62 2 132 0 157 -4 l44 -8 36 52 c89 132 202 164 341 96 l56 -28 29 29 c34 33 166 122 194 131 27 9 27 88 1 131 -21 34 -75 64 -115 64 -41 0 -104 -37 -128 -74 -12 -19 -30 -39 -40 -45 -15 -9 -20 -6 -32 17 -50 96 -180 139 -282 93z" transform="translate(226.0,79.0) scale(-0.1,-0.1)" stroke="none" fill="#A59E96"/>

<path d="M568 447 c-20 -8 -52 -27 -70 -42 -31 -26 -98 -111 -98 -125 0 -3 25 -17 55 -29 74 -31 164 -98 208 -155 l34 -45 6 58 c8 72 46 177 87 237 16 25 30 47 30 50 0 3 -25 16 -55 30 -67 31 -147 39 -197 21z" transform="translate(0,79.0) scale(0.1,0.1)" stroke="none" fill="#696959"/>

<path d="M454 741 c-74 -34 -119 -101 -130 -195 -7 -54 -8 -55 -33 -49 -14 3 -34 10 -43 14 -9 5 -39 9 -67 9 -42 0 -56 -5 -86 -31 -32 -29 -35 -35 -35 -89 0 -31 5 -71 11 -87 l10 -30 112 4 c62 2 132 0 157 -4 l44 -8 36 52 c89 132 202 164 341 96 l56 -28 29 29 c34 33 166 122 194 131 27 9 27 88 1 131 -21 34 -75 64 -115 64 -41 0 -104 -37 -128 -74 -12 -19 -30 -39 -40 -45 -15 -9 -20 -6 -32 17 -50 96 -180 139 -282 93z" transform="translate(0,79.0) scale(0.1,0.1)" stroke="none" fill="#A59E96"/>

<path d="M568 447 c-20 -8 -52 -27 -70 -42 -31 -26 -98 -111 -98 -125 0 -3 25 -17 55 -29 74 -31 164 -98 208 -155 l34 -45 6 58 c8 72 46 177 87 237 16 25 30 47 30 50 0 3 -25 16 -55 30 -67 31 -147 39 -197 21z" transform="translate(226.0,79.0) scale(-0.1,0.1)" stroke="none" fill="#696959"/>

<path d="M454 741 c-74 -34 -119 -101 -130 -195 -7 -54 -8 -55 -33 -49 -14 3 -34 10 -43 14 -9 5 -39 9 -67 9 -42 0 -56 -5 -86 -31 -32 -29 -35 -35 -35 -89 0 -31 5 -71 11 -87 l10 -30 112 4 c62 2 132 0 157 -4 l44 -8 36 52 c89 132 202 164 341 96 l56 -28 29 29 c34 33 166 122 194 131 27 9 27 88 1 131 -21 34 -75 64 -115 64 -41 0 -104 -37 -128 -74 -12 -19 -30 -39 -40 -45 -15 -9 -20 -6 -32 17 -50 96 -180 139 -282 93z" transform="translate(226.0,79.0) scale(-0.1,0.1)" stroke="none" fill="#A59E96"/>

</g>

</g>

</g>
</svg>