<?xml version="1.0" standalone="no"?>
<!DOCTYPE svg PUBLIC "-//W3C//DTD SVG 20010904//EN"
 "http://www.w3.org/TR/2001/REC-SVG-20010904/DTD/svg10.dtd">
<svg version="1.0" xmlns="http://www.w3.org/2000/svg" width="1072pt" height="1004pt" viewBox="0 0 1072 1004" preserveAspectRatio = "xMidYMid meet" >
<metadata>
Created by ZoeQu, written in 2022
</metadata>
<rect width="1072" height="1004" fill="#E8BF96"/>
<g id="row0" transform="translate(35,0.0)">
<g id="0" transform="translate(0.0,0)scale(1,1)">

<path d="M1475 2384 c-83 -43 -131 -130 -165 -295 -18 -87 -22 -139 -22 -317 0 -122 -3 -210 -9 -207 -5 3 -25 34 -45 68 -38 66 -123 186 -158 225 -190 210 -317 292 -454 292 -168 0 -314 -155 -300 -318 3 -31 16 -80 29 -107 27 -58 121 -155 198 -205 l54 -35 -56 -6 c-124 -14 -289 -96 -352 -174 -69 -86 -99 -241 -60 -314 29 -56 81 -98 152 -122 57 -19 87 -22 225 -21 88 0 165 5 171 10 7 5 41 13 76 17 l64 7 -31 -44 c-41 -59 -87 -155 -124 -258 -27 -73 -31 -100 -32 -190 -1 -84 3 -113 18 -142 20 -42 66 -90 99 -105 12 -6 35 -17 51 -24 45 -22 143 -18 196 8 122 58 261 239 335 436 10 26 21 47 25 47 3 0 14 -15 23 -33 40 -79 139 -218 211 -296 49 -52 126 -111 181 -137 56 -27 168 -26 211 1 59 38 96 75 130 132 30 50 34 65 34 125 0 89 -32 174 -104 277 -28 40 -153 169 -201 206 -19 15 -17 16 30 11 28 -3 95 -9 150 -12 280 -17 498 80 535 239 13 55 12 143 0 189 -26 93 -116 146 -277 164 -42 5 -298 -22 -316 -33 -5 -3 -25 -8 -44 -10 -20 -3 -61 -14 -91 -24 -30 -10 -57 -17 -59 -15 -2 2 12 36 31 76 127 260 159 528 82 695 -73 160 -296 279 -411 219z" transform="translate(0,251) scale(0.1,-0.1)" stroke="none" fill="#9B7044"/>

</g>

<g id="1" transform="translate(268.0,0)scale(1,1)">

<path d="M1475 2384 c-83 -43 -131 -130 -165 -295 -18 -87 -22 -139 -22 -317 0 -122 -3 -210 -9 -207 -5 3 -25 34 -45 68 -38 66 -123 186 -158 225 -190 210 -317 292 -454 292 -168 0 -314 -155 -300 -318 3 -31 16 -80 29 -107 27 -58 121 -155 198 -205 l54 -35 -56 -6 c-124 -14 -289 -96 -352 -174 -69 -86 -99 -241 -60 -314 29 -56 81 -98 152 -122 57 -19 87 -22 225 -21 88 0 165 5 171 10 7 5 41 13 76 17 l64 7 -31 -44 c-41 -59 -87 -155 -124 -258 -27 -73 -31 -100 -32 -190 -1 -84 3 -113 18 -142 20 -42 66 -90 99 -105 12 -6 35 -17 51 -24 45 -22 143 -18 196 8 122 58 261 239 335 436 10 26 21 47 25 47 3 0 14 -15 23 -33 40 -79 139 -218 211 -296 49 -52 126 -111 181 -137 56 -27 168 -26 211 1 59 38 96 75 130 132 30 50 34 65 34 125 0 89 -32 174 -104 277 -28 40 -153 169 -201 206 -19 15 -17 16 30 11 28 -3 95 -9 150 -12 280 -17 498 80 535 239 13 55 12 143 0 189 -26 93 -116 146 -277 164 -42 5 -298 -22 -316 -33 -5 -3 -25 -8 -44 -10 -20 -3 -61 -14 -91 -24 -30 -10 -57 -17 -59 -15 -2 2 12 36 31 76 127 260 159 528 82 695 -73 160 -296 279 -411 219z" transform="translate(0,251) scale(0.1,-0.1)" stroke="none" fill="#9B7044"/>

</g>

<g id="2" transform="translate(536.0,0)scale(1,1)">

<path d="M1475 2384 c-83 -43 -131 -130 -165 -295 -18 -87 -22 -139 -22 -317 0 -122 -3 -210 -9 -207 -5 3 -25 34 -45 68 -38 66 -123 186 -158 225 -190 210 -317 292 -454 292 -168 0 -314 -155 -300 -318 3 -31 16 -80 29 -107 27 -58 121 -155 198 -205 l54 -35 -56 -6 c-124 -14 -289 -96 -352 -174 -69 -86 -99 -241 -60 -314 29 -56 81 -98 152 -122 57 -19 87 -22 225 -21 88 0 165 5 171 10 7 5 41 13 76 17 l64 7 -31 -44 c-41 -59 -87 -155 -124 -258 -27 -73 -31 -100 -32 -190 -1 -84 3 -113 18 -142 20 -42 66 -90 99 -105 12 -6 35 -17 51 -24 45 -22 143 -18 196 8 122 58 261 239 335 436 10 26 21 47 25 47 3 0 14 -15 23 -33 40 -79 139 -218 211 -296 49 -52 126 -111 181 -137 56 -27 168 -26 211 1 59 38 96 75 130 132 30 50 34 65 34 125 0 89 -32 174 -104 277 -28 40 -153 169 -201 206 -19 15 -17 16 30 11 28 -3 95 -9 150 -12 280 -17 498 80 535 239 13 55 12 143 0 189 -26 93 -116 146 -277 164 -42 5 -298 -22 -316 -33 -5 -3 -25 -8 -44 -10 -20 -3 -61 -14 -91 -24 -30 -10 -57 -17 -59 -15 -2 2 12 36 31 76 127 260 159 528 82 695 -73 160 -296 279 -411 219z" transform="translate(0,251) scale(0.1,-0.1)" stroke="none" fill="#9B7044"/>

</g>

<g id="3" transform="translate(804.0,0)scale(1,1)">

<path d="M1475 2384 c-83 -43 -131 -130 -165 -295 -18 -87 -22 -139 -22 -317 0 -122 -3 -210 -9 -207 -5 3 -25 34 -45 68 -38 66 -123 186 -158 225 -190 210 -317 292 -454 292 -168 0 -314 -155 -300 -318 3 -31 16 -80 29 -107 27 -58 121 -155 198 -205 l54 -35 -56 -6 c-124 -14 -289 -96 -352 -174 -69 -86 -99 -241 -60 -314 29 -56 81 -98 152 -122 57 -19 87 -22 225 -21 88 0 165 5 171 10 7 5 41 13 76 17 l64 7 -31 -44 c-41 -59 -87 -155 -124 -258 -27 -73 -31 -100 -32 -190 -1 -84 3 -113 18 -142 20 -42 66 -90 99 -105 12 -6 35 -17 51 -24 45 -22 143 -18 196 8 122 58 261 239 335 436 10 26 21 47 25 47 3 0 14 -15 23 -33 40 -79 139 -218 211 -296 49 -52 126 -111 181 -137 56 -27 168 -26 211 1 59 38 96 75 130 132 30 50 34 65 34 125 0 89 -32 174 -104 277 -28 40 -153 169 -201 206 -19 15 -17 16 30 11 28 -3 95 -9 150 -12 280 -17 498 80 535 239 13 55 12 143 0 189 -26 93 -116 146 -277 164 -42 5 -298 -22 -316 -33 -5 -3 -25 -8 -44 -10 -20 -3 -61 -14 -91 -24 -30 -10 -57 -17 -59 -15 -2 2 12 36 31 76 127 260 159 528 82 695 -73 160 -296 279 -411 219z" transform="translate(0,251) scale(0.1,-0.1)" stroke="none" fill="#9B7044"/>

</g>

<g id="4" transform="translate(1072.0,0)scale(1,1)">

<path d="M1475 2384 c-83 -43 -131 -130 -165 -295 -18 -87 -22 -139 -22 -317 0 -122 -3 -210 -9 -207 -5 3 -25 34 -45 68 -38 66 -123 186 -158 225 -190 210 -317 292 -454 292 -168 0 -314 -155 -300 -318 3 -31 16 -80 29 -107 27 -58 121 -155 198 -205 l54 -35 -56 -6 c-124 -14 -289 -96 -352 -174 -69 -86 -99 -241 -60 -314 29 -56 81 -98 152 -122 57 -19 87 -22 225 -21 88 0 165 5 171 10 7 5 41 13 76 17 l64 7 -31 -44 c-41 -59 -87 -155 -124 -258 -27 -73 -31 -100 -32 -190 -1 -84 3 -113 18 -142 20 -42 66 -90 99 -105 12 -6 35 -17 51 -24 45 -22 143 -18 196 8 122 58 261 239 335 436 10 26 21 47 25 47 3 0 14 -15 23 -33 40 -79 139 -218 211 -296 49 -52 126 -111 181 -137 56 -27 168 -26 211 1 59 38 96 75 130 132 30 50 34 65 34 125 0 89 -32 174 -104 277 -28 40 -153 169 -201 206 -19 15 -17 16 30 11 28 -3 95 -9 150 -12 280 -17 498 80 535 239 13 55 12 143 0 189 -26 93 -116 146 -277 164 -42 5 -298 -22 -316 -33 -5 -3 -25 -8 -44 -10 -20 -3 -61 -14 -91 -24 -30 -10 -57 -17 -59 -15 -2 2 12 36 31 76 127 260 159 528 82 695 -73 160 -296 279 -411 219z" transform="translate(0,251) scale(0.1,-0.1)" stroke="none" fill="#9B7044"/>

</g>

</g>
<g id="row1" transform="translate(35,251.0)">
<g id="0" transform="translate(0.0,0)scale(1,1)">

<path d="M1475 2384 c-83 -43 -131 -130 -165 -295 -18 -87 -22 -139 -22 -317 0 -122 -3 -210 -9 -207 -5 3 -25 34 -45 68 -38 66 -123 186 -158 225 -190 210 -317 292 -454 292 -168 0 -314 -155 -300 -318 3 -31 16 -80 29 -107 27 -58 121 -155 198 -205 l54 -35 -56 -6 c-124 -14 -289 -96 -352 -174 -69 -86 -99 -241 -60 -314 29 -56 81 -98 152 -122 57 -19 87 -22 225 -21 88 0 165 5 171 10 7 5 41 13 76 17 l64 7 -31 -44 c-41 -59 -87 -155 -124 -258 -27 -73 -31 -100 -32 -190 -1 -84 3 -113 18 -142 20 -42 66 -90 99 -105 12 -6 35 -17 51 -24 45 -22 143 -18 196 8 122 58 261 239 335 436 10 26 21 47 25 47 3 0 14 -15 23 -33 40 -79 139 -218 211 -296 49 -52 126 -111 181 -137 56 -27 168 -26 211 1 59 38 96 75 130 132 30 50 34 65 34 125 0 89 -32 174 -104 277 -28 40 -153 169 -201 206 -19 15 -17 16 30 11 28 -3 95 -9 150 -12 280 -17 498 80 535 239 13 55 12 143 0 189 -26 93 -116 146 -277 164 -42 5 -298 -22 -316 -33 -5 -3 -25 -8 -44 -10 -20 -3 -61 -14 -91 -24 -30 -10 -57 -17 -59 -15 -2 2 12 36 31 76 127 260 159 528 82 695 -73 160 -296 279 -411 219z" transform="translate(0,251) scale(0.1,-0.1)" stroke="none" fill="#9B7044"/>

</g>

<g id="1" transform="translate(268.0,0)scale(1,1)">

<path d="M1475 2384 c-83 -43 -131 -130 -165 -295 -18 -87 -22 -139 -22 -317 0 -122 -3 -210 -9 -207 -5 3 -25 34 -45 68 -38 66 -123 186 -158 225 -190 210 -317 292 -454 292 -168 0 -314 -155 -300 -318 3 -31 16 -80 29 -107 27 -58 121 -155 198 -205 l54 -35 -56 -6 c-124 -14 -289 -96 -352 -174 -69 -86 -99 -241 -60 -314 29 -56 81 -98 152 -122 57 -19 87 -22 225 -21 88 0 165 5 171 10 7 5 41 13 76 17 l64 7 -31 -44 c-41 -59 -87 -155 -124 -258 -27 -73 -31 -100 -32 -190 -1 -84 3 -113 18 -142 20 -42 66 -90 99 -105 12 -6 35 -17 51 -24 45 -22 143 -18 196 8 122 58 261 239 335 436 10 26 21 47 25 47 3 0 14 -15 23 -33 40 -79 139 -218 211 -296 49 -52 126 -111 181 -137 56 -27 168 -26 211 1 59 38 96 75 130 132 30 50 34 65 34 125 0 89 -32 174 -104 277 -28 40 -153 169 -201 206 -19 15 -17 16 30 11 28 -3 95 -9 150 -12 280 -17 498 80 535 239 13 55 12 143 0 189 -26 93 -116 146 -277 164 -42 5 -298 -22 -316 -33 -5 -3 -25 -8 -44 -10 -20 -3 -61 -14 -91 -24 -30 -10 -57 -17 -59 -15 -2 2 12 36 31 76 127 260 159 528 82 695 -73 160 -296 279 -411 219z" transform="translate(0,251) scale(0.1,-0.1)" stroke="none" fill="#9B7044"/>

</g>

<g id="2" transform="translate(536.0,0)scale(1,1)">

<path d="M1475 2384 c-83 -43 -131 -130 -165 -295 -18 -87 -22 -139 -22 -317 0 -122 -3 -210 -9 -207 -5 3 -25 34 -45 68 -38 66 -123 186 -158 225 -190 210 -317 292 -454 292 -168 0 -314 -155 -300 -318 3 -31 16 -80 29 -107 27 -58 121 -155 198 -205 l54 -35 -56 -6 c-124 -14 -289 -96 -352 -174 -69 -86 -99 -241 -60 -314 29 -56 81 -98 152 -122 57 -19 87 -22 225 -21 88 0 165 5 171 10 7 5 41 13 76 17 l64 7 -31 -44 c-41 -59 -87 -155 -124 -258 -27 -73 -31 -100 -32 -190 -1 -84 3 -113 18 -142 20 -42 66 -90 99 -105 12 -6 35 -17 51 -24 45 -22 143 -18 196 8 122 58 261 239 335 436 10 26 21 47 25 47 3 0 14 -15 23 -33 40 -79 139 -218 211 -296 49 -52 126 -111 181 -137 56 -27 168 -26 211 1 59 38 96 75 130 132 30 50 34 65 34 125 0 89 -32 174 -104 277 -28 40 -153 169 -201 206 -19 15 -17 16 30 11 28 -3 95 -9 150 -12 280 -17 498 80 535 239 13 55 12 143 0 189 -26 93 -116 146 -277 164 -42 5 -298 -22 -316 -33 -5 -3 -25 -8 -44 -10 -20 -3 -61 -14 -91 -24 -30 -10 -57 -17 -59 -15 -2 2 12 36 31 76 127 260 159 528 82 695 -73 160 -296 279 -411 219z" transform="translate(0,251) scale(0.1,-0.1)" stroke="none" fill="#9B7044"/>

</g>

<g id="3" transform="translate(804.0,0)scale(1,1)">

<path d="M1475 2384 c-83 -43 -131 -130 -165 -295 -18 -87 -22 -139 -22 -317 0 -122 -3 -210 -9 -207 -5 3 -25 34 -45 68 -38 66 -123 186 -158 225 -190 210 -317 292 -454 292 -168 0 -314 -155 -300 -318 3 -31 16 -80 29 -107 27 -58 121 -155 198 -205 l54 -35 -56 -6 c-124 -14 -289 -96 -352 -174 -69 -86 -99 -241 -60 -314 29 -56 81 -98 152 -122 57 -19 87 -22 225 -21 88 0 165 5 171 10 7 5 41 13 76 17 l64 7 -31 -44 c-41 -59 -87 -155 -124 -258 -27 -73 -31 -100 -32 -190 -1 -84 3 -113 18 -142 20 -42 66 -90 99 -105 12 -6 35 -17 51 -24 45 -22 143 -18 196 8 122 58 261 239 335 436 10 26 21 47 25 47 3 0 14 -15 23 -33 40 -79 139 -218 211 -296 49 -52 126 -111 181 -137 56 -27 168 -26 211 1 59 38 96 75 130 132 30 50 34 65 34 125 0 89 -32 174 -104 277 -28 40 -153 169 -201 206 -19 15 -17 16 30 11 28 -3 95 -9 150 -12 280 -17 498 80 535 239 13 55 12 143 0 189 -26 93 -116 146 -277 164 -42 5 -298 -22 -316 -33 -5 -3 -25 -8 -44 -10 -20 -3 -61 -14 -91 -24 -30 -10 -57 -17 -59 -15 -2 2 12 36 31 76 127 260 159 528 82 695 -73 160 -296 279 -411 219z" transform="translate(0,251) scale(0.1,-0.1)" stroke="none" fill="#9B7044"/>

</g>

<g id="4" transform="translate(1072.0,0)scale(1,1)">

<path d="M1475 2384 c-83 -43 -131 -130 -165 -295 -18 -87 -22 -139 -22 -317 0 -122 -3 -210 -9 -207 -5 3 -25 34 -45 68 -38 66 -123 186 -158 225 -190 210 -317 292 -454 292 -168 0 -314 -155 -300 -318 3 -31 16 -80 29 -107 27 -58 121 -155 198 -205 l54 -35 -56 -6 c-124 -14 -289 -96 -352 -174 -69 -86 -99 -241 -60 -314 29 -56 81 -98 152 -122 57 -19 87 -22 225 -21 88 0 165 5 171 10 7 5 41 13 76 17 l64 7 -31 -44 c-41 -59 -87 -155 -124 -258 -27 -73 -31 -100 -32 -190 -1 -84 3 -113 18 -142 20 -42 66 -90 99 -105 12 -6 35 -17 51 -24 45 -22 143 -18 196 8 122 58 261 239 335 436 10 26 21 47 25 47 3 0 14 -15 23 -33 40 -79 139 -218 211 -296 49 -52 126 -111 181 -137 56 -27 168 -26 211 1 59 38 96 75 130 132 30 50 34 65 34 125 0 89 -32 174 -104 277 -28 40 -153 169 -201 206 -19 15 -17 16 30 11 28 -3 95 -9 150 -12 280 -17 498 80 535 239 13 55 12 143 0 189 -26 93 -116 146 -277 164 -42 5 -298 -22 -316 -33 -5 -3 -25 -8 -44 -10 -20 -3 -61 -14 -91 -24 -30 -10 -57 -17 -59 -15 -2 2 12 36 31 76 127 260 159 528 82 695 -73 160 -296 279 -411 219z" transform="translate(0,251) scale(0.1,-0.1)" stroke="none" fill="#9B7044"/>

</g>

</g>
<g id="row2" transform="translate(35,502.0)">
<g id="0" transform="translate(0.0,0)scale(1,1)">

<path d="M1475 2384 c-83 -43 -131 -130 -165 -295 -18 -87 -22 -139 -22 -317 0 -122 -3 -210 -9 -207 -5 3 -25 34 -45 68 -38 66 -123 186 -158 225 -190 210 -317 292 -454 292 -168 0 -314 -155 -300 -318 3 -31 16 -80 29 -107 27 -58 121 -155 198 -205 l54 -35 -56 -6 c-124 -14 -289 -96 -352 -174 -69 -86 -99 -241 -60 -314 29 -56 81 -98 152 -122 57 -19 87 -22 225 -21 88 0 165 5 171 10 7 5 41 13 76 17 l64 7 -31 -44 c-41 -59 -87 -155 -124 -258 -27 -73 -31 -100 -32 -190 -1 -84 3 -113 18 -142 20 -42 66 -90 99 -105 12 -6 35 -17 51 -24 45 -22 143 -18 196 8 122 58 261 239 335 436 10 26 21 47 25 47 3 0 14 -15 23 -33 40 -79 139 -218 211 -296 49 -52 126 -111 181 -137 56 -27 168 -26 211 1 59 38 96 75 130 132 30 50 34 65 34 125 0 89 -32 174 -104 277 -28 40 -153 169 -201 206 -19 15 -17 16 30 11 28 -3 95 -9 150 -12 280 -17 498 80 535 239 13 55 12 143 0 189 -26 93 -116 146 -277 164 -42 5 -298 -22 -316 -33 -5 -3 -25 -8 -44 -10 -20 -3 -61 -14 -91 -24 -30 -10 -57 -17 -59 -15 -2 2 12 36 31 76 127 260 159 528 82 695 -73 160 -296 279 -411 219z" transform="translate(0,251) scale(0.1,-0.1)" stroke="none" fill="#9B7044"/>

</g>

<g id="1" transform="translate(268.0,0)scale(1,1)">

<path d="M1475 2384 c-83 -43 -131 -130 -165 -295 -18 -87 -22 -139 -22 -317 0 -122 -3 -210 -9 -207 -5 3 -25 34 -45 68 -38 66 -123 186 -158 225 -190 210 -317 292 -454 292 -168 0 -314 -155 -300 -318 3 -31 16 -80 29 -107 27 -58 121 -155 198 -205 l54 -35 -56 -6 c-124 -14 -289 -96 -352 -174 -69 -86 -99 -241 -60 -314 29 -56 81 -98 152 -122 57 -19 87 -22 225 -21 88 0 165 5 171 10 7 5 41 13 76 17 l64 7 -31 -44 c-41 -59 -87 -155 -124 -258 -27 -73 -31 -100 -32 -190 -1 -84 3 -113 18 -142 20 -42 66 -90 99 -105 12 -6 35 -17 51 -24 45 -22 143 -18 196 8 122 58 261 239 335 436 10 26 21 47 25 47 3 0 14 -15 23 -33 40 -79 139 -218 211 -296 49 -52 126 -111 181 -137 56 -27 168 -26 211 1 59 38 96 75 130 132 30 50 34 65 34 125 0 89 -32 174 -104 277 -28 40 -153 169 -201 206 -19 15 -17 16 30 11 28 -3 95 -9 150 -12 280 -17 498 80 535 239 13 55 12 143 0 189 -26 93 -116 146 -277 164 -42 5 -298 -22 -316 -33 -5 -3 -25 -8 -44 -10 -20 -3 -61 -14 -91 -24 -30 -10 -57 -17 -59 -15 -2 2 12 36 31 76 127 260 159 528 82 695 -73 160 -296 279 -411 219z" transform="translate(0,251) scale(0.1,-0.1)" stroke="none" fill="#9B7044"/>

</g>

<g id="2" transform="translate(536.0,0)scale(1,1)">

<path d="M1475 2384 c-83 -43 -131 -130 -165 -295 -18 -87 -22 -139 -22 -317 0 -122 -3 -210 -9 -207 -5 3 -25 34 -45 68 -38 66 -123 186 -158 225 -190 210 -317 292 -454 292 -168 0 -314 -155 -300 -318 3 -31 16 -80 29 -107 27 -58 121 -155 198 -205 l54 -35 -56 -6 c-124 -14 -289 -96 -352 -174 -69 -86 -99 -241 -60 -314 29 -56 81 -98 152 -122 57 -19 87 -22 225 -21 88 0 165 5 171 10 7 5 41 13 76 17 l64 7 -31 -44 c-41 -59 -87 -155 -124 -258 -27 -73 -31 -100 -32 -190 -1 -84 3 -113 18 -142 20 -42 66 -90 99 -105 12 -6 35 -17 51 -24 45 -22 143 -18 196 8 122 58 261 239 335 436 10 26 21 47 25 47 3 0 14 -15 23 -33 40 -79 139 -218 211 -296 49 -52 126 -111 181 -137 56 -27 168 -26 211 1 59 38 96 75 130 132 30 50 34 65 34 125 0 89 -32 174 -104 277 -28 40 -153 169 -201 206 -19 15 -17 16 30 11 28 -3 95 -9 150 -12 280 -17 498 80 535 239 13 55 12 143 0 189 -26 93 -116 146 -277 164 -42 5 -298 -22 -316 -33 -5 -3 -25 -8 -44 -10 -20 -3 -61 -14 -91 -24 -30 -10 -57 -17 -59 -15 -2 2 12 36 31 76 127 260 159 528 82 695 -73 160 -296 279 -411 219z" transform="translate(0,251) scale(0.1,-0.1)" stroke="none" fill="#9B7044"/>

</g>

<g id="3" transform="translate(804.0,0)scale(1,1)">

<path d="M1475 2384 c-83 -43 -131 -130 -165 -295 -18 -87 -22 -139 -22 -317 0 -122 -3 -210 -9 -207 -5 3 -25 34 -45 68 -38 66 -123 186 -158 225 -190 210 -317 292 -454 292 -168 0 -314 -155 -300 -318 3 -31 16 -80 29 -107 27 -58 121 -155 198 -205 l54 -35 -56 -6 c-124 -14 -289 -96 -352 -174 -69 -86 -99 -241 -60 -314 29 -56 81 -98 152 -122 57 -19 87 -22 225 -21 88 0 165 5 171 10 7 5 41 13 76 17 l64 7 -31 -44 c-41 -59 -87 -155 -124 -258 -27 -73 -31 -100 -32 -190 -1 -84 3 -113 18 -142 20 -42 66 -90 99 -105 12 -6 35 -17 51 -24 45 -22 143 -18 196 8 122 58 261 239 335 436 10 26 21 47 25 47 3 0 14 -15 23 -33 40 -79 139 -218 211 -296 49 -52 126 -111 181 -137 56 -27 168 -26 211 1 59 38 96 75 130 132 30 50 34 65 34 125 0 89 -32 174 -104 277 -28 40 -153 169 -201 206 -19 15 -17 16 30 11 28 -3 95 -9 150 -12 280 -17 498 80 535 239 13 55 12 143 0 189 -26 93 -116 146 -277 164 -42 5 -298 -22 -316 -33 -5 -3 -25 -8 -44 -10 -20 -3 -61 -14 -91 -24 -30 -10 -57 -17 -59 -15 -2 2 12 36 31 76 127 260 159 528 82 695 -73 160 -296 279 -411 219z" transform="translate(0,251) scale(0.1,-0.1)" stroke="none" fill="#9B7044"/>

</g>

<g id="4" transform="translate(1072.0,0)scale(1,1)">

<path d="M1475 2384 c-83 -43 -131 -130 -165 -295 -18 -87 -22 -139 -22 -317 0 -122 -3 -210 -9 -207 -5 3 -25 34 -45 68 -38 66 -123 186 -158 225 -190 210 -317 292 -454 292 -168 0 -314 -155 -300 -318 3 -31 16 -80 29 -107 27 -58 121 -155 198 -205 l54 -35 -56 -6 c-124 -14 -289 -96 -352 -174 -69 -86 -99 -241 -60 -314 29 -56 81 -98 152 -122 57 -19 87 -22 225 -21 88 0 165 5 171 10 7 5 41 13 76 17 l64 7 -31 -44 c-41 -59 -87 -155 -124 -258 -27 -73 -31 -100 -32 -190 -1 -84 3 -113 18 -142 20 -42 66 -90 99 -105 12 -6 35 -17 51 -24 45 -22 143 -18 196 8 122 58 261 239 335 436 10 26 21 47 25 47 3 0 14 -15 23 -33 40 -79 139 -218 211 -296 49 -52 126 -111 181 -137 56 -27 168 -26 211 1 59 38 96 75 130 132 30 50 34 65 34 125 0 89 -32 174 -104 277 -28 40 -153 169 -201 206 -19 15 -17 16 30 11 28 -3 95 -9 150 -12 280 -17 498 80 535 239 13 55 12 143 0 189 -26 93 -116 146 -277 164 -42 5 -298 -22 -316 -33 -5 -3 -25 -8 -44 -10 -20 -3 -61 -14 -91 -24 -30 -10 -57 -17 -59 -15 -2 2 12 36 31 76 127 260 159 528 82 695 -73 160 -296 279 -411 219z" transform="translate(0,251) scale(0.1,-0.1)" stroke="none" fill="#9B7044"/>

</g>

</g>
<g id="row3" transform="translate(35,753.0)">
<g id="0" transform="translate(0.0,0)scale(1,1)">

<path d="M1475 2384 c-83 -43 -131 -130 -165 -295 -18 -87 -22 -139 -22 -317 0 -122 -3 -210 -9 -207 -5 3 -25 34 -45 68 -38 66 -123 186 -158 225 -190 210 -317 292 -454 292 -168 0 -314 -155 -300 -318 3 -31 16 -80 29 -107 27 -58 121 -155 198 -205 l54 -35 -56 -6 c-124 -14 -289 -96 -352 -174 -69 -86 -99 -241 -60 -314 29 -56 81 -98 152 -122 57 -19 87 -22 225 -21 88 0 165 5 171 10 7 5 41 13 76 17 l64 7 -31 -44 c-41 -59 -87 -155 -124 -258 -27 -73 -31 -100 -32 -190 -1 -84 3 -113 18 -142 20 -42 66 -90 99 -105 12 -6 35 -17 51 -24 45 -22 143 -18 196 8 122 58 261 239 335 436 10 26 21 47 25 47 3 0 14 -15 23 -33 40 -79 139 -218 211 -296 49 -52 126 -111 181 -137 56 -27 168 -26 211 1 59 38 96 75 130 132 30 50 34 65 34 125 0 89 -32 174 -104 277 -28 40 -153 169 -201 206 -19 15 -17 16 30 11 28 -3 95 -9 150 -12 280 -17 498 80 535 239 13 55 12 143 0 189 -26 93 -116 146 -277 164 -42 5 -298 -22 -316 -33 -5 -3 -25 -8 -44 -10 -20 -3 -61 -14 -91 -24 -30 -10 -57 -17 -59 -15 -2 2 12 36 31 76 127 260 159 528 82 695 -73 160 -296 279 -411 219z" transform="translate(0,251) scale(0.1,-0.1)" stroke="none" fill="#9B7044"/>

</g>

<g id="1" transform="translate(268.0,0)scale(1,1)">

<path d="M1475 2384 c-83 -43 -131 -130 -165 -295 -18 -87 -22 -139 -22 -317 0 -122 -3 -210 -9 -207 -5 3 -25 34 -45 68 -38 66 -123 186 -158 225 -190 210 -317 292 -454 292 -168 0 -314 -155 -300 -318 3 -31 16 -80 29 -107 27 -58 121 -155 198 -205 l54 -35 -56 -6 c-124 -14 -289 -96 -352 -174 -69 -86 -99 -241 -60 -314 29 -56 81 -98 152 -122 57 -19 87 -22 225 -21 88 0 165 5 171 10 7 5 41 13 76 17 l64 7 -31 -44 c-41 -59 -87 -155 -124 -258 -27 -73 -31 -100 -32 -190 -1 -84 3 -113 18 -142 20 -42 66 -90 99 -105 12 -6 35 -17 51 -24 45 -22 143 -18 196 8 122 58 261 239 335 436 10 26 21 47 25 47 3 0 14 -15 23 -33 40 -79 139 -218 211 -296 49 -52 126 -111 181 -137 56 -27 168 -26 211 1 59 38 96 75 130 132 30 50 34 65 34 125 0 89 -32 174 -104 277 -28 40 -153 169 -201 206 -19 15 -17 16 30 11 28 -3 95 -9 150 -12 280 -17 498 80 535 239 13 55 12 143 0 189 -26 93 -116 146 -277 164 -42 5 -298 -22 -316 -33 -5 -3 -25 -8 -44 -10 -20 -3 -61 -14 -91 -24 -30 -10 -57 -17 -59 -15 -2 2 12 36 31 76 127 260 159 528 82 695 -73 160 -296 279 -411 219z" transform="translate(0,251) scale(0.1,-0.1)" stroke="none" fill="#9B7044"/>

</g>

<g id="2" transform="translate(536.0,0)scale(1,1)">

<path d="M1475 2384 c-83 -43 -131 -130 -165 -295 -18 -87 -22 -139 -22 -317 0 -122 -3 -210 -9 -207 -5 3 -25 34 -45 68 -38 66 -123 186 -158 225 -190 210 -317 292 -454 292 -168 0 -314 -155 -300 -318 3 -31 16 -80 29 -107 27 -58 121 -155 198 -205 l54 -35 -56 -6 c-124 -14 -289 -96 -352 -174 -69 -86 -99 -241 -60 -314 29 -56 81 -98 152 -122 57 -19 87 -22 225 -21 88 0 165 5 171 10 7 5 41 13 76 17 l64 7 -31 -44 c-41 -59 -87 -155 -124 -258 -27 -73 -31 -100 -32 -190 -1 -84 3 -113 18 -142 20 -42 66 -90 99 -105 12 -6 35 -17 51 -24 45 -22 143 -18 196 8 122 58 261 239 335 436 10 26 21 47 25 47 3 0 14 -15 23 -33 40 -79 139 -218 211 -296 49 -52 126 -111 181 -137 56 -27 168 -26 211 1 59 38 96 75 130 132 30 50 34 65 34 125 0 89 -32 174 -104 277 -28 40 -153 169 -201 206 -19 15 -17 16 30 11 28 -3 95 -9 150 -12 280 -17 498 80 535 239 13 55 12 143 0 189 -26 93 -116 146 -277 164 -42 5 -298 -22 -316 -33 -5 -3 -25 -8 -44 -10 -20 -3 -61 -14 -91 -24 -30 -10 -57 -17 -59 -15 -2 2 12 36 31 76 127 260 159 528 82 695 -73 160 -296 279 -411 219z" transform="translate(0,251) scale(0.1,-0.1)" stroke="none" fill="#9B7044"/>

</g>

<g id="3" transform="translate(804.0,0)scale(1,1)">

<path d="M1475 2384 c-83 -43 -131 -130 -165 -295 -18 -87 -22 -139 -22 -317 0 -122 -3 -210 -9 -207 -5 3 -25 34 -45 68 -38 66 -123 186 -158 225 -190 210 -317 292 -454 292 -168 0 -314 -155 -300 -318 3 -31 16 -80 29 -107 27 -58 121 -155 198 -205 l54 -35 -56 -6 c-124 -14 -289 -96 -352 -174 -69 -86 -99 -241 -60 -314 29 -56 81 -98 152 -122 57 -19 87 -22 225 -21 88 0 165 5 171 10 7 5 41 13 76 17 l64 7 -31 -44 c-41 -59 -87 -155 -124 -258 -27 -73 -31 -100 -32 -190 -1 -84 3 -113 18 -142 20 -42 66 -90 99 -105 12 -6 35 -17 51 -24 45 -22 143 -18 196 8 122 58 261 239 335 436 10 26 21 47 25 47 3 0 14 -15 23 -33 40 -79 139 -218 211 -296 49 -52 126 -111 181 -137 56 -27 168 -26 211 1 59 38 96 75 130 132 30 50 34 65 34 125 0 89 -32 174 -104 277 -28 40 -153 169 -201 206 -19 15 -17 16 30 11 28 -3 95 -9 150 -12 280 -17 498 80 535 239 13 55 12 143 0 189 -26 93 -116 146 -277 164 -42 5 -298 -22 -316 -33 -5 -3 -25 -8 -44 -10 -20 -3 -61 -14 -91 -24 -30 -10 -57 -17 -59 -15 -2 2 12 36 31 76 127 260 159 528 82 695 -73 160 -296 279 -411 219z" transform="translate(0,251) scale(0.1,-0.1)" stroke="none" fill="#9B7044"/>

</g>

<g id="4" transform="translate(1072.0,0)scale(1,1)">

<path d="M1475 2384 c-83 -43 -131 -130 -165 -295 -18 -87 -22 -139 -22 -317 0 -122 -3 -210 -9 -207 -5 3 -25 34 -45 68 -38 66 -123 186 -158 225 -190 210 -317 292 -454 292 -168 0 -314 -155 -300 -318 3 -31 16 -80 29 -107 27 -58 121 -155 198 -205 l54 -35 -56 -6 c-124 -14 -289 -96 -352 -174 -69 -86 -99 -241 -60 -314 29 -56 81 -98 152 -122 57 -19 87 -22 225 -21 88 0 165 5 171 10 7 5 41 13 76 17 l64 7 -31 -44 c-41 -59 -87 -155 -124 -258 -27 -73 -31 -100 -32 -190 -1 -84 3 -113 18 -142 20 -42 66 -90 99 -105 12 -6 35 -17 51 -24 45 -22 143 -18 196 8 122 58 261 239 335 436 10 26 21 47 25 47 3 0 14 -15 23 -33 40 -79 139 -218 211 -296 49 -52 126 -111 181 -137 56 -27 168 -26 211 1 59 38 96 75 130 132 30 50 34 65 34 125 0 89 -32 174 -104 277 -28 40 -153 169 -201 206 -19 15 -17 16 30 11 28 -3 95 -9 150 -12 280 -17 498 80 535 239 13 55 12 143 0 189 -26 93 -116 146 -277 164 -42 5 -298 -22 -316 -33 -5 -3 -25 -8 -44 -10 -20 -3 -61 -14 -91 -24 -30 -10 -57 -17 -59 -15 -2 2 12 36 31 76 127 260 159 528 82 695 -73 160 -296 279 -411 219z" transform="translate(0,251) scale(0.1,-0.1)" stroke="none" fill="#9B7044"/>

</g>

</g>
</svg>