<?xml version="1.0" standalone="no"?>
<!DOCTYPE svg PUBLIC "-//W3C//DTD SVG 20010904//EN"
 "http://www.w3.org/TR/2001/REC-SVG-20010904/DTD/svg10.dtd">
<svg version="1.0" xmlns="http://www.w3.org/2000/svg" width="304pt" height="296pt" viewBox="0 0 304 296" preserveAspectRatio = "xMidYMid meet" >
<metadata>
Created by ZoeQu, written in 2022
</metadata>
<rect width="304" height="296" fill="#A36CB7"/>
<g id="row0" transform="translate(10,0.0)">
<g id="0" transform="translate(0.0,0)scale(1,1)">

<path d="M170 95 c0 -31 -14 -32 -34 -3 -9 12 -16 17 -16 10 0 -14 36 -52 50 -52 6 0 10 16 10 35 0 19 -2 35 -5 35 -3 0 -5 -11 -5 -25z" transform="translate(0,74) scale(0.1,-0.1)" stroke="none" fill="#D6DACA"/>

<path d="M589 540 c-152 -57 -288 -179 -382 -341 -15 -25 -27 -52 -26 -60 0 -8 4 -5 9 7 19 47 107 173 156 221 55 55 196 153 223 154 21 1 101 38 81 37 -8 0 -36 -8 -61 -18z" transform="translate(0,74) scale(0.1,-0.1)" stroke="none" fill="#D6DACA"/>

<path d="M253 701 c-103 -30 -167 -95 -207 -210 -33 -94 -1 -274 61 -348 20 -24 20 -20 -6 27 -61 113 -76 236 -40 329 45 119 111 176 234 201 97 20 236 -4 347 -61 39 -20 63 -52 53 -69 -3 -6 1 -10 9 -10 19 0 19 2 4 35 -24 54 -218 126 -333 124 -33 0 -88 -8 -122 -18z" transform="translate(0,74) scale(0.1,-0.1)" stroke="none" fill="#D6DACA"/>

<path d="M345 645 c-83 -22 -103 -33 -151 -77 -88 -81 -129 -240 -89 -343 9 -25 20 -45 24 -45 3 0 19 28 34 63 71 160 213 292 385 359 47 18 49 38 4 37 -23 0 -24 -2 -8 -8 16 -6 3 -16 -65 -49 -57 -27 -108 -62 -156 -106 -74 -68 -170 -201 -180 -248 -7 -37 -19 -35 -32 3 -18 52 -13 138 11 209 46 132 155 202 318 203 52 0 75 3 60 8 -39 11 -101 9 -155 -6z" transform="translate(0,74) scale(0.1,-0.1)" stroke="none" fill="#D6DACA"/>

<path d="M274 697 c-110 -29 -170 -85 -214 -199 -34 -90 -19 -218 37 -318 13 -25 26 -53 29 -64 4 -21 23 -46 35 -46 5 0 9 10 9 23 2 103 175 319 322 400 62 35 134 63 176 70 30 5 35 12 22 36 -37 69 -292 129 -416 98z m249 -51 c32 -6 58 -16 58 -21 1 -6 -25 -20 -57 -33 -67 -27 -142 -75 -206 -131 -52 -46 -139 -171 -163 -235 -10 -25 -21 -46 -26 -46 -4 0 -15 20 -24 45 -24 62 -16 171 18 245 26 59 98 133 145 151 100 38 163 45 255 25z" transform="translate(0,74) scale(0.1,-0.1)" stroke="none" fill="#F7B83F"/>

</g>

<g id="1" transform="translate(76.0,0)scale(1,1)">

<path d="M170 95 c0 -31 -14 -32 -34 -3 -9 12 -16 17 -16 10 0 -14 36 -52 50 -52 6 0 10 16 10 35 0 19 -2 35 -5 35 -3 0 -5 -11 -5 -25z" transform="translate(0,74) scale(0.1,-0.1)" stroke="none" fill="#D6DACA"/>

<path d="M589 540 c-152 -57 -288 -179 -382 -341 -15 -25 -27 -52 -26 -60 0 -8 4 -5 9 7 19 47 107 173 156 221 55 55 196 153 223 154 21 1 101 38 81 37 -8 0 -36 -8 -61 -18z" transform="translate(0,74) scale(0.1,-0.1)" stroke="none" fill="#D6DACA"/>

<path d="M253 701 c-103 -30 -167 -95 -207 -210 -33 -94 -1 -274 61 -348 20 -24 20 -20 -6 27 -61 113 -76 236 -40 329 45 119 111 176 234 201 97 20 236 -4 347 -61 39 -20 63 -52 53 -69 -3 -6 1 -10 9 -10 19 0 19 2 4 35 -24 54 -218 126 -333 124 -33 0 -88 -8 -122 -18z" transform="translate(0,74) scale(0.1,-0.1)" stroke="none" fill="#D6DACA"/>

<path d="M345 645 c-83 -22 -103 -33 -151 -77 -88 -81 -129 -240 -89 -343 9 -25 20 -45 24 -45 3 0 19 28 34 63 71 160 213 292 385 359 47 18 49 38 4 37 -23 0 -24 -2 -8 -8 16 -6 3 -16 -65 -49 -57 -27 -108 -62 -156 -106 -74 -68 -170 -201 -180 -248 -7 -37 -19 -35 -32 3 -18 52 -13 138 11 209 46 132 155 202 318 203 52 0 75 3 60 8 -39 11 -101 9 -155 -6z" transform="translate(0,74) scale(0.1,-0.1)" stroke="none" fill="#D6DACA"/>

<path d="M274 697 c-110 -29 -170 -85 -214 -199 -34 -90 -19 -218 37 -318 13 -25 26 -53 29 -64 4 -21 23 -46 35 -46 5 0 9 10 9 23 2 103 175 319 322 400 62 35 134 63 176 70 30 5 35 12 22 36 -37 69 -292 129 -416 98z m249 -51 c32 -6 58 -16 58 -21 1 -6 -25 -20 -57 -33 -67 -27 -142 -75 -206 -131 -52 -46 -139 -171 -163 -235 -10 -25 -21 -46 -26 -46 -4 0 -15 20 -24 45 -24 62 -16 171 18 245 26 59 98 133 145 151 100 38 163 45 255 25z" transform="translate(0,74) scale(0.1,-0.1)" stroke="none" fill="#F7B83F"/>

</g>

<g id="2" transform="translate(152.0,0)scale(1,1)">

<path d="M170 95 c0 -31 -14 -32 -34 -3 -9 12 -16 17 -16 10 0 -14 36 -52 50 -52 6 0 10 16 10 35 0 19 -2 35 -5 35 -3 0 -5 -11 -5 -25z" transform="translate(0,74) scale(0.1,-0.1)" stroke="none" fill="#D6DACA"/>

<path d="M589 540 c-152 -57 -288 -179 -382 -341 -15 -25 -27 -52 -26 -60 0 -8 4 -5 9 7 19 47 107 173 156 221 55 55 196 153 223 154 21 1 101 38 81 37 -8 0 -36 -8 -61 -18z" transform="translate(0,74) scale(0.1,-0.1)" stroke="none" fill="#D6DACA"/>

<path d="M253 701 c-103 -30 -167 -95 -207 -210 -33 -94 -1 -274 61 -348 20 -24 20 -20 -6 27 -61 113 -76 236 -40 329 45 119 111 176 234 201 97 20 236 -4 347 -61 39 -20 63 -52 53 -69 -3 -6 1 -10 9 -10 19 0 19 2 4 35 -24 54 -218 126 -333 124 -33 0 -88 -8 -122 -18z" transform="translate(0,74) scale(0.1,-0.1)" stroke="none" fill="#D6DACA"/>

<path d="M345 645 c-83 -22 -103 -33 -151 -77 -88 -81 -129 -240 -89 -343 9 -25 20 -45 24 -45 3 0 19 28 34 63 71 160 213 292 385 359 47 18 49 38 4 37 -23 0 -24 -2 -8 -8 16 -6 3 -16 -65 -49 -57 -27 -108 -62 -156 -106 -74 -68 -170 -201 -180 -248 -7 -37 -19 -35 -32 3 -18 52 -13 138 11 209 46 132 155 202 318 203 52 0 75 3 60 8 -39 11 -101 9 -155 -6z" transform="translate(0,74) scale(0.1,-0.1)" stroke="none" fill="#D6DACA"/>

<path d="M274 697 c-110 -29 -170 -85 -214 -199 -34 -90 -19 -218 37 -318 13 -25 26 -53 29 -64 4 -21 23 -46 35 -46 5 0 9 10 9 23 2 103 175 319 322 400 62 35 134 63 176 70 30 5 35 12 22 36 -37 69 -292 129 -416 98z m249 -51 c32 -6 58 -16 58 -21 1 -6 -25 -20 -57 -33 -67 -27 -142 -75 -206 -131 -52 -46 -139 -171 -163 -235 -10 -25 -21 -46 -26 -46 -4 0 -15 20 -24 45 -24 62 -16 171 18 245 26 59 98 133 145 151 100 38 163 45 255 25z" transform="translate(0,74) scale(0.1,-0.1)" stroke="none" fill="#F7B83F"/>

</g>

<g id="3" transform="translate(228.0,0)scale(1,1)">

<path d="M170 95 c0 -31 -14 -32 -34 -3 -9 12 -16 17 -16 10 0 -14 36 -52 50 -52 6 0 10 16 10 35 0 19 -2 35 -5 35 -3 0 -5 -11 -5 -25z" transform="translate(0,74) scale(0.1,-0.1)" stroke="none" fill="#D6DACA"/>

<path d="M589 540 c-152 -57 -288 -179 -382 -341 -15 -25 -27 -52 -26 -60 0 -8 4 -5 9 7 19 47 107 173 156 221 55 55 196 153 223 154 21 1 101 38 81 37 -8 0 -36 -8 -61 -18z" transform="translate(0,74) scale(0.1,-0.1)" stroke="none" fill="#D6DACA"/>

<path d="M253 701 c-103 -30 -167 -95 -207 -210 -33 -94 -1 -274 61 -348 20 -24 20 -20 -6 27 -61 113 -76 236 -40 329 45 119 111 176 234 201 97 20 236 -4 347 -61 39 -20 63 -52 53 -69 -3 -6 1 -10 9 -10 19 0 19 2 4 35 -24 54 -218 126 -333 124 -33 0 -88 -8 -122 -18z" transform="translate(0,74) scale(0.1,-0.1)" stroke="none" fill="#D6DACA"/>

<path d="M345 645 c-83 -22 -103 -33 -151 -77 -88 -81 -129 -240 -89 -343 9 -25 20 -45 24 -45 3 0 19 28 34 63 71 160 213 292 385 359 47 18 49 38 4 37 -23 0 -24 -2 -8 -8 16 -6 3 -16 -65 -49 -57 -27 -108 -62 -156 -106 -74 -68 -170 -201 -180 -248 -7 -37 -19 -35 -32 3 -18 52 -13 138 11 209 46 132 155 202 318 203 52 0 75 3 60 8 -39 11 -101 9 -155 -6z" transform="translate(0,74) scale(0.1,-0.1)" stroke="none" fill="#D6DACA"/>

<path d="M274 697 c-110 -29 -170 -85 -214 -199 -34 -90 -19 -218 37 -318 13 -25 26 -53 29 -64 4 -21 23 -46 35 -46 5 0 9 10 9 23 2 103 175 319 322 400 62 35 134 63 176 70 30 5 35 12 22 36 -37 69 -292 129 -416 98z m249 -51 c32 -6 58 -16 58 -21 1 -6 -25 -20 -57 -33 -67 -27 -142 -75 -206 -131 -52 -46 -139 -171 -163 -235 -10 -25 -21 -46 -26 -46 -4 0 -15 20 -24 45 -24 62 -16 171 18 245 26 59 98 133 145 151 100 38 163 45 255 25z" transform="translate(0,74) scale(0.1,-0.1)" stroke="none" fill="#F7B83F"/>

</g>

<g id="4" transform="translate(304.0,0)scale(1,1)">

<path d="M170 95 c0 -31 -14 -32 -34 -3 -9 12 -16 17 -16 10 0 -14 36 -52 50 -52 6 0 10 16 10 35 0 19 -2 35 -5 35 -3 0 -5 -11 -5 -25z" transform="translate(0,74) scale(0.1,-0.1)" stroke="none" fill="#D6DACA"/>

<path d="M589 540 c-152 -57 -288 -179 -382 -341 -15 -25 -27 -52 -26 -60 0 -8 4 -5 9 7 19 47 107 173 156 221 55 55 196 153 223 154 21 1 101 38 81 37 -8 0 -36 -8 -61 -18z" transform="translate(0,74) scale(0.1,-0.1)" stroke="none" fill="#D6DACA"/>

<path d="M253 701 c-103 -30 -167 -95 -207 -210 -33 -94 -1 -274 61 -348 20 -24 20 -20 -6 27 -61 113 -76 236 -40 329 45 119 111 176 234 201 97 20 236 -4 347 -61 39 -20 63 -52 53 -69 -3 -6 1 -10 9 -10 19 0 19 2 4 35 -24 54 -218 126 -333 124 -33 0 -88 -8 -122 -18z" transform="translate(0,74) scale(0.1,-0.1)" stroke="none" fill="#D6DACA"/>

<path d="M345 645 c-83 -22 -103 -33 -151 -77 -88 -81 -129 -240 -89 -343 9 -25 20 -45 24 -45 3 0 19 28 34 63 71 160 213 292 385 359 47 18 49 38 4 37 -23 0 -24 -2 -8 -8 16 -6 3 -16 -65 -49 -57 -27 -108 -62 -156 -106 -74 -68 -170 -201 -180 -248 -7 -37 -19 -35 -32 3 -18 52 -13 138 11 209 46 132 155 202 318 203 52 0 75 3 60 8 -39 11 -101 9 -155 -6z" transform="translate(0,74) scale(0.1,-0.1)" stroke="none" fill="#D6DACA"/>

<path d="M274 697 c-110 -29 -170 -85 -214 -199 -34 -90 -19 -218 37 -318 13 -25 26 -53 29 -64 4 -21 23 -46 35 -46 5 0 9 10 9 23 2 103 175 319 322 400 62 35 134 63 176 70 30 5 35 12 22 36 -37 69 -292 129 -416 98z m249 -51 c32 -6 58 -16 58 -21 1 -6 -25 -20 -57 -33 -67 -27 -142 -75 -206 -131 -52 -46 -139 -171 -163 -235 -10 -25 -21 -46 -26 -46 -4 0 -15 20 -24 45 -24 62 -16 171 18 245 26 59 98 133 145 151 100 38 163 45 255 25z" transform="translate(0,74) scale(0.1,-0.1)" stroke="none" fill="#F7B83F"/>

</g>

</g>
<g id="row1" transform="translate(10,74.0)">
<g id="0" transform="translate(0.0,0)scale(1,1)">

<path d="M170 95 c0 -31 -14 -32 -34 -3 -9 12 -16 17 -16 10 0 -14 36 -52 50 -52 6 0 10 16 10 35 0 19 -2 35 -5 35 -3 0 -5 -11 -5 -25z" transform="translate(0,74) scale(0.1,-0.1)" stroke="none" fill="#D6DACA"/>

<path d="M589 540 c-152 -57 -288 -179 -382 -341 -15 -25 -27 -52 -26 -60 0 -8 4 -5 9 7 19 47 107 173 156 221 55 55 196 153 223 154 21 1 101 38 81 37 -8 0 -36 -8 -61 -18z" transform="translate(0,74) scale(0.1,-0.1)" stroke="none" fill="#D6DACA"/>

<path d="M253 701 c-103 -30 -167 -95 -207 -210 -33 -94 -1 -274 61 -348 20 -24 20 -20 -6 27 -61 113 -76 236 -40 329 45 119 111 176 234 201 97 20 236 -4 347 -61 39 -20 63 -52 53 -69 -3 -6 1 -10 9 -10 19 0 19 2 4 35 -24 54 -218 126 -333 124 -33 0 -88 -8 -122 -18z" transform="translate(0,74) scale(0.1,-0.1)" stroke="none" fill="#D6DACA"/>

<path d="M345 645 c-83 -22 -103 -33 -151 -77 -88 -81 -129 -240 -89 -343 9 -25 20 -45 24 -45 3 0 19 28 34 63 71 160 213 292 385 359 47 18 49 38 4 37 -23 0 -24 -2 -8 -8 16 -6 3 -16 -65 -49 -57 -27 -108 -62 -156 -106 -74 -68 -170 -201 -180 -248 -7 -37 -19 -35 -32 3 -18 52 -13 138 11 209 46 132 155 202 318 203 52 0 75 3 60 8 -39 11 -101 9 -155 -6z" transform="translate(0,74) scale(0.1,-0.1)" stroke="none" fill="#D6DACA"/>

<path d="M274 697 c-110 -29 -170 -85 -214 -199 -34 -90 -19 -218 37 -318 13 -25 26 -53 29 -64 4 -21 23 -46 35 -46 5 0 9 10 9 23 2 103 175 319 322 400 62 35 134 63 176 70 30 5 35 12 22 36 -37 69 -292 129 -416 98z m249 -51 c32 -6 58 -16 58 -21 1 -6 -25 -20 -57 -33 -67 -27 -142 -75 -206 -131 -52 -46 -139 -171 -163 -235 -10 -25 -21 -46 -26 -46 -4 0 -15 20 -24 45 -24 62 -16 171 18 245 26 59 98 133 145 151 100 38 163 45 255 25z" transform="translate(0,74) scale(0.1,-0.1)" stroke="none" fill="#F7B83F"/>

</g>

<g id="1" transform="translate(76.0,0)scale(1,1)">

<path d="M170 95 c0 -31 -14 -32 -34 -3 -9 12 -16 17 -16 10 0 -14 36 -52 50 -52 6 0 10 16 10 35 0 19 -2 35 -5 35 -3 0 -5 -11 -5 -25z" transform="translate(0,74) scale(0.1,-0.1)" stroke="none" fill="#D6DACA"/>

<path d="M589 540 c-152 -57 -288 -179 -382 -341 -15 -25 -27 -52 -26 -60 0 -8 4 -5 9 7 19 47 107 173 156 221 55 55 196 153 223 154 21 1 101 38 81 37 -8 0 -36 -8 -61 -18z" transform="translate(0,74) scale(0.1,-0.1)" stroke="none" fill="#D6DACA"/>

<path d="M253 701 c-103 -30 -167 -95 -207 -210 -33 -94 -1 -274 61 -348 20 -24 20 -20 -6 27 -61 113 -76 236 -40 329 45 119 111 176 234 201 97 20 236 -4 347 -61 39 -20 63 -52 53 -69 -3 -6 1 -10 9 -10 19 0 19 2 4 35 -24 54 -218 126 -333 124 -33 0 -88 -8 -122 -18z" transform="translate(0,74) scale(0.1,-0.1)" stroke="none" fill="#D6DACA"/>

<path d="M345 645 c-83 -22 -103 -33 -151 -77 -88 -81 -129 -240 -89 -343 9 -25 20 -45 24 -45 3 0 19 28 34 63 71 160 213 292 385 359 47 18 49 38 4 37 -23 0 -24 -2 -8 -8 16 -6 3 -16 -65 -49 -57 -27 -108 -62 -156 -106 -74 -68 -170 -201 -180 -248 -7 -37 -19 -35 -32 3 -18 52 -13 138 11 209 46 132 155 202 318 203 52 0 75 3 60 8 -39 11 -101 9 -155 -6z" transform="translate(0,74) scale(0.1,-0.1)" stroke="none" fill="#D6DACA"/>

<path d="M274 697 c-110 -29 -170 -85 -214 -199 -34 -90 -19 -218 37 -318 13 -25 26 -53 29 -64 4 -21 23 -46 35 -46 5 0 9 10 9 23 2 103 175 319 322 400 62 35 134 63 176 70 30 5 35 12 22 36 -37 69 -292 129 -416 98z m249 -51 c32 -6 58 -16 58 -21 1 -6 -25 -20 -57 -33 -67 -27 -142 -75 -206 -131 -52 -46 -139 -171 -163 -235 -10 -25 -21 -46 -26 -46 -4 0 -15 20 -24 45 -24 62 -16 171 18 245 26 59 98 133 145 151 100 38 163 45 255 25z" transform="translate(0,74) scale(0.1,-0.1)" stroke="none" fill="#F7B83F"/>

</g>

<g id="2" transform="translate(152.0,0)scale(1,1)">

<path d="M170 95 c0 -31 -14 -32 -34 -3 -9 12 -16 17 -16 10 0 -14 36 -52 50 -52 6 0 10 16 10 35 0 19 -2 35 -5 35 -3 0 -5 -11 -5 -25z" transform="translate(0,74) scale(0.1,-0.1)" stroke="none" fill="#D6DACA"/>

<path d="M589 540 c-152 -57 -288 -179 -382 -341 -15 -25 -27 -52 -26 -60 0 -8 4 -5 9 7 19 47 107 173 156 221 55 55 196 153 223 154 21 1 101 38 81 37 -8 0 -36 -8 -61 -18z" transform="translate(0,74) scale(0.1,-0.1)" stroke="none" fill="#D6DACA"/>

<path d="M253 701 c-103 -30 -167 -95 -207 -210 -33 -94 -1 -274 61 -348 20 -24 20 -20 -6 27 -61 113 -76 236 -40 329 45 119 111 176 234 201 97 20 236 -4 347 -61 39 -20 63 -52 53 -69 -3 -6 1 -10 9 -10 19 0 19 2 4 35 -24 54 -218 126 -333 124 -33 0 -88 -8 -122 -18z" transform="translate(0,74) scale(0.1,-0.1)" stroke="none" fill="#D6DACA"/>

<path d="M345 645 c-83 -22 -103 -33 -151 -77 -88 -81 -129 -240 -89 -343 9 -25 20 -45 24 -45 3 0 19 28 34 63 71 160 213 292 385 359 47 18 49 38 4 37 -23 0 -24 -2 -8 -8 16 -6 3 -16 -65 -49 -57 -27 -108 -62 -156 -106 -74 -68 -170 -201 -180 -248 -7 -37 -19 -35 -32 3 -18 52 -13 138 11 209 46 132 155 202 318 203 52 0 75 3 60 8 -39 11 -101 9 -155 -6z" transform="translate(0,74) scale(0.1,-0.1)" stroke="none" fill="#D6DACA"/>

<path d="M274 697 c-110 -29 -170 -85 -214 -199 -34 -90 -19 -218 37 -318 13 -25 26 -53 29 -64 4 -21 23 -46 35 -46 5 0 9 10 9 23 2 103 175 319 322 400 62 35 134 63 176 70 30 5 35 12 22 36 -37 69 -292 129 -416 98z m249 -51 c32 -6 58 -16 58 -21 1 -6 -25 -20 -57 -33 -67 -27 -142 -75 -206 -131 -52 -46 -139 -171 -163 -235 -10 -25 -21 -46 -26 -46 -4 0 -15 20 -24 45 -24 62 -16 171 18 245 26 59 98 133 145 151 100 38 163 45 255 25z" transform="translate(0,74) scale(0.1,-0.1)" stroke="none" fill="#F7B83F"/>

</g>

<g id="3" transform="translate(228.0,0)scale(1,1)">

<path d="M170 95 c0 -31 -14 -32 -34 -3 -9 12 -16 17 -16 10 0 -14 36 -52 50 -52 6 0 10 16 10 35 0 19 -2 35 -5 35 -3 0 -5 -11 -5 -25z" transform="translate(0,74) scale(0.1,-0.1)" stroke="none" fill="#D6DACA"/>

<path d="M589 540 c-152 -57 -288 -179 -382 -341 -15 -25 -27 -52 -26 -60 0 -8 4 -5 9 7 19 47 107 173 156 221 55 55 196 153 223 154 21 1 101 38 81 37 -8 0 -36 -8 -61 -18z" transform="translate(0,74) scale(0.1,-0.1)" stroke="none" fill="#D6DACA"/>

<path d="M253 701 c-103 -30 -167 -95 -207 -210 -33 -94 -1 -274 61 -348 20 -24 20 -20 -6 27 -61 113 -76 236 -40 329 45 119 111 176 234 201 97 20 236 -4 347 -61 39 -20 63 -52 53 -69 -3 -6 1 -10 9 -10 19 0 19 2 4 35 -24 54 -218 126 -333 124 -33 0 -88 -8 -122 -18z" transform="translate(0,74) scale(0.1,-0.1)" stroke="none" fill="#D6DACA"/>

<path d="M345 645 c-83 -22 -103 -33 -151 -77 -88 -81 -129 -240 -89 -343 9 -25 20 -45 24 -45 3 0 19 28 34 63 71 160 213 292 385 359 47 18 49 38 4 37 -23 0 -24 -2 -8 -8 16 -6 3 -16 -65 -49 -57 -27 -108 -62 -156 -106 -74 -68 -170 -201 -180 -248 -7 -37 -19 -35 -32 3 -18 52 -13 138 11 209 46 132 155 202 318 203 52 0 75 3 60 8 -39 11 -101 9 -155 -6z" transform="translate(0,74) scale(0.1,-0.1)" stroke="none" fill="#D6DACA"/>

<path d="M274 697 c-110 -29 -170 -85 -214 -199 -34 -90 -19 -218 37 -318 13 -25 26 -53 29 -64 4 -21 23 -46 35 -46 5 0 9 10 9 23 2 103 175 319 322 400 62 35 134 63 176 70 30 5 35 12 22 36 -37 69 -292 129 -416 98z m249 -51 c32 -6 58 -16 58 -21 1 -6 -25 -20 -57 -33 -67 -27 -142 -75 -206 -131 -52 -46 -139 -171 -163 -235 -10 -25 -21 -46 -26 -46 -4 0 -15 20 -24 45 -24 62 -16 171 18 245 26 59 98 133 145 151 100 38 163 45 255 25z" transform="translate(0,74) scale(0.1,-0.1)" stroke="none" fill="#F7B83F"/>

</g>

<g id="4" transform="translate(304.0,0)scale(1,1)">

<path d="M170 95 c0 -31 -14 -32 -34 -3 -9 12 -16 17 -16 10 0 -14 36 -52 50 -52 6 0 10 16 10 35 0 19 -2 35 -5 35 -3 0 -5 -11 -5 -25z" transform="translate(0,74) scale(0.1,-0.1)" stroke="none" fill="#D6DACA"/>

<path d="M589 540 c-152 -57 -288 -179 -382 -341 -15 -25 -27 -52 -26 -60 0 -8 4 -5 9 7 19 47 107 173 156 221 55 55 196 153 223 154 21 1 101 38 81 37 -8 0 -36 -8 -61 -18z" transform="translate(0,74) scale(0.1,-0.1)" stroke="none" fill="#D6DACA"/>

<path d="M253 701 c-103 -30 -167 -95 -207 -210 -33 -94 -1 -274 61 -348 20 -24 20 -20 -6 27 -61 113 -76 236 -40 329 45 119 111 176 234 201 97 20 236 -4 347 -61 39 -20 63 -52 53 -69 -3 -6 1 -10 9 -10 19 0 19 2 4 35 -24 54 -218 126 -333 124 -33 0 -88 -8 -122 -18z" transform="translate(0,74) scale(0.1,-0.1)" stroke="none" fill="#D6DACA"/>

<path d="M345 645 c-83 -22 -103 -33 -151 -77 -88 -81 -129 -240 -89 -343 9 -25 20 -45 24 -45 3 0 19 28 34 63 71 160 213 292 385 359 47 18 49 38 4 37 -23 0 -24 -2 -8 -8 16 -6 3 -16 -65 -49 -57 -27 -108 -62 -156 -106 -74 -68 -170 -201 -180 -248 -7 -37 -19 -35 -32 3 -18 52 -13 138 11 209 46 132 155 202 318 203 52 0 75 3 60 8 -39 11 -101 9 -155 -6z" transform="translate(0,74) scale(0.1,-0.1)" stroke="none" fill="#D6DACA"/>

<path d="M274 697 c-110 -29 -170 -85 -214 -199 -34 -90 -19 -218 37 -318 13 -25 26 -53 29 -64 4 -21 23 -46 35 -46 5 0 9 10 9 23 2 103 175 319 322 400 62 35 134 63 176 70 30 5 35 12 22 36 -37 69 -292 129 -416 98z m249 -51 c32 -6 58 -16 58 -21 1 -6 -25 -20 -57 -33 -67 -27 -142 -75 -206 -131 -52 -46 -139 -171 -163 -235 -10 -25 -21 -46 -26 -46 -4 0 -15 20 -24 45 -24 62 -16 171 18 245 26 59 98 133 145 151 100 38 163 45 255 25z" transform="translate(0,74) scale(0.1,-0.1)" stroke="none" fill="#F7B83F"/>

</g>

</g>
<g id="row2" transform="translate(10,148.0)">
<g id="0" transform="translate(0.0,0)scale(1,1)">

<path d="M170 95 c0 -31 -14 -32 -34 -3 -9 12 -16 17 -16 10 0 -14 36 -52 50 -52 6 0 10 16 10 35 0 19 -2 35 -5 35 -3 0 -5 -11 -5 -25z" transform="translate(0,74) scale(0.1,-0.1)" stroke="none" fill="#D6DACA"/>

<path d="M589 540 c-152 -57 -288 -179 -382 -341 -15 -25 -27 -52 -26 -60 0 -8 4 -5 9 7 19 47 107 173 156 221 55 55 196 153 223 154 21 1 101 38 81 37 -8 0 -36 -8 -61 -18z" transform="translate(0,74) scale(0.1,-0.1)" stroke="none" fill="#D6DACA"/>

<path d="M253 701 c-103 -30 -167 -95 -207 -210 -33 -94 -1 -274 61 -348 20 -24 20 -20 -6 27 -61 113 -76 236 -40 329 45 119 111 176 234 201 97 20 236 -4 347 -61 39 -20 63 -52 53 -69 -3 -6 1 -10 9 -10 19 0 19 2 4 35 -24 54 -218 126 -333 124 -33 0 -88 -8 -122 -18z" transform="translate(0,74) scale(0.1,-0.1)" stroke="none" fill="#D6DACA"/>

<path d="M345 645 c-83 -22 -103 -33 -151 -77 -88 -81 -129 -240 -89 -343 9 -25 20 -45 24 -45 3 0 19 28 34 63 71 160 213 292 385 359 47 18 49 38 4 37 -23 0 -24 -2 -8 -8 16 -6 3 -16 -65 -49 -57 -27 -108 -62 -156 -106 -74 -68 -170 -201 -180 -248 -7 -37 -19 -35 -32 3 -18 52 -13 138 11 209 46 132 155 202 318 203 52 0 75 3 60 8 -39 11 -101 9 -155 -6z" transform="translate(0,74) scale(0.1,-0.1)" stroke="none" fill="#D6DACA"/>

<path d="M274 697 c-110 -29 -170 -85 -214 -199 -34 -90 -19 -218 37 -318 13 -25 26 -53 29 -64 4 -21 23 -46 35 -46 5 0 9 10 9 23 2 103 175 319 322 400 62 35 134 63 176 70 30 5 35 12 22 36 -37 69 -292 129 -416 98z m249 -51 c32 -6 58 -16 58 -21 1 -6 -25 -20 -57 -33 -67 -27 -142 -75 -206 -131 -52 -46 -139 -171 -163 -235 -10 -25 -21 -46 -26 -46 -4 0 -15 20 -24 45 -24 62 -16 171 18 245 26 59 98 133 145 151 100 38 163 45 255 25z" transform="translate(0,74) scale(0.1,-0.1)" stroke="none" fill="#F7B83F"/>

</g>

<g id="1" transform="translate(76.0,0)scale(1,1)">

<path d="M170 95 c0 -31 -14 -32 -34 -3 -9 12 -16 17 -16 10 0 -14 36 -52 50 -52 6 0 10 16 10 35 0 19 -2 35 -5 35 -3 0 -5 -11 -5 -25z" transform="translate(0,74) scale(0.1,-0.1)" stroke="none" fill="#D6DACA"/>

<path d="M589 540 c-152 -57 -288 -179 -382 -341 -15 -25 -27 -52 -26 -60 0 -8 4 -5 9 7 19 47 107 173 156 221 55 55 196 153 223 154 21 1 101 38 81 37 -8 0 -36 -8 -61 -18z" transform="translate(0,74) scale(0.1,-0.1)" stroke="none" fill="#D6DACA"/>

<path d="M253 701 c-103 -30 -167 -95 -207 -210 -33 -94 -1 -274 61 -348 20 -24 20 -20 -6 27 -61 113 -76 236 -40 329 45 119 111 176 234 201 97 20 236 -4 347 -61 39 -20 63 -52 53 -69 -3 -6 1 -10 9 -10 19 0 19 2 4 35 -24 54 -218 126 -333 124 -33 0 -88 -8 -122 -18z" transform="translate(0,74) scale(0.1,-0.1)" stroke="none" fill="#D6DACA"/>

<path d="M345 645 c-83 -22 -103 -33 -151 -77 -88 -81 -129 -240 -89 -343 9 -25 20 -45 24 -45 3 0 19 28 34 63 71 160 213 292 385 359 47 18 49 38 4 37 -23 0 -24 -2 -8 -8 16 -6 3 -16 -65 -49 -57 -27 -108 -62 -156 -106 -74 -68 -170 -201 -180 -248 -7 -37 -19 -35 -32 3 -18 52 -13 138 11 209 46 132 155 202 318 203 52 0 75 3 60 8 -39 11 -101 9 -155 -6z" transform="translate(0,74) scale(0.1,-0.1)" stroke="none" fill="#D6DACA"/>

<path d="M274 697 c-110 -29 -170 -85 -214 -199 -34 -90 -19 -218 37 -318 13 -25 26 -53 29 -64 4 -21 23 -46 35 -46 5 0 9 10 9 23 2 103 175 319 322 400 62 35 134 63 176 70 30 5 35 12 22 36 -37 69 -292 129 -416 98z m249 -51 c32 -6 58 -16 58 -21 1 -6 -25 -20 -57 -33 -67 -27 -142 -75 -206 -131 -52 -46 -139 -171 -163 -235 -10 -25 -21 -46 -26 -46 -4 0 -15 20 -24 45 -24 62 -16 171 18 245 26 59 98 133 145 151 100 38 163 45 255 25z" transform="translate(0,74) scale(0.1,-0.1)" stroke="none" fill="#F7B83F"/>

</g>

<g id="2" transform="translate(152.0,0)scale(1,1)">

<path d="M170 95 c0 -31 -14 -32 -34 -3 -9 12 -16 17 -16 10 0 -14 36 -52 50 -52 6 0 10 16 10 35 0 19 -2 35 -5 35 -3 0 -5 -11 -5 -25z" transform="translate(0,74) scale(0.1,-0.1)" stroke="none" fill="#D6DACA"/>

<path d="M589 540 c-152 -57 -288 -179 -382 -341 -15 -25 -27 -52 -26 -60 0 -8 4 -5 9 7 19 47 107 173 156 221 55 55 196 153 223 154 21 1 101 38 81 37 -8 0 -36 -8 -61 -18z" transform="translate(0,74) scale(0.1,-0.1)" stroke="none" fill="#D6DACA"/>

<path d="M253 701 c-103 -30 -167 -95 -207 -210 -33 -94 -1 -274 61 -348 20 -24 20 -20 -6 27 -61 113 -76 236 -40 329 45 119 111 176 234 201 97 20 236 -4 347 -61 39 -20 63 -52 53 -69 -3 -6 1 -10 9 -10 19 0 19 2 4 35 -24 54 -218 126 -333 124 -33 0 -88 -8 -122 -18z" transform="translate(0,74) scale(0.1,-0.1)" stroke="none" fill="#D6DACA"/>

<path d="M345 645 c-83 -22 -103 -33 -151 -77 -88 -81 -129 -240 -89 -343 9 -25 20 -45 24 -45 3 0 19 28 34 63 71 160 213 292 385 359 47 18 49 38 4 37 -23 0 -24 -2 -8 -8 16 -6 3 -16 -65 -49 -57 -27 -108 -62 -156 -106 -74 -68 -170 -201 -180 -248 -7 -37 -19 -35 -32 3 -18 52 -13 138 11 209 46 132 155 202 318 203 52 0 75 3 60 8 -39 11 -101 9 -155 -6z" transform="translate(0,74) scale(0.1,-0.1)" stroke="none" fill="#D6DACA"/>

<path d="M274 697 c-110 -29 -170 -85 -214 -199 -34 -90 -19 -218 37 -318 13 -25 26 -53 29 -64 4 -21 23 -46 35 -46 5 0 9 10 9 23 2 103 175 319 322 400 62 35 134 63 176 70 30 5 35 12 22 36 -37 69 -292 129 -416 98z m249 -51 c32 -6 58 -16 58 -21 1 -6 -25 -20 -57 -33 -67 -27 -142 -75 -206 -131 -52 -46 -139 -171 -163 -235 -10 -25 -21 -46 -26 -46 -4 0 -15 20 -24 45 -24 62 -16 171 18 245 26 59 98 133 145 151 100 38 163 45 255 25z" transform="translate(0,74) scale(0.1,-0.1)" stroke="none" fill="#F7B83F"/>

</g>

<g id="3" transform="translate(228.0,0)scale(1,1)">

<path d="M170 95 c0 -31 -14 -32 -34 -3 -9 12 -16 17 -16 10 0 -14 36 -52 50 -52 6 0 10 16 10 35 0 19 -2 35 -5 35 -3 0 -5 -11 -5 -25z" transform="translate(0,74) scale(0.1,-0.1)" stroke="none" fill="#D6DACA"/>

<path d="M589 540 c-152 -57 -288 -179 -382 -341 -15 -25 -27 -52 -26 -60 0 -8 4 -5 9 7 19 47 107 173 156 221 55 55 196 153 223 154 21 1 101 38 81 37 -8 0 -36 -8 -61 -18z" transform="translate(0,74) scale(0.1,-0.1)" stroke="none" fill="#D6DACA"/>

<path d="M253 701 c-103 -30 -167 -95 -207 -210 -33 -94 -1 -274 61 -348 20 -24 20 -20 -6 27 -61 113 -76 236 -40 329 45 119 111 176 234 201 97 20 236 -4 347 -61 39 -20 63 -52 53 -69 -3 -6 1 -10 9 -10 19 0 19 2 4 35 -24 54 -218 126 -333 124 -33 0 -88 -8 -122 -18z" transform="translate(0,74) scale(0.1,-0.1)" stroke="none" fill="#D6DACA"/>

<path d="M345 645 c-83 -22 -103 -33 -151 -77 -88 -81 -129 -240 -89 -343 9 -25 20 -45 24 -45 3 0 19 28 34 63 71 160 213 292 385 359 47 18 49 38 4 37 -23 0 -24 -2 -8 -8 16 -6 3 -16 -65 -49 -57 -27 -108 -62 -156 -106 -74 -68 -170 -201 -180 -248 -7 -37 -19 -35 -32 3 -18 52 -13 138 11 209 46 132 155 202 318 203 52 0 75 3 60 8 -39 11 -101 9 -155 -6z" transform="translate(0,74) scale(0.1,-0.1)" stroke="none" fill="#D6DACA"/>

<path d="M274 697 c-110 -29 -170 -85 -214 -199 -34 -90 -19 -218 37 -318 13 -25 26 -53 29 -64 4 -21 23 -46 35 -46 5 0 9 10 9 23 2 103 175 319 322 400 62 35 134 63 176 70 30 5 35 12 22 36 -37 69 -292 129 -416 98z m249 -51 c32 -6 58 -16 58 -21 1 -6 -25 -20 -57 -33 -67 -27 -142 -75 -206 -131 -52 -46 -139 -171 -163 -235 -10 -25 -21 -46 -26 -46 -4 0 -15 20 -24 45 -24 62 -16 171 18 245 26 59 98 133 145 151 100 38 163 45 255 25z" transform="translate(0,74) scale(0.1,-0.1)" stroke="none" fill="#F7B83F"/>

</g>

<g id="4" transform="translate(304.0,0)scale(1,1)">

<path d="M170 95 c0 -31 -14 -32 -34 -3 -9 12 -16 17 -16 10 0 -14 36 -52 50 -52 6 0 10 16 10 35 0 19 -2 35 -5 35 -3 0 -5 -11 -5 -25z" transform="translate(0,74) scale(0.1,-0.1)" stroke="none" fill="#D6DACA"/>

<path d="M589 540 c-152 -57 -288 -179 -382 -341 -15 -25 -27 -52 -26 -60 0 -8 4 -5 9 7 19 47 107 173 156 221 55 55 196 153 223 154 21 1 101 38 81 37 -8 0 -36 -8 -61 -18z" transform="translate(0,74) scale(0.1,-0.1)" stroke="none" fill="#D6DACA"/>

<path d="M253 701 c-103 -30 -167 -95 -207 -210 -33 -94 -1 -274 61 -348 20 -24 20 -20 -6 27 -61 113 -76 236 -40 329 45 119 111 176 234 201 97 20 236 -4 347 -61 39 -20 63 -52 53 -69 -3 -6 1 -10 9 -10 19 0 19 2 4 35 -24 54 -218 126 -333 124 -33 0 -88 -8 -122 -18z" transform="translate(0,74) scale(0.1,-0.1)" stroke="none" fill="#D6DACA"/>

<path d="M345 645 c-83 -22 -103 -33 -151 -77 -88 -81 -129 -240 -89 -343 9 -25 20 -45 24 -45 3 0 19 28 34 63 71 160 213 292 385 359 47 18 49 38 4 37 -23 0 -24 -2 -8 -8 16 -6 3 -16 -65 -49 -57 -27 -108 -62 -156 -106 -74 -68 -170 -201 -180 -248 -7 -37 -19 -35 -32 3 -18 52 -13 138 11 209 46 132 155 202 318 203 52 0 75 3 60 8 -39 11 -101 9 -155 -6z" transform="translate(0,74) scale(0.1,-0.1)" stroke="none" fill="#D6DACA"/>

<path d="M274 697 c-110 -29 -170 -85 -214 -199 -34 -90 -19 -218 37 -318 13 -25 26 -53 29 -64 4 -21 23 -46 35 -46 5 0 9 10 9 23 2 103 175 319 322 400 62 35 134 63 176 70 30 5 35 12 22 36 -37 69 -292 129 -416 98z m249 -51 c32 -6 58 -16 58 -21 1 -6 -25 -20 -57 -33 -67 -27 -142 -75 -206 -131 -52 -46 -139 -171 -163 -235 -10 -25 -21 -46 -26 -46 -4 0 -15 20 -24 45 -24 62 -16 171 18 245 26 59 98 133 145 151 100 38 163 45 255 25z" transform="translate(0,74) scale(0.1,-0.1)" stroke="none" fill="#F7B83F"/>

</g>

</g>
<g id="row3" transform="translate(10,222.0)">
<g id="0" transform="translate(0.0,0)scale(1,1)">

<path d="M170 95 c0 -31 -14 -32 -34 -3 -9 12 -16 17 -16 10 0 -14 36 -52 50 -52 6 0 10 16 10 35 0 19 -2 35 -5 35 -3 0 -5 -11 -5 -25z" transform="translate(0,74) scale(0.1,-0.1)" stroke="none" fill="#D6DACA"/>

<path d="M589 540 c-152 -57 -288 -179 -382 -341 -15 -25 -27 -52 -26 -60 0 -8 4 -5 9 7 19 47 107 173 156 221 55 55 196 153 223 154 21 1 101 38 81 37 -8 0 -36 -8 -61 -18z" transform="translate(0,74) scale(0.1,-0.1)" stroke="none" fill="#D6DACA"/>

<path d="M253 701 c-103 -30 -167 -95 -207 -210 -33 -94 -1 -274 61 -348 20 -24 20 -20 -6 27 -61 113 -76 236 -40 329 45 119 111 176 234 201 97 20 236 -4 347 -61 39 -20 63 -52 53 -69 -3 -6 1 -10 9 -10 19 0 19 2 4 35 -24 54 -218 126 -333 124 -33 0 -88 -8 -122 -18z" transform="translate(0,74) scale(0.1,-0.1)" stroke="none" fill="#D6DACA"/>

<path d="M345 645 c-83 -22 -103 -33 -151 -77 -88 -81 -129 -240 -89 -343 9 -25 20 -45 24 -45 3 0 19 28 34 63 71 160 213 292 385 359 47 18 49 38 4 37 -23 0 -24 -2 -8 -8 16 -6 3 -16 -65 -49 -57 -27 -108 -62 -156 -106 -74 -68 -170 -201 -180 -248 -7 -37 -19 -35 -32 3 -18 52 -13 138 11 209 46 132 155 202 318 203 52 0 75 3 60 8 -39 11 -101 9 -155 -6z" transform="translate(0,74) scale(0.1,-0.1)" stroke="none" fill="#D6DACA"/>

<path d="M274 697 c-110 -29 -170 -85 -214 -199 -34 -90 -19 -218 37 -318 13 -25 26 -53 29 -64 4 -21 23 -46 35 -46 5 0 9 10 9 23 2 103 175 319 322 400 62 35 134 63 176 70 30 5 35 12 22 36 -37 69 -292 129 -416 98z m249 -51 c32 -6 58 -16 58 -21 1 -6 -25 -20 -57 -33 -67 -27 -142 -75 -206 -131 -52 -46 -139 -171 -163 -235 -10 -25 -21 -46 -26 -46 -4 0 -15 20 -24 45 -24 62 -16 171 18 245 26 59 98 133 145 151 100 38 163 45 255 25z" transform="translate(0,74) scale(0.1,-0.1)" stroke="none" fill="#F7B83F"/>

</g>

<g id="1" transform="translate(76.0,0)scale(1,1)">

<path d="M170 95 c0 -31 -14 -32 -34 -3 -9 12 -16 17 -16 10 0 -14 36 -52 50 -52 6 0 10 16 10 35 0 19 -2 35 -5 35 -3 0 -5 -11 -5 -25z" transform="translate(0,74) scale(0.1,-0.1)" stroke="none" fill="#D6DACA"/>

<path d="M589 540 c-152 -57 -288 -179 -382 -341 -15 -25 -27 -52 -26 -60 0 -8 4 -5 9 7 19 47 107 173 156 221 55 55 196 153 223 154 21 1 101 38 81 37 -8 0 -36 -8 -61 -18z" transform="translate(0,74) scale(0.1,-0.1)" stroke="none" fill="#D6DACA"/>

<path d="M253 701 c-103 -30 -167 -95 -207 -210 -33 -94 -1 -274 61 -348 20 -24 20 -20 -6 27 -61 113 -76 236 -40 329 45 119 111 176 234 201 97 20 236 -4 347 -61 39 -20 63 -52 53 -69 -3 -6 1 -10 9 -10 19 0 19 2 4 35 -24 54 -218 126 -333 124 -33 0 -88 -8 -122 -18z" transform="translate(0,74) scale(0.1,-0.1)" stroke="none" fill="#D6DACA"/>

<path d="M345 645 c-83 -22 -103 -33 -151 -77 -88 -81 -129 -240 -89 -343 9 -25 20 -45 24 -45 3 0 19 28 34 63 71 160 213 292 385 359 47 18 49 38 4 37 -23 0 -24 -2 -8 -8 16 -6 3 -16 -65 -49 -57 -27 -108 -62 -156 -106 -74 -68 -170 -201 -180 -248 -7 -37 -19 -35 -32 3 -18 52 -13 138 11 209 46 132 155 202 318 203 52 0 75 3 60 8 -39 11 -101 9 -155 -6z" transform="translate(0,74) scale(0.1,-0.1)" stroke="none" fill="#D6DACA"/>

<path d="M274 697 c-110 -29 -170 -85 -214 -199 -34 -90 -19 -218 37 -318 13 -25 26 -53 29 -64 4 -21 23 -46 35 -46 5 0 9 10 9 23 2 103 175 319 322 400 62 35 134 63 176 70 30 5 35 12 22 36 -37 69 -292 129 -416 98z m249 -51 c32 -6 58 -16 58 -21 1 -6 -25 -20 -57 -33 -67 -27 -142 -75 -206 -131 -52 -46 -139 -171 -163 -235 -10 -25 -21 -46 -26 -46 -4 0 -15 20 -24 45 -24 62 -16 171 18 245 26 59 98 133 145 151 100 38 163 45 255 25z" transform="translate(0,74) scale(0.1,-0.1)" stroke="none" fill="#F7B83F"/>

</g>

<g id="2" transform="translate(152.0,0)scale(1,1)">

<path d="M170 95 c0 -31 -14 -32 -34 -3 -9 12 -16 17 -16 10 0 -14 36 -52 50 -52 6 0 10 16 10 35 0 19 -2 35 -5 35 -3 0 -5 -11 -5 -25z" transform="translate(0,74) scale(0.1,-0.1)" stroke="none" fill="#D6DACA"/>

<path d="M589 540 c-152 -57 -288 -179 -382 -341 -15 -25 -27 -52 -26 -60 0 -8 4 -5 9 7 19 47 107 173 156 221 55 55 196 153 223 154 21 1 101 38 81 37 -8 0 -36 -8 -61 -18z" transform="translate(0,74) scale(0.1,-0.1)" stroke="none" fill="#D6DACA"/>

<path d="M253 701 c-103 -30 -167 -95 -207 -210 -33 -94 -1 -274 61 -348 20 -24 20 -20 -6 27 -61 113 -76 236 -40 329 45 119 111 176 234 201 97 20 236 -4 347 -61 39 -20 63 -52 53 -69 -3 -6 1 -10 9 -10 19 0 19 2 4 35 -24 54 -218 126 -333 124 -33 0 -88 -8 -122 -18z" transform="translate(0,74) scale(0.1,-0.1)" stroke="none" fill="#D6DACA"/>

<path d="M345 645 c-83 -22 -103 -33 -151 -77 -88 -81 -129 -240 -89 -343 9 -25 20 -45 24 -45 3 0 19 28 34 63 71 160 213 292 385 359 47 18 49 38 4 37 -23 0 -24 -2 -8 -8 16 -6 3 -16 -65 -49 -57 -27 -108 -62 -156 -106 -74 -68 -170 -201 -180 -248 -7 -37 -19 -35 -32 3 -18 52 -13 138 11 209 46 132 155 202 318 203 52 0 75 3 60 8 -39 11 -101 9 -155 -6z" transform="translate(0,74) scale(0.1,-0.1)" stroke="none" fill="#D6DACA"/>

<path d="M274 697 c-110 -29 -170 -85 -214 -199 -34 -90 -19 -218 37 -318 13 -25 26 -53 29 -64 4 -21 23 -46 35 -46 5 0 9 10 9 23 2 103 175 319 322 400 62 35 134 63 176 70 30 5 35 12 22 36 -37 69 -292 129 -416 98z m249 -51 c32 -6 58 -16 58 -21 1 -6 -25 -20 -57 -33 -67 -27 -142 -75 -206 -131 -52 -46 -139 -171 -163 -235 -10 -25 -21 -46 -26 -46 -4 0 -15 20 -24 45 -24 62 -16 171 18 245 26 59 98 133 145 151 100 38 163 45 255 25z" transform="translate(0,74) scale(0.1,-0.1)" stroke="none" fill="#F7B83F"/>

</g>

<g id="3" transform="translate(228.0,0)scale(1,1)">

<path d="M170 95 c0 -31 -14 -32 -34 -3 -9 12 -16 17 -16 10 0 -14 36 -52 50 -52 6 0 10 16 10 35 0 19 -2 35 -5 35 -3 0 -5 -11 -5 -25z" transform="translate(0,74) scale(0.1,-0.1)" stroke="none" fill="#D6DACA"/>

<path d="M589 540 c-152 -57 -288 -179 -382 -341 -15 -25 -27 -52 -26 -60 0 -8 4 -5 9 7 19 47 107 173 156 221 55 55 196 153 223 154 21 1 101 38 81 37 -8 0 -36 -8 -61 -18z" transform="translate(0,74) scale(0.1,-0.1)" stroke="none" fill="#D6DACA"/>

<path d="M253 701 c-103 -30 -167 -95 -207 -210 -33 -94 -1 -274 61 -348 20 -24 20 -20 -6 27 -61 113 -76 236 -40 329 45 119 111 176 234 201 97 20 236 -4 347 -61 39 -20 63 -52 53 -69 -3 -6 1 -10 9 -10 19 0 19 2 4 35 -24 54 -218 126 -333 124 -33 0 -88 -8 -122 -18z" transform="translate(0,74) scale(0.1,-0.1)" stroke="none" fill="#D6DACA"/>

<path d="M345 645 c-83 -22 -103 -33 -151 -77 -88 -81 -129 -240 -89 -343 9 -25 20 -45 24 -45 3 0 19 28 34 63 71 160 213 292 385 359 47 18 49 38 4 37 -23 0 -24 -2 -8 -8 16 -6 3 -16 -65 -49 -57 -27 -108 -62 -156 -106 -74 -68 -170 -201 -180 -248 -7 -37 -19 -35 -32 3 -18 52 -13 138 11 209 46 132 155 202 318 203 52 0 75 3 60 8 -39 11 -101 9 -155 -6z" transform="translate(0,74) scale(0.1,-0.1)" stroke="none" fill="#D6DACA"/>

<path d="M274 697 c-110 -29 -170 -85 -214 -199 -34 -90 -19 -218 37 -318 13 -25 26 -53 29 -64 4 -21 23 -46 35 -46 5 0 9 10 9 23 2 103 175 319 322 400 62 35 134 63 176 70 30 5 35 12 22 36 -37 69 -292 129 -416 98z m249 -51 c32 -6 58 -16 58 -21 1 -6 -25 -20 -57 -33 -67 -27 -142 -75 -206 -131 -52 -46 -139 -171 -163 -235 -10 -25 -21 -46 -26 -46 -4 0 -15 20 -24 45 -24 62 -16 171 18 245 26 59 98 133 145 151 100 38 163 45 255 25z" transform="translate(0,74) scale(0.1,-0.1)" stroke="none" fill="#F7B83F"/>

</g>

<g id="4" transform="translate(304.0,0)scale(1,1)">

<path d="M170 95 c0 -31 -14 -32 -34 -3 -9 12 -16 17 -16 10 0 -14 36 -52 50 -52 6 0 10 16 10 35 0 19 -2 35 -5 35 -3 0 -5 -11 -5 -25z" transform="translate(0,74) scale(0.1,-0.1)" stroke="none" fill="#D6DACA"/>

<path d="M589 540 c-152 -57 -288 -179 -382 -341 -15 -25 -27 -52 -26 -60 0 -8 4 -5 9 7 19 47 107 173 156 221 55 55 196 153 223 154 21 1 101 38 81 37 -8 0 -36 -8 -61 -18z" transform="translate(0,74) scale(0.1,-0.1)" stroke="none" fill="#D6DACA"/>

<path d="M253 701 c-103 -30 -167 -95 -207 -210 -33 -94 -1 -274 61 -348 20 -24 20 -20 -6 27 -61 113 -76 236 -40 329 45 119 111 176 234 201 97 20 236 -4 347 -61 39 -20 63 -52 53 -69 -3 -6 1 -10 9 -10 19 0 19 2 4 35 -24 54 -218 126 -333 124 -33 0 -88 -8 -122 -18z" transform="translate(0,74) scale(0.1,-0.1)" stroke="none" fill="#D6DACA"/>

<path d="M345 645 c-83 -22 -103 -33 -151 -77 -88 -81 -129 -240 -89 -343 9 -25 20 -45 24 -45 3 0 19 28 34 63 71 160 213 292 385 359 47 18 49 38 4 37 -23 0 -24 -2 -8 -8 16 -6 3 -16 -65 -49 -57 -27 -108 -62 -156 -106 -74 -68 -170 -201 -180 -248 -7 -37 -19 -35 -32 3 -18 52 -13 138 11 209 46 132 155 202 318 203 52 0 75 3 60 8 -39 11 -101 9 -155 -6z" transform="translate(0,74) scale(0.1,-0.1)" stroke="none" fill="#D6DACA"/>

<path d="M274 697 c-110 -29 -170 -85 -214 -199 -34 -90 -19 -218 37 -318 13 -25 26 -53 29 -64 4 -21 23 -46 35 -46 5 0 9 10 9 23 2 103 175 319 322 400 62 35 134 63 176 70 30 5 35 12 22 36 -37 69 -292 129 -416 98z m249 -51 c32 -6 58 -16 58 -21 1 -6 -25 -20 -57 -33 -67 -27 -142 -75 -206 -131 -52 -46 -139 -171 -163 -235 -10 -25 -21 -46 -26 -46 -4 0 -15 20 -24 45 -24 62 -16 171 18 245 26 59 98 133 145 151 100 38 163 45 255 25z" transform="translate(0,74) scale(0.1,-0.1)" stroke="none" fill="#F7B83F"/>

</g>

</g>
</svg>