<?xml version="1.0" standalone="no"?>
<!DOCTYPE svg PUBLIC "-//W3C//DTD SVG 20010904//EN"
 "http://www.w3.org/TR/2001/REC-SVG-20010904/DTD/svg10.dtd">
<svg version="1.0" xmlns="http://www.w3.org/2000/svg" 
width="126.000000pt" height="122.000000pt" viewBox="0 0 126.000000 122.000000"
preserveAspectRatio = "xMidYMid meet" >
<metadata>
Created by ZoeQU, 2022
</metadata>
<rect width="126.000000" height="122.000000" fill="#DEE2ED"/>
<path d="M480 560 c0 -6 -11 -8 -25 -4 -21 5 -25 3 -25 -17 0 -30 49 -61 74 -47 23 13 21 37 -4 31 -23 -6 -28 15 -8 35 9 9 9 12 0 12 -7 0 -12 -5 -12 -10z" transform="translate(0.000000,122.000000) scale(0.100000,-0.100000)" stroke="none" fill="#AAC5D7"/>

<path d="M596 771 c-3 -4 -19 -11 -36 -14 -16 -4 -30 -11 -30 -17 0 -6 6 -7 18 -1 52 27 72 33 86 28 17 -7 22 -27 6 -27 -23 0 -49 -43 -43 -71 6 -32 -12 -40 -36 -16 -11 10 -11 8 -2 -11 20 -37 45 -24 52 27 5 40 21 62 53 74 15 6 -24 36 -46 37 -9 0 -19 -4 -22 -9z" transform="translate(0.000000,122.000000) scale(0.100000,-0.100000)" stroke="none" fill="#7FA1B1"/>

<path d="M440 460 c-8 -5 -30 -10 -48 -10 -30 0 -32 -2 -26 -27 4 -16 13 -35 21 -43 13 -13 17 -12 34 9 11 13 29 24 42 25 16 1 22 7 22 26 0 27 -21 36 -45 20z" transform="translate(0.000000,122.000000) scale(0.100000,-0.100000)" stroke="none" fill="#AAC5D7"/>

<path d="M585 758 c-11 -6 -27 -14 -35 -18 -22 -11 -22 -31 0 -67 26 -43 55 -45 47 -4 -6 28 15 63 44 73 17 6 2 28 -19 27 -9 0 -26 -5 -37 -11z" transform="translate(0.000000,122.000000) scale(0.100000,-0.100000)" stroke="none" fill="#547A8A"/>

<path d="M325 607 c-30 -18 -36 -31 -20 -43 8 -6 15 -16 15 -23 0 -16 37 -51 55 -51 11 0 15 11 15 39 0 22 5 43 10 46 18 11 11 23 -21 34 -18 6 -32 11 -33 10 -1 0 -10 -6 -21 -12z" transform="translate(0.000000,122.000000) scale(0.100000,-0.100000)" stroke="none" fill="#123B42"/>

<path d="M665 749 c-43 -35 -55 -52 -55 -82 0 -18 -6 -39 -12 -46 -11 -10 -8 -11 14 -6 26 7 26 6 21 -32 -7 -51 12 -68 70 -60 30 4 48 14 64 34 18 21 20 29 9 31 -20 4 -26 39 -10 53 8 6 14 18 14 26 0 9 6 13 15 9 22 -8 18 9 -8 39 -21 25 -25 26 -51 14 -25 -12 -30 -11 -45 7 -9 11 -21 17 -26 13z m83 -180 c-2 -6 -8 -10 -13 -10 -5 0 -11 4 -13 10 -2 6 4 11 13 11 9 0 15 -5 13 -11z m-78 -19 c0 -5 -7 -10 -15 -10 -8 0 -15 5 -15 10 0 6 7 10 15 10 8 0 15 -4 15 -10z" transform="translate(0.000000,122.000000) scale(0.100000,-0.100000)" stroke="none" fill="#041A19"/>

<path d="M623 807 c-18 -20 -18 -20 5 -5 28 19 76 12 67 -10 -4 -12 -3 -12 9 -3 9 8 16 8 20 2 4 -6 13 -8 21 -5 8 3 30 -10 52 -31 21 -20 43 -40 49 -43 6 -4 14 -37 16 -74 l6 -68 -38 -34 c-29 -26 -47 -34 -76 -34 -28 0 -42 -6 -52 -21 -19 -29 -37 -26 -83 10 -41 32 -51 59 -21 60 13 0 13 2 -4 9 -29 12 -38 28 -25 44 9 10 8 15 -3 19 -20 8 -58 83 -55 110 1 12 -3 34 -9 49 -8 20 -16 25 -32 21 -11 -3 -23 -9 -25 -13 -7 -11 5 -41 14 -36 4 3 13 1 21 -5 12 -7 9 -9 -10 -9 -14 0 -33 -11 -45 -25 -11 -14 -29 -26 -40 -28 -35 -5 -48 -17 -34 -33 6 -8 17 -14 23 -13 25 3 35 -2 41 -21 5 -15 15 -20 43 -20 46 0 51 -4 96 -63 37 -49 45 -69 24 -64 -7 1 -14 -8 -16 -20 -2 -13 2 -23 8 -23 6 0 18 -7 26 -15 20 -19 48 -19 64 0 14 17 109 65 129 65 7 0 27 11 44 24 18 13 47 28 66 33 19 5 44 21 55 37 20 26 20 28 3 37 -11 7 -15 17 -12 32 7 26 -21 55 -71 75 -18 8 -44 27 -60 43 -15 16 -34 29 -41 29 -7 0 -13 4 -13 9 0 10 -39 22 -87 26 -22 2 -37 -3 -50 -18z" transform="translate(0.000000,122.000000) scale(0.100000,-0.100000)" stroke="none" fill="#123B42"/>

<path d="M922 505 c-23 -13 -51 -25 -62 -28 -12 -3 -20 -14 -20 -25 0 -12 -4 -23 -10 -27 -13 -8 -50 17 -50 33 0 7 -4 10 -10 7 -5 -3 -10 -17 -10 -31 0 -20 -5 -24 -28 -24 -16 0 -38 -9 -50 -20 -12 -11 -31 -20 -42 -20 -12 0 -29 -4 -39 -10 -12 -6 -30 -6 -51 0 -18 5 -40 6 -48 1 -13 -7 -11 -11 8 -21 12 -6 34 -10 49 -7 37 8 107 -34 116 -70 5 -20 2 -31 -12 -42 -37 -31 -46 -50 -33 -66 6 -8 10 -20 8 -27 -5 -14 15 -38 32 -38 13 0 64 36 99 70 31 30 65 50 85 50 7 0 19 6 25 14 8 10 23 13 46 9 29 -5 41 0 70 26 20 17 39 31 44 31 4 0 4 23 0 51 -4 28 -4 61 1 74 7 17 5 25 -6 29 -8 3 -14 9 -13 13 4 21 -3 33 -29 51 -27 20 -27 20 -70 -3z" transform="translate(0.000000,122.000000) scale(0.100000,-0.100000)" stroke="none" fill="#AAC5D7"/>

<path d="M664 1142 c-6 -4 -15 -22 -19 -40 -9 -41 -38 -41 -43 1 -4 35 -19 34 -40 -2 -16 -29 -63 -46 -79 -30 -5 5 -19 6 -31 2 -19 -5 -22 -10 -17 -34 8 -33 -10 -39 -31 -11 -13 16 -15 15 -35 -10 -23 -31 -41 -35 -59 -13 -21 25 -30 17 -30 -26 0 -33 -7 -49 -35 -80 -41 -46 -46 -77 -12 -77 12 -1 33 -2 47 -4 22 -3 25 0 22 26 -3 25 -1 28 12 17 18 -15 45 -11 70 11 34 31 104 52 129 40 12 -6 29 -12 37 -14 9 -3 4 -11 -18 -23 -41 -25 -49 -45 -17 -45 14 0 25 -4 25 -10 0 -5 7 -10 15 -10 8 0 15 9 15 20 0 11 5 20 10 20 6 0 10 -9 10 -20 0 -20 24 -28 34 -11 14 23 100 16 142 -12 7 -4 15 0 18 9 5 13 14 8 46 -26 22 -23 40 -46 40 -50 0 -13 81 -23 92 -12 12 12 -7 52 -25 52 -8 0 -26 13 -42 29 -23 25 -27 36 -23 69 4 24 1 45 -8 57 -8 11 -14 43 -14 76 0 50 -3 60 -26 78 -16 12 -39 20 -60 19 -23 -1 -42 6 -57 20 -26 24 -27 25 -43 14z" transform="translate(0.000000,122.000000) scale(0.100000,-0.100000)" stroke="none" fill="#AAC5D7"/>

<path d="M639 1158 c-9 -17 -12 -17 -25 -3 -17 17 -34 11 -71 -24 -12 -12 -35 -21 -51 -21 -16 0 -63 -11 -103 -24 -41 -13 -91 -26 -113 -29 -64 -10 -86 -31 -86 -82 0 -33 -4 -45 -15 -45 -26 0 -33 -93 -10 -150 6 -17 -53 -90 -72 -90 -7 0 -24 -16 -39 -35 -27 -36 -27 -37 -8 -135 9 -48 54 -108 85 -115 14 -3 48 -7 75 -9 66 -5 102 -23 109 -55 11 -49 51 -106 75 -109 35 -6 69 -29 125 -87 45 -46 132 -95 169 -95 6 0 45 27 85 60 41 33 80 60 87 60 8 0 19 9 26 20 10 15 24 20 60 20 33 0 51 5 60 18 7 10 27 27 43 39 24 17 30 29 30 60 2 181 4 193 29 204 13 6 30 22 37 35 6 13 20 26 29 29 32 10 42 46 31 115 -7 42 -7 68 -1 74 21 21 9 45 -37 73 -68 40 -123 62 -160 62 -17 1 -35 6 -38 11 -3 6 -16 10 -27 10 -35 0 -68 45 -68 93 0 35 -6 47 -31 70 -20 17 -42 27 -63 27 -20 0 -40 8 -50 19 -25 27 -74 33 -87 9z m74 -18 c14 -11 39 -20 55 -20 18 0 43 -11 61 -26 28 -23 31 -31 31 -85 0 -58 1 -60 30 -70 34 -12 37 -21 15 -43 -21 -21 -19 -46 4 -46 11 0 23 5 26 10 4 6 15 8 24 5 10 -3 24 1 31 10 16 20 44 19 103 -3 56 -21 83 -54 78 -97 -4 -39 -49 -102 -81 -113 -37 -13 -57 -88 -41 -151 6 -25 10 -85 9 -134 -2 -76 -4 -89 -22 -101 -12 -8 -32 -23 -45 -35 -15 -13 -38 -21 -62 -21 -43 0 -82 -22 -173 -97 -35 -29 -71 -53 -80 -53 -21 0 -84 40 -115 73 -21 23 -28 50 -30 110 -1 24 -21 22 -21 -3 0 -26 -15 -25 -43 0 -12 11 -38 26 -59 32 -30 9 -40 18 -49 47 -17 51 -46 89 -72 93 -18 2 -21 8 -19 36 2 18 -1 32 -7 32 -16 0 -14 31 5 75 11 27 12 41 5 48 -8 8 -14 8 -23 -1 -17 -17 -48 -15 -48 3 0 8 7 15 15 15 22 0 18 18 -5 25 -11 3 -20 15 -20 25 0 10 -3 25 -6 33 -3 8 1 21 9 28 12 12 12 19 -6 56 l-21 43 26 48 c17 32 24 57 21 75 -4 22 -2 27 14 27 11 0 25 11 31 25 10 21 18 25 46 23 18 -1 44 5 57 13 47 30 119 49 142 37 18 -9 24 -6 50 26 35 44 53 46 61 5 6 -34 26 -31 26 5 0 42 31 49 73 16z m-586 -504 c-8 -20 -47 -21 -47 -1 0 18 32 37 44 25 5 -5 6 -16 3 -24z m-23 -45 c3 -4 3 -11 0 -14 -8 -8 -34 3 -34 14 0 11 27 12 34 0z" transform="translate(0.000000,122.000000) scale(0.100000,-0.100000)" stroke="none" fill="#123B42"/>

<path d="M647 1153 c-4 -3 -7 -17 -7 -29 0 -36 -20 -39 -26 -5 -8 41 -26 39 -61 -5 -26 -32 -32 -35 -50 -26 -23 12 -95 -7 -142 -37 -13 -8 -39 -14 -57 -13 -28 2 -36 -2 -46 -23 -6 -14 -20 -25 -31 -25 -16 0 -18 -5 -14 -27 3 -18 -4 -43 -21 -75 l-26 -48 21 -43 c18 -37 18 -44 6 -56 -8 -7 -12 -20 -9 -28 3 -8 6 -23 6 -33 0 -10 9 -22 20 -25 23 -7 27 -25 5 -25 -8 0 -15 -7 -15 -15 0 -18 31 -20 48 -3 9 9 15 9 23 1 7 -7 6 -21 -5 -48 -19 -44 -21 -75 -5 -75 6 0 9 -14 7 -32 -2 -28 1 -34 19 -36 26 -4 55 -42 72 -93 9 -29 19 -38 49 -47 21 -6 47 -21 59 -32 28 -25 43 -26 43 0 0 25 20 27 21 3 2 -60 9 -87 30 -110 31 -33 94 -73 115 -73 9 0 45 24 80 53 91 75 130 97 173 97 24 0 47 8 62 21 13 12 33 27 45 35 18 12 20 25 22 101 1 49 -3 109 -9 134 -16 63 4 138 41 151 32 11 77 74 81 113 5 43 -22 76 -78 97 -59 22 -87 23 -103 3 -7 -9 -21 -13 -31 -10 -9 3 -20 1 -24 -5 -3 -5 -15 -10 -26 -10 -23 0 -25 25 -4 46 22 22 19 31 -15 43 -29 10 -30 12 -30 70 0 54 -3 62 -31 85 -18 15 -43 26 -61 26 -16 0 -41 9 -55 20 -26 20 -54 26 -66 13z m60 -25 c15 -14 34 -21 57 -20 21 1 44 -7 60 -19 23 -18 26 -28 26 -78 0 -33 6 -65 14 -76 9 -12 12 -33 8 -57 -4 -33 0 -44 23 -69 16 -16 34 -29 42 -29 18 0 37 -40 25 -52 -11 -11 -92 -1 -92 12 0 4 -18 27 -40 50 -32 34 -41 39 -46 26 -5 -13 -10 -14 -20 -5 -7 6 -19 9 -26 6 -8 -4 -7 -6 5 -6 9 -1 17 -5 17 -11 0 -5 6 -10 13 -10 7 0 26 -13 41 -29 16 -16 42 -35 60 -43 50 -20 78 -49 71 -75 -3 -15 1 -25 12 -32 17 -9 17 -11 -3 -37 -11 -16 -36 -32 -55 -37 -19 -5 -48 -20 -66 -33 -17 -13 -37 -24 -44 -24 -20 0 -115 -48 -129 -65 -16 -19 -44 -19 -64 0 -8 8 -20 15 -26 15 -6 0 -10 10 -8 23 2 12 9 21 16 19 21 -4 13 16 -24 65 -45 59 -50 63 -96 63 -28 0 -38 5 -43 20 -6 19 -16 24 -41 21 -6 -1 -17 5 -23 13 -14 16 -1 28 34 33 11 2 29 14 40 28 12 14 31 25 45 25 19 0 22 2 10 9 -8 6 -17 8 -21 5 -9 -5 -21 25 -14 36 2 4 14 10 25 13 16 4 24 -1 32 -21 6 -15 10 -37 9 -49 -1 -12 2 -30 8 -40 9 -14 9 -12 5 13 -6 33 18 70 38 58 7 -5 8 -2 3 6 -4 7 -2 16 6 21 19 12 32 11 24 -1 -12 -19 2 -10 26 18 13 15 17 21 9 15 -21 -19 -40 -16 -40 7 0 11 -4 20 -10 20 -5 0 -10 -9 -10 -20 0 -11 -7 -20 -15 -20 -8 0 -15 5 -15 10 0 6 -11 10 -25 10 -32 0 -24 20 17 45 22 12 27 20 18 23 -8 2 -25 8 -37 14 -25 12 -95 -9 -129 -40 -25 -22 -52 -26 -70 -11 -13 11 -15 8 -12 -17 3 -26 0 -29 -22 -26 -14 2 -35 3 -47 4 -34 0 -29 31 12 77 28 31 35 47 35 80 0 43 9 51 30 26 18 -22 36 -18 59 13 20 25 22 26 35 10 21 -28 39 -22 31 11 -5 24 -2 29 17 34 12 4 26 3 31 -2 16 -16 63 1 79 30 21 36 36 37 40 2 5 -42 34 -42 43 -1 7 29 20 47 34 48 3 0 15 -10 28 -22z m253 -318 c0 -5 -4 -10 -10 -10 -5 0 -10 5 -10 10 0 6 5 10 10 10 6 0 10 -4 10 -10z m-425 -30 c3 -5 1 -10 -4 -10 -6 0 -11 5 -11 10 0 6 2 10 4 10 3 0 8 -4 11 -10z m-270 -70 l30 -20 -41 0 c-27 0 -44 5 -47 14 -12 31 16 34 58 6z m114 -101 c32 -11 39 -23 21 -34 -5 -3 -10 -24 -10 -46 0 -28 -4 -39 -15 -39 -18 0 -55 35 -55 51 0 7 -7 17 -15 23 -19 14 -12 25 41 55 1 1 15 -4 33 -10z m621 -42 c0 -18 -2 -19 -10 -7 -13 20 -13 43 0 35 6 -3 10 -16 10 -28z m-508 -9 c-20 -20 -15 -41 8 -35 25 6 27 -18 4 -31 -25 -14 -74 17 -74 47 0 20 4 22 25 17 14 -4 25 -2 25 4 0 5 5 10 12 10 9 0 9 -3 0 -12z m529 -81 c1 -7 1 -16 0 -20 -1 -4 5 -10 13 -13 11 -4 13 -12 6 -29 -5 -13 -5 -46 -1 -74 4 -28 4 -51 0 -51 -5 0 -24 -14 -44 -31 -29 -26 -41 -31 -70 -26 -23 4 -38 1 -46 -9 -6 -8 -18 -14 -25 -14 -20 0 -54 -20 -85 -50 -35 -34 -86 -70 -99 -70 -17 0 -37 24 -32 38 2 7 -2 19 -8 27 -13 16 -4 35 33 66 14 11 17 22 12 42 -9 36 -79 78 -116 70 -15 -3 -37 1 -49 7 -19 10 -21 14 -8 21 8 5 30 4 48 -1 21 -6 39 -6 51 0 10 6 27 10 39 10 11 0 30 9 42 20 12 11 34 20 50 20 23 0 28 4 28 24 0 14 5 28 10 31 6 3 10 0 10 -7 0 -16 37 -41 50 -33 6 4 10 15 10 27 0 11 8 22 20 25 11 3 39 15 62 28 43 23 43 23 70 3 16 -11 29 -25 29 -31z m-536 -37 c0 -19 -6 -25 -22 -26 -13 -1 -31 -12 -42 -25 -17 -21 -21 -22 -34 -9 -8 8 -17 27 -21 43 -6 25 -4 27 26 27 18 0 40 5 48 10 24 16 45 7 45 -20z" transform="translate(0.000000,122.000000) scale(0.100000,-0.100000)" stroke="none" fill="#295769"/>

</svg>