<?xml version="1.0" standalone="no"?>
<!DOCTYPE svg PUBLIC "-//W3C//DTD SVG 20010904//EN"
 "http://www.w3.org/TR/2001/REC-SVG-20010904/DTD/svg10.dtd">
<svg version="1.0" xmlns="http://www.w3.org/2000/svg" width="328pt" height="320pt" viewBox="0 0 328 320" preserveAspectRatio = "xMidYMid meet" >
<metadata>
Created by ZoeQu, written in 2022
</metadata>
<rect width="328" height="320" fill="#D9D6A4"/>
<g id="row0" transform="translate(10,0.0)">
<g id="0" transform="translate(0.0,0)scale(1,1)">

<path d="M381 512 c-36 -20 -71 -72 -71 -108 0 -31 43 -72 85 -80 47 -9 111 20 136 61 60 97 -44 184 -150 127z" transform="translate(0,80) scale(0.1,-0.1)" stroke="none" fill="#936C3F"/>

<path d="M538 745 c-49 -18 -120 -72 -148 -112 -24 -35 -50 -42 -69 -20 -12 15 -97 37 -151 39 -78 3 -138 -59 -120 -123 20 -71 45 -97 119 -126 l24 -9 -35 -22 c-72 -44 -111 -127 -79 -166 21 -25 73 -19 122 13 24 17 45 28 48 25 2 -2 -8 -26 -22 -53 -79 -144 42 -223 157 -103 16 17 34 41 40 53 16 33 29 32 47 -4 17 -34 71 -77 98 -77 28 0 79 38 97 72 12 24 17 56 16 123 0 49 -2 99 -4 109 -2 14 5 21 26 27 87 24 90 126 4 193 -29 23 -32 28 -20 46 26 43 5 93 -50 114 -45 19 -52 19 -100 1z m-19 -241 c23 -19 31 -34 31 -57 0 -105 -146 -165 -216 -90 -29 31 -30 57 -6 102 38 70 135 93 191 45z" transform="translate(0,80) scale(0.1,-0.1)" stroke="none" fill="#F3A181"/>

</g>

<g id="1" transform="translate(82.0,0)scale(1,1)">

<path d="M381 512 c-36 -20 -71 -72 -71 -108 0 -31 43 -72 85 -80 47 -9 111 20 136 61 60 97 -44 184 -150 127z" transform="translate(0,80) scale(0.1,-0.1)" stroke="none" fill="#936C3F"/>

<path d="M538 745 c-49 -18 -120 -72 -148 -112 -24 -35 -50 -42 -69 -20 -12 15 -97 37 -151 39 -78 3 -138 -59 -120 -123 20 -71 45 -97 119 -126 l24 -9 -35 -22 c-72 -44 -111 -127 -79 -166 21 -25 73 -19 122 13 24 17 45 28 48 25 2 -2 -8 -26 -22 -53 -79 -144 42 -223 157 -103 16 17 34 41 40 53 16 33 29 32 47 -4 17 -34 71 -77 98 -77 28 0 79 38 97 72 12 24 17 56 16 123 0 49 -2 99 -4 109 -2 14 5 21 26 27 87 24 90 126 4 193 -29 23 -32 28 -20 46 26 43 5 93 -50 114 -45 19 -52 19 -100 1z m-19 -241 c23 -19 31 -34 31 -57 0 -105 -146 -165 -216 -90 -29 31 -30 57 -6 102 38 70 135 93 191 45z" transform="translate(0,80) scale(0.1,-0.1)" stroke="none" fill="#F3A181"/>

</g>

<g id="2" transform="translate(164.0,0)scale(1,1)">

<path d="M381 512 c-36 -20 -71 -72 -71 -108 0 -31 43 -72 85 -80 47 -9 111 20 136 61 60 97 -44 184 -150 127z" transform="translate(0,80) scale(0.1,-0.1)" stroke="none" fill="#936C3F"/>

<path d="M538 745 c-49 -18 -120 -72 -148 -112 -24 -35 -50 -42 -69 -20 -12 15 -97 37 -151 39 -78 3 -138 -59 -120 -123 20 -71 45 -97 119 -126 l24 -9 -35 -22 c-72 -44 -111 -127 -79 -166 21 -25 73 -19 122 13 24 17 45 28 48 25 2 -2 -8 -26 -22 -53 -79 -144 42 -223 157 -103 16 17 34 41 40 53 16 33 29 32 47 -4 17 -34 71 -77 98 -77 28 0 79 38 97 72 12 24 17 56 16 123 0 49 -2 99 -4 109 -2 14 5 21 26 27 87 24 90 126 4 193 -29 23 -32 28 -20 46 26 43 5 93 -50 114 -45 19 -52 19 -100 1z m-19 -241 c23 -19 31 -34 31 -57 0 -105 -146 -165 -216 -90 -29 31 -30 57 -6 102 38 70 135 93 191 45z" transform="translate(0,80) scale(0.1,-0.1)" stroke="none" fill="#F3A181"/>

</g>

<g id="3" transform="translate(246.0,0)scale(1,1)">

<path d="M381 512 c-36 -20 -71 -72 -71 -108 0 -31 43 -72 85 -80 47 -9 111 20 136 61 60 97 -44 184 -150 127z" transform="translate(0,80) scale(0.1,-0.1)" stroke="none" fill="#936C3F"/>

<path d="M538 745 c-49 -18 -120 -72 -148 -112 -24 -35 -50 -42 -69 -20 -12 15 -97 37 -151 39 -78 3 -138 -59 -120 -123 20 -71 45 -97 119 -126 l24 -9 -35 -22 c-72 -44 -111 -127 -79 -166 21 -25 73 -19 122 13 24 17 45 28 48 25 2 -2 -8 -26 -22 -53 -79 -144 42 -223 157 -103 16 17 34 41 40 53 16 33 29 32 47 -4 17 -34 71 -77 98 -77 28 0 79 38 97 72 12 24 17 56 16 123 0 49 -2 99 -4 109 -2 14 5 21 26 27 87 24 90 126 4 193 -29 23 -32 28 -20 46 26 43 5 93 -50 114 -45 19 -52 19 -100 1z m-19 -241 c23 -19 31 -34 31 -57 0 -105 -146 -165 -216 -90 -29 31 -30 57 -6 102 38 70 135 93 191 45z" transform="translate(0,80) scale(0.1,-0.1)" stroke="none" fill="#F3A181"/>

</g>

<g id="4" transform="translate(328.0,0)scale(1,1)">

<path d="M381 512 c-36 -20 -71 -72 -71 -108 0 -31 43 -72 85 -80 47 -9 111 20 136 61 60 97 -44 184 -150 127z" transform="translate(0,80) scale(0.1,-0.1)" stroke="none" fill="#936C3F"/>

<path d="M538 745 c-49 -18 -120 -72 -148 -112 -24 -35 -50 -42 -69 -20 -12 15 -97 37 -151 39 -78 3 -138 -59 -120 -123 20 -71 45 -97 119 -126 l24 -9 -35 -22 c-72 -44 -111 -127 -79 -166 21 -25 73 -19 122 13 24 17 45 28 48 25 2 -2 -8 -26 -22 -53 -79 -144 42 -223 157 -103 16 17 34 41 40 53 16 33 29 32 47 -4 17 -34 71 -77 98 -77 28 0 79 38 97 72 12 24 17 56 16 123 0 49 -2 99 -4 109 -2 14 5 21 26 27 87 24 90 126 4 193 -29 23 -32 28 -20 46 26 43 5 93 -50 114 -45 19 -52 19 -100 1z m-19 -241 c23 -19 31 -34 31 -57 0 -105 -146 -165 -216 -90 -29 31 -30 57 -6 102 38 70 135 93 191 45z" transform="translate(0,80) scale(0.1,-0.1)" stroke="none" fill="#F3A181"/>

</g>

</g>
<g id="row1" transform="translate(10,80.0)">
<g id="0" transform="translate(0.0,0)scale(1,1)">

<path d="M381 512 c-36 -20 -71 -72 -71 -108 0 -31 43 -72 85 -80 47 -9 111 20 136 61 60 97 -44 184 -150 127z" transform="translate(0,80) scale(0.1,-0.1)" stroke="none" fill="#936C3F"/>

<path d="M538 745 c-49 -18 -120 -72 -148 -112 -24 -35 -50 -42 -69 -20 -12 15 -97 37 -151 39 -78 3 -138 -59 -120 -123 20 -71 45 -97 119 -126 l24 -9 -35 -22 c-72 -44 -111 -127 -79 -166 21 -25 73 -19 122 13 24 17 45 28 48 25 2 -2 -8 -26 -22 -53 -79 -144 42 -223 157 -103 16 17 34 41 40 53 16 33 29 32 47 -4 17 -34 71 -77 98 -77 28 0 79 38 97 72 12 24 17 56 16 123 0 49 -2 99 -4 109 -2 14 5 21 26 27 87 24 90 126 4 193 -29 23 -32 28 -20 46 26 43 5 93 -50 114 -45 19 -52 19 -100 1z m-19 -241 c23 -19 31 -34 31 -57 0 -105 -146 -165 -216 -90 -29 31 -30 57 -6 102 38 70 135 93 191 45z" transform="translate(0,80) scale(0.1,-0.1)" stroke="none" fill="#F3A181"/>

</g>

<g id="1" transform="translate(82.0,0)scale(1,1)">

<path d="M381 512 c-36 -20 -71 -72 -71 -108 0 -31 43 -72 85 -80 47 -9 111 20 136 61 60 97 -44 184 -150 127z" transform="translate(0,80) scale(0.1,-0.1)" stroke="none" fill="#936C3F"/>

<path d="M538 745 c-49 -18 -120 -72 -148 -112 -24 -35 -50 -42 -69 -20 -12 15 -97 37 -151 39 -78 3 -138 -59 -120 -123 20 -71 45 -97 119 -126 l24 -9 -35 -22 c-72 -44 -111 -127 -79 -166 21 -25 73 -19 122 13 24 17 45 28 48 25 2 -2 -8 -26 -22 -53 -79 -144 42 -223 157 -103 16 17 34 41 40 53 16 33 29 32 47 -4 17 -34 71 -77 98 -77 28 0 79 38 97 72 12 24 17 56 16 123 0 49 -2 99 -4 109 -2 14 5 21 26 27 87 24 90 126 4 193 -29 23 -32 28 -20 46 26 43 5 93 -50 114 -45 19 -52 19 -100 1z m-19 -241 c23 -19 31 -34 31 -57 0 -105 -146 -165 -216 -90 -29 31 -30 57 -6 102 38 70 135 93 191 45z" transform="translate(0,80) scale(0.1,-0.1)" stroke="none" fill="#F3A181"/>

</g>

<g id="2" transform="translate(164.0,0)scale(1,1)">

<path d="M381 512 c-36 -20 -71 -72 -71 -108 0 -31 43 -72 85 -80 47 -9 111 20 136 61 60 97 -44 184 -150 127z" transform="translate(0,80) scale(0.1,-0.1)" stroke="none" fill="#936C3F"/>

<path d="M538 745 c-49 -18 -120 -72 -148 -112 -24 -35 -50 -42 -69 -20 -12 15 -97 37 -151 39 -78 3 -138 -59 -120 -123 20 -71 45 -97 119 -126 l24 -9 -35 -22 c-72 -44 -111 -127 -79 -166 21 -25 73 -19 122 13 24 17 45 28 48 25 2 -2 -8 -26 -22 -53 -79 -144 42 -223 157 -103 16 17 34 41 40 53 16 33 29 32 47 -4 17 -34 71 -77 98 -77 28 0 79 38 97 72 12 24 17 56 16 123 0 49 -2 99 -4 109 -2 14 5 21 26 27 87 24 90 126 4 193 -29 23 -32 28 -20 46 26 43 5 93 -50 114 -45 19 -52 19 -100 1z m-19 -241 c23 -19 31 -34 31 -57 0 -105 -146 -165 -216 -90 -29 31 -30 57 -6 102 38 70 135 93 191 45z" transform="translate(0,80) scale(0.1,-0.1)" stroke="none" fill="#F3A181"/>

</g>

<g id="3" transform="translate(246.0,0)scale(1,1)">

<path d="M381 512 c-36 -20 -71 -72 -71 -108 0 -31 43 -72 85 -80 47 -9 111 20 136 61 60 97 -44 184 -150 127z" transform="translate(0,80) scale(0.1,-0.1)" stroke="none" fill="#936C3F"/>

<path d="M538 745 c-49 -18 -120 -72 -148 -112 -24 -35 -50 -42 -69 -20 -12 15 -97 37 -151 39 -78 3 -138 -59 -120 -123 20 -71 45 -97 119 -126 l24 -9 -35 -22 c-72 -44 -111 -127 -79 -166 21 -25 73 -19 122 13 24 17 45 28 48 25 2 -2 -8 -26 -22 -53 -79 -144 42 -223 157 -103 16 17 34 41 40 53 16 33 29 32 47 -4 17 -34 71 -77 98 -77 28 0 79 38 97 72 12 24 17 56 16 123 0 49 -2 99 -4 109 -2 14 5 21 26 27 87 24 90 126 4 193 -29 23 -32 28 -20 46 26 43 5 93 -50 114 -45 19 -52 19 -100 1z m-19 -241 c23 -19 31 -34 31 -57 0 -105 -146 -165 -216 -90 -29 31 -30 57 -6 102 38 70 135 93 191 45z" transform="translate(0,80) scale(0.1,-0.1)" stroke="none" fill="#F3A181"/>

</g>

<g id="4" transform="translate(328.0,0)scale(1,1)">

<path d="M381 512 c-36 -20 -71 -72 -71 -108 0 -31 43 -72 85 -80 47 -9 111 20 136 61 60 97 -44 184 -150 127z" transform="translate(0,80) scale(0.1,-0.1)" stroke="none" fill="#936C3F"/>

<path d="M538 745 c-49 -18 -120 -72 -148 -112 -24 -35 -50 -42 -69 -20 -12 15 -97 37 -151 39 -78 3 -138 -59 -120 -123 20 -71 45 -97 119 -126 l24 -9 -35 -22 c-72 -44 -111 -127 -79 -166 21 -25 73 -19 122 13 24 17 45 28 48 25 2 -2 -8 -26 -22 -53 -79 -144 42 -223 157 -103 16 17 34 41 40 53 16 33 29 32 47 -4 17 -34 71 -77 98 -77 28 0 79 38 97 72 12 24 17 56 16 123 0 49 -2 99 -4 109 -2 14 5 21 26 27 87 24 90 126 4 193 -29 23 -32 28 -20 46 26 43 5 93 -50 114 -45 19 -52 19 -100 1z m-19 -241 c23 -19 31 -34 31 -57 0 -105 -146 -165 -216 -90 -29 31 -30 57 -6 102 38 70 135 93 191 45z" transform="translate(0,80) scale(0.1,-0.1)" stroke="none" fill="#F3A181"/>

</g>

</g>
<g id="row2" transform="translate(10,160.0)">
<g id="0" transform="translate(0.0,0)scale(1,1)">

<path d="M381 512 c-36 -20 -71 -72 -71 -108 0 -31 43 -72 85 -80 47 -9 111 20 136 61 60 97 -44 184 -150 127z" transform="translate(0,80) scale(0.1,-0.1)" stroke="none" fill="#936C3F"/>

<path d="M538 745 c-49 -18 -120 -72 -148 -112 -24 -35 -50 -42 -69 -20 -12 15 -97 37 -151 39 -78 3 -138 -59 -120 -123 20 -71 45 -97 119 -126 l24 -9 -35 -22 c-72 -44 -111 -127 -79 -166 21 -25 73 -19 122 13 24 17 45 28 48 25 2 -2 -8 -26 -22 -53 -79 -144 42 -223 157 -103 16 17 34 41 40 53 16 33 29 32 47 -4 17 -34 71 -77 98 -77 28 0 79 38 97 72 12 24 17 56 16 123 0 49 -2 99 -4 109 -2 14 5 21 26 27 87 24 90 126 4 193 -29 23 -32 28 -20 46 26 43 5 93 -50 114 -45 19 -52 19 -100 1z m-19 -241 c23 -19 31 -34 31 -57 0 -105 -146 -165 -216 -90 -29 31 -30 57 -6 102 38 70 135 93 191 45z" transform="translate(0,80) scale(0.1,-0.1)" stroke="none" fill="#F3A181"/>

</g>

<g id="1" transform="translate(82.0,0)scale(1,1)">

<path d="M381 512 c-36 -20 -71 -72 -71 -108 0 -31 43 -72 85 -80 47 -9 111 20 136 61 60 97 -44 184 -150 127z" transform="translate(0,80) scale(0.1,-0.1)" stroke="none" fill="#936C3F"/>

<path d="M538 745 c-49 -18 -120 -72 -148 -112 -24 -35 -50 -42 -69 -20 -12 15 -97 37 -151 39 -78 3 -138 -59 -120 -123 20 -71 45 -97 119 -126 l24 -9 -35 -22 c-72 -44 -111 -127 -79 -166 21 -25 73 -19 122 13 24 17 45 28 48 25 2 -2 -8 -26 -22 -53 -79 -144 42 -223 157 -103 16 17 34 41 40 53 16 33 29 32 47 -4 17 -34 71 -77 98 -77 28 0 79 38 97 72 12 24 17 56 16 123 0 49 -2 99 -4 109 -2 14 5 21 26 27 87 24 90 126 4 193 -29 23 -32 28 -20 46 26 43 5 93 -50 114 -45 19 -52 19 -100 1z m-19 -241 c23 -19 31 -34 31 -57 0 -105 -146 -165 -216 -90 -29 31 -30 57 -6 102 38 70 135 93 191 45z" transform="translate(0,80) scale(0.1,-0.1)" stroke="none" fill="#F3A181"/>

</g>

<g id="2" transform="translate(164.0,0)scale(1,1)">

<path d="M381 512 c-36 -20 -71 -72 -71 -108 0 -31 43 -72 85 -80 47 -9 111 20 136 61 60 97 -44 184 -150 127z" transform="translate(0,80) scale(0.1,-0.1)" stroke="none" fill="#936C3F"/>

<path d="M538 745 c-49 -18 -120 -72 -148 -112 -24 -35 -50 -42 -69 -20 -12 15 -97 37 -151 39 -78 3 -138 -59 -120 -123 20 -71 45 -97 119 -126 l24 -9 -35 -22 c-72 -44 -111 -127 -79 -166 21 -25 73 -19 122 13 24 17 45 28 48 25 2 -2 -8 -26 -22 -53 -79 -144 42 -223 157 -103 16 17 34 41 40 53 16 33 29 32 47 -4 17 -34 71 -77 98 -77 28 0 79 38 97 72 12 24 17 56 16 123 0 49 -2 99 -4 109 -2 14 5 21 26 27 87 24 90 126 4 193 -29 23 -32 28 -20 46 26 43 5 93 -50 114 -45 19 -52 19 -100 1z m-19 -241 c23 -19 31 -34 31 -57 0 -105 -146 -165 -216 -90 -29 31 -30 57 -6 102 38 70 135 93 191 45z" transform="translate(0,80) scale(0.1,-0.1)" stroke="none" fill="#F3A181"/>

</g>

<g id="3" transform="translate(246.0,0)scale(1,1)">

<path d="M381 512 c-36 -20 -71 -72 -71 -108 0 -31 43 -72 85 -80 47 -9 111 20 136 61 60 97 -44 184 -150 127z" transform="translate(0,80) scale(0.1,-0.1)" stroke="none" fill="#936C3F"/>

<path d="M538 745 c-49 -18 -120 -72 -148 -112 -24 -35 -50 -42 -69 -20 -12 15 -97 37 -151 39 -78 3 -138 -59 -120 -123 20 -71 45 -97 119 -126 l24 -9 -35 -22 c-72 -44 -111 -127 -79 -166 21 -25 73 -19 122 13 24 17 45 28 48 25 2 -2 -8 -26 -22 -53 -79 -144 42 -223 157 -103 16 17 34 41 40 53 16 33 29 32 47 -4 17 -34 71 -77 98 -77 28 0 79 38 97 72 12 24 17 56 16 123 0 49 -2 99 -4 109 -2 14 5 21 26 27 87 24 90 126 4 193 -29 23 -32 28 -20 46 26 43 5 93 -50 114 -45 19 -52 19 -100 1z m-19 -241 c23 -19 31 -34 31 -57 0 -105 -146 -165 -216 -90 -29 31 -30 57 -6 102 38 70 135 93 191 45z" transform="translate(0,80) scale(0.1,-0.1)" stroke="none" fill="#F3A181"/>

</g>

<g id="4" transform="translate(328.0,0)scale(1,1)">

<path d="M381 512 c-36 -20 -71 -72 -71 -108 0 -31 43 -72 85 -80 47 -9 111 20 136 61 60 97 -44 184 -150 127z" transform="translate(0,80) scale(0.1,-0.1)" stroke="none" fill="#936C3F"/>

<path d="M538 745 c-49 -18 -120 -72 -148 -112 -24 -35 -50 -42 -69 -20 -12 15 -97 37 -151 39 -78 3 -138 -59 -120 -123 20 -71 45 -97 119 -126 l24 -9 -35 -22 c-72 -44 -111 -127 -79 -166 21 -25 73 -19 122 13 24 17 45 28 48 25 2 -2 -8 -26 -22 -53 -79 -144 42 -223 157 -103 16 17 34 41 40 53 16 33 29 32 47 -4 17 -34 71 -77 98 -77 28 0 79 38 97 72 12 24 17 56 16 123 0 49 -2 99 -4 109 -2 14 5 21 26 27 87 24 90 126 4 193 -29 23 -32 28 -20 46 26 43 5 93 -50 114 -45 19 -52 19 -100 1z m-19 -241 c23 -19 31 -34 31 -57 0 -105 -146 -165 -216 -90 -29 31 -30 57 -6 102 38 70 135 93 191 45z" transform="translate(0,80) scale(0.1,-0.1)" stroke="none" fill="#F3A181"/>

</g>

</g>
<g id="row3" transform="translate(10,240.0)">
<g id="0" transform="translate(0.0,0)scale(1,1)">

<path d="M381 512 c-36 -20 -71 -72 -71 -108 0 -31 43 -72 85 -80 47 -9 111 20 136 61 60 97 -44 184 -150 127z" transform="translate(0,80) scale(0.1,-0.1)" stroke="none" fill="#936C3F"/>

<path d="M538 745 c-49 -18 -120 -72 -148 -112 -24 -35 -50 -42 -69 -20 -12 15 -97 37 -151 39 -78 3 -138 -59 -120 -123 20 -71 45 -97 119 -126 l24 -9 -35 -22 c-72 -44 -111 -127 -79 -166 21 -25 73 -19 122 13 24 17 45 28 48 25 2 -2 -8 -26 -22 -53 -79 -144 42 -223 157 -103 16 17 34 41 40 53 16 33 29 32 47 -4 17 -34 71 -77 98 -77 28 0 79 38 97 72 12 24 17 56 16 123 0 49 -2 99 -4 109 -2 14 5 21 26 27 87 24 90 126 4 193 -29 23 -32 28 -20 46 26 43 5 93 -50 114 -45 19 -52 19 -100 1z m-19 -241 c23 -19 31 -34 31 -57 0 -105 -146 -165 -216 -90 -29 31 -30 57 -6 102 38 70 135 93 191 45z" transform="translate(0,80) scale(0.1,-0.1)" stroke="none" fill="#F3A181"/>

</g>

<g id="1" transform="translate(82.0,0)scale(1,1)">

<path d="M381 512 c-36 -20 -71 -72 -71 -108 0 -31 43 -72 85 -80 47 -9 111 20 136 61 60 97 -44 184 -150 127z" transform="translate(0,80) scale(0.1,-0.1)" stroke="none" fill="#936C3F"/>

<path d="M538 745 c-49 -18 -120 -72 -148 -112 -24 -35 -50 -42 -69 -20 -12 15 -97 37 -151 39 -78 3 -138 -59 -120 -123 20 -71 45 -97 119 -126 l24 -9 -35 -22 c-72 -44 -111 -127 -79 -166 21 -25 73 -19 122 13 24 17 45 28 48 25 2 -2 -8 -26 -22 -53 -79 -144 42 -223 157 -103 16 17 34 41 40 53 16 33 29 32 47 -4 17 -34 71 -77 98 -77 28 0 79 38 97 72 12 24 17 56 16 123 0 49 -2 99 -4 109 -2 14 5 21 26 27 87 24 90 126 4 193 -29 23 -32 28 -20 46 26 43 5 93 -50 114 -45 19 -52 19 -100 1z m-19 -241 c23 -19 31 -34 31 -57 0 -105 -146 -165 -216 -90 -29 31 -30 57 -6 102 38 70 135 93 191 45z" transform="translate(0,80) scale(0.1,-0.1)" stroke="none" fill="#F3A181"/>

</g>

<g id="2" transform="translate(164.0,0)scale(1,1)">

<path d="M381 512 c-36 -20 -71 -72 -71 -108 0 -31 43 -72 85 -80 47 -9 111 20 136 61 60 97 -44 184 -150 127z" transform="translate(0,80) scale(0.1,-0.1)" stroke="none" fill="#936C3F"/>

<path d="M538 745 c-49 -18 -120 -72 -148 -112 -24 -35 -50 -42 -69 -20 -12 15 -97 37 -151 39 -78 3 -138 -59 -120 -123 20 -71 45 -97 119 -126 l24 -9 -35 -22 c-72 -44 -111 -127 -79 -166 21 -25 73 -19 122 13 24 17 45 28 48 25 2 -2 -8 -26 -22 -53 -79 -144 42 -223 157 -103 16 17 34 41 40 53 16 33 29 32 47 -4 17 -34 71 -77 98 -77 28 0 79 38 97 72 12 24 17 56 16 123 0 49 -2 99 -4 109 -2 14 5 21 26 27 87 24 90 126 4 193 -29 23 -32 28 -20 46 26 43 5 93 -50 114 -45 19 -52 19 -100 1z m-19 -241 c23 -19 31 -34 31 -57 0 -105 -146 -165 -216 -90 -29 31 -30 57 -6 102 38 70 135 93 191 45z" transform="translate(0,80) scale(0.1,-0.1)" stroke="none" fill="#F3A181"/>

</g>

<g id="3" transform="translate(246.0,0)scale(1,1)">

<path d="M381 512 c-36 -20 -71 -72 -71 -108 0 -31 43 -72 85 -80 47 -9 111 20 136 61 60 97 -44 184 -150 127z" transform="translate(0,80) scale(0.1,-0.1)" stroke="none" fill="#936C3F"/>

<path d="M538 745 c-49 -18 -120 -72 -148 -112 -24 -35 -50 -42 -69 -20 -12 15 -97 37 -151 39 -78 3 -138 -59 -120 -123 20 -71 45 -97 119 -126 l24 -9 -35 -22 c-72 -44 -111 -127 -79 -166 21 -25 73 -19 122 13 24 17 45 28 48 25 2 -2 -8 -26 -22 -53 -79 -144 42 -223 157 -103 16 17 34 41 40 53 16 33 29 32 47 -4 17 -34 71 -77 98 -77 28 0 79 38 97 72 12 24 17 56 16 123 0 49 -2 99 -4 109 -2 14 5 21 26 27 87 24 90 126 4 193 -29 23 -32 28 -20 46 26 43 5 93 -50 114 -45 19 -52 19 -100 1z m-19 -241 c23 -19 31 -34 31 -57 0 -105 -146 -165 -216 -90 -29 31 -30 57 -6 102 38 70 135 93 191 45z" transform="translate(0,80) scale(0.1,-0.1)" stroke="none" fill="#F3A181"/>

</g>

<g id="4" transform="translate(328.0,0)scale(1,1)">

<path d="M381 512 c-36 -20 -71 -72 -71 -108 0 -31 43 -72 85 -80 47 -9 111 20 136 61 60 97 -44 184 -150 127z" transform="translate(0,80) scale(0.1,-0.1)" stroke="none" fill="#936C3F"/>

<path d="M538 745 c-49 -18 -120 -72 -148 -112 -24 -35 -50 -42 -69 -20 -12 15 -97 37 -151 39 -78 3 -138 -59 -120 -123 20 -71 45 -97 119 -126 l24 -9 -35 -22 c-72 -44 -111 -127 -79 -166 21 -25 73 -19 122 13 24 17 45 28 48 25 2 -2 -8 -26 -22 -53 -79 -144 42 -223 157 -103 16 17 34 41 40 53 16 33 29 32 47 -4 17 -34 71 -77 98 -77 28 0 79 38 97 72 12 24 17 56 16 123 0 49 -2 99 -4 109 -2 14 5 21 26 27 87 24 90 126 4 193 -29 23 -32 28 -20 46 26 43 5 93 -50 114 -45 19 -52 19 -100 1z m-19 -241 c23 -19 31 -34 31 -57 0 -105 -146 -165 -216 -90 -29 31 -30 57 -6 102 38 70 135 93 191 45z" transform="translate(0,80) scale(0.1,-0.1)" stroke="none" fill="#F3A181"/>

</g>

</g>
</svg>