<?xml version="1.0" standalone="no"?>
<!DOCTYPE svg PUBLIC "-//W3C//DTD SVG 20010904//EN"
 "http://www.w3.org/TR/2001/REC-SVG-20010904/DTD/svg10.dtd">
<svg version="1.0" xmlns="http://www.w3.org/2000/svg" width="4032pt" height="4032pt" viewBox="0 0 4032 4032" preserveAspectRatio = "xMidYMid meet" >
<metadata>
Created by ZoeQu, written in 2022
</metadata>
<rect width="4032" height="4032" fill="#FA8D1C"/>
<g id="row0" transform="translate(0,0.0)">
<g id="0" transform="translate(0.0,0)scale(0.25,0.25)">

<g id="pattern">
<rect width="4368" height="4368" fill="#FA8D1C"/>
<g id="pattern1" transform="matrix(1,0,0,1,272,272)">
<path d="M56 538 c-36 -50 -7 -214 53 -312 22 -35 81 -93 126 -123 96 -64 252 -83 343 -41 61 29 162 131 186 188 10 25 27 64 37 87 31 70 27 75 -39 43 -22 -11 -47 -20 -55 -20 -7 0 -19 -6 -26 -12 -8 -9 -49 -13 -129 -13 -94 0 -129 5 -177 22 -33 11 -71 24 -85 27 -43 9 -149 87 -182 133 -17 24 -33 43 -34 43 -2 0 -10 -10 -18 -22z m66 -146 c9 -25 107 -83 175 -105 183 -60 289 -60 426 -2 26 11 22 -18 -9 -55 -55 -65 -148 -110 -229 -110 -39 0 -156 31 -197 53 -52 27 -113 84 -150 141 -21 32 -38 65 -38 73 0 14 16 18 22 5z" transform="translate(0.000000,0.000000) scale(1,1)" stroke="none" fill="#AAC8C7"/>
</g>
<g id="pattern2" transform="matrix(0.618,0,0,0.618,2069,608)">
<path d="M56 538 c-36 -50 -7 -214 53 -312 22 -35 81 -93 126 -123 96 -64 252 -83 343 -41 61 29 162 131 186 188 10 25 27 64 37 87 31 70 27 75 -39 43 -22 -11 -47 -20 -55 -20 -7 0 -19 -6 -26 -12 -8 -9 -49 -13 -129 -13 -94 0 -129 5 -177 22 -33 11 -71 24 -85 27 -43 9 -149 87 -182 133 -17 24 -33 43 -34 43 -2 0 -10 -10 -18 -22z m66 -146 c9 -25 107 -83 175 -105 183 -60 289 -60 426 -2 26 11 22 -18 -9 -55 -55 -65 -148 -110 -229 -110 -39 0 -156 31 -197 53 -52 27 -113 84 -150 141 -21 32 -38 65 -38 73 0 14 16 18 22 5z" transform="translate(2741,0.000000) scale(-1,1)" stroke="none" fill="#AAC8C7"/>
</g>
<g id="pattern3" transform="matrix(0.618,0,0,0.618,776,2741)matrix(0.71,0.71,-0.71,0.71,0,0)">
<path d="M56 538 c-36 -50 -7 -214 53 -312 22 -35 81 -93 126 -123 96 -64 252 -83 343 -41 61 29 162 131 186 188 10 25 27 64 37 87 31 70 27 75 -39 43 -22 -11 -47 -20 -55 -20 -7 0 -19 -6 -26 -12 -8 -9 -49 -13 -129 -13 -94 0 -129 5 -177 22 -33 11 -71 24 -85 27 -43 9 -149 87 -182 133 -17 24 -33 43 -34 43 -2 0 -10 -10 -18 -22z m66 -146 c9 -25 107 -83 175 -105 183 -60 289 -60 426 -2 26 11 22 -18 -9 -55 -55 -65 -148 -110 -229 -110 -39 0 -156 31 -197 53 -52 27 -113 84 -150 141 -21 32 -38 65 -38 73 0 14 16 18 22 5z" transform="translate(440,-440) scale(1,1)" stroke="none" fill="#AAC8C7"/>
</g>
<g id="pattern4" transform="matrix(1.618,0,0,1.618,1150,1150)matrix(0.87,0.5,-0.5,0.87,0,0)">
<path d="M56 538 c-36 -50 -7 -214 53 -312 22 -35 81 -93 126 -123 96 -64 252 -83 343 -41 61 29 162 131 186 188 10 25 27 64 37 87 31 70 27 75 -39 43 -22 -11 -47 -20 -55 -20 -7 0 -19 -6 -26 -12 -8 -9 -49 -13 -129 -13 -94 0 -129 5 -177 22 -33 11 -71 24 -85 27 -43 9 -149 87 -182 133 -17 24 -33 43 -34 43 -2 0 -10 -10 -18 -22z m66 -146 c9 -25 107 -83 175 -105 183 -60 289 -60 426 -2 26 11 22 -18 -9 -55 -55 -65 -148 -110 -229 -110 -39 0 -156 31 -197 53 -52 27 -113 84 -150 141 -21 32 -38 65 -38 73 0 14 16 18 22 5z" transform="translate(440,-440) scale(1,1)" stroke="none" fill="#AAC8C7"/>
</g>
</g>
</g>

<g id="1" transform="translate(1008.0,0)scale(0.25,0.25)">

<g id="pattern">
<rect width="4368" height="4368" fill="#FA8D1C"/>
<g id="pattern1" transform="matrix(1,0,0,1,272,272)">
<path d="M56 538 c-36 -50 -7 -214 53 -312 22 -35 81 -93 126 -123 96 -64 252 -83 343 -41 61 29 162 131 186 188 10 25 27 64 37 87 31 70 27 75 -39 43 -22 -11 -47 -20 -55 -20 -7 0 -19 -6 -26 -12 -8 -9 -49 -13 -129 -13 -94 0 -129 5 -177 22 -33 11 -71 24 -85 27 -43 9 -149 87 -182 133 -17 24 -33 43 -34 43 -2 0 -10 -10 -18 -22z m66 -146 c9 -25 107 -83 175 -105 183 -60 289 -60 426 -2 26 11 22 -18 -9 -55 -55 -65 -148 -110 -229 -110 -39 0 -156 31 -197 53 -52 27 -113 84 -150 141 -21 32 -38 65 -38 73 0 14 16 18 22 5z" transform="translate(0.000000,0.000000) scale(1,1)" stroke="none" fill="#AAC8C7"/>
</g>
<g id="pattern2" transform="matrix(0.618,0,0,0.618,2069,608)">
<path d="M56 538 c-36 -50 -7 -214 53 -312 22 -35 81 -93 126 -123 96 -64 252 -83 343 -41 61 29 162 131 186 188 10 25 27 64 37 87 31 70 27 75 -39 43 -22 -11 -47 -20 -55 -20 -7 0 -19 -6 -26 -12 -8 -9 -49 -13 -129 -13 -94 0 -129 5 -177 22 -33 11 -71 24 -85 27 -43 9 -149 87 -182 133 -17 24 -33 43 -34 43 -2 0 -10 -10 -18 -22z m66 -146 c9 -25 107 -83 175 -105 183 -60 289 -60 426 -2 26 11 22 -18 -9 -55 -55 -65 -148 -110 -229 -110 -39 0 -156 31 -197 53 -52 27 -113 84 -150 141 -21 32 -38 65 -38 73 0 14 16 18 22 5z" transform="translate(2741,0.000000) scale(-1,1)" stroke="none" fill="#AAC8C7"/>
</g>
<g id="pattern3" transform="matrix(0.618,0,0,0.618,776,2741)matrix(0.71,0.71,-0.71,0.71,0,0)">
<path d="M56 538 c-36 -50 -7 -214 53 -312 22 -35 81 -93 126 -123 96 -64 252 -83 343 -41 61 29 162 131 186 188 10 25 27 64 37 87 31 70 27 75 -39 43 -22 -11 -47 -20 -55 -20 -7 0 -19 -6 -26 -12 -8 -9 -49 -13 -129 -13 -94 0 -129 5 -177 22 -33 11 -71 24 -85 27 -43 9 -149 87 -182 133 -17 24 -33 43 -34 43 -2 0 -10 -10 -18 -22z m66 -146 c9 -25 107 -83 175 -105 183 -60 289 -60 426 -2 26 11 22 -18 -9 -55 -55 -65 -148 -110 -229 -110 -39 0 -156 31 -197 53 -52 27 -113 84 -150 141 -21 32 -38 65 -38 73 0 14 16 18 22 5z" transform="translate(440,-440) scale(1,1)" stroke="none" fill="#AAC8C7"/>
</g>
<g id="pattern4" transform="matrix(1.618,0,0,1.618,1150,1150)matrix(0.87,0.5,-0.5,0.87,0,0)">
<path d="M56 538 c-36 -50 -7 -214 53 -312 22 -35 81 -93 126 -123 96 -64 252 -83 343 -41 61 29 162 131 186 188 10 25 27 64 37 87 31 70 27 75 -39 43 -22 -11 -47 -20 -55 -20 -7 0 -19 -6 -26 -12 -8 -9 -49 -13 -129 -13 -94 0 -129 5 -177 22 -33 11 -71 24 -85 27 -43 9 -149 87 -182 133 -17 24 -33 43 -34 43 -2 0 -10 -10 -18 -22z m66 -146 c9 -25 107 -83 175 -105 183 -60 289 -60 426 -2 26 11 22 -18 -9 -55 -55 -65 -148 -110 -229 -110 -39 0 -156 31 -197 53 -52 27 -113 84 -150 141 -21 32 -38 65 -38 73 0 14 16 18 22 5z" transform="translate(440,-440) scale(1,1)" stroke="none" fill="#AAC8C7"/>
</g>
</g>
</g>

<g id="2" transform="translate(2016.0,0)scale(0.25,0.25)">

<g id="pattern">
<rect width="4368" height="4368" fill="#FA8D1C"/>
<g id="pattern1" transform="matrix(1,0,0,1,272,272)">
<path d="M56 538 c-36 -50 -7 -214 53 -312 22 -35 81 -93 126 -123 96 -64 252 -83 343 -41 61 29 162 131 186 188 10 25 27 64 37 87 31 70 27 75 -39 43 -22 -11 -47 -20 -55 -20 -7 0 -19 -6 -26 -12 -8 -9 -49 -13 -129 -13 -94 0 -129 5 -177 22 -33 11 -71 24 -85 27 -43 9 -149 87 -182 133 -17 24 -33 43 -34 43 -2 0 -10 -10 -18 -22z m66 -146 c9 -25 107 -83 175 -105 183 -60 289 -60 426 -2 26 11 22 -18 -9 -55 -55 -65 -148 -110 -229 -110 -39 0 -156 31 -197 53 -52 27 -113 84 -150 141 -21 32 -38 65 -38 73 0 14 16 18 22 5z" transform="translate(0.000000,0.000000) scale(1,1)" stroke="none" fill="#AAC8C7"/>
</g>
<g id="pattern2" transform="matrix(0.618,0,0,0.618,2069,608)">
<path d="M56 538 c-36 -50 -7 -214 53 -312 22 -35 81 -93 126 -123 96 -64 252 -83 343 -41 61 29 162 131 186 188 10 25 27 64 37 87 31 70 27 75 -39 43 -22 -11 -47 -20 -55 -20 -7 0 -19 -6 -26 -12 -8 -9 -49 -13 -129 -13 -94 0 -129 5 -177 22 -33 11 -71 24 -85 27 -43 9 -149 87 -182 133 -17 24 -33 43 -34 43 -2 0 -10 -10 -18 -22z m66 -146 c9 -25 107 -83 175 -105 183 -60 289 -60 426 -2 26 11 22 -18 -9 -55 -55 -65 -148 -110 -229 -110 -39 0 -156 31 -197 53 -52 27 -113 84 -150 141 -21 32 -38 65 -38 73 0 14 16 18 22 5z" transform="translate(2741,0.000000) scale(-1,1)" stroke="none" fill="#AAC8C7"/>
</g>
<g id="pattern3" transform="matrix(0.618,0,0,0.618,776,2741)matrix(0.71,0.71,-0.71,0.71,0,0)">
<path d="M56 538 c-36 -50 -7 -214 53 -312 22 -35 81 -93 126 -123 96 -64 252 -83 343 -41 61 29 162 131 186 188 10 25 27 64 37 87 31 70 27 75 -39 43 -22 -11 -47 -20 -55 -20 -7 0 -19 -6 -26 -12 -8 -9 -49 -13 -129 -13 -94 0 -129 5 -177 22 -33 11 -71 24 -85 27 -43 9 -149 87 -182 133 -17 24 -33 43 -34 43 -2 0 -10 -10 -18 -22z m66 -146 c9 -25 107 -83 175 -105 183 -60 289 -60 426 -2 26 11 22 -18 -9 -55 -55 -65 -148 -110 -229 -110 -39 0 -156 31 -197 53 -52 27 -113 84 -150 141 -21 32 -38 65 -38 73 0 14 16 18 22 5z" transform="translate(440,-440) scale(1,1)" stroke="none" fill="#AAC8C7"/>
</g>
<g id="pattern4" transform="matrix(1.618,0,0,1.618,1150,1150)matrix(0.87,0.5,-0.5,0.87,0,0)">
<path d="M56 538 c-36 -50 -7 -214 53 -312 22 -35 81 -93 126 -123 96 -64 252 -83 343 -41 61 29 162 131 186 188 10 25 27 64 37 87 31 70 27 75 -39 43 -22 -11 -47 -20 -55 -20 -7 0 -19 -6 -26 -12 -8 -9 -49 -13 -129 -13 -94 0 -129 5 -177 22 -33 11 -71 24 -85 27 -43 9 -149 87 -182 133 -17 24 -33 43 -34 43 -2 0 -10 -10 -18 -22z m66 -146 c9 -25 107 -83 175 -105 183 -60 289 -60 426 -2 26 11 22 -18 -9 -55 -55 -65 -148 -110 -229 -110 -39 0 -156 31 -197 53 -52 27 -113 84 -150 141 -21 32 -38 65 -38 73 0 14 16 18 22 5z" transform="translate(440,-440) scale(1,1)" stroke="none" fill="#AAC8C7"/>
</g>
</g>
</g>

<g id="3" transform="translate(3024.0,0)scale(0.25,0.25)">

<g id="pattern">
<rect width="4368" height="4368" fill="#FA8D1C"/>
<g id="pattern1" transform="matrix(1,0,0,1,272,272)">
<path d="M56 538 c-36 -50 -7 -214 53 -312 22 -35 81 -93 126 -123 96 -64 252 -83 343 -41 61 29 162 131 186 188 10 25 27 64 37 87 31 70 27 75 -39 43 -22 -11 -47 -20 -55 -20 -7 0 -19 -6 -26 -12 -8 -9 -49 -13 -129 -13 -94 0 -129 5 -177 22 -33 11 -71 24 -85 27 -43 9 -149 87 -182 133 -17 24 -33 43 -34 43 -2 0 -10 -10 -18 -22z m66 -146 c9 -25 107 -83 175 -105 183 -60 289 -60 426 -2 26 11 22 -18 -9 -55 -55 -65 -148 -110 -229 -110 -39 0 -156 31 -197 53 -52 27 -113 84 -150 141 -21 32 -38 65 -38 73 0 14 16 18 22 5z" transform="translate(0.000000,0.000000) scale(1,1)" stroke="none" fill="#AAC8C7"/>
</g>
<g id="pattern2" transform="matrix(0.618,0,0,0.618,2069,608)">
<path d="M56 538 c-36 -50 -7 -214 53 -312 22 -35 81 -93 126 -123 96 -64 252 -83 343 -41 61 29 162 131 186 188 10 25 27 64 37 87 31 70 27 75 -39 43 -22 -11 -47 -20 -55 -20 -7 0 -19 -6 -26 -12 -8 -9 -49 -13 -129 -13 -94 0 -129 5 -177 22 -33 11 -71 24 -85 27 -43 9 -149 87 -182 133 -17 24 -33 43 -34 43 -2 0 -10 -10 -18 -22z m66 -146 c9 -25 107 -83 175 -105 183 -60 289 -60 426 -2 26 11 22 -18 -9 -55 -55 -65 -148 -110 -229 -110 -39 0 -156 31 -197 53 -52 27 -113 84 -150 141 -21 32 -38 65 -38 73 0 14 16 18 22 5z" transform="translate(2741,0.000000) scale(-1,1)" stroke="none" fill="#AAC8C7"/>
</g>
<g id="pattern3" transform="matrix(0.618,0,0,0.618,776,2741)matrix(0.71,0.71,-0.71,0.71,0,0)">
<path d="M56 538 c-36 -50 -7 -214 53 -312 22 -35 81 -93 126 -123 96 -64 252 -83 343 -41 61 29 162 131 186 188 10 25 27 64 37 87 31 70 27 75 -39 43 -22 -11 -47 -20 -55 -20 -7 0 -19 -6 -26 -12 -8 -9 -49 -13 -129 -13 -94 0 -129 5 -177 22 -33 11 -71 24 -85 27 -43 9 -149 87 -182 133 -17 24 -33 43 -34 43 -2 0 -10 -10 -18 -22z m66 -146 c9 -25 107 -83 175 -105 183 -60 289 -60 426 -2 26 11 22 -18 -9 -55 -55 -65 -148 -110 -229 -110 -39 0 -156 31 -197 53 -52 27 -113 84 -150 141 -21 32 -38 65 -38 73 0 14 16 18 22 5z" transform="translate(440,-440) scale(1,1)" stroke="none" fill="#AAC8C7"/>
</g>
<g id="pattern4" transform="matrix(1.618,0,0,1.618,1150,1150)matrix(0.87,0.5,-0.5,0.87,0,0)">
<path d="M56 538 c-36 -50 -7 -214 53 -312 22 -35 81 -93 126 -123 96 -64 252 -83 343 -41 61 29 162 131 186 188 10 25 27 64 37 87 31 70 27 75 -39 43 -22 -11 -47 -20 -55 -20 -7 0 -19 -6 -26 -12 -8 -9 -49 -13 -129 -13 -94 0 -129 5 -177 22 -33 11 -71 24 -85 27 -43 9 -149 87 -182 133 -17 24 -33 43 -34 43 -2 0 -10 -10 -18 -22z m66 -146 c9 -25 107 -83 175 -105 183 -60 289 -60 426 -2 26 11 22 -18 -9 -55 -55 -65 -148 -110 -229 -110 -39 0 -156 31 -197 53 -52 27 -113 84 -150 141 -21 32 -38 65 -38 73 0 14 16 18 22 5z" transform="translate(440,-440) scale(1,1)" stroke="none" fill="#AAC8C7"/>
</g>
</g>
</g>

<g id="4" transform="translate(4032.0,0)scale(0.25,0.25)">

<g id="pattern">
<rect width="4368" height="4368" fill="#FA8D1C"/>
<g id="pattern1" transform="matrix(1,0,0,1,272,272)">
<path d="M56 538 c-36 -50 -7 -214 53 -312 22 -35 81 -93 126 -123 96 -64 252 -83 343 -41 61 29 162 131 186 188 10 25 27 64 37 87 31 70 27 75 -39 43 -22 -11 -47 -20 -55 -20 -7 0 -19 -6 -26 -12 -8 -9 -49 -13 -129 -13 -94 0 -129 5 -177 22 -33 11 -71 24 -85 27 -43 9 -149 87 -182 133 -17 24 -33 43 -34 43 -2 0 -10 -10 -18 -22z m66 -146 c9 -25 107 -83 175 -105 183 -60 289 -60 426 -2 26 11 22 -18 -9 -55 -55 -65 -148 -110 -229 -110 -39 0 -156 31 -197 53 -52 27 -113 84 -150 141 -21 32 -38 65 -38 73 0 14 16 18 22 5z" transform="translate(0.000000,0.000000) scale(1,1)" stroke="none" fill="#AAC8C7"/>
</g>
<g id="pattern2" transform="matrix(0.618,0,0,0.618,2069,608)">
<path d="M56 538 c-36 -50 -7 -214 53 -312 22 -35 81 -93 126 -123 96 -64 252 -83 343 -41 61 29 162 131 186 188 10 25 27 64 37 87 31 70 27 75 -39 43 -22 -11 -47 -20 -55 -20 -7 0 -19 -6 -26 -12 -8 -9 -49 -13 -129 -13 -94 0 -129 5 -177 22 -33 11 -71 24 -85 27 -43 9 -149 87 -182 133 -17 24 -33 43 -34 43 -2 0 -10 -10 -18 -22z m66 -146 c9 -25 107 -83 175 -105 183 -60 289 -60 426 -2 26 11 22 -18 -9 -55 -55 -65 -148 -110 -229 -110 -39 0 -156 31 -197 53 -52 27 -113 84 -150 141 -21 32 -38 65 -38 73 0 14 16 18 22 5z" transform="translate(2741,0.000000) scale(-1,1)" stroke="none" fill="#AAC8C7"/>
</g>
<g id="pattern3" transform="matrix(0.618,0,0,0.618,776,2741)matrix(0.71,0.71,-0.71,0.71,0,0)">
<path d="M56 538 c-36 -50 -7 -214 53 -312 22 -35 81 -93 126 -123 96 -64 252 -83 343 -41 61 29 162 131 186 188 10 25 27 64 37 87 31 70 27 75 -39 43 -22 -11 -47 -20 -55 -20 -7 0 -19 -6 -26 -12 -8 -9 -49 -13 -129 -13 -94 0 -129 5 -177 22 -33 11 -71 24 -85 27 -43 9 -149 87 -182 133 -17 24 -33 43 -34 43 -2 0 -10 -10 -18 -22z m66 -146 c9 -25 107 -83 175 -105 183 -60 289 -60 426 -2 26 11 22 -18 -9 -55 -55 -65 -148 -110 -229 -110 -39 0 -156 31 -197 53 -52 27 -113 84 -150 141 -21 32 -38 65 -38 73 0 14 16 18 22 5z" transform="translate(440,-440) scale(1,1)" stroke="none" fill="#AAC8C7"/>
</g>
<g id="pattern4" transform="matrix(1.618,0,0,1.618,1150,1150)matrix(0.87,0.5,-0.5,0.87,0,0)">
<path d="M56 538 c-36 -50 -7 -214 53 -312 22 -35 81 -93 126 -123 96 -64 252 -83 343 -41 61 29 162 131 186 188 10 25 27 64 37 87 31 70 27 75 -39 43 -22 -11 -47 -20 -55 -20 -7 0 -19 -6 -26 -12 -8 -9 -49 -13 -129 -13 -94 0 -129 5 -177 22 -33 11 -71 24 -85 27 -43 9 -149 87 -182 133 -17 24 -33 43 -34 43 -2 0 -10 -10 -18 -22z m66 -146 c9 -25 107 -83 175 -105 183 -60 289 -60 426 -2 26 11 22 -18 -9 -55 -55 -65 -148 -110 -229 -110 -39 0 -156 31 -197 53 -52 27 -113 84 -150 141 -21 32 -38 65 -38 73 0 14 16 18 22 5z" transform="translate(440,-440) scale(1,1)" stroke="none" fill="#AAC8C7"/>
</g>
</g>
</g>

</g>
<g id="row1" transform="translate(0,1008.0)">
<g id="0" transform="translate(0.0,0)scale(0.25,0.25)">

<g id="pattern">
<rect width="4368" height="4368" fill="#FA8D1C"/>
<g id="pattern1" transform="matrix(1,0,0,1,272,272)">
<path d="M56 538 c-36 -50 -7 -214 53 -312 22 -35 81 -93 126 -123 96 -64 252 -83 343 -41 61 29 162 131 186 188 10 25 27 64 37 87 31 70 27 75 -39 43 -22 -11 -47 -20 -55 -20 -7 0 -19 -6 -26 -12 -8 -9 -49 -13 -129 -13 -94 0 -129 5 -177 22 -33 11 -71 24 -85 27 -43 9 -149 87 -182 133 -17 24 -33 43 -34 43 -2 0 -10 -10 -18 -22z m66 -146 c9 -25 107 -83 175 -105 183 -60 289 -60 426 -2 26 11 22 -18 -9 -55 -55 -65 -148 -110 -229 -110 -39 0 -156 31 -197 53 -52 27 -113 84 -150 141 -21 32 -38 65 -38 73 0 14 16 18 22 5z" transform="translate(0.000000,0.000000) scale(1,1)" stroke="none" fill="#AAC8C7"/>
</g>
<g id="pattern2" transform="matrix(0.618,0,0,0.618,2069,608)">
<path d="M56 538 c-36 -50 -7 -214 53 -312 22 -35 81 -93 126 -123 96 -64 252 -83 343 -41 61 29 162 131 186 188 10 25 27 64 37 87 31 70 27 75 -39 43 -22 -11 -47 -20 -55 -20 -7 0 -19 -6 -26 -12 -8 -9 -49 -13 -129 -13 -94 0 -129 5 -177 22 -33 11 -71 24 -85 27 -43 9 -149 87 -182 133 -17 24 -33 43 -34 43 -2 0 -10 -10 -18 -22z m66 -146 c9 -25 107 -83 175 -105 183 -60 289 -60 426 -2 26 11 22 -18 -9 -55 -55 -65 -148 -110 -229 -110 -39 0 -156 31 -197 53 -52 27 -113 84 -150 141 -21 32 -38 65 -38 73 0 14 16 18 22 5z" transform="translate(2741,0.000000) scale(-1,1)" stroke="none" fill="#AAC8C7"/>
</g>
<g id="pattern3" transform="matrix(0.618,0,0,0.618,776,2741)matrix(0.71,0.71,-0.71,0.71,0,0)">
<path d="M56 538 c-36 -50 -7 -214 53 -312 22 -35 81 -93 126 -123 96 -64 252 -83 343 -41 61 29 162 131 186 188 10 25 27 64 37 87 31 70 27 75 -39 43 -22 -11 -47 -20 -55 -20 -7 0 -19 -6 -26 -12 -8 -9 -49 -13 -129 -13 -94 0 -129 5 -177 22 -33 11 -71 24 -85 27 -43 9 -149 87 -182 133 -17 24 -33 43 -34 43 -2 0 -10 -10 -18 -22z m66 -146 c9 -25 107 -83 175 -105 183 -60 289 -60 426 -2 26 11 22 -18 -9 -55 -55 -65 -148 -110 -229 -110 -39 0 -156 31 -197 53 -52 27 -113 84 -150 141 -21 32 -38 65 -38 73 0 14 16 18 22 5z" transform="translate(440,-440) scale(1,1)" stroke="none" fill="#AAC8C7"/>
</g>
<g id="pattern4" transform="matrix(1.618,0,0,1.618,1150,1150)matrix(0.87,0.5,-0.5,0.87,0,0)">
<path d="M56 538 c-36 -50 -7 -214 53 -312 22 -35 81 -93 126 -123 96 -64 252 -83 343 -41 61 29 162 131 186 188 10 25 27 64 37 87 31 70 27 75 -39 43 -22 -11 -47 -20 -55 -20 -7 0 -19 -6 -26 -12 -8 -9 -49 -13 -129 -13 -94 0 -129 5 -177 22 -33 11 -71 24 -85 27 -43 9 -149 87 -182 133 -17 24 -33 43 -34 43 -2 0 -10 -10 -18 -22z m66 -146 c9 -25 107 -83 175 -105 183 -60 289 -60 426 -2 26 11 22 -18 -9 -55 -55 -65 -148 -110 -229 -110 -39 0 -156 31 -197 53 -52 27 -113 84 -150 141 -21 32 -38 65 -38 73 0 14 16 18 22 5z" transform="translate(440,-440) scale(1,1)" stroke="none" fill="#AAC8C7"/>
</g>
</g>
</g>

<g id="1" transform="translate(1008.0,0)scale(0.25,0.25)">

<g id="pattern">
<rect width="4368" height="4368" fill="#FA8D1C"/>
<g id="pattern1" transform="matrix(1,0,0,1,272,272)">
<path d="M56 538 c-36 -50 -7 -214 53 -312 22 -35 81 -93 126 -123 96 -64 252 -83 343 -41 61 29 162 131 186 188 10 25 27 64 37 87 31 70 27 75 -39 43 -22 -11 -47 -20 -55 -20 -7 0 -19 -6 -26 -12 -8 -9 -49 -13 -129 -13 -94 0 -129 5 -177 22 -33 11 -71 24 -85 27 -43 9 -149 87 -182 133 -17 24 -33 43 -34 43 -2 0 -10 -10 -18 -22z m66 -146 c9 -25 107 -83 175 -105 183 -60 289 -60 426 -2 26 11 22 -18 -9 -55 -55 -65 -148 -110 -229 -110 -39 0 -156 31 -197 53 -52 27 -113 84 -150 141 -21 32 -38 65 -38 73 0 14 16 18 22 5z" transform="translate(0.000000,0.000000) scale(1,1)" stroke="none" fill="#AAC8C7"/>
</g>
<g id="pattern2" transform="matrix(0.618,0,0,0.618,2069,608)">
<path d="M56 538 c-36 -50 -7 -214 53 -312 22 -35 81 -93 126 -123 96 -64 252 -83 343 -41 61 29 162 131 186 188 10 25 27 64 37 87 31 70 27 75 -39 43 -22 -11 -47 -20 -55 -20 -7 0 -19 -6 -26 -12 -8 -9 -49 -13 -129 -13 -94 0 -129 5 -177 22 -33 11 -71 24 -85 27 -43 9 -149 87 -182 133 -17 24 -33 43 -34 43 -2 0 -10 -10 -18 -22z m66 -146 c9 -25 107 -83 175 -105 183 -60 289 -60 426 -2 26 11 22 -18 -9 -55 -55 -65 -148 -110 -229 -110 -39 0 -156 31 -197 53 -52 27 -113 84 -150 141 -21 32 -38 65 -38 73 0 14 16 18 22 5z" transform="translate(2741,0.000000) scale(-1,1)" stroke="none" fill="#AAC8C7"/>
</g>
<g id="pattern3" transform="matrix(0.618,0,0,0.618,776,2741)matrix(0.71,0.71,-0.71,0.71,0,0)">
<path d="M56 538 c-36 -50 -7 -214 53 -312 22 -35 81 -93 126 -123 96 -64 252 -83 343 -41 61 29 162 131 186 188 10 25 27 64 37 87 31 70 27 75 -39 43 -22 -11 -47 -20 -55 -20 -7 0 -19 -6 -26 -12 -8 -9 -49 -13 -129 -13 -94 0 -129 5 -177 22 -33 11 -71 24 -85 27 -43 9 -149 87 -182 133 -17 24 -33 43 -34 43 -2 0 -10 -10 -18 -22z m66 -146 c9 -25 107 -83 175 -105 183 -60 289 -60 426 -2 26 11 22 -18 -9 -55 -55 -65 -148 -110 -229 -110 -39 0 -156 31 -197 53 -52 27 -113 84 -150 141 -21 32 -38 65 -38 73 0 14 16 18 22 5z" transform="translate(440,-440) scale(1,1)" stroke="none" fill="#AAC8C7"/>
</g>
<g id="pattern4" transform="matrix(1.618,0,0,1.618,1150,1150)matrix(0.87,0.5,-0.5,0.87,0,0)">
<path d="M56 538 c-36 -50 -7 -214 53 -312 22 -35 81 -93 126 -123 96 -64 252 -83 343 -41 61 29 162 131 186 188 10 25 27 64 37 87 31 70 27 75 -39 43 -22 -11 -47 -20 -55 -20 -7 0 -19 -6 -26 -12 -8 -9 -49 -13 -129 -13 -94 0 -129 5 -177 22 -33 11 -71 24 -85 27 -43 9 -149 87 -182 133 -17 24 -33 43 -34 43 -2 0 -10 -10 -18 -22z m66 -146 c9 -25 107 -83 175 -105 183 -60 289 -60 426 -2 26 11 22 -18 -9 -55 -55 -65 -148 -110 -229 -110 -39 0 -156 31 -197 53 -52 27 -113 84 -150 141 -21 32 -38 65 -38 73 0 14 16 18 22 5z" transform="translate(440,-440) scale(1,1)" stroke="none" fill="#AAC8C7"/>
</g>
</g>
</g>

<g id="2" transform="translate(2016.0,0)scale(0.25,0.25)">

<g id="pattern">
<rect width="4368" height="4368" fill="#FA8D1C"/>
<g id="pattern1" transform="matrix(1,0,0,1,272,272)">
<path d="M56 538 c-36 -50 -7 -214 53 -312 22 -35 81 -93 126 -123 96 -64 252 -83 343 -41 61 29 162 131 186 188 10 25 27 64 37 87 31 70 27 75 -39 43 -22 -11 -47 -20 -55 -20 -7 0 -19 -6 -26 -12 -8 -9 -49 -13 -129 -13 -94 0 -129 5 -177 22 -33 11 -71 24 -85 27 -43 9 -149 87 -182 133 -17 24 -33 43 -34 43 -2 0 -10 -10 -18 -22z m66 -146 c9 -25 107 -83 175 -105 183 -60 289 -60 426 -2 26 11 22 -18 -9 -55 -55 -65 -148 -110 -229 -110 -39 0 -156 31 -197 53 -52 27 -113 84 -150 141 -21 32 -38 65 -38 73 0 14 16 18 22 5z" transform="translate(0.000000,0.000000) scale(1,1)" stroke="none" fill="#AAC8C7"/>
</g>
<g id="pattern2" transform="matrix(0.618,0,0,0.618,2069,608)">
<path d="M56 538 c-36 -50 -7 -214 53 -312 22 -35 81 -93 126 -123 96 -64 252 -83 343 -41 61 29 162 131 186 188 10 25 27 64 37 87 31 70 27 75 -39 43 -22 -11 -47 -20 -55 -20 -7 0 -19 -6 -26 -12 -8 -9 -49 -13 -129 -13 -94 0 -129 5 -177 22 -33 11 -71 24 -85 27 -43 9 -149 87 -182 133 -17 24 -33 43 -34 43 -2 0 -10 -10 -18 -22z m66 -146 c9 -25 107 -83 175 -105 183 -60 289 -60 426 -2 26 11 22 -18 -9 -55 -55 -65 -148 -110 -229 -110 -39 0 -156 31 -197 53 -52 27 -113 84 -150 141 -21 32 -38 65 -38 73 0 14 16 18 22 5z" transform="translate(2741,0.000000) scale(-1,1)" stroke="none" fill="#AAC8C7"/>
</g>
<g id="pattern3" transform="matrix(0.618,0,0,0.618,776,2741)matrix(0.71,0.71,-0.71,0.71,0,0)">
<path d="M56 538 c-36 -50 -7 -214 53 -312 22 -35 81 -93 126 -123 96 -64 252 -83 343 -41 61 29 162 131 186 188 10 25 27 64 37 87 31 70 27 75 -39 43 -22 -11 -47 -20 -55 -20 -7 0 -19 -6 -26 -12 -8 -9 -49 -13 -129 -13 -94 0 -129 5 -177 22 -33 11 -71 24 -85 27 -43 9 -149 87 -182 133 -17 24 -33 43 -34 43 -2 0 -10 -10 -18 -22z m66 -146 c9 -25 107 -83 175 -105 183 -60 289 -60 426 -2 26 11 22 -18 -9 -55 -55 -65 -148 -110 -229 -110 -39 0 -156 31 -197 53 -52 27 -113 84 -150 141 -21 32 -38 65 -38 73 0 14 16 18 22 5z" transform="translate(440,-440) scale(1,1)" stroke="none" fill="#AAC8C7"/>
</g>
<g id="pattern4" transform="matrix(1.618,0,0,1.618,1150,1150)matrix(0.87,0.5,-0.5,0.87,0,0)">
<path d="M56 538 c-36 -50 -7 -214 53 -312 22 -35 81 -93 126 -123 96 -64 252 -83 343 -41 61 29 162 131 186 188 10 25 27 64 37 87 31 70 27 75 -39 43 -22 -11 -47 -20 -55 -20 -7 0 -19 -6 -26 -12 -8 -9 -49 -13 -129 -13 -94 0 -129 5 -177 22 -33 11 -71 24 -85 27 -43 9 -149 87 -182 133 -17 24 -33 43 -34 43 -2 0 -10 -10 -18 -22z m66 -146 c9 -25 107 -83 175 -105 183 -60 289 -60 426 -2 26 11 22 -18 -9 -55 -55 -65 -148 -110 -229 -110 -39 0 -156 31 -197 53 -52 27 -113 84 -150 141 -21 32 -38 65 -38 73 0 14 16 18 22 5z" transform="translate(440,-440) scale(1,1)" stroke="none" fill="#AAC8C7"/>
</g>
</g>
</g>

<g id="3" transform="translate(3024.0,0)scale(0.25,0.25)">

<g id="pattern">
<rect width="4368" height="4368" fill="#FA8D1C"/>
<g id="pattern1" transform="matrix(1,0,0,1,272,272)">
<path d="M56 538 c-36 -50 -7 -214 53 -312 22 -35 81 -93 126 -123 96 -64 252 -83 343 -41 61 29 162 131 186 188 10 25 27 64 37 87 31 70 27 75 -39 43 -22 -11 -47 -20 -55 -20 -7 0 -19 -6 -26 -12 -8 -9 -49 -13 -129 -13 -94 0 -129 5 -177 22 -33 11 -71 24 -85 27 -43 9 -149 87 -182 133 -17 24 -33 43 -34 43 -2 0 -10 -10 -18 -22z m66 -146 c9 -25 107 -83 175 -105 183 -60 289 -60 426 -2 26 11 22 -18 -9 -55 -55 -65 -148 -110 -229 -110 -39 0 -156 31 -197 53 -52 27 -113 84 -150 141 -21 32 -38 65 -38 73 0 14 16 18 22 5z" transform="translate(0.000000,0.000000) scale(1,1)" stroke="none" fill="#AAC8C7"/>
</g>
<g id="pattern2" transform="matrix(0.618,0,0,0.618,2069,608)">
<path d="M56 538 c-36 -50 -7 -214 53 -312 22 -35 81 -93 126 -123 96 -64 252 -83 343 -41 61 29 162 131 186 188 10 25 27 64 37 87 31 70 27 75 -39 43 -22 -11 -47 -20 -55 -20 -7 0 -19 -6 -26 -12 -8 -9 -49 -13 -129 -13 -94 0 -129 5 -177 22 -33 11 -71 24 -85 27 -43 9 -149 87 -182 133 -17 24 -33 43 -34 43 -2 0 -10 -10 -18 -22z m66 -146 c9 -25 107 -83 175 -105 183 -60 289 -60 426 -2 26 11 22 -18 -9 -55 -55 -65 -148 -110 -229 -110 -39 0 -156 31 -197 53 -52 27 -113 84 -150 141 -21 32 -38 65 -38 73 0 14 16 18 22 5z" transform="translate(2741,0.000000) scale(-1,1)" stroke="none" fill="#AAC8C7"/>
</g>
<g id="pattern3" transform="matrix(0.618,0,0,0.618,776,2741)matrix(0.71,0.71,-0.71,0.71,0,0)">
<path d="M56 538 c-36 -50 -7 -214 53 -312 22 -35 81 -93 126 -123 96 -64 252 -83 343 -41 61 29 162 131 186 188 10 25 27 64 37 87 31 70 27 75 -39 43 -22 -11 -47 -20 -55 -20 -7 0 -19 -6 -26 -12 -8 -9 -49 -13 -129 -13 -94 0 -129 5 -177 22 -33 11 -71 24 -85 27 -43 9 -149 87 -182 133 -17 24 -33 43 -34 43 -2 0 -10 -10 -18 -22z m66 -146 c9 -25 107 -83 175 -105 183 -60 289 -60 426 -2 26 11 22 -18 -9 -55 -55 -65 -148 -110 -229 -110 -39 0 -156 31 -197 53 -52 27 -113 84 -150 141 -21 32 -38 65 -38 73 0 14 16 18 22 5z" transform="translate(440,-440) scale(1,1)" stroke="none" fill="#AAC8C7"/>
</g>
<g id="pattern4" transform="matrix(1.618,0,0,1.618,1150,1150)matrix(0.87,0.5,-0.5,0.87,0,0)">
<path d="M56 538 c-36 -50 -7 -214 53 -312 22 -35 81 -93 126 -123 96 -64 252 -83 343 -41 61 29 162 131 186 188 10 25 27 64 37 87 31 70 27 75 -39 43 -22 -11 -47 -20 -55 -20 -7 0 -19 -6 -26 -12 -8 -9 -49 -13 -129 -13 -94 0 -129 5 -177 22 -33 11 -71 24 -85 27 -43 9 -149 87 -182 133 -17 24 -33 43 -34 43 -2 0 -10 -10 -18 -22z m66 -146 c9 -25 107 -83 175 -105 183 -60 289 -60 426 -2 26 11 22 -18 -9 -55 -55 -65 -148 -110 -229 -110 -39 0 -156 31 -197 53 -52 27 -113 84 -150 141 -21 32 -38 65 -38 73 0 14 16 18 22 5z" transform="translate(440,-440) scale(1,1)" stroke="none" fill="#AAC8C7"/>
</g>
</g>
</g>

<g id="4" transform="translate(4032.0,0)scale(0.25,0.25)">

<g id="pattern">
<rect width="4368" height="4368" fill="#FA8D1C"/>
<g id="pattern1" transform="matrix(1,0,0,1,272,272)">
<path d="M56 538 c-36 -50 -7 -214 53 -312 22 -35 81 -93 126 -123 96 -64 252 -83 343 -41 61 29 162 131 186 188 10 25 27 64 37 87 31 70 27 75 -39 43 -22 -11 -47 -20 -55 -20 -7 0 -19 -6 -26 -12 -8 -9 -49 -13 -129 -13 -94 0 -129 5 -177 22 -33 11 -71 24 -85 27 -43 9 -149 87 -182 133 -17 24 -33 43 -34 43 -2 0 -10 -10 -18 -22z m66 -146 c9 -25 107 -83 175 -105 183 -60 289 -60 426 -2 26 11 22 -18 -9 -55 -55 -65 -148 -110 -229 -110 -39 0 -156 31 -197 53 -52 27 -113 84 -150 141 -21 32 -38 65 -38 73 0 14 16 18 22 5z" transform="translate(0.000000,0.000000) scale(1,1)" stroke="none" fill="#AAC8C7"/>
</g>
<g id="pattern2" transform="matrix(0.618,0,0,0.618,2069,608)">
<path d="M56 538 c-36 -50 -7 -214 53 -312 22 -35 81 -93 126 -123 96 -64 252 -83 343 -41 61 29 162 131 186 188 10 25 27 64 37 87 31 70 27 75 -39 43 -22 -11 -47 -20 -55 -20 -7 0 -19 -6 -26 -12 -8 -9 -49 -13 -129 -13 -94 0 -129 5 -177 22 -33 11 -71 24 -85 27 -43 9 -149 87 -182 133 -17 24 -33 43 -34 43 -2 0 -10 -10 -18 -22z m66 -146 c9 -25 107 -83 175 -105 183 -60 289 -60 426 -2 26 11 22 -18 -9 -55 -55 -65 -148 -110 -229 -110 -39 0 -156 31 -197 53 -52 27 -113 84 -150 141 -21 32 -38 65 -38 73 0 14 16 18 22 5z" transform="translate(2741,0.000000) scale(-1,1)" stroke="none" fill="#AAC8C7"/>
</g>
<g id="pattern3" transform="matrix(0.618,0,0,0.618,776,2741)matrix(0.71,0.71,-0.71,0.71,0,0)">
<path d="M56 538 c-36 -50 -7 -214 53 -312 22 -35 81 -93 126 -123 96 -64 252 -83 343 -41 61 29 162 131 186 188 10 25 27 64 37 87 31 70 27 75 -39 43 -22 -11 -47 -20 -55 -20 -7 0 -19 -6 -26 -12 -8 -9 -49 -13 -129 -13 -94 0 -129 5 -177 22 -33 11 -71 24 -85 27 -43 9 -149 87 -182 133 -17 24 -33 43 -34 43 -2 0 -10 -10 -18 -22z m66 -146 c9 -25 107 -83 175 -105 183 -60 289 -60 426 -2 26 11 22 -18 -9 -55 -55 -65 -148 -110 -229 -110 -39 0 -156 31 -197 53 -52 27 -113 84 -150 141 -21 32 -38 65 -38 73 0 14 16 18 22 5z" transform="translate(440,-440) scale(1,1)" stroke="none" fill="#AAC8C7"/>
</g>
<g id="pattern4" transform="matrix(1.618,0,0,1.618,1150,1150)matrix(0.87,0.5,-0.5,0.87,0,0)">
<path d="M56 538 c-36 -50 -7 -214 53 -312 22 -35 81 -93 126 -123 96 -64 252 -83 343 -41 61 29 162 131 186 188 10 25 27 64 37 87 31 70 27 75 -39 43 -22 -11 -47 -20 -55 -20 -7 0 -19 -6 -26 -12 -8 -9 -49 -13 -129 -13 -94 0 -129 5 -177 22 -33 11 -71 24 -85 27 -43 9 -149 87 -182 133 -17 24 -33 43 -34 43 -2 0 -10 -10 -18 -22z m66 -146 c9 -25 107 -83 175 -105 183 -60 289 -60 426 -2 26 11 22 -18 -9 -55 -55 -65 -148 -110 -229 -110 -39 0 -156 31 -197 53 -52 27 -113 84 -150 141 -21 32 -38 65 -38 73 0 14 16 18 22 5z" transform="translate(440,-440) scale(1,1)" stroke="none" fill="#AAC8C7"/>
</g>
</g>
</g>

</g>
<g id="row2" transform="translate(0,2016.0)">
<g id="0" transform="translate(0.0,0)scale(0.25,0.25)">

<g id="pattern">
<rect width="4368" height="4368" fill="#FA8D1C"/>
<g id="pattern1" transform="matrix(1,0,0,1,272,272)">
<path d="M56 538 c-36 -50 -7 -214 53 -312 22 -35 81 -93 126 -123 96 -64 252 -83 343 -41 61 29 162 131 186 188 10 25 27 64 37 87 31 70 27 75 -39 43 -22 -11 -47 -20 -55 -20 -7 0 -19 -6 -26 -12 -8 -9 -49 -13 -129 -13 -94 0 -129 5 -177 22 -33 11 -71 24 -85 27 -43 9 -149 87 -182 133 -17 24 -33 43 -34 43 -2 0 -10 -10 -18 -22z m66 -146 c9 -25 107 -83 175 -105 183 -60 289 -60 426 -2 26 11 22 -18 -9 -55 -55 -65 -148 -110 -229 -110 -39 0 -156 31 -197 53 -52 27 -113 84 -150 141 -21 32 -38 65 -38 73 0 14 16 18 22 5z" transform="translate(0.000000,0.000000) scale(1,1)" stroke="none" fill="#AAC8C7"/>
</g>
<g id="pattern2" transform="matrix(0.618,0,0,0.618,2069,608)">
<path d="M56 538 c-36 -50 -7 -214 53 -312 22 -35 81 -93 126 -123 96 -64 252 -83 343 -41 61 29 162 131 186 188 10 25 27 64 37 87 31 70 27 75 -39 43 -22 -11 -47 -20 -55 -20 -7 0 -19 -6 -26 -12 -8 -9 -49 -13 -129 -13 -94 0 -129 5 -177 22 -33 11 -71 24 -85 27 -43 9 -149 87 -182 133 -17 24 -33 43 -34 43 -2 0 -10 -10 -18 -22z m66 -146 c9 -25 107 -83 175 -105 183 -60 289 -60 426 -2 26 11 22 -18 -9 -55 -55 -65 -148 -110 -229 -110 -39 0 -156 31 -197 53 -52 27 -113 84 -150 141 -21 32 -38 65 -38 73 0 14 16 18 22 5z" transform="translate(2741,0.000000) scale(-1,1)" stroke="none" fill="#AAC8C7"/>
</g>
<g id="pattern3" transform="matrix(0.618,0,0,0.618,776,2741)matrix(0.71,0.71,-0.71,0.71,0,0)">
<path d="M56 538 c-36 -50 -7 -214 53 -312 22 -35 81 -93 126 -123 96 -64 252 -83 343 -41 61 29 162 131 186 188 10 25 27 64 37 87 31 70 27 75 -39 43 -22 -11 -47 -20 -55 -20 -7 0 -19 -6 -26 -12 -8 -9 -49 -13 -129 -13 -94 0 -129 5 -177 22 -33 11 -71 24 -85 27 -43 9 -149 87 -182 133 -17 24 -33 43 -34 43 -2 0 -10 -10 -18 -22z m66 -146 c9 -25 107 -83 175 -105 183 -60 289 -60 426 -2 26 11 22 -18 -9 -55 -55 -65 -148 -110 -229 -110 -39 0 -156 31 -197 53 -52 27 -113 84 -150 141 -21 32 -38 65 -38 73 0 14 16 18 22 5z" transform="translate(440,-440) scale(1,1)" stroke="none" fill="#AAC8C7"/>
</g>
<g id="pattern4" transform="matrix(1.618,0,0,1.618,1150,1150)matrix(0.87,0.5,-0.5,0.87,0,0)">
<path d="M56 538 c-36 -50 -7 -214 53 -312 22 -35 81 -93 126 -123 96 -64 252 -83 343 -41 61 29 162 131 186 188 10 25 27 64 37 87 31 70 27 75 -39 43 -22 -11 -47 -20 -55 -20 -7 0 -19 -6 -26 -12 -8 -9 -49 -13 -129 -13 -94 0 -129 5 -177 22 -33 11 -71 24 -85 27 -43 9 -149 87 -182 133 -17 24 -33 43 -34 43 -2 0 -10 -10 -18 -22z m66 -146 c9 -25 107 -83 175 -105 183 -60 289 -60 426 -2 26 11 22 -18 -9 -55 -55 -65 -148 -110 -229 -110 -39 0 -156 31 -197 53 -52 27 -113 84 -150 141 -21 32 -38 65 -38 73 0 14 16 18 22 5z" transform="translate(440,-440) scale(1,1)" stroke="none" fill="#AAC8C7"/>
</g>
</g>
</g>

<g id="1" transform="translate(1008.0,0)scale(0.25,0.25)">

<g id="pattern">
<rect width="4368" height="4368" fill="#FA8D1C"/>
<g id="pattern1" transform="matrix(1,0,0,1,272,272)">
<path d="M56 538 c-36 -50 -7 -214 53 -312 22 -35 81 -93 126 -123 96 -64 252 -83 343 -41 61 29 162 131 186 188 10 25 27 64 37 87 31 70 27 75 -39 43 -22 -11 -47 -20 -55 -20 -7 0 -19 -6 -26 -12 -8 -9 -49 -13 -129 -13 -94 0 -129 5 -177 22 -33 11 -71 24 -85 27 -43 9 -149 87 -182 133 -17 24 -33 43 -34 43 -2 0 -10 -10 -18 -22z m66 -146 c9 -25 107 -83 175 -105 183 -60 289 -60 426 -2 26 11 22 -18 -9 -55 -55 -65 -148 -110 -229 -110 -39 0 -156 31 -197 53 -52 27 -113 84 -150 141 -21 32 -38 65 -38 73 0 14 16 18 22 5z" transform="translate(0.000000,0.000000) scale(1,1)" stroke="none" fill="#AAC8C7"/>
</g>
<g id="pattern2" transform="matrix(0.618,0,0,0.618,2069,608)">
<path d="M56 538 c-36 -50 -7 -214 53 -312 22 -35 81 -93 126 -123 96 -64 252 -83 343 -41 61 29 162 131 186 188 10 25 27 64 37 87 31 70 27 75 -39 43 -22 -11 -47 -20 -55 -20 -7 0 -19 -6 -26 -12 -8 -9 -49 -13 -129 -13 -94 0 -129 5 -177 22 -33 11 -71 24 -85 27 -43 9 -149 87 -182 133 -17 24 -33 43 -34 43 -2 0 -10 -10 -18 -22z m66 -146 c9 -25 107 -83 175 -105 183 -60 289 -60 426 -2 26 11 22 -18 -9 -55 -55 -65 -148 -110 -229 -110 -39 0 -156 31 -197 53 -52 27 -113 84 -150 141 -21 32 -38 65 -38 73 0 14 16 18 22 5z" transform="translate(2741,0.000000) scale(-1,1)" stroke="none" fill="#AAC8C7"/>
</g>
<g id="pattern3" transform="matrix(0.618,0,0,0.618,776,2741)matrix(0.71,0.71,-0.71,0.71,0,0)">
<path d="M56 538 c-36 -50 -7 -214 53 -312 22 -35 81 -93 126 -123 96 -64 252 -83 343 -41 61 29 162 131 186 188 10 25 27 64 37 87 31 70 27 75 -39 43 -22 -11 -47 -20 -55 -20 -7 0 -19 -6 -26 -12 -8 -9 -49 -13 -129 -13 -94 0 -129 5 -177 22 -33 11 -71 24 -85 27 -43 9 -149 87 -182 133 -17 24 -33 43 -34 43 -2 0 -10 -10 -18 -22z m66 -146 c9 -25 107 -83 175 -105 183 -60 289 -60 426 -2 26 11 22 -18 -9 -55 -55 -65 -148 -110 -229 -110 -39 0 -156 31 -197 53 -52 27 -113 84 -150 141 -21 32 -38 65 -38 73 0 14 16 18 22 5z" transform="translate(440,-440) scale(1,1)" stroke="none" fill="#AAC8C7"/>
</g>
<g id="pattern4" transform="matrix(1.618,0,0,1.618,1150,1150)matrix(0.87,0.5,-0.5,0.87,0,0)">
<path d="M56 538 c-36 -50 -7 -214 53 -312 22 -35 81 -93 126 -123 96 -64 252 -83 343 -41 61 29 162 131 186 188 10 25 27 64 37 87 31 70 27 75 -39 43 -22 -11 -47 -20 -55 -20 -7 0 -19 -6 -26 -12 -8 -9 -49 -13 -129 -13 -94 0 -129 5 -177 22 -33 11 -71 24 -85 27 -43 9 -149 87 -182 133 -17 24 -33 43 -34 43 -2 0 -10 -10 -18 -22z m66 -146 c9 -25 107 -83 175 -105 183 -60 289 -60 426 -2 26 11 22 -18 -9 -55 -55 -65 -148 -110 -229 -110 -39 0 -156 31 -197 53 -52 27 -113 84 -150 141 -21 32 -38 65 -38 73 0 14 16 18 22 5z" transform="translate(440,-440) scale(1,1)" stroke="none" fill="#AAC8C7"/>
</g>
</g>
</g>

<g id="2" transform="translate(2016.0,0)scale(0.25,0.25)">

<g id="pattern">
<rect width="4368" height="4368" fill="#FA8D1C"/>
<g id="pattern1" transform="matrix(1,0,0,1,272,272)">
<path d="M56 538 c-36 -50 -7 -214 53 -312 22 -35 81 -93 126 -123 96 -64 252 -83 343 -41 61 29 162 131 186 188 10 25 27 64 37 87 31 70 27 75 -39 43 -22 -11 -47 -20 -55 -20 -7 0 -19 -6 -26 -12 -8 -9 -49 -13 -129 -13 -94 0 -129 5 -177 22 -33 11 -71 24 -85 27 -43 9 -149 87 -182 133 -17 24 -33 43 -34 43 -2 0 -10 -10 -18 -22z m66 -146 c9 -25 107 -83 175 -105 183 -60 289 -60 426 -2 26 11 22 -18 -9 -55 -55 -65 -148 -110 -229 -110 -39 0 -156 31 -197 53 -52 27 -113 84 -150 141 -21 32 -38 65 -38 73 0 14 16 18 22 5z" transform="translate(0.000000,0.000000) scale(1,1)" stroke="none" fill="#AAC8C7"/>
</g>
<g id="pattern2" transform="matrix(0.618,0,0,0.618,2069,608)">
<path d="M56 538 c-36 -50 -7 -214 53 -312 22 -35 81 -93 126 -123 96 -64 252 -83 343 -41 61 29 162 131 186 188 10 25 27 64 37 87 31 70 27 75 -39 43 -22 -11 -47 -20 -55 -20 -7 0 -19 -6 -26 -12 -8 -9 -49 -13 -129 -13 -94 0 -129 5 -177 22 -33 11 -71 24 -85 27 -43 9 -149 87 -182 133 -17 24 -33 43 -34 43 -2 0 -10 -10 -18 -22z m66 -146 c9 -25 107 -83 175 -105 183 -60 289 -60 426 -2 26 11 22 -18 -9 -55 -55 -65 -148 -110 -229 -110 -39 0 -156 31 -197 53 -52 27 -113 84 -150 141 -21 32 -38 65 -38 73 0 14 16 18 22 5z" transform="translate(2741,0.000000) scale(-1,1)" stroke="none" fill="#AAC8C7"/>
</g>
<g id="pattern3" transform="matrix(0.618,0,0,0.618,776,2741)matrix(0.71,0.71,-0.71,0.71,0,0)">
<path d="M56 538 c-36 -50 -7 -214 53 -312 22 -35 81 -93 126 -123 96 -64 252 -83 343 -41 61 29 162 131 186 188 10 25 27 64 37 87 31 70 27 75 -39 43 -22 -11 -47 -20 -55 -20 -7 0 -19 -6 -26 -12 -8 -9 -49 -13 -129 -13 -94 0 -129 5 -177 22 -33 11 -71 24 -85 27 -43 9 -149 87 -182 133 -17 24 -33 43 -34 43 -2 0 -10 -10 -18 -22z m66 -146 c9 -25 107 -83 175 -105 183 -60 289 -60 426 -2 26 11 22 -18 -9 -55 -55 -65 -148 -110 -229 -110 -39 0 -156 31 -197 53 -52 27 -113 84 -150 141 -21 32 -38 65 -38 73 0 14 16 18 22 5z" transform="translate(440,-440) scale(1,1)" stroke="none" fill="#AAC8C7"/>
</g>
<g id="pattern4" transform="matrix(1.618,0,0,1.618,1150,1150)matrix(0.87,0.5,-0.5,0.87,0,0)">
<path d="M56 538 c-36 -50 -7 -214 53 -312 22 -35 81 -93 126 -123 96 -64 252 -83 343 -41 61 29 162 131 186 188 10 25 27 64 37 87 31 70 27 75 -39 43 -22 -11 -47 -20 -55 -20 -7 0 -19 -6 -26 -12 -8 -9 -49 -13 -129 -13 -94 0 -129 5 -177 22 -33 11 -71 24 -85 27 -43 9 -149 87 -182 133 -17 24 -33 43 -34 43 -2 0 -10 -10 -18 -22z m66 -146 c9 -25 107 -83 175 -105 183 -60 289 -60 426 -2 26 11 22 -18 -9 -55 -55 -65 -148 -110 -229 -110 -39 0 -156 31 -197 53 -52 27 -113 84 -150 141 -21 32 -38 65 -38 73 0 14 16 18 22 5z" transform="translate(440,-440) scale(1,1)" stroke="none" fill="#AAC8C7"/>
</g>
</g>
</g>

<g id="3" transform="translate(3024.0,0)scale(0.25,0.25)">

<g id="pattern">
<rect width="4368" height="4368" fill="#FA8D1C"/>
<g id="pattern1" transform="matrix(1,0,0,1,272,272)">
<path d="M56 538 c-36 -50 -7 -214 53 -312 22 -35 81 -93 126 -123 96 -64 252 -83 343 -41 61 29 162 131 186 188 10 25 27 64 37 87 31 70 27 75 -39 43 -22 -11 -47 -20 -55 -20 -7 0 -19 -6 -26 -12 -8 -9 -49 -13 -129 -13 -94 0 -129 5 -177 22 -33 11 -71 24 -85 27 -43 9 -149 87 -182 133 -17 24 -33 43 -34 43 -2 0 -10 -10 -18 -22z m66 -146 c9 -25 107 -83 175 -105 183 -60 289 -60 426 -2 26 11 22 -18 -9 -55 -55 -65 -148 -110 -229 -110 -39 0 -156 31 -197 53 -52 27 -113 84 -150 141 -21 32 -38 65 -38 73 0 14 16 18 22 5z" transform="translate(0.000000,0.000000) scale(1,1)" stroke="none" fill="#AAC8C7"/>
</g>
<g id="pattern2" transform="matrix(0.618,0,0,0.618,2069,608)">
<path d="M56 538 c-36 -50 -7 -214 53 -312 22 -35 81 -93 126 -123 96 -64 252 -83 343 -41 61 29 162 131 186 188 10 25 27 64 37 87 31 70 27 75 -39 43 -22 -11 -47 -20 -55 -20 -7 0 -19 -6 -26 -12 -8 -9 -49 -13 -129 -13 -94 0 -129 5 -177 22 -33 11 -71 24 -85 27 -43 9 -149 87 -182 133 -17 24 -33 43 -34 43 -2 0 -10 -10 -18 -22z m66 -146 c9 -25 107 -83 175 -105 183 -60 289 -60 426 -2 26 11 22 -18 -9 -55 -55 -65 -148 -110 -229 -110 -39 0 -156 31 -197 53 -52 27 -113 84 -150 141 -21 32 -38 65 -38 73 0 14 16 18 22 5z" transform="translate(2741,0.000000) scale(-1,1)" stroke="none" fill="#AAC8C7"/>
</g>
<g id="pattern3" transform="matrix(0.618,0,0,0.618,776,2741)matrix(0.71,0.71,-0.71,0.71,0,0)">
<path d="M56 538 c-36 -50 -7 -214 53 -312 22 -35 81 -93 126 -123 96 -64 252 -83 343 -41 61 29 162 131 186 188 10 25 27 64 37 87 31 70 27 75 -39 43 -22 -11 -47 -20 -55 -20 -7 0 -19 -6 -26 -12 -8 -9 -49 -13 -129 -13 -94 0 -129 5 -177 22 -33 11 -71 24 -85 27 -43 9 -149 87 -182 133 -17 24 -33 43 -34 43 -2 0 -10 -10 -18 -22z m66 -146 c9 -25 107 -83 175 -105 183 -60 289 -60 426 -2 26 11 22 -18 -9 -55 -55 -65 -148 -110 -229 -110 -39 0 -156 31 -197 53 -52 27 -113 84 -150 141 -21 32 -38 65 -38 73 0 14 16 18 22 5z" transform="translate(440,-440) scale(1,1)" stroke="none" fill="#AAC8C7"/>
</g>
<g id="pattern4" transform="matrix(1.618,0,0,1.618,1150,1150)matrix(0.87,0.5,-0.5,0.87,0,0)">
<path d="M56 538 c-36 -50 -7 -214 53 -312 22 -35 81 -93 126 -123 96 -64 252 -83 343 -41 61 29 162 131 186 188 10 25 27 64 37 87 31 70 27 75 -39 43 -22 -11 -47 -20 -55 -20 -7 0 -19 -6 -26 -12 -8 -9 -49 -13 -129 -13 -94 0 -129 5 -177 22 -33 11 -71 24 -85 27 -43 9 -149 87 -182 133 -17 24 -33 43 -34 43 -2 0 -10 -10 -18 -22z m66 -146 c9 -25 107 -83 175 -105 183 -60 289 -60 426 -2 26 11 22 -18 -9 -55 -55 -65 -148 -110 -229 -110 -39 0 -156 31 -197 53 -52 27 -113 84 -150 141 -21 32 -38 65 -38 73 0 14 16 18 22 5z" transform="translate(440,-440) scale(1,1)" stroke="none" fill="#AAC8C7"/>
</g>
</g>
</g>

<g id="4" transform="translate(4032.0,0)scale(0.25,0.25)">

<g id="pattern">
<rect width="4368" height="4368" fill="#FA8D1C"/>
<g id="pattern1" transform="matrix(1,0,0,1,272,272)">
<path d="M56 538 c-36 -50 -7 -214 53 -312 22 -35 81 -93 126 -123 96 -64 252 -83 343 -41 61 29 162 131 186 188 10 25 27 64 37 87 31 70 27 75 -39 43 -22 -11 -47 -20 -55 -20 -7 0 -19 -6 -26 -12 -8 -9 -49 -13 -129 -13 -94 0 -129 5 -177 22 -33 11 -71 24 -85 27 -43 9 -149 87 -182 133 -17 24 -33 43 -34 43 -2 0 -10 -10 -18 -22z m66 -146 c9 -25 107 -83 175 -105 183 -60 289 -60 426 -2 26 11 22 -18 -9 -55 -55 -65 -148 -110 -229 -110 -39 0 -156 31 -197 53 -52 27 -113 84 -150 141 -21 32 -38 65 -38 73 0 14 16 18 22 5z" transform="translate(0.000000,0.000000) scale(1,1)" stroke="none" fill="#AAC8C7"/>
</g>
<g id="pattern2" transform="matrix(0.618,0,0,0.618,2069,608)">
<path d="M56 538 c-36 -50 -7 -214 53 -312 22 -35 81 -93 126 -123 96 -64 252 -83 343 -41 61 29 162 131 186 188 10 25 27 64 37 87 31 70 27 75 -39 43 -22 -11 -47 -20 -55 -20 -7 0 -19 -6 -26 -12 -8 -9 -49 -13 -129 -13 -94 0 -129 5 -177 22 -33 11 -71 24 -85 27 -43 9 -149 87 -182 133 -17 24 -33 43 -34 43 -2 0 -10 -10 -18 -22z m66 -146 c9 -25 107 -83 175 -105 183 -60 289 -60 426 -2 26 11 22 -18 -9 -55 -55 -65 -148 -110 -229 -110 -39 0 -156 31 -197 53 -52 27 -113 84 -150 141 -21 32 -38 65 -38 73 0 14 16 18 22 5z" transform="translate(2741,0.000000) scale(-1,1)" stroke="none" fill="#AAC8C7"/>
</g>
<g id="pattern3" transform="matrix(0.618,0,0,0.618,776,2741)matrix(0.71,0.71,-0.71,0.71,0,0)">
<path d="M56 538 c-36 -50 -7 -214 53 -312 22 -35 81 -93 126 -123 96 -64 252 -83 343 -41 61 29 162 131 186 188 10 25 27 64 37 87 31 70 27 75 -39 43 -22 -11 -47 -20 -55 -20 -7 0 -19 -6 -26 -12 -8 -9 -49 -13 -129 -13 -94 0 -129 5 -177 22 -33 11 -71 24 -85 27 -43 9 -149 87 -182 133 -17 24 -33 43 -34 43 -2 0 -10 -10 -18 -22z m66 -146 c9 -25 107 -83 175 -105 183 -60 289 -60 426 -2 26 11 22 -18 -9 -55 -55 -65 -148 -110 -229 -110 -39 0 -156 31 -197 53 -52 27 -113 84 -150 141 -21 32 -38 65 -38 73 0 14 16 18 22 5z" transform="translate(440,-440) scale(1,1)" stroke="none" fill="#AAC8C7"/>
</g>
<g id="pattern4" transform="matrix(1.618,0,0,1.618,1150,1150)matrix(0.87,0.5,-0.5,0.87,0,0)">
<path d="M56 538 c-36 -50 -7 -214 53 -312 22 -35 81 -93 126 -123 96 -64 252 -83 343 -41 61 29 162 131 186 188 10 25 27 64 37 87 31 70 27 75 -39 43 -22 -11 -47 -20 -55 -20 -7 0 -19 -6 -26 -12 -8 -9 -49 -13 -129 -13 -94 0 -129 5 -177 22 -33 11 -71 24 -85 27 -43 9 -149 87 -182 133 -17 24 -33 43 -34 43 -2 0 -10 -10 -18 -22z m66 -146 c9 -25 107 -83 175 -105 183 -60 289 -60 426 -2 26 11 22 -18 -9 -55 -55 -65 -148 -110 -229 -110 -39 0 -156 31 -197 53 -52 27 -113 84 -150 141 -21 32 -38 65 -38 73 0 14 16 18 22 5z" transform="translate(440,-440) scale(1,1)" stroke="none" fill="#AAC8C7"/>
</g>
</g>
</g>

</g>
<g id="row3" transform="translate(0,3024.0)">
<g id="0" transform="translate(0.0,0)scale(0.25,0.25)">

<g id="pattern">
<rect width="4368" height="4368" fill="#FA8D1C"/>
<g id="pattern1" transform="matrix(1,0,0,1,272,272)">
<path d="M56 538 c-36 -50 -7 -214 53 -312 22 -35 81 -93 126 -123 96 -64 252 -83 343 -41 61 29 162 131 186 188 10 25 27 64 37 87 31 70 27 75 -39 43 -22 -11 -47 -20 -55 -20 -7 0 -19 -6 -26 -12 -8 -9 -49 -13 -129 -13 -94 0 -129 5 -177 22 -33 11 -71 24 -85 27 -43 9 -149 87 -182 133 -17 24 -33 43 -34 43 -2 0 -10 -10 -18 -22z m66 -146 c9 -25 107 -83 175 -105 183 -60 289 -60 426 -2 26 11 22 -18 -9 -55 -55 -65 -148 -110 -229 -110 -39 0 -156 31 -197 53 -52 27 -113 84 -150 141 -21 32 -38 65 -38 73 0 14 16 18 22 5z" transform="translate(0.000000,0.000000) scale(1,1)" stroke="none" fill="#AAC8C7"/>
</g>
<g id="pattern2" transform="matrix(0.618,0,0,0.618,2069,608)">
<path d="M56 538 c-36 -50 -7 -214 53 -312 22 -35 81 -93 126 -123 96 -64 252 -83 343 -41 61 29 162 131 186 188 10 25 27 64 37 87 31 70 27 75 -39 43 -22 -11 -47 -20 -55 -20 -7 0 -19 -6 -26 -12 -8 -9 -49 -13 -129 -13 -94 0 -129 5 -177 22 -33 11 -71 24 -85 27 -43 9 -149 87 -182 133 -17 24 -33 43 -34 43 -2 0 -10 -10 -18 -22z m66 -146 c9 -25 107 -83 175 -105 183 -60 289 -60 426 -2 26 11 22 -18 -9 -55 -55 -65 -148 -110 -229 -110 -39 0 -156 31 -197 53 -52 27 -113 84 -150 141 -21 32 -38 65 -38 73 0 14 16 18 22 5z" transform="translate(2741,0.000000) scale(-1,1)" stroke="none" fill="#AAC8C7"/>
</g>
<g id="pattern3" transform="matrix(0.618,0,0,0.618,776,2741)matrix(0.71,0.71,-0.71,0.71,0,0)">
<path d="M56 538 c-36 -50 -7 -214 53 -312 22 -35 81 -93 126 -123 96 -64 252 -83 343 -41 61 29 162 131 186 188 10 25 27 64 37 87 31 70 27 75 -39 43 -22 -11 -47 -20 -55 -20 -7 0 -19 -6 -26 -12 -8 -9 -49 -13 -129 -13 -94 0 -129 5 -177 22 -33 11 -71 24 -85 27 -43 9 -149 87 -182 133 -17 24 -33 43 -34 43 -2 0 -10 -10 -18 -22z m66 -146 c9 -25 107 -83 175 -105 183 -60 289 -60 426 -2 26 11 22 -18 -9 -55 -55 -65 -148 -110 -229 -110 -39 0 -156 31 -197 53 -52 27 -113 84 -150 141 -21 32 -38 65 -38 73 0 14 16 18 22 5z" transform="translate(440,-440) scale(1,1)" stroke="none" fill="#AAC8C7"/>
</g>
<g id="pattern4" transform="matrix(1.618,0,0,1.618,1150,1150)matrix(0.87,0.5,-0.5,0.87,0,0)">
<path d="M56 538 c-36 -50 -7 -214 53 -312 22 -35 81 -93 126 -123 96 -64 252 -83 343 -41 61 29 162 131 186 188 10 25 27 64 37 87 31 70 27 75 -39 43 -22 -11 -47 -20 -55 -20 -7 0 -19 -6 -26 -12 -8 -9 -49 -13 -129 -13 -94 0 -129 5 -177 22 -33 11 -71 24 -85 27 -43 9 -149 87 -182 133 -17 24 -33 43 -34 43 -2 0 -10 -10 -18 -22z m66 -146 c9 -25 107 -83 175 -105 183 -60 289 -60 426 -2 26 11 22 -18 -9 -55 -55 -65 -148 -110 -229 -110 -39 0 -156 31 -197 53 -52 27 -113 84 -150 141 -21 32 -38 65 -38 73 0 14 16 18 22 5z" transform="translate(440,-440) scale(1,1)" stroke="none" fill="#AAC8C7"/>
</g>
</g>
</g>

<g id="1" transform="translate(1008.0,0)scale(0.25,0.25)">

<g id="pattern">
<rect width="4368" height="4368" fill="#FA8D1C"/>
<g id="pattern1" transform="matrix(1,0,0,1,272,272)">
<path d="M56 538 c-36 -50 -7 -214 53 -312 22 -35 81 -93 126 -123 96 -64 252 -83 343 -41 61 29 162 131 186 188 10 25 27 64 37 87 31 70 27 75 -39 43 -22 -11 -47 -20 -55 -20 -7 0 -19 -6 -26 -12 -8 -9 -49 -13 -129 -13 -94 0 -129 5 -177 22 -33 11 -71 24 -85 27 -43 9 -149 87 -182 133 -17 24 -33 43 -34 43 -2 0 -10 -10 -18 -22z m66 -146 c9 -25 107 -83 175 -105 183 -60 289 -60 426 -2 26 11 22 -18 -9 -55 -55 -65 -148 -110 -229 -110 -39 0 -156 31 -197 53 -52 27 -113 84 -150 141 -21 32 -38 65 -38 73 0 14 16 18 22 5z" transform="translate(0.000000,0.000000) scale(1,1)" stroke="none" fill="#AAC8C7"/>
</g>
<g id="pattern2" transform="matrix(0.618,0,0,0.618,2069,608)">
<path d="M56 538 c-36 -50 -7 -214 53 -312 22 -35 81 -93 126 -123 96 -64 252 -83 343 -41 61 29 162 131 186 188 10 25 27 64 37 87 31 70 27 75 -39 43 -22 -11 -47 -20 -55 -20 -7 0 -19 -6 -26 -12 -8 -9 -49 -13 -129 -13 -94 0 -129 5 -177 22 -33 11 -71 24 -85 27 -43 9 -149 87 -182 133 -17 24 -33 43 -34 43 -2 0 -10 -10 -18 -22z m66 -146 c9 -25 107 -83 175 -105 183 -60 289 -60 426 -2 26 11 22 -18 -9 -55 -55 -65 -148 -110 -229 -110 -39 0 -156 31 -197 53 -52 27 -113 84 -150 141 -21 32 -38 65 -38 73 0 14 16 18 22 5z" transform="translate(2741,0.000000) scale(-1,1)" stroke="none" fill="#AAC8C7"/>
</g>
<g id="pattern3" transform="matrix(0.618,0,0,0.618,776,2741)matrix(0.71,0.71,-0.71,0.71,0,0)">
<path d="M56 538 c-36 -50 -7 -214 53 -312 22 -35 81 -93 126 -123 96 -64 252 -83 343 -41 61 29 162 131 186 188 10 25 27 64 37 87 31 70 27 75 -39 43 -22 -11 -47 -20 -55 -20 -7 0 -19 -6 -26 -12 -8 -9 -49 -13 -129 -13 -94 0 -129 5 -177 22 -33 11 -71 24 -85 27 -43 9 -149 87 -182 133 -17 24 -33 43 -34 43 -2 0 -10 -10 -18 -22z m66 -146 c9 -25 107 -83 175 -105 183 -60 289 -60 426 -2 26 11 22 -18 -9 -55 -55 -65 -148 -110 -229 -110 -39 0 -156 31 -197 53 -52 27 -113 84 -150 141 -21 32 -38 65 -38 73 0 14 16 18 22 5z" transform="translate(440,-440) scale(1,1)" stroke="none" fill="#AAC8C7"/>
</g>
<g id="pattern4" transform="matrix(1.618,0,0,1.618,1150,1150)matrix(0.87,0.5,-0.5,0.87,0,0)">
<path d="M56 538 c-36 -50 -7 -214 53 -312 22 -35 81 -93 126 -123 96 -64 252 -83 343 -41 61 29 162 131 186 188 10 25 27 64 37 87 31 70 27 75 -39 43 -22 -11 -47 -20 -55 -20 -7 0 -19 -6 -26 -12 -8 -9 -49 -13 -129 -13 -94 0 -129 5 -177 22 -33 11 -71 24 -85 27 -43 9 -149 87 -182 133 -17 24 -33 43 -34 43 -2 0 -10 -10 -18 -22z m66 -146 c9 -25 107 -83 175 -105 183 -60 289 -60 426 -2 26 11 22 -18 -9 -55 -55 -65 -148 -110 -229 -110 -39 0 -156 31 -197 53 -52 27 -113 84 -150 141 -21 32 -38 65 -38 73 0 14 16 18 22 5z" transform="translate(440,-440) scale(1,1)" stroke="none" fill="#AAC8C7"/>
</g>
</g>
</g>

<g id="2" transform="translate(2016.0,0)scale(0.25,0.25)">

<g id="pattern">
<rect width="4368" height="4368" fill="#FA8D1C"/>
<g id="pattern1" transform="matrix(1,0,0,1,272,272)">
<path d="M56 538 c-36 -50 -7 -214 53 -312 22 -35 81 -93 126 -123 96 -64 252 -83 343 -41 61 29 162 131 186 188 10 25 27 64 37 87 31 70 27 75 -39 43 -22 -11 -47 -20 -55 -20 -7 0 -19 -6 -26 -12 -8 -9 -49 -13 -129 -13 -94 0 -129 5 -177 22 -33 11 -71 24 -85 27 -43 9 -149 87 -182 133 -17 24 -33 43 -34 43 -2 0 -10 -10 -18 -22z m66 -146 c9 -25 107 -83 175 -105 183 -60 289 -60 426 -2 26 11 22 -18 -9 -55 -55 -65 -148 -110 -229 -110 -39 0 -156 31 -197 53 -52 27 -113 84 -150 141 -21 32 -38 65 -38 73 0 14 16 18 22 5z" transform="translate(0.000000,0.000000) scale(1,1)" stroke="none" fill="#AAC8C7"/>
</g>
<g id="pattern2" transform="matrix(0.618,0,0,0.618,2069,608)">
<path d="M56 538 c-36 -50 -7 -214 53 -312 22 -35 81 -93 126 -123 96 -64 252 -83 343 -41 61 29 162 131 186 188 10 25 27 64 37 87 31 70 27 75 -39 43 -22 -11 -47 -20 -55 -20 -7 0 -19 -6 -26 -12 -8 -9 -49 -13 -129 -13 -94 0 -129 5 -177 22 -33 11 -71 24 -85 27 -43 9 -149 87 -182 133 -17 24 -33 43 -34 43 -2 0 -10 -10 -18 -22z m66 -146 c9 -25 107 -83 175 -105 183 -60 289 -60 426 -2 26 11 22 -18 -9 -55 -55 -65 -148 -110 -229 -110 -39 0 -156 31 -197 53 -52 27 -113 84 -150 141 -21 32 -38 65 -38 73 0 14 16 18 22 5z" transform="translate(2741,0.000000) scale(-1,1)" stroke="none" fill="#AAC8C7"/>
</g>
<g id="pattern3" transform="matrix(0.618,0,0,0.618,776,2741)matrix(0.71,0.71,-0.71,0.71,0,0)">
<path d="M56 538 c-36 -50 -7 -214 53 -312 22 -35 81 -93 126 -123 96 -64 252 -83 343 -41 61 29 162 131 186 188 10 25 27 64 37 87 31 70 27 75 -39 43 -22 -11 -47 -20 -55 -20 -7 0 -19 -6 -26 -12 -8 -9 -49 -13 -129 -13 -94 0 -129 5 -177 22 -33 11 -71 24 -85 27 -43 9 -149 87 -182 133 -17 24 -33 43 -34 43 -2 0 -10 -10 -18 -22z m66 -146 c9 -25 107 -83 175 -105 183 -60 289 -60 426 -2 26 11 22 -18 -9 -55 -55 -65 -148 -110 -229 -110 -39 0 -156 31 -197 53 -52 27 -113 84 -150 141 -21 32 -38 65 -38 73 0 14 16 18 22 5z" transform="translate(440,-440) scale(1,1)" stroke="none" fill="#AAC8C7"/>
</g>
<g id="pattern4" transform="matrix(1.618,0,0,1.618,1150,1150)matrix(0.87,0.5,-0.5,0.87,0,0)">
<path d="M56 538 c-36 -50 -7 -214 53 -312 22 -35 81 -93 126 -123 96 -64 252 -83 343 -41 61 29 162 131 186 188 10 25 27 64 37 87 31 70 27 75 -39 43 -22 -11 -47 -20 -55 -20 -7 0 -19 -6 -26 -12 -8 -9 -49 -13 -129 -13 -94 0 -129 5 -177 22 -33 11 -71 24 -85 27 -43 9 -149 87 -182 133 -17 24 -33 43 -34 43 -2 0 -10 -10 -18 -22z m66 -146 c9 -25 107 -83 175 -105 183 -60 289 -60 426 -2 26 11 22 -18 -9 -55 -55 -65 -148 -110 -229 -110 -39 0 -156 31 -197 53 -52 27 -113 84 -150 141 -21 32 -38 65 -38 73 0 14 16 18 22 5z" transform="translate(440,-440) scale(1,1)" stroke="none" fill="#AAC8C7"/>
</g>
</g>
</g>

<g id="3" transform="translate(3024.0,0)scale(0.25,0.25)">

<g id="pattern">
<rect width="4368" height="4368" fill="#FA8D1C"/>
<g id="pattern1" transform="matrix(1,0,0,1,272,272)">
<path d="M56 538 c-36 -50 -7 -214 53 -312 22 -35 81 -93 126 -123 96 -64 252 -83 343 -41 61 29 162 131 186 188 10 25 27 64 37 87 31 70 27 75 -39 43 -22 -11 -47 -20 -55 -20 -7 0 -19 -6 -26 -12 -8 -9 -49 -13 -129 -13 -94 0 -129 5 -177 22 -33 11 -71 24 -85 27 -43 9 -149 87 -182 133 -17 24 -33 43 -34 43 -2 0 -10 -10 -18 -22z m66 -146 c9 -25 107 -83 175 -105 183 -60 289 -60 426 -2 26 11 22 -18 -9 -55 -55 -65 -148 -110 -229 -110 -39 0 -156 31 -197 53 -52 27 -113 84 -150 141 -21 32 -38 65 -38 73 0 14 16 18 22 5z" transform="translate(0.000000,0.000000) scale(1,1)" stroke="none" fill="#AAC8C7"/>
</g>
<g id="pattern2" transform="matrix(0.618,0,0,0.618,2069,608)">
<path d="M56 538 c-36 -50 -7 -214 53 -312 22 -35 81 -93 126 -123 96 -64 252 -83 343 -41 61 29 162 131 186 188 10 25 27 64 37 87 31 70 27 75 -39 43 -22 -11 -47 -20 -55 -20 -7 0 -19 -6 -26 -12 -8 -9 -49 -13 -129 -13 -94 0 -129 5 -177 22 -33 11 -71 24 -85 27 -43 9 -149 87 -182 133 -17 24 -33 43 -34 43 -2 0 -10 -10 -18 -22z m66 -146 c9 -25 107 -83 175 -105 183 -60 289 -60 426 -2 26 11 22 -18 -9 -55 -55 -65 -148 -110 -229 -110 -39 0 -156 31 -197 53 -52 27 -113 84 -150 141 -21 32 -38 65 -38 73 0 14 16 18 22 5z" transform="translate(2741,0.000000) scale(-1,1)" stroke="none" fill="#AAC8C7"/>
</g>
<g id="pattern3" transform="matrix(0.618,0,0,0.618,776,2741)matrix(0.71,0.71,-0.71,0.71,0,0)">
<path d="M56 538 c-36 -50 -7 -214 53 -312 22 -35 81 -93 126 -123 96 -64 252 -83 343 -41 61 29 162 131 186 188 10 25 27 64 37 87 31 70 27 75 -39 43 -22 -11 -47 -20 -55 -20 -7 0 -19 -6 -26 -12 -8 -9 -49 -13 -129 -13 -94 0 -129 5 -177 22 -33 11 -71 24 -85 27 -43 9 -149 87 -182 133 -17 24 -33 43 -34 43 -2 0 -10 -10 -18 -22z m66 -146 c9 -25 107 -83 175 -105 183 -60 289 -60 426 -2 26 11 22 -18 -9 -55 -55 -65 -148 -110 -229 -110 -39 0 -156 31 -197 53 -52 27 -113 84 -150 141 -21 32 -38 65 -38 73 0 14 16 18 22 5z" transform="translate(440,-440) scale(1,1)" stroke="none" fill="#AAC8C7"/>
</g>
<g id="pattern4" transform="matrix(1.618,0,0,1.618,1150,1150)matrix(0.87,0.5,-0.5,0.87,0,0)">
<path d="M56 538 c-36 -50 -7 -214 53 -312 22 -35 81 -93 126 -123 96 -64 252 -83 343 -41 61 29 162 131 186 188 10 25 27 64 37 87 31 70 27 75 -39 43 -22 -11 -47 -20 -55 -20 -7 0 -19 -6 -26 -12 -8 -9 -49 -13 -129 -13 -94 0 -129 5 -177 22 -33 11 -71 24 -85 27 -43 9 -149 87 -182 133 -17 24 -33 43 -34 43 -2 0 -10 -10 -18 -22z m66 -146 c9 -25 107 -83 175 -105 183 -60 289 -60 426 -2 26 11 22 -18 -9 -55 -55 -65 -148 -110 -229 -110 -39 0 -156 31 -197 53 -52 27 -113 84 -150 141 -21 32 -38 65 -38 73 0 14 16 18 22 5z" transform="translate(440,-440) scale(1,1)" stroke="none" fill="#AAC8C7"/>
</g>
</g>
</g>

<g id="4" transform="translate(4032.0,0)scale(0.25,0.25)">

<g id="pattern">
<rect width="4368" height="4368" fill="#FA8D1C"/>
<g id="pattern1" transform="matrix(1,0,0,1,272,272)">
<path d="M56 538 c-36 -50 -7 -214 53 -312 22 -35 81 -93 126 -123 96 -64 252 -83 343 -41 61 29 162 131 186 188 10 25 27 64 37 87 31 70 27 75 -39 43 -22 -11 -47 -20 -55 -20 -7 0 -19 -6 -26 -12 -8 -9 -49 -13 -129 -13 -94 0 -129 5 -177 22 -33 11 -71 24 -85 27 -43 9 -149 87 -182 133 -17 24 -33 43 -34 43 -2 0 -10 -10 -18 -22z m66 -146 c9 -25 107 -83 175 -105 183 -60 289 -60 426 -2 26 11 22 -18 -9 -55 -55 -65 -148 -110 -229 -110 -39 0 -156 31 -197 53 -52 27 -113 84 -150 141 -21 32 -38 65 -38 73 0 14 16 18 22 5z" transform="translate(0.000000,0.000000) scale(1,1)" stroke="none" fill="#AAC8C7"/>
</g>
<g id="pattern2" transform="matrix(0.618,0,0,0.618,2069,608)">
<path d="M56 538 c-36 -50 -7 -214 53 -312 22 -35 81 -93 126 -123 96 -64 252 -83 343 -41 61 29 162 131 186 188 10 25 27 64 37 87 31 70 27 75 -39 43 -22 -11 -47 -20 -55 -20 -7 0 -19 -6 -26 -12 -8 -9 -49 -13 -129 -13 -94 0 -129 5 -177 22 -33 11 -71 24 -85 27 -43 9 -149 87 -182 133 -17 24 -33 43 -34 43 -2 0 -10 -10 -18 -22z m66 -146 c9 -25 107 -83 175 -105 183 -60 289 -60 426 -2 26 11 22 -18 -9 -55 -55 -65 -148 -110 -229 -110 -39 0 -156 31 -197 53 -52 27 -113 84 -150 141 -21 32 -38 65 -38 73 0 14 16 18 22 5z" transform="translate(2741,0.000000) scale(-1,1)" stroke="none" fill="#AAC8C7"/>
</g>
<g id="pattern3" transform="matrix(0.618,0,0,0.618,776,2741)matrix(0.71,0.71,-0.71,0.71,0,0)">
<path d="M56 538 c-36 -50 -7 -214 53 -312 22 -35 81 -93 126 -123 96 -64 252 -83 343 -41 61 29 162 131 186 188 10 25 27 64 37 87 31 70 27 75 -39 43 -22 -11 -47 -20 -55 -20 -7 0 -19 -6 -26 -12 -8 -9 -49 -13 -129 -13 -94 0 -129 5 -177 22 -33 11 -71 24 -85 27 -43 9 -149 87 -182 133 -17 24 -33 43 -34 43 -2 0 -10 -10 -18 -22z m66 -146 c9 -25 107 -83 175 -105 183 -60 289 -60 426 -2 26 11 22 -18 -9 -55 -55 -65 -148 -110 -229 -110 -39 0 -156 31 -197 53 -52 27 -113 84 -150 141 -21 32 -38 65 -38 73 0 14 16 18 22 5z" transform="translate(440,-440) scale(1,1)" stroke="none" fill="#AAC8C7"/>
</g>
<g id="pattern4" transform="matrix(1.618,0,0,1.618,1150,1150)matrix(0.87,0.5,-0.5,0.87,0,0)">
<path d="M56 538 c-36 -50 -7 -214 53 -312 22 -35 81 -93 126 -123 96 -64 252 -83 343 -41 61 29 162 131 186 188 10 25 27 64 37 87 31 70 27 75 -39 43 -22 -11 -47 -20 -55 -20 -7 0 -19 -6 -26 -12 -8 -9 -49 -13 -129 -13 -94 0 -129 5 -177 22 -33 11 -71 24 -85 27 -43 9 -149 87 -182 133 -17 24 -33 43 -34 43 -2 0 -10 -10 -18 -22z m66 -146 c9 -25 107 -83 175 -105 183 -60 289 -60 426 -2 26 11 22 -18 -9 -55 -55 -65 -148 -110 -229 -110 -39 0 -156 31 -197 53 -52 27 -113 84 -150 141 -21 32 -38 65 -38 73 0 14 16 18 22 5z" transform="translate(440,-440) scale(1,1)" stroke="none" fill="#AAC8C7"/>
</g>
</g>
</g>

</g>
</svg>