<?xml version="1.0" standalone="no"?>
<!DOCTYPE svg PUBLIC "-//W3C//DTD SVG 20010904//EN"
 "http://www.w3.org/TR/2001/REC-SVG-20010904/DTD/svg10.dtd">
<svg version="1.0" xmlns="http://www.w3.org/2000/svg" 
width="68.000000pt" height="66.000000pt" viewBox="0 0 68.000000 66.000000"
preserveAspectRatio = "xMidYMid meet" >
<metadata>
Created by ZoeQU, 2022
</metadata>
<rect width="68.000000" height="66.000000" fill="#167F79"/>
<path d="M624 159 c-11 -18 14 -35 29 -20 10 10 9 12 -3 9 -8 -2 -14 3 -12 10 3 15 -4 16 -14 1z" transform="translate(0.000000,66.000000) scale(0.100000,-0.100000)" stroke="none" fill="#949271"/>

<path d="M653 190 c-12 -19 -19 -38 -17 -42 7 -12 24 0 24 17 0 7 5 15 11 17 6 2 10 12 8 23 -4 16 -8 14 -26 -15z" transform="translate(0.000000,66.000000) scale(0.100000,-0.100000)" stroke="none" fill="#EFB664"/>

<path d="M40 156 c0 -16 28 -42 36 -33 7 6 -18 47 -28 47 -5 0 -8 -6 -8 -14z" transform="translate(0.000000,66.000000) scale(0.100000,-0.100000)" stroke="none" fill="#949271"/>

<path d="M140 51 c0 -5 8 -15 17 -22 11 -10 14 -10 9 -1 -4 6 -3 12 2 12 6 0 12 -6 15 -14 6 -14 47 -29 47 -17 0 7 -72 51 -84 51 -3 0 -6 -4 -6 -9z" transform="translate(0.000000,66.000000) scale(0.100000,-0.100000)" stroke="none" fill="#949271"/>

<path d="M530 58 c-46 -28 -44 -27 -37 -34 3 -3 16 3 28 15 33 31 47 26 18 -6 -23 -27 -23 -27 9 1 52 47 42 61 -18 24z" transform="translate(0.000000,66.000000) scale(0.100000,-0.100000)" stroke="none" fill="#949271"/>

<path d="M588 175 c-30 -49 -108 -111 -152 -119 -16 -3 -27 -9 -23 -12 23 -23 161 76 193 138 24 46 12 41 -18 -7z" transform="translate(0.000000,66.000000) scale(0.100000,-0.100000)" stroke="none" fill="#949271"/>

<path d="M46 414 c-3 -9 -6 -46 -6 -82 0 -78 31 -156 83 -210 35 -37 116 -82 144 -81 10 0 -4 9 -32 19 -68 26 -115 68 -150 131 -27 49 -30 63 -30 147 0 50 -1 92 -1 92 -1 0 -5 -7 -8 -16z" transform="translate(0.000000,66.000000) scale(0.100000,-0.100000)" stroke="none" fill="#949271"/>

<path d="M265 628 c-61 -16 -140 -74 -174 -125 -17 -26 -31 -51 -31 -57 0 -5 13 10 29 35 63 98 141 141 255 141 85 0 130 -17 192 -74 48 -45 70 -78 90 -143 8 -25 13 -32 13 -18 2 68 -91 187 -176 225 -55 24 -143 31 -198 16z" transform="translate(0.000000,66.000000) scale(0.100000,-0.100000)" stroke="none" fill="#949271"/>

<path d="M394 498 c-9 -50 -10 -51 -27 -34 -22 22 -36 12 -20 -13 14 -23 8 -31 -24 -31 -12 0 -23 -4 -23 -10 0 -5 11 -10 25 -10 14 0 25 -4 25 -8 0 -5 -11 -18 -25 -30 -25 -22 -33 -42 -16 -42 5 0 14 7 21 15 18 22 32 18 18 -5 -7 -10 -8 -23 -4 -27 5 -4 11 -2 13 5 6 17 23 15 23 -3 0 -32 22 -115 31 -115 5 0 9 32 9 70 0 39 3 70 7 70 3 0 15 -7 25 -17 24 -21 36 -9 15 15 -25 28 -21 39 13 34 18 -3 30 0 30 7 0 6 -12 11 -26 11 -16 0 -23 4 -18 11 4 7 1 10 -6 7 -8 -2 -17 -11 -20 -19 -4 -8 -12 -24 -18 -36 -7 -13 -12 -33 -12 -45 0 -26 -8 -20 -13 9 -2 12 -14 30 -27 41 -16 13 -20 23 -14 33 4 8 9 19 10 24 0 6 2 16 2 23 1 7 7 10 13 6 6 -3 14 -1 18 5 5 7 14 5 28 -9 31 -28 67 -35 83 -15 13 15 10 16 -23 10 -42 -8 -45 -3 -17 32 26 33 17 43 -13 15 -13 -12 -26 -22 -30 -22 -4 0 -7 23 -7 50 0 65 -15 64 -26 -2z" transform="translate(0.000000,66.000000) scale(0.100000,-0.100000)" stroke="none" fill="#949271"/>

<path d="M289 620 c-63 -11 -119 -41 -162 -89 -62 -69 -72 -96 -72 -196 0 -81 3 -95 30 -144 36 -65 83 -105 153 -131 172 -65 353 37 392 219 21 99 -12 194 -93 269 -72 65 -152 89 -248 72z m131 -120 c0 -27 3 -50 7 -50 4 0 17 10 30 22 30 28 39 18 13 -15 -28 -35 -25 -40 16 -32 42 7 39 -9 -4 -28 l-27 -11 28 -4 c15 -2 27 -8 27 -14 0 -6 -13 -8 -30 -6 -34 5 -38 -6 -13 -34 21 -24 9 -36 -15 -15 -10 10 -22 17 -25 17 -4 0 -7 -31 -7 -70 0 -38 -4 -70 -9 -70 -9 0 -31 83 -31 115 0 18 -17 20 -23 3 -2 -7 -8 -9 -13 -5 -4 4 -3 17 4 27 14 23 0 27 -18 5 -7 -8 -16 -15 -21 -15 -17 0 -9 20 16 42 14 12 25 25 25 30 0 4 -11 8 -25 8 -14 0 -25 5 -25 10 0 6 11 10 23 10 32 0 38 8 24 31 -16 25 -2 35 20 13 17 -17 18 -16 27 34 11 66 26 67 26 2z" transform="translate(0.000000,66.000000) scale(0.100000,-0.100000)" stroke="none" fill="#EFB664"/>

</svg>