<?xml version="1.0" standalone="no"?>
<!DOCTYPE svg PUBLIC "-//W3C//DTD SVG 20010904//EN"
 "http://www.w3.org/TR/2001/REC-SVG-20010904/DTD/svg10.dtd">
<svg version="1.0" xmlns="http://www.w3.org/2000/svg" width="424pt" height="360pt" viewBox="0 0 424 360" preserveAspectRatio = "xMidYMid meet" >
<metadata>
Created by ZoeQu, written in 2022
</metadata>
<rect width="424" height="360" fill="#D9D6A4"/>
<g id="col0" transform="translate(0, 12)">
<g id="0" transform="translate(0,0.0)scale(0.8,0.8)">

<path d="M438 591 c-30 -30 -36 -41 -31 -64 5 -24 9 -28 30 -22 21 5 24 3 21 -16 -2 -14 6 -28 24 -42 33 -25 58 -16 58 20 0 21 3 24 12 15 16 -16 28 -15 28 3 0 8 -4 15 -10 15 -18 0 -11 18 9 23 14 3 18 11 14 26 -3 12 -9 21 -14 21 -5 0 -9 6 -9 14 0 20 -20 32 -60 38 -30 5 -40 1 -72 -31z" transform="translate(0,90) scale(0.1,-0.1)" stroke="none" fill="#936C3F"/>

<path d="M502 868 c-7 -7 -12 -21 -12 -32 0 -20 -77 -146 -90 -146 -4 0 -15 9 -26 21 -10 12 -41 33 -69 47 -42 22 -61 25 -120 23 -38 -2 -96 -4 -128 -5 -66 -1 -75 -17 -22 -42 69 -32 165 -135 165 -175 0 -8 -16 -24 -36 -37 -25 -16 -45 -43 -65 -86 -16 -35 -39 -72 -49 -81 -30 -27 -24 -35 28 -35 69 0 189 27 249 56 56 27 73 25 73 -8 0 -45 128 -267 171 -296 44 -30 74 -26 74 10 1 15 9 36 19 47 26 29 31 91 12 147 -9 26 -16 51 -16 54 0 8 151 13 293 11 107 -1 111 8 28 68 -32 24 -82 74 -111 112 -28 39 -69 83 -91 98 -45 33 -118 48 -149 31 -32 -17 -36 -5 -17 48 27 77 17 96 -89 174 -6 4 -16 2 -22 -4z m56 -261 c6 -5 12 -16 12 -23 0 -8 4 -14 9 -14 5 0 11 -9 14 -21 4 -15 0 -23 -14 -26 -20 -5 -27 -23 -9 -23 6 0 10 -7 10 -15 0 -8 -4 -15 -10 -15 -5 0 -10 -4 -10 -10 0 -5 8 -10 17 -10 12 0 14 -3 6 -11 -16 -16 -36 -1 -30 22 3 10 1 22 -4 25 -5 3 -9 -6 -9 -21 0 -14 -7 -28 -16 -32 -24 -9 -70 30 -66 56 3 19 0 21 -21 16 -21 -6 -25 -2 -30 22 -5 23 1 34 31 64 32 32 42 36 72 31 19 -2 41 -9 48 -15z m39 -19 c-3 -8 -6 -5 -6 6 -1 11 2 17 5 13 3 -3 4 -12 1 -19z m-170 -120 c-3 -8 -6 -5 -6 6 -1 11 2 17 5 13 3 -3 4 -12 1 -19z m33 -22 c0 -3 -4 -8 -10 -11 -5 -3 -10 -1 -10 4 0 6 5 11 10 11 6 0 10 -2 10 -4z m63 -43 c-7 -2 -19 -2 -25 0 -7 3 -2 5 12 5 14 0 19 -2 13 -5z" transform="translate(0,90) scale(0.1,-0.1)" stroke="none" fill="#F3A181"/>

</g>

<g id="1" transform="translate(0,90.0)scale(0.8,0.8)">

<path d="M438 591 c-30 -30 -36 -41 -31 -64 5 -24 9 -28 30 -22 21 5 24 3 21 -16 -2 -14 6 -28 24 -42 33 -25 58 -16 58 20 0 21 3 24 12 15 16 -16 28 -15 28 3 0 8 -4 15 -10 15 -18 0 -11 18 9 23 14 3 18 11 14 26 -3 12 -9 21 -14 21 -5 0 -9 6 -9 14 0 20 -20 32 -60 38 -30 5 -40 1 -72 -31z" transform="translate(0,90) scale(0.1,-0.1)" stroke="none" fill="#936C3F"/>

<path d="M502 868 c-7 -7 -12 -21 -12 -32 0 -20 -77 -146 -90 -146 -4 0 -15 9 -26 21 -10 12 -41 33 -69 47 -42 22 -61 25 -120 23 -38 -2 -96 -4 -128 -5 -66 -1 -75 -17 -22 -42 69 -32 165 -135 165 -175 0 -8 -16 -24 -36 -37 -25 -16 -45 -43 -65 -86 -16 -35 -39 -72 -49 -81 -30 -27 -24 -35 28 -35 69 0 189 27 249 56 56 27 73 25 73 -8 0 -45 128 -267 171 -296 44 -30 74 -26 74 10 1 15 9 36 19 47 26 29 31 91 12 147 -9 26 -16 51 -16 54 0 8 151 13 293 11 107 -1 111 8 28 68 -32 24 -82 74 -111 112 -28 39 -69 83 -91 98 -45 33 -118 48 -149 31 -32 -17 -36 -5 -17 48 27 77 17 96 -89 174 -6 4 -16 2 -22 -4z m56 -261 c6 -5 12 -16 12 -23 0 -8 4 -14 9 -14 5 0 11 -9 14 -21 4 -15 0 -23 -14 -26 -20 -5 -27 -23 -9 -23 6 0 10 -7 10 -15 0 -8 -4 -15 -10 -15 -5 0 -10 -4 -10 -10 0 -5 8 -10 17 -10 12 0 14 -3 6 -11 -16 -16 -36 -1 -30 22 3 10 1 22 -4 25 -5 3 -9 -6 -9 -21 0 -14 -7 -28 -16 -32 -24 -9 -70 30 -66 56 3 19 0 21 -21 16 -21 -6 -25 -2 -30 22 -5 23 1 34 31 64 32 32 42 36 72 31 19 -2 41 -9 48 -15z m39 -19 c-3 -8 -6 -5 -6 6 -1 11 2 17 5 13 3 -3 4 -12 1 -19z m-170 -120 c-3 -8 -6 -5 -6 6 -1 11 2 17 5 13 3 -3 4 -12 1 -19z m33 -22 c0 -3 -4 -8 -10 -11 -5 -3 -10 -1 -10 4 0 6 5 11 10 11 6 0 10 -2 10 -4z m63 -43 c-7 -2 -19 -2 -25 0 -7 3 -2 5 12 5 14 0 19 -2 13 -5z" transform="translate(0,90) scale(0.1,-0.1)" stroke="none" fill="#F3A181"/>

</g>

<g id="2" transform="translate(0,180.0)scale(0.8,0.8)">

<path d="M438 591 c-30 -30 -36 -41 -31 -64 5 -24 9 -28 30 -22 21 5 24 3 21 -16 -2 -14 6 -28 24 -42 33 -25 58 -16 58 20 0 21 3 24 12 15 16 -16 28 -15 28 3 0 8 -4 15 -10 15 -18 0 -11 18 9 23 14 3 18 11 14 26 -3 12 -9 21 -14 21 -5 0 -9 6 -9 14 0 20 -20 32 -60 38 -30 5 -40 1 -72 -31z" transform="translate(0,90) scale(0.1,-0.1)" stroke="none" fill="#936C3F"/>

<path d="M502 868 c-7 -7 -12 -21 -12 -32 0 -20 -77 -146 -90 -146 -4 0 -15 9 -26 21 -10 12 -41 33 -69 47 -42 22 -61 25 -120 23 -38 -2 -96 -4 -128 -5 -66 -1 -75 -17 -22 -42 69 -32 165 -135 165 -175 0 -8 -16 -24 -36 -37 -25 -16 -45 -43 -65 -86 -16 -35 -39 -72 -49 -81 -30 -27 -24 -35 28 -35 69 0 189 27 249 56 56 27 73 25 73 -8 0 -45 128 -267 171 -296 44 -30 74 -26 74 10 1 15 9 36 19 47 26 29 31 91 12 147 -9 26 -16 51 -16 54 0 8 151 13 293 11 107 -1 111 8 28 68 -32 24 -82 74 -111 112 -28 39 -69 83 -91 98 -45 33 -118 48 -149 31 -32 -17 -36 -5 -17 48 27 77 17 96 -89 174 -6 4 -16 2 -22 -4z m56 -261 c6 -5 12 -16 12 -23 0 -8 4 -14 9 -14 5 0 11 -9 14 -21 4 -15 0 -23 -14 -26 -20 -5 -27 -23 -9 -23 6 0 10 -7 10 -15 0 -8 -4 -15 -10 -15 -5 0 -10 -4 -10 -10 0 -5 8 -10 17 -10 12 0 14 -3 6 -11 -16 -16 -36 -1 -30 22 3 10 1 22 -4 25 -5 3 -9 -6 -9 -21 0 -14 -7 -28 -16 -32 -24 -9 -70 30 -66 56 3 19 0 21 -21 16 -21 -6 -25 -2 -30 22 -5 23 1 34 31 64 32 32 42 36 72 31 19 -2 41 -9 48 -15z m39 -19 c-3 -8 -6 -5 -6 6 -1 11 2 17 5 13 3 -3 4 -12 1 -19z m-170 -120 c-3 -8 -6 -5 -6 6 -1 11 2 17 5 13 3 -3 4 -12 1 -19z m33 -22 c0 -3 -4 -8 -10 -11 -5 -3 -10 -1 -10 4 0 6 5 11 10 11 6 0 10 -2 10 -4z m63 -43 c-7 -2 -19 -2 -25 0 -7 3 -2 5 12 5 14 0 19 -2 13 -5z" transform="translate(0,90) scale(0.1,-0.1)" stroke="none" fill="#F3A181"/>

</g>

<g id="3" transform="translate(0,270.0)scale(0.8,0.8)">

<path d="M438 591 c-30 -30 -36 -41 -31 -64 5 -24 9 -28 30 -22 21 5 24 3 21 -16 -2 -14 6 -28 24 -42 33 -25 58 -16 58 20 0 21 3 24 12 15 16 -16 28 -15 28 3 0 8 -4 15 -10 15 -18 0 -11 18 9 23 14 3 18 11 14 26 -3 12 -9 21 -14 21 -5 0 -9 6 -9 14 0 20 -20 32 -60 38 -30 5 -40 1 -72 -31z" transform="translate(0,90) scale(0.1,-0.1)" stroke="none" fill="#936C3F"/>

<path d="M502 868 c-7 -7 -12 -21 -12 -32 0 -20 -77 -146 -90 -146 -4 0 -15 9 -26 21 -10 12 -41 33 -69 47 -42 22 -61 25 -120 23 -38 -2 -96 -4 -128 -5 -66 -1 -75 -17 -22 -42 69 -32 165 -135 165 -175 0 -8 -16 -24 -36 -37 -25 -16 -45 -43 -65 -86 -16 -35 -39 -72 -49 -81 -30 -27 -24 -35 28 -35 69 0 189 27 249 56 56 27 73 25 73 -8 0 -45 128 -267 171 -296 44 -30 74 -26 74 10 1 15 9 36 19 47 26 29 31 91 12 147 -9 26 -16 51 -16 54 0 8 151 13 293 11 107 -1 111 8 28 68 -32 24 -82 74 -111 112 -28 39 -69 83 -91 98 -45 33 -118 48 -149 31 -32 -17 -36 -5 -17 48 27 77 17 96 -89 174 -6 4 -16 2 -22 -4z m56 -261 c6 -5 12 -16 12 -23 0 -8 4 -14 9 -14 5 0 11 -9 14 -21 4 -15 0 -23 -14 -26 -20 -5 -27 -23 -9 -23 6 0 10 -7 10 -15 0 -8 -4 -15 -10 -15 -5 0 -10 -4 -10 -10 0 -5 8 -10 17 -10 12 0 14 -3 6 -11 -16 -16 -36 -1 -30 22 3 10 1 22 -4 25 -5 3 -9 -6 -9 -21 0 -14 -7 -28 -16 -32 -24 -9 -70 30 -66 56 3 19 0 21 -21 16 -21 -6 -25 -2 -30 22 -5 23 1 34 31 64 32 32 42 36 72 31 19 -2 41 -9 48 -15z m39 -19 c-3 -8 -6 -5 -6 6 -1 11 2 17 5 13 3 -3 4 -12 1 -19z m-170 -120 c-3 -8 -6 -5 -6 6 -1 11 2 17 5 13 3 -3 4 -12 1 -19z m33 -22 c0 -3 -4 -8 -10 -11 -5 -3 -10 -1 -10 4 0 6 5 11 10 11 6 0 10 -2 10 -4z m63 -43 c-7 -2 -19 -2 -25 0 -7 3 -2 5 12 5 14 0 19 -2 13 -5z" transform="translate(0,90) scale(0.1,-0.1)" stroke="none" fill="#F3A181"/>

</g>

<g id="4" transform="translate(0,360.0)scale(0.8,0.8)">

<path d="M438 591 c-30 -30 -36 -41 -31 -64 5 -24 9 -28 30 -22 21 5 24 3 21 -16 -2 -14 6 -28 24 -42 33 -25 58 -16 58 20 0 21 3 24 12 15 16 -16 28 -15 28 3 0 8 -4 15 -10 15 -18 0 -11 18 9 23 14 3 18 11 14 26 -3 12 -9 21 -14 21 -5 0 -9 6 -9 14 0 20 -20 32 -60 38 -30 5 -40 1 -72 -31z" transform="translate(0,90) scale(0.1,-0.1)" stroke="none" fill="#936C3F"/>

<path d="M502 868 c-7 -7 -12 -21 -12 -32 0 -20 -77 -146 -90 -146 -4 0 -15 9 -26 21 -10 12 -41 33 -69 47 -42 22 -61 25 -120 23 -38 -2 -96 -4 -128 -5 -66 -1 -75 -17 -22 -42 69 -32 165 -135 165 -175 0 -8 -16 -24 -36 -37 -25 -16 -45 -43 -65 -86 -16 -35 -39 -72 -49 -81 -30 -27 -24 -35 28 -35 69 0 189 27 249 56 56 27 73 25 73 -8 0 -45 128 -267 171 -296 44 -30 74 -26 74 10 1 15 9 36 19 47 26 29 31 91 12 147 -9 26 -16 51 -16 54 0 8 151 13 293 11 107 -1 111 8 28 68 -32 24 -82 74 -111 112 -28 39 -69 83 -91 98 -45 33 -118 48 -149 31 -32 -17 -36 -5 -17 48 27 77 17 96 -89 174 -6 4 -16 2 -22 -4z m56 -261 c6 -5 12 -16 12 -23 0 -8 4 -14 9 -14 5 0 11 -9 14 -21 4 -15 0 -23 -14 -26 -20 -5 -27 -23 -9 -23 6 0 10 -7 10 -15 0 -8 -4 -15 -10 -15 -5 0 -10 -4 -10 -10 0 -5 8 -10 17 -10 12 0 14 -3 6 -11 -16 -16 -36 -1 -30 22 3 10 1 22 -4 25 -5 3 -9 -6 -9 -21 0 -14 -7 -28 -16 -32 -24 -9 -70 30 -66 56 3 19 0 21 -21 16 -21 -6 -25 -2 -30 22 -5 23 1 34 31 64 32 32 42 36 72 31 19 -2 41 -9 48 -15z m39 -19 c-3 -8 -6 -5 -6 6 -1 11 2 17 5 13 3 -3 4 -12 1 -19z m-170 -120 c-3 -8 -6 -5 -6 6 -1 11 2 17 5 13 3 -3 4 -12 1 -19z m33 -22 c0 -3 -4 -8 -10 -11 -5 -3 -10 -1 -10 4 0 6 5 11 10 11 6 0 10 -2 10 -4z m63 -43 c-7 -2 -19 -2 -25 0 -7 3 -2 5 12 5 14 0 19 -2 13 -5z" transform="translate(0,90) scale(0.1,-0.1)" stroke="none" fill="#F3A181"/>

</g>

</g>
<g id="col1" transform="translate(106, -33.0)">
<g id="0" transform="translate(0,0.0)scale(0.8,0.8)">

<path d="M438 591 c-30 -30 -36 -41 -31 -64 5 -24 9 -28 30 -22 21 5 24 3 21 -16 -2 -14 6 -28 24 -42 33 -25 58 -16 58 20 0 21 3 24 12 15 16 -16 28 -15 28 3 0 8 -4 15 -10 15 -18 0 -11 18 9 23 14 3 18 11 14 26 -3 12 -9 21 -14 21 -5 0 -9 6 -9 14 0 20 -20 32 -60 38 -30 5 -40 1 -72 -31z" transform="translate(0,90) scale(0.1,-0.1)" stroke="none" fill="#936C3F"/>

<path d="M502 868 c-7 -7 -12 -21 -12 -32 0 -20 -77 -146 -90 -146 -4 0 -15 9 -26 21 -10 12 -41 33 -69 47 -42 22 -61 25 -120 23 -38 -2 -96 -4 -128 -5 -66 -1 -75 -17 -22 -42 69 -32 165 -135 165 -175 0 -8 -16 -24 -36 -37 -25 -16 -45 -43 -65 -86 -16 -35 -39 -72 -49 -81 -30 -27 -24 -35 28 -35 69 0 189 27 249 56 56 27 73 25 73 -8 0 -45 128 -267 171 -296 44 -30 74 -26 74 10 1 15 9 36 19 47 26 29 31 91 12 147 -9 26 -16 51 -16 54 0 8 151 13 293 11 107 -1 111 8 28 68 -32 24 -82 74 -111 112 -28 39 -69 83 -91 98 -45 33 -118 48 -149 31 -32 -17 -36 -5 -17 48 27 77 17 96 -89 174 -6 4 -16 2 -22 -4z m56 -261 c6 -5 12 -16 12 -23 0 -8 4 -14 9 -14 5 0 11 -9 14 -21 4 -15 0 -23 -14 -26 -20 -5 -27 -23 -9 -23 6 0 10 -7 10 -15 0 -8 -4 -15 -10 -15 -5 0 -10 -4 -10 -10 0 -5 8 -10 17 -10 12 0 14 -3 6 -11 -16 -16 -36 -1 -30 22 3 10 1 22 -4 25 -5 3 -9 -6 -9 -21 0 -14 -7 -28 -16 -32 -24 -9 -70 30 -66 56 3 19 0 21 -21 16 -21 -6 -25 -2 -30 22 -5 23 1 34 31 64 32 32 42 36 72 31 19 -2 41 -9 48 -15z m39 -19 c-3 -8 -6 -5 -6 6 -1 11 2 17 5 13 3 -3 4 -12 1 -19z m-170 -120 c-3 -8 -6 -5 -6 6 -1 11 2 17 5 13 3 -3 4 -12 1 -19z m33 -22 c0 -3 -4 -8 -10 -11 -5 -3 -10 -1 -10 4 0 6 5 11 10 11 6 0 10 -2 10 -4z m63 -43 c-7 -2 -19 -2 -25 0 -7 3 -2 5 12 5 14 0 19 -2 13 -5z" transform="translate(0,90) scale(0.1,-0.1)" stroke="none" fill="#F3A181"/>

</g>

<g id="1" transform="translate(0,90.0)scale(0.8,0.8)">

<path d="M438 591 c-30 -30 -36 -41 -31 -64 5 -24 9 -28 30 -22 21 5 24 3 21 -16 -2 -14 6 -28 24 -42 33 -25 58 -16 58 20 0 21 3 24 12 15 16 -16 28 -15 28 3 0 8 -4 15 -10 15 -18 0 -11 18 9 23 14 3 18 11 14 26 -3 12 -9 21 -14 21 -5 0 -9 6 -9 14 0 20 -20 32 -60 38 -30 5 -40 1 -72 -31z" transform="translate(0,90) scale(0.1,-0.1)" stroke="none" fill="#936C3F"/>

<path d="M502 868 c-7 -7 -12 -21 -12 -32 0 -20 -77 -146 -90 -146 -4 0 -15 9 -26 21 -10 12 -41 33 -69 47 -42 22 -61 25 -120 23 -38 -2 -96 -4 -128 -5 -66 -1 -75 -17 -22 -42 69 -32 165 -135 165 -175 0 -8 -16 -24 -36 -37 -25 -16 -45 -43 -65 -86 -16 -35 -39 -72 -49 -81 -30 -27 -24 -35 28 -35 69 0 189 27 249 56 56 27 73 25 73 -8 0 -45 128 -267 171 -296 44 -30 74 -26 74 10 1 15 9 36 19 47 26 29 31 91 12 147 -9 26 -16 51 -16 54 0 8 151 13 293 11 107 -1 111 8 28 68 -32 24 -82 74 -111 112 -28 39 -69 83 -91 98 -45 33 -118 48 -149 31 -32 -17 -36 -5 -17 48 27 77 17 96 -89 174 -6 4 -16 2 -22 -4z m56 -261 c6 -5 12 -16 12 -23 0 -8 4 -14 9 -14 5 0 11 -9 14 -21 4 -15 0 -23 -14 -26 -20 -5 -27 -23 -9 -23 6 0 10 -7 10 -15 0 -8 -4 -15 -10 -15 -5 0 -10 -4 -10 -10 0 -5 8 -10 17 -10 12 0 14 -3 6 -11 -16 -16 -36 -1 -30 22 3 10 1 22 -4 25 -5 3 -9 -6 -9 -21 0 -14 -7 -28 -16 -32 -24 -9 -70 30 -66 56 3 19 0 21 -21 16 -21 -6 -25 -2 -30 22 -5 23 1 34 31 64 32 32 42 36 72 31 19 -2 41 -9 48 -15z m39 -19 c-3 -8 -6 -5 -6 6 -1 11 2 17 5 13 3 -3 4 -12 1 -19z m-170 -120 c-3 -8 -6 -5 -6 6 -1 11 2 17 5 13 3 -3 4 -12 1 -19z m33 -22 c0 -3 -4 -8 -10 -11 -5 -3 -10 -1 -10 4 0 6 5 11 10 11 6 0 10 -2 10 -4z m63 -43 c-7 -2 -19 -2 -25 0 -7 3 -2 5 12 5 14 0 19 -2 13 -5z" transform="translate(0,90) scale(0.1,-0.1)" stroke="none" fill="#F3A181"/>

</g>

<g id="2" transform="translate(0,180.0)scale(0.8,0.8)">

<path d="M438 591 c-30 -30 -36 -41 -31 -64 5 -24 9 -28 30 -22 21 5 24 3 21 -16 -2 -14 6 -28 24 -42 33 -25 58 -16 58 20 0 21 3 24 12 15 16 -16 28 -15 28 3 0 8 -4 15 -10 15 -18 0 -11 18 9 23 14 3 18 11 14 26 -3 12 -9 21 -14 21 -5 0 -9 6 -9 14 0 20 -20 32 -60 38 -30 5 -40 1 -72 -31z" transform="translate(0,90) scale(0.1,-0.1)" stroke="none" fill="#936C3F"/>

<path d="M502 868 c-7 -7 -12 -21 -12 -32 0 -20 -77 -146 -90 -146 -4 0 -15 9 -26 21 -10 12 -41 33 -69 47 -42 22 -61 25 -120 23 -38 -2 -96 -4 -128 -5 -66 -1 -75 -17 -22 -42 69 -32 165 -135 165 -175 0 -8 -16 -24 -36 -37 -25 -16 -45 -43 -65 -86 -16 -35 -39 -72 -49 -81 -30 -27 -24 -35 28 -35 69 0 189 27 249 56 56 27 73 25 73 -8 0 -45 128 -267 171 -296 44 -30 74 -26 74 10 1 15 9 36 19 47 26 29 31 91 12 147 -9 26 -16 51 -16 54 0 8 151 13 293 11 107 -1 111 8 28 68 -32 24 -82 74 -111 112 -28 39 -69 83 -91 98 -45 33 -118 48 -149 31 -32 -17 -36 -5 -17 48 27 77 17 96 -89 174 -6 4 -16 2 -22 -4z m56 -261 c6 -5 12 -16 12 -23 0 -8 4 -14 9 -14 5 0 11 -9 14 -21 4 -15 0 -23 -14 -26 -20 -5 -27 -23 -9 -23 6 0 10 -7 10 -15 0 -8 -4 -15 -10 -15 -5 0 -10 -4 -10 -10 0 -5 8 -10 17 -10 12 0 14 -3 6 -11 -16 -16 -36 -1 -30 22 3 10 1 22 -4 25 -5 3 -9 -6 -9 -21 0 -14 -7 -28 -16 -32 -24 -9 -70 30 -66 56 3 19 0 21 -21 16 -21 -6 -25 -2 -30 22 -5 23 1 34 31 64 32 32 42 36 72 31 19 -2 41 -9 48 -15z m39 -19 c-3 -8 -6 -5 -6 6 -1 11 2 17 5 13 3 -3 4 -12 1 -19z m-170 -120 c-3 -8 -6 -5 -6 6 -1 11 2 17 5 13 3 -3 4 -12 1 -19z m33 -22 c0 -3 -4 -8 -10 -11 -5 -3 -10 -1 -10 4 0 6 5 11 10 11 6 0 10 -2 10 -4z m63 -43 c-7 -2 -19 -2 -25 0 -7 3 -2 5 12 5 14 0 19 -2 13 -5z" transform="translate(0,90) scale(0.1,-0.1)" stroke="none" fill="#F3A181"/>

</g>

<g id="3" transform="translate(0,270.0)scale(0.8,0.8)">

<path d="M438 591 c-30 -30 -36 -41 -31 -64 5 -24 9 -28 30 -22 21 5 24 3 21 -16 -2 -14 6 -28 24 -42 33 -25 58 -16 58 20 0 21 3 24 12 15 16 -16 28 -15 28 3 0 8 -4 15 -10 15 -18 0 -11 18 9 23 14 3 18 11 14 26 -3 12 -9 21 -14 21 -5 0 -9 6 -9 14 0 20 -20 32 -60 38 -30 5 -40 1 -72 -31z" transform="translate(0,90) scale(0.1,-0.1)" stroke="none" fill="#936C3F"/>

<path d="M502 868 c-7 -7 -12 -21 -12 -32 0 -20 -77 -146 -90 -146 -4 0 -15 9 -26 21 -10 12 -41 33 -69 47 -42 22 -61 25 -120 23 -38 -2 -96 -4 -128 -5 -66 -1 -75 -17 -22 -42 69 -32 165 -135 165 -175 0 -8 -16 -24 -36 -37 -25 -16 -45 -43 -65 -86 -16 -35 -39 -72 -49 -81 -30 -27 -24 -35 28 -35 69 0 189 27 249 56 56 27 73 25 73 -8 0 -45 128 -267 171 -296 44 -30 74 -26 74 10 1 15 9 36 19 47 26 29 31 91 12 147 -9 26 -16 51 -16 54 0 8 151 13 293 11 107 -1 111 8 28 68 -32 24 -82 74 -111 112 -28 39 -69 83 -91 98 -45 33 -118 48 -149 31 -32 -17 -36 -5 -17 48 27 77 17 96 -89 174 -6 4 -16 2 -22 -4z m56 -261 c6 -5 12 -16 12 -23 0 -8 4 -14 9 -14 5 0 11 -9 14 -21 4 -15 0 -23 -14 -26 -20 -5 -27 -23 -9 -23 6 0 10 -7 10 -15 0 -8 -4 -15 -10 -15 -5 0 -10 -4 -10 -10 0 -5 8 -10 17 -10 12 0 14 -3 6 -11 -16 -16 -36 -1 -30 22 3 10 1 22 -4 25 -5 3 -9 -6 -9 -21 0 -14 -7 -28 -16 -32 -24 -9 -70 30 -66 56 3 19 0 21 -21 16 -21 -6 -25 -2 -30 22 -5 23 1 34 31 64 32 32 42 36 72 31 19 -2 41 -9 48 -15z m39 -19 c-3 -8 -6 -5 -6 6 -1 11 2 17 5 13 3 -3 4 -12 1 -19z m-170 -120 c-3 -8 -6 -5 -6 6 -1 11 2 17 5 13 3 -3 4 -12 1 -19z m33 -22 c0 -3 -4 -8 -10 -11 -5 -3 -10 -1 -10 4 0 6 5 11 10 11 6 0 10 -2 10 -4z m63 -43 c-7 -2 -19 -2 -25 0 -7 3 -2 5 12 5 14 0 19 -2 13 -5z" transform="translate(0,90) scale(0.1,-0.1)" stroke="none" fill="#F3A181"/>

</g>

<g id="4" transform="translate(0,360.0)scale(0.8,0.8)">

<path d="M438 591 c-30 -30 -36 -41 -31 -64 5 -24 9 -28 30 -22 21 5 24 3 21 -16 -2 -14 6 -28 24 -42 33 -25 58 -16 58 20 0 21 3 24 12 15 16 -16 28 -15 28 3 0 8 -4 15 -10 15 -18 0 -11 18 9 23 14 3 18 11 14 26 -3 12 -9 21 -14 21 -5 0 -9 6 -9 14 0 20 -20 32 -60 38 -30 5 -40 1 -72 -31z" transform="translate(0,90) scale(0.1,-0.1)" stroke="none" fill="#936C3F"/>

<path d="M502 868 c-7 -7 -12 -21 -12 -32 0 -20 -77 -146 -90 -146 -4 0 -15 9 -26 21 -10 12 -41 33 -69 47 -42 22 -61 25 -120 23 -38 -2 -96 -4 -128 -5 -66 -1 -75 -17 -22 -42 69 -32 165 -135 165 -175 0 -8 -16 -24 -36 -37 -25 -16 -45 -43 -65 -86 -16 -35 -39 -72 -49 -81 -30 -27 -24 -35 28 -35 69 0 189 27 249 56 56 27 73 25 73 -8 0 -45 128 -267 171 -296 44 -30 74 -26 74 10 1 15 9 36 19 47 26 29 31 91 12 147 -9 26 -16 51 -16 54 0 8 151 13 293 11 107 -1 111 8 28 68 -32 24 -82 74 -111 112 -28 39 -69 83 -91 98 -45 33 -118 48 -149 31 -32 -17 -36 -5 -17 48 27 77 17 96 -89 174 -6 4 -16 2 -22 -4z m56 -261 c6 -5 12 -16 12 -23 0 -8 4 -14 9 -14 5 0 11 -9 14 -21 4 -15 0 -23 -14 -26 -20 -5 -27 -23 -9 -23 6 0 10 -7 10 -15 0 -8 -4 -15 -10 -15 -5 0 -10 -4 -10 -10 0 -5 8 -10 17 -10 12 0 14 -3 6 -11 -16 -16 -36 -1 -30 22 3 10 1 22 -4 25 -5 3 -9 -6 -9 -21 0 -14 -7 -28 -16 -32 -24 -9 -70 30 -66 56 3 19 0 21 -21 16 -21 -6 -25 -2 -30 22 -5 23 1 34 31 64 32 32 42 36 72 31 19 -2 41 -9 48 -15z m39 -19 c-3 -8 -6 -5 -6 6 -1 11 2 17 5 13 3 -3 4 -12 1 -19z m-170 -120 c-3 -8 -6 -5 -6 6 -1 11 2 17 5 13 3 -3 4 -12 1 -19z m33 -22 c0 -3 -4 -8 -10 -11 -5 -3 -10 -1 -10 4 0 6 5 11 10 11 6 0 10 -2 10 -4z m63 -43 c-7 -2 -19 -2 -25 0 -7 3 -2 5 12 5 14 0 19 -2 13 -5z" transform="translate(0,90) scale(0.1,-0.1)" stroke="none" fill="#F3A181"/>

</g>

</g>
<g id="col2" transform="translate(212, 12)">
<g id="0" transform="translate(0,0.0)scale(0.8,0.8)">

<path d="M438 591 c-30 -30 -36 -41 -31 -64 5 -24 9 -28 30 -22 21 5 24 3 21 -16 -2 -14 6 -28 24 -42 33 -25 58 -16 58 20 0 21 3 24 12 15 16 -16 28 -15 28 3 0 8 -4 15 -10 15 -18 0 -11 18 9 23 14 3 18 11 14 26 -3 12 -9 21 -14 21 -5 0 -9 6 -9 14 0 20 -20 32 -60 38 -30 5 -40 1 -72 -31z" transform="translate(0,90) scale(0.1,-0.1)" stroke="none" fill="#936C3F"/>

<path d="M502 868 c-7 -7 -12 -21 -12 -32 0 -20 -77 -146 -90 -146 -4 0 -15 9 -26 21 -10 12 -41 33 -69 47 -42 22 -61 25 -120 23 -38 -2 -96 -4 -128 -5 -66 -1 -75 -17 -22 -42 69 -32 165 -135 165 -175 0 -8 -16 -24 -36 -37 -25 -16 -45 -43 -65 -86 -16 -35 -39 -72 -49 -81 -30 -27 -24 -35 28 -35 69 0 189 27 249 56 56 27 73 25 73 -8 0 -45 128 -267 171 -296 44 -30 74 -26 74 10 1 15 9 36 19 47 26 29 31 91 12 147 -9 26 -16 51 -16 54 0 8 151 13 293 11 107 -1 111 8 28 68 -32 24 -82 74 -111 112 -28 39 -69 83 -91 98 -45 33 -118 48 -149 31 -32 -17 -36 -5 -17 48 27 77 17 96 -89 174 -6 4 -16 2 -22 -4z m56 -261 c6 -5 12 -16 12 -23 0 -8 4 -14 9 -14 5 0 11 -9 14 -21 4 -15 0 -23 -14 -26 -20 -5 -27 -23 -9 -23 6 0 10 -7 10 -15 0 -8 -4 -15 -10 -15 -5 0 -10 -4 -10 -10 0 -5 8 -10 17 -10 12 0 14 -3 6 -11 -16 -16 -36 -1 -30 22 3 10 1 22 -4 25 -5 3 -9 -6 -9 -21 0 -14 -7 -28 -16 -32 -24 -9 -70 30 -66 56 3 19 0 21 -21 16 -21 -6 -25 -2 -30 22 -5 23 1 34 31 64 32 32 42 36 72 31 19 -2 41 -9 48 -15z m39 -19 c-3 -8 -6 -5 -6 6 -1 11 2 17 5 13 3 -3 4 -12 1 -19z m-170 -120 c-3 -8 -6 -5 -6 6 -1 11 2 17 5 13 3 -3 4 -12 1 -19z m33 -22 c0 -3 -4 -8 -10 -11 -5 -3 -10 -1 -10 4 0 6 5 11 10 11 6 0 10 -2 10 -4z m63 -43 c-7 -2 -19 -2 -25 0 -7 3 -2 5 12 5 14 0 19 -2 13 -5z" transform="translate(0,90) scale(0.1,-0.1)" stroke="none" fill="#F3A181"/>

</g>

<g id="1" transform="translate(0,90.0)scale(0.8,0.8)">

<path d="M438 591 c-30 -30 -36 -41 -31 -64 5 -24 9 -28 30 -22 21 5 24 3 21 -16 -2 -14 6 -28 24 -42 33 -25 58 -16 58 20 0 21 3 24 12 15 16 -16 28 -15 28 3 0 8 -4 15 -10 15 -18 0 -11 18 9 23 14 3 18 11 14 26 -3 12 -9 21 -14 21 -5 0 -9 6 -9 14 0 20 -20 32 -60 38 -30 5 -40 1 -72 -31z" transform="translate(0,90) scale(0.1,-0.1)" stroke="none" fill="#936C3F"/>

<path d="M502 868 c-7 -7 -12 -21 -12 -32 0 -20 -77 -146 -90 -146 -4 0 -15 9 -26 21 -10 12 -41 33 -69 47 -42 22 -61 25 -120 23 -38 -2 -96 -4 -128 -5 -66 -1 -75 -17 -22 -42 69 -32 165 -135 165 -175 0 -8 -16 -24 -36 -37 -25 -16 -45 -43 -65 -86 -16 -35 -39 -72 -49 -81 -30 -27 -24 -35 28 -35 69 0 189 27 249 56 56 27 73 25 73 -8 0 -45 128 -267 171 -296 44 -30 74 -26 74 10 1 15 9 36 19 47 26 29 31 91 12 147 -9 26 -16 51 -16 54 0 8 151 13 293 11 107 -1 111 8 28 68 -32 24 -82 74 -111 112 -28 39 -69 83 -91 98 -45 33 -118 48 -149 31 -32 -17 -36 -5 -17 48 27 77 17 96 -89 174 -6 4 -16 2 -22 -4z m56 -261 c6 -5 12 -16 12 -23 0 -8 4 -14 9 -14 5 0 11 -9 14 -21 4 -15 0 -23 -14 -26 -20 -5 -27 -23 -9 -23 6 0 10 -7 10 -15 0 -8 -4 -15 -10 -15 -5 0 -10 -4 -10 -10 0 -5 8 -10 17 -10 12 0 14 -3 6 -11 -16 -16 -36 -1 -30 22 3 10 1 22 -4 25 -5 3 -9 -6 -9 -21 0 -14 -7 -28 -16 -32 -24 -9 -70 30 -66 56 3 19 0 21 -21 16 -21 -6 -25 -2 -30 22 -5 23 1 34 31 64 32 32 42 36 72 31 19 -2 41 -9 48 -15z m39 -19 c-3 -8 -6 -5 -6 6 -1 11 2 17 5 13 3 -3 4 -12 1 -19z m-170 -120 c-3 -8 -6 -5 -6 6 -1 11 2 17 5 13 3 -3 4 -12 1 -19z m33 -22 c0 -3 -4 -8 -10 -11 -5 -3 -10 -1 -10 4 0 6 5 11 10 11 6 0 10 -2 10 -4z m63 -43 c-7 -2 -19 -2 -25 0 -7 3 -2 5 12 5 14 0 19 -2 13 -5z" transform="translate(0,90) scale(0.1,-0.1)" stroke="none" fill="#F3A181"/>

</g>

<g id="2" transform="translate(0,180.0)scale(0.8,0.8)">

<path d="M438 591 c-30 -30 -36 -41 -31 -64 5 -24 9 -28 30 -22 21 5 24 3 21 -16 -2 -14 6 -28 24 -42 33 -25 58 -16 58 20 0 21 3 24 12 15 16 -16 28 -15 28 3 0 8 -4 15 -10 15 -18 0 -11 18 9 23 14 3 18 11 14 26 -3 12 -9 21 -14 21 -5 0 -9 6 -9 14 0 20 -20 32 -60 38 -30 5 -40 1 -72 -31z" transform="translate(0,90) scale(0.1,-0.1)" stroke="none" fill="#936C3F"/>

<path d="M502 868 c-7 -7 -12 -21 -12 -32 0 -20 -77 -146 -90 -146 -4 0 -15 9 -26 21 -10 12 -41 33 -69 47 -42 22 -61 25 -120 23 -38 -2 -96 -4 -128 -5 -66 -1 -75 -17 -22 -42 69 -32 165 -135 165 -175 0 -8 -16 -24 -36 -37 -25 -16 -45 -43 -65 -86 -16 -35 -39 -72 -49 -81 -30 -27 -24 -35 28 -35 69 0 189 27 249 56 56 27 73 25 73 -8 0 -45 128 -267 171 -296 44 -30 74 -26 74 10 1 15 9 36 19 47 26 29 31 91 12 147 -9 26 -16 51 -16 54 0 8 151 13 293 11 107 -1 111 8 28 68 -32 24 -82 74 -111 112 -28 39 -69 83 -91 98 -45 33 -118 48 -149 31 -32 -17 -36 -5 -17 48 27 77 17 96 -89 174 -6 4 -16 2 -22 -4z m56 -261 c6 -5 12 -16 12 -23 0 -8 4 -14 9 -14 5 0 11 -9 14 -21 4 -15 0 -23 -14 -26 -20 -5 -27 -23 -9 -23 6 0 10 -7 10 -15 0 -8 -4 -15 -10 -15 -5 0 -10 -4 -10 -10 0 -5 8 -10 17 -10 12 0 14 -3 6 -11 -16 -16 -36 -1 -30 22 3 10 1 22 -4 25 -5 3 -9 -6 -9 -21 0 -14 -7 -28 -16 -32 -24 -9 -70 30 -66 56 3 19 0 21 -21 16 -21 -6 -25 -2 -30 22 -5 23 1 34 31 64 32 32 42 36 72 31 19 -2 41 -9 48 -15z m39 -19 c-3 -8 -6 -5 -6 6 -1 11 2 17 5 13 3 -3 4 -12 1 -19z m-170 -120 c-3 -8 -6 -5 -6 6 -1 11 2 17 5 13 3 -3 4 -12 1 -19z m33 -22 c0 -3 -4 -8 -10 -11 -5 -3 -10 -1 -10 4 0 6 5 11 10 11 6 0 10 -2 10 -4z m63 -43 c-7 -2 -19 -2 -25 0 -7 3 -2 5 12 5 14 0 19 -2 13 -5z" transform="translate(0,90) scale(0.1,-0.1)" stroke="none" fill="#F3A181"/>

</g>

<g id="3" transform="translate(0,270.0)scale(0.8,0.8)">

<path d="M438 591 c-30 -30 -36 -41 -31 -64 5 -24 9 -28 30 -22 21 5 24 3 21 -16 -2 -14 6 -28 24 -42 33 -25 58 -16 58 20 0 21 3 24 12 15 16 -16 28 -15 28 3 0 8 -4 15 -10 15 -18 0 -11 18 9 23 14 3 18 11 14 26 -3 12 -9 21 -14 21 -5 0 -9 6 -9 14 0 20 -20 32 -60 38 -30 5 -40 1 -72 -31z" transform="translate(0,90) scale(0.1,-0.1)" stroke="none" fill="#936C3F"/>

<path d="M502 868 c-7 -7 -12 -21 -12 -32 0 -20 -77 -146 -90 -146 -4 0 -15 9 -26 21 -10 12 -41 33 -69 47 -42 22 -61 25 -120 23 -38 -2 -96 -4 -128 -5 -66 -1 -75 -17 -22 -42 69 -32 165 -135 165 -175 0 -8 -16 -24 -36 -37 -25 -16 -45 -43 -65 -86 -16 -35 -39 -72 -49 -81 -30 -27 -24 -35 28 -35 69 0 189 27 249 56 56 27 73 25 73 -8 0 -45 128 -267 171 -296 44 -30 74 -26 74 10 1 15 9 36 19 47 26 29 31 91 12 147 -9 26 -16 51 -16 54 0 8 151 13 293 11 107 -1 111 8 28 68 -32 24 -82 74 -111 112 -28 39 -69 83 -91 98 -45 33 -118 48 -149 31 -32 -17 -36 -5 -17 48 27 77 17 96 -89 174 -6 4 -16 2 -22 -4z m56 -261 c6 -5 12 -16 12 -23 0 -8 4 -14 9 -14 5 0 11 -9 14 -21 4 -15 0 -23 -14 -26 -20 -5 -27 -23 -9 -23 6 0 10 -7 10 -15 0 -8 -4 -15 -10 -15 -5 0 -10 -4 -10 -10 0 -5 8 -10 17 -10 12 0 14 -3 6 -11 -16 -16 -36 -1 -30 22 3 10 1 22 -4 25 -5 3 -9 -6 -9 -21 0 -14 -7 -28 -16 -32 -24 -9 -70 30 -66 56 3 19 0 21 -21 16 -21 -6 -25 -2 -30 22 -5 23 1 34 31 64 32 32 42 36 72 31 19 -2 41 -9 48 -15z m39 -19 c-3 -8 -6 -5 -6 6 -1 11 2 17 5 13 3 -3 4 -12 1 -19z m-170 -120 c-3 -8 -6 -5 -6 6 -1 11 2 17 5 13 3 -3 4 -12 1 -19z m33 -22 c0 -3 -4 -8 -10 -11 -5 -3 -10 -1 -10 4 0 6 5 11 10 11 6 0 10 -2 10 -4z m63 -43 c-7 -2 -19 -2 -25 0 -7 3 -2 5 12 5 14 0 19 -2 13 -5z" transform="translate(0,90) scale(0.1,-0.1)" stroke="none" fill="#F3A181"/>

</g>

<g id="4" transform="translate(0,360.0)scale(0.8,0.8)">

<path d="M438 591 c-30 -30 -36 -41 -31 -64 5 -24 9 -28 30 -22 21 5 24 3 21 -16 -2 -14 6 -28 24 -42 33 -25 58 -16 58 20 0 21 3 24 12 15 16 -16 28 -15 28 3 0 8 -4 15 -10 15 -18 0 -11 18 9 23 14 3 18 11 14 26 -3 12 -9 21 -14 21 -5 0 -9 6 -9 14 0 20 -20 32 -60 38 -30 5 -40 1 -72 -31z" transform="translate(0,90) scale(0.1,-0.1)" stroke="none" fill="#936C3F"/>

<path d="M502 868 c-7 -7 -12 -21 -12 -32 0 -20 -77 -146 -90 -146 -4 0 -15 9 -26 21 -10 12 -41 33 -69 47 -42 22 -61 25 -120 23 -38 -2 -96 -4 -128 -5 -66 -1 -75 -17 -22 -42 69 -32 165 -135 165 -175 0 -8 -16 -24 -36 -37 -25 -16 -45 -43 -65 -86 -16 -35 -39 -72 -49 -81 -30 -27 -24 -35 28 -35 69 0 189 27 249 56 56 27 73 25 73 -8 0 -45 128 -267 171 -296 44 -30 74 -26 74 10 1 15 9 36 19 47 26 29 31 91 12 147 -9 26 -16 51 -16 54 0 8 151 13 293 11 107 -1 111 8 28 68 -32 24 -82 74 -111 112 -28 39 -69 83 -91 98 -45 33 -118 48 -149 31 -32 -17 -36 -5 -17 48 27 77 17 96 -89 174 -6 4 -16 2 -22 -4z m56 -261 c6 -5 12 -16 12 -23 0 -8 4 -14 9 -14 5 0 11 -9 14 -21 4 -15 0 -23 -14 -26 -20 -5 -27 -23 -9 -23 6 0 10 -7 10 -15 0 -8 -4 -15 -10 -15 -5 0 -10 -4 -10 -10 0 -5 8 -10 17 -10 12 0 14 -3 6 -11 -16 -16 -36 -1 -30 22 3 10 1 22 -4 25 -5 3 -9 -6 -9 -21 0 -14 -7 -28 -16 -32 -24 -9 -70 30 -66 56 3 19 0 21 -21 16 -21 -6 -25 -2 -30 22 -5 23 1 34 31 64 32 32 42 36 72 31 19 -2 41 -9 48 -15z m39 -19 c-3 -8 -6 -5 -6 6 -1 11 2 17 5 13 3 -3 4 -12 1 -19z m-170 -120 c-3 -8 -6 -5 -6 6 -1 11 2 17 5 13 3 -3 4 -12 1 -19z m33 -22 c0 -3 -4 -8 -10 -11 -5 -3 -10 -1 -10 4 0 6 5 11 10 11 6 0 10 -2 10 -4z m63 -43 c-7 -2 -19 -2 -25 0 -7 3 -2 5 12 5 14 0 19 -2 13 -5z" transform="translate(0,90) scale(0.1,-0.1)" stroke="none" fill="#F3A181"/>

</g>

</g>
<g id="col3" transform="translate(318, -33.0)">
<g id="0" transform="translate(0,0.0)scale(0.8,0.8)">

<path d="M438 591 c-30 -30 -36 -41 -31 -64 5 -24 9 -28 30 -22 21 5 24 3 21 -16 -2 -14 6 -28 24 -42 33 -25 58 -16 58 20 0 21 3 24 12 15 16 -16 28 -15 28 3 0 8 -4 15 -10 15 -18 0 -11 18 9 23 14 3 18 11 14 26 -3 12 -9 21 -14 21 -5 0 -9 6 -9 14 0 20 -20 32 -60 38 -30 5 -40 1 -72 -31z" transform="translate(0,90) scale(0.1,-0.1)" stroke="none" fill="#936C3F"/>

<path d="M502 868 c-7 -7 -12 -21 -12 -32 0 -20 -77 -146 -90 -146 -4 0 -15 9 -26 21 -10 12 -41 33 -69 47 -42 22 -61 25 -120 23 -38 -2 -96 -4 -128 -5 -66 -1 -75 -17 -22 -42 69 -32 165 -135 165 -175 0 -8 -16 -24 -36 -37 -25 -16 -45 -43 -65 -86 -16 -35 -39 -72 -49 -81 -30 -27 -24 -35 28 -35 69 0 189 27 249 56 56 27 73 25 73 -8 0 -45 128 -267 171 -296 44 -30 74 -26 74 10 1 15 9 36 19 47 26 29 31 91 12 147 -9 26 -16 51 -16 54 0 8 151 13 293 11 107 -1 111 8 28 68 -32 24 -82 74 -111 112 -28 39 -69 83 -91 98 -45 33 -118 48 -149 31 -32 -17 -36 -5 -17 48 27 77 17 96 -89 174 -6 4 -16 2 -22 -4z m56 -261 c6 -5 12 -16 12 -23 0 -8 4 -14 9 -14 5 0 11 -9 14 -21 4 -15 0 -23 -14 -26 -20 -5 -27 -23 -9 -23 6 0 10 -7 10 -15 0 -8 -4 -15 -10 -15 -5 0 -10 -4 -10 -10 0 -5 8 -10 17 -10 12 0 14 -3 6 -11 -16 -16 -36 -1 -30 22 3 10 1 22 -4 25 -5 3 -9 -6 -9 -21 0 -14 -7 -28 -16 -32 -24 -9 -70 30 -66 56 3 19 0 21 -21 16 -21 -6 -25 -2 -30 22 -5 23 1 34 31 64 32 32 42 36 72 31 19 -2 41 -9 48 -15z m39 -19 c-3 -8 -6 -5 -6 6 -1 11 2 17 5 13 3 -3 4 -12 1 -19z m-170 -120 c-3 -8 -6 -5 -6 6 -1 11 2 17 5 13 3 -3 4 -12 1 -19z m33 -22 c0 -3 -4 -8 -10 -11 -5 -3 -10 -1 -10 4 0 6 5 11 10 11 6 0 10 -2 10 -4z m63 -43 c-7 -2 -19 -2 -25 0 -7 3 -2 5 12 5 14 0 19 -2 13 -5z" transform="translate(0,90) scale(0.1,-0.1)" stroke="none" fill="#F3A181"/>

</g>

<g id="1" transform="translate(0,90.0)scale(0.8,0.8)">

<path d="M438 591 c-30 -30 -36 -41 -31 -64 5 -24 9 -28 30 -22 21 5 24 3 21 -16 -2 -14 6 -28 24 -42 33 -25 58 -16 58 20 0 21 3 24 12 15 16 -16 28 -15 28 3 0 8 -4 15 -10 15 -18 0 -11 18 9 23 14 3 18 11 14 26 -3 12 -9 21 -14 21 -5 0 -9 6 -9 14 0 20 -20 32 -60 38 -30 5 -40 1 -72 -31z" transform="translate(0,90) scale(0.1,-0.1)" stroke="none" fill="#936C3F"/>

<path d="M502 868 c-7 -7 -12 -21 -12 -32 0 -20 -77 -146 -90 -146 -4 0 -15 9 -26 21 -10 12 -41 33 -69 47 -42 22 -61 25 -120 23 -38 -2 -96 -4 -128 -5 -66 -1 -75 -17 -22 -42 69 -32 165 -135 165 -175 0 -8 -16 -24 -36 -37 -25 -16 -45 -43 -65 -86 -16 -35 -39 -72 -49 -81 -30 -27 -24 -35 28 -35 69 0 189 27 249 56 56 27 73 25 73 -8 0 -45 128 -267 171 -296 44 -30 74 -26 74 10 1 15 9 36 19 47 26 29 31 91 12 147 -9 26 -16 51 -16 54 0 8 151 13 293 11 107 -1 111 8 28 68 -32 24 -82 74 -111 112 -28 39 -69 83 -91 98 -45 33 -118 48 -149 31 -32 -17 -36 -5 -17 48 27 77 17 96 -89 174 -6 4 -16 2 -22 -4z m56 -261 c6 -5 12 -16 12 -23 0 -8 4 -14 9 -14 5 0 11 -9 14 -21 4 -15 0 -23 -14 -26 -20 -5 -27 -23 -9 -23 6 0 10 -7 10 -15 0 -8 -4 -15 -10 -15 -5 0 -10 -4 -10 -10 0 -5 8 -10 17 -10 12 0 14 -3 6 -11 -16 -16 -36 -1 -30 22 3 10 1 22 -4 25 -5 3 -9 -6 -9 -21 0 -14 -7 -28 -16 -32 -24 -9 -70 30 -66 56 3 19 0 21 -21 16 -21 -6 -25 -2 -30 22 -5 23 1 34 31 64 32 32 42 36 72 31 19 -2 41 -9 48 -15z m39 -19 c-3 -8 -6 -5 -6 6 -1 11 2 17 5 13 3 -3 4 -12 1 -19z m-170 -120 c-3 -8 -6 -5 -6 6 -1 11 2 17 5 13 3 -3 4 -12 1 -19z m33 -22 c0 -3 -4 -8 -10 -11 -5 -3 -10 -1 -10 4 0 6 5 11 10 11 6 0 10 -2 10 -4z m63 -43 c-7 -2 -19 -2 -25 0 -7 3 -2 5 12 5 14 0 19 -2 13 -5z" transform="translate(0,90) scale(0.1,-0.1)" stroke="none" fill="#F3A181"/>

</g>

<g id="2" transform="translate(0,180.0)scale(0.8,0.8)">

<path d="M438 591 c-30 -30 -36 -41 -31 -64 5 -24 9 -28 30 -22 21 5 24 3 21 -16 -2 -14 6 -28 24 -42 33 -25 58 -16 58 20 0 21 3 24 12 15 16 -16 28 -15 28 3 0 8 -4 15 -10 15 -18 0 -11 18 9 23 14 3 18 11 14 26 -3 12 -9 21 -14 21 -5 0 -9 6 -9 14 0 20 -20 32 -60 38 -30 5 -40 1 -72 -31z" transform="translate(0,90) scale(0.1,-0.1)" stroke="none" fill="#936C3F"/>

<path d="M502 868 c-7 -7 -12 -21 -12 -32 0 -20 -77 -146 -90 -146 -4 0 -15 9 -26 21 -10 12 -41 33 -69 47 -42 22 -61 25 -120 23 -38 -2 -96 -4 -128 -5 -66 -1 -75 -17 -22 -42 69 -32 165 -135 165 -175 0 -8 -16 -24 -36 -37 -25 -16 -45 -43 -65 -86 -16 -35 -39 -72 -49 -81 -30 -27 -24 -35 28 -35 69 0 189 27 249 56 56 27 73 25 73 -8 0 -45 128 -267 171 -296 44 -30 74 -26 74 10 1 15 9 36 19 47 26 29 31 91 12 147 -9 26 -16 51 -16 54 0 8 151 13 293 11 107 -1 111 8 28 68 -32 24 -82 74 -111 112 -28 39 -69 83 -91 98 -45 33 -118 48 -149 31 -32 -17 -36 -5 -17 48 27 77 17 96 -89 174 -6 4 -16 2 -22 -4z m56 -261 c6 -5 12 -16 12 -23 0 -8 4 -14 9 -14 5 0 11 -9 14 -21 4 -15 0 -23 -14 -26 -20 -5 -27 -23 -9 -23 6 0 10 -7 10 -15 0 -8 -4 -15 -10 -15 -5 0 -10 -4 -10 -10 0 -5 8 -10 17 -10 12 0 14 -3 6 -11 -16 -16 -36 -1 -30 22 3 10 1 22 -4 25 -5 3 -9 -6 -9 -21 0 -14 -7 -28 -16 -32 -24 -9 -70 30 -66 56 3 19 0 21 -21 16 -21 -6 -25 -2 -30 22 -5 23 1 34 31 64 32 32 42 36 72 31 19 -2 41 -9 48 -15z m39 -19 c-3 -8 -6 -5 -6 6 -1 11 2 17 5 13 3 -3 4 -12 1 -19z m-170 -120 c-3 -8 -6 -5 -6 6 -1 11 2 17 5 13 3 -3 4 -12 1 -19z m33 -22 c0 -3 -4 -8 -10 -11 -5 -3 -10 -1 -10 4 0 6 5 11 10 11 6 0 10 -2 10 -4z m63 -43 c-7 -2 -19 -2 -25 0 -7 3 -2 5 12 5 14 0 19 -2 13 -5z" transform="translate(0,90) scale(0.1,-0.1)" stroke="none" fill="#F3A181"/>

</g>

<g id="3" transform="translate(0,270.0)scale(0.8,0.8)">

<path d="M438 591 c-30 -30 -36 -41 -31 -64 5 -24 9 -28 30 -22 21 5 24 3 21 -16 -2 -14 6 -28 24 -42 33 -25 58 -16 58 20 0 21 3 24 12 15 16 -16 28 -15 28 3 0 8 -4 15 -10 15 -18 0 -11 18 9 23 14 3 18 11 14 26 -3 12 -9 21 -14 21 -5 0 -9 6 -9 14 0 20 -20 32 -60 38 -30 5 -40 1 -72 -31z" transform="translate(0,90) scale(0.1,-0.1)" stroke="none" fill="#936C3F"/>

<path d="M502 868 c-7 -7 -12 -21 -12 -32 0 -20 -77 -146 -90 -146 -4 0 -15 9 -26 21 -10 12 -41 33 -69 47 -42 22 -61 25 -120 23 -38 -2 -96 -4 -128 -5 -66 -1 -75 -17 -22 -42 69 -32 165 -135 165 -175 0 -8 -16 -24 -36 -37 -25 -16 -45 -43 -65 -86 -16 -35 -39 -72 -49 -81 -30 -27 -24 -35 28 -35 69 0 189 27 249 56 56 27 73 25 73 -8 0 -45 128 -267 171 -296 44 -30 74 -26 74 10 1 15 9 36 19 47 26 29 31 91 12 147 -9 26 -16 51 -16 54 0 8 151 13 293 11 107 -1 111 8 28 68 -32 24 -82 74 -111 112 -28 39 -69 83 -91 98 -45 33 -118 48 -149 31 -32 -17 -36 -5 -17 48 27 77 17 96 -89 174 -6 4 -16 2 -22 -4z m56 -261 c6 -5 12 -16 12 -23 0 -8 4 -14 9 -14 5 0 11 -9 14 -21 4 -15 0 -23 -14 -26 -20 -5 -27 -23 -9 -23 6 0 10 -7 10 -15 0 -8 -4 -15 -10 -15 -5 0 -10 -4 -10 -10 0 -5 8 -10 17 -10 12 0 14 -3 6 -11 -16 -16 -36 -1 -30 22 3 10 1 22 -4 25 -5 3 -9 -6 -9 -21 0 -14 -7 -28 -16 -32 -24 -9 -70 30 -66 56 3 19 0 21 -21 16 -21 -6 -25 -2 -30 22 -5 23 1 34 31 64 32 32 42 36 72 31 19 -2 41 -9 48 -15z m39 -19 c-3 -8 -6 -5 -6 6 -1 11 2 17 5 13 3 -3 4 -12 1 -19z m-170 -120 c-3 -8 -6 -5 -6 6 -1 11 2 17 5 13 3 -3 4 -12 1 -19z m33 -22 c0 -3 -4 -8 -10 -11 -5 -3 -10 -1 -10 4 0 6 5 11 10 11 6 0 10 -2 10 -4z m63 -43 c-7 -2 -19 -2 -25 0 -7 3 -2 5 12 5 14 0 19 -2 13 -5z" transform="translate(0,90) scale(0.1,-0.1)" stroke="none" fill="#F3A181"/>

</g>

<g id="4" transform="translate(0,360.0)scale(0.8,0.8)">

<path d="M438 591 c-30 -30 -36 -41 -31 -64 5 -24 9 -28 30 -22 21 5 24 3 21 -16 -2 -14 6 -28 24 -42 33 -25 58 -16 58 20 0 21 3 24 12 15 16 -16 28 -15 28 3 0 8 -4 15 -10 15 -18 0 -11 18 9 23 14 3 18 11 14 26 -3 12 -9 21 -14 21 -5 0 -9 6 -9 14 0 20 -20 32 -60 38 -30 5 -40 1 -72 -31z" transform="translate(0,90) scale(0.1,-0.1)" stroke="none" fill="#936C3F"/>

<path d="M502 868 c-7 -7 -12 -21 -12 -32 0 -20 -77 -146 -90 -146 -4 0 -15 9 -26 21 -10 12 -41 33 -69 47 -42 22 -61 25 -120 23 -38 -2 -96 -4 -128 -5 -66 -1 -75 -17 -22 -42 69 -32 165 -135 165 -175 0 -8 -16 -24 -36 -37 -25 -16 -45 -43 -65 -86 -16 -35 -39 -72 -49 -81 -30 -27 -24 -35 28 -35 69 0 189 27 249 56 56 27 73 25 73 -8 0 -45 128 -267 171 -296 44 -30 74 -26 74 10 1 15 9 36 19 47 26 29 31 91 12 147 -9 26 -16 51 -16 54 0 8 151 13 293 11 107 -1 111 8 28 68 -32 24 -82 74 -111 112 -28 39 -69 83 -91 98 -45 33 -118 48 -149 31 -32 -17 -36 -5 -17 48 27 77 17 96 -89 174 -6 4 -16 2 -22 -4z m56 -261 c6 -5 12 -16 12 -23 0 -8 4 -14 9 -14 5 0 11 -9 14 -21 4 -15 0 -23 -14 -26 -20 -5 -27 -23 -9 -23 6 0 10 -7 10 -15 0 -8 -4 -15 -10 -15 -5 0 -10 -4 -10 -10 0 -5 8 -10 17 -10 12 0 14 -3 6 -11 -16 -16 -36 -1 -30 22 3 10 1 22 -4 25 -5 3 -9 -6 -9 -21 0 -14 -7 -28 -16 -32 -24 -9 -70 30 -66 56 3 19 0 21 -21 16 -21 -6 -25 -2 -30 22 -5 23 1 34 31 64 32 32 42 36 72 31 19 -2 41 -9 48 -15z m39 -19 c-3 -8 -6 -5 -6 6 -1 11 2 17 5 13 3 -3 4 -12 1 -19z m-170 -120 c-3 -8 -6 -5 -6 6 -1 11 2 17 5 13 3 -3 4 -12 1 -19z m33 -22 c0 -3 -4 -8 -10 -11 -5 -3 -10 -1 -10 4 0 6 5 11 10 11 6 0 10 -2 10 -4z m63 -43 c-7 -2 -19 -2 -25 0 -7 3 -2 5 12 5 14 0 19 -2 13 -5z" transform="translate(0,90) scale(0.1,-0.1)" stroke="none" fill="#F3A181"/>

</g>

</g>
</svg>