<?xml version="1.0" standalone="no"?>
<!DOCTYPE svg PUBLIC "-//W3C//DTD SVG 20010904//EN"
 "http://www.w3.org/TR/2001/REC-SVG-20010904/DTD/svg10.dtd">
<svg version="1.0" xmlns="http://www.w3.org/2000/svg" width="272pt" height="360pt" viewBox="0 0 272 360" preserveAspectRatio = "xMidYMid meet" >
<metadata>
Created by ZoeQu, written in 2022
</metadata>
<rect width="272" height="360" fill="#3C5B62"/>
<g id="row0" transform="translate(9,0.0)">
<g id="0" transform="translate(0.0,0)scale(1,1)">

<path d="M60 855 c-16 -19 -32 -230 -25 -315 3 -36 12 -92 20 -125 8 -33 26 -112 40 -175 14 -63 28 -121 30 -127 13 -40 71 55 82 133 3 24 9 44 13 44 4 0 26 -28 49 -63 58 -88 156 -191 175 -184 36 14 -20 355 -72 435 -19 29 -8 40 21 23 26 -17 43 -25 77 -39 25 -9 108 -47 142 -64 26 -12 48 -10 48 5 0 41 -124 256 -187 323 -58 62 -178 114 -310 133 -90 14 -88 14 -103 -4z m147 -21 c173 -39 233 -77 321 -201 23 -32 112 -205 112 -218 0 -12 -81 20 -240 97 -30 14 -58 23 -62 19 -5 -4 5 -34 21 -66 16 -33 39 -98 51 -145 24 -93 39 -250 23 -250 -27 0 -161 162 -199 243 -10 20 -21 37 -24 37 -4 0 -10 -30 -13 -67 -6 -62 -39 -153 -56 -153 -6 0 -29 90 -53 205 -5 28 -16 72 -24 99 -17 58 -19 322 -3 379 9 33 13 37 44 37 18 0 64 -7 102 -16z" transform="translate(0,90) scale(0.1,-0.1)" stroke="none" fill="#988B81"/>

<path d="M61 813 c-16 -57 -14 -321 3 -379 8 -27 19 -71 24 -99 24 -115 47 -205 53 -205 17 0 50 91 56 153 3 37 9 67 13 67 3 0 14 -17 24 -37 38 -81 172 -243 199 -243 16 0 1 157 -23 250 -12 47 -35 112 -51 145 -16 32 -26 62 -21 66 4 4 32 -5 62 -19 159 -77 240 -109 240 -97 0 13 -89 186 -112 218 -88 124 -148 162 -321 201 -38 9 -84 16 -102 16 -31 0 -35 -4 -44 -37z" transform="translate(0,90) scale(0.1,-0.1)" stroke="none" fill="#2E3637"/>

</g>

<g id="1" transform="translate(68.0,0)scale(1,1)">

<path d="M60 855 c-16 -19 -32 -230 -25 -315 3 -36 12 -92 20 -125 8 -33 26 -112 40 -175 14 -63 28 -121 30 -127 13 -40 71 55 82 133 3 24 9 44 13 44 4 0 26 -28 49 -63 58 -88 156 -191 175 -184 36 14 -20 355 -72 435 -19 29 -8 40 21 23 26 -17 43 -25 77 -39 25 -9 108 -47 142 -64 26 -12 48 -10 48 5 0 41 -124 256 -187 323 -58 62 -178 114 -310 133 -90 14 -88 14 -103 -4z m147 -21 c173 -39 233 -77 321 -201 23 -32 112 -205 112 -218 0 -12 -81 20 -240 97 -30 14 -58 23 -62 19 -5 -4 5 -34 21 -66 16 -33 39 -98 51 -145 24 -93 39 -250 23 -250 -27 0 -161 162 -199 243 -10 20 -21 37 -24 37 -4 0 -10 -30 -13 -67 -6 -62 -39 -153 -56 -153 -6 0 -29 90 -53 205 -5 28 -16 72 -24 99 -17 58 -19 322 -3 379 9 33 13 37 44 37 18 0 64 -7 102 -16z" transform="translate(0,90) scale(0.1,-0.1)" stroke="none" fill="#988B81"/>

<path d="M61 813 c-16 -57 -14 -321 3 -379 8 -27 19 -71 24 -99 24 -115 47 -205 53 -205 17 0 50 91 56 153 3 37 9 67 13 67 3 0 14 -17 24 -37 38 -81 172 -243 199 -243 16 0 1 157 -23 250 -12 47 -35 112 -51 145 -16 32 -26 62 -21 66 4 4 32 -5 62 -19 159 -77 240 -109 240 -97 0 13 -89 186 -112 218 -88 124 -148 162 -321 201 -38 9 -84 16 -102 16 -31 0 -35 -4 -44 -37z" transform="translate(0,90) scale(0.1,-0.1)" stroke="none" fill="#2E3637"/>

</g>

<g id="2" transform="translate(136.0,0)scale(1,1)">

<path d="M60 855 c-16 -19 -32 -230 -25 -315 3 -36 12 -92 20 -125 8 -33 26 -112 40 -175 14 -63 28 -121 30 -127 13 -40 71 55 82 133 3 24 9 44 13 44 4 0 26 -28 49 -63 58 -88 156 -191 175 -184 36 14 -20 355 -72 435 -19 29 -8 40 21 23 26 -17 43 -25 77 -39 25 -9 108 -47 142 -64 26 -12 48 -10 48 5 0 41 -124 256 -187 323 -58 62 -178 114 -310 133 -90 14 -88 14 -103 -4z m147 -21 c173 -39 233 -77 321 -201 23 -32 112 -205 112 -218 0 -12 -81 20 -240 97 -30 14 -58 23 -62 19 -5 -4 5 -34 21 -66 16 -33 39 -98 51 -145 24 -93 39 -250 23 -250 -27 0 -161 162 -199 243 -10 20 -21 37 -24 37 -4 0 -10 -30 -13 -67 -6 -62 -39 -153 -56 -153 -6 0 -29 90 -53 205 -5 28 -16 72 -24 99 -17 58 -19 322 -3 379 9 33 13 37 44 37 18 0 64 -7 102 -16z" transform="translate(0,90) scale(0.1,-0.1)" stroke="none" fill="#988B81"/>

<path d="M61 813 c-16 -57 -14 -321 3 -379 8 -27 19 -71 24 -99 24 -115 47 -205 53 -205 17 0 50 91 56 153 3 37 9 67 13 67 3 0 14 -17 24 -37 38 -81 172 -243 199 -243 16 0 1 157 -23 250 -12 47 -35 112 -51 145 -16 32 -26 62 -21 66 4 4 32 -5 62 -19 159 -77 240 -109 240 -97 0 13 -89 186 -112 218 -88 124 -148 162 -321 201 -38 9 -84 16 -102 16 -31 0 -35 -4 -44 -37z" transform="translate(0,90) scale(0.1,-0.1)" stroke="none" fill="#2E3637"/>

</g>

<g id="3" transform="translate(204.0,0)scale(1,1)">

<path d="M60 855 c-16 -19 -32 -230 -25 -315 3 -36 12 -92 20 -125 8 -33 26 -112 40 -175 14 -63 28 -121 30 -127 13 -40 71 55 82 133 3 24 9 44 13 44 4 0 26 -28 49 -63 58 -88 156 -191 175 -184 36 14 -20 355 -72 435 -19 29 -8 40 21 23 26 -17 43 -25 77 -39 25 -9 108 -47 142 -64 26 -12 48 -10 48 5 0 41 -124 256 -187 323 -58 62 -178 114 -310 133 -90 14 -88 14 -103 -4z m147 -21 c173 -39 233 -77 321 -201 23 -32 112 -205 112 -218 0 -12 -81 20 -240 97 -30 14 -58 23 -62 19 -5 -4 5 -34 21 -66 16 -33 39 -98 51 -145 24 -93 39 -250 23 -250 -27 0 -161 162 -199 243 -10 20 -21 37 -24 37 -4 0 -10 -30 -13 -67 -6 -62 -39 -153 -56 -153 -6 0 -29 90 -53 205 -5 28 -16 72 -24 99 -17 58 -19 322 -3 379 9 33 13 37 44 37 18 0 64 -7 102 -16z" transform="translate(0,90) scale(0.1,-0.1)" stroke="none" fill="#988B81"/>

<path d="M61 813 c-16 -57 -14 -321 3 -379 8 -27 19 -71 24 -99 24 -115 47 -205 53 -205 17 0 50 91 56 153 3 37 9 67 13 67 3 0 14 -17 24 -37 38 -81 172 -243 199 -243 16 0 1 157 -23 250 -12 47 -35 112 -51 145 -16 32 -26 62 -21 66 4 4 32 -5 62 -19 159 -77 240 -109 240 -97 0 13 -89 186 -112 218 -88 124 -148 162 -321 201 -38 9 -84 16 -102 16 -31 0 -35 -4 -44 -37z" transform="translate(0,90) scale(0.1,-0.1)" stroke="none" fill="#2E3637"/>

</g>

<g id="4" transform="translate(272.0,0)scale(1,1)">

<path d="M60 855 c-16 -19 -32 -230 -25 -315 3 -36 12 -92 20 -125 8 -33 26 -112 40 -175 14 -63 28 -121 30 -127 13 -40 71 55 82 133 3 24 9 44 13 44 4 0 26 -28 49 -63 58 -88 156 -191 175 -184 36 14 -20 355 -72 435 -19 29 -8 40 21 23 26 -17 43 -25 77 -39 25 -9 108 -47 142 -64 26 -12 48 -10 48 5 0 41 -124 256 -187 323 -58 62 -178 114 -310 133 -90 14 -88 14 -103 -4z m147 -21 c173 -39 233 -77 321 -201 23 -32 112 -205 112 -218 0 -12 -81 20 -240 97 -30 14 -58 23 -62 19 -5 -4 5 -34 21 -66 16 -33 39 -98 51 -145 24 -93 39 -250 23 -250 -27 0 -161 162 -199 243 -10 20 -21 37 -24 37 -4 0 -10 -30 -13 -67 -6 -62 -39 -153 -56 -153 -6 0 -29 90 -53 205 -5 28 -16 72 -24 99 -17 58 -19 322 -3 379 9 33 13 37 44 37 18 0 64 -7 102 -16z" transform="translate(0,90) scale(0.1,-0.1)" stroke="none" fill="#988B81"/>

<path d="M61 813 c-16 -57 -14 -321 3 -379 8 -27 19 -71 24 -99 24 -115 47 -205 53 -205 17 0 50 91 56 153 3 37 9 67 13 67 3 0 14 -17 24 -37 38 -81 172 -243 199 -243 16 0 1 157 -23 250 -12 47 -35 112 -51 145 -16 32 -26 62 -21 66 4 4 32 -5 62 -19 159 -77 240 -109 240 -97 0 13 -89 186 -112 218 -88 124 -148 162 -321 201 -38 9 -84 16 -102 16 -31 0 -35 -4 -44 -37z" transform="translate(0,90) scale(0.1,-0.1)" stroke="none" fill="#2E3637"/>

</g>

</g>
<g id="row1" transform="translate(9,90.0)">
<g id="0" transform="translate(0.0,0)scale(1,1)">

<path d="M60 855 c-16 -19 -32 -230 -25 -315 3 -36 12 -92 20 -125 8 -33 26 -112 40 -175 14 -63 28 -121 30 -127 13 -40 71 55 82 133 3 24 9 44 13 44 4 0 26 -28 49 -63 58 -88 156 -191 175 -184 36 14 -20 355 -72 435 -19 29 -8 40 21 23 26 -17 43 -25 77 -39 25 -9 108 -47 142 -64 26 -12 48 -10 48 5 0 41 -124 256 -187 323 -58 62 -178 114 -310 133 -90 14 -88 14 -103 -4z m147 -21 c173 -39 233 -77 321 -201 23 -32 112 -205 112 -218 0 -12 -81 20 -240 97 -30 14 -58 23 -62 19 -5 -4 5 -34 21 -66 16 -33 39 -98 51 -145 24 -93 39 -250 23 -250 -27 0 -161 162 -199 243 -10 20 -21 37 -24 37 -4 0 -10 -30 -13 -67 -6 -62 -39 -153 -56 -153 -6 0 -29 90 -53 205 -5 28 -16 72 -24 99 -17 58 -19 322 -3 379 9 33 13 37 44 37 18 0 64 -7 102 -16z" transform="translate(0,90) scale(0.1,-0.1)" stroke="none" fill="#988B81"/>

<path d="M61 813 c-16 -57 -14 -321 3 -379 8 -27 19 -71 24 -99 24 -115 47 -205 53 -205 17 0 50 91 56 153 3 37 9 67 13 67 3 0 14 -17 24 -37 38 -81 172 -243 199 -243 16 0 1 157 -23 250 -12 47 -35 112 -51 145 -16 32 -26 62 -21 66 4 4 32 -5 62 -19 159 -77 240 -109 240 -97 0 13 -89 186 -112 218 -88 124 -148 162 -321 201 -38 9 -84 16 -102 16 -31 0 -35 -4 -44 -37z" transform="translate(0,90) scale(0.1,-0.1)" stroke="none" fill="#2E3637"/>

</g>

<g id="1" transform="translate(68.0,0)scale(1,1)">

<path d="M60 855 c-16 -19 -32 -230 -25 -315 3 -36 12 -92 20 -125 8 -33 26 -112 40 -175 14 -63 28 -121 30 -127 13 -40 71 55 82 133 3 24 9 44 13 44 4 0 26 -28 49 -63 58 -88 156 -191 175 -184 36 14 -20 355 -72 435 -19 29 -8 40 21 23 26 -17 43 -25 77 -39 25 -9 108 -47 142 -64 26 -12 48 -10 48 5 0 41 -124 256 -187 323 -58 62 -178 114 -310 133 -90 14 -88 14 -103 -4z m147 -21 c173 -39 233 -77 321 -201 23 -32 112 -205 112 -218 0 -12 -81 20 -240 97 -30 14 -58 23 -62 19 -5 -4 5 -34 21 -66 16 -33 39 -98 51 -145 24 -93 39 -250 23 -250 -27 0 -161 162 -199 243 -10 20 -21 37 -24 37 -4 0 -10 -30 -13 -67 -6 -62 -39 -153 -56 -153 -6 0 -29 90 -53 205 -5 28 -16 72 -24 99 -17 58 -19 322 -3 379 9 33 13 37 44 37 18 0 64 -7 102 -16z" transform="translate(0,90) scale(0.1,-0.1)" stroke="none" fill="#988B81"/>

<path d="M61 813 c-16 -57 -14 -321 3 -379 8 -27 19 -71 24 -99 24 -115 47 -205 53 -205 17 0 50 91 56 153 3 37 9 67 13 67 3 0 14 -17 24 -37 38 -81 172 -243 199 -243 16 0 1 157 -23 250 -12 47 -35 112 -51 145 -16 32 -26 62 -21 66 4 4 32 -5 62 -19 159 -77 240 -109 240 -97 0 13 -89 186 -112 218 -88 124 -148 162 -321 201 -38 9 -84 16 -102 16 -31 0 -35 -4 -44 -37z" transform="translate(0,90) scale(0.1,-0.1)" stroke="none" fill="#2E3637"/>

</g>

<g id="2" transform="translate(136.0,0)scale(1,1)">

<path d="M60 855 c-16 -19 -32 -230 -25 -315 3 -36 12 -92 20 -125 8 -33 26 -112 40 -175 14 -63 28 -121 30 -127 13 -40 71 55 82 133 3 24 9 44 13 44 4 0 26 -28 49 -63 58 -88 156 -191 175 -184 36 14 -20 355 -72 435 -19 29 -8 40 21 23 26 -17 43 -25 77 -39 25 -9 108 -47 142 -64 26 -12 48 -10 48 5 0 41 -124 256 -187 323 -58 62 -178 114 -310 133 -90 14 -88 14 -103 -4z m147 -21 c173 -39 233 -77 321 -201 23 -32 112 -205 112 -218 0 -12 -81 20 -240 97 -30 14 -58 23 -62 19 -5 -4 5 -34 21 -66 16 -33 39 -98 51 -145 24 -93 39 -250 23 -250 -27 0 -161 162 -199 243 -10 20 -21 37 -24 37 -4 0 -10 -30 -13 -67 -6 -62 -39 -153 -56 -153 -6 0 -29 90 -53 205 -5 28 -16 72 -24 99 -17 58 -19 322 -3 379 9 33 13 37 44 37 18 0 64 -7 102 -16z" transform="translate(0,90) scale(0.1,-0.1)" stroke="none" fill="#988B81"/>

<path d="M61 813 c-16 -57 -14 -321 3 -379 8 -27 19 -71 24 -99 24 -115 47 -205 53 -205 17 0 50 91 56 153 3 37 9 67 13 67 3 0 14 -17 24 -37 38 -81 172 -243 199 -243 16 0 1 157 -23 250 -12 47 -35 112 -51 145 -16 32 -26 62 -21 66 4 4 32 -5 62 -19 159 -77 240 -109 240 -97 0 13 -89 186 -112 218 -88 124 -148 162 -321 201 -38 9 -84 16 -102 16 -31 0 -35 -4 -44 -37z" transform="translate(0,90) scale(0.1,-0.1)" stroke="none" fill="#2E3637"/>

</g>

<g id="3" transform="translate(204.0,0)scale(1,1)">

<path d="M60 855 c-16 -19 -32 -230 -25 -315 3 -36 12 -92 20 -125 8 -33 26 -112 40 -175 14 -63 28 -121 30 -127 13 -40 71 55 82 133 3 24 9 44 13 44 4 0 26 -28 49 -63 58 -88 156 -191 175 -184 36 14 -20 355 -72 435 -19 29 -8 40 21 23 26 -17 43 -25 77 -39 25 -9 108 -47 142 -64 26 -12 48 -10 48 5 0 41 -124 256 -187 323 -58 62 -178 114 -310 133 -90 14 -88 14 -103 -4z m147 -21 c173 -39 233 -77 321 -201 23 -32 112 -205 112 -218 0 -12 -81 20 -240 97 -30 14 -58 23 -62 19 -5 -4 5 -34 21 -66 16 -33 39 -98 51 -145 24 -93 39 -250 23 -250 -27 0 -161 162 -199 243 -10 20 -21 37 -24 37 -4 0 -10 -30 -13 -67 -6 -62 -39 -153 -56 -153 -6 0 -29 90 -53 205 -5 28 -16 72 -24 99 -17 58 -19 322 -3 379 9 33 13 37 44 37 18 0 64 -7 102 -16z" transform="translate(0,90) scale(0.1,-0.1)" stroke="none" fill="#988B81"/>

<path d="M61 813 c-16 -57 -14 -321 3 -379 8 -27 19 -71 24 -99 24 -115 47 -205 53 -205 17 0 50 91 56 153 3 37 9 67 13 67 3 0 14 -17 24 -37 38 -81 172 -243 199 -243 16 0 1 157 -23 250 -12 47 -35 112 -51 145 -16 32 -26 62 -21 66 4 4 32 -5 62 -19 159 -77 240 -109 240 -97 0 13 -89 186 -112 218 -88 124 -148 162 -321 201 -38 9 -84 16 -102 16 -31 0 -35 -4 -44 -37z" transform="translate(0,90) scale(0.1,-0.1)" stroke="none" fill="#2E3637"/>

</g>

<g id="4" transform="translate(272.0,0)scale(1,1)">

<path d="M60 855 c-16 -19 -32 -230 -25 -315 3 -36 12 -92 20 -125 8 -33 26 -112 40 -175 14 -63 28 -121 30 -127 13 -40 71 55 82 133 3 24 9 44 13 44 4 0 26 -28 49 -63 58 -88 156 -191 175 -184 36 14 -20 355 -72 435 -19 29 -8 40 21 23 26 -17 43 -25 77 -39 25 -9 108 -47 142 -64 26 -12 48 -10 48 5 0 41 -124 256 -187 323 -58 62 -178 114 -310 133 -90 14 -88 14 -103 -4z m147 -21 c173 -39 233 -77 321 -201 23 -32 112 -205 112 -218 0 -12 -81 20 -240 97 -30 14 -58 23 -62 19 -5 -4 5 -34 21 -66 16 -33 39 -98 51 -145 24 -93 39 -250 23 -250 -27 0 -161 162 -199 243 -10 20 -21 37 -24 37 -4 0 -10 -30 -13 -67 -6 -62 -39 -153 -56 -153 -6 0 -29 90 -53 205 -5 28 -16 72 -24 99 -17 58 -19 322 -3 379 9 33 13 37 44 37 18 0 64 -7 102 -16z" transform="translate(0,90) scale(0.1,-0.1)" stroke="none" fill="#988B81"/>

<path d="M61 813 c-16 -57 -14 -321 3 -379 8 -27 19 -71 24 -99 24 -115 47 -205 53 -205 17 0 50 91 56 153 3 37 9 67 13 67 3 0 14 -17 24 -37 38 -81 172 -243 199 -243 16 0 1 157 -23 250 -12 47 -35 112 -51 145 -16 32 -26 62 -21 66 4 4 32 -5 62 -19 159 -77 240 -109 240 -97 0 13 -89 186 -112 218 -88 124 -148 162 -321 201 -38 9 -84 16 -102 16 -31 0 -35 -4 -44 -37z" transform="translate(0,90) scale(0.1,-0.1)" stroke="none" fill="#2E3637"/>

</g>

</g>
<g id="row2" transform="translate(9,180.0)">
<g id="0" transform="translate(0.0,0)scale(1,1)">

<path d="M60 855 c-16 -19 -32 -230 -25 -315 3 -36 12 -92 20 -125 8 -33 26 -112 40 -175 14 -63 28 -121 30 -127 13 -40 71 55 82 133 3 24 9 44 13 44 4 0 26 -28 49 -63 58 -88 156 -191 175 -184 36 14 -20 355 -72 435 -19 29 -8 40 21 23 26 -17 43 -25 77 -39 25 -9 108 -47 142 -64 26 -12 48 -10 48 5 0 41 -124 256 -187 323 -58 62 -178 114 -310 133 -90 14 -88 14 -103 -4z m147 -21 c173 -39 233 -77 321 -201 23 -32 112 -205 112 -218 0 -12 -81 20 -240 97 -30 14 -58 23 -62 19 -5 -4 5 -34 21 -66 16 -33 39 -98 51 -145 24 -93 39 -250 23 -250 -27 0 -161 162 -199 243 -10 20 -21 37 -24 37 -4 0 -10 -30 -13 -67 -6 -62 -39 -153 -56 -153 -6 0 -29 90 -53 205 -5 28 -16 72 -24 99 -17 58 -19 322 -3 379 9 33 13 37 44 37 18 0 64 -7 102 -16z" transform="translate(0,90) scale(0.1,-0.1)" stroke="none" fill="#988B81"/>

<path d="M61 813 c-16 -57 -14 -321 3 -379 8 -27 19 -71 24 -99 24 -115 47 -205 53 -205 17 0 50 91 56 153 3 37 9 67 13 67 3 0 14 -17 24 -37 38 -81 172 -243 199 -243 16 0 1 157 -23 250 -12 47 -35 112 -51 145 -16 32 -26 62 -21 66 4 4 32 -5 62 -19 159 -77 240 -109 240 -97 0 13 -89 186 -112 218 -88 124 -148 162 -321 201 -38 9 -84 16 -102 16 -31 0 -35 -4 -44 -37z" transform="translate(0,90) scale(0.1,-0.1)" stroke="none" fill="#2E3637"/>

</g>

<g id="1" transform="translate(68.0,0)scale(1,1)">

<path d="M60 855 c-16 -19 -32 -230 -25 -315 3 -36 12 -92 20 -125 8 -33 26 -112 40 -175 14 -63 28 -121 30 -127 13 -40 71 55 82 133 3 24 9 44 13 44 4 0 26 -28 49 -63 58 -88 156 -191 175 -184 36 14 -20 355 -72 435 -19 29 -8 40 21 23 26 -17 43 -25 77 -39 25 -9 108 -47 142 -64 26 -12 48 -10 48 5 0 41 -124 256 -187 323 -58 62 -178 114 -310 133 -90 14 -88 14 -103 -4z m147 -21 c173 -39 233 -77 321 -201 23 -32 112 -205 112 -218 0 -12 -81 20 -240 97 -30 14 -58 23 -62 19 -5 -4 5 -34 21 -66 16 -33 39 -98 51 -145 24 -93 39 -250 23 -250 -27 0 -161 162 -199 243 -10 20 -21 37 -24 37 -4 0 -10 -30 -13 -67 -6 -62 -39 -153 -56 -153 -6 0 -29 90 -53 205 -5 28 -16 72 -24 99 -17 58 -19 322 -3 379 9 33 13 37 44 37 18 0 64 -7 102 -16z" transform="translate(0,90) scale(0.1,-0.1)" stroke="none" fill="#988B81"/>

<path d="M61 813 c-16 -57 -14 -321 3 -379 8 -27 19 -71 24 -99 24 -115 47 -205 53 -205 17 0 50 91 56 153 3 37 9 67 13 67 3 0 14 -17 24 -37 38 -81 172 -243 199 -243 16 0 1 157 -23 250 -12 47 -35 112 -51 145 -16 32 -26 62 -21 66 4 4 32 -5 62 -19 159 -77 240 -109 240 -97 0 13 -89 186 -112 218 -88 124 -148 162 -321 201 -38 9 -84 16 -102 16 -31 0 -35 -4 -44 -37z" transform="translate(0,90) scale(0.1,-0.1)" stroke="none" fill="#2E3637"/>

</g>

<g id="2" transform="translate(136.0,0)scale(1,1)">

<path d="M60 855 c-16 -19 -32 -230 -25 -315 3 -36 12 -92 20 -125 8 -33 26 -112 40 -175 14 -63 28 -121 30 -127 13 -40 71 55 82 133 3 24 9 44 13 44 4 0 26 -28 49 -63 58 -88 156 -191 175 -184 36 14 -20 355 -72 435 -19 29 -8 40 21 23 26 -17 43 -25 77 -39 25 -9 108 -47 142 -64 26 -12 48 -10 48 5 0 41 -124 256 -187 323 -58 62 -178 114 -310 133 -90 14 -88 14 -103 -4z m147 -21 c173 -39 233 -77 321 -201 23 -32 112 -205 112 -218 0 -12 -81 20 -240 97 -30 14 -58 23 -62 19 -5 -4 5 -34 21 -66 16 -33 39 -98 51 -145 24 -93 39 -250 23 -250 -27 0 -161 162 -199 243 -10 20 -21 37 -24 37 -4 0 -10 -30 -13 -67 -6 -62 -39 -153 -56 -153 -6 0 -29 90 -53 205 -5 28 -16 72 -24 99 -17 58 -19 322 -3 379 9 33 13 37 44 37 18 0 64 -7 102 -16z" transform="translate(0,90) scale(0.1,-0.1)" stroke="none" fill="#988B81"/>

<path d="M61 813 c-16 -57 -14 -321 3 -379 8 -27 19 -71 24 -99 24 -115 47 -205 53 -205 17 0 50 91 56 153 3 37 9 67 13 67 3 0 14 -17 24 -37 38 -81 172 -243 199 -243 16 0 1 157 -23 250 -12 47 -35 112 -51 145 -16 32 -26 62 -21 66 4 4 32 -5 62 -19 159 -77 240 -109 240 -97 0 13 -89 186 -112 218 -88 124 -148 162 -321 201 -38 9 -84 16 -102 16 -31 0 -35 -4 -44 -37z" transform="translate(0,90) scale(0.1,-0.1)" stroke="none" fill="#2E3637"/>

</g>

<g id="3" transform="translate(204.0,0)scale(1,1)">

<path d="M60 855 c-16 -19 -32 -230 -25 -315 3 -36 12 -92 20 -125 8 -33 26 -112 40 -175 14 -63 28 -121 30 -127 13 -40 71 55 82 133 3 24 9 44 13 44 4 0 26 -28 49 -63 58 -88 156 -191 175 -184 36 14 -20 355 -72 435 -19 29 -8 40 21 23 26 -17 43 -25 77 -39 25 -9 108 -47 142 -64 26 -12 48 -10 48 5 0 41 -124 256 -187 323 -58 62 -178 114 -310 133 -90 14 -88 14 -103 -4z m147 -21 c173 -39 233 -77 321 -201 23 -32 112 -205 112 -218 0 -12 -81 20 -240 97 -30 14 -58 23 -62 19 -5 -4 5 -34 21 -66 16 -33 39 -98 51 -145 24 -93 39 -250 23 -250 -27 0 -161 162 -199 243 -10 20 -21 37 -24 37 -4 0 -10 -30 -13 -67 -6 -62 -39 -153 -56 -153 -6 0 -29 90 -53 205 -5 28 -16 72 -24 99 -17 58 -19 322 -3 379 9 33 13 37 44 37 18 0 64 -7 102 -16z" transform="translate(0,90) scale(0.1,-0.1)" stroke="none" fill="#988B81"/>

<path d="M61 813 c-16 -57 -14 -321 3 -379 8 -27 19 -71 24 -99 24 -115 47 -205 53 -205 17 0 50 91 56 153 3 37 9 67 13 67 3 0 14 -17 24 -37 38 -81 172 -243 199 -243 16 0 1 157 -23 250 -12 47 -35 112 -51 145 -16 32 -26 62 -21 66 4 4 32 -5 62 -19 159 -77 240 -109 240 -97 0 13 -89 186 -112 218 -88 124 -148 162 -321 201 -38 9 -84 16 -102 16 -31 0 -35 -4 -44 -37z" transform="translate(0,90) scale(0.1,-0.1)" stroke="none" fill="#2E3637"/>

</g>

<g id="4" transform="translate(272.0,0)scale(1,1)">

<path d="M60 855 c-16 -19 -32 -230 -25 -315 3 -36 12 -92 20 -125 8 -33 26 -112 40 -175 14 -63 28 -121 30 -127 13 -40 71 55 82 133 3 24 9 44 13 44 4 0 26 -28 49 -63 58 -88 156 -191 175 -184 36 14 -20 355 -72 435 -19 29 -8 40 21 23 26 -17 43 -25 77 -39 25 -9 108 -47 142 -64 26 -12 48 -10 48 5 0 41 -124 256 -187 323 -58 62 -178 114 -310 133 -90 14 -88 14 -103 -4z m147 -21 c173 -39 233 -77 321 -201 23 -32 112 -205 112 -218 0 -12 -81 20 -240 97 -30 14 -58 23 -62 19 -5 -4 5 -34 21 -66 16 -33 39 -98 51 -145 24 -93 39 -250 23 -250 -27 0 -161 162 -199 243 -10 20 -21 37 -24 37 -4 0 -10 -30 -13 -67 -6 -62 -39 -153 -56 -153 -6 0 -29 90 -53 205 -5 28 -16 72 -24 99 -17 58 -19 322 -3 379 9 33 13 37 44 37 18 0 64 -7 102 -16z" transform="translate(0,90) scale(0.1,-0.1)" stroke="none" fill="#988B81"/>

<path d="M61 813 c-16 -57 -14 -321 3 -379 8 -27 19 -71 24 -99 24 -115 47 -205 53 -205 17 0 50 91 56 153 3 37 9 67 13 67 3 0 14 -17 24 -37 38 -81 172 -243 199 -243 16 0 1 157 -23 250 -12 47 -35 112 -51 145 -16 32 -26 62 -21 66 4 4 32 -5 62 -19 159 -77 240 -109 240 -97 0 13 -89 186 -112 218 -88 124 -148 162 -321 201 -38 9 -84 16 -102 16 -31 0 -35 -4 -44 -37z" transform="translate(0,90) scale(0.1,-0.1)" stroke="none" fill="#2E3637"/>

</g>

</g>
<g id="row3" transform="translate(9,270.0)">
<g id="0" transform="translate(0.0,0)scale(1,1)">

<path d="M60 855 c-16 -19 -32 -230 -25 -315 3 -36 12 -92 20 -125 8 -33 26 -112 40 -175 14 -63 28 -121 30 -127 13 -40 71 55 82 133 3 24 9 44 13 44 4 0 26 -28 49 -63 58 -88 156 -191 175 -184 36 14 -20 355 -72 435 -19 29 -8 40 21 23 26 -17 43 -25 77 -39 25 -9 108 -47 142 -64 26 -12 48 -10 48 5 0 41 -124 256 -187 323 -58 62 -178 114 -310 133 -90 14 -88 14 -103 -4z m147 -21 c173 -39 233 -77 321 -201 23 -32 112 -205 112 -218 0 -12 -81 20 -240 97 -30 14 -58 23 -62 19 -5 -4 5 -34 21 -66 16 -33 39 -98 51 -145 24 -93 39 -250 23 -250 -27 0 -161 162 -199 243 -10 20 -21 37 -24 37 -4 0 -10 -30 -13 -67 -6 -62 -39 -153 -56 -153 -6 0 -29 90 -53 205 -5 28 -16 72 -24 99 -17 58 -19 322 -3 379 9 33 13 37 44 37 18 0 64 -7 102 -16z" transform="translate(0,90) scale(0.1,-0.1)" stroke="none" fill="#988B81"/>

<path d="M61 813 c-16 -57 -14 -321 3 -379 8 -27 19 -71 24 -99 24 -115 47 -205 53 -205 17 0 50 91 56 153 3 37 9 67 13 67 3 0 14 -17 24 -37 38 -81 172 -243 199 -243 16 0 1 157 -23 250 -12 47 -35 112 -51 145 -16 32 -26 62 -21 66 4 4 32 -5 62 -19 159 -77 240 -109 240 -97 0 13 -89 186 -112 218 -88 124 -148 162 -321 201 -38 9 -84 16 -102 16 -31 0 -35 -4 -44 -37z" transform="translate(0,90) scale(0.1,-0.1)" stroke="none" fill="#2E3637"/>

</g>

<g id="1" transform="translate(68.0,0)scale(1,1)">

<path d="M60 855 c-16 -19 -32 -230 -25 -315 3 -36 12 -92 20 -125 8 -33 26 -112 40 -175 14 -63 28 -121 30 -127 13 -40 71 55 82 133 3 24 9 44 13 44 4 0 26 -28 49 -63 58 -88 156 -191 175 -184 36 14 -20 355 -72 435 -19 29 -8 40 21 23 26 -17 43 -25 77 -39 25 -9 108 -47 142 -64 26 -12 48 -10 48 5 0 41 -124 256 -187 323 -58 62 -178 114 -310 133 -90 14 -88 14 -103 -4z m147 -21 c173 -39 233 -77 321 -201 23 -32 112 -205 112 -218 0 -12 -81 20 -240 97 -30 14 -58 23 -62 19 -5 -4 5 -34 21 -66 16 -33 39 -98 51 -145 24 -93 39 -250 23 -250 -27 0 -161 162 -199 243 -10 20 -21 37 -24 37 -4 0 -10 -30 -13 -67 -6 -62 -39 -153 -56 -153 -6 0 -29 90 -53 205 -5 28 -16 72 -24 99 -17 58 -19 322 -3 379 9 33 13 37 44 37 18 0 64 -7 102 -16z" transform="translate(0,90) scale(0.1,-0.1)" stroke="none" fill="#988B81"/>

<path d="M61 813 c-16 -57 -14 -321 3 -379 8 -27 19 -71 24 -99 24 -115 47 -205 53 -205 17 0 50 91 56 153 3 37 9 67 13 67 3 0 14 -17 24 -37 38 -81 172 -243 199 -243 16 0 1 157 -23 250 -12 47 -35 112 -51 145 -16 32 -26 62 -21 66 4 4 32 -5 62 -19 159 -77 240 -109 240 -97 0 13 -89 186 -112 218 -88 124 -148 162 -321 201 -38 9 -84 16 -102 16 -31 0 -35 -4 -44 -37z" transform="translate(0,90) scale(0.1,-0.1)" stroke="none" fill="#2E3637"/>

</g>

<g id="2" transform="translate(136.0,0)scale(1,1)">

<path d="M60 855 c-16 -19 -32 -230 -25 -315 3 -36 12 -92 20 -125 8 -33 26 -112 40 -175 14 -63 28 -121 30 -127 13 -40 71 55 82 133 3 24 9 44 13 44 4 0 26 -28 49 -63 58 -88 156 -191 175 -184 36 14 -20 355 -72 435 -19 29 -8 40 21 23 26 -17 43 -25 77 -39 25 -9 108 -47 142 -64 26 -12 48 -10 48 5 0 41 -124 256 -187 323 -58 62 -178 114 -310 133 -90 14 -88 14 -103 -4z m147 -21 c173 -39 233 -77 321 -201 23 -32 112 -205 112 -218 0 -12 -81 20 -240 97 -30 14 -58 23 -62 19 -5 -4 5 -34 21 -66 16 -33 39 -98 51 -145 24 -93 39 -250 23 -250 -27 0 -161 162 -199 243 -10 20 -21 37 -24 37 -4 0 -10 -30 -13 -67 -6 -62 -39 -153 -56 -153 -6 0 -29 90 -53 205 -5 28 -16 72 -24 99 -17 58 -19 322 -3 379 9 33 13 37 44 37 18 0 64 -7 102 -16z" transform="translate(0,90) scale(0.1,-0.1)" stroke="none" fill="#988B81"/>

<path d="M61 813 c-16 -57 -14 -321 3 -379 8 -27 19 -71 24 -99 24 -115 47 -205 53 -205 17 0 50 91 56 153 3 37 9 67 13 67 3 0 14 -17 24 -37 38 -81 172 -243 199 -243 16 0 1 157 -23 250 -12 47 -35 112 -51 145 -16 32 -26 62 -21 66 4 4 32 -5 62 -19 159 -77 240 -109 240 -97 0 13 -89 186 -112 218 -88 124 -148 162 -321 201 -38 9 -84 16 -102 16 -31 0 -35 -4 -44 -37z" transform="translate(0,90) scale(0.1,-0.1)" stroke="none" fill="#2E3637"/>

</g>

<g id="3" transform="translate(204.0,0)scale(1,1)">

<path d="M60 855 c-16 -19 -32 -230 -25 -315 3 -36 12 -92 20 -125 8 -33 26 -112 40 -175 14 -63 28 -121 30 -127 13 -40 71 55 82 133 3 24 9 44 13 44 4 0 26 -28 49 -63 58 -88 156 -191 175 -184 36 14 -20 355 -72 435 -19 29 -8 40 21 23 26 -17 43 -25 77 -39 25 -9 108 -47 142 -64 26 -12 48 -10 48 5 0 41 -124 256 -187 323 -58 62 -178 114 -310 133 -90 14 -88 14 -103 -4z m147 -21 c173 -39 233 -77 321 -201 23 -32 112 -205 112 -218 0 -12 -81 20 -240 97 -30 14 -58 23 -62 19 -5 -4 5 -34 21 -66 16 -33 39 -98 51 -145 24 -93 39 -250 23 -250 -27 0 -161 162 -199 243 -10 20 -21 37 -24 37 -4 0 -10 -30 -13 -67 -6 -62 -39 -153 -56 -153 -6 0 -29 90 -53 205 -5 28 -16 72 -24 99 -17 58 -19 322 -3 379 9 33 13 37 44 37 18 0 64 -7 102 -16z" transform="translate(0,90) scale(0.1,-0.1)" stroke="none" fill="#988B81"/>

<path d="M61 813 c-16 -57 -14 -321 3 -379 8 -27 19 -71 24 -99 24 -115 47 -205 53 -205 17 0 50 91 56 153 3 37 9 67 13 67 3 0 14 -17 24 -37 38 -81 172 -243 199 -243 16 0 1 157 -23 250 -12 47 -35 112 -51 145 -16 32 -26 62 -21 66 4 4 32 -5 62 -19 159 -77 240 -109 240 -97 0 13 -89 186 -112 218 -88 124 -148 162 -321 201 -38 9 -84 16 -102 16 -31 0 -35 -4 -44 -37z" transform="translate(0,90) scale(0.1,-0.1)" stroke="none" fill="#2E3637"/>

</g>

<g id="4" transform="translate(272.0,0)scale(1,1)">

<path d="M60 855 c-16 -19 -32 -230 -25 -315 3 -36 12 -92 20 -125 8 -33 26 -112 40 -175 14 -63 28 -121 30 -127 13 -40 71 55 82 133 3 24 9 44 13 44 4 0 26 -28 49 -63 58 -88 156 -191 175 -184 36 14 -20 355 -72 435 -19 29 -8 40 21 23 26 -17 43 -25 77 -39 25 -9 108 -47 142 -64 26 -12 48 -10 48 5 0 41 -124 256 -187 323 -58 62 -178 114 -310 133 -90 14 -88 14 -103 -4z m147 -21 c173 -39 233 -77 321 -201 23 -32 112 -205 112 -218 0 -12 -81 20 -240 97 -30 14 -58 23 -62 19 -5 -4 5 -34 21 -66 16 -33 39 -98 51 -145 24 -93 39 -250 23 -250 -27 0 -161 162 -199 243 -10 20 -21 37 -24 37 -4 0 -10 -30 -13 -67 -6 -62 -39 -153 -56 -153 -6 0 -29 90 -53 205 -5 28 -16 72 -24 99 -17 58 -19 322 -3 379 9 33 13 37 44 37 18 0 64 -7 102 -16z" transform="translate(0,90) scale(0.1,-0.1)" stroke="none" fill="#988B81"/>

<path d="M61 813 c-16 -57 -14 -321 3 -379 8 -27 19 -71 24 -99 24 -115 47 -205 53 -205 17 0 50 91 56 153 3 37 9 67 13 67 3 0 14 -17 24 -37 38 -81 172 -243 199 -243 16 0 1 157 -23 250 -12 47 -35 112 -51 145 -16 32 -26 62 -21 66 4 4 32 -5 62 -19 159 -77 240 -109 240 -97 0 13 -89 186 -112 218 -88 124 -148 162 -321 201 -38 9 -84 16 -102 16 -31 0 -35 -4 -44 -37z" transform="translate(0,90) scale(0.1,-0.1)" stroke="none" fill="#2E3637"/>

</g>

</g>
</svg>