<?xml version="1.0" standalone="no"?>
<!DOCTYPE svg PUBLIC "-//W3C//DTD SVG 20010904//EN"
 "http://www.w3.org/TR/2001/REC-SVG-20010904/DTD/svg10.dtd">
<svg version="1.0" xmlns="http://www.w3.org/2000/svg" width="812pt" height="868pt" viewBox="0 0 812 868" preserveAspectRatio = "xMidYMid meet" >
<metadata>
Created by ZoeQu, written in 2022
</metadata>
<rect width="812" height="868" fill="#EBB363"/>
<g id="row0" transform="translate(27,0.0)">
<g id="0" transform="translate(0.0,0)scale(1,1)">

<path d="M1495 1163 c-22 -20 -67 -62 -100 -93 -35 -34 -79 -64 -105 -74 l-45 -16 50 7 c28 5 86 6 130 4 172 -9 180 -8 183 15 2 12 -4 29 -13 38 -16 15 -15 18 5 34 44 36 -8 70 -63 41 -21 -12 -21 -12 -4 14 17 27 23 67 10 67 -5 0 -26 -17 -48 -37z" transform="translate(0,217) scale(0.1,-0.1)" stroke="none" fill="#4E8677"/>

<path d="M326 1513 c135 -250 346 -505 541 -652 l72 -55 -44 -48 c-68 -76 -88 -140 -82 -268 5 -111 30 -214 50 -208 7 2 38 53 70 114 57 107 58 111 58 189 0 44 -7 106 -15 138 -9 32 -16 60 -16 62 0 2 42 -23 93 -55 51 -32 123 -73 160 -91 36 -18 69 -39 72 -46 2 -8 -10 -72 -27 -144 l-33 -130 19 -52 c10 -28 38 -85 63 -126 l46 -74 18 24 c10 13 26 52 35 86 30 110 6 230 -71 357 -19 32 -35 60 -35 62 0 1 21 -7 48 -18 56 -25 224 -83 269 -92 17 -4 39 -18 47 -32 9 -13 25 -24 36 -24 11 0 39 -20 63 -44 66 -69 135 -72 125 -5 -4 24 -1 28 21 31 16 2 27 10 29 22 5 24 -8 35 -41 38 -34 3 -34 11 -2 26 14 6 25 18 25 25 0 11 -25 8 -122 -15 -118 -28 -123 -28 -162 -12 -23 9 -90 33 -151 54 -60 21 -135 50 -165 63 l-54 24 69 1 c46 0 90 8 126 21 59 22 177 101 217 143 l22 25 -27 13 c-16 7 -66 14 -113 17 l-85 4 -144 -94 -144 -95 -96 60 c-138 85 -371 268 -371 291 0 3 16 -1 35 -9 20 -8 93 -28 164 -44 123 -29 131 -29 197 -16 l69 14 -100 1 c-138 2 -258 32 -385 96 -56 29 -67 41 -17 21 19 -8 40 -10 52 -5 13 5 15 8 5 9 -28 1 -143 58 -152 74 -5 9 -14 16 -21 16 -7 0 -73 95 -147 210 -74 116 -136 210 -138 210 -2 0 18 -39 44 -87z" transform="translate(0,217) scale(0.1,-0.1)" stroke="none" fill="#4E8677"/>

</g>

<g id="1" transform="translate(203.0,0)scale(1,1)">

<path d="M1495 1163 c-22 -20 -67 -62 -100 -93 -35 -34 -79 -64 -105 -74 l-45 -16 50 7 c28 5 86 6 130 4 172 -9 180 -8 183 15 2 12 -4 29 -13 38 -16 15 -15 18 5 34 44 36 -8 70 -63 41 -21 -12 -21 -12 -4 14 17 27 23 67 10 67 -5 0 -26 -17 -48 -37z" transform="translate(0,217) scale(0.1,-0.1)" stroke="none" fill="#4E8677"/>

<path d="M326 1513 c135 -250 346 -505 541 -652 l72 -55 -44 -48 c-68 -76 -88 -140 -82 -268 5 -111 30 -214 50 -208 7 2 38 53 70 114 57 107 58 111 58 189 0 44 -7 106 -15 138 -9 32 -16 60 -16 62 0 2 42 -23 93 -55 51 -32 123 -73 160 -91 36 -18 69 -39 72 -46 2 -8 -10 -72 -27 -144 l-33 -130 19 -52 c10 -28 38 -85 63 -126 l46 -74 18 24 c10 13 26 52 35 86 30 110 6 230 -71 357 -19 32 -35 60 -35 62 0 1 21 -7 48 -18 56 -25 224 -83 269 -92 17 -4 39 -18 47 -32 9 -13 25 -24 36 -24 11 0 39 -20 63 -44 66 -69 135 -72 125 -5 -4 24 -1 28 21 31 16 2 27 10 29 22 5 24 -8 35 -41 38 -34 3 -34 11 -2 26 14 6 25 18 25 25 0 11 -25 8 -122 -15 -118 -28 -123 -28 -162 -12 -23 9 -90 33 -151 54 -60 21 -135 50 -165 63 l-54 24 69 1 c46 0 90 8 126 21 59 22 177 101 217 143 l22 25 -27 13 c-16 7 -66 14 -113 17 l-85 4 -144 -94 -144 -95 -96 60 c-138 85 -371 268 -371 291 0 3 16 -1 35 -9 20 -8 93 -28 164 -44 123 -29 131 -29 197 -16 l69 14 -100 1 c-138 2 -258 32 -385 96 -56 29 -67 41 -17 21 19 -8 40 -10 52 -5 13 5 15 8 5 9 -28 1 -143 58 -152 74 -5 9 -14 16 -21 16 -7 0 -73 95 -147 210 -74 116 -136 210 -138 210 -2 0 18 -39 44 -87z" transform="translate(0,217) scale(0.1,-0.1)" stroke="none" fill="#4E8677"/>

</g>

<g id="2" transform="translate(406.0,0)scale(1,1)">

<path d="M1495 1163 c-22 -20 -67 -62 -100 -93 -35 -34 -79 -64 -105 -74 l-45 -16 50 7 c28 5 86 6 130 4 172 -9 180 -8 183 15 2 12 -4 29 -13 38 -16 15 -15 18 5 34 44 36 -8 70 -63 41 -21 -12 -21 -12 -4 14 17 27 23 67 10 67 -5 0 -26 -17 -48 -37z" transform="translate(0,217) scale(0.1,-0.1)" stroke="none" fill="#4E8677"/>

<path d="M326 1513 c135 -250 346 -505 541 -652 l72 -55 -44 -48 c-68 -76 -88 -140 -82 -268 5 -111 30 -214 50 -208 7 2 38 53 70 114 57 107 58 111 58 189 0 44 -7 106 -15 138 -9 32 -16 60 -16 62 0 2 42 -23 93 -55 51 -32 123 -73 160 -91 36 -18 69 -39 72 -46 2 -8 -10 -72 -27 -144 l-33 -130 19 -52 c10 -28 38 -85 63 -126 l46 -74 18 24 c10 13 26 52 35 86 30 110 6 230 -71 357 -19 32 -35 60 -35 62 0 1 21 -7 48 -18 56 -25 224 -83 269 -92 17 -4 39 -18 47 -32 9 -13 25 -24 36 -24 11 0 39 -20 63 -44 66 -69 135 -72 125 -5 -4 24 -1 28 21 31 16 2 27 10 29 22 5 24 -8 35 -41 38 -34 3 -34 11 -2 26 14 6 25 18 25 25 0 11 -25 8 -122 -15 -118 -28 -123 -28 -162 -12 -23 9 -90 33 -151 54 -60 21 -135 50 -165 63 l-54 24 69 1 c46 0 90 8 126 21 59 22 177 101 217 143 l22 25 -27 13 c-16 7 -66 14 -113 17 l-85 4 -144 -94 -144 -95 -96 60 c-138 85 -371 268 -371 291 0 3 16 -1 35 -9 20 -8 93 -28 164 -44 123 -29 131 -29 197 -16 l69 14 -100 1 c-138 2 -258 32 -385 96 -56 29 -67 41 -17 21 19 -8 40 -10 52 -5 13 5 15 8 5 9 -28 1 -143 58 -152 74 -5 9 -14 16 -21 16 -7 0 -73 95 -147 210 -74 116 -136 210 -138 210 -2 0 18 -39 44 -87z" transform="translate(0,217) scale(0.1,-0.1)" stroke="none" fill="#4E8677"/>

</g>

<g id="3" transform="translate(609.0,0)scale(1,1)">

<path d="M1495 1163 c-22 -20 -67 -62 -100 -93 -35 -34 -79 -64 -105 -74 l-45 -16 50 7 c28 5 86 6 130 4 172 -9 180 -8 183 15 2 12 -4 29 -13 38 -16 15 -15 18 5 34 44 36 -8 70 -63 41 -21 -12 -21 -12 -4 14 17 27 23 67 10 67 -5 0 -26 -17 -48 -37z" transform="translate(0,217) scale(0.1,-0.1)" stroke="none" fill="#4E8677"/>

<path d="M326 1513 c135 -250 346 -505 541 -652 l72 -55 -44 -48 c-68 -76 -88 -140 -82 -268 5 -111 30 -214 50 -208 7 2 38 53 70 114 57 107 58 111 58 189 0 44 -7 106 -15 138 -9 32 -16 60 -16 62 0 2 42 -23 93 -55 51 -32 123 -73 160 -91 36 -18 69 -39 72 -46 2 -8 -10 -72 -27 -144 l-33 -130 19 -52 c10 -28 38 -85 63 -126 l46 -74 18 24 c10 13 26 52 35 86 30 110 6 230 -71 357 -19 32 -35 60 -35 62 0 1 21 -7 48 -18 56 -25 224 -83 269 -92 17 -4 39 -18 47 -32 9 -13 25 -24 36 -24 11 0 39 -20 63 -44 66 -69 135 -72 125 -5 -4 24 -1 28 21 31 16 2 27 10 29 22 5 24 -8 35 -41 38 -34 3 -34 11 -2 26 14 6 25 18 25 25 0 11 -25 8 -122 -15 -118 -28 -123 -28 -162 -12 -23 9 -90 33 -151 54 -60 21 -135 50 -165 63 l-54 24 69 1 c46 0 90 8 126 21 59 22 177 101 217 143 l22 25 -27 13 c-16 7 -66 14 -113 17 l-85 4 -144 -94 -144 -95 -96 60 c-138 85 -371 268 -371 291 0 3 16 -1 35 -9 20 -8 93 -28 164 -44 123 -29 131 -29 197 -16 l69 14 -100 1 c-138 2 -258 32 -385 96 -56 29 -67 41 -17 21 19 -8 40 -10 52 -5 13 5 15 8 5 9 -28 1 -143 58 -152 74 -5 9 -14 16 -21 16 -7 0 -73 95 -147 210 -74 116 -136 210 -138 210 -2 0 18 -39 44 -87z" transform="translate(0,217) scale(0.1,-0.1)" stroke="none" fill="#4E8677"/>

</g>

<g id="4" transform="translate(812.0,0)scale(1,1)">

<path d="M1495 1163 c-22 -20 -67 -62 -100 -93 -35 -34 -79 -64 -105 -74 l-45 -16 50 7 c28 5 86 6 130 4 172 -9 180 -8 183 15 2 12 -4 29 -13 38 -16 15 -15 18 5 34 44 36 -8 70 -63 41 -21 -12 -21 -12 -4 14 17 27 23 67 10 67 -5 0 -26 -17 -48 -37z" transform="translate(0,217) scale(0.1,-0.1)" stroke="none" fill="#4E8677"/>

<path d="M326 1513 c135 -250 346 -505 541 -652 l72 -55 -44 -48 c-68 -76 -88 -140 -82 -268 5 -111 30 -214 50 -208 7 2 38 53 70 114 57 107 58 111 58 189 0 44 -7 106 -15 138 -9 32 -16 60 -16 62 0 2 42 -23 93 -55 51 -32 123 -73 160 -91 36 -18 69 -39 72 -46 2 -8 -10 -72 -27 -144 l-33 -130 19 -52 c10 -28 38 -85 63 -126 l46 -74 18 24 c10 13 26 52 35 86 30 110 6 230 -71 357 -19 32 -35 60 -35 62 0 1 21 -7 48 -18 56 -25 224 -83 269 -92 17 -4 39 -18 47 -32 9 -13 25 -24 36 -24 11 0 39 -20 63 -44 66 -69 135 -72 125 -5 -4 24 -1 28 21 31 16 2 27 10 29 22 5 24 -8 35 -41 38 -34 3 -34 11 -2 26 14 6 25 18 25 25 0 11 -25 8 -122 -15 -118 -28 -123 -28 -162 -12 -23 9 -90 33 -151 54 -60 21 -135 50 -165 63 l-54 24 69 1 c46 0 90 8 126 21 59 22 177 101 217 143 l22 25 -27 13 c-16 7 -66 14 -113 17 l-85 4 -144 -94 -144 -95 -96 60 c-138 85 -371 268 -371 291 0 3 16 -1 35 -9 20 -8 93 -28 164 -44 123 -29 131 -29 197 -16 l69 14 -100 1 c-138 2 -258 32 -385 96 -56 29 -67 41 -17 21 19 -8 40 -10 52 -5 13 5 15 8 5 9 -28 1 -143 58 -152 74 -5 9 -14 16 -21 16 -7 0 -73 95 -147 210 -74 116 -136 210 -138 210 -2 0 18 -39 44 -87z" transform="translate(0,217) scale(0.1,-0.1)" stroke="none" fill="#4E8677"/>

</g>

</g>
<g id="row1" transform="translate(27,217.0)">
<g id="0" transform="translate(0.0,0)scale(1,1)">

<path d="M1495 1163 c-22 -20 -67 -62 -100 -93 -35 -34 -79 -64 -105 -74 l-45 -16 50 7 c28 5 86 6 130 4 172 -9 180 -8 183 15 2 12 -4 29 -13 38 -16 15 -15 18 5 34 44 36 -8 70 -63 41 -21 -12 -21 -12 -4 14 17 27 23 67 10 67 -5 0 -26 -17 -48 -37z" transform="translate(0,217) scale(0.1,-0.1)" stroke="none" fill="#4E8677"/>

<path d="M326 1513 c135 -250 346 -505 541 -652 l72 -55 -44 -48 c-68 -76 -88 -140 -82 -268 5 -111 30 -214 50 -208 7 2 38 53 70 114 57 107 58 111 58 189 0 44 -7 106 -15 138 -9 32 -16 60 -16 62 0 2 42 -23 93 -55 51 -32 123 -73 160 -91 36 -18 69 -39 72 -46 2 -8 -10 -72 -27 -144 l-33 -130 19 -52 c10 -28 38 -85 63 -126 l46 -74 18 24 c10 13 26 52 35 86 30 110 6 230 -71 357 -19 32 -35 60 -35 62 0 1 21 -7 48 -18 56 -25 224 -83 269 -92 17 -4 39 -18 47 -32 9 -13 25 -24 36 -24 11 0 39 -20 63 -44 66 -69 135 -72 125 -5 -4 24 -1 28 21 31 16 2 27 10 29 22 5 24 -8 35 -41 38 -34 3 -34 11 -2 26 14 6 25 18 25 25 0 11 -25 8 -122 -15 -118 -28 -123 -28 -162 -12 -23 9 -90 33 -151 54 -60 21 -135 50 -165 63 l-54 24 69 1 c46 0 90 8 126 21 59 22 177 101 217 143 l22 25 -27 13 c-16 7 -66 14 -113 17 l-85 4 -144 -94 -144 -95 -96 60 c-138 85 -371 268 -371 291 0 3 16 -1 35 -9 20 -8 93 -28 164 -44 123 -29 131 -29 197 -16 l69 14 -100 1 c-138 2 -258 32 -385 96 -56 29 -67 41 -17 21 19 -8 40 -10 52 -5 13 5 15 8 5 9 -28 1 -143 58 -152 74 -5 9 -14 16 -21 16 -7 0 -73 95 -147 210 -74 116 -136 210 -138 210 -2 0 18 -39 44 -87z" transform="translate(0,217) scale(0.1,-0.1)" stroke="none" fill="#4E8677"/>

</g>

<g id="1" transform="translate(203.0,0)scale(1,1)">

<path d="M1495 1163 c-22 -20 -67 -62 -100 -93 -35 -34 -79 -64 -105 -74 l-45 -16 50 7 c28 5 86 6 130 4 172 -9 180 -8 183 15 2 12 -4 29 -13 38 -16 15 -15 18 5 34 44 36 -8 70 -63 41 -21 -12 -21 -12 -4 14 17 27 23 67 10 67 -5 0 -26 -17 -48 -37z" transform="translate(0,217) scale(0.1,-0.1)" stroke="none" fill="#4E8677"/>

<path d="M326 1513 c135 -250 346 -505 541 -652 l72 -55 -44 -48 c-68 -76 -88 -140 -82 -268 5 -111 30 -214 50 -208 7 2 38 53 70 114 57 107 58 111 58 189 0 44 -7 106 -15 138 -9 32 -16 60 -16 62 0 2 42 -23 93 -55 51 -32 123 -73 160 -91 36 -18 69 -39 72 -46 2 -8 -10 -72 -27 -144 l-33 -130 19 -52 c10 -28 38 -85 63 -126 l46 -74 18 24 c10 13 26 52 35 86 30 110 6 230 -71 357 -19 32 -35 60 -35 62 0 1 21 -7 48 -18 56 -25 224 -83 269 -92 17 -4 39 -18 47 -32 9 -13 25 -24 36 -24 11 0 39 -20 63 -44 66 -69 135 -72 125 -5 -4 24 -1 28 21 31 16 2 27 10 29 22 5 24 -8 35 -41 38 -34 3 -34 11 -2 26 14 6 25 18 25 25 0 11 -25 8 -122 -15 -118 -28 -123 -28 -162 -12 -23 9 -90 33 -151 54 -60 21 -135 50 -165 63 l-54 24 69 1 c46 0 90 8 126 21 59 22 177 101 217 143 l22 25 -27 13 c-16 7 -66 14 -113 17 l-85 4 -144 -94 -144 -95 -96 60 c-138 85 -371 268 -371 291 0 3 16 -1 35 -9 20 -8 93 -28 164 -44 123 -29 131 -29 197 -16 l69 14 -100 1 c-138 2 -258 32 -385 96 -56 29 -67 41 -17 21 19 -8 40 -10 52 -5 13 5 15 8 5 9 -28 1 -143 58 -152 74 -5 9 -14 16 -21 16 -7 0 -73 95 -147 210 -74 116 -136 210 -138 210 -2 0 18 -39 44 -87z" transform="translate(0,217) scale(0.1,-0.1)" stroke="none" fill="#4E8677"/>

</g>

<g id="2" transform="translate(406.0,0)scale(1,1)">

<path d="M1495 1163 c-22 -20 -67 -62 -100 -93 -35 -34 -79 -64 -105 -74 l-45 -16 50 7 c28 5 86 6 130 4 172 -9 180 -8 183 15 2 12 -4 29 -13 38 -16 15 -15 18 5 34 44 36 -8 70 -63 41 -21 -12 -21 -12 -4 14 17 27 23 67 10 67 -5 0 -26 -17 -48 -37z" transform="translate(0,217) scale(0.1,-0.1)" stroke="none" fill="#4E8677"/>

<path d="M326 1513 c135 -250 346 -505 541 -652 l72 -55 -44 -48 c-68 -76 -88 -140 -82 -268 5 -111 30 -214 50 -208 7 2 38 53 70 114 57 107 58 111 58 189 0 44 -7 106 -15 138 -9 32 -16 60 -16 62 0 2 42 -23 93 -55 51 -32 123 -73 160 -91 36 -18 69 -39 72 -46 2 -8 -10 -72 -27 -144 l-33 -130 19 -52 c10 -28 38 -85 63 -126 l46 -74 18 24 c10 13 26 52 35 86 30 110 6 230 -71 357 -19 32 -35 60 -35 62 0 1 21 -7 48 -18 56 -25 224 -83 269 -92 17 -4 39 -18 47 -32 9 -13 25 -24 36 -24 11 0 39 -20 63 -44 66 -69 135 -72 125 -5 -4 24 -1 28 21 31 16 2 27 10 29 22 5 24 -8 35 -41 38 -34 3 -34 11 -2 26 14 6 25 18 25 25 0 11 -25 8 -122 -15 -118 -28 -123 -28 -162 -12 -23 9 -90 33 -151 54 -60 21 -135 50 -165 63 l-54 24 69 1 c46 0 90 8 126 21 59 22 177 101 217 143 l22 25 -27 13 c-16 7 -66 14 -113 17 l-85 4 -144 -94 -144 -95 -96 60 c-138 85 -371 268 -371 291 0 3 16 -1 35 -9 20 -8 93 -28 164 -44 123 -29 131 -29 197 -16 l69 14 -100 1 c-138 2 -258 32 -385 96 -56 29 -67 41 -17 21 19 -8 40 -10 52 -5 13 5 15 8 5 9 -28 1 -143 58 -152 74 -5 9 -14 16 -21 16 -7 0 -73 95 -147 210 -74 116 -136 210 -138 210 -2 0 18 -39 44 -87z" transform="translate(0,217) scale(0.1,-0.1)" stroke="none" fill="#4E8677"/>

</g>

<g id="3" transform="translate(609.0,0)scale(1,1)">

<path d="M1495 1163 c-22 -20 -67 -62 -100 -93 -35 -34 -79 -64 -105 -74 l-45 -16 50 7 c28 5 86 6 130 4 172 -9 180 -8 183 15 2 12 -4 29 -13 38 -16 15 -15 18 5 34 44 36 -8 70 -63 41 -21 -12 -21 -12 -4 14 17 27 23 67 10 67 -5 0 -26 -17 -48 -37z" transform="translate(0,217) scale(0.1,-0.1)" stroke="none" fill="#4E8677"/>

<path d="M326 1513 c135 -250 346 -505 541 -652 l72 -55 -44 -48 c-68 -76 -88 -140 -82 -268 5 -111 30 -214 50 -208 7 2 38 53 70 114 57 107 58 111 58 189 0 44 -7 106 -15 138 -9 32 -16 60 -16 62 0 2 42 -23 93 -55 51 -32 123 -73 160 -91 36 -18 69 -39 72 -46 2 -8 -10 -72 -27 -144 l-33 -130 19 -52 c10 -28 38 -85 63 -126 l46 -74 18 24 c10 13 26 52 35 86 30 110 6 230 -71 357 -19 32 -35 60 -35 62 0 1 21 -7 48 -18 56 -25 224 -83 269 -92 17 -4 39 -18 47 -32 9 -13 25 -24 36 -24 11 0 39 -20 63 -44 66 -69 135 -72 125 -5 -4 24 -1 28 21 31 16 2 27 10 29 22 5 24 -8 35 -41 38 -34 3 -34 11 -2 26 14 6 25 18 25 25 0 11 -25 8 -122 -15 -118 -28 -123 -28 -162 -12 -23 9 -90 33 -151 54 -60 21 -135 50 -165 63 l-54 24 69 1 c46 0 90 8 126 21 59 22 177 101 217 143 l22 25 -27 13 c-16 7 -66 14 -113 17 l-85 4 -144 -94 -144 -95 -96 60 c-138 85 -371 268 -371 291 0 3 16 -1 35 -9 20 -8 93 -28 164 -44 123 -29 131 -29 197 -16 l69 14 -100 1 c-138 2 -258 32 -385 96 -56 29 -67 41 -17 21 19 -8 40 -10 52 -5 13 5 15 8 5 9 -28 1 -143 58 -152 74 -5 9 -14 16 -21 16 -7 0 -73 95 -147 210 -74 116 -136 210 -138 210 -2 0 18 -39 44 -87z" transform="translate(0,217) scale(0.1,-0.1)" stroke="none" fill="#4E8677"/>

</g>

<g id="4" transform="translate(812.0,0)scale(1,1)">

<path d="M1495 1163 c-22 -20 -67 -62 -100 -93 -35 -34 -79 -64 -105 -74 l-45 -16 50 7 c28 5 86 6 130 4 172 -9 180 -8 183 15 2 12 -4 29 -13 38 -16 15 -15 18 5 34 44 36 -8 70 -63 41 -21 -12 -21 -12 -4 14 17 27 23 67 10 67 -5 0 -26 -17 -48 -37z" transform="translate(0,217) scale(0.1,-0.1)" stroke="none" fill="#4E8677"/>

<path d="M326 1513 c135 -250 346 -505 541 -652 l72 -55 -44 -48 c-68 -76 -88 -140 -82 -268 5 -111 30 -214 50 -208 7 2 38 53 70 114 57 107 58 111 58 189 0 44 -7 106 -15 138 -9 32 -16 60 -16 62 0 2 42 -23 93 -55 51 -32 123 -73 160 -91 36 -18 69 -39 72 -46 2 -8 -10 -72 -27 -144 l-33 -130 19 -52 c10 -28 38 -85 63 -126 l46 -74 18 24 c10 13 26 52 35 86 30 110 6 230 -71 357 -19 32 -35 60 -35 62 0 1 21 -7 48 -18 56 -25 224 -83 269 -92 17 -4 39 -18 47 -32 9 -13 25 -24 36 -24 11 0 39 -20 63 -44 66 -69 135 -72 125 -5 -4 24 -1 28 21 31 16 2 27 10 29 22 5 24 -8 35 -41 38 -34 3 -34 11 -2 26 14 6 25 18 25 25 0 11 -25 8 -122 -15 -118 -28 -123 -28 -162 -12 -23 9 -90 33 -151 54 -60 21 -135 50 -165 63 l-54 24 69 1 c46 0 90 8 126 21 59 22 177 101 217 143 l22 25 -27 13 c-16 7 -66 14 -113 17 l-85 4 -144 -94 -144 -95 -96 60 c-138 85 -371 268 -371 291 0 3 16 -1 35 -9 20 -8 93 -28 164 -44 123 -29 131 -29 197 -16 l69 14 -100 1 c-138 2 -258 32 -385 96 -56 29 -67 41 -17 21 19 -8 40 -10 52 -5 13 5 15 8 5 9 -28 1 -143 58 -152 74 -5 9 -14 16 -21 16 -7 0 -73 95 -147 210 -74 116 -136 210 -138 210 -2 0 18 -39 44 -87z" transform="translate(0,217) scale(0.1,-0.1)" stroke="none" fill="#4E8677"/>

</g>

</g>
<g id="row2" transform="translate(27,434.0)">
<g id="0" transform="translate(0.0,0)scale(1,1)">

<path d="M1495 1163 c-22 -20 -67 -62 -100 -93 -35 -34 -79 -64 -105 -74 l-45 -16 50 7 c28 5 86 6 130 4 172 -9 180 -8 183 15 2 12 -4 29 -13 38 -16 15 -15 18 5 34 44 36 -8 70 -63 41 -21 -12 -21 -12 -4 14 17 27 23 67 10 67 -5 0 -26 -17 -48 -37z" transform="translate(0,217) scale(0.1,-0.1)" stroke="none" fill="#4E8677"/>

<path d="M326 1513 c135 -250 346 -505 541 -652 l72 -55 -44 -48 c-68 -76 -88 -140 -82 -268 5 -111 30 -214 50 -208 7 2 38 53 70 114 57 107 58 111 58 189 0 44 -7 106 -15 138 -9 32 -16 60 -16 62 0 2 42 -23 93 -55 51 -32 123 -73 160 -91 36 -18 69 -39 72 -46 2 -8 -10 -72 -27 -144 l-33 -130 19 -52 c10 -28 38 -85 63 -126 l46 -74 18 24 c10 13 26 52 35 86 30 110 6 230 -71 357 -19 32 -35 60 -35 62 0 1 21 -7 48 -18 56 -25 224 -83 269 -92 17 -4 39 -18 47 -32 9 -13 25 -24 36 -24 11 0 39 -20 63 -44 66 -69 135 -72 125 -5 -4 24 -1 28 21 31 16 2 27 10 29 22 5 24 -8 35 -41 38 -34 3 -34 11 -2 26 14 6 25 18 25 25 0 11 -25 8 -122 -15 -118 -28 -123 -28 -162 -12 -23 9 -90 33 -151 54 -60 21 -135 50 -165 63 l-54 24 69 1 c46 0 90 8 126 21 59 22 177 101 217 143 l22 25 -27 13 c-16 7 -66 14 -113 17 l-85 4 -144 -94 -144 -95 -96 60 c-138 85 -371 268 -371 291 0 3 16 -1 35 -9 20 -8 93 -28 164 -44 123 -29 131 -29 197 -16 l69 14 -100 1 c-138 2 -258 32 -385 96 -56 29 -67 41 -17 21 19 -8 40 -10 52 -5 13 5 15 8 5 9 -28 1 -143 58 -152 74 -5 9 -14 16 -21 16 -7 0 -73 95 -147 210 -74 116 -136 210 -138 210 -2 0 18 -39 44 -87z" transform="translate(0,217) scale(0.1,-0.1)" stroke="none" fill="#4E8677"/>

</g>

<g id="1" transform="translate(203.0,0)scale(1,1)">

<path d="M1495 1163 c-22 -20 -67 -62 -100 -93 -35 -34 -79 -64 -105 -74 l-45 -16 50 7 c28 5 86 6 130 4 172 -9 180 -8 183 15 2 12 -4 29 -13 38 -16 15 -15 18 5 34 44 36 -8 70 -63 41 -21 -12 -21 -12 -4 14 17 27 23 67 10 67 -5 0 -26 -17 -48 -37z" transform="translate(0,217) scale(0.1,-0.1)" stroke="none" fill="#4E8677"/>

<path d="M326 1513 c135 -250 346 -505 541 -652 l72 -55 -44 -48 c-68 -76 -88 -140 -82 -268 5 -111 30 -214 50 -208 7 2 38 53 70 114 57 107 58 111 58 189 0 44 -7 106 -15 138 -9 32 -16 60 -16 62 0 2 42 -23 93 -55 51 -32 123 -73 160 -91 36 -18 69 -39 72 -46 2 -8 -10 -72 -27 -144 l-33 -130 19 -52 c10 -28 38 -85 63 -126 l46 -74 18 24 c10 13 26 52 35 86 30 110 6 230 -71 357 -19 32 -35 60 -35 62 0 1 21 -7 48 -18 56 -25 224 -83 269 -92 17 -4 39 -18 47 -32 9 -13 25 -24 36 -24 11 0 39 -20 63 -44 66 -69 135 -72 125 -5 -4 24 -1 28 21 31 16 2 27 10 29 22 5 24 -8 35 -41 38 -34 3 -34 11 -2 26 14 6 25 18 25 25 0 11 -25 8 -122 -15 -118 -28 -123 -28 -162 -12 -23 9 -90 33 -151 54 -60 21 -135 50 -165 63 l-54 24 69 1 c46 0 90 8 126 21 59 22 177 101 217 143 l22 25 -27 13 c-16 7 -66 14 -113 17 l-85 4 -144 -94 -144 -95 -96 60 c-138 85 -371 268 -371 291 0 3 16 -1 35 -9 20 -8 93 -28 164 -44 123 -29 131 -29 197 -16 l69 14 -100 1 c-138 2 -258 32 -385 96 -56 29 -67 41 -17 21 19 -8 40 -10 52 -5 13 5 15 8 5 9 -28 1 -143 58 -152 74 -5 9 -14 16 -21 16 -7 0 -73 95 -147 210 -74 116 -136 210 -138 210 -2 0 18 -39 44 -87z" transform="translate(0,217) scale(0.1,-0.1)" stroke="none" fill="#4E8677"/>

</g>

<g id="2" transform="translate(406.0,0)scale(1,1)">

<path d="M1495 1163 c-22 -20 -67 -62 -100 -93 -35 -34 -79 -64 -105 -74 l-45 -16 50 7 c28 5 86 6 130 4 172 -9 180 -8 183 15 2 12 -4 29 -13 38 -16 15 -15 18 5 34 44 36 -8 70 -63 41 -21 -12 -21 -12 -4 14 17 27 23 67 10 67 -5 0 -26 -17 -48 -37z" transform="translate(0,217) scale(0.1,-0.1)" stroke="none" fill="#4E8677"/>

<path d="M326 1513 c135 -250 346 -505 541 -652 l72 -55 -44 -48 c-68 -76 -88 -140 -82 -268 5 -111 30 -214 50 -208 7 2 38 53 70 114 57 107 58 111 58 189 0 44 -7 106 -15 138 -9 32 -16 60 -16 62 0 2 42 -23 93 -55 51 -32 123 -73 160 -91 36 -18 69 -39 72 -46 2 -8 -10 -72 -27 -144 l-33 -130 19 -52 c10 -28 38 -85 63 -126 l46 -74 18 24 c10 13 26 52 35 86 30 110 6 230 -71 357 -19 32 -35 60 -35 62 0 1 21 -7 48 -18 56 -25 224 -83 269 -92 17 -4 39 -18 47 -32 9 -13 25 -24 36 -24 11 0 39 -20 63 -44 66 -69 135 -72 125 -5 -4 24 -1 28 21 31 16 2 27 10 29 22 5 24 -8 35 -41 38 -34 3 -34 11 -2 26 14 6 25 18 25 25 0 11 -25 8 -122 -15 -118 -28 -123 -28 -162 -12 -23 9 -90 33 -151 54 -60 21 -135 50 -165 63 l-54 24 69 1 c46 0 90 8 126 21 59 22 177 101 217 143 l22 25 -27 13 c-16 7 -66 14 -113 17 l-85 4 -144 -94 -144 -95 -96 60 c-138 85 -371 268 -371 291 0 3 16 -1 35 -9 20 -8 93 -28 164 -44 123 -29 131 -29 197 -16 l69 14 -100 1 c-138 2 -258 32 -385 96 -56 29 -67 41 -17 21 19 -8 40 -10 52 -5 13 5 15 8 5 9 -28 1 -143 58 -152 74 -5 9 -14 16 -21 16 -7 0 -73 95 -147 210 -74 116 -136 210 -138 210 -2 0 18 -39 44 -87z" transform="translate(0,217) scale(0.1,-0.1)" stroke="none" fill="#4E8677"/>

</g>

<g id="3" transform="translate(609.0,0)scale(1,1)">

<path d="M1495 1163 c-22 -20 -67 -62 -100 -93 -35 -34 -79 -64 -105 -74 l-45 -16 50 7 c28 5 86 6 130 4 172 -9 180 -8 183 15 2 12 -4 29 -13 38 -16 15 -15 18 5 34 44 36 -8 70 -63 41 -21 -12 -21 -12 -4 14 17 27 23 67 10 67 -5 0 -26 -17 -48 -37z" transform="translate(0,217) scale(0.1,-0.1)" stroke="none" fill="#4E8677"/>

<path d="M326 1513 c135 -250 346 -505 541 -652 l72 -55 -44 -48 c-68 -76 -88 -140 -82 -268 5 -111 30 -214 50 -208 7 2 38 53 70 114 57 107 58 111 58 189 0 44 -7 106 -15 138 -9 32 -16 60 -16 62 0 2 42 -23 93 -55 51 -32 123 -73 160 -91 36 -18 69 -39 72 -46 2 -8 -10 -72 -27 -144 l-33 -130 19 -52 c10 -28 38 -85 63 -126 l46 -74 18 24 c10 13 26 52 35 86 30 110 6 230 -71 357 -19 32 -35 60 -35 62 0 1 21 -7 48 -18 56 -25 224 -83 269 -92 17 -4 39 -18 47 -32 9 -13 25 -24 36 -24 11 0 39 -20 63 -44 66 -69 135 -72 125 -5 -4 24 -1 28 21 31 16 2 27 10 29 22 5 24 -8 35 -41 38 -34 3 -34 11 -2 26 14 6 25 18 25 25 0 11 -25 8 -122 -15 -118 -28 -123 -28 -162 -12 -23 9 -90 33 -151 54 -60 21 -135 50 -165 63 l-54 24 69 1 c46 0 90 8 126 21 59 22 177 101 217 143 l22 25 -27 13 c-16 7 -66 14 -113 17 l-85 4 -144 -94 -144 -95 -96 60 c-138 85 -371 268 -371 291 0 3 16 -1 35 -9 20 -8 93 -28 164 -44 123 -29 131 -29 197 -16 l69 14 -100 1 c-138 2 -258 32 -385 96 -56 29 -67 41 -17 21 19 -8 40 -10 52 -5 13 5 15 8 5 9 -28 1 -143 58 -152 74 -5 9 -14 16 -21 16 -7 0 -73 95 -147 210 -74 116 -136 210 -138 210 -2 0 18 -39 44 -87z" transform="translate(0,217) scale(0.1,-0.1)" stroke="none" fill="#4E8677"/>

</g>

<g id="4" transform="translate(812.0,0)scale(1,1)">

<path d="M1495 1163 c-22 -20 -67 -62 -100 -93 -35 -34 -79 -64 -105 -74 l-45 -16 50 7 c28 5 86 6 130 4 172 -9 180 -8 183 15 2 12 -4 29 -13 38 -16 15 -15 18 5 34 44 36 -8 70 -63 41 -21 -12 -21 -12 -4 14 17 27 23 67 10 67 -5 0 -26 -17 -48 -37z" transform="translate(0,217) scale(0.1,-0.1)" stroke="none" fill="#4E8677"/>

<path d="M326 1513 c135 -250 346 -505 541 -652 l72 -55 -44 -48 c-68 -76 -88 -140 -82 -268 5 -111 30 -214 50 -208 7 2 38 53 70 114 57 107 58 111 58 189 0 44 -7 106 -15 138 -9 32 -16 60 -16 62 0 2 42 -23 93 -55 51 -32 123 -73 160 -91 36 -18 69 -39 72 -46 2 -8 -10 -72 -27 -144 l-33 -130 19 -52 c10 -28 38 -85 63 -126 l46 -74 18 24 c10 13 26 52 35 86 30 110 6 230 -71 357 -19 32 -35 60 -35 62 0 1 21 -7 48 -18 56 -25 224 -83 269 -92 17 -4 39 -18 47 -32 9 -13 25 -24 36 -24 11 0 39 -20 63 -44 66 -69 135 -72 125 -5 -4 24 -1 28 21 31 16 2 27 10 29 22 5 24 -8 35 -41 38 -34 3 -34 11 -2 26 14 6 25 18 25 25 0 11 -25 8 -122 -15 -118 -28 -123 -28 -162 -12 -23 9 -90 33 -151 54 -60 21 -135 50 -165 63 l-54 24 69 1 c46 0 90 8 126 21 59 22 177 101 217 143 l22 25 -27 13 c-16 7 -66 14 -113 17 l-85 4 -144 -94 -144 -95 -96 60 c-138 85 -371 268 -371 291 0 3 16 -1 35 -9 20 -8 93 -28 164 -44 123 -29 131 -29 197 -16 l69 14 -100 1 c-138 2 -258 32 -385 96 -56 29 -67 41 -17 21 19 -8 40 -10 52 -5 13 5 15 8 5 9 -28 1 -143 58 -152 74 -5 9 -14 16 -21 16 -7 0 -73 95 -147 210 -74 116 -136 210 -138 210 -2 0 18 -39 44 -87z" transform="translate(0,217) scale(0.1,-0.1)" stroke="none" fill="#4E8677"/>

</g>

</g>
<g id="row3" transform="translate(27,651.0)">
<g id="0" transform="translate(0.0,0)scale(1,1)">

<path d="M1495 1163 c-22 -20 -67 -62 -100 -93 -35 -34 -79 -64 -105 -74 l-45 -16 50 7 c28 5 86 6 130 4 172 -9 180 -8 183 15 2 12 -4 29 -13 38 -16 15 -15 18 5 34 44 36 -8 70 -63 41 -21 -12 -21 -12 -4 14 17 27 23 67 10 67 -5 0 -26 -17 -48 -37z" transform="translate(0,217) scale(0.1,-0.1)" stroke="none" fill="#4E8677"/>

<path d="M326 1513 c135 -250 346 -505 541 -652 l72 -55 -44 -48 c-68 -76 -88 -140 -82 -268 5 -111 30 -214 50 -208 7 2 38 53 70 114 57 107 58 111 58 189 0 44 -7 106 -15 138 -9 32 -16 60 -16 62 0 2 42 -23 93 -55 51 -32 123 -73 160 -91 36 -18 69 -39 72 -46 2 -8 -10 -72 -27 -144 l-33 -130 19 -52 c10 -28 38 -85 63 -126 l46 -74 18 24 c10 13 26 52 35 86 30 110 6 230 -71 357 -19 32 -35 60 -35 62 0 1 21 -7 48 -18 56 -25 224 -83 269 -92 17 -4 39 -18 47 -32 9 -13 25 -24 36 -24 11 0 39 -20 63 -44 66 -69 135 -72 125 -5 -4 24 -1 28 21 31 16 2 27 10 29 22 5 24 -8 35 -41 38 -34 3 -34 11 -2 26 14 6 25 18 25 25 0 11 -25 8 -122 -15 -118 -28 -123 -28 -162 -12 -23 9 -90 33 -151 54 -60 21 -135 50 -165 63 l-54 24 69 1 c46 0 90 8 126 21 59 22 177 101 217 143 l22 25 -27 13 c-16 7 -66 14 -113 17 l-85 4 -144 -94 -144 -95 -96 60 c-138 85 -371 268 -371 291 0 3 16 -1 35 -9 20 -8 93 -28 164 -44 123 -29 131 -29 197 -16 l69 14 -100 1 c-138 2 -258 32 -385 96 -56 29 -67 41 -17 21 19 -8 40 -10 52 -5 13 5 15 8 5 9 -28 1 -143 58 -152 74 -5 9 -14 16 -21 16 -7 0 -73 95 -147 210 -74 116 -136 210 -138 210 -2 0 18 -39 44 -87z" transform="translate(0,217) scale(0.1,-0.1)" stroke="none" fill="#4E8677"/>

</g>

<g id="1" transform="translate(203.0,0)scale(1,1)">

<path d="M1495 1163 c-22 -20 -67 -62 -100 -93 -35 -34 -79 -64 -105 -74 l-45 -16 50 7 c28 5 86 6 130 4 172 -9 180 -8 183 15 2 12 -4 29 -13 38 -16 15 -15 18 5 34 44 36 -8 70 -63 41 -21 -12 -21 -12 -4 14 17 27 23 67 10 67 -5 0 -26 -17 -48 -37z" transform="translate(0,217) scale(0.1,-0.1)" stroke="none" fill="#4E8677"/>

<path d="M326 1513 c135 -250 346 -505 541 -652 l72 -55 -44 -48 c-68 -76 -88 -140 -82 -268 5 -111 30 -214 50 -208 7 2 38 53 70 114 57 107 58 111 58 189 0 44 -7 106 -15 138 -9 32 -16 60 -16 62 0 2 42 -23 93 -55 51 -32 123 -73 160 -91 36 -18 69 -39 72 -46 2 -8 -10 -72 -27 -144 l-33 -130 19 -52 c10 -28 38 -85 63 -126 l46 -74 18 24 c10 13 26 52 35 86 30 110 6 230 -71 357 -19 32 -35 60 -35 62 0 1 21 -7 48 -18 56 -25 224 -83 269 -92 17 -4 39 -18 47 -32 9 -13 25 -24 36 -24 11 0 39 -20 63 -44 66 -69 135 -72 125 -5 -4 24 -1 28 21 31 16 2 27 10 29 22 5 24 -8 35 -41 38 -34 3 -34 11 -2 26 14 6 25 18 25 25 0 11 -25 8 -122 -15 -118 -28 -123 -28 -162 -12 -23 9 -90 33 -151 54 -60 21 -135 50 -165 63 l-54 24 69 1 c46 0 90 8 126 21 59 22 177 101 217 143 l22 25 -27 13 c-16 7 -66 14 -113 17 l-85 4 -144 -94 -144 -95 -96 60 c-138 85 -371 268 -371 291 0 3 16 -1 35 -9 20 -8 93 -28 164 -44 123 -29 131 -29 197 -16 l69 14 -100 1 c-138 2 -258 32 -385 96 -56 29 -67 41 -17 21 19 -8 40 -10 52 -5 13 5 15 8 5 9 -28 1 -143 58 -152 74 -5 9 -14 16 -21 16 -7 0 -73 95 -147 210 -74 116 -136 210 -138 210 -2 0 18 -39 44 -87z" transform="translate(0,217) scale(0.1,-0.1)" stroke="none" fill="#4E8677"/>

</g>

<g id="2" transform="translate(406.0,0)scale(1,1)">

<path d="M1495 1163 c-22 -20 -67 -62 -100 -93 -35 -34 -79 -64 -105 -74 l-45 -16 50 7 c28 5 86 6 130 4 172 -9 180 -8 183 15 2 12 -4 29 -13 38 -16 15 -15 18 5 34 44 36 -8 70 -63 41 -21 -12 -21 -12 -4 14 17 27 23 67 10 67 -5 0 -26 -17 -48 -37z" transform="translate(0,217) scale(0.1,-0.1)" stroke="none" fill="#4E8677"/>

<path d="M326 1513 c135 -250 346 -505 541 -652 l72 -55 -44 -48 c-68 -76 -88 -140 -82 -268 5 -111 30 -214 50 -208 7 2 38 53 70 114 57 107 58 111 58 189 0 44 -7 106 -15 138 -9 32 -16 60 -16 62 0 2 42 -23 93 -55 51 -32 123 -73 160 -91 36 -18 69 -39 72 -46 2 -8 -10 -72 -27 -144 l-33 -130 19 -52 c10 -28 38 -85 63 -126 l46 -74 18 24 c10 13 26 52 35 86 30 110 6 230 -71 357 -19 32 -35 60 -35 62 0 1 21 -7 48 -18 56 -25 224 -83 269 -92 17 -4 39 -18 47 -32 9 -13 25 -24 36 -24 11 0 39 -20 63 -44 66 -69 135 -72 125 -5 -4 24 -1 28 21 31 16 2 27 10 29 22 5 24 -8 35 -41 38 -34 3 -34 11 -2 26 14 6 25 18 25 25 0 11 -25 8 -122 -15 -118 -28 -123 -28 -162 -12 -23 9 -90 33 -151 54 -60 21 -135 50 -165 63 l-54 24 69 1 c46 0 90 8 126 21 59 22 177 101 217 143 l22 25 -27 13 c-16 7 -66 14 -113 17 l-85 4 -144 -94 -144 -95 -96 60 c-138 85 -371 268 -371 291 0 3 16 -1 35 -9 20 -8 93 -28 164 -44 123 -29 131 -29 197 -16 l69 14 -100 1 c-138 2 -258 32 -385 96 -56 29 -67 41 -17 21 19 -8 40 -10 52 -5 13 5 15 8 5 9 -28 1 -143 58 -152 74 -5 9 -14 16 -21 16 -7 0 -73 95 -147 210 -74 116 -136 210 -138 210 -2 0 18 -39 44 -87z" transform="translate(0,217) scale(0.1,-0.1)" stroke="none" fill="#4E8677"/>

</g>

<g id="3" transform="translate(609.0,0)scale(1,1)">

<path d="M1495 1163 c-22 -20 -67 -62 -100 -93 -35 -34 -79 -64 -105 -74 l-45 -16 50 7 c28 5 86 6 130 4 172 -9 180 -8 183 15 2 12 -4 29 -13 38 -16 15 -15 18 5 34 44 36 -8 70 -63 41 -21 -12 -21 -12 -4 14 17 27 23 67 10 67 -5 0 -26 -17 -48 -37z" transform="translate(0,217) scale(0.1,-0.1)" stroke="none" fill="#4E8677"/>

<path d="M326 1513 c135 -250 346 -505 541 -652 l72 -55 -44 -48 c-68 -76 -88 -140 -82 -268 5 -111 30 -214 50 -208 7 2 38 53 70 114 57 107 58 111 58 189 0 44 -7 106 -15 138 -9 32 -16 60 -16 62 0 2 42 -23 93 -55 51 -32 123 -73 160 -91 36 -18 69 -39 72 -46 2 -8 -10 -72 -27 -144 l-33 -130 19 -52 c10 -28 38 -85 63 -126 l46 -74 18 24 c10 13 26 52 35 86 30 110 6 230 -71 357 -19 32 -35 60 -35 62 0 1 21 -7 48 -18 56 -25 224 -83 269 -92 17 -4 39 -18 47 -32 9 -13 25 -24 36 -24 11 0 39 -20 63 -44 66 -69 135 -72 125 -5 -4 24 -1 28 21 31 16 2 27 10 29 22 5 24 -8 35 -41 38 -34 3 -34 11 -2 26 14 6 25 18 25 25 0 11 -25 8 -122 -15 -118 -28 -123 -28 -162 -12 -23 9 -90 33 -151 54 -60 21 -135 50 -165 63 l-54 24 69 1 c46 0 90 8 126 21 59 22 177 101 217 143 l22 25 -27 13 c-16 7 -66 14 -113 17 l-85 4 -144 -94 -144 -95 -96 60 c-138 85 -371 268 -371 291 0 3 16 -1 35 -9 20 -8 93 -28 164 -44 123 -29 131 -29 197 -16 l69 14 -100 1 c-138 2 -258 32 -385 96 -56 29 -67 41 -17 21 19 -8 40 -10 52 -5 13 5 15 8 5 9 -28 1 -143 58 -152 74 -5 9 -14 16 -21 16 -7 0 -73 95 -147 210 -74 116 -136 210 -138 210 -2 0 18 -39 44 -87z" transform="translate(0,217) scale(0.1,-0.1)" stroke="none" fill="#4E8677"/>

</g>

<g id="4" transform="translate(812.0,0)scale(1,1)">

<path d="M1495 1163 c-22 -20 -67 -62 -100 -93 -35 -34 -79 -64 -105 -74 l-45 -16 50 7 c28 5 86 6 130 4 172 -9 180 -8 183 15 2 12 -4 29 -13 38 -16 15 -15 18 5 34 44 36 -8 70 -63 41 -21 -12 -21 -12 -4 14 17 27 23 67 10 67 -5 0 -26 -17 -48 -37z" transform="translate(0,217) scale(0.1,-0.1)" stroke="none" fill="#4E8677"/>

<path d="M326 1513 c135 -250 346 -505 541 -652 l72 -55 -44 -48 c-68 -76 -88 -140 -82 -268 5 -111 30 -214 50 -208 7 2 38 53 70 114 57 107 58 111 58 189 0 44 -7 106 -15 138 -9 32 -16 60 -16 62 0 2 42 -23 93 -55 51 -32 123 -73 160 -91 36 -18 69 -39 72 -46 2 -8 -10 -72 -27 -144 l-33 -130 19 -52 c10 -28 38 -85 63 -126 l46 -74 18 24 c10 13 26 52 35 86 30 110 6 230 -71 357 -19 32 -35 60 -35 62 0 1 21 -7 48 -18 56 -25 224 -83 269 -92 17 -4 39 -18 47 -32 9 -13 25 -24 36 -24 11 0 39 -20 63 -44 66 -69 135 -72 125 -5 -4 24 -1 28 21 31 16 2 27 10 29 22 5 24 -8 35 -41 38 -34 3 -34 11 -2 26 14 6 25 18 25 25 0 11 -25 8 -122 -15 -118 -28 -123 -28 -162 -12 -23 9 -90 33 -151 54 -60 21 -135 50 -165 63 l-54 24 69 1 c46 0 90 8 126 21 59 22 177 101 217 143 l22 25 -27 13 c-16 7 -66 14 -113 17 l-85 4 -144 -94 -144 -95 -96 60 c-138 85 -371 268 -371 291 0 3 16 -1 35 -9 20 -8 93 -28 164 -44 123 -29 131 -29 197 -16 l69 14 -100 1 c-138 2 -258 32 -385 96 -56 29 -67 41 -17 21 19 -8 40 -10 52 -5 13 5 15 8 5 9 -28 1 -143 58 -152 74 -5 9 -14 16 -21 16 -7 0 -73 95 -147 210 -74 116 -136 210 -138 210 -2 0 18 -39 44 -87z" transform="translate(0,217) scale(0.1,-0.1)" stroke="none" fill="#4E8677"/>

</g>

</g>
</svg>