<?xml version="1.0" standalone="no"?>
<!DOCTYPE svg PUBLIC "-//W3C//DTD SVG 20010904//EN"
 "http://www.w3.org/TR/2001/REC-SVG-20010904/DTD/svg10.dtd">
<svg version="1.0" xmlns="http://www.w3.org/2000/svg" 
width="400" height="400" viewBox="0 0 400 400"
preserveAspectRatio = "xMidYMid meet" >
<metadata>
Created by ZoeQu, written in 2022
</metadata>

<g id="row0" transform="translate(0,0.0)">

<g id="0" transform="translate(0,0)scale(1,1)">


<rect x="0" y="0" width="11" height="100" fill="#D0C0B6"/>

<rect x="11" y="0" width="67" height="100" fill="#927D70"/>

<rect x="78" y="0" width="1" height="100" fill="#404045"/>

<rect x="79" y="0" width="1" height="100" fill="#E1A43C"/>

<rect x="80" y="0" width="12" height="100" fill="#C76C19"/>

<rect x="92" y="0" width="1" height="100" fill="#271615"/>

<rect x="93" y="0" width="2" height="100" fill="#AC4B0A"/>

<rect x="95" y="0" width="3" height="100" fill="#722808"/>

<rect x="98" y="0" width="2" height="100" fill="#0D1F3A"/>

</g>


<g id="1" transform="translate(100,0)scale(1,1)">


<rect x="0" y="0" width="11" height="100" fill="#D0C0B6"/>

<rect x="11" y="0" width="67" height="100" fill="#927D70"/>

<rect x="78" y="0" width="1" height="100" fill="#404045"/>

<rect x="79" y="0" width="1" height="100" fill="#E1A43C"/>

<rect x="80" y="0" width="12" height="100" fill="#C76C19"/>

<rect x="92" y="0" width="1" height="100" fill="#271615"/>

<rect x="93" y="0" width="2" height="100" fill="#AC4B0A"/>

<rect x="95" y="0" width="3" height="100" fill="#722808"/>

<rect x="98" y="0" width="2" height="100" fill="#0D1F3A"/>

</g>


<g id="2" transform="translate(200,0)scale(1,1)">


<rect x="0" y="0" width="11" height="100" fill="#D0C0B6"/>

<rect x="11" y="0" width="67" height="100" fill="#927D70"/>

<rect x="78" y="0" width="1" height="100" fill="#404045"/>

<rect x="79" y="0" width="1" height="100" fill="#E1A43C"/>

<rect x="80" y="0" width="12" height="100" fill="#C76C19"/>

<rect x="92" y="0" width="1" height="100" fill="#271615"/>

<rect x="93" y="0" width="2" height="100" fill="#AC4B0A"/>

<rect x="95" y="0" width="3" height="100" fill="#722808"/>

<rect x="98" y="0" width="2" height="100" fill="#0D1F3A"/>

</g>


<g id="3" transform="translate(300,0)scale(1,1)">


<rect x="0" y="0" width="11" height="100" fill="#D0C0B6"/>

<rect x="11" y="0" width="67" height="100" fill="#927D70"/>

<rect x="78" y="0" width="1" height="100" fill="#404045"/>

<rect x="79" y="0" width="1" height="100" fill="#E1A43C"/>

<rect x="80" y="0" width="12" height="100" fill="#C76C19"/>

<rect x="92" y="0" width="1" height="100" fill="#271615"/>

<rect x="93" y="0" width="2" height="100" fill="#AC4B0A"/>

<rect x="95" y="0" width="3" height="100" fill="#722808"/>

<rect x="98" y="0" width="2" height="100" fill="#0D1F3A"/>

</g>


<g id="4" transform="translate(400,0)scale(1,1)">


<rect x="0" y="0" width="11" height="100" fill="#D0C0B6"/>

<rect x="11" y="0" width="67" height="100" fill="#927D70"/>

<rect x="78" y="0" width="1" height="100" fill="#404045"/>

<rect x="79" y="0" width="1" height="100" fill="#E1A43C"/>

<rect x="80" y="0" width="12" height="100" fill="#C76C19"/>

<rect x="92" y="0" width="1" height="100" fill="#271615"/>

<rect x="93" y="0" width="2" height="100" fill="#AC4B0A"/>

<rect x="95" y="0" width="3" height="100" fill="#722808"/>

<rect x="98" y="0" width="2" height="100" fill="#0D1F3A"/>

</g>


</g>

<g id="row1" transform="translate(0,100.0)">

<g id="0" transform="translate(0,0)scale(1,1)">


<rect x="0" y="0" width="11" height="100" fill="#D0C0B6"/>

<rect x="11" y="0" width="67" height="100" fill="#927D70"/>

<rect x="78" y="0" width="1" height="100" fill="#404045"/>

<rect x="79" y="0" width="1" height="100" fill="#E1A43C"/>

<rect x="80" y="0" width="12" height="100" fill="#C76C19"/>

<rect x="92" y="0" width="1" height="100" fill="#271615"/>

<rect x="93" y="0" width="2" height="100" fill="#AC4B0A"/>

<rect x="95" y="0" width="3" height="100" fill="#722808"/>

<rect x="98" y="0" width="2" height="100" fill="#0D1F3A"/>

</g>


<g id="1" transform="translate(100,0)scale(1,1)">


<rect x="0" y="0" width="11" height="100" fill="#D0C0B6"/>

<rect x="11" y="0" width="67" height="100" fill="#927D70"/>

<rect x="78" y="0" width="1" height="100" fill="#404045"/>

<rect x="79" y="0" width="1" height="100" fill="#E1A43C"/>

<rect x="80" y="0" width="12" height="100" fill="#C76C19"/>

<rect x="92" y="0" width="1" height="100" fill="#271615"/>

<rect x="93" y="0" width="2" height="100" fill="#AC4B0A"/>

<rect x="95" y="0" width="3" height="100" fill="#722808"/>

<rect x="98" y="0" width="2" height="100" fill="#0D1F3A"/>

</g>


<g id="2" transform="translate(200,0)scale(1,1)">


<rect x="0" y="0" width="11" height="100" fill="#D0C0B6"/>

<rect x="11" y="0" width="67" height="100" fill="#927D70"/>

<rect x="78" y="0" width="1" height="100" fill="#404045"/>

<rect x="79" y="0" width="1" height="100" fill="#E1A43C"/>

<rect x="80" y="0" width="12" height="100" fill="#C76C19"/>

<rect x="92" y="0" width="1" height="100" fill="#271615"/>

<rect x="93" y="0" width="2" height="100" fill="#AC4B0A"/>

<rect x="95" y="0" width="3" height="100" fill="#722808"/>

<rect x="98" y="0" width="2" height="100" fill="#0D1F3A"/>

</g>


<g id="3" transform="translate(300,0)scale(1,1)">


<rect x="0" y="0" width="11" height="100" fill="#D0C0B6"/>

<rect x="11" y="0" width="67" height="100" fill="#927D70"/>

<rect x="78" y="0" width="1" height="100" fill="#404045"/>

<rect x="79" y="0" width="1" height="100" fill="#E1A43C"/>

<rect x="80" y="0" width="12" height="100" fill="#C76C19"/>

<rect x="92" y="0" width="1" height="100" fill="#271615"/>

<rect x="93" y="0" width="2" height="100" fill="#AC4B0A"/>

<rect x="95" y="0" width="3" height="100" fill="#722808"/>

<rect x="98" y="0" width="2" height="100" fill="#0D1F3A"/>

</g>


<g id="4" transform="translate(400,0)scale(1,1)">


<rect x="0" y="0" width="11" height="100" fill="#D0C0B6"/>

<rect x="11" y="0" width="67" height="100" fill="#927D70"/>

<rect x="78" y="0" width="1" height="100" fill="#404045"/>

<rect x="79" y="0" width="1" height="100" fill="#E1A43C"/>

<rect x="80" y="0" width="12" height="100" fill="#C76C19"/>

<rect x="92" y="0" width="1" height="100" fill="#271615"/>

<rect x="93" y="0" width="2" height="100" fill="#AC4B0A"/>

<rect x="95" y="0" width="3" height="100" fill="#722808"/>

<rect x="98" y="0" width="2" height="100" fill="#0D1F3A"/>

</g>


</g>

<g id="row2" transform="translate(0,200.0)">

<g id="0" transform="translate(0,0)scale(1,1)">


<rect x="0" y="0" width="11" height="100" fill="#D0C0B6"/>

<rect x="11" y="0" width="67" height="100" fill="#927D70"/>

<rect x="78" y="0" width="1" height="100" fill="#404045"/>

<rect x="79" y="0" width="1" height="100" fill="#E1A43C"/>

<rect x="80" y="0" width="12" height="100" fill="#C76C19"/>

<rect x="92" y="0" width="1" height="100" fill="#271615"/>

<rect x="93" y="0" width="2" height="100" fill="#AC4B0A"/>

<rect x="95" y="0" width="3" height="100" fill="#722808"/>

<rect x="98" y="0" width="2" height="100" fill="#0D1F3A"/>

</g>


<g id="1" transform="translate(100,0)scale(1,1)">


<rect x="0" y="0" width="11" height="100" fill="#D0C0B6"/>

<rect x="11" y="0" width="67" height="100" fill="#927D70"/>

<rect x="78" y="0" width="1" height="100" fill="#404045"/>

<rect x="79" y="0" width="1" height="100" fill="#E1A43C"/>

<rect x="80" y="0" width="12" height="100" fill="#C76C19"/>

<rect x="92" y="0" width="1" height="100" fill="#271615"/>

<rect x="93" y="0" width="2" height="100" fill="#AC4B0A"/>

<rect x="95" y="0" width="3" height="100" fill="#722808"/>

<rect x="98" y="0" width="2" height="100" fill="#0D1F3A"/>

</g>


<g id="2" transform="translate(200,0)scale(1,1)">


<rect x="0" y="0" width="11" height="100" fill="#D0C0B6"/>

<rect x="11" y="0" width="67" height="100" fill="#927D70"/>

<rect x="78" y="0" width="1" height="100" fill="#404045"/>

<rect x="79" y="0" width="1" height="100" fill="#E1A43C"/>

<rect x="80" y="0" width="12" height="100" fill="#C76C19"/>

<rect x="92" y="0" width="1" height="100" fill="#271615"/>

<rect x="93" y="0" width="2" height="100" fill="#AC4B0A"/>

<rect x="95" y="0" width="3" height="100" fill="#722808"/>

<rect x="98" y="0" width="2" height="100" fill="#0D1F3A"/>

</g>


<g id="3" transform="translate(300,0)scale(1,1)">


<rect x="0" y="0" width="11" height="100" fill="#D0C0B6"/>

<rect x="11" y="0" width="67" height="100" fill="#927D70"/>

<rect x="78" y="0" width="1" height="100" fill="#404045"/>

<rect x="79" y="0" width="1" height="100" fill="#E1A43C"/>

<rect x="80" y="0" width="12" height="100" fill="#C76C19"/>

<rect x="92" y="0" width="1" height="100" fill="#271615"/>

<rect x="93" y="0" width="2" height="100" fill="#AC4B0A"/>

<rect x="95" y="0" width="3" height="100" fill="#722808"/>

<rect x="98" y="0" width="2" height="100" fill="#0D1F3A"/>

</g>


<g id="4" transform="translate(400,0)scale(1,1)">


<rect x="0" y="0" width="11" height="100" fill="#D0C0B6"/>

<rect x="11" y="0" width="67" height="100" fill="#927D70"/>

<rect x="78" y="0" width="1" height="100" fill="#404045"/>

<rect x="79" y="0" width="1" height="100" fill="#E1A43C"/>

<rect x="80" y="0" width="12" height="100" fill="#C76C19"/>

<rect x="92" y="0" width="1" height="100" fill="#271615"/>

<rect x="93" y="0" width="2" height="100" fill="#AC4B0A"/>

<rect x="95" y="0" width="3" height="100" fill="#722808"/>

<rect x="98" y="0" width="2" height="100" fill="#0D1F3A"/>

</g>


</g>

<g id="row3" transform="translate(0,300.0)">

<g id="0" transform="translate(0,0)scale(1,1)">


<rect x="0" y="0" width="11" height="100" fill="#D0C0B6"/>

<rect x="11" y="0" width="67" height="100" fill="#927D70"/>

<rect x="78" y="0" width="1" height="100" fill="#404045"/>

<rect x="79" y="0" width="1" height="100" fill="#E1A43C"/>

<rect x="80" y="0" width="12" height="100" fill="#C76C19"/>

<rect x="92" y="0" width="1" height="100" fill="#271615"/>

<rect x="93" y="0" width="2" height="100" fill="#AC4B0A"/>

<rect x="95" y="0" width="3" height="100" fill="#722808"/>

<rect x="98" y="0" width="2" height="100" fill="#0D1F3A"/>

</g>


<g id="1" transform="translate(100,0)scale(1,1)">


<rect x="0" y="0" width="11" height="100" fill="#D0C0B6"/>

<rect x="11" y="0" width="67" height="100" fill="#927D70"/>

<rect x="78" y="0" width="1" height="100" fill="#404045"/>

<rect x="79" y="0" width="1" height="100" fill="#E1A43C"/>

<rect x="80" y="0" width="12" height="100" fill="#C76C19"/>

<rect x="92" y="0" width="1" height="100" fill="#271615"/>

<rect x="93" y="0" width="2" height="100" fill="#AC4B0A"/>

<rect x="95" y="0" width="3" height="100" fill="#722808"/>

<rect x="98" y="0" width="2" height="100" fill="#0D1F3A"/>

</g>


<g id="2" transform="translate(200,0)scale(1,1)">


<rect x="0" y="0" width="11" height="100" fill="#D0C0B6"/>

<rect x="11" y="0" width="67" height="100" fill="#927D70"/>

<rect x="78" y="0" width="1" height="100" fill="#404045"/>

<rect x="79" y="0" width="1" height="100" fill="#E1A43C"/>

<rect x="80" y="0" width="12" height="100" fill="#C76C19"/>

<rect x="92" y="0" width="1" height="100" fill="#271615"/>

<rect x="93" y="0" width="2" height="100" fill="#AC4B0A"/>

<rect x="95" y="0" width="3" height="100" fill="#722808"/>

<rect x="98" y="0" width="2" height="100" fill="#0D1F3A"/>

</g>


<g id="3" transform="translate(300,0)scale(1,1)">


<rect x="0" y="0" width="11" height="100" fill="#D0C0B6"/>

<rect x="11" y="0" width="67" height="100" fill="#927D70"/>

<rect x="78" y="0" width="1" height="100" fill="#404045"/>

<rect x="79" y="0" width="1" height="100" fill="#E1A43C"/>

<rect x="80" y="0" width="12" height="100" fill="#C76C19"/>

<rect x="92" y="0" width="1" height="100" fill="#271615"/>

<rect x="93" y="0" width="2" height="100" fill="#AC4B0A"/>

<rect x="95" y="0" width="3" height="100" fill="#722808"/>

<rect x="98" y="0" width="2" height="100" fill="#0D1F3A"/>

</g>


<g id="4" transform="translate(400,0)scale(1,1)">


<rect x="0" y="0" width="11" height="100" fill="#D0C0B6"/>

<rect x="11" y="0" width="67" height="100" fill="#927D70"/>

<rect x="78" y="0" width="1" height="100" fill="#404045"/>

<rect x="79" y="0" width="1" height="100" fill="#E1A43C"/>

<rect x="80" y="0" width="12" height="100" fill="#C76C19"/>

<rect x="92" y="0" width="1" height="100" fill="#271615"/>

<rect x="93" y="0" width="2" height="100" fill="#AC4B0A"/>

<rect x="95" y="0" width="3" height="100" fill="#722808"/>

<rect x="98" y="0" width="2" height="100" fill="#0D1F3A"/>

</g>


</g>

</svg>