<?xml version="1.0" standalone="no"?>
<!DOCTYPE svg PUBLIC "-//W3C//DTD SVG 20010904//EN"
 "http://www.w3.org/TR/2001/REC-SVG-20010904/DTD/svg10.dtd">
<svg version="1.0" xmlns="http://www.w3.org/2000/svg" 
width="400" height="400" viewBox="0 0 400 400"
preserveAspectRatio = "xMidYMid meet" >
<metadata>
Created by ZoeQu, written in 2022
</metadata>

<g id="row0" transform="translate(0,0.0)">

<g id="0" transform="translate(0,0)scale(1,1)">


<rect x="0" y="0" width="11" height="100" fill="#485547"/>

<rect x="11" y="0" width="76" height="100" fill="#718885"/>

<rect x="87" y="0" width="0" height="100" fill="#AD6681"/>

<rect x="87" y="0" width="0" height="100" fill="#CD92A3"/>

<rect x="87" y="0" width="5" height="100" fill="#6F7F4B"/>

<rect x="92" y="0" width="1" height="100" fill="#AAB080"/>

<rect x="93" y="0" width="3" height="100" fill="#DBDDD6"/>

<rect x="96" y="0" width="3" height="100" fill="#99B1B4"/>

<rect x="99" y="0" width="1" height="100" fill="#B9C7C6"/>

</g>


<g id="1" transform="translate(100,0)scale(1,1)">


<rect x="0" y="0" width="11" height="100" fill="#485547"/>

<rect x="11" y="0" width="76" height="100" fill="#718885"/>

<rect x="87" y="0" width="0" height="100" fill="#AD6681"/>

<rect x="87" y="0" width="0" height="100" fill="#CD92A3"/>

<rect x="87" y="0" width="5" height="100" fill="#6F7F4B"/>

<rect x="92" y="0" width="1" height="100" fill="#AAB080"/>

<rect x="93" y="0" width="3" height="100" fill="#DBDDD6"/>

<rect x="96" y="0" width="3" height="100" fill="#99B1B4"/>

<rect x="99" y="0" width="1" height="100" fill="#B9C7C6"/>

</g>


<g id="2" transform="translate(200,0)scale(1,1)">


<rect x="0" y="0" width="11" height="100" fill="#485547"/>

<rect x="11" y="0" width="76" height="100" fill="#718885"/>

<rect x="87" y="0" width="0" height="100" fill="#AD6681"/>

<rect x="87" y="0" width="0" height="100" fill="#CD92A3"/>

<rect x="87" y="0" width="5" height="100" fill="#6F7F4B"/>

<rect x="92" y="0" width="1" height="100" fill="#AAB080"/>

<rect x="93" y="0" width="3" height="100" fill="#DBDDD6"/>

<rect x="96" y="0" width="3" height="100" fill="#99B1B4"/>

<rect x="99" y="0" width="1" height="100" fill="#B9C7C6"/>

</g>


<g id="3" transform="translate(300,0)scale(1,1)">


<rect x="0" y="0" width="11" height="100" fill="#485547"/>

<rect x="11" y="0" width="76" height="100" fill="#718885"/>

<rect x="87" y="0" width="0" height="100" fill="#AD6681"/>

<rect x="87" y="0" width="0" height="100" fill="#CD92A3"/>

<rect x="87" y="0" width="5" height="100" fill="#6F7F4B"/>

<rect x="92" y="0" width="1" height="100" fill="#AAB080"/>

<rect x="93" y="0" width="3" height="100" fill="#DBDDD6"/>

<rect x="96" y="0" width="3" height="100" fill="#99B1B4"/>

<rect x="99" y="0" width="1" height="100" fill="#B9C7C6"/>

</g>


<g id="4" transform="translate(400,0)scale(1,1)">


<rect x="0" y="0" width="11" height="100" fill="#485547"/>

<rect x="11" y="0" width="76" height="100" fill="#718885"/>

<rect x="87" y="0" width="0" height="100" fill="#AD6681"/>

<rect x="87" y="0" width="0" height="100" fill="#CD92A3"/>

<rect x="87" y="0" width="5" height="100" fill="#6F7F4B"/>

<rect x="92" y="0" width="1" height="100" fill="#AAB080"/>

<rect x="93" y="0" width="3" height="100" fill="#DBDDD6"/>

<rect x="96" y="0" width="3" height="100" fill="#99B1B4"/>

<rect x="99" y="0" width="1" height="100" fill="#B9C7C6"/>

</g>


</g>

<g id="row1" transform="translate(0,100.0)">

<g id="0" transform="translate(0,0)scale(1,1)">


<rect x="0" y="0" width="11" height="100" fill="#485547"/>

<rect x="11" y="0" width="76" height="100" fill="#718885"/>

<rect x="87" y="0" width="0" height="100" fill="#AD6681"/>

<rect x="87" y="0" width="0" height="100" fill="#CD92A3"/>

<rect x="87" y="0" width="5" height="100" fill="#6F7F4B"/>

<rect x="92" y="0" width="1" height="100" fill="#AAB080"/>

<rect x="93" y="0" width="3" height="100" fill="#DBDDD6"/>

<rect x="96" y="0" width="3" height="100" fill="#99B1B4"/>

<rect x="99" y="0" width="1" height="100" fill="#B9C7C6"/>

</g>


<g id="1" transform="translate(100,0)scale(1,1)">


<rect x="0" y="0" width="11" height="100" fill="#485547"/>

<rect x="11" y="0" width="76" height="100" fill="#718885"/>

<rect x="87" y="0" width="0" height="100" fill="#AD6681"/>

<rect x="87" y="0" width="0" height="100" fill="#CD92A3"/>

<rect x="87" y="0" width="5" height="100" fill="#6F7F4B"/>

<rect x="92" y="0" width="1" height="100" fill="#AAB080"/>

<rect x="93" y="0" width="3" height="100" fill="#DBDDD6"/>

<rect x="96" y="0" width="3" height="100" fill="#99B1B4"/>

<rect x="99" y="0" width="1" height="100" fill="#B9C7C6"/>

</g>


<g id="2" transform="translate(200,0)scale(1,1)">


<rect x="0" y="0" width="11" height="100" fill="#485547"/>

<rect x="11" y="0" width="76" height="100" fill="#718885"/>

<rect x="87" y="0" width="0" height="100" fill="#AD6681"/>

<rect x="87" y="0" width="0" height="100" fill="#CD92A3"/>

<rect x="87" y="0" width="5" height="100" fill="#6F7F4B"/>

<rect x="92" y="0" width="1" height="100" fill="#AAB080"/>

<rect x="93" y="0" width="3" height="100" fill="#DBDDD6"/>

<rect x="96" y="0" width="3" height="100" fill="#99B1B4"/>

<rect x="99" y="0" width="1" height="100" fill="#B9C7C6"/>

</g>


<g id="3" transform="translate(300,0)scale(1,1)">


<rect x="0" y="0" width="11" height="100" fill="#485547"/>

<rect x="11" y="0" width="76" height="100" fill="#718885"/>

<rect x="87" y="0" width="0" height="100" fill="#AD6681"/>

<rect x="87" y="0" width="0" height="100" fill="#CD92A3"/>

<rect x="87" y="0" width="5" height="100" fill="#6F7F4B"/>

<rect x="92" y="0" width="1" height="100" fill="#AAB080"/>

<rect x="93" y="0" width="3" height="100" fill="#DBDDD6"/>

<rect x="96" y="0" width="3" height="100" fill="#99B1B4"/>

<rect x="99" y="0" width="1" height="100" fill="#B9C7C6"/>

</g>


<g id="4" transform="translate(400,0)scale(1,1)">


<rect x="0" y="0" width="11" height="100" fill="#485547"/>

<rect x="11" y="0" width="76" height="100" fill="#718885"/>

<rect x="87" y="0" width="0" height="100" fill="#AD6681"/>

<rect x="87" y="0" width="0" height="100" fill="#CD92A3"/>

<rect x="87" y="0" width="5" height="100" fill="#6F7F4B"/>

<rect x="92" y="0" width="1" height="100" fill="#AAB080"/>

<rect x="93" y="0" width="3" height="100" fill="#DBDDD6"/>

<rect x="96" y="0" width="3" height="100" fill="#99B1B4"/>

<rect x="99" y="0" width="1" height="100" fill="#B9C7C6"/>

</g>


</g>

<g id="row2" transform="translate(0,200.0)">

<g id="0" transform="translate(0,0)scale(1,1)">


<rect x="0" y="0" width="11" height="100" fill="#485547"/>

<rect x="11" y="0" width="76" height="100" fill="#718885"/>

<rect x="87" y="0" width="0" height="100" fill="#AD6681"/>

<rect x="87" y="0" width="0" height="100" fill="#CD92A3"/>

<rect x="87" y="0" width="5" height="100" fill="#6F7F4B"/>

<rect x="92" y="0" width="1" height="100" fill="#AAB080"/>

<rect x="93" y="0" width="3" height="100" fill="#DBDDD6"/>

<rect x="96" y="0" width="3" height="100" fill="#99B1B4"/>

<rect x="99" y="0" width="1" height="100" fill="#B9C7C6"/>

</g>


<g id="1" transform="translate(100,0)scale(1,1)">


<rect x="0" y="0" width="11" height="100" fill="#485547"/>

<rect x="11" y="0" width="76" height="100" fill="#718885"/>

<rect x="87" y="0" width="0" height="100" fill="#AD6681"/>

<rect x="87" y="0" width="0" height="100" fill="#CD92A3"/>

<rect x="87" y="0" width="5" height="100" fill="#6F7F4B"/>

<rect x="92" y="0" width="1" height="100" fill="#AAB080"/>

<rect x="93" y="0" width="3" height="100" fill="#DBDDD6"/>

<rect x="96" y="0" width="3" height="100" fill="#99B1B4"/>

<rect x="99" y="0" width="1" height="100" fill="#B9C7C6"/>

</g>


<g id="2" transform="translate(200,0)scale(1,1)">


<rect x="0" y="0" width="11" height="100" fill="#485547"/>

<rect x="11" y="0" width="76" height="100" fill="#718885"/>

<rect x="87" y="0" width="0" height="100" fill="#AD6681"/>

<rect x="87" y="0" width="0" height="100" fill="#CD92A3"/>

<rect x="87" y="0" width="5" height="100" fill="#6F7F4B"/>

<rect x="92" y="0" width="1" height="100" fill="#AAB080"/>

<rect x="93" y="0" width="3" height="100" fill="#DBDDD6"/>

<rect x="96" y="0" width="3" height="100" fill="#99B1B4"/>

<rect x="99" y="0" width="1" height="100" fill="#B9C7C6"/>

</g>


<g id="3" transform="translate(300,0)scale(1,1)">


<rect x="0" y="0" width="11" height="100" fill="#485547"/>

<rect x="11" y="0" width="76" height="100" fill="#718885"/>

<rect x="87" y="0" width="0" height="100" fill="#AD6681"/>

<rect x="87" y="0" width="0" height="100" fill="#CD92A3"/>

<rect x="87" y="0" width="5" height="100" fill="#6F7F4B"/>

<rect x="92" y="0" width="1" height="100" fill="#AAB080"/>

<rect x="93" y="0" width="3" height="100" fill="#DBDDD6"/>

<rect x="96" y="0" width="3" height="100" fill="#99B1B4"/>

<rect x="99" y="0" width="1" height="100" fill="#B9C7C6"/>

</g>


<g id="4" transform="translate(400,0)scale(1,1)">


<rect x="0" y="0" width="11" height="100" fill="#485547"/>

<rect x="11" y="0" width="76" height="100" fill="#718885"/>

<rect x="87" y="0" width="0" height="100" fill="#AD6681"/>

<rect x="87" y="0" width="0" height="100" fill="#CD92A3"/>

<rect x="87" y="0" width="5" height="100" fill="#6F7F4B"/>

<rect x="92" y="0" width="1" height="100" fill="#AAB080"/>

<rect x="93" y="0" width="3" height="100" fill="#DBDDD6"/>

<rect x="96" y="0" width="3" height="100" fill="#99B1B4"/>

<rect x="99" y="0" width="1" height="100" fill="#B9C7C6"/>

</g>


</g>

<g id="row3" transform="translate(0,300.0)">

<g id="0" transform="translate(0,0)scale(1,1)">


<rect x="0" y="0" width="11" height="100" fill="#485547"/>

<rect x="11" y="0" width="76" height="100" fill="#718885"/>

<rect x="87" y="0" width="0" height="100" fill="#AD6681"/>

<rect x="87" y="0" width="0" height="100" fill="#CD92A3"/>

<rect x="87" y="0" width="5" height="100" fill="#6F7F4B"/>

<rect x="92" y="0" width="1" height="100" fill="#AAB080"/>

<rect x="93" y="0" width="3" height="100" fill="#DBDDD6"/>

<rect x="96" y="0" width="3" height="100" fill="#99B1B4"/>

<rect x="99" y="0" width="1" height="100" fill="#B9C7C6"/>

</g>


<g id="1" transform="translate(100,0)scale(1,1)">


<rect x="0" y="0" width="11" height="100" fill="#485547"/>

<rect x="11" y="0" width="76" height="100" fill="#718885"/>

<rect x="87" y="0" width="0" height="100" fill="#AD6681"/>

<rect x="87" y="0" width="0" height="100" fill="#CD92A3"/>

<rect x="87" y="0" width="5" height="100" fill="#6F7F4B"/>

<rect x="92" y="0" width="1" height="100" fill="#AAB080"/>

<rect x="93" y="0" width="3" height="100" fill="#DBDDD6"/>

<rect x="96" y="0" width="3" height="100" fill="#99B1B4"/>

<rect x="99" y="0" width="1" height="100" fill="#B9C7C6"/>

</g>


<g id="2" transform="translate(200,0)scale(1,1)">


<rect x="0" y="0" width="11" height="100" fill="#485547"/>

<rect x="11" y="0" width="76" height="100" fill="#718885"/>

<rect x="87" y="0" width="0" height="100" fill="#AD6681"/>

<rect x="87" y="0" width="0" height="100" fill="#CD92A3"/>

<rect x="87" y="0" width="5" height="100" fill="#6F7F4B"/>

<rect x="92" y="0" width="1" height="100" fill="#AAB080"/>

<rect x="93" y="0" width="3" height="100" fill="#DBDDD6"/>

<rect x="96" y="0" width="3" height="100" fill="#99B1B4"/>

<rect x="99" y="0" width="1" height="100" fill="#B9C7C6"/>

</g>


<g id="3" transform="translate(300,0)scale(1,1)">


<rect x="0" y="0" width="11" height="100" fill="#485547"/>

<rect x="11" y="0" width="76" height="100" fill="#718885"/>

<rect x="87" y="0" width="0" height="100" fill="#AD6681"/>

<rect x="87" y="0" width="0" height="100" fill="#CD92A3"/>

<rect x="87" y="0" width="5" height="100" fill="#6F7F4B"/>

<rect x="92" y="0" width="1" height="100" fill="#AAB080"/>

<rect x="93" y="0" width="3" height="100" fill="#DBDDD6"/>

<rect x="96" y="0" width="3" height="100" fill="#99B1B4"/>

<rect x="99" y="0" width="1" height="100" fill="#B9C7C6"/>

</g>


<g id="4" transform="translate(400,0)scale(1,1)">


<rect x="0" y="0" width="11" height="100" fill="#485547"/>

<rect x="11" y="0" width="76" height="100" fill="#718885"/>

<rect x="87" y="0" width="0" height="100" fill="#AD6681"/>

<rect x="87" y="0" width="0" height="100" fill="#CD92A3"/>

<rect x="87" y="0" width="5" height="100" fill="#6F7F4B"/>

<rect x="92" y="0" width="1" height="100" fill="#AAB080"/>

<rect x="93" y="0" width="3" height="100" fill="#DBDDD6"/>

<rect x="96" y="0" width="3" height="100" fill="#99B1B4"/>

<rect x="99" y="0" width="1" height="100" fill="#B9C7C6"/>

</g>


</g>

</svg>