<?xml version="1.0" standalone="no"?>
<!DOCTYPE svg PUBLIC "-//W3C//DTD SVG 20010904//EN"
 "http://www.w3.org/TR/2001/REC-SVG-20010904/DTD/svg10.dtd">
<svg version="1.0" xmlns="http://www.w3.org/2000/svg" 
width="400" height="400" viewBox="0 0 400 400"
preserveAspectRatio = "xMidYMid meet" >
<metadata>
Created by ZoeQu, written in 2022
</metadata>

<g id="row0" transform="translate(0,0.0)">

<g id="0" transform="translate(0,0)scale(1,1)">


<rect x="0" y="0" width="10" height="100" fill="#531005"/>

<rect x="10" y="0" width="22" height="100" fill="#CFBFB5"/>

<rect x="32" y="0" width="4" height="100" fill="#907B6F"/>

<rect x="36" y="0" width="41" height="100" fill="#C8701B"/>

<rect x="77" y="0" width="2" height="100" fill="#E2A53D"/>

<rect x="79" y="0" width="9" height="100" fill="#3E3F44"/>

<rect x="88" y="0" width="8" height="100" fill="#1E1517"/>

<rect x="96" y="0" width="4" height="100" fill="#AE4D0D"/>

<rect x="100" y="0" width="0" height="100" fill="#752B09"/>

<rect x="100" y="0" width="0" height="100" fill="#0D1F3A"/>

</g>


<g id="1" transform="translate(100,0)scale(1,1)">


<rect x="0" y="0" width="10" height="100" fill="#531005"/>

<rect x="10" y="0" width="22" height="100" fill="#CFBFB5"/>

<rect x="32" y="0" width="4" height="100" fill="#907B6F"/>

<rect x="36" y="0" width="41" height="100" fill="#C8701B"/>

<rect x="77" y="0" width="2" height="100" fill="#E2A53D"/>

<rect x="79" y="0" width="9" height="100" fill="#3E3F44"/>

<rect x="88" y="0" width="8" height="100" fill="#1E1517"/>

<rect x="96" y="0" width="4" height="100" fill="#AE4D0D"/>

<rect x="100" y="0" width="0" height="100" fill="#752B09"/>

<rect x="100" y="0" width="0" height="100" fill="#0D1F3A"/>

</g>


<g id="2" transform="translate(200,0)scale(1,1)">


<rect x="0" y="0" width="10" height="100" fill="#531005"/>

<rect x="10" y="0" width="22" height="100" fill="#CFBFB5"/>

<rect x="32" y="0" width="4" height="100" fill="#907B6F"/>

<rect x="36" y="0" width="41" height="100" fill="#C8701B"/>

<rect x="77" y="0" width="2" height="100" fill="#E2A53D"/>

<rect x="79" y="0" width="9" height="100" fill="#3E3F44"/>

<rect x="88" y="0" width="8" height="100" fill="#1E1517"/>

<rect x="96" y="0" width="4" height="100" fill="#AE4D0D"/>

<rect x="100" y="0" width="0" height="100" fill="#752B09"/>

<rect x="100" y="0" width="0" height="100" fill="#0D1F3A"/>

</g>


<g id="3" transform="translate(300,0)scale(1,1)">


<rect x="0" y="0" width="10" height="100" fill="#531005"/>

<rect x="10" y="0" width="22" height="100" fill="#CFBFB5"/>

<rect x="32" y="0" width="4" height="100" fill="#907B6F"/>

<rect x="36" y="0" width="41" height="100" fill="#C8701B"/>

<rect x="77" y="0" width="2" height="100" fill="#E2A53D"/>

<rect x="79" y="0" width="9" height="100" fill="#3E3F44"/>

<rect x="88" y="0" width="8" height="100" fill="#1E1517"/>

<rect x="96" y="0" width="4" height="100" fill="#AE4D0D"/>

<rect x="100" y="0" width="0" height="100" fill="#752B09"/>

<rect x="100" y="0" width="0" height="100" fill="#0D1F3A"/>

</g>


<g id="4" transform="translate(400,0)scale(1,1)">


<rect x="0" y="0" width="10" height="100" fill="#531005"/>

<rect x="10" y="0" width="22" height="100" fill="#CFBFB5"/>

<rect x="32" y="0" width="4" height="100" fill="#907B6F"/>

<rect x="36" y="0" width="41" height="100" fill="#C8701B"/>

<rect x="77" y="0" width="2" height="100" fill="#E2A53D"/>

<rect x="79" y="0" width="9" height="100" fill="#3E3F44"/>

<rect x="88" y="0" width="8" height="100" fill="#1E1517"/>

<rect x="96" y="0" width="4" height="100" fill="#AE4D0D"/>

<rect x="100" y="0" width="0" height="100" fill="#752B09"/>

<rect x="100" y="0" width="0" height="100" fill="#0D1F3A"/>

</g>


</g>

<g id="row1" transform="translate(0,100.0)">

<g id="0" transform="translate(0,0)scale(1,1)">


<rect x="0" y="0" width="10" height="100" fill="#531005"/>

<rect x="10" y="0" width="22" height="100" fill="#CFBFB5"/>

<rect x="32" y="0" width="4" height="100" fill="#907B6F"/>

<rect x="36" y="0" width="41" height="100" fill="#C8701B"/>

<rect x="77" y="0" width="2" height="100" fill="#E2A53D"/>

<rect x="79" y="0" width="9" height="100" fill="#3E3F44"/>

<rect x="88" y="0" width="8" height="100" fill="#1E1517"/>

<rect x="96" y="0" width="4" height="100" fill="#AE4D0D"/>

<rect x="100" y="0" width="0" height="100" fill="#752B09"/>

<rect x="100" y="0" width="0" height="100" fill="#0D1F3A"/>

</g>


<g id="1" transform="translate(100,0)scale(1,1)">


<rect x="0" y="0" width="10" height="100" fill="#531005"/>

<rect x="10" y="0" width="22" height="100" fill="#CFBFB5"/>

<rect x="32" y="0" width="4" height="100" fill="#907B6F"/>

<rect x="36" y="0" width="41" height="100" fill="#C8701B"/>

<rect x="77" y="0" width="2" height="100" fill="#E2A53D"/>

<rect x="79" y="0" width="9" height="100" fill="#3E3F44"/>

<rect x="88" y="0" width="8" height="100" fill="#1E1517"/>

<rect x="96" y="0" width="4" height="100" fill="#AE4D0D"/>

<rect x="100" y="0" width="0" height="100" fill="#752B09"/>

<rect x="100" y="0" width="0" height="100" fill="#0D1F3A"/>

</g>


<g id="2" transform="translate(200,0)scale(1,1)">


<rect x="0" y="0" width="10" height="100" fill="#531005"/>

<rect x="10" y="0" width="22" height="100" fill="#CFBFB5"/>

<rect x="32" y="0" width="4" height="100" fill="#907B6F"/>

<rect x="36" y="0" width="41" height="100" fill="#C8701B"/>

<rect x="77" y="0" width="2" height="100" fill="#E2A53D"/>

<rect x="79" y="0" width="9" height="100" fill="#3E3F44"/>

<rect x="88" y="0" width="8" height="100" fill="#1E1517"/>

<rect x="96" y="0" width="4" height="100" fill="#AE4D0D"/>

<rect x="100" y="0" width="0" height="100" fill="#752B09"/>

<rect x="100" y="0" width="0" height="100" fill="#0D1F3A"/>

</g>


<g id="3" transform="translate(300,0)scale(1,1)">


<rect x="0" y="0" width="10" height="100" fill="#531005"/>

<rect x="10" y="0" width="22" height="100" fill="#CFBFB5"/>

<rect x="32" y="0" width="4" height="100" fill="#907B6F"/>

<rect x="36" y="0" width="41" height="100" fill="#C8701B"/>

<rect x="77" y="0" width="2" height="100" fill="#E2A53D"/>

<rect x="79" y="0" width="9" height="100" fill="#3E3F44"/>

<rect x="88" y="0" width="8" height="100" fill="#1E1517"/>

<rect x="96" y="0" width="4" height="100" fill="#AE4D0D"/>

<rect x="100" y="0" width="0" height="100" fill="#752B09"/>

<rect x="100" y="0" width="0" height="100" fill="#0D1F3A"/>

</g>


<g id="4" transform="translate(400,0)scale(1,1)">


<rect x="0" y="0" width="10" height="100" fill="#531005"/>

<rect x="10" y="0" width="22" height="100" fill="#CFBFB5"/>

<rect x="32" y="0" width="4" height="100" fill="#907B6F"/>

<rect x="36" y="0" width="41" height="100" fill="#C8701B"/>

<rect x="77" y="0" width="2" height="100" fill="#E2A53D"/>

<rect x="79" y="0" width="9" height="100" fill="#3E3F44"/>

<rect x="88" y="0" width="8" height="100" fill="#1E1517"/>

<rect x="96" y="0" width="4" height="100" fill="#AE4D0D"/>

<rect x="100" y="0" width="0" height="100" fill="#752B09"/>

<rect x="100" y="0" width="0" height="100" fill="#0D1F3A"/>

</g>


</g>

<g id="row2" transform="translate(0,200.0)">

<g id="0" transform="translate(0,0)scale(1,1)">


<rect x="0" y="0" width="10" height="100" fill="#531005"/>

<rect x="10" y="0" width="22" height="100" fill="#CFBFB5"/>

<rect x="32" y="0" width="4" height="100" fill="#907B6F"/>

<rect x="36" y="0" width="41" height="100" fill="#C8701B"/>

<rect x="77" y="0" width="2" height="100" fill="#E2A53D"/>

<rect x="79" y="0" width="9" height="100" fill="#3E3F44"/>

<rect x="88" y="0" width="8" height="100" fill="#1E1517"/>

<rect x="96" y="0" width="4" height="100" fill="#AE4D0D"/>

<rect x="100" y="0" width="0" height="100" fill="#752B09"/>

<rect x="100" y="0" width="0" height="100" fill="#0D1F3A"/>

</g>


<g id="1" transform="translate(100,0)scale(1,1)">


<rect x="0" y="0" width="10" height="100" fill="#531005"/>

<rect x="10" y="0" width="22" height="100" fill="#CFBFB5"/>

<rect x="32" y="0" width="4" height="100" fill="#907B6F"/>

<rect x="36" y="0" width="41" height="100" fill="#C8701B"/>

<rect x="77" y="0" width="2" height="100" fill="#E2A53D"/>

<rect x="79" y="0" width="9" height="100" fill="#3E3F44"/>

<rect x="88" y="0" width="8" height="100" fill="#1E1517"/>

<rect x="96" y="0" width="4" height="100" fill="#AE4D0D"/>

<rect x="100" y="0" width="0" height="100" fill="#752B09"/>

<rect x="100" y="0" width="0" height="100" fill="#0D1F3A"/>

</g>


<g id="2" transform="translate(200,0)scale(1,1)">


<rect x="0" y="0" width="10" height="100" fill="#531005"/>

<rect x="10" y="0" width="22" height="100" fill="#CFBFB5"/>

<rect x="32" y="0" width="4" height="100" fill="#907B6F"/>

<rect x="36" y="0" width="41" height="100" fill="#C8701B"/>

<rect x="77" y="0" width="2" height="100" fill="#E2A53D"/>

<rect x="79" y="0" width="9" height="100" fill="#3E3F44"/>

<rect x="88" y="0" width="8" height="100" fill="#1E1517"/>

<rect x="96" y="0" width="4" height="100" fill="#AE4D0D"/>

<rect x="100" y="0" width="0" height="100" fill="#752B09"/>

<rect x="100" y="0" width="0" height="100" fill="#0D1F3A"/>

</g>


<g id="3" transform="translate(300,0)scale(1,1)">


<rect x="0" y="0" width="10" height="100" fill="#531005"/>

<rect x="10" y="0" width="22" height="100" fill="#CFBFB5"/>

<rect x="32" y="0" width="4" height="100" fill="#907B6F"/>

<rect x="36" y="0" width="41" height="100" fill="#C8701B"/>

<rect x="77" y="0" width="2" height="100" fill="#E2A53D"/>

<rect x="79" y="0" width="9" height="100" fill="#3E3F44"/>

<rect x="88" y="0" width="8" height="100" fill="#1E1517"/>

<rect x="96" y="0" width="4" height="100" fill="#AE4D0D"/>

<rect x="100" y="0" width="0" height="100" fill="#752B09"/>

<rect x="100" y="0" width="0" height="100" fill="#0D1F3A"/>

</g>


<g id="4" transform="translate(400,0)scale(1,1)">


<rect x="0" y="0" width="10" height="100" fill="#531005"/>

<rect x="10" y="0" width="22" height="100" fill="#CFBFB5"/>

<rect x="32" y="0" width="4" height="100" fill="#907B6F"/>

<rect x="36" y="0" width="41" height="100" fill="#C8701B"/>

<rect x="77" y="0" width="2" height="100" fill="#E2A53D"/>

<rect x="79" y="0" width="9" height="100" fill="#3E3F44"/>

<rect x="88" y="0" width="8" height="100" fill="#1E1517"/>

<rect x="96" y="0" width="4" height="100" fill="#AE4D0D"/>

<rect x="100" y="0" width="0" height="100" fill="#752B09"/>

<rect x="100" y="0" width="0" height="100" fill="#0D1F3A"/>

</g>


</g>

<g id="row3" transform="translate(0,300.0)">

<g id="0" transform="translate(0,0)scale(1,1)">


<rect x="0" y="0" width="10" height="100" fill="#531005"/>

<rect x="10" y="0" width="22" height="100" fill="#CFBFB5"/>

<rect x="32" y="0" width="4" height="100" fill="#907B6F"/>

<rect x="36" y="0" width="41" height="100" fill="#C8701B"/>

<rect x="77" y="0" width="2" height="100" fill="#E2A53D"/>

<rect x="79" y="0" width="9" height="100" fill="#3E3F44"/>

<rect x="88" y="0" width="8" height="100" fill="#1E1517"/>

<rect x="96" y="0" width="4" height="100" fill="#AE4D0D"/>

<rect x="100" y="0" width="0" height="100" fill="#752B09"/>

<rect x="100" y="0" width="0" height="100" fill="#0D1F3A"/>

</g>


<g id="1" transform="translate(100,0)scale(1,1)">


<rect x="0" y="0" width="10" height="100" fill="#531005"/>

<rect x="10" y="0" width="22" height="100" fill="#CFBFB5"/>

<rect x="32" y="0" width="4" height="100" fill="#907B6F"/>

<rect x="36" y="0" width="41" height="100" fill="#C8701B"/>

<rect x="77" y="0" width="2" height="100" fill="#E2A53D"/>

<rect x="79" y="0" width="9" height="100" fill="#3E3F44"/>

<rect x="88" y="0" width="8" height="100" fill="#1E1517"/>

<rect x="96" y="0" width="4" height="100" fill="#AE4D0D"/>

<rect x="100" y="0" width="0" height="100" fill="#752B09"/>

<rect x="100" y="0" width="0" height="100" fill="#0D1F3A"/>

</g>


<g id="2" transform="translate(200,0)scale(1,1)">


<rect x="0" y="0" width="10" height="100" fill="#531005"/>

<rect x="10" y="0" width="22" height="100" fill="#CFBFB5"/>

<rect x="32" y="0" width="4" height="100" fill="#907B6F"/>

<rect x="36" y="0" width="41" height="100" fill="#C8701B"/>

<rect x="77" y="0" width="2" height="100" fill="#E2A53D"/>

<rect x="79" y="0" width="9" height="100" fill="#3E3F44"/>

<rect x="88" y="0" width="8" height="100" fill="#1E1517"/>

<rect x="96" y="0" width="4" height="100" fill="#AE4D0D"/>

<rect x="100" y="0" width="0" height="100" fill="#752B09"/>

<rect x="100" y="0" width="0" height="100" fill="#0D1F3A"/>

</g>


<g id="3" transform="translate(300,0)scale(1,1)">


<rect x="0" y="0" width="10" height="100" fill="#531005"/>

<rect x="10" y="0" width="22" height="100" fill="#CFBFB5"/>

<rect x="32" y="0" width="4" height="100" fill="#907B6F"/>

<rect x="36" y="0" width="41" height="100" fill="#C8701B"/>

<rect x="77" y="0" width="2" height="100" fill="#E2A53D"/>

<rect x="79" y="0" width="9" height="100" fill="#3E3F44"/>

<rect x="88" y="0" width="8" height="100" fill="#1E1517"/>

<rect x="96" y="0" width="4" height="100" fill="#AE4D0D"/>

<rect x="100" y="0" width="0" height="100" fill="#752B09"/>

<rect x="100" y="0" width="0" height="100" fill="#0D1F3A"/>

</g>


<g id="4" transform="translate(400,0)scale(1,1)">


<rect x="0" y="0" width="10" height="100" fill="#531005"/>

<rect x="10" y="0" width="22" height="100" fill="#CFBFB5"/>

<rect x="32" y="0" width="4" height="100" fill="#907B6F"/>

<rect x="36" y="0" width="41" height="100" fill="#C8701B"/>

<rect x="77" y="0" width="2" height="100" fill="#E2A53D"/>

<rect x="79" y="0" width="9" height="100" fill="#3E3F44"/>

<rect x="88" y="0" width="8" height="100" fill="#1E1517"/>

<rect x="96" y="0" width="4" height="100" fill="#AE4D0D"/>

<rect x="100" y="0" width="0" height="100" fill="#752B09"/>

<rect x="100" y="0" width="0" height="100" fill="#0D1F3A"/>

</g>


</g>

</svg>