<?xml version="1.0" standalone="no"?>
<!DOCTYPE svg PUBLIC "-//W3C//DTD SVG 20010904//EN"
 "http://www.w3.org/TR/2001/REC-SVG-20010904/DTD/svg10.dtd">
<svg version="1.0" xmlns="http://www.w3.org/2000/svg" 
width="400" height="400" viewBox="0 0 400 400"
preserveAspectRatio = "xMidYMid meet" >
<metadata>
Created by ZoeQu, written in 2022
</metadata>

<g id="row0" transform="translate(0,0.0)">

<g id="0" transform="translate(0,0)scale(1,1)">


<rect x="0" y="0" width="11" height="100" fill="#EEE2C8"/>

<rect x="11" y="0" width="13" height="100" fill="#A48868"/>

<rect x="24" y="0" width="9" height="100" fill="#EC9449"/>

<rect x="33" y="0" width="43" height="100" fill="#9A4B1F"/>

<rect x="76" y="0" width="20" height="100" fill="#CF6723"/>

<rect x="96" y="0" width="1" height="100" fill="#612E13"/>

<rect x="97" y="0" width="2" height="100" fill="#67604E"/>

<rect x="99" y="0" width="1" height="100" fill="#413D31"/>

<rect x="100" y="0" width="0" height="100" fill="#2A1E16"/>

</g>


<g id="1" transform="translate(100,0)scale(1,1)">


<rect x="0" y="0" width="11" height="100" fill="#EEE2C8"/>

<rect x="11" y="0" width="13" height="100" fill="#A48868"/>

<rect x="24" y="0" width="9" height="100" fill="#EC9449"/>

<rect x="33" y="0" width="43" height="100" fill="#9A4B1F"/>

<rect x="76" y="0" width="20" height="100" fill="#CF6723"/>

<rect x="96" y="0" width="1" height="100" fill="#612E13"/>

<rect x="97" y="0" width="2" height="100" fill="#67604E"/>

<rect x="99" y="0" width="1" height="100" fill="#413D31"/>

<rect x="100" y="0" width="0" height="100" fill="#2A1E16"/>

</g>


<g id="2" transform="translate(200,0)scale(1,1)">


<rect x="0" y="0" width="11" height="100" fill="#EEE2C8"/>

<rect x="11" y="0" width="13" height="100" fill="#A48868"/>

<rect x="24" y="0" width="9" height="100" fill="#EC9449"/>

<rect x="33" y="0" width="43" height="100" fill="#9A4B1F"/>

<rect x="76" y="0" width="20" height="100" fill="#CF6723"/>

<rect x="96" y="0" width="1" height="100" fill="#612E13"/>

<rect x="97" y="0" width="2" height="100" fill="#67604E"/>

<rect x="99" y="0" width="1" height="100" fill="#413D31"/>

<rect x="100" y="0" width="0" height="100" fill="#2A1E16"/>

</g>


<g id="3" transform="translate(300,0)scale(1,1)">


<rect x="0" y="0" width="11" height="100" fill="#EEE2C8"/>

<rect x="11" y="0" width="13" height="100" fill="#A48868"/>

<rect x="24" y="0" width="9" height="100" fill="#EC9449"/>

<rect x="33" y="0" width="43" height="100" fill="#9A4B1F"/>

<rect x="76" y="0" width="20" height="100" fill="#CF6723"/>

<rect x="96" y="0" width="1" height="100" fill="#612E13"/>

<rect x="97" y="0" width="2" height="100" fill="#67604E"/>

<rect x="99" y="0" width="1" height="100" fill="#413D31"/>

<rect x="100" y="0" width="0" height="100" fill="#2A1E16"/>

</g>


<g id="4" transform="translate(400,0)scale(1,1)">


<rect x="0" y="0" width="11" height="100" fill="#EEE2C8"/>

<rect x="11" y="0" width="13" height="100" fill="#A48868"/>

<rect x="24" y="0" width="9" height="100" fill="#EC9449"/>

<rect x="33" y="0" width="43" height="100" fill="#9A4B1F"/>

<rect x="76" y="0" width="20" height="100" fill="#CF6723"/>

<rect x="96" y="0" width="1" height="100" fill="#612E13"/>

<rect x="97" y="0" width="2" height="100" fill="#67604E"/>

<rect x="99" y="0" width="1" height="100" fill="#413D31"/>

<rect x="100" y="0" width="0" height="100" fill="#2A1E16"/>

</g>


</g>

<g id="row1" transform="translate(0,100.0)">

<g id="0" transform="translate(0,0)scale(1,1)">


<rect x="0" y="0" width="11" height="100" fill="#EEE2C8"/>

<rect x="11" y="0" width="13" height="100" fill="#A48868"/>

<rect x="24" y="0" width="9" height="100" fill="#EC9449"/>

<rect x="33" y="0" width="43" height="100" fill="#9A4B1F"/>

<rect x="76" y="0" width="20" height="100" fill="#CF6723"/>

<rect x="96" y="0" width="1" height="100" fill="#612E13"/>

<rect x="97" y="0" width="2" height="100" fill="#67604E"/>

<rect x="99" y="0" width="1" height="100" fill="#413D31"/>

<rect x="100" y="0" width="0" height="100" fill="#2A1E16"/>

</g>


<g id="1" transform="translate(100,0)scale(1,1)">


<rect x="0" y="0" width="11" height="100" fill="#EEE2C8"/>

<rect x="11" y="0" width="13" height="100" fill="#A48868"/>

<rect x="24" y="0" width="9" height="100" fill="#EC9449"/>

<rect x="33" y="0" width="43" height="100" fill="#9A4B1F"/>

<rect x="76" y="0" width="20" height="100" fill="#CF6723"/>

<rect x="96" y="0" width="1" height="100" fill="#612E13"/>

<rect x="97" y="0" width="2" height="100" fill="#67604E"/>

<rect x="99" y="0" width="1" height="100" fill="#413D31"/>

<rect x="100" y="0" width="0" height="100" fill="#2A1E16"/>

</g>


<g id="2" transform="translate(200,0)scale(1,1)">


<rect x="0" y="0" width="11" height="100" fill="#EEE2C8"/>

<rect x="11" y="0" width="13" height="100" fill="#A48868"/>

<rect x="24" y="0" width="9" height="100" fill="#EC9449"/>

<rect x="33" y="0" width="43" height="100" fill="#9A4B1F"/>

<rect x="76" y="0" width="20" height="100" fill="#CF6723"/>

<rect x="96" y="0" width="1" height="100" fill="#612E13"/>

<rect x="97" y="0" width="2" height="100" fill="#67604E"/>

<rect x="99" y="0" width="1" height="100" fill="#413D31"/>

<rect x="100" y="0" width="0" height="100" fill="#2A1E16"/>

</g>


<g id="3" transform="translate(300,0)scale(1,1)">


<rect x="0" y="0" width="11" height="100" fill="#EEE2C8"/>

<rect x="11" y="0" width="13" height="100" fill="#A48868"/>

<rect x="24" y="0" width="9" height="100" fill="#EC9449"/>

<rect x="33" y="0" width="43" height="100" fill="#9A4B1F"/>

<rect x="76" y="0" width="20" height="100" fill="#CF6723"/>

<rect x="96" y="0" width="1" height="100" fill="#612E13"/>

<rect x="97" y="0" width="2" height="100" fill="#67604E"/>

<rect x="99" y="0" width="1" height="100" fill="#413D31"/>

<rect x="100" y="0" width="0" height="100" fill="#2A1E16"/>

</g>


<g id="4" transform="translate(400,0)scale(1,1)">


<rect x="0" y="0" width="11" height="100" fill="#EEE2C8"/>

<rect x="11" y="0" width="13" height="100" fill="#A48868"/>

<rect x="24" y="0" width="9" height="100" fill="#EC9449"/>

<rect x="33" y="0" width="43" height="100" fill="#9A4B1F"/>

<rect x="76" y="0" width="20" height="100" fill="#CF6723"/>

<rect x="96" y="0" width="1" height="100" fill="#612E13"/>

<rect x="97" y="0" width="2" height="100" fill="#67604E"/>

<rect x="99" y="0" width="1" height="100" fill="#413D31"/>

<rect x="100" y="0" width="0" height="100" fill="#2A1E16"/>

</g>


</g>

<g id="row2" transform="translate(0,200.0)">

<g id="0" transform="translate(0,0)scale(1,1)">


<rect x="0" y="0" width="11" height="100" fill="#EEE2C8"/>

<rect x="11" y="0" width="13" height="100" fill="#A48868"/>

<rect x="24" y="0" width="9" height="100" fill="#EC9449"/>

<rect x="33" y="0" width="43" height="100" fill="#9A4B1F"/>

<rect x="76" y="0" width="20" height="100" fill="#CF6723"/>

<rect x="96" y="0" width="1" height="100" fill="#612E13"/>

<rect x="97" y="0" width="2" height="100" fill="#67604E"/>

<rect x="99" y="0" width="1" height="100" fill="#413D31"/>

<rect x="100" y="0" width="0" height="100" fill="#2A1E16"/>

</g>


<g id="1" transform="translate(100,0)scale(1,1)">


<rect x="0" y="0" width="11" height="100" fill="#EEE2C8"/>

<rect x="11" y="0" width="13" height="100" fill="#A48868"/>

<rect x="24" y="0" width="9" height="100" fill="#EC9449"/>

<rect x="33" y="0" width="43" height="100" fill="#9A4B1F"/>

<rect x="76" y="0" width="20" height="100" fill="#CF6723"/>

<rect x="96" y="0" width="1" height="100" fill="#612E13"/>

<rect x="97" y="0" width="2" height="100" fill="#67604E"/>

<rect x="99" y="0" width="1" height="100" fill="#413D31"/>

<rect x="100" y="0" width="0" height="100" fill="#2A1E16"/>

</g>


<g id="2" transform="translate(200,0)scale(1,1)">


<rect x="0" y="0" width="11" height="100" fill="#EEE2C8"/>

<rect x="11" y="0" width="13" height="100" fill="#A48868"/>

<rect x="24" y="0" width="9" height="100" fill="#EC9449"/>

<rect x="33" y="0" width="43" height="100" fill="#9A4B1F"/>

<rect x="76" y="0" width="20" height="100" fill="#CF6723"/>

<rect x="96" y="0" width="1" height="100" fill="#612E13"/>

<rect x="97" y="0" width="2" height="100" fill="#67604E"/>

<rect x="99" y="0" width="1" height="100" fill="#413D31"/>

<rect x="100" y="0" width="0" height="100" fill="#2A1E16"/>

</g>


<g id="3" transform="translate(300,0)scale(1,1)">


<rect x="0" y="0" width="11" height="100" fill="#EEE2C8"/>

<rect x="11" y="0" width="13" height="100" fill="#A48868"/>

<rect x="24" y="0" width="9" height="100" fill="#EC9449"/>

<rect x="33" y="0" width="43" height="100" fill="#9A4B1F"/>

<rect x="76" y="0" width="20" height="100" fill="#CF6723"/>

<rect x="96" y="0" width="1" height="100" fill="#612E13"/>

<rect x="97" y="0" width="2" height="100" fill="#67604E"/>

<rect x="99" y="0" width="1" height="100" fill="#413D31"/>

<rect x="100" y="0" width="0" height="100" fill="#2A1E16"/>

</g>


<g id="4" transform="translate(400,0)scale(1,1)">


<rect x="0" y="0" width="11" height="100" fill="#EEE2C8"/>

<rect x="11" y="0" width="13" height="100" fill="#A48868"/>

<rect x="24" y="0" width="9" height="100" fill="#EC9449"/>

<rect x="33" y="0" width="43" height="100" fill="#9A4B1F"/>

<rect x="76" y="0" width="20" height="100" fill="#CF6723"/>

<rect x="96" y="0" width="1" height="100" fill="#612E13"/>

<rect x="97" y="0" width="2" height="100" fill="#67604E"/>

<rect x="99" y="0" width="1" height="100" fill="#413D31"/>

<rect x="100" y="0" width="0" height="100" fill="#2A1E16"/>

</g>


</g>

<g id="row3" transform="translate(0,300.0)">

<g id="0" transform="translate(0,0)scale(1,1)">


<rect x="0" y="0" width="11" height="100" fill="#EEE2C8"/>

<rect x="11" y="0" width="13" height="100" fill="#A48868"/>

<rect x="24" y="0" width="9" height="100" fill="#EC9449"/>

<rect x="33" y="0" width="43" height="100" fill="#9A4B1F"/>

<rect x="76" y="0" width="20" height="100" fill="#CF6723"/>

<rect x="96" y="0" width="1" height="100" fill="#612E13"/>

<rect x="97" y="0" width="2" height="100" fill="#67604E"/>

<rect x="99" y="0" width="1" height="100" fill="#413D31"/>

<rect x="100" y="0" width="0" height="100" fill="#2A1E16"/>

</g>


<g id="1" transform="translate(100,0)scale(1,1)">


<rect x="0" y="0" width="11" height="100" fill="#EEE2C8"/>

<rect x="11" y="0" width="13" height="100" fill="#A48868"/>

<rect x="24" y="0" width="9" height="100" fill="#EC9449"/>

<rect x="33" y="0" width="43" height="100" fill="#9A4B1F"/>

<rect x="76" y="0" width="20" height="100" fill="#CF6723"/>

<rect x="96" y="0" width="1" height="100" fill="#612E13"/>

<rect x="97" y="0" width="2" height="100" fill="#67604E"/>

<rect x="99" y="0" width="1" height="100" fill="#413D31"/>

<rect x="100" y="0" width="0" height="100" fill="#2A1E16"/>

</g>


<g id="2" transform="translate(200,0)scale(1,1)">


<rect x="0" y="0" width="11" height="100" fill="#EEE2C8"/>

<rect x="11" y="0" width="13" height="100" fill="#A48868"/>

<rect x="24" y="0" width="9" height="100" fill="#EC9449"/>

<rect x="33" y="0" width="43" height="100" fill="#9A4B1F"/>

<rect x="76" y="0" width="20" height="100" fill="#CF6723"/>

<rect x="96" y="0" width="1" height="100" fill="#612E13"/>

<rect x="97" y="0" width="2" height="100" fill="#67604E"/>

<rect x="99" y="0" width="1" height="100" fill="#413D31"/>

<rect x="100" y="0" width="0" height="100" fill="#2A1E16"/>

</g>


<g id="3" transform="translate(300,0)scale(1,1)">


<rect x="0" y="0" width="11" height="100" fill="#EEE2C8"/>

<rect x="11" y="0" width="13" height="100" fill="#A48868"/>

<rect x="24" y="0" width="9" height="100" fill="#EC9449"/>

<rect x="33" y="0" width="43" height="100" fill="#9A4B1F"/>

<rect x="76" y="0" width="20" height="100" fill="#CF6723"/>

<rect x="96" y="0" width="1" height="100" fill="#612E13"/>

<rect x="97" y="0" width="2" height="100" fill="#67604E"/>

<rect x="99" y="0" width="1" height="100" fill="#413D31"/>

<rect x="100" y="0" width="0" height="100" fill="#2A1E16"/>

</g>


<g id="4" transform="translate(400,0)scale(1,1)">


<rect x="0" y="0" width="11" height="100" fill="#EEE2C8"/>

<rect x="11" y="0" width="13" height="100" fill="#A48868"/>

<rect x="24" y="0" width="9" height="100" fill="#EC9449"/>

<rect x="33" y="0" width="43" height="100" fill="#9A4B1F"/>

<rect x="76" y="0" width="20" height="100" fill="#CF6723"/>

<rect x="96" y="0" width="1" height="100" fill="#612E13"/>

<rect x="97" y="0" width="2" height="100" fill="#67604E"/>

<rect x="99" y="0" width="1" height="100" fill="#413D31"/>

<rect x="100" y="0" width="0" height="100" fill="#2A1E16"/>

</g>


</g>

</svg>