<?xml version="1.0" standalone="no"?>
<!DOCTYPE svg PUBLIC "-//W3C//DTD SVG 20010904//EN"
 "http://www.w3.org/TR/2001/REC-SVG-20010904/DTD/svg10.dtd">
<svg version="1.0" xmlns="http://www.w3.org/2000/svg" 
width="400" height="400" viewBox="0 0 400 400"
preserveAspectRatio = "xMidYMid meet" >
<metadata>
Created by ZoeQu, written in 2022
</metadata>

<g id="row0" transform="translate(0,0.0)">

<g id="0" transform="translate(0,0)scale(1,1)">


<rect x="0" y="0" width="10" height="100" fill="#D1BAB4"/>

<rect x="10" y="0" width="12" height="100" fill="#CC8848"/>

<rect x="22" y="0" width="27" height="100" fill="#8A604B"/>

<rect x="49" y="0" width="38" height="100" fill="#7C929E"/>

<rect x="87" y="0" width="3" height="100" fill="#3B7989"/>

<rect x="90" y="0" width="4" height="100" fill="#544B42"/>

<rect x="94" y="0" width="4" height="100" fill="#2A626F"/>

<rect x="98" y="0" width="2" height="100" fill="#2B505A"/>

<rect x="100" y="0" width="0" height="100" fill="#2F3F44"/>

<rect x="100" y="0" width="0" height="100" fill="#2A2C2B"/>

</g>


<g id="1" transform="translate(100,0)scale(1,1)">


<rect x="0" y="0" width="10" height="100" fill="#D1BAB4"/>

<rect x="10" y="0" width="12" height="100" fill="#CC8848"/>

<rect x="22" y="0" width="27" height="100" fill="#8A604B"/>

<rect x="49" y="0" width="38" height="100" fill="#7C929E"/>

<rect x="87" y="0" width="3" height="100" fill="#3B7989"/>

<rect x="90" y="0" width="4" height="100" fill="#544B42"/>

<rect x="94" y="0" width="4" height="100" fill="#2A626F"/>

<rect x="98" y="0" width="2" height="100" fill="#2B505A"/>

<rect x="100" y="0" width="0" height="100" fill="#2F3F44"/>

<rect x="100" y="0" width="0" height="100" fill="#2A2C2B"/>

</g>


<g id="2" transform="translate(200,0)scale(1,1)">


<rect x="0" y="0" width="10" height="100" fill="#D1BAB4"/>

<rect x="10" y="0" width="12" height="100" fill="#CC8848"/>

<rect x="22" y="0" width="27" height="100" fill="#8A604B"/>

<rect x="49" y="0" width="38" height="100" fill="#7C929E"/>

<rect x="87" y="0" width="3" height="100" fill="#3B7989"/>

<rect x="90" y="0" width="4" height="100" fill="#544B42"/>

<rect x="94" y="0" width="4" height="100" fill="#2A626F"/>

<rect x="98" y="0" width="2" height="100" fill="#2B505A"/>

<rect x="100" y="0" width="0" height="100" fill="#2F3F44"/>

<rect x="100" y="0" width="0" height="100" fill="#2A2C2B"/>

</g>


<g id="3" transform="translate(300,0)scale(1,1)">


<rect x="0" y="0" width="10" height="100" fill="#D1BAB4"/>

<rect x="10" y="0" width="12" height="100" fill="#CC8848"/>

<rect x="22" y="0" width="27" height="100" fill="#8A604B"/>

<rect x="49" y="0" width="38" height="100" fill="#7C929E"/>

<rect x="87" y="0" width="3" height="100" fill="#3B7989"/>

<rect x="90" y="0" width="4" height="100" fill="#544B42"/>

<rect x="94" y="0" width="4" height="100" fill="#2A626F"/>

<rect x="98" y="0" width="2" height="100" fill="#2B505A"/>

<rect x="100" y="0" width="0" height="100" fill="#2F3F44"/>

<rect x="100" y="0" width="0" height="100" fill="#2A2C2B"/>

</g>


<g id="4" transform="translate(400,0)scale(1,1)">


<rect x="0" y="0" width="10" height="100" fill="#D1BAB4"/>

<rect x="10" y="0" width="12" height="100" fill="#CC8848"/>

<rect x="22" y="0" width="27" height="100" fill="#8A604B"/>

<rect x="49" y="0" width="38" height="100" fill="#7C929E"/>

<rect x="87" y="0" width="3" height="100" fill="#3B7989"/>

<rect x="90" y="0" width="4" height="100" fill="#544B42"/>

<rect x="94" y="0" width="4" height="100" fill="#2A626F"/>

<rect x="98" y="0" width="2" height="100" fill="#2B505A"/>

<rect x="100" y="0" width="0" height="100" fill="#2F3F44"/>

<rect x="100" y="0" width="0" height="100" fill="#2A2C2B"/>

</g>


</g>

<g id="row1" transform="translate(0,100.0)">

<g id="0" transform="translate(0,0)scale(1,1)">


<rect x="0" y="0" width="10" height="100" fill="#D1BAB4"/>

<rect x="10" y="0" width="12" height="100" fill="#CC8848"/>

<rect x="22" y="0" width="27" height="100" fill="#8A604B"/>

<rect x="49" y="0" width="38" height="100" fill="#7C929E"/>

<rect x="87" y="0" width="3" height="100" fill="#3B7989"/>

<rect x="90" y="0" width="4" height="100" fill="#544B42"/>

<rect x="94" y="0" width="4" height="100" fill="#2A626F"/>

<rect x="98" y="0" width="2" height="100" fill="#2B505A"/>

<rect x="100" y="0" width="0" height="100" fill="#2F3F44"/>

<rect x="100" y="0" width="0" height="100" fill="#2A2C2B"/>

</g>


<g id="1" transform="translate(100,0)scale(1,1)">


<rect x="0" y="0" width="10" height="100" fill="#D1BAB4"/>

<rect x="10" y="0" width="12" height="100" fill="#CC8848"/>

<rect x="22" y="0" width="27" height="100" fill="#8A604B"/>

<rect x="49" y="0" width="38" height="100" fill="#7C929E"/>

<rect x="87" y="0" width="3" height="100" fill="#3B7989"/>

<rect x="90" y="0" width="4" height="100" fill="#544B42"/>

<rect x="94" y="0" width="4" height="100" fill="#2A626F"/>

<rect x="98" y="0" width="2" height="100" fill="#2B505A"/>

<rect x="100" y="0" width="0" height="100" fill="#2F3F44"/>

<rect x="100" y="0" width="0" height="100" fill="#2A2C2B"/>

</g>


<g id="2" transform="translate(200,0)scale(1,1)">


<rect x="0" y="0" width="10" height="100" fill="#D1BAB4"/>

<rect x="10" y="0" width="12" height="100" fill="#CC8848"/>

<rect x="22" y="0" width="27" height="100" fill="#8A604B"/>

<rect x="49" y="0" width="38" height="100" fill="#7C929E"/>

<rect x="87" y="0" width="3" height="100" fill="#3B7989"/>

<rect x="90" y="0" width="4" height="100" fill="#544B42"/>

<rect x="94" y="0" width="4" height="100" fill="#2A626F"/>

<rect x="98" y="0" width="2" height="100" fill="#2B505A"/>

<rect x="100" y="0" width="0" height="100" fill="#2F3F44"/>

<rect x="100" y="0" width="0" height="100" fill="#2A2C2B"/>

</g>


<g id="3" transform="translate(300,0)scale(1,1)">


<rect x="0" y="0" width="10" height="100" fill="#D1BAB4"/>

<rect x="10" y="0" width="12" height="100" fill="#CC8848"/>

<rect x="22" y="0" width="27" height="100" fill="#8A604B"/>

<rect x="49" y="0" width="38" height="100" fill="#7C929E"/>

<rect x="87" y="0" width="3" height="100" fill="#3B7989"/>

<rect x="90" y="0" width="4" height="100" fill="#544B42"/>

<rect x="94" y="0" width="4" height="100" fill="#2A626F"/>

<rect x="98" y="0" width="2" height="100" fill="#2B505A"/>

<rect x="100" y="0" width="0" height="100" fill="#2F3F44"/>

<rect x="100" y="0" width="0" height="100" fill="#2A2C2B"/>

</g>


<g id="4" transform="translate(400,0)scale(1,1)">


<rect x="0" y="0" width="10" height="100" fill="#D1BAB4"/>

<rect x="10" y="0" width="12" height="100" fill="#CC8848"/>

<rect x="22" y="0" width="27" height="100" fill="#8A604B"/>

<rect x="49" y="0" width="38" height="100" fill="#7C929E"/>

<rect x="87" y="0" width="3" height="100" fill="#3B7989"/>

<rect x="90" y="0" width="4" height="100" fill="#544B42"/>

<rect x="94" y="0" width="4" height="100" fill="#2A626F"/>

<rect x="98" y="0" width="2" height="100" fill="#2B505A"/>

<rect x="100" y="0" width="0" height="100" fill="#2F3F44"/>

<rect x="100" y="0" width="0" height="100" fill="#2A2C2B"/>

</g>


</g>

<g id="row2" transform="translate(0,200.0)">

<g id="0" transform="translate(0,0)scale(1,1)">


<rect x="0" y="0" width="10" height="100" fill="#D1BAB4"/>

<rect x="10" y="0" width="12" height="100" fill="#CC8848"/>

<rect x="22" y="0" width="27" height="100" fill="#8A604B"/>

<rect x="49" y="0" width="38" height="100" fill="#7C929E"/>

<rect x="87" y="0" width="3" height="100" fill="#3B7989"/>

<rect x="90" y="0" width="4" height="100" fill="#544B42"/>

<rect x="94" y="0" width="4" height="100" fill="#2A626F"/>

<rect x="98" y="0" width="2" height="100" fill="#2B505A"/>

<rect x="100" y="0" width="0" height="100" fill="#2F3F44"/>

<rect x="100" y="0" width="0" height="100" fill="#2A2C2B"/>

</g>


<g id="1" transform="translate(100,0)scale(1,1)">


<rect x="0" y="0" width="10" height="100" fill="#D1BAB4"/>

<rect x="10" y="0" width="12" height="100" fill="#CC8848"/>

<rect x="22" y="0" width="27" height="100" fill="#8A604B"/>

<rect x="49" y="0" width="38" height="100" fill="#7C929E"/>

<rect x="87" y="0" width="3" height="100" fill="#3B7989"/>

<rect x="90" y="0" width="4" height="100" fill="#544B42"/>

<rect x="94" y="0" width="4" height="100" fill="#2A626F"/>

<rect x="98" y="0" width="2" height="100" fill="#2B505A"/>

<rect x="100" y="0" width="0" height="100" fill="#2F3F44"/>

<rect x="100" y="0" width="0" height="100" fill="#2A2C2B"/>

</g>


<g id="2" transform="translate(200,0)scale(1,1)">


<rect x="0" y="0" width="10" height="100" fill="#D1BAB4"/>

<rect x="10" y="0" width="12" height="100" fill="#CC8848"/>

<rect x="22" y="0" width="27" height="100" fill="#8A604B"/>

<rect x="49" y="0" width="38" height="100" fill="#7C929E"/>

<rect x="87" y="0" width="3" height="100" fill="#3B7989"/>

<rect x="90" y="0" width="4" height="100" fill="#544B42"/>

<rect x="94" y="0" width="4" height="100" fill="#2A626F"/>

<rect x="98" y="0" width="2" height="100" fill="#2B505A"/>

<rect x="100" y="0" width="0" height="100" fill="#2F3F44"/>

<rect x="100" y="0" width="0" height="100" fill="#2A2C2B"/>

</g>


<g id="3" transform="translate(300,0)scale(1,1)">


<rect x="0" y="0" width="10" height="100" fill="#D1BAB4"/>

<rect x="10" y="0" width="12" height="100" fill="#CC8848"/>

<rect x="22" y="0" width="27" height="100" fill="#8A604B"/>

<rect x="49" y="0" width="38" height="100" fill="#7C929E"/>

<rect x="87" y="0" width="3" height="100" fill="#3B7989"/>

<rect x="90" y="0" width="4" height="100" fill="#544B42"/>

<rect x="94" y="0" width="4" height="100" fill="#2A626F"/>

<rect x="98" y="0" width="2" height="100" fill="#2B505A"/>

<rect x="100" y="0" width="0" height="100" fill="#2F3F44"/>

<rect x="100" y="0" width="0" height="100" fill="#2A2C2B"/>

</g>


<g id="4" transform="translate(400,0)scale(1,1)">


<rect x="0" y="0" width="10" height="100" fill="#D1BAB4"/>

<rect x="10" y="0" width="12" height="100" fill="#CC8848"/>

<rect x="22" y="0" width="27" height="100" fill="#8A604B"/>

<rect x="49" y="0" width="38" height="100" fill="#7C929E"/>

<rect x="87" y="0" width="3" height="100" fill="#3B7989"/>

<rect x="90" y="0" width="4" height="100" fill="#544B42"/>

<rect x="94" y="0" width="4" height="100" fill="#2A626F"/>

<rect x="98" y="0" width="2" height="100" fill="#2B505A"/>

<rect x="100" y="0" width="0" height="100" fill="#2F3F44"/>

<rect x="100" y="0" width="0" height="100" fill="#2A2C2B"/>

</g>


</g>

<g id="row3" transform="translate(0,300.0)">

<g id="0" transform="translate(0,0)scale(1,1)">


<rect x="0" y="0" width="10" height="100" fill="#D1BAB4"/>

<rect x="10" y="0" width="12" height="100" fill="#CC8848"/>

<rect x="22" y="0" width="27" height="100" fill="#8A604B"/>

<rect x="49" y="0" width="38" height="100" fill="#7C929E"/>

<rect x="87" y="0" width="3" height="100" fill="#3B7989"/>

<rect x="90" y="0" width="4" height="100" fill="#544B42"/>

<rect x="94" y="0" width="4" height="100" fill="#2A626F"/>

<rect x="98" y="0" width="2" height="100" fill="#2B505A"/>

<rect x="100" y="0" width="0" height="100" fill="#2F3F44"/>

<rect x="100" y="0" width="0" height="100" fill="#2A2C2B"/>

</g>


<g id="1" transform="translate(100,0)scale(1,1)">


<rect x="0" y="0" width="10" height="100" fill="#D1BAB4"/>

<rect x="10" y="0" width="12" height="100" fill="#CC8848"/>

<rect x="22" y="0" width="27" height="100" fill="#8A604B"/>

<rect x="49" y="0" width="38" height="100" fill="#7C929E"/>

<rect x="87" y="0" width="3" height="100" fill="#3B7989"/>

<rect x="90" y="0" width="4" height="100" fill="#544B42"/>

<rect x="94" y="0" width="4" height="100" fill="#2A626F"/>

<rect x="98" y="0" width="2" height="100" fill="#2B505A"/>

<rect x="100" y="0" width="0" height="100" fill="#2F3F44"/>

<rect x="100" y="0" width="0" height="100" fill="#2A2C2B"/>

</g>


<g id="2" transform="translate(200,0)scale(1,1)">


<rect x="0" y="0" width="10" height="100" fill="#D1BAB4"/>

<rect x="10" y="0" width="12" height="100" fill="#CC8848"/>

<rect x="22" y="0" width="27" height="100" fill="#8A604B"/>

<rect x="49" y="0" width="38" height="100" fill="#7C929E"/>

<rect x="87" y="0" width="3" height="100" fill="#3B7989"/>

<rect x="90" y="0" width="4" height="100" fill="#544B42"/>

<rect x="94" y="0" width="4" height="100" fill="#2A626F"/>

<rect x="98" y="0" width="2" height="100" fill="#2B505A"/>

<rect x="100" y="0" width="0" height="100" fill="#2F3F44"/>

<rect x="100" y="0" width="0" height="100" fill="#2A2C2B"/>

</g>


<g id="3" transform="translate(300,0)scale(1,1)">


<rect x="0" y="0" width="10" height="100" fill="#D1BAB4"/>

<rect x="10" y="0" width="12" height="100" fill="#CC8848"/>

<rect x="22" y="0" width="27" height="100" fill="#8A604B"/>

<rect x="49" y="0" width="38" height="100" fill="#7C929E"/>

<rect x="87" y="0" width="3" height="100" fill="#3B7989"/>

<rect x="90" y="0" width="4" height="100" fill="#544B42"/>

<rect x="94" y="0" width="4" height="100" fill="#2A626F"/>

<rect x="98" y="0" width="2" height="100" fill="#2B505A"/>

<rect x="100" y="0" width="0" height="100" fill="#2F3F44"/>

<rect x="100" y="0" width="0" height="100" fill="#2A2C2B"/>

</g>


<g id="4" transform="translate(400,0)scale(1,1)">


<rect x="0" y="0" width="10" height="100" fill="#D1BAB4"/>

<rect x="10" y="0" width="12" height="100" fill="#CC8848"/>

<rect x="22" y="0" width="27" height="100" fill="#8A604B"/>

<rect x="49" y="0" width="38" height="100" fill="#7C929E"/>

<rect x="87" y="0" width="3" height="100" fill="#3B7989"/>

<rect x="90" y="0" width="4" height="100" fill="#544B42"/>

<rect x="94" y="0" width="4" height="100" fill="#2A626F"/>

<rect x="98" y="0" width="2" height="100" fill="#2B505A"/>

<rect x="100" y="0" width="0" height="100" fill="#2F3F44"/>

<rect x="100" y="0" width="0" height="100" fill="#2A2C2B"/>

</g>


</g>

</svg>