<?xml version="1.0" standalone="no"?>
<!DOCTYPE svg PUBLIC "-//W3C//DTD SVG 20010904//EN"
 "http://www.w3.org/TR/2001/REC-SVG-20010904/DTD/svg10.dtd">
<svg version="1.0" xmlns="http://www.w3.org/2000/svg" 
width="400" height="400" viewBox="0 0 400 400"
preserveAspectRatio = "xMidYMid meet" >
<metadata>
Created by ZoeQu, written in 2022
</metadata>

<g id="row0" transform="translate(0,0.0)">

<g id="0" transform="translate(0,0)scale(1,1)">


<rect x="0" y="0" width="10" height="100" fill="#EEE3CB"/>

<rect x="10" y="0" width="44" height="100" fill="#A58B6B"/>

<rect x="54" y="0" width="15" height="100" fill="#EC9850"/>

<rect x="69" y="0" width="8" height="100" fill="#7A3B18"/>

<rect x="77" y="0" width="5" height="100" fill="#D96F26"/>

<rect x="82" y="0" width="16" height="100" fill="#AB5522"/>

<rect x="98" y="0" width="1" height="100" fill="#4C2613"/>

<rect x="99" y="0" width="0" height="100" fill="#6C6350"/>

<rect x="99" y="0" width="1" height="100" fill="#231E17"/>

<rect x="100" y="0" width="0" height="100" fill="#444134"/>

</g>


<g id="1" transform="translate(100,0)scale(1,1)">


<rect x="0" y="0" width="10" height="100" fill="#EEE3CB"/>

<rect x="10" y="0" width="44" height="100" fill="#A58B6B"/>

<rect x="54" y="0" width="15" height="100" fill="#EC9850"/>

<rect x="69" y="0" width="8" height="100" fill="#7A3B18"/>

<rect x="77" y="0" width="5" height="100" fill="#D96F26"/>

<rect x="82" y="0" width="16" height="100" fill="#AB5522"/>

<rect x="98" y="0" width="1" height="100" fill="#4C2613"/>

<rect x="99" y="0" width="0" height="100" fill="#6C6350"/>

<rect x="99" y="0" width="1" height="100" fill="#231E17"/>

<rect x="100" y="0" width="0" height="100" fill="#444134"/>

</g>


<g id="2" transform="translate(200,0)scale(1,1)">


<rect x="0" y="0" width="10" height="100" fill="#EEE3CB"/>

<rect x="10" y="0" width="44" height="100" fill="#A58B6B"/>

<rect x="54" y="0" width="15" height="100" fill="#EC9850"/>

<rect x="69" y="0" width="8" height="100" fill="#7A3B18"/>

<rect x="77" y="0" width="5" height="100" fill="#D96F26"/>

<rect x="82" y="0" width="16" height="100" fill="#AB5522"/>

<rect x="98" y="0" width="1" height="100" fill="#4C2613"/>

<rect x="99" y="0" width="0" height="100" fill="#6C6350"/>

<rect x="99" y="0" width="1" height="100" fill="#231E17"/>

<rect x="100" y="0" width="0" height="100" fill="#444134"/>

</g>


<g id="3" transform="translate(300,0)scale(1,1)">


<rect x="0" y="0" width="10" height="100" fill="#EEE3CB"/>

<rect x="10" y="0" width="44" height="100" fill="#A58B6B"/>

<rect x="54" y="0" width="15" height="100" fill="#EC9850"/>

<rect x="69" y="0" width="8" height="100" fill="#7A3B18"/>

<rect x="77" y="0" width="5" height="100" fill="#D96F26"/>

<rect x="82" y="0" width="16" height="100" fill="#AB5522"/>

<rect x="98" y="0" width="1" height="100" fill="#4C2613"/>

<rect x="99" y="0" width="0" height="100" fill="#6C6350"/>

<rect x="99" y="0" width="1" height="100" fill="#231E17"/>

<rect x="100" y="0" width="0" height="100" fill="#444134"/>

</g>


<g id="4" transform="translate(400,0)scale(1,1)">


<rect x="0" y="0" width="10" height="100" fill="#EEE3CB"/>

<rect x="10" y="0" width="44" height="100" fill="#A58B6B"/>

<rect x="54" y="0" width="15" height="100" fill="#EC9850"/>

<rect x="69" y="0" width="8" height="100" fill="#7A3B18"/>

<rect x="77" y="0" width="5" height="100" fill="#D96F26"/>

<rect x="82" y="0" width="16" height="100" fill="#AB5522"/>

<rect x="98" y="0" width="1" height="100" fill="#4C2613"/>

<rect x="99" y="0" width="0" height="100" fill="#6C6350"/>

<rect x="99" y="0" width="1" height="100" fill="#231E17"/>

<rect x="100" y="0" width="0" height="100" fill="#444134"/>

</g>


</g>

<g id="row1" transform="translate(0,100.0)">

<g id="0" transform="translate(0,0)scale(1,1)">


<rect x="0" y="0" width="10" height="100" fill="#EEE3CB"/>

<rect x="10" y="0" width="44" height="100" fill="#A58B6B"/>

<rect x="54" y="0" width="15" height="100" fill="#EC9850"/>

<rect x="69" y="0" width="8" height="100" fill="#7A3B18"/>

<rect x="77" y="0" width="5" height="100" fill="#D96F26"/>

<rect x="82" y="0" width="16" height="100" fill="#AB5522"/>

<rect x="98" y="0" width="1" height="100" fill="#4C2613"/>

<rect x="99" y="0" width="0" height="100" fill="#6C6350"/>

<rect x="99" y="0" width="1" height="100" fill="#231E17"/>

<rect x="100" y="0" width="0" height="100" fill="#444134"/>

</g>


<g id="1" transform="translate(100,0)scale(1,1)">


<rect x="0" y="0" width="10" height="100" fill="#EEE3CB"/>

<rect x="10" y="0" width="44" height="100" fill="#A58B6B"/>

<rect x="54" y="0" width="15" height="100" fill="#EC9850"/>

<rect x="69" y="0" width="8" height="100" fill="#7A3B18"/>

<rect x="77" y="0" width="5" height="100" fill="#D96F26"/>

<rect x="82" y="0" width="16" height="100" fill="#AB5522"/>

<rect x="98" y="0" width="1" height="100" fill="#4C2613"/>

<rect x="99" y="0" width="0" height="100" fill="#6C6350"/>

<rect x="99" y="0" width="1" height="100" fill="#231E17"/>

<rect x="100" y="0" width="0" height="100" fill="#444134"/>

</g>


<g id="2" transform="translate(200,0)scale(1,1)">


<rect x="0" y="0" width="10" height="100" fill="#EEE3CB"/>

<rect x="10" y="0" width="44" height="100" fill="#A58B6B"/>

<rect x="54" y="0" width="15" height="100" fill="#EC9850"/>

<rect x="69" y="0" width="8" height="100" fill="#7A3B18"/>

<rect x="77" y="0" width="5" height="100" fill="#D96F26"/>

<rect x="82" y="0" width="16" height="100" fill="#AB5522"/>

<rect x="98" y="0" width="1" height="100" fill="#4C2613"/>

<rect x="99" y="0" width="0" height="100" fill="#6C6350"/>

<rect x="99" y="0" width="1" height="100" fill="#231E17"/>

<rect x="100" y="0" width="0" height="100" fill="#444134"/>

</g>


<g id="3" transform="translate(300,0)scale(1,1)">


<rect x="0" y="0" width="10" height="100" fill="#EEE3CB"/>

<rect x="10" y="0" width="44" height="100" fill="#A58B6B"/>

<rect x="54" y="0" width="15" height="100" fill="#EC9850"/>

<rect x="69" y="0" width="8" height="100" fill="#7A3B18"/>

<rect x="77" y="0" width="5" height="100" fill="#D96F26"/>

<rect x="82" y="0" width="16" height="100" fill="#AB5522"/>

<rect x="98" y="0" width="1" height="100" fill="#4C2613"/>

<rect x="99" y="0" width="0" height="100" fill="#6C6350"/>

<rect x="99" y="0" width="1" height="100" fill="#231E17"/>

<rect x="100" y="0" width="0" height="100" fill="#444134"/>

</g>


<g id="4" transform="translate(400,0)scale(1,1)">


<rect x="0" y="0" width="10" height="100" fill="#EEE3CB"/>

<rect x="10" y="0" width="44" height="100" fill="#A58B6B"/>

<rect x="54" y="0" width="15" height="100" fill="#EC9850"/>

<rect x="69" y="0" width="8" height="100" fill="#7A3B18"/>

<rect x="77" y="0" width="5" height="100" fill="#D96F26"/>

<rect x="82" y="0" width="16" height="100" fill="#AB5522"/>

<rect x="98" y="0" width="1" height="100" fill="#4C2613"/>

<rect x="99" y="0" width="0" height="100" fill="#6C6350"/>

<rect x="99" y="0" width="1" height="100" fill="#231E17"/>

<rect x="100" y="0" width="0" height="100" fill="#444134"/>

</g>


</g>

<g id="row2" transform="translate(0,200.0)">

<g id="0" transform="translate(0,0)scale(1,1)">


<rect x="0" y="0" width="10" height="100" fill="#EEE3CB"/>

<rect x="10" y="0" width="44" height="100" fill="#A58B6B"/>

<rect x="54" y="0" width="15" height="100" fill="#EC9850"/>

<rect x="69" y="0" width="8" height="100" fill="#7A3B18"/>

<rect x="77" y="0" width="5" height="100" fill="#D96F26"/>

<rect x="82" y="0" width="16" height="100" fill="#AB5522"/>

<rect x="98" y="0" width="1" height="100" fill="#4C2613"/>

<rect x="99" y="0" width="0" height="100" fill="#6C6350"/>

<rect x="99" y="0" width="1" height="100" fill="#231E17"/>

<rect x="100" y="0" width="0" height="100" fill="#444134"/>

</g>


<g id="1" transform="translate(100,0)scale(1,1)">


<rect x="0" y="0" width="10" height="100" fill="#EEE3CB"/>

<rect x="10" y="0" width="44" height="100" fill="#A58B6B"/>

<rect x="54" y="0" width="15" height="100" fill="#EC9850"/>

<rect x="69" y="0" width="8" height="100" fill="#7A3B18"/>

<rect x="77" y="0" width="5" height="100" fill="#D96F26"/>

<rect x="82" y="0" width="16" height="100" fill="#AB5522"/>

<rect x="98" y="0" width="1" height="100" fill="#4C2613"/>

<rect x="99" y="0" width="0" height="100" fill="#6C6350"/>

<rect x="99" y="0" width="1" height="100" fill="#231E17"/>

<rect x="100" y="0" width="0" height="100" fill="#444134"/>

</g>


<g id="2" transform="translate(200,0)scale(1,1)">


<rect x="0" y="0" width="10" height="100" fill="#EEE3CB"/>

<rect x="10" y="0" width="44" height="100" fill="#A58B6B"/>

<rect x="54" y="0" width="15" height="100" fill="#EC9850"/>

<rect x="69" y="0" width="8" height="100" fill="#7A3B18"/>

<rect x="77" y="0" width="5" height="100" fill="#D96F26"/>

<rect x="82" y="0" width="16" height="100" fill="#AB5522"/>

<rect x="98" y="0" width="1" height="100" fill="#4C2613"/>

<rect x="99" y="0" width="0" height="100" fill="#6C6350"/>

<rect x="99" y="0" width="1" height="100" fill="#231E17"/>

<rect x="100" y="0" width="0" height="100" fill="#444134"/>

</g>


<g id="3" transform="translate(300,0)scale(1,1)">


<rect x="0" y="0" width="10" height="100" fill="#EEE3CB"/>

<rect x="10" y="0" width="44" height="100" fill="#A58B6B"/>

<rect x="54" y="0" width="15" height="100" fill="#EC9850"/>

<rect x="69" y="0" width="8" height="100" fill="#7A3B18"/>

<rect x="77" y="0" width="5" height="100" fill="#D96F26"/>

<rect x="82" y="0" width="16" height="100" fill="#AB5522"/>

<rect x="98" y="0" width="1" height="100" fill="#4C2613"/>

<rect x="99" y="0" width="0" height="100" fill="#6C6350"/>

<rect x="99" y="0" width="1" height="100" fill="#231E17"/>

<rect x="100" y="0" width="0" height="100" fill="#444134"/>

</g>


<g id="4" transform="translate(400,0)scale(1,1)">


<rect x="0" y="0" width="10" height="100" fill="#EEE3CB"/>

<rect x="10" y="0" width="44" height="100" fill="#A58B6B"/>

<rect x="54" y="0" width="15" height="100" fill="#EC9850"/>

<rect x="69" y="0" width="8" height="100" fill="#7A3B18"/>

<rect x="77" y="0" width="5" height="100" fill="#D96F26"/>

<rect x="82" y="0" width="16" height="100" fill="#AB5522"/>

<rect x="98" y="0" width="1" height="100" fill="#4C2613"/>

<rect x="99" y="0" width="0" height="100" fill="#6C6350"/>

<rect x="99" y="0" width="1" height="100" fill="#231E17"/>

<rect x="100" y="0" width="0" height="100" fill="#444134"/>

</g>


</g>

<g id="row3" transform="translate(0,300.0)">

<g id="0" transform="translate(0,0)scale(1,1)">


<rect x="0" y="0" width="10" height="100" fill="#EEE3CB"/>

<rect x="10" y="0" width="44" height="100" fill="#A58B6B"/>

<rect x="54" y="0" width="15" height="100" fill="#EC9850"/>

<rect x="69" y="0" width="8" height="100" fill="#7A3B18"/>

<rect x="77" y="0" width="5" height="100" fill="#D96F26"/>

<rect x="82" y="0" width="16" height="100" fill="#AB5522"/>

<rect x="98" y="0" width="1" height="100" fill="#4C2613"/>

<rect x="99" y="0" width="0" height="100" fill="#6C6350"/>

<rect x="99" y="0" width="1" height="100" fill="#231E17"/>

<rect x="100" y="0" width="0" height="100" fill="#444134"/>

</g>


<g id="1" transform="translate(100,0)scale(1,1)">


<rect x="0" y="0" width="10" height="100" fill="#EEE3CB"/>

<rect x="10" y="0" width="44" height="100" fill="#A58B6B"/>

<rect x="54" y="0" width="15" height="100" fill="#EC9850"/>

<rect x="69" y="0" width="8" height="100" fill="#7A3B18"/>

<rect x="77" y="0" width="5" height="100" fill="#D96F26"/>

<rect x="82" y="0" width="16" height="100" fill="#AB5522"/>

<rect x="98" y="0" width="1" height="100" fill="#4C2613"/>

<rect x="99" y="0" width="0" height="100" fill="#6C6350"/>

<rect x="99" y="0" width="1" height="100" fill="#231E17"/>

<rect x="100" y="0" width="0" height="100" fill="#444134"/>

</g>


<g id="2" transform="translate(200,0)scale(1,1)">


<rect x="0" y="0" width="10" height="100" fill="#EEE3CB"/>

<rect x="10" y="0" width="44" height="100" fill="#A58B6B"/>

<rect x="54" y="0" width="15" height="100" fill="#EC9850"/>

<rect x="69" y="0" width="8" height="100" fill="#7A3B18"/>

<rect x="77" y="0" width="5" height="100" fill="#D96F26"/>

<rect x="82" y="0" width="16" height="100" fill="#AB5522"/>

<rect x="98" y="0" width="1" height="100" fill="#4C2613"/>

<rect x="99" y="0" width="0" height="100" fill="#6C6350"/>

<rect x="99" y="0" width="1" height="100" fill="#231E17"/>

<rect x="100" y="0" width="0" height="100" fill="#444134"/>

</g>


<g id="3" transform="translate(300,0)scale(1,1)">


<rect x="0" y="0" width="10" height="100" fill="#EEE3CB"/>

<rect x="10" y="0" width="44" height="100" fill="#A58B6B"/>

<rect x="54" y="0" width="15" height="100" fill="#EC9850"/>

<rect x="69" y="0" width="8" height="100" fill="#7A3B18"/>

<rect x="77" y="0" width="5" height="100" fill="#D96F26"/>

<rect x="82" y="0" width="16" height="100" fill="#AB5522"/>

<rect x="98" y="0" width="1" height="100" fill="#4C2613"/>

<rect x="99" y="0" width="0" height="100" fill="#6C6350"/>

<rect x="99" y="0" width="1" height="100" fill="#231E17"/>

<rect x="100" y="0" width="0" height="100" fill="#444134"/>

</g>


<g id="4" transform="translate(400,0)scale(1,1)">


<rect x="0" y="0" width="10" height="100" fill="#EEE3CB"/>

<rect x="10" y="0" width="44" height="100" fill="#A58B6B"/>

<rect x="54" y="0" width="15" height="100" fill="#EC9850"/>

<rect x="69" y="0" width="8" height="100" fill="#7A3B18"/>

<rect x="77" y="0" width="5" height="100" fill="#D96F26"/>

<rect x="82" y="0" width="16" height="100" fill="#AB5522"/>

<rect x="98" y="0" width="1" height="100" fill="#4C2613"/>

<rect x="99" y="0" width="0" height="100" fill="#6C6350"/>

<rect x="99" y="0" width="1" height="100" fill="#231E17"/>

<rect x="100" y="0" width="0" height="100" fill="#444134"/>

</g>


</g>

</svg>