<?xml version="1.0" standalone="no"?>
<!DOCTYPE svg PUBLIC "-//W3C//DTD SVG 20010904//EN"
 "http://www.w3.org/TR/2001/REC-SVG-20010904/DTD/svg10.dtd">
<svg version="1.0" xmlns="http://www.w3.org/2000/svg" 
width="400" height="400" viewBox="0 0 400 400"
preserveAspectRatio = "xMidYMid meet" >
<metadata>
Created by ZoeQu, written in 2022
</metadata>

<g id="row0" transform="translate(0,0.0)">

<g id="0" transform="translate(0,0)scale(1,1)">


<rect x="0" y="0" width="10" height="100" fill="#ECE1C9"/>

<rect x="10" y="0" width="63" height="100" fill="#9F8567"/>

<rect x="73" y="0" width="4" height="100" fill="#EA944B"/>

<rect x="77" y="0" width="15" height="100" fill="#9B4C1D"/>

<rect x="92" y="0" width="6" height="100" fill="#D16824"/>

<rect x="98" y="0" width="1" height="100" fill="#622D14"/>

<rect x="99" y="0" width="1" height="100" fill="#645D4B"/>

<rect x="100" y="0" width="0" height="100" fill="#403C30"/>

<rect x="100" y="0" width="0" height="100" fill="#291E15"/>

</g>


<g id="1" transform="translate(100,0)scale(1,1)">


<rect x="0" y="0" width="10" height="100" fill="#ECE1C9"/>

<rect x="10" y="0" width="63" height="100" fill="#9F8567"/>

<rect x="73" y="0" width="4" height="100" fill="#EA944B"/>

<rect x="77" y="0" width="15" height="100" fill="#9B4C1D"/>

<rect x="92" y="0" width="6" height="100" fill="#D16824"/>

<rect x="98" y="0" width="1" height="100" fill="#622D14"/>

<rect x="99" y="0" width="1" height="100" fill="#645D4B"/>

<rect x="100" y="0" width="0" height="100" fill="#403C30"/>

<rect x="100" y="0" width="0" height="100" fill="#291E15"/>

</g>


<g id="2" transform="translate(200,0)scale(1,1)">


<rect x="0" y="0" width="10" height="100" fill="#ECE1C9"/>

<rect x="10" y="0" width="63" height="100" fill="#9F8567"/>

<rect x="73" y="0" width="4" height="100" fill="#EA944B"/>

<rect x="77" y="0" width="15" height="100" fill="#9B4C1D"/>

<rect x="92" y="0" width="6" height="100" fill="#D16824"/>

<rect x="98" y="0" width="1" height="100" fill="#622D14"/>

<rect x="99" y="0" width="1" height="100" fill="#645D4B"/>

<rect x="100" y="0" width="0" height="100" fill="#403C30"/>

<rect x="100" y="0" width="0" height="100" fill="#291E15"/>

</g>


<g id="3" transform="translate(300,0)scale(1,1)">


<rect x="0" y="0" width="10" height="100" fill="#ECE1C9"/>

<rect x="10" y="0" width="63" height="100" fill="#9F8567"/>

<rect x="73" y="0" width="4" height="100" fill="#EA944B"/>

<rect x="77" y="0" width="15" height="100" fill="#9B4C1D"/>

<rect x="92" y="0" width="6" height="100" fill="#D16824"/>

<rect x="98" y="0" width="1" height="100" fill="#622D14"/>

<rect x="99" y="0" width="1" height="100" fill="#645D4B"/>

<rect x="100" y="0" width="0" height="100" fill="#403C30"/>

<rect x="100" y="0" width="0" height="100" fill="#291E15"/>

</g>


<g id="4" transform="translate(400,0)scale(1,1)">


<rect x="0" y="0" width="10" height="100" fill="#ECE1C9"/>

<rect x="10" y="0" width="63" height="100" fill="#9F8567"/>

<rect x="73" y="0" width="4" height="100" fill="#EA944B"/>

<rect x="77" y="0" width="15" height="100" fill="#9B4C1D"/>

<rect x="92" y="0" width="6" height="100" fill="#D16824"/>

<rect x="98" y="0" width="1" height="100" fill="#622D14"/>

<rect x="99" y="0" width="1" height="100" fill="#645D4B"/>

<rect x="100" y="0" width="0" height="100" fill="#403C30"/>

<rect x="100" y="0" width="0" height="100" fill="#291E15"/>

</g>


</g>

<g id="row1" transform="translate(0,100.0)">

<g id="0" transform="translate(0,0)scale(1,1)">


<rect x="0" y="0" width="10" height="100" fill="#ECE1C9"/>

<rect x="10" y="0" width="63" height="100" fill="#9F8567"/>

<rect x="73" y="0" width="4" height="100" fill="#EA944B"/>

<rect x="77" y="0" width="15" height="100" fill="#9B4C1D"/>

<rect x="92" y="0" width="6" height="100" fill="#D16824"/>

<rect x="98" y="0" width="1" height="100" fill="#622D14"/>

<rect x="99" y="0" width="1" height="100" fill="#645D4B"/>

<rect x="100" y="0" width="0" height="100" fill="#403C30"/>

<rect x="100" y="0" width="0" height="100" fill="#291E15"/>

</g>


<g id="1" transform="translate(100,0)scale(1,1)">


<rect x="0" y="0" width="10" height="100" fill="#ECE1C9"/>

<rect x="10" y="0" width="63" height="100" fill="#9F8567"/>

<rect x="73" y="0" width="4" height="100" fill="#EA944B"/>

<rect x="77" y="0" width="15" height="100" fill="#9B4C1D"/>

<rect x="92" y="0" width="6" height="100" fill="#D16824"/>

<rect x="98" y="0" width="1" height="100" fill="#622D14"/>

<rect x="99" y="0" width="1" height="100" fill="#645D4B"/>

<rect x="100" y="0" width="0" height="100" fill="#403C30"/>

<rect x="100" y="0" width="0" height="100" fill="#291E15"/>

</g>


<g id="2" transform="translate(200,0)scale(1,1)">


<rect x="0" y="0" width="10" height="100" fill="#ECE1C9"/>

<rect x="10" y="0" width="63" height="100" fill="#9F8567"/>

<rect x="73" y="0" width="4" height="100" fill="#EA944B"/>

<rect x="77" y="0" width="15" height="100" fill="#9B4C1D"/>

<rect x="92" y="0" width="6" height="100" fill="#D16824"/>

<rect x="98" y="0" width="1" height="100" fill="#622D14"/>

<rect x="99" y="0" width="1" height="100" fill="#645D4B"/>

<rect x="100" y="0" width="0" height="100" fill="#403C30"/>

<rect x="100" y="0" width="0" height="100" fill="#291E15"/>

</g>


<g id="3" transform="translate(300,0)scale(1,1)">


<rect x="0" y="0" width="10" height="100" fill="#ECE1C9"/>

<rect x="10" y="0" width="63" height="100" fill="#9F8567"/>

<rect x="73" y="0" width="4" height="100" fill="#EA944B"/>

<rect x="77" y="0" width="15" height="100" fill="#9B4C1D"/>

<rect x="92" y="0" width="6" height="100" fill="#D16824"/>

<rect x="98" y="0" width="1" height="100" fill="#622D14"/>

<rect x="99" y="0" width="1" height="100" fill="#645D4B"/>

<rect x="100" y="0" width="0" height="100" fill="#403C30"/>

<rect x="100" y="0" width="0" height="100" fill="#291E15"/>

</g>


<g id="4" transform="translate(400,0)scale(1,1)">


<rect x="0" y="0" width="10" height="100" fill="#ECE1C9"/>

<rect x="10" y="0" width="63" height="100" fill="#9F8567"/>

<rect x="73" y="0" width="4" height="100" fill="#EA944B"/>

<rect x="77" y="0" width="15" height="100" fill="#9B4C1D"/>

<rect x="92" y="0" width="6" height="100" fill="#D16824"/>

<rect x="98" y="0" width="1" height="100" fill="#622D14"/>

<rect x="99" y="0" width="1" height="100" fill="#645D4B"/>

<rect x="100" y="0" width="0" height="100" fill="#403C30"/>

<rect x="100" y="0" width="0" height="100" fill="#291E15"/>

</g>


</g>

<g id="row2" transform="translate(0,200.0)">

<g id="0" transform="translate(0,0)scale(1,1)">


<rect x="0" y="0" width="10" height="100" fill="#ECE1C9"/>

<rect x="10" y="0" width="63" height="100" fill="#9F8567"/>

<rect x="73" y="0" width="4" height="100" fill="#EA944B"/>

<rect x="77" y="0" width="15" height="100" fill="#9B4C1D"/>

<rect x="92" y="0" width="6" height="100" fill="#D16824"/>

<rect x="98" y="0" width="1" height="100" fill="#622D14"/>

<rect x="99" y="0" width="1" height="100" fill="#645D4B"/>

<rect x="100" y="0" width="0" height="100" fill="#403C30"/>

<rect x="100" y="0" width="0" height="100" fill="#291E15"/>

</g>


<g id="1" transform="translate(100,0)scale(1,1)">


<rect x="0" y="0" width="10" height="100" fill="#ECE1C9"/>

<rect x="10" y="0" width="63" height="100" fill="#9F8567"/>

<rect x="73" y="0" width="4" height="100" fill="#EA944B"/>

<rect x="77" y="0" width="15" height="100" fill="#9B4C1D"/>

<rect x="92" y="0" width="6" height="100" fill="#D16824"/>

<rect x="98" y="0" width="1" height="100" fill="#622D14"/>

<rect x="99" y="0" width="1" height="100" fill="#645D4B"/>

<rect x="100" y="0" width="0" height="100" fill="#403C30"/>

<rect x="100" y="0" width="0" height="100" fill="#291E15"/>

</g>


<g id="2" transform="translate(200,0)scale(1,1)">


<rect x="0" y="0" width="10" height="100" fill="#ECE1C9"/>

<rect x="10" y="0" width="63" height="100" fill="#9F8567"/>

<rect x="73" y="0" width="4" height="100" fill="#EA944B"/>

<rect x="77" y="0" width="15" height="100" fill="#9B4C1D"/>

<rect x="92" y="0" width="6" height="100" fill="#D16824"/>

<rect x="98" y="0" width="1" height="100" fill="#622D14"/>

<rect x="99" y="0" width="1" height="100" fill="#645D4B"/>

<rect x="100" y="0" width="0" height="100" fill="#403C30"/>

<rect x="100" y="0" width="0" height="100" fill="#291E15"/>

</g>


<g id="3" transform="translate(300,0)scale(1,1)">


<rect x="0" y="0" width="10" height="100" fill="#ECE1C9"/>

<rect x="10" y="0" width="63" height="100" fill="#9F8567"/>

<rect x="73" y="0" width="4" height="100" fill="#EA944B"/>

<rect x="77" y="0" width="15" height="100" fill="#9B4C1D"/>

<rect x="92" y="0" width="6" height="100" fill="#D16824"/>

<rect x="98" y="0" width="1" height="100" fill="#622D14"/>

<rect x="99" y="0" width="1" height="100" fill="#645D4B"/>

<rect x="100" y="0" width="0" height="100" fill="#403C30"/>

<rect x="100" y="0" width="0" height="100" fill="#291E15"/>

</g>


<g id="4" transform="translate(400,0)scale(1,1)">


<rect x="0" y="0" width="10" height="100" fill="#ECE1C9"/>

<rect x="10" y="0" width="63" height="100" fill="#9F8567"/>

<rect x="73" y="0" width="4" height="100" fill="#EA944B"/>

<rect x="77" y="0" width="15" height="100" fill="#9B4C1D"/>

<rect x="92" y="0" width="6" height="100" fill="#D16824"/>

<rect x="98" y="0" width="1" height="100" fill="#622D14"/>

<rect x="99" y="0" width="1" height="100" fill="#645D4B"/>

<rect x="100" y="0" width="0" height="100" fill="#403C30"/>

<rect x="100" y="0" width="0" height="100" fill="#291E15"/>

</g>


</g>

<g id="row3" transform="translate(0,300.0)">

<g id="0" transform="translate(0,0)scale(1,1)">


<rect x="0" y="0" width="10" height="100" fill="#ECE1C9"/>

<rect x="10" y="0" width="63" height="100" fill="#9F8567"/>

<rect x="73" y="0" width="4" height="100" fill="#EA944B"/>

<rect x="77" y="0" width="15" height="100" fill="#9B4C1D"/>

<rect x="92" y="0" width="6" height="100" fill="#D16824"/>

<rect x="98" y="0" width="1" height="100" fill="#622D14"/>

<rect x="99" y="0" width="1" height="100" fill="#645D4B"/>

<rect x="100" y="0" width="0" height="100" fill="#403C30"/>

<rect x="100" y="0" width="0" height="100" fill="#291E15"/>

</g>


<g id="1" transform="translate(100,0)scale(1,1)">


<rect x="0" y="0" width="10" height="100" fill="#ECE1C9"/>

<rect x="10" y="0" width="63" height="100" fill="#9F8567"/>

<rect x="73" y="0" width="4" height="100" fill="#EA944B"/>

<rect x="77" y="0" width="15" height="100" fill="#9B4C1D"/>

<rect x="92" y="0" width="6" height="100" fill="#D16824"/>

<rect x="98" y="0" width="1" height="100" fill="#622D14"/>

<rect x="99" y="0" width="1" height="100" fill="#645D4B"/>

<rect x="100" y="0" width="0" height="100" fill="#403C30"/>

<rect x="100" y="0" width="0" height="100" fill="#291E15"/>

</g>


<g id="2" transform="translate(200,0)scale(1,1)">


<rect x="0" y="0" width="10" height="100" fill="#ECE1C9"/>

<rect x="10" y="0" width="63" height="100" fill="#9F8567"/>

<rect x="73" y="0" width="4" height="100" fill="#EA944B"/>

<rect x="77" y="0" width="15" height="100" fill="#9B4C1D"/>

<rect x="92" y="0" width="6" height="100" fill="#D16824"/>

<rect x="98" y="0" width="1" height="100" fill="#622D14"/>

<rect x="99" y="0" width="1" height="100" fill="#645D4B"/>

<rect x="100" y="0" width="0" height="100" fill="#403C30"/>

<rect x="100" y="0" width="0" height="100" fill="#291E15"/>

</g>


<g id="3" transform="translate(300,0)scale(1,1)">


<rect x="0" y="0" width="10" height="100" fill="#ECE1C9"/>

<rect x="10" y="0" width="63" height="100" fill="#9F8567"/>

<rect x="73" y="0" width="4" height="100" fill="#EA944B"/>

<rect x="77" y="0" width="15" height="100" fill="#9B4C1D"/>

<rect x="92" y="0" width="6" height="100" fill="#D16824"/>

<rect x="98" y="0" width="1" height="100" fill="#622D14"/>

<rect x="99" y="0" width="1" height="100" fill="#645D4B"/>

<rect x="100" y="0" width="0" height="100" fill="#403C30"/>

<rect x="100" y="0" width="0" height="100" fill="#291E15"/>

</g>


<g id="4" transform="translate(400,0)scale(1,1)">


<rect x="0" y="0" width="10" height="100" fill="#ECE1C9"/>

<rect x="10" y="0" width="63" height="100" fill="#9F8567"/>

<rect x="73" y="0" width="4" height="100" fill="#EA944B"/>

<rect x="77" y="0" width="15" height="100" fill="#9B4C1D"/>

<rect x="92" y="0" width="6" height="100" fill="#D16824"/>

<rect x="98" y="0" width="1" height="100" fill="#622D14"/>

<rect x="99" y="0" width="1" height="100" fill="#645D4B"/>

<rect x="100" y="0" width="0" height="100" fill="#403C30"/>

<rect x="100" y="0" width="0" height="100" fill="#291E15"/>

</g>


</g>

</svg>