<?xml version="1.0" standalone="no"?>
<!DOCTYPE svg PUBLIC "-//W3C//DTD SVG 20010904//EN"
 "http://www.w3.org/TR/2001/REC-SVG-20010904/DTD/svg10.dtd">
<svg version="1.0" xmlns="http://www.w3.org/2000/svg" 
width="400" height="400" viewBox="0 0 400 400"
preserveAspectRatio = "xMidYMid meet" >
<metadata>
Created by ZoeQu, written in 2022
</metadata>

<g id="row0" transform="translate(0,0.0)">

<g id="0" transform="translate(0,0)scale(1,1)">


<rect x="0" y="0" width="10" height="100" fill="#A4617D"/>

<rect x="10" y="0" width="53" height="100" fill="#485744"/>

<rect x="63" y="0" width="15" height="100" fill="#C98C9E"/>

<rect x="78" y="0" width="4" height="100" fill="#ACB282"/>

<rect x="82" y="0" width="17" height="100" fill="#708363"/>

<rect x="99" y="0" width="0" height="100" fill="#94ACAC"/>

<rect x="99" y="0" width="1" height="100" fill="#DADCD5"/>

<rect x="100" y="0" width="0" height="100" fill="#B6C5C6"/>

</g>


<g id="1" transform="translate(100,0)scale(1,1)">


<rect x="0" y="0" width="10" height="100" fill="#A4617D"/>

<rect x="10" y="0" width="53" height="100" fill="#485744"/>

<rect x="63" y="0" width="15" height="100" fill="#C98C9E"/>

<rect x="78" y="0" width="4" height="100" fill="#ACB282"/>

<rect x="82" y="0" width="17" height="100" fill="#708363"/>

<rect x="99" y="0" width="0" height="100" fill="#94ACAC"/>

<rect x="99" y="0" width="1" height="100" fill="#DADCD5"/>

<rect x="100" y="0" width="0" height="100" fill="#B6C5C6"/>

</g>


<g id="2" transform="translate(200,0)scale(1,1)">


<rect x="0" y="0" width="10" height="100" fill="#A4617D"/>

<rect x="10" y="0" width="53" height="100" fill="#485744"/>

<rect x="63" y="0" width="15" height="100" fill="#C98C9E"/>

<rect x="78" y="0" width="4" height="100" fill="#ACB282"/>

<rect x="82" y="0" width="17" height="100" fill="#708363"/>

<rect x="99" y="0" width="0" height="100" fill="#94ACAC"/>

<rect x="99" y="0" width="1" height="100" fill="#DADCD5"/>

<rect x="100" y="0" width="0" height="100" fill="#B6C5C6"/>

</g>


<g id="3" transform="translate(300,0)scale(1,1)">


<rect x="0" y="0" width="10" height="100" fill="#A4617D"/>

<rect x="10" y="0" width="53" height="100" fill="#485744"/>

<rect x="63" y="0" width="15" height="100" fill="#C98C9E"/>

<rect x="78" y="0" width="4" height="100" fill="#ACB282"/>

<rect x="82" y="0" width="17" height="100" fill="#708363"/>

<rect x="99" y="0" width="0" height="100" fill="#94ACAC"/>

<rect x="99" y="0" width="1" height="100" fill="#DADCD5"/>

<rect x="100" y="0" width="0" height="100" fill="#B6C5C6"/>

</g>


<g id="4" transform="translate(400,0)scale(1,1)">


<rect x="0" y="0" width="10" height="100" fill="#A4617D"/>

<rect x="10" y="0" width="53" height="100" fill="#485744"/>

<rect x="63" y="0" width="15" height="100" fill="#C98C9E"/>

<rect x="78" y="0" width="4" height="100" fill="#ACB282"/>

<rect x="82" y="0" width="17" height="100" fill="#708363"/>

<rect x="99" y="0" width="0" height="100" fill="#94ACAC"/>

<rect x="99" y="0" width="1" height="100" fill="#DADCD5"/>

<rect x="100" y="0" width="0" height="100" fill="#B6C5C6"/>

</g>


</g>

<g id="row1" transform="translate(0,100.0)">

<g id="0" transform="translate(0,0)scale(1,1)">


<rect x="0" y="0" width="10" height="100" fill="#A4617D"/>

<rect x="10" y="0" width="53" height="100" fill="#485744"/>

<rect x="63" y="0" width="15" height="100" fill="#C98C9E"/>

<rect x="78" y="0" width="4" height="100" fill="#ACB282"/>

<rect x="82" y="0" width="17" height="100" fill="#708363"/>

<rect x="99" y="0" width="0" height="100" fill="#94ACAC"/>

<rect x="99" y="0" width="1" height="100" fill="#DADCD5"/>

<rect x="100" y="0" width="0" height="100" fill="#B6C5C6"/>

</g>


<g id="1" transform="translate(100,0)scale(1,1)">


<rect x="0" y="0" width="10" height="100" fill="#A4617D"/>

<rect x="10" y="0" width="53" height="100" fill="#485744"/>

<rect x="63" y="0" width="15" height="100" fill="#C98C9E"/>

<rect x="78" y="0" width="4" height="100" fill="#ACB282"/>

<rect x="82" y="0" width="17" height="100" fill="#708363"/>

<rect x="99" y="0" width="0" height="100" fill="#94ACAC"/>

<rect x="99" y="0" width="1" height="100" fill="#DADCD5"/>

<rect x="100" y="0" width="0" height="100" fill="#B6C5C6"/>

</g>


<g id="2" transform="translate(200,0)scale(1,1)">


<rect x="0" y="0" width="10" height="100" fill="#A4617D"/>

<rect x="10" y="0" width="53" height="100" fill="#485744"/>

<rect x="63" y="0" width="15" height="100" fill="#C98C9E"/>

<rect x="78" y="0" width="4" height="100" fill="#ACB282"/>

<rect x="82" y="0" width="17" height="100" fill="#708363"/>

<rect x="99" y="0" width="0" height="100" fill="#94ACAC"/>

<rect x="99" y="0" width="1" height="100" fill="#DADCD5"/>

<rect x="100" y="0" width="0" height="100" fill="#B6C5C6"/>

</g>


<g id="3" transform="translate(300,0)scale(1,1)">


<rect x="0" y="0" width="10" height="100" fill="#A4617D"/>

<rect x="10" y="0" width="53" height="100" fill="#485744"/>

<rect x="63" y="0" width="15" height="100" fill="#C98C9E"/>

<rect x="78" y="0" width="4" height="100" fill="#ACB282"/>

<rect x="82" y="0" width="17" height="100" fill="#708363"/>

<rect x="99" y="0" width="0" height="100" fill="#94ACAC"/>

<rect x="99" y="0" width="1" height="100" fill="#DADCD5"/>

<rect x="100" y="0" width="0" height="100" fill="#B6C5C6"/>

</g>


<g id="4" transform="translate(400,0)scale(1,1)">


<rect x="0" y="0" width="10" height="100" fill="#A4617D"/>

<rect x="10" y="0" width="53" height="100" fill="#485744"/>

<rect x="63" y="0" width="15" height="100" fill="#C98C9E"/>

<rect x="78" y="0" width="4" height="100" fill="#ACB282"/>

<rect x="82" y="0" width="17" height="100" fill="#708363"/>

<rect x="99" y="0" width="0" height="100" fill="#94ACAC"/>

<rect x="99" y="0" width="1" height="100" fill="#DADCD5"/>

<rect x="100" y="0" width="0" height="100" fill="#B6C5C6"/>

</g>


</g>

<g id="row2" transform="translate(0,200.0)">

<g id="0" transform="translate(0,0)scale(1,1)">


<rect x="0" y="0" width="10" height="100" fill="#A4617D"/>

<rect x="10" y="0" width="53" height="100" fill="#485744"/>

<rect x="63" y="0" width="15" height="100" fill="#C98C9E"/>

<rect x="78" y="0" width="4" height="100" fill="#ACB282"/>

<rect x="82" y="0" width="17" height="100" fill="#708363"/>

<rect x="99" y="0" width="0" height="100" fill="#94ACAC"/>

<rect x="99" y="0" width="1" height="100" fill="#DADCD5"/>

<rect x="100" y="0" width="0" height="100" fill="#B6C5C6"/>

</g>


<g id="1" transform="translate(100,0)scale(1,1)">


<rect x="0" y="0" width="10" height="100" fill="#A4617D"/>

<rect x="10" y="0" width="53" height="100" fill="#485744"/>

<rect x="63" y="0" width="15" height="100" fill="#C98C9E"/>

<rect x="78" y="0" width="4" height="100" fill="#ACB282"/>

<rect x="82" y="0" width="17" height="100" fill="#708363"/>

<rect x="99" y="0" width="0" height="100" fill="#94ACAC"/>

<rect x="99" y="0" width="1" height="100" fill="#DADCD5"/>

<rect x="100" y="0" width="0" height="100" fill="#B6C5C6"/>

</g>


<g id="2" transform="translate(200,0)scale(1,1)">


<rect x="0" y="0" width="10" height="100" fill="#A4617D"/>

<rect x="10" y="0" width="53" height="100" fill="#485744"/>

<rect x="63" y="0" width="15" height="100" fill="#C98C9E"/>

<rect x="78" y="0" width="4" height="100" fill="#ACB282"/>

<rect x="82" y="0" width="17" height="100" fill="#708363"/>

<rect x="99" y="0" width="0" height="100" fill="#94ACAC"/>

<rect x="99" y="0" width="1" height="100" fill="#DADCD5"/>

<rect x="100" y="0" width="0" height="100" fill="#B6C5C6"/>

</g>


<g id="3" transform="translate(300,0)scale(1,1)">


<rect x="0" y="0" width="10" height="100" fill="#A4617D"/>

<rect x="10" y="0" width="53" height="100" fill="#485744"/>

<rect x="63" y="0" width="15" height="100" fill="#C98C9E"/>

<rect x="78" y="0" width="4" height="100" fill="#ACB282"/>

<rect x="82" y="0" width="17" height="100" fill="#708363"/>

<rect x="99" y="0" width="0" height="100" fill="#94ACAC"/>

<rect x="99" y="0" width="1" height="100" fill="#DADCD5"/>

<rect x="100" y="0" width="0" height="100" fill="#B6C5C6"/>

</g>


<g id="4" transform="translate(400,0)scale(1,1)">


<rect x="0" y="0" width="10" height="100" fill="#A4617D"/>

<rect x="10" y="0" width="53" height="100" fill="#485744"/>

<rect x="63" y="0" width="15" height="100" fill="#C98C9E"/>

<rect x="78" y="0" width="4" height="100" fill="#ACB282"/>

<rect x="82" y="0" width="17" height="100" fill="#708363"/>

<rect x="99" y="0" width="0" height="100" fill="#94ACAC"/>

<rect x="99" y="0" width="1" height="100" fill="#DADCD5"/>

<rect x="100" y="0" width="0" height="100" fill="#B6C5C6"/>

</g>


</g>

<g id="row3" transform="translate(0,300.0)">

<g id="0" transform="translate(0,0)scale(1,1)">


<rect x="0" y="0" width="10" height="100" fill="#A4617D"/>

<rect x="10" y="0" width="53" height="100" fill="#485744"/>

<rect x="63" y="0" width="15" height="100" fill="#C98C9E"/>

<rect x="78" y="0" width="4" height="100" fill="#ACB282"/>

<rect x="82" y="0" width="17" height="100" fill="#708363"/>

<rect x="99" y="0" width="0" height="100" fill="#94ACAC"/>

<rect x="99" y="0" width="1" height="100" fill="#DADCD5"/>

<rect x="100" y="0" width="0" height="100" fill="#B6C5C6"/>

</g>


<g id="1" transform="translate(100,0)scale(1,1)">


<rect x="0" y="0" width="10" height="100" fill="#A4617D"/>

<rect x="10" y="0" width="53" height="100" fill="#485744"/>

<rect x="63" y="0" width="15" height="100" fill="#C98C9E"/>

<rect x="78" y="0" width="4" height="100" fill="#ACB282"/>

<rect x="82" y="0" width="17" height="100" fill="#708363"/>

<rect x="99" y="0" width="0" height="100" fill="#94ACAC"/>

<rect x="99" y="0" width="1" height="100" fill="#DADCD5"/>

<rect x="100" y="0" width="0" height="100" fill="#B6C5C6"/>

</g>


<g id="2" transform="translate(200,0)scale(1,1)">


<rect x="0" y="0" width="10" height="100" fill="#A4617D"/>

<rect x="10" y="0" width="53" height="100" fill="#485744"/>

<rect x="63" y="0" width="15" height="100" fill="#C98C9E"/>

<rect x="78" y="0" width="4" height="100" fill="#ACB282"/>

<rect x="82" y="0" width="17" height="100" fill="#708363"/>

<rect x="99" y="0" width="0" height="100" fill="#94ACAC"/>

<rect x="99" y="0" width="1" height="100" fill="#DADCD5"/>

<rect x="100" y="0" width="0" height="100" fill="#B6C5C6"/>

</g>


<g id="3" transform="translate(300,0)scale(1,1)">


<rect x="0" y="0" width="10" height="100" fill="#A4617D"/>

<rect x="10" y="0" width="53" height="100" fill="#485744"/>

<rect x="63" y="0" width="15" height="100" fill="#C98C9E"/>

<rect x="78" y="0" width="4" height="100" fill="#ACB282"/>

<rect x="82" y="0" width="17" height="100" fill="#708363"/>

<rect x="99" y="0" width="0" height="100" fill="#94ACAC"/>

<rect x="99" y="0" width="1" height="100" fill="#DADCD5"/>

<rect x="100" y="0" width="0" height="100" fill="#B6C5C6"/>

</g>


<g id="4" transform="translate(400,0)scale(1,1)">


<rect x="0" y="0" width="10" height="100" fill="#A4617D"/>

<rect x="10" y="0" width="53" height="100" fill="#485744"/>

<rect x="63" y="0" width="15" height="100" fill="#C98C9E"/>

<rect x="78" y="0" width="4" height="100" fill="#ACB282"/>

<rect x="82" y="0" width="17" height="100" fill="#708363"/>

<rect x="99" y="0" width="0" height="100" fill="#94ACAC"/>

<rect x="99" y="0" width="1" height="100" fill="#DADCD5"/>

<rect x="100" y="0" width="0" height="100" fill="#B6C5C6"/>

</g>


</g>

</svg>