<?xml version="1.0" standalone="no"?>
<!DOCTYPE svg PUBLIC "-//W3C//DTD SVG 20010904//EN"
 "http://www.w3.org/TR/2001/REC-SVG-20010904/DTD/svg10.dtd">
<svg version="1.0" xmlns="http://www.w3.org/2000/svg" 
width="400" height="400" viewBox="0 0 400 400"
preserveAspectRatio = "xMidYMid meet" >
<metadata>
Created by ZoeQu, written in 2022
</metadata>

<g id="row0" transform="translate(0,0.0)">

<g id="0" transform="translate(0,0)scale(1,1)">


<rect x="0" y="0" width="10" height="100" fill="#F4C66E"/>

<rect x="10" y="0" width="10" height="100" fill="#74BCBE"/>

<rect x="20" y="0" width="41" height="100" fill="#36A2A8"/>

<rect x="61" y="0" width="1" height="100" fill="#D8D1C9"/>

<rect x="62" y="0" width="35" height="100" fill="#23868A"/>

<rect x="97" y="0" width="0" height="100" fill="#F3F5F9"/>

<rect x="97" y="0" width="2" height="100" fill="#F27A13"/>

<rect x="99" y="0" width="0" height="100" fill="#E5E1E0"/>

<rect x="99" y="0" width="1" height="100" fill="#FD901C"/>

</g>


<g id="1" transform="translate(100,0)scale(1,1)">


<rect x="0" y="0" width="10" height="100" fill="#F4C66E"/>

<rect x="10" y="0" width="10" height="100" fill="#74BCBE"/>

<rect x="20" y="0" width="41" height="100" fill="#36A2A8"/>

<rect x="61" y="0" width="1" height="100" fill="#D8D1C9"/>

<rect x="62" y="0" width="35" height="100" fill="#23868A"/>

<rect x="97" y="0" width="0" height="100" fill="#F3F5F9"/>

<rect x="97" y="0" width="2" height="100" fill="#F27A13"/>

<rect x="99" y="0" width="0" height="100" fill="#E5E1E0"/>

<rect x="99" y="0" width="1" height="100" fill="#FD901C"/>

</g>


<g id="2" transform="translate(200,0)scale(1,1)">


<rect x="0" y="0" width="10" height="100" fill="#F4C66E"/>

<rect x="10" y="0" width="10" height="100" fill="#74BCBE"/>

<rect x="20" y="0" width="41" height="100" fill="#36A2A8"/>

<rect x="61" y="0" width="1" height="100" fill="#D8D1C9"/>

<rect x="62" y="0" width="35" height="100" fill="#23868A"/>

<rect x="97" y="0" width="0" height="100" fill="#F3F5F9"/>

<rect x="97" y="0" width="2" height="100" fill="#F27A13"/>

<rect x="99" y="0" width="0" height="100" fill="#E5E1E0"/>

<rect x="99" y="0" width="1" height="100" fill="#FD901C"/>

</g>


<g id="3" transform="translate(300,0)scale(1,1)">


<rect x="0" y="0" width="10" height="100" fill="#F4C66E"/>

<rect x="10" y="0" width="10" height="100" fill="#74BCBE"/>

<rect x="20" y="0" width="41" height="100" fill="#36A2A8"/>

<rect x="61" y="0" width="1" height="100" fill="#D8D1C9"/>

<rect x="62" y="0" width="35" height="100" fill="#23868A"/>

<rect x="97" y="0" width="0" height="100" fill="#F3F5F9"/>

<rect x="97" y="0" width="2" height="100" fill="#F27A13"/>

<rect x="99" y="0" width="0" height="100" fill="#E5E1E0"/>

<rect x="99" y="0" width="1" height="100" fill="#FD901C"/>

</g>


<g id="4" transform="translate(400,0)scale(1,1)">


<rect x="0" y="0" width="10" height="100" fill="#F4C66E"/>

<rect x="10" y="0" width="10" height="100" fill="#74BCBE"/>

<rect x="20" y="0" width="41" height="100" fill="#36A2A8"/>

<rect x="61" y="0" width="1" height="100" fill="#D8D1C9"/>

<rect x="62" y="0" width="35" height="100" fill="#23868A"/>

<rect x="97" y="0" width="0" height="100" fill="#F3F5F9"/>

<rect x="97" y="0" width="2" height="100" fill="#F27A13"/>

<rect x="99" y="0" width="0" height="100" fill="#E5E1E0"/>

<rect x="99" y="0" width="1" height="100" fill="#FD901C"/>

</g>


</g>

<g id="row1" transform="translate(0,100.0)">

<g id="0" transform="translate(0,0)scale(1,1)">


<rect x="0" y="0" width="10" height="100" fill="#F4C66E"/>

<rect x="10" y="0" width="10" height="100" fill="#74BCBE"/>

<rect x="20" y="0" width="41" height="100" fill="#36A2A8"/>

<rect x="61" y="0" width="1" height="100" fill="#D8D1C9"/>

<rect x="62" y="0" width="35" height="100" fill="#23868A"/>

<rect x="97" y="0" width="0" height="100" fill="#F3F5F9"/>

<rect x="97" y="0" width="2" height="100" fill="#F27A13"/>

<rect x="99" y="0" width="0" height="100" fill="#E5E1E0"/>

<rect x="99" y="0" width="1" height="100" fill="#FD901C"/>

</g>


<g id="1" transform="translate(100,0)scale(1,1)">


<rect x="0" y="0" width="10" height="100" fill="#F4C66E"/>

<rect x="10" y="0" width="10" height="100" fill="#74BCBE"/>

<rect x="20" y="0" width="41" height="100" fill="#36A2A8"/>

<rect x="61" y="0" width="1" height="100" fill="#D8D1C9"/>

<rect x="62" y="0" width="35" height="100" fill="#23868A"/>

<rect x="97" y="0" width="0" height="100" fill="#F3F5F9"/>

<rect x="97" y="0" width="2" height="100" fill="#F27A13"/>

<rect x="99" y="0" width="0" height="100" fill="#E5E1E0"/>

<rect x="99" y="0" width="1" height="100" fill="#FD901C"/>

</g>


<g id="2" transform="translate(200,0)scale(1,1)">


<rect x="0" y="0" width="10" height="100" fill="#F4C66E"/>

<rect x="10" y="0" width="10" height="100" fill="#74BCBE"/>

<rect x="20" y="0" width="41" height="100" fill="#36A2A8"/>

<rect x="61" y="0" width="1" height="100" fill="#D8D1C9"/>

<rect x="62" y="0" width="35" height="100" fill="#23868A"/>

<rect x="97" y="0" width="0" height="100" fill="#F3F5F9"/>

<rect x="97" y="0" width="2" height="100" fill="#F27A13"/>

<rect x="99" y="0" width="0" height="100" fill="#E5E1E0"/>

<rect x="99" y="0" width="1" height="100" fill="#FD901C"/>

</g>


<g id="3" transform="translate(300,0)scale(1,1)">


<rect x="0" y="0" width="10" height="100" fill="#F4C66E"/>

<rect x="10" y="0" width="10" height="100" fill="#74BCBE"/>

<rect x="20" y="0" width="41" height="100" fill="#36A2A8"/>

<rect x="61" y="0" width="1" height="100" fill="#D8D1C9"/>

<rect x="62" y="0" width="35" height="100" fill="#23868A"/>

<rect x="97" y="0" width="0" height="100" fill="#F3F5F9"/>

<rect x="97" y="0" width="2" height="100" fill="#F27A13"/>

<rect x="99" y="0" width="0" height="100" fill="#E5E1E0"/>

<rect x="99" y="0" width="1" height="100" fill="#FD901C"/>

</g>


<g id="4" transform="translate(400,0)scale(1,1)">


<rect x="0" y="0" width="10" height="100" fill="#F4C66E"/>

<rect x="10" y="0" width="10" height="100" fill="#74BCBE"/>

<rect x="20" y="0" width="41" height="100" fill="#36A2A8"/>

<rect x="61" y="0" width="1" height="100" fill="#D8D1C9"/>

<rect x="62" y="0" width="35" height="100" fill="#23868A"/>

<rect x="97" y="0" width="0" height="100" fill="#F3F5F9"/>

<rect x="97" y="0" width="2" height="100" fill="#F27A13"/>

<rect x="99" y="0" width="0" height="100" fill="#E5E1E0"/>

<rect x="99" y="0" width="1" height="100" fill="#FD901C"/>

</g>


</g>

<g id="row2" transform="translate(0,200.0)">

<g id="0" transform="translate(0,0)scale(1,1)">


<rect x="0" y="0" width="10" height="100" fill="#F4C66E"/>

<rect x="10" y="0" width="10" height="100" fill="#74BCBE"/>

<rect x="20" y="0" width="41" height="100" fill="#36A2A8"/>

<rect x="61" y="0" width="1" height="100" fill="#D8D1C9"/>

<rect x="62" y="0" width="35" height="100" fill="#23868A"/>

<rect x="97" y="0" width="0" height="100" fill="#F3F5F9"/>

<rect x="97" y="0" width="2" height="100" fill="#F27A13"/>

<rect x="99" y="0" width="0" height="100" fill="#E5E1E0"/>

<rect x="99" y="0" width="1" height="100" fill="#FD901C"/>

</g>


<g id="1" transform="translate(100,0)scale(1,1)">


<rect x="0" y="0" width="10" height="100" fill="#F4C66E"/>

<rect x="10" y="0" width="10" height="100" fill="#74BCBE"/>

<rect x="20" y="0" width="41" height="100" fill="#36A2A8"/>

<rect x="61" y="0" width="1" height="100" fill="#D8D1C9"/>

<rect x="62" y="0" width="35" height="100" fill="#23868A"/>

<rect x="97" y="0" width="0" height="100" fill="#F3F5F9"/>

<rect x="97" y="0" width="2" height="100" fill="#F27A13"/>

<rect x="99" y="0" width="0" height="100" fill="#E5E1E0"/>

<rect x="99" y="0" width="1" height="100" fill="#FD901C"/>

</g>


<g id="2" transform="translate(200,0)scale(1,1)">


<rect x="0" y="0" width="10" height="100" fill="#F4C66E"/>

<rect x="10" y="0" width="10" height="100" fill="#74BCBE"/>

<rect x="20" y="0" width="41" height="100" fill="#36A2A8"/>

<rect x="61" y="0" width="1" height="100" fill="#D8D1C9"/>

<rect x="62" y="0" width="35" height="100" fill="#23868A"/>

<rect x="97" y="0" width="0" height="100" fill="#F3F5F9"/>

<rect x="97" y="0" width="2" height="100" fill="#F27A13"/>

<rect x="99" y="0" width="0" height="100" fill="#E5E1E0"/>

<rect x="99" y="0" width="1" height="100" fill="#FD901C"/>

</g>


<g id="3" transform="translate(300,0)scale(1,1)">


<rect x="0" y="0" width="10" height="100" fill="#F4C66E"/>

<rect x="10" y="0" width="10" height="100" fill="#74BCBE"/>

<rect x="20" y="0" width="41" height="100" fill="#36A2A8"/>

<rect x="61" y="0" width="1" height="100" fill="#D8D1C9"/>

<rect x="62" y="0" width="35" height="100" fill="#23868A"/>

<rect x="97" y="0" width="0" height="100" fill="#F3F5F9"/>

<rect x="97" y="0" width="2" height="100" fill="#F27A13"/>

<rect x="99" y="0" width="0" height="100" fill="#E5E1E0"/>

<rect x="99" y="0" width="1" height="100" fill="#FD901C"/>

</g>


<g id="4" transform="translate(400,0)scale(1,1)">


<rect x="0" y="0" width="10" height="100" fill="#F4C66E"/>

<rect x="10" y="0" width="10" height="100" fill="#74BCBE"/>

<rect x="20" y="0" width="41" height="100" fill="#36A2A8"/>

<rect x="61" y="0" width="1" height="100" fill="#D8D1C9"/>

<rect x="62" y="0" width="35" height="100" fill="#23868A"/>

<rect x="97" y="0" width="0" height="100" fill="#F3F5F9"/>

<rect x="97" y="0" width="2" height="100" fill="#F27A13"/>

<rect x="99" y="0" width="0" height="100" fill="#E5E1E0"/>

<rect x="99" y="0" width="1" height="100" fill="#FD901C"/>

</g>


</g>

<g id="row3" transform="translate(0,300.0)">

<g id="0" transform="translate(0,0)scale(1,1)">


<rect x="0" y="0" width="10" height="100" fill="#F4C66E"/>

<rect x="10" y="0" width="10" height="100" fill="#74BCBE"/>

<rect x="20" y="0" width="41" height="100" fill="#36A2A8"/>

<rect x="61" y="0" width="1" height="100" fill="#D8D1C9"/>

<rect x="62" y="0" width="35" height="100" fill="#23868A"/>

<rect x="97" y="0" width="0" height="100" fill="#F3F5F9"/>

<rect x="97" y="0" width="2" height="100" fill="#F27A13"/>

<rect x="99" y="0" width="0" height="100" fill="#E5E1E0"/>

<rect x="99" y="0" width="1" height="100" fill="#FD901C"/>

</g>


<g id="1" transform="translate(100,0)scale(1,1)">


<rect x="0" y="0" width="10" height="100" fill="#F4C66E"/>

<rect x="10" y="0" width="10" height="100" fill="#74BCBE"/>

<rect x="20" y="0" width="41" height="100" fill="#36A2A8"/>

<rect x="61" y="0" width="1" height="100" fill="#D8D1C9"/>

<rect x="62" y="0" width="35" height="100" fill="#23868A"/>

<rect x="97" y="0" width="0" height="100" fill="#F3F5F9"/>

<rect x="97" y="0" width="2" height="100" fill="#F27A13"/>

<rect x="99" y="0" width="0" height="100" fill="#E5E1E0"/>

<rect x="99" y="0" width="1" height="100" fill="#FD901C"/>

</g>


<g id="2" transform="translate(200,0)scale(1,1)">


<rect x="0" y="0" width="10" height="100" fill="#F4C66E"/>

<rect x="10" y="0" width="10" height="100" fill="#74BCBE"/>

<rect x="20" y="0" width="41" height="100" fill="#36A2A8"/>

<rect x="61" y="0" width="1" height="100" fill="#D8D1C9"/>

<rect x="62" y="0" width="35" height="100" fill="#23868A"/>

<rect x="97" y="0" width="0" height="100" fill="#F3F5F9"/>

<rect x="97" y="0" width="2" height="100" fill="#F27A13"/>

<rect x="99" y="0" width="0" height="100" fill="#E5E1E0"/>

<rect x="99" y="0" width="1" height="100" fill="#FD901C"/>

</g>


<g id="3" transform="translate(300,0)scale(1,1)">


<rect x="0" y="0" width="10" height="100" fill="#F4C66E"/>

<rect x="10" y="0" width="10" height="100" fill="#74BCBE"/>

<rect x="20" y="0" width="41" height="100" fill="#36A2A8"/>

<rect x="61" y="0" width="1" height="100" fill="#D8D1C9"/>

<rect x="62" y="0" width="35" height="100" fill="#23868A"/>

<rect x="97" y="0" width="0" height="100" fill="#F3F5F9"/>

<rect x="97" y="0" width="2" height="100" fill="#F27A13"/>

<rect x="99" y="0" width="0" height="100" fill="#E5E1E0"/>

<rect x="99" y="0" width="1" height="100" fill="#FD901C"/>

</g>


<g id="4" transform="translate(400,0)scale(1,1)">


<rect x="0" y="0" width="10" height="100" fill="#F4C66E"/>

<rect x="10" y="0" width="10" height="100" fill="#74BCBE"/>

<rect x="20" y="0" width="41" height="100" fill="#36A2A8"/>

<rect x="61" y="0" width="1" height="100" fill="#D8D1C9"/>

<rect x="62" y="0" width="35" height="100" fill="#23868A"/>

<rect x="97" y="0" width="0" height="100" fill="#F3F5F9"/>

<rect x="97" y="0" width="2" height="100" fill="#F27A13"/>

<rect x="99" y="0" width="0" height="100" fill="#E5E1E0"/>

<rect x="99" y="0" width="1" height="100" fill="#FD901C"/>

</g>


</g>

</svg>