<?xml version="1.0" standalone="no"?>
<!DOCTYPE svg PUBLIC "-//W3C//DTD SVG 20010904//EN"
 "http://www.w3.org/TR/2001/REC-SVG-20010904/DTD/svg10.dtd">
<svg version="1.0" xmlns="http://www.w3.org/2000/svg" 
width="400" height="400" viewBox="0 0 400 400"
preserveAspectRatio = "xMidYMid meet" >
<metadata>
Created by ZoeQu, written in 2022
</metadata>

<g id="row0" transform="translate(0,0.0)">

<g id="0" transform="translate(0,0)scale(1,1)">


<rect x="0" y="0" width="12" height="100" fill="#D1C0B4"/>

<rect x="12" y="0" width="25" height="100" fill="#947D70"/>

<rect x="37" y="0" width="63" height="100" fill="#404045"/>

<rect x="100" y="0" width="0" height="100" fill="#DC9C36"/>

<rect x="100" y="0" width="0" height="100" fill="#271615"/>

<rect x="100" y="0" width="0" height="100" fill="#732906"/>

<rect x="100" y="0" width="0" height="100" fill="#B3530D"/>

<rect x="100" y="0" width="0" height="100" fill="#0D1F3A"/>

</g>


<g id="1" transform="translate(100,0)scale(1,1)">


<rect x="0" y="0" width="12" height="100" fill="#D1C0B4"/>

<rect x="12" y="0" width="25" height="100" fill="#947D70"/>

<rect x="37" y="0" width="63" height="100" fill="#404045"/>

<rect x="100" y="0" width="0" height="100" fill="#DC9C36"/>

<rect x="100" y="0" width="0" height="100" fill="#271615"/>

<rect x="100" y="0" width="0" height="100" fill="#732906"/>

<rect x="100" y="0" width="0" height="100" fill="#B3530D"/>

<rect x="100" y="0" width="0" height="100" fill="#0D1F3A"/>

</g>


<g id="2" transform="translate(200,0)scale(1,1)">


<rect x="0" y="0" width="12" height="100" fill="#D1C0B4"/>

<rect x="12" y="0" width="25" height="100" fill="#947D70"/>

<rect x="37" y="0" width="63" height="100" fill="#404045"/>

<rect x="100" y="0" width="0" height="100" fill="#DC9C36"/>

<rect x="100" y="0" width="0" height="100" fill="#271615"/>

<rect x="100" y="0" width="0" height="100" fill="#732906"/>

<rect x="100" y="0" width="0" height="100" fill="#B3530D"/>

<rect x="100" y="0" width="0" height="100" fill="#0D1F3A"/>

</g>


<g id="3" transform="translate(300,0)scale(1,1)">


<rect x="0" y="0" width="12" height="100" fill="#D1C0B4"/>

<rect x="12" y="0" width="25" height="100" fill="#947D70"/>

<rect x="37" y="0" width="63" height="100" fill="#404045"/>

<rect x="100" y="0" width="0" height="100" fill="#DC9C36"/>

<rect x="100" y="0" width="0" height="100" fill="#271615"/>

<rect x="100" y="0" width="0" height="100" fill="#732906"/>

<rect x="100" y="0" width="0" height="100" fill="#B3530D"/>

<rect x="100" y="0" width="0" height="100" fill="#0D1F3A"/>

</g>


<g id="4" transform="translate(400,0)scale(1,1)">


<rect x="0" y="0" width="12" height="100" fill="#D1C0B4"/>

<rect x="12" y="0" width="25" height="100" fill="#947D70"/>

<rect x="37" y="0" width="63" height="100" fill="#404045"/>

<rect x="100" y="0" width="0" height="100" fill="#DC9C36"/>

<rect x="100" y="0" width="0" height="100" fill="#271615"/>

<rect x="100" y="0" width="0" height="100" fill="#732906"/>

<rect x="100" y="0" width="0" height="100" fill="#B3530D"/>

<rect x="100" y="0" width="0" height="100" fill="#0D1F3A"/>

</g>


</g>

<g id="row1" transform="translate(0,100.0)">

<g id="0" transform="translate(0,0)scale(1,1)">


<rect x="0" y="0" width="12" height="100" fill="#D1C0B4"/>

<rect x="12" y="0" width="25" height="100" fill="#947D70"/>

<rect x="37" y="0" width="63" height="100" fill="#404045"/>

<rect x="100" y="0" width="0" height="100" fill="#DC9C36"/>

<rect x="100" y="0" width="0" height="100" fill="#271615"/>

<rect x="100" y="0" width="0" height="100" fill="#732906"/>

<rect x="100" y="0" width="0" height="100" fill="#B3530D"/>

<rect x="100" y="0" width="0" height="100" fill="#0D1F3A"/>

</g>


<g id="1" transform="translate(100,0)scale(1,1)">


<rect x="0" y="0" width="12" height="100" fill="#D1C0B4"/>

<rect x="12" y="0" width="25" height="100" fill="#947D70"/>

<rect x="37" y="0" width="63" height="100" fill="#404045"/>

<rect x="100" y="0" width="0" height="100" fill="#DC9C36"/>

<rect x="100" y="0" width="0" height="100" fill="#271615"/>

<rect x="100" y="0" width="0" height="100" fill="#732906"/>

<rect x="100" y="0" width="0" height="100" fill="#B3530D"/>

<rect x="100" y="0" width="0" height="100" fill="#0D1F3A"/>

</g>


<g id="2" transform="translate(200,0)scale(1,1)">


<rect x="0" y="0" width="12" height="100" fill="#D1C0B4"/>

<rect x="12" y="0" width="25" height="100" fill="#947D70"/>

<rect x="37" y="0" width="63" height="100" fill="#404045"/>

<rect x="100" y="0" width="0" height="100" fill="#DC9C36"/>

<rect x="100" y="0" width="0" height="100" fill="#271615"/>

<rect x="100" y="0" width="0" height="100" fill="#732906"/>

<rect x="100" y="0" width="0" height="100" fill="#B3530D"/>

<rect x="100" y="0" width="0" height="100" fill="#0D1F3A"/>

</g>


<g id="3" transform="translate(300,0)scale(1,1)">


<rect x="0" y="0" width="12" height="100" fill="#D1C0B4"/>

<rect x="12" y="0" width="25" height="100" fill="#947D70"/>

<rect x="37" y="0" width="63" height="100" fill="#404045"/>

<rect x="100" y="0" width="0" height="100" fill="#DC9C36"/>

<rect x="100" y="0" width="0" height="100" fill="#271615"/>

<rect x="100" y="0" width="0" height="100" fill="#732906"/>

<rect x="100" y="0" width="0" height="100" fill="#B3530D"/>

<rect x="100" y="0" width="0" height="100" fill="#0D1F3A"/>

</g>


<g id="4" transform="translate(400,0)scale(1,1)">


<rect x="0" y="0" width="12" height="100" fill="#D1C0B4"/>

<rect x="12" y="0" width="25" height="100" fill="#947D70"/>

<rect x="37" y="0" width="63" height="100" fill="#404045"/>

<rect x="100" y="0" width="0" height="100" fill="#DC9C36"/>

<rect x="100" y="0" width="0" height="100" fill="#271615"/>

<rect x="100" y="0" width="0" height="100" fill="#732906"/>

<rect x="100" y="0" width="0" height="100" fill="#B3530D"/>

<rect x="100" y="0" width="0" height="100" fill="#0D1F3A"/>

</g>


</g>

<g id="row2" transform="translate(0,200.0)">

<g id="0" transform="translate(0,0)scale(1,1)">


<rect x="0" y="0" width="12" height="100" fill="#D1C0B4"/>

<rect x="12" y="0" width="25" height="100" fill="#947D70"/>

<rect x="37" y="0" width="63" height="100" fill="#404045"/>

<rect x="100" y="0" width="0" height="100" fill="#DC9C36"/>

<rect x="100" y="0" width="0" height="100" fill="#271615"/>

<rect x="100" y="0" width="0" height="100" fill="#732906"/>

<rect x="100" y="0" width="0" height="100" fill="#B3530D"/>

<rect x="100" y="0" width="0" height="100" fill="#0D1F3A"/>

</g>


<g id="1" transform="translate(100,0)scale(1,1)">


<rect x="0" y="0" width="12" height="100" fill="#D1C0B4"/>

<rect x="12" y="0" width="25" height="100" fill="#947D70"/>

<rect x="37" y="0" width="63" height="100" fill="#404045"/>

<rect x="100" y="0" width="0" height="100" fill="#DC9C36"/>

<rect x="100" y="0" width="0" height="100" fill="#271615"/>

<rect x="100" y="0" width="0" height="100" fill="#732906"/>

<rect x="100" y="0" width="0" height="100" fill="#B3530D"/>

<rect x="100" y="0" width="0" height="100" fill="#0D1F3A"/>

</g>


<g id="2" transform="translate(200,0)scale(1,1)">


<rect x="0" y="0" width="12" height="100" fill="#D1C0B4"/>

<rect x="12" y="0" width="25" height="100" fill="#947D70"/>

<rect x="37" y="0" width="63" height="100" fill="#404045"/>

<rect x="100" y="0" width="0" height="100" fill="#DC9C36"/>

<rect x="100" y="0" width="0" height="100" fill="#271615"/>

<rect x="100" y="0" width="0" height="100" fill="#732906"/>

<rect x="100" y="0" width="0" height="100" fill="#B3530D"/>

<rect x="100" y="0" width="0" height="100" fill="#0D1F3A"/>

</g>


<g id="3" transform="translate(300,0)scale(1,1)">


<rect x="0" y="0" width="12" height="100" fill="#D1C0B4"/>

<rect x="12" y="0" width="25" height="100" fill="#947D70"/>

<rect x="37" y="0" width="63" height="100" fill="#404045"/>

<rect x="100" y="0" width="0" height="100" fill="#DC9C36"/>

<rect x="100" y="0" width="0" height="100" fill="#271615"/>

<rect x="100" y="0" width="0" height="100" fill="#732906"/>

<rect x="100" y="0" width="0" height="100" fill="#B3530D"/>

<rect x="100" y="0" width="0" height="100" fill="#0D1F3A"/>

</g>


<g id="4" transform="translate(400,0)scale(1,1)">


<rect x="0" y="0" width="12" height="100" fill="#D1C0B4"/>

<rect x="12" y="0" width="25" height="100" fill="#947D70"/>

<rect x="37" y="0" width="63" height="100" fill="#404045"/>

<rect x="100" y="0" width="0" height="100" fill="#DC9C36"/>

<rect x="100" y="0" width="0" height="100" fill="#271615"/>

<rect x="100" y="0" width="0" height="100" fill="#732906"/>

<rect x="100" y="0" width="0" height="100" fill="#B3530D"/>

<rect x="100" y="0" width="0" height="100" fill="#0D1F3A"/>

</g>


</g>

<g id="row3" transform="translate(0,300.0)">

<g id="0" transform="translate(0,0)scale(1,1)">


<rect x="0" y="0" width="12" height="100" fill="#D1C0B4"/>

<rect x="12" y="0" width="25" height="100" fill="#947D70"/>

<rect x="37" y="0" width="63" height="100" fill="#404045"/>

<rect x="100" y="0" width="0" height="100" fill="#DC9C36"/>

<rect x="100" y="0" width="0" height="100" fill="#271615"/>

<rect x="100" y="0" width="0" height="100" fill="#732906"/>

<rect x="100" y="0" width="0" height="100" fill="#B3530D"/>

<rect x="100" y="0" width="0" height="100" fill="#0D1F3A"/>

</g>


<g id="1" transform="translate(100,0)scale(1,1)">


<rect x="0" y="0" width="12" height="100" fill="#D1C0B4"/>

<rect x="12" y="0" width="25" height="100" fill="#947D70"/>

<rect x="37" y="0" width="63" height="100" fill="#404045"/>

<rect x="100" y="0" width="0" height="100" fill="#DC9C36"/>

<rect x="100" y="0" width="0" height="100" fill="#271615"/>

<rect x="100" y="0" width="0" height="100" fill="#732906"/>

<rect x="100" y="0" width="0" height="100" fill="#B3530D"/>

<rect x="100" y="0" width="0" height="100" fill="#0D1F3A"/>

</g>


<g id="2" transform="translate(200,0)scale(1,1)">


<rect x="0" y="0" width="12" height="100" fill="#D1C0B4"/>

<rect x="12" y="0" width="25" height="100" fill="#947D70"/>

<rect x="37" y="0" width="63" height="100" fill="#404045"/>

<rect x="100" y="0" width="0" height="100" fill="#DC9C36"/>

<rect x="100" y="0" width="0" height="100" fill="#271615"/>

<rect x="100" y="0" width="0" height="100" fill="#732906"/>

<rect x="100" y="0" width="0" height="100" fill="#B3530D"/>

<rect x="100" y="0" width="0" height="100" fill="#0D1F3A"/>

</g>


<g id="3" transform="translate(300,0)scale(1,1)">


<rect x="0" y="0" width="12" height="100" fill="#D1C0B4"/>

<rect x="12" y="0" width="25" height="100" fill="#947D70"/>

<rect x="37" y="0" width="63" height="100" fill="#404045"/>

<rect x="100" y="0" width="0" height="100" fill="#DC9C36"/>

<rect x="100" y="0" width="0" height="100" fill="#271615"/>

<rect x="100" y="0" width="0" height="100" fill="#732906"/>

<rect x="100" y="0" width="0" height="100" fill="#B3530D"/>

<rect x="100" y="0" width="0" height="100" fill="#0D1F3A"/>

</g>


<g id="4" transform="translate(400,0)scale(1,1)">


<rect x="0" y="0" width="12" height="100" fill="#D1C0B4"/>

<rect x="12" y="0" width="25" height="100" fill="#947D70"/>

<rect x="37" y="0" width="63" height="100" fill="#404045"/>

<rect x="100" y="0" width="0" height="100" fill="#DC9C36"/>

<rect x="100" y="0" width="0" height="100" fill="#271615"/>

<rect x="100" y="0" width="0" height="100" fill="#732906"/>

<rect x="100" y="0" width="0" height="100" fill="#B3530D"/>

<rect x="100" y="0" width="0" height="100" fill="#0D1F3A"/>

</g>


</g>

</svg>