<?xml version="1.0" standalone="no"?>
<!DOCTYPE svg PUBLIC "-//W3C//DTD SVG 20010904//EN"
 "http://www.w3.org/TR/2001/REC-SVG-20010904/DTD/svg10.dtd">
<svg version="1.0" xmlns="http://www.w3.org/2000/svg" 
width="400" height="400" viewBox="0 0 400 400"
preserveAspectRatio = "xMidYMid meet" >
<metadata>
Created by ZoeQu, written in 2022
</metadata>

<g id="row0" transform="translate(0,0.0)">

<g id="0" transform="translate(0,0)scale(1,1)">


<rect x="0" y="0" width="10" height="100" fill="#CFBFB5"/>

<rect x="10" y="0" width="42" height="100" fill="#907B6F"/>

<rect x="52" y="0" width="21" height="100" fill="#3F4044"/>

<rect x="73" y="0" width="9" height="100" fill="#E1A43C"/>

<rect x="82" y="0" width="5" height="100" fill="#C76E19"/>

<rect x="87" y="0" width="9" height="100" fill="#251616"/>

<rect x="96" y="0" width="4" height="100" fill="#AC4B0A"/>

<rect x="100" y="0" width="0" height="100" fill="#712707"/>

<rect x="100" y="0" width="0" height="100" fill="#0D1F3A"/>

</g>


<g id="1" transform="translate(100,0)scale(1,1)">


<rect x="0" y="0" width="10" height="100" fill="#CFBFB5"/>

<rect x="10" y="0" width="42" height="100" fill="#907B6F"/>

<rect x="52" y="0" width="21" height="100" fill="#3F4044"/>

<rect x="73" y="0" width="9" height="100" fill="#E1A43C"/>

<rect x="82" y="0" width="5" height="100" fill="#C76E19"/>

<rect x="87" y="0" width="9" height="100" fill="#251616"/>

<rect x="96" y="0" width="4" height="100" fill="#AC4B0A"/>

<rect x="100" y="0" width="0" height="100" fill="#712707"/>

<rect x="100" y="0" width="0" height="100" fill="#0D1F3A"/>

</g>


<g id="2" transform="translate(200,0)scale(1,1)">


<rect x="0" y="0" width="10" height="100" fill="#CFBFB5"/>

<rect x="10" y="0" width="42" height="100" fill="#907B6F"/>

<rect x="52" y="0" width="21" height="100" fill="#3F4044"/>

<rect x="73" y="0" width="9" height="100" fill="#E1A43C"/>

<rect x="82" y="0" width="5" height="100" fill="#C76E19"/>

<rect x="87" y="0" width="9" height="100" fill="#251616"/>

<rect x="96" y="0" width="4" height="100" fill="#AC4B0A"/>

<rect x="100" y="0" width="0" height="100" fill="#712707"/>

<rect x="100" y="0" width="0" height="100" fill="#0D1F3A"/>

</g>


<g id="3" transform="translate(300,0)scale(1,1)">


<rect x="0" y="0" width="10" height="100" fill="#CFBFB5"/>

<rect x="10" y="0" width="42" height="100" fill="#907B6F"/>

<rect x="52" y="0" width="21" height="100" fill="#3F4044"/>

<rect x="73" y="0" width="9" height="100" fill="#E1A43C"/>

<rect x="82" y="0" width="5" height="100" fill="#C76E19"/>

<rect x="87" y="0" width="9" height="100" fill="#251616"/>

<rect x="96" y="0" width="4" height="100" fill="#AC4B0A"/>

<rect x="100" y="0" width="0" height="100" fill="#712707"/>

<rect x="100" y="0" width="0" height="100" fill="#0D1F3A"/>

</g>


<g id="4" transform="translate(400,0)scale(1,1)">


<rect x="0" y="0" width="10" height="100" fill="#CFBFB5"/>

<rect x="10" y="0" width="42" height="100" fill="#907B6F"/>

<rect x="52" y="0" width="21" height="100" fill="#3F4044"/>

<rect x="73" y="0" width="9" height="100" fill="#E1A43C"/>

<rect x="82" y="0" width="5" height="100" fill="#C76E19"/>

<rect x="87" y="0" width="9" height="100" fill="#251616"/>

<rect x="96" y="0" width="4" height="100" fill="#AC4B0A"/>

<rect x="100" y="0" width="0" height="100" fill="#712707"/>

<rect x="100" y="0" width="0" height="100" fill="#0D1F3A"/>

</g>


</g>

<g id="row1" transform="translate(0,100.0)">

<g id="0" transform="translate(0,0)scale(1,1)">


<rect x="0" y="0" width="10" height="100" fill="#CFBFB5"/>

<rect x="10" y="0" width="42" height="100" fill="#907B6F"/>

<rect x="52" y="0" width="21" height="100" fill="#3F4044"/>

<rect x="73" y="0" width="9" height="100" fill="#E1A43C"/>

<rect x="82" y="0" width="5" height="100" fill="#C76E19"/>

<rect x="87" y="0" width="9" height="100" fill="#251616"/>

<rect x="96" y="0" width="4" height="100" fill="#AC4B0A"/>

<rect x="100" y="0" width="0" height="100" fill="#712707"/>

<rect x="100" y="0" width="0" height="100" fill="#0D1F3A"/>

</g>


<g id="1" transform="translate(100,0)scale(1,1)">


<rect x="0" y="0" width="10" height="100" fill="#CFBFB5"/>

<rect x="10" y="0" width="42" height="100" fill="#907B6F"/>

<rect x="52" y="0" width="21" height="100" fill="#3F4044"/>

<rect x="73" y="0" width="9" height="100" fill="#E1A43C"/>

<rect x="82" y="0" width="5" height="100" fill="#C76E19"/>

<rect x="87" y="0" width="9" height="100" fill="#251616"/>

<rect x="96" y="0" width="4" height="100" fill="#AC4B0A"/>

<rect x="100" y="0" width="0" height="100" fill="#712707"/>

<rect x="100" y="0" width="0" height="100" fill="#0D1F3A"/>

</g>


<g id="2" transform="translate(200,0)scale(1,1)">


<rect x="0" y="0" width="10" height="100" fill="#CFBFB5"/>

<rect x="10" y="0" width="42" height="100" fill="#907B6F"/>

<rect x="52" y="0" width="21" height="100" fill="#3F4044"/>

<rect x="73" y="0" width="9" height="100" fill="#E1A43C"/>

<rect x="82" y="0" width="5" height="100" fill="#C76E19"/>

<rect x="87" y="0" width="9" height="100" fill="#251616"/>

<rect x="96" y="0" width="4" height="100" fill="#AC4B0A"/>

<rect x="100" y="0" width="0" height="100" fill="#712707"/>

<rect x="100" y="0" width="0" height="100" fill="#0D1F3A"/>

</g>


<g id="3" transform="translate(300,0)scale(1,1)">


<rect x="0" y="0" width="10" height="100" fill="#CFBFB5"/>

<rect x="10" y="0" width="42" height="100" fill="#907B6F"/>

<rect x="52" y="0" width="21" height="100" fill="#3F4044"/>

<rect x="73" y="0" width="9" height="100" fill="#E1A43C"/>

<rect x="82" y="0" width="5" height="100" fill="#C76E19"/>

<rect x="87" y="0" width="9" height="100" fill="#251616"/>

<rect x="96" y="0" width="4" height="100" fill="#AC4B0A"/>

<rect x="100" y="0" width="0" height="100" fill="#712707"/>

<rect x="100" y="0" width="0" height="100" fill="#0D1F3A"/>

</g>


<g id="4" transform="translate(400,0)scale(1,1)">


<rect x="0" y="0" width="10" height="100" fill="#CFBFB5"/>

<rect x="10" y="0" width="42" height="100" fill="#907B6F"/>

<rect x="52" y="0" width="21" height="100" fill="#3F4044"/>

<rect x="73" y="0" width="9" height="100" fill="#E1A43C"/>

<rect x="82" y="0" width="5" height="100" fill="#C76E19"/>

<rect x="87" y="0" width="9" height="100" fill="#251616"/>

<rect x="96" y="0" width="4" height="100" fill="#AC4B0A"/>

<rect x="100" y="0" width="0" height="100" fill="#712707"/>

<rect x="100" y="0" width="0" height="100" fill="#0D1F3A"/>

</g>


</g>

<g id="row2" transform="translate(0,200.0)">

<g id="0" transform="translate(0,0)scale(1,1)">


<rect x="0" y="0" width="10" height="100" fill="#CFBFB5"/>

<rect x="10" y="0" width="42" height="100" fill="#907B6F"/>

<rect x="52" y="0" width="21" height="100" fill="#3F4044"/>

<rect x="73" y="0" width="9" height="100" fill="#E1A43C"/>

<rect x="82" y="0" width="5" height="100" fill="#C76E19"/>

<rect x="87" y="0" width="9" height="100" fill="#251616"/>

<rect x="96" y="0" width="4" height="100" fill="#AC4B0A"/>

<rect x="100" y="0" width="0" height="100" fill="#712707"/>

<rect x="100" y="0" width="0" height="100" fill="#0D1F3A"/>

</g>


<g id="1" transform="translate(100,0)scale(1,1)">


<rect x="0" y="0" width="10" height="100" fill="#CFBFB5"/>

<rect x="10" y="0" width="42" height="100" fill="#907B6F"/>

<rect x="52" y="0" width="21" height="100" fill="#3F4044"/>

<rect x="73" y="0" width="9" height="100" fill="#E1A43C"/>

<rect x="82" y="0" width="5" height="100" fill="#C76E19"/>

<rect x="87" y="0" width="9" height="100" fill="#251616"/>

<rect x="96" y="0" width="4" height="100" fill="#AC4B0A"/>

<rect x="100" y="0" width="0" height="100" fill="#712707"/>

<rect x="100" y="0" width="0" height="100" fill="#0D1F3A"/>

</g>


<g id="2" transform="translate(200,0)scale(1,1)">


<rect x="0" y="0" width="10" height="100" fill="#CFBFB5"/>

<rect x="10" y="0" width="42" height="100" fill="#907B6F"/>

<rect x="52" y="0" width="21" height="100" fill="#3F4044"/>

<rect x="73" y="0" width="9" height="100" fill="#E1A43C"/>

<rect x="82" y="0" width="5" height="100" fill="#C76E19"/>

<rect x="87" y="0" width="9" height="100" fill="#251616"/>

<rect x="96" y="0" width="4" height="100" fill="#AC4B0A"/>

<rect x="100" y="0" width="0" height="100" fill="#712707"/>

<rect x="100" y="0" width="0" height="100" fill="#0D1F3A"/>

</g>


<g id="3" transform="translate(300,0)scale(1,1)">


<rect x="0" y="0" width="10" height="100" fill="#CFBFB5"/>

<rect x="10" y="0" width="42" height="100" fill="#907B6F"/>

<rect x="52" y="0" width="21" height="100" fill="#3F4044"/>

<rect x="73" y="0" width="9" height="100" fill="#E1A43C"/>

<rect x="82" y="0" width="5" height="100" fill="#C76E19"/>

<rect x="87" y="0" width="9" height="100" fill="#251616"/>

<rect x="96" y="0" width="4" height="100" fill="#AC4B0A"/>

<rect x="100" y="0" width="0" height="100" fill="#712707"/>

<rect x="100" y="0" width="0" height="100" fill="#0D1F3A"/>

</g>


<g id="4" transform="translate(400,0)scale(1,1)">


<rect x="0" y="0" width="10" height="100" fill="#CFBFB5"/>

<rect x="10" y="0" width="42" height="100" fill="#907B6F"/>

<rect x="52" y="0" width="21" height="100" fill="#3F4044"/>

<rect x="73" y="0" width="9" height="100" fill="#E1A43C"/>

<rect x="82" y="0" width="5" height="100" fill="#C76E19"/>

<rect x="87" y="0" width="9" height="100" fill="#251616"/>

<rect x="96" y="0" width="4" height="100" fill="#AC4B0A"/>

<rect x="100" y="0" width="0" height="100" fill="#712707"/>

<rect x="100" y="0" width="0" height="100" fill="#0D1F3A"/>

</g>


</g>

<g id="row3" transform="translate(0,300.0)">

<g id="0" transform="translate(0,0)scale(1,1)">


<rect x="0" y="0" width="10" height="100" fill="#CFBFB5"/>

<rect x="10" y="0" width="42" height="100" fill="#907B6F"/>

<rect x="52" y="0" width="21" height="100" fill="#3F4044"/>

<rect x="73" y="0" width="9" height="100" fill="#E1A43C"/>

<rect x="82" y="0" width="5" height="100" fill="#C76E19"/>

<rect x="87" y="0" width="9" height="100" fill="#251616"/>

<rect x="96" y="0" width="4" height="100" fill="#AC4B0A"/>

<rect x="100" y="0" width="0" height="100" fill="#712707"/>

<rect x="100" y="0" width="0" height="100" fill="#0D1F3A"/>

</g>


<g id="1" transform="translate(100,0)scale(1,1)">


<rect x="0" y="0" width="10" height="100" fill="#CFBFB5"/>

<rect x="10" y="0" width="42" height="100" fill="#907B6F"/>

<rect x="52" y="0" width="21" height="100" fill="#3F4044"/>

<rect x="73" y="0" width="9" height="100" fill="#E1A43C"/>

<rect x="82" y="0" width="5" height="100" fill="#C76E19"/>

<rect x="87" y="0" width="9" height="100" fill="#251616"/>

<rect x="96" y="0" width="4" height="100" fill="#AC4B0A"/>

<rect x="100" y="0" width="0" height="100" fill="#712707"/>

<rect x="100" y="0" width="0" height="100" fill="#0D1F3A"/>

</g>


<g id="2" transform="translate(200,0)scale(1,1)">


<rect x="0" y="0" width="10" height="100" fill="#CFBFB5"/>

<rect x="10" y="0" width="42" height="100" fill="#907B6F"/>

<rect x="52" y="0" width="21" height="100" fill="#3F4044"/>

<rect x="73" y="0" width="9" height="100" fill="#E1A43C"/>

<rect x="82" y="0" width="5" height="100" fill="#C76E19"/>

<rect x="87" y="0" width="9" height="100" fill="#251616"/>

<rect x="96" y="0" width="4" height="100" fill="#AC4B0A"/>

<rect x="100" y="0" width="0" height="100" fill="#712707"/>

<rect x="100" y="0" width="0" height="100" fill="#0D1F3A"/>

</g>


<g id="3" transform="translate(300,0)scale(1,1)">


<rect x="0" y="0" width="10" height="100" fill="#CFBFB5"/>

<rect x="10" y="0" width="42" height="100" fill="#907B6F"/>

<rect x="52" y="0" width="21" height="100" fill="#3F4044"/>

<rect x="73" y="0" width="9" height="100" fill="#E1A43C"/>

<rect x="82" y="0" width="5" height="100" fill="#C76E19"/>

<rect x="87" y="0" width="9" height="100" fill="#251616"/>

<rect x="96" y="0" width="4" height="100" fill="#AC4B0A"/>

<rect x="100" y="0" width="0" height="100" fill="#712707"/>

<rect x="100" y="0" width="0" height="100" fill="#0D1F3A"/>

</g>


<g id="4" transform="translate(400,0)scale(1,1)">


<rect x="0" y="0" width="10" height="100" fill="#CFBFB5"/>

<rect x="10" y="0" width="42" height="100" fill="#907B6F"/>

<rect x="52" y="0" width="21" height="100" fill="#3F4044"/>

<rect x="73" y="0" width="9" height="100" fill="#E1A43C"/>

<rect x="82" y="0" width="5" height="100" fill="#C76E19"/>

<rect x="87" y="0" width="9" height="100" fill="#251616"/>

<rect x="96" y="0" width="4" height="100" fill="#AC4B0A"/>

<rect x="100" y="0" width="0" height="100" fill="#712707"/>

<rect x="100" y="0" width="0" height="100" fill="#0D1F3A"/>

</g>


</g>

</svg>