<?xml version="1.0" standalone="no"?>
<!DOCTYPE svg PUBLIC "-//W3C//DTD SVG 20010904//EN"
 "http://www.w3.org/TR/2001/REC-SVG-20010904/DTD/svg10.dtd">
<svg version="1.0" xmlns="http://www.w3.org/2000/svg" 
width="400" height="400" viewBox="0 0 400 400"
preserveAspectRatio = "xMidYMid meet" >
<metadata>
Created by ZoeQu, written in 2022
</metadata>

<g id="row0" transform="translate(0,0.0)">

<g id="0" transform="translate(0,0)scale(1,1)">


<rect x="0" y="0" width="14" height="100" fill="#C5853E"/>

<rect x="14" y="0" width="54" height="100" fill="#126F6F"/>

<rect x="68" y="0" width="1" height="100" fill="#8F9579"/>

<rect x="69" y="0" width="27" height="100" fill="#E9A757"/>

<rect x="96" y="0" width="2" height="100" fill="#268F83"/>

<rect x="98" y="0" width="2" height="100" fill="#F9C371"/>

</g>


<g id="1" transform="translate(100,0)scale(1,1)">


<rect x="0" y="0" width="14" height="100" fill="#C5853E"/>

<rect x="14" y="0" width="54" height="100" fill="#126F6F"/>

<rect x="68" y="0" width="1" height="100" fill="#8F9579"/>

<rect x="69" y="0" width="27" height="100" fill="#E9A757"/>

<rect x="96" y="0" width="2" height="100" fill="#268F83"/>

<rect x="98" y="0" width="2" height="100" fill="#F9C371"/>

</g>


<g id="2" transform="translate(200,0)scale(1,1)">


<rect x="0" y="0" width="14" height="100" fill="#C5853E"/>

<rect x="14" y="0" width="54" height="100" fill="#126F6F"/>

<rect x="68" y="0" width="1" height="100" fill="#8F9579"/>

<rect x="69" y="0" width="27" height="100" fill="#E9A757"/>

<rect x="96" y="0" width="2" height="100" fill="#268F83"/>

<rect x="98" y="0" width="2" height="100" fill="#F9C371"/>

</g>


<g id="3" transform="translate(300,0)scale(1,1)">


<rect x="0" y="0" width="14" height="100" fill="#C5853E"/>

<rect x="14" y="0" width="54" height="100" fill="#126F6F"/>

<rect x="68" y="0" width="1" height="100" fill="#8F9579"/>

<rect x="69" y="0" width="27" height="100" fill="#E9A757"/>

<rect x="96" y="0" width="2" height="100" fill="#268F83"/>

<rect x="98" y="0" width="2" height="100" fill="#F9C371"/>

</g>


<g id="4" transform="translate(400,0)scale(1,1)">


<rect x="0" y="0" width="14" height="100" fill="#C5853E"/>

<rect x="14" y="0" width="54" height="100" fill="#126F6F"/>

<rect x="68" y="0" width="1" height="100" fill="#8F9579"/>

<rect x="69" y="0" width="27" height="100" fill="#E9A757"/>

<rect x="96" y="0" width="2" height="100" fill="#268F83"/>

<rect x="98" y="0" width="2" height="100" fill="#F9C371"/>

</g>


</g>

<g id="row1" transform="translate(0,100.0)">

<g id="0" transform="translate(0,0)scale(1,1)">


<rect x="0" y="0" width="14" height="100" fill="#C5853E"/>

<rect x="14" y="0" width="54" height="100" fill="#126F6F"/>

<rect x="68" y="0" width="1" height="100" fill="#8F9579"/>

<rect x="69" y="0" width="27" height="100" fill="#E9A757"/>

<rect x="96" y="0" width="2" height="100" fill="#268F83"/>

<rect x="98" y="0" width="2" height="100" fill="#F9C371"/>

</g>


<g id="1" transform="translate(100,0)scale(1,1)">


<rect x="0" y="0" width="14" height="100" fill="#C5853E"/>

<rect x="14" y="0" width="54" height="100" fill="#126F6F"/>

<rect x="68" y="0" width="1" height="100" fill="#8F9579"/>

<rect x="69" y="0" width="27" height="100" fill="#E9A757"/>

<rect x="96" y="0" width="2" height="100" fill="#268F83"/>

<rect x="98" y="0" width="2" height="100" fill="#F9C371"/>

</g>


<g id="2" transform="translate(200,0)scale(1,1)">


<rect x="0" y="0" width="14" height="100" fill="#C5853E"/>

<rect x="14" y="0" width="54" height="100" fill="#126F6F"/>

<rect x="68" y="0" width="1" height="100" fill="#8F9579"/>

<rect x="69" y="0" width="27" height="100" fill="#E9A757"/>

<rect x="96" y="0" width="2" height="100" fill="#268F83"/>

<rect x="98" y="0" width="2" height="100" fill="#F9C371"/>

</g>


<g id="3" transform="translate(300,0)scale(1,1)">


<rect x="0" y="0" width="14" height="100" fill="#C5853E"/>

<rect x="14" y="0" width="54" height="100" fill="#126F6F"/>

<rect x="68" y="0" width="1" height="100" fill="#8F9579"/>

<rect x="69" y="0" width="27" height="100" fill="#E9A757"/>

<rect x="96" y="0" width="2" height="100" fill="#268F83"/>

<rect x="98" y="0" width="2" height="100" fill="#F9C371"/>

</g>


<g id="4" transform="translate(400,0)scale(1,1)">


<rect x="0" y="0" width="14" height="100" fill="#C5853E"/>

<rect x="14" y="0" width="54" height="100" fill="#126F6F"/>

<rect x="68" y="0" width="1" height="100" fill="#8F9579"/>

<rect x="69" y="0" width="27" height="100" fill="#E9A757"/>

<rect x="96" y="0" width="2" height="100" fill="#268F83"/>

<rect x="98" y="0" width="2" height="100" fill="#F9C371"/>

</g>


</g>

<g id="row2" transform="translate(0,200.0)">

<g id="0" transform="translate(0,0)scale(1,1)">


<rect x="0" y="0" width="14" height="100" fill="#C5853E"/>

<rect x="14" y="0" width="54" height="100" fill="#126F6F"/>

<rect x="68" y="0" width="1" height="100" fill="#8F9579"/>

<rect x="69" y="0" width="27" height="100" fill="#E9A757"/>

<rect x="96" y="0" width="2" height="100" fill="#268F83"/>

<rect x="98" y="0" width="2" height="100" fill="#F9C371"/>

</g>


<g id="1" transform="translate(100,0)scale(1,1)">


<rect x="0" y="0" width="14" height="100" fill="#C5853E"/>

<rect x="14" y="0" width="54" height="100" fill="#126F6F"/>

<rect x="68" y="0" width="1" height="100" fill="#8F9579"/>

<rect x="69" y="0" width="27" height="100" fill="#E9A757"/>

<rect x="96" y="0" width="2" height="100" fill="#268F83"/>

<rect x="98" y="0" width="2" height="100" fill="#F9C371"/>

</g>


<g id="2" transform="translate(200,0)scale(1,1)">


<rect x="0" y="0" width="14" height="100" fill="#C5853E"/>

<rect x="14" y="0" width="54" height="100" fill="#126F6F"/>

<rect x="68" y="0" width="1" height="100" fill="#8F9579"/>

<rect x="69" y="0" width="27" height="100" fill="#E9A757"/>

<rect x="96" y="0" width="2" height="100" fill="#268F83"/>

<rect x="98" y="0" width="2" height="100" fill="#F9C371"/>

</g>


<g id="3" transform="translate(300,0)scale(1,1)">


<rect x="0" y="0" width="14" height="100" fill="#C5853E"/>

<rect x="14" y="0" width="54" height="100" fill="#126F6F"/>

<rect x="68" y="0" width="1" height="100" fill="#8F9579"/>

<rect x="69" y="0" width="27" height="100" fill="#E9A757"/>

<rect x="96" y="0" width="2" height="100" fill="#268F83"/>

<rect x="98" y="0" width="2" height="100" fill="#F9C371"/>

</g>


<g id="4" transform="translate(400,0)scale(1,1)">


<rect x="0" y="0" width="14" height="100" fill="#C5853E"/>

<rect x="14" y="0" width="54" height="100" fill="#126F6F"/>

<rect x="68" y="0" width="1" height="100" fill="#8F9579"/>

<rect x="69" y="0" width="27" height="100" fill="#E9A757"/>

<rect x="96" y="0" width="2" height="100" fill="#268F83"/>

<rect x="98" y="0" width="2" height="100" fill="#F9C371"/>

</g>


</g>

<g id="row3" transform="translate(0,300.0)">

<g id="0" transform="translate(0,0)scale(1,1)">


<rect x="0" y="0" width="14" height="100" fill="#C5853E"/>

<rect x="14" y="0" width="54" height="100" fill="#126F6F"/>

<rect x="68" y="0" width="1" height="100" fill="#8F9579"/>

<rect x="69" y="0" width="27" height="100" fill="#E9A757"/>

<rect x="96" y="0" width="2" height="100" fill="#268F83"/>

<rect x="98" y="0" width="2" height="100" fill="#F9C371"/>

</g>


<g id="1" transform="translate(100,0)scale(1,1)">


<rect x="0" y="0" width="14" height="100" fill="#C5853E"/>

<rect x="14" y="0" width="54" height="100" fill="#126F6F"/>

<rect x="68" y="0" width="1" height="100" fill="#8F9579"/>

<rect x="69" y="0" width="27" height="100" fill="#E9A757"/>

<rect x="96" y="0" width="2" height="100" fill="#268F83"/>

<rect x="98" y="0" width="2" height="100" fill="#F9C371"/>

</g>


<g id="2" transform="translate(200,0)scale(1,1)">


<rect x="0" y="0" width="14" height="100" fill="#C5853E"/>

<rect x="14" y="0" width="54" height="100" fill="#126F6F"/>

<rect x="68" y="0" width="1" height="100" fill="#8F9579"/>

<rect x="69" y="0" width="27" height="100" fill="#E9A757"/>

<rect x="96" y="0" width="2" height="100" fill="#268F83"/>

<rect x="98" y="0" width="2" height="100" fill="#F9C371"/>

</g>


<g id="3" transform="translate(300,0)scale(1,1)">


<rect x="0" y="0" width="14" height="100" fill="#C5853E"/>

<rect x="14" y="0" width="54" height="100" fill="#126F6F"/>

<rect x="68" y="0" width="1" height="100" fill="#8F9579"/>

<rect x="69" y="0" width="27" height="100" fill="#E9A757"/>

<rect x="96" y="0" width="2" height="100" fill="#268F83"/>

<rect x="98" y="0" width="2" height="100" fill="#F9C371"/>

</g>


<g id="4" transform="translate(400,0)scale(1,1)">


<rect x="0" y="0" width="14" height="100" fill="#C5853E"/>

<rect x="14" y="0" width="54" height="100" fill="#126F6F"/>

<rect x="68" y="0" width="1" height="100" fill="#8F9579"/>

<rect x="69" y="0" width="27" height="100" fill="#E9A757"/>

<rect x="96" y="0" width="2" height="100" fill="#268F83"/>

<rect x="98" y="0" width="2" height="100" fill="#F9C371"/>

</g>


</g>

</svg>