<?xml version="1.0" standalone="no"?>
<!DOCTYPE svg PUBLIC "-//W3C//DTD SVG 20010904//EN"
 "http://www.w3.org/TR/2001/REC-SVG-20010904/DTD/svg10.dtd">
<svg version="1.0" xmlns="http://www.w3.org/2000/svg" 
width="400" height="400" viewBox="0 0 400 400"
preserveAspectRatio = "xMidYMid meet" >
<metadata>
Created by ZoeQu, written in 2022
</metadata>

<g id="row0" transform="translate(0,0.0)">

<g id="0" transform="translate(0,0)scale(1,1)">


<rect x="0" y="0" width="10" height="100" fill="#5A434F"/>

<rect x="10" y="0" width="68" height="100" fill="#A28D76"/>

<rect x="78" y="0" width="3" height="100" fill="#9C7FB6"/>

<rect x="81" y="0" width="1" height="100" fill="#B8DB4F"/>

<rect x="82" y="0" width="10" height="100" fill="#BBADE8"/>

<rect x="92" y="0" width="0" height="100" fill="#BCCB6F"/>

<rect x="92" y="0" width="1" height="100" fill="#B5B4BE"/>

<rect x="93" y="0" width="1" height="100" fill="#D6D4E1"/>

<rect x="94" y="0" width="6" height="100" fill="#EDF0EF"/>

</g>


<g id="1" transform="translate(100,0)scale(1,1)">


<rect x="0" y="0" width="10" height="100" fill="#5A434F"/>

<rect x="10" y="0" width="68" height="100" fill="#A28D76"/>

<rect x="78" y="0" width="3" height="100" fill="#9C7FB6"/>

<rect x="81" y="0" width="1" height="100" fill="#B8DB4F"/>

<rect x="82" y="0" width="10" height="100" fill="#BBADE8"/>

<rect x="92" y="0" width="0" height="100" fill="#BCCB6F"/>

<rect x="92" y="0" width="1" height="100" fill="#B5B4BE"/>

<rect x="93" y="0" width="1" height="100" fill="#D6D4E1"/>

<rect x="94" y="0" width="6" height="100" fill="#EDF0EF"/>

</g>


<g id="2" transform="translate(200,0)scale(1,1)">


<rect x="0" y="0" width="10" height="100" fill="#5A434F"/>

<rect x="10" y="0" width="68" height="100" fill="#A28D76"/>

<rect x="78" y="0" width="3" height="100" fill="#9C7FB6"/>

<rect x="81" y="0" width="1" height="100" fill="#B8DB4F"/>

<rect x="82" y="0" width="10" height="100" fill="#BBADE8"/>

<rect x="92" y="0" width="0" height="100" fill="#BCCB6F"/>

<rect x="92" y="0" width="1" height="100" fill="#B5B4BE"/>

<rect x="93" y="0" width="1" height="100" fill="#D6D4E1"/>

<rect x="94" y="0" width="6" height="100" fill="#EDF0EF"/>

</g>


<g id="3" transform="translate(300,0)scale(1,1)">


<rect x="0" y="0" width="10" height="100" fill="#5A434F"/>

<rect x="10" y="0" width="68" height="100" fill="#A28D76"/>

<rect x="78" y="0" width="3" height="100" fill="#9C7FB6"/>

<rect x="81" y="0" width="1" height="100" fill="#B8DB4F"/>

<rect x="82" y="0" width="10" height="100" fill="#BBADE8"/>

<rect x="92" y="0" width="0" height="100" fill="#BCCB6F"/>

<rect x="92" y="0" width="1" height="100" fill="#B5B4BE"/>

<rect x="93" y="0" width="1" height="100" fill="#D6D4E1"/>

<rect x="94" y="0" width="6" height="100" fill="#EDF0EF"/>

</g>


<g id="4" transform="translate(400,0)scale(1,1)">


<rect x="0" y="0" width="10" height="100" fill="#5A434F"/>

<rect x="10" y="0" width="68" height="100" fill="#A28D76"/>

<rect x="78" y="0" width="3" height="100" fill="#9C7FB6"/>

<rect x="81" y="0" width="1" height="100" fill="#B8DB4F"/>

<rect x="82" y="0" width="10" height="100" fill="#BBADE8"/>

<rect x="92" y="0" width="0" height="100" fill="#BCCB6F"/>

<rect x="92" y="0" width="1" height="100" fill="#B5B4BE"/>

<rect x="93" y="0" width="1" height="100" fill="#D6D4E1"/>

<rect x="94" y="0" width="6" height="100" fill="#EDF0EF"/>

</g>


</g>

<g id="row1" transform="translate(0,100.0)">

<g id="0" transform="translate(0,0)scale(1,1)">


<rect x="0" y="0" width="10" height="100" fill="#5A434F"/>

<rect x="10" y="0" width="68" height="100" fill="#A28D76"/>

<rect x="78" y="0" width="3" height="100" fill="#9C7FB6"/>

<rect x="81" y="0" width="1" height="100" fill="#B8DB4F"/>

<rect x="82" y="0" width="10" height="100" fill="#BBADE8"/>

<rect x="92" y="0" width="0" height="100" fill="#BCCB6F"/>

<rect x="92" y="0" width="1" height="100" fill="#B5B4BE"/>

<rect x="93" y="0" width="1" height="100" fill="#D6D4E1"/>

<rect x="94" y="0" width="6" height="100" fill="#EDF0EF"/>

</g>


<g id="1" transform="translate(100,0)scale(1,1)">


<rect x="0" y="0" width="10" height="100" fill="#5A434F"/>

<rect x="10" y="0" width="68" height="100" fill="#A28D76"/>

<rect x="78" y="0" width="3" height="100" fill="#9C7FB6"/>

<rect x="81" y="0" width="1" height="100" fill="#B8DB4F"/>

<rect x="82" y="0" width="10" height="100" fill="#BBADE8"/>

<rect x="92" y="0" width="0" height="100" fill="#BCCB6F"/>

<rect x="92" y="0" width="1" height="100" fill="#B5B4BE"/>

<rect x="93" y="0" width="1" height="100" fill="#D6D4E1"/>

<rect x="94" y="0" width="6" height="100" fill="#EDF0EF"/>

</g>


<g id="2" transform="translate(200,0)scale(1,1)">


<rect x="0" y="0" width="10" height="100" fill="#5A434F"/>

<rect x="10" y="0" width="68" height="100" fill="#A28D76"/>

<rect x="78" y="0" width="3" height="100" fill="#9C7FB6"/>

<rect x="81" y="0" width="1" height="100" fill="#B8DB4F"/>

<rect x="82" y="0" width="10" height="100" fill="#BBADE8"/>

<rect x="92" y="0" width="0" height="100" fill="#BCCB6F"/>

<rect x="92" y="0" width="1" height="100" fill="#B5B4BE"/>

<rect x="93" y="0" width="1" height="100" fill="#D6D4E1"/>

<rect x="94" y="0" width="6" height="100" fill="#EDF0EF"/>

</g>


<g id="3" transform="translate(300,0)scale(1,1)">


<rect x="0" y="0" width="10" height="100" fill="#5A434F"/>

<rect x="10" y="0" width="68" height="100" fill="#A28D76"/>

<rect x="78" y="0" width="3" height="100" fill="#9C7FB6"/>

<rect x="81" y="0" width="1" height="100" fill="#B8DB4F"/>

<rect x="82" y="0" width="10" height="100" fill="#BBADE8"/>

<rect x="92" y="0" width="0" height="100" fill="#BCCB6F"/>

<rect x="92" y="0" width="1" height="100" fill="#B5B4BE"/>

<rect x="93" y="0" width="1" height="100" fill="#D6D4E1"/>

<rect x="94" y="0" width="6" height="100" fill="#EDF0EF"/>

</g>


<g id="4" transform="translate(400,0)scale(1,1)">


<rect x="0" y="0" width="10" height="100" fill="#5A434F"/>

<rect x="10" y="0" width="68" height="100" fill="#A28D76"/>

<rect x="78" y="0" width="3" height="100" fill="#9C7FB6"/>

<rect x="81" y="0" width="1" height="100" fill="#B8DB4F"/>

<rect x="82" y="0" width="10" height="100" fill="#BBADE8"/>

<rect x="92" y="0" width="0" height="100" fill="#BCCB6F"/>

<rect x="92" y="0" width="1" height="100" fill="#B5B4BE"/>

<rect x="93" y="0" width="1" height="100" fill="#D6D4E1"/>

<rect x="94" y="0" width="6" height="100" fill="#EDF0EF"/>

</g>


</g>

<g id="row2" transform="translate(0,200.0)">

<g id="0" transform="translate(0,0)scale(1,1)">


<rect x="0" y="0" width="10" height="100" fill="#5A434F"/>

<rect x="10" y="0" width="68" height="100" fill="#A28D76"/>

<rect x="78" y="0" width="3" height="100" fill="#9C7FB6"/>

<rect x="81" y="0" width="1" height="100" fill="#B8DB4F"/>

<rect x="82" y="0" width="10" height="100" fill="#BBADE8"/>

<rect x="92" y="0" width="0" height="100" fill="#BCCB6F"/>

<rect x="92" y="0" width="1" height="100" fill="#B5B4BE"/>

<rect x="93" y="0" width="1" height="100" fill="#D6D4E1"/>

<rect x="94" y="0" width="6" height="100" fill="#EDF0EF"/>

</g>


<g id="1" transform="translate(100,0)scale(1,1)">


<rect x="0" y="0" width="10" height="100" fill="#5A434F"/>

<rect x="10" y="0" width="68" height="100" fill="#A28D76"/>

<rect x="78" y="0" width="3" height="100" fill="#9C7FB6"/>

<rect x="81" y="0" width="1" height="100" fill="#B8DB4F"/>

<rect x="82" y="0" width="10" height="100" fill="#BBADE8"/>

<rect x="92" y="0" width="0" height="100" fill="#BCCB6F"/>

<rect x="92" y="0" width="1" height="100" fill="#B5B4BE"/>

<rect x="93" y="0" width="1" height="100" fill="#D6D4E1"/>

<rect x="94" y="0" width="6" height="100" fill="#EDF0EF"/>

</g>


<g id="2" transform="translate(200,0)scale(1,1)">


<rect x="0" y="0" width="10" height="100" fill="#5A434F"/>

<rect x="10" y="0" width="68" height="100" fill="#A28D76"/>

<rect x="78" y="0" width="3" height="100" fill="#9C7FB6"/>

<rect x="81" y="0" width="1" height="100" fill="#B8DB4F"/>

<rect x="82" y="0" width="10" height="100" fill="#BBADE8"/>

<rect x="92" y="0" width="0" height="100" fill="#BCCB6F"/>

<rect x="92" y="0" width="1" height="100" fill="#B5B4BE"/>

<rect x="93" y="0" width="1" height="100" fill="#D6D4E1"/>

<rect x="94" y="0" width="6" height="100" fill="#EDF0EF"/>

</g>


<g id="3" transform="translate(300,0)scale(1,1)">


<rect x="0" y="0" width="10" height="100" fill="#5A434F"/>

<rect x="10" y="0" width="68" height="100" fill="#A28D76"/>

<rect x="78" y="0" width="3" height="100" fill="#9C7FB6"/>

<rect x="81" y="0" width="1" height="100" fill="#B8DB4F"/>

<rect x="82" y="0" width="10" height="100" fill="#BBADE8"/>

<rect x="92" y="0" width="0" height="100" fill="#BCCB6F"/>

<rect x="92" y="0" width="1" height="100" fill="#B5B4BE"/>

<rect x="93" y="0" width="1" height="100" fill="#D6D4E1"/>

<rect x="94" y="0" width="6" height="100" fill="#EDF0EF"/>

</g>


<g id="4" transform="translate(400,0)scale(1,1)">


<rect x="0" y="0" width="10" height="100" fill="#5A434F"/>

<rect x="10" y="0" width="68" height="100" fill="#A28D76"/>

<rect x="78" y="0" width="3" height="100" fill="#9C7FB6"/>

<rect x="81" y="0" width="1" height="100" fill="#B8DB4F"/>

<rect x="82" y="0" width="10" height="100" fill="#BBADE8"/>

<rect x="92" y="0" width="0" height="100" fill="#BCCB6F"/>

<rect x="92" y="0" width="1" height="100" fill="#B5B4BE"/>

<rect x="93" y="0" width="1" height="100" fill="#D6D4E1"/>

<rect x="94" y="0" width="6" height="100" fill="#EDF0EF"/>

</g>


</g>

<g id="row3" transform="translate(0,300.0)">

<g id="0" transform="translate(0,0)scale(1,1)">


<rect x="0" y="0" width="10" height="100" fill="#5A434F"/>

<rect x="10" y="0" width="68" height="100" fill="#A28D76"/>

<rect x="78" y="0" width="3" height="100" fill="#9C7FB6"/>

<rect x="81" y="0" width="1" height="100" fill="#B8DB4F"/>

<rect x="82" y="0" width="10" height="100" fill="#BBADE8"/>

<rect x="92" y="0" width="0" height="100" fill="#BCCB6F"/>

<rect x="92" y="0" width="1" height="100" fill="#B5B4BE"/>

<rect x="93" y="0" width="1" height="100" fill="#D6D4E1"/>

<rect x="94" y="0" width="6" height="100" fill="#EDF0EF"/>

</g>


<g id="1" transform="translate(100,0)scale(1,1)">


<rect x="0" y="0" width="10" height="100" fill="#5A434F"/>

<rect x="10" y="0" width="68" height="100" fill="#A28D76"/>

<rect x="78" y="0" width="3" height="100" fill="#9C7FB6"/>

<rect x="81" y="0" width="1" height="100" fill="#B8DB4F"/>

<rect x="82" y="0" width="10" height="100" fill="#BBADE8"/>

<rect x="92" y="0" width="0" height="100" fill="#BCCB6F"/>

<rect x="92" y="0" width="1" height="100" fill="#B5B4BE"/>

<rect x="93" y="0" width="1" height="100" fill="#D6D4E1"/>

<rect x="94" y="0" width="6" height="100" fill="#EDF0EF"/>

</g>


<g id="2" transform="translate(200,0)scale(1,1)">


<rect x="0" y="0" width="10" height="100" fill="#5A434F"/>

<rect x="10" y="0" width="68" height="100" fill="#A28D76"/>

<rect x="78" y="0" width="3" height="100" fill="#9C7FB6"/>

<rect x="81" y="0" width="1" height="100" fill="#B8DB4F"/>

<rect x="82" y="0" width="10" height="100" fill="#BBADE8"/>

<rect x="92" y="0" width="0" height="100" fill="#BCCB6F"/>

<rect x="92" y="0" width="1" height="100" fill="#B5B4BE"/>

<rect x="93" y="0" width="1" height="100" fill="#D6D4E1"/>

<rect x="94" y="0" width="6" height="100" fill="#EDF0EF"/>

</g>


<g id="3" transform="translate(300,0)scale(1,1)">


<rect x="0" y="0" width="10" height="100" fill="#5A434F"/>

<rect x="10" y="0" width="68" height="100" fill="#A28D76"/>

<rect x="78" y="0" width="3" height="100" fill="#9C7FB6"/>

<rect x="81" y="0" width="1" height="100" fill="#B8DB4F"/>

<rect x="82" y="0" width="10" height="100" fill="#BBADE8"/>

<rect x="92" y="0" width="0" height="100" fill="#BCCB6F"/>

<rect x="92" y="0" width="1" height="100" fill="#B5B4BE"/>

<rect x="93" y="0" width="1" height="100" fill="#D6D4E1"/>

<rect x="94" y="0" width="6" height="100" fill="#EDF0EF"/>

</g>


<g id="4" transform="translate(400,0)scale(1,1)">


<rect x="0" y="0" width="10" height="100" fill="#5A434F"/>

<rect x="10" y="0" width="68" height="100" fill="#A28D76"/>

<rect x="78" y="0" width="3" height="100" fill="#9C7FB6"/>

<rect x="81" y="0" width="1" height="100" fill="#B8DB4F"/>

<rect x="82" y="0" width="10" height="100" fill="#BBADE8"/>

<rect x="92" y="0" width="0" height="100" fill="#BCCB6F"/>

<rect x="92" y="0" width="1" height="100" fill="#B5B4BE"/>

<rect x="93" y="0" width="1" height="100" fill="#D6D4E1"/>

<rect x="94" y="0" width="6" height="100" fill="#EDF0EF"/>

</g>


</g>

</svg>