<?xml version="1.0" standalone="no"?>
<!DOCTYPE svg PUBLIC "-//W3C//DTD SVG 20010904//EN"
 "http://www.w3.org/TR/2001/REC-SVG-20010904/DTD/svg10.dtd">
<svg version="1.0" xmlns="http://www.w3.org/2000/svg" 
width="400" height="400" viewBox="0 0 400 400"
preserveAspectRatio = "xMidYMid meet" >
<metadata>
Created by ZoeQu, written in 2022
</metadata>

<g id="row0" transform="translate(0,0.0)">

<g id="0" transform="translate(0,0)scale(1,1)">


<rect x="0" y="0" width="11" height="100" fill="#B77166"/>

<rect x="11" y="0" width="46" height="100" fill="#E99324"/>

<rect x="57" y="0" width="19" height="100" fill="#A8C0F5"/>

<rect x="76" y="0" width="10" height="100" fill="#FDDA64"/>

<rect x="86" y="0" width="7" height="100" fill="#C191DD"/>

<rect x="93" y="0" width="0" height="100" fill="#E5E4B8"/>

<rect x="93" y="0" width="5" height="100" fill="#FBBA33"/>

<rect x="98" y="0" width="1" height="100" fill="#8D5AAA"/>

<rect x="99" y="0" width="1" height="100" fill="#A76FB9"/>

</g>


<g id="1" transform="translate(100,0)scale(1,1)">


<rect x="0" y="0" width="11" height="100" fill="#B77166"/>

<rect x="11" y="0" width="46" height="100" fill="#E99324"/>

<rect x="57" y="0" width="19" height="100" fill="#A8C0F5"/>

<rect x="76" y="0" width="10" height="100" fill="#FDDA64"/>

<rect x="86" y="0" width="7" height="100" fill="#C191DD"/>

<rect x="93" y="0" width="0" height="100" fill="#E5E4B8"/>

<rect x="93" y="0" width="5" height="100" fill="#FBBA33"/>

<rect x="98" y="0" width="1" height="100" fill="#8D5AAA"/>

<rect x="99" y="0" width="1" height="100" fill="#A76FB9"/>

</g>


<g id="2" transform="translate(200,0)scale(1,1)">


<rect x="0" y="0" width="11" height="100" fill="#B77166"/>

<rect x="11" y="0" width="46" height="100" fill="#E99324"/>

<rect x="57" y="0" width="19" height="100" fill="#A8C0F5"/>

<rect x="76" y="0" width="10" height="100" fill="#FDDA64"/>

<rect x="86" y="0" width="7" height="100" fill="#C191DD"/>

<rect x="93" y="0" width="0" height="100" fill="#E5E4B8"/>

<rect x="93" y="0" width="5" height="100" fill="#FBBA33"/>

<rect x="98" y="0" width="1" height="100" fill="#8D5AAA"/>

<rect x="99" y="0" width="1" height="100" fill="#A76FB9"/>

</g>


<g id="3" transform="translate(300,0)scale(1,1)">


<rect x="0" y="0" width="11" height="100" fill="#B77166"/>

<rect x="11" y="0" width="46" height="100" fill="#E99324"/>

<rect x="57" y="0" width="19" height="100" fill="#A8C0F5"/>

<rect x="76" y="0" width="10" height="100" fill="#FDDA64"/>

<rect x="86" y="0" width="7" height="100" fill="#C191DD"/>

<rect x="93" y="0" width="0" height="100" fill="#E5E4B8"/>

<rect x="93" y="0" width="5" height="100" fill="#FBBA33"/>

<rect x="98" y="0" width="1" height="100" fill="#8D5AAA"/>

<rect x="99" y="0" width="1" height="100" fill="#A76FB9"/>

</g>


<g id="4" transform="translate(400,0)scale(1,1)">


<rect x="0" y="0" width="11" height="100" fill="#B77166"/>

<rect x="11" y="0" width="46" height="100" fill="#E99324"/>

<rect x="57" y="0" width="19" height="100" fill="#A8C0F5"/>

<rect x="76" y="0" width="10" height="100" fill="#FDDA64"/>

<rect x="86" y="0" width="7" height="100" fill="#C191DD"/>

<rect x="93" y="0" width="0" height="100" fill="#E5E4B8"/>

<rect x="93" y="0" width="5" height="100" fill="#FBBA33"/>

<rect x="98" y="0" width="1" height="100" fill="#8D5AAA"/>

<rect x="99" y="0" width="1" height="100" fill="#A76FB9"/>

</g>


</g>

<g id="row1" transform="translate(0,100.0)">

<g id="0" transform="translate(0,0)scale(1,1)">


<rect x="0" y="0" width="11" height="100" fill="#B77166"/>

<rect x="11" y="0" width="46" height="100" fill="#E99324"/>

<rect x="57" y="0" width="19" height="100" fill="#A8C0F5"/>

<rect x="76" y="0" width="10" height="100" fill="#FDDA64"/>

<rect x="86" y="0" width="7" height="100" fill="#C191DD"/>

<rect x="93" y="0" width="0" height="100" fill="#E5E4B8"/>

<rect x="93" y="0" width="5" height="100" fill="#FBBA33"/>

<rect x="98" y="0" width="1" height="100" fill="#8D5AAA"/>

<rect x="99" y="0" width="1" height="100" fill="#A76FB9"/>

</g>


<g id="1" transform="translate(100,0)scale(1,1)">


<rect x="0" y="0" width="11" height="100" fill="#B77166"/>

<rect x="11" y="0" width="46" height="100" fill="#E99324"/>

<rect x="57" y="0" width="19" height="100" fill="#A8C0F5"/>

<rect x="76" y="0" width="10" height="100" fill="#FDDA64"/>

<rect x="86" y="0" width="7" height="100" fill="#C191DD"/>

<rect x="93" y="0" width="0" height="100" fill="#E5E4B8"/>

<rect x="93" y="0" width="5" height="100" fill="#FBBA33"/>

<rect x="98" y="0" width="1" height="100" fill="#8D5AAA"/>

<rect x="99" y="0" width="1" height="100" fill="#A76FB9"/>

</g>


<g id="2" transform="translate(200,0)scale(1,1)">


<rect x="0" y="0" width="11" height="100" fill="#B77166"/>

<rect x="11" y="0" width="46" height="100" fill="#E99324"/>

<rect x="57" y="0" width="19" height="100" fill="#A8C0F5"/>

<rect x="76" y="0" width="10" height="100" fill="#FDDA64"/>

<rect x="86" y="0" width="7" height="100" fill="#C191DD"/>

<rect x="93" y="0" width="0" height="100" fill="#E5E4B8"/>

<rect x="93" y="0" width="5" height="100" fill="#FBBA33"/>

<rect x="98" y="0" width="1" height="100" fill="#8D5AAA"/>

<rect x="99" y="0" width="1" height="100" fill="#A76FB9"/>

</g>


<g id="3" transform="translate(300,0)scale(1,1)">


<rect x="0" y="0" width="11" height="100" fill="#B77166"/>

<rect x="11" y="0" width="46" height="100" fill="#E99324"/>

<rect x="57" y="0" width="19" height="100" fill="#A8C0F5"/>

<rect x="76" y="0" width="10" height="100" fill="#FDDA64"/>

<rect x="86" y="0" width="7" height="100" fill="#C191DD"/>

<rect x="93" y="0" width="0" height="100" fill="#E5E4B8"/>

<rect x="93" y="0" width="5" height="100" fill="#FBBA33"/>

<rect x="98" y="0" width="1" height="100" fill="#8D5AAA"/>

<rect x="99" y="0" width="1" height="100" fill="#A76FB9"/>

</g>


<g id="4" transform="translate(400,0)scale(1,1)">


<rect x="0" y="0" width="11" height="100" fill="#B77166"/>

<rect x="11" y="0" width="46" height="100" fill="#E99324"/>

<rect x="57" y="0" width="19" height="100" fill="#A8C0F5"/>

<rect x="76" y="0" width="10" height="100" fill="#FDDA64"/>

<rect x="86" y="0" width="7" height="100" fill="#C191DD"/>

<rect x="93" y="0" width="0" height="100" fill="#E5E4B8"/>

<rect x="93" y="0" width="5" height="100" fill="#FBBA33"/>

<rect x="98" y="0" width="1" height="100" fill="#8D5AAA"/>

<rect x="99" y="0" width="1" height="100" fill="#A76FB9"/>

</g>


</g>

<g id="row2" transform="translate(0,200.0)">

<g id="0" transform="translate(0,0)scale(1,1)">


<rect x="0" y="0" width="11" height="100" fill="#B77166"/>

<rect x="11" y="0" width="46" height="100" fill="#E99324"/>

<rect x="57" y="0" width="19" height="100" fill="#A8C0F5"/>

<rect x="76" y="0" width="10" height="100" fill="#FDDA64"/>

<rect x="86" y="0" width="7" height="100" fill="#C191DD"/>

<rect x="93" y="0" width="0" height="100" fill="#E5E4B8"/>

<rect x="93" y="0" width="5" height="100" fill="#FBBA33"/>

<rect x="98" y="0" width="1" height="100" fill="#8D5AAA"/>

<rect x="99" y="0" width="1" height="100" fill="#A76FB9"/>

</g>


<g id="1" transform="translate(100,0)scale(1,1)">


<rect x="0" y="0" width="11" height="100" fill="#B77166"/>

<rect x="11" y="0" width="46" height="100" fill="#E99324"/>

<rect x="57" y="0" width="19" height="100" fill="#A8C0F5"/>

<rect x="76" y="0" width="10" height="100" fill="#FDDA64"/>

<rect x="86" y="0" width="7" height="100" fill="#C191DD"/>

<rect x="93" y="0" width="0" height="100" fill="#E5E4B8"/>

<rect x="93" y="0" width="5" height="100" fill="#FBBA33"/>

<rect x="98" y="0" width="1" height="100" fill="#8D5AAA"/>

<rect x="99" y="0" width="1" height="100" fill="#A76FB9"/>

</g>


<g id="2" transform="translate(200,0)scale(1,1)">


<rect x="0" y="0" width="11" height="100" fill="#B77166"/>

<rect x="11" y="0" width="46" height="100" fill="#E99324"/>

<rect x="57" y="0" width="19" height="100" fill="#A8C0F5"/>

<rect x="76" y="0" width="10" height="100" fill="#FDDA64"/>

<rect x="86" y="0" width="7" height="100" fill="#C191DD"/>

<rect x="93" y="0" width="0" height="100" fill="#E5E4B8"/>

<rect x="93" y="0" width="5" height="100" fill="#FBBA33"/>

<rect x="98" y="0" width="1" height="100" fill="#8D5AAA"/>

<rect x="99" y="0" width="1" height="100" fill="#A76FB9"/>

</g>


<g id="3" transform="translate(300,0)scale(1,1)">


<rect x="0" y="0" width="11" height="100" fill="#B77166"/>

<rect x="11" y="0" width="46" height="100" fill="#E99324"/>

<rect x="57" y="0" width="19" height="100" fill="#A8C0F5"/>

<rect x="76" y="0" width="10" height="100" fill="#FDDA64"/>

<rect x="86" y="0" width="7" height="100" fill="#C191DD"/>

<rect x="93" y="0" width="0" height="100" fill="#E5E4B8"/>

<rect x="93" y="0" width="5" height="100" fill="#FBBA33"/>

<rect x="98" y="0" width="1" height="100" fill="#8D5AAA"/>

<rect x="99" y="0" width="1" height="100" fill="#A76FB9"/>

</g>


<g id="4" transform="translate(400,0)scale(1,1)">


<rect x="0" y="0" width="11" height="100" fill="#B77166"/>

<rect x="11" y="0" width="46" height="100" fill="#E99324"/>

<rect x="57" y="0" width="19" height="100" fill="#A8C0F5"/>

<rect x="76" y="0" width="10" height="100" fill="#FDDA64"/>

<rect x="86" y="0" width="7" height="100" fill="#C191DD"/>

<rect x="93" y="0" width="0" height="100" fill="#E5E4B8"/>

<rect x="93" y="0" width="5" height="100" fill="#FBBA33"/>

<rect x="98" y="0" width="1" height="100" fill="#8D5AAA"/>

<rect x="99" y="0" width="1" height="100" fill="#A76FB9"/>

</g>


</g>

<g id="row3" transform="translate(0,300.0)">

<g id="0" transform="translate(0,0)scale(1,1)">


<rect x="0" y="0" width="11" height="100" fill="#B77166"/>

<rect x="11" y="0" width="46" height="100" fill="#E99324"/>

<rect x="57" y="0" width="19" height="100" fill="#A8C0F5"/>

<rect x="76" y="0" width="10" height="100" fill="#FDDA64"/>

<rect x="86" y="0" width="7" height="100" fill="#C191DD"/>

<rect x="93" y="0" width="0" height="100" fill="#E5E4B8"/>

<rect x="93" y="0" width="5" height="100" fill="#FBBA33"/>

<rect x="98" y="0" width="1" height="100" fill="#8D5AAA"/>

<rect x="99" y="0" width="1" height="100" fill="#A76FB9"/>

</g>


<g id="1" transform="translate(100,0)scale(1,1)">


<rect x="0" y="0" width="11" height="100" fill="#B77166"/>

<rect x="11" y="0" width="46" height="100" fill="#E99324"/>

<rect x="57" y="0" width="19" height="100" fill="#A8C0F5"/>

<rect x="76" y="0" width="10" height="100" fill="#FDDA64"/>

<rect x="86" y="0" width="7" height="100" fill="#C191DD"/>

<rect x="93" y="0" width="0" height="100" fill="#E5E4B8"/>

<rect x="93" y="0" width="5" height="100" fill="#FBBA33"/>

<rect x="98" y="0" width="1" height="100" fill="#8D5AAA"/>

<rect x="99" y="0" width="1" height="100" fill="#A76FB9"/>

</g>


<g id="2" transform="translate(200,0)scale(1,1)">


<rect x="0" y="0" width="11" height="100" fill="#B77166"/>

<rect x="11" y="0" width="46" height="100" fill="#E99324"/>

<rect x="57" y="0" width="19" height="100" fill="#A8C0F5"/>

<rect x="76" y="0" width="10" height="100" fill="#FDDA64"/>

<rect x="86" y="0" width="7" height="100" fill="#C191DD"/>

<rect x="93" y="0" width="0" height="100" fill="#E5E4B8"/>

<rect x="93" y="0" width="5" height="100" fill="#FBBA33"/>

<rect x="98" y="0" width="1" height="100" fill="#8D5AAA"/>

<rect x="99" y="0" width="1" height="100" fill="#A76FB9"/>

</g>


<g id="3" transform="translate(300,0)scale(1,1)">


<rect x="0" y="0" width="11" height="100" fill="#B77166"/>

<rect x="11" y="0" width="46" height="100" fill="#E99324"/>

<rect x="57" y="0" width="19" height="100" fill="#A8C0F5"/>

<rect x="76" y="0" width="10" height="100" fill="#FDDA64"/>

<rect x="86" y="0" width="7" height="100" fill="#C191DD"/>

<rect x="93" y="0" width="0" height="100" fill="#E5E4B8"/>

<rect x="93" y="0" width="5" height="100" fill="#FBBA33"/>

<rect x="98" y="0" width="1" height="100" fill="#8D5AAA"/>

<rect x="99" y="0" width="1" height="100" fill="#A76FB9"/>

</g>


<g id="4" transform="translate(400,0)scale(1,1)">


<rect x="0" y="0" width="11" height="100" fill="#B77166"/>

<rect x="11" y="0" width="46" height="100" fill="#E99324"/>

<rect x="57" y="0" width="19" height="100" fill="#A8C0F5"/>

<rect x="76" y="0" width="10" height="100" fill="#FDDA64"/>

<rect x="86" y="0" width="7" height="100" fill="#C191DD"/>

<rect x="93" y="0" width="0" height="100" fill="#E5E4B8"/>

<rect x="93" y="0" width="5" height="100" fill="#FBBA33"/>

<rect x="98" y="0" width="1" height="100" fill="#8D5AAA"/>

<rect x="99" y="0" width="1" height="100" fill="#A76FB9"/>

</g>


</g>

</svg>