<?xml version="1.0" standalone="no"?>
<!DOCTYPE svg PUBLIC "-//W3C//DTD SVG 20010904//EN"
 "http://www.w3.org/TR/2001/REC-SVG-20010904/DTD/svg10.dtd">
<svg version="1.0" xmlns="http://www.w3.org/2000/svg" 
width="400" height="400" viewBox="0 0 400 400"
preserveAspectRatio = "xMidYMid meet" >
<metadata>
Created by ZoeQu, written in 2022
</metadata>

<g id="row0" transform="translate(0,0.0)">

<g id="0" transform="translate(0,0)scale(1,1)">


<rect x="0" y="0" width="14" height="100" fill="#5B454D"/>

<rect x="14" y="0" width="18" height="100" fill="#9B7DA9"/>

<rect x="32" y="0" width="40" height="100" fill="#BAACE7"/>

<rect x="72" y="0" width="0" height="100" fill="#B0ABAD"/>

<rect x="72" y="0" width="12" height="100" fill="#BBD063"/>

<rect x="84" y="0" width="5" height="100" fill="#D1D0DE"/>

<rect x="89" y="0" width="11" height="100" fill="#ECEFEE"/>

</g>


<g id="1" transform="translate(100,0)scale(1,1)">


<rect x="0" y="0" width="14" height="100" fill="#5B454D"/>

<rect x="14" y="0" width="18" height="100" fill="#9B7DA9"/>

<rect x="32" y="0" width="40" height="100" fill="#BAACE7"/>

<rect x="72" y="0" width="0" height="100" fill="#B0ABAD"/>

<rect x="72" y="0" width="12" height="100" fill="#BBD063"/>

<rect x="84" y="0" width="5" height="100" fill="#D1D0DE"/>

<rect x="89" y="0" width="11" height="100" fill="#ECEFEE"/>

</g>


<g id="2" transform="translate(200,0)scale(1,1)">


<rect x="0" y="0" width="14" height="100" fill="#5B454D"/>

<rect x="14" y="0" width="18" height="100" fill="#9B7DA9"/>

<rect x="32" y="0" width="40" height="100" fill="#BAACE7"/>

<rect x="72" y="0" width="0" height="100" fill="#B0ABAD"/>

<rect x="72" y="0" width="12" height="100" fill="#BBD063"/>

<rect x="84" y="0" width="5" height="100" fill="#D1D0DE"/>

<rect x="89" y="0" width="11" height="100" fill="#ECEFEE"/>

</g>


<g id="3" transform="translate(300,0)scale(1,1)">


<rect x="0" y="0" width="14" height="100" fill="#5B454D"/>

<rect x="14" y="0" width="18" height="100" fill="#9B7DA9"/>

<rect x="32" y="0" width="40" height="100" fill="#BAACE7"/>

<rect x="72" y="0" width="0" height="100" fill="#B0ABAD"/>

<rect x="72" y="0" width="12" height="100" fill="#BBD063"/>

<rect x="84" y="0" width="5" height="100" fill="#D1D0DE"/>

<rect x="89" y="0" width="11" height="100" fill="#ECEFEE"/>

</g>


<g id="4" transform="translate(400,0)scale(1,1)">


<rect x="0" y="0" width="14" height="100" fill="#5B454D"/>

<rect x="14" y="0" width="18" height="100" fill="#9B7DA9"/>

<rect x="32" y="0" width="40" height="100" fill="#BAACE7"/>

<rect x="72" y="0" width="0" height="100" fill="#B0ABAD"/>

<rect x="72" y="0" width="12" height="100" fill="#BBD063"/>

<rect x="84" y="0" width="5" height="100" fill="#D1D0DE"/>

<rect x="89" y="0" width="11" height="100" fill="#ECEFEE"/>

</g>


</g>

<g id="row1" transform="translate(0,100.0)">

<g id="0" transform="translate(0,0)scale(1,1)">


<rect x="0" y="0" width="14" height="100" fill="#5B454D"/>

<rect x="14" y="0" width="18" height="100" fill="#9B7DA9"/>

<rect x="32" y="0" width="40" height="100" fill="#BAACE7"/>

<rect x="72" y="0" width="0" height="100" fill="#B0ABAD"/>

<rect x="72" y="0" width="12" height="100" fill="#BBD063"/>

<rect x="84" y="0" width="5" height="100" fill="#D1D0DE"/>

<rect x="89" y="0" width="11" height="100" fill="#ECEFEE"/>

</g>


<g id="1" transform="translate(100,0)scale(1,1)">


<rect x="0" y="0" width="14" height="100" fill="#5B454D"/>

<rect x="14" y="0" width="18" height="100" fill="#9B7DA9"/>

<rect x="32" y="0" width="40" height="100" fill="#BAACE7"/>

<rect x="72" y="0" width="0" height="100" fill="#B0ABAD"/>

<rect x="72" y="0" width="12" height="100" fill="#BBD063"/>

<rect x="84" y="0" width="5" height="100" fill="#D1D0DE"/>

<rect x="89" y="0" width="11" height="100" fill="#ECEFEE"/>

</g>


<g id="2" transform="translate(200,0)scale(1,1)">


<rect x="0" y="0" width="14" height="100" fill="#5B454D"/>

<rect x="14" y="0" width="18" height="100" fill="#9B7DA9"/>

<rect x="32" y="0" width="40" height="100" fill="#BAACE7"/>

<rect x="72" y="0" width="0" height="100" fill="#B0ABAD"/>

<rect x="72" y="0" width="12" height="100" fill="#BBD063"/>

<rect x="84" y="0" width="5" height="100" fill="#D1D0DE"/>

<rect x="89" y="0" width="11" height="100" fill="#ECEFEE"/>

</g>


<g id="3" transform="translate(300,0)scale(1,1)">


<rect x="0" y="0" width="14" height="100" fill="#5B454D"/>

<rect x="14" y="0" width="18" height="100" fill="#9B7DA9"/>

<rect x="32" y="0" width="40" height="100" fill="#BAACE7"/>

<rect x="72" y="0" width="0" height="100" fill="#B0ABAD"/>

<rect x="72" y="0" width="12" height="100" fill="#BBD063"/>

<rect x="84" y="0" width="5" height="100" fill="#D1D0DE"/>

<rect x="89" y="0" width="11" height="100" fill="#ECEFEE"/>

</g>


<g id="4" transform="translate(400,0)scale(1,1)">


<rect x="0" y="0" width="14" height="100" fill="#5B454D"/>

<rect x="14" y="0" width="18" height="100" fill="#9B7DA9"/>

<rect x="32" y="0" width="40" height="100" fill="#BAACE7"/>

<rect x="72" y="0" width="0" height="100" fill="#B0ABAD"/>

<rect x="72" y="0" width="12" height="100" fill="#BBD063"/>

<rect x="84" y="0" width="5" height="100" fill="#D1D0DE"/>

<rect x="89" y="0" width="11" height="100" fill="#ECEFEE"/>

</g>


</g>

<g id="row2" transform="translate(0,200.0)">

<g id="0" transform="translate(0,0)scale(1,1)">


<rect x="0" y="0" width="14" height="100" fill="#5B454D"/>

<rect x="14" y="0" width="18" height="100" fill="#9B7DA9"/>

<rect x="32" y="0" width="40" height="100" fill="#BAACE7"/>

<rect x="72" y="0" width="0" height="100" fill="#B0ABAD"/>

<rect x="72" y="0" width="12" height="100" fill="#BBD063"/>

<rect x="84" y="0" width="5" height="100" fill="#D1D0DE"/>

<rect x="89" y="0" width="11" height="100" fill="#ECEFEE"/>

</g>


<g id="1" transform="translate(100,0)scale(1,1)">


<rect x="0" y="0" width="14" height="100" fill="#5B454D"/>

<rect x="14" y="0" width="18" height="100" fill="#9B7DA9"/>

<rect x="32" y="0" width="40" height="100" fill="#BAACE7"/>

<rect x="72" y="0" width="0" height="100" fill="#B0ABAD"/>

<rect x="72" y="0" width="12" height="100" fill="#BBD063"/>

<rect x="84" y="0" width="5" height="100" fill="#D1D0DE"/>

<rect x="89" y="0" width="11" height="100" fill="#ECEFEE"/>

</g>


<g id="2" transform="translate(200,0)scale(1,1)">


<rect x="0" y="0" width="14" height="100" fill="#5B454D"/>

<rect x="14" y="0" width="18" height="100" fill="#9B7DA9"/>

<rect x="32" y="0" width="40" height="100" fill="#BAACE7"/>

<rect x="72" y="0" width="0" height="100" fill="#B0ABAD"/>

<rect x="72" y="0" width="12" height="100" fill="#BBD063"/>

<rect x="84" y="0" width="5" height="100" fill="#D1D0DE"/>

<rect x="89" y="0" width="11" height="100" fill="#ECEFEE"/>

</g>


<g id="3" transform="translate(300,0)scale(1,1)">


<rect x="0" y="0" width="14" height="100" fill="#5B454D"/>

<rect x="14" y="0" width="18" height="100" fill="#9B7DA9"/>

<rect x="32" y="0" width="40" height="100" fill="#BAACE7"/>

<rect x="72" y="0" width="0" height="100" fill="#B0ABAD"/>

<rect x="72" y="0" width="12" height="100" fill="#BBD063"/>

<rect x="84" y="0" width="5" height="100" fill="#D1D0DE"/>

<rect x="89" y="0" width="11" height="100" fill="#ECEFEE"/>

</g>


<g id="4" transform="translate(400,0)scale(1,1)">


<rect x="0" y="0" width="14" height="100" fill="#5B454D"/>

<rect x="14" y="0" width="18" height="100" fill="#9B7DA9"/>

<rect x="32" y="0" width="40" height="100" fill="#BAACE7"/>

<rect x="72" y="0" width="0" height="100" fill="#B0ABAD"/>

<rect x="72" y="0" width="12" height="100" fill="#BBD063"/>

<rect x="84" y="0" width="5" height="100" fill="#D1D0DE"/>

<rect x="89" y="0" width="11" height="100" fill="#ECEFEE"/>

</g>


</g>

<g id="row3" transform="translate(0,300.0)">

<g id="0" transform="translate(0,0)scale(1,1)">


<rect x="0" y="0" width="14" height="100" fill="#5B454D"/>

<rect x="14" y="0" width="18" height="100" fill="#9B7DA9"/>

<rect x="32" y="0" width="40" height="100" fill="#BAACE7"/>

<rect x="72" y="0" width="0" height="100" fill="#B0ABAD"/>

<rect x="72" y="0" width="12" height="100" fill="#BBD063"/>

<rect x="84" y="0" width="5" height="100" fill="#D1D0DE"/>

<rect x="89" y="0" width="11" height="100" fill="#ECEFEE"/>

</g>


<g id="1" transform="translate(100,0)scale(1,1)">


<rect x="0" y="0" width="14" height="100" fill="#5B454D"/>

<rect x="14" y="0" width="18" height="100" fill="#9B7DA9"/>

<rect x="32" y="0" width="40" height="100" fill="#BAACE7"/>

<rect x="72" y="0" width="0" height="100" fill="#B0ABAD"/>

<rect x="72" y="0" width="12" height="100" fill="#BBD063"/>

<rect x="84" y="0" width="5" height="100" fill="#D1D0DE"/>

<rect x="89" y="0" width="11" height="100" fill="#ECEFEE"/>

</g>


<g id="2" transform="translate(200,0)scale(1,1)">


<rect x="0" y="0" width="14" height="100" fill="#5B454D"/>

<rect x="14" y="0" width="18" height="100" fill="#9B7DA9"/>

<rect x="32" y="0" width="40" height="100" fill="#BAACE7"/>

<rect x="72" y="0" width="0" height="100" fill="#B0ABAD"/>

<rect x="72" y="0" width="12" height="100" fill="#BBD063"/>

<rect x="84" y="0" width="5" height="100" fill="#D1D0DE"/>

<rect x="89" y="0" width="11" height="100" fill="#ECEFEE"/>

</g>


<g id="3" transform="translate(300,0)scale(1,1)">


<rect x="0" y="0" width="14" height="100" fill="#5B454D"/>

<rect x="14" y="0" width="18" height="100" fill="#9B7DA9"/>

<rect x="32" y="0" width="40" height="100" fill="#BAACE7"/>

<rect x="72" y="0" width="0" height="100" fill="#B0ABAD"/>

<rect x="72" y="0" width="12" height="100" fill="#BBD063"/>

<rect x="84" y="0" width="5" height="100" fill="#D1D0DE"/>

<rect x="89" y="0" width="11" height="100" fill="#ECEFEE"/>

</g>


<g id="4" transform="translate(400,0)scale(1,1)">


<rect x="0" y="0" width="14" height="100" fill="#5B454D"/>

<rect x="14" y="0" width="18" height="100" fill="#9B7DA9"/>

<rect x="32" y="0" width="40" height="100" fill="#BAACE7"/>

<rect x="72" y="0" width="0" height="100" fill="#B0ABAD"/>

<rect x="72" y="0" width="12" height="100" fill="#BBD063"/>

<rect x="84" y="0" width="5" height="100" fill="#D1D0DE"/>

<rect x="89" y="0" width="11" height="100" fill="#ECEFEE"/>

</g>


</g>

</svg>