<?xml version="1.0" standalone="no"?>
<!DOCTYPE svg PUBLIC "-//W3C//DTD SVG 20010904//EN"
 "http://www.w3.org/TR/2001/REC-SVG-20010904/DTD/svg10.dtd">
<svg version="1.0" xmlns="http://www.w3.org/2000/svg" 
width="400" height="400" viewBox="0 0 400 400"
preserveAspectRatio = "xMidYMid meet" >
<metadata>
Created by ZoeQu, written in 2022
</metadata>

<g id="row0" transform="translate(0,0.0)">

<g id="0" transform="translate(0,0)scale(1,1)">


<rect x="0" y="0" width="10" height="100" fill="#1C5DD3"/>

<rect x="10" y="0" width="40" height="100" fill="#4077D8"/>

<rect x="50" y="0" width="28" height="100" fill="#C6CEE1"/>

<rect x="78" y="0" width="1" height="100" fill="#578DDD"/>

<rect x="79" y="0" width="1" height="100" fill="#D9A9DA"/>

<rect x="80" y="0" width="14" height="100" fill="#D4BBDB"/>

<rect x="94" y="0" width="0" height="100" fill="#6BA1DD"/>

<rect x="94" y="0" width="1" height="100" fill="#B5B4DE"/>

<rect x="95" y="0" width="1" height="100" fill="#82B1DF"/>

<rect x="96" y="0" width="4" height="100" fill="#A2C0DF"/>

</g>


<g id="1" transform="translate(100,0)scale(1,1)">


<rect x="0" y="0" width="10" height="100" fill="#1C5DD3"/>

<rect x="10" y="0" width="40" height="100" fill="#4077D8"/>

<rect x="50" y="0" width="28" height="100" fill="#C6CEE1"/>

<rect x="78" y="0" width="1" height="100" fill="#578DDD"/>

<rect x="79" y="0" width="1" height="100" fill="#D9A9DA"/>

<rect x="80" y="0" width="14" height="100" fill="#D4BBDB"/>

<rect x="94" y="0" width="0" height="100" fill="#6BA1DD"/>

<rect x="94" y="0" width="1" height="100" fill="#B5B4DE"/>

<rect x="95" y="0" width="1" height="100" fill="#82B1DF"/>

<rect x="96" y="0" width="4" height="100" fill="#A2C0DF"/>

</g>


<g id="2" transform="translate(200,0)scale(1,1)">


<rect x="0" y="0" width="10" height="100" fill="#1C5DD3"/>

<rect x="10" y="0" width="40" height="100" fill="#4077D8"/>

<rect x="50" y="0" width="28" height="100" fill="#C6CEE1"/>

<rect x="78" y="0" width="1" height="100" fill="#578DDD"/>

<rect x="79" y="0" width="1" height="100" fill="#D9A9DA"/>

<rect x="80" y="0" width="14" height="100" fill="#D4BBDB"/>

<rect x="94" y="0" width="0" height="100" fill="#6BA1DD"/>

<rect x="94" y="0" width="1" height="100" fill="#B5B4DE"/>

<rect x="95" y="0" width="1" height="100" fill="#82B1DF"/>

<rect x="96" y="0" width="4" height="100" fill="#A2C0DF"/>

</g>


<g id="3" transform="translate(300,0)scale(1,1)">


<rect x="0" y="0" width="10" height="100" fill="#1C5DD3"/>

<rect x="10" y="0" width="40" height="100" fill="#4077D8"/>

<rect x="50" y="0" width="28" height="100" fill="#C6CEE1"/>

<rect x="78" y="0" width="1" height="100" fill="#578DDD"/>

<rect x="79" y="0" width="1" height="100" fill="#D9A9DA"/>

<rect x="80" y="0" width="14" height="100" fill="#D4BBDB"/>

<rect x="94" y="0" width="0" height="100" fill="#6BA1DD"/>

<rect x="94" y="0" width="1" height="100" fill="#B5B4DE"/>

<rect x="95" y="0" width="1" height="100" fill="#82B1DF"/>

<rect x="96" y="0" width="4" height="100" fill="#A2C0DF"/>

</g>


<g id="4" transform="translate(400,0)scale(1,1)">


<rect x="0" y="0" width="10" height="100" fill="#1C5DD3"/>

<rect x="10" y="0" width="40" height="100" fill="#4077D8"/>

<rect x="50" y="0" width="28" height="100" fill="#C6CEE1"/>

<rect x="78" y="0" width="1" height="100" fill="#578DDD"/>

<rect x="79" y="0" width="1" height="100" fill="#D9A9DA"/>

<rect x="80" y="0" width="14" height="100" fill="#D4BBDB"/>

<rect x="94" y="0" width="0" height="100" fill="#6BA1DD"/>

<rect x="94" y="0" width="1" height="100" fill="#B5B4DE"/>

<rect x="95" y="0" width="1" height="100" fill="#82B1DF"/>

<rect x="96" y="0" width="4" height="100" fill="#A2C0DF"/>

</g>


</g>

<g id="row1" transform="translate(0,100.0)">

<g id="0" transform="translate(0,0)scale(1,1)">


<rect x="0" y="0" width="10" height="100" fill="#1C5DD3"/>

<rect x="10" y="0" width="40" height="100" fill="#4077D8"/>

<rect x="50" y="0" width="28" height="100" fill="#C6CEE1"/>

<rect x="78" y="0" width="1" height="100" fill="#578DDD"/>

<rect x="79" y="0" width="1" height="100" fill="#D9A9DA"/>

<rect x="80" y="0" width="14" height="100" fill="#D4BBDB"/>

<rect x="94" y="0" width="0" height="100" fill="#6BA1DD"/>

<rect x="94" y="0" width="1" height="100" fill="#B5B4DE"/>

<rect x="95" y="0" width="1" height="100" fill="#82B1DF"/>

<rect x="96" y="0" width="4" height="100" fill="#A2C0DF"/>

</g>


<g id="1" transform="translate(100,0)scale(1,1)">


<rect x="0" y="0" width="10" height="100" fill="#1C5DD3"/>

<rect x="10" y="0" width="40" height="100" fill="#4077D8"/>

<rect x="50" y="0" width="28" height="100" fill="#C6CEE1"/>

<rect x="78" y="0" width="1" height="100" fill="#578DDD"/>

<rect x="79" y="0" width="1" height="100" fill="#D9A9DA"/>

<rect x="80" y="0" width="14" height="100" fill="#D4BBDB"/>

<rect x="94" y="0" width="0" height="100" fill="#6BA1DD"/>

<rect x="94" y="0" width="1" height="100" fill="#B5B4DE"/>

<rect x="95" y="0" width="1" height="100" fill="#82B1DF"/>

<rect x="96" y="0" width="4" height="100" fill="#A2C0DF"/>

</g>


<g id="2" transform="translate(200,0)scale(1,1)">


<rect x="0" y="0" width="10" height="100" fill="#1C5DD3"/>

<rect x="10" y="0" width="40" height="100" fill="#4077D8"/>

<rect x="50" y="0" width="28" height="100" fill="#C6CEE1"/>

<rect x="78" y="0" width="1" height="100" fill="#578DDD"/>

<rect x="79" y="0" width="1" height="100" fill="#D9A9DA"/>

<rect x="80" y="0" width="14" height="100" fill="#D4BBDB"/>

<rect x="94" y="0" width="0" height="100" fill="#6BA1DD"/>

<rect x="94" y="0" width="1" height="100" fill="#B5B4DE"/>

<rect x="95" y="0" width="1" height="100" fill="#82B1DF"/>

<rect x="96" y="0" width="4" height="100" fill="#A2C0DF"/>

</g>


<g id="3" transform="translate(300,0)scale(1,1)">


<rect x="0" y="0" width="10" height="100" fill="#1C5DD3"/>

<rect x="10" y="0" width="40" height="100" fill="#4077D8"/>

<rect x="50" y="0" width="28" height="100" fill="#C6CEE1"/>

<rect x="78" y="0" width="1" height="100" fill="#578DDD"/>

<rect x="79" y="0" width="1" height="100" fill="#D9A9DA"/>

<rect x="80" y="0" width="14" height="100" fill="#D4BBDB"/>

<rect x="94" y="0" width="0" height="100" fill="#6BA1DD"/>

<rect x="94" y="0" width="1" height="100" fill="#B5B4DE"/>

<rect x="95" y="0" width="1" height="100" fill="#82B1DF"/>

<rect x="96" y="0" width="4" height="100" fill="#A2C0DF"/>

</g>


<g id="4" transform="translate(400,0)scale(1,1)">


<rect x="0" y="0" width="10" height="100" fill="#1C5DD3"/>

<rect x="10" y="0" width="40" height="100" fill="#4077D8"/>

<rect x="50" y="0" width="28" height="100" fill="#C6CEE1"/>

<rect x="78" y="0" width="1" height="100" fill="#578DDD"/>

<rect x="79" y="0" width="1" height="100" fill="#D9A9DA"/>

<rect x="80" y="0" width="14" height="100" fill="#D4BBDB"/>

<rect x="94" y="0" width="0" height="100" fill="#6BA1DD"/>

<rect x="94" y="0" width="1" height="100" fill="#B5B4DE"/>

<rect x="95" y="0" width="1" height="100" fill="#82B1DF"/>

<rect x="96" y="0" width="4" height="100" fill="#A2C0DF"/>

</g>


</g>

<g id="row2" transform="translate(0,200.0)">

<g id="0" transform="translate(0,0)scale(1,1)">


<rect x="0" y="0" width="10" height="100" fill="#1C5DD3"/>

<rect x="10" y="0" width="40" height="100" fill="#4077D8"/>

<rect x="50" y="0" width="28" height="100" fill="#C6CEE1"/>

<rect x="78" y="0" width="1" height="100" fill="#578DDD"/>

<rect x="79" y="0" width="1" height="100" fill="#D9A9DA"/>

<rect x="80" y="0" width="14" height="100" fill="#D4BBDB"/>

<rect x="94" y="0" width="0" height="100" fill="#6BA1DD"/>

<rect x="94" y="0" width="1" height="100" fill="#B5B4DE"/>

<rect x="95" y="0" width="1" height="100" fill="#82B1DF"/>

<rect x="96" y="0" width="4" height="100" fill="#A2C0DF"/>

</g>


<g id="1" transform="translate(100,0)scale(1,1)">


<rect x="0" y="0" width="10" height="100" fill="#1C5DD3"/>

<rect x="10" y="0" width="40" height="100" fill="#4077D8"/>

<rect x="50" y="0" width="28" height="100" fill="#C6CEE1"/>

<rect x="78" y="0" width="1" height="100" fill="#578DDD"/>

<rect x="79" y="0" width="1" height="100" fill="#D9A9DA"/>

<rect x="80" y="0" width="14" height="100" fill="#D4BBDB"/>

<rect x="94" y="0" width="0" height="100" fill="#6BA1DD"/>

<rect x="94" y="0" width="1" height="100" fill="#B5B4DE"/>

<rect x="95" y="0" width="1" height="100" fill="#82B1DF"/>

<rect x="96" y="0" width="4" height="100" fill="#A2C0DF"/>

</g>


<g id="2" transform="translate(200,0)scale(1,1)">


<rect x="0" y="0" width="10" height="100" fill="#1C5DD3"/>

<rect x="10" y="0" width="40" height="100" fill="#4077D8"/>

<rect x="50" y="0" width="28" height="100" fill="#C6CEE1"/>

<rect x="78" y="0" width="1" height="100" fill="#578DDD"/>

<rect x="79" y="0" width="1" height="100" fill="#D9A9DA"/>

<rect x="80" y="0" width="14" height="100" fill="#D4BBDB"/>

<rect x="94" y="0" width="0" height="100" fill="#6BA1DD"/>

<rect x="94" y="0" width="1" height="100" fill="#B5B4DE"/>

<rect x="95" y="0" width="1" height="100" fill="#82B1DF"/>

<rect x="96" y="0" width="4" height="100" fill="#A2C0DF"/>

</g>


<g id="3" transform="translate(300,0)scale(1,1)">


<rect x="0" y="0" width="10" height="100" fill="#1C5DD3"/>

<rect x="10" y="0" width="40" height="100" fill="#4077D8"/>

<rect x="50" y="0" width="28" height="100" fill="#C6CEE1"/>

<rect x="78" y="0" width="1" height="100" fill="#578DDD"/>

<rect x="79" y="0" width="1" height="100" fill="#D9A9DA"/>

<rect x="80" y="0" width="14" height="100" fill="#D4BBDB"/>

<rect x="94" y="0" width="0" height="100" fill="#6BA1DD"/>

<rect x="94" y="0" width="1" height="100" fill="#B5B4DE"/>

<rect x="95" y="0" width="1" height="100" fill="#82B1DF"/>

<rect x="96" y="0" width="4" height="100" fill="#A2C0DF"/>

</g>


<g id="4" transform="translate(400,0)scale(1,1)">


<rect x="0" y="0" width="10" height="100" fill="#1C5DD3"/>

<rect x="10" y="0" width="40" height="100" fill="#4077D8"/>

<rect x="50" y="0" width="28" height="100" fill="#C6CEE1"/>

<rect x="78" y="0" width="1" height="100" fill="#578DDD"/>

<rect x="79" y="0" width="1" height="100" fill="#D9A9DA"/>

<rect x="80" y="0" width="14" height="100" fill="#D4BBDB"/>

<rect x="94" y="0" width="0" height="100" fill="#6BA1DD"/>

<rect x="94" y="0" width="1" height="100" fill="#B5B4DE"/>

<rect x="95" y="0" width="1" height="100" fill="#82B1DF"/>

<rect x="96" y="0" width="4" height="100" fill="#A2C0DF"/>

</g>


</g>

<g id="row3" transform="translate(0,300.0)">

<g id="0" transform="translate(0,0)scale(1,1)">


<rect x="0" y="0" width="10" height="100" fill="#1C5DD3"/>

<rect x="10" y="0" width="40" height="100" fill="#4077D8"/>

<rect x="50" y="0" width="28" height="100" fill="#C6CEE1"/>

<rect x="78" y="0" width="1" height="100" fill="#578DDD"/>

<rect x="79" y="0" width="1" height="100" fill="#D9A9DA"/>

<rect x="80" y="0" width="14" height="100" fill="#D4BBDB"/>

<rect x="94" y="0" width="0" height="100" fill="#6BA1DD"/>

<rect x="94" y="0" width="1" height="100" fill="#B5B4DE"/>

<rect x="95" y="0" width="1" height="100" fill="#82B1DF"/>

<rect x="96" y="0" width="4" height="100" fill="#A2C0DF"/>

</g>


<g id="1" transform="translate(100,0)scale(1,1)">


<rect x="0" y="0" width="10" height="100" fill="#1C5DD3"/>

<rect x="10" y="0" width="40" height="100" fill="#4077D8"/>

<rect x="50" y="0" width="28" height="100" fill="#C6CEE1"/>

<rect x="78" y="0" width="1" height="100" fill="#578DDD"/>

<rect x="79" y="0" width="1" height="100" fill="#D9A9DA"/>

<rect x="80" y="0" width="14" height="100" fill="#D4BBDB"/>

<rect x="94" y="0" width="0" height="100" fill="#6BA1DD"/>

<rect x="94" y="0" width="1" height="100" fill="#B5B4DE"/>

<rect x="95" y="0" width="1" height="100" fill="#82B1DF"/>

<rect x="96" y="0" width="4" height="100" fill="#A2C0DF"/>

</g>


<g id="2" transform="translate(200,0)scale(1,1)">


<rect x="0" y="0" width="10" height="100" fill="#1C5DD3"/>

<rect x="10" y="0" width="40" height="100" fill="#4077D8"/>

<rect x="50" y="0" width="28" height="100" fill="#C6CEE1"/>

<rect x="78" y="0" width="1" height="100" fill="#578DDD"/>

<rect x="79" y="0" width="1" height="100" fill="#D9A9DA"/>

<rect x="80" y="0" width="14" height="100" fill="#D4BBDB"/>

<rect x="94" y="0" width="0" height="100" fill="#6BA1DD"/>

<rect x="94" y="0" width="1" height="100" fill="#B5B4DE"/>

<rect x="95" y="0" width="1" height="100" fill="#82B1DF"/>

<rect x="96" y="0" width="4" height="100" fill="#A2C0DF"/>

</g>


<g id="3" transform="translate(300,0)scale(1,1)">


<rect x="0" y="0" width="10" height="100" fill="#1C5DD3"/>

<rect x="10" y="0" width="40" height="100" fill="#4077D8"/>

<rect x="50" y="0" width="28" height="100" fill="#C6CEE1"/>

<rect x="78" y="0" width="1" height="100" fill="#578DDD"/>

<rect x="79" y="0" width="1" height="100" fill="#D9A9DA"/>

<rect x="80" y="0" width="14" height="100" fill="#D4BBDB"/>

<rect x="94" y="0" width="0" height="100" fill="#6BA1DD"/>

<rect x="94" y="0" width="1" height="100" fill="#B5B4DE"/>

<rect x="95" y="0" width="1" height="100" fill="#82B1DF"/>

<rect x="96" y="0" width="4" height="100" fill="#A2C0DF"/>

</g>


<g id="4" transform="translate(400,0)scale(1,1)">


<rect x="0" y="0" width="10" height="100" fill="#1C5DD3"/>

<rect x="10" y="0" width="40" height="100" fill="#4077D8"/>

<rect x="50" y="0" width="28" height="100" fill="#C6CEE1"/>

<rect x="78" y="0" width="1" height="100" fill="#578DDD"/>

<rect x="79" y="0" width="1" height="100" fill="#D9A9DA"/>

<rect x="80" y="0" width="14" height="100" fill="#D4BBDB"/>

<rect x="94" y="0" width="0" height="100" fill="#6BA1DD"/>

<rect x="94" y="0" width="1" height="100" fill="#B5B4DE"/>

<rect x="95" y="0" width="1" height="100" fill="#82B1DF"/>

<rect x="96" y="0" width="4" height="100" fill="#A2C0DF"/>

</g>


</g>

</svg>