<?xml version="1.0" standalone="no"?>
<!DOCTYPE svg PUBLIC "-//W3C//DTD SVG 20010904//EN"
 "http://www.w3.org/TR/2001/REC-SVG-20010904/DTD/svg10.dtd">
<svg version="1.0" xmlns="http://www.w3.org/2000/svg" 
width="400" height="400" viewBox="0 0 400 400"
preserveAspectRatio = "xMidYMid meet" >
<metadata>
Created by ZoeQu, written in 2022
</metadata>

<g id="row0" transform="translate(0,0.0)">

<g id="0" transform="translate(0,0)scale(1,1)">


<rect x="0" y="0" width="11" height="100" fill="#BA7C37"/>

<rect x="11" y="0" width="77" height="100" fill="#827D64"/>

<rect x="88" y="0" width="12" height="100" fill="#9E9A7B"/>

<rect x="100" y="0" width="0" height="100" fill="#629B84"/>

<rect x="100" y="0" width="0" height="100" fill="#DC984B"/>

<rect x="100" y="0" width="0" height="100" fill="#046C6D"/>

<rect x="100" y="0" width="0" height="100" fill="#048980"/>

<rect x="100" y="0" width="0" height="100" fill="#F0B260"/>

<rect x="100" y="0" width="0" height="100" fill="#FBC774"/>

</g>


<g id="1" transform="translate(100,0)scale(1,1)">


<rect x="0" y="0" width="11" height="100" fill="#BA7C37"/>

<rect x="11" y="0" width="77" height="100" fill="#827D64"/>

<rect x="88" y="0" width="12" height="100" fill="#9E9A7B"/>

<rect x="100" y="0" width="0" height="100" fill="#629B84"/>

<rect x="100" y="0" width="0" height="100" fill="#DC984B"/>

<rect x="100" y="0" width="0" height="100" fill="#046C6D"/>

<rect x="100" y="0" width="0" height="100" fill="#048980"/>

<rect x="100" y="0" width="0" height="100" fill="#F0B260"/>

<rect x="100" y="0" width="0" height="100" fill="#FBC774"/>

</g>


<g id="2" transform="translate(200,0)scale(1,1)">


<rect x="0" y="0" width="11" height="100" fill="#BA7C37"/>

<rect x="11" y="0" width="77" height="100" fill="#827D64"/>

<rect x="88" y="0" width="12" height="100" fill="#9E9A7B"/>

<rect x="100" y="0" width="0" height="100" fill="#629B84"/>

<rect x="100" y="0" width="0" height="100" fill="#DC984B"/>

<rect x="100" y="0" width="0" height="100" fill="#046C6D"/>

<rect x="100" y="0" width="0" height="100" fill="#048980"/>

<rect x="100" y="0" width="0" height="100" fill="#F0B260"/>

<rect x="100" y="0" width="0" height="100" fill="#FBC774"/>

</g>


<g id="3" transform="translate(300,0)scale(1,1)">


<rect x="0" y="0" width="11" height="100" fill="#BA7C37"/>

<rect x="11" y="0" width="77" height="100" fill="#827D64"/>

<rect x="88" y="0" width="12" height="100" fill="#9E9A7B"/>

<rect x="100" y="0" width="0" height="100" fill="#629B84"/>

<rect x="100" y="0" width="0" height="100" fill="#DC984B"/>

<rect x="100" y="0" width="0" height="100" fill="#046C6D"/>

<rect x="100" y="0" width="0" height="100" fill="#048980"/>

<rect x="100" y="0" width="0" height="100" fill="#F0B260"/>

<rect x="100" y="0" width="0" height="100" fill="#FBC774"/>

</g>


<g id="4" transform="translate(400,0)scale(1,1)">


<rect x="0" y="0" width="11" height="100" fill="#BA7C37"/>

<rect x="11" y="0" width="77" height="100" fill="#827D64"/>

<rect x="88" y="0" width="12" height="100" fill="#9E9A7B"/>

<rect x="100" y="0" width="0" height="100" fill="#629B84"/>

<rect x="100" y="0" width="0" height="100" fill="#DC984B"/>

<rect x="100" y="0" width="0" height="100" fill="#046C6D"/>

<rect x="100" y="0" width="0" height="100" fill="#048980"/>

<rect x="100" y="0" width="0" height="100" fill="#F0B260"/>

<rect x="100" y="0" width="0" height="100" fill="#FBC774"/>

</g>


</g>

<g id="row1" transform="translate(0,100.0)">

<g id="0" transform="translate(0,0)scale(1,1)">


<rect x="0" y="0" width="11" height="100" fill="#BA7C37"/>

<rect x="11" y="0" width="77" height="100" fill="#827D64"/>

<rect x="88" y="0" width="12" height="100" fill="#9E9A7B"/>

<rect x="100" y="0" width="0" height="100" fill="#629B84"/>

<rect x="100" y="0" width="0" height="100" fill="#DC984B"/>

<rect x="100" y="0" width="0" height="100" fill="#046C6D"/>

<rect x="100" y="0" width="0" height="100" fill="#048980"/>

<rect x="100" y="0" width="0" height="100" fill="#F0B260"/>

<rect x="100" y="0" width="0" height="100" fill="#FBC774"/>

</g>


<g id="1" transform="translate(100,0)scale(1,1)">


<rect x="0" y="0" width="11" height="100" fill="#BA7C37"/>

<rect x="11" y="0" width="77" height="100" fill="#827D64"/>

<rect x="88" y="0" width="12" height="100" fill="#9E9A7B"/>

<rect x="100" y="0" width="0" height="100" fill="#629B84"/>

<rect x="100" y="0" width="0" height="100" fill="#DC984B"/>

<rect x="100" y="0" width="0" height="100" fill="#046C6D"/>

<rect x="100" y="0" width="0" height="100" fill="#048980"/>

<rect x="100" y="0" width="0" height="100" fill="#F0B260"/>

<rect x="100" y="0" width="0" height="100" fill="#FBC774"/>

</g>


<g id="2" transform="translate(200,0)scale(1,1)">


<rect x="0" y="0" width="11" height="100" fill="#BA7C37"/>

<rect x="11" y="0" width="77" height="100" fill="#827D64"/>

<rect x="88" y="0" width="12" height="100" fill="#9E9A7B"/>

<rect x="100" y="0" width="0" height="100" fill="#629B84"/>

<rect x="100" y="0" width="0" height="100" fill="#DC984B"/>

<rect x="100" y="0" width="0" height="100" fill="#046C6D"/>

<rect x="100" y="0" width="0" height="100" fill="#048980"/>

<rect x="100" y="0" width="0" height="100" fill="#F0B260"/>

<rect x="100" y="0" width="0" height="100" fill="#FBC774"/>

</g>


<g id="3" transform="translate(300,0)scale(1,1)">


<rect x="0" y="0" width="11" height="100" fill="#BA7C37"/>

<rect x="11" y="0" width="77" height="100" fill="#827D64"/>

<rect x="88" y="0" width="12" height="100" fill="#9E9A7B"/>

<rect x="100" y="0" width="0" height="100" fill="#629B84"/>

<rect x="100" y="0" width="0" height="100" fill="#DC984B"/>

<rect x="100" y="0" width="0" height="100" fill="#046C6D"/>

<rect x="100" y="0" width="0" height="100" fill="#048980"/>

<rect x="100" y="0" width="0" height="100" fill="#F0B260"/>

<rect x="100" y="0" width="0" height="100" fill="#FBC774"/>

</g>


<g id="4" transform="translate(400,0)scale(1,1)">


<rect x="0" y="0" width="11" height="100" fill="#BA7C37"/>

<rect x="11" y="0" width="77" height="100" fill="#827D64"/>

<rect x="88" y="0" width="12" height="100" fill="#9E9A7B"/>

<rect x="100" y="0" width="0" height="100" fill="#629B84"/>

<rect x="100" y="0" width="0" height="100" fill="#DC984B"/>

<rect x="100" y="0" width="0" height="100" fill="#046C6D"/>

<rect x="100" y="0" width="0" height="100" fill="#048980"/>

<rect x="100" y="0" width="0" height="100" fill="#F0B260"/>

<rect x="100" y="0" width="0" height="100" fill="#FBC774"/>

</g>


</g>

<g id="row2" transform="translate(0,200.0)">

<g id="0" transform="translate(0,0)scale(1,1)">


<rect x="0" y="0" width="11" height="100" fill="#BA7C37"/>

<rect x="11" y="0" width="77" height="100" fill="#827D64"/>

<rect x="88" y="0" width="12" height="100" fill="#9E9A7B"/>

<rect x="100" y="0" width="0" height="100" fill="#629B84"/>

<rect x="100" y="0" width="0" height="100" fill="#DC984B"/>

<rect x="100" y="0" width="0" height="100" fill="#046C6D"/>

<rect x="100" y="0" width="0" height="100" fill="#048980"/>

<rect x="100" y="0" width="0" height="100" fill="#F0B260"/>

<rect x="100" y="0" width="0" height="100" fill="#FBC774"/>

</g>


<g id="1" transform="translate(100,0)scale(1,1)">


<rect x="0" y="0" width="11" height="100" fill="#BA7C37"/>

<rect x="11" y="0" width="77" height="100" fill="#827D64"/>

<rect x="88" y="0" width="12" height="100" fill="#9E9A7B"/>

<rect x="100" y="0" width="0" height="100" fill="#629B84"/>

<rect x="100" y="0" width="0" height="100" fill="#DC984B"/>

<rect x="100" y="0" width="0" height="100" fill="#046C6D"/>

<rect x="100" y="0" width="0" height="100" fill="#048980"/>

<rect x="100" y="0" width="0" height="100" fill="#F0B260"/>

<rect x="100" y="0" width="0" height="100" fill="#FBC774"/>

</g>


<g id="2" transform="translate(200,0)scale(1,1)">


<rect x="0" y="0" width="11" height="100" fill="#BA7C37"/>

<rect x="11" y="0" width="77" height="100" fill="#827D64"/>

<rect x="88" y="0" width="12" height="100" fill="#9E9A7B"/>

<rect x="100" y="0" width="0" height="100" fill="#629B84"/>

<rect x="100" y="0" width="0" height="100" fill="#DC984B"/>

<rect x="100" y="0" width="0" height="100" fill="#046C6D"/>

<rect x="100" y="0" width="0" height="100" fill="#048980"/>

<rect x="100" y="0" width="0" height="100" fill="#F0B260"/>

<rect x="100" y="0" width="0" height="100" fill="#FBC774"/>

</g>


<g id="3" transform="translate(300,0)scale(1,1)">


<rect x="0" y="0" width="11" height="100" fill="#BA7C37"/>

<rect x="11" y="0" width="77" height="100" fill="#827D64"/>

<rect x="88" y="0" width="12" height="100" fill="#9E9A7B"/>

<rect x="100" y="0" width="0" height="100" fill="#629B84"/>

<rect x="100" y="0" width="0" height="100" fill="#DC984B"/>

<rect x="100" y="0" width="0" height="100" fill="#046C6D"/>

<rect x="100" y="0" width="0" height="100" fill="#048980"/>

<rect x="100" y="0" width="0" height="100" fill="#F0B260"/>

<rect x="100" y="0" width="0" height="100" fill="#FBC774"/>

</g>


<g id="4" transform="translate(400,0)scale(1,1)">


<rect x="0" y="0" width="11" height="100" fill="#BA7C37"/>

<rect x="11" y="0" width="77" height="100" fill="#827D64"/>

<rect x="88" y="0" width="12" height="100" fill="#9E9A7B"/>

<rect x="100" y="0" width="0" height="100" fill="#629B84"/>

<rect x="100" y="0" width="0" height="100" fill="#DC984B"/>

<rect x="100" y="0" width="0" height="100" fill="#046C6D"/>

<rect x="100" y="0" width="0" height="100" fill="#048980"/>

<rect x="100" y="0" width="0" height="100" fill="#F0B260"/>

<rect x="100" y="0" width="0" height="100" fill="#FBC774"/>

</g>


</g>

<g id="row3" transform="translate(0,300.0)">

<g id="0" transform="translate(0,0)scale(1,1)">


<rect x="0" y="0" width="11" height="100" fill="#BA7C37"/>

<rect x="11" y="0" width="77" height="100" fill="#827D64"/>

<rect x="88" y="0" width="12" height="100" fill="#9E9A7B"/>

<rect x="100" y="0" width="0" height="100" fill="#629B84"/>

<rect x="100" y="0" width="0" height="100" fill="#DC984B"/>

<rect x="100" y="0" width="0" height="100" fill="#046C6D"/>

<rect x="100" y="0" width="0" height="100" fill="#048980"/>

<rect x="100" y="0" width="0" height="100" fill="#F0B260"/>

<rect x="100" y="0" width="0" height="100" fill="#FBC774"/>

</g>


<g id="1" transform="translate(100,0)scale(1,1)">


<rect x="0" y="0" width="11" height="100" fill="#BA7C37"/>

<rect x="11" y="0" width="77" height="100" fill="#827D64"/>

<rect x="88" y="0" width="12" height="100" fill="#9E9A7B"/>

<rect x="100" y="0" width="0" height="100" fill="#629B84"/>

<rect x="100" y="0" width="0" height="100" fill="#DC984B"/>

<rect x="100" y="0" width="0" height="100" fill="#046C6D"/>

<rect x="100" y="0" width="0" height="100" fill="#048980"/>

<rect x="100" y="0" width="0" height="100" fill="#F0B260"/>

<rect x="100" y="0" width="0" height="100" fill="#FBC774"/>

</g>


<g id="2" transform="translate(200,0)scale(1,1)">


<rect x="0" y="0" width="11" height="100" fill="#BA7C37"/>

<rect x="11" y="0" width="77" height="100" fill="#827D64"/>

<rect x="88" y="0" width="12" height="100" fill="#9E9A7B"/>

<rect x="100" y="0" width="0" height="100" fill="#629B84"/>

<rect x="100" y="0" width="0" height="100" fill="#DC984B"/>

<rect x="100" y="0" width="0" height="100" fill="#046C6D"/>

<rect x="100" y="0" width="0" height="100" fill="#048980"/>

<rect x="100" y="0" width="0" height="100" fill="#F0B260"/>

<rect x="100" y="0" width="0" height="100" fill="#FBC774"/>

</g>


<g id="3" transform="translate(300,0)scale(1,1)">


<rect x="0" y="0" width="11" height="100" fill="#BA7C37"/>

<rect x="11" y="0" width="77" height="100" fill="#827D64"/>

<rect x="88" y="0" width="12" height="100" fill="#9E9A7B"/>

<rect x="100" y="0" width="0" height="100" fill="#629B84"/>

<rect x="100" y="0" width="0" height="100" fill="#DC984B"/>

<rect x="100" y="0" width="0" height="100" fill="#046C6D"/>

<rect x="100" y="0" width="0" height="100" fill="#048980"/>

<rect x="100" y="0" width="0" height="100" fill="#F0B260"/>

<rect x="100" y="0" width="0" height="100" fill="#FBC774"/>

</g>


<g id="4" transform="translate(400,0)scale(1,1)">


<rect x="0" y="0" width="11" height="100" fill="#BA7C37"/>

<rect x="11" y="0" width="77" height="100" fill="#827D64"/>

<rect x="88" y="0" width="12" height="100" fill="#9E9A7B"/>

<rect x="100" y="0" width="0" height="100" fill="#629B84"/>

<rect x="100" y="0" width="0" height="100" fill="#DC984B"/>

<rect x="100" y="0" width="0" height="100" fill="#046C6D"/>

<rect x="100" y="0" width="0" height="100" fill="#048980"/>

<rect x="100" y="0" width="0" height="100" fill="#F0B260"/>

<rect x="100" y="0" width="0" height="100" fill="#FBC774"/>

</g>


</g>

</svg>