<?xml version="1.0" standalone="no"?>
<!DOCTYPE svg PUBLIC "-//W3C//DTD SVG 20010904//EN"
 "http://www.w3.org/TR/2001/REC-SVG-20010904/DTD/svg10.dtd">
<svg version="1.0" xmlns="http://www.w3.org/2000/svg" width="368pt" height="504pt" viewBox="0 0 368 504" preserveAspectRatio = "xMidYMid meet" >
<metadata>
Created by ZoeQu, written in 2022
</metadata>
<rect width="368" height="504" fill="#EBB363"/>
<g id="row0" transform="translate(12,0.0)">
<g id="0" transform="translate(0.0,0)scale(1,1)">

<path d="M589 1174 c-25 -30 -11 -75 46 -150 l55 -71 -16 -88 c-8 -49 -24 -105 -34 -124 l-19 -36 -1 41 c0 50 -45 141 -82 168 -25 18 -28 18 -52 3 -27 -18 -41 -63 -31 -106 3 -15 31 -59 62 -97 31 -38 60 -74 65 -81 11 -13 -49 -142 -86 -187 l-24 -29 1 74 c1 76 -8 105 -46 146 -45 50 -97 6 -97 -83 0 -42 8 -68 40 -130 46 -89 47 -85 -46 -163 -79 -65 -103 -68 -69 -8 32 55 33 120 3 182 -19 38 -27 45 -47 43 -55 -7 -77 -121 -46 -238 l14 -55 -27 -23 -27 -23 37 15 c35 14 37 13 65 -16 60 -64 181 -97 248 -66 28 12 30 20 15 49 -18 33 -64 49 -141 49 -62 0 -70 2 -59 15 10 12 9 15 -6 15 -15 1 -13 5 11 23 16 12 51 41 77 64 l47 41 39 -20 c89 -43 221 -29 258 27 39 60 -25 95 -134 75 -37 -7 -77 -17 -89 -21 -26 -10 -30 2 -8 21 8 6 33 44 56 84 l42 72 58 -4 c72 -5 145 18 188 60 43 42 51 76 21 100 -41 33 -68 26 -174 -44 -41 -27 -56 -33 -51 -21 21 54 65 197 65 214 0 26 38 58 85 70 46 12 71 32 91 71 21 40 18 75 -7 83 -34 11 -64 -2 -103 -45 l-36 -40 0 30 c0 42 -24 95 -56 125 -31 29 -56 32 -75 9z" transform="translate(0,126) scale(0.1,-0.1)" stroke="none" fill="#4E8677"/>

</g>

<g id="1" transform="translate(92.0,0)scale(1,1)">

<path d="M589 1174 c-25 -30 -11 -75 46 -150 l55 -71 -16 -88 c-8 -49 -24 -105 -34 -124 l-19 -36 -1 41 c0 50 -45 141 -82 168 -25 18 -28 18 -52 3 -27 -18 -41 -63 -31 -106 3 -15 31 -59 62 -97 31 -38 60 -74 65 -81 11 -13 -49 -142 -86 -187 l-24 -29 1 74 c1 76 -8 105 -46 146 -45 50 -97 6 -97 -83 0 -42 8 -68 40 -130 46 -89 47 -85 -46 -163 -79 -65 -103 -68 -69 -8 32 55 33 120 3 182 -19 38 -27 45 -47 43 -55 -7 -77 -121 -46 -238 l14 -55 -27 -23 -27 -23 37 15 c35 14 37 13 65 -16 60 -64 181 -97 248 -66 28 12 30 20 15 49 -18 33 -64 49 -141 49 -62 0 -70 2 -59 15 10 12 9 15 -6 15 -15 1 -13 5 11 23 16 12 51 41 77 64 l47 41 39 -20 c89 -43 221 -29 258 27 39 60 -25 95 -134 75 -37 -7 -77 -17 -89 -21 -26 -10 -30 2 -8 21 8 6 33 44 56 84 l42 72 58 -4 c72 -5 145 18 188 60 43 42 51 76 21 100 -41 33 -68 26 -174 -44 -41 -27 -56 -33 -51 -21 21 54 65 197 65 214 0 26 38 58 85 70 46 12 71 32 91 71 21 40 18 75 -7 83 -34 11 -64 -2 -103 -45 l-36 -40 0 30 c0 42 -24 95 -56 125 -31 29 -56 32 -75 9z" transform="translate(0,126) scale(0.1,-0.1)" stroke="none" fill="#4E8677"/>

</g>

<g id="2" transform="translate(184.0,0)scale(1,1)">

<path d="M589 1174 c-25 -30 -11 -75 46 -150 l55 -71 -16 -88 c-8 -49 -24 -105 -34 -124 l-19 -36 -1 41 c0 50 -45 141 -82 168 -25 18 -28 18 -52 3 -27 -18 -41 -63 -31 -106 3 -15 31 -59 62 -97 31 -38 60 -74 65 -81 11 -13 -49 -142 -86 -187 l-24 -29 1 74 c1 76 -8 105 -46 146 -45 50 -97 6 -97 -83 0 -42 8 -68 40 -130 46 -89 47 -85 -46 -163 -79 -65 -103 -68 -69 -8 32 55 33 120 3 182 -19 38 -27 45 -47 43 -55 -7 -77 -121 -46 -238 l14 -55 -27 -23 -27 -23 37 15 c35 14 37 13 65 -16 60 -64 181 -97 248 -66 28 12 30 20 15 49 -18 33 -64 49 -141 49 -62 0 -70 2 -59 15 10 12 9 15 -6 15 -15 1 -13 5 11 23 16 12 51 41 77 64 l47 41 39 -20 c89 -43 221 -29 258 27 39 60 -25 95 -134 75 -37 -7 -77 -17 -89 -21 -26 -10 -30 2 -8 21 8 6 33 44 56 84 l42 72 58 -4 c72 -5 145 18 188 60 43 42 51 76 21 100 -41 33 -68 26 -174 -44 -41 -27 -56 -33 -51 -21 21 54 65 197 65 214 0 26 38 58 85 70 46 12 71 32 91 71 21 40 18 75 -7 83 -34 11 -64 -2 -103 -45 l-36 -40 0 30 c0 42 -24 95 -56 125 -31 29 -56 32 -75 9z" transform="translate(0,126) scale(0.1,-0.1)" stroke="none" fill="#4E8677"/>

</g>

<g id="3" transform="translate(276.0,0)scale(1,1)">

<path d="M589 1174 c-25 -30 -11 -75 46 -150 l55 -71 -16 -88 c-8 -49 -24 -105 -34 -124 l-19 -36 -1 41 c0 50 -45 141 -82 168 -25 18 -28 18 -52 3 -27 -18 -41 -63 -31 -106 3 -15 31 -59 62 -97 31 -38 60 -74 65 -81 11 -13 -49 -142 -86 -187 l-24 -29 1 74 c1 76 -8 105 -46 146 -45 50 -97 6 -97 -83 0 -42 8 -68 40 -130 46 -89 47 -85 -46 -163 -79 -65 -103 -68 -69 -8 32 55 33 120 3 182 -19 38 -27 45 -47 43 -55 -7 -77 -121 -46 -238 l14 -55 -27 -23 -27 -23 37 15 c35 14 37 13 65 -16 60 -64 181 -97 248 -66 28 12 30 20 15 49 -18 33 -64 49 -141 49 -62 0 -70 2 -59 15 10 12 9 15 -6 15 -15 1 -13 5 11 23 16 12 51 41 77 64 l47 41 39 -20 c89 -43 221 -29 258 27 39 60 -25 95 -134 75 -37 -7 -77 -17 -89 -21 -26 -10 -30 2 -8 21 8 6 33 44 56 84 l42 72 58 -4 c72 -5 145 18 188 60 43 42 51 76 21 100 -41 33 -68 26 -174 -44 -41 -27 -56 -33 -51 -21 21 54 65 197 65 214 0 26 38 58 85 70 46 12 71 32 91 71 21 40 18 75 -7 83 -34 11 -64 -2 -103 -45 l-36 -40 0 30 c0 42 -24 95 -56 125 -31 29 -56 32 -75 9z" transform="translate(0,126) scale(0.1,-0.1)" stroke="none" fill="#4E8677"/>

</g>

<g id="4" transform="translate(368.0,0)scale(1,1)">

<path d="M589 1174 c-25 -30 -11 -75 46 -150 l55 -71 -16 -88 c-8 -49 -24 -105 -34 -124 l-19 -36 -1 41 c0 50 -45 141 -82 168 -25 18 -28 18 -52 3 -27 -18 -41 -63 -31 -106 3 -15 31 -59 62 -97 31 -38 60 -74 65 -81 11 -13 -49 -142 -86 -187 l-24 -29 1 74 c1 76 -8 105 -46 146 -45 50 -97 6 -97 -83 0 -42 8 -68 40 -130 46 -89 47 -85 -46 -163 -79 -65 -103 -68 -69 -8 32 55 33 120 3 182 -19 38 -27 45 -47 43 -55 -7 -77 -121 -46 -238 l14 -55 -27 -23 -27 -23 37 15 c35 14 37 13 65 -16 60 -64 181 -97 248 -66 28 12 30 20 15 49 -18 33 -64 49 -141 49 -62 0 -70 2 -59 15 10 12 9 15 -6 15 -15 1 -13 5 11 23 16 12 51 41 77 64 l47 41 39 -20 c89 -43 221 -29 258 27 39 60 -25 95 -134 75 -37 -7 -77 -17 -89 -21 -26 -10 -30 2 -8 21 8 6 33 44 56 84 l42 72 58 -4 c72 -5 145 18 188 60 43 42 51 76 21 100 -41 33 -68 26 -174 -44 -41 -27 -56 -33 -51 -21 21 54 65 197 65 214 0 26 38 58 85 70 46 12 71 32 91 71 21 40 18 75 -7 83 -34 11 -64 -2 -103 -45 l-36 -40 0 30 c0 42 -24 95 -56 125 -31 29 -56 32 -75 9z" transform="translate(0,126) scale(0.1,-0.1)" stroke="none" fill="#4E8677"/>

</g>

</g>
<g id="row1" transform="translate(-34,126.0)">
<g id="0" transform="translate(0.0,0)scale(1,1)">

<path d="M589 1174 c-25 -30 -11 -75 46 -150 l55 -71 -16 -88 c-8 -49 -24 -105 -34 -124 l-19 -36 -1 41 c0 50 -45 141 -82 168 -25 18 -28 18 -52 3 -27 -18 -41 -63 -31 -106 3 -15 31 -59 62 -97 31 -38 60 -74 65 -81 11 -13 -49 -142 -86 -187 l-24 -29 1 74 c1 76 -8 105 -46 146 -45 50 -97 6 -97 -83 0 -42 8 -68 40 -130 46 -89 47 -85 -46 -163 -79 -65 -103 -68 -69 -8 32 55 33 120 3 182 -19 38 -27 45 -47 43 -55 -7 -77 -121 -46 -238 l14 -55 -27 -23 -27 -23 37 15 c35 14 37 13 65 -16 60 -64 181 -97 248 -66 28 12 30 20 15 49 -18 33 -64 49 -141 49 -62 0 -70 2 -59 15 10 12 9 15 -6 15 -15 1 -13 5 11 23 16 12 51 41 77 64 l47 41 39 -20 c89 -43 221 -29 258 27 39 60 -25 95 -134 75 -37 -7 -77 -17 -89 -21 -26 -10 -30 2 -8 21 8 6 33 44 56 84 l42 72 58 -4 c72 -5 145 18 188 60 43 42 51 76 21 100 -41 33 -68 26 -174 -44 -41 -27 -56 -33 -51 -21 21 54 65 197 65 214 0 26 38 58 85 70 46 12 71 32 91 71 21 40 18 75 -7 83 -34 11 -64 -2 -103 -45 l-36 -40 0 30 c0 42 -24 95 -56 125 -31 29 -56 32 -75 9z" transform="translate(0,126) scale(0.1,-0.1)" stroke="none" fill="#4E8677"/>

</g>

<g id="1" transform="translate(92.0,0)scale(1,1)">

<path d="M589 1174 c-25 -30 -11 -75 46 -150 l55 -71 -16 -88 c-8 -49 -24 -105 -34 -124 l-19 -36 -1 41 c0 50 -45 141 -82 168 -25 18 -28 18 -52 3 -27 -18 -41 -63 -31 -106 3 -15 31 -59 62 -97 31 -38 60 -74 65 -81 11 -13 -49 -142 -86 -187 l-24 -29 1 74 c1 76 -8 105 -46 146 -45 50 -97 6 -97 -83 0 -42 8 -68 40 -130 46 -89 47 -85 -46 -163 -79 -65 -103 -68 -69 -8 32 55 33 120 3 182 -19 38 -27 45 -47 43 -55 -7 -77 -121 -46 -238 l14 -55 -27 -23 -27 -23 37 15 c35 14 37 13 65 -16 60 -64 181 -97 248 -66 28 12 30 20 15 49 -18 33 -64 49 -141 49 -62 0 -70 2 -59 15 10 12 9 15 -6 15 -15 1 -13 5 11 23 16 12 51 41 77 64 l47 41 39 -20 c89 -43 221 -29 258 27 39 60 -25 95 -134 75 -37 -7 -77 -17 -89 -21 -26 -10 -30 2 -8 21 8 6 33 44 56 84 l42 72 58 -4 c72 -5 145 18 188 60 43 42 51 76 21 100 -41 33 -68 26 -174 -44 -41 -27 -56 -33 -51 -21 21 54 65 197 65 214 0 26 38 58 85 70 46 12 71 32 91 71 21 40 18 75 -7 83 -34 11 -64 -2 -103 -45 l-36 -40 0 30 c0 42 -24 95 -56 125 -31 29 -56 32 -75 9z" transform="translate(0,126) scale(0.1,-0.1)" stroke="none" fill="#4E8677"/>

</g>

<g id="2" transform="translate(184.0,0)scale(1,1)">

<path d="M589 1174 c-25 -30 -11 -75 46 -150 l55 -71 -16 -88 c-8 -49 -24 -105 -34 -124 l-19 -36 -1 41 c0 50 -45 141 -82 168 -25 18 -28 18 -52 3 -27 -18 -41 -63 -31 -106 3 -15 31 -59 62 -97 31 -38 60 -74 65 -81 11 -13 -49 -142 -86 -187 l-24 -29 1 74 c1 76 -8 105 -46 146 -45 50 -97 6 -97 -83 0 -42 8 -68 40 -130 46 -89 47 -85 -46 -163 -79 -65 -103 -68 -69 -8 32 55 33 120 3 182 -19 38 -27 45 -47 43 -55 -7 -77 -121 -46 -238 l14 -55 -27 -23 -27 -23 37 15 c35 14 37 13 65 -16 60 -64 181 -97 248 -66 28 12 30 20 15 49 -18 33 -64 49 -141 49 -62 0 -70 2 -59 15 10 12 9 15 -6 15 -15 1 -13 5 11 23 16 12 51 41 77 64 l47 41 39 -20 c89 -43 221 -29 258 27 39 60 -25 95 -134 75 -37 -7 -77 -17 -89 -21 -26 -10 -30 2 -8 21 8 6 33 44 56 84 l42 72 58 -4 c72 -5 145 18 188 60 43 42 51 76 21 100 -41 33 -68 26 -174 -44 -41 -27 -56 -33 -51 -21 21 54 65 197 65 214 0 26 38 58 85 70 46 12 71 32 91 71 21 40 18 75 -7 83 -34 11 -64 -2 -103 -45 l-36 -40 0 30 c0 42 -24 95 -56 125 -31 29 -56 32 -75 9z" transform="translate(0,126) scale(0.1,-0.1)" stroke="none" fill="#4E8677"/>

</g>

<g id="3" transform="translate(276.0,0)scale(1,1)">

<path d="M589 1174 c-25 -30 -11 -75 46 -150 l55 -71 -16 -88 c-8 -49 -24 -105 -34 -124 l-19 -36 -1 41 c0 50 -45 141 -82 168 -25 18 -28 18 -52 3 -27 -18 -41 -63 -31 -106 3 -15 31 -59 62 -97 31 -38 60 -74 65 -81 11 -13 -49 -142 -86 -187 l-24 -29 1 74 c1 76 -8 105 -46 146 -45 50 -97 6 -97 -83 0 -42 8 -68 40 -130 46 -89 47 -85 -46 -163 -79 -65 -103 -68 -69 -8 32 55 33 120 3 182 -19 38 -27 45 -47 43 -55 -7 -77 -121 -46 -238 l14 -55 -27 -23 -27 -23 37 15 c35 14 37 13 65 -16 60 -64 181 -97 248 -66 28 12 30 20 15 49 -18 33 -64 49 -141 49 -62 0 -70 2 -59 15 10 12 9 15 -6 15 -15 1 -13 5 11 23 16 12 51 41 77 64 l47 41 39 -20 c89 -43 221 -29 258 27 39 60 -25 95 -134 75 -37 -7 -77 -17 -89 -21 -26 -10 -30 2 -8 21 8 6 33 44 56 84 l42 72 58 -4 c72 -5 145 18 188 60 43 42 51 76 21 100 -41 33 -68 26 -174 -44 -41 -27 -56 -33 -51 -21 21 54 65 197 65 214 0 26 38 58 85 70 46 12 71 32 91 71 21 40 18 75 -7 83 -34 11 -64 -2 -103 -45 l-36 -40 0 30 c0 42 -24 95 -56 125 -31 29 -56 32 -75 9z" transform="translate(0,126) scale(0.1,-0.1)" stroke="none" fill="#4E8677"/>

</g>

<g id="4" transform="translate(368.0,0)scale(1,1)">

<path d="M589 1174 c-25 -30 -11 -75 46 -150 l55 -71 -16 -88 c-8 -49 -24 -105 -34 -124 l-19 -36 -1 41 c0 50 -45 141 -82 168 -25 18 -28 18 -52 3 -27 -18 -41 -63 -31 -106 3 -15 31 -59 62 -97 31 -38 60 -74 65 -81 11 -13 -49 -142 -86 -187 l-24 -29 1 74 c1 76 -8 105 -46 146 -45 50 -97 6 -97 -83 0 -42 8 -68 40 -130 46 -89 47 -85 -46 -163 -79 -65 -103 -68 -69 -8 32 55 33 120 3 182 -19 38 -27 45 -47 43 -55 -7 -77 -121 -46 -238 l14 -55 -27 -23 -27 -23 37 15 c35 14 37 13 65 -16 60 -64 181 -97 248 -66 28 12 30 20 15 49 -18 33 -64 49 -141 49 -62 0 -70 2 -59 15 10 12 9 15 -6 15 -15 1 -13 5 11 23 16 12 51 41 77 64 l47 41 39 -20 c89 -43 221 -29 258 27 39 60 -25 95 -134 75 -37 -7 -77 -17 -89 -21 -26 -10 -30 2 -8 21 8 6 33 44 56 84 l42 72 58 -4 c72 -5 145 18 188 60 43 42 51 76 21 100 -41 33 -68 26 -174 -44 -41 -27 -56 -33 -51 -21 21 54 65 197 65 214 0 26 38 58 85 70 46 12 71 32 91 71 21 40 18 75 -7 83 -34 11 -64 -2 -103 -45 l-36 -40 0 30 c0 42 -24 95 -56 125 -31 29 -56 32 -75 9z" transform="translate(0,126) scale(0.1,-0.1)" stroke="none" fill="#4E8677"/>

</g>

</g>
<g id="row2" transform="translate(12,252.0)">
<g id="0" transform="translate(0.0,0)scale(1,1)">

<path d="M589 1174 c-25 -30 -11 -75 46 -150 l55 -71 -16 -88 c-8 -49 -24 -105 -34 -124 l-19 -36 -1 41 c0 50 -45 141 -82 168 -25 18 -28 18 -52 3 -27 -18 -41 -63 -31 -106 3 -15 31 -59 62 -97 31 -38 60 -74 65 -81 11 -13 -49 -142 -86 -187 l-24 -29 1 74 c1 76 -8 105 -46 146 -45 50 -97 6 -97 -83 0 -42 8 -68 40 -130 46 -89 47 -85 -46 -163 -79 -65 -103 -68 -69 -8 32 55 33 120 3 182 -19 38 -27 45 -47 43 -55 -7 -77 -121 -46 -238 l14 -55 -27 -23 -27 -23 37 15 c35 14 37 13 65 -16 60 -64 181 -97 248 -66 28 12 30 20 15 49 -18 33 -64 49 -141 49 -62 0 -70 2 -59 15 10 12 9 15 -6 15 -15 1 -13 5 11 23 16 12 51 41 77 64 l47 41 39 -20 c89 -43 221 -29 258 27 39 60 -25 95 -134 75 -37 -7 -77 -17 -89 -21 -26 -10 -30 2 -8 21 8 6 33 44 56 84 l42 72 58 -4 c72 -5 145 18 188 60 43 42 51 76 21 100 -41 33 -68 26 -174 -44 -41 -27 -56 -33 -51 -21 21 54 65 197 65 214 0 26 38 58 85 70 46 12 71 32 91 71 21 40 18 75 -7 83 -34 11 -64 -2 -103 -45 l-36 -40 0 30 c0 42 -24 95 -56 125 -31 29 -56 32 -75 9z" transform="translate(0,126) scale(0.1,-0.1)" stroke="none" fill="#4E8677"/>

</g>

<g id="1" transform="translate(92.0,0)scale(1,1)">

<path d="M589 1174 c-25 -30 -11 -75 46 -150 l55 -71 -16 -88 c-8 -49 -24 -105 -34 -124 l-19 -36 -1 41 c0 50 -45 141 -82 168 -25 18 -28 18 -52 3 -27 -18 -41 -63 -31 -106 3 -15 31 -59 62 -97 31 -38 60 -74 65 -81 11 -13 -49 -142 -86 -187 l-24 -29 1 74 c1 76 -8 105 -46 146 -45 50 -97 6 -97 -83 0 -42 8 -68 40 -130 46 -89 47 -85 -46 -163 -79 -65 -103 -68 -69 -8 32 55 33 120 3 182 -19 38 -27 45 -47 43 -55 -7 -77 -121 -46 -238 l14 -55 -27 -23 -27 -23 37 15 c35 14 37 13 65 -16 60 -64 181 -97 248 -66 28 12 30 20 15 49 -18 33 -64 49 -141 49 -62 0 -70 2 -59 15 10 12 9 15 -6 15 -15 1 -13 5 11 23 16 12 51 41 77 64 l47 41 39 -20 c89 -43 221 -29 258 27 39 60 -25 95 -134 75 -37 -7 -77 -17 -89 -21 -26 -10 -30 2 -8 21 8 6 33 44 56 84 l42 72 58 -4 c72 -5 145 18 188 60 43 42 51 76 21 100 -41 33 -68 26 -174 -44 -41 -27 -56 -33 -51 -21 21 54 65 197 65 214 0 26 38 58 85 70 46 12 71 32 91 71 21 40 18 75 -7 83 -34 11 -64 -2 -103 -45 l-36 -40 0 30 c0 42 -24 95 -56 125 -31 29 -56 32 -75 9z" transform="translate(0,126) scale(0.1,-0.1)" stroke="none" fill="#4E8677"/>

</g>

<g id="2" transform="translate(184.0,0)scale(1,1)">

<path d="M589 1174 c-25 -30 -11 -75 46 -150 l55 -71 -16 -88 c-8 -49 -24 -105 -34 -124 l-19 -36 -1 41 c0 50 -45 141 -82 168 -25 18 -28 18 -52 3 -27 -18 -41 -63 -31 -106 3 -15 31 -59 62 -97 31 -38 60 -74 65 -81 11 -13 -49 -142 -86 -187 l-24 -29 1 74 c1 76 -8 105 -46 146 -45 50 -97 6 -97 -83 0 -42 8 -68 40 -130 46 -89 47 -85 -46 -163 -79 -65 -103 -68 -69 -8 32 55 33 120 3 182 -19 38 -27 45 -47 43 -55 -7 -77 -121 -46 -238 l14 -55 -27 -23 -27 -23 37 15 c35 14 37 13 65 -16 60 -64 181 -97 248 -66 28 12 30 20 15 49 -18 33 -64 49 -141 49 -62 0 -70 2 -59 15 10 12 9 15 -6 15 -15 1 -13 5 11 23 16 12 51 41 77 64 l47 41 39 -20 c89 -43 221 -29 258 27 39 60 -25 95 -134 75 -37 -7 -77 -17 -89 -21 -26 -10 -30 2 -8 21 8 6 33 44 56 84 l42 72 58 -4 c72 -5 145 18 188 60 43 42 51 76 21 100 -41 33 -68 26 -174 -44 -41 -27 -56 -33 -51 -21 21 54 65 197 65 214 0 26 38 58 85 70 46 12 71 32 91 71 21 40 18 75 -7 83 -34 11 -64 -2 -103 -45 l-36 -40 0 30 c0 42 -24 95 -56 125 -31 29 -56 32 -75 9z" transform="translate(0,126) scale(0.1,-0.1)" stroke="none" fill="#4E8677"/>

</g>

<g id="3" transform="translate(276.0,0)scale(1,1)">

<path d="M589 1174 c-25 -30 -11 -75 46 -150 l55 -71 -16 -88 c-8 -49 -24 -105 -34 -124 l-19 -36 -1 41 c0 50 -45 141 -82 168 -25 18 -28 18 -52 3 -27 -18 -41 -63 -31 -106 3 -15 31 -59 62 -97 31 -38 60 -74 65 -81 11 -13 -49 -142 -86 -187 l-24 -29 1 74 c1 76 -8 105 -46 146 -45 50 -97 6 -97 -83 0 -42 8 -68 40 -130 46 -89 47 -85 -46 -163 -79 -65 -103 -68 -69 -8 32 55 33 120 3 182 -19 38 -27 45 -47 43 -55 -7 -77 -121 -46 -238 l14 -55 -27 -23 -27 -23 37 15 c35 14 37 13 65 -16 60 -64 181 -97 248 -66 28 12 30 20 15 49 -18 33 -64 49 -141 49 -62 0 -70 2 -59 15 10 12 9 15 -6 15 -15 1 -13 5 11 23 16 12 51 41 77 64 l47 41 39 -20 c89 -43 221 -29 258 27 39 60 -25 95 -134 75 -37 -7 -77 -17 -89 -21 -26 -10 -30 2 -8 21 8 6 33 44 56 84 l42 72 58 -4 c72 -5 145 18 188 60 43 42 51 76 21 100 -41 33 -68 26 -174 -44 -41 -27 -56 -33 -51 -21 21 54 65 197 65 214 0 26 38 58 85 70 46 12 71 32 91 71 21 40 18 75 -7 83 -34 11 -64 -2 -103 -45 l-36 -40 0 30 c0 42 -24 95 -56 125 -31 29 -56 32 -75 9z" transform="translate(0,126) scale(0.1,-0.1)" stroke="none" fill="#4E8677"/>

</g>

<g id="4" transform="translate(368.0,0)scale(1,1)">

<path d="M589 1174 c-25 -30 -11 -75 46 -150 l55 -71 -16 -88 c-8 -49 -24 -105 -34 -124 l-19 -36 -1 41 c0 50 -45 141 -82 168 -25 18 -28 18 -52 3 -27 -18 -41 -63 -31 -106 3 -15 31 -59 62 -97 31 -38 60 -74 65 -81 11 -13 -49 -142 -86 -187 l-24 -29 1 74 c1 76 -8 105 -46 146 -45 50 -97 6 -97 -83 0 -42 8 -68 40 -130 46 -89 47 -85 -46 -163 -79 -65 -103 -68 -69 -8 32 55 33 120 3 182 -19 38 -27 45 -47 43 -55 -7 -77 -121 -46 -238 l14 -55 -27 -23 -27 -23 37 15 c35 14 37 13 65 -16 60 -64 181 -97 248 -66 28 12 30 20 15 49 -18 33 -64 49 -141 49 -62 0 -70 2 -59 15 10 12 9 15 -6 15 -15 1 -13 5 11 23 16 12 51 41 77 64 l47 41 39 -20 c89 -43 221 -29 258 27 39 60 -25 95 -134 75 -37 -7 -77 -17 -89 -21 -26 -10 -30 2 -8 21 8 6 33 44 56 84 l42 72 58 -4 c72 -5 145 18 188 60 43 42 51 76 21 100 -41 33 -68 26 -174 -44 -41 -27 -56 -33 -51 -21 21 54 65 197 65 214 0 26 38 58 85 70 46 12 71 32 91 71 21 40 18 75 -7 83 -34 11 -64 -2 -103 -45 l-36 -40 0 30 c0 42 -24 95 -56 125 -31 29 -56 32 -75 9z" transform="translate(0,126) scale(0.1,-0.1)" stroke="none" fill="#4E8677"/>

</g>

</g>
<g id="row3" transform="translate(-34,378.0)">
<g id="0" transform="translate(0.0,0)scale(1,1)">

<path d="M589 1174 c-25 -30 -11 -75 46 -150 l55 -71 -16 -88 c-8 -49 -24 -105 -34 -124 l-19 -36 -1 41 c0 50 -45 141 -82 168 -25 18 -28 18 -52 3 -27 -18 -41 -63 -31 -106 3 -15 31 -59 62 -97 31 -38 60 -74 65 -81 11 -13 -49 -142 -86 -187 l-24 -29 1 74 c1 76 -8 105 -46 146 -45 50 -97 6 -97 -83 0 -42 8 -68 40 -130 46 -89 47 -85 -46 -163 -79 -65 -103 -68 -69 -8 32 55 33 120 3 182 -19 38 -27 45 -47 43 -55 -7 -77 -121 -46 -238 l14 -55 -27 -23 -27 -23 37 15 c35 14 37 13 65 -16 60 -64 181 -97 248 -66 28 12 30 20 15 49 -18 33 -64 49 -141 49 -62 0 -70 2 -59 15 10 12 9 15 -6 15 -15 1 -13 5 11 23 16 12 51 41 77 64 l47 41 39 -20 c89 -43 221 -29 258 27 39 60 -25 95 -134 75 -37 -7 -77 -17 -89 -21 -26 -10 -30 2 -8 21 8 6 33 44 56 84 l42 72 58 -4 c72 -5 145 18 188 60 43 42 51 76 21 100 -41 33 -68 26 -174 -44 -41 -27 -56 -33 -51 -21 21 54 65 197 65 214 0 26 38 58 85 70 46 12 71 32 91 71 21 40 18 75 -7 83 -34 11 -64 -2 -103 -45 l-36 -40 0 30 c0 42 -24 95 -56 125 -31 29 -56 32 -75 9z" transform="translate(0,126) scale(0.1,-0.1)" stroke="none" fill="#4E8677"/>

</g>

<g id="1" transform="translate(92.0,0)scale(1,1)">

<path d="M589 1174 c-25 -30 -11 -75 46 -150 l55 -71 -16 -88 c-8 -49 -24 -105 -34 -124 l-19 -36 -1 41 c0 50 -45 141 -82 168 -25 18 -28 18 -52 3 -27 -18 -41 -63 -31 -106 3 -15 31 -59 62 -97 31 -38 60 -74 65 -81 11 -13 -49 -142 -86 -187 l-24 -29 1 74 c1 76 -8 105 -46 146 -45 50 -97 6 -97 -83 0 -42 8 -68 40 -130 46 -89 47 -85 -46 -163 -79 -65 -103 -68 -69 -8 32 55 33 120 3 182 -19 38 -27 45 -47 43 -55 -7 -77 -121 -46 -238 l14 -55 -27 -23 -27 -23 37 15 c35 14 37 13 65 -16 60 -64 181 -97 248 -66 28 12 30 20 15 49 -18 33 -64 49 -141 49 -62 0 -70 2 -59 15 10 12 9 15 -6 15 -15 1 -13 5 11 23 16 12 51 41 77 64 l47 41 39 -20 c89 -43 221 -29 258 27 39 60 -25 95 -134 75 -37 -7 -77 -17 -89 -21 -26 -10 -30 2 -8 21 8 6 33 44 56 84 l42 72 58 -4 c72 -5 145 18 188 60 43 42 51 76 21 100 -41 33 -68 26 -174 -44 -41 -27 -56 -33 -51 -21 21 54 65 197 65 214 0 26 38 58 85 70 46 12 71 32 91 71 21 40 18 75 -7 83 -34 11 -64 -2 -103 -45 l-36 -40 0 30 c0 42 -24 95 -56 125 -31 29 -56 32 -75 9z" transform="translate(0,126) scale(0.1,-0.1)" stroke="none" fill="#4E8677"/>

</g>

<g id="2" transform="translate(184.0,0)scale(1,1)">

<path d="M589 1174 c-25 -30 -11 -75 46 -150 l55 -71 -16 -88 c-8 -49 -24 -105 -34 -124 l-19 -36 -1 41 c0 50 -45 141 -82 168 -25 18 -28 18 -52 3 -27 -18 -41 -63 -31 -106 3 -15 31 -59 62 -97 31 -38 60 -74 65 -81 11 -13 -49 -142 -86 -187 l-24 -29 1 74 c1 76 -8 105 -46 146 -45 50 -97 6 -97 -83 0 -42 8 -68 40 -130 46 -89 47 -85 -46 -163 -79 -65 -103 -68 -69 -8 32 55 33 120 3 182 -19 38 -27 45 -47 43 -55 -7 -77 -121 -46 -238 l14 -55 -27 -23 -27 -23 37 15 c35 14 37 13 65 -16 60 -64 181 -97 248 -66 28 12 30 20 15 49 -18 33 -64 49 -141 49 -62 0 -70 2 -59 15 10 12 9 15 -6 15 -15 1 -13 5 11 23 16 12 51 41 77 64 l47 41 39 -20 c89 -43 221 -29 258 27 39 60 -25 95 -134 75 -37 -7 -77 -17 -89 -21 -26 -10 -30 2 -8 21 8 6 33 44 56 84 l42 72 58 -4 c72 -5 145 18 188 60 43 42 51 76 21 100 -41 33 -68 26 -174 -44 -41 -27 -56 -33 -51 -21 21 54 65 197 65 214 0 26 38 58 85 70 46 12 71 32 91 71 21 40 18 75 -7 83 -34 11 -64 -2 -103 -45 l-36 -40 0 30 c0 42 -24 95 -56 125 -31 29 -56 32 -75 9z" transform="translate(0,126) scale(0.1,-0.1)" stroke="none" fill="#4E8677"/>

</g>

<g id="3" transform="translate(276.0,0)scale(1,1)">

<path d="M589 1174 c-25 -30 -11 -75 46 -150 l55 -71 -16 -88 c-8 -49 -24 -105 -34 -124 l-19 -36 -1 41 c0 50 -45 141 -82 168 -25 18 -28 18 -52 3 -27 -18 -41 -63 -31 -106 3 -15 31 -59 62 -97 31 -38 60 -74 65 -81 11 -13 -49 -142 -86 -187 l-24 -29 1 74 c1 76 -8 105 -46 146 -45 50 -97 6 -97 -83 0 -42 8 -68 40 -130 46 -89 47 -85 -46 -163 -79 -65 -103 -68 -69 -8 32 55 33 120 3 182 -19 38 -27 45 -47 43 -55 -7 -77 -121 -46 -238 l14 -55 -27 -23 -27 -23 37 15 c35 14 37 13 65 -16 60 -64 181 -97 248 -66 28 12 30 20 15 49 -18 33 -64 49 -141 49 -62 0 -70 2 -59 15 10 12 9 15 -6 15 -15 1 -13 5 11 23 16 12 51 41 77 64 l47 41 39 -20 c89 -43 221 -29 258 27 39 60 -25 95 -134 75 -37 -7 -77 -17 -89 -21 -26 -10 -30 2 -8 21 8 6 33 44 56 84 l42 72 58 -4 c72 -5 145 18 188 60 43 42 51 76 21 100 -41 33 -68 26 -174 -44 -41 -27 -56 -33 -51 -21 21 54 65 197 65 214 0 26 38 58 85 70 46 12 71 32 91 71 21 40 18 75 -7 83 -34 11 -64 -2 -103 -45 l-36 -40 0 30 c0 42 -24 95 -56 125 -31 29 -56 32 -75 9z" transform="translate(0,126) scale(0.1,-0.1)" stroke="none" fill="#4E8677"/>

</g>

<g id="4" transform="translate(368.0,0)scale(1,1)">

<path d="M589 1174 c-25 -30 -11 -75 46 -150 l55 -71 -16 -88 c-8 -49 -24 -105 -34 -124 l-19 -36 -1 41 c0 50 -45 141 -82 168 -25 18 -28 18 -52 3 -27 -18 -41 -63 -31 -106 3 -15 31 -59 62 -97 31 -38 60 -74 65 -81 11 -13 -49 -142 -86 -187 l-24 -29 1 74 c1 76 -8 105 -46 146 -45 50 -97 6 -97 -83 0 -42 8 -68 40 -130 46 -89 47 -85 -46 -163 -79 -65 -103 -68 -69 -8 32 55 33 120 3 182 -19 38 -27 45 -47 43 -55 -7 -77 -121 -46 -238 l14 -55 -27 -23 -27 -23 37 15 c35 14 37 13 65 -16 60 -64 181 -97 248 -66 28 12 30 20 15 49 -18 33 -64 49 -141 49 -62 0 -70 2 -59 15 10 12 9 15 -6 15 -15 1 -13 5 11 23 16 12 51 41 77 64 l47 41 39 -20 c89 -43 221 -29 258 27 39 60 -25 95 -134 75 -37 -7 -77 -17 -89 -21 -26 -10 -30 2 -8 21 8 6 33 44 56 84 l42 72 58 -4 c72 -5 145 18 188 60 43 42 51 76 21 100 -41 33 -68 26 -174 -44 -41 -27 -56 -33 -51 -21 21 54 65 197 65 214 0 26 38 58 85 70 46 12 71 32 91 71 21 40 18 75 -7 83 -34 11 -64 -2 -103 -45 l-36 -40 0 30 c0 42 -24 95 -56 125 -31 29 -56 32 -75 9z" transform="translate(0,126) scale(0.1,-0.1)" stroke="none" fill="#4E8677"/>

</g>

</g>
</svg>