<?xml version="1.0" standalone="no"?>
<!DOCTYPE svg PUBLIC "-//W3C//DTD SVG 20010904//EN"
 "http://www.w3.org/TR/2001/REC-SVG-20010904/DTD/svg10.dtd">
<svg version="1.0" xmlns="http://www.w3.org/2000/svg" width="656pt" height="552pt" viewBox="0 0 656 552" preserveAspectRatio = "xMidYMid meet" >
<metadata>
Created by ZoeQu, written in 2022
</metadata>
<rect width="656" height="552" fill="#FA8D1C"/>
<g id="row0" transform="translate(21,0.0)">
<g id="0" transform="translate(0.0,0)scale(1,1)">

<path d="M1040 1087 c-49 -23 -89 -58 -112 -98 -20 -37 -24 -39 -53 -32 -66 17 -147 9 -202 -21 -86 -47 -133 -129 -133 -235 0 -60 4 -73 30 -109 16 -23 39 -46 50 -52 24 -13 26 -42 4 -60 -8 -8 -22 -29 -30 -48 -52 -125 42 -222 217 -222 67 0 68 0 84 -33 82 -174 315 -158 421 28 10 17 20 20 70 17 72 -4 141 14 159 42 35 57 24 158 -26 234 -16 24 -29 46 -29 51 0 4 9 27 21 50 40 84 38 137 -8 192 -29 34 -114 79 -151 79 -12 0 -24 6 -26 13 -24 85 -35 107 -76 148 -61 62 -148 85 -210 56z m70 -387 c0 -21 -24 -28 -35 -10 -8 14 3 30 21 30 8 0 14 -9 14 -20z m-90 -5 c0 -8 -9 -15 -20 -15 -20 0 -26 11 -13 23 12 13 33 7 33 -8z m160 -29 c0 -15 -24 -28 -34 -19 -13 14 -5 33 14 33 11 0 20 -6 20 -14z m-185 -56 c0 -22 -29 -18 -33 3 -3 14 1 18 15 15 10 -2 18 -10 18 -18z m85 5 c0 -8 -6 -15 -14 -15 -17 0 -28 14 -19 24 12 12 33 6 33 -9z m80 -20 c0 -8 -9 -15 -20 -15 -20 0 -26 11 -13 23 12 13 33 7 33 -8z m-255 -15 c0 -8 -8 -16 -17 -18 -13 -2 -18 3 -18 18 0 15 5 20 18 18 9 -2 17 -10 17 -18z m185 -53 c0 -8 -3 -17 -7 -20 -9 -9 -34 13 -27 24 8 14 34 11 34 -4z m120 -7 c0 -11 -6 -20 -14 -20 -18 0 -29 16 -21 30 11 18 35 11 35 -10z m-229 -23 c-5 -5 -17 -7 -26 -3 -14 5 -15 9 -5 21 10 12 16 13 27 4 9 -8 10 -16 4 -22z m-76 -57 c0 -22 -29 -18 -33 3 -3 14 1 18 15 15 10 -2 18 -10 18 -18z m255 6 c0 -15 -24 -28 -34 -19 -13 14 -5 33 14 33 11 0 20 -6 20 -14z m-110 -16 c0 -11 -7 -20 -15 -20 -8 0 -15 9 -15 20 0 11 7 20 15 20 8 0 15 -9 15 -20z m70 -64 c0 -8 -4 -17 -8 -20 -13 -8 -35 11 -28 23 10 16 36 14 36 -3z m-135 -17 c0 -7 -8 -15 -17 -17 -18 -3 -25 18 -11 32 10 10 28 1 28 -15z" transform="translate(0,138) scale(0.1,-0.1)" stroke="none" fill="#AAC8C7"/>

</g>

<g id="1" transform="translate(164.0,0)scale(1,1)">

<path d="M1040 1087 c-49 -23 -89 -58 -112 -98 -20 -37 -24 -39 -53 -32 -66 17 -147 9 -202 -21 -86 -47 -133 -129 -133 -235 0 -60 4 -73 30 -109 16 -23 39 -46 50 -52 24 -13 26 -42 4 -60 -8 -8 -22 -29 -30 -48 -52 -125 42 -222 217 -222 67 0 68 0 84 -33 82 -174 315 -158 421 28 10 17 20 20 70 17 72 -4 141 14 159 42 35 57 24 158 -26 234 -16 24 -29 46 -29 51 0 4 9 27 21 50 40 84 38 137 -8 192 -29 34 -114 79 -151 79 -12 0 -24 6 -26 13 -24 85 -35 107 -76 148 -61 62 -148 85 -210 56z m70 -387 c0 -21 -24 -28 -35 -10 -8 14 3 30 21 30 8 0 14 -9 14 -20z m-90 -5 c0 -8 -9 -15 -20 -15 -20 0 -26 11 -13 23 12 13 33 7 33 -8z m160 -29 c0 -15 -24 -28 -34 -19 -13 14 -5 33 14 33 11 0 20 -6 20 -14z m-185 -56 c0 -22 -29 -18 -33 3 -3 14 1 18 15 15 10 -2 18 -10 18 -18z m85 5 c0 -8 -6 -15 -14 -15 -17 0 -28 14 -19 24 12 12 33 6 33 -9z m80 -20 c0 -8 -9 -15 -20 -15 -20 0 -26 11 -13 23 12 13 33 7 33 -8z m-255 -15 c0 -8 -8 -16 -17 -18 -13 -2 -18 3 -18 18 0 15 5 20 18 18 9 -2 17 -10 17 -18z m185 -53 c0 -8 -3 -17 -7 -20 -9 -9 -34 13 -27 24 8 14 34 11 34 -4z m120 -7 c0 -11 -6 -20 -14 -20 -18 0 -29 16 -21 30 11 18 35 11 35 -10z m-229 -23 c-5 -5 -17 -7 -26 -3 -14 5 -15 9 -5 21 10 12 16 13 27 4 9 -8 10 -16 4 -22z m-76 -57 c0 -22 -29 -18 -33 3 -3 14 1 18 15 15 10 -2 18 -10 18 -18z m255 6 c0 -15 -24 -28 -34 -19 -13 14 -5 33 14 33 11 0 20 -6 20 -14z m-110 -16 c0 -11 -7 -20 -15 -20 -8 0 -15 9 -15 20 0 11 7 20 15 20 8 0 15 -9 15 -20z m70 -64 c0 -8 -4 -17 -8 -20 -13 -8 -35 11 -28 23 10 16 36 14 36 -3z m-135 -17 c0 -7 -8 -15 -17 -17 -18 -3 -25 18 -11 32 10 10 28 1 28 -15z" transform="translate(0,138) scale(0.1,-0.1)" stroke="none" fill="#AAC8C7"/>

</g>

<g id="2" transform="translate(328.0,0)scale(1,1)">

<path d="M1040 1087 c-49 -23 -89 -58 -112 -98 -20 -37 -24 -39 -53 -32 -66 17 -147 9 -202 -21 -86 -47 -133 -129 -133 -235 0 -60 4 -73 30 -109 16 -23 39 -46 50 -52 24 -13 26 -42 4 -60 -8 -8 -22 -29 -30 -48 -52 -125 42 -222 217 -222 67 0 68 0 84 -33 82 -174 315 -158 421 28 10 17 20 20 70 17 72 -4 141 14 159 42 35 57 24 158 -26 234 -16 24 -29 46 -29 51 0 4 9 27 21 50 40 84 38 137 -8 192 -29 34 -114 79 -151 79 -12 0 -24 6 -26 13 -24 85 -35 107 -76 148 -61 62 -148 85 -210 56z m70 -387 c0 -21 -24 -28 -35 -10 -8 14 3 30 21 30 8 0 14 -9 14 -20z m-90 -5 c0 -8 -9 -15 -20 -15 -20 0 -26 11 -13 23 12 13 33 7 33 -8z m160 -29 c0 -15 -24 -28 -34 -19 -13 14 -5 33 14 33 11 0 20 -6 20 -14z m-185 -56 c0 -22 -29 -18 -33 3 -3 14 1 18 15 15 10 -2 18 -10 18 -18z m85 5 c0 -8 -6 -15 -14 -15 -17 0 -28 14 -19 24 12 12 33 6 33 -9z m80 -20 c0 -8 -9 -15 -20 -15 -20 0 -26 11 -13 23 12 13 33 7 33 -8z m-255 -15 c0 -8 -8 -16 -17 -18 -13 -2 -18 3 -18 18 0 15 5 20 18 18 9 -2 17 -10 17 -18z m185 -53 c0 -8 -3 -17 -7 -20 -9 -9 -34 13 -27 24 8 14 34 11 34 -4z m120 -7 c0 -11 -6 -20 -14 -20 -18 0 -29 16 -21 30 11 18 35 11 35 -10z m-229 -23 c-5 -5 -17 -7 -26 -3 -14 5 -15 9 -5 21 10 12 16 13 27 4 9 -8 10 -16 4 -22z m-76 -57 c0 -22 -29 -18 -33 3 -3 14 1 18 15 15 10 -2 18 -10 18 -18z m255 6 c0 -15 -24 -28 -34 -19 -13 14 -5 33 14 33 11 0 20 -6 20 -14z m-110 -16 c0 -11 -7 -20 -15 -20 -8 0 -15 9 -15 20 0 11 7 20 15 20 8 0 15 -9 15 -20z m70 -64 c0 -8 -4 -17 -8 -20 -13 -8 -35 11 -28 23 10 16 36 14 36 -3z m-135 -17 c0 -7 -8 -15 -17 -17 -18 -3 -25 18 -11 32 10 10 28 1 28 -15z" transform="translate(0,138) scale(0.1,-0.1)" stroke="none" fill="#AAC8C7"/>

</g>

<g id="3" transform="translate(492.0,0)scale(1,1)">

<path d="M1040 1087 c-49 -23 -89 -58 -112 -98 -20 -37 -24 -39 -53 -32 -66 17 -147 9 -202 -21 -86 -47 -133 -129 -133 -235 0 -60 4 -73 30 -109 16 -23 39 -46 50 -52 24 -13 26 -42 4 -60 -8 -8 -22 -29 -30 -48 -52 -125 42 -222 217 -222 67 0 68 0 84 -33 82 -174 315 -158 421 28 10 17 20 20 70 17 72 -4 141 14 159 42 35 57 24 158 -26 234 -16 24 -29 46 -29 51 0 4 9 27 21 50 40 84 38 137 -8 192 -29 34 -114 79 -151 79 -12 0 -24 6 -26 13 -24 85 -35 107 -76 148 -61 62 -148 85 -210 56z m70 -387 c0 -21 -24 -28 -35 -10 -8 14 3 30 21 30 8 0 14 -9 14 -20z m-90 -5 c0 -8 -9 -15 -20 -15 -20 0 -26 11 -13 23 12 13 33 7 33 -8z m160 -29 c0 -15 -24 -28 -34 -19 -13 14 -5 33 14 33 11 0 20 -6 20 -14z m-185 -56 c0 -22 -29 -18 -33 3 -3 14 1 18 15 15 10 -2 18 -10 18 -18z m85 5 c0 -8 -6 -15 -14 -15 -17 0 -28 14 -19 24 12 12 33 6 33 -9z m80 -20 c0 -8 -9 -15 -20 -15 -20 0 -26 11 -13 23 12 13 33 7 33 -8z m-255 -15 c0 -8 -8 -16 -17 -18 -13 -2 -18 3 -18 18 0 15 5 20 18 18 9 -2 17 -10 17 -18z m185 -53 c0 -8 -3 -17 -7 -20 -9 -9 -34 13 -27 24 8 14 34 11 34 -4z m120 -7 c0 -11 -6 -20 -14 -20 -18 0 -29 16 -21 30 11 18 35 11 35 -10z m-229 -23 c-5 -5 -17 -7 -26 -3 -14 5 -15 9 -5 21 10 12 16 13 27 4 9 -8 10 -16 4 -22z m-76 -57 c0 -22 -29 -18 -33 3 -3 14 1 18 15 15 10 -2 18 -10 18 -18z m255 6 c0 -15 -24 -28 -34 -19 -13 14 -5 33 14 33 11 0 20 -6 20 -14z m-110 -16 c0 -11 -7 -20 -15 -20 -8 0 -15 9 -15 20 0 11 7 20 15 20 8 0 15 -9 15 -20z m70 -64 c0 -8 -4 -17 -8 -20 -13 -8 -35 11 -28 23 10 16 36 14 36 -3z m-135 -17 c0 -7 -8 -15 -17 -17 -18 -3 -25 18 -11 32 10 10 28 1 28 -15z" transform="translate(0,138) scale(0.1,-0.1)" stroke="none" fill="#AAC8C7"/>

</g>

<g id="4" transform="translate(656.0,0)scale(1,1)">

<path d="M1040 1087 c-49 -23 -89 -58 -112 -98 -20 -37 -24 -39 -53 -32 -66 17 -147 9 -202 -21 -86 -47 -133 -129 -133 -235 0 -60 4 -73 30 -109 16 -23 39 -46 50 -52 24 -13 26 -42 4 -60 -8 -8 -22 -29 -30 -48 -52 -125 42 -222 217 -222 67 0 68 0 84 -33 82 -174 315 -158 421 28 10 17 20 20 70 17 72 -4 141 14 159 42 35 57 24 158 -26 234 -16 24 -29 46 -29 51 0 4 9 27 21 50 40 84 38 137 -8 192 -29 34 -114 79 -151 79 -12 0 -24 6 -26 13 -24 85 -35 107 -76 148 -61 62 -148 85 -210 56z m70 -387 c0 -21 -24 -28 -35 -10 -8 14 3 30 21 30 8 0 14 -9 14 -20z m-90 -5 c0 -8 -9 -15 -20 -15 -20 0 -26 11 -13 23 12 13 33 7 33 -8z m160 -29 c0 -15 -24 -28 -34 -19 -13 14 -5 33 14 33 11 0 20 -6 20 -14z m-185 -56 c0 -22 -29 -18 -33 3 -3 14 1 18 15 15 10 -2 18 -10 18 -18z m85 5 c0 -8 -6 -15 -14 -15 -17 0 -28 14 -19 24 12 12 33 6 33 -9z m80 -20 c0 -8 -9 -15 -20 -15 -20 0 -26 11 -13 23 12 13 33 7 33 -8z m-255 -15 c0 -8 -8 -16 -17 -18 -13 -2 -18 3 -18 18 0 15 5 20 18 18 9 -2 17 -10 17 -18z m185 -53 c0 -8 -3 -17 -7 -20 -9 -9 -34 13 -27 24 8 14 34 11 34 -4z m120 -7 c0 -11 -6 -20 -14 -20 -18 0 -29 16 -21 30 11 18 35 11 35 -10z m-229 -23 c-5 -5 -17 -7 -26 -3 -14 5 -15 9 -5 21 10 12 16 13 27 4 9 -8 10 -16 4 -22z m-76 -57 c0 -22 -29 -18 -33 3 -3 14 1 18 15 15 10 -2 18 -10 18 -18z m255 6 c0 -15 -24 -28 -34 -19 -13 14 -5 33 14 33 11 0 20 -6 20 -14z m-110 -16 c0 -11 -7 -20 -15 -20 -8 0 -15 9 -15 20 0 11 7 20 15 20 8 0 15 -9 15 -20z m70 -64 c0 -8 -4 -17 -8 -20 -13 -8 -35 11 -28 23 10 16 36 14 36 -3z m-135 -17 c0 -7 -8 -15 -17 -17 -18 -3 -25 18 -11 32 10 10 28 1 28 -15z" transform="translate(0,138) scale(0.1,-0.1)" stroke="none" fill="#AAC8C7"/>

</g>

</g>
<g id="row1" transform="translate(-61,138.0)">
<g id="0" transform="translate(0.0,0)scale(1,1)">

<path d="M1040 1087 c-49 -23 -89 -58 -112 -98 -20 -37 -24 -39 -53 -32 -66 17 -147 9 -202 -21 -86 -47 -133 -129 -133 -235 0 -60 4 -73 30 -109 16 -23 39 -46 50 -52 24 -13 26 -42 4 -60 -8 -8 -22 -29 -30 -48 -52 -125 42 -222 217 -222 67 0 68 0 84 -33 82 -174 315 -158 421 28 10 17 20 20 70 17 72 -4 141 14 159 42 35 57 24 158 -26 234 -16 24 -29 46 -29 51 0 4 9 27 21 50 40 84 38 137 -8 192 -29 34 -114 79 -151 79 -12 0 -24 6 -26 13 -24 85 -35 107 -76 148 -61 62 -148 85 -210 56z m70 -387 c0 -21 -24 -28 -35 -10 -8 14 3 30 21 30 8 0 14 -9 14 -20z m-90 -5 c0 -8 -9 -15 -20 -15 -20 0 -26 11 -13 23 12 13 33 7 33 -8z m160 -29 c0 -15 -24 -28 -34 -19 -13 14 -5 33 14 33 11 0 20 -6 20 -14z m-185 -56 c0 -22 -29 -18 -33 3 -3 14 1 18 15 15 10 -2 18 -10 18 -18z m85 5 c0 -8 -6 -15 -14 -15 -17 0 -28 14 -19 24 12 12 33 6 33 -9z m80 -20 c0 -8 -9 -15 -20 -15 -20 0 -26 11 -13 23 12 13 33 7 33 -8z m-255 -15 c0 -8 -8 -16 -17 -18 -13 -2 -18 3 -18 18 0 15 5 20 18 18 9 -2 17 -10 17 -18z m185 -53 c0 -8 -3 -17 -7 -20 -9 -9 -34 13 -27 24 8 14 34 11 34 -4z m120 -7 c0 -11 -6 -20 -14 -20 -18 0 -29 16 -21 30 11 18 35 11 35 -10z m-229 -23 c-5 -5 -17 -7 -26 -3 -14 5 -15 9 -5 21 10 12 16 13 27 4 9 -8 10 -16 4 -22z m-76 -57 c0 -22 -29 -18 -33 3 -3 14 1 18 15 15 10 -2 18 -10 18 -18z m255 6 c0 -15 -24 -28 -34 -19 -13 14 -5 33 14 33 11 0 20 -6 20 -14z m-110 -16 c0 -11 -7 -20 -15 -20 -8 0 -15 9 -15 20 0 11 7 20 15 20 8 0 15 -9 15 -20z m70 -64 c0 -8 -4 -17 -8 -20 -13 -8 -35 11 -28 23 10 16 36 14 36 -3z m-135 -17 c0 -7 -8 -15 -17 -17 -18 -3 -25 18 -11 32 10 10 28 1 28 -15z" transform="translate(0,138) scale(0.1,-0.1)" stroke="none" fill="#AAC8C7"/>

</g>

<g id="1" transform="translate(164.0,0)scale(1,1)">

<path d="M1040 1087 c-49 -23 -89 -58 -112 -98 -20 -37 -24 -39 -53 -32 -66 17 -147 9 -202 -21 -86 -47 -133 -129 -133 -235 0 -60 4 -73 30 -109 16 -23 39 -46 50 -52 24 -13 26 -42 4 -60 -8 -8 -22 -29 -30 -48 -52 -125 42 -222 217 -222 67 0 68 0 84 -33 82 -174 315 -158 421 28 10 17 20 20 70 17 72 -4 141 14 159 42 35 57 24 158 -26 234 -16 24 -29 46 -29 51 0 4 9 27 21 50 40 84 38 137 -8 192 -29 34 -114 79 -151 79 -12 0 -24 6 -26 13 -24 85 -35 107 -76 148 -61 62 -148 85 -210 56z m70 -387 c0 -21 -24 -28 -35 -10 -8 14 3 30 21 30 8 0 14 -9 14 -20z m-90 -5 c0 -8 -9 -15 -20 -15 -20 0 -26 11 -13 23 12 13 33 7 33 -8z m160 -29 c0 -15 -24 -28 -34 -19 -13 14 -5 33 14 33 11 0 20 -6 20 -14z m-185 -56 c0 -22 -29 -18 -33 3 -3 14 1 18 15 15 10 -2 18 -10 18 -18z m85 5 c0 -8 -6 -15 -14 -15 -17 0 -28 14 -19 24 12 12 33 6 33 -9z m80 -20 c0 -8 -9 -15 -20 -15 -20 0 -26 11 -13 23 12 13 33 7 33 -8z m-255 -15 c0 -8 -8 -16 -17 -18 -13 -2 -18 3 -18 18 0 15 5 20 18 18 9 -2 17 -10 17 -18z m185 -53 c0 -8 -3 -17 -7 -20 -9 -9 -34 13 -27 24 8 14 34 11 34 -4z m120 -7 c0 -11 -6 -20 -14 -20 -18 0 -29 16 -21 30 11 18 35 11 35 -10z m-229 -23 c-5 -5 -17 -7 -26 -3 -14 5 -15 9 -5 21 10 12 16 13 27 4 9 -8 10 -16 4 -22z m-76 -57 c0 -22 -29 -18 -33 3 -3 14 1 18 15 15 10 -2 18 -10 18 -18z m255 6 c0 -15 -24 -28 -34 -19 -13 14 -5 33 14 33 11 0 20 -6 20 -14z m-110 -16 c0 -11 -7 -20 -15 -20 -8 0 -15 9 -15 20 0 11 7 20 15 20 8 0 15 -9 15 -20z m70 -64 c0 -8 -4 -17 -8 -20 -13 -8 -35 11 -28 23 10 16 36 14 36 -3z m-135 -17 c0 -7 -8 -15 -17 -17 -18 -3 -25 18 -11 32 10 10 28 1 28 -15z" transform="translate(0,138) scale(0.1,-0.1)" stroke="none" fill="#AAC8C7"/>

</g>

<g id="2" transform="translate(328.0,0)scale(1,1)">

<path d="M1040 1087 c-49 -23 -89 -58 -112 -98 -20 -37 -24 -39 -53 -32 -66 17 -147 9 -202 -21 -86 -47 -133 -129 -133 -235 0 -60 4 -73 30 -109 16 -23 39 -46 50 -52 24 -13 26 -42 4 -60 -8 -8 -22 -29 -30 -48 -52 -125 42 -222 217 -222 67 0 68 0 84 -33 82 -174 315 -158 421 28 10 17 20 20 70 17 72 -4 141 14 159 42 35 57 24 158 -26 234 -16 24 -29 46 -29 51 0 4 9 27 21 50 40 84 38 137 -8 192 -29 34 -114 79 -151 79 -12 0 -24 6 -26 13 -24 85 -35 107 -76 148 -61 62 -148 85 -210 56z m70 -387 c0 -21 -24 -28 -35 -10 -8 14 3 30 21 30 8 0 14 -9 14 -20z m-90 -5 c0 -8 -9 -15 -20 -15 -20 0 -26 11 -13 23 12 13 33 7 33 -8z m160 -29 c0 -15 -24 -28 -34 -19 -13 14 -5 33 14 33 11 0 20 -6 20 -14z m-185 -56 c0 -22 -29 -18 -33 3 -3 14 1 18 15 15 10 -2 18 -10 18 -18z m85 5 c0 -8 -6 -15 -14 -15 -17 0 -28 14 -19 24 12 12 33 6 33 -9z m80 -20 c0 -8 -9 -15 -20 -15 -20 0 -26 11 -13 23 12 13 33 7 33 -8z m-255 -15 c0 -8 -8 -16 -17 -18 -13 -2 -18 3 -18 18 0 15 5 20 18 18 9 -2 17 -10 17 -18z m185 -53 c0 -8 -3 -17 -7 -20 -9 -9 -34 13 -27 24 8 14 34 11 34 -4z m120 -7 c0 -11 -6 -20 -14 -20 -18 0 -29 16 -21 30 11 18 35 11 35 -10z m-229 -23 c-5 -5 -17 -7 -26 -3 -14 5 -15 9 -5 21 10 12 16 13 27 4 9 -8 10 -16 4 -22z m-76 -57 c0 -22 -29 -18 -33 3 -3 14 1 18 15 15 10 -2 18 -10 18 -18z m255 6 c0 -15 -24 -28 -34 -19 -13 14 -5 33 14 33 11 0 20 -6 20 -14z m-110 -16 c0 -11 -7 -20 -15 -20 -8 0 -15 9 -15 20 0 11 7 20 15 20 8 0 15 -9 15 -20z m70 -64 c0 -8 -4 -17 -8 -20 -13 -8 -35 11 -28 23 10 16 36 14 36 -3z m-135 -17 c0 -7 -8 -15 -17 -17 -18 -3 -25 18 -11 32 10 10 28 1 28 -15z" transform="translate(0,138) scale(0.1,-0.1)" stroke="none" fill="#AAC8C7"/>

</g>

<g id="3" transform="translate(492.0,0)scale(1,1)">

<path d="M1040 1087 c-49 -23 -89 -58 -112 -98 -20 -37 -24 -39 -53 -32 -66 17 -147 9 -202 -21 -86 -47 -133 -129 -133 -235 0 -60 4 -73 30 -109 16 -23 39 -46 50 -52 24 -13 26 -42 4 -60 -8 -8 -22 -29 -30 -48 -52 -125 42 -222 217 -222 67 0 68 0 84 -33 82 -174 315 -158 421 28 10 17 20 20 70 17 72 -4 141 14 159 42 35 57 24 158 -26 234 -16 24 -29 46 -29 51 0 4 9 27 21 50 40 84 38 137 -8 192 -29 34 -114 79 -151 79 -12 0 -24 6 -26 13 -24 85 -35 107 -76 148 -61 62 -148 85 -210 56z m70 -387 c0 -21 -24 -28 -35 -10 -8 14 3 30 21 30 8 0 14 -9 14 -20z m-90 -5 c0 -8 -9 -15 -20 -15 -20 0 -26 11 -13 23 12 13 33 7 33 -8z m160 -29 c0 -15 -24 -28 -34 -19 -13 14 -5 33 14 33 11 0 20 -6 20 -14z m-185 -56 c0 -22 -29 -18 -33 3 -3 14 1 18 15 15 10 -2 18 -10 18 -18z m85 5 c0 -8 -6 -15 -14 -15 -17 0 -28 14 -19 24 12 12 33 6 33 -9z m80 -20 c0 -8 -9 -15 -20 -15 -20 0 -26 11 -13 23 12 13 33 7 33 -8z m-255 -15 c0 -8 -8 -16 -17 -18 -13 -2 -18 3 -18 18 0 15 5 20 18 18 9 -2 17 -10 17 -18z m185 -53 c0 -8 -3 -17 -7 -20 -9 -9 -34 13 -27 24 8 14 34 11 34 -4z m120 -7 c0 -11 -6 -20 -14 -20 -18 0 -29 16 -21 30 11 18 35 11 35 -10z m-229 -23 c-5 -5 -17 -7 -26 -3 -14 5 -15 9 -5 21 10 12 16 13 27 4 9 -8 10 -16 4 -22z m-76 -57 c0 -22 -29 -18 -33 3 -3 14 1 18 15 15 10 -2 18 -10 18 -18z m255 6 c0 -15 -24 -28 -34 -19 -13 14 -5 33 14 33 11 0 20 -6 20 -14z m-110 -16 c0 -11 -7 -20 -15 -20 -8 0 -15 9 -15 20 0 11 7 20 15 20 8 0 15 -9 15 -20z m70 -64 c0 -8 -4 -17 -8 -20 -13 -8 -35 11 -28 23 10 16 36 14 36 -3z m-135 -17 c0 -7 -8 -15 -17 -17 -18 -3 -25 18 -11 32 10 10 28 1 28 -15z" transform="translate(0,138) scale(0.1,-0.1)" stroke="none" fill="#AAC8C7"/>

</g>

<g id="4" transform="translate(656.0,0)scale(1,1)">

<path d="M1040 1087 c-49 -23 -89 -58 -112 -98 -20 -37 -24 -39 -53 -32 -66 17 -147 9 -202 -21 -86 -47 -133 -129 -133 -235 0 -60 4 -73 30 -109 16 -23 39 -46 50 -52 24 -13 26 -42 4 -60 -8 -8 -22 -29 -30 -48 -52 -125 42 -222 217 -222 67 0 68 0 84 -33 82 -174 315 -158 421 28 10 17 20 20 70 17 72 -4 141 14 159 42 35 57 24 158 -26 234 -16 24 -29 46 -29 51 0 4 9 27 21 50 40 84 38 137 -8 192 -29 34 -114 79 -151 79 -12 0 -24 6 -26 13 -24 85 -35 107 -76 148 -61 62 -148 85 -210 56z m70 -387 c0 -21 -24 -28 -35 -10 -8 14 3 30 21 30 8 0 14 -9 14 -20z m-90 -5 c0 -8 -9 -15 -20 -15 -20 0 -26 11 -13 23 12 13 33 7 33 -8z m160 -29 c0 -15 -24 -28 -34 -19 -13 14 -5 33 14 33 11 0 20 -6 20 -14z m-185 -56 c0 -22 -29 -18 -33 3 -3 14 1 18 15 15 10 -2 18 -10 18 -18z m85 5 c0 -8 -6 -15 -14 -15 -17 0 -28 14 -19 24 12 12 33 6 33 -9z m80 -20 c0 -8 -9 -15 -20 -15 -20 0 -26 11 -13 23 12 13 33 7 33 -8z m-255 -15 c0 -8 -8 -16 -17 -18 -13 -2 -18 3 -18 18 0 15 5 20 18 18 9 -2 17 -10 17 -18z m185 -53 c0 -8 -3 -17 -7 -20 -9 -9 -34 13 -27 24 8 14 34 11 34 -4z m120 -7 c0 -11 -6 -20 -14 -20 -18 0 -29 16 -21 30 11 18 35 11 35 -10z m-229 -23 c-5 -5 -17 -7 -26 -3 -14 5 -15 9 -5 21 10 12 16 13 27 4 9 -8 10 -16 4 -22z m-76 -57 c0 -22 -29 -18 -33 3 -3 14 1 18 15 15 10 -2 18 -10 18 -18z m255 6 c0 -15 -24 -28 -34 -19 -13 14 -5 33 14 33 11 0 20 -6 20 -14z m-110 -16 c0 -11 -7 -20 -15 -20 -8 0 -15 9 -15 20 0 11 7 20 15 20 8 0 15 -9 15 -20z m70 -64 c0 -8 -4 -17 -8 -20 -13 -8 -35 11 -28 23 10 16 36 14 36 -3z m-135 -17 c0 -7 -8 -15 -17 -17 -18 -3 -25 18 -11 32 10 10 28 1 28 -15z" transform="translate(0,138) scale(0.1,-0.1)" stroke="none" fill="#AAC8C7"/>

</g>

</g>
<g id="row2" transform="translate(21,276.0)">
<g id="0" transform="translate(0.0,0)scale(1,1)">

<path d="M1040 1087 c-49 -23 -89 -58 -112 -98 -20 -37 -24 -39 -53 -32 -66 17 -147 9 -202 -21 -86 -47 -133 -129 -133 -235 0 -60 4 -73 30 -109 16 -23 39 -46 50 -52 24 -13 26 -42 4 -60 -8 -8 -22 -29 -30 -48 -52 -125 42 -222 217 -222 67 0 68 0 84 -33 82 -174 315 -158 421 28 10 17 20 20 70 17 72 -4 141 14 159 42 35 57 24 158 -26 234 -16 24 -29 46 -29 51 0 4 9 27 21 50 40 84 38 137 -8 192 -29 34 -114 79 -151 79 -12 0 -24 6 -26 13 -24 85 -35 107 -76 148 -61 62 -148 85 -210 56z m70 -387 c0 -21 -24 -28 -35 -10 -8 14 3 30 21 30 8 0 14 -9 14 -20z m-90 -5 c0 -8 -9 -15 -20 -15 -20 0 -26 11 -13 23 12 13 33 7 33 -8z m160 -29 c0 -15 -24 -28 -34 -19 -13 14 -5 33 14 33 11 0 20 -6 20 -14z m-185 -56 c0 -22 -29 -18 -33 3 -3 14 1 18 15 15 10 -2 18 -10 18 -18z m85 5 c0 -8 -6 -15 -14 -15 -17 0 -28 14 -19 24 12 12 33 6 33 -9z m80 -20 c0 -8 -9 -15 -20 -15 -20 0 -26 11 -13 23 12 13 33 7 33 -8z m-255 -15 c0 -8 -8 -16 -17 -18 -13 -2 -18 3 -18 18 0 15 5 20 18 18 9 -2 17 -10 17 -18z m185 -53 c0 -8 -3 -17 -7 -20 -9 -9 -34 13 -27 24 8 14 34 11 34 -4z m120 -7 c0 -11 -6 -20 -14 -20 -18 0 -29 16 -21 30 11 18 35 11 35 -10z m-229 -23 c-5 -5 -17 -7 -26 -3 -14 5 -15 9 -5 21 10 12 16 13 27 4 9 -8 10 -16 4 -22z m-76 -57 c0 -22 -29 -18 -33 3 -3 14 1 18 15 15 10 -2 18 -10 18 -18z m255 6 c0 -15 -24 -28 -34 -19 -13 14 -5 33 14 33 11 0 20 -6 20 -14z m-110 -16 c0 -11 -7 -20 -15 -20 -8 0 -15 9 -15 20 0 11 7 20 15 20 8 0 15 -9 15 -20z m70 -64 c0 -8 -4 -17 -8 -20 -13 -8 -35 11 -28 23 10 16 36 14 36 -3z m-135 -17 c0 -7 -8 -15 -17 -17 -18 -3 -25 18 -11 32 10 10 28 1 28 -15z" transform="translate(0,138) scale(0.1,-0.1)" stroke="none" fill="#AAC8C7"/>

</g>

<g id="1" transform="translate(164.0,0)scale(1,1)">

<path d="M1040 1087 c-49 -23 -89 -58 -112 -98 -20 -37 -24 -39 -53 -32 -66 17 -147 9 -202 -21 -86 -47 -133 -129 -133 -235 0 -60 4 -73 30 -109 16 -23 39 -46 50 -52 24 -13 26 -42 4 -60 -8 -8 -22 -29 -30 -48 -52 -125 42 -222 217 -222 67 0 68 0 84 -33 82 -174 315 -158 421 28 10 17 20 20 70 17 72 -4 141 14 159 42 35 57 24 158 -26 234 -16 24 -29 46 -29 51 0 4 9 27 21 50 40 84 38 137 -8 192 -29 34 -114 79 -151 79 -12 0 -24 6 -26 13 -24 85 -35 107 -76 148 -61 62 -148 85 -210 56z m70 -387 c0 -21 -24 -28 -35 -10 -8 14 3 30 21 30 8 0 14 -9 14 -20z m-90 -5 c0 -8 -9 -15 -20 -15 -20 0 -26 11 -13 23 12 13 33 7 33 -8z m160 -29 c0 -15 -24 -28 -34 -19 -13 14 -5 33 14 33 11 0 20 -6 20 -14z m-185 -56 c0 -22 -29 -18 -33 3 -3 14 1 18 15 15 10 -2 18 -10 18 -18z m85 5 c0 -8 -6 -15 -14 -15 -17 0 -28 14 -19 24 12 12 33 6 33 -9z m80 -20 c0 -8 -9 -15 -20 -15 -20 0 -26 11 -13 23 12 13 33 7 33 -8z m-255 -15 c0 -8 -8 -16 -17 -18 -13 -2 -18 3 -18 18 0 15 5 20 18 18 9 -2 17 -10 17 -18z m185 -53 c0 -8 -3 -17 -7 -20 -9 -9 -34 13 -27 24 8 14 34 11 34 -4z m120 -7 c0 -11 -6 -20 -14 -20 -18 0 -29 16 -21 30 11 18 35 11 35 -10z m-229 -23 c-5 -5 -17 -7 -26 -3 -14 5 -15 9 -5 21 10 12 16 13 27 4 9 -8 10 -16 4 -22z m-76 -57 c0 -22 -29 -18 -33 3 -3 14 1 18 15 15 10 -2 18 -10 18 -18z m255 6 c0 -15 -24 -28 -34 -19 -13 14 -5 33 14 33 11 0 20 -6 20 -14z m-110 -16 c0 -11 -7 -20 -15 -20 -8 0 -15 9 -15 20 0 11 7 20 15 20 8 0 15 -9 15 -20z m70 -64 c0 -8 -4 -17 -8 -20 -13 -8 -35 11 -28 23 10 16 36 14 36 -3z m-135 -17 c0 -7 -8 -15 -17 -17 -18 -3 -25 18 -11 32 10 10 28 1 28 -15z" transform="translate(0,138) scale(0.1,-0.1)" stroke="none" fill="#AAC8C7"/>

</g>

<g id="2" transform="translate(328.0,0)scale(1,1)">

<path d="M1040 1087 c-49 -23 -89 -58 -112 -98 -20 -37 -24 -39 -53 -32 -66 17 -147 9 -202 -21 -86 -47 -133 -129 -133 -235 0 -60 4 -73 30 -109 16 -23 39 -46 50 -52 24 -13 26 -42 4 -60 -8 -8 -22 -29 -30 -48 -52 -125 42 -222 217 -222 67 0 68 0 84 -33 82 -174 315 -158 421 28 10 17 20 20 70 17 72 -4 141 14 159 42 35 57 24 158 -26 234 -16 24 -29 46 -29 51 0 4 9 27 21 50 40 84 38 137 -8 192 -29 34 -114 79 -151 79 -12 0 -24 6 -26 13 -24 85 -35 107 -76 148 -61 62 -148 85 -210 56z m70 -387 c0 -21 -24 -28 -35 -10 -8 14 3 30 21 30 8 0 14 -9 14 -20z m-90 -5 c0 -8 -9 -15 -20 -15 -20 0 -26 11 -13 23 12 13 33 7 33 -8z m160 -29 c0 -15 -24 -28 -34 -19 -13 14 -5 33 14 33 11 0 20 -6 20 -14z m-185 -56 c0 -22 -29 -18 -33 3 -3 14 1 18 15 15 10 -2 18 -10 18 -18z m85 5 c0 -8 -6 -15 -14 -15 -17 0 -28 14 -19 24 12 12 33 6 33 -9z m80 -20 c0 -8 -9 -15 -20 -15 -20 0 -26 11 -13 23 12 13 33 7 33 -8z m-255 -15 c0 -8 -8 -16 -17 -18 -13 -2 -18 3 -18 18 0 15 5 20 18 18 9 -2 17 -10 17 -18z m185 -53 c0 -8 -3 -17 -7 -20 -9 -9 -34 13 -27 24 8 14 34 11 34 -4z m120 -7 c0 -11 -6 -20 -14 -20 -18 0 -29 16 -21 30 11 18 35 11 35 -10z m-229 -23 c-5 -5 -17 -7 -26 -3 -14 5 -15 9 -5 21 10 12 16 13 27 4 9 -8 10 -16 4 -22z m-76 -57 c0 -22 -29 -18 -33 3 -3 14 1 18 15 15 10 -2 18 -10 18 -18z m255 6 c0 -15 -24 -28 -34 -19 -13 14 -5 33 14 33 11 0 20 -6 20 -14z m-110 -16 c0 -11 -7 -20 -15 -20 -8 0 -15 9 -15 20 0 11 7 20 15 20 8 0 15 -9 15 -20z m70 -64 c0 -8 -4 -17 -8 -20 -13 -8 -35 11 -28 23 10 16 36 14 36 -3z m-135 -17 c0 -7 -8 -15 -17 -17 -18 -3 -25 18 -11 32 10 10 28 1 28 -15z" transform="translate(0,138) scale(0.1,-0.1)" stroke="none" fill="#AAC8C7"/>

</g>

<g id="3" transform="translate(492.0,0)scale(1,1)">

<path d="M1040 1087 c-49 -23 -89 -58 -112 -98 -20 -37 -24 -39 -53 -32 -66 17 -147 9 -202 -21 -86 -47 -133 -129 -133 -235 0 -60 4 -73 30 -109 16 -23 39 -46 50 -52 24 -13 26 -42 4 -60 -8 -8 -22 -29 -30 -48 -52 -125 42 -222 217 -222 67 0 68 0 84 -33 82 -174 315 -158 421 28 10 17 20 20 70 17 72 -4 141 14 159 42 35 57 24 158 -26 234 -16 24 -29 46 -29 51 0 4 9 27 21 50 40 84 38 137 -8 192 -29 34 -114 79 -151 79 -12 0 -24 6 -26 13 -24 85 -35 107 -76 148 -61 62 -148 85 -210 56z m70 -387 c0 -21 -24 -28 -35 -10 -8 14 3 30 21 30 8 0 14 -9 14 -20z m-90 -5 c0 -8 -9 -15 -20 -15 -20 0 -26 11 -13 23 12 13 33 7 33 -8z m160 -29 c0 -15 -24 -28 -34 -19 -13 14 -5 33 14 33 11 0 20 -6 20 -14z m-185 -56 c0 -22 -29 -18 -33 3 -3 14 1 18 15 15 10 -2 18 -10 18 -18z m85 5 c0 -8 -6 -15 -14 -15 -17 0 -28 14 -19 24 12 12 33 6 33 -9z m80 -20 c0 -8 -9 -15 -20 -15 -20 0 -26 11 -13 23 12 13 33 7 33 -8z m-255 -15 c0 -8 -8 -16 -17 -18 -13 -2 -18 3 -18 18 0 15 5 20 18 18 9 -2 17 -10 17 -18z m185 -53 c0 -8 -3 -17 -7 -20 -9 -9 -34 13 -27 24 8 14 34 11 34 -4z m120 -7 c0 -11 -6 -20 -14 -20 -18 0 -29 16 -21 30 11 18 35 11 35 -10z m-229 -23 c-5 -5 -17 -7 -26 -3 -14 5 -15 9 -5 21 10 12 16 13 27 4 9 -8 10 -16 4 -22z m-76 -57 c0 -22 -29 -18 -33 3 -3 14 1 18 15 15 10 -2 18 -10 18 -18z m255 6 c0 -15 -24 -28 -34 -19 -13 14 -5 33 14 33 11 0 20 -6 20 -14z m-110 -16 c0 -11 -7 -20 -15 -20 -8 0 -15 9 -15 20 0 11 7 20 15 20 8 0 15 -9 15 -20z m70 -64 c0 -8 -4 -17 -8 -20 -13 -8 -35 11 -28 23 10 16 36 14 36 -3z m-135 -17 c0 -7 -8 -15 -17 -17 -18 -3 -25 18 -11 32 10 10 28 1 28 -15z" transform="translate(0,138) scale(0.1,-0.1)" stroke="none" fill="#AAC8C7"/>

</g>

<g id="4" transform="translate(656.0,0)scale(1,1)">

<path d="M1040 1087 c-49 -23 -89 -58 -112 -98 -20 -37 -24 -39 -53 -32 -66 17 -147 9 -202 -21 -86 -47 -133 -129 -133 -235 0 -60 4 -73 30 -109 16 -23 39 -46 50 -52 24 -13 26 -42 4 -60 -8 -8 -22 -29 -30 -48 -52 -125 42 -222 217 -222 67 0 68 0 84 -33 82 -174 315 -158 421 28 10 17 20 20 70 17 72 -4 141 14 159 42 35 57 24 158 -26 234 -16 24 -29 46 -29 51 0 4 9 27 21 50 40 84 38 137 -8 192 -29 34 -114 79 -151 79 -12 0 -24 6 -26 13 -24 85 -35 107 -76 148 -61 62 -148 85 -210 56z m70 -387 c0 -21 -24 -28 -35 -10 -8 14 3 30 21 30 8 0 14 -9 14 -20z m-90 -5 c0 -8 -9 -15 -20 -15 -20 0 -26 11 -13 23 12 13 33 7 33 -8z m160 -29 c0 -15 -24 -28 -34 -19 -13 14 -5 33 14 33 11 0 20 -6 20 -14z m-185 -56 c0 -22 -29 -18 -33 3 -3 14 1 18 15 15 10 -2 18 -10 18 -18z m85 5 c0 -8 -6 -15 -14 -15 -17 0 -28 14 -19 24 12 12 33 6 33 -9z m80 -20 c0 -8 -9 -15 -20 -15 -20 0 -26 11 -13 23 12 13 33 7 33 -8z m-255 -15 c0 -8 -8 -16 -17 -18 -13 -2 -18 3 -18 18 0 15 5 20 18 18 9 -2 17 -10 17 -18z m185 -53 c0 -8 -3 -17 -7 -20 -9 -9 -34 13 -27 24 8 14 34 11 34 -4z m120 -7 c0 -11 -6 -20 -14 -20 -18 0 -29 16 -21 30 11 18 35 11 35 -10z m-229 -23 c-5 -5 -17 -7 -26 -3 -14 5 -15 9 -5 21 10 12 16 13 27 4 9 -8 10 -16 4 -22z m-76 -57 c0 -22 -29 -18 -33 3 -3 14 1 18 15 15 10 -2 18 -10 18 -18z m255 6 c0 -15 -24 -28 -34 -19 -13 14 -5 33 14 33 11 0 20 -6 20 -14z m-110 -16 c0 -11 -7 -20 -15 -20 -8 0 -15 9 -15 20 0 11 7 20 15 20 8 0 15 -9 15 -20z m70 -64 c0 -8 -4 -17 -8 -20 -13 -8 -35 11 -28 23 10 16 36 14 36 -3z m-135 -17 c0 -7 -8 -15 -17 -17 -18 -3 -25 18 -11 32 10 10 28 1 28 -15z" transform="translate(0,138) scale(0.1,-0.1)" stroke="none" fill="#AAC8C7"/>

</g>

</g>
<g id="row3" transform="translate(-61,414.0)">
<g id="0" transform="translate(0.0,0)scale(1,1)">

<path d="M1040 1087 c-49 -23 -89 -58 -112 -98 -20 -37 -24 -39 -53 -32 -66 17 -147 9 -202 -21 -86 -47 -133 -129 -133 -235 0 -60 4 -73 30 -109 16 -23 39 -46 50 -52 24 -13 26 -42 4 -60 -8 -8 -22 -29 -30 -48 -52 -125 42 -222 217 -222 67 0 68 0 84 -33 82 -174 315 -158 421 28 10 17 20 20 70 17 72 -4 141 14 159 42 35 57 24 158 -26 234 -16 24 -29 46 -29 51 0 4 9 27 21 50 40 84 38 137 -8 192 -29 34 -114 79 -151 79 -12 0 -24 6 -26 13 -24 85 -35 107 -76 148 -61 62 -148 85 -210 56z m70 -387 c0 -21 -24 -28 -35 -10 -8 14 3 30 21 30 8 0 14 -9 14 -20z m-90 -5 c0 -8 -9 -15 -20 -15 -20 0 -26 11 -13 23 12 13 33 7 33 -8z m160 -29 c0 -15 -24 -28 -34 -19 -13 14 -5 33 14 33 11 0 20 -6 20 -14z m-185 -56 c0 -22 -29 -18 -33 3 -3 14 1 18 15 15 10 -2 18 -10 18 -18z m85 5 c0 -8 -6 -15 -14 -15 -17 0 -28 14 -19 24 12 12 33 6 33 -9z m80 -20 c0 -8 -9 -15 -20 -15 -20 0 -26 11 -13 23 12 13 33 7 33 -8z m-255 -15 c0 -8 -8 -16 -17 -18 -13 -2 -18 3 -18 18 0 15 5 20 18 18 9 -2 17 -10 17 -18z m185 -53 c0 -8 -3 -17 -7 -20 -9 -9 -34 13 -27 24 8 14 34 11 34 -4z m120 -7 c0 -11 -6 -20 -14 -20 -18 0 -29 16 -21 30 11 18 35 11 35 -10z m-229 -23 c-5 -5 -17 -7 -26 -3 -14 5 -15 9 -5 21 10 12 16 13 27 4 9 -8 10 -16 4 -22z m-76 -57 c0 -22 -29 -18 -33 3 -3 14 1 18 15 15 10 -2 18 -10 18 -18z m255 6 c0 -15 -24 -28 -34 -19 -13 14 -5 33 14 33 11 0 20 -6 20 -14z m-110 -16 c0 -11 -7 -20 -15 -20 -8 0 -15 9 -15 20 0 11 7 20 15 20 8 0 15 -9 15 -20z m70 -64 c0 -8 -4 -17 -8 -20 -13 -8 -35 11 -28 23 10 16 36 14 36 -3z m-135 -17 c0 -7 -8 -15 -17 -17 -18 -3 -25 18 -11 32 10 10 28 1 28 -15z" transform="translate(0,138) scale(0.1,-0.1)" stroke="none" fill="#AAC8C7"/>

</g>

<g id="1" transform="translate(164.0,0)scale(1,1)">

<path d="M1040 1087 c-49 -23 -89 -58 -112 -98 -20 -37 -24 -39 -53 -32 -66 17 -147 9 -202 -21 -86 -47 -133 -129 -133 -235 0 -60 4 -73 30 -109 16 -23 39 -46 50 -52 24 -13 26 -42 4 -60 -8 -8 -22 -29 -30 -48 -52 -125 42 -222 217 -222 67 0 68 0 84 -33 82 -174 315 -158 421 28 10 17 20 20 70 17 72 -4 141 14 159 42 35 57 24 158 -26 234 -16 24 -29 46 -29 51 0 4 9 27 21 50 40 84 38 137 -8 192 -29 34 -114 79 -151 79 -12 0 -24 6 -26 13 -24 85 -35 107 -76 148 -61 62 -148 85 -210 56z m70 -387 c0 -21 -24 -28 -35 -10 -8 14 3 30 21 30 8 0 14 -9 14 -20z m-90 -5 c0 -8 -9 -15 -20 -15 -20 0 -26 11 -13 23 12 13 33 7 33 -8z m160 -29 c0 -15 -24 -28 -34 -19 -13 14 -5 33 14 33 11 0 20 -6 20 -14z m-185 -56 c0 -22 -29 -18 -33 3 -3 14 1 18 15 15 10 -2 18 -10 18 -18z m85 5 c0 -8 -6 -15 -14 -15 -17 0 -28 14 -19 24 12 12 33 6 33 -9z m80 -20 c0 -8 -9 -15 -20 -15 -20 0 -26 11 -13 23 12 13 33 7 33 -8z m-255 -15 c0 -8 -8 -16 -17 -18 -13 -2 -18 3 -18 18 0 15 5 20 18 18 9 -2 17 -10 17 -18z m185 -53 c0 -8 -3 -17 -7 -20 -9 -9 -34 13 -27 24 8 14 34 11 34 -4z m120 -7 c0 -11 -6 -20 -14 -20 -18 0 -29 16 -21 30 11 18 35 11 35 -10z m-229 -23 c-5 -5 -17 -7 -26 -3 -14 5 -15 9 -5 21 10 12 16 13 27 4 9 -8 10 -16 4 -22z m-76 -57 c0 -22 -29 -18 -33 3 -3 14 1 18 15 15 10 -2 18 -10 18 -18z m255 6 c0 -15 -24 -28 -34 -19 -13 14 -5 33 14 33 11 0 20 -6 20 -14z m-110 -16 c0 -11 -7 -20 -15 -20 -8 0 -15 9 -15 20 0 11 7 20 15 20 8 0 15 -9 15 -20z m70 -64 c0 -8 -4 -17 -8 -20 -13 -8 -35 11 -28 23 10 16 36 14 36 -3z m-135 -17 c0 -7 -8 -15 -17 -17 -18 -3 -25 18 -11 32 10 10 28 1 28 -15z" transform="translate(0,138) scale(0.1,-0.1)" stroke="none" fill="#AAC8C7"/>

</g>

<g id="2" transform="translate(328.0,0)scale(1,1)">

<path d="M1040 1087 c-49 -23 -89 -58 -112 -98 -20 -37 -24 -39 -53 -32 -66 17 -147 9 -202 -21 -86 -47 -133 -129 -133 -235 0 -60 4 -73 30 -109 16 -23 39 -46 50 -52 24 -13 26 -42 4 -60 -8 -8 -22 -29 -30 -48 -52 -125 42 -222 217 -222 67 0 68 0 84 -33 82 -174 315 -158 421 28 10 17 20 20 70 17 72 -4 141 14 159 42 35 57 24 158 -26 234 -16 24 -29 46 -29 51 0 4 9 27 21 50 40 84 38 137 -8 192 -29 34 -114 79 -151 79 -12 0 -24 6 -26 13 -24 85 -35 107 -76 148 -61 62 -148 85 -210 56z m70 -387 c0 -21 -24 -28 -35 -10 -8 14 3 30 21 30 8 0 14 -9 14 -20z m-90 -5 c0 -8 -9 -15 -20 -15 -20 0 -26 11 -13 23 12 13 33 7 33 -8z m160 -29 c0 -15 -24 -28 -34 -19 -13 14 -5 33 14 33 11 0 20 -6 20 -14z m-185 -56 c0 -22 -29 -18 -33 3 -3 14 1 18 15 15 10 -2 18 -10 18 -18z m85 5 c0 -8 -6 -15 -14 -15 -17 0 -28 14 -19 24 12 12 33 6 33 -9z m80 -20 c0 -8 -9 -15 -20 -15 -20 0 -26 11 -13 23 12 13 33 7 33 -8z m-255 -15 c0 -8 -8 -16 -17 -18 -13 -2 -18 3 -18 18 0 15 5 20 18 18 9 -2 17 -10 17 -18z m185 -53 c0 -8 -3 -17 -7 -20 -9 -9 -34 13 -27 24 8 14 34 11 34 -4z m120 -7 c0 -11 -6 -20 -14 -20 -18 0 -29 16 -21 30 11 18 35 11 35 -10z m-229 -23 c-5 -5 -17 -7 -26 -3 -14 5 -15 9 -5 21 10 12 16 13 27 4 9 -8 10 -16 4 -22z m-76 -57 c0 -22 -29 -18 -33 3 -3 14 1 18 15 15 10 -2 18 -10 18 -18z m255 6 c0 -15 -24 -28 -34 -19 -13 14 -5 33 14 33 11 0 20 -6 20 -14z m-110 -16 c0 -11 -7 -20 -15 -20 -8 0 -15 9 -15 20 0 11 7 20 15 20 8 0 15 -9 15 -20z m70 -64 c0 -8 -4 -17 -8 -20 -13 -8 -35 11 -28 23 10 16 36 14 36 -3z m-135 -17 c0 -7 -8 -15 -17 -17 -18 -3 -25 18 -11 32 10 10 28 1 28 -15z" transform="translate(0,138) scale(0.1,-0.1)" stroke="none" fill="#AAC8C7"/>

</g>

<g id="3" transform="translate(492.0,0)scale(1,1)">

<path d="M1040 1087 c-49 -23 -89 -58 -112 -98 -20 -37 -24 -39 -53 -32 -66 17 -147 9 -202 -21 -86 -47 -133 -129 -133 -235 0 -60 4 -73 30 -109 16 -23 39 -46 50 -52 24 -13 26 -42 4 -60 -8 -8 -22 -29 -30 -48 -52 -125 42 -222 217 -222 67 0 68 0 84 -33 82 -174 315 -158 421 28 10 17 20 20 70 17 72 -4 141 14 159 42 35 57 24 158 -26 234 -16 24 -29 46 -29 51 0 4 9 27 21 50 40 84 38 137 -8 192 -29 34 -114 79 -151 79 -12 0 -24 6 -26 13 -24 85 -35 107 -76 148 -61 62 -148 85 -210 56z m70 -387 c0 -21 -24 -28 -35 -10 -8 14 3 30 21 30 8 0 14 -9 14 -20z m-90 -5 c0 -8 -9 -15 -20 -15 -20 0 -26 11 -13 23 12 13 33 7 33 -8z m160 -29 c0 -15 -24 -28 -34 -19 -13 14 -5 33 14 33 11 0 20 -6 20 -14z m-185 -56 c0 -22 -29 -18 -33 3 -3 14 1 18 15 15 10 -2 18 -10 18 -18z m85 5 c0 -8 -6 -15 -14 -15 -17 0 -28 14 -19 24 12 12 33 6 33 -9z m80 -20 c0 -8 -9 -15 -20 -15 -20 0 -26 11 -13 23 12 13 33 7 33 -8z m-255 -15 c0 -8 -8 -16 -17 -18 -13 -2 -18 3 -18 18 0 15 5 20 18 18 9 -2 17 -10 17 -18z m185 -53 c0 -8 -3 -17 -7 -20 -9 -9 -34 13 -27 24 8 14 34 11 34 -4z m120 -7 c0 -11 -6 -20 -14 -20 -18 0 -29 16 -21 30 11 18 35 11 35 -10z m-229 -23 c-5 -5 -17 -7 -26 -3 -14 5 -15 9 -5 21 10 12 16 13 27 4 9 -8 10 -16 4 -22z m-76 -57 c0 -22 -29 -18 -33 3 -3 14 1 18 15 15 10 -2 18 -10 18 -18z m255 6 c0 -15 -24 -28 -34 -19 -13 14 -5 33 14 33 11 0 20 -6 20 -14z m-110 -16 c0 -11 -7 -20 -15 -20 -8 0 -15 9 -15 20 0 11 7 20 15 20 8 0 15 -9 15 -20z m70 -64 c0 -8 -4 -17 -8 -20 -13 -8 -35 11 -28 23 10 16 36 14 36 -3z m-135 -17 c0 -7 -8 -15 -17 -17 -18 -3 -25 18 -11 32 10 10 28 1 28 -15z" transform="translate(0,138) scale(0.1,-0.1)" stroke="none" fill="#AAC8C7"/>

</g>

<g id="4" transform="translate(656.0,0)scale(1,1)">

<path d="M1040 1087 c-49 -23 -89 -58 -112 -98 -20 -37 -24 -39 -53 -32 -66 17 -147 9 -202 -21 -86 -47 -133 -129 -133 -235 0 -60 4 -73 30 -109 16 -23 39 -46 50 -52 24 -13 26 -42 4 -60 -8 -8 -22 -29 -30 -48 -52 -125 42 -222 217 -222 67 0 68 0 84 -33 82 -174 315 -158 421 28 10 17 20 20 70 17 72 -4 141 14 159 42 35 57 24 158 -26 234 -16 24 -29 46 -29 51 0 4 9 27 21 50 40 84 38 137 -8 192 -29 34 -114 79 -151 79 -12 0 -24 6 -26 13 -24 85 -35 107 -76 148 -61 62 -148 85 -210 56z m70 -387 c0 -21 -24 -28 -35 -10 -8 14 3 30 21 30 8 0 14 -9 14 -20z m-90 -5 c0 -8 -9 -15 -20 -15 -20 0 -26 11 -13 23 12 13 33 7 33 -8z m160 -29 c0 -15 -24 -28 -34 -19 -13 14 -5 33 14 33 11 0 20 -6 20 -14z m-185 -56 c0 -22 -29 -18 -33 3 -3 14 1 18 15 15 10 -2 18 -10 18 -18z m85 5 c0 -8 -6 -15 -14 -15 -17 0 -28 14 -19 24 12 12 33 6 33 -9z m80 -20 c0 -8 -9 -15 -20 -15 -20 0 -26 11 -13 23 12 13 33 7 33 -8z m-255 -15 c0 -8 -8 -16 -17 -18 -13 -2 -18 3 -18 18 0 15 5 20 18 18 9 -2 17 -10 17 -18z m185 -53 c0 -8 -3 -17 -7 -20 -9 -9 -34 13 -27 24 8 14 34 11 34 -4z m120 -7 c0 -11 -6 -20 -14 -20 -18 0 -29 16 -21 30 11 18 35 11 35 -10z m-229 -23 c-5 -5 -17 -7 -26 -3 -14 5 -15 9 -5 21 10 12 16 13 27 4 9 -8 10 -16 4 -22z m-76 -57 c0 -22 -29 -18 -33 3 -3 14 1 18 15 15 10 -2 18 -10 18 -18z m255 6 c0 -15 -24 -28 -34 -19 -13 14 -5 33 14 33 11 0 20 -6 20 -14z m-110 -16 c0 -11 -7 -20 -15 -20 -8 0 -15 9 -15 20 0 11 7 20 15 20 8 0 15 -9 15 -20z m70 -64 c0 -8 -4 -17 -8 -20 -13 -8 -35 11 -28 23 10 16 36 14 36 -3z m-135 -17 c0 -7 -8 -15 -17 -17 -18 -3 -25 18 -11 32 10 10 28 1 28 -15z" transform="translate(0,138) scale(0.1,-0.1)" stroke="none" fill="#AAC8C7"/>

</g>

</g>
</svg>