<?xml version="1.0" standalone="no"?>
<!DOCTYPE svg PUBLIC "-//W3C//DTD SVG 20010904//EN"
 "http://www.w3.org/TR/2001/REC-SVG-20010904/DTD/svg10.dtd">
<svg version="1.0" xmlns="http://www.w3.org/2000/svg" 
width="99.000000pt" height="141.000000pt" viewBox="0 0 99.000000 141.000000"
preserveAspectRatio = "xMidYMid meet" >
<metadata>
Created by ZoeQU, 2022
</metadata>
<rect width="99.000000" height="141.000000" fill="#202031"/>
<path d="M293 383 l-32 -16 31 -24 c18 -12 44 -23 60 -23 25 0 27 2 17 24 -6 13 -21 29 -33 35 -19 10 -19 11 -1 8 10 -1 30 -18 43 -37 24 -35 49 -56 58 -47 7 7 -21 60 -39 75 -24 20 -70 22 -104 5z" transform="translate(0.000000,141.000000) scale(0.100000,-0.100000)" stroke="none" fill="#D29A5B"/>

<path d="M860 455 c0 -8 -9 -15 -19 -15 -11 0 -23 -5 -27 -12 -5 -8 0 -9 14 -6 12 4 20 2 16 -3 -3 -5 -18 -9 -34 -9 -15 0 -36 -3 -46 -7 -16 -6 -16 -7 2 -14 15 -6 12 -8 -13 -8 -30 -1 -52 -16 -40 -27 3 -3 25 -6 50 -7 25 -1 40 -5 34 -9 -7 -5 -31 -5 -54 -2 -64 9 -78 -8 -18 -23 l50 -13 -54 5 c-42 3 -59 1 -73 -12 -28 -25 -22 -32 20 -21 20 5 53 12 72 15 48 7 84 27 104 57 15 23 15 26 1 26 -13 0 -11 8 10 43 28 48 30 57 15 57 -5 0 -10 -7 -10 -15z" transform="translate(0.000000,141.000000) scale(0.100000,-0.100000)" stroke="none" fill="#D29A5B"/>

<path d="M505 589 c-14 -35 19 -195 60 -294 8 -18 7 -19 -8 -6 -13 10 -17 10 -17 1 0 -7 -7 -10 -15 -6 -8 3 -15 3 -15 0 0 -2 10 -9 23 -14 21 -8 21 -9 -5 -9 -17 -1 -43 -15 -67 -36 -53 -48 -64 -44 -16 5 21 22 33 40 27 40 -24 0 -67 -29 -112 -74 -24 -25 -48 -46 -53 -46 -14 0 85 109 105 116 20 6 15 24 -8 24 -7 0 -31 -15 -51 -34 -21 -18 -49 -39 -63 -45 -25 -12 -25 -12 -5 6 11 10 33 33 49 51 l30 32 -26 0 c-20 0 -35 -12 -62 -50 -20 -28 -41 -50 -48 -50 -6 0 -2 10 9 23 11 12 26 32 32 45 20 39 -17 27 -61 -20 -26 -28 -34 -33 -23 -15 20 32 20 31 -34 12 -53 -18 -52 -11 1 16 47 24 37 37 -15 20 -29 -10 -30 -9 -13 4 11 8 40 15 65 15 25 1 60 7 76 14 l30 13 -31 16 c-24 12 -40 14 -65 7 -31 -9 -32 -8 -15 5 40 30 -10 16 -52 -15 -39 -28 -70 -74 -86 -127 -6 -19 -4 -23 16 -23 13 0 61 -7 107 -17 70 -14 81 -18 67 -28 -15 -12 -15 -13 0 -19 8 -3 39 -6 68 -6 40 0 62 7 98 29 27 17 48 25 50 19 2 -6 25 8 52 31 60 52 84 53 113 3 24 -40 103 -139 103 -127 0 4 -10 21 -22 38 -24 32 -60 100 -108 197 -30 61 -60 168 -61 221 0 19 -4 43 -9 54 -7 18 -9 18 -15 4z" transform="translate(0.000000,141.000000) scale(0.100000,-0.100000)" stroke="none" fill="#D29A5B"/>

<path d="M490 1197 c-56 -16 -105 -45 -145 -87 -25 -26 -27 -33 -15 -41 12 -9 12 -10 -3 -5 -25 8 -49 -52 -49 -124 0 -102 62 -192 151 -219 129 -38 292 33 351 153 24 50 27 140 7 189 -45 107 -179 167 -297 134z m30 -22 c0 -8 -4 -15 -9 -15 -13 0 -22 16 -14 24 11 11 23 6 23 -9z m130 1 c0 -3 -4 -8 -10 -11 -5 -3 -10 -1 -10 4 0 6 5 11 10 11 6 0 10 -2 10 -4z m-175 -16 c3 -5 -1 -10 -9 -10 -9 0 -16 5 -16 10 0 6 4 10 9 10 6 0 13 -4 16 -10z m97 -5 c0 -5 -5 -11 -11 -13 -6 -2 -11 4 -11 13 0 9 5 15 11 13 6 -2 11 -8 11 -13z m38 5 c0 -5 -4 -10 -10 -10 -5 0 -10 5 -10 10 0 6 5 10 10 10 6 0 10 -4 10 -10z m72 -15 c0 -5 -5 -11 -11 -13 -6 -2 -11 4 -11 13 0 9 5 15 11 13 6 -2 11 -8 11 -13z m-242 -5 c0 -5 -7 -10 -15 -10 -8 0 -15 5 -15 10 0 6 7 10 15 10 8 0 15 -4 15 -10z m50 -26 c0 -8 -7 -14 -15 -14 -8 0 -15 -4 -15 -9 0 -5 -10 -12 -22 -16 -33 -11 -38 -11 -38 0 0 6 6 10 13 10 19 1 43 19 50 38 8 20 27 14 27 -9z m118 8 c2 -7 -3 -12 -12 -12 -9 0 -16 7 -16 16 0 17 22 14 28 -4z m-54 0 c9 -14 -10 -33 -27 -26 -18 6 -21 16 -10 27 9 9 31 9 37 -1z m176 -7 c0 -8 -6 -15 -14 -15 -17 0 -28 14 -19 24 12 12 33 6 33 -9z m-340 -5 c0 -5 -4 -10 -10 -10 -5 0 -10 5 -10 10 0 6 5 10 10 10 6 0 10 -4 10 -10z m270 -5 c0 -8 -6 -15 -14 -15 -17 0 -28 14 -19 24 12 12 33 6 33 -9z m-146 -24 c3 -5 -1 -14 -8 -20 -16 -13 -32 2 -21 19 8 12 22 13 29 1z m191 -9 c0 -18 -20 -15 -23 4 -3 10 1 15 10 12 7 -3 13 -10 13 -16z m60 8 c3 -6 -1 -13 -10 -16 -19 -8 -30 0 -20 15 8 14 22 14 30 1z m-385 -15 c0 -8 -7 -15 -15 -15 -8 0 -15 7 -15 15 0 8 7 15 15 15 8 0 15 -7 15 -15z m170 5 c0 -5 -4 -10 -10 -10 -5 0 -10 5 -10 10 0 6 5 10 10 10 6 0 10 -4 10 -10z m70 -3 c0 -9 -12 -14 -30 -15 -16 0 -30 4 -30 10 0 5 7 8 15 4 8 -3 15 -1 15 4 0 6 7 10 15 10 8 0 15 -6 15 -13z m-97 -32 c7 -18 -9 -29 -30 -21 -12 5 -13 9 -3 21 16 19 26 19 33 0z m140 0 c1 -5 -6 -11 -15 -13 -11 -2 -18 3 -18 13 0 17 30 18 33 0z m117 0 c0 -8 -4 -15 -10 -15 -5 0 -10 7 -10 15 0 8 5 15 10 15 6 0 10 -7 10 -15z m-442 -6 c-2 -6 -8 -10 -13 -10 -5 0 -11 4 -13 10 -2 6 4 11 13 11 9 0 15 -5 13 -11z m72 -4 c0 -8 -4 -15 -9 -15 -13 0 -22 16 -14 24 11 11 23 6 23 -9z m210 -11 c0 -8 -7 -14 -15 -14 -15 0 -21 21 -9 33 10 9 24 -2 24 -19z m90 5 c0 -5 -7 -9 -15 -9 -15 0 -20 12 -9 23 8 8 24 -1 24 -14z m-245 1 c3 -6 -1 -13 -10 -16 -19 -8 -30 0 -20 15 8 14 22 14 30 1z m110 0 c3 -5 -1 -10 -10 -10 -9 0 -13 5 -10 10 3 6 8 10 10 10 2 0 7 -4 10 -10z m165 -10 c0 -5 -4 -10 -10 -10 -5 0 -10 5 -10 10 0 6 5 10 10 10 6 0 10 -4 10 -10z m50 -21 c0 -5 -7 -9 -15 -9 -15 0 -20 12 -9 23 8 8 24 -1 24 -14z m-460 -4 c0 -8 -7 -15 -15 -15 -16 0 -20 12 -8 23 11 12 23 8 23 -8z m215 5 c4 -6 1 -18 -6 -26 -11 -13 -14 -13 -27 0 -8 8 -11 19 -8 25 9 14 33 14 41 1z m110 -1 c10 -15 -1 -23 -20 -15 -9 3 -13 10 -10 16 8 13 22 13 30 -1z m-277 -11 c-6 -18 -28 -21 -28 -4 0 9 7 16 16 16 9 0 14 -5 12 -12z m44 -3 c0 -5 -5 -11 -11 -13 -6 -2 -11 4 -11 13 0 9 5 15 11 13 6 -2 11 -8 11 -13z m64 4 c10 -17 -13 -36 -27 -22 -12 12 -4 33 11 33 5 0 12 -5 16 -11z m224 -9 c0 -11 -7 -20 -15 -20 -15 0 -21 21 -8 33 12 13 23 7 23 -13z m-94 -21 c10 -17 -13 -36 -27 -22 -12 12 -4 33 11 33 5 0 12 -5 16 -11z m174 7 c0 -3 -4 -8 -10 -11 -5 -3 -10 -1 -10 4 0 6 5 11 10 11 6 0 10 -2 10 -4z m-480 -16 c0 -5 -7 -10 -16 -10 -8 0 -12 5 -9 10 3 6 10 10 16 10 5 0 9 -4 9 -10z m40 -5 c0 -8 -4 -15 -9 -15 -13 0 -22 16 -14 24 11 11 23 6 23 -9z m50 0 c0 -8 -7 -15 -15 -15 -16 0 -20 12 -8 23 11 12 23 8 23 -8z m170 5 c0 -5 -7 -10 -15 -10 -8 0 -15 5 -15 10 0 6 7 10 15 10 8 0 15 -4 15 -10z m100 -11 c0 -5 -7 -9 -15 -9 -8 0 -15 7 -15 15 0 9 6 12 15 9 8 -4 15 -10 15 -15z m80 11 c0 -5 -7 -10 -15 -10 -8 0 -15 5 -15 10 0 6 7 10 15 10 8 0 15 -4 15 -10z m-292 -18 c2 -7 -6 -12 -17 -12 -21 0 -27 11 -14 24 9 9 26 2 31 -12z m52 -7 c0 -8 -7 -15 -15 -15 -8 0 -15 7 -15 15 0 8 7 15 15 15 8 0 15 -7 15 -15z m200 5 c0 -5 -7 -10 -15 -10 -8 0 -15 5 -15 10 0 6 7 10 15 10 8 0 15 -4 15 -10z m-398 -25 c0 -5 -5 -11 -11 -13 -6 -2 -11 4 -11 13 0 9 5 15 11 13 6 -2 11 -8 11 -13z m258 0 c0 -8 -9 -15 -20 -15 -11 0 -20 7 -20 15 0 8 9 15 20 15 11 0 20 -7 20 -15z m-215 -25 c-5 -8 -11 -8 -17 -2 -6 6 -7 16 -3 22 5 8 11 8 17 2 6 -6 7 -16 3 -22z m53 13 c-4 -22 -22 -20 -26 1 -2 10 3 16 13 16 10 0 15 -7 13 -17z m217 -3 c0 -22 -29 -18 -33 3 -3 14 1 18 15 15 10 -2 18 -10 18 -18z m-168 -16 c-9 -9 -28 6 -21 18 4 6 10 6 17 -1 6 -6 8 -13 4 -17z m213 16 c0 -5 -4 -10 -10 -10 -5 0 -10 5 -10 10 0 6 5 10 10 10 6 0 10 -4 10 -10z m40 0 c0 -5 -4 -10 -10 -10 -5 0 -10 5 -10 10 0 6 5 10 10 10 6 0 10 -4 10 -10z m50 -5 c0 -8 -7 -15 -15 -15 -8 0 -15 7 -15 15 0 8 7 15 15 15 8 0 15 -7 15 -15z m-250 -26 c0 -5 -7 -9 -15 -9 -15 0 -20 12 -9 23 8 8 24 -1 24 -14z m56 0 c10 -17 -13 -36 -27 -22 -12 12 -4 33 11 33 5 0 12 -5 16 -11z m-226 -9 c0 -5 -7 -10 -16 -10 -8 0 -12 5 -9 10 3 6 10 10 16 10 5 0 9 -4 9 -10z m50 -11 c0 -5 -7 -9 -15 -9 -15 0 -20 12 -9 23 8 8 24 -1 24 -14z m40 6 c0 -8 -4 -15 -9 -15 -13 0 -22 16 -14 24 11 11 23 6 23 -9z m225 6 c7 -12 -12 -24 -25 -16 -11 7 -4 25 10 25 5 0 11 -4 15 -9z m45 -1 c0 -5 -4 -10 -10 -10 -5 0 -10 5 -10 10 0 6 5 10 10 10 6 0 10 -4 10 -10z m40 0 c0 -5 -4 -10 -10 -10 -5 0 -10 5 -10 10 0 6 5 10 10 10 6 0 10 -4 10 -10z m-225 -30 c3 -6 -1 -13 -10 -16 -19 -8 -30 0 -20 15 8 14 22 14 30 1z m91 -1 c10 -17 -13 -36 -27 -22 -12 12 -4 33 11 33 5 0 12 -5 16 -11z m109 1 c3 -5 1 -10 -4 -10 -6 0 -11 5 -11 10 0 6 2 10 4 10 3 0 8 -4 11 -10z m-247 -18 c2 -7 -3 -12 -12 -12 -9 0 -16 7 -16 16 0 17 22 14 28 -4z m172 8 c0 -5 -4 -10 -10 -10 -5 0 -10 5 -10 10 0 6 5 10 10 10 6 0 10 -4 10 -10z m40 -11 c0 -5 -7 -9 -15 -9 -15 0 -20 12 -9 23 8 8 24 -1 24 -14z m-309 -2 c-1 -12 -15 -9 -19 4 -3 6 1 10 8 8 6 -3 11 -8 11 -12z m189 3 c0 -5 -7 -10 -15 -10 -8 0 -15 5 -15 10 0 6 7 10 15 10 8 0 15 -4 15 -10z m-140 -25 c0 -8 -7 -15 -15 -15 -8 0 -15 7 -15 15 0 8 7 15 15 15 8 0 15 -7 15 -15z m90 0 c0 -8 -4 -15 -9 -15 -13 0 -22 16 -14 24 11 11 23 6 23 -9z m135 6 c7 -12 -12 -24 -25 -16 -11 7 -4 25 10 25 5 0 11 -4 15 -9z m-55 -27 c0 -8 -7 -14 -15 -14 -15 0 -21 21 -9 33 10 9 24 -2 24 -19z m-120 1 c0 -8 -7 -15 -15 -15 -8 0 -15 7 -15 15 0 8 7 15 15 15 8 0 15 -7 15 -15z m70 -10 c0 -8 -4 -15 -9 -15 -13 0 -22 16 -14 24 11 11 23 6 23 -9z" transform="translate(0.000000,141.000000) scale(0.100000,-0.100000)" stroke="none" fill="#D29A5B"/>

<path d="M605 1335 c-38 -13 -68 -40 -77 -67 -3 -8 -16 -3 -37 15 -18 15 -44 27 -59 27 -35 -1 -99 -30 -141 -65 -30 -26 -32 -32 -27 -66 l6 -38 -48 6 c-42 5 -52 2 -79 -21 -75 -63 -87 -262 -19 -325 21 -20 33 -22 90 -19 36 1 66 2 66 2 0 -1 -7 -18 -15 -37 -31 -75 -12 -129 64 -176 89 -54 139 -54 167 2 l17 32 9 -28 c12 -33 42 -42 95 -28 47 13 73 38 77 77 3 27 7 29 42 27 59 -4 100 14 142 62 41 46 60 95 68 173 6 59 -20 106 -71 128 -19 8 -35 18 -35 22 0 5 14 21 30 37 51 49 32 125 -49 198 -75 68 -145 88 -216 62z m71 -157 c87 -40 128 -115 122 -220 -3 -55 -9 -75 -34 -110 -21 -29 -37 -42 -50 -40 -14 2 -16 0 -6 -6 34 -23 -113 -92 -195 -92 -62 0 -115 17 -156 51 -42 34 -80 112 -75 150 3 15 1 26 -3 23 -11 -6 1 64 17 104 9 21 18 31 25 26 8 -5 9 -3 4 5 -4 8 4 24 21 43 89 92 219 119 330 66z" transform="translate(0.000000,141.000000) scale(0.100000,-0.100000)" stroke="none" fill="#903F12"/>

</svg>