<?xml version="1.0" standalone="no"?>
<!DOCTYPE svg PUBLIC "-//W3C//DTD SVG 20010904//EN"
 "http://www.w3.org/TR/2001/REC-SVG-20010904/DTD/svg10.dtd">
<svg version="1.0" xmlns="http://www.w3.org/2000/svg" width="520pt" height="512pt" viewBox="0 0 520 512" preserveAspectRatio = "xMidYMid meet" >
<metadata>
Created by ZoeQu, written in 2022
</metadata>
<rect width="520" height="512" fill="#A8D6DA"/>
<g id="row0" transform="translate(17,0.0)">
<g id="0" transform="translate(0.0,0)scale(1,1)">

<path d="M546 1150 c-14 -50 -17 -103 -15 -325 1 -280 1 -286 -46 -306 -21 -10 -24 -11 -125 -76 -59 -38 -190 -153 -190 -167 0 -3 -16 -26 -35 -52 -19 -25 -35 -52 -35 -59 0 -8 -6 -18 -13 -22 -13 -8 -67 -115 -67 -133 0 -17 29 -11 70 15 22 14 43 25 48 25 4 0 23 13 42 30 19 16 43 29 52 30 9 0 19 4 22 9 3 5 30 25 58 44 29 19 67 47 83 61 45 40 52 45 89 67 19 11 37 26 40 34 13 36 23 8 30 -82 7 -115 14 -143 32 -143 14 0 37 34 28 42 -6 7 -25 240 -20 246 12 11 65 -12 76 -34 18 -32 172 -106 262 -125 29 -6 62 -15 73 -19 11 -5 56 -12 100 -15 44 -3 94 -8 110 -11 17 -2 37 0 45 5 12 8 8 16 -25 46 -22 20 -60 48 -85 63 -25 14 -64 41 -86 59 -43 35 -175 93 -258 114 -25 6 -49 15 -52 20 -3 5 -15 9 -27 9 -29 0 -108 30 -130 49 -17 15 -18 36 -16 335 3 336 -3 380 -35 266z" transform="translate(0,128) scale(0.1,-0.1)" stroke="none" fill="#93822A"/>

</g>

<g id="1" transform="translate(130.0,0)scale(1,1)">

<path d="M546 1150 c-14 -50 -17 -103 -15 -325 1 -280 1 -286 -46 -306 -21 -10 -24 -11 -125 -76 -59 -38 -190 -153 -190 -167 0 -3 -16 -26 -35 -52 -19 -25 -35 -52 -35 -59 0 -8 -6 -18 -13 -22 -13 -8 -67 -115 -67 -133 0 -17 29 -11 70 15 22 14 43 25 48 25 4 0 23 13 42 30 19 16 43 29 52 30 9 0 19 4 22 9 3 5 30 25 58 44 29 19 67 47 83 61 45 40 52 45 89 67 19 11 37 26 40 34 13 36 23 8 30 -82 7 -115 14 -143 32 -143 14 0 37 34 28 42 -6 7 -25 240 -20 246 12 11 65 -12 76 -34 18 -32 172 -106 262 -125 29 -6 62 -15 73 -19 11 -5 56 -12 100 -15 44 -3 94 -8 110 -11 17 -2 37 0 45 5 12 8 8 16 -25 46 -22 20 -60 48 -85 63 -25 14 -64 41 -86 59 -43 35 -175 93 -258 114 -25 6 -49 15 -52 20 -3 5 -15 9 -27 9 -29 0 -108 30 -130 49 -17 15 -18 36 -16 335 3 336 -3 380 -35 266z" transform="translate(0,128) scale(0.1,-0.1)" stroke="none" fill="#93822A"/>

</g>

<g id="2" transform="translate(260.0,0)scale(1,1)">

<path d="M546 1150 c-14 -50 -17 -103 -15 -325 1 -280 1 -286 -46 -306 -21 -10 -24 -11 -125 -76 -59 -38 -190 -153 -190 -167 0 -3 -16 -26 -35 -52 -19 -25 -35 -52 -35 -59 0 -8 -6 -18 -13 -22 -13 -8 -67 -115 -67 -133 0 -17 29 -11 70 15 22 14 43 25 48 25 4 0 23 13 42 30 19 16 43 29 52 30 9 0 19 4 22 9 3 5 30 25 58 44 29 19 67 47 83 61 45 40 52 45 89 67 19 11 37 26 40 34 13 36 23 8 30 -82 7 -115 14 -143 32 -143 14 0 37 34 28 42 -6 7 -25 240 -20 246 12 11 65 -12 76 -34 18 -32 172 -106 262 -125 29 -6 62 -15 73 -19 11 -5 56 -12 100 -15 44 -3 94 -8 110 -11 17 -2 37 0 45 5 12 8 8 16 -25 46 -22 20 -60 48 -85 63 -25 14 -64 41 -86 59 -43 35 -175 93 -258 114 -25 6 -49 15 -52 20 -3 5 -15 9 -27 9 -29 0 -108 30 -130 49 -17 15 -18 36 -16 335 3 336 -3 380 -35 266z" transform="translate(0,128) scale(0.1,-0.1)" stroke="none" fill="#93822A"/>

</g>

<g id="3" transform="translate(390.0,0)scale(1,1)">

<path d="M546 1150 c-14 -50 -17 -103 -15 -325 1 -280 1 -286 -46 -306 -21 -10 -24 -11 -125 -76 -59 -38 -190 -153 -190 -167 0 -3 -16 -26 -35 -52 -19 -25 -35 -52 -35 -59 0 -8 -6 -18 -13 -22 -13 -8 -67 -115 -67 -133 0 -17 29 -11 70 15 22 14 43 25 48 25 4 0 23 13 42 30 19 16 43 29 52 30 9 0 19 4 22 9 3 5 30 25 58 44 29 19 67 47 83 61 45 40 52 45 89 67 19 11 37 26 40 34 13 36 23 8 30 -82 7 -115 14 -143 32 -143 14 0 37 34 28 42 -6 7 -25 240 -20 246 12 11 65 -12 76 -34 18 -32 172 -106 262 -125 29 -6 62 -15 73 -19 11 -5 56 -12 100 -15 44 -3 94 -8 110 -11 17 -2 37 0 45 5 12 8 8 16 -25 46 -22 20 -60 48 -85 63 -25 14 -64 41 -86 59 -43 35 -175 93 -258 114 -25 6 -49 15 -52 20 -3 5 -15 9 -27 9 -29 0 -108 30 -130 49 -17 15 -18 36 -16 335 3 336 -3 380 -35 266z" transform="translate(0,128) scale(0.1,-0.1)" stroke="none" fill="#93822A"/>

</g>

<g id="4" transform="translate(520.0,0)scale(1,1)">

<path d="M546 1150 c-14 -50 -17 -103 -15 -325 1 -280 1 -286 -46 -306 -21 -10 -24 -11 -125 -76 -59 -38 -190 -153 -190 -167 0 -3 -16 -26 -35 -52 -19 -25 -35 -52 -35 -59 0 -8 -6 -18 -13 -22 -13 -8 -67 -115 -67 -133 0 -17 29 -11 70 15 22 14 43 25 48 25 4 0 23 13 42 30 19 16 43 29 52 30 9 0 19 4 22 9 3 5 30 25 58 44 29 19 67 47 83 61 45 40 52 45 89 67 19 11 37 26 40 34 13 36 23 8 30 -82 7 -115 14 -143 32 -143 14 0 37 34 28 42 -6 7 -25 240 -20 246 12 11 65 -12 76 -34 18 -32 172 -106 262 -125 29 -6 62 -15 73 -19 11 -5 56 -12 100 -15 44 -3 94 -8 110 -11 17 -2 37 0 45 5 12 8 8 16 -25 46 -22 20 -60 48 -85 63 -25 14 -64 41 -86 59 -43 35 -175 93 -258 114 -25 6 -49 15 -52 20 -3 5 -15 9 -27 9 -29 0 -108 30 -130 49 -17 15 -18 36 -16 335 3 336 -3 380 -35 266z" transform="translate(0,128) scale(0.1,-0.1)" stroke="none" fill="#93822A"/>

</g>

</g>
<g id="row1" transform="translate(17,128.0)">
<g id="0" transform="translate(0.0,0)scale(1,1)">

<path d="M546 1150 c-14 -50 -17 -103 -15 -325 1 -280 1 -286 -46 -306 -21 -10 -24 -11 -125 -76 -59 -38 -190 -153 -190 -167 0 -3 -16 -26 -35 -52 -19 -25 -35 -52 -35 -59 0 -8 -6 -18 -13 -22 -13 -8 -67 -115 -67 -133 0 -17 29 -11 70 15 22 14 43 25 48 25 4 0 23 13 42 30 19 16 43 29 52 30 9 0 19 4 22 9 3 5 30 25 58 44 29 19 67 47 83 61 45 40 52 45 89 67 19 11 37 26 40 34 13 36 23 8 30 -82 7 -115 14 -143 32 -143 14 0 37 34 28 42 -6 7 -25 240 -20 246 12 11 65 -12 76 -34 18 -32 172 -106 262 -125 29 -6 62 -15 73 -19 11 -5 56 -12 100 -15 44 -3 94 -8 110 -11 17 -2 37 0 45 5 12 8 8 16 -25 46 -22 20 -60 48 -85 63 -25 14 -64 41 -86 59 -43 35 -175 93 -258 114 -25 6 -49 15 -52 20 -3 5 -15 9 -27 9 -29 0 -108 30 -130 49 -17 15 -18 36 -16 335 3 336 -3 380 -35 266z" transform="translate(0,128) scale(0.1,-0.1)" stroke="none" fill="#93822A"/>

</g>

<g id="1" transform="translate(130.0,0)scale(1,1)">

<path d="M546 1150 c-14 -50 -17 -103 -15 -325 1 -280 1 -286 -46 -306 -21 -10 -24 -11 -125 -76 -59 -38 -190 -153 -190 -167 0 -3 -16 -26 -35 -52 -19 -25 -35 -52 -35 -59 0 -8 -6 -18 -13 -22 -13 -8 -67 -115 -67 -133 0 -17 29 -11 70 15 22 14 43 25 48 25 4 0 23 13 42 30 19 16 43 29 52 30 9 0 19 4 22 9 3 5 30 25 58 44 29 19 67 47 83 61 45 40 52 45 89 67 19 11 37 26 40 34 13 36 23 8 30 -82 7 -115 14 -143 32 -143 14 0 37 34 28 42 -6 7 -25 240 -20 246 12 11 65 -12 76 -34 18 -32 172 -106 262 -125 29 -6 62 -15 73 -19 11 -5 56 -12 100 -15 44 -3 94 -8 110 -11 17 -2 37 0 45 5 12 8 8 16 -25 46 -22 20 -60 48 -85 63 -25 14 -64 41 -86 59 -43 35 -175 93 -258 114 -25 6 -49 15 -52 20 -3 5 -15 9 -27 9 -29 0 -108 30 -130 49 -17 15 -18 36 -16 335 3 336 -3 380 -35 266z" transform="translate(0,128) scale(0.1,-0.1)" stroke="none" fill="#93822A"/>

</g>

<g id="2" transform="translate(260.0,0)scale(1,1)">

<path d="M546 1150 c-14 -50 -17 -103 -15 -325 1 -280 1 -286 -46 -306 -21 -10 -24 -11 -125 -76 -59 -38 -190 -153 -190 -167 0 -3 -16 -26 -35 -52 -19 -25 -35 -52 -35 -59 0 -8 -6 -18 -13 -22 -13 -8 -67 -115 -67 -133 0 -17 29 -11 70 15 22 14 43 25 48 25 4 0 23 13 42 30 19 16 43 29 52 30 9 0 19 4 22 9 3 5 30 25 58 44 29 19 67 47 83 61 45 40 52 45 89 67 19 11 37 26 40 34 13 36 23 8 30 -82 7 -115 14 -143 32 -143 14 0 37 34 28 42 -6 7 -25 240 -20 246 12 11 65 -12 76 -34 18 -32 172 -106 262 -125 29 -6 62 -15 73 -19 11 -5 56 -12 100 -15 44 -3 94 -8 110 -11 17 -2 37 0 45 5 12 8 8 16 -25 46 -22 20 -60 48 -85 63 -25 14 -64 41 -86 59 -43 35 -175 93 -258 114 -25 6 -49 15 -52 20 -3 5 -15 9 -27 9 -29 0 -108 30 -130 49 -17 15 -18 36 -16 335 3 336 -3 380 -35 266z" transform="translate(0,128) scale(0.1,-0.1)" stroke="none" fill="#93822A"/>

</g>

<g id="3" transform="translate(390.0,0)scale(1,1)">

<path d="M546 1150 c-14 -50 -17 -103 -15 -325 1 -280 1 -286 -46 -306 -21 -10 -24 -11 -125 -76 -59 -38 -190 -153 -190 -167 0 -3 -16 -26 -35 -52 -19 -25 -35 -52 -35 -59 0 -8 -6 -18 -13 -22 -13 -8 -67 -115 -67 -133 0 -17 29 -11 70 15 22 14 43 25 48 25 4 0 23 13 42 30 19 16 43 29 52 30 9 0 19 4 22 9 3 5 30 25 58 44 29 19 67 47 83 61 45 40 52 45 89 67 19 11 37 26 40 34 13 36 23 8 30 -82 7 -115 14 -143 32 -143 14 0 37 34 28 42 -6 7 -25 240 -20 246 12 11 65 -12 76 -34 18 -32 172 -106 262 -125 29 -6 62 -15 73 -19 11 -5 56 -12 100 -15 44 -3 94 -8 110 -11 17 -2 37 0 45 5 12 8 8 16 -25 46 -22 20 -60 48 -85 63 -25 14 -64 41 -86 59 -43 35 -175 93 -258 114 -25 6 -49 15 -52 20 -3 5 -15 9 -27 9 -29 0 -108 30 -130 49 -17 15 -18 36 -16 335 3 336 -3 380 -35 266z" transform="translate(0,128) scale(0.1,-0.1)" stroke="none" fill="#93822A"/>

</g>

<g id="4" transform="translate(520.0,0)scale(1,1)">

<path d="M546 1150 c-14 -50 -17 -103 -15 -325 1 -280 1 -286 -46 -306 -21 -10 -24 -11 -125 -76 -59 -38 -190 -153 -190 -167 0 -3 -16 -26 -35 -52 -19 -25 -35 -52 -35 -59 0 -8 -6 -18 -13 -22 -13 -8 -67 -115 -67 -133 0 -17 29 -11 70 15 22 14 43 25 48 25 4 0 23 13 42 30 19 16 43 29 52 30 9 0 19 4 22 9 3 5 30 25 58 44 29 19 67 47 83 61 45 40 52 45 89 67 19 11 37 26 40 34 13 36 23 8 30 -82 7 -115 14 -143 32 -143 14 0 37 34 28 42 -6 7 -25 240 -20 246 12 11 65 -12 76 -34 18 -32 172 -106 262 -125 29 -6 62 -15 73 -19 11 -5 56 -12 100 -15 44 -3 94 -8 110 -11 17 -2 37 0 45 5 12 8 8 16 -25 46 -22 20 -60 48 -85 63 -25 14 -64 41 -86 59 -43 35 -175 93 -258 114 -25 6 -49 15 -52 20 -3 5 -15 9 -27 9 -29 0 -108 30 -130 49 -17 15 -18 36 -16 335 3 336 -3 380 -35 266z" transform="translate(0,128) scale(0.1,-0.1)" stroke="none" fill="#93822A"/>

</g>

</g>
<g id="row2" transform="translate(17,256.0)">
<g id="0" transform="translate(0.0,0)scale(1,1)">

<path d="M546 1150 c-14 -50 -17 -103 -15 -325 1 -280 1 -286 -46 -306 -21 -10 -24 -11 -125 -76 -59 -38 -190 -153 -190 -167 0 -3 -16 -26 -35 -52 -19 -25 -35 -52 -35 -59 0 -8 -6 -18 -13 -22 -13 -8 -67 -115 -67 -133 0 -17 29 -11 70 15 22 14 43 25 48 25 4 0 23 13 42 30 19 16 43 29 52 30 9 0 19 4 22 9 3 5 30 25 58 44 29 19 67 47 83 61 45 40 52 45 89 67 19 11 37 26 40 34 13 36 23 8 30 -82 7 -115 14 -143 32 -143 14 0 37 34 28 42 -6 7 -25 240 -20 246 12 11 65 -12 76 -34 18 -32 172 -106 262 -125 29 -6 62 -15 73 -19 11 -5 56 -12 100 -15 44 -3 94 -8 110 -11 17 -2 37 0 45 5 12 8 8 16 -25 46 -22 20 -60 48 -85 63 -25 14 -64 41 -86 59 -43 35 -175 93 -258 114 -25 6 -49 15 -52 20 -3 5 -15 9 -27 9 -29 0 -108 30 -130 49 -17 15 -18 36 -16 335 3 336 -3 380 -35 266z" transform="translate(0,128) scale(0.1,-0.1)" stroke="none" fill="#93822A"/>

</g>

<g id="1" transform="translate(130.0,0)scale(1,1)">

<path d="M546 1150 c-14 -50 -17 -103 -15 -325 1 -280 1 -286 -46 -306 -21 -10 -24 -11 -125 -76 -59 -38 -190 -153 -190 -167 0 -3 -16 -26 -35 -52 -19 -25 -35 -52 -35 -59 0 -8 -6 -18 -13 -22 -13 -8 -67 -115 -67 -133 0 -17 29 -11 70 15 22 14 43 25 48 25 4 0 23 13 42 30 19 16 43 29 52 30 9 0 19 4 22 9 3 5 30 25 58 44 29 19 67 47 83 61 45 40 52 45 89 67 19 11 37 26 40 34 13 36 23 8 30 -82 7 -115 14 -143 32 -143 14 0 37 34 28 42 -6 7 -25 240 -20 246 12 11 65 -12 76 -34 18 -32 172 -106 262 -125 29 -6 62 -15 73 -19 11 -5 56 -12 100 -15 44 -3 94 -8 110 -11 17 -2 37 0 45 5 12 8 8 16 -25 46 -22 20 -60 48 -85 63 -25 14 -64 41 -86 59 -43 35 -175 93 -258 114 -25 6 -49 15 -52 20 -3 5 -15 9 -27 9 -29 0 -108 30 -130 49 -17 15 -18 36 -16 335 3 336 -3 380 -35 266z" transform="translate(0,128) scale(0.1,-0.1)" stroke="none" fill="#93822A"/>

</g>

<g id="2" transform="translate(260.0,0)scale(1,1)">

<path d="M546 1150 c-14 -50 -17 -103 -15 -325 1 -280 1 -286 -46 -306 -21 -10 -24 -11 -125 -76 -59 -38 -190 -153 -190 -167 0 -3 -16 -26 -35 -52 -19 -25 -35 -52 -35 -59 0 -8 -6 -18 -13 -22 -13 -8 -67 -115 -67 -133 0 -17 29 -11 70 15 22 14 43 25 48 25 4 0 23 13 42 30 19 16 43 29 52 30 9 0 19 4 22 9 3 5 30 25 58 44 29 19 67 47 83 61 45 40 52 45 89 67 19 11 37 26 40 34 13 36 23 8 30 -82 7 -115 14 -143 32 -143 14 0 37 34 28 42 -6 7 -25 240 -20 246 12 11 65 -12 76 -34 18 -32 172 -106 262 -125 29 -6 62 -15 73 -19 11 -5 56 -12 100 -15 44 -3 94 -8 110 -11 17 -2 37 0 45 5 12 8 8 16 -25 46 -22 20 -60 48 -85 63 -25 14 -64 41 -86 59 -43 35 -175 93 -258 114 -25 6 -49 15 -52 20 -3 5 -15 9 -27 9 -29 0 -108 30 -130 49 -17 15 -18 36 -16 335 3 336 -3 380 -35 266z" transform="translate(0,128) scale(0.1,-0.1)" stroke="none" fill="#93822A"/>

</g>

<g id="3" transform="translate(390.0,0)scale(1,1)">

<path d="M546 1150 c-14 -50 -17 -103 -15 -325 1 -280 1 -286 -46 -306 -21 -10 -24 -11 -125 -76 -59 -38 -190 -153 -190 -167 0 -3 -16 -26 -35 -52 -19 -25 -35 -52 -35 -59 0 -8 -6 -18 -13 -22 -13 -8 -67 -115 -67 -133 0 -17 29 -11 70 15 22 14 43 25 48 25 4 0 23 13 42 30 19 16 43 29 52 30 9 0 19 4 22 9 3 5 30 25 58 44 29 19 67 47 83 61 45 40 52 45 89 67 19 11 37 26 40 34 13 36 23 8 30 -82 7 -115 14 -143 32 -143 14 0 37 34 28 42 -6 7 -25 240 -20 246 12 11 65 -12 76 -34 18 -32 172 -106 262 -125 29 -6 62 -15 73 -19 11 -5 56 -12 100 -15 44 -3 94 -8 110 -11 17 -2 37 0 45 5 12 8 8 16 -25 46 -22 20 -60 48 -85 63 -25 14 -64 41 -86 59 -43 35 -175 93 -258 114 -25 6 -49 15 -52 20 -3 5 -15 9 -27 9 -29 0 -108 30 -130 49 -17 15 -18 36 -16 335 3 336 -3 380 -35 266z" transform="translate(0,128) scale(0.1,-0.1)" stroke="none" fill="#93822A"/>

</g>

<g id="4" transform="translate(520.0,0)scale(1,1)">

<path d="M546 1150 c-14 -50 -17 -103 -15 -325 1 -280 1 -286 -46 -306 -21 -10 -24 -11 -125 -76 -59 -38 -190 -153 -190 -167 0 -3 -16 -26 -35 -52 -19 -25 -35 -52 -35 -59 0 -8 -6 -18 -13 -22 -13 -8 -67 -115 -67 -133 0 -17 29 -11 70 15 22 14 43 25 48 25 4 0 23 13 42 30 19 16 43 29 52 30 9 0 19 4 22 9 3 5 30 25 58 44 29 19 67 47 83 61 45 40 52 45 89 67 19 11 37 26 40 34 13 36 23 8 30 -82 7 -115 14 -143 32 -143 14 0 37 34 28 42 -6 7 -25 240 -20 246 12 11 65 -12 76 -34 18 -32 172 -106 262 -125 29 -6 62 -15 73 -19 11 -5 56 -12 100 -15 44 -3 94 -8 110 -11 17 -2 37 0 45 5 12 8 8 16 -25 46 -22 20 -60 48 -85 63 -25 14 -64 41 -86 59 -43 35 -175 93 -258 114 -25 6 -49 15 -52 20 -3 5 -15 9 -27 9 -29 0 -108 30 -130 49 -17 15 -18 36 -16 335 3 336 -3 380 -35 266z" transform="translate(0,128) scale(0.1,-0.1)" stroke="none" fill="#93822A"/>

</g>

</g>
<g id="row3" transform="translate(17,384.0)">
<g id="0" transform="translate(0.0,0)scale(1,1)">

<path d="M546 1150 c-14 -50 -17 -103 -15 -325 1 -280 1 -286 -46 -306 -21 -10 -24 -11 -125 -76 -59 -38 -190 -153 -190 -167 0 -3 -16 -26 -35 -52 -19 -25 -35 -52 -35 -59 0 -8 -6 -18 -13 -22 -13 -8 -67 -115 -67 -133 0 -17 29 -11 70 15 22 14 43 25 48 25 4 0 23 13 42 30 19 16 43 29 52 30 9 0 19 4 22 9 3 5 30 25 58 44 29 19 67 47 83 61 45 40 52 45 89 67 19 11 37 26 40 34 13 36 23 8 30 -82 7 -115 14 -143 32 -143 14 0 37 34 28 42 -6 7 -25 240 -20 246 12 11 65 -12 76 -34 18 -32 172 -106 262 -125 29 -6 62 -15 73 -19 11 -5 56 -12 100 -15 44 -3 94 -8 110 -11 17 -2 37 0 45 5 12 8 8 16 -25 46 -22 20 -60 48 -85 63 -25 14 -64 41 -86 59 -43 35 -175 93 -258 114 -25 6 -49 15 -52 20 -3 5 -15 9 -27 9 -29 0 -108 30 -130 49 -17 15 -18 36 -16 335 3 336 -3 380 -35 266z" transform="translate(0,128) scale(0.1,-0.1)" stroke="none" fill="#93822A"/>

</g>

<g id="1" transform="translate(130.0,0)scale(1,1)">

<path d="M546 1150 c-14 -50 -17 -103 -15 -325 1 -280 1 -286 -46 -306 -21 -10 -24 -11 -125 -76 -59 -38 -190 -153 -190 -167 0 -3 -16 -26 -35 -52 -19 -25 -35 -52 -35 -59 0 -8 -6 -18 -13 -22 -13 -8 -67 -115 -67 -133 0 -17 29 -11 70 15 22 14 43 25 48 25 4 0 23 13 42 30 19 16 43 29 52 30 9 0 19 4 22 9 3 5 30 25 58 44 29 19 67 47 83 61 45 40 52 45 89 67 19 11 37 26 40 34 13 36 23 8 30 -82 7 -115 14 -143 32 -143 14 0 37 34 28 42 -6 7 -25 240 -20 246 12 11 65 -12 76 -34 18 -32 172 -106 262 -125 29 -6 62 -15 73 -19 11 -5 56 -12 100 -15 44 -3 94 -8 110 -11 17 -2 37 0 45 5 12 8 8 16 -25 46 -22 20 -60 48 -85 63 -25 14 -64 41 -86 59 -43 35 -175 93 -258 114 -25 6 -49 15 -52 20 -3 5 -15 9 -27 9 -29 0 -108 30 -130 49 -17 15 -18 36 -16 335 3 336 -3 380 -35 266z" transform="translate(0,128) scale(0.1,-0.1)" stroke="none" fill="#93822A"/>

</g>

<g id="2" transform="translate(260.0,0)scale(1,1)">

<path d="M546 1150 c-14 -50 -17 -103 -15 -325 1 -280 1 -286 -46 -306 -21 -10 -24 -11 -125 -76 -59 -38 -190 -153 -190 -167 0 -3 -16 -26 -35 -52 -19 -25 -35 -52 -35 -59 0 -8 -6 -18 -13 -22 -13 -8 -67 -115 -67 -133 0 -17 29 -11 70 15 22 14 43 25 48 25 4 0 23 13 42 30 19 16 43 29 52 30 9 0 19 4 22 9 3 5 30 25 58 44 29 19 67 47 83 61 45 40 52 45 89 67 19 11 37 26 40 34 13 36 23 8 30 -82 7 -115 14 -143 32 -143 14 0 37 34 28 42 -6 7 -25 240 -20 246 12 11 65 -12 76 -34 18 -32 172 -106 262 -125 29 -6 62 -15 73 -19 11 -5 56 -12 100 -15 44 -3 94 -8 110 -11 17 -2 37 0 45 5 12 8 8 16 -25 46 -22 20 -60 48 -85 63 -25 14 -64 41 -86 59 -43 35 -175 93 -258 114 -25 6 -49 15 -52 20 -3 5 -15 9 -27 9 -29 0 -108 30 -130 49 -17 15 -18 36 -16 335 3 336 -3 380 -35 266z" transform="translate(0,128) scale(0.1,-0.1)" stroke="none" fill="#93822A"/>

</g>

<g id="3" transform="translate(390.0,0)scale(1,1)">

<path d="M546 1150 c-14 -50 -17 -103 -15 -325 1 -280 1 -286 -46 -306 -21 -10 -24 -11 -125 -76 -59 -38 -190 -153 -190 -167 0 -3 -16 -26 -35 -52 -19 -25 -35 -52 -35 -59 0 -8 -6 -18 -13 -22 -13 -8 -67 -115 -67 -133 0 -17 29 -11 70 15 22 14 43 25 48 25 4 0 23 13 42 30 19 16 43 29 52 30 9 0 19 4 22 9 3 5 30 25 58 44 29 19 67 47 83 61 45 40 52 45 89 67 19 11 37 26 40 34 13 36 23 8 30 -82 7 -115 14 -143 32 -143 14 0 37 34 28 42 -6 7 -25 240 -20 246 12 11 65 -12 76 -34 18 -32 172 -106 262 -125 29 -6 62 -15 73 -19 11 -5 56 -12 100 -15 44 -3 94 -8 110 -11 17 -2 37 0 45 5 12 8 8 16 -25 46 -22 20 -60 48 -85 63 -25 14 -64 41 -86 59 -43 35 -175 93 -258 114 -25 6 -49 15 -52 20 -3 5 -15 9 -27 9 -29 0 -108 30 -130 49 -17 15 -18 36 -16 335 3 336 -3 380 -35 266z" transform="translate(0,128) scale(0.1,-0.1)" stroke="none" fill="#93822A"/>

</g>

<g id="4" transform="translate(520.0,0)scale(1,1)">

<path d="M546 1150 c-14 -50 -17 -103 -15 -325 1 -280 1 -286 -46 -306 -21 -10 -24 -11 -125 -76 -59 -38 -190 -153 -190 -167 0 -3 -16 -26 -35 -52 -19 -25 -35 -52 -35 -59 0 -8 -6 -18 -13 -22 -13 -8 -67 -115 -67 -133 0 -17 29 -11 70 15 22 14 43 25 48 25 4 0 23 13 42 30 19 16 43 29 52 30 9 0 19 4 22 9 3 5 30 25 58 44 29 19 67 47 83 61 45 40 52 45 89 67 19 11 37 26 40 34 13 36 23 8 30 -82 7 -115 14 -143 32 -143 14 0 37 34 28 42 -6 7 -25 240 -20 246 12 11 65 -12 76 -34 18 -32 172 -106 262 -125 29 -6 62 -15 73 -19 11 -5 56 -12 100 -15 44 -3 94 -8 110 -11 17 -2 37 0 45 5 12 8 8 16 -25 46 -22 20 -60 48 -85 63 -25 14 -64 41 -86 59 -43 35 -175 93 -258 114 -25 6 -49 15 -52 20 -3 5 -15 9 -27 9 -29 0 -108 30 -130 49 -17 15 -18 36 -16 335 3 336 -3 380 -35 266z" transform="translate(0,128) scale(0.1,-0.1)" stroke="none" fill="#93822A"/>

</g>

</g>
</svg>