<?xml version="1.0" standalone="no"?>
<!DOCTYPE svg PUBLIC "-//W3C//DTD SVG 20010904//EN"
 "http://www.w3.org/TR/2001/REC-SVG-20010904/DTD/svg10.dtd">
<svg version="1.0" xmlns="http://www.w3.org/2000/svg" width="664pt" height="736pt" viewBox="0 0 664 736" preserveAspectRatio = "xMidYMid meet" >
<metadata>
Created by ZoeQu, written in 2022
</metadata>
<rect width="664" height="736" fill="#167F79"/>
<g id="row0" transform="translate(22,0.0)">
<g id="0" transform="translate(0.0,0)scale(1,1)">

<path d="M395 1731 l-70 -6 0 -55 c0 -56 4 -106 30 -485 23 -323 27 -359 34 -367 7 -8 325 27 360 40 26 9 41 -6 -141 147 -38 31 -68 60 -68 65 0 4 41 29 90 54 50 26 90 51 90 56 0 5 -52 35 -115 66 -63 32 -115 60 -115 63 0 3 28 21 63 40 85 46 157 92 157 100 0 4 -17 13 -37 20 -21 8 -61 24 -88 37 -28 12 -63 26 -78 29 -37 10 -40 18 -17 48 18 23 19 27 5 34 -14 8 -14 12 0 41 9 17 27 40 41 51 13 10 24 22 24 25 0 7 -58 6 -165 -3z" transform="translate(0,184) scale(0.1,-0.1)" stroke="none" fill="#949271"/>

<path d="M796 1655 c-47 -9 -111 -31 -160 -55 -103 -51 -134 -70 -118 -70 7 0 37 -11 65 -24 29 -13 69 -29 90 -37 20 -7 37 -16 37 -20 0 -8 -72 -54 -157 -100 -35 -19 -63 -37 -63 -40 0 -3 52 -31 115 -63 63 -31 115 -61 115 -66 0 -5 -40 -30 -90 -56 -49 -25 -90 -50 -90 -54 0 -5 30 -34 68 -65 182 -153 167 -138 141 -147 -35 -13 -353 -48 -360 -40 -7 7 -11 52 -29 302 -6 80 -13 166 -16 193 l-6 47 -33 -41 c-124 -157 -228 -466 -228 -679 -1 -319 192 -540 470 -540 242 0 588 149 772 331 148 148 222 291 251 491 15 102 4 214 -34 333 -59 185 -212 331 -407 389 -79 24 -238 29 -333 11z" transform="translate(0,184) scale(0.1,-0.1)" stroke="none" fill="#EFB664"/>

</g>

<g id="1" transform="translate(166.0,0)scale(1,1)">

<path d="M395 1731 l-70 -6 0 -55 c0 -56 4 -106 30 -485 23 -323 27 -359 34 -367 7 -8 325 27 360 40 26 9 41 -6 -141 147 -38 31 -68 60 -68 65 0 4 41 29 90 54 50 26 90 51 90 56 0 5 -52 35 -115 66 -63 32 -115 60 -115 63 0 3 28 21 63 40 85 46 157 92 157 100 0 4 -17 13 -37 20 -21 8 -61 24 -88 37 -28 12 -63 26 -78 29 -37 10 -40 18 -17 48 18 23 19 27 5 34 -14 8 -14 12 0 41 9 17 27 40 41 51 13 10 24 22 24 25 0 7 -58 6 -165 -3z" transform="translate(0,184) scale(0.1,-0.1)" stroke="none" fill="#949271"/>

<path d="M796 1655 c-47 -9 -111 -31 -160 -55 -103 -51 -134 -70 -118 -70 7 0 37 -11 65 -24 29 -13 69 -29 90 -37 20 -7 37 -16 37 -20 0 -8 -72 -54 -157 -100 -35 -19 -63 -37 -63 -40 0 -3 52 -31 115 -63 63 -31 115 -61 115 -66 0 -5 -40 -30 -90 -56 -49 -25 -90 -50 -90 -54 0 -5 30 -34 68 -65 182 -153 167 -138 141 -147 -35 -13 -353 -48 -360 -40 -7 7 -11 52 -29 302 -6 80 -13 166 -16 193 l-6 47 -33 -41 c-124 -157 -228 -466 -228 -679 -1 -319 192 -540 470 -540 242 0 588 149 772 331 148 148 222 291 251 491 15 102 4 214 -34 333 -59 185 -212 331 -407 389 -79 24 -238 29 -333 11z" transform="translate(0,184) scale(0.1,-0.1)" stroke="none" fill="#EFB664"/>

</g>

<g id="2" transform="translate(332.0,0)scale(1,1)">

<path d="M395 1731 l-70 -6 0 -55 c0 -56 4 -106 30 -485 23 -323 27 -359 34 -367 7 -8 325 27 360 40 26 9 41 -6 -141 147 -38 31 -68 60 -68 65 0 4 41 29 90 54 50 26 90 51 90 56 0 5 -52 35 -115 66 -63 32 -115 60 -115 63 0 3 28 21 63 40 85 46 157 92 157 100 0 4 -17 13 -37 20 -21 8 -61 24 -88 37 -28 12 -63 26 -78 29 -37 10 -40 18 -17 48 18 23 19 27 5 34 -14 8 -14 12 0 41 9 17 27 40 41 51 13 10 24 22 24 25 0 7 -58 6 -165 -3z" transform="translate(0,184) scale(0.1,-0.1)" stroke="none" fill="#949271"/>

<path d="M796 1655 c-47 -9 -111 -31 -160 -55 -103 -51 -134 -70 -118 -70 7 0 37 -11 65 -24 29 -13 69 -29 90 -37 20 -7 37 -16 37 -20 0 -8 -72 -54 -157 -100 -35 -19 -63 -37 -63 -40 0 -3 52 -31 115 -63 63 -31 115 -61 115 -66 0 -5 -40 -30 -90 -56 -49 -25 -90 -50 -90 -54 0 -5 30 -34 68 -65 182 -153 167 -138 141 -147 -35 -13 -353 -48 -360 -40 -7 7 -11 52 -29 302 -6 80 -13 166 -16 193 l-6 47 -33 -41 c-124 -157 -228 -466 -228 -679 -1 -319 192 -540 470 -540 242 0 588 149 772 331 148 148 222 291 251 491 15 102 4 214 -34 333 -59 185 -212 331 -407 389 -79 24 -238 29 -333 11z" transform="translate(0,184) scale(0.1,-0.1)" stroke="none" fill="#EFB664"/>

</g>

<g id="3" transform="translate(498.0,0)scale(1,1)">

<path d="M395 1731 l-70 -6 0 -55 c0 -56 4 -106 30 -485 23 -323 27 -359 34 -367 7 -8 325 27 360 40 26 9 41 -6 -141 147 -38 31 -68 60 -68 65 0 4 41 29 90 54 50 26 90 51 90 56 0 5 -52 35 -115 66 -63 32 -115 60 -115 63 0 3 28 21 63 40 85 46 157 92 157 100 0 4 -17 13 -37 20 -21 8 -61 24 -88 37 -28 12 -63 26 -78 29 -37 10 -40 18 -17 48 18 23 19 27 5 34 -14 8 -14 12 0 41 9 17 27 40 41 51 13 10 24 22 24 25 0 7 -58 6 -165 -3z" transform="translate(0,184) scale(0.1,-0.1)" stroke="none" fill="#949271"/>

<path d="M796 1655 c-47 -9 -111 -31 -160 -55 -103 -51 -134 -70 -118 -70 7 0 37 -11 65 -24 29 -13 69 -29 90 -37 20 -7 37 -16 37 -20 0 -8 -72 -54 -157 -100 -35 -19 -63 -37 -63 -40 0 -3 52 -31 115 -63 63 -31 115 -61 115 -66 0 -5 -40 -30 -90 -56 -49 -25 -90 -50 -90 -54 0 -5 30 -34 68 -65 182 -153 167 -138 141 -147 -35 -13 -353 -48 -360 -40 -7 7 -11 52 -29 302 -6 80 -13 166 -16 193 l-6 47 -33 -41 c-124 -157 -228 -466 -228 -679 -1 -319 192 -540 470 -540 242 0 588 149 772 331 148 148 222 291 251 491 15 102 4 214 -34 333 -59 185 -212 331 -407 389 -79 24 -238 29 -333 11z" transform="translate(0,184) scale(0.1,-0.1)" stroke="none" fill="#EFB664"/>

</g>

<g id="4" transform="translate(664.0,0)scale(1,1)">

<path d="M395 1731 l-70 -6 0 -55 c0 -56 4 -106 30 -485 23 -323 27 -359 34 -367 7 -8 325 27 360 40 26 9 41 -6 -141 147 -38 31 -68 60 -68 65 0 4 41 29 90 54 50 26 90 51 90 56 0 5 -52 35 -115 66 -63 32 -115 60 -115 63 0 3 28 21 63 40 85 46 157 92 157 100 0 4 -17 13 -37 20 -21 8 -61 24 -88 37 -28 12 -63 26 -78 29 -37 10 -40 18 -17 48 18 23 19 27 5 34 -14 8 -14 12 0 41 9 17 27 40 41 51 13 10 24 22 24 25 0 7 -58 6 -165 -3z" transform="translate(0,184) scale(0.1,-0.1)" stroke="none" fill="#949271"/>

<path d="M796 1655 c-47 -9 -111 -31 -160 -55 -103 -51 -134 -70 -118 -70 7 0 37 -11 65 -24 29 -13 69 -29 90 -37 20 -7 37 -16 37 -20 0 -8 -72 -54 -157 -100 -35 -19 -63 -37 -63 -40 0 -3 52 -31 115 -63 63 -31 115 -61 115 -66 0 -5 -40 -30 -90 -56 -49 -25 -90 -50 -90 -54 0 -5 30 -34 68 -65 182 -153 167 -138 141 -147 -35 -13 -353 -48 -360 -40 -7 7 -11 52 -29 302 -6 80 -13 166 -16 193 l-6 47 -33 -41 c-124 -157 -228 -466 -228 -679 -1 -319 192 -540 470 -540 242 0 588 149 772 331 148 148 222 291 251 491 15 102 4 214 -34 333 -59 185 -212 331 -407 389 -79 24 -238 29 -333 11z" transform="translate(0,184) scale(0.1,-0.1)" stroke="none" fill="#EFB664"/>

</g>

</g>
<g id="row1" transform="translate(22,184.0)">
<g id="0" transform="translate(0.0,0)scale(1,1)">

<path d="M395 1731 l-70 -6 0 -55 c0 -56 4 -106 30 -485 23 -323 27 -359 34 -367 7 -8 325 27 360 40 26 9 41 -6 -141 147 -38 31 -68 60 -68 65 0 4 41 29 90 54 50 26 90 51 90 56 0 5 -52 35 -115 66 -63 32 -115 60 -115 63 0 3 28 21 63 40 85 46 157 92 157 100 0 4 -17 13 -37 20 -21 8 -61 24 -88 37 -28 12 -63 26 -78 29 -37 10 -40 18 -17 48 18 23 19 27 5 34 -14 8 -14 12 0 41 9 17 27 40 41 51 13 10 24 22 24 25 0 7 -58 6 -165 -3z" transform="translate(0,184) scale(0.1,-0.1)" stroke="none" fill="#949271"/>

<path d="M796 1655 c-47 -9 -111 -31 -160 -55 -103 -51 -134 -70 -118 -70 7 0 37 -11 65 -24 29 -13 69 -29 90 -37 20 -7 37 -16 37 -20 0 -8 -72 -54 -157 -100 -35 -19 -63 -37 -63 -40 0 -3 52 -31 115 -63 63 -31 115 -61 115 -66 0 -5 -40 -30 -90 -56 -49 -25 -90 -50 -90 -54 0 -5 30 -34 68 -65 182 -153 167 -138 141 -147 -35 -13 -353 -48 -360 -40 -7 7 -11 52 -29 302 -6 80 -13 166 -16 193 l-6 47 -33 -41 c-124 -157 -228 -466 -228 -679 -1 -319 192 -540 470 -540 242 0 588 149 772 331 148 148 222 291 251 491 15 102 4 214 -34 333 -59 185 -212 331 -407 389 -79 24 -238 29 -333 11z" transform="translate(0,184) scale(0.1,-0.1)" stroke="none" fill="#EFB664"/>

</g>

<g id="1" transform="translate(166.0,0)scale(1,1)">

<path d="M395 1731 l-70 -6 0 -55 c0 -56 4 -106 30 -485 23 -323 27 -359 34 -367 7 -8 325 27 360 40 26 9 41 -6 -141 147 -38 31 -68 60 -68 65 0 4 41 29 90 54 50 26 90 51 90 56 0 5 -52 35 -115 66 -63 32 -115 60 -115 63 0 3 28 21 63 40 85 46 157 92 157 100 0 4 -17 13 -37 20 -21 8 -61 24 -88 37 -28 12 -63 26 -78 29 -37 10 -40 18 -17 48 18 23 19 27 5 34 -14 8 -14 12 0 41 9 17 27 40 41 51 13 10 24 22 24 25 0 7 -58 6 -165 -3z" transform="translate(0,184) scale(0.1,-0.1)" stroke="none" fill="#949271"/>

<path d="M796 1655 c-47 -9 -111 -31 -160 -55 -103 -51 -134 -70 -118 -70 7 0 37 -11 65 -24 29 -13 69 -29 90 -37 20 -7 37 -16 37 -20 0 -8 -72 -54 -157 -100 -35 -19 -63 -37 -63 -40 0 -3 52 -31 115 -63 63 -31 115 -61 115 -66 0 -5 -40 -30 -90 -56 -49 -25 -90 -50 -90 -54 0 -5 30 -34 68 -65 182 -153 167 -138 141 -147 -35 -13 -353 -48 -360 -40 -7 7 -11 52 -29 302 -6 80 -13 166 -16 193 l-6 47 -33 -41 c-124 -157 -228 -466 -228 -679 -1 -319 192 -540 470 -540 242 0 588 149 772 331 148 148 222 291 251 491 15 102 4 214 -34 333 -59 185 -212 331 -407 389 -79 24 -238 29 -333 11z" transform="translate(0,184) scale(0.1,-0.1)" stroke="none" fill="#EFB664"/>

</g>

<g id="2" transform="translate(332.0,0)scale(1,1)">

<path d="M395 1731 l-70 -6 0 -55 c0 -56 4 -106 30 -485 23 -323 27 -359 34 -367 7 -8 325 27 360 40 26 9 41 -6 -141 147 -38 31 -68 60 -68 65 0 4 41 29 90 54 50 26 90 51 90 56 0 5 -52 35 -115 66 -63 32 -115 60 -115 63 0 3 28 21 63 40 85 46 157 92 157 100 0 4 -17 13 -37 20 -21 8 -61 24 -88 37 -28 12 -63 26 -78 29 -37 10 -40 18 -17 48 18 23 19 27 5 34 -14 8 -14 12 0 41 9 17 27 40 41 51 13 10 24 22 24 25 0 7 -58 6 -165 -3z" transform="translate(0,184) scale(0.1,-0.1)" stroke="none" fill="#949271"/>

<path d="M796 1655 c-47 -9 -111 -31 -160 -55 -103 -51 -134 -70 -118 -70 7 0 37 -11 65 -24 29 -13 69 -29 90 -37 20 -7 37 -16 37 -20 0 -8 -72 -54 -157 -100 -35 -19 -63 -37 -63 -40 0 -3 52 -31 115 -63 63 -31 115 -61 115 -66 0 -5 -40 -30 -90 -56 -49 -25 -90 -50 -90 -54 0 -5 30 -34 68 -65 182 -153 167 -138 141 -147 -35 -13 -353 -48 -360 -40 -7 7 -11 52 -29 302 -6 80 -13 166 -16 193 l-6 47 -33 -41 c-124 -157 -228 -466 -228 -679 -1 -319 192 -540 470 -540 242 0 588 149 772 331 148 148 222 291 251 491 15 102 4 214 -34 333 -59 185 -212 331 -407 389 -79 24 -238 29 -333 11z" transform="translate(0,184) scale(0.1,-0.1)" stroke="none" fill="#EFB664"/>

</g>

<g id="3" transform="translate(498.0,0)scale(1,1)">

<path d="M395 1731 l-70 -6 0 -55 c0 -56 4 -106 30 -485 23 -323 27 -359 34 -367 7 -8 325 27 360 40 26 9 41 -6 -141 147 -38 31 -68 60 -68 65 0 4 41 29 90 54 50 26 90 51 90 56 0 5 -52 35 -115 66 -63 32 -115 60 -115 63 0 3 28 21 63 40 85 46 157 92 157 100 0 4 -17 13 -37 20 -21 8 -61 24 -88 37 -28 12 -63 26 -78 29 -37 10 -40 18 -17 48 18 23 19 27 5 34 -14 8 -14 12 0 41 9 17 27 40 41 51 13 10 24 22 24 25 0 7 -58 6 -165 -3z" transform="translate(0,184) scale(0.1,-0.1)" stroke="none" fill="#949271"/>

<path d="M796 1655 c-47 -9 -111 -31 -160 -55 -103 -51 -134 -70 -118 -70 7 0 37 -11 65 -24 29 -13 69 -29 90 -37 20 -7 37 -16 37 -20 0 -8 -72 -54 -157 -100 -35 -19 -63 -37 -63 -40 0 -3 52 -31 115 -63 63 -31 115 -61 115 -66 0 -5 -40 -30 -90 -56 -49 -25 -90 -50 -90 -54 0 -5 30 -34 68 -65 182 -153 167 -138 141 -147 -35 -13 -353 -48 -360 -40 -7 7 -11 52 -29 302 -6 80 -13 166 -16 193 l-6 47 -33 -41 c-124 -157 -228 -466 -228 -679 -1 -319 192 -540 470 -540 242 0 588 149 772 331 148 148 222 291 251 491 15 102 4 214 -34 333 -59 185 -212 331 -407 389 -79 24 -238 29 -333 11z" transform="translate(0,184) scale(0.1,-0.1)" stroke="none" fill="#EFB664"/>

</g>

<g id="4" transform="translate(664.0,0)scale(1,1)">

<path d="M395 1731 l-70 -6 0 -55 c0 -56 4 -106 30 -485 23 -323 27 -359 34 -367 7 -8 325 27 360 40 26 9 41 -6 -141 147 -38 31 -68 60 -68 65 0 4 41 29 90 54 50 26 90 51 90 56 0 5 -52 35 -115 66 -63 32 -115 60 -115 63 0 3 28 21 63 40 85 46 157 92 157 100 0 4 -17 13 -37 20 -21 8 -61 24 -88 37 -28 12 -63 26 -78 29 -37 10 -40 18 -17 48 18 23 19 27 5 34 -14 8 -14 12 0 41 9 17 27 40 41 51 13 10 24 22 24 25 0 7 -58 6 -165 -3z" transform="translate(0,184) scale(0.1,-0.1)" stroke="none" fill="#949271"/>

<path d="M796 1655 c-47 -9 -111 -31 -160 -55 -103 -51 -134 -70 -118 -70 7 0 37 -11 65 -24 29 -13 69 -29 90 -37 20 -7 37 -16 37 -20 0 -8 -72 -54 -157 -100 -35 -19 -63 -37 -63 -40 0 -3 52 -31 115 -63 63 -31 115 -61 115 -66 0 -5 -40 -30 -90 -56 -49 -25 -90 -50 -90 -54 0 -5 30 -34 68 -65 182 -153 167 -138 141 -147 -35 -13 -353 -48 -360 -40 -7 7 -11 52 -29 302 -6 80 -13 166 -16 193 l-6 47 -33 -41 c-124 -157 -228 -466 -228 -679 -1 -319 192 -540 470 -540 242 0 588 149 772 331 148 148 222 291 251 491 15 102 4 214 -34 333 -59 185 -212 331 -407 389 -79 24 -238 29 -333 11z" transform="translate(0,184) scale(0.1,-0.1)" stroke="none" fill="#EFB664"/>

</g>

</g>
<g id="row2" transform="translate(22,368.0)">
<g id="0" transform="translate(0.0,0)scale(1,1)">

<path d="M395 1731 l-70 -6 0 -55 c0 -56 4 -106 30 -485 23 -323 27 -359 34 -367 7 -8 325 27 360 40 26 9 41 -6 -141 147 -38 31 -68 60 -68 65 0 4 41 29 90 54 50 26 90 51 90 56 0 5 -52 35 -115 66 -63 32 -115 60 -115 63 0 3 28 21 63 40 85 46 157 92 157 100 0 4 -17 13 -37 20 -21 8 -61 24 -88 37 -28 12 -63 26 -78 29 -37 10 -40 18 -17 48 18 23 19 27 5 34 -14 8 -14 12 0 41 9 17 27 40 41 51 13 10 24 22 24 25 0 7 -58 6 -165 -3z" transform="translate(0,184) scale(0.1,-0.1)" stroke="none" fill="#949271"/>

<path d="M796 1655 c-47 -9 -111 -31 -160 -55 -103 -51 -134 -70 -118 -70 7 0 37 -11 65 -24 29 -13 69 -29 90 -37 20 -7 37 -16 37 -20 0 -8 -72 -54 -157 -100 -35 -19 -63 -37 -63 -40 0 -3 52 -31 115 -63 63 -31 115 -61 115 -66 0 -5 -40 -30 -90 -56 -49 -25 -90 -50 -90 -54 0 -5 30 -34 68 -65 182 -153 167 -138 141 -147 -35 -13 -353 -48 -360 -40 -7 7 -11 52 -29 302 -6 80 -13 166 -16 193 l-6 47 -33 -41 c-124 -157 -228 -466 -228 -679 -1 -319 192 -540 470 -540 242 0 588 149 772 331 148 148 222 291 251 491 15 102 4 214 -34 333 -59 185 -212 331 -407 389 -79 24 -238 29 -333 11z" transform="translate(0,184) scale(0.1,-0.1)" stroke="none" fill="#EFB664"/>

</g>

<g id="1" transform="translate(166.0,0)scale(1,1)">

<path d="M395 1731 l-70 -6 0 -55 c0 -56 4 -106 30 -485 23 -323 27 -359 34 -367 7 -8 325 27 360 40 26 9 41 -6 -141 147 -38 31 -68 60 -68 65 0 4 41 29 90 54 50 26 90 51 90 56 0 5 -52 35 -115 66 -63 32 -115 60 -115 63 0 3 28 21 63 40 85 46 157 92 157 100 0 4 -17 13 -37 20 -21 8 -61 24 -88 37 -28 12 -63 26 -78 29 -37 10 -40 18 -17 48 18 23 19 27 5 34 -14 8 -14 12 0 41 9 17 27 40 41 51 13 10 24 22 24 25 0 7 -58 6 -165 -3z" transform="translate(0,184) scale(0.1,-0.1)" stroke="none" fill="#949271"/>

<path d="M796 1655 c-47 -9 -111 -31 -160 -55 -103 -51 -134 -70 -118 -70 7 0 37 -11 65 -24 29 -13 69 -29 90 -37 20 -7 37 -16 37 -20 0 -8 -72 -54 -157 -100 -35 -19 -63 -37 -63 -40 0 -3 52 -31 115 -63 63 -31 115 -61 115 -66 0 -5 -40 -30 -90 -56 -49 -25 -90 -50 -90 -54 0 -5 30 -34 68 -65 182 -153 167 -138 141 -147 -35 -13 -353 -48 -360 -40 -7 7 -11 52 -29 302 -6 80 -13 166 -16 193 l-6 47 -33 -41 c-124 -157 -228 -466 -228 -679 -1 -319 192 -540 470 -540 242 0 588 149 772 331 148 148 222 291 251 491 15 102 4 214 -34 333 -59 185 -212 331 -407 389 -79 24 -238 29 -333 11z" transform="translate(0,184) scale(0.1,-0.1)" stroke="none" fill="#EFB664"/>

</g>

<g id="2" transform="translate(332.0,0)scale(1,1)">

<path d="M395 1731 l-70 -6 0 -55 c0 -56 4 -106 30 -485 23 -323 27 -359 34 -367 7 -8 325 27 360 40 26 9 41 -6 -141 147 -38 31 -68 60 -68 65 0 4 41 29 90 54 50 26 90 51 90 56 0 5 -52 35 -115 66 -63 32 -115 60 -115 63 0 3 28 21 63 40 85 46 157 92 157 100 0 4 -17 13 -37 20 -21 8 -61 24 -88 37 -28 12 -63 26 -78 29 -37 10 -40 18 -17 48 18 23 19 27 5 34 -14 8 -14 12 0 41 9 17 27 40 41 51 13 10 24 22 24 25 0 7 -58 6 -165 -3z" transform="translate(0,184) scale(0.1,-0.1)" stroke="none" fill="#949271"/>

<path d="M796 1655 c-47 -9 -111 -31 -160 -55 -103 -51 -134 -70 -118 -70 7 0 37 -11 65 -24 29 -13 69 -29 90 -37 20 -7 37 -16 37 -20 0 -8 -72 -54 -157 -100 -35 -19 -63 -37 -63 -40 0 -3 52 -31 115 -63 63 -31 115 -61 115 -66 0 -5 -40 -30 -90 -56 -49 -25 -90 -50 -90 -54 0 -5 30 -34 68 -65 182 -153 167 -138 141 -147 -35 -13 -353 -48 -360 -40 -7 7 -11 52 -29 302 -6 80 -13 166 -16 193 l-6 47 -33 -41 c-124 -157 -228 -466 -228 -679 -1 -319 192 -540 470 -540 242 0 588 149 772 331 148 148 222 291 251 491 15 102 4 214 -34 333 -59 185 -212 331 -407 389 -79 24 -238 29 -333 11z" transform="translate(0,184) scale(0.1,-0.1)" stroke="none" fill="#EFB664"/>

</g>

<g id="3" transform="translate(498.0,0)scale(1,1)">

<path d="M395 1731 l-70 -6 0 -55 c0 -56 4 -106 30 -485 23 -323 27 -359 34 -367 7 -8 325 27 360 40 26 9 41 -6 -141 147 -38 31 -68 60 -68 65 0 4 41 29 90 54 50 26 90 51 90 56 0 5 -52 35 -115 66 -63 32 -115 60 -115 63 0 3 28 21 63 40 85 46 157 92 157 100 0 4 -17 13 -37 20 -21 8 -61 24 -88 37 -28 12 -63 26 -78 29 -37 10 -40 18 -17 48 18 23 19 27 5 34 -14 8 -14 12 0 41 9 17 27 40 41 51 13 10 24 22 24 25 0 7 -58 6 -165 -3z" transform="translate(0,184) scale(0.1,-0.1)" stroke="none" fill="#949271"/>

<path d="M796 1655 c-47 -9 -111 -31 -160 -55 -103 -51 -134 -70 -118 -70 7 0 37 -11 65 -24 29 -13 69 -29 90 -37 20 -7 37 -16 37 -20 0 -8 -72 -54 -157 -100 -35 -19 -63 -37 -63 -40 0 -3 52 -31 115 -63 63 -31 115 -61 115 -66 0 -5 -40 -30 -90 -56 -49 -25 -90 -50 -90 -54 0 -5 30 -34 68 -65 182 -153 167 -138 141 -147 -35 -13 -353 -48 -360 -40 -7 7 -11 52 -29 302 -6 80 -13 166 -16 193 l-6 47 -33 -41 c-124 -157 -228 -466 -228 -679 -1 -319 192 -540 470 -540 242 0 588 149 772 331 148 148 222 291 251 491 15 102 4 214 -34 333 -59 185 -212 331 -407 389 -79 24 -238 29 -333 11z" transform="translate(0,184) scale(0.1,-0.1)" stroke="none" fill="#EFB664"/>

</g>

<g id="4" transform="translate(664.0,0)scale(1,1)">

<path d="M395 1731 l-70 -6 0 -55 c0 -56 4 -106 30 -485 23 -323 27 -359 34 -367 7 -8 325 27 360 40 26 9 41 -6 -141 147 -38 31 -68 60 -68 65 0 4 41 29 90 54 50 26 90 51 90 56 0 5 -52 35 -115 66 -63 32 -115 60 -115 63 0 3 28 21 63 40 85 46 157 92 157 100 0 4 -17 13 -37 20 -21 8 -61 24 -88 37 -28 12 -63 26 -78 29 -37 10 -40 18 -17 48 18 23 19 27 5 34 -14 8 -14 12 0 41 9 17 27 40 41 51 13 10 24 22 24 25 0 7 -58 6 -165 -3z" transform="translate(0,184) scale(0.1,-0.1)" stroke="none" fill="#949271"/>

<path d="M796 1655 c-47 -9 -111 -31 -160 -55 -103 -51 -134 -70 -118 -70 7 0 37 -11 65 -24 29 -13 69 -29 90 -37 20 -7 37 -16 37 -20 0 -8 -72 -54 -157 -100 -35 -19 -63 -37 -63 -40 0 -3 52 -31 115 -63 63 -31 115 -61 115 -66 0 -5 -40 -30 -90 -56 -49 -25 -90 -50 -90 -54 0 -5 30 -34 68 -65 182 -153 167 -138 141 -147 -35 -13 -353 -48 -360 -40 -7 7 -11 52 -29 302 -6 80 -13 166 -16 193 l-6 47 -33 -41 c-124 -157 -228 -466 -228 -679 -1 -319 192 -540 470 -540 242 0 588 149 772 331 148 148 222 291 251 491 15 102 4 214 -34 333 -59 185 -212 331 -407 389 -79 24 -238 29 -333 11z" transform="translate(0,184) scale(0.1,-0.1)" stroke="none" fill="#EFB664"/>

</g>

</g>
<g id="row3" transform="translate(22,552.0)">
<g id="0" transform="translate(0.0,0)scale(1,1)">

<path d="M395 1731 l-70 -6 0 -55 c0 -56 4 -106 30 -485 23 -323 27 -359 34 -367 7 -8 325 27 360 40 26 9 41 -6 -141 147 -38 31 -68 60 -68 65 0 4 41 29 90 54 50 26 90 51 90 56 0 5 -52 35 -115 66 -63 32 -115 60 -115 63 0 3 28 21 63 40 85 46 157 92 157 100 0 4 -17 13 -37 20 -21 8 -61 24 -88 37 -28 12 -63 26 -78 29 -37 10 -40 18 -17 48 18 23 19 27 5 34 -14 8 -14 12 0 41 9 17 27 40 41 51 13 10 24 22 24 25 0 7 -58 6 -165 -3z" transform="translate(0,184) scale(0.1,-0.1)" stroke="none" fill="#949271"/>

<path d="M796 1655 c-47 -9 -111 -31 -160 -55 -103 -51 -134 -70 -118 -70 7 0 37 -11 65 -24 29 -13 69 -29 90 -37 20 -7 37 -16 37 -20 0 -8 -72 -54 -157 -100 -35 -19 -63 -37 -63 -40 0 -3 52 -31 115 -63 63 -31 115 -61 115 -66 0 -5 -40 -30 -90 -56 -49 -25 -90 -50 -90 -54 0 -5 30 -34 68 -65 182 -153 167 -138 141 -147 -35 -13 -353 -48 -360 -40 -7 7 -11 52 -29 302 -6 80 -13 166 -16 193 l-6 47 -33 -41 c-124 -157 -228 -466 -228 -679 -1 -319 192 -540 470 -540 242 0 588 149 772 331 148 148 222 291 251 491 15 102 4 214 -34 333 -59 185 -212 331 -407 389 -79 24 -238 29 -333 11z" transform="translate(0,184) scale(0.1,-0.1)" stroke="none" fill="#EFB664"/>

</g>

<g id="1" transform="translate(166.0,0)scale(1,1)">

<path d="M395 1731 l-70 -6 0 -55 c0 -56 4 -106 30 -485 23 -323 27 -359 34 -367 7 -8 325 27 360 40 26 9 41 -6 -141 147 -38 31 -68 60 -68 65 0 4 41 29 90 54 50 26 90 51 90 56 0 5 -52 35 -115 66 -63 32 -115 60 -115 63 0 3 28 21 63 40 85 46 157 92 157 100 0 4 -17 13 -37 20 -21 8 -61 24 -88 37 -28 12 -63 26 -78 29 -37 10 -40 18 -17 48 18 23 19 27 5 34 -14 8 -14 12 0 41 9 17 27 40 41 51 13 10 24 22 24 25 0 7 -58 6 -165 -3z" transform="translate(0,184) scale(0.1,-0.1)" stroke="none" fill="#949271"/>

<path d="M796 1655 c-47 -9 -111 -31 -160 -55 -103 -51 -134 -70 -118 -70 7 0 37 -11 65 -24 29 -13 69 -29 90 -37 20 -7 37 -16 37 -20 0 -8 -72 -54 -157 -100 -35 -19 -63 -37 -63 -40 0 -3 52 -31 115 -63 63 -31 115 -61 115 -66 0 -5 -40 -30 -90 -56 -49 -25 -90 -50 -90 -54 0 -5 30 -34 68 -65 182 -153 167 -138 141 -147 -35 -13 -353 -48 -360 -40 -7 7 -11 52 -29 302 -6 80 -13 166 -16 193 l-6 47 -33 -41 c-124 -157 -228 -466 -228 -679 -1 -319 192 -540 470 -540 242 0 588 149 772 331 148 148 222 291 251 491 15 102 4 214 -34 333 -59 185 -212 331 -407 389 -79 24 -238 29 -333 11z" transform="translate(0,184) scale(0.1,-0.1)" stroke="none" fill="#EFB664"/>

</g>

<g id="2" transform="translate(332.0,0)scale(1,1)">

<path d="M395 1731 l-70 -6 0 -55 c0 -56 4 -106 30 -485 23 -323 27 -359 34 -367 7 -8 325 27 360 40 26 9 41 -6 -141 147 -38 31 -68 60 -68 65 0 4 41 29 90 54 50 26 90 51 90 56 0 5 -52 35 -115 66 -63 32 -115 60 -115 63 0 3 28 21 63 40 85 46 157 92 157 100 0 4 -17 13 -37 20 -21 8 -61 24 -88 37 -28 12 -63 26 -78 29 -37 10 -40 18 -17 48 18 23 19 27 5 34 -14 8 -14 12 0 41 9 17 27 40 41 51 13 10 24 22 24 25 0 7 -58 6 -165 -3z" transform="translate(0,184) scale(0.1,-0.1)" stroke="none" fill="#949271"/>

<path d="M796 1655 c-47 -9 -111 -31 -160 -55 -103 -51 -134 -70 -118 -70 7 0 37 -11 65 -24 29 -13 69 -29 90 -37 20 -7 37 -16 37 -20 0 -8 -72 -54 -157 -100 -35 -19 -63 -37 -63 -40 0 -3 52 -31 115 -63 63 -31 115 -61 115 -66 0 -5 -40 -30 -90 -56 -49 -25 -90 -50 -90 -54 0 -5 30 -34 68 -65 182 -153 167 -138 141 -147 -35 -13 -353 -48 -360 -40 -7 7 -11 52 -29 302 -6 80 -13 166 -16 193 l-6 47 -33 -41 c-124 -157 -228 -466 -228 -679 -1 -319 192 -540 470 -540 242 0 588 149 772 331 148 148 222 291 251 491 15 102 4 214 -34 333 -59 185 -212 331 -407 389 -79 24 -238 29 -333 11z" transform="translate(0,184) scale(0.1,-0.1)" stroke="none" fill="#EFB664"/>

</g>

<g id="3" transform="translate(498.0,0)scale(1,1)">

<path d="M395 1731 l-70 -6 0 -55 c0 -56 4 -106 30 -485 23 -323 27 -359 34 -367 7 -8 325 27 360 40 26 9 41 -6 -141 147 -38 31 -68 60 -68 65 0 4 41 29 90 54 50 26 90 51 90 56 0 5 -52 35 -115 66 -63 32 -115 60 -115 63 0 3 28 21 63 40 85 46 157 92 157 100 0 4 -17 13 -37 20 -21 8 -61 24 -88 37 -28 12 -63 26 -78 29 -37 10 -40 18 -17 48 18 23 19 27 5 34 -14 8 -14 12 0 41 9 17 27 40 41 51 13 10 24 22 24 25 0 7 -58 6 -165 -3z" transform="translate(0,184) scale(0.1,-0.1)" stroke="none" fill="#949271"/>

<path d="M796 1655 c-47 -9 -111 -31 -160 -55 -103 -51 -134 -70 -118 -70 7 0 37 -11 65 -24 29 -13 69 -29 90 -37 20 -7 37 -16 37 -20 0 -8 -72 -54 -157 -100 -35 -19 -63 -37 -63 -40 0 -3 52 -31 115 -63 63 -31 115 -61 115 -66 0 -5 -40 -30 -90 -56 -49 -25 -90 -50 -90 -54 0 -5 30 -34 68 -65 182 -153 167 -138 141 -147 -35 -13 -353 -48 -360 -40 -7 7 -11 52 -29 302 -6 80 -13 166 -16 193 l-6 47 -33 -41 c-124 -157 -228 -466 -228 -679 -1 -319 192 -540 470 -540 242 0 588 149 772 331 148 148 222 291 251 491 15 102 4 214 -34 333 -59 185 -212 331 -407 389 -79 24 -238 29 -333 11z" transform="translate(0,184) scale(0.1,-0.1)" stroke="none" fill="#EFB664"/>

</g>

<g id="4" transform="translate(664.0,0)scale(1,1)">

<path d="M395 1731 l-70 -6 0 -55 c0 -56 4 -106 30 -485 23 -323 27 -359 34 -367 7 -8 325 27 360 40 26 9 41 -6 -141 147 -38 31 -68 60 -68 65 0 4 41 29 90 54 50 26 90 51 90 56 0 5 -52 35 -115 66 -63 32 -115 60 -115 63 0 3 28 21 63 40 85 46 157 92 157 100 0 4 -17 13 -37 20 -21 8 -61 24 -88 37 -28 12 -63 26 -78 29 -37 10 -40 18 -17 48 18 23 19 27 5 34 -14 8 -14 12 0 41 9 17 27 40 41 51 13 10 24 22 24 25 0 7 -58 6 -165 -3z" transform="translate(0,184) scale(0.1,-0.1)" stroke="none" fill="#949271"/>

<path d="M796 1655 c-47 -9 -111 -31 -160 -55 -103 -51 -134 -70 -118 -70 7 0 37 -11 65 -24 29 -13 69 -29 90 -37 20 -7 37 -16 37 -20 0 -8 -72 -54 -157 -100 -35 -19 -63 -37 -63 -40 0 -3 52 -31 115 -63 63 -31 115 -61 115 -66 0 -5 -40 -30 -90 -56 -49 -25 -90 -50 -90 -54 0 -5 30 -34 68 -65 182 -153 167 -138 141 -147 -35 -13 -353 -48 -360 -40 -7 7 -11 52 -29 302 -6 80 -13 166 -16 193 l-6 47 -33 -41 c-124 -157 -228 -466 -228 -679 -1 -319 192 -540 470 -540 242 0 588 149 772 331 148 148 222 291 251 491 15 102 4 214 -34 333 -59 185 -212 331 -407 389 -79 24 -238 29 -333 11z" transform="translate(0,184) scale(0.1,-0.1)" stroke="none" fill="#EFB664"/>

</g>

</g>
</svg>