<?xml version="1.0" standalone="no"?>
<!DOCTYPE svg PUBLIC "-//W3C//DTD SVG 20010904//EN"
 "http://www.w3.org/TR/2001/REC-SVG-20010904/DTD/svg10.dtd">
<svg version="1.0" xmlns="http://www.w3.org/2000/svg" width="508pt" height="516pt" viewBox="0 0 508 516" preserveAspectRatio = "xMidYMid meet" >
<metadata>
Created by ZoeQu, written in 2022
</metadata>
<rect width="508" height="516" fill="#E8BF96"/>
<g id="col0" transform="translate(0, 17)">
<g id="0" transform="translate(0,0.0)scale(0.8,0.8)">

<path d="M627 1209 c-10 -6 -31 -38 -47 -72 -34 -68 -38 -138 -20 -296 5 -47 7 -87 4 -90 -12 -12 -45 48 -80 144 -63 172 -92 215 -143 215 -45 0 -54 -20 -49 -103 5 -80 22 -120 79 -189 59 -70 53 -73 -51 -28 -89 39 -158 54 -205 46 -37 -7 -37 -7 -32 -49 4 -29 14 -48 31 -62 33 -26 33 -35 -1 -35 -60 0 -69 -36 -16 -63 15 -8 62 -22 103 -32 41 -10 79 -21 84 -26 9 -8 -73 -49 -98 -49 -6 0 -29 -17 -49 -38 -27 -28 -37 -46 -37 -70 0 -30 2 -32 38 -32 20 1 62 9 92 20 66 23 70 24 70 8 -1 -7 -23 -31 -49 -52 -27 -22 -57 -55 -66 -73 -16 -29 -17 -36 -4 -48 16 -17 43 -3 150 78 35 26 65 43 67 37 2 -6 -8 -29 -23 -51 -16 -24 -32 -70 -41 -116 -19 -99 -18 -101 12 -115 42 -19 89 13 122 84 15 32 30 58 33 58 4 0 12 -34 20 -75 13 -75 13 -75 44 -75 60 0 75 37 84 194 l6 109 34 -82 c25 -63 48 -98 94 -147 55 -59 63 -65 96 -62 36 3 36 3 39 53 2 43 -2 58 -29 99 -18 26 -47 64 -66 83 -18 20 -33 40 -33 44 0 21 29 6 58 -30 63 -78 204 -124 260 -85 53 37 8 107 -102 157 -82 39 -160 86 -153 94 3 2 43 -5 88 -16 112 -28 186 -28 230 2 49 32 49 60 2 90 -21 14 -62 32 -91 42 -52 17 -61 35 -17 35 30 0 77 18 87 33 30 47 -23 64 -128 41 -37 -7 -69 -12 -72 -10 -2 2 29 21 69 42 77 40 111 81 107 124 -3 23 -7 25 -65 28 -71 3 -131 -18 -210 -74 -54 -38 -79 -45 -64 -16 5 9 35 46 66 82 66 76 95 127 95 169 0 31 -22 51 -56 51 -19 0 -84 -65 -84 -85 0 -6 -14 -32 -32 -55 -17 -24 -51 -84 -75 -133 -25 -49 -47 -86 -50 -83 -3 3 3 47 13 98 11 61 18 140 18 228 1 128 0 135 -19 137 -11 2 -28 -2 -38 -8z m53 -537 l65 -17 3 -50 c3 -62 -20 -111 -68 -143 -26 -17 -43 -22 -65 -17 -16 3 -50 9 -75 12 -59 7 -66 14 -74 73 -8 63 11 113 56 140 39 24 71 24 158 2z" transform="translate(0,129) scale(0.1,-0.1)" stroke="none" fill="#9B7044"/>

</g>

<g id="1" transform="translate(0,129.0)scale(0.8,0.8)">

<path d="M627 1209 c-10 -6 -31 -38 -47 -72 -34 -68 -38 -138 -20 -296 5 -47 7 -87 4 -90 -12 -12 -45 48 -80 144 -63 172 -92 215 -143 215 -45 0 -54 -20 -49 -103 5 -80 22 -120 79 -189 59 -70 53 -73 -51 -28 -89 39 -158 54 -205 46 -37 -7 -37 -7 -32 -49 4 -29 14 -48 31 -62 33 -26 33 -35 -1 -35 -60 0 -69 -36 -16 -63 15 -8 62 -22 103 -32 41 -10 79 -21 84 -26 9 -8 -73 -49 -98 -49 -6 0 -29 -17 -49 -38 -27 -28 -37 -46 -37 -70 0 -30 2 -32 38 -32 20 1 62 9 92 20 66 23 70 24 70 8 -1 -7 -23 -31 -49 -52 -27 -22 -57 -55 -66 -73 -16 -29 -17 -36 -4 -48 16 -17 43 -3 150 78 35 26 65 43 67 37 2 -6 -8 -29 -23 -51 -16 -24 -32 -70 -41 -116 -19 -99 -18 -101 12 -115 42 -19 89 13 122 84 15 32 30 58 33 58 4 0 12 -34 20 -75 13 -75 13 -75 44 -75 60 0 75 37 84 194 l6 109 34 -82 c25 -63 48 -98 94 -147 55 -59 63 -65 96 -62 36 3 36 3 39 53 2 43 -2 58 -29 99 -18 26 -47 64 -66 83 -18 20 -33 40 -33 44 0 21 29 6 58 -30 63 -78 204 -124 260 -85 53 37 8 107 -102 157 -82 39 -160 86 -153 94 3 2 43 -5 88 -16 112 -28 186 -28 230 2 49 32 49 60 2 90 -21 14 -62 32 -91 42 -52 17 -61 35 -17 35 30 0 77 18 87 33 30 47 -23 64 -128 41 -37 -7 -69 -12 -72 -10 -2 2 29 21 69 42 77 40 111 81 107 124 -3 23 -7 25 -65 28 -71 3 -131 -18 -210 -74 -54 -38 -79 -45 -64 -16 5 9 35 46 66 82 66 76 95 127 95 169 0 31 -22 51 -56 51 -19 0 -84 -65 -84 -85 0 -6 -14 -32 -32 -55 -17 -24 -51 -84 -75 -133 -25 -49 -47 -86 -50 -83 -3 3 3 47 13 98 11 61 18 140 18 228 1 128 0 135 -19 137 -11 2 -28 -2 -38 -8z m53 -537 l65 -17 3 -50 c3 -62 -20 -111 -68 -143 -26 -17 -43 -22 -65 -17 -16 3 -50 9 -75 12 -59 7 -66 14 -74 73 -8 63 11 113 56 140 39 24 71 24 158 2z" transform="translate(0,129) scale(0.1,-0.1)" stroke="none" fill="#9B7044"/>

</g>

<g id="2" transform="translate(0,258.0)scale(0.8,0.8)">

<path d="M627 1209 c-10 -6 -31 -38 -47 -72 -34 -68 -38 -138 -20 -296 5 -47 7 -87 4 -90 -12 -12 -45 48 -80 144 -63 172 -92 215 -143 215 -45 0 -54 -20 -49 -103 5 -80 22 -120 79 -189 59 -70 53 -73 -51 -28 -89 39 -158 54 -205 46 -37 -7 -37 -7 -32 -49 4 -29 14 -48 31 -62 33 -26 33 -35 -1 -35 -60 0 -69 -36 -16 -63 15 -8 62 -22 103 -32 41 -10 79 -21 84 -26 9 -8 -73 -49 -98 -49 -6 0 -29 -17 -49 -38 -27 -28 -37 -46 -37 -70 0 -30 2 -32 38 -32 20 1 62 9 92 20 66 23 70 24 70 8 -1 -7 -23 -31 -49 -52 -27 -22 -57 -55 -66 -73 -16 -29 -17 -36 -4 -48 16 -17 43 -3 150 78 35 26 65 43 67 37 2 -6 -8 -29 -23 -51 -16 -24 -32 -70 -41 -116 -19 -99 -18 -101 12 -115 42 -19 89 13 122 84 15 32 30 58 33 58 4 0 12 -34 20 -75 13 -75 13 -75 44 -75 60 0 75 37 84 194 l6 109 34 -82 c25 -63 48 -98 94 -147 55 -59 63 -65 96 -62 36 3 36 3 39 53 2 43 -2 58 -29 99 -18 26 -47 64 -66 83 -18 20 -33 40 -33 44 0 21 29 6 58 -30 63 -78 204 -124 260 -85 53 37 8 107 -102 157 -82 39 -160 86 -153 94 3 2 43 -5 88 -16 112 -28 186 -28 230 2 49 32 49 60 2 90 -21 14 -62 32 -91 42 -52 17 -61 35 -17 35 30 0 77 18 87 33 30 47 -23 64 -128 41 -37 -7 -69 -12 -72 -10 -2 2 29 21 69 42 77 40 111 81 107 124 -3 23 -7 25 -65 28 -71 3 -131 -18 -210 -74 -54 -38 -79 -45 -64 -16 5 9 35 46 66 82 66 76 95 127 95 169 0 31 -22 51 -56 51 -19 0 -84 -65 -84 -85 0 -6 -14 -32 -32 -55 -17 -24 -51 -84 -75 -133 -25 -49 -47 -86 -50 -83 -3 3 3 47 13 98 11 61 18 140 18 228 1 128 0 135 -19 137 -11 2 -28 -2 -38 -8z m53 -537 l65 -17 3 -50 c3 -62 -20 -111 -68 -143 -26 -17 -43 -22 -65 -17 -16 3 -50 9 -75 12 -59 7 -66 14 -74 73 -8 63 11 113 56 140 39 24 71 24 158 2z" transform="translate(0,129) scale(0.1,-0.1)" stroke="none" fill="#9B7044"/>

</g>

<g id="3" transform="translate(0,387.0)scale(0.8,0.8)">

<path d="M627 1209 c-10 -6 -31 -38 -47 -72 -34 -68 -38 -138 -20 -296 5 -47 7 -87 4 -90 -12 -12 -45 48 -80 144 -63 172 -92 215 -143 215 -45 0 -54 -20 -49 -103 5 -80 22 -120 79 -189 59 -70 53 -73 -51 -28 -89 39 -158 54 -205 46 -37 -7 -37 -7 -32 -49 4 -29 14 -48 31 -62 33 -26 33 -35 -1 -35 -60 0 -69 -36 -16 -63 15 -8 62 -22 103 -32 41 -10 79 -21 84 -26 9 -8 -73 -49 -98 -49 -6 0 -29 -17 -49 -38 -27 -28 -37 -46 -37 -70 0 -30 2 -32 38 -32 20 1 62 9 92 20 66 23 70 24 70 8 -1 -7 -23 -31 -49 -52 -27 -22 -57 -55 -66 -73 -16 -29 -17 -36 -4 -48 16 -17 43 -3 150 78 35 26 65 43 67 37 2 -6 -8 -29 -23 -51 -16 -24 -32 -70 -41 -116 -19 -99 -18 -101 12 -115 42 -19 89 13 122 84 15 32 30 58 33 58 4 0 12 -34 20 -75 13 -75 13 -75 44 -75 60 0 75 37 84 194 l6 109 34 -82 c25 -63 48 -98 94 -147 55 -59 63 -65 96 -62 36 3 36 3 39 53 2 43 -2 58 -29 99 -18 26 -47 64 -66 83 -18 20 -33 40 -33 44 0 21 29 6 58 -30 63 -78 204 -124 260 -85 53 37 8 107 -102 157 -82 39 -160 86 -153 94 3 2 43 -5 88 -16 112 -28 186 -28 230 2 49 32 49 60 2 90 -21 14 -62 32 -91 42 -52 17 -61 35 -17 35 30 0 77 18 87 33 30 47 -23 64 -128 41 -37 -7 -69 -12 -72 -10 -2 2 29 21 69 42 77 40 111 81 107 124 -3 23 -7 25 -65 28 -71 3 -131 -18 -210 -74 -54 -38 -79 -45 -64 -16 5 9 35 46 66 82 66 76 95 127 95 169 0 31 -22 51 -56 51 -19 0 -84 -65 -84 -85 0 -6 -14 -32 -32 -55 -17 -24 -51 -84 -75 -133 -25 -49 -47 -86 -50 -83 -3 3 3 47 13 98 11 61 18 140 18 228 1 128 0 135 -19 137 -11 2 -28 -2 -38 -8z m53 -537 l65 -17 3 -50 c3 -62 -20 -111 -68 -143 -26 -17 -43 -22 -65 -17 -16 3 -50 9 -75 12 -59 7 -66 14 -74 73 -8 63 11 113 56 140 39 24 71 24 158 2z" transform="translate(0,129) scale(0.1,-0.1)" stroke="none" fill="#9B7044"/>

</g>

<g id="4" transform="translate(0,516.0)scale(0.8,0.8)">

<path d="M627 1209 c-10 -6 -31 -38 -47 -72 -34 -68 -38 -138 -20 -296 5 -47 7 -87 4 -90 -12 -12 -45 48 -80 144 -63 172 -92 215 -143 215 -45 0 -54 -20 -49 -103 5 -80 22 -120 79 -189 59 -70 53 -73 -51 -28 -89 39 -158 54 -205 46 -37 -7 -37 -7 -32 -49 4 -29 14 -48 31 -62 33 -26 33 -35 -1 -35 -60 0 -69 -36 -16 -63 15 -8 62 -22 103 -32 41 -10 79 -21 84 -26 9 -8 -73 -49 -98 -49 -6 0 -29 -17 -49 -38 -27 -28 -37 -46 -37 -70 0 -30 2 -32 38 -32 20 1 62 9 92 20 66 23 70 24 70 8 -1 -7 -23 -31 -49 -52 -27 -22 -57 -55 -66 -73 -16 -29 -17 -36 -4 -48 16 -17 43 -3 150 78 35 26 65 43 67 37 2 -6 -8 -29 -23 -51 -16 -24 -32 -70 -41 -116 -19 -99 -18 -101 12 -115 42 -19 89 13 122 84 15 32 30 58 33 58 4 0 12 -34 20 -75 13 -75 13 -75 44 -75 60 0 75 37 84 194 l6 109 34 -82 c25 -63 48 -98 94 -147 55 -59 63 -65 96 -62 36 3 36 3 39 53 2 43 -2 58 -29 99 -18 26 -47 64 -66 83 -18 20 -33 40 -33 44 0 21 29 6 58 -30 63 -78 204 -124 260 -85 53 37 8 107 -102 157 -82 39 -160 86 -153 94 3 2 43 -5 88 -16 112 -28 186 -28 230 2 49 32 49 60 2 90 -21 14 -62 32 -91 42 -52 17 -61 35 -17 35 30 0 77 18 87 33 30 47 -23 64 -128 41 -37 -7 -69 -12 -72 -10 -2 2 29 21 69 42 77 40 111 81 107 124 -3 23 -7 25 -65 28 -71 3 -131 -18 -210 -74 -54 -38 -79 -45 -64 -16 5 9 35 46 66 82 66 76 95 127 95 169 0 31 -22 51 -56 51 -19 0 -84 -65 -84 -85 0 -6 -14 -32 -32 -55 -17 -24 -51 -84 -75 -133 -25 -49 -47 -86 -50 -83 -3 3 3 47 13 98 11 61 18 140 18 228 1 128 0 135 -19 137 -11 2 -28 -2 -38 -8z m53 -537 l65 -17 3 -50 c3 -62 -20 -111 -68 -143 -26 -17 -43 -22 -65 -17 -16 3 -50 9 -75 12 -59 7 -66 14 -74 73 -8 63 11 113 56 140 39 24 71 24 158 2z" transform="translate(0,129) scale(0.1,-0.1)" stroke="none" fill="#9B7044"/>

</g>

</g>
<g id="col1" transform="translate(127, -47.5)">
<g id="0" transform="translate(0,0.0)scale(0.8,0.8)">

<path d="M627 1209 c-10 -6 -31 -38 -47 -72 -34 -68 -38 -138 -20 -296 5 -47 7 -87 4 -90 -12 -12 -45 48 -80 144 -63 172 -92 215 -143 215 -45 0 -54 -20 -49 -103 5 -80 22 -120 79 -189 59 -70 53 -73 -51 -28 -89 39 -158 54 -205 46 -37 -7 -37 -7 -32 -49 4 -29 14 -48 31 -62 33 -26 33 -35 -1 -35 -60 0 -69 -36 -16 -63 15 -8 62 -22 103 -32 41 -10 79 -21 84 -26 9 -8 -73 -49 -98 -49 -6 0 -29 -17 -49 -38 -27 -28 -37 -46 -37 -70 0 -30 2 -32 38 -32 20 1 62 9 92 20 66 23 70 24 70 8 -1 -7 -23 -31 -49 -52 -27 -22 -57 -55 -66 -73 -16 -29 -17 -36 -4 -48 16 -17 43 -3 150 78 35 26 65 43 67 37 2 -6 -8 -29 -23 -51 -16 -24 -32 -70 -41 -116 -19 -99 -18 -101 12 -115 42 -19 89 13 122 84 15 32 30 58 33 58 4 0 12 -34 20 -75 13 -75 13 -75 44 -75 60 0 75 37 84 194 l6 109 34 -82 c25 -63 48 -98 94 -147 55 -59 63 -65 96 -62 36 3 36 3 39 53 2 43 -2 58 -29 99 -18 26 -47 64 -66 83 -18 20 -33 40 -33 44 0 21 29 6 58 -30 63 -78 204 -124 260 -85 53 37 8 107 -102 157 -82 39 -160 86 -153 94 3 2 43 -5 88 -16 112 -28 186 -28 230 2 49 32 49 60 2 90 -21 14 -62 32 -91 42 -52 17 -61 35 -17 35 30 0 77 18 87 33 30 47 -23 64 -128 41 -37 -7 -69 -12 -72 -10 -2 2 29 21 69 42 77 40 111 81 107 124 -3 23 -7 25 -65 28 -71 3 -131 -18 -210 -74 -54 -38 -79 -45 -64 -16 5 9 35 46 66 82 66 76 95 127 95 169 0 31 -22 51 -56 51 -19 0 -84 -65 -84 -85 0 -6 -14 -32 -32 -55 -17 -24 -51 -84 -75 -133 -25 -49 -47 -86 -50 -83 -3 3 3 47 13 98 11 61 18 140 18 228 1 128 0 135 -19 137 -11 2 -28 -2 -38 -8z m53 -537 l65 -17 3 -50 c3 -62 -20 -111 -68 -143 -26 -17 -43 -22 -65 -17 -16 3 -50 9 -75 12 -59 7 -66 14 -74 73 -8 63 11 113 56 140 39 24 71 24 158 2z" transform="translate(0,129) scale(0.1,-0.1)" stroke="none" fill="#9B7044"/>

</g>

<g id="1" transform="translate(0,129.0)scale(0.8,0.8)">

<path d="M627 1209 c-10 -6 -31 -38 -47 -72 -34 -68 -38 -138 -20 -296 5 -47 7 -87 4 -90 -12 -12 -45 48 -80 144 -63 172 -92 215 -143 215 -45 0 -54 -20 -49 -103 5 -80 22 -120 79 -189 59 -70 53 -73 -51 -28 -89 39 -158 54 -205 46 -37 -7 -37 -7 -32 -49 4 -29 14 -48 31 -62 33 -26 33 -35 -1 -35 -60 0 -69 -36 -16 -63 15 -8 62 -22 103 -32 41 -10 79 -21 84 -26 9 -8 -73 -49 -98 -49 -6 0 -29 -17 -49 -38 -27 -28 -37 -46 -37 -70 0 -30 2 -32 38 -32 20 1 62 9 92 20 66 23 70 24 70 8 -1 -7 -23 -31 -49 -52 -27 -22 -57 -55 -66 -73 -16 -29 -17 -36 -4 -48 16 -17 43 -3 150 78 35 26 65 43 67 37 2 -6 -8 -29 -23 -51 -16 -24 -32 -70 -41 -116 -19 -99 -18 -101 12 -115 42 -19 89 13 122 84 15 32 30 58 33 58 4 0 12 -34 20 -75 13 -75 13 -75 44 -75 60 0 75 37 84 194 l6 109 34 -82 c25 -63 48 -98 94 -147 55 -59 63 -65 96 -62 36 3 36 3 39 53 2 43 -2 58 -29 99 -18 26 -47 64 -66 83 -18 20 -33 40 -33 44 0 21 29 6 58 -30 63 -78 204 -124 260 -85 53 37 8 107 -102 157 -82 39 -160 86 -153 94 3 2 43 -5 88 -16 112 -28 186 -28 230 2 49 32 49 60 2 90 -21 14 -62 32 -91 42 -52 17 -61 35 -17 35 30 0 77 18 87 33 30 47 -23 64 -128 41 -37 -7 -69 -12 -72 -10 -2 2 29 21 69 42 77 40 111 81 107 124 -3 23 -7 25 -65 28 -71 3 -131 -18 -210 -74 -54 -38 -79 -45 -64 -16 5 9 35 46 66 82 66 76 95 127 95 169 0 31 -22 51 -56 51 -19 0 -84 -65 -84 -85 0 -6 -14 -32 -32 -55 -17 -24 -51 -84 -75 -133 -25 -49 -47 -86 -50 -83 -3 3 3 47 13 98 11 61 18 140 18 228 1 128 0 135 -19 137 -11 2 -28 -2 -38 -8z m53 -537 l65 -17 3 -50 c3 -62 -20 -111 -68 -143 -26 -17 -43 -22 -65 -17 -16 3 -50 9 -75 12 -59 7 -66 14 -74 73 -8 63 11 113 56 140 39 24 71 24 158 2z" transform="translate(0,129) scale(0.1,-0.1)" stroke="none" fill="#9B7044"/>

</g>

<g id="2" transform="translate(0,258.0)scale(0.8,0.8)">

<path d="M627 1209 c-10 -6 -31 -38 -47 -72 -34 -68 -38 -138 -20 -296 5 -47 7 -87 4 -90 -12 -12 -45 48 -80 144 -63 172 -92 215 -143 215 -45 0 -54 -20 -49 -103 5 -80 22 -120 79 -189 59 -70 53 -73 -51 -28 -89 39 -158 54 -205 46 -37 -7 -37 -7 -32 -49 4 -29 14 -48 31 -62 33 -26 33 -35 -1 -35 -60 0 -69 -36 -16 -63 15 -8 62 -22 103 -32 41 -10 79 -21 84 -26 9 -8 -73 -49 -98 -49 -6 0 -29 -17 -49 -38 -27 -28 -37 -46 -37 -70 0 -30 2 -32 38 -32 20 1 62 9 92 20 66 23 70 24 70 8 -1 -7 -23 -31 -49 -52 -27 -22 -57 -55 -66 -73 -16 -29 -17 -36 -4 -48 16 -17 43 -3 150 78 35 26 65 43 67 37 2 -6 -8 -29 -23 -51 -16 -24 -32 -70 -41 -116 -19 -99 -18 -101 12 -115 42 -19 89 13 122 84 15 32 30 58 33 58 4 0 12 -34 20 -75 13 -75 13 -75 44 -75 60 0 75 37 84 194 l6 109 34 -82 c25 -63 48 -98 94 -147 55 -59 63 -65 96 -62 36 3 36 3 39 53 2 43 -2 58 -29 99 -18 26 -47 64 -66 83 -18 20 -33 40 -33 44 0 21 29 6 58 -30 63 -78 204 -124 260 -85 53 37 8 107 -102 157 -82 39 -160 86 -153 94 3 2 43 -5 88 -16 112 -28 186 -28 230 2 49 32 49 60 2 90 -21 14 -62 32 -91 42 -52 17 -61 35 -17 35 30 0 77 18 87 33 30 47 -23 64 -128 41 -37 -7 -69 -12 -72 -10 -2 2 29 21 69 42 77 40 111 81 107 124 -3 23 -7 25 -65 28 -71 3 -131 -18 -210 -74 -54 -38 -79 -45 -64 -16 5 9 35 46 66 82 66 76 95 127 95 169 0 31 -22 51 -56 51 -19 0 -84 -65 -84 -85 0 -6 -14 -32 -32 -55 -17 -24 -51 -84 -75 -133 -25 -49 -47 -86 -50 -83 -3 3 3 47 13 98 11 61 18 140 18 228 1 128 0 135 -19 137 -11 2 -28 -2 -38 -8z m53 -537 l65 -17 3 -50 c3 -62 -20 -111 -68 -143 -26 -17 -43 -22 -65 -17 -16 3 -50 9 -75 12 -59 7 -66 14 -74 73 -8 63 11 113 56 140 39 24 71 24 158 2z" transform="translate(0,129) scale(0.1,-0.1)" stroke="none" fill="#9B7044"/>

</g>

<g id="3" transform="translate(0,387.0)scale(0.8,0.8)">

<path d="M627 1209 c-10 -6 -31 -38 -47 -72 -34 -68 -38 -138 -20 -296 5 -47 7 -87 4 -90 -12 -12 -45 48 -80 144 -63 172 -92 215 -143 215 -45 0 -54 -20 -49 -103 5 -80 22 -120 79 -189 59 -70 53 -73 -51 -28 -89 39 -158 54 -205 46 -37 -7 -37 -7 -32 -49 4 -29 14 -48 31 -62 33 -26 33 -35 -1 -35 -60 0 -69 -36 -16 -63 15 -8 62 -22 103 -32 41 -10 79 -21 84 -26 9 -8 -73 -49 -98 -49 -6 0 -29 -17 -49 -38 -27 -28 -37 -46 -37 -70 0 -30 2 -32 38 -32 20 1 62 9 92 20 66 23 70 24 70 8 -1 -7 -23 -31 -49 -52 -27 -22 -57 -55 -66 -73 -16 -29 -17 -36 -4 -48 16 -17 43 -3 150 78 35 26 65 43 67 37 2 -6 -8 -29 -23 -51 -16 -24 -32 -70 -41 -116 -19 -99 -18 -101 12 -115 42 -19 89 13 122 84 15 32 30 58 33 58 4 0 12 -34 20 -75 13 -75 13 -75 44 -75 60 0 75 37 84 194 l6 109 34 -82 c25 -63 48 -98 94 -147 55 -59 63 -65 96 -62 36 3 36 3 39 53 2 43 -2 58 -29 99 -18 26 -47 64 -66 83 -18 20 -33 40 -33 44 0 21 29 6 58 -30 63 -78 204 -124 260 -85 53 37 8 107 -102 157 -82 39 -160 86 -153 94 3 2 43 -5 88 -16 112 -28 186 -28 230 2 49 32 49 60 2 90 -21 14 -62 32 -91 42 -52 17 -61 35 -17 35 30 0 77 18 87 33 30 47 -23 64 -128 41 -37 -7 -69 -12 -72 -10 -2 2 29 21 69 42 77 40 111 81 107 124 -3 23 -7 25 -65 28 -71 3 -131 -18 -210 -74 -54 -38 -79 -45 -64 -16 5 9 35 46 66 82 66 76 95 127 95 169 0 31 -22 51 -56 51 -19 0 -84 -65 -84 -85 0 -6 -14 -32 -32 -55 -17 -24 -51 -84 -75 -133 -25 -49 -47 -86 -50 -83 -3 3 3 47 13 98 11 61 18 140 18 228 1 128 0 135 -19 137 -11 2 -28 -2 -38 -8z m53 -537 l65 -17 3 -50 c3 -62 -20 -111 -68 -143 -26 -17 -43 -22 -65 -17 -16 3 -50 9 -75 12 -59 7 -66 14 -74 73 -8 63 11 113 56 140 39 24 71 24 158 2z" transform="translate(0,129) scale(0.1,-0.1)" stroke="none" fill="#9B7044"/>

</g>

<g id="4" transform="translate(0,516.0)scale(0.8,0.8)">

<path d="M627 1209 c-10 -6 -31 -38 -47 -72 -34 -68 -38 -138 -20 -296 5 -47 7 -87 4 -90 -12 -12 -45 48 -80 144 -63 172 -92 215 -143 215 -45 0 -54 -20 -49 -103 5 -80 22 -120 79 -189 59 -70 53 -73 -51 -28 -89 39 -158 54 -205 46 -37 -7 -37 -7 -32 -49 4 -29 14 -48 31 -62 33 -26 33 -35 -1 -35 -60 0 -69 -36 -16 -63 15 -8 62 -22 103 -32 41 -10 79 -21 84 -26 9 -8 -73 -49 -98 -49 -6 0 -29 -17 -49 -38 -27 -28 -37 -46 -37 -70 0 -30 2 -32 38 -32 20 1 62 9 92 20 66 23 70 24 70 8 -1 -7 -23 -31 -49 -52 -27 -22 -57 -55 -66 -73 -16 -29 -17 -36 -4 -48 16 -17 43 -3 150 78 35 26 65 43 67 37 2 -6 -8 -29 -23 -51 -16 -24 -32 -70 -41 -116 -19 -99 -18 -101 12 -115 42 -19 89 13 122 84 15 32 30 58 33 58 4 0 12 -34 20 -75 13 -75 13 -75 44 -75 60 0 75 37 84 194 l6 109 34 -82 c25 -63 48 -98 94 -147 55 -59 63 -65 96 -62 36 3 36 3 39 53 2 43 -2 58 -29 99 -18 26 -47 64 -66 83 -18 20 -33 40 -33 44 0 21 29 6 58 -30 63 -78 204 -124 260 -85 53 37 8 107 -102 157 -82 39 -160 86 -153 94 3 2 43 -5 88 -16 112 -28 186 -28 230 2 49 32 49 60 2 90 -21 14 -62 32 -91 42 -52 17 -61 35 -17 35 30 0 77 18 87 33 30 47 -23 64 -128 41 -37 -7 -69 -12 -72 -10 -2 2 29 21 69 42 77 40 111 81 107 124 -3 23 -7 25 -65 28 -71 3 -131 -18 -210 -74 -54 -38 -79 -45 -64 -16 5 9 35 46 66 82 66 76 95 127 95 169 0 31 -22 51 -56 51 -19 0 -84 -65 -84 -85 0 -6 -14 -32 -32 -55 -17 -24 -51 -84 -75 -133 -25 -49 -47 -86 -50 -83 -3 3 3 47 13 98 11 61 18 140 18 228 1 128 0 135 -19 137 -11 2 -28 -2 -38 -8z m53 -537 l65 -17 3 -50 c3 -62 -20 -111 -68 -143 -26 -17 -43 -22 -65 -17 -16 3 -50 9 -75 12 -59 7 -66 14 -74 73 -8 63 11 113 56 140 39 24 71 24 158 2z" transform="translate(0,129) scale(0.1,-0.1)" stroke="none" fill="#9B7044"/>

</g>

</g>
<g id="col2" transform="translate(254, 17)">
<g id="0" transform="translate(0,0.0)scale(0.8,0.8)">

<path d="M627 1209 c-10 -6 -31 -38 -47 -72 -34 -68 -38 -138 -20 -296 5 -47 7 -87 4 -90 -12 -12 -45 48 -80 144 -63 172 -92 215 -143 215 -45 0 -54 -20 -49 -103 5 -80 22 -120 79 -189 59 -70 53 -73 -51 -28 -89 39 -158 54 -205 46 -37 -7 -37 -7 -32 -49 4 -29 14 -48 31 -62 33 -26 33 -35 -1 -35 -60 0 -69 -36 -16 -63 15 -8 62 -22 103 -32 41 -10 79 -21 84 -26 9 -8 -73 -49 -98 -49 -6 0 -29 -17 -49 -38 -27 -28 -37 -46 -37 -70 0 -30 2 -32 38 -32 20 1 62 9 92 20 66 23 70 24 70 8 -1 -7 -23 -31 -49 -52 -27 -22 -57 -55 -66 -73 -16 -29 -17 -36 -4 -48 16 -17 43 -3 150 78 35 26 65 43 67 37 2 -6 -8 -29 -23 -51 -16 -24 -32 -70 -41 -116 -19 -99 -18 -101 12 -115 42 -19 89 13 122 84 15 32 30 58 33 58 4 0 12 -34 20 -75 13 -75 13 -75 44 -75 60 0 75 37 84 194 l6 109 34 -82 c25 -63 48 -98 94 -147 55 -59 63 -65 96 -62 36 3 36 3 39 53 2 43 -2 58 -29 99 -18 26 -47 64 -66 83 -18 20 -33 40 -33 44 0 21 29 6 58 -30 63 -78 204 -124 260 -85 53 37 8 107 -102 157 -82 39 -160 86 -153 94 3 2 43 -5 88 -16 112 -28 186 -28 230 2 49 32 49 60 2 90 -21 14 -62 32 -91 42 -52 17 -61 35 -17 35 30 0 77 18 87 33 30 47 -23 64 -128 41 -37 -7 -69 -12 -72 -10 -2 2 29 21 69 42 77 40 111 81 107 124 -3 23 -7 25 -65 28 -71 3 -131 -18 -210 -74 -54 -38 -79 -45 -64 -16 5 9 35 46 66 82 66 76 95 127 95 169 0 31 -22 51 -56 51 -19 0 -84 -65 -84 -85 0 -6 -14 -32 -32 -55 -17 -24 -51 -84 -75 -133 -25 -49 -47 -86 -50 -83 -3 3 3 47 13 98 11 61 18 140 18 228 1 128 0 135 -19 137 -11 2 -28 -2 -38 -8z m53 -537 l65 -17 3 -50 c3 -62 -20 -111 -68 -143 -26 -17 -43 -22 -65 -17 -16 3 -50 9 -75 12 -59 7 -66 14 -74 73 -8 63 11 113 56 140 39 24 71 24 158 2z" transform="translate(0,129) scale(0.1,-0.1)" stroke="none" fill="#9B7044"/>

</g>

<g id="1" transform="translate(0,129.0)scale(0.8,0.8)">

<path d="M627 1209 c-10 -6 -31 -38 -47 -72 -34 -68 -38 -138 -20 -296 5 -47 7 -87 4 -90 -12 -12 -45 48 -80 144 -63 172 -92 215 -143 215 -45 0 -54 -20 -49 -103 5 -80 22 -120 79 -189 59 -70 53 -73 -51 -28 -89 39 -158 54 -205 46 -37 -7 -37 -7 -32 -49 4 -29 14 -48 31 -62 33 -26 33 -35 -1 -35 -60 0 -69 -36 -16 -63 15 -8 62 -22 103 -32 41 -10 79 -21 84 -26 9 -8 -73 -49 -98 -49 -6 0 -29 -17 -49 -38 -27 -28 -37 -46 -37 -70 0 -30 2 -32 38 -32 20 1 62 9 92 20 66 23 70 24 70 8 -1 -7 -23 -31 -49 -52 -27 -22 -57 -55 -66 -73 -16 -29 -17 -36 -4 -48 16 -17 43 -3 150 78 35 26 65 43 67 37 2 -6 -8 -29 -23 -51 -16 -24 -32 -70 -41 -116 -19 -99 -18 -101 12 -115 42 -19 89 13 122 84 15 32 30 58 33 58 4 0 12 -34 20 -75 13 -75 13 -75 44 -75 60 0 75 37 84 194 l6 109 34 -82 c25 -63 48 -98 94 -147 55 -59 63 -65 96 -62 36 3 36 3 39 53 2 43 -2 58 -29 99 -18 26 -47 64 -66 83 -18 20 -33 40 -33 44 0 21 29 6 58 -30 63 -78 204 -124 260 -85 53 37 8 107 -102 157 -82 39 -160 86 -153 94 3 2 43 -5 88 -16 112 -28 186 -28 230 2 49 32 49 60 2 90 -21 14 -62 32 -91 42 -52 17 -61 35 -17 35 30 0 77 18 87 33 30 47 -23 64 -128 41 -37 -7 -69 -12 -72 -10 -2 2 29 21 69 42 77 40 111 81 107 124 -3 23 -7 25 -65 28 -71 3 -131 -18 -210 -74 -54 -38 -79 -45 -64 -16 5 9 35 46 66 82 66 76 95 127 95 169 0 31 -22 51 -56 51 -19 0 -84 -65 -84 -85 0 -6 -14 -32 -32 -55 -17 -24 -51 -84 -75 -133 -25 -49 -47 -86 -50 -83 -3 3 3 47 13 98 11 61 18 140 18 228 1 128 0 135 -19 137 -11 2 -28 -2 -38 -8z m53 -537 l65 -17 3 -50 c3 -62 -20 -111 -68 -143 -26 -17 -43 -22 -65 -17 -16 3 -50 9 -75 12 -59 7 -66 14 -74 73 -8 63 11 113 56 140 39 24 71 24 158 2z" transform="translate(0,129) scale(0.1,-0.1)" stroke="none" fill="#9B7044"/>

</g>

<g id="2" transform="translate(0,258.0)scale(0.8,0.8)">

<path d="M627 1209 c-10 -6 -31 -38 -47 -72 -34 -68 -38 -138 -20 -296 5 -47 7 -87 4 -90 -12 -12 -45 48 -80 144 -63 172 -92 215 -143 215 -45 0 -54 -20 -49 -103 5 -80 22 -120 79 -189 59 -70 53 -73 -51 -28 -89 39 -158 54 -205 46 -37 -7 -37 -7 -32 -49 4 -29 14 -48 31 -62 33 -26 33 -35 -1 -35 -60 0 -69 -36 -16 -63 15 -8 62 -22 103 -32 41 -10 79 -21 84 -26 9 -8 -73 -49 -98 -49 -6 0 -29 -17 -49 -38 -27 -28 -37 -46 -37 -70 0 -30 2 -32 38 -32 20 1 62 9 92 20 66 23 70 24 70 8 -1 -7 -23 -31 -49 -52 -27 -22 -57 -55 -66 -73 -16 -29 -17 -36 -4 -48 16 -17 43 -3 150 78 35 26 65 43 67 37 2 -6 -8 -29 -23 -51 -16 -24 -32 -70 -41 -116 -19 -99 -18 -101 12 -115 42 -19 89 13 122 84 15 32 30 58 33 58 4 0 12 -34 20 -75 13 -75 13 -75 44 -75 60 0 75 37 84 194 l6 109 34 -82 c25 -63 48 -98 94 -147 55 -59 63 -65 96 -62 36 3 36 3 39 53 2 43 -2 58 -29 99 -18 26 -47 64 -66 83 -18 20 -33 40 -33 44 0 21 29 6 58 -30 63 -78 204 -124 260 -85 53 37 8 107 -102 157 -82 39 -160 86 -153 94 3 2 43 -5 88 -16 112 -28 186 -28 230 2 49 32 49 60 2 90 -21 14 -62 32 -91 42 -52 17 -61 35 -17 35 30 0 77 18 87 33 30 47 -23 64 -128 41 -37 -7 -69 -12 -72 -10 -2 2 29 21 69 42 77 40 111 81 107 124 -3 23 -7 25 -65 28 -71 3 -131 -18 -210 -74 -54 -38 -79 -45 -64 -16 5 9 35 46 66 82 66 76 95 127 95 169 0 31 -22 51 -56 51 -19 0 -84 -65 -84 -85 0 -6 -14 -32 -32 -55 -17 -24 -51 -84 -75 -133 -25 -49 -47 -86 -50 -83 -3 3 3 47 13 98 11 61 18 140 18 228 1 128 0 135 -19 137 -11 2 -28 -2 -38 -8z m53 -537 l65 -17 3 -50 c3 -62 -20 -111 -68 -143 -26 -17 -43 -22 -65 -17 -16 3 -50 9 -75 12 -59 7 -66 14 -74 73 -8 63 11 113 56 140 39 24 71 24 158 2z" transform="translate(0,129) scale(0.1,-0.1)" stroke="none" fill="#9B7044"/>

</g>

<g id="3" transform="translate(0,387.0)scale(0.8,0.8)">

<path d="M627 1209 c-10 -6 -31 -38 -47 -72 -34 -68 -38 -138 -20 -296 5 -47 7 -87 4 -90 -12 -12 -45 48 -80 144 -63 172 -92 215 -143 215 -45 0 -54 -20 -49 -103 5 -80 22 -120 79 -189 59 -70 53 -73 -51 -28 -89 39 -158 54 -205 46 -37 -7 -37 -7 -32 -49 4 -29 14 -48 31 -62 33 -26 33 -35 -1 -35 -60 0 -69 -36 -16 -63 15 -8 62 -22 103 -32 41 -10 79 -21 84 -26 9 -8 -73 -49 -98 -49 -6 0 -29 -17 -49 -38 -27 -28 -37 -46 -37 -70 0 -30 2 -32 38 -32 20 1 62 9 92 20 66 23 70 24 70 8 -1 -7 -23 -31 -49 -52 -27 -22 -57 -55 -66 -73 -16 -29 -17 -36 -4 -48 16 -17 43 -3 150 78 35 26 65 43 67 37 2 -6 -8 -29 -23 -51 -16 -24 -32 -70 -41 -116 -19 -99 -18 -101 12 -115 42 -19 89 13 122 84 15 32 30 58 33 58 4 0 12 -34 20 -75 13 -75 13 -75 44 -75 60 0 75 37 84 194 l6 109 34 -82 c25 -63 48 -98 94 -147 55 -59 63 -65 96 -62 36 3 36 3 39 53 2 43 -2 58 -29 99 -18 26 -47 64 -66 83 -18 20 -33 40 -33 44 0 21 29 6 58 -30 63 -78 204 -124 260 -85 53 37 8 107 -102 157 -82 39 -160 86 -153 94 3 2 43 -5 88 -16 112 -28 186 -28 230 2 49 32 49 60 2 90 -21 14 -62 32 -91 42 -52 17 -61 35 -17 35 30 0 77 18 87 33 30 47 -23 64 -128 41 -37 -7 -69 -12 -72 -10 -2 2 29 21 69 42 77 40 111 81 107 124 -3 23 -7 25 -65 28 -71 3 -131 -18 -210 -74 -54 -38 -79 -45 -64 -16 5 9 35 46 66 82 66 76 95 127 95 169 0 31 -22 51 -56 51 -19 0 -84 -65 -84 -85 0 -6 -14 -32 -32 -55 -17 -24 -51 -84 -75 -133 -25 -49 -47 -86 -50 -83 -3 3 3 47 13 98 11 61 18 140 18 228 1 128 0 135 -19 137 -11 2 -28 -2 -38 -8z m53 -537 l65 -17 3 -50 c3 -62 -20 -111 -68 -143 -26 -17 -43 -22 -65 -17 -16 3 -50 9 -75 12 -59 7 -66 14 -74 73 -8 63 11 113 56 140 39 24 71 24 158 2z" transform="translate(0,129) scale(0.1,-0.1)" stroke="none" fill="#9B7044"/>

</g>

<g id="4" transform="translate(0,516.0)scale(0.8,0.8)">

<path d="M627 1209 c-10 -6 -31 -38 -47 -72 -34 -68 -38 -138 -20 -296 5 -47 7 -87 4 -90 -12 -12 -45 48 -80 144 -63 172 -92 215 -143 215 -45 0 -54 -20 -49 -103 5 -80 22 -120 79 -189 59 -70 53 -73 -51 -28 -89 39 -158 54 -205 46 -37 -7 -37 -7 -32 -49 4 -29 14 -48 31 -62 33 -26 33 -35 -1 -35 -60 0 -69 -36 -16 -63 15 -8 62 -22 103 -32 41 -10 79 -21 84 -26 9 -8 -73 -49 -98 -49 -6 0 -29 -17 -49 -38 -27 -28 -37 -46 -37 -70 0 -30 2 -32 38 -32 20 1 62 9 92 20 66 23 70 24 70 8 -1 -7 -23 -31 -49 -52 -27 -22 -57 -55 -66 -73 -16 -29 -17 -36 -4 -48 16 -17 43 -3 150 78 35 26 65 43 67 37 2 -6 -8 -29 -23 -51 -16 -24 -32 -70 -41 -116 -19 -99 -18 -101 12 -115 42 -19 89 13 122 84 15 32 30 58 33 58 4 0 12 -34 20 -75 13 -75 13 -75 44 -75 60 0 75 37 84 194 l6 109 34 -82 c25 -63 48 -98 94 -147 55 -59 63 -65 96 -62 36 3 36 3 39 53 2 43 -2 58 -29 99 -18 26 -47 64 -66 83 -18 20 -33 40 -33 44 0 21 29 6 58 -30 63 -78 204 -124 260 -85 53 37 8 107 -102 157 -82 39 -160 86 -153 94 3 2 43 -5 88 -16 112 -28 186 -28 230 2 49 32 49 60 2 90 -21 14 -62 32 -91 42 -52 17 -61 35 -17 35 30 0 77 18 87 33 30 47 -23 64 -128 41 -37 -7 -69 -12 -72 -10 -2 2 29 21 69 42 77 40 111 81 107 124 -3 23 -7 25 -65 28 -71 3 -131 -18 -210 -74 -54 -38 -79 -45 -64 -16 5 9 35 46 66 82 66 76 95 127 95 169 0 31 -22 51 -56 51 -19 0 -84 -65 -84 -85 0 -6 -14 -32 -32 -55 -17 -24 -51 -84 -75 -133 -25 -49 -47 -86 -50 -83 -3 3 3 47 13 98 11 61 18 140 18 228 1 128 0 135 -19 137 -11 2 -28 -2 -38 -8z m53 -537 l65 -17 3 -50 c3 -62 -20 -111 -68 -143 -26 -17 -43 -22 -65 -17 -16 3 -50 9 -75 12 -59 7 -66 14 -74 73 -8 63 11 113 56 140 39 24 71 24 158 2z" transform="translate(0,129) scale(0.1,-0.1)" stroke="none" fill="#9B7044"/>

</g>

</g>
<g id="col3" transform="translate(381, -47.5)">
<g id="0" transform="translate(0,0.0)scale(0.8,0.8)">

<path d="M627 1209 c-10 -6 -31 -38 -47 -72 -34 -68 -38 -138 -20 -296 5 -47 7 -87 4 -90 -12 -12 -45 48 -80 144 -63 172 -92 215 -143 215 -45 0 -54 -20 -49 -103 5 -80 22 -120 79 -189 59 -70 53 -73 -51 -28 -89 39 -158 54 -205 46 -37 -7 -37 -7 -32 -49 4 -29 14 -48 31 -62 33 -26 33 -35 -1 -35 -60 0 -69 -36 -16 -63 15 -8 62 -22 103 -32 41 -10 79 -21 84 -26 9 -8 -73 -49 -98 -49 -6 0 -29 -17 -49 -38 -27 -28 -37 -46 -37 -70 0 -30 2 -32 38 -32 20 1 62 9 92 20 66 23 70 24 70 8 -1 -7 -23 -31 -49 -52 -27 -22 -57 -55 -66 -73 -16 -29 -17 -36 -4 -48 16 -17 43 -3 150 78 35 26 65 43 67 37 2 -6 -8 -29 -23 -51 -16 -24 -32 -70 -41 -116 -19 -99 -18 -101 12 -115 42 -19 89 13 122 84 15 32 30 58 33 58 4 0 12 -34 20 -75 13 -75 13 -75 44 -75 60 0 75 37 84 194 l6 109 34 -82 c25 -63 48 -98 94 -147 55 -59 63 -65 96 -62 36 3 36 3 39 53 2 43 -2 58 -29 99 -18 26 -47 64 -66 83 -18 20 -33 40 -33 44 0 21 29 6 58 -30 63 -78 204 -124 260 -85 53 37 8 107 -102 157 -82 39 -160 86 -153 94 3 2 43 -5 88 -16 112 -28 186 -28 230 2 49 32 49 60 2 90 -21 14 -62 32 -91 42 -52 17 -61 35 -17 35 30 0 77 18 87 33 30 47 -23 64 -128 41 -37 -7 -69 -12 -72 -10 -2 2 29 21 69 42 77 40 111 81 107 124 -3 23 -7 25 -65 28 -71 3 -131 -18 -210 -74 -54 -38 -79 -45 -64 -16 5 9 35 46 66 82 66 76 95 127 95 169 0 31 -22 51 -56 51 -19 0 -84 -65 -84 -85 0 -6 -14 -32 -32 -55 -17 -24 -51 -84 -75 -133 -25 -49 -47 -86 -50 -83 -3 3 3 47 13 98 11 61 18 140 18 228 1 128 0 135 -19 137 -11 2 -28 -2 -38 -8z m53 -537 l65 -17 3 -50 c3 -62 -20 -111 -68 -143 -26 -17 -43 -22 -65 -17 -16 3 -50 9 -75 12 -59 7 -66 14 -74 73 -8 63 11 113 56 140 39 24 71 24 158 2z" transform="translate(0,129) scale(0.1,-0.1)" stroke="none" fill="#9B7044"/>

</g>

<g id="1" transform="translate(0,129.0)scale(0.8,0.8)">

<path d="M627 1209 c-10 -6 -31 -38 -47 -72 -34 -68 -38 -138 -20 -296 5 -47 7 -87 4 -90 -12 -12 -45 48 -80 144 -63 172 -92 215 -143 215 -45 0 -54 -20 -49 -103 5 -80 22 -120 79 -189 59 -70 53 -73 -51 -28 -89 39 -158 54 -205 46 -37 -7 -37 -7 -32 -49 4 -29 14 -48 31 -62 33 -26 33 -35 -1 -35 -60 0 -69 -36 -16 -63 15 -8 62 -22 103 -32 41 -10 79 -21 84 -26 9 -8 -73 -49 -98 -49 -6 0 -29 -17 -49 -38 -27 -28 -37 -46 -37 -70 0 -30 2 -32 38 -32 20 1 62 9 92 20 66 23 70 24 70 8 -1 -7 -23 -31 -49 -52 -27 -22 -57 -55 -66 -73 -16 -29 -17 -36 -4 -48 16 -17 43 -3 150 78 35 26 65 43 67 37 2 -6 -8 -29 -23 -51 -16 -24 -32 -70 -41 -116 -19 -99 -18 -101 12 -115 42 -19 89 13 122 84 15 32 30 58 33 58 4 0 12 -34 20 -75 13 -75 13 -75 44 -75 60 0 75 37 84 194 l6 109 34 -82 c25 -63 48 -98 94 -147 55 -59 63 -65 96 -62 36 3 36 3 39 53 2 43 -2 58 -29 99 -18 26 -47 64 -66 83 -18 20 -33 40 -33 44 0 21 29 6 58 -30 63 -78 204 -124 260 -85 53 37 8 107 -102 157 -82 39 -160 86 -153 94 3 2 43 -5 88 -16 112 -28 186 -28 230 2 49 32 49 60 2 90 -21 14 -62 32 -91 42 -52 17 -61 35 -17 35 30 0 77 18 87 33 30 47 -23 64 -128 41 -37 -7 -69 -12 -72 -10 -2 2 29 21 69 42 77 40 111 81 107 124 -3 23 -7 25 -65 28 -71 3 -131 -18 -210 -74 -54 -38 -79 -45 -64 -16 5 9 35 46 66 82 66 76 95 127 95 169 0 31 -22 51 -56 51 -19 0 -84 -65 -84 -85 0 -6 -14 -32 -32 -55 -17 -24 -51 -84 -75 -133 -25 -49 -47 -86 -50 -83 -3 3 3 47 13 98 11 61 18 140 18 228 1 128 0 135 -19 137 -11 2 -28 -2 -38 -8z m53 -537 l65 -17 3 -50 c3 -62 -20 -111 -68 -143 -26 -17 -43 -22 -65 -17 -16 3 -50 9 -75 12 -59 7 -66 14 -74 73 -8 63 11 113 56 140 39 24 71 24 158 2z" transform="translate(0,129) scale(0.1,-0.1)" stroke="none" fill="#9B7044"/>

</g>

<g id="2" transform="translate(0,258.0)scale(0.8,0.8)">

<path d="M627 1209 c-10 -6 -31 -38 -47 -72 -34 -68 -38 -138 -20 -296 5 -47 7 -87 4 -90 -12 -12 -45 48 -80 144 -63 172 -92 215 -143 215 -45 0 -54 -20 -49 -103 5 -80 22 -120 79 -189 59 -70 53 -73 -51 -28 -89 39 -158 54 -205 46 -37 -7 -37 -7 -32 -49 4 -29 14 -48 31 -62 33 -26 33 -35 -1 -35 -60 0 -69 -36 -16 -63 15 -8 62 -22 103 -32 41 -10 79 -21 84 -26 9 -8 -73 -49 -98 -49 -6 0 -29 -17 -49 -38 -27 -28 -37 -46 -37 -70 0 -30 2 -32 38 -32 20 1 62 9 92 20 66 23 70 24 70 8 -1 -7 -23 -31 -49 -52 -27 -22 -57 -55 -66 -73 -16 -29 -17 -36 -4 -48 16 -17 43 -3 150 78 35 26 65 43 67 37 2 -6 -8 -29 -23 -51 -16 -24 -32 -70 -41 -116 -19 -99 -18 -101 12 -115 42 -19 89 13 122 84 15 32 30 58 33 58 4 0 12 -34 20 -75 13 -75 13 -75 44 -75 60 0 75 37 84 194 l6 109 34 -82 c25 -63 48 -98 94 -147 55 -59 63 -65 96 -62 36 3 36 3 39 53 2 43 -2 58 -29 99 -18 26 -47 64 -66 83 -18 20 -33 40 -33 44 0 21 29 6 58 -30 63 -78 204 -124 260 -85 53 37 8 107 -102 157 -82 39 -160 86 -153 94 3 2 43 -5 88 -16 112 -28 186 -28 230 2 49 32 49 60 2 90 -21 14 -62 32 -91 42 -52 17 -61 35 -17 35 30 0 77 18 87 33 30 47 -23 64 -128 41 -37 -7 -69 -12 -72 -10 -2 2 29 21 69 42 77 40 111 81 107 124 -3 23 -7 25 -65 28 -71 3 -131 -18 -210 -74 -54 -38 -79 -45 -64 -16 5 9 35 46 66 82 66 76 95 127 95 169 0 31 -22 51 -56 51 -19 0 -84 -65 -84 -85 0 -6 -14 -32 -32 -55 -17 -24 -51 -84 -75 -133 -25 -49 -47 -86 -50 -83 -3 3 3 47 13 98 11 61 18 140 18 228 1 128 0 135 -19 137 -11 2 -28 -2 -38 -8z m53 -537 l65 -17 3 -50 c3 -62 -20 -111 -68 -143 -26 -17 -43 -22 -65 -17 -16 3 -50 9 -75 12 -59 7 -66 14 -74 73 -8 63 11 113 56 140 39 24 71 24 158 2z" transform="translate(0,129) scale(0.1,-0.1)" stroke="none" fill="#9B7044"/>

</g>

<g id="3" transform="translate(0,387.0)scale(0.8,0.8)">

<path d="M627 1209 c-10 -6 -31 -38 -47 -72 -34 -68 -38 -138 -20 -296 5 -47 7 -87 4 -90 -12 -12 -45 48 -80 144 -63 172 -92 215 -143 215 -45 0 -54 -20 -49 -103 5 -80 22 -120 79 -189 59 -70 53 -73 -51 -28 -89 39 -158 54 -205 46 -37 -7 -37 -7 -32 -49 4 -29 14 -48 31 -62 33 -26 33 -35 -1 -35 -60 0 -69 -36 -16 -63 15 -8 62 -22 103 -32 41 -10 79 -21 84 -26 9 -8 -73 -49 -98 -49 -6 0 -29 -17 -49 -38 -27 -28 -37 -46 -37 -70 0 -30 2 -32 38 -32 20 1 62 9 92 20 66 23 70 24 70 8 -1 -7 -23 -31 -49 -52 -27 -22 -57 -55 -66 -73 -16 -29 -17 -36 -4 -48 16 -17 43 -3 150 78 35 26 65 43 67 37 2 -6 -8 -29 -23 -51 -16 -24 -32 -70 -41 -116 -19 -99 -18 -101 12 -115 42 -19 89 13 122 84 15 32 30 58 33 58 4 0 12 -34 20 -75 13 -75 13 -75 44 -75 60 0 75 37 84 194 l6 109 34 -82 c25 -63 48 -98 94 -147 55 -59 63 -65 96 -62 36 3 36 3 39 53 2 43 -2 58 -29 99 -18 26 -47 64 -66 83 -18 20 -33 40 -33 44 0 21 29 6 58 -30 63 -78 204 -124 260 -85 53 37 8 107 -102 157 -82 39 -160 86 -153 94 3 2 43 -5 88 -16 112 -28 186 -28 230 2 49 32 49 60 2 90 -21 14 -62 32 -91 42 -52 17 -61 35 -17 35 30 0 77 18 87 33 30 47 -23 64 -128 41 -37 -7 -69 -12 -72 -10 -2 2 29 21 69 42 77 40 111 81 107 124 -3 23 -7 25 -65 28 -71 3 -131 -18 -210 -74 -54 -38 -79 -45 -64 -16 5 9 35 46 66 82 66 76 95 127 95 169 0 31 -22 51 -56 51 -19 0 -84 -65 -84 -85 0 -6 -14 -32 -32 -55 -17 -24 -51 -84 -75 -133 -25 -49 -47 -86 -50 -83 -3 3 3 47 13 98 11 61 18 140 18 228 1 128 0 135 -19 137 -11 2 -28 -2 -38 -8z m53 -537 l65 -17 3 -50 c3 -62 -20 -111 -68 -143 -26 -17 -43 -22 -65 -17 -16 3 -50 9 -75 12 -59 7 -66 14 -74 73 -8 63 11 113 56 140 39 24 71 24 158 2z" transform="translate(0,129) scale(0.1,-0.1)" stroke="none" fill="#9B7044"/>

</g>

<g id="4" transform="translate(0,516.0)scale(0.8,0.8)">

<path d="M627 1209 c-10 -6 -31 -38 -47 -72 -34 -68 -38 -138 -20 -296 5 -47 7 -87 4 -90 -12 -12 -45 48 -80 144 -63 172 -92 215 -143 215 -45 0 -54 -20 -49 -103 5 -80 22 -120 79 -189 59 -70 53 -73 -51 -28 -89 39 -158 54 -205 46 -37 -7 -37 -7 -32 -49 4 -29 14 -48 31 -62 33 -26 33 -35 -1 -35 -60 0 -69 -36 -16 -63 15 -8 62 -22 103 -32 41 -10 79 -21 84 -26 9 -8 -73 -49 -98 -49 -6 0 -29 -17 -49 -38 -27 -28 -37 -46 -37 -70 0 -30 2 -32 38 -32 20 1 62 9 92 20 66 23 70 24 70 8 -1 -7 -23 -31 -49 -52 -27 -22 -57 -55 -66 -73 -16 -29 -17 -36 -4 -48 16 -17 43 -3 150 78 35 26 65 43 67 37 2 -6 -8 -29 -23 -51 -16 -24 -32 -70 -41 -116 -19 -99 -18 -101 12 -115 42 -19 89 13 122 84 15 32 30 58 33 58 4 0 12 -34 20 -75 13 -75 13 -75 44 -75 60 0 75 37 84 194 l6 109 34 -82 c25 -63 48 -98 94 -147 55 -59 63 -65 96 -62 36 3 36 3 39 53 2 43 -2 58 -29 99 -18 26 -47 64 -66 83 -18 20 -33 40 -33 44 0 21 29 6 58 -30 63 -78 204 -124 260 -85 53 37 8 107 -102 157 -82 39 -160 86 -153 94 3 2 43 -5 88 -16 112 -28 186 -28 230 2 49 32 49 60 2 90 -21 14 -62 32 -91 42 -52 17 -61 35 -17 35 30 0 77 18 87 33 30 47 -23 64 -128 41 -37 -7 -69 -12 -72 -10 -2 2 29 21 69 42 77 40 111 81 107 124 -3 23 -7 25 -65 28 -71 3 -131 -18 -210 -74 -54 -38 -79 -45 -64 -16 5 9 35 46 66 82 66 76 95 127 95 169 0 31 -22 51 -56 51 -19 0 -84 -65 -84 -85 0 -6 -14 -32 -32 -55 -17 -24 -51 -84 -75 -133 -25 -49 -47 -86 -50 -83 -3 3 3 47 13 98 11 61 18 140 18 228 1 128 0 135 -19 137 -11 2 -28 -2 -38 -8z m53 -537 l65 -17 3 -50 c3 -62 -20 -111 -68 -143 -26 -17 -43 -22 -65 -17 -16 3 -50 9 -75 12 -59 7 -66 14 -74 73 -8 63 11 113 56 140 39 24 71 24 158 2z" transform="translate(0,129) scale(0.1,-0.1)" stroke="none" fill="#9B7044"/>

</g>

</g>
</svg>