<?xml version="1.0" standalone="no"?>
<!DOCTYPE svg PUBLIC "-//W3C//DTD SVG 20010904//EN"
 "http://www.w3.org/TR/2001/REC-SVG-20010904/DTD/svg10.dtd">
<svg version="1.0" xmlns="http://www.w3.org/2000/svg" width="320pt" height="120pt" viewBox="0 0 320 120" preserveAspectRatio = "xMidYMid meet" >
<metadata>
Created by ZoeQu, written in 2022
</metadata>
<rect width="320" height="120" fill="#FA8D1C"/>
<g id="col0" transform="translate(0, 4)">
<g id="0" transform="translate(0,0.0)scale(0.8,0.8)">

<path d="M192 83 c4 -21 33 -25 33 -3 0 8 -8 16 -18 18 -14 3 -18 -1 -15 -15z m28 -3 c0 -5 -4 -10 -10 -10 -5 0 -10 5 -10 10 0 6 5 10 10 10 6 0 10 -4 10 -10z" transform="translate(0,30) scale(0.1,-0.1)" stroke="none" fill="#298A8E"/>

<path d="M572 83 c4 -21 33 -25 33 -3 0 8 -8 16 -18 18 -14 3 -18 -1 -15 -15z m28 -3 c0 -5 -4 -10 -10 -10 -5 0 -10 5 -10 10 0 6 5 10 10 10 6 0 10 -4 10 -10z" transform="translate(0,30) scale(0.1,-0.1)" stroke="none" fill="#298A8E"/>

<path d="M170 118 c-26 -28 -25 -44 4 -73 27 -27 58 -24 81 8 20 29 19 43 -5 67 -26 26 -54 25 -80 -2z m54 -14 c20 -8 21 -28 2 -43 -18 -15 -46 -4 -46 18 0 29 14 37 44 25z" transform="translate(0,30) scale(0.1,-0.1)" stroke="none" fill="#5CB3B6"/>

<path d="M550 120 c-27 -27 -25 -52 5 -80 21 -20 28 -22 50 -12 33 15 50 58 33 81 -30 37 -58 41 -88 11z m54 -16 c20 -8 21 -28 2 -43 -18 -15 -46 -4 -46 18 0 29 14 37 44 25z" transform="translate(0,30) scale(0.1,-0.1)" stroke="none" fill="#5CB3B6"/>

<path d="M154 265 c-4 -10 -20 -15 -49 -15 -23 0 -47 -6 -53 -12 -5 -7 -11 -47 -13 -88 l-4 -75 48 2 c42 2 49 -1 62 -26 26 -52 81 -56 120 -9 l26 31 111 0 c98 -1 112 -3 121 -19 16 -29 39 -43 67 -42 22 0 22 1 -5 7 -18 4 -38 18 -50 37 l-20 32 -115 1 -115 1 -20 -33 c-32 -51 -93 -50 -115 3 -11 27 -17 30 -57 30 -40 0 -44 2 -41 22 2 17 9 22 25 21 25 -3 48 21 39 42 -3 8 -17 15 -31 15 -22 0 -26 4 -23 23 3 19 11 23 53 27 33 3 49 9 48 18 -2 6 1 12 6 12 5 0 11 -10 13 -22 3 -24 14 -26 123 -19 22 2 58 0 81 -4 31 -6 44 -3 57 10 9 9 22 13 27 10 6 -4 67 -7 136 -6 124 0 125 0 134 -25 6 -14 10 -48 10 -75 0 -47 -1 -49 -27 -50 -16 -1 -36 0 -46 0 -9 1 -20 -6 -24 -16 -3 -10 -11 -25 -17 -33 -6 -9 0 -5 13 9 17 18 32 25 52 23 62 -7 68 1 62 81 -3 40 -10 78 -16 85 -6 8 -45 12 -130 12 -103 0 -122 3 -133 18 -12 16 -14 16 -36 -5 -32 -30 -94 -32 -103 -3 -3 11 -10 20 -15 20 -5 0 -14 -9 -20 -20 -16 -29 -104 -29 -120 0 -13 24 -28 26 -36 5z" transform="translate(0,30) scale(0.1,-0.1)" stroke="none" fill="#298A8E"/>

<path d="M163 258 c1 -9 -15 -15 -48 -18 -42 -4 -50 -8 -53 -27 -3 -19 1 -23 23 -23 14 0 28 -7 31 -15 9 -21 -14 -45 -39 -42 -16 1 -22 -4 -22 -18 0 -16 8 -21 36 -23 29 -2 42 3 67 27 38 39 65 39 103 1 29 -29 32 -29 138 -31 l107 -1 31 31 c39 39 67 39 102 2 29 -31 38 -34 84 -32 26 1 27 3 27 50 0 27 -4 61 -10 75 -9 25 -10 25 -134 25 -69 -1 -130 2 -136 6 -5 3 -18 -1 -27 -10 -13 -13 -26 -16 -57 -10 -23 4 -59 6 -81 4 -109 -7 -120 -5 -123 19 -2 12 -8 22 -13 22 -5 0 -8 -6 -6 -12z" transform="translate(0,30) scale(0.1,-0.1)" stroke="none" fill="#E9E4E1"/>

</g>

<g id="1" transform="translate(0,30.0)scale(0.8,0.8)">

<path d="M192 83 c4 -21 33 -25 33 -3 0 8 -8 16 -18 18 -14 3 -18 -1 -15 -15z m28 -3 c0 -5 -4 -10 -10 -10 -5 0 -10 5 -10 10 0 6 5 10 10 10 6 0 10 -4 10 -10z" transform="translate(0,30) scale(0.1,-0.1)" stroke="none" fill="#298A8E"/>

<path d="M572 83 c4 -21 33 -25 33 -3 0 8 -8 16 -18 18 -14 3 -18 -1 -15 -15z m28 -3 c0 -5 -4 -10 -10 -10 -5 0 -10 5 -10 10 0 6 5 10 10 10 6 0 10 -4 10 -10z" transform="translate(0,30) scale(0.1,-0.1)" stroke="none" fill="#298A8E"/>

<path d="M170 118 c-26 -28 -25 -44 4 -73 27 -27 58 -24 81 8 20 29 19 43 -5 67 -26 26 -54 25 -80 -2z m54 -14 c20 -8 21 -28 2 -43 -18 -15 -46 -4 -46 18 0 29 14 37 44 25z" transform="translate(0,30) scale(0.1,-0.1)" stroke="none" fill="#5CB3B6"/>

<path d="M550 120 c-27 -27 -25 -52 5 -80 21 -20 28 -22 50 -12 33 15 50 58 33 81 -30 37 -58 41 -88 11z m54 -16 c20 -8 21 -28 2 -43 -18 -15 -46 -4 -46 18 0 29 14 37 44 25z" transform="translate(0,30) scale(0.1,-0.1)" stroke="none" fill="#5CB3B6"/>

<path d="M154 265 c-4 -10 -20 -15 -49 -15 -23 0 -47 -6 -53 -12 -5 -7 -11 -47 -13 -88 l-4 -75 48 2 c42 2 49 -1 62 -26 26 -52 81 -56 120 -9 l26 31 111 0 c98 -1 112 -3 121 -19 16 -29 39 -43 67 -42 22 0 22 1 -5 7 -18 4 -38 18 -50 37 l-20 32 -115 1 -115 1 -20 -33 c-32 -51 -93 -50 -115 3 -11 27 -17 30 -57 30 -40 0 -44 2 -41 22 2 17 9 22 25 21 25 -3 48 21 39 42 -3 8 -17 15 -31 15 -22 0 -26 4 -23 23 3 19 11 23 53 27 33 3 49 9 48 18 -2 6 1 12 6 12 5 0 11 -10 13 -22 3 -24 14 -26 123 -19 22 2 58 0 81 -4 31 -6 44 -3 57 10 9 9 22 13 27 10 6 -4 67 -7 136 -6 124 0 125 0 134 -25 6 -14 10 -48 10 -75 0 -47 -1 -49 -27 -50 -16 -1 -36 0 -46 0 -9 1 -20 -6 -24 -16 -3 -10 -11 -25 -17 -33 -6 -9 0 -5 13 9 17 18 32 25 52 23 62 -7 68 1 62 81 -3 40 -10 78 -16 85 -6 8 -45 12 -130 12 -103 0 -122 3 -133 18 -12 16 -14 16 -36 -5 -32 -30 -94 -32 -103 -3 -3 11 -10 20 -15 20 -5 0 -14 -9 -20 -20 -16 -29 -104 -29 -120 0 -13 24 -28 26 -36 5z" transform="translate(0,30) scale(0.1,-0.1)" stroke="none" fill="#298A8E"/>

<path d="M163 258 c1 -9 -15 -15 -48 -18 -42 -4 -50 -8 -53 -27 -3 -19 1 -23 23 -23 14 0 28 -7 31 -15 9 -21 -14 -45 -39 -42 -16 1 -22 -4 -22 -18 0 -16 8 -21 36 -23 29 -2 42 3 67 27 38 39 65 39 103 1 29 -29 32 -29 138 -31 l107 -1 31 31 c39 39 67 39 102 2 29 -31 38 -34 84 -32 26 1 27 3 27 50 0 27 -4 61 -10 75 -9 25 -10 25 -134 25 -69 -1 -130 2 -136 6 -5 3 -18 -1 -27 -10 -13 -13 -26 -16 -57 -10 -23 4 -59 6 -81 4 -109 -7 -120 -5 -123 19 -2 12 -8 22 -13 22 -5 0 -8 -6 -6 -12z" transform="translate(0,30) scale(0.1,-0.1)" stroke="none" fill="#E9E4E1"/>

</g>

<g id="2" transform="translate(0,60.0)scale(0.8,0.8)">

<path d="M192 83 c4 -21 33 -25 33 -3 0 8 -8 16 -18 18 -14 3 -18 -1 -15 -15z m28 -3 c0 -5 -4 -10 -10 -10 -5 0 -10 5 -10 10 0 6 5 10 10 10 6 0 10 -4 10 -10z" transform="translate(0,30) scale(0.1,-0.1)" stroke="none" fill="#298A8E"/>

<path d="M572 83 c4 -21 33 -25 33 -3 0 8 -8 16 -18 18 -14 3 -18 -1 -15 -15z m28 -3 c0 -5 -4 -10 -10 -10 -5 0 -10 5 -10 10 0 6 5 10 10 10 6 0 10 -4 10 -10z" transform="translate(0,30) scale(0.1,-0.1)" stroke="none" fill="#298A8E"/>

<path d="M170 118 c-26 -28 -25 -44 4 -73 27 -27 58 -24 81 8 20 29 19 43 -5 67 -26 26 -54 25 -80 -2z m54 -14 c20 -8 21 -28 2 -43 -18 -15 -46 -4 -46 18 0 29 14 37 44 25z" transform="translate(0,30) scale(0.1,-0.1)" stroke="none" fill="#5CB3B6"/>

<path d="M550 120 c-27 -27 -25 -52 5 -80 21 -20 28 -22 50 -12 33 15 50 58 33 81 -30 37 -58 41 -88 11z m54 -16 c20 -8 21 -28 2 -43 -18 -15 -46 -4 -46 18 0 29 14 37 44 25z" transform="translate(0,30) scale(0.1,-0.1)" stroke="none" fill="#5CB3B6"/>

<path d="M154 265 c-4 -10 -20 -15 -49 -15 -23 0 -47 -6 -53 -12 -5 -7 -11 -47 -13 -88 l-4 -75 48 2 c42 2 49 -1 62 -26 26 -52 81 -56 120 -9 l26 31 111 0 c98 -1 112 -3 121 -19 16 -29 39 -43 67 -42 22 0 22 1 -5 7 -18 4 -38 18 -50 37 l-20 32 -115 1 -115 1 -20 -33 c-32 -51 -93 -50 -115 3 -11 27 -17 30 -57 30 -40 0 -44 2 -41 22 2 17 9 22 25 21 25 -3 48 21 39 42 -3 8 -17 15 -31 15 -22 0 -26 4 -23 23 3 19 11 23 53 27 33 3 49 9 48 18 -2 6 1 12 6 12 5 0 11 -10 13 -22 3 -24 14 -26 123 -19 22 2 58 0 81 -4 31 -6 44 -3 57 10 9 9 22 13 27 10 6 -4 67 -7 136 -6 124 0 125 0 134 -25 6 -14 10 -48 10 -75 0 -47 -1 -49 -27 -50 -16 -1 -36 0 -46 0 -9 1 -20 -6 -24 -16 -3 -10 -11 -25 -17 -33 -6 -9 0 -5 13 9 17 18 32 25 52 23 62 -7 68 1 62 81 -3 40 -10 78 -16 85 -6 8 -45 12 -130 12 -103 0 -122 3 -133 18 -12 16 -14 16 -36 -5 -32 -30 -94 -32 -103 -3 -3 11 -10 20 -15 20 -5 0 -14 -9 -20 -20 -16 -29 -104 -29 -120 0 -13 24 -28 26 -36 5z" transform="translate(0,30) scale(0.1,-0.1)" stroke="none" fill="#298A8E"/>

<path d="M163 258 c1 -9 -15 -15 -48 -18 -42 -4 -50 -8 -53 -27 -3 -19 1 -23 23 -23 14 0 28 -7 31 -15 9 -21 -14 -45 -39 -42 -16 1 -22 -4 -22 -18 0 -16 8 -21 36 -23 29 -2 42 3 67 27 38 39 65 39 103 1 29 -29 32 -29 138 -31 l107 -1 31 31 c39 39 67 39 102 2 29 -31 38 -34 84 -32 26 1 27 3 27 50 0 27 -4 61 -10 75 -9 25 -10 25 -134 25 -69 -1 -130 2 -136 6 -5 3 -18 -1 -27 -10 -13 -13 -26 -16 -57 -10 -23 4 -59 6 -81 4 -109 -7 -120 -5 -123 19 -2 12 -8 22 -13 22 -5 0 -8 -6 -6 -12z" transform="translate(0,30) scale(0.1,-0.1)" stroke="none" fill="#E9E4E1"/>

</g>

<g id="3" transform="translate(0,90.0)scale(0.8,0.8)">

<path d="M192 83 c4 -21 33 -25 33 -3 0 8 -8 16 -18 18 -14 3 -18 -1 -15 -15z m28 -3 c0 -5 -4 -10 -10 -10 -5 0 -10 5 -10 10 0 6 5 10 10 10 6 0 10 -4 10 -10z" transform="translate(0,30) scale(0.1,-0.1)" stroke="none" fill="#298A8E"/>

<path d="M572 83 c4 -21 33 -25 33 -3 0 8 -8 16 -18 18 -14 3 -18 -1 -15 -15z m28 -3 c0 -5 -4 -10 -10 -10 -5 0 -10 5 -10 10 0 6 5 10 10 10 6 0 10 -4 10 -10z" transform="translate(0,30) scale(0.1,-0.1)" stroke="none" fill="#298A8E"/>

<path d="M170 118 c-26 -28 -25 -44 4 -73 27 -27 58 -24 81 8 20 29 19 43 -5 67 -26 26 -54 25 -80 -2z m54 -14 c20 -8 21 -28 2 -43 -18 -15 -46 -4 -46 18 0 29 14 37 44 25z" transform="translate(0,30) scale(0.1,-0.1)" stroke="none" fill="#5CB3B6"/>

<path d="M550 120 c-27 -27 -25 -52 5 -80 21 -20 28 -22 50 -12 33 15 50 58 33 81 -30 37 -58 41 -88 11z m54 -16 c20 -8 21 -28 2 -43 -18 -15 -46 -4 -46 18 0 29 14 37 44 25z" transform="translate(0,30) scale(0.1,-0.1)" stroke="none" fill="#5CB3B6"/>

<path d="M154 265 c-4 -10 -20 -15 -49 -15 -23 0 -47 -6 -53 -12 -5 -7 -11 -47 -13 -88 l-4 -75 48 2 c42 2 49 -1 62 -26 26 -52 81 -56 120 -9 l26 31 111 0 c98 -1 112 -3 121 -19 16 -29 39 -43 67 -42 22 0 22 1 -5 7 -18 4 -38 18 -50 37 l-20 32 -115 1 -115 1 -20 -33 c-32 -51 -93 -50 -115 3 -11 27 -17 30 -57 30 -40 0 -44 2 -41 22 2 17 9 22 25 21 25 -3 48 21 39 42 -3 8 -17 15 -31 15 -22 0 -26 4 -23 23 3 19 11 23 53 27 33 3 49 9 48 18 -2 6 1 12 6 12 5 0 11 -10 13 -22 3 -24 14 -26 123 -19 22 2 58 0 81 -4 31 -6 44 -3 57 10 9 9 22 13 27 10 6 -4 67 -7 136 -6 124 0 125 0 134 -25 6 -14 10 -48 10 -75 0 -47 -1 -49 -27 -50 -16 -1 -36 0 -46 0 -9 1 -20 -6 -24 -16 -3 -10 -11 -25 -17 -33 -6 -9 0 -5 13 9 17 18 32 25 52 23 62 -7 68 1 62 81 -3 40 -10 78 -16 85 -6 8 -45 12 -130 12 -103 0 -122 3 -133 18 -12 16 -14 16 -36 -5 -32 -30 -94 -32 -103 -3 -3 11 -10 20 -15 20 -5 0 -14 -9 -20 -20 -16 -29 -104 -29 -120 0 -13 24 -28 26 -36 5z" transform="translate(0,30) scale(0.1,-0.1)" stroke="none" fill="#298A8E"/>

<path d="M163 258 c1 -9 -15 -15 -48 -18 -42 -4 -50 -8 -53 -27 -3 -19 1 -23 23 -23 14 0 28 -7 31 -15 9 -21 -14 -45 -39 -42 -16 1 -22 -4 -22 -18 0 -16 8 -21 36 -23 29 -2 42 3 67 27 38 39 65 39 103 1 29 -29 32 -29 138 -31 l107 -1 31 31 c39 39 67 39 102 2 29 -31 38 -34 84 -32 26 1 27 3 27 50 0 27 -4 61 -10 75 -9 25 -10 25 -134 25 -69 -1 -130 2 -136 6 -5 3 -18 -1 -27 -10 -13 -13 -26 -16 -57 -10 -23 4 -59 6 -81 4 -109 -7 -120 -5 -123 19 -2 12 -8 22 -13 22 -5 0 -8 -6 -6 -12z" transform="translate(0,30) scale(0.1,-0.1)" stroke="none" fill="#E9E4E1"/>

</g>

<g id="4" transform="translate(0,120.0)scale(0.8,0.8)">

<path d="M192 83 c4 -21 33 -25 33 -3 0 8 -8 16 -18 18 -14 3 -18 -1 -15 -15z m28 -3 c0 -5 -4 -10 -10 -10 -5 0 -10 5 -10 10 0 6 5 10 10 10 6 0 10 -4 10 -10z" transform="translate(0,30) scale(0.1,-0.1)" stroke="none" fill="#298A8E"/>

<path d="M572 83 c4 -21 33 -25 33 -3 0 8 -8 16 -18 18 -14 3 -18 -1 -15 -15z m28 -3 c0 -5 -4 -10 -10 -10 -5 0 -10 5 -10 10 0 6 5 10 10 10 6 0 10 -4 10 -10z" transform="translate(0,30) scale(0.1,-0.1)" stroke="none" fill="#298A8E"/>

<path d="M170 118 c-26 -28 -25 -44 4 -73 27 -27 58 -24 81 8 20 29 19 43 -5 67 -26 26 -54 25 -80 -2z m54 -14 c20 -8 21 -28 2 -43 -18 -15 -46 -4 -46 18 0 29 14 37 44 25z" transform="translate(0,30) scale(0.1,-0.1)" stroke="none" fill="#5CB3B6"/>

<path d="M550 120 c-27 -27 -25 -52 5 -80 21 -20 28 -22 50 -12 33 15 50 58 33 81 -30 37 -58 41 -88 11z m54 -16 c20 -8 21 -28 2 -43 -18 -15 -46 -4 -46 18 0 29 14 37 44 25z" transform="translate(0,30) scale(0.1,-0.1)" stroke="none" fill="#5CB3B6"/>

<path d="M154 265 c-4 -10 -20 -15 -49 -15 -23 0 -47 -6 -53 -12 -5 -7 -11 -47 -13 -88 l-4 -75 48 2 c42 2 49 -1 62 -26 26 -52 81 -56 120 -9 l26 31 111 0 c98 -1 112 -3 121 -19 16 -29 39 -43 67 -42 22 0 22 1 -5 7 -18 4 -38 18 -50 37 l-20 32 -115 1 -115 1 -20 -33 c-32 -51 -93 -50 -115 3 -11 27 -17 30 -57 30 -40 0 -44 2 -41 22 2 17 9 22 25 21 25 -3 48 21 39 42 -3 8 -17 15 -31 15 -22 0 -26 4 -23 23 3 19 11 23 53 27 33 3 49 9 48 18 -2 6 1 12 6 12 5 0 11 -10 13 -22 3 -24 14 -26 123 -19 22 2 58 0 81 -4 31 -6 44 -3 57 10 9 9 22 13 27 10 6 -4 67 -7 136 -6 124 0 125 0 134 -25 6 -14 10 -48 10 -75 0 -47 -1 -49 -27 -50 -16 -1 -36 0 -46 0 -9 1 -20 -6 -24 -16 -3 -10 -11 -25 -17 -33 -6 -9 0 -5 13 9 17 18 32 25 52 23 62 -7 68 1 62 81 -3 40 -10 78 -16 85 -6 8 -45 12 -130 12 -103 0 -122 3 -133 18 -12 16 -14 16 -36 -5 -32 -30 -94 -32 -103 -3 -3 11 -10 20 -15 20 -5 0 -14 -9 -20 -20 -16 -29 -104 -29 -120 0 -13 24 -28 26 -36 5z" transform="translate(0,30) scale(0.1,-0.1)" stroke="none" fill="#298A8E"/>

<path d="M163 258 c1 -9 -15 -15 -48 -18 -42 -4 -50 -8 -53 -27 -3 -19 1 -23 23 -23 14 0 28 -7 31 -15 9 -21 -14 -45 -39 -42 -16 1 -22 -4 -22 -18 0 -16 8 -21 36 -23 29 -2 42 3 67 27 38 39 65 39 103 1 29 -29 32 -29 138 -31 l107 -1 31 31 c39 39 67 39 102 2 29 -31 38 -34 84 -32 26 1 27 3 27 50 0 27 -4 61 -10 75 -9 25 -10 25 -134 25 -69 -1 -130 2 -136 6 -5 3 -18 -1 -27 -10 -13 -13 -26 -16 -57 -10 -23 4 -59 6 -81 4 -109 -7 -120 -5 -123 19 -2 12 -8 22 -13 22 -5 0 -8 -6 -6 -12z" transform="translate(0,30) scale(0.1,-0.1)" stroke="none" fill="#E9E4E1"/>

</g>

</g>
<g id="col1" transform="translate(80, -11.0)">
<g id="0" transform="translate(0,0.0)scale(0.8,0.8)">

<path d="M192 83 c4 -21 33 -25 33 -3 0 8 -8 16 -18 18 -14 3 -18 -1 -15 -15z m28 -3 c0 -5 -4 -10 -10 -10 -5 0 -10 5 -10 10 0 6 5 10 10 10 6 0 10 -4 10 -10z" transform="translate(0,30) scale(0.1,-0.1)" stroke="none" fill="#298A8E"/>

<path d="M572 83 c4 -21 33 -25 33 -3 0 8 -8 16 -18 18 -14 3 -18 -1 -15 -15z m28 -3 c0 -5 -4 -10 -10 -10 -5 0 -10 5 -10 10 0 6 5 10 10 10 6 0 10 -4 10 -10z" transform="translate(0,30) scale(0.1,-0.1)" stroke="none" fill="#298A8E"/>

<path d="M170 118 c-26 -28 -25 -44 4 -73 27 -27 58 -24 81 8 20 29 19 43 -5 67 -26 26 -54 25 -80 -2z m54 -14 c20 -8 21 -28 2 -43 -18 -15 -46 -4 -46 18 0 29 14 37 44 25z" transform="translate(0,30) scale(0.1,-0.1)" stroke="none" fill="#5CB3B6"/>

<path d="M550 120 c-27 -27 -25 -52 5 -80 21 -20 28 -22 50 -12 33 15 50 58 33 81 -30 37 -58 41 -88 11z m54 -16 c20 -8 21 -28 2 -43 -18 -15 -46 -4 -46 18 0 29 14 37 44 25z" transform="translate(0,30) scale(0.1,-0.1)" stroke="none" fill="#5CB3B6"/>

<path d="M154 265 c-4 -10 -20 -15 -49 -15 -23 0 -47 -6 -53 -12 -5 -7 -11 -47 -13 -88 l-4 -75 48 2 c42 2 49 -1 62 -26 26 -52 81 -56 120 -9 l26 31 111 0 c98 -1 112 -3 121 -19 16 -29 39 -43 67 -42 22 0 22 1 -5 7 -18 4 -38 18 -50 37 l-20 32 -115 1 -115 1 -20 -33 c-32 -51 -93 -50 -115 3 -11 27 -17 30 -57 30 -40 0 -44 2 -41 22 2 17 9 22 25 21 25 -3 48 21 39 42 -3 8 -17 15 -31 15 -22 0 -26 4 -23 23 3 19 11 23 53 27 33 3 49 9 48 18 -2 6 1 12 6 12 5 0 11 -10 13 -22 3 -24 14 -26 123 -19 22 2 58 0 81 -4 31 -6 44 -3 57 10 9 9 22 13 27 10 6 -4 67 -7 136 -6 124 0 125 0 134 -25 6 -14 10 -48 10 -75 0 -47 -1 -49 -27 -50 -16 -1 -36 0 -46 0 -9 1 -20 -6 -24 -16 -3 -10 -11 -25 -17 -33 -6 -9 0 -5 13 9 17 18 32 25 52 23 62 -7 68 1 62 81 -3 40 -10 78 -16 85 -6 8 -45 12 -130 12 -103 0 -122 3 -133 18 -12 16 -14 16 -36 -5 -32 -30 -94 -32 -103 -3 -3 11 -10 20 -15 20 -5 0 -14 -9 -20 -20 -16 -29 -104 -29 -120 0 -13 24 -28 26 -36 5z" transform="translate(0,30) scale(0.1,-0.1)" stroke="none" fill="#298A8E"/>

<path d="M163 258 c1 -9 -15 -15 -48 -18 -42 -4 -50 -8 -53 -27 -3 -19 1 -23 23 -23 14 0 28 -7 31 -15 9 -21 -14 -45 -39 -42 -16 1 -22 -4 -22 -18 0 -16 8 -21 36 -23 29 -2 42 3 67 27 38 39 65 39 103 1 29 -29 32 -29 138 -31 l107 -1 31 31 c39 39 67 39 102 2 29 -31 38 -34 84 -32 26 1 27 3 27 50 0 27 -4 61 -10 75 -9 25 -10 25 -134 25 -69 -1 -130 2 -136 6 -5 3 -18 -1 -27 -10 -13 -13 -26 -16 -57 -10 -23 4 -59 6 -81 4 -109 -7 -120 -5 -123 19 -2 12 -8 22 -13 22 -5 0 -8 -6 -6 -12z" transform="translate(0,30) scale(0.1,-0.1)" stroke="none" fill="#E9E4E1"/>

</g>

<g id="1" transform="translate(0,30.0)scale(0.8,0.8)">

<path d="M192 83 c4 -21 33 -25 33 -3 0 8 -8 16 -18 18 -14 3 -18 -1 -15 -15z m28 -3 c0 -5 -4 -10 -10 -10 -5 0 -10 5 -10 10 0 6 5 10 10 10 6 0 10 -4 10 -10z" transform="translate(0,30) scale(0.1,-0.1)" stroke="none" fill="#298A8E"/>

<path d="M572 83 c4 -21 33 -25 33 -3 0 8 -8 16 -18 18 -14 3 -18 -1 -15 -15z m28 -3 c0 -5 -4 -10 -10 -10 -5 0 -10 5 -10 10 0 6 5 10 10 10 6 0 10 -4 10 -10z" transform="translate(0,30) scale(0.1,-0.1)" stroke="none" fill="#298A8E"/>

<path d="M170 118 c-26 -28 -25 -44 4 -73 27 -27 58 -24 81 8 20 29 19 43 -5 67 -26 26 -54 25 -80 -2z m54 -14 c20 -8 21 -28 2 -43 -18 -15 -46 -4 -46 18 0 29 14 37 44 25z" transform="translate(0,30) scale(0.1,-0.1)" stroke="none" fill="#5CB3B6"/>

<path d="M550 120 c-27 -27 -25 -52 5 -80 21 -20 28 -22 50 -12 33 15 50 58 33 81 -30 37 -58 41 -88 11z m54 -16 c20 -8 21 -28 2 -43 -18 -15 -46 -4 -46 18 0 29 14 37 44 25z" transform="translate(0,30) scale(0.1,-0.1)" stroke="none" fill="#5CB3B6"/>

<path d="M154 265 c-4 -10 -20 -15 -49 -15 -23 0 -47 -6 -53 -12 -5 -7 -11 -47 -13 -88 l-4 -75 48 2 c42 2 49 -1 62 -26 26 -52 81 -56 120 -9 l26 31 111 0 c98 -1 112 -3 121 -19 16 -29 39 -43 67 -42 22 0 22 1 -5 7 -18 4 -38 18 -50 37 l-20 32 -115 1 -115 1 -20 -33 c-32 -51 -93 -50 -115 3 -11 27 -17 30 -57 30 -40 0 -44 2 -41 22 2 17 9 22 25 21 25 -3 48 21 39 42 -3 8 -17 15 -31 15 -22 0 -26 4 -23 23 3 19 11 23 53 27 33 3 49 9 48 18 -2 6 1 12 6 12 5 0 11 -10 13 -22 3 -24 14 -26 123 -19 22 2 58 0 81 -4 31 -6 44 -3 57 10 9 9 22 13 27 10 6 -4 67 -7 136 -6 124 0 125 0 134 -25 6 -14 10 -48 10 -75 0 -47 -1 -49 -27 -50 -16 -1 -36 0 -46 0 -9 1 -20 -6 -24 -16 -3 -10 -11 -25 -17 -33 -6 -9 0 -5 13 9 17 18 32 25 52 23 62 -7 68 1 62 81 -3 40 -10 78 -16 85 -6 8 -45 12 -130 12 -103 0 -122 3 -133 18 -12 16 -14 16 -36 -5 -32 -30 -94 -32 -103 -3 -3 11 -10 20 -15 20 -5 0 -14 -9 -20 -20 -16 -29 -104 -29 -120 0 -13 24 -28 26 -36 5z" transform="translate(0,30) scale(0.1,-0.1)" stroke="none" fill="#298A8E"/>

<path d="M163 258 c1 -9 -15 -15 -48 -18 -42 -4 -50 -8 -53 -27 -3 -19 1 -23 23 -23 14 0 28 -7 31 -15 9 -21 -14 -45 -39 -42 -16 1 -22 -4 -22 -18 0 -16 8 -21 36 -23 29 -2 42 3 67 27 38 39 65 39 103 1 29 -29 32 -29 138 -31 l107 -1 31 31 c39 39 67 39 102 2 29 -31 38 -34 84 -32 26 1 27 3 27 50 0 27 -4 61 -10 75 -9 25 -10 25 -134 25 -69 -1 -130 2 -136 6 -5 3 -18 -1 -27 -10 -13 -13 -26 -16 -57 -10 -23 4 -59 6 -81 4 -109 -7 -120 -5 -123 19 -2 12 -8 22 -13 22 -5 0 -8 -6 -6 -12z" transform="translate(0,30) scale(0.1,-0.1)" stroke="none" fill="#E9E4E1"/>

</g>

<g id="2" transform="translate(0,60.0)scale(0.8,0.8)">

<path d="M192 83 c4 -21 33 -25 33 -3 0 8 -8 16 -18 18 -14 3 -18 -1 -15 -15z m28 -3 c0 -5 -4 -10 -10 -10 -5 0 -10 5 -10 10 0 6 5 10 10 10 6 0 10 -4 10 -10z" transform="translate(0,30) scale(0.1,-0.1)" stroke="none" fill="#298A8E"/>

<path d="M572 83 c4 -21 33 -25 33 -3 0 8 -8 16 -18 18 -14 3 -18 -1 -15 -15z m28 -3 c0 -5 -4 -10 -10 -10 -5 0 -10 5 -10 10 0 6 5 10 10 10 6 0 10 -4 10 -10z" transform="translate(0,30) scale(0.1,-0.1)" stroke="none" fill="#298A8E"/>

<path d="M170 118 c-26 -28 -25 -44 4 -73 27 -27 58 -24 81 8 20 29 19 43 -5 67 -26 26 -54 25 -80 -2z m54 -14 c20 -8 21 -28 2 -43 -18 -15 -46 -4 -46 18 0 29 14 37 44 25z" transform="translate(0,30) scale(0.1,-0.1)" stroke="none" fill="#5CB3B6"/>

<path d="M550 120 c-27 -27 -25 -52 5 -80 21 -20 28 -22 50 -12 33 15 50 58 33 81 -30 37 -58 41 -88 11z m54 -16 c20 -8 21 -28 2 -43 -18 -15 -46 -4 -46 18 0 29 14 37 44 25z" transform="translate(0,30) scale(0.1,-0.1)" stroke="none" fill="#5CB3B6"/>

<path d="M154 265 c-4 -10 -20 -15 -49 -15 -23 0 -47 -6 -53 -12 -5 -7 -11 -47 -13 -88 l-4 -75 48 2 c42 2 49 -1 62 -26 26 -52 81 -56 120 -9 l26 31 111 0 c98 -1 112 -3 121 -19 16 -29 39 -43 67 -42 22 0 22 1 -5 7 -18 4 -38 18 -50 37 l-20 32 -115 1 -115 1 -20 -33 c-32 -51 -93 -50 -115 3 -11 27 -17 30 -57 30 -40 0 -44 2 -41 22 2 17 9 22 25 21 25 -3 48 21 39 42 -3 8 -17 15 -31 15 -22 0 -26 4 -23 23 3 19 11 23 53 27 33 3 49 9 48 18 -2 6 1 12 6 12 5 0 11 -10 13 -22 3 -24 14 -26 123 -19 22 2 58 0 81 -4 31 -6 44 -3 57 10 9 9 22 13 27 10 6 -4 67 -7 136 -6 124 0 125 0 134 -25 6 -14 10 -48 10 -75 0 -47 -1 -49 -27 -50 -16 -1 -36 0 -46 0 -9 1 -20 -6 -24 -16 -3 -10 -11 -25 -17 -33 -6 -9 0 -5 13 9 17 18 32 25 52 23 62 -7 68 1 62 81 -3 40 -10 78 -16 85 -6 8 -45 12 -130 12 -103 0 -122 3 -133 18 -12 16 -14 16 -36 -5 -32 -30 -94 -32 -103 -3 -3 11 -10 20 -15 20 -5 0 -14 -9 -20 -20 -16 -29 -104 -29 -120 0 -13 24 -28 26 -36 5z" transform="translate(0,30) scale(0.1,-0.1)" stroke="none" fill="#298A8E"/>

<path d="M163 258 c1 -9 -15 -15 -48 -18 -42 -4 -50 -8 -53 -27 -3 -19 1 -23 23 -23 14 0 28 -7 31 -15 9 -21 -14 -45 -39 -42 -16 1 -22 -4 -22 -18 0 -16 8 -21 36 -23 29 -2 42 3 67 27 38 39 65 39 103 1 29 -29 32 -29 138 -31 l107 -1 31 31 c39 39 67 39 102 2 29 -31 38 -34 84 -32 26 1 27 3 27 50 0 27 -4 61 -10 75 -9 25 -10 25 -134 25 -69 -1 -130 2 -136 6 -5 3 -18 -1 -27 -10 -13 -13 -26 -16 -57 -10 -23 4 -59 6 -81 4 -109 -7 -120 -5 -123 19 -2 12 -8 22 -13 22 -5 0 -8 -6 -6 -12z" transform="translate(0,30) scale(0.1,-0.1)" stroke="none" fill="#E9E4E1"/>

</g>

<g id="3" transform="translate(0,90.0)scale(0.8,0.8)">

<path d="M192 83 c4 -21 33 -25 33 -3 0 8 -8 16 -18 18 -14 3 -18 -1 -15 -15z m28 -3 c0 -5 -4 -10 -10 -10 -5 0 -10 5 -10 10 0 6 5 10 10 10 6 0 10 -4 10 -10z" transform="translate(0,30) scale(0.1,-0.1)" stroke="none" fill="#298A8E"/>

<path d="M572 83 c4 -21 33 -25 33 -3 0 8 -8 16 -18 18 -14 3 -18 -1 -15 -15z m28 -3 c0 -5 -4 -10 -10 -10 -5 0 -10 5 -10 10 0 6 5 10 10 10 6 0 10 -4 10 -10z" transform="translate(0,30) scale(0.1,-0.1)" stroke="none" fill="#298A8E"/>

<path d="M170 118 c-26 -28 -25 -44 4 -73 27 -27 58 -24 81 8 20 29 19 43 -5 67 -26 26 -54 25 -80 -2z m54 -14 c20 -8 21 -28 2 -43 -18 -15 -46 -4 -46 18 0 29 14 37 44 25z" transform="translate(0,30) scale(0.1,-0.1)" stroke="none" fill="#5CB3B6"/>

<path d="M550 120 c-27 -27 -25 -52 5 -80 21 -20 28 -22 50 -12 33 15 50 58 33 81 -30 37 -58 41 -88 11z m54 -16 c20 -8 21 -28 2 -43 -18 -15 -46 -4 -46 18 0 29 14 37 44 25z" transform="translate(0,30) scale(0.1,-0.1)" stroke="none" fill="#5CB3B6"/>

<path d="M154 265 c-4 -10 -20 -15 -49 -15 -23 0 -47 -6 -53 -12 -5 -7 -11 -47 -13 -88 l-4 -75 48 2 c42 2 49 -1 62 -26 26 -52 81 -56 120 -9 l26 31 111 0 c98 -1 112 -3 121 -19 16 -29 39 -43 67 -42 22 0 22 1 -5 7 -18 4 -38 18 -50 37 l-20 32 -115 1 -115 1 -20 -33 c-32 -51 -93 -50 -115 3 -11 27 -17 30 -57 30 -40 0 -44 2 -41 22 2 17 9 22 25 21 25 -3 48 21 39 42 -3 8 -17 15 -31 15 -22 0 -26 4 -23 23 3 19 11 23 53 27 33 3 49 9 48 18 -2 6 1 12 6 12 5 0 11 -10 13 -22 3 -24 14 -26 123 -19 22 2 58 0 81 -4 31 -6 44 -3 57 10 9 9 22 13 27 10 6 -4 67 -7 136 -6 124 0 125 0 134 -25 6 -14 10 -48 10 -75 0 -47 -1 -49 -27 -50 -16 -1 -36 0 -46 0 -9 1 -20 -6 -24 -16 -3 -10 -11 -25 -17 -33 -6 -9 0 -5 13 9 17 18 32 25 52 23 62 -7 68 1 62 81 -3 40 -10 78 -16 85 -6 8 -45 12 -130 12 -103 0 -122 3 -133 18 -12 16 -14 16 -36 -5 -32 -30 -94 -32 -103 -3 -3 11 -10 20 -15 20 -5 0 -14 -9 -20 -20 -16 -29 -104 -29 -120 0 -13 24 -28 26 -36 5z" transform="translate(0,30) scale(0.1,-0.1)" stroke="none" fill="#298A8E"/>

<path d="M163 258 c1 -9 -15 -15 -48 -18 -42 -4 -50 -8 -53 -27 -3 -19 1 -23 23 -23 14 0 28 -7 31 -15 9 -21 -14 -45 -39 -42 -16 1 -22 -4 -22 -18 0 -16 8 -21 36 -23 29 -2 42 3 67 27 38 39 65 39 103 1 29 -29 32 -29 138 -31 l107 -1 31 31 c39 39 67 39 102 2 29 -31 38 -34 84 -32 26 1 27 3 27 50 0 27 -4 61 -10 75 -9 25 -10 25 -134 25 -69 -1 -130 2 -136 6 -5 3 -18 -1 -27 -10 -13 -13 -26 -16 -57 -10 -23 4 -59 6 -81 4 -109 -7 -120 -5 -123 19 -2 12 -8 22 -13 22 -5 0 -8 -6 -6 -12z" transform="translate(0,30) scale(0.1,-0.1)" stroke="none" fill="#E9E4E1"/>

</g>

<g id="4" transform="translate(0,120.0)scale(0.8,0.8)">

<path d="M192 83 c4 -21 33 -25 33 -3 0 8 -8 16 -18 18 -14 3 -18 -1 -15 -15z m28 -3 c0 -5 -4 -10 -10 -10 -5 0 -10 5 -10 10 0 6 5 10 10 10 6 0 10 -4 10 -10z" transform="translate(0,30) scale(0.1,-0.1)" stroke="none" fill="#298A8E"/>

<path d="M572 83 c4 -21 33 -25 33 -3 0 8 -8 16 -18 18 -14 3 -18 -1 -15 -15z m28 -3 c0 -5 -4 -10 -10 -10 -5 0 -10 5 -10 10 0 6 5 10 10 10 6 0 10 -4 10 -10z" transform="translate(0,30) scale(0.1,-0.1)" stroke="none" fill="#298A8E"/>

<path d="M170 118 c-26 -28 -25 -44 4 -73 27 -27 58 -24 81 8 20 29 19 43 -5 67 -26 26 -54 25 -80 -2z m54 -14 c20 -8 21 -28 2 -43 -18 -15 -46 -4 -46 18 0 29 14 37 44 25z" transform="translate(0,30) scale(0.1,-0.1)" stroke="none" fill="#5CB3B6"/>

<path d="M550 120 c-27 -27 -25 -52 5 -80 21 -20 28 -22 50 -12 33 15 50 58 33 81 -30 37 -58 41 -88 11z m54 -16 c20 -8 21 -28 2 -43 -18 -15 -46 -4 -46 18 0 29 14 37 44 25z" transform="translate(0,30) scale(0.1,-0.1)" stroke="none" fill="#5CB3B6"/>

<path d="M154 265 c-4 -10 -20 -15 -49 -15 -23 0 -47 -6 -53 -12 -5 -7 -11 -47 -13 -88 l-4 -75 48 2 c42 2 49 -1 62 -26 26 -52 81 -56 120 -9 l26 31 111 0 c98 -1 112 -3 121 -19 16 -29 39 -43 67 -42 22 0 22 1 -5 7 -18 4 -38 18 -50 37 l-20 32 -115 1 -115 1 -20 -33 c-32 -51 -93 -50 -115 3 -11 27 -17 30 -57 30 -40 0 -44 2 -41 22 2 17 9 22 25 21 25 -3 48 21 39 42 -3 8 -17 15 -31 15 -22 0 -26 4 -23 23 3 19 11 23 53 27 33 3 49 9 48 18 -2 6 1 12 6 12 5 0 11 -10 13 -22 3 -24 14 -26 123 -19 22 2 58 0 81 -4 31 -6 44 -3 57 10 9 9 22 13 27 10 6 -4 67 -7 136 -6 124 0 125 0 134 -25 6 -14 10 -48 10 -75 0 -47 -1 -49 -27 -50 -16 -1 -36 0 -46 0 -9 1 -20 -6 -24 -16 -3 -10 -11 -25 -17 -33 -6 -9 0 -5 13 9 17 18 32 25 52 23 62 -7 68 1 62 81 -3 40 -10 78 -16 85 -6 8 -45 12 -130 12 -103 0 -122 3 -133 18 -12 16 -14 16 -36 -5 -32 -30 -94 -32 -103 -3 -3 11 -10 20 -15 20 -5 0 -14 -9 -20 -20 -16 -29 -104 -29 -120 0 -13 24 -28 26 -36 5z" transform="translate(0,30) scale(0.1,-0.1)" stroke="none" fill="#298A8E"/>

<path d="M163 258 c1 -9 -15 -15 -48 -18 -42 -4 -50 -8 -53 -27 -3 -19 1 -23 23 -23 14 0 28 -7 31 -15 9 -21 -14 -45 -39 -42 -16 1 -22 -4 -22 -18 0 -16 8 -21 36 -23 29 -2 42 3 67 27 38 39 65 39 103 1 29 -29 32 -29 138 -31 l107 -1 31 31 c39 39 67 39 102 2 29 -31 38 -34 84 -32 26 1 27 3 27 50 0 27 -4 61 -10 75 -9 25 -10 25 -134 25 -69 -1 -130 2 -136 6 -5 3 -18 -1 -27 -10 -13 -13 -26 -16 -57 -10 -23 4 -59 6 -81 4 -109 -7 -120 -5 -123 19 -2 12 -8 22 -13 22 -5 0 -8 -6 -6 -12z" transform="translate(0,30) scale(0.1,-0.1)" stroke="none" fill="#E9E4E1"/>

</g>

</g>
<g id="col2" transform="translate(160, 4)">
<g id="0" transform="translate(0,0.0)scale(0.8,0.8)">

<path d="M192 83 c4 -21 33 -25 33 -3 0 8 -8 16 -18 18 -14 3 -18 -1 -15 -15z m28 -3 c0 -5 -4 -10 -10 -10 -5 0 -10 5 -10 10 0 6 5 10 10 10 6 0 10 -4 10 -10z" transform="translate(0,30) scale(0.1,-0.1)" stroke="none" fill="#298A8E"/>

<path d="M572 83 c4 -21 33 -25 33 -3 0 8 -8 16 -18 18 -14 3 -18 -1 -15 -15z m28 -3 c0 -5 -4 -10 -10 -10 -5 0 -10 5 -10 10 0 6 5 10 10 10 6 0 10 -4 10 -10z" transform="translate(0,30) scale(0.1,-0.1)" stroke="none" fill="#298A8E"/>

<path d="M170 118 c-26 -28 -25 -44 4 -73 27 -27 58 -24 81 8 20 29 19 43 -5 67 -26 26 -54 25 -80 -2z m54 -14 c20 -8 21 -28 2 -43 -18 -15 -46 -4 -46 18 0 29 14 37 44 25z" transform="translate(0,30) scale(0.1,-0.1)" stroke="none" fill="#5CB3B6"/>

<path d="M550 120 c-27 -27 -25 -52 5 -80 21 -20 28 -22 50 -12 33 15 50 58 33 81 -30 37 -58 41 -88 11z m54 -16 c20 -8 21 -28 2 -43 -18 -15 -46 -4 -46 18 0 29 14 37 44 25z" transform="translate(0,30) scale(0.1,-0.1)" stroke="none" fill="#5CB3B6"/>

<path d="M154 265 c-4 -10 -20 -15 -49 -15 -23 0 -47 -6 -53 -12 -5 -7 -11 -47 -13 -88 l-4 -75 48 2 c42 2 49 -1 62 -26 26 -52 81 -56 120 -9 l26 31 111 0 c98 -1 112 -3 121 -19 16 -29 39 -43 67 -42 22 0 22 1 -5 7 -18 4 -38 18 -50 37 l-20 32 -115 1 -115 1 -20 -33 c-32 -51 -93 -50 -115 3 -11 27 -17 30 -57 30 -40 0 -44 2 -41 22 2 17 9 22 25 21 25 -3 48 21 39 42 -3 8 -17 15 -31 15 -22 0 -26 4 -23 23 3 19 11 23 53 27 33 3 49 9 48 18 -2 6 1 12 6 12 5 0 11 -10 13 -22 3 -24 14 -26 123 -19 22 2 58 0 81 -4 31 -6 44 -3 57 10 9 9 22 13 27 10 6 -4 67 -7 136 -6 124 0 125 0 134 -25 6 -14 10 -48 10 -75 0 -47 -1 -49 -27 -50 -16 -1 -36 0 -46 0 -9 1 -20 -6 -24 -16 -3 -10 -11 -25 -17 -33 -6 -9 0 -5 13 9 17 18 32 25 52 23 62 -7 68 1 62 81 -3 40 -10 78 -16 85 -6 8 -45 12 -130 12 -103 0 -122 3 -133 18 -12 16 -14 16 -36 -5 -32 -30 -94 -32 -103 -3 -3 11 -10 20 -15 20 -5 0 -14 -9 -20 -20 -16 -29 -104 -29 -120 0 -13 24 -28 26 -36 5z" transform="translate(0,30) scale(0.1,-0.1)" stroke="none" fill="#298A8E"/>

<path d="M163 258 c1 -9 -15 -15 -48 -18 -42 -4 -50 -8 -53 -27 -3 -19 1 -23 23 -23 14 0 28 -7 31 -15 9 -21 -14 -45 -39 -42 -16 1 -22 -4 -22 -18 0 -16 8 -21 36 -23 29 -2 42 3 67 27 38 39 65 39 103 1 29 -29 32 -29 138 -31 l107 -1 31 31 c39 39 67 39 102 2 29 -31 38 -34 84 -32 26 1 27 3 27 50 0 27 -4 61 -10 75 -9 25 -10 25 -134 25 -69 -1 -130 2 -136 6 -5 3 -18 -1 -27 -10 -13 -13 -26 -16 -57 -10 -23 4 -59 6 -81 4 -109 -7 -120 -5 -123 19 -2 12 -8 22 -13 22 -5 0 -8 -6 -6 -12z" transform="translate(0,30) scale(0.1,-0.1)" stroke="none" fill="#E9E4E1"/>

</g>

<g id="1" transform="translate(0,30.0)scale(0.8,0.8)">

<path d="M192 83 c4 -21 33 -25 33 -3 0 8 -8 16 -18 18 -14 3 -18 -1 -15 -15z m28 -3 c0 -5 -4 -10 -10 -10 -5 0 -10 5 -10 10 0 6 5 10 10 10 6 0 10 -4 10 -10z" transform="translate(0,30) scale(0.1,-0.1)" stroke="none" fill="#298A8E"/>

<path d="M572 83 c4 -21 33 -25 33 -3 0 8 -8 16 -18 18 -14 3 -18 -1 -15 -15z m28 -3 c0 -5 -4 -10 -10 -10 -5 0 -10 5 -10 10 0 6 5 10 10 10 6 0 10 -4 10 -10z" transform="translate(0,30) scale(0.1,-0.1)" stroke="none" fill="#298A8E"/>

<path d="M170 118 c-26 -28 -25 -44 4 -73 27 -27 58 -24 81 8 20 29 19 43 -5 67 -26 26 -54 25 -80 -2z m54 -14 c20 -8 21 -28 2 -43 -18 -15 -46 -4 -46 18 0 29 14 37 44 25z" transform="translate(0,30) scale(0.1,-0.1)" stroke="none" fill="#5CB3B6"/>

<path d="M550 120 c-27 -27 -25 -52 5 -80 21 -20 28 -22 50 -12 33 15 50 58 33 81 -30 37 -58 41 -88 11z m54 -16 c20 -8 21 -28 2 -43 -18 -15 -46 -4 -46 18 0 29 14 37 44 25z" transform="translate(0,30) scale(0.1,-0.1)" stroke="none" fill="#5CB3B6"/>

<path d="M154 265 c-4 -10 -20 -15 -49 -15 -23 0 -47 -6 -53 -12 -5 -7 -11 -47 -13 -88 l-4 -75 48 2 c42 2 49 -1 62 -26 26 -52 81 -56 120 -9 l26 31 111 0 c98 -1 112 -3 121 -19 16 -29 39 -43 67 -42 22 0 22 1 -5 7 -18 4 -38 18 -50 37 l-20 32 -115 1 -115 1 -20 -33 c-32 -51 -93 -50 -115 3 -11 27 -17 30 -57 30 -40 0 -44 2 -41 22 2 17 9 22 25 21 25 -3 48 21 39 42 -3 8 -17 15 -31 15 -22 0 -26 4 -23 23 3 19 11 23 53 27 33 3 49 9 48 18 -2 6 1 12 6 12 5 0 11 -10 13 -22 3 -24 14 -26 123 -19 22 2 58 0 81 -4 31 -6 44 -3 57 10 9 9 22 13 27 10 6 -4 67 -7 136 -6 124 0 125 0 134 -25 6 -14 10 -48 10 -75 0 -47 -1 -49 -27 -50 -16 -1 -36 0 -46 0 -9 1 -20 -6 -24 -16 -3 -10 -11 -25 -17 -33 -6 -9 0 -5 13 9 17 18 32 25 52 23 62 -7 68 1 62 81 -3 40 -10 78 -16 85 -6 8 -45 12 -130 12 -103 0 -122 3 -133 18 -12 16 -14 16 -36 -5 -32 -30 -94 -32 -103 -3 -3 11 -10 20 -15 20 -5 0 -14 -9 -20 -20 -16 -29 -104 -29 -120 0 -13 24 -28 26 -36 5z" transform="translate(0,30) scale(0.1,-0.1)" stroke="none" fill="#298A8E"/>

<path d="M163 258 c1 -9 -15 -15 -48 -18 -42 -4 -50 -8 -53 -27 -3 -19 1 -23 23 -23 14 0 28 -7 31 -15 9 -21 -14 -45 -39 -42 -16 1 -22 -4 -22 -18 0 -16 8 -21 36 -23 29 -2 42 3 67 27 38 39 65 39 103 1 29 -29 32 -29 138 -31 l107 -1 31 31 c39 39 67 39 102 2 29 -31 38 -34 84 -32 26 1 27 3 27 50 0 27 -4 61 -10 75 -9 25 -10 25 -134 25 -69 -1 -130 2 -136 6 -5 3 -18 -1 -27 -10 -13 -13 -26 -16 -57 -10 -23 4 -59 6 -81 4 -109 -7 -120 -5 -123 19 -2 12 -8 22 -13 22 -5 0 -8 -6 -6 -12z" transform="translate(0,30) scale(0.1,-0.1)" stroke="none" fill="#E9E4E1"/>

</g>

<g id="2" transform="translate(0,60.0)scale(0.8,0.8)">

<path d="M192 83 c4 -21 33 -25 33 -3 0 8 -8 16 -18 18 -14 3 -18 -1 -15 -15z m28 -3 c0 -5 -4 -10 -10 -10 -5 0 -10 5 -10 10 0 6 5 10 10 10 6 0 10 -4 10 -10z" transform="translate(0,30) scale(0.1,-0.1)" stroke="none" fill="#298A8E"/>

<path d="M572 83 c4 -21 33 -25 33 -3 0 8 -8 16 -18 18 -14 3 -18 -1 -15 -15z m28 -3 c0 -5 -4 -10 -10 -10 -5 0 -10 5 -10 10 0 6 5 10 10 10 6 0 10 -4 10 -10z" transform="translate(0,30) scale(0.1,-0.1)" stroke="none" fill="#298A8E"/>

<path d="M170 118 c-26 -28 -25 -44 4 -73 27 -27 58 -24 81 8 20 29 19 43 -5 67 -26 26 -54 25 -80 -2z m54 -14 c20 -8 21 -28 2 -43 -18 -15 -46 -4 -46 18 0 29 14 37 44 25z" transform="translate(0,30) scale(0.1,-0.1)" stroke="none" fill="#5CB3B6"/>

<path d="M550 120 c-27 -27 -25 -52 5 -80 21 -20 28 -22 50 -12 33 15 50 58 33 81 -30 37 -58 41 -88 11z m54 -16 c20 -8 21 -28 2 -43 -18 -15 -46 -4 -46 18 0 29 14 37 44 25z" transform="translate(0,30) scale(0.1,-0.1)" stroke="none" fill="#5CB3B6"/>

<path d="M154 265 c-4 -10 -20 -15 -49 -15 -23 0 -47 -6 -53 -12 -5 -7 -11 -47 -13 -88 l-4 -75 48 2 c42 2 49 -1 62 -26 26 -52 81 -56 120 -9 l26 31 111 0 c98 -1 112 -3 121 -19 16 -29 39 -43 67 -42 22 0 22 1 -5 7 -18 4 -38 18 -50 37 l-20 32 -115 1 -115 1 -20 -33 c-32 -51 -93 -50 -115 3 -11 27 -17 30 -57 30 -40 0 -44 2 -41 22 2 17 9 22 25 21 25 -3 48 21 39 42 -3 8 -17 15 -31 15 -22 0 -26 4 -23 23 3 19 11 23 53 27 33 3 49 9 48 18 -2 6 1 12 6 12 5 0 11 -10 13 -22 3 -24 14 -26 123 -19 22 2 58 0 81 -4 31 -6 44 -3 57 10 9 9 22 13 27 10 6 -4 67 -7 136 -6 124 0 125 0 134 -25 6 -14 10 -48 10 -75 0 -47 -1 -49 -27 -50 -16 -1 -36 0 -46 0 -9 1 -20 -6 -24 -16 -3 -10 -11 -25 -17 -33 -6 -9 0 -5 13 9 17 18 32 25 52 23 62 -7 68 1 62 81 -3 40 -10 78 -16 85 -6 8 -45 12 -130 12 -103 0 -122 3 -133 18 -12 16 -14 16 -36 -5 -32 -30 -94 -32 -103 -3 -3 11 -10 20 -15 20 -5 0 -14 -9 -20 -20 -16 -29 -104 -29 -120 0 -13 24 -28 26 -36 5z" transform="translate(0,30) scale(0.1,-0.1)" stroke="none" fill="#298A8E"/>

<path d="M163 258 c1 -9 -15 -15 -48 -18 -42 -4 -50 -8 -53 -27 -3 -19 1 -23 23 -23 14 0 28 -7 31 -15 9 -21 -14 -45 -39 -42 -16 1 -22 -4 -22 -18 0 -16 8 -21 36 -23 29 -2 42 3 67 27 38 39 65 39 103 1 29 -29 32 -29 138 -31 l107 -1 31 31 c39 39 67 39 102 2 29 -31 38 -34 84 -32 26 1 27 3 27 50 0 27 -4 61 -10 75 -9 25 -10 25 -134 25 -69 -1 -130 2 -136 6 -5 3 -18 -1 -27 -10 -13 -13 -26 -16 -57 -10 -23 4 -59 6 -81 4 -109 -7 -120 -5 -123 19 -2 12 -8 22 -13 22 -5 0 -8 -6 -6 -12z" transform="translate(0,30) scale(0.1,-0.1)" stroke="none" fill="#E9E4E1"/>

</g>

<g id="3" transform="translate(0,90.0)scale(0.8,0.8)">

<path d="M192 83 c4 -21 33 -25 33 -3 0 8 -8 16 -18 18 -14 3 -18 -1 -15 -15z m28 -3 c0 -5 -4 -10 -10 -10 -5 0 -10 5 -10 10 0 6 5 10 10 10 6 0 10 -4 10 -10z" transform="translate(0,30) scale(0.1,-0.1)" stroke="none" fill="#298A8E"/>

<path d="M572 83 c4 -21 33 -25 33 -3 0 8 -8 16 -18 18 -14 3 -18 -1 -15 -15z m28 -3 c0 -5 -4 -10 -10 -10 -5 0 -10 5 -10 10 0 6 5 10 10 10 6 0 10 -4 10 -10z" transform="translate(0,30) scale(0.1,-0.1)" stroke="none" fill="#298A8E"/>

<path d="M170 118 c-26 -28 -25 -44 4 -73 27 -27 58 -24 81 8 20 29 19 43 -5 67 -26 26 -54 25 -80 -2z m54 -14 c20 -8 21 -28 2 -43 -18 -15 -46 -4 -46 18 0 29 14 37 44 25z" transform="translate(0,30) scale(0.1,-0.1)" stroke="none" fill="#5CB3B6"/>

<path d="M550 120 c-27 -27 -25 -52 5 -80 21 -20 28 -22 50 -12 33 15 50 58 33 81 -30 37 -58 41 -88 11z m54 -16 c20 -8 21 -28 2 -43 -18 -15 -46 -4 -46 18 0 29 14 37 44 25z" transform="translate(0,30) scale(0.1,-0.1)" stroke="none" fill="#5CB3B6"/>

<path d="M154 265 c-4 -10 -20 -15 -49 -15 -23 0 -47 -6 -53 -12 -5 -7 -11 -47 -13 -88 l-4 -75 48 2 c42 2 49 -1 62 -26 26 -52 81 -56 120 -9 l26 31 111 0 c98 -1 112 -3 121 -19 16 -29 39 -43 67 -42 22 0 22 1 -5 7 -18 4 -38 18 -50 37 l-20 32 -115 1 -115 1 -20 -33 c-32 -51 -93 -50 -115 3 -11 27 -17 30 -57 30 -40 0 -44 2 -41 22 2 17 9 22 25 21 25 -3 48 21 39 42 -3 8 -17 15 -31 15 -22 0 -26 4 -23 23 3 19 11 23 53 27 33 3 49 9 48 18 -2 6 1 12 6 12 5 0 11 -10 13 -22 3 -24 14 -26 123 -19 22 2 58 0 81 -4 31 -6 44 -3 57 10 9 9 22 13 27 10 6 -4 67 -7 136 -6 124 0 125 0 134 -25 6 -14 10 -48 10 -75 0 -47 -1 -49 -27 -50 -16 -1 -36 0 -46 0 -9 1 -20 -6 -24 -16 -3 -10 -11 -25 -17 -33 -6 -9 0 -5 13 9 17 18 32 25 52 23 62 -7 68 1 62 81 -3 40 -10 78 -16 85 -6 8 -45 12 -130 12 -103 0 -122 3 -133 18 -12 16 -14 16 -36 -5 -32 -30 -94 -32 -103 -3 -3 11 -10 20 -15 20 -5 0 -14 -9 -20 -20 -16 -29 -104 -29 -120 0 -13 24 -28 26 -36 5z" transform="translate(0,30) scale(0.1,-0.1)" stroke="none" fill="#298A8E"/>

<path d="M163 258 c1 -9 -15 -15 -48 -18 -42 -4 -50 -8 -53 -27 -3 -19 1 -23 23 -23 14 0 28 -7 31 -15 9 -21 -14 -45 -39 -42 -16 1 -22 -4 -22 -18 0 -16 8 -21 36 -23 29 -2 42 3 67 27 38 39 65 39 103 1 29 -29 32 -29 138 -31 l107 -1 31 31 c39 39 67 39 102 2 29 -31 38 -34 84 -32 26 1 27 3 27 50 0 27 -4 61 -10 75 -9 25 -10 25 -134 25 -69 -1 -130 2 -136 6 -5 3 -18 -1 -27 -10 -13 -13 -26 -16 -57 -10 -23 4 -59 6 -81 4 -109 -7 -120 -5 -123 19 -2 12 -8 22 -13 22 -5 0 -8 -6 -6 -12z" transform="translate(0,30) scale(0.1,-0.1)" stroke="none" fill="#E9E4E1"/>

</g>

<g id="4" transform="translate(0,120.0)scale(0.8,0.8)">

<path d="M192 83 c4 -21 33 -25 33 -3 0 8 -8 16 -18 18 -14 3 -18 -1 -15 -15z m28 -3 c0 -5 -4 -10 -10 -10 -5 0 -10 5 -10 10 0 6 5 10 10 10 6 0 10 -4 10 -10z" transform="translate(0,30) scale(0.1,-0.1)" stroke="none" fill="#298A8E"/>

<path d="M572 83 c4 -21 33 -25 33 -3 0 8 -8 16 -18 18 -14 3 -18 -1 -15 -15z m28 -3 c0 -5 -4 -10 -10 -10 -5 0 -10 5 -10 10 0 6 5 10 10 10 6 0 10 -4 10 -10z" transform="translate(0,30) scale(0.1,-0.1)" stroke="none" fill="#298A8E"/>

<path d="M170 118 c-26 -28 -25 -44 4 -73 27 -27 58 -24 81 8 20 29 19 43 -5 67 -26 26 -54 25 -80 -2z m54 -14 c20 -8 21 -28 2 -43 -18 -15 -46 -4 -46 18 0 29 14 37 44 25z" transform="translate(0,30) scale(0.1,-0.1)" stroke="none" fill="#5CB3B6"/>

<path d="M550 120 c-27 -27 -25 -52 5 -80 21 -20 28 -22 50 -12 33 15 50 58 33 81 -30 37 -58 41 -88 11z m54 -16 c20 -8 21 -28 2 -43 -18 -15 -46 -4 -46 18 0 29 14 37 44 25z" transform="translate(0,30) scale(0.1,-0.1)" stroke="none" fill="#5CB3B6"/>

<path d="M154 265 c-4 -10 -20 -15 -49 -15 -23 0 -47 -6 -53 -12 -5 -7 -11 -47 -13 -88 l-4 -75 48 2 c42 2 49 -1 62 -26 26 -52 81 -56 120 -9 l26 31 111 0 c98 -1 112 -3 121 -19 16 -29 39 -43 67 -42 22 0 22 1 -5 7 -18 4 -38 18 -50 37 l-20 32 -115 1 -115 1 -20 -33 c-32 -51 -93 -50 -115 3 -11 27 -17 30 -57 30 -40 0 -44 2 -41 22 2 17 9 22 25 21 25 -3 48 21 39 42 -3 8 -17 15 -31 15 -22 0 -26 4 -23 23 3 19 11 23 53 27 33 3 49 9 48 18 -2 6 1 12 6 12 5 0 11 -10 13 -22 3 -24 14 -26 123 -19 22 2 58 0 81 -4 31 -6 44 -3 57 10 9 9 22 13 27 10 6 -4 67 -7 136 -6 124 0 125 0 134 -25 6 -14 10 -48 10 -75 0 -47 -1 -49 -27 -50 -16 -1 -36 0 -46 0 -9 1 -20 -6 -24 -16 -3 -10 -11 -25 -17 -33 -6 -9 0 -5 13 9 17 18 32 25 52 23 62 -7 68 1 62 81 -3 40 -10 78 -16 85 -6 8 -45 12 -130 12 -103 0 -122 3 -133 18 -12 16 -14 16 -36 -5 -32 -30 -94 -32 -103 -3 -3 11 -10 20 -15 20 -5 0 -14 -9 -20 -20 -16 -29 -104 -29 -120 0 -13 24 -28 26 -36 5z" transform="translate(0,30) scale(0.1,-0.1)" stroke="none" fill="#298A8E"/>

<path d="M163 258 c1 -9 -15 -15 -48 -18 -42 -4 -50 -8 -53 -27 -3 -19 1 -23 23 -23 14 0 28 -7 31 -15 9 -21 -14 -45 -39 -42 -16 1 -22 -4 -22 -18 0 -16 8 -21 36 -23 29 -2 42 3 67 27 38 39 65 39 103 1 29 -29 32 -29 138 -31 l107 -1 31 31 c39 39 67 39 102 2 29 -31 38 -34 84 -32 26 1 27 3 27 50 0 27 -4 61 -10 75 -9 25 -10 25 -134 25 -69 -1 -130 2 -136 6 -5 3 -18 -1 -27 -10 -13 -13 -26 -16 -57 -10 -23 4 -59 6 -81 4 -109 -7 -120 -5 -123 19 -2 12 -8 22 -13 22 -5 0 -8 -6 -6 -12z" transform="translate(0,30) scale(0.1,-0.1)" stroke="none" fill="#E9E4E1"/>

</g>

</g>
<g id="col3" transform="translate(240, -11.0)">
<g id="0" transform="translate(0,0.0)scale(0.8,0.8)">

<path d="M192 83 c4 -21 33 -25 33 -3 0 8 -8 16 -18 18 -14 3 -18 -1 -15 -15z m28 -3 c0 -5 -4 -10 -10 -10 -5 0 -10 5 -10 10 0 6 5 10 10 10 6 0 10 -4 10 -10z" transform="translate(0,30) scale(0.1,-0.1)" stroke="none" fill="#298A8E"/>

<path d="M572 83 c4 -21 33 -25 33 -3 0 8 -8 16 -18 18 -14 3 -18 -1 -15 -15z m28 -3 c0 -5 -4 -10 -10 -10 -5 0 -10 5 -10 10 0 6 5 10 10 10 6 0 10 -4 10 -10z" transform="translate(0,30) scale(0.1,-0.1)" stroke="none" fill="#298A8E"/>

<path d="M170 118 c-26 -28 -25 -44 4 -73 27 -27 58 -24 81 8 20 29 19 43 -5 67 -26 26 -54 25 -80 -2z m54 -14 c20 -8 21 -28 2 -43 -18 -15 -46 -4 -46 18 0 29 14 37 44 25z" transform="translate(0,30) scale(0.1,-0.1)" stroke="none" fill="#5CB3B6"/>

<path d="M550 120 c-27 -27 -25 -52 5 -80 21 -20 28 -22 50 -12 33 15 50 58 33 81 -30 37 -58 41 -88 11z m54 -16 c20 -8 21 -28 2 -43 -18 -15 -46 -4 -46 18 0 29 14 37 44 25z" transform="translate(0,30) scale(0.1,-0.1)" stroke="none" fill="#5CB3B6"/>

<path d="M154 265 c-4 -10 -20 -15 -49 -15 -23 0 -47 -6 -53 -12 -5 -7 -11 -47 -13 -88 l-4 -75 48 2 c42 2 49 -1 62 -26 26 -52 81 -56 120 -9 l26 31 111 0 c98 -1 112 -3 121 -19 16 -29 39 -43 67 -42 22 0 22 1 -5 7 -18 4 -38 18 -50 37 l-20 32 -115 1 -115 1 -20 -33 c-32 -51 -93 -50 -115 3 -11 27 -17 30 -57 30 -40 0 -44 2 -41 22 2 17 9 22 25 21 25 -3 48 21 39 42 -3 8 -17 15 -31 15 -22 0 -26 4 -23 23 3 19 11 23 53 27 33 3 49 9 48 18 -2 6 1 12 6 12 5 0 11 -10 13 -22 3 -24 14 -26 123 -19 22 2 58 0 81 -4 31 -6 44 -3 57 10 9 9 22 13 27 10 6 -4 67 -7 136 -6 124 0 125 0 134 -25 6 -14 10 -48 10 -75 0 -47 -1 -49 -27 -50 -16 -1 -36 0 -46 0 -9 1 -20 -6 -24 -16 -3 -10 -11 -25 -17 -33 -6 -9 0 -5 13 9 17 18 32 25 52 23 62 -7 68 1 62 81 -3 40 -10 78 -16 85 -6 8 -45 12 -130 12 -103 0 -122 3 -133 18 -12 16 -14 16 -36 -5 -32 -30 -94 -32 -103 -3 -3 11 -10 20 -15 20 -5 0 -14 -9 -20 -20 -16 -29 -104 -29 -120 0 -13 24 -28 26 -36 5z" transform="translate(0,30) scale(0.1,-0.1)" stroke="none" fill="#298A8E"/>

<path d="M163 258 c1 -9 -15 -15 -48 -18 -42 -4 -50 -8 -53 -27 -3 -19 1 -23 23 -23 14 0 28 -7 31 -15 9 -21 -14 -45 -39 -42 -16 1 -22 -4 -22 -18 0 -16 8 -21 36 -23 29 -2 42 3 67 27 38 39 65 39 103 1 29 -29 32 -29 138 -31 l107 -1 31 31 c39 39 67 39 102 2 29 -31 38 -34 84 -32 26 1 27 3 27 50 0 27 -4 61 -10 75 -9 25 -10 25 -134 25 -69 -1 -130 2 -136 6 -5 3 -18 -1 -27 -10 -13 -13 -26 -16 -57 -10 -23 4 -59 6 -81 4 -109 -7 -120 -5 -123 19 -2 12 -8 22 -13 22 -5 0 -8 -6 -6 -12z" transform="translate(0,30) scale(0.1,-0.1)" stroke="none" fill="#E9E4E1"/>

</g>

<g id="1" transform="translate(0,30.0)scale(0.8,0.8)">

<path d="M192 83 c4 -21 33 -25 33 -3 0 8 -8 16 -18 18 -14 3 -18 -1 -15 -15z m28 -3 c0 -5 -4 -10 -10 -10 -5 0 -10 5 -10 10 0 6 5 10 10 10 6 0 10 -4 10 -10z" transform="translate(0,30) scale(0.1,-0.1)" stroke="none" fill="#298A8E"/>

<path d="M572 83 c4 -21 33 -25 33 -3 0 8 -8 16 -18 18 -14 3 -18 -1 -15 -15z m28 -3 c0 -5 -4 -10 -10 -10 -5 0 -10 5 -10 10 0 6 5 10 10 10 6 0 10 -4 10 -10z" transform="translate(0,30) scale(0.1,-0.1)" stroke="none" fill="#298A8E"/>

<path d="M170 118 c-26 -28 -25 -44 4 -73 27 -27 58 -24 81 8 20 29 19 43 -5 67 -26 26 -54 25 -80 -2z m54 -14 c20 -8 21 -28 2 -43 -18 -15 -46 -4 -46 18 0 29 14 37 44 25z" transform="translate(0,30) scale(0.1,-0.1)" stroke="none" fill="#5CB3B6"/>

<path d="M550 120 c-27 -27 -25 -52 5 -80 21 -20 28 -22 50 -12 33 15 50 58 33 81 -30 37 -58 41 -88 11z m54 -16 c20 -8 21 -28 2 -43 -18 -15 -46 -4 -46 18 0 29 14 37 44 25z" transform="translate(0,30) scale(0.1,-0.1)" stroke="none" fill="#5CB3B6"/>

<path d="M154 265 c-4 -10 -20 -15 -49 -15 -23 0 -47 -6 -53 -12 -5 -7 -11 -47 -13 -88 l-4 -75 48 2 c42 2 49 -1 62 -26 26 -52 81 -56 120 -9 l26 31 111 0 c98 -1 112 -3 121 -19 16 -29 39 -43 67 -42 22 0 22 1 -5 7 -18 4 -38 18 -50 37 l-20 32 -115 1 -115 1 -20 -33 c-32 -51 -93 -50 -115 3 -11 27 -17 30 -57 30 -40 0 -44 2 -41 22 2 17 9 22 25 21 25 -3 48 21 39 42 -3 8 -17 15 -31 15 -22 0 -26 4 -23 23 3 19 11 23 53 27 33 3 49 9 48 18 -2 6 1 12 6 12 5 0 11 -10 13 -22 3 -24 14 -26 123 -19 22 2 58 0 81 -4 31 -6 44 -3 57 10 9 9 22 13 27 10 6 -4 67 -7 136 -6 124 0 125 0 134 -25 6 -14 10 -48 10 -75 0 -47 -1 -49 -27 -50 -16 -1 -36 0 -46 0 -9 1 -20 -6 -24 -16 -3 -10 -11 -25 -17 -33 -6 -9 0 -5 13 9 17 18 32 25 52 23 62 -7 68 1 62 81 -3 40 -10 78 -16 85 -6 8 -45 12 -130 12 -103 0 -122 3 -133 18 -12 16 -14 16 -36 -5 -32 -30 -94 -32 -103 -3 -3 11 -10 20 -15 20 -5 0 -14 -9 -20 -20 -16 -29 -104 -29 -120 0 -13 24 -28 26 -36 5z" transform="translate(0,30) scale(0.1,-0.1)" stroke="none" fill="#298A8E"/>

<path d="M163 258 c1 -9 -15 -15 -48 -18 -42 -4 -50 -8 -53 -27 -3 -19 1 -23 23 -23 14 0 28 -7 31 -15 9 -21 -14 -45 -39 -42 -16 1 -22 -4 -22 -18 0 -16 8 -21 36 -23 29 -2 42 3 67 27 38 39 65 39 103 1 29 -29 32 -29 138 -31 l107 -1 31 31 c39 39 67 39 102 2 29 -31 38 -34 84 -32 26 1 27 3 27 50 0 27 -4 61 -10 75 -9 25 -10 25 -134 25 -69 -1 -130 2 -136 6 -5 3 -18 -1 -27 -10 -13 -13 -26 -16 -57 -10 -23 4 -59 6 -81 4 -109 -7 -120 -5 -123 19 -2 12 -8 22 -13 22 -5 0 -8 -6 -6 -12z" transform="translate(0,30) scale(0.1,-0.1)" stroke="none" fill="#E9E4E1"/>

</g>

<g id="2" transform="translate(0,60.0)scale(0.8,0.8)">

<path d="M192 83 c4 -21 33 -25 33 -3 0 8 -8 16 -18 18 -14 3 -18 -1 -15 -15z m28 -3 c0 -5 -4 -10 -10 -10 -5 0 -10 5 -10 10 0 6 5 10 10 10 6 0 10 -4 10 -10z" transform="translate(0,30) scale(0.1,-0.1)" stroke="none" fill="#298A8E"/>

<path d="M572 83 c4 -21 33 -25 33 -3 0 8 -8 16 -18 18 -14 3 -18 -1 -15 -15z m28 -3 c0 -5 -4 -10 -10 -10 -5 0 -10 5 -10 10 0 6 5 10 10 10 6 0 10 -4 10 -10z" transform="translate(0,30) scale(0.1,-0.1)" stroke="none" fill="#298A8E"/>

<path d="M170 118 c-26 -28 -25 -44 4 -73 27 -27 58 -24 81 8 20 29 19 43 -5 67 -26 26 -54 25 -80 -2z m54 -14 c20 -8 21 -28 2 -43 -18 -15 -46 -4 -46 18 0 29 14 37 44 25z" transform="translate(0,30) scale(0.1,-0.1)" stroke="none" fill="#5CB3B6"/>

<path d="M550 120 c-27 -27 -25 -52 5 -80 21 -20 28 -22 50 -12 33 15 50 58 33 81 -30 37 -58 41 -88 11z m54 -16 c20 -8 21 -28 2 -43 -18 -15 -46 -4 -46 18 0 29 14 37 44 25z" transform="translate(0,30) scale(0.1,-0.1)" stroke="none" fill="#5CB3B6"/>

<path d="M154 265 c-4 -10 -20 -15 -49 -15 -23 0 -47 -6 -53 -12 -5 -7 -11 -47 -13 -88 l-4 -75 48 2 c42 2 49 -1 62 -26 26 -52 81 -56 120 -9 l26 31 111 0 c98 -1 112 -3 121 -19 16 -29 39 -43 67 -42 22 0 22 1 -5 7 -18 4 -38 18 -50 37 l-20 32 -115 1 -115 1 -20 -33 c-32 -51 -93 -50 -115 3 -11 27 -17 30 -57 30 -40 0 -44 2 -41 22 2 17 9 22 25 21 25 -3 48 21 39 42 -3 8 -17 15 -31 15 -22 0 -26 4 -23 23 3 19 11 23 53 27 33 3 49 9 48 18 -2 6 1 12 6 12 5 0 11 -10 13 -22 3 -24 14 -26 123 -19 22 2 58 0 81 -4 31 -6 44 -3 57 10 9 9 22 13 27 10 6 -4 67 -7 136 -6 124 0 125 0 134 -25 6 -14 10 -48 10 -75 0 -47 -1 -49 -27 -50 -16 -1 -36 0 -46 0 -9 1 -20 -6 -24 -16 -3 -10 -11 -25 -17 -33 -6 -9 0 -5 13 9 17 18 32 25 52 23 62 -7 68 1 62 81 -3 40 -10 78 -16 85 -6 8 -45 12 -130 12 -103 0 -122 3 -133 18 -12 16 -14 16 -36 -5 -32 -30 -94 -32 -103 -3 -3 11 -10 20 -15 20 -5 0 -14 -9 -20 -20 -16 -29 -104 -29 -120 0 -13 24 -28 26 -36 5z" transform="translate(0,30) scale(0.1,-0.1)" stroke="none" fill="#298A8E"/>

<path d="M163 258 c1 -9 -15 -15 -48 -18 -42 -4 -50 -8 -53 -27 -3 -19 1 -23 23 -23 14 0 28 -7 31 -15 9 -21 -14 -45 -39 -42 -16 1 -22 -4 -22 -18 0 -16 8 -21 36 -23 29 -2 42 3 67 27 38 39 65 39 103 1 29 -29 32 -29 138 -31 l107 -1 31 31 c39 39 67 39 102 2 29 -31 38 -34 84 -32 26 1 27 3 27 50 0 27 -4 61 -10 75 -9 25 -10 25 -134 25 -69 -1 -130 2 -136 6 -5 3 -18 -1 -27 -10 -13 -13 -26 -16 -57 -10 -23 4 -59 6 -81 4 -109 -7 -120 -5 -123 19 -2 12 -8 22 -13 22 -5 0 -8 -6 -6 -12z" transform="translate(0,30) scale(0.1,-0.1)" stroke="none" fill="#E9E4E1"/>

</g>

<g id="3" transform="translate(0,90.0)scale(0.8,0.8)">

<path d="M192 83 c4 -21 33 -25 33 -3 0 8 -8 16 -18 18 -14 3 -18 -1 -15 -15z m28 -3 c0 -5 -4 -10 -10 -10 -5 0 -10 5 -10 10 0 6 5 10 10 10 6 0 10 -4 10 -10z" transform="translate(0,30) scale(0.1,-0.1)" stroke="none" fill="#298A8E"/>

<path d="M572 83 c4 -21 33 -25 33 -3 0 8 -8 16 -18 18 -14 3 -18 -1 -15 -15z m28 -3 c0 -5 -4 -10 -10 -10 -5 0 -10 5 -10 10 0 6 5 10 10 10 6 0 10 -4 10 -10z" transform="translate(0,30) scale(0.1,-0.1)" stroke="none" fill="#298A8E"/>

<path d="M170 118 c-26 -28 -25 -44 4 -73 27 -27 58 -24 81 8 20 29 19 43 -5 67 -26 26 -54 25 -80 -2z m54 -14 c20 -8 21 -28 2 -43 -18 -15 -46 -4 -46 18 0 29 14 37 44 25z" transform="translate(0,30) scale(0.1,-0.1)" stroke="none" fill="#5CB3B6"/>

<path d="M550 120 c-27 -27 -25 -52 5 -80 21 -20 28 -22 50 -12 33 15 50 58 33 81 -30 37 -58 41 -88 11z m54 -16 c20 -8 21 -28 2 -43 -18 -15 -46 -4 -46 18 0 29 14 37 44 25z" transform="translate(0,30) scale(0.1,-0.1)" stroke="none" fill="#5CB3B6"/>

<path d="M154 265 c-4 -10 -20 -15 -49 -15 -23 0 -47 -6 -53 -12 -5 -7 -11 -47 -13 -88 l-4 -75 48 2 c42 2 49 -1 62 -26 26 -52 81 -56 120 -9 l26 31 111 0 c98 -1 112 -3 121 -19 16 -29 39 -43 67 -42 22 0 22 1 -5 7 -18 4 -38 18 -50 37 l-20 32 -115 1 -115 1 -20 -33 c-32 -51 -93 -50 -115 3 -11 27 -17 30 -57 30 -40 0 -44 2 -41 22 2 17 9 22 25 21 25 -3 48 21 39 42 -3 8 -17 15 -31 15 -22 0 -26 4 -23 23 3 19 11 23 53 27 33 3 49 9 48 18 -2 6 1 12 6 12 5 0 11 -10 13 -22 3 -24 14 -26 123 -19 22 2 58 0 81 -4 31 -6 44 -3 57 10 9 9 22 13 27 10 6 -4 67 -7 136 -6 124 0 125 0 134 -25 6 -14 10 -48 10 -75 0 -47 -1 -49 -27 -50 -16 -1 -36 0 -46 0 -9 1 -20 -6 -24 -16 -3 -10 -11 -25 -17 -33 -6 -9 0 -5 13 9 17 18 32 25 52 23 62 -7 68 1 62 81 -3 40 -10 78 -16 85 -6 8 -45 12 -130 12 -103 0 -122 3 -133 18 -12 16 -14 16 -36 -5 -32 -30 -94 -32 -103 -3 -3 11 -10 20 -15 20 -5 0 -14 -9 -20 -20 -16 -29 -104 -29 -120 0 -13 24 -28 26 -36 5z" transform="translate(0,30) scale(0.1,-0.1)" stroke="none" fill="#298A8E"/>

<path d="M163 258 c1 -9 -15 -15 -48 -18 -42 -4 -50 -8 -53 -27 -3 -19 1 -23 23 -23 14 0 28 -7 31 -15 9 -21 -14 -45 -39 -42 -16 1 -22 -4 -22 -18 0 -16 8 -21 36 -23 29 -2 42 3 67 27 38 39 65 39 103 1 29 -29 32 -29 138 -31 l107 -1 31 31 c39 39 67 39 102 2 29 -31 38 -34 84 -32 26 1 27 3 27 50 0 27 -4 61 -10 75 -9 25 -10 25 -134 25 -69 -1 -130 2 -136 6 -5 3 -18 -1 -27 -10 -13 -13 -26 -16 -57 -10 -23 4 -59 6 -81 4 -109 -7 -120 -5 -123 19 -2 12 -8 22 -13 22 -5 0 -8 -6 -6 -12z" transform="translate(0,30) scale(0.1,-0.1)" stroke="none" fill="#E9E4E1"/>

</g>

<g id="4" transform="translate(0,120.0)scale(0.8,0.8)">

<path d="M192 83 c4 -21 33 -25 33 -3 0 8 -8 16 -18 18 -14 3 -18 -1 -15 -15z m28 -3 c0 -5 -4 -10 -10 -10 -5 0 -10 5 -10 10 0 6 5 10 10 10 6 0 10 -4 10 -10z" transform="translate(0,30) scale(0.1,-0.1)" stroke="none" fill="#298A8E"/>

<path d="M572 83 c4 -21 33 -25 33 -3 0 8 -8 16 -18 18 -14 3 -18 -1 -15 -15z m28 -3 c0 -5 -4 -10 -10 -10 -5 0 -10 5 -10 10 0 6 5 10 10 10 6 0 10 -4 10 -10z" transform="translate(0,30) scale(0.1,-0.1)" stroke="none" fill="#298A8E"/>

<path d="M170 118 c-26 -28 -25 -44 4 -73 27 -27 58 -24 81 8 20 29 19 43 -5 67 -26 26 -54 25 -80 -2z m54 -14 c20 -8 21 -28 2 -43 -18 -15 -46 -4 -46 18 0 29 14 37 44 25z" transform="translate(0,30) scale(0.1,-0.1)" stroke="none" fill="#5CB3B6"/>

<path d="M550 120 c-27 -27 -25 -52 5 -80 21 -20 28 -22 50 -12 33 15 50 58 33 81 -30 37 -58 41 -88 11z m54 -16 c20 -8 21 -28 2 -43 -18 -15 -46 -4 -46 18 0 29 14 37 44 25z" transform="translate(0,30) scale(0.1,-0.1)" stroke="none" fill="#5CB3B6"/>

<path d="M154 265 c-4 -10 -20 -15 -49 -15 -23 0 -47 -6 -53 -12 -5 -7 -11 -47 -13 -88 l-4 -75 48 2 c42 2 49 -1 62 -26 26 -52 81 -56 120 -9 l26 31 111 0 c98 -1 112 -3 121 -19 16 -29 39 -43 67 -42 22 0 22 1 -5 7 -18 4 -38 18 -50 37 l-20 32 -115 1 -115 1 -20 -33 c-32 -51 -93 -50 -115 3 -11 27 -17 30 -57 30 -40 0 -44 2 -41 22 2 17 9 22 25 21 25 -3 48 21 39 42 -3 8 -17 15 -31 15 -22 0 -26 4 -23 23 3 19 11 23 53 27 33 3 49 9 48 18 -2 6 1 12 6 12 5 0 11 -10 13 -22 3 -24 14 -26 123 -19 22 2 58 0 81 -4 31 -6 44 -3 57 10 9 9 22 13 27 10 6 -4 67 -7 136 -6 124 0 125 0 134 -25 6 -14 10 -48 10 -75 0 -47 -1 -49 -27 -50 -16 -1 -36 0 -46 0 -9 1 -20 -6 -24 -16 -3 -10 -11 -25 -17 -33 -6 -9 0 -5 13 9 17 18 32 25 52 23 62 -7 68 1 62 81 -3 40 -10 78 -16 85 -6 8 -45 12 -130 12 -103 0 -122 3 -133 18 -12 16 -14 16 -36 -5 -32 -30 -94 -32 -103 -3 -3 11 -10 20 -15 20 -5 0 -14 -9 -20 -20 -16 -29 -104 -29 -120 0 -13 24 -28 26 -36 5z" transform="translate(0,30) scale(0.1,-0.1)" stroke="none" fill="#298A8E"/>

<path d="M163 258 c1 -9 -15 -15 -48 -18 -42 -4 -50 -8 -53 -27 -3 -19 1 -23 23 -23 14 0 28 -7 31 -15 9 -21 -14 -45 -39 -42 -16 1 -22 -4 -22 -18 0 -16 8 -21 36 -23 29 -2 42 3 67 27 38 39 65 39 103 1 29 -29 32 -29 138 -31 l107 -1 31 31 c39 39 67 39 102 2 29 -31 38 -34 84 -32 26 1 27 3 27 50 0 27 -4 61 -10 75 -9 25 -10 25 -134 25 -69 -1 -130 2 -136 6 -5 3 -18 -1 -27 -10 -13 -13 -26 -16 -57 -10 -23 4 -59 6 -81 4 -109 -7 -120 -5 -123 19 -2 12 -8 22 -13 22 -5 0 -8 -6 -6 -12z" transform="translate(0,30) scale(0.1,-0.1)" stroke="none" fill="#E9E4E1"/>

</g>

</g>
</svg>