<?xml version="1.0" standalone="no"?>
<!DOCTYPE svg PUBLIC "-//W3C//DTD SVG 20010904//EN"
 "http://www.w3.org/TR/2001/REC-SVG-20010904/DTD/svg10.dtd">
<svg version="1.0" xmlns="http://www.w3.org/2000/svg" 
width="162.000000pt" height="144.000000pt" viewBox="0 0 162.000000 144.000000"
preserveAspectRatio = "xMidYMid meet" >
<metadata>
Created by ZoeQU, 2022
</metadata>
<rect width="162.000000" height="144.000000" fill="#3C2C1E"/>
<path d="M870 1394 c-148 -17 -278 -41 -295 -56 -5 -4 -17 -8 -27 -8 -10 0 -26 -4 -36 -9 -94 -46 -120 -63 -165 -106 -29 -27 -62 -63 -75 -80 -12 -16 -29 -39 -38 -50 -36 -47 -102 -154 -109 -176 -4 -13 -11 -28 -15 -34 -28 -39 -59 -269 -60 -447 0 -183 14 -285 45 -324 20 -25 26 -27 46 -17 19 8 32 35 64 129 21 66 42 126 46 134 80 166 132 248 228 360 91 105 163 173 233 220 21 14 38 28 38 33 0 4 9 7 20 7 11 0 20 3 20 8 0 4 25 20 55 37 30 16 55 33 55 37 0 4 5 8 11 8 5 0 49 18 97 41 116 54 117 54 192 84 36 14 73 30 82 35 10 6 23 10 28 10 6 0 30 9 52 20 23 11 47 20 54 20 7 0 38 8 69 17 54 17 55 18 55 54 0 33 -3 37 -32 43 -38 7 -586 16 -638 10z m445 -14 c207 -12 215 -14 215 -43 0 -20 -9 -25 -72 -41 -72 -18 -304 -109 -424 -167 -34 -16 -66 -29 -71 -29 -4 0 -25 -11 -45 -25 -20 -14 -42 -25 -48 -25 -5 0 -33 -16 -60 -35 -27 -19 -54 -35 -59 -35 -5 0 -11 -3 -13 -7 -2 -5 -23 -21 -47 -38 -88 -60 -341 -334 -341 -370 0 -2 -11 -21 -25 -41 -35 -51 -89 -167 -115 -244 -12 -36 -30 -83 -40 -105 -10 -22 -21 -48 -24 -58 -10 -31 -35 -18 -56 31 -18 39 -22 74 -27 202 -3 89 -1 193 6 245 16 132 38 247 49 254 5 3 12 18 15 33 4 15 14 33 22 42 8 8 15 21 15 28 0 8 13 29 30 48 16 19 29 39 30 43 0 8 12 24 43 58 9 10 17 22 17 27 1 11 61 73 105 108 43 33 145 84 169 84 8 0 18 5 21 10 3 6 18 10 32 10 14 0 52 7 84 15 49 13 198 25 409 33 19 1 112 -3 205 -8z" transform="translate(0.000000,144.000000) scale(0.100000,-0.100000)" stroke="none" fill="#E0945A"/>

<path d="M918 1379 c-87 -5 -184 -15 -217 -24 -32 -8 -70 -15 -84 -15 -14 0 -29 -4 -32 -10 -3 -5 -13 -10 -21 -10 -24 0 -126 -51 -169 -84 -44 -35 -104 -97 -105 -108 0 -5 -8 -17 -17 -27 -31 -34 -43 -50 -43 -58 -1 -4 -14 -24 -30 -43 -17 -19 -30 -40 -30 -48 0 -7 -7 -20 -15 -28 -8 -9 -18 -27 -22 -42 -3 -15 -10 -30 -15 -33 -11 -7 -33 -122 -49 -254 -7 -52 -9 -156 -6 -245 5 -128 9 -163 27 -202 21 -49 46 -62 56 -31 3 10 14 36 24 58 10 22 28 69 40 105 26 77 80 193 115 244 14 20 25 39 25 41 0 36 253 310 341 370 24 17 45 33 47 38 2 4 8 7 13 7 5 0 32 16 59 35 27 19 55 35 60 35 6 0 28 11 48 25 20 14 41 25 45 25 5 0 37 13 71 29 120 58 352 149 424 167 63 16 72 21 72 41 0 15 -7 24 -22 28 -28 6 -350 25 -398 23 -19 0 -106 -5 -192 -9z" transform="translate(0.000000,144.000000) scale(0.100000,-0.100000)" stroke="none" fill="#885837"/>

</svg>