<?xml version="1.0" standalone="no"?>
<!DOCTYPE svg PUBLIC "-//W3C//DTD SVG 20010904//EN"
 "http://www.w3.org/TR/2001/REC-SVG-20010904/DTD/svg10.dtd">
<svg version="1.0" xmlns="http://www.w3.org/2000/svg" width="448pt" height="408pt" viewBox="0 0 448 408" preserveAspectRatio = "xMidYMid meet" >
<metadata>
Created by ZoeQu, written in 2022
</metadata>
<rect width="448" height="408" fill="#BBC3BD"/>
<g id="col0" transform="translate(0, 13)">
<g id="0" transform="translate(0,0.0)scale(0.8,0.8)">

<path d="M600 1010 c0 -6 -28 -10 -64 -10 -36 0 -68 -4 -71 -10 -3 -5 -17 -10 -31 -10 -14 0 -36 -11 -49 -25 -31 -30 -32 -39 -2 -31 12 4 47 14 77 23 71 22 289 24 340 4 123 -47 194 -111 250 -228 30 -60 34 -77 34 -153 0 -79 -3 -91 -39 -165 -52 -106 -168 -225 -272 -279 -114 -58 -163 -70 -293 -70 -111 0 -118 1 -193 36 -116 55 -183 129 -235 260 -33 82 -22 221 25 318 35 72 132 167 210 205 67 32 77 45 38 45 -14 0 -25 -4 -25 -10 0 -5 -9 -10 -20 -10 -11 0 -20 -4 -20 -10 0 -5 -8 -10 -18 -10 -10 0 -24 -9 -32 -20 -8 -11 -21 -20 -30 -20 -8 0 -21 -9 -28 -20 -7 -11 -21 -20 -31 -20 -12 0 -25 -12 -33 -30 -7 -16 -16 -30 -20 -30 -5 0 -8 -9 -8 -20 0 -11 -4 -20 -10 -20 -5 0 -10 -9 -10 -20 0 -11 -4 -20 -10 -20 -5 0 -10 -13 -10 -30 0 -16 -4 -30 -10 -30 -6 0 -10 -50 -10 -130 0 -80 4 -130 10 -130 6 0 10 -11 10 -25 0 -46 79 -161 128 -186 15 -7 41 -25 57 -40 33 -31 88 -57 150 -72 63 -15 186 -20 225 -8 19 5 58 15 85 22 28 7 62 21 77 31 14 10 32 18 40 18 23 0 106 57 165 113 55 52 116 135 142 192 7 17 17 38 22 47 5 10 9 73 9 141 0 110 -3 129 -24 173 -33 67 -83 134 -101 134 -8 0 -20 9 -27 20 -7 11 -21 20 -30 20 -10 0 -18 7 -18 16 0 22 -101 64 -155 64 -24 0 -47 5 -50 10 -3 6 -31 10 -61 10 -30 0 -54 -4 -54 -10z" transform="translate(0,102) scale(0.1,-0.1)" stroke="none" fill="#81786C"/>

</g>

<g id="1" transform="translate(0,102.0)scale(0.8,0.8)">

<path d="M600 1010 c0 -6 -28 -10 -64 -10 -36 0 -68 -4 -71 -10 -3 -5 -17 -10 -31 -10 -14 0 -36 -11 -49 -25 -31 -30 -32 -39 -2 -31 12 4 47 14 77 23 71 22 289 24 340 4 123 -47 194 -111 250 -228 30 -60 34 -77 34 -153 0 -79 -3 -91 -39 -165 -52 -106 -168 -225 -272 -279 -114 -58 -163 -70 -293 -70 -111 0 -118 1 -193 36 -116 55 -183 129 -235 260 -33 82 -22 221 25 318 35 72 132 167 210 205 67 32 77 45 38 45 -14 0 -25 -4 -25 -10 0 -5 -9 -10 -20 -10 -11 0 -20 -4 -20 -10 0 -5 -8 -10 -18 -10 -10 0 -24 -9 -32 -20 -8 -11 -21 -20 -30 -20 -8 0 -21 -9 -28 -20 -7 -11 -21 -20 -31 -20 -12 0 -25 -12 -33 -30 -7 -16 -16 -30 -20 -30 -5 0 -8 -9 -8 -20 0 -11 -4 -20 -10 -20 -5 0 -10 -9 -10 -20 0 -11 -4 -20 -10 -20 -5 0 -10 -13 -10 -30 0 -16 -4 -30 -10 -30 -6 0 -10 -50 -10 -130 0 -80 4 -130 10 -130 6 0 10 -11 10 -25 0 -46 79 -161 128 -186 15 -7 41 -25 57 -40 33 -31 88 -57 150 -72 63 -15 186 -20 225 -8 19 5 58 15 85 22 28 7 62 21 77 31 14 10 32 18 40 18 23 0 106 57 165 113 55 52 116 135 142 192 7 17 17 38 22 47 5 10 9 73 9 141 0 110 -3 129 -24 173 -33 67 -83 134 -101 134 -8 0 -20 9 -27 20 -7 11 -21 20 -30 20 -10 0 -18 7 -18 16 0 22 -101 64 -155 64 -24 0 -47 5 -50 10 -3 6 -31 10 -61 10 -30 0 -54 -4 -54 -10z" transform="translate(0,102) scale(0.1,-0.1)" stroke="none" fill="#81786C"/>

</g>

<g id="2" transform="translate(0,204.0)scale(0.8,0.8)">

<path d="M600 1010 c0 -6 -28 -10 -64 -10 -36 0 -68 -4 -71 -10 -3 -5 -17 -10 -31 -10 -14 0 -36 -11 -49 -25 -31 -30 -32 -39 -2 -31 12 4 47 14 77 23 71 22 289 24 340 4 123 -47 194 -111 250 -228 30 -60 34 -77 34 -153 0 -79 -3 -91 -39 -165 -52 -106 -168 -225 -272 -279 -114 -58 -163 -70 -293 -70 -111 0 -118 1 -193 36 -116 55 -183 129 -235 260 -33 82 -22 221 25 318 35 72 132 167 210 205 67 32 77 45 38 45 -14 0 -25 -4 -25 -10 0 -5 -9 -10 -20 -10 -11 0 -20 -4 -20 -10 0 -5 -8 -10 -18 -10 -10 0 -24 -9 -32 -20 -8 -11 -21 -20 -30 -20 -8 0 -21 -9 -28 -20 -7 -11 -21 -20 -31 -20 -12 0 -25 -12 -33 -30 -7 -16 -16 -30 -20 -30 -5 0 -8 -9 -8 -20 0 -11 -4 -20 -10 -20 -5 0 -10 -9 -10 -20 0 -11 -4 -20 -10 -20 -5 0 -10 -13 -10 -30 0 -16 -4 -30 -10 -30 -6 0 -10 -50 -10 -130 0 -80 4 -130 10 -130 6 0 10 -11 10 -25 0 -46 79 -161 128 -186 15 -7 41 -25 57 -40 33 -31 88 -57 150 -72 63 -15 186 -20 225 -8 19 5 58 15 85 22 28 7 62 21 77 31 14 10 32 18 40 18 23 0 106 57 165 113 55 52 116 135 142 192 7 17 17 38 22 47 5 10 9 73 9 141 0 110 -3 129 -24 173 -33 67 -83 134 -101 134 -8 0 -20 9 -27 20 -7 11 -21 20 -30 20 -10 0 -18 7 -18 16 0 22 -101 64 -155 64 -24 0 -47 5 -50 10 -3 6 -31 10 -61 10 -30 0 -54 -4 -54 -10z" transform="translate(0,102) scale(0.1,-0.1)" stroke="none" fill="#81786C"/>

</g>

<g id="3" transform="translate(0,306.0)scale(0.8,0.8)">

<path d="M600 1010 c0 -6 -28 -10 -64 -10 -36 0 -68 -4 -71 -10 -3 -5 -17 -10 -31 -10 -14 0 -36 -11 -49 -25 -31 -30 -32 -39 -2 -31 12 4 47 14 77 23 71 22 289 24 340 4 123 -47 194 -111 250 -228 30 -60 34 -77 34 -153 0 -79 -3 -91 -39 -165 -52 -106 -168 -225 -272 -279 -114 -58 -163 -70 -293 -70 -111 0 -118 1 -193 36 -116 55 -183 129 -235 260 -33 82 -22 221 25 318 35 72 132 167 210 205 67 32 77 45 38 45 -14 0 -25 -4 -25 -10 0 -5 -9 -10 -20 -10 -11 0 -20 -4 -20 -10 0 -5 -8 -10 -18 -10 -10 0 -24 -9 -32 -20 -8 -11 -21 -20 -30 -20 -8 0 -21 -9 -28 -20 -7 -11 -21 -20 -31 -20 -12 0 -25 -12 -33 -30 -7 -16 -16 -30 -20 -30 -5 0 -8 -9 -8 -20 0 -11 -4 -20 -10 -20 -5 0 -10 -9 -10 -20 0 -11 -4 -20 -10 -20 -5 0 -10 -13 -10 -30 0 -16 -4 -30 -10 -30 -6 0 -10 -50 -10 -130 0 -80 4 -130 10 -130 6 0 10 -11 10 -25 0 -46 79 -161 128 -186 15 -7 41 -25 57 -40 33 -31 88 -57 150 -72 63 -15 186 -20 225 -8 19 5 58 15 85 22 28 7 62 21 77 31 14 10 32 18 40 18 23 0 106 57 165 113 55 52 116 135 142 192 7 17 17 38 22 47 5 10 9 73 9 141 0 110 -3 129 -24 173 -33 67 -83 134 -101 134 -8 0 -20 9 -27 20 -7 11 -21 20 -30 20 -10 0 -18 7 -18 16 0 22 -101 64 -155 64 -24 0 -47 5 -50 10 -3 6 -31 10 -61 10 -30 0 -54 -4 -54 -10z" transform="translate(0,102) scale(0.1,-0.1)" stroke="none" fill="#81786C"/>

</g>

<g id="4" transform="translate(0,408.0)scale(0.8,0.8)">

<path d="M600 1010 c0 -6 -28 -10 -64 -10 -36 0 -68 -4 -71 -10 -3 -5 -17 -10 -31 -10 -14 0 -36 -11 -49 -25 -31 -30 -32 -39 -2 -31 12 4 47 14 77 23 71 22 289 24 340 4 123 -47 194 -111 250 -228 30 -60 34 -77 34 -153 0 -79 -3 -91 -39 -165 -52 -106 -168 -225 -272 -279 -114 -58 -163 -70 -293 -70 -111 0 -118 1 -193 36 -116 55 -183 129 -235 260 -33 82 -22 221 25 318 35 72 132 167 210 205 67 32 77 45 38 45 -14 0 -25 -4 -25 -10 0 -5 -9 -10 -20 -10 -11 0 -20 -4 -20 -10 0 -5 -8 -10 -18 -10 -10 0 -24 -9 -32 -20 -8 -11 -21 -20 -30 -20 -8 0 -21 -9 -28 -20 -7 -11 -21 -20 -31 -20 -12 0 -25 -12 -33 -30 -7 -16 -16 -30 -20 -30 -5 0 -8 -9 -8 -20 0 -11 -4 -20 -10 -20 -5 0 -10 -9 -10 -20 0 -11 -4 -20 -10 -20 -5 0 -10 -13 -10 -30 0 -16 -4 -30 -10 -30 -6 0 -10 -50 -10 -130 0 -80 4 -130 10 -130 6 0 10 -11 10 -25 0 -46 79 -161 128 -186 15 -7 41 -25 57 -40 33 -31 88 -57 150 -72 63 -15 186 -20 225 -8 19 5 58 15 85 22 28 7 62 21 77 31 14 10 32 18 40 18 23 0 106 57 165 113 55 52 116 135 142 192 7 17 17 38 22 47 5 10 9 73 9 141 0 110 -3 129 -24 173 -33 67 -83 134 -101 134 -8 0 -20 9 -27 20 -7 11 -21 20 -30 20 -10 0 -18 7 -18 16 0 22 -101 64 -155 64 -24 0 -47 5 -50 10 -3 6 -31 10 -61 10 -30 0 -54 -4 -54 -10z" transform="translate(0,102) scale(0.1,-0.1)" stroke="none" fill="#81786C"/>

</g>

</g>
<g id="col1" transform="translate(112, -38.0)">
<g id="0" transform="translate(0,0.0)scale(0.8,0.8)">

<path d="M600 1010 c0 -6 -28 -10 -64 -10 -36 0 -68 -4 -71 -10 -3 -5 -17 -10 -31 -10 -14 0 -36 -11 -49 -25 -31 -30 -32 -39 -2 -31 12 4 47 14 77 23 71 22 289 24 340 4 123 -47 194 -111 250 -228 30 -60 34 -77 34 -153 0 -79 -3 -91 -39 -165 -52 -106 -168 -225 -272 -279 -114 -58 -163 -70 -293 -70 -111 0 -118 1 -193 36 -116 55 -183 129 -235 260 -33 82 -22 221 25 318 35 72 132 167 210 205 67 32 77 45 38 45 -14 0 -25 -4 -25 -10 0 -5 -9 -10 -20 -10 -11 0 -20 -4 -20 -10 0 -5 -8 -10 -18 -10 -10 0 -24 -9 -32 -20 -8 -11 -21 -20 -30 -20 -8 0 -21 -9 -28 -20 -7 -11 -21 -20 -31 -20 -12 0 -25 -12 -33 -30 -7 -16 -16 -30 -20 -30 -5 0 -8 -9 -8 -20 0 -11 -4 -20 -10 -20 -5 0 -10 -9 -10 -20 0 -11 -4 -20 -10 -20 -5 0 -10 -13 -10 -30 0 -16 -4 -30 -10 -30 -6 0 -10 -50 -10 -130 0 -80 4 -130 10 -130 6 0 10 -11 10 -25 0 -46 79 -161 128 -186 15 -7 41 -25 57 -40 33 -31 88 -57 150 -72 63 -15 186 -20 225 -8 19 5 58 15 85 22 28 7 62 21 77 31 14 10 32 18 40 18 23 0 106 57 165 113 55 52 116 135 142 192 7 17 17 38 22 47 5 10 9 73 9 141 0 110 -3 129 -24 173 -33 67 -83 134 -101 134 -8 0 -20 9 -27 20 -7 11 -21 20 -30 20 -10 0 -18 7 -18 16 0 22 -101 64 -155 64 -24 0 -47 5 -50 10 -3 6 -31 10 -61 10 -30 0 -54 -4 -54 -10z" transform="translate(0,102) scale(0.1,-0.1)" stroke="none" fill="#81786C"/>

</g>

<g id="1" transform="translate(0,102.0)scale(0.8,0.8)">

<path d="M600 1010 c0 -6 -28 -10 -64 -10 -36 0 -68 -4 -71 -10 -3 -5 -17 -10 -31 -10 -14 0 -36 -11 -49 -25 -31 -30 -32 -39 -2 -31 12 4 47 14 77 23 71 22 289 24 340 4 123 -47 194 -111 250 -228 30 -60 34 -77 34 -153 0 -79 -3 -91 -39 -165 -52 -106 -168 -225 -272 -279 -114 -58 -163 -70 -293 -70 -111 0 -118 1 -193 36 -116 55 -183 129 -235 260 -33 82 -22 221 25 318 35 72 132 167 210 205 67 32 77 45 38 45 -14 0 -25 -4 -25 -10 0 -5 -9 -10 -20 -10 -11 0 -20 -4 -20 -10 0 -5 -8 -10 -18 -10 -10 0 -24 -9 -32 -20 -8 -11 -21 -20 -30 -20 -8 0 -21 -9 -28 -20 -7 -11 -21 -20 -31 -20 -12 0 -25 -12 -33 -30 -7 -16 -16 -30 -20 -30 -5 0 -8 -9 -8 -20 0 -11 -4 -20 -10 -20 -5 0 -10 -9 -10 -20 0 -11 -4 -20 -10 -20 -5 0 -10 -13 -10 -30 0 -16 -4 -30 -10 -30 -6 0 -10 -50 -10 -130 0 -80 4 -130 10 -130 6 0 10 -11 10 -25 0 -46 79 -161 128 -186 15 -7 41 -25 57 -40 33 -31 88 -57 150 -72 63 -15 186 -20 225 -8 19 5 58 15 85 22 28 7 62 21 77 31 14 10 32 18 40 18 23 0 106 57 165 113 55 52 116 135 142 192 7 17 17 38 22 47 5 10 9 73 9 141 0 110 -3 129 -24 173 -33 67 -83 134 -101 134 -8 0 -20 9 -27 20 -7 11 -21 20 -30 20 -10 0 -18 7 -18 16 0 22 -101 64 -155 64 -24 0 -47 5 -50 10 -3 6 -31 10 -61 10 -30 0 -54 -4 -54 -10z" transform="translate(0,102) scale(0.1,-0.1)" stroke="none" fill="#81786C"/>

</g>

<g id="2" transform="translate(0,204.0)scale(0.8,0.8)">

<path d="M600 1010 c0 -6 -28 -10 -64 -10 -36 0 -68 -4 -71 -10 -3 -5 -17 -10 -31 -10 -14 0 -36 -11 -49 -25 -31 -30 -32 -39 -2 -31 12 4 47 14 77 23 71 22 289 24 340 4 123 -47 194 -111 250 -228 30 -60 34 -77 34 -153 0 -79 -3 -91 -39 -165 -52 -106 -168 -225 -272 -279 -114 -58 -163 -70 -293 -70 -111 0 -118 1 -193 36 -116 55 -183 129 -235 260 -33 82 -22 221 25 318 35 72 132 167 210 205 67 32 77 45 38 45 -14 0 -25 -4 -25 -10 0 -5 -9 -10 -20 -10 -11 0 -20 -4 -20 -10 0 -5 -8 -10 -18 -10 -10 0 -24 -9 -32 -20 -8 -11 -21 -20 -30 -20 -8 0 -21 -9 -28 -20 -7 -11 -21 -20 -31 -20 -12 0 -25 -12 -33 -30 -7 -16 -16 -30 -20 -30 -5 0 -8 -9 -8 -20 0 -11 -4 -20 -10 -20 -5 0 -10 -9 -10 -20 0 -11 -4 -20 -10 -20 -5 0 -10 -13 -10 -30 0 -16 -4 -30 -10 -30 -6 0 -10 -50 -10 -130 0 -80 4 -130 10 -130 6 0 10 -11 10 -25 0 -46 79 -161 128 -186 15 -7 41 -25 57 -40 33 -31 88 -57 150 -72 63 -15 186 -20 225 -8 19 5 58 15 85 22 28 7 62 21 77 31 14 10 32 18 40 18 23 0 106 57 165 113 55 52 116 135 142 192 7 17 17 38 22 47 5 10 9 73 9 141 0 110 -3 129 -24 173 -33 67 -83 134 -101 134 -8 0 -20 9 -27 20 -7 11 -21 20 -30 20 -10 0 -18 7 -18 16 0 22 -101 64 -155 64 -24 0 -47 5 -50 10 -3 6 -31 10 -61 10 -30 0 -54 -4 -54 -10z" transform="translate(0,102) scale(0.1,-0.1)" stroke="none" fill="#81786C"/>

</g>

<g id="3" transform="translate(0,306.0)scale(0.8,0.8)">

<path d="M600 1010 c0 -6 -28 -10 -64 -10 -36 0 -68 -4 -71 -10 -3 -5 -17 -10 -31 -10 -14 0 -36 -11 -49 -25 -31 -30 -32 -39 -2 -31 12 4 47 14 77 23 71 22 289 24 340 4 123 -47 194 -111 250 -228 30 -60 34 -77 34 -153 0 -79 -3 -91 -39 -165 -52 -106 -168 -225 -272 -279 -114 -58 -163 -70 -293 -70 -111 0 -118 1 -193 36 -116 55 -183 129 -235 260 -33 82 -22 221 25 318 35 72 132 167 210 205 67 32 77 45 38 45 -14 0 -25 -4 -25 -10 0 -5 -9 -10 -20 -10 -11 0 -20 -4 -20 -10 0 -5 -8 -10 -18 -10 -10 0 -24 -9 -32 -20 -8 -11 -21 -20 -30 -20 -8 0 -21 -9 -28 -20 -7 -11 -21 -20 -31 -20 -12 0 -25 -12 -33 -30 -7 -16 -16 -30 -20 -30 -5 0 -8 -9 -8 -20 0 -11 -4 -20 -10 -20 -5 0 -10 -9 -10 -20 0 -11 -4 -20 -10 -20 -5 0 -10 -13 -10 -30 0 -16 -4 -30 -10 -30 -6 0 -10 -50 -10 -130 0 -80 4 -130 10 -130 6 0 10 -11 10 -25 0 -46 79 -161 128 -186 15 -7 41 -25 57 -40 33 -31 88 -57 150 -72 63 -15 186 -20 225 -8 19 5 58 15 85 22 28 7 62 21 77 31 14 10 32 18 40 18 23 0 106 57 165 113 55 52 116 135 142 192 7 17 17 38 22 47 5 10 9 73 9 141 0 110 -3 129 -24 173 -33 67 -83 134 -101 134 -8 0 -20 9 -27 20 -7 11 -21 20 -30 20 -10 0 -18 7 -18 16 0 22 -101 64 -155 64 -24 0 -47 5 -50 10 -3 6 -31 10 -61 10 -30 0 -54 -4 -54 -10z" transform="translate(0,102) scale(0.1,-0.1)" stroke="none" fill="#81786C"/>

</g>

<g id="4" transform="translate(0,408.0)scale(0.8,0.8)">

<path d="M600 1010 c0 -6 -28 -10 -64 -10 -36 0 -68 -4 -71 -10 -3 -5 -17 -10 -31 -10 -14 0 -36 -11 -49 -25 -31 -30 -32 -39 -2 -31 12 4 47 14 77 23 71 22 289 24 340 4 123 -47 194 -111 250 -228 30 -60 34 -77 34 -153 0 -79 -3 -91 -39 -165 -52 -106 -168 -225 -272 -279 -114 -58 -163 -70 -293 -70 -111 0 -118 1 -193 36 -116 55 -183 129 -235 260 -33 82 -22 221 25 318 35 72 132 167 210 205 67 32 77 45 38 45 -14 0 -25 -4 -25 -10 0 -5 -9 -10 -20 -10 -11 0 -20 -4 -20 -10 0 -5 -8 -10 -18 -10 -10 0 -24 -9 -32 -20 -8 -11 -21 -20 -30 -20 -8 0 -21 -9 -28 -20 -7 -11 -21 -20 -31 -20 -12 0 -25 -12 -33 -30 -7 -16 -16 -30 -20 -30 -5 0 -8 -9 -8 -20 0 -11 -4 -20 -10 -20 -5 0 -10 -9 -10 -20 0 -11 -4 -20 -10 -20 -5 0 -10 -13 -10 -30 0 -16 -4 -30 -10 -30 -6 0 -10 -50 -10 -130 0 -80 4 -130 10 -130 6 0 10 -11 10 -25 0 -46 79 -161 128 -186 15 -7 41 -25 57 -40 33 -31 88 -57 150 -72 63 -15 186 -20 225 -8 19 5 58 15 85 22 28 7 62 21 77 31 14 10 32 18 40 18 23 0 106 57 165 113 55 52 116 135 142 192 7 17 17 38 22 47 5 10 9 73 9 141 0 110 -3 129 -24 173 -33 67 -83 134 -101 134 -8 0 -20 9 -27 20 -7 11 -21 20 -30 20 -10 0 -18 7 -18 16 0 22 -101 64 -155 64 -24 0 -47 5 -50 10 -3 6 -31 10 -61 10 -30 0 -54 -4 -54 -10z" transform="translate(0,102) scale(0.1,-0.1)" stroke="none" fill="#81786C"/>

</g>

</g>
<g id="col2" transform="translate(224, 13)">
<g id="0" transform="translate(0,0.0)scale(0.8,0.8)">

<path d="M600 1010 c0 -6 -28 -10 -64 -10 -36 0 -68 -4 -71 -10 -3 -5 -17 -10 -31 -10 -14 0 -36 -11 -49 -25 -31 -30 -32 -39 -2 -31 12 4 47 14 77 23 71 22 289 24 340 4 123 -47 194 -111 250 -228 30 -60 34 -77 34 -153 0 -79 -3 -91 -39 -165 -52 -106 -168 -225 -272 -279 -114 -58 -163 -70 -293 -70 -111 0 -118 1 -193 36 -116 55 -183 129 -235 260 -33 82 -22 221 25 318 35 72 132 167 210 205 67 32 77 45 38 45 -14 0 -25 -4 -25 -10 0 -5 -9 -10 -20 -10 -11 0 -20 -4 -20 -10 0 -5 -8 -10 -18 -10 -10 0 -24 -9 -32 -20 -8 -11 -21 -20 -30 -20 -8 0 -21 -9 -28 -20 -7 -11 -21 -20 -31 -20 -12 0 -25 -12 -33 -30 -7 -16 -16 -30 -20 -30 -5 0 -8 -9 -8 -20 0 -11 -4 -20 -10 -20 -5 0 -10 -9 -10 -20 0 -11 -4 -20 -10 -20 -5 0 -10 -13 -10 -30 0 -16 -4 -30 -10 -30 -6 0 -10 -50 -10 -130 0 -80 4 -130 10 -130 6 0 10 -11 10 -25 0 -46 79 -161 128 -186 15 -7 41 -25 57 -40 33 -31 88 -57 150 -72 63 -15 186 -20 225 -8 19 5 58 15 85 22 28 7 62 21 77 31 14 10 32 18 40 18 23 0 106 57 165 113 55 52 116 135 142 192 7 17 17 38 22 47 5 10 9 73 9 141 0 110 -3 129 -24 173 -33 67 -83 134 -101 134 -8 0 -20 9 -27 20 -7 11 -21 20 -30 20 -10 0 -18 7 -18 16 0 22 -101 64 -155 64 -24 0 -47 5 -50 10 -3 6 -31 10 -61 10 -30 0 -54 -4 -54 -10z" transform="translate(0,102) scale(0.1,-0.1)" stroke="none" fill="#81786C"/>

</g>

<g id="1" transform="translate(0,102.0)scale(0.8,0.8)">

<path d="M600 1010 c0 -6 -28 -10 -64 -10 -36 0 -68 -4 -71 -10 -3 -5 -17 -10 -31 -10 -14 0 -36 -11 -49 -25 -31 -30 -32 -39 -2 -31 12 4 47 14 77 23 71 22 289 24 340 4 123 -47 194 -111 250 -228 30 -60 34 -77 34 -153 0 -79 -3 -91 -39 -165 -52 -106 -168 -225 -272 -279 -114 -58 -163 -70 -293 -70 -111 0 -118 1 -193 36 -116 55 -183 129 -235 260 -33 82 -22 221 25 318 35 72 132 167 210 205 67 32 77 45 38 45 -14 0 -25 -4 -25 -10 0 -5 -9 -10 -20 -10 -11 0 -20 -4 -20 -10 0 -5 -8 -10 -18 -10 -10 0 -24 -9 -32 -20 -8 -11 -21 -20 -30 -20 -8 0 -21 -9 -28 -20 -7 -11 -21 -20 -31 -20 -12 0 -25 -12 -33 -30 -7 -16 -16 -30 -20 -30 -5 0 -8 -9 -8 -20 0 -11 -4 -20 -10 -20 -5 0 -10 -9 -10 -20 0 -11 -4 -20 -10 -20 -5 0 -10 -13 -10 -30 0 -16 -4 -30 -10 -30 -6 0 -10 -50 -10 -130 0 -80 4 -130 10 -130 6 0 10 -11 10 -25 0 -46 79 -161 128 -186 15 -7 41 -25 57 -40 33 -31 88 -57 150 -72 63 -15 186 -20 225 -8 19 5 58 15 85 22 28 7 62 21 77 31 14 10 32 18 40 18 23 0 106 57 165 113 55 52 116 135 142 192 7 17 17 38 22 47 5 10 9 73 9 141 0 110 -3 129 -24 173 -33 67 -83 134 -101 134 -8 0 -20 9 -27 20 -7 11 -21 20 -30 20 -10 0 -18 7 -18 16 0 22 -101 64 -155 64 -24 0 -47 5 -50 10 -3 6 -31 10 -61 10 -30 0 -54 -4 -54 -10z" transform="translate(0,102) scale(0.1,-0.1)" stroke="none" fill="#81786C"/>

</g>

<g id="2" transform="translate(0,204.0)scale(0.8,0.8)">

<path d="M600 1010 c0 -6 -28 -10 -64 -10 -36 0 -68 -4 -71 -10 -3 -5 -17 -10 -31 -10 -14 0 -36 -11 -49 -25 -31 -30 -32 -39 -2 -31 12 4 47 14 77 23 71 22 289 24 340 4 123 -47 194 -111 250 -228 30 -60 34 -77 34 -153 0 -79 -3 -91 -39 -165 -52 -106 -168 -225 -272 -279 -114 -58 -163 -70 -293 -70 -111 0 -118 1 -193 36 -116 55 -183 129 -235 260 -33 82 -22 221 25 318 35 72 132 167 210 205 67 32 77 45 38 45 -14 0 -25 -4 -25 -10 0 -5 -9 -10 -20 -10 -11 0 -20 -4 -20 -10 0 -5 -8 -10 -18 -10 -10 0 -24 -9 -32 -20 -8 -11 -21 -20 -30 -20 -8 0 -21 -9 -28 -20 -7 -11 -21 -20 -31 -20 -12 0 -25 -12 -33 -30 -7 -16 -16 -30 -20 -30 -5 0 -8 -9 -8 -20 0 -11 -4 -20 -10 -20 -5 0 -10 -9 -10 -20 0 -11 -4 -20 -10 -20 -5 0 -10 -13 -10 -30 0 -16 -4 -30 -10 -30 -6 0 -10 -50 -10 -130 0 -80 4 -130 10 -130 6 0 10 -11 10 -25 0 -46 79 -161 128 -186 15 -7 41 -25 57 -40 33 -31 88 -57 150 -72 63 -15 186 -20 225 -8 19 5 58 15 85 22 28 7 62 21 77 31 14 10 32 18 40 18 23 0 106 57 165 113 55 52 116 135 142 192 7 17 17 38 22 47 5 10 9 73 9 141 0 110 -3 129 -24 173 -33 67 -83 134 -101 134 -8 0 -20 9 -27 20 -7 11 -21 20 -30 20 -10 0 -18 7 -18 16 0 22 -101 64 -155 64 -24 0 -47 5 -50 10 -3 6 -31 10 -61 10 -30 0 -54 -4 -54 -10z" transform="translate(0,102) scale(0.1,-0.1)" stroke="none" fill="#81786C"/>

</g>

<g id="3" transform="translate(0,306.0)scale(0.8,0.8)">

<path d="M600 1010 c0 -6 -28 -10 -64 -10 -36 0 -68 -4 -71 -10 -3 -5 -17 -10 -31 -10 -14 0 -36 -11 -49 -25 -31 -30 -32 -39 -2 -31 12 4 47 14 77 23 71 22 289 24 340 4 123 -47 194 -111 250 -228 30 -60 34 -77 34 -153 0 -79 -3 -91 -39 -165 -52 -106 -168 -225 -272 -279 -114 -58 -163 -70 -293 -70 -111 0 -118 1 -193 36 -116 55 -183 129 -235 260 -33 82 -22 221 25 318 35 72 132 167 210 205 67 32 77 45 38 45 -14 0 -25 -4 -25 -10 0 -5 -9 -10 -20 -10 -11 0 -20 -4 -20 -10 0 -5 -8 -10 -18 -10 -10 0 -24 -9 -32 -20 -8 -11 -21 -20 -30 -20 -8 0 -21 -9 -28 -20 -7 -11 -21 -20 -31 -20 -12 0 -25 -12 -33 -30 -7 -16 -16 -30 -20 -30 -5 0 -8 -9 -8 -20 0 -11 -4 -20 -10 -20 -5 0 -10 -9 -10 -20 0 -11 -4 -20 -10 -20 -5 0 -10 -13 -10 -30 0 -16 -4 -30 -10 -30 -6 0 -10 -50 -10 -130 0 -80 4 -130 10 -130 6 0 10 -11 10 -25 0 -46 79 -161 128 -186 15 -7 41 -25 57 -40 33 -31 88 -57 150 -72 63 -15 186 -20 225 -8 19 5 58 15 85 22 28 7 62 21 77 31 14 10 32 18 40 18 23 0 106 57 165 113 55 52 116 135 142 192 7 17 17 38 22 47 5 10 9 73 9 141 0 110 -3 129 -24 173 -33 67 -83 134 -101 134 -8 0 -20 9 -27 20 -7 11 -21 20 -30 20 -10 0 -18 7 -18 16 0 22 -101 64 -155 64 -24 0 -47 5 -50 10 -3 6 -31 10 -61 10 -30 0 -54 -4 -54 -10z" transform="translate(0,102) scale(0.1,-0.1)" stroke="none" fill="#81786C"/>

</g>

<g id="4" transform="translate(0,408.0)scale(0.8,0.8)">

<path d="M600 1010 c0 -6 -28 -10 -64 -10 -36 0 -68 -4 -71 -10 -3 -5 -17 -10 -31 -10 -14 0 -36 -11 -49 -25 -31 -30 -32 -39 -2 -31 12 4 47 14 77 23 71 22 289 24 340 4 123 -47 194 -111 250 -228 30 -60 34 -77 34 -153 0 -79 -3 -91 -39 -165 -52 -106 -168 -225 -272 -279 -114 -58 -163 -70 -293 -70 -111 0 -118 1 -193 36 -116 55 -183 129 -235 260 -33 82 -22 221 25 318 35 72 132 167 210 205 67 32 77 45 38 45 -14 0 -25 -4 -25 -10 0 -5 -9 -10 -20 -10 -11 0 -20 -4 -20 -10 0 -5 -8 -10 -18 -10 -10 0 -24 -9 -32 -20 -8 -11 -21 -20 -30 -20 -8 0 -21 -9 -28 -20 -7 -11 -21 -20 -31 -20 -12 0 -25 -12 -33 -30 -7 -16 -16 -30 -20 -30 -5 0 -8 -9 -8 -20 0 -11 -4 -20 -10 -20 -5 0 -10 -9 -10 -20 0 -11 -4 -20 -10 -20 -5 0 -10 -13 -10 -30 0 -16 -4 -30 -10 -30 -6 0 -10 -50 -10 -130 0 -80 4 -130 10 -130 6 0 10 -11 10 -25 0 -46 79 -161 128 -186 15 -7 41 -25 57 -40 33 -31 88 -57 150 -72 63 -15 186 -20 225 -8 19 5 58 15 85 22 28 7 62 21 77 31 14 10 32 18 40 18 23 0 106 57 165 113 55 52 116 135 142 192 7 17 17 38 22 47 5 10 9 73 9 141 0 110 -3 129 -24 173 -33 67 -83 134 -101 134 -8 0 -20 9 -27 20 -7 11 -21 20 -30 20 -10 0 -18 7 -18 16 0 22 -101 64 -155 64 -24 0 -47 5 -50 10 -3 6 -31 10 -61 10 -30 0 -54 -4 -54 -10z" transform="translate(0,102) scale(0.1,-0.1)" stroke="none" fill="#81786C"/>

</g>

</g>
<g id="col3" transform="translate(336, -38.0)">
<g id="0" transform="translate(0,0.0)scale(0.8,0.8)">

<path d="M600 1010 c0 -6 -28 -10 -64 -10 -36 0 -68 -4 -71 -10 -3 -5 -17 -10 -31 -10 -14 0 -36 -11 -49 -25 -31 -30 -32 -39 -2 -31 12 4 47 14 77 23 71 22 289 24 340 4 123 -47 194 -111 250 -228 30 -60 34 -77 34 -153 0 -79 -3 -91 -39 -165 -52 -106 -168 -225 -272 -279 -114 -58 -163 -70 -293 -70 -111 0 -118 1 -193 36 -116 55 -183 129 -235 260 -33 82 -22 221 25 318 35 72 132 167 210 205 67 32 77 45 38 45 -14 0 -25 -4 -25 -10 0 -5 -9 -10 -20 -10 -11 0 -20 -4 -20 -10 0 -5 -8 -10 -18 -10 -10 0 -24 -9 -32 -20 -8 -11 -21 -20 -30 -20 -8 0 -21 -9 -28 -20 -7 -11 -21 -20 -31 -20 -12 0 -25 -12 -33 -30 -7 -16 -16 -30 -20 -30 -5 0 -8 -9 -8 -20 0 -11 -4 -20 -10 -20 -5 0 -10 -9 -10 -20 0 -11 -4 -20 -10 -20 -5 0 -10 -13 -10 -30 0 -16 -4 -30 -10 -30 -6 0 -10 -50 -10 -130 0 -80 4 -130 10 -130 6 0 10 -11 10 -25 0 -46 79 -161 128 -186 15 -7 41 -25 57 -40 33 -31 88 -57 150 -72 63 -15 186 -20 225 -8 19 5 58 15 85 22 28 7 62 21 77 31 14 10 32 18 40 18 23 0 106 57 165 113 55 52 116 135 142 192 7 17 17 38 22 47 5 10 9 73 9 141 0 110 -3 129 -24 173 -33 67 -83 134 -101 134 -8 0 -20 9 -27 20 -7 11 -21 20 -30 20 -10 0 -18 7 -18 16 0 22 -101 64 -155 64 -24 0 -47 5 -50 10 -3 6 -31 10 -61 10 -30 0 -54 -4 -54 -10z" transform="translate(0,102) scale(0.1,-0.1)" stroke="none" fill="#81786C"/>

</g>

<g id="1" transform="translate(0,102.0)scale(0.8,0.8)">

<path d="M600 1010 c0 -6 -28 -10 -64 -10 -36 0 -68 -4 -71 -10 -3 -5 -17 -10 -31 -10 -14 0 -36 -11 -49 -25 -31 -30 -32 -39 -2 -31 12 4 47 14 77 23 71 22 289 24 340 4 123 -47 194 -111 250 -228 30 -60 34 -77 34 -153 0 -79 -3 -91 -39 -165 -52 -106 -168 -225 -272 -279 -114 -58 -163 -70 -293 -70 -111 0 -118 1 -193 36 -116 55 -183 129 -235 260 -33 82 -22 221 25 318 35 72 132 167 210 205 67 32 77 45 38 45 -14 0 -25 -4 -25 -10 0 -5 -9 -10 -20 -10 -11 0 -20 -4 -20 -10 0 -5 -8 -10 -18 -10 -10 0 -24 -9 -32 -20 -8 -11 -21 -20 -30 -20 -8 0 -21 -9 -28 -20 -7 -11 -21 -20 -31 -20 -12 0 -25 -12 -33 -30 -7 -16 -16 -30 -20 -30 -5 0 -8 -9 -8 -20 0 -11 -4 -20 -10 -20 -5 0 -10 -9 -10 -20 0 -11 -4 -20 -10 -20 -5 0 -10 -13 -10 -30 0 -16 -4 -30 -10 -30 -6 0 -10 -50 -10 -130 0 -80 4 -130 10 -130 6 0 10 -11 10 -25 0 -46 79 -161 128 -186 15 -7 41 -25 57 -40 33 -31 88 -57 150 -72 63 -15 186 -20 225 -8 19 5 58 15 85 22 28 7 62 21 77 31 14 10 32 18 40 18 23 0 106 57 165 113 55 52 116 135 142 192 7 17 17 38 22 47 5 10 9 73 9 141 0 110 -3 129 -24 173 -33 67 -83 134 -101 134 -8 0 -20 9 -27 20 -7 11 -21 20 -30 20 -10 0 -18 7 -18 16 0 22 -101 64 -155 64 -24 0 -47 5 -50 10 -3 6 -31 10 -61 10 -30 0 -54 -4 -54 -10z" transform="translate(0,102) scale(0.1,-0.1)" stroke="none" fill="#81786C"/>

</g>

<g id="2" transform="translate(0,204.0)scale(0.8,0.8)">

<path d="M600 1010 c0 -6 -28 -10 -64 -10 -36 0 -68 -4 -71 -10 -3 -5 -17 -10 -31 -10 -14 0 -36 -11 -49 -25 -31 -30 -32 -39 -2 -31 12 4 47 14 77 23 71 22 289 24 340 4 123 -47 194 -111 250 -228 30 -60 34 -77 34 -153 0 -79 -3 -91 -39 -165 -52 -106 -168 -225 -272 -279 -114 -58 -163 -70 -293 -70 -111 0 -118 1 -193 36 -116 55 -183 129 -235 260 -33 82 -22 221 25 318 35 72 132 167 210 205 67 32 77 45 38 45 -14 0 -25 -4 -25 -10 0 -5 -9 -10 -20 -10 -11 0 -20 -4 -20 -10 0 -5 -8 -10 -18 -10 -10 0 -24 -9 -32 -20 -8 -11 -21 -20 -30 -20 -8 0 -21 -9 -28 -20 -7 -11 -21 -20 -31 -20 -12 0 -25 -12 -33 -30 -7 -16 -16 -30 -20 -30 -5 0 -8 -9 -8 -20 0 -11 -4 -20 -10 -20 -5 0 -10 -9 -10 -20 0 -11 -4 -20 -10 -20 -5 0 -10 -13 -10 -30 0 -16 -4 -30 -10 -30 -6 0 -10 -50 -10 -130 0 -80 4 -130 10 -130 6 0 10 -11 10 -25 0 -46 79 -161 128 -186 15 -7 41 -25 57 -40 33 -31 88 -57 150 -72 63 -15 186 -20 225 -8 19 5 58 15 85 22 28 7 62 21 77 31 14 10 32 18 40 18 23 0 106 57 165 113 55 52 116 135 142 192 7 17 17 38 22 47 5 10 9 73 9 141 0 110 -3 129 -24 173 -33 67 -83 134 -101 134 -8 0 -20 9 -27 20 -7 11 -21 20 -30 20 -10 0 -18 7 -18 16 0 22 -101 64 -155 64 -24 0 -47 5 -50 10 -3 6 -31 10 -61 10 -30 0 -54 -4 -54 -10z" transform="translate(0,102) scale(0.1,-0.1)" stroke="none" fill="#81786C"/>

</g>

<g id="3" transform="translate(0,306.0)scale(0.8,0.8)">

<path d="M600 1010 c0 -6 -28 -10 -64 -10 -36 0 -68 -4 -71 -10 -3 -5 -17 -10 -31 -10 -14 0 -36 -11 -49 -25 -31 -30 -32 -39 -2 -31 12 4 47 14 77 23 71 22 289 24 340 4 123 -47 194 -111 250 -228 30 -60 34 -77 34 -153 0 -79 -3 -91 -39 -165 -52 -106 -168 -225 -272 -279 -114 -58 -163 -70 -293 -70 -111 0 -118 1 -193 36 -116 55 -183 129 -235 260 -33 82 -22 221 25 318 35 72 132 167 210 205 67 32 77 45 38 45 -14 0 -25 -4 -25 -10 0 -5 -9 -10 -20 -10 -11 0 -20 -4 -20 -10 0 -5 -8 -10 -18 -10 -10 0 -24 -9 -32 -20 -8 -11 -21 -20 -30 -20 -8 0 -21 -9 -28 -20 -7 -11 -21 -20 -31 -20 -12 0 -25 -12 -33 -30 -7 -16 -16 -30 -20 -30 -5 0 -8 -9 -8 -20 0 -11 -4 -20 -10 -20 -5 0 -10 -9 -10 -20 0 -11 -4 -20 -10 -20 -5 0 -10 -13 -10 -30 0 -16 -4 -30 -10 -30 -6 0 -10 -50 -10 -130 0 -80 4 -130 10 -130 6 0 10 -11 10 -25 0 -46 79 -161 128 -186 15 -7 41 -25 57 -40 33 -31 88 -57 150 -72 63 -15 186 -20 225 -8 19 5 58 15 85 22 28 7 62 21 77 31 14 10 32 18 40 18 23 0 106 57 165 113 55 52 116 135 142 192 7 17 17 38 22 47 5 10 9 73 9 141 0 110 -3 129 -24 173 -33 67 -83 134 -101 134 -8 0 -20 9 -27 20 -7 11 -21 20 -30 20 -10 0 -18 7 -18 16 0 22 -101 64 -155 64 -24 0 -47 5 -50 10 -3 6 -31 10 -61 10 -30 0 -54 -4 -54 -10z" transform="translate(0,102) scale(0.1,-0.1)" stroke="none" fill="#81786C"/>

</g>

<g id="4" transform="translate(0,408.0)scale(0.8,0.8)">

<path d="M600 1010 c0 -6 -28 -10 -64 -10 -36 0 -68 -4 -71 -10 -3 -5 -17 -10 -31 -10 -14 0 -36 -11 -49 -25 -31 -30 -32 -39 -2 -31 12 4 47 14 77 23 71 22 289 24 340 4 123 -47 194 -111 250 -228 30 -60 34 -77 34 -153 0 -79 -3 -91 -39 -165 -52 -106 -168 -225 -272 -279 -114 -58 -163 -70 -293 -70 -111 0 -118 1 -193 36 -116 55 -183 129 -235 260 -33 82 -22 221 25 318 35 72 132 167 210 205 67 32 77 45 38 45 -14 0 -25 -4 -25 -10 0 -5 -9 -10 -20 -10 -11 0 -20 -4 -20 -10 0 -5 -8 -10 -18 -10 -10 0 -24 -9 -32 -20 -8 -11 -21 -20 -30 -20 -8 0 -21 -9 -28 -20 -7 -11 -21 -20 -31 -20 -12 0 -25 -12 -33 -30 -7 -16 -16 -30 -20 -30 -5 0 -8 -9 -8 -20 0 -11 -4 -20 -10 -20 -5 0 -10 -9 -10 -20 0 -11 -4 -20 -10 -20 -5 0 -10 -13 -10 -30 0 -16 -4 -30 -10 -30 -6 0 -10 -50 -10 -130 0 -80 4 -130 10 -130 6 0 10 -11 10 -25 0 -46 79 -161 128 -186 15 -7 41 -25 57 -40 33 -31 88 -57 150 -72 63 -15 186 -20 225 -8 19 5 58 15 85 22 28 7 62 21 77 31 14 10 32 18 40 18 23 0 106 57 165 113 55 52 116 135 142 192 7 17 17 38 22 47 5 10 9 73 9 141 0 110 -3 129 -24 173 -33 67 -83 134 -101 134 -8 0 -20 9 -27 20 -7 11 -21 20 -30 20 -10 0 -18 7 -18 16 0 22 -101 64 -155 64 -24 0 -47 5 -50 10 -3 6 -31 10 -61 10 -30 0 -54 -4 -54 -10z" transform="translate(0,102) scale(0.1,-0.1)" stroke="none" fill="#81786C"/>

</g>

</g>
</svg>