<?xml version="1.0" standalone="no"?>
<!DOCTYPE svg PUBLIC "-//W3C//DTD SVG 20010904//EN"
 "http://www.w3.org/TR/2001/REC-SVG-20010904/DTD/svg10.dtd">
<svg version="1.0" xmlns="http://www.w3.org/2000/svg" width="4488pt" height="4488pt" viewBox="0 0 4488 4488" preserveAspectRatio = "xMidYMid meet" >
<metadata>
Created by ZoeQu, written in 2022
</metadata>
<rect width="4488" height="4488" fill="#E8BF96"/>
<g id="row0" transform="translate(0,0.0)">
<g id="0" transform="translate(0.0,0)scale(0.25,0.25)">

<g id="pattern">
<rect width="4862" height="4862" fill="#E8BF96"/>
<g id="pattern1" transform="matrix(1,0,0,1,302,302)">
<path d="M840 696 c0 -8 -7 -16 -15 -20 -9 -3 -19 -15 -23 -26 -26 -71 -257 -290 -347 -330 -27 -12 -58 -26 -67 -31 -10 -5 -31 -9 -47 -9 -17 0 -33 -4 -36 -10 -4 -6 -57 -10 -126 -10 -65 0 -119 -4 -119 -9 0 -22 94 -111 142 -134 153 -73 337 -96 459 -56 241 78 357 391 224 602 -30 48 -45 58 -45 33z m6 -231 c-17 -147 -126 -276 -283 -335 -45 -17 -207 -14 -273 5 -30 9 -65 19 -77 22 -51 12 -18 23 70 23 122 1 194 19 273 71 59 38 225 192 267 247 26 34 30 27 23 -33z" transform="translate(0.000000,0.000000) scale(1,1)" stroke="none" fill="#9B7044"/>
</g>
<g id="pattern2" transform="matrix(0.618,0,0,0.618,2303,676)">
<path d="M840 696 c0 -8 -7 -16 -15 -20 -9 -3 -19 -15 -23 -26 -26 -71 -257 -290 -347 -330 -27 -12 -58 -26 -67 -31 -10 -5 -31 -9 -47 -9 -17 0 -33 -4 -36 -10 -4 -6 -57 -10 -126 -10 -65 0 -119 -4 -119 -9 0 -22 94 -111 142 -134 153 -73 337 -96 459 -56 241 78 357 391 224 602 -30 48 -45 58 -45 33z m6 -231 c-17 -147 -126 -276 -283 -335 -45 -17 -207 -14 -273 5 -30 9 -65 19 -77 22 -51 12 -18 23 70 23 122 1 194 19 273 71 59 38 225 192 267 247 26 34 30 27 23 -33z" transform="translate(3051,0.000000) scale(-1,1)" stroke="none" fill="#9B7044"/>
</g>
<g id="pattern3" transform="matrix(0.618,0,0,0.618,863,3051)matrix(0.71,0.71,-0.71,0.71,0,0)">
<path d="M840 696 c0 -8 -7 -16 -15 -20 -9 -3 -19 -15 -23 -26 -26 -71 -257 -290 -347 -330 -27 -12 -58 -26 -67 -31 -10 -5 -31 -9 -47 -9 -17 0 -33 -4 -36 -10 -4 -6 -57 -10 -126 -10 -65 0 -119 -4 -119 -9 0 -22 94 -111 142 -134 153 -73 337 -96 459 -56 241 78 357 391 224 602 -30 48 -45 58 -45 33z m6 -231 c-17 -147 -126 -276 -283 -335 -45 -17 -207 -14 -273 5 -30 9 -65 19 -77 22 -51 12 -18 23 70 23 122 1 194 19 273 71 59 38 225 192 267 247 26 34 30 27 23 -33z" transform="translate(489,-489) scale(1,1)" stroke="none" fill="#9B7044"/>
</g>
<g id="pattern4" transform="matrix(1.618,0,0,1.618,1280,1280)matrix(0.87,0.5,-0.5,0.87,0,0)">
<path d="M840 696 c0 -8 -7 -16 -15 -20 -9 -3 -19 -15 -23 -26 -26 -71 -257 -290 -347 -330 -27 -12 -58 -26 -67 -31 -10 -5 -31 -9 -47 -9 -17 0 -33 -4 -36 -10 -4 -6 -57 -10 -126 -10 -65 0 -119 -4 -119 -9 0 -22 94 -111 142 -134 153 -73 337 -96 459 -56 241 78 357 391 224 602 -30 48 -45 58 -45 33z m6 -231 c-17 -147 -126 -276 -283 -335 -45 -17 -207 -14 -273 5 -30 9 -65 19 -77 22 -51 12 -18 23 70 23 122 1 194 19 273 71 59 38 225 192 267 247 26 34 30 27 23 -33z" transform="translate(489,-489) scale(1,1)" stroke="none" fill="#9B7044"/>
</g>
</g>
</g>

<g id="1" transform="translate(1122.0,0)scale(0.25,0.25)">

<g id="pattern">
<rect width="4862" height="4862" fill="#E8BF96"/>
<g id="pattern1" transform="matrix(1,0,0,1,302,302)">
<path d="M840 696 c0 -8 -7 -16 -15 -20 -9 -3 -19 -15 -23 -26 -26 -71 -257 -290 -347 -330 -27 -12 -58 -26 -67 -31 -10 -5 -31 -9 -47 -9 -17 0 -33 -4 -36 -10 -4 -6 -57 -10 -126 -10 -65 0 -119 -4 -119 -9 0 -22 94 -111 142 -134 153 -73 337 -96 459 -56 241 78 357 391 224 602 -30 48 -45 58 -45 33z m6 -231 c-17 -147 -126 -276 -283 -335 -45 -17 -207 -14 -273 5 -30 9 -65 19 -77 22 -51 12 -18 23 70 23 122 1 194 19 273 71 59 38 225 192 267 247 26 34 30 27 23 -33z" transform="translate(0.000000,0.000000) scale(1,1)" stroke="none" fill="#9B7044"/>
</g>
<g id="pattern2" transform="matrix(0.618,0,0,0.618,2303,676)">
<path d="M840 696 c0 -8 -7 -16 -15 -20 -9 -3 -19 -15 -23 -26 -26 -71 -257 -290 -347 -330 -27 -12 -58 -26 -67 -31 -10 -5 -31 -9 -47 -9 -17 0 -33 -4 -36 -10 -4 -6 -57 -10 -126 -10 -65 0 -119 -4 -119 -9 0 -22 94 -111 142 -134 153 -73 337 -96 459 -56 241 78 357 391 224 602 -30 48 -45 58 -45 33z m6 -231 c-17 -147 -126 -276 -283 -335 -45 -17 -207 -14 -273 5 -30 9 -65 19 -77 22 -51 12 -18 23 70 23 122 1 194 19 273 71 59 38 225 192 267 247 26 34 30 27 23 -33z" transform="translate(3051,0.000000) scale(-1,1)" stroke="none" fill="#9B7044"/>
</g>
<g id="pattern3" transform="matrix(0.618,0,0,0.618,863,3051)matrix(0.71,0.71,-0.71,0.71,0,0)">
<path d="M840 696 c0 -8 -7 -16 -15 -20 -9 -3 -19 -15 -23 -26 -26 -71 -257 -290 -347 -330 -27 -12 -58 -26 -67 -31 -10 -5 -31 -9 -47 -9 -17 0 -33 -4 -36 -10 -4 -6 -57 -10 -126 -10 -65 0 -119 -4 -119 -9 0 -22 94 -111 142 -134 153 -73 337 -96 459 -56 241 78 357 391 224 602 -30 48 -45 58 -45 33z m6 -231 c-17 -147 -126 -276 -283 -335 -45 -17 -207 -14 -273 5 -30 9 -65 19 -77 22 -51 12 -18 23 70 23 122 1 194 19 273 71 59 38 225 192 267 247 26 34 30 27 23 -33z" transform="translate(489,-489) scale(1,1)" stroke="none" fill="#9B7044"/>
</g>
<g id="pattern4" transform="matrix(1.618,0,0,1.618,1280,1280)matrix(0.87,0.5,-0.5,0.87,0,0)">
<path d="M840 696 c0 -8 -7 -16 -15 -20 -9 -3 -19 -15 -23 -26 -26 -71 -257 -290 -347 -330 -27 -12 -58 -26 -67 -31 -10 -5 -31 -9 -47 -9 -17 0 -33 -4 -36 -10 -4 -6 -57 -10 -126 -10 -65 0 -119 -4 -119 -9 0 -22 94 -111 142 -134 153 -73 337 -96 459 -56 241 78 357 391 224 602 -30 48 -45 58 -45 33z m6 -231 c-17 -147 -126 -276 -283 -335 -45 -17 -207 -14 -273 5 -30 9 -65 19 -77 22 -51 12 -18 23 70 23 122 1 194 19 273 71 59 38 225 192 267 247 26 34 30 27 23 -33z" transform="translate(489,-489) scale(1,1)" stroke="none" fill="#9B7044"/>
</g>
</g>
</g>

<g id="2" transform="translate(2244.0,0)scale(0.25,0.25)">

<g id="pattern">
<rect width="4862" height="4862" fill="#E8BF96"/>
<g id="pattern1" transform="matrix(1,0,0,1,302,302)">
<path d="M840 696 c0 -8 -7 -16 -15 -20 -9 -3 -19 -15 -23 -26 -26 -71 -257 -290 -347 -330 -27 -12 -58 -26 -67 -31 -10 -5 -31 -9 -47 -9 -17 0 -33 -4 -36 -10 -4 -6 -57 -10 -126 -10 -65 0 -119 -4 -119 -9 0 -22 94 -111 142 -134 153 -73 337 -96 459 -56 241 78 357 391 224 602 -30 48 -45 58 -45 33z m6 -231 c-17 -147 -126 -276 -283 -335 -45 -17 -207 -14 -273 5 -30 9 -65 19 -77 22 -51 12 -18 23 70 23 122 1 194 19 273 71 59 38 225 192 267 247 26 34 30 27 23 -33z" transform="translate(0.000000,0.000000) scale(1,1)" stroke="none" fill="#9B7044"/>
</g>
<g id="pattern2" transform="matrix(0.618,0,0,0.618,2303,676)">
<path d="M840 696 c0 -8 -7 -16 -15 -20 -9 -3 -19 -15 -23 -26 -26 -71 -257 -290 -347 -330 -27 -12 -58 -26 -67 -31 -10 -5 -31 -9 -47 -9 -17 0 -33 -4 -36 -10 -4 -6 -57 -10 -126 -10 -65 0 -119 -4 -119 -9 0 -22 94 -111 142 -134 153 -73 337 -96 459 -56 241 78 357 391 224 602 -30 48 -45 58 -45 33z m6 -231 c-17 -147 -126 -276 -283 -335 -45 -17 -207 -14 -273 5 -30 9 -65 19 -77 22 -51 12 -18 23 70 23 122 1 194 19 273 71 59 38 225 192 267 247 26 34 30 27 23 -33z" transform="translate(3051,0.000000) scale(-1,1)" stroke="none" fill="#9B7044"/>
</g>
<g id="pattern3" transform="matrix(0.618,0,0,0.618,863,3051)matrix(0.71,0.71,-0.71,0.71,0,0)">
<path d="M840 696 c0 -8 -7 -16 -15 -20 -9 -3 -19 -15 -23 -26 -26 -71 -257 -290 -347 -330 -27 -12 -58 -26 -67 -31 -10 -5 -31 -9 -47 -9 -17 0 -33 -4 -36 -10 -4 -6 -57 -10 -126 -10 -65 0 -119 -4 -119 -9 0 -22 94 -111 142 -134 153 -73 337 -96 459 -56 241 78 357 391 224 602 -30 48 -45 58 -45 33z m6 -231 c-17 -147 -126 -276 -283 -335 -45 -17 -207 -14 -273 5 -30 9 -65 19 -77 22 -51 12 -18 23 70 23 122 1 194 19 273 71 59 38 225 192 267 247 26 34 30 27 23 -33z" transform="translate(489,-489) scale(1,1)" stroke="none" fill="#9B7044"/>
</g>
<g id="pattern4" transform="matrix(1.618,0,0,1.618,1280,1280)matrix(0.87,0.5,-0.5,0.87,0,0)">
<path d="M840 696 c0 -8 -7 -16 -15 -20 -9 -3 -19 -15 -23 -26 -26 -71 -257 -290 -347 -330 -27 -12 -58 -26 -67 -31 -10 -5 -31 -9 -47 -9 -17 0 -33 -4 -36 -10 -4 -6 -57 -10 -126 -10 -65 0 -119 -4 -119 -9 0 -22 94 -111 142 -134 153 -73 337 -96 459 -56 241 78 357 391 224 602 -30 48 -45 58 -45 33z m6 -231 c-17 -147 -126 -276 -283 -335 -45 -17 -207 -14 -273 5 -30 9 -65 19 -77 22 -51 12 -18 23 70 23 122 1 194 19 273 71 59 38 225 192 267 247 26 34 30 27 23 -33z" transform="translate(489,-489) scale(1,1)" stroke="none" fill="#9B7044"/>
</g>
</g>
</g>

<g id="3" transform="translate(3366.0,0)scale(0.25,0.25)">

<g id="pattern">
<rect width="4862" height="4862" fill="#E8BF96"/>
<g id="pattern1" transform="matrix(1,0,0,1,302,302)">
<path d="M840 696 c0 -8 -7 -16 -15 -20 -9 -3 -19 -15 -23 -26 -26 -71 -257 -290 -347 -330 -27 -12 -58 -26 -67 -31 -10 -5 -31 -9 -47 -9 -17 0 -33 -4 -36 -10 -4 -6 -57 -10 -126 -10 -65 0 -119 -4 -119 -9 0 -22 94 -111 142 -134 153 -73 337 -96 459 -56 241 78 357 391 224 602 -30 48 -45 58 -45 33z m6 -231 c-17 -147 -126 -276 -283 -335 -45 -17 -207 -14 -273 5 -30 9 -65 19 -77 22 -51 12 -18 23 70 23 122 1 194 19 273 71 59 38 225 192 267 247 26 34 30 27 23 -33z" transform="translate(0.000000,0.000000) scale(1,1)" stroke="none" fill="#9B7044"/>
</g>
<g id="pattern2" transform="matrix(0.618,0,0,0.618,2303,676)">
<path d="M840 696 c0 -8 -7 -16 -15 -20 -9 -3 -19 -15 -23 -26 -26 -71 -257 -290 -347 -330 -27 -12 -58 -26 -67 -31 -10 -5 -31 -9 -47 -9 -17 0 -33 -4 -36 -10 -4 -6 -57 -10 -126 -10 -65 0 -119 -4 -119 -9 0 -22 94 -111 142 -134 153 -73 337 -96 459 -56 241 78 357 391 224 602 -30 48 -45 58 -45 33z m6 -231 c-17 -147 -126 -276 -283 -335 -45 -17 -207 -14 -273 5 -30 9 -65 19 -77 22 -51 12 -18 23 70 23 122 1 194 19 273 71 59 38 225 192 267 247 26 34 30 27 23 -33z" transform="translate(3051,0.000000) scale(-1,1)" stroke="none" fill="#9B7044"/>
</g>
<g id="pattern3" transform="matrix(0.618,0,0,0.618,863,3051)matrix(0.71,0.71,-0.71,0.71,0,0)">
<path d="M840 696 c0 -8 -7 -16 -15 -20 -9 -3 -19 -15 -23 -26 -26 -71 -257 -290 -347 -330 -27 -12 -58 -26 -67 -31 -10 -5 -31 -9 -47 -9 -17 0 -33 -4 -36 -10 -4 -6 -57 -10 -126 -10 -65 0 -119 -4 -119 -9 0 -22 94 -111 142 -134 153 -73 337 -96 459 -56 241 78 357 391 224 602 -30 48 -45 58 -45 33z m6 -231 c-17 -147 -126 -276 -283 -335 -45 -17 -207 -14 -273 5 -30 9 -65 19 -77 22 -51 12 -18 23 70 23 122 1 194 19 273 71 59 38 225 192 267 247 26 34 30 27 23 -33z" transform="translate(489,-489) scale(1,1)" stroke="none" fill="#9B7044"/>
</g>
<g id="pattern4" transform="matrix(1.618,0,0,1.618,1280,1280)matrix(0.87,0.5,-0.5,0.87,0,0)">
<path d="M840 696 c0 -8 -7 -16 -15 -20 -9 -3 -19 -15 -23 -26 -26 -71 -257 -290 -347 -330 -27 -12 -58 -26 -67 -31 -10 -5 -31 -9 -47 -9 -17 0 -33 -4 -36 -10 -4 -6 -57 -10 -126 -10 -65 0 -119 -4 -119 -9 0 -22 94 -111 142 -134 153 -73 337 -96 459 -56 241 78 357 391 224 602 -30 48 -45 58 -45 33z m6 -231 c-17 -147 -126 -276 -283 -335 -45 -17 -207 -14 -273 5 -30 9 -65 19 -77 22 -51 12 -18 23 70 23 122 1 194 19 273 71 59 38 225 192 267 247 26 34 30 27 23 -33z" transform="translate(489,-489) scale(1,1)" stroke="none" fill="#9B7044"/>
</g>
</g>
</g>

<g id="4" transform="translate(4488.0,0)scale(0.25,0.25)">

<g id="pattern">
<rect width="4862" height="4862" fill="#E8BF96"/>
<g id="pattern1" transform="matrix(1,0,0,1,302,302)">
<path d="M840 696 c0 -8 -7 -16 -15 -20 -9 -3 -19 -15 -23 -26 -26 -71 -257 -290 -347 -330 -27 -12 -58 -26 -67 -31 -10 -5 -31 -9 -47 -9 -17 0 -33 -4 -36 -10 -4 -6 -57 -10 -126 -10 -65 0 -119 -4 -119 -9 0 -22 94 -111 142 -134 153 -73 337 -96 459 -56 241 78 357 391 224 602 -30 48 -45 58 -45 33z m6 -231 c-17 -147 -126 -276 -283 -335 -45 -17 -207 -14 -273 5 -30 9 -65 19 -77 22 -51 12 -18 23 70 23 122 1 194 19 273 71 59 38 225 192 267 247 26 34 30 27 23 -33z" transform="translate(0.000000,0.000000) scale(1,1)" stroke="none" fill="#9B7044"/>
</g>
<g id="pattern2" transform="matrix(0.618,0,0,0.618,2303,676)">
<path d="M840 696 c0 -8 -7 -16 -15 -20 -9 -3 -19 -15 -23 -26 -26 -71 -257 -290 -347 -330 -27 -12 -58 -26 -67 -31 -10 -5 -31 -9 -47 -9 -17 0 -33 -4 -36 -10 -4 -6 -57 -10 -126 -10 -65 0 -119 -4 -119 -9 0 -22 94 -111 142 -134 153 -73 337 -96 459 -56 241 78 357 391 224 602 -30 48 -45 58 -45 33z m6 -231 c-17 -147 -126 -276 -283 -335 -45 -17 -207 -14 -273 5 -30 9 -65 19 -77 22 -51 12 -18 23 70 23 122 1 194 19 273 71 59 38 225 192 267 247 26 34 30 27 23 -33z" transform="translate(3051,0.000000) scale(-1,1)" stroke="none" fill="#9B7044"/>
</g>
<g id="pattern3" transform="matrix(0.618,0,0,0.618,863,3051)matrix(0.71,0.71,-0.71,0.71,0,0)">
<path d="M840 696 c0 -8 -7 -16 -15 -20 -9 -3 -19 -15 -23 -26 -26 -71 -257 -290 -347 -330 -27 -12 -58 -26 -67 -31 -10 -5 -31 -9 -47 -9 -17 0 -33 -4 -36 -10 -4 -6 -57 -10 -126 -10 -65 0 -119 -4 -119 -9 0 -22 94 -111 142 -134 153 -73 337 -96 459 -56 241 78 357 391 224 602 -30 48 -45 58 -45 33z m6 -231 c-17 -147 -126 -276 -283 -335 -45 -17 -207 -14 -273 5 -30 9 -65 19 -77 22 -51 12 -18 23 70 23 122 1 194 19 273 71 59 38 225 192 267 247 26 34 30 27 23 -33z" transform="translate(489,-489) scale(1,1)" stroke="none" fill="#9B7044"/>
</g>
<g id="pattern4" transform="matrix(1.618,0,0,1.618,1280,1280)matrix(0.87,0.5,-0.5,0.87,0,0)">
<path d="M840 696 c0 -8 -7 -16 -15 -20 -9 -3 -19 -15 -23 -26 -26 -71 -257 -290 -347 -330 -27 -12 -58 -26 -67 -31 -10 -5 -31 -9 -47 -9 -17 0 -33 -4 -36 -10 -4 -6 -57 -10 -126 -10 -65 0 -119 -4 -119 -9 0 -22 94 -111 142 -134 153 -73 337 -96 459 -56 241 78 357 391 224 602 -30 48 -45 58 -45 33z m6 -231 c-17 -147 -126 -276 -283 -335 -45 -17 -207 -14 -273 5 -30 9 -65 19 -77 22 -51 12 -18 23 70 23 122 1 194 19 273 71 59 38 225 192 267 247 26 34 30 27 23 -33z" transform="translate(489,-489) scale(1,1)" stroke="none" fill="#9B7044"/>
</g>
</g>
</g>

</g>
<g id="row1" transform="translate(0,1122.0)">
<g id="0" transform="translate(0.0,0)scale(0.25,0.25)">

<g id="pattern">
<rect width="4862" height="4862" fill="#E8BF96"/>
<g id="pattern1" transform="matrix(1,0,0,1,302,302)">
<path d="M840 696 c0 -8 -7 -16 -15 -20 -9 -3 -19 -15 -23 -26 -26 -71 -257 -290 -347 -330 -27 -12 -58 -26 -67 -31 -10 -5 -31 -9 -47 -9 -17 0 -33 -4 -36 -10 -4 -6 -57 -10 -126 -10 -65 0 -119 -4 -119 -9 0 -22 94 -111 142 -134 153 -73 337 -96 459 -56 241 78 357 391 224 602 -30 48 -45 58 -45 33z m6 -231 c-17 -147 -126 -276 -283 -335 -45 -17 -207 -14 -273 5 -30 9 -65 19 -77 22 -51 12 -18 23 70 23 122 1 194 19 273 71 59 38 225 192 267 247 26 34 30 27 23 -33z" transform="translate(0.000000,0.000000) scale(1,1)" stroke="none" fill="#9B7044"/>
</g>
<g id="pattern2" transform="matrix(0.618,0,0,0.618,2303,676)">
<path d="M840 696 c0 -8 -7 -16 -15 -20 -9 -3 -19 -15 -23 -26 -26 -71 -257 -290 -347 -330 -27 -12 -58 -26 -67 -31 -10 -5 -31 -9 -47 -9 -17 0 -33 -4 -36 -10 -4 -6 -57 -10 -126 -10 -65 0 -119 -4 -119 -9 0 -22 94 -111 142 -134 153 -73 337 -96 459 -56 241 78 357 391 224 602 -30 48 -45 58 -45 33z m6 -231 c-17 -147 -126 -276 -283 -335 -45 -17 -207 -14 -273 5 -30 9 -65 19 -77 22 -51 12 -18 23 70 23 122 1 194 19 273 71 59 38 225 192 267 247 26 34 30 27 23 -33z" transform="translate(3051,0.000000) scale(-1,1)" stroke="none" fill="#9B7044"/>
</g>
<g id="pattern3" transform="matrix(0.618,0,0,0.618,863,3051)matrix(0.71,0.71,-0.71,0.71,0,0)">
<path d="M840 696 c0 -8 -7 -16 -15 -20 -9 -3 -19 -15 -23 -26 -26 -71 -257 -290 -347 -330 -27 -12 -58 -26 -67 -31 -10 -5 -31 -9 -47 -9 -17 0 -33 -4 -36 -10 -4 -6 -57 -10 -126 -10 -65 0 -119 -4 -119 -9 0 -22 94 -111 142 -134 153 -73 337 -96 459 -56 241 78 357 391 224 602 -30 48 -45 58 -45 33z m6 -231 c-17 -147 -126 -276 -283 -335 -45 -17 -207 -14 -273 5 -30 9 -65 19 -77 22 -51 12 -18 23 70 23 122 1 194 19 273 71 59 38 225 192 267 247 26 34 30 27 23 -33z" transform="translate(489,-489) scale(1,1)" stroke="none" fill="#9B7044"/>
</g>
<g id="pattern4" transform="matrix(1.618,0,0,1.618,1280,1280)matrix(0.87,0.5,-0.5,0.87,0,0)">
<path d="M840 696 c0 -8 -7 -16 -15 -20 -9 -3 -19 -15 -23 -26 -26 -71 -257 -290 -347 -330 -27 -12 -58 -26 -67 -31 -10 -5 -31 -9 -47 -9 -17 0 -33 -4 -36 -10 -4 -6 -57 -10 -126 -10 -65 0 -119 -4 -119 -9 0 -22 94 -111 142 -134 153 -73 337 -96 459 -56 241 78 357 391 224 602 -30 48 -45 58 -45 33z m6 -231 c-17 -147 -126 -276 -283 -335 -45 -17 -207 -14 -273 5 -30 9 -65 19 -77 22 -51 12 -18 23 70 23 122 1 194 19 273 71 59 38 225 192 267 247 26 34 30 27 23 -33z" transform="translate(489,-489) scale(1,1)" stroke="none" fill="#9B7044"/>
</g>
</g>
</g>

<g id="1" transform="translate(1122.0,0)scale(0.25,0.25)">

<g id="pattern">
<rect width="4862" height="4862" fill="#E8BF96"/>
<g id="pattern1" transform="matrix(1,0,0,1,302,302)">
<path d="M840 696 c0 -8 -7 -16 -15 -20 -9 -3 -19 -15 -23 -26 -26 -71 -257 -290 -347 -330 -27 -12 -58 -26 -67 -31 -10 -5 -31 -9 -47 -9 -17 0 -33 -4 -36 -10 -4 -6 -57 -10 -126 -10 -65 0 -119 -4 -119 -9 0 -22 94 -111 142 -134 153 -73 337 -96 459 -56 241 78 357 391 224 602 -30 48 -45 58 -45 33z m6 -231 c-17 -147 -126 -276 -283 -335 -45 -17 -207 -14 -273 5 -30 9 -65 19 -77 22 -51 12 -18 23 70 23 122 1 194 19 273 71 59 38 225 192 267 247 26 34 30 27 23 -33z" transform="translate(0.000000,0.000000) scale(1,1)" stroke="none" fill="#9B7044"/>
</g>
<g id="pattern2" transform="matrix(0.618,0,0,0.618,2303,676)">
<path d="M840 696 c0 -8 -7 -16 -15 -20 -9 -3 -19 -15 -23 -26 -26 -71 -257 -290 -347 -330 -27 -12 -58 -26 -67 -31 -10 -5 -31 -9 -47 -9 -17 0 -33 -4 -36 -10 -4 -6 -57 -10 -126 -10 -65 0 -119 -4 -119 -9 0 -22 94 -111 142 -134 153 -73 337 -96 459 -56 241 78 357 391 224 602 -30 48 -45 58 -45 33z m6 -231 c-17 -147 -126 -276 -283 -335 -45 -17 -207 -14 -273 5 -30 9 -65 19 -77 22 -51 12 -18 23 70 23 122 1 194 19 273 71 59 38 225 192 267 247 26 34 30 27 23 -33z" transform="translate(3051,0.000000) scale(-1,1)" stroke="none" fill="#9B7044"/>
</g>
<g id="pattern3" transform="matrix(0.618,0,0,0.618,863,3051)matrix(0.71,0.71,-0.71,0.71,0,0)">
<path d="M840 696 c0 -8 -7 -16 -15 -20 -9 -3 -19 -15 -23 -26 -26 -71 -257 -290 -347 -330 -27 -12 -58 -26 -67 -31 -10 -5 -31 -9 -47 -9 -17 0 -33 -4 -36 -10 -4 -6 -57 -10 -126 -10 -65 0 -119 -4 -119 -9 0 -22 94 -111 142 -134 153 -73 337 -96 459 -56 241 78 357 391 224 602 -30 48 -45 58 -45 33z m6 -231 c-17 -147 -126 -276 -283 -335 -45 -17 -207 -14 -273 5 -30 9 -65 19 -77 22 -51 12 -18 23 70 23 122 1 194 19 273 71 59 38 225 192 267 247 26 34 30 27 23 -33z" transform="translate(489,-489) scale(1,1)" stroke="none" fill="#9B7044"/>
</g>
<g id="pattern4" transform="matrix(1.618,0,0,1.618,1280,1280)matrix(0.87,0.5,-0.5,0.87,0,0)">
<path d="M840 696 c0 -8 -7 -16 -15 -20 -9 -3 -19 -15 -23 -26 -26 -71 -257 -290 -347 -330 -27 -12 -58 -26 -67 -31 -10 -5 -31 -9 -47 -9 -17 0 -33 -4 -36 -10 -4 -6 -57 -10 -126 -10 -65 0 -119 -4 -119 -9 0 -22 94 -111 142 -134 153 -73 337 -96 459 -56 241 78 357 391 224 602 -30 48 -45 58 -45 33z m6 -231 c-17 -147 -126 -276 -283 -335 -45 -17 -207 -14 -273 5 -30 9 -65 19 -77 22 -51 12 -18 23 70 23 122 1 194 19 273 71 59 38 225 192 267 247 26 34 30 27 23 -33z" transform="translate(489,-489) scale(1,1)" stroke="none" fill="#9B7044"/>
</g>
</g>
</g>

<g id="2" transform="translate(2244.0,0)scale(0.25,0.25)">

<g id="pattern">
<rect width="4862" height="4862" fill="#E8BF96"/>
<g id="pattern1" transform="matrix(1,0,0,1,302,302)">
<path d="M840 696 c0 -8 -7 -16 -15 -20 -9 -3 -19 -15 -23 -26 -26 -71 -257 -290 -347 -330 -27 -12 -58 -26 -67 -31 -10 -5 -31 -9 -47 -9 -17 0 -33 -4 -36 -10 -4 -6 -57 -10 -126 -10 -65 0 -119 -4 -119 -9 0 -22 94 -111 142 -134 153 -73 337 -96 459 -56 241 78 357 391 224 602 -30 48 -45 58 -45 33z m6 -231 c-17 -147 -126 -276 -283 -335 -45 -17 -207 -14 -273 5 -30 9 -65 19 -77 22 -51 12 -18 23 70 23 122 1 194 19 273 71 59 38 225 192 267 247 26 34 30 27 23 -33z" transform="translate(0.000000,0.000000) scale(1,1)" stroke="none" fill="#9B7044"/>
</g>
<g id="pattern2" transform="matrix(0.618,0,0,0.618,2303,676)">
<path d="M840 696 c0 -8 -7 -16 -15 -20 -9 -3 -19 -15 -23 -26 -26 -71 -257 -290 -347 -330 -27 -12 -58 -26 -67 -31 -10 -5 -31 -9 -47 -9 -17 0 -33 -4 -36 -10 -4 -6 -57 -10 -126 -10 -65 0 -119 -4 -119 -9 0 -22 94 -111 142 -134 153 -73 337 -96 459 -56 241 78 357 391 224 602 -30 48 -45 58 -45 33z m6 -231 c-17 -147 -126 -276 -283 -335 -45 -17 -207 -14 -273 5 -30 9 -65 19 -77 22 -51 12 -18 23 70 23 122 1 194 19 273 71 59 38 225 192 267 247 26 34 30 27 23 -33z" transform="translate(3051,0.000000) scale(-1,1)" stroke="none" fill="#9B7044"/>
</g>
<g id="pattern3" transform="matrix(0.618,0,0,0.618,863,3051)matrix(0.71,0.71,-0.71,0.71,0,0)">
<path d="M840 696 c0 -8 -7 -16 -15 -20 -9 -3 -19 -15 -23 -26 -26 -71 -257 -290 -347 -330 -27 -12 -58 -26 -67 -31 -10 -5 -31 -9 -47 -9 -17 0 -33 -4 -36 -10 -4 -6 -57 -10 -126 -10 -65 0 -119 -4 -119 -9 0 -22 94 -111 142 -134 153 -73 337 -96 459 -56 241 78 357 391 224 602 -30 48 -45 58 -45 33z m6 -231 c-17 -147 -126 -276 -283 -335 -45 -17 -207 -14 -273 5 -30 9 -65 19 -77 22 -51 12 -18 23 70 23 122 1 194 19 273 71 59 38 225 192 267 247 26 34 30 27 23 -33z" transform="translate(489,-489) scale(1,1)" stroke="none" fill="#9B7044"/>
</g>
<g id="pattern4" transform="matrix(1.618,0,0,1.618,1280,1280)matrix(0.87,0.5,-0.5,0.87,0,0)">
<path d="M840 696 c0 -8 -7 -16 -15 -20 -9 -3 -19 -15 -23 -26 -26 -71 -257 -290 -347 -330 -27 -12 -58 -26 -67 -31 -10 -5 -31 -9 -47 -9 -17 0 -33 -4 -36 -10 -4 -6 -57 -10 -126 -10 -65 0 -119 -4 -119 -9 0 -22 94 -111 142 -134 153 -73 337 -96 459 -56 241 78 357 391 224 602 -30 48 -45 58 -45 33z m6 -231 c-17 -147 -126 -276 -283 -335 -45 -17 -207 -14 -273 5 -30 9 -65 19 -77 22 -51 12 -18 23 70 23 122 1 194 19 273 71 59 38 225 192 267 247 26 34 30 27 23 -33z" transform="translate(489,-489) scale(1,1)" stroke="none" fill="#9B7044"/>
</g>
</g>
</g>

<g id="3" transform="translate(3366.0,0)scale(0.25,0.25)">

<g id="pattern">
<rect width="4862" height="4862" fill="#E8BF96"/>
<g id="pattern1" transform="matrix(1,0,0,1,302,302)">
<path d="M840 696 c0 -8 -7 -16 -15 -20 -9 -3 -19 -15 -23 -26 -26 -71 -257 -290 -347 -330 -27 -12 -58 -26 -67 -31 -10 -5 -31 -9 -47 -9 -17 0 -33 -4 -36 -10 -4 -6 -57 -10 -126 -10 -65 0 -119 -4 -119 -9 0 -22 94 -111 142 -134 153 -73 337 -96 459 -56 241 78 357 391 224 602 -30 48 -45 58 -45 33z m6 -231 c-17 -147 -126 -276 -283 -335 -45 -17 -207 -14 -273 5 -30 9 -65 19 -77 22 -51 12 -18 23 70 23 122 1 194 19 273 71 59 38 225 192 267 247 26 34 30 27 23 -33z" transform="translate(0.000000,0.000000) scale(1,1)" stroke="none" fill="#9B7044"/>
</g>
<g id="pattern2" transform="matrix(0.618,0,0,0.618,2303,676)">
<path d="M840 696 c0 -8 -7 -16 -15 -20 -9 -3 -19 -15 -23 -26 -26 -71 -257 -290 -347 -330 -27 -12 -58 -26 -67 -31 -10 -5 -31 -9 -47 -9 -17 0 -33 -4 -36 -10 -4 -6 -57 -10 -126 -10 -65 0 -119 -4 -119 -9 0 -22 94 -111 142 -134 153 -73 337 -96 459 -56 241 78 357 391 224 602 -30 48 -45 58 -45 33z m6 -231 c-17 -147 -126 -276 -283 -335 -45 -17 -207 -14 -273 5 -30 9 -65 19 -77 22 -51 12 -18 23 70 23 122 1 194 19 273 71 59 38 225 192 267 247 26 34 30 27 23 -33z" transform="translate(3051,0.000000) scale(-1,1)" stroke="none" fill="#9B7044"/>
</g>
<g id="pattern3" transform="matrix(0.618,0,0,0.618,863,3051)matrix(0.71,0.71,-0.71,0.71,0,0)">
<path d="M840 696 c0 -8 -7 -16 -15 -20 -9 -3 -19 -15 -23 -26 -26 -71 -257 -290 -347 -330 -27 -12 -58 -26 -67 -31 -10 -5 -31 -9 -47 -9 -17 0 -33 -4 -36 -10 -4 -6 -57 -10 -126 -10 -65 0 -119 -4 -119 -9 0 -22 94 -111 142 -134 153 -73 337 -96 459 -56 241 78 357 391 224 602 -30 48 -45 58 -45 33z m6 -231 c-17 -147 -126 -276 -283 -335 -45 -17 -207 -14 -273 5 -30 9 -65 19 -77 22 -51 12 -18 23 70 23 122 1 194 19 273 71 59 38 225 192 267 247 26 34 30 27 23 -33z" transform="translate(489,-489) scale(1,1)" stroke="none" fill="#9B7044"/>
</g>
<g id="pattern4" transform="matrix(1.618,0,0,1.618,1280,1280)matrix(0.87,0.5,-0.5,0.87,0,0)">
<path d="M840 696 c0 -8 -7 -16 -15 -20 -9 -3 -19 -15 -23 -26 -26 -71 -257 -290 -347 -330 -27 -12 -58 -26 -67 -31 -10 -5 -31 -9 -47 -9 -17 0 -33 -4 -36 -10 -4 -6 -57 -10 -126 -10 -65 0 -119 -4 -119 -9 0 -22 94 -111 142 -134 153 -73 337 -96 459 -56 241 78 357 391 224 602 -30 48 -45 58 -45 33z m6 -231 c-17 -147 -126 -276 -283 -335 -45 -17 -207 -14 -273 5 -30 9 -65 19 -77 22 -51 12 -18 23 70 23 122 1 194 19 273 71 59 38 225 192 267 247 26 34 30 27 23 -33z" transform="translate(489,-489) scale(1,1)" stroke="none" fill="#9B7044"/>
</g>
</g>
</g>

<g id="4" transform="translate(4488.0,0)scale(0.25,0.25)">

<g id="pattern">
<rect width="4862" height="4862" fill="#E8BF96"/>
<g id="pattern1" transform="matrix(1,0,0,1,302,302)">
<path d="M840 696 c0 -8 -7 -16 -15 -20 -9 -3 -19 -15 -23 -26 -26 -71 -257 -290 -347 -330 -27 -12 -58 -26 -67 -31 -10 -5 -31 -9 -47 -9 -17 0 -33 -4 -36 -10 -4 -6 -57 -10 -126 -10 -65 0 -119 -4 -119 -9 0 -22 94 -111 142 -134 153 -73 337 -96 459 -56 241 78 357 391 224 602 -30 48 -45 58 -45 33z m6 -231 c-17 -147 -126 -276 -283 -335 -45 -17 -207 -14 -273 5 -30 9 -65 19 -77 22 -51 12 -18 23 70 23 122 1 194 19 273 71 59 38 225 192 267 247 26 34 30 27 23 -33z" transform="translate(0.000000,0.000000) scale(1,1)" stroke="none" fill="#9B7044"/>
</g>
<g id="pattern2" transform="matrix(0.618,0,0,0.618,2303,676)">
<path d="M840 696 c0 -8 -7 -16 -15 -20 -9 -3 -19 -15 -23 -26 -26 -71 -257 -290 -347 -330 -27 -12 -58 -26 -67 -31 -10 -5 -31 -9 -47 -9 -17 0 -33 -4 -36 -10 -4 -6 -57 -10 -126 -10 -65 0 -119 -4 -119 -9 0 -22 94 -111 142 -134 153 -73 337 -96 459 -56 241 78 357 391 224 602 -30 48 -45 58 -45 33z m6 -231 c-17 -147 -126 -276 -283 -335 -45 -17 -207 -14 -273 5 -30 9 -65 19 -77 22 -51 12 -18 23 70 23 122 1 194 19 273 71 59 38 225 192 267 247 26 34 30 27 23 -33z" transform="translate(3051,0.000000) scale(-1,1)" stroke="none" fill="#9B7044"/>
</g>
<g id="pattern3" transform="matrix(0.618,0,0,0.618,863,3051)matrix(0.71,0.71,-0.71,0.71,0,0)">
<path d="M840 696 c0 -8 -7 -16 -15 -20 -9 -3 -19 -15 -23 -26 -26 -71 -257 -290 -347 -330 -27 -12 -58 -26 -67 -31 -10 -5 -31 -9 -47 -9 -17 0 -33 -4 -36 -10 -4 -6 -57 -10 -126 -10 -65 0 -119 -4 -119 -9 0 -22 94 -111 142 -134 153 -73 337 -96 459 -56 241 78 357 391 224 602 -30 48 -45 58 -45 33z m6 -231 c-17 -147 -126 -276 -283 -335 -45 -17 -207 -14 -273 5 -30 9 -65 19 -77 22 -51 12 -18 23 70 23 122 1 194 19 273 71 59 38 225 192 267 247 26 34 30 27 23 -33z" transform="translate(489,-489) scale(1,1)" stroke="none" fill="#9B7044"/>
</g>
<g id="pattern4" transform="matrix(1.618,0,0,1.618,1280,1280)matrix(0.87,0.5,-0.5,0.87,0,0)">
<path d="M840 696 c0 -8 -7 -16 -15 -20 -9 -3 -19 -15 -23 -26 -26 -71 -257 -290 -347 -330 -27 -12 -58 -26 -67 -31 -10 -5 -31 -9 -47 -9 -17 0 -33 -4 -36 -10 -4 -6 -57 -10 -126 -10 -65 0 -119 -4 -119 -9 0 -22 94 -111 142 -134 153 -73 337 -96 459 -56 241 78 357 391 224 602 -30 48 -45 58 -45 33z m6 -231 c-17 -147 -126 -276 -283 -335 -45 -17 -207 -14 -273 5 -30 9 -65 19 -77 22 -51 12 -18 23 70 23 122 1 194 19 273 71 59 38 225 192 267 247 26 34 30 27 23 -33z" transform="translate(489,-489) scale(1,1)" stroke="none" fill="#9B7044"/>
</g>
</g>
</g>

</g>
<g id="row2" transform="translate(0,2244.0)">
<g id="0" transform="translate(0.0,0)scale(0.25,0.25)">

<g id="pattern">
<rect width="4862" height="4862" fill="#E8BF96"/>
<g id="pattern1" transform="matrix(1,0,0,1,302,302)">
<path d="M840 696 c0 -8 -7 -16 -15 -20 -9 -3 -19 -15 -23 -26 -26 -71 -257 -290 -347 -330 -27 -12 -58 -26 -67 -31 -10 -5 -31 -9 -47 -9 -17 0 -33 -4 -36 -10 -4 -6 -57 -10 -126 -10 -65 0 -119 -4 -119 -9 0 -22 94 -111 142 -134 153 -73 337 -96 459 -56 241 78 357 391 224 602 -30 48 -45 58 -45 33z m6 -231 c-17 -147 -126 -276 -283 -335 -45 -17 -207 -14 -273 5 -30 9 -65 19 -77 22 -51 12 -18 23 70 23 122 1 194 19 273 71 59 38 225 192 267 247 26 34 30 27 23 -33z" transform="translate(0.000000,0.000000) scale(1,1)" stroke="none" fill="#9B7044"/>
</g>
<g id="pattern2" transform="matrix(0.618,0,0,0.618,2303,676)">
<path d="M840 696 c0 -8 -7 -16 -15 -20 -9 -3 -19 -15 -23 -26 -26 -71 -257 -290 -347 -330 -27 -12 -58 -26 -67 -31 -10 -5 -31 -9 -47 -9 -17 0 -33 -4 -36 -10 -4 -6 -57 -10 -126 -10 -65 0 -119 -4 -119 -9 0 -22 94 -111 142 -134 153 -73 337 -96 459 -56 241 78 357 391 224 602 -30 48 -45 58 -45 33z m6 -231 c-17 -147 -126 -276 -283 -335 -45 -17 -207 -14 -273 5 -30 9 -65 19 -77 22 -51 12 -18 23 70 23 122 1 194 19 273 71 59 38 225 192 267 247 26 34 30 27 23 -33z" transform="translate(3051,0.000000) scale(-1,1)" stroke="none" fill="#9B7044"/>
</g>
<g id="pattern3" transform="matrix(0.618,0,0,0.618,863,3051)matrix(0.71,0.71,-0.71,0.71,0,0)">
<path d="M840 696 c0 -8 -7 -16 -15 -20 -9 -3 -19 -15 -23 -26 -26 -71 -257 -290 -347 -330 -27 -12 -58 -26 -67 -31 -10 -5 -31 -9 -47 -9 -17 0 -33 -4 -36 -10 -4 -6 -57 -10 -126 -10 -65 0 -119 -4 -119 -9 0 -22 94 -111 142 -134 153 -73 337 -96 459 -56 241 78 357 391 224 602 -30 48 -45 58 -45 33z m6 -231 c-17 -147 -126 -276 -283 -335 -45 -17 -207 -14 -273 5 -30 9 -65 19 -77 22 -51 12 -18 23 70 23 122 1 194 19 273 71 59 38 225 192 267 247 26 34 30 27 23 -33z" transform="translate(489,-489) scale(1,1)" stroke="none" fill="#9B7044"/>
</g>
<g id="pattern4" transform="matrix(1.618,0,0,1.618,1280,1280)matrix(0.87,0.5,-0.5,0.87,0,0)">
<path d="M840 696 c0 -8 -7 -16 -15 -20 -9 -3 -19 -15 -23 -26 -26 -71 -257 -290 -347 -330 -27 -12 -58 -26 -67 -31 -10 -5 -31 -9 -47 -9 -17 0 -33 -4 -36 -10 -4 -6 -57 -10 -126 -10 -65 0 -119 -4 -119 -9 0 -22 94 -111 142 -134 153 -73 337 -96 459 -56 241 78 357 391 224 602 -30 48 -45 58 -45 33z m6 -231 c-17 -147 -126 -276 -283 -335 -45 -17 -207 -14 -273 5 -30 9 -65 19 -77 22 -51 12 -18 23 70 23 122 1 194 19 273 71 59 38 225 192 267 247 26 34 30 27 23 -33z" transform="translate(489,-489) scale(1,1)" stroke="none" fill="#9B7044"/>
</g>
</g>
</g>

<g id="1" transform="translate(1122.0,0)scale(0.25,0.25)">

<g id="pattern">
<rect width="4862" height="4862" fill="#E8BF96"/>
<g id="pattern1" transform="matrix(1,0,0,1,302,302)">
<path d="M840 696 c0 -8 -7 -16 -15 -20 -9 -3 -19 -15 -23 -26 -26 -71 -257 -290 -347 -330 -27 -12 -58 -26 -67 -31 -10 -5 -31 -9 -47 -9 -17 0 -33 -4 -36 -10 -4 -6 -57 -10 -126 -10 -65 0 -119 -4 -119 -9 0 -22 94 -111 142 -134 153 -73 337 -96 459 -56 241 78 357 391 224 602 -30 48 -45 58 -45 33z m6 -231 c-17 -147 -126 -276 -283 -335 -45 -17 -207 -14 -273 5 -30 9 -65 19 -77 22 -51 12 -18 23 70 23 122 1 194 19 273 71 59 38 225 192 267 247 26 34 30 27 23 -33z" transform="translate(0.000000,0.000000) scale(1,1)" stroke="none" fill="#9B7044"/>
</g>
<g id="pattern2" transform="matrix(0.618,0,0,0.618,2303,676)">
<path d="M840 696 c0 -8 -7 -16 -15 -20 -9 -3 -19 -15 -23 -26 -26 -71 -257 -290 -347 -330 -27 -12 -58 -26 -67 -31 -10 -5 -31 -9 -47 -9 -17 0 -33 -4 -36 -10 -4 -6 -57 -10 -126 -10 -65 0 -119 -4 -119 -9 0 -22 94 -111 142 -134 153 -73 337 -96 459 -56 241 78 357 391 224 602 -30 48 -45 58 -45 33z m6 -231 c-17 -147 -126 -276 -283 -335 -45 -17 -207 -14 -273 5 -30 9 -65 19 -77 22 -51 12 -18 23 70 23 122 1 194 19 273 71 59 38 225 192 267 247 26 34 30 27 23 -33z" transform="translate(3051,0.000000) scale(-1,1)" stroke="none" fill="#9B7044"/>
</g>
<g id="pattern3" transform="matrix(0.618,0,0,0.618,863,3051)matrix(0.71,0.71,-0.71,0.71,0,0)">
<path d="M840 696 c0 -8 -7 -16 -15 -20 -9 -3 -19 -15 -23 -26 -26 -71 -257 -290 -347 -330 -27 -12 -58 -26 -67 -31 -10 -5 -31 -9 -47 -9 -17 0 -33 -4 -36 -10 -4 -6 -57 -10 -126 -10 -65 0 -119 -4 -119 -9 0 -22 94 -111 142 -134 153 -73 337 -96 459 -56 241 78 357 391 224 602 -30 48 -45 58 -45 33z m6 -231 c-17 -147 -126 -276 -283 -335 -45 -17 -207 -14 -273 5 -30 9 -65 19 -77 22 -51 12 -18 23 70 23 122 1 194 19 273 71 59 38 225 192 267 247 26 34 30 27 23 -33z" transform="translate(489,-489) scale(1,1)" stroke="none" fill="#9B7044"/>
</g>
<g id="pattern4" transform="matrix(1.618,0,0,1.618,1280,1280)matrix(0.87,0.5,-0.5,0.87,0,0)">
<path d="M840 696 c0 -8 -7 -16 -15 -20 -9 -3 -19 -15 -23 -26 -26 -71 -257 -290 -347 -330 -27 -12 -58 -26 -67 -31 -10 -5 -31 -9 -47 -9 -17 0 -33 -4 -36 -10 -4 -6 -57 -10 -126 -10 -65 0 -119 -4 -119 -9 0 -22 94 -111 142 -134 153 -73 337 -96 459 -56 241 78 357 391 224 602 -30 48 -45 58 -45 33z m6 -231 c-17 -147 -126 -276 -283 -335 -45 -17 -207 -14 -273 5 -30 9 -65 19 -77 22 -51 12 -18 23 70 23 122 1 194 19 273 71 59 38 225 192 267 247 26 34 30 27 23 -33z" transform="translate(489,-489) scale(1,1)" stroke="none" fill="#9B7044"/>
</g>
</g>
</g>

<g id="2" transform="translate(2244.0,0)scale(0.25,0.25)">

<g id="pattern">
<rect width="4862" height="4862" fill="#E8BF96"/>
<g id="pattern1" transform="matrix(1,0,0,1,302,302)">
<path d="M840 696 c0 -8 -7 -16 -15 -20 -9 -3 -19 -15 -23 -26 -26 -71 -257 -290 -347 -330 -27 -12 -58 -26 -67 -31 -10 -5 -31 -9 -47 -9 -17 0 -33 -4 -36 -10 -4 -6 -57 -10 -126 -10 -65 0 -119 -4 -119 -9 0 -22 94 -111 142 -134 153 -73 337 -96 459 -56 241 78 357 391 224 602 -30 48 -45 58 -45 33z m6 -231 c-17 -147 -126 -276 -283 -335 -45 -17 -207 -14 -273 5 -30 9 -65 19 -77 22 -51 12 -18 23 70 23 122 1 194 19 273 71 59 38 225 192 267 247 26 34 30 27 23 -33z" transform="translate(0.000000,0.000000) scale(1,1)" stroke="none" fill="#9B7044"/>
</g>
<g id="pattern2" transform="matrix(0.618,0,0,0.618,2303,676)">
<path d="M840 696 c0 -8 -7 -16 -15 -20 -9 -3 -19 -15 -23 -26 -26 -71 -257 -290 -347 -330 -27 -12 -58 -26 -67 -31 -10 -5 -31 -9 -47 -9 -17 0 -33 -4 -36 -10 -4 -6 -57 -10 -126 -10 -65 0 -119 -4 -119 -9 0 -22 94 -111 142 -134 153 -73 337 -96 459 -56 241 78 357 391 224 602 -30 48 -45 58 -45 33z m6 -231 c-17 -147 -126 -276 -283 -335 -45 -17 -207 -14 -273 5 -30 9 -65 19 -77 22 -51 12 -18 23 70 23 122 1 194 19 273 71 59 38 225 192 267 247 26 34 30 27 23 -33z" transform="translate(3051,0.000000) scale(-1,1)" stroke="none" fill="#9B7044"/>
</g>
<g id="pattern3" transform="matrix(0.618,0,0,0.618,863,3051)matrix(0.71,0.71,-0.71,0.71,0,0)">
<path d="M840 696 c0 -8 -7 -16 -15 -20 -9 -3 -19 -15 -23 -26 -26 -71 -257 -290 -347 -330 -27 -12 -58 -26 -67 -31 -10 -5 -31 -9 -47 -9 -17 0 -33 -4 -36 -10 -4 -6 -57 -10 -126 -10 -65 0 -119 -4 -119 -9 0 -22 94 -111 142 -134 153 -73 337 -96 459 -56 241 78 357 391 224 602 -30 48 -45 58 -45 33z m6 -231 c-17 -147 -126 -276 -283 -335 -45 -17 -207 -14 -273 5 -30 9 -65 19 -77 22 -51 12 -18 23 70 23 122 1 194 19 273 71 59 38 225 192 267 247 26 34 30 27 23 -33z" transform="translate(489,-489) scale(1,1)" stroke="none" fill="#9B7044"/>
</g>
<g id="pattern4" transform="matrix(1.618,0,0,1.618,1280,1280)matrix(0.87,0.5,-0.5,0.87,0,0)">
<path d="M840 696 c0 -8 -7 -16 -15 -20 -9 -3 -19 -15 -23 -26 -26 -71 -257 -290 -347 -330 -27 -12 -58 -26 -67 -31 -10 -5 -31 -9 -47 -9 -17 0 -33 -4 -36 -10 -4 -6 -57 -10 -126 -10 -65 0 -119 -4 -119 -9 0 -22 94 -111 142 -134 153 -73 337 -96 459 -56 241 78 357 391 224 602 -30 48 -45 58 -45 33z m6 -231 c-17 -147 -126 -276 -283 -335 -45 -17 -207 -14 -273 5 -30 9 -65 19 -77 22 -51 12 -18 23 70 23 122 1 194 19 273 71 59 38 225 192 267 247 26 34 30 27 23 -33z" transform="translate(489,-489) scale(1,1)" stroke="none" fill="#9B7044"/>
</g>
</g>
</g>

<g id="3" transform="translate(3366.0,0)scale(0.25,0.25)">

<g id="pattern">
<rect width="4862" height="4862" fill="#E8BF96"/>
<g id="pattern1" transform="matrix(1,0,0,1,302,302)">
<path d="M840 696 c0 -8 -7 -16 -15 -20 -9 -3 -19 -15 -23 -26 -26 -71 -257 -290 -347 -330 -27 -12 -58 -26 -67 -31 -10 -5 -31 -9 -47 -9 -17 0 -33 -4 -36 -10 -4 -6 -57 -10 -126 -10 -65 0 -119 -4 -119 -9 0 -22 94 -111 142 -134 153 -73 337 -96 459 -56 241 78 357 391 224 602 -30 48 -45 58 -45 33z m6 -231 c-17 -147 -126 -276 -283 -335 -45 -17 -207 -14 -273 5 -30 9 -65 19 -77 22 -51 12 -18 23 70 23 122 1 194 19 273 71 59 38 225 192 267 247 26 34 30 27 23 -33z" transform="translate(0.000000,0.000000) scale(1,1)" stroke="none" fill="#9B7044"/>
</g>
<g id="pattern2" transform="matrix(0.618,0,0,0.618,2303,676)">
<path d="M840 696 c0 -8 -7 -16 -15 -20 -9 -3 -19 -15 -23 -26 -26 -71 -257 -290 -347 -330 -27 -12 -58 -26 -67 -31 -10 -5 -31 -9 -47 -9 -17 0 -33 -4 -36 -10 -4 -6 -57 -10 -126 -10 -65 0 -119 -4 -119 -9 0 -22 94 -111 142 -134 153 -73 337 -96 459 -56 241 78 357 391 224 602 -30 48 -45 58 -45 33z m6 -231 c-17 -147 -126 -276 -283 -335 -45 -17 -207 -14 -273 5 -30 9 -65 19 -77 22 -51 12 -18 23 70 23 122 1 194 19 273 71 59 38 225 192 267 247 26 34 30 27 23 -33z" transform="translate(3051,0.000000) scale(-1,1)" stroke="none" fill="#9B7044"/>
</g>
<g id="pattern3" transform="matrix(0.618,0,0,0.618,863,3051)matrix(0.71,0.71,-0.71,0.71,0,0)">
<path d="M840 696 c0 -8 -7 -16 -15 -20 -9 -3 -19 -15 -23 -26 -26 -71 -257 -290 -347 -330 -27 -12 -58 -26 -67 -31 -10 -5 -31 -9 -47 -9 -17 0 -33 -4 -36 -10 -4 -6 -57 -10 -126 -10 -65 0 -119 -4 -119 -9 0 -22 94 -111 142 -134 153 -73 337 -96 459 -56 241 78 357 391 224 602 -30 48 -45 58 -45 33z m6 -231 c-17 -147 -126 -276 -283 -335 -45 -17 -207 -14 -273 5 -30 9 -65 19 -77 22 -51 12 -18 23 70 23 122 1 194 19 273 71 59 38 225 192 267 247 26 34 30 27 23 -33z" transform="translate(489,-489) scale(1,1)" stroke="none" fill="#9B7044"/>
</g>
<g id="pattern4" transform="matrix(1.618,0,0,1.618,1280,1280)matrix(0.87,0.5,-0.5,0.87,0,0)">
<path d="M840 696 c0 -8 -7 -16 -15 -20 -9 -3 -19 -15 -23 -26 -26 -71 -257 -290 -347 -330 -27 -12 -58 -26 -67 -31 -10 -5 -31 -9 -47 -9 -17 0 -33 -4 -36 -10 -4 -6 -57 -10 -126 -10 -65 0 -119 -4 -119 -9 0 -22 94 -111 142 -134 153 -73 337 -96 459 -56 241 78 357 391 224 602 -30 48 -45 58 -45 33z m6 -231 c-17 -147 -126 -276 -283 -335 -45 -17 -207 -14 -273 5 -30 9 -65 19 -77 22 -51 12 -18 23 70 23 122 1 194 19 273 71 59 38 225 192 267 247 26 34 30 27 23 -33z" transform="translate(489,-489) scale(1,1)" stroke="none" fill="#9B7044"/>
</g>
</g>
</g>

<g id="4" transform="translate(4488.0,0)scale(0.25,0.25)">

<g id="pattern">
<rect width="4862" height="4862" fill="#E8BF96"/>
<g id="pattern1" transform="matrix(1,0,0,1,302,302)">
<path d="M840 696 c0 -8 -7 -16 -15 -20 -9 -3 -19 -15 -23 -26 -26 -71 -257 -290 -347 -330 -27 -12 -58 -26 -67 -31 -10 -5 -31 -9 -47 -9 -17 0 -33 -4 -36 -10 -4 -6 -57 -10 -126 -10 -65 0 -119 -4 -119 -9 0 -22 94 -111 142 -134 153 -73 337 -96 459 -56 241 78 357 391 224 602 -30 48 -45 58 -45 33z m6 -231 c-17 -147 -126 -276 -283 -335 -45 -17 -207 -14 -273 5 -30 9 -65 19 -77 22 -51 12 -18 23 70 23 122 1 194 19 273 71 59 38 225 192 267 247 26 34 30 27 23 -33z" transform="translate(0.000000,0.000000) scale(1,1)" stroke="none" fill="#9B7044"/>
</g>
<g id="pattern2" transform="matrix(0.618,0,0,0.618,2303,676)">
<path d="M840 696 c0 -8 -7 -16 -15 -20 -9 -3 -19 -15 -23 -26 -26 -71 -257 -290 -347 -330 -27 -12 -58 -26 -67 -31 -10 -5 -31 -9 -47 -9 -17 0 -33 -4 -36 -10 -4 -6 -57 -10 -126 -10 -65 0 -119 -4 -119 -9 0 -22 94 -111 142 -134 153 -73 337 -96 459 -56 241 78 357 391 224 602 -30 48 -45 58 -45 33z m6 -231 c-17 -147 -126 -276 -283 -335 -45 -17 -207 -14 -273 5 -30 9 -65 19 -77 22 -51 12 -18 23 70 23 122 1 194 19 273 71 59 38 225 192 267 247 26 34 30 27 23 -33z" transform="translate(3051,0.000000) scale(-1,1)" stroke="none" fill="#9B7044"/>
</g>
<g id="pattern3" transform="matrix(0.618,0,0,0.618,863,3051)matrix(0.71,0.71,-0.71,0.71,0,0)">
<path d="M840 696 c0 -8 -7 -16 -15 -20 -9 -3 -19 -15 -23 -26 -26 -71 -257 -290 -347 -330 -27 -12 -58 -26 -67 -31 -10 -5 -31 -9 -47 -9 -17 0 -33 -4 -36 -10 -4 -6 -57 -10 -126 -10 -65 0 -119 -4 -119 -9 0 -22 94 -111 142 -134 153 -73 337 -96 459 -56 241 78 357 391 224 602 -30 48 -45 58 -45 33z m6 -231 c-17 -147 -126 -276 -283 -335 -45 -17 -207 -14 -273 5 -30 9 -65 19 -77 22 -51 12 -18 23 70 23 122 1 194 19 273 71 59 38 225 192 267 247 26 34 30 27 23 -33z" transform="translate(489,-489) scale(1,1)" stroke="none" fill="#9B7044"/>
</g>
<g id="pattern4" transform="matrix(1.618,0,0,1.618,1280,1280)matrix(0.87,0.5,-0.5,0.87,0,0)">
<path d="M840 696 c0 -8 -7 -16 -15 -20 -9 -3 -19 -15 -23 -26 -26 -71 -257 -290 -347 -330 -27 -12 -58 -26 -67 -31 -10 -5 -31 -9 -47 -9 -17 0 -33 -4 -36 -10 -4 -6 -57 -10 -126 -10 -65 0 -119 -4 -119 -9 0 -22 94 -111 142 -134 153 -73 337 -96 459 -56 241 78 357 391 224 602 -30 48 -45 58 -45 33z m6 -231 c-17 -147 -126 -276 -283 -335 -45 -17 -207 -14 -273 5 -30 9 -65 19 -77 22 -51 12 -18 23 70 23 122 1 194 19 273 71 59 38 225 192 267 247 26 34 30 27 23 -33z" transform="translate(489,-489) scale(1,1)" stroke="none" fill="#9B7044"/>
</g>
</g>
</g>

</g>
<g id="row3" transform="translate(0,3366.0)">
<g id="0" transform="translate(0.0,0)scale(0.25,0.25)">

<g id="pattern">
<rect width="4862" height="4862" fill="#E8BF96"/>
<g id="pattern1" transform="matrix(1,0,0,1,302,302)">
<path d="M840 696 c0 -8 -7 -16 -15 -20 -9 -3 -19 -15 -23 -26 -26 -71 -257 -290 -347 -330 -27 -12 -58 -26 -67 -31 -10 -5 -31 -9 -47 -9 -17 0 -33 -4 -36 -10 -4 -6 -57 -10 -126 -10 -65 0 -119 -4 -119 -9 0 -22 94 -111 142 -134 153 -73 337 -96 459 -56 241 78 357 391 224 602 -30 48 -45 58 -45 33z m6 -231 c-17 -147 -126 -276 -283 -335 -45 -17 -207 -14 -273 5 -30 9 -65 19 -77 22 -51 12 -18 23 70 23 122 1 194 19 273 71 59 38 225 192 267 247 26 34 30 27 23 -33z" transform="translate(0.000000,0.000000) scale(1,1)" stroke="none" fill="#9B7044"/>
</g>
<g id="pattern2" transform="matrix(0.618,0,0,0.618,2303,676)">
<path d="M840 696 c0 -8 -7 -16 -15 -20 -9 -3 -19 -15 -23 -26 -26 -71 -257 -290 -347 -330 -27 -12 -58 -26 -67 -31 -10 -5 -31 -9 -47 -9 -17 0 -33 -4 -36 -10 -4 -6 -57 -10 -126 -10 -65 0 -119 -4 -119 -9 0 -22 94 -111 142 -134 153 -73 337 -96 459 -56 241 78 357 391 224 602 -30 48 -45 58 -45 33z m6 -231 c-17 -147 -126 -276 -283 -335 -45 -17 -207 -14 -273 5 -30 9 -65 19 -77 22 -51 12 -18 23 70 23 122 1 194 19 273 71 59 38 225 192 267 247 26 34 30 27 23 -33z" transform="translate(3051,0.000000) scale(-1,1)" stroke="none" fill="#9B7044"/>
</g>
<g id="pattern3" transform="matrix(0.618,0,0,0.618,863,3051)matrix(0.71,0.71,-0.71,0.71,0,0)">
<path d="M840 696 c0 -8 -7 -16 -15 -20 -9 -3 -19 -15 -23 -26 -26 -71 -257 -290 -347 -330 -27 -12 -58 -26 -67 -31 -10 -5 -31 -9 -47 -9 -17 0 -33 -4 -36 -10 -4 -6 -57 -10 -126 -10 -65 0 -119 -4 -119 -9 0 -22 94 -111 142 -134 153 -73 337 -96 459 -56 241 78 357 391 224 602 -30 48 -45 58 -45 33z m6 -231 c-17 -147 -126 -276 -283 -335 -45 -17 -207 -14 -273 5 -30 9 -65 19 -77 22 -51 12 -18 23 70 23 122 1 194 19 273 71 59 38 225 192 267 247 26 34 30 27 23 -33z" transform="translate(489,-489) scale(1,1)" stroke="none" fill="#9B7044"/>
</g>
<g id="pattern4" transform="matrix(1.618,0,0,1.618,1280,1280)matrix(0.87,0.5,-0.5,0.87,0,0)">
<path d="M840 696 c0 -8 -7 -16 -15 -20 -9 -3 -19 -15 -23 -26 -26 -71 -257 -290 -347 -330 -27 -12 -58 -26 -67 -31 -10 -5 -31 -9 -47 -9 -17 0 -33 -4 -36 -10 -4 -6 -57 -10 -126 -10 -65 0 -119 -4 -119 -9 0 -22 94 -111 142 -134 153 -73 337 -96 459 -56 241 78 357 391 224 602 -30 48 -45 58 -45 33z m6 -231 c-17 -147 -126 -276 -283 -335 -45 -17 -207 -14 -273 5 -30 9 -65 19 -77 22 -51 12 -18 23 70 23 122 1 194 19 273 71 59 38 225 192 267 247 26 34 30 27 23 -33z" transform="translate(489,-489) scale(1,1)" stroke="none" fill="#9B7044"/>
</g>
</g>
</g>

<g id="1" transform="translate(1122.0,0)scale(0.25,0.25)">

<g id="pattern">
<rect width="4862" height="4862" fill="#E8BF96"/>
<g id="pattern1" transform="matrix(1,0,0,1,302,302)">
<path d="M840 696 c0 -8 -7 -16 -15 -20 -9 -3 -19 -15 -23 -26 -26 -71 -257 -290 -347 -330 -27 -12 -58 -26 -67 -31 -10 -5 -31 -9 -47 -9 -17 0 -33 -4 -36 -10 -4 -6 -57 -10 -126 -10 -65 0 -119 -4 -119 -9 0 -22 94 -111 142 -134 153 -73 337 -96 459 -56 241 78 357 391 224 602 -30 48 -45 58 -45 33z m6 -231 c-17 -147 -126 -276 -283 -335 -45 -17 -207 -14 -273 5 -30 9 -65 19 -77 22 -51 12 -18 23 70 23 122 1 194 19 273 71 59 38 225 192 267 247 26 34 30 27 23 -33z" transform="translate(0.000000,0.000000) scale(1,1)" stroke="none" fill="#9B7044"/>
</g>
<g id="pattern2" transform="matrix(0.618,0,0,0.618,2303,676)">
<path d="M840 696 c0 -8 -7 -16 -15 -20 -9 -3 -19 -15 -23 -26 -26 -71 -257 -290 -347 -330 -27 -12 -58 -26 -67 -31 -10 -5 -31 -9 -47 -9 -17 0 -33 -4 -36 -10 -4 -6 -57 -10 -126 -10 -65 0 -119 -4 -119 -9 0 -22 94 -111 142 -134 153 -73 337 -96 459 -56 241 78 357 391 224 602 -30 48 -45 58 -45 33z m6 -231 c-17 -147 -126 -276 -283 -335 -45 -17 -207 -14 -273 5 -30 9 -65 19 -77 22 -51 12 -18 23 70 23 122 1 194 19 273 71 59 38 225 192 267 247 26 34 30 27 23 -33z" transform="translate(3051,0.000000) scale(-1,1)" stroke="none" fill="#9B7044"/>
</g>
<g id="pattern3" transform="matrix(0.618,0,0,0.618,863,3051)matrix(0.71,0.71,-0.71,0.71,0,0)">
<path d="M840 696 c0 -8 -7 -16 -15 -20 -9 -3 -19 -15 -23 -26 -26 -71 -257 -290 -347 -330 -27 -12 -58 -26 -67 -31 -10 -5 -31 -9 -47 -9 -17 0 -33 -4 -36 -10 -4 -6 -57 -10 -126 -10 -65 0 -119 -4 -119 -9 0 -22 94 -111 142 -134 153 -73 337 -96 459 -56 241 78 357 391 224 602 -30 48 -45 58 -45 33z m6 -231 c-17 -147 -126 -276 -283 -335 -45 -17 -207 -14 -273 5 -30 9 -65 19 -77 22 -51 12 -18 23 70 23 122 1 194 19 273 71 59 38 225 192 267 247 26 34 30 27 23 -33z" transform="translate(489,-489) scale(1,1)" stroke="none" fill="#9B7044"/>
</g>
<g id="pattern4" transform="matrix(1.618,0,0,1.618,1280,1280)matrix(0.87,0.5,-0.5,0.87,0,0)">
<path d="M840 696 c0 -8 -7 -16 -15 -20 -9 -3 -19 -15 -23 -26 -26 -71 -257 -290 -347 -330 -27 -12 -58 -26 -67 -31 -10 -5 -31 -9 -47 -9 -17 0 -33 -4 -36 -10 -4 -6 -57 -10 -126 -10 -65 0 -119 -4 -119 -9 0 -22 94 -111 142 -134 153 -73 337 -96 459 -56 241 78 357 391 224 602 -30 48 -45 58 -45 33z m6 -231 c-17 -147 -126 -276 -283 -335 -45 -17 -207 -14 -273 5 -30 9 -65 19 -77 22 -51 12 -18 23 70 23 122 1 194 19 273 71 59 38 225 192 267 247 26 34 30 27 23 -33z" transform="translate(489,-489) scale(1,1)" stroke="none" fill="#9B7044"/>
</g>
</g>
</g>

<g id="2" transform="translate(2244.0,0)scale(0.25,0.25)">

<g id="pattern">
<rect width="4862" height="4862" fill="#E8BF96"/>
<g id="pattern1" transform="matrix(1,0,0,1,302,302)">
<path d="M840 696 c0 -8 -7 -16 -15 -20 -9 -3 -19 -15 -23 -26 -26 -71 -257 -290 -347 -330 -27 -12 -58 -26 -67 -31 -10 -5 -31 -9 -47 -9 -17 0 -33 -4 -36 -10 -4 -6 -57 -10 -126 -10 -65 0 -119 -4 -119 -9 0 -22 94 -111 142 -134 153 -73 337 -96 459 -56 241 78 357 391 224 602 -30 48 -45 58 -45 33z m6 -231 c-17 -147 -126 -276 -283 -335 -45 -17 -207 -14 -273 5 -30 9 -65 19 -77 22 -51 12 -18 23 70 23 122 1 194 19 273 71 59 38 225 192 267 247 26 34 30 27 23 -33z" transform="translate(0.000000,0.000000) scale(1,1)" stroke="none" fill="#9B7044"/>
</g>
<g id="pattern2" transform="matrix(0.618,0,0,0.618,2303,676)">
<path d="M840 696 c0 -8 -7 -16 -15 -20 -9 -3 -19 -15 -23 -26 -26 -71 -257 -290 -347 -330 -27 -12 -58 -26 -67 -31 -10 -5 -31 -9 -47 -9 -17 0 -33 -4 -36 -10 -4 -6 -57 -10 -126 -10 -65 0 -119 -4 -119 -9 0 -22 94 -111 142 -134 153 -73 337 -96 459 -56 241 78 357 391 224 602 -30 48 -45 58 -45 33z m6 -231 c-17 -147 -126 -276 -283 -335 -45 -17 -207 -14 -273 5 -30 9 -65 19 -77 22 -51 12 -18 23 70 23 122 1 194 19 273 71 59 38 225 192 267 247 26 34 30 27 23 -33z" transform="translate(3051,0.000000) scale(-1,1)" stroke="none" fill="#9B7044"/>
</g>
<g id="pattern3" transform="matrix(0.618,0,0,0.618,863,3051)matrix(0.71,0.71,-0.71,0.71,0,0)">
<path d="M840 696 c0 -8 -7 -16 -15 -20 -9 -3 -19 -15 -23 -26 -26 -71 -257 -290 -347 -330 -27 -12 -58 -26 -67 -31 -10 -5 -31 -9 -47 -9 -17 0 -33 -4 -36 -10 -4 -6 -57 -10 -126 -10 -65 0 -119 -4 -119 -9 0 -22 94 -111 142 -134 153 -73 337 -96 459 -56 241 78 357 391 224 602 -30 48 -45 58 -45 33z m6 -231 c-17 -147 -126 -276 -283 -335 -45 -17 -207 -14 -273 5 -30 9 -65 19 -77 22 -51 12 -18 23 70 23 122 1 194 19 273 71 59 38 225 192 267 247 26 34 30 27 23 -33z" transform="translate(489,-489) scale(1,1)" stroke="none" fill="#9B7044"/>
</g>
<g id="pattern4" transform="matrix(1.618,0,0,1.618,1280,1280)matrix(0.87,0.5,-0.5,0.87,0,0)">
<path d="M840 696 c0 -8 -7 -16 -15 -20 -9 -3 -19 -15 -23 -26 -26 -71 -257 -290 -347 -330 -27 -12 -58 -26 -67 -31 -10 -5 -31 -9 -47 -9 -17 0 -33 -4 -36 -10 -4 -6 -57 -10 -126 -10 -65 0 -119 -4 -119 -9 0 -22 94 -111 142 -134 153 -73 337 -96 459 -56 241 78 357 391 224 602 -30 48 -45 58 -45 33z m6 -231 c-17 -147 -126 -276 -283 -335 -45 -17 -207 -14 -273 5 -30 9 -65 19 -77 22 -51 12 -18 23 70 23 122 1 194 19 273 71 59 38 225 192 267 247 26 34 30 27 23 -33z" transform="translate(489,-489) scale(1,1)" stroke="none" fill="#9B7044"/>
</g>
</g>
</g>

<g id="3" transform="translate(3366.0,0)scale(0.25,0.25)">

<g id="pattern">
<rect width="4862" height="4862" fill="#E8BF96"/>
<g id="pattern1" transform="matrix(1,0,0,1,302,302)">
<path d="M840 696 c0 -8 -7 -16 -15 -20 -9 -3 -19 -15 -23 -26 -26 -71 -257 -290 -347 -330 -27 -12 -58 -26 -67 -31 -10 -5 -31 -9 -47 -9 -17 0 -33 -4 -36 -10 -4 -6 -57 -10 -126 -10 -65 0 -119 -4 -119 -9 0 -22 94 -111 142 -134 153 -73 337 -96 459 -56 241 78 357 391 224 602 -30 48 -45 58 -45 33z m6 -231 c-17 -147 -126 -276 -283 -335 -45 -17 -207 -14 -273 5 -30 9 -65 19 -77 22 -51 12 -18 23 70 23 122 1 194 19 273 71 59 38 225 192 267 247 26 34 30 27 23 -33z" transform="translate(0.000000,0.000000) scale(1,1)" stroke="none" fill="#9B7044"/>
</g>
<g id="pattern2" transform="matrix(0.618,0,0,0.618,2303,676)">
<path d="M840 696 c0 -8 -7 -16 -15 -20 -9 -3 -19 -15 -23 -26 -26 -71 -257 -290 -347 -330 -27 -12 -58 -26 -67 -31 -10 -5 -31 -9 -47 -9 -17 0 -33 -4 -36 -10 -4 -6 -57 -10 -126 -10 -65 0 -119 -4 -119 -9 0 -22 94 -111 142 -134 153 -73 337 -96 459 -56 241 78 357 391 224 602 -30 48 -45 58 -45 33z m6 -231 c-17 -147 -126 -276 -283 -335 -45 -17 -207 -14 -273 5 -30 9 -65 19 -77 22 -51 12 -18 23 70 23 122 1 194 19 273 71 59 38 225 192 267 247 26 34 30 27 23 -33z" transform="translate(3051,0.000000) scale(-1,1)" stroke="none" fill="#9B7044"/>
</g>
<g id="pattern3" transform="matrix(0.618,0,0,0.618,863,3051)matrix(0.71,0.71,-0.71,0.71,0,0)">
<path d="M840 696 c0 -8 -7 -16 -15 -20 -9 -3 -19 -15 -23 -26 -26 -71 -257 -290 -347 -330 -27 -12 -58 -26 -67 -31 -10 -5 -31 -9 -47 -9 -17 0 -33 -4 -36 -10 -4 -6 -57 -10 -126 -10 -65 0 -119 -4 -119 -9 0 -22 94 -111 142 -134 153 -73 337 -96 459 -56 241 78 357 391 224 602 -30 48 -45 58 -45 33z m6 -231 c-17 -147 -126 -276 -283 -335 -45 -17 -207 -14 -273 5 -30 9 -65 19 -77 22 -51 12 -18 23 70 23 122 1 194 19 273 71 59 38 225 192 267 247 26 34 30 27 23 -33z" transform="translate(489,-489) scale(1,1)" stroke="none" fill="#9B7044"/>
</g>
<g id="pattern4" transform="matrix(1.618,0,0,1.618,1280,1280)matrix(0.87,0.5,-0.5,0.87,0,0)">
<path d="M840 696 c0 -8 -7 -16 -15 -20 -9 -3 -19 -15 -23 -26 -26 -71 -257 -290 -347 -330 -27 -12 -58 -26 -67 -31 -10 -5 -31 -9 -47 -9 -17 0 -33 -4 -36 -10 -4 -6 -57 -10 -126 -10 -65 0 -119 -4 -119 -9 0 -22 94 -111 142 -134 153 -73 337 -96 459 -56 241 78 357 391 224 602 -30 48 -45 58 -45 33z m6 -231 c-17 -147 -126 -276 -283 -335 -45 -17 -207 -14 -273 5 -30 9 -65 19 -77 22 -51 12 -18 23 70 23 122 1 194 19 273 71 59 38 225 192 267 247 26 34 30 27 23 -33z" transform="translate(489,-489) scale(1,1)" stroke="none" fill="#9B7044"/>
</g>
</g>
</g>

<g id="4" transform="translate(4488.0,0)scale(0.25,0.25)">

<g id="pattern">
<rect width="4862" height="4862" fill="#E8BF96"/>
<g id="pattern1" transform="matrix(1,0,0,1,302,302)">
<path d="M840 696 c0 -8 -7 -16 -15 -20 -9 -3 -19 -15 -23 -26 -26 -71 -257 -290 -347 -330 -27 -12 -58 -26 -67 -31 -10 -5 -31 -9 -47 -9 -17 0 -33 -4 -36 -10 -4 -6 -57 -10 -126 -10 -65 0 -119 -4 -119 -9 0 -22 94 -111 142 -134 153 -73 337 -96 459 -56 241 78 357 391 224 602 -30 48 -45 58 -45 33z m6 -231 c-17 -147 -126 -276 -283 -335 -45 -17 -207 -14 -273 5 -30 9 -65 19 -77 22 -51 12 -18 23 70 23 122 1 194 19 273 71 59 38 225 192 267 247 26 34 30 27 23 -33z" transform="translate(0.000000,0.000000) scale(1,1)" stroke="none" fill="#9B7044"/>
</g>
<g id="pattern2" transform="matrix(0.618,0,0,0.618,2303,676)">
<path d="M840 696 c0 -8 -7 -16 -15 -20 -9 -3 -19 -15 -23 -26 -26 -71 -257 -290 -347 -330 -27 -12 -58 -26 -67 -31 -10 -5 -31 -9 -47 -9 -17 0 -33 -4 -36 -10 -4 -6 -57 -10 -126 -10 -65 0 -119 -4 -119 -9 0 -22 94 -111 142 -134 153 -73 337 -96 459 -56 241 78 357 391 224 602 -30 48 -45 58 -45 33z m6 -231 c-17 -147 -126 -276 -283 -335 -45 -17 -207 -14 -273 5 -30 9 -65 19 -77 22 -51 12 -18 23 70 23 122 1 194 19 273 71 59 38 225 192 267 247 26 34 30 27 23 -33z" transform="translate(3051,0.000000) scale(-1,1)" stroke="none" fill="#9B7044"/>
</g>
<g id="pattern3" transform="matrix(0.618,0,0,0.618,863,3051)matrix(0.71,0.71,-0.71,0.71,0,0)">
<path d="M840 696 c0 -8 -7 -16 -15 -20 -9 -3 -19 -15 -23 -26 -26 -71 -257 -290 -347 -330 -27 -12 -58 -26 -67 -31 -10 -5 -31 -9 -47 -9 -17 0 -33 -4 -36 -10 -4 -6 -57 -10 -126 -10 -65 0 -119 -4 -119 -9 0 -22 94 -111 142 -134 153 -73 337 -96 459 -56 241 78 357 391 224 602 -30 48 -45 58 -45 33z m6 -231 c-17 -147 -126 -276 -283 -335 -45 -17 -207 -14 -273 5 -30 9 -65 19 -77 22 -51 12 -18 23 70 23 122 1 194 19 273 71 59 38 225 192 267 247 26 34 30 27 23 -33z" transform="translate(489,-489) scale(1,1)" stroke="none" fill="#9B7044"/>
</g>
<g id="pattern4" transform="matrix(1.618,0,0,1.618,1280,1280)matrix(0.87,0.5,-0.5,0.87,0,0)">
<path d="M840 696 c0 -8 -7 -16 -15 -20 -9 -3 -19 -15 -23 -26 -26 -71 -257 -290 -347 -330 -27 -12 -58 -26 -67 -31 -10 -5 -31 -9 -47 -9 -17 0 -33 -4 -36 -10 -4 -6 -57 -10 -126 -10 -65 0 -119 -4 -119 -9 0 -22 94 -111 142 -134 153 -73 337 -96 459 -56 241 78 357 391 224 602 -30 48 -45 58 -45 33z m6 -231 c-17 -147 -126 -276 -283 -335 -45 -17 -207 -14 -273 5 -30 9 -65 19 -77 22 -51 12 -18 23 70 23 122 1 194 19 273 71 59 38 225 192 267 247 26 34 30 27 23 -33z" transform="translate(489,-489) scale(1,1)" stroke="none" fill="#9B7044"/>
</g>
</g>
</g>

</g>
</svg>