<?xml version="1.0" standalone="no"?>
<!DOCTYPE svg PUBLIC "-//W3C//DTD SVG 20010904//EN"
 "http://www.w3.org/TR/2001/REC-SVG-20010904/DTD/svg10.dtd">
<svg version="1.0" xmlns="http://www.w3.org/2000/svg" 
width="54.000000pt" height="54.000000pt" viewBox="0 0 54.000000 54.000000"
preserveAspectRatio = "xMidYMid meet" >
<metadata>
Created by ZoeQU, 2022
</metadata>
<rect width="54.000000" height="54.000000" fill="#202031"/>
<path d="M380 405 c0 -8 5 -15 10 -15 6 0 10 7 10 15 0 8 -4 15 -10 15 -5 0 -10 -7 -10 -15z" transform="translate(0.000000,54.000000) scale(0.100000,-0.100000)" stroke="none" fill="#D29A5B"/>

<path d="M253 330 c-23 -10 -43 -39 -43 -64 0 -25 38 -56 68 -56 60 0 83 72 36 109 -30 23 -30 23 -61 11z" transform="translate(0.000000,54.000000) scale(0.100000,-0.100000)" stroke="none" fill="#D29A5B"/>

<path d="M402 174 c-25 -17 -31 -81 -10 -102 7 -7 29 -12 49 -12 66 0 93 70 43 109 -32 25 -52 26 -82 5z" transform="translate(0.000000,54.000000) scale(0.100000,-0.100000)" stroke="none" fill="#D29A5B"/>

<path d="M90 192 c-50 -16 -68 -83 -31 -116 47 -43 123 5 107 67 -7 29 -51 57 -76 49z" transform="translate(0.000000,54.000000) scale(0.100000,-0.100000)" stroke="none" fill="#D29A5B"/>

<path d="M254 478 c-21 -10 -26 -17 -57 -89 -11 -27 -24 -38 -56 -49 -108 -35 -107 -98 1 -141 34 -13 46 -25 67 -69 29 -61 47 -76 82 -67 23 6 55 53 61 91 3 20 6 22 83 59 46 21 50 26 50 58 0 35 -2 37 -115 89 -8 4 -16 16 -18 26 -6 35 -33 84 -52 94 -22 12 -19 12 -46 -2z m76 -153 c33 -35 31 -81 -4 -112 -37 -31 -68 -29 -105 8 -38 37 -38 52 -5 96 32 42 79 46 114 8z" transform="translate(0.000000,54.000000) scale(0.100000,-0.100000)" stroke="none" fill="#903F12"/>

</svg>