<?xml version="1.0" standalone="no"?>
<!DOCTYPE svg PUBLIC "-//W3C//DTD SVG 20010904//EN"
 "http://www.w3.org/TR/2001/REC-SVG-20010904/DTD/svg10.dtd">
<svg version="1.0" xmlns="http://www.w3.org/2000/svg" width="560pt" height="888pt" viewBox="0 0 560 888" preserveAspectRatio = "xMidYMid meet" >
<metadata>
Created by ZoeQu, written in 2022
</metadata>
<rect width="560" height="888" fill="#ACB8DD"/>
<g id="row0" transform="translate(18,0.0)">
<g id="0" transform="translate(0.0,0)scale(1,1)">

<path d="M348 633 c-32 -8 -58 -19 -58 -25 0 -47 77 -90 156 -86 l55 3 -5 30 c-7 31 -62 96 -80 94 -6 -1 -37 -8 -68 -16z" transform="translate(0,222) scale(0.1,-0.1)" stroke="none" fill="#497DD8"/>

<path d="M1097 1047 c-43 -38 -50 -49 -68 -121 -12 -46 -16 -83 -11 -88 16 -16 121 -27 177 -18 70 11 108 34 123 72 14 38 9 50 -31 73 -32 18 -32 18 -18 -1 8 -10 2 -7 -14 8 -17 16 -34 46 -40 70 -9 37 -14 43 -40 45 -23 2 -41 -8 -78 -40z" transform="translate(0,222) scale(0.1,-0.1)" stroke="none" fill="#497DD8"/>

<path d="M634 2121 c-42 -26 -71 -91 -81 -181 l-8 -74 -74 -1 c-89 0 -103 -12 -82 -72 25 -69 59 -107 181 -203 l120 -95 0 -82 c0 -56 -4 -83 -12 -86 -10 -4 -10 -7 0 -18 12 -13 17 -143 6 -172 -4 -12 -20 -9 -85 21 -86 38 -93 51 -58 95 17 23 19 35 13 86 l-7 60 -90 81 c-74 66 -95 80 -123 80 -56 0 -79 -33 -87 -125 l-3 -40 -70 -5 c-39 -3 -78 -11 -88 -19 -29 -24 -20 -74 23 -122 79 -90 199 -121 311 -80 l59 22 78 -39 c43 -22 91 -42 106 -46 l28 -7 -2 -112 c-1 -61 4 -206 11 -321 6 -115 9 -225 5 -244 -3 -19 -2 -38 3 -41 5 -3 15 -57 21 -119 11 -122 14 -132 37 -132 12 0 14 16 7 107 -4 60 -7 156 -7 215 -1 60 -5 108 -10 108 -5 0 -6 37 -3 85 4 56 2 85 -4 85 -7 0 -10 38 -7 110 1 61 0 110 -4 110 -5 0 -8 34 -8 75 l0 75 43 21 c65 33 125 76 202 145 l71 62 64 -5 c79 -6 127 11 163 58 25 34 30 49 28 81 -2 24 -41 58 -67 58 -14 0 -41 18 -67 45 -65 66 -85 62 -142 -24 l-46 -68 26 -68 c14 -37 24 -70 22 -72 -2 -2 -64 -48 -137 -103 -159 -119 -165 -119 -155 -1 8 83 20 101 66 101 36 0 54 22 39 49 -10 20 -50 30 -50 14 0 -5 -11 -21 -25 -38 l-24 -30 -1 86 0 86 103 85 c117 98 167 169 174 246 4 38 1 52 -18 76 -20 25 -27 28 -66 23 -24 -2 -52 -12 -62 -21 -25 -23 -31 -20 -31 17 0 85 -44 167 -106 197 -50 25 -61 25 -100 1z" transform="translate(0,222) scale(0.1,-0.1)" stroke="none" fill="#497DD8"/>

</g>

<g id="1" transform="translate(140.0,0)scale(1,1)">

<path d="M348 633 c-32 -8 -58 -19 -58 -25 0 -47 77 -90 156 -86 l55 3 -5 30 c-7 31 -62 96 -80 94 -6 -1 -37 -8 -68 -16z" transform="translate(0,222) scale(0.1,-0.1)" stroke="none" fill="#497DD8"/>

<path d="M1097 1047 c-43 -38 -50 -49 -68 -121 -12 -46 -16 -83 -11 -88 16 -16 121 -27 177 -18 70 11 108 34 123 72 14 38 9 50 -31 73 -32 18 -32 18 -18 -1 8 -10 2 -7 -14 8 -17 16 -34 46 -40 70 -9 37 -14 43 -40 45 -23 2 -41 -8 -78 -40z" transform="translate(0,222) scale(0.1,-0.1)" stroke="none" fill="#497DD8"/>

<path d="M634 2121 c-42 -26 -71 -91 -81 -181 l-8 -74 -74 -1 c-89 0 -103 -12 -82 -72 25 -69 59 -107 181 -203 l120 -95 0 -82 c0 -56 -4 -83 -12 -86 -10 -4 -10 -7 0 -18 12 -13 17 -143 6 -172 -4 -12 -20 -9 -85 21 -86 38 -93 51 -58 95 17 23 19 35 13 86 l-7 60 -90 81 c-74 66 -95 80 -123 80 -56 0 -79 -33 -87 -125 l-3 -40 -70 -5 c-39 -3 -78 -11 -88 -19 -29 -24 -20 -74 23 -122 79 -90 199 -121 311 -80 l59 22 78 -39 c43 -22 91 -42 106 -46 l28 -7 -2 -112 c-1 -61 4 -206 11 -321 6 -115 9 -225 5 -244 -3 -19 -2 -38 3 -41 5 -3 15 -57 21 -119 11 -122 14 -132 37 -132 12 0 14 16 7 107 -4 60 -7 156 -7 215 -1 60 -5 108 -10 108 -5 0 -6 37 -3 85 4 56 2 85 -4 85 -7 0 -10 38 -7 110 1 61 0 110 -4 110 -5 0 -8 34 -8 75 l0 75 43 21 c65 33 125 76 202 145 l71 62 64 -5 c79 -6 127 11 163 58 25 34 30 49 28 81 -2 24 -41 58 -67 58 -14 0 -41 18 -67 45 -65 66 -85 62 -142 -24 l-46 -68 26 -68 c14 -37 24 -70 22 -72 -2 -2 -64 -48 -137 -103 -159 -119 -165 -119 -155 -1 8 83 20 101 66 101 36 0 54 22 39 49 -10 20 -50 30 -50 14 0 -5 -11 -21 -25 -38 l-24 -30 -1 86 0 86 103 85 c117 98 167 169 174 246 4 38 1 52 -18 76 -20 25 -27 28 -66 23 -24 -2 -52 -12 -62 -21 -25 -23 -31 -20 -31 17 0 85 -44 167 -106 197 -50 25 -61 25 -100 1z" transform="translate(0,222) scale(0.1,-0.1)" stroke="none" fill="#497DD8"/>

</g>

<g id="2" transform="translate(280.0,0)scale(1,1)">

<path d="M348 633 c-32 -8 -58 -19 -58 -25 0 -47 77 -90 156 -86 l55 3 -5 30 c-7 31 -62 96 -80 94 -6 -1 -37 -8 -68 -16z" transform="translate(0,222) scale(0.1,-0.1)" stroke="none" fill="#497DD8"/>

<path d="M1097 1047 c-43 -38 -50 -49 -68 -121 -12 -46 -16 -83 -11 -88 16 -16 121 -27 177 -18 70 11 108 34 123 72 14 38 9 50 -31 73 -32 18 -32 18 -18 -1 8 -10 2 -7 -14 8 -17 16 -34 46 -40 70 -9 37 -14 43 -40 45 -23 2 -41 -8 -78 -40z" transform="translate(0,222) scale(0.1,-0.1)" stroke="none" fill="#497DD8"/>

<path d="M634 2121 c-42 -26 -71 -91 -81 -181 l-8 -74 -74 -1 c-89 0 -103 -12 -82 -72 25 -69 59 -107 181 -203 l120 -95 0 -82 c0 -56 -4 -83 -12 -86 -10 -4 -10 -7 0 -18 12 -13 17 -143 6 -172 -4 -12 -20 -9 -85 21 -86 38 -93 51 -58 95 17 23 19 35 13 86 l-7 60 -90 81 c-74 66 -95 80 -123 80 -56 0 -79 -33 -87 -125 l-3 -40 -70 -5 c-39 -3 -78 -11 -88 -19 -29 -24 -20 -74 23 -122 79 -90 199 -121 311 -80 l59 22 78 -39 c43 -22 91 -42 106 -46 l28 -7 -2 -112 c-1 -61 4 -206 11 -321 6 -115 9 -225 5 -244 -3 -19 -2 -38 3 -41 5 -3 15 -57 21 -119 11 -122 14 -132 37 -132 12 0 14 16 7 107 -4 60 -7 156 -7 215 -1 60 -5 108 -10 108 -5 0 -6 37 -3 85 4 56 2 85 -4 85 -7 0 -10 38 -7 110 1 61 0 110 -4 110 -5 0 -8 34 -8 75 l0 75 43 21 c65 33 125 76 202 145 l71 62 64 -5 c79 -6 127 11 163 58 25 34 30 49 28 81 -2 24 -41 58 -67 58 -14 0 -41 18 -67 45 -65 66 -85 62 -142 -24 l-46 -68 26 -68 c14 -37 24 -70 22 -72 -2 -2 -64 -48 -137 -103 -159 -119 -165 -119 -155 -1 8 83 20 101 66 101 36 0 54 22 39 49 -10 20 -50 30 -50 14 0 -5 -11 -21 -25 -38 l-24 -30 -1 86 0 86 103 85 c117 98 167 169 174 246 4 38 1 52 -18 76 -20 25 -27 28 -66 23 -24 -2 -52 -12 -62 -21 -25 -23 -31 -20 -31 17 0 85 -44 167 -106 197 -50 25 -61 25 -100 1z" transform="translate(0,222) scale(0.1,-0.1)" stroke="none" fill="#497DD8"/>

</g>

<g id="3" transform="translate(420.0,0)scale(1,1)">

<path d="M348 633 c-32 -8 -58 -19 -58 -25 0 -47 77 -90 156 -86 l55 3 -5 30 c-7 31 -62 96 -80 94 -6 -1 -37 -8 -68 -16z" transform="translate(0,222) scale(0.1,-0.1)" stroke="none" fill="#497DD8"/>

<path d="M1097 1047 c-43 -38 -50 -49 -68 -121 -12 -46 -16 -83 -11 -88 16 -16 121 -27 177 -18 70 11 108 34 123 72 14 38 9 50 -31 73 -32 18 -32 18 -18 -1 8 -10 2 -7 -14 8 -17 16 -34 46 -40 70 -9 37 -14 43 -40 45 -23 2 -41 -8 -78 -40z" transform="translate(0,222) scale(0.1,-0.1)" stroke="none" fill="#497DD8"/>

<path d="M634 2121 c-42 -26 -71 -91 -81 -181 l-8 -74 -74 -1 c-89 0 -103 -12 -82 -72 25 -69 59 -107 181 -203 l120 -95 0 -82 c0 -56 -4 -83 -12 -86 -10 -4 -10 -7 0 -18 12 -13 17 -143 6 -172 -4 -12 -20 -9 -85 21 -86 38 -93 51 -58 95 17 23 19 35 13 86 l-7 60 -90 81 c-74 66 -95 80 -123 80 -56 0 -79 -33 -87 -125 l-3 -40 -70 -5 c-39 -3 -78 -11 -88 -19 -29 -24 -20 -74 23 -122 79 -90 199 -121 311 -80 l59 22 78 -39 c43 -22 91 -42 106 -46 l28 -7 -2 -112 c-1 -61 4 -206 11 -321 6 -115 9 -225 5 -244 -3 -19 -2 -38 3 -41 5 -3 15 -57 21 -119 11 -122 14 -132 37 -132 12 0 14 16 7 107 -4 60 -7 156 -7 215 -1 60 -5 108 -10 108 -5 0 -6 37 -3 85 4 56 2 85 -4 85 -7 0 -10 38 -7 110 1 61 0 110 -4 110 -5 0 -8 34 -8 75 l0 75 43 21 c65 33 125 76 202 145 l71 62 64 -5 c79 -6 127 11 163 58 25 34 30 49 28 81 -2 24 -41 58 -67 58 -14 0 -41 18 -67 45 -65 66 -85 62 -142 -24 l-46 -68 26 -68 c14 -37 24 -70 22 -72 -2 -2 -64 -48 -137 -103 -159 -119 -165 -119 -155 -1 8 83 20 101 66 101 36 0 54 22 39 49 -10 20 -50 30 -50 14 0 -5 -11 -21 -25 -38 l-24 -30 -1 86 0 86 103 85 c117 98 167 169 174 246 4 38 1 52 -18 76 -20 25 -27 28 -66 23 -24 -2 -52 -12 -62 -21 -25 -23 -31 -20 -31 17 0 85 -44 167 -106 197 -50 25 -61 25 -100 1z" transform="translate(0,222) scale(0.1,-0.1)" stroke="none" fill="#497DD8"/>

</g>

<g id="4" transform="translate(560.0,0)scale(1,1)">

<path d="M348 633 c-32 -8 -58 -19 -58 -25 0 -47 77 -90 156 -86 l55 3 -5 30 c-7 31 -62 96 -80 94 -6 -1 -37 -8 -68 -16z" transform="translate(0,222) scale(0.1,-0.1)" stroke="none" fill="#497DD8"/>

<path d="M1097 1047 c-43 -38 -50 -49 -68 -121 -12 -46 -16 -83 -11 -88 16 -16 121 -27 177 -18 70 11 108 34 123 72 14 38 9 50 -31 73 -32 18 -32 18 -18 -1 8 -10 2 -7 -14 8 -17 16 -34 46 -40 70 -9 37 -14 43 -40 45 -23 2 -41 -8 -78 -40z" transform="translate(0,222) scale(0.1,-0.1)" stroke="none" fill="#497DD8"/>

<path d="M634 2121 c-42 -26 -71 -91 -81 -181 l-8 -74 -74 -1 c-89 0 -103 -12 -82 -72 25 -69 59 -107 181 -203 l120 -95 0 -82 c0 -56 -4 -83 -12 -86 -10 -4 -10 -7 0 -18 12 -13 17 -143 6 -172 -4 -12 -20 -9 -85 21 -86 38 -93 51 -58 95 17 23 19 35 13 86 l-7 60 -90 81 c-74 66 -95 80 -123 80 -56 0 -79 -33 -87 -125 l-3 -40 -70 -5 c-39 -3 -78 -11 -88 -19 -29 -24 -20 -74 23 -122 79 -90 199 -121 311 -80 l59 22 78 -39 c43 -22 91 -42 106 -46 l28 -7 -2 -112 c-1 -61 4 -206 11 -321 6 -115 9 -225 5 -244 -3 -19 -2 -38 3 -41 5 -3 15 -57 21 -119 11 -122 14 -132 37 -132 12 0 14 16 7 107 -4 60 -7 156 -7 215 -1 60 -5 108 -10 108 -5 0 -6 37 -3 85 4 56 2 85 -4 85 -7 0 -10 38 -7 110 1 61 0 110 -4 110 -5 0 -8 34 -8 75 l0 75 43 21 c65 33 125 76 202 145 l71 62 64 -5 c79 -6 127 11 163 58 25 34 30 49 28 81 -2 24 -41 58 -67 58 -14 0 -41 18 -67 45 -65 66 -85 62 -142 -24 l-46 -68 26 -68 c14 -37 24 -70 22 -72 -2 -2 -64 -48 -137 -103 -159 -119 -165 -119 -155 -1 8 83 20 101 66 101 36 0 54 22 39 49 -10 20 -50 30 -50 14 0 -5 -11 -21 -25 -38 l-24 -30 -1 86 0 86 103 85 c117 98 167 169 174 246 4 38 1 52 -18 76 -20 25 -27 28 -66 23 -24 -2 -52 -12 -62 -21 -25 -23 -31 -20 -31 17 0 85 -44 167 -106 197 -50 25 -61 25 -100 1z" transform="translate(0,222) scale(0.1,-0.1)" stroke="none" fill="#497DD8"/>

</g>

</g>
<g id="row1" transform="translate(-52,222.0)">
<g id="0" transform="translate(0.0,0)scale(1,1)">

<path d="M348 633 c-32 -8 -58 -19 -58 -25 0 -47 77 -90 156 -86 l55 3 -5 30 c-7 31 -62 96 -80 94 -6 -1 -37 -8 -68 -16z" transform="translate(0,222) scale(0.1,-0.1)" stroke="none" fill="#497DD8"/>

<path d="M1097 1047 c-43 -38 -50 -49 -68 -121 -12 -46 -16 -83 -11 -88 16 -16 121 -27 177 -18 70 11 108 34 123 72 14 38 9 50 -31 73 -32 18 -32 18 -18 -1 8 -10 2 -7 -14 8 -17 16 -34 46 -40 70 -9 37 -14 43 -40 45 -23 2 -41 -8 -78 -40z" transform="translate(0,222) scale(0.1,-0.1)" stroke="none" fill="#497DD8"/>

<path d="M634 2121 c-42 -26 -71 -91 -81 -181 l-8 -74 -74 -1 c-89 0 -103 -12 -82 -72 25 -69 59 -107 181 -203 l120 -95 0 -82 c0 -56 -4 -83 -12 -86 -10 -4 -10 -7 0 -18 12 -13 17 -143 6 -172 -4 -12 -20 -9 -85 21 -86 38 -93 51 -58 95 17 23 19 35 13 86 l-7 60 -90 81 c-74 66 -95 80 -123 80 -56 0 -79 -33 -87 -125 l-3 -40 -70 -5 c-39 -3 -78 -11 -88 -19 -29 -24 -20 -74 23 -122 79 -90 199 -121 311 -80 l59 22 78 -39 c43 -22 91 -42 106 -46 l28 -7 -2 -112 c-1 -61 4 -206 11 -321 6 -115 9 -225 5 -244 -3 -19 -2 -38 3 -41 5 -3 15 -57 21 -119 11 -122 14 -132 37 -132 12 0 14 16 7 107 -4 60 -7 156 -7 215 -1 60 -5 108 -10 108 -5 0 -6 37 -3 85 4 56 2 85 -4 85 -7 0 -10 38 -7 110 1 61 0 110 -4 110 -5 0 -8 34 -8 75 l0 75 43 21 c65 33 125 76 202 145 l71 62 64 -5 c79 -6 127 11 163 58 25 34 30 49 28 81 -2 24 -41 58 -67 58 -14 0 -41 18 -67 45 -65 66 -85 62 -142 -24 l-46 -68 26 -68 c14 -37 24 -70 22 -72 -2 -2 -64 -48 -137 -103 -159 -119 -165 -119 -155 -1 8 83 20 101 66 101 36 0 54 22 39 49 -10 20 -50 30 -50 14 0 -5 -11 -21 -25 -38 l-24 -30 -1 86 0 86 103 85 c117 98 167 169 174 246 4 38 1 52 -18 76 -20 25 -27 28 -66 23 -24 -2 -52 -12 -62 -21 -25 -23 -31 -20 -31 17 0 85 -44 167 -106 197 -50 25 -61 25 -100 1z" transform="translate(0,222) scale(0.1,-0.1)" stroke="none" fill="#497DD8"/>

</g>

<g id="1" transform="translate(140.0,0)scale(1,1)">

<path d="M348 633 c-32 -8 -58 -19 -58 -25 0 -47 77 -90 156 -86 l55 3 -5 30 c-7 31 -62 96 -80 94 -6 -1 -37 -8 -68 -16z" transform="translate(0,222) scale(0.1,-0.1)" stroke="none" fill="#497DD8"/>

<path d="M1097 1047 c-43 -38 -50 -49 -68 -121 -12 -46 -16 -83 -11 -88 16 -16 121 -27 177 -18 70 11 108 34 123 72 14 38 9 50 -31 73 -32 18 -32 18 -18 -1 8 -10 2 -7 -14 8 -17 16 -34 46 -40 70 -9 37 -14 43 -40 45 -23 2 -41 -8 -78 -40z" transform="translate(0,222) scale(0.1,-0.1)" stroke="none" fill="#497DD8"/>

<path d="M634 2121 c-42 -26 -71 -91 -81 -181 l-8 -74 -74 -1 c-89 0 -103 -12 -82 -72 25 -69 59 -107 181 -203 l120 -95 0 -82 c0 -56 -4 -83 -12 -86 -10 -4 -10 -7 0 -18 12 -13 17 -143 6 -172 -4 -12 -20 -9 -85 21 -86 38 -93 51 -58 95 17 23 19 35 13 86 l-7 60 -90 81 c-74 66 -95 80 -123 80 -56 0 -79 -33 -87 -125 l-3 -40 -70 -5 c-39 -3 -78 -11 -88 -19 -29 -24 -20 -74 23 -122 79 -90 199 -121 311 -80 l59 22 78 -39 c43 -22 91 -42 106 -46 l28 -7 -2 -112 c-1 -61 4 -206 11 -321 6 -115 9 -225 5 -244 -3 -19 -2 -38 3 -41 5 -3 15 -57 21 -119 11 -122 14 -132 37 -132 12 0 14 16 7 107 -4 60 -7 156 -7 215 -1 60 -5 108 -10 108 -5 0 -6 37 -3 85 4 56 2 85 -4 85 -7 0 -10 38 -7 110 1 61 0 110 -4 110 -5 0 -8 34 -8 75 l0 75 43 21 c65 33 125 76 202 145 l71 62 64 -5 c79 -6 127 11 163 58 25 34 30 49 28 81 -2 24 -41 58 -67 58 -14 0 -41 18 -67 45 -65 66 -85 62 -142 -24 l-46 -68 26 -68 c14 -37 24 -70 22 -72 -2 -2 -64 -48 -137 -103 -159 -119 -165 -119 -155 -1 8 83 20 101 66 101 36 0 54 22 39 49 -10 20 -50 30 -50 14 0 -5 -11 -21 -25 -38 l-24 -30 -1 86 0 86 103 85 c117 98 167 169 174 246 4 38 1 52 -18 76 -20 25 -27 28 -66 23 -24 -2 -52 -12 -62 -21 -25 -23 -31 -20 -31 17 0 85 -44 167 -106 197 -50 25 -61 25 -100 1z" transform="translate(0,222) scale(0.1,-0.1)" stroke="none" fill="#497DD8"/>

</g>

<g id="2" transform="translate(280.0,0)scale(1,1)">

<path d="M348 633 c-32 -8 -58 -19 -58 -25 0 -47 77 -90 156 -86 l55 3 -5 30 c-7 31 -62 96 -80 94 -6 -1 -37 -8 -68 -16z" transform="translate(0,222) scale(0.1,-0.1)" stroke="none" fill="#497DD8"/>

<path d="M1097 1047 c-43 -38 -50 -49 -68 -121 -12 -46 -16 -83 -11 -88 16 -16 121 -27 177 -18 70 11 108 34 123 72 14 38 9 50 -31 73 -32 18 -32 18 -18 -1 8 -10 2 -7 -14 8 -17 16 -34 46 -40 70 -9 37 -14 43 -40 45 -23 2 -41 -8 -78 -40z" transform="translate(0,222) scale(0.1,-0.1)" stroke="none" fill="#497DD8"/>

<path d="M634 2121 c-42 -26 -71 -91 -81 -181 l-8 -74 -74 -1 c-89 0 -103 -12 -82 -72 25 -69 59 -107 181 -203 l120 -95 0 -82 c0 -56 -4 -83 -12 -86 -10 -4 -10 -7 0 -18 12 -13 17 -143 6 -172 -4 -12 -20 -9 -85 21 -86 38 -93 51 -58 95 17 23 19 35 13 86 l-7 60 -90 81 c-74 66 -95 80 -123 80 -56 0 -79 -33 -87 -125 l-3 -40 -70 -5 c-39 -3 -78 -11 -88 -19 -29 -24 -20 -74 23 -122 79 -90 199 -121 311 -80 l59 22 78 -39 c43 -22 91 -42 106 -46 l28 -7 -2 -112 c-1 -61 4 -206 11 -321 6 -115 9 -225 5 -244 -3 -19 -2 -38 3 -41 5 -3 15 -57 21 -119 11 -122 14 -132 37 -132 12 0 14 16 7 107 -4 60 -7 156 -7 215 -1 60 -5 108 -10 108 -5 0 -6 37 -3 85 4 56 2 85 -4 85 -7 0 -10 38 -7 110 1 61 0 110 -4 110 -5 0 -8 34 -8 75 l0 75 43 21 c65 33 125 76 202 145 l71 62 64 -5 c79 -6 127 11 163 58 25 34 30 49 28 81 -2 24 -41 58 -67 58 -14 0 -41 18 -67 45 -65 66 -85 62 -142 -24 l-46 -68 26 -68 c14 -37 24 -70 22 -72 -2 -2 -64 -48 -137 -103 -159 -119 -165 -119 -155 -1 8 83 20 101 66 101 36 0 54 22 39 49 -10 20 -50 30 -50 14 0 -5 -11 -21 -25 -38 l-24 -30 -1 86 0 86 103 85 c117 98 167 169 174 246 4 38 1 52 -18 76 -20 25 -27 28 -66 23 -24 -2 -52 -12 -62 -21 -25 -23 -31 -20 -31 17 0 85 -44 167 -106 197 -50 25 -61 25 -100 1z" transform="translate(0,222) scale(0.1,-0.1)" stroke="none" fill="#497DD8"/>

</g>

<g id="3" transform="translate(420.0,0)scale(1,1)">

<path d="M348 633 c-32 -8 -58 -19 -58 -25 0 -47 77 -90 156 -86 l55 3 -5 30 c-7 31 -62 96 -80 94 -6 -1 -37 -8 -68 -16z" transform="translate(0,222) scale(0.1,-0.1)" stroke="none" fill="#497DD8"/>

<path d="M1097 1047 c-43 -38 -50 -49 -68 -121 -12 -46 -16 -83 -11 -88 16 -16 121 -27 177 -18 70 11 108 34 123 72 14 38 9 50 -31 73 -32 18 -32 18 -18 -1 8 -10 2 -7 -14 8 -17 16 -34 46 -40 70 -9 37 -14 43 -40 45 -23 2 -41 -8 -78 -40z" transform="translate(0,222) scale(0.1,-0.1)" stroke="none" fill="#497DD8"/>

<path d="M634 2121 c-42 -26 -71 -91 -81 -181 l-8 -74 -74 -1 c-89 0 -103 -12 -82 -72 25 -69 59 -107 181 -203 l120 -95 0 -82 c0 -56 -4 -83 -12 -86 -10 -4 -10 -7 0 -18 12 -13 17 -143 6 -172 -4 -12 -20 -9 -85 21 -86 38 -93 51 -58 95 17 23 19 35 13 86 l-7 60 -90 81 c-74 66 -95 80 -123 80 -56 0 -79 -33 -87 -125 l-3 -40 -70 -5 c-39 -3 -78 -11 -88 -19 -29 -24 -20 -74 23 -122 79 -90 199 -121 311 -80 l59 22 78 -39 c43 -22 91 -42 106 -46 l28 -7 -2 -112 c-1 -61 4 -206 11 -321 6 -115 9 -225 5 -244 -3 -19 -2 -38 3 -41 5 -3 15 -57 21 -119 11 -122 14 -132 37 -132 12 0 14 16 7 107 -4 60 -7 156 -7 215 -1 60 -5 108 -10 108 -5 0 -6 37 -3 85 4 56 2 85 -4 85 -7 0 -10 38 -7 110 1 61 0 110 -4 110 -5 0 -8 34 -8 75 l0 75 43 21 c65 33 125 76 202 145 l71 62 64 -5 c79 -6 127 11 163 58 25 34 30 49 28 81 -2 24 -41 58 -67 58 -14 0 -41 18 -67 45 -65 66 -85 62 -142 -24 l-46 -68 26 -68 c14 -37 24 -70 22 -72 -2 -2 -64 -48 -137 -103 -159 -119 -165 -119 -155 -1 8 83 20 101 66 101 36 0 54 22 39 49 -10 20 -50 30 -50 14 0 -5 -11 -21 -25 -38 l-24 -30 -1 86 0 86 103 85 c117 98 167 169 174 246 4 38 1 52 -18 76 -20 25 -27 28 -66 23 -24 -2 -52 -12 -62 -21 -25 -23 -31 -20 -31 17 0 85 -44 167 -106 197 -50 25 -61 25 -100 1z" transform="translate(0,222) scale(0.1,-0.1)" stroke="none" fill="#497DD8"/>

</g>

<g id="4" transform="translate(560.0,0)scale(1,1)">

<path d="M348 633 c-32 -8 -58 -19 -58 -25 0 -47 77 -90 156 -86 l55 3 -5 30 c-7 31 -62 96 -80 94 -6 -1 -37 -8 -68 -16z" transform="translate(0,222) scale(0.1,-0.1)" stroke="none" fill="#497DD8"/>

<path d="M1097 1047 c-43 -38 -50 -49 -68 -121 -12 -46 -16 -83 -11 -88 16 -16 121 -27 177 -18 70 11 108 34 123 72 14 38 9 50 -31 73 -32 18 -32 18 -18 -1 8 -10 2 -7 -14 8 -17 16 -34 46 -40 70 -9 37 -14 43 -40 45 -23 2 -41 -8 -78 -40z" transform="translate(0,222) scale(0.1,-0.1)" stroke="none" fill="#497DD8"/>

<path d="M634 2121 c-42 -26 -71 -91 -81 -181 l-8 -74 -74 -1 c-89 0 -103 -12 -82 -72 25 -69 59 -107 181 -203 l120 -95 0 -82 c0 -56 -4 -83 -12 -86 -10 -4 -10 -7 0 -18 12 -13 17 -143 6 -172 -4 -12 -20 -9 -85 21 -86 38 -93 51 -58 95 17 23 19 35 13 86 l-7 60 -90 81 c-74 66 -95 80 -123 80 -56 0 -79 -33 -87 -125 l-3 -40 -70 -5 c-39 -3 -78 -11 -88 -19 -29 -24 -20 -74 23 -122 79 -90 199 -121 311 -80 l59 22 78 -39 c43 -22 91 -42 106 -46 l28 -7 -2 -112 c-1 -61 4 -206 11 -321 6 -115 9 -225 5 -244 -3 -19 -2 -38 3 -41 5 -3 15 -57 21 -119 11 -122 14 -132 37 -132 12 0 14 16 7 107 -4 60 -7 156 -7 215 -1 60 -5 108 -10 108 -5 0 -6 37 -3 85 4 56 2 85 -4 85 -7 0 -10 38 -7 110 1 61 0 110 -4 110 -5 0 -8 34 -8 75 l0 75 43 21 c65 33 125 76 202 145 l71 62 64 -5 c79 -6 127 11 163 58 25 34 30 49 28 81 -2 24 -41 58 -67 58 -14 0 -41 18 -67 45 -65 66 -85 62 -142 -24 l-46 -68 26 -68 c14 -37 24 -70 22 -72 -2 -2 -64 -48 -137 -103 -159 -119 -165 -119 -155 -1 8 83 20 101 66 101 36 0 54 22 39 49 -10 20 -50 30 -50 14 0 -5 -11 -21 -25 -38 l-24 -30 -1 86 0 86 103 85 c117 98 167 169 174 246 4 38 1 52 -18 76 -20 25 -27 28 -66 23 -24 -2 -52 -12 -62 -21 -25 -23 -31 -20 -31 17 0 85 -44 167 -106 197 -50 25 -61 25 -100 1z" transform="translate(0,222) scale(0.1,-0.1)" stroke="none" fill="#497DD8"/>

</g>

</g>
<g id="row2" transform="translate(18,444.0)">
<g id="0" transform="translate(0.0,0)scale(1,1)">

<path d="M348 633 c-32 -8 -58 -19 -58 -25 0 -47 77 -90 156 -86 l55 3 -5 30 c-7 31 -62 96 -80 94 -6 -1 -37 -8 -68 -16z" transform="translate(0,222) scale(0.1,-0.1)" stroke="none" fill="#497DD8"/>

<path d="M1097 1047 c-43 -38 -50 -49 -68 -121 -12 -46 -16 -83 -11 -88 16 -16 121 -27 177 -18 70 11 108 34 123 72 14 38 9 50 -31 73 -32 18 -32 18 -18 -1 8 -10 2 -7 -14 8 -17 16 -34 46 -40 70 -9 37 -14 43 -40 45 -23 2 -41 -8 -78 -40z" transform="translate(0,222) scale(0.1,-0.1)" stroke="none" fill="#497DD8"/>

<path d="M634 2121 c-42 -26 -71 -91 -81 -181 l-8 -74 -74 -1 c-89 0 -103 -12 -82 -72 25 -69 59 -107 181 -203 l120 -95 0 -82 c0 -56 -4 -83 -12 -86 -10 -4 -10 -7 0 -18 12 -13 17 -143 6 -172 -4 -12 -20 -9 -85 21 -86 38 -93 51 -58 95 17 23 19 35 13 86 l-7 60 -90 81 c-74 66 -95 80 -123 80 -56 0 -79 -33 -87 -125 l-3 -40 -70 -5 c-39 -3 -78 -11 -88 -19 -29 -24 -20 -74 23 -122 79 -90 199 -121 311 -80 l59 22 78 -39 c43 -22 91 -42 106 -46 l28 -7 -2 -112 c-1 -61 4 -206 11 -321 6 -115 9 -225 5 -244 -3 -19 -2 -38 3 -41 5 -3 15 -57 21 -119 11 -122 14 -132 37 -132 12 0 14 16 7 107 -4 60 -7 156 -7 215 -1 60 -5 108 -10 108 -5 0 -6 37 -3 85 4 56 2 85 -4 85 -7 0 -10 38 -7 110 1 61 0 110 -4 110 -5 0 -8 34 -8 75 l0 75 43 21 c65 33 125 76 202 145 l71 62 64 -5 c79 -6 127 11 163 58 25 34 30 49 28 81 -2 24 -41 58 -67 58 -14 0 -41 18 -67 45 -65 66 -85 62 -142 -24 l-46 -68 26 -68 c14 -37 24 -70 22 -72 -2 -2 -64 -48 -137 -103 -159 -119 -165 -119 -155 -1 8 83 20 101 66 101 36 0 54 22 39 49 -10 20 -50 30 -50 14 0 -5 -11 -21 -25 -38 l-24 -30 -1 86 0 86 103 85 c117 98 167 169 174 246 4 38 1 52 -18 76 -20 25 -27 28 -66 23 -24 -2 -52 -12 -62 -21 -25 -23 -31 -20 -31 17 0 85 -44 167 -106 197 -50 25 -61 25 -100 1z" transform="translate(0,222) scale(0.1,-0.1)" stroke="none" fill="#497DD8"/>

</g>

<g id="1" transform="translate(140.0,0)scale(1,1)">

<path d="M348 633 c-32 -8 -58 -19 -58 -25 0 -47 77 -90 156 -86 l55 3 -5 30 c-7 31 -62 96 -80 94 -6 -1 -37 -8 -68 -16z" transform="translate(0,222) scale(0.1,-0.1)" stroke="none" fill="#497DD8"/>

<path d="M1097 1047 c-43 -38 -50 -49 -68 -121 -12 -46 -16 -83 -11 -88 16 -16 121 -27 177 -18 70 11 108 34 123 72 14 38 9 50 -31 73 -32 18 -32 18 -18 -1 8 -10 2 -7 -14 8 -17 16 -34 46 -40 70 -9 37 -14 43 -40 45 -23 2 -41 -8 -78 -40z" transform="translate(0,222) scale(0.1,-0.1)" stroke="none" fill="#497DD8"/>

<path d="M634 2121 c-42 -26 -71 -91 -81 -181 l-8 -74 -74 -1 c-89 0 -103 -12 -82 -72 25 -69 59 -107 181 -203 l120 -95 0 -82 c0 -56 -4 -83 -12 -86 -10 -4 -10 -7 0 -18 12 -13 17 -143 6 -172 -4 -12 -20 -9 -85 21 -86 38 -93 51 -58 95 17 23 19 35 13 86 l-7 60 -90 81 c-74 66 -95 80 -123 80 -56 0 -79 -33 -87 -125 l-3 -40 -70 -5 c-39 -3 -78 -11 -88 -19 -29 -24 -20 -74 23 -122 79 -90 199 -121 311 -80 l59 22 78 -39 c43 -22 91 -42 106 -46 l28 -7 -2 -112 c-1 -61 4 -206 11 -321 6 -115 9 -225 5 -244 -3 -19 -2 -38 3 -41 5 -3 15 -57 21 -119 11 -122 14 -132 37 -132 12 0 14 16 7 107 -4 60 -7 156 -7 215 -1 60 -5 108 -10 108 -5 0 -6 37 -3 85 4 56 2 85 -4 85 -7 0 -10 38 -7 110 1 61 0 110 -4 110 -5 0 -8 34 -8 75 l0 75 43 21 c65 33 125 76 202 145 l71 62 64 -5 c79 -6 127 11 163 58 25 34 30 49 28 81 -2 24 -41 58 -67 58 -14 0 -41 18 -67 45 -65 66 -85 62 -142 -24 l-46 -68 26 -68 c14 -37 24 -70 22 -72 -2 -2 -64 -48 -137 -103 -159 -119 -165 -119 -155 -1 8 83 20 101 66 101 36 0 54 22 39 49 -10 20 -50 30 -50 14 0 -5 -11 -21 -25 -38 l-24 -30 -1 86 0 86 103 85 c117 98 167 169 174 246 4 38 1 52 -18 76 -20 25 -27 28 -66 23 -24 -2 -52 -12 -62 -21 -25 -23 -31 -20 -31 17 0 85 -44 167 -106 197 -50 25 -61 25 -100 1z" transform="translate(0,222) scale(0.1,-0.1)" stroke="none" fill="#497DD8"/>

</g>

<g id="2" transform="translate(280.0,0)scale(1,1)">

<path d="M348 633 c-32 -8 -58 -19 -58 -25 0 -47 77 -90 156 -86 l55 3 -5 30 c-7 31 -62 96 -80 94 -6 -1 -37 -8 -68 -16z" transform="translate(0,222) scale(0.1,-0.1)" stroke="none" fill="#497DD8"/>

<path d="M1097 1047 c-43 -38 -50 -49 -68 -121 -12 -46 -16 -83 -11 -88 16 -16 121 -27 177 -18 70 11 108 34 123 72 14 38 9 50 -31 73 -32 18 -32 18 -18 -1 8 -10 2 -7 -14 8 -17 16 -34 46 -40 70 -9 37 -14 43 -40 45 -23 2 -41 -8 -78 -40z" transform="translate(0,222) scale(0.1,-0.1)" stroke="none" fill="#497DD8"/>

<path d="M634 2121 c-42 -26 -71 -91 -81 -181 l-8 -74 -74 -1 c-89 0 -103 -12 -82 -72 25 -69 59 -107 181 -203 l120 -95 0 -82 c0 -56 -4 -83 -12 -86 -10 -4 -10 -7 0 -18 12 -13 17 -143 6 -172 -4 -12 -20 -9 -85 21 -86 38 -93 51 -58 95 17 23 19 35 13 86 l-7 60 -90 81 c-74 66 -95 80 -123 80 -56 0 -79 -33 -87 -125 l-3 -40 -70 -5 c-39 -3 -78 -11 -88 -19 -29 -24 -20 -74 23 -122 79 -90 199 -121 311 -80 l59 22 78 -39 c43 -22 91 -42 106 -46 l28 -7 -2 -112 c-1 -61 4 -206 11 -321 6 -115 9 -225 5 -244 -3 -19 -2 -38 3 -41 5 -3 15 -57 21 -119 11 -122 14 -132 37 -132 12 0 14 16 7 107 -4 60 -7 156 -7 215 -1 60 -5 108 -10 108 -5 0 -6 37 -3 85 4 56 2 85 -4 85 -7 0 -10 38 -7 110 1 61 0 110 -4 110 -5 0 -8 34 -8 75 l0 75 43 21 c65 33 125 76 202 145 l71 62 64 -5 c79 -6 127 11 163 58 25 34 30 49 28 81 -2 24 -41 58 -67 58 -14 0 -41 18 -67 45 -65 66 -85 62 -142 -24 l-46 -68 26 -68 c14 -37 24 -70 22 -72 -2 -2 -64 -48 -137 -103 -159 -119 -165 -119 -155 -1 8 83 20 101 66 101 36 0 54 22 39 49 -10 20 -50 30 -50 14 0 -5 -11 -21 -25 -38 l-24 -30 -1 86 0 86 103 85 c117 98 167 169 174 246 4 38 1 52 -18 76 -20 25 -27 28 -66 23 -24 -2 -52 -12 -62 -21 -25 -23 -31 -20 -31 17 0 85 -44 167 -106 197 -50 25 -61 25 -100 1z" transform="translate(0,222) scale(0.1,-0.1)" stroke="none" fill="#497DD8"/>

</g>

<g id="3" transform="translate(420.0,0)scale(1,1)">

<path d="M348 633 c-32 -8 -58 -19 -58 -25 0 -47 77 -90 156 -86 l55 3 -5 30 c-7 31 -62 96 -80 94 -6 -1 -37 -8 -68 -16z" transform="translate(0,222) scale(0.1,-0.1)" stroke="none" fill="#497DD8"/>

<path d="M1097 1047 c-43 -38 -50 -49 -68 -121 -12 -46 -16 -83 -11 -88 16 -16 121 -27 177 -18 70 11 108 34 123 72 14 38 9 50 -31 73 -32 18 -32 18 -18 -1 8 -10 2 -7 -14 8 -17 16 -34 46 -40 70 -9 37 -14 43 -40 45 -23 2 -41 -8 -78 -40z" transform="translate(0,222) scale(0.1,-0.1)" stroke="none" fill="#497DD8"/>

<path d="M634 2121 c-42 -26 -71 -91 -81 -181 l-8 -74 -74 -1 c-89 0 -103 -12 -82 -72 25 -69 59 -107 181 -203 l120 -95 0 -82 c0 -56 -4 -83 -12 -86 -10 -4 -10 -7 0 -18 12 -13 17 -143 6 -172 -4 -12 -20 -9 -85 21 -86 38 -93 51 -58 95 17 23 19 35 13 86 l-7 60 -90 81 c-74 66 -95 80 -123 80 -56 0 -79 -33 -87 -125 l-3 -40 -70 -5 c-39 -3 -78 -11 -88 -19 -29 -24 -20 -74 23 -122 79 -90 199 -121 311 -80 l59 22 78 -39 c43 -22 91 -42 106 -46 l28 -7 -2 -112 c-1 -61 4 -206 11 -321 6 -115 9 -225 5 -244 -3 -19 -2 -38 3 -41 5 -3 15 -57 21 -119 11 -122 14 -132 37 -132 12 0 14 16 7 107 -4 60 -7 156 -7 215 -1 60 -5 108 -10 108 -5 0 -6 37 -3 85 4 56 2 85 -4 85 -7 0 -10 38 -7 110 1 61 0 110 -4 110 -5 0 -8 34 -8 75 l0 75 43 21 c65 33 125 76 202 145 l71 62 64 -5 c79 -6 127 11 163 58 25 34 30 49 28 81 -2 24 -41 58 -67 58 -14 0 -41 18 -67 45 -65 66 -85 62 -142 -24 l-46 -68 26 -68 c14 -37 24 -70 22 -72 -2 -2 -64 -48 -137 -103 -159 -119 -165 -119 -155 -1 8 83 20 101 66 101 36 0 54 22 39 49 -10 20 -50 30 -50 14 0 -5 -11 -21 -25 -38 l-24 -30 -1 86 0 86 103 85 c117 98 167 169 174 246 4 38 1 52 -18 76 -20 25 -27 28 -66 23 -24 -2 -52 -12 -62 -21 -25 -23 -31 -20 -31 17 0 85 -44 167 -106 197 -50 25 -61 25 -100 1z" transform="translate(0,222) scale(0.1,-0.1)" stroke="none" fill="#497DD8"/>

</g>

<g id="4" transform="translate(560.0,0)scale(1,1)">

<path d="M348 633 c-32 -8 -58 -19 -58 -25 0 -47 77 -90 156 -86 l55 3 -5 30 c-7 31 -62 96 -80 94 -6 -1 -37 -8 -68 -16z" transform="translate(0,222) scale(0.1,-0.1)" stroke="none" fill="#497DD8"/>

<path d="M1097 1047 c-43 -38 -50 -49 -68 -121 -12 -46 -16 -83 -11 -88 16 -16 121 -27 177 -18 70 11 108 34 123 72 14 38 9 50 -31 73 -32 18 -32 18 -18 -1 8 -10 2 -7 -14 8 -17 16 -34 46 -40 70 -9 37 -14 43 -40 45 -23 2 -41 -8 -78 -40z" transform="translate(0,222) scale(0.1,-0.1)" stroke="none" fill="#497DD8"/>

<path d="M634 2121 c-42 -26 -71 -91 -81 -181 l-8 -74 -74 -1 c-89 0 -103 -12 -82 -72 25 -69 59 -107 181 -203 l120 -95 0 -82 c0 -56 -4 -83 -12 -86 -10 -4 -10 -7 0 -18 12 -13 17 -143 6 -172 -4 -12 -20 -9 -85 21 -86 38 -93 51 -58 95 17 23 19 35 13 86 l-7 60 -90 81 c-74 66 -95 80 -123 80 -56 0 -79 -33 -87 -125 l-3 -40 -70 -5 c-39 -3 -78 -11 -88 -19 -29 -24 -20 -74 23 -122 79 -90 199 -121 311 -80 l59 22 78 -39 c43 -22 91 -42 106 -46 l28 -7 -2 -112 c-1 -61 4 -206 11 -321 6 -115 9 -225 5 -244 -3 -19 -2 -38 3 -41 5 -3 15 -57 21 -119 11 -122 14 -132 37 -132 12 0 14 16 7 107 -4 60 -7 156 -7 215 -1 60 -5 108 -10 108 -5 0 -6 37 -3 85 4 56 2 85 -4 85 -7 0 -10 38 -7 110 1 61 0 110 -4 110 -5 0 -8 34 -8 75 l0 75 43 21 c65 33 125 76 202 145 l71 62 64 -5 c79 -6 127 11 163 58 25 34 30 49 28 81 -2 24 -41 58 -67 58 -14 0 -41 18 -67 45 -65 66 -85 62 -142 -24 l-46 -68 26 -68 c14 -37 24 -70 22 -72 -2 -2 -64 -48 -137 -103 -159 -119 -165 -119 -155 -1 8 83 20 101 66 101 36 0 54 22 39 49 -10 20 -50 30 -50 14 0 -5 -11 -21 -25 -38 l-24 -30 -1 86 0 86 103 85 c117 98 167 169 174 246 4 38 1 52 -18 76 -20 25 -27 28 -66 23 -24 -2 -52 -12 -62 -21 -25 -23 -31 -20 -31 17 0 85 -44 167 -106 197 -50 25 -61 25 -100 1z" transform="translate(0,222) scale(0.1,-0.1)" stroke="none" fill="#497DD8"/>

</g>

</g>
<g id="row3" transform="translate(-52,666.0)">
<g id="0" transform="translate(0.0,0)scale(1,1)">

<path d="M348 633 c-32 -8 -58 -19 -58 -25 0 -47 77 -90 156 -86 l55 3 -5 30 c-7 31 -62 96 -80 94 -6 -1 -37 -8 -68 -16z" transform="translate(0,222) scale(0.1,-0.1)" stroke="none" fill="#497DD8"/>

<path d="M1097 1047 c-43 -38 -50 -49 -68 -121 -12 -46 -16 -83 -11 -88 16 -16 121 -27 177 -18 70 11 108 34 123 72 14 38 9 50 -31 73 -32 18 -32 18 -18 -1 8 -10 2 -7 -14 8 -17 16 -34 46 -40 70 -9 37 -14 43 -40 45 -23 2 -41 -8 -78 -40z" transform="translate(0,222) scale(0.1,-0.1)" stroke="none" fill="#497DD8"/>

<path d="M634 2121 c-42 -26 -71 -91 -81 -181 l-8 -74 -74 -1 c-89 0 -103 -12 -82 -72 25 -69 59 -107 181 -203 l120 -95 0 -82 c0 -56 -4 -83 -12 -86 -10 -4 -10 -7 0 -18 12 -13 17 -143 6 -172 -4 -12 -20 -9 -85 21 -86 38 -93 51 -58 95 17 23 19 35 13 86 l-7 60 -90 81 c-74 66 -95 80 -123 80 -56 0 -79 -33 -87 -125 l-3 -40 -70 -5 c-39 -3 -78 -11 -88 -19 -29 -24 -20 -74 23 -122 79 -90 199 -121 311 -80 l59 22 78 -39 c43 -22 91 -42 106 -46 l28 -7 -2 -112 c-1 -61 4 -206 11 -321 6 -115 9 -225 5 -244 -3 -19 -2 -38 3 -41 5 -3 15 -57 21 -119 11 -122 14 -132 37 -132 12 0 14 16 7 107 -4 60 -7 156 -7 215 -1 60 -5 108 -10 108 -5 0 -6 37 -3 85 4 56 2 85 -4 85 -7 0 -10 38 -7 110 1 61 0 110 -4 110 -5 0 -8 34 -8 75 l0 75 43 21 c65 33 125 76 202 145 l71 62 64 -5 c79 -6 127 11 163 58 25 34 30 49 28 81 -2 24 -41 58 -67 58 -14 0 -41 18 -67 45 -65 66 -85 62 -142 -24 l-46 -68 26 -68 c14 -37 24 -70 22 -72 -2 -2 -64 -48 -137 -103 -159 -119 -165 -119 -155 -1 8 83 20 101 66 101 36 0 54 22 39 49 -10 20 -50 30 -50 14 0 -5 -11 -21 -25 -38 l-24 -30 -1 86 0 86 103 85 c117 98 167 169 174 246 4 38 1 52 -18 76 -20 25 -27 28 -66 23 -24 -2 -52 -12 -62 -21 -25 -23 -31 -20 -31 17 0 85 -44 167 -106 197 -50 25 -61 25 -100 1z" transform="translate(0,222) scale(0.1,-0.1)" stroke="none" fill="#497DD8"/>

</g>

<g id="1" transform="translate(140.0,0)scale(1,1)">

<path d="M348 633 c-32 -8 -58 -19 -58 -25 0 -47 77 -90 156 -86 l55 3 -5 30 c-7 31 -62 96 -80 94 -6 -1 -37 -8 -68 -16z" transform="translate(0,222) scale(0.1,-0.1)" stroke="none" fill="#497DD8"/>

<path d="M1097 1047 c-43 -38 -50 -49 -68 -121 -12 -46 -16 -83 -11 -88 16 -16 121 -27 177 -18 70 11 108 34 123 72 14 38 9 50 -31 73 -32 18 -32 18 -18 -1 8 -10 2 -7 -14 8 -17 16 -34 46 -40 70 -9 37 -14 43 -40 45 -23 2 -41 -8 -78 -40z" transform="translate(0,222) scale(0.1,-0.1)" stroke="none" fill="#497DD8"/>

<path d="M634 2121 c-42 -26 -71 -91 -81 -181 l-8 -74 -74 -1 c-89 0 -103 -12 -82 -72 25 -69 59 -107 181 -203 l120 -95 0 -82 c0 -56 -4 -83 -12 -86 -10 -4 -10 -7 0 -18 12 -13 17 -143 6 -172 -4 -12 -20 -9 -85 21 -86 38 -93 51 -58 95 17 23 19 35 13 86 l-7 60 -90 81 c-74 66 -95 80 -123 80 -56 0 -79 -33 -87 -125 l-3 -40 -70 -5 c-39 -3 -78 -11 -88 -19 -29 -24 -20 -74 23 -122 79 -90 199 -121 311 -80 l59 22 78 -39 c43 -22 91 -42 106 -46 l28 -7 -2 -112 c-1 -61 4 -206 11 -321 6 -115 9 -225 5 -244 -3 -19 -2 -38 3 -41 5 -3 15 -57 21 -119 11 -122 14 -132 37 -132 12 0 14 16 7 107 -4 60 -7 156 -7 215 -1 60 -5 108 -10 108 -5 0 -6 37 -3 85 4 56 2 85 -4 85 -7 0 -10 38 -7 110 1 61 0 110 -4 110 -5 0 -8 34 -8 75 l0 75 43 21 c65 33 125 76 202 145 l71 62 64 -5 c79 -6 127 11 163 58 25 34 30 49 28 81 -2 24 -41 58 -67 58 -14 0 -41 18 -67 45 -65 66 -85 62 -142 -24 l-46 -68 26 -68 c14 -37 24 -70 22 -72 -2 -2 -64 -48 -137 -103 -159 -119 -165 -119 -155 -1 8 83 20 101 66 101 36 0 54 22 39 49 -10 20 -50 30 -50 14 0 -5 -11 -21 -25 -38 l-24 -30 -1 86 0 86 103 85 c117 98 167 169 174 246 4 38 1 52 -18 76 -20 25 -27 28 -66 23 -24 -2 -52 -12 -62 -21 -25 -23 -31 -20 -31 17 0 85 -44 167 -106 197 -50 25 -61 25 -100 1z" transform="translate(0,222) scale(0.1,-0.1)" stroke="none" fill="#497DD8"/>

</g>

<g id="2" transform="translate(280.0,0)scale(1,1)">

<path d="M348 633 c-32 -8 -58 -19 -58 -25 0 -47 77 -90 156 -86 l55 3 -5 30 c-7 31 -62 96 -80 94 -6 -1 -37 -8 -68 -16z" transform="translate(0,222) scale(0.1,-0.1)" stroke="none" fill="#497DD8"/>

<path d="M1097 1047 c-43 -38 -50 -49 -68 -121 -12 -46 -16 -83 -11 -88 16 -16 121 -27 177 -18 70 11 108 34 123 72 14 38 9 50 -31 73 -32 18 -32 18 -18 -1 8 -10 2 -7 -14 8 -17 16 -34 46 -40 70 -9 37 -14 43 -40 45 -23 2 -41 -8 -78 -40z" transform="translate(0,222) scale(0.1,-0.1)" stroke="none" fill="#497DD8"/>

<path d="M634 2121 c-42 -26 -71 -91 -81 -181 l-8 -74 -74 -1 c-89 0 -103 -12 -82 -72 25 -69 59 -107 181 -203 l120 -95 0 -82 c0 -56 -4 -83 -12 -86 -10 -4 -10 -7 0 -18 12 -13 17 -143 6 -172 -4 -12 -20 -9 -85 21 -86 38 -93 51 -58 95 17 23 19 35 13 86 l-7 60 -90 81 c-74 66 -95 80 -123 80 -56 0 -79 -33 -87 -125 l-3 -40 -70 -5 c-39 -3 -78 -11 -88 -19 -29 -24 -20 -74 23 -122 79 -90 199 -121 311 -80 l59 22 78 -39 c43 -22 91 -42 106 -46 l28 -7 -2 -112 c-1 -61 4 -206 11 -321 6 -115 9 -225 5 -244 -3 -19 -2 -38 3 -41 5 -3 15 -57 21 -119 11 -122 14 -132 37 -132 12 0 14 16 7 107 -4 60 -7 156 -7 215 -1 60 -5 108 -10 108 -5 0 -6 37 -3 85 4 56 2 85 -4 85 -7 0 -10 38 -7 110 1 61 0 110 -4 110 -5 0 -8 34 -8 75 l0 75 43 21 c65 33 125 76 202 145 l71 62 64 -5 c79 -6 127 11 163 58 25 34 30 49 28 81 -2 24 -41 58 -67 58 -14 0 -41 18 -67 45 -65 66 -85 62 -142 -24 l-46 -68 26 -68 c14 -37 24 -70 22 -72 -2 -2 -64 -48 -137 -103 -159 -119 -165 -119 -155 -1 8 83 20 101 66 101 36 0 54 22 39 49 -10 20 -50 30 -50 14 0 -5 -11 -21 -25 -38 l-24 -30 -1 86 0 86 103 85 c117 98 167 169 174 246 4 38 1 52 -18 76 -20 25 -27 28 -66 23 -24 -2 -52 -12 -62 -21 -25 -23 -31 -20 -31 17 0 85 -44 167 -106 197 -50 25 -61 25 -100 1z" transform="translate(0,222) scale(0.1,-0.1)" stroke="none" fill="#497DD8"/>

</g>

<g id="3" transform="translate(420.0,0)scale(1,1)">

<path d="M348 633 c-32 -8 -58 -19 -58 -25 0 -47 77 -90 156 -86 l55 3 -5 30 c-7 31 -62 96 -80 94 -6 -1 -37 -8 -68 -16z" transform="translate(0,222) scale(0.1,-0.1)" stroke="none" fill="#497DD8"/>

<path d="M1097 1047 c-43 -38 -50 -49 -68 -121 -12 -46 -16 -83 -11 -88 16 -16 121 -27 177 -18 70 11 108 34 123 72 14 38 9 50 -31 73 -32 18 -32 18 -18 -1 8 -10 2 -7 -14 8 -17 16 -34 46 -40 70 -9 37 -14 43 -40 45 -23 2 -41 -8 -78 -40z" transform="translate(0,222) scale(0.1,-0.1)" stroke="none" fill="#497DD8"/>

<path d="M634 2121 c-42 -26 -71 -91 -81 -181 l-8 -74 -74 -1 c-89 0 -103 -12 -82 -72 25 -69 59 -107 181 -203 l120 -95 0 -82 c0 -56 -4 -83 -12 -86 -10 -4 -10 -7 0 -18 12 -13 17 -143 6 -172 -4 -12 -20 -9 -85 21 -86 38 -93 51 -58 95 17 23 19 35 13 86 l-7 60 -90 81 c-74 66 -95 80 -123 80 -56 0 -79 -33 -87 -125 l-3 -40 -70 -5 c-39 -3 -78 -11 -88 -19 -29 -24 -20 -74 23 -122 79 -90 199 -121 311 -80 l59 22 78 -39 c43 -22 91 -42 106 -46 l28 -7 -2 -112 c-1 -61 4 -206 11 -321 6 -115 9 -225 5 -244 -3 -19 -2 -38 3 -41 5 -3 15 -57 21 -119 11 -122 14 -132 37 -132 12 0 14 16 7 107 -4 60 -7 156 -7 215 -1 60 -5 108 -10 108 -5 0 -6 37 -3 85 4 56 2 85 -4 85 -7 0 -10 38 -7 110 1 61 0 110 -4 110 -5 0 -8 34 -8 75 l0 75 43 21 c65 33 125 76 202 145 l71 62 64 -5 c79 -6 127 11 163 58 25 34 30 49 28 81 -2 24 -41 58 -67 58 -14 0 -41 18 -67 45 -65 66 -85 62 -142 -24 l-46 -68 26 -68 c14 -37 24 -70 22 -72 -2 -2 -64 -48 -137 -103 -159 -119 -165 -119 -155 -1 8 83 20 101 66 101 36 0 54 22 39 49 -10 20 -50 30 -50 14 0 -5 -11 -21 -25 -38 l-24 -30 -1 86 0 86 103 85 c117 98 167 169 174 246 4 38 1 52 -18 76 -20 25 -27 28 -66 23 -24 -2 -52 -12 -62 -21 -25 -23 -31 -20 -31 17 0 85 -44 167 -106 197 -50 25 -61 25 -100 1z" transform="translate(0,222) scale(0.1,-0.1)" stroke="none" fill="#497DD8"/>

</g>

<g id="4" transform="translate(560.0,0)scale(1,1)">

<path d="M348 633 c-32 -8 -58 -19 -58 -25 0 -47 77 -90 156 -86 l55 3 -5 30 c-7 31 -62 96 -80 94 -6 -1 -37 -8 -68 -16z" transform="translate(0,222) scale(0.1,-0.1)" stroke="none" fill="#497DD8"/>

<path d="M1097 1047 c-43 -38 -50 -49 -68 -121 -12 -46 -16 -83 -11 -88 16 -16 121 -27 177 -18 70 11 108 34 123 72 14 38 9 50 -31 73 -32 18 -32 18 -18 -1 8 -10 2 -7 -14 8 -17 16 -34 46 -40 70 -9 37 -14 43 -40 45 -23 2 -41 -8 -78 -40z" transform="translate(0,222) scale(0.1,-0.1)" stroke="none" fill="#497DD8"/>

<path d="M634 2121 c-42 -26 -71 -91 -81 -181 l-8 -74 -74 -1 c-89 0 -103 -12 -82 -72 25 -69 59 -107 181 -203 l120 -95 0 -82 c0 -56 -4 -83 -12 -86 -10 -4 -10 -7 0 -18 12 -13 17 -143 6 -172 -4 -12 -20 -9 -85 21 -86 38 -93 51 -58 95 17 23 19 35 13 86 l-7 60 -90 81 c-74 66 -95 80 -123 80 -56 0 -79 -33 -87 -125 l-3 -40 -70 -5 c-39 -3 -78 -11 -88 -19 -29 -24 -20 -74 23 -122 79 -90 199 -121 311 -80 l59 22 78 -39 c43 -22 91 -42 106 -46 l28 -7 -2 -112 c-1 -61 4 -206 11 -321 6 -115 9 -225 5 -244 -3 -19 -2 -38 3 -41 5 -3 15 -57 21 -119 11 -122 14 -132 37 -132 12 0 14 16 7 107 -4 60 -7 156 -7 215 -1 60 -5 108 -10 108 -5 0 -6 37 -3 85 4 56 2 85 -4 85 -7 0 -10 38 -7 110 1 61 0 110 -4 110 -5 0 -8 34 -8 75 l0 75 43 21 c65 33 125 76 202 145 l71 62 64 -5 c79 -6 127 11 163 58 25 34 30 49 28 81 -2 24 -41 58 -67 58 -14 0 -41 18 -67 45 -65 66 -85 62 -142 -24 l-46 -68 26 -68 c14 -37 24 -70 22 -72 -2 -2 -64 -48 -137 -103 -159 -119 -165 -119 -155 -1 8 83 20 101 66 101 36 0 54 22 39 49 -10 20 -50 30 -50 14 0 -5 -11 -21 -25 -38 l-24 -30 -1 86 0 86 103 85 c117 98 167 169 174 246 4 38 1 52 -18 76 -20 25 -27 28 -66 23 -24 -2 -52 -12 -62 -21 -25 -23 -31 -20 -31 17 0 85 -44 167 -106 197 -50 25 -61 25 -100 1z" transform="translate(0,222) scale(0.1,-0.1)" stroke="none" fill="#497DD8"/>

</g>

</g>
</svg>