<?xml version="1.0" standalone="no"?>
<!DOCTYPE svg PUBLIC "-//W3C//DTD SVG 20010904//EN"
 "http://www.w3.org/TR/2001/REC-SVG-20010904/DTD/svg10.dtd">
<svg version="1.0" xmlns="http://www.w3.org/2000/svg" 
width="74.000000pt" height="147.000000pt" viewBox="0 0 74.000000 147.000000"
preserveAspectRatio = "xMidYMid meet" >
<metadata>
Created by ZoeQU, 2022
</metadata>
<rect width="74.000000" height="147.000000" fill="#3B2B1F"/>
<path d="M386 1359 c-31 -24 -32 -41 -11 -214 15 -128 18 -366 6 -505 -5 -51 -4 -90 2 -98 13 -17 102 -15 136 2 60 31 73 86 50 211 -11 58 -10 68 20 165 48 160 43 190 -49 286 -47 48 -61 71 -66 103 -4 26 -15 47 -28 56 -26 19 -28 19 -60 -6z" transform="translate(0.000000,147.000000) scale(0.100000,-0.100000)" stroke="none" fill="#DF9359"/>

<path d="M235 740 c-71 -28 -116 -69 -156 -142 -32 -58 -34 -69 -34 -153 0 -86 2 -92 33 -138 63 -90 234 -200 365 -234 57 -15 73 -16 114 -5 164 43 187 196 68 454 -33 71 -50 87 -65 59 -16 -31 -63 -51 -118 -51 -51 0 -76 15 -68 41 2 8 7 53 10 102 l6 87 -52 -1 c-29 0 -75 -9 -103 -19z" transform="translate(0.000000,147.000000) scale(0.100000,-0.100000)" stroke="none" fill="#845735"/>

</svg>