<?xml version="1.0" standalone="no"?>
<!DOCTYPE svg PUBLIC "-//W3C//DTD SVG 20010904//EN"
 "http://www.w3.org/TR/2001/REC-SVG-20010904/DTD/svg10.dtd">
<svg version="1.0" xmlns="http://www.w3.org/2000/svg" 
width="192.000000pt" height="181.000000pt" viewBox="0 0 192.000000 181.000000"
preserveAspectRatio = "xMidYMid meet" >
<metadata>
Created by ZoeQU, 2022
</metadata>
<rect width="192.000000" height="181.000000" fill="#394E52"/>
<path d="M901 1303 c-45 -96 -9 -185 67 -168 64 14 61 105 -7 177 l-37 40 -23 -49z" transform="translate(0.000000,181.000000) scale(0.100000,-0.100000)" stroke="none" fill="#B28D77"/>

<path d="M866 1709 c-32 -11 -84 -37 -114 -57 -106 -71 -138 -89 -207 -116 -170 -67 -213 -123 -180 -233 15 -49 72 -140 82 -130 3 3 -4 16 -16 28 -17 18 -21 36 -21 88 0 109 44 163 170 210 36 14 80 43 125 84 94 85 127 106 193 127 31 10 50 18 42 19 -8 0 -42 -9 -74 -20z" transform="translate(0.000000,181.000000) scale(0.100000,-0.100000)" stroke="none" fill="#3C6F7D"/>

<path d="M1478 320 c-27 -11 -94 -31 -150 -45 -113 -28 -267 -85 -311 -113 l-28 -19 74 5 c54 3 98 -1 164 -17 143 -33 176 -29 241 32 43 41 94 179 65 176 -5 0 -29 -9 -55 -19z" transform="translate(0.000000,181.000000) scale(0.100000,-0.100000)" stroke="none" fill="#2B3032"/>

<path d="M1631 478 c-42 -48 -110 -84 -176 -93 -186 -25 -300 -65 -440 -157 -39 -26 -88 -53 -110 -62 -48 -18 -145 -36 -196 -36 -47 0 -131 27 -142 46 -4 8 -14 14 -22 14 -21 0 53 -69 99 -92 55 -28 138 -34 214 -14 35 9 73 23 85 31 12 8 30 15 40 15 10 0 16 4 13 9 -13 21 167 95 332 136 56 14 125 34 153 45 60 24 56 24 62 3 4 -14 5 -14 6 3 0 12 16 31 34 44 40 27 74 74 87 119 11 40 3 38 -39 -11z" transform="translate(0.000000,181.000000) scale(0.100000,-0.100000)" stroke="none" fill="#3C6F7D"/>

<path d="M1499 1174 c-18 -20 -58 -50 -86 -66 -29 -16 -53 -36 -53 -44 0 -18 5 -18 34 1 13 9 46 18 73 22 131 15 200 -70 159 -194 -26 -78 -73 -116 -212 -168 -85 -32 -150 -69 -158 -91 -5 -13 -2 -15 16 -10 13 3 85 13 162 21 212 22 280 66 293 191 6 54 10 61 29 47 5 -5 1 0 -9 9 -18 17 -18 19 2 64 59 133 -9 220 -166 212 -40 -2 -73 -1 -73 1 0 2 7 13 17 23 30 33 7 19 -28 -18z" transform="translate(0.000000,181.000000) scale(0.100000,-0.100000)" stroke="none" fill="#3C6F7D"/>

<path d="M853 1548 c-33 -16 -48 -61 -33 -99 15 -36 107 -112 126 -105 7 3 18 -2 24 -10 7 -8 10 -14 7 -14 -4 0 5 -21 18 -46 44 -83 26 -144 -44 -144 -39 0 -81 38 -81 74 0 14 5 46 12 71 10 38 10 47 -3 61 -14 13 -23 11 -90 -23 -86 -43 -157 -110 -192 -179 -25 -49 -50 -148 -47 -181 4 -37 0 -63 -11 -63 -6 0 -7 6 -2 13 4 6 -11 -3 -34 -20 -22 -18 -46 -33 -52 -33 -7 0 -11 34 -11 100 l0 100 -35 0 -35 0 0 -90 0 -91 -29 16 c-69 35 -82 118 -32 196 25 40 45 55 111 83 8 3 2 4 -15 0 -32 -6 -115 -54 -115 -66 0 -5 -6 -8 -13 -8 -39 0 -89 -100 -88 -173 1 -57 10 -75 65 -135 22 -25 36 -47 30 -49 -5 -2 -38 -20 -73 -41 -85 -50 -157 -154 -114 -165 17 -4 17 -5 1 -6 -20 -1 -26 -41 -7 -41 8 0 8 -4 2 -12 -14 -19 -11 -33 15 -67 30 -41 65 -57 140 -66 38 -4 62 -12 62 -19 0 -7 7 -21 16 -32 15 -18 15 -18 5 3 -21 42 -14 48 78 71 103 26 192 28 276 6 33 -8 79 -20 101 -26 51 -13 103 -4 139 23 14 12 24 23 22 25 -2 3 -26 0 -53 -6 -51 -12 -129 -3 -248 26 -54 14 -184 19 -248 11 -16 -3 -28 0 -28 5 0 5 -9 4 -20 -2 -14 -7 -26 -8 -39 0 -11 5 -21 6 -23 1 -2 -4 -19 -2 -38 5 l-35 12 30 1 c18 1 25 4 18 9 -7 4 -13 24 -15 45 -2 37 -14 44 -65 38 -16 -2 -16 8 -2 65 9 35 17 45 38 50 56 12 67 17 88 37 18 16 20 23 11 34 -9 11 -9 17 3 24 25 16 47 10 51 -13 2 -16 11 -24 28 -26 20 -2 22 -1 10 7 -12 9 -11 11 9 11 17 0 22 4 17 15 -7 19 19 31 37 18 6 -5 26 -9 42 -8 17 0 36 -3 43 -8 9 -7 11 -5 5 8 -5 14 -3 17 10 12 29 -11 19 20 -13 45 -30 24 -31 24 -11 42 19 17 20 17 40 -22 11 -23 26 -44 32 -47 7 -5 1 -17 -16 -35 l-27 -28 23 -13 c23 -12 23 -11 9 6 -14 17 -13 18 22 12 21 -3 57 -19 80 -35 65 -44 144 -82 173 -82 35 0 93 38 179 119 51 47 88 72 122 83 47 15 47 15 25 28 -32 16 -92 8 -201 -30 -132 -45 -174 -51 -273 -36 -48 7 -88 15 -90 17 -31 53 -31 51 12 44 56 -9 53 9 -4 25 -25 7 -48 17 -52 23 -4 7 1 8 13 3 10 -4 30 -10 44 -12 l25 -6 0 104 c0 89 3 110 24 153 l24 50 7 -45 c7 -54 24 -82 61 -104 39 -23 53 -21 135 24 48 27 91 43 126 47 29 3 65 12 79 19 53 27 76 130 44 198 -21 44 -86 83 -151 92 -68 8 -80 18 -96 79 -12 52 -33 85 -52 84 -6 0 -21 -5 -33 -11z m-621 -657 c2 -4 16 -16 32 -29 34 -26 31 -28 -13 -6 -28 14 -52 48 -51 72 1 6 26 -23 32 -37z m72 4 c11 -8 16 -18 11 -22 -4 -5 -10 -2 -12 5 -3 7 -16 17 -29 22 -13 5 -24 14 -24 20 0 12 19 3 54 -25z m293 18 c0 -7 -6 -13 -14 -13 -7 0 -13 6 -13 13 0 8 6 14 13 14 8 0 14 -6 14 -14z m-47 -42 c0 -4 -3 -11 -7 -14 -8 -9 -34 13 -28 24 6 9 35 1 35 -10z m-105 -52 c51 -9 85 -26 85 -43 0 -7 -120 -7 -142 0 -11 3 -18 15 -18 30 0 28 -2 27 75 13z m-210 -318 c7 -23 -3 -51 -20 -51 -16 0 -48 47 -40 60 11 17 53 11 60 -9z m-113 -36 c3 -16 1 -25 -7 -25 -8 0 -10 9 -7 25 2 14 6 25 7 25 1 0 5 -11 7 -25z" transform="translate(0.000000,181.000000) scale(0.100000,-0.100000)" stroke="none" fill="#3C6F7D"/>

<path d="M883 1706 c-51 -17 -89 -42 -178 -123 -45 -41 -89 -70 -125 -84 -126 -47 -170 -101 -170 -210 0 -51 4 -70 20 -87 11 -12 20 -23 20 -26 0 -2 -17 -10 -37 -17 -56 -18 -81 -37 -108 -84 -29 -49 -33 -119 -9 -153 8 -12 28 -29 45 -37 l29 -16 0 91 0 90 35 0 35 0 0 -100 c0 -66 4 -100 11 -100 6 0 30 15 52 33 23 17 38 26 34 20 -5 -7 -4 -13 2 -13 11 0 15 26 11 63 -3 33 22 132 47 181 35 69 106 136 192 179 78 40 101 38 101 -7 1 -18 3 -18 16 8 16 28 15 28 -34 75 -27 25 -53 56 -57 69 -10 34 12 78 47 93 39 16 57 -2 75 -73 16 -64 28 -74 97 -82 65 -9 130 -48 151 -92 32 -68 9 -171 -44 -198 -14 -7 -50 -16 -79 -19 -35 -4 -78 -20 -126 -47 -82 -45 -96 -47 -135 -24 -37 22 -54 50 -61 104 l-7 45 -24 -50 c-21 -43 -24 -64 -24 -153 l0 -104 -25 6 c-14 2 -34 8 -44 12 -12 5 -17 4 -13 -3 4 -6 27 -16 52 -23 57 -16 60 -34 4 -25 -43 7 -43 9 -12 -44 2 -2 42 -10 90 -17 99 -15 141 -9 273 36 109 38 169 46 201 30 22 -13 22 -13 -25 -28 -34 -11 -71 -36 -122 -83 -86 -81 -144 -119 -179 -119 -29 0 -108 38 -173 82 -23 16 -59 32 -80 35 -35 6 -36 5 -22 -12 14 -17 14 -18 -9 -6 l-23 13 27 28 c17 18 23 30 16 35 -6 3 -21 24 -32 47 -20 39 -21 39 -40 22 -20 -18 -19 -18 11 -42 32 -25 42 -56 13 -45 -13 5 -15 2 -10 -12 6 -13 4 -15 -5 -8 -7 5 -26 8 -43 8 -16 -1 -36 3 -42 8 -18 13 -44 1 -37 -18 5 -11 0 -15 -17 -15 -20 0 -21 -2 -9 -11 12 -8 10 -9 -10 -7 -17 2 -26 10 -28 26 -4 23 -26 29 -51 13 -12 -7 -12 -13 -3 -24 15 -18 -20 -53 -63 -62 -16 -4 -37 -9 -46 -11 -10 -3 -21 -23 -28 -49 -14 -56 -14 -66 1 -64 52 6 64 -1 66 -38 2 -21 8 -41 15 -45 7 -5 0 -8 -18 -9 l-30 -1 35 -12 c19 -7 36 -9 38 -5 2 5 12 4 23 -1 13 -8 25 -7 39 0 11 6 20 7 20 2 0 -5 12 -8 28 -5 64 8 194 3 248 -11 119 -29 197 -38 248 -26 27 6 51 9 53 6 2 -2 -8 -13 -22 -25 -36 -27 -88 -36 -139 -23 -22 6 -68 18 -101 26 -84 22 -173 20 -276 -6 -95 -23 -100 -28 -74 -78 31 -59 126 -108 190 -96 24 5 36 2 42 -8 11 -19 95 -46 142 -46 51 0 148 18 196 36 22 9 71 36 110 62 140 92 254 132 440 157 66 9 133 44 177 93 20 22 46 43 58 47 36 11 102 77 121 120 22 48 24 113 5 158 -13 31 -62 87 -76 87 -4 0 -10 -24 -13 -54 -13 -125 -81 -169 -293 -191 -77 -8 -149 -18 -162 -21 -18 -5 -21 -3 -16 10 8 22 73 59 158 91 139 52 186 90 212 168 41 124 -28 209 -159 194 -27 -4 -60 -13 -73 -22 -29 -19 -34 -19 -34 -1 0 8 24 27 53 44 62 35 137 113 137 143 0 13 -17 36 -42 58 -84 72 -106 100 -128 165 -26 78 -48 108 -96 131 -46 22 -131 22 -172 1 l-31 -16 -23 42 c-42 74 -98 99 -175 74z m-463 -1040 c0 -3 -4 -8 -10 -11 -5 -3 -10 -1 -10 4 0 6 5 11 10 11 6 0 10 -2 10 -4z m150 -136 c8 -5 11 -12 7 -16 -3 -4 -13 -1 -21 5 -11 9 -16 9 -21 0 -8 -12 11 -29 32 -29 6 0 13 -6 16 -12 8 -24 -5 -38 -34 -38 -21 0 -29 5 -28 18 0 10 3 12 6 5 7 -18 43 -16 43 2 0 8 -11 17 -25 21 -36 9 -32 48 5 53 3 0 12 -3 20 -9z m-82 -12 c24 -24 13 -38 -29 -38 -28 0 -39 -4 -36 -12 2 -7 18 -12 36 -12 17 1 28 -2 25 -7 -9 -15 -51 -10 -68 7 -19 18 -20 28 -6 55 12 22 59 26 78 7z m-172 -76 c-4 -3 -14 2 -24 12 -16 18 -16 18 6 6 13 -6 21 -14 18 -18z" transform="translate(0.000000,181.000000) scale(0.100000,-0.100000)" stroke="none" fill="#2B3032"/>

</svg>