<?xml version="1.0" standalone="no"?>
<!DOCTYPE svg PUBLIC "-//W3C//DTD SVG 20010904//EN"
 "http://www.w3.org/TR/2001/REC-SVG-20010904/DTD/svg10.dtd">
<svg version="1.0" xmlns="http://www.w3.org/2000/svg" width="692pt" height="456pt" viewBox="0 0 692 456" preserveAspectRatio = "xMidYMid meet" >
<metadata>
Created by ZoeQu, written in 2022
</metadata>
<rect width="692" height="456" fill="#F4A183"/>
<g id="row0" transform="translate(23,0.0)">
<g id="0" transform="translate(0.0,0)scale(1,1)">

<path d="M838 669 c-39 -22 -10 -69 41 -69 16 0 21 6 21 28 0 45 -26 62 -62 41z" transform="translate(0,114) scale(0.1,-0.1)" stroke="none" fill="#936C3F"/>

<path d="M1108 448 c-15 -48 -15 -55 -1 -70 19 -21 33 -15 33 14 0 15 4 18 18 13 50 -19 53 4 5 55 l-38 42 -17 -54z" transform="translate(0,114) scale(0.1,-0.1)" stroke="none" fill="#FBD984"/>

<path d="M634 229 c-8 -13 27 -89 47 -99 10 -6 37 -10 61 -10 40 0 41 1 22 14 -13 10 -21 27 -22 47 0 17 -3 34 -6 37 -10 9 -97 19 -102 11z" transform="translate(0,114) scale(0.1,-0.1)" stroke="none" fill="#FBD984"/>

<path d="M677 689 c-26 -15 -23 -73 6 -96 13 -10 22 -24 19 -31 -5 -15 35 -31 60 -24 22 5 24 38 2 50 -13 7 -14 13 -5 30 17 33 2 53 -59 78 -3 1 -13 -2 -23 -7z" transform="translate(0,114) scale(0.1,-0.1)" stroke="none" fill="#936C3F"/>

<path d="M462 580 c-37 -35 -23 -58 24 -40 22 9 31 7 49 -10 30 -28 100 -28 115 0 24 45 -41 84 -102 61 -17 -6 -29 -7 -33 -1 -10 16 -29 12 -53 -10z" transform="translate(0,114) scale(0.1,-0.1)" stroke="none" fill="#936C3F"/>

<path d="M893 517 c-45 -20 -38 -70 17 -125 34 -34 45 -38 55 -22 5 8 11 7 21 -1 28 -23 26 19 -5 80 -35 68 -55 84 -88 68z" transform="translate(0,114) scale(0.1,-0.1)" stroke="none" fill="#FBD984"/>

<path d="M1247 1070 c-58 -10 -147 -52 -178 -84 -12 -13 -35 -60 -51 -106 -47 -133 -91 -183 -156 -178 -16 2 -21 7 -17 18 5 12 4 13 -6 3 -7 -7 -22 -13 -33 -13 -17 0 -18 -2 -6 -10 12 -7 12 -12 2 -22 -10 -10 -14 -9 -18 9 -7 25 -23 33 -84 39 -25 3 -51 7 -58 10 -7 2 -11 0 -8 -5 7 -11 -22 -23 -36 -14 -6 3 -8 2 -5 -4 3 -5 -22 -22 -55 -37 -34 -16 -73 -43 -87 -60 -14 -17 -44 -48 -66 -70 l-39 -39 -103 7 c-57 4 -115 11 -130 17 -14 5 -28 7 -31 5 -21 -21 160 -201 258 -257 107 -60 110 -63 110 -125 0 -55 0 -55 43 -74 23 -11 58 -20 77 -20 l35 0 -32 22 c-34 24 -40 45 -23 76 5 9 16 34 24 55 14 34 33 46 50 30 9 -9 25 -12 126 -19 162 -12 260 26 311 119 21 39 28 45 39 34 12 -10 12 -9 3 3 -9 12 -8 28 5 68 15 43 20 50 31 40 11 -11 11 -10 1 8 -14 24 3 89 48 179 43 88 41 87 164 79 118 -7 128 -2 86 44 l-23 25 25 -6 c14 -3 38 -9 54 -13 22 -5 27 -4 21 6 -6 9 1 11 30 8 76 -9 120 75 80 152 -41 79 -221 126 -378 100z m187 -125 c16 -12 22 -12 34 -2 12 10 14 9 10 -3 -7 -23 -42 -23 -63 0 -21 23 -9 26 19 5z m-84 -40 c16 -19 5 -47 -16 -43 -27 5 -42 37 -24 48 20 13 26 12 40 -5z m-618 -224 c33 -17 41 -36 27 -63 -9 -17 -8 -23 5 -30 22 -12 20 -45 -2 -50 -25 -7 -65 9 -60 24 3 7 -6 21 -19 31 -29 23 -32 81 -6 96 10 5 20 8 23 7 3 -1 17 -8 32 -15z m-117 -32 c0 -28 -36 -39 -61 -19 -21 18 -17 27 14 38 37 14 47 10 47 -19z m273 19 c7 -7 12 -25 12 -40 0 -22 -5 -28 -21 -28 -51 0 -80 47 -41 69 23 14 36 13 50 -1z m-73 -67 c0 -8 -4 -16 -10 -18 -16 -5 -38 14 -30 26 9 16 40 9 40 -8z m-300 -11 c4 -6 16 -5 33 1 61 23 126 -16 102 -61 -15 -28 -85 -28 -115 0 -18 17 -27 19 -49 10 -47 -18 -61 5 -24 40 24 22 43 26 53 10z m466 -141 c31 -61 33 -103 5 -80 -10 8 -16 9 -21 1 -10 -16 -21 -12 -55 22 -55 55 -62 105 -17 125 33 16 53 0 88 -68z m-497 50 c-3 -5 -10 -7 -15 -3 -5 3 -7 10 -3 15 3 5 10 7 15 3 5 -3 7 -10 3 -15z" transform="translate(0,114) scale(0.1,-0.1)" stroke="none" fill="#BED3B8"/>

</g>

<g id="1" transform="translate(173.0,0)scale(1,1)">

<path d="M838 669 c-39 -22 -10 -69 41 -69 16 0 21 6 21 28 0 45 -26 62 -62 41z" transform="translate(0,114) scale(0.1,-0.1)" stroke="none" fill="#936C3F"/>

<path d="M1108 448 c-15 -48 -15 -55 -1 -70 19 -21 33 -15 33 14 0 15 4 18 18 13 50 -19 53 4 5 55 l-38 42 -17 -54z" transform="translate(0,114) scale(0.1,-0.1)" stroke="none" fill="#FBD984"/>

<path d="M634 229 c-8 -13 27 -89 47 -99 10 -6 37 -10 61 -10 40 0 41 1 22 14 -13 10 -21 27 -22 47 0 17 -3 34 -6 37 -10 9 -97 19 -102 11z" transform="translate(0,114) scale(0.1,-0.1)" stroke="none" fill="#FBD984"/>

<path d="M677 689 c-26 -15 -23 -73 6 -96 13 -10 22 -24 19 -31 -5 -15 35 -31 60 -24 22 5 24 38 2 50 -13 7 -14 13 -5 30 17 33 2 53 -59 78 -3 1 -13 -2 -23 -7z" transform="translate(0,114) scale(0.1,-0.1)" stroke="none" fill="#936C3F"/>

<path d="M462 580 c-37 -35 -23 -58 24 -40 22 9 31 7 49 -10 30 -28 100 -28 115 0 24 45 -41 84 -102 61 -17 -6 -29 -7 -33 -1 -10 16 -29 12 -53 -10z" transform="translate(0,114) scale(0.1,-0.1)" stroke="none" fill="#936C3F"/>

<path d="M893 517 c-45 -20 -38 -70 17 -125 34 -34 45 -38 55 -22 5 8 11 7 21 -1 28 -23 26 19 -5 80 -35 68 -55 84 -88 68z" transform="translate(0,114) scale(0.1,-0.1)" stroke="none" fill="#FBD984"/>

<path d="M1247 1070 c-58 -10 -147 -52 -178 -84 -12 -13 -35 -60 -51 -106 -47 -133 -91 -183 -156 -178 -16 2 -21 7 -17 18 5 12 4 13 -6 3 -7 -7 -22 -13 -33 -13 -17 0 -18 -2 -6 -10 12 -7 12 -12 2 -22 -10 -10 -14 -9 -18 9 -7 25 -23 33 -84 39 -25 3 -51 7 -58 10 -7 2 -11 0 -8 -5 7 -11 -22 -23 -36 -14 -6 3 -8 2 -5 -4 3 -5 -22 -22 -55 -37 -34 -16 -73 -43 -87 -60 -14 -17 -44 -48 -66 -70 l-39 -39 -103 7 c-57 4 -115 11 -130 17 -14 5 -28 7 -31 5 -21 -21 160 -201 258 -257 107 -60 110 -63 110 -125 0 -55 0 -55 43 -74 23 -11 58 -20 77 -20 l35 0 -32 22 c-34 24 -40 45 -23 76 5 9 16 34 24 55 14 34 33 46 50 30 9 -9 25 -12 126 -19 162 -12 260 26 311 119 21 39 28 45 39 34 12 -10 12 -9 3 3 -9 12 -8 28 5 68 15 43 20 50 31 40 11 -11 11 -10 1 8 -14 24 3 89 48 179 43 88 41 87 164 79 118 -7 128 -2 86 44 l-23 25 25 -6 c14 -3 38 -9 54 -13 22 -5 27 -4 21 6 -6 9 1 11 30 8 76 -9 120 75 80 152 -41 79 -221 126 -378 100z m187 -125 c16 -12 22 -12 34 -2 12 10 14 9 10 -3 -7 -23 -42 -23 -63 0 -21 23 -9 26 19 5z m-84 -40 c16 -19 5 -47 -16 -43 -27 5 -42 37 -24 48 20 13 26 12 40 -5z m-618 -224 c33 -17 41 -36 27 -63 -9 -17 -8 -23 5 -30 22 -12 20 -45 -2 -50 -25 -7 -65 9 -60 24 3 7 -6 21 -19 31 -29 23 -32 81 -6 96 10 5 20 8 23 7 3 -1 17 -8 32 -15z m-117 -32 c0 -28 -36 -39 -61 -19 -21 18 -17 27 14 38 37 14 47 10 47 -19z m273 19 c7 -7 12 -25 12 -40 0 -22 -5 -28 -21 -28 -51 0 -80 47 -41 69 23 14 36 13 50 -1z m-73 -67 c0 -8 -4 -16 -10 -18 -16 -5 -38 14 -30 26 9 16 40 9 40 -8z m-300 -11 c4 -6 16 -5 33 1 61 23 126 -16 102 -61 -15 -28 -85 -28 -115 0 -18 17 -27 19 -49 10 -47 -18 -61 5 -24 40 24 22 43 26 53 10z m466 -141 c31 -61 33 -103 5 -80 -10 8 -16 9 -21 1 -10 -16 -21 -12 -55 22 -55 55 -62 105 -17 125 33 16 53 0 88 -68z m-497 50 c-3 -5 -10 -7 -15 -3 -5 3 -7 10 -3 15 3 5 10 7 15 3 5 -3 7 -10 3 -15z" transform="translate(0,114) scale(0.1,-0.1)" stroke="none" fill="#BED3B8"/>

</g>

<g id="2" transform="translate(346.0,0)scale(1,1)">

<path d="M838 669 c-39 -22 -10 -69 41 -69 16 0 21 6 21 28 0 45 -26 62 -62 41z" transform="translate(0,114) scale(0.1,-0.1)" stroke="none" fill="#936C3F"/>

<path d="M1108 448 c-15 -48 -15 -55 -1 -70 19 -21 33 -15 33 14 0 15 4 18 18 13 50 -19 53 4 5 55 l-38 42 -17 -54z" transform="translate(0,114) scale(0.1,-0.1)" stroke="none" fill="#FBD984"/>

<path d="M634 229 c-8 -13 27 -89 47 -99 10 -6 37 -10 61 -10 40 0 41 1 22 14 -13 10 -21 27 -22 47 0 17 -3 34 -6 37 -10 9 -97 19 -102 11z" transform="translate(0,114) scale(0.1,-0.1)" stroke="none" fill="#FBD984"/>

<path d="M677 689 c-26 -15 -23 -73 6 -96 13 -10 22 -24 19 -31 -5 -15 35 -31 60 -24 22 5 24 38 2 50 -13 7 -14 13 -5 30 17 33 2 53 -59 78 -3 1 -13 -2 -23 -7z" transform="translate(0,114) scale(0.1,-0.1)" stroke="none" fill="#936C3F"/>

<path d="M462 580 c-37 -35 -23 -58 24 -40 22 9 31 7 49 -10 30 -28 100 -28 115 0 24 45 -41 84 -102 61 -17 -6 -29 -7 -33 -1 -10 16 -29 12 -53 -10z" transform="translate(0,114) scale(0.1,-0.1)" stroke="none" fill="#936C3F"/>

<path d="M893 517 c-45 -20 -38 -70 17 -125 34 -34 45 -38 55 -22 5 8 11 7 21 -1 28 -23 26 19 -5 80 -35 68 -55 84 -88 68z" transform="translate(0,114) scale(0.1,-0.1)" stroke="none" fill="#FBD984"/>

<path d="M1247 1070 c-58 -10 -147 -52 -178 -84 -12 -13 -35 -60 -51 -106 -47 -133 -91 -183 -156 -178 -16 2 -21 7 -17 18 5 12 4 13 -6 3 -7 -7 -22 -13 -33 -13 -17 0 -18 -2 -6 -10 12 -7 12 -12 2 -22 -10 -10 -14 -9 -18 9 -7 25 -23 33 -84 39 -25 3 -51 7 -58 10 -7 2 -11 0 -8 -5 7 -11 -22 -23 -36 -14 -6 3 -8 2 -5 -4 3 -5 -22 -22 -55 -37 -34 -16 -73 -43 -87 -60 -14 -17 -44 -48 -66 -70 l-39 -39 -103 7 c-57 4 -115 11 -130 17 -14 5 -28 7 -31 5 -21 -21 160 -201 258 -257 107 -60 110 -63 110 -125 0 -55 0 -55 43 -74 23 -11 58 -20 77 -20 l35 0 -32 22 c-34 24 -40 45 -23 76 5 9 16 34 24 55 14 34 33 46 50 30 9 -9 25 -12 126 -19 162 -12 260 26 311 119 21 39 28 45 39 34 12 -10 12 -9 3 3 -9 12 -8 28 5 68 15 43 20 50 31 40 11 -11 11 -10 1 8 -14 24 3 89 48 179 43 88 41 87 164 79 118 -7 128 -2 86 44 l-23 25 25 -6 c14 -3 38 -9 54 -13 22 -5 27 -4 21 6 -6 9 1 11 30 8 76 -9 120 75 80 152 -41 79 -221 126 -378 100z m187 -125 c16 -12 22 -12 34 -2 12 10 14 9 10 -3 -7 -23 -42 -23 -63 0 -21 23 -9 26 19 5z m-84 -40 c16 -19 5 -47 -16 -43 -27 5 -42 37 -24 48 20 13 26 12 40 -5z m-618 -224 c33 -17 41 -36 27 -63 -9 -17 -8 -23 5 -30 22 -12 20 -45 -2 -50 -25 -7 -65 9 -60 24 3 7 -6 21 -19 31 -29 23 -32 81 -6 96 10 5 20 8 23 7 3 -1 17 -8 32 -15z m-117 -32 c0 -28 -36 -39 -61 -19 -21 18 -17 27 14 38 37 14 47 10 47 -19z m273 19 c7 -7 12 -25 12 -40 0 -22 -5 -28 -21 -28 -51 0 -80 47 -41 69 23 14 36 13 50 -1z m-73 -67 c0 -8 -4 -16 -10 -18 -16 -5 -38 14 -30 26 9 16 40 9 40 -8z m-300 -11 c4 -6 16 -5 33 1 61 23 126 -16 102 -61 -15 -28 -85 -28 -115 0 -18 17 -27 19 -49 10 -47 -18 -61 5 -24 40 24 22 43 26 53 10z m466 -141 c31 -61 33 -103 5 -80 -10 8 -16 9 -21 1 -10 -16 -21 -12 -55 22 -55 55 -62 105 -17 125 33 16 53 0 88 -68z m-497 50 c-3 -5 -10 -7 -15 -3 -5 3 -7 10 -3 15 3 5 10 7 15 3 5 -3 7 -10 3 -15z" transform="translate(0,114) scale(0.1,-0.1)" stroke="none" fill="#BED3B8"/>

</g>

<g id="3" transform="translate(519.0,0)scale(1,1)">

<path d="M838 669 c-39 -22 -10 -69 41 -69 16 0 21 6 21 28 0 45 -26 62 -62 41z" transform="translate(0,114) scale(0.1,-0.1)" stroke="none" fill="#936C3F"/>

<path d="M1108 448 c-15 -48 -15 -55 -1 -70 19 -21 33 -15 33 14 0 15 4 18 18 13 50 -19 53 4 5 55 l-38 42 -17 -54z" transform="translate(0,114) scale(0.1,-0.1)" stroke="none" fill="#FBD984"/>

<path d="M634 229 c-8 -13 27 -89 47 -99 10 -6 37 -10 61 -10 40 0 41 1 22 14 -13 10 -21 27 -22 47 0 17 -3 34 -6 37 -10 9 -97 19 -102 11z" transform="translate(0,114) scale(0.1,-0.1)" stroke="none" fill="#FBD984"/>

<path d="M677 689 c-26 -15 -23 -73 6 -96 13 -10 22 -24 19 -31 -5 -15 35 -31 60 -24 22 5 24 38 2 50 -13 7 -14 13 -5 30 17 33 2 53 -59 78 -3 1 -13 -2 -23 -7z" transform="translate(0,114) scale(0.1,-0.1)" stroke="none" fill="#936C3F"/>

<path d="M462 580 c-37 -35 -23 -58 24 -40 22 9 31 7 49 -10 30 -28 100 -28 115 0 24 45 -41 84 -102 61 -17 -6 -29 -7 -33 -1 -10 16 -29 12 -53 -10z" transform="translate(0,114) scale(0.1,-0.1)" stroke="none" fill="#936C3F"/>

<path d="M893 517 c-45 -20 -38 -70 17 -125 34 -34 45 -38 55 -22 5 8 11 7 21 -1 28 -23 26 19 -5 80 -35 68 -55 84 -88 68z" transform="translate(0,114) scale(0.1,-0.1)" stroke="none" fill="#FBD984"/>

<path d="M1247 1070 c-58 -10 -147 -52 -178 -84 -12 -13 -35 -60 -51 -106 -47 -133 -91 -183 -156 -178 -16 2 -21 7 -17 18 5 12 4 13 -6 3 -7 -7 -22 -13 -33 -13 -17 0 -18 -2 -6 -10 12 -7 12 -12 2 -22 -10 -10 -14 -9 -18 9 -7 25 -23 33 -84 39 -25 3 -51 7 -58 10 -7 2 -11 0 -8 -5 7 -11 -22 -23 -36 -14 -6 3 -8 2 -5 -4 3 -5 -22 -22 -55 -37 -34 -16 -73 -43 -87 -60 -14 -17 -44 -48 -66 -70 l-39 -39 -103 7 c-57 4 -115 11 -130 17 -14 5 -28 7 -31 5 -21 -21 160 -201 258 -257 107 -60 110 -63 110 -125 0 -55 0 -55 43 -74 23 -11 58 -20 77 -20 l35 0 -32 22 c-34 24 -40 45 -23 76 5 9 16 34 24 55 14 34 33 46 50 30 9 -9 25 -12 126 -19 162 -12 260 26 311 119 21 39 28 45 39 34 12 -10 12 -9 3 3 -9 12 -8 28 5 68 15 43 20 50 31 40 11 -11 11 -10 1 8 -14 24 3 89 48 179 43 88 41 87 164 79 118 -7 128 -2 86 44 l-23 25 25 -6 c14 -3 38 -9 54 -13 22 -5 27 -4 21 6 -6 9 1 11 30 8 76 -9 120 75 80 152 -41 79 -221 126 -378 100z m187 -125 c16 -12 22 -12 34 -2 12 10 14 9 10 -3 -7 -23 -42 -23 -63 0 -21 23 -9 26 19 5z m-84 -40 c16 -19 5 -47 -16 -43 -27 5 -42 37 -24 48 20 13 26 12 40 -5z m-618 -224 c33 -17 41 -36 27 -63 -9 -17 -8 -23 5 -30 22 -12 20 -45 -2 -50 -25 -7 -65 9 -60 24 3 7 -6 21 -19 31 -29 23 -32 81 -6 96 10 5 20 8 23 7 3 -1 17 -8 32 -15z m-117 -32 c0 -28 -36 -39 -61 -19 -21 18 -17 27 14 38 37 14 47 10 47 -19z m273 19 c7 -7 12 -25 12 -40 0 -22 -5 -28 -21 -28 -51 0 -80 47 -41 69 23 14 36 13 50 -1z m-73 -67 c0 -8 -4 -16 -10 -18 -16 -5 -38 14 -30 26 9 16 40 9 40 -8z m-300 -11 c4 -6 16 -5 33 1 61 23 126 -16 102 -61 -15 -28 -85 -28 -115 0 -18 17 -27 19 -49 10 -47 -18 -61 5 -24 40 24 22 43 26 53 10z m466 -141 c31 -61 33 -103 5 -80 -10 8 -16 9 -21 1 -10 -16 -21 -12 -55 22 -55 55 -62 105 -17 125 33 16 53 0 88 -68z m-497 50 c-3 -5 -10 -7 -15 -3 -5 3 -7 10 -3 15 3 5 10 7 15 3 5 -3 7 -10 3 -15z" transform="translate(0,114) scale(0.1,-0.1)" stroke="none" fill="#BED3B8"/>

</g>

<g id="4" transform="translate(692.0,0)scale(1,1)">

<path d="M838 669 c-39 -22 -10 -69 41 -69 16 0 21 6 21 28 0 45 -26 62 -62 41z" transform="translate(0,114) scale(0.1,-0.1)" stroke="none" fill="#936C3F"/>

<path d="M1108 448 c-15 -48 -15 -55 -1 -70 19 -21 33 -15 33 14 0 15 4 18 18 13 50 -19 53 4 5 55 l-38 42 -17 -54z" transform="translate(0,114) scale(0.1,-0.1)" stroke="none" fill="#FBD984"/>

<path d="M634 229 c-8 -13 27 -89 47 -99 10 -6 37 -10 61 -10 40 0 41 1 22 14 -13 10 -21 27 -22 47 0 17 -3 34 -6 37 -10 9 -97 19 -102 11z" transform="translate(0,114) scale(0.1,-0.1)" stroke="none" fill="#FBD984"/>

<path d="M677 689 c-26 -15 -23 -73 6 -96 13 -10 22 -24 19 -31 -5 -15 35 -31 60 -24 22 5 24 38 2 50 -13 7 -14 13 -5 30 17 33 2 53 -59 78 -3 1 -13 -2 -23 -7z" transform="translate(0,114) scale(0.1,-0.1)" stroke="none" fill="#936C3F"/>

<path d="M462 580 c-37 -35 -23 -58 24 -40 22 9 31 7 49 -10 30 -28 100 -28 115 0 24 45 -41 84 -102 61 -17 -6 -29 -7 -33 -1 -10 16 -29 12 -53 -10z" transform="translate(0,114) scale(0.1,-0.1)" stroke="none" fill="#936C3F"/>

<path d="M893 517 c-45 -20 -38 -70 17 -125 34 -34 45 -38 55 -22 5 8 11 7 21 -1 28 -23 26 19 -5 80 -35 68 -55 84 -88 68z" transform="translate(0,114) scale(0.1,-0.1)" stroke="none" fill="#FBD984"/>

<path d="M1247 1070 c-58 -10 -147 -52 -178 -84 -12 -13 -35 -60 -51 -106 -47 -133 -91 -183 -156 -178 -16 2 -21 7 -17 18 5 12 4 13 -6 3 -7 -7 -22 -13 -33 -13 -17 0 -18 -2 -6 -10 12 -7 12 -12 2 -22 -10 -10 -14 -9 -18 9 -7 25 -23 33 -84 39 -25 3 -51 7 -58 10 -7 2 -11 0 -8 -5 7 -11 -22 -23 -36 -14 -6 3 -8 2 -5 -4 3 -5 -22 -22 -55 -37 -34 -16 -73 -43 -87 -60 -14 -17 -44 -48 -66 -70 l-39 -39 -103 7 c-57 4 -115 11 -130 17 -14 5 -28 7 -31 5 -21 -21 160 -201 258 -257 107 -60 110 -63 110 -125 0 -55 0 -55 43 -74 23 -11 58 -20 77 -20 l35 0 -32 22 c-34 24 -40 45 -23 76 5 9 16 34 24 55 14 34 33 46 50 30 9 -9 25 -12 126 -19 162 -12 260 26 311 119 21 39 28 45 39 34 12 -10 12 -9 3 3 -9 12 -8 28 5 68 15 43 20 50 31 40 11 -11 11 -10 1 8 -14 24 3 89 48 179 43 88 41 87 164 79 118 -7 128 -2 86 44 l-23 25 25 -6 c14 -3 38 -9 54 -13 22 -5 27 -4 21 6 -6 9 1 11 30 8 76 -9 120 75 80 152 -41 79 -221 126 -378 100z m187 -125 c16 -12 22 -12 34 -2 12 10 14 9 10 -3 -7 -23 -42 -23 -63 0 -21 23 -9 26 19 5z m-84 -40 c16 -19 5 -47 -16 -43 -27 5 -42 37 -24 48 20 13 26 12 40 -5z m-618 -224 c33 -17 41 -36 27 -63 -9 -17 -8 -23 5 -30 22 -12 20 -45 -2 -50 -25 -7 -65 9 -60 24 3 7 -6 21 -19 31 -29 23 -32 81 -6 96 10 5 20 8 23 7 3 -1 17 -8 32 -15z m-117 -32 c0 -28 -36 -39 -61 -19 -21 18 -17 27 14 38 37 14 47 10 47 -19z m273 19 c7 -7 12 -25 12 -40 0 -22 -5 -28 -21 -28 -51 0 -80 47 -41 69 23 14 36 13 50 -1z m-73 -67 c0 -8 -4 -16 -10 -18 -16 -5 -38 14 -30 26 9 16 40 9 40 -8z m-300 -11 c4 -6 16 -5 33 1 61 23 126 -16 102 -61 -15 -28 -85 -28 -115 0 -18 17 -27 19 -49 10 -47 -18 -61 5 -24 40 24 22 43 26 53 10z m466 -141 c31 -61 33 -103 5 -80 -10 8 -16 9 -21 1 -10 -16 -21 -12 -55 22 -55 55 -62 105 -17 125 33 16 53 0 88 -68z m-497 50 c-3 -5 -10 -7 -15 -3 -5 3 -7 10 -3 15 3 5 10 7 15 3 5 -3 7 -10 3 -15z" transform="translate(0,114) scale(0.1,-0.1)" stroke="none" fill="#BED3B8"/>

</g>

</g>
<g id="row1" transform="translate(23,114.0)">
<g id="0" transform="translate(0.0,0)scale(1,1)">

<path d="M838 669 c-39 -22 -10 -69 41 -69 16 0 21 6 21 28 0 45 -26 62 -62 41z" transform="translate(0,114) scale(0.1,-0.1)" stroke="none" fill="#936C3F"/>

<path d="M1108 448 c-15 -48 -15 -55 -1 -70 19 -21 33 -15 33 14 0 15 4 18 18 13 50 -19 53 4 5 55 l-38 42 -17 -54z" transform="translate(0,114) scale(0.1,-0.1)" stroke="none" fill="#FBD984"/>

<path d="M634 229 c-8 -13 27 -89 47 -99 10 -6 37 -10 61 -10 40 0 41 1 22 14 -13 10 -21 27 -22 47 0 17 -3 34 -6 37 -10 9 -97 19 -102 11z" transform="translate(0,114) scale(0.1,-0.1)" stroke="none" fill="#FBD984"/>

<path d="M677 689 c-26 -15 -23 -73 6 -96 13 -10 22 -24 19 -31 -5 -15 35 -31 60 -24 22 5 24 38 2 50 -13 7 -14 13 -5 30 17 33 2 53 -59 78 -3 1 -13 -2 -23 -7z" transform="translate(0,114) scale(0.1,-0.1)" stroke="none" fill="#936C3F"/>

<path d="M462 580 c-37 -35 -23 -58 24 -40 22 9 31 7 49 -10 30 -28 100 -28 115 0 24 45 -41 84 -102 61 -17 -6 -29 -7 -33 -1 -10 16 -29 12 -53 -10z" transform="translate(0,114) scale(0.1,-0.1)" stroke="none" fill="#936C3F"/>

<path d="M893 517 c-45 -20 -38 -70 17 -125 34 -34 45 -38 55 -22 5 8 11 7 21 -1 28 -23 26 19 -5 80 -35 68 -55 84 -88 68z" transform="translate(0,114) scale(0.1,-0.1)" stroke="none" fill="#FBD984"/>

<path d="M1247 1070 c-58 -10 -147 -52 -178 -84 -12 -13 -35 -60 -51 -106 -47 -133 -91 -183 -156 -178 -16 2 -21 7 -17 18 5 12 4 13 -6 3 -7 -7 -22 -13 -33 -13 -17 0 -18 -2 -6 -10 12 -7 12 -12 2 -22 -10 -10 -14 -9 -18 9 -7 25 -23 33 -84 39 -25 3 -51 7 -58 10 -7 2 -11 0 -8 -5 7 -11 -22 -23 -36 -14 -6 3 -8 2 -5 -4 3 -5 -22 -22 -55 -37 -34 -16 -73 -43 -87 -60 -14 -17 -44 -48 -66 -70 l-39 -39 -103 7 c-57 4 -115 11 -130 17 -14 5 -28 7 -31 5 -21 -21 160 -201 258 -257 107 -60 110 -63 110 -125 0 -55 0 -55 43 -74 23 -11 58 -20 77 -20 l35 0 -32 22 c-34 24 -40 45 -23 76 5 9 16 34 24 55 14 34 33 46 50 30 9 -9 25 -12 126 -19 162 -12 260 26 311 119 21 39 28 45 39 34 12 -10 12 -9 3 3 -9 12 -8 28 5 68 15 43 20 50 31 40 11 -11 11 -10 1 8 -14 24 3 89 48 179 43 88 41 87 164 79 118 -7 128 -2 86 44 l-23 25 25 -6 c14 -3 38 -9 54 -13 22 -5 27 -4 21 6 -6 9 1 11 30 8 76 -9 120 75 80 152 -41 79 -221 126 -378 100z m187 -125 c16 -12 22 -12 34 -2 12 10 14 9 10 -3 -7 -23 -42 -23 -63 0 -21 23 -9 26 19 5z m-84 -40 c16 -19 5 -47 -16 -43 -27 5 -42 37 -24 48 20 13 26 12 40 -5z m-618 -224 c33 -17 41 -36 27 -63 -9 -17 -8 -23 5 -30 22 -12 20 -45 -2 -50 -25 -7 -65 9 -60 24 3 7 -6 21 -19 31 -29 23 -32 81 -6 96 10 5 20 8 23 7 3 -1 17 -8 32 -15z m-117 -32 c0 -28 -36 -39 -61 -19 -21 18 -17 27 14 38 37 14 47 10 47 -19z m273 19 c7 -7 12 -25 12 -40 0 -22 -5 -28 -21 -28 -51 0 -80 47 -41 69 23 14 36 13 50 -1z m-73 -67 c0 -8 -4 -16 -10 -18 -16 -5 -38 14 -30 26 9 16 40 9 40 -8z m-300 -11 c4 -6 16 -5 33 1 61 23 126 -16 102 -61 -15 -28 -85 -28 -115 0 -18 17 -27 19 -49 10 -47 -18 -61 5 -24 40 24 22 43 26 53 10z m466 -141 c31 -61 33 -103 5 -80 -10 8 -16 9 -21 1 -10 -16 -21 -12 -55 22 -55 55 -62 105 -17 125 33 16 53 0 88 -68z m-497 50 c-3 -5 -10 -7 -15 -3 -5 3 -7 10 -3 15 3 5 10 7 15 3 5 -3 7 -10 3 -15z" transform="translate(0,114) scale(0.1,-0.1)" stroke="none" fill="#BED3B8"/>

</g>

<g id="1" transform="translate(173.0,0)scale(1,1)">

<path d="M838 669 c-39 -22 -10 -69 41 -69 16 0 21 6 21 28 0 45 -26 62 -62 41z" transform="translate(0,114) scale(0.1,-0.1)" stroke="none" fill="#936C3F"/>

<path d="M1108 448 c-15 -48 -15 -55 -1 -70 19 -21 33 -15 33 14 0 15 4 18 18 13 50 -19 53 4 5 55 l-38 42 -17 -54z" transform="translate(0,114) scale(0.1,-0.1)" stroke="none" fill="#FBD984"/>

<path d="M634 229 c-8 -13 27 -89 47 -99 10 -6 37 -10 61 -10 40 0 41 1 22 14 -13 10 -21 27 -22 47 0 17 -3 34 -6 37 -10 9 -97 19 -102 11z" transform="translate(0,114) scale(0.1,-0.1)" stroke="none" fill="#FBD984"/>

<path d="M677 689 c-26 -15 -23 -73 6 -96 13 -10 22 -24 19 -31 -5 -15 35 -31 60 -24 22 5 24 38 2 50 -13 7 -14 13 -5 30 17 33 2 53 -59 78 -3 1 -13 -2 -23 -7z" transform="translate(0,114) scale(0.1,-0.1)" stroke="none" fill="#936C3F"/>

<path d="M462 580 c-37 -35 -23 -58 24 -40 22 9 31 7 49 -10 30 -28 100 -28 115 0 24 45 -41 84 -102 61 -17 -6 -29 -7 -33 -1 -10 16 -29 12 -53 -10z" transform="translate(0,114) scale(0.1,-0.1)" stroke="none" fill="#936C3F"/>

<path d="M893 517 c-45 -20 -38 -70 17 -125 34 -34 45 -38 55 -22 5 8 11 7 21 -1 28 -23 26 19 -5 80 -35 68 -55 84 -88 68z" transform="translate(0,114) scale(0.1,-0.1)" stroke="none" fill="#FBD984"/>

<path d="M1247 1070 c-58 -10 -147 -52 -178 -84 -12 -13 -35 -60 -51 -106 -47 -133 -91 -183 -156 -178 -16 2 -21 7 -17 18 5 12 4 13 -6 3 -7 -7 -22 -13 -33 -13 -17 0 -18 -2 -6 -10 12 -7 12 -12 2 -22 -10 -10 -14 -9 -18 9 -7 25 -23 33 -84 39 -25 3 -51 7 -58 10 -7 2 -11 0 -8 -5 7 -11 -22 -23 -36 -14 -6 3 -8 2 -5 -4 3 -5 -22 -22 -55 -37 -34 -16 -73 -43 -87 -60 -14 -17 -44 -48 -66 -70 l-39 -39 -103 7 c-57 4 -115 11 -130 17 -14 5 -28 7 -31 5 -21 -21 160 -201 258 -257 107 -60 110 -63 110 -125 0 -55 0 -55 43 -74 23 -11 58 -20 77 -20 l35 0 -32 22 c-34 24 -40 45 -23 76 5 9 16 34 24 55 14 34 33 46 50 30 9 -9 25 -12 126 -19 162 -12 260 26 311 119 21 39 28 45 39 34 12 -10 12 -9 3 3 -9 12 -8 28 5 68 15 43 20 50 31 40 11 -11 11 -10 1 8 -14 24 3 89 48 179 43 88 41 87 164 79 118 -7 128 -2 86 44 l-23 25 25 -6 c14 -3 38 -9 54 -13 22 -5 27 -4 21 6 -6 9 1 11 30 8 76 -9 120 75 80 152 -41 79 -221 126 -378 100z m187 -125 c16 -12 22 -12 34 -2 12 10 14 9 10 -3 -7 -23 -42 -23 -63 0 -21 23 -9 26 19 5z m-84 -40 c16 -19 5 -47 -16 -43 -27 5 -42 37 -24 48 20 13 26 12 40 -5z m-618 -224 c33 -17 41 -36 27 -63 -9 -17 -8 -23 5 -30 22 -12 20 -45 -2 -50 -25 -7 -65 9 -60 24 3 7 -6 21 -19 31 -29 23 -32 81 -6 96 10 5 20 8 23 7 3 -1 17 -8 32 -15z m-117 -32 c0 -28 -36 -39 -61 -19 -21 18 -17 27 14 38 37 14 47 10 47 -19z m273 19 c7 -7 12 -25 12 -40 0 -22 -5 -28 -21 -28 -51 0 -80 47 -41 69 23 14 36 13 50 -1z m-73 -67 c0 -8 -4 -16 -10 -18 -16 -5 -38 14 -30 26 9 16 40 9 40 -8z m-300 -11 c4 -6 16 -5 33 1 61 23 126 -16 102 -61 -15 -28 -85 -28 -115 0 -18 17 -27 19 -49 10 -47 -18 -61 5 -24 40 24 22 43 26 53 10z m466 -141 c31 -61 33 -103 5 -80 -10 8 -16 9 -21 1 -10 -16 -21 -12 -55 22 -55 55 -62 105 -17 125 33 16 53 0 88 -68z m-497 50 c-3 -5 -10 -7 -15 -3 -5 3 -7 10 -3 15 3 5 10 7 15 3 5 -3 7 -10 3 -15z" transform="translate(0,114) scale(0.1,-0.1)" stroke="none" fill="#BED3B8"/>

</g>

<g id="2" transform="translate(346.0,0)scale(1,1)">

<path d="M838 669 c-39 -22 -10 -69 41 -69 16 0 21 6 21 28 0 45 -26 62 -62 41z" transform="translate(0,114) scale(0.1,-0.1)" stroke="none" fill="#936C3F"/>

<path d="M1108 448 c-15 -48 -15 -55 -1 -70 19 -21 33 -15 33 14 0 15 4 18 18 13 50 -19 53 4 5 55 l-38 42 -17 -54z" transform="translate(0,114) scale(0.1,-0.1)" stroke="none" fill="#FBD984"/>

<path d="M634 229 c-8 -13 27 -89 47 -99 10 -6 37 -10 61 -10 40 0 41 1 22 14 -13 10 -21 27 -22 47 0 17 -3 34 -6 37 -10 9 -97 19 -102 11z" transform="translate(0,114) scale(0.1,-0.1)" stroke="none" fill="#FBD984"/>

<path d="M677 689 c-26 -15 -23 -73 6 -96 13 -10 22 -24 19 -31 -5 -15 35 -31 60 -24 22 5 24 38 2 50 -13 7 -14 13 -5 30 17 33 2 53 -59 78 -3 1 -13 -2 -23 -7z" transform="translate(0,114) scale(0.1,-0.1)" stroke="none" fill="#936C3F"/>

<path d="M462 580 c-37 -35 -23 -58 24 -40 22 9 31 7 49 -10 30 -28 100 -28 115 0 24 45 -41 84 -102 61 -17 -6 -29 -7 -33 -1 -10 16 -29 12 -53 -10z" transform="translate(0,114) scale(0.1,-0.1)" stroke="none" fill="#936C3F"/>

<path d="M893 517 c-45 -20 -38 -70 17 -125 34 -34 45 -38 55 -22 5 8 11 7 21 -1 28 -23 26 19 -5 80 -35 68 -55 84 -88 68z" transform="translate(0,114) scale(0.1,-0.1)" stroke="none" fill="#FBD984"/>

<path d="M1247 1070 c-58 -10 -147 -52 -178 -84 -12 -13 -35 -60 -51 -106 -47 -133 -91 -183 -156 -178 -16 2 -21 7 -17 18 5 12 4 13 -6 3 -7 -7 -22 -13 -33 -13 -17 0 -18 -2 -6 -10 12 -7 12 -12 2 -22 -10 -10 -14 -9 -18 9 -7 25 -23 33 -84 39 -25 3 -51 7 -58 10 -7 2 -11 0 -8 -5 7 -11 -22 -23 -36 -14 -6 3 -8 2 -5 -4 3 -5 -22 -22 -55 -37 -34 -16 -73 -43 -87 -60 -14 -17 -44 -48 -66 -70 l-39 -39 -103 7 c-57 4 -115 11 -130 17 -14 5 -28 7 -31 5 -21 -21 160 -201 258 -257 107 -60 110 -63 110 -125 0 -55 0 -55 43 -74 23 -11 58 -20 77 -20 l35 0 -32 22 c-34 24 -40 45 -23 76 5 9 16 34 24 55 14 34 33 46 50 30 9 -9 25 -12 126 -19 162 -12 260 26 311 119 21 39 28 45 39 34 12 -10 12 -9 3 3 -9 12 -8 28 5 68 15 43 20 50 31 40 11 -11 11 -10 1 8 -14 24 3 89 48 179 43 88 41 87 164 79 118 -7 128 -2 86 44 l-23 25 25 -6 c14 -3 38 -9 54 -13 22 -5 27 -4 21 6 -6 9 1 11 30 8 76 -9 120 75 80 152 -41 79 -221 126 -378 100z m187 -125 c16 -12 22 -12 34 -2 12 10 14 9 10 -3 -7 -23 -42 -23 -63 0 -21 23 -9 26 19 5z m-84 -40 c16 -19 5 -47 -16 -43 -27 5 -42 37 -24 48 20 13 26 12 40 -5z m-618 -224 c33 -17 41 -36 27 -63 -9 -17 -8 -23 5 -30 22 -12 20 -45 -2 -50 -25 -7 -65 9 -60 24 3 7 -6 21 -19 31 -29 23 -32 81 -6 96 10 5 20 8 23 7 3 -1 17 -8 32 -15z m-117 -32 c0 -28 -36 -39 -61 -19 -21 18 -17 27 14 38 37 14 47 10 47 -19z m273 19 c7 -7 12 -25 12 -40 0 -22 -5 -28 -21 -28 -51 0 -80 47 -41 69 23 14 36 13 50 -1z m-73 -67 c0 -8 -4 -16 -10 -18 -16 -5 -38 14 -30 26 9 16 40 9 40 -8z m-300 -11 c4 -6 16 -5 33 1 61 23 126 -16 102 -61 -15 -28 -85 -28 -115 0 -18 17 -27 19 -49 10 -47 -18 -61 5 -24 40 24 22 43 26 53 10z m466 -141 c31 -61 33 -103 5 -80 -10 8 -16 9 -21 1 -10 -16 -21 -12 -55 22 -55 55 -62 105 -17 125 33 16 53 0 88 -68z m-497 50 c-3 -5 -10 -7 -15 -3 -5 3 -7 10 -3 15 3 5 10 7 15 3 5 -3 7 -10 3 -15z" transform="translate(0,114) scale(0.1,-0.1)" stroke="none" fill="#BED3B8"/>

</g>

<g id="3" transform="translate(519.0,0)scale(1,1)">

<path d="M838 669 c-39 -22 -10 -69 41 -69 16 0 21 6 21 28 0 45 -26 62 -62 41z" transform="translate(0,114) scale(0.1,-0.1)" stroke="none" fill="#936C3F"/>

<path d="M1108 448 c-15 -48 -15 -55 -1 -70 19 -21 33 -15 33 14 0 15 4 18 18 13 50 -19 53 4 5 55 l-38 42 -17 -54z" transform="translate(0,114) scale(0.1,-0.1)" stroke="none" fill="#FBD984"/>

<path d="M634 229 c-8 -13 27 -89 47 -99 10 -6 37 -10 61 -10 40 0 41 1 22 14 -13 10 -21 27 -22 47 0 17 -3 34 -6 37 -10 9 -97 19 -102 11z" transform="translate(0,114) scale(0.1,-0.1)" stroke="none" fill="#FBD984"/>

<path d="M677 689 c-26 -15 -23 -73 6 -96 13 -10 22 -24 19 -31 -5 -15 35 -31 60 -24 22 5 24 38 2 50 -13 7 -14 13 -5 30 17 33 2 53 -59 78 -3 1 -13 -2 -23 -7z" transform="translate(0,114) scale(0.1,-0.1)" stroke="none" fill="#936C3F"/>

<path d="M462 580 c-37 -35 -23 -58 24 -40 22 9 31 7 49 -10 30 -28 100 -28 115 0 24 45 -41 84 -102 61 -17 -6 -29 -7 -33 -1 -10 16 -29 12 -53 -10z" transform="translate(0,114) scale(0.1,-0.1)" stroke="none" fill="#936C3F"/>

<path d="M893 517 c-45 -20 -38 -70 17 -125 34 -34 45 -38 55 -22 5 8 11 7 21 -1 28 -23 26 19 -5 80 -35 68 -55 84 -88 68z" transform="translate(0,114) scale(0.1,-0.1)" stroke="none" fill="#FBD984"/>

<path d="M1247 1070 c-58 -10 -147 -52 -178 -84 -12 -13 -35 -60 -51 -106 -47 -133 -91 -183 -156 -178 -16 2 -21 7 -17 18 5 12 4 13 -6 3 -7 -7 -22 -13 -33 -13 -17 0 -18 -2 -6 -10 12 -7 12 -12 2 -22 -10 -10 -14 -9 -18 9 -7 25 -23 33 -84 39 -25 3 -51 7 -58 10 -7 2 -11 0 -8 -5 7 -11 -22 -23 -36 -14 -6 3 -8 2 -5 -4 3 -5 -22 -22 -55 -37 -34 -16 -73 -43 -87 -60 -14 -17 -44 -48 -66 -70 l-39 -39 -103 7 c-57 4 -115 11 -130 17 -14 5 -28 7 -31 5 -21 -21 160 -201 258 -257 107 -60 110 -63 110 -125 0 -55 0 -55 43 -74 23 -11 58 -20 77 -20 l35 0 -32 22 c-34 24 -40 45 -23 76 5 9 16 34 24 55 14 34 33 46 50 30 9 -9 25 -12 126 -19 162 -12 260 26 311 119 21 39 28 45 39 34 12 -10 12 -9 3 3 -9 12 -8 28 5 68 15 43 20 50 31 40 11 -11 11 -10 1 8 -14 24 3 89 48 179 43 88 41 87 164 79 118 -7 128 -2 86 44 l-23 25 25 -6 c14 -3 38 -9 54 -13 22 -5 27 -4 21 6 -6 9 1 11 30 8 76 -9 120 75 80 152 -41 79 -221 126 -378 100z m187 -125 c16 -12 22 -12 34 -2 12 10 14 9 10 -3 -7 -23 -42 -23 -63 0 -21 23 -9 26 19 5z m-84 -40 c16 -19 5 -47 -16 -43 -27 5 -42 37 -24 48 20 13 26 12 40 -5z m-618 -224 c33 -17 41 -36 27 -63 -9 -17 -8 -23 5 -30 22 -12 20 -45 -2 -50 -25 -7 -65 9 -60 24 3 7 -6 21 -19 31 -29 23 -32 81 -6 96 10 5 20 8 23 7 3 -1 17 -8 32 -15z m-117 -32 c0 -28 -36 -39 -61 -19 -21 18 -17 27 14 38 37 14 47 10 47 -19z m273 19 c7 -7 12 -25 12 -40 0 -22 -5 -28 -21 -28 -51 0 -80 47 -41 69 23 14 36 13 50 -1z m-73 -67 c0 -8 -4 -16 -10 -18 -16 -5 -38 14 -30 26 9 16 40 9 40 -8z m-300 -11 c4 -6 16 -5 33 1 61 23 126 -16 102 -61 -15 -28 -85 -28 -115 0 -18 17 -27 19 -49 10 -47 -18 -61 5 -24 40 24 22 43 26 53 10z m466 -141 c31 -61 33 -103 5 -80 -10 8 -16 9 -21 1 -10 -16 -21 -12 -55 22 -55 55 -62 105 -17 125 33 16 53 0 88 -68z m-497 50 c-3 -5 -10 -7 -15 -3 -5 3 -7 10 -3 15 3 5 10 7 15 3 5 -3 7 -10 3 -15z" transform="translate(0,114) scale(0.1,-0.1)" stroke="none" fill="#BED3B8"/>

</g>

<g id="4" transform="translate(692.0,0)scale(1,1)">

<path d="M838 669 c-39 -22 -10 -69 41 -69 16 0 21 6 21 28 0 45 -26 62 -62 41z" transform="translate(0,114) scale(0.1,-0.1)" stroke="none" fill="#936C3F"/>

<path d="M1108 448 c-15 -48 -15 -55 -1 -70 19 -21 33 -15 33 14 0 15 4 18 18 13 50 -19 53 4 5 55 l-38 42 -17 -54z" transform="translate(0,114) scale(0.1,-0.1)" stroke="none" fill="#FBD984"/>

<path d="M634 229 c-8 -13 27 -89 47 -99 10 -6 37 -10 61 -10 40 0 41 1 22 14 -13 10 -21 27 -22 47 0 17 -3 34 -6 37 -10 9 -97 19 -102 11z" transform="translate(0,114) scale(0.1,-0.1)" stroke="none" fill="#FBD984"/>

<path d="M677 689 c-26 -15 -23 -73 6 -96 13 -10 22 -24 19 -31 -5 -15 35 -31 60 -24 22 5 24 38 2 50 -13 7 -14 13 -5 30 17 33 2 53 -59 78 -3 1 -13 -2 -23 -7z" transform="translate(0,114) scale(0.1,-0.1)" stroke="none" fill="#936C3F"/>

<path d="M462 580 c-37 -35 -23 -58 24 -40 22 9 31 7 49 -10 30 -28 100 -28 115 0 24 45 -41 84 -102 61 -17 -6 -29 -7 -33 -1 -10 16 -29 12 -53 -10z" transform="translate(0,114) scale(0.1,-0.1)" stroke="none" fill="#936C3F"/>

<path d="M893 517 c-45 -20 -38 -70 17 -125 34 -34 45 -38 55 -22 5 8 11 7 21 -1 28 -23 26 19 -5 80 -35 68 -55 84 -88 68z" transform="translate(0,114) scale(0.1,-0.1)" stroke="none" fill="#FBD984"/>

<path d="M1247 1070 c-58 -10 -147 -52 -178 -84 -12 -13 -35 -60 -51 -106 -47 -133 -91 -183 -156 -178 -16 2 -21 7 -17 18 5 12 4 13 -6 3 -7 -7 -22 -13 -33 -13 -17 0 -18 -2 -6 -10 12 -7 12 -12 2 -22 -10 -10 -14 -9 -18 9 -7 25 -23 33 -84 39 -25 3 -51 7 -58 10 -7 2 -11 0 -8 -5 7 -11 -22 -23 -36 -14 -6 3 -8 2 -5 -4 3 -5 -22 -22 -55 -37 -34 -16 -73 -43 -87 -60 -14 -17 -44 -48 -66 -70 l-39 -39 -103 7 c-57 4 -115 11 -130 17 -14 5 -28 7 -31 5 -21 -21 160 -201 258 -257 107 -60 110 -63 110 -125 0 -55 0 -55 43 -74 23 -11 58 -20 77 -20 l35 0 -32 22 c-34 24 -40 45 -23 76 5 9 16 34 24 55 14 34 33 46 50 30 9 -9 25 -12 126 -19 162 -12 260 26 311 119 21 39 28 45 39 34 12 -10 12 -9 3 3 -9 12 -8 28 5 68 15 43 20 50 31 40 11 -11 11 -10 1 8 -14 24 3 89 48 179 43 88 41 87 164 79 118 -7 128 -2 86 44 l-23 25 25 -6 c14 -3 38 -9 54 -13 22 -5 27 -4 21 6 -6 9 1 11 30 8 76 -9 120 75 80 152 -41 79 -221 126 -378 100z m187 -125 c16 -12 22 -12 34 -2 12 10 14 9 10 -3 -7 -23 -42 -23 -63 0 -21 23 -9 26 19 5z m-84 -40 c16 -19 5 -47 -16 -43 -27 5 -42 37 -24 48 20 13 26 12 40 -5z m-618 -224 c33 -17 41 -36 27 -63 -9 -17 -8 -23 5 -30 22 -12 20 -45 -2 -50 -25 -7 -65 9 -60 24 3 7 -6 21 -19 31 -29 23 -32 81 -6 96 10 5 20 8 23 7 3 -1 17 -8 32 -15z m-117 -32 c0 -28 -36 -39 -61 -19 -21 18 -17 27 14 38 37 14 47 10 47 -19z m273 19 c7 -7 12 -25 12 -40 0 -22 -5 -28 -21 -28 -51 0 -80 47 -41 69 23 14 36 13 50 -1z m-73 -67 c0 -8 -4 -16 -10 -18 -16 -5 -38 14 -30 26 9 16 40 9 40 -8z m-300 -11 c4 -6 16 -5 33 1 61 23 126 -16 102 -61 -15 -28 -85 -28 -115 0 -18 17 -27 19 -49 10 -47 -18 -61 5 -24 40 24 22 43 26 53 10z m466 -141 c31 -61 33 -103 5 -80 -10 8 -16 9 -21 1 -10 -16 -21 -12 -55 22 -55 55 -62 105 -17 125 33 16 53 0 88 -68z m-497 50 c-3 -5 -10 -7 -15 -3 -5 3 -7 10 -3 15 3 5 10 7 15 3 5 -3 7 -10 3 -15z" transform="translate(0,114) scale(0.1,-0.1)" stroke="none" fill="#BED3B8"/>

</g>

</g>
<g id="row2" transform="translate(23,228.0)">
<g id="0" transform="translate(0.0,0)scale(1,1)">

<path d="M838 669 c-39 -22 -10 -69 41 -69 16 0 21 6 21 28 0 45 -26 62 -62 41z" transform="translate(0,114) scale(0.1,-0.1)" stroke="none" fill="#936C3F"/>

<path d="M1108 448 c-15 -48 -15 -55 -1 -70 19 -21 33 -15 33 14 0 15 4 18 18 13 50 -19 53 4 5 55 l-38 42 -17 -54z" transform="translate(0,114) scale(0.1,-0.1)" stroke="none" fill="#FBD984"/>

<path d="M634 229 c-8 -13 27 -89 47 -99 10 -6 37 -10 61 -10 40 0 41 1 22 14 -13 10 -21 27 -22 47 0 17 -3 34 -6 37 -10 9 -97 19 -102 11z" transform="translate(0,114) scale(0.1,-0.1)" stroke="none" fill="#FBD984"/>

<path d="M677 689 c-26 -15 -23 -73 6 -96 13 -10 22 -24 19 -31 -5 -15 35 -31 60 -24 22 5 24 38 2 50 -13 7 -14 13 -5 30 17 33 2 53 -59 78 -3 1 -13 -2 -23 -7z" transform="translate(0,114) scale(0.1,-0.1)" stroke="none" fill="#936C3F"/>

<path d="M462 580 c-37 -35 -23 -58 24 -40 22 9 31 7 49 -10 30 -28 100 -28 115 0 24 45 -41 84 -102 61 -17 -6 -29 -7 -33 -1 -10 16 -29 12 -53 -10z" transform="translate(0,114) scale(0.1,-0.1)" stroke="none" fill="#936C3F"/>

<path d="M893 517 c-45 -20 -38 -70 17 -125 34 -34 45 -38 55 -22 5 8 11 7 21 -1 28 -23 26 19 -5 80 -35 68 -55 84 -88 68z" transform="translate(0,114) scale(0.1,-0.1)" stroke="none" fill="#FBD984"/>

<path d="M1247 1070 c-58 -10 -147 -52 -178 -84 -12 -13 -35 -60 -51 -106 -47 -133 -91 -183 -156 -178 -16 2 -21 7 -17 18 5 12 4 13 -6 3 -7 -7 -22 -13 -33 -13 -17 0 -18 -2 -6 -10 12 -7 12 -12 2 -22 -10 -10 -14 -9 -18 9 -7 25 -23 33 -84 39 -25 3 -51 7 -58 10 -7 2 -11 0 -8 -5 7 -11 -22 -23 -36 -14 -6 3 -8 2 -5 -4 3 -5 -22 -22 -55 -37 -34 -16 -73 -43 -87 -60 -14 -17 -44 -48 -66 -70 l-39 -39 -103 7 c-57 4 -115 11 -130 17 -14 5 -28 7 -31 5 -21 -21 160 -201 258 -257 107 -60 110 -63 110 -125 0 -55 0 -55 43 -74 23 -11 58 -20 77 -20 l35 0 -32 22 c-34 24 -40 45 -23 76 5 9 16 34 24 55 14 34 33 46 50 30 9 -9 25 -12 126 -19 162 -12 260 26 311 119 21 39 28 45 39 34 12 -10 12 -9 3 3 -9 12 -8 28 5 68 15 43 20 50 31 40 11 -11 11 -10 1 8 -14 24 3 89 48 179 43 88 41 87 164 79 118 -7 128 -2 86 44 l-23 25 25 -6 c14 -3 38 -9 54 -13 22 -5 27 -4 21 6 -6 9 1 11 30 8 76 -9 120 75 80 152 -41 79 -221 126 -378 100z m187 -125 c16 -12 22 -12 34 -2 12 10 14 9 10 -3 -7 -23 -42 -23 -63 0 -21 23 -9 26 19 5z m-84 -40 c16 -19 5 -47 -16 -43 -27 5 -42 37 -24 48 20 13 26 12 40 -5z m-618 -224 c33 -17 41 -36 27 -63 -9 -17 -8 -23 5 -30 22 -12 20 -45 -2 -50 -25 -7 -65 9 -60 24 3 7 -6 21 -19 31 -29 23 -32 81 -6 96 10 5 20 8 23 7 3 -1 17 -8 32 -15z m-117 -32 c0 -28 -36 -39 -61 -19 -21 18 -17 27 14 38 37 14 47 10 47 -19z m273 19 c7 -7 12 -25 12 -40 0 -22 -5 -28 -21 -28 -51 0 -80 47 -41 69 23 14 36 13 50 -1z m-73 -67 c0 -8 -4 -16 -10 -18 -16 -5 -38 14 -30 26 9 16 40 9 40 -8z m-300 -11 c4 -6 16 -5 33 1 61 23 126 -16 102 -61 -15 -28 -85 -28 -115 0 -18 17 -27 19 -49 10 -47 -18 -61 5 -24 40 24 22 43 26 53 10z m466 -141 c31 -61 33 -103 5 -80 -10 8 -16 9 -21 1 -10 -16 -21 -12 -55 22 -55 55 -62 105 -17 125 33 16 53 0 88 -68z m-497 50 c-3 -5 -10 -7 -15 -3 -5 3 -7 10 -3 15 3 5 10 7 15 3 5 -3 7 -10 3 -15z" transform="translate(0,114) scale(0.1,-0.1)" stroke="none" fill="#BED3B8"/>

</g>

<g id="1" transform="translate(173.0,0)scale(1,1)">

<path d="M838 669 c-39 -22 -10 -69 41 -69 16 0 21 6 21 28 0 45 -26 62 -62 41z" transform="translate(0,114) scale(0.1,-0.1)" stroke="none" fill="#936C3F"/>

<path d="M1108 448 c-15 -48 -15 -55 -1 -70 19 -21 33 -15 33 14 0 15 4 18 18 13 50 -19 53 4 5 55 l-38 42 -17 -54z" transform="translate(0,114) scale(0.1,-0.1)" stroke="none" fill="#FBD984"/>

<path d="M634 229 c-8 -13 27 -89 47 -99 10 -6 37 -10 61 -10 40 0 41 1 22 14 -13 10 -21 27 -22 47 0 17 -3 34 -6 37 -10 9 -97 19 -102 11z" transform="translate(0,114) scale(0.1,-0.1)" stroke="none" fill="#FBD984"/>

<path d="M677 689 c-26 -15 -23 -73 6 -96 13 -10 22 -24 19 -31 -5 -15 35 -31 60 -24 22 5 24 38 2 50 -13 7 -14 13 -5 30 17 33 2 53 -59 78 -3 1 -13 -2 -23 -7z" transform="translate(0,114) scale(0.1,-0.1)" stroke="none" fill="#936C3F"/>

<path d="M462 580 c-37 -35 -23 -58 24 -40 22 9 31 7 49 -10 30 -28 100 -28 115 0 24 45 -41 84 -102 61 -17 -6 -29 -7 -33 -1 -10 16 -29 12 -53 -10z" transform="translate(0,114) scale(0.1,-0.1)" stroke="none" fill="#936C3F"/>

<path d="M893 517 c-45 -20 -38 -70 17 -125 34 -34 45 -38 55 -22 5 8 11 7 21 -1 28 -23 26 19 -5 80 -35 68 -55 84 -88 68z" transform="translate(0,114) scale(0.1,-0.1)" stroke="none" fill="#FBD984"/>

<path d="M1247 1070 c-58 -10 -147 -52 -178 -84 -12 -13 -35 -60 -51 -106 -47 -133 -91 -183 -156 -178 -16 2 -21 7 -17 18 5 12 4 13 -6 3 -7 -7 -22 -13 -33 -13 -17 0 -18 -2 -6 -10 12 -7 12 -12 2 -22 -10 -10 -14 -9 -18 9 -7 25 -23 33 -84 39 -25 3 -51 7 -58 10 -7 2 -11 0 -8 -5 7 -11 -22 -23 -36 -14 -6 3 -8 2 -5 -4 3 -5 -22 -22 -55 -37 -34 -16 -73 -43 -87 -60 -14 -17 -44 -48 -66 -70 l-39 -39 -103 7 c-57 4 -115 11 -130 17 -14 5 -28 7 -31 5 -21 -21 160 -201 258 -257 107 -60 110 -63 110 -125 0 -55 0 -55 43 -74 23 -11 58 -20 77 -20 l35 0 -32 22 c-34 24 -40 45 -23 76 5 9 16 34 24 55 14 34 33 46 50 30 9 -9 25 -12 126 -19 162 -12 260 26 311 119 21 39 28 45 39 34 12 -10 12 -9 3 3 -9 12 -8 28 5 68 15 43 20 50 31 40 11 -11 11 -10 1 8 -14 24 3 89 48 179 43 88 41 87 164 79 118 -7 128 -2 86 44 l-23 25 25 -6 c14 -3 38 -9 54 -13 22 -5 27 -4 21 6 -6 9 1 11 30 8 76 -9 120 75 80 152 -41 79 -221 126 -378 100z m187 -125 c16 -12 22 -12 34 -2 12 10 14 9 10 -3 -7 -23 -42 -23 -63 0 -21 23 -9 26 19 5z m-84 -40 c16 -19 5 -47 -16 -43 -27 5 -42 37 -24 48 20 13 26 12 40 -5z m-618 -224 c33 -17 41 -36 27 -63 -9 -17 -8 -23 5 -30 22 -12 20 -45 -2 -50 -25 -7 -65 9 -60 24 3 7 -6 21 -19 31 -29 23 -32 81 -6 96 10 5 20 8 23 7 3 -1 17 -8 32 -15z m-117 -32 c0 -28 -36 -39 -61 -19 -21 18 -17 27 14 38 37 14 47 10 47 -19z m273 19 c7 -7 12 -25 12 -40 0 -22 -5 -28 -21 -28 -51 0 -80 47 -41 69 23 14 36 13 50 -1z m-73 -67 c0 -8 -4 -16 -10 -18 -16 -5 -38 14 -30 26 9 16 40 9 40 -8z m-300 -11 c4 -6 16 -5 33 1 61 23 126 -16 102 -61 -15 -28 -85 -28 -115 0 -18 17 -27 19 -49 10 -47 -18 -61 5 -24 40 24 22 43 26 53 10z m466 -141 c31 -61 33 -103 5 -80 -10 8 -16 9 -21 1 -10 -16 -21 -12 -55 22 -55 55 -62 105 -17 125 33 16 53 0 88 -68z m-497 50 c-3 -5 -10 -7 -15 -3 -5 3 -7 10 -3 15 3 5 10 7 15 3 5 -3 7 -10 3 -15z" transform="translate(0,114) scale(0.1,-0.1)" stroke="none" fill="#BED3B8"/>

</g>

<g id="2" transform="translate(346.0,0)scale(1,1)">

<path d="M838 669 c-39 -22 -10 -69 41 -69 16 0 21 6 21 28 0 45 -26 62 -62 41z" transform="translate(0,114) scale(0.1,-0.1)" stroke="none" fill="#936C3F"/>

<path d="M1108 448 c-15 -48 -15 -55 -1 -70 19 -21 33 -15 33 14 0 15 4 18 18 13 50 -19 53 4 5 55 l-38 42 -17 -54z" transform="translate(0,114) scale(0.1,-0.1)" stroke="none" fill="#FBD984"/>

<path d="M634 229 c-8 -13 27 -89 47 -99 10 -6 37 -10 61 -10 40 0 41 1 22 14 -13 10 -21 27 -22 47 0 17 -3 34 -6 37 -10 9 -97 19 -102 11z" transform="translate(0,114) scale(0.1,-0.1)" stroke="none" fill="#FBD984"/>

<path d="M677 689 c-26 -15 -23 -73 6 -96 13 -10 22 -24 19 -31 -5 -15 35 -31 60 -24 22 5 24 38 2 50 -13 7 -14 13 -5 30 17 33 2 53 -59 78 -3 1 -13 -2 -23 -7z" transform="translate(0,114) scale(0.1,-0.1)" stroke="none" fill="#936C3F"/>

<path d="M462 580 c-37 -35 -23 -58 24 -40 22 9 31 7 49 -10 30 -28 100 -28 115 0 24 45 -41 84 -102 61 -17 -6 -29 -7 -33 -1 -10 16 -29 12 -53 -10z" transform="translate(0,114) scale(0.1,-0.1)" stroke="none" fill="#936C3F"/>

<path d="M893 517 c-45 -20 -38 -70 17 -125 34 -34 45 -38 55 -22 5 8 11 7 21 -1 28 -23 26 19 -5 80 -35 68 -55 84 -88 68z" transform="translate(0,114) scale(0.1,-0.1)" stroke="none" fill="#FBD984"/>

<path d="M1247 1070 c-58 -10 -147 -52 -178 -84 -12 -13 -35 -60 -51 -106 -47 -133 -91 -183 -156 -178 -16 2 -21 7 -17 18 5 12 4 13 -6 3 -7 -7 -22 -13 -33 -13 -17 0 -18 -2 -6 -10 12 -7 12 -12 2 -22 -10 -10 -14 -9 -18 9 -7 25 -23 33 -84 39 -25 3 -51 7 -58 10 -7 2 -11 0 -8 -5 7 -11 -22 -23 -36 -14 -6 3 -8 2 -5 -4 3 -5 -22 -22 -55 -37 -34 -16 -73 -43 -87 -60 -14 -17 -44 -48 -66 -70 l-39 -39 -103 7 c-57 4 -115 11 -130 17 -14 5 -28 7 -31 5 -21 -21 160 -201 258 -257 107 -60 110 -63 110 -125 0 -55 0 -55 43 -74 23 -11 58 -20 77 -20 l35 0 -32 22 c-34 24 -40 45 -23 76 5 9 16 34 24 55 14 34 33 46 50 30 9 -9 25 -12 126 -19 162 -12 260 26 311 119 21 39 28 45 39 34 12 -10 12 -9 3 3 -9 12 -8 28 5 68 15 43 20 50 31 40 11 -11 11 -10 1 8 -14 24 3 89 48 179 43 88 41 87 164 79 118 -7 128 -2 86 44 l-23 25 25 -6 c14 -3 38 -9 54 -13 22 -5 27 -4 21 6 -6 9 1 11 30 8 76 -9 120 75 80 152 -41 79 -221 126 -378 100z m187 -125 c16 -12 22 -12 34 -2 12 10 14 9 10 -3 -7 -23 -42 -23 -63 0 -21 23 -9 26 19 5z m-84 -40 c16 -19 5 -47 -16 -43 -27 5 -42 37 -24 48 20 13 26 12 40 -5z m-618 -224 c33 -17 41 -36 27 -63 -9 -17 -8 -23 5 -30 22 -12 20 -45 -2 -50 -25 -7 -65 9 -60 24 3 7 -6 21 -19 31 -29 23 -32 81 -6 96 10 5 20 8 23 7 3 -1 17 -8 32 -15z m-117 -32 c0 -28 -36 -39 -61 -19 -21 18 -17 27 14 38 37 14 47 10 47 -19z m273 19 c7 -7 12 -25 12 -40 0 -22 -5 -28 -21 -28 -51 0 -80 47 -41 69 23 14 36 13 50 -1z m-73 -67 c0 -8 -4 -16 -10 -18 -16 -5 -38 14 -30 26 9 16 40 9 40 -8z m-300 -11 c4 -6 16 -5 33 1 61 23 126 -16 102 -61 -15 -28 -85 -28 -115 0 -18 17 -27 19 -49 10 -47 -18 -61 5 -24 40 24 22 43 26 53 10z m466 -141 c31 -61 33 -103 5 -80 -10 8 -16 9 -21 1 -10 -16 -21 -12 -55 22 -55 55 -62 105 -17 125 33 16 53 0 88 -68z m-497 50 c-3 -5 -10 -7 -15 -3 -5 3 -7 10 -3 15 3 5 10 7 15 3 5 -3 7 -10 3 -15z" transform="translate(0,114) scale(0.1,-0.1)" stroke="none" fill="#BED3B8"/>

</g>

<g id="3" transform="translate(519.0,0)scale(1,1)">

<path d="M838 669 c-39 -22 -10 -69 41 -69 16 0 21 6 21 28 0 45 -26 62 -62 41z" transform="translate(0,114) scale(0.1,-0.1)" stroke="none" fill="#936C3F"/>

<path d="M1108 448 c-15 -48 -15 -55 -1 -70 19 -21 33 -15 33 14 0 15 4 18 18 13 50 -19 53 4 5 55 l-38 42 -17 -54z" transform="translate(0,114) scale(0.1,-0.1)" stroke="none" fill="#FBD984"/>

<path d="M634 229 c-8 -13 27 -89 47 -99 10 -6 37 -10 61 -10 40 0 41 1 22 14 -13 10 -21 27 -22 47 0 17 -3 34 -6 37 -10 9 -97 19 -102 11z" transform="translate(0,114) scale(0.1,-0.1)" stroke="none" fill="#FBD984"/>

<path d="M677 689 c-26 -15 -23 -73 6 -96 13 -10 22 -24 19 -31 -5 -15 35 -31 60 -24 22 5 24 38 2 50 -13 7 -14 13 -5 30 17 33 2 53 -59 78 -3 1 -13 -2 -23 -7z" transform="translate(0,114) scale(0.1,-0.1)" stroke="none" fill="#936C3F"/>

<path d="M462 580 c-37 -35 -23 -58 24 -40 22 9 31 7 49 -10 30 -28 100 -28 115 0 24 45 -41 84 -102 61 -17 -6 -29 -7 -33 -1 -10 16 -29 12 -53 -10z" transform="translate(0,114) scale(0.1,-0.1)" stroke="none" fill="#936C3F"/>

<path d="M893 517 c-45 -20 -38 -70 17 -125 34 -34 45 -38 55 -22 5 8 11 7 21 -1 28 -23 26 19 -5 80 -35 68 -55 84 -88 68z" transform="translate(0,114) scale(0.1,-0.1)" stroke="none" fill="#FBD984"/>

<path d="M1247 1070 c-58 -10 -147 -52 -178 -84 -12 -13 -35 -60 -51 -106 -47 -133 -91 -183 -156 -178 -16 2 -21 7 -17 18 5 12 4 13 -6 3 -7 -7 -22 -13 -33 -13 -17 0 -18 -2 -6 -10 12 -7 12 -12 2 -22 -10 -10 -14 -9 -18 9 -7 25 -23 33 -84 39 -25 3 -51 7 -58 10 -7 2 -11 0 -8 -5 7 -11 -22 -23 -36 -14 -6 3 -8 2 -5 -4 3 -5 -22 -22 -55 -37 -34 -16 -73 -43 -87 -60 -14 -17 -44 -48 -66 -70 l-39 -39 -103 7 c-57 4 -115 11 -130 17 -14 5 -28 7 -31 5 -21 -21 160 -201 258 -257 107 -60 110 -63 110 -125 0 -55 0 -55 43 -74 23 -11 58 -20 77 -20 l35 0 -32 22 c-34 24 -40 45 -23 76 5 9 16 34 24 55 14 34 33 46 50 30 9 -9 25 -12 126 -19 162 -12 260 26 311 119 21 39 28 45 39 34 12 -10 12 -9 3 3 -9 12 -8 28 5 68 15 43 20 50 31 40 11 -11 11 -10 1 8 -14 24 3 89 48 179 43 88 41 87 164 79 118 -7 128 -2 86 44 l-23 25 25 -6 c14 -3 38 -9 54 -13 22 -5 27 -4 21 6 -6 9 1 11 30 8 76 -9 120 75 80 152 -41 79 -221 126 -378 100z m187 -125 c16 -12 22 -12 34 -2 12 10 14 9 10 -3 -7 -23 -42 -23 -63 0 -21 23 -9 26 19 5z m-84 -40 c16 -19 5 -47 -16 -43 -27 5 -42 37 -24 48 20 13 26 12 40 -5z m-618 -224 c33 -17 41 -36 27 -63 -9 -17 -8 -23 5 -30 22 -12 20 -45 -2 -50 -25 -7 -65 9 -60 24 3 7 -6 21 -19 31 -29 23 -32 81 -6 96 10 5 20 8 23 7 3 -1 17 -8 32 -15z m-117 -32 c0 -28 -36 -39 -61 -19 -21 18 -17 27 14 38 37 14 47 10 47 -19z m273 19 c7 -7 12 -25 12 -40 0 -22 -5 -28 -21 -28 -51 0 -80 47 -41 69 23 14 36 13 50 -1z m-73 -67 c0 -8 -4 -16 -10 -18 -16 -5 -38 14 -30 26 9 16 40 9 40 -8z m-300 -11 c4 -6 16 -5 33 1 61 23 126 -16 102 -61 -15 -28 -85 -28 -115 0 -18 17 -27 19 -49 10 -47 -18 -61 5 -24 40 24 22 43 26 53 10z m466 -141 c31 -61 33 -103 5 -80 -10 8 -16 9 -21 1 -10 -16 -21 -12 -55 22 -55 55 -62 105 -17 125 33 16 53 0 88 -68z m-497 50 c-3 -5 -10 -7 -15 -3 -5 3 -7 10 -3 15 3 5 10 7 15 3 5 -3 7 -10 3 -15z" transform="translate(0,114) scale(0.1,-0.1)" stroke="none" fill="#BED3B8"/>

</g>

<g id="4" transform="translate(692.0,0)scale(1,1)">

<path d="M838 669 c-39 -22 -10 -69 41 -69 16 0 21 6 21 28 0 45 -26 62 -62 41z" transform="translate(0,114) scale(0.1,-0.1)" stroke="none" fill="#936C3F"/>

<path d="M1108 448 c-15 -48 -15 -55 -1 -70 19 -21 33 -15 33 14 0 15 4 18 18 13 50 -19 53 4 5 55 l-38 42 -17 -54z" transform="translate(0,114) scale(0.1,-0.1)" stroke="none" fill="#FBD984"/>

<path d="M634 229 c-8 -13 27 -89 47 -99 10 -6 37 -10 61 -10 40 0 41 1 22 14 -13 10 -21 27 -22 47 0 17 -3 34 -6 37 -10 9 -97 19 -102 11z" transform="translate(0,114) scale(0.1,-0.1)" stroke="none" fill="#FBD984"/>

<path d="M677 689 c-26 -15 -23 -73 6 -96 13 -10 22 -24 19 -31 -5 -15 35 -31 60 -24 22 5 24 38 2 50 -13 7 -14 13 -5 30 17 33 2 53 -59 78 -3 1 -13 -2 -23 -7z" transform="translate(0,114) scale(0.1,-0.1)" stroke="none" fill="#936C3F"/>

<path d="M462 580 c-37 -35 -23 -58 24 -40 22 9 31 7 49 -10 30 -28 100 -28 115 0 24 45 -41 84 -102 61 -17 -6 -29 -7 -33 -1 -10 16 -29 12 -53 -10z" transform="translate(0,114) scale(0.1,-0.1)" stroke="none" fill="#936C3F"/>

<path d="M893 517 c-45 -20 -38 -70 17 -125 34 -34 45 -38 55 -22 5 8 11 7 21 -1 28 -23 26 19 -5 80 -35 68 -55 84 -88 68z" transform="translate(0,114) scale(0.1,-0.1)" stroke="none" fill="#FBD984"/>

<path d="M1247 1070 c-58 -10 -147 -52 -178 -84 -12 -13 -35 -60 -51 -106 -47 -133 -91 -183 -156 -178 -16 2 -21 7 -17 18 5 12 4 13 -6 3 -7 -7 -22 -13 -33 -13 -17 0 -18 -2 -6 -10 12 -7 12 -12 2 -22 -10 -10 -14 -9 -18 9 -7 25 -23 33 -84 39 -25 3 -51 7 -58 10 -7 2 -11 0 -8 -5 7 -11 -22 -23 -36 -14 -6 3 -8 2 -5 -4 3 -5 -22 -22 -55 -37 -34 -16 -73 -43 -87 -60 -14 -17 -44 -48 -66 -70 l-39 -39 -103 7 c-57 4 -115 11 -130 17 -14 5 -28 7 -31 5 -21 -21 160 -201 258 -257 107 -60 110 -63 110 -125 0 -55 0 -55 43 -74 23 -11 58 -20 77 -20 l35 0 -32 22 c-34 24 -40 45 -23 76 5 9 16 34 24 55 14 34 33 46 50 30 9 -9 25 -12 126 -19 162 -12 260 26 311 119 21 39 28 45 39 34 12 -10 12 -9 3 3 -9 12 -8 28 5 68 15 43 20 50 31 40 11 -11 11 -10 1 8 -14 24 3 89 48 179 43 88 41 87 164 79 118 -7 128 -2 86 44 l-23 25 25 -6 c14 -3 38 -9 54 -13 22 -5 27 -4 21 6 -6 9 1 11 30 8 76 -9 120 75 80 152 -41 79 -221 126 -378 100z m187 -125 c16 -12 22 -12 34 -2 12 10 14 9 10 -3 -7 -23 -42 -23 -63 0 -21 23 -9 26 19 5z m-84 -40 c16 -19 5 -47 -16 -43 -27 5 -42 37 -24 48 20 13 26 12 40 -5z m-618 -224 c33 -17 41 -36 27 -63 -9 -17 -8 -23 5 -30 22 -12 20 -45 -2 -50 -25 -7 -65 9 -60 24 3 7 -6 21 -19 31 -29 23 -32 81 -6 96 10 5 20 8 23 7 3 -1 17 -8 32 -15z m-117 -32 c0 -28 -36 -39 -61 -19 -21 18 -17 27 14 38 37 14 47 10 47 -19z m273 19 c7 -7 12 -25 12 -40 0 -22 -5 -28 -21 -28 -51 0 -80 47 -41 69 23 14 36 13 50 -1z m-73 -67 c0 -8 -4 -16 -10 -18 -16 -5 -38 14 -30 26 9 16 40 9 40 -8z m-300 -11 c4 -6 16 -5 33 1 61 23 126 -16 102 -61 -15 -28 -85 -28 -115 0 -18 17 -27 19 -49 10 -47 -18 -61 5 -24 40 24 22 43 26 53 10z m466 -141 c31 -61 33 -103 5 -80 -10 8 -16 9 -21 1 -10 -16 -21 -12 -55 22 -55 55 -62 105 -17 125 33 16 53 0 88 -68z m-497 50 c-3 -5 -10 -7 -15 -3 -5 3 -7 10 -3 15 3 5 10 7 15 3 5 -3 7 -10 3 -15z" transform="translate(0,114) scale(0.1,-0.1)" stroke="none" fill="#BED3B8"/>

</g>

</g>
<g id="row3" transform="translate(23,342.0)">
<g id="0" transform="translate(0.0,0)scale(1,1)">

<path d="M838 669 c-39 -22 -10 -69 41 -69 16 0 21 6 21 28 0 45 -26 62 -62 41z" transform="translate(0,114) scale(0.1,-0.1)" stroke="none" fill="#936C3F"/>

<path d="M1108 448 c-15 -48 -15 -55 -1 -70 19 -21 33 -15 33 14 0 15 4 18 18 13 50 -19 53 4 5 55 l-38 42 -17 -54z" transform="translate(0,114) scale(0.1,-0.1)" stroke="none" fill="#FBD984"/>

<path d="M634 229 c-8 -13 27 -89 47 -99 10 -6 37 -10 61 -10 40 0 41 1 22 14 -13 10 -21 27 -22 47 0 17 -3 34 -6 37 -10 9 -97 19 -102 11z" transform="translate(0,114) scale(0.1,-0.1)" stroke="none" fill="#FBD984"/>

<path d="M677 689 c-26 -15 -23 -73 6 -96 13 -10 22 -24 19 -31 -5 -15 35 -31 60 -24 22 5 24 38 2 50 -13 7 -14 13 -5 30 17 33 2 53 -59 78 -3 1 -13 -2 -23 -7z" transform="translate(0,114) scale(0.1,-0.1)" stroke="none" fill="#936C3F"/>

<path d="M462 580 c-37 -35 -23 -58 24 -40 22 9 31 7 49 -10 30 -28 100 -28 115 0 24 45 -41 84 -102 61 -17 -6 -29 -7 -33 -1 -10 16 -29 12 -53 -10z" transform="translate(0,114) scale(0.1,-0.1)" stroke="none" fill="#936C3F"/>

<path d="M893 517 c-45 -20 -38 -70 17 -125 34 -34 45 -38 55 -22 5 8 11 7 21 -1 28 -23 26 19 -5 80 -35 68 -55 84 -88 68z" transform="translate(0,114) scale(0.1,-0.1)" stroke="none" fill="#FBD984"/>

<path d="M1247 1070 c-58 -10 -147 -52 -178 -84 -12 -13 -35 -60 -51 -106 -47 -133 -91 -183 -156 -178 -16 2 -21 7 -17 18 5 12 4 13 -6 3 -7 -7 -22 -13 -33 -13 -17 0 -18 -2 -6 -10 12 -7 12 -12 2 -22 -10 -10 -14 -9 -18 9 -7 25 -23 33 -84 39 -25 3 -51 7 -58 10 -7 2 -11 0 -8 -5 7 -11 -22 -23 -36 -14 -6 3 -8 2 -5 -4 3 -5 -22 -22 -55 -37 -34 -16 -73 -43 -87 -60 -14 -17 -44 -48 -66 -70 l-39 -39 -103 7 c-57 4 -115 11 -130 17 -14 5 -28 7 -31 5 -21 -21 160 -201 258 -257 107 -60 110 -63 110 -125 0 -55 0 -55 43 -74 23 -11 58 -20 77 -20 l35 0 -32 22 c-34 24 -40 45 -23 76 5 9 16 34 24 55 14 34 33 46 50 30 9 -9 25 -12 126 -19 162 -12 260 26 311 119 21 39 28 45 39 34 12 -10 12 -9 3 3 -9 12 -8 28 5 68 15 43 20 50 31 40 11 -11 11 -10 1 8 -14 24 3 89 48 179 43 88 41 87 164 79 118 -7 128 -2 86 44 l-23 25 25 -6 c14 -3 38 -9 54 -13 22 -5 27 -4 21 6 -6 9 1 11 30 8 76 -9 120 75 80 152 -41 79 -221 126 -378 100z m187 -125 c16 -12 22 -12 34 -2 12 10 14 9 10 -3 -7 -23 -42 -23 -63 0 -21 23 -9 26 19 5z m-84 -40 c16 -19 5 -47 -16 -43 -27 5 -42 37 -24 48 20 13 26 12 40 -5z m-618 -224 c33 -17 41 -36 27 -63 -9 -17 -8 -23 5 -30 22 -12 20 -45 -2 -50 -25 -7 -65 9 -60 24 3 7 -6 21 -19 31 -29 23 -32 81 -6 96 10 5 20 8 23 7 3 -1 17 -8 32 -15z m-117 -32 c0 -28 -36 -39 -61 -19 -21 18 -17 27 14 38 37 14 47 10 47 -19z m273 19 c7 -7 12 -25 12 -40 0 -22 -5 -28 -21 -28 -51 0 -80 47 -41 69 23 14 36 13 50 -1z m-73 -67 c0 -8 -4 -16 -10 -18 -16 -5 -38 14 -30 26 9 16 40 9 40 -8z m-300 -11 c4 -6 16 -5 33 1 61 23 126 -16 102 -61 -15 -28 -85 -28 -115 0 -18 17 -27 19 -49 10 -47 -18 -61 5 -24 40 24 22 43 26 53 10z m466 -141 c31 -61 33 -103 5 -80 -10 8 -16 9 -21 1 -10 -16 -21 -12 -55 22 -55 55 -62 105 -17 125 33 16 53 0 88 -68z m-497 50 c-3 -5 -10 -7 -15 -3 -5 3 -7 10 -3 15 3 5 10 7 15 3 5 -3 7 -10 3 -15z" transform="translate(0,114) scale(0.1,-0.1)" stroke="none" fill="#BED3B8"/>

</g>

<g id="1" transform="translate(173.0,0)scale(1,1)">

<path d="M838 669 c-39 -22 -10 -69 41 -69 16 0 21 6 21 28 0 45 -26 62 -62 41z" transform="translate(0,114) scale(0.1,-0.1)" stroke="none" fill="#936C3F"/>

<path d="M1108 448 c-15 -48 -15 -55 -1 -70 19 -21 33 -15 33 14 0 15 4 18 18 13 50 -19 53 4 5 55 l-38 42 -17 -54z" transform="translate(0,114) scale(0.1,-0.1)" stroke="none" fill="#FBD984"/>

<path d="M634 229 c-8 -13 27 -89 47 -99 10 -6 37 -10 61 -10 40 0 41 1 22 14 -13 10 -21 27 -22 47 0 17 -3 34 -6 37 -10 9 -97 19 -102 11z" transform="translate(0,114) scale(0.1,-0.1)" stroke="none" fill="#FBD984"/>

<path d="M677 689 c-26 -15 -23 -73 6 -96 13 -10 22 -24 19 -31 -5 -15 35 -31 60 -24 22 5 24 38 2 50 -13 7 -14 13 -5 30 17 33 2 53 -59 78 -3 1 -13 -2 -23 -7z" transform="translate(0,114) scale(0.1,-0.1)" stroke="none" fill="#936C3F"/>

<path d="M462 580 c-37 -35 -23 -58 24 -40 22 9 31 7 49 -10 30 -28 100 -28 115 0 24 45 -41 84 -102 61 -17 -6 -29 -7 -33 -1 -10 16 -29 12 -53 -10z" transform="translate(0,114) scale(0.1,-0.1)" stroke="none" fill="#936C3F"/>

<path d="M893 517 c-45 -20 -38 -70 17 -125 34 -34 45 -38 55 -22 5 8 11 7 21 -1 28 -23 26 19 -5 80 -35 68 -55 84 -88 68z" transform="translate(0,114) scale(0.1,-0.1)" stroke="none" fill="#FBD984"/>

<path d="M1247 1070 c-58 -10 -147 -52 -178 -84 -12 -13 -35 -60 -51 -106 -47 -133 -91 -183 -156 -178 -16 2 -21 7 -17 18 5 12 4 13 -6 3 -7 -7 -22 -13 -33 -13 -17 0 -18 -2 -6 -10 12 -7 12 -12 2 -22 -10 -10 -14 -9 -18 9 -7 25 -23 33 -84 39 -25 3 -51 7 -58 10 -7 2 -11 0 -8 -5 7 -11 -22 -23 -36 -14 -6 3 -8 2 -5 -4 3 -5 -22 -22 -55 -37 -34 -16 -73 -43 -87 -60 -14 -17 -44 -48 -66 -70 l-39 -39 -103 7 c-57 4 -115 11 -130 17 -14 5 -28 7 -31 5 -21 -21 160 -201 258 -257 107 -60 110 -63 110 -125 0 -55 0 -55 43 -74 23 -11 58 -20 77 -20 l35 0 -32 22 c-34 24 -40 45 -23 76 5 9 16 34 24 55 14 34 33 46 50 30 9 -9 25 -12 126 -19 162 -12 260 26 311 119 21 39 28 45 39 34 12 -10 12 -9 3 3 -9 12 -8 28 5 68 15 43 20 50 31 40 11 -11 11 -10 1 8 -14 24 3 89 48 179 43 88 41 87 164 79 118 -7 128 -2 86 44 l-23 25 25 -6 c14 -3 38 -9 54 -13 22 -5 27 -4 21 6 -6 9 1 11 30 8 76 -9 120 75 80 152 -41 79 -221 126 -378 100z m187 -125 c16 -12 22 -12 34 -2 12 10 14 9 10 -3 -7 -23 -42 -23 -63 0 -21 23 -9 26 19 5z m-84 -40 c16 -19 5 -47 -16 -43 -27 5 -42 37 -24 48 20 13 26 12 40 -5z m-618 -224 c33 -17 41 -36 27 -63 -9 -17 -8 -23 5 -30 22 -12 20 -45 -2 -50 -25 -7 -65 9 -60 24 3 7 -6 21 -19 31 -29 23 -32 81 -6 96 10 5 20 8 23 7 3 -1 17 -8 32 -15z m-117 -32 c0 -28 -36 -39 -61 -19 -21 18 -17 27 14 38 37 14 47 10 47 -19z m273 19 c7 -7 12 -25 12 -40 0 -22 -5 -28 -21 -28 -51 0 -80 47 -41 69 23 14 36 13 50 -1z m-73 -67 c0 -8 -4 -16 -10 -18 -16 -5 -38 14 -30 26 9 16 40 9 40 -8z m-300 -11 c4 -6 16 -5 33 1 61 23 126 -16 102 -61 -15 -28 -85 -28 -115 0 -18 17 -27 19 -49 10 -47 -18 -61 5 -24 40 24 22 43 26 53 10z m466 -141 c31 -61 33 -103 5 -80 -10 8 -16 9 -21 1 -10 -16 -21 -12 -55 22 -55 55 -62 105 -17 125 33 16 53 0 88 -68z m-497 50 c-3 -5 -10 -7 -15 -3 -5 3 -7 10 -3 15 3 5 10 7 15 3 5 -3 7 -10 3 -15z" transform="translate(0,114) scale(0.1,-0.1)" stroke="none" fill="#BED3B8"/>

</g>

<g id="2" transform="translate(346.0,0)scale(1,1)">

<path d="M838 669 c-39 -22 -10 -69 41 -69 16 0 21 6 21 28 0 45 -26 62 -62 41z" transform="translate(0,114) scale(0.1,-0.1)" stroke="none" fill="#936C3F"/>

<path d="M1108 448 c-15 -48 -15 -55 -1 -70 19 -21 33 -15 33 14 0 15 4 18 18 13 50 -19 53 4 5 55 l-38 42 -17 -54z" transform="translate(0,114) scale(0.1,-0.1)" stroke="none" fill="#FBD984"/>

<path d="M634 229 c-8 -13 27 -89 47 -99 10 -6 37 -10 61 -10 40 0 41 1 22 14 -13 10 -21 27 -22 47 0 17 -3 34 -6 37 -10 9 -97 19 -102 11z" transform="translate(0,114) scale(0.1,-0.1)" stroke="none" fill="#FBD984"/>

<path d="M677 689 c-26 -15 -23 -73 6 -96 13 -10 22 -24 19 -31 -5 -15 35 -31 60 -24 22 5 24 38 2 50 -13 7 -14 13 -5 30 17 33 2 53 -59 78 -3 1 -13 -2 -23 -7z" transform="translate(0,114) scale(0.1,-0.1)" stroke="none" fill="#936C3F"/>

<path d="M462 580 c-37 -35 -23 -58 24 -40 22 9 31 7 49 -10 30 -28 100 -28 115 0 24 45 -41 84 -102 61 -17 -6 -29 -7 -33 -1 -10 16 -29 12 -53 -10z" transform="translate(0,114) scale(0.1,-0.1)" stroke="none" fill="#936C3F"/>

<path d="M893 517 c-45 -20 -38 -70 17 -125 34 -34 45 -38 55 -22 5 8 11 7 21 -1 28 -23 26 19 -5 80 -35 68 -55 84 -88 68z" transform="translate(0,114) scale(0.1,-0.1)" stroke="none" fill="#FBD984"/>

<path d="M1247 1070 c-58 -10 -147 -52 -178 -84 -12 -13 -35 -60 -51 -106 -47 -133 -91 -183 -156 -178 -16 2 -21 7 -17 18 5 12 4 13 -6 3 -7 -7 -22 -13 -33 -13 -17 0 -18 -2 -6 -10 12 -7 12 -12 2 -22 -10 -10 -14 -9 -18 9 -7 25 -23 33 -84 39 -25 3 -51 7 -58 10 -7 2 -11 0 -8 -5 7 -11 -22 -23 -36 -14 -6 3 -8 2 -5 -4 3 -5 -22 -22 -55 -37 -34 -16 -73 -43 -87 -60 -14 -17 -44 -48 -66 -70 l-39 -39 -103 7 c-57 4 -115 11 -130 17 -14 5 -28 7 -31 5 -21 -21 160 -201 258 -257 107 -60 110 -63 110 -125 0 -55 0 -55 43 -74 23 -11 58 -20 77 -20 l35 0 -32 22 c-34 24 -40 45 -23 76 5 9 16 34 24 55 14 34 33 46 50 30 9 -9 25 -12 126 -19 162 -12 260 26 311 119 21 39 28 45 39 34 12 -10 12 -9 3 3 -9 12 -8 28 5 68 15 43 20 50 31 40 11 -11 11 -10 1 8 -14 24 3 89 48 179 43 88 41 87 164 79 118 -7 128 -2 86 44 l-23 25 25 -6 c14 -3 38 -9 54 -13 22 -5 27 -4 21 6 -6 9 1 11 30 8 76 -9 120 75 80 152 -41 79 -221 126 -378 100z m187 -125 c16 -12 22 -12 34 -2 12 10 14 9 10 -3 -7 -23 -42 -23 -63 0 -21 23 -9 26 19 5z m-84 -40 c16 -19 5 -47 -16 -43 -27 5 -42 37 -24 48 20 13 26 12 40 -5z m-618 -224 c33 -17 41 -36 27 -63 -9 -17 -8 -23 5 -30 22 -12 20 -45 -2 -50 -25 -7 -65 9 -60 24 3 7 -6 21 -19 31 -29 23 -32 81 -6 96 10 5 20 8 23 7 3 -1 17 -8 32 -15z m-117 -32 c0 -28 -36 -39 -61 -19 -21 18 -17 27 14 38 37 14 47 10 47 -19z m273 19 c7 -7 12 -25 12 -40 0 -22 -5 -28 -21 -28 -51 0 -80 47 -41 69 23 14 36 13 50 -1z m-73 -67 c0 -8 -4 -16 -10 -18 -16 -5 -38 14 -30 26 9 16 40 9 40 -8z m-300 -11 c4 -6 16 -5 33 1 61 23 126 -16 102 -61 -15 -28 -85 -28 -115 0 -18 17 -27 19 -49 10 -47 -18 -61 5 -24 40 24 22 43 26 53 10z m466 -141 c31 -61 33 -103 5 -80 -10 8 -16 9 -21 1 -10 -16 -21 -12 -55 22 -55 55 -62 105 -17 125 33 16 53 0 88 -68z m-497 50 c-3 -5 -10 -7 -15 -3 -5 3 -7 10 -3 15 3 5 10 7 15 3 5 -3 7 -10 3 -15z" transform="translate(0,114) scale(0.1,-0.1)" stroke="none" fill="#BED3B8"/>

</g>

<g id="3" transform="translate(519.0,0)scale(1,1)">

<path d="M838 669 c-39 -22 -10 -69 41 -69 16 0 21 6 21 28 0 45 -26 62 -62 41z" transform="translate(0,114) scale(0.1,-0.1)" stroke="none" fill="#936C3F"/>

<path d="M1108 448 c-15 -48 -15 -55 -1 -70 19 -21 33 -15 33 14 0 15 4 18 18 13 50 -19 53 4 5 55 l-38 42 -17 -54z" transform="translate(0,114) scale(0.1,-0.1)" stroke="none" fill="#FBD984"/>

<path d="M634 229 c-8 -13 27 -89 47 -99 10 -6 37 -10 61 -10 40 0 41 1 22 14 -13 10 -21 27 -22 47 0 17 -3 34 -6 37 -10 9 -97 19 -102 11z" transform="translate(0,114) scale(0.1,-0.1)" stroke="none" fill="#FBD984"/>

<path d="M677 689 c-26 -15 -23 -73 6 -96 13 -10 22 -24 19 -31 -5 -15 35 -31 60 -24 22 5 24 38 2 50 -13 7 -14 13 -5 30 17 33 2 53 -59 78 -3 1 -13 -2 -23 -7z" transform="translate(0,114) scale(0.1,-0.1)" stroke="none" fill="#936C3F"/>

<path d="M462 580 c-37 -35 -23 -58 24 -40 22 9 31 7 49 -10 30 -28 100 -28 115 0 24 45 -41 84 -102 61 -17 -6 -29 -7 -33 -1 -10 16 -29 12 -53 -10z" transform="translate(0,114) scale(0.1,-0.1)" stroke="none" fill="#936C3F"/>

<path d="M893 517 c-45 -20 -38 -70 17 -125 34 -34 45 -38 55 -22 5 8 11 7 21 -1 28 -23 26 19 -5 80 -35 68 -55 84 -88 68z" transform="translate(0,114) scale(0.1,-0.1)" stroke="none" fill="#FBD984"/>

<path d="M1247 1070 c-58 -10 -147 -52 -178 -84 -12 -13 -35 -60 -51 -106 -47 -133 -91 -183 -156 -178 -16 2 -21 7 -17 18 5 12 4 13 -6 3 -7 -7 -22 -13 -33 -13 -17 0 -18 -2 -6 -10 12 -7 12 -12 2 -22 -10 -10 -14 -9 -18 9 -7 25 -23 33 -84 39 -25 3 -51 7 -58 10 -7 2 -11 0 -8 -5 7 -11 -22 -23 -36 -14 -6 3 -8 2 -5 -4 3 -5 -22 -22 -55 -37 -34 -16 -73 -43 -87 -60 -14 -17 -44 -48 -66 -70 l-39 -39 -103 7 c-57 4 -115 11 -130 17 -14 5 -28 7 -31 5 -21 -21 160 -201 258 -257 107 -60 110 -63 110 -125 0 -55 0 -55 43 -74 23 -11 58 -20 77 -20 l35 0 -32 22 c-34 24 -40 45 -23 76 5 9 16 34 24 55 14 34 33 46 50 30 9 -9 25 -12 126 -19 162 -12 260 26 311 119 21 39 28 45 39 34 12 -10 12 -9 3 3 -9 12 -8 28 5 68 15 43 20 50 31 40 11 -11 11 -10 1 8 -14 24 3 89 48 179 43 88 41 87 164 79 118 -7 128 -2 86 44 l-23 25 25 -6 c14 -3 38 -9 54 -13 22 -5 27 -4 21 6 -6 9 1 11 30 8 76 -9 120 75 80 152 -41 79 -221 126 -378 100z m187 -125 c16 -12 22 -12 34 -2 12 10 14 9 10 -3 -7 -23 -42 -23 -63 0 -21 23 -9 26 19 5z m-84 -40 c16 -19 5 -47 -16 -43 -27 5 -42 37 -24 48 20 13 26 12 40 -5z m-618 -224 c33 -17 41 -36 27 -63 -9 -17 -8 -23 5 -30 22 -12 20 -45 -2 -50 -25 -7 -65 9 -60 24 3 7 -6 21 -19 31 -29 23 -32 81 -6 96 10 5 20 8 23 7 3 -1 17 -8 32 -15z m-117 -32 c0 -28 -36 -39 -61 -19 -21 18 -17 27 14 38 37 14 47 10 47 -19z m273 19 c7 -7 12 -25 12 -40 0 -22 -5 -28 -21 -28 -51 0 -80 47 -41 69 23 14 36 13 50 -1z m-73 -67 c0 -8 -4 -16 -10 -18 -16 -5 -38 14 -30 26 9 16 40 9 40 -8z m-300 -11 c4 -6 16 -5 33 1 61 23 126 -16 102 -61 -15 -28 -85 -28 -115 0 -18 17 -27 19 -49 10 -47 -18 -61 5 -24 40 24 22 43 26 53 10z m466 -141 c31 -61 33 -103 5 -80 -10 8 -16 9 -21 1 -10 -16 -21 -12 -55 22 -55 55 -62 105 -17 125 33 16 53 0 88 -68z m-497 50 c-3 -5 -10 -7 -15 -3 -5 3 -7 10 -3 15 3 5 10 7 15 3 5 -3 7 -10 3 -15z" transform="translate(0,114) scale(0.1,-0.1)" stroke="none" fill="#BED3B8"/>

</g>

<g id="4" transform="translate(692.0,0)scale(1,1)">

<path d="M838 669 c-39 -22 -10 -69 41 -69 16 0 21 6 21 28 0 45 -26 62 -62 41z" transform="translate(0,114) scale(0.1,-0.1)" stroke="none" fill="#936C3F"/>

<path d="M1108 448 c-15 -48 -15 -55 -1 -70 19 -21 33 -15 33 14 0 15 4 18 18 13 50 -19 53 4 5 55 l-38 42 -17 -54z" transform="translate(0,114) scale(0.1,-0.1)" stroke="none" fill="#FBD984"/>

<path d="M634 229 c-8 -13 27 -89 47 -99 10 -6 37 -10 61 -10 40 0 41 1 22 14 -13 10 -21 27 -22 47 0 17 -3 34 -6 37 -10 9 -97 19 -102 11z" transform="translate(0,114) scale(0.1,-0.1)" stroke="none" fill="#FBD984"/>

<path d="M677 689 c-26 -15 -23 -73 6 -96 13 -10 22 -24 19 -31 -5 -15 35 -31 60 -24 22 5 24 38 2 50 -13 7 -14 13 -5 30 17 33 2 53 -59 78 -3 1 -13 -2 -23 -7z" transform="translate(0,114) scale(0.1,-0.1)" stroke="none" fill="#936C3F"/>

<path d="M462 580 c-37 -35 -23 -58 24 -40 22 9 31 7 49 -10 30 -28 100 -28 115 0 24 45 -41 84 -102 61 -17 -6 -29 -7 -33 -1 -10 16 -29 12 -53 -10z" transform="translate(0,114) scale(0.1,-0.1)" stroke="none" fill="#936C3F"/>

<path d="M893 517 c-45 -20 -38 -70 17 -125 34 -34 45 -38 55 -22 5 8 11 7 21 -1 28 -23 26 19 -5 80 -35 68 -55 84 -88 68z" transform="translate(0,114) scale(0.1,-0.1)" stroke="none" fill="#FBD984"/>

<path d="M1247 1070 c-58 -10 -147 -52 -178 -84 -12 -13 -35 -60 -51 -106 -47 -133 -91 -183 -156 -178 -16 2 -21 7 -17 18 5 12 4 13 -6 3 -7 -7 -22 -13 -33 -13 -17 0 -18 -2 -6 -10 12 -7 12 -12 2 -22 -10 -10 -14 -9 -18 9 -7 25 -23 33 -84 39 -25 3 -51 7 -58 10 -7 2 -11 0 -8 -5 7 -11 -22 -23 -36 -14 -6 3 -8 2 -5 -4 3 -5 -22 -22 -55 -37 -34 -16 -73 -43 -87 -60 -14 -17 -44 -48 -66 -70 l-39 -39 -103 7 c-57 4 -115 11 -130 17 -14 5 -28 7 -31 5 -21 -21 160 -201 258 -257 107 -60 110 -63 110 -125 0 -55 0 -55 43 -74 23 -11 58 -20 77 -20 l35 0 -32 22 c-34 24 -40 45 -23 76 5 9 16 34 24 55 14 34 33 46 50 30 9 -9 25 -12 126 -19 162 -12 260 26 311 119 21 39 28 45 39 34 12 -10 12 -9 3 3 -9 12 -8 28 5 68 15 43 20 50 31 40 11 -11 11 -10 1 8 -14 24 3 89 48 179 43 88 41 87 164 79 118 -7 128 -2 86 44 l-23 25 25 -6 c14 -3 38 -9 54 -13 22 -5 27 -4 21 6 -6 9 1 11 30 8 76 -9 120 75 80 152 -41 79 -221 126 -378 100z m187 -125 c16 -12 22 -12 34 -2 12 10 14 9 10 -3 -7 -23 -42 -23 -63 0 -21 23 -9 26 19 5z m-84 -40 c16 -19 5 -47 -16 -43 -27 5 -42 37 -24 48 20 13 26 12 40 -5z m-618 -224 c33 -17 41 -36 27 -63 -9 -17 -8 -23 5 -30 22 -12 20 -45 -2 -50 -25 -7 -65 9 -60 24 3 7 -6 21 -19 31 -29 23 -32 81 -6 96 10 5 20 8 23 7 3 -1 17 -8 32 -15z m-117 -32 c0 -28 -36 -39 -61 -19 -21 18 -17 27 14 38 37 14 47 10 47 -19z m273 19 c7 -7 12 -25 12 -40 0 -22 -5 -28 -21 -28 -51 0 -80 47 -41 69 23 14 36 13 50 -1z m-73 -67 c0 -8 -4 -16 -10 -18 -16 -5 -38 14 -30 26 9 16 40 9 40 -8z m-300 -11 c4 -6 16 -5 33 1 61 23 126 -16 102 -61 -15 -28 -85 -28 -115 0 -18 17 -27 19 -49 10 -47 -18 -61 5 -24 40 24 22 43 26 53 10z m466 -141 c31 -61 33 -103 5 -80 -10 8 -16 9 -21 1 -10 -16 -21 -12 -55 22 -55 55 -62 105 -17 125 33 16 53 0 88 -68z m-497 50 c-3 -5 -10 -7 -15 -3 -5 3 -7 10 -3 15 3 5 10 7 15 3 5 -3 7 -10 3 -15z" transform="translate(0,114) scale(0.1,-0.1)" stroke="none" fill="#BED3B8"/>

</g>

</g>
</svg>