<?xml version="1.0" standalone="no"?>
<!DOCTYPE svg PUBLIC "-//W3C//DTD SVG 20010904//EN"
 "http://www.w3.org/TR/2001/REC-SVG-20010904/DTD/svg10.dtd">
<svg version="1.0" xmlns="http://www.w3.org/2000/svg" width="264pt" height="416pt" viewBox="0 0 264 416" preserveAspectRatio = "xMidYMid meet" >
<metadata>
Created by ZoeQu, written in 2022
</metadata>
<rect width="264" height="416" fill="#4D3725"/>
<g id="row0" transform="translate(8,0.0)">
<g id="0" transform="translate(0.0,0)scale(1,1)">

<path d="M164 897 c-22 -19 -27 -33 -28 -71 -1 -41 3 -51 27 -72 54 -46 135 -24 157 42 14 41 0 86 -34 109 -32 23 -90 19 -122 -8z" transform="translate(0,104) scale(0.1,-0.1)" stroke="none" fill="#C9814D"/>

<path d="M515 739 c-19 -17 -35 -37 -35 -44 0 -7 -7 -18 -15 -25 -19 -16 -45 -68 -45 -91 0 -10 -4 -20 -9 -23 -5 -3 -12 -22 -15 -41 -4 -20 -11 -33 -16 -30 -4 3 -17 35 -29 72 -11 38 -27 77 -35 88 -31 43 -28 -14 8 -127 34 -110 69 -263 81 -363 4 -27 9 -58 12 -67 4 -18 28 -24 37 -10 5 8 -25 198 -45 279 -13 55 -4 83 28 83 25 0 101 50 127 84 46 61 70 145 56 196 -17 59 -52 65 -105 19z" transform="translate(0,104) scale(0.1,-0.1)" stroke="none" fill="#C9814D"/>

</g>

<g id="1" transform="translate(66.0,0)scale(1,1)">

<path d="M164 897 c-22 -19 -27 -33 -28 -71 -1 -41 3 -51 27 -72 54 -46 135 -24 157 42 14 41 0 86 -34 109 -32 23 -90 19 -122 -8z" transform="translate(0,104) scale(0.1,-0.1)" stroke="none" fill="#C9814D"/>

<path d="M515 739 c-19 -17 -35 -37 -35 -44 0 -7 -7 -18 -15 -25 -19 -16 -45 -68 -45 -91 0 -10 -4 -20 -9 -23 -5 -3 -12 -22 -15 -41 -4 -20 -11 -33 -16 -30 -4 3 -17 35 -29 72 -11 38 -27 77 -35 88 -31 43 -28 -14 8 -127 34 -110 69 -263 81 -363 4 -27 9 -58 12 -67 4 -18 28 -24 37 -10 5 8 -25 198 -45 279 -13 55 -4 83 28 83 25 0 101 50 127 84 46 61 70 145 56 196 -17 59 -52 65 -105 19z" transform="translate(0,104) scale(0.1,-0.1)" stroke="none" fill="#C9814D"/>

</g>

<g id="2" transform="translate(132.0,0)scale(1,1)">

<path d="M164 897 c-22 -19 -27 -33 -28 -71 -1 -41 3 -51 27 -72 54 -46 135 -24 157 42 14 41 0 86 -34 109 -32 23 -90 19 -122 -8z" transform="translate(0,104) scale(0.1,-0.1)" stroke="none" fill="#C9814D"/>

<path d="M515 739 c-19 -17 -35 -37 -35 -44 0 -7 -7 -18 -15 -25 -19 -16 -45 -68 -45 -91 0 -10 -4 -20 -9 -23 -5 -3 -12 -22 -15 -41 -4 -20 -11 -33 -16 -30 -4 3 -17 35 -29 72 -11 38 -27 77 -35 88 -31 43 -28 -14 8 -127 34 -110 69 -263 81 -363 4 -27 9 -58 12 -67 4 -18 28 -24 37 -10 5 8 -25 198 -45 279 -13 55 -4 83 28 83 25 0 101 50 127 84 46 61 70 145 56 196 -17 59 -52 65 -105 19z" transform="translate(0,104) scale(0.1,-0.1)" stroke="none" fill="#C9814D"/>

</g>

<g id="3" transform="translate(198.0,0)scale(1,1)">

<path d="M164 897 c-22 -19 -27 -33 -28 -71 -1 -41 3 -51 27 -72 54 -46 135 -24 157 42 14 41 0 86 -34 109 -32 23 -90 19 -122 -8z" transform="translate(0,104) scale(0.1,-0.1)" stroke="none" fill="#C9814D"/>

<path d="M515 739 c-19 -17 -35 -37 -35 -44 0 -7 -7 -18 -15 -25 -19 -16 -45 -68 -45 -91 0 -10 -4 -20 -9 -23 -5 -3 -12 -22 -15 -41 -4 -20 -11 -33 -16 -30 -4 3 -17 35 -29 72 -11 38 -27 77 -35 88 -31 43 -28 -14 8 -127 34 -110 69 -263 81 -363 4 -27 9 -58 12 -67 4 -18 28 -24 37 -10 5 8 -25 198 -45 279 -13 55 -4 83 28 83 25 0 101 50 127 84 46 61 70 145 56 196 -17 59 -52 65 -105 19z" transform="translate(0,104) scale(0.1,-0.1)" stroke="none" fill="#C9814D"/>

</g>

<g id="4" transform="translate(264.0,0)scale(1,1)">

<path d="M164 897 c-22 -19 -27 -33 -28 -71 -1 -41 3 -51 27 -72 54 -46 135 -24 157 42 14 41 0 86 -34 109 -32 23 -90 19 -122 -8z" transform="translate(0,104) scale(0.1,-0.1)" stroke="none" fill="#C9814D"/>

<path d="M515 739 c-19 -17 -35 -37 -35 -44 0 -7 -7 -18 -15 -25 -19 -16 -45 -68 -45 -91 0 -10 -4 -20 -9 -23 -5 -3 -12 -22 -15 -41 -4 -20 -11 -33 -16 -30 -4 3 -17 35 -29 72 -11 38 -27 77 -35 88 -31 43 -28 -14 8 -127 34 -110 69 -263 81 -363 4 -27 9 -58 12 -67 4 -18 28 -24 37 -10 5 8 -25 198 -45 279 -13 55 -4 83 28 83 25 0 101 50 127 84 46 61 70 145 56 196 -17 59 -52 65 -105 19z" transform="translate(0,104) scale(0.1,-0.1)" stroke="none" fill="#C9814D"/>

</g>

</g>
<g id="row1" transform="translate(-25,104.0)">
<g id="0" transform="translate(0.0,0)scale(1,1)">

<path d="M164 897 c-22 -19 -27 -33 -28 -71 -1 -41 3 -51 27 -72 54 -46 135 -24 157 42 14 41 0 86 -34 109 -32 23 -90 19 -122 -8z" transform="translate(0,104) scale(0.1,-0.1)" stroke="none" fill="#C9814D"/>

<path d="M515 739 c-19 -17 -35 -37 -35 -44 0 -7 -7 -18 -15 -25 -19 -16 -45 -68 -45 -91 0 -10 -4 -20 -9 -23 -5 -3 -12 -22 -15 -41 -4 -20 -11 -33 -16 -30 -4 3 -17 35 -29 72 -11 38 -27 77 -35 88 -31 43 -28 -14 8 -127 34 -110 69 -263 81 -363 4 -27 9 -58 12 -67 4 -18 28 -24 37 -10 5 8 -25 198 -45 279 -13 55 -4 83 28 83 25 0 101 50 127 84 46 61 70 145 56 196 -17 59 -52 65 -105 19z" transform="translate(0,104) scale(0.1,-0.1)" stroke="none" fill="#C9814D"/>

</g>

<g id="1" transform="translate(66.0,0)scale(1,1)">

<path d="M164 897 c-22 -19 -27 -33 -28 -71 -1 -41 3 -51 27 -72 54 -46 135 -24 157 42 14 41 0 86 -34 109 -32 23 -90 19 -122 -8z" transform="translate(0,104) scale(0.1,-0.1)" stroke="none" fill="#C9814D"/>

<path d="M515 739 c-19 -17 -35 -37 -35 -44 0 -7 -7 -18 -15 -25 -19 -16 -45 -68 -45 -91 0 -10 -4 -20 -9 -23 -5 -3 -12 -22 -15 -41 -4 -20 -11 -33 -16 -30 -4 3 -17 35 -29 72 -11 38 -27 77 -35 88 -31 43 -28 -14 8 -127 34 -110 69 -263 81 -363 4 -27 9 -58 12 -67 4 -18 28 -24 37 -10 5 8 -25 198 -45 279 -13 55 -4 83 28 83 25 0 101 50 127 84 46 61 70 145 56 196 -17 59 -52 65 -105 19z" transform="translate(0,104) scale(0.1,-0.1)" stroke="none" fill="#C9814D"/>

</g>

<g id="2" transform="translate(132.0,0)scale(1,1)">

<path d="M164 897 c-22 -19 -27 -33 -28 -71 -1 -41 3 -51 27 -72 54 -46 135 -24 157 42 14 41 0 86 -34 109 -32 23 -90 19 -122 -8z" transform="translate(0,104) scale(0.1,-0.1)" stroke="none" fill="#C9814D"/>

<path d="M515 739 c-19 -17 -35 -37 -35 -44 0 -7 -7 -18 -15 -25 -19 -16 -45 -68 -45 -91 0 -10 -4 -20 -9 -23 -5 -3 -12 -22 -15 -41 -4 -20 -11 -33 -16 -30 -4 3 -17 35 -29 72 -11 38 -27 77 -35 88 -31 43 -28 -14 8 -127 34 -110 69 -263 81 -363 4 -27 9 -58 12 -67 4 -18 28 -24 37 -10 5 8 -25 198 -45 279 -13 55 -4 83 28 83 25 0 101 50 127 84 46 61 70 145 56 196 -17 59 -52 65 -105 19z" transform="translate(0,104) scale(0.1,-0.1)" stroke="none" fill="#C9814D"/>

</g>

<g id="3" transform="translate(198.0,0)scale(1,1)">

<path d="M164 897 c-22 -19 -27 -33 -28 -71 -1 -41 3 -51 27 -72 54 -46 135 -24 157 42 14 41 0 86 -34 109 -32 23 -90 19 -122 -8z" transform="translate(0,104) scale(0.1,-0.1)" stroke="none" fill="#C9814D"/>

<path d="M515 739 c-19 -17 -35 -37 -35 -44 0 -7 -7 -18 -15 -25 -19 -16 -45 -68 -45 -91 0 -10 -4 -20 -9 -23 -5 -3 -12 -22 -15 -41 -4 -20 -11 -33 -16 -30 -4 3 -17 35 -29 72 -11 38 -27 77 -35 88 -31 43 -28 -14 8 -127 34 -110 69 -263 81 -363 4 -27 9 -58 12 -67 4 -18 28 -24 37 -10 5 8 -25 198 -45 279 -13 55 -4 83 28 83 25 0 101 50 127 84 46 61 70 145 56 196 -17 59 -52 65 -105 19z" transform="translate(0,104) scale(0.1,-0.1)" stroke="none" fill="#C9814D"/>

</g>

<g id="4" transform="translate(264.0,0)scale(1,1)">

<path d="M164 897 c-22 -19 -27 -33 -28 -71 -1 -41 3 -51 27 -72 54 -46 135 -24 157 42 14 41 0 86 -34 109 -32 23 -90 19 -122 -8z" transform="translate(0,104) scale(0.1,-0.1)" stroke="none" fill="#C9814D"/>

<path d="M515 739 c-19 -17 -35 -37 -35 -44 0 -7 -7 -18 -15 -25 -19 -16 -45 -68 -45 -91 0 -10 -4 -20 -9 -23 -5 -3 -12 -22 -15 -41 -4 -20 -11 -33 -16 -30 -4 3 -17 35 -29 72 -11 38 -27 77 -35 88 -31 43 -28 -14 8 -127 34 -110 69 -263 81 -363 4 -27 9 -58 12 -67 4 -18 28 -24 37 -10 5 8 -25 198 -45 279 -13 55 -4 83 28 83 25 0 101 50 127 84 46 61 70 145 56 196 -17 59 -52 65 -105 19z" transform="translate(0,104) scale(0.1,-0.1)" stroke="none" fill="#C9814D"/>

</g>

</g>
<g id="row2" transform="translate(8,208.0)">
<g id="0" transform="translate(0.0,0)scale(1,1)">

<path d="M164 897 c-22 -19 -27 -33 -28 -71 -1 -41 3 -51 27 -72 54 -46 135 -24 157 42 14 41 0 86 -34 109 -32 23 -90 19 -122 -8z" transform="translate(0,104) scale(0.1,-0.1)" stroke="none" fill="#C9814D"/>

<path d="M515 739 c-19 -17 -35 -37 -35 -44 0 -7 -7 -18 -15 -25 -19 -16 -45 -68 -45 -91 0 -10 -4 -20 -9 -23 -5 -3 -12 -22 -15 -41 -4 -20 -11 -33 -16 -30 -4 3 -17 35 -29 72 -11 38 -27 77 -35 88 -31 43 -28 -14 8 -127 34 -110 69 -263 81 -363 4 -27 9 -58 12 -67 4 -18 28 -24 37 -10 5 8 -25 198 -45 279 -13 55 -4 83 28 83 25 0 101 50 127 84 46 61 70 145 56 196 -17 59 -52 65 -105 19z" transform="translate(0,104) scale(0.1,-0.1)" stroke="none" fill="#C9814D"/>

</g>

<g id="1" transform="translate(66.0,0)scale(1,1)">

<path d="M164 897 c-22 -19 -27 -33 -28 -71 -1 -41 3 -51 27 -72 54 -46 135 -24 157 42 14 41 0 86 -34 109 -32 23 -90 19 -122 -8z" transform="translate(0,104) scale(0.1,-0.1)" stroke="none" fill="#C9814D"/>

<path d="M515 739 c-19 -17 -35 -37 -35 -44 0 -7 -7 -18 -15 -25 -19 -16 -45 -68 -45 -91 0 -10 -4 -20 -9 -23 -5 -3 -12 -22 -15 -41 -4 -20 -11 -33 -16 -30 -4 3 -17 35 -29 72 -11 38 -27 77 -35 88 -31 43 -28 -14 8 -127 34 -110 69 -263 81 -363 4 -27 9 -58 12 -67 4 -18 28 -24 37 -10 5 8 -25 198 -45 279 -13 55 -4 83 28 83 25 0 101 50 127 84 46 61 70 145 56 196 -17 59 -52 65 -105 19z" transform="translate(0,104) scale(0.1,-0.1)" stroke="none" fill="#C9814D"/>

</g>

<g id="2" transform="translate(132.0,0)scale(1,1)">

<path d="M164 897 c-22 -19 -27 -33 -28 -71 -1 -41 3 -51 27 -72 54 -46 135 -24 157 42 14 41 0 86 -34 109 -32 23 -90 19 -122 -8z" transform="translate(0,104) scale(0.1,-0.1)" stroke="none" fill="#C9814D"/>

<path d="M515 739 c-19 -17 -35 -37 -35 -44 0 -7 -7 -18 -15 -25 -19 -16 -45 -68 -45 -91 0 -10 -4 -20 -9 -23 -5 -3 -12 -22 -15 -41 -4 -20 -11 -33 -16 -30 -4 3 -17 35 -29 72 -11 38 -27 77 -35 88 -31 43 -28 -14 8 -127 34 -110 69 -263 81 -363 4 -27 9 -58 12 -67 4 -18 28 -24 37 -10 5 8 -25 198 -45 279 -13 55 -4 83 28 83 25 0 101 50 127 84 46 61 70 145 56 196 -17 59 -52 65 -105 19z" transform="translate(0,104) scale(0.1,-0.1)" stroke="none" fill="#C9814D"/>

</g>

<g id="3" transform="translate(198.0,0)scale(1,1)">

<path d="M164 897 c-22 -19 -27 -33 -28 -71 -1 -41 3 -51 27 -72 54 -46 135 -24 157 42 14 41 0 86 -34 109 -32 23 -90 19 -122 -8z" transform="translate(0,104) scale(0.1,-0.1)" stroke="none" fill="#C9814D"/>

<path d="M515 739 c-19 -17 -35 -37 -35 -44 0 -7 -7 -18 -15 -25 -19 -16 -45 -68 -45 -91 0 -10 -4 -20 -9 -23 -5 -3 -12 -22 -15 -41 -4 -20 -11 -33 -16 -30 -4 3 -17 35 -29 72 -11 38 -27 77 -35 88 -31 43 -28 -14 8 -127 34 -110 69 -263 81 -363 4 -27 9 -58 12 -67 4 -18 28 -24 37 -10 5 8 -25 198 -45 279 -13 55 -4 83 28 83 25 0 101 50 127 84 46 61 70 145 56 196 -17 59 -52 65 -105 19z" transform="translate(0,104) scale(0.1,-0.1)" stroke="none" fill="#C9814D"/>

</g>

<g id="4" transform="translate(264.0,0)scale(1,1)">

<path d="M164 897 c-22 -19 -27 -33 -28 -71 -1 -41 3 -51 27 -72 54 -46 135 -24 157 42 14 41 0 86 -34 109 -32 23 -90 19 -122 -8z" transform="translate(0,104) scale(0.1,-0.1)" stroke="none" fill="#C9814D"/>

<path d="M515 739 c-19 -17 -35 -37 -35 -44 0 -7 -7 -18 -15 -25 -19 -16 -45 -68 -45 -91 0 -10 -4 -20 -9 -23 -5 -3 -12 -22 -15 -41 -4 -20 -11 -33 -16 -30 -4 3 -17 35 -29 72 -11 38 -27 77 -35 88 -31 43 -28 -14 8 -127 34 -110 69 -263 81 -363 4 -27 9 -58 12 -67 4 -18 28 -24 37 -10 5 8 -25 198 -45 279 -13 55 -4 83 28 83 25 0 101 50 127 84 46 61 70 145 56 196 -17 59 -52 65 -105 19z" transform="translate(0,104) scale(0.1,-0.1)" stroke="none" fill="#C9814D"/>

</g>

</g>
<g id="row3" transform="translate(-25,312.0)">
<g id="0" transform="translate(0.0,0)scale(1,1)">

<path d="M164 897 c-22 -19 -27 -33 -28 -71 -1 -41 3 -51 27 -72 54 -46 135 -24 157 42 14 41 0 86 -34 109 -32 23 -90 19 -122 -8z" transform="translate(0,104) scale(0.1,-0.1)" stroke="none" fill="#C9814D"/>

<path d="M515 739 c-19 -17 -35 -37 -35 -44 0 -7 -7 -18 -15 -25 -19 -16 -45 -68 -45 -91 0 -10 -4 -20 -9 -23 -5 -3 -12 -22 -15 -41 -4 -20 -11 -33 -16 -30 -4 3 -17 35 -29 72 -11 38 -27 77 -35 88 -31 43 -28 -14 8 -127 34 -110 69 -263 81 -363 4 -27 9 -58 12 -67 4 -18 28 -24 37 -10 5 8 -25 198 -45 279 -13 55 -4 83 28 83 25 0 101 50 127 84 46 61 70 145 56 196 -17 59 -52 65 -105 19z" transform="translate(0,104) scale(0.1,-0.1)" stroke="none" fill="#C9814D"/>

</g>

<g id="1" transform="translate(66.0,0)scale(1,1)">

<path d="M164 897 c-22 -19 -27 -33 -28 -71 -1 -41 3 -51 27 -72 54 -46 135 -24 157 42 14 41 0 86 -34 109 -32 23 -90 19 -122 -8z" transform="translate(0,104) scale(0.1,-0.1)" stroke="none" fill="#C9814D"/>

<path d="M515 739 c-19 -17 -35 -37 -35 -44 0 -7 -7 -18 -15 -25 -19 -16 -45 -68 -45 -91 0 -10 -4 -20 -9 -23 -5 -3 -12 -22 -15 -41 -4 -20 -11 -33 -16 -30 -4 3 -17 35 -29 72 -11 38 -27 77 -35 88 -31 43 -28 -14 8 -127 34 -110 69 -263 81 -363 4 -27 9 -58 12 -67 4 -18 28 -24 37 -10 5 8 -25 198 -45 279 -13 55 -4 83 28 83 25 0 101 50 127 84 46 61 70 145 56 196 -17 59 -52 65 -105 19z" transform="translate(0,104) scale(0.1,-0.1)" stroke="none" fill="#C9814D"/>

</g>

<g id="2" transform="translate(132.0,0)scale(1,1)">

<path d="M164 897 c-22 -19 -27 -33 -28 -71 -1 -41 3 -51 27 -72 54 -46 135 -24 157 42 14 41 0 86 -34 109 -32 23 -90 19 -122 -8z" transform="translate(0,104) scale(0.1,-0.1)" stroke="none" fill="#C9814D"/>

<path d="M515 739 c-19 -17 -35 -37 -35 -44 0 -7 -7 -18 -15 -25 -19 -16 -45 -68 -45 -91 0 -10 -4 -20 -9 -23 -5 -3 -12 -22 -15 -41 -4 -20 -11 -33 -16 -30 -4 3 -17 35 -29 72 -11 38 -27 77 -35 88 -31 43 -28 -14 8 -127 34 -110 69 -263 81 -363 4 -27 9 -58 12 -67 4 -18 28 -24 37 -10 5 8 -25 198 -45 279 -13 55 -4 83 28 83 25 0 101 50 127 84 46 61 70 145 56 196 -17 59 -52 65 -105 19z" transform="translate(0,104) scale(0.1,-0.1)" stroke="none" fill="#C9814D"/>

</g>

<g id="3" transform="translate(198.0,0)scale(1,1)">

<path d="M164 897 c-22 -19 -27 -33 -28 -71 -1 -41 3 -51 27 -72 54 -46 135 -24 157 42 14 41 0 86 -34 109 -32 23 -90 19 -122 -8z" transform="translate(0,104) scale(0.1,-0.1)" stroke="none" fill="#C9814D"/>

<path d="M515 739 c-19 -17 -35 -37 -35 -44 0 -7 -7 -18 -15 -25 -19 -16 -45 -68 -45 -91 0 -10 -4 -20 -9 -23 -5 -3 -12 -22 -15 -41 -4 -20 -11 -33 -16 -30 -4 3 -17 35 -29 72 -11 38 -27 77 -35 88 -31 43 -28 -14 8 -127 34 -110 69 -263 81 -363 4 -27 9 -58 12 -67 4 -18 28 -24 37 -10 5 8 -25 198 -45 279 -13 55 -4 83 28 83 25 0 101 50 127 84 46 61 70 145 56 196 -17 59 -52 65 -105 19z" transform="translate(0,104) scale(0.1,-0.1)" stroke="none" fill="#C9814D"/>

</g>

<g id="4" transform="translate(264.0,0)scale(1,1)">

<path d="M164 897 c-22 -19 -27 -33 -28 -71 -1 -41 3 -51 27 -72 54 -46 135 -24 157 42 14 41 0 86 -34 109 -32 23 -90 19 -122 -8z" transform="translate(0,104) scale(0.1,-0.1)" stroke="none" fill="#C9814D"/>

<path d="M515 739 c-19 -17 -35 -37 -35 -44 0 -7 -7 -18 -15 -25 -19 -16 -45 -68 -45 -91 0 -10 -4 -20 -9 -23 -5 -3 -12 -22 -15 -41 -4 -20 -11 -33 -16 -30 -4 3 -17 35 -29 72 -11 38 -27 77 -35 88 -31 43 -28 -14 8 -127 34 -110 69 -263 81 -363 4 -27 9 -58 12 -67 4 -18 28 -24 37 -10 5 8 -25 198 -45 279 -13 55 -4 83 28 83 25 0 101 50 127 84 46 61 70 145 56 196 -17 59 -52 65 -105 19z" transform="translate(0,104) scale(0.1,-0.1)" stroke="none" fill="#C9814D"/>

</g>

</g>
</svg>