<?xml version="1.0" standalone="no"?>
<!DOCTYPE svg PUBLIC "-//W3C//DTD SVG 20010904//EN"
 "http://www.w3.org/TR/2001/REC-SVG-20010904/DTD/svg10.dtd">
<svg version="1.0" xmlns="http://www.w3.org/2000/svg" width="392pt" height="312pt" viewBox="0 0 392 312" preserveAspectRatio = "xMidYMid meet" >
<metadata>
Created by ZoeQu, written in 2022
</metadata>
<rect width="392" height="312" fill="#F7BF6C"/>
<g id="col0" transform="translate(0, 10)">
<g id="0" transform="translate(0,0.0)scale(0.8,0.8)">

<path d="M580 148 c-14 -6 -45 -14 -70 -18 l-45 -7 40 -1 c22 0 58 8 80 18 42 20 38 26 -5 8z" transform="translate(0,78) scale(0.1,-0.1)" stroke="none" fill="#D4944A"/>

<path d="M340 60 c30 -10 71 -19 90 -18 27 0 22 3 -25 12 -33 7 -73 16 -90 19 -16 4 -5 -2 25 -13z" transform="translate(0,78) scale(0.1,-0.1)" stroke="none" fill="#D4944A"/>

<path d="M260 143 c25 -8 70 -16 100 -18 l55 -4 -50 8 c-27 5 -68 13 -90 20 -57 16 -69 12 -15 -6z" transform="translate(0,78) scale(0.1,-0.1)" stroke="none" fill="#D4944A"/>

<path d="M856 702 c23 -25 59 -95 73 -142 l10 -35 -5 40 c-6 42 -63 146 -85 154 -7 2 -4 -6 7 -17z" transform="translate(0,78) scale(0.1,-0.1)" stroke="none" fill="#D4944A"/>

<path d="M60 253 c0 -34 143 -153 183 -153 7 0 -10 11 -37 25 -59 30 -80 47 -117 99 -16 21 -29 34 -29 29z" transform="translate(0,78) scale(0.1,-0.1)" stroke="none" fill="#81957C"/>

<path d="M756 280 c-20 -28 -57 -65 -81 -82 -25 -17 -43 -34 -40 -36 12 -12 129 103 159 156 18 30 -5 8 -38 -38z" transform="translate(0,78) scale(0.1,-0.1)" stroke="none" fill="#D4944A"/>

<path d="M829 174 c-74 -80 -161 -121 -284 -134 -65 -7 -66 -7 -20 -9 70 -2 178 31 233 70 48 34 53 39 86 77 27 31 15 28 -15 -4z" transform="translate(0,78) scale(0.1,-0.1)" stroke="none" fill="#D4944A"/>

<path d="M270 92 c64 -40 292 -60 379 -34 64 20 45 24 -24 5 -68 -17 -173 -13 -271 12 -32 9 -68 18 -79 21 -15 4 -17 3 -5 -4z" transform="translate(0,78) scale(0.1,-0.1)" stroke="none" fill="#81957C"/>

<path d="M549 261 c-66 -51 -166 -75 -293 -70 -59 3 -86 0 -86 -7 0 -17 27 -37 42 -31 8 4 7 6 -4 6 -10 1 -18 6 -18 11 0 6 36 10 88 10 127 1 252 37 291 84 18 21 9 20 -20 -3z" transform="translate(0,78) scale(0.1,-0.1)" stroke="none" fill="#81957C"/>

<path d="M750 424 c-79 -81 -193 -175 -240 -199 -19 -10 -57 -24 -85 -31 l-50 -13 45 6 c86 11 177 73 320 217 46 47 82 86 79 86 -2 0 -34 -30 -69 -66z" transform="translate(0,78) scale(0.1,-0.1)" stroke="none" fill="#D4944A"/>

<path d="M840 700 c0 -5 4 -10 9 -10 16 0 57 -83 71 -144 28 -120 -17 -279 -106 -378 l-48 -53 47 45 c94 88 146 261 117 386 -18 79 -90 202 -90 154z" transform="translate(0,78) scale(0.1,-0.1)" stroke="none" fill="#81957C"/>

<path d="M781 623 c-39 -59 -182 -203 -256 -259 -82 -64 -183 -94 -340 -104 l-110 -7 93 -1 c99 -2 206 20 292 60 48 22 150 107 238 198 50 51 139 170 128 170 -3 0 -23 -26 -45 -57z" transform="translate(0,78) scale(0.1,-0.1)" stroke="none" fill="#81957C"/>

<path d="M785 643 c-25 -48 -147 -176 -234 -247 -104 -85 -196 -116 -375 -125 -80 -4 -121 -10 -123 -18 -5 -13 79 -108 108 -124 9 -5 -9 18 -42 50 -32 33 -59 64 -59 70 0 7 35 11 100 11 69 0 124 6 178 20 134 36 168 57 316 200 81 78 178 200 159 200 -5 0 -17 -17 -28 -37z" transform="translate(0,78) scale(0.1,-0.1)" stroke="none" fill="#D4944A"/>

<path d="M716 406 c-72 -72 -107 -112 -80 -89 27 22 84 78 127 122 42 45 80 81 83 81 9 0 -3 -86 -18 -130 -19 -56 -77 -138 -128 -182 -75 -64 -146 -89 -260 -89 -53 0 -119 7 -150 15 -30 9 -56 13 -58 11 -6 -6 74 -26 138 -35 75 -11 154 -2 225 23 47 17 75 38 131 93 72 71 90 99 118 187 17 49 22 128 9 126 -5 -1 -66 -60 -137 -133z" transform="translate(0,78) scale(0.1,-0.1)" stroke="none" fill="#81957C"/>

<path d="M828 673 c-8 -10 -29 -38 -46 -63 -64 -94 -248 -264 -322 -298 -90 -42 -198 -63 -297 -60 -51 2 -93 0 -93 -3 0 -20 87 -100 132 -122 70 -34 193 -65 287 -73 230 -19 399 121 433 357 14 89 1 166 -40 237 -27 47 -32 50 -54 25z m32 -173 c0 -40 -19 -107 -47 -169 -9 -19 -48 -66 -87 -105 -79 -79 -145 -110 -246 -119 -86 -7 -257 25 -297 56 -32 24 -12 32 73 28 196 -8 282 34 474 230 63 64 118 118 123 118 4 1 7 -17 7 -39z" transform="translate(0,78) scale(0.1,-0.1)" stroke="none" fill="#107C76"/>

</g>

<g id="1" transform="translate(0,78.0)scale(0.8,0.8)">

<path d="M580 148 c-14 -6 -45 -14 -70 -18 l-45 -7 40 -1 c22 0 58 8 80 18 42 20 38 26 -5 8z" transform="translate(0,78) scale(0.1,-0.1)" stroke="none" fill="#D4944A"/>

<path d="M340 60 c30 -10 71 -19 90 -18 27 0 22 3 -25 12 -33 7 -73 16 -90 19 -16 4 -5 -2 25 -13z" transform="translate(0,78) scale(0.1,-0.1)" stroke="none" fill="#D4944A"/>

<path d="M260 143 c25 -8 70 -16 100 -18 l55 -4 -50 8 c-27 5 -68 13 -90 20 -57 16 -69 12 -15 -6z" transform="translate(0,78) scale(0.1,-0.1)" stroke="none" fill="#D4944A"/>

<path d="M856 702 c23 -25 59 -95 73 -142 l10 -35 -5 40 c-6 42 -63 146 -85 154 -7 2 -4 -6 7 -17z" transform="translate(0,78) scale(0.1,-0.1)" stroke="none" fill="#D4944A"/>

<path d="M60 253 c0 -34 143 -153 183 -153 7 0 -10 11 -37 25 -59 30 -80 47 -117 99 -16 21 -29 34 -29 29z" transform="translate(0,78) scale(0.1,-0.1)" stroke="none" fill="#81957C"/>

<path d="M756 280 c-20 -28 -57 -65 -81 -82 -25 -17 -43 -34 -40 -36 12 -12 129 103 159 156 18 30 -5 8 -38 -38z" transform="translate(0,78) scale(0.1,-0.1)" stroke="none" fill="#D4944A"/>

<path d="M829 174 c-74 -80 -161 -121 -284 -134 -65 -7 -66 -7 -20 -9 70 -2 178 31 233 70 48 34 53 39 86 77 27 31 15 28 -15 -4z" transform="translate(0,78) scale(0.1,-0.1)" stroke="none" fill="#D4944A"/>

<path d="M270 92 c64 -40 292 -60 379 -34 64 20 45 24 -24 5 -68 -17 -173 -13 -271 12 -32 9 -68 18 -79 21 -15 4 -17 3 -5 -4z" transform="translate(0,78) scale(0.1,-0.1)" stroke="none" fill="#81957C"/>

<path d="M549 261 c-66 -51 -166 -75 -293 -70 -59 3 -86 0 -86 -7 0 -17 27 -37 42 -31 8 4 7 6 -4 6 -10 1 -18 6 -18 11 0 6 36 10 88 10 127 1 252 37 291 84 18 21 9 20 -20 -3z" transform="translate(0,78) scale(0.1,-0.1)" stroke="none" fill="#81957C"/>

<path d="M750 424 c-79 -81 -193 -175 -240 -199 -19 -10 -57 -24 -85 -31 l-50 -13 45 6 c86 11 177 73 320 217 46 47 82 86 79 86 -2 0 -34 -30 -69 -66z" transform="translate(0,78) scale(0.1,-0.1)" stroke="none" fill="#D4944A"/>

<path d="M840 700 c0 -5 4 -10 9 -10 16 0 57 -83 71 -144 28 -120 -17 -279 -106 -378 l-48 -53 47 45 c94 88 146 261 117 386 -18 79 -90 202 -90 154z" transform="translate(0,78) scale(0.1,-0.1)" stroke="none" fill="#81957C"/>

<path d="M781 623 c-39 -59 -182 -203 -256 -259 -82 -64 -183 -94 -340 -104 l-110 -7 93 -1 c99 -2 206 20 292 60 48 22 150 107 238 198 50 51 139 170 128 170 -3 0 -23 -26 -45 -57z" transform="translate(0,78) scale(0.1,-0.1)" stroke="none" fill="#81957C"/>

<path d="M785 643 c-25 -48 -147 -176 -234 -247 -104 -85 -196 -116 -375 -125 -80 -4 -121 -10 -123 -18 -5 -13 79 -108 108 -124 9 -5 -9 18 -42 50 -32 33 -59 64 -59 70 0 7 35 11 100 11 69 0 124 6 178 20 134 36 168 57 316 200 81 78 178 200 159 200 -5 0 -17 -17 -28 -37z" transform="translate(0,78) scale(0.1,-0.1)" stroke="none" fill="#D4944A"/>

<path d="M716 406 c-72 -72 -107 -112 -80 -89 27 22 84 78 127 122 42 45 80 81 83 81 9 0 -3 -86 -18 -130 -19 -56 -77 -138 -128 -182 -75 -64 -146 -89 -260 -89 -53 0 -119 7 -150 15 -30 9 -56 13 -58 11 -6 -6 74 -26 138 -35 75 -11 154 -2 225 23 47 17 75 38 131 93 72 71 90 99 118 187 17 49 22 128 9 126 -5 -1 -66 -60 -137 -133z" transform="translate(0,78) scale(0.1,-0.1)" stroke="none" fill="#81957C"/>

<path d="M828 673 c-8 -10 -29 -38 -46 -63 -64 -94 -248 -264 -322 -298 -90 -42 -198 -63 -297 -60 -51 2 -93 0 -93 -3 0 -20 87 -100 132 -122 70 -34 193 -65 287 -73 230 -19 399 121 433 357 14 89 1 166 -40 237 -27 47 -32 50 -54 25z m32 -173 c0 -40 -19 -107 -47 -169 -9 -19 -48 -66 -87 -105 -79 -79 -145 -110 -246 -119 -86 -7 -257 25 -297 56 -32 24 -12 32 73 28 196 -8 282 34 474 230 63 64 118 118 123 118 4 1 7 -17 7 -39z" transform="translate(0,78) scale(0.1,-0.1)" stroke="none" fill="#107C76"/>

</g>

<g id="2" transform="translate(0,156.0)scale(0.8,0.8)">

<path d="M580 148 c-14 -6 -45 -14 -70 -18 l-45 -7 40 -1 c22 0 58 8 80 18 42 20 38 26 -5 8z" transform="translate(0,78) scale(0.1,-0.1)" stroke="none" fill="#D4944A"/>

<path d="M340 60 c30 -10 71 -19 90 -18 27 0 22 3 -25 12 -33 7 -73 16 -90 19 -16 4 -5 -2 25 -13z" transform="translate(0,78) scale(0.1,-0.1)" stroke="none" fill="#D4944A"/>

<path d="M260 143 c25 -8 70 -16 100 -18 l55 -4 -50 8 c-27 5 -68 13 -90 20 -57 16 -69 12 -15 -6z" transform="translate(0,78) scale(0.1,-0.1)" stroke="none" fill="#D4944A"/>

<path d="M856 702 c23 -25 59 -95 73 -142 l10 -35 -5 40 c-6 42 -63 146 -85 154 -7 2 -4 -6 7 -17z" transform="translate(0,78) scale(0.1,-0.1)" stroke="none" fill="#D4944A"/>

<path d="M60 253 c0 -34 143 -153 183 -153 7 0 -10 11 -37 25 -59 30 -80 47 -117 99 -16 21 -29 34 -29 29z" transform="translate(0,78) scale(0.1,-0.1)" stroke="none" fill="#81957C"/>

<path d="M756 280 c-20 -28 -57 -65 -81 -82 -25 -17 -43 -34 -40 -36 12 -12 129 103 159 156 18 30 -5 8 -38 -38z" transform="translate(0,78) scale(0.1,-0.1)" stroke="none" fill="#D4944A"/>

<path d="M829 174 c-74 -80 -161 -121 -284 -134 -65 -7 -66 -7 -20 -9 70 -2 178 31 233 70 48 34 53 39 86 77 27 31 15 28 -15 -4z" transform="translate(0,78) scale(0.1,-0.1)" stroke="none" fill="#D4944A"/>

<path d="M270 92 c64 -40 292 -60 379 -34 64 20 45 24 -24 5 -68 -17 -173 -13 -271 12 -32 9 -68 18 -79 21 -15 4 -17 3 -5 -4z" transform="translate(0,78) scale(0.1,-0.1)" stroke="none" fill="#81957C"/>

<path d="M549 261 c-66 -51 -166 -75 -293 -70 -59 3 -86 0 -86 -7 0 -17 27 -37 42 -31 8 4 7 6 -4 6 -10 1 -18 6 -18 11 0 6 36 10 88 10 127 1 252 37 291 84 18 21 9 20 -20 -3z" transform="translate(0,78) scale(0.1,-0.1)" stroke="none" fill="#81957C"/>

<path d="M750 424 c-79 -81 -193 -175 -240 -199 -19 -10 -57 -24 -85 -31 l-50 -13 45 6 c86 11 177 73 320 217 46 47 82 86 79 86 -2 0 -34 -30 -69 -66z" transform="translate(0,78) scale(0.1,-0.1)" stroke="none" fill="#D4944A"/>

<path d="M840 700 c0 -5 4 -10 9 -10 16 0 57 -83 71 -144 28 -120 -17 -279 -106 -378 l-48 -53 47 45 c94 88 146 261 117 386 -18 79 -90 202 -90 154z" transform="translate(0,78) scale(0.1,-0.1)" stroke="none" fill="#81957C"/>

<path d="M781 623 c-39 -59 -182 -203 -256 -259 -82 -64 -183 -94 -340 -104 l-110 -7 93 -1 c99 -2 206 20 292 60 48 22 150 107 238 198 50 51 139 170 128 170 -3 0 -23 -26 -45 -57z" transform="translate(0,78) scale(0.1,-0.1)" stroke="none" fill="#81957C"/>

<path d="M785 643 c-25 -48 -147 -176 -234 -247 -104 -85 -196 -116 -375 -125 -80 -4 -121 -10 -123 -18 -5 -13 79 -108 108 -124 9 -5 -9 18 -42 50 -32 33 -59 64 -59 70 0 7 35 11 100 11 69 0 124 6 178 20 134 36 168 57 316 200 81 78 178 200 159 200 -5 0 -17 -17 -28 -37z" transform="translate(0,78) scale(0.1,-0.1)" stroke="none" fill="#D4944A"/>

<path d="M716 406 c-72 -72 -107 -112 -80 -89 27 22 84 78 127 122 42 45 80 81 83 81 9 0 -3 -86 -18 -130 -19 -56 -77 -138 -128 -182 -75 -64 -146 -89 -260 -89 -53 0 -119 7 -150 15 -30 9 -56 13 -58 11 -6 -6 74 -26 138 -35 75 -11 154 -2 225 23 47 17 75 38 131 93 72 71 90 99 118 187 17 49 22 128 9 126 -5 -1 -66 -60 -137 -133z" transform="translate(0,78) scale(0.1,-0.1)" stroke="none" fill="#81957C"/>

<path d="M828 673 c-8 -10 -29 -38 -46 -63 -64 -94 -248 -264 -322 -298 -90 -42 -198 -63 -297 -60 -51 2 -93 0 -93 -3 0 -20 87 -100 132 -122 70 -34 193 -65 287 -73 230 -19 399 121 433 357 14 89 1 166 -40 237 -27 47 -32 50 -54 25z m32 -173 c0 -40 -19 -107 -47 -169 -9 -19 -48 -66 -87 -105 -79 -79 -145 -110 -246 -119 -86 -7 -257 25 -297 56 -32 24 -12 32 73 28 196 -8 282 34 474 230 63 64 118 118 123 118 4 1 7 -17 7 -39z" transform="translate(0,78) scale(0.1,-0.1)" stroke="none" fill="#107C76"/>

</g>

<g id="3" transform="translate(0,234.0)scale(0.8,0.8)">

<path d="M580 148 c-14 -6 -45 -14 -70 -18 l-45 -7 40 -1 c22 0 58 8 80 18 42 20 38 26 -5 8z" transform="translate(0,78) scale(0.1,-0.1)" stroke="none" fill="#D4944A"/>

<path d="M340 60 c30 -10 71 -19 90 -18 27 0 22 3 -25 12 -33 7 -73 16 -90 19 -16 4 -5 -2 25 -13z" transform="translate(0,78) scale(0.1,-0.1)" stroke="none" fill="#D4944A"/>

<path d="M260 143 c25 -8 70 -16 100 -18 l55 -4 -50 8 c-27 5 -68 13 -90 20 -57 16 -69 12 -15 -6z" transform="translate(0,78) scale(0.1,-0.1)" stroke="none" fill="#D4944A"/>

<path d="M856 702 c23 -25 59 -95 73 -142 l10 -35 -5 40 c-6 42 -63 146 -85 154 -7 2 -4 -6 7 -17z" transform="translate(0,78) scale(0.1,-0.1)" stroke="none" fill="#D4944A"/>

<path d="M60 253 c0 -34 143 -153 183 -153 7 0 -10 11 -37 25 -59 30 -80 47 -117 99 -16 21 -29 34 -29 29z" transform="translate(0,78) scale(0.1,-0.1)" stroke="none" fill="#81957C"/>

<path d="M756 280 c-20 -28 -57 -65 -81 -82 -25 -17 -43 -34 -40 -36 12 -12 129 103 159 156 18 30 -5 8 -38 -38z" transform="translate(0,78) scale(0.1,-0.1)" stroke="none" fill="#D4944A"/>

<path d="M829 174 c-74 -80 -161 -121 -284 -134 -65 -7 -66 -7 -20 -9 70 -2 178 31 233 70 48 34 53 39 86 77 27 31 15 28 -15 -4z" transform="translate(0,78) scale(0.1,-0.1)" stroke="none" fill="#D4944A"/>

<path d="M270 92 c64 -40 292 -60 379 -34 64 20 45 24 -24 5 -68 -17 -173 -13 -271 12 -32 9 -68 18 -79 21 -15 4 -17 3 -5 -4z" transform="translate(0,78) scale(0.1,-0.1)" stroke="none" fill="#81957C"/>

<path d="M549 261 c-66 -51 -166 -75 -293 -70 -59 3 -86 0 -86 -7 0 -17 27 -37 42 -31 8 4 7 6 -4 6 -10 1 -18 6 -18 11 0 6 36 10 88 10 127 1 252 37 291 84 18 21 9 20 -20 -3z" transform="translate(0,78) scale(0.1,-0.1)" stroke="none" fill="#81957C"/>

<path d="M750 424 c-79 -81 -193 -175 -240 -199 -19 -10 -57 -24 -85 -31 l-50 -13 45 6 c86 11 177 73 320 217 46 47 82 86 79 86 -2 0 -34 -30 -69 -66z" transform="translate(0,78) scale(0.1,-0.1)" stroke="none" fill="#D4944A"/>

<path d="M840 700 c0 -5 4 -10 9 -10 16 0 57 -83 71 -144 28 -120 -17 -279 -106 -378 l-48 -53 47 45 c94 88 146 261 117 386 -18 79 -90 202 -90 154z" transform="translate(0,78) scale(0.1,-0.1)" stroke="none" fill="#81957C"/>

<path d="M781 623 c-39 -59 -182 -203 -256 -259 -82 -64 -183 -94 -340 -104 l-110 -7 93 -1 c99 -2 206 20 292 60 48 22 150 107 238 198 50 51 139 170 128 170 -3 0 -23 -26 -45 -57z" transform="translate(0,78) scale(0.1,-0.1)" stroke="none" fill="#81957C"/>

<path d="M785 643 c-25 -48 -147 -176 -234 -247 -104 -85 -196 -116 -375 -125 -80 -4 -121 -10 -123 -18 -5 -13 79 -108 108 -124 9 -5 -9 18 -42 50 -32 33 -59 64 -59 70 0 7 35 11 100 11 69 0 124 6 178 20 134 36 168 57 316 200 81 78 178 200 159 200 -5 0 -17 -17 -28 -37z" transform="translate(0,78) scale(0.1,-0.1)" stroke="none" fill="#D4944A"/>

<path d="M716 406 c-72 -72 -107 -112 -80 -89 27 22 84 78 127 122 42 45 80 81 83 81 9 0 -3 -86 -18 -130 -19 -56 -77 -138 -128 -182 -75 -64 -146 -89 -260 -89 -53 0 -119 7 -150 15 -30 9 -56 13 -58 11 -6 -6 74 -26 138 -35 75 -11 154 -2 225 23 47 17 75 38 131 93 72 71 90 99 118 187 17 49 22 128 9 126 -5 -1 -66 -60 -137 -133z" transform="translate(0,78) scale(0.1,-0.1)" stroke="none" fill="#81957C"/>

<path d="M828 673 c-8 -10 -29 -38 -46 -63 -64 -94 -248 -264 -322 -298 -90 -42 -198 -63 -297 -60 -51 2 -93 0 -93 -3 0 -20 87 -100 132 -122 70 -34 193 -65 287 -73 230 -19 399 121 433 357 14 89 1 166 -40 237 -27 47 -32 50 -54 25z m32 -173 c0 -40 -19 -107 -47 -169 -9 -19 -48 -66 -87 -105 -79 -79 -145 -110 -246 -119 -86 -7 -257 25 -297 56 -32 24 -12 32 73 28 196 -8 282 34 474 230 63 64 118 118 123 118 4 1 7 -17 7 -39z" transform="translate(0,78) scale(0.1,-0.1)" stroke="none" fill="#107C76"/>

</g>

<g id="4" transform="translate(0,312.0)scale(0.8,0.8)">

<path d="M580 148 c-14 -6 -45 -14 -70 -18 l-45 -7 40 -1 c22 0 58 8 80 18 42 20 38 26 -5 8z" transform="translate(0,78) scale(0.1,-0.1)" stroke="none" fill="#D4944A"/>

<path d="M340 60 c30 -10 71 -19 90 -18 27 0 22 3 -25 12 -33 7 -73 16 -90 19 -16 4 -5 -2 25 -13z" transform="translate(0,78) scale(0.1,-0.1)" stroke="none" fill="#D4944A"/>

<path d="M260 143 c25 -8 70 -16 100 -18 l55 -4 -50 8 c-27 5 -68 13 -90 20 -57 16 -69 12 -15 -6z" transform="translate(0,78) scale(0.1,-0.1)" stroke="none" fill="#D4944A"/>

<path d="M856 702 c23 -25 59 -95 73 -142 l10 -35 -5 40 c-6 42 -63 146 -85 154 -7 2 -4 -6 7 -17z" transform="translate(0,78) scale(0.1,-0.1)" stroke="none" fill="#D4944A"/>

<path d="M60 253 c0 -34 143 -153 183 -153 7 0 -10 11 -37 25 -59 30 -80 47 -117 99 -16 21 -29 34 -29 29z" transform="translate(0,78) scale(0.1,-0.1)" stroke="none" fill="#81957C"/>

<path d="M756 280 c-20 -28 -57 -65 -81 -82 -25 -17 -43 -34 -40 -36 12 -12 129 103 159 156 18 30 -5 8 -38 -38z" transform="translate(0,78) scale(0.1,-0.1)" stroke="none" fill="#D4944A"/>

<path d="M829 174 c-74 -80 -161 -121 -284 -134 -65 -7 -66 -7 -20 -9 70 -2 178 31 233 70 48 34 53 39 86 77 27 31 15 28 -15 -4z" transform="translate(0,78) scale(0.1,-0.1)" stroke="none" fill="#D4944A"/>

<path d="M270 92 c64 -40 292 -60 379 -34 64 20 45 24 -24 5 -68 -17 -173 -13 -271 12 -32 9 -68 18 -79 21 -15 4 -17 3 -5 -4z" transform="translate(0,78) scale(0.1,-0.1)" stroke="none" fill="#81957C"/>

<path d="M549 261 c-66 -51 -166 -75 -293 -70 -59 3 -86 0 -86 -7 0 -17 27 -37 42 -31 8 4 7 6 -4 6 -10 1 -18 6 -18 11 0 6 36 10 88 10 127 1 252 37 291 84 18 21 9 20 -20 -3z" transform="translate(0,78) scale(0.1,-0.1)" stroke="none" fill="#81957C"/>

<path d="M750 424 c-79 -81 -193 -175 -240 -199 -19 -10 -57 -24 -85 -31 l-50 -13 45 6 c86 11 177 73 320 217 46 47 82 86 79 86 -2 0 -34 -30 -69 -66z" transform="translate(0,78) scale(0.1,-0.1)" stroke="none" fill="#D4944A"/>

<path d="M840 700 c0 -5 4 -10 9 -10 16 0 57 -83 71 -144 28 -120 -17 -279 -106 -378 l-48 -53 47 45 c94 88 146 261 117 386 -18 79 -90 202 -90 154z" transform="translate(0,78) scale(0.1,-0.1)" stroke="none" fill="#81957C"/>

<path d="M781 623 c-39 -59 -182 -203 -256 -259 -82 -64 -183 -94 -340 -104 l-110 -7 93 -1 c99 -2 206 20 292 60 48 22 150 107 238 198 50 51 139 170 128 170 -3 0 -23 -26 -45 -57z" transform="translate(0,78) scale(0.1,-0.1)" stroke="none" fill="#81957C"/>

<path d="M785 643 c-25 -48 -147 -176 -234 -247 -104 -85 -196 -116 -375 -125 -80 -4 -121 -10 -123 -18 -5 -13 79 -108 108 -124 9 -5 -9 18 -42 50 -32 33 -59 64 -59 70 0 7 35 11 100 11 69 0 124 6 178 20 134 36 168 57 316 200 81 78 178 200 159 200 -5 0 -17 -17 -28 -37z" transform="translate(0,78) scale(0.1,-0.1)" stroke="none" fill="#D4944A"/>

<path d="M716 406 c-72 -72 -107 -112 -80 -89 27 22 84 78 127 122 42 45 80 81 83 81 9 0 -3 -86 -18 -130 -19 -56 -77 -138 -128 -182 -75 -64 -146 -89 -260 -89 -53 0 -119 7 -150 15 -30 9 -56 13 -58 11 -6 -6 74 -26 138 -35 75 -11 154 -2 225 23 47 17 75 38 131 93 72 71 90 99 118 187 17 49 22 128 9 126 -5 -1 -66 -60 -137 -133z" transform="translate(0,78) scale(0.1,-0.1)" stroke="none" fill="#81957C"/>

<path d="M828 673 c-8 -10 -29 -38 -46 -63 -64 -94 -248 -264 -322 -298 -90 -42 -198 -63 -297 -60 -51 2 -93 0 -93 -3 0 -20 87 -100 132 -122 70 -34 193 -65 287 -73 230 -19 399 121 433 357 14 89 1 166 -40 237 -27 47 -32 50 -54 25z m32 -173 c0 -40 -19 -107 -47 -169 -9 -19 -48 -66 -87 -105 -79 -79 -145 -110 -246 -119 -86 -7 -257 25 -297 56 -32 24 -12 32 73 28 196 -8 282 34 474 230 63 64 118 118 123 118 4 1 7 -17 7 -39z" transform="translate(0,78) scale(0.1,-0.1)" stroke="none" fill="#107C76"/>

</g>

</g>
<g id="col1" transform="translate(98, -29.0)">
<g id="0" transform="translate(0,0.0)scale(0.8,0.8)">

<path d="M580 148 c-14 -6 -45 -14 -70 -18 l-45 -7 40 -1 c22 0 58 8 80 18 42 20 38 26 -5 8z" transform="translate(0,78) scale(0.1,-0.1)" stroke="none" fill="#D4944A"/>

<path d="M340 60 c30 -10 71 -19 90 -18 27 0 22 3 -25 12 -33 7 -73 16 -90 19 -16 4 -5 -2 25 -13z" transform="translate(0,78) scale(0.1,-0.1)" stroke="none" fill="#D4944A"/>

<path d="M260 143 c25 -8 70 -16 100 -18 l55 -4 -50 8 c-27 5 -68 13 -90 20 -57 16 -69 12 -15 -6z" transform="translate(0,78) scale(0.1,-0.1)" stroke="none" fill="#D4944A"/>

<path d="M856 702 c23 -25 59 -95 73 -142 l10 -35 -5 40 c-6 42 -63 146 -85 154 -7 2 -4 -6 7 -17z" transform="translate(0,78) scale(0.1,-0.1)" stroke="none" fill="#D4944A"/>

<path d="M60 253 c0 -34 143 -153 183 -153 7 0 -10 11 -37 25 -59 30 -80 47 -117 99 -16 21 -29 34 -29 29z" transform="translate(0,78) scale(0.1,-0.1)" stroke="none" fill="#81957C"/>

<path d="M756 280 c-20 -28 -57 -65 -81 -82 -25 -17 -43 -34 -40 -36 12 -12 129 103 159 156 18 30 -5 8 -38 -38z" transform="translate(0,78) scale(0.1,-0.1)" stroke="none" fill="#D4944A"/>

<path d="M829 174 c-74 -80 -161 -121 -284 -134 -65 -7 -66 -7 -20 -9 70 -2 178 31 233 70 48 34 53 39 86 77 27 31 15 28 -15 -4z" transform="translate(0,78) scale(0.1,-0.1)" stroke="none" fill="#D4944A"/>

<path d="M270 92 c64 -40 292 -60 379 -34 64 20 45 24 -24 5 -68 -17 -173 -13 -271 12 -32 9 -68 18 -79 21 -15 4 -17 3 -5 -4z" transform="translate(0,78) scale(0.1,-0.1)" stroke="none" fill="#81957C"/>

<path d="M549 261 c-66 -51 -166 -75 -293 -70 -59 3 -86 0 -86 -7 0 -17 27 -37 42 -31 8 4 7 6 -4 6 -10 1 -18 6 -18 11 0 6 36 10 88 10 127 1 252 37 291 84 18 21 9 20 -20 -3z" transform="translate(0,78) scale(0.1,-0.1)" stroke="none" fill="#81957C"/>

<path d="M750 424 c-79 -81 -193 -175 -240 -199 -19 -10 -57 -24 -85 -31 l-50 -13 45 6 c86 11 177 73 320 217 46 47 82 86 79 86 -2 0 -34 -30 -69 -66z" transform="translate(0,78) scale(0.1,-0.1)" stroke="none" fill="#D4944A"/>

<path d="M840 700 c0 -5 4 -10 9 -10 16 0 57 -83 71 -144 28 -120 -17 -279 -106 -378 l-48 -53 47 45 c94 88 146 261 117 386 -18 79 -90 202 -90 154z" transform="translate(0,78) scale(0.1,-0.1)" stroke="none" fill="#81957C"/>

<path d="M781 623 c-39 -59 -182 -203 -256 -259 -82 -64 -183 -94 -340 -104 l-110 -7 93 -1 c99 -2 206 20 292 60 48 22 150 107 238 198 50 51 139 170 128 170 -3 0 -23 -26 -45 -57z" transform="translate(0,78) scale(0.1,-0.1)" stroke="none" fill="#81957C"/>

<path d="M785 643 c-25 -48 -147 -176 -234 -247 -104 -85 -196 -116 -375 -125 -80 -4 -121 -10 -123 -18 -5 -13 79 -108 108 -124 9 -5 -9 18 -42 50 -32 33 -59 64 -59 70 0 7 35 11 100 11 69 0 124 6 178 20 134 36 168 57 316 200 81 78 178 200 159 200 -5 0 -17 -17 -28 -37z" transform="translate(0,78) scale(0.1,-0.1)" stroke="none" fill="#D4944A"/>

<path d="M716 406 c-72 -72 -107 -112 -80 -89 27 22 84 78 127 122 42 45 80 81 83 81 9 0 -3 -86 -18 -130 -19 -56 -77 -138 -128 -182 -75 -64 -146 -89 -260 -89 -53 0 -119 7 -150 15 -30 9 -56 13 -58 11 -6 -6 74 -26 138 -35 75 -11 154 -2 225 23 47 17 75 38 131 93 72 71 90 99 118 187 17 49 22 128 9 126 -5 -1 -66 -60 -137 -133z" transform="translate(0,78) scale(0.1,-0.1)" stroke="none" fill="#81957C"/>

<path d="M828 673 c-8 -10 -29 -38 -46 -63 -64 -94 -248 -264 -322 -298 -90 -42 -198 -63 -297 -60 -51 2 -93 0 -93 -3 0 -20 87 -100 132 -122 70 -34 193 -65 287 -73 230 -19 399 121 433 357 14 89 1 166 -40 237 -27 47 -32 50 -54 25z m32 -173 c0 -40 -19 -107 -47 -169 -9 -19 -48 -66 -87 -105 -79 -79 -145 -110 -246 -119 -86 -7 -257 25 -297 56 -32 24 -12 32 73 28 196 -8 282 34 474 230 63 64 118 118 123 118 4 1 7 -17 7 -39z" transform="translate(0,78) scale(0.1,-0.1)" stroke="none" fill="#107C76"/>

</g>

<g id="1" transform="translate(0,78.0)scale(0.8,0.8)">

<path d="M580 148 c-14 -6 -45 -14 -70 -18 l-45 -7 40 -1 c22 0 58 8 80 18 42 20 38 26 -5 8z" transform="translate(0,78) scale(0.1,-0.1)" stroke="none" fill="#D4944A"/>

<path d="M340 60 c30 -10 71 -19 90 -18 27 0 22 3 -25 12 -33 7 -73 16 -90 19 -16 4 -5 -2 25 -13z" transform="translate(0,78) scale(0.1,-0.1)" stroke="none" fill="#D4944A"/>

<path d="M260 143 c25 -8 70 -16 100 -18 l55 -4 -50 8 c-27 5 -68 13 -90 20 -57 16 -69 12 -15 -6z" transform="translate(0,78) scale(0.1,-0.1)" stroke="none" fill="#D4944A"/>

<path d="M856 702 c23 -25 59 -95 73 -142 l10 -35 -5 40 c-6 42 -63 146 -85 154 -7 2 -4 -6 7 -17z" transform="translate(0,78) scale(0.1,-0.1)" stroke="none" fill="#D4944A"/>

<path d="M60 253 c0 -34 143 -153 183 -153 7 0 -10 11 -37 25 -59 30 -80 47 -117 99 -16 21 -29 34 -29 29z" transform="translate(0,78) scale(0.1,-0.1)" stroke="none" fill="#81957C"/>

<path d="M756 280 c-20 -28 -57 -65 -81 -82 -25 -17 -43 -34 -40 -36 12 -12 129 103 159 156 18 30 -5 8 -38 -38z" transform="translate(0,78) scale(0.1,-0.1)" stroke="none" fill="#D4944A"/>

<path d="M829 174 c-74 -80 -161 -121 -284 -134 -65 -7 -66 -7 -20 -9 70 -2 178 31 233 70 48 34 53 39 86 77 27 31 15 28 -15 -4z" transform="translate(0,78) scale(0.1,-0.1)" stroke="none" fill="#D4944A"/>

<path d="M270 92 c64 -40 292 -60 379 -34 64 20 45 24 -24 5 -68 -17 -173 -13 -271 12 -32 9 -68 18 -79 21 -15 4 -17 3 -5 -4z" transform="translate(0,78) scale(0.1,-0.1)" stroke="none" fill="#81957C"/>

<path d="M549 261 c-66 -51 -166 -75 -293 -70 -59 3 -86 0 -86 -7 0 -17 27 -37 42 -31 8 4 7 6 -4 6 -10 1 -18 6 -18 11 0 6 36 10 88 10 127 1 252 37 291 84 18 21 9 20 -20 -3z" transform="translate(0,78) scale(0.1,-0.1)" stroke="none" fill="#81957C"/>

<path d="M750 424 c-79 -81 -193 -175 -240 -199 -19 -10 -57 -24 -85 -31 l-50 -13 45 6 c86 11 177 73 320 217 46 47 82 86 79 86 -2 0 -34 -30 -69 -66z" transform="translate(0,78) scale(0.1,-0.1)" stroke="none" fill="#D4944A"/>

<path d="M840 700 c0 -5 4 -10 9 -10 16 0 57 -83 71 -144 28 -120 -17 -279 -106 -378 l-48 -53 47 45 c94 88 146 261 117 386 -18 79 -90 202 -90 154z" transform="translate(0,78) scale(0.1,-0.1)" stroke="none" fill="#81957C"/>

<path d="M781 623 c-39 -59 -182 -203 -256 -259 -82 -64 -183 -94 -340 -104 l-110 -7 93 -1 c99 -2 206 20 292 60 48 22 150 107 238 198 50 51 139 170 128 170 -3 0 -23 -26 -45 -57z" transform="translate(0,78) scale(0.1,-0.1)" stroke="none" fill="#81957C"/>

<path d="M785 643 c-25 -48 -147 -176 -234 -247 -104 -85 -196 -116 -375 -125 -80 -4 -121 -10 -123 -18 -5 -13 79 -108 108 -124 9 -5 -9 18 -42 50 -32 33 -59 64 -59 70 0 7 35 11 100 11 69 0 124 6 178 20 134 36 168 57 316 200 81 78 178 200 159 200 -5 0 -17 -17 -28 -37z" transform="translate(0,78) scale(0.1,-0.1)" stroke="none" fill="#D4944A"/>

<path d="M716 406 c-72 -72 -107 -112 -80 -89 27 22 84 78 127 122 42 45 80 81 83 81 9 0 -3 -86 -18 -130 -19 -56 -77 -138 -128 -182 -75 -64 -146 -89 -260 -89 -53 0 -119 7 -150 15 -30 9 -56 13 -58 11 -6 -6 74 -26 138 -35 75 -11 154 -2 225 23 47 17 75 38 131 93 72 71 90 99 118 187 17 49 22 128 9 126 -5 -1 -66 -60 -137 -133z" transform="translate(0,78) scale(0.1,-0.1)" stroke="none" fill="#81957C"/>

<path d="M828 673 c-8 -10 -29 -38 -46 -63 -64 -94 -248 -264 -322 -298 -90 -42 -198 -63 -297 -60 -51 2 -93 0 -93 -3 0 -20 87 -100 132 -122 70 -34 193 -65 287 -73 230 -19 399 121 433 357 14 89 1 166 -40 237 -27 47 -32 50 -54 25z m32 -173 c0 -40 -19 -107 -47 -169 -9 -19 -48 -66 -87 -105 -79 -79 -145 -110 -246 -119 -86 -7 -257 25 -297 56 -32 24 -12 32 73 28 196 -8 282 34 474 230 63 64 118 118 123 118 4 1 7 -17 7 -39z" transform="translate(0,78) scale(0.1,-0.1)" stroke="none" fill="#107C76"/>

</g>

<g id="2" transform="translate(0,156.0)scale(0.8,0.8)">

<path d="M580 148 c-14 -6 -45 -14 -70 -18 l-45 -7 40 -1 c22 0 58 8 80 18 42 20 38 26 -5 8z" transform="translate(0,78) scale(0.1,-0.1)" stroke="none" fill="#D4944A"/>

<path d="M340 60 c30 -10 71 -19 90 -18 27 0 22 3 -25 12 -33 7 -73 16 -90 19 -16 4 -5 -2 25 -13z" transform="translate(0,78) scale(0.1,-0.1)" stroke="none" fill="#D4944A"/>

<path d="M260 143 c25 -8 70 -16 100 -18 l55 -4 -50 8 c-27 5 -68 13 -90 20 -57 16 -69 12 -15 -6z" transform="translate(0,78) scale(0.1,-0.1)" stroke="none" fill="#D4944A"/>

<path d="M856 702 c23 -25 59 -95 73 -142 l10 -35 -5 40 c-6 42 -63 146 -85 154 -7 2 -4 -6 7 -17z" transform="translate(0,78) scale(0.1,-0.1)" stroke="none" fill="#D4944A"/>

<path d="M60 253 c0 -34 143 -153 183 -153 7 0 -10 11 -37 25 -59 30 -80 47 -117 99 -16 21 -29 34 -29 29z" transform="translate(0,78) scale(0.1,-0.1)" stroke="none" fill="#81957C"/>

<path d="M756 280 c-20 -28 -57 -65 -81 -82 -25 -17 -43 -34 -40 -36 12 -12 129 103 159 156 18 30 -5 8 -38 -38z" transform="translate(0,78) scale(0.1,-0.1)" stroke="none" fill="#D4944A"/>

<path d="M829 174 c-74 -80 -161 -121 -284 -134 -65 -7 -66 -7 -20 -9 70 -2 178 31 233 70 48 34 53 39 86 77 27 31 15 28 -15 -4z" transform="translate(0,78) scale(0.1,-0.1)" stroke="none" fill="#D4944A"/>

<path d="M270 92 c64 -40 292 -60 379 -34 64 20 45 24 -24 5 -68 -17 -173 -13 -271 12 -32 9 -68 18 -79 21 -15 4 -17 3 -5 -4z" transform="translate(0,78) scale(0.1,-0.1)" stroke="none" fill="#81957C"/>

<path d="M549 261 c-66 -51 -166 -75 -293 -70 -59 3 -86 0 -86 -7 0 -17 27 -37 42 -31 8 4 7 6 -4 6 -10 1 -18 6 -18 11 0 6 36 10 88 10 127 1 252 37 291 84 18 21 9 20 -20 -3z" transform="translate(0,78) scale(0.1,-0.1)" stroke="none" fill="#81957C"/>

<path d="M750 424 c-79 -81 -193 -175 -240 -199 -19 -10 -57 -24 -85 -31 l-50 -13 45 6 c86 11 177 73 320 217 46 47 82 86 79 86 -2 0 -34 -30 -69 -66z" transform="translate(0,78) scale(0.1,-0.1)" stroke="none" fill="#D4944A"/>

<path d="M840 700 c0 -5 4 -10 9 -10 16 0 57 -83 71 -144 28 -120 -17 -279 -106 -378 l-48 -53 47 45 c94 88 146 261 117 386 -18 79 -90 202 -90 154z" transform="translate(0,78) scale(0.1,-0.1)" stroke="none" fill="#81957C"/>

<path d="M781 623 c-39 -59 -182 -203 -256 -259 -82 -64 -183 -94 -340 -104 l-110 -7 93 -1 c99 -2 206 20 292 60 48 22 150 107 238 198 50 51 139 170 128 170 -3 0 -23 -26 -45 -57z" transform="translate(0,78) scale(0.1,-0.1)" stroke="none" fill="#81957C"/>

<path d="M785 643 c-25 -48 -147 -176 -234 -247 -104 -85 -196 -116 -375 -125 -80 -4 -121 -10 -123 -18 -5 -13 79 -108 108 -124 9 -5 -9 18 -42 50 -32 33 -59 64 -59 70 0 7 35 11 100 11 69 0 124 6 178 20 134 36 168 57 316 200 81 78 178 200 159 200 -5 0 -17 -17 -28 -37z" transform="translate(0,78) scale(0.1,-0.1)" stroke="none" fill="#D4944A"/>

<path d="M716 406 c-72 -72 -107 -112 -80 -89 27 22 84 78 127 122 42 45 80 81 83 81 9 0 -3 -86 -18 -130 -19 -56 -77 -138 -128 -182 -75 -64 -146 -89 -260 -89 -53 0 -119 7 -150 15 -30 9 -56 13 -58 11 -6 -6 74 -26 138 -35 75 -11 154 -2 225 23 47 17 75 38 131 93 72 71 90 99 118 187 17 49 22 128 9 126 -5 -1 -66 -60 -137 -133z" transform="translate(0,78) scale(0.1,-0.1)" stroke="none" fill="#81957C"/>

<path d="M828 673 c-8 -10 -29 -38 -46 -63 -64 -94 -248 -264 -322 -298 -90 -42 -198 -63 -297 -60 -51 2 -93 0 -93 -3 0 -20 87 -100 132 -122 70 -34 193 -65 287 -73 230 -19 399 121 433 357 14 89 1 166 -40 237 -27 47 -32 50 -54 25z m32 -173 c0 -40 -19 -107 -47 -169 -9 -19 -48 -66 -87 -105 -79 -79 -145 -110 -246 -119 -86 -7 -257 25 -297 56 -32 24 -12 32 73 28 196 -8 282 34 474 230 63 64 118 118 123 118 4 1 7 -17 7 -39z" transform="translate(0,78) scale(0.1,-0.1)" stroke="none" fill="#107C76"/>

</g>

<g id="3" transform="translate(0,234.0)scale(0.8,0.8)">

<path d="M580 148 c-14 -6 -45 -14 -70 -18 l-45 -7 40 -1 c22 0 58 8 80 18 42 20 38 26 -5 8z" transform="translate(0,78) scale(0.1,-0.1)" stroke="none" fill="#D4944A"/>

<path d="M340 60 c30 -10 71 -19 90 -18 27 0 22 3 -25 12 -33 7 -73 16 -90 19 -16 4 -5 -2 25 -13z" transform="translate(0,78) scale(0.1,-0.1)" stroke="none" fill="#D4944A"/>

<path d="M260 143 c25 -8 70 -16 100 -18 l55 -4 -50 8 c-27 5 -68 13 -90 20 -57 16 -69 12 -15 -6z" transform="translate(0,78) scale(0.1,-0.1)" stroke="none" fill="#D4944A"/>

<path d="M856 702 c23 -25 59 -95 73 -142 l10 -35 -5 40 c-6 42 -63 146 -85 154 -7 2 -4 -6 7 -17z" transform="translate(0,78) scale(0.1,-0.1)" stroke="none" fill="#D4944A"/>

<path d="M60 253 c0 -34 143 -153 183 -153 7 0 -10 11 -37 25 -59 30 -80 47 -117 99 -16 21 -29 34 -29 29z" transform="translate(0,78) scale(0.1,-0.1)" stroke="none" fill="#81957C"/>

<path d="M756 280 c-20 -28 -57 -65 -81 -82 -25 -17 -43 -34 -40 -36 12 -12 129 103 159 156 18 30 -5 8 -38 -38z" transform="translate(0,78) scale(0.1,-0.1)" stroke="none" fill="#D4944A"/>

<path d="M829 174 c-74 -80 -161 -121 -284 -134 -65 -7 -66 -7 -20 -9 70 -2 178 31 233 70 48 34 53 39 86 77 27 31 15 28 -15 -4z" transform="translate(0,78) scale(0.1,-0.1)" stroke="none" fill="#D4944A"/>

<path d="M270 92 c64 -40 292 -60 379 -34 64 20 45 24 -24 5 -68 -17 -173 -13 -271 12 -32 9 -68 18 -79 21 -15 4 -17 3 -5 -4z" transform="translate(0,78) scale(0.1,-0.1)" stroke="none" fill="#81957C"/>

<path d="M549 261 c-66 -51 -166 -75 -293 -70 -59 3 -86 0 -86 -7 0 -17 27 -37 42 -31 8 4 7 6 -4 6 -10 1 -18 6 -18 11 0 6 36 10 88 10 127 1 252 37 291 84 18 21 9 20 -20 -3z" transform="translate(0,78) scale(0.1,-0.1)" stroke="none" fill="#81957C"/>

<path d="M750 424 c-79 -81 -193 -175 -240 -199 -19 -10 -57 -24 -85 -31 l-50 -13 45 6 c86 11 177 73 320 217 46 47 82 86 79 86 -2 0 -34 -30 -69 -66z" transform="translate(0,78) scale(0.1,-0.1)" stroke="none" fill="#D4944A"/>

<path d="M840 700 c0 -5 4 -10 9 -10 16 0 57 -83 71 -144 28 -120 -17 -279 -106 -378 l-48 -53 47 45 c94 88 146 261 117 386 -18 79 -90 202 -90 154z" transform="translate(0,78) scale(0.1,-0.1)" stroke="none" fill="#81957C"/>

<path d="M781 623 c-39 -59 -182 -203 -256 -259 -82 -64 -183 -94 -340 -104 l-110 -7 93 -1 c99 -2 206 20 292 60 48 22 150 107 238 198 50 51 139 170 128 170 -3 0 -23 -26 -45 -57z" transform="translate(0,78) scale(0.1,-0.1)" stroke="none" fill="#81957C"/>

<path d="M785 643 c-25 -48 -147 -176 -234 -247 -104 -85 -196 -116 -375 -125 -80 -4 -121 -10 -123 -18 -5 -13 79 -108 108 -124 9 -5 -9 18 -42 50 -32 33 -59 64 -59 70 0 7 35 11 100 11 69 0 124 6 178 20 134 36 168 57 316 200 81 78 178 200 159 200 -5 0 -17 -17 -28 -37z" transform="translate(0,78) scale(0.1,-0.1)" stroke="none" fill="#D4944A"/>

<path d="M716 406 c-72 -72 -107 -112 -80 -89 27 22 84 78 127 122 42 45 80 81 83 81 9 0 -3 -86 -18 -130 -19 -56 -77 -138 -128 -182 -75 -64 -146 -89 -260 -89 -53 0 -119 7 -150 15 -30 9 -56 13 -58 11 -6 -6 74 -26 138 -35 75 -11 154 -2 225 23 47 17 75 38 131 93 72 71 90 99 118 187 17 49 22 128 9 126 -5 -1 -66 -60 -137 -133z" transform="translate(0,78) scale(0.1,-0.1)" stroke="none" fill="#81957C"/>

<path d="M828 673 c-8 -10 -29 -38 -46 -63 -64 -94 -248 -264 -322 -298 -90 -42 -198 -63 -297 -60 -51 2 -93 0 -93 -3 0 -20 87 -100 132 -122 70 -34 193 -65 287 -73 230 -19 399 121 433 357 14 89 1 166 -40 237 -27 47 -32 50 -54 25z m32 -173 c0 -40 -19 -107 -47 -169 -9 -19 -48 -66 -87 -105 -79 -79 -145 -110 -246 -119 -86 -7 -257 25 -297 56 -32 24 -12 32 73 28 196 -8 282 34 474 230 63 64 118 118 123 118 4 1 7 -17 7 -39z" transform="translate(0,78) scale(0.1,-0.1)" stroke="none" fill="#107C76"/>

</g>

<g id="4" transform="translate(0,312.0)scale(0.8,0.8)">

<path d="M580 148 c-14 -6 -45 -14 -70 -18 l-45 -7 40 -1 c22 0 58 8 80 18 42 20 38 26 -5 8z" transform="translate(0,78) scale(0.1,-0.1)" stroke="none" fill="#D4944A"/>

<path d="M340 60 c30 -10 71 -19 90 -18 27 0 22 3 -25 12 -33 7 -73 16 -90 19 -16 4 -5 -2 25 -13z" transform="translate(0,78) scale(0.1,-0.1)" stroke="none" fill="#D4944A"/>

<path d="M260 143 c25 -8 70 -16 100 -18 l55 -4 -50 8 c-27 5 -68 13 -90 20 -57 16 -69 12 -15 -6z" transform="translate(0,78) scale(0.1,-0.1)" stroke="none" fill="#D4944A"/>

<path d="M856 702 c23 -25 59 -95 73 -142 l10 -35 -5 40 c-6 42 -63 146 -85 154 -7 2 -4 -6 7 -17z" transform="translate(0,78) scale(0.1,-0.1)" stroke="none" fill="#D4944A"/>

<path d="M60 253 c0 -34 143 -153 183 -153 7 0 -10 11 -37 25 -59 30 -80 47 -117 99 -16 21 -29 34 -29 29z" transform="translate(0,78) scale(0.1,-0.1)" stroke="none" fill="#81957C"/>

<path d="M756 280 c-20 -28 -57 -65 -81 -82 -25 -17 -43 -34 -40 -36 12 -12 129 103 159 156 18 30 -5 8 -38 -38z" transform="translate(0,78) scale(0.1,-0.1)" stroke="none" fill="#D4944A"/>

<path d="M829 174 c-74 -80 -161 -121 -284 -134 -65 -7 -66 -7 -20 -9 70 -2 178 31 233 70 48 34 53 39 86 77 27 31 15 28 -15 -4z" transform="translate(0,78) scale(0.1,-0.1)" stroke="none" fill="#D4944A"/>

<path d="M270 92 c64 -40 292 -60 379 -34 64 20 45 24 -24 5 -68 -17 -173 -13 -271 12 -32 9 -68 18 -79 21 -15 4 -17 3 -5 -4z" transform="translate(0,78) scale(0.1,-0.1)" stroke="none" fill="#81957C"/>

<path d="M549 261 c-66 -51 -166 -75 -293 -70 -59 3 -86 0 -86 -7 0 -17 27 -37 42 -31 8 4 7 6 -4 6 -10 1 -18 6 -18 11 0 6 36 10 88 10 127 1 252 37 291 84 18 21 9 20 -20 -3z" transform="translate(0,78) scale(0.1,-0.1)" stroke="none" fill="#81957C"/>

<path d="M750 424 c-79 -81 -193 -175 -240 -199 -19 -10 -57 -24 -85 -31 l-50 -13 45 6 c86 11 177 73 320 217 46 47 82 86 79 86 -2 0 -34 -30 -69 -66z" transform="translate(0,78) scale(0.1,-0.1)" stroke="none" fill="#D4944A"/>

<path d="M840 700 c0 -5 4 -10 9 -10 16 0 57 -83 71 -144 28 -120 -17 -279 -106 -378 l-48 -53 47 45 c94 88 146 261 117 386 -18 79 -90 202 -90 154z" transform="translate(0,78) scale(0.1,-0.1)" stroke="none" fill="#81957C"/>

<path d="M781 623 c-39 -59 -182 -203 -256 -259 -82 -64 -183 -94 -340 -104 l-110 -7 93 -1 c99 -2 206 20 292 60 48 22 150 107 238 198 50 51 139 170 128 170 -3 0 -23 -26 -45 -57z" transform="translate(0,78) scale(0.1,-0.1)" stroke="none" fill="#81957C"/>

<path d="M785 643 c-25 -48 -147 -176 -234 -247 -104 -85 -196 -116 -375 -125 -80 -4 -121 -10 -123 -18 -5 -13 79 -108 108 -124 9 -5 -9 18 -42 50 -32 33 -59 64 -59 70 0 7 35 11 100 11 69 0 124 6 178 20 134 36 168 57 316 200 81 78 178 200 159 200 -5 0 -17 -17 -28 -37z" transform="translate(0,78) scale(0.1,-0.1)" stroke="none" fill="#D4944A"/>

<path d="M716 406 c-72 -72 -107 -112 -80 -89 27 22 84 78 127 122 42 45 80 81 83 81 9 0 -3 -86 -18 -130 -19 -56 -77 -138 -128 -182 -75 -64 -146 -89 -260 -89 -53 0 -119 7 -150 15 -30 9 -56 13 -58 11 -6 -6 74 -26 138 -35 75 -11 154 -2 225 23 47 17 75 38 131 93 72 71 90 99 118 187 17 49 22 128 9 126 -5 -1 -66 -60 -137 -133z" transform="translate(0,78) scale(0.1,-0.1)" stroke="none" fill="#81957C"/>

<path d="M828 673 c-8 -10 -29 -38 -46 -63 -64 -94 -248 -264 -322 -298 -90 -42 -198 -63 -297 -60 -51 2 -93 0 -93 -3 0 -20 87 -100 132 -122 70 -34 193 -65 287 -73 230 -19 399 121 433 357 14 89 1 166 -40 237 -27 47 -32 50 -54 25z m32 -173 c0 -40 -19 -107 -47 -169 -9 -19 -48 -66 -87 -105 -79 -79 -145 -110 -246 -119 -86 -7 -257 25 -297 56 -32 24 -12 32 73 28 196 -8 282 34 474 230 63 64 118 118 123 118 4 1 7 -17 7 -39z" transform="translate(0,78) scale(0.1,-0.1)" stroke="none" fill="#107C76"/>

</g>

</g>
<g id="col2" transform="translate(196, 10)">
<g id="0" transform="translate(0,0.0)scale(0.8,0.8)">

<path d="M580 148 c-14 -6 -45 -14 -70 -18 l-45 -7 40 -1 c22 0 58 8 80 18 42 20 38 26 -5 8z" transform="translate(0,78) scale(0.1,-0.1)" stroke="none" fill="#D4944A"/>

<path d="M340 60 c30 -10 71 -19 90 -18 27 0 22 3 -25 12 -33 7 -73 16 -90 19 -16 4 -5 -2 25 -13z" transform="translate(0,78) scale(0.1,-0.1)" stroke="none" fill="#D4944A"/>

<path d="M260 143 c25 -8 70 -16 100 -18 l55 -4 -50 8 c-27 5 -68 13 -90 20 -57 16 -69 12 -15 -6z" transform="translate(0,78) scale(0.1,-0.1)" stroke="none" fill="#D4944A"/>

<path d="M856 702 c23 -25 59 -95 73 -142 l10 -35 -5 40 c-6 42 -63 146 -85 154 -7 2 -4 -6 7 -17z" transform="translate(0,78) scale(0.1,-0.1)" stroke="none" fill="#D4944A"/>

<path d="M60 253 c0 -34 143 -153 183 -153 7 0 -10 11 -37 25 -59 30 -80 47 -117 99 -16 21 -29 34 -29 29z" transform="translate(0,78) scale(0.1,-0.1)" stroke="none" fill="#81957C"/>

<path d="M756 280 c-20 -28 -57 -65 -81 -82 -25 -17 -43 -34 -40 -36 12 -12 129 103 159 156 18 30 -5 8 -38 -38z" transform="translate(0,78) scale(0.1,-0.1)" stroke="none" fill="#D4944A"/>

<path d="M829 174 c-74 -80 -161 -121 -284 -134 -65 -7 -66 -7 -20 -9 70 -2 178 31 233 70 48 34 53 39 86 77 27 31 15 28 -15 -4z" transform="translate(0,78) scale(0.1,-0.1)" stroke="none" fill="#D4944A"/>

<path d="M270 92 c64 -40 292 -60 379 -34 64 20 45 24 -24 5 -68 -17 -173 -13 -271 12 -32 9 -68 18 -79 21 -15 4 -17 3 -5 -4z" transform="translate(0,78) scale(0.1,-0.1)" stroke="none" fill="#81957C"/>

<path d="M549 261 c-66 -51 -166 -75 -293 -70 -59 3 -86 0 -86 -7 0 -17 27 -37 42 -31 8 4 7 6 -4 6 -10 1 -18 6 -18 11 0 6 36 10 88 10 127 1 252 37 291 84 18 21 9 20 -20 -3z" transform="translate(0,78) scale(0.1,-0.1)" stroke="none" fill="#81957C"/>

<path d="M750 424 c-79 -81 -193 -175 -240 -199 -19 -10 -57 -24 -85 -31 l-50 -13 45 6 c86 11 177 73 320 217 46 47 82 86 79 86 -2 0 -34 -30 -69 -66z" transform="translate(0,78) scale(0.1,-0.1)" stroke="none" fill="#D4944A"/>

<path d="M840 700 c0 -5 4 -10 9 -10 16 0 57 -83 71 -144 28 -120 -17 -279 -106 -378 l-48 -53 47 45 c94 88 146 261 117 386 -18 79 -90 202 -90 154z" transform="translate(0,78) scale(0.1,-0.1)" stroke="none" fill="#81957C"/>

<path d="M781 623 c-39 -59 -182 -203 -256 -259 -82 -64 -183 -94 -340 -104 l-110 -7 93 -1 c99 -2 206 20 292 60 48 22 150 107 238 198 50 51 139 170 128 170 -3 0 -23 -26 -45 -57z" transform="translate(0,78) scale(0.1,-0.1)" stroke="none" fill="#81957C"/>

<path d="M785 643 c-25 -48 -147 -176 -234 -247 -104 -85 -196 -116 -375 -125 -80 -4 -121 -10 -123 -18 -5 -13 79 -108 108 -124 9 -5 -9 18 -42 50 -32 33 -59 64 -59 70 0 7 35 11 100 11 69 0 124 6 178 20 134 36 168 57 316 200 81 78 178 200 159 200 -5 0 -17 -17 -28 -37z" transform="translate(0,78) scale(0.1,-0.1)" stroke="none" fill="#D4944A"/>

<path d="M716 406 c-72 -72 -107 -112 -80 -89 27 22 84 78 127 122 42 45 80 81 83 81 9 0 -3 -86 -18 -130 -19 -56 -77 -138 -128 -182 -75 -64 -146 -89 -260 -89 -53 0 -119 7 -150 15 -30 9 -56 13 -58 11 -6 -6 74 -26 138 -35 75 -11 154 -2 225 23 47 17 75 38 131 93 72 71 90 99 118 187 17 49 22 128 9 126 -5 -1 -66 -60 -137 -133z" transform="translate(0,78) scale(0.1,-0.1)" stroke="none" fill="#81957C"/>

<path d="M828 673 c-8 -10 -29 -38 -46 -63 -64 -94 -248 -264 -322 -298 -90 -42 -198 -63 -297 -60 -51 2 -93 0 -93 -3 0 -20 87 -100 132 -122 70 -34 193 -65 287 -73 230 -19 399 121 433 357 14 89 1 166 -40 237 -27 47 -32 50 -54 25z m32 -173 c0 -40 -19 -107 -47 -169 -9 -19 -48 -66 -87 -105 -79 -79 -145 -110 -246 -119 -86 -7 -257 25 -297 56 -32 24 -12 32 73 28 196 -8 282 34 474 230 63 64 118 118 123 118 4 1 7 -17 7 -39z" transform="translate(0,78) scale(0.1,-0.1)" stroke="none" fill="#107C76"/>

</g>

<g id="1" transform="translate(0,78.0)scale(0.8,0.8)">

<path d="M580 148 c-14 -6 -45 -14 -70 -18 l-45 -7 40 -1 c22 0 58 8 80 18 42 20 38 26 -5 8z" transform="translate(0,78) scale(0.1,-0.1)" stroke="none" fill="#D4944A"/>

<path d="M340 60 c30 -10 71 -19 90 -18 27 0 22 3 -25 12 -33 7 -73 16 -90 19 -16 4 -5 -2 25 -13z" transform="translate(0,78) scale(0.1,-0.1)" stroke="none" fill="#D4944A"/>

<path d="M260 143 c25 -8 70 -16 100 -18 l55 -4 -50 8 c-27 5 -68 13 -90 20 -57 16 -69 12 -15 -6z" transform="translate(0,78) scale(0.1,-0.1)" stroke="none" fill="#D4944A"/>

<path d="M856 702 c23 -25 59 -95 73 -142 l10 -35 -5 40 c-6 42 -63 146 -85 154 -7 2 -4 -6 7 -17z" transform="translate(0,78) scale(0.1,-0.1)" stroke="none" fill="#D4944A"/>

<path d="M60 253 c0 -34 143 -153 183 -153 7 0 -10 11 -37 25 -59 30 -80 47 -117 99 -16 21 -29 34 -29 29z" transform="translate(0,78) scale(0.1,-0.1)" stroke="none" fill="#81957C"/>

<path d="M756 280 c-20 -28 -57 -65 -81 -82 -25 -17 -43 -34 -40 -36 12 -12 129 103 159 156 18 30 -5 8 -38 -38z" transform="translate(0,78) scale(0.1,-0.1)" stroke="none" fill="#D4944A"/>

<path d="M829 174 c-74 -80 -161 -121 -284 -134 -65 -7 -66 -7 -20 -9 70 -2 178 31 233 70 48 34 53 39 86 77 27 31 15 28 -15 -4z" transform="translate(0,78) scale(0.1,-0.1)" stroke="none" fill="#D4944A"/>

<path d="M270 92 c64 -40 292 -60 379 -34 64 20 45 24 -24 5 -68 -17 -173 -13 -271 12 -32 9 -68 18 -79 21 -15 4 -17 3 -5 -4z" transform="translate(0,78) scale(0.1,-0.1)" stroke="none" fill="#81957C"/>

<path d="M549 261 c-66 -51 -166 -75 -293 -70 -59 3 -86 0 -86 -7 0 -17 27 -37 42 -31 8 4 7 6 -4 6 -10 1 -18 6 -18 11 0 6 36 10 88 10 127 1 252 37 291 84 18 21 9 20 -20 -3z" transform="translate(0,78) scale(0.1,-0.1)" stroke="none" fill="#81957C"/>

<path d="M750 424 c-79 -81 -193 -175 -240 -199 -19 -10 -57 -24 -85 -31 l-50 -13 45 6 c86 11 177 73 320 217 46 47 82 86 79 86 -2 0 -34 -30 -69 -66z" transform="translate(0,78) scale(0.1,-0.1)" stroke="none" fill="#D4944A"/>

<path d="M840 700 c0 -5 4 -10 9 -10 16 0 57 -83 71 -144 28 -120 -17 -279 -106 -378 l-48 -53 47 45 c94 88 146 261 117 386 -18 79 -90 202 -90 154z" transform="translate(0,78) scale(0.1,-0.1)" stroke="none" fill="#81957C"/>

<path d="M781 623 c-39 -59 -182 -203 -256 -259 -82 -64 -183 -94 -340 -104 l-110 -7 93 -1 c99 -2 206 20 292 60 48 22 150 107 238 198 50 51 139 170 128 170 -3 0 -23 -26 -45 -57z" transform="translate(0,78) scale(0.1,-0.1)" stroke="none" fill="#81957C"/>

<path d="M785 643 c-25 -48 -147 -176 -234 -247 -104 -85 -196 -116 -375 -125 -80 -4 -121 -10 -123 -18 -5 -13 79 -108 108 -124 9 -5 -9 18 -42 50 -32 33 -59 64 -59 70 0 7 35 11 100 11 69 0 124 6 178 20 134 36 168 57 316 200 81 78 178 200 159 200 -5 0 -17 -17 -28 -37z" transform="translate(0,78) scale(0.1,-0.1)" stroke="none" fill="#D4944A"/>

<path d="M716 406 c-72 -72 -107 -112 -80 -89 27 22 84 78 127 122 42 45 80 81 83 81 9 0 -3 -86 -18 -130 -19 -56 -77 -138 -128 -182 -75 -64 -146 -89 -260 -89 -53 0 -119 7 -150 15 -30 9 -56 13 -58 11 -6 -6 74 -26 138 -35 75 -11 154 -2 225 23 47 17 75 38 131 93 72 71 90 99 118 187 17 49 22 128 9 126 -5 -1 -66 -60 -137 -133z" transform="translate(0,78) scale(0.1,-0.1)" stroke="none" fill="#81957C"/>

<path d="M828 673 c-8 -10 -29 -38 -46 -63 -64 -94 -248 -264 -322 -298 -90 -42 -198 -63 -297 -60 -51 2 -93 0 -93 -3 0 -20 87 -100 132 -122 70 -34 193 -65 287 -73 230 -19 399 121 433 357 14 89 1 166 -40 237 -27 47 -32 50 -54 25z m32 -173 c0 -40 -19 -107 -47 -169 -9 -19 -48 -66 -87 -105 -79 -79 -145 -110 -246 -119 -86 -7 -257 25 -297 56 -32 24 -12 32 73 28 196 -8 282 34 474 230 63 64 118 118 123 118 4 1 7 -17 7 -39z" transform="translate(0,78) scale(0.1,-0.1)" stroke="none" fill="#107C76"/>

</g>

<g id="2" transform="translate(0,156.0)scale(0.8,0.8)">

<path d="M580 148 c-14 -6 -45 -14 -70 -18 l-45 -7 40 -1 c22 0 58 8 80 18 42 20 38 26 -5 8z" transform="translate(0,78) scale(0.1,-0.1)" stroke="none" fill="#D4944A"/>

<path d="M340 60 c30 -10 71 -19 90 -18 27 0 22 3 -25 12 -33 7 -73 16 -90 19 -16 4 -5 -2 25 -13z" transform="translate(0,78) scale(0.1,-0.1)" stroke="none" fill="#D4944A"/>

<path d="M260 143 c25 -8 70 -16 100 -18 l55 -4 -50 8 c-27 5 -68 13 -90 20 -57 16 -69 12 -15 -6z" transform="translate(0,78) scale(0.1,-0.1)" stroke="none" fill="#D4944A"/>

<path d="M856 702 c23 -25 59 -95 73 -142 l10 -35 -5 40 c-6 42 -63 146 -85 154 -7 2 -4 -6 7 -17z" transform="translate(0,78) scale(0.1,-0.1)" stroke="none" fill="#D4944A"/>

<path d="M60 253 c0 -34 143 -153 183 -153 7 0 -10 11 -37 25 -59 30 -80 47 -117 99 -16 21 -29 34 -29 29z" transform="translate(0,78) scale(0.1,-0.1)" stroke="none" fill="#81957C"/>

<path d="M756 280 c-20 -28 -57 -65 -81 -82 -25 -17 -43 -34 -40 -36 12 -12 129 103 159 156 18 30 -5 8 -38 -38z" transform="translate(0,78) scale(0.1,-0.1)" stroke="none" fill="#D4944A"/>

<path d="M829 174 c-74 -80 -161 -121 -284 -134 -65 -7 -66 -7 -20 -9 70 -2 178 31 233 70 48 34 53 39 86 77 27 31 15 28 -15 -4z" transform="translate(0,78) scale(0.1,-0.1)" stroke="none" fill="#D4944A"/>

<path d="M270 92 c64 -40 292 -60 379 -34 64 20 45 24 -24 5 -68 -17 -173 -13 -271 12 -32 9 -68 18 -79 21 -15 4 -17 3 -5 -4z" transform="translate(0,78) scale(0.1,-0.1)" stroke="none" fill="#81957C"/>

<path d="M549 261 c-66 -51 -166 -75 -293 -70 -59 3 -86 0 -86 -7 0 -17 27 -37 42 -31 8 4 7 6 -4 6 -10 1 -18 6 -18 11 0 6 36 10 88 10 127 1 252 37 291 84 18 21 9 20 -20 -3z" transform="translate(0,78) scale(0.1,-0.1)" stroke="none" fill="#81957C"/>

<path d="M750 424 c-79 -81 -193 -175 -240 -199 -19 -10 -57 -24 -85 -31 l-50 -13 45 6 c86 11 177 73 320 217 46 47 82 86 79 86 -2 0 -34 -30 -69 -66z" transform="translate(0,78) scale(0.1,-0.1)" stroke="none" fill="#D4944A"/>

<path d="M840 700 c0 -5 4 -10 9 -10 16 0 57 -83 71 -144 28 -120 -17 -279 -106 -378 l-48 -53 47 45 c94 88 146 261 117 386 -18 79 -90 202 -90 154z" transform="translate(0,78) scale(0.1,-0.1)" stroke="none" fill="#81957C"/>

<path d="M781 623 c-39 -59 -182 -203 -256 -259 -82 -64 -183 -94 -340 -104 l-110 -7 93 -1 c99 -2 206 20 292 60 48 22 150 107 238 198 50 51 139 170 128 170 -3 0 -23 -26 -45 -57z" transform="translate(0,78) scale(0.1,-0.1)" stroke="none" fill="#81957C"/>

<path d="M785 643 c-25 -48 -147 -176 -234 -247 -104 -85 -196 -116 -375 -125 -80 -4 -121 -10 -123 -18 -5 -13 79 -108 108 -124 9 -5 -9 18 -42 50 -32 33 -59 64 -59 70 0 7 35 11 100 11 69 0 124 6 178 20 134 36 168 57 316 200 81 78 178 200 159 200 -5 0 -17 -17 -28 -37z" transform="translate(0,78) scale(0.1,-0.1)" stroke="none" fill="#D4944A"/>

<path d="M716 406 c-72 -72 -107 -112 -80 -89 27 22 84 78 127 122 42 45 80 81 83 81 9 0 -3 -86 -18 -130 -19 -56 -77 -138 -128 -182 -75 -64 -146 -89 -260 -89 -53 0 -119 7 -150 15 -30 9 -56 13 -58 11 -6 -6 74 -26 138 -35 75 -11 154 -2 225 23 47 17 75 38 131 93 72 71 90 99 118 187 17 49 22 128 9 126 -5 -1 -66 -60 -137 -133z" transform="translate(0,78) scale(0.1,-0.1)" stroke="none" fill="#81957C"/>

<path d="M828 673 c-8 -10 -29 -38 -46 -63 -64 -94 -248 -264 -322 -298 -90 -42 -198 -63 -297 -60 -51 2 -93 0 -93 -3 0 -20 87 -100 132 -122 70 -34 193 -65 287 -73 230 -19 399 121 433 357 14 89 1 166 -40 237 -27 47 -32 50 -54 25z m32 -173 c0 -40 -19 -107 -47 -169 -9 -19 -48 -66 -87 -105 -79 -79 -145 -110 -246 -119 -86 -7 -257 25 -297 56 -32 24 -12 32 73 28 196 -8 282 34 474 230 63 64 118 118 123 118 4 1 7 -17 7 -39z" transform="translate(0,78) scale(0.1,-0.1)" stroke="none" fill="#107C76"/>

</g>

<g id="3" transform="translate(0,234.0)scale(0.8,0.8)">

<path d="M580 148 c-14 -6 -45 -14 -70 -18 l-45 -7 40 -1 c22 0 58 8 80 18 42 20 38 26 -5 8z" transform="translate(0,78) scale(0.1,-0.1)" stroke="none" fill="#D4944A"/>

<path d="M340 60 c30 -10 71 -19 90 -18 27 0 22 3 -25 12 -33 7 -73 16 -90 19 -16 4 -5 -2 25 -13z" transform="translate(0,78) scale(0.1,-0.1)" stroke="none" fill="#D4944A"/>

<path d="M260 143 c25 -8 70 -16 100 -18 l55 -4 -50 8 c-27 5 -68 13 -90 20 -57 16 -69 12 -15 -6z" transform="translate(0,78) scale(0.1,-0.1)" stroke="none" fill="#D4944A"/>

<path d="M856 702 c23 -25 59 -95 73 -142 l10 -35 -5 40 c-6 42 -63 146 -85 154 -7 2 -4 -6 7 -17z" transform="translate(0,78) scale(0.1,-0.1)" stroke="none" fill="#D4944A"/>

<path d="M60 253 c0 -34 143 -153 183 -153 7 0 -10 11 -37 25 -59 30 -80 47 -117 99 -16 21 -29 34 -29 29z" transform="translate(0,78) scale(0.1,-0.1)" stroke="none" fill="#81957C"/>

<path d="M756 280 c-20 -28 -57 -65 -81 -82 -25 -17 -43 -34 -40 -36 12 -12 129 103 159 156 18 30 -5 8 -38 -38z" transform="translate(0,78) scale(0.1,-0.1)" stroke="none" fill="#D4944A"/>

<path d="M829 174 c-74 -80 -161 -121 -284 -134 -65 -7 -66 -7 -20 -9 70 -2 178 31 233 70 48 34 53 39 86 77 27 31 15 28 -15 -4z" transform="translate(0,78) scale(0.1,-0.1)" stroke="none" fill="#D4944A"/>

<path d="M270 92 c64 -40 292 -60 379 -34 64 20 45 24 -24 5 -68 -17 -173 -13 -271 12 -32 9 -68 18 -79 21 -15 4 -17 3 -5 -4z" transform="translate(0,78) scale(0.1,-0.1)" stroke="none" fill="#81957C"/>

<path d="M549 261 c-66 -51 -166 -75 -293 -70 -59 3 -86 0 -86 -7 0 -17 27 -37 42 -31 8 4 7 6 -4 6 -10 1 -18 6 -18 11 0 6 36 10 88 10 127 1 252 37 291 84 18 21 9 20 -20 -3z" transform="translate(0,78) scale(0.1,-0.1)" stroke="none" fill="#81957C"/>

<path d="M750 424 c-79 -81 -193 -175 -240 -199 -19 -10 -57 -24 -85 -31 l-50 -13 45 6 c86 11 177 73 320 217 46 47 82 86 79 86 -2 0 -34 -30 -69 -66z" transform="translate(0,78) scale(0.1,-0.1)" stroke="none" fill="#D4944A"/>

<path d="M840 700 c0 -5 4 -10 9 -10 16 0 57 -83 71 -144 28 -120 -17 -279 -106 -378 l-48 -53 47 45 c94 88 146 261 117 386 -18 79 -90 202 -90 154z" transform="translate(0,78) scale(0.1,-0.1)" stroke="none" fill="#81957C"/>

<path d="M781 623 c-39 -59 -182 -203 -256 -259 -82 -64 -183 -94 -340 -104 l-110 -7 93 -1 c99 -2 206 20 292 60 48 22 150 107 238 198 50 51 139 170 128 170 -3 0 -23 -26 -45 -57z" transform="translate(0,78) scale(0.1,-0.1)" stroke="none" fill="#81957C"/>

<path d="M785 643 c-25 -48 -147 -176 -234 -247 -104 -85 -196 -116 -375 -125 -80 -4 -121 -10 -123 -18 -5 -13 79 -108 108 -124 9 -5 -9 18 -42 50 -32 33 -59 64 -59 70 0 7 35 11 100 11 69 0 124 6 178 20 134 36 168 57 316 200 81 78 178 200 159 200 -5 0 -17 -17 -28 -37z" transform="translate(0,78) scale(0.1,-0.1)" stroke="none" fill="#D4944A"/>

<path d="M716 406 c-72 -72 -107 -112 -80 -89 27 22 84 78 127 122 42 45 80 81 83 81 9 0 -3 -86 -18 -130 -19 -56 -77 -138 -128 -182 -75 -64 -146 -89 -260 -89 -53 0 -119 7 -150 15 -30 9 -56 13 -58 11 -6 -6 74 -26 138 -35 75 -11 154 -2 225 23 47 17 75 38 131 93 72 71 90 99 118 187 17 49 22 128 9 126 -5 -1 -66 -60 -137 -133z" transform="translate(0,78) scale(0.1,-0.1)" stroke="none" fill="#81957C"/>

<path d="M828 673 c-8 -10 -29 -38 -46 -63 -64 -94 -248 -264 -322 -298 -90 -42 -198 -63 -297 -60 -51 2 -93 0 -93 -3 0 -20 87 -100 132 -122 70 -34 193 -65 287 -73 230 -19 399 121 433 357 14 89 1 166 -40 237 -27 47 -32 50 -54 25z m32 -173 c0 -40 -19 -107 -47 -169 -9 -19 -48 -66 -87 -105 -79 -79 -145 -110 -246 -119 -86 -7 -257 25 -297 56 -32 24 -12 32 73 28 196 -8 282 34 474 230 63 64 118 118 123 118 4 1 7 -17 7 -39z" transform="translate(0,78) scale(0.1,-0.1)" stroke="none" fill="#107C76"/>

</g>

<g id="4" transform="translate(0,312.0)scale(0.8,0.8)">

<path d="M580 148 c-14 -6 -45 -14 -70 -18 l-45 -7 40 -1 c22 0 58 8 80 18 42 20 38 26 -5 8z" transform="translate(0,78) scale(0.1,-0.1)" stroke="none" fill="#D4944A"/>

<path d="M340 60 c30 -10 71 -19 90 -18 27 0 22 3 -25 12 -33 7 -73 16 -90 19 -16 4 -5 -2 25 -13z" transform="translate(0,78) scale(0.1,-0.1)" stroke="none" fill="#D4944A"/>

<path d="M260 143 c25 -8 70 -16 100 -18 l55 -4 -50 8 c-27 5 -68 13 -90 20 -57 16 -69 12 -15 -6z" transform="translate(0,78) scale(0.1,-0.1)" stroke="none" fill="#D4944A"/>

<path d="M856 702 c23 -25 59 -95 73 -142 l10 -35 -5 40 c-6 42 -63 146 -85 154 -7 2 -4 -6 7 -17z" transform="translate(0,78) scale(0.1,-0.1)" stroke="none" fill="#D4944A"/>

<path d="M60 253 c0 -34 143 -153 183 -153 7 0 -10 11 -37 25 -59 30 -80 47 -117 99 -16 21 -29 34 -29 29z" transform="translate(0,78) scale(0.1,-0.1)" stroke="none" fill="#81957C"/>

<path d="M756 280 c-20 -28 -57 -65 -81 -82 -25 -17 -43 -34 -40 -36 12 -12 129 103 159 156 18 30 -5 8 -38 -38z" transform="translate(0,78) scale(0.1,-0.1)" stroke="none" fill="#D4944A"/>

<path d="M829 174 c-74 -80 -161 -121 -284 -134 -65 -7 -66 -7 -20 -9 70 -2 178 31 233 70 48 34 53 39 86 77 27 31 15 28 -15 -4z" transform="translate(0,78) scale(0.1,-0.1)" stroke="none" fill="#D4944A"/>

<path d="M270 92 c64 -40 292 -60 379 -34 64 20 45 24 -24 5 -68 -17 -173 -13 -271 12 -32 9 -68 18 -79 21 -15 4 -17 3 -5 -4z" transform="translate(0,78) scale(0.1,-0.1)" stroke="none" fill="#81957C"/>

<path d="M549 261 c-66 -51 -166 -75 -293 -70 -59 3 -86 0 -86 -7 0 -17 27 -37 42 -31 8 4 7 6 -4 6 -10 1 -18 6 -18 11 0 6 36 10 88 10 127 1 252 37 291 84 18 21 9 20 -20 -3z" transform="translate(0,78) scale(0.1,-0.1)" stroke="none" fill="#81957C"/>

<path d="M750 424 c-79 -81 -193 -175 -240 -199 -19 -10 -57 -24 -85 -31 l-50 -13 45 6 c86 11 177 73 320 217 46 47 82 86 79 86 -2 0 -34 -30 -69 -66z" transform="translate(0,78) scale(0.1,-0.1)" stroke="none" fill="#D4944A"/>

<path d="M840 700 c0 -5 4 -10 9 -10 16 0 57 -83 71 -144 28 -120 -17 -279 -106 -378 l-48 -53 47 45 c94 88 146 261 117 386 -18 79 -90 202 -90 154z" transform="translate(0,78) scale(0.1,-0.1)" stroke="none" fill="#81957C"/>

<path d="M781 623 c-39 -59 -182 -203 -256 -259 -82 -64 -183 -94 -340 -104 l-110 -7 93 -1 c99 -2 206 20 292 60 48 22 150 107 238 198 50 51 139 170 128 170 -3 0 -23 -26 -45 -57z" transform="translate(0,78) scale(0.1,-0.1)" stroke="none" fill="#81957C"/>

<path d="M785 643 c-25 -48 -147 -176 -234 -247 -104 -85 -196 -116 -375 -125 -80 -4 -121 -10 -123 -18 -5 -13 79 -108 108 -124 9 -5 -9 18 -42 50 -32 33 -59 64 -59 70 0 7 35 11 100 11 69 0 124 6 178 20 134 36 168 57 316 200 81 78 178 200 159 200 -5 0 -17 -17 -28 -37z" transform="translate(0,78) scale(0.1,-0.1)" stroke="none" fill="#D4944A"/>

<path d="M716 406 c-72 -72 -107 -112 -80 -89 27 22 84 78 127 122 42 45 80 81 83 81 9 0 -3 -86 -18 -130 -19 -56 -77 -138 -128 -182 -75 -64 -146 -89 -260 -89 -53 0 -119 7 -150 15 -30 9 -56 13 -58 11 -6 -6 74 -26 138 -35 75 -11 154 -2 225 23 47 17 75 38 131 93 72 71 90 99 118 187 17 49 22 128 9 126 -5 -1 -66 -60 -137 -133z" transform="translate(0,78) scale(0.1,-0.1)" stroke="none" fill="#81957C"/>

<path d="M828 673 c-8 -10 -29 -38 -46 -63 -64 -94 -248 -264 -322 -298 -90 -42 -198 -63 -297 -60 -51 2 -93 0 -93 -3 0 -20 87 -100 132 -122 70 -34 193 -65 287 -73 230 -19 399 121 433 357 14 89 1 166 -40 237 -27 47 -32 50 -54 25z m32 -173 c0 -40 -19 -107 -47 -169 -9 -19 -48 -66 -87 -105 -79 -79 -145 -110 -246 -119 -86 -7 -257 25 -297 56 -32 24 -12 32 73 28 196 -8 282 34 474 230 63 64 118 118 123 118 4 1 7 -17 7 -39z" transform="translate(0,78) scale(0.1,-0.1)" stroke="none" fill="#107C76"/>

</g>

</g>
<g id="col3" transform="translate(294, -29.0)">
<g id="0" transform="translate(0,0.0)scale(0.8,0.8)">

<path d="M580 148 c-14 -6 -45 -14 -70 -18 l-45 -7 40 -1 c22 0 58 8 80 18 42 20 38 26 -5 8z" transform="translate(0,78) scale(0.1,-0.1)" stroke="none" fill="#D4944A"/>

<path d="M340 60 c30 -10 71 -19 90 -18 27 0 22 3 -25 12 -33 7 -73 16 -90 19 -16 4 -5 -2 25 -13z" transform="translate(0,78) scale(0.1,-0.1)" stroke="none" fill="#D4944A"/>

<path d="M260 143 c25 -8 70 -16 100 -18 l55 -4 -50 8 c-27 5 -68 13 -90 20 -57 16 -69 12 -15 -6z" transform="translate(0,78) scale(0.1,-0.1)" stroke="none" fill="#D4944A"/>

<path d="M856 702 c23 -25 59 -95 73 -142 l10 -35 -5 40 c-6 42 -63 146 -85 154 -7 2 -4 -6 7 -17z" transform="translate(0,78) scale(0.1,-0.1)" stroke="none" fill="#D4944A"/>

<path d="M60 253 c0 -34 143 -153 183 -153 7 0 -10 11 -37 25 -59 30 -80 47 -117 99 -16 21 -29 34 -29 29z" transform="translate(0,78) scale(0.1,-0.1)" stroke="none" fill="#81957C"/>

<path d="M756 280 c-20 -28 -57 -65 -81 -82 -25 -17 -43 -34 -40 -36 12 -12 129 103 159 156 18 30 -5 8 -38 -38z" transform="translate(0,78) scale(0.1,-0.1)" stroke="none" fill="#D4944A"/>

<path d="M829 174 c-74 -80 -161 -121 -284 -134 -65 -7 -66 -7 -20 -9 70 -2 178 31 233 70 48 34 53 39 86 77 27 31 15 28 -15 -4z" transform="translate(0,78) scale(0.1,-0.1)" stroke="none" fill="#D4944A"/>

<path d="M270 92 c64 -40 292 -60 379 -34 64 20 45 24 -24 5 -68 -17 -173 -13 -271 12 -32 9 -68 18 -79 21 -15 4 -17 3 -5 -4z" transform="translate(0,78) scale(0.1,-0.1)" stroke="none" fill="#81957C"/>

<path d="M549 261 c-66 -51 -166 -75 -293 -70 -59 3 -86 0 -86 -7 0 -17 27 -37 42 -31 8 4 7 6 -4 6 -10 1 -18 6 -18 11 0 6 36 10 88 10 127 1 252 37 291 84 18 21 9 20 -20 -3z" transform="translate(0,78) scale(0.1,-0.1)" stroke="none" fill="#81957C"/>

<path d="M750 424 c-79 -81 -193 -175 -240 -199 -19 -10 -57 -24 -85 -31 l-50 -13 45 6 c86 11 177 73 320 217 46 47 82 86 79 86 -2 0 -34 -30 -69 -66z" transform="translate(0,78) scale(0.1,-0.1)" stroke="none" fill="#D4944A"/>

<path d="M840 700 c0 -5 4 -10 9 -10 16 0 57 -83 71 -144 28 -120 -17 -279 -106 -378 l-48 -53 47 45 c94 88 146 261 117 386 -18 79 -90 202 -90 154z" transform="translate(0,78) scale(0.1,-0.1)" stroke="none" fill="#81957C"/>

<path d="M781 623 c-39 -59 -182 -203 -256 -259 -82 -64 -183 -94 -340 -104 l-110 -7 93 -1 c99 -2 206 20 292 60 48 22 150 107 238 198 50 51 139 170 128 170 -3 0 -23 -26 -45 -57z" transform="translate(0,78) scale(0.1,-0.1)" stroke="none" fill="#81957C"/>

<path d="M785 643 c-25 -48 -147 -176 -234 -247 -104 -85 -196 -116 -375 -125 -80 -4 -121 -10 -123 -18 -5 -13 79 -108 108 -124 9 -5 -9 18 -42 50 -32 33 -59 64 -59 70 0 7 35 11 100 11 69 0 124 6 178 20 134 36 168 57 316 200 81 78 178 200 159 200 -5 0 -17 -17 -28 -37z" transform="translate(0,78) scale(0.1,-0.1)" stroke="none" fill="#D4944A"/>

<path d="M716 406 c-72 -72 -107 -112 -80 -89 27 22 84 78 127 122 42 45 80 81 83 81 9 0 -3 -86 -18 -130 -19 -56 -77 -138 -128 -182 -75 -64 -146 -89 -260 -89 -53 0 -119 7 -150 15 -30 9 -56 13 -58 11 -6 -6 74 -26 138 -35 75 -11 154 -2 225 23 47 17 75 38 131 93 72 71 90 99 118 187 17 49 22 128 9 126 -5 -1 -66 -60 -137 -133z" transform="translate(0,78) scale(0.1,-0.1)" stroke="none" fill="#81957C"/>

<path d="M828 673 c-8 -10 -29 -38 -46 -63 -64 -94 -248 -264 -322 -298 -90 -42 -198 -63 -297 -60 -51 2 -93 0 -93 -3 0 -20 87 -100 132 -122 70 -34 193 -65 287 -73 230 -19 399 121 433 357 14 89 1 166 -40 237 -27 47 -32 50 -54 25z m32 -173 c0 -40 -19 -107 -47 -169 -9 -19 -48 -66 -87 -105 -79 -79 -145 -110 -246 -119 -86 -7 -257 25 -297 56 -32 24 -12 32 73 28 196 -8 282 34 474 230 63 64 118 118 123 118 4 1 7 -17 7 -39z" transform="translate(0,78) scale(0.1,-0.1)" stroke="none" fill="#107C76"/>

</g>

<g id="1" transform="translate(0,78.0)scale(0.8,0.8)">

<path d="M580 148 c-14 -6 -45 -14 -70 -18 l-45 -7 40 -1 c22 0 58 8 80 18 42 20 38 26 -5 8z" transform="translate(0,78) scale(0.1,-0.1)" stroke="none" fill="#D4944A"/>

<path d="M340 60 c30 -10 71 -19 90 -18 27 0 22 3 -25 12 -33 7 -73 16 -90 19 -16 4 -5 -2 25 -13z" transform="translate(0,78) scale(0.1,-0.1)" stroke="none" fill="#D4944A"/>

<path d="M260 143 c25 -8 70 -16 100 -18 l55 -4 -50 8 c-27 5 -68 13 -90 20 -57 16 -69 12 -15 -6z" transform="translate(0,78) scale(0.1,-0.1)" stroke="none" fill="#D4944A"/>

<path d="M856 702 c23 -25 59 -95 73 -142 l10 -35 -5 40 c-6 42 -63 146 -85 154 -7 2 -4 -6 7 -17z" transform="translate(0,78) scale(0.1,-0.1)" stroke="none" fill="#D4944A"/>

<path d="M60 253 c0 -34 143 -153 183 -153 7 0 -10 11 -37 25 -59 30 -80 47 -117 99 -16 21 -29 34 -29 29z" transform="translate(0,78) scale(0.1,-0.1)" stroke="none" fill="#81957C"/>

<path d="M756 280 c-20 -28 -57 -65 -81 -82 -25 -17 -43 -34 -40 -36 12 -12 129 103 159 156 18 30 -5 8 -38 -38z" transform="translate(0,78) scale(0.1,-0.1)" stroke="none" fill="#D4944A"/>

<path d="M829 174 c-74 -80 -161 -121 -284 -134 -65 -7 -66 -7 -20 -9 70 -2 178 31 233 70 48 34 53 39 86 77 27 31 15 28 -15 -4z" transform="translate(0,78) scale(0.1,-0.1)" stroke="none" fill="#D4944A"/>

<path d="M270 92 c64 -40 292 -60 379 -34 64 20 45 24 -24 5 -68 -17 -173 -13 -271 12 -32 9 -68 18 -79 21 -15 4 -17 3 -5 -4z" transform="translate(0,78) scale(0.1,-0.1)" stroke="none" fill="#81957C"/>

<path d="M549 261 c-66 -51 -166 -75 -293 -70 -59 3 -86 0 -86 -7 0 -17 27 -37 42 -31 8 4 7 6 -4 6 -10 1 -18 6 -18 11 0 6 36 10 88 10 127 1 252 37 291 84 18 21 9 20 -20 -3z" transform="translate(0,78) scale(0.1,-0.1)" stroke="none" fill="#81957C"/>

<path d="M750 424 c-79 -81 -193 -175 -240 -199 -19 -10 -57 -24 -85 -31 l-50 -13 45 6 c86 11 177 73 320 217 46 47 82 86 79 86 -2 0 -34 -30 -69 -66z" transform="translate(0,78) scale(0.1,-0.1)" stroke="none" fill="#D4944A"/>

<path d="M840 700 c0 -5 4 -10 9 -10 16 0 57 -83 71 -144 28 -120 -17 -279 -106 -378 l-48 -53 47 45 c94 88 146 261 117 386 -18 79 -90 202 -90 154z" transform="translate(0,78) scale(0.1,-0.1)" stroke="none" fill="#81957C"/>

<path d="M781 623 c-39 -59 -182 -203 -256 -259 -82 -64 -183 -94 -340 -104 l-110 -7 93 -1 c99 -2 206 20 292 60 48 22 150 107 238 198 50 51 139 170 128 170 -3 0 -23 -26 -45 -57z" transform="translate(0,78) scale(0.1,-0.1)" stroke="none" fill="#81957C"/>

<path d="M785 643 c-25 -48 -147 -176 -234 -247 -104 -85 -196 -116 -375 -125 -80 -4 -121 -10 -123 -18 -5 -13 79 -108 108 -124 9 -5 -9 18 -42 50 -32 33 -59 64 -59 70 0 7 35 11 100 11 69 0 124 6 178 20 134 36 168 57 316 200 81 78 178 200 159 200 -5 0 -17 -17 -28 -37z" transform="translate(0,78) scale(0.1,-0.1)" stroke="none" fill="#D4944A"/>

<path d="M716 406 c-72 -72 -107 -112 -80 -89 27 22 84 78 127 122 42 45 80 81 83 81 9 0 -3 -86 -18 -130 -19 -56 -77 -138 -128 -182 -75 -64 -146 -89 -260 -89 -53 0 -119 7 -150 15 -30 9 -56 13 -58 11 -6 -6 74 -26 138 -35 75 -11 154 -2 225 23 47 17 75 38 131 93 72 71 90 99 118 187 17 49 22 128 9 126 -5 -1 -66 -60 -137 -133z" transform="translate(0,78) scale(0.1,-0.1)" stroke="none" fill="#81957C"/>

<path d="M828 673 c-8 -10 -29 -38 -46 -63 -64 -94 -248 -264 -322 -298 -90 -42 -198 -63 -297 -60 -51 2 -93 0 -93 -3 0 -20 87 -100 132 -122 70 -34 193 -65 287 -73 230 -19 399 121 433 357 14 89 1 166 -40 237 -27 47 -32 50 -54 25z m32 -173 c0 -40 -19 -107 -47 -169 -9 -19 -48 -66 -87 -105 -79 -79 -145 -110 -246 -119 -86 -7 -257 25 -297 56 -32 24 -12 32 73 28 196 -8 282 34 474 230 63 64 118 118 123 118 4 1 7 -17 7 -39z" transform="translate(0,78) scale(0.1,-0.1)" stroke="none" fill="#107C76"/>

</g>

<g id="2" transform="translate(0,156.0)scale(0.8,0.8)">

<path d="M580 148 c-14 -6 -45 -14 -70 -18 l-45 -7 40 -1 c22 0 58 8 80 18 42 20 38 26 -5 8z" transform="translate(0,78) scale(0.1,-0.1)" stroke="none" fill="#D4944A"/>

<path d="M340 60 c30 -10 71 -19 90 -18 27 0 22 3 -25 12 -33 7 -73 16 -90 19 -16 4 -5 -2 25 -13z" transform="translate(0,78) scale(0.1,-0.1)" stroke="none" fill="#D4944A"/>

<path d="M260 143 c25 -8 70 -16 100 -18 l55 -4 -50 8 c-27 5 -68 13 -90 20 -57 16 -69 12 -15 -6z" transform="translate(0,78) scale(0.1,-0.1)" stroke="none" fill="#D4944A"/>

<path d="M856 702 c23 -25 59 -95 73 -142 l10 -35 -5 40 c-6 42 -63 146 -85 154 -7 2 -4 -6 7 -17z" transform="translate(0,78) scale(0.1,-0.1)" stroke="none" fill="#D4944A"/>

<path d="M60 253 c0 -34 143 -153 183 -153 7 0 -10 11 -37 25 -59 30 -80 47 -117 99 -16 21 -29 34 -29 29z" transform="translate(0,78) scale(0.1,-0.1)" stroke="none" fill="#81957C"/>

<path d="M756 280 c-20 -28 -57 -65 -81 -82 -25 -17 -43 -34 -40 -36 12 -12 129 103 159 156 18 30 -5 8 -38 -38z" transform="translate(0,78) scale(0.1,-0.1)" stroke="none" fill="#D4944A"/>

<path d="M829 174 c-74 -80 -161 -121 -284 -134 -65 -7 -66 -7 -20 -9 70 -2 178 31 233 70 48 34 53 39 86 77 27 31 15 28 -15 -4z" transform="translate(0,78) scale(0.1,-0.1)" stroke="none" fill="#D4944A"/>

<path d="M270 92 c64 -40 292 -60 379 -34 64 20 45 24 -24 5 -68 -17 -173 -13 -271 12 -32 9 -68 18 -79 21 -15 4 -17 3 -5 -4z" transform="translate(0,78) scale(0.1,-0.1)" stroke="none" fill="#81957C"/>

<path d="M549 261 c-66 -51 -166 -75 -293 -70 -59 3 -86 0 -86 -7 0 -17 27 -37 42 -31 8 4 7 6 -4 6 -10 1 -18 6 -18 11 0 6 36 10 88 10 127 1 252 37 291 84 18 21 9 20 -20 -3z" transform="translate(0,78) scale(0.1,-0.1)" stroke="none" fill="#81957C"/>

<path d="M750 424 c-79 -81 -193 -175 -240 -199 -19 -10 -57 -24 -85 -31 l-50 -13 45 6 c86 11 177 73 320 217 46 47 82 86 79 86 -2 0 -34 -30 -69 -66z" transform="translate(0,78) scale(0.1,-0.1)" stroke="none" fill="#D4944A"/>

<path d="M840 700 c0 -5 4 -10 9 -10 16 0 57 -83 71 -144 28 -120 -17 -279 -106 -378 l-48 -53 47 45 c94 88 146 261 117 386 -18 79 -90 202 -90 154z" transform="translate(0,78) scale(0.1,-0.1)" stroke="none" fill="#81957C"/>

<path d="M781 623 c-39 -59 -182 -203 -256 -259 -82 -64 -183 -94 -340 -104 l-110 -7 93 -1 c99 -2 206 20 292 60 48 22 150 107 238 198 50 51 139 170 128 170 -3 0 -23 -26 -45 -57z" transform="translate(0,78) scale(0.1,-0.1)" stroke="none" fill="#81957C"/>

<path d="M785 643 c-25 -48 -147 -176 -234 -247 -104 -85 -196 -116 -375 -125 -80 -4 -121 -10 -123 -18 -5 -13 79 -108 108 -124 9 -5 -9 18 -42 50 -32 33 -59 64 -59 70 0 7 35 11 100 11 69 0 124 6 178 20 134 36 168 57 316 200 81 78 178 200 159 200 -5 0 -17 -17 -28 -37z" transform="translate(0,78) scale(0.1,-0.1)" stroke="none" fill="#D4944A"/>

<path d="M716 406 c-72 -72 -107 -112 -80 -89 27 22 84 78 127 122 42 45 80 81 83 81 9 0 -3 -86 -18 -130 -19 -56 -77 -138 -128 -182 -75 -64 -146 -89 -260 -89 -53 0 -119 7 -150 15 -30 9 -56 13 -58 11 -6 -6 74 -26 138 -35 75 -11 154 -2 225 23 47 17 75 38 131 93 72 71 90 99 118 187 17 49 22 128 9 126 -5 -1 -66 -60 -137 -133z" transform="translate(0,78) scale(0.1,-0.1)" stroke="none" fill="#81957C"/>

<path d="M828 673 c-8 -10 -29 -38 -46 -63 -64 -94 -248 -264 -322 -298 -90 -42 -198 -63 -297 -60 -51 2 -93 0 -93 -3 0 -20 87 -100 132 -122 70 -34 193 -65 287 -73 230 -19 399 121 433 357 14 89 1 166 -40 237 -27 47 -32 50 -54 25z m32 -173 c0 -40 -19 -107 -47 -169 -9 -19 -48 -66 -87 -105 -79 -79 -145 -110 -246 -119 -86 -7 -257 25 -297 56 -32 24 -12 32 73 28 196 -8 282 34 474 230 63 64 118 118 123 118 4 1 7 -17 7 -39z" transform="translate(0,78) scale(0.1,-0.1)" stroke="none" fill="#107C76"/>

</g>

<g id="3" transform="translate(0,234.0)scale(0.8,0.8)">

<path d="M580 148 c-14 -6 -45 -14 -70 -18 l-45 -7 40 -1 c22 0 58 8 80 18 42 20 38 26 -5 8z" transform="translate(0,78) scale(0.1,-0.1)" stroke="none" fill="#D4944A"/>

<path d="M340 60 c30 -10 71 -19 90 -18 27 0 22 3 -25 12 -33 7 -73 16 -90 19 -16 4 -5 -2 25 -13z" transform="translate(0,78) scale(0.1,-0.1)" stroke="none" fill="#D4944A"/>

<path d="M260 143 c25 -8 70 -16 100 -18 l55 -4 -50 8 c-27 5 -68 13 -90 20 -57 16 -69 12 -15 -6z" transform="translate(0,78) scale(0.1,-0.1)" stroke="none" fill="#D4944A"/>

<path d="M856 702 c23 -25 59 -95 73 -142 l10 -35 -5 40 c-6 42 -63 146 -85 154 -7 2 -4 -6 7 -17z" transform="translate(0,78) scale(0.1,-0.1)" stroke="none" fill="#D4944A"/>

<path d="M60 253 c0 -34 143 -153 183 -153 7 0 -10 11 -37 25 -59 30 -80 47 -117 99 -16 21 -29 34 -29 29z" transform="translate(0,78) scale(0.1,-0.1)" stroke="none" fill="#81957C"/>

<path d="M756 280 c-20 -28 -57 -65 -81 -82 -25 -17 -43 -34 -40 -36 12 -12 129 103 159 156 18 30 -5 8 -38 -38z" transform="translate(0,78) scale(0.1,-0.1)" stroke="none" fill="#D4944A"/>

<path d="M829 174 c-74 -80 -161 -121 -284 -134 -65 -7 -66 -7 -20 -9 70 -2 178 31 233 70 48 34 53 39 86 77 27 31 15 28 -15 -4z" transform="translate(0,78) scale(0.1,-0.1)" stroke="none" fill="#D4944A"/>

<path d="M270 92 c64 -40 292 -60 379 -34 64 20 45 24 -24 5 -68 -17 -173 -13 -271 12 -32 9 -68 18 -79 21 -15 4 -17 3 -5 -4z" transform="translate(0,78) scale(0.1,-0.1)" stroke="none" fill="#81957C"/>

<path d="M549 261 c-66 -51 -166 -75 -293 -70 -59 3 -86 0 -86 -7 0 -17 27 -37 42 -31 8 4 7 6 -4 6 -10 1 -18 6 -18 11 0 6 36 10 88 10 127 1 252 37 291 84 18 21 9 20 -20 -3z" transform="translate(0,78) scale(0.1,-0.1)" stroke="none" fill="#81957C"/>

<path d="M750 424 c-79 -81 -193 -175 -240 -199 -19 -10 -57 -24 -85 -31 l-50 -13 45 6 c86 11 177 73 320 217 46 47 82 86 79 86 -2 0 -34 -30 -69 -66z" transform="translate(0,78) scale(0.1,-0.1)" stroke="none" fill="#D4944A"/>

<path d="M840 700 c0 -5 4 -10 9 -10 16 0 57 -83 71 -144 28 -120 -17 -279 -106 -378 l-48 -53 47 45 c94 88 146 261 117 386 -18 79 -90 202 -90 154z" transform="translate(0,78) scale(0.1,-0.1)" stroke="none" fill="#81957C"/>

<path d="M781 623 c-39 -59 -182 -203 -256 -259 -82 -64 -183 -94 -340 -104 l-110 -7 93 -1 c99 -2 206 20 292 60 48 22 150 107 238 198 50 51 139 170 128 170 -3 0 -23 -26 -45 -57z" transform="translate(0,78) scale(0.1,-0.1)" stroke="none" fill="#81957C"/>

<path d="M785 643 c-25 -48 -147 -176 -234 -247 -104 -85 -196 -116 -375 -125 -80 -4 -121 -10 -123 -18 -5 -13 79 -108 108 -124 9 -5 -9 18 -42 50 -32 33 -59 64 -59 70 0 7 35 11 100 11 69 0 124 6 178 20 134 36 168 57 316 200 81 78 178 200 159 200 -5 0 -17 -17 -28 -37z" transform="translate(0,78) scale(0.1,-0.1)" stroke="none" fill="#D4944A"/>

<path d="M716 406 c-72 -72 -107 -112 -80 -89 27 22 84 78 127 122 42 45 80 81 83 81 9 0 -3 -86 -18 -130 -19 -56 -77 -138 -128 -182 -75 -64 -146 -89 -260 -89 -53 0 -119 7 -150 15 -30 9 -56 13 -58 11 -6 -6 74 -26 138 -35 75 -11 154 -2 225 23 47 17 75 38 131 93 72 71 90 99 118 187 17 49 22 128 9 126 -5 -1 -66 -60 -137 -133z" transform="translate(0,78) scale(0.1,-0.1)" stroke="none" fill="#81957C"/>

<path d="M828 673 c-8 -10 -29 -38 -46 -63 -64 -94 -248 -264 -322 -298 -90 -42 -198 -63 -297 -60 -51 2 -93 0 -93 -3 0 -20 87 -100 132 -122 70 -34 193 -65 287 -73 230 -19 399 121 433 357 14 89 1 166 -40 237 -27 47 -32 50 -54 25z m32 -173 c0 -40 -19 -107 -47 -169 -9 -19 -48 -66 -87 -105 -79 -79 -145 -110 -246 -119 -86 -7 -257 25 -297 56 -32 24 -12 32 73 28 196 -8 282 34 474 230 63 64 118 118 123 118 4 1 7 -17 7 -39z" transform="translate(0,78) scale(0.1,-0.1)" stroke="none" fill="#107C76"/>

</g>

<g id="4" transform="translate(0,312.0)scale(0.8,0.8)">

<path d="M580 148 c-14 -6 -45 -14 -70 -18 l-45 -7 40 -1 c22 0 58 8 80 18 42 20 38 26 -5 8z" transform="translate(0,78) scale(0.1,-0.1)" stroke="none" fill="#D4944A"/>

<path d="M340 60 c30 -10 71 -19 90 -18 27 0 22 3 -25 12 -33 7 -73 16 -90 19 -16 4 -5 -2 25 -13z" transform="translate(0,78) scale(0.1,-0.1)" stroke="none" fill="#D4944A"/>

<path d="M260 143 c25 -8 70 -16 100 -18 l55 -4 -50 8 c-27 5 -68 13 -90 20 -57 16 -69 12 -15 -6z" transform="translate(0,78) scale(0.1,-0.1)" stroke="none" fill="#D4944A"/>

<path d="M856 702 c23 -25 59 -95 73 -142 l10 -35 -5 40 c-6 42 -63 146 -85 154 -7 2 -4 -6 7 -17z" transform="translate(0,78) scale(0.1,-0.1)" stroke="none" fill="#D4944A"/>

<path d="M60 253 c0 -34 143 -153 183 -153 7 0 -10 11 -37 25 -59 30 -80 47 -117 99 -16 21 -29 34 -29 29z" transform="translate(0,78) scale(0.1,-0.1)" stroke="none" fill="#81957C"/>

<path d="M756 280 c-20 -28 -57 -65 -81 -82 -25 -17 -43 -34 -40 -36 12 -12 129 103 159 156 18 30 -5 8 -38 -38z" transform="translate(0,78) scale(0.1,-0.1)" stroke="none" fill="#D4944A"/>

<path d="M829 174 c-74 -80 -161 -121 -284 -134 -65 -7 -66 -7 -20 -9 70 -2 178 31 233 70 48 34 53 39 86 77 27 31 15 28 -15 -4z" transform="translate(0,78) scale(0.1,-0.1)" stroke="none" fill="#D4944A"/>

<path d="M270 92 c64 -40 292 -60 379 -34 64 20 45 24 -24 5 -68 -17 -173 -13 -271 12 -32 9 -68 18 -79 21 -15 4 -17 3 -5 -4z" transform="translate(0,78) scale(0.1,-0.1)" stroke="none" fill="#81957C"/>

<path d="M549 261 c-66 -51 -166 -75 -293 -70 -59 3 -86 0 -86 -7 0 -17 27 -37 42 -31 8 4 7 6 -4 6 -10 1 -18 6 -18 11 0 6 36 10 88 10 127 1 252 37 291 84 18 21 9 20 -20 -3z" transform="translate(0,78) scale(0.1,-0.1)" stroke="none" fill="#81957C"/>

<path d="M750 424 c-79 -81 -193 -175 -240 -199 -19 -10 -57 -24 -85 -31 l-50 -13 45 6 c86 11 177 73 320 217 46 47 82 86 79 86 -2 0 -34 -30 -69 -66z" transform="translate(0,78) scale(0.1,-0.1)" stroke="none" fill="#D4944A"/>

<path d="M840 700 c0 -5 4 -10 9 -10 16 0 57 -83 71 -144 28 -120 -17 -279 -106 -378 l-48 -53 47 45 c94 88 146 261 117 386 -18 79 -90 202 -90 154z" transform="translate(0,78) scale(0.1,-0.1)" stroke="none" fill="#81957C"/>

<path d="M781 623 c-39 -59 -182 -203 -256 -259 -82 -64 -183 -94 -340 -104 l-110 -7 93 -1 c99 -2 206 20 292 60 48 22 150 107 238 198 50 51 139 170 128 170 -3 0 -23 -26 -45 -57z" transform="translate(0,78) scale(0.1,-0.1)" stroke="none" fill="#81957C"/>

<path d="M785 643 c-25 -48 -147 -176 -234 -247 -104 -85 -196 -116 -375 -125 -80 -4 -121 -10 -123 -18 -5 -13 79 -108 108 -124 9 -5 -9 18 -42 50 -32 33 -59 64 -59 70 0 7 35 11 100 11 69 0 124 6 178 20 134 36 168 57 316 200 81 78 178 200 159 200 -5 0 -17 -17 -28 -37z" transform="translate(0,78) scale(0.1,-0.1)" stroke="none" fill="#D4944A"/>

<path d="M716 406 c-72 -72 -107 -112 -80 -89 27 22 84 78 127 122 42 45 80 81 83 81 9 0 -3 -86 -18 -130 -19 -56 -77 -138 -128 -182 -75 -64 -146 -89 -260 -89 -53 0 -119 7 -150 15 -30 9 -56 13 -58 11 -6 -6 74 -26 138 -35 75 -11 154 -2 225 23 47 17 75 38 131 93 72 71 90 99 118 187 17 49 22 128 9 126 -5 -1 -66 -60 -137 -133z" transform="translate(0,78) scale(0.1,-0.1)" stroke="none" fill="#81957C"/>

<path d="M828 673 c-8 -10 -29 -38 -46 -63 -64 -94 -248 -264 -322 -298 -90 -42 -198 -63 -297 -60 -51 2 -93 0 -93 -3 0 -20 87 -100 132 -122 70 -34 193 -65 287 -73 230 -19 399 121 433 357 14 89 1 166 -40 237 -27 47 -32 50 -54 25z m32 -173 c0 -40 -19 -107 -47 -169 -9 -19 -48 -66 -87 -105 -79 -79 -145 -110 -246 -119 -86 -7 -257 25 -297 56 -32 24 -12 32 73 28 196 -8 282 34 474 230 63 64 118 118 123 118 4 1 7 -17 7 -39z" transform="translate(0,78) scale(0.1,-0.1)" stroke="none" fill="#107C76"/>

</g>

</g>
</svg>