<?xml version="1.0" standalone="no"?>
<!DOCTYPE svg PUBLIC "-//W3C//DTD SVG 20010904//EN"
 "http://www.w3.org/TR/2001/REC-SVG-20010904/DTD/svg10.dtd">
<svg version="1.0" xmlns="http://www.w3.org/2000/svg" width="320pt" height="368pt" viewBox="0 0 320 368" preserveAspectRatio = "xMidYMid meet" >
<metadata>
Created by ZoeQu, written in 2022
</metadata>
<rect width="320" height="368" fill="#BBC3BD"/>
<g id="row0" transform="translate(10,0.0)">
<g id="0" transform="translate(0.0,0)scale(1,1)">

<path d="M495 894 c-11 -3 -58 -12 -105 -21 -104 -19 -150 -40 -226 -101 -41 -33 -68 -66 -89 -107 -28 -55 -30 -65 -30 -175 0 -110 2 -119 32 -181 18 -36 51 -87 73 -112 45 -51 178 -152 188 -142 3 3 1 37 -6 76 -20 115 -15 194 16 284 29 82 108 210 158 256 32 29 179 109 200 109 19 0 25 16 18 45 -10 39 -42 52 -179 69 -16 3 -39 2 -50 0z m5 -84 c0 -5 -5 -10 -11 -10 -5 0 -7 5 -4 10 3 6 8 10 11 10 2 0 4 -4 4 -10z m-30 -13 c0 -1 -28 -32 -63 -67 -75 -78 -123 -168 -153 -290 -16 -68 -17 -124 -3 -207 6 -35 8 -67 4 -71 -3 -4 -28 16 -54 43 -57 60 -81 128 -81 230 0 104 23 158 99 235 69 70 171 129 224 130 15 0 27 -1 27 -3z" transform="translate(0,92) scale(0.1,-0.1)" stroke="none" fill="#82786C"/>

</g>

<g id="1" transform="translate(80.0,0)scale(1,1)">

<path d="M495 894 c-11 -3 -58 -12 -105 -21 -104 -19 -150 -40 -226 -101 -41 -33 -68 -66 -89 -107 -28 -55 -30 -65 -30 -175 0 -110 2 -119 32 -181 18 -36 51 -87 73 -112 45 -51 178 -152 188 -142 3 3 1 37 -6 76 -20 115 -15 194 16 284 29 82 108 210 158 256 32 29 179 109 200 109 19 0 25 16 18 45 -10 39 -42 52 -179 69 -16 3 -39 2 -50 0z m5 -84 c0 -5 -5 -10 -11 -10 -5 0 -7 5 -4 10 3 6 8 10 11 10 2 0 4 -4 4 -10z m-30 -13 c0 -1 -28 -32 -63 -67 -75 -78 -123 -168 -153 -290 -16 -68 -17 -124 -3 -207 6 -35 8 -67 4 -71 -3 -4 -28 16 -54 43 -57 60 -81 128 -81 230 0 104 23 158 99 235 69 70 171 129 224 130 15 0 27 -1 27 -3z" transform="translate(0,92) scale(0.1,-0.1)" stroke="none" fill="#82786C"/>

</g>

<g id="2" transform="translate(160.0,0)scale(1,1)">

<path d="M495 894 c-11 -3 -58 -12 -105 -21 -104 -19 -150 -40 -226 -101 -41 -33 -68 -66 -89 -107 -28 -55 -30 -65 -30 -175 0 -110 2 -119 32 -181 18 -36 51 -87 73 -112 45 -51 178 -152 188 -142 3 3 1 37 -6 76 -20 115 -15 194 16 284 29 82 108 210 158 256 32 29 179 109 200 109 19 0 25 16 18 45 -10 39 -42 52 -179 69 -16 3 -39 2 -50 0z m5 -84 c0 -5 -5 -10 -11 -10 -5 0 -7 5 -4 10 3 6 8 10 11 10 2 0 4 -4 4 -10z m-30 -13 c0 -1 -28 -32 -63 -67 -75 -78 -123 -168 -153 -290 -16 -68 -17 -124 -3 -207 6 -35 8 -67 4 -71 -3 -4 -28 16 -54 43 -57 60 -81 128 -81 230 0 104 23 158 99 235 69 70 171 129 224 130 15 0 27 -1 27 -3z" transform="translate(0,92) scale(0.1,-0.1)" stroke="none" fill="#82786C"/>

</g>

<g id="3" transform="translate(240.0,0)scale(1,1)">

<path d="M495 894 c-11 -3 -58 -12 -105 -21 -104 -19 -150 -40 -226 -101 -41 -33 -68 -66 -89 -107 -28 -55 -30 -65 -30 -175 0 -110 2 -119 32 -181 18 -36 51 -87 73 -112 45 -51 178 -152 188 -142 3 3 1 37 -6 76 -20 115 -15 194 16 284 29 82 108 210 158 256 32 29 179 109 200 109 19 0 25 16 18 45 -10 39 -42 52 -179 69 -16 3 -39 2 -50 0z m5 -84 c0 -5 -5 -10 -11 -10 -5 0 -7 5 -4 10 3 6 8 10 11 10 2 0 4 -4 4 -10z m-30 -13 c0 -1 -28 -32 -63 -67 -75 -78 -123 -168 -153 -290 -16 -68 -17 -124 -3 -207 6 -35 8 -67 4 -71 -3 -4 -28 16 -54 43 -57 60 -81 128 -81 230 0 104 23 158 99 235 69 70 171 129 224 130 15 0 27 -1 27 -3z" transform="translate(0,92) scale(0.1,-0.1)" stroke="none" fill="#82786C"/>

</g>

<g id="4" transform="translate(320.0,0)scale(1,1)">

<path d="M495 894 c-11 -3 -58 -12 -105 -21 -104 -19 -150 -40 -226 -101 -41 -33 -68 -66 -89 -107 -28 -55 -30 -65 -30 -175 0 -110 2 -119 32 -181 18 -36 51 -87 73 -112 45 -51 178 -152 188 -142 3 3 1 37 -6 76 -20 115 -15 194 16 284 29 82 108 210 158 256 32 29 179 109 200 109 19 0 25 16 18 45 -10 39 -42 52 -179 69 -16 3 -39 2 -50 0z m5 -84 c0 -5 -5 -10 -11 -10 -5 0 -7 5 -4 10 3 6 8 10 11 10 2 0 4 -4 4 -10z m-30 -13 c0 -1 -28 -32 -63 -67 -75 -78 -123 -168 -153 -290 -16 -68 -17 -124 -3 -207 6 -35 8 -67 4 -71 -3 -4 -28 16 -54 43 -57 60 -81 128 -81 230 0 104 23 158 99 235 69 70 171 129 224 130 15 0 27 -1 27 -3z" transform="translate(0,92) scale(0.1,-0.1)" stroke="none" fill="#82786C"/>

</g>

</g>
<g id="row1" transform="translate(10,92.0)">
<g id="0" transform="translate(0.0,0)scale(1,1)">

<path d="M495 894 c-11 -3 -58 -12 -105 -21 -104 -19 -150 -40 -226 -101 -41 -33 -68 -66 -89 -107 -28 -55 -30 -65 -30 -175 0 -110 2 -119 32 -181 18 -36 51 -87 73 -112 45 -51 178 -152 188 -142 3 3 1 37 -6 76 -20 115 -15 194 16 284 29 82 108 210 158 256 32 29 179 109 200 109 19 0 25 16 18 45 -10 39 -42 52 -179 69 -16 3 -39 2 -50 0z m5 -84 c0 -5 -5 -10 -11 -10 -5 0 -7 5 -4 10 3 6 8 10 11 10 2 0 4 -4 4 -10z m-30 -13 c0 -1 -28 -32 -63 -67 -75 -78 -123 -168 -153 -290 -16 -68 -17 -124 -3 -207 6 -35 8 -67 4 -71 -3 -4 -28 16 -54 43 -57 60 -81 128 -81 230 0 104 23 158 99 235 69 70 171 129 224 130 15 0 27 -1 27 -3z" transform="translate(0,92) scale(0.1,-0.1)" stroke="none" fill="#82786C"/>

</g>

<g id="1" transform="translate(80.0,0)scale(1,1)">

<path d="M495 894 c-11 -3 -58 -12 -105 -21 -104 -19 -150 -40 -226 -101 -41 -33 -68 -66 -89 -107 -28 -55 -30 -65 -30 -175 0 -110 2 -119 32 -181 18 -36 51 -87 73 -112 45 -51 178 -152 188 -142 3 3 1 37 -6 76 -20 115 -15 194 16 284 29 82 108 210 158 256 32 29 179 109 200 109 19 0 25 16 18 45 -10 39 -42 52 -179 69 -16 3 -39 2 -50 0z m5 -84 c0 -5 -5 -10 -11 -10 -5 0 -7 5 -4 10 3 6 8 10 11 10 2 0 4 -4 4 -10z m-30 -13 c0 -1 -28 -32 -63 -67 -75 -78 -123 -168 -153 -290 -16 -68 -17 -124 -3 -207 6 -35 8 -67 4 -71 -3 -4 -28 16 -54 43 -57 60 -81 128 -81 230 0 104 23 158 99 235 69 70 171 129 224 130 15 0 27 -1 27 -3z" transform="translate(0,92) scale(0.1,-0.1)" stroke="none" fill="#82786C"/>

</g>

<g id="2" transform="translate(160.0,0)scale(1,1)">

<path d="M495 894 c-11 -3 -58 -12 -105 -21 -104 -19 -150 -40 -226 -101 -41 -33 -68 -66 -89 -107 -28 -55 -30 -65 -30 -175 0 -110 2 -119 32 -181 18 -36 51 -87 73 -112 45 -51 178 -152 188 -142 3 3 1 37 -6 76 -20 115 -15 194 16 284 29 82 108 210 158 256 32 29 179 109 200 109 19 0 25 16 18 45 -10 39 -42 52 -179 69 -16 3 -39 2 -50 0z m5 -84 c0 -5 -5 -10 -11 -10 -5 0 -7 5 -4 10 3 6 8 10 11 10 2 0 4 -4 4 -10z m-30 -13 c0 -1 -28 -32 -63 -67 -75 -78 -123 -168 -153 -290 -16 -68 -17 -124 -3 -207 6 -35 8 -67 4 -71 -3 -4 -28 16 -54 43 -57 60 -81 128 -81 230 0 104 23 158 99 235 69 70 171 129 224 130 15 0 27 -1 27 -3z" transform="translate(0,92) scale(0.1,-0.1)" stroke="none" fill="#82786C"/>

</g>

<g id="3" transform="translate(240.0,0)scale(1,1)">

<path d="M495 894 c-11 -3 -58 -12 -105 -21 -104 -19 -150 -40 -226 -101 -41 -33 -68 -66 -89 -107 -28 -55 -30 -65 -30 -175 0 -110 2 -119 32 -181 18 -36 51 -87 73 -112 45 -51 178 -152 188 -142 3 3 1 37 -6 76 -20 115 -15 194 16 284 29 82 108 210 158 256 32 29 179 109 200 109 19 0 25 16 18 45 -10 39 -42 52 -179 69 -16 3 -39 2 -50 0z m5 -84 c0 -5 -5 -10 -11 -10 -5 0 -7 5 -4 10 3 6 8 10 11 10 2 0 4 -4 4 -10z m-30 -13 c0 -1 -28 -32 -63 -67 -75 -78 -123 -168 -153 -290 -16 -68 -17 -124 -3 -207 6 -35 8 -67 4 -71 -3 -4 -28 16 -54 43 -57 60 -81 128 -81 230 0 104 23 158 99 235 69 70 171 129 224 130 15 0 27 -1 27 -3z" transform="translate(0,92) scale(0.1,-0.1)" stroke="none" fill="#82786C"/>

</g>

<g id="4" transform="translate(320.0,0)scale(1,1)">

<path d="M495 894 c-11 -3 -58 -12 -105 -21 -104 -19 -150 -40 -226 -101 -41 -33 -68 -66 -89 -107 -28 -55 -30 -65 -30 -175 0 -110 2 -119 32 -181 18 -36 51 -87 73 -112 45 -51 178 -152 188 -142 3 3 1 37 -6 76 -20 115 -15 194 16 284 29 82 108 210 158 256 32 29 179 109 200 109 19 0 25 16 18 45 -10 39 -42 52 -179 69 -16 3 -39 2 -50 0z m5 -84 c0 -5 -5 -10 -11 -10 -5 0 -7 5 -4 10 3 6 8 10 11 10 2 0 4 -4 4 -10z m-30 -13 c0 -1 -28 -32 -63 -67 -75 -78 -123 -168 -153 -290 -16 -68 -17 -124 -3 -207 6 -35 8 -67 4 -71 -3 -4 -28 16 -54 43 -57 60 -81 128 -81 230 0 104 23 158 99 235 69 70 171 129 224 130 15 0 27 -1 27 -3z" transform="translate(0,92) scale(0.1,-0.1)" stroke="none" fill="#82786C"/>

</g>

</g>
<g id="row2" transform="translate(10,184.0)">
<g id="0" transform="translate(0.0,0)scale(1,1)">

<path d="M495 894 c-11 -3 -58 -12 -105 -21 -104 -19 -150 -40 -226 -101 -41 -33 -68 -66 -89 -107 -28 -55 -30 -65 -30 -175 0 -110 2 -119 32 -181 18 -36 51 -87 73 -112 45 -51 178 -152 188 -142 3 3 1 37 -6 76 -20 115 -15 194 16 284 29 82 108 210 158 256 32 29 179 109 200 109 19 0 25 16 18 45 -10 39 -42 52 -179 69 -16 3 -39 2 -50 0z m5 -84 c0 -5 -5 -10 -11 -10 -5 0 -7 5 -4 10 3 6 8 10 11 10 2 0 4 -4 4 -10z m-30 -13 c0 -1 -28 -32 -63 -67 -75 -78 -123 -168 -153 -290 -16 -68 -17 -124 -3 -207 6 -35 8 -67 4 -71 -3 -4 -28 16 -54 43 -57 60 -81 128 -81 230 0 104 23 158 99 235 69 70 171 129 224 130 15 0 27 -1 27 -3z" transform="translate(0,92) scale(0.1,-0.1)" stroke="none" fill="#82786C"/>

</g>

<g id="1" transform="translate(80.0,0)scale(1,1)">

<path d="M495 894 c-11 -3 -58 -12 -105 -21 -104 -19 -150 -40 -226 -101 -41 -33 -68 -66 -89 -107 -28 -55 -30 -65 -30 -175 0 -110 2 -119 32 -181 18 -36 51 -87 73 -112 45 -51 178 -152 188 -142 3 3 1 37 -6 76 -20 115 -15 194 16 284 29 82 108 210 158 256 32 29 179 109 200 109 19 0 25 16 18 45 -10 39 -42 52 -179 69 -16 3 -39 2 -50 0z m5 -84 c0 -5 -5 -10 -11 -10 -5 0 -7 5 -4 10 3 6 8 10 11 10 2 0 4 -4 4 -10z m-30 -13 c0 -1 -28 -32 -63 -67 -75 -78 -123 -168 -153 -290 -16 -68 -17 -124 -3 -207 6 -35 8 -67 4 -71 -3 -4 -28 16 -54 43 -57 60 -81 128 -81 230 0 104 23 158 99 235 69 70 171 129 224 130 15 0 27 -1 27 -3z" transform="translate(0,92) scale(0.1,-0.1)" stroke="none" fill="#82786C"/>

</g>

<g id="2" transform="translate(160.0,0)scale(1,1)">

<path d="M495 894 c-11 -3 -58 -12 -105 -21 -104 -19 -150 -40 -226 -101 -41 -33 -68 -66 -89 -107 -28 -55 -30 -65 -30 -175 0 -110 2 -119 32 -181 18 -36 51 -87 73 -112 45 -51 178 -152 188 -142 3 3 1 37 -6 76 -20 115 -15 194 16 284 29 82 108 210 158 256 32 29 179 109 200 109 19 0 25 16 18 45 -10 39 -42 52 -179 69 -16 3 -39 2 -50 0z m5 -84 c0 -5 -5 -10 -11 -10 -5 0 -7 5 -4 10 3 6 8 10 11 10 2 0 4 -4 4 -10z m-30 -13 c0 -1 -28 -32 -63 -67 -75 -78 -123 -168 -153 -290 -16 -68 -17 -124 -3 -207 6 -35 8 -67 4 -71 -3 -4 -28 16 -54 43 -57 60 -81 128 -81 230 0 104 23 158 99 235 69 70 171 129 224 130 15 0 27 -1 27 -3z" transform="translate(0,92) scale(0.1,-0.1)" stroke="none" fill="#82786C"/>

</g>

<g id="3" transform="translate(240.0,0)scale(1,1)">

<path d="M495 894 c-11 -3 -58 -12 -105 -21 -104 -19 -150 -40 -226 -101 -41 -33 -68 -66 -89 -107 -28 -55 -30 -65 -30 -175 0 -110 2 -119 32 -181 18 -36 51 -87 73 -112 45 -51 178 -152 188 -142 3 3 1 37 -6 76 -20 115 -15 194 16 284 29 82 108 210 158 256 32 29 179 109 200 109 19 0 25 16 18 45 -10 39 -42 52 -179 69 -16 3 -39 2 -50 0z m5 -84 c0 -5 -5 -10 -11 -10 -5 0 -7 5 -4 10 3 6 8 10 11 10 2 0 4 -4 4 -10z m-30 -13 c0 -1 -28 -32 -63 -67 -75 -78 -123 -168 -153 -290 -16 -68 -17 -124 -3 -207 6 -35 8 -67 4 -71 -3 -4 -28 16 -54 43 -57 60 -81 128 -81 230 0 104 23 158 99 235 69 70 171 129 224 130 15 0 27 -1 27 -3z" transform="translate(0,92) scale(0.1,-0.1)" stroke="none" fill="#82786C"/>

</g>

<g id="4" transform="translate(320.0,0)scale(1,1)">

<path d="M495 894 c-11 -3 -58 -12 -105 -21 -104 -19 -150 -40 -226 -101 -41 -33 -68 -66 -89 -107 -28 -55 -30 -65 -30 -175 0 -110 2 -119 32 -181 18 -36 51 -87 73 -112 45 -51 178 -152 188 -142 3 3 1 37 -6 76 -20 115 -15 194 16 284 29 82 108 210 158 256 32 29 179 109 200 109 19 0 25 16 18 45 -10 39 -42 52 -179 69 -16 3 -39 2 -50 0z m5 -84 c0 -5 -5 -10 -11 -10 -5 0 -7 5 -4 10 3 6 8 10 11 10 2 0 4 -4 4 -10z m-30 -13 c0 -1 -28 -32 -63 -67 -75 -78 -123 -168 -153 -290 -16 -68 -17 -124 -3 -207 6 -35 8 -67 4 -71 -3 -4 -28 16 -54 43 -57 60 -81 128 -81 230 0 104 23 158 99 235 69 70 171 129 224 130 15 0 27 -1 27 -3z" transform="translate(0,92) scale(0.1,-0.1)" stroke="none" fill="#82786C"/>

</g>

</g>
<g id="row3" transform="translate(10,276.0)">
<g id="0" transform="translate(0.0,0)scale(1,1)">

<path d="M495 894 c-11 -3 -58 -12 -105 -21 -104 -19 -150 -40 -226 -101 -41 -33 -68 -66 -89 -107 -28 -55 -30 -65 -30 -175 0 -110 2 -119 32 -181 18 -36 51 -87 73 -112 45 -51 178 -152 188 -142 3 3 1 37 -6 76 -20 115 -15 194 16 284 29 82 108 210 158 256 32 29 179 109 200 109 19 0 25 16 18 45 -10 39 -42 52 -179 69 -16 3 -39 2 -50 0z m5 -84 c0 -5 -5 -10 -11 -10 -5 0 -7 5 -4 10 3 6 8 10 11 10 2 0 4 -4 4 -10z m-30 -13 c0 -1 -28 -32 -63 -67 -75 -78 -123 -168 -153 -290 -16 -68 -17 -124 -3 -207 6 -35 8 -67 4 -71 -3 -4 -28 16 -54 43 -57 60 -81 128 -81 230 0 104 23 158 99 235 69 70 171 129 224 130 15 0 27 -1 27 -3z" transform="translate(0,92) scale(0.1,-0.1)" stroke="none" fill="#82786C"/>

</g>

<g id="1" transform="translate(80.0,0)scale(1,1)">

<path d="M495 894 c-11 -3 -58 -12 -105 -21 -104 -19 -150 -40 -226 -101 -41 -33 -68 -66 -89 -107 -28 -55 -30 -65 -30 -175 0 -110 2 -119 32 -181 18 -36 51 -87 73 -112 45 -51 178 -152 188 -142 3 3 1 37 -6 76 -20 115 -15 194 16 284 29 82 108 210 158 256 32 29 179 109 200 109 19 0 25 16 18 45 -10 39 -42 52 -179 69 -16 3 -39 2 -50 0z m5 -84 c0 -5 -5 -10 -11 -10 -5 0 -7 5 -4 10 3 6 8 10 11 10 2 0 4 -4 4 -10z m-30 -13 c0 -1 -28 -32 -63 -67 -75 -78 -123 -168 -153 -290 -16 -68 -17 -124 -3 -207 6 -35 8 -67 4 -71 -3 -4 -28 16 -54 43 -57 60 -81 128 -81 230 0 104 23 158 99 235 69 70 171 129 224 130 15 0 27 -1 27 -3z" transform="translate(0,92) scale(0.1,-0.1)" stroke="none" fill="#82786C"/>

</g>

<g id="2" transform="translate(160.0,0)scale(1,1)">

<path d="M495 894 c-11 -3 -58 -12 -105 -21 -104 -19 -150 -40 -226 -101 -41 -33 -68 -66 -89 -107 -28 -55 -30 -65 -30 -175 0 -110 2 -119 32 -181 18 -36 51 -87 73 -112 45 -51 178 -152 188 -142 3 3 1 37 -6 76 -20 115 -15 194 16 284 29 82 108 210 158 256 32 29 179 109 200 109 19 0 25 16 18 45 -10 39 -42 52 -179 69 -16 3 -39 2 -50 0z m5 -84 c0 -5 -5 -10 -11 -10 -5 0 -7 5 -4 10 3 6 8 10 11 10 2 0 4 -4 4 -10z m-30 -13 c0 -1 -28 -32 -63 -67 -75 -78 -123 -168 -153 -290 -16 -68 -17 -124 -3 -207 6 -35 8 -67 4 -71 -3 -4 -28 16 -54 43 -57 60 -81 128 -81 230 0 104 23 158 99 235 69 70 171 129 224 130 15 0 27 -1 27 -3z" transform="translate(0,92) scale(0.1,-0.1)" stroke="none" fill="#82786C"/>

</g>

<g id="3" transform="translate(240.0,0)scale(1,1)">

<path d="M495 894 c-11 -3 -58 -12 -105 -21 -104 -19 -150 -40 -226 -101 -41 -33 -68 -66 -89 -107 -28 -55 -30 -65 -30 -175 0 -110 2 -119 32 -181 18 -36 51 -87 73 -112 45 -51 178 -152 188 -142 3 3 1 37 -6 76 -20 115 -15 194 16 284 29 82 108 210 158 256 32 29 179 109 200 109 19 0 25 16 18 45 -10 39 -42 52 -179 69 -16 3 -39 2 -50 0z m5 -84 c0 -5 -5 -10 -11 -10 -5 0 -7 5 -4 10 3 6 8 10 11 10 2 0 4 -4 4 -10z m-30 -13 c0 -1 -28 -32 -63 -67 -75 -78 -123 -168 -153 -290 -16 -68 -17 -124 -3 -207 6 -35 8 -67 4 -71 -3 -4 -28 16 -54 43 -57 60 -81 128 -81 230 0 104 23 158 99 235 69 70 171 129 224 130 15 0 27 -1 27 -3z" transform="translate(0,92) scale(0.1,-0.1)" stroke="none" fill="#82786C"/>

</g>

<g id="4" transform="translate(320.0,0)scale(1,1)">

<path d="M495 894 c-11 -3 -58 -12 -105 -21 -104 -19 -150 -40 -226 -101 -41 -33 -68 -66 -89 -107 -28 -55 -30 -65 -30 -175 0 -110 2 -119 32 -181 18 -36 51 -87 73 -112 45 -51 178 -152 188 -142 3 3 1 37 -6 76 -20 115 -15 194 16 284 29 82 108 210 158 256 32 29 179 109 200 109 19 0 25 16 18 45 -10 39 -42 52 -179 69 -16 3 -39 2 -50 0z m5 -84 c0 -5 -5 -10 -11 -10 -5 0 -7 5 -4 10 3 6 8 10 11 10 2 0 4 -4 4 -10z m-30 -13 c0 -1 -28 -32 -63 -67 -75 -78 -123 -168 -153 -290 -16 -68 -17 -124 -3 -207 6 -35 8 -67 4 -71 -3 -4 -28 16 -54 43 -57 60 -81 128 -81 230 0 104 23 158 99 235 69 70 171 129 224 130 15 0 27 -1 27 -3z" transform="translate(0,92) scale(0.1,-0.1)" stroke="none" fill="#82786C"/>

</g>

</g>
</svg>