<?xml version="1.0" standalone="no"?>
<!DOCTYPE svg PUBLIC "-//W3C//DTD SVG 20010904//EN"
 "http://www.w3.org/TR/2001/REC-SVG-20010904/DTD/svg10.dtd">
<svg version="1.0" xmlns="http://www.w3.org/2000/svg" width="432pt" height="424pt" viewBox="0 0 432 424" preserveAspectRatio = "xMidYMid meet" >
<metadata>
Created by ZoeQu, written in 2022
</metadata>
<rect width="432" height="424" fill="#875736"/>
<g id="row0" transform="translate(14,0.0)">
<g id="0" transform="translate(0.0,0)scale(1,1)">

<path d="M527 653 c-10 -10 -8 -71 2 -77 22 -14 41 7 41 45 0 31 -4 39 -18 39 -10 0 -22 -3 -25 -7z" transform="translate(0,106) scale(0.1,-0.1)" stroke="none" fill="#E0945A"/>

<path d="M624 659 c-12 -20 -12 -79 0 -89 16 -12 60 10 64 34 7 36 -7 66 -33 66 -13 0 -27 -5 -31 -11z" transform="translate(0,106) scale(0.1,-0.1)" stroke="none" fill="#E0945A"/>

<path d="M692 528 c-7 -7 -12 -24 -12 -39 0 -15 -4 -31 -10 -34 -5 -3 -10 -1 -10 4 0 16 -26 13 -39 -3 -18 -22 -4 -86 19 -86 19 0 30 19 30 51 0 14 6 19 23 18 45 -4 67 1 76 19 14 27 3 58 -25 71 -31 14 -37 14 -52 -1z" transform="translate(0,106) scale(0.1,-0.1)" stroke="none" fill="#E0945A"/>

<path d="M567 961 l-55 -52 -37 23 c-55 32 -115 28 -193 -11 -58 -30 -66 -38 -93 -94 -31 -67 -36 -110 -17 -153 11 -24 9 -29 -23 -58 -37 -34 -75 -114 -85 -178 -11 -65 9 -94 90 -133 39 -18 81 -36 94 -40 13 -4 22 -14 22 -26 0 -35 29 -78 81 -119 125 -99 262 -75 337 60 13 24 25 34 38 32 11 -1 53 -5 94 -9 117 -9 162 24 176 131 5 36 1 55 -24 106 l-29 62 28 32 c56 65 63 125 23 201 -31 58 -85 111 -130 125 -25 9 -35 21 -51 63 -23 61 -48 77 -133 84 l-58 6 -55 -52z m119 -315 c9 -37 1 -59 -26 -74 l-25 -13 25 2 c39 2 41 0 29 -23 -11 -21 -11 -22 4 -9 22 18 73 -2 81 -31 11 -44 -17 -65 -81 -59 -17 1 -23 -4 -23 -18 0 -32 -11 -51 -30 -51 -23 0 -37 64 -19 86 13 16 39 19 39 3 0 -5 5 -7 10 -4 6 3 9 18 9 33 -1 17 -3 21 -6 10 -3 -11 -14 -18 -27 -18 -30 0 -46 -18 -46 -52 0 -33 -23 -37 -70 -13 -50 26 -67 74 -47 135 15 46 14 46 36 26 28 -25 61 -6 61 34 0 21 5 30 16 30 12 0 15 -7 11 -27 -6 -31 1 -53 15 -53 7 0 7 5 1 13 -11 14 -10 68 1 85 4 7 18 12 31 12 18 0 26 -7 31 -24z m-116 -25 c0 -26 -5 -41 -16 -45 -24 -9 -34 2 -34 38 0 37 6 46 32 46 14 0 18 -8 18 -39z" transform="translate(0,106) scale(0.1,-0.1)" stroke="none" fill="#3B2B1D"/>

</g>

<g id="1" transform="translate(108.0,0)scale(1,1)">

<path d="M527 653 c-10 -10 -8 -71 2 -77 22 -14 41 7 41 45 0 31 -4 39 -18 39 -10 0 -22 -3 -25 -7z" transform="translate(0,106) scale(0.1,-0.1)" stroke="none" fill="#E0945A"/>

<path d="M624 659 c-12 -20 -12 -79 0 -89 16 -12 60 10 64 34 7 36 -7 66 -33 66 -13 0 -27 -5 -31 -11z" transform="translate(0,106) scale(0.1,-0.1)" stroke="none" fill="#E0945A"/>

<path d="M692 528 c-7 -7 -12 -24 -12 -39 0 -15 -4 -31 -10 -34 -5 -3 -10 -1 -10 4 0 16 -26 13 -39 -3 -18 -22 -4 -86 19 -86 19 0 30 19 30 51 0 14 6 19 23 18 45 -4 67 1 76 19 14 27 3 58 -25 71 -31 14 -37 14 -52 -1z" transform="translate(0,106) scale(0.1,-0.1)" stroke="none" fill="#E0945A"/>

<path d="M567 961 l-55 -52 -37 23 c-55 32 -115 28 -193 -11 -58 -30 -66 -38 -93 -94 -31 -67 -36 -110 -17 -153 11 -24 9 -29 -23 -58 -37 -34 -75 -114 -85 -178 -11 -65 9 -94 90 -133 39 -18 81 -36 94 -40 13 -4 22 -14 22 -26 0 -35 29 -78 81 -119 125 -99 262 -75 337 60 13 24 25 34 38 32 11 -1 53 -5 94 -9 117 -9 162 24 176 131 5 36 1 55 -24 106 l-29 62 28 32 c56 65 63 125 23 201 -31 58 -85 111 -130 125 -25 9 -35 21 -51 63 -23 61 -48 77 -133 84 l-58 6 -55 -52z m119 -315 c9 -37 1 -59 -26 -74 l-25 -13 25 2 c39 2 41 0 29 -23 -11 -21 -11 -22 4 -9 22 18 73 -2 81 -31 11 -44 -17 -65 -81 -59 -17 1 -23 -4 -23 -18 0 -32 -11 -51 -30 -51 -23 0 -37 64 -19 86 13 16 39 19 39 3 0 -5 5 -7 10 -4 6 3 9 18 9 33 -1 17 -3 21 -6 10 -3 -11 -14 -18 -27 -18 -30 0 -46 -18 -46 -52 0 -33 -23 -37 -70 -13 -50 26 -67 74 -47 135 15 46 14 46 36 26 28 -25 61 -6 61 34 0 21 5 30 16 30 12 0 15 -7 11 -27 -6 -31 1 -53 15 -53 7 0 7 5 1 13 -11 14 -10 68 1 85 4 7 18 12 31 12 18 0 26 -7 31 -24z m-116 -25 c0 -26 -5 -41 -16 -45 -24 -9 -34 2 -34 38 0 37 6 46 32 46 14 0 18 -8 18 -39z" transform="translate(0,106) scale(0.1,-0.1)" stroke="none" fill="#3B2B1D"/>

</g>

<g id="2" transform="translate(216.0,0)scale(1,1)">

<path d="M527 653 c-10 -10 -8 -71 2 -77 22 -14 41 7 41 45 0 31 -4 39 -18 39 -10 0 -22 -3 -25 -7z" transform="translate(0,106) scale(0.1,-0.1)" stroke="none" fill="#E0945A"/>

<path d="M624 659 c-12 -20 -12 -79 0 -89 16 -12 60 10 64 34 7 36 -7 66 -33 66 -13 0 -27 -5 -31 -11z" transform="translate(0,106) scale(0.1,-0.1)" stroke="none" fill="#E0945A"/>

<path d="M692 528 c-7 -7 -12 -24 -12 -39 0 -15 -4 -31 -10 -34 -5 -3 -10 -1 -10 4 0 16 -26 13 -39 -3 -18 -22 -4 -86 19 -86 19 0 30 19 30 51 0 14 6 19 23 18 45 -4 67 1 76 19 14 27 3 58 -25 71 -31 14 -37 14 -52 -1z" transform="translate(0,106) scale(0.1,-0.1)" stroke="none" fill="#E0945A"/>

<path d="M567 961 l-55 -52 -37 23 c-55 32 -115 28 -193 -11 -58 -30 -66 -38 -93 -94 -31 -67 -36 -110 -17 -153 11 -24 9 -29 -23 -58 -37 -34 -75 -114 -85 -178 -11 -65 9 -94 90 -133 39 -18 81 -36 94 -40 13 -4 22 -14 22 -26 0 -35 29 -78 81 -119 125 -99 262 -75 337 60 13 24 25 34 38 32 11 -1 53 -5 94 -9 117 -9 162 24 176 131 5 36 1 55 -24 106 l-29 62 28 32 c56 65 63 125 23 201 -31 58 -85 111 -130 125 -25 9 -35 21 -51 63 -23 61 -48 77 -133 84 l-58 6 -55 -52z m119 -315 c9 -37 1 -59 -26 -74 l-25 -13 25 2 c39 2 41 0 29 -23 -11 -21 -11 -22 4 -9 22 18 73 -2 81 -31 11 -44 -17 -65 -81 -59 -17 1 -23 -4 -23 -18 0 -32 -11 -51 -30 -51 -23 0 -37 64 -19 86 13 16 39 19 39 3 0 -5 5 -7 10 -4 6 3 9 18 9 33 -1 17 -3 21 -6 10 -3 -11 -14 -18 -27 -18 -30 0 -46 -18 -46 -52 0 -33 -23 -37 -70 -13 -50 26 -67 74 -47 135 15 46 14 46 36 26 28 -25 61 -6 61 34 0 21 5 30 16 30 12 0 15 -7 11 -27 -6 -31 1 -53 15 -53 7 0 7 5 1 13 -11 14 -10 68 1 85 4 7 18 12 31 12 18 0 26 -7 31 -24z m-116 -25 c0 -26 -5 -41 -16 -45 -24 -9 -34 2 -34 38 0 37 6 46 32 46 14 0 18 -8 18 -39z" transform="translate(0,106) scale(0.1,-0.1)" stroke="none" fill="#3B2B1D"/>

</g>

<g id="3" transform="translate(324.0,0)scale(1,1)">

<path d="M527 653 c-10 -10 -8 -71 2 -77 22 -14 41 7 41 45 0 31 -4 39 -18 39 -10 0 -22 -3 -25 -7z" transform="translate(0,106) scale(0.1,-0.1)" stroke="none" fill="#E0945A"/>

<path d="M624 659 c-12 -20 -12 -79 0 -89 16 -12 60 10 64 34 7 36 -7 66 -33 66 -13 0 -27 -5 -31 -11z" transform="translate(0,106) scale(0.1,-0.1)" stroke="none" fill="#E0945A"/>

<path d="M692 528 c-7 -7 -12 -24 -12 -39 0 -15 -4 -31 -10 -34 -5 -3 -10 -1 -10 4 0 16 -26 13 -39 -3 -18 -22 -4 -86 19 -86 19 0 30 19 30 51 0 14 6 19 23 18 45 -4 67 1 76 19 14 27 3 58 -25 71 -31 14 -37 14 -52 -1z" transform="translate(0,106) scale(0.1,-0.1)" stroke="none" fill="#E0945A"/>

<path d="M567 961 l-55 -52 -37 23 c-55 32 -115 28 -193 -11 -58 -30 -66 -38 -93 -94 -31 -67 -36 -110 -17 -153 11 -24 9 -29 -23 -58 -37 -34 -75 -114 -85 -178 -11 -65 9 -94 90 -133 39 -18 81 -36 94 -40 13 -4 22 -14 22 -26 0 -35 29 -78 81 -119 125 -99 262 -75 337 60 13 24 25 34 38 32 11 -1 53 -5 94 -9 117 -9 162 24 176 131 5 36 1 55 -24 106 l-29 62 28 32 c56 65 63 125 23 201 -31 58 -85 111 -130 125 -25 9 -35 21 -51 63 -23 61 -48 77 -133 84 l-58 6 -55 -52z m119 -315 c9 -37 1 -59 -26 -74 l-25 -13 25 2 c39 2 41 0 29 -23 -11 -21 -11 -22 4 -9 22 18 73 -2 81 -31 11 -44 -17 -65 -81 -59 -17 1 -23 -4 -23 -18 0 -32 -11 -51 -30 -51 -23 0 -37 64 -19 86 13 16 39 19 39 3 0 -5 5 -7 10 -4 6 3 9 18 9 33 -1 17 -3 21 -6 10 -3 -11 -14 -18 -27 -18 -30 0 -46 -18 -46 -52 0 -33 -23 -37 -70 -13 -50 26 -67 74 -47 135 15 46 14 46 36 26 28 -25 61 -6 61 34 0 21 5 30 16 30 12 0 15 -7 11 -27 -6 -31 1 -53 15 -53 7 0 7 5 1 13 -11 14 -10 68 1 85 4 7 18 12 31 12 18 0 26 -7 31 -24z m-116 -25 c0 -26 -5 -41 -16 -45 -24 -9 -34 2 -34 38 0 37 6 46 32 46 14 0 18 -8 18 -39z" transform="translate(0,106) scale(0.1,-0.1)" stroke="none" fill="#3B2B1D"/>

</g>

<g id="4" transform="translate(432.0,0)scale(1,1)">

<path d="M527 653 c-10 -10 -8 -71 2 -77 22 -14 41 7 41 45 0 31 -4 39 -18 39 -10 0 -22 -3 -25 -7z" transform="translate(0,106) scale(0.1,-0.1)" stroke="none" fill="#E0945A"/>

<path d="M624 659 c-12 -20 -12 -79 0 -89 16 -12 60 10 64 34 7 36 -7 66 -33 66 -13 0 -27 -5 -31 -11z" transform="translate(0,106) scale(0.1,-0.1)" stroke="none" fill="#E0945A"/>

<path d="M692 528 c-7 -7 -12 -24 -12 -39 0 -15 -4 -31 -10 -34 -5 -3 -10 -1 -10 4 0 16 -26 13 -39 -3 -18 -22 -4 -86 19 -86 19 0 30 19 30 51 0 14 6 19 23 18 45 -4 67 1 76 19 14 27 3 58 -25 71 -31 14 -37 14 -52 -1z" transform="translate(0,106) scale(0.1,-0.1)" stroke="none" fill="#E0945A"/>

<path d="M567 961 l-55 -52 -37 23 c-55 32 -115 28 -193 -11 -58 -30 -66 -38 -93 -94 -31 -67 -36 -110 -17 -153 11 -24 9 -29 -23 -58 -37 -34 -75 -114 -85 -178 -11 -65 9 -94 90 -133 39 -18 81 -36 94 -40 13 -4 22 -14 22 -26 0 -35 29 -78 81 -119 125 -99 262 -75 337 60 13 24 25 34 38 32 11 -1 53 -5 94 -9 117 -9 162 24 176 131 5 36 1 55 -24 106 l-29 62 28 32 c56 65 63 125 23 201 -31 58 -85 111 -130 125 -25 9 -35 21 -51 63 -23 61 -48 77 -133 84 l-58 6 -55 -52z m119 -315 c9 -37 1 -59 -26 -74 l-25 -13 25 2 c39 2 41 0 29 -23 -11 -21 -11 -22 4 -9 22 18 73 -2 81 -31 11 -44 -17 -65 -81 -59 -17 1 -23 -4 -23 -18 0 -32 -11 -51 -30 -51 -23 0 -37 64 -19 86 13 16 39 19 39 3 0 -5 5 -7 10 -4 6 3 9 18 9 33 -1 17 -3 21 -6 10 -3 -11 -14 -18 -27 -18 -30 0 -46 -18 -46 -52 0 -33 -23 -37 -70 -13 -50 26 -67 74 -47 135 15 46 14 46 36 26 28 -25 61 -6 61 34 0 21 5 30 16 30 12 0 15 -7 11 -27 -6 -31 1 -53 15 -53 7 0 7 5 1 13 -11 14 -10 68 1 85 4 7 18 12 31 12 18 0 26 -7 31 -24z m-116 -25 c0 -26 -5 -41 -16 -45 -24 -9 -34 2 -34 38 0 37 6 46 32 46 14 0 18 -8 18 -39z" transform="translate(0,106) scale(0.1,-0.1)" stroke="none" fill="#3B2B1D"/>

</g>

</g>
<g id="row1" transform="translate(14,106.0)">
<g id="0" transform="translate(0.0,0)scale(1,1)">

<path d="M527 653 c-10 -10 -8 -71 2 -77 22 -14 41 7 41 45 0 31 -4 39 -18 39 -10 0 -22 -3 -25 -7z" transform="translate(0,106) scale(0.1,-0.1)" stroke="none" fill="#E0945A"/>

<path d="M624 659 c-12 -20 -12 -79 0 -89 16 -12 60 10 64 34 7 36 -7 66 -33 66 -13 0 -27 -5 -31 -11z" transform="translate(0,106) scale(0.1,-0.1)" stroke="none" fill="#E0945A"/>

<path d="M692 528 c-7 -7 -12 -24 -12 -39 0 -15 -4 -31 -10 -34 -5 -3 -10 -1 -10 4 0 16 -26 13 -39 -3 -18 -22 -4 -86 19 -86 19 0 30 19 30 51 0 14 6 19 23 18 45 -4 67 1 76 19 14 27 3 58 -25 71 -31 14 -37 14 -52 -1z" transform="translate(0,106) scale(0.1,-0.1)" stroke="none" fill="#E0945A"/>

<path d="M567 961 l-55 -52 -37 23 c-55 32 -115 28 -193 -11 -58 -30 -66 -38 -93 -94 -31 -67 -36 -110 -17 -153 11 -24 9 -29 -23 -58 -37 -34 -75 -114 -85 -178 -11 -65 9 -94 90 -133 39 -18 81 -36 94 -40 13 -4 22 -14 22 -26 0 -35 29 -78 81 -119 125 -99 262 -75 337 60 13 24 25 34 38 32 11 -1 53 -5 94 -9 117 -9 162 24 176 131 5 36 1 55 -24 106 l-29 62 28 32 c56 65 63 125 23 201 -31 58 -85 111 -130 125 -25 9 -35 21 -51 63 -23 61 -48 77 -133 84 l-58 6 -55 -52z m119 -315 c9 -37 1 -59 -26 -74 l-25 -13 25 2 c39 2 41 0 29 -23 -11 -21 -11 -22 4 -9 22 18 73 -2 81 -31 11 -44 -17 -65 -81 -59 -17 1 -23 -4 -23 -18 0 -32 -11 -51 -30 -51 -23 0 -37 64 -19 86 13 16 39 19 39 3 0 -5 5 -7 10 -4 6 3 9 18 9 33 -1 17 -3 21 -6 10 -3 -11 -14 -18 -27 -18 -30 0 -46 -18 -46 -52 0 -33 -23 -37 -70 -13 -50 26 -67 74 -47 135 15 46 14 46 36 26 28 -25 61 -6 61 34 0 21 5 30 16 30 12 0 15 -7 11 -27 -6 -31 1 -53 15 -53 7 0 7 5 1 13 -11 14 -10 68 1 85 4 7 18 12 31 12 18 0 26 -7 31 -24z m-116 -25 c0 -26 -5 -41 -16 -45 -24 -9 -34 2 -34 38 0 37 6 46 32 46 14 0 18 -8 18 -39z" transform="translate(0,106) scale(0.1,-0.1)" stroke="none" fill="#3B2B1D"/>

</g>

<g id="1" transform="translate(108.0,0)scale(1,1)">

<path d="M527 653 c-10 -10 -8 -71 2 -77 22 -14 41 7 41 45 0 31 -4 39 -18 39 -10 0 -22 -3 -25 -7z" transform="translate(0,106) scale(0.1,-0.1)" stroke="none" fill="#E0945A"/>

<path d="M624 659 c-12 -20 -12 -79 0 -89 16 -12 60 10 64 34 7 36 -7 66 -33 66 -13 0 -27 -5 -31 -11z" transform="translate(0,106) scale(0.1,-0.1)" stroke="none" fill="#E0945A"/>

<path d="M692 528 c-7 -7 -12 -24 -12 -39 0 -15 -4 -31 -10 -34 -5 -3 -10 -1 -10 4 0 16 -26 13 -39 -3 -18 -22 -4 -86 19 -86 19 0 30 19 30 51 0 14 6 19 23 18 45 -4 67 1 76 19 14 27 3 58 -25 71 -31 14 -37 14 -52 -1z" transform="translate(0,106) scale(0.1,-0.1)" stroke="none" fill="#E0945A"/>

<path d="M567 961 l-55 -52 -37 23 c-55 32 -115 28 -193 -11 -58 -30 -66 -38 -93 -94 -31 -67 -36 -110 -17 -153 11 -24 9 -29 -23 -58 -37 -34 -75 -114 -85 -178 -11 -65 9 -94 90 -133 39 -18 81 -36 94 -40 13 -4 22 -14 22 -26 0 -35 29 -78 81 -119 125 -99 262 -75 337 60 13 24 25 34 38 32 11 -1 53 -5 94 -9 117 -9 162 24 176 131 5 36 1 55 -24 106 l-29 62 28 32 c56 65 63 125 23 201 -31 58 -85 111 -130 125 -25 9 -35 21 -51 63 -23 61 -48 77 -133 84 l-58 6 -55 -52z m119 -315 c9 -37 1 -59 -26 -74 l-25 -13 25 2 c39 2 41 0 29 -23 -11 -21 -11 -22 4 -9 22 18 73 -2 81 -31 11 -44 -17 -65 -81 -59 -17 1 -23 -4 -23 -18 0 -32 -11 -51 -30 -51 -23 0 -37 64 -19 86 13 16 39 19 39 3 0 -5 5 -7 10 -4 6 3 9 18 9 33 -1 17 -3 21 -6 10 -3 -11 -14 -18 -27 -18 -30 0 -46 -18 -46 -52 0 -33 -23 -37 -70 -13 -50 26 -67 74 -47 135 15 46 14 46 36 26 28 -25 61 -6 61 34 0 21 5 30 16 30 12 0 15 -7 11 -27 -6 -31 1 -53 15 -53 7 0 7 5 1 13 -11 14 -10 68 1 85 4 7 18 12 31 12 18 0 26 -7 31 -24z m-116 -25 c0 -26 -5 -41 -16 -45 -24 -9 -34 2 -34 38 0 37 6 46 32 46 14 0 18 -8 18 -39z" transform="translate(0,106) scale(0.1,-0.1)" stroke="none" fill="#3B2B1D"/>

</g>

<g id="2" transform="translate(216.0,0)scale(1,1)">

<path d="M527 653 c-10 -10 -8 -71 2 -77 22 -14 41 7 41 45 0 31 -4 39 -18 39 -10 0 -22 -3 -25 -7z" transform="translate(0,106) scale(0.1,-0.1)" stroke="none" fill="#E0945A"/>

<path d="M624 659 c-12 -20 -12 -79 0 -89 16 -12 60 10 64 34 7 36 -7 66 -33 66 -13 0 -27 -5 -31 -11z" transform="translate(0,106) scale(0.1,-0.1)" stroke="none" fill="#E0945A"/>

<path d="M692 528 c-7 -7 -12 -24 -12 -39 0 -15 -4 -31 -10 -34 -5 -3 -10 -1 -10 4 0 16 -26 13 -39 -3 -18 -22 -4 -86 19 -86 19 0 30 19 30 51 0 14 6 19 23 18 45 -4 67 1 76 19 14 27 3 58 -25 71 -31 14 -37 14 -52 -1z" transform="translate(0,106) scale(0.1,-0.1)" stroke="none" fill="#E0945A"/>

<path d="M567 961 l-55 -52 -37 23 c-55 32 -115 28 -193 -11 -58 -30 -66 -38 -93 -94 -31 -67 -36 -110 -17 -153 11 -24 9 -29 -23 -58 -37 -34 -75 -114 -85 -178 -11 -65 9 -94 90 -133 39 -18 81 -36 94 -40 13 -4 22 -14 22 -26 0 -35 29 -78 81 -119 125 -99 262 -75 337 60 13 24 25 34 38 32 11 -1 53 -5 94 -9 117 -9 162 24 176 131 5 36 1 55 -24 106 l-29 62 28 32 c56 65 63 125 23 201 -31 58 -85 111 -130 125 -25 9 -35 21 -51 63 -23 61 -48 77 -133 84 l-58 6 -55 -52z m119 -315 c9 -37 1 -59 -26 -74 l-25 -13 25 2 c39 2 41 0 29 -23 -11 -21 -11 -22 4 -9 22 18 73 -2 81 -31 11 -44 -17 -65 -81 -59 -17 1 -23 -4 -23 -18 0 -32 -11 -51 -30 -51 -23 0 -37 64 -19 86 13 16 39 19 39 3 0 -5 5 -7 10 -4 6 3 9 18 9 33 -1 17 -3 21 -6 10 -3 -11 -14 -18 -27 -18 -30 0 -46 -18 -46 -52 0 -33 -23 -37 -70 -13 -50 26 -67 74 -47 135 15 46 14 46 36 26 28 -25 61 -6 61 34 0 21 5 30 16 30 12 0 15 -7 11 -27 -6 -31 1 -53 15 -53 7 0 7 5 1 13 -11 14 -10 68 1 85 4 7 18 12 31 12 18 0 26 -7 31 -24z m-116 -25 c0 -26 -5 -41 -16 -45 -24 -9 -34 2 -34 38 0 37 6 46 32 46 14 0 18 -8 18 -39z" transform="translate(0,106) scale(0.1,-0.1)" stroke="none" fill="#3B2B1D"/>

</g>

<g id="3" transform="translate(324.0,0)scale(1,1)">

<path d="M527 653 c-10 -10 -8 -71 2 -77 22 -14 41 7 41 45 0 31 -4 39 -18 39 -10 0 -22 -3 -25 -7z" transform="translate(0,106) scale(0.1,-0.1)" stroke="none" fill="#E0945A"/>

<path d="M624 659 c-12 -20 -12 -79 0 -89 16 -12 60 10 64 34 7 36 -7 66 -33 66 -13 0 -27 -5 -31 -11z" transform="translate(0,106) scale(0.1,-0.1)" stroke="none" fill="#E0945A"/>

<path d="M692 528 c-7 -7 -12 -24 -12 -39 0 -15 -4 -31 -10 -34 -5 -3 -10 -1 -10 4 0 16 -26 13 -39 -3 -18 -22 -4 -86 19 -86 19 0 30 19 30 51 0 14 6 19 23 18 45 -4 67 1 76 19 14 27 3 58 -25 71 -31 14 -37 14 -52 -1z" transform="translate(0,106) scale(0.1,-0.1)" stroke="none" fill="#E0945A"/>

<path d="M567 961 l-55 -52 -37 23 c-55 32 -115 28 -193 -11 -58 -30 -66 -38 -93 -94 -31 -67 -36 -110 -17 -153 11 -24 9 -29 -23 -58 -37 -34 -75 -114 -85 -178 -11 -65 9 -94 90 -133 39 -18 81 -36 94 -40 13 -4 22 -14 22 -26 0 -35 29 -78 81 -119 125 -99 262 -75 337 60 13 24 25 34 38 32 11 -1 53 -5 94 -9 117 -9 162 24 176 131 5 36 1 55 -24 106 l-29 62 28 32 c56 65 63 125 23 201 -31 58 -85 111 -130 125 -25 9 -35 21 -51 63 -23 61 -48 77 -133 84 l-58 6 -55 -52z m119 -315 c9 -37 1 -59 -26 -74 l-25 -13 25 2 c39 2 41 0 29 -23 -11 -21 -11 -22 4 -9 22 18 73 -2 81 -31 11 -44 -17 -65 -81 -59 -17 1 -23 -4 -23 -18 0 -32 -11 -51 -30 -51 -23 0 -37 64 -19 86 13 16 39 19 39 3 0 -5 5 -7 10 -4 6 3 9 18 9 33 -1 17 -3 21 -6 10 -3 -11 -14 -18 -27 -18 -30 0 -46 -18 -46 -52 0 -33 -23 -37 -70 -13 -50 26 -67 74 -47 135 15 46 14 46 36 26 28 -25 61 -6 61 34 0 21 5 30 16 30 12 0 15 -7 11 -27 -6 -31 1 -53 15 -53 7 0 7 5 1 13 -11 14 -10 68 1 85 4 7 18 12 31 12 18 0 26 -7 31 -24z m-116 -25 c0 -26 -5 -41 -16 -45 -24 -9 -34 2 -34 38 0 37 6 46 32 46 14 0 18 -8 18 -39z" transform="translate(0,106) scale(0.1,-0.1)" stroke="none" fill="#3B2B1D"/>

</g>

<g id="4" transform="translate(432.0,0)scale(1,1)">

<path d="M527 653 c-10 -10 -8 -71 2 -77 22 -14 41 7 41 45 0 31 -4 39 -18 39 -10 0 -22 -3 -25 -7z" transform="translate(0,106) scale(0.1,-0.1)" stroke="none" fill="#E0945A"/>

<path d="M624 659 c-12 -20 -12 -79 0 -89 16 -12 60 10 64 34 7 36 -7 66 -33 66 -13 0 -27 -5 -31 -11z" transform="translate(0,106) scale(0.1,-0.1)" stroke="none" fill="#E0945A"/>

<path d="M692 528 c-7 -7 -12 -24 -12 -39 0 -15 -4 -31 -10 -34 -5 -3 -10 -1 -10 4 0 16 -26 13 -39 -3 -18 -22 -4 -86 19 -86 19 0 30 19 30 51 0 14 6 19 23 18 45 -4 67 1 76 19 14 27 3 58 -25 71 -31 14 -37 14 -52 -1z" transform="translate(0,106) scale(0.1,-0.1)" stroke="none" fill="#E0945A"/>

<path d="M567 961 l-55 -52 -37 23 c-55 32 -115 28 -193 -11 -58 -30 -66 -38 -93 -94 -31 -67 -36 -110 -17 -153 11 -24 9 -29 -23 -58 -37 -34 -75 -114 -85 -178 -11 -65 9 -94 90 -133 39 -18 81 -36 94 -40 13 -4 22 -14 22 -26 0 -35 29 -78 81 -119 125 -99 262 -75 337 60 13 24 25 34 38 32 11 -1 53 -5 94 -9 117 -9 162 24 176 131 5 36 1 55 -24 106 l-29 62 28 32 c56 65 63 125 23 201 -31 58 -85 111 -130 125 -25 9 -35 21 -51 63 -23 61 -48 77 -133 84 l-58 6 -55 -52z m119 -315 c9 -37 1 -59 -26 -74 l-25 -13 25 2 c39 2 41 0 29 -23 -11 -21 -11 -22 4 -9 22 18 73 -2 81 -31 11 -44 -17 -65 -81 -59 -17 1 -23 -4 -23 -18 0 -32 -11 -51 -30 -51 -23 0 -37 64 -19 86 13 16 39 19 39 3 0 -5 5 -7 10 -4 6 3 9 18 9 33 -1 17 -3 21 -6 10 -3 -11 -14 -18 -27 -18 -30 0 -46 -18 -46 -52 0 -33 -23 -37 -70 -13 -50 26 -67 74 -47 135 15 46 14 46 36 26 28 -25 61 -6 61 34 0 21 5 30 16 30 12 0 15 -7 11 -27 -6 -31 1 -53 15 -53 7 0 7 5 1 13 -11 14 -10 68 1 85 4 7 18 12 31 12 18 0 26 -7 31 -24z m-116 -25 c0 -26 -5 -41 -16 -45 -24 -9 -34 2 -34 38 0 37 6 46 32 46 14 0 18 -8 18 -39z" transform="translate(0,106) scale(0.1,-0.1)" stroke="none" fill="#3B2B1D"/>

</g>

</g>
<g id="row2" transform="translate(14,212.0)">
<g id="0" transform="translate(0.0,0)scale(1,1)">

<path d="M527 653 c-10 -10 -8 -71 2 -77 22 -14 41 7 41 45 0 31 -4 39 -18 39 -10 0 -22 -3 -25 -7z" transform="translate(0,106) scale(0.1,-0.1)" stroke="none" fill="#E0945A"/>

<path d="M624 659 c-12 -20 -12 -79 0 -89 16 -12 60 10 64 34 7 36 -7 66 -33 66 -13 0 -27 -5 -31 -11z" transform="translate(0,106) scale(0.1,-0.1)" stroke="none" fill="#E0945A"/>

<path d="M692 528 c-7 -7 -12 -24 -12 -39 0 -15 -4 -31 -10 -34 -5 -3 -10 -1 -10 4 0 16 -26 13 -39 -3 -18 -22 -4 -86 19 -86 19 0 30 19 30 51 0 14 6 19 23 18 45 -4 67 1 76 19 14 27 3 58 -25 71 -31 14 -37 14 -52 -1z" transform="translate(0,106) scale(0.1,-0.1)" stroke="none" fill="#E0945A"/>

<path d="M567 961 l-55 -52 -37 23 c-55 32 -115 28 -193 -11 -58 -30 -66 -38 -93 -94 -31 -67 -36 -110 -17 -153 11 -24 9 -29 -23 -58 -37 -34 -75 -114 -85 -178 -11 -65 9 -94 90 -133 39 -18 81 -36 94 -40 13 -4 22 -14 22 -26 0 -35 29 -78 81 -119 125 -99 262 -75 337 60 13 24 25 34 38 32 11 -1 53 -5 94 -9 117 -9 162 24 176 131 5 36 1 55 -24 106 l-29 62 28 32 c56 65 63 125 23 201 -31 58 -85 111 -130 125 -25 9 -35 21 -51 63 -23 61 -48 77 -133 84 l-58 6 -55 -52z m119 -315 c9 -37 1 -59 -26 -74 l-25 -13 25 2 c39 2 41 0 29 -23 -11 -21 -11 -22 4 -9 22 18 73 -2 81 -31 11 -44 -17 -65 -81 -59 -17 1 -23 -4 -23 -18 0 -32 -11 -51 -30 -51 -23 0 -37 64 -19 86 13 16 39 19 39 3 0 -5 5 -7 10 -4 6 3 9 18 9 33 -1 17 -3 21 -6 10 -3 -11 -14 -18 -27 -18 -30 0 -46 -18 -46 -52 0 -33 -23 -37 -70 -13 -50 26 -67 74 -47 135 15 46 14 46 36 26 28 -25 61 -6 61 34 0 21 5 30 16 30 12 0 15 -7 11 -27 -6 -31 1 -53 15 -53 7 0 7 5 1 13 -11 14 -10 68 1 85 4 7 18 12 31 12 18 0 26 -7 31 -24z m-116 -25 c0 -26 -5 -41 -16 -45 -24 -9 -34 2 -34 38 0 37 6 46 32 46 14 0 18 -8 18 -39z" transform="translate(0,106) scale(0.1,-0.1)" stroke="none" fill="#3B2B1D"/>

</g>

<g id="1" transform="translate(108.0,0)scale(1,1)">

<path d="M527 653 c-10 -10 -8 -71 2 -77 22 -14 41 7 41 45 0 31 -4 39 -18 39 -10 0 -22 -3 -25 -7z" transform="translate(0,106) scale(0.1,-0.1)" stroke="none" fill="#E0945A"/>

<path d="M624 659 c-12 -20 -12 -79 0 -89 16 -12 60 10 64 34 7 36 -7 66 -33 66 -13 0 -27 -5 -31 -11z" transform="translate(0,106) scale(0.1,-0.1)" stroke="none" fill="#E0945A"/>

<path d="M692 528 c-7 -7 -12 -24 -12 -39 0 -15 -4 -31 -10 -34 -5 -3 -10 -1 -10 4 0 16 -26 13 -39 -3 -18 -22 -4 -86 19 -86 19 0 30 19 30 51 0 14 6 19 23 18 45 -4 67 1 76 19 14 27 3 58 -25 71 -31 14 -37 14 -52 -1z" transform="translate(0,106) scale(0.1,-0.1)" stroke="none" fill="#E0945A"/>

<path d="M567 961 l-55 -52 -37 23 c-55 32 -115 28 -193 -11 -58 -30 -66 -38 -93 -94 -31 -67 -36 -110 -17 -153 11 -24 9 -29 -23 -58 -37 -34 -75 -114 -85 -178 -11 -65 9 -94 90 -133 39 -18 81 -36 94 -40 13 -4 22 -14 22 -26 0 -35 29 -78 81 -119 125 -99 262 -75 337 60 13 24 25 34 38 32 11 -1 53 -5 94 -9 117 -9 162 24 176 131 5 36 1 55 -24 106 l-29 62 28 32 c56 65 63 125 23 201 -31 58 -85 111 -130 125 -25 9 -35 21 -51 63 -23 61 -48 77 -133 84 l-58 6 -55 -52z m119 -315 c9 -37 1 -59 -26 -74 l-25 -13 25 2 c39 2 41 0 29 -23 -11 -21 -11 -22 4 -9 22 18 73 -2 81 -31 11 -44 -17 -65 -81 -59 -17 1 -23 -4 -23 -18 0 -32 -11 -51 -30 -51 -23 0 -37 64 -19 86 13 16 39 19 39 3 0 -5 5 -7 10 -4 6 3 9 18 9 33 -1 17 -3 21 -6 10 -3 -11 -14 -18 -27 -18 -30 0 -46 -18 -46 -52 0 -33 -23 -37 -70 -13 -50 26 -67 74 -47 135 15 46 14 46 36 26 28 -25 61 -6 61 34 0 21 5 30 16 30 12 0 15 -7 11 -27 -6 -31 1 -53 15 -53 7 0 7 5 1 13 -11 14 -10 68 1 85 4 7 18 12 31 12 18 0 26 -7 31 -24z m-116 -25 c0 -26 -5 -41 -16 -45 -24 -9 -34 2 -34 38 0 37 6 46 32 46 14 0 18 -8 18 -39z" transform="translate(0,106) scale(0.1,-0.1)" stroke="none" fill="#3B2B1D"/>

</g>

<g id="2" transform="translate(216.0,0)scale(1,1)">

<path d="M527 653 c-10 -10 -8 -71 2 -77 22 -14 41 7 41 45 0 31 -4 39 -18 39 -10 0 -22 -3 -25 -7z" transform="translate(0,106) scale(0.1,-0.1)" stroke="none" fill="#E0945A"/>

<path d="M624 659 c-12 -20 -12 -79 0 -89 16 -12 60 10 64 34 7 36 -7 66 -33 66 -13 0 -27 -5 -31 -11z" transform="translate(0,106) scale(0.1,-0.1)" stroke="none" fill="#E0945A"/>

<path d="M692 528 c-7 -7 -12 -24 -12 -39 0 -15 -4 -31 -10 -34 -5 -3 -10 -1 -10 4 0 16 -26 13 -39 -3 -18 -22 -4 -86 19 -86 19 0 30 19 30 51 0 14 6 19 23 18 45 -4 67 1 76 19 14 27 3 58 -25 71 -31 14 -37 14 -52 -1z" transform="translate(0,106) scale(0.1,-0.1)" stroke="none" fill="#E0945A"/>

<path d="M567 961 l-55 -52 -37 23 c-55 32 -115 28 -193 -11 -58 -30 -66 -38 -93 -94 -31 -67 -36 -110 -17 -153 11 -24 9 -29 -23 -58 -37 -34 -75 -114 -85 -178 -11 -65 9 -94 90 -133 39 -18 81 -36 94 -40 13 -4 22 -14 22 -26 0 -35 29 -78 81 -119 125 -99 262 -75 337 60 13 24 25 34 38 32 11 -1 53 -5 94 -9 117 -9 162 24 176 131 5 36 1 55 -24 106 l-29 62 28 32 c56 65 63 125 23 201 -31 58 -85 111 -130 125 -25 9 -35 21 -51 63 -23 61 -48 77 -133 84 l-58 6 -55 -52z m119 -315 c9 -37 1 -59 -26 -74 l-25 -13 25 2 c39 2 41 0 29 -23 -11 -21 -11 -22 4 -9 22 18 73 -2 81 -31 11 -44 -17 -65 -81 -59 -17 1 -23 -4 -23 -18 0 -32 -11 -51 -30 -51 -23 0 -37 64 -19 86 13 16 39 19 39 3 0 -5 5 -7 10 -4 6 3 9 18 9 33 -1 17 -3 21 -6 10 -3 -11 -14 -18 -27 -18 -30 0 -46 -18 -46 -52 0 -33 -23 -37 -70 -13 -50 26 -67 74 -47 135 15 46 14 46 36 26 28 -25 61 -6 61 34 0 21 5 30 16 30 12 0 15 -7 11 -27 -6 -31 1 -53 15 -53 7 0 7 5 1 13 -11 14 -10 68 1 85 4 7 18 12 31 12 18 0 26 -7 31 -24z m-116 -25 c0 -26 -5 -41 -16 -45 -24 -9 -34 2 -34 38 0 37 6 46 32 46 14 0 18 -8 18 -39z" transform="translate(0,106) scale(0.1,-0.1)" stroke="none" fill="#3B2B1D"/>

</g>

<g id="3" transform="translate(324.0,0)scale(1,1)">

<path d="M527 653 c-10 -10 -8 -71 2 -77 22 -14 41 7 41 45 0 31 -4 39 -18 39 -10 0 -22 -3 -25 -7z" transform="translate(0,106) scale(0.1,-0.1)" stroke="none" fill="#E0945A"/>

<path d="M624 659 c-12 -20 -12 -79 0 -89 16 -12 60 10 64 34 7 36 -7 66 -33 66 -13 0 -27 -5 -31 -11z" transform="translate(0,106) scale(0.1,-0.1)" stroke="none" fill="#E0945A"/>

<path d="M692 528 c-7 -7 -12 -24 -12 -39 0 -15 -4 -31 -10 -34 -5 -3 -10 -1 -10 4 0 16 -26 13 -39 -3 -18 -22 -4 -86 19 -86 19 0 30 19 30 51 0 14 6 19 23 18 45 -4 67 1 76 19 14 27 3 58 -25 71 -31 14 -37 14 -52 -1z" transform="translate(0,106) scale(0.1,-0.1)" stroke="none" fill="#E0945A"/>

<path d="M567 961 l-55 -52 -37 23 c-55 32 -115 28 -193 -11 -58 -30 -66 -38 -93 -94 -31 -67 -36 -110 -17 -153 11 -24 9 -29 -23 -58 -37 -34 -75 -114 -85 -178 -11 -65 9 -94 90 -133 39 -18 81 -36 94 -40 13 -4 22 -14 22 -26 0 -35 29 -78 81 -119 125 -99 262 -75 337 60 13 24 25 34 38 32 11 -1 53 -5 94 -9 117 -9 162 24 176 131 5 36 1 55 -24 106 l-29 62 28 32 c56 65 63 125 23 201 -31 58 -85 111 -130 125 -25 9 -35 21 -51 63 -23 61 -48 77 -133 84 l-58 6 -55 -52z m119 -315 c9 -37 1 -59 -26 -74 l-25 -13 25 2 c39 2 41 0 29 -23 -11 -21 -11 -22 4 -9 22 18 73 -2 81 -31 11 -44 -17 -65 -81 -59 -17 1 -23 -4 -23 -18 0 -32 -11 -51 -30 -51 -23 0 -37 64 -19 86 13 16 39 19 39 3 0 -5 5 -7 10 -4 6 3 9 18 9 33 -1 17 -3 21 -6 10 -3 -11 -14 -18 -27 -18 -30 0 -46 -18 -46 -52 0 -33 -23 -37 -70 -13 -50 26 -67 74 -47 135 15 46 14 46 36 26 28 -25 61 -6 61 34 0 21 5 30 16 30 12 0 15 -7 11 -27 -6 -31 1 -53 15 -53 7 0 7 5 1 13 -11 14 -10 68 1 85 4 7 18 12 31 12 18 0 26 -7 31 -24z m-116 -25 c0 -26 -5 -41 -16 -45 -24 -9 -34 2 -34 38 0 37 6 46 32 46 14 0 18 -8 18 -39z" transform="translate(0,106) scale(0.1,-0.1)" stroke="none" fill="#3B2B1D"/>

</g>

<g id="4" transform="translate(432.0,0)scale(1,1)">

<path d="M527 653 c-10 -10 -8 -71 2 -77 22 -14 41 7 41 45 0 31 -4 39 -18 39 -10 0 -22 -3 -25 -7z" transform="translate(0,106) scale(0.1,-0.1)" stroke="none" fill="#E0945A"/>

<path d="M624 659 c-12 -20 -12 -79 0 -89 16 -12 60 10 64 34 7 36 -7 66 -33 66 -13 0 -27 -5 -31 -11z" transform="translate(0,106) scale(0.1,-0.1)" stroke="none" fill="#E0945A"/>

<path d="M692 528 c-7 -7 -12 -24 -12 -39 0 -15 -4 -31 -10 -34 -5 -3 -10 -1 -10 4 0 16 -26 13 -39 -3 -18 -22 -4 -86 19 -86 19 0 30 19 30 51 0 14 6 19 23 18 45 -4 67 1 76 19 14 27 3 58 -25 71 -31 14 -37 14 -52 -1z" transform="translate(0,106) scale(0.1,-0.1)" stroke="none" fill="#E0945A"/>

<path d="M567 961 l-55 -52 -37 23 c-55 32 -115 28 -193 -11 -58 -30 -66 -38 -93 -94 -31 -67 -36 -110 -17 -153 11 -24 9 -29 -23 -58 -37 -34 -75 -114 -85 -178 -11 -65 9 -94 90 -133 39 -18 81 -36 94 -40 13 -4 22 -14 22 -26 0 -35 29 -78 81 -119 125 -99 262 -75 337 60 13 24 25 34 38 32 11 -1 53 -5 94 -9 117 -9 162 24 176 131 5 36 1 55 -24 106 l-29 62 28 32 c56 65 63 125 23 201 -31 58 -85 111 -130 125 -25 9 -35 21 -51 63 -23 61 -48 77 -133 84 l-58 6 -55 -52z m119 -315 c9 -37 1 -59 -26 -74 l-25 -13 25 2 c39 2 41 0 29 -23 -11 -21 -11 -22 4 -9 22 18 73 -2 81 -31 11 -44 -17 -65 -81 -59 -17 1 -23 -4 -23 -18 0 -32 -11 -51 -30 -51 -23 0 -37 64 -19 86 13 16 39 19 39 3 0 -5 5 -7 10 -4 6 3 9 18 9 33 -1 17 -3 21 -6 10 -3 -11 -14 -18 -27 -18 -30 0 -46 -18 -46 -52 0 -33 -23 -37 -70 -13 -50 26 -67 74 -47 135 15 46 14 46 36 26 28 -25 61 -6 61 34 0 21 5 30 16 30 12 0 15 -7 11 -27 -6 -31 1 -53 15 -53 7 0 7 5 1 13 -11 14 -10 68 1 85 4 7 18 12 31 12 18 0 26 -7 31 -24z m-116 -25 c0 -26 -5 -41 -16 -45 -24 -9 -34 2 -34 38 0 37 6 46 32 46 14 0 18 -8 18 -39z" transform="translate(0,106) scale(0.1,-0.1)" stroke="none" fill="#3B2B1D"/>

</g>

</g>
<g id="row3" transform="translate(14,318.0)">
<g id="0" transform="translate(0.0,0)scale(1,1)">

<path d="M527 653 c-10 -10 -8 -71 2 -77 22 -14 41 7 41 45 0 31 -4 39 -18 39 -10 0 -22 -3 -25 -7z" transform="translate(0,106) scale(0.1,-0.1)" stroke="none" fill="#E0945A"/>

<path d="M624 659 c-12 -20 -12 -79 0 -89 16 -12 60 10 64 34 7 36 -7 66 -33 66 -13 0 -27 -5 -31 -11z" transform="translate(0,106) scale(0.1,-0.1)" stroke="none" fill="#E0945A"/>

<path d="M692 528 c-7 -7 -12 -24 -12 -39 0 -15 -4 -31 -10 -34 -5 -3 -10 -1 -10 4 0 16 -26 13 -39 -3 -18 -22 -4 -86 19 -86 19 0 30 19 30 51 0 14 6 19 23 18 45 -4 67 1 76 19 14 27 3 58 -25 71 -31 14 -37 14 -52 -1z" transform="translate(0,106) scale(0.1,-0.1)" stroke="none" fill="#E0945A"/>

<path d="M567 961 l-55 -52 -37 23 c-55 32 -115 28 -193 -11 -58 -30 -66 -38 -93 -94 -31 -67 -36 -110 -17 -153 11 -24 9 -29 -23 -58 -37 -34 -75 -114 -85 -178 -11 -65 9 -94 90 -133 39 -18 81 -36 94 -40 13 -4 22 -14 22 -26 0 -35 29 -78 81 -119 125 -99 262 -75 337 60 13 24 25 34 38 32 11 -1 53 -5 94 -9 117 -9 162 24 176 131 5 36 1 55 -24 106 l-29 62 28 32 c56 65 63 125 23 201 -31 58 -85 111 -130 125 -25 9 -35 21 -51 63 -23 61 -48 77 -133 84 l-58 6 -55 -52z m119 -315 c9 -37 1 -59 -26 -74 l-25 -13 25 2 c39 2 41 0 29 -23 -11 -21 -11 -22 4 -9 22 18 73 -2 81 -31 11 -44 -17 -65 -81 -59 -17 1 -23 -4 -23 -18 0 -32 -11 -51 -30 -51 -23 0 -37 64 -19 86 13 16 39 19 39 3 0 -5 5 -7 10 -4 6 3 9 18 9 33 -1 17 -3 21 -6 10 -3 -11 -14 -18 -27 -18 -30 0 -46 -18 -46 -52 0 -33 -23 -37 -70 -13 -50 26 -67 74 -47 135 15 46 14 46 36 26 28 -25 61 -6 61 34 0 21 5 30 16 30 12 0 15 -7 11 -27 -6 -31 1 -53 15 -53 7 0 7 5 1 13 -11 14 -10 68 1 85 4 7 18 12 31 12 18 0 26 -7 31 -24z m-116 -25 c0 -26 -5 -41 -16 -45 -24 -9 -34 2 -34 38 0 37 6 46 32 46 14 0 18 -8 18 -39z" transform="translate(0,106) scale(0.1,-0.1)" stroke="none" fill="#3B2B1D"/>

</g>

<g id="1" transform="translate(108.0,0)scale(1,1)">

<path d="M527 653 c-10 -10 -8 -71 2 -77 22 -14 41 7 41 45 0 31 -4 39 -18 39 -10 0 -22 -3 -25 -7z" transform="translate(0,106) scale(0.1,-0.1)" stroke="none" fill="#E0945A"/>

<path d="M624 659 c-12 -20 -12 -79 0 -89 16 -12 60 10 64 34 7 36 -7 66 -33 66 -13 0 -27 -5 -31 -11z" transform="translate(0,106) scale(0.1,-0.1)" stroke="none" fill="#E0945A"/>

<path d="M692 528 c-7 -7 -12 -24 -12 -39 0 -15 -4 -31 -10 -34 -5 -3 -10 -1 -10 4 0 16 -26 13 -39 -3 -18 -22 -4 -86 19 -86 19 0 30 19 30 51 0 14 6 19 23 18 45 -4 67 1 76 19 14 27 3 58 -25 71 -31 14 -37 14 -52 -1z" transform="translate(0,106) scale(0.1,-0.1)" stroke="none" fill="#E0945A"/>

<path d="M567 961 l-55 -52 -37 23 c-55 32 -115 28 -193 -11 -58 -30 -66 -38 -93 -94 -31 -67 -36 -110 -17 -153 11 -24 9 -29 -23 -58 -37 -34 -75 -114 -85 -178 -11 -65 9 -94 90 -133 39 -18 81 -36 94 -40 13 -4 22 -14 22 -26 0 -35 29 -78 81 -119 125 -99 262 -75 337 60 13 24 25 34 38 32 11 -1 53 -5 94 -9 117 -9 162 24 176 131 5 36 1 55 -24 106 l-29 62 28 32 c56 65 63 125 23 201 -31 58 -85 111 -130 125 -25 9 -35 21 -51 63 -23 61 -48 77 -133 84 l-58 6 -55 -52z m119 -315 c9 -37 1 -59 -26 -74 l-25 -13 25 2 c39 2 41 0 29 -23 -11 -21 -11 -22 4 -9 22 18 73 -2 81 -31 11 -44 -17 -65 -81 -59 -17 1 -23 -4 -23 -18 0 -32 -11 -51 -30 -51 -23 0 -37 64 -19 86 13 16 39 19 39 3 0 -5 5 -7 10 -4 6 3 9 18 9 33 -1 17 -3 21 -6 10 -3 -11 -14 -18 -27 -18 -30 0 -46 -18 -46 -52 0 -33 -23 -37 -70 -13 -50 26 -67 74 -47 135 15 46 14 46 36 26 28 -25 61 -6 61 34 0 21 5 30 16 30 12 0 15 -7 11 -27 -6 -31 1 -53 15 -53 7 0 7 5 1 13 -11 14 -10 68 1 85 4 7 18 12 31 12 18 0 26 -7 31 -24z m-116 -25 c0 -26 -5 -41 -16 -45 -24 -9 -34 2 -34 38 0 37 6 46 32 46 14 0 18 -8 18 -39z" transform="translate(0,106) scale(0.1,-0.1)" stroke="none" fill="#3B2B1D"/>

</g>

<g id="2" transform="translate(216.0,0)scale(1,1)">

<path d="M527 653 c-10 -10 -8 -71 2 -77 22 -14 41 7 41 45 0 31 -4 39 -18 39 -10 0 -22 -3 -25 -7z" transform="translate(0,106) scale(0.1,-0.1)" stroke="none" fill="#E0945A"/>

<path d="M624 659 c-12 -20 -12 -79 0 -89 16 -12 60 10 64 34 7 36 -7 66 -33 66 -13 0 -27 -5 -31 -11z" transform="translate(0,106) scale(0.1,-0.1)" stroke="none" fill="#E0945A"/>

<path d="M692 528 c-7 -7 -12 -24 -12 -39 0 -15 -4 -31 -10 -34 -5 -3 -10 -1 -10 4 0 16 -26 13 -39 -3 -18 -22 -4 -86 19 -86 19 0 30 19 30 51 0 14 6 19 23 18 45 -4 67 1 76 19 14 27 3 58 -25 71 -31 14 -37 14 -52 -1z" transform="translate(0,106) scale(0.1,-0.1)" stroke="none" fill="#E0945A"/>

<path d="M567 961 l-55 -52 -37 23 c-55 32 -115 28 -193 -11 -58 -30 -66 -38 -93 -94 -31 -67 -36 -110 -17 -153 11 -24 9 -29 -23 -58 -37 -34 -75 -114 -85 -178 -11 -65 9 -94 90 -133 39 -18 81 -36 94 -40 13 -4 22 -14 22 -26 0 -35 29 -78 81 -119 125 -99 262 -75 337 60 13 24 25 34 38 32 11 -1 53 -5 94 -9 117 -9 162 24 176 131 5 36 1 55 -24 106 l-29 62 28 32 c56 65 63 125 23 201 -31 58 -85 111 -130 125 -25 9 -35 21 -51 63 -23 61 -48 77 -133 84 l-58 6 -55 -52z m119 -315 c9 -37 1 -59 -26 -74 l-25 -13 25 2 c39 2 41 0 29 -23 -11 -21 -11 -22 4 -9 22 18 73 -2 81 -31 11 -44 -17 -65 -81 -59 -17 1 -23 -4 -23 -18 0 -32 -11 -51 -30 -51 -23 0 -37 64 -19 86 13 16 39 19 39 3 0 -5 5 -7 10 -4 6 3 9 18 9 33 -1 17 -3 21 -6 10 -3 -11 -14 -18 -27 -18 -30 0 -46 -18 -46 -52 0 -33 -23 -37 -70 -13 -50 26 -67 74 -47 135 15 46 14 46 36 26 28 -25 61 -6 61 34 0 21 5 30 16 30 12 0 15 -7 11 -27 -6 -31 1 -53 15 -53 7 0 7 5 1 13 -11 14 -10 68 1 85 4 7 18 12 31 12 18 0 26 -7 31 -24z m-116 -25 c0 -26 -5 -41 -16 -45 -24 -9 -34 2 -34 38 0 37 6 46 32 46 14 0 18 -8 18 -39z" transform="translate(0,106) scale(0.1,-0.1)" stroke="none" fill="#3B2B1D"/>

</g>

<g id="3" transform="translate(324.0,0)scale(1,1)">

<path d="M527 653 c-10 -10 -8 -71 2 -77 22 -14 41 7 41 45 0 31 -4 39 -18 39 -10 0 -22 -3 -25 -7z" transform="translate(0,106) scale(0.1,-0.1)" stroke="none" fill="#E0945A"/>

<path d="M624 659 c-12 -20 -12 -79 0 -89 16 -12 60 10 64 34 7 36 -7 66 -33 66 -13 0 -27 -5 -31 -11z" transform="translate(0,106) scale(0.1,-0.1)" stroke="none" fill="#E0945A"/>

<path d="M692 528 c-7 -7 -12 -24 -12 -39 0 -15 -4 -31 -10 -34 -5 -3 -10 -1 -10 4 0 16 -26 13 -39 -3 -18 -22 -4 -86 19 -86 19 0 30 19 30 51 0 14 6 19 23 18 45 -4 67 1 76 19 14 27 3 58 -25 71 -31 14 -37 14 -52 -1z" transform="translate(0,106) scale(0.1,-0.1)" stroke="none" fill="#E0945A"/>

<path d="M567 961 l-55 -52 -37 23 c-55 32 -115 28 -193 -11 -58 -30 -66 -38 -93 -94 -31 -67 -36 -110 -17 -153 11 -24 9 -29 -23 -58 -37 -34 -75 -114 -85 -178 -11 -65 9 -94 90 -133 39 -18 81 -36 94 -40 13 -4 22 -14 22 -26 0 -35 29 -78 81 -119 125 -99 262 -75 337 60 13 24 25 34 38 32 11 -1 53 -5 94 -9 117 -9 162 24 176 131 5 36 1 55 -24 106 l-29 62 28 32 c56 65 63 125 23 201 -31 58 -85 111 -130 125 -25 9 -35 21 -51 63 -23 61 -48 77 -133 84 l-58 6 -55 -52z m119 -315 c9 -37 1 -59 -26 -74 l-25 -13 25 2 c39 2 41 0 29 -23 -11 -21 -11 -22 4 -9 22 18 73 -2 81 -31 11 -44 -17 -65 -81 -59 -17 1 -23 -4 -23 -18 0 -32 -11 -51 -30 -51 -23 0 -37 64 -19 86 13 16 39 19 39 3 0 -5 5 -7 10 -4 6 3 9 18 9 33 -1 17 -3 21 -6 10 -3 -11 -14 -18 -27 -18 -30 0 -46 -18 -46 -52 0 -33 -23 -37 -70 -13 -50 26 -67 74 -47 135 15 46 14 46 36 26 28 -25 61 -6 61 34 0 21 5 30 16 30 12 0 15 -7 11 -27 -6 -31 1 -53 15 -53 7 0 7 5 1 13 -11 14 -10 68 1 85 4 7 18 12 31 12 18 0 26 -7 31 -24z m-116 -25 c0 -26 -5 -41 -16 -45 -24 -9 -34 2 -34 38 0 37 6 46 32 46 14 0 18 -8 18 -39z" transform="translate(0,106) scale(0.1,-0.1)" stroke="none" fill="#3B2B1D"/>

</g>

<g id="4" transform="translate(432.0,0)scale(1,1)">

<path d="M527 653 c-10 -10 -8 -71 2 -77 22 -14 41 7 41 45 0 31 -4 39 -18 39 -10 0 -22 -3 -25 -7z" transform="translate(0,106) scale(0.1,-0.1)" stroke="none" fill="#E0945A"/>

<path d="M624 659 c-12 -20 -12 -79 0 -89 16 -12 60 10 64 34 7 36 -7 66 -33 66 -13 0 -27 -5 -31 -11z" transform="translate(0,106) scale(0.1,-0.1)" stroke="none" fill="#E0945A"/>

<path d="M692 528 c-7 -7 -12 -24 -12 -39 0 -15 -4 -31 -10 -34 -5 -3 -10 -1 -10 4 0 16 -26 13 -39 -3 -18 -22 -4 -86 19 -86 19 0 30 19 30 51 0 14 6 19 23 18 45 -4 67 1 76 19 14 27 3 58 -25 71 -31 14 -37 14 -52 -1z" transform="translate(0,106) scale(0.1,-0.1)" stroke="none" fill="#E0945A"/>

<path d="M567 961 l-55 -52 -37 23 c-55 32 -115 28 -193 -11 -58 -30 -66 -38 -93 -94 -31 -67 -36 -110 -17 -153 11 -24 9 -29 -23 -58 -37 -34 -75 -114 -85 -178 -11 -65 9 -94 90 -133 39 -18 81 -36 94 -40 13 -4 22 -14 22 -26 0 -35 29 -78 81 -119 125 -99 262 -75 337 60 13 24 25 34 38 32 11 -1 53 -5 94 -9 117 -9 162 24 176 131 5 36 1 55 -24 106 l-29 62 28 32 c56 65 63 125 23 201 -31 58 -85 111 -130 125 -25 9 -35 21 -51 63 -23 61 -48 77 -133 84 l-58 6 -55 -52z m119 -315 c9 -37 1 -59 -26 -74 l-25 -13 25 2 c39 2 41 0 29 -23 -11 -21 -11 -22 4 -9 22 18 73 -2 81 -31 11 -44 -17 -65 -81 -59 -17 1 -23 -4 -23 -18 0 -32 -11 -51 -30 -51 -23 0 -37 64 -19 86 13 16 39 19 39 3 0 -5 5 -7 10 -4 6 3 9 18 9 33 -1 17 -3 21 -6 10 -3 -11 -14 -18 -27 -18 -30 0 -46 -18 -46 -52 0 -33 -23 -37 -70 -13 -50 26 -67 74 -47 135 15 46 14 46 36 26 28 -25 61 -6 61 34 0 21 5 30 16 30 12 0 15 -7 11 -27 -6 -31 1 -53 15 -53 7 0 7 5 1 13 -11 14 -10 68 1 85 4 7 18 12 31 12 18 0 26 -7 31 -24z m-116 -25 c0 -26 -5 -41 -16 -45 -24 -9 -34 2 -34 38 0 37 6 46 32 46 14 0 18 -8 18 -39z" transform="translate(0,106) scale(0.1,-0.1)" stroke="none" fill="#3B2B1D"/>

</g>

</g>
</svg>