<?xml version="1.0" standalone="no"?>
<!DOCTYPE svg PUBLIC "-//W3C//DTD SVG 20010904//EN"
 "http://www.w3.org/TR/2001/REC-SVG-20010904/DTD/svg10.dtd">
<svg version="1.0" xmlns="http://www.w3.org/2000/svg" width="264pt" height="344pt" viewBox="0 0 264 344" preserveAspectRatio = "xMidYMid meet" >
<metadata>
Created by ZoeQu, written in 2022
</metadata>
<rect width="264" height="344" fill="#39291D"/>
<g id="row0" transform="translate(8,0.0)">
<g id="0" transform="translate(0.0,0)scale(1,1)">

<path d="M138 832 c-9 -4 15 -7 55 -8 48 0 62 2 42 7 -39 9 -76 9 -97 1z" transform="translate(0,86) scale(0.1,-0.1)" stroke="none" fill="#D07736"/>

<path d="M535 633 c34 -53 45 -67 45 -60 0 10 -51 87 -57 87 -3 0 3 -12 12 -27z" transform="translate(0,86) scale(0.1,-0.1)" stroke="none" fill="#D07736"/>

<path d="M601 258 c-7 -24 -14 -50 -17 -58 -3 -8 1 -4 9 10 15 26 32 90 24 90 -3 0 -10 -19 -16 -42z" transform="translate(0,86) scale(0.1,-0.1)" stroke="none" fill="#E4CDAD"/>

<path d="M540 120 c-17 -33 -28 -60 -25 -60 2 0 18 27 35 60 17 33 28 60 25 60 -2 0 -18 -27 -35 -60z" transform="translate(0,86) scale(0.1,-0.1)" stroke="none" fill="#E4CDAD"/>

<path d="M358 785 c18 -8 54 -31 80 -52 26 -21 38 -27 28 -15 -26 30 -106 82 -125 82 -9 -1 -1 -7 17 -15z" transform="translate(0,86) scale(0.1,-0.1)" stroke="none" fill="#D07736"/>

<path d="M376 683 c34 -32 69 -73 78 -90 9 -18 19 -33 21 -33 3 0 -3 17 -14 38 -11 20 -48 61 -83 90 l-63 54 61 -59z" transform="translate(0,86) scale(0.1,-0.1)" stroke="none" fill="#D07736"/>

<path d="M605 385 c0 -63 3 -107 7 -97 9 22 9 172 0 194 -4 10 -7 -34 -7 -97z" transform="translate(0,86) scale(0.1,-0.1)" stroke="none" fill="#D07736"/>

<path d="M32 811 c4 -11 158 -134 158 -126 0 2 -34 31 -76 64 l-75 60 38 4 38 4 -43 1 c-24 1 -42 -2 -40 -7z" transform="translate(0,86) scale(0.1,-0.1)" stroke="none" fill="#D07736"/>

<path d="M385 306 c3 -11 11 -65 17 -120 12 -105 20 -126 47 -125 12 0 11 2 -4 9 -18 7 -22 23 -33 114 -6 59 -16 115 -23 124 -9 15 -10 15 -4 -2z" transform="translate(0,86) scale(0.1,-0.1)" stroke="none" fill="#E4CDAD"/>

<path d="M591 252 c-1 -8 -20 -52 -43 -98 -45 -88 -52 -93 -105 -73 -22 8 -25 8 -16 -2 6 -6 28 -12 48 -13 36 -1 37 0 82 87 24 48 42 93 40 100 -4 9 -6 8 -6 -1z" transform="translate(0,86) scale(0.1,-0.1)" stroke="none" fill="#D07736"/>

<path d="M396 774 c106 -73 167 -148 203 -250 13 -37 19 -46 15 -24 -10 59 -57 141 -108 193 -53 53 -123 107 -139 107 -5 0 8 -12 29 -26z" transform="translate(0,86) scale(0.1,-0.1)" stroke="none" fill="#E4CDAD"/>

<path d="M296 680 c70 -75 106 -133 151 -245 18 -44 33 -74 33 -67 0 7 -14 47 -31 87 -46 111 -116 211 -189 270 -14 11 2 -9 36 -45z" transform="translate(0,86) scale(0.1,-0.1)" stroke="none" fill="#E4CDAD"/>

<path d="M507 490 c12 -36 10 -189 -2 -192 -5 -2 -15 13 -22 32 -7 19 -12 27 -12 17 -1 -25 26 -87 37 -87 17 0 22 29 22 118 -1 59 -6 95 -16 112 l-15 25 8 -25z" transform="translate(0,86) scale(0.1,-0.1)" stroke="none" fill="#D07736"/>

<path d="M160 790 c0 -5 24 -27 53 -48 65 -49 126 -114 161 -175 35 -58 46 -62 14 -5 -29 52 -129 161 -174 189 -68 42 -24 48 61 7 26 -12 35 -14 25 -4 -16 15 -100 46 -125 46 -8 0 -15 -4 -15 -10z" transform="translate(0,86) scale(0.1,-0.1)" stroke="none" fill="#D07736"/>

<path d="M236 630 c70 -83 173 -336 174 -427 0 -17 4 -34 8 -37 14 -8 -6 114 -27 169 -11 28 -27 70 -36 95 -25 68 -91 184 -117 206 l-23 19 21 -25z" transform="translate(0,86) scale(0.1,-0.1)" stroke="none" fill="#D07736"/>

<path d="M291 742 c73 -49 139 -121 175 -190 31 -62 38 -86 42 -153 3 -55 1 -79 -7 -79 -6 0 -11 8 -12 18 0 9 -3 12 -5 5 -3 -7 0 -22 6 -34 21 -38 32 -6 29 83 -4 73 -9 92 -43 160 -32 61 -55 90 -115 143 -41 36 -79 65 -85 65 -6 0 1 -8 15 -18z" transform="translate(0,86) scale(0.1,-0.1)" stroke="none" fill="#E4CDAD"/>

<path d="M71 831 c-25 -3 -46 -11 -48 -18 -2 -6 31 -38 74 -71 127 -98 177 -162 238 -309 13 -32 24 -51 25 -42 0 23 -93 202 -127 243 -15 19 -66 65 -113 101 -47 36 -86 70 -88 76 -2 5 16 9 40 10 24 0 52 4 63 9 l20 9 -20 -1 c-11 -1 -40 -4 -64 -7z" transform="translate(0,86) scale(0.1,-0.1)" stroke="none" fill="#E4CDAD"/>

<path d="M130 820 c-14 -4 -40 -8 -59 -9 -33 -1 -33 -1 51 -68 47 -38 98 -84 115 -103 43 -50 98 -153 134 -251 40 -109 48 -143 53 -231 4 -58 8 -74 23 -79 46 -19 57 -11 97 67 52 102 66 154 66 239 0 138 -58 259 -163 341 -94 73 -246 118 -317 94z m112 -38 c27 -10 81 -45 124 -82 65 -56 83 -78 120 -152 42 -84 44 -91 44 -175 0 -89 -9 -121 -29 -109 -6 4 -16 26 -22 49 -53 196 -137 332 -266 428 -79 59 -67 76 29 41z" transform="translate(0,86) scale(0.1,-0.1)" stroke="none" fill="#765339"/>

</g>

<g id="1" transform="translate(66.0,0)scale(1,1)">

<path d="M138 832 c-9 -4 15 -7 55 -8 48 0 62 2 42 7 -39 9 -76 9 -97 1z" transform="translate(0,86) scale(0.1,-0.1)" stroke="none" fill="#D07736"/>

<path d="M535 633 c34 -53 45 -67 45 -60 0 10 -51 87 -57 87 -3 0 3 -12 12 -27z" transform="translate(0,86) scale(0.1,-0.1)" stroke="none" fill="#D07736"/>

<path d="M601 258 c-7 -24 -14 -50 -17 -58 -3 -8 1 -4 9 10 15 26 32 90 24 90 -3 0 -10 -19 -16 -42z" transform="translate(0,86) scale(0.1,-0.1)" stroke="none" fill="#E4CDAD"/>

<path d="M540 120 c-17 -33 -28 -60 -25 -60 2 0 18 27 35 60 17 33 28 60 25 60 -2 0 -18 -27 -35 -60z" transform="translate(0,86) scale(0.1,-0.1)" stroke="none" fill="#E4CDAD"/>

<path d="M358 785 c18 -8 54 -31 80 -52 26 -21 38 -27 28 -15 -26 30 -106 82 -125 82 -9 -1 -1 -7 17 -15z" transform="translate(0,86) scale(0.1,-0.1)" stroke="none" fill="#D07736"/>

<path d="M376 683 c34 -32 69 -73 78 -90 9 -18 19 -33 21 -33 3 0 -3 17 -14 38 -11 20 -48 61 -83 90 l-63 54 61 -59z" transform="translate(0,86) scale(0.1,-0.1)" stroke="none" fill="#D07736"/>

<path d="M605 385 c0 -63 3 -107 7 -97 9 22 9 172 0 194 -4 10 -7 -34 -7 -97z" transform="translate(0,86) scale(0.1,-0.1)" stroke="none" fill="#D07736"/>

<path d="M32 811 c4 -11 158 -134 158 -126 0 2 -34 31 -76 64 l-75 60 38 4 38 4 -43 1 c-24 1 -42 -2 -40 -7z" transform="translate(0,86) scale(0.1,-0.1)" stroke="none" fill="#D07736"/>

<path d="M385 306 c3 -11 11 -65 17 -120 12 -105 20 -126 47 -125 12 0 11 2 -4 9 -18 7 -22 23 -33 114 -6 59 -16 115 -23 124 -9 15 -10 15 -4 -2z" transform="translate(0,86) scale(0.1,-0.1)" stroke="none" fill="#E4CDAD"/>

<path d="M591 252 c-1 -8 -20 -52 -43 -98 -45 -88 -52 -93 -105 -73 -22 8 -25 8 -16 -2 6 -6 28 -12 48 -13 36 -1 37 0 82 87 24 48 42 93 40 100 -4 9 -6 8 -6 -1z" transform="translate(0,86) scale(0.1,-0.1)" stroke="none" fill="#D07736"/>

<path d="M396 774 c106 -73 167 -148 203 -250 13 -37 19 -46 15 -24 -10 59 -57 141 -108 193 -53 53 -123 107 -139 107 -5 0 8 -12 29 -26z" transform="translate(0,86) scale(0.1,-0.1)" stroke="none" fill="#E4CDAD"/>

<path d="M296 680 c70 -75 106 -133 151 -245 18 -44 33 -74 33 -67 0 7 -14 47 -31 87 -46 111 -116 211 -189 270 -14 11 2 -9 36 -45z" transform="translate(0,86) scale(0.1,-0.1)" stroke="none" fill="#E4CDAD"/>

<path d="M507 490 c12 -36 10 -189 -2 -192 -5 -2 -15 13 -22 32 -7 19 -12 27 -12 17 -1 -25 26 -87 37 -87 17 0 22 29 22 118 -1 59 -6 95 -16 112 l-15 25 8 -25z" transform="translate(0,86) scale(0.1,-0.1)" stroke="none" fill="#D07736"/>

<path d="M160 790 c0 -5 24 -27 53 -48 65 -49 126 -114 161 -175 35 -58 46 -62 14 -5 -29 52 -129 161 -174 189 -68 42 -24 48 61 7 26 -12 35 -14 25 -4 -16 15 -100 46 -125 46 -8 0 -15 -4 -15 -10z" transform="translate(0,86) scale(0.1,-0.1)" stroke="none" fill="#D07736"/>

<path d="M236 630 c70 -83 173 -336 174 -427 0 -17 4 -34 8 -37 14 -8 -6 114 -27 169 -11 28 -27 70 -36 95 -25 68 -91 184 -117 206 l-23 19 21 -25z" transform="translate(0,86) scale(0.1,-0.1)" stroke="none" fill="#D07736"/>

<path d="M291 742 c73 -49 139 -121 175 -190 31 -62 38 -86 42 -153 3 -55 1 -79 -7 -79 -6 0 -11 8 -12 18 0 9 -3 12 -5 5 -3 -7 0 -22 6 -34 21 -38 32 -6 29 83 -4 73 -9 92 -43 160 -32 61 -55 90 -115 143 -41 36 -79 65 -85 65 -6 0 1 -8 15 -18z" transform="translate(0,86) scale(0.1,-0.1)" stroke="none" fill="#E4CDAD"/>

<path d="M71 831 c-25 -3 -46 -11 -48 -18 -2 -6 31 -38 74 -71 127 -98 177 -162 238 -309 13 -32 24 -51 25 -42 0 23 -93 202 -127 243 -15 19 -66 65 -113 101 -47 36 -86 70 -88 76 -2 5 16 9 40 10 24 0 52 4 63 9 l20 9 -20 -1 c-11 -1 -40 -4 -64 -7z" transform="translate(0,86) scale(0.1,-0.1)" stroke="none" fill="#E4CDAD"/>

<path d="M130 820 c-14 -4 -40 -8 -59 -9 -33 -1 -33 -1 51 -68 47 -38 98 -84 115 -103 43 -50 98 -153 134 -251 40 -109 48 -143 53 -231 4 -58 8 -74 23 -79 46 -19 57 -11 97 67 52 102 66 154 66 239 0 138 -58 259 -163 341 -94 73 -246 118 -317 94z m112 -38 c27 -10 81 -45 124 -82 65 -56 83 -78 120 -152 42 -84 44 -91 44 -175 0 -89 -9 -121 -29 -109 -6 4 -16 26 -22 49 -53 196 -137 332 -266 428 -79 59 -67 76 29 41z" transform="translate(0,86) scale(0.1,-0.1)" stroke="none" fill="#765339"/>

</g>

<g id="2" transform="translate(132.0,0)scale(1,1)">

<path d="M138 832 c-9 -4 15 -7 55 -8 48 0 62 2 42 7 -39 9 -76 9 -97 1z" transform="translate(0,86) scale(0.1,-0.1)" stroke="none" fill="#D07736"/>

<path d="M535 633 c34 -53 45 -67 45 -60 0 10 -51 87 -57 87 -3 0 3 -12 12 -27z" transform="translate(0,86) scale(0.1,-0.1)" stroke="none" fill="#D07736"/>

<path d="M601 258 c-7 -24 -14 -50 -17 -58 -3 -8 1 -4 9 10 15 26 32 90 24 90 -3 0 -10 -19 -16 -42z" transform="translate(0,86) scale(0.1,-0.1)" stroke="none" fill="#E4CDAD"/>

<path d="M540 120 c-17 -33 -28 -60 -25 -60 2 0 18 27 35 60 17 33 28 60 25 60 -2 0 -18 -27 -35 -60z" transform="translate(0,86) scale(0.1,-0.1)" stroke="none" fill="#E4CDAD"/>

<path d="M358 785 c18 -8 54 -31 80 -52 26 -21 38 -27 28 -15 -26 30 -106 82 -125 82 -9 -1 -1 -7 17 -15z" transform="translate(0,86) scale(0.1,-0.1)" stroke="none" fill="#D07736"/>

<path d="M376 683 c34 -32 69 -73 78 -90 9 -18 19 -33 21 -33 3 0 -3 17 -14 38 -11 20 -48 61 -83 90 l-63 54 61 -59z" transform="translate(0,86) scale(0.1,-0.1)" stroke="none" fill="#D07736"/>

<path d="M605 385 c0 -63 3 -107 7 -97 9 22 9 172 0 194 -4 10 -7 -34 -7 -97z" transform="translate(0,86) scale(0.1,-0.1)" stroke="none" fill="#D07736"/>

<path d="M32 811 c4 -11 158 -134 158 -126 0 2 -34 31 -76 64 l-75 60 38 4 38 4 -43 1 c-24 1 -42 -2 -40 -7z" transform="translate(0,86) scale(0.1,-0.1)" stroke="none" fill="#D07736"/>

<path d="M385 306 c3 -11 11 -65 17 -120 12 -105 20 -126 47 -125 12 0 11 2 -4 9 -18 7 -22 23 -33 114 -6 59 -16 115 -23 124 -9 15 -10 15 -4 -2z" transform="translate(0,86) scale(0.1,-0.1)" stroke="none" fill="#E4CDAD"/>

<path d="M591 252 c-1 -8 -20 -52 -43 -98 -45 -88 -52 -93 -105 -73 -22 8 -25 8 -16 -2 6 -6 28 -12 48 -13 36 -1 37 0 82 87 24 48 42 93 40 100 -4 9 -6 8 -6 -1z" transform="translate(0,86) scale(0.1,-0.1)" stroke="none" fill="#D07736"/>

<path d="M396 774 c106 -73 167 -148 203 -250 13 -37 19 -46 15 -24 -10 59 -57 141 -108 193 -53 53 -123 107 -139 107 -5 0 8 -12 29 -26z" transform="translate(0,86) scale(0.1,-0.1)" stroke="none" fill="#E4CDAD"/>

<path d="M296 680 c70 -75 106 -133 151 -245 18 -44 33 -74 33 -67 0 7 -14 47 -31 87 -46 111 -116 211 -189 270 -14 11 2 -9 36 -45z" transform="translate(0,86) scale(0.1,-0.1)" stroke="none" fill="#E4CDAD"/>

<path d="M507 490 c12 -36 10 -189 -2 -192 -5 -2 -15 13 -22 32 -7 19 -12 27 -12 17 -1 -25 26 -87 37 -87 17 0 22 29 22 118 -1 59 -6 95 -16 112 l-15 25 8 -25z" transform="translate(0,86) scale(0.1,-0.1)" stroke="none" fill="#D07736"/>

<path d="M160 790 c0 -5 24 -27 53 -48 65 -49 126 -114 161 -175 35 -58 46 -62 14 -5 -29 52 -129 161 -174 189 -68 42 -24 48 61 7 26 -12 35 -14 25 -4 -16 15 -100 46 -125 46 -8 0 -15 -4 -15 -10z" transform="translate(0,86) scale(0.1,-0.1)" stroke="none" fill="#D07736"/>

<path d="M236 630 c70 -83 173 -336 174 -427 0 -17 4 -34 8 -37 14 -8 -6 114 -27 169 -11 28 -27 70 -36 95 -25 68 -91 184 -117 206 l-23 19 21 -25z" transform="translate(0,86) scale(0.1,-0.1)" stroke="none" fill="#D07736"/>

<path d="M291 742 c73 -49 139 -121 175 -190 31 -62 38 -86 42 -153 3 -55 1 -79 -7 -79 -6 0 -11 8 -12 18 0 9 -3 12 -5 5 -3 -7 0 -22 6 -34 21 -38 32 -6 29 83 -4 73 -9 92 -43 160 -32 61 -55 90 -115 143 -41 36 -79 65 -85 65 -6 0 1 -8 15 -18z" transform="translate(0,86) scale(0.1,-0.1)" stroke="none" fill="#E4CDAD"/>

<path d="M71 831 c-25 -3 -46 -11 -48 -18 -2 -6 31 -38 74 -71 127 -98 177 -162 238 -309 13 -32 24 -51 25 -42 0 23 -93 202 -127 243 -15 19 -66 65 -113 101 -47 36 -86 70 -88 76 -2 5 16 9 40 10 24 0 52 4 63 9 l20 9 -20 -1 c-11 -1 -40 -4 -64 -7z" transform="translate(0,86) scale(0.1,-0.1)" stroke="none" fill="#E4CDAD"/>

<path d="M130 820 c-14 -4 -40 -8 -59 -9 -33 -1 -33 -1 51 -68 47 -38 98 -84 115 -103 43 -50 98 -153 134 -251 40 -109 48 -143 53 -231 4 -58 8 -74 23 -79 46 -19 57 -11 97 67 52 102 66 154 66 239 0 138 -58 259 -163 341 -94 73 -246 118 -317 94z m112 -38 c27 -10 81 -45 124 -82 65 -56 83 -78 120 -152 42 -84 44 -91 44 -175 0 -89 -9 -121 -29 -109 -6 4 -16 26 -22 49 -53 196 -137 332 -266 428 -79 59 -67 76 29 41z" transform="translate(0,86) scale(0.1,-0.1)" stroke="none" fill="#765339"/>

</g>

<g id="3" transform="translate(198.0,0)scale(1,1)">

<path d="M138 832 c-9 -4 15 -7 55 -8 48 0 62 2 42 7 -39 9 -76 9 -97 1z" transform="translate(0,86) scale(0.1,-0.1)" stroke="none" fill="#D07736"/>

<path d="M535 633 c34 -53 45 -67 45 -60 0 10 -51 87 -57 87 -3 0 3 -12 12 -27z" transform="translate(0,86) scale(0.1,-0.1)" stroke="none" fill="#D07736"/>

<path d="M601 258 c-7 -24 -14 -50 -17 -58 -3 -8 1 -4 9 10 15 26 32 90 24 90 -3 0 -10 -19 -16 -42z" transform="translate(0,86) scale(0.1,-0.1)" stroke="none" fill="#E4CDAD"/>

<path d="M540 120 c-17 -33 -28 -60 -25 -60 2 0 18 27 35 60 17 33 28 60 25 60 -2 0 -18 -27 -35 -60z" transform="translate(0,86) scale(0.1,-0.1)" stroke="none" fill="#E4CDAD"/>

<path d="M358 785 c18 -8 54 -31 80 -52 26 -21 38 -27 28 -15 -26 30 -106 82 -125 82 -9 -1 -1 -7 17 -15z" transform="translate(0,86) scale(0.1,-0.1)" stroke="none" fill="#D07736"/>

<path d="M376 683 c34 -32 69 -73 78 -90 9 -18 19 -33 21 -33 3 0 -3 17 -14 38 -11 20 -48 61 -83 90 l-63 54 61 -59z" transform="translate(0,86) scale(0.1,-0.1)" stroke="none" fill="#D07736"/>

<path d="M605 385 c0 -63 3 -107 7 -97 9 22 9 172 0 194 -4 10 -7 -34 -7 -97z" transform="translate(0,86) scale(0.1,-0.1)" stroke="none" fill="#D07736"/>

<path d="M32 811 c4 -11 158 -134 158 -126 0 2 -34 31 -76 64 l-75 60 38 4 38 4 -43 1 c-24 1 -42 -2 -40 -7z" transform="translate(0,86) scale(0.1,-0.1)" stroke="none" fill="#D07736"/>

<path d="M385 306 c3 -11 11 -65 17 -120 12 -105 20 -126 47 -125 12 0 11 2 -4 9 -18 7 -22 23 -33 114 -6 59 -16 115 -23 124 -9 15 -10 15 -4 -2z" transform="translate(0,86) scale(0.1,-0.1)" stroke="none" fill="#E4CDAD"/>

<path d="M591 252 c-1 -8 -20 -52 -43 -98 -45 -88 -52 -93 -105 -73 -22 8 -25 8 -16 -2 6 -6 28 -12 48 -13 36 -1 37 0 82 87 24 48 42 93 40 100 -4 9 -6 8 -6 -1z" transform="translate(0,86) scale(0.1,-0.1)" stroke="none" fill="#D07736"/>

<path d="M396 774 c106 -73 167 -148 203 -250 13 -37 19 -46 15 -24 -10 59 -57 141 -108 193 -53 53 -123 107 -139 107 -5 0 8 -12 29 -26z" transform="translate(0,86) scale(0.1,-0.1)" stroke="none" fill="#E4CDAD"/>

<path d="M296 680 c70 -75 106 -133 151 -245 18 -44 33 -74 33 -67 0 7 -14 47 -31 87 -46 111 -116 211 -189 270 -14 11 2 -9 36 -45z" transform="translate(0,86) scale(0.1,-0.1)" stroke="none" fill="#E4CDAD"/>

<path d="M507 490 c12 -36 10 -189 -2 -192 -5 -2 -15 13 -22 32 -7 19 -12 27 -12 17 -1 -25 26 -87 37 -87 17 0 22 29 22 118 -1 59 -6 95 -16 112 l-15 25 8 -25z" transform="translate(0,86) scale(0.1,-0.1)" stroke="none" fill="#D07736"/>

<path d="M160 790 c0 -5 24 -27 53 -48 65 -49 126 -114 161 -175 35 -58 46 -62 14 -5 -29 52 -129 161 -174 189 -68 42 -24 48 61 7 26 -12 35 -14 25 -4 -16 15 -100 46 -125 46 -8 0 -15 -4 -15 -10z" transform="translate(0,86) scale(0.1,-0.1)" stroke="none" fill="#D07736"/>

<path d="M236 630 c70 -83 173 -336 174 -427 0 -17 4 -34 8 -37 14 -8 -6 114 -27 169 -11 28 -27 70 -36 95 -25 68 -91 184 -117 206 l-23 19 21 -25z" transform="translate(0,86) scale(0.1,-0.1)" stroke="none" fill="#D07736"/>

<path d="M291 742 c73 -49 139 -121 175 -190 31 -62 38 -86 42 -153 3 -55 1 -79 -7 -79 -6 0 -11 8 -12 18 0 9 -3 12 -5 5 -3 -7 0 -22 6 -34 21 -38 32 -6 29 83 -4 73 -9 92 -43 160 -32 61 -55 90 -115 143 -41 36 -79 65 -85 65 -6 0 1 -8 15 -18z" transform="translate(0,86) scale(0.1,-0.1)" stroke="none" fill="#E4CDAD"/>

<path d="M71 831 c-25 -3 -46 -11 -48 -18 -2 -6 31 -38 74 -71 127 -98 177 -162 238 -309 13 -32 24 -51 25 -42 0 23 -93 202 -127 243 -15 19 -66 65 -113 101 -47 36 -86 70 -88 76 -2 5 16 9 40 10 24 0 52 4 63 9 l20 9 -20 -1 c-11 -1 -40 -4 -64 -7z" transform="translate(0,86) scale(0.1,-0.1)" stroke="none" fill="#E4CDAD"/>

<path d="M130 820 c-14 -4 -40 -8 -59 -9 -33 -1 -33 -1 51 -68 47 -38 98 -84 115 -103 43 -50 98 -153 134 -251 40 -109 48 -143 53 -231 4 -58 8 -74 23 -79 46 -19 57 -11 97 67 52 102 66 154 66 239 0 138 -58 259 -163 341 -94 73 -246 118 -317 94z m112 -38 c27 -10 81 -45 124 -82 65 -56 83 -78 120 -152 42 -84 44 -91 44 -175 0 -89 -9 -121 -29 -109 -6 4 -16 26 -22 49 -53 196 -137 332 -266 428 -79 59 -67 76 29 41z" transform="translate(0,86) scale(0.1,-0.1)" stroke="none" fill="#765339"/>

</g>

<g id="4" transform="translate(264.0,0)scale(1,1)">

<path d="M138 832 c-9 -4 15 -7 55 -8 48 0 62 2 42 7 -39 9 -76 9 -97 1z" transform="translate(0,86) scale(0.1,-0.1)" stroke="none" fill="#D07736"/>

<path d="M535 633 c34 -53 45 -67 45 -60 0 10 -51 87 -57 87 -3 0 3 -12 12 -27z" transform="translate(0,86) scale(0.1,-0.1)" stroke="none" fill="#D07736"/>

<path d="M601 258 c-7 -24 -14 -50 -17 -58 -3 -8 1 -4 9 10 15 26 32 90 24 90 -3 0 -10 -19 -16 -42z" transform="translate(0,86) scale(0.1,-0.1)" stroke="none" fill="#E4CDAD"/>

<path d="M540 120 c-17 -33 -28 -60 -25 -60 2 0 18 27 35 60 17 33 28 60 25 60 -2 0 -18 -27 -35 -60z" transform="translate(0,86) scale(0.1,-0.1)" stroke="none" fill="#E4CDAD"/>

<path d="M358 785 c18 -8 54 -31 80 -52 26 -21 38 -27 28 -15 -26 30 -106 82 -125 82 -9 -1 -1 -7 17 -15z" transform="translate(0,86) scale(0.1,-0.1)" stroke="none" fill="#D07736"/>

<path d="M376 683 c34 -32 69 -73 78 -90 9 -18 19 -33 21 -33 3 0 -3 17 -14 38 -11 20 -48 61 -83 90 l-63 54 61 -59z" transform="translate(0,86) scale(0.1,-0.1)" stroke="none" fill="#D07736"/>

<path d="M605 385 c0 -63 3 -107 7 -97 9 22 9 172 0 194 -4 10 -7 -34 -7 -97z" transform="translate(0,86) scale(0.1,-0.1)" stroke="none" fill="#D07736"/>

<path d="M32 811 c4 -11 158 -134 158 -126 0 2 -34 31 -76 64 l-75 60 38 4 38 4 -43 1 c-24 1 -42 -2 -40 -7z" transform="translate(0,86) scale(0.1,-0.1)" stroke="none" fill="#D07736"/>

<path d="M385 306 c3 -11 11 -65 17 -120 12 -105 20 -126 47 -125 12 0 11 2 -4 9 -18 7 -22 23 -33 114 -6 59 -16 115 -23 124 -9 15 -10 15 -4 -2z" transform="translate(0,86) scale(0.1,-0.1)" stroke="none" fill="#E4CDAD"/>

<path d="M591 252 c-1 -8 -20 -52 -43 -98 -45 -88 -52 -93 -105 -73 -22 8 -25 8 -16 -2 6 -6 28 -12 48 -13 36 -1 37 0 82 87 24 48 42 93 40 100 -4 9 -6 8 -6 -1z" transform="translate(0,86) scale(0.1,-0.1)" stroke="none" fill="#D07736"/>

<path d="M396 774 c106 -73 167 -148 203 -250 13 -37 19 -46 15 -24 -10 59 -57 141 -108 193 -53 53 -123 107 -139 107 -5 0 8 -12 29 -26z" transform="translate(0,86) scale(0.1,-0.1)" stroke="none" fill="#E4CDAD"/>

<path d="M296 680 c70 -75 106 -133 151 -245 18 -44 33 -74 33 -67 0 7 -14 47 -31 87 -46 111 -116 211 -189 270 -14 11 2 -9 36 -45z" transform="translate(0,86) scale(0.1,-0.1)" stroke="none" fill="#E4CDAD"/>

<path d="M507 490 c12 -36 10 -189 -2 -192 -5 -2 -15 13 -22 32 -7 19 -12 27 -12 17 -1 -25 26 -87 37 -87 17 0 22 29 22 118 -1 59 -6 95 -16 112 l-15 25 8 -25z" transform="translate(0,86) scale(0.1,-0.1)" stroke="none" fill="#D07736"/>

<path d="M160 790 c0 -5 24 -27 53 -48 65 -49 126 -114 161 -175 35 -58 46 -62 14 -5 -29 52 -129 161 -174 189 -68 42 -24 48 61 7 26 -12 35 -14 25 -4 -16 15 -100 46 -125 46 -8 0 -15 -4 -15 -10z" transform="translate(0,86) scale(0.1,-0.1)" stroke="none" fill="#D07736"/>

<path d="M236 630 c70 -83 173 -336 174 -427 0 -17 4 -34 8 -37 14 -8 -6 114 -27 169 -11 28 -27 70 -36 95 -25 68 -91 184 -117 206 l-23 19 21 -25z" transform="translate(0,86) scale(0.1,-0.1)" stroke="none" fill="#D07736"/>

<path d="M291 742 c73 -49 139 -121 175 -190 31 -62 38 -86 42 -153 3 -55 1 -79 -7 -79 -6 0 -11 8 -12 18 0 9 -3 12 -5 5 -3 -7 0 -22 6 -34 21 -38 32 -6 29 83 -4 73 -9 92 -43 160 -32 61 -55 90 -115 143 -41 36 -79 65 -85 65 -6 0 1 -8 15 -18z" transform="translate(0,86) scale(0.1,-0.1)" stroke="none" fill="#E4CDAD"/>

<path d="M71 831 c-25 -3 -46 -11 -48 -18 -2 -6 31 -38 74 -71 127 -98 177 -162 238 -309 13 -32 24 -51 25 -42 0 23 -93 202 -127 243 -15 19 -66 65 -113 101 -47 36 -86 70 -88 76 -2 5 16 9 40 10 24 0 52 4 63 9 l20 9 -20 -1 c-11 -1 -40 -4 -64 -7z" transform="translate(0,86) scale(0.1,-0.1)" stroke="none" fill="#E4CDAD"/>

<path d="M130 820 c-14 -4 -40 -8 -59 -9 -33 -1 -33 -1 51 -68 47 -38 98 -84 115 -103 43 -50 98 -153 134 -251 40 -109 48 -143 53 -231 4 -58 8 -74 23 -79 46 -19 57 -11 97 67 52 102 66 154 66 239 0 138 -58 259 -163 341 -94 73 -246 118 -317 94z m112 -38 c27 -10 81 -45 124 -82 65 -56 83 -78 120 -152 42 -84 44 -91 44 -175 0 -89 -9 -121 -29 -109 -6 4 -16 26 -22 49 -53 196 -137 332 -266 428 -79 59 -67 76 29 41z" transform="translate(0,86) scale(0.1,-0.1)" stroke="none" fill="#765339"/>

</g>

</g>
<g id="row1" transform="translate(8,86.0)">
<g id="0" transform="translate(0.0,0)scale(1,1)">

<path d="M138 832 c-9 -4 15 -7 55 -8 48 0 62 2 42 7 -39 9 -76 9 -97 1z" transform="translate(0,86) scale(0.1,-0.1)" stroke="none" fill="#D07736"/>

<path d="M535 633 c34 -53 45 -67 45 -60 0 10 -51 87 -57 87 -3 0 3 -12 12 -27z" transform="translate(0,86) scale(0.1,-0.1)" stroke="none" fill="#D07736"/>

<path d="M601 258 c-7 -24 -14 -50 -17 -58 -3 -8 1 -4 9 10 15 26 32 90 24 90 -3 0 -10 -19 -16 -42z" transform="translate(0,86) scale(0.1,-0.1)" stroke="none" fill="#E4CDAD"/>

<path d="M540 120 c-17 -33 -28 -60 -25 -60 2 0 18 27 35 60 17 33 28 60 25 60 -2 0 -18 -27 -35 -60z" transform="translate(0,86) scale(0.1,-0.1)" stroke="none" fill="#E4CDAD"/>

<path d="M358 785 c18 -8 54 -31 80 -52 26 -21 38 -27 28 -15 -26 30 -106 82 -125 82 -9 -1 -1 -7 17 -15z" transform="translate(0,86) scale(0.1,-0.1)" stroke="none" fill="#D07736"/>

<path d="M376 683 c34 -32 69 -73 78 -90 9 -18 19 -33 21 -33 3 0 -3 17 -14 38 -11 20 -48 61 -83 90 l-63 54 61 -59z" transform="translate(0,86) scale(0.1,-0.1)" stroke="none" fill="#D07736"/>

<path d="M605 385 c0 -63 3 -107 7 -97 9 22 9 172 0 194 -4 10 -7 -34 -7 -97z" transform="translate(0,86) scale(0.1,-0.1)" stroke="none" fill="#D07736"/>

<path d="M32 811 c4 -11 158 -134 158 -126 0 2 -34 31 -76 64 l-75 60 38 4 38 4 -43 1 c-24 1 -42 -2 -40 -7z" transform="translate(0,86) scale(0.1,-0.1)" stroke="none" fill="#D07736"/>

<path d="M385 306 c3 -11 11 -65 17 -120 12 -105 20 -126 47 -125 12 0 11 2 -4 9 -18 7 -22 23 -33 114 -6 59 -16 115 -23 124 -9 15 -10 15 -4 -2z" transform="translate(0,86) scale(0.1,-0.1)" stroke="none" fill="#E4CDAD"/>

<path d="M591 252 c-1 -8 -20 -52 -43 -98 -45 -88 -52 -93 -105 -73 -22 8 -25 8 -16 -2 6 -6 28 -12 48 -13 36 -1 37 0 82 87 24 48 42 93 40 100 -4 9 -6 8 -6 -1z" transform="translate(0,86) scale(0.1,-0.1)" stroke="none" fill="#D07736"/>

<path d="M396 774 c106 -73 167 -148 203 -250 13 -37 19 -46 15 -24 -10 59 -57 141 -108 193 -53 53 -123 107 -139 107 -5 0 8 -12 29 -26z" transform="translate(0,86) scale(0.1,-0.1)" stroke="none" fill="#E4CDAD"/>

<path d="M296 680 c70 -75 106 -133 151 -245 18 -44 33 -74 33 -67 0 7 -14 47 -31 87 -46 111 -116 211 -189 270 -14 11 2 -9 36 -45z" transform="translate(0,86) scale(0.1,-0.1)" stroke="none" fill="#E4CDAD"/>

<path d="M507 490 c12 -36 10 -189 -2 -192 -5 -2 -15 13 -22 32 -7 19 -12 27 -12 17 -1 -25 26 -87 37 -87 17 0 22 29 22 118 -1 59 -6 95 -16 112 l-15 25 8 -25z" transform="translate(0,86) scale(0.1,-0.1)" stroke="none" fill="#D07736"/>

<path d="M160 790 c0 -5 24 -27 53 -48 65 -49 126 -114 161 -175 35 -58 46 -62 14 -5 -29 52 -129 161 -174 189 -68 42 -24 48 61 7 26 -12 35 -14 25 -4 -16 15 -100 46 -125 46 -8 0 -15 -4 -15 -10z" transform="translate(0,86) scale(0.1,-0.1)" stroke="none" fill="#D07736"/>

<path d="M236 630 c70 -83 173 -336 174 -427 0 -17 4 -34 8 -37 14 -8 -6 114 -27 169 -11 28 -27 70 -36 95 -25 68 -91 184 -117 206 l-23 19 21 -25z" transform="translate(0,86) scale(0.1,-0.1)" stroke="none" fill="#D07736"/>

<path d="M291 742 c73 -49 139 -121 175 -190 31 -62 38 -86 42 -153 3 -55 1 -79 -7 -79 -6 0 -11 8 -12 18 0 9 -3 12 -5 5 -3 -7 0 -22 6 -34 21 -38 32 -6 29 83 -4 73 -9 92 -43 160 -32 61 -55 90 -115 143 -41 36 -79 65 -85 65 -6 0 1 -8 15 -18z" transform="translate(0,86) scale(0.1,-0.1)" stroke="none" fill="#E4CDAD"/>

<path d="M71 831 c-25 -3 -46 -11 -48 -18 -2 -6 31 -38 74 -71 127 -98 177 -162 238 -309 13 -32 24 -51 25 -42 0 23 -93 202 -127 243 -15 19 -66 65 -113 101 -47 36 -86 70 -88 76 -2 5 16 9 40 10 24 0 52 4 63 9 l20 9 -20 -1 c-11 -1 -40 -4 -64 -7z" transform="translate(0,86) scale(0.1,-0.1)" stroke="none" fill="#E4CDAD"/>

<path d="M130 820 c-14 -4 -40 -8 -59 -9 -33 -1 -33 -1 51 -68 47 -38 98 -84 115 -103 43 -50 98 -153 134 -251 40 -109 48 -143 53 -231 4 -58 8 -74 23 -79 46 -19 57 -11 97 67 52 102 66 154 66 239 0 138 -58 259 -163 341 -94 73 -246 118 -317 94z m112 -38 c27 -10 81 -45 124 -82 65 -56 83 -78 120 -152 42 -84 44 -91 44 -175 0 -89 -9 -121 -29 -109 -6 4 -16 26 -22 49 -53 196 -137 332 -266 428 -79 59 -67 76 29 41z" transform="translate(0,86) scale(0.1,-0.1)" stroke="none" fill="#765339"/>

</g>

<g id="1" transform="translate(66.0,0)scale(1,1)">

<path d="M138 832 c-9 -4 15 -7 55 -8 48 0 62 2 42 7 -39 9 -76 9 -97 1z" transform="translate(0,86) scale(0.1,-0.1)" stroke="none" fill="#D07736"/>

<path d="M535 633 c34 -53 45 -67 45 -60 0 10 -51 87 -57 87 -3 0 3 -12 12 -27z" transform="translate(0,86) scale(0.1,-0.1)" stroke="none" fill="#D07736"/>

<path d="M601 258 c-7 -24 -14 -50 -17 -58 -3 -8 1 -4 9 10 15 26 32 90 24 90 -3 0 -10 -19 -16 -42z" transform="translate(0,86) scale(0.1,-0.1)" stroke="none" fill="#E4CDAD"/>

<path d="M540 120 c-17 -33 -28 -60 -25 -60 2 0 18 27 35 60 17 33 28 60 25 60 -2 0 -18 -27 -35 -60z" transform="translate(0,86) scale(0.1,-0.1)" stroke="none" fill="#E4CDAD"/>

<path d="M358 785 c18 -8 54 -31 80 -52 26 -21 38 -27 28 -15 -26 30 -106 82 -125 82 -9 -1 -1 -7 17 -15z" transform="translate(0,86) scale(0.1,-0.1)" stroke="none" fill="#D07736"/>

<path d="M376 683 c34 -32 69 -73 78 -90 9 -18 19 -33 21 -33 3 0 -3 17 -14 38 -11 20 -48 61 -83 90 l-63 54 61 -59z" transform="translate(0,86) scale(0.1,-0.1)" stroke="none" fill="#D07736"/>

<path d="M605 385 c0 -63 3 -107 7 -97 9 22 9 172 0 194 -4 10 -7 -34 -7 -97z" transform="translate(0,86) scale(0.1,-0.1)" stroke="none" fill="#D07736"/>

<path d="M32 811 c4 -11 158 -134 158 -126 0 2 -34 31 -76 64 l-75 60 38 4 38 4 -43 1 c-24 1 -42 -2 -40 -7z" transform="translate(0,86) scale(0.1,-0.1)" stroke="none" fill="#D07736"/>

<path d="M385 306 c3 -11 11 -65 17 -120 12 -105 20 -126 47 -125 12 0 11 2 -4 9 -18 7 -22 23 -33 114 -6 59 -16 115 -23 124 -9 15 -10 15 -4 -2z" transform="translate(0,86) scale(0.1,-0.1)" stroke="none" fill="#E4CDAD"/>

<path d="M591 252 c-1 -8 -20 -52 -43 -98 -45 -88 -52 -93 -105 -73 -22 8 -25 8 -16 -2 6 -6 28 -12 48 -13 36 -1 37 0 82 87 24 48 42 93 40 100 -4 9 -6 8 -6 -1z" transform="translate(0,86) scale(0.1,-0.1)" stroke="none" fill="#D07736"/>

<path d="M396 774 c106 -73 167 -148 203 -250 13 -37 19 -46 15 -24 -10 59 -57 141 -108 193 -53 53 -123 107 -139 107 -5 0 8 -12 29 -26z" transform="translate(0,86) scale(0.1,-0.1)" stroke="none" fill="#E4CDAD"/>

<path d="M296 680 c70 -75 106 -133 151 -245 18 -44 33 -74 33 -67 0 7 -14 47 -31 87 -46 111 -116 211 -189 270 -14 11 2 -9 36 -45z" transform="translate(0,86) scale(0.1,-0.1)" stroke="none" fill="#E4CDAD"/>

<path d="M507 490 c12 -36 10 -189 -2 -192 -5 -2 -15 13 -22 32 -7 19 -12 27 -12 17 -1 -25 26 -87 37 -87 17 0 22 29 22 118 -1 59 -6 95 -16 112 l-15 25 8 -25z" transform="translate(0,86) scale(0.1,-0.1)" stroke="none" fill="#D07736"/>

<path d="M160 790 c0 -5 24 -27 53 -48 65 -49 126 -114 161 -175 35 -58 46 -62 14 -5 -29 52 -129 161 -174 189 -68 42 -24 48 61 7 26 -12 35 -14 25 -4 -16 15 -100 46 -125 46 -8 0 -15 -4 -15 -10z" transform="translate(0,86) scale(0.1,-0.1)" stroke="none" fill="#D07736"/>

<path d="M236 630 c70 -83 173 -336 174 -427 0 -17 4 -34 8 -37 14 -8 -6 114 -27 169 -11 28 -27 70 -36 95 -25 68 -91 184 -117 206 l-23 19 21 -25z" transform="translate(0,86) scale(0.1,-0.1)" stroke="none" fill="#D07736"/>

<path d="M291 742 c73 -49 139 -121 175 -190 31 -62 38 -86 42 -153 3 -55 1 -79 -7 -79 -6 0 -11 8 -12 18 0 9 -3 12 -5 5 -3 -7 0 -22 6 -34 21 -38 32 -6 29 83 -4 73 -9 92 -43 160 -32 61 -55 90 -115 143 -41 36 -79 65 -85 65 -6 0 1 -8 15 -18z" transform="translate(0,86) scale(0.1,-0.1)" stroke="none" fill="#E4CDAD"/>

<path d="M71 831 c-25 -3 -46 -11 -48 -18 -2 -6 31 -38 74 -71 127 -98 177 -162 238 -309 13 -32 24 -51 25 -42 0 23 -93 202 -127 243 -15 19 -66 65 -113 101 -47 36 -86 70 -88 76 -2 5 16 9 40 10 24 0 52 4 63 9 l20 9 -20 -1 c-11 -1 -40 -4 -64 -7z" transform="translate(0,86) scale(0.1,-0.1)" stroke="none" fill="#E4CDAD"/>

<path d="M130 820 c-14 -4 -40 -8 -59 -9 -33 -1 -33 -1 51 -68 47 -38 98 -84 115 -103 43 -50 98 -153 134 -251 40 -109 48 -143 53 -231 4 -58 8 -74 23 -79 46 -19 57 -11 97 67 52 102 66 154 66 239 0 138 -58 259 -163 341 -94 73 -246 118 -317 94z m112 -38 c27 -10 81 -45 124 -82 65 -56 83 -78 120 -152 42 -84 44 -91 44 -175 0 -89 -9 -121 -29 -109 -6 4 -16 26 -22 49 -53 196 -137 332 -266 428 -79 59 -67 76 29 41z" transform="translate(0,86) scale(0.1,-0.1)" stroke="none" fill="#765339"/>

</g>

<g id="2" transform="translate(132.0,0)scale(1,1)">

<path d="M138 832 c-9 -4 15 -7 55 -8 48 0 62 2 42 7 -39 9 -76 9 -97 1z" transform="translate(0,86) scale(0.1,-0.1)" stroke="none" fill="#D07736"/>

<path d="M535 633 c34 -53 45 -67 45 -60 0 10 -51 87 -57 87 -3 0 3 -12 12 -27z" transform="translate(0,86) scale(0.1,-0.1)" stroke="none" fill="#D07736"/>

<path d="M601 258 c-7 -24 -14 -50 -17 -58 -3 -8 1 -4 9 10 15 26 32 90 24 90 -3 0 -10 -19 -16 -42z" transform="translate(0,86) scale(0.1,-0.1)" stroke="none" fill="#E4CDAD"/>

<path d="M540 120 c-17 -33 -28 -60 -25 -60 2 0 18 27 35 60 17 33 28 60 25 60 -2 0 -18 -27 -35 -60z" transform="translate(0,86) scale(0.1,-0.1)" stroke="none" fill="#E4CDAD"/>

<path d="M358 785 c18 -8 54 -31 80 -52 26 -21 38 -27 28 -15 -26 30 -106 82 -125 82 -9 -1 -1 -7 17 -15z" transform="translate(0,86) scale(0.1,-0.1)" stroke="none" fill="#D07736"/>

<path d="M376 683 c34 -32 69 -73 78 -90 9 -18 19 -33 21 -33 3 0 -3 17 -14 38 -11 20 -48 61 -83 90 l-63 54 61 -59z" transform="translate(0,86) scale(0.1,-0.1)" stroke="none" fill="#D07736"/>

<path d="M605 385 c0 -63 3 -107 7 -97 9 22 9 172 0 194 -4 10 -7 -34 -7 -97z" transform="translate(0,86) scale(0.1,-0.1)" stroke="none" fill="#D07736"/>

<path d="M32 811 c4 -11 158 -134 158 -126 0 2 -34 31 -76 64 l-75 60 38 4 38 4 -43 1 c-24 1 -42 -2 -40 -7z" transform="translate(0,86) scale(0.1,-0.1)" stroke="none" fill="#D07736"/>

<path d="M385 306 c3 -11 11 -65 17 -120 12 -105 20 -126 47 -125 12 0 11 2 -4 9 -18 7 -22 23 -33 114 -6 59 -16 115 -23 124 -9 15 -10 15 -4 -2z" transform="translate(0,86) scale(0.1,-0.1)" stroke="none" fill="#E4CDAD"/>

<path d="M591 252 c-1 -8 -20 -52 -43 -98 -45 -88 -52 -93 -105 -73 -22 8 -25 8 -16 -2 6 -6 28 -12 48 -13 36 -1 37 0 82 87 24 48 42 93 40 100 -4 9 -6 8 -6 -1z" transform="translate(0,86) scale(0.1,-0.1)" stroke="none" fill="#D07736"/>

<path d="M396 774 c106 -73 167 -148 203 -250 13 -37 19 -46 15 -24 -10 59 -57 141 -108 193 -53 53 -123 107 -139 107 -5 0 8 -12 29 -26z" transform="translate(0,86) scale(0.1,-0.1)" stroke="none" fill="#E4CDAD"/>

<path d="M296 680 c70 -75 106 -133 151 -245 18 -44 33 -74 33 -67 0 7 -14 47 -31 87 -46 111 -116 211 -189 270 -14 11 2 -9 36 -45z" transform="translate(0,86) scale(0.1,-0.1)" stroke="none" fill="#E4CDAD"/>

<path d="M507 490 c12 -36 10 -189 -2 -192 -5 -2 -15 13 -22 32 -7 19 -12 27 -12 17 -1 -25 26 -87 37 -87 17 0 22 29 22 118 -1 59 -6 95 -16 112 l-15 25 8 -25z" transform="translate(0,86) scale(0.1,-0.1)" stroke="none" fill="#D07736"/>

<path d="M160 790 c0 -5 24 -27 53 -48 65 -49 126 -114 161 -175 35 -58 46 -62 14 -5 -29 52 -129 161 -174 189 -68 42 -24 48 61 7 26 -12 35 -14 25 -4 -16 15 -100 46 -125 46 -8 0 -15 -4 -15 -10z" transform="translate(0,86) scale(0.1,-0.1)" stroke="none" fill="#D07736"/>

<path d="M236 630 c70 -83 173 -336 174 -427 0 -17 4 -34 8 -37 14 -8 -6 114 -27 169 -11 28 -27 70 -36 95 -25 68 -91 184 -117 206 l-23 19 21 -25z" transform="translate(0,86) scale(0.1,-0.1)" stroke="none" fill="#D07736"/>

<path d="M291 742 c73 -49 139 -121 175 -190 31 -62 38 -86 42 -153 3 -55 1 -79 -7 -79 -6 0 -11 8 -12 18 0 9 -3 12 -5 5 -3 -7 0 -22 6 -34 21 -38 32 -6 29 83 -4 73 -9 92 -43 160 -32 61 -55 90 -115 143 -41 36 -79 65 -85 65 -6 0 1 -8 15 -18z" transform="translate(0,86) scale(0.1,-0.1)" stroke="none" fill="#E4CDAD"/>

<path d="M71 831 c-25 -3 -46 -11 -48 -18 -2 -6 31 -38 74 -71 127 -98 177 -162 238 -309 13 -32 24 -51 25 -42 0 23 -93 202 -127 243 -15 19 -66 65 -113 101 -47 36 -86 70 -88 76 -2 5 16 9 40 10 24 0 52 4 63 9 l20 9 -20 -1 c-11 -1 -40 -4 -64 -7z" transform="translate(0,86) scale(0.1,-0.1)" stroke="none" fill="#E4CDAD"/>

<path d="M130 820 c-14 -4 -40 -8 -59 -9 -33 -1 -33 -1 51 -68 47 -38 98 -84 115 -103 43 -50 98 -153 134 -251 40 -109 48 -143 53 -231 4 -58 8 -74 23 -79 46 -19 57 -11 97 67 52 102 66 154 66 239 0 138 -58 259 -163 341 -94 73 -246 118 -317 94z m112 -38 c27 -10 81 -45 124 -82 65 -56 83 -78 120 -152 42 -84 44 -91 44 -175 0 -89 -9 -121 -29 -109 -6 4 -16 26 -22 49 -53 196 -137 332 -266 428 -79 59 -67 76 29 41z" transform="translate(0,86) scale(0.1,-0.1)" stroke="none" fill="#765339"/>

</g>

<g id="3" transform="translate(198.0,0)scale(1,1)">

<path d="M138 832 c-9 -4 15 -7 55 -8 48 0 62 2 42 7 -39 9 -76 9 -97 1z" transform="translate(0,86) scale(0.1,-0.1)" stroke="none" fill="#D07736"/>

<path d="M535 633 c34 -53 45 -67 45 -60 0 10 -51 87 -57 87 -3 0 3 -12 12 -27z" transform="translate(0,86) scale(0.1,-0.1)" stroke="none" fill="#D07736"/>

<path d="M601 258 c-7 -24 -14 -50 -17 -58 -3 -8 1 -4 9 10 15 26 32 90 24 90 -3 0 -10 -19 -16 -42z" transform="translate(0,86) scale(0.1,-0.1)" stroke="none" fill="#E4CDAD"/>

<path d="M540 120 c-17 -33 -28 -60 -25 -60 2 0 18 27 35 60 17 33 28 60 25 60 -2 0 -18 -27 -35 -60z" transform="translate(0,86) scale(0.1,-0.1)" stroke="none" fill="#E4CDAD"/>

<path d="M358 785 c18 -8 54 -31 80 -52 26 -21 38 -27 28 -15 -26 30 -106 82 -125 82 -9 -1 -1 -7 17 -15z" transform="translate(0,86) scale(0.1,-0.1)" stroke="none" fill="#D07736"/>

<path d="M376 683 c34 -32 69 -73 78 -90 9 -18 19 -33 21 -33 3 0 -3 17 -14 38 -11 20 -48 61 -83 90 l-63 54 61 -59z" transform="translate(0,86) scale(0.1,-0.1)" stroke="none" fill="#D07736"/>

<path d="M605 385 c0 -63 3 -107 7 -97 9 22 9 172 0 194 -4 10 -7 -34 -7 -97z" transform="translate(0,86) scale(0.1,-0.1)" stroke="none" fill="#D07736"/>

<path d="M32 811 c4 -11 158 -134 158 -126 0 2 -34 31 -76 64 l-75 60 38 4 38 4 -43 1 c-24 1 -42 -2 -40 -7z" transform="translate(0,86) scale(0.1,-0.1)" stroke="none" fill="#D07736"/>

<path d="M385 306 c3 -11 11 -65 17 -120 12 -105 20 -126 47 -125 12 0 11 2 -4 9 -18 7 -22 23 -33 114 -6 59 -16 115 -23 124 -9 15 -10 15 -4 -2z" transform="translate(0,86) scale(0.1,-0.1)" stroke="none" fill="#E4CDAD"/>

<path d="M591 252 c-1 -8 -20 -52 -43 -98 -45 -88 -52 -93 -105 -73 -22 8 -25 8 -16 -2 6 -6 28 -12 48 -13 36 -1 37 0 82 87 24 48 42 93 40 100 -4 9 -6 8 -6 -1z" transform="translate(0,86) scale(0.1,-0.1)" stroke="none" fill="#D07736"/>

<path d="M396 774 c106 -73 167 -148 203 -250 13 -37 19 -46 15 -24 -10 59 -57 141 -108 193 -53 53 -123 107 -139 107 -5 0 8 -12 29 -26z" transform="translate(0,86) scale(0.1,-0.1)" stroke="none" fill="#E4CDAD"/>

<path d="M296 680 c70 -75 106 -133 151 -245 18 -44 33 -74 33 -67 0 7 -14 47 -31 87 -46 111 -116 211 -189 270 -14 11 2 -9 36 -45z" transform="translate(0,86) scale(0.1,-0.1)" stroke="none" fill="#E4CDAD"/>

<path d="M507 490 c12 -36 10 -189 -2 -192 -5 -2 -15 13 -22 32 -7 19 -12 27 -12 17 -1 -25 26 -87 37 -87 17 0 22 29 22 118 -1 59 -6 95 -16 112 l-15 25 8 -25z" transform="translate(0,86) scale(0.1,-0.1)" stroke="none" fill="#D07736"/>

<path d="M160 790 c0 -5 24 -27 53 -48 65 -49 126 -114 161 -175 35 -58 46 -62 14 -5 -29 52 -129 161 -174 189 -68 42 -24 48 61 7 26 -12 35 -14 25 -4 -16 15 -100 46 -125 46 -8 0 -15 -4 -15 -10z" transform="translate(0,86) scale(0.1,-0.1)" stroke="none" fill="#D07736"/>

<path d="M236 630 c70 -83 173 -336 174 -427 0 -17 4 -34 8 -37 14 -8 -6 114 -27 169 -11 28 -27 70 -36 95 -25 68 -91 184 -117 206 l-23 19 21 -25z" transform="translate(0,86) scale(0.1,-0.1)" stroke="none" fill="#D07736"/>

<path d="M291 742 c73 -49 139 -121 175 -190 31 -62 38 -86 42 -153 3 -55 1 -79 -7 -79 -6 0 -11 8 -12 18 0 9 -3 12 -5 5 -3 -7 0 -22 6 -34 21 -38 32 -6 29 83 -4 73 -9 92 -43 160 -32 61 -55 90 -115 143 -41 36 -79 65 -85 65 -6 0 1 -8 15 -18z" transform="translate(0,86) scale(0.1,-0.1)" stroke="none" fill="#E4CDAD"/>

<path d="M71 831 c-25 -3 -46 -11 -48 -18 -2 -6 31 -38 74 -71 127 -98 177 -162 238 -309 13 -32 24 -51 25 -42 0 23 -93 202 -127 243 -15 19 -66 65 -113 101 -47 36 -86 70 -88 76 -2 5 16 9 40 10 24 0 52 4 63 9 l20 9 -20 -1 c-11 -1 -40 -4 -64 -7z" transform="translate(0,86) scale(0.1,-0.1)" stroke="none" fill="#E4CDAD"/>

<path d="M130 820 c-14 -4 -40 -8 -59 -9 -33 -1 -33 -1 51 -68 47 -38 98 -84 115 -103 43 -50 98 -153 134 -251 40 -109 48 -143 53 -231 4 -58 8 -74 23 -79 46 -19 57 -11 97 67 52 102 66 154 66 239 0 138 -58 259 -163 341 -94 73 -246 118 -317 94z m112 -38 c27 -10 81 -45 124 -82 65 -56 83 -78 120 -152 42 -84 44 -91 44 -175 0 -89 -9 -121 -29 -109 -6 4 -16 26 -22 49 -53 196 -137 332 -266 428 -79 59 -67 76 29 41z" transform="translate(0,86) scale(0.1,-0.1)" stroke="none" fill="#765339"/>

</g>

<g id="4" transform="translate(264.0,0)scale(1,1)">

<path d="M138 832 c-9 -4 15 -7 55 -8 48 0 62 2 42 7 -39 9 -76 9 -97 1z" transform="translate(0,86) scale(0.1,-0.1)" stroke="none" fill="#D07736"/>

<path d="M535 633 c34 -53 45 -67 45 -60 0 10 -51 87 -57 87 -3 0 3 -12 12 -27z" transform="translate(0,86) scale(0.1,-0.1)" stroke="none" fill="#D07736"/>

<path d="M601 258 c-7 -24 -14 -50 -17 -58 -3 -8 1 -4 9 10 15 26 32 90 24 90 -3 0 -10 -19 -16 -42z" transform="translate(0,86) scale(0.1,-0.1)" stroke="none" fill="#E4CDAD"/>

<path d="M540 120 c-17 -33 -28 -60 -25 -60 2 0 18 27 35 60 17 33 28 60 25 60 -2 0 -18 -27 -35 -60z" transform="translate(0,86) scale(0.1,-0.1)" stroke="none" fill="#E4CDAD"/>

<path d="M358 785 c18 -8 54 -31 80 -52 26 -21 38 -27 28 -15 -26 30 -106 82 -125 82 -9 -1 -1 -7 17 -15z" transform="translate(0,86) scale(0.1,-0.1)" stroke="none" fill="#D07736"/>

<path d="M376 683 c34 -32 69 -73 78 -90 9 -18 19 -33 21 -33 3 0 -3 17 -14 38 -11 20 -48 61 -83 90 l-63 54 61 -59z" transform="translate(0,86) scale(0.1,-0.1)" stroke="none" fill="#D07736"/>

<path d="M605 385 c0 -63 3 -107 7 -97 9 22 9 172 0 194 -4 10 -7 -34 -7 -97z" transform="translate(0,86) scale(0.1,-0.1)" stroke="none" fill="#D07736"/>

<path d="M32 811 c4 -11 158 -134 158 -126 0 2 -34 31 -76 64 l-75 60 38 4 38 4 -43 1 c-24 1 -42 -2 -40 -7z" transform="translate(0,86) scale(0.1,-0.1)" stroke="none" fill="#D07736"/>

<path d="M385 306 c3 -11 11 -65 17 -120 12 -105 20 -126 47 -125 12 0 11 2 -4 9 -18 7 -22 23 -33 114 -6 59 -16 115 -23 124 -9 15 -10 15 -4 -2z" transform="translate(0,86) scale(0.1,-0.1)" stroke="none" fill="#E4CDAD"/>

<path d="M591 252 c-1 -8 -20 -52 -43 -98 -45 -88 -52 -93 -105 -73 -22 8 -25 8 -16 -2 6 -6 28 -12 48 -13 36 -1 37 0 82 87 24 48 42 93 40 100 -4 9 -6 8 -6 -1z" transform="translate(0,86) scale(0.1,-0.1)" stroke="none" fill="#D07736"/>

<path d="M396 774 c106 -73 167 -148 203 -250 13 -37 19 -46 15 -24 -10 59 -57 141 -108 193 -53 53 -123 107 -139 107 -5 0 8 -12 29 -26z" transform="translate(0,86) scale(0.1,-0.1)" stroke="none" fill="#E4CDAD"/>

<path d="M296 680 c70 -75 106 -133 151 -245 18 -44 33 -74 33 -67 0 7 -14 47 -31 87 -46 111 -116 211 -189 270 -14 11 2 -9 36 -45z" transform="translate(0,86) scale(0.1,-0.1)" stroke="none" fill="#E4CDAD"/>

<path d="M507 490 c12 -36 10 -189 -2 -192 -5 -2 -15 13 -22 32 -7 19 -12 27 -12 17 -1 -25 26 -87 37 -87 17 0 22 29 22 118 -1 59 -6 95 -16 112 l-15 25 8 -25z" transform="translate(0,86) scale(0.1,-0.1)" stroke="none" fill="#D07736"/>

<path d="M160 790 c0 -5 24 -27 53 -48 65 -49 126 -114 161 -175 35 -58 46 -62 14 -5 -29 52 -129 161 -174 189 -68 42 -24 48 61 7 26 -12 35 -14 25 -4 -16 15 -100 46 -125 46 -8 0 -15 -4 -15 -10z" transform="translate(0,86) scale(0.1,-0.1)" stroke="none" fill="#D07736"/>

<path d="M236 630 c70 -83 173 -336 174 -427 0 -17 4 -34 8 -37 14 -8 -6 114 -27 169 -11 28 -27 70 -36 95 -25 68 -91 184 -117 206 l-23 19 21 -25z" transform="translate(0,86) scale(0.1,-0.1)" stroke="none" fill="#D07736"/>

<path d="M291 742 c73 -49 139 -121 175 -190 31 -62 38 -86 42 -153 3 -55 1 -79 -7 -79 -6 0 -11 8 -12 18 0 9 -3 12 -5 5 -3 -7 0 -22 6 -34 21 -38 32 -6 29 83 -4 73 -9 92 -43 160 -32 61 -55 90 -115 143 -41 36 -79 65 -85 65 -6 0 1 -8 15 -18z" transform="translate(0,86) scale(0.1,-0.1)" stroke="none" fill="#E4CDAD"/>

<path d="M71 831 c-25 -3 -46 -11 -48 -18 -2 -6 31 -38 74 -71 127 -98 177 -162 238 -309 13 -32 24 -51 25 -42 0 23 -93 202 -127 243 -15 19 -66 65 -113 101 -47 36 -86 70 -88 76 -2 5 16 9 40 10 24 0 52 4 63 9 l20 9 -20 -1 c-11 -1 -40 -4 -64 -7z" transform="translate(0,86) scale(0.1,-0.1)" stroke="none" fill="#E4CDAD"/>

<path d="M130 820 c-14 -4 -40 -8 -59 -9 -33 -1 -33 -1 51 -68 47 -38 98 -84 115 -103 43 -50 98 -153 134 -251 40 -109 48 -143 53 -231 4 -58 8 -74 23 -79 46 -19 57 -11 97 67 52 102 66 154 66 239 0 138 -58 259 -163 341 -94 73 -246 118 -317 94z m112 -38 c27 -10 81 -45 124 -82 65 -56 83 -78 120 -152 42 -84 44 -91 44 -175 0 -89 -9 -121 -29 -109 -6 4 -16 26 -22 49 -53 196 -137 332 -266 428 -79 59 -67 76 29 41z" transform="translate(0,86) scale(0.1,-0.1)" stroke="none" fill="#765339"/>

</g>

</g>
<g id="row2" transform="translate(8,172.0)">
<g id="0" transform="translate(0.0,0)scale(1,1)">

<path d="M138 832 c-9 -4 15 -7 55 -8 48 0 62 2 42 7 -39 9 -76 9 -97 1z" transform="translate(0,86) scale(0.1,-0.1)" stroke="none" fill="#D07736"/>

<path d="M535 633 c34 -53 45 -67 45 -60 0 10 -51 87 -57 87 -3 0 3 -12 12 -27z" transform="translate(0,86) scale(0.1,-0.1)" stroke="none" fill="#D07736"/>

<path d="M601 258 c-7 -24 -14 -50 -17 -58 -3 -8 1 -4 9 10 15 26 32 90 24 90 -3 0 -10 -19 -16 -42z" transform="translate(0,86) scale(0.1,-0.1)" stroke="none" fill="#E4CDAD"/>

<path d="M540 120 c-17 -33 -28 -60 -25 -60 2 0 18 27 35 60 17 33 28 60 25 60 -2 0 -18 -27 -35 -60z" transform="translate(0,86) scale(0.1,-0.1)" stroke="none" fill="#E4CDAD"/>

<path d="M358 785 c18 -8 54 -31 80 -52 26 -21 38 -27 28 -15 -26 30 -106 82 -125 82 -9 -1 -1 -7 17 -15z" transform="translate(0,86) scale(0.1,-0.1)" stroke="none" fill="#D07736"/>

<path d="M376 683 c34 -32 69 -73 78 -90 9 -18 19 -33 21 -33 3 0 -3 17 -14 38 -11 20 -48 61 -83 90 l-63 54 61 -59z" transform="translate(0,86) scale(0.1,-0.1)" stroke="none" fill="#D07736"/>

<path d="M605 385 c0 -63 3 -107 7 -97 9 22 9 172 0 194 -4 10 -7 -34 -7 -97z" transform="translate(0,86) scale(0.1,-0.1)" stroke="none" fill="#D07736"/>

<path d="M32 811 c4 -11 158 -134 158 -126 0 2 -34 31 -76 64 l-75 60 38 4 38 4 -43 1 c-24 1 -42 -2 -40 -7z" transform="translate(0,86) scale(0.1,-0.1)" stroke="none" fill="#D07736"/>

<path d="M385 306 c3 -11 11 -65 17 -120 12 -105 20 -126 47 -125 12 0 11 2 -4 9 -18 7 -22 23 -33 114 -6 59 -16 115 -23 124 -9 15 -10 15 -4 -2z" transform="translate(0,86) scale(0.1,-0.1)" stroke="none" fill="#E4CDAD"/>

<path d="M591 252 c-1 -8 -20 -52 -43 -98 -45 -88 -52 -93 -105 -73 -22 8 -25 8 -16 -2 6 -6 28 -12 48 -13 36 -1 37 0 82 87 24 48 42 93 40 100 -4 9 -6 8 -6 -1z" transform="translate(0,86) scale(0.1,-0.1)" stroke="none" fill="#D07736"/>

<path d="M396 774 c106 -73 167 -148 203 -250 13 -37 19 -46 15 -24 -10 59 -57 141 -108 193 -53 53 -123 107 -139 107 -5 0 8 -12 29 -26z" transform="translate(0,86) scale(0.1,-0.1)" stroke="none" fill="#E4CDAD"/>

<path d="M296 680 c70 -75 106 -133 151 -245 18 -44 33 -74 33 -67 0 7 -14 47 -31 87 -46 111 -116 211 -189 270 -14 11 2 -9 36 -45z" transform="translate(0,86) scale(0.1,-0.1)" stroke="none" fill="#E4CDAD"/>

<path d="M507 490 c12 -36 10 -189 -2 -192 -5 -2 -15 13 -22 32 -7 19 -12 27 -12 17 -1 -25 26 -87 37 -87 17 0 22 29 22 118 -1 59 -6 95 -16 112 l-15 25 8 -25z" transform="translate(0,86) scale(0.1,-0.1)" stroke="none" fill="#D07736"/>

<path d="M160 790 c0 -5 24 -27 53 -48 65 -49 126 -114 161 -175 35 -58 46 -62 14 -5 -29 52 -129 161 -174 189 -68 42 -24 48 61 7 26 -12 35 -14 25 -4 -16 15 -100 46 -125 46 -8 0 -15 -4 -15 -10z" transform="translate(0,86) scale(0.1,-0.1)" stroke="none" fill="#D07736"/>

<path d="M236 630 c70 -83 173 -336 174 -427 0 -17 4 -34 8 -37 14 -8 -6 114 -27 169 -11 28 -27 70 -36 95 -25 68 -91 184 -117 206 l-23 19 21 -25z" transform="translate(0,86) scale(0.1,-0.1)" stroke="none" fill="#D07736"/>

<path d="M291 742 c73 -49 139 -121 175 -190 31 -62 38 -86 42 -153 3 -55 1 -79 -7 -79 -6 0 -11 8 -12 18 0 9 -3 12 -5 5 -3 -7 0 -22 6 -34 21 -38 32 -6 29 83 -4 73 -9 92 -43 160 -32 61 -55 90 -115 143 -41 36 -79 65 -85 65 -6 0 1 -8 15 -18z" transform="translate(0,86) scale(0.1,-0.1)" stroke="none" fill="#E4CDAD"/>

<path d="M71 831 c-25 -3 -46 -11 -48 -18 -2 -6 31 -38 74 -71 127 -98 177 -162 238 -309 13 -32 24 -51 25 -42 0 23 -93 202 -127 243 -15 19 -66 65 -113 101 -47 36 -86 70 -88 76 -2 5 16 9 40 10 24 0 52 4 63 9 l20 9 -20 -1 c-11 -1 -40 -4 -64 -7z" transform="translate(0,86) scale(0.1,-0.1)" stroke="none" fill="#E4CDAD"/>

<path d="M130 820 c-14 -4 -40 -8 -59 -9 -33 -1 -33 -1 51 -68 47 -38 98 -84 115 -103 43 -50 98 -153 134 -251 40 -109 48 -143 53 -231 4 -58 8 -74 23 -79 46 -19 57 -11 97 67 52 102 66 154 66 239 0 138 -58 259 -163 341 -94 73 -246 118 -317 94z m112 -38 c27 -10 81 -45 124 -82 65 -56 83 -78 120 -152 42 -84 44 -91 44 -175 0 -89 -9 -121 -29 -109 -6 4 -16 26 -22 49 -53 196 -137 332 -266 428 -79 59 -67 76 29 41z" transform="translate(0,86) scale(0.1,-0.1)" stroke="none" fill="#765339"/>

</g>

<g id="1" transform="translate(66.0,0)scale(1,1)">

<path d="M138 832 c-9 -4 15 -7 55 -8 48 0 62 2 42 7 -39 9 -76 9 -97 1z" transform="translate(0,86) scale(0.1,-0.1)" stroke="none" fill="#D07736"/>

<path d="M535 633 c34 -53 45 -67 45 -60 0 10 -51 87 -57 87 -3 0 3 -12 12 -27z" transform="translate(0,86) scale(0.1,-0.1)" stroke="none" fill="#D07736"/>

<path d="M601 258 c-7 -24 -14 -50 -17 -58 -3 -8 1 -4 9 10 15 26 32 90 24 90 -3 0 -10 -19 -16 -42z" transform="translate(0,86) scale(0.1,-0.1)" stroke="none" fill="#E4CDAD"/>

<path d="M540 120 c-17 -33 -28 -60 -25 -60 2 0 18 27 35 60 17 33 28 60 25 60 -2 0 -18 -27 -35 -60z" transform="translate(0,86) scale(0.1,-0.1)" stroke="none" fill="#E4CDAD"/>

<path d="M358 785 c18 -8 54 -31 80 -52 26 -21 38 -27 28 -15 -26 30 -106 82 -125 82 -9 -1 -1 -7 17 -15z" transform="translate(0,86) scale(0.1,-0.1)" stroke="none" fill="#D07736"/>

<path d="M376 683 c34 -32 69 -73 78 -90 9 -18 19 -33 21 -33 3 0 -3 17 -14 38 -11 20 -48 61 -83 90 l-63 54 61 -59z" transform="translate(0,86) scale(0.1,-0.1)" stroke="none" fill="#D07736"/>

<path d="M605 385 c0 -63 3 -107 7 -97 9 22 9 172 0 194 -4 10 -7 -34 -7 -97z" transform="translate(0,86) scale(0.1,-0.1)" stroke="none" fill="#D07736"/>

<path d="M32 811 c4 -11 158 -134 158 -126 0 2 -34 31 -76 64 l-75 60 38 4 38 4 -43 1 c-24 1 -42 -2 -40 -7z" transform="translate(0,86) scale(0.1,-0.1)" stroke="none" fill="#D07736"/>

<path d="M385 306 c3 -11 11 -65 17 -120 12 -105 20 -126 47 -125 12 0 11 2 -4 9 -18 7 -22 23 -33 114 -6 59 -16 115 -23 124 -9 15 -10 15 -4 -2z" transform="translate(0,86) scale(0.1,-0.1)" stroke="none" fill="#E4CDAD"/>

<path d="M591 252 c-1 -8 -20 -52 -43 -98 -45 -88 -52 -93 -105 -73 -22 8 -25 8 -16 -2 6 -6 28 -12 48 -13 36 -1 37 0 82 87 24 48 42 93 40 100 -4 9 -6 8 -6 -1z" transform="translate(0,86) scale(0.1,-0.1)" stroke="none" fill="#D07736"/>

<path d="M396 774 c106 -73 167 -148 203 -250 13 -37 19 -46 15 -24 -10 59 -57 141 -108 193 -53 53 -123 107 -139 107 -5 0 8 -12 29 -26z" transform="translate(0,86) scale(0.1,-0.1)" stroke="none" fill="#E4CDAD"/>

<path d="M296 680 c70 -75 106 -133 151 -245 18 -44 33 -74 33 -67 0 7 -14 47 -31 87 -46 111 -116 211 -189 270 -14 11 2 -9 36 -45z" transform="translate(0,86) scale(0.1,-0.1)" stroke="none" fill="#E4CDAD"/>

<path d="M507 490 c12 -36 10 -189 -2 -192 -5 -2 -15 13 -22 32 -7 19 -12 27 -12 17 -1 -25 26 -87 37 -87 17 0 22 29 22 118 -1 59 -6 95 -16 112 l-15 25 8 -25z" transform="translate(0,86) scale(0.1,-0.1)" stroke="none" fill="#D07736"/>

<path d="M160 790 c0 -5 24 -27 53 -48 65 -49 126 -114 161 -175 35 -58 46 -62 14 -5 -29 52 -129 161 -174 189 -68 42 -24 48 61 7 26 -12 35 -14 25 -4 -16 15 -100 46 -125 46 -8 0 -15 -4 -15 -10z" transform="translate(0,86) scale(0.1,-0.1)" stroke="none" fill="#D07736"/>

<path d="M236 630 c70 -83 173 -336 174 -427 0 -17 4 -34 8 -37 14 -8 -6 114 -27 169 -11 28 -27 70 -36 95 -25 68 -91 184 -117 206 l-23 19 21 -25z" transform="translate(0,86) scale(0.1,-0.1)" stroke="none" fill="#D07736"/>

<path d="M291 742 c73 -49 139 -121 175 -190 31 -62 38 -86 42 -153 3 -55 1 -79 -7 -79 -6 0 -11 8 -12 18 0 9 -3 12 -5 5 -3 -7 0 -22 6 -34 21 -38 32 -6 29 83 -4 73 -9 92 -43 160 -32 61 -55 90 -115 143 -41 36 -79 65 -85 65 -6 0 1 -8 15 -18z" transform="translate(0,86) scale(0.1,-0.1)" stroke="none" fill="#E4CDAD"/>

<path d="M71 831 c-25 -3 -46 -11 -48 -18 -2 -6 31 -38 74 -71 127 -98 177 -162 238 -309 13 -32 24 -51 25 -42 0 23 -93 202 -127 243 -15 19 -66 65 -113 101 -47 36 -86 70 -88 76 -2 5 16 9 40 10 24 0 52 4 63 9 l20 9 -20 -1 c-11 -1 -40 -4 -64 -7z" transform="translate(0,86) scale(0.1,-0.1)" stroke="none" fill="#E4CDAD"/>

<path d="M130 820 c-14 -4 -40 -8 -59 -9 -33 -1 -33 -1 51 -68 47 -38 98 -84 115 -103 43 -50 98 -153 134 -251 40 -109 48 -143 53 -231 4 -58 8 -74 23 -79 46 -19 57 -11 97 67 52 102 66 154 66 239 0 138 -58 259 -163 341 -94 73 -246 118 -317 94z m112 -38 c27 -10 81 -45 124 -82 65 -56 83 -78 120 -152 42 -84 44 -91 44 -175 0 -89 -9 -121 -29 -109 -6 4 -16 26 -22 49 -53 196 -137 332 -266 428 -79 59 -67 76 29 41z" transform="translate(0,86) scale(0.1,-0.1)" stroke="none" fill="#765339"/>

</g>

<g id="2" transform="translate(132.0,0)scale(1,1)">

<path d="M138 832 c-9 -4 15 -7 55 -8 48 0 62 2 42 7 -39 9 -76 9 -97 1z" transform="translate(0,86) scale(0.1,-0.1)" stroke="none" fill="#D07736"/>

<path d="M535 633 c34 -53 45 -67 45 -60 0 10 -51 87 -57 87 -3 0 3 -12 12 -27z" transform="translate(0,86) scale(0.1,-0.1)" stroke="none" fill="#D07736"/>

<path d="M601 258 c-7 -24 -14 -50 -17 -58 -3 -8 1 -4 9 10 15 26 32 90 24 90 -3 0 -10 -19 -16 -42z" transform="translate(0,86) scale(0.1,-0.1)" stroke="none" fill="#E4CDAD"/>

<path d="M540 120 c-17 -33 -28 -60 -25 -60 2 0 18 27 35 60 17 33 28 60 25 60 -2 0 -18 -27 -35 -60z" transform="translate(0,86) scale(0.1,-0.1)" stroke="none" fill="#E4CDAD"/>

<path d="M358 785 c18 -8 54 -31 80 -52 26 -21 38 -27 28 -15 -26 30 -106 82 -125 82 -9 -1 -1 -7 17 -15z" transform="translate(0,86) scale(0.1,-0.1)" stroke="none" fill="#D07736"/>

<path d="M376 683 c34 -32 69 -73 78 -90 9 -18 19 -33 21 -33 3 0 -3 17 -14 38 -11 20 -48 61 -83 90 l-63 54 61 -59z" transform="translate(0,86) scale(0.1,-0.1)" stroke="none" fill="#D07736"/>

<path d="M605 385 c0 -63 3 -107 7 -97 9 22 9 172 0 194 -4 10 -7 -34 -7 -97z" transform="translate(0,86) scale(0.1,-0.1)" stroke="none" fill="#D07736"/>

<path d="M32 811 c4 -11 158 -134 158 -126 0 2 -34 31 -76 64 l-75 60 38 4 38 4 -43 1 c-24 1 -42 -2 -40 -7z" transform="translate(0,86) scale(0.1,-0.1)" stroke="none" fill="#D07736"/>

<path d="M385 306 c3 -11 11 -65 17 -120 12 -105 20 -126 47 -125 12 0 11 2 -4 9 -18 7 -22 23 -33 114 -6 59 -16 115 -23 124 -9 15 -10 15 -4 -2z" transform="translate(0,86) scale(0.1,-0.1)" stroke="none" fill="#E4CDAD"/>

<path d="M591 252 c-1 -8 -20 -52 -43 -98 -45 -88 -52 -93 -105 -73 -22 8 -25 8 -16 -2 6 -6 28 -12 48 -13 36 -1 37 0 82 87 24 48 42 93 40 100 -4 9 -6 8 -6 -1z" transform="translate(0,86) scale(0.1,-0.1)" stroke="none" fill="#D07736"/>

<path d="M396 774 c106 -73 167 -148 203 -250 13 -37 19 -46 15 -24 -10 59 -57 141 -108 193 -53 53 -123 107 -139 107 -5 0 8 -12 29 -26z" transform="translate(0,86) scale(0.1,-0.1)" stroke="none" fill="#E4CDAD"/>

<path d="M296 680 c70 -75 106 -133 151 -245 18 -44 33 -74 33 -67 0 7 -14 47 -31 87 -46 111 -116 211 -189 270 -14 11 2 -9 36 -45z" transform="translate(0,86) scale(0.1,-0.1)" stroke="none" fill="#E4CDAD"/>

<path d="M507 490 c12 -36 10 -189 -2 -192 -5 -2 -15 13 -22 32 -7 19 -12 27 -12 17 -1 -25 26 -87 37 -87 17 0 22 29 22 118 -1 59 -6 95 -16 112 l-15 25 8 -25z" transform="translate(0,86) scale(0.1,-0.1)" stroke="none" fill="#D07736"/>

<path d="M160 790 c0 -5 24 -27 53 -48 65 -49 126 -114 161 -175 35 -58 46 -62 14 -5 -29 52 -129 161 -174 189 -68 42 -24 48 61 7 26 -12 35 -14 25 -4 -16 15 -100 46 -125 46 -8 0 -15 -4 -15 -10z" transform="translate(0,86) scale(0.1,-0.1)" stroke="none" fill="#D07736"/>

<path d="M236 630 c70 -83 173 -336 174 -427 0 -17 4 -34 8 -37 14 -8 -6 114 -27 169 -11 28 -27 70 -36 95 -25 68 -91 184 -117 206 l-23 19 21 -25z" transform="translate(0,86) scale(0.1,-0.1)" stroke="none" fill="#D07736"/>

<path d="M291 742 c73 -49 139 -121 175 -190 31 -62 38 -86 42 -153 3 -55 1 -79 -7 -79 -6 0 -11 8 -12 18 0 9 -3 12 -5 5 -3 -7 0 -22 6 -34 21 -38 32 -6 29 83 -4 73 -9 92 -43 160 -32 61 -55 90 -115 143 -41 36 -79 65 -85 65 -6 0 1 -8 15 -18z" transform="translate(0,86) scale(0.1,-0.1)" stroke="none" fill="#E4CDAD"/>

<path d="M71 831 c-25 -3 -46 -11 -48 -18 -2 -6 31 -38 74 -71 127 -98 177 -162 238 -309 13 -32 24 -51 25 -42 0 23 -93 202 -127 243 -15 19 -66 65 -113 101 -47 36 -86 70 -88 76 -2 5 16 9 40 10 24 0 52 4 63 9 l20 9 -20 -1 c-11 -1 -40 -4 -64 -7z" transform="translate(0,86) scale(0.1,-0.1)" stroke="none" fill="#E4CDAD"/>

<path d="M130 820 c-14 -4 -40 -8 -59 -9 -33 -1 -33 -1 51 -68 47 -38 98 -84 115 -103 43 -50 98 -153 134 -251 40 -109 48 -143 53 -231 4 -58 8 -74 23 -79 46 -19 57 -11 97 67 52 102 66 154 66 239 0 138 -58 259 -163 341 -94 73 -246 118 -317 94z m112 -38 c27 -10 81 -45 124 -82 65 -56 83 -78 120 -152 42 -84 44 -91 44 -175 0 -89 -9 -121 -29 -109 -6 4 -16 26 -22 49 -53 196 -137 332 -266 428 -79 59 -67 76 29 41z" transform="translate(0,86) scale(0.1,-0.1)" stroke="none" fill="#765339"/>

</g>

<g id="3" transform="translate(198.0,0)scale(1,1)">

<path d="M138 832 c-9 -4 15 -7 55 -8 48 0 62 2 42 7 -39 9 -76 9 -97 1z" transform="translate(0,86) scale(0.1,-0.1)" stroke="none" fill="#D07736"/>

<path d="M535 633 c34 -53 45 -67 45 -60 0 10 -51 87 -57 87 -3 0 3 -12 12 -27z" transform="translate(0,86) scale(0.1,-0.1)" stroke="none" fill="#D07736"/>

<path d="M601 258 c-7 -24 -14 -50 -17 -58 -3 -8 1 -4 9 10 15 26 32 90 24 90 -3 0 -10 -19 -16 -42z" transform="translate(0,86) scale(0.1,-0.1)" stroke="none" fill="#E4CDAD"/>

<path d="M540 120 c-17 -33 -28 -60 -25 -60 2 0 18 27 35 60 17 33 28 60 25 60 -2 0 -18 -27 -35 -60z" transform="translate(0,86) scale(0.1,-0.1)" stroke="none" fill="#E4CDAD"/>

<path d="M358 785 c18 -8 54 -31 80 -52 26 -21 38 -27 28 -15 -26 30 -106 82 -125 82 -9 -1 -1 -7 17 -15z" transform="translate(0,86) scale(0.1,-0.1)" stroke="none" fill="#D07736"/>

<path d="M376 683 c34 -32 69 -73 78 -90 9 -18 19 -33 21 -33 3 0 -3 17 -14 38 -11 20 -48 61 -83 90 l-63 54 61 -59z" transform="translate(0,86) scale(0.1,-0.1)" stroke="none" fill="#D07736"/>

<path d="M605 385 c0 -63 3 -107 7 -97 9 22 9 172 0 194 -4 10 -7 -34 -7 -97z" transform="translate(0,86) scale(0.1,-0.1)" stroke="none" fill="#D07736"/>

<path d="M32 811 c4 -11 158 -134 158 -126 0 2 -34 31 -76 64 l-75 60 38 4 38 4 -43 1 c-24 1 -42 -2 -40 -7z" transform="translate(0,86) scale(0.1,-0.1)" stroke="none" fill="#D07736"/>

<path d="M385 306 c3 -11 11 -65 17 -120 12 -105 20 -126 47 -125 12 0 11 2 -4 9 -18 7 -22 23 -33 114 -6 59 -16 115 -23 124 -9 15 -10 15 -4 -2z" transform="translate(0,86) scale(0.1,-0.1)" stroke="none" fill="#E4CDAD"/>

<path d="M591 252 c-1 -8 -20 -52 -43 -98 -45 -88 -52 -93 -105 -73 -22 8 -25 8 -16 -2 6 -6 28 -12 48 -13 36 -1 37 0 82 87 24 48 42 93 40 100 -4 9 -6 8 -6 -1z" transform="translate(0,86) scale(0.1,-0.1)" stroke="none" fill="#D07736"/>

<path d="M396 774 c106 -73 167 -148 203 -250 13 -37 19 -46 15 -24 -10 59 -57 141 -108 193 -53 53 -123 107 -139 107 -5 0 8 -12 29 -26z" transform="translate(0,86) scale(0.1,-0.1)" stroke="none" fill="#E4CDAD"/>

<path d="M296 680 c70 -75 106 -133 151 -245 18 -44 33 -74 33 -67 0 7 -14 47 -31 87 -46 111 -116 211 -189 270 -14 11 2 -9 36 -45z" transform="translate(0,86) scale(0.1,-0.1)" stroke="none" fill="#E4CDAD"/>

<path d="M507 490 c12 -36 10 -189 -2 -192 -5 -2 -15 13 -22 32 -7 19 -12 27 -12 17 -1 -25 26 -87 37 -87 17 0 22 29 22 118 -1 59 -6 95 -16 112 l-15 25 8 -25z" transform="translate(0,86) scale(0.1,-0.1)" stroke="none" fill="#D07736"/>

<path d="M160 790 c0 -5 24 -27 53 -48 65 -49 126 -114 161 -175 35 -58 46 -62 14 -5 -29 52 -129 161 -174 189 -68 42 -24 48 61 7 26 -12 35 -14 25 -4 -16 15 -100 46 -125 46 -8 0 -15 -4 -15 -10z" transform="translate(0,86) scale(0.1,-0.1)" stroke="none" fill="#D07736"/>

<path d="M236 630 c70 -83 173 -336 174 -427 0 -17 4 -34 8 -37 14 -8 -6 114 -27 169 -11 28 -27 70 -36 95 -25 68 -91 184 -117 206 l-23 19 21 -25z" transform="translate(0,86) scale(0.1,-0.1)" stroke="none" fill="#D07736"/>

<path d="M291 742 c73 -49 139 -121 175 -190 31 -62 38 -86 42 -153 3 -55 1 -79 -7 -79 -6 0 -11 8 -12 18 0 9 -3 12 -5 5 -3 -7 0 -22 6 -34 21 -38 32 -6 29 83 -4 73 -9 92 -43 160 -32 61 -55 90 -115 143 -41 36 -79 65 -85 65 -6 0 1 -8 15 -18z" transform="translate(0,86) scale(0.1,-0.1)" stroke="none" fill="#E4CDAD"/>

<path d="M71 831 c-25 -3 -46 -11 -48 -18 -2 -6 31 -38 74 -71 127 -98 177 -162 238 -309 13 -32 24 -51 25 -42 0 23 -93 202 -127 243 -15 19 -66 65 -113 101 -47 36 -86 70 -88 76 -2 5 16 9 40 10 24 0 52 4 63 9 l20 9 -20 -1 c-11 -1 -40 -4 -64 -7z" transform="translate(0,86) scale(0.1,-0.1)" stroke="none" fill="#E4CDAD"/>

<path d="M130 820 c-14 -4 -40 -8 -59 -9 -33 -1 -33 -1 51 -68 47 -38 98 -84 115 -103 43 -50 98 -153 134 -251 40 -109 48 -143 53 -231 4 -58 8 -74 23 -79 46 -19 57 -11 97 67 52 102 66 154 66 239 0 138 -58 259 -163 341 -94 73 -246 118 -317 94z m112 -38 c27 -10 81 -45 124 -82 65 -56 83 -78 120 -152 42 -84 44 -91 44 -175 0 -89 -9 -121 -29 -109 -6 4 -16 26 -22 49 -53 196 -137 332 -266 428 -79 59 -67 76 29 41z" transform="translate(0,86) scale(0.1,-0.1)" stroke="none" fill="#765339"/>

</g>

<g id="4" transform="translate(264.0,0)scale(1,1)">

<path d="M138 832 c-9 -4 15 -7 55 -8 48 0 62 2 42 7 -39 9 -76 9 -97 1z" transform="translate(0,86) scale(0.1,-0.1)" stroke="none" fill="#D07736"/>

<path d="M535 633 c34 -53 45 -67 45 -60 0 10 -51 87 -57 87 -3 0 3 -12 12 -27z" transform="translate(0,86) scale(0.1,-0.1)" stroke="none" fill="#D07736"/>

<path d="M601 258 c-7 -24 -14 -50 -17 -58 -3 -8 1 -4 9 10 15 26 32 90 24 90 -3 0 -10 -19 -16 -42z" transform="translate(0,86) scale(0.1,-0.1)" stroke="none" fill="#E4CDAD"/>

<path d="M540 120 c-17 -33 -28 -60 -25 -60 2 0 18 27 35 60 17 33 28 60 25 60 -2 0 -18 -27 -35 -60z" transform="translate(0,86) scale(0.1,-0.1)" stroke="none" fill="#E4CDAD"/>

<path d="M358 785 c18 -8 54 -31 80 -52 26 -21 38 -27 28 -15 -26 30 -106 82 -125 82 -9 -1 -1 -7 17 -15z" transform="translate(0,86) scale(0.1,-0.1)" stroke="none" fill="#D07736"/>

<path d="M376 683 c34 -32 69 -73 78 -90 9 -18 19 -33 21 -33 3 0 -3 17 -14 38 -11 20 -48 61 -83 90 l-63 54 61 -59z" transform="translate(0,86) scale(0.1,-0.1)" stroke="none" fill="#D07736"/>

<path d="M605 385 c0 -63 3 -107 7 -97 9 22 9 172 0 194 -4 10 -7 -34 -7 -97z" transform="translate(0,86) scale(0.1,-0.1)" stroke="none" fill="#D07736"/>

<path d="M32 811 c4 -11 158 -134 158 -126 0 2 -34 31 -76 64 l-75 60 38 4 38 4 -43 1 c-24 1 -42 -2 -40 -7z" transform="translate(0,86) scale(0.1,-0.1)" stroke="none" fill="#D07736"/>

<path d="M385 306 c3 -11 11 -65 17 -120 12 -105 20 -126 47 -125 12 0 11 2 -4 9 -18 7 -22 23 -33 114 -6 59 -16 115 -23 124 -9 15 -10 15 -4 -2z" transform="translate(0,86) scale(0.1,-0.1)" stroke="none" fill="#E4CDAD"/>

<path d="M591 252 c-1 -8 -20 -52 -43 -98 -45 -88 -52 -93 -105 -73 -22 8 -25 8 -16 -2 6 -6 28 -12 48 -13 36 -1 37 0 82 87 24 48 42 93 40 100 -4 9 -6 8 -6 -1z" transform="translate(0,86) scale(0.1,-0.1)" stroke="none" fill="#D07736"/>

<path d="M396 774 c106 -73 167 -148 203 -250 13 -37 19 -46 15 -24 -10 59 -57 141 -108 193 -53 53 -123 107 -139 107 -5 0 8 -12 29 -26z" transform="translate(0,86) scale(0.1,-0.1)" stroke="none" fill="#E4CDAD"/>

<path d="M296 680 c70 -75 106 -133 151 -245 18 -44 33 -74 33 -67 0 7 -14 47 -31 87 -46 111 -116 211 -189 270 -14 11 2 -9 36 -45z" transform="translate(0,86) scale(0.1,-0.1)" stroke="none" fill="#E4CDAD"/>

<path d="M507 490 c12 -36 10 -189 -2 -192 -5 -2 -15 13 -22 32 -7 19 -12 27 -12 17 -1 -25 26 -87 37 -87 17 0 22 29 22 118 -1 59 -6 95 -16 112 l-15 25 8 -25z" transform="translate(0,86) scale(0.1,-0.1)" stroke="none" fill="#D07736"/>

<path d="M160 790 c0 -5 24 -27 53 -48 65 -49 126 -114 161 -175 35 -58 46 -62 14 -5 -29 52 -129 161 -174 189 -68 42 -24 48 61 7 26 -12 35 -14 25 -4 -16 15 -100 46 -125 46 -8 0 -15 -4 -15 -10z" transform="translate(0,86) scale(0.1,-0.1)" stroke="none" fill="#D07736"/>

<path d="M236 630 c70 -83 173 -336 174 -427 0 -17 4 -34 8 -37 14 -8 -6 114 -27 169 -11 28 -27 70 -36 95 -25 68 -91 184 -117 206 l-23 19 21 -25z" transform="translate(0,86) scale(0.1,-0.1)" stroke="none" fill="#D07736"/>

<path d="M291 742 c73 -49 139 -121 175 -190 31 -62 38 -86 42 -153 3 -55 1 -79 -7 -79 -6 0 -11 8 -12 18 0 9 -3 12 -5 5 -3 -7 0 -22 6 -34 21 -38 32 -6 29 83 -4 73 -9 92 -43 160 -32 61 -55 90 -115 143 -41 36 -79 65 -85 65 -6 0 1 -8 15 -18z" transform="translate(0,86) scale(0.1,-0.1)" stroke="none" fill="#E4CDAD"/>

<path d="M71 831 c-25 -3 -46 -11 -48 -18 -2 -6 31 -38 74 -71 127 -98 177 -162 238 -309 13 -32 24 -51 25 -42 0 23 -93 202 -127 243 -15 19 -66 65 -113 101 -47 36 -86 70 -88 76 -2 5 16 9 40 10 24 0 52 4 63 9 l20 9 -20 -1 c-11 -1 -40 -4 -64 -7z" transform="translate(0,86) scale(0.1,-0.1)" stroke="none" fill="#E4CDAD"/>

<path d="M130 820 c-14 -4 -40 -8 -59 -9 -33 -1 -33 -1 51 -68 47 -38 98 -84 115 -103 43 -50 98 -153 134 -251 40 -109 48 -143 53 -231 4 -58 8 -74 23 -79 46 -19 57 -11 97 67 52 102 66 154 66 239 0 138 -58 259 -163 341 -94 73 -246 118 -317 94z m112 -38 c27 -10 81 -45 124 -82 65 -56 83 -78 120 -152 42 -84 44 -91 44 -175 0 -89 -9 -121 -29 -109 -6 4 -16 26 -22 49 -53 196 -137 332 -266 428 -79 59 -67 76 29 41z" transform="translate(0,86) scale(0.1,-0.1)" stroke="none" fill="#765339"/>

</g>

</g>
<g id="row3" transform="translate(8,258.0)">
<g id="0" transform="translate(0.0,0)scale(1,1)">

<path d="M138 832 c-9 -4 15 -7 55 -8 48 0 62 2 42 7 -39 9 -76 9 -97 1z" transform="translate(0,86) scale(0.1,-0.1)" stroke="none" fill="#D07736"/>

<path d="M535 633 c34 -53 45 -67 45 -60 0 10 -51 87 -57 87 -3 0 3 -12 12 -27z" transform="translate(0,86) scale(0.1,-0.1)" stroke="none" fill="#D07736"/>

<path d="M601 258 c-7 -24 -14 -50 -17 -58 -3 -8 1 -4 9 10 15 26 32 90 24 90 -3 0 -10 -19 -16 -42z" transform="translate(0,86) scale(0.1,-0.1)" stroke="none" fill="#E4CDAD"/>

<path d="M540 120 c-17 -33 -28 -60 -25 -60 2 0 18 27 35 60 17 33 28 60 25 60 -2 0 -18 -27 -35 -60z" transform="translate(0,86) scale(0.1,-0.1)" stroke="none" fill="#E4CDAD"/>

<path d="M358 785 c18 -8 54 -31 80 -52 26 -21 38 -27 28 -15 -26 30 -106 82 -125 82 -9 -1 -1 -7 17 -15z" transform="translate(0,86) scale(0.1,-0.1)" stroke="none" fill="#D07736"/>

<path d="M376 683 c34 -32 69 -73 78 -90 9 -18 19 -33 21 -33 3 0 -3 17 -14 38 -11 20 -48 61 -83 90 l-63 54 61 -59z" transform="translate(0,86) scale(0.1,-0.1)" stroke="none" fill="#D07736"/>

<path d="M605 385 c0 -63 3 -107 7 -97 9 22 9 172 0 194 -4 10 -7 -34 -7 -97z" transform="translate(0,86) scale(0.1,-0.1)" stroke="none" fill="#D07736"/>

<path d="M32 811 c4 -11 158 -134 158 -126 0 2 -34 31 -76 64 l-75 60 38 4 38 4 -43 1 c-24 1 -42 -2 -40 -7z" transform="translate(0,86) scale(0.1,-0.1)" stroke="none" fill="#D07736"/>

<path d="M385 306 c3 -11 11 -65 17 -120 12 -105 20 -126 47 -125 12 0 11 2 -4 9 -18 7 -22 23 -33 114 -6 59 -16 115 -23 124 -9 15 -10 15 -4 -2z" transform="translate(0,86) scale(0.1,-0.1)" stroke="none" fill="#E4CDAD"/>

<path d="M591 252 c-1 -8 -20 -52 -43 -98 -45 -88 -52 -93 -105 -73 -22 8 -25 8 -16 -2 6 -6 28 -12 48 -13 36 -1 37 0 82 87 24 48 42 93 40 100 -4 9 -6 8 -6 -1z" transform="translate(0,86) scale(0.1,-0.1)" stroke="none" fill="#D07736"/>

<path d="M396 774 c106 -73 167 -148 203 -250 13 -37 19 -46 15 -24 -10 59 -57 141 -108 193 -53 53 -123 107 -139 107 -5 0 8 -12 29 -26z" transform="translate(0,86) scale(0.1,-0.1)" stroke="none" fill="#E4CDAD"/>

<path d="M296 680 c70 -75 106 -133 151 -245 18 -44 33 -74 33 -67 0 7 -14 47 -31 87 -46 111 -116 211 -189 270 -14 11 2 -9 36 -45z" transform="translate(0,86) scale(0.1,-0.1)" stroke="none" fill="#E4CDAD"/>

<path d="M507 490 c12 -36 10 -189 -2 -192 -5 -2 -15 13 -22 32 -7 19 -12 27 -12 17 -1 -25 26 -87 37 -87 17 0 22 29 22 118 -1 59 -6 95 -16 112 l-15 25 8 -25z" transform="translate(0,86) scale(0.1,-0.1)" stroke="none" fill="#D07736"/>

<path d="M160 790 c0 -5 24 -27 53 -48 65 -49 126 -114 161 -175 35 -58 46 -62 14 -5 -29 52 -129 161 -174 189 -68 42 -24 48 61 7 26 -12 35 -14 25 -4 -16 15 -100 46 -125 46 -8 0 -15 -4 -15 -10z" transform="translate(0,86) scale(0.1,-0.1)" stroke="none" fill="#D07736"/>

<path d="M236 630 c70 -83 173 -336 174 -427 0 -17 4 -34 8 -37 14 -8 -6 114 -27 169 -11 28 -27 70 -36 95 -25 68 -91 184 -117 206 l-23 19 21 -25z" transform="translate(0,86) scale(0.1,-0.1)" stroke="none" fill="#D07736"/>

<path d="M291 742 c73 -49 139 -121 175 -190 31 -62 38 -86 42 -153 3 -55 1 -79 -7 -79 -6 0 -11 8 -12 18 0 9 -3 12 -5 5 -3 -7 0 -22 6 -34 21 -38 32 -6 29 83 -4 73 -9 92 -43 160 -32 61 -55 90 -115 143 -41 36 -79 65 -85 65 -6 0 1 -8 15 -18z" transform="translate(0,86) scale(0.1,-0.1)" stroke="none" fill="#E4CDAD"/>

<path d="M71 831 c-25 -3 -46 -11 -48 -18 -2 -6 31 -38 74 -71 127 -98 177 -162 238 -309 13 -32 24 -51 25 -42 0 23 -93 202 -127 243 -15 19 -66 65 -113 101 -47 36 -86 70 -88 76 -2 5 16 9 40 10 24 0 52 4 63 9 l20 9 -20 -1 c-11 -1 -40 -4 -64 -7z" transform="translate(0,86) scale(0.1,-0.1)" stroke="none" fill="#E4CDAD"/>

<path d="M130 820 c-14 -4 -40 -8 -59 -9 -33 -1 -33 -1 51 -68 47 -38 98 -84 115 -103 43 -50 98 -153 134 -251 40 -109 48 -143 53 -231 4 -58 8 -74 23 -79 46 -19 57 -11 97 67 52 102 66 154 66 239 0 138 -58 259 -163 341 -94 73 -246 118 -317 94z m112 -38 c27 -10 81 -45 124 -82 65 -56 83 -78 120 -152 42 -84 44 -91 44 -175 0 -89 -9 -121 -29 -109 -6 4 -16 26 -22 49 -53 196 -137 332 -266 428 -79 59 -67 76 29 41z" transform="translate(0,86) scale(0.1,-0.1)" stroke="none" fill="#765339"/>

</g>

<g id="1" transform="translate(66.0,0)scale(1,1)">

<path d="M138 832 c-9 -4 15 -7 55 -8 48 0 62 2 42 7 -39 9 -76 9 -97 1z" transform="translate(0,86) scale(0.1,-0.1)" stroke="none" fill="#D07736"/>

<path d="M535 633 c34 -53 45 -67 45 -60 0 10 -51 87 -57 87 -3 0 3 -12 12 -27z" transform="translate(0,86) scale(0.1,-0.1)" stroke="none" fill="#D07736"/>

<path d="M601 258 c-7 -24 -14 -50 -17 -58 -3 -8 1 -4 9 10 15 26 32 90 24 90 -3 0 -10 -19 -16 -42z" transform="translate(0,86) scale(0.1,-0.1)" stroke="none" fill="#E4CDAD"/>

<path d="M540 120 c-17 -33 -28 -60 -25 -60 2 0 18 27 35 60 17 33 28 60 25 60 -2 0 -18 -27 -35 -60z" transform="translate(0,86) scale(0.1,-0.1)" stroke="none" fill="#E4CDAD"/>

<path d="M358 785 c18 -8 54 -31 80 -52 26 -21 38 -27 28 -15 -26 30 -106 82 -125 82 -9 -1 -1 -7 17 -15z" transform="translate(0,86) scale(0.1,-0.1)" stroke="none" fill="#D07736"/>

<path d="M376 683 c34 -32 69 -73 78 -90 9 -18 19 -33 21 -33 3 0 -3 17 -14 38 -11 20 -48 61 -83 90 l-63 54 61 -59z" transform="translate(0,86) scale(0.1,-0.1)" stroke="none" fill="#D07736"/>

<path d="M605 385 c0 -63 3 -107 7 -97 9 22 9 172 0 194 -4 10 -7 -34 -7 -97z" transform="translate(0,86) scale(0.1,-0.1)" stroke="none" fill="#D07736"/>

<path d="M32 811 c4 -11 158 -134 158 -126 0 2 -34 31 -76 64 l-75 60 38 4 38 4 -43 1 c-24 1 -42 -2 -40 -7z" transform="translate(0,86) scale(0.1,-0.1)" stroke="none" fill="#D07736"/>

<path d="M385 306 c3 -11 11 -65 17 -120 12 -105 20 -126 47 -125 12 0 11 2 -4 9 -18 7 -22 23 -33 114 -6 59 -16 115 -23 124 -9 15 -10 15 -4 -2z" transform="translate(0,86) scale(0.1,-0.1)" stroke="none" fill="#E4CDAD"/>

<path d="M591 252 c-1 -8 -20 -52 -43 -98 -45 -88 -52 -93 -105 -73 -22 8 -25 8 -16 -2 6 -6 28 -12 48 -13 36 -1 37 0 82 87 24 48 42 93 40 100 -4 9 -6 8 -6 -1z" transform="translate(0,86) scale(0.1,-0.1)" stroke="none" fill="#D07736"/>

<path d="M396 774 c106 -73 167 -148 203 -250 13 -37 19 -46 15 -24 -10 59 -57 141 -108 193 -53 53 -123 107 -139 107 -5 0 8 -12 29 -26z" transform="translate(0,86) scale(0.1,-0.1)" stroke="none" fill="#E4CDAD"/>

<path d="M296 680 c70 -75 106 -133 151 -245 18 -44 33 -74 33 -67 0 7 -14 47 -31 87 -46 111 -116 211 -189 270 -14 11 2 -9 36 -45z" transform="translate(0,86) scale(0.1,-0.1)" stroke="none" fill="#E4CDAD"/>

<path d="M507 490 c12 -36 10 -189 -2 -192 -5 -2 -15 13 -22 32 -7 19 -12 27 -12 17 -1 -25 26 -87 37 -87 17 0 22 29 22 118 -1 59 -6 95 -16 112 l-15 25 8 -25z" transform="translate(0,86) scale(0.1,-0.1)" stroke="none" fill="#D07736"/>

<path d="M160 790 c0 -5 24 -27 53 -48 65 -49 126 -114 161 -175 35 -58 46 -62 14 -5 -29 52 -129 161 -174 189 -68 42 -24 48 61 7 26 -12 35 -14 25 -4 -16 15 -100 46 -125 46 -8 0 -15 -4 -15 -10z" transform="translate(0,86) scale(0.1,-0.1)" stroke="none" fill="#D07736"/>

<path d="M236 630 c70 -83 173 -336 174 -427 0 -17 4 -34 8 -37 14 -8 -6 114 -27 169 -11 28 -27 70 -36 95 -25 68 -91 184 -117 206 l-23 19 21 -25z" transform="translate(0,86) scale(0.1,-0.1)" stroke="none" fill="#D07736"/>

<path d="M291 742 c73 -49 139 -121 175 -190 31 -62 38 -86 42 -153 3 -55 1 -79 -7 -79 -6 0 -11 8 -12 18 0 9 -3 12 -5 5 -3 -7 0 -22 6 -34 21 -38 32 -6 29 83 -4 73 -9 92 -43 160 -32 61 -55 90 -115 143 -41 36 -79 65 -85 65 -6 0 1 -8 15 -18z" transform="translate(0,86) scale(0.1,-0.1)" stroke="none" fill="#E4CDAD"/>

<path d="M71 831 c-25 -3 -46 -11 -48 -18 -2 -6 31 -38 74 -71 127 -98 177 -162 238 -309 13 -32 24 -51 25 -42 0 23 -93 202 -127 243 -15 19 -66 65 -113 101 -47 36 -86 70 -88 76 -2 5 16 9 40 10 24 0 52 4 63 9 l20 9 -20 -1 c-11 -1 -40 -4 -64 -7z" transform="translate(0,86) scale(0.1,-0.1)" stroke="none" fill="#E4CDAD"/>

<path d="M130 820 c-14 -4 -40 -8 -59 -9 -33 -1 -33 -1 51 -68 47 -38 98 -84 115 -103 43 -50 98 -153 134 -251 40 -109 48 -143 53 -231 4 -58 8 -74 23 -79 46 -19 57 -11 97 67 52 102 66 154 66 239 0 138 -58 259 -163 341 -94 73 -246 118 -317 94z m112 -38 c27 -10 81 -45 124 -82 65 -56 83 -78 120 -152 42 -84 44 -91 44 -175 0 -89 -9 -121 -29 -109 -6 4 -16 26 -22 49 -53 196 -137 332 -266 428 -79 59 -67 76 29 41z" transform="translate(0,86) scale(0.1,-0.1)" stroke="none" fill="#765339"/>

</g>

<g id="2" transform="translate(132.0,0)scale(1,1)">

<path d="M138 832 c-9 -4 15 -7 55 -8 48 0 62 2 42 7 -39 9 -76 9 -97 1z" transform="translate(0,86) scale(0.1,-0.1)" stroke="none" fill="#D07736"/>

<path d="M535 633 c34 -53 45 -67 45 -60 0 10 -51 87 -57 87 -3 0 3 -12 12 -27z" transform="translate(0,86) scale(0.1,-0.1)" stroke="none" fill="#D07736"/>

<path d="M601 258 c-7 -24 -14 -50 -17 -58 -3 -8 1 -4 9 10 15 26 32 90 24 90 -3 0 -10 -19 -16 -42z" transform="translate(0,86) scale(0.1,-0.1)" stroke="none" fill="#E4CDAD"/>

<path d="M540 120 c-17 -33 -28 -60 -25 -60 2 0 18 27 35 60 17 33 28 60 25 60 -2 0 -18 -27 -35 -60z" transform="translate(0,86) scale(0.1,-0.1)" stroke="none" fill="#E4CDAD"/>

<path d="M358 785 c18 -8 54 -31 80 -52 26 -21 38 -27 28 -15 -26 30 -106 82 -125 82 -9 -1 -1 -7 17 -15z" transform="translate(0,86) scale(0.1,-0.1)" stroke="none" fill="#D07736"/>

<path d="M376 683 c34 -32 69 -73 78 -90 9 -18 19 -33 21 -33 3 0 -3 17 -14 38 -11 20 -48 61 -83 90 l-63 54 61 -59z" transform="translate(0,86) scale(0.1,-0.1)" stroke="none" fill="#D07736"/>

<path d="M605 385 c0 -63 3 -107 7 -97 9 22 9 172 0 194 -4 10 -7 -34 -7 -97z" transform="translate(0,86) scale(0.1,-0.1)" stroke="none" fill="#D07736"/>

<path d="M32 811 c4 -11 158 -134 158 -126 0 2 -34 31 -76 64 l-75 60 38 4 38 4 -43 1 c-24 1 -42 -2 -40 -7z" transform="translate(0,86) scale(0.1,-0.1)" stroke="none" fill="#D07736"/>

<path d="M385 306 c3 -11 11 -65 17 -120 12 -105 20 -126 47 -125 12 0 11 2 -4 9 -18 7 -22 23 -33 114 -6 59 -16 115 -23 124 -9 15 -10 15 -4 -2z" transform="translate(0,86) scale(0.1,-0.1)" stroke="none" fill="#E4CDAD"/>

<path d="M591 252 c-1 -8 -20 -52 -43 -98 -45 -88 -52 -93 -105 -73 -22 8 -25 8 -16 -2 6 -6 28 -12 48 -13 36 -1 37 0 82 87 24 48 42 93 40 100 -4 9 -6 8 -6 -1z" transform="translate(0,86) scale(0.1,-0.1)" stroke="none" fill="#D07736"/>

<path d="M396 774 c106 -73 167 -148 203 -250 13 -37 19 -46 15 -24 -10 59 -57 141 -108 193 -53 53 -123 107 -139 107 -5 0 8 -12 29 -26z" transform="translate(0,86) scale(0.1,-0.1)" stroke="none" fill="#E4CDAD"/>

<path d="M296 680 c70 -75 106 -133 151 -245 18 -44 33 -74 33 -67 0 7 -14 47 -31 87 -46 111 -116 211 -189 270 -14 11 2 -9 36 -45z" transform="translate(0,86) scale(0.1,-0.1)" stroke="none" fill="#E4CDAD"/>

<path d="M507 490 c12 -36 10 -189 -2 -192 -5 -2 -15 13 -22 32 -7 19 -12 27 -12 17 -1 -25 26 -87 37 -87 17 0 22 29 22 118 -1 59 -6 95 -16 112 l-15 25 8 -25z" transform="translate(0,86) scale(0.1,-0.1)" stroke="none" fill="#D07736"/>

<path d="M160 790 c0 -5 24 -27 53 -48 65 -49 126 -114 161 -175 35 -58 46 -62 14 -5 -29 52 -129 161 -174 189 -68 42 -24 48 61 7 26 -12 35 -14 25 -4 -16 15 -100 46 -125 46 -8 0 -15 -4 -15 -10z" transform="translate(0,86) scale(0.1,-0.1)" stroke="none" fill="#D07736"/>

<path d="M236 630 c70 -83 173 -336 174 -427 0 -17 4 -34 8 -37 14 -8 -6 114 -27 169 -11 28 -27 70 -36 95 -25 68 -91 184 -117 206 l-23 19 21 -25z" transform="translate(0,86) scale(0.1,-0.1)" stroke="none" fill="#D07736"/>

<path d="M291 742 c73 -49 139 -121 175 -190 31 -62 38 -86 42 -153 3 -55 1 -79 -7 -79 -6 0 -11 8 -12 18 0 9 -3 12 -5 5 -3 -7 0 -22 6 -34 21 -38 32 -6 29 83 -4 73 -9 92 -43 160 -32 61 -55 90 -115 143 -41 36 -79 65 -85 65 -6 0 1 -8 15 -18z" transform="translate(0,86) scale(0.1,-0.1)" stroke="none" fill="#E4CDAD"/>

<path d="M71 831 c-25 -3 -46 -11 -48 -18 -2 -6 31 -38 74 -71 127 -98 177 -162 238 -309 13 -32 24 -51 25 -42 0 23 -93 202 -127 243 -15 19 -66 65 -113 101 -47 36 -86 70 -88 76 -2 5 16 9 40 10 24 0 52 4 63 9 l20 9 -20 -1 c-11 -1 -40 -4 -64 -7z" transform="translate(0,86) scale(0.1,-0.1)" stroke="none" fill="#E4CDAD"/>

<path d="M130 820 c-14 -4 -40 -8 -59 -9 -33 -1 -33 -1 51 -68 47 -38 98 -84 115 -103 43 -50 98 -153 134 -251 40 -109 48 -143 53 -231 4 -58 8 -74 23 -79 46 -19 57 -11 97 67 52 102 66 154 66 239 0 138 -58 259 -163 341 -94 73 -246 118 -317 94z m112 -38 c27 -10 81 -45 124 -82 65 -56 83 -78 120 -152 42 -84 44 -91 44 -175 0 -89 -9 -121 -29 -109 -6 4 -16 26 -22 49 -53 196 -137 332 -266 428 -79 59 -67 76 29 41z" transform="translate(0,86) scale(0.1,-0.1)" stroke="none" fill="#765339"/>

</g>

<g id="3" transform="translate(198.0,0)scale(1,1)">

<path d="M138 832 c-9 -4 15 -7 55 -8 48 0 62 2 42 7 -39 9 -76 9 -97 1z" transform="translate(0,86) scale(0.1,-0.1)" stroke="none" fill="#D07736"/>

<path d="M535 633 c34 -53 45 -67 45 -60 0 10 -51 87 -57 87 -3 0 3 -12 12 -27z" transform="translate(0,86) scale(0.1,-0.1)" stroke="none" fill="#D07736"/>

<path d="M601 258 c-7 -24 -14 -50 -17 -58 -3 -8 1 -4 9 10 15 26 32 90 24 90 -3 0 -10 -19 -16 -42z" transform="translate(0,86) scale(0.1,-0.1)" stroke="none" fill="#E4CDAD"/>

<path d="M540 120 c-17 -33 -28 -60 -25 -60 2 0 18 27 35 60 17 33 28 60 25 60 -2 0 -18 -27 -35 -60z" transform="translate(0,86) scale(0.1,-0.1)" stroke="none" fill="#E4CDAD"/>

<path d="M358 785 c18 -8 54 -31 80 -52 26 -21 38 -27 28 -15 -26 30 -106 82 -125 82 -9 -1 -1 -7 17 -15z" transform="translate(0,86) scale(0.1,-0.1)" stroke="none" fill="#D07736"/>

<path d="M376 683 c34 -32 69 -73 78 -90 9 -18 19 -33 21 -33 3 0 -3 17 -14 38 -11 20 -48 61 -83 90 l-63 54 61 -59z" transform="translate(0,86) scale(0.1,-0.1)" stroke="none" fill="#D07736"/>

<path d="M605 385 c0 -63 3 -107 7 -97 9 22 9 172 0 194 -4 10 -7 -34 -7 -97z" transform="translate(0,86) scale(0.1,-0.1)" stroke="none" fill="#D07736"/>

<path d="M32 811 c4 -11 158 -134 158 -126 0 2 -34 31 -76 64 l-75 60 38 4 38 4 -43 1 c-24 1 -42 -2 -40 -7z" transform="translate(0,86) scale(0.1,-0.1)" stroke="none" fill="#D07736"/>

<path d="M385 306 c3 -11 11 -65 17 -120 12 -105 20 -126 47 -125 12 0 11 2 -4 9 -18 7 -22 23 -33 114 -6 59 -16 115 -23 124 -9 15 -10 15 -4 -2z" transform="translate(0,86) scale(0.1,-0.1)" stroke="none" fill="#E4CDAD"/>

<path d="M591 252 c-1 -8 -20 -52 -43 -98 -45 -88 -52 -93 -105 -73 -22 8 -25 8 -16 -2 6 -6 28 -12 48 -13 36 -1 37 0 82 87 24 48 42 93 40 100 -4 9 -6 8 -6 -1z" transform="translate(0,86) scale(0.1,-0.1)" stroke="none" fill="#D07736"/>

<path d="M396 774 c106 -73 167 -148 203 -250 13 -37 19 -46 15 -24 -10 59 -57 141 -108 193 -53 53 -123 107 -139 107 -5 0 8 -12 29 -26z" transform="translate(0,86) scale(0.1,-0.1)" stroke="none" fill="#E4CDAD"/>

<path d="M296 680 c70 -75 106 -133 151 -245 18 -44 33 -74 33 -67 0 7 -14 47 -31 87 -46 111 -116 211 -189 270 -14 11 2 -9 36 -45z" transform="translate(0,86) scale(0.1,-0.1)" stroke="none" fill="#E4CDAD"/>

<path d="M507 490 c12 -36 10 -189 -2 -192 -5 -2 -15 13 -22 32 -7 19 -12 27 -12 17 -1 -25 26 -87 37 -87 17 0 22 29 22 118 -1 59 -6 95 -16 112 l-15 25 8 -25z" transform="translate(0,86) scale(0.1,-0.1)" stroke="none" fill="#D07736"/>

<path d="M160 790 c0 -5 24 -27 53 -48 65 -49 126 -114 161 -175 35 -58 46 -62 14 -5 -29 52 -129 161 -174 189 -68 42 -24 48 61 7 26 -12 35 -14 25 -4 -16 15 -100 46 -125 46 -8 0 -15 -4 -15 -10z" transform="translate(0,86) scale(0.1,-0.1)" stroke="none" fill="#D07736"/>

<path d="M236 630 c70 -83 173 -336 174 -427 0 -17 4 -34 8 -37 14 -8 -6 114 -27 169 -11 28 -27 70 -36 95 -25 68 -91 184 -117 206 l-23 19 21 -25z" transform="translate(0,86) scale(0.1,-0.1)" stroke="none" fill="#D07736"/>

<path d="M291 742 c73 -49 139 -121 175 -190 31 -62 38 -86 42 -153 3 -55 1 -79 -7 -79 -6 0 -11 8 -12 18 0 9 -3 12 -5 5 -3 -7 0 -22 6 -34 21 -38 32 -6 29 83 -4 73 -9 92 -43 160 -32 61 -55 90 -115 143 -41 36 -79 65 -85 65 -6 0 1 -8 15 -18z" transform="translate(0,86) scale(0.1,-0.1)" stroke="none" fill="#E4CDAD"/>

<path d="M71 831 c-25 -3 -46 -11 -48 -18 -2 -6 31 -38 74 -71 127 -98 177 -162 238 -309 13 -32 24 -51 25 -42 0 23 -93 202 -127 243 -15 19 -66 65 -113 101 -47 36 -86 70 -88 76 -2 5 16 9 40 10 24 0 52 4 63 9 l20 9 -20 -1 c-11 -1 -40 -4 -64 -7z" transform="translate(0,86) scale(0.1,-0.1)" stroke="none" fill="#E4CDAD"/>

<path d="M130 820 c-14 -4 -40 -8 -59 -9 -33 -1 -33 -1 51 -68 47 -38 98 -84 115 -103 43 -50 98 -153 134 -251 40 -109 48 -143 53 -231 4 -58 8 -74 23 -79 46 -19 57 -11 97 67 52 102 66 154 66 239 0 138 -58 259 -163 341 -94 73 -246 118 -317 94z m112 -38 c27 -10 81 -45 124 -82 65 -56 83 -78 120 -152 42 -84 44 -91 44 -175 0 -89 -9 -121 -29 -109 -6 4 -16 26 -22 49 -53 196 -137 332 -266 428 -79 59 -67 76 29 41z" transform="translate(0,86) scale(0.1,-0.1)" stroke="none" fill="#765339"/>

</g>

<g id="4" transform="translate(264.0,0)scale(1,1)">

<path d="M138 832 c-9 -4 15 -7 55 -8 48 0 62 2 42 7 -39 9 -76 9 -97 1z" transform="translate(0,86) scale(0.1,-0.1)" stroke="none" fill="#D07736"/>

<path d="M535 633 c34 -53 45 -67 45 -60 0 10 -51 87 -57 87 -3 0 3 -12 12 -27z" transform="translate(0,86) scale(0.1,-0.1)" stroke="none" fill="#D07736"/>

<path d="M601 258 c-7 -24 -14 -50 -17 -58 -3 -8 1 -4 9 10 15 26 32 90 24 90 -3 0 -10 -19 -16 -42z" transform="translate(0,86) scale(0.1,-0.1)" stroke="none" fill="#E4CDAD"/>

<path d="M540 120 c-17 -33 -28 -60 -25 -60 2 0 18 27 35 60 17 33 28 60 25 60 -2 0 -18 -27 -35 -60z" transform="translate(0,86) scale(0.1,-0.1)" stroke="none" fill="#E4CDAD"/>

<path d="M358 785 c18 -8 54 -31 80 -52 26 -21 38 -27 28 -15 -26 30 -106 82 -125 82 -9 -1 -1 -7 17 -15z" transform="translate(0,86) scale(0.1,-0.1)" stroke="none" fill="#D07736"/>

<path d="M376 683 c34 -32 69 -73 78 -90 9 -18 19 -33 21 -33 3 0 -3 17 -14 38 -11 20 -48 61 -83 90 l-63 54 61 -59z" transform="translate(0,86) scale(0.1,-0.1)" stroke="none" fill="#D07736"/>

<path d="M605 385 c0 -63 3 -107 7 -97 9 22 9 172 0 194 -4 10 -7 -34 -7 -97z" transform="translate(0,86) scale(0.1,-0.1)" stroke="none" fill="#D07736"/>

<path d="M32 811 c4 -11 158 -134 158 -126 0 2 -34 31 -76 64 l-75 60 38 4 38 4 -43 1 c-24 1 -42 -2 -40 -7z" transform="translate(0,86) scale(0.1,-0.1)" stroke="none" fill="#D07736"/>

<path d="M385 306 c3 -11 11 -65 17 -120 12 -105 20 -126 47 -125 12 0 11 2 -4 9 -18 7 -22 23 -33 114 -6 59 -16 115 -23 124 -9 15 -10 15 -4 -2z" transform="translate(0,86) scale(0.1,-0.1)" stroke="none" fill="#E4CDAD"/>

<path d="M591 252 c-1 -8 -20 -52 -43 -98 -45 -88 -52 -93 -105 -73 -22 8 -25 8 -16 -2 6 -6 28 -12 48 -13 36 -1 37 0 82 87 24 48 42 93 40 100 -4 9 -6 8 -6 -1z" transform="translate(0,86) scale(0.1,-0.1)" stroke="none" fill="#D07736"/>

<path d="M396 774 c106 -73 167 -148 203 -250 13 -37 19 -46 15 -24 -10 59 -57 141 -108 193 -53 53 -123 107 -139 107 -5 0 8 -12 29 -26z" transform="translate(0,86) scale(0.1,-0.1)" stroke="none" fill="#E4CDAD"/>

<path d="M296 680 c70 -75 106 -133 151 -245 18 -44 33 -74 33 -67 0 7 -14 47 -31 87 -46 111 -116 211 -189 270 -14 11 2 -9 36 -45z" transform="translate(0,86) scale(0.1,-0.1)" stroke="none" fill="#E4CDAD"/>

<path d="M507 490 c12 -36 10 -189 -2 -192 -5 -2 -15 13 -22 32 -7 19 -12 27 -12 17 -1 -25 26 -87 37 -87 17 0 22 29 22 118 -1 59 -6 95 -16 112 l-15 25 8 -25z" transform="translate(0,86) scale(0.1,-0.1)" stroke="none" fill="#D07736"/>

<path d="M160 790 c0 -5 24 -27 53 -48 65 -49 126 -114 161 -175 35 -58 46 -62 14 -5 -29 52 -129 161 -174 189 -68 42 -24 48 61 7 26 -12 35 -14 25 -4 -16 15 -100 46 -125 46 -8 0 -15 -4 -15 -10z" transform="translate(0,86) scale(0.1,-0.1)" stroke="none" fill="#D07736"/>

<path d="M236 630 c70 -83 173 -336 174 -427 0 -17 4 -34 8 -37 14 -8 -6 114 -27 169 -11 28 -27 70 -36 95 -25 68 -91 184 -117 206 l-23 19 21 -25z" transform="translate(0,86) scale(0.1,-0.1)" stroke="none" fill="#D07736"/>

<path d="M291 742 c73 -49 139 -121 175 -190 31 -62 38 -86 42 -153 3 -55 1 -79 -7 -79 -6 0 -11 8 -12 18 0 9 -3 12 -5 5 -3 -7 0 -22 6 -34 21 -38 32 -6 29 83 -4 73 -9 92 -43 160 -32 61 -55 90 -115 143 -41 36 -79 65 -85 65 -6 0 1 -8 15 -18z" transform="translate(0,86) scale(0.1,-0.1)" stroke="none" fill="#E4CDAD"/>

<path d="M71 831 c-25 -3 -46 -11 -48 -18 -2 -6 31 -38 74 -71 127 -98 177 -162 238 -309 13 -32 24 -51 25 -42 0 23 -93 202 -127 243 -15 19 -66 65 -113 101 -47 36 -86 70 -88 76 -2 5 16 9 40 10 24 0 52 4 63 9 l20 9 -20 -1 c-11 -1 -40 -4 -64 -7z" transform="translate(0,86) scale(0.1,-0.1)" stroke="none" fill="#E4CDAD"/>

<path d="M130 820 c-14 -4 -40 -8 -59 -9 -33 -1 -33 -1 51 -68 47 -38 98 -84 115 -103 43 -50 98 -153 134 -251 40 -109 48 -143 53 -231 4 -58 8 -74 23 -79 46 -19 57 -11 97 67 52 102 66 154 66 239 0 138 -58 259 -163 341 -94 73 -246 118 -317 94z m112 -38 c27 -10 81 -45 124 -82 65 -56 83 -78 120 -152 42 -84 44 -91 44 -175 0 -89 -9 -121 -29 -109 -6 4 -16 26 -22 49 -53 196 -137 332 -266 428 -79 59 -67 76 29 41z" transform="translate(0,86) scale(0.1,-0.1)" stroke="none" fill="#765339"/>

</g>

</g>
</svg>