<?xml version="1.0" standalone="no"?>
<!DOCTYPE svg PUBLIC "-//W3C//DTD SVG 20010904//EN"
 "http://www.w3.org/TR/2001/REC-SVG-20010904/DTD/svg10.dtd">
<svg version="1.0" xmlns="http://www.w3.org/2000/svg" width="704pt" height="552pt" viewBox="0 0 704 552" preserveAspectRatio = "xMidYMid meet" >
<metadata>
Created by ZoeQu, written in 2022
</metadata>
<rect width="704" height="552" fill="#FA8D1C"/>
<g id="col0" transform="translate(0, 18)">
<g id="0" transform="translate(0,0.0)scale(0.8,0.8)">

<path d="M580 174 c0 -10 7 -27 14 -36 14 -19 46 -24 46 -8 0 6 9 10 20 10 11 0 20 -4 20 -10 0 -5 8 -10 18 -10 10 0 24 -9 32 -20 15 -21 70 -28 70 -10 0 6 15 10 34 10 19 0 38 5 42 12 5 8 2 9 -9 5 -11 -4 -21 0 -29 12 -11 18 -12 18 -39 -1 -37 -27 -74 -18 -87 22 -11 31 -21 37 -37 21 -24 -22 -54 -22 -74 0 -20 21 -21 22 -21 3z" transform="translate(0,138) scale(0.1,-0.1)" stroke="none" fill="#AAC8C7"/>

<path d="M1339 1277 c-27 -18 -35 -30 -37 -60 -2 -20 -7 -37 -13 -37 -5 0 -9 -17 -9 -37 -1 -86 -112 -171 -274 -209 -101 -24 -119 -13 -171 100 -22 47 -43 85 -46 86 -4 0 -10 -11 -13 -24 -7 -27 -40 -43 -59 -28 -7 5 -22 13 -34 16 -20 6 -23 4 -23 -17 0 -38 -32 -61 -75 -53 -32 6 -37 4 -42 -13 -3 -12 -12 -21 -20 -21 -16 0 -17 1 15 -90 11 -30 16 -59 12 -63 -4 -4 -22 1 -41 12 -87 50 -193 46 -292 -12 -87 -51 -132 -174 -108 -291 34 -163 116 -238 261 -240 67 -1 83 3 145 34 39 19 74 37 79 39 4 2 5 -29 2 -68 -6 -59 -4 -71 8 -71 8 0 18 -9 21 -21 6 -19 8 -19 31 -5 37 25 60 20 83 -19 18 -31 24 -34 40 -25 11 5 23 15 26 20 12 19 45 10 57 -15 6 -14 14 -25 17 -25 4 0 21 47 39 104 29 93 35 105 62 116 37 15 143 9 215 -14 95 -29 134 -65 208 -191 29 -48 74 -85 106 -85 63 0 154 98 170 184 17 91 -6 141 -120 265 -37 40 -75 88 -83 106 -31 64 -15 139 48 232 14 21 26 43 26 50 0 22 -20 14 -30 -12 -11 -29 -40 -34 -40 -6 0 16 -6 18 -38 14 -44 -6 -66 13 -67 55 0 24 -4 27 -39 28 -44 1 -57 16 -54 59 3 36 31 41 36 8 4 -26 42 -33 42 -8 0 23 18 18 36 -9 9 -15 21 -22 30 -19 8 3 14 0 14 -6 0 -6 -7 -11 -16 -11 -11 0 -14 -8 -12 -27 3 -27 4 -27 83 -28 l79 0 19 60 c26 84 17 149 -28 208 -62 81 -160 109 -226 64z m-902 -510 c4 -7 25 -23 45 -36 67 -40 100 -122 79 -197 -11 -37 -101 -144 -122 -144 -11 0 -22 41 -17 71 2 16 10 25 23 25 11 1 25 2 31 3 6 1 19 19 29 40 21 49 15 95 -20 135 -20 23 -29 27 -51 22 -31 -8 -44 5 -44 45 0 39 30 63 47 36z m-89 -69 c39 -39 -17 -100 -58 -63 -34 31 -20 75 25 75 12 0 26 -5 33 -12z m28 -204 c8 -30 -11 -54 -40 -54 -46 0 -62 48 -25 73 27 20 58 10 65 -19z m1149 16 c4 -6 8 -28 10 -50 3 -34 1 -40 -15 -40 -10 0 -20 -6 -23 -12 -2 -8 -8 -9 -13 -4 -5 5 -4 11 4 13 23 9 12 23 -18 23 -29 0 -30 -2 -28 -41 2 -46 -18 -69 -60 -69 -18 0 -23 -5 -20 -22 2 -17 -2 -23 -17 -23 -32 0 -33 59 -2 80 14 9 31 14 38 13 9 -2 14 9 15 36 1 45 23 66 66 66 21 0 28 5 28 20 0 21 24 28 35 10z" transform="translate(0,138) scale(0.1,-0.1)" stroke="none" fill="#AAC8C7"/>

</g>

<g id="1" transform="translate(0,138.0)scale(0.8,0.8)">

<path d="M580 174 c0 -10 7 -27 14 -36 14 -19 46 -24 46 -8 0 6 9 10 20 10 11 0 20 -4 20 -10 0 -5 8 -10 18 -10 10 0 24 -9 32 -20 15 -21 70 -28 70 -10 0 6 15 10 34 10 19 0 38 5 42 12 5 8 2 9 -9 5 -11 -4 -21 0 -29 12 -11 18 -12 18 -39 -1 -37 -27 -74 -18 -87 22 -11 31 -21 37 -37 21 -24 -22 -54 -22 -74 0 -20 21 -21 22 -21 3z" transform="translate(0,138) scale(0.1,-0.1)" stroke="none" fill="#AAC8C7"/>

<path d="M1339 1277 c-27 -18 -35 -30 -37 -60 -2 -20 -7 -37 -13 -37 -5 0 -9 -17 -9 -37 -1 -86 -112 -171 -274 -209 -101 -24 -119 -13 -171 100 -22 47 -43 85 -46 86 -4 0 -10 -11 -13 -24 -7 -27 -40 -43 -59 -28 -7 5 -22 13 -34 16 -20 6 -23 4 -23 -17 0 -38 -32 -61 -75 -53 -32 6 -37 4 -42 -13 -3 -12 -12 -21 -20 -21 -16 0 -17 1 15 -90 11 -30 16 -59 12 -63 -4 -4 -22 1 -41 12 -87 50 -193 46 -292 -12 -87 -51 -132 -174 -108 -291 34 -163 116 -238 261 -240 67 -1 83 3 145 34 39 19 74 37 79 39 4 2 5 -29 2 -68 -6 -59 -4 -71 8 -71 8 0 18 -9 21 -21 6 -19 8 -19 31 -5 37 25 60 20 83 -19 18 -31 24 -34 40 -25 11 5 23 15 26 20 12 19 45 10 57 -15 6 -14 14 -25 17 -25 4 0 21 47 39 104 29 93 35 105 62 116 37 15 143 9 215 -14 95 -29 134 -65 208 -191 29 -48 74 -85 106 -85 63 0 154 98 170 184 17 91 -6 141 -120 265 -37 40 -75 88 -83 106 -31 64 -15 139 48 232 14 21 26 43 26 50 0 22 -20 14 -30 -12 -11 -29 -40 -34 -40 -6 0 16 -6 18 -38 14 -44 -6 -66 13 -67 55 0 24 -4 27 -39 28 -44 1 -57 16 -54 59 3 36 31 41 36 8 4 -26 42 -33 42 -8 0 23 18 18 36 -9 9 -15 21 -22 30 -19 8 3 14 0 14 -6 0 -6 -7 -11 -16 -11 -11 0 -14 -8 -12 -27 3 -27 4 -27 83 -28 l79 0 19 60 c26 84 17 149 -28 208 -62 81 -160 109 -226 64z m-902 -510 c4 -7 25 -23 45 -36 67 -40 100 -122 79 -197 -11 -37 -101 -144 -122 -144 -11 0 -22 41 -17 71 2 16 10 25 23 25 11 1 25 2 31 3 6 1 19 19 29 40 21 49 15 95 -20 135 -20 23 -29 27 -51 22 -31 -8 -44 5 -44 45 0 39 30 63 47 36z m-89 -69 c39 -39 -17 -100 -58 -63 -34 31 -20 75 25 75 12 0 26 -5 33 -12z m28 -204 c8 -30 -11 -54 -40 -54 -46 0 -62 48 -25 73 27 20 58 10 65 -19z m1149 16 c4 -6 8 -28 10 -50 3 -34 1 -40 -15 -40 -10 0 -20 -6 -23 -12 -2 -8 -8 -9 -13 -4 -5 5 -4 11 4 13 23 9 12 23 -18 23 -29 0 -30 -2 -28 -41 2 -46 -18 -69 -60 -69 -18 0 -23 -5 -20 -22 2 -17 -2 -23 -17 -23 -32 0 -33 59 -2 80 14 9 31 14 38 13 9 -2 14 9 15 36 1 45 23 66 66 66 21 0 28 5 28 20 0 21 24 28 35 10z" transform="translate(0,138) scale(0.1,-0.1)" stroke="none" fill="#AAC8C7"/>

</g>

<g id="2" transform="translate(0,276.0)scale(0.8,0.8)">

<path d="M580 174 c0 -10 7 -27 14 -36 14 -19 46 -24 46 -8 0 6 9 10 20 10 11 0 20 -4 20 -10 0 -5 8 -10 18 -10 10 0 24 -9 32 -20 15 -21 70 -28 70 -10 0 6 15 10 34 10 19 0 38 5 42 12 5 8 2 9 -9 5 -11 -4 -21 0 -29 12 -11 18 -12 18 -39 -1 -37 -27 -74 -18 -87 22 -11 31 -21 37 -37 21 -24 -22 -54 -22 -74 0 -20 21 -21 22 -21 3z" transform="translate(0,138) scale(0.1,-0.1)" stroke="none" fill="#AAC8C7"/>

<path d="M1339 1277 c-27 -18 -35 -30 -37 -60 -2 -20 -7 -37 -13 -37 -5 0 -9 -17 -9 -37 -1 -86 -112 -171 -274 -209 -101 -24 -119 -13 -171 100 -22 47 -43 85 -46 86 -4 0 -10 -11 -13 -24 -7 -27 -40 -43 -59 -28 -7 5 -22 13 -34 16 -20 6 -23 4 -23 -17 0 -38 -32 -61 -75 -53 -32 6 -37 4 -42 -13 -3 -12 -12 -21 -20 -21 -16 0 -17 1 15 -90 11 -30 16 -59 12 -63 -4 -4 -22 1 -41 12 -87 50 -193 46 -292 -12 -87 -51 -132 -174 -108 -291 34 -163 116 -238 261 -240 67 -1 83 3 145 34 39 19 74 37 79 39 4 2 5 -29 2 -68 -6 -59 -4 -71 8 -71 8 0 18 -9 21 -21 6 -19 8 -19 31 -5 37 25 60 20 83 -19 18 -31 24 -34 40 -25 11 5 23 15 26 20 12 19 45 10 57 -15 6 -14 14 -25 17 -25 4 0 21 47 39 104 29 93 35 105 62 116 37 15 143 9 215 -14 95 -29 134 -65 208 -191 29 -48 74 -85 106 -85 63 0 154 98 170 184 17 91 -6 141 -120 265 -37 40 -75 88 -83 106 -31 64 -15 139 48 232 14 21 26 43 26 50 0 22 -20 14 -30 -12 -11 -29 -40 -34 -40 -6 0 16 -6 18 -38 14 -44 -6 -66 13 -67 55 0 24 -4 27 -39 28 -44 1 -57 16 -54 59 3 36 31 41 36 8 4 -26 42 -33 42 -8 0 23 18 18 36 -9 9 -15 21 -22 30 -19 8 3 14 0 14 -6 0 -6 -7 -11 -16 -11 -11 0 -14 -8 -12 -27 3 -27 4 -27 83 -28 l79 0 19 60 c26 84 17 149 -28 208 -62 81 -160 109 -226 64z m-902 -510 c4 -7 25 -23 45 -36 67 -40 100 -122 79 -197 -11 -37 -101 -144 -122 -144 -11 0 -22 41 -17 71 2 16 10 25 23 25 11 1 25 2 31 3 6 1 19 19 29 40 21 49 15 95 -20 135 -20 23 -29 27 -51 22 -31 -8 -44 5 -44 45 0 39 30 63 47 36z m-89 -69 c39 -39 -17 -100 -58 -63 -34 31 -20 75 25 75 12 0 26 -5 33 -12z m28 -204 c8 -30 -11 -54 -40 -54 -46 0 -62 48 -25 73 27 20 58 10 65 -19z m1149 16 c4 -6 8 -28 10 -50 3 -34 1 -40 -15 -40 -10 0 -20 -6 -23 -12 -2 -8 -8 -9 -13 -4 -5 5 -4 11 4 13 23 9 12 23 -18 23 -29 0 -30 -2 -28 -41 2 -46 -18 -69 -60 -69 -18 0 -23 -5 -20 -22 2 -17 -2 -23 -17 -23 -32 0 -33 59 -2 80 14 9 31 14 38 13 9 -2 14 9 15 36 1 45 23 66 66 66 21 0 28 5 28 20 0 21 24 28 35 10z" transform="translate(0,138) scale(0.1,-0.1)" stroke="none" fill="#AAC8C7"/>

</g>

<g id="3" transform="translate(0,414.0)scale(0.8,0.8)">

<path d="M580 174 c0 -10 7 -27 14 -36 14 -19 46 -24 46 -8 0 6 9 10 20 10 11 0 20 -4 20 -10 0 -5 8 -10 18 -10 10 0 24 -9 32 -20 15 -21 70 -28 70 -10 0 6 15 10 34 10 19 0 38 5 42 12 5 8 2 9 -9 5 -11 -4 -21 0 -29 12 -11 18 -12 18 -39 -1 -37 -27 -74 -18 -87 22 -11 31 -21 37 -37 21 -24 -22 -54 -22 -74 0 -20 21 -21 22 -21 3z" transform="translate(0,138) scale(0.1,-0.1)" stroke="none" fill="#AAC8C7"/>

<path d="M1339 1277 c-27 -18 -35 -30 -37 -60 -2 -20 -7 -37 -13 -37 -5 0 -9 -17 -9 -37 -1 -86 -112 -171 -274 -209 -101 -24 -119 -13 -171 100 -22 47 -43 85 -46 86 -4 0 -10 -11 -13 -24 -7 -27 -40 -43 -59 -28 -7 5 -22 13 -34 16 -20 6 -23 4 -23 -17 0 -38 -32 -61 -75 -53 -32 6 -37 4 -42 -13 -3 -12 -12 -21 -20 -21 -16 0 -17 1 15 -90 11 -30 16 -59 12 -63 -4 -4 -22 1 -41 12 -87 50 -193 46 -292 -12 -87 -51 -132 -174 -108 -291 34 -163 116 -238 261 -240 67 -1 83 3 145 34 39 19 74 37 79 39 4 2 5 -29 2 -68 -6 -59 -4 -71 8 -71 8 0 18 -9 21 -21 6 -19 8 -19 31 -5 37 25 60 20 83 -19 18 -31 24 -34 40 -25 11 5 23 15 26 20 12 19 45 10 57 -15 6 -14 14 -25 17 -25 4 0 21 47 39 104 29 93 35 105 62 116 37 15 143 9 215 -14 95 -29 134 -65 208 -191 29 -48 74 -85 106 -85 63 0 154 98 170 184 17 91 -6 141 -120 265 -37 40 -75 88 -83 106 -31 64 -15 139 48 232 14 21 26 43 26 50 0 22 -20 14 -30 -12 -11 -29 -40 -34 -40 -6 0 16 -6 18 -38 14 -44 -6 -66 13 -67 55 0 24 -4 27 -39 28 -44 1 -57 16 -54 59 3 36 31 41 36 8 4 -26 42 -33 42 -8 0 23 18 18 36 -9 9 -15 21 -22 30 -19 8 3 14 0 14 -6 0 -6 -7 -11 -16 -11 -11 0 -14 -8 -12 -27 3 -27 4 -27 83 -28 l79 0 19 60 c26 84 17 149 -28 208 -62 81 -160 109 -226 64z m-902 -510 c4 -7 25 -23 45 -36 67 -40 100 -122 79 -197 -11 -37 -101 -144 -122 -144 -11 0 -22 41 -17 71 2 16 10 25 23 25 11 1 25 2 31 3 6 1 19 19 29 40 21 49 15 95 -20 135 -20 23 -29 27 -51 22 -31 -8 -44 5 -44 45 0 39 30 63 47 36z m-89 -69 c39 -39 -17 -100 -58 -63 -34 31 -20 75 25 75 12 0 26 -5 33 -12z m28 -204 c8 -30 -11 -54 -40 -54 -46 0 -62 48 -25 73 27 20 58 10 65 -19z m1149 16 c4 -6 8 -28 10 -50 3 -34 1 -40 -15 -40 -10 0 -20 -6 -23 -12 -2 -8 -8 -9 -13 -4 -5 5 -4 11 4 13 23 9 12 23 -18 23 -29 0 -30 -2 -28 -41 2 -46 -18 -69 -60 -69 -18 0 -23 -5 -20 -22 2 -17 -2 -23 -17 -23 -32 0 -33 59 -2 80 14 9 31 14 38 13 9 -2 14 9 15 36 1 45 23 66 66 66 21 0 28 5 28 20 0 21 24 28 35 10z" transform="translate(0,138) scale(0.1,-0.1)" stroke="none" fill="#AAC8C7"/>

</g>

<g id="4" transform="translate(0,552.0)scale(0.8,0.8)">

<path d="M580 174 c0 -10 7 -27 14 -36 14 -19 46 -24 46 -8 0 6 9 10 20 10 11 0 20 -4 20 -10 0 -5 8 -10 18 -10 10 0 24 -9 32 -20 15 -21 70 -28 70 -10 0 6 15 10 34 10 19 0 38 5 42 12 5 8 2 9 -9 5 -11 -4 -21 0 -29 12 -11 18 -12 18 -39 -1 -37 -27 -74 -18 -87 22 -11 31 -21 37 -37 21 -24 -22 -54 -22 -74 0 -20 21 -21 22 -21 3z" transform="translate(0,138) scale(0.1,-0.1)" stroke="none" fill="#AAC8C7"/>

<path d="M1339 1277 c-27 -18 -35 -30 -37 -60 -2 -20 -7 -37 -13 -37 -5 0 -9 -17 -9 -37 -1 -86 -112 -171 -274 -209 -101 -24 -119 -13 -171 100 -22 47 -43 85 -46 86 -4 0 -10 -11 -13 -24 -7 -27 -40 -43 -59 -28 -7 5 -22 13 -34 16 -20 6 -23 4 -23 -17 0 -38 -32 -61 -75 -53 -32 6 -37 4 -42 -13 -3 -12 -12 -21 -20 -21 -16 0 -17 1 15 -90 11 -30 16 -59 12 -63 -4 -4 -22 1 -41 12 -87 50 -193 46 -292 -12 -87 -51 -132 -174 -108 -291 34 -163 116 -238 261 -240 67 -1 83 3 145 34 39 19 74 37 79 39 4 2 5 -29 2 -68 -6 -59 -4 -71 8 -71 8 0 18 -9 21 -21 6 -19 8 -19 31 -5 37 25 60 20 83 -19 18 -31 24 -34 40 -25 11 5 23 15 26 20 12 19 45 10 57 -15 6 -14 14 -25 17 -25 4 0 21 47 39 104 29 93 35 105 62 116 37 15 143 9 215 -14 95 -29 134 -65 208 -191 29 -48 74 -85 106 -85 63 0 154 98 170 184 17 91 -6 141 -120 265 -37 40 -75 88 -83 106 -31 64 -15 139 48 232 14 21 26 43 26 50 0 22 -20 14 -30 -12 -11 -29 -40 -34 -40 -6 0 16 -6 18 -38 14 -44 -6 -66 13 -67 55 0 24 -4 27 -39 28 -44 1 -57 16 -54 59 3 36 31 41 36 8 4 -26 42 -33 42 -8 0 23 18 18 36 -9 9 -15 21 -22 30 -19 8 3 14 0 14 -6 0 -6 -7 -11 -16 -11 -11 0 -14 -8 -12 -27 3 -27 4 -27 83 -28 l79 0 19 60 c26 84 17 149 -28 208 -62 81 -160 109 -226 64z m-902 -510 c4 -7 25 -23 45 -36 67 -40 100 -122 79 -197 -11 -37 -101 -144 -122 -144 -11 0 -22 41 -17 71 2 16 10 25 23 25 11 1 25 2 31 3 6 1 19 19 29 40 21 49 15 95 -20 135 -20 23 -29 27 -51 22 -31 -8 -44 5 -44 45 0 39 30 63 47 36z m-89 -69 c39 -39 -17 -100 -58 -63 -34 31 -20 75 25 75 12 0 26 -5 33 -12z m28 -204 c8 -30 -11 -54 -40 -54 -46 0 -62 48 -25 73 27 20 58 10 65 -19z m1149 16 c4 -6 8 -28 10 -50 3 -34 1 -40 -15 -40 -10 0 -20 -6 -23 -12 -2 -8 -8 -9 -13 -4 -5 5 -4 11 4 13 23 9 12 23 -18 23 -29 0 -30 -2 -28 -41 2 -46 -18 -69 -60 -69 -18 0 -23 -5 -20 -22 2 -17 -2 -23 -17 -23 -32 0 -33 59 -2 80 14 9 31 14 38 13 9 -2 14 9 15 36 1 45 23 66 66 66 21 0 28 5 28 20 0 21 24 28 35 10z" transform="translate(0,138) scale(0.1,-0.1)" stroke="none" fill="#AAC8C7"/>

</g>

</g>
<g id="col1" transform="translate(176, -51.0)">
<g id="0" transform="translate(0,0.0)scale(0.8,0.8)">

<path d="M580 174 c0 -10 7 -27 14 -36 14 -19 46 -24 46 -8 0 6 9 10 20 10 11 0 20 -4 20 -10 0 -5 8 -10 18 -10 10 0 24 -9 32 -20 15 -21 70 -28 70 -10 0 6 15 10 34 10 19 0 38 5 42 12 5 8 2 9 -9 5 -11 -4 -21 0 -29 12 -11 18 -12 18 -39 -1 -37 -27 -74 -18 -87 22 -11 31 -21 37 -37 21 -24 -22 -54 -22 -74 0 -20 21 -21 22 -21 3z" transform="translate(0,138) scale(0.1,-0.1)" stroke="none" fill="#AAC8C7"/>

<path d="M1339 1277 c-27 -18 -35 -30 -37 -60 -2 -20 -7 -37 -13 -37 -5 0 -9 -17 -9 -37 -1 -86 -112 -171 -274 -209 -101 -24 -119 -13 -171 100 -22 47 -43 85 -46 86 -4 0 -10 -11 -13 -24 -7 -27 -40 -43 -59 -28 -7 5 -22 13 -34 16 -20 6 -23 4 -23 -17 0 -38 -32 -61 -75 -53 -32 6 -37 4 -42 -13 -3 -12 -12 -21 -20 -21 -16 0 -17 1 15 -90 11 -30 16 -59 12 -63 -4 -4 -22 1 -41 12 -87 50 -193 46 -292 -12 -87 -51 -132 -174 -108 -291 34 -163 116 -238 261 -240 67 -1 83 3 145 34 39 19 74 37 79 39 4 2 5 -29 2 -68 -6 -59 -4 -71 8 -71 8 0 18 -9 21 -21 6 -19 8 -19 31 -5 37 25 60 20 83 -19 18 -31 24 -34 40 -25 11 5 23 15 26 20 12 19 45 10 57 -15 6 -14 14 -25 17 -25 4 0 21 47 39 104 29 93 35 105 62 116 37 15 143 9 215 -14 95 -29 134 -65 208 -191 29 -48 74 -85 106 -85 63 0 154 98 170 184 17 91 -6 141 -120 265 -37 40 -75 88 -83 106 -31 64 -15 139 48 232 14 21 26 43 26 50 0 22 -20 14 -30 -12 -11 -29 -40 -34 -40 -6 0 16 -6 18 -38 14 -44 -6 -66 13 -67 55 0 24 -4 27 -39 28 -44 1 -57 16 -54 59 3 36 31 41 36 8 4 -26 42 -33 42 -8 0 23 18 18 36 -9 9 -15 21 -22 30 -19 8 3 14 0 14 -6 0 -6 -7 -11 -16 -11 -11 0 -14 -8 -12 -27 3 -27 4 -27 83 -28 l79 0 19 60 c26 84 17 149 -28 208 -62 81 -160 109 -226 64z m-902 -510 c4 -7 25 -23 45 -36 67 -40 100 -122 79 -197 -11 -37 -101 -144 -122 -144 -11 0 -22 41 -17 71 2 16 10 25 23 25 11 1 25 2 31 3 6 1 19 19 29 40 21 49 15 95 -20 135 -20 23 -29 27 -51 22 -31 -8 -44 5 -44 45 0 39 30 63 47 36z m-89 -69 c39 -39 -17 -100 -58 -63 -34 31 -20 75 25 75 12 0 26 -5 33 -12z m28 -204 c8 -30 -11 -54 -40 -54 -46 0 -62 48 -25 73 27 20 58 10 65 -19z m1149 16 c4 -6 8 -28 10 -50 3 -34 1 -40 -15 -40 -10 0 -20 -6 -23 -12 -2 -8 -8 -9 -13 -4 -5 5 -4 11 4 13 23 9 12 23 -18 23 -29 0 -30 -2 -28 -41 2 -46 -18 -69 -60 -69 -18 0 -23 -5 -20 -22 2 -17 -2 -23 -17 -23 -32 0 -33 59 -2 80 14 9 31 14 38 13 9 -2 14 9 15 36 1 45 23 66 66 66 21 0 28 5 28 20 0 21 24 28 35 10z" transform="translate(0,138) scale(0.1,-0.1)" stroke="none" fill="#AAC8C7"/>

</g>

<g id="1" transform="translate(0,138.0)scale(0.8,0.8)">

<path d="M580 174 c0 -10 7 -27 14 -36 14 -19 46 -24 46 -8 0 6 9 10 20 10 11 0 20 -4 20 -10 0 -5 8 -10 18 -10 10 0 24 -9 32 -20 15 -21 70 -28 70 -10 0 6 15 10 34 10 19 0 38 5 42 12 5 8 2 9 -9 5 -11 -4 -21 0 -29 12 -11 18 -12 18 -39 -1 -37 -27 -74 -18 -87 22 -11 31 -21 37 -37 21 -24 -22 -54 -22 -74 0 -20 21 -21 22 -21 3z" transform="translate(0,138) scale(0.1,-0.1)" stroke="none" fill="#AAC8C7"/>

<path d="M1339 1277 c-27 -18 -35 -30 -37 -60 -2 -20 -7 -37 -13 -37 -5 0 -9 -17 -9 -37 -1 -86 -112 -171 -274 -209 -101 -24 -119 -13 -171 100 -22 47 -43 85 -46 86 -4 0 -10 -11 -13 -24 -7 -27 -40 -43 -59 -28 -7 5 -22 13 -34 16 -20 6 -23 4 -23 -17 0 -38 -32 -61 -75 -53 -32 6 -37 4 -42 -13 -3 -12 -12 -21 -20 -21 -16 0 -17 1 15 -90 11 -30 16 -59 12 -63 -4 -4 -22 1 -41 12 -87 50 -193 46 -292 -12 -87 -51 -132 -174 -108 -291 34 -163 116 -238 261 -240 67 -1 83 3 145 34 39 19 74 37 79 39 4 2 5 -29 2 -68 -6 -59 -4 -71 8 -71 8 0 18 -9 21 -21 6 -19 8 -19 31 -5 37 25 60 20 83 -19 18 -31 24 -34 40 -25 11 5 23 15 26 20 12 19 45 10 57 -15 6 -14 14 -25 17 -25 4 0 21 47 39 104 29 93 35 105 62 116 37 15 143 9 215 -14 95 -29 134 -65 208 -191 29 -48 74 -85 106 -85 63 0 154 98 170 184 17 91 -6 141 -120 265 -37 40 -75 88 -83 106 -31 64 -15 139 48 232 14 21 26 43 26 50 0 22 -20 14 -30 -12 -11 -29 -40 -34 -40 -6 0 16 -6 18 -38 14 -44 -6 -66 13 -67 55 0 24 -4 27 -39 28 -44 1 -57 16 -54 59 3 36 31 41 36 8 4 -26 42 -33 42 -8 0 23 18 18 36 -9 9 -15 21 -22 30 -19 8 3 14 0 14 -6 0 -6 -7 -11 -16 -11 -11 0 -14 -8 -12 -27 3 -27 4 -27 83 -28 l79 0 19 60 c26 84 17 149 -28 208 -62 81 -160 109 -226 64z m-902 -510 c4 -7 25 -23 45 -36 67 -40 100 -122 79 -197 -11 -37 -101 -144 -122 -144 -11 0 -22 41 -17 71 2 16 10 25 23 25 11 1 25 2 31 3 6 1 19 19 29 40 21 49 15 95 -20 135 -20 23 -29 27 -51 22 -31 -8 -44 5 -44 45 0 39 30 63 47 36z m-89 -69 c39 -39 -17 -100 -58 -63 -34 31 -20 75 25 75 12 0 26 -5 33 -12z m28 -204 c8 -30 -11 -54 -40 -54 -46 0 -62 48 -25 73 27 20 58 10 65 -19z m1149 16 c4 -6 8 -28 10 -50 3 -34 1 -40 -15 -40 -10 0 -20 -6 -23 -12 -2 -8 -8 -9 -13 -4 -5 5 -4 11 4 13 23 9 12 23 -18 23 -29 0 -30 -2 -28 -41 2 -46 -18 -69 -60 -69 -18 0 -23 -5 -20 -22 2 -17 -2 -23 -17 -23 -32 0 -33 59 -2 80 14 9 31 14 38 13 9 -2 14 9 15 36 1 45 23 66 66 66 21 0 28 5 28 20 0 21 24 28 35 10z" transform="translate(0,138) scale(0.1,-0.1)" stroke="none" fill="#AAC8C7"/>

</g>

<g id="2" transform="translate(0,276.0)scale(0.8,0.8)">

<path d="M580 174 c0 -10 7 -27 14 -36 14 -19 46 -24 46 -8 0 6 9 10 20 10 11 0 20 -4 20 -10 0 -5 8 -10 18 -10 10 0 24 -9 32 -20 15 -21 70 -28 70 -10 0 6 15 10 34 10 19 0 38 5 42 12 5 8 2 9 -9 5 -11 -4 -21 0 -29 12 -11 18 -12 18 -39 -1 -37 -27 -74 -18 -87 22 -11 31 -21 37 -37 21 -24 -22 -54 -22 -74 0 -20 21 -21 22 -21 3z" transform="translate(0,138) scale(0.1,-0.1)" stroke="none" fill="#AAC8C7"/>

<path d="M1339 1277 c-27 -18 -35 -30 -37 -60 -2 -20 -7 -37 -13 -37 -5 0 -9 -17 -9 -37 -1 -86 -112 -171 -274 -209 -101 -24 -119 -13 -171 100 -22 47 -43 85 -46 86 -4 0 -10 -11 -13 -24 -7 -27 -40 -43 -59 -28 -7 5 -22 13 -34 16 -20 6 -23 4 -23 -17 0 -38 -32 -61 -75 -53 -32 6 -37 4 -42 -13 -3 -12 -12 -21 -20 -21 -16 0 -17 1 15 -90 11 -30 16 -59 12 -63 -4 -4 -22 1 -41 12 -87 50 -193 46 -292 -12 -87 -51 -132 -174 -108 -291 34 -163 116 -238 261 -240 67 -1 83 3 145 34 39 19 74 37 79 39 4 2 5 -29 2 -68 -6 -59 -4 -71 8 -71 8 0 18 -9 21 -21 6 -19 8 -19 31 -5 37 25 60 20 83 -19 18 -31 24 -34 40 -25 11 5 23 15 26 20 12 19 45 10 57 -15 6 -14 14 -25 17 -25 4 0 21 47 39 104 29 93 35 105 62 116 37 15 143 9 215 -14 95 -29 134 -65 208 -191 29 -48 74 -85 106 -85 63 0 154 98 170 184 17 91 -6 141 -120 265 -37 40 -75 88 -83 106 -31 64 -15 139 48 232 14 21 26 43 26 50 0 22 -20 14 -30 -12 -11 -29 -40 -34 -40 -6 0 16 -6 18 -38 14 -44 -6 -66 13 -67 55 0 24 -4 27 -39 28 -44 1 -57 16 -54 59 3 36 31 41 36 8 4 -26 42 -33 42 -8 0 23 18 18 36 -9 9 -15 21 -22 30 -19 8 3 14 0 14 -6 0 -6 -7 -11 -16 -11 -11 0 -14 -8 -12 -27 3 -27 4 -27 83 -28 l79 0 19 60 c26 84 17 149 -28 208 -62 81 -160 109 -226 64z m-902 -510 c4 -7 25 -23 45 -36 67 -40 100 -122 79 -197 -11 -37 -101 -144 -122 -144 -11 0 -22 41 -17 71 2 16 10 25 23 25 11 1 25 2 31 3 6 1 19 19 29 40 21 49 15 95 -20 135 -20 23 -29 27 -51 22 -31 -8 -44 5 -44 45 0 39 30 63 47 36z m-89 -69 c39 -39 -17 -100 -58 -63 -34 31 -20 75 25 75 12 0 26 -5 33 -12z m28 -204 c8 -30 -11 -54 -40 -54 -46 0 -62 48 -25 73 27 20 58 10 65 -19z m1149 16 c4 -6 8 -28 10 -50 3 -34 1 -40 -15 -40 -10 0 -20 -6 -23 -12 -2 -8 -8 -9 -13 -4 -5 5 -4 11 4 13 23 9 12 23 -18 23 -29 0 -30 -2 -28 -41 2 -46 -18 -69 -60 -69 -18 0 -23 -5 -20 -22 2 -17 -2 -23 -17 -23 -32 0 -33 59 -2 80 14 9 31 14 38 13 9 -2 14 9 15 36 1 45 23 66 66 66 21 0 28 5 28 20 0 21 24 28 35 10z" transform="translate(0,138) scale(0.1,-0.1)" stroke="none" fill="#AAC8C7"/>

</g>

<g id="3" transform="translate(0,414.0)scale(0.8,0.8)">

<path d="M580 174 c0 -10 7 -27 14 -36 14 -19 46 -24 46 -8 0 6 9 10 20 10 11 0 20 -4 20 -10 0 -5 8 -10 18 -10 10 0 24 -9 32 -20 15 -21 70 -28 70 -10 0 6 15 10 34 10 19 0 38 5 42 12 5 8 2 9 -9 5 -11 -4 -21 0 -29 12 -11 18 -12 18 -39 -1 -37 -27 -74 -18 -87 22 -11 31 -21 37 -37 21 -24 -22 -54 -22 -74 0 -20 21 -21 22 -21 3z" transform="translate(0,138) scale(0.1,-0.1)" stroke="none" fill="#AAC8C7"/>

<path d="M1339 1277 c-27 -18 -35 -30 -37 -60 -2 -20 -7 -37 -13 -37 -5 0 -9 -17 -9 -37 -1 -86 -112 -171 -274 -209 -101 -24 -119 -13 -171 100 -22 47 -43 85 -46 86 -4 0 -10 -11 -13 -24 -7 -27 -40 -43 -59 -28 -7 5 -22 13 -34 16 -20 6 -23 4 -23 -17 0 -38 -32 -61 -75 -53 -32 6 -37 4 -42 -13 -3 -12 -12 -21 -20 -21 -16 0 -17 1 15 -90 11 -30 16 -59 12 -63 -4 -4 -22 1 -41 12 -87 50 -193 46 -292 -12 -87 -51 -132 -174 -108 -291 34 -163 116 -238 261 -240 67 -1 83 3 145 34 39 19 74 37 79 39 4 2 5 -29 2 -68 -6 -59 -4 -71 8 -71 8 0 18 -9 21 -21 6 -19 8 -19 31 -5 37 25 60 20 83 -19 18 -31 24 -34 40 -25 11 5 23 15 26 20 12 19 45 10 57 -15 6 -14 14 -25 17 -25 4 0 21 47 39 104 29 93 35 105 62 116 37 15 143 9 215 -14 95 -29 134 -65 208 -191 29 -48 74 -85 106 -85 63 0 154 98 170 184 17 91 -6 141 -120 265 -37 40 -75 88 -83 106 -31 64 -15 139 48 232 14 21 26 43 26 50 0 22 -20 14 -30 -12 -11 -29 -40 -34 -40 -6 0 16 -6 18 -38 14 -44 -6 -66 13 -67 55 0 24 -4 27 -39 28 -44 1 -57 16 -54 59 3 36 31 41 36 8 4 -26 42 -33 42 -8 0 23 18 18 36 -9 9 -15 21 -22 30 -19 8 3 14 0 14 -6 0 -6 -7 -11 -16 -11 -11 0 -14 -8 -12 -27 3 -27 4 -27 83 -28 l79 0 19 60 c26 84 17 149 -28 208 -62 81 -160 109 -226 64z m-902 -510 c4 -7 25 -23 45 -36 67 -40 100 -122 79 -197 -11 -37 -101 -144 -122 -144 -11 0 -22 41 -17 71 2 16 10 25 23 25 11 1 25 2 31 3 6 1 19 19 29 40 21 49 15 95 -20 135 -20 23 -29 27 -51 22 -31 -8 -44 5 -44 45 0 39 30 63 47 36z m-89 -69 c39 -39 -17 -100 -58 -63 -34 31 -20 75 25 75 12 0 26 -5 33 -12z m28 -204 c8 -30 -11 -54 -40 -54 -46 0 -62 48 -25 73 27 20 58 10 65 -19z m1149 16 c4 -6 8 -28 10 -50 3 -34 1 -40 -15 -40 -10 0 -20 -6 -23 -12 -2 -8 -8 -9 -13 -4 -5 5 -4 11 4 13 23 9 12 23 -18 23 -29 0 -30 -2 -28 -41 2 -46 -18 -69 -60 -69 -18 0 -23 -5 -20 -22 2 -17 -2 -23 -17 -23 -32 0 -33 59 -2 80 14 9 31 14 38 13 9 -2 14 9 15 36 1 45 23 66 66 66 21 0 28 5 28 20 0 21 24 28 35 10z" transform="translate(0,138) scale(0.1,-0.1)" stroke="none" fill="#AAC8C7"/>

</g>

<g id="4" transform="translate(0,552.0)scale(0.8,0.8)">

<path d="M580 174 c0 -10 7 -27 14 -36 14 -19 46 -24 46 -8 0 6 9 10 20 10 11 0 20 -4 20 -10 0 -5 8 -10 18 -10 10 0 24 -9 32 -20 15 -21 70 -28 70 -10 0 6 15 10 34 10 19 0 38 5 42 12 5 8 2 9 -9 5 -11 -4 -21 0 -29 12 -11 18 -12 18 -39 -1 -37 -27 -74 -18 -87 22 -11 31 -21 37 -37 21 -24 -22 -54 -22 -74 0 -20 21 -21 22 -21 3z" transform="translate(0,138) scale(0.1,-0.1)" stroke="none" fill="#AAC8C7"/>

<path d="M1339 1277 c-27 -18 -35 -30 -37 -60 -2 -20 -7 -37 -13 -37 -5 0 -9 -17 -9 -37 -1 -86 -112 -171 -274 -209 -101 -24 -119 -13 -171 100 -22 47 -43 85 -46 86 -4 0 -10 -11 -13 -24 -7 -27 -40 -43 -59 -28 -7 5 -22 13 -34 16 -20 6 -23 4 -23 -17 0 -38 -32 -61 -75 -53 -32 6 -37 4 -42 -13 -3 -12 -12 -21 -20 -21 -16 0 -17 1 15 -90 11 -30 16 -59 12 -63 -4 -4 -22 1 -41 12 -87 50 -193 46 -292 -12 -87 -51 -132 -174 -108 -291 34 -163 116 -238 261 -240 67 -1 83 3 145 34 39 19 74 37 79 39 4 2 5 -29 2 -68 -6 -59 -4 -71 8 -71 8 0 18 -9 21 -21 6 -19 8 -19 31 -5 37 25 60 20 83 -19 18 -31 24 -34 40 -25 11 5 23 15 26 20 12 19 45 10 57 -15 6 -14 14 -25 17 -25 4 0 21 47 39 104 29 93 35 105 62 116 37 15 143 9 215 -14 95 -29 134 -65 208 -191 29 -48 74 -85 106 -85 63 0 154 98 170 184 17 91 -6 141 -120 265 -37 40 -75 88 -83 106 -31 64 -15 139 48 232 14 21 26 43 26 50 0 22 -20 14 -30 -12 -11 -29 -40 -34 -40 -6 0 16 -6 18 -38 14 -44 -6 -66 13 -67 55 0 24 -4 27 -39 28 -44 1 -57 16 -54 59 3 36 31 41 36 8 4 -26 42 -33 42 -8 0 23 18 18 36 -9 9 -15 21 -22 30 -19 8 3 14 0 14 -6 0 -6 -7 -11 -16 -11 -11 0 -14 -8 -12 -27 3 -27 4 -27 83 -28 l79 0 19 60 c26 84 17 149 -28 208 -62 81 -160 109 -226 64z m-902 -510 c4 -7 25 -23 45 -36 67 -40 100 -122 79 -197 -11 -37 -101 -144 -122 -144 -11 0 -22 41 -17 71 2 16 10 25 23 25 11 1 25 2 31 3 6 1 19 19 29 40 21 49 15 95 -20 135 -20 23 -29 27 -51 22 -31 -8 -44 5 -44 45 0 39 30 63 47 36z m-89 -69 c39 -39 -17 -100 -58 -63 -34 31 -20 75 25 75 12 0 26 -5 33 -12z m28 -204 c8 -30 -11 -54 -40 -54 -46 0 -62 48 -25 73 27 20 58 10 65 -19z m1149 16 c4 -6 8 -28 10 -50 3 -34 1 -40 -15 -40 -10 0 -20 -6 -23 -12 -2 -8 -8 -9 -13 -4 -5 5 -4 11 4 13 23 9 12 23 -18 23 -29 0 -30 -2 -28 -41 2 -46 -18 -69 -60 -69 -18 0 -23 -5 -20 -22 2 -17 -2 -23 -17 -23 -32 0 -33 59 -2 80 14 9 31 14 38 13 9 -2 14 9 15 36 1 45 23 66 66 66 21 0 28 5 28 20 0 21 24 28 35 10z" transform="translate(0,138) scale(0.1,-0.1)" stroke="none" fill="#AAC8C7"/>

</g>

</g>
<g id="col2" transform="translate(352, 18)">
<g id="0" transform="translate(0,0.0)scale(0.8,0.8)">

<path d="M580 174 c0 -10 7 -27 14 -36 14 -19 46 -24 46 -8 0 6 9 10 20 10 11 0 20 -4 20 -10 0 -5 8 -10 18 -10 10 0 24 -9 32 -20 15 -21 70 -28 70 -10 0 6 15 10 34 10 19 0 38 5 42 12 5 8 2 9 -9 5 -11 -4 -21 0 -29 12 -11 18 -12 18 -39 -1 -37 -27 -74 -18 -87 22 -11 31 -21 37 -37 21 -24 -22 -54 -22 -74 0 -20 21 -21 22 -21 3z" transform="translate(0,138) scale(0.1,-0.1)" stroke="none" fill="#AAC8C7"/>

<path d="M1339 1277 c-27 -18 -35 -30 -37 -60 -2 -20 -7 -37 -13 -37 -5 0 -9 -17 -9 -37 -1 -86 -112 -171 -274 -209 -101 -24 -119 -13 -171 100 -22 47 -43 85 -46 86 -4 0 -10 -11 -13 -24 -7 -27 -40 -43 -59 -28 -7 5 -22 13 -34 16 -20 6 -23 4 -23 -17 0 -38 -32 -61 -75 -53 -32 6 -37 4 -42 -13 -3 -12 -12 -21 -20 -21 -16 0 -17 1 15 -90 11 -30 16 -59 12 -63 -4 -4 -22 1 -41 12 -87 50 -193 46 -292 -12 -87 -51 -132 -174 -108 -291 34 -163 116 -238 261 -240 67 -1 83 3 145 34 39 19 74 37 79 39 4 2 5 -29 2 -68 -6 -59 -4 -71 8 -71 8 0 18 -9 21 -21 6 -19 8 -19 31 -5 37 25 60 20 83 -19 18 -31 24 -34 40 -25 11 5 23 15 26 20 12 19 45 10 57 -15 6 -14 14 -25 17 -25 4 0 21 47 39 104 29 93 35 105 62 116 37 15 143 9 215 -14 95 -29 134 -65 208 -191 29 -48 74 -85 106 -85 63 0 154 98 170 184 17 91 -6 141 -120 265 -37 40 -75 88 -83 106 -31 64 -15 139 48 232 14 21 26 43 26 50 0 22 -20 14 -30 -12 -11 -29 -40 -34 -40 -6 0 16 -6 18 -38 14 -44 -6 -66 13 -67 55 0 24 -4 27 -39 28 -44 1 -57 16 -54 59 3 36 31 41 36 8 4 -26 42 -33 42 -8 0 23 18 18 36 -9 9 -15 21 -22 30 -19 8 3 14 0 14 -6 0 -6 -7 -11 -16 -11 -11 0 -14 -8 -12 -27 3 -27 4 -27 83 -28 l79 0 19 60 c26 84 17 149 -28 208 -62 81 -160 109 -226 64z m-902 -510 c4 -7 25 -23 45 -36 67 -40 100 -122 79 -197 -11 -37 -101 -144 -122 -144 -11 0 -22 41 -17 71 2 16 10 25 23 25 11 1 25 2 31 3 6 1 19 19 29 40 21 49 15 95 -20 135 -20 23 -29 27 -51 22 -31 -8 -44 5 -44 45 0 39 30 63 47 36z m-89 -69 c39 -39 -17 -100 -58 -63 -34 31 -20 75 25 75 12 0 26 -5 33 -12z m28 -204 c8 -30 -11 -54 -40 -54 -46 0 -62 48 -25 73 27 20 58 10 65 -19z m1149 16 c4 -6 8 -28 10 -50 3 -34 1 -40 -15 -40 -10 0 -20 -6 -23 -12 -2 -8 -8 -9 -13 -4 -5 5 -4 11 4 13 23 9 12 23 -18 23 -29 0 -30 -2 -28 -41 2 -46 -18 -69 -60 -69 -18 0 -23 -5 -20 -22 2 -17 -2 -23 -17 -23 -32 0 -33 59 -2 80 14 9 31 14 38 13 9 -2 14 9 15 36 1 45 23 66 66 66 21 0 28 5 28 20 0 21 24 28 35 10z" transform="translate(0,138) scale(0.1,-0.1)" stroke="none" fill="#AAC8C7"/>

</g>

<g id="1" transform="translate(0,138.0)scale(0.8,0.8)">

<path d="M580 174 c0 -10 7 -27 14 -36 14 -19 46 -24 46 -8 0 6 9 10 20 10 11 0 20 -4 20 -10 0 -5 8 -10 18 -10 10 0 24 -9 32 -20 15 -21 70 -28 70 -10 0 6 15 10 34 10 19 0 38 5 42 12 5 8 2 9 -9 5 -11 -4 -21 0 -29 12 -11 18 -12 18 -39 -1 -37 -27 -74 -18 -87 22 -11 31 -21 37 -37 21 -24 -22 -54 -22 -74 0 -20 21 -21 22 -21 3z" transform="translate(0,138) scale(0.1,-0.1)" stroke="none" fill="#AAC8C7"/>

<path d="M1339 1277 c-27 -18 -35 -30 -37 -60 -2 -20 -7 -37 -13 -37 -5 0 -9 -17 -9 -37 -1 -86 -112 -171 -274 -209 -101 -24 -119 -13 -171 100 -22 47 -43 85 -46 86 -4 0 -10 -11 -13 -24 -7 -27 -40 -43 -59 -28 -7 5 -22 13 -34 16 -20 6 -23 4 -23 -17 0 -38 -32 -61 -75 -53 -32 6 -37 4 -42 -13 -3 -12 -12 -21 -20 -21 -16 0 -17 1 15 -90 11 -30 16 -59 12 -63 -4 -4 -22 1 -41 12 -87 50 -193 46 -292 -12 -87 -51 -132 -174 -108 -291 34 -163 116 -238 261 -240 67 -1 83 3 145 34 39 19 74 37 79 39 4 2 5 -29 2 -68 -6 -59 -4 -71 8 -71 8 0 18 -9 21 -21 6 -19 8 -19 31 -5 37 25 60 20 83 -19 18 -31 24 -34 40 -25 11 5 23 15 26 20 12 19 45 10 57 -15 6 -14 14 -25 17 -25 4 0 21 47 39 104 29 93 35 105 62 116 37 15 143 9 215 -14 95 -29 134 -65 208 -191 29 -48 74 -85 106 -85 63 0 154 98 170 184 17 91 -6 141 -120 265 -37 40 -75 88 -83 106 -31 64 -15 139 48 232 14 21 26 43 26 50 0 22 -20 14 -30 -12 -11 -29 -40 -34 -40 -6 0 16 -6 18 -38 14 -44 -6 -66 13 -67 55 0 24 -4 27 -39 28 -44 1 -57 16 -54 59 3 36 31 41 36 8 4 -26 42 -33 42 -8 0 23 18 18 36 -9 9 -15 21 -22 30 -19 8 3 14 0 14 -6 0 -6 -7 -11 -16 -11 -11 0 -14 -8 -12 -27 3 -27 4 -27 83 -28 l79 0 19 60 c26 84 17 149 -28 208 -62 81 -160 109 -226 64z m-902 -510 c4 -7 25 -23 45 -36 67 -40 100 -122 79 -197 -11 -37 -101 -144 -122 -144 -11 0 -22 41 -17 71 2 16 10 25 23 25 11 1 25 2 31 3 6 1 19 19 29 40 21 49 15 95 -20 135 -20 23 -29 27 -51 22 -31 -8 -44 5 -44 45 0 39 30 63 47 36z m-89 -69 c39 -39 -17 -100 -58 -63 -34 31 -20 75 25 75 12 0 26 -5 33 -12z m28 -204 c8 -30 -11 -54 -40 -54 -46 0 -62 48 -25 73 27 20 58 10 65 -19z m1149 16 c4 -6 8 -28 10 -50 3 -34 1 -40 -15 -40 -10 0 -20 -6 -23 -12 -2 -8 -8 -9 -13 -4 -5 5 -4 11 4 13 23 9 12 23 -18 23 -29 0 -30 -2 -28 -41 2 -46 -18 -69 -60 -69 -18 0 -23 -5 -20 -22 2 -17 -2 -23 -17 -23 -32 0 -33 59 -2 80 14 9 31 14 38 13 9 -2 14 9 15 36 1 45 23 66 66 66 21 0 28 5 28 20 0 21 24 28 35 10z" transform="translate(0,138) scale(0.1,-0.1)" stroke="none" fill="#AAC8C7"/>

</g>

<g id="2" transform="translate(0,276.0)scale(0.8,0.8)">

<path d="M580 174 c0 -10 7 -27 14 -36 14 -19 46 -24 46 -8 0 6 9 10 20 10 11 0 20 -4 20 -10 0 -5 8 -10 18 -10 10 0 24 -9 32 -20 15 -21 70 -28 70 -10 0 6 15 10 34 10 19 0 38 5 42 12 5 8 2 9 -9 5 -11 -4 -21 0 -29 12 -11 18 -12 18 -39 -1 -37 -27 -74 -18 -87 22 -11 31 -21 37 -37 21 -24 -22 -54 -22 -74 0 -20 21 -21 22 -21 3z" transform="translate(0,138) scale(0.1,-0.1)" stroke="none" fill="#AAC8C7"/>

<path d="M1339 1277 c-27 -18 -35 -30 -37 -60 -2 -20 -7 -37 -13 -37 -5 0 -9 -17 -9 -37 -1 -86 -112 -171 -274 -209 -101 -24 -119 -13 -171 100 -22 47 -43 85 -46 86 -4 0 -10 -11 -13 -24 -7 -27 -40 -43 -59 -28 -7 5 -22 13 -34 16 -20 6 -23 4 -23 -17 0 -38 -32 -61 -75 -53 -32 6 -37 4 -42 -13 -3 -12 -12 -21 -20 -21 -16 0 -17 1 15 -90 11 -30 16 -59 12 -63 -4 -4 -22 1 -41 12 -87 50 -193 46 -292 -12 -87 -51 -132 -174 -108 -291 34 -163 116 -238 261 -240 67 -1 83 3 145 34 39 19 74 37 79 39 4 2 5 -29 2 -68 -6 -59 -4 -71 8 -71 8 0 18 -9 21 -21 6 -19 8 -19 31 -5 37 25 60 20 83 -19 18 -31 24 -34 40 -25 11 5 23 15 26 20 12 19 45 10 57 -15 6 -14 14 -25 17 -25 4 0 21 47 39 104 29 93 35 105 62 116 37 15 143 9 215 -14 95 -29 134 -65 208 -191 29 -48 74 -85 106 -85 63 0 154 98 170 184 17 91 -6 141 -120 265 -37 40 -75 88 -83 106 -31 64 -15 139 48 232 14 21 26 43 26 50 0 22 -20 14 -30 -12 -11 -29 -40 -34 -40 -6 0 16 -6 18 -38 14 -44 -6 -66 13 -67 55 0 24 -4 27 -39 28 -44 1 -57 16 -54 59 3 36 31 41 36 8 4 -26 42 -33 42 -8 0 23 18 18 36 -9 9 -15 21 -22 30 -19 8 3 14 0 14 -6 0 -6 -7 -11 -16 -11 -11 0 -14 -8 -12 -27 3 -27 4 -27 83 -28 l79 0 19 60 c26 84 17 149 -28 208 -62 81 -160 109 -226 64z m-902 -510 c4 -7 25 -23 45 -36 67 -40 100 -122 79 -197 -11 -37 -101 -144 -122 -144 -11 0 -22 41 -17 71 2 16 10 25 23 25 11 1 25 2 31 3 6 1 19 19 29 40 21 49 15 95 -20 135 -20 23 -29 27 -51 22 -31 -8 -44 5 -44 45 0 39 30 63 47 36z m-89 -69 c39 -39 -17 -100 -58 -63 -34 31 -20 75 25 75 12 0 26 -5 33 -12z m28 -204 c8 -30 -11 -54 -40 -54 -46 0 -62 48 -25 73 27 20 58 10 65 -19z m1149 16 c4 -6 8 -28 10 -50 3 -34 1 -40 -15 -40 -10 0 -20 -6 -23 -12 -2 -8 -8 -9 -13 -4 -5 5 -4 11 4 13 23 9 12 23 -18 23 -29 0 -30 -2 -28 -41 2 -46 -18 -69 -60 -69 -18 0 -23 -5 -20 -22 2 -17 -2 -23 -17 -23 -32 0 -33 59 -2 80 14 9 31 14 38 13 9 -2 14 9 15 36 1 45 23 66 66 66 21 0 28 5 28 20 0 21 24 28 35 10z" transform="translate(0,138) scale(0.1,-0.1)" stroke="none" fill="#AAC8C7"/>

</g>

<g id="3" transform="translate(0,414.0)scale(0.8,0.8)">

<path d="M580 174 c0 -10 7 -27 14 -36 14 -19 46 -24 46 -8 0 6 9 10 20 10 11 0 20 -4 20 -10 0 -5 8 -10 18 -10 10 0 24 -9 32 -20 15 -21 70 -28 70 -10 0 6 15 10 34 10 19 0 38 5 42 12 5 8 2 9 -9 5 -11 -4 -21 0 -29 12 -11 18 -12 18 -39 -1 -37 -27 -74 -18 -87 22 -11 31 -21 37 -37 21 -24 -22 -54 -22 -74 0 -20 21 -21 22 -21 3z" transform="translate(0,138) scale(0.1,-0.1)" stroke="none" fill="#AAC8C7"/>

<path d="M1339 1277 c-27 -18 -35 -30 -37 -60 -2 -20 -7 -37 -13 -37 -5 0 -9 -17 -9 -37 -1 -86 -112 -171 -274 -209 -101 -24 -119 -13 -171 100 -22 47 -43 85 -46 86 -4 0 -10 -11 -13 -24 -7 -27 -40 -43 -59 -28 -7 5 -22 13 -34 16 -20 6 -23 4 -23 -17 0 -38 -32 -61 -75 -53 -32 6 -37 4 -42 -13 -3 -12 -12 -21 -20 -21 -16 0 -17 1 15 -90 11 -30 16 -59 12 -63 -4 -4 -22 1 -41 12 -87 50 -193 46 -292 -12 -87 -51 -132 -174 -108 -291 34 -163 116 -238 261 -240 67 -1 83 3 145 34 39 19 74 37 79 39 4 2 5 -29 2 -68 -6 -59 -4 -71 8 -71 8 0 18 -9 21 -21 6 -19 8 -19 31 -5 37 25 60 20 83 -19 18 -31 24 -34 40 -25 11 5 23 15 26 20 12 19 45 10 57 -15 6 -14 14 -25 17 -25 4 0 21 47 39 104 29 93 35 105 62 116 37 15 143 9 215 -14 95 -29 134 -65 208 -191 29 -48 74 -85 106 -85 63 0 154 98 170 184 17 91 -6 141 -120 265 -37 40 -75 88 -83 106 -31 64 -15 139 48 232 14 21 26 43 26 50 0 22 -20 14 -30 -12 -11 -29 -40 -34 -40 -6 0 16 -6 18 -38 14 -44 -6 -66 13 -67 55 0 24 -4 27 -39 28 -44 1 -57 16 -54 59 3 36 31 41 36 8 4 -26 42 -33 42 -8 0 23 18 18 36 -9 9 -15 21 -22 30 -19 8 3 14 0 14 -6 0 -6 -7 -11 -16 -11 -11 0 -14 -8 -12 -27 3 -27 4 -27 83 -28 l79 0 19 60 c26 84 17 149 -28 208 -62 81 -160 109 -226 64z m-902 -510 c4 -7 25 -23 45 -36 67 -40 100 -122 79 -197 -11 -37 -101 -144 -122 -144 -11 0 -22 41 -17 71 2 16 10 25 23 25 11 1 25 2 31 3 6 1 19 19 29 40 21 49 15 95 -20 135 -20 23 -29 27 -51 22 -31 -8 -44 5 -44 45 0 39 30 63 47 36z m-89 -69 c39 -39 -17 -100 -58 -63 -34 31 -20 75 25 75 12 0 26 -5 33 -12z m28 -204 c8 -30 -11 -54 -40 -54 -46 0 -62 48 -25 73 27 20 58 10 65 -19z m1149 16 c4 -6 8 -28 10 -50 3 -34 1 -40 -15 -40 -10 0 -20 -6 -23 -12 -2 -8 -8 -9 -13 -4 -5 5 -4 11 4 13 23 9 12 23 -18 23 -29 0 -30 -2 -28 -41 2 -46 -18 -69 -60 -69 -18 0 -23 -5 -20 -22 2 -17 -2 -23 -17 -23 -32 0 -33 59 -2 80 14 9 31 14 38 13 9 -2 14 9 15 36 1 45 23 66 66 66 21 0 28 5 28 20 0 21 24 28 35 10z" transform="translate(0,138) scale(0.1,-0.1)" stroke="none" fill="#AAC8C7"/>

</g>

<g id="4" transform="translate(0,552.0)scale(0.8,0.8)">

<path d="M580 174 c0 -10 7 -27 14 -36 14 -19 46 -24 46 -8 0 6 9 10 20 10 11 0 20 -4 20 -10 0 -5 8 -10 18 -10 10 0 24 -9 32 -20 15 -21 70 -28 70 -10 0 6 15 10 34 10 19 0 38 5 42 12 5 8 2 9 -9 5 -11 -4 -21 0 -29 12 -11 18 -12 18 -39 -1 -37 -27 -74 -18 -87 22 -11 31 -21 37 -37 21 -24 -22 -54 -22 -74 0 -20 21 -21 22 -21 3z" transform="translate(0,138) scale(0.1,-0.1)" stroke="none" fill="#AAC8C7"/>

<path d="M1339 1277 c-27 -18 -35 -30 -37 -60 -2 -20 -7 -37 -13 -37 -5 0 -9 -17 -9 -37 -1 -86 -112 -171 -274 -209 -101 -24 -119 -13 -171 100 -22 47 -43 85 -46 86 -4 0 -10 -11 -13 -24 -7 -27 -40 -43 -59 -28 -7 5 -22 13 -34 16 -20 6 -23 4 -23 -17 0 -38 -32 -61 -75 -53 -32 6 -37 4 -42 -13 -3 -12 -12 -21 -20 -21 -16 0 -17 1 15 -90 11 -30 16 -59 12 -63 -4 -4 -22 1 -41 12 -87 50 -193 46 -292 -12 -87 -51 -132 -174 -108 -291 34 -163 116 -238 261 -240 67 -1 83 3 145 34 39 19 74 37 79 39 4 2 5 -29 2 -68 -6 -59 -4 -71 8 -71 8 0 18 -9 21 -21 6 -19 8 -19 31 -5 37 25 60 20 83 -19 18 -31 24 -34 40 -25 11 5 23 15 26 20 12 19 45 10 57 -15 6 -14 14 -25 17 -25 4 0 21 47 39 104 29 93 35 105 62 116 37 15 143 9 215 -14 95 -29 134 -65 208 -191 29 -48 74 -85 106 -85 63 0 154 98 170 184 17 91 -6 141 -120 265 -37 40 -75 88 -83 106 -31 64 -15 139 48 232 14 21 26 43 26 50 0 22 -20 14 -30 -12 -11 -29 -40 -34 -40 -6 0 16 -6 18 -38 14 -44 -6 -66 13 -67 55 0 24 -4 27 -39 28 -44 1 -57 16 -54 59 3 36 31 41 36 8 4 -26 42 -33 42 -8 0 23 18 18 36 -9 9 -15 21 -22 30 -19 8 3 14 0 14 -6 0 -6 -7 -11 -16 -11 -11 0 -14 -8 -12 -27 3 -27 4 -27 83 -28 l79 0 19 60 c26 84 17 149 -28 208 -62 81 -160 109 -226 64z m-902 -510 c4 -7 25 -23 45 -36 67 -40 100 -122 79 -197 -11 -37 -101 -144 -122 -144 -11 0 -22 41 -17 71 2 16 10 25 23 25 11 1 25 2 31 3 6 1 19 19 29 40 21 49 15 95 -20 135 -20 23 -29 27 -51 22 -31 -8 -44 5 -44 45 0 39 30 63 47 36z m-89 -69 c39 -39 -17 -100 -58 -63 -34 31 -20 75 25 75 12 0 26 -5 33 -12z m28 -204 c8 -30 -11 -54 -40 -54 -46 0 -62 48 -25 73 27 20 58 10 65 -19z m1149 16 c4 -6 8 -28 10 -50 3 -34 1 -40 -15 -40 -10 0 -20 -6 -23 -12 -2 -8 -8 -9 -13 -4 -5 5 -4 11 4 13 23 9 12 23 -18 23 -29 0 -30 -2 -28 -41 2 -46 -18 -69 -60 -69 -18 0 -23 -5 -20 -22 2 -17 -2 -23 -17 -23 -32 0 -33 59 -2 80 14 9 31 14 38 13 9 -2 14 9 15 36 1 45 23 66 66 66 21 0 28 5 28 20 0 21 24 28 35 10z" transform="translate(0,138) scale(0.1,-0.1)" stroke="none" fill="#AAC8C7"/>

</g>

</g>
<g id="col3" transform="translate(528, -51.0)">
<g id="0" transform="translate(0,0.0)scale(0.8,0.8)">

<path d="M580 174 c0 -10 7 -27 14 -36 14 -19 46 -24 46 -8 0 6 9 10 20 10 11 0 20 -4 20 -10 0 -5 8 -10 18 -10 10 0 24 -9 32 -20 15 -21 70 -28 70 -10 0 6 15 10 34 10 19 0 38 5 42 12 5 8 2 9 -9 5 -11 -4 -21 0 -29 12 -11 18 -12 18 -39 -1 -37 -27 -74 -18 -87 22 -11 31 -21 37 -37 21 -24 -22 -54 -22 -74 0 -20 21 -21 22 -21 3z" transform="translate(0,138) scale(0.1,-0.1)" stroke="none" fill="#AAC8C7"/>

<path d="M1339 1277 c-27 -18 -35 -30 -37 -60 -2 -20 -7 -37 -13 -37 -5 0 -9 -17 -9 -37 -1 -86 -112 -171 -274 -209 -101 -24 -119 -13 -171 100 -22 47 -43 85 -46 86 -4 0 -10 -11 -13 -24 -7 -27 -40 -43 -59 -28 -7 5 -22 13 -34 16 -20 6 -23 4 -23 -17 0 -38 -32 -61 -75 -53 -32 6 -37 4 -42 -13 -3 -12 -12 -21 -20 -21 -16 0 -17 1 15 -90 11 -30 16 -59 12 -63 -4 -4 -22 1 -41 12 -87 50 -193 46 -292 -12 -87 -51 -132 -174 -108 -291 34 -163 116 -238 261 -240 67 -1 83 3 145 34 39 19 74 37 79 39 4 2 5 -29 2 -68 -6 -59 -4 -71 8 -71 8 0 18 -9 21 -21 6 -19 8 -19 31 -5 37 25 60 20 83 -19 18 -31 24 -34 40 -25 11 5 23 15 26 20 12 19 45 10 57 -15 6 -14 14 -25 17 -25 4 0 21 47 39 104 29 93 35 105 62 116 37 15 143 9 215 -14 95 -29 134 -65 208 -191 29 -48 74 -85 106 -85 63 0 154 98 170 184 17 91 -6 141 -120 265 -37 40 -75 88 -83 106 -31 64 -15 139 48 232 14 21 26 43 26 50 0 22 -20 14 -30 -12 -11 -29 -40 -34 -40 -6 0 16 -6 18 -38 14 -44 -6 -66 13 -67 55 0 24 -4 27 -39 28 -44 1 -57 16 -54 59 3 36 31 41 36 8 4 -26 42 -33 42 -8 0 23 18 18 36 -9 9 -15 21 -22 30 -19 8 3 14 0 14 -6 0 -6 -7 -11 -16 -11 -11 0 -14 -8 -12 -27 3 -27 4 -27 83 -28 l79 0 19 60 c26 84 17 149 -28 208 -62 81 -160 109 -226 64z m-902 -510 c4 -7 25 -23 45 -36 67 -40 100 -122 79 -197 -11 -37 -101 -144 -122 -144 -11 0 -22 41 -17 71 2 16 10 25 23 25 11 1 25 2 31 3 6 1 19 19 29 40 21 49 15 95 -20 135 -20 23 -29 27 -51 22 -31 -8 -44 5 -44 45 0 39 30 63 47 36z m-89 -69 c39 -39 -17 -100 -58 -63 -34 31 -20 75 25 75 12 0 26 -5 33 -12z m28 -204 c8 -30 -11 -54 -40 -54 -46 0 -62 48 -25 73 27 20 58 10 65 -19z m1149 16 c4 -6 8 -28 10 -50 3 -34 1 -40 -15 -40 -10 0 -20 -6 -23 -12 -2 -8 -8 -9 -13 -4 -5 5 -4 11 4 13 23 9 12 23 -18 23 -29 0 -30 -2 -28 -41 2 -46 -18 -69 -60 -69 -18 0 -23 -5 -20 -22 2 -17 -2 -23 -17 -23 -32 0 -33 59 -2 80 14 9 31 14 38 13 9 -2 14 9 15 36 1 45 23 66 66 66 21 0 28 5 28 20 0 21 24 28 35 10z" transform="translate(0,138) scale(0.1,-0.1)" stroke="none" fill="#AAC8C7"/>

</g>

<g id="1" transform="translate(0,138.0)scale(0.8,0.8)">

<path d="M580 174 c0 -10 7 -27 14 -36 14 -19 46 -24 46 -8 0 6 9 10 20 10 11 0 20 -4 20 -10 0 -5 8 -10 18 -10 10 0 24 -9 32 -20 15 -21 70 -28 70 -10 0 6 15 10 34 10 19 0 38 5 42 12 5 8 2 9 -9 5 -11 -4 -21 0 -29 12 -11 18 -12 18 -39 -1 -37 -27 -74 -18 -87 22 -11 31 -21 37 -37 21 -24 -22 -54 -22 -74 0 -20 21 -21 22 -21 3z" transform="translate(0,138) scale(0.1,-0.1)" stroke="none" fill="#AAC8C7"/>

<path d="M1339 1277 c-27 -18 -35 -30 -37 -60 -2 -20 -7 -37 -13 -37 -5 0 -9 -17 -9 -37 -1 -86 -112 -171 -274 -209 -101 -24 -119 -13 -171 100 -22 47 -43 85 -46 86 -4 0 -10 -11 -13 -24 -7 -27 -40 -43 -59 -28 -7 5 -22 13 -34 16 -20 6 -23 4 -23 -17 0 -38 -32 -61 -75 -53 -32 6 -37 4 -42 -13 -3 -12 -12 -21 -20 -21 -16 0 -17 1 15 -90 11 -30 16 -59 12 -63 -4 -4 -22 1 -41 12 -87 50 -193 46 -292 -12 -87 -51 -132 -174 -108 -291 34 -163 116 -238 261 -240 67 -1 83 3 145 34 39 19 74 37 79 39 4 2 5 -29 2 -68 -6 -59 -4 -71 8 -71 8 0 18 -9 21 -21 6 -19 8 -19 31 -5 37 25 60 20 83 -19 18 -31 24 -34 40 -25 11 5 23 15 26 20 12 19 45 10 57 -15 6 -14 14 -25 17 -25 4 0 21 47 39 104 29 93 35 105 62 116 37 15 143 9 215 -14 95 -29 134 -65 208 -191 29 -48 74 -85 106 -85 63 0 154 98 170 184 17 91 -6 141 -120 265 -37 40 -75 88 -83 106 -31 64 -15 139 48 232 14 21 26 43 26 50 0 22 -20 14 -30 -12 -11 -29 -40 -34 -40 -6 0 16 -6 18 -38 14 -44 -6 -66 13 -67 55 0 24 -4 27 -39 28 -44 1 -57 16 -54 59 3 36 31 41 36 8 4 -26 42 -33 42 -8 0 23 18 18 36 -9 9 -15 21 -22 30 -19 8 3 14 0 14 -6 0 -6 -7 -11 -16 -11 -11 0 -14 -8 -12 -27 3 -27 4 -27 83 -28 l79 0 19 60 c26 84 17 149 -28 208 -62 81 -160 109 -226 64z m-902 -510 c4 -7 25 -23 45 -36 67 -40 100 -122 79 -197 -11 -37 -101 -144 -122 -144 -11 0 -22 41 -17 71 2 16 10 25 23 25 11 1 25 2 31 3 6 1 19 19 29 40 21 49 15 95 -20 135 -20 23 -29 27 -51 22 -31 -8 -44 5 -44 45 0 39 30 63 47 36z m-89 -69 c39 -39 -17 -100 -58 -63 -34 31 -20 75 25 75 12 0 26 -5 33 -12z m28 -204 c8 -30 -11 -54 -40 -54 -46 0 -62 48 -25 73 27 20 58 10 65 -19z m1149 16 c4 -6 8 -28 10 -50 3 -34 1 -40 -15 -40 -10 0 -20 -6 -23 -12 -2 -8 -8 -9 -13 -4 -5 5 -4 11 4 13 23 9 12 23 -18 23 -29 0 -30 -2 -28 -41 2 -46 -18 -69 -60 -69 -18 0 -23 -5 -20 -22 2 -17 -2 -23 -17 -23 -32 0 -33 59 -2 80 14 9 31 14 38 13 9 -2 14 9 15 36 1 45 23 66 66 66 21 0 28 5 28 20 0 21 24 28 35 10z" transform="translate(0,138) scale(0.1,-0.1)" stroke="none" fill="#AAC8C7"/>

</g>

<g id="2" transform="translate(0,276.0)scale(0.8,0.8)">

<path d="M580 174 c0 -10 7 -27 14 -36 14 -19 46 -24 46 -8 0 6 9 10 20 10 11 0 20 -4 20 -10 0 -5 8 -10 18 -10 10 0 24 -9 32 -20 15 -21 70 -28 70 -10 0 6 15 10 34 10 19 0 38 5 42 12 5 8 2 9 -9 5 -11 -4 -21 0 -29 12 -11 18 -12 18 -39 -1 -37 -27 -74 -18 -87 22 -11 31 -21 37 -37 21 -24 -22 -54 -22 -74 0 -20 21 -21 22 -21 3z" transform="translate(0,138) scale(0.1,-0.1)" stroke="none" fill="#AAC8C7"/>

<path d="M1339 1277 c-27 -18 -35 -30 -37 -60 -2 -20 -7 -37 -13 -37 -5 0 -9 -17 -9 -37 -1 -86 -112 -171 -274 -209 -101 -24 -119 -13 -171 100 -22 47 -43 85 -46 86 -4 0 -10 -11 -13 -24 -7 -27 -40 -43 -59 -28 -7 5 -22 13 -34 16 -20 6 -23 4 -23 -17 0 -38 -32 -61 -75 -53 -32 6 -37 4 -42 -13 -3 -12 -12 -21 -20 -21 -16 0 -17 1 15 -90 11 -30 16 -59 12 -63 -4 -4 -22 1 -41 12 -87 50 -193 46 -292 -12 -87 -51 -132 -174 -108 -291 34 -163 116 -238 261 -240 67 -1 83 3 145 34 39 19 74 37 79 39 4 2 5 -29 2 -68 -6 -59 -4 -71 8 -71 8 0 18 -9 21 -21 6 -19 8 -19 31 -5 37 25 60 20 83 -19 18 -31 24 -34 40 -25 11 5 23 15 26 20 12 19 45 10 57 -15 6 -14 14 -25 17 -25 4 0 21 47 39 104 29 93 35 105 62 116 37 15 143 9 215 -14 95 -29 134 -65 208 -191 29 -48 74 -85 106 -85 63 0 154 98 170 184 17 91 -6 141 -120 265 -37 40 -75 88 -83 106 -31 64 -15 139 48 232 14 21 26 43 26 50 0 22 -20 14 -30 -12 -11 -29 -40 -34 -40 -6 0 16 -6 18 -38 14 -44 -6 -66 13 -67 55 0 24 -4 27 -39 28 -44 1 -57 16 -54 59 3 36 31 41 36 8 4 -26 42 -33 42 -8 0 23 18 18 36 -9 9 -15 21 -22 30 -19 8 3 14 0 14 -6 0 -6 -7 -11 -16 -11 -11 0 -14 -8 -12 -27 3 -27 4 -27 83 -28 l79 0 19 60 c26 84 17 149 -28 208 -62 81 -160 109 -226 64z m-902 -510 c4 -7 25 -23 45 -36 67 -40 100 -122 79 -197 -11 -37 -101 -144 -122 -144 -11 0 -22 41 -17 71 2 16 10 25 23 25 11 1 25 2 31 3 6 1 19 19 29 40 21 49 15 95 -20 135 -20 23 -29 27 -51 22 -31 -8 -44 5 -44 45 0 39 30 63 47 36z m-89 -69 c39 -39 -17 -100 -58 -63 -34 31 -20 75 25 75 12 0 26 -5 33 -12z m28 -204 c8 -30 -11 -54 -40 -54 -46 0 -62 48 -25 73 27 20 58 10 65 -19z m1149 16 c4 -6 8 -28 10 -50 3 -34 1 -40 -15 -40 -10 0 -20 -6 -23 -12 -2 -8 -8 -9 -13 -4 -5 5 -4 11 4 13 23 9 12 23 -18 23 -29 0 -30 -2 -28 -41 2 -46 -18 -69 -60 -69 -18 0 -23 -5 -20 -22 2 -17 -2 -23 -17 -23 -32 0 -33 59 -2 80 14 9 31 14 38 13 9 -2 14 9 15 36 1 45 23 66 66 66 21 0 28 5 28 20 0 21 24 28 35 10z" transform="translate(0,138) scale(0.1,-0.1)" stroke="none" fill="#AAC8C7"/>

</g>

<g id="3" transform="translate(0,414.0)scale(0.8,0.8)">

<path d="M580 174 c0 -10 7 -27 14 -36 14 -19 46 -24 46 -8 0 6 9 10 20 10 11 0 20 -4 20 -10 0 -5 8 -10 18 -10 10 0 24 -9 32 -20 15 -21 70 -28 70 -10 0 6 15 10 34 10 19 0 38 5 42 12 5 8 2 9 -9 5 -11 -4 -21 0 -29 12 -11 18 -12 18 -39 -1 -37 -27 -74 -18 -87 22 -11 31 -21 37 -37 21 -24 -22 -54 -22 -74 0 -20 21 -21 22 -21 3z" transform="translate(0,138) scale(0.1,-0.1)" stroke="none" fill="#AAC8C7"/>

<path d="M1339 1277 c-27 -18 -35 -30 -37 -60 -2 -20 -7 -37 -13 -37 -5 0 -9 -17 -9 -37 -1 -86 -112 -171 -274 -209 -101 -24 -119 -13 -171 100 -22 47 -43 85 -46 86 -4 0 -10 -11 -13 -24 -7 -27 -40 -43 -59 -28 -7 5 -22 13 -34 16 -20 6 -23 4 -23 -17 0 -38 -32 -61 -75 -53 -32 6 -37 4 -42 -13 -3 -12 -12 -21 -20 -21 -16 0 -17 1 15 -90 11 -30 16 -59 12 -63 -4 -4 -22 1 -41 12 -87 50 -193 46 -292 -12 -87 -51 -132 -174 -108 -291 34 -163 116 -238 261 -240 67 -1 83 3 145 34 39 19 74 37 79 39 4 2 5 -29 2 -68 -6 -59 -4 -71 8 -71 8 0 18 -9 21 -21 6 -19 8 -19 31 -5 37 25 60 20 83 -19 18 -31 24 -34 40 -25 11 5 23 15 26 20 12 19 45 10 57 -15 6 -14 14 -25 17 -25 4 0 21 47 39 104 29 93 35 105 62 116 37 15 143 9 215 -14 95 -29 134 -65 208 -191 29 -48 74 -85 106 -85 63 0 154 98 170 184 17 91 -6 141 -120 265 -37 40 -75 88 -83 106 -31 64 -15 139 48 232 14 21 26 43 26 50 0 22 -20 14 -30 -12 -11 -29 -40 -34 -40 -6 0 16 -6 18 -38 14 -44 -6 -66 13 -67 55 0 24 -4 27 -39 28 -44 1 -57 16 -54 59 3 36 31 41 36 8 4 -26 42 -33 42 -8 0 23 18 18 36 -9 9 -15 21 -22 30 -19 8 3 14 0 14 -6 0 -6 -7 -11 -16 -11 -11 0 -14 -8 -12 -27 3 -27 4 -27 83 -28 l79 0 19 60 c26 84 17 149 -28 208 -62 81 -160 109 -226 64z m-902 -510 c4 -7 25 -23 45 -36 67 -40 100 -122 79 -197 -11 -37 -101 -144 -122 -144 -11 0 -22 41 -17 71 2 16 10 25 23 25 11 1 25 2 31 3 6 1 19 19 29 40 21 49 15 95 -20 135 -20 23 -29 27 -51 22 -31 -8 -44 5 -44 45 0 39 30 63 47 36z m-89 -69 c39 -39 -17 -100 -58 -63 -34 31 -20 75 25 75 12 0 26 -5 33 -12z m28 -204 c8 -30 -11 -54 -40 -54 -46 0 -62 48 -25 73 27 20 58 10 65 -19z m1149 16 c4 -6 8 -28 10 -50 3 -34 1 -40 -15 -40 -10 0 -20 -6 -23 -12 -2 -8 -8 -9 -13 -4 -5 5 -4 11 4 13 23 9 12 23 -18 23 -29 0 -30 -2 -28 -41 2 -46 -18 -69 -60 -69 -18 0 -23 -5 -20 -22 2 -17 -2 -23 -17 -23 -32 0 -33 59 -2 80 14 9 31 14 38 13 9 -2 14 9 15 36 1 45 23 66 66 66 21 0 28 5 28 20 0 21 24 28 35 10z" transform="translate(0,138) scale(0.1,-0.1)" stroke="none" fill="#AAC8C7"/>

</g>

<g id="4" transform="translate(0,552.0)scale(0.8,0.8)">

<path d="M580 174 c0 -10 7 -27 14 -36 14 -19 46 -24 46 -8 0 6 9 10 20 10 11 0 20 -4 20 -10 0 -5 8 -10 18 -10 10 0 24 -9 32 -20 15 -21 70 -28 70 -10 0 6 15 10 34 10 19 0 38 5 42 12 5 8 2 9 -9 5 -11 -4 -21 0 -29 12 -11 18 -12 18 -39 -1 -37 -27 -74 -18 -87 22 -11 31 -21 37 -37 21 -24 -22 -54 -22 -74 0 -20 21 -21 22 -21 3z" transform="translate(0,138) scale(0.1,-0.1)" stroke="none" fill="#AAC8C7"/>

<path d="M1339 1277 c-27 -18 -35 -30 -37 -60 -2 -20 -7 -37 -13 -37 -5 0 -9 -17 -9 -37 -1 -86 -112 -171 -274 -209 -101 -24 -119 -13 -171 100 -22 47 -43 85 -46 86 -4 0 -10 -11 -13 -24 -7 -27 -40 -43 -59 -28 -7 5 -22 13 -34 16 -20 6 -23 4 -23 -17 0 -38 -32 -61 -75 -53 -32 6 -37 4 -42 -13 -3 -12 -12 -21 -20 -21 -16 0 -17 1 15 -90 11 -30 16 -59 12 -63 -4 -4 -22 1 -41 12 -87 50 -193 46 -292 -12 -87 -51 -132 -174 -108 -291 34 -163 116 -238 261 -240 67 -1 83 3 145 34 39 19 74 37 79 39 4 2 5 -29 2 -68 -6 -59 -4 -71 8 -71 8 0 18 -9 21 -21 6 -19 8 -19 31 -5 37 25 60 20 83 -19 18 -31 24 -34 40 -25 11 5 23 15 26 20 12 19 45 10 57 -15 6 -14 14 -25 17 -25 4 0 21 47 39 104 29 93 35 105 62 116 37 15 143 9 215 -14 95 -29 134 -65 208 -191 29 -48 74 -85 106 -85 63 0 154 98 170 184 17 91 -6 141 -120 265 -37 40 -75 88 -83 106 -31 64 -15 139 48 232 14 21 26 43 26 50 0 22 -20 14 -30 -12 -11 -29 -40 -34 -40 -6 0 16 -6 18 -38 14 -44 -6 -66 13 -67 55 0 24 -4 27 -39 28 -44 1 -57 16 -54 59 3 36 31 41 36 8 4 -26 42 -33 42 -8 0 23 18 18 36 -9 9 -15 21 -22 30 -19 8 3 14 0 14 -6 0 -6 -7 -11 -16 -11 -11 0 -14 -8 -12 -27 3 -27 4 -27 83 -28 l79 0 19 60 c26 84 17 149 -28 208 -62 81 -160 109 -226 64z m-902 -510 c4 -7 25 -23 45 -36 67 -40 100 -122 79 -197 -11 -37 -101 -144 -122 -144 -11 0 -22 41 -17 71 2 16 10 25 23 25 11 1 25 2 31 3 6 1 19 19 29 40 21 49 15 95 -20 135 -20 23 -29 27 -51 22 -31 -8 -44 5 -44 45 0 39 30 63 47 36z m-89 -69 c39 -39 -17 -100 -58 -63 -34 31 -20 75 25 75 12 0 26 -5 33 -12z m28 -204 c8 -30 -11 -54 -40 -54 -46 0 -62 48 -25 73 27 20 58 10 65 -19z m1149 16 c4 -6 8 -28 10 -50 3 -34 1 -40 -15 -40 -10 0 -20 -6 -23 -12 -2 -8 -8 -9 -13 -4 -5 5 -4 11 4 13 23 9 12 23 -18 23 -29 0 -30 -2 -28 -41 2 -46 -18 -69 -60 -69 -18 0 -23 -5 -20 -22 2 -17 -2 -23 -17 -23 -32 0 -33 59 -2 80 14 9 31 14 38 13 9 -2 14 9 15 36 1 45 23 66 66 66 21 0 28 5 28 20 0 21 24 28 35 10z" transform="translate(0,138) scale(0.1,-0.1)" stroke="none" fill="#AAC8C7"/>

</g>

</g>
</svg>