<?xml version="1.0" standalone="no"?>
<!DOCTYPE svg PUBLIC "-//W3C//DTD SVG 20010904//EN"
 "http://www.w3.org/TR/2001/REC-SVG-20010904/DTD/svg10.dtd">
<svg version="1.0" xmlns="http://www.w3.org/2000/svg" width="264pt" height="344pt" viewBox="0 0 264 344" preserveAspectRatio = "xMidYMid meet" >
<metadata>
Created by ZoeQu, written in 2022
</metadata>
<rect width="264" height="344" fill="#BBBBDD"/>
<g id="row0" transform="translate(8,0.0)">
<g id="0" transform="translate(0.0,0)scale(1,1)">

<path d="M622 365 c0 -81 1 -86 10 -48 7 28 7 57 0 90 -9 46 -10 44 -10 -42z" transform="translate(0,86) scale(0.1,-0.1)" stroke="none" fill="#3970D6"/>

<path d="M611 259 c-2 -28 -90 -199 -105 -205 -9 -3 -28 -2 -43 3 -24 8 -29 16 -34 59 l-6 49 -1 -51 c-2 -48 0 -52 27 -64 56 -23 70 -13 123 92 28 53 48 104 45 115 -3 13 -5 14 -6 2z" transform="translate(0,86) scale(0.1,-0.1)" stroke="none" fill="#3970D6"/>

<path d="M170 772 c0 -4 12 -16 27 -27 92 -68 125 -101 167 -163 55 -83 87 -154 117 -256 12 -42 26 -76 30 -76 14 0 22 68 17 149 -6 108 -55 197 -152 281 -79 68 -206 125 -206 92z m93 -27 c20 -8 69 -44 109 -79 104 -91 142 -166 146 -293 2 -52 0 -93 -5 -93 -5 0 -15 23 -22 52 -43 166 -151 329 -271 410 -33 22 -6 24 43 3z" transform="translate(0,86) scale(0.1,-0.1)" stroke="none" fill="#3970D6"/>

<path d="M88 811 c-50 -7 -69 -18 -52 -29 58 -39 170 -131 192 -157 67 -83 144 -246 177 -380 9 -34 13 -42 14 -24 1 35 -61 205 -106 292 -45 85 -103 150 -193 217 -39 29 -70 56 -70 60 0 4 42 11 94 15 86 7 101 5 175 -20 135 -45 237 -145 282 -279 11 -32 18 -42 18 -28 1 31 -62 153 -97 188 -127 127 -255 170 -434 145z" transform="translate(0,86) scale(0.1,-0.1)" stroke="none" fill="#3970D6"/>

<path d="M98 803 c-27 -2 -48 -8 -48 -13 0 -4 31 -31 70 -60 90 -67 148 -132 193 -217 62 -119 98 -229 110 -342 12 -101 13 -105 40 -114 15 -5 34 -6 43 -3 8 3 36 50 62 103 43 90 47 105 51 186 2 51 -2 109 -9 135 -39 143 -148 260 -287 306 -76 25 -108 28 -225 19z m155 -43 c82 -31 184 -125 232 -212 33 -61 39 -83 43 -149 5 -81 -3 -149 -17 -149 -4 0 -18 34 -30 76 -30 102 -62 173 -117 256 -42 62 -75 95 -167 163 -53 39 -27 46 56 15z" transform="translate(0,86) scale(0.1,-0.1)" stroke="none" fill="#73A5DE"/>

</g>

<g id="1" transform="translate(66.0,0)scale(1,1)">

<path d="M622 365 c0 -81 1 -86 10 -48 7 28 7 57 0 90 -9 46 -10 44 -10 -42z" transform="translate(0,86) scale(0.1,-0.1)" stroke="none" fill="#3970D6"/>

<path d="M611 259 c-2 -28 -90 -199 -105 -205 -9 -3 -28 -2 -43 3 -24 8 -29 16 -34 59 l-6 49 -1 -51 c-2 -48 0 -52 27 -64 56 -23 70 -13 123 92 28 53 48 104 45 115 -3 13 -5 14 -6 2z" transform="translate(0,86) scale(0.1,-0.1)" stroke="none" fill="#3970D6"/>

<path d="M170 772 c0 -4 12 -16 27 -27 92 -68 125 -101 167 -163 55 -83 87 -154 117 -256 12 -42 26 -76 30 -76 14 0 22 68 17 149 -6 108 -55 197 -152 281 -79 68 -206 125 -206 92z m93 -27 c20 -8 69 -44 109 -79 104 -91 142 -166 146 -293 2 -52 0 -93 -5 -93 -5 0 -15 23 -22 52 -43 166 -151 329 -271 410 -33 22 -6 24 43 3z" transform="translate(0,86) scale(0.1,-0.1)" stroke="none" fill="#3970D6"/>

<path d="M88 811 c-50 -7 -69 -18 -52 -29 58 -39 170 -131 192 -157 67 -83 144 -246 177 -380 9 -34 13 -42 14 -24 1 35 -61 205 -106 292 -45 85 -103 150 -193 217 -39 29 -70 56 -70 60 0 4 42 11 94 15 86 7 101 5 175 -20 135 -45 237 -145 282 -279 11 -32 18 -42 18 -28 1 31 -62 153 -97 188 -127 127 -255 170 -434 145z" transform="translate(0,86) scale(0.1,-0.1)" stroke="none" fill="#3970D6"/>

<path d="M98 803 c-27 -2 -48 -8 -48 -13 0 -4 31 -31 70 -60 90 -67 148 -132 193 -217 62 -119 98 -229 110 -342 12 -101 13 -105 40 -114 15 -5 34 -6 43 -3 8 3 36 50 62 103 43 90 47 105 51 186 2 51 -2 109 -9 135 -39 143 -148 260 -287 306 -76 25 -108 28 -225 19z m155 -43 c82 -31 184 -125 232 -212 33 -61 39 -83 43 -149 5 -81 -3 -149 -17 -149 -4 0 -18 34 -30 76 -30 102 -62 173 -117 256 -42 62 -75 95 -167 163 -53 39 -27 46 56 15z" transform="translate(0,86) scale(0.1,-0.1)" stroke="none" fill="#73A5DE"/>

</g>

<g id="2" transform="translate(132.0,0)scale(1,1)">

<path d="M622 365 c0 -81 1 -86 10 -48 7 28 7 57 0 90 -9 46 -10 44 -10 -42z" transform="translate(0,86) scale(0.1,-0.1)" stroke="none" fill="#3970D6"/>

<path d="M611 259 c-2 -28 -90 -199 -105 -205 -9 -3 -28 -2 -43 3 -24 8 -29 16 -34 59 l-6 49 -1 -51 c-2 -48 0 -52 27 -64 56 -23 70 -13 123 92 28 53 48 104 45 115 -3 13 -5 14 -6 2z" transform="translate(0,86) scale(0.1,-0.1)" stroke="none" fill="#3970D6"/>

<path d="M170 772 c0 -4 12 -16 27 -27 92 -68 125 -101 167 -163 55 -83 87 -154 117 -256 12 -42 26 -76 30 -76 14 0 22 68 17 149 -6 108 -55 197 -152 281 -79 68 -206 125 -206 92z m93 -27 c20 -8 69 -44 109 -79 104 -91 142 -166 146 -293 2 -52 0 -93 -5 -93 -5 0 -15 23 -22 52 -43 166 -151 329 -271 410 -33 22 -6 24 43 3z" transform="translate(0,86) scale(0.1,-0.1)" stroke="none" fill="#3970D6"/>

<path d="M88 811 c-50 -7 -69 -18 -52 -29 58 -39 170 -131 192 -157 67 -83 144 -246 177 -380 9 -34 13 -42 14 -24 1 35 -61 205 -106 292 -45 85 -103 150 -193 217 -39 29 -70 56 -70 60 0 4 42 11 94 15 86 7 101 5 175 -20 135 -45 237 -145 282 -279 11 -32 18 -42 18 -28 1 31 -62 153 -97 188 -127 127 -255 170 -434 145z" transform="translate(0,86) scale(0.1,-0.1)" stroke="none" fill="#3970D6"/>

<path d="M98 803 c-27 -2 -48 -8 -48 -13 0 -4 31 -31 70 -60 90 -67 148 -132 193 -217 62 -119 98 -229 110 -342 12 -101 13 -105 40 -114 15 -5 34 -6 43 -3 8 3 36 50 62 103 43 90 47 105 51 186 2 51 -2 109 -9 135 -39 143 -148 260 -287 306 -76 25 -108 28 -225 19z m155 -43 c82 -31 184 -125 232 -212 33 -61 39 -83 43 -149 5 -81 -3 -149 -17 -149 -4 0 -18 34 -30 76 -30 102 -62 173 -117 256 -42 62 -75 95 -167 163 -53 39 -27 46 56 15z" transform="translate(0,86) scale(0.1,-0.1)" stroke="none" fill="#73A5DE"/>

</g>

<g id="3" transform="translate(198.0,0)scale(1,1)">

<path d="M622 365 c0 -81 1 -86 10 -48 7 28 7 57 0 90 -9 46 -10 44 -10 -42z" transform="translate(0,86) scale(0.1,-0.1)" stroke="none" fill="#3970D6"/>

<path d="M611 259 c-2 -28 -90 -199 -105 -205 -9 -3 -28 -2 -43 3 -24 8 -29 16 -34 59 l-6 49 -1 -51 c-2 -48 0 -52 27 -64 56 -23 70 -13 123 92 28 53 48 104 45 115 -3 13 -5 14 -6 2z" transform="translate(0,86) scale(0.1,-0.1)" stroke="none" fill="#3970D6"/>

<path d="M170 772 c0 -4 12 -16 27 -27 92 -68 125 -101 167 -163 55 -83 87 -154 117 -256 12 -42 26 -76 30 -76 14 0 22 68 17 149 -6 108 -55 197 -152 281 -79 68 -206 125 -206 92z m93 -27 c20 -8 69 -44 109 -79 104 -91 142 -166 146 -293 2 -52 0 -93 -5 -93 -5 0 -15 23 -22 52 -43 166 -151 329 -271 410 -33 22 -6 24 43 3z" transform="translate(0,86) scale(0.1,-0.1)" stroke="none" fill="#3970D6"/>

<path d="M88 811 c-50 -7 -69 -18 -52 -29 58 -39 170 -131 192 -157 67 -83 144 -246 177 -380 9 -34 13 -42 14 -24 1 35 -61 205 -106 292 -45 85 -103 150 -193 217 -39 29 -70 56 -70 60 0 4 42 11 94 15 86 7 101 5 175 -20 135 -45 237 -145 282 -279 11 -32 18 -42 18 -28 1 31 -62 153 -97 188 -127 127 -255 170 -434 145z" transform="translate(0,86) scale(0.1,-0.1)" stroke="none" fill="#3970D6"/>

<path d="M98 803 c-27 -2 -48 -8 -48 -13 0 -4 31 -31 70 -60 90 -67 148 -132 193 -217 62 -119 98 -229 110 -342 12 -101 13 -105 40 -114 15 -5 34 -6 43 -3 8 3 36 50 62 103 43 90 47 105 51 186 2 51 -2 109 -9 135 -39 143 -148 260 -287 306 -76 25 -108 28 -225 19z m155 -43 c82 -31 184 -125 232 -212 33 -61 39 -83 43 -149 5 -81 -3 -149 -17 -149 -4 0 -18 34 -30 76 -30 102 -62 173 -117 256 -42 62 -75 95 -167 163 -53 39 -27 46 56 15z" transform="translate(0,86) scale(0.1,-0.1)" stroke="none" fill="#73A5DE"/>

</g>

<g id="4" transform="translate(264.0,0)scale(1,1)">

<path d="M622 365 c0 -81 1 -86 10 -48 7 28 7 57 0 90 -9 46 -10 44 -10 -42z" transform="translate(0,86) scale(0.1,-0.1)" stroke="none" fill="#3970D6"/>

<path d="M611 259 c-2 -28 -90 -199 -105 -205 -9 -3 -28 -2 -43 3 -24 8 -29 16 -34 59 l-6 49 -1 -51 c-2 -48 0 -52 27 -64 56 -23 70 -13 123 92 28 53 48 104 45 115 -3 13 -5 14 -6 2z" transform="translate(0,86) scale(0.1,-0.1)" stroke="none" fill="#3970D6"/>

<path d="M170 772 c0 -4 12 -16 27 -27 92 -68 125 -101 167 -163 55 -83 87 -154 117 -256 12 -42 26 -76 30 -76 14 0 22 68 17 149 -6 108 -55 197 -152 281 -79 68 -206 125 -206 92z m93 -27 c20 -8 69 -44 109 -79 104 -91 142 -166 146 -293 2 -52 0 -93 -5 -93 -5 0 -15 23 -22 52 -43 166 -151 329 -271 410 -33 22 -6 24 43 3z" transform="translate(0,86) scale(0.1,-0.1)" stroke="none" fill="#3970D6"/>

<path d="M88 811 c-50 -7 -69 -18 -52 -29 58 -39 170 -131 192 -157 67 -83 144 -246 177 -380 9 -34 13 -42 14 -24 1 35 -61 205 -106 292 -45 85 -103 150 -193 217 -39 29 -70 56 -70 60 0 4 42 11 94 15 86 7 101 5 175 -20 135 -45 237 -145 282 -279 11 -32 18 -42 18 -28 1 31 -62 153 -97 188 -127 127 -255 170 -434 145z" transform="translate(0,86) scale(0.1,-0.1)" stroke="none" fill="#3970D6"/>

<path d="M98 803 c-27 -2 -48 -8 -48 -13 0 -4 31 -31 70 -60 90 -67 148 -132 193 -217 62 -119 98 -229 110 -342 12 -101 13 -105 40 -114 15 -5 34 -6 43 -3 8 3 36 50 62 103 43 90 47 105 51 186 2 51 -2 109 -9 135 -39 143 -148 260 -287 306 -76 25 -108 28 -225 19z m155 -43 c82 -31 184 -125 232 -212 33 -61 39 -83 43 -149 5 -81 -3 -149 -17 -149 -4 0 -18 34 -30 76 -30 102 -62 173 -117 256 -42 62 -75 95 -167 163 -53 39 -27 46 56 15z" transform="translate(0,86) scale(0.1,-0.1)" stroke="none" fill="#73A5DE"/>

</g>

</g>
<g id="row1" transform="translate(8,86.0)">
<g id="0" transform="translate(0.0,0)scale(1,1)">

<path d="M622 365 c0 -81 1 -86 10 -48 7 28 7 57 0 90 -9 46 -10 44 -10 -42z" transform="translate(0,86) scale(0.1,-0.1)" stroke="none" fill="#3970D6"/>

<path d="M611 259 c-2 -28 -90 -199 -105 -205 -9 -3 -28 -2 -43 3 -24 8 -29 16 -34 59 l-6 49 -1 -51 c-2 -48 0 -52 27 -64 56 -23 70 -13 123 92 28 53 48 104 45 115 -3 13 -5 14 -6 2z" transform="translate(0,86) scale(0.1,-0.1)" stroke="none" fill="#3970D6"/>

<path d="M170 772 c0 -4 12 -16 27 -27 92 -68 125 -101 167 -163 55 -83 87 -154 117 -256 12 -42 26 -76 30 -76 14 0 22 68 17 149 -6 108 -55 197 -152 281 -79 68 -206 125 -206 92z m93 -27 c20 -8 69 -44 109 -79 104 -91 142 -166 146 -293 2 -52 0 -93 -5 -93 -5 0 -15 23 -22 52 -43 166 -151 329 -271 410 -33 22 -6 24 43 3z" transform="translate(0,86) scale(0.1,-0.1)" stroke="none" fill="#3970D6"/>

<path d="M88 811 c-50 -7 -69 -18 -52 -29 58 -39 170 -131 192 -157 67 -83 144 -246 177 -380 9 -34 13 -42 14 -24 1 35 -61 205 -106 292 -45 85 -103 150 -193 217 -39 29 -70 56 -70 60 0 4 42 11 94 15 86 7 101 5 175 -20 135 -45 237 -145 282 -279 11 -32 18 -42 18 -28 1 31 -62 153 -97 188 -127 127 -255 170 -434 145z" transform="translate(0,86) scale(0.1,-0.1)" stroke="none" fill="#3970D6"/>

<path d="M98 803 c-27 -2 -48 -8 -48 -13 0 -4 31 -31 70 -60 90 -67 148 -132 193 -217 62 -119 98 -229 110 -342 12 -101 13 -105 40 -114 15 -5 34 -6 43 -3 8 3 36 50 62 103 43 90 47 105 51 186 2 51 -2 109 -9 135 -39 143 -148 260 -287 306 -76 25 -108 28 -225 19z m155 -43 c82 -31 184 -125 232 -212 33 -61 39 -83 43 -149 5 -81 -3 -149 -17 -149 -4 0 -18 34 -30 76 -30 102 -62 173 -117 256 -42 62 -75 95 -167 163 -53 39 -27 46 56 15z" transform="translate(0,86) scale(0.1,-0.1)" stroke="none" fill="#73A5DE"/>

</g>

<g id="1" transform="translate(66.0,0)scale(1,1)">

<path d="M622 365 c0 -81 1 -86 10 -48 7 28 7 57 0 90 -9 46 -10 44 -10 -42z" transform="translate(0,86) scale(0.1,-0.1)" stroke="none" fill="#3970D6"/>

<path d="M611 259 c-2 -28 -90 -199 -105 -205 -9 -3 -28 -2 -43 3 -24 8 -29 16 -34 59 l-6 49 -1 -51 c-2 -48 0 -52 27 -64 56 -23 70 -13 123 92 28 53 48 104 45 115 -3 13 -5 14 -6 2z" transform="translate(0,86) scale(0.1,-0.1)" stroke="none" fill="#3970D6"/>

<path d="M170 772 c0 -4 12 -16 27 -27 92 -68 125 -101 167 -163 55 -83 87 -154 117 -256 12 -42 26 -76 30 -76 14 0 22 68 17 149 -6 108 -55 197 -152 281 -79 68 -206 125 -206 92z m93 -27 c20 -8 69 -44 109 -79 104 -91 142 -166 146 -293 2 -52 0 -93 -5 -93 -5 0 -15 23 -22 52 -43 166 -151 329 -271 410 -33 22 -6 24 43 3z" transform="translate(0,86) scale(0.1,-0.1)" stroke="none" fill="#3970D6"/>

<path d="M88 811 c-50 -7 -69 -18 -52 -29 58 -39 170 -131 192 -157 67 -83 144 -246 177 -380 9 -34 13 -42 14 -24 1 35 -61 205 -106 292 -45 85 -103 150 -193 217 -39 29 -70 56 -70 60 0 4 42 11 94 15 86 7 101 5 175 -20 135 -45 237 -145 282 -279 11 -32 18 -42 18 -28 1 31 -62 153 -97 188 -127 127 -255 170 -434 145z" transform="translate(0,86) scale(0.1,-0.1)" stroke="none" fill="#3970D6"/>

<path d="M98 803 c-27 -2 -48 -8 -48 -13 0 -4 31 -31 70 -60 90 -67 148 -132 193 -217 62 -119 98 -229 110 -342 12 -101 13 -105 40 -114 15 -5 34 -6 43 -3 8 3 36 50 62 103 43 90 47 105 51 186 2 51 -2 109 -9 135 -39 143 -148 260 -287 306 -76 25 -108 28 -225 19z m155 -43 c82 -31 184 -125 232 -212 33 -61 39 -83 43 -149 5 -81 -3 -149 -17 -149 -4 0 -18 34 -30 76 -30 102 -62 173 -117 256 -42 62 -75 95 -167 163 -53 39 -27 46 56 15z" transform="translate(0,86) scale(0.1,-0.1)" stroke="none" fill="#73A5DE"/>

</g>

<g id="2" transform="translate(132.0,0)scale(1,1)">

<path d="M622 365 c0 -81 1 -86 10 -48 7 28 7 57 0 90 -9 46 -10 44 -10 -42z" transform="translate(0,86) scale(0.1,-0.1)" stroke="none" fill="#3970D6"/>

<path d="M611 259 c-2 -28 -90 -199 -105 -205 -9 -3 -28 -2 -43 3 -24 8 -29 16 -34 59 l-6 49 -1 -51 c-2 -48 0 -52 27 -64 56 -23 70 -13 123 92 28 53 48 104 45 115 -3 13 -5 14 -6 2z" transform="translate(0,86) scale(0.1,-0.1)" stroke="none" fill="#3970D6"/>

<path d="M170 772 c0 -4 12 -16 27 -27 92 -68 125 -101 167 -163 55 -83 87 -154 117 -256 12 -42 26 -76 30 -76 14 0 22 68 17 149 -6 108 -55 197 -152 281 -79 68 -206 125 -206 92z m93 -27 c20 -8 69 -44 109 -79 104 -91 142 -166 146 -293 2 -52 0 -93 -5 -93 -5 0 -15 23 -22 52 -43 166 -151 329 -271 410 -33 22 -6 24 43 3z" transform="translate(0,86) scale(0.1,-0.1)" stroke="none" fill="#3970D6"/>

<path d="M88 811 c-50 -7 -69 -18 -52 -29 58 -39 170 -131 192 -157 67 -83 144 -246 177 -380 9 -34 13 -42 14 -24 1 35 -61 205 -106 292 -45 85 -103 150 -193 217 -39 29 -70 56 -70 60 0 4 42 11 94 15 86 7 101 5 175 -20 135 -45 237 -145 282 -279 11 -32 18 -42 18 -28 1 31 -62 153 -97 188 -127 127 -255 170 -434 145z" transform="translate(0,86) scale(0.1,-0.1)" stroke="none" fill="#3970D6"/>

<path d="M98 803 c-27 -2 -48 -8 -48 -13 0 -4 31 -31 70 -60 90 -67 148 -132 193 -217 62 -119 98 -229 110 -342 12 -101 13 -105 40 -114 15 -5 34 -6 43 -3 8 3 36 50 62 103 43 90 47 105 51 186 2 51 -2 109 -9 135 -39 143 -148 260 -287 306 -76 25 -108 28 -225 19z m155 -43 c82 -31 184 -125 232 -212 33 -61 39 -83 43 -149 5 -81 -3 -149 -17 -149 -4 0 -18 34 -30 76 -30 102 -62 173 -117 256 -42 62 -75 95 -167 163 -53 39 -27 46 56 15z" transform="translate(0,86) scale(0.1,-0.1)" stroke="none" fill="#73A5DE"/>

</g>

<g id="3" transform="translate(198.0,0)scale(1,1)">

<path d="M622 365 c0 -81 1 -86 10 -48 7 28 7 57 0 90 -9 46 -10 44 -10 -42z" transform="translate(0,86) scale(0.1,-0.1)" stroke="none" fill="#3970D6"/>

<path d="M611 259 c-2 -28 -90 -199 -105 -205 -9 -3 -28 -2 -43 3 -24 8 -29 16 -34 59 l-6 49 -1 -51 c-2 -48 0 -52 27 -64 56 -23 70 -13 123 92 28 53 48 104 45 115 -3 13 -5 14 -6 2z" transform="translate(0,86) scale(0.1,-0.1)" stroke="none" fill="#3970D6"/>

<path d="M170 772 c0 -4 12 -16 27 -27 92 -68 125 -101 167 -163 55 -83 87 -154 117 -256 12 -42 26 -76 30 -76 14 0 22 68 17 149 -6 108 -55 197 -152 281 -79 68 -206 125 -206 92z m93 -27 c20 -8 69 -44 109 -79 104 -91 142 -166 146 -293 2 -52 0 -93 -5 -93 -5 0 -15 23 -22 52 -43 166 -151 329 -271 410 -33 22 -6 24 43 3z" transform="translate(0,86) scale(0.1,-0.1)" stroke="none" fill="#3970D6"/>

<path d="M88 811 c-50 -7 -69 -18 -52 -29 58 -39 170 -131 192 -157 67 -83 144 -246 177 -380 9 -34 13 -42 14 -24 1 35 -61 205 -106 292 -45 85 -103 150 -193 217 -39 29 -70 56 -70 60 0 4 42 11 94 15 86 7 101 5 175 -20 135 -45 237 -145 282 -279 11 -32 18 -42 18 -28 1 31 -62 153 -97 188 -127 127 -255 170 -434 145z" transform="translate(0,86) scale(0.1,-0.1)" stroke="none" fill="#3970D6"/>

<path d="M98 803 c-27 -2 -48 -8 -48 -13 0 -4 31 -31 70 -60 90 -67 148 -132 193 -217 62 -119 98 -229 110 -342 12 -101 13 -105 40 -114 15 -5 34 -6 43 -3 8 3 36 50 62 103 43 90 47 105 51 186 2 51 -2 109 -9 135 -39 143 -148 260 -287 306 -76 25 -108 28 -225 19z m155 -43 c82 -31 184 -125 232 -212 33 -61 39 -83 43 -149 5 -81 -3 -149 -17 -149 -4 0 -18 34 -30 76 -30 102 -62 173 -117 256 -42 62 -75 95 -167 163 -53 39 -27 46 56 15z" transform="translate(0,86) scale(0.1,-0.1)" stroke="none" fill="#73A5DE"/>

</g>

<g id="4" transform="translate(264.0,0)scale(1,1)">

<path d="M622 365 c0 -81 1 -86 10 -48 7 28 7 57 0 90 -9 46 -10 44 -10 -42z" transform="translate(0,86) scale(0.1,-0.1)" stroke="none" fill="#3970D6"/>

<path d="M611 259 c-2 -28 -90 -199 -105 -205 -9 -3 -28 -2 -43 3 -24 8 -29 16 -34 59 l-6 49 -1 -51 c-2 -48 0 -52 27 -64 56 -23 70 -13 123 92 28 53 48 104 45 115 -3 13 -5 14 -6 2z" transform="translate(0,86) scale(0.1,-0.1)" stroke="none" fill="#3970D6"/>

<path d="M170 772 c0 -4 12 -16 27 -27 92 -68 125 -101 167 -163 55 -83 87 -154 117 -256 12 -42 26 -76 30 -76 14 0 22 68 17 149 -6 108 -55 197 -152 281 -79 68 -206 125 -206 92z m93 -27 c20 -8 69 -44 109 -79 104 -91 142 -166 146 -293 2 -52 0 -93 -5 -93 -5 0 -15 23 -22 52 -43 166 -151 329 -271 410 -33 22 -6 24 43 3z" transform="translate(0,86) scale(0.1,-0.1)" stroke="none" fill="#3970D6"/>

<path d="M88 811 c-50 -7 -69 -18 -52 -29 58 -39 170 -131 192 -157 67 -83 144 -246 177 -380 9 -34 13 -42 14 -24 1 35 -61 205 -106 292 -45 85 -103 150 -193 217 -39 29 -70 56 -70 60 0 4 42 11 94 15 86 7 101 5 175 -20 135 -45 237 -145 282 -279 11 -32 18 -42 18 -28 1 31 -62 153 -97 188 -127 127 -255 170 -434 145z" transform="translate(0,86) scale(0.1,-0.1)" stroke="none" fill="#3970D6"/>

<path d="M98 803 c-27 -2 -48 -8 -48 -13 0 -4 31 -31 70 -60 90 -67 148 -132 193 -217 62 -119 98 -229 110 -342 12 -101 13 -105 40 -114 15 -5 34 -6 43 -3 8 3 36 50 62 103 43 90 47 105 51 186 2 51 -2 109 -9 135 -39 143 -148 260 -287 306 -76 25 -108 28 -225 19z m155 -43 c82 -31 184 -125 232 -212 33 -61 39 -83 43 -149 5 -81 -3 -149 -17 -149 -4 0 -18 34 -30 76 -30 102 -62 173 -117 256 -42 62 -75 95 -167 163 -53 39 -27 46 56 15z" transform="translate(0,86) scale(0.1,-0.1)" stroke="none" fill="#73A5DE"/>

</g>

</g>
<g id="row2" transform="translate(8,172.0)">
<g id="0" transform="translate(0.0,0)scale(1,1)">

<path d="M622 365 c0 -81 1 -86 10 -48 7 28 7 57 0 90 -9 46 -10 44 -10 -42z" transform="translate(0,86) scale(0.1,-0.1)" stroke="none" fill="#3970D6"/>

<path d="M611 259 c-2 -28 -90 -199 -105 -205 -9 -3 -28 -2 -43 3 -24 8 -29 16 -34 59 l-6 49 -1 -51 c-2 -48 0 -52 27 -64 56 -23 70 -13 123 92 28 53 48 104 45 115 -3 13 -5 14 -6 2z" transform="translate(0,86) scale(0.1,-0.1)" stroke="none" fill="#3970D6"/>

<path d="M170 772 c0 -4 12 -16 27 -27 92 -68 125 -101 167 -163 55 -83 87 -154 117 -256 12 -42 26 -76 30 -76 14 0 22 68 17 149 -6 108 -55 197 -152 281 -79 68 -206 125 -206 92z m93 -27 c20 -8 69 -44 109 -79 104 -91 142 -166 146 -293 2 -52 0 -93 -5 -93 -5 0 -15 23 -22 52 -43 166 -151 329 -271 410 -33 22 -6 24 43 3z" transform="translate(0,86) scale(0.1,-0.1)" stroke="none" fill="#3970D6"/>

<path d="M88 811 c-50 -7 -69 -18 -52 -29 58 -39 170 -131 192 -157 67 -83 144 -246 177 -380 9 -34 13 -42 14 -24 1 35 -61 205 -106 292 -45 85 -103 150 -193 217 -39 29 -70 56 -70 60 0 4 42 11 94 15 86 7 101 5 175 -20 135 -45 237 -145 282 -279 11 -32 18 -42 18 -28 1 31 -62 153 -97 188 -127 127 -255 170 -434 145z" transform="translate(0,86) scale(0.1,-0.1)" stroke="none" fill="#3970D6"/>

<path d="M98 803 c-27 -2 -48 -8 -48 -13 0 -4 31 -31 70 -60 90 -67 148 -132 193 -217 62 -119 98 -229 110 -342 12 -101 13 -105 40 -114 15 -5 34 -6 43 -3 8 3 36 50 62 103 43 90 47 105 51 186 2 51 -2 109 -9 135 -39 143 -148 260 -287 306 -76 25 -108 28 -225 19z m155 -43 c82 -31 184 -125 232 -212 33 -61 39 -83 43 -149 5 -81 -3 -149 -17 -149 -4 0 -18 34 -30 76 -30 102 -62 173 -117 256 -42 62 -75 95 -167 163 -53 39 -27 46 56 15z" transform="translate(0,86) scale(0.1,-0.1)" stroke="none" fill="#73A5DE"/>

</g>

<g id="1" transform="translate(66.0,0)scale(1,1)">

<path d="M622 365 c0 -81 1 -86 10 -48 7 28 7 57 0 90 -9 46 -10 44 -10 -42z" transform="translate(0,86) scale(0.1,-0.1)" stroke="none" fill="#3970D6"/>

<path d="M611 259 c-2 -28 -90 -199 -105 -205 -9 -3 -28 -2 -43 3 -24 8 -29 16 -34 59 l-6 49 -1 -51 c-2 -48 0 -52 27 -64 56 -23 70 -13 123 92 28 53 48 104 45 115 -3 13 -5 14 -6 2z" transform="translate(0,86) scale(0.1,-0.1)" stroke="none" fill="#3970D6"/>

<path d="M170 772 c0 -4 12 -16 27 -27 92 -68 125 -101 167 -163 55 -83 87 -154 117 -256 12 -42 26 -76 30 -76 14 0 22 68 17 149 -6 108 -55 197 -152 281 -79 68 -206 125 -206 92z m93 -27 c20 -8 69 -44 109 -79 104 -91 142 -166 146 -293 2 -52 0 -93 -5 -93 -5 0 -15 23 -22 52 -43 166 -151 329 -271 410 -33 22 -6 24 43 3z" transform="translate(0,86) scale(0.1,-0.1)" stroke="none" fill="#3970D6"/>

<path d="M88 811 c-50 -7 -69 -18 -52 -29 58 -39 170 -131 192 -157 67 -83 144 -246 177 -380 9 -34 13 -42 14 -24 1 35 -61 205 -106 292 -45 85 -103 150 -193 217 -39 29 -70 56 -70 60 0 4 42 11 94 15 86 7 101 5 175 -20 135 -45 237 -145 282 -279 11 -32 18 -42 18 -28 1 31 -62 153 -97 188 -127 127 -255 170 -434 145z" transform="translate(0,86) scale(0.1,-0.1)" stroke="none" fill="#3970D6"/>

<path d="M98 803 c-27 -2 -48 -8 -48 -13 0 -4 31 -31 70 -60 90 -67 148 -132 193 -217 62 -119 98 -229 110 -342 12 -101 13 -105 40 -114 15 -5 34 -6 43 -3 8 3 36 50 62 103 43 90 47 105 51 186 2 51 -2 109 -9 135 -39 143 -148 260 -287 306 -76 25 -108 28 -225 19z m155 -43 c82 -31 184 -125 232 -212 33 -61 39 -83 43 -149 5 -81 -3 -149 -17 -149 -4 0 -18 34 -30 76 -30 102 -62 173 -117 256 -42 62 -75 95 -167 163 -53 39 -27 46 56 15z" transform="translate(0,86) scale(0.1,-0.1)" stroke="none" fill="#73A5DE"/>

</g>

<g id="2" transform="translate(132.0,0)scale(1,1)">

<path d="M622 365 c0 -81 1 -86 10 -48 7 28 7 57 0 90 -9 46 -10 44 -10 -42z" transform="translate(0,86) scale(0.1,-0.1)" stroke="none" fill="#3970D6"/>

<path d="M611 259 c-2 -28 -90 -199 -105 -205 -9 -3 -28 -2 -43 3 -24 8 -29 16 -34 59 l-6 49 -1 -51 c-2 -48 0 -52 27 -64 56 -23 70 -13 123 92 28 53 48 104 45 115 -3 13 -5 14 -6 2z" transform="translate(0,86) scale(0.1,-0.1)" stroke="none" fill="#3970D6"/>

<path d="M170 772 c0 -4 12 -16 27 -27 92 -68 125 -101 167 -163 55 -83 87 -154 117 -256 12 -42 26 -76 30 -76 14 0 22 68 17 149 -6 108 -55 197 -152 281 -79 68 -206 125 -206 92z m93 -27 c20 -8 69 -44 109 -79 104 -91 142 -166 146 -293 2 -52 0 -93 -5 -93 -5 0 -15 23 -22 52 -43 166 -151 329 -271 410 -33 22 -6 24 43 3z" transform="translate(0,86) scale(0.1,-0.1)" stroke="none" fill="#3970D6"/>

<path d="M88 811 c-50 -7 -69 -18 -52 -29 58 -39 170 -131 192 -157 67 -83 144 -246 177 -380 9 -34 13 -42 14 -24 1 35 -61 205 -106 292 -45 85 -103 150 -193 217 -39 29 -70 56 -70 60 0 4 42 11 94 15 86 7 101 5 175 -20 135 -45 237 -145 282 -279 11 -32 18 -42 18 -28 1 31 -62 153 -97 188 -127 127 -255 170 -434 145z" transform="translate(0,86) scale(0.1,-0.1)" stroke="none" fill="#3970D6"/>

<path d="M98 803 c-27 -2 -48 -8 -48 -13 0 -4 31 -31 70 -60 90 -67 148 -132 193 -217 62 -119 98 -229 110 -342 12 -101 13 -105 40 -114 15 -5 34 -6 43 -3 8 3 36 50 62 103 43 90 47 105 51 186 2 51 -2 109 -9 135 -39 143 -148 260 -287 306 -76 25 -108 28 -225 19z m155 -43 c82 -31 184 -125 232 -212 33 -61 39 -83 43 -149 5 -81 -3 -149 -17 -149 -4 0 -18 34 -30 76 -30 102 -62 173 -117 256 -42 62 -75 95 -167 163 -53 39 -27 46 56 15z" transform="translate(0,86) scale(0.1,-0.1)" stroke="none" fill="#73A5DE"/>

</g>

<g id="3" transform="translate(198.0,0)scale(1,1)">

<path d="M622 365 c0 -81 1 -86 10 -48 7 28 7 57 0 90 -9 46 -10 44 -10 -42z" transform="translate(0,86) scale(0.1,-0.1)" stroke="none" fill="#3970D6"/>

<path d="M611 259 c-2 -28 -90 -199 -105 -205 -9 -3 -28 -2 -43 3 -24 8 -29 16 -34 59 l-6 49 -1 -51 c-2 -48 0 -52 27 -64 56 -23 70 -13 123 92 28 53 48 104 45 115 -3 13 -5 14 -6 2z" transform="translate(0,86) scale(0.1,-0.1)" stroke="none" fill="#3970D6"/>

<path d="M170 772 c0 -4 12 -16 27 -27 92 -68 125 -101 167 -163 55 -83 87 -154 117 -256 12 -42 26 -76 30 -76 14 0 22 68 17 149 -6 108 -55 197 -152 281 -79 68 -206 125 -206 92z m93 -27 c20 -8 69 -44 109 -79 104 -91 142 -166 146 -293 2 -52 0 -93 -5 -93 -5 0 -15 23 -22 52 -43 166 -151 329 -271 410 -33 22 -6 24 43 3z" transform="translate(0,86) scale(0.1,-0.1)" stroke="none" fill="#3970D6"/>

<path d="M88 811 c-50 -7 -69 -18 -52 -29 58 -39 170 -131 192 -157 67 -83 144 -246 177 -380 9 -34 13 -42 14 -24 1 35 -61 205 -106 292 -45 85 -103 150 -193 217 -39 29 -70 56 -70 60 0 4 42 11 94 15 86 7 101 5 175 -20 135 -45 237 -145 282 -279 11 -32 18 -42 18 -28 1 31 -62 153 -97 188 -127 127 -255 170 -434 145z" transform="translate(0,86) scale(0.1,-0.1)" stroke="none" fill="#3970D6"/>

<path d="M98 803 c-27 -2 -48 -8 -48 -13 0 -4 31 -31 70 -60 90 -67 148 -132 193 -217 62 -119 98 -229 110 -342 12 -101 13 -105 40 -114 15 -5 34 -6 43 -3 8 3 36 50 62 103 43 90 47 105 51 186 2 51 -2 109 -9 135 -39 143 -148 260 -287 306 -76 25 -108 28 -225 19z m155 -43 c82 -31 184 -125 232 -212 33 -61 39 -83 43 -149 5 -81 -3 -149 -17 -149 -4 0 -18 34 -30 76 -30 102 -62 173 -117 256 -42 62 -75 95 -167 163 -53 39 -27 46 56 15z" transform="translate(0,86) scale(0.1,-0.1)" stroke="none" fill="#73A5DE"/>

</g>

<g id="4" transform="translate(264.0,0)scale(1,1)">

<path d="M622 365 c0 -81 1 -86 10 -48 7 28 7 57 0 90 -9 46 -10 44 -10 -42z" transform="translate(0,86) scale(0.1,-0.1)" stroke="none" fill="#3970D6"/>

<path d="M611 259 c-2 -28 -90 -199 -105 -205 -9 -3 -28 -2 -43 3 -24 8 -29 16 -34 59 l-6 49 -1 -51 c-2 -48 0 -52 27 -64 56 -23 70 -13 123 92 28 53 48 104 45 115 -3 13 -5 14 -6 2z" transform="translate(0,86) scale(0.1,-0.1)" stroke="none" fill="#3970D6"/>

<path d="M170 772 c0 -4 12 -16 27 -27 92 -68 125 -101 167 -163 55 -83 87 -154 117 -256 12 -42 26 -76 30 -76 14 0 22 68 17 149 -6 108 -55 197 -152 281 -79 68 -206 125 -206 92z m93 -27 c20 -8 69 -44 109 -79 104 -91 142 -166 146 -293 2 -52 0 -93 -5 -93 -5 0 -15 23 -22 52 -43 166 -151 329 -271 410 -33 22 -6 24 43 3z" transform="translate(0,86) scale(0.1,-0.1)" stroke="none" fill="#3970D6"/>

<path d="M88 811 c-50 -7 -69 -18 -52 -29 58 -39 170 -131 192 -157 67 -83 144 -246 177 -380 9 -34 13 -42 14 -24 1 35 -61 205 -106 292 -45 85 -103 150 -193 217 -39 29 -70 56 -70 60 0 4 42 11 94 15 86 7 101 5 175 -20 135 -45 237 -145 282 -279 11 -32 18 -42 18 -28 1 31 -62 153 -97 188 -127 127 -255 170 -434 145z" transform="translate(0,86) scale(0.1,-0.1)" stroke="none" fill="#3970D6"/>

<path d="M98 803 c-27 -2 -48 -8 -48 -13 0 -4 31 -31 70 -60 90 -67 148 -132 193 -217 62 -119 98 -229 110 -342 12 -101 13 -105 40 -114 15 -5 34 -6 43 -3 8 3 36 50 62 103 43 90 47 105 51 186 2 51 -2 109 -9 135 -39 143 -148 260 -287 306 -76 25 -108 28 -225 19z m155 -43 c82 -31 184 -125 232 -212 33 -61 39 -83 43 -149 5 -81 -3 -149 -17 -149 -4 0 -18 34 -30 76 -30 102 -62 173 -117 256 -42 62 -75 95 -167 163 -53 39 -27 46 56 15z" transform="translate(0,86) scale(0.1,-0.1)" stroke="none" fill="#73A5DE"/>

</g>

</g>
<g id="row3" transform="translate(8,258.0)">
<g id="0" transform="translate(0.0,0)scale(1,1)">

<path d="M622 365 c0 -81 1 -86 10 -48 7 28 7 57 0 90 -9 46 -10 44 -10 -42z" transform="translate(0,86) scale(0.1,-0.1)" stroke="none" fill="#3970D6"/>

<path d="M611 259 c-2 -28 -90 -199 -105 -205 -9 -3 -28 -2 -43 3 -24 8 -29 16 -34 59 l-6 49 -1 -51 c-2 -48 0 -52 27 -64 56 -23 70 -13 123 92 28 53 48 104 45 115 -3 13 -5 14 -6 2z" transform="translate(0,86) scale(0.1,-0.1)" stroke="none" fill="#3970D6"/>

<path d="M170 772 c0 -4 12 -16 27 -27 92 -68 125 -101 167 -163 55 -83 87 -154 117 -256 12 -42 26 -76 30 -76 14 0 22 68 17 149 -6 108 -55 197 -152 281 -79 68 -206 125 -206 92z m93 -27 c20 -8 69 -44 109 -79 104 -91 142 -166 146 -293 2 -52 0 -93 -5 -93 -5 0 -15 23 -22 52 -43 166 -151 329 -271 410 -33 22 -6 24 43 3z" transform="translate(0,86) scale(0.1,-0.1)" stroke="none" fill="#3970D6"/>

<path d="M88 811 c-50 -7 -69 -18 -52 -29 58 -39 170 -131 192 -157 67 -83 144 -246 177 -380 9 -34 13 -42 14 -24 1 35 -61 205 -106 292 -45 85 -103 150 -193 217 -39 29 -70 56 -70 60 0 4 42 11 94 15 86 7 101 5 175 -20 135 -45 237 -145 282 -279 11 -32 18 -42 18 -28 1 31 -62 153 -97 188 -127 127 -255 170 -434 145z" transform="translate(0,86) scale(0.1,-0.1)" stroke="none" fill="#3970D6"/>

<path d="M98 803 c-27 -2 -48 -8 -48 -13 0 -4 31 -31 70 -60 90 -67 148 -132 193 -217 62 -119 98 -229 110 -342 12 -101 13 -105 40 -114 15 -5 34 -6 43 -3 8 3 36 50 62 103 43 90 47 105 51 186 2 51 -2 109 -9 135 -39 143 -148 260 -287 306 -76 25 -108 28 -225 19z m155 -43 c82 -31 184 -125 232 -212 33 -61 39 -83 43 -149 5 -81 -3 -149 -17 -149 -4 0 -18 34 -30 76 -30 102 -62 173 -117 256 -42 62 -75 95 -167 163 -53 39 -27 46 56 15z" transform="translate(0,86) scale(0.1,-0.1)" stroke="none" fill="#73A5DE"/>

</g>

<g id="1" transform="translate(66.0,0)scale(1,1)">

<path d="M622 365 c0 -81 1 -86 10 -48 7 28 7 57 0 90 -9 46 -10 44 -10 -42z" transform="translate(0,86) scale(0.1,-0.1)" stroke="none" fill="#3970D6"/>

<path d="M611 259 c-2 -28 -90 -199 -105 -205 -9 -3 -28 -2 -43 3 -24 8 -29 16 -34 59 l-6 49 -1 -51 c-2 -48 0 -52 27 -64 56 -23 70 -13 123 92 28 53 48 104 45 115 -3 13 -5 14 -6 2z" transform="translate(0,86) scale(0.1,-0.1)" stroke="none" fill="#3970D6"/>

<path d="M170 772 c0 -4 12 -16 27 -27 92 -68 125 -101 167 -163 55 -83 87 -154 117 -256 12 -42 26 -76 30 -76 14 0 22 68 17 149 -6 108 -55 197 -152 281 -79 68 -206 125 -206 92z m93 -27 c20 -8 69 -44 109 -79 104 -91 142 -166 146 -293 2 -52 0 -93 -5 -93 -5 0 -15 23 -22 52 -43 166 -151 329 -271 410 -33 22 -6 24 43 3z" transform="translate(0,86) scale(0.1,-0.1)" stroke="none" fill="#3970D6"/>

<path d="M88 811 c-50 -7 -69 -18 -52 -29 58 -39 170 -131 192 -157 67 -83 144 -246 177 -380 9 -34 13 -42 14 -24 1 35 -61 205 -106 292 -45 85 -103 150 -193 217 -39 29 -70 56 -70 60 0 4 42 11 94 15 86 7 101 5 175 -20 135 -45 237 -145 282 -279 11 -32 18 -42 18 -28 1 31 -62 153 -97 188 -127 127 -255 170 -434 145z" transform="translate(0,86) scale(0.1,-0.1)" stroke="none" fill="#3970D6"/>

<path d="M98 803 c-27 -2 -48 -8 -48 -13 0 -4 31 -31 70 -60 90 -67 148 -132 193 -217 62 -119 98 -229 110 -342 12 -101 13 -105 40 -114 15 -5 34 -6 43 -3 8 3 36 50 62 103 43 90 47 105 51 186 2 51 -2 109 -9 135 -39 143 -148 260 -287 306 -76 25 -108 28 -225 19z m155 -43 c82 -31 184 -125 232 -212 33 -61 39 -83 43 -149 5 -81 -3 -149 -17 -149 -4 0 -18 34 -30 76 -30 102 -62 173 -117 256 -42 62 -75 95 -167 163 -53 39 -27 46 56 15z" transform="translate(0,86) scale(0.1,-0.1)" stroke="none" fill="#73A5DE"/>

</g>

<g id="2" transform="translate(132.0,0)scale(1,1)">

<path d="M622 365 c0 -81 1 -86 10 -48 7 28 7 57 0 90 -9 46 -10 44 -10 -42z" transform="translate(0,86) scale(0.1,-0.1)" stroke="none" fill="#3970D6"/>

<path d="M611 259 c-2 -28 -90 -199 -105 -205 -9 -3 -28 -2 -43 3 -24 8 -29 16 -34 59 l-6 49 -1 -51 c-2 -48 0 -52 27 -64 56 -23 70 -13 123 92 28 53 48 104 45 115 -3 13 -5 14 -6 2z" transform="translate(0,86) scale(0.1,-0.1)" stroke="none" fill="#3970D6"/>

<path d="M170 772 c0 -4 12 -16 27 -27 92 -68 125 -101 167 -163 55 -83 87 -154 117 -256 12 -42 26 -76 30 -76 14 0 22 68 17 149 -6 108 -55 197 -152 281 -79 68 -206 125 -206 92z m93 -27 c20 -8 69 -44 109 -79 104 -91 142 -166 146 -293 2 -52 0 -93 -5 -93 -5 0 -15 23 -22 52 -43 166 -151 329 -271 410 -33 22 -6 24 43 3z" transform="translate(0,86) scale(0.1,-0.1)" stroke="none" fill="#3970D6"/>

<path d="M88 811 c-50 -7 -69 -18 -52 -29 58 -39 170 -131 192 -157 67 -83 144 -246 177 -380 9 -34 13 -42 14 -24 1 35 -61 205 -106 292 -45 85 -103 150 -193 217 -39 29 -70 56 -70 60 0 4 42 11 94 15 86 7 101 5 175 -20 135 -45 237 -145 282 -279 11 -32 18 -42 18 -28 1 31 -62 153 -97 188 -127 127 -255 170 -434 145z" transform="translate(0,86) scale(0.1,-0.1)" stroke="none" fill="#3970D6"/>

<path d="M98 803 c-27 -2 -48 -8 -48 -13 0 -4 31 -31 70 -60 90 -67 148 -132 193 -217 62 -119 98 -229 110 -342 12 -101 13 -105 40 -114 15 -5 34 -6 43 -3 8 3 36 50 62 103 43 90 47 105 51 186 2 51 -2 109 -9 135 -39 143 -148 260 -287 306 -76 25 -108 28 -225 19z m155 -43 c82 -31 184 -125 232 -212 33 -61 39 -83 43 -149 5 -81 -3 -149 -17 -149 -4 0 -18 34 -30 76 -30 102 -62 173 -117 256 -42 62 -75 95 -167 163 -53 39 -27 46 56 15z" transform="translate(0,86) scale(0.1,-0.1)" stroke="none" fill="#73A5DE"/>

</g>

<g id="3" transform="translate(198.0,0)scale(1,1)">

<path d="M622 365 c0 -81 1 -86 10 -48 7 28 7 57 0 90 -9 46 -10 44 -10 -42z" transform="translate(0,86) scale(0.1,-0.1)" stroke="none" fill="#3970D6"/>

<path d="M611 259 c-2 -28 -90 -199 -105 -205 -9 -3 -28 -2 -43 3 -24 8 -29 16 -34 59 l-6 49 -1 -51 c-2 -48 0 -52 27 -64 56 -23 70 -13 123 92 28 53 48 104 45 115 -3 13 -5 14 -6 2z" transform="translate(0,86) scale(0.1,-0.1)" stroke="none" fill="#3970D6"/>

<path d="M170 772 c0 -4 12 -16 27 -27 92 -68 125 -101 167 -163 55 -83 87 -154 117 -256 12 -42 26 -76 30 -76 14 0 22 68 17 149 -6 108 -55 197 -152 281 -79 68 -206 125 -206 92z m93 -27 c20 -8 69 -44 109 -79 104 -91 142 -166 146 -293 2 -52 0 -93 -5 -93 -5 0 -15 23 -22 52 -43 166 -151 329 -271 410 -33 22 -6 24 43 3z" transform="translate(0,86) scale(0.1,-0.1)" stroke="none" fill="#3970D6"/>

<path d="M88 811 c-50 -7 -69 -18 -52 -29 58 -39 170 -131 192 -157 67 -83 144 -246 177 -380 9 -34 13 -42 14 -24 1 35 -61 205 -106 292 -45 85 -103 150 -193 217 -39 29 -70 56 -70 60 0 4 42 11 94 15 86 7 101 5 175 -20 135 -45 237 -145 282 -279 11 -32 18 -42 18 -28 1 31 -62 153 -97 188 -127 127 -255 170 -434 145z" transform="translate(0,86) scale(0.1,-0.1)" stroke="none" fill="#3970D6"/>

<path d="M98 803 c-27 -2 -48 -8 -48 -13 0 -4 31 -31 70 -60 90 -67 148 -132 193 -217 62 -119 98 -229 110 -342 12 -101 13 -105 40 -114 15 -5 34 -6 43 -3 8 3 36 50 62 103 43 90 47 105 51 186 2 51 -2 109 -9 135 -39 143 -148 260 -287 306 -76 25 -108 28 -225 19z m155 -43 c82 -31 184 -125 232 -212 33 -61 39 -83 43 -149 5 -81 -3 -149 -17 -149 -4 0 -18 34 -30 76 -30 102 -62 173 -117 256 -42 62 -75 95 -167 163 -53 39 -27 46 56 15z" transform="translate(0,86) scale(0.1,-0.1)" stroke="none" fill="#73A5DE"/>

</g>

<g id="4" transform="translate(264.0,0)scale(1,1)">

<path d="M622 365 c0 -81 1 -86 10 -48 7 28 7 57 0 90 -9 46 -10 44 -10 -42z" transform="translate(0,86) scale(0.1,-0.1)" stroke="none" fill="#3970D6"/>

<path d="M611 259 c-2 -28 -90 -199 -105 -205 -9 -3 -28 -2 -43 3 -24 8 -29 16 -34 59 l-6 49 -1 -51 c-2 -48 0 -52 27 -64 56 -23 70 -13 123 92 28 53 48 104 45 115 -3 13 -5 14 -6 2z" transform="translate(0,86) scale(0.1,-0.1)" stroke="none" fill="#3970D6"/>

<path d="M170 772 c0 -4 12 -16 27 -27 92 -68 125 -101 167 -163 55 -83 87 -154 117 -256 12 -42 26 -76 30 -76 14 0 22 68 17 149 -6 108 -55 197 -152 281 -79 68 -206 125 -206 92z m93 -27 c20 -8 69 -44 109 -79 104 -91 142 -166 146 -293 2 -52 0 -93 -5 -93 -5 0 -15 23 -22 52 -43 166 -151 329 -271 410 -33 22 -6 24 43 3z" transform="translate(0,86) scale(0.1,-0.1)" stroke="none" fill="#3970D6"/>

<path d="M88 811 c-50 -7 -69 -18 -52 -29 58 -39 170 -131 192 -157 67 -83 144 -246 177 -380 9 -34 13 -42 14 -24 1 35 -61 205 -106 292 -45 85 -103 150 -193 217 -39 29 -70 56 -70 60 0 4 42 11 94 15 86 7 101 5 175 -20 135 -45 237 -145 282 -279 11 -32 18 -42 18 -28 1 31 -62 153 -97 188 -127 127 -255 170 -434 145z" transform="translate(0,86) scale(0.1,-0.1)" stroke="none" fill="#3970D6"/>

<path d="M98 803 c-27 -2 -48 -8 -48 -13 0 -4 31 -31 70 -60 90 -67 148 -132 193 -217 62 -119 98 -229 110 -342 12 -101 13 -105 40 -114 15 -5 34 -6 43 -3 8 3 36 50 62 103 43 90 47 105 51 186 2 51 -2 109 -9 135 -39 143 -148 260 -287 306 -76 25 -108 28 -225 19z m155 -43 c82 -31 184 -125 232 -212 33 -61 39 -83 43 -149 5 -81 -3 -149 -17 -149 -4 0 -18 34 -30 76 -30 102 -62 173 -117 256 -42 62 -75 95 -167 163 -53 39 -27 46 56 15z" transform="translate(0,86) scale(0.1,-0.1)" stroke="none" fill="#73A5DE"/>

</g>

</g>
</svg>