<?xml version="1.0" standalone="no"?>
<!DOCTYPE svg PUBLIC "-//W3C//DTD SVG 20010904//EN"
 "http://www.w3.org/TR/2001/REC-SVG-20010904/DTD/svg10.dtd">
<svg version="1.0" xmlns="http://www.w3.org/2000/svg" 
width="56.000000pt" height="120.000000pt" viewBox="0 0 56.000000 120.000000"
preserveAspectRatio = "xMidYMid meet" >
<metadata>
Created by ZoeQU, 2022
</metadata>
<rect width="56.000000" height="120.000000" fill="#A36CB7"/>
<path d="M328 581 c32 -31 52 -39 52 -23 0 14 -33 39 -60 46 -24 7 -23 6 8 -23z" transform="translate(0.000000,120.000000) scale(0.100000,-0.100000)" stroke="none" fill="#F7B83F"/>

<path d="M390 857 c0 -1 35 -36 78 -77 l77 -75 -75 78 c-69 71 -80 82 -80 74z" transform="translate(0.000000,120.000000) scale(0.100000,-0.100000)" stroke="none" fill="#D6DACA"/>

<path d="M80 73 l-65 -68 68 65 c62 60 72 70 64 70 -1 0 -32 -30 -67 -67z" transform="translate(0.000000,120.000000) scale(0.100000,-0.100000)" stroke="none" fill="#D6DACA"/>

<path d="M250 791 c0 -8 81 -23 88 -16 2 2 1 8 -3 14 -7 13 -85 15 -85 2z" transform="translate(0.000000,120.000000) scale(0.100000,-0.100000)" stroke="none" fill="#F7B83F"/>

<path d="M470 383 l-65 -68 68 65 c62 60 72 70 64 70 -1 0 -32 -30 -67 -67z" transform="translate(0.000000,120.000000) scale(0.100000,-0.100000)" stroke="none" fill="#D6DACA"/>

<path d="M241 664 c-18 -23 -30 -84 -16 -84 5 0 55 95 55 105 0 13 -21 2 -39 -21z" transform="translate(0.000000,120.000000) scale(0.100000,-0.100000)" stroke="none" fill="#F7B83F"/>

<path d="M0 1184 c0 -29 142 -215 155 -202 3 3 -4 13 -15 23 -11 10 -20 23 -20 30 0 6 -11 22 -25 35 -14 13 -37 48 -51 77 -26 52 -44 68 -44 37z" transform="translate(0.000000,120.000000) scale(0.100000,-0.100000)" stroke="none" fill="#F7B83F"/>

<path d="M506 512 c-11 -34 -64 -101 -100 -124 -205 -138 -406 -306 -406 -341 0 -13 4 -8 43 45 23 31 140 124 306 242 76 55 132 109 153 149 10 21 17 41 15 44 -3 2 -8 -4 -11 -15z" transform="translate(0.000000,120.000000) scale(0.100000,-0.100000)" stroke="none" fill="#D6DACA"/>

<path d="M0 1152 c0 -4 30 -45 66 -91 49 -60 69 -79 75 -69 9 13 10 11 13 -14 1 -12 72 -63 183 -133 74 -46 130 -102 158 -158 14 -28 25 -45 25 -38 0 52 -93 152 -213 227 -48 31 -85 59 -82 64 2 4 -5 16 -18 26 l-22 19 19 -22 c21 -25 16 -29 -15 -13 -10 6 -19 17 -19 24 0 7 -11 23 -25 36 -14 13 -25 20 -25 15 0 -15 -50 38 -81 87 -30 47 -39 56 -39 40z m135 -142 c3 -5 1 -10 -4 -10 -6 0 -11 5 -11 10 0 6 2 10 4 10 3 0 8 -4 11 -10z" transform="translate(0.000000,120.000000) scale(0.100000,-0.100000)" stroke="none" fill="#D6DACA"/>

<path d="M219 831 c12 -16 21 -36 21 -44 0 -9 4 -18 9 -21 22 -14 18 -57 -10 -93 -19 -23 -29 -47 -29 -69 0 -46 23 -44 46 4 l19 37 3 -47 c2 -36 -2 -53 -17 -69 -23 -25 -35 -79 -26 -120 6 -26 11 -29 46 -29 21 0 39 5 39 11 0 6 9 8 20 4 44 -14 37 75 -10 125 -27 29 -39 60 -24 60 3 0 17 -9 31 -20 26 -21 63 -27 63 -11 0 14 -69 71 -85 71 -17 0 -25 26 -29 93 l-2 47 38 0 c27 0 38 4 38 15 0 22 -54 46 -89 39 -21 -4 -31 -3 -31 5 0 13 -24 41 -35 41 -3 0 3 -13 14 -29z m116 -42 c4 -6 5 -12 3 -14 -7 -7 -88 8 -88 16 0 13 78 11 85 -2z m-55 -104 c0 -10 -50 -105 -55 -105 -14 0 -2 61 16 84 18 23 39 34 39 21z m83 -103 c9 -8 17 -19 17 -24 0 -16 -20 -8 -52 23 -31 29 -32 30 -8 23 14 -3 33 -13 43 -22z" transform="translate(0.000000,120.000000) scale(0.100000,-0.100000)" stroke="none" fill="#D6DACA"/>

<path d="M170 972 c0 -5 46 -38 103 -73 175 -109 243 -187 254 -293 10 -96 -42 -175 -178 -272 -250 -178 -348 -267 -349 -316 0 -10 2 -18 4 -18 2 0 33 29 67 65 35 36 74 71 88 78 13 7 32 26 41 42 11 19 26 31 42 33 14 2 34 12 44 23 9 10 22 19 29 19 6 0 24 13 40 30 16 17 34 30 40 30 15 0 145 133 145 148 0 6 5 12 10 12 6 0 10 40 10 100 0 60 -4 100 -10 100 -5 0 -10 6 -10 13 0 15 -151 167 -166 167 -6 0 -19 9 -29 20 -10 11 -23 20 -30 20 -7 0 -20 9 -30 20 -10 11 -28 20 -40 20 -12 0 -30 9 -40 20 -19 21 -35 26 -35 12z" transform="translate(0.000000,120.000000) scale(0.100000,-0.100000)" stroke="none" fill="#F7B83F"/>

</svg>