<?xml version="1.0" standalone="no"?>
<!DOCTYPE svg PUBLIC "-//W3C//DTD SVG 20010904//EN"
 "http://www.w3.org/TR/2001/REC-SVG-20010904/DTD/svg10.dtd">
<svg version="1.0" xmlns="http://www.w3.org/2000/svg" width="336pt" height="344pt" viewBox="0 0 336 344" preserveAspectRatio = "xMidYMid meet" >
<metadata>
Created by ZoeQu, written in 2022
</metadata>
<rect width="336" height="344" fill="#FA8D1C"/>
<g id="col0" transform="translate(0, 11)">
<g id="0" transform="translate(0,0.0)scale(0.8,0.8)">

<path d="M748 192 c31 -9 25 -21 -28 -58 -46 -32 -133 -67 -205 -83 -36 -8 -37 -9 -10 -10 44 -1 161 44 225 87 83 56 91 73 33 71 -30 -1 -33 -2 -15 -7z" transform="translate(0,86) scale(0.1,-0.1)" stroke="none" fill="#38999E"/>

<path d="M100 641 c0 -5 4 -11 9 -13 5 -1 31 -50 59 -109 57 -119 106 -178 213 -261 69 -53 118 -79 197 -109 53 -19 15 -31 -81 -26 -109 6 -131 13 -202 56 -107 66 -157 159 -189 356 -15 89 -15 89 -10 20 6 -77 36 -200 60 -247 24 -46 91 -114 141 -144 25 -14 75 -35 111 -45 59 -17 77 -18 147 -8 44 6 82 12 83 14 11 11 -15 26 -69 41 -78 22 -158 74 -253 165 -67 63 -84 87 -138 195 -56 111 -78 143 -78 115z" transform="translate(0,86) scale(0.1,-0.1)" stroke="none" fill="#38999E"/>

<path d="M106 777 c-57 -57 -98 -250 -77 -365 34 -186 97 -279 234 -343 53 -25 85 -32 140 -35 l72 -3 -65 9 c-116 15 -188 47 -256 116 -53 54 -65 76 -94 172 -19 62 -21 89 -18 190 4 99 9 127 32 183 18 46 35 70 52 78 37 16 44 14 44 -16 0 -16 30 -88 66 -160 68 -136 146 -238 204 -268 16 -8 34 -20 42 -27 39 -38 90 -67 151 -87 37 -13 72 -21 78 -19 6 2 -22 14 -63 26 -68 21 -99 39 -230 139 -21 15 -55 51 -77 78 -51 65 -161 286 -161 325 0 25 -4 30 -25 30 -14 0 -36 -10 -49 -23z" transform="translate(0,86) scale(0.1,-0.1)" stroke="none" fill="#38999E"/>

<path d="M123 778 c-13 -6 -33 -36 -49 -77 -23 -56 -28 -84 -32 -183 -3 -101 -1 -128 18 -190 29 -96 41 -118 94 -172 113 -114 261 -142 440 -82 74 25 189 93 181 107 -3 4 -22 10 -42 13 -101 18 -195 60 -251 114 -8 7 -26 19 -42 27 -58 30 -136 132 -204 268 -36 72 -66 144 -66 160 0 29 -11 32 -47 15z m55 -252 c54 -108 71 -132 138 -195 95 -91 175 -143 253 -165 54 -15 80 -30 69 -41 -1 -2 -39 -8 -83 -14 -70 -10 -88 -9 -147 8 -84 24 -146 60 -196 115 -51 55 -67 86 -91 178 -32 119 -38 238 -12 238 3 0 34 -56 69 -124z" transform="translate(0,86) scale(0.1,-0.1)" stroke="none" fill="#E5E3DF"/>

</g>

<g id="1" transform="translate(0,86.0)scale(0.8,0.8)">

<path d="M748 192 c31 -9 25 -21 -28 -58 -46 -32 -133 -67 -205 -83 -36 -8 -37 -9 -10 -10 44 -1 161 44 225 87 83 56 91 73 33 71 -30 -1 -33 -2 -15 -7z" transform="translate(0,86) scale(0.1,-0.1)" stroke="none" fill="#38999E"/>

<path d="M100 641 c0 -5 4 -11 9 -13 5 -1 31 -50 59 -109 57 -119 106 -178 213 -261 69 -53 118 -79 197 -109 53 -19 15 -31 -81 -26 -109 6 -131 13 -202 56 -107 66 -157 159 -189 356 -15 89 -15 89 -10 20 6 -77 36 -200 60 -247 24 -46 91 -114 141 -144 25 -14 75 -35 111 -45 59 -17 77 -18 147 -8 44 6 82 12 83 14 11 11 -15 26 -69 41 -78 22 -158 74 -253 165 -67 63 -84 87 -138 195 -56 111 -78 143 -78 115z" transform="translate(0,86) scale(0.1,-0.1)" stroke="none" fill="#38999E"/>

<path d="M106 777 c-57 -57 -98 -250 -77 -365 34 -186 97 -279 234 -343 53 -25 85 -32 140 -35 l72 -3 -65 9 c-116 15 -188 47 -256 116 -53 54 -65 76 -94 172 -19 62 -21 89 -18 190 4 99 9 127 32 183 18 46 35 70 52 78 37 16 44 14 44 -16 0 -16 30 -88 66 -160 68 -136 146 -238 204 -268 16 -8 34 -20 42 -27 39 -38 90 -67 151 -87 37 -13 72 -21 78 -19 6 2 -22 14 -63 26 -68 21 -99 39 -230 139 -21 15 -55 51 -77 78 -51 65 -161 286 -161 325 0 25 -4 30 -25 30 -14 0 -36 -10 -49 -23z" transform="translate(0,86) scale(0.1,-0.1)" stroke="none" fill="#38999E"/>

<path d="M123 778 c-13 -6 -33 -36 -49 -77 -23 -56 -28 -84 -32 -183 -3 -101 -1 -128 18 -190 29 -96 41 -118 94 -172 113 -114 261 -142 440 -82 74 25 189 93 181 107 -3 4 -22 10 -42 13 -101 18 -195 60 -251 114 -8 7 -26 19 -42 27 -58 30 -136 132 -204 268 -36 72 -66 144 -66 160 0 29 -11 32 -47 15z m55 -252 c54 -108 71 -132 138 -195 95 -91 175 -143 253 -165 54 -15 80 -30 69 -41 -1 -2 -39 -8 -83 -14 -70 -10 -88 -9 -147 8 -84 24 -146 60 -196 115 -51 55 -67 86 -91 178 -32 119 -38 238 -12 238 3 0 34 -56 69 -124z" transform="translate(0,86) scale(0.1,-0.1)" stroke="none" fill="#E5E3DF"/>

</g>

<g id="2" transform="translate(0,172.0)scale(0.8,0.8)">

<path d="M748 192 c31 -9 25 -21 -28 -58 -46 -32 -133 -67 -205 -83 -36 -8 -37 -9 -10 -10 44 -1 161 44 225 87 83 56 91 73 33 71 -30 -1 -33 -2 -15 -7z" transform="translate(0,86) scale(0.1,-0.1)" stroke="none" fill="#38999E"/>

<path d="M100 641 c0 -5 4 -11 9 -13 5 -1 31 -50 59 -109 57 -119 106 -178 213 -261 69 -53 118 -79 197 -109 53 -19 15 -31 -81 -26 -109 6 -131 13 -202 56 -107 66 -157 159 -189 356 -15 89 -15 89 -10 20 6 -77 36 -200 60 -247 24 -46 91 -114 141 -144 25 -14 75 -35 111 -45 59 -17 77 -18 147 -8 44 6 82 12 83 14 11 11 -15 26 -69 41 -78 22 -158 74 -253 165 -67 63 -84 87 -138 195 -56 111 -78 143 -78 115z" transform="translate(0,86) scale(0.1,-0.1)" stroke="none" fill="#38999E"/>

<path d="M106 777 c-57 -57 -98 -250 -77 -365 34 -186 97 -279 234 -343 53 -25 85 -32 140 -35 l72 -3 -65 9 c-116 15 -188 47 -256 116 -53 54 -65 76 -94 172 -19 62 -21 89 -18 190 4 99 9 127 32 183 18 46 35 70 52 78 37 16 44 14 44 -16 0 -16 30 -88 66 -160 68 -136 146 -238 204 -268 16 -8 34 -20 42 -27 39 -38 90 -67 151 -87 37 -13 72 -21 78 -19 6 2 -22 14 -63 26 -68 21 -99 39 -230 139 -21 15 -55 51 -77 78 -51 65 -161 286 -161 325 0 25 -4 30 -25 30 -14 0 -36 -10 -49 -23z" transform="translate(0,86) scale(0.1,-0.1)" stroke="none" fill="#38999E"/>

<path d="M123 778 c-13 -6 -33 -36 -49 -77 -23 -56 -28 -84 -32 -183 -3 -101 -1 -128 18 -190 29 -96 41 -118 94 -172 113 -114 261 -142 440 -82 74 25 189 93 181 107 -3 4 -22 10 -42 13 -101 18 -195 60 -251 114 -8 7 -26 19 -42 27 -58 30 -136 132 -204 268 -36 72 -66 144 -66 160 0 29 -11 32 -47 15z m55 -252 c54 -108 71 -132 138 -195 95 -91 175 -143 253 -165 54 -15 80 -30 69 -41 -1 -2 -39 -8 -83 -14 -70 -10 -88 -9 -147 8 -84 24 -146 60 -196 115 -51 55 -67 86 -91 178 -32 119 -38 238 -12 238 3 0 34 -56 69 -124z" transform="translate(0,86) scale(0.1,-0.1)" stroke="none" fill="#E5E3DF"/>

</g>

<g id="3" transform="translate(0,258.0)scale(0.8,0.8)">

<path d="M748 192 c31 -9 25 -21 -28 -58 -46 -32 -133 -67 -205 -83 -36 -8 -37 -9 -10 -10 44 -1 161 44 225 87 83 56 91 73 33 71 -30 -1 -33 -2 -15 -7z" transform="translate(0,86) scale(0.1,-0.1)" stroke="none" fill="#38999E"/>

<path d="M100 641 c0 -5 4 -11 9 -13 5 -1 31 -50 59 -109 57 -119 106 -178 213 -261 69 -53 118 -79 197 -109 53 -19 15 -31 -81 -26 -109 6 -131 13 -202 56 -107 66 -157 159 -189 356 -15 89 -15 89 -10 20 6 -77 36 -200 60 -247 24 -46 91 -114 141 -144 25 -14 75 -35 111 -45 59 -17 77 -18 147 -8 44 6 82 12 83 14 11 11 -15 26 -69 41 -78 22 -158 74 -253 165 -67 63 -84 87 -138 195 -56 111 -78 143 -78 115z" transform="translate(0,86) scale(0.1,-0.1)" stroke="none" fill="#38999E"/>

<path d="M106 777 c-57 -57 -98 -250 -77 -365 34 -186 97 -279 234 -343 53 -25 85 -32 140 -35 l72 -3 -65 9 c-116 15 -188 47 -256 116 -53 54 -65 76 -94 172 -19 62 -21 89 -18 190 4 99 9 127 32 183 18 46 35 70 52 78 37 16 44 14 44 -16 0 -16 30 -88 66 -160 68 -136 146 -238 204 -268 16 -8 34 -20 42 -27 39 -38 90 -67 151 -87 37 -13 72 -21 78 -19 6 2 -22 14 -63 26 -68 21 -99 39 -230 139 -21 15 -55 51 -77 78 -51 65 -161 286 -161 325 0 25 -4 30 -25 30 -14 0 -36 -10 -49 -23z" transform="translate(0,86) scale(0.1,-0.1)" stroke="none" fill="#38999E"/>

<path d="M123 778 c-13 -6 -33 -36 -49 -77 -23 -56 -28 -84 -32 -183 -3 -101 -1 -128 18 -190 29 -96 41 -118 94 -172 113 -114 261 -142 440 -82 74 25 189 93 181 107 -3 4 -22 10 -42 13 -101 18 -195 60 -251 114 -8 7 -26 19 -42 27 -58 30 -136 132 -204 268 -36 72 -66 144 -66 160 0 29 -11 32 -47 15z m55 -252 c54 -108 71 -132 138 -195 95 -91 175 -143 253 -165 54 -15 80 -30 69 -41 -1 -2 -39 -8 -83 -14 -70 -10 -88 -9 -147 8 -84 24 -146 60 -196 115 -51 55 -67 86 -91 178 -32 119 -38 238 -12 238 3 0 34 -56 69 -124z" transform="translate(0,86) scale(0.1,-0.1)" stroke="none" fill="#E5E3DF"/>

</g>

<g id="4" transform="translate(0,344.0)scale(0.8,0.8)">

<path d="M748 192 c31 -9 25 -21 -28 -58 -46 -32 -133 -67 -205 -83 -36 -8 -37 -9 -10 -10 44 -1 161 44 225 87 83 56 91 73 33 71 -30 -1 -33 -2 -15 -7z" transform="translate(0,86) scale(0.1,-0.1)" stroke="none" fill="#38999E"/>

<path d="M100 641 c0 -5 4 -11 9 -13 5 -1 31 -50 59 -109 57 -119 106 -178 213 -261 69 -53 118 -79 197 -109 53 -19 15 -31 -81 -26 -109 6 -131 13 -202 56 -107 66 -157 159 -189 356 -15 89 -15 89 -10 20 6 -77 36 -200 60 -247 24 -46 91 -114 141 -144 25 -14 75 -35 111 -45 59 -17 77 -18 147 -8 44 6 82 12 83 14 11 11 -15 26 -69 41 -78 22 -158 74 -253 165 -67 63 -84 87 -138 195 -56 111 -78 143 -78 115z" transform="translate(0,86) scale(0.1,-0.1)" stroke="none" fill="#38999E"/>

<path d="M106 777 c-57 -57 -98 -250 -77 -365 34 -186 97 -279 234 -343 53 -25 85 -32 140 -35 l72 -3 -65 9 c-116 15 -188 47 -256 116 -53 54 -65 76 -94 172 -19 62 -21 89 -18 190 4 99 9 127 32 183 18 46 35 70 52 78 37 16 44 14 44 -16 0 -16 30 -88 66 -160 68 -136 146 -238 204 -268 16 -8 34 -20 42 -27 39 -38 90 -67 151 -87 37 -13 72 -21 78 -19 6 2 -22 14 -63 26 -68 21 -99 39 -230 139 -21 15 -55 51 -77 78 -51 65 -161 286 -161 325 0 25 -4 30 -25 30 -14 0 -36 -10 -49 -23z" transform="translate(0,86) scale(0.1,-0.1)" stroke="none" fill="#38999E"/>

<path d="M123 778 c-13 -6 -33 -36 -49 -77 -23 -56 -28 -84 -32 -183 -3 -101 -1 -128 18 -190 29 -96 41 -118 94 -172 113 -114 261 -142 440 -82 74 25 189 93 181 107 -3 4 -22 10 -42 13 -101 18 -195 60 -251 114 -8 7 -26 19 -42 27 -58 30 -136 132 -204 268 -36 72 -66 144 -66 160 0 29 -11 32 -47 15z m55 -252 c54 -108 71 -132 138 -195 95 -91 175 -143 253 -165 54 -15 80 -30 69 -41 -1 -2 -39 -8 -83 -14 -70 -10 -88 -9 -147 8 -84 24 -146 60 -196 115 -51 55 -67 86 -91 178 -32 119 -38 238 -12 238 3 0 34 -56 69 -124z" transform="translate(0,86) scale(0.1,-0.1)" stroke="none" fill="#E5E3DF"/>

</g>

</g>
<g id="col1" transform="translate(84, -32.0)">
<g id="0" transform="translate(0,0.0)scale(0.8,0.8)">

<path d="M748 192 c31 -9 25 -21 -28 -58 -46 -32 -133 -67 -205 -83 -36 -8 -37 -9 -10 -10 44 -1 161 44 225 87 83 56 91 73 33 71 -30 -1 -33 -2 -15 -7z" transform="translate(0,86) scale(0.1,-0.1)" stroke="none" fill="#38999E"/>

<path d="M100 641 c0 -5 4 -11 9 -13 5 -1 31 -50 59 -109 57 -119 106 -178 213 -261 69 -53 118 -79 197 -109 53 -19 15 -31 -81 -26 -109 6 -131 13 -202 56 -107 66 -157 159 -189 356 -15 89 -15 89 -10 20 6 -77 36 -200 60 -247 24 -46 91 -114 141 -144 25 -14 75 -35 111 -45 59 -17 77 -18 147 -8 44 6 82 12 83 14 11 11 -15 26 -69 41 -78 22 -158 74 -253 165 -67 63 -84 87 -138 195 -56 111 -78 143 -78 115z" transform="translate(0,86) scale(0.1,-0.1)" stroke="none" fill="#38999E"/>

<path d="M106 777 c-57 -57 -98 -250 -77 -365 34 -186 97 -279 234 -343 53 -25 85 -32 140 -35 l72 -3 -65 9 c-116 15 -188 47 -256 116 -53 54 -65 76 -94 172 -19 62 -21 89 -18 190 4 99 9 127 32 183 18 46 35 70 52 78 37 16 44 14 44 -16 0 -16 30 -88 66 -160 68 -136 146 -238 204 -268 16 -8 34 -20 42 -27 39 -38 90 -67 151 -87 37 -13 72 -21 78 -19 6 2 -22 14 -63 26 -68 21 -99 39 -230 139 -21 15 -55 51 -77 78 -51 65 -161 286 -161 325 0 25 -4 30 -25 30 -14 0 -36 -10 -49 -23z" transform="translate(0,86) scale(0.1,-0.1)" stroke="none" fill="#38999E"/>

<path d="M123 778 c-13 -6 -33 -36 -49 -77 -23 -56 -28 -84 -32 -183 -3 -101 -1 -128 18 -190 29 -96 41 -118 94 -172 113 -114 261 -142 440 -82 74 25 189 93 181 107 -3 4 -22 10 -42 13 -101 18 -195 60 -251 114 -8 7 -26 19 -42 27 -58 30 -136 132 -204 268 -36 72 -66 144 -66 160 0 29 -11 32 -47 15z m55 -252 c54 -108 71 -132 138 -195 95 -91 175 -143 253 -165 54 -15 80 -30 69 -41 -1 -2 -39 -8 -83 -14 -70 -10 -88 -9 -147 8 -84 24 -146 60 -196 115 -51 55 -67 86 -91 178 -32 119 -38 238 -12 238 3 0 34 -56 69 -124z" transform="translate(0,86) scale(0.1,-0.1)" stroke="none" fill="#E5E3DF"/>

</g>

<g id="1" transform="translate(0,86.0)scale(0.8,0.8)">

<path d="M748 192 c31 -9 25 -21 -28 -58 -46 -32 -133 -67 -205 -83 -36 -8 -37 -9 -10 -10 44 -1 161 44 225 87 83 56 91 73 33 71 -30 -1 -33 -2 -15 -7z" transform="translate(0,86) scale(0.1,-0.1)" stroke="none" fill="#38999E"/>

<path d="M100 641 c0 -5 4 -11 9 -13 5 -1 31 -50 59 -109 57 -119 106 -178 213 -261 69 -53 118 -79 197 -109 53 -19 15 -31 -81 -26 -109 6 -131 13 -202 56 -107 66 -157 159 -189 356 -15 89 -15 89 -10 20 6 -77 36 -200 60 -247 24 -46 91 -114 141 -144 25 -14 75 -35 111 -45 59 -17 77 -18 147 -8 44 6 82 12 83 14 11 11 -15 26 -69 41 -78 22 -158 74 -253 165 -67 63 -84 87 -138 195 -56 111 -78 143 -78 115z" transform="translate(0,86) scale(0.1,-0.1)" stroke="none" fill="#38999E"/>

<path d="M106 777 c-57 -57 -98 -250 -77 -365 34 -186 97 -279 234 -343 53 -25 85 -32 140 -35 l72 -3 -65 9 c-116 15 -188 47 -256 116 -53 54 -65 76 -94 172 -19 62 -21 89 -18 190 4 99 9 127 32 183 18 46 35 70 52 78 37 16 44 14 44 -16 0 -16 30 -88 66 -160 68 -136 146 -238 204 -268 16 -8 34 -20 42 -27 39 -38 90 -67 151 -87 37 -13 72 -21 78 -19 6 2 -22 14 -63 26 -68 21 -99 39 -230 139 -21 15 -55 51 -77 78 -51 65 -161 286 -161 325 0 25 -4 30 -25 30 -14 0 -36 -10 -49 -23z" transform="translate(0,86) scale(0.1,-0.1)" stroke="none" fill="#38999E"/>

<path d="M123 778 c-13 -6 -33 -36 -49 -77 -23 -56 -28 -84 -32 -183 -3 -101 -1 -128 18 -190 29 -96 41 -118 94 -172 113 -114 261 -142 440 -82 74 25 189 93 181 107 -3 4 -22 10 -42 13 -101 18 -195 60 -251 114 -8 7 -26 19 -42 27 -58 30 -136 132 -204 268 -36 72 -66 144 -66 160 0 29 -11 32 -47 15z m55 -252 c54 -108 71 -132 138 -195 95 -91 175 -143 253 -165 54 -15 80 -30 69 -41 -1 -2 -39 -8 -83 -14 -70 -10 -88 -9 -147 8 -84 24 -146 60 -196 115 -51 55 -67 86 -91 178 -32 119 -38 238 -12 238 3 0 34 -56 69 -124z" transform="translate(0,86) scale(0.1,-0.1)" stroke="none" fill="#E5E3DF"/>

</g>

<g id="2" transform="translate(0,172.0)scale(0.8,0.8)">

<path d="M748 192 c31 -9 25 -21 -28 -58 -46 -32 -133 -67 -205 -83 -36 -8 -37 -9 -10 -10 44 -1 161 44 225 87 83 56 91 73 33 71 -30 -1 -33 -2 -15 -7z" transform="translate(0,86) scale(0.1,-0.1)" stroke="none" fill="#38999E"/>

<path d="M100 641 c0 -5 4 -11 9 -13 5 -1 31 -50 59 -109 57 -119 106 -178 213 -261 69 -53 118 -79 197 -109 53 -19 15 -31 -81 -26 -109 6 -131 13 -202 56 -107 66 -157 159 -189 356 -15 89 -15 89 -10 20 6 -77 36 -200 60 -247 24 -46 91 -114 141 -144 25 -14 75 -35 111 -45 59 -17 77 -18 147 -8 44 6 82 12 83 14 11 11 -15 26 -69 41 -78 22 -158 74 -253 165 -67 63 -84 87 -138 195 -56 111 -78 143 -78 115z" transform="translate(0,86) scale(0.1,-0.1)" stroke="none" fill="#38999E"/>

<path d="M106 777 c-57 -57 -98 -250 -77 -365 34 -186 97 -279 234 -343 53 -25 85 -32 140 -35 l72 -3 -65 9 c-116 15 -188 47 -256 116 -53 54 -65 76 -94 172 -19 62 -21 89 -18 190 4 99 9 127 32 183 18 46 35 70 52 78 37 16 44 14 44 -16 0 -16 30 -88 66 -160 68 -136 146 -238 204 -268 16 -8 34 -20 42 -27 39 -38 90 -67 151 -87 37 -13 72 -21 78 -19 6 2 -22 14 -63 26 -68 21 -99 39 -230 139 -21 15 -55 51 -77 78 -51 65 -161 286 -161 325 0 25 -4 30 -25 30 -14 0 -36 -10 -49 -23z" transform="translate(0,86) scale(0.1,-0.1)" stroke="none" fill="#38999E"/>

<path d="M123 778 c-13 -6 -33 -36 -49 -77 -23 -56 -28 -84 -32 -183 -3 -101 -1 -128 18 -190 29 -96 41 -118 94 -172 113 -114 261 -142 440 -82 74 25 189 93 181 107 -3 4 -22 10 -42 13 -101 18 -195 60 -251 114 -8 7 -26 19 -42 27 -58 30 -136 132 -204 268 -36 72 -66 144 -66 160 0 29 -11 32 -47 15z m55 -252 c54 -108 71 -132 138 -195 95 -91 175 -143 253 -165 54 -15 80 -30 69 -41 -1 -2 -39 -8 -83 -14 -70 -10 -88 -9 -147 8 -84 24 -146 60 -196 115 -51 55 -67 86 -91 178 -32 119 -38 238 -12 238 3 0 34 -56 69 -124z" transform="translate(0,86) scale(0.1,-0.1)" stroke="none" fill="#E5E3DF"/>

</g>

<g id="3" transform="translate(0,258.0)scale(0.8,0.8)">

<path d="M748 192 c31 -9 25 -21 -28 -58 -46 -32 -133 -67 -205 -83 -36 -8 -37 -9 -10 -10 44 -1 161 44 225 87 83 56 91 73 33 71 -30 -1 -33 -2 -15 -7z" transform="translate(0,86) scale(0.1,-0.1)" stroke="none" fill="#38999E"/>

<path d="M100 641 c0 -5 4 -11 9 -13 5 -1 31 -50 59 -109 57 -119 106 -178 213 -261 69 -53 118 -79 197 -109 53 -19 15 -31 -81 -26 -109 6 -131 13 -202 56 -107 66 -157 159 -189 356 -15 89 -15 89 -10 20 6 -77 36 -200 60 -247 24 -46 91 -114 141 -144 25 -14 75 -35 111 -45 59 -17 77 -18 147 -8 44 6 82 12 83 14 11 11 -15 26 -69 41 -78 22 -158 74 -253 165 -67 63 -84 87 -138 195 -56 111 -78 143 -78 115z" transform="translate(0,86) scale(0.1,-0.1)" stroke="none" fill="#38999E"/>

<path d="M106 777 c-57 -57 -98 -250 -77 -365 34 -186 97 -279 234 -343 53 -25 85 -32 140 -35 l72 -3 -65 9 c-116 15 -188 47 -256 116 -53 54 -65 76 -94 172 -19 62 -21 89 -18 190 4 99 9 127 32 183 18 46 35 70 52 78 37 16 44 14 44 -16 0 -16 30 -88 66 -160 68 -136 146 -238 204 -268 16 -8 34 -20 42 -27 39 -38 90 -67 151 -87 37 -13 72 -21 78 -19 6 2 -22 14 -63 26 -68 21 -99 39 -230 139 -21 15 -55 51 -77 78 -51 65 -161 286 -161 325 0 25 -4 30 -25 30 -14 0 -36 -10 -49 -23z" transform="translate(0,86) scale(0.1,-0.1)" stroke="none" fill="#38999E"/>

<path d="M123 778 c-13 -6 -33 -36 -49 -77 -23 -56 -28 -84 -32 -183 -3 -101 -1 -128 18 -190 29 -96 41 -118 94 -172 113 -114 261 -142 440 -82 74 25 189 93 181 107 -3 4 -22 10 -42 13 -101 18 -195 60 -251 114 -8 7 -26 19 -42 27 -58 30 -136 132 -204 268 -36 72 -66 144 -66 160 0 29 -11 32 -47 15z m55 -252 c54 -108 71 -132 138 -195 95 -91 175 -143 253 -165 54 -15 80 -30 69 -41 -1 -2 -39 -8 -83 -14 -70 -10 -88 -9 -147 8 -84 24 -146 60 -196 115 -51 55 -67 86 -91 178 -32 119 -38 238 -12 238 3 0 34 -56 69 -124z" transform="translate(0,86) scale(0.1,-0.1)" stroke="none" fill="#E5E3DF"/>

</g>

<g id="4" transform="translate(0,344.0)scale(0.8,0.8)">

<path d="M748 192 c31 -9 25 -21 -28 -58 -46 -32 -133 -67 -205 -83 -36 -8 -37 -9 -10 -10 44 -1 161 44 225 87 83 56 91 73 33 71 -30 -1 -33 -2 -15 -7z" transform="translate(0,86) scale(0.1,-0.1)" stroke="none" fill="#38999E"/>

<path d="M100 641 c0 -5 4 -11 9 -13 5 -1 31 -50 59 -109 57 -119 106 -178 213 -261 69 -53 118 -79 197 -109 53 -19 15 -31 -81 -26 -109 6 -131 13 -202 56 -107 66 -157 159 -189 356 -15 89 -15 89 -10 20 6 -77 36 -200 60 -247 24 -46 91 -114 141 -144 25 -14 75 -35 111 -45 59 -17 77 -18 147 -8 44 6 82 12 83 14 11 11 -15 26 -69 41 -78 22 -158 74 -253 165 -67 63 -84 87 -138 195 -56 111 -78 143 -78 115z" transform="translate(0,86) scale(0.1,-0.1)" stroke="none" fill="#38999E"/>

<path d="M106 777 c-57 -57 -98 -250 -77 -365 34 -186 97 -279 234 -343 53 -25 85 -32 140 -35 l72 -3 -65 9 c-116 15 -188 47 -256 116 -53 54 -65 76 -94 172 -19 62 -21 89 -18 190 4 99 9 127 32 183 18 46 35 70 52 78 37 16 44 14 44 -16 0 -16 30 -88 66 -160 68 -136 146 -238 204 -268 16 -8 34 -20 42 -27 39 -38 90 -67 151 -87 37 -13 72 -21 78 -19 6 2 -22 14 -63 26 -68 21 -99 39 -230 139 -21 15 -55 51 -77 78 -51 65 -161 286 -161 325 0 25 -4 30 -25 30 -14 0 -36 -10 -49 -23z" transform="translate(0,86) scale(0.1,-0.1)" stroke="none" fill="#38999E"/>

<path d="M123 778 c-13 -6 -33 -36 -49 -77 -23 -56 -28 -84 -32 -183 -3 -101 -1 -128 18 -190 29 -96 41 -118 94 -172 113 -114 261 -142 440 -82 74 25 189 93 181 107 -3 4 -22 10 -42 13 -101 18 -195 60 -251 114 -8 7 -26 19 -42 27 -58 30 -136 132 -204 268 -36 72 -66 144 -66 160 0 29 -11 32 -47 15z m55 -252 c54 -108 71 -132 138 -195 95 -91 175 -143 253 -165 54 -15 80 -30 69 -41 -1 -2 -39 -8 -83 -14 -70 -10 -88 -9 -147 8 -84 24 -146 60 -196 115 -51 55 -67 86 -91 178 -32 119 -38 238 -12 238 3 0 34 -56 69 -124z" transform="translate(0,86) scale(0.1,-0.1)" stroke="none" fill="#E5E3DF"/>

</g>

</g>
<g id="col2" transform="translate(168, 11)">
<g id="0" transform="translate(0,0.0)scale(0.8,0.8)">

<path d="M748 192 c31 -9 25 -21 -28 -58 -46 -32 -133 -67 -205 -83 -36 -8 -37 -9 -10 -10 44 -1 161 44 225 87 83 56 91 73 33 71 -30 -1 -33 -2 -15 -7z" transform="translate(0,86) scale(0.1,-0.1)" stroke="none" fill="#38999E"/>

<path d="M100 641 c0 -5 4 -11 9 -13 5 -1 31 -50 59 -109 57 -119 106 -178 213 -261 69 -53 118 -79 197 -109 53 -19 15 -31 -81 -26 -109 6 -131 13 -202 56 -107 66 -157 159 -189 356 -15 89 -15 89 -10 20 6 -77 36 -200 60 -247 24 -46 91 -114 141 -144 25 -14 75 -35 111 -45 59 -17 77 -18 147 -8 44 6 82 12 83 14 11 11 -15 26 -69 41 -78 22 -158 74 -253 165 -67 63 -84 87 -138 195 -56 111 -78 143 -78 115z" transform="translate(0,86) scale(0.1,-0.1)" stroke="none" fill="#38999E"/>

<path d="M106 777 c-57 -57 -98 -250 -77 -365 34 -186 97 -279 234 -343 53 -25 85 -32 140 -35 l72 -3 -65 9 c-116 15 -188 47 -256 116 -53 54 -65 76 -94 172 -19 62 -21 89 -18 190 4 99 9 127 32 183 18 46 35 70 52 78 37 16 44 14 44 -16 0 -16 30 -88 66 -160 68 -136 146 -238 204 -268 16 -8 34 -20 42 -27 39 -38 90 -67 151 -87 37 -13 72 -21 78 -19 6 2 -22 14 -63 26 -68 21 -99 39 -230 139 -21 15 -55 51 -77 78 -51 65 -161 286 -161 325 0 25 -4 30 -25 30 -14 0 -36 -10 -49 -23z" transform="translate(0,86) scale(0.1,-0.1)" stroke="none" fill="#38999E"/>

<path d="M123 778 c-13 -6 -33 -36 -49 -77 -23 -56 -28 -84 -32 -183 -3 -101 -1 -128 18 -190 29 -96 41 -118 94 -172 113 -114 261 -142 440 -82 74 25 189 93 181 107 -3 4 -22 10 -42 13 -101 18 -195 60 -251 114 -8 7 -26 19 -42 27 -58 30 -136 132 -204 268 -36 72 -66 144 -66 160 0 29 -11 32 -47 15z m55 -252 c54 -108 71 -132 138 -195 95 -91 175 -143 253 -165 54 -15 80 -30 69 -41 -1 -2 -39 -8 -83 -14 -70 -10 -88 -9 -147 8 -84 24 -146 60 -196 115 -51 55 -67 86 -91 178 -32 119 -38 238 -12 238 3 0 34 -56 69 -124z" transform="translate(0,86) scale(0.1,-0.1)" stroke="none" fill="#E5E3DF"/>

</g>

<g id="1" transform="translate(0,86.0)scale(0.8,0.8)">

<path d="M748 192 c31 -9 25 -21 -28 -58 -46 -32 -133 -67 -205 -83 -36 -8 -37 -9 -10 -10 44 -1 161 44 225 87 83 56 91 73 33 71 -30 -1 -33 -2 -15 -7z" transform="translate(0,86) scale(0.1,-0.1)" stroke="none" fill="#38999E"/>

<path d="M100 641 c0 -5 4 -11 9 -13 5 -1 31 -50 59 -109 57 -119 106 -178 213 -261 69 -53 118 -79 197 -109 53 -19 15 -31 -81 -26 -109 6 -131 13 -202 56 -107 66 -157 159 -189 356 -15 89 -15 89 -10 20 6 -77 36 -200 60 -247 24 -46 91 -114 141 -144 25 -14 75 -35 111 -45 59 -17 77 -18 147 -8 44 6 82 12 83 14 11 11 -15 26 -69 41 -78 22 -158 74 -253 165 -67 63 -84 87 -138 195 -56 111 -78 143 -78 115z" transform="translate(0,86) scale(0.1,-0.1)" stroke="none" fill="#38999E"/>

<path d="M106 777 c-57 -57 -98 -250 -77 -365 34 -186 97 -279 234 -343 53 -25 85 -32 140 -35 l72 -3 -65 9 c-116 15 -188 47 -256 116 -53 54 -65 76 -94 172 -19 62 -21 89 -18 190 4 99 9 127 32 183 18 46 35 70 52 78 37 16 44 14 44 -16 0 -16 30 -88 66 -160 68 -136 146 -238 204 -268 16 -8 34 -20 42 -27 39 -38 90 -67 151 -87 37 -13 72 -21 78 -19 6 2 -22 14 -63 26 -68 21 -99 39 -230 139 -21 15 -55 51 -77 78 -51 65 -161 286 -161 325 0 25 -4 30 -25 30 -14 0 -36 -10 -49 -23z" transform="translate(0,86) scale(0.1,-0.1)" stroke="none" fill="#38999E"/>

<path d="M123 778 c-13 -6 -33 -36 -49 -77 -23 -56 -28 -84 -32 -183 -3 -101 -1 -128 18 -190 29 -96 41 -118 94 -172 113 -114 261 -142 440 -82 74 25 189 93 181 107 -3 4 -22 10 -42 13 -101 18 -195 60 -251 114 -8 7 -26 19 -42 27 -58 30 -136 132 -204 268 -36 72 -66 144 -66 160 0 29 -11 32 -47 15z m55 -252 c54 -108 71 -132 138 -195 95 -91 175 -143 253 -165 54 -15 80 -30 69 -41 -1 -2 -39 -8 -83 -14 -70 -10 -88 -9 -147 8 -84 24 -146 60 -196 115 -51 55 -67 86 -91 178 -32 119 -38 238 -12 238 3 0 34 -56 69 -124z" transform="translate(0,86) scale(0.1,-0.1)" stroke="none" fill="#E5E3DF"/>

</g>

<g id="2" transform="translate(0,172.0)scale(0.8,0.8)">

<path d="M748 192 c31 -9 25 -21 -28 -58 -46 -32 -133 -67 -205 -83 -36 -8 -37 -9 -10 -10 44 -1 161 44 225 87 83 56 91 73 33 71 -30 -1 -33 -2 -15 -7z" transform="translate(0,86) scale(0.1,-0.1)" stroke="none" fill="#38999E"/>

<path d="M100 641 c0 -5 4 -11 9 -13 5 -1 31 -50 59 -109 57 -119 106 -178 213 -261 69 -53 118 -79 197 -109 53 -19 15 -31 -81 -26 -109 6 -131 13 -202 56 -107 66 -157 159 -189 356 -15 89 -15 89 -10 20 6 -77 36 -200 60 -247 24 -46 91 -114 141 -144 25 -14 75 -35 111 -45 59 -17 77 -18 147 -8 44 6 82 12 83 14 11 11 -15 26 -69 41 -78 22 -158 74 -253 165 -67 63 -84 87 -138 195 -56 111 -78 143 -78 115z" transform="translate(0,86) scale(0.1,-0.1)" stroke="none" fill="#38999E"/>

<path d="M106 777 c-57 -57 -98 -250 -77 -365 34 -186 97 -279 234 -343 53 -25 85 -32 140 -35 l72 -3 -65 9 c-116 15 -188 47 -256 116 -53 54 -65 76 -94 172 -19 62 -21 89 -18 190 4 99 9 127 32 183 18 46 35 70 52 78 37 16 44 14 44 -16 0 -16 30 -88 66 -160 68 -136 146 -238 204 -268 16 -8 34 -20 42 -27 39 -38 90 -67 151 -87 37 -13 72 -21 78 -19 6 2 -22 14 -63 26 -68 21 -99 39 -230 139 -21 15 -55 51 -77 78 -51 65 -161 286 -161 325 0 25 -4 30 -25 30 -14 0 -36 -10 -49 -23z" transform="translate(0,86) scale(0.1,-0.1)" stroke="none" fill="#38999E"/>

<path d="M123 778 c-13 -6 -33 -36 -49 -77 -23 -56 -28 -84 -32 -183 -3 -101 -1 -128 18 -190 29 -96 41 -118 94 -172 113 -114 261 -142 440 -82 74 25 189 93 181 107 -3 4 -22 10 -42 13 -101 18 -195 60 -251 114 -8 7 -26 19 -42 27 -58 30 -136 132 -204 268 -36 72 -66 144 -66 160 0 29 -11 32 -47 15z m55 -252 c54 -108 71 -132 138 -195 95 -91 175 -143 253 -165 54 -15 80 -30 69 -41 -1 -2 -39 -8 -83 -14 -70 -10 -88 -9 -147 8 -84 24 -146 60 -196 115 -51 55 -67 86 -91 178 -32 119 -38 238 -12 238 3 0 34 -56 69 -124z" transform="translate(0,86) scale(0.1,-0.1)" stroke="none" fill="#E5E3DF"/>

</g>

<g id="3" transform="translate(0,258.0)scale(0.8,0.8)">

<path d="M748 192 c31 -9 25 -21 -28 -58 -46 -32 -133 -67 -205 -83 -36 -8 -37 -9 -10 -10 44 -1 161 44 225 87 83 56 91 73 33 71 -30 -1 -33 -2 -15 -7z" transform="translate(0,86) scale(0.1,-0.1)" stroke="none" fill="#38999E"/>

<path d="M100 641 c0 -5 4 -11 9 -13 5 -1 31 -50 59 -109 57 -119 106 -178 213 -261 69 -53 118 -79 197 -109 53 -19 15 -31 -81 -26 -109 6 -131 13 -202 56 -107 66 -157 159 -189 356 -15 89 -15 89 -10 20 6 -77 36 -200 60 -247 24 -46 91 -114 141 -144 25 -14 75 -35 111 -45 59 -17 77 -18 147 -8 44 6 82 12 83 14 11 11 -15 26 -69 41 -78 22 -158 74 -253 165 -67 63 -84 87 -138 195 -56 111 -78 143 -78 115z" transform="translate(0,86) scale(0.1,-0.1)" stroke="none" fill="#38999E"/>

<path d="M106 777 c-57 -57 -98 -250 -77 -365 34 -186 97 -279 234 -343 53 -25 85 -32 140 -35 l72 -3 -65 9 c-116 15 -188 47 -256 116 -53 54 -65 76 -94 172 -19 62 -21 89 -18 190 4 99 9 127 32 183 18 46 35 70 52 78 37 16 44 14 44 -16 0 -16 30 -88 66 -160 68 -136 146 -238 204 -268 16 -8 34 -20 42 -27 39 -38 90 -67 151 -87 37 -13 72 -21 78 -19 6 2 -22 14 -63 26 -68 21 -99 39 -230 139 -21 15 -55 51 -77 78 -51 65 -161 286 -161 325 0 25 -4 30 -25 30 -14 0 -36 -10 -49 -23z" transform="translate(0,86) scale(0.1,-0.1)" stroke="none" fill="#38999E"/>

<path d="M123 778 c-13 -6 -33 -36 -49 -77 -23 -56 -28 -84 -32 -183 -3 -101 -1 -128 18 -190 29 -96 41 -118 94 -172 113 -114 261 -142 440 -82 74 25 189 93 181 107 -3 4 -22 10 -42 13 -101 18 -195 60 -251 114 -8 7 -26 19 -42 27 -58 30 -136 132 -204 268 -36 72 -66 144 -66 160 0 29 -11 32 -47 15z m55 -252 c54 -108 71 -132 138 -195 95 -91 175 -143 253 -165 54 -15 80 -30 69 -41 -1 -2 -39 -8 -83 -14 -70 -10 -88 -9 -147 8 -84 24 -146 60 -196 115 -51 55 -67 86 -91 178 -32 119 -38 238 -12 238 3 0 34 -56 69 -124z" transform="translate(0,86) scale(0.1,-0.1)" stroke="none" fill="#E5E3DF"/>

</g>

<g id="4" transform="translate(0,344.0)scale(0.8,0.8)">

<path d="M748 192 c31 -9 25 -21 -28 -58 -46 -32 -133 -67 -205 -83 -36 -8 -37 -9 -10 -10 44 -1 161 44 225 87 83 56 91 73 33 71 -30 -1 -33 -2 -15 -7z" transform="translate(0,86) scale(0.1,-0.1)" stroke="none" fill="#38999E"/>

<path d="M100 641 c0 -5 4 -11 9 -13 5 -1 31 -50 59 -109 57 -119 106 -178 213 -261 69 -53 118 -79 197 -109 53 -19 15 -31 -81 -26 -109 6 -131 13 -202 56 -107 66 -157 159 -189 356 -15 89 -15 89 -10 20 6 -77 36 -200 60 -247 24 -46 91 -114 141 -144 25 -14 75 -35 111 -45 59 -17 77 -18 147 -8 44 6 82 12 83 14 11 11 -15 26 -69 41 -78 22 -158 74 -253 165 -67 63 -84 87 -138 195 -56 111 -78 143 -78 115z" transform="translate(0,86) scale(0.1,-0.1)" stroke="none" fill="#38999E"/>

<path d="M106 777 c-57 -57 -98 -250 -77 -365 34 -186 97 -279 234 -343 53 -25 85 -32 140 -35 l72 -3 -65 9 c-116 15 -188 47 -256 116 -53 54 -65 76 -94 172 -19 62 -21 89 -18 190 4 99 9 127 32 183 18 46 35 70 52 78 37 16 44 14 44 -16 0 -16 30 -88 66 -160 68 -136 146 -238 204 -268 16 -8 34 -20 42 -27 39 -38 90 -67 151 -87 37 -13 72 -21 78 -19 6 2 -22 14 -63 26 -68 21 -99 39 -230 139 -21 15 -55 51 -77 78 -51 65 -161 286 -161 325 0 25 -4 30 -25 30 -14 0 -36 -10 -49 -23z" transform="translate(0,86) scale(0.1,-0.1)" stroke="none" fill="#38999E"/>

<path d="M123 778 c-13 -6 -33 -36 -49 -77 -23 -56 -28 -84 -32 -183 -3 -101 -1 -128 18 -190 29 -96 41 -118 94 -172 113 -114 261 -142 440 -82 74 25 189 93 181 107 -3 4 -22 10 -42 13 -101 18 -195 60 -251 114 -8 7 -26 19 -42 27 -58 30 -136 132 -204 268 -36 72 -66 144 -66 160 0 29 -11 32 -47 15z m55 -252 c54 -108 71 -132 138 -195 95 -91 175 -143 253 -165 54 -15 80 -30 69 -41 -1 -2 -39 -8 -83 -14 -70 -10 -88 -9 -147 8 -84 24 -146 60 -196 115 -51 55 -67 86 -91 178 -32 119 -38 238 -12 238 3 0 34 -56 69 -124z" transform="translate(0,86) scale(0.1,-0.1)" stroke="none" fill="#E5E3DF"/>

</g>

</g>
<g id="col3" transform="translate(252, -32.0)">
<g id="0" transform="translate(0,0.0)scale(0.8,0.8)">

<path d="M748 192 c31 -9 25 -21 -28 -58 -46 -32 -133 -67 -205 -83 -36 -8 -37 -9 -10 -10 44 -1 161 44 225 87 83 56 91 73 33 71 -30 -1 -33 -2 -15 -7z" transform="translate(0,86) scale(0.1,-0.1)" stroke="none" fill="#38999E"/>

<path d="M100 641 c0 -5 4 -11 9 -13 5 -1 31 -50 59 -109 57 -119 106 -178 213 -261 69 -53 118 -79 197 -109 53 -19 15 -31 -81 -26 -109 6 -131 13 -202 56 -107 66 -157 159 -189 356 -15 89 -15 89 -10 20 6 -77 36 -200 60 -247 24 -46 91 -114 141 -144 25 -14 75 -35 111 -45 59 -17 77 -18 147 -8 44 6 82 12 83 14 11 11 -15 26 -69 41 -78 22 -158 74 -253 165 -67 63 -84 87 -138 195 -56 111 -78 143 -78 115z" transform="translate(0,86) scale(0.1,-0.1)" stroke="none" fill="#38999E"/>

<path d="M106 777 c-57 -57 -98 -250 -77 -365 34 -186 97 -279 234 -343 53 -25 85 -32 140 -35 l72 -3 -65 9 c-116 15 -188 47 -256 116 -53 54 -65 76 -94 172 -19 62 -21 89 -18 190 4 99 9 127 32 183 18 46 35 70 52 78 37 16 44 14 44 -16 0 -16 30 -88 66 -160 68 -136 146 -238 204 -268 16 -8 34 -20 42 -27 39 -38 90 -67 151 -87 37 -13 72 -21 78 -19 6 2 -22 14 -63 26 -68 21 -99 39 -230 139 -21 15 -55 51 -77 78 -51 65 -161 286 -161 325 0 25 -4 30 -25 30 -14 0 -36 -10 -49 -23z" transform="translate(0,86) scale(0.1,-0.1)" stroke="none" fill="#38999E"/>

<path d="M123 778 c-13 -6 -33 -36 -49 -77 -23 -56 -28 -84 -32 -183 -3 -101 -1 -128 18 -190 29 -96 41 -118 94 -172 113 -114 261 -142 440 -82 74 25 189 93 181 107 -3 4 -22 10 -42 13 -101 18 -195 60 -251 114 -8 7 -26 19 -42 27 -58 30 -136 132 -204 268 -36 72 -66 144 -66 160 0 29 -11 32 -47 15z m55 -252 c54 -108 71 -132 138 -195 95 -91 175 -143 253 -165 54 -15 80 -30 69 -41 -1 -2 -39 -8 -83 -14 -70 -10 -88 -9 -147 8 -84 24 -146 60 -196 115 -51 55 -67 86 -91 178 -32 119 -38 238 -12 238 3 0 34 -56 69 -124z" transform="translate(0,86) scale(0.1,-0.1)" stroke="none" fill="#E5E3DF"/>

</g>

<g id="1" transform="translate(0,86.0)scale(0.8,0.8)">

<path d="M748 192 c31 -9 25 -21 -28 -58 -46 -32 -133 -67 -205 -83 -36 -8 -37 -9 -10 -10 44 -1 161 44 225 87 83 56 91 73 33 71 -30 -1 -33 -2 -15 -7z" transform="translate(0,86) scale(0.1,-0.1)" stroke="none" fill="#38999E"/>

<path d="M100 641 c0 -5 4 -11 9 -13 5 -1 31 -50 59 -109 57 -119 106 -178 213 -261 69 -53 118 -79 197 -109 53 -19 15 -31 -81 -26 -109 6 -131 13 -202 56 -107 66 -157 159 -189 356 -15 89 -15 89 -10 20 6 -77 36 -200 60 -247 24 -46 91 -114 141 -144 25 -14 75 -35 111 -45 59 -17 77 -18 147 -8 44 6 82 12 83 14 11 11 -15 26 -69 41 -78 22 -158 74 -253 165 -67 63 -84 87 -138 195 -56 111 -78 143 -78 115z" transform="translate(0,86) scale(0.1,-0.1)" stroke="none" fill="#38999E"/>

<path d="M106 777 c-57 -57 -98 -250 -77 -365 34 -186 97 -279 234 -343 53 -25 85 -32 140 -35 l72 -3 -65 9 c-116 15 -188 47 -256 116 -53 54 -65 76 -94 172 -19 62 -21 89 -18 190 4 99 9 127 32 183 18 46 35 70 52 78 37 16 44 14 44 -16 0 -16 30 -88 66 -160 68 -136 146 -238 204 -268 16 -8 34 -20 42 -27 39 -38 90 -67 151 -87 37 -13 72 -21 78 -19 6 2 -22 14 -63 26 -68 21 -99 39 -230 139 -21 15 -55 51 -77 78 -51 65 -161 286 -161 325 0 25 -4 30 -25 30 -14 0 -36 -10 -49 -23z" transform="translate(0,86) scale(0.1,-0.1)" stroke="none" fill="#38999E"/>

<path d="M123 778 c-13 -6 -33 -36 -49 -77 -23 -56 -28 -84 -32 -183 -3 -101 -1 -128 18 -190 29 -96 41 -118 94 -172 113 -114 261 -142 440 -82 74 25 189 93 181 107 -3 4 -22 10 -42 13 -101 18 -195 60 -251 114 -8 7 -26 19 -42 27 -58 30 -136 132 -204 268 -36 72 -66 144 -66 160 0 29 -11 32 -47 15z m55 -252 c54 -108 71 -132 138 -195 95 -91 175 -143 253 -165 54 -15 80 -30 69 -41 -1 -2 -39 -8 -83 -14 -70 -10 -88 -9 -147 8 -84 24 -146 60 -196 115 -51 55 -67 86 -91 178 -32 119 -38 238 -12 238 3 0 34 -56 69 -124z" transform="translate(0,86) scale(0.1,-0.1)" stroke="none" fill="#E5E3DF"/>

</g>

<g id="2" transform="translate(0,172.0)scale(0.8,0.8)">

<path d="M748 192 c31 -9 25 -21 -28 -58 -46 -32 -133 -67 -205 -83 -36 -8 -37 -9 -10 -10 44 -1 161 44 225 87 83 56 91 73 33 71 -30 -1 -33 -2 -15 -7z" transform="translate(0,86) scale(0.1,-0.1)" stroke="none" fill="#38999E"/>

<path d="M100 641 c0 -5 4 -11 9 -13 5 -1 31 -50 59 -109 57 -119 106 -178 213 -261 69 -53 118 -79 197 -109 53 -19 15 -31 -81 -26 -109 6 -131 13 -202 56 -107 66 -157 159 -189 356 -15 89 -15 89 -10 20 6 -77 36 -200 60 -247 24 -46 91 -114 141 -144 25 -14 75 -35 111 -45 59 -17 77 -18 147 -8 44 6 82 12 83 14 11 11 -15 26 -69 41 -78 22 -158 74 -253 165 -67 63 -84 87 -138 195 -56 111 -78 143 -78 115z" transform="translate(0,86) scale(0.1,-0.1)" stroke="none" fill="#38999E"/>

<path d="M106 777 c-57 -57 -98 -250 -77 -365 34 -186 97 -279 234 -343 53 -25 85 -32 140 -35 l72 -3 -65 9 c-116 15 -188 47 -256 116 -53 54 -65 76 -94 172 -19 62 -21 89 -18 190 4 99 9 127 32 183 18 46 35 70 52 78 37 16 44 14 44 -16 0 -16 30 -88 66 -160 68 -136 146 -238 204 -268 16 -8 34 -20 42 -27 39 -38 90 -67 151 -87 37 -13 72 -21 78 -19 6 2 -22 14 -63 26 -68 21 -99 39 -230 139 -21 15 -55 51 -77 78 -51 65 -161 286 -161 325 0 25 -4 30 -25 30 -14 0 -36 -10 -49 -23z" transform="translate(0,86) scale(0.1,-0.1)" stroke="none" fill="#38999E"/>

<path d="M123 778 c-13 -6 -33 -36 -49 -77 -23 -56 -28 -84 -32 -183 -3 -101 -1 -128 18 -190 29 -96 41 -118 94 -172 113 -114 261 -142 440 -82 74 25 189 93 181 107 -3 4 -22 10 -42 13 -101 18 -195 60 -251 114 -8 7 -26 19 -42 27 -58 30 -136 132 -204 268 -36 72 -66 144 -66 160 0 29 -11 32 -47 15z m55 -252 c54 -108 71 -132 138 -195 95 -91 175 -143 253 -165 54 -15 80 -30 69 -41 -1 -2 -39 -8 -83 -14 -70 -10 -88 -9 -147 8 -84 24 -146 60 -196 115 -51 55 -67 86 -91 178 -32 119 -38 238 -12 238 3 0 34 -56 69 -124z" transform="translate(0,86) scale(0.1,-0.1)" stroke="none" fill="#E5E3DF"/>

</g>

<g id="3" transform="translate(0,258.0)scale(0.8,0.8)">

<path d="M748 192 c31 -9 25 -21 -28 -58 -46 -32 -133 -67 -205 -83 -36 -8 -37 -9 -10 -10 44 -1 161 44 225 87 83 56 91 73 33 71 -30 -1 -33 -2 -15 -7z" transform="translate(0,86) scale(0.1,-0.1)" stroke="none" fill="#38999E"/>

<path d="M100 641 c0 -5 4 -11 9 -13 5 -1 31 -50 59 -109 57 -119 106 -178 213 -261 69 -53 118 -79 197 -109 53 -19 15 -31 -81 -26 -109 6 -131 13 -202 56 -107 66 -157 159 -189 356 -15 89 -15 89 -10 20 6 -77 36 -200 60 -247 24 -46 91 -114 141 -144 25 -14 75 -35 111 -45 59 -17 77 -18 147 -8 44 6 82 12 83 14 11 11 -15 26 -69 41 -78 22 -158 74 -253 165 -67 63 -84 87 -138 195 -56 111 -78 143 -78 115z" transform="translate(0,86) scale(0.1,-0.1)" stroke="none" fill="#38999E"/>

<path d="M106 777 c-57 -57 -98 -250 -77 -365 34 -186 97 -279 234 -343 53 -25 85 -32 140 -35 l72 -3 -65 9 c-116 15 -188 47 -256 116 -53 54 -65 76 -94 172 -19 62 -21 89 -18 190 4 99 9 127 32 183 18 46 35 70 52 78 37 16 44 14 44 -16 0 -16 30 -88 66 -160 68 -136 146 -238 204 -268 16 -8 34 -20 42 -27 39 -38 90 -67 151 -87 37 -13 72 -21 78 -19 6 2 -22 14 -63 26 -68 21 -99 39 -230 139 -21 15 -55 51 -77 78 -51 65 -161 286 -161 325 0 25 -4 30 -25 30 -14 0 -36 -10 -49 -23z" transform="translate(0,86) scale(0.1,-0.1)" stroke="none" fill="#38999E"/>

<path d="M123 778 c-13 -6 -33 -36 -49 -77 -23 -56 -28 -84 -32 -183 -3 -101 -1 -128 18 -190 29 -96 41 -118 94 -172 113 -114 261 -142 440 -82 74 25 189 93 181 107 -3 4 -22 10 -42 13 -101 18 -195 60 -251 114 -8 7 -26 19 -42 27 -58 30 -136 132 -204 268 -36 72 -66 144 -66 160 0 29 -11 32 -47 15z m55 -252 c54 -108 71 -132 138 -195 95 -91 175 -143 253 -165 54 -15 80 -30 69 -41 -1 -2 -39 -8 -83 -14 -70 -10 -88 -9 -147 8 -84 24 -146 60 -196 115 -51 55 -67 86 -91 178 -32 119 -38 238 -12 238 3 0 34 -56 69 -124z" transform="translate(0,86) scale(0.1,-0.1)" stroke="none" fill="#E5E3DF"/>

</g>

<g id="4" transform="translate(0,344.0)scale(0.8,0.8)">

<path d="M748 192 c31 -9 25 -21 -28 -58 -46 -32 -133 -67 -205 -83 -36 -8 -37 -9 -10 -10 44 -1 161 44 225 87 83 56 91 73 33 71 -30 -1 -33 -2 -15 -7z" transform="translate(0,86) scale(0.1,-0.1)" stroke="none" fill="#38999E"/>

<path d="M100 641 c0 -5 4 -11 9 -13 5 -1 31 -50 59 -109 57 -119 106 -178 213 -261 69 -53 118 -79 197 -109 53 -19 15 -31 -81 -26 -109 6 -131 13 -202 56 -107 66 -157 159 -189 356 -15 89 -15 89 -10 20 6 -77 36 -200 60 -247 24 -46 91 -114 141 -144 25 -14 75 -35 111 -45 59 -17 77 -18 147 -8 44 6 82 12 83 14 11 11 -15 26 -69 41 -78 22 -158 74 -253 165 -67 63 -84 87 -138 195 -56 111 -78 143 -78 115z" transform="translate(0,86) scale(0.1,-0.1)" stroke="none" fill="#38999E"/>

<path d="M106 777 c-57 -57 -98 -250 -77 -365 34 -186 97 -279 234 -343 53 -25 85 -32 140 -35 l72 -3 -65 9 c-116 15 -188 47 -256 116 -53 54 -65 76 -94 172 -19 62 -21 89 -18 190 4 99 9 127 32 183 18 46 35 70 52 78 37 16 44 14 44 -16 0 -16 30 -88 66 -160 68 -136 146 -238 204 -268 16 -8 34 -20 42 -27 39 -38 90 -67 151 -87 37 -13 72 -21 78 -19 6 2 -22 14 -63 26 -68 21 -99 39 -230 139 -21 15 -55 51 -77 78 -51 65 -161 286 -161 325 0 25 -4 30 -25 30 -14 0 -36 -10 -49 -23z" transform="translate(0,86) scale(0.1,-0.1)" stroke="none" fill="#38999E"/>

<path d="M123 778 c-13 -6 -33 -36 -49 -77 -23 -56 -28 -84 -32 -183 -3 -101 -1 -128 18 -190 29 -96 41 -118 94 -172 113 -114 261 -142 440 -82 74 25 189 93 181 107 -3 4 -22 10 -42 13 -101 18 -195 60 -251 114 -8 7 -26 19 -42 27 -58 30 -136 132 -204 268 -36 72 -66 144 -66 160 0 29 -11 32 -47 15z m55 -252 c54 -108 71 -132 138 -195 95 -91 175 -143 253 -165 54 -15 80 -30 69 -41 -1 -2 -39 -8 -83 -14 -70 -10 -88 -9 -147 8 -84 24 -146 60 -196 115 -51 55 -67 86 -91 178 -32 119 -38 238 -12 238 3 0 34 -56 69 -124z" transform="translate(0,86) scale(0.1,-0.1)" stroke="none" fill="#E5E3DF"/>

</g>

</g>
</svg>