<?xml version="1.0" standalone="no"?>
<!DOCTYPE svg PUBLIC "-//W3C//DTD SVG 20010904//EN"
 "http://www.w3.org/TR/2001/REC-SVG-20010904/DTD/svg10.dtd">
<svg version="1.0" xmlns="http://www.w3.org/2000/svg" 
width="198.000000pt" height="162.000000pt" viewBox="0 0 198.000000 162.000000"
preserveAspectRatio = "xMidYMid meet" >
<metadata>
Created by ZoeQU, 2022
</metadata>
<rect width="198.000000" height="162.000000" fill="#9BE6DC"/>
<path d="M635 1453 c-78 -20 -128 -117 -105 -205 l12 -43 17 35 c17 36 31 40 95 28 15 -2 21 5 27 31 4 18 13 37 21 42 18 12 65 11 73 -1 11 -18 35 -11 35 10 0 13 7 20 20 20 40 0 11 49 -47 79 -21 11 -110 13 -148 4z" transform="translate(0.000000,162.000000) scale(0.100000,-0.100000)" stroke="none" fill="#BC924B"/>

<path d="M627 248 c-6 -44 10 -96 37 -124 32 -32 107 -57 153 -50 59 8 78 20 113 68 35 48 36 55 10 63 -11 3 -20 13 -20 21 0 18 -2 18 -44 -7 -45 -26 -73 -18 -92 27 -16 37 -25 42 -44 19 -18 -22 -67 -19 -82 5 -19 29 -25 25 -31 -22z" transform="translate(0.000000,162.000000) scale(0.100000,-0.100000)" stroke="none" fill="#BC924B"/>

<path d="M1522 1539 c-36 -14 -61 -50 -62 -86 0 -18 -4 -33 -10 -33 -5 0 -10 -11 -10 -24 0 -25 -50 -127 -72 -149 -45 -44 -250 -127 -313 -127 -66 0 -83 17 -141 134 -51 105 -54 109 -60 78 -9 -44 -33 -56 -78 -37 -48 20 -56 19 -56 -8 0 -52 -64 -89 -97 -56 -14 14 -33 3 -33 -18 0 -9 -7 -21 -16 -28 -15 -11 -15 -16 5 -69 21 -56 28 -106 14 -106 -4 0 -25 9 -47 20 -123 59 -278 35 -370 -58 -48 -47 -61 -73 -77 -149 -24 -116 29 -287 109 -353 94 -78 269 -79 382 -3 67 45 78 32 61 -70 -7 -41 -5 -49 11 -58 10 -5 18 -16 18 -24 0 -23 20 -28 40 -10 29 26 72 16 90 -22 17 -38 32 -41 67 -13 14 11 32 20 41 20 18 0 41 -29 42 -52 0 -44 18 -9 50 98 41 136 57 155 143 162 64 5 219 -36 279 -74 47 -30 50 -30 42 1 -10 39 19 75 60 75 l34 0 -5 44 c-5 37 -2 46 18 60 13 9 38 16 55 16 28 0 31 3 27 21 -5 17 -2 20 18 17 18 -2 25 -10 27 -31 5 -41 -13 -58 -62 -55 l-41 3 3 -46 c3 -53 -7 -66 -58 -71 -33 -3 -35 -5 -32 -35 2 -25 -1 -33 -12 -33 -19 0 -21 -16 -3 -27 7 -4 30 -44 52 -87 58 -115 114 -142 199 -93 44 25 100 100 116 155 30 109 2 181 -126 322 -47 52 -92 110 -100 129 -27 65 -13 155 38 230 77 115 126 250 114 316 -28 147 -164 248 -274 204z m-54 -272 c3 -25 7 -27 47 -27 50 0 68 -20 63 -68 -3 -26 -2 -27 45 -24 27 2 55 -2 63 -9 18 -15 18 -53 -1 -69 -17 -14 -35 -5 -35 19 0 16 -6 18 -43 14 -50 -6 -68 9 -71 59 -2 31 -4 33 -37 33 -46 0 -69 20 -69 60 0 52 32 62 38 12z m-964 -352 c63 -43 92 -79 108 -138 18 -70 -2 -126 -74 -201 -57 -58 -60 -60 -74 -42 -29 40 -10 96 29 89 53 -10 88 116 53 185 -18 34 -57 56 -85 47 -16 -5 -23 -1 -32 19 -12 26 -5 76 11 76 6 0 34 -16 64 -35z m-130 -54 c22 -24 14 -53 -19 -71 -20 -11 -28 -10 -50 4 -29 19 -31 33 -9 64 19 27 55 28 78 3z m21 -215 c13 -19 14 -29 5 -45 -6 -12 -15 -21 -20 -21 -4 0 -15 -3 -23 -6 -16 -6 -57 28 -57 46 0 17 39 50 60 50 11 0 27 -11 35 -24z" transform="translate(0.000000,162.000000) scale(0.100000,-0.100000)" stroke="none" fill="#BC924B"/>

</svg>