<?xml version="1.0" standalone="no"?>
<!DOCTYPE svg PUBLIC "-//W3C//DTD SVG 20010904//EN"
 "http://www.w3.org/TR/2001/REC-SVG-20010904/DTD/svg10.dtd">
<svg version="1.0" xmlns="http://www.w3.org/2000/svg" 
width="110.000000pt" height="104.000000pt" viewBox="0 0 110.000000 104.000000"
preserveAspectRatio = "xMidYMid meet" >
<metadata>
Created by ZoeQU, 2022
</metadata>
<rect width="110.000000" height="104.000000" fill="#9BE6DC"/>
<path d="M250 350 c0 -5 7 -10 15 -10 17 0 31 -43 20 -61 -5 -8 -1 -9 16 -4 35 11 35 12 6 41 -15 15 -27 31 -27 35 0 5 -7 9 -15 9 -8 0 -15 -4 -15 -10z" transform="translate(0.000000,104.000000) scale(0.100000,-0.100000)" stroke="none" fill="#F2C7D3"/>

<path d="M251 633 c-17 -61 -14 -103 7 -103 27 0 62 37 62 65 0 34 -10 55 -26 55 -8 0 -14 5 -14 10 0 25 -20 6 -29 -27z" transform="translate(0.000000,104.000000) scale(0.100000,-0.100000)" stroke="none" fill="#F6FAFB"/>

<path d="M303 400 c-13 -5 -23 -15 -23 -22 1 -20 70 -90 85 -85 27 11 23 107 -4 107 -5 0 -15 2 -23 4 -7 3 -23 1 -35 -4z" transform="translate(0.000000,104.000000) scale(0.100000,-0.100000)" stroke="none" fill="#F6FAFB"/>

<path d="M515 841 c36 -5 40 -8 38 -34 -1 -16 -7 -35 -14 -43 -16 -20 -73 -18 -92 4 -23 25 -21 38 5 56 26 18 20 20 -16 6 -35 -13 -33 -42 5 -74 34 -29 89 -35 109 -11 6 8 16 31 20 52 11 45 2 53 -55 51 l-40 -1 40 -6z" transform="translate(0.000000,104.000000) scale(0.100000,-0.100000)" stroke="none" fill="#F4E0E7"/>

<path d="M256 668 c-15 -24 -42 -135 -35 -142 16 -15 48 -13 76 4 55 33 57 99 4 138 l-30 22 -15 -22z m24 -8 c0 -5 6 -10 14 -10 32 0 35 -71 4 -100 -34 -31 -58 -26 -58 13 0 42 18 107 30 107 6 0 10 -4 10 -10z" transform="translate(0.000000,104.000000) scale(0.100000,-0.100000)" stroke="none" fill="#F4E0E7"/>

<path d="M738 460 c-9 -6 -22 -26 -28 -45 -12 -37 -6 -58 29 -89 21 -19 21 -19 53 15 42 43 66 107 47 120 -19 12 -80 11 -101 -1z m82 -15 c16 -19 -1 -63 -37 -97 l-25 -23 -19 24 c-24 29 -19 67 13 94 25 21 51 22 68 2z" transform="translate(0.000000,104.000000) scale(0.100000,-0.100000)" stroke="none" fill="#F4E0E7"/>

<path d="M470 318 c-29 -31 -27 -81 4 -97 14 -8 30 -10 37 -5 10 6 7 10 -10 14 -37 9 -47 32 -26 63 20 31 73 37 99 11 21 -21 20 -63 -1 -81 -17 -14 -17 -14 0 -9 10 3 23 6 28 6 10 0 12 50 3 75 -8 20 -56 45 -88 45 -14 0 -34 -10 -46 -22z" transform="translate(0.000000,104.000000) scale(0.100000,-0.100000)" stroke="none" fill="#F4E0E7"/>

<path d="M452 824 c-27 -19 -28 -36 -3 -58 30 -27 83 -18 99 17 8 16 11 35 8 43 -7 19 -75 18 -104 -2z" transform="translate(0.000000,104.000000) scale(0.100000,-0.100000)" stroke="none" fill="#F6FAFB"/>

<path d="M752 443 c-32 -27 -37 -65 -13 -94 l19 -24 25 23 c36 34 53 78 37 97 -17 20 -43 19 -68 -2z" transform="translate(0.000000,104.000000) scale(0.100000,-0.100000)" stroke="none" fill="#F6FAFB"/>

<path d="M613 614 c-19 -13 -23 -26 -23 -65 0 -41 4 -51 25 -65 31 -20 94 -13 112 13 17 22 17 84 0 107 -18 24 -86 30 -114 10z m106 -35 c20 -35 0 -84 -37 -94 -57 -14 -107 69 -66 109 26 26 85 18 103 -15z" transform="translate(0.000000,104.000000) scale(0.100000,-0.100000)" stroke="none" fill="#F4E0E7"/>

<path d="M673 763 c-13 -52 11 -93 56 -93 28 1 61 21 61 38 0 14 -80 82 -97 82 -7 0 -16 -12 -20 -27z" transform="translate(0.000000,104.000000) scale(0.100000,-0.100000)" stroke="none" fill="#F6FAFB"/>

<path d="M475 293 c-22 -33 -11 -54 35 -66 52 -13 80 -2 80 32 0 39 -24 61 -65 61 -24 0 -37 -7 -50 -27z" transform="translate(0.000000,104.000000) scale(0.100000,-0.100000)" stroke="none" fill="#F6FAFB"/>

<path d="M406 689 c-35 -42 -35 -90 0 -118 72 -57 166 20 123 101 -10 18 -64 48 -88 48 -5 0 -21 -14 -35 -31z m114 -42 c13 -24 13 -28 -9 -51 -31 -33 -70 -34 -100 -2 -30 32 -20 73 23 91 36 16 61 5 86 -38z" transform="translate(0.000000,104.000000) scale(0.100000,-0.100000)" stroke="none" fill="#F4E0E7"/>

<path d="M454 518 c-24 -11 -44 -48 -44 -79 0 -34 18 -57 54 -69 41 -13 90 6 101 41 13 39 -4 88 -35 104 -33 17 -46 18 -76 3z m80 -27 c28 -30 18 -83 -18 -100 -61 -29 -109 35 -70 93 20 32 63 35 88 7z" transform="translate(0.000000,104.000000) scale(0.100000,-0.100000)" stroke="none" fill="#F4E0E7"/>

<path d="M446 484 c-23 -35 -17 -75 15 -93 39 -21 83 2 87 48 7 65 -68 99 -102 45z" transform="translate(0.000000,104.000000) scale(0.100000,-0.100000)" stroke="none" fill="#F6FAFB"/>

<path d="M434 685 c-43 -18 -53 -59 -23 -91 30 -32 69 -31 100 2 22 23 22 27 9 51 -25 43 -50 54 -86 38z" transform="translate(0.000000,104.000000) scale(0.100000,-0.100000)" stroke="none" fill="#F6FAFB"/>

<path d="M616 594 c-41 -40 9 -123 66 -109 37 10 57 59 37 94 -18 33 -77 41 -103 15z" transform="translate(0.000000,104.000000) scale(0.100000,-0.100000)" stroke="none" fill="#F6FAFB"/>

<path d="M664 849 c-3 -6 3 -13 15 -16 26 -7 27 -18 1 -36 -25 -17 -37 -76 -21 -105 6 -11 27 -26 47 -32 45 -15 81 1 100 45 11 27 13 28 19 10 4 -11 13 -34 21 -52 8 -17 14 -40 14 -52 0 -12 5 -21 10 -21 15 0 12 41 -5 70 -21 38 -19 45 24 65 37 16 58 41 46 53 -2 3 -28 -5 -56 -17 -41 -17 -55 -19 -66 -9 -12 10 -13 14 -1 23 13 10 38 50 38 60 0 13 -36 3 -56 -16 l-23 -21 -50 30 c-31 19 -53 27 -57 21z m160 -34 c-6 -16 -24 -21 -24 -7 0 11 11 22 21 22 5 0 6 -7 3 -15z m-78 -26 c3 -6 15 -9 25 -6 14 4 19 0 19 -14 0 -25 -6 -24 -42 6 -16 14 -25 25 -19 25 5 0 13 -5 17 -11z m2 -35 c46 -39 50 -50 25 -70 -38 -28 -95 -8 -104 36 -5 25 11 70 24 70 8 0 32 -16 55 -36z" transform="translate(0.000000,104.000000) scale(0.100000,-0.100000)" stroke="none" fill="#F4E0E7"/>

<path d="M203 473 c-13 -5 -12 -8 21 -70 22 -43 21 -48 -21 -70 -43 -23 -57 -53 -24 -53 12 0 21 5 21 11 0 5 -4 8 -9 4 -5 -3 -13 -1 -16 5 -4 7 7 8 33 4 25 -4 42 -2 46 5 4 6 11 11 17 11 18 0 8 -28 -26 -73 -19 -25 -35 -51 -35 -56 0 -24 31 -8 66 34 28 35 40 43 50 34 25 -20 84 -47 84 -37 0 5 -13 14 -30 19 -34 12 -38 24 -12 38 10 5 24 20 31 34 10 20 10 30 -3 60 -23 56 -90 71 -124 28 -12 -15 -14 -14 -28 3 -8 11 -14 27 -14 35 0 23 -13 39 -27 34z m158 -73 c27 0 31 -96 4 -107 -15 -5 -84 65 -85 85 0 15 39 33 58 26 8 -2 18 -4 23 -4z m-81 -49 c0 -5 11 -19 25 -32 27 -27 31 -39 13 -39 -7 0 -30 -19 -52 -42 -35 -39 -32 -29 10 29 19 27 12 73 -11 73 -8 0 -15 5 -15 10 0 6 7 10 15 10 8 0 15 -4 15 -9z m-43 -38 c-3 -3 -11 -2 -17 2 -9 6 -9 10 1 16 14 8 27 -7 16 -18z" transform="translate(0.000000,104.000000) scale(0.100000,-0.100000)" stroke="none" fill="#F4E0E7"/>

<path d="M863 564 c5 -27 -4 -81 -25 -149 -16 -49 -118 -158 -170 -179 -41 -18 -185 -28 -194 -15 -3 5 -18 9 -35 9 -22 0 -29 -5 -29 -20 0 -19 7 -20 113 -20 149 0 172 8 249 83 82 79 93 97 112 184 23 102 21 133 -5 133 -18 0 -20 -5 -16 -26z" transform="translate(0.000000,104.000000) scale(0.100000,-0.100000)" stroke="none" fill="#C4DADB"/>

<path d="M668 884 c-14 -15 -24 -15 -80 -4 -58 11 -70 10 -140 -12 -144 -44 -230 -145 -249 -290 -6 -46 -18 -91 -27 -100 -17 -21 -3 -24 29 -8 13 8 19 21 19 48 0 90 55 212 116 261 53 43 145 73 199 66 61 -7 118 -5 131 6 10 8 27 49 20 49 -1 0 -9 -7 -18 -16z" transform="translate(0.000000,104.000000) scale(0.100000,-0.100000)" stroke="none" fill="#C4DADB"/>

<path d="M737 959 c-29 -22 -57 -68 -57 -93 0 -8 21 -26 46 -41 l46 -27 22 21 c20 19 56 29 56 16 0 -10 -25 -50 -38 -60 -12 -9 -11 -13 1 -23 11 -10 25 -8 66 9 28 12 54 20 56 17 12 -12 -9 -37 -46 -53 -43 -20 -45 -27 -24 -65 8 -14 14 -35 15 -48 0 -21 3 -22 38 -16 48 8 90 32 115 67 21 27 21 28 3 81 -14 41 -16 58 -7 74 17 31 14 47 -16 82 -35 42 -68 54 -106 39 -27 -11 -32 -10 -47 9 -26 32 -88 38 -123 11z" transform="translate(0.000000,104.000000) scale(0.100000,-0.100000)" stroke="none" fill="#F6FAFB"/>

<path d="M99 438 c-58 -27 -75 -103 -33 -145 13 -14 13 -17 0 -32 -59 -65 10 -174 98 -157 22 5 35 1 51 -14 57 -54 125 -29 171 62 27 54 23 71 -19 84 -12 3 -29 13 -38 20 -14 13 -20 9 -53 -31 -35 -42 -66 -58 -66 -34 0 5 16 31 35 56 34 45 44 73 26 73 -6 0 -13 -4 -16 -10 -3 -5 -17 -10 -31 -10 -13 0 -24 -4 -24 -10 0 -5 -9 -10 -21 -10 -33 0 -19 30 24 53 41 21 43 27 23 65 -8 15 -17 35 -20 45 -7 22 -55 20 -107 -5z" transform="translate(0.000000,104.000000) scale(0.100000,-0.100000)" stroke="none" fill="#F6FAFB"/>

<path d="M582 828 c-6 -6 -12 -21 -12 -33 0 -37 -28 -65 -65 -65 -39 0 -95 42 -95 71 0 25 -26 24 -40 -1 -6 -11 -16 -20 -23 -20 -19 -1 -56 -36 -66 -63 -8 -21 -5 -29 25 -55 36 -32 43 -66 24 -103 -14 -26 -62 -49 -88 -42 -18 4 -22 1 -22 -18 0 -34 19 -97 31 -105 6 -3 16 1 22 9 16 20 54 28 84 16 35 -13 59 -74 42 -106 -7 -14 -21 -29 -31 -34 -26 -14 -22 -26 13 -38 56 -19 69 -15 69 22 0 65 57 95 119 62 32 -16 41 -33 41 -76 0 -34 10 -35 65 -10 51 23 83 57 70 75 -47 63 -47 64 -35 101 15 44 41 59 96 52 38 -4 44 -2 50 17 11 34 5 146 -10 180 -8 17 -17 40 -21 51 -6 18 -8 17 -19 -10 -19 -44 -55 -60 -100 -45 -20 6 -41 21 -47 32 -16 30 -4 86 23 108 13 10 20 21 16 25 -13 13 -103 16 -116 3z m-97 -122 c59 -25 74 -91 29 -132 -31 -30 -73 -31 -108 -3 -35 28 -35 76 0 118 29 35 33 36 79 17z m242 -102 c17 -23 17 -85 0 -107 -18 -26 -81 -33 -112 -13 -21 14 -25 24 -25 65 0 39 4 52 23 65 28 20 96 14 114 -10z m-197 -89 c20 -11 31 -25 36 -49 8 -47 -2 -74 -37 -92 -54 -27 -119 8 -119 65 0 31 20 68 44 79 30 15 43 14 76 -3z" transform="translate(0.000000,104.000000) scale(0.100000,-0.100000)" stroke="none" fill="#F2C7D3"/>

</svg>