<?xml version="1.0" standalone="no"?>
<!DOCTYPE svg PUBLIC "-//W3C//DTD SVG 20010904//EN"
 "http://www.w3.org/TR/2001/REC-SVG-20010904/DTD/svg10.dtd">
<svg version="1.0" xmlns="http://www.w3.org/2000/svg" 
width="72.000000pt" height="72.000000pt" viewBox="0 0 72.000000 72.000000"
preserveAspectRatio = "xMidYMid meet" >
<metadata>
Created by ZoeQU, 2022
</metadata>
<rect width="72.000000" height="72.000000" fill="#9BE6DC"/>
<path d="M161 94 c6 -7 29 -23 52 -36 36 -19 57 -23 142 -23 60 0 108 5 120 12 16 10 0 11 -80 6 -96 -5 -103 -5 -155 22 -61 32 -97 40 -79 19z" transform="translate(0.000000,72.000000) scale(0.100000,-0.100000)" stroke="none" fill="#C6DBDE"/>

<path d="M260 673 l-35 -17 34 -4 c18 -2 38 1 44 7 6 6 27 11 47 11 41 -1 151 -35 161 -51 3 -6 19 -9 35 -7 l29 3 -28 19 c-77 52 -219 71 -287 39z" transform="translate(0.000000,72.000000) scale(0.100000,-0.100000)" stroke="none" fill="#C6DBDE"/>

<path d="M90 557 c-27 -22 -58 -102 -66 -172 -8 -64 0 -112 24 -142 17 -23 17 -22 19 19 2 23 -2 47 -8 55 -16 19 -5 116 19 161 17 34 36 92 30 92 -2 0 -10 -6 -18 -13z" transform="translate(0.000000,72.000000) scale(0.100000,-0.100000)" stroke="none" fill="#C6DBDE"/>

<path d="M656 418 c15 -93 10 -134 -20 -195 -46 -91 -47 -93 -38 -93 14 0 49 43 72 90 38 76 30 250 -12 250 -7 0 -8 -16 -2 -52z" transform="translate(0.000000,72.000000) scale(0.100000,-0.100000)" stroke="none" fill="#C6DBDE"/>

<path d="M346 301 c-19 -31 23 -159 66 -197 45 -41 66 -47 101 -30 37 17 100 76 92 85 -4 3 -28 6 -54 7 -33 0 -58 8 -82 25 -45 32 -87 76 -94 100 -7 20 -20 25 -29 10z" transform="translate(0.000000,72.000000) scale(0.100000,-0.100000)" stroke="none" fill="#F6FAFB"/>

<path d="M550 571 c0 -61 -32 -122 -90 -173 l-51 -45 39 -7 c29 -4 53 0 88 16 68 29 134 103 118 130 -22 37 -88 118 -95 118 -5 0 -9 -18 -9 -39z" transform="translate(0.000000,72.000000) scale(0.100000,-0.100000)" stroke="none" fill="#F6FAFB"/>

<path d="M193 631 c-38 -24 -83 -62 -83 -71 0 -4 22 -10 50 -13 64 -8 131 -47 164 -97 14 -22 31 -40 36 -40 6 0 10 23 10 51 0 56 -21 100 -74 157 -34 37 -58 40 -103 13z" transform="translate(0.000000,72.000000) scale(0.100000,-0.100000)" stroke="none" fill="#F6FAFB"/>

<path d="M167 346 c-36 -22 -45 -30 -90 -83 -18 -20 -18 -22 2 -60 11 -21 34 -54 53 -73 l33 -35 3 30 c1 17 10 56 20 89 13 46 26 66 60 93 23 20 42 42 42 49 0 23 -79 17 -123 -10z" transform="translate(0.000000,72.000000) scale(0.100000,-0.100000)" stroke="none" fill="#F6FAFB"/>

<path d="M81 486 c-28 -57 -38 -139 -21 -171 12 -23 13 -23 33 -4 11 10 38 31 60 46 36 25 49 28 114 27 89 -2 92 6 25 74 -50 51 -96 72 -158 72 -26 0 -34 -6 -53 -44z" transform="translate(0.000000,72.000000) scale(0.100000,-0.100000)" stroke="none" fill="#F4CBD6"/>

<path d="M611 386 c-44 -45 -112 -67 -176 -55 -27 5 -50 7 -53 4 -9 -9 20 -63 46 -88 57 -53 145 -82 178 -59 5 4 21 25 35 47 19 32 24 53 23 103 -1 81 -11 91 -53 48z" transform="translate(0.000000,72.000000) scale(0.100000,-0.100000)" stroke="none" fill="#F4CBD6"/>

<path d="M272 303 c-53 -44 -92 -123 -85 -171 8 -49 77 -82 173 -82 38 0 70 4 70 9 0 5 -13 20 -29 34 -47 39 -75 116 -68 187 6 72 -1 74 -61 23z" transform="translate(0.000000,72.000000) scale(0.100000,-0.100000)" stroke="none" fill="#F4CBD6"/>

<path d="M305 660 c-4 -6 0 -21 9 -33 71 -98 71 -97 71 -179 -1 -43 2 -78 5 -78 3 0 17 7 30 17 102 67 147 178 94 230 -35 35 -194 67 -209 43z" transform="translate(0.000000,72.000000) scale(0.100000,-0.100000)" stroke="none" fill="#F4CBD6"/>

<path d="M296 618 c53 -57 74 -101 74 -157 0 -28 -4 -51 -10 -51 -5 0 -22 18 -36 40 -14 22 -46 51 -71 66 -48 28 -153 46 -153 25 0 -6 15 -11 33 -11 63 0 109 -21 159 -72 66 -68 64 -79 -13 -74 -33 3 -71 1 -85 -4 -45 -18 -113 -75 -124 -105 -10 -29 -9 -29 27 11 52 56 102 84 152 84 54 0 53 -17 -1 -63 -32 -26 -47 -49 -60 -89 -20 -62 -24 -123 -7 -112 6 3 9 18 6 33 -8 41 35 123 86 165 24 20 49 36 55 36 6 0 8 -21 5 -60 -5 -47 -1 -70 16 -110 25 -57 75 -109 106 -109 20 0 20 0 0 12 -65 38 -112 120 -111 191 1 42 20 60 31 27 7 -24 48 -67 94 -100 37 -26 141 -38 141 -16 0 7 -13 9 -35 7 -60 -7 -160 57 -186 119 -6 17 -10 32 -7 34 3 3 27 1 54 -4 36 -7 60 -6 94 6 48 16 120 77 120 103 0 9 -12 2 -33 -21 -44 -49 -117 -81 -169 -73 l-39 7 51 45 c31 27 60 64 71 90 21 47 26 122 8 122 -6 0 -8 -11 -4 -28 6 -31 -17 -106 -43 -135 -22 -25 -92 -77 -104 -77 -5 0 -6 22 -2 49 3 28 4 66 0 85 -8 41 -83 146 -105 146 -10 0 -6 -10 15 -32z" transform="translate(0.000000,72.000000) scale(0.100000,-0.100000)" stroke="none" fill="#F5E1E8"/>

</svg>