<?xml version="1.0" standalone="no"?>
<!DOCTYPE svg PUBLIC "-//W3C//DTD SVG 20010904//EN"
 "http://www.w3.org/TR/2001/REC-SVG-20010904/DTD/svg10.dtd">
<svg version="1.0" xmlns="http://www.w3.org/2000/svg" 
width="123.000000pt" height="103.000000pt" viewBox="0 0 123.000000 103.000000"
preserveAspectRatio = "xMidYMid meet" >
<metadata>
Created by ZoeQU, 2022
</metadata>
<rect width="123.000000" height="103.000000" fill="#88C5D5"/>
<path d="M775 873 c3 -15 26 -51 51 -79 28 -33 40 -54 32 -57 -7 -2 2 -12 20 -21 44 -23 65 -15 56 21 -17 75 -93 163 -141 163 -22 0 -24 -3 -18 -27z" transform="translate(0.000000,103.000000) scale(0.100000,-0.100000)" stroke="none" fill="#31688F"/>

<path d="M962 667 c-16 -19 23 -81 45 -73 11 5 33 -9 68 -44 56 -55 85 -59 85 -12 0 44 -120 142 -175 142 -7 0 -17 -6 -23 -13z" transform="translate(0.000000,103.000000) scale(0.100000,-0.100000)" stroke="none" fill="#31688F"/>

<path d="M92 860 c-25 -11 -41 -45 -34 -72 6 -24 62 -24 136 2 31 10 62 17 70 14 7 -3 24 4 37 15 20 16 22 22 11 33 -16 16 -186 22 -220 8z" transform="translate(0.000000,103.000000) scale(0.100000,-0.100000)" stroke="none" fill="#31688F"/>

<path d="M454 946 c-74 -37 -120 -78 -109 -95 3 -6 31 -11 61 -11 31 0 53 4 50 9 -4 5 11 12 32 16 45 7 100 38 109 61 7 19 -13 41 -47 49 -18 4 -46 -4 -96 -29z" transform="translate(0.000000,103.000000) scale(0.100000,-0.100000)" stroke="none" fill="#31688F"/>

<path d="M550 247 c0 -1 9 -20 20 -42 11 -22 20 -51 20 -66 0 -25 -5 -29 -52 -39 -29 -7 -73 -10 -98 -8 -42 3 -45 5 -48 35 -2 18 1 48 7 68 8 31 7 35 -9 35 -20 0 -30 -27 -30 -82 0 -21 -4 -38 -10 -38 -5 0 -10 -7 -10 -16 0 -11 -6 -14 -22 -9 -17 4 -15 1 7 -12 23 -14 51 -18 125 -18 81 1 103 4 150 26 30 14 62 34 70 44 14 17 14 17 -6 7 -24 -13 -44 0 -44 29 0 36 -30 89 -50 89 -11 0 -20 -1 -20 -3z" transform="translate(0.000000,103.000000) scale(0.100000,-0.100000)" stroke="none" fill="#31688F"/>

<path d="M313 827 c-2 -23 -12 -40 -38 -60 -19 -16 -35 -34 -35 -39 0 -6 21 -29 46 -51 56 -49 83 -105 84 -169 0 -88 -35 -135 -114 -153 l-51 -11 40 -37 c60 -56 113 -77 191 -77 152 0 262 68 309 192 13 35 31 58 69 86 41 32 140 101 154 108 2 1 -1 11 -7 22 -12 22 3 42 31 42 23 0 23 22 1 48 -26 30 -58 33 -58 5 0 -33 -12 -38 -54 -18 -39 17 -40 17 -74 -4 -23 -14 -51 -21 -83 -21 -44 0 -55 5 -104 46 -81 67 -126 88 -190 88 -39 0 -61 5 -74 18 -29 26 -41 22 -43 -15z m238 -127 c25 -34 44 -110 36 -142 -6 -21 -18 -30 -57 -43 -45 -15 -53 -15 -74 -2 -33 22 -61 117 -47 158 15 43 39 59 85 56 28 -1 44 -9 57 -27z m-281 -379 c0 -5 15 -18 33 -30 18 -12 25 -21 16 -21 -8 0 -28 14 -44 30 -16 17 -23 30 -17 30 7 0 12 -4 12 -9z" transform="translate(0.000000,103.000000) scale(0.100000,-0.100000)" stroke="none" fill="#8EA520"/>

</svg>