<?xml version="1.0" standalone="no"?>
<!DOCTYPE svg PUBLIC "-//W3C//DTD SVG 20010904//EN"
 "http://www.w3.org/TR/2001/REC-SVG-20010904/DTD/svg10.dtd">
<svg version="1.0" xmlns="http://www.w3.org/2000/svg" 
width="106.000000pt" height="176.000000pt" viewBox="0 0 106.000000 176.000000"
preserveAspectRatio = "xMidYMid meet" >
<metadata>
Created by ZoeQU, 2022
</metadata>
<rect width="106.000000" height="176.000000" fill="#87C5D5"/>
<path d="M620 645 c-19 -7 -29 -14 -22 -14 19 -1 16 -131 -4 -159 -8 -12 -22 -22 -30 -22 -8 0 -14 -4 -14 -9 0 -14 43 -1 58 17 7 10 12 46 12 94 0 74 1 78 28 92 33 19 19 19 -28 1z" transform="translate(0.000000,176.000000) scale(0.100000,-0.100000)" stroke="none" fill="#687F7C"/>

<path d="M721 1671 c-10 -6 -1 -8 26 -4 53 7 131 -12 164 -40 32 -27 67 -94 79 -150 l8 -42 1 35 c1 40 -38 123 -76 159 -43 40 -164 66 -202 42z" transform="translate(0.000000,176.000000) scale(0.100000,-0.100000)" stroke="none" fill="#687F7C"/>

<path d="M178 457 c-20 -17 -40 -43 -43 -57 -4 -14 -14 -33 -22 -42 -34 -39 22 -102 68 -77 25 13 48 -3 50 -35 1 -16 2 -17 6 -4 2 9 -1 26 -7 38 -10 18 -17 20 -55 14 -41 -6 -45 -4 -50 18 -8 33 26 108 67 147 44 41 33 40 -14 -2z" transform="translate(0.000000,176.000000) scale(0.100000,-0.100000)" stroke="none" fill="#92A840"/>

<path d="M566 1219 c-45 -53 -33 -125 26 -155 63 -33 135 8 145 83 4 32 0 45 -22 71 -23 28 -33 32 -75 32 -42 0 -52 -4 -74 -31z m138 -8 c24 -25 27 -35 22 -64 -12 -62 -67 -95 -121 -73 -60 25 -73 86 -28 136 37 41 88 42 127 1z" transform="translate(0.000000,176.000000) scale(0.100000,-0.100000)" stroke="none" fill="#92A840"/>

<path d="M470 961 c-48 -50 -52 -90 -16 -136 22 -27 30 -30 80 -30 66 0 85 15 93 71 9 69 -22 113 -90 130 -24 5 -33 0 -67 -35z m121 -7 c24 -22 33 -79 17 -111 -25 -52 -124 -57 -146 -7 -22 47 -15 90 20 119 35 29 76 29 109 -1z" transform="translate(0.000000,176.000000) scale(0.100000,-0.100000)" stroke="none" fill="#92A840"/>

<path d="M665 1650 c-11 -4 -47 -33 -80 -64 l-60 -56 43 -38 c76 -67 257 -148 342 -152 85 -4 90 -3 89 33 -2 30 -2 30 -6 5 -4 -27 -7 -28 -61 -28 -72 0 -126 17 -233 70 -102 52 -149 86 -149 110 0 19 88 98 130 117 29 13 15 16 -15 3z" transform="translate(0.000000,176.000000) scale(0.100000,-0.100000)" stroke="none" fill="#687F7C"/>

<path d="M590 1259 c-42 -16 -60 -49 -60 -107 0 -45 4 -57 27 -78 78 -72 193 -22 193 85 0 40 -5 52 -33 79 -35 34 -76 41 -127 21z m125 -41 c69 -82 -28 -203 -123 -154 -59 30 -71 102 -26 155 22 27 32 31 74 31 42 0 52 -4 75 -32z" transform="translate(0.000000,176.000000) scale(0.100000,-0.100000)" stroke="none" fill="#687F7C"/>

<path d="M521 408 c-6 -18 -13 -58 -17 -88 -6 -52 -44 -130 -63 -130 -4 0 -16 9 -26 20 -32 35 -57 25 -94 -34 -44 -73 -83 -88 -102 -40 -5 15 -12 24 -16 21 -3 -4 0 -20 7 -37 10 -23 19 -30 41 -30 23 0 35 10 69 60 44 64 65 73 95 40 10 -11 24 -20 31 -20 23 0 61 63 67 110 3 25 12 71 20 103 15 60 6 80 -12 25z" transform="translate(0.000000,176.000000) scale(0.100000,-0.100000)" stroke="none" fill="#92A840"/>

<path d="M469 988 c-32 -29 -59 -72 -59 -95 0 -29 44 -93 75 -109 24 -12 38 -13 77 -3 74 17 104 79 74 151 -30 70 -118 99 -167 56z m119 -14 c30 -20 45 -60 39 -108 -8 -56 -27 -71 -93 -71 -50 0 -58 3 -80 30 -36 46 -32 86 16 136 34 35 43 40 67 35 15 -4 38 -14 51 -22z" transform="translate(0.000000,176.000000) scale(0.100000,-0.100000)" stroke="none" fill="#687F7C"/>

<path d="M385 1293 c-9 -21 -34 -74 -55 -118 -61 -128 -90 -214 -90 -268 0 -38 37 -116 72 -154 l22 -23 -40 -43 c-36 -38 -36 -39 -4 -10 19 17 44 33 55 35 18 3 16 8 -19 43 -21 22 -47 60 -58 85 -18 40 -18 51 -7 105 6 33 18 73 26 89 8 15 17 39 19 52 3 14 13 33 24 44 11 11 20 28 20 38 0 9 8 31 18 47 21 37 46 105 39 111 -2 3 -12 -12 -22 -33z" transform="translate(0.000000,176.000000) scale(0.100000,-0.100000)" stroke="none" fill="#687F7C"/>

<path d="M482 955 c-24 -20 -32 -35 -32 -60 0 -54 19 -84 56 -91 73 -13 121 31 108 100 -13 70 -80 95 -132 51z" transform="translate(0.000000,176.000000) scale(0.100000,-0.100000)" stroke="none" fill="#EDC326"/>

<path d="M577 1210 c-45 -50 -32 -111 28 -136 54 -22 109 11 121 73 5 29 2 39 -22 64 -39 41 -90 40 -127 -1z" transform="translate(0.000000,176.000000) scale(0.100000,-0.100000)" stroke="none" fill="#EDC326"/>

<path d="M454 1419 c-14 -22 -24 -43 -22 -45 3 -2 15 14 27 36 12 22 24 40 27 40 2 0 32 -22 67 -48 118 -92 211 -131 332 -141 l80 -6 -3 -30 c-2 -16 -19 -76 -38 -133 -19 -56 -34 -111 -34 -122 0 -10 -4 -22 -10 -25 -5 -3 -10 -15 -10 -27 0 -25 -59 -148 -71 -148 -5 0 -9 -6 -9 -14 0 -8 -23 -31 -50 -51 -28 -21 -48 -40 -45 -43 3 -3 11 0 17 6 7 7 19 12 28 12 18 0 77 74 108 135 23 46 62 170 97 305 14 52 30 103 36 114 15 26 -3 36 -71 36 -30 0 -75 5 -99 11 -71 16 -188 75 -257 129 -35 27 -66 50 -69 50 -2 0 -16 -18 -31 -41z" transform="translate(0.000000,176.000000) scale(0.100000,-0.100000)" stroke="none" fill="#687F7C"/>

<path d="M335 1300 c-3 -5 -14 -10 -25 -10 -22 0 -34 -26 -14 -34 22 -9 16 -26 -13 -37 -16 -5 -38 -22 -51 -37 -19 -22 -24 -25 -32 -12 -6 10 -3 21 12 37 13 14 17 23 9 23 -44 0 -143 -125 -160 -201 -16 -70 8 -95 94 -99 79 -4 81 -3 94 43 21 69 41 117 81 202 22 44 44 92 49 108 10 25 9 27 -14 27 -13 0 -27 -4 -30 -10z" transform="translate(0.000000,176.000000) scale(0.100000,-0.100000)" stroke="none" fill="#92A840"/>

<path d="M286 670 c-39 -44 -40 -47 -27 -83 7 -18 37 -36 118 -72 59 -26 118 -54 129 -62 27 -18 69 -8 89 20 10 14 15 46 15 88 0 71 -6 79 -54 79 -27 0 -155 45 -170 60 -23 23 -63 10 -100 -30z" transform="translate(0.000000,176.000000) scale(0.100000,-0.100000)" stroke="none" fill="#DF4717"/>

<path d="M891 933 c-29 -94 -66 -166 -113 -225 l-22 -28 21 -27 c28 -38 73 -63 119 -66 35 -2 40 1 61 38 12 22 30 73 39 112 13 60 14 84 4 141 -11 67 -44 142 -67 149 -7 3 -23 -35 -42 -94z" transform="translate(0.000000,176.000000) scale(0.100000,-0.100000)" stroke="none" fill="#92A840"/>

<path d="M695 1653 c-52 -21 -145 -100 -145 -123 0 -24 47 -58 149 -110 107 -53 161 -70 232 -70 l56 0 6 36 c13 76 -34 209 -86 245 -55 39 -146 48 -212 22z m113 -16 c2 -9 -2 -19 -10 -21 -64 -19 -115 -43 -149 -72 -40 -33 -59 -36 -59 -10 0 25 82 86 148 111 46 17 66 15 70 -8z" transform="translate(0.000000,176.000000) scale(0.100000,-0.100000)" stroke="none" fill="#30628C"/>

<path d="M249 530 c-13 -17 -39 -48 -58 -68 -42 -47 -74 -118 -66 -150 5 -22 9 -24 50 -17 41 6 46 4 56 -19 9 -19 8 -34 -4 -71 -24 -70 -4 -109 46 -89 9 3 30 30 48 60 37 59 62 69 94 34 10 -11 22 -20 26 -20 21 0 53 69 65 139 7 42 15 83 19 92 4 10 -2 21 -17 31 -18 12 -159 77 -224 105 -6 2 -22 -10 -35 -27z" transform="translate(0.000000,176.000000) scale(0.100000,-0.100000)" stroke="none" fill="#EDC326"/>

<path d="M448 1393 c-19 -32 -41 -78 -48 -103 -8 -25 -22 -58 -32 -75 -10 -16 -18 -38 -18 -47 0 -10 -9 -27 -20 -38 -11 -11 -21 -30 -24 -44 -2 -13 -11 -37 -19 -52 -8 -16 -20 -56 -26 -89 -11 -54 -11 -65 7 -105 22 -50 81 -116 127 -141 17 -9 49 -20 72 -24 24 -4 45 -10 48 -15 10 -16 83 -21 126 -9 50 15 149 85 149 105 0 8 4 14 9 14 12 0 71 123 71 148 0 12 5 24 10 27 6 3 10 15 10 25 0 11 15 66 34 122 19 57 36 117 38 133 l3 30 -80 6 c-121 10 -214 49 -332 141 -35 26 -64 48 -66 48 -2 0 -20 -26 -39 -57z m269 -155 c28 -27 33 -39 33 -79 0 -107 -115 -157 -193 -85 -23 21 -27 33 -27 78 1 79 38 116 120 117 25 1 42 -7 67 -31z m-122 -252 c51 -34 66 -121 30 -173 -22 -32 -102 -48 -140 -29 -31 16 -75 80 -75 109 0 23 27 66 59 95 30 26 84 25 126 -2z" transform="translate(0.000000,176.000000) scale(0.100000,-0.100000)" stroke="none" fill="#30628C"/>

</svg>