<?xml version="1.0" standalone="no"?>
<!DOCTYPE svg PUBLIC "-//W3C//DTD SVG 20010904//EN"
 "http://www.w3.org/TR/2001/REC-SVG-20010904/DTD/svg10.dtd">
<svg version="1.0" xmlns="http://www.w3.org/2000/svg" 
width="123.000000pt" height="158.000000pt" viewBox="0 0 123.000000 158.000000"
preserveAspectRatio = "xMidYMid meet" >
<metadata>
Created by ZoeQU, 2022
</metadata>
<rect width="123.000000" height="158.000000" fill="#FAC8B5"/>
<path d="M468 221 c66 -15 76 -20 95 -52 29 -47 79 -99 89 -93 5 3 -3 15 -17 26 -14 11 -33 34 -42 51 -9 18 -25 39 -37 47 -25 18 -101 39 -136 39 -14 -1 8 -8 48 -18z" transform="translate(0.000000,158.000000) scale(0.100000,-0.100000)" stroke="none" fill="#99836B"/>

<path d="M1136 976 c-16 -35 -35 -67 -42 -70 -8 -3 -14 -13 -14 -21 0 -32 -51 -101 -150 -205 -55 -58 -100 -108 -100 -112 0 -5 -4 -8 -9 -8 -12 0 -127 -115 -161 -162 -27 -37 -30 -48 -28 -107 l2 -66 3 65 c5 76 12 87 141 217 205 206 269 283 333 400 33 62 59 118 57 124 -2 6 -16 -19 -32 -55z" transform="translate(0.000000,158.000000) scale(0.100000,-0.100000)" stroke="none" fill="#99836B"/>

<path d="M66 782 c-4 -7 -4 -17 -1 -22 3 -6 10 -31 15 -58 14 -82 49 -202 76 -262 36 -81 119 -155 212 -191 39 -15 24 -2 -25 22 -54 26 -133 105 -133 132 0 10 -4 16 -9 13 -9 -6 -31 36 -31 59 0 8 -4 15 -8 15 -13 0 -31 104 -19 111 6 4 2 15 -10 28 -11 12 -23 39 -26 59 -7 53 -31 109 -41 94z" transform="translate(0.000000,158.000000) scale(0.100000,-0.100000)" stroke="none" fill="#99836B"/>

<path d="M845 1266 c-126 -127 -238 -242 -248 -256 -61 -83 -108 -164 -119 -206 -14 -54 -18 -341 -5 -387 5 -20 5 -27 -3 -22 -7 4 -4 -7 5 -25 21 -40 30 -32 20 17 -15 76 -16 90 -16 240 0 147 1 154 28 210 34 69 65 116 107 161 17 18 30 35 28 38 -6 11 31 53 63 70 32 17 39 26 36 47 -1 4 6 10 15 14 9 3 88 77 175 164 88 88 163 159 168 159 4 0 13 -12 20 -26 6 -15 14 -24 17 -21 10 10 -28 57 -45 56 -9 -1 -119 -106 -246 -233z" transform="translate(0.000000,158.000000) scale(0.100000,-0.100000)" stroke="none" fill="#99836B"/>

<path d="M927 1329 c-87 -87 -162 -159 -166 -159 -5 0 -15 -8 -22 -17 -9 -11 -10 -14 -2 -9 8 4 11 2 8 -6 -3 -8 -21 -22 -40 -32 -32 -17 -65 -54 -66 -73 0 -5 -13 -21 -28 -38 -40 -43 -71 -90 -104 -158 -27 -56 -28 -63 -28 -210 0 -150 1 -164 16 -240 10 -53 0 -56 -25 -8 -22 44 -36 54 -27 20 3 -12 4 -19 3 -17 -2 1 -42 48 -90 103 -71 82 -246 250 -252 242 -8 -11 12 -80 28 -97 13 -14 17 -25 11 -29 -12 -7 6 -111 19 -111 4 0 8 -7 8 -15 0 -23 22 -65 31 -59 5 3 9 -3 9 -13 1 -46 152 -162 213 -163 35 -1 110 -23 133 -40 11 -8 27 -26 34 -40 15 -29 50 -70 61 -70 10 0 1 93 -11 126 -6 14 -10 51 -10 83 0 48 5 65 30 99 34 47 149 162 161 162 5 0 9 3 9 8 0 4 45 54 100 112 98 103 150 173 150 204 0 8 6 19 14 23 8 4 29 40 46 78 l32 70 -5 150 c-4 83 -11 166 -17 185 -18 53 -43 100 -55 99 -5 0 -81 -72 -168 -160z m209 -225 c-4 -13 -11 -24 -17 -24 -6 0 -6 6 1 19 5 11 11 32 11 48 2 25 2 25 6 4 3 -12 2 -34 -1 -47z" transform="translate(0.000000,158.000000) scale(0.100000,-0.100000)" stroke="none" fill="#545133"/>

</svg>