<?xml version="1.0" standalone="no"?>
<!DOCTYPE svg PUBLIC "-//W3C//DTD SVG 20010904//EN"
 "http://www.w3.org/TR/2001/REC-SVG-20010904/DTD/svg10.dtd">
<svg version="1.0" xmlns="http://www.w3.org/2000/svg" 
width="82.000000pt" height="58.000000pt" viewBox="0 0 82.000000 58.000000"
preserveAspectRatio = "xMidYMid meet" >
<metadata>
Created by ZoeQU, 2022
</metadata>
<rect width="82.000000" height="58.000000" fill="#F5F3EE"/>
<path d="M573 454 c-7 -3 -10 -11 -7 -18 4 -11 11 -11 30 -2 13 6 24 14 24 19 0 8 -28 8 -47 1z" transform="translate(0.000000,58.000000) scale(0.100000,-0.100000)" stroke="none" fill="#DD1613"/>

<path d="M290 371 c0 -11 36 -21 70 -20 18 0 12 4 -20 15 -54 16 -50 16 -50 5z" transform="translate(0.000000,58.000000) scale(0.100000,-0.100000)" stroke="none" fill="#A13934"/>

<path d="M557 116 c-8 -20 20 -43 35 -28 14 14 3 42 -16 42 -7 0 -16 -6 -19 -14z m33 -17 c0 -5 -4 -9 -10 -9 -5 0 -10 7 -10 16 0 8 5 12 10 9 6 -3 10 -10 10 -16z" transform="translate(0.000000,58.000000) scale(0.100000,-0.100000)" stroke="none" fill="#DA9995"/>

<path d="M234 205 c-7 -18 3 -35 21 -35 21 0 28 19 15 35 -16 19 -29 19 -36 0z m26 -11 c0 -8 -5 -12 -10 -9 -6 4 -8 11 -5 16 9 14 15 11 15 -7z" transform="translate(0.000000,58.000000) scale(0.100000,-0.100000)" stroke="none" fill="#DA9995"/>

<path d="M406 505 c-20 -15 -20 -15 0 -16 10 -1 23 -1 28 0 4 1 14 -4 22 -10 11 -9 14 -7 14 9 0 11 -7 23 -16 26 -22 8 -26 7 -48 -9z" transform="translate(0.000000,58.000000) scale(0.100000,-0.100000)" stroke="none" fill="#DD1613"/>

<path d="M425 478 c-25 -76 -28 -125 -5 -102 13 13 39 101 32 108 -9 10 -22 7 -27 -6z" transform="translate(0.000000,58.000000) scale(0.100000,-0.100000)" stroke="none" fill="#A13934"/>

<path d="M595 394 c-8 -20 -15 -49 -15 -64 0 -22 6 -29 38 -39 55 -18 72 -12 88 34 21 61 18 74 -21 91 -55 23 -73 18 -90 -22z m77 14 c35 -10 39 -14 33 -36 -3 -13 -9 -37 -12 -53 -6 -32 -11 -34 -67 -18 -34 9 -38 13 -33 37 8 38 25 82 33 82 4 0 24 -5 46 -12z" transform="translate(0.000000,58.000000) scale(0.100000,-0.100000)" stroke="none" fill="#DA9995"/>

<path d="M295 474 c-8 -20 -15 -49 -15 -64 0 -23 6 -29 39 -38 71 -22 83 -13 97 77 l6 38 -45 12 c-64 16 -65 15 -82 -25z m88 10 c31 -7 31 -8 15 -69 -13 -50 -14 -50 -69 -33 -41 12 -45 21 -30 60 5 13 12 31 15 41 4 12 12 17 23 13 10 -3 30 -8 46 -12z" transform="translate(0.000000,58.000000) scale(0.100000,-0.100000)" stroke="none" fill="#DA9995"/>

<path d="M441 426 c-19 -75 -16 -82 34 -96 24 -7 51 -10 58 -7 16 6 42 100 33 116 -7 11 -70 31 -97 31 -11 0 -20 -15 -28 -44z m100 13 c14 -7 15 -15 7 -51 -12 -57 -18 -61 -67 -48 -46 12 -51 27 -26 86 13 31 17 34 42 28 15 -4 35 -11 44 -15z" transform="translate(0.000000,58.000000) scale(0.100000,-0.100000)" stroke="none" fill="#DA9995"/>

<path d="M180 173 c0 -23 39 -53 69 -53 15 0 40 9 54 20 25 20 28 20 97 4 40 -9 79 -23 86 -33 8 -9 26 -31 40 -48 19 -24 33 -33 52 -32 l27 2 -27 4 c-31 5 -68 46 -68 74 0 12 -10 21 -27 25 -16 3 -57 14 -92 25 l-65 18 -22 -24 c-14 -15 -34 -25 -51 -25 -33 0 -46 8 -61 35 -6 11 -12 14 -12 8z" transform="translate(0.000000,58.000000) scale(0.100000,-0.100000)" stroke="none" fill="#DA9995"/>

<path d="M543 153 c-31 -21 -31 -76 -1 -97 31 -22 51 -20 76 7 34 36 28 73 -15 96 -27 14 -33 14 -60 -6z m57 -28 c16 -20 6 -45 -19 -45 -25 0 -34 14 -26 40 8 24 28 26 45 5z" transform="translate(0.000000,58.000000) scale(0.100000,-0.100000)" stroke="none" fill="#2A1414"/>

<path d="M213 238 c-46 -22 -15 -108 37 -108 24 0 70 42 70 65 0 23 -37 55 -62 54 -13 0 -33 -5 -45 -11z m61 -56 c-14 -22 -34 -22 -48 1 -9 15 -7 21 9 33 17 12 21 12 34 -1 12 -12 13 -19 5 -33z" transform="translate(0.000000,58.000000) scale(0.100000,-0.100000)" stroke="none" fill="#2A1414"/>

<path d="M92 293 c-31 -35 -23 -48 37 -63 38 -9 51 -17 54 -33 4 -19 4 -18 6 4 1 27 33 49 71 49 26 0 63 -38 58 -58 -4 -12 2 -17 19 -18 23 -2 24 -1 7 25 -26 41 -61 71 -83 71 -11 0 -36 -8 -55 -17 -47 -22 -86 -7 -79 30 7 35 -9 40 -35 10z" transform="translate(0.000000,58.000000) scale(0.100000,-0.100000)" stroke="none" fill="#A13934"/>

<path d="M298 528 c-9 -7 -23 -33 -31 -58 -14 -42 -18 -45 -55 -50 -46 -7 -92 -34 -92 -55 0 -21 6 -19 50 16 31 25 46 31 74 27 29 -3 36 -1 36 13 0 9 7 33 15 53 16 37 16 37 60 30 31 -4 50 -2 61 7 14 12 14 14 -3 20 -30 12 -98 10 -115 -3z" transform="translate(0.000000,58.000000) scale(0.100000,-0.100000)" stroke="none" fill="#A13934"/>

<path d="M391 171 c-20 -5 -15 -9 30 -20 30 -7 62 -15 71 -17 9 -3 19 -15 21 -27 4 -19 4 -19 6 4 1 32 43 63 71 54 52 -17 64 -63 28 -104 -21 -24 -21 -24 8 2 30 27 31 27 78 13 40 -12 48 -12 53 -1 7 21 -6 37 -27 30 -25 -8 -62 9 -99 45 -28 28 -36 31 -64 25 -41 -10 -63 -11 -112 -3 -22 3 -51 3 -64 -1z" transform="translate(0.000000,58.000000) scale(0.100000,-0.100000)" stroke="none" fill="#A13934"/>

<path d="M458 513 c6 -2 12 -13 12 -23 0 -22 73 -43 119 -34 36 7 41 -7 9 -21 -15 -6 -29 -27 -38 -55 -8 -25 -19 -51 -23 -58 -5 -7 -3 -12 5 -12 7 0 24 -9 38 -20 14 -11 39 -19 55 -19 29 0 28 1 -12 17 -49 18 -55 41 -28 106 17 41 35 45 91 21 39 -16 39 -16 19 -96 -6 -23 -2 -29 26 -43 31 -15 31 -15 16 2 -12 14 -15 30 -10 75 9 84 -2 92 -182 139 -22 5 -50 14 -63 19 -13 5 -28 9 -35 8 -9 0 -9 -2 1 -6z" transform="translate(0.000000,58.000000) scale(0.100000,-0.100000)" stroke="none" fill="#A13934"/>

<path d="M320 551 c-27 -7 -70 -64 -70 -91 0 -13 -14 -21 -47 -29 -71 -18 -89 -34 -104 -91 -7 -28 -19 -50 -26 -50 -7 0 -13 -11 -13 -24 0 -21 8 -27 53 -42 28 -9 55 -22 59 -28 5 -7 8 -5 8 6 0 11 -15 20 -51 28 -28 7 -53 18 -55 25 -3 7 6 24 19 38 22 24 25 25 39 10 9 -9 24 -13 32 -10 42 16 22 73 -21 62 -17 -4 -23 -1 -23 10 0 20 57 55 90 55 35 0 44 9 60 58 7 24 21 47 31 53 34 18 66 13 229 -33 19 -5 51 -13 70 -18 129 -31 145 -46 137 -126 -5 -47 -2 -61 15 -85 18 -24 20 -35 13 -76 -5 -26 -9 -64 -10 -83 -1 -19 -3 -38 -4 -42 0 -3 -22 0 -48 8 -47 14 -48 14 -73 -13 -22 -24 -23 -25 -1 -8 22 19 54 21 76 6 6 -4 21 -7 35 -7 22 1 25 5 25 41 1 22 7 63 14 92 12 49 11 53 -12 88 -21 31 -23 41 -15 73 11 45 -1 85 -34 106 -13 8 -84 30 -158 50 -74 19 -151 40 -170 46 -19 5 -37 10 -40 9 -3 -1 -16 -4 -30 -8z" transform="translate(0.000000,58.000000) scale(0.100000,-0.100000)" stroke="none" fill="#DA9995"/>

<path d="M177 389 l-27 -21 22 -18 c19 -15 21 -22 12 -37 -7 -10 -21 -18 -32 -17 -32 1 -36 -35 -6 -48 19 -9 32 -8 60 5 61 29 93 18 135 -49 18 -30 23 -32 84 -33 36 -1 75 -3 88 -3 12 0 36 3 54 7 28 6 36 3 64 -25 37 -36 74 -53 99 -45 32 10 43 135 15 163 -14 16 -43 18 -97 7 -29 -6 -43 -3 -65 13 -38 27 -98 43 -111 30 -15 -15 -30 -2 -39 32 -8 29 -8 29 -40 13 -44 -21 -96 -11 -111 22 -15 32 -65 34 -105 4z" transform="translate(0.000000,58.000000) scale(0.100000,-0.100000)" stroke="none" fill="#DD1613"/>

</svg>