<?xml version="1.0" standalone="no"?>
<!DOCTYPE svg PUBLIC "-//W3C//DTD SVG 20010904//EN"
 "http://www.w3.org/TR/2001/REC-SVG-20010904/DTD/svg10.dtd">
<svg version="1.0" xmlns="http://www.w3.org/2000/svg" 
width="68.000000pt" height="40.000000pt" viewBox="0 0 68.000000 40.000000"
preserveAspectRatio = "xMidYMid meet" >
<metadata>
Created by ZoeQU, 2022
</metadata>
<rect width="68.000000" height="40.000000" fill="#F5F3EE"/>
<path d="M280 230 c0 -5 6 -10 14 -10 8 0 18 5 21 10 3 6 -3 10 -14 10 -12 0 -21 -4 -21 -10z" transform="translate(0.000000,40.000000) scale(0.100000,-0.100000)" stroke="none" fill="#627253"/>

<path d="M490 84 c-17 -9 -20 -14 -9 -14 9 0 22 7 29 15 15 18 13 18 -20 -1z" transform="translate(0.000000,40.000000) scale(0.100000,-0.100000)" stroke="none" fill="#B4D09A"/>

<path d="M233 117 c12 -13 24 -22 26 -20 6 4 -30 43 -40 43 -5 0 2 -10 14 -23z" transform="translate(0.000000,40.000000) scale(0.100000,-0.100000)" stroke="none" fill="#627253"/>

<path d="M61 69 c-16 -6 -21 -13 -14 -20 13 -13 43 -1 43 17 0 8 -1 14 -2 13 -2 0 -14 -5 -27 -10z" transform="translate(0.000000,40.000000) scale(0.100000,-0.100000)" stroke="none" fill="#627253"/>

<path d="M454 159 c-9 -15 11 -33 30 -26 9 4 13 13 10 22 -7 17 -30 20 -40 4z m31 -9 c3 -5 1 -10 -4 -10 -6 0 -11 5 -11 10 0 6 2 10 4 10 3 0 8 -4 11 -10z" transform="translate(0.000000,40.000000) scale(0.100000,-0.100000)" stroke="none" fill="#B4D09A"/>

<path d="M182 88 c-8 -8 -9 -15 -1 -25 15 -17 25 -17 32 1 8 21 -16 39 -31 24z m23 -8 c3 -5 1 -10 -4 -10 -6 0 -11 5 -11 10 0 6 2 10 4 10 3 0 8 -4 11 -10z" transform="translate(0.000000,40.000000) scale(0.100000,-0.100000)" stroke="none" fill="#B4D09A"/>

<path d="M445 160 c-8 -27 1 -40 30 -40 27 0 41 26 24 46 -17 20 -47 17 -54 -6z m49 -5 c3 -9 -1 -18 -10 -22 -19 -7 -39 11 -30 26 10 16 33 13 40 -4z" transform="translate(0.000000,40.000000) scale(0.100000,-0.100000)" stroke="none" fill="#627253"/>

<path d="M175 96 c-11 -8 -16 -19 -12 -30 9 -24 36 -31 54 -14 12 12 13 20 4 37 -14 25 -21 26 -46 7z m38 -32 c-7 -18 -17 -18 -32 -1 -8 10 -7 17 1 25 15 15 39 -3 31 -24z" transform="translate(0.000000,40.000000) scale(0.100000,-0.100000)" stroke="none" fill="#627253"/>

<path d="M350 118 c-14 -5 -38 -11 -55 -13 -25 -2 -30 -7 -32 -31 0 -16 1 -20 3 -9 4 15 19 24 57 34 29 8 62 14 74 15 11 0 19 4 16 9 -6 10 -33 8 -63 -5z" transform="translate(0.000000,40.000000) scale(0.100000,-0.100000)" stroke="none" fill="#B4D09A"/>

<path d="M141 114 c-12 -15 -21 -32 -21 -39 0 -19 38 -63 60 -70 30 -9 79 22 80 50 0 5 -7 -1 -16 -13 -16 -24 -53 -29 -85 -12 -13 8 -19 21 -19 45 0 27 6 37 28 49 18 10 21 15 10 16 -9 0 -26 -12 -37 -26z" transform="translate(0.000000,40.000000) scale(0.100000,-0.100000)" stroke="none" fill="#627253"/>

<path d="M426 194 c-14 -15 -26 -34 -26 -44 0 -26 46 -70 73 -70 24 0 67 33 67 52 0 6 -9 -1 -21 -16 -31 -40 -74 -34 -99 13 -10 20 -9 27 7 50 28 37 65 39 92 5 14 -17 21 -21 21 -11 0 18 -42 47 -68 47 -11 0 -31 -12 -46 -26z" transform="translate(0.000000,40.000000) scale(0.100000,-0.100000)" stroke="none" fill="#627253"/>

<path d="M473 373 c9 -2 17 -8 17 -13 0 -4 15 -13 33 -20 44 -18 66 -39 83 -79 8 -20 20 -39 27 -43 18 -11 -2 -26 -48 -36 -32 -6 -40 -13 -41 -30 -1 -17 -1 -18 3 -3 3 12 16 21 41 25 47 8 67 20 59 37 -36 75 -66 116 -97 131 -19 9 -40 22 -47 27 -7 6 -20 10 -30 10 -17 -1 -17 -2 0 -6z" transform="translate(0.000000,40.000000) scale(0.100000,-0.100000)" stroke="none" fill="#B4D09A"/>

<path d="M438 193 c-26 -31 -29 -41 -16 -67 12 -27 47 -43 72 -33 8 3 23 18 32 32 16 25 16 27 -3 53 -24 33 -63 40 -85 15z m61 -27 c17 -20 3 -46 -24 -46 -29 0 -38 13 -30 40 7 23 37 26 54 6z" transform="translate(0.000000,40.000000) scale(0.100000,-0.100000)" stroke="none" fill="#121911"/>

<path d="M168 124 c-22 -12 -28 -22 -28 -49 0 -38 20 -55 64 -55 25 0 56 32 56 58 0 14 -44 62 -57 62 -4 -1 -20 -8 -35 -16z m53 -35 c9 -17 8 -25 -4 -37 -18 -17 -45 -10 -54 14 -4 11 1 22 12 30 25 19 32 18 46 -7z" transform="translate(0.000000,40.000000) scale(0.100000,-0.100000)" stroke="none" fill="#121911"/>

<path d="M110 354 c-6 -14 -10 -42 -10 -62 0 -27 -8 -44 -32 -69 -30 -31 -33 -38 -34 -109 -1 -83 5 -92 51 -74 25 9 32 7 55 -15 37 -36 45 -31 8 6 -27 27 -34 29 -60 20 -39 -14 -46 -9 -40 28 2 17 8 29 11 26 4 -2 17 3 29 11 18 13 20 19 11 36 -7 13 -17 18 -30 15 -31 -8 -23 21 16 58 26 24 35 40 33 61 -3 52 2 84 13 84 8 0 10 -13 6 -36 -12 -73 16 -87 112 -58 37 11 55 22 59 36 3 13 7 16 12 8 10 -17 105 -3 128 18 10 10 13 14 7 11 -5 -3 -32 -12 -59 -18 -47 -12 -51 -11 -68 11 -15 20 -19 21 -28 8 -5 -8 -10 -22 -10 -30 0 -16 -114 -55 -131 -44 -5 3 -9 22 -8 43 4 61 -23 84 -41 35z" transform="translate(0.000000,40.000000) scale(0.100000,-0.100000)" stroke="none" fill="#B4D09A"/>

<path d="M118 343 c-1 -16 -1 -41 0 -57 2 -21 -7 -37 -33 -61 -39 -37 -47 -66 -16 -58 13 3 23 -2 30 -15 9 -17 7 -23 -11 -36 -12 -8 -25 -13 -30 -10 -4 3 -8 -5 -8 -17 0 -16 5 -20 19 -16 12 3 21 -1 23 -9 5 -23 31 1 31 29 0 15 4 25 10 24 6 -1 11 5 12 13 0 20 73 14 98 -8 10 -9 26 -17 35 -19 26 -4 92 19 85 30 -3 5 3 6 16 2 16 -5 21 -2 21 13 0 26 48 72 75 72 12 0 33 -10 47 -23 23 -21 29 -22 68 -13 24 6 45 18 48 26 2 11 1 12 -5 3 -6 -8 -13 2 -22 31 -14 49 -40 76 -88 96 -18 7 -33 16 -33 21 0 5 -7 9 -16 9 -8 0 -13 -4 -9 -10 9 -15 -37 -38 -92 -46 -42 -5 -53 -4 -54 7 0 8 -4 4 -9 -8 -6 -15 -26 -27 -61 -37 -96 -29 -124 -15 -112 58 4 23 2 36 -6 36 -6 0 -12 -12 -13 -27z m197 -113 c-3 -5 -13 -10 -21 -10 -8 0 -14 5 -14 10 0 6 9 10 21 10 11 0 17 -4 14 -10z m178 3 c-7 -2 -21 -2 -30 0 -10 3 -4 5 12 5 17 0 24 -2 18 -5z m-270 -80 c-7 -2 -21 -2 -30 0 -10 3 -4 5 12 5 17 0 24 -2 18 -5z m117 -23 c0 -5 -4 -10 -10 -10 -5 0 -10 5 -10 10 0 6 5 10 10 10 6 0 10 -4 10 -10z" transform="translate(0.000000,40.000000) scale(0.100000,-0.100000)" stroke="none" fill="#84B64D"/>

</svg>