<?xml version="1.0" standalone="no"?>
<!DOCTYPE svg PUBLIC "-//W3C//DTD SVG 20010904//EN"
 "http://www.w3.org/TR/2001/REC-SVG-20010904/DTD/svg10.dtd">
<svg version="1.0" xmlns="http://www.w3.org/2000/svg" 
width="78.000000pt" height="56.000000pt" viewBox="0 0 78.000000 56.000000"
preserveAspectRatio = "xMidYMid meet" >
<metadata>
Created by ZoeQU, 2022
</metadata>
<rect width="78.000000" height="56.000000" fill="#F5F5EE"/>
<path d="M154 69 c-4 -7 -1 -10 7 -7 8 3 27 -6 42 -18 16 -13 34 -24 40 -24 7 0 -2 9 -19 19 -18 11 -35 24 -38 30 -9 14 -23 14 -32 0z" transform="translate(0.000000,56.000000) scale(0.100000,-0.100000)" stroke="none" fill="#96C9E8"/>

<path d="M564 195 c-8 -21 2 -45 19 -45 8 0 20 7 27 15 10 12 10 18 0 30 -7 8 -19 15 -27 15 -7 0 -16 -7 -19 -15z m39 -1 c9 -10 -4 -34 -19 -34 -8 0 -14 9 -14 20 0 19 19 27 33 14z" transform="translate(0.000000,56.000000) scale(0.100000,-0.100000)" stroke="none" fill="#4A5E7E"/>

<path d="M226 103 c-8 -21 17 -48 38 -40 9 4 16 18 16 32 0 20 -5 25 -24 25 -13 0 -27 -8 -30 -17z m44 -13 c0 -21 -24 -28 -35 -10 -8 14 3 30 21 30 8 0 14 -9 14 -20z" transform="translate(0.000000,56.000000) scale(0.100000,-0.100000)" stroke="none" fill="#4A5E7E"/>

<path d="M540 230 c-11 -11 -19 -32 -19 -47 2 -27 2 -28 6 -3 15 78 101 78 116 0 4 -25 4 -25 6 2 1 33 -33 68 -66 68 -13 0 -32 -9 -43 -20z" transform="translate(0.000000,56.000000) scale(0.100000,-0.100000)" stroke="none" fill="#4A5E7E"/>

<path d="M222 153 c-7 -3 -19 -18 -27 -34 -14 -26 -14 -31 1 -54 17 -26 53 -41 76 -32 7 3 1 6 -14 6 -53 2 -77 60 -40 94 23 21 41 21 71 1 17 -12 22 -24 19 -45 -3 -15 -1 -26 4 -23 16 10 8 51 -15 72 -22 21 -48 26 -75 15z" transform="translate(0.000000,56.000000) scale(0.100000,-0.100000)" stroke="none" fill="#4A5E7E"/>

<path d="M498 164 c-4 -3 -44 -16 -90 -28 -65 -18 -83 -27 -85 -42 -1 -14 -1 -15 3 -3 3 10 20 20 39 23 19 4 59 15 89 25 l55 18 22 -23 c30 -32 79 -32 105 -1 19 22 19 22 -2 5 -30 -26 -73 -22 -104 7 -15 14 -29 23 -32 19z" transform="translate(0.000000,56.000000) scale(0.100000,-0.100000)" stroke="none" fill="#96C9E8"/>

<path d="M144 380 c-46 -18 -68 -85 -44 -131 12 -22 21 -23 73 -8 33 9 37 13 37 43 0 36 -25 106 -38 105 -4 0 -17 -4 -28 -9z m45 -54 c15 -62 15 -61 -26 -74 -33 -10 -40 -9 -50 5 -22 29 -16 70 13 92 39 31 50 26 63 -23z" transform="translate(0.000000,56.000000) scale(0.100000,-0.100000)" stroke="none" fill="#96C9E8"/>

<path d="M517 477 c-15 -11 -15 -17 -2 -66 8 -30 18 -58 22 -62 5 -5 28 -2 53 5 47 14 57 29 46 72 -11 41 -88 75 -119 51z m87 -29 c30 -49 29 -65 -5 -77 -18 -6 -38 -11 -45 -11 -14 0 -34 51 -34 86 0 21 5 24 35 24 25 0 38 -6 49 -22z" transform="translate(0.000000,56.000000) scale(0.100000,-0.100000)" stroke="none" fill="#96C9E8"/>

<path d="M217 132 c-36 -39 -10 -92 43 -92 50 0 69 66 28 94 -29 21 -51 20 -71 -2z m63 -37 c0 -31 -26 -43 -46 -23 -20 20 -7 48 22 48 19 0 24 -5 24 -25z" transform="translate(0.000000,56.000000) scale(0.100000,-0.100000)" stroke="none" fill="#10151F"/>

<path d="M405 453 c-21 -7 -41 -16 -43 -18 -6 -6 21 -116 30 -121 11 -7 79 4 97 15 22 14 -13 144 -38 140 -3 -1 -24 -8 -46 -16z m65 -44 c6 -22 13 -46 16 -54 6 -15 -58 -40 -80 -32 -7 3 -17 22 -20 42 -4 20 -10 43 -12 50 -4 9 6 17 28 24 53 15 57 13 68 -30z" transform="translate(0.000000,56.000000) scale(0.100000,-0.100000)" stroke="none" fill="#96C9E8"/>

<path d="M260 415 c-32 -12 -35 -16 -33 -52 1 -21 6 -51 12 -67 12 -30 13 -30 98 -12 23 4 25 15 13 68 -19 82 -26 86 -90 63z m70 -35 c22 -83 23 -77 -22 -88 -50 -13 -54 -11 -61 30 -3 18 -8 40 -12 49 -5 12 1 20 22 27 42 16 66 10 73 -18z" transform="translate(0.000000,56.000000) scale(0.100000,-0.100000)" stroke="none" fill="#96C9E8"/>

<path d="M547 222 c-26 -28 -21 -69 9 -89 24 -15 29 -15 53 -2 16 9 27 25 29 43 7 55 -56 87 -91 48z m63 -27 c10 -12 10 -18 0 -30 -25 -30 -61 -7 -46 30 3 8 12 15 19 15 8 0 20 -7 27 -15z" transform="translate(0.000000,56.000000) scale(0.100000,-0.100000)" stroke="none" fill="#10151F"/>

<path d="M455 519 c-31 -10 -235 -65 -295 -79 -47 -12 -107 -77 -116 -126 -5 -27 -2 -58 11 -99 10 -33 18 -84 19 -114 1 -39 5 -56 16 -59 13 -5 13 -3 1 11 -11 14 -11 20 0 34 8 9 13 19 11 22 -2 3 7 8 20 11 13 3 24 14 26 23 5 27 -17 48 -43 41 -27 -7 -39 11 -50 72 -8 50 10 97 52 137 28 26 157 67 371 119 114 27 172 -15 212 -155 12 -45 29 -89 37 -98 22 -26 15 -36 -29 -45 -36 -7 -43 -13 -45 -34 -3 -24 -2 -24 7 -3 6 14 21 24 44 28 46 9 67 32 44 49 -17 12 -31 49 -59 150 -15 51 -62 106 -101 118 -33 9 -98 8 -133 -3z m-325 -369 c0 -5 -4 -10 -10 -10 -5 0 -10 5 -10 10 0 6 5 10 10 10 6 0 10 -4 10 -10z" transform="translate(0.000000,56.000000) scale(0.100000,-0.100000)" stroke="none" fill="#96C9E8"/>

<path d="M465 510 c-16 -5 -97 -27 -179 -49 -116 -31 -155 -46 -179 -68 -42 -40 -60 -87 -52 -137 11 -61 23 -79 50 -72 26 7 48 -14 43 -41 -2 -9 -14 -20 -28 -23 -14 -3 -25 -10 -25 -15 0 -6 -4 -16 -8 -22 -20 -31 35 -39 71 -10 8 6 18 5 30 -4 15 -13 16 -12 4 3 -11 14 -11 22 2 46 25 49 69 56 105 18 l23 -24 85 23 c47 13 88 26 91 29 3 3 10 1 17 -4 8 -7 10 -2 7 19 -3 20 2 35 17 50 28 28 63 27 91 -2 21 -21 27 -23 66 -14 46 11 53 20 31 46 -8 9 -25 53 -38 99 -15 55 -33 95 -54 118 -26 31 -37 36 -85 39 -30 2 -68 0 -85 -5z m142 -46 c24 -15 37 -50 31 -80 -3 -19 -88 -48 -101 -35 -4 4 -14 32 -22 62 -13 49 -13 55 2 66 18 14 56 8 90 -13z m-140 -6 c6 -7 16 -37 23 -67 10 -44 10 -55 -1 -62 -18 -11 -86 -22 -97 -15 -9 5 -36 115 -30 121 4 4 77 32 89 34 4 0 11 -5 16 -11z m-140 -40 c14 -18 37 -118 29 -125 -7 -7 -10 -8 -68 -19 -35 -6 -38 -4 -49 22 -6 16 -11 46 -12 67 -2 36 1 40 33 52 47 17 56 17 67 3z m-132 -64 c8 -20 15 -51 15 -70 0 -30 -4 -34 -37 -43 -52 -15 -61 -14 -73 8 -24 46 -2 113 44 131 33 13 35 12 51 -26z m532 -120 c-3 -3 -12 -4 -19 -1 -8 3 -5 6 6 6 11 1 17 -2 13 -5z m-512 -14 c3 -5 -3 -10 -14 -10 -12 0 -21 5 -21 10 0 6 6 10 14 10 8 0 18 -4 21 -10z m200 -70 c-27 -12 -35 -12 -35 0 0 6 12 10 28 9 24 0 25 -1 7 -9z m-295 -80 c-19 -13 -30 -13 -30 0 0 6 10 10 23 10 18 0 19 -2 7 -10z" transform="translate(0.000000,56.000000) scale(0.100000,-0.100000)" stroke="none" fill="#4997E0"/>

</svg>