<?xml version="1.0" standalone="no"?>
<!DOCTYPE svg PUBLIC "-//W3C//DTD SVG 20010904//EN"
 "http://www.w3.org/TR/2001/REC-SVG-20010904/DTD/svg10.dtd">
<svg version="1.0" xmlns="http://www.w3.org/2000/svg" 
width="70.000000pt" height="64.000000pt" viewBox="0 0 70.000000 64.000000"
preserveAspectRatio = "xMidYMid meet" >
<metadata>
Created by ZoeQU, 2022
</metadata>
<rect width="70.000000" height="64.000000" fill="#F5F5EE"/>
<path d="M483 184 c-8 -20 8 -36 26 -25 15 10 8 41 -9 41 -6 0 -13 -7 -17 -16z m22 -4 c3 -5 1 -10 -4 -10 -6 0 -11 5 -11 10 0 6 2 10 4 10 3 0 8 -4 11 -10z" transform="translate(0.000000,64.000000) scale(0.100000,-0.100000)" stroke="none" fill="#DD908E"/>

<path d="M187 113 c-14 -13 -7 -33 11 -33 24 0 32 8 25 26 -5 15 -25 19 -36 7z m23 -13 c0 -5 -5 -10 -11 -10 -5 0 -7 5 -4 10 3 6 8 10 11 10 2 0 4 -4 4 -10z" transform="translate(0.000000,64.000000) scale(0.100000,-0.100000)" stroke="none" fill="#DD908E"/>

<path d="M122 480 c-16 -15 -22 -32 -22 -62 l0 -41 37 6 c52 9 58 18 42 68 -17 51 -28 56 -57 29z m46 -41 c3 -31 -1 -37 -20 -43 -36 -9 -38 -8 -38 27 0 64 53 79 58 16z" transform="translate(0.000000,64.000000) scale(0.100000,-0.100000)" stroke="none" fill="#DD908E"/>

<path d="M423 564 c-3 -8 0 -34 8 -56 12 -38 14 -40 48 -34 39 6 51 19 44 47 -12 44 -87 77 -100 43z m81 -37 c11 -31 7 -38 -28 -41 -22 -3 -27 2 -36 32 -7 26 -6 38 2 43 19 12 52 -7 62 -34z" transform="translate(0.000000,64.000000) scale(0.100000,-0.100000)" stroke="none" fill="#DD908E"/>

<path d="M150 333 c-25 -10 -28 -23 -15 -66 14 -47 25 -54 66 -37 20 9 29 19 28 34 -1 17 -2 17 -6 4 -5 -19 -45 -34 -61 -24 -6 3 -13 18 -17 33 -11 47 47 74 65 31 10 -23 10 -23 7 2 -1 19 -8 25 -27 27 -14 1 -32 -1 -40 -4z" transform="translate(0.000000,64.000000) scale(0.100000,-0.100000)" stroke="none" fill="#DD908E"/>

<path d="M232 523 c-31 -6 -37 -27 -21 -75 12 -37 15 -39 42 -34 16 3 33 6 38 6 5 0 9 11 9 24 0 35 -20 86 -33 85 -7 -1 -22 -4 -35 -6z m48 -32 c14 -28 12 -61 -4 -61 -8 0 -21 -3 -29 -6 -21 -8 -46 64 -26 77 23 14 48 10 59 -10z" transform="translate(0.000000,64.000000) scale(0.100000,-0.100000)" stroke="none" fill="#DD908E"/>

<path d="M483 420 c-26 -11 -28 -27 -11 -67 17 -37 24 -41 61 -33 30 6 32 9 30 44 -4 61 -27 77 -80 56z m55 -12 c17 -17 15 -65 -4 -72 -29 -11 -40 -6 -52 27 -11 28 -10 34 5 45 21 15 36 15 51 0z" transform="translate(0.000000,64.000000) scale(0.100000,-0.100000)" stroke="none" fill="#DD908E"/>

<path d="M337 548 c-26 -9 -28 -13 -22 -47 9 -50 26 -65 64 -56 40 9 42 13 27 66 -14 47 -25 53 -69 37z m58 -38 c8 -35 3 -46 -24 -53 -23 -6 -36 7 -45 45 -5 20 -2 28 11 31 41 11 51 7 58 -23z" transform="translate(0.000000,64.000000) scale(0.100000,-0.100000)" stroke="none" fill="#DD908E"/>

<path d="M373 390 c-26 -11 -26 -12 -13 -62 14 -47 22 -52 65 -37 39 15 41 22 20 73 -16 37 -31 43 -72 26z m62 -36 c8 -20 15 -38 15 -39 0 -2 -14 -6 -31 -10 -36 -8 -49 4 -49 47 0 24 8 31 42 37 4 0 15 -15 23 -35z" transform="translate(0.000000,64.000000) scale(0.100000,-0.100000)" stroke="none" fill="#DD908E"/>

<path d="M273 365 c-37 -16 -40 -27 -18 -79 14 -32 18 -36 43 -30 44 11 53 24 42 66 -14 50 -28 59 -67 43z m55 -65 c-2 -18 -10 -26 -27 -28 -27 -4 -41 12 -41 50 0 20 6 28 23 30 28 5 49 -19 45 -52z" transform="translate(0.000000,64.000000) scale(0.100000,-0.100000)" stroke="none" fill="#DD908E"/>

<path d="M156 134 c-20 -20 -20 -43 0 -72 18 -26 65 -30 88 -6 19 18 21 65 4 82 -17 17 -74 15 -92 -4z m67 -28 c8 -19 -15 -37 -32 -26 -17 10 -7 40 13 40 7 0 16 -6 19 -14z" transform="translate(0.000000,64.000000) scale(0.100000,-0.100000)" stroke="none" fill="#2F1716"/>

<path d="M460 218 c-39 -42 -16 -98 39 -98 61 0 83 73 32 103 -38 22 -46 21 -71 -5z m57 -34 c3 -8 1 -20 -6 -27 -14 -14 -47 15 -37 32 10 16 36 13 43 -5z" transform="translate(0.000000,64.000000) scale(0.100000,-0.100000)" stroke="none" fill="#2F1716"/>

<path d="M380 610 c-46 -11 -145 -37 -195 -52 -111 -33 -149 -116 -110 -243 l14 -49 -31 -26 c-30 -25 -31 -28 -22 -76 4 -27 7 -61 5 -76 -3 -34 10 -41 56 -29 32 9 40 8 55 -9 38 -41 118 -16 118 37 0 16 11 22 58 33 31 7 65 17 75 22 14 7 24 5 39 -9 21 -18 21 -18 7 5 -16 25 -20 26 -63 12 -17 -5 -51 -16 -75 -24 -36 -11 -46 -19 -55 -47 -9 -29 -16 -35 -45 -37 -23 -2 -40 3 -56 18 -21 20 -27 21 -60 10 -20 -7 -38 -10 -40 -8 -3 2 -2 21 2 41 4 30 9 36 23 32 22 -7 35 22 19 41 -8 10 -16 11 -29 4 -28 -15 -32 -13 -28 17 2 19 12 32 31 41 24 12 28 18 22 41 -19 80 -26 135 -21 166 9 48 62 88 144 109 37 10 83 22 102 28 47 14 125 21 154 14 12 -3 35 -17 49 -32 27 -26 34 -46 82 -218 14 -50 32 -94 42 -102 16 -12 15 -14 -19 -28 -21 -9 -44 -16 -53 -16 -9 0 -15 -9 -15 -24 0 -31 -45 -68 -74 -61 -18 5 -19 5 -4 -5 27 -17 77 13 85 50 4 24 12 31 40 36 19 4 40 13 48 21 13 12 12 18 -5 41 -10 15 -33 80 -50 146 -17 65 -39 131 -50 146 -39 55 -101 76 -170 60z m-290 -450 c0 -5 -4 -10 -10 -10 -5 0 -10 5 -10 10 0 6 5 10 10 10 6 0 10 -4 10 -10z" transform="translate(0.000000,64.000000) scale(0.100000,-0.100000)" stroke="none" fill="#DD908E"/>

<path d="M357 594 c-3 -3 -20 -10 -39 -14 -18 -5 -63 -16 -100 -26 -82 -21 -135 -61 -144 -109 -5 -31 2 -86 21 -166 6 -23 2 -29 -22 -41 -19 -9 -29 -22 -31 -41 -4 -30 0 -32 28 -17 13 7 21 6 29 -4 17 -20 3 -48 -20 -41 -15 5 -19 1 -20 -17 0 -13 -2 -31 -4 -41 -3 -16 1 -18 23 -11 15 4 36 8 48 8 15 1 19 6 16 22 -9 48 81 76 110 35 12 -17 17 -18 53 -6 22 7 61 19 88 26 31 9 47 19 47 29 0 19 36 60 53 60 7 0 26 -9 42 -20 36 -24 45 -24 93 -4 34 14 35 16 19 28 -10 8 -28 52 -42 102 -56 199 -58 205 -105 237 -24 16 -129 25 -143 11z m135 -34 c28 -21 40 -51 28 -69 -3 -7 -22 -14 -41 -17 -34 -6 -36 -4 -48 34 -23 69 8 94 61 52z m-86 -49 c15 -53 13 -57 -27 -66 -38 -9 -55 6 -64 56 -6 34 -4 38 22 47 44 16 55 10 69 -37z m-117 -12 c13 -38 14 -79 2 -79 -5 0 -22 -3 -38 -6 -27 -5 -30 -3 -42 34 -20 59 -11 73 56 81 6 0 16 -13 22 -30z m-110 -48 c16 -50 10 -59 -42 -68 l-37 -6 0 41 c0 30 6 47 22 62 29 27 40 22 57 -29z m370 -35 c6 -7 12 -31 14 -52 2 -35 0 -38 -30 -44 -37 -8 -44 -4 -61 33 -17 40 -15 56 11 67 32 13 53 12 66 -4z m-104 -52 c21 -51 19 -58 -20 -73 -43 -15 -51 -10 -65 37 -13 50 -13 51 13 62 41 17 56 11 72 -26z m-105 -42 c11 -42 2 -55 -42 -66 -25 -6 -29 -2 -43 30 -22 52 -19 63 18 79 39 16 53 7 67 -43z m-127 11 c3 -5 8 -26 11 -49 7 -39 6 -42 -23 -54 -16 -6 -35 -10 -42 -8 -15 5 -39 82 -30 96 12 19 75 30 84 15z" transform="translate(0.000000,64.000000) scale(0.100000,-0.100000)" stroke="none" fill="#BF2C28"/>

</svg>