<?xml version="1.0" standalone="no"?>
<!DOCTYPE svg PUBLIC "-//W3C//DTD SVG 20010904//EN"
 "http://www.w3.org/TR/2001/REC-SVG-20010904/DTD/svg10.dtd">
<svg version="1.0" xmlns="http://www.w3.org/2000/svg" 
width="84.000000pt" height="58.000000pt" viewBox="0 0 84.000000 58.000000"
preserveAspectRatio = "xMidYMid meet" >
<metadata>
Created by ZoeQU, 2022
</metadata>
<rect width="84.000000" height="58.000000" fill="#F7F6EA"/>
<path d="M664 345 c-4 -14 -4 -29 0 -32 3 -4 6 4 6 16 0 13 9 25 23 31 l22 9 -22 0 c-16 1 -24 -6 -29 -24z" transform="translate(0.000000,58.000000) scale(0.100000,-0.100000)" stroke="none" fill="#8B96BA"/>

<path d="M402 513 c9 -2 16 -10 14 -16 -1 -7 -1 -9 1 -4 3 4 21 7 41 7 49 0 37 6 -23 12 -27 3 -42 3 -33 1z" transform="translate(0.000000,58.000000) scale(0.100000,-0.100000)" stroke="none" fill="#564D94"/>

<path d="M180 70 c8 -5 29 -10 45 -10 23 0 27 3 15 10 -8 5 -28 10 -45 10 -23 0 -27 -3 -15 -10z" transform="translate(0.000000,58.000000) scale(0.100000,-0.100000)" stroke="none" fill="#3A3C84"/>

<path d="M637 489 c-13 -18 -19 -19 -39 -9 -22 11 -22 10 -4 -4 26 -21 31 -20 50 9 20 30 13 34 -7 4z" transform="translate(0.000000,58.000000) scale(0.100000,-0.100000)" stroke="none" fill="#8B96BA"/>

<path d="M80 163 c0 -10 60 -78 60 -68 0 4 -13 23 -30 42 -16 18 -30 30 -30 26z" transform="translate(0.000000,58.000000) scale(0.100000,-0.100000)" stroke="none" fill="#564D94"/>

<path d="M123 121 c1 -21 13 -23 33 -6 9 7 9 12 0 17 -20 14 -35 8 -33 -11z" transform="translate(0.000000,58.000000) scale(0.100000,-0.100000)" stroke="none" fill="#7363A8"/>

<path d="M535 143 c-22 -19 -31 -31 -20 -25 27 15 80 62 69 62 -5 -1 -27 -17 -49 -37z" transform="translate(0.000000,58.000000) scale(0.100000,-0.100000)" stroke="none" fill="#C1CADA"/>

<path d="M430 490 c0 -5 16 -10 36 -10 21 0 33 4 29 10 -3 6 -19 10 -36 10 -16 0 -29 -4 -29 -10z" transform="translate(0.000000,58.000000) scale(0.100000,-0.100000)" stroke="none" fill="#9C7CC8"/>

<path d="M404 209 c-11 -19 11 -30 37 -20 l24 10 -23 0 c-13 1 -20 5 -17 11 3 6 2 10 -4 10 -5 0 -13 -5 -17 -11z" transform="translate(0.000000,58.000000) scale(0.100000,-0.100000)" stroke="none" fill="#7363A8"/>

<path d="M120 415 c-13 -14 -19 -25 -14 -25 11 1 54 36 54 44 0 13 -18 5 -40 -19z" transform="translate(0.000000,58.000000) scale(0.100000,-0.100000)" stroke="none" fill="#9C7CC8"/>

<path d="M435 296 c-24 -10 -26 -13 -12 -19 22 -8 47 1 47 19 0 8 -1 14 -2 14 -2 -1 -16 -7 -33 -14z" transform="translate(0.000000,58.000000) scale(0.100000,-0.100000)" stroke="none" fill="#9C7CC8"/>

<path d="M405 122 c-18 -9 -25 -17 -16 -20 15 -5 61 17 61 30 0 11 -9 9 -45 -10z" transform="translate(0.000000,58.000000) scale(0.100000,-0.100000)" stroke="none" fill="#9C7CC8"/>

<path d="M181 446 c-8 -9 -8 -16 -2 -20 5 -4 12 -2 16 4 3 5 15 10 26 10 10 0 19 5 19 10 0 15 -46 12 -59 -4z" transform="translate(0.000000,58.000000) scale(0.100000,-0.100000)" stroke="none" fill="#3A3C84"/>

<path d="M50 286 c0 -22 19 -58 21 -41 6 41 3 62 -8 62 -7 0 -13 -10 -13 -21z" transform="translate(0.000000,58.000000) scale(0.100000,-0.100000)" stroke="none" fill="#564D94"/>

<path d="M596 282 c-3 -5 -1 -12 5 -14 9 -3 9 -10 0 -27 -17 -31 -10 -34 11 -6 14 19 15 25 4 40 -8 12 -15 14 -20 7z" transform="translate(0.000000,58.000000) scale(0.100000,-0.100000)" stroke="none" fill="#564D94"/>

<path d="M545 220 c-28 -31 -8 -37 23 -7 19 20 22 27 11 27 -9 0 -24 -9 -34 -20z" transform="translate(0.000000,58.000000) scale(0.100000,-0.100000)" stroke="none" fill="#9C7CC8"/>

<path d="M144 366 c-29 -21 -12 -28 24 -10 18 8 32 17 32 20 0 10 -38 3 -56 -10z" transform="translate(0.000000,58.000000) scale(0.100000,-0.100000)" stroke="none" fill="#3A3C84"/>

<path d="M225 299 c-4 -5 -18 -15 -32 -20 -39 -15 -23 -19 20 -6 20 7 37 18 37 24 0 16 -16 17 -25 2z" transform="translate(0.000000,58.000000) scale(0.100000,-0.100000)" stroke="none" fill="#3A3C84"/>

<path d="M334 269 c-13 -22 13 -32 53 -20 l38 10 -37 -5 c-36 -5 -53 8 -25 19 7 3 6 6 -5 6 -9 1 -20 -4 -24 -10z" transform="translate(0.000000,58.000000) scale(0.100000,-0.100000)" stroke="none" fill="#7363A8"/>

<path d="M243 213 c-27 -10 -13 -33 20 -32 31 0 31 1 7 10 -20 8 -22 12 -10 19 16 10 4 12 -17 3z" transform="translate(0.000000,58.000000) scale(0.100000,-0.100000)" stroke="none" fill="#7363A8"/>

<path d="M583 464 c0 -7 5 -14 10 -14 5 0 7 -7 3 -15 -3 -9 0 -15 9 -15 24 0 24 15 1 37 -16 16 -23 18 -23 7z" transform="translate(0.000000,58.000000) scale(0.100000,-0.100000)" stroke="none" fill="#564D94"/>

<path d="M360 361 c0 -9 33 -21 58 -21 6 0 12 7 12 15 0 10 -11 15 -35 15 -19 0 -35 -4 -35 -9z" transform="translate(0.000000,58.000000) scale(0.100000,-0.100000)" stroke="none" fill="#3A3C84"/>

<path d="M92 325 c-14 -30 -15 -45 -4 -45 7 0 32 47 32 62 0 17 -17 7 -28 -17z" transform="translate(0.000000,58.000000) scale(0.100000,-0.100000)" stroke="none" fill="#9C7CC8"/>

<path d="M65 339 c-8 -34 1 -52 11 -23 4 10 14 27 22 37 14 15 13 17 -6 17 -15 0 -22 -8 -27 -31z" transform="translate(0.000000,58.000000) scale(0.100000,-0.100000)" stroke="none" fill="#3A3C84"/>

<path d="M220 485 c-18 -21 5 -27 60 -15 l45 9 -55 -4 c-50 -5 -53 -4 -36 10 11 8 15 15 9 15 -6 0 -16 -7 -23 -15z" transform="translate(0.000000,58.000000) scale(0.100000,-0.100000)" stroke="none" fill="#7363A8"/>

<path d="M528 483 c18 -7 15 -23 -5 -23 -17 -1 -17 -1 0 -11 9 -6 15 -14 12 -20 -4 -5 -1 -9 4 -9 6 0 11 13 11 29 0 16 6 32 13 34 6 3 -1 5 -18 5 -16 0 -24 -2 -17 -5z" transform="translate(0.000000,58.000000) scale(0.100000,-0.100000)" stroke="none" fill="#564D94"/>

<path d="M650 279 c-8 -17 -25 -46 -39 -63 -23 -29 -23 -29 -2 -11 24 21 66 94 58 101 -2 3 -10 -10 -17 -27z" transform="translate(0.000000,58.000000) scale(0.100000,-0.100000)" stroke="none" fill="#C1CADA"/>

<path d="M249 511 c8 -5 31 -7 51 -5 26 3 43 0 53 -11 14 -14 16 -13 14 5 -1 18 -8 20 -67 20 -41 0 -60 -4 -51 -9z" transform="translate(0.000000,58.000000) scale(0.100000,-0.100000)" stroke="none" fill="#564D94"/>

<path d="M335 323 c-16 -3 -34 -9 -39 -14 -17 -15 58 -10 80 6 20 15 17 16 -41 8z" transform="translate(0.000000,58.000000) scale(0.100000,-0.100000)" stroke="none" fill="#9C7CC8"/>

<path d="M205 363 c-11 -2 -31 -13 -45 -23 -39 -30 2 -26 48 5 36 25 36 26 -3 18z" transform="translate(0.000000,58.000000) scale(0.100000,-0.100000)" stroke="none" fill="#9C7CC8"/>

<path d="M465 96 c-11 -7 -40 -21 -65 -29 -25 -9 -37 -16 -27 -17 20 0 105 38 113 51 7 13 2 11 -21 -5z" transform="translate(0.000000,58.000000) scale(0.100000,-0.100000)" stroke="none" fill="#C1CADA"/>

<path d="M313 388 c3 -9 20 -12 53 -10 75 6 79 22 5 22 -46 0 -62 -3 -58 -12z" transform="translate(0.000000,58.000000) scale(0.100000,-0.100000)" stroke="none" fill="#9C7CC8"/>

<path d="M195 311 c-3 -6 -13 -11 -21 -11 -8 0 -24 -9 -36 -20 -19 -17 -19 -20 -5 -20 9 0 17 5 17 10 0 6 8 10 19 10 19 0 48 26 38 36 -3 3 -8 1 -12 -5z" transform="translate(0.000000,58.000000) scale(0.100000,-0.100000)" stroke="none" fill="#9C7CC8"/>

<path d="M31 233 c-1 -7 -8 -13 -16 -13 -23 0 -18 -18 7 -26 13 -4 29 -14 36 -23 9 -12 9 -8 -1 14 -8 17 -17 37 -20 45 -3 9 -6 10 -6 3z" transform="translate(0.000000,58.000000) scale(0.100000,-0.100000)" stroke="none" fill="#C1CADA"/>

<path d="M136 170 c6 -6 28 -14 50 -17 36 -6 38 -5 25 10 -8 10 -28 17 -49 17 -25 0 -33 -3 -26 -10z" transform="translate(0.000000,58.000000) scale(0.100000,-0.100000)" stroke="none" fill="#9C7CC8"/>

<path d="M346 451 c-8 -12 61 -22 87 -11 26 10 25 11 -35 16 -26 2 -49 0 -52 -5z" transform="translate(0.000000,58.000000) scale(0.100000,-0.100000)" stroke="none" fill="#9C7CC8"/>

<path d="M504 395 c-10 -8 -27 -15 -36 -15 -18 0 -26 -20 -9 -20 19 0 81 31 81 40 0 14 -13 12 -36 -5z" transform="translate(0.000000,58.000000) scale(0.100000,-0.100000)" stroke="none" fill="#9C7CC8"/>

<path d="M261 211 c-22 -14 4 -22 48 -15 23 4 41 10 41 15 0 12 -71 11 -89 0z" transform="translate(0.000000,58.000000) scale(0.100000,-0.100000)" stroke="none" fill="#9C7CC8"/>

<path d="M392 125 c-20 -9 -31 -19 -26 -26 4 -8 0 -9 -15 -4 -13 4 -21 2 -21 -5 0 -6 12 -10 28 -8 15 2 26 8 24 16 -1 7 9 17 23 22 14 5 25 12 25 15 0 7 1 7 -38 -10z" transform="translate(0.000000,58.000000) scale(0.100000,-0.100000)" stroke="none" fill="#7363A8"/>

<path d="M753 411 c-30 -25 -29 -30 5 -28 18 1 26 -2 24 -11 -1 -8 2 -11 7 -7 15 8 2 35 -18 35 -14 1 -13 3 3 15 11 8 16 15 10 15 -5 -1 -19 -9 -31 -19z" transform="translate(0.000000,58.000000) scale(0.100000,-0.100000)" stroke="none" fill="#8B96BA"/>

<path d="M117 452 c-16 -17 -23 -32 -18 -40 6 -9 12 -7 26 8 10 11 25 18 32 16 7 -3 13 -1 13 4 0 15 -26 12 -40 -5 -7 -8 -17 -15 -23 -15 -6 0 2 14 18 30 16 17 26 30 24 30 -3 0 -17 -12 -32 -28z" transform="translate(0.000000,58.000000) scale(0.100000,-0.100000)" stroke="none" fill="#7363A8"/>

<path d="M450 223 c-22 -9 -30 -17 -21 -20 16 -7 91 17 91 29 0 13 -31 9 -70 -9z" transform="translate(0.000000,58.000000) scale(0.100000,-0.100000)" stroke="none" fill="#9C7CC8"/>

<path d="M470 353 c-29 -6 -70 -43 -47 -43 26 0 88 30 82 40 -3 6 -7 9 -8 9 -1 -1 -13 -4 -27 -6z" transform="translate(0.000000,58.000000) scale(0.100000,-0.100000)" stroke="none" fill="#3A3C84"/>

<path d="M85 436 c-25 -32 -49 -95 -41 -104 3 -2 9 13 15 33 5 20 22 52 36 71 14 19 24 34 21 34 -3 0 -17 -15 -31 -34z" transform="translate(0.000000,58.000000) scale(0.100000,-0.100000)" stroke="none" fill="#C1CADA"/>

<path d="M705 538 c3 -8 -6 -24 -21 -37 -35 -31 -24 -37 22 -12 21 12 31 21 22 21 -11 0 -15 5 -12 14 3 8 1 17 -5 21 -6 3 -9 0 -6 -7z" transform="translate(0.000000,58.000000) scale(0.100000,-0.100000)" stroke="none" fill="#8B96BA"/>

<path d="M211 426 c-48 -17 -55 -41 -10 -31 36 8 59 22 59 36 0 11 -7 11 -49 -5z" transform="translate(0.000000,58.000000) scale(0.100000,-0.100000)" stroke="none" fill="#9C7CC8"/>

<path d="M175 488 c-28 -15 -65 -50 -65 -60 0 -5 9 0 21 10 11 11 34 22 50 26 17 3 29 12 29 21 0 18 -8 18 -35 3z" transform="translate(0.000000,58.000000) scale(0.100000,-0.100000)" stroke="none" fill="#3A3C84"/>

<path d="M318 146 c-49 -15 -58 -26 -20 -26 34 0 82 18 82 32 0 10 -15 9 -62 -6z" transform="translate(0.000000,58.000000) scale(0.100000,-0.100000)" stroke="none" fill="#9C7CC8"/>

<path d="M234 485 c-17 -13 -14 -14 41 -9 76 8 96 24 29 24 -29 0 -58 -6 -70 -15z" transform="translate(0.000000,58.000000) scale(0.100000,-0.100000)" stroke="none" fill="#9C7CC8"/>

<path d="M412 249 c-59 -28 -43 -43 19 -19 27 11 52 20 55 20 3 0 2 5 -1 10 -9 14 -23 12 -73 -11z" transform="translate(0.000000,58.000000) scale(0.100000,-0.100000)" stroke="none" fill="#3A3C84"/>

<path d="M145 114 c23 -24 71 -37 92 -25 16 9 16 10 -7 19 -14 5 -42 12 -63 15 -33 5 -35 4 -22 -9z" transform="translate(0.000000,58.000000) scale(0.100000,-0.100000)" stroke="none" fill="#9C7CC8"/>

<path d="M490 441 c0 -11 -9 -23 -20 -26 -20 -6 -28 -25 -11 -25 6 0 26 10 47 22 34 20 35 22 18 35 -25 18 -34 16 -34 -6z" transform="translate(0.000000,58.000000) scale(0.100000,-0.100000)" stroke="none" fill="#3A3C84"/>

<path d="M463 191 c-28 -14 -54 -35 -57 -45 -4 -14 -2 -16 7 -7 6 6 18 11 27 11 16 0 87 57 79 63 -2 2 -27 -8 -56 -22z" transform="translate(0.000000,58.000000) scale(0.100000,-0.100000)" stroke="none" fill="#3A3C84"/>

<path d="M46 334 c-13 -34 -6 -116 14 -154 11 -22 23 -40 25 -40 3 0 -4 19 -16 42 -17 33 -20 54 -17 105 2 35 3 63 2 63 -1 0 -5 -7 -8 -16z" transform="translate(0.000000,58.000000) scale(0.100000,-0.100000)" stroke="none" fill="#8B96BA"/>

<path d="M153 246 c-54 -14 -65 -26 -25 -26 38 0 112 22 112 32 0 11 -36 8 -87 -6z" transform="translate(0.000000,58.000000) scale(0.100000,-0.100000)" stroke="none" fill="#9C7CC8"/>

<path d="M282 98 c-15 -15 -15 -35 0 -44 7 -5 8 -3 3 6 -6 10 0 12 26 8 19 -3 43 -2 54 3 16 6 12 8 -17 8 -39 1 -52 16 -20 24 11 3 8 5 -8 6 -15 0 -31 -4 -38 -11z" transform="translate(0.000000,58.000000) scale(0.100000,-0.100000)" stroke="none" fill="#3A3C84"/>

<path d="M580 214 c0 -12 -55 -45 -70 -42 -15 4 -44 -38 -32 -46 5 -3 22 5 38 18 16 14 40 33 54 44 14 11 22 24 18 28 -5 4 -8 3 -8 -2z" transform="translate(0.000000,58.000000) scale(0.100000,-0.100000)" stroke="none" fill="#3A3C84"/>

<path d="M450 513 c42 -6 59 -26 27 -34 -18 -5 -16 -7 16 -14 41 -8 61 0 37 15 -12 8 -11 10 5 10 12 1 3 7 -20 15 -22 8 -53 14 -70 13 -28 -1 -28 -1 5 -5z" transform="translate(0.000000,58.000000) scale(0.100000,-0.100000)" stroke="none" fill="#7363A8"/>

<path d="M640 310 c0 -9 -9 -11 -30 -6 -17 3 -30 1 -30 -4 0 -6 -6 -10 -14 -10 -17 0 -29 -27 -15 -36 6 -3 21 4 34 16 21 19 24 20 32 5 8 -14 11 -12 22 11 6 15 9 29 6 32 -3 3 -5 0 -5 -8z" transform="translate(0.000000,58.000000) scale(0.100000,-0.100000)" stroke="none" fill="#3A3C84"/>

<path d="M112 184 c2 -10 9 -19 17 -22 8 -3 11 0 7 7 -11 17 59 14 73 -3 10 -12 8 -15 -11 -19 -17 -3 -15 -5 10 -6 66 -2 19 42 -56 53 -37 6 -43 4 -40 -10z" transform="translate(0.000000,58.000000) scale(0.100000,-0.100000)" stroke="none" fill="#7363A8"/>

<path d="M353 189 c-6 -6 -32 -11 -57 -11 -48 -1 -69 -13 -41 -24 24 -9 135 18 135 33 0 16 -22 17 -37 2z" transform="translate(0.000000,58.000000) scale(0.100000,-0.100000)" stroke="none" fill="#3A3C84"/>

<path d="M103 264 c4 -7 0 -17 -7 -23 -11 -10 -12 -19 -4 -42 12 -34 29 -49 21 -18 -5 19 -3 20 33 14 26 -4 34 -3 25 3 -11 8 -11 11 0 16 8 3 1 4 -14 1 -16 -3 -38 -3 -50 1 -20 6 -20 7 -2 20 16 12 17 16 5 27 -7 7 -10 7 -7 1z" transform="translate(0.000000,58.000000) scale(0.100000,-0.100000)" stroke="none" fill="#564D94"/>

<path d="M70 251 c-15 -28 -13 -37 16 -82 19 -30 29 -38 37 -30 8 8 7 14 -6 23 -26 21 -39 64 -22 78 8 7 12 16 9 21 -9 15 -23 10 -34 -10z" transform="translate(0.000000,58.000000) scale(0.100000,-0.100000)" stroke="none" fill="#3A3C84"/>

<path d="M79 134 c29 -59 117 -105 195 -102 l51 1 -60 6 c-75 8 -127 33 -166 80 -17 20 -26 26 -20 15z" transform="translate(0.000000,58.000000) scale(0.100000,-0.100000)" stroke="none" fill="#C1CADA"/>

<path d="M390 470 l-45 -7 56 -1 c37 -1 61 -7 69 -18 11 -13 10 -16 -8 -21 -23 -6 -29 -27 -12 -38 5 -3 7 0 4 9 -3 9 2 17 15 21 29 9 28 51 -1 59 -13 3 -25 5 -28 4 -3 0 -25 -4 -50 -8z" transform="translate(0.000000,58.000000) scale(0.100000,-0.100000)" stroke="none" fill="#564D94"/>

<path d="M715 520 c-4 -6 5 -10 19 -10 38 0 43 -20 10 -47 -32 -25 -28 -29 11 -11 38 17 54 -3 24 -31 -13 -11 -18 -21 -11 -21 11 0 42 38 42 52 0 3 -9 9 -19 13 -11 3 -18 12 -15 19 8 21 -49 55 -61 36z" transform="translate(0.000000,58.000000) scale(0.100000,-0.100000)" stroke="none" fill="#C1CADA"/>

<path d="M427 360 c3 -13 0 -20 -8 -20 -8 0 -20 -9 -27 -20 -8 -13 -24 -20 -45 -21 -30 0 -31 -1 -9 -11 17 -8 33 -8 64 3 25 8 36 15 26 17 -17 3 -17 4 0 22 9 10 28 20 42 23 25 4 24 4 -2 6 -16 0 -28 6 -28 11 0 6 -4 10 -9 10 -5 0 -7 -9 -4 -20z" transform="translate(0.000000,58.000000) scale(0.100000,-0.100000)" stroke="none" fill="#564D94"/>

<path d="M587 394 c-3 -3 -1 -18 4 -32 9 -23 7 -30 -16 -49 -14 -13 -23 -23 -19 -23 4 0 18 10 31 22 13 12 23 16 23 10 0 -7 8 -12 18 -11 10 0 12 3 5 6 -21 8 -15 35 7 31 10 -2 19 1 19 7 0 5 8 12 18 16 17 7 17 8 0 8 -10 1 -28 -6 -41 -15 -16 -10 -26 -12 -31 -5 -3 6 -3 11 2 11 4 0 1 5 -7 11 -12 9 -11 10 8 6 12 -3 22 -1 22 4 0 10 -33 12 -43 3z" transform="translate(0.000000,58.000000) scale(0.100000,-0.100000)" stroke="none" fill="#7363A8"/>

<path d="M561 368 c-20 -13 -29 -24 -21 -26 7 -3 16 2 21 9 4 7 11 10 15 6 6 -6 -5 -17 -65 -64 -14 -11 -14 -12 3 -13 11 0 34 11 53 26 26 20 32 30 27 49 -4 17 -1 24 13 28 12 3 13 5 3 6 -8 0 -30 -9 -49 -21z" transform="translate(0.000000,58.000000) scale(0.100000,-0.100000)" stroke="none" fill="#9C7CC8"/>

<path d="M86 400 c-14 -28 -13 -30 5 -30 26 0 49 -48 28 -61 -10 -6 -11 -9 -1 -9 7 0 10 -4 7 -10 -3 -5 -1 -10 6 -10 8 0 10 13 6 41 -4 29 -1 42 9 46 15 6 20 43 5 43 -5 0 -14 -7 -21 -15 -19 -23 -33 -18 -28 10 7 33 3 32 -16 -5z m64 -10 c0 -5 -5 -10 -11 -10 -5 0 -7 5 -4 10 3 6 8 10 11 10 2 0 4 -4 4 -10z" transform="translate(0.000000,58.000000) scale(0.100000,-0.100000)" stroke="none" fill="#564D94"/>

<path d="M250 420 c-8 -10 -30 -22 -49 -25 -29 -6 -33 -5 -28 9 9 23 -19 21 -50 -4 -14 -11 -21 -20 -16 -20 6 0 16 7 23 15 16 20 30 19 30 -1 0 -13 7 -15 31 -10 29 5 30 4 18 -11 -12 -15 -12 -16 5 -10 12 5 26 1 37 -9 14 -12 19 -13 19 -4 0 7 -8 19 -17 25 -17 12 -17 14 1 34 11 12 17 23 15 25 -2 2 -11 -4 -19 -14z" transform="translate(0.000000,58.000000) scale(0.100000,-0.100000)" stroke="none" fill="#7363A8"/>

<path d="M200 340 c-14 -11 -33 -20 -44 -20 -15 0 -17 -5 -12 -30 4 -23 2 -30 -10 -30 -8 0 -12 5 -9 10 3 6 -5 10 -19 10 -13 0 -27 6 -29 13 -4 9 -6 9 -6 -1 -1 -7 10 -17 23 -22 13 -5 26 -14 28 -21 3 -8 15 -9 38 -4 21 5 29 10 20 13 -15 5 -30 21 -30 34 0 4 10 8 23 10 12 2 21 9 20 16 -2 6 1 12 5 12 5 0 17 7 28 15 10 8 15 14 9 14 -5 1 -21 -8 -35 -19z" transform="translate(0.000000,58.000000) scale(0.100000,-0.100000)" stroke="none" fill="#7363A8"/>

<path d="M637 468 c-2 -7 -1 -22 3 -32 6 -17 7 -18 13 -3 3 9 11 17 16 17 6 0 8 -7 5 -15 -4 -9 1 -18 11 -22 17 -6 17 -7 1 -19 -20 -14 -15 -16 54 -29 26 -5 31 -3 20 4 -8 6 -23 11 -32 11 -25 0 -22 17 3 25 29 9 6 24 -27 17 -26 -5 -31 6 -11 27 8 9 8 12 0 7 -6 -3 -18 1 -26 9 -19 18 -23 19 -30 3z" transform="translate(0.000000,58.000000) scale(0.100000,-0.100000)" stroke="none" fill="#564D94"/>

<path d="M280 275 c-14 -7 -23 -17 -20 -22 3 -4 -19 -17 -49 -27 -49 -18 -52 -21 -32 -29 16 -8 24 -6 34 7 7 10 33 19 67 23 30 3 49 8 42 11 -16 5 -15 17 4 36 14 15 14 16 -3 16 -10 -1 -29 -7 -43 -15z" transform="translate(0.000000,58.000000) scale(0.100000,-0.100000)" stroke="none" fill="#3A3C84"/>

<path d="M716 485 c-16 -9 -40 -27 -53 -41 -17 -18 -23 -21 -23 -10 0 9 -4 16 -10 16 -6 0 -9 -6 -8 -12 2 -7 -7 -14 -19 -16 -13 -2 -23 -8 -23 -13 0 -6 9 -7 21 -4 13 4 27 1 39 -10 15 -13 22 -14 40 -5 20 11 20 12 4 24 -22 17 -11 34 32 52 19 8 34 19 34 24 0 13 0 13 -34 -5z" transform="translate(0.000000,58.000000) scale(0.100000,-0.100000)" stroke="none" fill="#3A3C84"/>

<path d="M253 463 c-18 -7 -16 -23 2 -23 19 0 19 -9 -2 -32 -12 -13 -13 -22 -6 -29 8 -8 11 -6 10 7 -1 10 6 20 16 22 12 2 17 -3 18 -20 0 -21 1 -22 8 -3 5 11 5 22 1 25 -4 3 -11 16 -15 28 -6 20 -4 23 12 20 10 -2 22 -13 28 -26 8 -17 18 -22 50 -22 29 0 36 3 25 10 -8 5 -24 10 -35 10 -11 0 -28 9 -38 20 -16 19 -47 24 -74 13z" transform="translate(0.000000,58.000000) scale(0.100000,-0.100000)" stroke="none" fill="#564D94"/>

<path d="M212 204 c-6 -12 -2 -23 15 -41 14 -13 22 -30 19 -38 -3 -8 -1 -17 4 -20 16 -10 11 -25 -7 -25 -15 0 -15 -2 -4 -9 11 -7 9 -10 -10 -14 -13 -2 2 -4 34 -4 31 0 60 4 64 10 3 6 -6 8 -26 5 -31 -5 -44 13 -20 28 8 5 6 10 -5 16 -21 12 -20 28 2 29 11 1 8 4 -8 8 -14 4 -24 13 -22 19 1 7 -3 12 -8 12 -14 0 -12 27 3 33 7 3 5 6 -5 6 -9 1 -21 -6 -26 -15z" transform="translate(0.000000,58.000000) scale(0.100000,-0.100000)" stroke="none" fill="#564D94"/>

<path d="M366 513 c-3 -3 -2 -11 0 -18 3 -8 -11 -17 -40 -25 -40 -11 -45 -15 -40 -35 4 -17 0 -24 -16 -28 -25 -6 -22 -30 3 -35 12 -2 17 3 17 17 0 14 6 21 20 21 22 0 27 24 8 36 -16 10 22 22 77 23 27 1 36 4 26 10 -7 5 -11 13 -7 19 6 10 -39 23 -48 15z" transform="translate(0.000000,58.000000) scale(0.100000,-0.100000)" stroke="none" fill="#3A3C84"/>

<path d="M600 458 c0 -5 -11 -6 -25 -2 -20 5 -25 2 -25 -12 0 -13 -15 -26 -45 -39 -25 -11 -41 -21 -36 -23 6 -2 21 4 33 12 28 20 42 20 34 1 -3 -8 0 -15 7 -15 7 -1 5 -6 -5 -14 -10 -7 -18 -17 -18 -21 0 -4 7 -2 15 5 32 27 27 -2 -6 -31 -36 -34 -11 -24 30 12 21 17 22 22 10 30 -7 5 -9 9 -4 9 6 0 4 4 -4 9 -12 7 -12 13 -3 24 7 7 9 17 5 21 -4 4 0 4 10 0 11 -4 19 0 23 10 3 9 12 16 19 16 8 0 16 4 19 8 2 4 -4 8 -15 8 -10 0 -19 -4 -19 -8z" transform="translate(0.000000,58.000000) scale(0.100000,-0.100000)" stroke="none" fill="#7363A8"/>

<path d="M350 358 c0 -14 -9 -18 -43 -18 -24 0 -47 4 -52 9 -6 5 -22 1 -38 -9 l-28 -17 31 -6 c35 -7 42 -37 9 -37 -19 0 -20 2 -8 18 13 15 12 16 -3 3 -10 -7 -16 -17 -13 -21 3 -5 -1 -11 -7 -13 -7 -3 2 -3 20 0 26 4 32 2 32 -11 0 -10 5 -14 11 -11 6 4 8 10 4 13 -3 3 5 12 17 20 13 7 15 11 6 8 -10 -3 -18 -1 -18 3 0 5 -3 16 -6 25 -3 9 -1 16 6 16 6 0 9 -4 6 -8 -2 -4 11 -6 30 -4 19 2 37 8 40 13 3 5 15 9 27 10 15 0 17 2 7 6 -8 3 -18 11 -22 17 -5 7 -8 4 -8 -6z" transform="translate(0.000000,58.000000) scale(0.100000,-0.100000)" stroke="none" fill="#564D94"/>

<path d="M332 448 c3 -7 19 -15 37 -19 52 -11 48 -19 -8 -19 -40 0 -53 -4 -58 -17 -4 -10 -11 -21 -17 -25 -6 -4 3 -8 19 -8 23 0 27 -3 15 -10 -12 -8 -10 -10 8 -10 14 0 20 -4 17 -10 -4 -7 3 -9 22 -5 27 6 27 6 9 -9 -11 -9 -15 -16 -10 -16 12 0 34 21 34 32 0 4 -11 8 -25 8 -26 0 -35 24 -12 33 6 3 -1 4 -17 4 -16 -1 -31 4 -33 11 -3 9 12 12 59 12 59 -1 62 -2 43 -17 -19 -15 -19 -15 -1 -9 11 4 23 1 28 -6 6 -8 7 -1 3 18 -5 27 -3 32 16 37 19 5 20 8 9 21 -13 17 -35 22 -26 7 3 -5 -4 -11 -15 -14 -28 -7 -90 3 -83 14 3 5 0 9 -6 9 -7 0 -10 -6 -8 -12z" transform="translate(0.000000,58.000000) scale(0.100000,-0.100000)" stroke="none" fill="#7363A8"/>

<path d="M564 422 c7 -12 -18 -39 -39 -43 -11 -3 -20 -12 -20 -23 0 -10 -13 -24 -30 -32 -17 -8 -22 -12 -12 -9 14 4 18 0 16 -18 -2 -12 0 -27 4 -34 5 -7 -5 -16 -29 -23 -19 -7 -33 -14 -31 -17 3 -2 22 3 42 11 49 21 55 20 55 -6 0 -25 -51 -74 -86 -81 -38 -7 -29 20 11 33 19 6 37 15 40 20 3 5 -10 3 -30 -6 -39 -16 -60 -11 -51 13 4 11 2 13 -9 10 -8 -4 -17 -2 -20 4 -4 5 4 13 17 18 19 8 17 9 -17 8 -33 -2 -40 1 -39 16 2 22 -12 22 -20 0 -6 -15 -2 -21 33 -42 21 -13 4 -31 -29 -31 -16 0 -32 -4 -35 -10 -7 -12 55 -2 70 11 14 14 35 11 35 -5 0 -8 -12 -17 -27 -19 -26 -4 -26 -4 5 -6 17 0 32 -5 32 -9 0 -12 -46 -32 -73 -33 -22 0 -22 0 1 -10 18 -7 30 -5 50 9 15 10 43 19 62 21 20 2 40 11 48 22 7 10 18 17 25 15 6 -1 9 -1 5 1 -4 3 -1 15 7 27 8 12 12 26 8 29 -3 4 3 7 15 7 11 0 23 4 26 9 3 5 -2 8 -12 7 -11 -1 -16 5 -15 19 1 11 0 14 -3 8 -3 -7 -15 -13 -26 -13 -15 0 -19 5 -15 20 3 11 0 20 -6 20 -7 0 -7 4 1 12 10 10 15 10 21 -1 7 -11 10 -11 17 0 4 7 3 14 -4 17 -21 7 -13 19 23 36 30 15 34 20 25 37 -6 10 -13 19 -16 19 -3 0 -3 -3 0 -8z" transform="translate(0.000000,58.000000) scale(0.100000,-0.100000)" stroke="none" fill="#564D94"/>

</svg>