<?xml version="1.0" standalone="no"?>
<!DOCTYPE svg PUBLIC "-//W3C//DTD SVG 20010904//EN"
 "http://www.w3.org/TR/2001/REC-SVG-20010904/DTD/svg10.dtd">
<svg version="1.0" xmlns="http://www.w3.org/2000/svg" 
width="141.000000pt" height="132.000000pt" viewBox="0 0 141.000000 132.000000"
preserveAspectRatio = "xMidYMid meet" >
<metadata>
Created by ZoeQU, 2022
</metadata>
<rect width="141.000000" height="132.000000" fill="#F7F6EA"/>
<path d="M790 296 c-14 -8 -28 -12 -32 -10 -5 3 -8 -2 -8 -10 0 -23 29 -46 59 -46 47 0 68 40 34 66 -22 16 -22 16 -53 0z" transform="translate(0.000000,132.000000) scale(0.100000,-0.100000)" stroke="none" fill="#804A72"/>

<path d="M895 464 c-31 -41 -22 -64 26 -64 37 0 68 42 49 66 -30 35 -47 35 -75 -2z" transform="translate(0.000000,132.000000) scale(0.100000,-0.100000)" stroke="none" fill="#804A72"/>

<path d="M292 608 c-18 -18 -14 -63 6 -81 29 -26 59 -22 66 11 4 15 9 34 12 43 3 12 -5 20 -27 28 -40 14 -42 14 -57 -1z" transform="translate(0.000000,132.000000) scale(0.100000,-0.100000)" stroke="none" fill="#804A72"/>

<path d="M1267 846 c-15 -7 -34 -21 -42 -33 -14 -19 -12 -21 43 -42 53 -19 58 -20 70 -4 18 24 15 50 -8 73 -23 23 -25 23 -63 6z" transform="translate(0.000000,132.000000) scale(0.100000,-0.100000)" stroke="none" fill="#804A72"/>

<path d="M444 1121 c-29 -13 -46 -62 -31 -91 24 -46 41 -47 91 -6 47 38 57 65 33 85 -20 16 -68 22 -93 12z" transform="translate(0.000000,132.000000) scale(0.100000,-0.100000)" stroke="none" fill="#804A72"/>

<path d="M846 1257 c-18 -13 -17 -15 2 -53 18 -35 19 -49 11 -139 -10 -117 -35 -255 -48 -268 -11 -11 -67 93 -79 151 -8 32 -5 46 14 83 20 40 21 46 7 62 -25 27 -79 22 -99 -9 -16 -23 -16 -28 -1 -60 10 -21 24 -34 36 -34 14 0 20 -10 25 -43 6 -40 50 -140 78 -178 9 -13 8 -26 -6 -63 -20 -53 -27 -53 -104 -9 -76 43 -113 81 -107 111 3 15 2 21 -1 15 -11 -25 -22 -12 -54 62 -18 42 -35 74 -36 72 -2 -2 5 -30 16 -62 39 -112 107 -193 208 -244 23 -12 42 -24 42 -27 0 -19 -99 -149 -158 -208 l-70 -68 -5 38 c-21 146 -17 194 18 194 8 0 15 6 15 14 0 7 3 27 6 44 5 27 2 32 -26 47 -29 15 -34 15 -56 0 -34 -22 -36 -69 -4 -96 14 -12 19 -33 22 -92 3 -79 0 -84 -32 -67 -16 8 -18 7 -14 -4 3 -9 16 -18 27 -22 41 -13 52 -66 17 -84 -11 -6 -19 -14 -16 -18 2 -4 -67 -52 -155 -106 -87 -55 -159 -101 -159 -103 0 -7 77 30 161 78 100 57 179 113 259 185 45 40 61 48 86 46 26 -2 33 -9 37 -31 3 -15 15 -38 27 -52 l21 -24 -12 24 c-6 13 -15 36 -19 52 -8 26 -6 28 23 32 26 3 24 4 -11 5 -28 1 -41 6 -37 13 4 6 -2 13 -13 16 -19 5 -19 7 11 48 l32 44 106 0 c59 1 120 4 137 7 24 5 31 2 36 -12 7 -20 117 -98 154 -109 12 -3 22 -12 22 -19 0 -7 16 -21 34 -31 34 -19 36 -19 55 0 20 17 29 65 13 65 -4 0 -22 -4 -39 -9 -26 -8 -45 -5 -95 15 -59 23 -128 76 -128 98 0 6 27 19 59 28 53 16 62 16 88 3 37 -20 45 -19 77 6 30 23 36 78 11 99 -24 20 -72 -5 -80 -41 -4 -19 -14 -31 -28 -34 -190 -43 -317 -57 -317 -37 0 5 15 26 33 46 30 35 34 37 59 26 54 -25 100 35 64 83 -26 34 -49 19 -111 -73 -48 -73 -64 -89 -80 -85 -11 3 -25 5 -32 5 -7 0 0 26 20 68 17 37 41 103 53 147 l21 80 79 9 c43 5 81 12 84 15 3 4 43 21 90 38 57 21 96 30 117 26 28 -4 33 -2 38 20 10 38 -14 80 -52 91 -42 12 -67 -7 -59 -44 6 -33 -17 -54 -96 -86 -69 -29 -95 -30 -101 -6 -4 13 -5 12 -6 -5 -1 -17 -9 -23 -42 -28 -22 -4 -42 -5 -44 -3 -3 2 0 31 5 64 6 32 10 79 10 103 0 65 20 121 47 134 30 14 29 41 -3 66 -31 24 -53 26 -78 8z" transform="translate(0.000000,132.000000) scale(0.100000,-0.100000)" stroke="none" fill="#804A72"/>

</svg>