<?xml version="1.0" standalone="no"?>
<!DOCTYPE svg PUBLIC "-//W3C//DTD SVG 20010904//EN"
 "http://www.w3.org/TR/2001/REC-SVG-20010904/DTD/svg10.dtd">
<svg version="1.0" xmlns="http://www.w3.org/2000/svg" 
width="172.000000pt" height="76.000000pt" viewBox="0 0 172.000000 76.000000"
preserveAspectRatio = "xMidYMid meet" >
<metadata>
Created by ZoeQU, 2022
</metadata>
<rect width="172.000000" height="76.000000" fill="#F7F6EA"/>
<path d="M955 651 c-3 -6 -26 -13 -51 -17 -26 -4 -41 -10 -34 -14 9 -5 8 -18 -3 -51 -8 -24 -18 -57 -21 -74 -3 -16 -9 -43 -12 -59 -6 -26 -5 -28 17 -21 35 11 49 25 49 49 0 28 46 164 61 182 6 8 9 14 6 14 -3 0 -8 -4 -12 -9z" transform="translate(0.000000,76.000000) scale(0.100000,-0.100000)" stroke="none" fill="#93C5A8"/>

<path d="M1220 423 c0 -11 53 -73 58 -68 3 3 31 -18 61 -47 l56 -53 -54 57 c-30 31 -59 56 -64 55 -5 -1 -12 4 -15 12 -3 9 0 11 9 6 8 -5 11 -4 6 1 -5 5 -14 9 -19 9 -6 0 -13 6 -16 14 -3 9 0 11 9 6 8 -5 10 -4 6 0 -8 10 -37 16 -37 8z" transform="translate(0.000000,76.000000) scale(0.100000,-0.100000)" stroke="none" fill="#3E6C54"/>

<path d="M655 231 c-6 -11 -5 -12 18 -15 6 -1 11 -7 10 -13 -2 -7 10 -21 26 -33 36 -25 91 -38 91 -21 0 8 -8 10 -21 6 -13 -5 -19 -3 -15 3 3 5 -1 13 -10 16 -9 4 -13 2 -8 -5 4 -7 1 -10 -7 -7 -8 3 -14 10 -14 16 0 5 -4 14 -9 19 -5 5 -6 2 -1 -6 5 -9 3 -12 -6 -9 -8 3 -13 10 -12 16 3 16 -34 45 -42 33z" transform="translate(0.000000,76.000000) scale(0.100000,-0.100000)" stroke="none" fill="#3E6C54"/>

<path d="M1163 439 l-22 -8 21 -41 c27 -49 103 -126 154 -156 23 -12 38 -28 38 -38 -1 -11 2 -14 10 -8 6 5 17 11 25 14 8 2 -10 26 -50 66 -35 34 -80 86 -99 116 -40 62 -46 67 -77 55z" transform="translate(0.000000,76.000000) scale(0.100000,-0.100000)" stroke="none" fill="#93C5A8"/>

<path d="M1267 345 c34 -49 130 -135 150 -135 12 0 7 6 -15 17 -18 9 -61 46 -94 82 -34 36 -52 53 -41 36z" transform="translate(0.000000,76.000000) scale(0.100000,-0.100000)" stroke="none" fill="#6C997F"/>

<path d="M530 265 c0 -9 -6 -12 -17 -8 -10 3 5 -17 33 -46 36 -35 57 -49 68 -45 11 4 16 2 14 -7 -2 -7 5 -15 15 -17 9 -2 17 1 17 7 0 6 -7 7 -17 4 -10 -4 -14 -2 -10 4 4 6 -5 19 -19 28 -15 9 -23 12 -20 6 13 -20 -7 -11 -35 15 -23 22 -26 31 -19 50 6 15 6 24 0 24 -6 0 -10 -7 -10 -15z" transform="translate(0.000000,76.000000) scale(0.100000,-0.100000)" stroke="none" fill="#3E6C54"/>

<path d="M1366 688 c-18 -29 -50 -102 -65 -147 -9 -29 -9 -32 4 -21 8 7 15 22 15 34 0 11 15 51 33 89 34 69 38 84 13 45z" transform="translate(0.000000,76.000000) scale(0.100000,-0.100000)" stroke="none" fill="#6C997F"/>

<path d="M703 433 c-7 -3 -13 -17 -13 -33 0 -16 -7 -36 -16 -44 -8 -9 -11 -16 -5 -16 5 0 13 5 16 10 3 6 17 10 31 10 14 0 22 -4 19 -10 -3 -5 -2 -10 4 -10 6 0 15 9 21 19 9 18 7 19 -25 14 -38 -6 -41 -2 -24 28 12 24 9 38 -8 32z" transform="translate(0.000000,76.000000) scale(0.100000,-0.100000)" stroke="none" fill="#3E6C54"/>

<path d="M1259 653 c-12 -27 -26 -56 -30 -65 -12 -23 -11 -25 6 -25 8 0 17 10 20 21 7 23 22 61 36 88 12 23 11 28 -1 28 -6 0 -20 -21 -31 -47z" transform="translate(0.000000,76.000000) scale(0.100000,-0.100000)" stroke="none" fill="#3E6C54"/>

<path d="M465 250 c-4 -6 -15 -8 -26 -5 -22 7 29 -48 71 -77 33 -23 58 -24 36 -2 -9 8 -22 12 -28 8 -7 -4 -10 -4 -6 1 4 4 -4 21 -17 37 -14 16 -23 34 -19 39 3 5 3 9 0 9 -3 0 -8 -5 -11 -10z" transform="translate(0.000000,76.000000) scale(0.100000,-0.100000)" stroke="none" fill="#3E6C54"/>

<path d="M1427 611 c-15 -32 -27 -62 -27 -68 0 -6 -6 -13 -12 -15 -7 -3 3 -5 22 -5 19 0 29 2 23 5 -7 2 -13 10 -13 17 0 15 41 97 53 106 5 3 2 9 -5 12 -10 3 -23 -14 -41 -52z" transform="translate(0.000000,76.000000) scale(0.100000,-0.100000)" stroke="none" fill="#3E6C54"/>

<path d="M853 373 c-29 -6 -29 -11 5 -60 32 -48 99 -106 154 -134 24 -12 36 -24 32 -31 -5 -8 -1 -9 10 -5 10 4 23 7 29 7 7 0 -3 8 -21 18 -51 27 -107 87 -142 153 -17 32 -34 58 -38 58 -4 -1 -17 -4 -29 -6z" transform="translate(0.000000,76.000000) scale(0.100000,-0.100000)" stroke="none" fill="#93C5A8"/>

<path d="M451 386 c-6 -25 -11 -58 -11 -73 0 -16 -6 -35 -12 -42 -11 -11 -9 -11 9 0 14 8 23 26 26 53 3 23 9 56 12 74 11 50 -11 39 -24 -12z" transform="translate(0.000000,76.000000) scale(0.100000,-0.100000)" stroke="none" fill="#3E6C54"/>

<path d="M1575 520 c-4 -6 -21 -8 -40 -4 -38 7 -90 -18 -61 -29 9 -4 20 1 25 11 9 16 13 16 59 0 57 -21 72 -22 72 -8 0 6 -11 10 -25 10 -26 0 -34 15 -12 23 9 4 9 6 0 6 -6 1 -15 -4 -18 -9z" transform="translate(0.000000,76.000000) scale(0.100000,-0.100000)" stroke="none" fill="#3E6C54"/>

<path d="M958 403 c-16 -2 -28 -6 -28 -9 0 -3 11 -26 24 -52 29 -55 82 -108 149 -146 45 -26 54 -46 20 -46 -9 0 -14 -3 -11 -6 4 -3 26 1 50 10 23 8 36 15 27 16 -22 0 -134 113 -149 150 -7 17 -16 30 -20 30 -4 0 -10 14 -13 30 -4 17 -10 29 -14 29 -5 -1 -20 -4 -35 -6z" transform="translate(0.000000,76.000000) scale(0.100000,-0.100000)" stroke="none" fill="#93C5A8"/>

<path d="M444 398 c-4 -12 -9 -45 -13 -72 -3 -29 -12 -51 -20 -54 -11 -4 -13 4 -8 34 l5 39 -16 -33 c-12 -25 -13 -35 -4 -44 22 -22 46 5 53 58 4 28 9 60 13 72 4 12 5 22 2 22 -2 0 -8 -10 -12 -22z" transform="translate(0.000000,76.000000) scale(0.100000,-0.100000)" stroke="none" fill="#6C997F"/>

<path d="M546 429 c-2 -8 -7 -31 -11 -52 -3 -21 -9 -45 -12 -53 -6 -17 28 -19 58 -4 14 8 19 21 18 53 l-1 42 -7 -35 c-9 -45 -18 -60 -37 -60 -16 0 -17 19 -4 75 8 37 6 64 -4 34z" transform="translate(0.000000,76.000000) scale(0.100000,-0.100000)" stroke="none" fill="#6C997F"/>

<path d="M1057 418 c-15 -12 -14 -17 13 -63 37 -62 109 -138 149 -154 20 -9 28 -18 24 -28 -5 -13 -2 -13 15 -4 11 6 33 12 49 12 22 1 23 3 7 6 -12 2 -30 13 -40 24 -9 10 -22 19 -28 20 -15 1 -98 100 -122 146 -27 55 -39 61 -67 41z" transform="translate(0.000000,76.000000) scale(0.100000,-0.100000)" stroke="none" fill="#93C5A8"/>

<path d="M748 337 c-16 -6 -28 -14 -28 -17 0 -3 16 -22 35 -43 48 -51 151 -117 183 -117 26 0 0 -18 -33 -23 l-30 -4 31 -2 c17 0 37 5 43 13 10 12 7 18 -17 30 -17 9 -48 37 -69 63 -21 27 -40 50 -43 53 -3 3 -11 17 -19 33 -16 30 -15 29 -53 14z" transform="translate(0.000000,76.000000) scale(0.100000,-0.100000)" stroke="none" fill="#93C5A8"/>

<path d="M1336 606 c-8 -23 -16 -50 -18 -61 -2 -11 -14 -25 -28 -32 -22 -12 -20 -12 25 -7 54 7 72 14 36 14 -18 0 -20 4 -15 28 4 15 10 32 13 37 4 6 12 22 18 36 9 20 8 26 -2 26 -8 0 -20 -19 -29 -41z" transform="translate(0.000000,76.000000) scale(0.100000,-0.100000)" stroke="none" fill="#3E6C54"/>

<path d="M1253 473 c-13 -3 -23 -12 -23 -21 0 -12 3 -13 8 -5 4 7 22 15 39 19 26 5 33 2 52 -25 12 -17 25 -30 29 -30 18 3 26 -2 15 -9 -9 -6 -7 -12 7 -25 19 -16 20 -16 20 2 0 18 -37 59 -48 53 -4 -2 -8 2 -11 9 -2 8 1 9 10 3 12 -7 12 -5 0 9 -7 9 -17 15 -21 12 -5 -3 -11 -1 -15 5 -6 10 -21 11 -62 3z" transform="translate(0.000000,76.000000) scale(0.100000,-0.100000)" stroke="none" fill="#3E6C54"/>

<path d="M1163 688 c-12 -16 -24 -48 -17 -48 2 0 9 11 14 25 14 38 31 31 19 -7 -34 -111 -48 -162 -44 -166 2 -2 9 16 15 39 18 68 41 133 51 145 5 6 6 14 2 17 -10 11 -30 8 -40 -5z" transform="translate(0.000000,76.000000) scale(0.100000,-0.100000)" stroke="none" fill="#6C997F"/>

<path d="M538 455 c-8 -16 -18 -55 -22 -85 -4 -30 -15 -64 -24 -74 -11 -13 -12 -16 -3 -11 8 4 28 12 45 16 26 6 27 7 7 8 -17 1 -22 5 -17 17 3 9 9 34 12 57 4 23 11 47 16 54 5 7 8 20 6 30 -3 14 -7 12 -20 -12z" transform="translate(0.000000,76.000000) scale(0.100000,-0.100000)" stroke="none" fill="#3E6C54"/>

<path d="M634 509 c-10 -17 -25 -77 -33 -134 l-7 -51 31 5 c18 3 23 6 13 9 -10 2 -18 12 -18 22 0 20 23 111 35 143 8 19 -9 24 -21 6z" transform="translate(0.000000,76.000000) scale(0.100000,-0.100000)" stroke="none" fill="#3E6C54"/>

<path d="M1408 492 c-15 -6 -10 -15 31 -57 61 -62 122 -97 138 -79 9 9 6 14 -14 19 -54 13 -151 94 -138 114 7 12 7 12 -17 3z" transform="translate(0.000000,76.000000) scale(0.100000,-0.100000)" stroke="none" fill="#3E6C54"/>

<path d="M1060 653 c0 -10 -7 -38 -16 -63 -9 -25 -19 -63 -23 -85 -5 -28 -14 -43 -31 -52 -14 -7 -18 -13 -10 -12 27 0 55 24 58 49 3 30 19 91 38 143 12 32 12 37 -1 37 -8 0 -15 -8 -15 -17z" transform="translate(0.000000,76.000000) scale(0.100000,-0.100000)" stroke="none" fill="#3E6C54"/>

<path d="M367 357 c-4 -10 -7 -33 -7 -50 0 -44 -9 -54 -53 -62 -52 -10 -41 -30 17 -30 39 0 50 -5 72 -30 l26 -30 -25 35 c-19 26 -32 35 -51 33 -30 -2 -35 12 -7 20 21 5 45 72 39 110 -3 20 -4 20 -11 4z" transform="translate(0.000000,76.000000) scale(0.100000,-0.100000)" stroke="none" fill="#6C997F"/>

<path d="M1496 495 c-4 -12 -10 -13 -31 -3 -20 9 -28 9 -37 0 -10 -10 -5 -20 21 -45 l34 -32 -28 38 c-22 29 -24 37 -11 37 9 0 24 -8 34 -17 29 -29 120 -65 106 -42 -3 5 -12 9 -20 9 -8 0 -24 6 -37 13 -12 6 -23 12 -25 13 -1 1 0 9 4 18 7 17 13 17 71 1 10 -3 5 1 -12 9 -39 19 -61 20 -69 1z" transform="translate(0.000000,76.000000) scale(0.100000,-0.100000)" stroke="none" fill="#6C997F"/>

<path d="M920 353 c0 -15 55 -96 86 -127 50 -50 114 -82 114 -57 0 5 -12 12 -26 15 -29 8 -154 130 -154 151 0 8 -4 17 -10 20 -5 3 -10 2 -10 -2z" transform="translate(0.000000,76.000000) scale(0.100000,-0.100000)" stroke="none" fill="#193F29"/>

<path d="M1157 658 c-31 -72 -37 -90 -37 -111 0 -12 -7 -35 -15 -51 -13 -25 -13 -28 1 -22 9 3 23 6 32 6 12 0 14 2 4 8 -9 7 -9 19 4 61 8 29 13 60 10 68 -3 8 -1 11 4 8 6 -3 10 -5 10 -3 0 2 4 18 9 36 12 42 -4 42 -22 0z" transform="translate(0.000000,76.000000) scale(0.100000,-0.100000)" stroke="none" fill="#3E6C54"/>

<path d="M380 353 c0 -50 -21 -105 -41 -110 -10 -3 -19 -9 -19 -14 0 -5 11 -7 24 -3 19 4 29 -1 51 -30 26 -34 55 -48 55 -26 0 6 -4 10 -9 10 -6 0 -18 13 -27 29 -10 17 -21 28 -25 25 -11 -6 -23 17 -13 25 5 3 10 15 11 26 2 11 6 37 9 58 4 24 2 37 -5 37 -6 0 -11 -12 -11 -27z" transform="translate(0.000000,76.000000) scale(0.100000,-0.100000)" stroke="none" fill="#3E6C54"/>

<path d="M927 544 c-3 -11 -10 -41 -17 -67 -10 -36 -20 -52 -41 -63 -38 -19 -38 -38 0 -29 23 5 31 2 35 -13 6 -18 36 -27 36 -11 0 15 -49 41 -65 35 -8 -3 -15 -3 -15 -1 0 7 44 28 75 36 25 6 26 7 6 8 -18 1 -21 5 -15 19 4 9 7 33 6 52 0 21 2 29 7 21 6 -10 10 -9 15 5 3 9 4 19 1 22 -3 3 -5 -1 -5 -9 0 -12 -2 -12 -9 0 -7 11 -10 10 -14 -5z" transform="translate(0.000000,76.000000) scale(0.100000,-0.100000)" stroke="none" fill="#3E6C54"/>

<path d="M640 300 c-12 -9 -6 -19 37 -58 29 -27 70 -57 93 -68 52 -25 51 -38 -5 -32 -38 5 -54 15 -111 69 -36 35 -70 64 -75 63 -25 -3 -29 -5 -29 -18 0 -17 60 -69 104 -90 30 -15 29 -17 -13 -28 -13 -4 139 -3 204 0 l30 2 -40 20 c-48 24 -91 61 -129 113 -30 39 -41 43 -66 27z" transform="translate(0.000000,76.000000) scale(0.100000,-0.100000)" stroke="none" fill="#93C5A8"/>

<path d="M836 611 c-4 -5 -25 -12 -48 -16 -24 -4 -59 -18 -78 -31 -19 -13 -41 -24 -48 -24 -8 0 -26 -8 -40 -19 -15 -10 -38 -22 -51 -26 -15 -5 -19 -10 -12 -14 9 -6 8 -22 -4 -66 -20 -78 -19 -97 2 -93 18 3 20 7 50 122 16 62 42 100 58 84 3 -3 -5 -43 -19 -89 -13 -46 -22 -87 -20 -91 5 -7 43 1 46 11 0 3 2 17 4 31 6 51 37 156 52 173 8 9 22 17 30 17 9 0 12 -6 9 -17 -19 -61 -39 -132 -43 -156 -5 -25 -3 -28 20 -24 14 1 28 6 31 9 6 6 34 119 37 148 1 8 9 30 19 48 10 17 17 32 14 32 -2 0 -6 -4 -9 -9z" transform="translate(0.000000,76.000000) scale(0.100000,-0.100000)" stroke="none" fill="#93C5A8"/>

<path d="M780 380 c-24 -19 -24 -20 -4 -20 14 0 29 -14 47 -47 39 -72 139 -158 175 -151 12 3 7 9 -19 22 -37 17 -123 102 -146 144 -16 26 -17 52 -3 52 6 0 10 5 10 10 0 16 -33 11 -60 -10z" transform="translate(0.000000,76.000000) scale(0.100000,-0.100000)" stroke="none" fill="#193F29"/>

<path d="M1449 461 c24 -33 68 -62 124 -82 24 -8 37 -19 37 -31 0 -44 -92 -2 -174 79 -29 29 -61 53 -70 53 -22 0 -20 -6 11 -50 33 -46 118 -109 156 -117 35 -7 33 -37 -3 -41 -33 -3 -144 80 -189 142 -28 40 -37 46 -62 44 -16 -2 -30 -8 -30 -13 0 -6 20 -38 46 -72 43 -58 119 -123 144 -123 14 0 14 -13 -1 -28 -18 -18 -9 -15 54 17 65 33 123 87 130 122 3 13 9 33 13 43 6 14 5 17 -3 12 -20 -12 -123 26 -154 57 -10 9 -25 17 -34 17 -13 0 -12 -5 5 -29z" transform="translate(0.000000,76.000000) scale(0.100000,-0.100000)" stroke="none" fill="#93C5A8"/>

<path d="M530 472 c0 -6 -12 -15 -27 -18 -16 -4 -42 -18 -59 -31 -17 -12 -36 -23 -42 -23 -6 0 -18 -7 -26 -16 -16 -16 -115 -84 -122 -84 -2 0 -23 -14 -46 -30 -40 -29 -108 -42 -108 -20 0 6 -4 10 -8 10 -5 0 -9 -36 -10 -80 0 -44 4 -80 9 -80 5 0 9 5 9 10 0 6 11 10 25 10 20 0 25 5 25 25 l0 25 78 -5 c42 -3 123 -7 179 -10 l102 -5 -42 44 c-23 25 -45 42 -49 40 -11 -7 10 -44 28 -51 22 -8 16 -23 -10 -23 -15 0 -32 11 -44 28 -17 23 -28 27 -68 27 -58 0 -69 20 -17 30 45 8 53 18 53 65 0 36 23 80 41 80 6 0 8 -23 4 -61 -5 -48 -4 -60 7 -57 7 3 16 29 20 63 8 62 32 109 51 102 7 -3 10 -11 8 -18 -11 -36 -28 -124 -25 -128 12 -14 33 28 39 77 3 31 13 68 22 80 8 13 12 26 9 30 -3 3 -6 0 -6 -6z" transform="translate(0.000000,76.000000) scale(0.100000,-0.100000)" stroke="none" fill="#93C5A8"/>

<path d="M685 351 c-3 -5 -20 -12 -38 -16 -17 -3 -48 -12 -67 -19 -19 -8 -55 -19 -80 -26 -25 -7 -53 -16 -62 -21 -10 -5 -29 -9 -44 -9 -16 0 -24 -5 -21 -12 2 -7 11 -11 18 -9 8 2 25 4 39 5 14 2 33 6 43 11 9 4 26 5 37 2 12 -3 20 0 20 7 0 16 56 36 67 25 6 -6 17 -1 28 11 27 30 62 26 80 -9 22 -44 144 -136 168 -128 7 2 -4 11 -24 21 -43 20 -125 98 -134 127 -5 14 -1 25 12 34 17 13 16 14 -9 15 -15 0 -29 -4 -33 -9z" transform="translate(0.000000,76.000000) scale(0.100000,-0.100000)" stroke="none" fill="#193F29"/>

<path d="M1225 709 c-67 -8 -85 -11 -102 -22 -6 -4 -17 -5 -25 -2 -8 3 -30 -1 -50 -10 -20 -8 -45 -12 -55 -9 -17 5 -17 5 0 -6 12 -8 15 -15 8 -23 -13 -16 -70 -185 -64 -191 3 -2 18 0 34 6 19 7 31 19 35 36 26 122 68 212 88 191 3 -2 -9 -49 -26 -102 -16 -54 -28 -100 -25 -103 2 -2 16 0 29 5 19 7 27 19 32 48 9 48 45 144 62 162 7 7 19 11 28 8 13 -5 13 -9 0 -36 -19 -39 -55 -163 -49 -169 3 -3 16 0 29 6 18 8 29 28 45 79 22 72 54 133 70 133 16 0 23 -20 12 -34 -15 -17 -51 -124 -51 -148 0 -32 42 -19 53 17 18 59 67 156 83 162 29 11 38 -13 15 -44 -12 -15 -30 -52 -41 -80 -20 -52 -20 -53 -1 -53 14 0 30 21 58 78 23 46 45 78 56 80 30 6 20 -35 -25 -97 -33 -45 -15 -72 20 -30 9 12 30 37 45 55 l29 34 -29 25 c-15 14 -37 24 -48 23 -11 -1 -26 2 -34 6 -18 11 -127 14 -206 5z" transform="translate(0.000000,76.000000) scale(0.100000,-0.100000)" stroke="none" fill="#93C5A8"/>

<path d="M1555 564 c-18 -15 -38 -23 -49 -20 -11 3 -26 0 -32 -5 -7 -6 -28 -12 -46 -14 -18 -2 -62 -9 -97 -15 -36 -6 -74 -10 -85 -8 -12 1 -31 -3 -43 -10 -12 -7 -34 -12 -50 -12 -15 -1 -55 -8 -88 -16 -33 -9 -83 -21 -111 -28 -44 -12 -94 -32 -94 -39 0 -7 60 2 85 12 34 14 75 7 75 -14 0 -39 100 -171 156 -206 54 -33 49 -17 -10 34 -57 49 -136 159 -136 189 0 20 38 33 67 24 10 -3 29 -28 41 -56 28 -57 152 -180 183 -180 11 0 17 5 14 10 -3 6 -12 10 -18 10 -19 0 -114 87 -147 134 -42 62 -48 92 -18 100 45 12 56 5 101 -63 59 -88 158 -183 175 -166 4 3 -2 11 -13 18 -58 32 -185 180 -185 214 0 16 69 26 84 13 10 -7 17 -6 25 4 6 7 39 17 74 20 34 4 67 12 74 18 7 6 26 8 42 5 33 -7 81 12 81 31 0 6 -7 12 -16 12 -10 0 -14 6 -10 15 7 19 7 19 -29 -11z" transform="translate(0.000000,76.000000) scale(0.100000,-0.100000)" stroke="none" fill="#193F29"/>

</svg>