<?xml version="1.0" standalone="no"?>
<!DOCTYPE svg PUBLIC "-//W3C//DTD SVG 20010904//EN"
 "http://www.w3.org/TR/2001/REC-SVG-20010904/DTD/svg10.dtd">
<svg version="1.0" xmlns="http://www.w3.org/2000/svg" 
width="107.000000pt" height="107.000000pt" viewBox="0 0 107.000000 107.000000"
preserveAspectRatio = "xMidYMid meet" >
<metadata>
Created by ZoeQU, 2022
</metadata>
<rect width="107.000000" height="107.000000" fill="#30998F"/>
<path d="M270 750 c-33 -33 -19 -70 25 -70 44 0 63 60 26 80 -26 13 -28 13 -51 -10z" transform="translate(0.000000,107.000000) scale(0.100000,-0.100000)" stroke="none" fill="#E2E3E1"/>

<path d="M500 774 c-68 -18 -140 -61 -159 -95 -12 -22 -12 -31 -2 -58 8 -17 17 -31 21 -31 4 0 30 15 56 33 65 44 134 67 206 67 54 0 58 1 58 24 0 62 -79 88 -180 60z" transform="translate(0.000000,107.000000) scale(0.100000,-0.100000)" stroke="none" fill="#E2E3E1"/>

<path d="M420 944 c-25 -7 -59 -13 -76 -13 -17 -1 -37 -7 -43 -14 -29 -35 -25 -140 6 -151 9 -4 24 1 33 9 16 15 17 13 7 -24 -6 -22 -8 -43 -5 -46 3 -3 27 8 54 24 59 36 163 65 204 56 23 -5 30 -3 30 8 0 24 -89 136 -121 152 -32 17 -28 17 -89 -1z" transform="translate(0.000000,107.000000) scale(0.100000,-0.100000)" stroke="none" fill="#A16847"/>

<path d="M532 674 c-59 -15 -145 -70 -210 -132 -44 -44 -45 -44 -38 -98 6 -53 6 -54 -29 -76 -43 -28 -62 -70 -49 -106 l9 -27 285 -7 c187 -5 297 -4 323 3 47 13 79 58 75 109 -3 29 -9 38 -37 52 -41 20 -55 41 -46 68 12 39 -4 76 -43 96 -25 14 -38 28 -40 44 -6 53 -13 69 -33 75 -39 13 -115 12 -167 -1z m-94 -181 c-5 -26 -38 -29 -38 -4 0 15 6 21 21 21 14 0 19 -5 17 -17z m220 0 c5 -17 -26 -29 -40 -15 -6 6 -7 15 -3 22 9 14 37 9 43 -7z m-188 -22 c0 -6 -4 -13 -10 -16 -5 -3 -10 1 -10 9 0 9 5 16 10 16 6 0 10 -4 10 -9z m218 -2 c-2 -6 -8 -10 -13 -10 -5 0 -11 4 -13 10 -2 6 4 11 13 11 9 0 15 -5 13 -11z m-248 -19 c0 -5 -4 -10 -10 -10 -5 0 -10 5 -10 10 0 6 5 10 10 10 6 0 10 -4 10 -10z m220 0 c0 -5 -4 -10 -10 -10 -5 0 -10 5 -10 10 0 6 5 10 10 10 6 0 10 -4 10 -10z m60 -56 c0 -8 -10 -14 -25 -14 -26 0 -35 25 -12 33 18 6 37 -3 37 -19z m-312 -1 c2 -8 -6 -13 -22 -13 -26 0 -40 12 -29 24 11 11 46 2 51 -11z" transform="translate(0.000000,107.000000) scale(0.100000,-0.100000)" stroke="none" fill="#A16847"/>

<path d="M420 1004 c-133 -35 -244 -119 -306 -230 -110 -198 -79 -421 81 -581 251 -251 685 -149 793 187 30 92 35 145 23 225 -43 278 -326 469 -591 399z m88 -58 c48 -25 172 -194 172 -234 0 -12 8 -23 19 -27 19 -6 38 -40 32 -59 -5 -19 10 -56 23 -56 7 0 25 -9 39 -20 22 -17 27 -30 29 -78 3 -54 5 -58 36 -73 19 -8 38 -22 43 -30 10 -16 4 -62 -14 -97 -24 -49 -44 -52 -361 -52 -330 1 -326 0 -326 70 0 30 6 43 31 64 17 14 34 26 39 26 15 0 19 29 8 60 -14 40 5 86 43 106 31 16 36 38 17 79 -8 19 -8 31 0 50 11 24 0 36 -13 15 -9 -15 -51 -12 -65 5 -10 12 -10 21 -2 40 7 14 16 25 22 25 6 0 7 22 3 60 -7 75 11 110 60 111 17 0 52 6 77 13 61 18 57 18 88 2z" transform="translate(0.000000,107.000000) scale(0.100000,-0.100000)" stroke="none" fill="#71C1AD"/>

</svg>