<?xml version="1.0" standalone="no"?>
<!DOCTYPE svg PUBLIC "-//W3C//DTD SVG 20010904//EN"
 "http://www.w3.org/TR/2001/REC-SVG-20010904/DTD/svg10.dtd">
<svg version="1.0" xmlns="http://www.w3.org/2000/svg" 
width="117.000000pt" height="126.000000pt" viewBox="0 0 117.000000 126.000000"
preserveAspectRatio = "xMidYMid meet" >
<metadata>
Created by ZoeQU, 2022
</metadata>
<rect width="117.000000" height="126.000000" fill="#030202"/>
<path d="M504 1183 c-17 -8 -39 -28 -48 -44 -18 -31 -25 -116 -13 -162 l7 -27 -52 29 c-64 36 -133 47 -182 31 -47 -15 -86 -63 -86 -104 0 -48 51 -119 122 -172 35 -25 62 -49 60 -53 -1 -3 -26 -14 -55 -24 -83 -28 -116 -46 -158 -88 -33 -33 -39 -45 -39 -83 0 -36 6 -50 36 -82 l35 -39 87 1 c54 1 87 5 90 13 2 6 13 11 23 11 11 0 34 7 50 16 17 8 32 14 34 12 2 -2 -3 -28 -11 -58 -16 -62 -19 -196 -5 -233 19 -49 50 -67 115 -67 52 0 66 4 89 25 40 38 58 89 64 182 l6 81 53 -57 c57 -62 139 -111 184 -111 62 0 123 43 136 96 15 59 -64 157 -178 223 -32 18 -58 36 -58 39 0 4 28 18 63 31 78 30 159 90 194 143 37 55 43 148 14 195 -33 53 -62 66 -112 53 -56 -15 -94 -42 -190 -135 -79 -76 -80 -77 -75 -44 39 235 20 353 -65 403 -34 20 -94 20 -135 -1z" transform="translate(0.000000,126.000000) scale(0.100000,-0.100000)" stroke="none" fill="#D3E4E6"/>

</svg>