<?xml version="1.0" standalone="no"?>
<!DOCTYPE svg PUBLIC "-//W3C//DTD SVG 20010904//EN"
 "http://www.w3.org/TR/2001/REC-SVG-20010904/DTD/svg10.dtd">
<svg version="1.0" xmlns="http://www.w3.org/2000/svg" 
width="313.000000pt" height="360.000000pt" viewBox="0 0 313.000000 360.000000"
preserveAspectRatio = "xMidYMid meet" >
<metadata>
Created by ZoeQU, 2022
</metadata>
<rect width="313.000000" height="360.000000" fill="#030202"/>
<path d="M1782 1373 c-10 -18 -21 -76 -27 -137 -4 -35 -13 -80 -44 -216 -30 -133 -51 -269 -58 -378 -5 -77 -3 -95 11 -110 17 -19 34 -21 74 -8 38 13 79 111 93 221 4 39 10 88 13 110 6 41 7 343 2 382 -1 13 -5 26 -9 29 -4 4 -7 23 -7 43 0 73 -26 106 -48 64z" transform="translate(0.000000,360.000000) scale(0.100000,-0.100000)" stroke="none" fill="#F8EBDE"/>

<path d="M1638 1323 c-124 -126 -223 -253 -287 -366 -72 -129 -82 -277 -19 -277 29 0 81 34 110 73 24 31 108 166 108 172 0 5 65 145 115 250 24 50 50 108 59 130 10 22 21 48 26 57 7 13 5 20 -9 28 -11 5 -21 10 -23 10 -2 0 -38 -35 -80 -77z" transform="translate(0.000000,360.000000) scale(0.100000,-0.100000)" stroke="none" fill="#F8EBDE"/>

<path d="M1847 1402 c-8 -11 4 -62 14 -62 5 0 9 -12 9 -27 0 -16 11 -62 24 -103 l25 -75 1 50 c1 45 10 22 80 -202 86 -276 91 -288 128 -318 90 -72 162 -57 162 36 0 23 -17 72 -49 135 -26 55 -65 134 -85 176 -20 43 -53 101 -74 130 -20 29 -51 75 -68 102 -36 54 -139 166 -154 166 -5 0 -11 -3 -13 -8z" transform="translate(0.000000,360.000000) scale(0.100000,-0.100000)" stroke="none" fill="#F8EBDE"/>

<path d="M880 1723 c-46 -16 -52 -71 -12 -108 116 -112 506 -185 718 -136 55 13 60 16 56 38 -3 18 -16 26 -55 38 -28 8 -57 15 -64 15 -14 0 -99 30 -228 80 -164 63 -350 96 -415 73z" transform="translate(0.000000,360.000000) scale(0.100000,-0.100000)" stroke="none" fill="#F8EBDE"/>

<path d="M1600 1450 c-30 -10 -93 -23 -140 -29 -140 -17 -204 -36 -317 -92 -129 -64 -210 -134 -219 -190 -12 -73 53 -89 173 -43 38 14 85 32 106 40 153 58 154 58 247 113 65 39 107 67 158 106 32 24 72 65 72 73 0 4 -6 15 -12 24 -12 15 -18 14 -68 -2z" transform="translate(0.000000,360.000000) scale(0.100000,-0.100000)" stroke="none" fill="#F8EBDE"/>

<path d="M1901 1448 c-12 -19 -10 -24 19 -46 17 -13 62 -54 99 -91 89 -87 286 -251 336 -280 44 -26 163 -42 212 -29 82 21 82 91 0 172 -53 52 -57 54 -443 222 -17 8 -55 19 -85 25 -30 6 -70 20 -90 29 -34 18 -35 18 -48 -2z" transform="translate(0.000000,360.000000) scale(0.100000,-0.100000)" stroke="none" fill="#F8EBDE"/>

<path d="M2355 2292 c-16 -10 -65 -54 -108 -98 -59 -60 -99 -114 -164 -224 -47 -80 -113 -185 -145 -234 l-59 -90 18 -33 c10 -18 19 -33 22 -33 17 0 199 157 293 252 78 81 179 218 215 295 19 39 26 72 27 116 l1 62 -35 3 c-21 1 -47 -5 -65 -16z" transform="translate(0.000000,360.000000) scale(0.100000,-0.100000)" stroke="none" fill="#F8EBDE"/>

<path d="M1971 2507 c-23 -11 -82 -114 -89 -153 -2 -11 -14 -64 -27 -119 -22 -94 -27 -147 -41 -441 -6 -121 -6 -121 18 -127 30 -9 43 8 117 158 103 208 127 308 119 495 -4 87 -10 127 -24 156 -21 43 -37 50 -73 31z" transform="translate(0.000000,360.000000) scale(0.100000,-0.100000)" stroke="none" fill="#F8EBDE"/>

<path d="M1534 2452 c-6 -4 -19 -22 -29 -41 -14 -27 -16 -51 -12 -130 9 -166 36 -250 157 -495 l56 -111 39 0 40 0 -2 125 c-5 340 -53 545 -148 628 -35 31 -76 41 -101 24z" transform="translate(0.000000,360.000000) scale(0.100000,-0.100000)" stroke="none" fill="#F8EBDE"/>

<path d="M2477 1775 c-26 -7 -63 -20 -81 -29 -19 -9 -36 -16 -39 -16 -3 0 -47 -20 -98 -44 -180 -84 -254 -115 -291 -121 -35 -7 -38 -10 -38 -42 l0 -36 68 7 c37 3 150 8 252 12 253 8 362 31 459 96 55 38 61 45 61 81 0 35 -25 74 -61 93 -35 18 -165 17 -232 -1z" transform="translate(0.000000,360.000000) scale(0.100000,-0.100000)" stroke="none" fill="#F8EBDE"/>

<path d="M1073 2188 c-34 -37 -42 -61 -39 -115 2 -33 12 -67 29 -95 39 -67 173 -188 252 -228 38 -19 85 -46 105 -59 47 -32 200 -111 216 -111 14 0 44 38 44 56 0 32 -234 349 -302 408 -186 165 -256 198 -305 144z" transform="translate(0.000000,360.000000) scale(0.100000,-0.100000)" stroke="none" fill="#F8EBDE"/>

<path d="M1368 3434 c-2 -1 -23 -5 -48 -9 -24 -4 -52 -11 -62 -16 -9 -5 -24 -9 -33 -9 -9 0 -35 -8 -58 -18 -23 -10 -61 -27 -84 -37 -24 -10 -43 -22 -43 -27 0 -5 -3 -7 -7 -5 -5 3 -26 -6 -48 -19 -22 -13 -47 -27 -55 -31 -22 -10 -124 -75 -130 -83 -3 -3 -27 -22 -55 -40 -86 -58 -215 -161 -215 -171 0 -5 -5 -9 -12 -9 -15 0 -47 -30 -280 -262 -103 -103 -188 -194 -188 -203 0 -9 -4 -13 -10 -10 -5 3 -10 0 -10 -8 0 -8 -7 -17 -15 -21 -13 -5 -15 -90 -15 -688 0 -652 1 -683 19 -722 11 -23 27 -57 35 -76 9 -19 29 -57 44 -85 16 -27 41 -72 56 -100 16 -27 36 -59 46 -70 9 -11 21 -27 26 -36 26 -48 185 -231 251 -288 119 -106 265 -181 418 -217 88 -20 246 -14 320 13 199 73 350 233 419 443 2 8 5 -8 5 -36 1 -37 6 -56 19 -65 15 -13 16 -12 3 4 -24 31 -1 261 50 487 31 136 40 181 44 216 11 107 26 154 49 154 16 0 25 -30 27 -85 l1 -40 10 34 c7 26 12 31 19 20 7 -12 9 -11 9 3 0 9 -4 18 -9 20 -14 5 -18 60 -4 65 6 2 21 -6 34 -19 16 -17 20 -19 16 -5 -4 10 -2 17 5 17 7 0 4 6 -6 13 -16 12 -17 16 -5 35 9 14 18 18 29 12 10 -5 23 -2 39 11 l23 19 -31 0 c-29 0 -31 3 -31 34 0 31 3 34 38 41 37 6 111 37 289 120 50 24 102 46 115 50 12 4 28 11 33 15 22 18 137 40 205 40 79 0 104 -9 138 -48 12 -15 20 -20 17 -12 -4 11 7 18 47 28 59 14 100 47 130 106 17 32 20 53 16 110 -3 39 -10 80 -16 91 -5 11 -20 42 -32 70 -52 118 -193 277 -332 373 -164 114 -280 222 -400 373 -37 46 -102 129 -146 184 -174 219 -301 315 -469 354 -45 11 -189 22 -195 15z m676 -958 c14 -29 20 -69 24 -156 8 -187 -16 -287 -119 -495 -74 -150 -87 -167 -117 -158 -24 6 -24 6 -18 127 14 294 19 347 41 441 13 55 25 108 27 119 7 39 66 142 89 153 36 19 52 12 73 -31z m-409 -48 c95 -83 143 -288 148 -628 l2 -125 -40 0 -39 0 -56 111 c-121 245 -148 329 -157 495 -4 79 -2 103 12 130 10 19 23 37 29 41 25 17 66 7 101 -24z m819 -185 c-1 -44 -8 -77 -27 -116 -36 -77 -137 -214 -215 -295 -94 -95 -276 -252 -293 -252 -3 0 -12 15 -22 33 l-18 33 59 90 c32 49 98 154 145 234 65 110 105 164 164 224 95 96 127 117 173 114 l35 -3 -1 -62z m-1260 -54 c35 -19 95 -65 184 -145 68 -59 302 -376 302 -408 0 -18 -30 -56 -44 -56 -16 0 -169 79 -216 111 -20 13 -67 40 -105 59 -79 40 -213 161 -252 228 -28 48 -39 132 -21 167 35 67 83 81 152 44z m-74 -484 c52 -13 131 -38 175 -55 129 -50 214 -80 228 -80 7 0 36 -7 64 -15 39 -12 52 -20 55 -38 4 -22 -1 -25 -56 -38 -212 -49 -602 24 -718 136 -40 37 -34 92 12 108 38 14 151 5 240 -18z m560 -277 c0 -29 -220 -185 -330 -234 -23 -11 -55 -23 -147 -58 -21 -8 -68 -26 -106 -40 -120 -46 -185 -30 -173 43 9 56 90 126 219 190 113 56 177 75 317 92 47 6 110 19 140 29 50 16 56 17 68 2 6 -9 12 -20 12 -24z m61 -38 c14 -8 16 -15 9 -28 -5 -9 -16 -35 -26 -57 -9 -22 -35 -80 -59 -130 -50 -105 -115 -245 -115 -250 0 -6 -84 -141 -108 -172 -48 -64 -121 -92 -142 -54 -46 86 41 284 215 491 46 55 196 210 203 210 2 0 12 -5 23 -10z" transform="translate(0.000000,360.000000) scale(0.100000,-0.100000)" stroke="none" fill="#A4B2B0"/>

</svg>