<?xml version="1.0" standalone="no"?>
<!DOCTYPE svg PUBLIC "-//W3C//DTD SVG 20010904//EN"
 "http://www.w3.org/TR/2001/REC-SVG-20010904/DTD/svg10.dtd">
<svg version="1.0" xmlns="http://www.w3.org/2000/svg" 
width="142.000000pt" height="52.000000pt" viewBox="0 0 142.000000 52.000000"
preserveAspectRatio = "xMidYMid meet" >
<metadata>
Created by ZoeQU, 2022
</metadata>
<rect width="142.000000" height="52.000000" fill="#FBFAE4"/>
<path d="M1235 409 c-144 -102 -268 -179 -286 -179 -17 0 -129 -52 -129 -60 0 -10 -72 -30 -109 -30 -18 0 -46 -8 -64 -17 -28 -16 -58 -18 -227 -16 -150 2 -204 6 -232 18 -38 15 -99 20 -111 9 -12 -12 45 -47 87 -55 70 -12 161 -40 168 -52 10 -16 146 -18 218 -2 36 8 103 21 150 30 117 22 204 52 232 79 13 13 61 42 107 66 46 23 90 47 97 53 7 7 38 30 68 51 68 48 179 177 164 191 -2 2 -62 -37 -133 -86z" transform="translate(0.000000,52.000000) scale(0.100000,-0.100000)" stroke="none" fill="#92C154"/>

</svg>