<?xml version="1.0" standalone="no"?>
<!DOCTYPE svg PUBLIC "-//W3C//DTD SVG 20010904//EN"
 "http://www.w3.org/TR/2001/REC-SVG-20010904/DTD/svg10.dtd">
<svg version="1.0" xmlns="http://www.w3.org/2000/svg" 
width="129.000000pt" height="131.000000pt" viewBox="0 0 129.000000 131.000000"
preserveAspectRatio = "xMidYMid meet" >
<metadata>
Created by ZoeQU, 2022
</metadata>
<rect width="129.000000" height="131.000000" fill="#FBFAE4"/>
<path d="M776 498 c-13 -50 7 -94 39 -82 24 9 25 33 4 69 -24 41 -34 44 -43 13z" transform="translate(0.000000,131.000000) scale(0.100000,-0.100000)" stroke="none" fill="#420F13"/>

<path d="M476 724 c-19 -48 7 -109 43 -102 17 3 29 58 12 58 -5 0 -12 14 -16 30 -7 32 -29 40 -39 14z" transform="translate(0.000000,131.000000) scale(0.100000,-0.100000)" stroke="none" fill="#420F13"/>

<path d="M346 406 c-8 -40 0 -63 25 -77 40 -21 51 15 22 76 -21 44 -39 45 -47 1z" transform="translate(0.000000,131.000000) scale(0.100000,-0.100000)" stroke="none" fill="#420F13"/>

<path d="M616 548 c-10 -40 -6 -64 14 -83 23 -21 50 -13 50 14 0 22 -38 91 -50 91 -4 0 -10 -10 -14 -22z" transform="translate(0.000000,131.000000) scale(0.100000,-0.100000)" stroke="none" fill="#420F13"/>

<path d="M526 344 c-14 -36 -6 -74 19 -90 45 -29 58 2 28 67 -19 41 -37 49 -47 23z" transform="translate(0.000000,131.000000) scale(0.100000,-0.100000)" stroke="none" fill="#420F13"/>

<path d="M356 1205 c-13 -14 -30 -49 -38 -77 -37 -127 -78 -286 -78 -302 0 -10 11 -31 25 -48 24 -29 29 -46 26 -99 -2 -18 5 -28 23 -37 62 -28 48 -87 -21 -87 -35 0 -38 -3 -41 -30 -5 -39 -17 -45 -74 -40 -43 3 -48 1 -53 -18 -2 -12 -11 -53 -18 -92 -8 -38 -23 -107 -33 -153 -22 -97 -26 -90 81 -123 158 -48 319 -60 460 -34 215 39 358 118 518 285 l97 100 -78 74 c-42 41 -112 107 -154 147 -43 41 -102 108 -133 149 -61 84 -184 211 -230 240 -16 10 -53 45 -82 78 -80 91 -152 116 -197 67z m159 -495 c4 -16 11 -30 16 -30 17 0 5 -55 -12 -58 -36 -7 -62 54 -43 102 10 26 32 18 39 -14z m144 -176 c25 -42 27 -72 6 -81 -21 -7 -55 25 -55 51 0 31 11 66 20 66 4 0 17 -16 29 -36z m160 -49 c21 -36 20 -60 -4 -69 -32 -12 -52 32 -39 82 9 31 19 28 43 -13z m-426 -80 c29 -61 18 -97 -22 -76 -25 14 -33 37 -25 77 8 44 26 43 47 -1z m180 -84 c30 -65 17 -96 -28 -67 -17 11 -25 26 -25 45 0 69 26 80 53 22z" transform="translate(0.000000,131.000000) scale(0.100000,-0.100000)" stroke="none" fill="#EB6574"/>

</svg>