<?xml version="1.0" standalone="no"?>
<!DOCTYPE svg PUBLIC "-//W3C//DTD SVG 20010904//EN"
 "http://www.w3.org/TR/2001/REC-SVG-20010904/DTD/svg10.dtd">
<svg version="1.0" xmlns="http://www.w3.org/2000/svg" 
width="112.000000pt" height="84.000000pt" viewBox="0 0 112.000000 84.000000"
preserveAspectRatio = "xMidYMid meet" >
<metadata>
Created by ZoeQU, 2022
</metadata>
<rect width="112.000000" height="84.000000" fill="#F6F3F1"/>
<path d="M695 747 c-16 -23 -41 -64 -55 -92 -13 -27 -31 -57 -39 -65 -8 -8 -23 -35 -33 -60 -29 -67 -62 -134 -69 -140 -4 -3 11 -43 34 -90 22 -46 42 -79 45 -72 2 7 -6 32 -18 57 -41 85 -39 107 30 239 34 66 79 145 101 178 33 49 45 58 69 58 26 0 37 -11 90 -90 33 -49 60 -91 60 -94 0 -3 13 -25 30 -49 40 -60 120 -233 120 -260 0 -12 -4 -27 -8 -34 -12 -18 -77 -43 -114 -43 -18 0 -60 -9 -93 -19 -33 -10 -93 -21 -133 -25 -73 -6 -73 -6 -103 26 l-31 33 7 -35 c4 -19 9 -37 12 -40 11 -12 222 0 256 15 20 8 57 15 82 15 53 0 130 31 145 59 16 30 12 70 -11 120 -52 115 -132 262 -166 306 -4 6 -23 33 -42 60 -44 65 -69 85 -106 84 -24 0 -36 -8 -60 -42z" transform="translate(0.000000,84.000000) scale(0.100000,-0.100000)" stroke="none" fill="#EBE592"/>

<path d="M253 597 c-25 -38 -79 -166 -140 -337 -58 -161 -59 -167 -36 -173 155 -44 227 -45 394 -6 110 25 127 42 110 102 -7 23 -33 84 -57 135 -24 51 -44 94 -44 97 0 3 -16 30 -36 61 -43 66 -129 154 -153 154 -9 0 -26 -15 -38 -33z" transform="translate(0.000000,84.000000) scale(0.100000,-0.100000)" stroke="none" fill="#3BADB4"/>

<path d="M691 702 c-22 -33 -67 -112 -101 -178 -69 -132 -72 -158 -30 -239 11 -22 19 -48 16 -58 -3 -11 9 -31 30 -53 l35 -34 72 6 c40 4 99 15 132 25 33 10 75 19 93 19 37 0 102 25 114 43 4 7 8 22 8 34 0 27 -80 200 -120 260 -17 24 -30 46 -30 49 0 3 -27 45 -60 94 -53 79 -64 90 -90 90 -24 0 -36 -9 -69 -58z" transform="translate(0.000000,84.000000) scale(0.100000,-0.100000)" stroke="none" fill="#ECD028"/>

</svg>