<?xml version="1.0" standalone="no"?>
<!DOCTYPE svg PUBLIC "-//W3C//DTD SVG 20010904//EN"
 "http://www.w3.org/TR/2001/REC-SVG-20010904/DTD/svg10.dtd">
<svg version="1.0" xmlns="http://www.w3.org/2000/svg" 
width="134.000000pt" height="134.000000pt" viewBox="0 0 134.000000 134.000000"
preserveAspectRatio = "xMidYMid meet" >
<metadata>
Created by ZoeQU, 2022
</metadata>
<rect width="134.000000" height="134.000000" fill="#FBF5E8"/>
<path d="M630 302 c-31 -67 -60 -112 -96 -149 -29 -29 -44 -49 -35 -44 20 12 71 66 100 108 22 33 85 173 79 178 -2 2 -23 -40 -48 -93z" transform="translate(0.000000,134.000000) scale(0.100000,-0.100000)" stroke="none" fill="#859994"/>

<path d="M922 668 c-91 -38 -167 -106 -210 -186 -46 -85 -39 -91 7 -7 60 107 80 123 261 207 60 28 19 18 -58 -14z" transform="translate(0.000000,134.000000) scale(0.100000,-0.100000)" stroke="none" fill="#859994"/>

<path d="M1010 1260 c0 -5 -9 -10 -20 -10 -12 0 -32 -8 -46 -17 -40 -26 -86 -51 -126 -70 -21 -10 -38 -21 -38 -25 0 -11 28 -10 35 2 3 5 23 17 43 27 20 9 39 19 42 22 10 12 88 51 106 54 10 1 25 6 32 11 7 4 19 3 27 -4 9 -7 15 -8 20 0 8 13 45 13 45 0 0 -5 9 -10 19 -10 11 0 21 -5 23 -11 2 -7 10 -10 18 -7 9 3 1 12 -22 26 -26 16 -51 22 -97 22 -34 0 -61 -4 -61 -10z" transform="translate(0.000000,134.000000) scale(0.100000,-0.100000)" stroke="none" fill="#0C2D29"/>

<path d="M111 649 c0 -14 -4 -29 -8 -33 -32 -31 -45 -271 -19 -344 22 -61 63 -121 99 -142 35 -22 57 -26 57 -10 0 6 -8 10 -18 10 -20 0 -102 76 -102 96 0 7 -9 29 -20 49 -16 29 -20 54 -20 140 0 58 4 107 10 110 6 3 10 21 10 39 0 17 5 37 11 43 6 6 9 23 6 39 -4 28 -4 28 -6 3z" transform="translate(0.000000,134.000000) scale(0.100000,-0.100000)" stroke="none" fill="#0C2D29"/>

<path d="M1200 1196 c0 -9 5 -16 10 -16 6 0 10 -9 10 -19 0 -11 5 -23 10 -26 6 -3 10 -41 10 -84 0 -61 -5 -87 -23 -122 -34 -67 -51 -89 -64 -89 -7 0 -13 -6 -13 -12 0 -24 -45 -65 -78 -72 -29 -7 -46 -26 -22 -26 28 0 130 75 130 95 0 3 9 15 20 27 10 11 29 41 40 65 27 58 30 201 5 250 -19 38 -35 51 -35 29z" transform="translate(0.000000,134.000000) scale(0.100000,-0.100000)" stroke="none" fill="#0C2D29"/>

<path d="M998 1277 c-40 -16 -128 -65 -128 -73 0 -3 29 11 65 31 142 80 258 51 313 -78 7 -15 12 -65 12 -110 0 -70 -4 -91 -30 -145 -18 -38 -50 -83 -82 -114 -29 -28 -44 -46 -32 -40 37 19 96 93 127 160 60 128 36 273 -56 346 -30 24 -49 30 -95 33 -32 2 -73 -3 -94 -10z" transform="translate(0.000000,134.000000) scale(0.100000,-0.100000)" stroke="none" fill="#859994"/>

<path d="M535 1137 c-58 -13 -95 -28 -95 -38 0 -5 -5 -9 -10 -9 -29 0 -140 -114 -203 -210 -20 -30 -41 -60 -47 -67 -5 -7 -10 -19 -10 -28 0 -8 -4 -15 -10 -15 -5 0 -9 -10 -9 -22 1 -17 2 -19 6 -5 2 9 9 17 14 17 5 0 9 9 9 20 0 11 5 20 10 20 6 0 10 7 10 15 0 8 5 15 10 15 6 0 10 6 10 14 0 8 4 16 8 18 5 2 22 23 39 48 17 25 41 55 52 67 12 12 21 27 21 33 0 5 5 10 10 10 11 0 27 11 58 41 9 9 36 26 59 38 36 18 61 21 175 22 131 2 132 2 53 10 -44 4 -89 10 -100 11 -11 2 -38 0 -60 -5z" transform="translate(0.000000,134.000000) scale(0.100000,-0.100000)" stroke="none" fill="#0C2D29"/>

<path d="M751 604 c8 -10 9 -18 2 -22 -17 -12 -73 -94 -73 -109 0 -8 -7 -21 -15 -29 -8 -9 -18 -27 -21 -42 -8 -38 -66 -155 -81 -165 -7 -4 -13 -14 -13 -22 0 -8 -9 -20 -20 -27 -11 -7 -20 -17 -20 -21 0 -13 -43 -46 -60 -47 -9 0 -20 -4 -26 -10 -5 -5 -47 -11 -94 -13 l-85 -3 86 -2 c164 -4 222 49 329 298 30 69 58 127 62 128 4 2 8 8 8 13 0 5 14 22 31 38 29 29 30 30 10 40 -28 15 -36 14 -20 -5z" transform="translate(0.000000,134.000000) scale(0.100000,-0.100000)" stroke="none" fill="#0C2D29"/>

<path d="M815 1179 c-33 -15 -64 -19 -171 -19 -118 0 -135 -2 -180 -25 -120 -60 -280 -252 -353 -424 -44 -103 -54 -160 -55 -296 -1 -116 1 -136 23 -182 25 -55 93 -127 137 -144 42 -16 38 -4 -5 16 -51 22 -83 56 -118 125 -26 51 -28 63 -28 175 0 135 17 214 71 332 66 145 216 328 315 383 40 22 55 24 179 25 114 1 142 5 183 23 26 11 47 23 47 26 0 7 3 8 -45 -15z" transform="translate(0.000000,134.000000) scale(0.100000,-0.100000)" stroke="none" fill="#859994"/>

<path d="M1036 1253 c-3 -4 -16 -8 -28 -10 -19 -3 -97 -41 -108 -54 -3 -3 -22 -13 -42 -22 -20 -10 -40 -22 -43 -27 -8 -13 -35 -13 -35 0 0 6 6 10 14 10 8 0 18 4 21 10 3 5 -13 3 -35 -5 -27 -10 -67 -13 -123 -10 -95 5 -77 -2 38 -14 79 -8 79 -8 -53 -10 -114 -1 -139 -4 -175 -22 -23 -12 -50 -29 -59 -38 -32 -31 -47 -41 -59 -41 -7 0 -5 9 7 23 17 20 16 20 -9 -2 -27 -24 -36 -38 -17 -26 6 3 10 -1 10 -10 0 -11 -5 -15 -14 -12 -7 3 -26 -8 -42 -24 -15 -16 -25 -29 -21 -29 3 0 18 12 32 27 52 57 10 -13 -61 -100 -8 -9 -14 -22 -14 -27 0 -6 -5 -10 -11 -10 -6 0 -8 8 -5 18 4 10 -2 7 -13 -8 -11 -14 -17 -27 -15 -30 3 -2 9 2 14 10 8 13 10 12 10 -2 0 -10 -4 -18 -10 -18 -5 0 -10 -9 -10 -20 0 -11 -4 -20 -10 -20 -5 0 -10 -8 -11 -17 0 -15 -2 -15 -9 2 -10 22 -12 13 -12 -45 l1 -35 -7 30 c-7 29 -8 29 -25 -24 -9 -30 -15 -56 -12 -59 5 -5 11 9 18 43 3 12 5 8 6 -12 0 -17 -3 -35 -9 -38 -5 -3 -10 -21 -10 -39 0 -17 -4 -36 -9 -42 -12 -11 -18 -260 -7 -271 4 -4 5 4 1 20 -4 15 -5 27 -2 27 8 0 37 -60 37 -75 0 -19 82 -95 102 -95 10 0 18 -4 18 -10 0 -36 -82 17 -120 77 -16 27 -30 44 -30 40 0 -11 29 -57 54 -85 12 -13 44 -36 71 -50 68 -35 177 -37 248 -3 48 23 106 82 133 134 20 38 10 34 -15 -6 -24 -39 -56 -77 -65 -77 -14 0 -5 26 14 38 11 7 20 19 20 27 0 8 6 18 13 22 14 9 73 126 81 163 8 32 23 56 31 48 4 -4 -9 -44 -29 -89 -19 -46 -34 -84 -32 -86 1 -2 12 18 24 45 12 26 36 81 55 122 36 82 80 137 141 182 21 15 36 28 32 28 -5 0 -21 -9 -38 -21 -16 -12 -31 -19 -34 -16 -5 5 56 52 68 52 3 0 10 3 14 8 4 4 17 7 28 7 18 0 19 -2 6 -11 -12 -9 -12 -10 3 -5 10 3 21 6 24 6 4 0 -2 10 -13 22 -18 20 -18 21 -1 15 10 -4 26 -7 35 -7 15 0 15 -2 2 -10 -32 -21 5 -8 75 25 41 19 77 40 81 46 4 8 3 9 -4 5 -18 -11 -14 3 8 26 11 12 20 28 20 35 0 7 7 13 15 13 8 0 15 -7 15 -15 0 -8 -4 -15 -9 -15 -5 0 -12 -8 -15 -17 -9 -26 53 46 70 82 14 28 14 29 -1 10 -9 -11 -20 -27 -25 -35 -5 -8 -12 -12 -16 -8 -4 4 -1 15 6 23 41 49 60 109 60 186 0 43 -4 81 -10 84 -5 3 -10 15 -10 26 0 10 -4 19 -10 19 -5 0 -10 7 -10 16 0 14 3 14 15 4 8 -7 15 -18 15 -26 0 -7 4 -16 10 -19 14 -8 1 24 -22 58 -19 26 -69 62 -54 38 4 -7 -1 -11 -13 -11 -12 0 -21 5 -21 10 0 13 -33 13 -47 -1 -8 -8 -13 -8 -17 0 -8 13 -20 14 -30 4z m159 -23 c3 -5 -1 -10 -9 -10 -9 0 -16 5 -16 10 0 6 4 10 9 10 6 0 13 -4 16 -10z m-895 -340 c0 -5 -5 -10 -11 -10 -5 0 -7 5 -4 10 3 6 8 10 11 10 2 0 4 -4 4 -10z m776 -145 c-33 -17 -46 -19 -46 -6 0 10 22 18 55 20 15 1 13 -3 -9 -14z m-80 -20 c24 -12 26 -15 8 -15 -11 0 -29 7 -40 15 -25 19 -4 19 32 0z m-225 -116 c20 -10 19 -11 -10 -40 -17 -16 -31 -33 -31 -38 0 -5 -3 -11 -7 -13 -5 -1 -16 -19 -25 -38 -13 -27 -17 -30 -17 -14 -1 20 50 101 72 116 7 4 6 12 -2 22 -16 19 -8 20 20 5z m-551 -433 c0 -3 -4 -8 -10 -11 -5 -3 -10 -1 -10 4 0 6 5 11 10 11 6 0 10 -2 10 -4z m245 -6 c3 -5 1 -10 -4 -10 -6 0 -11 5 -11 10 0 6 2 10 4 10 3 0 8 -4 11 -10z m45 -29 c0 -5 -20 -18 -45 -30 -36 -17 -61 -21 -132 -19 l-88 2 85 3 c47 2 89 8 94 13 6 6 18 10 27 10 9 0 22 7 29 15 14 17 30 20 30 6z" transform="translate(0.000000,134.000000) scale(0.100000,-0.100000)" stroke="none" fill="#1C4543"/>

</svg>