<?xml version="1.0" standalone="no"?>
<!DOCTYPE svg PUBLIC "-//W3C//DTD SVG 20010904//EN"
 "http://www.w3.org/TR/2001/REC-SVG-20010904/DTD/svg10.dtd">
<svg version="1.0" xmlns="http://www.w3.org/2000/svg" 
width="116.000000pt" height="184.000000pt" viewBox="0 0 116.000000 184.000000"
preserveAspectRatio = "xMidYMid meet" >
<metadata>
Created by ZoeQU, 2022
</metadata>
<rect width="116.000000" height="184.000000" fill="#FBF5E8"/>
<path d="M111 1752 l-34 -3 6 -56 c7 -71 29 -93 92 -93 25 0 45 -4 45 -10 0 -6 27 -10 60 -10 33 0 60 -4 60 -10 0 -5 7 -10 15 -10 8 0 30 -9 50 -20 20 -11 53 -20 75 -20 22 0 40 -4 40 -10 0 -5 9 -10 20 -10 11 0 20 -4 20 -10 0 -5 8 -10 18 -10 10 0 24 -9 32 -20 8 -11 20 -20 27 -20 19 0 143 -124 143 -143 0 -8 3 -17 8 -19 10 -4 52 -87 52 -104 0 -8 5 -14 10 -14 6 0 10 -14 10 -31 0 -35 19 -109 32 -123 12 -14 10 -184 -2 -191 -5 -3 -10 -31 -10 -61 0 -30 -4 -54 -10 -54 -5 0 -10 -9 -10 -20 0 -11 -4 -20 -10 -20 -5 0 -10 -12 -10 -26 0 -20 -23 -49 -95 -120 -53 -52 -101 -94 -108 -94 -7 0 -19 -9 -27 -20 -8 -11 -22 -20 -32 -20 -10 0 -18 -4 -18 -10 0 -5 -9 -10 -20 -10 -11 0 -20 -4 -20 -10 0 -5 -12 -10 -26 -10 -29 0 -54 -21 -54 -44 0 -9 -8 -16 -20 -16 -11 0 -20 -4 -20 -10 0 -5 -9 -10 -20 -10 -11 0 -20 -4 -20 -10 0 -5 -9 -10 -20 -10 -11 0 -20 -4 -20 -10 0 -5 -7 -10 -16 -10 -27 0 -43 -31 -37 -70 9 -56 16 -60 81 -44 145 37 358 134 467 213 127 92 210 217 257 387 18 66 22 104 22 229 0 132 -4 163 -29 260 -56 214 -131 322 -283 406 -77 43 -249 103 -337 119 -140 24 -281 38 -334 32z" transform="translate(0.000000,184.000000) scale(0.100000,-0.100000)" stroke="none" fill="#F29A2D"/>

</svg>