<?xml version="1.0" standalone="no"?>
<!DOCTYPE svg PUBLIC "-//W3C//DTD SVG 20010904//EN"
 "http://www.w3.org/TR/2001/REC-SVG-20010904/DTD/svg10.dtd">
<svg version="1.0" xmlns="http://www.w3.org/2000/svg" 
width="87.000000pt" height="138.000000pt" viewBox="0 0 87.000000 138.000000"
preserveAspectRatio = "xMidYMid meet" >
<metadata>
Created by ZoeQU, 2022
</metadata>
<rect width="87.000000" height="138.000000" fill="#FBF5E8"/>
<path d="M490 1148 c9 -7 14 -20 13 -28 -4 -20 14 -47 24 -37 4 4 1 17 -6 29 -10 16 -10 19 1 12 41 -23 68 -47 63 -54 -3 -5 0 -12 6 -16 8 -4 9 -3 5 4 -9 16 7 15 22 0 7 -7 12 -9 12 -6 0 7 -113 89 -140 102 -13 6 -13 5 0 -6z" transform="translate(0.000000,138.000000) scale(0.100000,-0.100000)" stroke="none" fill="#02453D"/>

<path d="M254 1217 c-5 -13 45 -207 65 -252 34 -80 40 -89 40 -70 1 12 -3 25 -7 30 -21 24 -95 282 -86 297 3 5 3 8 -1 8 -3 0 -8 -6 -11 -13z" transform="translate(0.000000,138.000000) scale(0.100000,-0.100000)" stroke="none" fill="#02453D"/>

<path d="M161 1249 c-7 -24 -33 -95 -58 -157 -24 -63 -46 -128 -49 -145 -2 -18 5 -3 17 32 l21 65 19 -25 19 -24 0 23 c0 13 -6 22 -15 22 -8 0 -15 3 -15 6 0 4 18 56 40 116 23 61 39 115 37 121 -1 5 -9 -10 -16 -34z" transform="translate(0.000000,138.000000) scale(0.100000,-0.100000)" stroke="none" fill="#02453D"/>

<path d="M685 288 c-5 -7 -5 -10 0 -6 10 10 77 -101 69 -114 -4 -6 -17 3 -31 18 -13 16 -5 -1 19 -38 46 -72 46 -72 67 -59 11 7 2 28 -44 102 -72 115 -71 114 -80 97z m104 -155 c20 -29 20 -33 5 -33 -10 0 -15 3 -11 6 3 4 -3 14 -15 24 -13 10 -18 22 -14 29 5 7 9 11 10 9 1 -2 13 -18 25 -35z" transform="translate(0.000000,138.000000) scale(0.100000,-0.100000)" stroke="none" fill="#02453D"/>

<path d="M360 862 c0 -15 135 -277 168 -325 17 -26 32 -52 32 -56 0 -4 10 -16 21 -27 12 -10 -1 18 -30 64 -50 81 -133 240 -164 315 -15 34 -27 48 -27 29z" transform="translate(0.000000,138.000000) scale(0.100000,-0.100000)" stroke="none" fill="#02453D"/>

<path d="M622 388 c-16 -16 -16 -41 1 -32 9 5 9 4 1 -6 -9 -9 -7 -17 7 -31 11 -11 17 -25 13 -31 -4 -6 -3 -8 2 -5 6 3 16 -3 23 -15 10 -16 10 -19 -1 -13 -7 4 -2 -3 12 -15 14 -12 18 -19 10 -15 -8 4 -6 -1 5 -10 11 -9 19 -21 17 -26 -1 -6 2 -8 8 -4 9 6 15 -8 11 -29 -1 -5 5 -4 13 3 16 13 18 53 2 44 -5 -4 -7 1 -3 10 4 10 2 16 -6 14 -7 -1 -11 6 -11 15 1 10 -2 16 -6 13 -5 -3 -11 4 -15 15 -4 12 -11 17 -18 13 -8 -4 -8 -1 1 9 10 13 10 17 -4 22 -9 4 -14 12 -10 22 3 8 2 12 -4 9 -10 -6 -14 7 -11 34 2 7 -2 10 -7 7 -6 -3 -12 -1 -14 4 -2 7 -8 6 -16 -2z" transform="translate(0.000000,138.000000) scale(0.100000,-0.100000)" stroke="none" fill="#03574F"/>

<path d="M190 1307 c-9 -7 -14 -20 -12 -31 2 -10 0 -16 -6 -12 -6 4 -8 -2 -4 -16 3 -13 1 -19 -5 -15 -7 5 -9 -1 -5 -15 3 -13 1 -19 -5 -15 -7 5 -9 -1 -5 -15 3 -14 1 -19 -6 -14 -8 5 -10 1 -5 -10 4 -11 3 -15 -4 -11 -7 5 -9 -1 -5 -15 3 -13 1 -19 -5 -15 -7 5 -9 -1 -5 -15 3 -14 1 -19 -6 -14 -8 5 -10 1 -5 -10 5 -13 3 -15 -7 -9 -9 5 -11 4 -6 -4 10 -16 -3 -53 -16 -45 -7 4 -8 2 -4 -4 4 -6 4 -23 0 -37 -5 -20 -9 -23 -15 -13 -6 8 -6 -1 -2 -21 4 -25 3 -32 -6 -27 -8 6 -10 1 -6 -16 3 -13 7 -55 8 -94 1 -41 6 -67 10 -60 5 6 6 -1 3 -16 -4 -18 -2 -28 5 -28 6 0 8 -7 5 -16 -4 -10 -2 -13 6 -8 8 5 9 2 5 -10 -5 -11 -3 -15 5 -10 8 5 9 2 5 -10 -5 -11 -3 -15 5 -10 8 5 9 2 5 -10 -4 -10 -3 -15 3 -11 10 6 15 -9 10 -30 -1 -5 1 -7 5 -3 4 4 14 1 21 -7 17 -17 18 -29 2 -19 -9 5 -9 2 1 -9 15 -18 26 -23 16 -7 -3 6 -4 10 0 10 3 0 10 -12 15 -26 6 -14 14 -23 19 -19 5 3 16 -3 23 -13 7 -11 15 -19 18 -19 18 0 49 -16 45 -24 -3 -5 1 -6 9 -3 9 3 16 1 16 -5 0 -6 7 -8 17 -4 12 5 14 3 8 -7 -6 -10 -4 -12 9 -7 20 8 68 -2 62 -12 -3 -4 27 -5 66 -3 53 3 69 1 63 -8 -5 -8 0 -11 16 -8 13 2 29 -4 36 -12 10 -13 14 -13 30 3 11 9 22 15 24 12 3 -2 5 4 5 15 0 10 -5 16 -11 13 -5 -2 3 8 20 23 16 15 30 34 30 43 0 9 6 15 13 13 8 -1 11 2 7 8 -3 5 0 10 7 10 9 0 9 3 -2 10 -13 8 -13 10 2 10 12 0 15 5 11 17 -4 10 -2 14 4 10 7 -5 9 1 5 15 -4 16 -2 19 8 13 9 -6 11 -4 6 4 -9 14 2 84 12 77 4 -2 7 34 7 80 0 46 -4 84 -9 84 -4 0 -6 9 -3 20 3 11 1 20 -5 20 -6 0 -7 7 -4 16 4 10 2 13 -6 8 -8 -5 -9 -2 -5 10 5 11 3 15 -5 10 -8 -5 -9 -2 -5 10 4 10 3 15 -3 11 -9 -6 -14 8 -11 28 1 5 -2 6 -7 3 -4 -2 -19 9 -32 26 -47 59 -52 64 -44 48 6 -12 4 -13 -7 -2 -16 15 -33 16 -23 0 4 -7 3 -8 -5 -4 -9 6 -9 11 0 22 6 8 9 15 5 15 -3 1 -10 3 -16 4 -5 1 -15 3 -21 4 -5 0 -7 6 -4 11 4 6 3 10 -2 9 -20 -3 -34 2 -28 11 4 6 3 10 -2 9 -21 -4 -34 2 -27 13 4 7 3 8 -4 4 -7 -4 -12 -2 -12 3 0 6 -3 10 -7 10 -20 -3 -34 2 -28 11 4 6 -1 7 -11 3 -12 -4 -15 -3 -10 6 4 6 4 10 -1 9 -16 -4 -53 14 -48 23 3 5 -2 6 -11 2 -12 -4 -15 -3 -10 5 5 8 2 10 -8 6 -9 -4 -18 0 -22 9 -5 15 -38 17 -65 3 -8 -4 -6 -1 4 7 18 15 18 15 -2 22 -12 3 -19 11 -16 16 3 5 -2 6 -11 2 -13 -5 -15 -3 -9 8 7 11 5 11 -10 -1 -17 -14 -18 -13 -12 3 7 20 7 20 -13 4z m76 -85 c-9 -15 65 -273 86 -297 4 -5 8 -18 7 -30 0 -19 -6 -10 -40 70 -5 11 -23 69 -39 129 -28 99 -32 136 -15 136 4 0 4 -3 1 -8z m88 -53 c-10 -16 -24 -9 -24 12 0 18 2 19 15 9 8 -7 12 -16 9 -21z m-134 -19 c0 -11 -4 -20 -10 -20 -5 0 -10 9 -10 20 0 11 5 20 10 20 6 0 10 -9 10 -20z m207 -15 c0 -8 -4 -12 -9 -9 -5 3 -6 10 -3 15 9 13 12 11 12 -6z m103 -41 c0 -19 -16 -18 -24 2 -11 27 -7 37 9 24 8 -7 15 -19 15 -26z m-103 -9 c8 -22 -6 -33 -17 -15 -13 20 -12 30 0 30 6 0 13 -7 17 -15z m-77 -11 c0 -17 -22 -14 -28 4 -2 7 3 12 12 12 9 0 16 -7 16 -16z m-150 -58 c-14 -14 -24 0 -16 21 6 15 8 15 16 3 6 -9 5 -19 0 -24z m-70 4 c0 -11 -2 -20 -5 -20 -2 0 -9 9 -15 20 -9 16 -8 20 5 20 8 0 15 -9 15 -20z m390 -16 c0 -8 -4 -14 -10 -14 -5 0 -10 9 -10 21 0 11 5 17 10 14 6 -3 10 -13 10 -21z m-230 -20 c0 -8 -4 -14 -10 -14 -5 0 -10 9 -10 21 0 11 5 17 10 14 6 -3 10 -13 10 -21z m350 -4 c0 -11 -4 -20 -9 -20 -5 0 -11 9 -14 20 -3 13 0 20 9 20 8 0 14 -9 14 -20z m-220 -37 c0 -22 -2 -25 -10 -13 -13 20 -13 40 0 40 6 0 10 -12 10 -27z m-290 -39 c0 -16 -16 -19 -25 -4 -8 13 4 32 16 25 5 -4 9 -13 9 -21z m80 2 c0 -2 3 -11 6 -20 9 -23 -13 -20 -26 4 -9 16 -8 20 5 20 8 0 15 -2 15 -4z m406 -34 c-10 -10 -29 15 -21 28 6 9 10 8 17 -4 6 -10 7 -20 4 -24z m-96 -3 c0 -11 -4 -17 -10 -14 -5 3 -10 13 -10 21 0 8 5 14 10 14 6 0 10 -9 10 -21z m-202 -7 c6 -18 -15 -14 -22 4 -4 10 -1 14 6 12 6 -2 14 -10 16 -16z m69 -29 c31 -75 114 -234 164 -315 29 -46 42 -74 30 -64 -11 11 -21 23 -21 27 0 4 -15 30 -32 56 -33 48 -168 310 -168 325 0 19 12 5 27 -29z m307 21 c8 -22 -4 -40 -15 -23 -11 18 -11 39 0 39 5 0 12 -7 15 -16z m-604 -25 c0 -5 -4 -9 -10 -9 -5 0 -10 7 -10 16 0 8 5 12 10 9 6 -3 10 -10 10 -16z m68 -53 c3 -11 -1 -17 -9 -14 -7 2 -13 12 -15 22 -3 23 20 15 24 -8z m440 -15 c3 -8 -1 -12 -9 -9 -7 2 -15 10 -17 17 -3 8 1 12 9 9 7 -2 15 -10 17 -17z m-318 -17 c0 -8 -4 -14 -10 -14 -5 0 -10 9 -10 21 0 11 5 17 10 14 6 -3 10 -13 10 -21z m200 0 c0 -8 -4 -14 -10 -14 -5 0 -10 2 -10 4 0 2 -3 12 -6 20 -5 12 -2 15 10 10 9 -3 16 -12 16 -20z m-95 6 c3 -5 3 -15 -1 -21 -6 -11 -23 6 -24 24 0 10 18 9 25 -3z m335 -15 c0 -8 -4 -15 -10 -15 -5 0 -10 7 -10 15 0 8 5 15 10 15 6 0 10 -7 10 -15z m-610 -36 c0 -11 -4 -17 -10 -14 -5 3 -10 13 -10 21 0 8 5 14 10 14 6 0 10 -9 10 -21z m535 -17 c0 -18 -20 -15 -23 4 -3 10 1 15 10 12 7 -3 13 -10 13 -16z m-441 -28 c4 -9 4 -19 2 -21 -8 -8 -26 8 -26 23 0 19 16 18 24 -2z m156 -15 c0 -5 -7 -9 -15 -9 -9 0 -15 9 -15 21 0 18 2 19 15 9 8 -7 15 -16 15 -21z m76 -26 c-4 -4 -11 -1 -16 7 -16 25 -11 35 7 17 9 -9 13 -20 9 -24z m134 15 c0 -16 -3 -19 -11 -11 -6 6 -8 16 -5 22 11 17 16 13 16 -11z m-276 -54 c9 -22 8 -24 -9 -24 -8 0 -15 9 -15 20 0 24 15 27 24 4z m386 -47 c0 -5 -7 -4 -15 3 -8 7 -15 20 -15 29 1 13 3 13 15 -3 8 -11 15 -24 15 -29z m-180 -19 c0 -5 -7 -8 -15 -8 -15 0 -20 21 -8 33 7 7 23 -11 23 -25z m-102 4 c2 -7 -3 -12 -12 -12 -9 0 -16 7 -16 16 0 17 22 14 28 -4z m210 -6 c3 -12 -1 -17 -10 -14 -7 3 -15 13 -16 22 -3 12 1 17 10 14 7 -3 15 -13 16 -22z m-133 -57 c12 -19 -5 -23 -22 -6 -16 16 -16 17 -1 17 9 0 20 -5 23 -11z" transform="translate(0.000000,138.000000) scale(0.100000,-0.100000)" stroke="none" fill="#03574F"/>

</svg>