<?xml version="1.0" standalone="no"?>
<!DOCTYPE svg PUBLIC "-//W3C//DTD SVG 20010904//EN"
 "http://www.w3.org/TR/2001/REC-SVG-20010904/DTD/svg10.dtd">
<svg version="1.0" xmlns="http://www.w3.org/2000/svg" 
width="134.000000pt" height="150.000000pt" viewBox="0 0 134.000000 150.000000"
preserveAspectRatio = "xMidYMid meet" >
<metadata>
Created by ZoeQU, 2022
</metadata>
<rect width="134.000000" height="150.000000" fill="#FBF5E8"/>
<path d="M1195 1399 c-134 -71 -304 -181 -415 -267 -70 -55 -236 -233 -294 -317 -17 -24 -48 -69 -70 -99 -21 -31 -42 -53 -47 -50 -15 9 -10 62 9 96 55 98 97 267 127 512 14 113 13 144 -3 120 -4 -6 -31 -49 -61 -95 -30 -46 -63 -97 -73 -112 -33 -47 -153 -286 -198 -391 -64 -150 -80 -209 -96 -345 -16 -132 -8 -307 15 -334 6 -8 42 -25 79 -38 56 -19 87 -23 182 -23 183 0 308 46 545 199 86 56 312 233 354 279 14 14 21 29 17 33 -13 13 -267 16 -279 4 -6 -6 -19 -11 -29 -11 -10 0 -18 -4 -18 -10 0 -5 -9 -10 -20 -10 -11 0 -20 -4 -20 -10 0 -5 -9 -10 -20 -10 -11 0 -20 -4 -20 -10 0 -5 -9 -10 -20 -10 -11 0 -20 -4 -20 -10 0 -5 -9 -10 -20 -10 -11 0 -20 -4 -20 -10 0 -5 -9 -10 -20 -10 -11 0 -20 -4 -20 -10 0 -5 -9 -10 -19 -10 -11 0 -21 -6 -24 -12 -2 -7 -8 -9 -13 -5 -5 4 -2 12 6 17 8 5 11 12 7 16 -4 4 -28 -2 -54 -15 l-46 -22 69 76 c37 42 75 82 84 88 29 22 174 204 236 297 89 132 218 361 254 450 7 19 20 44 27 55 7 11 13 23 13 27 0 15 -46 8 -85 -13z" transform="translate(0.000000,150.000000) scale(0.100000,-0.100000)" stroke="none" fill="#F4AF2B"/>

</svg>