<?xml version="1.0" standalone="no"?>
<!DOCTYPE svg PUBLIC "-//W3C//DTD SVG 20010904//EN"
 "http://www.w3.org/TR/2001/REC-SVG-20010904/DTD/svg10.dtd">
<svg version="1.0" xmlns="http://www.w3.org/2000/svg" 
width="112.000000pt" height="136.000000pt" viewBox="0 0 112.000000 136.000000"
preserveAspectRatio = "xMidYMid meet" >
<metadata>
Created by ZoeQU, 2022
</metadata>
<rect width="112.000000" height="136.000000" fill="#FBF5E8"/>
<path d="M527 1300 c-13 -31 -36 -137 -48 -219 -11 -80 -8 -316 5 -351 3 -10 -24 -46 -74 -100 l-79 -85 24 85 c71 258 57 380 -62 542 -32 45 -37 48 -47 31 -6 -10 -10 -86 -10 -178 0 -173 12 -249 63 -404 l28 -84 -37 -56 c-75 -115 -240 -386 -240 -396 0 -5 7 -10 16 -10 11 0 48 55 105 158 49 87 110 189 135 227 l45 69 75 -49 c41 -27 99 -60 127 -73 49 -23 218 -74 315 -96 l43 -9 -18 21 c-90 104 -302 197 -450 197 -46 0 -62 3 -57 12 4 7 3 8 -4 4 -7 -4 -12 -3 -12 3 0 8 53 69 144 169 10 10 24 7 72 -14 108 -48 195 -64 341 -64 73 0 133 4 133 9 0 13 -130 66 -224 91 -62 17 -98 21 -170 18 -50 -3 -100 -8 -111 -13 -11 -4 16 30 60 75 87 90 60 79 -47 -19 -36 -34 -68 -61 -71 -61 -3 0 1 24 9 53 27 98 44 232 43 332 -1 112 -12 208 -22 185z" transform="translate(0.000000,136.000000) scale(0.100000,-0.100000)" stroke="none" fill="#174B44"/>

</svg>