<?xml version="1.0" standalone="no"?>
<!DOCTYPE svg PUBLIC "-//W3C//DTD SVG 20010904//EN"
 "http://www.w3.org/TR/2001/REC-SVG-20010904/DTD/svg10.dtd">
<svg version="1.0" xmlns="http://www.w3.org/2000/svg" 
width="117.000000pt" height="72.000000pt" viewBox="0 0 117.000000 72.000000"
preserveAspectRatio = "xMidYMid meet" >
<metadata>
Created by ZoeQU, 2022
</metadata>
<rect width="117.000000" height="72.000000" fill="#FBF5E8"/>
<path d="M456 559 c-3 -8 -10 -59 -15 -114 -11 -111 -34 -186 -87 -289 l-36 -68 28 -29 27 -29 34 56 c57 94 81 120 144 154 42 22 59 37 56 48 -3 18 -6 18 -49 8 -45 -10 -33 10 37 65 61 48 77 71 56 83 -5 3 -31 -12 -57 -34 -44 -36 -64 -47 -64 -36 0 2 16 37 35 77 40 85 45 119 15 119 -25 0 -47 -34 -56 -87 -3 -24 -12 -50 -19 -59 -10 -14 -13 -5 -18 56 -6 71 -21 109 -31 79z" transform="translate(0.000000,72.000000) scale(0.100000,-0.100000)" stroke="none" fill="#B52538"/>

</svg>