<?xml version="1.0" standalone="no"?>
<!DOCTYPE svg PUBLIC "-//W3C//DTD SVG 20010904//EN"
 "http://www.w3.org/TR/2001/REC-SVG-20010904/DTD/svg10.dtd">
<svg version="1.0" xmlns="http://www.w3.org/2000/svg" 
width="126.000000pt" height="84.000000pt" viewBox="0 0 126.000000 84.000000"
preserveAspectRatio = "xMidYMid meet" >
<metadata>
Created by ZoeQU, 2022
</metadata>
<rect width="126.000000" height="84.000000" fill="#FBF5E8"/>
<path d="M245 780 c-71 -16 -151 -85 -182 -159 -52 -122 23 -289 156 -348 40 -18 85 -27 169 -34 130 -10 150 -18 302 -111 58 -35 132 -72 164 -82 158 -50 314 34 324 176 4 48 0 64 -22 102 -59 101 -157 137 -372 135 -196 -2 -231 18 -277 155 -42 123 -149 191 -262 166z m157 -39 c43 -30 73 -73 98 -142 33 -90 75 -133 146 -149 21 -5 105 -10 186 -10 121 0 154 -3 191 -19 98 -42 156 -127 144 -213 -15 -112 -153 -190 -279 -159 -62 16 -150 58 -228 110 -100 66 -143 82 -262 91 -122 10 -166 22 -221 61 -108 76 -147 211 -93 324 26 56 52 83 111 115 55 29 157 25 207 -9z" transform="translate(0.000000,84.000000) scale(0.100000,-0.100000)" stroke="none" fill="#D5A08A"/>

<path d="M195 750 c-59 -32 -85 -59 -111 -115 -54 -113 -15 -248 93 -324 55 -39 99 -51 221 -61 119 -9 162 -25 262 -91 78 -52 166 -94 228 -110 126 -31 264 47 279 159 12 86 -46 171 -144 213 -37 16 -70 19 -191 19 -81 0 -165 5 -186 10 -71 16 -113 59 -146 149 -43 117 -97 164 -199 169 -53 3 -74 -1 -106 -18z" transform="translate(0.000000,84.000000) scale(0.100000,-0.100000)" stroke="none" fill="#BA472B"/>

</svg>