<?xml version="1.0" standalone="no"?>
<!DOCTYPE svg PUBLIC "-//W3C//DTD SVG 20010904//EN"
 "http://www.w3.org/TR/2001/REC-SVG-20010904/DTD/svg10.dtd">
<svg version="1.0" xmlns="http://www.w3.org/2000/svg" 
width="104.000000pt" height="116.000000pt" viewBox="0 0 104.000000 116.000000"
preserveAspectRatio = "xMidYMid meet" >
<metadata>
Created by ZoeQU, 2022
</metadata>
<rect width="104.000000" height="116.000000" fill="#FBF5E8"/>
<path d="M398 1096 c-60 -22 -125 -64 -158 -103 -47 -58 -61 -110 -151 -575 -31 -163 -32 -168 -14 -188 11 -12 31 -20 50 -20 l31 0 12 113 c13 110 49 274 97 432 33 108 109 229 164 262 41 24 47 25 139 18 107 -8 162 -29 240 -93 115 -94 143 -283 109 -724 l-13 -158 37 0 36 0 6 142 c12 249 8 547 -7 620 -31 141 -105 209 -291 263 -98 28 -225 33 -287 11z" transform="translate(0.000000,116.000000) scale(0.100000,-0.100000)" stroke="none" fill="#F1B69D"/>

</svg>