<?xml version="1.0" standalone="no"?>
<!DOCTYPE svg PUBLIC "-//W3C//DTD SVG 20010904//EN"
 "http://www.w3.org/TR/2001/REC-SVG-20010904/DTD/svg10.dtd">
<svg version="1.0" xmlns="http://www.w3.org/2000/svg" 
width="160.000000pt" height="160.000000pt" viewBox="0 0 160.000000 160.000000"
preserveAspectRatio = "xMidYMid meet" >
<metadata>
Created by ZoeQU, 2022
</metadata>
<rect width="160.000000" height="160.000000" fill="#B1D8F1"/>
<path d="M698 1482 c-39 -3 -49 -15 -22 -26 24 -9 237 -7 253 3 10 6 10 10 1 16 -13 8 -173 13 -232 7z" transform="translate(0.000000,160.000000) scale(0.100000,-0.100000)" stroke="none" fill="#F4F8F9"/>

<path d="M670 140 c-29 -18 4 -25 123 -25 122 1 163 9 136 26 -19 12 -240 11 -259 -1z" transform="translate(0.000000,160.000000) scale(0.100000,-0.100000)" stroke="none" fill="#F4F8F9"/>

<path d="M1415 565 c-8 -14 -23 -37 -32 -52 -36 -60 -83 -151 -83 -164 0 -7 10 -3 25 11 14 13 25 29 25 36 0 7 4 14 9 16 7 2 91 163 91 175 0 12 -22 -1 -35 -22z" transform="translate(0.000000,160.000000) scale(0.100000,-0.100000)" stroke="none" fill="#F4F8F9"/>

<path d="M252 1223 c-28 -37 -37 -54 -89 -157 -23 -47 -25 -65 -4 -52 12 8 91 144 91 157 0 6 9 19 20 31 17 19 28 58 16 58 -2 0 -17 -17 -34 -37z" transform="translate(0.000000,160.000000) scale(0.100000,-0.100000)" stroke="none" fill="#F4F8F9"/>

<path d="M1300 1251 c0 -13 19 -55 42 -94 24 -40 49 -84 56 -99 14 -27 42 -46 42 -28 0 21 -72 157 -105 199 -30 37 -35 40 -35 22z" transform="translate(0.000000,160.000000) scale(0.100000,-0.100000)" stroke="none" fill="#F4F8F9"/>

<path d="M140 585 c0 -15 73 -155 81 -155 5 0 9 -6 9 -13 0 -7 13 -28 30 -47 40 -47 40 -18 0 50 -16 28 -30 55 -30 60 0 6 -4 10 -10 10 -5 0 -10 5 -10 10 0 16 -49 90 -60 90 -6 0 -10 -2 -10 -5z" transform="translate(0.000000,160.000000) scale(0.100000,-0.100000)" stroke="none" fill="#F4F8F9"/>

<path d="M1032 753 c-10 -16 -36 -58 -56 -96 l-38 -67 33 -58 c17 -31 43 -74 56 -95 l24 -38 109 2 109 1 23 37 c51 82 78 135 78 152 0 18 -30 77 -77 152 l-23 37 -109 0 c-108 0 -110 0 -129 -27z m288 -243 c0 -5 -4 -10 -10 -10 -5 0 -10 5 -10 10 0 6 5 10 10 10 6 0 10 -4 10 -10z" transform="translate(0.000000,160.000000) scale(0.100000,-0.100000)" stroke="none" fill="#F4F8F9"/>

<path d="M665 537 c-11 -17 -27 -45 -36 -62 -8 -16 -25 -46 -37 -65 l-21 -35 44 -75 c25 -41 49 -83 55 -92 9 -16 26 -18 123 -18 122 0 114 -3 152 65 6 11 23 39 38 62 15 24 27 49 27 57 0 12 -20 51 -86 163 l-19 33 -110 0 -110 0 -20 -33z" transform="translate(0.000000,160.000000) scale(0.100000,-0.100000)" stroke="none" fill="#F4F8F9"/>

<path d="M792 1412 c-94 -2 -114 -6 -122 -20 -6 -9 -30 -51 -55 -92 -26 -44 -40 -79 -35 -85 4 -5 23 -39 41 -73 19 -35 40 -75 47 -88 13 -23 17 -24 126 -24 l114 0 16 33 c10 17 33 58 52 91 19 32 34 64 34 72 0 7 -20 48 -45 90 -25 41 -45 80 -45 84 0 14 -10 15 -128 12z" transform="translate(0.000000,160.000000) scale(0.100000,-0.100000)" stroke="none" fill="#F4F8F9"/>

<path d="M363 1202 c-35 -3 -45 -9 -65 -40 -42 -64 -88 -143 -88 -151 0 -5 24 -48 53 -97 l54 -89 112 -1 113 -1 22 36 c51 82 86 143 86 150 0 10 -94 169 -108 183 -10 10 -106 15 -179 10z" transform="translate(0.000000,160.000000) scale(0.100000,-0.100000)" stroke="none" fill="#F4F8F9"/>

<path d="M1032 1175 c-11 -16 -32 -52 -47 -80 -14 -27 -31 -57 -37 -66 -8 -12 -2 -31 27 -85 73 -133 61 -125 186 -123 125 1 114 -6 184 124 l37 70 -53 89 c-29 48 -58 90 -65 93 -7 2 -57 5 -112 6 l-100 2 -20 -30z" transform="translate(0.000000,160.000000) scale(0.100000,-0.100000)" stroke="none" fill="#F4F8F9"/>

<path d="M297 747 c-9 -17 -30 -54 -47 -82 -43 -70 -45 -76 -32 -94 6 -9 30 -51 54 -93 23 -43 44 -78 47 -78 47 -4 214 -4 219 0 9 6 29 38 44 70 7 14 15 27 18 30 3 3 11 15 18 28 6 12 17 30 24 41 13 21 12 24 -42 111 -22 36 -43 73 -46 82 -5 14 -23 17 -123 17 l-117 1 -17 -33z" transform="translate(0.000000,160.000000) scale(0.100000,-0.100000)" stroke="none" fill="#F4F8F9"/>

<path d="M613 907 l-62 -107 62 -108 62 -107 120 2 120 1 63 107 c39 68 59 112 53 119 -4 6 -23 38 -41 71 -18 33 -43 75 -55 93 l-23 33 -119 2 -118 2 -62 -108z" transform="translate(0.000000,160.000000) scale(0.100000,-0.100000)" stroke="none" fill="#050B0E"/>

<path d="M720 1530 c-84 -8 -97 -11 -190 -48 -217 -84 -389 -280 -446 -507 -22 -90 -23 -256 -1 -346 86 -353 433 -599 788 -559 299 34 561 262 633 551 9 36 15 85 15 110 -1 37 -3 31 -14 -36 -47 -291 -234 -504 -519 -590 -82 -25 -100 -27 -210 -23 -191 8 -332 64 -466 186 -64 58 -134 146 -128 163 2 5 25 -20 52 -56 26 -36 53 -64 60 -62 6 2 12 17 14 33 l3 30 124 1 c70 0 125 -3 125 -8 0 -5 25 -51 55 -101 30 -50 55 -95 55 -100 0 -5 -11 -14 -25 -20 -31 -14 -32 -24 -2 -40 31 -17 290 -16 311 2 22 17 20 24 -9 40 -14 7 -25 17 -25 21 0 4 27 52 61 107 l60 100 120 0 119 0 0 -34 c0 -19 4 -34 10 -34 11 0 45 35 72 75 11 17 4 11 -17 -12 -64 -74 -75 -46 -22 52 83 150 100 175 124 175 18 0 18 -2 -26 -96 -22 -47 -36 -82 -32 -79 10 5 65 117 75 152 11 35 -2 47 -31 28 -14 -9 -27 -14 -30 -12 -3 3 -31 51 -63 106 l-58 101 47 83 c72 125 75 128 91 121 8 -3 21 -8 28 -11 23 -10 13 46 -23 117 -36 73 -119 190 -136 190 -5 0 -9 -18 -9 -39 l0 -40 -120 0 -120 0 -26 45 c-14 24 -28 44 -31 44 -3 0 4 -16 16 -36 23 -38 26 -64 12 -79 -9 -10 -32 -50 -75 -128 -11 -21 -29 -40 -41 -43 -11 -3 -65 -4 -119 -2 -99 3 -99 3 -116 33 -18 31 -44 78 -76 132 l-19 33 29 55 c15 30 41 75 57 100 l29 45 119 0 119 0 11 -27 c6 -16 21 -39 32 -53 13 -15 9 -2 -11 34 -25 47 -29 61 -18 67 42 26 44 29 26 43 -24 18 -143 28 -240 20 -88 -8 -106 -22 -67 -53 l23 -18 -57 -98 c-31 -54 -57 -101 -57 -106 0 -4 -56 -7 -125 -6 l-124 1 -3 30 c-2 16 -8 31 -14 33 -33 11 -196 -278 -171 -303 3 -4 18 1 33 11 26 17 27 17 46 -6 l19 -24 -11 25 c-10 23 -5 37 47 122 l58 97 110 3 c123 3 129 1 161 -69 10 -21 20 -40 23 -43 4 -3 12 -15 18 -28 7 -12 18 -31 25 -41 10 -17 3 -33 -48 -118 l-59 -98 -112 -3 -113 -3 -37 59 c-21 33 -44 68 -51 78 -19 29 15 -40 48 -96 l29 -49 -60 -106 c-33 -58 -64 -105 -67 -105 -4 0 -16 7 -26 15 -46 35 -48 -1 -5 -91 35 -71 33 -101 -1 -34 -47 92 -63 160 -67 295 -4 111 -2 142 16 208 70 258 263 449 521 516 146 38 336 21 475 -44 142 -66 270 -188 337 -322 41 -81 51 -115 77 -243 8 -43 9 -44 10 -10 2 93 -69 271 -146 368 -130 161 -298 257 -494 282 -46 5 -84 9 -84 9 0 -1 -34 -5 -75 -9z m208 -47 c29 -7 28 -17 -3 -31 -38 -18 -236 -16 -261 2 -28 21 -9 34 56 39 58 4 170 -1 208 -10z m420 -259 c35 -47 102 -180 102 -201 0 -23 -28 -14 -49 16 -12 16 -21 32 -21 36 0 4 -8 19 -19 33 -38 55 -71 122 -71 146 0 34 17 25 58 -30z m-1048 23 c0 -13 -13 -44 -30 -70 -16 -26 -30 -50 -30 -52 0 -3 -16 -30 -36 -60 -33 -53 -58 -74 -70 -62 -10 10 75 179 112 224 40 48 54 54 54 20z m989 -58 c13 -21 31 -53 79 -137 l24 -42 -48 -83 c-72 -124 -60 -117 -185 -117 l-108 0 -25 33 c-15 19 -26 37 -26 40 0 3 -16 33 -36 66 l-35 60 24 43 c49 88 65 116 78 137 13 19 22 21 129 21 107 0 116 -2 129 -21z m-354 -211 c12 -18 37 -60 55 -93 18 -33 37 -65 41 -71 6 -7 -14 -51 -53 -119 l-63 -107 -120 -1 -120 -2 -62 107 -62 108 62 107 62 108 118 -2 119 -2 23 -33z m-400 -195 c13 -3 39 -39 74 -100 45 -80 52 -99 42 -115 -6 -10 -17 -28 -23 -40 -7 -13 -15 -25 -18 -28 -3 -3 -11 -15 -17 -27 -7 -13 -19 -33 -25 -45 -20 -36 -27 -38 -135 -38 -104 0 -133 5 -133 22 0 5 -8 22 -19 36 -10 15 -28 43 -39 63 -11 20 -26 45 -33 56 -11 18 -6 31 36 104 71 125 63 120 174 118 53 -1 105 -3 116 -6z m747 -10 c8 -10 36 -55 62 -100 l46 -83 -57 -100 -57 -100 -116 0 c-107 0 -116 2 -129 21 -13 21 -31 52 -78 136 l-24 42 24 43 c96 171 79 158 207 158 89 0 109 -3 122 -17z m-1106 -195 c10 -13 25 -34 32 -47 41 -72 51 -89 70 -121 23 -36 29 -80 13 -80 -17 0 -78 83 -114 155 -45 92 -52 115 -34 115 7 0 22 -10 33 -22z m744 -20 c11 -12 20 -25 20 -29 0 -4 18 -37 40 -73 22 -36 40 -74 39 -83 0 -10 -24 -56 -53 -103 l-52 -85 -120 0 -119 0 -52 85 c-55 90 -61 114 -39 145 7 11 23 36 34 57 11 20 31 52 44 72 l23 36 107 0 c98 0 109 -2 128 -22z m5 -410 c58 -26 20 -39 -118 -41 -144 -1 -199 14 -144 41 30 15 229 15 262 0z" transform="translate(0.000000,160.000000) scale(0.100000,-0.100000)" stroke="none" fill="#687176"/>

<path d="M603 1495 c-250 -71 -436 -260 -504 -512 -28 -104 -23 -304 9 -401 39 -117 92 -202 177 -287 144 -144 284 -204 491 -213 110 -4 128 -2 210 23 284 86 486 317 519 595 4 30 9 70 12 88 4 31 -3 80 -29 202 -21 97 -92 223 -172 304 -149 153 -298 217 -511 222 -101 2 -133 -1 -202 -21z m349 -6 c24 -13 23 -23 -7 -39 -14 -7 -25 -16 -25 -19 1 -3 27 -51 59 -106 l58 -100 122 -2 121 -2 0 39 c0 22 4 40 9 40 17 0 100 -117 136 -190 37 -74 46 -127 20 -116 -8 3 -21 8 -28 11 -13 6 -18 0 -88 -122 l-47 -83 58 -101 c32 -55 60 -103 63 -106 3 -2 16 3 30 12 29 19 42 7 31 -28 -29 -93 -142 -267 -174 -267 -6 0 -10 15 -10 34 l0 34 -119 0 -120 0 -60 -100 c-34 -55 -61 -103 -61 -107 0 -4 11 -14 25 -21 29 -16 31 -23 9 -40 -21 -18 -280 -19 -311 -2 -30 16 -29 26 2 40 14 6 25 15 25 20 0 5 -25 50 -55 100 -30 50 -55 96 -55 101 0 5 -55 8 -125 8 l-124 -1 -3 -30 c-2 -16 -8 -31 -14 -33 -27 -9 -174 233 -174 286 0 25 9 26 36 6 10 -8 22 -15 26 -15 3 0 33 47 67 105 l60 105 -55 97 c-31 54 -59 102 -64 106 -4 5 -20 1 -34 -8 -15 -10 -30 -15 -33 -11 -25 25 138 314 171 303 6 -2 12 -17 14 -33 l3 -30 124 -1 c69 -1 125 2 125 6 0 5 26 52 57 106 l57 98 -23 18 c-35 29 -20 47 41 52 75 6 239 -3 260 -14z" transform="translate(0.000000,160.000000) scale(0.100000,-0.100000)" stroke="none" fill="#050B0E"/>

</svg>