<?xml version="1.0" standalone="no"?>
<!DOCTYPE svg PUBLIC "-//W3C//DTD SVG 20010904//EN"
 "http://www.w3.org/TR/2001/REC-SVG-20010904/DTD/svg10.dtd">
<svg version="1.0" xmlns="http://www.w3.org/2000/svg" 
width="160.000000pt" height="152.000000pt" viewBox="0 0 160.000000 152.000000"
preserveAspectRatio = "xMidYMid meet" >
<metadata>
Created by ZoeQU, 2022
</metadata>
<rect width="160.000000" height="152.000000" fill="#F3F3EB"/>
<path d="M711 766 c-32 -34 -21 -63 26 -72 31 -6 39 -3 55 16 25 31 23 47 -12 65 -38 20 -43 19 -69 -9z" transform="translate(0.000000,152.000000) scale(0.100000,-0.100000)" stroke="none" fill="#E65625"/>

<path d="M502 1415 c-48 -40 -75 -108 -92 -229 l-15 -109 -61 -13 c-68 -14 -90 -24 -152 -72 -47 -37 -69 -73 -88 -147 -19 -70 -17 -112 7 -186 38 -115 78 -171 143 -199 l41 -17 1 -59 c3 -101 22 -202 43 -233 30 -42 96 -71 162 -71 131 1 205 22 291 82 13 10 22 6 52 -19 41 -36 98 -49 185 -40 104 11 130 24 203 101 94 99 120 190 82 286 -9 23 -15 42 -13 44 2 2 36 18 74 36 79 36 101 52 122 95 21 39 36 176 23 209 -5 14 -41 48 -80 76 l-70 52 0 48 c0 131 -125 277 -259 302 -57 11 -61 10 -132 -24 l-74 -36 -60 56 c-93 86 -106 92 -212 92 -83 0 -94 -2 -121 -25z m374 -515 c-18 -20 -28 -67 -21 -91 5 -13 16 -19 38 -19 44 0 61 -13 52 -39 -5 -16 -12 -20 -23 -16 -48 18 -70 17 -86 -6 -22 -32 -20 -54 6 -71 21 -14 19 -15 -38 -26 -50 -10 -67 -10 -106 3 -68 24 -89 52 -95 127 -6 83 9 108 56 88 29 -12 34 -11 57 11 17 16 23 30 20 45 -5 20 -3 21 38 17 24 -3 52 -1 62 5 12 7 23 6 35 -1 15 -10 16 -14 5 -27z" transform="translate(0.000000,152.000000) scale(0.100000,-0.100000)" stroke="none" fill="#E65625"/>

</svg>