<?xml version="1.0" standalone="no"?>
<!DOCTYPE svg PUBLIC "-//W3C//DTD SVG 20010904//EN"
 "http://www.w3.org/TR/2001/REC-SVG-20010904/DTD/svg10.dtd">
<svg version="1.0" xmlns="http://www.w3.org/2000/svg" 
width="138.000000pt" height="82.000000pt" viewBox="0 0 138.000000 82.000000"
preserveAspectRatio = "xMidYMid meet" >
<metadata>
Created by ZoeQU, 2022
</metadata>
<rect width="138.000000" height="82.000000" fill="#9BB37C"/>
<path d="M710 555 c-14 -17 -11 -23 22 -39 12 -6 23 -18 25 -26 3 -10 1 -9 -7 3 -6 9 -22 17 -35 17 -18 0 -25 6 -25 19 0 21 -22 33 -44 25 -21 -8 -27 -32 -12 -47 12 -11 11 -15 -5 -25 -10 -7 -19 -19 -19 -27 0 -16 34 -38 44 -28 3 3 6 -1 6 -9 0 -23 28 -44 42 -30 6 6 23 8 38 5 19 -3 29 0 33 11 7 19 -1 46 -14 46 -5 0 -9 5 -9 12 0 6 7 5 18 -5 14 -13 21 -14 30 -5 16 16 15 37 -3 44 -8 4 -15 15 -15 25 0 10 -5 19 -12 19 -6 0 -19 7 -28 15 -15 14 -18 14 -30 0z m-26 -69 c-3 -8 5 -25 17 -37 17 -17 18 -21 5 -16 -10 4 -22 7 -27 7 -4 0 -6 6 -3 14 3 8 0 17 -6 21 -9 6 -9 10 1 16 19 12 19 11 13 -5z" transform="translate(0.000000,82.000000) scale(0.100000,-0.100000)" stroke="none" fill="#4B7057"/>

<path d="M1085 655 c-33 -8 -66 -14 -72 -14 -9 -1 -13 -20 -13 -59 0 -47 4 -59 20 -70 26 -16 80 -100 80 -124 0 -10 2 -18 5 -18 14 0 79 32 103 50 65 51 113 169 93 223 -10 26 -13 27 -83 26 -40 0 -100 -7 -133 -14z" transform="translate(0.000000,82.000000) scale(0.100000,-0.100000)" stroke="none" fill="#4B7057"/>

<path d="M252 365 c-79 -24 -115 -55 -157 -136 -28 -53 -35 -120 -16 -143 27 -32 222 -10 326 38 l53 24 4 68 c3 38 8 76 11 84 5 11 -9 25 -47 48 -60 35 -102 40 -174 17z" transform="translate(0.000000,82.000000) scale(0.100000,-0.100000)" stroke="none" fill="#4B7057"/>

<path d="M745 759 c-22 -12 -56 -36 -76 -55 l-36 -35 -50 26 c-55 27 -130 33 -180 14 -78 -29 -126 -125 -104 -206 14 -50 78 -125 138 -160 35 -20 43 -30 39 -47 -25 -102 -14 -165 39 -216 30 -29 43 -34 95 -38 84 -6 137 16 196 81 46 52 47 52 111 54 181 6 246 176 117 310 -42 44 -44 49 -44 106 0 142 -127 228 -245 166z m37 -231 c21 -23 38 -45 38 -50 0 -17 -49 -86 -76 -107 -32 -25 -64 -27 -105 -6 -52 27 -63 92 -27 156 23 41 32 46 92 48 34 1 44 -5 78 -41z" transform="translate(0.000000,82.000000) scale(0.100000,-0.100000)" stroke="none" fill="#F9F3EC"/>

</svg>