<?xml version="1.0" standalone="no"?>
<!DOCTYPE svg PUBLIC "-//W3C//DTD SVG 20010904//EN"
 "http://www.w3.org/TR/2001/REC-SVG-20010904/DTD/svg10.dtd">
<svg version="1.0" xmlns="http://www.w3.org/2000/svg" 
width="107.000000pt" height="120.000000pt" viewBox="0 0 107.000000 120.000000"
preserveAspectRatio = "xMidYMid meet" >
<metadata>
Created by ZoeQU, 2022
</metadata>
<rect width="107.000000" height="120.000000" fill="#9AB37C"/>
<path d="M520 760 c-21 -30 -24 -71 -5 -71 6 0 13 10 17 23 6 23 6 23 7 1 1 -12 -3 -25 -9 -28 -5 -3 -10 -15 -10 -25 0 -16 7 -19 46 -18 33 0 47 5 51 17 2 9 9 25 15 35 8 15 7 22 -3 30 -8 6 -14 18 -14 26 0 8 -10 16 -22 18 -13 2 -23 8 -23 13 0 20 -30 7 -50 -21z" transform="translate(0.000000,120.000000) scale(0.100000,-0.100000)" stroke="none" fill="#4D7156"/>

<path d="M83 1136 c-20 -9 -33 -22 -33 -33 0 -27 89 -160 151 -225 58 -62 73 -67 142 -47 32 9 36 13 31 33 -3 12 2 53 10 90 16 67 16 68 -6 96 -13 15 -47 42 -76 60 -42 26 -65 33 -120 37 -45 2 -78 -1 -99 -11z" transform="translate(0.000000,120.000000) scale(0.100000,-0.100000)" stroke="none" fill="#4D7156"/>

<path d="M349 425 c-71 -123 -93 -326 -38 -356 17 -9 28 -6 57 14 80 53 162 156 182 228 7 24 2 40 -31 97 l-39 67 -51 0 c-51 1 -51 0 -80 -50z" transform="translate(0.000000,120.000000) scale(0.100000,-0.100000)" stroke="none" fill="#4D7156"/>

<path d="M478 1093 c-57 -39 -88 -101 -97 -196 l-6 -60 -64 -18 c-35 -10 -75 -28 -87 -40 -76 -71 -31 -210 86 -272 47 -25 64 -28 116 -25 l61 4 17 -42 c21 -51 78 -119 117 -139 81 -42 186 11 219 110 12 35 10 98 -4 140 -6 17 3 25 49 49 96 50 144 128 126 206 -19 85 -64 115 -171 113 l-75 -1 -30 61 c-40 82 -92 119 -172 124 -44 3 -64 0 -85 -14z m161 -312 c67 -67 6 -189 -83 -167 -31 8 -66 59 -66 96 0 71 101 119 149 71z" transform="translate(0.000000,120.000000) scale(0.100000,-0.100000)" stroke="none" fill="#FAF4ED"/>

</svg>