<?xml version="1.0" standalone="no"?>
<!DOCTYPE svg PUBLIC "-//W3C//DTD SVG 20010904//EN"
 "http://www.w3.org/TR/2001/REC-SVG-20010904/DTD/svg10.dtd">
<svg version="1.0" xmlns="http://www.w3.org/2000/svg" 
width="140.000000pt" height="176.000000pt" viewBox="0 0 140.000000 176.000000"
preserveAspectRatio = "xMidYMid meet" >
<metadata>
Created by ZoeQU, 2022
</metadata>
<rect width="140.000000" height="176.000000" fill="#FDFDFD"/>
<path d="M622 1452 c-1 -22 -12 -44 -33 -65 -53 -56 -72 -103 -67 -170 3 -41 10 -64 21 -72 9 -7 17 -17 17 -22 0 -13 45 -33 76 -33 55 0 113 23 149 58 43 43 49 65 41 136 -11 85 -89 154 -161 140 -32 -6 -34 -5 -38 28 l-4 33 -1 -33z m88 -122 c0 -5 -4 -10 -10 -10 -5 0 -10 5 -10 10 0 6 5 10 10 10 6 0 10 -4 10 -10z m-74 -27 c-10 -10 -19 5 -10 18 6 11 8 11 12 0 2 -7 1 -15 -2 -18z" transform="translate(0.000000,176.000000) scale(0.100000,-0.100000)" stroke="none" fill="#F8C373"/>

<path d="M721 1106 c2 -2 24 -15 48 -29 39 -22 46 -23 70 -11 30 16 105 19 96 4 -3 -5 -16 -10 -28 -10 -12 -1 -33 -7 -47 -15 l-25 -14 37 -15 c35 -15 40 -15 77 5 27 14 54 19 83 17 l43 -3 -62 -25 c-35 -13 -63 -27 -63 -30 0 -3 23 -18 52 -32 46 -24 54 -25 77 -14 14 8 37 17 49 21 l24 7 -21 -21 c-12 -12 -25 -21 -30 -21 -28 0 -14 -22 35 -55 41 -26 59 -34 67 -26 6 6 25 11 41 11 31 -1 31 -1 10 -18 l-22 -17 32 -27 c28 -24 29 -27 12 -34 -11 -4 -30 0 -48 10 -16 10 -31 16 -33 14 -2 -2 1 -25 7 -51 10 -48 6 -77 -10 -77 -5 0 -9 24 -9 53 0 28 -3 63 -7 78 -6 22 -55 59 -142 105 -12 6 -39 23 -60 38 -21 14 -43 26 -48 26 -5 0 -6 -20 -3 -44 6 -39 -3 -116 -18 -171 -13 -46 189 -135 273 -120 48 8 76 32 102 88 12 25 27 48 34 50 18 7 19 83 0 139 -24 75 -86 118 -229 163 -63 19 -147 40 -187 45 -75 10 -185 13 -177 6z m334 -346 c0 -50 -5 -84 -12 -92 -10 -10 -13 0 -13 49 0 40 4 63 13 66 10 4 10 7 0 18 -7 7 -13 24 -13 38 0 20 2 23 13 12 7 -7 12 -41 12 -91z" transform="translate(0.000000,176.000000) scale(0.100000,-0.100000)" stroke="none" fill="#4882C2"/>

<path d="M698 933 c0 -4 -2 -13 -2 -19 -1 -7 -15 -34 -32 -60 -17 -27 -46 -75 -65 -107 -19 -32 -53 -77 -77 -100 -56 -55 -67 -74 -51 -93 6 -8 9 -14 6 -14 -12 0 50 -154 87 -219 8 -13 51 -60 95 -105 45 -45 81 -87 81 -93 0 -6 12 -21 26 -32 32 -25 43 -19 74 42 12 23 30 58 41 77 10 19 19 47 19 61 0 15 14 69 32 120 27 80 31 108 30 189 0 87 -2 96 -23 110 -13 8 -30 23 -38 33 -9 9 -20 17 -26 17 -15 0 -63 51 -124 133 -28 37 -52 64 -53 60z m82 -153 c0 -5 -4 -10 -10 -10 -5 0 -10 5 -10 10 0 6 5 10 10 10 6 0 10 -4 10 -10z m-36 -14 c-6 -15 -93 -28 -108 -15 -4 4 11 12 35 17 65 15 79 14 73 -2z m36 -123 c-14 -2 -47 -11 -73 -20 -27 -8 -62 -13 -77 -9 -16 3 -32 1 -35 -4 -3 -6 -14 -10 -23 -9 -11 0 -12 2 -4 6 6 2 10 8 7 13 -6 10 31 24 44 16 5 -3 19 -2 32 2 12 5 52 9 88 9 36 0 55 -2 41 -4z m4 -127 l26 -13 -43 -17 c-49 -19 -132 -22 -121 -5 4 7 -1 7 -16 -1 -22 -12 -78 -5 -66 8 6 5 105 27 187 41 4 1 19 -5 33 -13z m61 4 c-3 -5 -11 -10 -16 -10 -6 0 -7 5 -4 10 3 6 11 10 16 10 6 0 7 -4 4 -10z m-33 -167 c-6 -2 -10 -9 -6 -14 3 -5 0 -9 -5 -9 -6 0 -11 5 -11 10 0 6 -4 10 -10 10 -5 0 -9 -6 -7 -12 1 -9 -15 -14 -51 -16 -39 -2 -52 0 -50 10 2 7 14 16 28 19 30 8 131 10 112 2z m-42 -129 c0 -2 -9 -4 -21 -4 -11 0 -18 4 -14 10 5 8 35 3 35 -6z" transform="translate(0.000000,176.000000) scale(0.100000,-0.100000)" stroke="none" fill="#F8C373"/>

<path d="M615 1090 c-122 -13 -235 -52 -333 -114 -24 -15 -42 -31 -40 -37 2 -5 47 -25 101 -43 l98 -34 51 41 52 40 -50 17 c-27 9 -58 22 -69 29 l-20 13 20 -7 c11 -4 44 -15 73 -26 l52 -18 66 56 c36 30 68 52 71 49 7 -6 -40 -60 -89 -104 -16 -13 -28 -30 -28 -38 0 -7 -6 -11 -12 -9 -15 6 -84 -51 -81 -65 11 -44 18 -122 12 -126 -5 -3 -9 3 -10 13 0 10 -3 29 -6 43 -2 14 -6 30 -7 37 -5 28 -18 23 -73 -24 -32 -27 -75 -60 -95 -72 -21 -12 -38 -23 -38 -24 0 -1 7 -20 15 -42 16 -46 20 -105 6 -105 -11 0 -16 16 -26 73 -7 46 -28 56 -58 30 -30 -26 -78 -56 -83 -51 -2 3 16 19 41 38 24 18 42 36 40 40 -3 4 -25 13 -50 19 -41 10 -66 33 -52 47 3 3 35 -6 71 -20 35 -14 69 -26 74 -26 13 0 72 49 72 60 0 4 -11 11 -25 14 -45 11 -147 63 -137 70 12 7 25 3 118 -36 l72 -31 41 33 c23 18 41 36 41 40 0 3 -20 11 -45 18 -25 6 -68 23 -97 37 -60 29 -79 26 -109 -17 -12 -16 -32 -41 -45 -55 -57 -62 -69 -200 -22 -251 48 -50 78 -65 144 -68 35 -2 77 1 93 6 44 12 183 127 226 186 53 73 115 181 129 227 5 14 17 4 57 -50 64 -85 109 -133 126 -133 10 0 13 28 13 118 l0 118 -44 22 -45 21 -5 -42 c-3 -23 -7 -58 -8 -77 -2 -19 -7 -34 -13 -32 -6 1 -10 39 -10 88 0 83 -1 86 -27 100 -16 8 -28 21 -28 29 0 8 -6 14 -12 14 -7 -1 -44 -5 -83 -9z m-38 -222 c-3 -8 -6 -5 -6 6 -1 11 2 17 5 13 3 -3 4 -12 1 -19z m-202 -199 c3 -30 7 -67 9 -83 3 -17 1 -25 -4 -20 -5 5 -14 41 -20 79 -13 91 -13 102 0 89 6 -6 13 -35 15 -65z" transform="translate(0.000000,176.000000) scale(0.100000,-0.100000)" stroke="none" fill="#4882C2"/>

</svg>