<?xml version="1.0" standalone="no"?>
<!DOCTYPE svg PUBLIC "-//W3C//DTD SVG 20010904//EN"
 "http://www.w3.org/TR/2001/REC-SVG-20010904/DTD/svg10.dtd">
<svg version="1.0" xmlns="http://www.w3.org/2000/svg" 
width="116.000000pt" height="122.000000pt" viewBox="0 0 116.000000 122.000000"
preserveAspectRatio = "xMidYMid meet" >
<metadata>
Created by ZoeQU, 2022
</metadata>
<rect width="116.000000" height="122.000000" fill="#FDFDFD"/>
<path d="M177 612 c-14 -16 -15 -26 -7 -68 24 -117 25 -110 -13 -156 -43 -53 -92 -152 -100 -205 -9 -52 9 -115 31 -111 11 2 17 15 19 42 3 50 65 178 115 239 l40 47 57 -5 c31 -3 63 -1 71 5 13 8 13 13 -2 37 -9 15 -26 29 -37 31 -23 4 -26 13 -10 29 15 15 2 34 -19 31 -14 -2 -16 4 -14 35 3 30 0 37 -15 37 -10 0 -25 -5 -33 -10 -11 -7 -16 -4 -20 13 -7 28 -41 33 -63 9z" transform="translate(0.000000,122.000000) scale(0.100000,-0.100000)" stroke="none" fill="#5B7A48"/>

<path d="M152 1132 c-71 -81 -81 -112 -89 -277 -5 -122 23 -233 81 -319 41 -61 43 -92 7 -140 -46 -60 -100 -169 -107 -214 -7 -44 9 -103 32 -122 21 -19 44 5 44 47 0 39 62 174 109 239 24 34 35 41 60 40 16 -1 33 -5 37 -9 4 -4 15 -7 25 -7 9 0 19 -6 22 -13 3 -8 25 -19 49 -25 276 -72 432 -99 502 -87 23 4 63 10 90 13 42 6 50 10 51 30 1 15 -7 28 -26 39 -33 20 -29 33 10 33 15 0 35 8 45 18 15 18 15 20 -3 36 -11 10 -44 21 -73 25 l-53 8 45 20 c56 26 76 54 58 84 -10 16 -20 19 -47 15 -32 -5 -33 -4 -28 22 4 20 -1 34 -21 55 -23 24 -25 30 -14 47 26 43 -3 79 -64 80 -13 0 -24 8 -27 20 -6 23 -47 27 -93 10 -35 -14 -37 -10 -20 32 22 51 11 76 -37 90 -22 7 -50 21 -61 31 -48 43 -109 87 -120 87 -6 0 -21 -7 -33 -15 -20 -14 -22 -13 -40 22 -21 44 -63 64 -93 46 -15 -10 -21 -8 -34 12 -10 15 -29 25 -55 30 -22 4 -45 13 -52 21 -19 23 -42 16 -77 -24z m88 -529 c4 -17 9 -20 20 -13 8 5 23 10 33 10 15 0 18 -7 15 -37 -2 -29 1 -38 13 -38 21 0 52 -32 39 -40 -5 -3 -10 -1 -10 5 0 6 -4 8 -10 5 -17 -10 -11 -23 11 -27 11 -2 28 -16 37 -31 15 -24 15 -29 2 -37 -8 -6 -40 -8 -71 -5 l-57 5 -40 -47 c-50 -61 -112 -189 -115 -239 -2 -27 -8 -40 -19 -42 -22 -4 -40 59 -31 111 8 53 57 152 100 205 38 46 37 39 13 156 -8 42 -7 52 7 68 22 24 56 19 63 -9z m25 17 c3 -5 1 -10 -4 -10 -6 0 -11 5 -11 10 0 6 2 10 4 10 3 0 8 -4 11 -10z" transform="translate(0.000000,122.000000) scale(0.100000,-0.100000)" stroke="none" fill="#F6CBC2"/>

</svg>