<?xml version="1.0" standalone="no"?>
<!DOCTYPE svg PUBLIC "-//W3C//DTD SVG 20010904//EN"
 "http://www.w3.org/TR/2001/REC-SVG-20010904/DTD/svg10.dtd">
<svg version="1.0" xmlns="http://www.w3.org/2000/svg" 
width="97.000000pt" height="116.000000pt" viewBox="0 0 97.000000 116.000000"
preserveAspectRatio = "xMidYMid meet" >
<metadata>
Created by ZoeQU, 2022
</metadata>
<rect width="97.000000" height="116.000000" fill="#FDFDFD"/>
<path d="M226 604 c-21 -21 -20 -67 2 -87 41 -37 102 -7 102 50 0 38 -76 65 -104 37z" transform="translate(0.000000,116.000000) scale(0.100000,-0.100000)" stroke="none" fill="#BCC8A7"/>

<path d="M286 309 c-44 -44 -14 -122 44 -116 26 2 60 54 44 66 -5 3 -9 13 -9 21 0 8 -6 14 -13 12 -8 -1 -11 2 -7 7 3 6 -3 15 -14 20 -24 13 -22 14 -45 -10z" transform="translate(0.000000,116.000000) scale(0.100000,-0.100000)" stroke="none" fill="#BCC8A7"/>

<path d="M722 434 c-15 -10 -22 -25 -22 -49 0 -70 92 -87 115 -21 9 25 6 31 -23 57 -37 34 -40 34 -70 13z" transform="translate(0.000000,116.000000) scale(0.100000,-0.100000)" stroke="none" fill="#BCC8A7"/>

<path d="M661 654 c-26 -33 -27 -58 -1 -84 27 -27 65 -26 84 2 23 33 19 64 -10 87 -35 27 -48 26 -73 -5z" transform="translate(0.000000,116.000000) scale(0.100000,-0.100000)" stroke="none" fill="#BCC8A7"/>

<path d="M436 731 c-24 -27 -17 -70 16 -94 26 -19 28 -19 53 -3 40 26 51 60 31 91 -21 31 -74 35 -100 6z" transform="translate(0.000000,116.000000) scale(0.100000,-0.100000)" stroke="none" fill="#BCC8A7"/>

<path d="M470 472 c-33 -42 -21 -83 30 -101 43 -14 77 0 85 38 7 32 -10 75 -26 66 -5 -4 -8 -1 -7 7 2 8 -8 13 -30 14 -24 1 -38 -6 -52 -24z" transform="translate(0.000000,116.000000) scale(0.100000,-0.100000)" stroke="none" fill="#BCC8A7"/>

<path d="M345 1091 c-71 -18 -134 -61 -174 -119 -21 -30 -23 -41 -17 -105 12 -153 12 -178 -2 -189 -7 -6 -18 -21 -24 -32 -6 -12 6 -2 26 20 19 23 57 55 83 72 60 38 279 101 359 104 49 1 52 2 17 5 -32 3 -43 8 -43 21 0 31 -82 182 -110 202 -34 24 -74 31 -115 21z m25 -105 c0 -16 -18 -31 -27 -22 -8 8 5 36 17 36 5 0 10 -6 10 -14z m-87 -51 c1 -5 -6 -11 -15 -13 -11 -2 -18 3 -18 13 0 17 30 18 33 0z" transform="translate(0.000000,116.000000) scale(0.100000,-0.100000)" stroke="none" fill="#F8D8D8"/>

<path d="M515 831 c-22 -5 -60 -16 -84 -25 -24 -9 -53 -16 -65 -16 -40 0 -146 -59 -194 -107 -26 -27 -63 -75 -82 -108 -33 -55 -35 -65 -35 -145 0 -75 4 -93 32 -153 47 -99 120 -168 208 -197 65 -22 76 -22 170 -13 140 15 246 66 339 163 92 95 110 139 111 265 0 88 -3 107 -26 156 -57 120 -142 180 -263 185 -39 1 -89 -1 -111 -5z m21 -106 c20 -31 9 -65 -31 -91 -25 -16 -27 -16 -53 3 -54 40 -32 113 34 113 25 0 38 -7 50 -25z m198 -66 c29 -23 33 -54 10 -87 -19 -28 -57 -29 -84 -2 -26 26 -25 51 1 84 25 31 38 32 73 5z m-434 -54 c50 -26 29 -105 -27 -105 -54 0 -84 67 -47 104 19 20 37 20 74 1z m273 -136 c25 -35 16 -86 -19 -99 -29 -11 -81 5 -94 30 -15 28 -12 44 11 74 28 35 73 33 102 -5z m219 -48 c29 -26 32 -32 23 -57 -23 -66 -115 -49 -115 21 0 24 7 39 22 49 30 21 33 21 70 -13z m-446 -114 c45 -39 32 -117 -20 -117 -56 1 -82 75 -41 120 23 25 28 25 61 -3z" transform="translate(0.000000,116.000000) scale(0.100000,-0.100000)" stroke="none" fill="#D03D30"/>

</svg>