<?xml version="1.0" standalone="no"?>
<!DOCTYPE svg PUBLIC "-//W3C//DTD SVG 20010904//EN"
 "http://www.w3.org/TR/2001/REC-SVG-20010904/DTD/svg10.dtd">
<svg version="1.0" xmlns="http://www.w3.org/2000/svg" 
width="120.000000pt" height="142.000000pt" viewBox="0 0 120.000000 142.000000"
preserveAspectRatio = "xMidYMid meet" >
<metadata>
Created by ZoeQU, 2022
</metadata>
<rect width="120.000000" height="142.000000" fill="#FDFDFD"/>
<path d="M865 558 c-15 -22 -17 -22 -26 -5 -16 27 -43 3 -28 -25 14 -26 3 -36 -21 -20 -32 20 -39 14 -33 -23 7 -43 -14 -64 -64 -65 -38 0 -40 -6 -14 -39 17 -22 23 -24 80 -18 60 5 63 4 74 -21 21 -50 70 -127 101 -161 29 -31 155 -101 183 -101 19 0 16 17 -4 24 -86 31 -176 140 -219 264 -10 28 -9 36 5 50 21 20 55 127 46 142 -4 6 -14 10 -23 8 -10 -1 -22 1 -29 5 -7 4 -18 -2 -28 -15z" transform="translate(0.000000,142.000000) scale(0.100000,-0.100000)" stroke="none" fill="#6B8559"/>

<path d="M908 1319 c-12 -6 -18 -22 -18 -44 0 -46 -12 -50 -39 -15 -12 17 -30 30 -39 30 -22 0 -62 -35 -62 -55 0 -7 -10 -15 -22 -17 -19 -2 -24 -10 -26 -46 l-3 -43 -47 7 c-26 3 -58 1 -73 -4 -15 -6 -31 -6 -41 -1 -26 14 -68 -10 -75 -43 -4 -18 -12 -28 -24 -28 -10 0 -31 -11 -46 -24 l-28 -25 18 -32 c18 -32 18 -32 -10 -61 -15 -16 -28 -41 -29 -56 -1 -15 -3 -30 -3 -34 -1 -4 -25 -4 -54 -2 -47 4 -56 2 -87 -25 l-35 -30 17 -29 c20 -34 23 -46 8 -37 -23 14 -68 -6 -81 -37 -11 -27 -10 -32 5 -44 16 -11 17 -18 7 -45 -6 -18 -21 -39 -32 -47 -17 -12 -20 -22 -16 -53 3 -26 0 -42 -9 -50 -34 -28 -10 -61 73 -102 87 -43 138 -52 308 -52 168 0 233 12 287 54 13 10 37 21 53 24 29 5 32 3 60 -56 55 -111 153 -196 259 -223 27 -7 44 12 27 29 -9 9 -11 8 -6 -5 10 -26 -11 -23 -90 16 -91 44 -152 113 -202 228 -11 25 -14 26 -74 21 -57 -6 -63 -4 -80 18 -26 33 -24 39 14 39 50 1 71 22 64 65 -6 37 1 43 33 23 24 -16 35 -6 21 20 -15 28 12 52 28 25 9 -17 11 -17 26 5 10 13 21 19 28 15 7 -4 19 -6 29 -5 9 2 19 -2 23 -8 10 -15 -25 -122 -46 -143 -19 -18 -19 -22 15 -97 18 -43 57 -102 63 -97 3 3 -6 21 -19 39 -14 18 -34 56 -45 84 -19 47 -19 53 -5 67 16 17 35 62 57 137 7 25 24 68 38 95 30 61 57 182 101 452 10 62 -42 153 -89 153 -16 0 -24 9 -31 38 -7 29 -14 38 -34 39 -14 2 -33 -2 -42 -8z" transform="translate(0.000000,142.000000) scale(0.100000,-0.100000)" stroke="none" fill="#F7CBC0"/>

</svg>