<?xml version="1.0" standalone="no"?>
<!DOCTYPE svg PUBLIC "-//W3C//DTD SVG 20010904//EN"
 "http://www.w3.org/TR/2001/REC-SVG-20010904/DTD/svg10.dtd">
<svg version="1.0" xmlns="http://www.w3.org/2000/svg" 
width="163.000000pt" height="231.000000pt" viewBox="0 0 163.000000 231.000000"
preserveAspectRatio = "xMidYMid meet" >
<metadata>
Created by ZoeQU, 2022
</metadata>
<rect width="163.000000" height="231.000000" fill="#FDFDFC"/>
<path d="M753 1552 c-10 -37 -9 -42 8 -47 10 -4 24 -3 30 1 7 4 42 17 78 29 62 21 64 23 41 35 -13 7 -51 15 -85 18 l-62 4 -10 -40z" transform="translate(0.000000,231.000000) scale(0.100000,-0.100000)" stroke="none" fill="#090D0F"/>

<path d="M1320 1471 c0 -5 10 -15 23 -24 12 -8 43 -35 68 -61 l46 -46 7 50 c4 28 4 55 1 60 -14 22 -145 41 -145 21z" transform="translate(0.000000,231.000000) scale(0.100000,-0.100000)" stroke="none" fill="#090D0F"/>

<path d="M720 743 c-7 -32 -18 -73 -26 -90 l-13 -33 50 0 49 0 0 50 c0 44 -30 130 -44 130 -3 0 -10 -26 -16 -57z" transform="translate(0.000000,231.000000) scale(0.100000,-0.100000)" stroke="none" fill="#090D0F"/>

<path d="M652 1262 c14 -33 39 -105 49 -142 l12 -45 18 40 c18 40 25 109 13 139 -4 11 -19 16 -51 16 -25 0 -43 -3 -41 -8z" transform="translate(0.000000,231.000000) scale(0.100000,-0.100000)" stroke="none" fill="#090D0F"/>

<path d="M156 658 c-39 -52 -66 -107 -59 -124 5 -13 9 -13 29 1 29 18 28 20 8 -54 -16 -57 -14 -91 4 -91 11 0 37 56 46 98 4 18 12 30 16 27 9 -5 5 54 -9 140 l-6 40 -29 -37z" transform="translate(0.000000,231.000000) scale(0.100000,-0.100000)" stroke="none" fill="#090D0F"/>

<path d="M795 1032 c15 -22 29 -59 32 -83 l6 -42 18 24 19 24 0 -40 c0 -22 -9 -76 -19 -120 -16 -65 -17 -76 -4 -60 38 51 56 103 61 173 4 66 3 75 -19 98 -25 27 -57 46 -97 59 l-23 7 26 -40z" transform="translate(0.000000,231.000000) scale(0.100000,-0.100000)" stroke="none" fill="#090D0F"/>

<path d="M1198 2157 c-10 -23 -18 -50 -18 -60 0 -19 -15 -23 -25 -7 -12 20 -25 9 -25 -20 0 -29 1 -30 48 -30 26 -1 65 -7 87 -15 22 -8 43 -15 46 -15 4 0 9 20 11 45 3 43 3 44 -19 30 -30 -20 -33 -19 -33 13 0 29 -30 94 -46 99 -5 2 -17 -16 -26 -40z" transform="translate(0.000000,231.000000) scale(0.100000,-0.100000)" stroke="none" fill="#090D0F"/>

<path d="M560 968 c33 -97 49 -194 28 -166 -7 9 -18 25 -24 35 -9 14 -11 9 -7 -30 5 -39 1 -54 -21 -87 l-27 -41 38 16 c49 20 73 43 89 82 19 44 17 80 -7 133 -23 51 -81 140 -91 140 -4 0 6 -37 22 -82z" transform="translate(0.000000,231.000000) scale(0.100000,-0.100000)" stroke="none" fill="#090D0F"/>

<path d="M710 251 c0 -29 21 -61 40 -61 33 0 57 -17 64 -45 6 -22 12 -25 49 -25 23 0 65 3 93 6 42 5 54 11 63 31 6 13 11 28 11 33 0 6 -49 10 -115 10 l-115 0 0 30 c0 29 -2 30 -45 30 -25 0 -45 -4 -45 -9z" transform="translate(0.000000,231.000000) scale(0.100000,-0.100000)" stroke="none" fill="#090D0F"/>

<path d="M290 236 c0 -30 36 -76 60 -76 10 0 21 -7 24 -15 8 -23 68 -45 121 -45 52 0 61 17 13 23 -25 3 -22 4 15 5 47 2 47 2 47 37 l0 35 -105 0 -105 0 0 30 c0 28 -3 30 -35 30 -30 0 -35 -3 -35 -24z m157 -102 c-3 -3 -12 -4 -19 -1 -8 3 -5 6 6 6 11 1 17 -2 13 -5z" transform="translate(0.000000,231.000000) scale(0.100000,-0.100000)" stroke="none" fill="#090D0F"/>

<path d="M825 1424 c-11 -3 -37 -10 -59 -15 l-38 -10 4 -60 4 -59 -48 0 c-32 0 -48 -4 -48 -12 1 -16 39 -87 39 -73 0 6 -6 21 -14 35 -21 37 -19 40 29 40 49 0 56 -8 57 -68 0 -29 2 -32 8 -17 8 20 8 20 15 -2 10 -32 111 -129 158 -152 24 -11 78 -26 120 -32 70 -10 84 -9 147 10 89 27 164 93 212 185 l33 64 -24 20 c-46 37 -185 103 -260 123 -74 19 -291 34 -335 23z m214 -123 c19 -12 6 -41 -18 -41 -26 0 -36 17 -21 35 14 17 20 18 39 6z m116 -32 c9 -26 -12 -41 -37 -28 -20 11 -20 11 -12 33 9 23 42 20 49 -5z m-94 -96 c-6 -21 -11 -44 -11 -50 0 -24 49 -13 85 18 37 33 49 23 15 -11 -48 -48 -119 -48 -170 0 -29 27 -41 70 -20 70 6 0 10 -8 10 -17 0 -20 38 -63 55 -63 7 0 15 21 19 48 6 48 17 73 24 53 2 -5 -1 -27 -7 -48z" transform="translate(0.000000,231.000000) scale(0.100000,-0.100000)" stroke="none" fill="#828586"/>

</svg>