<?xml version="1.0" standalone="no"?>
<!DOCTYPE svg PUBLIC "-//W3C//DTD SVG 20010904//EN"
 "http://www.w3.org/TR/2001/REC-SVG-20010904/DTD/svg10.dtd">
<svg version="1.0" xmlns="http://www.w3.org/2000/svg" 
width="124.000000pt" height="120.000000pt" viewBox="0 0 124.000000 120.000000"
preserveAspectRatio = "xMidYMid meet" >
<metadata>
Created by ZoeQU, 2022
</metadata>
<rect width="124.000000" height="120.000000" fill="#F7F7EE"/>
<path d="M620 648 c0 -19 49 -76 70 -83 23 -7 50 10 50 30 0 8 -15 19 -34 25 -19 6 -40 18 -46 26 -15 17 -40 19 -40 2z" transform="translate(0.000000,120.000000) scale(0.100000,-0.100000)" stroke="none" fill="#292829"/>

<path d="M463 776 c-38 -39 -43 -47 -33 -65 19 -37 43 -25 73 37 15 31 27 60 27 65 0 18 -26 4 -67 -37z" transform="translate(0.000000,120.000000) scale(0.100000,-0.100000)" stroke="none" fill="#DBA588"/>

<path d="M635 781 c-3 -10 -1 -30 4 -43 10 -28 78 -88 98 -88 7 0 20 -11 29 -26 11 -16 24 -24 38 -22 17 2 21 10 20 39 -1 49 -35 93 -97 129 -60 35 -83 37 -92 11z m73 -11 c52 -27 66 -40 91 -80 27 -45 28 -80 2 -80 -10 0 -21 6 -24 14 -3 8 -30 30 -60 50 -53 35 -86 83 -72 105 9 15 21 14 63 -9z" transform="translate(0.000000,120.000000) scale(0.100000,-0.100000)" stroke="none" fill="#DBA588"/>

<path d="M777 538 c-24 -27 -31 -30 -67 -24 -32 5 -42 3 -46 -9 -9 -23 25 -55 58 -55 41 0 113 68 104 98 -9 29 -15 27 -49 -10z" transform="translate(0.000000,120.000000) scale(0.100000,-0.100000)" stroke="none" fill="#292829"/>

<path d="M555 703 c-29 -43 -32 -90 -10 -133 14 -28 60 -60 85 -60 16 0 12 32 -10 75 -13 26 -20 59 -20 97 0 32 -4 58 -10 58 -5 0 -21 -17 -35 -37z" transform="translate(0.000000,120.000000) scale(0.100000,-0.100000)" stroke="none" fill="#292829"/>

<path d="M645 779 c-14 -22 19 -70 72 -105 30 -20 57 -42 60 -50 3 -8 14 -14 24 -14 26 0 25 35 -2 80 -25 40 -39 53 -91 80 -42 23 -54 24 -63 9z" transform="translate(0.000000,120.000000) scale(0.100000,-0.100000)" stroke="none" fill="#292829"/>

<path d="M345 696 c-55 -83 -25 -240 61 -316 53 -46 73 -36 35 18 -23 33 -53 164 -59 255 -4 72 -12 81 -37 43z" transform="translate(0.000000,120.000000) scale(0.100000,-0.100000)" stroke="none" fill="#DBA588"/>

<path d="M546 708 c-23 -36 -27 -51 -23 -93 4 -42 10 -54 43 -83 27 -23 46 -32 61 -29 15 3 23 -1 23 -9 0 -25 39 -54 73 -54 26 0 42 10 77 45 40 40 43 47 32 70 -17 37 -24 35 -71 -21 -10 -12 -23 -15 -52 -10 -24 4 -40 2 -45 -6 -6 -9 -33 56 -34 80 0 2 14 -8 31 -23 35 -29 66 -30 83 -2 14 23 -2 49 -37 58 -15 4 -38 16 -53 28 -14 11 -30 18 -35 15 -5 -3 -9 13 -9 35 0 56 -26 55 -64 -1z m56 -35 c2 -40 7 -67 13 -66 6 1 11 -6 12 -15 0 -9 4 -32 8 -49 9 -38 0 -41 -45 -18 -36 18 -60 62 -60 107 0 33 42 108 60 108 5 0 10 -30 12 -67z m58 -27 c6 -8 27 -20 46 -26 19 -6 34 -17 34 -25 0 -20 -27 -37 -50 -30 -21 7 -70 64 -70 83 0 17 25 15 40 -2z m166 -98 c9 -30 -63 -98 -104 -98 -33 0 -67 32 -58 55 4 12 14 14 46 9 36 -6 43 -3 67 24 34 37 40 39 49 10z" transform="translate(0.000000,120.000000) scale(0.100000,-0.100000)" stroke="none" fill="#DBA588"/>

<path d="M580 889 c0 -8 24 -24 53 -37 78 -34 181 -113 201 -156 17 -35 46 -49 46 -22 0 8 -5 38 -12 67 -22 93 -102 150 -220 157 -53 3 -68 1 -68 -9z" transform="translate(0.000000,120.000000) scale(0.100000,-0.100000)" stroke="none" fill="#DBA588"/>

<path d="M903 833 c23 -123 25 -146 17 -204 -4 -35 -13 -77 -19 -93 -21 -53 5 -72 54 -40 76 49 75 257 -2 340 -31 34 -57 32 -50 -3z" transform="translate(0.000000,120.000000) scale(0.100000,-0.100000)" stroke="none" fill="#DBA588"/>

<path d="M428 618 c-6 -18 18 -94 42 -133 45 -72 150 -145 210 -145 41 0 90 22 119 54 29 31 22 44 -14 28 -60 -28 -121 -9 -225 68 -52 39 -73 61 -87 95 -18 44 -37 58 -45 33z" transform="translate(0.000000,120.000000) scale(0.100000,-0.100000)" stroke="none" fill="#DBA588"/>

<path d="M525 1016 c-44 -20 -120 -91 -135 -126 -10 -24 -10 -37 -1 -57 l12 -26 47 50 c70 75 96 85 205 81 51 -2 100 -7 110 -12 13 -6 17 -4 17 14 0 35 -17 57 -60 74 -49 19 -153 20 -195 2z" transform="translate(0.000000,120.000000) scale(0.100000,-0.100000)" stroke="none" fill="#DBA588"/>

<path d="M450 1145 c-104 -30 -119 -37 -157 -64 -47 -34 -175 -177 -198 -220 -8 -17 -20 -31 -25 -31 -5 0 -7 -6 -5 -12 7 -19 -19 -113 -30 -111 -5 1 -13 19 -16 40 l-6 38 -2 -37 c-1 -28 4 -41 19 -50 15 -10 20 -24 20 -58 0 -25 7 -65 15 -90 8 -25 17 -57 19 -71 3 -14 37 -61 76 -105 39 -43 78 -92 87 -109 8 -16 31 -46 49 -66 28 -28 34 -42 32 -70 -3 -29 0 -34 19 -37 17 -3 26 3 33 23 l10 26 28 -21 c27 -20 85 -38 197 -62 51 -10 72 -6 203 39 65 23 181 155 269 309 93 161 102 187 95 294 l-5 85 -58 75 c-80 105 -105 131 -177 185 -90 67 -242 115 -362 114 -47 0 -105 -6 -130 -14z m270 -131 c43 -17 60 -39 60 -74 0 -18 -4 -20 -17 -14 -10 5 -59 10 -110 12 -109 4 -135 -6 -205 -81 l-47 -50 -12 26 c-9 20 -9 33 1 57 15 35 91 106 135 126 42 18 146 17 195 -2z m34 -139 c62 -30 100 -75 114 -134 17 -73 16 -81 -11 -79 -16 1 -23 8 -23 23 1 11 -4 19 -11 18 -7 -2 -10 4 -7 12 7 18 -110 105 -183 137 -29 13 -53 29 -53 37 0 20 125 10 174 -14z m199 -39 c77 -83 78 -291 2 -340 -49 -32 -75 -13 -54 40 6 16 15 58 19 93 8 58 6 81 -17 204 -7 35 19 37 50 3z m-423 -23 c0 -5 -12 -34 -27 -65 -30 -62 -54 -74 -73 -37 -10 18 -5 26 33 65 41 41 67 55 67 37z m147 1 c-3 -3 -12 -4 -19 -1 -8 3 -5 6 6 6 11 1 17 -2 13 -5z m34 -22 c-7 -2 8 -16 31 -31 54 -34 81 -74 82 -120 1 -29 -3 -37 -20 -39 -14 -2 -27 6 -38 22 -9 15 -22 26 -29 26 -6 0 -4 -5 6 -11 9 -5 17 -15 17 -21 0 -7 -6 -6 -15 2 -10 9 -8 -1 6 -28 19 -35 24 -39 36 -26 21 20 32 17 45 -11 9 -20 8 -28 -5 -43 -10 -10 -16 -21 -15 -23 2 -2 1 -3 -1 -1 -8 4 -41 -31 -36 -38 3 -4 -22 -7 -54 -7 -33 0 -60 3 -59 6 0 3 0 13 -1 21 -1 13 -2 13 -11 0 -6 -9 -10 -10 -10 -3 0 6 -10 14 -22 16 -22 4 -21 4 2 6 23 1 63 41 41 41 -5 0 -11 -7 -15 -15 -8 -23 -35 -18 -75 12 -20 16 -39 27 -42 26 -4 -1 -6 31 -6 72 0 41 4 72 9 69 8 -5 12 9 9 36 -2 13 -1 13 8 0 9 -12 11 -12 17 3 9 25 42 21 46 -5 2 -16 9 -22 23 -21 18 1 18 0 -4 -16 -20 -16 -21 -18 -5 -18 11 0 26 5 34 11 13 9 13 9 2 -6 -12 -14 -10 -19 13 -34 14 -9 29 -14 32 -10 4 4 -3 9 -15 13 -23 6 -31 23 -10 23 6 0 0 13 -15 28 -15 15 -27 35 -28 43 0 8 -4 6 -9 -6 -7 -16 -9 -17 -9 -3 -1 9 4 28 10 42 10 21 18 25 51 23 22 -1 35 -3 29 -5z m-329 -139 c6 -91 36 -222 59 -255 38 -54 18 -64 -35 -18 -86 76 -116 233 -61 316 25 38 33 29 37 -43z m125 -45 c-2 -13 -4 -3 -4 22 0 25 2 35 4 23 2 -13 2 -33 0 -45z m-34 -23 c14 -34 35 -56 87 -95 104 -77 165 -96 225 -68 36 16 43 3 14 -28 -50 -55 -123 -68 -190 -34 -83 43 -147 118 -172 202 -24 78 6 97 36 23z m384 -57 c-3 -8 -6 -5 -6 6 -1 11 2 17 5 13 3 -3 4 -12 1 -19z m-114 -105 c-7 -2 -21 -2 -30 0 -10 3 -4 5 12 5 17 0 24 -2 18 -5z m-373 -294 c0 -20 -25 -37 -37 -25 -3 3 -1 17 5 32 13 28 32 24 32 -7z" transform="translate(0.000000,120.000000) scale(0.100000,-0.100000)" stroke="none" fill="#F7DEC6"/>

</svg>