<?xml version="1.0" standalone="no"?>
<!DOCTYPE svg PUBLIC "-//W3C//DTD SVG 20010904//EN"
 "http://www.w3.org/TR/2001/REC-SVG-20010904/DTD/svg10.dtd">
<svg version="1.0" xmlns="http://www.w3.org/2000/svg" 
width="188.000000pt" height="164.000000pt" viewBox="0 0 188.000000 164.000000"
preserveAspectRatio = "xMidYMid meet" >
<metadata>
Created by ZoeQU, 2022
</metadata>
<rect width="188.000000" height="164.000000" fill="#F7F7EE"/>
<path d="M736 992 c-3 -5 -6 -51 -7 -103 -2 -106 9 -138 69 -202 l36 -37 -41 -42 c-36 -35 -44 -40 -57 -29 -11 10 -16 10 -16 2 0 -28 33 -21 74 15 24 22 45 43 45 48 1 5 -15 26 -35 48 -20 22 -42 55 -50 74 -18 44 -19 220 -1 227 9 4 9 6 0 6 -6 1 -14 -3 -17 -7z" transform="translate(0.000000,164.000000) scale(0.100000,-0.100000)" stroke="none" fill="#BDCFB8"/>

<path d="M1207 1473 c-4 -3 -7 -16 -6 -27 0 -19 1 -19 10 3 7 18 12 21 23 12 26 -22 55 -107 66 -197 12 -90 32 -154 49 -154 9 0 101 104 101 115 0 4 -21 -18 -47 -49 -26 -31 -50 -56 -54 -56 -12 0 -29 52 -29 90 0 57 -27 166 -56 221 -23 45 -41 59 -57 42z" transform="translate(0.000000,164.000000) scale(0.100000,-0.100000)" stroke="none" fill="#BDCFB8"/>

<path d="M551 371 c-20 -16 -31 -33 -27 -39 11 -19 25 -14 19 6 -3 13 6 24 31 37 l36 20 62 -62 c85 -83 264 -171 291 -144 8 8 5 17 -13 34 -21 19 -22 19 -7 1 25 -30 12 -35 -47 -14 -87 30 -138 60 -212 126 -39 35 -78 64 -85 64 -8 0 -29 -13 -48 -29z" transform="translate(0.000000,164.000000) scale(0.100000,-0.100000)" stroke="none" fill="#BDCFB8"/>

<path d="M1653 1557 c-18 -12 -33 -26 -33 -31 0 -4 15 3 34 18 44 33 66 34 66 2 0 -37 -18 -76 -56 -122 -19 -23 -34 -47 -34 -52 0 -5 37 -9 82 -8 70 1 83 -2 86 -16 2 -12 -12 -25 -45 -42 -26 -14 -43 -25 -36 -26 17 0 92 42 97 56 2 6 -1 19 -7 28 -13 18 -104 25 -147 11 -24 -8 -24 -7 -7 16 63 88 70 102 71 142 1 35 -2 42 -19 44 -11 1 -35 -8 -52 -20z" transform="translate(0.000000,164.000000) scale(0.100000,-0.100000)" stroke="none" fill="#BDCFB8"/>

<path d="M795 539 c-50 -37 -51 -41 -23 -65 l23 -19 -18 22 c-19 21 -18 22 23 52 l41 30 49 -31 c72 -45 198 -78 294 -78 69 0 122 11 106 22 -3 2 -16 12 -30 23 l-25 20 18 -21 c9 -11 17 -24 17 -27 0 -4 -35 -7 -78 -7 -98 0 -240 38 -300 80 -23 16 -46 30 -50 29 -4 0 -25 -14 -47 -30z" transform="translate(0.000000,164.000000) scale(0.100000,-0.100000)" stroke="none" fill="#BDCFB8"/>

<path d="M1050 1241 c-13 -26 -12 -70 4 -165 9 -48 21 -85 32 -95 16 -14 17 -14 6 0 -17 22 -46 210 -38 243 8 33 21 33 53 -1 33 -37 62 -93 89 -178 12 -38 26 -70 30 -71 5 -2 22 14 39 34 l29 37 -32 -29 c-17 -16 -33 -28 -35 -25 -1 2 -13 35 -26 73 -33 99 -96 196 -127 196 -7 0 -18 -9 -24 -19z" transform="translate(0.000000,164.000000) scale(0.100000,-0.100000)" stroke="none" fill="#BDCFB8"/>

<path d="M1495 875 c6 -2 22 -6 38 -9 41 -10 33 -35 -20 -58 -42 -18 -59 -20 -148 -14 -55 3 -128 11 -163 17 -68 12 -95 8 -86 -15 3 -9 28 -16 72 -20 37 -3 91 -9 121 -12 38 -4 51 -3 47 5 -5 8 14 11 60 11 79 0 154 29 154 61 0 21 -29 39 -62 38 -13 0 -18 -2 -13 -4z m-338 -71 c-3 -3 -12 -4 -19 -1 -8 3 -5 6 6 6 11 1 17 -2 13 -5z m158 -24 c13 -6 5 -7 -25 -3 -25 3 -47 7 -49 9 -9 8 55 2 74 -6z" transform="translate(0.000000,164.000000) scale(0.100000,-0.100000)" stroke="none" fill="#BDCFB8"/>

<path d="M1410 745 c79 -26 75 -24 59 -40 -15 -15 -169 -38 -193 -29 -8 3 -17 0 -21 -6 -5 -8 10 -27 36 -50 66 -57 46 -66 -75 -35 -108 27 -118 33 -152 87 -29 45 -44 47 -90 11 -39 -32 -43 -48 -12 -56 29 -8 36 -1 9 8 -29 9 -26 16 14 43 46 29 53 28 70 -12 19 -45 61 -69 167 -95 123 -30 152 -13 82 49 -20 17 -35 33 -33 34 2 2 44 8 93 15 96 13 130 25 123 44 -5 16 -47 36 -88 42 -28 4 -26 2 11 -10z" transform="translate(0.000000,164.000000) scale(0.100000,-0.100000)" stroke="none" fill="#BDCFB8"/>

<path d="M1535 1210 c-12 -5 19 -6 71 -3 164 10 212 -16 111 -61 -64 -28 -160 -46 -249 -46 -69 0 -96 -15 -84 -45 4 -11 22 -15 71 -15 35 0 86 -5 112 -11 27 -6 61 -14 78 -18 16 -4 31 -13 33 -22 4 -22 -82 -61 -153 -69 l-60 -7 56 -2 c44 -1 68 5 110 27 67 35 77 65 27 80 -53 16 -149 32 -208 35 -41 1 -55 6 -55 17 0 12 23 16 117 22 99 7 129 13 193 39 79 33 96 57 56 79 -23 12 -197 12 -226 0z" transform="translate(0.000000,164.000000) scale(0.100000,-0.100000)" stroke="none" fill="#BDCFB8"/>

<path d="M478 653 c-16 -39 -20 -69 -21 -160 0 -108 -1 -113 -26 -137 -26 -24 -248 -176 -257 -176 -3 0 -23 -14 -45 -32 -27 -22 -39 -39 -37 -52 5 -35 35 -29 95 17 32 25 96 69 142 97 94 59 89 59 175 -10 39 -31 64 -41 118 -51 37 -7 71 -9 75 -5 4 3 -6 19 -22 34 -16 15 -22 18 -12 6 25 -30 21 -36 -20 -29 -72 12 -104 27 -165 76 -57 46 -63 48 -82 34 -12 -8 -43 -28 -71 -44 -27 -16 -84 -55 -125 -85 -76 -57 -100 -67 -100 -43 0 17 43 56 105 95 59 37 125 82 205 139 l58 42 0 113 c0 114 17 192 45 210 9 6 9 8 -1 8 -7 0 -22 -21 -34 -47z" transform="translate(0.000000,164.000000) scale(0.100000,-0.100000)" stroke="none" fill="#BDCFB8"/>

<path d="M1436 1537 c-18 -48 -22 -157 -5 -174 6 -6 11 -42 12 -81 0 -68 -1 -71 -42 -121 -24 -28 -47 -51 -52 -51 -17 0 -37 64 -49 154 -11 90 -40 175 -66 197 -11 9 -16 5 -24 -17 -15 -38 -15 -163 -1 -177 6 -6 11 -21 11 -33 0 -13 5 -26 10 -29 6 -3 10 -17 10 -30 0 -13 5 -27 10 -30 6 -3 10 -16 10 -29 0 -12 4 -26 9 -32 20 -20 15 -51 -12 -84 -16 -18 -32 -29 -36 -24 -4 5 -15 36 -25 69 -31 102 -94 205 -125 205 -35 0 -11 -208 33 -295 14 -27 26 -54 26 -60 -1 -15 -58 -75 -72 -75 -12 0 -49 102 -63 174 -8 39 -62 116 -82 116 -13 0 -15 -9 -9 -62 11 -96 36 -198 62 -249 l23 -46 -23 -22 c-29 -27 -43 -27 -52 2 -15 50 -44 103 -68 126 -14 14 -26 30 -26 36 0 6 -13 24 -30 40 -16 16 -30 35 -30 42 0 7 -4 13 -10 13 -16 0 -12 -185 4 -224 8 -19 30 -52 50 -74 20 -22 36 -43 35 -48 0 -5 -21 -26 -45 -48 -62 -55 -74 -46 -74 54 l0 81 -46 42 c-48 44 -57 45 -59 12 -1 -11 -5 -40 -9 -65 -4 -30 0 -76 12 -135 10 -49 17 -94 15 -100 -5 -15 -82 -67 -90 -62 -5 3 -8 25 -8 49 0 39 2 43 23 41 19 -2 22 2 22 29 0 45 -22 148 -32 148 -4 0 -8 -7 -8 -15 0 -8 -4 -15 -10 -15 -5 0 -10 7 -10 15 0 32 -19 12 -36 -37 -12 -38 -17 -83 -16 -161 l1 -108 -59 -42 c-80 -57 -146 -102 -205 -139 -62 -39 -105 -78 -105 -95 0 -24 24 -14 100 43 41 30 98 69 125 85 28 16 59 36 71 44 19 14 25 12 82 -34 33 -27 76 -54 94 -59 54 -17 108 -24 108 -14 0 12 -34 42 -47 42 -5 0 -18 9 -28 20 -10 11 -23 20 -30 20 -7 0 -20 9 -30 20 -9 10 -22 18 -27 17 -21 -4 -18 21 3 26 20 5 21 8 9 23 -13 14 -10 20 20 45 19 16 41 29 49 29 7 0 46 -29 85 -64 74 -66 125 -96 213 -127 52 -17 76 -12 49 10 -8 7 -12 20 -9 31 4 14 -4 25 -31 41 -20 11 -36 25 -36 30 0 5 21 9 48 9 26 0 57 3 70 6 24 7 30 24 9 24 -8 0 -24 11 -37 25 -30 31 -75 55 -107 55 -31 0 -103 41 -103 60 0 6 86 70 95 70 2 0 24 -14 47 -30 60 -43 202 -80 301 -80 109 0 101 15 -48 89 -85 42 -149 69 -179 77 -35 8 -33 24 8 57 46 36 61 34 90 -11 34 -54 44 -60 152 -87 121 -31 141 -22 75 35 -26 23 -41 42 -36 50 4 6 13 9 21 6 8 -3 51 -1 96 5 80 10 117 24 101 40 -20 19 -146 43 -285 55 -44 4 -69 11 -72 20 -9 23 18 27 86 15 35 -6 108 -14 163 -17 89 -6 106 -4 148 14 48 21 61 46 30 56 -45 13 -204 32 -300 36 -21 0 -15 17 20 49 38 36 44 37 100 12 111 -50 172 -53 259 -14 65 29 74 53 23 64 -17 4 -51 12 -78 18 -26 6 -77 11 -112 11 -49 0 -67 4 -71 15 -12 30 15 45 84 45 89 0 185 18 249 46 104 46 52 71 -124 60 -97 -6 -104 -5 -101 11 2 13 16 20 54 24 57 7 155 39 216 70 26 13 38 26 36 37 -3 14 -16 17 -86 16 -45 -1 -82 3 -82 8 0 5 15 29 34 52 57 68 76 146 37 146 -25 0 -153 -126 -170 -168 -23 -56 -36 -33 -33 55 5 94 -2 123 -27 123 -12 0 -24 -14 -35 -43z" transform="translate(0.000000,164.000000) scale(0.100000,-0.100000)" stroke="none" fill="#83A57F"/>

</svg>