<?xml version="1.0" standalone="no"?>
<!DOCTYPE svg PUBLIC "-//W3C//DTD SVG 20010904//EN"
 "http://www.w3.org/TR/2001/REC-SVG-20010904/DTD/svg10.dtd">
<svg version="1.0" xmlns="http://www.w3.org/2000/svg" 
width="56.000000pt" height="84.000000pt" viewBox="0 0 56.000000 84.000000"
preserveAspectRatio = "xMidYMid meet" >
<metadata>
Created by ZoeQU, 2022
</metadata>
<rect width="56.000000" height="84.000000" fill="#F7F7EE"/>
<path d="M200 734 c-11 -25 -31 -79 -44 -118 -13 -39 -42 -116 -66 -171 -69 -161 -67 -279 7 -364 47 -55 86 -62 157 -27 46 22 64 26 129 24 71 -3 78 -1 103 24 43 43 49 112 17 201 -39 110 -77 181 -130 250 -81 102 -111 151 -115 188 -7 53 -34 50 -58 -7z m44 3 c6 -34 82 -152 138 -216 57 -65 130 -242 129 -314 -1 -98 -47 -137 -137 -118 -53 12 -61 11 -134 -30 -44 -24 -67 -24 -107 1 -41 24 -68 79 -77 151 -8 78 5 139 59 264 25 58 45 110 45 115 0 19 62 180 70 180 4 0 11 -15 14 -33z" transform="translate(0.000000,84.000000) scale(0.100000,-0.100000)" stroke="none" fill="#B5CBBC"/>

<path d="M191 684 c-17 -47 -31 -89 -31 -94 0 -5 -20 -57 -45 -115 -54 -125 -67 -186 -59 -264 9 -72 36 -127 77 -151 40 -25 63 -25 107 -1 73 41 81 42 134 30 90 -19 136 20 137 118 1 72 -72 249 -129 314 -56 64 -132 182 -138 216 -3 18 -10 33 -14 33 -5 0 -22 -38 -39 -86z" transform="translate(0.000000,84.000000) scale(0.100000,-0.100000)" stroke="none" fill="#769D88"/>

</svg>