<?xml version="1.0" standalone="no"?>
<!DOCTYPE svg PUBLIC "-//W3C//DTD SVG 20010904//EN"
 "http://www.w3.org/TR/2001/REC-SVG-20010904/DTD/svg10.dtd">
<svg version="1.0" xmlns="http://www.w3.org/2000/svg" 
width="68.000000pt" height="66.000000pt" viewBox="0 0 68.000000 66.000000"
preserveAspectRatio = "xMidYMid meet" >
<metadata>
Created by ZoeQU, 2022
</metadata>
<rect width="68.000000" height="66.000000" fill="#F7F7EE"/>
<path d="M175 232 c11 -13 29 -28 40 -34 21 -11 18 -8 -30 32 -29 24 -29 24 -10 2z" transform="translate(0.000000,66.000000) scale(0.100000,-0.100000)" stroke="none" fill="#779B86"/>

<path d="M50 612 c0 -5 15 -19 33 -32 l32 -23 -29 31 c-31 34 -36 37 -36 24z" transform="translate(0.000000,66.000000) scale(0.100000,-0.100000)" stroke="none" fill="#779B86"/>

<path d="M460 497 c0 -2 15 -16 33 -33 l32 -29 -29 33 c-28 30 -36 37 -36 29z" transform="translate(0.000000,66.000000) scale(0.100000,-0.100000)" stroke="none" fill="#84A794"/>

<path d="M316 216 c6 -26 5 -28 -17 -21 -19 5 -21 4 -9 -4 34 -24 54 2 30 39 -8 11 -9 7 -4 -14z" transform="translate(0.000000,66.000000) scale(0.100000,-0.100000)" stroke="none" fill="#779B86"/>

<path d="M225 261 c5 -36 21 -61 38 -61 6 0 3 6 -5 13 -9 6 -22 28 -27 47 l-11 35 5 -34z" transform="translate(0.000000,66.000000) scale(0.100000,-0.100000)" stroke="none" fill="#779B86"/>

<path d="M540 185 c0 -6 7 -21 17 -34 16 -24 16 -24 -13 -17 -21 5 -25 4 -14 -4 15 -10 50 -14 50 -5 0 2 -9 19 -20 37 -11 18 -20 28 -20 23z" transform="translate(0.000000,66.000000) scale(0.100000,-0.100000)" stroke="none" fill="#779B86"/>

<path d="M173 563 c-13 -2 -23 -9 -23 -14 0 -13 30 -10 65 6 29 13 29 13 5 13 -14 0 -35 -3 -47 -5z" transform="translate(0.000000,66.000000) scale(0.100000,-0.100000)" stroke="none" fill="#537F66"/>

<path d="M483 375 c3 -11 11 -42 18 -68 6 -26 14 -46 16 -43 5 5 -23 116 -33 124 -3 4 -4 -2 -1 -13z" transform="translate(0.000000,66.000000) scale(0.100000,-0.100000)" stroke="none" fill="#779B86"/>

<path d="M192 311 c-2 -42 -3 -43 -17 -25 -8 10 -15 14 -15 8 0 -14 28 -39 36 -31 3 2 4 25 1 48 l-4 44 -1 -44z" transform="translate(0.000000,66.000000) scale(0.100000,-0.100000)" stroke="none" fill="#779B86"/>

<path d="M180 503 c1 -23 45 -56 68 -50 13 4 13 5 -4 6 -11 0 -29 10 -40 22 -16 17 -16 22 -4 29 13 8 12 10 -2 10 -11 0 -18 -7 -18 -17z" transform="translate(0.000000,66.000000) scale(0.100000,-0.100000)" stroke="none" fill="#779B86"/>

<path d="M365 488 c4 -11 -2 -13 -29 -10 -19 2 -41 0 -49 -5 -10 -5 6 -8 44 -9 61 -1 70 4 44 26 -13 11 -14 10 -10 -2z" transform="translate(0.000000,66.000000) scale(0.100000,-0.100000)" stroke="none" fill="#779B86"/>

<path d="M260 432 c0 -4 15 -23 34 -41 29 -28 39 -32 77 -28 l44 4 -46 1 c-40 2 -52 7 -78 37 -17 20 -31 32 -31 27z" transform="translate(0.000000,66.000000) scale(0.100000,-0.100000)" stroke="none" fill="#779B86"/>

<path d="M69 608 c7 -10 10 -18 6 -18 -5 0 0 -9 10 -20 20 -22 50 -26 61 -8 5 7 3 8 -5 3 -8 -4 -27 6 -49 26 -20 19 -30 26 -23 17z m32 -35 c13 -16 12 -17 -3 -4 -10 7 -18 15 -18 17 0 8 8 3 21 -13z" transform="translate(0.000000,66.000000) scale(0.100000,-0.100000)" stroke="none" fill="#84A794"/>

<path d="M370 150 c30 -5 75 -8 100 -8 l45 1 -55 7 c-30 5 -75 8 -100 8 l-45 -1 55 -7z" transform="translate(0.000000,66.000000) scale(0.100000,-0.100000)" stroke="none" fill="#779B86"/>

<path d="M219 557 c-24 -11 -19 -12 45 -14 41 -1 65 2 56 7 -29 15 -75 19 -101 7z" transform="translate(0.000000,66.000000) scale(0.100000,-0.100000)" stroke="none" fill="#648C75"/>

<path d="M295 450 c-13 -5 3 -9 47 -12 53 -3 73 -9 95 -28 l28 -25 -24 27 c-30 34 -104 53 -146 38z" transform="translate(0.000000,66.000000) scale(0.100000,-0.100000)" stroke="none" fill="#779B86"/>

<path d="M162 393 c-1 -32 2 -65 8 -73 7 -11 10 -6 10 23 0 21 5 47 11 58 7 15 7 24 -2 35 -20 24 -24 16 -27 -43z" transform="translate(0.000000,66.000000) scale(0.100000,-0.100000)" stroke="none" fill="#537F66"/>

<path d="M135 557 c-11 -7 -22 -13 -24 -14 -2 -2 2 -9 8 -17 8 -10 11 -35 7 -73 -5 -54 -5 -55 5 -18 6 22 8 54 6 71 -5 28 -3 30 21 29 22 -2 22 -1 4 2 -19 4 -21 7 -11 19 14 17 11 17 -16 1z" transform="translate(0.000000,66.000000) scale(0.100000,-0.100000)" stroke="none" fill="#779B86"/>

<path d="M370 331 c0 -12 139 -145 146 -139 3 4 2 17 -2 30 -6 20 -8 21 -13 5 -6 -15 -17 -7 -69 47 -34 35 -62 61 -62 57z" transform="translate(0.000000,66.000000) scale(0.100000,-0.100000)" stroke="none" fill="#779B86"/>

<path d="M180 442 c19 -15 21 -22 11 -40 -6 -11 -11 -38 -11 -59 0 -28 -3 -34 -10 -23 -9 13 -10 13 -10 0 1 -8 7 -24 15 -34 14 -18 15 -15 15 37 0 31 5 68 12 82 10 22 9 27 -8 40 -28 21 -40 18 -14 -3z" transform="translate(0.000000,66.000000) scale(0.100000,-0.100000)" stroke="none" fill="#648C75"/>

<path d="M435 282 c27 -28 51 -49 53 -48 3 4 -19 70 -27 77 -3 4 -22 10 -41 14 l-35 8 50 -51z" transform="translate(0.000000,66.000000) scale(0.100000,-0.100000)" stroke="none" fill="#537F66"/>

<path d="M206 501 c-11 -17 23 -34 51 -26 16 4 43 7 61 7 37 -1 43 13 10 22 -35 9 -116 7 -122 -3z" transform="translate(0.000000,66.000000) scale(0.100000,-0.100000)" stroke="none" fill="#537F66"/>

<path d="M200 510 c-12 -7 -12 -12 4 -29 23 -25 42 -26 87 -5 22 10 25 13 9 9 -61 -16 -76 -16 -89 -1 -19 22 5 30 75 24 30 -3 49 -1 42 3 -18 12 -110 11 -128 -1z" transform="translate(0.000000,66.000000) scale(0.100000,-0.100000)" stroke="none" fill="#648C75"/>

<path d="M320 303 c0 -16 5 -35 10 -43 6 -10 8 -3 3 23 -3 20 -2 37 3 37 11 0 134 -122 134 -132 0 -4 -19 -9 -42 -11 l-43 -4 48 -1 c32 -1 47 2 47 11 0 16 -131 147 -148 147 -6 0 -12 -12 -12 -27z" transform="translate(0.000000,66.000000) scale(0.100000,-0.100000)" stroke="none" fill="#779B86"/>

<path d="M380 332 c0 -4 27 -34 60 -67 63 -63 67 -62 48 10 -11 39 -17 46 -48 55 -42 12 -60 13 -60 2z m81 -21 c8 -7 30 -73 27 -77 -2 -1 -26 20 -53 48 l-50 51 35 -8 c19 -4 38 -10 41 -14z" transform="translate(0.000000,66.000000) scale(0.100000,-0.100000)" stroke="none" fill="#648C75"/>

<path d="M334 279 c4 -23 13 -54 22 -70 12 -25 20 -29 52 -27 l37 1 -37 4 c-28 3 -38 10 -47 31 -16 41 -24 82 -16 82 4 0 34 -27 66 -59 33 -32 59 -56 59 -52 0 10 -124 131 -134 131 -5 0 -6 -18 -2 -41z" transform="translate(0.000000,66.000000) scale(0.100000,-0.100000)" stroke="none" fill="#648C75"/>

<path d="M144 424 c-3 -25 -2 -59 2 -77 8 -26 9 -20 9 35 0 37 3 69 7 73 11 11 49 -19 45 -35 -2 -9 2 -21 10 -28 7 -8 13 -8 13 -2 0 32 63 -15 73 -55 4 -19 5 -19 6 -1 1 25 -47 76 -71 76 -10 0 -18 6 -18 14 0 14 -41 46 -59 46 -5 0 -13 -21 -17 -46z" transform="translate(0.000000,66.000000) scale(0.100000,-0.100000)" stroke="none" fill="#779B86"/>

<path d="M285 430 c-10 -16 54 -47 108 -53 61 -6 69 -1 38 27 -20 18 -138 39 -146 26z" transform="translate(0.000000,66.000000) scale(0.100000,-0.100000)" stroke="none" fill="#537F66"/>

<path d="M344 273 c16 -69 26 -81 69 -85 23 -3 44 -3 47 -1 5 4 -106 113 -115 113 -4 0 -4 -12 -1 -27z" transform="translate(0.000000,66.000000) scale(0.100000,-0.100000)" stroke="none" fill="#537F66"/>

<path d="M270 432 c0 -5 12 -20 28 -34 21 -20 41 -27 95 -32 76 -7 86 3 42 44 -19 18 -38 24 -82 26 l-58 3 58 -8 c52 -8 97 -32 97 -52 0 -4 -26 -5 -57 -2 -57 6 -118 37 -107 55 3 4 0 8 -5 8 -6 0 -11 -4 -11 -8z" transform="translate(0.000000,66.000000) scale(0.100000,-0.100000)" stroke="none" fill="#648C75"/>

<path d="M245 390 c34 -13 43 -32 47 -95 2 -33 8 -68 12 -77 6 -13 3 -15 -14 -11 -32 8 -50 44 -59 115 -6 47 -9 53 -10 25 0 -21 4 -59 10 -84 10 -38 18 -48 47 -60 42 -17 47 -13 33 28 -6 18 -11 53 -11 79 0 36 -5 52 -23 68 -13 12 -30 22 -38 21 -8 0 -5 -4 6 -9z" transform="translate(0.000000,66.000000) scale(0.100000,-0.100000)" stroke="none" fill="#648C75"/>

<path d="M116 474 c-11 -30 -6 -145 8 -179 8 -19 12 -35 9 -35 -12 0 69 -65 108 -87 22 -13 50 -23 62 -22 21 1 21 1 -3 8 -129 40 -187 126 -178 262 5 71 4 80 -6 53z" transform="translate(0.000000,66.000000) scale(0.100000,-0.100000)" stroke="none" fill="#648C75"/>

<path d="M232 325 c6 -71 25 -109 58 -118 17 -4 20 -2 14 11 -4 9 -10 44 -12 77 -4 61 -22 95 -50 95 -12 0 -14 -12 -10 -65z" transform="translate(0.000000,66.000000) scale(0.100000,-0.100000)" stroke="none" fill="#537F66"/>

<path d="M450 445 c28 -42 48 -88 66 -155 14 -52 34 -110 45 -129 24 -41 19 -48 -24 -34 -38 13 -215 28 -205 18 4 -4 47 -11 95 -16 48 -4 105 -11 126 -15 44 -7 49 10 17 54 -20 28 -60 160 -60 199 0 13 -4 23 -10 23 -5 0 -10 8 -10 18 -1 9 -19 35 -41 57 l-40 40 41 -60z" transform="translate(0.000000,66.000000) scale(0.100000,-0.100000)" stroke="none" fill="#648C75"/>

<path d="M406 501 c48 -35 84 -76 84 -96 0 -8 5 -15 10 -15 6 0 10 -10 10 -23 0 -39 40 -171 60 -199 32 -44 27 -61 -17 -54 -21 4 -74 11 -118 15 -108 12 -143 19 -190 42 -36 18 -125 89 -112 89 3 0 -1 16 -9 35 -16 40 -19 157 -4 186 21 38 -2 40 -28 3 -21 -31 -26 -49 -25 -99 1 -67 17 -110 62 -172 41 -56 68 -73 138 -83 32 -5 101 -19 153 -30 169 -37 193 -41 204 -30 22 22 -30 215 -87 319 -34 62 -60 91 -109 121 -50 30 -67 24 -22 -9z" transform="translate(0.000000,66.000000) scale(0.100000,-0.100000)" stroke="none" fill="#537F66"/>

<path d="M134 490 c-1 -25 -3 -71 -4 -102 -3 -97 46 -173 135 -208 17 -7 82 -18 145 -25 63 -8 125 -16 136 -20 l22 -7 -23 49 c-12 26 -32 86 -45 133 -26 101 -65 161 -129 202 -44 28 -50 29 -141 26 l-95 -3 -1 -45z m228 8 c40 -28 36 -41 -11 -33 -22 4 -56 1 -79 -6 -35 -10 -43 -9 -66 7 -36 27 -34 52 7 57 53 7 120 -4 149 -25z m-167 -44 c14 -9 25 -23 25 -30 0 -8 8 -14 18 -14 10 0 30 -12 44 -27 20 -22 26 -38 25 -68 -1 -23 5 -60 12 -83 8 -23 11 -45 8 -48 -13 -13 -82 24 -95 50 -8 15 -14 58 -15 97 -1 38 -5 69 -9 69 -10 0 -11 -18 -8 -87 3 -80 -26 -68 -50 19 -13 50 -6 138 11 138 5 0 21 -7 34 -16z m213 -17 c29 -14 69 -64 59 -73 -4 -4 -37 -6 -74 -5 -61 2 -71 5 -100 34 -18 17 -33 34 -33 38 0 13 54 26 89 22 19 -2 46 -9 59 -16z m43 -101 c17 -4 30 -16 36 -33 26 -72 34 -105 29 -111 -4 -3 -39 26 -79 66 -54 55 -69 75 -58 81 7 5 21 7 30 5 9 -1 28 -5 42 -8z m-39 -73 c38 -37 68 -73 68 -80 0 -14 -71 -17 -104 -4 -34 13 -74 151 -44 151 7 0 43 -30 80 -67z" transform="translate(0.000000,66.000000) scale(0.100000,-0.100000)" stroke="none" fill="#84A794"/>

</svg>