<?xml version="1.0" standalone="no"?>
<!DOCTYPE svg PUBLIC "-//W3C//DTD SVG 20010904//EN"
 "http://www.w3.org/TR/2001/REC-SVG-20010904/DTD/svg10.dtd">
<svg version="1.0" xmlns="http://www.w3.org/2000/svg" 
width="96.000000pt" height="107.000000pt" viewBox="0 0 96.000000 107.000000"
preserveAspectRatio = "xMidYMid meet" >
<metadata>
Created by ZoeQU, 2022
</metadata>
<rect width="96.000000" height="107.000000" fill="#C0D5B1"/>
<path d="M195 996 c-17 -12 -18 -17 -6 -39 10 -18 11 -39 6 -74 -11 -64 -8 -80 25 -134 15 -25 31 -56 35 -70 11 -34 23 -48 67 -70 35 -18 38 -23 38 -63 0 -35 5 -48 30 -69 17 -15 30 -36 30 -46 0 -25 16 -37 68 -51 36 -9 44 -16 49 -41 5 -24 15 -35 48 -49 29 -12 46 -28 55 -50 7 -17 24 -38 37 -47 22 -15 37 -14 105 2 24 6 29 3 44 -28 19 -39 34 -50 54 -37 9 6 8 9 -6 14 -11 3 -28 23 -39 43 -20 37 -21 38 -87 41 -62 3 -67 5 -89 37 -13 18 -38 40 -56 49 -18 8 -39 29 -48 45 -11 22 -25 32 -53 37 -49 9 -62 20 -62 57 0 20 -9 41 -26 58 -14 14 -27 41 -29 60 -3 19 -9 35 -14 37 -43 14 -77 52 -93 101 -10 30 -26 63 -35 74 -13 13 -19 38 -20 86 -2 59 -7 141 -9 141 0 0 -9 -6 -19 -14z" transform="translate(0.000000,107.000000) scale(0.100000,-0.100000)" stroke="none" fill="#886E82"/>

<path d="M131 911 c-46 -47 -81 -133 -81 -199 0 -60 46 -150 116 -229 28 -32 58 -74 67 -93 10 -19 32 -45 51 -58 19 -13 41 -40 50 -60 24 -58 73 -105 201 -192 44 -30 58 -34 130 -38 88 -5 121 5 162 50 l23 24 -22 43 c-17 35 -24 41 -42 36 -82 -26 -115 -18 -145 36 -15 26 -36 46 -58 55 -23 10 -39 26 -48 48 -14 34 -31 46 -66 46 -24 0 -60 35 -53 53 2 7 -9 25 -26 40 -24 21 -30 35 -30 66 0 41 -10 53 -62 80 -24 12 -37 29 -49 63 -9 25 -27 61 -40 80 -24 33 -25 41 -17 147 4 48 -15 49 -61 2z" transform="translate(0.000000,107.000000) scale(0.100000,-0.100000)" stroke="none" fill="#E5E5D9"/>

<path d="M233 1000 c-27 -11 -28 -19 -6 -64 14 -30 15 -42 5 -73 -10 -34 -9 -41 14 -76 14 -22 32 -61 40 -88 13 -42 21 -53 52 -67 44 -20 52 -29 52 -62 1 -14 14 -41 30 -60 20 -23 30 -45 30 -67 0 -27 4 -34 25 -38 14 -3 36 -7 50 -10 15 -3 30 -16 35 -31 5 -13 25 -34 44 -45 19 -11 46 -36 61 -55 25 -33 29 -34 90 -34 l65 0 20 -40 c27 -52 54 -54 71 -3 8 24 10 70 6 132 -20 341 -300 661 -602 686 -33 3 -70 1 -82 -5z" transform="translate(0.000000,107.000000) scale(0.100000,-0.100000)" stroke="none" fill="#E5E5D9"/>

</svg>