<?xml version="1.0" standalone="no"?>
<!DOCTYPE svg PUBLIC "-//W3C//DTD SVG 20010904//EN"
 "http://www.w3.org/TR/2001/REC-SVG-20010904/DTD/svg10.dtd">
<svg version="1.0" xmlns="http://www.w3.org/2000/svg" 
width="125.000000pt" height="96.000000pt" viewBox="0 0 125.000000 96.000000"
preserveAspectRatio = "xMidYMid meet" >
<metadata>
Created by ZoeQU, 2022
</metadata>
<rect width="125.000000" height="96.000000" fill="#C0D5B1"/>
<path d="M133 477 c-18 -20 -37 -54 -44 -75 -10 -35 -8 -44 21 -102 69 -136 194 -202 294 -155 34 16 152 131 126 123 -8 -3 -23 1 -32 10 -14 12 -23 12 -45 3 -16 -6 -53 -12 -83 -13 -45 -2 -62 3 -94 25 -21 15 -47 27 -56 27 -31 0 -44 30 -50 113 l-5 81 -32 -37z" transform="translate(0.000000,96.000000) scale(0.100000,-0.100000)" stroke="none" fill="#D67B64"/>

<path d="M691 821 c-76 -34 -100 -72 -101 -162 0 -68 14 -84 87 -92 63 -7 143 -46 190 -93 37 -37 37 -37 119 -7 27 9 40 20 39 31 0 9 -4 18 -8 19 -48 16 -129 68 -143 92 -9 16 -36 39 -59 50 -24 12 -48 27 -54 35 -13 15 -4 123 10 132 13 8 11 24 -3 23 -7 0 -42 -13 -77 -28z" transform="translate(0.000000,96.000000) scale(0.100000,-0.100000)" stroke="none" fill="#D67B64"/>

<path d="M481 716 c-100 -51 -115 -76 -105 -168 7 -64 10 -66 92 -72 27 -2 56 -7 64 -12 7 -5 39 -11 71 -15 44 -5 66 -14 87 -34 l28 -27 67 21 c64 20 130 50 77 36 -18 -5 -28 -1 -38 14 -9 12 -20 21 -26 21 -5 0 -22 8 -36 19 -15 10 -59 28 -98 39 -39 12 -77 29 -84 37 -16 19 -22 155 -8 172 17 21 -2 14 -91 -31z" transform="translate(0.000000,96.000000) scale(0.100000,-0.100000)" stroke="none" fill="#D67B64"/>

<path d="M268 594 l-68 -44 0 -57 c0 -97 9 -129 39 -143 14 -7 33 -16 41 -21 47 -28 66 -30 142 -18 76 12 79 12 102 -10 l24 -23 59 43 c32 24 60 44 62 46 2 1 -3 8 -10 16 -12 12 -43 22 -179 57 -19 5 -49 10 -67 10 -48 0 -69 34 -71 116 -1 37 -3 68 -5 70 -1 1 -32 -18 -69 -42z" transform="translate(0.000000,96.000000) scale(0.100000,-0.100000)" stroke="none" fill="#D67B64"/>

<path d="M842 874 c-22 -10 -52 -81 -52 -124 0 -37 3 -42 34 -55 19 -8 48 -33 66 -55 17 -22 44 -43 58 -46 44 -11 86 -35 109 -63 18 -21 25 -24 40 -15 66 40 17 262 -72 330 -32 24 -49 29 -104 31 -36 1 -72 0 -79 -3z" transform="translate(0.000000,96.000000) scale(0.100000,-0.100000)" stroke="none" fill="#D67B64"/>

<path d="M772 865 c-64 -20 -434 -209 -507 -258 -103 -71 -196 -179 -194 -227 0 -8 11 8 23 35 13 28 35 61 50 74 l26 24 0 -69 c0 -85 14 -112 63 -129 21 -7 48 -21 59 -32 23 -21 112 -22 161 -2 22 9 31 9 45 -3 9 -9 24 -13 32 -10 8 2 -10 -21 -40 -52 -30 -31 -52 -56 -49 -56 2 0 38 35 79 77 41 43 65 69 52 58 -22 -18 -23 -18 -47 5 -25 23 -27 23 -103 11 -76 -12 -95 -10 -142 18 -8 5 -27 14 -41 21 -30 14 -39 46 -39 143 l0 57 68 44 c37 24 68 43 69 42 2 -2 4 -33 5 -70 2 -82 23 -116 71 -116 18 0 48 -5 67 -10 136 -35 167 -45 178 -57 15 -15 18 -15 49 -7 21 6 20 7 -13 36 -26 23 -48 32 -92 37 -31 4 -63 10 -70 15 -8 5 -37 10 -64 12 -81 6 -85 8 -92 70 -11 95 4 119 106 170 93 47 107 51 90 31 -14 -17 -8 -153 8 -172 7 -8 45 -25 84 -37 39 -11 83 -29 98 -39 14 -11 31 -19 36 -19 6 0 17 -9 26 -21 10 -15 20 -19 38 -15 23 7 23 7 -2 -9 l-25 -15 30 6 c17 4 32 8 33 10 2 1 -12 18 -31 38 -47 47 -127 86 -190 93 -29 3 -60 13 -69 21 -25 21 -24 110 1 165 17 37 27 45 91 71 69 28 93 29 73 4 -6 -7 -14 -38 -17 -69 -8 -61 -3 -69 65 -104 20 -10 44 -31 53 -47 16 -26 126 -92 143 -86 3 2 7 -7 8 -19 1 -13 -3 -23 -8 -23 -6 0 -8 -2 -5 -5 3 -3 21 2 40 11 l34 16 -26 27 c-27 30 -70 55 -112 65 -14 3 -41 24 -58 46 -18 22 -47 47 -66 55 -31 13 -34 18 -34 55 0 43 30 114 52 123 28 11 -30 5 -70 -8z" transform="translate(0.000000,96.000000) scale(0.100000,-0.100000)" stroke="none" fill="#DD9B84"/>

<path d="M1095 775 c23 -60 45 -144 45 -173 0 -84 -44 -114 -256 -173 -201 -56 -240 -76 -355 -185 -52 -50 -109 -99 -127 -108 -69 -36 -164 -5 -247 81 -45 47 -45 48 -34 16 6 -18 14 -33 18 -33 4 0 19 -25 35 -55 30 -60 51 -75 134 -96 48 -12 61 -11 150 10 119 29 191 58 232 94 17 15 63 43 103 62 40 19 79 39 87 44 8 5 41 22 73 38 32 15 78 44 102 63 24 19 54 42 67 51 67 47 95 202 51 284 -24 45 -92 114 -78 80z" transform="translate(0.000000,96.000000) scale(0.100000,-0.100000)" stroke="none" fill="#DFE0DC"/>

</svg>