<?xml version="1.0" standalone="no"?>
<!DOCTYPE svg PUBLIC "-//W3C//DTD SVG 20010904//EN"
 "http://www.w3.org/TR/2001/REC-SVG-20010904/DTD/svg10.dtd">
<svg version="1.0" xmlns="http://www.w3.org/2000/svg" 
width="94.000000pt" height="86.000000pt" viewBox="0 0 94.000000 86.000000"
preserveAspectRatio = "xMidYMid meet" >
<metadata>
Created by ZoeQU, 2022
</metadata>
<rect width="94.000000" height="86.000000" fill="#6E8999"/>
<path d="M162 753 c-48 -48 -71 -78 -75 -102 -4 -19 -15 -43 -24 -53 -21 -24 -19 -87 6 -157 13 -38 33 -65 78 -106 57 -51 60 -57 67 -112 6 -48 29 -146 52 -212 7 -22 14 -7 21 45 4 40 12 55 42 81 30 28 44 33 86 33 70 0 90 -8 106 -38 26 -50 53 -82 70 -82 20 0 29 20 36 80 2 27 12 51 23 60 10 8 28 36 40 62 28 60 51 74 128 80 106 7 118 46 34 108 -26 19 -56 43 -66 53 -11 9 -28 17 -38 17 -11 0 -26 13 -35 29 l-17 29 -18 -23 c-10 -13 -18 -36 -18 -53 0 -23 -9 -35 -42 -58 -41 -28 -48 -29 -168 -30 -69 -1 -146 -5 -173 -9 -39 -6 -51 -5 -67 10 -24 22 -26 71 -5 111 9 19 11 32 5 38 -16 16 -12 33 14 59 14 14 28 40 31 58 9 50 2 142 -12 146 -6 2 -43 -26 -81 -64z" transform="translate(0.000000,86.000000) scale(0.100000,-0.100000)" stroke="none" fill="#AD976D"/>

</svg>