<?xml version="1.0" standalone="no"?>
<!DOCTYPE svg PUBLIC "-//W3C//DTD SVG 20010904//EN"
 "http://www.w3.org/TR/2001/REC-SVG-20010904/DTD/svg10.dtd">
<svg version="1.0" xmlns="http://www.w3.org/2000/svg" 
width="134.000000pt" height="134.000000pt" viewBox="0 0 134.000000 134.000000"
preserveAspectRatio = "xMidYMid meet" >
<metadata>
Created by ZoeQU, 2022
</metadata>
<rect width="134.000000" height="134.000000" fill="#C1EFF1"/>
<path d="M710 1260 c-261 -55 -484 -200 -615 -397 -23 -35 -25 -46 -15 -58 19 -23 35 -18 63 22 42 59 146 161 212 208 177 126 410 194 620 181 55 -3 110 -9 123 -12 19 -6 22 -3 22 24 0 29 -2 30 -63 41 -93 16 -250 12 -347 -9z" transform="translate(0.000000,134.000000) scale(0.100000,-0.100000)" stroke="none" fill="#49A22A"/>

<path d="M1146 1068 c3 -9 1 -25 -6 -35 -9 -15 -10 -15 -5 7 5 16 -4 7 -25 -24 -25 -39 -34 -46 -42 -35 -7 10 -8 8 -3 -8 3 -13 2 -23 -2 -23 -5 0 -15 -42 -22 -92 -7 -51 -22 -136 -33 -188 -11 -52 -20 -105 -20 -117 0 -13 -4 -20 -9 -17 -6 3 -7 -6 -3 -22 4 -16 3 -25 -2 -21 -10 6 -15 -16 -14 -70 0 -18 -5 -33 -10 -33 -6 0 -10 -7 -10 -16 0 -9 5 -12 11 -8 7 4 10 2 8 -5 -3 -7 -9 -13 -14 -14 -6 -1 -17 -15 -25 -32 -8 -16 -22 -29 -31 -29 -9 1 -56 27 -105 59 -49 32 -132 86 -184 120 -164 108 -270 175 -275 175 -3 0 -10 0 -16 0 -5 0 -7 5 -4 10 4 6 3 10 -2 9 -18 -3 -34 1 -29 9 2 4 -5 8 -17 9 -20 2 -19 0 8 -24 28 -24 28 -25 3 -9 -15 9 -35 16 -44 16 -16 0 -15 -2 1 -20 11 -12 46 -37 79 -57 34 -20 72 -43 86 -52 14 -9 48 -26 75 -39 45 -20 46 -22 15 -16 -19 3 -48 13 -63 21 -16 8 -33 13 -39 11 -6 -2 17 -18 50 -36 71 -38 79 -47 54 -61 -11 -6 -19 -19 -18 -31 1 -16 29 -34 121 -80 66 -33 149 -78 184 -100 69 -42 145 -74 107 -45 -11 8 -24 15 -30 15 -5 0 -7 3 -4 6 9 9 90 -36 118 -66 14 -14 39 -29 57 -33 31 -6 33 -5 43 36 6 23 20 75 31 115 11 41 21 96 22 123 1 27 5 49 10 49 12 0 8 -83 -9 -145 -27 -104 -42 -185 -34 -185 11 0 87 330 100 430 6 47 20 112 30 145 19 57 70 305 70 339 0 22 -17 20 -23 -1 -3 -12 -7 -7 -12 15 -5 22 -12 31 -21 28 -8 -3 -14 -1 -14 5 0 5 -6 9 -14 7 -7 -2 -23 8 -35 22 -12 15 -19 18 -15 8z m11 -160 c-3 -8 -6 -5 -6 6 -1 11 2 17 5 13 3 -3 4 -12 1 -19z m-120 -295 c-3 -10 -5 -4 -5 12 0 17 2 24 5 18 2 -7 2 -21 0 -30z m-10 -55 c-3 -7 -5 -2 -5 12 0 14 2 19 5 13 2 -7 2 -19 0 -25z m-10 -200 c-2 -29 -3 -6 -3 52 0 58 1 81 3 53 2 -29 2 -77 0 -105z m-387 64 c3 -2 -6 -1 -20 3 -14 4 -32 14 -40 22 -12 12 -7 11 20 -2 19 -10 37 -20 40 -23z m5 -33 c41 -28 205 -109 222 -109 7 0 13 -4 13 -10 0 -5 -2 -10 -4 -10 -14 0 -165 66 -188 81 -14 11 -30 19 -35 19 -4 0 -21 11 -38 25 -37 30 -13 34 30 4z m-65 -50 c0 -11 -38 2 -50 16 -10 11 -6 12 19 2 17 -6 31 -14 31 -18z m200 -114 c14 -8 21 -14 15 -14 -5 0 -21 6 -35 14 -14 8 -20 14 -15 14 6 0 21 -6 35 -14z" transform="translate(0.000000,134.000000) scale(0.100000,-0.100000)" stroke="none" fill="#79D1CE"/>

<path d="M795 1130 c-221 -35 -451 -164 -568 -320 -58 -76 -67 -62 118 -180 119 -76 182 -117 437 -284 48 -31 94 -59 102 -62 24 -9 46 37 66 141 11 53 29 127 40 163 10 37 29 128 40 202 12 74 31 177 42 228 16 65 19 95 11 103 -14 14 -214 20 -288 9z" transform="translate(0.000000,134.000000) scale(0.100000,-0.100000)" stroke="none" fill="#EA5B58"/>

</svg>