<?xml version="1.0" standalone="no"?>
<!DOCTYPE svg PUBLIC "-//W3C//DTD SVG 20010904//EN"
 "http://www.w3.org/TR/2001/REC-SVG-20010904/DTD/svg10.dtd">
<svg version="1.0" xmlns="http://www.w3.org/2000/svg" 
width="132.000000pt" height="143.000000pt" viewBox="0 0 132.000000 143.000000"
preserveAspectRatio = "xMidYMid meet" >
<metadata>
Created by ZoeQU, 2022
</metadata>
<rect width="132.000000" height="143.000000" fill="#F6EBDD"/>
<path d="M81 996 c-7 -9 -11 -36 -8 -68 l3 -53 2 58 c2 46 5 57 20 58 34 2 56 -3 81 -21 31 -21 86 -36 76 -20 -3 5 -10 10 -15 10 -5 0 -34 11 -64 25 -63 29 -79 31 -95 11z" transform="translate(0.000000,143.000000) scale(0.100000,-0.100000)" stroke="none" fill="#B2643A"/>

<path d="M740 1136 c0 -2 25 -30 55 -61 30 -32 55 -62 55 -67 0 -16 40 -52 47 -43 5 4 2 10 -4 12 -7 3 -13 9 -13 15 0 13 -120 148 -131 148 -5 0 -9 -2 -9 -4z" transform="translate(0.000000,143.000000) scale(0.100000,-0.100000)" stroke="none" fill="#B2643A"/>

<path d="M414 586 c-19 -14 -18 -15 6 -42 14 -15 20 -24 14 -21 -14 8 -74 -20 -74 -35 0 -5 7 -8 15 -4 9 3 15 -1 15 -11 0 -13 3 -13 15 -3 8 7 15 9 15 4 0 -4 6 -2 12 4 10 10 10 15 -2 23 -12 8 -10 9 8 4 21 -6 22 -5 10 22 -7 15 -17 31 -22 35 -6 4 -5 13 3 22 17 20 11 20 -15 2z" transform="translate(0.000000,143.000000) scale(0.100000,-0.100000)" stroke="none" fill="#C65B23"/>

<path d="M226 614 c-11 -7 -30 -12 -42 -10 -21 4 -42 -19 -29 -32 3 -3 5 0 5 6 0 7 9 12 20 12 24 0 25 -8 5 -34 -11 -14 -15 -16 -15 -5 0 12 -2 12 -10 -1 -13 -21 12 -34 28 -13 9 13 12 14 13 2 0 -8 6 3 12 25 12 38 12 38 30 18 11 -11 25 -18 33 -15 21 8 17 23 -8 23 -20 0 -20 1 -5 18 15 16 15 18 -1 19 -9 1 -26 -5 -36 -13z" transform="translate(0.000000,143.000000) scale(0.100000,-0.100000)" stroke="none" fill="#D26B36"/>

<path d="M1086 1310 c-14 -22 -26 -41 -26 -44 0 -2 -20 -40 -45 -85 -49 -88 -53 -100 -30 -81 8 7 31 47 51 89 19 42 43 83 52 92 40 39 51 57 37 63 -8 3 -24 -11 -39 -34z" transform="translate(0.000000,143.000000) scale(0.100000,-0.100000)" stroke="none" fill="#B2643A"/>

<path d="M160 523 c0 -6 16 -50 37 -98 28 -67 50 -102 94 -149 32 -34 58 -55 59 -49 0 7 -11 20 -25 29 -14 9 -25 21 -25 28 0 6 -9 17 -20 24 -22 14 -50 65 -81 149 -21 58 -39 88 -39 66z" transform="translate(0.000000,143.000000) scale(0.100000,-0.100000)" stroke="none" fill="#B2643A"/>

<path d="M558 1057 c-21 -56 -42 -121 -48 -145 -6 -24 -14 -51 -17 -60 -5 -15 -4 -16 11 -1 9 8 21 38 25 65 10 51 37 131 50 149 8 9 24 95 19 95 -2 0 -20 -46 -40 -103z" transform="translate(0.000000,143.000000) scale(0.100000,-0.100000)" stroke="none" fill="#B2643A"/>

<path d="M1140 1298 c0 -8 7 -24 16 -36 8 -12 12 -22 8 -22 -3 0 1 -11 10 -25 9 -13 18 -43 21 -66 3 -23 8 -46 11 -50 7 -12 12 -40 24 -133 5 -44 13 -82 16 -85 10 -9 -6 135 -22 209 -26 115 -84 259 -84 208z" transform="translate(0.000000,143.000000) scale(0.100000,-0.100000)" stroke="none" fill="#B2643A"/>

<path d="M921 486 c-26 -27 -35 -86 -22 -131 8 -25 9 -20 10 36 1 76 19 111 48 93 13 -8 19 -26 21 -65 3 -68 -15 -105 -49 -101 -19 2 -21 0 -9 -8 28 -18 48 -11 59 23 24 74 10 177 -25 177 -6 0 -21 -11 -33 -24z" transform="translate(0.000000,143.000000) scale(0.100000,-0.100000)" stroke="none" fill="#B2643A"/>

<path d="M583 363 c-7 -2 -13 -14 -13 -24 0 -11 -4 -18 -9 -15 -5 4 -11 0 -14 -6 -2 -7 18 -34 44 -60 36 -36 55 -48 78 -48 47 0 51 37 11 100 -18 27 -39 50 -49 50 -9 0 -12 -3 -5 -8 25 -18 64 -81 64 -105 0 -49 -59 -30 -102 32 -18 25 -10 67 15 83 13 8 -1 9 -20 1z" transform="translate(0.000000,143.000000) scale(0.100000,-0.100000)" stroke="none" fill="#B2643A"/>

<path d="M463 379 c-6 -6 -9 -17 -7 -23 5 -14 -34 -15 -54 -2 -9 5 -15 1 -19 -13 -4 -15 -12 -21 -26 -19 -11 2 -22 -2 -24 -9 -3 -9 5 -9 29 -3 18 4 47 11 63 14 l30 6 -24 -20 c-13 -11 -22 -20 -20 -21 28 -6 53 -3 64 7 7 7 22 11 34 9 32 -6 25 9 -11 24 -21 8 -28 15 -19 18 7 3 17 0 21 -6 5 -9 10 -8 19 2 6 8 22 13 34 10 20 -4 20 -3 4 7 -9 6 -21 8 -27 5 -5 -3 -20 1 -33 9 -17 12 -26 13 -34 5z" transform="translate(0.000000,143.000000) scale(0.100000,-0.100000)" stroke="none" fill="#C65B23"/>

<path d="M1185 904 c20 -31 10 -47 -12 -19 -11 14 -17 16 -20 8 -3 -7 -12 -13 -21 -14 -10 0 -4 -5 11 -11 18 -6 26 -15 23 -24 -3 -9 2 -14 14 -14 11 0 20 -5 20 -11 0 -7 -10 -9 -24 -5 -14 3 -28 2 -31 -4 -3 -6 1 -7 9 -4 11 4 16 0 16 -11 0 -9 6 -15 13 -12 21 8 46 -12 42 -33 -2 -11 0 -20 6 -20 16 0 14 61 -3 71 -6 4 -8 14 -5 23 4 9 2 16 -3 16 -6 0 -10 5 -10 11 0 6 7 9 15 5 8 -3 15 -1 15 5 0 6 6 7 13 3 10 -6 10 -4 0 7 -7 7 -13 21 -13 32 0 10 -4 16 -9 12 -5 -3 -12 -1 -16 5 -3 5 -15 10 -27 10 -20 0 -20 -1 -3 -26z" transform="translate(0.000000,143.000000) scale(0.100000,-0.100000)" stroke="none" fill="#D26B36"/>

<path d="M1104 1279 c-8 -13 6 -30 18 -23 7 4 8 2 4 -5 -6 -8 -12 -9 -20 -2 -7 6 -16 8 -20 4 -4 -4 -4 1 -1 12 4 11 -5 2 -19 -20 -31 -48 -35 -87 -8 -79 16 5 16 5 -1 -9 -17 -14 -17 -15 0 -19 10 -2 34 2 53 8 24 9 29 13 15 14 -16 1 -15 4 8 12 15 5 27 14 27 19 0 6 -3 8 -7 6 -5 -3 -17 -1 -28 4 -17 7 -17 8 8 8 17 1 27 6 27 16 0 8 -5 15 -11 15 -5 0 -9 10 -7 21 3 23 -26 36 -38 18z m-4 -49 c0 -5 -4 -10 -9 -10 -6 0 -13 5 -16 10 -3 6 1 10 9 10 9 0 16 -4 16 -10z" transform="translate(0.000000,143.000000) scale(0.100000,-0.100000)" stroke="none" fill="#C65B23"/>

<path d="M1161 1223 c0 -7 -13 -13 -28 -14 -25 0 -25 -1 -8 -8 11 -5 23 -7 28 -4 4 2 7 0 7 -6 0 -5 -12 -14 -27 -19 -23 -8 -24 -11 -8 -12 14 -1 9 -5 -15 -14 -19 -6 -43 -10 -53 -8 -17 4 -17 5 0 19 17 14 17 14 1 9 -12 -4 -18 0 -18 12 -1 9 -8 1 -16 -18 -8 -19 -27 -48 -42 -63 -22 -23 -23 -27 -7 -21 18 7 18 6 -3 -20 -12 -16 -22 -36 -22 -45 0 -8 9 0 19 19 11 20 26 34 36 33 10 0 14 4 11 13 -7 17 23 54 43 54 11 0 12 -3 4 -11 -13 -13 -6 -39 9 -39 5 0 7 8 4 18 -5 14 2 21 31 31 21 8 43 20 51 28 7 7 19 10 25 6 9 -5 9 -3 0 8 -6 8 -13 25 -16 39 -2 14 -5 19 -6 13z" transform="translate(0.000000,143.000000) scale(0.100000,-0.100000)" stroke="none" fill="#D26B36"/>

<path d="M1139 1120 c-19 -10 -41 -26 -48 -34 -8 -9 -19 -16 -25 -16 -6 0 -24 -11 -39 -26 -15 -14 -31 -23 -35 -20 -5 3 -9 -1 -9 -9 0 -18 9 -19 26 -2 11 10 14 10 18 0 7 -19 25 -15 22 5 -3 32 1 42 17 42 14 0 14 -2 3 -16 -11 -14 -11 -18 3 -28 15 -11 13 -15 -22 -37 -22 -13 -40 -30 -40 -36 0 -7 -7 -13 -15 -13 -8 0 -15 -4 -15 -10 0 -17 22 -11 45 13 31 30 78 67 88 67 12 0 40 30 34 36 -3 3 -15 0 -27 -6 -11 -6 -26 -9 -33 -7 -7 2 5 10 26 17 20 8 37 20 37 27 0 15 -16 17 -25 3 -3 -5 -11 -10 -16 -10 -19 0 -5 20 28 41 28 18 32 18 47 4 11 -12 13 -22 6 -40 -8 -20 -6 -25 6 -25 10 0 14 6 10 15 -3 8 -2 15 3 15 4 0 3 16 -3 35 -12 40 -18 41 -67 15z" transform="translate(0.000000,143.000000) scale(0.100000,-0.100000)" stroke="none" fill="#D26B36"/>

<path d="M1205 504 c-13 -40 -42 -91 -85 -149 -25 -33 -58 -80 -74 -103 -16 -23 -32 -42 -37 -42 -4 0 -20 -11 -35 -25 -34 -32 -126 -76 -184 -88 -60 -13 -189 -14 -198 -2 -4 6 -20 11 -36 12 -16 1 -33 8 -38 15 -4 7 -8 10 -8 5 0 -4 -14 0 -31 8 -17 9 -33 14 -36 11 -12 -11 67 -47 147 -65 85 -20 86 -20 174 -1 117 26 187 62 261 135 86 84 211 282 192 302 -4 3 -9 -3 -12 -13z" transform="translate(0.000000,143.000000) scale(0.100000,-0.100000)" stroke="none" fill="#B2643A"/>

<path d="M812 794 c-29 -19 -52 -39 -52 -45 0 -6 -4 -8 -9 -5 -5 4 -21 -14 -35 -40 -23 -40 -23 -44 -6 -39 10 3 22 1 25 -6 6 -8 10 -8 15 2 5 7 3 21 -3 31 -10 16 -8 23 13 40 14 11 24 25 23 29 -5 16 13 10 31 -10 12 -13 14 -21 6 -26 -15 -9 6 -35 29 -35 10 0 7 -5 -9 -13 -22 -12 -26 -11 -34 4 -9 19 -35 33 -44 24 -3 -3 3 -11 13 -19 11 -8 16 -20 12 -29 -4 -11 -2 -14 8 -11 24 10 38 -6 19 -20 -12 -9 -14 -15 -6 -20 7 -4 12 -2 12 4 0 6 5 8 11 4 8 -4 9 3 4 25 -6 26 -4 30 10 25 9 -4 20 -3 24 2 3 5 18 15 34 21 30 14 35 28 11 37 -11 4 -15 2 -11 -7 4 -10 -5 -14 -34 -14 -21 0 -39 1 -39 3 0 13 25 54 36 58 16 6 19 -10 4 -19 -15 -9 -12 -25 5 -25 8 0 14 5 13 12 -2 7 7 17 20 23 12 5 22 13 22 17 0 5 7 8 16 8 8 0 12 5 9 10 -4 6 -15 8 -26 5 -11 -4 -19 -2 -19 4 0 6 5 11 11 11 5 0 7 5 4 10 -9 14 -25 12 -25 -3 0 -7 -13 -21 -30 -30 -33 -20 -39 -13 -13 15 29 32 9 29 -45 -8z" transform="translate(0.000000,143.000000) scale(0.100000,-0.100000)" stroke="none" fill="#D26B36"/>

<path d="M772 1045 c-10 -12 -18 -13 -34 -4 -14 8 -23 8 -31 0 -8 -8 -7 -11 5 -11 11 0 15 -8 14 -25 -1 -20 -5 -24 -21 -19 -11 4 -23 12 -27 18 -6 8 -8 7 -8 -1 0 -7 -6 -10 -14 -7 -8 3 -12 12 -9 20 7 19 -11 18 -27 -1 -7 -8 -8 -15 -3 -15 5 0 9 -10 9 -21 -1 -12 6 -24 14 -27 13 -5 13 -3 1 11 -11 15 -11 17 2 17 35 0 47 -12 41 -39 -4 -14 -13 -32 -22 -38 -9 -7 -12 -16 -8 -20 3 -4 22 11 41 32 35 40 44 41 24 4 -8 -16 -7 -23 7 -33 10 -8 14 -18 9 -26 -6 -9 -2 -10 16 -5 74 24 100 77 42 86 -20 4 -20 6 -7 24 13 17 16 18 24 5 8 -13 10 -12 10 3 0 9 4 17 9 17 14 0 20 25 11 41 -7 11 -13 10 -29 -5 -21 -19 -21 -19 -21 3 0 14 4 20 12 15 7 -4 8 -3 4 4 -9 16 -18 15 -34 -3z m68 -30 c0 -2 -10 -9 -22 -15 -22 -11 -22 -10 -4 4 21 17 26 19 26 11z m-60 -15 c8 -5 11 -10 5 -10 -5 0 -17 5 -25 10 -8 5 -10 10 -5 10 6 0 17 -5 25 -10z m30 -84 c0 -2 -7 -7 -16 -10 -8 -3 -12 -2 -9 4 6 10 25 14 25 6z" transform="translate(0.000000,143.000000) scale(0.100000,-0.100000)" stroke="none" fill="#D26B36"/>

<path d="M80 967 c0 -16 4 -26 9 -22 5 3 12 1 16 -5 3 -5 -1 -10 -9 -10 -12 0 -16 -10 -16 -41 0 -22 4 -38 9 -34 5 3 12 1 16 -5 3 -5 1 -10 -4 -10 -6 0 -11 -7 -11 -16 0 -8 4 -13 8 -10 4 2 8 -5 8 -17 1 -68 6 -97 19 -110 8 -8 11 -17 8 -21 -4 -3 1 -6 10 -6 18 0 23 -15 8 -25 -6 -3 -3 -24 6 -51 14 -41 16 -43 29 -27 19 25 17 33 -6 33 -11 0 -20 4 -20 9 0 6 10 8 21 6 12 -2 31 1 43 8 11 6 29 12 39 13 17 1 17 0 1 -17 -16 -18 -16 -19 4 -19 24 0 30 -15 10 -23 -7 -2 -23 4 -35 15 l-22 20 -7 -37 c-4 -23 -9 -32 -14 -25 -6 9 -10 6 -15 -9 -7 -22 13 -91 27 -91 4 0 8 -8 8 -17 0 -15 2 -16 9 -3 6 8 7 18 5 22 -3 4 -1 8 4 8 16 0 23 -30 16 -68 -5 -25 -3 -33 5 -28 7 4 9 2 5 -8 -3 -9 3 -19 17 -26 19 -11 25 -10 36 6 8 11 9 22 4 27 -5 5 -7 16 -4 24 3 8 -5 24 -17 36 -18 16 -20 22 -9 26 8 2 20 11 27 20 10 14 11 12 8 -11 -5 -30 4 -34 39 -17 18 9 18 9 -3 5 -18 -4 -22 -1 -18 11 9 23 -11 41 -42 37 -15 -2 -20 -1 -12 2 8 4 25 16 38 27 12 11 22 16 22 10 0 -8 8 -8 25 0 14 7 25 15 25 20 0 10 -18 9 -25 -3 -3 -5 -11 -10 -17 -10 -6 0 -4 8 5 18 18 20 32 82 18 82 -6 0 -13 -5 -16 -10 -4 -6 -12 -7 -18 -4 -8 5 -8 3 1 -7 6 -7 12 -20 12 -28 0 -14 -1 -14 -10 -1 -6 10 -10 11 -10 3 0 -7 -7 -13 -15 -13 -11 0 -14 7 -9 25 5 19 2 25 -10 25 -9 0 -16 7 -16 16 0 11 6 14 23 9 12 -4 17 -3 10 2 -8 6 -8 13 3 28 11 15 17 16 26 7 7 -7 17 -12 22 -12 6 0 1 8 -11 17 l-21 17 25 13 c14 7 32 13 39 13 8 0 19 11 24 25 5 14 11 25 13 25 8 0 -6 -55 -17 -69 -9 -12 -8 -12 11 -3 30 17 33 15 33 -13 0 -21 5 -25 28 -24 16 1 20 3 10 6 -17 4 -23 16 -19 36 1 5 -8 11 -19 14 -37 10 -20 23 21 17 31 -5 41 -4 38 5 -3 7 -7 11 -9 10 -9 -5 -50 22 -50 32 0 6 7 3 16 -6 21 -20 31 -11 13 11 -13 16 -12 16 7 4 12 -7 29 -10 38 -7 26 10 18 25 -11 19 -20 -4 -25 -2 -20 10 4 12 -3 15 -34 13 -28 -2 -42 3 -49 14 -7 13 -11 14 -21 4 -20 -20 -41 -16 -34 6 7 22 -34 56 -57 49 -7 -3 -21 3 -31 13 -10 9 -38 22 -61 28 -24 6 -48 17 -55 24 -14 17 -71 20 -71 4 0 -7 -4 -6 -10 3 -8 12 -10 9 -10 -13z m250 -87 c-8 -5 -19 -10 -25 -10 -5 0 -3 5 5 10 8 5 20 10 25 10 6 0 3 -5 -5 -10z m40 -10 c0 -5 -8 -10 -17 -10 -15 0 -16 2 -3 10 19 12 20 12 20 0z m-64 -25 c-21 -16 -32 -13 -21 4 3 6 14 11 23 11 15 -1 15 -2 -2 -15z m154 -37 c0 -5 -4 -8 -10 -8 -5 0 -10 5 -10 10 0 6 -15 10 -32 11 -31 1 -31 2 -8 8 24 7 60 -6 60 -21z m-94 7 c-3 -8 -1 -15 4 -15 6 0 10 -4 10 -9 0 -5 -20 -9 -45 -9 -49 1 -59 16 -22 34 34 17 60 17 53 -1z m-110 -44 c-12 -19 -24 -12 -19 10 4 13 9 17 15 11 6 -6 7 -15 4 -21z m167 1 c-3 -12 -12 -22 -19 -22 -18 0 -18 9 3 32 20 22 24 19 16 -10z m-64 -11 c11 -7 10 -11 -6 -20 -22 -11 -33 -6 -33 16 0 15 18 17 39 4z m-134 -19 c0 -18 -20 -15 -23 4 -3 10 1 15 10 12 7 -3 13 -10 13 -16z m75 9 c0 -6 -4 -13 -10 -16 -5 -3 -10 1 -10 9 0 9 5 16 10 16 6 0 10 -4 10 -9z m-30 -11 c0 -5 -4 -10 -9 -10 -6 0 -13 5 -16 10 -3 6 1 10 9 10 9 0 16 -4 16 -10z m28 -46 c2 -12 -4 -24 -13 -27 -12 -5 -14 -1 -9 21 4 21 3 24 -5 12 -9 -13 -11 -12 -11 3 0 26 34 17 38 -9z m46 -145 c-3 -5 -11 -9 -19 -9 -7 0 -15 -7 -19 -15 -3 -8 -16 -15 -28 -15 -17 0 -19 3 -9 9 11 7 10 10 -5 13 -18 5 -17 6 3 14 29 12 84 14 77 3z m-112 -46 c-10 -4 -10 -8 -1 -19 13 -16 6 -30 -10 -19 -15 9 -14 42 2 48 6 2 14 2 17 -1 3 -2 -1 -7 -8 -9z m78 -163 c0 -5 -4 -10 -9 -10 -6 0 -13 5 -16 10 -3 6 1 10 9 10 9 0 16 -4 16 -10z" transform="translate(0.000000,143.000000) scale(0.100000,-0.100000)" stroke="none" fill="#C65B23"/>

<path d="M577 994 c-3 -3 -3 -12 0 -20 3 -8 1 -14 -5 -14 -5 0 -13 -10 -17 -22 -4 -15 -8 -18 -12 -10 -3 7 2 21 12 32 10 11 12 20 6 24 -14 9 -34 -32 -28 -56 3 -11 0 -29 -6 -40 -9 -16 -9 -22 1 -25 6 -3 12 -9 12 -15 0 -7 -5 -6 -14 1 -11 9 -16 9 -21 1 -4 -7 -16 -10 -26 -7 -11 3 -16 1 -13 -5 3 -5 17 -7 30 -4 19 5 22 3 17 -10 -5 -14 -1 -16 20 -12 29 6 37 -9 11 -19 -9 -3 -26 0 -38 7 -19 12 -20 12 -7 -4 18 -22 8 -31 -13 -11 -9 9 -16 12 -16 6 0 -11 28 -29 45 -29 5 0 11 -6 14 -13 3 -9 -7 -10 -38 -5 -41 6 -58 -7 -21 -17 11 -3 20 -9 19 -14 -4 -20 2 -32 19 -36 10 -3 6 -5 -10 -6 -23 -1 -28 3 -28 24 0 28 -3 30 -33 13 -19 -9 -20 -9 -11 3 11 14 25 69 17 69 -2 0 -8 -11 -13 -25 -5 -14 -16 -25 -24 -25 -7 0 -25 -6 -39 -13 l-25 -13 21 -17 c12 -9 17 -17 11 -17 -5 0 -15 5 -22 12 -9 9 -15 8 -26 -7 -11 -15 -11 -22 -3 -28 7 -5 2 -6 -10 -2 -17 5 -23 2 -23 -9 0 -9 7 -16 16 -16 12 0 15 -6 10 -25 -5 -18 -2 -25 9 -25 8 0 15 6 15 13 0 8 4 7 10 -3 9 -13 10 -13 10 1 0 8 -6 21 -12 28 -9 10 -9 12 -1 7 6 -3 14 -2 18 4 3 5 10 10 16 10 14 0 0 -62 -18 -82 -9 -10 -11 -18 -5 -18 6 0 14 5 17 10 7 12 25 13 25 3 0 -5 -11 -13 -25 -20 -17 -8 -25 -8 -25 0 0 6 -10 1 -22 -10 -13 -11 -30 -23 -38 -27 -8 -3 -3 -4 12 -2 31 4 51 -14 42 -37 -4 -12 0 -15 18 -11 21 4 21 4 3 -5 -35 -17 -44 -13 -39 17 3 23 2 25 -8 11 -7 -9 -19 -18 -27 -20 -11 -4 -9 -10 9 -26 12 -12 20 -28 17 -36 -3 -8 -1 -19 4 -24 5 -5 4 -16 -4 -27 -11 -16 -17 -17 -36 -6 -14 7 -20 17 -17 26 4 10 2 12 -5 8 -8 -5 -10 3 -5 28 7 38 0 68 -16 68 -5 0 -7 -4 -4 -8 2 -4 1 -14 -5 -22 -7 -12 -9 -11 -10 5 0 11 -3 15 -5 9 -7 -16 44 -113 67 -127 10 -6 19 -17 19 -24 0 -7 10 -17 21 -24 14 -7 19 -7 15 0 -5 7 2 7 24 0 33 -12 42 -24 9 -14 -17 6 -20 3 -17 -16 2 -12 9 -24 17 -27 8 -3 11 0 7 7 -5 7 3 11 23 11 17 0 31 3 31 8 -1 14 -27 42 -40 42 -7 0 -11 2 -8 5 3 3 19 2 37 -1 21 -4 29 -10 23 -18 -5 -6 -7 -24 -6 -39 2 -17 -2 -27 -9 -26 -7 1 -19 1 -27 0 -12 -1 -12 -4 3 -12 9 -5 21 -8 26 -5 5 4 7 -4 3 -16 -3 -14 -1 -19 6 -14 6 4 25 0 42 -9 16 -8 30 -12 30 -8 0 5 4 2 9 -5 4 -8 25 -15 45 -17 33 -3 36 -1 31 16 -5 14 -1 25 12 34 17 14 17 14 -5 15 -14 0 -20 4 -17 10 4 6 2 17 -4 24 -9 10 -8 15 3 19 9 4 18 2 21 -3 8 -13 25 -13 25 0 0 6 -7 10 -16 10 -10 0 -14 5 -10 16 3 8 2 12 -4 9 -9 -6 -14 7 -11 27 0 4 -6 5 -15 1 -9 -3 -20 0 -24 7 -10 16 -1 42 11 34 5 -3 9 1 9 9 0 21 -37 28 -51 10 -9 -10 -14 -11 -19 -2 -4 6 -14 9 -21 6 -9 -3 -2 -10 19 -18 36 -15 43 -30 11 -24 -12 2 -27 -2 -34 -9 -11 -10 -36 -13 -64 -7 -2 1 7 10 20 21 l24 20 -30 -6 c-16 -3 -45 -10 -63 -14 -24 -6 -32 -6 -29 3 2 7 13 11 24 9 14 -2 22 4 26 19 4 14 10 18 19 13 20 -13 59 -12 54 2 -8 21 15 34 38 21 29 -15 78 -18 95 -4 11 9 15 9 18 0 6 -17 40 -17 46 0 3 7 6 5 6 -5 1 -23 41 -45 41 -23 0 9 -4 13 -10 10 -6 -4 -10 7 -10 25 0 18 4 29 10 25 6 -3 10 -13 10 -21 0 -8 5 -12 10 -9 6 4 8 15 5 26 -9 27 3 59 22 59 9 0 13 6 10 14 -5 12 -2 12 21 0 35 -18 39 -18 47 7 6 18 9 19 28 7 20 -12 25 -11 47 11 16 15 19 22 8 18 -32 -11 -27 7 8 31 19 13 33 26 30 30 -4 3 -12 0 -18 -6 -7 -7 -19 -12 -28 -12 -9 0 -26 -11 -38 -25 -23 -26 -42 -26 -42 1 0 8 6 14 13 14 9 0 9 2 -1 9 -8 4 -13 12 -12 17 1 5 -3 10 -9 12 -6 2 -11 -4 -11 -13 0 -9 -5 -13 -11 -9 -6 3 -15 1 -19 -7 -6 -9 -11 -5 -15 14 -7 28 -12 29 -62 10 -7 -3 -13 0 -13 7 0 6 9 14 20 17 11 3 20 9 20 14 0 12 -17 11 -25 -1 -4 -6 -11 -8 -16 -5 -5 4 -9 -5 -9 -19 0 -14 -4 -26 -10 -26 -5 0 -7 -6 -4 -14 3 -8 0 -17 -5 -21 -6 -3 -9 -11 -6 -16 4 -5 -1 -9 -9 -9 -11 0 -13 8 -9 34 3 19 1 36 -6 40 -7 5 -11 -5 -11 -28 0 -39 -18 -48 -41 -20 -11 14 -11 18 4 29 9 7 17 20 17 31 0 14 -3 15 -12 6 -15 -15 -32 -16 -23 -2 3 6 2 10 -4 10 -16 0 -22 -18 -9 -24 10 -3 8 -9 -4 -19 -10 -8 -14 -17 -10 -22 6 -7 -38 3 -47 11 -2 2 4 10 12 18 8 9 13 25 10 36 -4 16 -2 19 11 14 9 -3 16 -1 16 5 0 6 -10 11 -22 12 l-23 0 24 12 c19 9 25 8 35 -5 6 -8 21 -18 34 -22 12 -4 22 -13 22 -19 0 -7 9 -1 20 13 l20 25 0 -35 c0 -25 3 -31 9 -20 11 17 2 72 -13 82 -6 4 -4 9 7 14 9 3 17 12 17 20 0 8 -6 11 -15 8 -20 -8 -19 -2 4 25 11 13 17 29 14 37 -3 8 0 14 6 14 6 0 11 -4 11 -10 0 -6 10 -5 25 2 14 6 25 15 25 20 0 11 -17 10 -25 -2 -10 -16 -28 -11 -21 6 5 12 2 15 -10 10 -8 -3 -18 -6 -20 -6 -2 0 -4 -6 -4 -14 0 -7 -11 -25 -25 -40 -14 -15 -25 -23 -25 -19 0 5 5 14 12 21 9 9 9 17 -2 36 -7 15 -10 39 -7 59 3 23 0 42 -10 57 -8 12 -12 24 -9 27 3 4 6 2 6 -3 0 -13 38 -15 45 -3 4 5 -4 9 -16 9 -17 0 -19 3 -10 14 8 10 9 16 1 21 -6 3 -8 11 -5 16 7 10 -8 13 -18 3z m1 -146 c-2 -6 -10 -14 -16 -16 -7 -2 -10 2 -6 12 7 18 28 22 22 4z m2 -68 c0 -5 -4 -10 -10 -10 -5 0 -10 5 -10 10 0 6 5 10 10 10 6 0 10 -4 10 -10z m-46 -71 c-8 -14 -24 -10 -24 6 0 9 6 12 15 9 8 -4 12 -10 9 -15z m56 -10 c0 -5 -9 -9 -20 -9 -11 0 -20 6 -20 14 0 9 7 12 20 9 11 -3 20 -9 20 -14z m17 -1 c-3 -8 -6 -5 -6 6 -1 11 2 17 5 13 3 -3 4 -12 1 -19z m-207 2 c0 -5 -2 -10 -4 -10 -3 0 -8 5 -11 10 -3 6 -1 10 4 10 6 0 11 -4 11 -10z m160 -30 c0 -5 -4 -10 -9 -10 -6 0 -13 5 -16 10 -3 6 1 10 9 10 9 0 16 -4 16 -10z m40 -16 c0 -8 -4 -14 -10 -14 -5 0 -10 9 -10 21 0 11 5 17 10 14 6 -3 10 -13 10 -21z m-130 -34 c0 -10 6 -21 13 -24 6 -3 3 -5 -7 -3 -12 1 -20 11 -22 30 -1 15 2 25 7 22 5 -4 9 -15 9 -25z m-41 -36 c-8 -9 -9 -18 -3 -22 5 -4 15 -20 22 -35 12 -27 11 -28 -10 -22 -18 5 -20 4 -8 -4 12 -8 12 -13 2 -23 -6 -6 -12 -8 -12 -4 0 5 -7 3 -15 -4 -12 -10 -15 -10 -15 3 0 10 -6 14 -15 11 -8 -4 -15 -1 -15 4 0 15 60 43 74 35 6 -3 0 6 -14 21 -24 27 -25 28 -6 42 26 18 32 18 15 -2z m271 -34 c0 -5 -2 -10 -4 -10 -3 0 -8 5 -11 10 -3 6 -1 10 4 10 6 0 11 -4 11 -10z m80 -20 c0 -5 -8 -10 -17 -10 -15 0 -16 2 -3 10 19 12 20 12 20 0z m-85 -20 c-3 -5 -11 -10 -16 -10 -6 0 -7 5 -4 10 3 6 11 10 16 10 6 0 7 -4 4 -10z m35 -6 c0 -8 -5 -12 -10 -9 -6 4 -8 11 -5 16 9 14 15 11 15 -7z m67 -1 c-9 -2 -15 -9 -12 -14 4 -5 -1 -9 -9 -9 -9 0 -16 7 -16 15 0 10 9 15 28 14 17 -1 20 -3 9 -6z m-297 -45 c0 -6 -6 -5 -15 2 -8 7 -15 14 -15 16 0 2 7 1 15 -2 8 -4 15 -11 15 -16z m130 -21 c0 -4 -9 -3 -20 3 -11 6 -20 15 -20 20 0 6 9 5 20 -2 11 -7 20 -16 20 -21z m-166 17 c31 -12 15 -23 -31 -22 l-48 1 30 13 c17 7 31 13 32 14 1 0 8 -3 17 -6z m229 -20 c-3 -8 -9 -14 -14 -14 -5 0 -9 -6 -9 -13 0 -8 -7 -14 -15 -14 -20 0 -19 7 3 24 13 11 14 15 3 20 -10 4 -11 7 -1 13 19 11 40 1 33 -16z m-183 -4 c0 -5 -5 -10 -11 -10 -5 0 -7 5 -4 10 3 6 8 10 11 10 2 0 4 -4 4 -10z m-44 -22 c5 -7 0 -9 -14 -6 -16 5 -19 2 -14 -11 5 -14 4 -14 -12 -2 -14 12 -19 12 -26 2 -5 -9 -10 -10 -14 -2 -4 6 -12 11 -19 11 -8 0 -8 -3 1 -12 17 -17 -5 -43 -24 -27 -21 17 -17 39 9 48 33 13 105 12 113 -1z m96 -26 c-19 -6 -44 6 -37 18 4 7 14 6 28 -2 14 -7 17 -13 9 -16z m-32 -102 c18 -12 2 -12 -25 0 -13 6 -15 9 -5 9 8 0 22 -4 30 -9z m29 -24 c-13 -11 -69 -14 -69 -4 0 6 3 9 6 6 3 -3 17 -3 32 2 25 7 41 5 31 -4z m6 -26 c-3 -5 -10 -10 -16 -10 -5 0 -9 5 -9 10 0 6 7 10 16 10 8 0 12 -4 9 -10z m-56 -31 c-12 -7 -12 -12 -1 -29 11 -19 11 -19 -6 -9 -13 8 -18 19 -14 33 6 25 25 40 31 25 2 -6 -3 -15 -10 -20z m45 -13 c-10 -8 -21 -12 -24 -10 -5 6 21 24 34 24 6 0 1 -6 -10 -14z" transform="translate(0.000000,143.000000) scale(0.100000,-0.100000)" stroke="none" fill="#D26B36"/>

<path d="M1172 1193 c9 -33 -64 -80 -104 -67 -25 8 -61 -28 -51 -52 5 -14 3 -15 -15 -5 -28 15 -35 14 -29 -3 8 -20 -29 -93 -52 -106 -11 -5 -37 -10 -58 -10 -38 1 -38 1 -13 15 14 8 19 14 13 15 -7 0 -13 6 -13 14 0 23 -15 27 -36 10 -18 -14 -18 -15 4 -4 15 7 22 7 22 0 0 -5 -4 -10 -10 -10 -5 0 -10 -8 -10 -17 0 -15 -2 -16 -10 -3 -8 13 -11 12 -24 -5 -13 -18 -13 -20 7 -24 58 -9 32 -62 -42 -86 -18 -5 -22 -4 -16 5 5 8 1 18 -9 26 -14 10 -15 17 -7 33 20 37 11 36 -24 -4 -19 -21 -38 -36 -41 -32 -4 4 -1 13 8 20 9 6 18 24 22 38 6 27 -6 39 -41 39 -13 0 -13 -2 -2 -17 12 -14 12 -16 -1 -11 -8 3 -15 15 -14 27 0 11 -4 21 -9 21 -5 0 -4 7 3 15 16 19 34 20 27 1 -3 -8 1 -17 9 -20 8 -3 14 0 14 7 0 8 2 9 8 1 4 -6 16 -14 27 -18 16 -5 20 -1 21 19 1 17 -3 25 -14 25 -12 0 -13 3 -5 11 8 8 17 8 31 0 16 -8 24 -8 36 4 21 21 24 19 18 -12 -4 -27 -4 -27 14 -10 19 18 18 19 -8 41 -16 12 -28 27 -28 33 0 9 -8 9 -30 1 -34 -11 -74 -3 -51 11 10 7 10 9 -2 14 -16 6 -31 -18 -21 -34 3 -5 0 -9 -5 -9 -6 0 -11 16 -11 35 0 28 3 33 18 28 26 -9 42 -24 36 -34 -3 -5 2 -9 10 -9 21 0 31 21 15 31 -8 5 -9 9 -4 10 6 0 -1 4 -15 8 -14 4 -25 12 -25 18 0 6 -3 15 -7 19 -5 4 -8 3 -8 -3 0 -6 -6 -13 -14 -16 -10 -4 -12 0 -8 16 4 19 1 17 -19 -8 -13 -16 -23 -35 -21 -41 1 -7 -2 -15 -8 -19 -15 -9 -12 -25 5 -25 8 0 15 5 15 10 0 6 5 10 10 10 6 0 10 -7 10 -15 0 -7 6 -18 14 -22 10 -6 2 -14 -30 -29 -40 -20 -43 -20 -34 -3 6 10 18 23 28 28 14 9 14 10 1 11 -23 0 -45 -22 -57 -57 -7 -22 -7 -35 -1 -39 7 -4 5 -12 -4 -22 -8 -10 -18 -28 -22 -42 -7 -24 -7 -24 9 -5 8 11 16 26 16 33 0 6 5 12 10 12 6 0 10 7 8 16 -2 10 3 19 11 22 8 3 11 0 7 -6 -3 -6 -2 -14 4 -17 8 -5 7 -11 -1 -21 -9 -11 -7 -14 10 -14 12 0 20 -4 16 -9 -7 -12 -45 -10 -45 3 0 5 -3 7 -6 3 -3 -3 1 -15 9 -27 10 -15 13 -34 10 -57 -3 -20 0 -44 7 -59 11 -19 11 -27 2 -36 -7 -7 -12 -16 -12 -21 0 -4 11 4 25 19 14 15 25 33 25 39 0 7 7 16 16 19 22 9 24 8 18 -9 -7 -17 11 -21 21 -5 8 12 25 13 25 2 0 -5 -11 -14 -25 -20 -15 -7 -25 -8 -25 -2 0 6 -5 10 -11 10 -6 0 -9 -6 -6 -14 3 -8 -3 -24 -14 -37 -23 -27 -24 -33 -4 -25 9 3 15 0 15 -8 0 -8 -8 -17 -17 -20 -11 -5 -13 -10 -7 -14 15 -10 24 -65 13 -82 -6 -11 -9 -5 -9 20 l0 35 -20 -25 c-11 -14 -20 -20 -20 -13 0 6 -10 15 -22 19 -13 4 -28 14 -34 22 -10 13 -16 14 -35 5 l-24 -12 23 0 c12 -1 22 -6 22 -12 0 -6 -7 -8 -16 -5 -13 5 -15 2 -11 -14 3 -11 -2 -27 -10 -36 -8 -8 -14 -16 -12 -18 9 -8 53 -18 47 -11 -4 5 0 14 10 22 12 10 14 16 4 19 -13 6 -7 24 9 24 6 0 7 -5 4 -10 -9 -14 8 -13 23 2 9 9 12 8 12 -6 0 -11 -8 -24 -17 -31 -15 -11 -15 -15 -4 -29 23 -28 41 -19 41 20 0 23 4 33 11 28 7 -4 9 -21 6 -40 -4 -26 -2 -34 9 -34 8 0 13 4 9 9 -3 5 0 13 6 16 5 4 8 13 5 21 -3 8 -1 14 4 14 6 0 10 12 10 26 0 14 4 23 9 19 5 -3 12 -1 16 5 8 12 25 13 25 1 0 -5 -9 -11 -20 -14 -11 -3 -20 -10 -20 -17 0 -10 15 -9 56 7 6 2 15 -8 18 -23 5 -20 10 -24 16 -15 4 8 13 10 19 7 6 -4 11 0 11 9 0 9 5 15 11 13 6 -2 10 -7 9 -12 -1 -5 4 -13 12 -17 10 -7 10 -9 1 -9 -7 0 -13 -6 -13 -14 0 -27 19 -27 42 -1 12 14 29 25 38 25 9 0 21 5 28 12 6 6 14 9 18 6 3 -4 -11 -17 -30 -30 -35 -24 -40 -42 -8 -31 11 4 8 -3 -8 -18 -22 -22 -27 -23 -46 -12 -19 12 -22 11 -28 -2 -9 -24 -8 -28 8 -22 10 4 12 0 8 -16 l-5 -21 30 22 c17 12 36 22 42 22 6 0 11 7 11 16 0 8 4 13 9 9 5 -3 12 -1 16 5 11 18 31 11 45 -16 15 -26 15 -41 5 -131 -6 -47 -9 -53 -30 -53 -29 0 -55 24 -55 51 0 10 -4 19 -9 19 -10 0 -6 63 5 81 4 6 -7 1 -25 -12 -26 -19 -30 -28 -26 -53 2 -17 6 -56 7 -85 3 -49 0 -56 -20 -67 -12 -6 -34 -9 -48 -6 -19 3 -23 9 -18 24 4 15 3 18 -6 13 -9 -5 -11 -4 -6 4 11 17 -13 72 -28 64 -6 -3 -6 0 2 8 14 16 16 55 2 64 -6 4 -5 13 2 25 7 11 9 23 5 27 -13 12 -28 -20 -23 -49 3 -15 1 -30 -4 -33 -6 -3 -10 1 -10 9 0 8 -4 18 -10 21 -6 4 -10 -7 -10 -25 0 -18 4 -29 10 -25 6 3 10 -1 10 -10 0 -22 -40 0 -41 23 0 9 -3 12 -5 5 -7 -17 14 -53 31 -53 8 0 16 -6 16 -12 1 -7 2 -20 3 -28 0 -8 7 -14 14 -13 7 2 12 -8 12 -23 0 -19 -4 -25 -15 -20 -8 3 -15 1 -15 -3 0 -15 -25 -20 -61 -12 -19 4 -33 13 -31 19 1 9 -3 9 -17 0 -15 -9 -17 -16 -10 -25 6 -7 8 -17 4 -23 -3 -6 3 -10 17 -10 21 -1 21 -2 6 -13 -9 -7 -15 -25 -15 -40 2 -24 5 -27 25 -22 13 3 22 1 22 -6 0 -19 162 3 225 31 43 20 125 72 125 81 0 3 9 9 21 12 12 3 18 10 15 16 -4 5 -1 13 7 18 20 12 130 164 151 208 10 22 23 48 28 58 17 36 32 217 18 217 -5 0 -7 9 -5 20 4 21 -21 41 -42 33 -7 -3 -13 3 -13 12 0 11 -5 15 -16 11 -8 -3 -12 -2 -9 4 3 6 17 7 31 4 14 -4 24 -2 24 5 0 6 -9 11 -20 11 -12 0 -17 5 -14 14 3 9 -5 18 -23 24 -15 6 -21 11 -11 11 9 1 18 7 21 14 3 8 9 6 20 -8 22 -28 32 -12 12 19 -17 25 -16 26 2 26 10 0 24 -5 31 -12 17 -17 16 9 -3 61 -8 22 -10 41 -5 41 13 0 13 37 0 45 -6 3 -7 -1 -4 -9 4 -10 1 -16 -10 -16 -12 0 -14 5 -6 25 7 18 5 28 -6 40 -15 14 -19 14 -47 -4 -33 -21 -47 -41 -28 -41 5 0 13 5 16 10 9 14 25 12 25 -3 0 -7 -17 -19 -37 -27 -21 -7 -33 -15 -26 -17 7 -2 22 1 33 7 12 6 24 9 27 6 6 -6 -22 -36 -34 -36 -10 0 -57 -37 -88 -67 -23 -24 -45 -30 -45 -13 0 6 7 10 15 10 8 0 15 6 15 13 0 6 18 23 40 36 35 22 37 26 22 37 -14 10 -14 14 -3 28 11 14 11 16 -3 16 -16 0 -20 -10 -17 -42 3 -20 -15 -24 -22 -5 -4 10 -7 10 -18 0 -17 -17 -26 -16 -26 2 0 8 4 12 9 9 4 -3 20 6 35 20 15 15 33 26 39 26 6 0 17 7 25 16 7 8 31 25 53 36 23 11 44 25 47 30 8 13 0 46 -14 55 -6 4 -8 -2 -5 -14z m-97 -111 c-8 -9 -25 20 -18 31 3 5 10 2 15 -7 6 -10 7 -20 3 -24z m-308 -7 c8 -24 -3 -29 -27 -12 -15 11 -18 16 -8 20 22 9 28 8 35 -8z m428 -112 c4 -14 2 -23 -4 -23 -6 0 -11 6 -11 14 0 8 -5 16 -12 18 -7 3 -8 10 -4 17 10 15 21 5 31 -26z m-185 23 c0 -3 -4 -8 -10 -11 -5 -3 -10 -1 -10 4 0 6 5 11 10 11 6 0 10 -2 10 -4z m141 -17 c9 -17 8 -23 -2 -30 -19 -12 -39 -11 -39 1 0 6 8 10 18 10 16 1 16 1 0 14 -10 7 -15 16 -11 19 11 12 22 7 34 -14z m-191 -60 c0 -6 -9 -8 -21 -4 -14 5 -19 3 -15 -3 11 -19 -31 -34 -55 -21 -18 9 -24 8 -31 -5 -15 -26 -27 -18 -15 9 13 26 42 34 49 13 3 -9 9 -8 22 5 19 19 66 23 66 6z m115 -21 c-1 -13 -5 -22 -8 -20 -4 1 -7 4 -7 7 0 3 0 14 0 26 0 11 4 18 8 15 5 -3 8 -15 7 -28z m-440 2 c-1 -21 -15 -41 -15 -22 0 5 -3 17 -6 26 -4 10 -1 16 8 16 8 0 14 -9 13 -20z m80 -10 c3 -5 -1 -10 -9 -10 -9 0 -16 5 -16 10 0 6 4 10 9 10 6 0 13 -4 16 -10z m-50 -30 c-3 -5 -11 -10 -16 -10 -6 0 -7 5 -4 10 3 6 11 10 16 10 6 0 7 -4 4 -10z m440 0 c-3 -5 -14 -10 -23 -10 -15 0 -15 2 -2 10 20 13 33 13 25 0z m-125 -4 c0 -2 -9 -6 -20 -9 -11 -3 -18 -1 -14 4 5 9 34 13 34 5z m-123 -44 c-26 -28 -20 -35 13 -15 17 9 30 23 30 30 0 15 16 17 25 3 3 -5 1 -10 -4 -10 -6 0 -11 -5 -11 -11 0 -6 8 -8 19 -4 11 3 22 1 26 -5 3 -5 -1 -10 -9 -10 -9 0 -16 -3 -16 -8 0 -4 -10 -12 -22 -17 -13 -6 -22 -16 -20 -23 1 -7 -5 -12 -13 -12 -17 0 -20 16 -5 25 15 9 12 25 -4 19 -11 -4 -36 -45 -36 -58 0 -2 18 -3 39 -3 29 0 38 4 34 14 -4 9 0 11 11 7 24 -9 19 -23 -11 -37 -16 -6 -31 -16 -34 -21 -4 -5 -15 -6 -24 -2 -14 5 -16 1 -10 -25 5 -22 4 -29 -4 -25 -6 4 -11 2 -11 -4 0 -6 -5 -8 -12 -4 -8 5 -6 11 6 20 19 14 5 30 -19 20 -10 -3 -12 0 -8 11 4 9 -1 21 -12 29 -10 8 -16 16 -13 19 9 9 35 -5 44 -24 8 -15 12 -16 34 -4 16 8 19 13 9 13 -23 0 -44 26 -29 35 8 5 6 13 -6 26 -18 20 -36 26 -31 10 1 -4 -9 -18 -23 -29 -21 -17 -23 -24 -13 -40 6 -10 8 -24 3 -31 -5 -10 -9 -10 -15 -2 -3 7 -15 9 -25 6 -17 -5 -17 -1 6 39 14 26 30 44 35 40 5 -3 9 -1 9 5 0 12 102 83 109 76 2 -3 -3 -13 -12 -23z m-71 -9 c-10 -10 -19 5 -10 18 6 11 8 11 12 0 2 -7 1 -15 -2 -18z m194 23 c0 -3 -4 -8 -10 -11 -5 -3 -10 -1 -10 4 0 6 5 11 10 11 6 0 10 -2 10 -4z m142 -16 c19 -17 19 -20 5 -20 -9 0 -17 5 -17 10 0 6 -7 10 -15 10 -8 0 -15 5 -15 10 0 16 19 12 42 -10z m-104 -2 c-2 -6 -15 -13 -28 -15 -24 -3 -24 -3 -5 11 24 18 38 20 33 4z m-267 -31 c-10 -9 -11 -8 -5 6 3 10 9 15 12 12 3 -3 0 -11 -7 -18z m-28 -7 c-6 -23 -19 -26 -26 -6 -4 9 1 17 11 19 9 3 18 5 19 6 0 0 -1 -8 -4 -19z m377 16 c0 -2 -8 -10 -17 -17 -16 -13 -17 -12 -4 4 13 16 21 21 21 13z m89 -12 c5 4 12 2 15 -3 4 -5 -14 -9 -40 -8 -41 0 -45 2 -29 13 13 10 22 11 31 3 7 -6 18 -8 23 -5z m-237 -16 c-7 -7 -12 -8 -12 -2 0 14 12 26 19 19 2 -3 -1 -11 -7 -17z m61 -8 c-3 -11 -7 -20 -8 -20 -1 0 -5 9 -8 20 -3 12 0 20 8 20 8 0 11 -8 8 -20z m-328 -16 c12 -12 13 -19 4 -30 -17 -21 -24 -17 -25 16 -1 35 -1 35 21 14z m475 1 c-7 -8 -16 -12 -21 -9 -13 8 -1 24 18 24 13 0 13 -3 3 -15z m-195 -35 c-9 -17 -13 -35 -10 -40 3 -6 -1 -7 -9 -4 -19 7 -21 -7 -4 -24 9 -9 8 -12 -8 -12 -10 0 -25 10 -32 21 -12 18 -11 24 3 38 15 15 16 14 9 -4 -7 -18 -6 -19 10 -5 10 8 22 24 27 37 5 13 13 23 19 23 6 0 4 -12 -5 -30z m63 -8 c2 -7 -3 -12 -12 -12 -9 0 -16 -4 -16 -10 0 -5 -4 -10 -10 -10 -5 0 -10 9 -10 19 0 29 39 39 48 13z m-348 -21 c0 -6 -4 -13 -10 -16 -5 -3 -10 1 -10 9 0 9 5 16 10 16 6 0 10 -4 10 -9z m91 -68 c-12 -20 -14 -14 -5 12 4 9 9 14 11 11 3 -2 0 -13 -6 -23z m399 1 c0 -8 -4 -12 -10 -9 -5 3 -10 13 -10 21 0 8 5 12 10 9 6 -3 10 -13 10 -21z m-300 -14 c0 -5 -5 -10 -11 -10 -5 0 -7 5 -4 10 3 6 8 10 11 10 2 0 4 -4 4 -10z m110 -6 c0 -9 -5 -14 -12 -12 -18 6 -21 28 -4 28 9 0 16 -7 16 -16z m130 -3 c0 -5 -7 -11 -14 -14 -10 -4 -13 -1 -9 9 6 15 23 19 23 5z m-523 -33 c-3 -8 -6 -5 -6 6 -1 11 2 17 5 13 3 -3 4 -12 1 -19z m448 2 c3 -5 1 -10 -4 -10 -6 0 -11 5 -11 10 0 6 2 10 4 10 3 0 8 -4 11 -10z m-35 -20 c0 -5 -5 -10 -11 -10 -5 0 -7 5 -4 10 3 6 8 10 11 10 2 0 4 -4 4 -10z m-130 -115 c-7 -9 -15 -13 -19 -10 -3 3 1 10 9 15 21 14 24 12 10 -5z m-150 -205 c0 -5 -4 -10 -10 -10 -5 0 -10 5 -10 10 0 6 5 10 10 10 6 0 10 -4 10 -10z m5 -41 c-16 -5 -35 -16 -42 -24 -8 -11 -13 -13 -18 -5 -10 17 25 39 60 39 l30 -1 -30 -9z m55 -9 c0 -5 -4 -10 -10 -10 -5 0 -10 -7 -10 -16 0 -14 -2 -14 -16 -3 -14 12 -14 14 2 26 21 16 34 17 34 3z m-53 -56 c-3 -3 -12 -4 -19 -1 -8 3 -5 6 6 6 11 1 17 -2 13 -5z" transform="translate(0.000000,143.000000) scale(0.100000,-0.100000)" stroke="none" fill="#C65B23"/>

</svg>