<?xml version="1.0" standalone="no"?>
<!DOCTYPE svg PUBLIC "-//W3C//DTD SVG 20010904//EN"
 "http://www.w3.org/TR/2001/REC-SVG-20010904/DTD/svg10.dtd">
<svg version="1.0" xmlns="http://www.w3.org/2000/svg" 
width="144.000000pt" height="192.000000pt" viewBox="0 0 144.000000 192.000000"
preserveAspectRatio = "xMidYMid meet" >
<metadata>
Created by ZoeQU, 2022
</metadata>
<rect width="144.000000" height="192.000000" fill="#F6EBDD"/>
<path d="M1262 1761 c-25 -34 -102 -74 -126 -65 -10 4 -16 1 -16 -9 0 -12 12 -14 56 -12 50 3 56 1 66 -21 14 -29 38 -33 31 -4 -3 11 -11 20 -18 20 -7 0 -15 9 -18 20 -7 25 36 75 57 67 20 -8 28 3 15 20 -16 19 -23 17 -47 -16z" transform="translate(0.000000,192.000000) scale(0.100000,-0.100000)" stroke="none" fill="#5E756F"/>

<path d="M121 830 c-1 -14 -8 -43 -16 -65 -18 -51 -18 -66 -1 -59 8 3 23 -3 35 -13 57 -52 65 -54 56 -14 -3 17 -1 39 5 50 8 16 8 21 -3 21 -7 0 -18 -5 -24 -11 -13 -13 -63 -1 -63 15 0 22 22 36 41 26 11 -7 20 -7 24 0 3 5 -5 15 -19 21 -14 7 -27 21 -29 33 -4 18 -4 18 -6 -4z" transform="translate(0.000000,192.000000) scale(0.100000,-0.100000)" stroke="none" fill="#5E756F"/>

<path d="M1220 1112 c0 -20 -50 -45 -74 -36 -24 9 -20 -15 7 -37 18 -15 19 -20 8 -28 -14 -9 -48 3 -62 23 -4 4 -10 3 -14 -3 -4 -7 -2 -18 4 -25 6 -7 9 -21 5 -30 -7 -19 7 -21 24 -4 10 10 17 10 31 1 16 -10 21 -5 44 36 25 47 45 121 33 121 -3 0 -6 -8 -6 -18z" transform="translate(0.000000,192.000000) scale(0.100000,-0.100000)" stroke="none" fill="#3D5851"/>

<path d="M178 608 c-4 -31 -32 -34 -46 -6 -8 18 -11 19 -11 6 -1 -10 -8 -18 -16 -18 -10 0 -15 -11 -16 -32 0 -18 -1 -53 -1 -78 -1 -25 0 -67 1 -95 4 -89 19 -18 17 80 -3 114 -1 120 31 100 23 -15 26 -15 42 -1 10 9 23 16 29 16 13 0 15 10 6 34 -9 24 -32 19 -36 -6z" transform="translate(0.000000,192.000000) scale(0.100000,-0.100000)" stroke="none" fill="#3D5851"/>

<path d="M252 430 c-12 -11 -22 -35 -27 -68 -4 -29 -11 -54 -16 -58 -12 -7 -12 -44 0 -44 6 0 13 5 17 11 3 6 17 9 30 6 13 -2 25 1 28 9 6 16 -3 24 -26 24 -22 0 -23 13 -3 30 8 7 19 27 23 44 6 24 14 32 35 34 38 5 34 19 -7 24 -21 2 -41 -2 -54 -12z" transform="translate(0.000000,192.000000) scale(0.100000,-0.100000)" stroke="none" fill="#3D5851"/>

<path d="M1115 1799 c-44 -15 -87 -28 -95 -29 -16 0 -113 -43 -185 -82 -39 -21 -122 -79 -208 -145 -23 -18 -64 -49 -91 -70 -58 -45 -189 -178 -240 -245 -58 -77 -183 -343 -173 -371 2 -7 12 13 22 43 28 84 109 252 146 304 51 69 226 247 293 297 165 123 264 189 305 204 21 7 47 18 57 23 32 17 66 29 154 57 80 25 128 45 105 44 -5 -1 -46 -14 -90 -30z" transform="translate(0.000000,192.000000) scale(0.100000,-0.100000)" stroke="none" fill="#A8B1A7"/>

<path d="M1195 991 c-66 -144 -175 -285 -350 -451 -114 -109 -269 -230 -355 -277 -30 -17 -80 -47 -110 -67 -30 -20 -60 -36 -67 -36 -7 0 -35 -13 -63 -30 -77 -45 -83 -43 -115 56 -9 27 -22 63 -30 79 -7 17 -15 39 -18 50 l-5 20 0 -20 c0 -11 16 -65 37 -120 28 -77 41 -101 56 -103 11 -1 65 20 120 48 227 116 419 257 610 447 80 80 182 195 222 252 23 33 114 222 111 230 -2 4 -21 -31 -43 -78z" transform="translate(0.000000,192.000000) scale(0.100000,-0.100000)" stroke="none" fill="#A8B1A7"/>

<path d="M1195 1800 c-3 -5 -22 -10 -41 -10 -19 0 -34 -4 -34 -10 0 -5 -11 -10 -24 -10 -14 0 -28 -4 -31 -10 -3 -5 -17 -10 -31 -10 -13 0 -32 -4 -42 -9 -9 -5 -29 -14 -44 -22 -34 -15 -35 -22 -4 -38 27 -15 50 -6 42 15 -3 8 -1 14 4 14 10 0 14 -27 11 -62 -1 -10 12 -23 34 -34 56 -26 55 -37 -4 -32 -33 3 -51 1 -51 -6 0 -6 -7 -24 -15 -40 -20 -39 -13 -43 20 -12 16 15 34 26 42 26 11 0 45 18 72 37 7 5 -21 83 -30 83 -4 0 -9 -7 -13 -15 -8 -22 -26 -18 -26 5 0 11 -5 20 -11 20 -8 0 -8 4 0 14 6 8 10 20 9 27 -5 23 29 21 35 -2 6 -22 27 -18 27 7 0 9 11 14 30 14 19 0 30 5 30 14 0 23 15 27 48 11 32 -16 57 -12 66 11 9 22 -56 45 -69 24z m35 -16 c0 -8 -4 -12 -10 -9 -5 3 -10 10 -10 16 0 5 5 9 10 9 6 0 10 -7 10 -16z" transform="translate(0.000000,192.000000) scale(0.100000,-0.100000)" stroke="none" fill="#3D5851"/>

<path d="M1240 1582 c0 -12 5 -24 10 -27 18 -11 10 -26 -10 -20 -14 4 -20 2 -20 -8 0 -15 -44 -29 -67 -20 -7 3 -13 13 -13 23 0 13 -10 19 -36 22 -19 2 -37 0 -40 -4 -3 -4 -15 -8 -28 -8 -25 0 -46 -17 -46 -37 0 -21 25 -15 50 12 16 17 27 22 34 15 5 -5 18 -10 29 -10 33 0 12 -24 -29 -34 -21 -5 -45 -17 -52 -28 -7 -10 -20 -18 -28 -18 -16 0 -19 -26 -4 -35 6 -4 28 8 50 25 33 26 43 29 60 20 28 -15 25 -30 -6 -30 -37 0 -25 -23 19 -34 42 -11 71 6 62 35 -8 24 16 34 44 19 17 -9 22 -8 27 4 4 10 15 13 40 9 33 -5 34 -4 34 26 0 25 -4 31 -22 31 l-21 0 22 24 c24 26 25 47 0 52 -7 2 -24 6 -36 10 -19 5 -23 2 -23 -14z m10 -102 c0 -13 -7 -20 -20 -20 -22 0 -23 1 -14 24 9 23 34 20 34 -4z" transform="translate(0.000000,192.000000) scale(0.100000,-0.100000)" stroke="none" fill="#5E756F"/>

<path d="M545 600 c-7 -23 -21 -26 -28 -7 -8 22 -45 -21 -40 -47 4 -17 -1 -25 -16 -29 -13 -3 -21 -13 -21 -26 0 -12 -5 -30 -12 -41 -10 -15 -9 -22 6 -39 14 -16 15 -23 6 -41 -11 -20 -13 -20 -29 -6 -23 21 -34 20 -54 -2 -24 -26 -22 -29 29 -35 25 -2 55 -14 67 -24 12 -11 29 -24 37 -28 13 -8 13 -7 0 10 -14 17 -13 18 3 12 9 -3 17 -3 17 2 0 5 -16 12 -35 15 -39 8 -41 12 -20 39 9 13 20 17 34 12 24 -7 92 34 116 71 19 29 5 64 -25 64 -24 0 -27 28 -5 37 9 3 24 -2 34 -11 17 -16 19 -15 35 8 21 33 20 46 -4 46 -11 0 -20 3 -20 8 0 7 -47 32 -61 32 -4 0 -11 -9 -14 -20z m35 -10 c0 -5 -4 -10 -10 -10 -5 0 -10 5 -10 10 0 6 5 10 10 10 6 0 10 -4 10 -10z m-20 -30 c0 -5 -5 -10 -11 -10 -5 0 -7 5 -4 10 3 6 8 10 11 10 2 0 4 -4 4 -10z m68 -19 c3 -8 -1 -12 -9 -9 -7 2 -15 10 -17 17 -3 8 1 12 9 9 7 -2 15 -10 17 -17z m-93 -39 c2 -12 7 -27 10 -32 4 -6 1 -17 -5 -25 -9 -11 -9 -19 -2 -28 8 -10 6 -16 -9 -25 -16 -10 -20 -10 -25 3 -4 8 -12 15 -20 15 -8 0 -14 5 -14 10 0 6 4 10 8 10 11 0 32 60 32 90 0 29 18 15 25 -18z m-85 -72 c0 -5 -2 -10 -4 -10 -3 0 -8 5 -11 10 -3 6 -1 10 4 10 6 0 11 -4 11 -10z m120 -11 c0 -6 -4 -7 -10 -4 -5 3 -10 11 -10 16 0 6 5 7 10 4 6 -3 10 -11 10 -16z m-80 -29 c0 -5 -7 -10 -15 -10 -8 0 -15 5 -15 10 0 6 7 10 15 10 8 0 15 -4 15 -10z" transform="translate(0.000000,192.000000) scale(0.100000,-0.100000)" stroke="none" fill="#496660"/>

<path d="M180 975 c-1 -5 -3 -19 -5 -30 -17 -94 -16 -107 2 -103 11 2 17 11 15 21 -3 21 25 34 40 19 7 -7 4 -14 -11 -24 -24 -15 -28 -50 -6 -68 8 -7 15 -18 15 -26 0 -24 21 -26 41 -5 14 14 18 28 13 46 -4 17 -2 25 6 25 9 0 11 -15 7 -55 -5 -52 -4 -55 17 -55 13 0 29 7 36 15 16 19 27 19 46 0 14 -13 12 -20 -16 -55 -27 -34 -30 -43 -19 -56 7 -9 25 -14 43 -12 29 3 31 6 36 53 l6 50 8 -37 c9 -43 12 -44 37 -22 16 14 18 14 29 -5 13 -25 40 -28 40 -3 0 40 -13 64 -31 59 -23 -6 -41 15 -33 37 7 18 -7 21 -23 5 -14 -14 -62 18 -63 43 0 9 -15 25 -32 37 -27 16 -35 30 -43 72 -11 55 -24 69 -46 46 -19 -18 -61 -17 -76 2 -7 9 -13 12 -13 6 -1 -5 -5 -1 -10 10 -5 11 -9 16 -10 10z m135 -56 c0 -7 -8 -15 -17 -17 -18 -3 -25 18 -11 32 10 10 28 1 28 -15z m-60 -9 c3 -5 1 -10 -4 -10 -6 0 -11 5 -11 10 0 6 2 10 4 10 3 0 8 -4 11 -10z m145 -121 c0 -15 -33 -24 -38 -10 -2 7 -15 16 -28 21 -14 6 -24 18 -24 29 0 19 2 18 45 -6 25 -13 45 -29 45 -34z m-130 7 c0 -15 -14 -35 -21 -30 -15 9 -10 34 6 34 8 0 15 -2 15 -4z m212 -128 c-9 -9 -12 -4 -11 23 0 32 1 33 11 11 8 -17 8 -26 0 -34z m-65 -25 c5 -13 -25 -26 -38 -17 -6 3 -5 11 2 20 13 16 31 14 36 -3z" transform="translate(0.000000,192.000000) scale(0.100000,-0.100000)" stroke="none" fill="#496660"/>

<path d="M1180 1431 c0 -6 4 -13 10 -16 6 -4 4 -16 -6 -31 -14 -21 -22 -23 -52 -18 -32 6 -35 5 -29 -15 6 -25 -8 -37 -27 -22 -7 6 -15 8 -19 5 -3 -3 -15 0 -27 6 -15 8 -19 17 -15 31 9 28 -27 25 -59 -5 -30 -27 -32 -39 -12 -55 12 -10 13 -9 9 7 -3 14 1 22 16 27 28 9 40 -1 34 -26 -6 -20 -3 -21 35 -14 42 7 82 0 82 -15 0 -4 -25 -18 -55 -30 -59 -24 -67 -40 -37 -76 19 -24 59 -37 68 -23 10 17 23 9 26 -18 2 -20 9 -28 23 -28 16 0 19 6 17 28 -3 30 12 35 42 12 24 -18 46 -19 46 -3 0 7 12 44 26 82 23 59 25 72 14 90 -12 19 -11 20 2 8 14 -11 17 -9 23 18 8 38 5 42 -37 47 -19 2 -39 12 -47 23 -14 20 -51 28 -51 11z m70 -117 c0 -8 -6 -14 -14 -14 -18 0 -29 27 -13 33 16 6 27 -1 27 -19z m-40 -19 c0 -10 -40 -24 -54 -19 -28 11 -17 24 19 24 19 0 35 -2 35 -5z m50 -56 c0 -10 -7 -19 -15 -19 -8 0 -15 -4 -15 -9 0 -6 -22 -9 -50 -9 -27 1 -50 5 -50 10 0 4 7 8 16 8 10 0 13 6 10 18 -5 15 2 17 49 19 48 2 55 0 55 -18z m-152 -21 c-4 -27 -18 -32 -42 -15 -24 17 -13 37 20 37 20 0 25 -4 22 -22z" transform="translate(0.000000,192.000000) scale(0.100000,-0.100000)" stroke="none" fill="#3D5851"/>

<path d="M121 776 c-9 -11 -8 -18 4 -30 19 -18 41 -21 50 -6 3 6 13 10 21 10 12 0 12 -4 4 -21 -6 -11 -8 -33 -5 -50 9 -40 1 -38 -56 14 -22 20 -35 22 -45 5 -5 -8 -2 -9 9 -5 28 11 34 -39 8 -67 -25 -26 -26 -36 -6 -36 8 0 15 8 16 18 0 13 3 12 11 -6 14 -28 42 -25 46 6 4 25 27 30 36 6 9 -24 7 -34 -6 -34 -6 0 -19 -7 -29 -16 -16 -14 -20 -14 -43 1 -14 10 -26 13 -27 9 -1 -5 -2 -56 -3 -114 -2 -58 -6 -114 -11 -124 -8 -18 -6 -18 23 3 18 12 32 29 32 38 0 20 24 11 28 -11 2 -10 -4 -26 -12 -35 -13 -14 -14 -24 -6 -45 13 -35 13 -36 -4 -36 -15 0 -25 -27 -18 -49 4 -11 6 -11 13 0 6 10 9 6 9 -13 0 -15 5 -30 12 -34 7 -5 9 -2 5 9 -4 11 -2 14 9 10 7 -3 14 -11 14 -18 0 -18 -25 -26 -41 -12 -8 7 -6 3 3 -8 17 -19 18 -19 40 2 28 25 68 39 68 23 0 -7 6 -6 15 3 8 9 20 17 27 20 8 2 1 15 -21 36 -19 17 -31 34 -28 37 3 4 13 -1 22 -10 19 -19 25 -19 45 -6 13 9 13 12 0 23 -8 6 -22 25 -30 40 -15 30 -15 29 33 89 l27 35 -22 41 c-13 23 -27 42 -31 42 -5 0 -6 -4 -3 -9 3 -4 -3 -16 -14 -26 -18 -17 -20 -16 -48 12 -26 26 -28 31 -16 48 7 10 12 21 9 25 -2 3 23 4 57 2 54 -4 60 -3 56 14 -2 13 -15 21 -38 25 l-35 6 27 11 c24 10 27 16 24 44 -2 21 -10 35 -22 38 -39 12 -85 37 -84 46 0 5 -8 10 -20 12 -11 2 -20 8 -20 14 0 6 -3 8 -6 5 -4 -3 -15 -2 -24 3 -13 7 -21 5 -29 -4z m36 -23 c-8 -7 -37 9 -31 19 3 5 12 4 20 -3 8 -6 13 -14 11 -16z m111 -60 c2 -8 -5 -13 -17 -13 -12 0 -21 6 -21 16 0 18 31 15 38 -3z m0 -50 c3 -20 0 -22 -20 -14 -32 12 -38 44 -6 39 15 -2 24 -11 26 -25z m37 9 c0 -18 -20 -15 -23 4 -3 10 1 15 10 12 7 -3 13 -10 13 -16z m-135 -48 c0 -16 -16 -19 -25 -4 -8 13 4 32 16 25 5 -4 9 -13 9 -21z m-30 -64 c0 -5 -4 -10 -10 -10 -5 0 -10 5 -10 10 0 6 5 10 10 10 6 0 10 -4 10 -10z m-5 -40 c3 -5 1 -10 -4 -10 -6 0 -11 5 -11 10 0 6 2 10 4 10 3 0 8 -4 11 -10z m63 -8 c2 -7 -7 -12 -22 -12 -27 0 -35 15 -13 23 17 7 30 3 35 -11z m-48 -36 c0 -7 15 -17 33 -22 38 -12 45 -40 7 -36 -30 3 -75 45 -66 61 10 15 26 14 26 -3z m55 3 c10 -15 -1 -23 -20 -15 -9 3 -13 10 -10 16 8 13 22 13 30 -1z m135 -29 c0 -5 -12 -10 -27 -12 -21 -2 -29 -10 -35 -34 -4 -17 -15 -37 -23 -44 -20 -17 -19 -30 3 -30 23 0 32 -8 26 -24 -3 -8 -15 -11 -28 -9 -13 3 -27 0 -30 -6 -4 -6 -11 -11 -17 -11 -12 0 -12 37 0 44 5 4 12 29 16 58 9 63 32 86 81 80 19 -2 34 -8 34 -12z m-200 -30 c0 -5 -4 -10 -10 -10 -5 0 -10 5 -10 10 0 6 5 10 10 10 6 0 10 -4 10 -10z m51 -103 c-7 -7 -12 -5 -17 7 -4 11 -1 21 7 27 17 11 26 -18 10 -34z m63 -42 c-6 -16 -24 -21 -24 -7 0 11 11 22 21 22 5 0 6 -7 3 -15z m66 -5 c0 -5 -2 -10 -4 -10 -3 0 -8 5 -11 10 -3 6 -1 10 4 10 6 0 11 -4 11 -10z m-135 -19 c-8 -13 -35 -15 -35 -2 0 5 8 11 18 13 21 5 26 2 17 -11z m42 -6 c17 -17 10 -49 -9 -43 -12 4 -23 58 -12 58 3 0 12 -7 21 -15z m53 -35 c0 -5 -4 -10 -10 -10 -5 0 -10 5 -10 10 0 6 5 10 10 10 6 0 10 -4 10 -10z" transform="translate(0.000000,192.000000) scale(0.100000,-0.100000)" stroke="none" fill="#496660"/>

<path d="M790 1638 c-41 -28 -79 -57 -83 -64 -4 -8 -14 -14 -22 -14 -8 0 -30 -15 -49 -32 -18 -18 -40 -37 -49 -43 -38 -26 -126 -96 -132 -104 -10 -17 18 -52 38 -47 10 2 17 -1 17 -9 0 -23 -12 -45 -24 -45 -6 0 -24 -13 -39 -30 -16 -16 -37 -30 -47 -30 -43 0 -50 -59 -9 -80 22 -12 27 8 7 28 -9 9 -8 16 5 29 15 16 18 16 35 -1 11 -9 36 -20 56 -23 27 -4 38 -12 42 -29 9 -36 29 -48 48 -28 16 15 16 18 0 35 -9 11 -23 19 -31 19 -19 0 -16 39 4 47 9 4 19 1 21 -5 6 -18 22 -4 22 20 0 11 7 26 17 33 9 7 13 17 9 23 -12 20 -35 13 -48 -13 -12 -22 -107 -80 -116 -70 -7 6 61 65 75 65 7 0 13 11 13 24 0 36 25 52 61 39 27 -11 31 -10 39 13 12 31 28 31 36 -1 4 -18 13 -25 30 -25 35 0 34 -47 -1 -56 -21 -5 -23 -9 -14 -26 12 -22 -3 -48 -27 -48 -17 0 -18 14 -4 41 9 16 7 19 -8 19 -27 0 -38 -18 -45 -72 -6 -43 -4 -50 23 -77 17 -16 30 -31 30 -34 0 -10 -64 -16 -75 -7 -9 8 -14 3 -18 -20 -4 -19 -13 -30 -23 -30 -13 0 -16 7 -11 35 7 40 6 40 -50 50 -33 5 -43 4 -43 -7 -1 -36 -17 -40 -47 -11 -17 15 -34 38 -37 50 -8 24 -43 40 -57 26 -6 -6 4 -24 26 -48 40 -45 42 -49 17 -67 -11 -7 -24 -23 -31 -35 -7 -14 -17 -20 -26 -17 -17 7 -21 44 -5 44 6 0 10 7 10 15 0 18 -12 19 -27 4 -6 -6 -16 -8 -22 -5 -12 8 3 49 28 79 9 11 11 21 5 27 -6 6 -22 -10 -43 -48 -27 -47 -32 -64 -27 -94 6 -36 -6 -53 -17 -25 -3 6 -6 2 -6 -11 -1 -13 3 -20 9 -17 6 3 13 0 16 -8 7 -18 54 -17 73 1 22 21 35 8 46 -47 8 -42 16 -56 43 -72 17 -12 32 -28 32 -37 1 -25 49 -57 63 -43 16 16 30 13 23 -5 -8 -22 10 -43 33 -37 18 5 31 -19 31 -59 0 -25 -27 -22 -40 3 -11 19 -13 19 -29 5 -25 -22 -28 -21 -37 22 l-8 37 -6 -50 c-5 -47 -7 -50 -36 -53 -18 -2 -36 3 -43 12 -11 13 -8 22 19 56 28 35 30 42 16 55 -19 19 -30 19 -46 0 -7 -8 -23 -15 -36 -15 -21 0 -22 3 -17 55 4 40 2 55 -7 55 -8 0 -10 -8 -6 -25 5 -18 1 -32 -13 -46 -20 -21 -41 -19 -41 5 0 8 -7 19 -15 26 -22 18 -18 53 6 68 15 10 18 17 11 24 -15 15 -43 2 -40 -19 2 -10 -5 -19 -16 -21 -16 -3 -18 0 -13 27 4 18 2 31 -3 31 -6 0 -10 -9 -10 -19 0 -11 -4 -23 -10 -26 -19 -12 -10 -35 15 -41 18 -4 25 -13 25 -29 0 -17 7 -25 23 -27 12 -2 21 -7 19 -12 -3 -9 41 -33 82 -46 12 -3 20 -17 22 -38 3 -28 0 -34 -24 -44 l-27 -11 35 -6 c23 -4 36 -12 38 -25 4 -17 -2 -18 -56 -14 -34 2 -59 1 -57 -2 3 -4 -2 -15 -9 -25 -12 -17 -10 -22 16 -48 28 -28 30 -29 48 -12 11 10 17 22 14 26 -3 5 -2 9 3 9 4 0 18 -19 31 -42 l22 -41 -27 -35 c-48 -60 -48 -59 -33 -89 8 -15 22 -34 30 -40 13 -11 13 -14 0 -23 -20 -13 -26 -13 -45 6 -9 9 -19 14 -22 10 -3 -3 9 -19 27 -36 27 -26 31 -33 19 -41 -12 -7 -12 -9 1 -9 8 1 23 6 32 14 13 10 15 15 5 25 -9 9 -4 10 21 5 40 -8 42 8 5 40 l-27 24 51 -1 c42 -1 50 -3 41 -14 -14 -17 5 -18 31 -1 18 11 17 13 -11 36 -17 15 -46 27 -73 30 -50 5 -54 11 -27 35 23 21 31 21 53 1 16 -14 18 -14 29 6 9 18 8 25 -6 41 -15 17 -16 24 -6 39 7 11 12 29 12 41 0 13 8 23 21 26 15 4 20 12 16 29 -6 31 29 66 44 44 8 -13 10 -13 19 0 5 8 11 19 13 24 4 11 67 -15 67 -26 0 -5 9 -8 20 -8 24 0 25 -13 4 -46 -16 -23 -18 -24 -35 -8 -10 9 -25 14 -34 11 -22 -9 -19 -37 5 -37 30 0 44 -35 25 -64 -24 -37 -92 -78 -116 -71 -14 5 -25 1 -34 -12 -21 -26 -19 -31 17 -38 18 -4 36 -12 39 -18 4 -5 25 3 51 21 40 28 44 34 40 63 -3 22 -1 30 7 25 6 -4 11 -14 11 -22 0 -8 3 -14 6 -14 10 0 157 123 217 181 63 62 75 94 31 83 l-26 -7 16 31 c22 43 1 55 -31 17 -13 -15 -26 -25 -29 -22 -7 7 -7 39 1 63 5 17 2 23 -16 27 -13 3 -28 2 -35 -4 -15 -12 -6 -49 12 -49 9 0 14 -11 14 -30 0 -23 4 -30 17 -28 12 2 19 -6 23 -29 7 -31 6 -32 -31 -38 -20 -4 -40 -13 -43 -21 -6 -15 -36 -20 -36 -6 0 5 -25 26 -55 48 -50 36 -74 68 -61 81 3 3 17 -2 32 -11 28 -19 44 -15 26 7 -23 28 16 37 43 11 9 -9 19 -13 23 -9 4 4 1 10 -5 12 -19 7 -16 40 5 52 14 9 14 10 1 11 -8 0 -19 -4 -25 -9 -5 -5 -28 -11 -51 -15 -35 -5 -43 -3 -43 9 0 13 -7 15 -34 10 -33 -7 -33 -6 -40 34 -4 25 -2 50 5 62 16 31 -7 52 -27 24 -13 -17 -16 -18 -24 -5 -5 8 -10 19 -10 23 0 5 -9 7 -20 5 -10 -2 -19 1 -19 7 -1 5 9 10 22 10 17 0 22 6 22 27 1 39 10 43 51 23 37 -17 38 -17 55 4 10 12 19 27 22 34 2 6 8 8 13 4 4 -4 3 -16 -4 -25 -7 -9 -15 -24 -18 -32 -3 -8 -9 -23 -14 -32 -16 -29 -10 -131 9 -145 24 -19 97 -17 105 3 4 11 14 15 31 11 16 -3 29 1 34 10 10 19 51 8 51 -13 0 -9 10 -14 27 -14 25 0 25 1 10 18 -10 10 -17 26 -17 36 0 26 34 15 38 -12 3 -20 8 -23 30 -17 38 9 40 14 15 35 -27 22 -29 36 -7 48 12 7 13 11 5 17 -7 4 -22 -2 -34 -13 -12 -10 -39 -22 -60 -25 -33 -5 -37 -4 -32 12 8 25 -18 72 -34 61 -10 -5 -10 -9 -2 -11 9 -3 9 -12 3 -29 l-10 -25 -7 26 c-9 34 -44 53 -84 44 -39 -8 -39 -1 2 37 17 17 27 32 21 34 -6 3 -20 11 -30 19 -14 10 -16 17 -8 25 17 17 52 3 56 -23 5 -34 36 -34 40 0 2 20 9 29 26 31 12 2 22 8 22 13 0 5 -10 9 -22 9 -22 0 -96 75 -86 85 3 3 18 7 34 11 28 5 31 3 44 -35 14 -43 27 -52 36 -26 8 20 31 19 42 -2 9 -16 11 -16 36 0 32 22 46 21 62 0 7 -10 16 -14 20 -10 5 4 3 11 -3 15 -6 4 -13 18 -14 32 -5 32 -38 40 -46 11 -7 -26 -39 -28 -65 -4 -14 13 -21 14 -30 5 -15 -15 -28 -15 -28 0 0 6 -7 19 -15 28 -12 13 -14 28 -9 59 4 22 11 41 17 41 5 0 7 13 4 30 -7 33 7 49 21 24 7 -12 15 -14 33 -8 13 5 33 9 44 9 13 0 21 8 23 23 2 12 10 22 18 22 25 0 15 24 -17 43 -26 14 -29 20 -19 32 7 8 21 15 32 15 24 0 36 29 17 44 -8 6 -14 23 -14 38 -1 21 6 30 26 37 22 8 25 13 21 40 -4 26 -7 29 -19 19 -11 -9 -16 -9 -24 3 -12 19 -11 29 1 29 6 0 10 5 10 10 0 23 -50 6 -120 -42z m70 4 c0 -12 -39 -42 -55 -42 -23 0 -18 13 13 32 31 19 42 21 42 10z m55 -32 c-3 -5 -15 -10 -26 -10 -10 0 -19 5 -19 10 0 6 12 10 26 10 14 0 23 -4 19 -10z m-135 -19 c0 -5 -7 -12 -16 -15 -14 -5 -15 -4 -4 9 14 17 20 19 20 6z m80 -37 c-13 -33 -13 -31 10 -37 29 -8 26 -37 -5 -37 -18 0 -26 7 -31 24 -3 14 -14 32 -25 42 -27 24 -24 32 14 36 43 5 48 1 37 -28z m-80 -29 c0 -8 -4 -15 -9 -15 -13 0 -22 16 -14 24 11 11 23 6 23 -9z m-110 -40 c0 -8 -7 -15 -15 -15 -26 0 -18 20 13 29 1 1 2 -6 2 -14z m80 -15 c0 -5 -4 -10 -10 -10 -5 0 -10 5 -10 10 0 6 5 10 10 10 6 0 10 -4 10 -10z m-160 -35 c-7 -8 -19 -15 -26 -15 -19 0 -18 -16 2 -24 8 -3 12 -11 9 -17 -5 -7 -13 -5 -25 6 -12 11 -20 13 -25 6 -3 -6 -12 -11 -18 -11 -7 0 10 21 38 46 27 25 51 40 53 34 2 -6 -2 -17 -8 -25z m235 25 c9 -15 -14 -40 -36 -40 -21 0 -25 20 -7 38 15 15 35 15 43 2z m-191 -71 c-3 -5 -12 -9 -20 -9 -14 0 -20 31 -7 44 9 9 34 -24 27 -35z m191 -4 c0 -28 -29 -25 -33 3 -3 19 0 23 15 20 10 -2 18 -12 18 -23z m-101 0 c6 -17 4 -18 -18 -9 -20 8 -21 24 -2 24 8 0 16 -7 20 -15z m-284 -396 c0 -16 -6 -20 -27 -17 -34 4 -41 26 -11 37 28 11 38 6 38 -20z m258 -131 c3 -18 -32 -43 -48 -33 -14 9 -12 42 3 48 21 9 42 2 45 -15z m-253 -268 c7 -12 -3 -50 -14 -50 -19 0 -44 28 -38 44 7 18 42 22 52 6z m-50 -67 c13 -16 25 -34 25 -40 0 -19 -23 -16 -42 6 -8 10 -22 21 -29 23 -15 5 -5 38 11 38 6 0 22 -12 35 -27z m305 -8 c0 -8 7 -15 15 -15 8 0 15 -4 15 -10 0 -14 -27 -12 -34 3 -3 9 -9 7 -19 -5 -17 -22 -27 -23 -27 -3 0 8 5 15 10 15 6 0 10 7 10 15 0 8 7 15 15 15 8 0 15 -7 15 -15z m-415 -5 c-3 -5 -13 -10 -21 -10 -8 0 -12 5 -9 10 3 6 13 10 21 10 8 0 12 -4 9 -10z m391 -76 c-21 -22 -28 -24 -41 -14 -22 18 -18 28 9 23 13 -3 27 0 30 6 4 6 12 11 18 11 6 0 -1 -12 -16 -26z m-106 -80 c0 -8 -5 -12 -10 -9 -6 4 -8 11 -5 16 9 14 15 11 15 -7z m-30 -24 c0 -5 -7 -10 -15 -10 -8 0 -15 5 -15 10 0 6 7 10 15 10 8 0 15 -4 15 -10z" transform="translate(0.000000,192.000000) scale(0.100000,-0.100000)" stroke="none" fill="#3D5851"/>

<path d="M1219 1799 c-11 -6 -11 -11 -1 -21 9 -9 12 -9 12 5 0 9 6 17 14 17 23 0 28 -17 10 -35 -16 -16 -46 -13 -71 7 -15 12 -33 2 -33 -18 0 -9 -10 -14 -29 -14 -21 0 -30 -6 -34 -21 -6 -23 -27 -17 -27 7 0 10 -7 14 -17 12 -10 -2 -17 -10 -15 -17 1 -7 -3 -19 -9 -27 -8 -10 -8 -14 0 -14 6 0 11 -9 11 -20 0 -23 18 -27 26 -5 9 22 21 18 28 -10 6 -22 11 -24 46 -21 28 3 40 0 40 -9 0 -7 9 -19 20 -26 15 -11 17 -18 10 -29 -9 -13 -13 -12 -29 7 -10 12 -26 23 -37 25 -10 2 -22 8 -26 13 -5 6 -8 4 -8 -5 0 -15 -52 -50 -74 -50 -7 0 -25 -11 -41 -26 -33 -31 -40 -27 -20 12 8 16 15 34 15 40 0 7 18 9 51 6 59 -5 60 6 4 32 -22 11 -35 24 -34 34 3 34 -1 62 -10 62 -5 0 -8 -8 -7 -17 2 -24 -26 -27 -50 -5 -13 13 -26 16 -39 11 -17 -7 -18 -8 -2 -8 18 -1 25 -21 7 -21 -12 0 -13 -10 -1 -29 8 -12 13 -12 24 -3 12 10 15 7 19 -19 4 -27 1 -32 -21 -40 -20 -7 -27 -16 -26 -36 0 -29 26 -65 36 -51 3 5 14 -1 24 -12 21 -24 12 -39 -14 -23 -21 13 -66 6 -82 -13 -9 -11 -5 -17 20 -31 32 -19 42 -43 17 -43 -8 0 -16 -10 -18 -22 -2 -15 -10 -23 -23 -23 -11 0 -31 -4 -44 -9 -18 -6 -26 -4 -33 8 -14 25 -28 9 -21 -24 3 -19 1 -30 -6 -30 -6 0 -11 11 -11 25 0 20 -5 25 -24 25 -17 0 -26 7 -30 25 -8 32 -24 32 -36 1 -8 -23 -12 -24 -39 -13 -36 13 -61 -3 -61 -39 0 -13 -6 -24 -13 -24 -14 0 -82 -59 -75 -65 9 -10 104 48 116 70 13 26 36 33 48 13 4 -6 0 -16 -9 -23 -10 -7 -17 -22 -17 -33 0 -24 -16 -38 -22 -20 -2 6 -12 9 -21 5 -20 -8 -23 -47 -4 -47 8 0 22 -8 31 -19 16 -17 16 -20 0 -35 -19 -20 -39 -8 -48 28 -4 17 -15 25 -42 29 -20 3 -45 14 -56 23 -17 17 -20 17 -35 1 -13 -13 -15 -20 -5 -29 20 -20 15 -40 -7 -28 -41 21 -34 80 9 80 10 0 31 14 47 30 15 17 33 30 39 30 12 0 24 22 24 46 0 8 -6 11 -15 8 -9 -4 -23 3 -33 16 -17 21 -19 21 -32 4 -9 -11 -10 -15 -2 -10 7 4 12 2 12 -8 0 -8 -6 -16 -12 -19 -10 -4 -10 -7 0 -18 10 -11 12 -10 12 4 0 9 5 17 10 17 14 0 12 -22 -5 -44 -8 -11 -19 -15 -26 -10 -14 8 -61 13 -54 5 3 -2 -1 -11 -8 -20 -11 -14 -10 -14 5 -2 15 11 18 11 18 -1 0 -8 -6 -23 -14 -33 -12 -17 -16 -18 -32 -5 -16 12 -17 12 -6 0 17 -20 15 -30 -7 -30 -36 0 -53 -11 -40 -26 9 -11 8 -18 -3 -32 -24 -29 -39 -70 -27 -78 6 -3 16 -1 22 5 15 15 27 14 27 -4 0 -8 -4 -15 -10 -15 -16 0 -12 -37 5 -44 9 -3 19 3 26 17 7 12 20 28 31 35 25 18 23 22 -17 67 -22 24 -32 42 -26 48 14 14 49 -2 57 -26 3 -12 20 -35 37 -50 30 -29 46 -25 47 11 0 11 10 12 42 7 57 -10 58 -10 51 -50 -5 -28 -2 -35 11 -35 10 0 19 11 23 30 4 23 9 28 18 20 11 -9 75 -3 75 7 0 3 -13 18 -30 34 -27 27 -29 34 -23 77 7 54 18 72 45 72 15 0 17 -3 8 -19 -14 -27 -13 -41 4 -41 24 0 39 26 26 49 -6 12 -7 21 -1 21 5 0 17 3 27 7 15 5 16 1 10 -39 -5 -34 -3 -48 9 -58 8 -7 15 -19 15 -26 0 -17 12 -18 28 -2 9 9 16 8 30 -5 26 -24 58 -22 65 4 8 31 41 21 45 -14 4 -29 22 -38 22 -11 0 11 5 14 16 10 9 -3 18 -6 20 -6 2 0 4 -4 4 -10 0 -5 -9 -10 -19 -10 -11 0 -22 -6 -25 -12 -3 -10 -9 -8 -19 5 -18 21 -31 21 -63 0 -25 -16 -27 -16 -36 0 -11 21 -34 22 -42 2 -9 -26 -22 -17 -36 26 -13 38 -16 40 -44 35 -16 -4 -31 -8 -34 -11 -10 -10 64 -85 86 -85 12 0 22 -4 22 -9 0 -5 -10 -11 -22 -13 -17 -2 -24 -11 -26 -31 -4 -34 -35 -34 -40 0 -4 26 -39 40 -56 23 -8 -8 -6 -15 8 -25 10 -8 24 -16 30 -19 6 -2 -4 -17 -21 -34 -41 -38 -41 -45 -2 -37 40 9 75 -10 84 -44 l7 -26 9 24 c7 17 6 27 -2 32 -8 5 -7 8 2 11 17 6 41 -39 34 -63 -5 -16 -1 -17 32 -12 21 3 48 15 60 25 12 11 27 17 34 13 8 -6 7 -10 -5 -17 -22 -12 -20 -26 7 -48 25 -21 23 -26 -15 -35 -22 -6 -27 -3 -30 17 -4 27 -38 38 -38 12 0 -10 7 -26 17 -36 15 -17 15 -18 -10 -18 -17 0 -27 5 -27 14 0 21 -41 32 -51 13 -5 -9 -18 -13 -34 -10 -17 4 -27 0 -31 -11 -4 -11 -18 -16 -48 -16 -61 1 -74 15 -75 84 0 52 4 70 31 116 18 32 20 41 13 48 -4 4 -10 1 -12 -5 -3 -7 -12 -22 -22 -34 -17 -21 -18 -21 -55 -4 -41 20 -50 16 -51 -23 0 -21 -5 -27 -22 -27 -13 0 -22 -5 -21 -10 0 -6 9 -9 20 -7 10 2 18 0 18 -5 0 -4 5 -15 10 -23 8 -13 11 -12 24 5 20 28 43 7 27 -24 -7 -12 -9 -37 -5 -62 7 -40 7 -41 40 -34 27 5 34 3 34 -10 0 -12 8 -14 43 -9 23 4 46 10 51 15 6 5 17 9 25 9 13 -1 13 -2 -1 -11 -21 -12 -24 -45 -5 -52 6 -2 9 -8 5 -12 -4 -4 -14 0 -23 9 -27 26 -66 17 -43 -11 15 -18 2 -29 -17 -13 -12 10 -15 10 -15 -4 0 -10 -5 -14 -11 -11 -6 4 -8 13 -5 21 3 8 1 14 -4 14 -12 0 -13 -21 -2 -35 7 -11 77 -65 101 -80 10 -6 12 -4 6 5 -6 10 -4 12 9 7 10 -4 20 -7 22 -7 12 0 1 -19 -13 -24 -14 -4 -14 -4 2 -3 11 1 21 9 21 17 3 32 5 35 12 22 5 -8 19 -10 39 -6 28 5 30 8 23 37 -4 23 -11 31 -23 29 -13 -2 -17 5 -17 28 0 19 -5 30 -14 30 -18 0 -27 37 -12 49 7 6 22 7 35 4 18 -4 21 -10 16 -27 -8 -24 -8 -56 -1 -63 3 -3 16 7 29 22 32 38 53 26 31 -17 -16 -31 -16 -31 9 -24 17 4 27 2 29 -7 2 -11 8 -9 23 5 13 13 15 18 6 16 -24 -5 -38 49 -20 80 17 31 32 35 37 10 2 -11 -3 -18 -12 -18 -11 0 -16 -9 -16 -26 0 -21 3 -25 18 -19 9 4 23 8 30 8 6 0 12 11 12 24 0 13 9 31 20 40 11 10 20 23 20 30 0 7 7 13 15 13 20 0 19 -9 -2 -34 -12 -14 -9 -13 10 4 16 13 24 26 18 28 -12 4 -3 32 11 32 5 0 6 -5 2 -12 -4 -7 -3 -8 4 -4 6 4 8 14 5 23 -4 10 -2 14 4 10 6 -4 16 0 23 8 10 12 8 13 -9 10 -14 -2 -21 1 -21 11 0 8 5 12 10 9 15 -10 12 6 -6 26 -15 16 -14 17 5 12 14 -4 21 -1 21 10 0 21 40 30 41 9 0 -13 2 -13 9 3 12 30 -14 54 -40 37 -27 -16 -33 -15 -26 4 4 9 1 23 -5 30 -6 7 -8 18 -4 25 4 6 10 7 14 3 14 -20 48 -32 62 -23 11 8 10 13 -8 28 -28 24 -30 45 -4 36 11 -3 29 0 41 7 17 11 22 11 31 -2 9 -12 10 -12 5 3 -3 10 -6 21 -6 24 0 3 -12 -2 -26 -12 -27 -18 -46 -13 -26 7 7 7 12 20 12 30 0 23 11 23 37 -2 14 -13 23 -15 25 -8 4 11 -54 48 -74 48 -5 0 -7 -12 -6 -27 2 -22 -1 -28 -17 -28 -14 0 -21 8 -23 28 -3 27 -16 35 -26 18 -9 -14 -49 -1 -68 23 -30 36 -22 52 37 76 30 12 55 26 55 30 0 15 -40 22 -82 15 -38 -7 -41 -6 -35 14 6 25 -6 35 -34 26 -15 -5 -19 -13 -16 -27 4 -16 3 -17 -9 -7 -20 16 -18 28 12 55 32 30 68 33 59 5 -4 -14 0 -23 15 -31 12 -6 24 -9 27 -6 4 3 12 1 19 -5 19 -15 33 -3 27 22 -6 20 -3 21 29 15 30 -5 38 -3 52 18 10 15 12 27 6 31 -15 9 -12 23 5 28 11 3 10 4 -2 3 -12 -1 -17 -9 -16 -23 4 -33 -22 -48 -64 -37 -44 11 -56 34 -19 34 31 0 34 15 6 30 -17 9 -27 6 -60 -20 -22 -17 -44 -29 -50 -25 -15 9 -12 35 4 35 8 0 21 8 28 18 7 11 31 23 52 28 40 9 62 34 31 34 -9 0 -13 -4 -10 -10 4 -6 -6 -10 -22 -10 -26 1 -27 2 -10 14 12 9 14 16 7 21 -19 12 -2 21 34 17 26 -3 36 -9 36 -22 0 -15 18 -30 36 -30 3 0 -4 14 -16 30 -12 17 -28 30 -36 30 -8 0 -14 5 -14 10 0 18 39 10 50 -10 14 -26 35 -25 54 2 21 30 21 4 0 -27 -10 -15 -12 -25 -5 -25 6 0 11 7 11 16 0 11 6 14 20 9 20 -6 28 9 10 20 -5 3 -10 15 -10 27 0 16 4 19 23 14 12 -4 29 -8 36 -10 25 -5 24 -26 0 -52 l-22 -24 21 0 c17 0 22 -6 23 -27 2 -60 22 41 25 128 l3 87 -30 6 c-19 3 -29 11 -26 18 2 7 10 12 16 11 6 -2 11 3 11 10 0 7 -10 13 -21 14 -28 2 -35 11 -21 25 8 8 15 8 26 -1 12 -10 14 -9 12 6 -2 14 -13 18 -43 20 -22 0 -46 -3 -54 -8z m-29 -43 c0 -11 -19 -15 -25 -6 -3 5 1 10 9 10 9 0 16 -2 16 -4z m70 -16 c-6 -11 -15 -20 -21 -20 -5 0 -7 -10 -4 -22 6 -22 3 -23 -55 -24 -38 0 -60 4 -60 11 0 7 14 12 30 12 18 0 48 12 73 31 51 37 50 37 37 12z m22 -15 c-5 -29 -17 -39 -33 -30 -7 5 -2 16 12 31 28 30 27 30 21 -1z m-82 5 c0 -14 -49 -32 -63 -23 -7 4 0 12 18 19 37 16 45 17 45 4z m-80 -9 c0 -6 -4 -13 -10 -16 -5 -3 -10 1 -10 9 0 9 5 16 10 16 6 0 10 -4 10 -9z m-50 -31 c12 -8 11 -10 -7 -10 -13 0 -23 5 -23 10 0 13 11 13 30 0z m270 -12 c0 -7 -41 -28 -56 -28 -2 0 -4 8 -4 18 0 14 8 19 30 19 17 0 30 -4 30 -9z m-67 -28 c3 -13 0 -20 -9 -20 -8 0 -14 2 -14 4 0 2 -3 11 -6 20 -4 10 -1 16 9 16 8 0 17 -9 20 -20z m-123 -5 c-12 -15 -30 -12 -30 6 0 5 10 9 21 9 18 0 19 -2 9 -15z m85 6 c3 -5 1 -12 -5 -16 -5 -3 -10 1 -10 9 0 18 6 21 15 7z m96 -31 c5 0 9 -9 9 -20 0 -11 -4 -20 -10 -20 -5 0 -10 9 -10 20 0 11 -7 20 -15 20 -18 0 -20 17 -2 23 6 2 13 -2 15 -10 2 -7 8 -13 13 -13z m-131 -10 c0 -5 -2 -10 -4 -10 -3 0 -8 5 -11 10 -3 6 -1 10 4 10 6 0 11 -4 11 -10z m-244 -58 c-4 -11 -13 -23 -21 -26 -22 -8 -19 31 2 43 22 12 27 8 19 -17z m381 -17 c-4 -8 -11 -15 -17 -15 -7 0 -7 6 0 21 13 23 26 19 17 -6z m-297 -20 c-25 -27 -50 -33 -50 -12 0 20 22 37 49 37 l24 0 -23 -25z m-22 -47 c-3 -7 -11 -13 -18 -13 -7 0 -15 6 -17 13 -3 7 4 12 17 12 13 0 20 -5 18 -12z m89 -34 c-3 -3 -12 -4 -19 -1 -8 3 -5 6 6 6 11 1 17 -2 13 -5z m-161 -28 c6 -26 -1 -46 -17 -46 -5 0 -9 16 -9 35 0 40 17 47 26 11z m134 -35 c0 -12 -29 -23 -41 -15 -18 10 -9 24 16 24 14 0 25 -4 25 -9z m-590 -71 c0 -5 -4 -10 -10 -10 -5 0 -10 5 -10 10 0 6 5 10 10 10 6 0 10 -4 10 -10z m237 -7 c5 -15 -28 -26 -41 -13 -8 8 -7 14 4 20 17 11 32 8 37 -7z m368 -2 c-9 -16 -93 -44 -110 -37 -26 10 -12 30 26 37 54 10 91 10 84 0z m-191 -18 c8 -19 -8 -38 -23 -29 -16 10 -13 46 3 46 8 0 17 -8 20 -17z m-54 -17 c0 -8 -6 -16 -12 -19 -8 -3 -1 -9 15 -16 19 -7 27 -18 27 -35 0 -30 -17 -26 -68 14 -32 26 -32 38 3 58 27 15 35 15 35 -2z m123 -26 c5 -20 4 -37 -1 -42 -14 -14 -32 -1 -32 22 0 10 -5 22 -10 25 -8 5 -7 11 1 21 17 21 32 12 42 -26z m-203 5 c0 -8 -4 -15 -10 -15 -5 0 -10 7 -10 15 0 8 5 15 10 15 6 0 10 -7 10 -15z m158 -64 c-5 -2 -15 2 -21 8 -9 9 -8 14 3 21 11 7 17 4 21 -8 4 -9 2 -19 -3 -21z m72 -21 c0 -5 -7 -10 -15 -10 -8 0 -15 5 -15 10 0 6 7 10 15 10 8 0 15 -4 15 -10z m-270 -31 c0 -5 -4 -9 -10 -9 -5 0 -10 7 -10 16 0 8 5 12 10 9 6 -3 10 -10 10 -16z m365 10 c11 -17 -2 -22 -42 -14 -32 6 -35 9 -18 15 29 12 53 12 60 -1z m-775 -19 c0 -5 -9 -10 -20 -10 -11 0 -20 5 -20 10 0 6 9 10 20 10 11 0 20 -4 20 -10z m90 -11 c0 -6 -4 -7 -10 -4 -5 3 -10 11 -10 16 0 6 5 7 10 4 6 -3 10 -11 10 -16z m640 -8 c0 -12 -29 -23 -41 -15 -5 3 -7 10 -4 15 8 12 45 12 45 0z m50 -17 c0 -18 -8 -18 -26 0 -19 20 -18 25 6 19 11 -3 20 -12 20 -19z m-480 6 c0 -5 -4 -10 -10 -10 -5 0 -10 5 -10 10 0 6 5 10 10 10 6 0 10 -4 10 -10z m280 2 c0 -4 -5 -13 -12 -20 -9 -9 -8 -12 5 -12 9 0 17 -5 17 -11 0 -5 -4 -8 -9 -5 -4 3 -17 -1 -27 -9 -10 -8 -26 -15 -35 -15 -9 0 -22 -7 -29 -15 -19 -23 -42 -19 -38 8 2 17 10 22 33 22 20 0 31 6 33 18 2 9 10 17 18 17 8 0 13 4 10 9 -4 5 0 12 6 14 20 8 28 8 28 -1z m-70 -33 c0 -11 -27 -12 -34 0 -3 4 -3 11 0 14 8 8 34 -3 34 -14z m110 1 c0 -11 -4 -20 -10 -20 -5 0 -10 9 -10 20 0 11 5 20 10 20 6 0 10 -9 10 -20z m127 14 c-3 -3 -12 -4 -19 -1 -8 3 -5 6 6 6 11 1 17 -2 13 -5z m-67 -34 c27 -27 25 -33 -7 -25 -34 8 -47 20 -39 34 10 16 24 13 46 -9z m73 4 c-3 -9 -12 -10 -34 -2 -38 13 -37 16 5 15 22 -1 32 -5 29 -13z m82 -4 c3 -5 -1 -10 -9 -10 -9 0 -16 5 -16 10 0 6 4 10 9 10 6 0 13 -4 16 -10z m-265 -56 c0 -2 -9 -4 -21 -4 -11 0 -18 4 -14 10 5 8 35 3 35 -6z m47 -10 c-9 -9 -28 6 -21 18 4 6 10 6 17 -1 6 -6 8 -13 4 -17z m43 16 c0 -5 -4 -10 -9 -10 -6 0 -13 5 -16 10 -3 6 1 10 9 10 9 0 16 -4 16 -10z m-215 -31 c0 -7 -8 -15 -17 -17 -18 -3 -25 18 -11 32 10 10 28 1 28 -15z m247 -11 c-9 -9 -15 -9 -24 0 -10 10 -10 15 2 22 20 12 38 -6 22 -22z m-69 4 c32 -5 35 -18 6 -27 -16 -5 -18 -9 -9 -15 7 -4 9 -13 5 -20 -6 -10 -11 -10 -19 2 -6 9 -20 17 -30 19 -28 6 -45 37 -26 49 8 5 22 7 30 3 8 -3 27 -8 43 -11z m-118 -32 c-3 -5 -13 -10 -21 -10 -8 0 -14 5 -14 10 0 6 9 10 21 10 11 0 17 -4 14 -10z m35 2 c0 -10 -22 -32 -32 -32 -5 0 -3 9 4 20 13 20 28 27 28 12z m-300 -11 c0 -6 -4 -13 -10 -16 -5 -3 -10 1 -10 9 0 9 5 16 10 16 6 0 10 -4 10 -9z m497 -33 c0 -21 -5 -38 -10 -38 -6 0 -7 3 -4 7 4 3 2 12 -4 20 -9 11 -16 8 -35 -14 -19 -22 -26 -25 -36 -15 -11 11 -9 16 7 28 16 12 17 16 6 23 -22 14 -6 26 37 26 39 1 39 0 39 -37z m-127 -28 c-8 -5 -19 -10 -25 -10 -5 0 -3 5 5 10 8 5 20 10 25 10 6 0 3 -5 -5 -10z m110 -15 c7 -9 10 -18 7 -22 -8 -7 -37 15 -37 28 0 14 16 11 30 -6z m-480 -19 c0 -8 -4 -18 -10 -21 -5 -3 -10 3 -10 14 0 12 5 21 10 21 6 0 10 -6 10 -14z m415 4 c3 -5 2 -10 -4 -10 -5 0 -13 5 -16 10 -3 6 -2 10 4 10 5 0 13 -4 16 -10z m-138 -107 c-21 -21 -27 -15 -16 16 7 19 12 22 21 13 9 -9 8 -16 -5 -29z m-107 -3 c0 -5 -2 -10 -4 -10 -3 0 -8 5 -11 10 -3 6 -1 10 4 10 6 0 11 -4 11 -10z m230 0 c0 -5 -7 -10 -15 -10 -8 0 -15 5 -15 10 0 6 7 10 15 10 8 0 15 -4 15 -10z m-292 -89 c3 -8 -1 -12 -9 -9 -7 2 -15 10 -17 17 -3 8 1 12 9 9 7 -2 15 -10 17 -17z m91 -7 c11 -4 9 -8 -7 -20 -18 -12 -25 -12 -42 -2 -11 7 -20 19 -20 26 0 12 24 10 69 -4z" transform="translate(0.000000,192.000000) scale(0.100000,-0.100000)" stroke="none" fill="#496660"/>

</svg>