<?xml version="1.0" standalone="no"?>
<!DOCTYPE svg PUBLIC "-//W3C//DTD SVG 20010904//EN"
 "http://www.w3.org/TR/2001/REC-SVG-20010904/DTD/svg10.dtd">
<svg version="1.0" xmlns="http://www.w3.org/2000/svg" 
width="161.000000pt" height="141.000000pt" viewBox="0 0 161.000000 141.000000"
preserveAspectRatio = "xMidYMid meet" >
<metadata>
Created by ZoeQU, 2022
</metadata>
<rect width="161.000000" height="141.000000" fill="#FBFBFA"/>
<path d="M845 883 c-57 -14 -117 -48 -130 -74 -23 -44 -18 -56 33 -82 39 -19 47 -28 47 -51 0 -34 19 -46 73 -46 85 0 142 55 142 137 0 31 -7 46 -32 70 -47 45 -84 58 -133 46z" transform="translate(0.000000,141.000000) scale(0.100000,-0.100000)" stroke="none" fill="#46231C"/>

<path d="M875 629 c-27 -3 -45 -7 -40 -8 6 -1 6 -4 -1 -9 -18 -12 -180 -236 -205 -283 -19 -35 -23 -60 -24 -122 0 -76 1 -79 33 -108 29 -26 39 -29 101 -29 82 0 188 30 229 65 15 13 46 31 68 40 64 25 79 60 78 185 -1 172 -37 246 -126 257 -23 3 -47 9 -53 12 -5 4 -32 4 -60 0z" transform="translate(0.000000,141.000000) scale(0.100000,-0.100000)" stroke="none" fill="#F383A2"/>

<path d="M220 918 c-61 -17 -125 -71 -136 -115 -4 -13 -1 -43 6 -66 6 -23 17 -64 22 -92 6 -27 17 -64 24 -82 8 -17 14 -37 14 -45 0 -8 17 -31 38 -51 31 -30 45 -37 79 -37 35 0 44 -5 67 -35 23 -29 33 -35 65 -35 51 0 97 17 151 54 25 18 73 49 107 69 67 41 119 94 129 132 4 16 11 22 22 19 14 -5 14 -4 -1 6 -12 8 -15 18 -11 34 3 13 1 27 -5 30 -7 5 -8 1 -4 -10 4 -12 3 -15 -5 -10 -7 4 -12 14 -12 21 0 8 -16 21 -35 29 -37 16 -43 33 -24 69 7 12 9 19 5 15 -4 -3 -44 7 -88 23 -174 64 -342 96 -408 77z" transform="translate(0.000000,141.000000) scale(0.100000,-0.100000)" stroke="none" fill="#F383A2"/>

<path d="M956 1333 c-3 -4 -64 -10 -134 -13 -114 -5 -134 -9 -197 -37 -38 -17 -89 -34 -113 -36 -83 -10 -90 -38 -37 -161 77 -177 103 -204 217 -221 62 -9 79 -8 126 8 68 23 102 16 153 -30 33 -30 39 -42 39 -75 0 -21 -6 -51 -14 -66 -14 -27 -13 -28 15 -41 16 -7 75 -54 131 -105 117 -106 140 -119 225 -136 73 -15 124 -2 141 34 5 12 13 52 17 87 6 61 5 66 -26 113 -27 40 -34 61 -39 122 -5 66 -9 78 -37 106 -36 36 -84 46 -216 47 -91 1 -128 -12 -176 -63 -32 -33 -36 -35 -53 -20 -16 16 -15 18 25 47 58 41 72 58 86 99 8 26 25 44 61 66 l50 31 0 66 c0 79 -16 122 -59 158 -29 24 -41 27 -105 27 -40 0 -76 -3 -80 -7z" transform="translate(0.000000,141.000000) scale(0.100000,-0.100000)" stroke="none" fill="#F383A2"/>

</svg>