<?xml version="1.0" standalone="no"?>
<!DOCTYPE svg PUBLIC "-//W3C//DTD SVG 20010904//EN"
 "http://www.w3.org/TR/2001/REC-SVG-20010904/DTD/svg10.dtd">
<svg version="1.0" xmlns="http://www.w3.org/2000/svg" 
width="154.000000pt" height="127.000000pt" viewBox="0 0 154.000000 127.000000"
preserveAspectRatio = "xMidYMid meet" >
<metadata>
Created by ZoeQU, 2022
</metadata>
<rect width="154.000000" height="127.000000" fill="#FBFBFA"/>
<path d="M665 674 c-72 -37 -105 -89 -105 -164 0 -128 82 -186 212 -150 43 12 86 58 122 130 28 56 32 95 15 134 -12 25 -14 25 -90 19 -54 -4 -79 -2 -79 5 0 12 -28 42 -38 42 -4 0 -20 -7 -37 -16z" transform="translate(0.000000,127.000000) scale(0.100000,-0.100000)" stroke="none" fill="#48221B"/>

<path d="M906 1204 c-22 -8 -70 -17 -107 -20 -57 -6 -69 -10 -80 -30 -10 -20 -20 -24 -58 -24 -45 -1 -91 -25 -91 -49 0 -6 -6 -30 -14 -53 -8 -24 -17 -59 -20 -78 -3 -19 -12 -64 -21 -99 -23 -89 -18 -236 10 -276 11 -17 23 -48 26 -70 l6 -40 2 50 c1 58 25 102 73 138 46 35 73 41 92 22 9 -9 16 -21 16 -27 0 -7 26 -9 79 -5 73 6 80 5 86 -13 4 -11 11 -20 16 -20 11 0 184 173 205 206 22 33 74 191 74 224 0 45 -23 93 -55 114 -15 10 -54 21 -86 23 -39 4 -64 12 -75 24 -20 22 -26 22 -78 3z" transform="translate(0.000000,127.000000) scale(0.100000,-0.100000)" stroke="none" fill="#F383A2"/>

<path d="M229 1008 c-45 -46 -61 -90 -57 -162 3 -55 1 -60 -17 -61 -46 -3 -52 -6 -64 -31 -15 -34 -9 -51 57 -159 88 -143 138 -200 229 -261 88 -58 120 -93 151 -164 11 -25 32 -58 48 -74 27 -26 33 -28 84 -23 30 4 74 15 97 27 65 31 119 27 172 -15 52 -41 58 -42 72 -11 9 20 7 33 -16 75 -16 28 -26 53 -24 55 3 3 25 -9 49 -25 38 -26 52 -30 88 -26 86 9 254 112 348 212 30 33 31 34 22 107 -23 206 -64 319 -125 345 -74 30 -85 25 -237 -125 -78 -76 -153 -143 -167 -149 -16 -7 -34 -29 -47 -56 -31 -66 -78 -115 -120 -127 -91 -25 -170 0 -197 63 -8 17 -14 28 -15 23 0 -5 -7 -3 -15 4 -8 7 -15 9 -15 4 0 -5 -22 28 -49 74 -49 83 -49 85 -56 195 -4 72 -3 135 5 175 14 82 8 99 -47 123 -69 29 -115 25 -154 -13z" transform="translate(0.000000,127.000000) scale(0.100000,-0.100000)" stroke="none" fill="#F383A2"/>

</svg>