<?xml version="1.0" standalone="no"?>
<!DOCTYPE svg PUBLIC "-//W3C//DTD SVG 20010904//EN"
 "http://www.w3.org/TR/2001/REC-SVG-20010904/DTD/svg10.dtd">
<svg version="1.0" xmlns="http://www.w3.org/2000/svg" 
width="197.000000pt" height="130.000000pt" viewBox="0 0 197.000000 130.000000"
preserveAspectRatio = "xMidYMid meet" >
<metadata>
Created by ZoeQU, 2022
</metadata>
<rect width="197.000000" height="130.000000" fill="#FBFBFA"/>
<path d="M656 714 c-53 -40 -66 -66 -66 -127 0 -125 139 -206 218 -127 16 16 34 42 40 57 11 33 -1 73 -22 73 -19 0 -26 22 -26 85 0 43 -4 56 -19 65 -37 19 -77 11 -125 -26z" transform="translate(0.000000,130.000000) scale(0.100000,-0.100000)" stroke="none" fill="#462119"/>

<path d="M725 1217 c-17 -13 -61 -40 -100 -60 -106 -54 -152 -89 -197 -148 -22 -29 -51 -63 -64 -76 -13 -12 -24 -28 -24 -36 0 -10 -21 -16 -77 -21 -143 -12 -186 -56 -181 -186 3 -69 6 -79 41 -124 20 -27 37 -53 37 -58 0 -5 -12 -20 -26 -33 -89 -83 151 -189 424 -186 80 0 121 -3 117 -9 -12 -19 96 -60 157 -60 76 0 111 -30 163 -141 46 -98 59 -91 17 8 -16 37 -35 91 -42 119 -12 48 -12 54 8 85 22 36 56 101 92 181 21 46 22 47 76 54 58 7 163 56 226 105 37 30 66 77 97 160 l19 48 -25 23 c-14 13 -43 54 -66 91 -47 80 -64 93 -138 107 -62 12 -97 34 -119 76 -21 41 -30 45 -73 40 -43 -5 -80 -34 -96 -74 -6 -15 -29 -116 -51 -225 -23 -109 -50 -217 -61 -241 -14 -32 -17 -51 -10 -68 11 -30 -8 -79 -45 -113 -35 -32 -95 -34 -144 -3 -19 11 -46 22 -60 23 -33 4 -109 47 -143 83 -23 24 -28 37 -25 67 l3 38 25 -38 c29 -45 63 -72 105 -84 30 -8 31 -8 27 25 -8 68 6 102 59 144 75 59 148 53 150 -13 0 -31 1 -30 20 18 42 103 72 237 72 325 0 136 -25 187 -100 197 -31 4 -45 0 -68 -20z m286 -845 c-5 -10 -18 -25 -27 -33 -16 -12 -17 -12 -9 1 10 18 37 50 42 50 2 0 -1 -8 -6 -18z m-105 -107 c-9 -9 -16 -13 -16 -8 0 12 22 34 28 28 2 -2 -3 -11 -12 -20z" transform="translate(0.000000,130.000000) scale(0.100000,-0.100000)" stroke="none" fill="#ED85A0"/>

</svg>