<?xml version="1.0" standalone="no"?>
<!DOCTYPE svg PUBLIC "-//W3C//DTD SVG 20010904//EN"
 "http://www.w3.org/TR/2001/REC-SVG-20010904/DTD/svg10.dtd">
<svg version="1.0" xmlns="http://www.w3.org/2000/svg" 
width="191.000000pt" height="149.000000pt" viewBox="0 0 191.000000 149.000000"
preserveAspectRatio = "xMidYMid meet" >
<metadata>
Created by ZoeQU, 2022
</metadata>
<rect width="191.000000" height="149.000000" fill="#FBFBFA"/>
<path d="M1425 1399 c-56 -30 -167 -122 -207 -172 -19 -23 -55 -74 -80 -113 -45 -70 -75 -103 -61 -68 7 20 4 18 -65 -28 -23 -16 -54 -47 -69 -69 -28 -43 -67 -59 -142 -59 -52 0 -255 41 -259 52 -2 4 -12 8 -22 8 -12 0 -18 7 -17 20 1 10 3 17 5 15 5 -4 136 146 157 179 7 12 16 32 20 45 l7 25 -31 -20 c-56 -36 -115 -100 -155 -167 -21 -37 -44 -71 -51 -77 -10 -8 -51 -1 -153 25 -77 20 -151 35 -164 33 -13 -2 51 -20 142 -42 91 -21 170 -43 176 -47 7 -5 26 -51 44 -102 31 -90 91 -210 110 -222 22 -14 7 57 -33 158 -24 59 -45 105 -48 103 -3 -3 -5 3 -5 13 0 13 6 17 19 13 11 -3 22 0 26 5 7 11 240 -43 302 -69 29 -13 40 -26 59 -74 13 -33 33 -72 45 -89 12 -16 32 -49 45 -72 l23 -41 -26 -45 c-20 -33 -30 -70 -38 -140 -14 -113 -6 -150 50 -242 l36 -60 134 -3 133 -3 47 44 c64 60 84 69 144 66 47 -3 52 -1 69 26 43 71 12 133 -150 299 -149 153 -196 211 -188 231 14 38 58 4 144 -111 151 -202 318 -299 398 -231 25 21 28 31 29 93 1 38 5 119 9 179 7 93 6 117 -9 155 -10 25 -20 63 -22 85 -3 22 -11 47 -19 56 -12 13 -8 26 26 93 43 83 49 129 26 174 -35 67 -105 105 -206 112 l-75 5 -5 35 c-5 33 -8 35 -45 38 -26 2 -54 -5 -80 -19z m86 -349 l24 -19 -40 -1 c-55 0 -113 -18 -136 -41 -15 -15 -27 -18 -55 -13 -45 8 -33 24 50 64 72 35 124 38 157 10z" transform="translate(0.000000,149.000000) scale(0.100000,-0.100000)" stroke="none" fill="#DF8095"/>

</svg>