<?xml version="1.0" standalone="no"?>
<!DOCTYPE svg PUBLIC "-//W3C//DTD SVG 20010904//EN"
 "http://www.w3.org/TR/2001/REC-SVG-20010904/DTD/svg10.dtd">
<svg version="1.0" xmlns="http://www.w3.org/2000/svg" 
width="116.000000pt" height="69.000000pt" viewBox="0 0 116.000000 69.000000"
preserveAspectRatio = "xMidYMid meet" >
<metadata>
Created by ZoeQU, 2022
</metadata>
<rect width="116.000000" height="69.000000" fill="#E1B616"/>
<path d="M373 460 c8 -55 27 -123 33 -117 5 5 -24 149 -33 156 -3 3 -3 -14 0 -39z" transform="translate(0.000000,69.000000) scale(0.100000,-0.100000)" stroke="none" fill="#55574C"/>

<path d="M440 138 c0 -29 25 -118 33 -118 5 0 7 6 4 14 -3 7 -9 34 -12 60 -7 42 -25 75 -25 44z" transform="translate(0.000000,69.000000) scale(0.100000,-0.100000)" stroke="none" fill="#55574C"/>

<path d="M753 616 c-55 -10 -95 -26 -64 -26 30 0 141 25 141 32 0 5 -3 7 -7 7 -5 -1 -36 -7 -70 -13z" transform="translate(0.000000,69.000000) scale(0.100000,-0.100000)" stroke="none" fill="#55574C"/>

<path d="M935 45 c-55 -13 -86 -23 -70 -24 42 -1 155 25 168 38 6 6 9 11 7 10 -3 -1 -50 -11 -105 -24z" transform="translate(0.000000,69.000000) scale(0.100000,-0.100000)" stroke="none" fill="#55574C"/>

<path d="M805 595 c-27 -7 -68 -16 -90 -21 -24 -4 -33 -9 -22 -12 20 -4 163 25 187 39 23 13 -14 10 -75 -6z" transform="translate(0.000000,69.000000) scale(0.100000,-0.100000)" stroke="none" fill="#55574C"/>

<path d="M820 533 c-125 -30 -139 -34 -124 -40 12 -4 206 40 246 57 42 16 -10 9 -122 -17z" transform="translate(0.000000,69.000000) scale(0.100000,-0.100000)" stroke="none" fill="#55574C"/>

<path d="M845 565 c-27 -8 -74 -17 -102 -21 -29 -3 -53 -10 -53 -15 0 -5 6 -9 13 -9 23 1 228 48 234 54 10 10 -39 5 -92 -9z" transform="translate(0.000000,69.000000) scale(0.100000,-0.100000)" stroke="none" fill="#55574C"/>

<path d="M920 74 c-121 -28 -135 -32 -128 -40 7 -6 237 44 258 57 25 14 -15 9 -130 -17z" transform="translate(0.000000,69.000000) scale(0.100000,-0.100000)" stroke="none" fill="#55574C"/>

<path d="M908 136 c-70 -17 -130 -35 -135 -39 -9 -10 -8 -9 175 34 72 17 132 33 132 35 0 9 -52 0 -172 -30z" transform="translate(0.000000,69.000000) scale(0.100000,-0.100000)" stroke="none" fill="#55574C"/>

<path d="M975 119 c-44 -10 -106 -23 -137 -29 -32 -6 -58 -15 -58 -19 0 -9 38 -3 187 30 51 11 95 25 98 30 7 11 10 11 -90 -12z" transform="translate(0.000000,69.000000) scale(0.100000,-0.100000)" stroke="none" fill="#55574C"/>

<path d="M890 510 c-41 -11 -99 -22 -128 -26 -29 -3 -55 -11 -58 -16 -4 -7 9 -8 37 -3 68 10 250 53 257 59 9 10 -30 5 -108 -14z" transform="translate(0.000000,69.000000) scale(0.100000,-0.100000)" stroke="none" fill="#55574C"/>

<path d="M850 477 c-142 -32 -146 -34 -138 -42 6 -6 297 60 306 69 10 11 -33 4 -168 -27z" transform="translate(0.000000,69.000000) scale(0.100000,-0.100000)" stroke="none" fill="#55574C"/>

<path d="M1025 252 c-33 -7 -109 -24 -169 -36 -60 -13 -105 -25 -100 -28 8 -5 125 17 289 54 33 7 56 16 50 19 -5 3 -37 -1 -70 -9z" transform="translate(0.000000,69.000000) scale(0.100000,-0.100000)" stroke="none" fill="#55574C"/>

<path d="M985 344 c-27 -7 -94 -21 -147 -31 -54 -10 -98 -21 -98 -25 0 -5 2 -8 5 -8 15 0 298 62 317 70 l23 9 -25 -1 c-14 0 -47 -6 -75 -14z" transform="translate(0.000000,69.000000) scale(0.100000,-0.100000)" stroke="none" fill="#55574C"/>

<path d="M955 210 c-60 -16 -129 -31 -152 -35 -24 -3 -43 -10 -43 -15 0 -5 15 -7 33 -3 59 11 300 73 305 78 11 11 -39 2 -143 -25z" transform="translate(0.000000,69.000000) scale(0.100000,-0.100000)" stroke="none" fill="#55574C"/>

<path d="M940 169 c-69 -15 -135 -28 -147 -29 -13 0 -23 -5 -23 -11 0 -7 12 -8 33 -4 169 35 274 59 282 66 13 13 -5 10 -145 -22z" transform="translate(0.000000,69.000000) scale(0.100000,-0.100000)" stroke="none" fill="#55574C"/>

<path d="M908 296 c-86 -17 -160 -35 -164 -39 -10 -10 -13 -10 163 24 140 27 221 50 173 48 -8 -1 -86 -15 -172 -33z" transform="translate(0.000000,69.000000) scale(0.100000,-0.100000)" stroke="none" fill="#55574C"/>

<path d="M881 385 c-143 -32 -187 -45 -148 -45 26 0 300 61 317 71 26 15 -5 10 -169 -26z" transform="translate(0.000000,69.000000) scale(0.100000,-0.100000)" stroke="none" fill="#55574C"/>

<path d="M860 447 c-80 -17 -147 -32 -149 -34 -17 -13 22 -9 125 13 65 13 134 28 152 31 31 6 57 24 30 22 -7 0 -78 -15 -158 -32z" transform="translate(0.000000,69.000000) scale(0.100000,-0.100000)" stroke="none" fill="#55574C"/>

<path d="M985 283 c-55 -13 -127 -29 -160 -35 -68 -13 -105 -35 -40 -24 58 10 299 67 304 72 12 11 -13 8 -104 -13z" transform="translate(0.000000,69.000000) scale(0.100000,-0.100000)" stroke="none" fill="#55574C"/>

<path d="M985 376 c-27 -8 -93 -22 -145 -32 -87 -16 -138 -34 -98 -34 21 0 331 69 337 75 8 9 -44 4 -94 -9z" transform="translate(0.000000,69.000000) scale(0.100000,-0.100000)" stroke="none" fill="#55574C"/>

<path d="M985 440 c-16 -4 -75 -18 -130 -30 -55 -12 -109 -25 -120 -30 l-20 -9 20 0 c11 -1 76 13 145 29 69 16 133 30 142 30 9 0 20 5 23 10 7 12 -17 12 -60 0z" transform="translate(0.000000,69.000000) scale(0.100000,-0.100000)" stroke="none" fill="#55574C"/>

<path d="M78 326 c-33 -32 6 -91 51 -79 25 6 39 49 24 72 -13 22 -57 26 -75 7z" transform="translate(0.000000,69.000000) scale(0.100000,-0.100000)" stroke="none" fill="#55574C"/>

<path d="M433 465 c29 -148 89 -430 92 -433 10 -11 11 20 0 68 -47 211 -88 386 -93 390 -2 3 -2 -8 1 -25z" transform="translate(0.000000,69.000000) scale(0.100000,-0.100000)" stroke="none" fill="#E4DDCA"/>

<path d="M460 576 c0 -4 13 -62 30 -129 16 -67 43 -189 59 -271 30 -147 41 -184 41 -133 0 49 -106 515 -121 532 -5 5 -9 5 -9 1z" transform="translate(0.000000,69.000000) scale(0.100000,-0.100000)" stroke="none" fill="#55574C"/>

<path d="M644 595 c9 -52 54 -270 65 -315 5 -19 17 -82 27 -140 9 -58 21 -109 27 -115 12 -13 9 7 -55 330 -28 143 -55 265 -61 270 -6 7 -7 -4 -3 -30z" transform="translate(0.000000,69.000000) scale(0.100000,-0.100000)" stroke="none" fill="#55574C"/>

<path d="M490 581 c0 -5 13 -64 29 -132 25 -108 65 -292 86 -397 4 -17 10 -32 14 -32 10 0 7 15 -60 323 -29 136 -57 247 -61 247 -5 0 -8 -4 -8 -9z" transform="translate(0.000000,69.000000) scale(0.100000,-0.100000)" stroke="none" fill="#55574C"/>

<path d="M571 602 c-1 -12 12 -82 28 -155 16 -72 41 -193 56 -267 14 -74 31 -144 35 -155 18 -43 10 28 -19 159 -15 72 -41 192 -56 266 -14 74 -31 144 -35 155 -8 19 -9 19 -9 -3z" transform="translate(0.000000,69.000000) scale(0.100000,-0.100000)" stroke="none" fill="#55574C"/>

<path d="M531 598 c-1 -9 14 -85 33 -170 19 -84 44 -209 56 -278 13 -69 27 -129 31 -134 6 -6 9 -4 9 5 0 42 -104 540 -119 574 -8 16 -10 17 -10 3z" transform="translate(0.000000,69.000000) scale(0.100000,-0.100000)" stroke="none" fill="#55574C"/>

<path d="M602 609 c3 -13 31 -150 62 -304 31 -154 61 -284 67 -289 12 -13 16 -34 -47 274 -31 151 -59 287 -61 303 -3 15 -10 30 -16 34 -6 4 -8 -3 -5 -18z" transform="translate(0.000000,69.000000) scale(0.100000,-0.100000)" stroke="none" fill="#55574C"/>

<path d="M414 525 c-3 -13 3 -64 14 -112 11 -48 33 -157 48 -240 16 -84 33 -153 38 -153 10 0 7 19 -45 269 -22 106 -38 195 -36 197 2 2 14 -42 26 -98 28 -128 69 -303 80 -343 8 -27 9 -28 10 -6 1 13 -14 90 -33 170 -19 80 -44 190 -56 244 -22 98 -35 117 -46 72z m13 -17 c-3 -8 -6 -5 -6 6 -1 11 2 17 5 13 3 -3 4 -12 1 -19z" transform="translate(0.000000,69.000000) scale(0.100000,-0.100000)" stroke="none" fill="#55574C"/>

<path d="M370 510 c-14 -14 -38 -44 -54 -68 -16 -23 -32 -42 -37 -42 -5 0 -23 -13 -41 -29 -19 -16 -45 -31 -58 -33 -21 -2 -25 -8 -22 -34 2 -19 -3 -38 -13 -48 -14 -14 -14 -18 -3 -30 8 -8 25 -27 39 -43 51 -60 131 -110 204 -126 38 -9 71 -14 73 -12 3 2 -1 18 -7 36 -13 38 -14 72 -2 65 5 -3 12 -25 15 -48 7 -47 21 -76 32 -66 8 9 -85 493 -98 502 -1 1 -14 -9 -28 -24z m25 -90 c16 -78 14 -107 -4 -43 -14 48 -26 130 -18 122 4 -3 13 -38 22 -79z m-35 36 c0 -8 3 -22 7 -32 4 -11 3 -15 -4 -11 -13 8 -23 57 -12 57 5 0 9 -6 9 -14z m-75 -186 c0 -13 -6 -25 -12 -27 -16 -6 -27 21 -19 43 9 23 31 11 31 -16z" transform="translate(0.000000,69.000000) scale(0.100000,-0.100000)" stroke="none" fill="#E4DDCA"/>

<path d="M593 639 c-65 -11 -133 -42 -164 -75 -15 -16 -18 -23 -8 -19 14 5 20 -11 39 -92 75 -333 94 -409 101 -417 23 -25 -6 138 -72 413 -17 68 -28 126 -25 129 3 3 8 -1 10 -9 11 -30 76 -311 98 -421 13 -65 26 -118 31 -118 4 0 5 10 3 23 -29 134 -54 247 -83 375 -29 130 -35 181 -20 161 2 -2 29 -123 61 -269 62 -288 64 -295 72 -287 7 6 -36 236 -77 419 -30 133 -36 181 -18 143 12 -27 119 -530 119 -562 0 -2 5 -3 10 -3 18 0 19 -1 -70 413 -30 138 -38 205 -20 162 4 -11 20 -78 35 -150 59 -292 90 -425 98 -425 5 0 6 11 3 25 -5 20 -80 387 -114 555 -3 16 -1 22 5 15 11 -11 44 -156 94 -415 28 -148 49 -219 49 -164 0 24 -32 192 -65 349 -39 178 -47 226 -41 232 3 3 8 0 10 -8 8 -24 106 -519 106 -537 1 -43 11 -44 149 -12 138 31 159 34 148 24 -3 -4 -50 -17 -103 -30 -53 -13 -99 -26 -103 -29 -3 -4 5 -4 19 -1 14 3 60 12 102 21 67 14 80 20 104 52 23 30 27 47 32 124 3 61 1 89 -6 89 -6 0 -9 -6 -6 -13 3 -9 -35 -22 -138 -45 -184 -41 -215 -47 -205 -36 5 5 34 14 65 20 133 26 262 58 262 64 0 3 -60 -6 -132 -21 -192 -38 -214 -42 -203 -31 6 5 88 24 183 42 143 27 172 36 172 50 0 22 -37 107 -50 115 -5 3 -40 -2 -77 -10 -183 -43 -284 -59 -262 -42 2 2 77 19 167 37 95 20 159 37 154 42 -6 6 -72 -5 -161 -26 -172 -41 -161 -39 -161 -26 0 6 6 10 13 10 31 -1 296 64 291 71 -2 5 -15 4 -27 -1 -25 -10 -178 -45 -246 -55 -27 -5 -41 -4 -37 3 3 5 29 12 58 16 57 8 230 46 238 53 2 2 -1 8 -8 12 -7 4 -72 -7 -145 -26 -136 -34 -168 -39 -152 -25 6 5 57 19 115 31 58 13 116 29 129 36 l25 12 -28 15 c-24 12 -36 11 -114 -9 -85 -21 -181 -32 -122 -13 14 4 62 16 108 26 63 13 79 20 67 27 -11 6 -25 5 -39 -1 -30 -14 -145 -36 -153 -29 -7 8 2 11 82 28 51 10 56 13 35 20 -34 10 -143 9 -207 -2z m137 -9 c-14 -4 -34 -8 -45 -9 -16 -1 -17 1 -5 9 8 5 29 9 45 9 29 -1 29 -1 5 -9z m200 -59 c-23 -13 -231 -54 -237 -47 -9 9 -5 11 102 33 111 22 159 28 135 14z m115 -131 c-3 -5 -14 -10 -23 -10 -9 0 -73 -14 -142 -30 -69 -16 -134 -30 -145 -29 l-20 0 20 9 c11 5 65 18 120 30 55 12 114 26 130 30 43 12 67 12 60 0z m23 -25 c-6 -6 -312 -75 -334 -75 -40 0 3 13 147 45 150 33 198 40 187 30z m11 -30 c-6 -6 -316 -75 -337 -75 -40 0 11 18 98 34 52 10 118 24 145 32 50 13 102 18 94 9z m-14 -36 c-27 -8 -309 -69 -320 -69 -3 0 -5 3 -5 8 0 4 44 15 98 25 53 10 120 24 147 31 28 8 64 14 80 14 l30 0 -30 -9z m-20 -107 c-164 -37 -281 -59 -289 -54 -5 3 40 15 100 28 60 12 136 29 169 36 33 8 65 12 70 9 6 -3 -17 -12 -50 -19z m53 -7 c-5 -5 -246 -67 -305 -78 -18 -4 -33 -2 -33 3 0 5 19 12 43 15 23 4 92 19 152 35 104 27 154 36 143 25z m-13 -44 c-8 -7 -113 -31 -282 -66 -21 -4 -33 -3 -33 4 0 6 10 11 23 11 12 1 78 14 147 29 140 32 158 35 145 22z m-5 -25 c0 -2 -60 -18 -132 -35 -183 -43 -184 -44 -175 -34 17 17 307 82 307 69z m-10 -34 c0 -5 -44 -18 -97 -30 -159 -35 -193 -40 -193 -31 0 4 26 13 58 19 31 6 93 19 137 29 100 23 95 23 95 13z" transform="translate(0.000000,69.000000) scale(0.100000,-0.100000)" stroke="none" fill="#E4DDCA"/>

</svg>