<?xml version="1.0" standalone="no"?>
<!DOCTYPE svg PUBLIC "-//W3C//DTD SVG 20010904//EN"
 "http://www.w3.org/TR/2001/REC-SVG-20010904/DTD/svg10.dtd">
<svg version="1.0" xmlns="http://www.w3.org/2000/svg" 
width="201.000000pt" height="295.000000pt" viewBox="0 0 201.000000 295.000000"
preserveAspectRatio = "xMidYMid meet" >
<metadata>
Created by ZoeQU, 2022
</metadata>
<rect width="201.000000" height="295.000000" fill="#1E3139"/>
<path d="M334 2830 c-49 -10 -135 -52 -154 -75 -13 -15 -10 -16 26 -10 21 3 50 9 64 12 14 3 39 5 55 5 23 -1 26 0 11 6 -11 5 17 8 65 7 84 -1 84 -1 237 -78 83 -43 152 -74 151 -70 0 5 -24 27 -53 49 -157 124 -292 176 -402 154z" transform="translate(0.000000,295.000000) scale(0.100000,-0.100000)" stroke="none" fill="#5E9185"/>

<path d="M870 966 c-25 -19 -69 -59 -97 -90 -29 -31 -53 -54 -53 -51 0 3 19 26 43 52 42 46 41 45 -79 -34 -109 -73 -123 -86 -142 -130 -24 -55 -62 -233 -62 -287 0 -54 24 -45 53 18 32 69 85 121 172 169 78 42 97 66 144 178 49 118 112 178 188 180 24 0 21 2 -17 15 -69 21 -100 17 -150 -20z m-160 -159 c0 -2 -12 -14 -27 -28 l-28 -24 24 28 c23 25 31 32 31 24z m-50 -61 c0 -2 -8 -10 -17 -17 -16 -13 -17 -12 -4 4 13 16 21 21 21 13z m-50 -66 c-12 -16 -24 -30 -26 -30 -3 0 4 14 16 30 12 17 24 30 26 30 3 0 -4 -13 -16 -30z" transform="translate(0.000000,295.000000) scale(0.100000,-0.100000)" stroke="none" fill="#5E9185"/>

<path d="M1086 2760 c-69 -22 -123 -113 -135 -229 l-7 -66 -16 30 c-19 35 -58 73 -58 57 0 -7 15 -42 34 -79 47 -92 88 -235 136 -476 22 -111 52 -253 66 -316 14 -62 24 -115 22 -117 -2 -1 -21 22 -43 53 -148 207 -241 332 -269 359 -62 59 -127 75 -357 87 -285 14 -325 0 -168 -58 138 -51 227 -104 309 -181 83 -79 229 -167 357 -215 152 -56 193 -111 219 -286 8 -54 19 -126 24 -159 6 -34 10 -100 10 -146 l0 -85 -25 5 -25 4 15 -42 c20 -58 13 -270 -15 -410 -24 -128 -25 -143 0 -67 21 66 45 200 65 358 14 114 31 159 89 226 80 92 251 131 346 80 55 -30 151 -141 186 -216 80 -170 100 -140 65 94 -25 168 -64 257 -150 348 -57 59 -73 70 -114 78 -44 8 -54 6 -115 -25 -55 -28 -75 -45 -110 -96 -37 -52 -40 -60 -20 -50 19 9 20 9 6 -2 -9 -7 -25 -19 -35 -26 -10 -7 -12 -10 -6 -7 8 4 11 1 7 -9 -3 -9 -9 -14 -14 -11 -4 2 -24 -20 -45 -50 -38 -55 -54 -62 -56 -22 0 21 -1 21 -8 2 -6 -14 -10 -2 -15 45 -4 36 -14 122 -23 191 -16 120 -16 130 1 192 23 84 77 176 141 239 28 27 104 88 170 136 128 93 162 133 189 219 10 29 37 83 62 119 25 36 43 73 40 80 -6 15 -12 12 -235 -99 -35 -18 -93 -57 -130 -87 -64 -53 -69 -61 -173 -265 -59 -115 -107 -219 -108 -230 -1 -67 -47 116 -100 400 -11 61 -30 157 -42 214 -19 89 -20 109 -9 145 7 22 12 52 12 66 0 17 21 48 67 98 l67 72 134 40 c74 22 143 38 153 34 29 -9 21 4 -14 23 -22 11 -70 19 -143 24 -60 4 -126 10 -145 13 -19 3 -48 1 -64 -4z m77 -67 c-7 -2 -19 -2 -25 0 -7 3 -2 5 12 5 14 0 19 -2 13 -5z m-53 -13 c-8 -5 -19 -10 -25 -10 -5 0 -3 5 5 10 8 5 20 10 25 10 6 0 3 -5 -5 -10z m107 4 c-3 -3 -12 -4 -19 -1 -8 3 -5 6 6 6 11 1 17 -2 13 -5z m-176 -85 c-5 -13 -10 -19 -10 -12 -1 15 10 45 15 40 3 -2 0 -15 -5 -28z m-14 -51 c-3 -8 -6 -5 -6 6 -1 11 2 17 5 13 3 -3 4 -12 1 -19z m493 -468 c-14 -11 -42 -34 -62 -51 -21 -16 -35 -24 -33 -17 3 7 29 30 58 50 55 40 79 50 37 18z m-883 -96 c-3 -3 -12 -4 -19 -1 -8 3 -5 6 6 6 11 1 17 -2 13 -5z m53 -19 c17 -9 30 -18 30 -21 0 -4 -59 23 -69 32 -10 9 13 3 39 -11z m173 -160 c47 -58 18 -31 -73 70 -50 54 -53 60 -16 25 26 -25 66 -67 89 -95z m486 100 c-12 -19 -23 -35 -25 -35 -6 0 14 40 29 58 18 23 16 12 -4 -23z m-71 -120 c-6 -14 -13 -23 -15 -21 -5 5 15 46 22 46 3 0 -1 -11 -7 -25z m-353 -55 c10 -11 16 -20 13 -20 -3 0 -13 9 -23 20 -10 11 -16 20 -13 20 3 0 13 -9 23 -20z m693 -397 c-10 -2 -26 -2 -35 0 -10 3 -2 5 17 5 19 0 27 -2 18 -5z m-68 -14 c-25 -17 -76 -42 -68 -34 13 14 62 44 73 44 6 0 3 -4 -5 -10z m-95 -59 c-10 -11 -22 -20 -28 -20 -5 0 1 9 14 20 31 25 37 25 14 0z" transform="translate(0.000000,295.000000) scale(0.100000,-0.100000)" stroke="none" fill="#5E9185"/>

</svg>