<?xml version="1.0" standalone="no"?>
<!DOCTYPE svg PUBLIC "-//W3C//DTD SVG 20010904//EN"
 "http://www.w3.org/TR/2001/REC-SVG-20010904/DTD/svg10.dtd">
<svg version="1.0" xmlns="http://www.w3.org/2000/svg" 
width="236.000000pt" height="213.000000pt" viewBox="0 0 236.000000 213.000000"
preserveAspectRatio = "xMidYMid meet" >
<metadata>
Created by ZoeQU, 2022
</metadata>
<rect width="236.000000" height="213.000000" fill="#1E3139"/>
<path d="M422 718 c-7 -7 -12 -18 -12 -26 0 -8 -21 -34 -46 -58 -34 -33 -61 -77 -105 -170 -53 -113 -63 -127 -104 -152 -51 -31 -59 -61 -23 -86 30 -21 82 -20 144 3 51 20 52 20 88 0 53 -28 96 -25 141 11 44 35 46 35 108 14 53 -18 81 -14 120 17 36 28 34 43 -13 76 -33 23 -47 46 -87 138 -40 92 -58 121 -112 178 -66 69 -78 76 -99 55z m-32 -178 c-6 -11 -13 -20 -16 -20 -2 0 0 9 6 20 6 11 13 20 16 20 2 0 0 -9 -6 -20z m-27 -45 c-3 -9 -8 -14 -10 -11 -3 3 -2 9 2 15 9 16 15 13 8 -4z m104 -77 c-3 -7 -5 -2 -5 12 0 14 2 19 5 13 2 -7 2 -19 0 -25z m-150 -60 c-3 -8 -6 -5 -6 6 -1 11 2 17 5 13 3 -3 4 -12 1 -19z" transform="translate(0.000000,213.000000) scale(0.100000,-0.100000)" stroke="none" fill="#C2BEBB"/>

<path d="M1518 1976 c-115 -78 -216 -272 -277 -536 -29 -122 -60 -384 -67 -575 -7 -157 -14 -191 -27 -126 -4 17 -20 70 -37 118 -25 72 -43 102 -96 165 -74 87 -96 98 -198 98 -89 0 -155 -29 -230 -100 -55 -52 -101 -135 -111 -201 -4 -25 7 -10 41 57 l47 90 85 48 c72 42 95 50 153 54 56 4 75 1 113 -18 49 -23 101 -80 134 -146 48 -96 94 -374 108 -652 4 -87 11 -146 19 -152 17 -14 56 0 64 24 4 11 4 59 0 106 -16 189 -22 596 -10 740 23 288 62 501 116 645 32 86 88 194 127 246 49 65 90 130 85 135 -2 2 -20 -7 -39 -20z" transform="translate(0.000000,213.000000) scale(0.100000,-0.100000)" stroke="none" fill="#C2BEBB"/>

<path d="M1770 1624 c-106 -230 -151 -301 -184 -288 -11 4 -16 0 -16 -14 0 -24 93 -82 132 -82 14 0 45 16 69 35 31 25 53 34 74 33 17 -1 36 1 43 5 6 4 33 -4 60 -17 48 -25 50 -25 67 -6 14 15 22 17 46 8 21 -7 33 -7 43 1 9 7 28 8 60 2 46 -9 48 -8 67 23 29 48 25 64 -26 86 -58 25 -98 86 -119 183 -9 40 -27 89 -39 110 -23 38 -131 127 -153 127 -7 0 -14 5 -16 11 -2 5 -51 -92 -108 -217z m207 -46 c-2 -13 -4 -5 -4 17 -1 22 1 32 4 23 2 -10 2 -28 0 -40z m-156 5 c-12 -20 -14 -14 -5 12 4 9 9 14 11 11 3 -2 0 -13 -6 -23z m-24 -75 c-3 -8 -6 -5 -6 6 -1 11 2 17 5 13 3 -3 4 -12 1 -19z m110 -55 c-2 -16 -4 -5 -4 22 0 28 2 40 4 28 2 -13 2 -35 0 -50z" transform="translate(0.000000,213.000000) scale(0.100000,-0.100000)" stroke="none" fill="#C2BEBB"/>

</svg>