<?xml version="1.0" standalone="no"?>
<!DOCTYPE svg PUBLIC "-//W3C//DTD SVG 20010904//EN"
 "http://www.w3.org/TR/2001/REC-SVG-20010904/DTD/svg10.dtd">
<svg version="1.0" xmlns="http://www.w3.org/2000/svg" 
width="121.000000pt" height="166.000000pt" viewBox="0 0 121.000000 166.000000"
preserveAspectRatio = "xMidYMid meet" >
<metadata>
Created by ZoeQU, 2022
</metadata>
<rect width="121.000000" height="166.000000" fill="#1E3139"/>
<path d="M645 1565 c-19 -19 -39 -51 -45 -70 -6 -19 -15 -33 -20 -30 -19 12 -20 -19 -4 -99 l18 -84 -56 -119 c-85 -179 -150 -356 -249 -681 -12 -40 -23 -71 -25 -69 -2 2 -13 80 -24 175 l-21 172 21 81 c23 92 21 108 -25 164 -91 111 -109 121 -145 85 -26 -26 -26 -79 0 -130 24 -47 24 -51 5 -44 -21 8 -19 -13 6 -52 24 -39 47 -54 83 -54 14 0 27 -4 30 -9 11 -17 27 -211 28 -329 1 -130 -7 -220 -28 -302 -30 -116 -11 -108 60 25 68 129 191 325 253 402 57 72 181 200 296 306 82 75 93 81 144 88 51 7 123 43 123 62 0 5 13 25 30 45 41 51 48 94 21 121 -44 44 -113 21 -181 -62 -45 -56 -50 -67 -50 -113 l0 -50 -161 -150 c-144 -133 -178 -170 -310 -348 -82 -110 -149 -194 -149 -188 0 7 21 79 46 160 25 81 51 163 56 182 26 90 143 397 192 505 48 103 65 129 126 190 38 39 70 77 70 85 0 8 6 33 14 54 17 48 7 87 -25 103 -41 21 -69 15 -104 -22z" transform="translate(0.000000,166.000000) scale(0.100000,-0.100000)" stroke="none" fill="#E38369"/>

</svg>