<?xml version="1.0" standalone="no"?>
<!DOCTYPE svg PUBLIC "-//W3C//DTD SVG 20010904//EN"
 "http://www.w3.org/TR/2001/REC-SVG-20010904/DTD/svg10.dtd">
<svg version="1.0" xmlns="http://www.w3.org/2000/svg" 
width="235.000000pt" height="184.000000pt" viewBox="0 0 235.000000 184.000000"
preserveAspectRatio = "xMidYMid meet" >
<metadata>
Created by ZoeQU, 2022
</metadata>
<rect width="235.000000" height="184.000000" fill="#1E3139"/>
<path d="M482 1488 c-1 -31 4 -36 66 -72 37 -22 81 -50 98 -62 l31 -23 -8 46 c-5 25 -17 52 -26 59 -19 14 -117 54 -133 54 -5 0 -13 7 -18 16 -6 12 -9 7 -10 -18z" transform="translate(0.000000,184.000000) scale(0.100000,-0.100000)" stroke="none" fill="#2C5655"/>

<path d="M173 1349 c3 -9 -5 -28 -18 -41 -31 -33 -65 -97 -65 -122 0 -16 2 -17 17 -5 15 13 16 11 11 -13 -7 -36 3 -35 41 4 17 17 31 28 32 22 0 -5 7 14 14 41 8 28 17 60 21 72 4 16 0 23 -18 28 -12 4 -27 13 -31 19 -6 7 -7 5 -4 -5z" transform="translate(0.000000,184.000000) scale(0.100000,-0.100000)" stroke="none" fill="#2C5655"/>

<path d="M400 1374 c0 -20 66 -119 127 -191 41 -49 140 -130 148 -122 5 6 -101 170 -117 180 -10 7 -10 9 2 9 8 0 1 9 -16 19 -17 10 -51 42 -75 70 -45 52 -69 64 -69 35z" transform="translate(0.000000,184.000000) scale(0.100000,-0.100000)" stroke="none" fill="#2C5655"/>

<path d="M1298 805 c-100 -20 -147 -45 -218 -116 -145 -144 -273 -396 -268 -529 1 -40 2 -41 5 -10 19 166 124 375 257 514 65 68 96 88 175 115 89 29 199 28 311 -3 169 -47 211 -69 468 -240 95 -63 172 -110 172 -105 0 14 -347 240 -440 286 -159 79 -340 113 -462 88z" transform="translate(0.000000,184.000000) scale(0.100000,-0.100000)" stroke="none" fill="#867F58"/>

<path d="M1244 777 c-79 -28 -108 -48 -170 -113 -65 -68 -134 -170 -185 -273 -39 -79 -74 -202 -65 -225 2 -6 5 -3 5 7 1 10 17 46 36 78 19 33 35 62 35 64 0 2 14 25 32 52 76 113 241 238 361 275 60 18 86 20 191 15 161 -7 242 -32 487 -152 108 -52 201 -95 208 -95 32 0 -5 30 -171 140 -173 114 -298 184 -343 192 -11 2 -22 5 -25 9 -3 3 -42 15 -86 27 -108 29 -226 29 -310 -1z" transform="translate(0.000000,184.000000) scale(0.100000,-0.100000)" stroke="none" fill="#2C5655"/>

<path d="M207 1730 c-39 -31 -51 -82 -50 -200 1 -135 14 -186 49 -194 21 -6 25 -11 20 -29 -34 -118 -48 -193 -49 -262 -1 -116 33 -204 48 -122 3 17 9 52 14 77 l8 45 8 -37 c4 -21 11 -38 15 -38 10 0 30 185 30 284 0 79 1 83 25 94 38 17 40 16 61 -30 50 -116 201 -269 263 -268 26 1 26 1 -9 27 -89 68 -240 254 -240 297 0 29 25 16 73 -39 57 -65 78 -77 183 -104 72 -19 80 -19 91 -4 24 32 -49 101 -199 189 -61 35 -67 42 -66 70 2 42 -118 226 -161 248 -41 22 -83 20 -114 -4z" transform="translate(0.000000,184.000000) scale(0.100000,-0.100000)" stroke="none" fill="#867F58"/>

<path d="M323 1348 c-21 -10 -23 -18 -25 -117 -4 -165 -2 -191 22 -264 19 -59 40 -87 66 -87 3 0 3 68 -1 152 -6 135 -5 151 8 140 18 -16 30 -2 21 25 -4 10 14 -13 40 -52 25 -38 46 -74 46 -78 0 -5 5 -5 12 -1 7 4 8 3 4 -4 -4 -6 7 -40 25 -74 107 -215 196 -542 225 -827 4 -48 11 -71 20 -71 20 0 28 20 25 69 -8 173 220 544 376 613 64 28 190 50 248 43 94 -12 239 -56 325 -98 94 -47 435 -269 444 -289 3 -7 3 -2 0 12 -10 39 -160 185 -239 232 -38 22 -84 51 -102 64 -37 28 -187 103 -253 128 -152 56 -323 47 -440 -24 -48 -29 -91 -69 -162 -152 -88 -101 -103 -125 -155 -241 l-57 -129 -63 239 c-56 211 -71 254 -133 381 -39 79 -67 141 -61 138 5 -3 11 1 15 9 3 9 -8 24 -29 41 -40 30 -113 130 -139 192 -20 44 -27 47 -63 30z m218 -245 c13 -16 12 -17 -3 -4 -10 7 -18 15 -18 17 0 8 8 3 21 -13z" transform="translate(0.000000,184.000000) scale(0.100000,-0.100000)" stroke="none" fill="#2C5655"/>

</svg>