<?xml version="1.0" standalone="no"?>
<!DOCTYPE svg PUBLIC "-//W3C//DTD SVG 20010904//EN"
 "http://www.w3.org/TR/2001/REC-SVG-20010904/DTD/svg10.dtd">
<svg version="1.0" xmlns="http://www.w3.org/2000/svg" 
width="155.000000pt" height="217.000000pt" viewBox="0 0 155.000000 217.000000"
preserveAspectRatio = "xMidYMid meet" >
<metadata>
Created by ZoeQU, 2022
</metadata>
<rect width="155.000000" height="217.000000" fill="#1E3139"/>
<path d="M90 876 c0 -3 26 -10 58 -16 98 -19 145 -32 209 -61 219 -97 411 -306 554 -603 37 -75 59 -110 59 -92 0 14 -106 220 -145 281 -172 271 -384 434 -624 479 -86 17 -111 19 -111 12z" transform="translate(0.000000,217.000000) scale(0.100000,-0.100000)" stroke="none" fill="#5A8683"/>

<path d="M1423 1963 c-169 -285 -328 -811 -363 -1193 -5 -63 -12 -135 -14 -160 -4 -34 -2 -39 4 -20 5 14 16 95 25 180 33 317 139 717 263 995 36 82 69 144 131 248 13 20 19 37 14 37 -5 0 -32 -39 -60 -87z" transform="translate(0.000000,217.000000) scale(0.100000,-0.100000)" stroke="none" fill="#5A8683"/>

<path d="M1206 1833 c-86 -117 -149 -286 -196 -523 -53 -269 -63 -388 -57 -655 6 -257 22 -460 38 -485 7 -10 8 -1 5 30 -30 242 -41 562 -27 725 14 153 51 379 86 521 37 150 94 282 162 377 19 27 32 51 29 54 -2 3 -20 -17 -40 -44z" transform="translate(0.000000,217.000000) scale(0.100000,-0.100000)" stroke="none" fill="#5A8683"/>

<path d="M1414 2023 c-76 -83 -215 -323 -269 -467 -38 -101 -91 -324 -115 -488 -18 -122 -21 -185 -21 -437 1 -162 3 -297 6 -299 3 -3 5 35 5 84 -1 338 9 555 29 677 66 398 148 606 347 883 55 77 62 94 18 47z" transform="translate(0.000000,217.000000) scale(0.100000,-0.100000)" stroke="none" fill="#5A8683"/>

<path d="M1324 1982 c-43 -32 -166 -155 -214 -217 -36 -45 -121 -209 -149 -288 -65 -178 -83 -339 -71 -615 8 -160 32 -462 45 -562 4 -35 4 -35 -17 10 -33 72 -168 300 -211 357 -46 62 -108 114 -174 147 -74 37 -251 96 -286 95 -23 0 -7 -7 53 -25 157 -46 251 -91 324 -151 88 -73 252 -347 322 -535 16 -43 33 -78 37 -78 5 0 6 10 2 23 -26 87 -45 233 -70 552 -38 475 2 717 160 987 45 78 161 212 175 203 4 -2 35 25 69 60 66 70 68 82 5 37z" transform="translate(0.000000,217.000000) scale(0.100000,-0.100000)" stroke="none" fill="#5A8683"/>

<path d="M1434 2048 c-3 -5 -3 -8 1 -8 3 0 -19 -35 -48 -77 -198 -284 -272 -474 -338 -870 -18 -108 -22 -176 -24 -428 -2 -166 0 -273 5 -240 4 33 12 78 19 101 6 23 8 61 5 85 -18 129 54 523 158 864 59 196 224 547 271 577 7 4 -1 7 -16 6 -16 -2 -31 -6 -33 -10z m-387 -1470 c-3 -8 -6 -5 -6 6 -1 11 2 17 5 13 3 -3 4 -12 1 -19z" transform="translate(0.000000,217.000000) scale(0.100000,-0.100000)" stroke="none" fill="#2C5754"/>

<path d="M1113 1797 c-89 -93 -173 -207 -173 -233 0 -8 -4 -14 -9 -14 -14 0 -51 -141 -71 -275 -22 -142 -27 -470 -10 -645 6 -67 6 -98 -2 -105 -8 -7 -9 -5 -5 8 4 10 3 16 -2 13 -5 -3 -46 43 -91 104 -76 101 -88 113 -178 169 -97 60 -186 92 -253 90 -26 0 -10 -9 73 -38 231 -83 279 -126 430 -386 42 -72 85 -150 96 -175 21 -45 21 -45 17 -10 -13 100 -37 402 -45 562 -7 164 -2 316 16 416 32 186 140 419 249 540 97 105 63 88 -42 -21z" transform="translate(0.000000,217.000000) scale(0.100000,-0.100000)" stroke="none" fill="#2C5754"/>

<path d="M103 898 c-13 -6 -23 -15 -23 -19 0 -14 54 -45 220 -128 228 -112 327 -190 451 -351 69 -89 169 -243 169 -260 0 -5 10 -18 22 -29 16 -16 25 -18 35 -9 8 6 10 14 5 17 -5 3 -21 40 -37 81 -36 97 -80 184 -156 312 -75 126 -125 190 -181 234 -127 98 -431 190 -505 152z m98 -34 c137 -26 269 -93 395 -200 28 -24 55 -40 59 -36 3 4 5 2 3 -4 -2 -6 27 -49 63 -95 36 -46 83 -111 104 -144 39 -61 145 -267 145 -281 0 -18 -22 17 -59 92 -143 297 -335 506 -554 603 -64 29 -111 42 -209 61 -32 6 -58 13 -58 16 0 7 25 5 111 -12z" transform="translate(0.000000,217.000000) scale(0.100000,-0.100000)" stroke="none" fill="#2C5754"/>

<path d="M1382 2025 c-19 -8 -31 -19 -27 -25 7 -12 -94 -122 -105 -115 -14 8 -127 -122 -170 -195 -90 -150 -147 -318 -171 -505 -26 -200 30 -953 77 -1034 l15 -26 -6 25 c-42 164 -59 663 -29 892 37 287 93 514 165 661 41 84 107 183 115 174 3 -3 -10 -27 -29 -54 -98 -138 -158 -312 -211 -619 -42 -242 -51 -403 -36 -662 7 -125 15 -252 19 -282 l7 -55 9 40 c4 22 8 51 8 65 0 14 -1 158 -2 320 -2 257 0 313 19 438 24 164 77 387 115 488 37 97 143 296 201 377 27 38 55 77 63 88 16 22 16 22 -27 4z" transform="translate(0.000000,217.000000) scale(0.100000,-0.100000)" stroke="none" fill="#2C5754"/>

</svg>