<?xml version="1.0" standalone="no"?>
<!DOCTYPE svg PUBLIC "-//W3C//DTD SVG 20010904//EN"
 "http://www.w3.org/TR/2001/REC-SVG-20010904/DTD/svg10.dtd">
<svg version="1.0" xmlns="http://www.w3.org/2000/svg" 
width="74.000000pt" height="105.000000pt" viewBox="0 0 74.000000 105.000000"
preserveAspectRatio = "xMidYMid meet" >
<metadata>
Created by ZoeQU, 2022
</metadata>
<rect width="74.000000" height="105.000000" fill="#1E3139"/>
<path d="M583 968 c-18 -35 -22 -38 -22 -20 -1 20 -5 23 -33 20 -39 -4 -45 -23 -23 -70 32 -68 40 -77 58 -67 11 6 17 6 17 1 0 -6 -7 -12 -15 -16 -20 -7 -19 -26 1 -26 8 0 12 -4 9 -10 -3 -5 0 -10 8 -10 25 0 117 31 117 39 0 21 -23 71 -33 71 -7 0 1 12 16 26 35 32 32 52 -12 81 -48 33 -64 29 -88 -19z" transform="translate(0.000000,105.000000) scale(0.100000,-0.100000)" stroke="none" fill="#EAD4C0"/>

</svg>