<?xml version="1.0" standalone="no"?>
<!DOCTYPE svg PUBLIC "-//W3C//DTD SVG 20010904//EN"
 "http://www.w3.org/TR/2001/REC-SVG-20010904/DTD/svg10.dtd">
<svg version="1.0" xmlns="http://www.w3.org/2000/svg" 
width="214.000000pt" height="120.000000pt" viewBox="0 0 214.000000 120.000000"
preserveAspectRatio = "xMidYMid meet" >
<metadata>
Created by ZoeQU, 2022
</metadata>
<rect width="214.000000" height="120.000000" fill="#FBFCFC"/>
<path d="M643 381 c-84 -47 -99 -65 -63 -76 15 -5 19 -12 15 -26 -10 -29 24 -37 46 -11 22 28 27 28 31 -5 3 -30 16 -37 38 -23 10 6 15 28 16 63 1 30 7 64 13 75 11 20 6 53 -8 51 -3 -1 -43 -22 -88 -48z" transform="translate(0.000000,120.000000) scale(0.100000,-0.100000)" stroke="none" fill="#697072"/>

<path d="M704 1125 c-22 -90 27 -218 117 -306 l58 -56 -78 -1 c-42 -1 -101 -6 -130 -12 -77 -14 -91 -13 -91 9 0 30 -41 134 -63 158 -22 25 -170 117 -204 128 -20 6 -23 3 -23 -23 0 -45 56 -147 103 -188 23 -19 72 -50 109 -68 l68 -33 -58 -13 c-31 -7 -93 -24 -137 -39 -67 -22 -95 -26 -170 -24 -50 1 -98 0 -107 -3 -20 -6 -25 -49 -7 -59 7 -5 5 -13 -5 -24 -25 -27 -4 -49 33 -34 29 11 29 10 20 -15 -19 -50 7 -40 61 24 30 36 71 74 91 84 39 21 209 73 274 84 l40 8 -43 -32 c-53 -38 -97 -105 -122 -189 -27 -86 -26 -104 3 -95 98 30 161 90 206 198 17 41 31 83 31 93 1 45 9 47 202 47 101 -1 203 -5 228 -11 l45 -9 -52 -19 c-68 -24 -62 -30 13 -10 79 20 112 18 44 -4 -40 -12 -50 -19 -37 -24 9 -3 17 -3 17 2 0 4 6 8 13 8 6 0 38 6 69 12 32 7 67 9 78 6 11 -4 33 -8 49 -10 41 -5 351 -143 384 -171 16 -13 36 -24 45 -24 29 1 -24 35 -144 94 -188 94 -414 160 -584 171 -47 4 -99 8 -115 11 l-31 4 4 65 c4 58 1 73 -27 129 -28 57 -94 134 -148 171 -21 15 -23 14 -29 -10z" transform="translate(0.000000,120.000000) scale(0.100000,-0.100000)" stroke="none" fill="#697072"/>

</svg>