<?xml version="1.0" standalone="no"?>
<!DOCTYPE svg PUBLIC "-//W3C//DTD SVG 20010904//EN"
 "http://www.w3.org/TR/2001/REC-SVG-20010904/DTD/svg10.dtd">
<svg version="1.0" xmlns="http://www.w3.org/2000/svg" 
width="148.000000pt" height="164.000000pt" viewBox="0 0 148.000000 164.000000"
preserveAspectRatio = "xMidYMid meet" >
<metadata>
Created by ZoeQU, 2022
</metadata>
<rect width="148.000000" height="164.000000" fill="#FBFCFC"/>
<path d="M1156 371 c-9 -9 -16 -34 -16 -54 0 -20 -4 -37 -10 -37 -6 0 -10 -29 -10 -66 0 -59 3 -70 26 -90 29 -28 44 -29 83 -9 70 36 55 131 -39 252 -17 22 -18 22 -34 4z" transform="translate(0.000000,164.000000) scale(0.100000,-0.100000)" stroke="none" fill="#5D7378"/>

<path d="M805 690 c-3 -5 -13 -10 -22 -10 -9 0 -29 -13 -45 -30 -15 -16 -35 -30 -42 -30 -37 0 -25 -75 16 -104 50 -35 107 -11 179 75 24 29 54 63 67 76 12 13 22 26 22 28 0 10 -169 5 -175 -5z" transform="translate(0.000000,164.000000) scale(0.100000,-0.100000)" stroke="none" fill="#5D7378"/>

<path d="M958 1551 c-23 -19 -78 -118 -78 -141 0 -7 -14 -29 -30 -50 -27 -34 -53 -85 -87 -170 -9 -23 -11 -21 -37 35 -14 32 -31 91 -36 129 -15 107 -30 155 -58 176 -46 36 -105 21 -117 -30 -5 -21 1 -33 34 -63 22 -20 45 -37 51 -37 17 0 40 -26 40 -44 0 -9 4 -16 9 -16 5 0 12 -15 15 -33 3 -18 22 -65 41 -105 35 -74 33 -82 -13 -58 -15 8 -50 17 -77 21 -28 4 -70 18 -96 31 -91 46 -155 40 -184 -16 -19 -38 -7 -66 37 -84 32 -14 103 -5 123 15 5 5 17 9 27 9 10 0 18 5 18 10 0 14 78 12 120 -3 52 -17 75 -35 170 -126 46 -44 88 -81 92 -81 5 0 20 -8 35 -17 l26 -17 -34 -12 c-42 -15 -146 -18 -154 -4 -3 6 -25 10 -49 10 -92 0 -259 42 -364 91 -35 16 -67 29 -72 29 -6 0 -10 5 -10 10 0 6 -9 10 -20 10 -13 0 -20 7 -20 19 0 11 -13 30 -28 43 -15 13 -31 31 -35 41 -4 12 -18 17 -46 17 -31 0 -44 -6 -60 -27 -23 -29 -21 -56 8 -86 20 -21 110 -47 164 -47 37 0 157 -52 157 -69 0 -4 -11 -13 -25 -19 -14 -7 -47 -32 -74 -57 -26 -25 -55 -45 -64 -45 -34 0 -128 -43 -147 -67 -11 -14 -20 -38 -20 -54 0 -32 34 -69 62 -69 25 0 68 29 68 46 0 8 5 14 10 14 6 0 10 9 10 20 0 11 5 20 10 20 6 0 10 7 10 15 0 22 107 127 163 159 l47 28 78 -21 c43 -12 88 -21 100 -21 33 0 27 -11 -30 -67 -67 -64 -157 -170 -158 -185 -1 -24 33 -1 70 47 23 30 74 85 114 123 l73 69 99 -4 c57 -3 155 2 229 10 71 9 131 14 133 13 2 -2 -5 -11 -14 -20 -12 -13 -14 -20 -5 -29 8 -8 18 -4 38 15 29 27 92 68 106 68 14 0 7 -22 -19 -56 -59 -77 6 -33 77 52 9 10 25 24 35 30 41 25 1 25 -98 1 -201 -49 -218 -52 -251 -39 -90 34 -230 143 -253 197 -37 89 69 295 152 295 8 0 14 5 14 10 0 6 8 10 18 10 10 0 24 9 32 20 8 11 20 20 27 20 15 0 33 32 33 58 0 29 -38 72 -64 72 -13 0 -34 -9 -48 -19z" transform="translate(0.000000,164.000000) scale(0.100000,-0.100000)" stroke="none" fill="#5D7378"/>

</svg>