<?xml version="1.0" standalone="no"?>
<!DOCTYPE svg PUBLIC "-//W3C//DTD SVG 20010904//EN"
 "http://www.w3.org/TR/2001/REC-SVG-20010904/DTD/svg10.dtd">
<svg version="1.0" xmlns="http://www.w3.org/2000/svg" 
width="136.000000pt" height="118.000000pt" viewBox="0 0 136.000000 118.000000"
preserveAspectRatio = "xMidYMid meet" >
<metadata>
Created by ZoeQU, 2022
</metadata>
<rect width="136.000000" height="118.000000" fill="#FBFCFC"/>
<path d="M591 1089 c-6 -18 -11 -60 -11 -94 0 -55 4 -69 35 -115 43 -64 75 -163 82 -257 5 -64 3 -78 -20 -125 -31 -64 -93 -131 -146 -158 -37 -18 -40 -24 -54 -87 -21 -97 -30 -163 -20 -163 11 1 42 20 81 49 36 28 106 115 144 180 l26 44 15 -29 c19 -37 57 -164 58 -195 0 -17 9 -6 31 41 22 46 32 85 36 135 4 67 0 84 -36 159 -5 10 54 2 167 -20 40 -9 75 -13 77 -11 2 2 -44 16 -103 32 -142 37 -143 37 -104 66 39 29 111 120 141 178 13 26 24 70 26 105 l5 61 -16 -35 c-10 -24 -38 -51 -84 -82 -38 -27 -71 -48 -74 -48 -2 0 3 25 10 56 18 69 7 148 -33 232 l-27 57 -8 -30 c-4 -16 -20 -63 -35 -103 l-27 -73 -18 70 c-18 72 -37 116 -71 164 -25 35 -34 34 -47 -4z" transform="translate(0.000000,118.000000) scale(0.100000,-0.100000)" stroke="none" fill="#45646C"/>

<path d="M230 973 c-37 -26 -48 -43 -61 -99 -10 -44 -16 -52 -45 -63 -71 -26 -95 -102 -53 -170 17 -28 19 -39 10 -58 -28 -60 3 -130 74 -167 33 -17 58 -21 137 -21 54 0 98 -3 98 -7 0 -6 -41 -21 -85 -31 -17 -4 -16 -5 5 -7 23 -1 23 -2 5 -10 -11 -5 -33 -9 -50 -10 -30 -1 -29 -2 10 -16 58 -22 167 -14 236 18 67 31 131 94 166 166 23 47 25 61 20 125 -7 94 -39 193 -82 257 -19 29 -36 64 -36 79 -1 21 -3 22 -6 5 l-4 -21 -46 24 c-51 26 -88 30 -99 11 -4 -7 -4 -10 1 -6 5 5 14 -1 22 -12 8 -11 20 -20 28 -20 12 0 75 -96 75 -115 0 -5 -25 19 -55 52 -89 99 -202 140 -265 96z" transform="translate(0.000000,118.000000) scale(0.100000,-0.100000)" stroke="none" fill="#EF8470"/>

</svg>