<?xml version="1.0" standalone="no"?>
<!DOCTYPE svg PUBLIC "-//W3C//DTD SVG 20010904//EN"
 "http://www.w3.org/TR/2001/REC-SVG-20010904/DTD/svg10.dtd">
<svg version="1.0" xmlns="http://www.w3.org/2000/svg" 
width="73.000000pt" height="100.000000pt" viewBox="0 0 73.000000 100.000000"
preserveAspectRatio = "xMidYMid meet" >
<metadata>
Created by ZoeQU, 2022
</metadata>
<rect width="73.000000" height="100.000000" fill="#FBFCFC"/>
<path d="M366 646 c-44 -53 -69 -125 -60 -175 6 -37 39 -99 74 -140 l20 -23 62 64 c44 46 84 75 133 98 l69 33 -34 12 c-57 20 -101 51 -166 116 l-61 61 -37 -46z" transform="translate(0.000000,100.000000) scale(0.100000,-0.100000)" stroke="none" fill="#49646A"/>

<path d="M202 943 c-71 -35 -80 -123 -23 -207 23 -33 28 -47 19 -50 -7 -3 -30 -10 -50 -16 -46 -14 -105 -80 -114 -127 -11 -60 1 -122 33 -161 24 -31 83 -70 125 -84 13 -5 -7 -53 -32 -78 -14 -14 -20 -33 -20 -66 0 -60 36 -98 102 -108 57 -9 88 5 88 38 0 39 40 158 67 200 14 21 20 35 14 31 -22 -13 -94 95 -105 156 -9 50 16 122 59 175 32 39 39 43 53 32 15 -11 15 -11 0 7 -26 31 -56 109 -71 183 -11 53 -18 69 -38 79 -33 17 -67 16 -107 -4z" transform="translate(0.000000,100.000000) scale(0.100000,-0.100000)" stroke="none" fill="#EE8570"/>

</svg>