<?xml version="1.0" standalone="no"?>
<!DOCTYPE svg PUBLIC "-//W3C//DTD SVG 20010904//EN"
 "http://www.w3.org/TR/2001/REC-SVG-20010904/DTD/svg10.dtd">
<svg version="1.0" xmlns="http://www.w3.org/2000/svg" 
width="128.000000pt" height="128.000000pt" viewBox="0 0 128.000000 128.000000"
preserveAspectRatio = "xMidYMid meet" >
<metadata>
Created by ZoeQU, 2022
</metadata>
<rect width="128.000000" height="128.000000" fill="#F6F9F8"/>
<path d="M54 1228 c2 -10 67 -14 289 -16 266 -2 286 -4 281 -20 -5 -14 -4 -15 5 -2 6 8 11 18 11 23 0 4 -130 7 -289 7 -188 0 -291 4 -294 10 -3 6 -4 5 -3 -2z" transform="translate(0.000000,128.000000) scale(0.100000,-0.100000)" stroke="none" fill="#98E7F0"/>

<path d="M38 915 c1 -162 6 -295 10 -295 4 0 14 5 22 11 13 9 12 10 -2 5 -17 -5 -18 13 -18 284 0 160 -3 290 -7 290 -5 0 -7 -133 -5 -295z" transform="translate(0.000000,128.000000) scale(0.100000,-0.100000)" stroke="none" fill="#98E7F0"/>

<path d="M13 1265 c-23 -25 -16 -55 12 -55 l25 0 2 -292 3 -293 280 280 280 280 -270 -267 c-149 -148 -273 -268 -278 -268 -4 0 -7 124 -7 275 l0 275 288 2 287 3 -290 5 -290 5 3 33 c3 25 0 32 -15 32 -10 -1 -24 -7 -30 -15z" transform="translate(0.000000,128.000000) scale(0.100000,-0.100000)" stroke="none" fill="#8A9BAC"/>

<path d="M60 925 c0 -151 3 -275 8 -275 4 0 131 124 282 275 l275 275 -283 0 -282 0 0 -275z" transform="translate(0.000000,128.000000) scale(0.100000,-0.100000)" stroke="none" fill="#044D79"/>

<path d="M646 631 c-29 -30 -34 -40 -22 -44 8 -3 15 -14 14 -24 -2 -93 5 -473 9 -473 3 0 12 8 19 17 7 10 16 15 20 11 4 -4 1 -14 -6 -23 -7 -9 -10 -18 -7 -21 3 -3 126 114 273 260 147 146 265 269 261 273 -4 3 -7 1 -7 -5 0 -7 -9 -12 -20 -12 -11 0 -20 6 -20 14 0 12 -40 15 -239 18 -132 2 -243 6 -247 10 -4 4 -1 14 6 23 24 29 4 15 -34 -24z" transform="translate(0.000000,128.000000) scale(0.100000,-0.100000)" stroke="none" fill="#94F4E8"/>

<path d="M345 909 c-28 -27 -42 -47 -32 -43 9 3 17 10 17 15 0 5 4 9 9 9 4 0 7 -100 5 -222 -2 -240 2 -318 19 -318 14 0 547 535 547 548 0 18 -27 20 -283 19 -141 -1 -257 0 -257 2 0 3 7 13 17 23 35 38 5 16 -42 -33z m135 -39 c0 -5 -4 -10 -10 -10 -5 0 -10 5 -10 10 0 6 5 10 10 10 6 0 10 -4 10 -10z m-60 -10 c0 -5 -2 -10 -4 -10 -3 0 -8 5 -11 10 -3 6 -1 10 4 10 6 0 11 -4 11 -10z" transform="translate(0.000000,128.000000) scale(0.100000,-0.100000)" stroke="none" fill="#98E7F0"/>

</svg>