<?xml version="1.0" standalone="no"?>
<!DOCTYPE svg PUBLIC "-//W3C//DTD SVG 20010904//EN"
 "http://www.w3.org/TR/2001/REC-SVG-20010904/DTD/svg10.dtd">
<svg version="1.0" xmlns="http://www.w3.org/2000/svg" 
width="130.000000pt" height="126.000000pt" viewBox="0 0 130.000000 126.000000"
preserveAspectRatio = "xMidYMid meet" >
<metadata>
Created by ZoeQU, 2022
</metadata>
<rect width="130.000000" height="126.000000" fill="#F6F9F8"/>
<path d="M1237 1247 c-4 -11 -5 -23 -1 -28 3 -5 -113 -9 -285 -9 -159 0 -292 -4 -295 -9 -3 -5 2 -15 12 -22 15 -13 16 -12 3 4 -13 16 0 17 270 15 l284 -3 3 -277 c2 -260 1 -278 -15 -278 -15 0 -16 -2 -3 -10 8 -5 18 -10 23 -10 4 0 7 131 7 290 l0 290 30 0 c17 0 30 5 30 10 0 6 -5 10 -11 10 -5 0 -8 3 -6 8 3 4 -2 13 -10 21 -12 11 -14 11 -12 0 4 -31 -4 -42 -10 -14 -5 25 -8 27 -14 12z" transform="translate(0.000000,126.000000) scale(0.100000,-0.100000)" stroke="none" fill="#97EFEC"/>

<path d="M671 1183 c26 -35 542 -543 551 -543 4 0 7 123 6 278 l-3 277 -284 3 c-270 2 -283 1 -270 -15z" transform="translate(0.000000,126.000000) scale(0.100000,-0.100000)" stroke="none" fill="#16517D"/>

<path d="M780 1056 c0 -4 29 -37 65 -71 36 -35 65 -67 65 -72 0 -4 -121 -7 -270 -5 -227 2 -270 0 -270 -12 0 -7 54 -67 120 -132 66 -65 120 -123 120 -130 0 -18 -32 -21 -282 -22 -128 -1 -236 -2 -240 -2 -5 0 -8 -6 -8 -13 0 -14 533 -547 548 -547 17 0 23 81 21 299 -1 143 2 216 9 223 8 8 45 -22 136 -111 69 -68 130 -120 136 -116 6 4 10 97 10 266 0 142 3 259 7 259 3 0 15 -7 25 -17 10 -9 20 -14 23 -12 2 3 -45 54 -105 114 -61 60 -110 106 -110 101z" transform="translate(0.000000,126.000000) scale(0.100000,-0.100000)" stroke="none" fill="#97EFEC"/>

</svg>