<?xml version="1.0" standalone="no"?>
<!DOCTYPE svg PUBLIC "-//W3C//DTD SVG 20010904//EN"
 "http://www.w3.org/TR/2001/REC-SVG-20010904/DTD/svg10.dtd">
<svg version="1.0" xmlns="http://www.w3.org/2000/svg" 
width="130.000000pt" height="128.000000pt" viewBox="0 0 130.000000 128.000000"
preserveAspectRatio = "xMidYMid meet" >
<metadata>
Created by ZoeQU, 2022
</metadata>
<rect width="130.000000" height="128.000000" fill="#F6F9F8"/>
<path d="M1218 324 l-3 -259 -264 -2 c-144 -1 -266 -4 -269 -7 -3 -4 119 -5 272 -4 l278 3 0 258 c0 142 -3 261 -6 264 -3 3 -7 -111 -8 -253z" transform="translate(0.000000,128.000000) scale(0.100000,-0.100000)" stroke="none" fill="#8D9BAD"/>

<path d="M1195 580 c-10 -11 -23 -20 -29 -20 -15 0 -106 -92 -106 -106 0 -13 -43 -54 -56 -54 -13 0 -104 -93 -104 -106 0 -5 -18 -28 -40 -49 -22 -21 -40 -44 -40 -50 0 -14 -42 -55 -56 -55 -6 0 -27 -18 -48 -39 l-39 -40 269 2 269 2 5 263 c3 145 2 266 -1 268 -4 2 -14 -5 -24 -16z" transform="translate(0.000000,128.000000) scale(0.100000,-0.100000)" stroke="none" fill="#054C7B"/>

<path d="M343 936 c-207 -208 -270 -275 -261 -284 9 -9 87 -12 270 -12 200 0 258 -3 258 -12 0 -7 -54 -67 -120 -133 -68 -67 -118 -125 -116 -132 4 -10 63 -13 271 -13 244 0 288 -4 255 -25 -6 -3 -10 -12 -10 -18 0 -7 8 1 19 16 10 15 28 35 39 43 12 8 27 25 33 37 8 17 5 16 -14 -6 l-25 -28 -2 267 c0 147 -3 271 -6 276 -9 14 -32 -5 -155 -128 -65 -65 -121 -115 -124 -112 -4 3 -6 114 -5 247 0 245 -3 291 -24 290 -6 0 -133 -123 -283 -273z" transform="translate(0.000000,128.000000) scale(0.100000,-0.100000)" stroke="none" fill="#96EEEB"/>

</svg>