<?xml version="1.0" standalone="no"?>
<!DOCTYPE svg PUBLIC "-//W3C//DTD SVG 20010904//EN"
 "http://www.w3.org/TR/2001/REC-SVG-20010904/DTD/svg10.dtd">
<svg version="1.0" xmlns="http://www.w3.org/2000/svg" 
width="100.000000pt" height="146.000000pt" viewBox="0 0 100.000000 146.000000"
preserveAspectRatio = "xMidYMid meet" >
<metadata>
Created by ZoeQU, 2022
</metadata>
<rect width="100.000000" height="146.000000" fill="#EBEAE9"/>
<path d="M546 205 c3 -60 10 -116 16 -122 7 -9 34 -12 77 -11 l66 2 -70 5 -70 6 -12 115 -12 115 5 -110z" transform="translate(0.000000,146.000000) scale(0.100000,-0.100000)" stroke="none" fill="#D4B792"/>

<path d="M385 404 c-33 -25 -69 -52 -80 -60 -18 -13 -18 -16 -6 -37 8 -12 18 -38 22 -57 7 -35 7 -35 8 -5 0 17 -6 41 -16 54 -18 27 -25 17 62 86 60 47 80 64 75 64 -3 0 -32 -20 -65 -45z" transform="translate(0.000000,146.000000) scale(0.100000,-0.100000)" stroke="none" fill="#D4B792"/>

<path d="M371 403 c-50 -37 -91 -72 -91 -79 0 -6 7 -18 17 -25 15 -13 15 -12 2 8 -7 12 -11 24 -9 26 3 2 40 30 84 63 60 44 90 60 125 65 l46 6 -41 2 c-36 1 -53 -7 -133 -66z" transform="translate(0.000000,146.000000) scale(0.100000,-0.100000)" stroke="none" fill="#876155"/>

<path d="M854 778 c81 -55 95 -91 55 -142 -24 -30 -59 -34 -103 -11 -16 9 -31 14 -33 11 -2 -2 12 -11 31 -20 59 -28 98 -20 121 25 30 58 11 101 -60 135 -17 8 -22 9 -11 2z" transform="translate(0.000000,146.000000) scale(0.100000,-0.100000)" stroke="none" fill="#876155"/>

<path d="M635 1280 c-20 -23 -14 -26 15 -8 26 16 67 1 93 -34 20 -27 20 -29 4 -63 -27 -57 -20 -75 9 -21 23 43 24 51 13 78 -14 33 -62 68 -95 68 -11 0 -29 -9 -39 -20z" transform="translate(0.000000,146.000000) scale(0.100000,-0.100000)" stroke="none" fill="#462F25"/>

<path d="M561 235 c1 -55 4 -110 6 -123 5 -23 6 -23 19 -3 11 16 12 38 4 112 -13 133 -32 141 -29 14z" transform="translate(0.000000,146.000000) scale(0.100000,-0.100000)" stroke="none" fill="#462F25"/>

<path d="M646 1271 c-3 -4 6 -6 19 -3 29 5 71 -19 80 -47 3 -11 -1 -34 -10 -51 -11 -22 -14 -44 -9 -80 4 -28 10 -53 15 -55 4 -3 5 11 2 31 -5 29 -3 35 7 29 10 -6 12 -4 7 9 -4 9 0 31 9 48 8 16 14 32 12 34 -3 2 -14 -15 -26 -39 -12 -23 -22 -34 -22 -24 0 10 7 31 16 48 18 36 12 62 -23 89 -26 20 -68 27 -77 11z" transform="translate(0.000000,146.000000) scale(0.100000,-0.100000)" stroke="none" fill="#876155"/>

<path d="M731 1002 c-1 -31 -24 -72 -55 -101 -14 -14 -26 -30 -26 -36 0 -6 56 -44 125 -85 102 -59 125 -77 125 -96 0 -12 -7 -30 -16 -38 -14 -14 -19 -14 -52 0 -20 8 -54 26 -74 39 -60 40 -78 31 -78 -37 0 -39 9 -32 14 11 2 17 6 34 9 38 3 3 28 -8 54 -24 26 -16 63 -35 82 -43 32 -13 35 -12 52 9 33 40 25 68 -27 99 -49 28 -196 121 -204 129 -2 2 7 14 21 26 34 29 61 83 56 110 -4 22 -4 22 -6 -1z" transform="translate(0.000000,146.000000) scale(0.100000,-0.100000)" stroke="none" fill="#876155"/>

<path d="M415 1366 c-46 -20 -58 -40 -51 -86 5 -34 3 -43 -19 -62 -25 -21 -32 -38 -17 -38 4 0 24 16 45 35 34 31 36 36 25 60 -9 21 -9 28 1 34 7 5 13 12 14 17 3 13 70 5 79 -9 5 -7 6 -20 4 -30 -3 -13 4 -18 35 -23 22 -4 42 -11 45 -15 7 -12 34 -11 34 1 0 6 -7 10 -15 10 -32 0 -64 24 -70 52 -4 18 -19 37 -38 49 -37 22 -34 22 -72 5z" transform="translate(0.000000,146.000000) scale(0.100000,-0.100000)" stroke="none" fill="#462F25"/>

<path d="M277 1033 c10 -7 95 -166 90 -169 -1 0 -24 -11 -52 -23 -27 -12 -58 -27 -67 -32 -10 -5 -26 -9 -35 -9 -10 1 12 17 50 36 37 19 67 40 67 47 -1 15 -30 55 -30 40 0 -7 5 -15 10 -18 23 -14 6 -33 -61 -65 -39 -19 -66 -36 -60 -38 15 -5 3 -22 -15 -22 -8 0 -12 5 -8 11 9 15 -50 -16 -65 -35 -7 -8 -11 -25 -8 -38 4 -21 4 -20 6 4 0 15 11 34 23 42 32 23 46 20 20 -4 -29 -27 -28 -51 3 -80 25 -23 25 -23 65 -5 49 22 47 31 -2 11 -31 -13 -37 -13 -57 0 -14 10 -21 24 -19 37 3 23 34 41 181 106 42 18 77 36 77 39 0 3 -8 14 -17 25 -10 10 -31 46 -48 80 -16 33 -37 62 -45 65 -10 2 -11 1 -3 -5z" transform="translate(0.000000,146.000000) scale(0.100000,-0.100000)" stroke="none" fill="#876155"/>

<path d="M396 440 c-37 -27 -76 -52 -87 -55 -10 -4 -19 -11 -19 -16 0 -5 -5 -8 -12 -6 -6 1 -16 -10 -21 -24 -8 -22 -6 -31 11 -49 25 -27 23 -57 -3 -76 -29 -21 -41 -17 -40 14 0 19 -7 30 -23 37 -15 6 -21 16 -19 27 6 20 -27 53 -42 43 -19 -11 -12 -44 14 -61 14 -9 25 -24 25 -34 0 -20 49 -60 72 -60 7 0 26 11 41 25 21 21 26 32 21 53 -4 15 -13 34 -20 43 -8 8 -14 20 -14 25 0 6 41 40 91 77 75 55 98 67 129 67 44 0 50 -10 50 -78 0 -25 4 -42 8 -36 4 5 6 37 4 72 l-4 62 -48 0 c-41 0 -56 -6 -114 -50z" transform="translate(0.000000,146.000000) scale(0.100000,-0.100000)" stroke="none" fill="#462F25"/>

<path d="M405 1330 c-3 -5 -3 -10 2 -10 4 0 2 -4 -6 -9 -12 -8 -13 -14 -3 -36 11 -24 9 -29 -25 -60 -21 -19 -41 -35 -45 -35 -15 0 -8 17 17 38 14 12 25 30 24 39 0 14 -2 15 -6 3 -14 -38 -45 -58 -82 -54 -29 3 -32 2 -11 -5 l25 -8 -26 -11 c-40 -16 -53 -91 -23 -128 15 -18 15 -18 5 3 -29 59 5 131 56 118 18 -4 34 1 59 20 21 16 50 28 75 29 22 2 48 10 56 19 14 13 20 14 56 1 55 -20 79 -18 75 4 -2 11 4 27 12 37 14 18 14 18 -12 1 -19 -12 -37 -16 -55 -12 -21 5 -24 4 -13 -4 8 -5 23 -10 33 -10 9 0 17 -4 17 -10 0 -12 -27 -13 -34 -1 -3 4 -23 11 -45 15 -31 5 -38 10 -35 23 2 10 1 23 -3 29 -11 16 -80 27 -88 14z" transform="translate(0.000000,146.000000) scale(0.100000,-0.100000)" stroke="none" fill="#876155"/>

<path d="M742 1041 c0 -64 -20 -113 -61 -148 -14 -12 -23 -24 -21 -26 8 -8 155 -101 204 -129 52 -31 60 -59 27 -99 -17 -21 -20 -22 -52 -9 -19 8 -56 27 -82 43 -26 16 -51 27 -54 23 -6 -6 -10 -28 -18 -101 -6 -57 9 -36 20 28 7 44 16 45 81 12 64 -32 97 -32 123 1 27 35 27 75 -1 101 -13 11 -62 43 -110 72 -49 29 -88 59 -88 66 0 8 11 31 25 51 20 30 25 49 25 100 0 34 -4 65 -9 68 -5 3 -9 -20 -9 -53z" transform="translate(0.000000,146.000000) scale(0.100000,-0.100000)" stroke="none" fill="#462F25"/>

<path d="M364 602 c4 -40 2 -45 -41 -80 -26 -20 -63 -54 -83 -74 -21 -21 -43 -38 -49 -38 -6 0 -11 -3 -11 -8 0 -19 -60 -72 -74 -66 -9 3 -16 2 -16 -4 0 -15 86 -129 102 -135 7 -2 10 -8 6 -12 -10 -11 -41 18 -95 89 -24 32 -42 64 -39 72 3 8 1 14 -4 14 -23 0 -6 -39 43 -99 65 -80 95 -103 125 -95 22 6 22 7 -13 31 -19 13 -35 32 -35 42 0 10 -11 26 -25 35 -26 17 -33 50 -14 61 15 10 48 -23 42 -43 -2 -11 4 -21 19 -27 16 -7 23 -18 23 -38 -1 -30 11 -34 40 -13 26 19 28 49 3 76 -17 18 -19 28 -12 49 5 14 13 24 18 23 5 -2 12 0 15 5 3 5 27 21 52 35 25 15 52 34 59 44 8 9 -7 2 -33 -16 -39 -26 -50 -30 -62 -20 -8 7 -15 18 -15 25 0 8 -6 16 -12 18 -14 6 7 28 71 78 32 25 33 27 22 70 l-11 44 4 -43z m-144 -227 c15 -17 5 -35 -20 -35 -22 0 -33 23 -17 39 15 15 22 14 37 -4z" transform="translate(0.000000,146.000000) scale(0.100000,-0.100000)" stroke="none" fill="#876155"/>

<path d="M224 1174 c-35 -52 -13 -154 33 -154 8 0 19 -13 24 -29 6 -17 19 -47 30 -67 10 -21 19 -42 19 -46 0 -5 -46 -31 -102 -59 -56 -27 -108 -55 -115 -61 -18 -15 -16 -59 3 -87 15 -21 23 -23 68 -18 29 3 69 15 90 27 55 31 66 22 66 -52 l0 -63 -132 -100 c-72 -55 -136 -107 -141 -116 -15 -24 112 -184 131 -164 4 4 1 10 -6 12 -16 6 -102 120 -102 135 0 6 7 7 16 4 14 -6 74 47 74 66 0 5 5 8 10 8 6 0 32 20 58 44 26 25 63 59 83 78 l37 33 -11 83 c-6 45 -14 82 -19 82 -5 0 -45 -17 -89 -37 l-80 -36 -26 25 c-48 49 -26 75 112 133 80 33 115 50 112 55 -1 3 -19 39 -40 80 -22 45 -47 80 -62 87 -46 25 -46 125 1 143 31 12 31 20 -1 20 -15 0 -31 -10 -41 -26z" transform="translate(0.000000,146.000000) scale(0.100000,-0.100000)" stroke="none" fill="#462F25"/>

<path d="M666 556 c-5 -32 -6 -90 -3 -129 8 -88 0 -104 -46 -99 l-34 4 -5 74 c-3 42 -9 79 -15 85 -5 5 -31 10 -57 11 -38 0 -53 -4 -69 -22 l-22 -23 25 17 c14 9 45 16 71 16 l47 0 4 -62 c5 -80 -5 -101 -13 -28 l-6 55 0 -65 c0 -36 3 -96 7 -135 l7 -70 1 75 c3 101 20 80 32 -39 8 -75 7 -96 -4 -113 -10 -14 -15 -16 -19 -6 -3 9 -4 8 -3 -2 1 -12 19 -16 89 -18 100 -3 123 5 143 53 22 54 19 85 -10 85 -15 0 -26 7 -29 20 -3 14 -14 20 -31 20 l-26 0 0 158 c0 98 -4 152 -9 143 -7 -11 -10 -6 -13 20 -3 29 -5 25 -12 -25z m21 -78 c-2 -13 -4 -5 -4 17 -1 22 1 32 4 23 2 -10 2 -28 0 -40z m0 -183 c-7 -16 -37 -21 -37 -5 0 10 32 31 39 25 2 -2 1 -11 -2 -20z m8 -45 c3 -6 17 -7 31 -4 18 5 24 2 24 -10 0 -10 -8 -16 -21 -16 -25 0 -59 17 -59 30 0 13 17 13 25 0z m-47 -33 c4 -20 -25 -34 -40 -19 -15 15 -1 44 19 40 10 -2 19 -11 21 -21z m148 -37 c-4 -36 -16 -53 -16 -22 0 11 -3 27 -6 36 -4 11 -1 16 10 16 12 0 15 -8 12 -30z m-130 -20 c8 0 14 -9 14 -20 0 -16 -7 -20 -30 -20 -26 0 -30 4 -30 26 0 20 4 25 16 20 9 -3 22 -6 30 -6z m95 -16 c12 -30 11 -32 -23 -25 -23 5 -34 13 -36 28 -3 18 1 21 24 19 16 -2 31 -11 35 -22z" transform="translate(0.000000,146.000000) scale(0.100000,-0.100000)" stroke="none" fill="#876155"/>

<path d="M643 1263 c-7 -2 -13 -11 -13 -19 0 -18 -27 -18 -77 0 -36 13 -42 12 -56 -1 -8 -9 -34 -17 -56 -19 -25 -1 -54 -13 -75 -29 -25 -19 -41 -24 -59 -20 -67 17 -96 -111 -32 -135 15 -6 34 -32 53 -72 17 -35 37 -70 46 -77 9 -7 16 -17 16 -21 0 -4 -35 -23 -77 -41 -147 -65 -178 -83 -181 -106 -2 -13 5 -27 19 -36 23 -17 30 -16 125 28 76 35 84 33 84 -15 0 -21 5 -62 11 -91 l11 -52 -33 -26 c-64 -50 -85 -72 -71 -78 6 -2 12 -10 12 -18 0 -7 6 -18 14 -24 17 -14 39 -2 114 57 36 29 51 34 89 34 26 -1 51 -6 56 -11 6 -6 12 -43 15 -85 l5 -74 34 -4 c46 -6 53 11 46 105 -5 65 3 155 23 255 6 29 25 28 72 -3 20 -13 54 -31 74 -39 33 -14 38 -14 52 0 9 8 16 26 16 38 0 19 -23 37 -125 96 -69 41 -125 79 -125 85 0 6 12 22 26 36 50 47 66 102 52 180 -8 42 -6 59 7 90 13 28 15 41 6 58 -19 34 -61 49 -98 34z m-66 -39 c-3 -3 -12 -4 -19 -1 -8 3 -5 6 6 6 11 1 17 -2 13 -5z m112 -53 c37 -37 27 -48 -48 -55 -74 -7 -222 -45 -295 -75 -37 -15 -50 -3 -41 38 6 29 50 71 74 71 6 0 11 3 11 8 0 4 10 8 23 9 12 0 49 8 82 16 82 20 168 14 194 -12z m-34 -111 c0 -8 -8 -16 -17 -18 -13 -2 -18 3 -18 18 0 15 5 20 18 18 9 -2 17 -10 17 -18z m-207 -37 c5 -17 -26 -29 -40 -15 -6 6 -7 15 -3 22 9 14 37 9 43 -7z m120 -25 c-2 -13 -10 -23 -18 -23 -8 0 -16 10 -18 23 -3 17 2 22 18 22 16 0 21 -5 18 -22z m-53 -28 c3 -5 1 -10 -4 -10 -6 0 -11 5 -11 10 0 6 2 10 4 10 3 0 8 -4 11 -10z m85 -81 c0 -6 -4 -7 -10 -4 -5 3 -10 11 -10 16 0 6 5 7 10 4 6 -3 10 -11 10 -16z" transform="translate(0.000000,146.000000) scale(0.100000,-0.100000)" stroke="none" fill="#D4B792"/>

</svg>