<?xml version="1.0" standalone="no"?>
<!DOCTYPE svg PUBLIC "-//W3C//DTD SVG 20010904//EN"
 "http://www.w3.org/TR/2001/REC-SVG-20010904/DTD/svg10.dtd">
<svg version="1.0" xmlns="http://www.w3.org/2000/svg" 
width="89.000000pt" height="127.000000pt" viewBox="0 0 89.000000 127.000000"
preserveAspectRatio = "xMidYMid meet" >
<metadata>
Created by ZoeQU, 2022
</metadata>
<rect width="89.000000" height="127.000000" fill="#F4F3EE"/>
<path d="M302 236 c-13 -30 -10 -152 5 -167 8 -8 15 -4 27 12 9 13 16 29 16 35 0 7 14 24 30 37 19 16 30 35 30 51 0 22 -4 26 -32 26 -17 0 -39 7 -48 15 -15 14 -18 13 -28 -9z" transform="translate(0.000000,127.000000) scale(0.100000,-0.100000)" stroke="none" fill="#AAA597"/>

<path d="M180 380 c0 -5 -11 -10 -25 -10 -14 0 -25 -6 -25 -13 0 -8 -20 -34 -45 -60 l-46 -46 42 -11 c23 -7 57 -9 75 -6 52 10 111 66 69 66 -21 0 -37 35 -29 65 4 15 2 25 -5 25 -6 0 -11 -4 -11 -10z" transform="translate(0.000000,127.000000) scale(0.100000,-0.100000)" stroke="none" fill="#AAA597"/>

<path d="M390 532 c-31 -15 -35 -21 -35 -57 0 -31 5 -42 22 -51 13 -6 31 -18 40 -26 35 -29 50 -28 75 5 56 76 61 117 14 117 -14 0 -31 7 -40 15 -18 19 -32 18 -76 -3z m73 -44 c8 -30 -3 -48 -29 -48 -21 0 -24 5 -24 33 0 19 3 36 6 39 11 11 42 -4 47 -24z" transform="translate(0.000000,127.000000) scale(0.100000,-0.100000)" stroke="none" fill="#F7CD4C"/>

<path d="M393 717 c-3 -5 -14 -7 -24 -4 -11 3 -17 1 -13 -4 3 -5 -2 -9 -11 -9 -8 0 -23 -9 -32 -20 -10 -11 -21 -20 -26 -20 -5 0 -32 -20 -60 -45 -35 -30 -55 -57 -63 -84 -11 -38 -10 -42 17 -72 32 -36 34 -43 18 -87 -15 -44 1 -67 58 -81 29 -8 56 -22 68 -37 17 -22 28 -25 82 -25 86 -1 101 6 109 47 5 28 10 34 23 28 45 -20 62 -10 94 51 18 33 35 61 40 63 10 5 8 110 -4 157 -6 22 -11 46 -11 52 -1 9 -5 9 -13 3 -7 -6 -16 -5 -25 3 -10 9 -11 9 -6 0 10 -18 -9 -16 -24 2 -7 8 -10 26 -8 40 3 14 1 28 -5 32 -6 3 -7 1 -3 -5 10 -17 -9 -15 -23 2 -7 8 -20 15 -29 14 -9 0 -41 2 -70 4 -29 3 -55 1 -59 -5z m73 -182 c9 -8 26 -15 40 -15 47 0 42 -41 -14 -117 -25 -33 -40 -34 -75 -5 -9 8 -27 20 -40 26 -17 9 -22 20 -22 51 0 36 4 42 35 57 44 21 58 22 76 3z" transform="translate(0.000000,127.000000) scale(0.100000,-0.100000)" stroke="none" fill="#FA9367"/>

<path d="M477 1169 c-18 -24 -36 -39 -46 -37 -29 5 -69 -43 -76 -92 -5 -37 -3 -49 14 -67 24 -26 26 -33 8 -33 -18 0 -64 -49 -76 -82 -12 -32 -7 -47 32 -105 27 -41 49 -53 61 -35 5 9 101 7 116 -3 4 -3 15 2 23 10 14 13 17 13 33 -2 9 -10 23 -31 30 -48 16 -38 39 -60 49 -46 3 6 22 18 41 27 45 21 84 82 84 129 0 29 8 43 40 74 48 45 50 67 17 166 -31 90 -42 97 -109 62 -59 -31 -68 -32 -68 -14 0 7 -13 26 -28 42 -26 28 -107 95 -114 95 -2 0 -16 -19 -31 -41z" transform="translate(0.000000,127.000000) scale(0.100000,-0.100000)" stroke="none" fill="#A1223C"/>

</svg>