<?xml version="1.0" standalone="no"?>
<!DOCTYPE svg PUBLIC "-//W3C//DTD SVG 20010904//EN"
 "http://www.w3.org/TR/2001/REC-SVG-20010904/DTD/svg10.dtd">
<svg version="1.0" xmlns="http://www.w3.org/2000/svg" 
width="100.000000pt" height="186.000000pt" viewBox="0 0 100.000000 186.000000"
preserveAspectRatio = "xMidYMid meet" >
<metadata>
Created by ZoeQU, 2022
</metadata>
<rect width="100.000000" height="186.000000" fill="#10212D"/>
<path d="M430 1772 c-37 -15 -53 -30 -92 -89 -26 -39 -68 -120 -93 -178 -48 -113 -74 -167 -84 -175 -25 -20 -94 -116 -101 -139 -10 -36 -2 -76 19 -94 40 -34 166 -71 312 -91 l46 -7 7 -57 c4 -31 11 -82 16 -112 5 -37 3 -107 -8 -215 -22 -222 -19 -391 7 -450 l20 -46 68 3 c64 3 68 5 77 31 7 20 4 53 -13 128 -31 140 -51 363 -48 561 l2 168 80 0 c88 0 151 16 225 56 40 22 50 33 60 68 15 55 -4 113 -73 213 -66 95 -69 100 -120 208 -34 74 -54 102 -105 149 -60 54 -115 87 -144 85 -7 0 -33 -8 -58 -17z" transform="translate(0.000000,186.000000) scale(0.100000,-0.100000)" stroke="none" fill="#A387A9"/>

</svg>