<?xml version="1.0" standalone="no"?>
<!DOCTYPE svg PUBLIC "-//W3C//DTD SVG 20010904//EN"
 "http://www.w3.org/TR/2001/REC-SVG-20010904/DTD/svg10.dtd">
<svg version="1.0" xmlns="http://www.w3.org/2000/svg" 
width="85.000000pt" height="105.000000pt" viewBox="0 0 85.000000 105.000000"
preserveAspectRatio = "xMidYMid meet" >
<metadata>
Created by ZoeQU, 2022
</metadata>
<rect width="85.000000" height="105.000000" fill="#FDFDFC"/>
<path d="M263 940 c-3 -11 -9 -20 -14 -20 -5 0 -9 -9 -9 -20 0 -11 5 -20 10 -20 6 0 10 -5 10 -11 0 -6 9 -24 20 -39 l20 -28 -46 -24 c-191 -95 -268 -327 -173 -516 119 -233 433 -282 610 -95 90 95 113 157 107 288 -4 72 -10 101 -33 148 -30 62 -111 145 -174 177 -48 24 -152 44 -196 37 -19 -3 -35 -2 -35 4 0 5 -11 9 -24 9 -50 0 -73 85 -28 105 31 14 27 25 -9 25 -22 0 -32 -5 -36 -20z m52 -450 c0 -8 -8 -16 -17 -18 -13 -2 -18 3 -18 18 0 15 5 20 18 18 9 -2 17 -10 17 -18z m245 0 c0 -11 -7 -20 -15 -20 -8 0 -15 9 -15 20 0 11 7 20 15 20 8 0 15 -9 15 -20z" transform="translate(0.000000,105.000000) scale(0.100000,-0.100000)" stroke="none" fill="#6CB99B"/>

</svg>