<?xml version="1.0" standalone="no"?>
<!DOCTYPE svg PUBLIC "-//W3C//DTD SVG 20010904//EN"
 "http://www.w3.org/TR/2001/REC-SVG-20010904/DTD/svg10.dtd">
<svg version="1.0" xmlns="http://www.w3.org/2000/svg" 
width="162.000000pt" height="192.000000pt" viewBox="0 0 162.000000 192.000000"
preserveAspectRatio = "xMidYMid meet" >
<metadata>
Created by ZoeQU, 2022
</metadata>
<rect width="162.000000" height="192.000000" fill="#FBFBF9"/>
<path d="M706 1213 c-4 -9 -7 -78 -7 -152 1 -166 -1 -164 119 -159 60 2 85 7 92 18 11 16 14 269 4 294 -9 24 -199 23 -208 -1z" transform="translate(0.000000,192.000000) scale(0.100000,-0.100000)" stroke="none" fill="#435E57"/>

<path d="M1040 1813 c-36 -2 -175 -12 -308 -23 -134 -11 -274 -20 -310 -20 -96 0 -108 -6 -132 -59 -12 -25 -25 -53 -29 -61 -5 -8 -28 -17 -53 -20 -50 -6 -98 -33 -98 -55 0 -9 10 -15 24 -15 14 0 28 -5 31 -10 5 -8 11 -7 21 1 17 14 44 5 44 -15 0 -23 -50 -172 -64 -192 -12 -16 -14 -14 -26 22 -17 52 -29 64 -36 36 -4 -12 -13 -22 -21 -22 -20 0 -10 -39 23 -92 30 -47 29 -74 -6 -183 -36 -111 -36 -126 -2 -192 17 -32 38 -76 47 -98 17 -40 27 -61 105 -230 23 -49 51 -110 62 -135 11 -25 35 -76 53 -115 19 -38 42 -91 53 -116 l20 -46 113 -12 c63 -7 186 -18 274 -26 88 -8 199 -18 248 -24 48 -6 94 -8 101 -5 11 4 79 132 106 199 4 11 38 83 75 160 37 77 73 154 80 170 7 17 29 66 50 109 20 44 46 104 56 134 l19 54 -24 62 c-13 33 -40 103 -60 154 -20 51 -42 102 -49 112 -10 17 -7 29 20 77 17 32 34 73 38 91 7 32 6 33 -21 30 -20 -2 -33 -12 -42 -31 -21 -45 -44 -30 -76 50 -32 79 -28 103 21 103 32 0 55 24 51 52 -3 21 -9 23 -71 26 l-68 3 -15 37 c-24 59 -37 86 -53 105 -15 17 -16 18 -171 10z m366 -200 c-10 -10 -19 5 -10 18 6 11 8 11 12 0 2 -7 1 -15 -2 -18z m-63 10 c-7 -2 -19 -2 -25 0 -7 3 -2 5 12 5 14 0 19 -2 13 -5z m-1089 -28 c4 -12 -3 -15 -37 -15 -23 0 -53 -3 -67 -5 -25 -5 -25 -5 -2 6 12 7 22 16 22 21 0 15 77 9 84 -7z m1219 -162 c-8 -22 -35 -53 -45 -53 -13 0 26 69 39 70 8 0 10 -7 6 -17z m-358 -73 c0 -29 -4 -36 -23 -38 -28 -4 -39 21 -23 54 17 38 46 28 46 -16z m-997 -2 c7 -7 12 -20 12 -29 0 -9 10 -23 23 -32 16 -11 19 -18 11 -27 -13 -13 -15 -11 -50 57 -21 42 -19 54 4 31z m432 -41 c0 -33 -15 -49 -41 -45 -31 4 -40 55 -13 75 23 17 54 0 54 -30z m364 -103 c10 -25 7 -278 -4 -294 -7 -11 -32 -16 -92 -18 -120 -5 -118 -7 -119 159 0 74 3 143 7 152 9 24 199 25 208 1z" transform="translate(0.000000,192.000000) scale(0.100000,-0.100000)" stroke="none" fill="#71BB9D"/>

</svg>