<?xml version="1.0" standalone="no"?>
<!DOCTYPE svg PUBLIC "-//W3C//DTD SVG 20010904//EN"
 "http://www.w3.org/TR/2001/REC-SVG-20010904/DTD/svg10.dtd">
<svg version="1.0" xmlns="http://www.w3.org/2000/svg" 
width="54.000000pt" height="56.000000pt" viewBox="0 0 54.000000 56.000000"
preserveAspectRatio = "xMidYMid meet" >
<metadata>
Created by ZoeQU, 2022
</metadata>
<rect width="54.000000" height="56.000000" fill="#EAEAE9"/>
<path d="M460 320 c0 -5 7 -10 15 -10 8 0 15 5 15 10 0 6 -7 10 -15 10 -8 0 -15 -4 -15 -10z" transform="translate(0.000000,56.000000) scale(0.100000,-0.100000)" stroke="none" fill="#558DA1"/>

<path d="M225 270 c3 -5 13 -10 21 -10 8 0 14 5 14 10 0 6 -9 10 -21 10 -11 0 -17 -4 -14 -10z" transform="translate(0.000000,56.000000) scale(0.100000,-0.100000)" stroke="none" fill="#558DA1"/>

<path d="M330 478 c0 -4 13 -6 29 -5 16 1 27 4 24 7 -8 8 -53 7 -53 -2z" transform="translate(0.000000,56.000000) scale(0.100000,-0.100000)" stroke="none" fill="#9EC5D3"/>

<path d="M250 341 c0 -8 -7 -11 -17 -6 -15 5 -16 4 -5 -6 9 -10 15 -10 24 -1 6 6 9 15 5 19 -4 3 -7 1 -7 -6z" transform="translate(0.000000,56.000000) scale(0.100000,-0.100000)" stroke="none" fill="#9EC5D3"/>

<path d="M180 246 c0 -2 13 -6 29 -8 17 -2 28 -1 25 4 -5 8 -54 12 -54 4z" transform="translate(0.000000,56.000000) scale(0.100000,-0.100000)" stroke="none" fill="#9EC5D3"/>

<path d="M454 289 c1 -7 12 -16 25 -20 14 -6 20 -5 16 1 -3 6 -12 10 -20 10 -7 0 -16 5 -18 10 -3 6 -4 5 -3 -1z" transform="translate(0.000000,56.000000) scale(0.100000,-0.100000)" stroke="none" fill="#7EAEBD"/>

<path d="M415 121 c4 -8 2 -17 -6 -22 -9 -6 -10 -9 -2 -9 19 0 27 21 13 33 -10 9 -11 9 -5 -2z" transform="translate(0.000000,56.000000) scale(0.100000,-0.100000)" stroke="none" fill="#7EAEBD"/>

<path d="M301 338 c-1 -21 4 -28 17 -28 11 0 13 3 6 8 -7 4 -14 16 -17 27 -4 15 -5 14 -6 -7z" transform="translate(0.000000,56.000000) scale(0.100000,-0.100000)" stroke="none" fill="#C0DEE8"/>

<path d="M332 181 c7 -9 13 -18 15 -20 1 -2 1 5 0 16 0 11 -7 20 -14 20 -10 0 -10 -4 -1 -16z" transform="translate(0.000000,56.000000) scale(0.100000,-0.100000)" stroke="none" fill="#5D9CB3"/>

<path d="M455 260 c3 -5 13 -10 21 -10 8 0 12 5 9 10 -3 6 -13 10 -21 10 -8 0 -12 -4 -9 -10z" transform="translate(0.000000,56.000000) scale(0.100000,-0.100000)" stroke="none" fill="#558DA1"/>

<path d="M230 58 c-10 -21 -10 -21 3 -6 8 10 18 14 22 10 5 -4 5 -1 1 6 -10 17 -14 15 -26 -10z" transform="translate(0.000000,56.000000) scale(0.100000,-0.100000)" stroke="none" fill="#9EC5D3"/>

<path d="M260 114 c0 -5 7 -18 15 -28 8 -11 15 -16 15 -10 0 5 -7 18 -15 28 -8 11 -15 16 -15 10z" transform="translate(0.000000,56.000000) scale(0.100000,-0.100000)" stroke="none" fill="#7EAEBD"/>

<path d="M99 278 c7 -10 23 -17 35 -17 20 1 20 2 1 6 -11 3 -27 10 -35 17 -13 10 -13 9 -1 -6z" transform="translate(0.000000,56.000000) scale(0.100000,-0.100000)" stroke="none" fill="#5D9CB3"/>

<path d="M371 83 c1 -22 2 -23 6 -8 3 11 10 23 17 27 7 5 5 8 -6 8 -13 0 -18 -7 -17 -27z" transform="translate(0.000000,56.000000) scale(0.100000,-0.100000)" stroke="none" fill="#9EC5D3"/>

<path d="M175 89 c-4 -6 -14 -8 -24 -4 -12 5 -13 3 -4 -6 9 -9 17 -8 34 5 13 9 18 16 12 16 -7 0 -15 -5 -18 -11z" transform="translate(0.000000,56.000000) scale(0.100000,-0.100000)" stroke="none" fill="#7EAEBD"/>

<path d="M460 397 c27 -15 36 -14 25 2 -3 6 -16 11 -28 11 -21 0 -21 -1 3 -13z" transform="translate(0.000000,56.000000) scale(0.100000,-0.100000)" stroke="none" fill="#C0DEE8"/>

<path d="M359 433 l-24 -28 28 24 c25 23 32 31 24 31 -2 0 -14 -12 -28 -27z" transform="translate(0.000000,56.000000) scale(0.100000,-0.100000)" stroke="none" fill="#9EC5D3"/>

<path d="M256 410 c8 -43 14 -51 14 -19 0 13 -5 31 -10 39 -7 11 -8 5 -4 -20z" transform="translate(0.000000,56.000000) scale(0.100000,-0.100000)" stroke="none" fill="#9EC5D3"/>

<path d="M330 225 c13 -14 26 -25 28 -25 3 0 -5 11 -18 25 -13 14 -26 25 -28 25 -3 0 5 -11 18 -25z" transform="translate(0.000000,56.000000) scale(0.100000,-0.100000)" stroke="none" fill="#9EC5D3"/>

<path d="M406 152 c-2 -4 6 -7 20 -7 32 2 39 10 9 13 -13 1 -26 -2 -29 -6z" transform="translate(0.000000,56.000000) scale(0.100000,-0.100000)" stroke="none" fill="#7EAEBD"/>

<path d="M180 383 c0 -5 10 -18 23 -29 l22 -19 -20 25 c-11 14 -21 27 -22 29 -2 2 -3 0 -3 -6z" transform="translate(0.000000,56.000000) scale(0.100000,-0.100000)" stroke="none" fill="#7EAEBD"/>

<path d="M151 357 c2 -1 15 -11 29 -22 l25 -20 -19 23 c-11 12 -24 22 -29 22 -6 0 -8 -1 -6 -3z" transform="translate(0.000000,56.000000) scale(0.100000,-0.100000)" stroke="none" fill="#7EAEBD"/>

<path d="M419 195 c18 -8 36 -15 40 -15 13 1 -45 29 -59 29 -8 0 0 -6 19 -14z" transform="translate(0.000000,56.000000) scale(0.100000,-0.100000)" stroke="none" fill="#C0DEE8"/>

<path d="M291 328 c-1 -21 4 -28 17 -28 11 0 13 3 6 8 -7 4 -14 16 -17 27 -4 15 -5 14 -6 -7z" transform="translate(0.000000,56.000000) scale(0.100000,-0.100000)" stroke="none" fill="#9EC5D3"/>

<path d="M233 494 c-3 -8 0 -21 6 -27 9 -9 11 -8 5 7 -4 11 -2 21 7 27 10 6 11 9 1 9 -7 0 -15 -7 -19 -16z" transform="translate(0.000000,56.000000) scale(0.100000,-0.100000)" stroke="none" fill="#7EAEBD"/>

<path d="M452 358 c-18 -18 -14 -28 11 -27 17 1 18 2 4 6 -14 4 -16 8 -6 19 14 17 8 19 -9 2z" transform="translate(0.000000,56.000000) scale(0.100000,-0.100000)" stroke="none" fill="#7EAEBD"/>

<path d="M171 236 c12 -10 59 -15 59 -6 0 5 -14 10 -32 10 -17 0 -29 -2 -27 -4z" transform="translate(0.000000,56.000000) scale(0.100000,-0.100000)" stroke="none" fill="#C0DEE8"/>

<path d="M395 84 c15 -16 18 -16 33 2 16 16 16 17 0 5 -11 -8 -18 -9 -23 -1 -3 5 -11 10 -16 10 -6 0 -3 -7 6 -16z" transform="translate(0.000000,56.000000) scale(0.100000,-0.100000)" stroke="none" fill="#C0DEE8"/>

<path d="M397 323 c-11 -11 -8 -31 6 -36 10 -4 13 2 9 19 -5 26 -6 27 -15 17z" transform="translate(0.000000,56.000000) scale(0.100000,-0.100000)" stroke="none" fill="#5D9CB3"/>

<path d="M140 349 c13 -6 32 -15 40 -22 9 -7 5 -2 -8 11 -13 12 -31 22 -40 21 -11 0 -9 -4 8 -10z" transform="translate(0.000000,56.000000) scale(0.100000,-0.100000)" stroke="none" fill="#9EC5D3"/>

<path d="M108 284 c12 -8 30 -13 40 -11 13 4 12 5 -5 6 -12 0 -25 6 -28 11 -3 6 -11 10 -18 10 -6 0 -1 -7 11 -16z" transform="translate(0.000000,56.000000) scale(0.100000,-0.100000)" stroke="none" fill="#9EC5D3"/>

<path d="M321 478 c-1 -28 12 -37 24 -18 3 6 2 10 -4 10 -5 0 -12 8 -14 18 -3 10 -5 6 -6 -10z" transform="translate(0.000000,56.000000) scale(0.100000,-0.100000)" stroke="none" fill="#7EAEBD"/>

<path d="M110 208 c-15 -21 -17 -28 -6 -19 16 13 41 51 33 51 -2 0 -14 -15 -27 -32z" transform="translate(0.000000,56.000000) scale(0.100000,-0.100000)" stroke="none" fill="#7EAEBD"/>

<path d="M100 410 c0 -5 -10 -10 -22 -10 -12 0 -19 -3 -15 -6 9 -9 57 5 57 16 0 6 -4 10 -10 10 -5 0 -10 -4 -10 -10z" transform="translate(0.000000,56.000000) scale(0.100000,-0.100000)" stroke="none" fill="#7EAEBD"/>

<path d="M237 213 c-11 -10 -8 -43 3 -43 6 0 10 11 10 25 0 26 -2 29 -13 18z" transform="translate(0.000000,56.000000) scale(0.100000,-0.100000)" stroke="none" fill="#558DA1"/>

<path d="M61 411 c-13 -10 -21 -24 -18 -32 4 -10 6 -10 6 3 1 9 10 20 21 23 11 3 20 11 20 16 0 12 -1 12 -29 -10z" transform="translate(0.000000,56.000000) scale(0.100000,-0.100000)" stroke="none" fill="#C0DEE8"/>

<path d="M210 251 c17 -5 24 -13 22 -27 -2 -15 -1 -16 7 -4 13 19 -5 40 -33 39 -19 -1 -18 -2 4 -8z" transform="translate(0.000000,56.000000) scale(0.100000,-0.100000)" stroke="none" fill="#7EAEBD"/>

<path d="M306 200 c12 -14 24 -32 27 -40 5 -13 6 -13 6 1 1 8 -11 26 -26 40 l-28 24 21 -25z" transform="translate(0.000000,56.000000) scale(0.100000,-0.100000)" stroke="none" fill="#7EAEBD"/>

<path d="M221 189 c0 -9 -11 -29 -23 -45 l-21 -29 27 26 c18 17 26 33 23 45 -4 14 -5 15 -6 3z" transform="translate(0.000000,56.000000) scale(0.100000,-0.100000)" stroke="none" fill="#7EAEBD"/>

<path d="M312 414 c-12 -8 -21 -25 -21 -37 1 -20 2 -20 6 -2 3 11 15 28 26 37 27 22 19 23 -11 2z" transform="translate(0.000000,56.000000) scale(0.100000,-0.100000)" stroke="none" fill="#5D9CB3"/>

<path d="M216 151 c-16 -18 -16 -18 9 -14 14 3 25 12 25 19 0 19 -14 17 -34 -5z" transform="translate(0.000000,56.000000) scale(0.100000,-0.100000)" stroke="none" fill="#5D9CB3"/>

<path d="M169 123 l-34 -38 38 34 c34 33 42 41 34 41 -2 0 -19 -17 -38 -37z" transform="translate(0.000000,56.000000) scale(0.100000,-0.100000)" stroke="none" fill="#9EC5D3"/>

<path d="M190 429 c0 -19 4 -41 9 -48 6 -10 8 1 4 30 -7 55 -13 63 -13 18z" transform="translate(0.000000,56.000000) scale(0.100000,-0.100000)" stroke="none" fill="#C0DEE8"/>

<path d="M401 356 c-13 -14 -33 -27 -45 -29 -20 -4 -21 -4 0 -6 11 0 33 13 49 29 16 17 26 30 24 30 -3 0 -16 -11 -28 -24z" transform="translate(0.000000,56.000000) scale(0.100000,-0.100000)" stroke="none" fill="#C0DEE8"/>

<path d="M190 335 c27 -29 37 -27 20 4 -6 12 -18 21 -27 21 -13 0 -12 -5 7 -25z" transform="translate(0.000000,56.000000) scale(0.100000,-0.100000)" stroke="none" fill="#558DA1"/>

<path d="M181 434 c0 -23 5 -48 15 -60 8 -10 12 -12 8 -4 -5 8 -11 35 -15 60 l-6 45 -2 -41z" transform="translate(0.000000,56.000000) scale(0.100000,-0.100000)" stroke="none" fill="#9EC5D3"/>

<path d="M234 452 c4 -7 12 -34 17 -60 l8 -47 -3 48 c-2 27 -9 54 -16 60 -10 9 -11 9 -6 -1z" transform="translate(0.000000,56.000000) scale(0.100000,-0.100000)" stroke="none" fill="#C0DEE8"/>

<path d="M471 167 c-1 -11 -10 -21 -21 -24 -18 -5 -29 -33 -12 -33 13 1 44 50 39 63 -3 7 -6 4 -6 -6z" transform="translate(0.000000,56.000000) scale(0.100000,-0.100000)" stroke="none" fill="#C0DEE8"/>

<path d="M293 504 c-3 -8 -12 -13 -20 -10 -8 3 -11 1 -8 -4 10 -16 35 -12 35 6 0 10 5 14 16 10 8 -3 12 -2 9 4 -9 15 -25 12 -32 -6z" transform="translate(0.000000,56.000000) scale(0.100000,-0.100000)" stroke="none" fill="#9EC5D3"/>

<path d="M260 441 c5 -11 10 -32 11 -48 0 -27 1 -27 10 -5 6 17 4 30 -7 48 -19 29 -29 32 -14 5z" transform="translate(0.000000,56.000000) scale(0.100000,-0.100000)" stroke="none" fill="#5D9CB3"/>

<path d="M386 476 c4 -11 -2 -26 -16 -42 -13 -13 -21 -24 -19 -24 3 0 18 13 33 28 24 26 25 30 11 42 -13 11 -14 10 -9 -4z" transform="translate(0.000000,56.000000) scale(0.100000,-0.100000)" stroke="none" fill="#C0DEE8"/>

<path d="M107 185 c-49 -58 -43 -57 13 0 24 25 40 45 35 45 -6 -1 -27 -21 -48 -45z" transform="translate(0.000000,56.000000) scale(0.100000,-0.100000)" stroke="none" fill="#C0DEE8"/>

<path d="M24 245 c-3 -8 -3 -18 0 -23 8 -13 46 -22 46 -11 0 5 -9 9 -20 9 -22 0 -28 25 -7 33 9 4 9 6 -1 6 -7 1 -15 -6 -18 -14z" transform="translate(0.000000,56.000000) scale(0.100000,-0.100000)" stroke="none" fill="#9EC5D3"/>

<path d="M100 185 c-14 -15 -30 -23 -40 -20 -12 5 -13 4 -2 -7 10 -10 18 -6 44 20 18 18 30 32 27 32 -3 0 -16 -11 -29 -25z" transform="translate(0.000000,56.000000) scale(0.100000,-0.100000)" stroke="none" fill="#9EC5D3"/>

<path d="M152 478 c-7 -7 -12 -18 -12 -26 0 -7 -4 -10 -10 -7 -5 3 -10 1 -10 -4 0 -21 29 -11 32 12 2 12 9 21 16 19 8 -1 11 2 7 8 -8 13 -8 13 -23 -2z" transform="translate(0.000000,56.000000) scale(0.100000,-0.100000)" stroke="none" fill="#7EAEBD"/>

<path d="M225 69 c-5 -14 -12 -18 -23 -14 -14 5 -15 4 -4 -7 11 -11 16 -9 28 7 9 11 20 19 25 17 6 -1 8 2 4 8 -10 16 -23 12 -30 -11z" transform="translate(0.000000,56.000000) scale(0.100000,-0.100000)" stroke="none" fill="#7EAEBD"/>

<path d="M158 445 c2 -15 0 -25 -7 -25 -16 0 -13 -17 4 -24 12 -4 15 3 15 34 0 22 -4 40 -9 40 -4 0 -6 -11 -3 -25z" transform="translate(0.000000,56.000000) scale(0.100000,-0.100000)" stroke="none" fill="#558DA1"/>

<path d="M370 273 c13 -3 33 -11 44 -19 11 -8 25 -14 31 -14 5 0 -3 9 -20 20 -16 11 -41 19 -55 19 l-25 -2 25 -4z" transform="translate(0.000000,56.000000) scale(0.100000,-0.100000)" stroke="none" fill="#C0DEE8"/>

<path d="M251 118 c-1 -10 -8 -18 -16 -18 -8 0 -15 -8 -15 -17 0 -13 3 -14 8 -6 4 7 18 11 31 8 17 -3 20 -1 13 8 -5 7 -12 19 -15 27 -4 12 -6 11 -6 -2z" transform="translate(0.000000,56.000000) scale(0.100000,-0.100000)" stroke="none" fill="#5D9CB3"/>

<path d="M303 264 c-6 -15 41 -74 60 -74 5 0 -6 12 -23 27 -21 17 -30 32 -27 45 6 22 -1 24 -10 2z" transform="translate(0.000000,56.000000) scale(0.100000,-0.100000)" stroke="none" fill="#7EAEBD"/>

<path d="M140 485 c-7 -8 -21 -15 -31 -15 -10 0 -20 -4 -23 -9 -3 -4 7 -6 22 -3 15 3 31 11 35 18 9 16 33 18 40 4 3 -6 4 -5 3 2 -4 19 -31 21 -46 3z" transform="translate(0.000000,56.000000) scale(0.100000,-0.100000)" stroke="none" fill="#C0DEE8"/>

<path d="M85 450 c-3 -5 -3 -15 1 -21 3 -6 0 -15 -7 -20 -11 -7 -10 -9 5 -9 15 0 17 5 12 26 -6 24 -5 26 18 22 15 -3 26 -1 26 3 0 12 -47 11 -55 -1z" transform="translate(0.000000,56.000000) scale(0.100000,-0.100000)" stroke="none" fill="#9EC5D3"/>

<path d="M424 328 c-4 -5 -1 -14 6 -18 7 -4 10 -15 7 -23 -3 -9 0 -21 8 -27 11 -10 13 -7 9 14 -2 14 0 26 5 26 14 0 2 27 -14 34 -8 3 -17 0 -21 -6z" transform="translate(0.000000,56.000000) scale(0.100000,-0.100000)" stroke="none" fill="#5D9CB3"/>

<path d="M290 521 c-8 -6 -18 -7 -22 -5 -4 3 -8 1 -8 -5 0 -20 22 -23 36 -5 14 18 15 18 30 -3 9 -13 20 -23 25 -23 5 0 -1 11 -13 25 -24 28 -27 29 -48 16z" transform="translate(0.000000,56.000000) scale(0.100000,-0.100000)" stroke="none" fill="#C0DEE8"/>

<path d="M419 363 c-18 -21 -42 -41 -53 -45 l-21 -6 21 -1 c13 -1 33 14 53 39 18 23 37 37 43 34 7 -4 8 -2 4 4 -10 16 -10 16 -47 -25z" transform="translate(0.000000,56.000000) scale(0.100000,-0.100000)" stroke="none" fill="#7EAEBD"/>

<path d="M431 362 c-23 -33 -25 -72 -3 -80 6 -2 12 3 12 12 0 9 -4 16 -10 16 -16 0 -12 14 11 38 11 13 19 28 17 34 -2 6 -14 -3 -27 -20z" transform="translate(0.000000,56.000000) scale(0.100000,-0.100000)" stroke="none" fill="#558DA1"/>

<path d="M290 205 c0 -5 6 -16 14 -24 8 -9 18 -41 23 -71 7 -45 12 -55 28 -56 13 -1 14 0 4 3 -11 3 -19 20 -23 55 -4 28 -16 62 -27 76 -10 14 -19 21 -19 17z" transform="translate(0.000000,56.000000) scale(0.100000,-0.100000)" stroke="none" fill="#C0DEE8"/>

<path d="M300 489 c0 -17 -4 -20 -22 -16 -22 6 -22 6 2 -13 31 -24 54 -25 71 -2 11 14 11 15 -1 5 -22 -20 -30 -15 -30 17 0 17 -4 30 -10 30 -5 0 -10 -10 -10 -21z" transform="translate(0.000000,56.000000) scale(0.100000,-0.100000)" stroke="none" fill="#5D9CB3"/>

<path d="M71 275 c2 -5 -3 -21 -10 -34 -7 -13 -8 -20 -2 -17 5 4 15 -3 21 -14 6 -11 15 -18 20 -15 15 9 32 45 22 45 -6 0 -13 -10 -17 -22 -7 -20 -9 -19 -12 12 -3 19 -9 40 -14 45 -7 7 -9 7 -8 0z" transform="translate(0.000000,56.000000) scale(0.100000,-0.100000)" stroke="none" fill="#5D9CB3"/>

<path d="M370 178 c0 -5 6 -8 13 -8 7 0 13 -9 13 -20 0 -13 -7 -20 -18 -20 -10 0 -18 -5 -18 -11 0 -5 5 -7 10 -4 6 4 17 2 25 -5 11 -9 13 -6 11 15 -2 17 3 29 15 35 24 13 32 13 23 -2 -4 -7 -3 -8 5 -4 6 4 9 11 6 16 -6 10 -85 18 -85 8z" transform="translate(0.000000,56.000000) scale(0.100000,-0.100000)" stroke="none" fill="#5D9CB3"/>

<path d="M183 120 c-18 -11 -33 -24 -33 -30 0 -13 17 -13 25 0 3 6 13 10 22 10 11 0 14 -7 11 -25 -3 -14 -1 -25 3 -25 5 0 9 11 9 25 0 16 6 25 15 25 8 0 15 9 15 20 0 26 -25 26 -67 0z" transform="translate(0.000000,56.000000) scale(0.100000,-0.100000)" stroke="none" fill="#558DA1"/>

<path d="M270 125 c1 -5 7 -19 15 -29 8 -11 15 -28 15 -38 0 -23 -36 -24 -45 0 -6 16 -7 16 -16 0 -6 -10 -18 -18 -28 -18 -22 0 -36 26 -18 34 7 2 -2 2 -20 -1 -25 -4 -32 -1 -36 13 -3 13 -5 10 -6 -9 -1 -24 2 -27 23 -21 16 4 25 1 29 -10 7 -18 42 -22 52 -6 4 6 13 5 24 -2 23 -14 51 -4 51 19 0 10 -9 32 -20 48 -11 17 -20 26 -20 20z" transform="translate(0.000000,56.000000) scale(0.100000,-0.100000)" stroke="none" fill="#C0DEE8"/>

<path d="M40 302 c0 -5 11 -14 25 -20 29 -14 35 -64 10 -89 -9 -8 -13 -18 -10 -22 7 -7 44 39 45 55 0 7 20 17 45 23 56 14 59 26 5 17 -34 -5 -46 -2 -74 19 -35 26 -46 30 -46 17z" transform="translate(0.000000,56.000000) scale(0.100000,-0.100000)" stroke="none" fill="#558DA1"/>

<path d="M168 434 c3 -37 2 -43 -12 -38 -18 7 -22 24 -6 24 6 0 9 10 9 23 -1 16 -2 18 -6 5 -5 -19 -33 -25 -33 -8 0 6 -4 10 -10 10 -14 0 -12 -27 3 -34 8 -3 7 -8 -6 -16 -24 -15 -13 -28 20 -24 24 4 25 3 8 -5 -17 -8 -15 -10 15 -10 l35 -1 -3 52 c-2 29 -7 56 -10 60 -4 4 -5 -13 -4 -38z" transform="translate(0.000000,56.000000) scale(0.100000,-0.100000)" stroke="none" fill="#5D9CB3"/>

<path d="M158 330 c17 -11 32 -24 32 -30 0 -17 -57 -11 -95 10 -20 11 -42 20 -50 20 -19 0 -34 -28 -28 -51 3 -11 0 -25 -6 -33 -8 -10 -6 -17 11 -32 18 -15 20 -16 9 -2 -16 21 -8 48 14 48 8 0 15 5 15 10 0 6 -7 10 -15 10 -8 0 -15 9 -15 20 0 11 7 20 15 20 8 0 30 -9 50 -20 39 -22 90 -26 101 -8 8 12 -39 58 -59 58 -7 0 3 -9 21 -20z" transform="translate(0.000000,56.000000) scale(0.100000,-0.100000)" stroke="none" fill="#C0DEE8"/>

<path d="M240 490 c0 -6 11 -26 24 -43 23 -30 24 -35 12 -81 -8 -32 -20 -52 -32 -57 -18 -7 -17 -8 3 -8 21 -1 43 39 43 80 0 11 17 29 39 43 40 26 59 46 43 46 -5 0 -15 -7 -22 -15 -19 -23 -46 -18 -79 16 -17 17 -31 25 -31 19z" transform="translate(0.000000,56.000000) scale(0.100000,-0.100000)" stroke="none" fill="#558DA1"/>

<path d="M318 297 c-49 -14 -51 -46 -5 -88 34 -32 34 -31 36 -96 0 -24 5 -43 9 -43 5 0 7 13 4 30 -3 24 -1 30 15 30 12 0 19 7 19 20 0 11 -6 20 -13 20 -7 0 -13 5 -13 10 0 6 -4 10 -9 10 -17 0 -71 54 -71 71 0 18 27 29 73 29 15 0 27 5 27 10 0 12 -22 11 -72 -3z" transform="translate(0.000000,56.000000) scale(0.100000,-0.100000)" stroke="none" fill="#558DA1"/>

<path d="M261 343 c-1 -21 -20 -30 -54 -24 -4 1 -2 -8 5 -19 7 -11 21 -20 30 -20 10 0 18 -4 18 -10 0 -13 -23 -13 -37 1 -6 6 -17 9 -25 7 -8 -3 -2 -10 16 -19 18 -8 31 -24 33 -38 5 -32 13 -40 13 -13 0 24 7 27 30 13 20 -13 34 -2 19 15 -6 7 -9 21 -5 29 3 8 0 15 -5 15 -7 0 -9 -11 -7 -25 3 -14 1 -25 -3 -25 -5 0 -9 14 -9 31 0 30 0 30 48 25 l47 -5 -47 11 c-41 9 -49 14 -57 42 -7 24 -9 26 -10 9z m9 -33 c0 -5 -10 -10 -22 -9 -22 0 -22 1 -3 9 11 5 21 9 23 9 1 1 2 -3 2 -9z" transform="translate(0.000000,56.000000) scale(0.100000,-0.100000)" stroke="none" fill="#5D9CB3"/>

</svg>