<?xml version="1.0" standalone="no"?>
<!DOCTYPE svg PUBLIC "-//W3C//DTD SVG 20010904//EN"
 "http://www.w3.org/TR/2001/REC-SVG-20010904/DTD/svg10.dtd">
<svg version="1.0" xmlns="http://www.w3.org/2000/svg" 
width="126.000000pt" height="168.000000pt" viewBox="0 0 126.000000 168.000000"
preserveAspectRatio = "xMidYMid meet" >
<metadata>
Created by ZoeQU, 2022
</metadata>
<rect width="126.000000" height="168.000000" fill="#10212D"/>
<path d="M475 1600 c-33 -11 -69 -24 -80 -29 -11 -5 -42 -17 -70 -27 -76 -26 -227 -99 -254 -121 -20 -16 -23 -25 -17 -55 9 -52 46 -99 86 -114 24 -8 104 -13 248 -13 l212 -1 1 -127 c0 -71 3 -188 5 -261 3 -73 0 -197 -6 -275 -23 -303 -24 -379 -7 -420 15 -34 19 -37 55 -37 55 0 68 28 65 139 -6 183 -24 531 -34 636 -6 61 -13 162 -15 226 l-5 116 43 6 c24 3 115 9 203 12 223 10 228 11 267 90 l32 64 -24 27 c-46 48 -166 98 -355 145 -158 40 -269 46 -350 19z" transform="translate(0.000000,168.000000) scale(0.100000,-0.100000)" stroke="none" fill="#D3AD63"/>

</svg>