<?xml version="1.0" standalone="no"?>
<!DOCTYPE svg PUBLIC "-//W3C//DTD SVG 20010904//EN"
 "http://www.w3.org/TR/2001/REC-SVG-20010904/DTD/svg10.dtd">
<svg version="1.0" xmlns="http://www.w3.org/2000/svg" 
width="44.000000pt" height="62.000000pt" viewBox="0 0 44.000000 62.000000"
preserveAspectRatio = "xMidYMid meet" >
<metadata>
Created by ZoeQU, 2022
</metadata>
<rect width="44.000000" height="62.000000" fill="#CAA4ED"/>
<path d="M0 223 c0 -28 3 -34 10 -23 13 20 13 60 0 60 -5 0 -10 -17 -10 -37z" transform="translate(0.000000,62.000000) scale(0.100000,-0.100000)" stroke="none" fill="#A7C2D0"/>

<path d="M210 582 c-34 -49 -67 -145 -73 -209 l-4 -52 46 -7 c25 -4 75 -22 111 -40 36 -19 68 -34 72 -34 23 0 40 221 18 235 -5 3 -10 20 -10 36 0 44 -63 109 -104 109 -24 -1 -37 -9 -56 -38z m99 -18 c12 -15 21 -37 21 -49 0 -12 7 -40 16 -61 19 -45 14 -118 -9 -141 -13 -14 -22 -14 -59 -4 -24 7 -56 15 -73 18 -56 11 -63 40 -25 113 9 20 21 51 25 70 8 41 41 80 66 80 10 0 27 -12 38 -26z" transform="translate(0.000000,62.000000) scale(0.100000,-0.100000)" stroke="none" fill="#A7C2D0"/>

<path d="M233 568 c-12 -13 -24 -39 -28 -58 -4 -19 -16 -50 -25 -70 -38 -73 -31 -102 25 -113 17 -3 49 -11 73 -18 37 -10 46 -10 59 4 23 23 28 96 9 141 -9 21 -16 49 -16 61 0 29 -36 75 -59 75 -10 0 -27 -10 -38 -22z" transform="translate(0.000000,62.000000) scale(0.100000,-0.100000)" stroke="none" fill="#91DDB0"/>

<path d="M68 305 c-40 -22 -44 -54 -15 -111 30 -58 50 -76 130 -117 40 -21 79 -32 116 -35 49 -3 59 0 83 23 36 34 42 62 24 107 -40 94 -256 179 -338 133z" transform="translate(0.000000,62.000000) scale(0.100000,-0.100000)" stroke="none" fill="#5585D5"/>

</svg>