<?xml version="1.0" standalone="no"?>
<!DOCTYPE svg PUBLIC "-//W3C//DTD SVG 20010904//EN"
 "http://www.w3.org/TR/2001/REC-SVG-20010904/DTD/svg10.dtd">
<svg version="1.0" xmlns="http://www.w3.org/2000/svg" 
width="116.000000pt" height="122.000000pt" viewBox="0 0 116.000000 122.000000"
preserveAspectRatio = "xMidYMid meet" >
<metadata>
Created by ZoeQU, 2022
</metadata>
<rect width="116.000000" height="122.000000" fill="#F4F3EE"/>
<path d="M509 1148 c-1 -7 -1 -32 1 -55 l2 -43 -46 0 c-44 0 -47 -2 -53 -31 l-6 -32 -88 6 c-59 4 -92 2 -103 -6 -19 -14 -35 -169 -19 -189 5 -7 10 -36 11 -65 l2 -52 -38 -10 c-20 -5 -49 -13 -64 -17 -16 -3 -28 -10 -28 -15 0 -4 19 -2 41 6 23 8 49 15 58 15 35 0 45 17 42 76 -1 32 -7 66 -12 76 -6 11 -7 47 -3 87 5 59 10 70 30 80 13 6 29 9 36 7 7 -3 41 -7 75 -10 l63 -6 15 36 c13 33 18 36 42 30 16 -4 42 -8 58 -10 65 -5 152 -70 174 -129 10 -27 13 -28 55 -22 37 6 53 2 98 -20 29 -16 63 -33 75 -39 13 -6 23 -14 23 -18 0 -4 18 -19 39 -32 52 -33 57 -53 28 -125 -28 -70 -23 -86 26 -78 22 3 40 1 46 -6 10 -13 -1 -197 -14 -227 -4 -8 -34 -29 -68 -47 -57 -28 -62 -34 -63 -65 -1 -61 -3 -68 -25 -68 -11 0 -29 5 -40 11 -24 12 -69 -11 -69 -36 0 -8 -10 -23 -22 -35 -17 -15 -30 -19 -54 -14 -18 3 -35 1 -38 -5 -10 -16 -72 -13 -86 4 -8 10 -31 15 -66 15 -42 0 -65 7 -111 34 -32 18 -72 37 -90 40 -34 8 -91 63 -118 117 -16 30 -16 65 -1 100 8 19 -67 119 -89 119 -8 0 -22 14 -31 32 -9 18 -23 39 -31 47 -8 8 -13 25 -10 37 2 13 0 21 -4 18 -16 -10 -9 -47 14 -78 13 -17 26 -39 30 -49 4 -9 17 -21 30 -26 13 -5 36 -26 51 -46 27 -35 28 -39 16 -74 -11 -34 -10 -42 13 -87 31 -58 98 -124 128 -124 12 0 46 -16 75 -35 43 -29 62 -35 106 -35 31 -1 61 -7 72 -15 22 -17 102 -20 111 -5 3 5 19 7 34 4 35 -7 81 20 81 47 0 29 35 42 77 28 32 -10 38 -9 50 7 9 11 13 33 10 54 -4 32 -1 37 38 63 23 15 47 27 52 27 32 0 43 28 53 143 13 140 9 153 -52 143 -45 -7 -47 -1 -18 63 31 67 27 94 -20 131 -38 30 -39 33 -34 78 3 26 14 91 25 144 33 167 24 178 -70 84 -53 -52 -83 -73 -140 -96 -40 -17 -77 -30 -82 -30 -15 0 -54 42 -84 91 -63 100 -112 145 -116 107z" transform="translate(0.000000,122.000000) scale(0.100000,-0.100000)" stroke="none" fill="#AC9489"/>

<path d="M425 1006 l-15 -36 -63 6 c-34 3 -68 7 -75 10 -7 2 -23 -1 -36 -7 -20 -10 -25 -21 -30 -80 -4 -40 -3 -76 3 -87 11 -20 18 -128 9 -137 -5 -5 -107 -34 -138 -39 -20 -4 -25 -40 -7 -58 8 -8 22 -28 31 -46 9 -18 23 -32 31 -32 22 0 97 -100 89 -119 -15 -35 -15 -70 1 -100 27 -54 84 -109 118 -117 18 -3 58 -22 90 -40 46 -27 69 -34 111 -34 35 0 58 -5 66 -15 14 -17 76 -20 86 -4 3 6 20 8 38 5 24 -5 37 -1 54 14 12 12 22 27 22 35 0 25 45 48 69 36 11 -6 29 -11 40 -11 22 0 24 7 25 68 1 31 6 37 63 65 34 18 64 39 68 47 13 30 24 214 14 227 -6 7 -24 9 -46 6 -49 -8 -54 8 -26 78 29 72 24 92 -28 125 -21 13 -39 28 -39 32 0 4 -10 12 -23 18 -12 6 -46 23 -75 39 -45 22 -61 26 -98 20 -42 -6 -45 -5 -55 22 -22 59 -109 124 -174 129 -16 2 -42 6 -58 10 -24 6 -29 3 -42 -30z" transform="translate(0.000000,122.000000) scale(0.100000,-0.100000)" stroke="none" fill="#AE2C42"/>

</svg>