<?xml version="1.0" standalone="no"?>
<!DOCTYPE svg PUBLIC "-//W3C//DTD SVG 20010904//EN"
 "http://www.w3.org/TR/2001/REC-SVG-20010904/DTD/svg10.dtd">
<svg version="1.0" xmlns="http://www.w3.org/2000/svg" 
width="142.000000pt" height="180.000000pt" viewBox="0 0 142.000000 180.000000"
preserveAspectRatio = "xMidYMid meet" >
<metadata>
Created by ZoeQU, 2022
</metadata>
<rect width="142.000000" height="180.000000" fill="#FBFBF9"/>
<path d="M879 1006 c-14 -30 13 -89 39 -84 27 5 46 55 33 84 -14 33 -57 33 -72 0z m51 -31 c0 -8 -4 -15 -10 -15 -5 0 -10 7 -10 15 0 8 5 15 10 15 6 0 10 -7 10 -15z" transform="translate(0.000000,180.000000) scale(0.100000,-0.100000)" stroke="none" fill="#B0D8C5"/>

<path d="M483 1030 c-18 -7 -23 -17 -23 -48 0 -43 14 -62 45 -62 31 0 45 19 45 62 0 27 -5 40 -19 48 -22 11 -19 11 -48 0z m37 -60 c0 -11 -7 -20 -15 -20 -8 0 -15 9 -15 20 0 11 7 20 15 20 8 0 15 -9 15 -20z" transform="translate(0.000000,180.000000) scale(0.100000,-0.100000)" stroke="none" fill="#B0D8C5"/>

<path d="M738 724 c-3 -2 -29 -5 -59 -7 -59 -2 -74 -23 -31 -42 12 -5 25 -18 28 -27 3 -11 15 -18 29 -18 26 0 85 45 85 64 0 13 -44 38 -52 30z" transform="translate(0.000000,180.000000) scale(0.100000,-0.100000)" stroke="none" fill="#B0D8C5"/>

<path d="M502 1788 c-30 -30 10 -108 54 -108 14 0 35 -11 48 -25 20 -22 30 -25 62 -19 92 14 233 -23 333 -89 58 -38 156 -130 168 -158 6 -15 16 -29 21 -33 11 -7 48 -81 89 -181 64 -154 67 -415 7 -602 -30 -95 -129 -260 -182 -307 -7 -6 -28 -24 -46 -41 -91 -84 -225 -135 -355 -135 -47 0 -184 32 -222 52 -13 7 -38 23 -56 36 -17 12 -36 22 -42 22 -6 0 -11 4 -11 10 0 5 -27 36 -59 68 -200 200 -282 598 -179 872 32 84 88 200 98 200 5 0 12 10 16 22 8 25 140 161 191 196 17 12 41 22 52 22 28 0 26 14 -8 70 -16 26 -31 58 -34 71 -3 19 -5 17 -6 -9 0 -20 8 -44 20 -62 23 -30 20 -60 -6 -60 -33 0 -225 -163 -225 -192 0 -4 -17 -33 -38 -65 -21 -32 -44 -78 -52 -103 -8 -25 -20 -55 -27 -66 -28 -45 -53 -234 -47 -354 6 -117 17 -170 55 -282 41 -119 102 -215 198 -309 87 -85 123 -107 239 -146 68 -23 87 -25 178 -20 55 2 109 9 120 14 10 6 55 28 99 49 74 37 120 69 169 121 32 34 79 93 92 117 57 104 84 161 84 177 0 11 5 30 12 42 6 12 15 42 20 67 4 25 11 70 17 101 15 93 -11 340 -46 434 -35 94 -106 220 -157 276 -49 56 -144 124 -223 162 -76 36 -90 39 -190 44 -61 3 -122 11 -140 19 -17 8 -37 14 -45 14 -7 0 -22 12 -32 27 -16 21 -17 29 -7 45 14 23 10 33 -7 16z" transform="translate(0.000000,180.000000) scale(0.100000,-0.100000)" stroke="none" fill="#B0D8C5"/>

<path d="M453 1782 c-15 -25 -5 -68 29 -123 33 -55 35 -69 7 -69 -11 0 -35 -10 -52 -22 -51 -35 -183 -171 -191 -196 -4 -12 -11 -22 -16 -22 -10 0 -66 -116 -98 -200 -103 -274 -21 -672 179 -872 32 -32 59 -63 59 -68 0 -6 5 -10 11 -10 6 0 25 -10 42 -22 18 -13 43 -29 56 -36 38 -20 175 -52 222 -52 130 0 264 51 355 135 18 17 39 35 46 41 53 47 152 212 182 307 60 187 57 448 -7 602 -41 100 -78 174 -89 181 -5 4 -15 18 -21 33 -12 28 -110 120 -168 158 -100 66 -241 103 -333 89 -32 -6 -42 -3 -62 19 -13 14 -34 25 -48 25 -44 0 -84 78 -54 108 9 9 7 12 -13 12 -13 0 -29 -8 -36 -18z m78 -752 c14 -8 19 -21 19 -48 0 -43 -14 -62 -45 -62 -31 0 -45 19 -45 62 0 31 5 41 23 48 29 11 26 11 48 0z m420 -24 c13 -29 -6 -79 -33 -84 -26 -5 -53 54 -39 84 15 33 58 33 72 0z m-161 -312 c0 -19 -59 -64 -85 -64 -14 0 -26 7 -29 18 -3 9 -16 22 -28 27 -43 19 -28 40 31 42 30 2 56 5 59 7 8 8 52 -17 52 -30z" transform="translate(0.000000,180.000000) scale(0.100000,-0.100000)" stroke="none" fill="#69BA9B"/>

</svg>