<?xml version="1.0" standalone="no"?>
<!DOCTYPE svg PUBLIC "-//W3C//DTD SVG 20010904//EN"
 "http://www.w3.org/TR/2001/REC-SVG-20010904/DTD/svg10.dtd">
<svg version="1.0" xmlns="http://www.w3.org/2000/svg" 
width="36.000000pt" height="120.000000pt" viewBox="0 0 36.000000 120.000000"
preserveAspectRatio = "xMidYMid meet" >
<metadata>
Created by ZoeQU, 2022
</metadata>
<rect width="36.000000" height="120.000000" fill="#10212D"/>
<path d="M122 1123 c-55 -46 -116 -247 -93 -305 9 -24 17 -28 51 -29 22 -1 50 -1 63 -2 83 -3 124 54 107 151 -12 72 -35 154 -50 181 -13 26 -50 27 -78 4z" transform="translate(0.000000,120.000000) scale(0.100000,-0.100000)" stroke="none" fill="#D2582E"/>

<path d="M130 785 c0 -3 11 -45 24 -93 37 -136 46 -182 56 -277 12 -110 12 -235 1 -293 -8 -40 -7 -44 16 -53 43 -16 81 -11 97 14 17 27 14 164 -8 282 -13 72 -75 252 -97 281 -5 6 -19 40 -33 75 -14 37 -31 65 -40 67 -9 2 -16 1 -16 -3z" transform="translate(0.000000,120.000000) scale(0.100000,-0.100000)" stroke="none" fill="#DDD1B8"/>

</svg>