<?xml version="1.0" standalone="no"?>
<!DOCTYPE svg PUBLIC "-//W3C//DTD SVG 20010904//EN"
 "http://www.w3.org/TR/2001/REC-SVG-20010904/DTD/svg10.dtd">
<svg version="1.0" xmlns="http://www.w3.org/2000/svg" 
width="96.000000pt" height="142.000000pt" viewBox="0 0 96.000000 142.000000"
preserveAspectRatio = "xMidYMid meet" >
<metadata>
Created by ZoeQU, 2022
</metadata>
<rect width="96.000000" height="142.000000" fill="#CBA3EF"/>
<path d="M800 1145 c0 -46 -14 -83 -37 -98 -7 -4 -13 -12 -13 -17 0 -21 26 -8 48 23 16 24 22 48 22 85 0 29 -4 52 -10 52 -5 0 -10 -20 -10 -45z" transform="translate(0.000000,142.000000) scale(0.100000,-0.100000)" stroke="none" fill="#CD6964"/>

<path d="M270 94 c0 -25 60 -74 92 -74 18 0 7 50 -14 64 -21 15 -78 22 -78 10z" transform="translate(0.000000,142.000000) scale(0.100000,-0.100000)" stroke="none" fill="#CD6964"/>

<path d="M820 872 c0 -5 12 -15 26 -22 29 -16 54 -58 54 -93 0 -50 -68 -90 -116 -68 -28 12 -32 4 -6 -15 24 -18 63 -17 92 2 40 27 50 45 50 90 0 35 -6 49 -34 78 -31 33 -66 48 -66 28z" transform="translate(0.000000,142.000000) scale(0.100000,-0.100000)" stroke="none" fill="#CD6964"/>

<path d="M680 1227 c-14 -7 -32 -19 -40 -27 -26 -26 -100 -156 -100 -175 0 -3 4 -5 9 -5 5 0 19 19 31 43 43 85 52 97 83 121 46 35 83 42 108 20 14 -12 23 -14 30 -7 8 8 4 15 -12 27 -27 19 -73 20 -109 3z" transform="translate(0.000000,142.000000) scale(0.100000,-0.100000)" stroke="none" fill="#CD6964"/>

<path d="M397 1322 c-10 -10 -17 -26 -17 -35 0 -9 -4 -19 -10 -22 -5 -3 -10 -26 -10 -50 0 -24 5 -47 10 -50 6 -4 10 8 10 30 0 39 24 105 43 117 23 15 54 8 77 -17 19 -20 24 -40 30 -112 6 -74 8 -80 11 -38 7 107 -7 175 -38 175 -7 0 -13 5 -13 10 0 18 -76 11 -93 -8z" transform="translate(0.000000,142.000000) scale(0.100000,-0.100000)" stroke="none" fill="#CD6964"/>

<path d="M82 1085 c-30 -38 -30 -104 1 -133 32 -30 90 -52 136 -52 22 0 43 -4 46 -10 3 -5 24 -10 45 -10 21 0 42 5 45 10 4 6 -10 10 -34 10 -22 0 -50 4 -63 9 -13 5 -45 14 -71 20 -101 24 -138 88 -82 141 20 19 31 22 68 17 39 -6 148 -55 172 -78 21 -21 24 -7 3 15 -40 42 -114 75 -181 82 -61 6 -65 5 -85 -21z" transform="translate(0.000000,142.000000) scale(0.100000,-0.100000)" stroke="none" fill="#CD6964"/>

<path d="M380 255 c0 -8 5 -15 10 -15 6 0 10 -4 10 -9 0 -6 -21 -11 -47 -13 -44 -3 -48 -5 -51 -31 -5 -42 54 -97 103 -97 31 0 65 46 65 90 0 22 -4 40 -8 40 -5 0 -22 11 -38 25 -33 29 -44 31 -44 10z" transform="translate(0.000000,142.000000) scale(0.100000,-0.100000)" stroke="none" fill="#F2D791"/>

<path d="M551 209 c-30 -16 -61 -27 -68 -25 -7 3 -13 -1 -13 -8 0 -20 73 -55 137 -67 48 -9 60 -8 99 12 54 26 73 57 56 94 -11 23 -16 25 -84 24 -61 -1 -82 -6 -127 -30z" transform="translate(0.000000,142.000000) scale(0.100000,-0.100000)" stroke="none" fill="#CD6964"/>

<path d="M423 1312 c-32 -20 -57 -143 -34 -167 4 -6 14 -32 21 -60 17 -64 26 -75 61 -75 24 0 29 4 29 23 0 25 32 62 43 50 4 -3 6 11 6 33 -1 37 -2 38 -8 9 -5 -22 -9 -6 -12 57 -5 74 -9 92 -29 113 -23 25 -54 32 -77 17z" transform="translate(0.000000,142.000000) scale(0.100000,-0.100000)" stroke="none" fill="#F2D791"/>

<path d="M103 1068 c-52 -55 -15 -116 84 -139 26 -6 58 -15 71 -20 13 -5 45 -9 72 -9 40 0 49 3 48 18 0 9 2 24 6 32 15 35 -130 127 -214 137 -38 4 -48 2 -67 -19z" transform="translate(0.000000,142.000000) scale(0.100000,-0.100000)" stroke="none" fill="#F2D791"/>

<path d="M333 806 c-23 -6 -48 -17 -55 -24 -6 -6 -17 -12 -23 -12 -6 0 -30 -16 -52 -35 -60 -51 -67 -116 -14 -137 21 -9 23 -12 9 -15 -20 -5 -22 -12 -9 -32 7 -11 17 -12 42 -5 42 12 55 40 14 30 -25 -6 -27 -5 -16 8 8 9 21 16 31 16 27 0 101 72 139 134 27 46 31 59 21 71 -14 17 -27 17 -87 1z" transform="translate(0.000000,142.000000) scale(0.100000,-0.100000)" stroke="none" fill="#F2D791"/>

<path d="M504 793 c-16 -3 -22 -16 -32 -74 -15 -85 -15 -136 -2 -144 6 -3 10 -14 10 -24 0 -19 44 -64 73 -74 42 -15 87 33 87 92 0 47 -83 232 -103 230 -7 -1 -21 -4 -33 -6z" transform="translate(0.000000,142.000000) scale(0.100000,-0.100000)" stroke="none" fill="#F2D791"/>

<path d="M695 1204 c-38 -20 -65 -44 -77 -69 -5 -11 -22 -44 -38 -74 l-29 -53 30 -38 30 -38 25 23 c14 13 38 28 54 35 17 7 30 16 30 21 0 5 5 9 10 9 12 0 40 29 58 58 6 12 12 42 12 67 0 25 5 45 10 45 6 0 10 -18 10 -40 0 -40 13 -53 24 -24 10 26 7 59 -8 80 -15 19 -15 19 -29 -1 -14 -19 -16 -19 -34 -2 -24 21 -39 21 -78 1z" transform="translate(0.000000,142.000000) scale(0.100000,-0.100000)" stroke="none" fill="#F2D791"/>

<path d="M599 871 c-6 -20 -16 -42 -21 -48 -7 -9 -5 -15 8 -19 38 -12 68 -30 108 -64 46 -41 112 -66 145 -55 31 10 61 45 61 72 0 37 -25 77 -57 92 -15 7 -36 17 -45 22 -10 5 -27 9 -39 9 -11 0 -28 4 -37 9 -9 4 -38 11 -64 13 -47 5 -47 5 -59 -31z" transform="translate(0.000000,142.000000) scale(0.100000,-0.100000)" stroke="none" fill="#F2D791"/>

<path d="M560 785 c0 -8 8 -29 18 -47 32 -59 62 -140 62 -169 0 -59 -45 -107 -87 -92 -29 10 -73 55 -73 74 0 10 -4 21 -10 24 -5 3 -10 33 -10 66 0 42 -3 58 -11 53 -8 -4 -10 -31 -6 -78 5 -70 -8 -117 -38 -138 -5 -4 -10 -47 -10 -96 0 -143 29 -156 123 -59 42 45 62 74 67 99 5 24 14 38 26 41 28 7 52 73 46 124 -2 24 -22 82 -43 128 -37 81 -54 103 -54 70z" transform="translate(0.000000,142.000000) scale(0.100000,-0.100000)" stroke="none" fill="#CD6964"/>

<path d="M418 987 c-36 -30 -45 -54 -42 -103 3 -36 0 -43 -22 -53 -14 -6 -32 -11 -40 -11 -30 0 -113 -50 -143 -87 -25 -30 -31 -47 -31 -84 0 -52 16 -73 52 -67 23 4 23 4 -3 15 -53 23 -46 87 14 138 22 19 45 35 51 35 5 0 17 6 25 13 9 7 40 19 69 26 47 12 56 11 69 -2 13 -13 13 -18 -1 -46 -9 -17 -12 -31 -7 -31 5 0 11 7 15 15 3 8 12 15 21 15 8 0 15 -7 15 -15 0 -8 5 -15 10 -15 6 0 10 13 10 29 0 25 5 30 34 35 46 9 73 33 84 76 l8 35 55 -3 c30 -2 58 -8 64 -13 11 -11 65 -12 65 -1 0 8 -92 32 -123 32 -25 0 -21 17 8 36 14 9 22 20 19 25 -6 11 -64 -20 -71 -38 -8 -19 -21 -16 -28 8 -18 55 -128 78 -177 36z" transform="translate(0.000000,142.000000) scale(0.100000,-0.100000)" stroke="none" fill="#CD6964"/>

</svg>