<?xml version="1.0" standalone="no"?>
<!DOCTYPE svg PUBLIC "-//W3C//DTD SVG 20010904//EN"
 "http://www.w3.org/TR/2001/REC-SVG-20010904/DTD/svg10.dtd">
<svg version="1.0" xmlns="http://www.w3.org/2000/svg" 
width="96.000000pt" height="60.000000pt" viewBox="0 0 96.000000 60.000000"
preserveAspectRatio = "xMidYMid meet" >
<metadata>
Created by ZoeQU, 2022
</metadata>
<rect width="96.000000" height="60.000000" fill="#6A194C"/>
<path d="M680 533 c-8 -2 -24 -8 -35 -13 -11 -5 -27 -11 -35 -13 -9 -4 -7 -6 7 -6 12 -1 25 4 28 9 3 6 15 10 25 10 10 0 22 5 25 10 3 6 5 10 3 9 -2 0 -10 -3 -18 -6z" transform="translate(0.000000,60.000000) scale(0.100000,-0.100000)" stroke="none" fill="#923945"/>

<path d="M476 204 c-6 -15 -4 -15 11 -3 15 13 16 12 10 -11 -6 -24 -5 -24 8 -6 8 11 15 23 15 28 0 15 -38 8 -44 -8z" transform="translate(0.000000,60.000000) scale(0.100000,-0.100000)" stroke="none" fill="#C35C3D"/>

<path d="M547 482 c-9 -10 -19 -34 -22 -53 -5 -33 -5 -32 8 6 7 24 22 45 37 52 16 8 19 13 9 13 -9 0 -23 -8 -32 -18z" transform="translate(0.000000,60.000000) scale(0.100000,-0.100000)" stroke="none" fill="#923945"/>

<path d="M730 500 c30 -4 64 -10 75 -14 13 -5 11 -2 -5 8 -15 9 -46 15 -75 14 l-50 -1 55 -7z" transform="translate(0.000000,60.000000) scale(0.100000,-0.100000)" stroke="none" fill="#C35C3D"/>

<path d="M901 540 c24 -21 48 -39 52 -40 5 0 -13 18 -38 40 -60 52 -71 52 -14 0z" transform="translate(0.000000,60.000000) scale(0.100000,-0.100000)" stroke="none" fill="#C35C3D"/>

<path d="M580 271 c0 -4 10 -16 22 -27 19 -15 20 -16 9 -1 -7 9 -9 17 -3 17 5 0 17 -10 26 -22 16 -23 16 -23 6 -1 -14 30 -60 56 -60 34z" transform="translate(0.000000,60.000000) scale(0.100000,-0.100000)" stroke="none" fill="#923945"/>

<path d="M296 163 c3 -12 1 -24 -5 -27 -16 -10 -14 -39 5 -62 14 -18 15 -18 4 4 -9 18 -9 31 1 53 8 22 9 33 1 41 -8 8 -9 5 -6 -9z" transform="translate(0.000000,60.000000) scale(0.100000,-0.100000)" stroke="none" fill="#C35C3D"/>

<path d="M244 178 l-19 -23 23 20 c20 16 25 17 33 5 5 -8 7 -24 5 -34 -4 -14 -2 -16 6 -8 9 9 8 18 0 37 -14 31 -23 31 -48 3z" transform="translate(0.000000,60.000000) scale(0.100000,-0.100000)" stroke="none" fill="#923945"/>

<path d="M221 286 c-6 -8 -11 -18 -10 -22 3 -19 -2 -29 -9 -18 -5 8 -14 3 -26 -15 -20 -26 -20 -26 0 -8 12 9 23 15 26 12 3 -3 13 5 24 17 10 12 13 18 7 14 -16 -9 -17 6 -1 22 7 7 9 12 6 12 -3 0 -11 -6 -17 -14z" transform="translate(0.000000,60.000000) scale(0.100000,-0.100000)" stroke="none" fill="#923945"/>

<path d="M536 198 c-12 -37 -14 -64 -8 -75 4 -7 8 6 9 29 2 51 10 59 33 31 10 -13 22 -23 26 -23 4 0 -3 11 -16 25 -26 28 -39 31 -44 13z" transform="translate(0.000000,60.000000) scale(0.100000,-0.100000)" stroke="none" fill="#C35C3D"/>

<path d="M363 503 c-13 -8 -23 -24 -23 -34 0 -10 -4 -21 -10 -24 -5 -3 -9 -16 -9 -28 1 -20 2 -21 6 -2 3 11 18 39 34 63 15 23 27 42 26 41 -1 0 -12 -7 -24 -16z" transform="translate(0.000000,60.000000) scale(0.100000,-0.100000)" stroke="none" fill="#923945"/>

<path d="M684 399 c14 -19 37 -41 50 -49 14 -7 27 -22 29 -34 l4 -21 2 21 c0 14 -9 28 -26 39 -16 10 -41 32 -56 49 l-28 31 25 -36z" transform="translate(0.000000,60.000000) scale(0.100000,-0.100000)" stroke="none" fill="#923945"/>

<path d="M641 448 c20 -40 59 -87 81 -99 12 -7 6 4 -15 25 -20 20 -44 50 -52 66 -9 17 -18 30 -21 30 -2 0 1 -10 7 -22z" transform="translate(0.000000,60.000000) scale(0.100000,-0.100000)" stroke="none" fill="#C35C3D"/>

<path d="M806 441 c-12 -13 -16 -30 -13 -53 l4 -33 1 36 c1 22 8 39 17 42 19 8 31 -13 14 -24 -11 -7 -10 -9 4 -9 20 0 22 18 3 42 -12 17 -14 17 -30 -1z" transform="translate(0.000000,60.000000) scale(0.100000,-0.100000)" stroke="none" fill="#923945"/>

<path d="M378 503 c-25 -31 -48 -72 -47 -85 0 -7 4 -3 9 10 5 12 14 22 19 22 5 0 14 13 19 29 8 21 18 31 39 34 27 4 27 4 2 6 -14 0 -33 -7 -41 -16z" transform="translate(0.000000,60.000000) scale(0.100000,-0.100000)" stroke="none" fill="#C35C3D"/>

<path d="M850 571 c0 -6 -10 -12 -22 -12 -21 -1 -21 -2 -3 -6 11 -3 29 -12 40 -22 19 -15 19 -15 6 2 -26 33 -3 29 37 -7 22 -20 42 -36 46 -36 3 0 -11 15 -31 33 -61 53 -73 61 -73 48z" transform="translate(0.000000,60.000000) scale(0.100000,-0.100000)" stroke="none" fill="#923945"/>

<path d="M850 590 c0 -5 4 -10 10 -10 5 0 28 -16 50 -36 53 -48 65 -35 15 16 -37 37 -75 53 -75 30z" transform="translate(0.000000,60.000000) scale(0.100000,-0.100000)" stroke="none" fill="#EC7D35"/>

<path d="M154 519 c-3 -6 -1 -16 5 -22 19 -19 12 -42 -25 -93 l-35 -49 35 40 c42 46 53 79 36 100 -7 9 -9 19 -5 23 4 4 10 1 12 -5 3 -7 14 -13 26 -13 19 0 19 2 -7 15 -34 18 -33 18 -42 4z" transform="translate(0.000000,60.000000) scale(0.100000,-0.100000)" stroke="none" fill="#923945"/>

<path d="M538 163 c0 -10 0 -29 1 -42 2 -20 -10 -57 -26 -80 -2 -3 -15 6 -29 20 -26 24 -26 24 -15 2 6 -13 13 -23 16 -23 2 0 10 -3 18 -6 21 -8 46 49 46 104 0 41 -7 59 -11 25z" transform="translate(0.000000,60.000000) scale(0.100000,-0.100000)" stroke="none" fill="#923945"/>

<path d="M620 356 c0 -8 7 -22 16 -30 22 -22 31 -20 11 2 -38 42 -8 43 40 2 41 -37 74 -40 72 -7 -1 16 -2 18 -6 5 -7 -26 -28 -22 -66 12 -37 32 -67 39 -67 16z" transform="translate(0.000000,60.000000) scale(0.100000,-0.100000)" stroke="none" fill="#C35C3D"/>

<path d="M573 295 c-3 -9 -3 -19 1 -22 3 -4 6 1 6 10 0 26 13 20 44 -23 33 -45 38 -47 56 -25 11 13 11 20 0 40 -7 14 -15 23 -18 20 -3 -2 0 -11 7 -18 11 -14 6 -47 -8 -47 -3 0 -19 18 -35 40 -32 43 -43 48 -53 25z" transform="translate(0.000000,60.000000) scale(0.100000,-0.100000)" stroke="none" fill="#C35C3D"/>

<path d="M241 284 c0 -11 -10 -29 -21 -39 -12 -11 -20 -31 -20 -52 0 -38 18 -43 45 -13 11 12 25 18 34 15 13 -5 13 -4 4 6 -10 10 -17 8 -36 -9 -13 -12 -26 -22 -30 -22 -16 0 -5 55 14 76 12 12 19 30 16 41 -4 16 -5 15 -6 -3z" transform="translate(0.000000,60.000000) scale(0.100000,-0.100000)" stroke="none" fill="#C35C3D"/>

<path d="M789 549 c64 -11 84 -24 75 -51 -3 -11 1 -27 9 -36 8 -9 17 -28 20 -42 l4 -25 2 26 c0 15 -6 32 -14 39 -18 15 -19 37 -2 43 8 3 3 11 -13 23 -32 24 -57 32 -100 32 -26 0 -21 -3 19 -9z" transform="translate(0.000000,60.000000) scale(0.100000,-0.100000)" stroke="none" fill="#C35C3D"/>

<path d="M160 510 c0 -12 10 -16 63 -25 40 -6 60 -34 61 -85 1 -18 7 -25 20 -25 11 0 20 6 22 13 1 7 0 8 -3 2 -10 -20 -34 -10 -32 13 2 12 -3 36 -10 54 -11 27 -19 33 -57 39 -24 3 -44 10 -44 15 0 5 -4 9 -10 9 -5 0 -10 -5 -10 -10z" transform="translate(0.000000,60.000000) scale(0.100000,-0.100000)" stroke="none" fill="#C35C3D"/>

<path d="M385 180 c-16 -18 -17 -23 -5 -45 13 -24 11 -28 -21 -59 -19 -18 -41 -36 -49 -39 -13 -5 -13 -6 0 -6 9 -1 33 17 55 39 36 37 38 41 25 64 -15 29 -1 56 30 56 22 0 31 -22 24 -59 -3 -16 -2 -31 2 -34 11 -6 11 73 1 91 -12 18 -42 15 -62 -8z" transform="translate(0.000000,60.000000) scale(0.100000,-0.100000)" stroke="none" fill="#923945"/>

<path d="M177 457 c-4 -15 -33 -52 -64 -82 -41 -41 -53 -59 -45 -67 14 -14 62 5 88 33 23 26 37 24 30 -3 l-6 -23 12 23 c14 27 3 41 -20 24 -46 -33 -78 -52 -89 -52 -22 0 -14 20 15 37 33 19 96 107 90 125 -3 7 -8 1 -11 -15z" transform="translate(0.000000,60.000000) scale(0.100000,-0.100000)" stroke="none" fill="#C35C3D"/>

<path d="M646 511 c-3 -4 -23 -11 -44 -15 -48 -7 -62 -23 -69 -76 -6 -41 -33 -58 -33 -21 0 11 -7 32 -14 48 -8 15 -18 37 -21 47 -3 10 -8 16 -11 14 -3 -3 3 -23 12 -44 10 -22 21 -50 24 -64 3 -16 12 -25 25 -25 15 0 21 10 27 44 10 56 18 64 70 67 24 1 41 5 40 9 -2 4 2 12 10 16 9 6 9 9 1 9 -6 0 -14 -4 -17 -9z" transform="translate(0.000000,60.000000) scale(0.100000,-0.100000)" stroke="none" fill="#C35C3D"/>

<path d="M376 184 c-26 -27 -33 -44 -17 -44 5 0 11 -6 14 -14 6 -14 -39 -69 -64 -79 -11 -4 -11 -6 1 -6 8 0 30 15 49 34 32 32 34 36 21 60 -12 22 -11 27 5 45 37 41 81 11 69 -47 -4 -21 0 -36 16 -53 l21 -25 -17 27 c-10 18 -14 37 -10 54 8 32 -16 74 -43 74 -10 0 -30 -12 -45 -26z" transform="translate(0.000000,60.000000) scale(0.100000,-0.100000)" stroke="none" fill="#C35C3D"/>

<path d="M720 536 c-14 -8 -36 -19 -50 -24 -19 -8 -12 -9 32 -5 34 3 69 1 85 -6 30 -12 78 -85 68 -101 -8 -13 -35 -13 -35 0 0 6 -4 10 -8 10 -10 0 -9 -30 2 -48 20 -32 76 9 76 57 0 16 -7 34 -16 42 -9 7 -13 21 -10 35 3 12 0 27 -8 33 -22 18 -107 22 -136 7z" transform="translate(0.000000,60.000000) scale(0.100000,-0.100000)" stroke="none" fill="#EC7D35"/>

<path d="M379 483 c-6 -15 -15 -31 -22 -35 -6 -4 -17 -22 -23 -40 -14 -41 -48 -47 -50 -8 -2 44 -16 71 -41 81 -38 14 -63 11 -57 -6 8 -20 -53 -108 -88 -128 -28 -16 -38 -37 -18 -37 17 0 65 27 79 44 17 20 41 21 41 2 0 -8 -7 -21 -15 -30 -8 -8 -15 -19 -15 -24 0 -5 -7 -15 -15 -22 -17 -14 -18 -20 -6 -39 7 -11 16 -6 42 23 19 20 40 36 46 36 20 0 15 -35 -7 -55 -19 -17 -29 -75 -13 -75 4 0 17 10 31 22 l23 23 20 -25 c12 -16 17 -33 13 -45 -11 -34 -6 -95 8 -95 16 0 67 62 61 76 -3 8 -9 14 -14 14 -16 0 -9 17 17 44 15 14 35 26 45 26 26 0 51 -42 44 -73 -7 -27 21 -87 40 -87 15 0 34 55 24 71 -9 15 -1 69 12 83 5 6 20 -1 38 -18 48 -46 54 4 8 66 -18 25 -18 58 1 58 4 0 21 -18 38 -40 32 -43 39 -47 47 -25 7 16 -10 54 -36 79 -9 10 -17 24 -17 32 0 23 30 16 67 -16 18 -16 40 -30 48 -30 25 0 16 24 -15 42 -36 21 -91 104 -83 125 5 14 0 15 -32 10 -48 -8 -54 -14 -63 -68 -6 -34 -12 -44 -27 -44 -13 0 -22 9 -26 25 -3 14 -14 44 -24 68 -15 35 -23 42 -47 42 -22 0 -31 -6 -39 -27z m-31 -286 c2 -12 -3 -17 -17 -17 -15 0 -21 6 -21 21 0 25 33 22 38 -4z m172 17 c0 -3 -5 -14 -11 -25 -8 -16 -13 -18 -24 -9 -18 15 -8 40 16 40 10 0 19 -3 19 -6z" transform="translate(0.000000,60.000000) scale(0.100000,-0.100000)" stroke="none" fill="#EC7D35"/>

</svg>