<?xml version="1.0" standalone="no"?>
<!DOCTYPE svg PUBLIC "-//W3C//DTD SVG 20010904//EN"
 "http://www.w3.org/TR/2001/REC-SVG-20010904/DTD/svg10.dtd">
<svg version="1.0" xmlns="http://www.w3.org/2000/svg" 
width="94.000000pt" height="60.000000pt" viewBox="0 0 94.000000 60.000000"
preserveAspectRatio = "xMidYMid meet" >
<metadata>
Created by ZoeQU, 2022
</metadata>
<rect width="94.000000" height="60.000000" fill="#8BB264"/>
<path d="M715 171 c-7 -13 2 -31 15 -31 5 0 7 8 4 18 -5 15 -4 16 8 1 11 -14 15 -14 26 -3 10 11 10 14 -2 14 -8 0 -21 3 -29 6 -8 3 -18 1 -22 -5z" transform="translate(0.000000,60.000000) scale(0.100000,-0.100000)" stroke="none" fill="#61A36C"/>

<path d="M922 288 c-18 -18 -16 -108 3 -108 12 0 15 13 15 60 0 33 -1 60 -3 60 -2 0 -8 -5 -15 -12z" transform="translate(0.000000,60.000000) scale(0.100000,-0.100000)" stroke="none" fill="#CEB4AB"/>

<path d="M163 148 c-12 -13 -33 -47 -47 -75 -15 -29 -31 -53 -36 -53 -6 0 -10 -5 -10 -11 0 -24 24 0 50 50 16 30 41 66 56 82 15 16 23 29 18 29 -6 0 -20 -10 -31 -22z" transform="translate(0.000000,60.000000) scale(0.100000,-0.100000)" stroke="none" fill="#61A36C"/>

<path d="M409 376 c-48 -15 -134 -84 -147 -118 -8 -21 -7 -30 4 -39 8 -6 15 -8 16 -3 0 5 2 14 3 19 2 6 3 16 4 23 0 6 19 30 40 51 29 29 52 42 92 50 75 16 162 5 190 -25 13 -14 33 -24 48 -23 21 1 22 2 6 6 -11 3 -30 14 -41 25 -23 21 -113 48 -154 47 -14 -1 -41 -6 -61 -13z" transform="translate(0.000000,60.000000) scale(0.100000,-0.100000)" stroke="none" fill="#61A36C"/>

<path d="M667 313 c-9 -2 -15 -9 -12 -14 3 -5 -3 -19 -14 -31 -25 -26 -26 -32 -6 -52 8 -8 15 -21 15 -28 0 -11 13 -14 50 -13 27 1 53 4 56 8 14 14 4 91 -14 108 -20 20 -50 28 -75 22z" transform="translate(0.000000,60.000000) scale(0.100000,-0.100000)" stroke="none" fill="#CEB4AB"/>

<path d="M395 567 c-27 -5 -69 -18 -92 -28 -24 -11 -47 -19 -53 -19 -18 0 -91 -72 -127 -127 -44 -67 -73 -157 -79 -248 -3 -38 -6 -87 -9 -109 -2 -21 0 -35 5 -30 5 5 11 51 15 102 6 113 33 197 87 277 137 202 398 230 623 66 77 -56 93 -76 116 -146 10 -27 18 -41 18 -30 1 29 -28 107 -47 129 -30 33 -130 106 -146 106 -9 0 -16 4 -16 9 0 16 -167 62 -217 60 -15 -1 -50 -6 -78 -12z" transform="translate(0.000000,60.000000) scale(0.100000,-0.100000)" stroke="none" fill="#61A36C"/>

<path d="M362 544 c-93 -25 -165 -76 -220 -159 -54 -80 -81 -164 -88 -276 -3 -51 -8 -97 -10 -101 -3 -4 0 -8 6 -8 18 0 46 33 73 85 27 53 53 82 77 84 72 5 97 24 66 50 -37 31 66 136 157 161 60 16 155 -2 197 -37 19 -16 41 -23 68 -23 31 0 43 -5 56 -25 9 -13 16 -33 16 -43 0 -10 5 -23 12 -30 9 -9 9 -12 0 -12 -17 0 -15 -37 2 -43 8 -3 20 0 26 8 6 8 18 11 26 8 8 -3 14 0 14 7 0 10 3 10 15 0 22 -18 45 -5 45 27 0 36 -24 115 -46 153 -21 34 -125 113 -186 140 -111 49 -211 60 -306 34z" transform="translate(0.000000,60.000000) scale(0.100000,-0.100000)" stroke="none" fill="#399371"/>

</svg>