<?xml version="1.0" standalone="no"?>
<!DOCTYPE svg PUBLIC "-//W3C//DTD SVG 20010904//EN"
 "http://www.w3.org/TR/2001/REC-SVG-20010904/DTD/svg10.dtd">
<svg version="1.0" xmlns="http://www.w3.org/2000/svg" 
width="80.000000pt" height="92.000000pt" viewBox="0 0 80.000000 92.000000"
preserveAspectRatio = "xMidYMid meet" >
<metadata>
Created by ZoeQU, 2022
</metadata>
<rect width="80.000000" height="92.000000" fill="#DCC4B1"/>
<path d="M719 836 c26 -36 27 -53 0 -61 -11 -4 -18 -9 -16 -12 9 -8 47 17 47 32 0 8 -12 27 -26 42 l-26 28 21 -29z" transform="translate(0.000000,92.000000) scale(0.100000,-0.100000)" stroke="none" fill="#BB987E"/>

<path d="M344 87 c5 -49 0 -56 -24 -35 -12 11 -12 10 -1 -5 26 -33 41 -21 36 29 -2 26 -6 49 -9 52 -4 3 -4 -16 -2 -41z" transform="translate(0.000000,92.000000) scale(0.100000,-0.100000)" stroke="none" fill="#BB987E"/>

<path d="M327 283 c-3 -27 -2 -66 2 -88 6 -32 8 -22 9 48 0 48 -1 87 -2 87 -2 0 -6 -21 -9 -47z" transform="translate(0.000000,92.000000) scale(0.100000,-0.100000)" stroke="none" fill="#BB987E"/>

<path d="M177 771 c-35 -27 -97 -97 -97 -110 0 -3 13 10 28 29 15 19 35 41 46 50 76 61 92 83 23 31z" transform="translate(0.000000,92.000000) scale(0.100000,-0.100000)" stroke="none" fill="#BB987E"/>

<path d="M247 358 c-3 -29 -2 -75 2 -103 6 -42 8 -33 8 53 1 56 0 102 -2 102 -1 0 -5 -24 -8 -52z" transform="translate(0.000000,92.000000) scale(0.100000,-0.100000)" stroke="none" fill="#BB987E"/>

<path d="M150 183 c9 -19 100 -96 140 -118 22 -12 2 6 -50 45 -25 19 -58 48 -73 65 -21 22 -25 24 -17 8z" transform="translate(0.000000,92.000000) scale(0.100000,-0.100000)" stroke="none" fill="#BB987E"/>

<path d="M160 252 c0 -6 19 -32 43 -57 48 -49 79 -60 69 -23 -5 19 -6 20 -12 4 -5 -16 -9 -15 -36 11 -16 15 -38 39 -47 53 -9 13 -17 19 -17 12z" transform="translate(0.000000,92.000000) scale(0.100000,-0.100000)" stroke="none" fill="#BB987E"/>

<path d="M154 585 c-23 -36 -34 -90 -32 -170 1 -67 1 -66 8 27 6 71 13 107 29 133 23 40 20 48 -5 10z" transform="translate(0.000000,92.000000) scale(0.100000,-0.100000)" stroke="none" fill="#9B6C4B"/>

<path d="M46 578 c-8 -30 -6 -176 2 -206 4 -13 7 33 7 102 0 69 -1 126 -1 126 -1 0 -4 -10 -8 -22z" transform="translate(0.000000,92.000000) scale(0.100000,-0.100000)" stroke="none" fill="#BB987E"/>

<path d="M314 734 c-86 -58 -175 -164 -174 -208 1 -14 5 -8 14 15 24 68 84 134 170 188 28 17 45 31 39 31 -5 0 -28 -12 -49 -26z" transform="translate(0.000000,92.000000) scale(0.100000,-0.100000)" stroke="none" fill="#BB987E"/>

<path d="M618 736 c-86 -44 -131 -84 -184 -161 -14 -21 -23 -39 -21 -42 3 -2 18 18 35 44 47 73 89 108 187 157 50 25 86 45 80 45 -5 0 -49 -19 -97 -43z" transform="translate(0.000000,92.000000) scale(0.100000,-0.100000)" stroke="none" fill="#9B6C4B"/>

<path d="M445 790 c-19 -8 -18 -9 4 -9 22 -1 20 -4 -21 -43 -56 -55 -93 -105 -113 -151 -22 -53 -10 -46 14 9 22 48 145 184 168 184 7 0 13 5 13 10 0 12 -37 12 -65 0z" transform="translate(0.000000,92.000000) scale(0.100000,-0.100000)" stroke="none" fill="#BB987E"/>

<path d="M594 714 c-29 -13 -69 -43 -91 -67 -44 -48 -128 -180 -138 -217 -3 -14 8 2 25 36 56 108 129 196 192 229 88 47 95 59 12 19z" transform="translate(0.000000,92.000000) scale(0.100000,-0.100000)" stroke="none" fill="#BB987E"/>

<path d="M382 488 c-20 -34 -56 -147 -66 -208 -3 -19 0 -69 7 -111 8 -41 10 -84 7 -95 -8 -21 -4 -34 10 -34 10 0 5 66 -10 147 -14 78 20 237 65 307 10 14 15 26 12 26 -3 0 -14 -15 -25 -32z" transform="translate(0.000000,92.000000) scale(0.100000,-0.100000)" stroke="none" fill="#9B6C4B"/>

<path d="M460 804 c-72 -19 -152 -57 -170 -80 -14 -18 -14 -18 5 -3 55 46 215 97 215 69 0 -5 -6 -10 -13 -10 -7 0 -42 -30 -77 -67 l-65 -68 65 63 c36 34 70 62 76 62 12 0 44 32 44 43 0 10 -17 8 -80 -9z" transform="translate(0.000000,92.000000) scale(0.100000,-0.100000)" stroke="none" fill="#9B6C4B"/>

<path d="M106 688 c-43 -58 -59 -127 -54 -236 3 -53 11 -110 19 -127 15 -35 87 -145 95 -145 2 0 -12 26 -34 57 -57 87 -64 109 -70 215 -5 109 11 178 54 236 14 17 23 32 20 32 -3 0 -16 -15 -30 -32z" transform="translate(0.000000,92.000000) scale(0.100000,-0.100000)" stroke="none" fill="#9B6C4B"/>

<path d="M390 859 c-94 -21 -148 -45 -200 -91 -19 -17 -28 -27 -20 -23 8 4 24 16 35 26 35 30 88 55 150 68 33 8 76 17 95 22 48 12 124 10 195 -4 53 -11 62 -16 77 -47 10 -19 18 -28 18 -19 0 37 -37 65 -103 77 -85 16 -144 14 -247 -9z" transform="translate(0.000000,92.000000) scale(0.100000,-0.100000)" stroke="none" fill="#9B6C4B"/>

<path d="M324 583 c-36 -79 -41 -92 -54 -136 -15 -47 -15 -232 -1 -270 14 -37 -8 -36 -53 3 -35 31 -64 82 -77 135 -5 24 -7 25 -8 7 -2 -36 38 -109 81 -147 38 -35 78 -43 68 -14 -2 8 -6 66 -8 129 -4 106 3 158 27 215 26 59 45 102 53 118 5 9 6 17 3 17 -3 0 -17 -26 -31 -57z" transform="translate(0.000000,92.000000) scale(0.100000,-0.100000)" stroke="none" fill="#9B6C4B"/>

<path d="M445 860 c-16 -4 -57 -13 -90 -21 -115 -25 -220 -103 -267 -199 -20 -39 -23 -61 -23 -160 0 -77 5 -127 14 -150 18 -44 88 -149 115 -174 45 -40 128 -97 133 -92 9 8 6 54 -6 123 -16 85 19 243 69 312 11 16 20 32 20 35 0 10 49 77 85 118 33 36 193 128 224 128 17 0 13 25 -6 48 -30 34 -188 53 -268 32z m95 -47 c0 -11 -33 -43 -44 -43 -25 0 -135 -126 -161 -185 -41 -91 -43 -97 -55 -140 -11 -38 -10 -250 0 -284 10 -29 -30 -21 -68 14 -52 47 -80 108 -88 193 -10 101 2 173 36 224 75 111 168 177 300 212 63 17 80 19 80 9z" transform="translate(0.000000,92.000000) scale(0.100000,-0.100000)" stroke="none" fill="#874D28"/>

</svg>