<?xml version="1.0" standalone="no"?>
<!DOCTYPE svg PUBLIC "-//W3C//DTD SVG 20010904//EN"
 "http://www.w3.org/TR/2001/REC-SVG-20010904/DTD/svg10.dtd">
<svg version="1.0" xmlns="http://www.w3.org/2000/svg" 
width="92.000000pt" height="68.000000pt" viewBox="0 0 92.000000 68.000000"
preserveAspectRatio = "xMidYMid meet" >
<metadata>
Created by ZoeQU, 2022
</metadata>
<rect width="92.000000" height="68.000000" fill="#F15B26"/>
<path d="M767 570 c-69 -83 -123 -122 -241 -173 -94 -40 -88 -40 -396 -50 l-55 -2 1 -49 c0 -46 3 -52 55 -97 127 -114 205 -149 346 -157 79 -4 100 -1 153 19 76 29 158 97 185 153 40 81 65 190 65 284 0 73 -21 143 -43 141 -6 0 -38 -32 -70 -69z m70 -72 c-8 -59 -36 -147 -62 -198 -28 -56 -107 -120 -177 -145 -57 -20 -219 -20 -276 0 -91 32 -167 79 -156 96 3 5 57 9 120 9 130 0 227 21 324 70 72 36 114 72 170 145 23 30 47 55 52 55 6 0 8 -14 5 -32z" transform="translate(0.000000,68.000000) scale(0.100000,-0.100000)" stroke="none" fill="#FEF0EB"/>

</svg>