<?xml version="1.0" standalone="no"?>
<!DOCTYPE svg PUBLIC "-//W3C//DTD SVG 20010904//EN"
 "http://www.w3.org/TR/2001/REC-SVG-20010904/DTD/svg10.dtd">
<svg version="1.0" xmlns="http://www.w3.org/2000/svg" 
width="76.000000pt" height="76.000000pt" viewBox="0 0 76.000000 76.000000"
preserveAspectRatio = "xMidYMid meet" >
<metadata>
Created by ZoeQU, 2022
</metadata>
<rect width="76.000000" height="76.000000" fill="#F15B26"/>
<path d="M315 724 c-129 -31 -171 -54 -218 -120 -17 -25 -40 -71 -50 -102 -31 -95 -10 -233 52 -338 12 -19 21 -41 21 -48 0 -13 31 -46 43 -46 3 0 9 23 13 51 9 66 83 181 174 269 70 67 196 150 230 150 10 0 21 4 25 9 3 6 26 13 50 17 45 6 52 15 39 49 -21 53 -290 130 -379 109z m211 -75 c24 -6 44 -14 44 -18 0 -4 -20 -13 -45 -20 -57 -17 -150 -76 -217 -139 -57 -52 -168 -214 -168 -243 0 -10 -4 -19 -9 -19 -21 0 -31 33 -33 116 -2 83 0 94 30 156 38 78 90 126 172 156 63 23 159 28 226 11z" transform="translate(0.000000,76.000000) scale(0.100000,-0.100000)" stroke="none" fill="#FDEFEA"/>

</svg>