<?xml version="1.0" standalone="no"?>
<!DOCTYPE svg PUBLIC "-//W3C//DTD SVG 20010904//EN"
 "http://www.w3.org/TR/2001/REC-SVG-20010904/DTD/svg10.dtd">
<svg version="1.0" xmlns="http://www.w3.org/2000/svg" 
width="60.000000pt" height="128.000000pt" viewBox="0 0 60.000000 128.000000"
preserveAspectRatio = "xMidYMid meet" >
<metadata>
Created by ZoeQU, 2022
</metadata>
<rect width="60.000000" height="128.000000" fill="#4B3F49"/>
<path d="M199 851 c-29 -23 -15 -45 22 -38 22 4 22 4 -3 6 -16 0 -28 5 -28 9 0 11 38 30 70 35 21 4 20 4 -6 6 -18 0 -42 -7 -55 -18z" transform="translate(0.000000,128.000000) scale(0.100000,-0.100000)" stroke="none" fill="#8C5C47"/>

<path d="M570 1251 c0 -22 -6 -31 -30 -41 -31 -13 -35 -31 -9 -38 11 -3 11 -2 -1 7 -13 9 -12 11 5 12 11 1 26 2 33 2 8 -1 12 14 12 43 0 24 -2 44 -5 44 -3 0 -5 -13 -5 -29z" transform="translate(0.000000,128.000000) scale(0.100000,-0.100000)" stroke="none" fill="#8C5C47"/>

<path d="M215 656 c-33 -14 -61 -43 -51 -53 6 -7 36 7 70 32 28 21 16 35 -19 21z" transform="translate(0.000000,128.000000) scale(0.100000,-0.100000)" stroke="none" fill="#D19C37"/>

<path d="M208 846 c-29 -21 -21 -28 30 -24 46 3 66 14 56 30 -8 13 -67 9 -86 -6z" transform="translate(0.000000,128.000000) scale(0.100000,-0.100000)" stroke="none" fill="#D19C37"/>

<path d="M327 969 c-9 -5 -22 -7 -29 -3 -6 4 -8 3 -5 -3 4 -6 -19 -27 -50 -48 -44 -29 -57 -34 -64 -23 -6 9 -9 9 -9 1 0 -26 22 -22 82 16 69 44 106 70 98 70 -3 0 -13 -4 -23 -10z" transform="translate(0.000000,128.000000) scale(0.100000,-0.100000)" stroke="none" fill="#8C5C47"/>

<path d="M260 736 c0 -20 50 -106 62 -106 7 0 8 14 5 36 -8 50 -67 112 -67 70z" transform="translate(0.000000,128.000000) scale(0.100000,-0.100000)" stroke="none" fill="#D19C37"/>

<path d="M488 1143 c-9 -10 -14 -23 -11 -29 2 -6 -4 -17 -12 -24 -14 -12 -18 -11 -27 1 -8 11 -9 10 -4 -4 4 -12 -5 -27 -27 -46 -17 -16 -29 -33 -25 -37 4 -4 20 6 35 22 40 42 103 120 103 128 0 12 -17 6 -32 -11z" transform="translate(0.000000,128.000000) scale(0.100000,-0.100000)" stroke="none" fill="#8C5C47"/>

<path d="M310 980 c-8 -11 -22 -20 -32 -20 -10 0 -18 -4 -18 -10 0 -5 -7 -10 -15 -10 -17 0 -70 -48 -62 -56 3 -3 40 18 82 45 43 28 81 51 86 51 5 0 9 5 9 10 0 18 -35 11 -50 -10z" transform="translate(0.000000,128.000000) scale(0.100000,-0.100000)" stroke="none" fill="#D19C37"/>

<path d="M123 738 c-30 -14 -29 -40 2 -75 l25 -28 31 33 c39 43 37 76 -6 79 -16 1 -40 -3 -52 -9z" transform="translate(0.000000,128.000000) scale(0.100000,-0.100000)" stroke="none" fill="#225B73"/>

<path d="M226 571 c-23 -25 -47 -94 -37 -104 4 -4 32 -10 61 -14 l53 -6 -6 56 c-8 79 -37 106 -71 68z" transform="translate(0.000000,128.000000) scale(0.100000,-0.100000)" stroke="none" fill="#D19C37"/>

<path d="M447 637 c-27 -24 -57 -67 -73 -100 -28 -62 -43 -137 -27 -137 17 0 33 24 33 50 0 55 91 190 127 190 7 0 13 9 13 20 0 31 -23 24 -73 -23z" transform="translate(0.000000,128.000000) scale(0.100000,-0.100000)" stroke="none" fill="#8C5C47"/>

<path d="M89 821 c12 -8 9 -15 -14 -43 -16 -18 -31 -32 -34 -31 -6 1 -8 -9 -17 -103 -5 -50 -2 -69 16 -107 28 -59 69 -97 265 -239 176 -127 221 -168 212 -192 -4 -9 -1 -15 6 -13 7 1 12 -8 12 -20 0 -13 7 -28 15 -35 12 -11 12 -10 2 3 -10 14 -9 17 8 22 11 3 20 11 20 17 0 9 -3 10 -14 1 -11 -9 -16 -5 -26 18 -15 38 -80 98 -188 176 -249 179 -273 200 -302 261 -37 80 -20 183 42 251 20 21 17 43 -5 43 -8 0 -7 -4 2 -9z" transform="translate(0.000000,128.000000) scale(0.100000,-0.100000)" stroke="none" fill="#8C5C47"/>

<path d="M333 925 c-7 -8 -13 -18 -13 -23 0 -5 -7 -15 -15 -22 -8 -7 -15 -18 -14 -24 3 -27 -2 -34 -23 -28 -17 4 -20 2 -15 -11 4 -11 -5 -25 -25 -42 -17 -14 -28 -29 -24 -32 3 -3 15 2 26 12 27 24 31 17 18 -33 -6 -26 -19 -47 -32 -54 -35 -18 -66 -50 -66 -69 0 -21 19 -17 63 13 36 26 35 6 -4 -42 -32 -39 -50 -112 -31 -124 6 -3 36 -8 66 -10 47 -4 58 -2 66 14 21 39 7 102 -33 146 -13 15 -17 33 -15 59 l3 38 25 -38 c35 -54 50 -56 50 -6 0 31 -7 49 -30 74 -16 19 -30 39 -30 45 0 15 41 104 61 134 11 14 19 29 19 32 0 10 -15 6 -27 -9z m-34 -199 c24 -25 41 -96 23 -96 -6 0 -22 21 -36 46 -39 70 -32 98 13 50z m-65 -91 c-34 -25 -64 -39 -70 -32 -10 10 18 39 51 53 35 14 47 0 19 -21z m42 -60 c9 -8 18 -40 21 -72 l6 -56 -53 6 c-29 4 -57 10 -61 14 -10 10 14 79 37 104 21 23 31 24 50 4z" transform="translate(0.000000,128.000000) scale(0.100000,-0.100000)" stroke="none" fill="#8C5C47"/>

<path d="M500 1030 c-56 -59 -157 -216 -146 -227 20 -20 129 79 157 143 11 24 22 44 24 44 3 0 5 -23 5 -50 0 -39 -4 -52 -17 -57 -23 -9 -47 -37 -83 -98 -33 -55 -36 -65 -18 -65 19 0 98 89 98 110 0 10 5 22 10 25 6 4 10 -22 10 -69 0 -48 4 -76 11 -76 7 0 10 59 7 190 -2 104 -3 190 -3 189 0 0 -25 -27 -55 -59z" transform="translate(0.000000,128.000000) scale(0.100000,-0.100000)" stroke="none" fill="#225B73"/>

<path d="M63 795 c-13 -13 -23 -31 -23 -40 0 -8 -4 -15 -10 -15 -5 0 -10 -9 -10 -20 0 -11 -4 -20 -10 -20 -6 0 -10 -33 -10 -80 0 -47 4 -80 10 -80 6 0 10 -9 10 -20 0 -11 5 -20 10 -20 6 0 10 -9 10 -20 0 -11 5 -20 10 -20 6 0 10 -7 10 -15 0 -22 48 -65 75 -65 14 0 34 -12 48 -30 14 -17 32 -30 40 -30 9 0 27 -13 40 -30 14 -16 32 -30 40 -30 9 0 27 -13 40 -30 14 -16 32 -30 40 -30 8 0 31 -18 51 -40 20 -22 41 -40 47 -40 13 0 39 -25 39 -38 0 -13 70 -85 76 -79 3 3 4 29 2 58 -3 52 -4 53 -15 27 -16 -37 -35 -35 -52 5 -22 51 -55 81 -226 205 -194 142 -237 180 -264 237 -38 80 -19 198 40 251 19 17 25 35 12 33 -5 0 -18 -11 -30 -24z" transform="translate(0.000000,128.000000) scale(0.100000,-0.100000)" stroke="none" fill="#D19C37"/>

</svg>