<?xml version="1.0" standalone="no"?>
<!DOCTYPE svg PUBLIC "-//W3C//DTD SVG 20010904//EN"
 "http://www.w3.org/TR/2001/REC-SVG-20010904/DTD/svg10.dtd">
<svg version="1.0" xmlns="http://www.w3.org/2000/svg" 
width="66.000000pt" height="54.000000pt" viewBox="0 0 66.000000 54.000000"
preserveAspectRatio = "xMidYMid meet" >
<metadata>
Created by ZoeQU, 2022
</metadata>
<rect width="66.000000" height="54.000000" fill="#88A5C8"/>
<path d="M207 213 c-11 -10 -8 -41 4 -49 6 -3 17 0 25 8 13 12 12 17 -4 31 -10 9 -22 14 -25 10z" transform="translate(0.000000,54.000000) scale(0.100000,-0.100000)" stroke="none" fill="#AA664D"/>

<path d="M445 349 c-4 -5 1 -19 11 -30 13 -14 20 -16 31 -8 23 19 16 49 -11 49 -14 0 -28 -5 -31 -11z" transform="translate(0.000000,54.000000) scale(0.100000,-0.100000)" stroke="none" fill="#AA664D"/>

<path d="M197 223 c-13 -12 -7 -64 7 -69 19 -7 56 13 56 30 0 26 -47 56 -63 39z m39 -20 c9 -13 9 -22 2 -30 -19 -23 -38 -15 -38 17 0 33 16 39 36 13z" transform="translate(0.000000,54.000000) scale(0.100000,-0.100000)" stroke="none" fill="#BFC2BD"/>

<path d="M345 96 c-8 -40 -22 -45 -60 -20 -23 15 -26 15 -56 -10 -35 -29 -27 -35 10 -7 22 17 26 17 51 3 15 -9 33 -13 42 -10 14 6 33 66 24 76 -3 2 -8 -12 -11 -32z" transform="translate(0.000000,54.000000) scale(0.100000,-0.100000)" stroke="none" fill="#BFC2BD"/>

<path d="M50 240 l-21 -21 30 -38 c17 -21 44 -44 61 -51 25 -10 29 -17 24 -34 -15 -44 -10 -61 16 -62 24 -1 24 -1 2 3 -20 4 -23 8 -16 31 13 48 10 66 -11 70 -24 5 -85 61 -85 78 0 7 10 20 22 28 12 9 17 16 10 16 -6 0 -21 -9 -32 -20z" transform="translate(0.000000,54.000000) scale(0.100000,-0.100000)" stroke="none" fill="#BFC2BD"/>

<path d="M392 468 c-7 -7 -12 -26 -12 -43 0 -58 -63 -87 -94 -44 -10 15 -26 22 -53 23 l-37 1 -16 -62 c-13 -54 -18 -63 -37 -63 -34 0 -36 -17 -2 -18 17 0 32 5 33 11 2 7 10 38 17 70 10 49 15 57 35 57 12 0 36 -11 52 -25 33 -28 49 -30 87 -13 20 9 25 18 25 45 0 19 5 43 10 54 12 22 9 24 -8 7z" transform="translate(0.000000,54.000000) scale(0.100000,-0.100000)" stroke="none" fill="#BFC2BD"/>

<path d="M400 503 c0 -15 2 -15 9 -4 9 15 22 11 57 -14 19 -14 23 -14 47 5 14 11 29 20 34 20 13 0 33 -46 33 -75 0 -14 9 -39 19 -57 11 -17 18 -35 15 -39 -2 -4 0 -10 6 -14 6 -4 4 -15 -7 -31 -12 -19 -23 -24 -46 -22 -26 3 -31 -1 -38 -25 -17 -63 -50 -73 -92 -29 -35 36 -113 44 -140 14 -16 -17 -15 -20 13 -40 17 -13 30 -30 31 -40 0 -11 2 -13 6 -4 3 8 -7 26 -22 42 -26 28 -27 28 -7 39 29 15 83 2 107 -25 30 -34 69 -40 94 -15 12 12 21 33 21 47 0 21 4 25 17 20 9 -4 36 -10 60 -13 43 -6 54 2 31 25 -9 9 -9 15 0 24 20 20 14 42 -24 86 -26 31 -34 47 -29 63 4 11 1 34 -5 50 -14 32 -45 39 -79 17 -15 -9 -25 -9 -46 0 -38 17 -65 15 -65 -5z" transform="translate(0.000000,54.000000) scale(0.100000,-0.100000)" stroke="none" fill="#BFC2BD"/>

<path d="M191 343 c-7 -32 -15 -63 -16 -69 -2 -7 -20 -12 -40 -12 -38 0 -85 -25 -85 -45 0 -18 61 -74 85 -79 21 -4 24 -22 10 -70 -7 -26 -5 -28 23 -28 18 0 43 11 61 26 30 25 33 25 56 10 37 -24 52 -20 59 18 8 43 -6 80 -39 102 -23 15 -24 18 -11 33 13 14 12 19 -10 40 l-24 23 22 31 22 30 -28 24 c-15 12 -37 23 -50 23 -20 0 -25 -8 -35 -57z m51 -130 c24 -21 23 -40 -3 -53 -30 -16 -49 -5 -49 28 0 45 19 55 52 25z" transform="translate(0.000000,54.000000) scale(0.100000,-0.100000)" stroke="none" fill="#F5F6F4"/>

<path d="M409 503 c0 -5 -3 -17 -6 -28 -3 -11 -7 -39 -10 -61 -5 -43 -29 -64 -72 -64 -35 0 -60 -60 -34 -85 11 -12 75 -21 114 -17 3 1 19 -12 34 -28 44 -46 77 -37 94 27 7 24 12 28 38 25 23 -2 34 3 46 22 11 16 13 27 7 31 -6 4 -8 10 -6 14 3 4 -4 22 -15 39 -10 18 -19 43 -19 57 0 51 -37 95 -55 65 -16 -26 -43 -30 -68 -10 -26 21 -46 26 -48 13z m91 -162 c0 -32 -24 -44 -44 -22 -22 24 -13 41 20 41 17 0 24 -6 24 -19z" transform="translate(0.000000,54.000000) scale(0.100000,-0.100000)" stroke="none" fill="#F0C881"/>

</svg>