<?xml version="1.0" standalone="no"?>
<!DOCTYPE svg PUBLIC "-//W3C//DTD SVG 20010904//EN"
 "http://www.w3.org/TR/2001/REC-SVG-20010904/DTD/svg10.dtd">
<svg version="1.0" xmlns="http://www.w3.org/2000/svg" 
width="98.000000pt" height="80.000000pt" viewBox="0 0 98.000000 80.000000"
preserveAspectRatio = "xMidYMid meet" >
<metadata>
Created by ZoeQU, 2022
</metadata>
<rect width="98.000000" height="80.000000" fill="#F15B26"/>
<path d="M840 696 c0 -8 -7 -16 -15 -20 -9 -3 -19 -15 -23 -26 -26 -71 -257 -290 -347 -330 -27 -12 -58 -26 -67 -31 -10 -5 -31 -9 -47 -9 -17 0 -33 -4 -36 -10 -4 -6 -57 -10 -126 -10 -65 0 -119 -4 -119 -9 0 -22 94 -111 142 -134 153 -73 337 -96 459 -56 241 78 357 391 224 602 -30 48 -45 58 -45 33z m6 -231 c-17 -147 -126 -276 -283 -335 -45 -17 -207 -14 -273 5 -30 9 -65 19 -77 22 -51 12 -18 23 70 23 122 1 194 19 273 71 59 38 225 192 267 247 26 34 30 27 23 -33z" transform="translate(0.000000,80.000000) scale(0.100000,-0.100000)" stroke="none" fill="#FDF3EF"/>

</svg>