<?xml version="1.0" standalone="no"?>
<!DOCTYPE svg PUBLIC "-//W3C//DTD SVG 20010904//EN"
 "http://www.w3.org/TR/2001/REC-SVG-20010904/DTD/svg10.dtd">
<svg version="1.0" xmlns="http://www.w3.org/2000/svg" 
width="110.000000pt" height="110.000000pt" viewBox="0 0 110.000000 110.000000"
preserveAspectRatio = "xMidYMid meet" >
<metadata>
Created by ZoeQU, 2022
</metadata>
<rect width="110.000000" height="110.000000" fill="#FBFBFB"/>
<path d="M390 1042 c-8 -2 -23 -11 -32 -20 -22 -19 -24 -80 -3 -88 26 -11 16 -28 -34 -62 -28 -17 -52 -32 -55 -32 -3 0 -6 14 -6 30 0 37 -39 80 -72 80 -52 0 -91 -58 -68 -100 15 -29 77 -53 101 -40 23 13 26 -5 5 -29 -8 -9 -26 -39 -41 -68 -24 -49 -27 -52 -50 -41 -19 8 -31 8 -50 0 -55 -25 -36 -108 27 -114 33 -3 33 -3 41 -73 8 -79 36 -157 82 -230 116 -182 301 -246 481 -165 78 36 202 168 253 271 89 180 96 353 18 463 -25 36 -99 83 -152 97 -44 12 -55 23 -55 56 0 27 -27 43 -70 43 -24 0 -35 -7 -47 -29 -15 -25 -25 -29 -72 -34 -31 -4 -71 -9 -90 -13 -32 -7 -34 -6 -28 15 12 47 -39 97 -83 83z" transform="translate(0.000000,110.000000) scale(0.100000,-0.100000)" stroke="none" fill="#7F89B2"/>

</svg>