<?xml version="1.0" standalone="no"?>
<!DOCTYPE svg PUBLIC "-//W3C//DTD SVG 20010904//EN"
 "http://www.w3.org/TR/2001/REC-SVG-20010904/DTD/svg10.dtd">
<svg version="1.0" xmlns="http://www.w3.org/2000/svg" 
width="56.000000pt" height="44.000000pt" viewBox="0 0 56.000000 44.000000"
preserveAspectRatio = "xMidYMid meet" >
<metadata>
Created by ZoeQU, 2022
</metadata>
<rect width="56.000000" height="44.000000" fill="#87A5C8"/>
<path d="M127 422 c-10 -10 -17 -23 -17 -29 0 -5 -18 -24 -40 -42 -22 -17 -42 -42 -46 -55 -7 -29 11 -66 31 -66 11 0 15 -11 15 -37 0 -57 12 -67 72 -69 45 -2 53 -5 56 -22 3 -22 32 -38 41 -23 4 5 18 12 33 16 22 6 33 1 62 -28 39 -40 73 -54 88 -39 8 8 5 9 -10 5 -14 -3 -33 7 -65 36 -37 34 -51 41 -85 41 -23 0 -42 -5 -45 -12 -2 -7 -2 11 1 39 5 61 -10 70 -46 28 -22 -25 -38 -30 -66 -19 -11 4 -16 19 -16 50 0 24 -4 44 -9 44 -19 0 -39 30 -34 50 3 11 18 31 33 43 15 13 34 37 42 53 17 36 53 36 83 -1 22 -26 45 -31 74 -15 14 7 23 5 36 -10 17 -18 17 -18 40 6 22 24 37 31 33 17 -1 -5 9 -21 24 -36 15 -16 28 -41 30 -55 3 -23 8 -27 38 -27 29 0 35 -4 43 -30 12 -44 -6 -85 -38 -85 -22 0 -25 -4 -25 -36 0 -19 -5 -45 -12 -57 -10 -20 -10 -21 5 -8 11 8 17 28 17 52 0 31 4 38 22 41 13 2 29 15 37 32 12 26 12 36 0 70 -14 41 -25 46 -61 31 -14 -6 -18 -2 -18 15 0 12 -10 36 -22 53 -13 18 -22 38 -20 44 4 17 -45 17 -51 1 -4 -10 -7 -10 -18 0 -16 15 -54 16 -81 1 -16 -8 -24 -7 -38 8 -51 49 -67 54 -93 25z" transform="translate(0.000000,44.000000) scale(0.100000,-0.100000)" stroke="none" fill="#BBBBB5"/>

<path d="M358 371 c-11 -10 -18 -33 -18 -53 0 -20 -7 -41 -15 -48 -19 -16 -20 -70 -1 -70 8 0 16 7 20 15 8 23 53 19 61 -5 12 -39 -35 -66 -63 -38 -10 10 -19 8 -42 -5 -23 -14 -34 -16 -51 -7 -25 14 -25 14 -32 -35 -3 -22 -3 -34 0 -27 3 7 22 12 45 12 34 0 48 -7 84 -40 24 -22 50 -40 59 -40 29 0 55 38 55 80 0 36 2 40 25 40 32 0 50 41 38 85 -8 26 -14 30 -43 30 -30 0 -35 4 -38 27 -2 14 -15 39 -30 55 -15 15 -25 31 -24 36 4 13 -12 6 -30 -12z" transform="translate(0.000000,44.000000) scale(0.100000,-0.100000)" stroke="none" fill="#F4F7EC"/>

<path d="M132 408 c-7 -7 -12 -18 -12 -25 0 -7 -15 -26 -34 -43 -19 -18 -36 -40 -39 -51 -5 -19 16 -49 34 -49 5 0 9 -20 9 -44 0 -31 5 -46 16 -50 28 -11 44 -6 66 19 21 24 48 34 48 17 0 -5 12 -14 26 -21 21 -9 31 -8 55 6 22 13 31 15 41 5 28 -28 75 -1 63 38 -8 24 -53 28 -61 5 -4 -8 -12 -15 -20 -15 -19 0 -18 54 1 70 36 30 -7 124 -45 100 -26 -16 -53 -11 -75 14 -25 30 -57 40 -73 24z m68 -138 c0 -5 -4 -10 -10 -10 -5 0 -10 5 -10 10 0 6 5 10 10 10 6 0 10 -4 10 -10z" transform="translate(0.000000,44.000000) scale(0.100000,-0.100000)" stroke="none" fill="#EACB7F"/>

</svg>