<?xml version="1.0" standalone="no"?>
<!DOCTYPE svg PUBLIC "-//W3C//DTD SVG 20010904//EN"
 "http://www.w3.org/TR/2001/REC-SVG-20010904/DTD/svg10.dtd">
<svg version="1.0" xmlns="http://www.w3.org/2000/svg" 
width="68.000000pt" height="54.000000pt" viewBox="0 0 68.000000 54.000000"
preserveAspectRatio = "xMidYMid meet" >
<metadata>
Created by ZoeQU, 2022
</metadata>
<rect width="68.000000" height="54.000000" fill="#32436C"/>
<path d="M156 364 c-3 -9 -2 -23 4 -32 7 -14 9 -10 10 16 0 35 -5 41 -14 16z" transform="translate(0.000000,54.000000) scale(0.100000,-0.100000)" stroke="none" fill="#272F54"/>

<path d="M80 151 c14 -11 32 -21 40 -21 13 0 5 5 -52 35 -7 4 -2 -3 12 -14z" transform="translate(0.000000,54.000000) scale(0.100000,-0.100000)" stroke="none" fill="#6E616C"/>

<path d="M170 291 c0 -11 -8 -22 -17 -24 -14 -4 -12 -5 5 -6 17 -1 22 4 22 24 0 14 -2 25 -5 25 -3 0 -5 -9 -5 -19z" transform="translate(0.000000,54.000000) scale(0.100000,-0.100000)" stroke="none" fill="#AB9D97"/>

<path d="M139 132 c8 -6 11 -18 6 -33 -6 -19 -5 -21 5 -13 15 15 9 46 -10 51 -12 4 -12 3 -1 -5z" transform="translate(0.000000,54.000000) scale(0.100000,-0.100000)" stroke="none" fill="#AB9D97"/>

<path d="M230 65 c-7 -8 -27 -19 -44 -24 -24 -7 -26 -9 -9 -10 12 -1 35 10 50 24 15 13 25 25 22 25 -4 0 -12 -7 -19 -15z" transform="translate(0.000000,54.000000) scale(0.100000,-0.100000)" stroke="none" fill="#6E616C"/>

<path d="M202 188 c2 -13 8 -23 13 -23 6 0 11 10 13 23 2 15 -2 22 -13 22 -11 0 -15 -7 -13 -22z" transform="translate(0.000000,54.000000) scale(0.100000,-0.100000)" stroke="none" fill="#6E616C"/>

<path d="M190 380 c-7 -17 -10 -33 -8 -36 3 -3 9 7 12 21 4 14 17 30 29 35 22 9 22 9 1 9 -15 1 -26 -9 -34 -29z" transform="translate(0.000000,54.000000) scale(0.100000,-0.100000)" stroke="none" fill="#AB9D97"/>

<path d="M52 192 c16 -24 57 -57 62 -51 1 2 -16 20 -38 39 -28 25 -35 28 -24 12z" transform="translate(0.000000,54.000000) scale(0.100000,-0.100000)" stroke="none" fill="#AB9D97"/>

<path d="M450 345 c0 -18 24 -30 39 -21 16 10 1 36 -20 36 -10 0 -19 -7 -19 -15z" transform="translate(0.000000,54.000000) scale(0.100000,-0.100000)" stroke="none" fill="#6E616C"/>

<path d="M401 493 c2 -24 2 -25 6 -5 5 25 25 29 43 7 7 -8 17 -15 23 -15 5 0 -2 9 -16 20 -36 29 -57 26 -56 -7z" transform="translate(0.000000,54.000000) scale(0.100000,-0.100000)" stroke="none" fill="#AB9D97"/>

<path d="M193 205 c-3 -9 -3 -19 1 -22 3 -4 6 1 6 10 0 10 7 17 16 17 12 0 15 -7 12 -25 -3 -14 -1 -25 3 -25 5 0 9 14 9 30 0 23 -4 30 -20 30 -11 0 -23 -7 -27 -15z" transform="translate(0.000000,54.000000) scale(0.100000,-0.100000)" stroke="none" fill="#AB9D97"/>

<path d="M350 84 c0 -11 -3 -29 -6 -41 -4 -14 -2 -23 5 -23 6 0 11 8 11 18 0 10 5 23 10 28 8 8 6 15 -5 24 -13 10 -15 9 -15 -6z" transform="translate(0.000000,54.000000) scale(0.100000,-0.100000)" stroke="none" fill="#272F54"/>

<path d="M557 520 c25 -10 38 -47 28 -82 -5 -18 -4 -20 4 -8 24 33 -2 101 -37 99 -13 0 -11 -3 5 -9z" transform="translate(0.000000,54.000000) scale(0.100000,-0.100000)" stroke="none" fill="#6E616C"/>

<path d="M368 233 c21 -3 45 -17 64 -36 l31 -32 -25 35 c-21 29 -32 35 -64 36 -35 1 -35 1 -6 -3z" transform="translate(0.000000,54.000000) scale(0.100000,-0.100000)" stroke="none" fill="#6E616C"/>

<path d="M150 280 c-8 -6 -29 -10 -46 -10 -18 0 -37 -8 -45 -17 -12 -16 -12 -17 1 -7 8 6 34 14 58 17 43 5 60 13 51 21 -3 3 -11 1 -19 -4z" transform="translate(0.000000,54.000000) scale(0.100000,-0.100000)" stroke="none" fill="#6E616C"/>

<path d="M211 64 c-19 -13 -29 -24 -24 -24 6 0 22 9 36 20 27 22 52 26 62 10 3 -5 11 -10 18 -10 6 0 2 7 -9 15 -26 20 -43 18 -83 -11z" transform="translate(0.000000,54.000000) scale(0.100000,-0.100000)" stroke="none" fill="#AB9D97"/>

<path d="M430 533 c13 -3 30 -13 38 -24 10 -15 16 -16 26 -6 24 22 6 37 -43 36 -27 -1 -36 -4 -21 -6z" transform="translate(0.000000,54.000000) scale(0.100000,-0.100000)" stroke="none" fill="#272F54"/>

<path d="M540 264 c0 -11 -10 -35 -21 -54 -13 -21 -15 -30 -6 -22 8 7 20 26 27 41 9 22 17 28 33 25 13 -3 16 -1 7 2 -8 4 -21 11 -27 17 -10 7 -13 4 -13 -9z" transform="translate(0.000000,54.000000) scale(0.100000,-0.100000)" stroke="none" fill="#6E616C"/>

<path d="M632 355 c17 -27 12 -49 -12 -55 l-25 -6 24 -13 c13 -7 21 -8 17 -3 -3 6 2 17 13 24 20 14 20 14 -2 39 -12 14 -19 20 -15 14z" transform="translate(0.000000,54.000000) scale(0.100000,-0.100000)" stroke="none" fill="#6E616C"/>

<path d="M593 277 c1 -12 7 -25 12 -29 15 -11 37 -10 30 2 -3 6 -2 10 4 10 5 0 12 -6 14 -12 4 -9 6 -9 6 -1 1 6 -15 20 -34 32 l-35 20 3 -22z" transform="translate(0.000000,54.000000) scale(0.100000,-0.100000)" stroke="none" fill="#AB9D97"/>

<path d="M306 222 c-2 -4 4 -13 15 -20 16 -10 19 -9 19 3 0 16 16 20 24 6 7 -11 46 -2 46 10 0 11 -97 12 -104 1z" transform="translate(0.000000,54.000000) scale(0.100000,-0.100000)" stroke="none" fill="#272F54"/>

<path d="M394 515 c-3 -8 -4 -20 -1 -27 3 -7 6 -3 6 10 1 28 24 29 58 2 23 -18 27 -18 49 -3 13 8 24 18 24 20 0 3 -10 -2 -23 -10 -21 -14 -25 -13 -48 4 -29 22 -58 24 -65 4z" transform="translate(0.000000,54.000000) scale(0.100000,-0.100000)" stroke="none" fill="#6E616C"/>

<path d="M447 364 c-23 -23 7 -69 37 -58 23 9 20 21 -6 20 -14 -1 -24 6 -26 17 -4 19 32 25 41 7 3 -6 4 -5 3 2 -3 14 -38 23 -49 12z" transform="translate(0.000000,54.000000) scale(0.100000,-0.100000)" stroke="none" fill="#AB9D97"/>

<path d="M272 375 c21 -25 70 -34 94 -17 13 8 15 42 2 42 -4 0 -8 -9 -8 -20 0 -16 -7 -20 -33 -20 -21 0 -36 7 -45 20 -7 11 -17 20 -22 20 -5 0 0 -11 12 -25z" transform="translate(0.000000,54.000000) scale(0.100000,-0.100000)" stroke="none" fill="#AB9D97"/>

<path d="M519 243 c-29 -57 -50 -64 -85 -26 l-25 28 22 -32 c15 -21 31 -33 46 -33 25 0 63 50 63 84 0 15 3 16 15 6 13 -11 14 -10 9 4 -10 26 -20 19 -45 -31z" transform="translate(0.000000,54.000000) scale(0.100000,-0.100000)" stroke="none" fill="#AB9D97"/>

<path d="M550 238 c0 -24 -46 -66 -75 -70 l-30 -4 29 -8 c17 -5 31 -5 35 1 3 6 16 15 29 22 12 6 22 18 22 25 0 8 7 16 15 20 22 8 18 26 -5 26 -11 0 -20 -6 -20 -12z" transform="translate(0.000000,54.000000) scale(0.100000,-0.100000)" stroke="none" fill="#272F54"/>

<path d="M526 511 c-4 -5 3 -7 15 -4 28 8 38 -11 33 -64 -4 -39 -1 -47 26 -69 31 -27 39 -59 18 -67 -8 -3 -7 -6 4 -6 9 -1 19 3 22 7 7 12 -21 63 -45 80 -17 12 -19 21 -14 52 4 22 2 47 -5 59 -11 21 -44 28 -54 12z" transform="translate(0.000000,54.000000) scale(0.100000,-0.100000)" stroke="none" fill="#AB9D97"/>

<path d="M0 208 c0 -8 22 -38 50 -68 27 -30 50 -63 50 -74 0 -29 18 -7 26 32 6 28 4 32 -15 32 -11 0 -21 5 -21 10 0 6 -7 10 -16 10 -9 0 -18 8 -21 18 -6 23 -53 58 -53 40z" transform="translate(0.000000,54.000000) scale(0.100000,-0.100000)" stroke="none" fill="#272F54"/>

<path d="M237 50 c-10 -15 -27 -20 -70 -22 -37 -2 -57 -7 -57 -15 0 -18 80 -16 104 2 27 20 86 20 86 0 0 -8 7 -15 15 -15 8 0 15 3 15 8 -1 13 -27 42 -39 42 -6 0 -11 5 -11 10 0 17 -28 11 -43 -10z" transform="translate(0.000000,54.000000) scale(0.100000,-0.100000)" stroke="none" fill="#272F54"/>

<path d="M550 533 c28 -3 38 -10 49 -35 11 -24 11 -35 2 -49 -6 -10 -11 -23 -11 -28 0 -16 72 -81 82 -74 7 4 5 10 -5 18 -22 16 -36 56 -30 87 3 15 -1 41 -8 57 -13 29 -17 31 -64 29 -40 -1 -43 -2 -15 -5z" transform="translate(0.000000,54.000000) scale(0.100000,-0.100000)" stroke="none" fill="#272F54"/>

<path d="M194 365 c-7 -19 -14 -50 -14 -70 0 -34 -1 -35 -40 -35 -40 0 -100 -23 -100 -38 0 -14 64 -71 93 -81 27 -11 37 -43 17 -56 -5 -3 -10 -15 -10 -26 0 -27 29 -24 74 6 43 29 49 30 81 9 34 -22 45 -11 45 47 0 45 -3 52 -30 67 -35 20 -38 37 -8 53 21 11 21 12 -10 25 -32 13 -44 46 -22 59 15 9 12 42 -6 59 -26 27 -54 20 -70 -19z m40 -151 c9 -8 16 -21 16 -29 0 -7 3 -21 7 -31 5 -13 3 -15 -8 -8 -8 5 -23 9 -33 9 -19 0 -41 49 -30 67 8 13 31 9 48 -8z" transform="translate(0.000000,54.000000) scale(0.100000,-0.100000)" stroke="none" fill="#F3F1EE"/>

<path d="M415 483 c-20 -26 -36 -73 -36 -105 0 -20 -33 -32 -70 -26 -17 2 -28 -4 -36 -21 -20 -36 -16 -51 17 -65 17 -7 28 -14 26 -17 -2 -2 15 -2 40 -1 37 3 48 0 72 -25 40 -40 69 -33 93 23 19 43 34 55 41 33 2 -6 14 -1 27 10 13 12 28 21 33 21 19 0 6 40 -22 64 -27 22 -30 30 -26 69 6 63 -15 82 -60 52 -29 -19 -43 -19 -64 0 -14 13 -18 11 -35 -12z m83 -144 c4 -30 -22 -46 -44 -28 -15 12 -19 41 -7 53 16 16 48 1 51 -25z" transform="translate(0.000000,54.000000) scale(0.100000,-0.100000)" stroke="none" fill="#EECB80"/>

</svg>