<?xml version="1.0" standalone="no"?>
<!DOCTYPE svg PUBLIC "-//W3C//DTD SVG 20010904//EN"
 "http://www.w3.org/TR/2001/REC-SVG-20010904/DTD/svg10.dtd">
<svg version="1.0" xmlns="http://www.w3.org/2000/svg" 
width="78.000000pt" height="68.000000pt" viewBox="0 0 78.000000 68.000000"
preserveAspectRatio = "xMidYMid meet" >
<metadata>
Created by ZoeQU, 2022
</metadata>
<rect width="78.000000" height="68.000000" fill="#979798"/>
<path d="M538 553 c-1 -5 -21 -16 -43 -26 -142 -65 -339 -231 -382 -322 -9 -19 -20 -32 -25 -29 -4 3 -8 -2 -8 -10 0 -29 17 -17 40 30 59 113 220 248 389 325 28 12 51 26 51 31 0 10 -17 11 -22 1z" transform="translate(0.000000,68.000000) scale(0.100000,-0.100000)" stroke="none" fill="#585680"/>

<path d="M335 562 c-137 -47 -256 -192 -261 -316 -1 -28 0 -37 2 -21 13 103 85 223 165 276 73 49 117 61 213 61 75 0 77 1 31 8 -73 12 -94 11 -150 -8z" transform="translate(0.000000,68.000000) scale(0.100000,-0.100000)" stroke="none" fill="#585680"/>

<path d="M288 637 c-118 -43 -204 -136 -249 -267 -19 -56 -21 -73 -12 -115 l10 -50 0 71 c0 61 5 81 37 148 45 93 95 145 184 188 60 30 74 33 151 32 68 -1 78 0 46 7 -64 13 -106 9 -167 -14z" transform="translate(0.000000,68.000000) scale(0.100000,-0.100000)" stroke="none" fill="#585680"/>

<path d="M515 633 c11 -2 59 -23 108 -45 64 -31 89 -48 93 -64 9 -35 -3 -44 -59 -44 -146 0 -436 -210 -517 -374 -38 -77 -38 -77 -77 34 -12 36 -23 55 -23 44 0 -22 36 -120 53 -142 16 -20 22 -15 50 47 57 125 184 239 375 337 55 28 90 39 140 43 59 5 67 9 70 28 2 12 -2 31 -8 43 -12 23 -171 101 -203 99 -21 -1 -21 -2 -2 -6z" transform="translate(0.000000,68.000000) scale(0.100000,-0.100000)" stroke="none" fill="#585680"/>

<path d="M319 636 c-110 -29 -191 -100 -245 -213 -32 -66 -37 -85 -36 -144 1 -64 26 -160 56 -217 12 -23 14 -21 46 44 81 164 370 374 517 374 56 0 68 9 59 44 -9 35 -161 103 -256 116 -90 11 -84 12 -141 -4z m219 -73 c33 -8 27 -17 -29 -42 -169 -77 -330 -212 -389 -325 -13 -25 -27 -46 -31 -46 -12 0 -22 85 -15 124 15 78 90 187 165 238 89 62 184 78 299 51z" transform="translate(0.000000,68.000000) scale(0.100000,-0.100000)" stroke="none" fill="#1B1866"/>

</svg>