<?xml version="1.0" standalone="no"?>
<!DOCTYPE svg PUBLIC "-//W3C//DTD SVG 20010904//EN"
 "http://www.w3.org/TR/2001/REC-SVG-20010904/DTD/svg10.dtd">
<svg version="1.0" xmlns="http://www.w3.org/2000/svg" 
width="74.000000pt" height="78.000000pt" viewBox="0 0 74.000000 78.000000"
preserveAspectRatio = "xMidYMid meet" >
<metadata>
Created by ZoeQU, 2022
</metadata>
<rect width="74.000000" height="78.000000" fill="#FBFBFB"/>
<path d="M315 741 c-91 -16 -179 -89 -228 -187 -96 -195 -38 -412 133 -492 46 -22 69 -26 145 -26 75 0 98 4 139 24 71 34 121 87 158 166 30 64 33 77 33 169 0 91 -3 106 -31 165 -36 74 -88 130 -148 158 -47 23 -143 33 -201 23z m169 -66 c54 -26 104 -80 134 -145 21 -45 26 -70 26 -140 0 -73 -4 -92 -26 -135 -25 -48 -91 -118 -133 -141 -47 -25 -124 -37 -173 -25 -150 37 -218 135 -210 304 4 99 28 153 97 221 84 82 192 105 285 61z" transform="translate(0.000000,78.000000) scale(0.100000,-0.100000)" stroke="none" fill="#959FC5"/>

</svg>