<?xml version="1.0" standalone="no"?>
<!DOCTYPE svg PUBLIC "-//W3C//DTD SVG 20010904//EN"
 "http://www.w3.org/TR/2001/REC-SVG-20010904/DTD/svg10.dtd">
<svg version="1.0" xmlns="http://www.w3.org/2000/svg" 
width="106.000000pt" height="88.000000pt" viewBox="0 0 106.000000 88.000000"
preserveAspectRatio = "xMidYMid meet" >
<metadata>
Created by ZoeQU, 2022
</metadata>
<rect width="106.000000" height="88.000000" fill="#F4F2EC"/>
<path d="M451 241 c-1 -31 1 -33 24 -27 20 5 25 3 25 -13 0 -11 5 -23 10 -26 6 -4 10 9 10 30 0 39 1 38 -47 18 -7 -3 -13 7 -16 24 -4 26 -4 26 -6 -6z" transform="translate(0.000000,88.000000) scale(0.100000,-0.100000)" stroke="none" fill="#DBA87C"/>

<path d="M520 145 c0 -6 33 -68 53 -100 14 -23 38 -44 50 -45 5 0 -5 13 -21 30 -17 16 -40 50 -52 75 -20 41 -30 54 -30 40z" transform="translate(0.000000,88.000000) scale(0.100000,-0.100000)" stroke="none" fill="#DBA87C"/>

<path d="M696 695 c-32 -13 -64 -29 -70 -36 -12 -13 -10 -12 55 19 26 12 71 26 100 31 51 8 52 9 14 10 -22 0 -67 -10 -99 -24z" transform="translate(0.000000,88.000000) scale(0.100000,-0.100000)" stroke="none" fill="#DBA87C"/>

<path d="M890 229 c-25 -58 -110 -178 -140 -196 -16 -9 -30 -21 -30 -26 0 -20 72 44 105 93 46 69 89 149 83 156 -3 2 -11 -10 -18 -27z" transform="translate(0.000000,88.000000) scale(0.100000,-0.100000)" stroke="none" fill="#DBA87C"/>

<path d="M875 720 c55 -10 87 -24 108 -48 21 -23 15 -42 -27 -81 -22 -20 -25 -30 -20 -61 4 -21 1 -47 -5 -59 -7 -11 -9 -21 -7 -21 3 0 12 14 21 30 12 23 13 35 4 51 -9 18 -6 26 19 53 41 43 47 67 22 99 -22 28 -76 48 -125 46 -26 -1 -25 -2 10 -9z" transform="translate(0.000000,88.000000) scale(0.100000,-0.100000)" stroke="none" fill="#DBA87C"/>

<path d="M440 710 c0 -11 14 -32 30 -47 17 -14 30 -32 30 -40 0 -20 31 -16 57 9 23 21 34 13 11 -10 -22 -22 2 -26 25 -4 22 20 35 72 19 72 -5 0 -26 -16 -47 -36 l-40 -36 -32 39 c-18 21 -33 46 -33 56 0 9 -4 17 -10 17 -5 0 -10 -9 -10 -20z" transform="translate(0.000000,88.000000) scale(0.100000,-0.100000)" stroke="none" fill="#DBA87C"/>

<path d="M169 357 c-8 -18 -4 -39 18 -102 38 -104 49 -110 110 -59 47 40 113 127 113 151 0 7 -24 13 -62 16 -35 3 -87 8 -116 11 -48 5 -54 4 -63 -17z m168 -4 l62 -5 -16 -31 c-23 -45 -113 -137 -134 -137 -19 0 -37 31 -62 109 -22 67 -15 80 41 74 26 -2 75 -7 109 -10z" transform="translate(0.000000,88.000000) scale(0.100000,-0.100000)" stroke="none" fill="#DBA87C"/>

<path d="M440 333 c-1 -29 -38 -127 -49 -131 -6 -2 -11 -9 -11 -15 -1 -21 -44 -63 -90 -90 -68 -39 -170 -28 -170 19 0 7 -9 28 -20 46 -28 45 -25 26 5 -37 13 -29 32 -55 41 -59 64 -24 182 19 225 83 13 20 29 40 36 44 7 4 13 17 13 27 0 33 22 71 38 65 10 -4 12 0 8 11 -3 8 -6 24 -6 35 0 24 -20 25 -20 2z" transform="translate(0.000000,88.000000) scale(0.100000,-0.100000)" stroke="none" fill="#DBA87C"/>

<path d="M844 616 c-11 -8 -38 -17 -60 -21 -21 -4 -55 -17 -74 -30 -52 -33 -116 -93 -108 -100 4 -4 21 10 39 30 45 51 95 81 151 89 26 4 50 11 53 17 8 12 45 12 45 -1 0 -5 -18 -26 -40 -47 -22 -21 -45 -53 -51 -70 l-11 -32 -81 5 c-56 3 -76 1 -62 -5 11 -5 49 -10 85 -10 l65 -1 22 50 c12 28 28 50 37 50 8 0 24 16 37 36 18 30 19 38 8 45 -20 12 -31 11 -55 -5z" transform="translate(0.000000,88.000000) scale(0.100000,-0.100000)" stroke="none" fill="#DBA87C"/>

<path d="M145 710 c-9 -14 3 -30 23 -29 11 0 12 3 5 6 -15 5 -18 23 -4 23 20 0 128 -72 157 -105 29 -32 54 -92 54 -129 0 -13 -10 -11 -62 13 -35 17 -71 32 -80 35 -12 4 -18 16 -19 38 0 28 -2 30 -9 13 -15 -36 -11 -46 28 -61 20 -8 60 -26 87 -39 52 -26 75 -31 75 -17 0 5 -8 33 -18 64 -21 64 -61 119 -99 139 -16 7 -42 24 -59 36 -32 24 -69 30 -79 13z" transform="translate(0.000000,88.000000) scale(0.100000,-0.100000)" stroke="none" fill="#DBA87C"/>

<path d="M559 358 c-4 -82 15 -162 48 -201 13 -16 23 -35 23 -43 0 -8 10 -14 23 -14 16 1 36 20 72 71 28 38 51 79 53 90 5 28 -15 49 -47 49 -34 0 -113 31 -135 53 -24 23 -36 22 -37 -5z m37 -9 c9 -16 92 -49 122 -49 64 -1 67 -39 7 -110 -20 -24 -40 -51 -46 -61 -11 -21 -39 -26 -39 -7 0 6 -10 25 -23 42 -25 33 -44 98 -46 159 -1 36 11 49 25 26z" transform="translate(0.000000,88.000000) scale(0.100000,-0.100000)" stroke="none" fill="#DBA87C"/>

<path d="M88 801 l-32 -28 23 -66 c19 -57 20 -71 10 -111 -6 -25 -9 -65 -7 -88 3 -31 -2 -56 -19 -89 -27 -56 -28 -74 -7 -151 23 -82 30 -65 8 20 l-18 69 27 55 c19 39 25 64 21 84 -3 17 0 54 6 84 16 74 15 98 -4 119 -21 23 -20 74 2 93 24 21 48 28 59 17 4 -4 33 -10 64 -12 63 -3 123 -34 182 -93 20 -20 37 -33 37 -29 0 16 -93 96 -130 112 -19 9 -57 17 -83 19 -26 2 -56 8 -67 14 -28 15 -37 13 -72 -19z" transform="translate(0.000000,88.000000) scale(0.100000,-0.100000)" stroke="none" fill="#DBA87C"/>

<path d="M130 812 c-48 -16 -67 -77 -34 -113 19 -21 20 -45 4 -119 -6 -30 -9 -67 -6 -84 4 -20 -2 -45 -21 -84 l-26 -54 17 -77 c10 -42 26 -94 37 -116 10 -22 19 -45 19 -51 0 -21 32 -38 78 -41 35 -2 57 4 92 24 46 27 89 69 90 90 0 6 5 13 11 15 11 4 48 102 49 131 0 9 5 17 10 17 11 0 14 -32 10 -94 -2 -32 1 -38 14 -32 9 3 23 9 31 12 12 5 15 -2 15 -34 0 -47 40 -131 83 -173 23 -23 37 -29 73 -29 24 0 44 4 44 8 0 4 13 15 29 25 30 18 93 102 130 175 18 36 20 48 11 89 -10 43 -8 54 21 126 22 56 29 88 25 109 -5 25 0 37 29 69 19 22 35 43 35 47 0 15 -45 49 -81 62 -28 10 -53 10 -114 1 -92 -13 -147 -36 -198 -81 -21 -18 -41 -30 -44 -26 -4 3 -1 12 5 18 23 23 12 31 -11 10 -26 -25 -57 -29 -57 -9 0 8 -14 26 -30 40 -17 15 -30 22 -30 15 0 -6 -17 6 -37 26 -59 59 -119 90 -182 93 -30 2 -59 7 -65 12 -6 5 -18 6 -26 3z m94 -115 c17 -12 43 -29 59 -36 38 -20 78 -75 99 -139 10 -31 18 -59 18 -64 0 -14 -25 -9 -71 15 -24 13 -61 29 -81 36 -48 16 -52 23 -38 65 14 44 -8 106 -39 106 -22 0 -35 15 -26 30 10 17 47 11 79 -13z m675 -76 c11 -7 10 -15 -8 -45 -13 -20 -29 -36 -37 -36 -9 0 -25 -22 -37 -50 l-22 -50 -59 0 c-58 0 -136 17 -136 30 0 4 13 18 29 33 61 54 112 85 152 91 23 4 51 13 62 21 25 17 36 18 56 6z m-551 -258 c38 -3 62 -9 62 -16 0 -24 -66 -111 -113 -151 -61 -51 -72 -45 -110 59 -22 63 -26 84 -18 102 9 21 15 22 63 17 29 -3 81 -8 116 -11z m248 0 c22 -22 101 -53 135 -53 32 0 52 -21 47 -49 -2 -11 -25 -52 -53 -90 -36 -51 -56 -70 -72 -71 -13 0 -23 6 -23 14 0 8 -10 27 -23 43 -24 29 -46 95 -48 148 -3 79 4 90 37 58z" transform="translate(0.000000,88.000000) scale(0.100000,-0.100000)" stroke="none" fill="#BF5D0F"/>

</svg>