<?xml version="1.0" standalone="no"?>
<!DOCTYPE svg PUBLIC "-//W3C//DTD SVG 20010904//EN"
 "http://www.w3.org/TR/2001/REC-SVG-20010904/DTD/svg10.dtd">
<svg version="1.0" xmlns="http://www.w3.org/2000/svg" 
width="102.000000pt" height="64.000000pt" viewBox="0 0 102.000000 64.000000"
preserveAspectRatio = "xMidYMid meet" >
<metadata>
Created by ZoeQU, 2022
</metadata>
<rect width="102.000000" height="64.000000" fill="#F15C26"/>
<path d="M344 482 c-60 -21 -98 -44 -153 -94 -66 -60 -56 -70 44 -41 45 13 97 17 205 17 80 0 132 3 115 7 -65 15 -229 9 -305 -11 -41 -11 -79 -20 -85 -19 -20 0 92 91 145 117 51 24 65 27 180 27 118 0 128 -2 180 -28 76 -40 130 -86 175 -151 36 -52 42 -82 13 -59 -18 15 -174 93 -184 93 -9 0 213 -120 222 -120 23 0 -49 111 -113 172 -26 26 -75 60 -108 75 -53 25 -74 28 -170 31 -85 2 -121 -2 -161 -16z" transform="translate(0.000000,64.000000) scale(0.100000,-0.100000)" stroke="none" fill="#F6A98D"/>

<path d="M385 607 c-80 -21 -132 -53 -209 -130 -90 -89 -123 -145 -132 -221 -7 -59 -7 -59 17 -51 13 4 62 18 109 31 47 12 75 23 63 23 -24 1 -111 -20 -155 -38 l-27 -10 6 52 c12 109 155 270 283 318 44 16 77 20 172 20 150 -1 183 -15 294 -125 93 -93 139 -174 156 -278 11 -69 8 -101 -14 -131 -13 -17 -16 -16 -49 15 -46 42 -185 120 -275 153 -60 22 -89 26 -219 30 l-150 4 140 -9 c104 -6 161 -15 220 -34 87 -28 279 -136 296 -167 25 -47 69 6 69 83 0 111 -66 246 -171 349 -96 95 -155 121 -277 125 -58 2 -117 -2 -147 -9z" transform="translate(0.000000,64.000000) scale(0.100000,-0.100000)" stroke="none" fill="#F6A98D"/>

<path d="M417 599 c-77 -8 -151 -47 -223 -116 -84 -80 -130 -155 -137 -220 l-6 -52 27 10 c93 37 140 43 302 43 146 0 172 -3 230 -23 86 -31 245 -118 289 -159 33 -31 36 -32 49 -15 22 30 25 62 14 131 -18 104 -63 185 -156 278 -45 44 -99 89 -121 99 -45 22 -177 34 -268 24z m258 -132 c33 -15 82 -49 108 -75 64 -62 136 -172 113 -172 -3 0 -52 25 -109 55 -58 31 -131 63 -163 71 -85 23 -310 24 -389 1 -100 -29 -110 -19 -44 41 100 90 165 113 314 110 96 -3 117 -6 170 -31z" transform="translate(0.000000,64.000000) scale(0.100000,-0.100000)" stroke="none" fill="#FCF9F7"/>

</svg>