<?xml version="1.0" standalone="no"?>
<!DOCTYPE svg PUBLIC "-//W3C//DTD SVG 20010904//EN"
 "http://www.w3.org/TR/2001/REC-SVG-20010904/DTD/svg10.dtd">
<svg version="1.0" xmlns="http://www.w3.org/2000/svg" 
width="52.000000pt" height="54.000000pt" viewBox="0 0 52.000000 54.000000"
preserveAspectRatio = "xMidYMid meet" >
<metadata>
Created by ZoeQU, 2022
</metadata>
<rect width="52.000000" height="54.000000" fill="#4B637B"/>
<path d="M429 289 c14 -5 30 -13 36 -17 6 -4 2 1 -8 11 -11 9 -27 17 -36 16 -10 0 -7 -4 8 -10z" transform="translate(0.000000,54.000000) scale(0.100000,-0.100000)" stroke="none" fill="#92A1B9"/>

<path d="M360 258 c0 -2 9 -11 20 -21 11 -9 20 -13 20 -7 0 5 -9 14 -20 20 -11 6 -20 9 -20 8z" transform="translate(0.000000,54.000000) scale(0.100000,-0.100000)" stroke="none" fill="#92A1B9"/>

<path d="M260 365 c0 -14 2 -25 4 -25 2 0 6 11 8 25 3 14 1 25 -3 25 -5 0 -9 -11 -9 -25z" transform="translate(0.000000,54.000000) scale(0.100000,-0.100000)" stroke="none" fill="#BFCADE"/>

<path d="M64 136 c11 -9 27 -16 35 -15 14 0 14 1 1 6 -8 3 -24 10 -35 15 -20 9 -20 9 -1 -6z" transform="translate(0.000000,54.000000) scale(0.100000,-0.100000)" stroke="none" fill="#92A1B9"/>

<path d="M389 343 l-24 -28 28 24 c15 14 27 26 27 28 0 8 -8 1 -31 -24z" transform="translate(0.000000,54.000000) scale(0.100000,-0.100000)" stroke="none" fill="#BFCADE"/>

<path d="M187 133 c-9 -9 -9 -61 1 -66 4 -3 7 12 7 34 0 21 0 39 -1 39 0 0 -4 -3 -7 -7z" transform="translate(0.000000,54.000000) scale(0.100000,-0.100000)" stroke="none" fill="#92A1B9"/>

<path d="M80 280 c-13 -9 -13 -10 0 -9 8 1 26 5 40 9 l25 8 -25 1 c-14 0 -32 -4 -40 -9z" transform="translate(0.000000,54.000000) scale(0.100000,-0.100000)" stroke="none" fill="#BFCADE"/>

<path d="M468 278 c5 -7 12 -22 15 -33 4 -16 5 -14 6 6 1 17 -5 29 -15 33 -13 5 -14 3 -6 -6z" transform="translate(0.000000,54.000000) scale(0.100000,-0.100000)" stroke="none" fill="#6E7C96"/>

<path d="M86 451 c-10 -11 -16 -28 -13 -38 4 -17 5 -17 6 1 0 11 8 28 18 38 9 10 14 18 11 18 -3 0 -13 -9 -22 -19z" transform="translate(0.000000,54.000000) scale(0.100000,-0.100000)" stroke="none" fill="#6E7C96"/>

<path d="M383 249 c9 -5 17 -14 17 -19 0 -5 -8 -11 -17 -13 -14 -4 -12 -5 5 -6 26 -1 32 33 6 43 -24 9 -31 7 -11 -5z" transform="translate(0.000000,54.000000) scale(0.100000,-0.100000)" stroke="none" fill="#BFCADE"/>

<path d="M457 186 c-3 -8 -18 -16 -34 -19 l-28 -4 26 -2 c25 -1 58 23 47 35 -3 3 -8 -2 -11 -10z" transform="translate(0.000000,54.000000) scale(0.100000,-0.100000)" stroke="none" fill="#92A1B9"/>

<path d="M132 498 c-7 -7 -12 -16 -12 -22 0 -5 6 -2 13 6 6 9 26 19 42 21 l30 4 -30 2 c-17 0 -36 -4 -43 -11z" transform="translate(0.000000,54.000000) scale(0.100000,-0.100000)" stroke="none" fill="#6E7C96"/>

<path d="M114 228 c4 -19 43 -21 68 -4 12 9 17 16 11 16 -7 0 -15 -4 -18 -10 -8 -13 -52 -13 -58 0 -3 6 -4 5 -3 -2z" transform="translate(0.000000,54.000000) scale(0.100000,-0.100000)" stroke="none" fill="#BFCADE"/>

<path d="M353 288 c-26 -13 -30 -28 -7 -28 8 0 13 4 9 10 -3 5 9 14 27 19 19 5 24 9 13 9 -11 1 -30 -4 -42 -10z" transform="translate(0.000000,54.000000) scale(0.100000,-0.100000)" stroke="none" fill="#BFCADE"/>

<path d="M163 306 c15 -15 27 -32 27 -38 0 -6 3 -9 6 -6 9 10 -15 47 -39 59 -19 9 -18 7 6 -15z" transform="translate(0.000000,54.000000) scale(0.100000,-0.100000)" stroke="none" fill="#92A1B9"/>

<path d="M430 420 c4 -16 5 -32 2 -36 -4 -4 -1 -4 6 0 17 10 15 53 -2 59 -11 5 -13 0 -6 -23z" transform="translate(0.000000,54.000000) scale(0.100000,-0.100000)" stroke="none" fill="#6E7C96"/>

<path d="M330 253 c0 -10 52 -34 59 -28 6 7 -31 34 -46 35 -7 0 -13 -3 -13 -7z" transform="translate(0.000000,54.000000) scale(0.100000,-0.100000)" stroke="none" fill="#6E7C96"/>

<path d="M171 373 c0 -10 3 -13 6 -5 9 24 25 12 19 -15 -3 -16 -3 -22 0 -15 3 6 10 10 15 7 5 -4 5 4 0 17 -10 29 -41 37 -40 11z" transform="translate(0.000000,54.000000) scale(0.100000,-0.100000)" stroke="none" fill="#BFCADE"/>

<path d="M304 448 l-29 -33 30 27 c17 14 39 28 50 31 19 5 19 5 -1 6 -11 0 -33 -13 -50 -31z" transform="translate(0.000000,54.000000) scale(0.100000,-0.100000)" stroke="none" fill="#92A1B9"/>

<path d="M181 191 c-19 -25 -27 -40 -17 -32 20 17 60 71 55 75 -2 2 -19 -18 -38 -43z" transform="translate(0.000000,54.000000) scale(0.100000,-0.100000)" stroke="none" fill="#BFCADE"/>

<path d="M63 287 c-18 -12 -33 -25 -33 -29 0 -6 64 33 79 48 13 12 -18 0 -46 -19z" transform="translate(0.000000,54.000000) scale(0.100000,-0.100000)" stroke="none" fill="#6E7C96"/>

<path d="M31 182 c-1 -25 40 -72 61 -72 7 1 1 7 -14 16 -16 8 -31 28 -37 47 -7 25 -9 27 -10 9z" transform="translate(0.000000,54.000000) scale(0.100000,-0.100000)" stroke="none" fill="#6E7C96"/>

<path d="M390 333 c-34 -32 -35 -33 -10 -32 14 0 19 3 11 6 -9 4 -5 12 15 28 16 13 27 25 24 27 -3 2 -21 -11 -40 -29z" transform="translate(0.000000,54.000000) scale(0.100000,-0.100000)" stroke="none" fill="#6E7C96"/>

<path d="M146 245 c-22 -17 -17 -29 8 -19 9 3 13 11 10 16 -4 6 2 8 15 3 12 -4 21 -2 21 4 0 16 -32 13 -54 -4z" transform="translate(0.000000,54.000000) scale(0.100000,-0.100000)" stroke="none" fill="#6E7C96"/>

<path d="M180 366 c0 -8 7 -16 15 -19 8 -4 12 -15 10 -27 -4 -22 2 -25 25 -10 13 8 12 10 -2 10 -10 0 -18 3 -17 8 1 4 -2 17 -6 30 -8 24 -25 30 -25 8z" transform="translate(0.000000,54.000000) scale(0.100000,-0.100000)" stroke="none" fill="#92A1B9"/>

<path d="M355 310 c-3 -5 -18 -11 -33 -11 -15 -1 -20 -3 -11 -6 10 -2 15 -13 14 -26 -1 -12 0 -14 2 -5 2 9 12 20 22 23 10 3 18 12 18 20 0 18 -3 19 -12 5z" transform="translate(0.000000,54.000000) scale(0.100000,-0.100000)" stroke="none" fill="#92A1B9"/>

<path d="M309 373 c-13 -16 -12 -17 4 -4 27 21 32 6 8 -27 -12 -17 -21 -34 -21 -38 0 -5 11 8 25 29 24 34 26 57 6 57 -5 0 -15 -8 -22 -17z" transform="translate(0.000000,54.000000) scale(0.100000,-0.100000)" stroke="none" fill="#BFCADE"/>

<path d="M300 254 c0 -15 22 -43 47 -58 l28 -17 -25 22 c-14 12 -24 26 -22 30 1 5 -3 9 -9 9 -5 0 -7 5 -4 10 3 6 1 10 -4 10 -6 0 -11 -3 -11 -6z" transform="translate(0.000000,54.000000) scale(0.100000,-0.100000)" stroke="none" fill="#BFCADE"/>

<path d="M462 222 c-11 -35 -17 -41 -45 -45 l-32 -4 33 -1 c29 -2 35 2 48 34 8 20 13 41 12 46 -2 6 -9 -7 -16 -30z" transform="translate(0.000000,54.000000) scale(0.100000,-0.100000)" stroke="none" fill="#BFCADE"/>

<path d="M465 188 c-8 -19 -18 -23 -49 -22 -24 1 -33 -2 -25 -7 23 -15 55 -10 73 10 10 11 16 25 14 31 -2 6 -8 0 -13 -12z" transform="translate(0.000000,54.000000) scale(0.100000,-0.100000)" stroke="none" fill="#6E7C96"/>

<path d="M284 328 c-4 -5 -13 -7 -21 -4 -8 3 -21 -1 -29 -9 -9 -8 -11 -15 -6 -15 5 0 12 3 16 7 9 10 39 10 46 1 3 -4 11 1 17 11 9 14 8 18 -3 18 -8 0 -17 -4 -20 -9z" transform="translate(0.000000,54.000000) scale(0.100000,-0.100000)" stroke="none" fill="#6E7C96"/>

<path d="M205 209 c-6 -8 -4 -10 5 -4 8 5 11 3 8 -6 -3 -8 -9 -14 -14 -14 -5 0 -22 -10 -38 -22 -16 -13 -24 -23 -19 -23 5 0 18 9 28 20 13 14 21 17 26 9 4 -8 11 -4 19 11 13 24 -1 52 -15 29z" transform="translate(0.000000,54.000000) scale(0.100000,-0.100000)" stroke="none" fill="#92A1B9"/>

<path d="M241 383 c0 -30 3 -53 9 -53 6 0 10 14 10 30 0 17 5 30 10 30 6 0 10 4 10 10 0 5 -6 7 -14 4 -8 -3 -16 2 -19 13 -3 10 -5 -6 -6 -34z" transform="translate(0.000000,54.000000) scale(0.100000,-0.100000)" stroke="none" fill="#92A1B9"/>

<path d="M304 438 l-29 -32 33 27 c35 28 57 34 67 17 3 -5 11 -10 16 -10 6 0 4 7 -5 15 -23 23 -50 18 -82 -17z" transform="translate(0.000000,54.000000) scale(0.100000,-0.100000)" stroke="none" fill="#BFCADE"/>

<path d="M176 308 c3 -4 -3 -8 -12 -8 -16 0 -16 -1 2 -15 16 -12 16 -14 3 -15 -9 0 -23 -8 -30 -17 -11 -15 -11 -16 1 -5 8 6 23 12 33 12 14 0 17 5 13 16 -4 10 0 21 9 28 14 10 14 12 -4 12 -11 0 -17 -4 -15 -8z" transform="translate(0.000000,54.000000) scale(0.100000,-0.100000)" stroke="none" fill="#BFCADE"/>

<path d="M97 452 c-23 -25 -21 -55 4 -83 l21 -24 -16 25 c-22 34 -20 66 6 84 12 9 18 16 12 16 -6 0 -18 -8 -27 -18z" transform="translate(0.000000,54.000000) scale(0.100000,-0.100000)" stroke="none" fill="#92A1B9"/>

<path d="M41 208 c-3 -54 45 -93 86 -69 15 9 12 10 -13 5 -34 -6 -50 7 -64 53 -4 15 -9 20 -9 11z" transform="translate(0.000000,54.000000) scale(0.100000,-0.100000)" stroke="none" fill="#BFCADE"/>

<path d="M304 458 l-29 -33 32 29 c24 22 38 27 57 22 14 -3 26 -11 26 -16 0 -6 6 -10 13 -10 18 1 -33 40 -52 40 -10 0 -30 -15 -47 -32z" transform="translate(0.000000,54.000000) scale(0.100000,-0.100000)" stroke="none" fill="#6E7C96"/>

<path d="M305 71 c-7 -21 -38 -36 -55 -26 -16 10 -74 25 -66 18 13 -14 82 -32 99 -27 18 6 42 42 34 51 -3 2 -8 -5 -12 -16z" transform="translate(0.000000,54.000000) scale(0.100000,-0.100000)" stroke="none" fill="#6E7C96"/>

<path d="M122 466 c-24 -25 -32 -41 -29 -58 l4 -23 2 23 c1 29 53 82 79 82 11 0 26 -8 33 -18 13 -15 13 -15 3 3 -19 33 -55 30 -92 -9z" transform="translate(0.000000,54.000000) scale(0.100000,-0.100000)" stroke="none" fill="#BFCADE"/>

<path d="M206 156 c-21 -44 -21 -85 0 -93 33 -12 87 -8 91 7 4 12 3 12 -5 1 -7 -9 -21 -11 -52 -6 l-42 7 6 41 c4 23 12 47 18 54 6 8 9 16 6 19 -3 2 -13 -11 -22 -30z" transform="translate(0.000000,54.000000) scale(0.100000,-0.100000)" stroke="none" fill="#BFCADE"/>

<path d="M290 249 c0 -5 -5 -7 -10 -4 -13 8 -56 -26 -95 -73 -16 -21 -21 -30 -10 -22 17 14 18 13 12 -3 -4 -11 -3 -16 3 -12 6 3 10 14 10 23 1 19 14 37 47 66 19 15 25 16 38 6 13 -10 15 -9 15 9 0 11 -2 21 -5 21 -3 0 -5 -5 -5 -11z" transform="translate(0.000000,54.000000) scale(0.100000,-0.100000)" stroke="none" fill="#6E7C96"/>

<path d="M270 237 c0 -4 10 -15 21 -26 19 -17 21 -28 17 -80 -2 -34 -1 -56 4 -49 4 7 8 37 8 66 0 51 1 52 23 41 17 -9 15 -6 -8 17 -16 16 -32 25 -33 21 -2 -4 -10 -3 -18 4 -8 6 -14 9 -14 6z" transform="translate(0.000000,54.000000) scale(0.100000,-0.100000)" stroke="none" fill="#92A1B9"/>

<path d="M264 233 c4 -8 2 -13 -8 -13 -8 0 -18 -5 -22 -12 -4 -6 -3 -8 4 -5 18 12 42 -4 42 -28 0 -34 -20 -42 -21 -8 l0 28 -10 -24 c-6 -16 -6 -28 0 -34 15 -15 41 11 42 42 0 23 1 24 9 6 6 -13 9 -15 9 -5 0 8 -11 26 -26 40 -15 14 -23 19 -19 13z" transform="translate(0.000000,54.000000) scale(0.100000,-0.100000)" stroke="none" fill="#BFCADE"/>

<path d="M360 280 c-12 -7 -8 -12 18 -21 21 -7 32 -18 32 -30 0 -23 -22 -24 -54 -3 -35 22 -40 1 -6 -24 17 -13 44 -22 64 -22 29 0 36 4 45 31 16 47 14 54 -22 67 -40 14 -57 15 -77 2z" transform="translate(0.000000,54.000000) scale(0.100000,-0.100000)" stroke="none" fill="#E7F0FB"/>

<path d="M226 178 c-9 -17 -19 -48 -22 -68 -6 -35 -5 -37 26 -44 48 -9 57 -8 64 11 13 34 16 80 7 104 l-10 24 0 -26 c-1 -29 -24 -54 -41 -44 -10 6 -8 22 7 63 11 27 -16 10 -31 -20z" transform="translate(0.000000,54.000000) scale(0.100000,-0.100000)" stroke="none" fill="#E7F0FB"/>

<path d="M312 435 c-17 -14 -34 -41 -40 -65 -12 -49 -5 -50 30 -8 20 25 30 30 39 21 9 -9 6 -19 -11 -43 -26 -36 -22 -47 12 -30 80 42 102 106 46 134 -40 21 -41 20 -76 -9z" transform="translate(0.000000,54.000000) scale(0.100000,-0.100000)" stroke="none" fill="#E7F0FB"/>

<path d="M103 277 c-60 -17 -67 -26 -54 -75 6 -22 18 -45 26 -52 23 -19 72 -2 105 38 36 44 39 60 5 38 -28 -18 -61 -21 -70 -6 -7 12 33 49 53 50 7 0 10 5 7 10 -7 12 -17 12 -72 -3z" transform="translate(0.000000,54.000000) scale(0.100000,-0.100000)" stroke="none" fill="#E7F0FB"/>

<path d="M128 460 c-32 -33 -35 -60 -12 -96 18 -26 72 -60 81 -50 3 3 -2 17 -11 30 -20 32 -20 46 0 46 8 0 20 -13 25 -30 17 -46 28 -36 25 23 -3 61 -29 107 -60 107 -11 -1 -33 -14 -48 -30z" transform="translate(0.000000,54.000000) scale(0.100000,-0.100000)" stroke="none" fill="#E7F0FB"/>

</svg>