<?xml version="1.0" standalone="no"?>
<!DOCTYPE svg PUBLIC "-//W3C//DTD SVG 20010904//EN"
 "http://www.w3.org/TR/2001/REC-SVG-20010904/DTD/svg10.dtd">
<svg version="1.0" xmlns="http://www.w3.org/2000/svg" 
width="90.000000pt" height="52.000000pt" viewBox="0 0 90.000000 52.000000"
preserveAspectRatio = "xMidYMid meet" >
<metadata>
Created by ZoeQU, 2022
</metadata>
<rect width="90.000000" height="52.000000" fill="#292627"/>
<path d="M525 69 c22 -4 51 -8 65 -7 16 0 11 3 -15 9 -22 4 -51 8 -65 7 -16 0 -11 -3 15 -9z" transform="translate(0.000000,52.000000) scale(0.100000,-0.100000)" stroke="none" fill="#655361"/>

<path d="M847 108 c4 -31 3 -38 -11 -38 -9 0 -16 -5 -16 -10 0 -7 6 -7 20 0 21 11 26 45 10 70 -6 10 -8 3 -3 -22z" transform="translate(0.000000,52.000000) scale(0.100000,-0.100000)" stroke="none" fill="#655361"/>

<path d="M841 103 c-1 -15 -9 -24 -23 -27 -55 -12 -60 -15 -20 -12 52 5 55 7 49 38 -4 23 -4 23 -6 1z" transform="translate(0.000000,52.000000) scale(0.100000,-0.100000)" stroke="none" fill="#A793A2"/>

<path d="M803 244 c0 -36 6 -59 20 -75 l19 -24 -17 28 c-9 16 -14 34 -12 41 3 7 2 28 -3 47 -7 31 -7 29 -7 -17z" transform="translate(0.000000,52.000000) scale(0.100000,-0.100000)" stroke="none" fill="#655361"/>

<path d="M752 317 c24 -14 39 -31 41 -47 l4 -25 2 27 c1 20 -7 31 -33 47 -18 12 -37 21 -42 21 -5 -1 8 -11 28 -23z" transform="translate(0.000000,52.000000) scale(0.100000,-0.100000)" stroke="none" fill="#A793A2"/>

<path d="M609 66 c38 -8 75 -10 90 -5 23 7 23 7 -9 7 -19 -1 -60 2 -90 5 -55 7 -55 7 9 -7z" transform="translate(0.000000,52.000000) scale(0.100000,-0.100000)" stroke="none" fill="#A793A2"/>

<path d="M465 489 c11 -4 47 -8 80 -8 75 1 61 6 -30 12 -41 3 -62 1 -50 -4z" transform="translate(0.000000,52.000000) scale(0.100000,-0.100000)" stroke="none" fill="#655361"/>

<path d="M330 113 c14 -3 45 -11 69 -19 24 -8 45 -13 48 -11 7 7 -94 37 -119 36 -22 -2 -22 -2 2 -6z" transform="translate(0.000000,52.000000) scale(0.100000,-0.100000)" stroke="none" fill="#655361"/>

<path d="M649 48 c12 -4 34 -5 48 -2 16 4 28 2 33 -6 10 -15 40 -6 40 12 0 10 -3 9 -9 -1 -7 -11 -13 -12 -23 -4 -7 6 -35 11 -62 11 -39 -1 -45 -3 -27 -10z" transform="translate(0.000000,52.000000) scale(0.100000,-0.100000)" stroke="none" fill="#655361"/>

<path d="M365 461 c-35 -22 -69 -58 -79 -84 -4 -13 -2 -17 6 -15 7 3 15 13 17 24 4 26 30 53 71 75 19 10 31 18 25 19 -5 0 -23 -8 -40 -19z" transform="translate(0.000000,52.000000) scale(0.100000,-0.100000)" stroke="none" fill="#655361"/>

<path d="M380 461 c-42 -22 -65 -48 -73 -78 -8 -36 8 -27 22 12 9 26 25 42 59 60 26 13 43 24 37 24 -5 0 -26 -8 -45 -18z" transform="translate(0.000000,52.000000) scale(0.100000,-0.100000)" stroke="none" fill="#A793A2"/>

<path d="M620 470 c8 -5 23 -10 32 -10 20 0 58 -38 58 -58 0 -8 -9 -16 -20 -19 -11 -3 -20 -8 -20 -12 0 -3 29 -20 65 -37 36 -18 62 -27 59 -22 -4 6 -27 19 -51 30 -36 16 -42 22 -32 34 16 19 3 61 -24 78 -26 16 -90 32 -67 16z" transform="translate(0.000000,52.000000) scale(0.100000,-0.100000)" stroke="none" fill="#655361"/>

<path d="M201 326 c-6 -8 -25 -19 -41 -26 -16 -7 -32 -21 -35 -31 -4 -11 -20 -26 -36 -34 -39 -21 -41 -66 -4 -83 37 -17 45 -14 13 4 -38 20 -39 61 -2 70 14 4 29 17 34 30 5 13 24 31 42 40 18 9 35 20 38 24 3 4 12 10 20 13 13 4 12 6 -1 6 -9 1 -22 -5 -28 -13z" transform="translate(0.000000,52.000000) scale(0.100000,-0.100000)" stroke="none" fill="#A793A2"/>

<path d="M215 136 c39 -8 86 -15 105 -15 19 -1 60 -10 90 -21 30 -11 73 -19 95 -19 39 2 39 2 -10 9 -27 4 -70 14 -95 22 -42 15 -78 20 -205 33 -40 4 -36 2 20 -9z" transform="translate(0.000000,52.000000) scale(0.100000,-0.100000)" stroke="none" fill="#A793A2"/>

<path d="M455 480 c11 -5 47 -9 80 -9 88 -2 165 -33 165 -67 0 -8 -9 -14 -19 -14 -23 0 -37 -18 -25 -30 5 -4 20 -11 34 -14 25 -6 25 -6 3 5 -26 14 -30 29 -9 29 23 0 30 20 16 45 -9 16 -30 29 -64 39 -55 16 -215 30 -181 16z" transform="translate(0.000000,52.000000) scale(0.100000,-0.100000)" stroke="none" fill="#A793A2"/>

<path d="M235 352 c-41 -14 -114 -64 -120 -83 -4 -10 -12 -19 -19 -19 -21 0 -46 -35 -46 -63 0 -37 37 -53 140 -59 47 -3 72 -2 55 2 -16 4 -53 8 -82 9 -72 1 -103 17 -103 52 0 21 7 32 29 44 16 8 32 23 35 33 4 10 21 26 39 35 17 9 39 21 47 26 8 5 26 14 40 19 27 12 17 14 -15 4z" transform="translate(0.000000,52.000000) scale(0.100000,-0.100000)" stroke="none" fill="#655361"/>

<path d="M388 454 c-34 -17 -50 -33 -59 -57 -10 -28 -21 -37 -63 -52 -28 -10 -53 -21 -56 -25 -3 -4 -20 -15 -38 -24 -18 -9 -37 -27 -42 -40 -5 -13 -20 -26 -34 -30 -19 -5 -26 -13 -26 -31 0 -33 32 -49 100 -50 88 -2 181 -16 240 -35 51 -16 195 -39 280 -44 19 -2 43 -6 53 -10 10 -5 17 -4 17 3 0 6 11 11 24 11 61 0 72 30 34 90 -12 19 -22 46 -23 60 -1 14 -3 37 -3 51 -2 21 -13 31 -54 51 -29 14 -61 29 -71 32 -24 8 -17 30 11 34 26 4 28 24 5 44 -26 21 -88 36 -173 42 -65 3 -81 1 -122 -20z" transform="translate(0.000000,52.000000) scale(0.100000,-0.100000)" stroke="none" fill="#E0BFD8"/>

</svg>