<?xml version="1.0" standalone="no"?>
<!DOCTYPE svg PUBLIC "-//W3C//DTD SVG 20010904//EN"
 "http://www.w3.org/TR/2001/REC-SVG-20010904/DTD/svg10.dtd">
<svg version="1.0" xmlns="http://www.w3.org/2000/svg" 
width="126.000000pt" height="127.000000pt" viewBox="0 0 126.000000 127.000000"
preserveAspectRatio = "xMidYMid meet" >
<metadata>
Created by ZoeQU, 2022
</metadata>
<rect width="126.000000" height="127.000000" fill="#9CE5FF"/>
<path d="M564 1164 c-19 -28 -44 -115 -44 -151 0 -13 -3 -23 -6 -23 -4 0 -33 25 -67 56 -67 62 -117 90 -142 80 -26 -10 -15 -94 23 -166 17 -33 30 -60 29 -60 -1 0 -24 7 -51 15 -27 8 -72 15 -101 15 -82 0 -97 -34 -43 -96 18 -20 54 -51 81 -69 l50 -34 -39 -6 c-84 -14 -100 -18 -137 -37 -82 -41 -22 -106 120 -130 l72 -12 -73 -70 c-79 -77 -103 -122 -82 -152 19 -26 88 -19 163 15 35 17 63 28 63 27 0 -2 -7 -20 -15 -40 -24 -58 -36 -133 -25 -161 20 -51 91 -20 161 72 l44 56 7 -77 c11 -117 52 -172 98 -131 27 24 57 101 71 179 l11 68 57 -55 c126 -124 231 -155 231 -68 0 19 -42 107 -73 153 l-19 27 39 -11 c21 -6 66 -11 100 -11 98 -1 120 35 59 97 -19 19 -58 47 -85 63 -28 15 -51 31 -51 34 0 4 19 10 43 13 61 9 144 50 152 76 14 45 -44 77 -160 87 l-74 6 53 58 c143 154 111 236 -60 155 -41 -19 -74 -33 -74 -31 0 2 7 34 16 72 23 99 3 162 -46 145 -25 -8 -79 -64 -113 -116 l-31 -49 -12 65 c-17 91 -47 148 -79 148 -15 0 -31 -10 -41 -26z" transform="translate(0.000000,127.000000) scale(0.100000,-0.100000)" stroke="none" fill="#FEFEF1"/>

</svg>