<?xml version="1.0" standalone="no"?>
<!DOCTYPE svg PUBLIC "-//W3C//DTD SVG 20010904//EN"
 "http://www.w3.org/TR/2001/REC-SVG-20010904/DTD/svg10.dtd">
<svg version="1.0" xmlns="http://www.w3.org/2000/svg" 
width="92.000000pt" height="88.000000pt" viewBox="0 0 92.000000 88.000000"
preserveAspectRatio = "xMidYMid meet" >
<metadata>
Created by ZoeQU, 2022
</metadata>
<rect width="92.000000" height="88.000000" fill="#FEF8AD"/>
<path d="M279 803 c-22 -58 -72 -203 -116 -337 -32 -95 -43 -141 -35 -144 18 -6 14 -19 -5 -24 -11 -3 -23 -23 -32 -54 -7 -27 -22 -76 -32 -108 -22 -68 -24 -96 -8 -96 17 0 256 38 318 51 48 10 59 9 101 -11 l48 -22 31 23 c17 12 33 30 36 39 3 11 46 26 145 49 77 19 140 38 140 42 0 5 -29 41 -66 80 l-65 72 25 26 c25 26 35 61 17 61 -4 0 -6 11 -4 24 4 18 -2 29 -20 40 -27 18 -57 12 -57 -11 0 -10 -6 -12 -20 -8 -12 4 -27 2 -33 -4 -10 -8 -54 34 -175 164 -90 96 -167 175 -173 175 -5 0 -14 -12 -20 -27z m21 -213 c0 -5 -2 -10 -4 -10 -3 0 -8 5 -11 10 -3 6 -1 10 4 10 6 0 11 -4 11 -10z m0 -100 c0 -5 -4 -10 -10 -10 -5 0 -10 5 -10 10 0 6 5 10 10 10 6 0 10 -4 10 -10z m380 -19 c0 -6 -4 -13 -10 -16 -5 -3 -10 1 -10 9 0 9 5 16 10 16 6 0 10 -4 10 -9z" transform="translate(0.000000,88.000000) scale(0.100000,-0.100000)" stroke="none" fill="#489C5C"/>

</svg>