<?xml version="1.0" standalone="no"?>
<!DOCTYPE svg PUBLIC "-//W3C//DTD SVG 20010904//EN"
 "http://www.w3.org/TR/2001/REC-SVG-20010904/DTD/svg10.dtd">
<svg version="1.0" xmlns="http://www.w3.org/2000/svg" 
width="150.000000pt" height="102.000000pt" viewBox="0 0 150.000000 102.000000"
preserveAspectRatio = "xMidYMid meet" >
<metadata>
Created by ZoeQU, 2022
</metadata>
<rect width="150.000000" height="102.000000" fill="#EDCDBC"/>
<path d="M623 466 c-27 -13 -31 -57 -8 -76 8 -7 15 -18 15 -25 0 -6 10 -20 21 -31 12 -10 30 -37 40 -59 22 -47 26 -33 5 16 -8 19 -24 40 -35 47 -12 7 -21 18 -21 26 0 7 -7 19 -15 26 -22 18 -18 49 8 71 25 21 23 22 -10 5z" transform="translate(0.000000,102.000000) scale(0.100000,-0.100000)" stroke="none" fill="#BC8F8A"/>

<path d="M1066 770 c3 -14 9 -70 13 -125 5 -91 8 -100 26 -100 11 0 20 7 21 15 1 10 -1 10 -3 2 -3 -7 -10 -11 -16 -9 -8 3 -11 27 -9 73 2 52 -2 81 -18 119 -11 28 -18 39 -14 25z" transform="translate(0.000000,102.000000) scale(0.100000,-0.100000)" stroke="none" fill="#BC8F8A"/>

<path d="M1357 554 c-4 -4 -2 -12 3 -19 12 -14 -2 -69 -24 -91 -17 -17 -21 -34 -8 -34 13 0 69 63 76 86 4 14 -1 27 -17 42 -13 12 -26 19 -30 16z" transform="translate(0.000000,102.000000) scale(0.100000,-0.100000)" stroke="none" fill="#8E5459"/>

<path d="M1166 603 c-13 -13 -20 -15 -23 -5 -5 14 -23 17 -23 3 0 -17 33 -21 50 -6 9 8 20 15 23 15 14 0 6 -38 -13 -63 -24 -30 -25 -41 -6 -56 11 -10 16 -8 24 6 6 9 25 23 44 29 24 9 27 13 12 13 -12 1 -33 -8 -47 -19 -14 -11 -28 -20 -31 -20 -12 0 -5 23 14 47 22 29 27 73 7 73 -7 0 -21 -8 -31 -17z" transform="translate(0.000000,102.000000) scale(0.100000,-0.100000)" stroke="none" fill="#BC8F8A"/>

<path d="M726 580 c-41 -46 -43 -56 -17 -84 13 -15 17 -30 14 -53 -6 -35 -23 -46 -23 -14 0 27 -10 51 -21 51 -6 0 -5 -9 1 -20 6 -11 8 -20 5 -20 -3 0 -1 -9 5 -20 18 -33 37 -24 44 22 6 36 4 45 -15 59 -26 19 -19 52 16 75 20 13 42 44 31 44 -2 0 -20 -18 -40 -40z" transform="translate(0.000000,102.000000) scale(0.100000,-0.100000)" stroke="none" fill="#BC8F8A"/>

<path d="M531 808 c-14 -23 -13 -23 7 -5 28 26 34 8 17 -49 -8 -27 -15 -84 -15 -126 0 -45 -4 -78 -10 -78 -5 0 -10 8 -10 19 0 21 -36 71 -52 71 -6 0 1 -11 16 -25 15 -14 26 -35 26 -50 0 -20 4 -26 18 -23 14 3 18 18 23 98 3 52 12 110 18 128 22 55 -9 87 -38 40z" transform="translate(0.000000,102.000000) scale(0.100000,-0.100000)" stroke="none" fill="#BC8F8A"/>

<path d="M974 468 l-19 -23 22 18 c27 24 43 15 43 -24 0 -28 -15 -55 -76 -138 -13 -19 -22 -41 -19 -49 3 -7 5 -22 5 -31 0 -24 45 -71 67 -70 15 0 14 2 -3 9 -32 13 -54 50 -54 91 0 28 11 49 51 99 41 52 49 68 44 89 -7 28 -23 51 -35 51 -4 0 -15 -10 -26 -22z" transform="translate(0.000000,102.000000) scale(0.100000,-0.100000)" stroke="none" fill="#BC8F8A"/>

<path d="M664 818 c-4 -6 3 -19 16 -30 13 -11 25 -26 26 -35 1 -8 9 -22 18 -31 8 -10 22 -31 30 -47 9 -17 16 -24 16 -16 0 8 -11 29 -25 47 -14 18 -25 42 -25 53 0 11 -9 22 -20 26 -31 10 -25 37 7 33 19 -2 32 -12 41 -30 15 -33 37 -36 52 -8 6 11 15 20 20 20 5 0 12 -9 15 -20 9 -29 28 -25 55 13 19 26 20 29 4 17 -10 -8 -23 -21 -27 -28 -11 -17 -27 -6 -27 19 0 26 -12 24 -43 -7 l-25 -25 -18 30 c-14 24 -25 31 -51 31 -17 0 -35 -5 -39 -12z" transform="translate(0.000000,102.000000) scale(0.100000,-0.100000)" stroke="none" fill="#BC8F8A"/>

<path d="M178 643 c-4 -15 -12 -19 -39 -16 -20 3 -42 -2 -54 -10 -17 -13 -18 -18 -7 -41 6 -14 20 -26 29 -26 42 -1 47 -17 13 -47 -32 -28 -32 -29 -17 -64 19 -47 104 -89 121 -60 3 4 -5 6 -17 4 -31 -5 -68 17 -88 54 l-18 32 31 26 c25 21 30 30 21 43 -5 10 -19 18 -31 20 -32 5 -47 28 -31 48 9 11 24 15 50 11 46 -6 65 4 52 28 -9 16 -10 16 -15 -2z" transform="translate(0.000000,102.000000) scale(0.100000,-0.100000)" stroke="none" fill="#BC8F8A"/>

<path d="M951 812 l22 -19 -32 -6 c-29 -6 -32 -10 -27 -30 4 -18 -2 -31 -24 -52 -26 -25 -29 -33 -24 -69 5 -28 15 -48 35 -64 34 -27 36 -48 10 -76 -13 -15 -17 -31 -14 -58 6 -41 18 -47 49 -22 18 14 18 15 -4 4 -28 -14 -27 -14 -35 28 -5 25 -2 35 13 44 29 18 25 50 -10 83 -40 38 -42 91 -5 125 17 16 25 33 23 50 -3 21 2 26 25 28 15 2 27 6 27 8 0 16 -23 44 -36 44 -12 0 -11 -5 7 -18z" transform="translate(0.000000,102.000000) scale(0.100000,-0.100000)" stroke="none" fill="#BC8F8A"/>

<path d="M1298 540 c27 -11 28 -24 4 -58 -10 -15 -22 -35 -25 -44 -4 -10 -16 -18 -27 -18 -13 0 -20 -7 -20 -20 0 -15 7 -20 25 -20 40 0 104 -32 107 -54 2 -11 16 -27 32 -36 37 -20 44 -40 17 -47 -26 -7 -26 -17 0 -60 l22 -35 -39 4 c-33 2 -39 0 -42 -18 -2 -11 4 -33 13 -50 13 -25 15 -26 15 -7 0 12 -4 25 -10 28 -5 3 -10 13 -10 21 0 10 12 14 40 14 22 0 40 2 40 5 0 2 -8 21 -17 41 -17 34 -17 36 0 45 26 15 21 47 -12 63 -16 9 -31 26 -34 39 -5 16 -20 28 -54 40 -26 9 -56 17 -67 17 -15 0 -14 4 10 29 16 16 40 43 53 60 22 31 23 33 6 51 -10 11 -25 20 -34 19 -10 0 -8 -3 7 -9z" transform="translate(0.000000,102.000000) scale(0.100000,-0.100000)" stroke="none" fill="#BC8F8A"/>

<path d="M864 245 c-4 -8 -4 -24 -1 -35 3 -13 -2 -25 -16 -35 -17 -12 -18 -15 -5 -15 22 0 33 18 33 52 0 37 19 36 25 0 3 -16 26 -52 51 -81 40 -45 50 -52 70 -46 35 11 97 74 110 112 6 18 16 33 22 33 7 -1 27 -21 45 -46 18 -24 50 -55 70 -68 20 -13 45 -33 54 -45 10 -12 23 -21 28 -21 6 0 -20 27 -58 60 -38 32 -81 75 -96 95 -15 19 -33 35 -41 35 -8 0 -23 -17 -34 -37 -29 -55 -72 -102 -101 -107 -20 -4 -33 4 -64 40 -22 25 -39 52 -38 62 2 45 -41 82 -54 47z" transform="translate(0.000000,102.000000) scale(0.100000,-0.100000)" stroke="none" fill="#BC8F8A"/>

<path d="M732 248 c-7 -7 -12 -25 -12 -40 0 -39 -81 -122 -111 -113 -30 10 -78 61 -95 101 -20 48 -41 54 -68 19 -29 -38 -54 -62 -115 -114 -39 -32 -55 -41 -64 -32 -8 8 -8 14 1 23 7 7 12 22 12 35 0 20 -5 23 -32 22 -31 -2 -31 -2 -6 -6 30 -5 35 -22 16 -53 -11 -17 -10 -22 2 -30 22 -14 29 -12 53 13 12 12 39 35 59 50 20 15 49 45 65 67 32 45 49 50 59 18 13 -45 68 -106 107 -119 22 -7 41 -9 45 -3 4 5 22 26 41 46 20 22 36 52 40 74 9 54 29 55 33 2 3 -40 5 -43 33 -45 28 -2 28 -1 5 5 -20 6 -26 16 -30 47 -5 41 -18 53 -38 33z" transform="translate(0.000000,102.000000) scale(0.100000,-0.100000)" stroke="none" fill="#BC8F8A"/>

<path d="M1074 948 c-35 -40 -54 -72 -54 -95 0 -15 14 -10 15 5 3 33 46 102 64 102 3 0 15 -18 25 -40 11 -22 21 -40 24 -40 2 0 21 19 41 42 26 29 42 40 54 35 25 -9 21 -52 -8 -81 -41 -41 -27 -87 18 -64 10 5 25 7 33 4 23 -9 13 -49 -16 -62 -46 -22 -75 -33 -95 -36 -22 -3 -65 35 -65 58 0 24 -19 54 -35 54 -8 0 -15 -5 -15 -11 0 -5 4 -8 9 -4 12 7 22 -10 31 -49 3 -17 12 -31 20 -31 19 0 25 -32 9 -51 -6 -8 -9 -18 -5 -22 4 -4 18 5 30 21 12 15 29 27 38 27 9 0 19 4 22 9 3 5 21 12 40 15 42 8 58 27 54 63 -3 26 -6 28 -45 26 -24 -1 -43 2 -43 6 0 5 14 25 30 46 35 44 33 37 20 69 -14 37 -45 33 -88 -10 -38 -38 -47 -35 -59 19 -7 35 -13 34 -49 -5z" transform="translate(0.000000,102.000000) scale(0.100000,-0.100000)" stroke="none" fill="#BC8F8A"/>

<path d="M368 676 c14 -18 22 -43 22 -69 l0 -40 -39 7 c-51 8 -77 -14 -84 -71 -3 -24 -2 -45 1 -47 4 -2 8 14 10 37 3 48 16 67 46 66 21 0 21 0 -1 -16 -26 -17 -30 -48 -9 -60 7 -4 21 -23 30 -40 9 -18 23 -33 31 -33 8 0 15 -4 15 -10 0 -5 -10 -10 -22 -10 -13 0 -36 -7 -52 -15 -15 -8 -35 -15 -42 -15 -8 0 -14 -10 -14 -25 0 -17 -7 -28 -23 -34 -46 -18 -63 -71 -22 -71 19 0 19 -2 -5 -44 -17 -27 -18 -36 -8 -42 7 -4 10 -4 6 1 -4 4 1 20 12 35 25 36 25 56 0 63 -29 8 -25 22 15 46 19 11 35 28 35 38 0 20 45 44 99 53 42 6 51 27 17 40 -14 5 -32 23 -41 40 -8 16 -20 30 -25 30 -19 0 -10 39 11 45 26 8 79 -12 100 -38 32 -39 53 8 23 51 -10 14 -14 38 -12 64 1 26 -2 43 -10 46 -21 7 -15 -82 8 -111 20 -25 27 -52 13 -45 -5 2 -26 14 -48 28 -29 18 -35 26 -22 28 13 3 17 14 17 51 0 39 -5 52 -27 72 l-27 24 22 -29z" transform="translate(0.000000,102.000000) scale(0.100000,-0.100000)" stroke="none" fill="#BC8F8A"/>

<path d="M514 963 c-3 -10 -11 -28 -17 -41 l-11 -22 -37 36 c-48 47 -82 45 -87 -5 -3 -25 2 -39 16 -50 11 -9 23 -27 27 -40 7 -22 5 -23 -24 -16 -37 8 -61 -7 -61 -38 0 -19 25 -46 45 -47 5 0 -1 7 -13 16 -41 28 -19 79 25 56 46 -24 58 19 17 67 -28 34 -29 74 -2 79 9 2 31 -13 49 -32 18 -20 38 -36 45 -36 6 0 19 18 28 40 9 22 19 40 23 40 5 0 20 -18 36 -40 31 -44 35 -83 19 -200 -12 -82 -6 -100 33 -100 19 0 35 -17 35 -36 0 -2 -18 -15 -40 -29 -22 -14 -40 -32 -40 -40 0 -9 -7 -27 -16 -40 -12 -19 -14 -39 -10 -92 4 -37 7 -87 9 -109 2 -45 57 -134 82 -134 18 0 58 57 52 73 -4 8 -6 6 -6 -4 -1 -15 -41 -59 -53 -59 -15 0 -53 78 -61 124 -21 121 -20 164 4 212 12 26 35 54 51 63 51 29 45 81 -10 81 l-25 0 6 80 c3 49 12 90 21 105 20 30 20 35 1 35 -8 0 -15 8 -15 18 -1 24 -53 96 -73 100 -10 2 -20 -4 -23 -15z" transform="translate(0.000000,102.000000) scale(0.100000,-0.100000)" stroke="none" fill="#BC8F8A"/>

<path d="M191 682 c-6 -11 -6 -24 1 -36 14 -25 -4 -35 -51 -29 -26 4 -41 0 -50 -11 -16 -20 -1 -43 31 -48 12 -2 26 -10 31 -20 9 -13 4 -22 -21 -43 l-31 -26 18 -32 c23 -41 55 -57 111 -54 42 2 45 4 48 31 2 16 -1 33 -6 38 -16 16 -2 91 20 110 15 14 30 16 59 12 l39 -7 0 40 c0 49 -32 96 -63 91 -11 -2 -21 -11 -23 -21 -4 -31 -12 -31 -48 -3 -41 31 -52 32 -65 8z" transform="translate(0.000000,102.000000) scale(0.100000,-0.100000)" stroke="none" fill="#8E5459"/>

<path d="M514 930 c-9 -22 -22 -40 -28 -40 -7 0 -27 16 -45 36 -18 19 -40 34 -49 32 -27 -5 -26 -45 2 -79 41 -48 29 -91 -17 -67 -44 23 -66 -28 -25 -56 12 -9 32 -16 45 -16 12 0 25 -4 28 -10 3 -5 17 -10 31 -10 15 0 24 -6 24 -15 0 -8 5 -15 10 -15 6 0 10 11 10 24 0 14 5 28 10 31 6 3 10 16 10 28 1 31 26 61 45 54 18 -8 19 -26 3 -64 -6 -15 -14 -71 -17 -123 -5 -80 -9 -95 -23 -98 -14 -3 -18 3 -18 23 0 24 -41 75 -61 75 -15 0 -9 -74 6 -94 30 -40 7 -87 -24 -49 -21 26 -74 46 -100 38 -21 -6 -30 -45 -11 -45 5 0 17 -14 25 -30 9 -17 27 -35 41 -40 34 -13 25 -34 -17 -40 -54 -9 -99 -33 -99 -53 0 -10 -16 -27 -35 -38 -40 -24 -44 -38 -15 -46 26 -7 25 -27 -1 -64 -22 -31 -21 -32 28 -29 29 1 33 -2 33 -22 0 -13 -5 -29 -12 -36 -9 -9 -9 -15 -1 -23 15 -15 123 73 179 146 27 35 48 29 68 -19 17 -40 65 -91 95 -101 30 -9 111 74 111 114 0 31 25 60 40 45 5 -5 10 -24 12 -43 2 -28 8 -36 30 -42 39 -10 66 12 60 50 -3 22 0 33 12 37 21 8 46 -22 43 -53 -1 -12 15 -40 38 -66 32 -37 45 -45 65 -41 29 5 72 52 101 106 11 21 24 38 29 38 5 0 50 -40 101 -90 50 -49 97 -90 105 -90 17 0 18 22 3 37 -6 6 -9 21 -7 34 3 21 7 24 42 21 l39 -4 -22 35 c-26 43 -26 53 0 60 27 7 20 27 -17 47 -16 9 -30 25 -32 36 -3 22 -67 54 -107 54 -18 0 -25 5 -25 20 0 13 7 20 19 20 11 0 26 12 33 28 8 15 21 37 28 49 11 17 12 25 3 34 -17 17 -101 -8 -114 -33 -8 -15 -13 -17 -25 -7 -19 15 -18 26 6 56 32 41 22 87 -10 48 -7 -9 -20 -13 -30 -10 -12 4 -16 0 -16 -17 1 -17 -5 -23 -19 -23 -18 0 -21 9 -26 95 -4 52 -10 116 -14 143 -6 39 -5 47 8 47 17 0 37 -29 37 -54 0 -23 43 -61 65 -58 20 3 49 14 95 36 29 13 39 53 16 62 -8 3 -23 1 -33 -4 -45 -23 -59 23 -18 64 29 29 33 72 8 81 -12 5 -28 -6 -54 -35 -20 -23 -39 -42 -41 -42 -3 0 -13 18 -24 40 -10 22 -22 40 -25 40 -18 0 -74 -92 -58 -96 2 0 -2 -8 -9 -17 -9 -10 -10 -17 -2 -22 5 -3 10 -30 10 -60 0 -30 5 -57 10 -60 6 -3 10 -18 10 -33 0 -22 -9 -31 -42 -47 -23 -11 -43 -24 -45 -30 -1 -5 12 -17 30 -26 17 -8 38 -29 46 -45 7 -16 23 -39 34 -51 17 -19 20 -35 18 -100 -2 -65 -7 -89 -34 -145 -41 -85 -84 -101 -120 -45 -27 43 -28 83 -2 119 60 82 75 110 75 137 0 16 -5 33 -11 36 -13 8 -49 -23 -49 -42 0 -13 -46 -41 -54 -32 -2 2 -6 20 -9 41 -4 28 -1 40 14 54 27 24 24 49 -10 76 -20 16 -30 36 -35 64 -5 36 -2 44 24 69 22 21 28 34 24 52 -5 20 -2 24 25 29 25 5 29 9 20 20 -19 23 -47 16 -71 -16 -25 -35 -44 -38 -53 -10 -3 11 -10 20 -15 20 -5 0 -14 -9 -20 -20 -15 -28 -37 -25 -52 8 -9 18 -22 28 -41 30 -32 4 -38 -23 -7 -33 11 -4 20 -15 20 -26 0 -11 11 -35 24 -52 34 -44 29 -97 -13 -136 -36 -34 -39 -53 -10 -72 17 -12 19 -20 13 -56 -9 -58 -38 -58 -49 -1 -7 36 -21 42 -49 22 -28 -21 -34 -55 -11 -74 8 -7 15 -19 15 -26 0 -8 9 -19 21 -26 28 -17 50 -74 42 -107 -8 -35 -41 -81 -58 -81 -25 0 -80 89 -82 134 -2 22 -5 72 -9 109 -4 53 -2 73 10 92 9 13 16 31 16 40 0 8 18 26 41 41 27 17 39 30 35 40 -3 9 -6 18 -6 20 0 2 -11 4 -24 4 -40 0 -46 18 -34 100 16 117 12 156 -19 200 -16 22 -31 40 -36 40 -4 0 -14 -18 -23 -40z" transform="translate(0.000000,102.000000) scale(0.100000,-0.100000)" stroke="none" fill="#8E5459"/>

</svg>