<?xml version="1.0" standalone="no"?>
<!DOCTYPE svg PUBLIC "-//W3C//DTD SVG 20010904//EN"
 "http://www.w3.org/TR/2001/REC-SVG-20010904/DTD/svg10.dtd">
<svg version="1.0" xmlns="http://www.w3.org/2000/svg" 
width="112.000000pt" height="108.000000pt" viewBox="0 0 112.000000 108.000000"
preserveAspectRatio = "xMidYMid meet" >
<metadata>
Created by ZoeQU, 2022
</metadata>
<rect width="112.000000" height="108.000000" fill="#F4F1EB"/>
<path d="M544 429 c-10 -12 -38 -30 -61 -41 -24 -10 -43 -23 -43 -28 0 -5 -10 -10 -22 -12 -54 -7 -17 -80 60 -119 15 -7 35 -19 44 -27 46 -38 78 20 78 145 0 105 -15 128 -56 82z m45 -84 c1 -62 -13 -130 -29 -140 -10 -6 -104 47 -137 78 -30 27 -29 45 2 57 14 5 25 13 25 17 0 5 20 16 44 26 24 10 52 27 62 38 17 19 19 19 25 2 4 -10 8 -45 8 -78z" transform="translate(0.000000,108.000000) scale(0.100000,-0.100000)" stroke="none" fill="#D9A678"/>

<path d="M787 952 c-9 -10 -17 -25 -17 -33 0 -9 -14 -28 -31 -45 -33 -31 -59 -84 -59 -118 1 -11 9 2 18 29 10 28 30 63 45 79 15 16 33 41 40 55 21 43 38 38 32 -11 -9 -69 -9 -71 -1 -113 7 -41 7 -41 -46 -75 -81 -54 -88 -55 -89 -17 -1 30 -1 31 -9 7 -18 -57 1 -66 59 -27 19 12 49 30 65 41 39 23 47 36 35 57 -11 22 -12 79 0 97 10 17 -1 84 -15 89 -6 2 -18 -5 -27 -15z" transform="translate(0.000000,108.000000) scale(0.100000,-0.100000)" stroke="none" fill="#D9A678"/>

<path d="M245 613 c-70 -6 -85 -12 -85 -34 0 -18 4 -20 38 -14 33 5 42 2 65 -21 15 -15 27 -32 27 -39 0 -6 8 -19 18 -29 17 -15 22 -15 55 -1 20 8 44 15 54 15 32 0 93 21 93 31 0 17 -41 48 -98 75 -51 23 -73 25 -167 17z m146 -18 c24 -9 59 -29 77 -44 l33 -28 -48 -12 c-50 -12 -86 -23 -115 -36 -13 -5 -22 3 -38 34 -27 53 -60 75 -101 66 -24 -5 -30 -4 -27 6 3 9 26 16 59 20 95 10 114 9 160 -6z" transform="translate(0.000000,108.000000) scale(0.100000,-0.100000)" stroke="none" fill="#D9A678"/>

<path d="M860 611 c-36 -25 -102 -42 -139 -35 -19 4 -31 2 -31 -4 0 -17 90 -122 104 -122 8 0 16 -7 20 -15 3 -8 13 -15 23 -15 10 0 31 -7 47 -15 16 -9 37 -13 47 -10 16 5 17 17 15 107 -2 85 -5 103 -21 114 -24 18 -35 17 -65 -5z m61 -7 c15 -18 21 -191 7 -200 -5 -3 -14 -1 -21 4 -7 5 -27 13 -45 17 -18 4 -36 13 -38 20 -3 7 -15 16 -27 19 -12 3 -37 24 -55 48 l-33 43 28 3 c39 5 111 30 136 47 27 19 31 19 48 -1z" transform="translate(0.000000,108.000000) scale(0.100000,-0.100000)" stroke="none" fill="#D9A678"/>

<path d="M775 1054 c-92 -45 -166 -122 -197 -203 -7 -20 -11 -22 -18 -11 -5 8 -10 12 -12 10 -13 -18 -28 -66 -28 -91 0 -27 -2 -29 -27 -23 -16 3 -41 10 -56 16 -20 8 -31 8 -35 1 -4 -6 -48 -12 -99 -15 -61 -3 -98 -9 -110 -19 -10 -8 -39 -25 -64 -37 -55 -26 -64 -36 -73 -77 -5 -26 -2 -34 28 -58 20 -15 47 -32 61 -37 14 -5 25 -16 25 -25 0 -22 58 -122 75 -129 8 -3 15 -11 15 -19 0 -7 7 -37 15 -65 14 -45 25 -59 83 -105 71 -56 155 -107 178 -107 7 0 33 13 56 29 80 54 107 160 72 285 -17 59 -11 70 13 27 20 -34 34 -39 53 -16 12 14 16 13 39 -8 37 -34 78 -57 98 -57 10 0 -1 9 -24 19 -23 11 -56 33 -73 50 -33 31 -50 33 -50 5 0 -24 -17 -16 -39 19 -11 18 -29 42 -41 52 -17 16 -20 16 -20 2 0 -9 4 -18 9 -21 4 -3 11 -24 15 -47 4 -23 10 -47 13 -52 10 -17 14 -129 4 -141 -4 -6 -14 -27 -20 -46 -10 -31 -76 -91 -99 -90 -20 1 -105 50 -164 95 -69 52 -98 95 -98 145 0 20 -9 38 -26 53 -15 12 -41 51 -58 87 -24 50 -40 69 -66 81 -19 9 -43 26 -53 37 -16 18 -17 23 -4 53 11 26 26 38 63 53 27 10 55 26 62 35 10 13 34 16 115 17 57 0 108 4 114 7 7 4 30 1 52 -7 40 -13 41 -13 47 11 5 17 9 21 14 12 9 -13 23 16 50 101 18 54 128 172 183 195 77 32 113 9 103 -64 -5 -39 -3 -48 16 -62 19 -15 29 -41 57 -147 6 -20 26 -48 49 -68 44 -38 49 -52 58 -189 5 -76 2 -97 -14 -135 -23 -55 -56 -75 -111 -67 -24 3 -39 1 -35 -4 3 -5 25 -9 49 -9 56 0 100 35 115 91 12 43 5 226 -10 264 -4 12 -25 36 -45 54 -36 31 -42 46 -64 141 -13 54 -21 69 -42 75 -17 6 -19 13 -13 55 5 40 3 51 -15 69 -24 24 -54 26 -96 5z" transform="translate(0.000000,108.000000) scale(0.100000,-0.100000)" stroke="none" fill="#D9A678"/>

<path d="M771 1044 c-54 -23 -164 -141 -181 -194 -27 -85 -41 -114 -50 -101 -5 9 -9 5 -14 -12 -6 -24 -7 -24 -47 -11 -22 8 -45 11 -52 7 -6 -3 -57 -7 -114 -7 -81 -1 -105 -4 -115 -17 -7 -9 -35 -25 -62 -35 -37 -15 -52 -27 -63 -53 -13 -30 -12 -35 4 -53 10 -11 34 -28 53 -37 26 -12 42 -31 66 -81 17 -36 43 -75 58 -87 17 -15 26 -33 26 -53 0 -50 29 -93 98 -145 59 -45 144 -94 164 -95 23 -1 89 59 99 90 6 19 16 40 20 46 10 12 6 124 -4 141 -3 5 -9 29 -13 52 -4 23 -11 44 -15 47 -5 3 -9 12 -9 21 0 14 3 14 20 -2 12 -10 30 -34 41 -52 22 -35 39 -43 39 -19 0 28 17 25 54 -9 41 -37 130 -75 177 -75 78 0 114 72 105 208 -10 135 -14 149 -58 186 -23 20 -43 48 -49 68 -28 106 -38 132 -57 147 -19 14 -21 23 -16 62 10 73 -29 97 -105 63z m60 -117 c3 -20 2 -42 -2 -49 -12 -18 -11 -76 1 -98 8 -15 5 -23 -12 -40 -12 -11 -26 -20 -31 -20 -5 0 -22 -11 -39 -25 -28 -24 -74 -42 -83 -33 -6 5 19 124 33 158 5 14 24 38 41 54 17 17 31 36 31 45 0 19 31 52 44 48 6 -2 14 -20 17 -40z m94 -311 c16 -11 19 -29 21 -114 2 -90 1 -102 -15 -107 -10 -3 -31 1 -47 10 -16 8 -37 15 -47 15 -10 0 -20 7 -23 15 -4 8 -12 15 -20 15 -14 0 -104 105 -104 122 0 6 12 8 31 4 37 -7 103 10 139 35 30 22 41 23 65 5z m-513 -20 c57 -27 98 -58 98 -75 0 -10 -61 -31 -93 -31 -10 0 -34 -7 -54 -15 -33 -14 -38 -14 -55 1 -10 10 -18 23 -18 29 0 7 -12 24 -27 39 -23 23 -32 26 -65 21 -34 -6 -38 -4 -38 14 0 22 15 28 85 34 94 8 116 6 167 -17z m248 -6 c0 -5 -7 -10 -16 -10 -8 0 -12 5 -9 10 3 6 10 10 16 10 5 0 9 -4 9 -10z m-66 -156 c10 -25 7 -156 -4 -196 -12 -42 -42 -58 -68 -36 -9 8 -29 20 -44 27 -77 39 -114 112 -60 119 12 2 22 7 22 12 0 5 19 18 43 28 23 11 51 29 61 41 23 25 42 27 50 5z" transform="translate(0.000000,108.000000) scale(0.100000,-0.100000)" stroke="none" fill="#C05E0C"/>

</svg>