<?xml version="1.0" standalone="no"?>
<!DOCTYPE svg PUBLIC "-//W3C//DTD SVG 20010904//EN"
 "http://www.w3.org/TR/2001/REC-SVG-20010904/DTD/svg10.dtd">
<svg version="1.0" xmlns="http://www.w3.org/2000/svg" 
width="123.000000pt" height="124.000000pt" viewBox="0 0 123.000000 124.000000"
preserveAspectRatio = "xMidYMid meet" >
<metadata>
Created by ZoeQU, 2022
</metadata>
<rect width="123.000000" height="124.000000" fill="#3A3AFF"/>
<path d="M554 716 c-65 -29 -94 -104 -58 -154 22 -32 87 -62 135 -62 55 0 114 34 135 78 14 30 14 39 2 70 -26 69 -133 103 -214 68z" transform="translate(0.000000,124.000000) scale(0.100000,-0.100000)" stroke="none" fill="#FCEE2C"/>

<path d="M557 1162 c-21 -23 -42 -83 -51 -145 l-7 -49 -58 55 c-64 61 -112 90 -144 85 -34 -5 -28 -77 13 -158 31 -62 31 -63 8 -56 -56 17 -146 29 -170 23 -14 -4 -29 -14 -32 -23 -13 -34 51 -109 134 -158 l35 -21 -50 -6 c-146 -19 -210 -65 -156 -113 24 -22 132 -56 177 -56 19 0 34 -2 34 -5 0 -2 -33 -37 -74 -78 -75 -74 -98 -116 -79 -146 16 -24 92 -18 159 13 31 15 59 25 61 23 1 -2 -6 -30 -17 -62 -36 -104 -22 -176 31 -160 28 9 95 70 131 119 l28 39 0 -39 c0 -21 7 -66 14 -99 17 -70 46 -101 78 -84 26 14 64 98 79 179 7 36 14 67 16 69 2 2 32 -24 67 -58 66 -63 164 -118 192 -107 37 14 29 77 -21 161 -20 32 -34 59 -32 61 1 2 33 -2 69 -8 180 -31 197 48 34 153 l-60 38 30 6 c158 36 215 92 138 137 -17 10 -70 23 -117 29 l-86 12 44 43 c54 52 105 130 105 160 0 56 -64 55 -169 -2 -48 -27 -62 -31 -57 -18 4 10 12 48 18 85 14 80 4 122 -29 127 -27 4 -91 -52 -130 -114 -33 -51 -43 -55 -43 -16 0 45 -30 135 -53 160 -25 27 -39 28 -60 4z m158 -455 c54 -31 74 -81 51 -129 -34 -71 -137 -98 -216 -58 -48 24 -70 55 -70 96 0 93 138 146 235 91z" transform="translate(0.000000,124.000000) scale(0.100000,-0.100000)" stroke="none" fill="#FCFDFF"/>

</svg>