<?xml version="1.0" standalone="no"?>
<!DOCTYPE svg PUBLIC "-//W3C//DTD SVG 20010904//EN"
 "http://www.w3.org/TR/2001/REC-SVG-20010904/DTD/svg10.dtd">
<svg version="1.0" xmlns="http://www.w3.org/2000/svg" 
width="112.000000pt" height="104.000000pt" viewBox="0 0 112.000000 104.000000"
preserveAspectRatio = "xMidYMid meet" >
<metadata>
Created by ZoeQU, 2022
</metadata>
<rect width="112.000000" height="104.000000" fill="#4FB0A6"/>
<path d="M228 974 c-16 -8 -28 -20 -29 -27 0 -7 -2 -21 -5 -32 -2 -11 1 -33 6 -48 8 -23 3 -40 -26 -100 -19 -40 -34 -81 -32 -92 1 -13 -14 -41 -37 -70 l-40 -48 1 -101 c2 -111 14 -184 35 -197 64 -41 180 -27 236 29 18 17 37 32 43 32 5 0 10 6 10 13 0 15 69 96 70 81 0 -6 -7 -28 -15 -47 -19 -47 -19 -47 10 -47 23 0 25 -3 26 -52 1 -61 2 -68 23 -128 21 -58 41 -78 83 -86 55 -10 107 12 180 76 91 81 113 113 113 171 0 33 5 51 20 64 11 10 20 22 20 28 0 5 14 25 30 44 21 23 30 44 30 67 0 28 5 36 31 46 94 39 59 129 -63 158 -88 22 -234 11 -275 -21 -8 -5 -13 -6 -13 0 0 5 9 15 20 23 40 28 19 28 -35 0 -50 -26 -56 -28 -61 -12 -3 9 -10 25 -15 34 -5 10 -9 31 -9 48 0 16 -4 30 -10 30 -5 0 -10 -9 -10 -20 0 -27 -17 -25 -24 3 -7 31 -106 137 -131 142 -11 2 -42 15 -70 29 -58 30 -52 29 -87 10z m110 -149 c66 -69 91 -123 92 -197 0 -32 -3 -58 -7 -58 -5 0 -34 23 -66 50 -32 28 -63 50 -69 50 -6 0 -8 12 -3 33 3 17 9 53 12 79 4 40 2 48 -16 58 -23 12 -29 40 -8 40 6 0 36 -25 65 -55z m617 -225 c9 -15 -34 -56 -68 -64 -15 -4 -37 -21 -50 -41 -12 -19 -26 -35 -32 -35 -14 0 -125 42 -150 57 -24 14 -26 11 57 52 58 28 76 32 127 29 33 -1 63 0 67 5 11 11 42 9 49 -3z m-720 -70 c3 -5 15 -10 25 -10 11 0 34 -9 52 -20 18 -11 47 -20 65 -20 17 0 34 -4 37 -9 15 -24 -168 -156 -200 -144 -19 7 -39 164 -25 191 12 23 35 29 46 12z m368 -109 c5 -22 80 -75 118 -84 29 -7 42 -28 33 -51 -8 -21 -143 -128 -156 -124 -14 5 -37 73 -43 127 -4 38 3 88 20 139 6 18 22 15 28 -7z" transform="translate(0.000000,104.000000) scale(0.100000,-0.100000)" stroke="none" fill="#F1FAFA"/>

</svg>