<?xml version="1.0" standalone="no"?>
<!DOCTYPE svg PUBLIC "-//W3C//DTD SVG 20010904//EN"
 "http://www.w3.org/TR/2001/REC-SVG-20010904/DTD/svg10.dtd">
<svg version="1.0" xmlns="http://www.w3.org/2000/svg" 
width="104.000000pt" height="98.000000pt" viewBox="0 0 104.000000 98.000000"
preserveAspectRatio = "xMidYMid meet" >
<metadata>
Created by ZoeQU, 2022
</metadata>
<rect width="104.000000" height="98.000000" fill="#FEFEFE"/>
<path d="M546 415 c-23 -18 -72 -20 -82 -3 -11 17 -34 -20 -34 -54 0 -16 12 -41 28 -60 69 -77 181 1 146 101 -11 31 -32 36 -58 16z" transform="translate(0.000000,98.000000) scale(0.100000,-0.100000)" stroke="none" fill="#87677E"/>

<path d="M503 761 c-17 -17 -35 -24 -106 -38 -15 -3 -30 -10 -33 -15 -12 -20 18 -136 40 -157 59 -55 145 -39 176 34 10 23 16 53 13 67 -3 14 1 36 7 49 11 20 9 26 -19 51 -37 33 -54 35 -78 9z m4 -57 c33 -9 37 -33 8 -44 -34 -13 -31 -39 5 -53 36 -14 37 -21 8 -41 -25 -18 -65 -21 -88 -6 -12 7 -11 13 9 34 28 30 22 56 -14 56 -14 0 -25 4 -25 8 0 16 44 48 70 51 3 0 15 -2 27 -5z" transform="translate(0.000000,98.000000) scale(0.100000,-0.100000)" stroke="none" fill="#87677E"/>

</svg>