<?xml version="1.0" standalone="no"?>
<!DOCTYPE svg PUBLIC "-//W3C//DTD SVG 20010904//EN"
 "http://www.w3.org/TR/2001/REC-SVG-20010904/DTD/svg10.dtd">
<svg version="1.0" xmlns="http://www.w3.org/2000/svg" 
width="74.000000pt" height="48.000000pt" viewBox="0 0 74.000000 48.000000"
preserveAspectRatio = "xMidYMid meet" >
<metadata>
Created by ZoeQU, 2022
</metadata>
<rect width="74.000000" height="48.000000" fill="#88A5C8"/>
<path d="M310 208 c-22 -37 -13 -58 25 -51 31 6 60 47 42 61 -31 24 -48 22 -67 -10z" transform="translate(0.000000,48.000000) scale(0.100000,-0.100000)" stroke="none" fill="#EFE2E5"/>

<path d="M305 274 c-9 -9 -19 -14 -22 -10 -7 6 -32 -24 -33 -39 0 -5 5 -3 10 5 8 13 10 12 10 -2 0 -16 -10 -22 -30 -20 -3 0 -7 -12 -8 -27 -2 -20 4 -31 23 -41 13 -7 22 -16 20 -21 -7 -10 15 -16 42 -11 31 6 31 39 1 44 -18 2 -22 9 -20 28 1 14 11 33 21 44 16 15 22 16 42 6 13 -7 25 -14 27 -15 1 -1 -2 -14 -7 -28 -10 -25 -9 -25 22 -16 18 5 33 9 34 9 7 0 2 32 -8 54 -13 28 -57 47 -90 39 -15 -4 -20 -3 -15 5 10 17 0 15 -19 -4z" transform="translate(0.000000,48.000000) scale(0.100000,-0.100000)" stroke="none" fill="#BE5F81"/>

<path d="M257 425 c-11 -11 -17 -33 -17 -64 0 -26 -3 -51 -7 -54 -3 -4 -21 4 -38 17 -31 24 -32 24 -61 7 -98 -61 -116 -127 -51 -198 18 -20 18 -23 3 -29 -20 -8 -21 -48 0 -68 19 -19 198 -23 210 -5 4 7 26 9 63 5 31 -3 72 -1 91 4 19 6 61 15 93 20 62 9 77 21 103 79 9 18 25 47 37 63 l22 29 -20 36 c-35 64 -117 91 -175 58 -37 -21 -49 -18 -56 13 -11 43 -43 76 -82 85 -85 19 -99 19 -115 2z m136 -146 c21 1 27 -3 27 -19 0 -14 7 -20 21 -20 19 0 20 -2 8 -17 -11 -13 -11 -17 -1 -20 22 -8 13 -20 -20 -27 -52 -10 -88 -30 -88 -47 0 -10 -11 -19 -26 -22 -19 -3 -33 3 -55 24 -34 33 -34 57 -1 111 23 37 50 50 87 41 11 -3 32 -4 48 -4z" transform="translate(0.000000,48.000000) scale(0.100000,-0.100000)" stroke="none" fill="#6463A4"/>

</svg>