<?xml version="1.0" standalone="no"?>
<!DOCTYPE svg PUBLIC "-//W3C//DTD SVG 20010904//EN"
 "http://www.w3.org/TR/2001/REC-SVG-20010904/DTD/svg10.dtd">
<svg version="1.0" xmlns="http://www.w3.org/2000/svg" 
width="68.000000pt" height="66.000000pt" viewBox="0 0 68.000000 66.000000"
preserveAspectRatio = "xMidYMid meet" >
<metadata>
Created by ZoeQU, 2022
</metadata>
<rect width="68.000000" height="66.000000" fill="#BDD87A"/>
<path d="M650 180 c-7 -17 -10 -34 -6 -37 4 -4 9 3 13 15 3 12 9 22 14 22 5 0 9 7 9 15 0 25 -17 17 -30 -15z" transform="translate(0.000000,66.000000) scale(0.100000,-0.100000)" stroke="none" fill="#030606"/>

<path d="M540 51 c0 -5 -9 -13 -20 -16 -19 -6 -29 -36 -12 -34 12 0 54 59 43 59 -6 0 -11 -4 -11 -9z" transform="translate(0.000000,66.000000) scale(0.100000,-0.100000)" stroke="none" fill="#030606"/>

<path d="M161 28 c6 -11 17 -17 24 -14 8 3 17 1 20 -4 4 -6 12 -10 18 -10 15 1 -32 37 -55 43 -15 4 -16 2 -7 -15z" transform="translate(0.000000,66.000000) scale(0.100000,-0.100000)" stroke="none" fill="#5B673F"/>

<path d="M618 512 c23 -31 42 -42 42 -23 0 5 -15 20 -32 33 l-33 23 23 -33z" transform="translate(0.000000,66.000000) scale(0.100000,-0.100000)" stroke="none" fill="#5B673F"/>

<path d="M646 191 c-14 -22 -26 -45 -26 -51 0 -14 27 -13 36 2 4 7 3 8 -4 4 -24 -15 -2 50 22 66 6 4 8 10 4 13 -4 4 -18 -11 -32 -34z" transform="translate(0.000000,66.000000) scale(0.100000,-0.100000)" stroke="none" fill="#5B673F"/>

<path d="M527 53 c-20 -14 -37 -33 -36 -42 0 -14 1 -14 6 -1 6 16 23 30 37 30 5 0 2 -8 -5 -18 -10 -13 -8 -12 10 3 26 22 46 55 34 55 -5 0 -25 -12 -46 -27z m33 3 c0 -3 -4 -8 -10 -11 -5 -3 -10 -1 -10 4 0 6 5 11 10 11 6 0 10 -2 10 -4z" transform="translate(0.000000,66.000000) scale(0.100000,-0.100000)" stroke="none" fill="#5B673F"/>

<path d="M395 500 c-7 -49 -20 -64 -31 -35 -4 8 -13 15 -21 15 -10 0 -13 -6 -9 -15 3 -8 9 -22 12 -30 5 -11 -1 -15 -25 -15 -37 0 -41 -15 -6 -24 14 -4 25 -10 25 -15 0 -5 -11 -18 -25 -29 -14 -11 -25 -23 -25 -27 0 -4 11 -4 25 -1 20 5 25 3 25 -14 0 -11 5 -20 10 -20 6 0 10 7 10 15 0 8 5 15 10 15 6 0 10 -12 10 -27 0 -39 19 -103 30 -103 6 0 10 28 10 63 0 72 7 86 27 57 20 -29 38 -14 19 16 -21 31 -20 34 9 34 14 0 25 5 25 10 0 6 -9 10 -21 10 -11 0 -17 5 -14 10 3 6 15 10 26 10 10 0 19 6 19 14 0 9 -8 12 -25 8 -27 -5 -34 15 -13 36 19 19 0 27 -20 9 -28 -26 -32 -21 -32 33 0 28 -4 50 -9 50 -5 0 -12 -22 -16 -50z m47 -89 c4 -15 0 -26 -22 -71 -5 -11 -10 -30 -11 -42 0 -23 -1 -23 -12 2 -6 14 -20 34 -30 45 -10 11 -15 26 -11 35 4 8 9 24 11 35 4 17 11 20 38 17 21 -3 35 -10 37 -21z" transform="translate(0.000000,66.000000) scale(0.100000,-0.100000)" stroke="none" fill="#5B673F"/>

<path d="M280 626 c-30 -6 -66 -18 -80 -25 -35 -19 -109 -91 -126 -123 -24 -46 -15 -44 15 3 57 91 144 139 251 139 109 0 202 -53 258 -148 24 -42 27 -56 27 -142 0 -106 -9 -131 -73 -202 -55 -61 -120 -88 -212 -88 -92 0 -157 27 -212 88 -64 71 -73 96 -73 204 0 53 -3 91 -7 85 -4 -7 -8 -46 -8 -87 0 -127 63 -225 179 -278 148 -68 326 0 397 152 32 68 33 180 3 246 -24 53 -90 125 -139 150 -28 14 -134 43 -143 39 -1 0 -27 -6 -57 -13z" transform="translate(0.000000,66.000000) scale(0.100000,-0.100000)" stroke="none" fill="#5B673F"/>

<path d="M234 604 c-54 -19 -118 -75 -152 -132 -24 -42 -27 -56 -27 -142 0 -106 9 -131 73 -202 55 -61 120 -88 212 -88 92 0 157 27 212 88 64 71 73 96 73 202 0 86 -3 100 -27 142 -36 59 -98 113 -156 132 -56 20 -153 19 -208 0z m186 -104 c0 -54 4 -59 32 -33 20 18 39 10 20 -9 -21 -21 -14 -41 13 -36 17 4 25 1 25 -8 0 -8 -9 -14 -19 -14 -11 0 -23 -4 -26 -10 -3 -5 3 -10 14 -10 12 0 21 -4 21 -10 0 -5 -11 -10 -25 -10 -29 0 -30 -3 -9 -34 19 -30 1 -45 -19 -16 -20 29 -27 15 -27 -57 0 -35 -4 -63 -10 -63 -11 0 -30 64 -30 103 0 15 -4 27 -10 27 -5 0 -10 -7 -10 -15 0 -8 -4 -15 -10 -15 -5 0 -10 9 -10 20 0 17 -5 19 -25 14 -14 -3 -25 -3 -25 1 0 4 11 16 25 27 14 11 25 24 25 29 0 5 -11 11 -25 15 -35 9 -31 24 6 24 24 0 30 4 25 15 -3 8 -9 22 -12 30 -4 9 -1 15 9 15 8 0 17 -7 21 -15 11 -29 24 -14 31 35 4 28 11 50 16 50 5 0 9 -22 9 -50z" transform="translate(0.000000,66.000000) scale(0.100000,-0.100000)" stroke="none" fill="#030606"/>

</svg>