<?xml version="1.0" standalone="no"?>
<!DOCTYPE svg PUBLIC "-//W3C//DTD SVG 20010904//EN"
 "http://www.w3.org/TR/2001/REC-SVG-20010904/DTD/svg10.dtd">
<svg version="1.0" xmlns="http://www.w3.org/2000/svg" 
width="102.000000pt" height="64.000000pt" viewBox="0 0 102.000000 64.000000"
preserveAspectRatio = "xMidYMid meet" >
<metadata>
Created by ZoeQU, 2022
</metadata>
<rect width="102.000000" height="64.000000" fill="#F15B26"/>
<path d="M387 600 c-68 -18 -124 -49 -182 -102 -88 -80 -137 -153 -152 -222 -13 -66 -10 -80 15 -67 9 5 54 19 100 31 74 20 100 22 235 18 151 -5 194 -13 287 -55 68 -31 200 -115 220 -140 16 -21 23 -23 34 -13 60 49 31 210 -63 349 -48 71 -128 143 -196 178 -42 22 -65 26 -155 29 -58 2 -122 -1 -143 -6z m171 -110 c126 -17 218 -78 304 -203 37 -55 45 -83 16 -60 -32 25 -169 93 -228 113 -78 26 -277 38 -355 22 -27 -6 -69 -15 -93 -20 -57 -12 -53 3 13 57 58 48 101 70 170 87 63 15 83 16 173 4z" transform="translate(0.000000,64.000000) scale(0.100000,-0.100000)" stroke="none" fill="#FDF3EF"/>

</svg>