<?xml version="1.0" standalone="no"?>
<!DOCTYPE svg PUBLIC "-//W3C//DTD SVG 20010904//EN"
 "http://www.w3.org/TR/2001/REC-SVG-20010904/DTD/svg10.dtd">
<svg version="1.0" xmlns="http://www.w3.org/2000/svg" 
width="98.000000pt" height="76.000000pt" viewBox="0 0 98.000000 76.000000"
preserveAspectRatio = "xMidYMid meet" >
<metadata>
Created by ZoeQU, 2022
</metadata>
<rect width="98.000000" height="76.000000" fill="#979798"/>
<path d="M840 702 c0 -4 9 -13 20 -20 11 -7 20 -17 20 -22 0 -6 8 -23 18 -37 9 -15 22 -47 28 -72 9 -35 12 -39 13 -19 1 35 -12 68 -51 129 -30 45 -48 61 -48 41z" transform="translate(0.000000,76.000000) scale(0.100000,-0.100000)" stroke="none" fill="#585680"/>

<path d="M822 663 c-7 -3 -19 -18 -28 -35 -21 -40 -173 -198 -249 -257 -100 -79 -211 -114 -365 -114 l-105 0 73 -10 c86 -12 198 8 299 51 74 32 200 137 287 239 64 76 110 134 104 132 -2 0 -9 -3 -16 -6z" transform="translate(0.000000,76.000000) scale(0.100000,-0.100000)" stroke="none" fill="#585680"/>

<path d="M928 369 c-11 -71 -52 -153 -104 -209 -86 -92 -156 -120 -305 -120 -105 0 -227 28 -317 74 -53 27 -132 106 -133 133 0 12 -2 13 -6 5 -8 -21 45 -88 100 -126 66 -45 186 -83 305 -97 82 -9 102 -8 174 10 93 24 166 73 222 150 41 56 79 157 74 197 -3 24 -5 21 -10 -17z" transform="translate(0.000000,76.000000) scale(0.100000,-0.100000)" stroke="none" fill="#585680"/>

<path d="M793 459 c-58 -74 -219 -211 -288 -244 -63 -31 -181 -49 -262 -41 -62 6 -77 0 -50 -23 27 -22 172 -51 257 -51 105 0 179 26 253 89 68 57 111 118 136 194 22 63 28 137 12 137 -5 0 -31 -28 -58 -61z m53 -6 c-18 -97 -69 -187 -142 -252 -97 -85 -224 -109 -392 -75 -103 21 -113 34 -26 34 79 1 172 19 224 43 53 26 199 146 266 221 32 36 63 65 68 66 4 0 5 -17 2 -37z" transform="translate(0.000000,76.000000) scale(0.100000,-0.100000)" stroke="none" fill="#585680"/>

<path d="M840 680 c0 -29 -150 -200 -249 -285 -96 -82 -143 -106 -270 -136 -81 -19 -105 -21 -173 -13 -94 11 -97 5 -36 -62 130 -141 474 -192 633 -94 135 83 217 277 185 439 -7 36 -20 77 -29 91 -9 14 -21 34 -27 44 -12 23 -34 33 -34 16z m20 -198 c0 -53 -35 -152 -73 -205 -84 -117 -198 -177 -337 -177 -85 0 -230 29 -257 51 -27 23 -12 29 50 23 81 -8 199 10 262 41 69 33 230 170 288 244 27 33 53 61 58 61 5 0 9 -17 9 -38z" transform="translate(0.000000,76.000000) scale(0.100000,-0.100000)" stroke="none" fill="#1C1665"/>

</svg>