<?xml version="1.0" standalone="no"?>
<!DOCTYPE svg PUBLIC "-//W3C//DTD SVG 20010904//EN"
 "http://www.w3.org/TR/2001/REC-SVG-20010904/DTD/svg10.dtd">
<svg version="1.0" xmlns="http://www.w3.org/2000/svg" 
width="88.000000pt" height="84.000000pt" viewBox="0 0 88.000000 84.000000"
preserveAspectRatio = "xMidYMid meet" >
<metadata>
Created by ZoeQU, 2022
</metadata>
<rect width="88.000000" height="84.000000" fill="#FBFBFB"/>
<path d="M591 507 c-24 -13 -59 -38 -78 -56 -38 -36 -88 -130 -98 -184 -9 -45 3 -167 16 -167 5 0 9 35 9 78 0 72 4 86 38 153 21 40 48 79 60 85 12 6 30 18 40 27 10 10 23 17 29 17 17 0 35 28 31 50 -3 20 -3 20 -47 -3z" transform="translate(0.000000,84.000000) scale(0.100000,-0.100000)" stroke="none" fill="#F4AB82"/>

<path d="M280 830 c0 -5 -13 -10 -30 -10 -16 0 -30 -4 -30 -10 0 -5 -7 -10 -15 -10 -19 0 -125 -104 -125 -123 0 -7 -9 -19 -20 -27 -11 -8 -20 -22 -20 -32 0 -10 -4 -18 -10 -18 -5 0 -10 -18 -10 -40 0 -22 -4 -40 -10 -40 -6 0 -10 -33 -10 -80 0 -47 4 -80 10 -80 6 0 10 -13 10 -30 0 -16 5 -30 10 -30 6 0 10 -17 10 -38 0 -26 6 -42 20 -52 11 -8 20 -20 20 -28 0 -17 45 -62 62 -62 8 0 20 -9 28 -20 8 -11 20 -20 27 -20 7 0 27 -14 45 -30 17 -17 39 -30 49 -30 10 0 21 -4 24 -10 3 -5 37 -10 76 -10 62 0 69 2 69 19 0 22 -12 27 -85 36 -58 8 -155 52 -207 95 -52 43 -103 125 -128 208 -20 67 -21 78 -9 140 12 67 56 171 87 206 125 139 344 155 542 40 64 -37 142 -116 167 -168 23 -48 53 -49 53 -2 0 29 -11 46 -74 110 -41 42 -82 76 -90 76 -9 0 -16 5 -16 10 0 6 -9 10 -20 10 -11 0 -20 5 -20 10 0 6 -9 10 -20 10 -11 0 -20 5 -20 10 0 6 -18 10 -40 10 -22 0 -40 5 -40 10 0 6 -50 10 -130 10 -80 0 -130 -4 -130 -10z" transform="translate(0.000000,84.000000) scale(0.100000,-0.100000)" stroke="none" fill="#F4AB82"/>

</svg>