<?xml version="1.0" standalone="no"?>
<!DOCTYPE svg PUBLIC "-//W3C//DTD SVG 20010904//EN"
 "http://www.w3.org/TR/2001/REC-SVG-20010904/DTD/svg10.dtd">
<svg version="1.0" xmlns="http://www.w3.org/2000/svg" 
width="108.000000pt" height="96.000000pt" viewBox="0 0 108.000000 96.000000"
preserveAspectRatio = "xMidYMid meet" >
<metadata>
Created by ZoeQU, 2022
</metadata>
<rect width="108.000000" height="96.000000" fill="#E3E3E4"/>
<path d="M150 903 c-50 -19 -66 -79 -34 -133 16 -25 16 -31 0 -75 -9 -27 -16 -69 -16 -94 0 -29 -9 -64 -25 -95 -29 -58 -30 -75 -9 -170 33 -148 59 -186 129 -186 93 0 175 64 226 178 13 28 28 52 33 52 5 0 6 -23 2 -51 l-7 -51 28 6 c26 6 28 4 30 -29 2 -51 61 -164 98 -187 36 -23 93 -18 136 13 28 20 125 142 148 186 13 26 14 82 2 102 -6 10 -3 27 10 52 10 21 19 43 19 49 0 6 10 24 21 40 16 21 20 37 15 60 -5 27 -1 36 29 64 41 39 44 64 13 93 -71 64 -260 50 -369 -28 -32 -22 -38 -16 -12 13 27 31 9 29 -28 -2 -19 -16 -39 -29 -45 -30 -14 0 -64 74 -64 95 0 8 -4 15 -10 15 -5 0 -10 -9 -10 -20 0 -16 -10 -9 -52 31 -51 49 -113 87 -124 76 -4 -4 -46 6 -104 26 -8 3 -22 3 -30 0z m119 -149 c76 -51 113 -105 126 -181 8 -50 1 -53 -53 -20 -40 24 -75 41 -106 51 -14 5 -17 12 -12 31 3 14 9 37 12 51 7 28 -12 74 -31 74 -16 0 -37 25 -28 33 11 12 21 8 92 -39z m646 -95 c4 -6 -14 -30 -40 -55 -26 -24 -55 -58 -64 -76 -15 -30 -20 -33 -56 -30 -54 4 -135 22 -135 31 0 10 81 76 117 95 18 9 49 16 70 16 21 0 47 7 57 15 23 18 42 19 51 4z m-692 -206 c4 -3 19 -7 34 -9 16 -1 56 -6 90 -11 l62 -8 -16 -33 c-22 -46 -130 -144 -155 -140 -19 3 -42 57 -62 141 -10 43 22 85 47 60z m380 -36 c7 -18 90 -57 121 -57 14 0 32 -7 41 -16 14 -15 14 -19 -5 -51 -28 -48 -103 -133 -116 -133 -15 0 -53 72 -69 130 -11 40 -12 60 -6 125 1 19 27 20 34 2z" transform="translate(0.000000,96.000000) scale(0.100000,-0.100000)" stroke="none" fill="#125260"/>

</svg>