<?xml version="1.0" standalone="no"?>
<!DOCTYPE svg PUBLIC "-//W3C//DTD SVG 20010904//EN"
 "http://www.w3.org/TR/2001/REC-SVG-20010904/DTD/svg10.dtd">
<svg version="1.0" xmlns="http://www.w3.org/2000/svg" 
width="92.000000pt" height="68.000000pt" viewBox="0 0 92.000000 68.000000"
preserveAspectRatio = "xMidYMid meet" >
<metadata>
Created by ZoeQU, 2022
</metadata>
<rect width="92.000000" height="68.000000" fill="#DCC4B1"/>
<path d="M823 626 c-14 -25 -135 -156 -143 -156 -5 0 -28 -13 -52 -28 -24 -16 -74 -41 -113 -57 -61 -24 -90 -29 -220 -36 -82 -4 -165 -8 -182 -8 -31 -1 -33 -3 -33 -38 0 -32 8 -44 67 -101 44 -41 94 -77 143 -100 74 -36 77 -36 200 -37 113 0 129 2 170 24 82 43 121 81 152 148 49 106 71 276 47 358 -14 47 -23 54 -36 31z m21 -122 c-1 -21 -6 -57 -11 -79 -14 -60 -72 -172 -98 -189 -12 -8 -28 -21 -36 -28 -70 -70 -242 -100 -363 -63 -64 20 -148 61 -176 87 -32 30 -12 38 100 38 164 0 327 47 418 120 26 21 70 65 97 99 28 33 55 59 60 58 6 -2 9 -21 9 -43z" transform="translate(0.000000,68.000000) scale(0.100000,-0.100000)" stroke="none" fill="#874D28"/>

</svg>