<?xml version="1.0" standalone="no"?>
<!DOCTYPE svg PUBLIC "-//W3C//DTD SVG 20010904//EN"
 "http://www.w3.org/TR/2001/REC-SVG-20010904/DTD/svg10.dtd">
<svg version="1.0" xmlns="http://www.w3.org/2000/svg" 
width="164.000000pt" height="104.000000pt" viewBox="0 0 164.000000 104.000000"
preserveAspectRatio = "xMidYMid meet" >
<metadata>
Created by ZoeQU, 2022
</metadata>
<rect width="164.000000" height="104.000000" fill="#1B9583"/>
<path d="M1291 593 c8 -13 19 -23 26 -23 6 0 19 -7 28 -17 19 -19 14 -65 -10 -89 -8 -9 -15 -26 -15 -39 0 -18 5 -23 24 -21 25 1 26 16 0 16 -8 0 -14 6 -14 14 0 14 24 39 31 32 2 -2 5 14 6 37 3 40 -17 77 -40 77 -6 0 -19 8 -30 18 -19 17 -19 16 -6 -5z" transform="translate(0.000000,104.000000) scale(0.100000,-0.100000)" stroke="none" fill="#6BC1B1"/>

<path d="M138 553 c20 -8 14 -29 -13 -43 -41 -22 -27 -88 24 -115 30 -15 131 -21 131 -7 0 4 -24 6 -53 4 -60 -4 -100 19 -111 64 -5 20 -1 31 20 49 27 23 28 56 2 54 -10 0 -10 -2 0 -6z" transform="translate(0.000000,104.000000) scale(0.100000,-0.100000)" stroke="none" fill="#6BC1B1"/>

<path d="M1477 545 c-4 -8 6 -24 24 -39 23 -20 28 -31 23 -50 -10 -40 -39 -59 -106 -66 l-63 -7 54 -2 c82 -2 130 35 131 99 0 9 -14 24 -32 34 -29 18 -30 20 -13 32 16 12 16 14 3 14 -9 0 -18 -7 -21 -15z" transform="translate(0.000000,104.000000) scale(0.100000,-0.100000)" stroke="none" fill="#6BC1B1"/>

<path d="M519 973 c-13 -16 -12 -17 4 -4 20 16 18 17 51 -32 14 -21 26 -49 26 -62 0 -14 5 -25 10 -25 7 0 7 -7 -1 -22 -6 -11 -14 -59 -17 -105 -4 -77 -3 -83 14 -82 11 0 13 3 7 6 -16 6 -18 119 -3 128 6 3 10 16 10 29 0 12 5 27 11 33 13 13 2 36 -13 27 -6 -4 -8 1 -5 12 5 19 -48 104 -69 111 -6 2 -17 -4 -25 -14z" transform="translate(0.000000,104.000000) scale(0.100000,-0.100000)" stroke="none" fill="#6BC1B1"/>

<path d="M1117 116 c-3 -7 -16 -16 -29 -19 -43 -10 -102 -35 -105 -44 -2 -5 7 -18 19 -29 l23 -19 -17 21 c-24 28 -23 34 8 34 21 0 25 -4 21 -20 -3 -11 -2 -20 3 -20 4 0 10 9 13 20 4 17 14 20 54 20 39 0 54 5 72 24 13 14 20 29 16 35 -9 16 -72 14 -78 -3z m73 -6 c0 -18 -45 -39 -72 -33 l-27 5 22 19 c23 19 77 26 77 9z m-120 -40 c-20 -13 -33 -13 -25 0 3 6 14 10 23 10 15 0 15 -2 2 -10z" transform="translate(0.000000,104.000000) scale(0.100000,-0.100000)" stroke="none" fill="#6BC1B1"/>

<path d="M192 708 c-7 -7 -12 -27 -12 -44 0 -31 -1 -33 -33 -27 -46 7 -85 -24 -68 -55 6 -12 16 -22 22 -22 6 0 3 7 -5 16 -9 8 -16 20 -16 25 0 16 47 28 84 22 l36 -6 -3 39 c-2 36 0 39 27 42 21 3 34 -3 46 -19 18 -23 40 -19 40 7 0 17 28 18 50 2 9 -7 6 -3 -7 9 -26 25 -53 21 -53 -8 0 -25 -16 -24 -23 1 -3 12 -14 20 -25 20 -11 0 -26 2 -34 5 -7 3 -19 0 -26 -7z" transform="translate(0.000000,104.000000) scale(0.100000,-0.100000)" stroke="none" fill="#6BC1B1"/>

<path d="M1273 708 c-27 -13 -29 -31 -5 -49 15 -13 16 -12 4 3 -18 23 -7 38 29 38 19 0 29 -5 29 -14 0 -26 22 -30 40 -7 12 16 25 22 46 19 27 -3 29 -5 26 -42 l-3 -39 40 7 c21 3 47 3 55 0 19 -7 21 -35 4 -53 -11 -11 -10 -13 2 -9 8 3 16 16 18 31 4 33 -27 51 -72 43 -32 -6 -32 -5 -28 24 6 42 -12 61 -51 53 -18 -3 -37 -12 -43 -19 -15 -18 -24 -18 -24 1 0 8 -4 15 -9 15 -5 0 -15 2 -23 4 -7 3 -23 0 -35 -6z" transform="translate(0.000000,104.000000) scale(0.100000,-0.100000)" stroke="none" fill="#6BC1B1"/>

<path d="M1113 968 c4 -20 29 -78 35 -78 3 0 22 18 43 40 40 42 53 48 66 28 14 -23 9 -42 -20 -76 -15 -19 -27 -41 -25 -50 3 -16 14 -18 63 -10 16 2 20 -3 20 -27 0 -24 -5 -31 -30 -39 -48 -14 -78 -30 -65 -34 6 -2 17 1 23 7 6 6 21 11 32 11 22 0 65 34 65 51 0 39 -42 63 -67 38 -6 -6 -16 -8 -22 -5 -14 9 12 61 34 69 18 8 20 58 3 75 -20 20 -42 14 -78 -23 -19 -19 -38 -35 -41 -35 -6 0 -18 28 -23 52 -2 13 -14 19 -13 6z" transform="translate(0.000000,104.000000) scale(0.100000,-0.100000)" stroke="none" fill="#6BC1B1"/>

<path d="M372 968 c-20 -20 -13 -61 18 -98 32 -36 27 -61 -7 -39 -27 16 -51 6 -59 -27 -5 -21 -2 -31 17 -45 13 -10 32 -19 42 -19 10 0 29 -7 42 -16 13 -9 29 -13 35 -9 7 4 14 -2 17 -14 3 -12 9 -21 14 -21 5 0 3 11 -3 25 -8 17 -17 24 -28 20 -10 -3 -23 1 -30 10 -7 8 -21 15 -32 15 -33 0 -58 19 -58 45 0 29 16 41 35 25 14 -11 55 -5 55 8 0 7 -24 45 -52 85 -10 13 -10 21 -2 35 16 25 30 21 73 -21 l40 -38 17 26 c9 14 14 29 10 32 -4 4 -9 -3 -13 -15 -5 -22 -33 -31 -33 -12 0 16 -52 59 -70 60 -9 0 -21 -5 -28 -12z" transform="translate(0.000000,104.000000) scale(0.100000,-0.100000)" stroke="none" fill="#6BC1B1"/>

<path d="M1060 811 c0 -16 7 -48 16 -72 11 -32 14 -63 10 -110 -5 -53 -3 -69 10 -80 13 -10 17 -10 25 2 5 8 9 24 9 36 0 25 43 59 60 48 17 -11 11 -61 -10 -80 -24 -22 -26 -51 -4 -59 11 -4 22 1 31 14 10 14 21 19 33 15 10 -3 21 -2 23 3 11 16 -41 7 -61 -11 -28 -25 -40 -2 -14 26 11 12 22 41 25 63 5 39 3 42 -22 42 -33 0 -71 -34 -71 -65 0 -13 -4 -23 -10 -23 -6 0 -10 31 -10 73 0 39 -7 90 -15 112 -8 22 -14 48 -15 58 0 27 24 15 28 -14 2 -13 7 -33 12 -44 5 -11 11 -27 14 -35 8 -19 0 24 -13 74 -14 58 -51 77 -51 27z" transform="translate(0.000000,104.000000) scale(0.100000,-0.100000)" stroke="none" fill="#6BC1B1"/>

<path d="M1057 948 c-38 -47 -39 -59 -21 -235 6 -62 5 -63 -19 -63 -26 0 -57 -28 -57 -51 0 -8 16 -21 35 -28 53 -19 78 -83 71 -181 -3 -41 -6 -87 -6 -102 0 -27 -39 -100 -60 -113 -6 -4 -23 4 -37 16 l-26 24 18 -27 c9 -16 23 -28 30 -28 8 0 30 19 50 42 26 31 36 52 36 78 0 19 3 70 5 113 7 96 -16 156 -68 183 -43 22 -41 19 -29 42 6 12 23 22 38 24 28 3 28 4 26 68 -1 36 -4 92 -5 125 -4 55 -1 64 30 108 42 59 35 62 -11 5z" transform="translate(0.000000,104.000000) scale(0.100000,-0.100000)" stroke="none" fill="#6BC1B1"/>

<path d="M892 828 c-7 -7 -12 -18 -12 -24 0 -20 -19 -27 -36 -13 -12 10 -13 9 -8 -5 10 -25 37 -19 55 12 16 29 40 35 68 18 10 -7 5 -12 -18 -22 -26 -11 -31 -17 -26 -37 5 -19 0 -29 -19 -45 -21 -16 -26 -28 -26 -64 0 -38 5 -48 30 -66 33 -25 39 -52 15 -72 -21 -18 -17 -105 5 -105 8 0 20 14 25 30 14 43 24 55 45 55 11 0 22 -12 29 -31 9 -27 8 -37 -11 -68 -12 -20 -30 -41 -39 -48 -23 -17 -41 -66 -36 -99 3 -25 4 -24 6 8 0 24 10 49 29 70 60 73 74 98 67 128 -9 41 -30 56 -63 44 -19 -7 -28 -18 -32 -39 -7 -39 -24 -38 -28 1 -2 19 3 36 12 44 25 20 19 54 -14 85 -42 40 -42 91 1 129 23 20 28 31 20 39 -18 18 -13 27 14 27 30 0 43 24 25 45 -15 18 -61 20 -78 3z" transform="translate(0.000000,104.000000) scale(0.100000,-0.100000)" stroke="none" fill="#6BC1B1"/>

<path d="M669 824 c-11 -14 -10 -18 6 -30 10 -8 23 -14 28 -14 4 0 5 -9 2 -20 -5 -15 2 -28 24 -49 40 -37 43 -90 8 -118 -42 -33 -49 -57 -26 -87 12 -15 18 -36 16 -53 -5 -36 -27 -43 -27 -7 0 52 -68 74 -88 29 -17 -38 -15 -50 18 -97 17 -24 38 -53 47 -66 8 -12 19 -37 23 -55 8 -32 8 -32 9 -4 1 30 -24 87 -38 87 -5 0 -21 20 -35 45 -39 66 -19 123 33 95 12 -6 21 -21 21 -33 0 -12 4 -28 9 -36 8 -12 12 -12 25 -2 23 20 21 83 -4 104 -23 20 -18 37 24 76 38 36 36 94 -4 128 -24 19 -28 28 -19 39 12 15 4 34 -15 34 -20 0 -40 27 -24 32 25 9 60 -5 70 -28 11 -23 48 -34 48 -14 0 5 -7 7 -15 4 -9 -4 -18 3 -24 19 -15 38 -67 51 -92 21z" transform="translate(0.000000,104.000000) scale(0.100000,-0.100000)" stroke="none" fill="#6BC1B1"/>

<path d="M1264 689 c-3 -6 -1 -16 5 -22 6 -6 11 -21 11 -32 0 -22 28 -55 47 -55 25 0 45 -39 39 -74 -4 -20 -2 -37 4 -41 13 -8 13 -25 0 -25 -5 0 -10 7 -10 16 0 14 -3 14 -15 4 -21 -18 -19 -37 6 -43 13 -4 18 -10 14 -18 -13 -20 110 -6 134 15 35 31 35 64 2 92 -33 28 -32 54 3 54 26 0 46 18 46 41 0 23 -24 30 -71 23 l-40 -7 3 39 c3 37 1 39 -26 42 -21 3 -34 -3 -46 -19 -18 -23 -40 -19 -40 7 0 17 -55 20 -66 3z" transform="translate(0.000000,104.000000) scale(0.100000,-0.100000)" stroke="none" fill="#C9E6D9"/>

<path d="M195 690 c-4 -6 -4 -24 0 -40 l6 -29 -50 2 c-27 1 -55 -3 -61 -9 -17 -17 0 -44 32 -51 41 -8 46 -30 14 -58 -54 -46 -2 -115 86 -115 56 0 72 18 43 50 -15 17 -16 22 -4 36 8 9 12 28 11 41 -5 38 24 63 75 63 51 0 63 17 42 58 -31 62 -71 83 -82 42 -3 -11 -10 -20 -16 -20 -6 0 -15 9 -21 20 -11 21 -64 28 -75 10z m185 -80 c0 -5 -4 -10 -10 -10 -5 0 -10 5 -10 10 0 6 5 10 10 10 6 0 10 -4 10 -10z" transform="translate(0.000000,104.000000) scale(0.100000,-0.100000)" stroke="none" fill="#C9E6D9"/>

<path d="M548 828 c-9 -7 -18 -26 -21 -43 -3 -16 -8 -43 -12 -60 -4 -24 16 30 31 83 5 16 24 15 24 -2 0 -7 -7 -33 -15 -56 -8 -23 -15 -76 -15 -116 0 -43 -4 -74 -10 -74 -5 0 -10 9 -10 21 0 23 -67 92 -81 83 -15 -9 -10 -100 6 -114 8 -7 15 -22 15 -33 0 -20 0 -20 -22 -1 -13 11 -35 26 -50 34 -16 7 -28 17 -28 22 0 4 -13 8 -28 8 -36 0 -65 -31 -59 -62 4 -21 4 -21 6 4 0 16 9 32 20 38 35 18 45 11 21 -14 -21 -24 -22 -56 -2 -56 5 0 15 -14 22 -31 7 -17 25 -35 39 -41 l26 -11 -34 -7 c-63 -15 -111 -43 -111 -67 0 -13 -6 -23 -12 -23 -7 0 -23 -8 -36 -18 -26 -20 -22 -47 10 -55 l20 -6 -21 -27 c-11 -15 -21 -35 -21 -46 0 -16 6 -18 38 -16 29 2 36 0 33 -12 -14 -54 -13 -70 6 -70 11 0 30 12 44 26 13 14 38 34 56 46 19 11 47 39 63 64 34 49 50 49 68 1 18 -46 65 -94 101 -102 28 -6 36 -2 73 36 27 28 44 55 47 78 8 48 31 53 31 7 0 -25 6 -38 19 -46 47 -25 108 1 98 42 -4 13 -2 29 2 37 7 11 11 9 20 -7 6 -11 11 -31 11 -44 0 -15 17 -40 44 -67 38 -38 48 -42 75 -36 35 7 84 59 106 113 l16 37 58 -60 c117 -120 171 -151 171 -101 0 14 -4 28 -10 31 -5 3 -10 13 -10 21 0 11 9 13 41 8 l42 -7 -7 29 c-4 16 -15 37 -23 46 -14 16 -14 18 3 25 42 15 39 45 -7 63 -19 8 -29 20 -29 34 0 22 -26 38 -104 61 l-41 13 27 10 c14 6 29 20 33 32 4 11 16 30 28 41 17 15 19 23 11 37 -6 9 -20 18 -30 19 -15 2 -14 1 4 -7 26 -11 28 -23 6 -41 -8 -7 -22 -25 -30 -40 -7 -15 -23 -30 -34 -34 -39 -13 -17 -45 30 -45 33 0 90 -33 90 -51 0 -9 17 -27 37 -39 35 -21 36 -23 19 -36 -10 -7 -24 -15 -30 -17 -7 -2 -4 -13 7 -30 24 -37 22 -45 -15 -49 -35 -3 -39 -15 -23 -65 5 -15 3 -23 -5 -23 -12 0 -132 98 -139 114 -2 5 -16 22 -31 39 -31 35 -42 31 -69 -21 -26 -50 -66 -90 -96 -98 -21 -5 -32 1 -65 37 -24 27 -39 54 -40 70 0 14 -8 33 -19 43 -16 15 -20 15 -31 1 -7 -8 -10 -25 -6 -40 5 -21 2 -27 -21 -36 -43 -16 -73 2 -73 45 0 19 -5 38 -12 42 -15 9 -38 -23 -38 -55 0 -16 -16 -42 -41 -69 -34 -36 -46 -42 -66 -37 -31 7 -79 59 -98 103 -19 43 -42 51 -62 21 -15 -22 -63 -70 -132 -133 -44 -41 -61 -34 -42 17 13 34 -1 50 -38 45 -37 -5 -37 -3 -10 41 11 18 19 34 17 36 -2 1 -13 8 -26 14 -20 10 -21 15 -11 28 7 8 23 19 36 24 13 5 23 16 23 26 0 21 51 53 85 53 54 0 77 34 32 46 -14 3 -31 20 -40 40 -9 19 -21 34 -27 34 -21 0 -9 31 16 40 27 11 78 -9 101 -39 11 -15 13 -14 29 1 17 17 17 19 -4 47 -15 20 -22 45 -22 73 l0 42 35 -34 c20 -19 35 -44 35 -56 0 -13 5 -26 11 -30 21 -13 32 16 30 83 -1 38 5 90 14 118 25 83 19 111 -17 83z" transform="translate(0.000000,104.000000) scale(0.100000,-0.100000)" stroke="none" fill="#6BC1B1"/>

<path d="M527 973 c-4 -3 -7 -14 -7 -22 0 -9 -7 -27 -16 -39 l-16 -23 -39 38 c-43 42 -57 46 -73 21 -8 -14 -8 -22 2 -35 28 -40 52 -78 52 -85 0 -13 -41 -19 -55 -8 -19 16 -35 4 -35 -25 0 -26 25 -45 58 -45 11 0 25 -7 32 -15 7 -9 20 -13 30 -10 11 4 20 -3 29 -21 14 -31 23 -26 27 13 8 82 27 123 56 123 12 0 9 -40 -7 -95 -9 -28 -15 -80 -14 -118 2 -67 -9 -96 -30 -83 -6 4 -11 17 -11 30 0 12 -15 37 -35 56 l-35 34 0 -42 c0 -28 7 -53 22 -73 21 -28 21 -30 4 -47 -16 -15 -18 -16 -29 -1 -23 30 -74 50 -101 39 -25 -9 -37 -40 -16 -40 6 0 18 -15 27 -34 9 -20 26 -37 40 -40 45 -12 22 -46 -32 -46 -34 0 -85 -32 -85 -53 0 -10 -10 -21 -23 -26 -13 -5 -29 -16 -36 -24 -10 -13 -9 -18 11 -28 13 -6 24 -13 26 -14 2 -2 -6 -18 -17 -36 -27 -44 -27 -46 10 -41 37 5 51 -11 38 -45 -19 -52 -2 -58 44 -16 74 68 115 110 130 132 20 30 43 22 62 -21 19 -44 67 -96 98 -103 20 -5 32 1 66 37 25 27 41 53 41 69 0 32 23 64 38 55 7 -4 12 -23 12 -42 0 -43 30 -61 73 -45 23 9 26 15 21 36 -4 15 -1 32 6 40 11 14 15 14 31 -1 11 -10 19 -29 19 -43 1 -16 16 -43 40 -70 33 -36 44 -42 65 -37 30 8 70 48 96 98 27 52 38 56 69 21 15 -17 29 -34 31 -39 7 -16 127 -114 139 -114 8 0 10 8 5 23 -16 50 -12 62 23 65 37 4 39 12 15 49 -11 17 -14 28 -7 30 6 2 20 10 30 17 17 13 16 15 -19 36 -20 12 -37 30 -37 39 0 18 -57 51 -90 51 -47 0 -69 32 -30 45 11 3 25 16 31 28 6 12 20 32 31 44 11 12 17 26 13 32 -8 14 -52 14 -60 1 -4 -6 -15 -8 -25 -5 -12 4 -23 -1 -33 -15 -9 -13 -20 -18 -31 -14 -22 8 -20 37 4 59 21 19 27 69 10 80 -17 11 -60 -23 -60 -48 0 -12 -4 -28 -9 -36 -8 -12 -12 -12 -25 -2 -13 11 -15 27 -10 80 4 47 1 78 -10 110 -17 46 -21 101 -8 101 27 -1 51 -51 56 -123 4 -39 14 -44 26 -13 5 15 16 26 23 23 6 -2 23 1 37 8 14 7 39 17 55 22 25 7 30 14 30 38 0 24 -4 29 -20 27 -49 -8 -60 -6 -63 10 -2 9 10 31 25 50 29 34 34 53 20 76 -13 20 -26 14 -66 -28 -21 -22 -40 -40 -43 -40 -6 0 -33 60 -33 75 0 22 -25 8 -52 -30 -26 -35 -29 -47 -25 -100 1 -33 4 -89 5 -125 2 -64 2 -65 -26 -68 -15 -2 -32 -12 -38 -24 -12 -23 -14 -20 29 -42 52 -27 75 -87 68 -183 -2 -43 -5 -94 -5 -113 0 -26 -10 -47 -36 -78 -20 -23 -43 -42 -50 -42 -19 0 -55 62 -55 94 0 30 23 81 43 93 7 4 23 24 35 44 19 31 20 41 11 68 -7 19 -18 31 -29 31 -21 0 -31 -12 -45 -55 -5 -16 -17 -30 -25 -30 -22 0 -26 87 -5 105 24 20 18 47 -15 72 -25 18 -30 28 -30 66 0 36 5 48 26 64 19 16 24 26 19 45 -5 20 0 26 26 37 23 10 28 15 18 22 -28 17 -52 11 -68 -18 -15 -27 -50 -39 -52 -18 -1 6 -2 16 -3 23 -2 21 -31 13 -34 -10 -4 -31 -36 -30 -50 1 -10 23 -45 37 -70 28 -16 -5 4 -32 24 -32 19 0 27 -19 15 -34 -9 -11 -5 -20 19 -39 40 -34 42 -92 4 -128 -42 -39 -47 -56 -24 -76 25 -21 27 -84 4 -104 -13 -10 -17 -10 -25 2 -5 8 -9 24 -9 36 0 12 -9 27 -21 33 -52 28 -72 -29 -33 -95 14 -25 30 -45 35 -45 18 0 41 -63 35 -98 -5 -35 -40 -82 -60 -82 -6 0 -26 20 -44 44 -24 32 -32 53 -31 77 2 19 -3 44 -10 57 -14 27 -5 129 16 180 11 28 53 64 87 75 5 2 4 13 -3 25 -8 15 -21 22 -43 22 l-31 0 5 83 c3 46 11 94 17 105 8 15 8 22 1 22 -5 0 -10 11 -10 24 0 23 -47 106 -60 106 -4 0 -10 -3 -13 -7z" transform="translate(0.000000,104.000000) scale(0.100000,-0.100000)" stroke="none" fill="#C9E6D9"/>

</svg>