<?xml version="1.0" standalone="no"?>
<!DOCTYPE svg PUBLIC "-//W3C//DTD SVG 20010904//EN"
 "http://www.w3.org/TR/2001/REC-SVG-20010904/DTD/svg10.dtd">
<svg version="1.0" xmlns="http://www.w3.org/2000/svg" 
width="58.000000pt" height="48.000000pt" viewBox="0 0 58.000000 48.000000"
preserveAspectRatio = "xMidYMid meet" >
<metadata>
Created by ZoeQU, 2022
</metadata>
<rect width="58.000000" height="48.000000" fill="#32436C"/>
<path d="M530 188 c0 -9 -6 -19 -12 -21 -10 -4 -10 -6 0 -6 14 -1 28 26 18 36 -3 4 -6 -1 -6 -9z" transform="translate(0.000000,48.000000) scale(0.100000,-0.100000)" stroke="none" fill="#A6A09A"/>

<path d="M461 303 c-1 -18 4 -23 22 -22 15 1 17 3 5 6 -9 2 -19 12 -21 21 -3 12 -5 10 -6 -5z" transform="translate(0.000000,48.000000) scale(0.100000,-0.100000)" stroke="none" fill="#646268"/>

<path d="M481 151 c-7 -5 -12 -13 -10 -18 2 -5 12 -1 22 9 18 19 12 24 -12 9z" transform="translate(0.000000,48.000000) scale(0.100000,-0.100000)" stroke="none" fill="#646268"/>

<path d="M517 266 c20 -26 27 -28 17 -3 -3 8 -12 18 -20 21 -11 4 -10 0 3 -18z" transform="translate(0.000000,48.000000) scale(0.100000,-0.100000)" stroke="none" fill="#A6A09A"/>

<path d="M180 286 c0 -10 9 -16 21 -16 24 0 21 23 -4 28 -10 2 -17 -3 -17 -12z" transform="translate(0.000000,48.000000) scale(0.100000,-0.100000)" stroke="none" fill="#F2F3EB"/>

<path d="M390 383 c8 -3 24 -13 35 -22 20 -16 20 -16 1 7 -11 12 -26 22 -35 21 -14 0 -14 -1 -1 -6z" transform="translate(0.000000,48.000000) scale(0.100000,-0.100000)" stroke="none" fill="#A6A09A"/>

<path d="M139 468 c8 -11 9 -18 1 -23 -5 -3 -10 -11 -10 -16 0 -6 7 -3 16 6 16 15 16 18 -2 33 -16 16 -17 16 -5 0z" transform="translate(0.000000,48.000000) scale(0.100000,-0.100000)" stroke="none" fill="#646268"/>

<path d="M449 308 c4 -17 12 -33 19 -34 7 -1 8 0 2 3 -5 2 -10 15 -10 28 0 13 -4 26 -9 29 -4 3 -5 -9 -2 -26z" transform="translate(0.000000,48.000000) scale(0.100000,-0.100000)" stroke="none" fill="#A6A09A"/>

<path d="M180 167 l-25 -32 32 25 c31 24 41 41 26 39 -5 0 -19 -14 -33 -32z" transform="translate(0.000000,48.000000) scale(0.100000,-0.100000)" stroke="none" fill="#646268"/>

<path d="M445 54 c-19 -14 -26 -14 -70 1 -13 4 -12 1 5 -9 33 -20 43 -20 71 4 28 23 23 26 -6 4z" transform="translate(0.000000,48.000000) scale(0.100000,-0.100000)" stroke="none" fill="#646268"/>

<path d="M120 390 c0 -15 -7 -20 -28 -20 -17 0 -32 -8 -41 -22 -13 -22 -13 -23 6 -5 11 9 32 17 46 17 22 0 27 5 27 25 0 14 -2 25 -5 25 -3 0 -5 -9 -5 -20z" transform="translate(0.000000,48.000000) scale(0.100000,-0.100000)" stroke="none" fill="#646268"/>

<path d="M213 163 c-15 -31 -17 -103 -4 -103 5 0 19 12 31 27 12 16 29 31 38 35 16 6 16 7 0 7 -9 1 -28 -13 -42 -30 l-26 -31 0 39 c0 22 5 44 11 50 6 6 10 16 8 22 -2 6 -10 -2 -16 -16z" transform="translate(0.000000,48.000000) scale(0.100000,-0.100000)" stroke="none" fill="#A6A09A"/>

<path d="M192 98 c-3 -51 15 -58 49 -20 30 34 75 43 85 18 3 -8 13 -17 22 -21 11 -4 9 2 -7 19 -34 36 -71 34 -99 -4 -30 -40 -40 -38 -45 8 l-4 37 -1 -37z" transform="translate(0.000000,48.000000) scale(0.100000,-0.100000)" stroke="none" fill="#646268"/>

<path d="M31 292 c-1 -28 3 -35 29 -43 25 -9 28 -14 23 -40 -7 -37 19 -79 50 -78 14 0 17 2 7 6 -37 14 -51 36 -45 74 6 34 4 37 -24 47 -21 8 -31 18 -34 39 -4 27 -4 26 -6 -5z" transform="translate(0.000000,48.000000) scale(0.100000,-0.100000)" stroke="none" fill="#646268"/>

<path d="M467 153 c-4 -4 -5 -21 -1 -39 5 -26 1 -35 -17 -48 -33 -23 -44 -21 -91 22 -41 35 -41 36 -18 5 14 -17 38 -37 53 -44 25 -10 32 -9 55 8 21 16 27 28 25 54 -1 19 4 37 10 41 8 5 8 8 1 8 -6 0 -14 -3 -17 -7z" transform="translate(0.000000,48.000000) scale(0.100000,-0.100000)" stroke="none" fill="#A6A09A"/>

<path d="M203 428 c15 -13 27 -29 27 -36 0 -15 5 -15 48 0 31 12 36 11 51 -8 16 -20 17 -20 46 -1 21 13 24 17 8 12 -12 -3 -24 -1 -28 5 -9 14 -78 13 -93 -2 -10 -10 -16 -7 -28 10 -8 12 -25 27 -37 32 -17 9 -16 6 6 -12z" transform="translate(0.000000,48.000000) scale(0.100000,-0.100000)" stroke="none" fill="#646268"/>

<path d="M362 238 c-17 -17 -15 -43 4 -59 23 -19 49 1 49 40 1 25 -3 31 -20 31 -12 0 -26 -5 -33 -12z" transform="translate(0.000000,48.000000) scale(0.100000,-0.100000)" stroke="none" fill="#ECC97C"/>

<path d="M150 465 c10 -11 9 -18 -4 -30 -9 -9 -16 -30 -16 -46 0 -25 -4 -29 -28 -29 -35 0 -62 -28 -62 -64 0 -21 7 -29 31 -38 28 -10 30 -13 24 -45 -5 -26 -2 -40 11 -54 24 -26 46 -24 75 9 l24 27 -26 -22 c-48 -43 -84 -21 -73 45 6 38 5 40 -25 47 -25 5 -31 12 -31 32 0 31 19 51 56 55 28 3 32 9 50 76 3 10 11 9 34 -5 16 -9 30 -23 30 -30 0 -20 19 -25 55 -13 32 11 37 10 55 -12 16 -19 21 -21 29 -8 11 16 5 31 -12 29 -7 -1 -20 1 -30 6 -10 4 -29 3 -43 -4 -33 -15 -44 -14 -44 3 0 7 -11 21 -25 30 -14 9 -25 25 -25 36 0 14 -7 20 -21 20 -18 0 -19 -3 -9 -15z m210 -89 c0 -3 -4 -8 -10 -11 -5 -3 -10 -1 -10 4 0 6 5 11 10 11 6 0 10 -2 10 -4z" transform="translate(0.000000,48.000000) scale(0.100000,-0.100000)" stroke="none" fill="#A6A09A"/>

<path d="M360 361 c-5 -11 -10 -28 -10 -38 0 -10 -7 -29 -16 -42 -10 -14 -14 -33 -11 -51 7 -35 -17 -60 -59 -60 -40 0 -54 -16 -54 -63 l0 -39 26 32 c23 27 31 30 58 24 17 -3 48 -22 69 -40 42 -38 53 -41 85 -18 18 12 22 24 20 51 -3 33 0 37 29 45 24 6 33 15 38 38 9 43 -17 82 -52 78 -23 -3 -28 2 -34 30 -13 63 -66 94 -89 53z m55 -142 c0 -39 -26 -59 -49 -40 -31 26 -13 71 29 71 17 0 21 -6 20 -31z" transform="translate(0.000000,48.000000) scale(0.100000,-0.100000)" stroke="none" fill="#F2F3EB"/>

<path d="M148 398 c-11 -36 -18 -44 -42 -46 -36 -4 -50 -19 -54 -54 -2 -22 2 -27 29 -33 30 -7 31 -8 25 -47 -11 -69 26 -89 77 -40 27 25 29 26 41 10 16 -22 64 -23 87 -2 13 11 16 25 12 44 -3 18 1 37 11 51 21 30 20 55 -2 83 -18 23 -24 24 -75 11 -23 -6 -29 -4 -33 12 -3 11 -18 27 -34 36 l-28 17 -14 -42z m70 -115 c2 -8 -5 -13 -17 -13 -12 0 -21 6 -21 16 0 18 31 15 38 -3z" transform="translate(0.000000,48.000000) scale(0.100000,-0.100000)" stroke="none" fill="#ECC97C"/>

</svg>