<?xml version="1.0" standalone="no"?>
<!DOCTYPE svg PUBLIC "-//W3C//DTD SVG 20010904//EN"
 "http://www.w3.org/TR/2001/REC-SVG-20010904/DTD/svg10.dtd">
<svg version="1.0" xmlns="http://www.w3.org/2000/svg" 
width="108.000000pt" height="98.000000pt" viewBox="0 0 108.000000 98.000000"
preserveAspectRatio = "xMidYMid meet" >
<metadata>
Created by ZoeQU, 2022
</metadata>
<rect width="108.000000" height="98.000000" fill="#4FB0A6"/>
<path d="M131 899 c-25 -15 -31 -25 -31 -54 0 -20 7 -47 17 -61 15 -24 15 -29 0 -78 -10 -29 -17 -73 -17 -99 0 -30 -9 -62 -25 -93 -30 -56 -31 -79 -6 -181 37 -153 52 -173 125 -173 32 0 67 8 91 20 40 20 125 104 125 122 0 18 32 78 42 78 5 0 8 -19 6 -42 -3 -39 -1 -43 21 -43 20 0 24 -6 27 -35 6 -52 60 -156 93 -179 16 -12 44 -21 61 -21 40 0 108 42 138 84 11 17 39 57 62 90 41 59 52 112 31 145 -6 10 -3 27 9 50 58 115 63 129 57 154 -6 20 0 32 28 60 19 19 35 42 35 50 0 23 -40 67 -60 67 -10 0 -22 5 -25 10 -4 7 -34 9 -78 5 -104 -7 -135 -15 -194 -45 -56 -29 -59 -29 -43 1 15 26 7 24 -30 -11 -18 -16 -38 -30 -45 -30 -15 0 -65 73 -65 95 0 8 -4 15 -10 15 -5 0 -10 -10 -10 -21 0 -18 -7 -15 -48 25 -57 56 -109 89 -127 82 -12 -4 -43 3 -101 25 -15 5 -31 1 -53 -12z m138 -136 c58 -39 76 -58 95 -98 28 -57 42 -125 27 -125 -12 0 -81 37 -95 51 -6 5 -17 9 -26 9 -9 0 -24 6 -34 13 -16 12 -17 18 -6 55 16 50 1 94 -36 111 -23 10 -25 31 -4 31 4 0 40 -21 79 -47z m651 -98 c0 -14 -45 -65 -57 -65 -7 0 -25 -23 -41 -50 -25 -48 -29 -50 -57 -44 -16 4 -55 10 -85 13 -34 4 -55 11 -55 18 0 7 27 33 59 57 49 36 70 46 118 51 32 4 58 11 58 16 0 5 14 9 30 9 17 0 30 -2 30 -5z m-665 -211 c17 -2 58 -7 93 -10 34 -3 62 -8 62 -11 0 -19 -60 -94 -103 -130 -79 -67 -90 -61 -123 69 -17 65 -6 105 24 93 9 -4 31 -9 47 -11z m407 -68 c21 -9 48 -16 61 -16 13 0 32 -8 41 -19 16 -18 16 -20 -1 -48 -47 -76 -133 -157 -133 -125 0 4 -10 23 -22 42 -32 50 -45 111 -40 175 l5 56 26 -25 c14 -14 43 -32 63 -40z" transform="translate(0.000000,98.000000) scale(0.100000,-0.100000)" stroke="none" fill="#F1FAFA"/>

</svg>