<?xml version="1.0" standalone="no"?>
<!DOCTYPE svg PUBLIC "-//W3C//DTD SVG 20010904//EN"
 "http://www.w3.org/TR/2001/REC-SVG-20010904/DTD/svg10.dtd">
<svg version="1.0" xmlns="http://www.w3.org/2000/svg" 
width="84.000000pt" height="86.000000pt" viewBox="0 0 84.000000 86.000000"
preserveAspectRatio = "xMidYMid meet" >
<metadata>
Created by ZoeQU, 2022
</metadata>
<rect width="84.000000" height="86.000000" fill="#F15B26"/>
<path d="M120 777 c-66 -46 -115 -244 -91 -375 22 -125 78 -236 144 -286 42 -32 129 -71 188 -83 75 -16 242 18 318 65 125 77 129 85 43 98 -114 17 -263 104 -364 211 -41 45 -118 163 -118 183 0 4 -14 34 -30 65 -17 32 -33 75 -36 96 -4 22 -10 42 -14 44 -4 3 -22 -5 -40 -18z m0 -157 c0 -5 21 -53 47 -107 50 -105 117 -186 223 -268 77 -59 173 -104 223 -105 9 0 17 -4 17 -10 0 -5 -2 -10 -4 -10 -3 0 -38 -5 -80 -10 -62 -9 -84 -8 -133 6 -155 44 -236 120 -284 264 -25 74 -39 250 -20 250 6 0 11 -4 11 -10z" transform="translate(0.000000,86.000000) scale(0.100000,-0.100000)" stroke="none" fill="#FCF2EE"/>

</svg>