<?xml version="1.0" standalone="no"?>
<!DOCTYPE svg PUBLIC "-//W3C//DTD SVG 20010904//EN"
 "http://www.w3.org/TR/2001/REC-SVG-20010904/DTD/svg10.dtd">
<svg version="1.0" xmlns="http://www.w3.org/2000/svg" 
width="88.000000pt" height="60.000000pt" viewBox="0 0 88.000000 60.000000"
preserveAspectRatio = "xMidYMid meet" >
<metadata>
Created by ZoeQU, 2022
</metadata>
<rect width="88.000000" height="60.000000" fill="#F15B26"/>
<path d="M56 538 c-36 -50 -7 -214 53 -312 22 -35 81 -93 126 -123 96 -64 252 -83 343 -41 61 29 162 131 186 188 10 25 27 64 37 87 31 70 27 75 -39 43 -22 -11 -47 -20 -55 -20 -7 0 -19 -6 -26 -12 -8 -9 -49 -13 -129 -13 -94 0 -129 5 -177 22 -33 11 -71 24 -85 27 -43 9 -149 87 -182 133 -17 24 -33 43 -34 43 -2 0 -10 -10 -18 -22z m66 -146 c9 -25 107 -83 175 -105 183 -60 289 -60 426 -2 26 11 22 -18 -9 -55 -55 -65 -148 -110 -229 -110 -39 0 -156 31 -197 53 -52 27 -113 84 -150 141 -21 32 -38 65 -38 73 0 14 16 18 22 5z" transform="translate(0.000000,60.000000) scale(0.100000,-0.100000)" stroke="none" fill="#FDEFEA"/>

</svg>