<?xml version="1.0" standalone="no"?>
<!DOCTYPE svg PUBLIC "-//W3C//DTD SVG 20010904//EN"
 "http://www.w3.org/TR/2001/REC-SVG-20010904/DTD/svg10.dtd">
<svg version="1.0" xmlns="http://www.w3.org/2000/svg" 
width="112.000000pt" height="114.000000pt" viewBox="0 0 112.000000 114.000000"
preserveAspectRatio = "xMidYMid meet" >
<metadata>
Created by ZoeQU, 2022
</metadata>
<rect width="112.000000" height="114.000000" fill="#F4F1EB"/>
<path d="M902 494 c-18 -8 -60 -17 -92 -21 -33 -3 -57 -9 -55 -14 3 -4 0 -11 -6 -15 -15 -9 8 -24 36 -24 19 1 19 2 3 14 -22 16 -13 26 21 26 35 0 108 23 123 38 15 15 12 14 -30 -4z" transform="translate(0.000000,114.000000) scale(0.100000,-0.100000)" stroke="none" fill="#DBA87C"/>

<path d="M760 720 c-14 -11 -29 -20 -35 -20 -17 -1 -91 -39 -76 -40 7 0 42 14 78 31 l65 31 37 -35 c38 -38 84 -56 95 -38 9 13 36 15 36 2 0 -5 -36 -21 -80 -35 -62 -21 -91 -26 -128 -21 -34 5 -43 4 -32 -4 20 -14 96 -14 123 1 12 6 42 16 66 23 49 12 73 37 54 56 -8 8 -17 7 -36 -6 -23 -15 -28 -15 -54 -2 -15 8 -38 29 -51 46 -26 36 -29 37 -62 11z" transform="translate(0.000000,114.000000) scale(0.100000,-0.100000)" stroke="none" fill="#DBA87C"/>

<path d="M489 938 c-15 -27 -5 -146 16 -191 11 -23 14 -25 9 -7 -17 69 -25 181 -15 194 20 24 181 -40 181 -72 -1 -9 -19 -33 -41 -52 -67 -58 -121 -112 -116 -117 3 -2 43 33 90 79 110 107 108 113 -46 169 -64 24 -64 24 -78 -3z" transform="translate(0.000000,114.000000) scale(0.100000,-0.100000)" stroke="none" fill="#DBA87C"/>

<path d="M449 1048 c-21 -24 -42 -54 -46 -67 -13 -52 -2 -187 17 -201 11 -8 42 -71 37 -76 -2 -2 -14 7 -27 21 -27 29 -45 32 -54 9 -5 -14 -4 -15 9 -4 13 10 22 6 56 -29 55 -54 81 -57 39 -4 -11 14 -20 31 -20 38 0 7 -8 23 -19 36 -29 38 -39 113 -26 194 10 65 97 141 120 105 3 -5 18 -10 33 -10 24 1 22 3 -13 15 -57 21 -61 20 -106 -27z" transform="translate(0.000000,114.000000) scale(0.100000,-0.100000)" stroke="none" fill="#DBA87C"/>

<path d="M410 414 l-68 -66 18 -31 c10 -18 20 -60 23 -94 3 -34 8 -67 12 -73 9 -15 45 17 45 40 0 9 13 41 30 71 26 48 30 64 30 137 0 53 -4 82 -11 82 -6 0 -42 -30 -79 -66z m78 -38 c-4 -55 -11 -81 -31 -113 -15 -24 -27 -54 -27 -68 0 -35 -27 -32 -35 5 -4 16 -4 34 0 39 3 6 -4 33 -16 61 l-21 50 56 55 c31 31 61 53 67 49 8 -4 10 -32 7 -78z" transform="translate(0.000000,114.000000) scale(0.100000,-0.100000)" stroke="none" fill="#DBA87C"/>

<path d="M174 676 c-8 -22 22 -163 41 -192 19 -30 46 -31 71 -3 26 28 107 69 139 69 35 0 31 12 -17 52 -47 38 -88 62 -88 52 0 -3 -6 -2 -12 4 -7 6 -31 13 -53 17 -22 4 -48 9 -58 12 -10 2 -20 -2 -23 -11z m120 -27 c6 -5 18 -9 29 -9 18 0 96 -58 97 -72 0 -5 -7 -8 -15 -8 -25 0 -115 -51 -126 -71 -13 -25 -46 -24 -60 2 -6 12 -15 45 -19 73 -5 28 -12 64 -16 79 l-7 28 54 -7 c30 -3 58 -10 63 -15z" transform="translate(0.000000,114.000000) scale(0.100000,-0.100000)" stroke="none" fill="#DBA87C"/>

<path d="M610 1049 c8 -5 47 -25 86 -44 67 -33 72 -38 98 -94 16 -36 35 -62 47 -66 11 -4 43 -36 70 -71 37 -46 57 -64 74 -64 13 0 37 -8 53 -17 25 -14 30 -23 27 -51 -2 -33 -47 -83 -86 -97 -9 -3 -19 -14 -22 -25 -4 -15 2 -13 25 11 17 16 43 36 59 44 30 16 43 46 37 86 -3 25 -47 55 -92 63 -16 3 -29 6 -30 8 -22 37 -85 109 -104 119 -13 8 -36 38 -50 67 -27 57 -54 81 -123 108 -24 9 -48 21 -53 26 -6 4 -15 8 -20 8 -6 0 -4 -5 4 -11z" transform="translate(0.000000,114.000000) scale(0.100000,-0.100000)" stroke="none" fill="#DBA87C"/>

<path d="M123 764 c-66 -28 -88 -112 -58 -217 35 -126 48 -150 99 -185 47 -31 62 -51 104 -140 13 -25 31 -46 46 -52 22 -8 26 -16 26 -48 0 -20 7 -48 16 -60 57 -82 229 77 259 241 7 38 25 61 25 33 0 -9 5 -16 11 -16 6 0 9 21 8 56 -2 36 2 58 10 63 10 6 9 10 -4 15 -24 9 -25 8 -25 -18 0 -13 -7 -29 -15 -36 -8 -7 -13 -15 -11 -19 7 -11 -13 -104 -31 -146 -41 -95 -129 -185 -181 -185 -29 0 -52 37 -52 83 0 32 -4 39 -27 48 -21 7 -38 29 -66 87 -33 66 -46 82 -82 101 -29 15 -48 35 -59 59 -53 117 -67 253 -31 292 30 33 55 43 104 41 51 -2 52 4 1 12 -20 3 -49 -1 -67 -9z" transform="translate(0.000000,114.000000) scale(0.100000,-0.100000)" stroke="none" fill="#DBA87C"/>

<path d="M458 1043 c-25 -26 -39 -51 -43 -78 -13 -81 -3 -156 26 -194 11 -13 19 -29 19 -36 0 -7 9 -24 20 -38 42 -53 16 -51 -38 4 -42 41 -62 44 -62 8 0 -24 -6 -24 -31 0 -44 40 -181 67 -224 43 -11 -5 -29 -20 -40 -32 -36 -39 -22 -175 31 -292 11 -24 30 -44 59 -59 36 -19 49 -35 82 -101 28 -58 45 -80 66 -87 23 -9 27 -16 27 -48 0 -46 23 -83 52 -83 52 0 140 90 181 185 18 42 38 135 31 146 -2 4 3 12 11 19 8 7 15 24 15 37 0 20 4 24 18 18 30 -13 97 -11 94 3 -1 7 10 12 31 12 18 0 57 7 87 15 30 9 61 16 69 17 8 1 16 9 18 19 3 10 13 21 22 24 39 14 84 64 86 97 3 28 -2 37 -27 51 -16 9 -40 17 -53 17 -17 0 -37 18 -74 64 -27 35 -59 67 -70 71 -12 4 -31 30 -47 65 -26 58 -28 60 -118 105 -50 25 -101 45 -113 45 -12 0 -25 5 -28 10 -12 20 -42 9 -77 -27z m109 -102 c89 -32 112 -45 121 -66 8 -17 -2 -32 -75 -103 -47 -46 -86 -82 -88 -80 -31 42 -55 210 -36 246 14 27 14 27 78 3z m255 -232 c13 -17 36 -38 51 -46 26 -13 31 -13 54 2 19 13 28 14 36 6 19 -19 -5 -44 -54 -56 -24 -7 -54 -17 -66 -23 -28 -15 -94 -15 -130 -1 -76 31 -93 41 -93 53 0 10 86 56 108 56 4 0 18 9 32 20 33 26 36 25 62 -11z m-567 -34 c22 -4 46 -11 53 -17 6 -6 12 -7 12 -4 0 10 41 -14 88 -52 48 -40 52 -52 17 -52 -32 0 -113 -41 -139 -69 -44 -49 -78 -15 -102 103 -17 83 -14 110 13 103 10 -3 36 -8 58 -12z m255 -125 c0 -5 -7 -10 -15 -10 -8 0 -15 5 -15 10 0 6 7 10 15 10 8 0 15 -4 15 -10z m-10 -152 c0 -73 -4 -89 -30 -137 -17 -30 -30 -62 -30 -71 0 -23 -36 -55 -45 -40 -4 6 -9 39 -12 73 -3 34 -13 76 -23 94 l-18 31 68 66 c37 36 73 66 79 66 7 0 11 -29 11 -82z" transform="translate(0.000000,114.000000) scale(0.100000,-0.100000)" stroke="none" fill="#C05E10"/>

</svg>