<?xml version="1.0" standalone="no"?>
<!DOCTYPE svg PUBLIC "-//W3C//DTD SVG 20010904//EN"
 "http://www.w3.org/TR/2001/REC-SVG-20010904/DTD/svg10.dtd">
<svg version="1.0" xmlns="http://www.w3.org/2000/svg" 
width="112.000000pt" height="104.000000pt" viewBox="0 0 112.000000 104.000000"
preserveAspectRatio = "xMidYMid meet" >
<metadata>
Created by ZoeQU, 2022
</metadata>
<rect width="112.000000" height="104.000000" fill="#F4F2EC"/>
<path d="M905 610 c-4 -6 -16 -8 -28 -4 -18 5 -20 4 -10 -7 10 -10 17 -10 38 1 18 10 28 11 36 3 14 -14 -18 -48 -55 -57 -14 -3 -36 -22 -49 -41 -12 -19 -26 -35 -32 -35 -5 0 -41 12 -80 25 -38 14 -71 25 -72 25 -2 0 -3 4 -3 9 0 10 125 68 160 74 14 3 6 3 -16 1 -47 -4 -149 -56 -149 -75 0 -8 23 -22 50 -32 28 -11 58 -23 67 -28 32 -16 51 -9 85 31 19 22 42 40 51 40 19 1 72 44 72 58 0 20 -54 29 -65 12z" transform="translate(0.000000,104.000000) scale(0.100000,-0.100000)" stroke="none" fill="#DBA87C"/>

<path d="M190 531 c-23 -44 -8 -186 22 -202 25 -13 132 45 177 96 46 53 38 62 -10 10 -49 -53 -121 -97 -152 -93 -25 3 -34 32 -36 119 -1 61 18 94 41 71 7 -7 20 -12 30 -12 10 0 32 -9 50 -20 18 -11 40 -20 48 -20 20 1 -81 50 -102 50 -9 0 -20 5 -23 10 -10 16 -34 11 -45 -9z" transform="translate(0.000000,104.000000) scale(0.100000,-0.100000)" stroke="none" fill="#DBA87C"/>

<path d="M564 423 c-3 -16 -10 -44 -14 -63 -13 -53 21 -200 46 -200 15 0 118 76 147 108 29 32 18 65 -26 79 -47 16 -104 58 -112 84 -9 28 -34 23 -41 -8z m137 -80 c67 -13 61 -56 -16 -113 -29 -22 -56 -44 -60 -50 -35 -56 -78 111 -54 211 l10 47 46 -45 c25 -24 59 -47 74 -50z" transform="translate(0.000000,104.000000) scale(0.100000,-0.100000)" stroke="none" fill="#DBA87C"/>

<path d="M259 874 c-11 -14 -9 -19 14 -36 31 -23 35 -60 12 -104 -21 -40 -19 -51 13 -71 15 -10 48 -34 73 -55 25 -21 51 -38 57 -38 17 0 15 76 -4 140 -13 43 -29 68 -79 117 -35 35 -66 63 -68 63 -3 0 -11 -7 -18 -16z m72 -46 c28 -29 60 -70 70 -91 18 -35 32 -140 21 -152 -5 -4 -30 15 -111 83 -33 28 -33 29 -17 60 24 46 20 89 -9 116 -13 13 -22 26 -18 29 10 10 9 11 64 -45z" transform="translate(0.000000,104.000000) scale(0.100000,-0.100000)" stroke="none" fill="#DBA87C"/>

<path d="M565 745 c4 -11 10 -30 13 -43 3 -15 10 -21 18 -18 8 3 22 9 31 13 12 5 15 2 11 -9 -5 -11 0 -14 19 -10 14 3 28 13 30 23 3 11 10 19 15 19 5 0 6 -5 2 -12 -5 -8 -2 -9 12 -4 65 26 232 13 297 -23 34 -19 54 -58 44 -84 -3 -9 -24 -25 -46 -37 -36 -18 -40 -23 -35 -49 5 -22 -1 -36 -25 -63 -17 -20 -31 -40 -31 -45 0 -5 -11 -20 -25 -33 -14 -13 -25 -33 -25 -44 1 -17 3 -16 15 9 9 17 29 48 45 70 57 74 62 85 57 105 -4 15 2 24 23 35 16 8 37 26 49 40 25 33 17 59 -31 98 -43 34 -147 52 -250 43 -43 -4 -68 -2 -68 4 0 17 -32 11 -77 -15 -39 -23 -43 -24 -43 -8 0 10 -8 27 -17 38 l-16 20 8 -20z m100 -35 c3 -5 -1 -10 -10 -10 -9 0 -13 5 -10 10 3 6 8 10 10 10 2 0 7 -4 10 -10z" transform="translate(0.000000,104.000000) scale(0.100000,-0.100000)" stroke="none" fill="#DBA87C"/>

<path d="M223 983 c-26 -13 -33 -23 -35 -52 -2 -20 1 -47 6 -62 7 -20 2 -39 -23 -91 -17 -36 -31 -79 -31 -95 0 -17 -9 -38 -20 -48 -12 -10 -30 -34 -42 -53 -19 -31 -20 -44 -16 -157 6 -145 15 -165 82 -187 39 -13 53 -13 97 -2 70 18 113 51 184 139 23 29 24 29 18 5 -3 -14 -10 -31 -16 -38 -12 -15 -4 -25 24 -27 19 -1 22 -8 24 -61 1 -33 7 -70 14 -82 6 -11 11 -29 11 -39 0 -11 12 -31 28 -45 74 -72 142 -55 267 65 76 73 85 86 84 117 -1 37 -3 34 -14 -14 -7 -35 -142 -166 -188 -183 -53 -19 -103 -16 -130 10 -43 39 -78 169 -58 218 12 33 5 42 -21 28 -11 -6 -22 -9 -24 -6 -2 2 3 32 12 66 8 35 14 64 12 67 -5 5 -78 -103 -78 -116 0 -6 -4 -10 -9 -10 -5 0 -26 -15 -46 -34 -19 -19 -48 -36 -63 -40 -85 -18 -95 -18 -137 -2 -24 9 -46 25 -50 34 -10 27 -19 215 -11 255 4 21 21 52 41 73 20 20 35 47 35 60 0 29 28 103 48 126 11 13 13 31 7 73 -9 73 -1 93 39 100 24 5 45 0 81 -19 26 -14 54 -26 61 -26 21 0 112 -99 126 -136 11 -32 28 -46 28 -23 0 5 5 7 10 4 6 -4 10 7 10 24 0 17 -4 31 -10 31 -5 0 -10 -9 -10 -20 0 -30 -12 -24 -40 21 -30 49 -89 109 -107 109 -8 0 -40 14 -73 30 -33 17 -61 30 -62 29 -2 0 -17 -7 -35 -16z" transform="translate(0.000000,104.000000) scale(0.100000,-0.100000)" stroke="none" fill="#DBA87C"/>

<path d="M230 973 c-26 -10 -31 -27 -24 -91 4 -48 2 -68 -9 -80 -19 -23 -47 -97 -47 -126 0 -13 -15 -40 -35 -60 -20 -21 -37 -52 -41 -73 -8 -40 1 -228 11 -255 9 -23 87 -52 122 -45 15 4 43 9 60 13 18 3 49 21 68 40 20 19 41 34 46 34 5 0 9 4 9 10 0 13 73 121 78 116 2 -3 -4 -32 -12 -67 -9 -34 -14 -64 -12 -66 2 -3 13 0 24 6 26 14 33 5 21 -28 -20 -49 15 -179 58 -218 27 -26 77 -29 129 -10 36 14 165 130 183 165 7 13 13 43 13 67 0 33 6 49 24 66 13 12 24 27 24 32 0 5 14 25 31 45 24 27 30 41 25 63 -5 26 -1 31 35 49 22 12 43 28 46 37 10 26 -10 65 -44 84 -73 41 -240 49 -314 16 -58 -25 -69 -27 -62 -11 3 7 12 14 20 14 8 0 12 4 8 10 -3 5 -19 1 -38 -10 -38 -24 -47 -25 -47 -6 0 23 -33 92 -37 79 -8 -22 -18 -14 -31 21 -14 37 -105 136 -126 136 -7 0 -34 11 -60 25 -47 25 -67 29 -96 18z m115 -146 c50 -49 66 -74 79 -117 19 -64 21 -140 4 -140 -6 0 -32 17 -57 38 -25 21 -58 45 -73 55 -32 20 -34 31 -13 71 23 44 19 81 -12 104 -23 17 -25 22 -14 36 7 9 15 16 18 16 2 0 33 -28 68 -63z m609 -213 c9 -3 16 -10 16 -16 0 -14 -53 -57 -72 -58 -9 0 -32 -18 -51 -40 -34 -40 -53 -47 -85 -31 -9 5 -39 17 -67 28 -27 10 -50 24 -50 32 0 7 25 26 55 44 47 26 66 31 127 32 40 0 75 4 79 8 9 9 27 9 48 1z m-719 -74 c3 -5 14 -10 23 -10 9 0 40 -11 67 -25 28 -13 60 -25 73 -25 30 0 28 -13 -9 -55 -45 -51 -152 -109 -177 -96 -30 16 -45 158 -22 202 11 20 35 25 45 9z m345 -35 c0 -8 -4 -15 -10 -15 -5 0 -10 7 -10 15 0 8 5 15 10 15 6 0 10 -7 10 -15z m25 -74 c8 -26 65 -68 112 -84 44 -14 55 -47 26 -79 -29 -32 -132 -108 -147 -108 -25 0 -59 147 -46 200 4 19 11 47 14 63 7 31 32 36 41 8z" transform="translate(0.000000,104.000000) scale(0.100000,-0.100000)" stroke="none" fill="#C05E10"/>

</svg>