<?xml version="1.0" standalone="no"?>
<!DOCTYPE svg PUBLIC "-//W3C//DTD SVG 20010904//EN"
 "http://www.w3.org/TR/2001/REC-SVG-20010904/DTD/svg10.dtd">
<svg version="1.0" xmlns="http://www.w3.org/2000/svg" 
width="60.000000pt" height="66.000000pt" viewBox="0 0 60.000000 66.000000"
preserveAspectRatio = "xMidYMid meet" >
<metadata>
Created by ZoeQU, 2022
</metadata>
<rect width="60.000000" height="66.000000" fill="#FBFBFB"/>
<path d="M240 650 c0 -5 -9 -10 -20 -10 -11 0 -20 -4 -20 -10 0 -5 -7 -10 -15 -10 -20 0 -145 -124 -145 -144 0 -9 -4 -16 -10 -16 -5 0 -10 -13 -10 -30 0 -16 -4 -30 -10 -30 -6 0 -10 -37 -10 -90 0 -53 4 -90 10 -90 6 0 10 -13 10 -30 0 -16 5 -30 10 -30 6 0 10 -8 10 -18 0 -23 100 -122 123 -122 9 0 17 -4 17 -10 0 -6 49 -10 128 -10 116 0 129 2 142 20 8 11 20 20 27 20 21 0 83 61 83 82 0 10 5 18 10 18 6 0 10 9 10 20 0 11 5 20 10 20 6 0 10 57 10 150 0 93 -4 150 -10 150 -5 0 -10 8 -10 18 0 10 -28 46 -63 80 -46 45 -70 62 -90 62 -15 0 -27 5 -27 10 0 6 -33 10 -80 10 -47 0 -80 -4 -80 -10z m153 -30 c89 -34 151 -114 177 -232 28 -123 -33 -258 -145 -323 -81 -48 -172 -51 -260 -10 -100 46 -163 197 -136 321 25 109 104 208 195 243 66 26 103 26 169 1z" transform="translate(0.000000,66.000000) scale(0.100000,-0.100000)" stroke="none" fill="#96A3C9"/>

</svg>