<?xml version="1.0" standalone="no"?>
<!DOCTYPE svg PUBLIC "-//W3C//DTD SVG 20010904//EN"
 "http://www.w3.org/TR/2001/REC-SVG-20010904/DTD/svg10.dtd">
<svg version="1.0" xmlns="http://www.w3.org/2000/svg" 
width="88.000000pt" height="78.000000pt" viewBox="0 0 88.000000 78.000000"
preserveAspectRatio = "xMidYMid meet" >
<metadata>
Created by ZoeQU, 2022
</metadata>
<rect width="88.000000" height="78.000000" fill="#87A5C8"/>
<path d="M783 253 c15 -16 27 -40 27 -53 0 -13 -12 -37 -27 -53 -16 -16 -21 -28 -13 -25 14 4 60 64 60 78 0 14 -46 74 -60 78 -8 3 -3 -9 13 -25z" transform="translate(0.000000,78.000000) scale(0.100000,-0.100000)" stroke="none" fill="#BEC0C0"/>

<path d="M701 501 c-7 -16 -26 -41 -42 -57 -52 -50 -29 -60 42 -19 24 14 40 25 34 25 -5 -1 -21 -7 -35 -15 -34 -20 -46 -19 -28 3 20 22 51 83 45 88 -2 3 -10 -8 -16 -25z" transform="translate(0.000000,78.000000) scale(0.100000,-0.100000)" stroke="none" fill="#BEC0C0"/>

<path d="M813 424 c33 -18 35 -51 4 -65 -13 -6 -50 -16 -82 -22 -53 -11 -89 -37 -50 -37 9 0 14 4 11 9 -4 5 13 12 36 16 24 4 60 14 81 22 30 12 37 20 37 42 0 20 -7 31 -25 39 -37 17 -45 14 -12 -4z" transform="translate(0.000000,78.000000) scale(0.100000,-0.100000)" stroke="none" fill="#BEC0C0"/>

<path d="M557 381 c-3 -12 1 -22 9 -25 8 -3 14 -19 14 -35 0 -37 19 -50 36 -26 14 18 9 70 -9 93 -15 18 -44 14 -50 -7z" transform="translate(0.000000,78.000000) scale(0.100000,-0.100000)" stroke="none" fill="#EFCC85"/>

<path d="M222 568 c-15 -15 -15 -51 0 -66 27 -27 78 -7 78 29 0 39 -52 63 -78 37z" transform="translate(0.000000,78.000000) scale(0.100000,-0.100000)" stroke="none" fill="#CE7C52"/>

<path d="M583 224 c7 -87 -7 -131 -52 -161 -37 -25 -95 -31 -107 -11 -5 7 -7 29 -6 48 2 26 0 31 -7 20 -12 -17 -14 -50 -5 -74 8 -22 90 -20 128 2 37 22 66 76 66 124 l0 37 45 -44 c24 -25 52 -45 62 -45 11 1 3 9 -20 21 -40 21 -74 66 -84 112 -3 15 -10 30 -16 34 -7 4 -8 -17 -4 -63z" transform="translate(0.000000,78.000000) scale(0.100000,-0.100000)" stroke="none" fill="#BEC0C0"/>

<path d="M253 337 c-51 -41 -68 -65 -38 -53 12 4 15 -4 15 -38 0 -58 12 -67 79 -54 48 8 96 35 140 76 23 22 25 5 3 -31 -11 -19 -22 -50 -26 -68 l-5 -34 12 36 c7 19 20 47 30 62 17 27 23 57 10 57 -4 0 -34 -19 -67 -42 -51 -36 -68 -42 -111 -43 l-50 0 0 52 c1 46 5 57 35 88 44 46 37 44 -27 -8z" transform="translate(0.000000,78.000000) scale(0.100000,-0.100000)" stroke="none" fill="#BEC0C0"/>

<path d="M283 744 c-19 -8 -42 -31 -57 -57 -24 -41 -29 -44 -70 -44 -48 0 -89 -20 -106 -53 -9 -17 -6 -25 19 -50 16 -17 37 -30 45 -30 20 0 21 -19 2 -26 -21 -8 -36 -58 -27 -91 4 -15 19 -34 33 -40 36 -18 91 6 108 47 15 37 38 38 74 5 23 -21 37 -25 92 -25 l64 0 0 46 0 47 -23 -34 c-31 -46 -88 -52 -132 -14 -17 14 -34 25 -38 25 -4 0 -27 -20 -51 -45 -48 -48 -52 -50 -90 -35 -43 16 -34 84 13 102 l26 10 -30 25 c-16 14 -40 34 -53 44 -12 10 -22 23 -22 28 0 18 68 51 106 51 46 0 54 5 75 45 9 17 33 39 53 50 33 18 38 19 63 5 42 -23 43 -68 2 -108 -17 -17 -28 -35 -24 -41 8 -14 42 -14 50 -1 7 12 85 14 85 3 0 -5 4 -14 9 -21 6 -10 15 -9 44 8 35 21 37 21 63 3 26 -17 27 -17 42 5 16 24 60 30 80 10 8 -8 12 -8 12 -1 0 6 -13 16 -30 21 -24 9 -33 7 -54 -9 -29 -23 -36 -23 -61 -5 -16 12 -17 16 -6 30 7 9 10 16 7 16 -11 0 -31 -23 -39 -42 -11 -30 -37 -22 -37 12 0 23 -5 30 -19 30 -10 0 -21 -8 -23 -18 -7 -23 -78 -30 -78 -7 0 7 5 17 10 20 14 9 12 77 -3 96 -18 24 -67 30 -104 13z m207 -129 c0 -8 -4 -15 -10 -15 -5 0 -10 7 -10 15 0 8 5 15 10 15 6 0 10 -7 10 -15z m-125 -25 c-3 -5 -10 -10 -16 -10 -5 0 -9 5 -9 10 0 6 7 10 16 10 8 0 12 -4 9 -10z m81 -197 c-10 -10 -19 5 -10 18 6 11 8 11 12 0 2 -7 1 -15 -2 -18z" transform="translate(0.000000,78.000000) scale(0.100000,-0.100000)" stroke="none" fill="#BEC0C0"/>

<path d="M285 722 c-16 -10 -37 -32 -45 -48 -20 -39 -28 -44 -74 -44 -38 0 -106 -33 -106 -51 0 -5 10 -18 23 -28 12 -10 36 -30 52 -44 l30 -25 -26 -10 c-47 -18 -56 -86 -13 -102 38 -15 42 -13 90 35 24 25 47 45 51 45 4 0 21 -11 37 -25 41 -35 97 -34 126 2 12 15 24 40 27 55 3 16 9 28 13 28 15 0 19 30 8 55 -9 20 -18 25 -49 25 -21 0 -41 -4 -44 -10 -8 -13 -42 -13 -50 1 -4 6 7 24 24 41 38 37 41 80 9 102 -29 21 -46 20 -83 -2z m45 -112 c0 -5 -7 -10 -16 -10 -8 0 -12 5 -9 10 3 6 10 10 16 10 5 0 9 -4 9 -10z m-120 -27 c-1 -13 -29 -59 -30 -48 0 21 13 55 21 55 5 0 9 -3 9 -7z m74 -19 c31 -30 13 -74 -30 -74 -37 0 -63 50 -38 75 20 19 48 19 68 -1z m-104 -54 c0 -5 -7 -10 -15 -10 -8 0 -15 5 -15 10 0 6 7 10 15 10 8 0 15 -4 15 -10z" transform="translate(0.000000,78.000000) scale(0.100000,-0.100000)" stroke="none" fill="#EFCC85"/>

<path d="M628 578 c-15 -22 -16 -22 -42 -5 -24 16 -29 16 -56 2 -39 -20 -70 -85 -70 -147 l0 -48 -73 0 c-70 0 -74 -1 -107 -35 -30 -31 -34 -42 -35 -88 l0 -52 50 0 c43 1 60 7 111 43 33 23 63 42 67 42 13 0 7 -32 -11 -58 -30 -44 -54 -155 -39 -179 13 -21 71 -15 108 10 47 31 58 72 52 187 -5 80 -9 98 -26 111 -24 19 -15 39 17 39 44 0 66 -65 38 -112 -15 -26 -15 -30 6 -73 21 -44 64 -79 110 -91 31 -9 82 39 82 76 0 34 -43 75 -98 92 -23 7 -41 17 -39 23 2 5 30 15 62 22 79 15 105 29 105 53 0 23 -46 50 -87 50 -15 0 -43 -9 -61 -20 -59 -36 -82 -22 -36 21 30 28 64 90 64 117 0 44 -66 59 -92 20z m-108 -254 c0 -8 -4 -14 -10 -14 -5 0 -10 9 -10 21 0 11 5 17 10 14 6 -3 10 -13 10 -21z" transform="translate(0.000000,78.000000) scale(0.100000,-0.100000)" stroke="none" fill="#F3F8F7"/>

</svg>