<?xml version="1.0" standalone="no"?>
<!DOCTYPE svg PUBLIC "-//W3C//DTD SVG 20010904//EN"
 "http://www.w3.org/TR/2001/REC-SVG-20010904/DTD/svg10.dtd">
<svg version="1.0" xmlns="http://www.w3.org/2000/svg" 
width="60.000000pt" height="150.000000pt" viewBox="0 0 60.000000 150.000000"
preserveAspectRatio = "xMidYMid meet" >
<metadata>
Created by ZoeQU, 2022
</metadata>
<rect width="60.000000" height="150.000000" fill="#1B9583"/>
<path d="M516 1402 c-21 -40 -85 -90 -184 -142 -47 -25 -90 -54 -96 -65 -6 -10 -22 -28 -36 -40 -14 -11 -35 -29 -47 -41 -11 -12 -28 -24 -37 -27 -9 -4 -15 -10 -14 -14 0 -4 -5 -21 -12 -38 -7 -16 -12 -36 -11 -44 1 -8 -3 -17 -10 -22 -8 -5 -13 -29 -14 -61 0 -29 -3 -55 -6 -58 -4 -3 -10 -24 -14 -47 -5 -31 -3 -43 5 -43 9 0 9 -4 2 -13 -12 -14 -7 -108 7 -116 4 -3 8 -21 9 -39 0 -18 6 -39 12 -47 6 -7 24 -40 40 -74 17 -34 36 -61 45 -61 8 0 19 -9 25 -21 18 -33 43 -59 58 -59 7 0 15 -7 19 -15 6 -18 57 -47 66 -39 3 3 21 -11 41 -31 23 -26 40 -36 51 -31 11 4 15 2 13 -6 -5 -15 39 -61 51 -54 4 3 13 -12 20 -34 11 -37 27 -57 37 -47 2 2 8 24 12 48 6 35 4 51 -11 77 -18 31 -37 42 -37 22 0 -19 -39 14 -45 37 -6 24 -31 31 -37 11 -3 -7 -15 6 -29 29 -19 33 -27 39 -40 32 -13 -7 -23 0 -44 31 -20 29 -33 39 -46 35 -13 -4 -19 1 -24 24 -4 17 -20 41 -36 54 -23 18 -30 32 -32 63 -2 31 -6 39 -21 37 -16 -1 -17 4 -11 44 6 39 3 49 -17 70 -22 23 -22 25 -5 37 20 15 23 42 5 49 -10 3 -7 17 10 52 21 44 22 50 8 61 -23 16 -20 22 19 38 39 17 44 32 18 52 -12 9 -14 13 -5 14 7 0 11 4 8 8 -2 4 11 19 31 32 19 13 31 26 26 27 -6 2 -8 15 -5 28 3 19 14 27 43 35 27 8 37 15 33 25 -4 8 -1 15 4 15 6 0 14 9 17 20 4 14 15 20 35 20 16 0 32 5 35 10 4 6 11 8 16 5 5 -4 9 1 9 9 0 20 27 47 65 65 17 7 37 17 45 21 10 5 14 20 13 46 -1 22 -3 47 -3 57 -2 24 -7 21 -24 -11z" transform="translate(0.000000,150.000000) scale(0.100000,-0.100000)" stroke="none" fill="#00519E"/>

</svg>