<?xml version="1.0" standalone="no"?>
<!DOCTYPE svg PUBLIC "-//W3C//DTD SVG 20010904//EN"
 "http://www.w3.org/TR/2001/REC-SVG-20010904/DTD/svg10.dtd">
<svg version="1.0" xmlns="http://www.w3.org/2000/svg" 
width="60.000000pt" height="149.000000pt" viewBox="0 0 60.000000 149.000000"
preserveAspectRatio = "xMidYMid meet" >
<metadata>
Created by ZoeQU, 2022
</metadata>
<rect width="60.000000" height="149.000000" fill="#1B9583"/>
<path d="M77 1406 c3 -13 0 -27 -6 -30 -29 -18 17 -81 50 -71 12 4 22 -1 29 -14 6 -12 16 -20 22 -18 6 1 20 -15 31 -35 16 -30 27 -38 59 -43 28 -5 38 -11 34 -21 -3 -8 -1 -14 4 -14 6 0 10 -6 10 -13 0 -7 14 -18 30 -24 24 -9 30 -17 30 -40 0 -21 9 -34 34 -51 36 -25 41 -48 12 -64 -17 -9 -17 -11 0 -29 9 -10 25 -19 35 -19 26 0 34 -19 14 -34 -16 -12 -16 -15 4 -55 16 -30 20 -51 16 -72 -4 -19 -2 -36 6 -45 11 -14 9 -19 -14 -36 -27 -20 -37 -61 -17 -73 16 -10 12 -22 -10 -28 -16 -4 -20 -14 -20 -46 0 -34 -4 -43 -24 -52 -16 -8 -26 -23 -31 -45 -4 -25 -12 -35 -30 -40 -13 -3 -34 -21 -46 -39 -19 -27 -27 -32 -42 -24 -24 13 -44 -3 -52 -42 -6 -28 -8 -29 -20 -13 -11 16 -14 15 -30 -15 -13 -27 -21 -32 -42 -28 -20 4 -27 -1 -41 -29 -8 -19 -20 -34 -25 -34 -9 0 -2 -74 9 -92 11 -17 44 25 44 54 0 18 4 27 11 23 12 -8 59 33 59 51 0 8 6 11 14 8 15 -6 73 45 68 60 -2 5 4 6 12 3 19 -7 72 18 80 38 3 8 11 15 18 15 7 0 24 18 38 40 14 22 32 40 41 40 15 0 54 64 52 88 0 6 3 12 8 12 5 0 9 6 9 14 0 7 7 20 16 27 11 9 14 23 11 46 -4 24 -2 33 8 33 14 0 27 97 14 115 -3 6 -3 18 0 29 8 22 2 76 -9 76 -4 0 -7 25 -7 56 1 36 -4 58 -13 64 -7 4 -14 20 -16 36 -2 15 -8 32 -13 37 -6 6 -11 19 -11 29 0 10 -7 18 -15 18 -9 0 -18 8 -22 18 -3 9 -19 29 -35 44 -15 15 -28 31 -28 35 0 11 -53 43 -170 104 -47 25 -116 89 -124 117 -10 29 -24 28 -19 -2z" transform="translate(0.000000,149.000000) scale(0.100000,-0.100000)" stroke="none" fill="#00519E"/>

</svg>