<?xml version="1.0" standalone="no"?>
<!DOCTYPE svg PUBLIC "-//W3C//DTD SVG 20010904//EN"
 "http://www.w3.org/TR/2001/REC-SVG-20010904/DTD/svg10.dtd">
<svg version="1.0" xmlns="http://www.w3.org/2000/svg" 
width="104.000000pt" height="66.000000pt" viewBox="0 0 104.000000 66.000000"
preserveAspectRatio = "xMidYMid meet" >
<metadata>
Created by ZoeQU, 2022
</metadata>
<rect width="104.000000" height="66.000000" fill="#DCC4B1"/>
<path d="M397 599 c-135 -32 -303 -195 -325 -317 -5 -29 -6 -55 -1 -58 5 -2 21 2 37 10 16 8 66 22 113 32 108 22 316 14 400 -15 102 -35 302 -147 313 -176 8 -22 21 -18 34 10 26 58 3 183 -51 274 -68 115 -189 220 -277 240 -54 13 -190 13 -243 0z m291 -123 c45 -21 81 -49 130 -100 61 -65 111 -141 99 -152 -2 -3 -55 22 -118 55 -80 42 -137 64 -191 75 -108 22 -254 20 -357 -4 -104 -25 -119 -16 -61 37 109 99 176 123 330 120 92 -2 113 -6 168 -31z" transform="translate(0.000000,66.000000) scale(0.100000,-0.100000)" stroke="none" fill="#864E28"/>

</svg>