<?xml version="1.0" standalone="no"?>
<!DOCTYPE svg PUBLIC "-//W3C//DTD SVG 20010904//EN"
 "http://www.w3.org/TR/2001/REC-SVG-20010904/DTD/svg10.dtd">
<svg version="1.0" xmlns="http://www.w3.org/2000/svg" 
width="120.000000pt" height="106.000000pt" viewBox="0 0 120.000000 106.000000"
preserveAspectRatio = "xMidYMid meet" >
<metadata>
Created by ZoeQU, 2022
</metadata>
<rect width="120.000000" height="106.000000" fill="#2E3191"/>
<path d="M400 946 c-161 -36 -259 -145 -290 -321 -11 -64 -10 -76 10 -144 40 -137 107 -215 234 -275 45 -21 162 -43 172 -33 4 4 0 24 -10 44 -27 58 -24 185 6 243 44 84 66 112 110 142 72 49 104 58 199 58 97 0 103 4 75 58 -21 38 -124 135 -171 160 -71 38 -132 60 -182 67 -26 3 -59 8 -73 10 -14 2 -50 -2 -80 -9z" transform="translate(0.000000,106.000000) scale(0.100000,-0.100000)" stroke="none" fill="#FAF9F7"/>

<path d="M400 1004 c-177 -30 -327 -192 -345 -374 -28 -276 163 -486 466 -514 42 -4 89 -14 105 -23 66 -34 165 -45 219 -23 11 4 41 15 66 24 59 21 159 123 194 197 47 101 24 198 -65 276 -25 22 -40 46 -49 81 -39 155 -190 286 -386 337 -57 15 -168 25 -205 19z m153 -59 c50 -7 111 -29 182 -67 47 -25 150 -122 171 -160 28 -54 22 -58 -75 -58 -95 0 -127 -9 -199 -58 -44 -30 -66 -58 -110 -142 -30 -58 -33 -185 -6 -243 10 -20 14 -40 10 -44 -10 -10 -127 12 -172 33 -127 60 -194 138 -234 275 -20 68 -21 80 -10 144 24 137 95 241 199 292 46 22 139 43 171 38 14 -2 47 -7 73 -10z" transform="translate(0.000000,106.000000) scale(0.100000,-0.100000)" stroke="none" fill="#EC8A5B"/>

</svg>