<?xml version="1.0" standalone="no"?>
<!DOCTYPE svg PUBLIC "-//W3C//DTD SVG 20010904//EN"
 "http://www.w3.org/TR/2001/REC-SVG-20010904/DTD/svg10.dtd">
<svg version="1.0" xmlns="http://www.w3.org/2000/svg" 
width="188.000000pt" height="122.000000pt" viewBox="0 0 188.000000 122.000000"
preserveAspectRatio = "xMidYMid meet" >
<metadata>
Created by ZoeQU, 2022
</metadata>
<rect width="188.000000" height="122.000000" fill="#C4BD24"/>
<path d="M1295 828 c-38 -5 -80 -10 -92 -11 -27 -2 -29 -12 -6 -26 12 -6 26 -5 47 6 22 11 48 14 98 11 67 -5 68 -5 52 13 -9 11 -20 18 -23 18 -3 -1 -37 -6 -76 -11z" transform="translate(0.000000,122.000000) scale(0.100000,-0.100000)" stroke="none" fill="#88CE88"/>

<path d="M1093 460 c-28 -12 -29 -31 -3 -55 11 -10 20 -22 20 -27 0 -5 11 -24 24 -41 13 -18 26 -41 29 -52 4 -15 5 -14 6 7 0 15 -3 30 -9 33 -5 3 -10 13 -10 22 0 8 -14 33 -32 55 -25 32 -28 42 -17 49 22 14 36 11 65 -16 16 -15 39 -25 55 -25 16 0 29 -4 29 -9 0 -8 52 -23 58 -16 4 4 -54 31 -88 40 -14 4 -32 13 -40 20 -21 19 -61 26 -87 15z" transform="translate(0.000000,122.000000) scale(0.100000,-0.100000)" stroke="none" fill="#88CE88"/>

<path d="M647 402 c-15 -7 -54 -18 -87 -24 l-60 -12 22 -23 c22 -23 95 -63 116 -63 7 0 12 12 12 26 0 24 31 80 53 95 19 13 -30 14 -56 1z" transform="translate(0.000000,122.000000) scale(0.100000,-0.100000)" stroke="none" fill="#53D4E5"/>

<path d="M1646 689 c-3 -18 -2 -37 4 -43 16 -16 12 -82 -6 -96 -8 -8 -20 -23 -26 -34 -11 -20 -10 -20 9 -3 11 9 24 17 30 17 5 0 20 11 32 24 13 13 33 27 44 30 12 3 30 17 40 31 l17 24 -47 21 c-26 12 -57 30 -69 41 l-21 20 -7 -32z" transform="translate(0.000000,122.000000) scale(0.100000,-0.100000)" stroke="none" fill="#53D4E5"/>

<path d="M859 1012 c-137 -77 -154 -100 -125 -177 10 -24 16 -57 14 -74 l-3 -29 -40 20 c-22 11 -54 20 -71 19 -17 0 -46 4 -64 9 -26 7 -38 6 -59 -9 -14 -10 -40 -24 -56 -31 -17 -7 -39 -25 -49 -39 l-19 -26 24 20 c47 40 79 50 168 50 81 0 112 -8 153 -37 26 -19 31 -5 29 84 -5 158 -9 151 118 215 61 30 76 34 92 25 10 -7 25 -12 32 -12 17 0 102 -42 125 -62 21 -18 52 -30 52 -20 0 7 -12 14 -117 65 -32 16 -66 33 -75 38 -30 16 -61 9 -129 -29z" transform="translate(0.000000,122.000000) scale(0.100000,-0.100000)" stroke="none" fill="#88CE88"/>

<path d="M1101 451 c-11 -7 -8 -17 17 -49 18 -22 32 -47 32 -55 0 -9 5 -19 11 -22 6 -4 9 -21 8 -39 -5 -74 9 -80 65 -24 16 16 43 36 60 44 89 43 147 81 132 87 -8 3 -19 0 -23 -8 -7 -12 -21 -12 -78 -4 -39 5 -71 14 -73 19 -2 6 -16 10 -31 10 -16 0 -40 11 -55 25 -29 27 -43 30 -65 16z" transform="translate(0.000000,122.000000) scale(0.100000,-0.100000)" stroke="none" fill="#53D4E5"/>

<path d="M913 1181 c-12 -3 -37 -21 -57 -38 -19 -18 -41 -33 -47 -33 -6 0 -52 -27 -102 -61 -49 -33 -102 -65 -116 -70 -14 -6 -44 -24 -66 -40 -42 -32 -144 -97 -214 -139 -24 -14 -62 -39 -85 -56 -23 -17 -72 -48 -109 -68 -37 -21 -67 -41 -67 -46 0 -13 72 -72 106 -86 18 -8 35 -18 38 -23 4 -5 43 -31 89 -57 91 -54 98 -58 153 -95 196 -131 208 -138 227 -118 9 10 17 31 17 46 0 16 9 45 20 66 26 47 25 57 -2 56 -20 -1 -20 -2 -4 -6 10 -3 15 -8 9 -12 -21 -15 -53 -71 -53 -95 0 -15 -6 -26 -13 -26 -20 0 -87 37 -114 62 l-25 23 29 6 c21 5 15 7 -25 8 -49 1 -56 4 -100 49 -26 27 -38 38 -28 25 28 -33 15 -37 -24 -8 -19 14 -27 25 -19 25 8 1 -5 10 -29 21 -23 11 -46 17 -51 15 -5 -3 -17 6 -27 19 -10 14 -22 25 -26 25 -11 0 -81 49 -90 63 -12 19 -10 22 44 57 29 19 60 42 70 52 10 10 24 18 31 18 7 0 35 15 62 33 28 17 62 37 77 44 15 7 41 24 57 39 17 15 39 32 49 38 10 6 33 20 51 31 18 11 61 37 95 58 33 21 80 47 104 58 23 11 42 24 42 29 0 5 15 17 33 26 17 9 45 27 60 40 38 32 59 30 121 -11 29 -19 58 -35 65 -35 6 0 21 -9 33 -20 12 -11 28 -20 35 -20 7 0 13 -4 13 -9 0 -5 15 -16 33 -26 86 -46 105 -57 142 -85 22 -17 90 -63 150 -103 91 -59 106 -73 86 -75 -13 -2 -42 6 -64 19 -22 12 -37 17 -33 11 10 -16 66 -42 91 -42 31 0 78 -26 87 -47 5 -15 7 -14 7 6 l1 24 23 -21 c12 -11 44 -30 70 -42 l47 -21 -17 -24 c-10 -14 -28 -28 -40 -31 -11 -3 -31 -17 -44 -30 -12 -13 -27 -24 -32 -24 -6 0 -19 -8 -30 -18 -24 -21 -15 -1 17 38 11 14 -3 3 -31 -24 -29 -27 -50 -52 -48 -56 2 -3 -5 -12 -16 -18 -19 -12 -19 -11 -9 10 6 13 -6 5 -27 -19 -29 -32 -46 -43 -68 -43 -19 0 -25 -3 -18 -8 9 -5 -5 -17 -40 -36 -106 -56 -123 -66 -152 -94 -39 -38 -62 -46 -68 -24 -3 10 -5 5 -6 -10 -1 -21 -6 -28 -21 -28 -11 0 -20 -4 -20 -10 0 -5 -6 -10 -13 -10 -21 0 -113 -49 -132 -70 -10 -11 -15 -20 -10 -20 4 0 14 8 22 18 10 11 13 12 11 3 -6 -22 -39 -39 -45 -23 -4 10 -8 10 -19 1 -21 -17 -17 -29 10 -29 13 0 43 15 67 33 24 18 51 36 59 40 28 13 108 62 215 132 163 107 309 201 440 283 56 35 95 71 95 88 0 6 -29 26 -65 44 -36 18 -65 36 -65 40 0 4 -12 12 -27 19 -15 7 -63 36 -108 65 -44 29 -136 88 -203 132 -68 43 -154 99 -190 122 -37 24 -89 55 -117 69 -27 14 -52 29 -55 34 -9 14 -54 26 -77 20z" transform="translate(0.000000,122.000000) scale(0.100000,-0.100000)" stroke="none" fill="#88CE88"/>

<path d="M883 1136 c-15 -13 -43 -31 -60 -40 -18 -9 -33 -21 -33 -26 0 -5 -19 -18 -42 -29 -24 -11 -71 -37 -104 -58 -34 -21 -77 -47 -95 -58 -18 -11 -41 -25 -51 -31 -10 -6 -32 -23 -49 -38 -16 -15 -42 -32 -57 -39 -15 -7 -49 -27 -77 -44 -27 -18 -55 -33 -62 -33 -7 0 -21 -8 -31 -18 -10 -10 -41 -33 -70 -52 -54 -35 -56 -38 -44 -57 8 -13 79 -63 89 -63 3 0 16 -12 28 -26 16 -18 25 -23 30 -14 4 7 1 19 -7 27 -18 17 -12 63 8 63 7 0 18 9 24 19 5 11 34 31 64 45 30 14 61 34 68 44 7 9 27 24 43 32 17 8 42 22 56 32 21 14 33 15 59 8 18 -5 47 -9 64 -9 17 1 49 -8 71 -19 l40 -20 3 29 c2 17 -4 50 -14 74 -29 77 -8 106 130 179 70 37 94 42 124 27 9 -5 43 -22 75 -38 127 -62 116 -51 119 -123 3 -74 -12 -68 123 -51 60 7 73 6 90 -9 18 -15 43 -28 63 -30 4 -1 23 -11 43 -22 20 -11 47 -18 60 -16 20 2 5 16 -86 75 -60 40 -128 86 -150 103 -37 28 -56 39 -142 85 -18 10 -33 21 -33 26 0 5 -6 9 -13 9 -7 0 -23 9 -35 20 -12 11 -27 20 -33 20 -7 0 -36 16 -65 35 -62 41 -83 43 -121 11z" transform="translate(0.000000,122.000000) scale(0.100000,-0.100000)" stroke="none" fill="#53D4E5"/>

</svg>