<?xml version="1.0" standalone="no"?>
<!DOCTYPE svg PUBLIC "-//W3C//DTD SVG 20010904//EN"
 "http://www.w3.org/TR/2001/REC-SVG-20010904/DTD/svg10.dtd">
<svg version="1.0" xmlns="http://www.w3.org/2000/svg" 
width="112.000000pt" height="110.000000pt" viewBox="0 0 112.000000 110.000000"
preserveAspectRatio = "xMidYMid meet" >
<metadata>
Created by ZoeQU, 2022
</metadata>
<rect width="112.000000" height="110.000000" fill="#4FB0A6"/>
<path d="M765 1031 c-70 -33 -185 -170 -185 -222 0 -10 -4 -19 -10 -19 -5 0 -10 7 -10 15 0 8 -4 15 -10 15 -5 0 -10 -8 -10 -17 0 -10 -5 -35 -11 -56 -11 -41 -20 -42 -101 -11 -31 11 -36 11 -32 0 4 -11 -15 -14 -91 -18 -78 -3 -99 -7 -106 -21 -6 -9 -15 -17 -21 -17 -7 0 -31 -9 -54 -21 -32 -15 -46 -29 -54 -55 -10 -30 -9 -38 7 -56 10 -11 34 -28 53 -37 27 -12 42 -31 66 -82 18 -37 42 -73 53 -81 13 -9 24 -33 30 -61 4 -26 16 -57 24 -71 31 -47 205 -166 243 -166 5 0 28 14 51 30 78 58 99 159 60 298 -17 60 -6 68 24 17 23 -38 36 -44 45 -20 8 21 19 19 48 -8 37 -35 115 -70 166 -75 38 -3 51 0 76 21 45 38 55 84 45 215 l-8 113 -46 47 c-26 26 -47 54 -47 62 0 7 -4 27 -10 44 -5 17 -12 44 -15 59 -3 15 -16 37 -30 49 -20 17 -23 29 -22 75 1 38 -2 56 -13 63 -23 15 -61 11 -105 -9z m60 -197 l0 -100 -66 -42 c-37 -23 -69 -42 -73 -42 -10 0 -6 73 7 117 7 23 29 60 50 83 20 23 37 47 37 54 0 16 22 37 35 33 6 -2 10 -43 10 -103z m96 -234 c17 -10 19 -22 19 -110 0 -97 -8 -122 -33 -102 -7 5 -24 12 -40 16 -53 13 -163 111 -158 143 0 4 21 9 46 9 27 1 64 12 93 27 57 31 50 29 73 17z m-506 -25 c46 -22 95 -57 95 -68 0 -2 -26 -9 -57 -16 -32 -7 -73 -19 -92 -27 -30 -13 -34 -13 -47 3 -7 10 -14 23 -14 29 0 5 -13 23 -29 38 -25 24 -35 27 -65 22 -29 -6 -36 -4 -36 8 0 16 19 23 80 29 87 9 117 6 165 -18z m179 -167 c19 -71 -4 -220 -35 -225 -8 -2 -45 19 -84 45 -75 50 -96 88 -56 99 12 3 21 9 21 14 0 5 22 18 49 30 27 11 57 29 67 40 22 25 30 24 38 -3z" transform="translate(0.000000,110.000000) scale(0.100000,-0.100000)" stroke="none" fill="#F1FAFA"/>

</svg>