<?xml version="1.0" standalone="no"?>
<!DOCTYPE svg PUBLIC "-//W3C//DTD SVG 20010904//EN"
 "http://www.w3.org/TR/2001/REC-SVG-20010904/DTD/svg10.dtd">
<svg version="1.0" xmlns="http://www.w3.org/2000/svg" 
width="98.000000pt" height="80.000000pt" viewBox="0 0 98.000000 80.000000"
preserveAspectRatio = "xMidYMid meet" >
<metadata>
Created by ZoeQU, 2022
</metadata>
<rect width="98.000000" height="80.000000" fill="#F15C26"/>
<path d="M210 156 c0 -7 106 -36 127 -35 10 0 -11 9 -47 19 -69 20 -80 23 -80 16z" transform="translate(0.000000,80.000000) scale(0.100000,-0.100000)" stroke="none" fill="#F8B39A"/>

<path d="M861 220 c-38 -59 -99 -111 -167 -142 -43 -20 -65 -23 -174 -23 -108 0 -137 4 -211 28 -101 32 -170 75 -216 135 -18 24 -33 37 -33 28 0 -24 90 -109 144 -135 89 -43 212 -71 316 -71 124 0 196 23 268 86 50 44 118 131 110 140 -3 2 -19 -18 -37 -46z" transform="translate(0.000000,80.000000) scale(0.100000,-0.100000)" stroke="none" fill="#F8B39A"/>

<path d="M840 705 c0 -9 -7 -18 -15 -21 -8 -4 -23 -23 -32 -43 -9 -20 -73 -91 -141 -159 -104 -102 -138 -129 -206 -162 -44 -23 -70 -38 -56 -34 55 15 123 55 187 110 91 78 176 168 218 230 54 81 56 81 95 17 30 -51 34 -65 38 -154 4 -75 1 -110 -12 -150 -10 -28 -15 -53 -13 -56 3 -2 13 19 22 47 13 39 16 76 13 154 -3 97 -5 104 -43 169 -39 66 -55 82 -55 52z" transform="translate(0.000000,80.000000) scale(0.100000,-0.100000)" stroke="none" fill="#F8B39A"/>

<path d="M763 442 c-84 -92 -201 -188 -269 -222 -21 -10 -32 -19 -23 -20 33 0 148 87 257 195 62 62 114 109 116 106 7 -10 -12 -96 -29 -136 -24 -58 -82 -131 -133 -168 -73 -53 -127 -71 -232 -77 l-95 -6 87 -2 c74 -2 98 2 153 24 111 45 204 145 244 263 21 64 28 131 14 131 -5 0 -45 -40 -90 -88z" transform="translate(0.000000,80.000000) scale(0.100000,-0.100000)" stroke="none" fill="#F8B39A"/>

<path d="M834 678 c-11 -13 -32 -41 -47 -63 -63 -93 -245 -261 -325 -300 -85 -41 -178 -59 -289 -57 -57 1 -103 -2 -103 -7 0 -19 82 -99 126 -123 97 -52 187 -72 324 -73 109 0 131 3 174 23 148 68 236 211 236 381 -1 97 -10 134 -46 194 l-30 47 -20 -22z m26 -181 c0 -18 -10 -62 -21 -98 -41 -120 -134 -219 -249 -265 -63 -24 -78 -26 -167 -22 -110 5 -243 41 -243 65 0 11 12 13 60 7 64 -7 191 10 247 32 56 24 191 133 275 225 46 49 86 89 91 89 4 0 7 -15 7 -33z" transform="translate(0.000000,80.000000) scale(0.100000,-0.100000)" stroke="none" fill="#FDFAF9"/>

</svg>