<?xml version="1.0" standalone="no"?>
<!DOCTYPE svg PUBLIC "-//W3C//DTD SVG 20010904//EN"
 "http://www.w3.org/TR/2001/REC-SVG-20010904/DTD/svg10.dtd">
<svg version="1.0" xmlns="http://www.w3.org/2000/svg" 
width="84.000000pt" height="86.000000pt" viewBox="0 0 84.000000 86.000000"
preserveAspectRatio = "xMidYMid meet" >
<metadata>
Created by ZoeQU, 2022
</metadata>
<rect width="84.000000" height="86.000000" fill="#979798"/>
<path d="M94 627 c-3 -13 -4 -41 -1 -63 3 -34 4 -32 5 14 1 28 5 52 10 52 4 -1 29 -49 57 -108 42 -91 61 -118 125 -183 88 -88 177 -150 261 -180 74 -27 62 -39 -40 -39 -81 0 -119 9 -196 48 -107 53 -166 141 -200 300 -7 31 -13 46 -14 32 -3 -75 55 -209 117 -273 54 -56 101 -82 190 -108 54 -15 76 -17 140 -9 116 15 117 27 2 61 -61 19 -177 97 -255 174 -54 54 -74 84 -122 185 -32 66 -61 120 -65 120 -4 0 -10 -11 -14 -23z" transform="translate(0.000000,86.000000) scale(0.100000,-0.100000)" stroke="none" fill="#56537E"/>

<path d="M113 785 c-69 -49 -112 -276 -79 -416 37 -154 122 -260 247 -309 139 -54 326 -21 468 83 59 43 63 57 14 56 -23 -1 -29 -3 -15 -6 37 -7 25 -26 -43 -66 -117 -70 -269 -102 -362 -77 -75 20 -161 70 -203 117 -46 52 -85 147 -100 240 -26 164 37 383 110 383 4 0 11 -12 15 -27 10 -45 85 -203 127 -269 45 -73 131 -153 243 -229 36 -25 159 -69 176 -63 6 2 -22 14 -63 26 -46 14 -94 38 -130 65 -32 23 -75 54 -97 70 -22 15 -60 55 -86 89 -57 76 -155 277 -155 318 0 25 -4 30 -23 30 -12 0 -32 -7 -44 -15z" transform="translate(0.000000,86.000000) scale(0.100000,-0.100000)" stroke="none" fill="#56537E"/>

<path d="M122 783 c-16 -6 -50 -73 -67 -132 -47 -166 -10 -375 85 -484 42 -47 128 -97 203 -117 57 -15 151 -8 237 19 68 21 190 90 190 107 0 7 -17 15 -37 18 -63 11 -164 47 -198 71 -112 76 -198 156 -243 229 -42 66 -117 224 -127 269 -7 26 -16 31 -43 20z m51 -253 c48 -101 68 -131 122 -185 78 -77 194 -155 255 -174 115 -34 114 -46 -2 -61 -123 -15 -243 27 -330 117 -68 70 -108 169 -124 310 -6 62 0 113 14 113 4 0 33 -54 65 -120z" transform="translate(0.000000,86.000000) scale(0.100000,-0.100000)" stroke="none" fill="#1C1665"/>

</svg>