<?xml version="1.0" standalone="no"?>
<!DOCTYPE svg PUBLIC "-//W3C//DTD SVG 20010904//EN"
 "http://www.w3.org/TR/2001/REC-SVG-20010904/DTD/svg10.dtd">
<svg version="1.0" xmlns="http://www.w3.org/2000/svg" 
width="78.000000pt" height="92.000000pt" viewBox="0 0 78.000000 92.000000"
preserveAspectRatio = "xMidYMid meet" >
<metadata>
Created by ZoeQU, 2022
</metadata>
<rect width="78.000000" height="92.000000" fill="#F15B26"/>
<path d="M460 889 c-25 -5 -70 -14 -100 -20 -68 -14 -90 -23 -161 -71 -69 -46 -105 -87 -136 -158 -22 -49 -24 -65 -21 -165 4 -123 17 -161 87 -255 34 -45 182 -169 203 -170 4 0 5 19 2 42 -3 24 -8 87 -11 140 -6 124 18 208 93 323 77 116 98 135 211 190 57 28 103 55 103 62 0 7 -10 24 -23 39 -18 21 -39 29 -97 40 -86 15 -89 15 -150 3z m40 -79 c0 -5 -5 -10 -11 -10 -5 0 -7 5 -4 10 3 6 8 10 11 10 2 0 4 -4 4 -10z m-30 -13 c0 -1 -31 -34 -68 -72 -54 -56 -75 -86 -102 -150 -61 -146 -74 -240 -49 -355 6 -28 8 -54 5 -58 -14 -13 -97 84 -116 136 -23 61 -27 180 -8 246 23 82 124 183 232 232 42 19 106 32 106 21z" transform="translate(0.000000,92.000000) scale(0.100000,-0.100000)" stroke="none" fill="#FCF2EE"/>

</svg>