<?xml version="1.0" standalone="no"?>
<!DOCTYPE svg PUBLIC "-//W3C//DTD SVG 20010904//EN"
 "http://www.w3.org/TR/2001/REC-SVG-20010904/DTD/svg10.dtd">
<svg version="1.0" xmlns="http://www.w3.org/2000/svg" 
width="134.000000pt" height="134.000000pt" viewBox="0 0 134.000000 134.000000"
preserveAspectRatio = "xMidYMid meet" >
<metadata>
Created by ZoeQU, 2022
</metadata>
<rect width="134.000000" height="134.000000" fill="#F1C1BB"/>
<path d="M859 1119 c-6 -12 -26 -42 -45 -66 -38 -50 -48 -89 -15 -59 11 10 25 32 32 49 7 18 26 47 43 65 23 24 26 32 13 32 -9 0 -21 -10 -28 -21z" transform="translate(0.000000,134.000000) scale(0.100000,-0.100000)" stroke="none" fill="#E9D0CD"/>

<path d="M271 438 c-24 -11 -68 -21 -97 -21 -56 -2 -59 -4 -45 -25 6 -10 19 -11 45 -7 30 6 40 4 50 -11 13 -17 16 -16 57 21 24 21 45 42 47 46 7 16 -16 15 -57 -3z" transform="translate(0.000000,134.000000) scale(0.100000,-0.100000)" stroke="none" fill="#E9D0CD"/>

<path d="M935 1151 c-2 -5 7 -13 20 -19 46 -21 22 -101 -54 -185 -44 -49 -91 -111 -91 -120 0 -15 25 -5 70 28 90 66 196 98 254 75 26 -10 28 -9 15 6 -11 14 -27 16 -96 11 -95 -7 -100 -2 -66 62 13 26 23 61 23 86 0 39 -2 42 -35 52 -19 6 -37 8 -40 4z" transform="translate(0.000000,134.000000) scale(0.100000,-0.100000)" stroke="none" fill="#E9D0CD"/>

<path d="M623 1236 c-22 -25 -32 -47 -36 -89 -4 -30 -10 -64 -13 -74 -5 -16 -4 -16 10 1 9 11 16 35 16 54 0 82 95 165 115 101 10 -31 -3 -241 -21 -336 -9 -45 -14 -88 -12 -94 3 -10 88 131 88 147 0 2 -7 4 -16 4 -14 0 -16 11 -10 88 4 48 9 107 12 132 11 95 -72 136 -133 66z" transform="translate(0.000000,134.000000) scale(0.100000,-0.100000)" stroke="none" fill="#E9D0CD"/>

<path d="M553 704 c-44 -22 -67 -74 -60 -137 8 -64 20 -77 73 -77 24 0 54 -5 68 -11 20 -10 32 -8 63 8 50 26 71 64 75 137 l3 59 -38 13 c-65 23 -148 27 -184 8z" transform="translate(0.000000,134.000000) scale(0.100000,-0.100000)" stroke="none" fill="#E9D0CD"/>

<path d="M314 1129 l-26 -41 16 -82 c8 -44 18 -91 22 -103 10 -37 -25 -47 -81 -23 -48 20 -92 25 -111 12 -31 -21 -44 -57 -38 -104 5 -35 2 -54 -10 -72 -35 -55 -16 -77 92 -105 35 -10 42 -16 42 -36 l0 -25 44 18 c24 9 46 22 48 27 1 6 -37 20 -87 33 -49 13 -100 30 -113 38 -29 19 -25 48 8 52 51 6 53 11 21 41 -24 22 -31 38 -31 65 0 30 4 37 26 42 41 10 111 -4 202 -41 47 -19 89 -32 94 -29 5 3 -8 24 -28 46 -57 64 -84 131 -84 214 0 66 2 72 26 82 50 23 98 -28 143 -155 49 -135 82 -203 99 -203 10 0 12 6 8 23 -4 12 -9 73 -13 135 -3 67 -9 108 -14 100 -5 -7 -9 -22 -9 -34 0 -11 -5 -25 -11 -31 -14 -14 -39 -6 -39 13 0 31 -45 131 -71 156 -20 20 -38 28 -63 28 -31 0 -39 -6 -62 -41z" transform="translate(0.000000,134.000000) scale(0.100000,-0.100000)" stroke="none" fill="#E9D0CD"/>

<path d="M1158 888 c-13 -43 -52 -81 -117 -112 -59 -29 -84 -55 -38 -42 52 16 145 29 160 23 52 -20 19 -70 -53 -82 -22 -4 -42 -10 -45 -15 -3 -5 23 -18 57 -29 35 -12 76 -32 93 -45 27 -22 28 -26 17 -50 -27 -60 -134 -70 -285 -27 -98 29 -82 7 45 -59 58 -30 116 -64 128 -75 45 -41 47 -94 4 -114 -63 -28 -163 8 -243 87 -39 40 -57 52 -59 41 -2 -9 11 -31 28 -50 79 -84 111 -155 96 -213 -5 -21 -12 -26 -39 -26 -49 0 -135 92 -182 192 -19 42 -35 81 -35 87 0 6 -4 11 -10 11 -6 0 -10 -41 -10 -102 0 -152 -18 -198 -79 -198 -26 0 -28 4 -43 84 -7 36 -16 65 -20 64 -4 -2 -20 -28 -35 -58 -31 -61 -79 -95 -117 -81 -27 10 -30 40 -13 123 12 56 12 65 1 61 -8 -3 -14 0 -14 6 0 6 8 11 18 11 18 0 69 76 59 87 -6 5 -92 -51 -102 -68 -10 -16 -83 -59 -100 -59 -9 0 -19 10 -24 22 l-8 23 -8 -24 c-15 -49 68 -70 119 -30 42 33 53 13 33 -61 -22 -76 -21 -93 1 -113 38 -35 134 -9 162 42 16 30 27 26 50 -19 19 -37 24 -40 61 -40 54 0 93 37 84 80 -8 39 2 70 23 69 9 0 41 -29 71 -64 64 -77 112 -99 156 -71 42 27 51 59 32 108 -22 54 -9 75 34 53 34 -18 95 -19 128 -2 56 28 47 130 -15 170 -18 12 -34 25 -34 30 0 11 36 23 92 31 54 8 88 41 88 85 0 32 -13 50 -57 80 -39 26 -40 37 -12 67 29 30 19 67 -21 84 -32 13 -36 20 -19 37 5 5 9 30 7 54 -3 39 -4 41 -10 17z" transform="translate(0.000000,134.000000) scale(0.100000,-0.100000)" stroke="none" fill="#E9D0CD"/>

<path d="M643 1228 c-31 -34 -43 -63 -43 -100 0 -19 -6 -42 -13 -51 -12 -18 -8 -195 7 -264 6 -25 4 -33 -7 -33 -16 0 -49 70 -98 203 -45 127 -93 178 -143 155 -24 -10 -26 -16 -26 -82 0 -83 27 -150 84 -214 20 -22 33 -43 28 -46 -5 -3 -47 10 -94 29 -91 37 -161 51 -202 41 -22 -5 -26 -12 -26 -42 0 -27 7 -43 31 -65 32 -30 30 -35 -21 -41 -33 -4 -37 -33 -8 -52 13 -8 63 -25 111 -38 49 -13 89 -27 90 -32 1 -5 -24 -19 -56 -31 -70 -26 -127 -79 -130 -121 -2 -29 -2 -29 51 -27 29 1 73 11 97 22 47 21 75 10 40 -15 -42 -31 -95 -86 -95 -99 0 -8 -4 -15 -10 -15 -17 0 -11 -40 6 -47 19 -7 65 17 109 57 43 39 95 73 102 67 3 -3 -8 -30 -25 -59 -19 -34 -35 -81 -43 -131 -14 -85 -9 -99 35 -99 41 0 76 30 103 88 13 30 28 54 31 54 4 0 13 -30 20 -66 15 -80 17 -84 43 -84 61 0 79 46 79 198 0 61 4 102 10 102 6 0 10 -5 10 -11 0 -6 16 -45 35 -87 47 -100 133 -192 182 -192 27 0 34 5 39 26 15 58 -17 129 -96 213 -17 19 -30 41 -28 50 2 11 20 -1 59 -41 80 -79 180 -115 243 -87 43 20 41 73 -4 114 -12 11 -70 45 -128 75 -127 66 -143 88 -45 59 151 -43 258 -33 285 27 11 24 10 28 -17 50 -17 13 -58 33 -93 45 -34 11 -60 24 -57 29 3 5 23 11 45 15 55 9 89 38 74 62 -15 24 -61 27 -135 8 -34 -8 -65 -12 -68 -9 -3 4 -1 9 4 11 55 21 134 74 152 102 31 45 29 69 -4 82 -57 22 -164 -11 -253 -76 -45 -33 -70 -43 -70 -28 0 9 47 71 91 120 45 49 79 113 79 147 0 26 -25 46 -57 46 -24 0 -76 -55 -93 -97 -6 -18 -18 -37 -25 -43 -8 -6 -34 -53 -60 -103 -70 -137 -78 -138 -51 -2 17 83 31 304 21 334 -9 28 -46 27 -72 -1z m94 -532 l38 -13 -3 -59 c-4 -73 -25 -111 -75 -137 -31 -16 -43 -18 -63 -8 -14 6 -44 11 -68 11 -53 0 -65 13 -73 77 -7 63 16 115 60 137 36 19 119 15 184 -8z" transform="translate(0.000000,134.000000) scale(0.100000,-0.100000)" stroke="none" fill="#FAF9F7"/>

</svg>