<?xml version="1.0" standalone="no"?>
<!DOCTYPE svg PUBLIC "-//W3C//DTD SVG 20010904//EN"
 "http://www.w3.org/TR/2001/REC-SVG-20010904/DTD/svg10.dtd">
<svg version="1.0" xmlns="http://www.w3.org/2000/svg" 
width="59.000000pt" height="150.000000pt" viewBox="0 0 59.000000 150.000000"
preserveAspectRatio = "xMidYMid meet" >
<metadata>
Created by ZoeQU, 2022
</metadata>
<rect width="59.000000" height="150.000000" fill="#EDCDBC"/>
<path d="M54 1492 c-7 -4 -15 -31 -19 -59 -6 -44 -3 -58 15 -88 27 -43 32 -45 17 -5 -9 25 -9 33 2 39 8 5 12 18 8 30 -7 28 10 27 19 -1 9 -32 92 -105 134 -119 19 -7 38 -18 43 -25 4 -7 19 -15 35 -19 26 -6 82 -47 82 -61 0 -3 12 -15 26 -26 14 -12 30 -31 34 -44 5 -13 15 -24 22 -24 14 0 54 -87 44 -97 -3 -3 1 -11 10 -18 18 -13 26 -93 11 -112 -7 -9 -5 -13 6 -13 17 0 27 -48 16 -79 -5 -11 -4 -23 0 -26 13 -7 1 -98 -14 -110 -8 -6 -11 -22 -8 -37 4 -19 -3 -37 -21 -61 -14 -18 -23 -37 -19 -40 3 -4 -1 -15 -9 -24 -8 -10 -18 -26 -21 -35 -4 -10 -13 -18 -20 -18 -7 0 -28 -20 -46 -45 -18 -25 -39 -45 -47 -45 -8 0 -14 -6 -14 -12 0 -7 -16 -21 -34 -30 -26 -12 -37 -14 -46 -5 -10 9 -12 8 -7 -6 5 -13 0 -21 -18 -29 -14 -6 -25 -18 -25 -26 0 -9 -7 -13 -20 -9 -11 3 -20 1 -20 -4 0 -18 -43 -57 -56 -52 -10 3 -14 -3 -14 -20 0 -14 -9 -35 -19 -48 -22 -27 -24 -24 -38 48 -11 59 -31 42 -39 -33 -5 -50 -3 -63 14 -84 23 -28 43 -23 71 20 12 18 13 22 2 16 -10 -6 -12 -5 -7 2 4 7 14 12 21 12 17 0 155 135 155 152 0 7 -5 6 -15 -2 -13 -11 -14 -10 -9 4 7 19 16 20 31 5 18 -18 134 51 158 94 15 28 29 40 58 48 29 8 37 14 33 26 -8 21 12 80 41 120 19 26 21 36 13 58 -8 20 -7 27 5 32 14 5 15 32 13 194 -3 168 -5 190 -22 202 -10 7 -22 35 -27 63 -5 27 -14 50 -19 52 -16 6 -104 94 -115 116 -6 11 -25 30 -42 41 -87 55 -120 73 -147 79 -38 9 -113 73 -134 113 -10 19 -22 29 -28 25z m376 -1132 c0 -5 -5 -10 -11 -10 -5 0 -7 5 -4 10 3 6 8 10 11 10 2 0 4 -4 4 -10z" transform="translate(0.000000,150.000000) scale(0.100000,-0.100000)" stroke="none" fill="#EDD2C0"/>

<path d="M77 1409 c3 -12 0 -25 -7 -29 -22 -14 -2 -57 37 -81 21 -12 42 -22 47 -20 10 2 42 -40 38 -51 -1 -5 5 -8 13 -8 8 0 15 -4 15 -9 0 -5 18 -12 41 -16 29 -5 39 -11 35 -21 -3 -8 -1 -14 4 -14 6 0 10 -6 10 -13 0 -7 14 -18 31 -24 18 -7 28 -16 24 -23 -4 -6 12 -28 35 -49 29 -27 38 -41 30 -46 -9 -6 -9 -9 1 -16 11 -6 10 -9 -4 -15 -26 -10 -21 -23 19 -46 34 -20 35 -22 18 -35 -18 -13 -17 -15 6 -57 19 -36 21 -47 11 -60 -10 -12 -9 -21 4 -47 17 -31 17 -33 -5 -49 -18 -14 -21 -24 -19 -61 4 -38 1 -44 -16 -47 -17 -2 -20 -9 -17 -42 4 -34 1 -41 -21 -51 -16 -7 -29 -23 -32 -40 -4 -19 -15 -31 -30 -35 -13 -3 -34 -21 -46 -39 -19 -27 -27 -31 -41 -24 -14 7 -22 2 -41 -26 -18 -26 -26 -32 -35 -23 -9 9 -12 9 -12 -1 0 -7 -5 -9 -10 -6 -6 3 -14 -5 -20 -19 -5 -15 -20 -28 -35 -32 -14 -3 -34 -19 -46 -35 -16 -23 -19 -37 -13 -74 3 -25 10 -48 14 -50 13 -8 40 36 40 63 0 17 4 22 14 19 13 -5 56 34 56 52 0 5 9 7 20 4 13 -4 20 0 20 9 0 8 11 20 25 26 18 8 23 16 18 29 -5 14 -3 15 7 6 9 -9 20 -7 46 5 18 9 34 23 34 30 0 6 6 12 14 12 8 0 29 20 47 45 18 25 39 45 46 45 7 0 16 8 20 18 3 9 13 25 21 35 8 9 12 20 9 24 -4 3 5 22 19 40 18 24 25 42 21 61 -3 15 0 31 8 37 15 12 27 103 14 110 -4 3 -5 15 0 26 11 31 1 79 -16 79 -11 0 -13 4 -6 13 15 19 7 99 -11 112 -9 7 -13 15 -10 18 10 10 -30 97 -44 97 -7 0 -17 11 -22 24 -4 13 -20 32 -34 44 -14 11 -26 23 -26 26 0 14 -56 55 -82 61 -16 4 -31 12 -35 19 -5 7 -24 18 -43 25 -42 14 -125 87 -134 119 -9 28 -26 29 -19 1z" transform="translate(0.000000,150.000000) scale(0.100000,-0.100000)" stroke="none" fill="#EEEADC"/>

</svg>