<?xml version="1.0" standalone="no"?>
<!DOCTYPE svg PUBLIC "-//W3C//DTD SVG 20010904//EN"
 "http://www.w3.org/TR/2001/REC-SVG-20010904/DTD/svg10.dtd">
<svg version="1.0" xmlns="http://www.w3.org/2000/svg" 
width="118.000000pt" height="122.000000pt" viewBox="0 0 118.000000 122.000000"
preserveAspectRatio = "xMidYMid meet" >
<metadata>
Created by ZoeQU, 2022
</metadata>
<rect width="118.000000" height="122.000000" fill="#4D323F"/>
<path d="M628 437 c25 -27 28 -66 8 -106 -26 -49 -41 -55 -65 -25 -30 38 -37 88 -17 122 l17 27 -21 -25 c-17 -19 -21 -34 -17 -66 4 -41 39 -104 58 -104 20 0 69 83 69 119 0 38 -23 81 -42 81 -6 0 -2 -10 10 -23z" transform="translate(0.000000,122.000000) scale(0.100000,-0.100000)" stroke="none" fill="#2A536C"/>

<path d="M366 853 c-3 -3 -6 -21 -6 -38 0 -102 103 -176 141 -102 12 22 12 22 -13 -1 -21 -19 -29 -21 -51 -13 -32 12 -56 48 -64 93 -6 41 6 49 53 37 30 -9 52 -26 79 -64 l15 -20 -6 20 c-14 42 -57 74 -115 88 -14 4 -29 4 -33 0z" transform="translate(0.000000,122.000000) scale(0.100000,-0.100000)" stroke="none" fill="#2A536C"/>

<path d="M401 510 c-27 -28 -54 -103 -44 -122 13 -24 124 6 149 40 22 29 17 80 -8 93 -22 12 -22 11 -5 -8 44 -50 -12 -123 -94 -123 -20 0 -21 4 -16 47 5 46 14 58 63 90 17 10 17 12 2 12 -9 1 -30 -13 -47 -29z" transform="translate(0.000000,122.000000) scale(0.100000,-0.100000)" stroke="none" fill="#2A536C"/>

<path d="M320 659 c-28 -11 -60 -38 -60 -50 0 -5 19 -22 42 -39 58 -42 114 -42 145 1 21 31 21 59 1 59 -6 0 -7 -11 -4 -24 7 -30 -24 -56 -65 -56 -27 0 -90 36 -96 56 -4 13 68 54 97 54 12 0 31 -5 43 -11 21 -10 21 -10 3 5 -22 18 -68 20 -106 5z" transform="translate(0.000000,122.000000) scale(0.100000,-0.100000)" stroke="none" fill="#2A536C"/>

<path d="M885 647 l40 -37 -30 -25 c-18 -15 -49 -27 -76 -31 l-47 -6 24 -36 c13 -19 25 -50 26 -68 0 -19 1 -39 2 -46 1 -7 -10 -15 -24 -19 -20 -6 -21 -7 -5 -8 38 -1 48 13 40 60 -4 24 -13 57 -21 73 -17 36 -18 36 3 36 30 0 102 41 108 61 8 24 -2 38 -47 63 -32 19 -32 18 7 -17z" transform="translate(0.000000,122.000000) scale(0.100000,-0.100000)" stroke="none" fill="#637C7C"/>

<path d="M689 570 c-7 -22 -18 -40 -26 -40 -16 0 -63 -44 -63 -60 0 -18 15 -11 25 12 14 31 35 35 35 6 1 -46 59 -109 100 -107 8 0 -1 8 -21 19 -44 23 -57 39 -65 77 -7 38 23 73 62 73 l25 0 -21 30 c-12 17 -25 30 -30 30 -5 0 -15 -18 -21 -40z m37 -8 c-22 -5 -30 3 -21 18 5 8 11 7 22 -2 15 -12 14 -13 -1 -16z" transform="translate(0.000000,122.000000) scale(0.100000,-0.100000)" stroke="none" fill="#637C7C"/>

<path d="M565 710 c-11 -5 -14 -9 -7 -9 19 -1 14 -15 -10 -26 -26 -12 -39 -52 -25 -80 5 -11 23 -32 40 -46 l30 -26 33 21 c30 19 48 48 45 70 -1 4 4 14 10 22 7 8 9 17 5 21 -3 3 -6 1 -6 -5 0 -7 -4 -12 -10 -12 -5 0 -10 9 -10 20 0 14 -7 20 -21 20 -14 0 -19 5 -16 14 9 23 -22 31 -58 16z m45 -10 c0 -5 -8 -10 -17 -10 -15 0 -16 2 -3 10 19 12 20 12 20 0z m14 -45 c31 -29 33 -48 6 -75 -24 -24 -33 -25 -65 -4 -31 20 -32 56 -3 84 27 25 30 25 62 -5z" transform="translate(0.000000,122.000000) scale(0.100000,-0.100000)" stroke="none" fill="#5B554C"/>

<path d="M468 604 c-4 -3 0 -13 8 -22 9 -8 13 -23 11 -33 -3 -11 0 -19 8 -19 26 0 34 -72 11 -102 -7 -10 -28 -24 -47 -32 -19 -9 -28 -15 -21 -16 22 0 71 29 82 49 5 11 10 34 10 53 l0 32 21 -21 22 -22 -27 -31 c-40 -48 -30 -128 24 -175 l22 -20 34 39 c45 51 58 99 39 137 -8 15 -20 31 -27 35 -6 4 -4 -3 5 -17 27 -37 21 -90 -13 -137 -17 -23 -34 -42 -39 -42 -19 0 -54 63 -59 105 -4 39 -1 47 27 76 l32 32 -27 28 c-15 16 -33 29 -40 29 -6 0 -14 10 -17 23 -8 29 -31 60 -39 51z" transform="translate(0.000000,122.000000) scale(0.100000,-0.100000)" stroke="none" fill="#637C7C"/>

<path d="M550 893 c-17 -26 -30 -57 -30 -70 0 -34 29 -73 54 -72 l21 0 -22 9 c-47 19 -53 82 -12 135 27 33 35 32 59 -7 22 -37 26 -79 9 -111 -12 -22 -12 -22 10 -3 l21 19 1 -39 1 -39 8 39 c4 23 17 46 31 57 23 17 77 31 92 22 23 -13 -6 -102 -40 -123 -17 -10 -17 -11 1 -8 29 5 58 51 64 103 l5 48 -49 -7 c-27 -3 -61 -15 -76 -26 -15 -11 -29 -20 -31 -20 -3 0 -7 17 -11 38 -7 46 -41 102 -61 102 -9 0 -29 -21 -45 -47z" transform="translate(0.000000,122.000000) scale(0.100000,-0.100000)" stroke="none" fill="#2A536C"/>

<path d="M527 693 c-47 -79 -47 -79 -26 -122 11 -23 24 -41 30 -41 5 0 21 -11 35 -25 l24 -24 43 32 c51 38 74 93 56 130 -7 12 -15 29 -19 37 -8 17 -50 26 -50 11 0 -6 9 -11 20 -11 13 0 20 -7 20 -20 0 -11 5 -20 10 -20 29 0 -3 -68 -45 -96 l-32 -21 -38 32 c-30 25 -38 38 -37 64 1 36 17 61 38 61 8 0 14 5 14 10 0 12 -37 14 -43 3z" transform="translate(0.000000,122.000000) scale(0.100000,-0.100000)" stroke="none" fill="#2A536C"/>

<path d="M772 683 c-33 -6 -55 -44 -43 -74 9 -23 10 -23 10 7 1 40 17 54 62 54 26 0 47 -8 69 -26 29 -25 30 -27 14 -45 -25 -28 -86 -44 -112 -30 -29 15 -37 14 -22 -4 11 -13 9 -15 -13 -15 -13 0 -31 -8 -38 -17 -11 -15 -11 -16 1 -5 23 20 49 14 81 -17 23 -23 29 -38 29 -71 l0 -42 -37 7 c-44 8 -59 19 -85 60 -18 27 -19 28 -13 5 10 -35 23 -49 68 -71 41 -22 83 -22 81 -1 -1 6 -2 27 -2 46 -1 18 -13 49 -26 68 l-24 36 47 6 c26 3 59 16 76 30 26 21 28 26 16 40 -36 43 -92 67 -139 59z" transform="translate(0.000000,122.000000) scale(0.100000,-0.100000)" stroke="none" fill="#2A536C"/>

<path d="M567 932 c-28 -31 -57 -84 -57 -106 0 -12 -9 -10 -42 9 -24 14 -52 25 -63 24 -12 0 -4 -6 18 -13 45 -17 76 -42 88 -74 5 -12 12 -21 16 -20 12 2 43 -13 43 -22 0 -16 -40 -18 -50 -2 -9 16 -9 16 -10 0 0 -9 -10 -24 -22 -32 -12 -9 -17 -16 -10 -16 14 0 15 -19 2 -40 -7 -12 -13 -11 -35 10 -15 14 -21 26 -15 30 6 4 -1 12 -15 18 -13 6 -31 26 -39 44 -8 18 -15 26 -15 16 -1 -9 11 -30 25 -47 l26 -31 -37 0 c-41 0 -113 -33 -122 -56 -10 -26 53 -78 121 -98 16 -6 17 -8 4 -29 -23 -34 -39 -92 -32 -110 4 -12 17 -17 43 -16 l36 2 -35 6 c-32 5 -35 9 -32 36 6 48 31 93 65 114 18 12 28 21 23 21 -5 0 -5 6 0 13 5 7 2 5 -8 -5 -26 -29 -87 -24 -137 13 -23 16 -41 35 -39 41 8 23 57 50 100 55 37 4 49 1 75 -21 17 -14 35 -26 40 -26 4 0 16 17 25 38 33 77 152 76 183 0 8 -21 18 -38 22 -38 5 0 16 14 25 30 17 29 31 35 88 32 21 -1 20 1 -9 11 -29 11 -31 14 -18 26 21 17 49 103 41 124 -8 23 -68 22 -121 -2 -23 -11 -44 -17 -47 -13 -3 3 -6 -2 -6 -11 0 -22 5 -21 38 3 15 11 49 23 76 26 l49 7 -5 -48 c-7 -58 -34 -96 -77 -108 -48 -12 -81 12 -81 60 l0 36 -23 -21 c-32 -30 -80 -29 -101 3 -23 35 -20 65 14 119 37 58 57 57 88 -4 12 -24 22 -36 22 -27 0 20 -40 85 -56 91 -7 2 -23 -8 -37 -22z m83 -202 c0 -13 -5 -18 -15 -14 -8 4 -15 12 -15 20 0 8 7 14 15 14 8 0 15 -9 15 -20z m90 -53 c0 -2 -9 -12 -20 -22 -19 -18 -20 -17 -20 3 0 15 6 22 20 22 11 0 20 -2 20 -3z" transform="translate(0.000000,122.000000) scale(0.100000,-0.100000)" stroke="none" fill="#637C7C"/>

<path d="M559 1001 c-14 -14 -35 -33 -46 -41 -11 -8 -24 -24 -30 -34 -9 -17 -22 -19 -101 -19 -70 1 -89 -2 -86 -12 3 -7 1 -35 -4 -61 -4 -27 -5 -61 -1 -76 6 -24 0 -35 -58 -92 l-66 -64 44 -51 c24 -29 53 -58 64 -65 17 -11 20 -24 20 -94 l0 -80 72 -7 c40 -4 81 -4 93 0 12 4 20 2 20 -5 0 -7 26 -38 57 -71 54 -55 83 -72 83 -49 0 5 19 22 41 37 23 15 47 41 54 57 12 28 14 29 96 31 l84 2 7 66 c4 36 4 76 -1 88 -7 19 1 32 51 83 32 33 58 63 58 66 0 3 -27 34 -60 69 l-61 63 -2 78 -2 78 -73 6 c-40 4 -76 4 -81 2 -5 -3 -38 23 -73 59 -36 36 -67 64 -69 64 -2 -1 -16 -13 -30 -28z m82 -34 c26 -23 52 -52 58 -65 10 -18 16 -20 31 -12 10 6 44 7 78 4 l59 -7 6 -55 c3 -30 3 -67 1 -82 -5 -23 -1 -29 24 -39 17 -7 41 -28 54 -47 13 -19 26 -34 31 -34 17 0 4 -26 -39 -76 -25 -30 -52 -54 -60 -54 -18 0 -18 -5 1 -34 11 -17 13 -38 9 -83 l-7 -60 -58 -7 c-32 -3 -72 -3 -89 0 -27 6 -30 4 -30 -19 0 -18 -14 -37 -49 -66 -27 -23 -53 -41 -57 -41 -5 1 -31 20 -58 44 -43 38 -49 48 -48 80 2 42 -1 43 -29 15 -19 -19 -28 -21 -87 -15 -37 4 -68 8 -70 10 -1 2 -4 40 -5 84 -1 78 -2 82 -28 92 -14 6 -40 31 -58 56 l-31 45 42 50 c25 30 53 53 70 56 26 5 26 6 11 29 -12 18 -14 38 -8 91 l7 68 84 0 c46 0 84 4 84 9 0 9 101 106 110 105 3 0 26 -19 51 -42z" transform="translate(0.000000,122.000000) scale(0.100000,-0.100000)" stroke="none" fill="#637C7C"/>

<path d="M533 961 c-29 -26 -53 -52 -53 -57 0 -5 -38 -9 -84 -9 l-84 0 -7 -68 c-6 -53 -4 -73 8 -91 15 -23 15 -24 -11 -29 -17 -3 -45 -26 -70 -56 l-42 -50 31 -45 c18 -25 44 -50 58 -56 26 -10 27 -14 28 -92 1 -44 4 -82 5 -84 2 -2 33 -6 70 -10 59 -6 68 -4 87 15 28 28 31 27 29 -15 -1 -32 5 -42 48 -80 27 -24 53 -43 58 -44 4 0 30 18 57 41 35 29 49 48 49 66 0 23 3 25 30 19 17 -3 57 -3 89 0 l58 7 7 60 c4 45 2 66 -9 83 -19 29 -19 34 -1 34 8 0 35 24 60 54 43 50 56 76 39 76 -5 0 -18 15 -31 34 -13 19 -37 40 -54 47 -25 10 -29 16 -24 39 2 15 2 52 -1 82 l-6 55 -59 7 c-34 3 -68 2 -78 -4 -15 -8 -21 -6 -31 12 -11 21 -98 107 -109 107 -3 1 -29 -21 -57 -48z m105 -46 c12 -19 22 -45 22 -58 0 -35 7 -37 53 -16 56 25 114 25 121 1 7 -22 -18 -99 -40 -123 -14 -16 -13 -18 14 -24 41 -9 122 -61 122 -79 0 -23 -40 -55 -85 -68 -22 -6 -41 -12 -43 -13 -1 -1 4 -15 12 -31 8 -16 17 -50 21 -76 6 -41 5 -47 -13 -52 -44 -14 -130 25 -150 69 -7 14 -12 35 -12 46 0 24 -19 21 -34 -5 -9 -13 -7 -19 7 -27 9 -6 24 -23 32 -38 19 -38 6 -85 -39 -137 l-34 -39 -22 20 c-54 47 -64 127 -24 175 l27 31 -22 22 -21 21 0 -37 c0 -46 -31 -81 -86 -96 -56 -16 -91 -14 -98 6 -7 18 9 76 32 110 13 21 12 23 -4 29 -68 20 -131 72 -121 98 9 23 82 56 123 56 l37 0 -21 23 c-25 27 -42 76 -42 124 0 31 2 33 38 33 21 0 55 -11 80 -25 33 -19 42 -21 42 -9 0 39 71 137 94 128 6 -2 21 -20 34 -39z" transform="translate(0.000000,122.000000) scale(0.100000,-0.100000)" stroke="none" fill="#86A4A1"/>

<path d="M555 1150 c-3 -10 -39 -49 -79 -85 l-73 -65 -104 0 -104 0 1 -121 1 -120 -71 -75 c-39 -42 -71 -79 -71 -84 0 -4 17 -21 37 -38 20 -16 53 -50 73 -76 38 -49 47 -97 45 -217 l-1 -46 109 -1 108 0 89 -86 c49 -47 92 -83 95 -79 3 5 23 29 44 55 20 27 43 48 50 48 7 0 25 13 41 30 28 30 30 30 134 30 l106 0 -2 117 -1 118 31 31 c18 18 47 50 65 73 18 23 40 41 48 41 21 0 17 18 -8 38 -24 19 -73 68 -122 122 -31 34 -32 38 -31 120 1 47 3 91 5 99 4 12 -15 15 -102 17 l-107 2 -80 72 c-44 40 -82 79 -85 86 -8 21 -34 17 -41 -6z m91 -86 c51 -44 64 -62 64 -85 0 -16 -4 -29 -10 -29 -5 0 -31 22 -58 49 l-50 50 -68 -65 -68 -65 -85 2 -86 2 -7 -74 c-4 -41 -5 -82 -2 -91 6 -20 -78 -124 -108 -134 -23 -7 -23 -29 0 -46 19 -14 82 -92 82 -102 0 -3 -8 -6 -17 -6 -15 0 -133 119 -133 133 0 2 12 19 28 37 54 65 94 100 113 100 25 0 24 12 -1 28 -18 11 -19 20 -15 99 3 49 5 91 5 94 0 3 15 6 33 6 17 0 55 3 82 8 43 6 53 4 74 -14 38 -33 51 -28 30 11 -10 19 -4 28 57 84 38 35 71 63 73 64 2 0 32 -25 67 -56z m12 -99 c35 -36 68 -62 73 -59 5 2 41 2 81 -2 l73 -6 2 -78 2 -78 61 -63 c33 -35 60 -66 60 -69 0 -3 -26 -33 -58 -66 -50 -51 -58 -64 -51 -83 5 -12 5 -52 1 -88 l-7 -66 -84 -2 c-82 -2 -84 -3 -96 -31 -7 -16 -31 -42 -54 -57 -22 -15 -41 -32 -41 -37 0 -23 -29 -6 -83 49 -31 33 -57 64 -57 71 0 7 -8 9 -20 5 -12 -4 -53 -4 -93 0 l-72 7 0 80 c0 70 -3 83 -20 94 -11 7 -40 36 -64 65 l-44 51 66 64 c58 57 64 68 58 92 -4 15 -3 49 1 76 5 26 7 54 4 61 -3 10 16 13 86 12 79 0 92 2 101 19 6 10 19 26 30 34 11 8 32 27 46 41 14 15 28 27 30 28 2 0 33 -28 69 -64z m222 0 l55 -3 3 -83 c2 -62 -1 -90 -12 -104 -22 -30 -28 -14 -28 70 1 66 -2 76 -15 71 -22 -9 -163 5 -163 15 0 5 8 18 18 30 14 16 24 19 52 14 19 -4 60 -8 90 -10z m124 -253 c13 -21 38 -50 55 -65 17 -14 31 -28 31 -30 0 -2 -28 -34 -61 -70 -43 -46 -69 -67 -85 -67 -13 0 -24 3 -24 8 0 10 82 97 103 108 16 9 10 18 -47 76 -51 52 -62 68 -48 71 40 11 53 5 76 -31z m-722 -289 c1 -27 1 -68 -1 -92 -2 -41 -1 -43 21 -38 29 8 139 -14 135 -27 -8 -24 -36 -30 -75 -17 -24 8 -57 11 -80 7 l-39 -6 -6 75 c-6 79 8 145 30 145 9 0 14 -16 15 -47z m666 24 c7 -8 9 -45 5 -104 l-6 -90 -85 -7 c-78 -7 -87 -5 -106 13 -11 11 -17 23 -14 27 4 3 43 6 87 7 l81 0 0 31 c0 53 12 136 20 136 4 0 12 -6 18 -13z m-372 -279 c8 -26 28 -22 66 15 47 44 76 67 88 67 18 0 10 -21 -17 -46 -16 -14 -47 -44 -70 -66 l-42 -40 -56 48 c-63 55 -83 82 -77 106 3 15 12 10 53 -25 27 -23 52 -50 55 -59z" transform="translate(0.000000,122.000000) scale(0.100000,-0.100000)" stroke="none" fill="#5B554C"/>

</svg>