<?xml version="1.0" standalone="no"?>
<!DOCTYPE svg PUBLIC "-//W3C//DTD SVG 20010904//EN"
 "http://www.w3.org/TR/2001/REC-SVG-20010904/DTD/svg10.dtd">
<svg version="1.0" xmlns="http://www.w3.org/2000/svg" 
width="84.000000pt" height="104.000000pt" viewBox="0 0 84.000000 104.000000"
preserveAspectRatio = "xMidYMid meet" >
<metadata>
Created by ZoeQU, 2022
</metadata>
<rect width="84.000000" height="104.000000" fill="#E3E4E4"/>
<path d="M485 438 c5 -13 9 -60 11 -106 3 -89 13 -112 48 -112 29 0 160 81 164 102 7 35 -147 138 -206 138 -21 0 -23 -3 -17 -22z m102 -20 c47 -24 113 -80 113 -96 0 -6 -12 -17 -27 -25 -16 -8 -49 -26 -75 -41 -29 -17 -55 -25 -66 -22 -20 7 -21 14 -21 112 0 28 -5 63 -11 78 -10 27 -10 28 17 21 16 -3 47 -16 70 -27z" transform="translate(0.000000,104.000000) scale(0.100000,-0.100000)" stroke="none" fill="#6C939C"/>

<path d="M480 820 c-6 -12 -8 -30 -5 -40 9 -27 -13 -126 -31 -140 -7 -7 -14 -18 -14 -25 0 -35 198 29 213 70 4 8 18 20 32 27 45 20 31 43 -55 87 -90 46 -124 51 -140 21z m127 -26 c37 -20 72 -40 77 -44 4 -4 -11 -25 -34 -47 -24 -21 -44 -36 -45 -33 -2 3 -11 -3 -22 -12 -20 -18 -119 -46 -129 -36 -3 4 2 18 12 33 11 16 18 49 19 89 1 35 5 69 9 75 12 19 42 12 113 -25z" transform="translate(0.000000,104.000000) scale(0.100000,-0.100000)" stroke="none" fill="#6C939C"/>

<path d="M139 898 c-3 -27 3 -43 19 -56 9 -7 17 -16 17 -20 3 -39 35 -89 88 -137 34 -30 68 -55 74 -55 19 0 26 42 15 86 -5 22 -10 52 -11 67 -1 40 -5 44 -51 51 -22 3 -48 16 -58 27 -9 11 -32 27 -51 35 -41 17 -41 17 -42 2z m60 -22 c8 -2 17 -8 19 -15 5 -16 56 -41 85 -41 24 0 25 -4 32 -81 4 -44 5 -83 1 -86 -19 -19 -131 93 -140 139 -3 20 -15 43 -26 53 -25 23 -27 50 -2 40 9 -4 24 -8 31 -9z" transform="translate(0.000000,104.000000) scale(0.100000,-0.100000)" stroke="none" fill="#6C939C"/>

<path d="M330 405 c-25 -13 -59 -38 -76 -57 -35 -37 -89 -170 -80 -194 7 -18 40 -15 42 4 1 6 2 16 3 21 3 25 35 41 82 41 56 0 55 -1 83 112 27 109 23 114 -54 73z m46 -48 c-9 -30 -16 -66 -16 -80 0 -31 -9 -37 -62 -42 -49 -5 -92 -33 -96 -64 -4 -23 -22 -30 -22 -8 0 7 9 32 20 55 11 22 20 48 20 57 0 25 81 106 125 125 22 10 42 16 43 14 2 -1 -3 -27 -12 -57z" transform="translate(0.000000,104.000000) scale(0.100000,-0.100000)" stroke="none" fill="#6C939C"/>

<path d="M79 987 c-68 -52 -42 -230 53 -349 16 -21 25 -38 20 -38 -6 0 -12 6 -15 13 -2 6 -7 9 -11 6 -12 -11 4 -34 45 -62 l39 -29 -30 -38 c-17 -22 -40 -42 -50 -45 -23 -7 -27 -25 -5 -25 21 0 19 -9 -16 -74 -28 -51 -31 -66 -32 -151 -2 -89 -1 -95 25 -124 27 -30 27 -30 64 -15 20 9 48 23 62 32 16 11 51 17 96 19 39 1 89 3 111 4 22 0 63 -2 90 -6 46 -6 58 -3 133 33 45 23 101 55 123 73 l41 32 -7 55 c-6 45 -15 65 -47 103 -25 30 -55 53 -77 60 -20 7 -39 17 -43 23 -4 6 -18 11 -30 12 -62 2 -78 5 -78 14 0 6 18 10 40 10 32 0 40 4 40 18 0 10 -5 23 -12 30 -9 9 -8 12 5 12 37 0 152 84 176 128 6 11 11 39 11 61 0 33 -7 49 -36 81 -19 21 -45 42 -57 46 -12 4 -49 19 -82 34 -89 40 -108 43 -167 22 -35 -12 -63 -16 -83 -11 -128 31 -135 31 -159 15 -22 -14 -25 -14 -38 1 -10 13 -69 44 -80 43 -2 0 -10 -6 -19 -13z m81 -32 c32 -23 34 -24 61 -8 23 14 33 15 54 5 14 -7 40 -12 56 -12 17 0 39 -5 50 -10 15 -8 33 -6 77 10 63 23 60 24 195 -33 147 -62 179 -158 79 -243 -51 -44 -102 -74 -127 -74 -17 0 -21 -25 -5 -35 22 -14 7 -23 -50 -29 -33 -4 -60 -10 -60 -15 0 -4 30 -13 68 -20 65 -13 182 -59 182 -72 0 -3 13 -21 29 -39 44 -51 49 -160 7 -160 -8 0 -19 -7 -26 -15 -7 -8 -51 -33 -98 -56 -75 -36 -91 -40 -130 -34 -25 4 -55 11 -68 17 -17 8 -27 8 -37 -1 -9 -6 -51 -12 -100 -12 -63 0 -89 -5 -98 -15 -13 -16 -62 -44 -76 -44 -4 1 -18 9 -31 20 -21 17 -23 28 -24 102 -1 98 12 143 59 205 25 33 32 48 22 53 -9 6 -2 19 24 47 20 21 37 41 37 44 0 4 -13 12 -30 19 -16 7 -30 16 -30 21 0 13 14 11 28 -3 6 -6 15 -9 18 -5 4 3 -13 24 -38 46 -157 141 -174 461 -18 346z" transform="translate(0.000000,104.000000) scale(0.100000,-0.100000)" stroke="none" fill="#6C939C"/>

<path d="M66 958 c-48 -68 15 -262 112 -349 25 -22 42 -43 38 -46 -3 -4 -12 -1 -18 5 -14 14 -28 16 -28 3 0 -5 14 -14 30 -21 17 -7 30 -15 30 -19 0 -3 -17 -23 -37 -44 -26 -28 -33 -41 -24 -47 10 -5 3 -20 -22 -53 -47 -62 -60 -107 -59 -205 1 -74 3 -85 24 -102 13 -11 27 -19 31 -20 14 0 63 28 76 44 9 10 35 15 98 15 49 0 91 6 100 12 10 9 20 9 37 1 13 -6 43 -13 68 -17 39 -6 55 -2 130 34 47 23 91 48 98 56 7 8 18 15 26 15 42 0 37 109 -7 160 -16 18 -29 36 -29 39 0 13 -117 59 -182 72 -38 7 -68 16 -68 20 0 5 27 11 60 15 57 6 72 15 50 29 -16 10 -12 35 5 35 50 0 172 100 181 147 17 89 -37 137 -231 209 -37 14 -44 13 -97 -6 -44 -16 -62 -18 -77 -10 -11 5 -33 10 -50 10 -16 0 -42 5 -56 12 -21 10 -31 9 -54 -5 -27 -16 -29 -15 -61 8 -42 31 -74 32 -94 3z m115 -62 c19 -8 42 -24 51 -35 10 -11 36 -24 58 -27 46 -7 50 -11 51 -51 1 -15 6 -45 11 -67 11 -44 4 -86 -15 -86 -6 0 -40 25 -74 55 -53 48 -85 98 -88 137 0 4 -8 13 -17 20 -16 13 -22 29 -19 56 1 15 1 15 42 -2z m439 -97 c86 -44 100 -67 55 -87 -14 -7 -28 -19 -32 -27 -15 -41 -213 -105 -213 -70 0 7 7 18 14 25 18 14 40 113 31 140 -9 29 12 60 40 60 13 0 61 -18 105 -41z m-210 -229 c0 -5 -7 -10 -15 -10 -8 0 -15 5 -15 10 0 6 7 10 15 10 8 0 15 -4 15 -10z m177 -141 c71 -36 125 -85 121 -107 -4 -21 -135 -102 -164 -102 -35 0 -45 23 -48 112 -2 46 -6 93 -11 106 -6 19 -4 22 17 22 14 0 52 -14 85 -31z m-187 -15 c0 -19 -29 -139 -41 -171 -7 -20 -16 -23 -58 -23 -47 0 -79 -16 -82 -41 -1 -5 -2 -15 -3 -21 -2 -19 -35 -22 -42 -4 -9 24 45 157 80 194 30 33 109 81 134 82 6 0 12 -7 12 -16z" transform="translate(0.000000,104.000000) scale(0.100000,-0.100000)" stroke="none" fill="#024C5C"/>

</svg>