<?xml version="1.0" standalone="no"?>
<!DOCTYPE svg PUBLIC "-//W3C//DTD SVG 20010904//EN"
 "http://www.w3.org/TR/2001/REC-SVG-20010904/DTD/svg10.dtd">
<svg version="1.0" xmlns="http://www.w3.org/2000/svg" 
width="98.000000pt" height="76.000000pt" viewBox="0 0 98.000000 76.000000"
preserveAspectRatio = "xMidYMid meet" >
<metadata>
Created by ZoeQU, 2022
</metadata>
<rect width="98.000000" height="76.000000" fill="#979798"/>
<path d="M285 120 c33 -11 76 -19 95 -19 29 1 24 3 -25 14 -111 24 -130 25 -70 5z" transform="translate(0.000000,76.000000) scale(0.100000,-0.100000)" stroke="none" fill="#585680"/>

<path d="M840 701 c0 -5 6 -11 13 -14 14 -5 61 -96 76 -147 l11 -35 -4 43 c-5 55 -96 201 -96 153z" transform="translate(0.000000,76.000000) scale(0.100000,-0.100000)" stroke="none" fill="#585680"/>

<path d="M797 460 c-56 -72 -196 -193 -274 -237 -69 -39 -170 -58 -270 -50 -73 5 -84 2 -61 -21 15 -15 32 -16 23 -2 -4 6 24 10 77 10 97 1 182 19 235 51 63 38 167 126 243 205 39 42 74 73 77 70 10 -10 -26 -137 -49 -175 -71 -114 -172 -184 -293 -201 -49 -7 -49 -7 -10 -8 38 -2 105 16 149 40 80 43 163 145 196 242 20 60 27 136 12 136 -5 0 -30 -27 -55 -60z" transform="translate(0.000000,76.000000) scale(0.100000,-0.100000)" stroke="none" fill="#585680"/>

<path d="M822 661 c-8 -4 -23 -24 -35 -44 -25 -41 -144 -165 -224 -234 -107 -92 -262 -139 -418 -127 -100 8 -106 0 -53 -67 44 -55 106 -94 198 -123 212 -69 371 -56 493 40 101 79 152 181 161 322 l5 77 -10 -74 c-26 -189 -115 -317 -259 -372 -109 -42 -345 -17 -480 51 -37 19 -130 111 -130 129 0 7 30 9 88 5 94 -6 213 15 302 55 56 24 232 180 294 258 94 121 95 122 68 104z" transform="translate(0.000000,76.000000) scale(0.100000,-0.100000)" stroke="none" fill="#585680"/>

<path d="M840 679 c0 -11 -8 -22 -86 -122 -62 -78 -238 -234 -294 -258 -89 -40 -208 -61 -302 -55 -58 4 -88 2 -88 -5 0 -17 93 -110 130 -129 101 -51 305 -86 409 -69 167 26 293 165 323 352 14 91 1 163 -44 245 -28 49 -48 66 -48 41z m20 -197 c0 -115 -106 -281 -216 -340 -93 -49 -242 -58 -366 -22 -122 36 -134 61 -25 53 100 -8 201 11 270 50 78 44 218 165 274 237 25 33 50 60 55 60 4 0 8 -17 8 -38z" transform="translate(0.000000,76.000000) scale(0.100000,-0.100000)" stroke="none" fill="#1C1665"/>

</svg>