<?xml version="1.0" standalone="no"?>
<!DOCTYPE svg PUBLIC "-//W3C//DTD SVG 20010904//EN"
 "http://www.w3.org/TR/2001/REC-SVG-20010904/DTD/svg10.dtd">
<svg version="1.0" xmlns="http://www.w3.org/2000/svg" 
width="70.000000pt" height="50.000000pt" viewBox="0 0 70.000000 50.000000"
preserveAspectRatio = "xMidYMid meet" >
<metadata>
Created by ZoeQU, 2022
</metadata>
<rect width="70.000000" height="50.000000" fill="#1D1C1C"/>
<path d="M520 385 c13 -14 26 -25 28 -25 3 0 -5 11 -18 25 -13 14 -26 25 -28 25 -3 0 5 -11 18 -25z" transform="translate(0.000000,50.000000) scale(0.100000,-0.100000)" stroke="none" fill="#B9907D"/>

<path d="M590 175 c0 -9 4 -14 9 -11 5 4 12 0 15 -6 3 -7 5 -4 3 6 -3 24 -27 34 -27 11z" transform="translate(0.000000,50.000000) scale(0.100000,-0.100000)" stroke="none" fill="#B9907D"/>

<path d="M250 460 c-20 -6 -21 -8 -5 -8 11 0 29 3 40 8 25 11 -1 11 -35 0z" transform="translate(0.000000,50.000000) scale(0.100000,-0.100000)" stroke="none" fill="#735E52"/>

<path d="M164 338 l-19 -23 23 19 c21 18 27 26 19 26 -2 0 -12 -10 -23 -22z" transform="translate(0.000000,50.000000) scale(0.100000,-0.100000)" stroke="none" fill="#735E52"/>

<path d="M490 374 c0 -1 11 -9 25 -18 25 -16 25 -16 14 2 -9 15 -39 27 -39 16z" transform="translate(0.000000,50.000000) scale(0.100000,-0.100000)" stroke="none" fill="#332E2A"/>

<path d="M81 207 c0 -16 -5 -26 -11 -22 -5 3 -10 1 -10 -4 0 -16 20 -13 26 3 3 8 4 23 1 33 -3 12 -5 8 -6 -10z" transform="translate(0.000000,50.000000) scale(0.100000,-0.100000)" stroke="none" fill="#B9907D"/>

<path d="M189 313 l-24 -28 28 24 c15 14 27 26 27 28 0 8 -8 1 -31 -24z" transform="translate(0.000000,50.000000) scale(0.100000,-0.100000)" stroke="none" fill="#735E52"/>

<path d="M127 266 c-11 -27 1 -33 21 -11 9 10 12 15 5 11 -6 -3 -13 -1 -15 6 -3 7 -7 5 -11 -6z" transform="translate(0.000000,50.000000) scale(0.100000,-0.100000)" stroke="none" fill="#735E52"/>

<path d="M116 70 c-18 -18 -18 -19 3 -13 12 3 21 12 21 19 0 17 -1 17 -24 -6z" transform="translate(0.000000,50.000000) scale(0.100000,-0.100000)" stroke="none" fill="#51433D"/>

<path d="M643 175 c0 -33 2 -45 4 -27 2 18 2 45 0 60 -2 15 -4 0 -4 -33z" transform="translate(0.000000,50.000000) scale(0.100000,-0.100000)" stroke="none" fill="#98796A"/>

<path d="M567 178 c-3 -12 -2 -28 2 -37 6 -10 9 -4 9 22 0 42 -3 46 -11 15z" transform="translate(0.000000,50.000000) scale(0.100000,-0.100000)" stroke="none" fill="#735E52"/>

<path d="M521 447 c2 -1 15 -11 29 -22 l25 -20 -19 23 c-11 12 -24 22 -29 22 -6 0 -8 -1 -6 -3z" transform="translate(0.000000,50.000000) scale(0.100000,-0.100000)" stroke="none" fill="#332E2A"/>

<path d="M545 404 c17 -16 32 -28 34 -27 7 4 -21 34 -43 45 -14 7 -11 2 9 -18z" transform="translate(0.000000,50.000000) scale(0.100000,-0.100000)" stroke="none" fill="#B9907D"/>

<path d="M98 268 c-3 -15 -2 -25 3 -23 4 3 10 -1 12 -7 4 -9 5 -8 6 2 0 8 -4 24 -8 35 -7 17 -8 17 -13 -7z" transform="translate(0.000000,50.000000) scale(0.100000,-0.100000)" stroke="none" fill="#B9907D"/>

<path d="M540 427 c0 -2 15 -16 33 -33 l32 -29 -29 33 c-28 30 -36 37 -36 29z" transform="translate(0.000000,50.000000) scale(0.100000,-0.100000)" stroke="none" fill="#735E52"/>

<path d="M576 84 c-20 -19 -20 -21 -2 -21 8 0 17 9 19 19 6 22 3 23 -17 2z" transform="translate(0.000000,50.000000) scale(0.100000,-0.100000)" stroke="none" fill="#735E52"/>

<path d="M410 382 c0 -10 22 -32 32 -32 5 0 3 9 -4 20 -13 20 -28 27 -28 12z" transform="translate(0.000000,50.000000) scale(0.100000,-0.100000)" stroke="none" fill="#B9907D"/>

<path d="M197 404 c-12 -13 3 -21 29 -16 19 3 22 7 12 13 -16 10 -32 11 -41 3z" transform="translate(0.000000,50.000000) scale(0.100000,-0.100000)" stroke="none" fill="#B9907D"/>

<path d="M590 359 c0 -9 31 -69 35 -69 3 0 2 8 -2 18 -7 19 -33 59 -33 51z" transform="translate(0.000000,50.000000) scale(0.100000,-0.100000)" stroke="none" fill="#B9907D"/>

<path d="M105 395 c-18 -14 -24 -23 -14 -21 17 2 54 34 47 41 -2 2 -17 -7 -33 -20z" transform="translate(0.000000,50.000000) scale(0.100000,-0.100000)" stroke="none" fill="#98796A"/>

<path d="M118 103 c-10 -2 -18 -13 -18 -24 0 -23 15 -17 30 12 6 10 9 18 8 18 -2 -1 -11 -3 -20 -6z" transform="translate(0.000000,50.000000) scale(0.100000,-0.100000)" stroke="none" fill="#98796A"/>

<path d="M487 103 c-11 -10 -8 -25 3 -18 6 3 10 -1 10 -9 0 -9 4 -16 9 -16 4 0 6 11 3 25 -4 25 -13 31 -25 18z" transform="translate(0.000000,50.000000) scale(0.100000,-0.100000)" stroke="none" fill="#98796A"/>

<path d="M41 208 c1 -37 2 -39 9 -18 12 36 12 60 0 60 -5 0 -10 -19 -9 -42z" transform="translate(0.000000,50.000000) scale(0.100000,-0.100000)" stroke="none" fill="#B9907D"/>

<path d="M501 313 c13 -16 25 -30 27 -32 1 -2 5 -2 8 2 6 6 -40 57 -52 57 -4 0 3 -12 17 -27z" transform="translate(0.000000,50.000000) scale(0.100000,-0.100000)" stroke="none" fill="#51433D"/>

<path d="M256 158 c-3 -13 -5 -41 -5 -63 1 -33 3 -29 9 20 8 63 7 81 -4 43z" transform="translate(0.000000,50.000000) scale(0.100000,-0.100000)" stroke="none" fill="#332E2A"/>

<path d="M50 44 c0 -18 28 -37 45 -30 8 3 14 13 14 23 -1 17 -2 17 -6 1 -6 -23 -29 -23 -42 0 -6 9 -11 12 -11 6z" transform="translate(0.000000,50.000000) scale(0.100000,-0.100000)" stroke="none" fill="#332E2A"/>

<path d="M80 359 c-12 -16 -19 -33 -16 -36 3 -4 7 -4 8 -2 41 67 45 91 8 38z" transform="translate(0.000000,50.000000) scale(0.100000,-0.100000)" stroke="none" fill="#B9907D"/>

<path d="M285 374 c-16 -8 -37 -22 -45 -31 -8 -9 -1 -6 17 5 17 12 36 22 41 22 6 0 14 5 17 10 8 13 5 13 -30 -6z" transform="translate(0.000000,50.000000) scale(0.100000,-0.100000)" stroke="none" fill="#B9907D"/>

<path d="M190 445 c-7 -8 -16 -13 -20 -10 -10 6 -35 -24 -26 -32 3 -3 6 -1 6 5 0 7 7 12 16 12 17 0 49 28 42 36 -3 2 -11 -2 -18 -11z" transform="translate(0.000000,50.000000) scale(0.100000,-0.100000)" stroke="none" fill="#735E52"/>

<path d="M356 265 c4 -8 15 -15 25 -15 10 0 19 -5 19 -11 0 -5 5 -7 10 -4 15 9 2 25 -21 25 -10 0 -19 5 -19 10 0 6 -4 10 -10 10 -5 0 -7 -7 -4 -15z" transform="translate(0.000000,50.000000) scale(0.100000,-0.100000)" stroke="none" fill="#98796A"/>

<path d="M284 265 c-4 -8 -10 -12 -15 -9 -5 3 -9 0 -9 -5 0 -17 20 -13 27 5 4 11 13 14 32 9 19 -4 22 -3 11 5 -21 14 -40 12 -46 -5z" transform="translate(0.000000,50.000000) scale(0.100000,-0.100000)" stroke="none" fill="#51433D"/>

<path d="M150 405 c-7 -8 -9 -15 -5 -15 4 0 1 -8 -6 -17 -7 -10 1 -5 19 11 18 17 32 31 32 33 0 9 -29 1 -40 -12z" transform="translate(0.000000,50.000000) scale(0.100000,-0.100000)" stroke="none" fill="#332E2A"/>

<path d="M366 293 c-10 -10 27 -32 54 -33 13 0 20 4 15 8 -17 14 -63 31 -69 25z" transform="translate(0.000000,50.000000) scale(0.100000,-0.100000)" stroke="none" fill="#D6A58E"/>

<path d="M169 203 c-10 -11 -10 -14 -1 -9 9 5 12 -3 12 -30 0 -47 6 -41 13 14 5 45 -2 53 -24 25z" transform="translate(0.000000,50.000000) scale(0.100000,-0.100000)" stroke="none" fill="#98796A"/>

<path d="M278 422 c-10 -2 -18 -7 -18 -12 0 -7 79 -2 88 5 6 5 -53 11 -70 7z" transform="translate(0.000000,50.000000) scale(0.100000,-0.100000)" stroke="none" fill="#332E2A"/>

<path d="M234 166 c-3 -7 -4 -35 -2 -62 l3 -49 5 63 c5 63 4 73 -6 48z" transform="translate(0.000000,50.000000) scale(0.100000,-0.100000)" stroke="none" fill="#B9907D"/>

<path d="M180 450 c-12 -8 -12 -10 -1 -10 8 0 11 -7 9 -18 -5 -17 -2 -17 18 -8 22 10 33 27 17 25 -20 -3 -34 2 -28 11 8 12 4 12 -15 0z" transform="translate(0.000000,50.000000) scale(0.100000,-0.100000)" stroke="none" fill="#51433D"/>

<path d="M210 448 c0 -5 7 -8 15 -8 8 0 15 -4 15 -10 0 -5 5 -10 11 -10 5 0 8 4 5 9 -3 5 2 8 11 7 9 0 17 4 19 9 3 6 -13 10 -36 10 -22 0 -40 -3 -40 -7z" transform="translate(0.000000,50.000000) scale(0.100000,-0.100000)" stroke="none" fill="#98796A"/>

<path d="M87 303 c3 -7 1 -13 -5 -13 -13 0 -22 -49 -11 -56 5 -3 9 2 9 11 0 9 6 29 14 44 12 23 12 28 1 28 -7 0 -11 -6 -8 -14z" transform="translate(0.000000,50.000000) scale(0.100000,-0.100000)" stroke="none" fill="#332E2A"/>

<path d="M165 350 c-10 -11 -21 -17 -26 -14 -4 2 -13 -5 -19 -17 -7 -12 -8 -19 -2 -15 6 3 13 0 16 -6 3 -7 3 -2 0 11 -4 14 -2 21 3 18 6 -4 21 5 33 18 13 14 21 25 18 25 -3 0 -13 -9 -23 -20z" transform="translate(0.000000,50.000000) scale(0.100000,-0.100000)" stroke="none" fill="#B9907D"/>

<path d="M180 101 c0 -16 -3 -36 -6 -45 -5 -12 0 -16 22 -15 20 1 23 3 9 6 -17 3 -20 10 -17 43 2 22 1 40 -2 40 -3 0 -6 -13 -6 -29z" transform="translate(0.000000,50.000000) scale(0.100000,-0.100000)" stroke="none" fill="#B9907D"/>

<path d="M137 153 c-4 -3 -7 -15 -7 -26 0 -13 -5 -17 -15 -13 -16 6 -31 -33 -22 -56 3 -7 6 -1 6 13 1 17 8 28 20 32 10 2 20 16 23 31 6 28 5 30 -5 19z" transform="translate(0.000000,50.000000) scale(0.100000,-0.100000)" stroke="none" fill="#B9907D"/>

<path d="M487 112 c-10 -10 -17 -26 -17 -34 0 -9 -6 -19 -12 -21 -7 -3 7 -5 32 -5 28 1 34 3 18 5 -32 5 -38 36 -11 52 10 5 15 12 12 15 -3 4 -13 -2 -22 -12z" transform="translate(0.000000,50.000000) scale(0.100000,-0.100000)" stroke="none" fill="#B9907D"/>

<path d="M345 325 l-40 -13 37 -1 c43 -1 70 7 62 20 -6 11 -9 11 -59 -6z" transform="translate(0.000000,50.000000) scale(0.100000,-0.100000)" stroke="none" fill="#735E52"/>

<path d="M224 366 c-3 -8 -11 -13 -18 -10 -7 3 -21 -6 -32 -18 l-19 -23 21 18 c32 27 40 20 13 -11 -13 -15 -7 -11 13 9 20 20 39 34 42 31 3 -3 6 0 6 6 0 17 -20 15 -26 -2z" transform="translate(0.000000,50.000000) scale(0.100000,-0.100000)" stroke="none" fill="#332E2A"/>

<path d="M658 187 c4 -102 10 -115 11 -27 0 41 -3 80 -7 87 -4 7 -6 -20 -4 -60z" transform="translate(0.000000,50.000000) scale(0.100000,-0.100000)" stroke="none" fill="#332E2A"/>

<path d="M146 76 c2 -16 4 -34 4 -41 0 -17 24 -25 41 -14 11 8 9 9 -6 7 -17 -3 -20 2 -18 31 1 22 -2 30 -7 21 -6 -10 -9 -9 -13 6 -2 10 -3 6 -1 -10z" transform="translate(0.000000,50.000000) scale(0.100000,-0.100000)" stroke="none" fill="#332E2A"/>

<path d="M233 392 c-12 -2 -27 -11 -35 -20 -11 -15 -11 -15 3 -5 9 7 34 12 56 11 21 0 48 4 59 10 22 13 9 15 -21 3 -11 -5 -24 -5 -30 -2 -5 4 -20 5 -32 3z" transform="translate(0.000000,50.000000) scale(0.100000,-0.100000)" stroke="none" fill="#98796A"/>

<path d="M533 144 c-2 -58 22 -92 33 -47 5 17 3 28 -4 31 -7 2 -12 17 -12 33 0 48 -15 33 -17 -17z" transform="translate(0.000000,50.000000) scale(0.100000,-0.100000)" stroke="none" fill="#332E2A"/>

<path d="M164 368 c-32 -36 -54 -76 -53 -95 0 -10 9 0 19 23 10 22 30 50 44 61 14 12 26 24 26 27 0 13 -17 5 -36 -16z" transform="translate(0.000000,50.000000) scale(0.100000,-0.100000)" stroke="none" fill="#D6A58E"/>

<path d="M501 259 c-6 -17 -8 -36 -5 -41 3 -5 10 -30 15 -56 l8 -47 -4 54 c-3 38 0 60 9 70 12 13 12 19 1 34 -12 16 -14 15 -24 -14z" transform="translate(0.000000,50.000000) scale(0.100000,-0.100000)" stroke="none" fill="#98796A"/>

<path d="M579 195 c-6 -43 2 -106 12 -99 5 3 9 14 9 25 0 11 5 17 10 14 13 -8 13 5 0 25 -5 8 -10 11 -11 5 -1 -5 -5 6 -9 25 l-6 35 -5 -30z" transform="translate(0.000000,50.000000) scale(0.100000,-0.100000)" stroke="none" fill="#98796A"/>

<path d="M618 70 c-2 -8 -30 -14 -73 -17 -93 -5 -96 -13 -4 -13 80 0 103 8 90 29 -7 10 -10 10 -13 1z" transform="translate(0.000000,50.000000) scale(0.100000,-0.100000)" stroke="none" fill="#98796A"/>

<path d="M329 271 c11 -7 7 -10 -15 -13 -19 -2 -30 -10 -33 -23 -3 -17 -1 -18 13 -6 20 16 82 17 101 1 13 -11 14 -10 9 4 -3 9 -14 16 -24 16 -10 0 -20 7 -24 15 -3 8 -13 15 -23 15 -15 0 -15 -2 -4 -9z" transform="translate(0.000000,50.000000) scale(0.100000,-0.100000)" stroke="none" fill="#735E52"/>

<path d="M430 381 c0 -3 7 -15 15 -25 13 -17 15 -18 15 -3 0 9 5 17 11 17 6 0 9 -9 6 -20 -3 -12 -1 -17 5 -14 5 3 20 -4 33 -16 13 -12 25 -17 29 -12 8 13 -59 69 -90 75 -13 2 -24 1 -24 -2z m95 -51 c10 -11 16 -20 13 -20 -3 0 -13 9 -23 20 -10 11 -16 20 -13 20 3 0 13 -9 23 -20z" transform="translate(0.000000,50.000000) scale(0.100000,-0.100000)" stroke="none" fill="#98796A"/>

<path d="M531 308 c19 -25 38 -43 42 -41 5 3 8 -1 6 -8 -4 -34 1 -41 17 -24 13 13 14 21 6 38 -6 12 -13 29 -15 37 -4 9 -6 6 -6 -7 -1 -24 -21 -33 -22 -10 0 6 -14 23 -31 36 l-30 24 33 -45z" transform="translate(0.000000,50.000000) scale(0.100000,-0.100000)" stroke="none" fill="#B9907D"/>

<path d="M153 254 c-18 -19 -16 -23 7 -17 24 6 26 -9 5 -27 -8 -7 -15 -17 -15 -23 0 -6 7 -1 16 11 20 29 37 28 29 0 -5 -18 -4 -20 4 -8 6 8 8 22 5 31 -2 9 2 19 11 23 11 4 15 -2 16 -22 2 -27 2 -27 6 -2 3 14 9 30 14 36 7 8 -2 9 -33 4 -24 -5 -45 -5 -48 0 -3 4 -11 2 -17 -6z" transform="translate(0.000000,50.000000) scale(0.100000,-0.100000)" stroke="none" fill="#B9907D"/>

<path d="M313 331 c-50 -24 -40 -34 31 -29 36 2 63 1 60 -3 -9 -15 19 -21 33 -7 12 13 11 17 -13 32 -14 10 -24 14 -20 8 8 -13 -18 -22 -62 -21 l-37 1 39 12 c31 10 36 14 22 19 -10 4 -18 6 -19 6 -1 -1 -17 -9 -34 -18z" transform="translate(0.000000,50.000000) scale(0.100000,-0.100000)" stroke="none" fill="#98796A"/>

<path d="M326 351 c-10 -11 -29 -22 -43 -26 -17 -4 -23 -11 -19 -21 3 -9 6 -20 6 -25 0 -6 7 -6 18 0 9 5 29 7 43 4 16 -3 30 0 34 8 6 9 -3 11 -39 7 -55 -7 -63 11 -13 31 36 16 85 15 107 -2 13 -10 13 -10 1 6 -7 9 -24 17 -37 17 -13 0 -24 5 -24 10 0 16 -15 12 -34 -9z" transform="translate(0.000000,50.000000) scale(0.100000,-0.100000)" stroke="none" fill="#B9907D"/>

<path d="M547 262 c1 -3 -4 -13 -12 -22 -24 -26 -17 -173 7 -178 26 -5 45 41 30 73 -8 17 -8 33 -2 50 5 14 5 27 0 30 -4 3 -10 -1 -13 -7 -2 -7 -8 -9 -13 -5 -4 4 -2 17 5 29 7 12 9 23 3 28 -5 4 -7 5 -5 2z m3 -101 c0 -16 5 -31 12 -33 16 -6 1 -58 -17 -58 -12 0 -15 14 -15 60 0 33 4 60 10 60 6 0 10 -13 10 -29z" transform="translate(0.000000,50.000000) scale(0.100000,-0.100000)" stroke="none" fill="#51433D"/>

<path d="M214 242 c-5 -4 -11 -16 -12 -27 -1 -11 -5 -53 -10 -92 -7 -71 -7 -73 15 -73 21 0 23 4 23 58 0 33 5 63 12 70 10 10 10 15 1 20 -6 4 -13 17 -14 29 -3 13 -8 20 -15 15z" transform="translate(0.000000,50.000000) scale(0.100000,-0.100000)" stroke="none" fill="#D6A58E"/>

<path d="M460 330 c13 -8 12 -10 -3 -10 -10 0 -16 -4 -12 -9 3 -5 0 -13 -6 -16 -5 -4 -8 -13 -5 -21 3 -8 -1 -14 -8 -14 -15 0 -15 -45 -1 -58 5 -4 6 0 3 9 -4 9 -3 21 2 28 12 20 50 -5 62 -40 6 -17 12 -28 14 -26 3 2 0 16 -5 31 -7 17 -7 35 -1 51 8 20 6 25 -6 25 -8 0 -12 5 -9 10 4 6 12 7 18 4 7 -4 1 5 -12 19 -14 15 -29 27 -35 27 -6 0 -4 -5 4 -10z" transform="translate(0.000000,50.000000) scale(0.100000,-0.100000)" stroke="none" fill="#B9907D"/>

<path d="M427 236 c-3 -7 1 -26 9 -41 8 -15 14 -52 14 -81 0 -30 5 -54 10 -54 6 0 10 8 10 17 0 9 10 27 22 40 20 21 20 26 8 64 -18 53 -61 86 -73 55z" transform="translate(0.000000,50.000000) scale(0.100000,-0.100000)" stroke="none" fill="#D6A58E"/>

<path d="M96 240 c-3 -8 -6 -26 -8 -39 -4 -32 -25 -38 -31 -9 -2 13 -5 0 -6 -29 0 -28 4 -55 9 -58 6 -3 10 -19 10 -36 0 -16 5 -29 10 -29 6 0 10 11 10 24 0 36 10 55 26 49 9 -3 14 2 14 15 0 12 5 24 10 27 6 3 10 14 10 24 0 10 7 24 15 31 25 21 17 32 -16 25 -22 -5 -34 -3 -40 6 -6 11 -9 11 -13 -1z" transform="translate(0.000000,50.000000) scale(0.100000,-0.100000)" stroke="none" fill="#D6A58E"/>

<path d="M470 432 c39 -26 100 -88 100 -100 0 -7 5 -12 10 -12 6 0 10 -7 10 -15 0 -8 6 -25 13 -36 10 -17 10 -23 0 -26 -18 -6 -16 -50 1 -56 10 -4 17 -28 22 -67 4 -40 10 -58 16 -52 7 7 6 28 -1 62 -6 28 -11 73 -11 100 0 83 -60 173 -136 205 -47 19 -56 18 -24 -3z" transform="translate(0.000000,50.000000) scale(0.100000,-0.100000)" stroke="none" fill="#D6A58E"/>

<path d="M285 365 c-94 -54 -149 -123 -90 -110 14 3 37 7 51 10 22 5 25 10 20 30 -5 19 -1 25 16 30 13 4 34 17 47 29 17 15 25 17 28 9 3 -7 15 -13 28 -13 12 0 28 -7 35 -15 7 -8 21 -15 31 -15 16 0 13 7 -17 35 -43 42 -88 46 -149 10z" transform="translate(0.000000,50.000000) scale(0.100000,-0.100000)" stroke="none" fill="#D6A58E"/>

</svg>