<?xml version="1.0" standalone="no"?>
<!DOCTYPE svg PUBLIC "-//W3C//DTD SVG 20010904//EN"
 "http://www.w3.org/TR/2001/REC-SVG-20010904/DTD/svg10.dtd">
<svg version="1.0" xmlns="http://www.w3.org/2000/svg" 
width="84.000000pt" height="82.000000pt" viewBox="0 0 84.000000 82.000000"
preserveAspectRatio = "xMidYMid meet" >
<metadata>
Created by ZoeQU, 2022
</metadata>
<rect width="84.000000" height="82.000000" fill="#FDFDFD"/>
<path d="M46 626 c2 -77 4 -173 4 -215 0 -88 8 -109 36 -92 18 11 18 11 -1 9 -19 -3 -20 5 -27 177 -4 99 -9 198 -12 220 -2 22 -2 -23 0 -99z" transform="translate(0.000000,82.000000) scale(0.100000,-0.100000)" stroke="none" fill="#6694BB"/>

<path d="M761 541 c-32 -9 -51 -38 -33 -50 7 -4 24 -6 37 -3 l24 4 4 -153 3 -154 2 158 2 157 -36 0 c-24 0 -34 4 -31 13 2 6 17 12 32 12 16 1 30 6 33 13 4 13 -1 13 -37 3z" transform="translate(0.000000,82.000000) scale(0.100000,-0.100000)" stroke="none" fill="#6694BB"/>

<path d="M802 108 c-1 -20 -8 -40 -14 -45 -7 -4 -175 -11 -373 -14 l-360 -6 367 1 c256 1 370 4 378 12 6 6 10 29 7 50 l-4 39 -1 -37z" transform="translate(0.000000,82.000000) scale(0.100000,-0.100000)" stroke="none" fill="#6694BB"/>

<path d="M735 519 c-4 -5 -4 -13 0 -17 4 -4 10 -1 12 6 3 6 9 12 14 12 6 0 7 -4 4 -10 -3 -5 3 -10 14 -10 23 0 21 25 26 -402 l0 -43 -45 -6 -45 -6 47 -1 c29 -1 48 3 51 11 5 15 -2 401 -8 442 -4 26 -10 31 -34 33 -17 1 -33 -3 -36 -9z" transform="translate(0.000000,82.000000) scale(0.100000,-0.100000)" stroke="none" fill="#BFD0E6"/>

<path d="M44 445 l1 -140 28 2 c34 2 35 -5 2 -17 l-26 -10 3 -122 3 -123 320 0 320 0 -317 2 -318 3 0 118 c0 111 1 118 22 127 33 15 37 39 5 31 -34 -8 -36 2 -40 154 -2 94 -3 90 -3 -25z" transform="translate(0.000000,82.000000) scale(0.100000,-0.100000)" stroke="none" fill="#BFD0E6"/>

<path d="M366 699 c-72 -8 -92 -18 -83 -42 6 -15 105 -37 165 -37 31 0 32 1 32 45 0 51 8 49 -114 34z" transform="translate(0.000000,82.000000) scale(0.100000,-0.100000)" stroke="none" fill="#6694BB"/>

<path d="M49 772 c-1 -11 3 -131 10 -296 6 -146 7 -149 28 -151 13 -1 26 -5 30 -8 8 -9 -26 -47 -41 -44 -8 1 -11 -32 -11 -111 l0 -114 357 4 c220 2 361 7 367 13 6 6 8 86 4 218 l-6 209 -23 -5 c-12 -2 -29 0 -36 4 -18 12 2 42 32 49 22 5 23 9 21 75 -2 39 -6 90 -10 115 l-6 45 -357 2 c-197 1 -358 -1 -359 -5z m479 -24 c-6 -18 -28 -21 -28 -4 0 9 7 16 16 16 9 0 14 -5 12 -12z m100 -10 c2 -12 -6 -21 -22 -28 -28 -10 -34 -25 -13 -34 10 -5 10 -7 0 -12 -7 -3 -13 -12 -13 -20 0 -18 -8 -18 -26 1 -12 12 -12 18 -2 35 7 11 16 20 20 20 4 0 5 7 2 15 -4 8 -3 22 0 31 8 21 50 14 54 -8z m-148 -73 c0 -44 -1 -45 -32 -45 -60 0 -159 22 -165 37 -9 24 11 34 83 42 122 15 114 17 114 -34z m245 25 c0 -18 -43 -26 -57 -12 -16 16 2 33 30 30 16 -2 27 -9 27 -18z m39 -87 c8 -19 -10 -34 -31 -26 -7 3 -13 14 -13 24 0 24 35 26 44 2z m-108 -69 c13 -14 24 -31 24 -38 0 -15 -37 -56 -51 -56 -16 0 -21 27 -9 49 9 17 8 21 -5 21 -28 0 -17 43 14 49 2 1 14 -10 27 -25z m-476 -29 c0 -8 -4 -15 -10 -15 -5 0 -10 7 -10 15 0 8 5 15 10 15 6 0 10 -7 10 -15z m540 -51 c0 -14 -21 -19 -33 -7 -9 9 13 34 24 27 5 -3 9 -12 9 -20z m-509 -17 c-1 -12 -15 -9 -19 4 -3 6 1 10 8 8 6 -3 11 -8 11 -12z m-71 -7 c0 -5 -4 -10 -10 -10 -5 0 -10 5 -10 10 0 6 5 10 10 10 6 0 10 -4 10 -10z m490 -40 c0 -5 -7 -10 -15 -10 -8 0 -15 5 -15 10 0 6 7 10 15 10 8 0 15 -4 15 -10z m70 0 c0 -5 -4 -10 -10 -10 -5 0 -10 5 -10 10 0 6 5 10 10 10 6 0 10 -4 10 -10z m-488 -38 c-1 -23 2 -32 13 -32 8 0 15 -9 15 -20 0 -15 -7 -20 -25 -20 -16 0 -25 6 -25 15 0 8 -6 15 -14 15 -24 0 -28 18 -11 50 22 42 51 37 47 -8z m-72 7 c0 -24 -23 -21 -28 4 -2 10 3 17 12 17 10 0 16 -9 16 -21z m514 -28 c3 -4 3 -11 0 -14 -8 -8 -34 3 -34 14 0 11 27 12 34 0z m-526 -113 c-3 -25 -17 -32 -37 -19 -19 12 -6 41 19 41 16 0 21 -5 18 -22z m187 -43 c0 -22 -31 -33 -48 -16 -7 7 -6 15 3 26 17 21 45 15 45 -10z m-131 -21 c25 -9 19 -33 -10 -40 -36 -9 -56 12 -30 32 23 16 20 16 40 8z m114 -46 c-4 -31 -58 -40 -58 -10 0 25 8 32 37 32 20 0 24 -5 21 -22z m72 -3 c0 -8 -7 -15 -15 -15 -8 0 -15 7 -15 15 0 8 7 15 15 15 8 0 15 -7 15 -15z" transform="translate(0.000000,82.000000) scale(0.100000,-0.100000)" stroke="none" fill="#175FAB"/>

</svg>