<?xml version="1.0" standalone="no"?>
<!DOCTYPE svg PUBLIC "-//W3C//DTD SVG 20010904//EN"
 "http://www.w3.org/TR/2001/REC-SVG-20010904/DTD/svg10.dtd">
<svg version="1.0" xmlns="http://www.w3.org/2000/svg" 
width="112.000000pt" height="112.000000pt" viewBox="0 0 112.000000 112.000000"
preserveAspectRatio = "xMidYMid meet" >
<metadata>
Created by ZoeQU, 2022
</metadata>
<rect width="112.000000" height="112.000000" fill="#E3E4E4"/>
<path d="M778 1046 c-79 -24 -218 -194 -218 -265 0 -12 -4 -21 -10 -21 -5 0 -10 9 -10 21 0 11 -4 17 -10 14 -5 -3 -10 -24 -10 -47 0 -31 -3 -39 -14 -35 -8 3 -34 11 -58 17 -24 7 -46 17 -50 23 -4 6 -11 8 -15 3 -4 -5 -2 -11 5 -13 6 -3 12 -9 12 -14 0 -5 -42 -9 -96 -8 -80 1 -99 -2 -117 -17 -29 -25 -64 -44 -80 -44 -20 0 -44 -31 -50 -64 -6 -33 14 -56 70 -80 22 -10 37 -28 53 -63 11 -26 34 -64 49 -83 15 -19 34 -58 41 -86 16 -64 21 -69 100 -130 75 -57 140 -94 165 -94 23 0 105 69 105 89 0 9 7 26 15 38 25 35 5 207 -29 263 -9 13 -8 13 7 1 9 -7 26 -28 38 -47 24 -39 44 -44 52 -12 l6 22 20 -25 c18 -23 63 -49 134 -78 106 -43 177 25 177 169 0 113 -17 176 -59 212 -26 23 -42 50 -58 101 -13 38 -23 75 -23 83 0 7 -11 21 -24 31 -21 17 -23 25 -19 67 5 43 3 51 -18 67 -27 21 -30 21 -81 5z m42 -137 c0 -17 -4 -39 -10 -49 -7 -12 -5 -32 4 -63 12 -41 12 -48 -3 -61 -10 -9 -21 -16 -25 -16 -4 0 -24 -13 -44 -29 -41 -31 -69 -44 -76 -33 -5 8 18 117 32 152 5 14 24 38 41 54 17 17 31 38 31 47 0 19 29 41 42 33 5 -3 8 -19 8 -35z m-425 -322 c31 -11 105 -66 105 -76 0 -7 -96 -31 -123 -31 -9 0 -27 -6 -38 -12 -18 -11 -23 -10 -33 6 -48 79 -50 81 -96 82 -24 0 -46 6 -48 12 -5 15 9 20 83 31 64 9 102 6 150 -12z m532 -7 c7 -15 12 -57 10 -105 -2 -73 -4 -80 -22 -78 -29 2 -84 24 -126 50 -32 20 -89 88 -89 106 0 4 17 7 39 7 44 0 100 17 121 37 21 20 52 12 67 -17z m-340 -187 c11 -62 -6 -182 -28 -196 -23 -14 -163 78 -167 110 -3 22 1 25 95 73 22 12 49 30 59 41 25 28 30 24 41 -28z" transform="translate(0.000000,112.000000) scale(0.100000,-0.100000)" stroke="none" fill="#125260"/>

</svg>