<?xml version="1.0" standalone="no"?>
<!DOCTYPE svg PUBLIC "-//W3C//DTD SVG 20010904//EN"
 "http://www.w3.org/TR/2001/REC-SVG-20010904/DTD/svg10.dtd">
<svg version="1.0" xmlns="http://www.w3.org/2000/svg" 
width="108.000000pt" height="82.000000pt" viewBox="0 0 108.000000 82.000000"
preserveAspectRatio = "xMidYMid meet" >
<metadata>
Created by ZoeQU, 2022
</metadata>
<rect width="108.000000" height="82.000000" fill="#AADAE3"/>
<path d="M1067 493 c-11 -10 -8 -111 3 -118 6 -4 10 18 10 59 0 66 -1 72 -13 59z" transform="translate(0.000000,82.000000) scale(0.100000,-0.100000)" stroke="none" fill="#424129"/>

<path d="M54 474 c-16 -24 -16 -27 2 -50 10 -14 35 -34 54 -45 26 -15 29 -16 10 -2 -38 27 -70 61 -70 73 0 5 9 19 20 30 11 11 16 20 10 20 -5 0 -17 -12 -26 -26z" transform="translate(0.000000,82.000000) scale(0.100000,-0.100000)" stroke="none" fill="#7F7E64"/>

<path d="M975 92 c-19 -35 -23 -37 -65 -35 -33 1 -39 -1 -25 -7 40 -17 64 -11 90 25 15 19 25 39 23 45 -1 5 -12 -7 -23 -28z" transform="translate(0.000000,82.000000) scale(0.100000,-0.100000)" stroke="none" fill="#7F7E64"/>

<path d="M940 810 c-11 -7 -7 -10 18 -10 30 0 35 -5 53 -46 24 -53 37 -54 14 -1 -8 20 -25 43 -37 51 -26 19 -28 19 -48 6z" transform="translate(0.000000,82.000000) scale(0.100000,-0.100000)" stroke="none" fill="#7F7E64"/>

<path d="M872 440 c-1 -74 -5 -146 -7 -160 l-6 -25 11 24 c6 14 9 80 7 160 l-3 136 -2 -135z" transform="translate(0.000000,82.000000) scale(0.100000,-0.100000)" stroke="none" fill="#7F7E64"/>

<path d="M854 706 c-3 -8 -4 -25 -1 -38 3 -17 5 -15 6 10 2 51 21 37 22 -15 0 -27 4 -57 9 -68 9 -19 3 84 -6 113 -5 16 -23 15 -30 -2z" transform="translate(0.000000,82.000000) scale(0.100000,-0.100000)" stroke="none" fill="#7F7E64"/>

<path d="M660 150 c-22 -7 -23 -8 -4 -9 12 -1 43 -12 69 -26 26 -14 50 -23 53 -20 3 3 0 5 -6 5 -6 0 -18 14 -27 30 -16 31 -36 36 -85 20z" transform="translate(0.000000,82.000000) scale(0.100000,-0.100000)" stroke="none" fill="#DCA162"/>

<path d="M250 350 c-14 -4 -19 -8 -12 -9 19 -1 80 -31 121 -58 19 -13 39 -23 45 -23 6 1 -6 10 -26 21 -21 11 -38 26 -38 34 0 19 -28 45 -48 44 -9 -1 -28 -5 -42 -9z" transform="translate(0.000000,82.000000) scale(0.100000,-0.100000)" stroke="none" fill="#DCA162"/>

<path d="M775 711 c-3 -5 -31 -15 -63 -22 -34 -8 -49 -14 -37 -17 10 -2 30 -11 42 -20 19 -12 29 -12 48 -4 14 7 25 15 26 19 0 5 2 18 3 31 3 22 -8 30 -19 13z" transform="translate(0.000000,82.000000) scale(0.100000,-0.100000)" stroke="none" fill="#DCA162"/>

<path d="M458 605 c-3 -3 -34 -14 -69 -25 -35 -10 -56 -19 -46 -19 10 -1 20 -7 23 -15 3 -8 19 -20 35 -26 40 -17 67 7 66 56 -1 37 -1 37 -9 29z" transform="translate(0.000000,82.000000) scale(0.100000,-0.100000)" stroke="none" fill="#DCA162"/>

<path d="M550 601 c-17 -32 -11 -60 15 -77 23 -15 27 -15 50 0 44 29 26 96 -25 96 -19 0 -33 -7 -40 -19z" transform="translate(0.000000,82.000000) scale(0.100000,-0.100000)" stroke="none" fill="#DCA162"/>

<path d="M533 317 c-29 -13 -37 -38 -21 -71 10 -23 17 -27 46 -24 43 4 60 27 47 64 -12 32 -42 45 -72 31z" transform="translate(0.000000,82.000000) scale(0.100000,-0.100000)" stroke="none" fill="#DCA162"/>

<path d="M1060 570 c-2 -38 -3 -41 -10 -20 -5 15 -8 -31 -8 -115 0 -84 3 -128 8 -110 7 27 8 24 10 -20 1 -38 4 -45 10 -30 12 28 12 93 0 100 -5 3 -10 30 -10 60 0 30 5 57 10 60 12 7 12 72 0 100 -7 15 -9 10 -10 -25z" transform="translate(0.000000,82.000000) scale(0.100000,-0.100000)" stroke="none" fill="#7F7E64"/>

<path d="M758 589 c-25 -14 -22 -54 4 -79 25 -23 32 -24 59 -10 22 12 27 68 7 88 -15 15 -47 15 -70 1z" transform="translate(0.000000,82.000000) scale(0.100000,-0.100000)" stroke="none" fill="#DCA162"/>

<path d="M177 482 c-23 -25 -21 -55 3 -77 29 -26 71 -11 81 30 15 54 -47 88 -84 47z" transform="translate(0.000000,82.000000) scale(0.100000,-0.100000)" stroke="none" fill="#DCA162"/>

<path d="M372 464 c-24 -16 -28 -44 -12 -75 22 -41 110 -9 110 39 0 24 -31 52 -56 52 -11 0 -30 -7 -42 -16z" transform="translate(0.000000,82.000000) scale(0.100000,-0.100000)" stroke="none" fill="#DCA162"/>

<path d="M612 463 c-36 -31 -33 -85 5 -102 23 -10 30 -9 52 7 35 26 40 75 9 96 -29 20 -41 20 -66 -1z" transform="translate(0.000000,82.000000) scale(0.100000,-0.100000)" stroke="none" fill="#DCA162"/>

<path d="M726 315 c-20 -30 -20 -45 0 -73 29 -42 104 -16 104 37 0 58 -73 83 -104 36z" transform="translate(0.000000,82.000000) scale(0.100000,-0.100000)" stroke="none" fill="#DCA162"/>

<path d="M864 653 c4 -32 9 -122 12 -201 6 -141 5 -144 -26 -238 -17 -51 -28 -99 -24 -105 4 -7 22 35 41 92 34 103 34 105 29 249 -6 180 -15 260 -28 260 -6 0 -8 -22 -4 -57z" transform="translate(0.000000,82.000000) scale(0.100000,-0.100000)" stroke="none" fill="#424129"/>

<path d="M906 791 c-3 -5 -16 -11 -28 -14 -13 -3 -72 -23 -133 -45 -176 -64 -247 -89 -295 -102 -25 -7 -54 -16 -65 -20 -11 -4 -40 -14 -65 -21 -25 -7 -49 -16 -54 -21 -6 -4 -16 -8 -24 -8 -26 0 -179 -77 -185 -94 -4 -9 -4 -23 0 -31 9 -26 118 -94 252 -157 69 -33 178 -86 241 -117 63 -32 131 -63 150 -70 19 -7 44 -17 55 -22 45 -19 150 -49 172 -49 13 0 34 11 46 24 48 51 92 193 85 271 -3 37 -4 36 -11 -20 -9 -67 -26 -135 -39 -149 -4 -6 -8 -17 -8 -26 0 -9 -13 -31 -28 -50 l-29 -34 -59 14 c-32 7 -93 29 -136 47 -42 18 -79 33 -83 33 -7 0 -418 199 -460 222 -11 6 -37 21 -57 32 -21 11 -48 30 -60 44 -23 23 -23 24 -3 39 11 8 36 22 55 30 19 8 51 22 70 30 64 27 75 32 115 44 22 6 49 15 60 19 11 5 54 18 95 30 41 12 109 34 150 49 41 15 95 35 120 43 25 9 83 30 129 47 76 28 86 30 101 16 19 -17 56 -127 67 -200 7 -47 7 -48 11 -15 5 46 -13 127 -44 189 -23 49 -26 51 -63 51 -22 0 -42 -4 -45 -9z" transform="translate(0.000000,82.000000) scale(0.100000,-0.100000)" stroke="none" fill="#424129"/>

<path d="M910 763 c-45 -15 -71 -46 -69 -82 1 -9 4 -5 8 9 4 14 13 25 21 25 20 0 40 -172 36 -313 -2 -90 -9 -132 -32 -207 -28 -92 -54 -124 -54 -68 0 14 -3 24 -6 20 -4 -3 -4 -21 0 -40 6 -31 10 -35 58 -45 47 -11 52 -11 65 7 7 11 20 27 28 35 8 8 15 23 15 33 0 14 2 15 9 4 13 -20 20 5 13 46 -3 24 -1 33 9 33 11 0 13 20 11 100 -3 68 0 100 7 100 6 0 11 9 11 21 0 12 -4 17 -11 13 -7 -4 -10 22 -9 87 1 52 1 105 0 119 l-2 25 -9 -25 c-7 -23 -8 -22 -6 8 1 19 -4 36 -12 41 -8 5 -12 18 -9 29 4 14 1 19 -11 18 -9 0 -15 5 -13 12 1 6 1 12 0 11 -2 0 -23 -8 -48 -16z" transform="translate(0.000000,82.000000) scale(0.100000,-0.100000)" stroke="none" fill="#DCA162"/>

<path d="M821 724 c-23 -10 -31 -19 -27 -29 6 -16 -26 -55 -45 -55 -6 0 -24 8 -40 17 -27 16 -31 16 -77 -1 -26 -10 -72 -25 -102 -34 -61 -17 -72 -27 -64 -57 7 -28 -27 -59 -56 -50 -11 4 -29 16 -40 27 -18 20 -23 20 -62 9 -24 -7 -61 -21 -83 -31 -22 -10 -61 -27 -86 -38 -26 -11 -49 -24 -53 -30 -5 -9 28 -35 107 -81 29 -18 46 -21 76 -16 40 7 71 -11 71 -40 0 -8 66 -47 151 -90 139 -70 155 -75 194 -69 41 6 44 4 58 -23 13 -24 52 -53 72 -53 3 0 2 12 -1 28 -3 15 3 50 14 82 38 103 48 266 26 414 -11 75 -12 102 -3 112 18 21 8 24 -30 8z m-191 -123 c17 -32 11 -60 -15 -77 -23 -15 -27 -15 -50 0 -44 29 -26 96 25 96 19 0 33 -7 40 -19z m198 -13 c20 -20 15 -76 -7 -88 -27 -14 -34 -13 -59 10 -26 25 -29 65 -4 79 23 14 55 14 70 -1z m-575 -106 c23 -26 9 -74 -26 -86 -51 -18 -88 45 -50 86 21 23 55 23 76 0z m199 -19 c10 -9 18 -24 18 -35 0 -48 -88 -80 -110 -39 -16 31 -12 59 12 75 29 21 57 20 80 -1z m226 1 c31 -21 26 -70 -9 -96 -61 -46 -116 45 -57 95 25 21 37 21 66 1z m134 -141 c25 -23 23 -68 -4 -87 -32 -22 -64 -20 -82 6 -20 28 -20 43 0 73 19 29 59 33 86 8z m-207 -37 c13 -37 -4 -60 -47 -64 -29 -3 -36 1 -46 24 -16 33 -8 58 21 71 30 14 60 1 72 -31z" transform="translate(0.000000,82.000000) scale(0.100000,-0.100000)" stroke="none" fill="#F8D95D"/>

</svg>