<?xml version="1.0" standalone="no"?>
<!DOCTYPE svg PUBLIC "-//W3C//DTD SVG 20010904//EN"
 "http://www.w3.org/TR/2001/REC-SVG-20010904/DTD/svg10.dtd">
<svg version="1.0" xmlns="http://www.w3.org/2000/svg" 
width="98.000000pt" height="106.000000pt" viewBox="0 0 98.000000 106.000000"
preserveAspectRatio = "xMidYMid meet" >
<metadata>
Created by ZoeQU, 2022
</metadata>
<rect width="98.000000" height="106.000000" fill="#AFE2EB"/>
<path d="M298 198 c-8 -7 -18 -22 -20 -33 -5 -19 -3 -19 46 5 37 18 47 27 36 32 -24 11 -45 9 -62 -4z" transform="translate(0.000000,106.000000) scale(0.100000,-0.100000)" stroke="none" fill="#DCA162"/>

<path d="M780 421 c-8 -6 -27 -7 -42 -4 -31 6 -68 -18 -68 -45 0 -8 -8 -21 -17 -28 -10 -7 -15 -14 -12 -14 3 0 21 11 40 26 19 14 53 34 77 44 23 10 42 21 42 24 0 8 -2 7 -20 -3z" transform="translate(0.000000,106.000000) scale(0.100000,-0.100000)" stroke="none" fill="#DCA162"/>

<path d="M299 809 c-4 -26 -14 -61 -23 -79 -9 -18 -16 -34 -16 -36 0 -8 65 18 72 28 12 21 9 56 -6 65 -8 4 -16 22 -18 38 -3 25 -4 22 -9 -16z" transform="translate(0.000000,106.000000) scale(0.100000,-0.100000)" stroke="none" fill="#DCA162"/>

<path d="M179 440 c-14 -44 -21 -76 -15 -70 5 5 16 6 26 0 22 -12 60 14 60 41 0 11 -11 31 -24 44 -16 16 -22 31 -19 45 3 11 4 20 1 20 -2 0 -15 -36 -29 -80z" transform="translate(0.000000,106.000000) scale(0.100000,-0.100000)" stroke="none" fill="#DCA162"/>

<path d="M260 591 c-17 -32 -11 -60 15 -77 23 -15 27 -15 50 0 45 29 24 96 -30 96 -14 0 -29 -8 -35 -19z" transform="translate(0.000000,106.000000) scale(0.100000,-0.100000)" stroke="none" fill="#DCA162"/>

<path d="M135 220 c-14 -16 -16 -26 -9 -52 6 -19 17 -34 28 -36 30 -6 64 7 68 26 6 25 -12 72 -27 72 -7 0 -20 2 -27 5 -8 3 -23 -3 -33 -15z" transform="translate(0.000000,106.000000) scale(0.100000,-0.100000)" stroke="none" fill="#DCA162"/>

<path d="M396 744 c-20 -19 -20 -34 0 -62 17 -24 62 -30 82 -10 22 22 14 64 -13 76 -35 16 -51 15 -69 -4z" transform="translate(0.000000,106.000000) scale(0.100000,-0.100000)" stroke="none" fill="#DCA162"/>

<path d="M497 398 c-31 -17 -40 -47 -22 -74 31 -47 113 -16 100 38 -8 31 -52 51 -78 36z" transform="translate(0.000000,106.000000) scale(0.100000,-0.100000)" stroke="none" fill="#DCA162"/>

<path d="M269 369 c-16 -16 -20 -28 -15 -52 7 -35 21 -47 53 -47 25 0 53 35 53 67 0 22 -33 53 -57 53 -7 0 -22 -9 -34 -21z" transform="translate(0.000000,106.000000) scale(0.100000,-0.100000)" stroke="none" fill="#DCA162"/>

<path d="M597 572 c-35 -38 -8 -102 43 -102 61 0 80 89 24 110 -36 14 -49 12 -67 -8z" transform="translate(0.000000,106.000000) scale(0.100000,-0.100000)" stroke="none" fill="#DCA162"/>

<path d="M410 550 c-11 -11 -20 -29 -20 -40 0 -47 73 -79 106 -46 32 33 3 106 -42 106 -13 0 -33 -9 -44 -20z" transform="translate(0.000000,106.000000) scale(0.100000,-0.100000)" stroke="none" fill="#DCA162"/>

<path d="M350 857 c0 -7 33 -29 73 -49 64 -32 119 -71 240 -169 20 -16 55 -56 76 -87 21 -32 46 -64 55 -71 32 -27 27 -3 -11 50 -77 108 -212 224 -333 284 -38 20 -72 40 -75 45 -9 14 -25 12 -25 -3z" transform="translate(0.000000,106.000000) scale(0.100000,-0.100000)" stroke="none" fill="#3D3C24"/>

<path d="M338 1003 c-9 -10 -26 -52 -38 -93 -73 -248 -118 -392 -130 -425 -43 -110 -58 -156 -90 -277 -25 -95 -25 -130 -2 -151 16 -15 23 -14 84 7 71 25 207 89 248 116 14 10 86 49 160 87 203 105 307 170 355 223 47 52 9 145 -110 266 -117 118 -232 192 -381 243 -73 25 -77 26 -96 4z m115 -28 c148 -53 285 -151 393 -280 49 -59 64 -83 83 -137 10 -25 6 -31 -39 -70 -27 -23 -89 -67 -137 -96 -79 -49 -146 -85 -451 -242 -119 -62 -198 -94 -211 -85 -13 8 -14 71 -2 111 5 16 14 49 21 74 14 50 28 95 40 125 4 11 15 43 23 70 9 28 27 82 40 120 24 68 67 206 102 330 35 122 31 119 138 80z" transform="translate(0.000000,106.000000) scale(0.100000,-0.100000)" stroke="none" fill="#3D3C24"/>

<path d="M386 981 c5 -5 18 -11 29 -14 12 -4 9 -5 -10 -4 -16 1 -35 5 -41 9 -8 6 -19 -11 -33 -53 -11 -34 -18 -59 -15 -56 4 3 15 -4 26 -16 l19 -22 -13 22 c-15 27 -3 42 20 25 9 -6 44 -26 77 -43 61 -32 193 -127 253 -183 18 -17 49 -55 68 -84 20 -30 40 -50 46 -46 6 4 8 2 4 -4 -3 -6 -2 -13 4 -17 6 -3 8 -17 6 -31 -5 -23 -2 -22 45 16 44 38 65 61 39 45 -6 -4 -10 7 -9 27 1 31 1 32 9 8 5 -14 8 -18 9 -9 1 9 -5 29 -13 44 -12 23 -15 24 -19 8 -3 -10 -5 -3 -6 16 0 19 -4 32 -7 28 -4 -3 -13 0 -20 8 -17 17 -18 29 -1 19 8 -5 8 -2 -2 9 -15 18 -26 23 -16 7 3 -5 4 -10 1 -10 -8 0 -101 102 -101 111 0 4 -7 14 -15 21 -12 11 -12 11 -1 -4 19 -26 5 -22 -34 8 -19 14 -33 31 -32 37 1 7 -8 11 -22 9 -18 -3 -22 0 -18 12 3 8 1 18 -5 22 -7 4 -8 3 -4 -4 11 -19 -17 -13 -44 8 -14 11 -31 20 -37 20 -7 0 -13 6 -13 14 0 9 -9 12 -27 9 -23 -3 -24 -2 -8 5 18 8 18 9 -5 14 -14 4 -40 11 -59 17 -19 6 -30 7 -25 2z" transform="translate(0.000000,106.000000) scale(0.100000,-0.100000)" stroke="none" fill="#DCA162"/>

<path d="M316 862 c-13 -12 -5 -70 9 -76 36 -13 6 -86 -36 -86 -11 0 -21 -6 -23 -12 -2 -7 -18 -57 -35 -110 l-31 -98 25 -24 c14 -14 25 -34 25 -45 0 -27 -38 -53 -60 -41 -29 15 -35 1 -80 -176 -27 -110 -27 -118 9 -111 17 4 59 20 95 36 50 22 66 35 66 50 0 26 34 44 68 36 21 -4 48 5 107 37 44 24 110 58 148 77 43 22 67 40 67 51 0 29 36 53 68 47 20 -4 39 1 63 16 31 20 32 22 12 25 -15 2 -44 33 -83 88 -34 46 -64 84 -68 84 -4 0 -41 28 -82 61 -41 34 -106 76 -144 96 -37 19 -79 45 -92 58 -12 12 -25 20 -28 17z m149 -114 c27 -12 35 -54 13 -76 -20 -20 -65 -14 -82 10 -20 28 -20 43 0 62 18 19 34 20 69 4z m-131 -154 c24 -24 20 -61 -9 -80 -23 -15 -27 -15 -50 0 -26 17 -32 45 -15 77 13 23 53 25 74 3z m330 -14 c56 -21 37 -110 -24 -110 -51 0 -78 64 -43 102 18 20 31 22 67 8z m-170 -32 c33 -46 12 -98 -38 -98 -31 0 -66 32 -66 60 0 28 35 60 64 60 14 0 32 -10 40 -22z m81 -186 c13 -54 -69 -85 -100 -38 -18 27 -9 57 22 74 26 15 70 -5 78 -36z m-237 12 c56 -39 -8 -133 -65 -96 -7 4 -15 22 -19 39 -5 24 -1 36 15 52 25 25 39 26 69 5z m-143 -144 c15 0 33 -47 27 -72 -4 -19 -38 -32 -68 -26 -11 2 -22 17 -28 36 -7 26 -5 36 9 52 10 12 25 18 33 15 7 -3 20 -5 27 -5z" transform="translate(0.000000,106.000000) scale(0.100000,-0.100000)" stroke="none" fill="#F9D85D"/>

</svg>