<?xml version="1.0" standalone="no"?>
<!DOCTYPE svg PUBLIC "-//W3C//DTD SVG 20010904//EN"
 "http://www.w3.org/TR/2001/REC-SVG-20010904/DTD/svg10.dtd">
<svg version="1.0" xmlns="http://www.w3.org/2000/svg" 
width="106.000000pt" height="80.000000pt" viewBox="0 0 106.000000 80.000000"
preserveAspectRatio = "xMidYMid meet" >
<metadata>
Created by ZoeQU, 2022
</metadata>
<rect width="106.000000" height="80.000000" fill="#AADAE3"/>
<path d="M0 159 c0 -44 4 -68 10 -64 13 8 13 135 0 135 -6 0 -10 -30 -10 -71z" transform="translate(0.000000,80.000000) scale(0.100000,-0.100000)" stroke="none" fill="#403F27"/>

<path d="M235 50 c-16 -4 17 -5 75 -2 58 3 107 6 109 8 8 7 -153 2 -184 -6z" transform="translate(0.000000,80.000000) scale(0.100000,-0.100000)" stroke="none" fill="#7E7D63"/>

<path d="M385 713 c24 -23 147 -114 141 -104 -4 6 -33 30 -64 54 -57 43 -97 69 -77 50z" transform="translate(0.000000,80.000000) scale(0.100000,-0.100000)" stroke="none" fill="#7E7D63"/>

<path d="M440 607 c0 -28 26 -48 65 -51 38 -3 39 -3 18 11 -12 8 -32 23 -44 34 -26 22 -39 24 -39 6z" transform="translate(0.000000,80.000000) scale(0.100000,-0.100000)" stroke="none" fill="#DCA162"/>

<path d="M772 345 c10 -12 15 -30 12 -42 -4 -14 1 -26 17 -37 21 -15 59 -22 59 -12 0 3 -24 29 -52 58 -29 29 -45 44 -36 33z" transform="translate(0.000000,80.000000) scale(0.100000,-0.100000)" stroke="none" fill="#DCA162"/>

<path d="M350 30 c-30 -4 33 -4 140 -2 107 3 197 6 199 8 7 7 -281 1 -339 -6z" transform="translate(0.000000,80.000000) scale(0.100000,-0.100000)" stroke="none" fill="#7E7D63"/>

<path d="M252 98 c-7 -7 -12 -17 -12 -24 0 -7 -6 -15 -12 -18 -7 -4 2 -4 21 -1 18 3 49 5 67 5 34 0 34 0 18 25 -18 27 -61 34 -82 13z" transform="translate(0.000000,80.000000) scale(0.100000,-0.100000)" stroke="none" fill="#DCA162"/>

<path d="M913 254 c121 -126 133 -154 75 -179 -18 -8 -26 -14 -18 -15 28 0 60 30 60 56 0 28 -76 115 -186 214 -21 19 9 -15 69 -76z" transform="translate(0.000000,80.000000) scale(0.100000,-0.100000)" stroke="none" fill="#7E7D63"/>

<path d="M240 251 c-15 -29 -12 -56 8 -74 35 -32 82 -10 82 38 0 49 -68 76 -90 36z" transform="translate(0.000000,80.000000) scale(0.100000,-0.100000)" stroke="none" fill="#DCA162"/>

<path d="M430 171 c-17 -32 -11 -60 15 -77 23 -15 27 -15 50 0 27 18 34 63 13 84 -19 19 -66 15 -78 -7z" transform="translate(0.000000,80.000000) scale(0.100000,-0.100000)" stroke="none" fill="#DCA162"/>

<path d="M553 462 c-7 -4 -16 -22 -19 -39 -5 -27 -2 -33 22 -46 37 -19 71 -7 80 28 11 45 -43 82 -83 57z" transform="translate(0.000000,80.000000) scale(0.100000,-0.100000)" stroke="none" fill="#DCA162"/>

<path d="M602 128 c-7 -7 -12 -22 -12 -35 0 -22 -3 -23 -92 -25 -52 -1 -73 -3 -48 -6 25 -2 91 -1 146 3 98 7 101 8 96 28 -3 12 -9 28 -15 35 -12 15 -59 16 -75 0z" transform="translate(0.000000,80.000000) scale(0.100000,-0.100000)" stroke="none" fill="#DCA162"/>

<path d="M6 275 c-6 -27 -6 -40 3 -43 14 -5 15 -128 1 -137 -18 -11 -10 -51 15 -75 14 -13 28 -21 31 -18 3 4 -4 11 -15 18 -12 6 -21 21 -21 33 l0 21 16 -22 c10 -14 25 -22 42 -21 27 2 27 2 2 6 -14 3 -29 8 -34 13 -5 5 -8 59 -8 122 0 63 -4 104 -8 93 -6 -16 -8 -14 -12 15 l-4 35 -8 -40z" transform="translate(0.000000,80.000000) scale(0.100000,-0.100000)" stroke="none" fill="#7E7D63"/>

<path d="M849 203 c-28 -7 -44 -49 -31 -78 9 -20 19 -25 46 -25 28 0 37 5 49 30 14 27 14 32 -5 55 -19 25 -27 27 -59 18z" transform="translate(0.000000,80.000000) scale(0.100000,-0.100000)" stroke="none" fill="#DCA162"/>

<path d="M345 512 c-29 -21 -36 -40 -24 -66 21 -46 83 -49 108 -4 23 40 3 78 -41 78 -18 0 -37 -4 -43 -8z" transform="translate(0.000000,80.000000) scale(0.100000,-0.100000)" stroke="none" fill="#DCA162"/>

<path d="M652 273 c-25 -10 -34 -53 -17 -79 28 -43 115 -19 115 31 0 37 -56 65 -98 48z" transform="translate(0.000000,80.000000) scale(0.100000,-0.100000)" stroke="none" fill="#DCA162"/>

<path d="M426 339 c-30 -23 -33 -45 -10 -77 18 -26 54 -29 82 -4 31 26 35 55 12 80 -26 28 -50 28 -84 1z" transform="translate(0.000000,80.000000) scale(0.100000,-0.100000)" stroke="none" fill="#DCA162"/>

<path d="M314 580 c-27 -41 -55 -86 -61 -100 -24 -51 -67 -207 -74 -270 -5 -36 -11 -83 -15 -105 -4 -27 -3 -37 4 -30 12 12 32 104 32 147 0 18 8 57 19 87 10 31 26 81 35 111 9 30 40 90 67 132 28 42 49 83 47 90 -3 7 -27 -21 -54 -62z" transform="translate(0.000000,80.000000) scale(0.100000,-0.100000)" stroke="none" fill="#403F27"/>

<path d="M211 715 c-43 -41 -67 -80 -143 -237 -4 -10 -8 -27 -8 -37 0 -11 -4 -22 -9 -25 -9 -6 -17 -44 -28 -126 -3 -25 -2 -42 1 -39 5 5 13 36 31 124 4 17 10 39 15 50 4 11 18 46 30 78 41 106 139 237 177 237 19 0 162 -86 183 -109 3 -3 32 -28 65 -56 33 -27 87 -75 120 -105 34 -30 99 -89 145 -130 115 -102 210 -202 210 -221 0 -36 -150 -59 -376 -59 -132 0 -247 -6 -501 -25 -66 -5 -73 -4 -87 17 -16 22 -16 22 -16 1 0 -23 49 -61 59 -45 6 10 107 16 516 32 364 14 425 25 425 77 0 21 -25 52 -112 138 -302 296 -564 505 -635 505 -7 0 -35 -20 -62 -45z" transform="translate(0.000000,80.000000) scale(0.100000,-0.100000)" stroke="none" fill="#403F27"/>

<path d="M265 720 c2 -4 -10 -20 -27 -36 -29 -27 -30 -21 -4 16 6 9 1 5 -12 -8 -12 -13 -20 -28 -16 -33 6 -11 -33 -64 -49 -64 -5 0 -12 -7 -14 -15 -4 -13 -3 -13 6 0 17 23 13 -4 -5 -36 -14 -26 -15 -26 -10 -5 3 17 2 21 -6 13 -6 -6 -11 -28 -10 -49 0 -29 -2 -33 -8 -18 l-9 20 -1 -20 c-1 -11 -2 -33 -2 -50 1 -29 1 -29 -7 -5 l-9 25 -2 -25 c-1 -14 -3 -43 -4 -65 0 -22 -5 -39 -11 -38 -6 1 -9 -24 -8 -60 1 -48 0 -55 -6 -32 l-9 30 -2 -27 c-3 -36 -3 -111 0 -145 2 -26 3 -26 10 7 l7 35 3 -40 c1 -22 2 -43 1 -47 0 -5 34 -7 76 -7 50 1 67 4 47 8 -35 7 -34 5 -20 131 7 62 40 187 72 278 17 47 95 167 126 194 11 10 25 15 32 12 6 -3 2 2 -9 10 -11 9 -25 14 -33 11 -7 -2 -10 -1 -7 5 3 5 -4 14 -16 21 -25 13 -71 20 -64 9z" transform="translate(0.000000,80.000000) scale(0.100000,-0.100000)" stroke="none" fill="#DCA162"/>

<path d="M384 652 c4 -12 -13 -47 -49 -101 -31 -46 -62 -109 -71 -140 -8 -31 -24 -83 -35 -115 -10 -33 -19 -77 -19 -99 0 -64 -20 -128 -44 -137 -18 -7 -15 -9 14 -9 39 -1 50 5 66 34 6 12 24 21 41 23 23 2 34 -3 47 -23 15 -23 23 -26 54 -21 20 3 74 5 120 6 79 0 82 1 82 23 0 30 18 47 50 47 30 0 50 -17 50 -42 0 -10 6 -21 13 -24 15 -5 263 22 277 31 19 12 10 27 -51 90 -44 46 -65 61 -80 58 -31 -8 -72 24 -65 51 5 19 -5 33 -57 77 -34 29 -90 80 -124 113 -50 47 -70 59 -100 62 -39 3 -66 27 -60 54 1 8 -11 25 -27 38 -36 27 -39 27 -32 4z m48 -158 c10 -21 9 -31 -3 -52 -25 -45 -87 -42 -108 4 -9 21 -9 30 1 43 21 26 31 31 66 31 25 0 35 -6 44 -26z m193 -44 c41 -45 -12 -102 -69 -73 -24 13 -27 19 -22 46 10 50 57 64 91 27z m-115 -112 c23 -25 19 -54 -12 -80 -28 -25 -64 -22 -82 4 -23 32 -20 54 10 77 34 27 58 27 84 -1z m220 -78 c11 -11 20 -27 20 -35 0 -50 -87 -74 -115 -31 -39 59 44 117 95 66z m-416 -6 c31 -31 10 -94 -31 -94 -23 0 -53 30 -53 52 0 52 50 77 84 42z m594 -69 c19 -23 19 -28 5 -55 -12 -25 -21 -30 -49 -30 -27 0 -37 5 -46 25 -18 41 8 79 59 84 6 0 20 -10 31 -24z m-400 -7 c21 -21 14 -66 -13 -84 -23 -15 -27 -15 -50 0 -26 17 -32 45 -15 77 12 22 59 26 78 7z" transform="translate(0.000000,80.000000) scale(0.100000,-0.100000)" stroke="none" fill="#F8D95D"/>

</svg>