<?xml version="1.0" standalone="no"?>
<!DOCTYPE svg PUBLIC "-//W3C//DTD SVG 20010904//EN"
 "http://www.w3.org/TR/2001/REC-SVG-20010904/DTD/svg10.dtd">
<svg version="1.0" xmlns="http://www.w3.org/2000/svg" 
width="86.000000pt" height="108.000000pt" viewBox="0 0 86.000000 108.000000"
preserveAspectRatio = "xMidYMid meet" >
<metadata>
Created by ZoeQU, 2022
</metadata>
<rect width="86.000000" height="108.000000" fill="#AADAE3"/>
<path d="M745 515 c17 -15 42 -38 58 -51 31 -28 34 -49 11 -84 l-16 -25 21 24 c38 42 29 63 -54 126 -27 20 -36 25 -20 10z" transform="translate(0.000000,108.000000) scale(0.100000,-0.100000)" stroke="none" fill="#7B7C62"/>

<path d="M121 83 c-1 -19 35 -51 63 -59 13 -3 48 -1 78 4 l53 10 -65 -1 c-80 0 -104 7 -118 36 -6 12 -11 16 -11 10z" transform="translate(0.000000,108.000000) scale(0.100000,-0.100000)" stroke="none" fill="#7B7C62"/>

<path d="M236 933 c16 -15 75 -65 130 -111 54 -46 75 -61 47 -33 -29 27 -88 77 -130 111 -43 34 -64 49 -47 33z" transform="translate(0.000000,108.000000) scale(0.100000,-0.100000)" stroke="none" fill="#7B7C62"/>

<path d="M700 255 c-13 -14 -52 -43 -87 -66 -34 -23 -63 -43 -63 -46 0 -5 12 2 80 48 50 33 111 89 98 89 -2 0 -15 -11 -28 -25z" transform="translate(0.000000,108.000000) scale(0.100000,-0.100000)" stroke="none" fill="#7B7C62"/>

<path d="M55 801 c4 -13 7 -56 8 -95 0 -39 2 -53 4 -32 3 21 11 45 19 53 21 22 17 47 -12 74 l-26 24 7 -24z" transform="translate(0.000000,108.000000) scale(0.100000,-0.100000)" stroke="none" fill="#DCA162"/>

<path d="M96 380 c3 -14 8 -54 11 -89 l6 -64 13 33 c18 42 18 77 0 87 -8 5 -20 19 -26 33 l-11 25 7 -25z" transform="translate(0.000000,108.000000) scale(0.100000,-0.100000)" stroke="none" fill="#DCA162"/>

<path d="M565 588 c-5 -21 -2 -35 11 -49 19 -21 49 -25 59 -8 4 6 14 8 22 5 8 -3 11 -1 8 4 -3 6 -11 10 -17 10 -6 0 -26 15 -44 34 l-33 34 -6 -30z" transform="translate(0.000000,108.000000) scale(0.100000,-0.100000)" stroke="none" fill="#DCA162"/>

<path d="M283 853 c23 -25 26 -31 13 -36 -22 -9 -20 -40 3 -68 16 -20 23 -22 47 -14 16 6 29 18 29 26 0 9 -27 40 -60 70 -33 29 -47 39 -32 22z" transform="translate(0.000000,108.000000) scale(0.100000,-0.100000)" stroke="none" fill="#DCA162"/>

<path d="M485 485 c-28 -27 -30 -37 -15 -66 14 -25 62 -25 85 1 23 25 13 63 -20 78 -23 11 -29 9 -50 -13z" transform="translate(0.000000,108.000000) scale(0.100000,-0.100000)" stroke="none" fill="#DCA162"/>

<path d="M116 538 c-21 -29 -20 -51 2 -71 24 -22 34 -21 66 4 30 24 33 49 8 72 -26 23 -58 21 -76 -5z" transform="translate(0.000000,108.000000) scale(0.100000,-0.100000)" stroke="none" fill="#DCA162"/>

<path d="M385 666 c-27 -41 12 -98 56 -81 8 3 21 18 31 34 15 28 15 30 -6 50 -29 28 -62 27 -81 -3z" transform="translate(0.000000,108.000000) scale(0.100000,-0.100000)" stroke="none" fill="#DCA162"/>

<path d="M148 958 c12 -15 10 -17 -19 -16 -38 1 -61 -25 -57 -62 7 -57 108 -43 108 15 0 14 -5 25 -11 25 -6 0 -9 6 -6 14 3 8 -2 20 -11 28 -15 12 -16 11 -4 -4z" transform="translate(0.000000,108.000000) scale(0.100000,-0.100000)" stroke="none" fill="#DCA162"/>

<path d="M160 755 c-16 -20 -3 -72 21 -86 58 -30 110 22 75 75 -19 30 -75 36 -96 11z" transform="translate(0.000000,108.000000) scale(0.100000,-0.100000)" stroke="none" fill="#DCA162"/>

<path d="M281 551 c-26 -26 -27 -53 -3 -74 29 -26 78 -22 98 9 16 24 16 27 -3 52 -25 34 -65 40 -92 13z" transform="translate(0.000000,108.000000) scale(0.100000,-0.100000)" stroke="none" fill="#DCA162"/>

<path d="M230 370 c-25 -25 -25 -41 1 -74 23 -30 45 -33 77 -10 29 20 31 79 3 94 -30 16 -59 12 -81 -10z" transform="translate(0.000000,108.000000) scale(0.100000,-0.100000)" stroke="none" fill="#DCA162"/>

<path d="M612 426 c-34 -30 -89 -71 -124 -90 -35 -20 -70 -41 -78 -46 -44 -29 -91 -48 -145 -59 -76 -16 -105 -28 -105 -42 0 -7 7 -8 18 -4 9 4 49 15 87 25 85 22 103 28 135 50 14 10 48 30 75 45 93 52 242 174 214 175 -9 0 -44 -24 -77 -54z" transform="translate(0.000000,108.000000) scale(0.100000,-0.100000)" stroke="none" fill="#3E3D23"/>

<path d="M37 1022 c-22 -24 -23 -170 -2 -337 9 -66 18 -156 21 -200 10 -168 59 -399 91 -430 25 -26 132 -23 218 7 172 58 369 197 445 314 36 54 31 62 -95 160 -93 71 -245 196 -391 320 -127 107 -234 184 -257 184 -8 0 -21 -8 -30 -18z m55 -14 c53 -30 187 -135 349 -274 96 -83 208 -176 249 -207 119 -89 123 -94 116 -123 -9 -33 -125 -150 -201 -201 -57 -38 -152 -89 -205 -111 -14 -5 -37 -14 -51 -20 -15 -6 -58 -14 -96 -17 -63 -7 -72 -5 -90 14 -22 24 -63 177 -63 238 0 23 -4 45 -10 48 -5 3 -10 31 -10 61 0 30 -4 85 -10 122 -18 123 -35 421 -26 456 7 29 16 32 48 14z" transform="translate(0.000000,108.000000) scale(0.100000,-0.100000)" stroke="none" fill="#3E3D23"/>

<path d="M687 520 c10 -10 9 -16 -5 -27 -15 -11 -15 -12 -1 -7 41 14 23 -18 -39 -70 -142 -118 -266 -188 -388 -217 -93 -23 -115 -22 -98 4 5 7 1 4 -8 -6 -18 -19 -18 -19 -19 4 0 13 -3 19 -5 13 -3 -7 3 -38 14 -70 13 -41 24 -58 38 -60 51 -9 182 -6 199 4 11 6 34 16 52 24 22 8 28 15 20 21 -8 6 -4 7 10 4 15 -3 20 -1 16 9 -3 8 0 14 7 14 6 0 32 14 56 31 25 17 52 28 60 25 8 -3 12 -2 9 3 -3 6 10 21 28 35 37 28 52 33 41 14 -4 -7 14 7 40 32 25 24 46 46 46 49 0 3 -19 -13 -41 -34 -23 -22 -40 -35 -38 -29 7 22 90 105 99 99 5 -3 12 0 16 6 5 8 3 9 -5 4 -9 -5 -12 0 -9 20 2 23 -6 35 -52 73 -30 25 -50 40 -43 32z m-274 -407 c-7 -2 -19 -2 -25 0 -7 3 -2 5 12 5 14 0 19 -2 13 -5z m-50 -20 c-7 -2 -19 -2 -25 0 -7 3 -2 5 12 5 14 0 19 -2 13 -5z" transform="translate(0.000000,108.000000) scale(0.100000,-0.100000)" stroke="none" fill="#DCA162"/>

<path d="M56 994 c-3 -9 -6 -50 -6 -93 0 -70 3 -80 25 -101 29 -27 32 -52 8 -75 -15 -16 -16 -27 -5 -124 7 -59 12 -125 12 -147 0 -51 17 -101 36 -108 16 -6 19 -49 4 -77 -6 -11 -8 -35 -4 -54 6 -33 7 -34 23 -15 9 11 50 27 101 40 47 12 105 33 130 47 25 14 67 37 94 51 26 14 69 45 95 67 25 23 65 56 89 73 l43 31 -26 17 c-20 13 -29 14 -38 5 -31 -31 -83 9 -73 56 6 27 2 33 -46 66 -29 20 -71 54 -93 77 -39 40 -57 50 -52 28 1 -6 -11 -16 -27 -22 -24 -9 -31 -8 -47 13 -23 28 -25 59 -3 68 13 5 12 9 -8 30 -22 25 -210 163 -221 163 -2 0 -8 -7 -11 -16z m112 -70 c34 -34 -12 -93 -63 -80 -30 8 -40 26 -31 61 11 41 61 51 94 19z m88 -180 c35 -53 -17 -105 -75 -75 -24 14 -37 66 -21 86 21 25 77 19 96 -11z m210 -75 c21 -20 21 -22 6 -50 -10 -16 -23 -31 -31 -34 -44 -17 -83 40 -56 81 19 30 52 31 81 3z m-93 -131 c19 -25 19 -28 3 -52 -20 -31 -69 -35 -98 -9 -24 21 -23 48 3 74 27 27 67 21 92 -13z m-181 5 c25 -23 22 -48 -8 -72 -32 -25 -42 -26 -66 -4 -22 20 -23 42 -2 71 18 26 50 28 76 5z m374 -80 c13 -51 -71 -89 -96 -44 -15 29 -13 39 15 66 21 22 27 24 50 13 14 -6 28 -22 31 -35z m-255 -83 c28 -15 26 -74 -3 -94 -32 -23 -54 -20 -77 10 -26 33 -26 49 -1 74 22 22 51 26 81 10z" transform="translate(0.000000,108.000000) scale(0.100000,-0.100000)" stroke="none" fill="#F9D85D"/>

</svg>