<?xml version="1.0" standalone="no"?>
<!DOCTYPE svg PUBLIC "-//W3C//DTD SVG 20010904//EN"
 "http://www.w3.org/TR/2001/REC-SVG-20010904/DTD/svg10.dtd">
<svg version="1.0" xmlns="http://www.w3.org/2000/svg" 
width="64.000000pt" height="102.000000pt" viewBox="0 0 64.000000 102.000000"
preserveAspectRatio = "xMidYMid meet" >
<metadata>
Created by ZoeQU, 2022
</metadata>
<rect width="64.000000" height="102.000000" fill="#D7D2B5"/>
<path d="M167 338 c-15 -34 -25 -63 -23 -65 2 -2 15 24 30 58 15 33 26 62 24 64 -2 2 -16 -24 -31 -57z" transform="translate(0.000000,102.000000) scale(0.100000,-0.100000)" stroke="none" fill="#626F56"/>

<path d="M274 602 c-10 -6 -35 -67 -33 -81 0 -3 10 14 21 39 25 56 35 36 14 -27 -9 -25 -14 -48 -12 -50 5 -6 36 87 36 109 0 19 -8 22 -26 10z" transform="translate(0.000000,102.000000) scale(0.100000,-0.100000)" stroke="none" fill="#626F56"/>

<path d="M283 850 c-30 -27 -36 -55 -23 -94 20 -62 92 -77 141 -30 40 39 36 96 -10 131 -25 19 -84 16 -108 -7z" transform="translate(0.000000,102.000000) scale(0.100000,-0.100000)" stroke="none" fill="#57291C"/>

<path d="M262 557 c-12 -27 -22 -53 -22 -58 0 -5 -4 -17 -9 -27 -6 -9 -21 -49 -35 -87 -15 -39 -56 -124 -92 -189 -36 -65 -63 -120 -60 -123 12 -13 38 24 96 140 67 132 82 153 113 163 11 4 31 17 45 29 13 12 53 31 88 41 35 10 64 22 64 27 0 5 -10 6 -22 2 -13 -4 -36 -8 -52 -9 -16 0 -31 -6 -33 -13 -3 -7 -10 -10 -17 -7 -7 3 -27 -6 -44 -20 -25 -22 -52 -34 -52 -23 0 2 14 41 30 87 35 94 36 143 2 67z" transform="translate(0.000000,102.000000) scale(0.100000,-0.100000)" stroke="none" fill="#57291C"/>

<path d="M490 543 c-19 -3 -39 -9 -44 -14 -6 -5 -17 -9 -26 -9 -8 0 -22 -9 -30 -20 -8 -11 -23 -20 -33 -20 -10 0 -33 -11 -50 -24 -57 -41 -61 -42 -53 -10 7 32 -7 14 -18 -23 -10 -31 8 -30 46 3 17 14 37 23 44 20 7 -3 14 0 17 7 2 7 17 13 33 13 16 1 39 5 52 9 12 4 22 3 22 -2 0 -5 -29 -17 -64 -27 -35 -10 -75 -29 -88 -41 -14 -12 -34 -25 -45 -29 -11 -4 -28 -15 -37 -25 -17 -19 -99 -181 -91 -181 3 0 25 41 50 90 25 50 52 93 60 97 9 3 30 -2 49 -11 66 -31 141 -18 234 41 62 39 91 90 73 130 -6 13 -17 23 -25 23 -8 0 -20 2 -28 3 -7 2 -29 2 -48 0z" transform="translate(0.000000,102.000000) scale(0.100000,-0.100000)" stroke="none" fill="#626F56"/>

<path d="M256 971 c-11 -12 -25 -21 -33 -21 -8 0 -19 -13 -24 -30 -6 -16 -14 -30 -19 -30 -14 0 -29 -55 -26 -95 6 -71 18 -104 38 -111 11 -3 17 -12 14 -19 -8 -21 49 -68 73 -60 17 5 21 2 22 -17 l0 -23 9 23 c9 22 11 22 35 6 23 -15 27 -15 60 5 20 12 42 21 49 21 18 0 46 33 46 54 0 10 11 32 26 48 16 20 23 37 18 47 -4 9 -11 34 -17 56 -13 56 -33 89 -54 93 -10 2 -25 13 -34 25 -11 13 -35 23 -65 28 -27 4 -60 11 -74 14 -19 5 -31 1 -44 -14z m135 -108 c57 -34 59 -108 3 -152 -36 -28 -76 -27 -113 5 -26 21 -31 33 -31 69 0 36 5 48 31 69 36 30 69 33 110 9z" transform="translate(0.000000,102.000000) scale(0.100000,-0.100000)" stroke="none" fill="#E8A765"/>

</svg>