<?xml version="1.0" standalone="no"?>
<!DOCTYPE svg PUBLIC "-//W3C//DTD SVG 20010904//EN"
 "http://www.w3.org/TR/2001/REC-SVG-20010904/DTD/svg10.dtd">
<svg version="1.0" xmlns="http://www.w3.org/2000/svg" 
width="44.000000pt" height="44.000000pt" viewBox="0 0 44.000000 44.000000"
preserveAspectRatio = "xMidYMid meet" >
<metadata>
Created by ZoeQU, 2022
</metadata>
<rect width="44.000000" height="44.000000" fill="#D7D2B5"/>
<path d="M200 114 c0 -8 5 -12 10 -9 6 3 10 10 10 16 0 5 -4 9 -10 9 -5 0 -10 -7 -10 -16z" transform="translate(0.000000,44.000000) scale(0.100000,-0.100000)" stroke="none" fill="#E7BF86"/>

<path d="M270 20 c-23 -7 -23 -8 -3 -9 12 -1 25 4 28 9 3 6 5 10 3 9 -2 -1 -14 -5 -28 -9z" transform="translate(0.000000,44.000000) scale(0.100000,-0.100000)" stroke="none" fill="#E7BF86"/>

<path d="M260 35 c0 -9 5 -15 11 -13 6 2 11 8 11 13 0 5 -5 11 -11 13 -6 2 -11 -4 -11 -13z" transform="translate(0.000000,44.000000) scale(0.100000,-0.100000)" stroke="none" fill="#69200D"/>

<path d="M254 55 c-3 -8 -4 -20 -1 -27 3 -8 6 -6 6 6 1 12 6 16 15 13 10 -4 13 -1 9 9 -7 18 -22 18 -29 -1z" transform="translate(0.000000,44.000000) scale(0.100000,-0.100000)" stroke="none" fill="#B46837"/>

<path d="M192 278 c-25 -25 -5 -98 27 -98 17 0 71 54 71 72 0 31 -73 51 -98 26z" transform="translate(0.000000,44.000000) scale(0.100000,-0.100000)" stroke="none" fill="#641F33"/>

<path d="M159 311 c-50 -51 -34 -134 31 -161 84 -35 168 58 125 139 -30 58 -108 69 -156 22z m138 -17 c27 -32 28 -45 7 -90 -20 -41 -70 -62 -106 -43 -52 28 -69 73 -47 123 24 52 105 58 146 10z" transform="translate(0.000000,44.000000) scale(0.100000,-0.100000)" stroke="none" fill="#B46837"/>

<path d="M184 319 c-43 -22 -56 -88 -26 -125 47 -56 117 -51 146 10 21 45 20 58 -7 90 -26 30 -80 42 -113 25z m80 -39 c35 -13 33 -41 -6 -74 -17 -14 -35 -26 -39 -26 -17 0 -39 33 -39 59 0 47 30 62 84 41z" transform="translate(0.000000,44.000000) scale(0.100000,-0.100000)" stroke="none" fill="#69200D"/>

<path d="M160 430 c0 -5 -11 -10 -24 -10 -21 0 -93 -65 -97 -88 -7 -39 -5 -116 4 -155 11 -49 52 -97 82 -97 7 0 21 -8 31 -17 9 -10 24 -18 32 -20 9 -1 27 -4 40 -8 14 -3 21 -2 18 4 -4 5 -20 12 -36 16 -21 5 -30 13 -30 26 0 18 -11 23 -65 31 -35 6 -63 72 -63 150 1 62 4 72 29 100 20 20 36 29 49 25 11 -3 26 3 37 15 15 17 25 19 78 12 50 -5 67 -13 105 -46 44 -39 45 -42 51 -111 5 -61 4 -75 -12 -92 -10 -11 -22 -32 -28 -47 -8 -22 -17 -28 -41 -28 -26 0 -30 -4 -30 -26 0 -22 2 -24 15 -14 8 6 19 9 25 5 30 -18 112 119 99 165 -4 14 -4 42 -1 63 5 37 2 42 -57 98 l-61 59 -75 0 c-43 0 -75 -4 -75 -10z" transform="translate(0.000000,44.000000) scale(0.100000,-0.100000)" stroke="none" fill="#E7BF86"/>

<path d="M167 402 c-11 -12 -26 -18 -37 -15 -13 4 -29 -5 -49 -25 -25 -28 -28 -38 -29 -100 0 -78 28 -144 63 -150 53 -8 65 -13 65 -31 0 -12 12 -21 35 -28 34 -11 40 -7 36 20 -2 11 6 8 23 -9 15 -14 16 -14 16 5 0 17 6 21 30 21 24 0 33 6 41 28 6 15 18 36 28 47 16 17 17 31 12 92 -6 69 -7 72 -51 111 -38 33 -55 41 -105 46 -53 7 -63 5 -78 -12z m107 -72 c34 -13 59 -64 52 -105 -10 -52 -47 -78 -114 -81 -31 -1 -52 0 -45 3 7 2 2 14 -13 30 -35 38 -33 95 5 134 31 31 68 37 115 19z m-54 -209 c0 -6 -4 -13 -10 -16 -5 -3 -10 1 -10 9 0 9 5 16 10 16 6 0 10 -4 10 -9z" transform="translate(0.000000,44.000000) scale(0.100000,-0.100000)" stroke="none" fill="#EEA65B"/>

</svg>