<?xml version="1.0" standalone="no"?>
<!DOCTYPE svg PUBLIC "-//W3C//DTD SVG 20010904//EN"
 "http://www.w3.org/TR/2001/REC-SVG-20010904/DTD/svg10.dtd">
<svg version="1.0" xmlns="http://www.w3.org/2000/svg" 
width="156.000000pt" height="312.000000pt" viewBox="0 0 156.000000 312.000000"
preserveAspectRatio = "xMidYMid meet" >
<metadata>
Created by ZoeQU, 2022
</metadata>
<rect width="156.000000" height="312.000000" fill="#FAFBFB"/>
<path d="M370 731 c0 -5 5 -33 12 -61 17 -75 53 -103 128 -98 38 2 63 -2 74 -11 14 -12 16 -8 16 42 l0 55 -52 35 c-42 27 -67 36 -115 41 -36 3 -63 2 -63 -3z" transform="translate(0.000000,312.000000) scale(0.100000,-0.100000)" stroke="none" fill="#378886"/>

<path d="M631 2541 c-86 -35 -110 -119 -58 -199 21 -32 25 -33 68 -28 53 5 133 51 148 84 26 54 -7 137 -57 148 -15 3 -34 7 -42 9 -8 2 -35 -4 -59 -14z m83 -67 c22 -22 20 -41 -9 -69 -31 -32 -99 -35 -115 -6 -15 28 -13 35 16 65 31 30 83 35 108 10z" transform="translate(0.000000,312.000000) scale(0.100000,-0.100000)" stroke="none" fill="#378886"/>

<path d="M807 1823 c-11 -10 -8 -25 3 -18 6 3 10 0 10 -7 -1 -99 -21 -703 -26 -791 -6 -101 -8 -115 -20 -100 -16 22 -18 14 -4 -23 8 -19 4 -97 -15 -288 -30 -307 -34 -334 -44 -317 -5 8 -13 -5 -20 -35 -7 -27 -8 -51 -3 -56 12 -12 39 0 47 20 13 35 37 163 60 324 14 101 30 177 39 190 9 12 16 34 16 48 0 20 -2 22 -11 10 -8 -11 -9 8 -5 70 24 359 28 488 22 685 -4 121 -9 237 -13 258 -5 34 -20 47 -36 30z" transform="translate(0.000000,312.000000) scale(0.100000,-0.100000)" stroke="none" fill="#378886"/>

<path d="M310 1422 c0 -242 122 -354 291 -267 27 15 29 14 46 -11 15 -24 17 -25 23 -8 4 11 1 28 -6 40 -12 17 -11 26 6 59 25 50 25 59 -4 120 -20 43 -34 56 -102 96 -74 44 -84 47 -166 52 l-88 5 0 -86z" transform="translate(0.000000,312.000000) scale(0.100000,-0.100000)" stroke="none" fill="#378886"/>

<path d="M1434 1740 c-6 -6 -64 -20 -130 -31 -118 -20 -120 -20 -216 -86 -54 -37 -98 -67 -98 -69 0 -1 -9 -46 -20 -99 -11 -53 -20 -110 -20 -125 0 -15 18 -55 41 -90 30 -47 39 -69 35 -89 -9 -41 9 -58 23 -23 l13 30 71 -5 c112 -8 224 27 275 87 7 8 25 40 39 70 23 47 27 68 26 145 0 49 -8 126 -18 171 -13 63 -15 86 -6 103 12 22 3 29 -15 11z" transform="translate(0.000000,312.000000) scale(0.100000,-0.100000)" stroke="none" fill="#378886"/>

<path d="M766 3000 c-36 -11 -67 -40 -59 -53 4 -6 0 -8 -10 -4 -14 5 -17 0 -17 -32 0 -38 -16 -61 -53 -75 -13 -4 -20 -1 -24 13 -4 16 -8 17 -41 5 -20 -7 -59 -13 -87 -14 -74 0 -116 -15 -157 -55 -35 -34 -41 -47 -53 -120 -8 -52 13 -106 46 -118 16 -6 29 -14 29 -17 0 -3 -37 -5 -82 -5 -96 -1 -139 -18 -164 -67 -28 -54 -15 -120 46 -226 l53 -93 -8 -67 c-11 -104 -9 -139 14 -176 26 -41 75 -66 129 -66 55 0 80 11 130 59 32 32 42 38 43 24 1 -36 10 -79 21 -106 11 -30 72 -67 108 -67 39 0 95 30 145 78 16 14 29 16 21 3 -4 -5 5 -4 19 2 14 7 25 18 25 25 0 6 3 12 8 13 4 0 14 2 22 5 30 8 117 23 188 32 120 17 170 75 151 174 -4 24 -8 46 -9 50 0 3 19 9 42 13 80 14 115 88 79 170 -11 25 -31 60 -45 78 -55 73 -62 118 -40 298 13 107 -50 172 -168 173 -49 1 -58 4 -58 20 0 19 -71 96 -105 114 -30 15 -106 22 -139 12z m-26 -126 c0 -8 -5 -12 -10 -9 -6 4 -8 11 -5 16 9 14 15 11 15 -7z m171 -186 c-24 -56 -69 -108 -115 -133 l-35 -19 20 -33 c14 -22 20 -45 17 -68 -2 -18 -1 -33 2 -33 38 3 60 -8 102 -53 26 -28 48 -56 48 -61 0 -7 -22 -9 -57 -6 -50 4 -60 9 -94 45 l-38 41 -33 -23 c-18 -12 -46 -25 -61 -29 -15 -4 -25 -11 -22 -17 12 -18 -6 -67 -51 -134 l-44 -68 0 39 c1 47 13 107 31 151 11 28 11 34 -4 51 -10 11 -23 36 -28 56 -8 28 -14 36 -27 32 -16 -5 -167 82 -158 91 9 9 115 -21 147 -42 l36 -23 18 35 c22 41 73 66 131 65 38 -1 41 1 53 36 8 20 18 43 24 50 17 22 148 104 155 98 1 -2 -6 -23 -17 -48z" transform="translate(0.000000,312.000000) scale(0.100000,-0.100000)" stroke="none" fill="#ED6784"/>

</svg>