<?xml version="1.0" standalone="no"?>
<!DOCTYPE svg PUBLIC "-//W3C//DTD SVG 20010904//EN"
 "http://www.w3.org/TR/2001/REC-SVG-20010904/DTD/svg10.dtd">
<svg version="1.0" xmlns="http://www.w3.org/2000/svg" 
width="107.000000pt" height="175.000000pt" viewBox="0 0 107.000000 175.000000"
preserveAspectRatio = "xMidYMid meet" >
<metadata>
Created by ZoeQU, 2022
</metadata>
<rect width="107.000000" height="175.000000" fill="#FAFBFB"/>
<path d="M600 1650 c0 -5 16 -53 35 -107 l35 -98 -10 -99 c-17 -162 -115 -379 -164 -363 -6 2 -16 21 -22 43 -9 32 -15 39 -35 39 -31 0 -37 -38 -15 -102 20 -59 20 -92 0 -143 -18 -44 -39 -60 -76 -60 -21 0 -33 18 -92 138 -95 192 -170 284 -197 241 -21 -33 -9 -77 31 -124 53 -61 54 -97 5 -126 -42 -25 -45 -51 -9 -76 110 -76 145 -137 147 -252 1 -103 -20 -159 -107 -288 -40 -60 -75 -116 -79 -126 -16 -43 41 -79 95 -58 14 5 62 57 107 116 74 95 136 153 217 201 18 11 18 13 3 30 -24 28 -41 88 -33 118 8 35 93 109 157 139 68 31 124 45 242 57 101 10 148 27 165 59 14 27 13 37 -6 56 -13 13 -27 15 -64 10 -36 -5 -49 -3 -53 7 -9 24 19 73 72 127 65 66 80 121 34 121 -9 0 -79 -60 -157 -134 -135 -128 -183 -163 -216 -160 -8 1 -21 2 -27 3 -23 2 -14 37 26 98 21 33 67 109 102 169 34 60 88 137 120 172 85 94 111 160 70 182 -28 15 -65 -5 -96 -51 -44 -67 -63 -47 -85 84 -13 83 -25 115 -52 145 -21 22 -68 31 -68 12z" transform="translate(0.000000,175.000000) scale(0.100000,-0.100000)" stroke="none" fill="#3A3C4C"/>

</svg>