<?xml version="1.0" standalone="no"?>
<!DOCTYPE svg PUBLIC "-//W3C//DTD SVG 20010904//EN"
 "http://www.w3.org/TR/2001/REC-SVG-20010904/DTD/svg10.dtd">
<svg version="1.0" xmlns="http://www.w3.org/2000/svg" 
width="197.000000pt" height="307.000000pt" viewBox="0 0 197.000000 307.000000"
preserveAspectRatio = "xMidYMid meet" >
<metadata>
Created by ZoeQU, 2022
</metadata>
<rect width="197.000000" height="307.000000" fill="#FAFBFB"/>
<path d="M1160 820 c-10 -7 -11 -10 -2 -10 9 0 6 -13 -10 -42 -15 -30 -22 -61 -22 -100 0 -32 -4 -58 -8 -58 -14 0 -8 110 7 147 17 41 18 46 6 39 -15 -10 -48 -89 -56 -133 -10 -64 1 -99 37 -114 28 -12 32 -11 50 11 15 19 17 31 11 74 -9 59 -9 141 0 174 7 25 7 25 -13 12z" transform="translate(0.000000,307.000000) scale(0.100000,-0.100000)" stroke="none" fill="#6AD7D8"/>

<path d="M1138 834 c-74 -39 -122 -222 -74 -286 18 -25 62 -39 89 -29 50 19 56 43 42 180 -7 77 -6 84 9 78 15 -6 15 -4 -1 17 l-18 24 -14 -26 c-13 -24 -11 -100 5 -180 4 -19 -1 -35 -14 -52 -18 -22 -22 -23 -50 -11 -36 15 -47 50 -37 113 11 60 32 106 66 139 36 35 35 53 -3 33z" transform="translate(0.000000,307.000000) scale(0.100000,-0.100000)" stroke="none" fill="#429D99"/>

<path d="M296 2360 c-105 -19 -128 -154 -38 -219 44 -31 47 -5 5 36 -30 28 -34 37 -31 74 4 59 37 82 116 81 60 -1 156 -32 211 -69 14 -10 28 -18 31 -18 24 -5 72 -45 79 -67 6 -16 17 -28 25 -28 8 0 17 -6 19 -12 4 -8 6 -7 6 4 1 21 -46 78 -65 78 -8 0 -14 5 -14 10 0 6 -6 10 -13 10 -7 0 -19 9 -27 21 -8 11 -40 33 -70 49 -86 44 -170 61 -234 50z" transform="translate(0.000000,307.000000) scale(0.100000,-0.100000)" stroke="none" fill="#429D99"/>

<path d="M1017 1003 c-69 -54 -119 -164 -132 -293 -8 -80 4 -114 42 -118 64 -6 83 43 101 264 5 67 13 128 18 135 8 14 15 39 10 39 -2 0 -19 -12 -39 -27z m13 -23 c-34 -48 -62 -139 -68 -218 -2 -40 -9 -75 -15 -79 -17 -10 0 148 22 211 21 60 56 116 72 116 6 0 1 -14 -11 -30z" transform="translate(0.000000,307.000000) scale(0.100000,-0.100000)" stroke="none" fill="#6AD7D8"/>

<path d="M865 1192 c-93 -57 -165 -206 -165 -344 0 -95 30 -130 96 -114 39 10 60 72 79 231 19 166 23 184 44 210 9 11 0 6 -20 -10 -39 -33 -80 -104 -100 -175 -13 -49 -29 -74 -29 -48 0 33 41 145 68 183 15 22 43 50 61 62 26 17 29 23 15 23 -10 0 -33 -8 -49 -18z" transform="translate(0.000000,307.000000) scale(0.100000,-0.100000)" stroke="none" fill="#6AD7D8"/>

<path d="M1190 1294 c-89 -24 -84 -34 17 -34 90 0 274 -38 298 -61 13 -13 -1 -12 -78 10 -104 30 -210 43 -275 35 l-57 -8 66 -7 c52 -6 94 -20 195 -69 72 -35 148 -65 172 -68 37 -4 47 -1 73 24 33 32 38 71 12 102 -63 75 -282 114 -423 76z" transform="translate(0.000000,307.000000) scale(0.100000,-0.100000)" stroke="none" fill="#6AD7D8"/>

<path d="M1037 2640 c-25 -27 -63 -87 -85 -132 -42 -86 -105 -255 -100 -269 2 -5 19 22 38 59 79 154 169 292 191 292 5 0 -15 -35 -44 -77 -64 -92 -190 -320 -185 -335 2 -5 21 12 41 38 21 27 75 87 120 134 102 104 152 166 167 205 23 62 -14 135 -69 135 -22 0 -40 -12 -74 -50z m93 -10 c0 -5 -4 -10 -10 -10 -5 0 -10 5 -10 10 0 6 5 10 10 10 6 0 10 -4 10 -10z" transform="translate(0.000000,307.000000) scale(0.100000,-0.100000)" stroke="none" fill="#6AD7D8"/>

<path d="M1210 1114 c144 -36 290 -94 290 -114 0 -5 -33 6 -72 24 -72 33 -173 66 -200 66 -7 0 35 -28 94 -62 59 -34 106 -64 104 -66 -2 -2 -26 1 -52 5 -27 5 -74 6 -104 3 -32 -4 -42 -8 -24 -9 41 -1 132 -33 195 -68 66 -35 47 -42 -22 -8 -53 28 -133 55 -159 55 -8 0 3 -12 25 -27 22 -15 70 -51 108 -79 96 -75 154 -80 177 -18 12 32 4 53 -34 86 l-31 27 37 1 c39 0 68 27 68 61 0 61 -235 140 -405 138 l-50 -1 55 -14z" transform="translate(0.000000,307.000000) scale(0.100000,-0.100000)" stroke="none" fill="#6AD7D8"/>

<path d="M481 1614 c-119 -25 -233 -97 -261 -164 -25 -60 30 -130 101 -130 35 0 48 9 143 99 122 116 188 153 274 155 31 0 71 -2 87 -6 29 -7 29 -7 -4 8 -20 9 -64 15 -110 15 -113 0 -211 -39 -305 -122 -45 -39 -48 -24 -3 18 78 75 193 122 301 124 49 1 55 3 31 9 -49 12 -185 9 -254 -6z" transform="translate(0.000000,307.000000) scale(0.100000,-0.100000)" stroke="none" fill="#6AD7D8"/>

<path d="M741 1328 c-72 -27 -186 -140 -225 -222 -29 -60 -43 -146 -32 -190 8 -34 58 -60 101 -52 57 11 86 59 120 196 20 82 41 144 59 178 19 35 64 82 78 82 6 0 9 3 5 6 -11 11 -116 -57 -152 -99 -31 -36 -71 -109 -100 -182 -7 -17 -9 -17 -12 -4 -6 24 41 124 84 181 42 54 93 93 150 114 37 13 37 13 8 13 -16 0 -54 -9 -84 -21z" transform="translate(0.000000,307.000000) scale(0.100000,-0.100000)" stroke="none" fill="#6AD7D8"/>

<path d="M315 2100 c-3 -5 -12 -7 -20 -3 -8 3 -15 0 -15 -7 0 -8 -8 -10 -21 -7 -12 3 -32 2 -45 -3 -24 -10 -35 4 -11 13 6 3 2 6 -10 6 -12 1 -25 -4 -29 -11 -4 -7 -3 -8 4 -4 8 5 12 0 12 -13 0 -11 -9 -22 -19 -26 -11 -3 -27 -17 -36 -31 -16 -25 -41 -24 -31 3 3 8 1 11 -4 8 -6 -3 -10 -21 -10 -38 0 -22 3 -28 9 -18 7 11 10 10 15 -5 3 -11 23 -30 43 -44 32 -22 47 -25 112 -24 43 1 113 11 160 23 82 22 236 30 264 15 8 -5 9 -4 2 3 -5 5 -29 16 -52 23 -24 7 -43 18 -43 23 0 6 -2 8 -5 5 -3 -3 -38 1 -77 8 -57 11 -85 11 -135 2 -59 -11 -86 -7 -69 9 16 17 194 15 262 -2 71 -18 166 -67 219 -113 17 -14 8 -3 -20 26 -27 28 -54 51 -58 52 -5 0 -22 14 -39 30 -16 17 -34 30 -39 30 -6 0 -8 4 -5 8 2 4 -4 8 -15 8 -10 0 -19 -4 -19 -8 0 -4 -19 2 -43 12 -24 11 -70 22 -103 26 -80 9 -76 8 -101 22 -13 7 -24 8 -28 2z m-70 -120 c-3 -5 -17 -10 -31 -10 -14 0 -22 4 -19 10 3 6 17 10 31 10 14 0 22 -4 19 -10z" transform="translate(0.000000,307.000000) scale(0.100000,-0.100000)" stroke="none" fill="#6AD7D8"/>

<path d="M673 1479 c-168 -33 -354 -199 -353 -316 1 -58 38 -93 97 -93 35 0 61 26 133 135 79 119 173 207 241 227 53 16 54 16 16 17 -56 1 -155 -35 -212 -78 -27 -21 -68 -64 -90 -94 -47 -66 -67 -75 -33 -16 29 52 112 130 169 159 50 26 129 49 174 51 27 1 26 2 -10 10 -49 10 -77 9 -132 -2z m-250 -339 c-3 -11 -9 -20 -14 -20 -10 0 -12 24 -2 33 13 13 21 7 16 -13z" transform="translate(0.000000,307.000000) scale(0.100000,-0.100000)" stroke="none" fill="#6AD7D8"/>

<path d="M745 2903 c-14 -15 -28 -44 -32 -63 -15 -66 -4 -232 21 -355 14 -65 24 -121 22 -123 -2 -1 -15 17 -29 41 -56 95 -160 187 -213 187 -74 0 -136 -100 -86 -142 34 -30 47 -33 29 -7 -25 35 -21 74 9 98 15 12 37 21 49 21 25 0 86 -42 126 -86 26 -29 99 -137 99 -146 0 -3 11 -31 26 -61 17 -38 30 -54 39 -51 17 7 13 41 -25 194 -53 215 -63 378 -29 453 26 58 85 42 111 -32 17 -51 15 -228 -5 -406 -25 -210 -24 -205 -18 -205 3 0 21 47 39 105 66 204 168 365 233 365 55 0 92 -73 69 -135 l-10 -30 20 25 c31 39 33 57 11 104 -22 44 -54 66 -96 66 -39 0 -119 -85 -168 -178 l-44 -83 5 163 c5 184 -4 235 -48 280 -36 36 -72 36 -105 1z" transform="translate(0.000000,307.000000) scale(0.100000,-0.100000)" stroke="none" fill="#429D99"/>

<path d="M1215 2423 c-91 -46 -183 -133 -263 -247 -44 -62 -57 -87 -86 -164 -19 -51 -20 -55 -4 -46 8 5 9 0 6 -14 -4 -12 -2 -20 3 -16 5 3 9 12 9 20 0 39 114 120 325 231 117 62 185 126 185 175 0 25 -8 43 -26 62 -34 34 -82 34 -149 -1z m100 -71 c-6 -5 -36 -18 -68 -30 -122 -45 -245 -151 -328 -281 -27 -42 -49 -69 -49 -59 0 30 100 167 168 228 68 62 224 150 265 150 12 0 17 -4 12 -8z" transform="translate(0.000000,307.000000) scale(0.100000,-0.100000)" stroke="none" fill="#6AD7D8"/>

<path d="M363 1851 c-29 -5 -61 -12 -70 -16 -10 -4 -34 -10 -53 -12 -19 -2 -37 -8 -38 -14 -2 -5 -16 -16 -31 -24 -34 -17 -56 -65 -47 -101 4 -15 22 -42 41 -61 51 -51 91 -46 242 24 67 32 121 63 119 68 -2 6 13 11 33 12 19 1 37 6 39 12 2 5 15 7 29 5 19 -4 24 -1 20 9 -4 10 2 13 18 11 21 -2 55 29 55 50 0 2 -25 12 -56 21 -65 19 -227 27 -301 16z m327 -61 c0 -3 -18 -4 -40 -2 -37 4 -48 11 -35 24 6 6 75 -14 75 -22z m-90 10 c0 -10 -98 -18 -112 -9 -13 8 10 13 70 16 23 1 42 -2 42 -7z m-130 -8 c0 -5 -35 -18 -77 -29 -43 -11 -87 -23 -98 -27 -11 -4 -3 2 17 14 21 11 61 27 90 35 65 17 68 17 68 7z" transform="translate(0.000000,307.000000) scale(0.100000,-0.100000)" stroke="none" fill="#6AD7D8"/>

<path d="M1370 1736 c-125 -28 -233 -74 -304 -130 -37 -28 -87 -79 -83 -83 1 -1 38 16 82 38 121 59 250 94 384 105 56 5 82 4 78 -3 -4 -6 -43 -13 -89 -17 -45 -4 -120 -16 -167 -28 -92 -22 -250 -91 -291 -127 l-25 -21 35 19 c46 26 117 37 345 56 215 17 285 34 326 75 49 49 29 98 -48 119 -49 14 -173 12 -243 -3z" transform="translate(0.000000,307.000000) scale(0.100000,-0.100000)" stroke="none" fill="#6AD7D8"/>

<path d="M1341 1515 c-139 -31 -267 -98 -315 -167 -23 -33 -20 -42 7 -18 57 55 181 91 308 89 l84 -2 -110 -12 c-60 -7 -136 -22 -167 -33 -54 -19 -118 -56 -118 -69 0 -3 6 -1 13 5 28 23 151 34 258 22 57 -6 141 -11 188 -11 123 0 170 21 192 88 28 86 -27 123 -181 122 -52 0 -124 -7 -159 -14z m239 -105 c0 -5 -16 -10 -35 -10 -19 0 -35 5 -35 10 0 6 16 10 35 10 19 0 35 -4 35 -10z" transform="translate(0.000000,307.000000) scale(0.100000,-0.100000)" stroke="none" fill="#6AD7D8"/>

<path d="M1450 1994 c-148 -41 -371 -177 -451 -275 -60 -74 -76 -107 -25 -51 82 89 211 166 360 213 63 21 86 23 86 11 0 -4 -31 -16 -69 -25 -139 -36 -309 -138 -381 -229 -18 -24 -24 -35 -13 -25 52 45 133 75 373 137 188 49 272 86 300 132 25 41 25 69 2 98 -24 30 -105 36 -182 14z" transform="translate(0.000000,307.000000) scale(0.100000,-0.100000)" stroke="none" fill="#6AD7D8"/>

<path d="M1355 2242 c-72 -34 -187 -125 -271 -213 -58 -62 -164 -203 -164 -220 0 -5 35 27 77 72 111 116 249 215 341 243 41 13 23 -9 -24 -28 -110 -45 -270 -174 -355 -286 -51 -67 -73 -85 -49 -41 6 12 8 21 6 21 -9 0 -29 -44 -32 -67 -3 -31 7 -28 31 9 33 52 111 105 265 179 80 38 154 75 165 81 11 6 31 17 45 24 42 21 109 84 126 117 19 35 13 90 -12 118 -25 27 -79 24 -149 -9z m110 -81 c-12 -12 -65 -25 -65 -17 0 8 39 24 60 25 9 1 10 -2 5 -8z" transform="translate(0.000000,307.000000) scale(0.100000,-0.100000)" stroke="none" fill="#6AD7D8"/>

<path d="M814 1863 c8 -86 40 -288 55 -343 36 -128 54 -189 66 -215 7 -16 22 -53 33 -81 118 -300 332 -596 638 -884 110 -103 200 -174 180 -141 -4 5 3 11 15 13 18 2 -11 34 -155 168 -97 91 -172 166 -166 168 5 2 -19 36 -53 75 -34 40 -80 97 -102 127 -22 30 -42 57 -45 60 -13 11 -120 179 -153 240 -74 138 -127 251 -127 272 0 8 -4 18 -9 24 -16 17 -69 186 -96 304 -9 41 -23 103 -31 137 -8 34 -14 65 -13 70 1 4 1 25 0 46 -1 31 -5 37 -22 37 -20 0 -21 -3 -15 -77z" transform="translate(0.000000,307.000000) scale(0.100000,-0.100000)" stroke="none" fill="#1D2734"/>

<path d="M774 2893 c-59 -41 -57 -229 7 -483 15 -63 30 -128 32 -145 9 -70 6 62 -8 325 -8 151 -10 279 -6 283 10 10 20 -168 27 -449 l5 -211 -21 2 c-17 1 -29 17 -51 68 -65 146 -180 277 -245 277 -34 0 -74 -37 -74 -69 0 -38 30 -74 93 -110 55 -31 128 -100 93 -87 -16 6 -17 4 -5 -10 8 -10 15 -12 17 -5 7 21 32 11 72 -31 25 -25 39 -47 35 -56 -4 -12 -10 -10 -31 9 -14 13 -29 23 -32 22 -4 -2 -7 1 -7 6 0 5 -4 13 -9 18 -5 5 -6 3 -2 -4 12 -21 -4 -15 -45 18 -21 17 -39 29 -39 26 0 -10 38 -47 49 -47 6 0 11 -4 11 -10 0 -5 6 -10 14 -10 19 0 66 -57 65 -78 0 -11 -2 -12 -6 -4 -2 6 -11 12 -19 12 -8 0 -19 12 -25 28 -7 22 -55 62 -79 67 -3 0 -17 8 -31 18 -55 37 -151 68 -211 69 -79 1 -112 -22 -116 -81 -3 -37 1 -46 31 -74 46 -44 37 -67 -11 -32 l-37 27 28 -26 28 -25 -26 -7 c-14 -3 -25 -10 -25 -15 0 -6 8 -5 19 1 11 5 29 10 40 10 12 0 21 4 21 9 0 11 63 7 130 -7 25 -6 70 -13 101 -17 45 -5 58 -10 62 -26 5 -19 27 -27 27 -10 0 12 50 1 78 -17 12 -8 21 -20 19 -25 -5 -17 59 -68 77 -61 25 10 19 39 -19 88 -19 26 -37 60 -38 76 -2 17 -7 33 -10 37 -12 12 -7 19 15 20 13 1 18 -1 13 -5 -12 -9 -16 -44 -4 -36 5 3 9 -2 9 -10 0 -9 5 -16 10 -16 6 0 9 -3 8 -7 -3 -11 23 -56 28 -50 3 3 -4 21 -16 42 -22 38 -21 47 6 51 11 2 13 -4 9 -19 -5 -19 -5 -20 5 -4 11 17 5 41 -9 33 -4 -3 -15 8 -24 24 -11 18 -14 31 -7 35 6 3 13 -1 16 -9 3 -9 10 -13 15 -10 5 3 6 -2 3 -10 -3 -9 -2 -16 4 -16 6 0 13 6 15 13 3 6 6 2 6 -10 1 -12 5 -24 10 -27 9 -6 10 66 1 74 -3 3 0 57 6 120 34 320 37 364 26 435 -15 94 -57 145 -98 118z m-189 -453 c78 -54 197 -191 180 -208 -3 -4 -11 1 -16 11 -25 44 -112 137 -161 172 -70 50 -75 55 -59 55 7 0 32 -13 56 -30z m-81 -229 c96 -42 137 -66 200 -118 72 -58 99 -93 90 -116 -5 -15 -10 -13 -35 11 -16 15 -29 31 -29 36 0 5 11 -1 25 -14 14 -13 25 -19 25 -14 0 5 -40 39 -88 77 -48 37 -93 73 -101 79 -17 14 -121 57 -138 58 -7 0 -13 5 -13 10 0 6 -21 10 -46 10 -29 0 -43 4 -39 11 10 15 77 2 149 -30z m207 -18 c13 -16 12 -17 -3 -4 -10 7 -18 15 -18 17 0 8 8 3 21 -13z" transform="translate(0.000000,307.000000) scale(0.100000,-0.100000)" stroke="none" fill="#6AD7D8"/>

<path d="M95 1955 c7 -40 58 -82 108 -91 l41 -6 -39 -21 c-22 -11 -41 -24 -43 -28 -2 -5 -9 -9 -15 -9 -22 -1 -50 -52 -51 -95 -2 -72 71 -145 146 -145 l33 -1 -26 -23 c-103 -90 -73 -208 64 -250 17 -5 16 -8 -3 -45 -11 -22 -20 -59 -20 -82 0 -35 6 -48 40 -81 36 -36 44 -40 83 -37 l44 4 -5 -61 c-3 -44 0 -69 12 -93 30 -58 113 -75 171 -35 28 20 35 17 35 -15 0 -88 37 -141 100 -141 24 0 43 7 55 20 10 11 21 20 24 20 4 0 6 -26 6 -57 1 -81 26 -123 75 -123 78 0 107 60 121 248 11 162 15 178 35 161 11 -9 10 -4 -3 19 -17 30 -18 30 -32 10 -8 -12 -18 -67 -23 -142 -18 -221 -37 -270 -101 -264 -38 4 -50 38 -42 118 13 129 64 241 130 290 19 14 35 33 35 43 0 15 -3 16 -16 5 -32 -25 -109 -103 -122 -123 -10 -17 -11 -9 -6 50 11 146 35 214 70 201 9 -4 9 6 -4 40 -9 25 -18 40 -20 34 -2 -5 -14 -10 -27 -10 -40 0 -78 -19 -122 -63 -48 -46 -52 -41 -24 24 34 76 119 136 151 106 9 -9 9 -6 0 9 -7 12 -20 20 -29 18 -59 -11 -73 -17 -96 -42 -44 -45 -67 -100 -100 -232 -34 -137 -63 -185 -120 -196 -43 -8 -93 18 -101 52 -11 44 3 130 32 190 18 37 55 85 100 130 81 81 142 111 241 116 58 2 59 3 55 28 -3 14 -7 19 -9 13 -3 -8 -25 -13 -59 -13 -31 0 -64 -5 -75 -11 -11 -5 -28 -8 -37 -6 -27 7 77 50 123 51 38 1 41 3 36 26 -2 14 -6 19 -9 12 -2 -6 -8 -10 -13 -7 -5 4 -37 -2 -71 -11 -53 -15 -72 -28 -128 -83 -37 -36 -91 -102 -120 -146 -72 -109 -98 -135 -133 -135 -59 0 -96 35 -97 93 0 72 59 154 163 227 117 83 221 109 350 87 42 -7 47 -6 47 10 0 20 -11 22 -130 24 -46 1 -91 -5 -117 -14 -55 -21 -56 -4 -2 24 55 27 132 34 190 16 l45 -14 -10 61 c-6 34 -12 54 -14 45 -3 -15 -8 -15 -55 4 -44 18 -73 22 -180 22 -122 0 -127 0 -95 15 18 8 35 17 38 20 3 3 25 12 50 19 25 7 50 17 57 23 7 5 17 7 23 3 5 -3 10 0 10 7 0 10 2 10 9 -1 6 -9 18 -11 39 -6 20 4 41 1 63 -10 l32 -17 -6 38 c-4 22 -7 44 -7 50 0 15 -50 28 -62 16 -6 -6 5 -18 26 -30 36 -21 47 -42 23 -42 -7 0 -18 5 -24 11 -6 6 -40 12 -76 13 -52 2 -64 0 -60 -11 4 -10 -1 -13 -20 -9 -14 2 -27 0 -29 -5 -2 -6 -20 -11 -39 -12 -20 -1 -35 -6 -33 -12 2 -5 -52 -36 -119 -68 -151 -70 -191 -75 -242 -24 -19 19 -37 46 -41 61 -9 36 13 84 47 101 15 8 29 19 31 24 1 6 19 12 38 14 20 2 41 6 47 10 24 15 173 29 248 23 88 -8 185 -32 185 -47 0 -6 8 -5 20 1 11 6 20 14 20 19 0 14 -111 42 -213 55 -83 10 -96 13 -68 19 18 4 70 7 115 7 90 0 150 -21 199 -67 l27 -27 0 25 c0 16 -3 20 -8 11 -6 -9 -15 -5 -33 14 -13 14 -43 37 -66 50 -56 34 -174 35 -294 3 -47 -12 -117 -22 -160 -23 -65 -1 -80 2 -112 24 -20 14 -41 34 -47 45 -9 17 -10 16 -5 -10z m703 -349 c32 -10 52 -22 52 -32 0 -11 -6 -13 -27 -7 -16 4 -54 7 -85 7 -86 -2 -152 -39 -274 -155 -95 -90 -108 -99 -143 -99 -71 0 -126 70 -101 130 27 66 140 138 261 165 80 18 244 13 317 -9z m167 -396 c3 -6 -4 -14 -17 -19 -47 -18 -50 -28 -73 -226 -23 -201 -51 -251 -128 -231 -87 21 -49 287 59 405 41 46 63 61 109 72 43 10 43 10 50 -1z" transform="translate(0.000000,307.000000) scale(0.100000,-0.100000)" stroke="none" fill="#429D99"/>

<path d="M1134 2483 c-16 -21 -68 -78 -116 -128 -97 -100 -168 -187 -168 -205 0 -6 -4 -9 -9 -5 -6 3 -8 -26 -5 -76 5 -74 4 -81 -10 -70 -9 8 -16 20 -16 28 0 15 -54 98 -71 108 -20 13 5 -50 38 -93 36 -48 42 -76 17 -86 -18 -7 -82 44 -77 61 2 5 -7 17 -19 25 -28 18 -78 29 -78 17 0 -17 -22 -9 -27 10 -4 16 -17 21 -62 26 -31 4 -76 11 -101 17 -64 14 -130 18 -130 8 0 -4 -12 -10 -28 -13 -15 -3 -36 -8 -47 -10 -11 -3 -23 -6 -27 -6 -5 -1 -8 -5 -8 -11 0 -6 9 -6 24 0 13 5 33 6 45 3 13 -3 21 -1 21 7 0 7 7 10 15 7 8 -4 17 -2 20 3 4 6 15 5 28 -2 25 -14 21 -13 101 -22 33 -4 79 -15 103 -26 24 -10 43 -15 43 -9 0 14 59 -19 85 -47 12 -13 26 -24 31 -24 5 -1 29 -21 54 -45 l45 -45 3 30 c2 20 9 30 20 30 12 0 23 18 36 63 23 73 43 111 101 192 105 144 251 255 338 255 47 0 87 -40 87 -88 0 -49 -68 -113 -185 -175 -279 -147 -341 -203 -350 -317 l-4 -45 22 56 c12 31 31 67 42 80 40 48 185 150 185 131 0 -5 -16 -24 -36 -43 -50 -48 -138 -167 -166 -223 -18 -39 -24 -44 -30 -29 -5 11 -6 7 -2 -12 9 -49 19 -48 44 2 129 264 507 560 593 465 24 -26 32 -77 17 -112 -12 -29 -105 -120 -123 -120 -4 0 -19 -7 -33 -17 -14 -9 -85 -44 -158 -78 -148 -69 -240 -127 -280 -177 -14 -18 -30 -37 -34 -43 -8 -9 19 -142 33 -165 5 -7 14 -1 25 17 17 28 76 75 69 55 -2 -6 -23 -31 -46 -55 -38 -41 -41 -48 -33 -76 14 -48 20 -53 38 -31 17 20 126 50 182 50 20 -1 13 -7 -33 -32 -31 -17 -75 -50 -96 -74 -22 -23 -41 -41 -43 -41 -2 1 0 -2 4 -8 5 -5 8 -18 8 -30 0 -15 4 -11 18 15 55 110 274 200 487 200 151 0 206 -41 174 -127 -29 -74 -105 -96 -280 -81 -214 19 -323 13 -366 -20 l-23 -17 26 -55 c14 -30 32 -69 40 -86 l15 -30 60 9 c158 26 459 -61 459 -132 0 -34 -29 -61 -68 -61 l-37 -1 31 -27 c38 -33 46 -54 34 -86 -23 -62 -81 -57 -177 18 -109 84 -146 106 -175 106 -25 0 -27 -2 -16 -19 6 -10 16 -17 22 -15 6 2 27 -6 46 -18 33 -21 34 -23 12 -26 -13 -2 -31 2 -40 10 -12 10 -12 7 2 -12 14 -18 30 -26 60 -28 49 -3 163 -58 183 -89 13 -19 12 -24 -6 -42 -12 -12 -27 -21 -33 -21 -7 0 -37 26 -68 59 -51 54 -87 81 -107 81 -4 0 -3 -4 2 -8 6 -4 34 -39 62 -77 33 -45 59 -71 72 -72 12 -1 32 -3 46 -4 32 -2 65 27 65 57 0 16 10 29 31 39 43 23 65 77 46 114 -13 26 -12 30 15 60 35 40 37 79 3 111 l-25 24 29 27 c55 50 53 106 -5 163 l-36 35 40 16 c48 20 77 52 93 103 15 53 -8 103 -58 127 -33 16 -34 18 -17 28 36 19 73 60 79 88 12 56 -32 102 -115 120 -47 10 -52 13 -36 23 64 38 83 55 100 90 24 49 13 100 -27 130 -23 17 -42 21 -98 20 l-69 0 34 35 c45 47 63 106 46 155 -16 50 -55 79 -101 74 l-36 -3 1 62 c1 55 -2 66 -27 90 -49 50 -143 35 -257 -41 -48 -31 -46 -27 23 52 20 23 37 47 37 52 0 22 -29 8 -56 -27z m-202 -280 c-11 -15 -36 -57 -56 -93 -35 -61 -41 -50 -8 15 23 47 73 117 79 111 3 -3 -4 -17 -15 -33z m-272 -163 c0 -5 -4 -10 -10 -10 -5 0 -10 5 -10 10 0 6 5 10 10 10 6 0 10 -4 10 -10z m972 -60 c23 -29 23 -57 -2 -98 -28 -46 -112 -83 -300 -132 -273 -70 -348 -101 -387 -160 -22 -31 -23 -32 -23 -9 0 53 85 159 193 241 84 64 247 147 337 172 77 22 158 16 182 -14z m-663 -255 c-55 -68 -71 -78 -45 -27 13 26 79 92 92 92 2 0 -19 -29 -47 -65z m644 14 c77 -21 97 -70 48 -119 -41 -41 -111 -58 -326 -75 -228 -19 -299 -30 -343 -56 -18 -10 -35 -19 -38 -19 -10 0 -3 21 14 38 9 9 26 28 37 42 110 135 438 237 608 189z m-183 -440 c71 -11 155 -49 183 -81 26 -31 21 -70 -12 -102 -26 -25 -36 -28 -73 -24 -24 3 -100 33 -173 68 -121 59 -135 64 -200 64 -38 1 -78 -3 -87 -8 -13 -6 -18 -4 -18 6 0 16 79 55 150 74 57 16 146 17 230 3z m-364 -30 c-15 -12 -30 -18 -34 -14 -9 8 26 35 46 35 9 0 4 -8 -12 -21z m154 -79 c20 -5 44 -16 54 -23 15 -11 9 -13 -46 -12 -34 0 -82 -4 -105 -8 -37 -8 -42 -6 -48 14 -15 47 42 59 145 29z" transform="translate(0.000000,307.000000) scale(0.100000,-0.100000)" stroke="none" fill="#429D99"/>

</svg>