<?xml version="1.0" standalone="no"?>
<!DOCTYPE svg PUBLIC "-//W3C//DTD SVG 20010904//EN"
 "http://www.w3.org/TR/2001/REC-SVG-20010904/DTD/svg10.dtd">
<svg version="1.0" xmlns="http://www.w3.org/2000/svg" 
width="95.000000pt" height="214.000000pt" viewBox="0 0 95.000000 214.000000"
preserveAspectRatio = "xMidYMid meet" >
<metadata>
Created by ZoeQU, 2022
</metadata>
<rect width="95.000000" height="214.000000" fill="#FAFBFB"/>
<path d="M681 1884 c-17 -14 -44 -53 -60 -88 -17 -34 -52 -84 -78 -110 l-48 -49 49 6 c27 4 69 19 93 33 45 26 66 26 44 0 -15 -18 -95 -52 -143 -60 l-36 -7 -12 58 c-19 101 -42 197 -52 216 -10 20 -36 23 -44 3 -3 -7 2 -38 10 -67 9 -30 20 -79 26 -109 6 -30 13 -63 16 -72 9 -30 -28 -21 -132 32 -112 57 -151 67 -203 51 -37 -11 -61 -42 -61 -78 0 -17 44 -80 69 -99 11 -9 12 -17 3 -44 -18 -49 -15 -76 12 -107 20 -23 32 -28 68 -27 23 0 57 8 74 17 41 21 106 87 144 148 18 27 35 48 37 45 2 -2 18 -82 34 -178 28 -165 35 -238 24 -238 -3 0 -26 13 -52 29 -48 30 -73 28 -73 -7 0 -11 8 -13 35 -9 43 7 95 -25 106 -67 10 -38 51 -478 48 -519 -1 -18 1 -53 6 -79 4 -25 10 -118 14 -205 5 -131 9 -158 21 -158 17 0 19 99 10 430 -3 99 -1 188 4 198 6 12 4 17 -7 17 -17 0 -29 91 -20 160 3 25 2 41 -3 37 -5 -4 -16 52 -25 125 -15 124 -15 136 0 178 12 33 25 49 49 59 25 11 32 21 32 42 0 51 -28 43 -57 -16 -15 -30 -32 -56 -39 -59 -7 -3 -18 35 -33 118 -29 170 -35 158 54 130 80 -25 165 -31 226 -14 47 13 90 59 91 98 1 40 -16 60 -70 84 -34 15 -42 23 -36 36 4 9 9 34 12 55 9 77 -66 113 -127 61z m69 -174 c0 -5 -4 -10 -10 -10 -5 0 -10 5 -10 10 0 6 5 10 10 10 6 0 10 -4 10 -10z m-350 -109 c0 -16 -34 -23 -132 -29 -70 -3 -98 -1 -98 7 0 7 25 11 68 12 37 1 81 5 97 9 43 11 65 11 65 1z" transform="translate(0.000000,214.000000) scale(0.100000,-0.100000)" stroke="none" fill="#2F2E3A"/>

</svg>