<?xml version="1.0" standalone="no"?>
<!DOCTYPE svg PUBLIC "-//W3C//DTD SVG 20010904//EN"
 "http://www.w3.org/TR/2001/REC-SVG-20010904/DTD/svg10.dtd">
<svg version="1.0" xmlns="http://www.w3.org/2000/svg" 
width="124.000000pt" height="84.000000pt" viewBox="0 0 124.000000 84.000000"
preserveAspectRatio = "xMidYMid meet" >
<metadata>
Created by ZoeQU, 2022
</metadata>
<rect width="124.000000" height="84.000000" fill="#F9FAF9"/>
<path d="M969 388 c-64 -85 -203 -208 -236 -208 -7 0 -13 -4 -13 -10 0 -5 5 -10 11 -10 14 0 127 76 168 114 32 30 111 130 111 141 0 14 -20 2 -41 -27z" transform="translate(0.000000,84.000000) scale(0.100000,-0.100000)" stroke="none" fill="#6EADAA"/>

<path d="M160 608 c0 -17 26 -91 51 -145 11 -25 49 -74 84 -111 35 -37 74 -87 86 -112 12 -25 26 -53 31 -62 4 -10 8 -27 8 -38 0 -11 5 -20 10 -20 16 0 12 35 -12 97 -15 42 -39 77 -87 126 -62 65 -129 172 -131 209 0 23 -21 68 -32 68 -4 0 -8 -6 -8 -12z" transform="translate(0.000000,84.000000) scale(0.100000,-0.100000)" stroke="none" fill="#6EADAA"/>

<path d="M40 774 c0 -15 5 -56 11 -93 38 -230 92 -367 184 -469 44 -49 200 -162 223 -162 6 0 9 -7 6 -15 -7 -19 -4 -19 54 0 26 8 104 18 173 23 100 8 137 15 173 33 45 22 149 118 169 155 5 11 -20 -13 -56 -52 -89 -96 -132 -114 -302 -126 -71 -5 -143 -14 -158 -20 -32 -12 -45 -5 -28 16 9 11 8 15 -3 19 -9 4 -20 -1 -24 -10 -8 -14 -20 -9 -82 33 -147 98 -224 205 -274 376 -25 85 -60 288 -51 296 5 6 290 -216 361 -281 89 -81 120 -213 80 -342 -19 -59 -18 -58 -7 -51 5 4 11 1 13 -4 2 -6 21 9 43 32 l40 43 -37 -34 c-21 -19 -40 -32 -44 -28 -3 3 -1 22 6 42 16 50 16 170 0 220 -23 70 -58 110 -178 206 -64 51 -152 121 -195 156 -44 35 -83 63 -88 63 -5 0 -9 -12 -9 -26z" transform="translate(0.000000,84.000000) scale(0.100000,-0.100000)" stroke="none" fill="#6EADAA"/>

<path d="M1120 509 c-19 -5 -46 -11 -59 -13 -14 -3 -50 -10 -80 -17 -84 -16 -148 -39 -186 -64 -18 -13 -36 -21 -38 -18 -3 3 -35 -25 -71 -63 -44 -45 -65 -73 -61 -84 3 -10 -5 -26 -20 -40 -14 -13 -25 -28 -25 -33 0 -5 -22 -34 -50 -64 -63 -69 -66 -88 -8 -63 13 5 82 14 153 18 165 12 213 31 291 115 30 33 66 76 78 96 34 54 136 231 136 236 0 7 -18 5 -60 -6z m-110 -94 c0 -11 -79 -111 -111 -141 -41 -38 -154 -114 -168 -114 -6 0 -11 5 -11 10 0 6 6 10 13 10 33 0 172 123 236 208 21 29 41 41 41 27z m-310 -265 c0 -5 -9 -10 -19 -10 -11 0 -23 -4 -26 -10 -3 -5 -14 -10 -23 -10 -11 0 -7 6 13 19 34 22 55 26 55 11z" transform="translate(0.000000,84.000000) scale(0.100000,-0.100000)" stroke="none" fill="#227D78"/>

<path d="M56 738 c48 -350 124 -498 323 -632 69 -46 73 -47 86 -30 23 31 47 135 47 199 -1 91 -32 164 -96 222 -60 54 -350 283 -360 283 -3 0 -4 -19 0 -42z m132 -143 c7 -14 12 -34 12 -43 2 -37 69 -144 131 -209 48 -49 72 -84 87 -126 24 -62 28 -97 12 -97 -5 0 -10 9 -10 20 0 11 -4 28 -8 38 -5 9 -19 37 -31 62 -12 25 -51 75 -86 112 -35 37 -73 86 -84 111 -25 54 -51 128 -51 145 0 21 16 13 28 -13z" transform="translate(0.000000,84.000000) scale(0.100000,-0.100000)" stroke="none" fill="#227D78"/>

</svg>