<?xml version="1.0" standalone="no"?>
<!DOCTYPE svg PUBLIC "-//W3C//DTD SVG 20010904//EN"
 "http://www.w3.org/TR/2001/REC-SVG-20010904/DTD/svg10.dtd">
<svg version="1.0" xmlns="http://www.w3.org/2000/svg" 
width="96.000000pt" height="74.000000pt" viewBox="0 0 96.000000 74.000000"
preserveAspectRatio = "xMidYMid meet" >
<metadata>
Created by ZoeQU, 2022
</metadata>
<rect width="96.000000" height="74.000000" fill="#F9FAF9"/>
<path d="M310 451 c0 -11 5 -23 10 -26 17 -11 71 -125 86 -182 16 -60 19 -153 5 -153 -19 0 -148 149 -169 195 -52 115 -50 111 -57 94 -14 -35 58 -157 147 -250 83 -87 88 -89 188 -74 94 15 129 26 171 56 35 24 85 96 95 132 10 44 -20 33 -41 -14 -10 -22 -40 -59 -65 -82 -39 -35 -58 -44 -115 -55 -37 -7 -70 -10 -73 -7 -3 3 4 15 16 28 55 59 96 200 78 271 -12 48 -26 27 -26 -39 0 -60 -5 -80 -34 -145 -20 -47 -58 -100 -67 -94 -5 3 -7 9 -4 14 10 16 -25 165 -55 227 -49 105 -90 152 -90 104z" transform="translate(0.000000,74.000000) scale(0.100000,-0.100000)" stroke="none" fill="#819B8B"/>

<path d="M308 679 c-31 -18 -40 -80 -23 -160 14 -71 25 -98 25 -66 0 46 43 -4 90 -106 30 -62 65 -211 55 -227 -3 -5 -1 -11 4 -14 9 -6 47 47 67 94 29 65 34 85 34 145 0 66 14 87 26 39 18 -71 -23 -212 -78 -271 -12 -13 -19 -25 -16 -28 3 -3 36 0 73 7 57 11 76 20 115 55 25 23 55 60 65 82 21 47 51 58 41 14 -10 -36 -60 -108 -95 -132 -42 -30 -77 -41 -171 -56 -100 -15 -105 -13 -188 74 -89 93 -161 215 -147 250 7 17 5 21 57 -94 21 -46 150 -195 169 -195 14 0 11 93 -5 153 -14 52 -57 147 -79 175 -8 11 -13 9 -23 -9 -12 -23 -12 -23 -28 15 -9 21 -16 42 -16 47 0 5 -4 9 -10 9 -5 0 -10 6 -10 13 0 7 -15 29 -32 50 -41 46 -84 50 -123 12 -38 -39 -35 -105 10 -191 20 -38 39 -71 44 -74 4 -3 21 -26 39 -51 49 -73 119 -136 194 -174 68 -34 73 -35 158 -31 73 4 100 10 153 36 136 65 249 232 208 308 -15 28 -55 35 -94 18 -18 -8 -42 -17 -53 -21 -12 -3 -34 -17 -49 -31 -15 -14 -29 -23 -32 -20 -3 2 4 30 16 61 36 96 26 178 -25 202 -49 24 -88 4 -118 -59 -25 -53 -30 -53 -41 2 -9 46 -49 114 -81 139 -28 22 -78 27 -106 10z" transform="translate(0.000000,74.000000) scale(0.100000,-0.100000)" stroke="none" fill="#F6C0AF"/>

</svg>