<?xml version="1.0" standalone="no"?>
<!DOCTYPE svg PUBLIC "-//W3C//DTD SVG 20010904//EN"
 "http://www.w3.org/TR/2001/REC-SVG-20010904/DTD/svg10.dtd">
<svg version="1.0" xmlns="http://www.w3.org/2000/svg" 
width="58.000000pt" height="64.000000pt" viewBox="0 0 58.000000 64.000000"
preserveAspectRatio = "xMidYMid meet" >
<metadata>
Created by ZoeQU, 2022
</metadata>
<rect width="58.000000" height="64.000000" fill="#F9FAF9"/>
<path d="M257 143 c-4 -3 -7 -13 -7 -21 0 -22 -40 -72 -57 -72 -9 0 -22 8 -30 18 -13 15 -13 15 -3 -6 11 -22 36 -28 55 -14 15 10 41 54 47 80 6 23 5 26 -5 15z" transform="translate(0.000000,64.000000) scale(0.100000,-0.100000)" stroke="none" fill="#F4D0C5"/>

<path d="M146 172 c-17 -52 -80 -66 -89 -19 l-4 22 -2 -23 c-1 -30 37 -49 68 -32 21 11 47 58 37 67 -2 3 -7 -4 -10 -15z" transform="translate(0.000000,64.000000) scale(0.100000,-0.100000)" stroke="none" fill="#F8E6DE"/>

<path d="M160 383 c-39 -44 -80 -112 -80 -130 0 -4 12 12 25 36 14 24 44 66 66 92 52 63 44 64 -11 2z" transform="translate(0.000000,64.000000) scale(0.100000,-0.100000)" stroke="none" fill="#F8E6DE"/>

<path d="M547 158 c4 -34 1 -47 -12 -58 -16 -13 -21 -11 -46 20 -16 19 -29 30 -29 25 0 -16 49 -65 65 -65 29 0 47 76 26 109 -6 8 -7 -3 -4 -31z" transform="translate(0.000000,64.000000) scale(0.100000,-0.100000)" stroke="none" fill="#F8E6DE"/>

<path d="M265 138 c-23 -80 -73 -121 -102 -83 -7 11 -13 14 -13 9 0 -17 23 -34 46 -34 28 0 69 52 77 98 7 37 2 43 -8 10z" transform="translate(0.000000,64.000000) scale(0.100000,-0.100000)" stroke="none" fill="#F8E6DE"/>

<path d="M275 520 c-3 -5 -33 -7 -68 -4 -36 4 -72 1 -87 -5 -22 -10 -21 -11 13 -6 51 8 110 -4 103 -21 -3 -8 0 -11 10 -7 8 3 13 8 10 10 -3 3 5 14 17 24 12 10 19 18 15 19 -4 0 -9 -4 -13 -10z" transform="translate(0.000000,64.000000) scale(0.100000,-0.100000)" stroke="none" fill="#F4D0C5"/>

<path d="M28 455 c-26 -57 47 -73 133 -29 28 14 49 27 47 29 -2 3 -26 -7 -53 -20 -81 -42 -143 -27 -115 26 6 10 8 19 5 19 -3 0 -10 -11 -17 -25z" transform="translate(0.000000,64.000000) scale(0.100000,-0.100000)" stroke="none" fill="#F8E6DE"/>

<path d="M56 475 c-17 -16 -26 -32 -22 -41 3 -9 6 -18 6 -20 0 -2 15 -4 33 -4 32 0 167 59 136 60 -10 0 -37 -11 -60 -25 -44 -25 -93 -33 -103 -16 -9 14 4 41 19 41 7 0 15 7 19 15 8 21 3 19 -28 -10z" transform="translate(0.000000,64.000000) scale(0.100000,-0.100000)" stroke="none" fill="#F4D0C5"/>

<path d="M421 307 c-3 -28 46 -161 69 -189 24 -28 30 -31 44 -19 10 8 16 27 15 50 -1 20 -3 27 -6 16 -14 -68 -13 -66 -32 -55 -21 11 -24 16 -62 125 -15 44 -28 76 -28 72z" transform="translate(0.000000,64.000000) scale(0.100000,-0.100000)" stroke="none" fill="#F4D0C5"/>

<path d="M416 432 c-6 -11 48 -127 69 -148 9 -9 22 -29 31 -46 8 -16 18 -28 20 -25 3 3 -7 24 -23 47 -76 114 -87 142 -58 154 8 3 15 11 15 18 0 10 -3 9 -9 -1 -8 -12 -12 -12 -24 -2 -9 6 -18 8 -21 3z" transform="translate(0.000000,64.000000) scale(0.100000,-0.100000)" stroke="none" fill="#F8E6DE"/>

<path d="M397 313 c3 -27 11 -63 20 -81 8 -18 17 -49 20 -69 5 -27 8 -31 15 -20 11 20 -21 139 -35 130 -6 -3 -7 -1 -3 5 8 14 -3 82 -14 82 -4 0 -5 -21 -3 -47z" transform="translate(0.000000,64.000000) scale(0.100000,-0.100000)" stroke="none" fill="#F8E6DE"/>

<path d="M221 333 c-22 -26 -41 -52 -41 -57 0 -6 14 9 31 32 17 23 33 42 35 42 7 0 -7 -52 -21 -80 -6 -14 -26 -53 -43 -86 -18 -34 -31 -72 -31 -85 1 -20 2 -21 6 -4 8 36 26 79 52 120 23 38 64 155 57 162 -2 2 -22 -18 -45 -44z" transform="translate(0.000000,64.000000) scale(0.100000,-0.100000)" stroke="none" fill="#F8E6DE"/>

<path d="M325 379 c-4 -19 -3 -34 4 -38 6 -4 14 -66 18 -152 8 -141 9 -144 31 -147 26 -4 62 23 62 46 0 9 -8 5 -21 -12 -11 -14 -29 -26 -40 -26 -17 0 -19 8 -20 83 0 45 -4 117 -7 159 -4 43 -4 87 0 98 5 14 3 20 -7 20 -7 0 -16 -14 -20 -31z" transform="translate(0.000000,64.000000) scale(0.100000,-0.100000)" stroke="none" fill="#F8E6DE"/>

<path d="M409 433 c-1 -5 -1 -20 -1 -35 -1 -18 -6 -28 -15 -28 -12 0 -13 -11 -7 -57 3 -32 13 -70 20 -85 25 -48 29 -112 9 -142 -32 -49 -44 -34 -48 62 l-3 87 -2 -92 c-2 -86 -1 -93 17 -93 11 0 29 12 41 28 25 31 24 93 -2 152 -18 39 -30 130 -17 130 4 0 10 -10 12 -22 4 -19 4 -18 6 5 0 16 5 25 11 22 5 -3 3 10 -5 28 -8 19 -11 37 -8 41 4 3 3 6 0 6 -4 0 -7 -3 -8 -7z" transform="translate(0.000000,64.000000) scale(0.100000,-0.100000)" stroke="none" fill="#F4D0C5"/>

<path d="M117 503 c-16 -2 -31 -11 -34 -19 -3 -8 -11 -14 -18 -14 -15 0 -28 -27 -19 -41 10 -17 59 -9 103 16 23 14 51 25 61 25 18 0 36 17 28 26 -8 7 -91 12 -121 7z" transform="translate(0.000000,64.000000) scale(0.100000,-0.100000)" stroke="none" fill="#F8BCA9"/>

<path d="M420 348 c0 -27 44 -167 65 -207 17 -34 41 -46 49 -25 14 36 4 74 -34 128 -22 31 -47 73 -55 92 -16 39 -25 44 -25 12z" transform="translate(0.000000,64.000000) scale(0.100000,-0.100000)" stroke="none" fill="#F8BCA9"/>

<path d="M371 411 c-13 -24 -15 -111 -6 -248 8 -110 18 -126 50 -77 20 30 16 94 -9 142 -7 15 -17 53 -20 85 -6 46 -5 57 7 57 9 0 14 10 13 27 -1 33 -21 41 -35 14z" transform="translate(0.000000,64.000000) scale(0.100000,-0.100000)" stroke="none" fill="#F8BCA9"/>

<path d="M374 571 c-42 -23 -94 -67 -94 -80 0 -17 52 -51 79 -51 14 0 41 9 59 20 26 16 32 26 32 53 0 31 -23 78 -38 76 -4 0 -21 -8 -38 -18z" transform="translate(0.000000,64.000000) scale(0.100000,-0.100000)" stroke="none" fill="#0D5B54"/>

<path d="M256 445 c-8 -8 -19 -15 -24 -15 -11 0 -84 -85 -97 -114 -5 -11 -15 -27 -22 -34 -16 -17 -46 -121 -39 -138 3 -8 12 -14 21 -14 17 0 55 56 55 82 0 29 37 102 66 131 23 24 26 30 14 39 -12 8 -12 9 2 4 11 -3 21 2 28 14 5 10 17 25 25 33 13 13 13 16 0 21 -8 3 -21 -1 -29 -9z" transform="translate(0.000000,64.000000) scale(0.100000,-0.100000)" stroke="none" fill="#F8BCA9"/>

<path d="M292 403 c-5 -10 -20 -52 -33 -93 -12 -41 -33 -88 -45 -105 -27 -37 -56 -119 -48 -140 10 -24 41 -17 63 14 12 16 21 34 21 40 0 6 4 19 9 29 9 17 61 240 61 261 0 17 -18 13 -28 -6z" transform="translate(0.000000,64.000000) scale(0.100000,-0.100000)" stroke="none" fill="#F8BCA9"/>

<path d="M267 410 c-12 -20 -23 -27 -35 -24 -14 5 -14 4 -2 -4 12 -9 9 -15 -14 -39 -29 -29 -66 -102 -66 -131 0 -26 -38 -82 -55 -82 -9 0 -18 6 -21 14 -7 18 23 122 40 139 8 7 16 22 20 32 3 11 18 34 33 50 16 17 34 39 42 50 7 11 -6 0 -28 -25 -53 -57 -87 -113 -106 -176 -20 -66 -19 -81 7 -90 31 -9 63 31 83 104 11 38 31 75 57 106 22 26 42 45 44 44 2 -2 -3 -26 -11 -53 -8 -26 -13 -50 -11 -52 4 -5 50 138 48 149 -1 4 5 5 13 2 20 -8 19 -11 -10 -132 -14 -57 -25 -111 -24 -120 1 -24 4 -13 35 121 18 77 31 117 40 117 10 0 11 -6 5 -22 -5 -13 -5 -32 0 -43 6 -16 8 -14 8 12 1 17 4 38 7 46 4 11 -5 19 -33 26 -50 14 -46 15 -66 -19z" transform="translate(0.000000,64.000000) scale(0.100000,-0.100000)" stroke="none" fill="#F4D0C5"/>

</svg>