<?xml version="1.0" standalone="no"?>
<!DOCTYPE svg PUBLIC "-//W3C//DTD SVG 20010904//EN"
 "http://www.w3.org/TR/2001/REC-SVG-20010904/DTD/svg10.dtd">
<svg version="1.0" xmlns="http://www.w3.org/2000/svg" width="344pt" height="424pt" viewBox="0 0 344 424" preserveAspectRatio = "xMidYMid meet" >
<metadata>
Created by ZoeQu, written in 2022
</metadata>
<rect width="344" height="424" fill="#FA8D1C"/>
<g id="row0" transform="translate(11,0.0)">
<g id="0" transform="translate(0.0,0)scale(1,1)">

<path d="M480 454 c0 -11 5 -26 11 -34 8 -12 9 -9 5 13 -8 35 1 34 79 -4 69 -34 121 -80 113 -101 -7 -18 -138 -89 -157 -86 -9 2 -16 14 -17 28 0 14 -6 36 -12 50 -12 24 -12 24 -7 -9 3 -18 5 -42 5 -52 0 -37 44 -34 125 11 60 33 75 46 75 65 0 40 -107 115 -188 131 -27 5 -32 4 -32 -12z" transform="translate(0,106) scale(0.1,-0.1)" stroke="none" fill="#38999E"/>

<path d="M482 838 c-5 -7 -9 -38 -9 -68 1 -39 -5 -68 -21 -98 -12 -23 -22 -45 -22 -47 0 -19 125 8 154 33 10 10 19 15 21 12 5 -11 85 71 85 87 0 12 -25 30 -78 56 -82 39 -113 45 -130 25z m120 -35 c43 -21 78 -42 78 -46 0 -15 -67 -77 -83 -77 -8 0 -17 -6 -20 -14 -6 -14 -114 -43 -124 -33 -2 3 3 20 13 39 10 19 18 60 19 98 1 36 3 66 4 68 6 10 48 -3 113 -35z" transform="translate(0,106) scale(0.1,-0.1)" stroke="none" fill="#38999E"/>

<path d="M135 910 c-3 -5 1 -22 9 -37 8 -16 27 -54 42 -86 21 -44 41 -68 87 -103 38 -30 63 -42 69 -36 6 6 7 43 1 98 -8 85 -9 89 -33 92 -41 5 -80 24 -91 43 -5 11 -18 19 -29 19 -10 0 -22 5 -25 10 -8 13 -22 13 -30 0z m55 -25 c17 -9 30 -20 30 -25 0 -5 24 -16 54 -25 l53 -16 8 -80 c3 -45 4 -83 1 -87 -3 -3 -32 17 -63 45 -42 36 -63 65 -79 104 -12 29 -27 55 -33 57 -11 4 -16 42 -6 42 4 0 19 -7 35 -15z" transform="translate(0,106) scale(0.1,-0.1)" stroke="none" fill="#38999E"/>

<path d="M329 415 c-67 -35 -112 -90 -139 -172 -23 -70 -22 -109 3 -101 6 3 14 18 17 34 4 21 15 34 40 46 21 11 28 18 17 18 -30 0 -67 -31 -67 -56 0 -13 -5 -24 -11 -24 -13 0 -9 22 22 109 18 51 32 71 71 102 49 39 85 55 95 45 4 -3 -1 -33 -10 -66 -10 -33 -17 -69 -17 -80 0 -15 -8 -22 -30 -27 -17 -3 -29 -8 -26 -10 2 -3 18 -2 34 2 25 5 31 12 35 43 3 20 10 55 17 77 28 98 27 101 -51 60z" transform="translate(0,106) scale(0.1,-0.1)" stroke="none" fill="#38999E"/>

<path d="M71 993 c-29 -23 -44 -92 -32 -140 6 -21 14 -54 19 -73 11 -45 27 -75 64 -122 23 -29 26 -38 14 -38 -26 0 -18 -17 22 -46 20 -16 41 -31 45 -35 9 -7 -57 -79 -72 -79 -5 0 -12 -7 -15 -16 -5 -13 -2 -15 14 -11 21 5 28 -7 10 -18 -23 -15 -78 -146 -70 -170 2 -5 2 -39 1 -75 -2 -61 0 -67 29 -95 l31 -30 62 33 c53 27 74 32 131 32 37 0 76 4 86 10 12 7 38 5 82 -6 l65 -16 79 39 c93 45 169 96 178 118 3 8 1 38 -4 65 -12 63 -69 135 -120 151 -19 6 -39 15 -45 19 -5 4 -29 11 -52 15 -52 8 -57 25 -8 25 37 0 42 9 25 41 -8 14 -7 19 3 19 25 0 75 30 126 76 114 103 69 204 -127 279 l-97 38 -60 -21 c-38 -13 -64 -17 -70 -11 -5 5 -22 9 -38 9 -16 0 -47 5 -68 12 -31 9 -44 8 -63 -2 -21 -11 -28 -10 -54 9 -17 11 -36 21 -44 21 -7 0 -4 -5 7 -12 11 -6 30 -20 42 -30 20 -19 22 -19 47 -3 21 14 31 15 57 6 18 -6 45 -11 60 -11 15 0 39 -5 52 -11 19 -9 31 -7 58 6 49 26 99 22 174 -14 37 -17 73 -31 79 -31 7 0 30 -18 51 -40 36 -37 40 -46 39 -91 0 -45 -4 -52 -44 -87 -59 -51 -111 -82 -137 -82 -26 0 -30 -12 -8 -30 26 -21 17 -30 -32 -30 -27 0 -56 -7 -65 -14 -23 -17 -23 -30 -2 -22 26 10 133 -15 185 -43 55 -31 119 -103 119 -136 0 -13 3 -31 6 -39 9 -24 -56 -79 -148 -126 -84 -43 -134 -50 -195 -28 -27 10 -38 10 -54 0 -13 -8 -49 -12 -99 -11 -69 2 -83 0 -102 -18 -13 -12 -35 -26 -49 -32 -21 -8 -30 -5 -51 14 -23 22 -25 28 -23 122 1 88 5 104 30 148 16 28 35 58 43 67 8 10 12 24 9 31 -3 8 8 29 26 47 l31 32 -24 20 c-20 16 -21 21 -9 28 11 7 5 19 -32 57 -54 56 -75 92 -100 180 -22 77 -16 128 19 166 29 31 25 36 -7 10z" transform="translate(0,106) scale(0.1,-0.1)" stroke="none" fill="#38999E"/>

<path d="M73 978 c-30 -34 -35 -88 -14 -161 25 -88 46 -124 100 -180 37 -38 43 -50 32 -57 -12 -7 -11 -12 10 -29 21 -18 22 -23 9 -34 -24 -21 -66 -71 -53 -63 15 8 18 -20 4 -28 -5 -3 -24 -32 -42 -64 -30 -53 -32 -64 -34 -156 -2 -93 0 -99 23 -121 21 -19 30 -22 51 -14 14 6 36 20 49 32 19 18 33 20 102 18 50 -1 86 3 99 11 16 10 27 10 54 0 61 -22 111 -15 195 28 92 47 157 102 148 126 -3 8 -6 26 -6 39 0 33 -64 105 -119 136 -52 28 -159 53 -185 43 -21 -8 -21 5 2 22 9 7 38 14 65 14 49 0 58 9 32 30 -22 18 -18 30 8 30 26 0 78 31 137 82 40 35 44 42 44 87 1 45 -3 54 -39 91 -21 22 -44 40 -51 40 -6 0 -42 14 -79 31 -75 36 -125 40 -174 14 -27 -13 -39 -15 -58 -6 -13 6 -37 11 -52 11 -15 0 -42 5 -60 11 -26 9 -36 8 -57 -6 -25 -16 -27 -16 -47 3 -20 18 -60 42 -70 42 -2 0 -13 -10 -24 -22z m92 -68 c3 -5 15 -10 25 -10 11 0 24 -8 29 -19 11 -19 50 -38 91 -43 24 -3 25 -7 33 -92 6 -55 5 -92 -1 -98 -6 -6 -31 6 -69 36 -46 35 -66 59 -87 103 -15 32 -34 70 -42 86 -15 26 -12 47 6 47 5 0 12 -4 15 -10z m447 -97 c53 -26 78 -44 78 -56 0 -16 -80 -98 -85 -87 -2 3 -11 -2 -21 -12 -29 -25 -154 -52 -154 -33 0 2 10 24 22 47 16 30 22 59 21 98 -1 93 20 100 139 43z m-202 -223 c0 -5 -7 -10 -15 -10 -8 0 -15 5 -15 10 0 6 7 10 15 10 8 0 15 -4 15 -10z m175 -150 c63 -31 115 -78 115 -105 0 -19 -15 -32 -75 -65 -55 -30 -83 -40 -100 -36 -26 7 -25 3 -30 126 -1 30 -6 68 -10 84 -8 29 -7 29 26 22 18 -3 52 -15 74 -26z m-188 -22 c-3 -13 -11 -41 -17 -63 -7 -22 -14 -57 -17 -77 -5 -38 -17 -45 -81 -46 -36 -1 -70 -28 -74 -59 -2 -14 -9 -28 -15 -31 -25 -8 -26 31 -3 101 27 82 72 137 139 172 59 31 75 32 68 3z" transform="translate(0,106) scale(0.1,-0.1)" stroke="none" fill="#E5E3DF"/>

</g>

<g id="1" transform="translate(86.0,0)scale(1,1)">

<path d="M480 454 c0 -11 5 -26 11 -34 8 -12 9 -9 5 13 -8 35 1 34 79 -4 69 -34 121 -80 113 -101 -7 -18 -138 -89 -157 -86 -9 2 -16 14 -17 28 0 14 -6 36 -12 50 -12 24 -12 24 -7 -9 3 -18 5 -42 5 -52 0 -37 44 -34 125 11 60 33 75 46 75 65 0 40 -107 115 -188 131 -27 5 -32 4 -32 -12z" transform="translate(0,106) scale(0.1,-0.1)" stroke="none" fill="#38999E"/>

<path d="M482 838 c-5 -7 -9 -38 -9 -68 1 -39 -5 -68 -21 -98 -12 -23 -22 -45 -22 -47 0 -19 125 8 154 33 10 10 19 15 21 12 5 -11 85 71 85 87 0 12 -25 30 -78 56 -82 39 -113 45 -130 25z m120 -35 c43 -21 78 -42 78 -46 0 -15 -67 -77 -83 -77 -8 0 -17 -6 -20 -14 -6 -14 -114 -43 -124 -33 -2 3 3 20 13 39 10 19 18 60 19 98 1 36 3 66 4 68 6 10 48 -3 113 -35z" transform="translate(0,106) scale(0.1,-0.1)" stroke="none" fill="#38999E"/>

<path d="M135 910 c-3 -5 1 -22 9 -37 8 -16 27 -54 42 -86 21 -44 41 -68 87 -103 38 -30 63 -42 69 -36 6 6 7 43 1 98 -8 85 -9 89 -33 92 -41 5 -80 24 -91 43 -5 11 -18 19 -29 19 -10 0 -22 5 -25 10 -8 13 -22 13 -30 0z m55 -25 c17 -9 30 -20 30 -25 0 -5 24 -16 54 -25 l53 -16 8 -80 c3 -45 4 -83 1 -87 -3 -3 -32 17 -63 45 -42 36 -63 65 -79 104 -12 29 -27 55 -33 57 -11 4 -16 42 -6 42 4 0 19 -7 35 -15z" transform="translate(0,106) scale(0.1,-0.1)" stroke="none" fill="#38999E"/>

<path d="M329 415 c-67 -35 -112 -90 -139 -172 -23 -70 -22 -109 3 -101 6 3 14 18 17 34 4 21 15 34 40 46 21 11 28 18 17 18 -30 0 -67 -31 -67 -56 0 -13 -5 -24 -11 -24 -13 0 -9 22 22 109 18 51 32 71 71 102 49 39 85 55 95 45 4 -3 -1 -33 -10 -66 -10 -33 -17 -69 -17 -80 0 -15 -8 -22 -30 -27 -17 -3 -29 -8 -26 -10 2 -3 18 -2 34 2 25 5 31 12 35 43 3 20 10 55 17 77 28 98 27 101 -51 60z" transform="translate(0,106) scale(0.1,-0.1)" stroke="none" fill="#38999E"/>

<path d="M71 993 c-29 -23 -44 -92 -32 -140 6 -21 14 -54 19 -73 11 -45 27 -75 64 -122 23 -29 26 -38 14 -38 -26 0 -18 -17 22 -46 20 -16 41 -31 45 -35 9 -7 -57 -79 -72 -79 -5 0 -12 -7 -15 -16 -5 -13 -2 -15 14 -11 21 5 28 -7 10 -18 -23 -15 -78 -146 -70 -170 2 -5 2 -39 1 -75 -2 -61 0 -67 29 -95 l31 -30 62 33 c53 27 74 32 131 32 37 0 76 4 86 10 12 7 38 5 82 -6 l65 -16 79 39 c93 45 169 96 178 118 3 8 1 38 -4 65 -12 63 -69 135 -120 151 -19 6 -39 15 -45 19 -5 4 -29 11 -52 15 -52 8 -57 25 -8 25 37 0 42 9 25 41 -8 14 -7 19 3 19 25 0 75 30 126 76 114 103 69 204 -127 279 l-97 38 -60 -21 c-38 -13 -64 -17 -70 -11 -5 5 -22 9 -38 9 -16 0 -47 5 -68 12 -31 9 -44 8 -63 -2 -21 -11 -28 -10 -54 9 -17 11 -36 21 -44 21 -7 0 -4 -5 7 -12 11 -6 30 -20 42 -30 20 -19 22 -19 47 -3 21 14 31 15 57 6 18 -6 45 -11 60 -11 15 0 39 -5 52 -11 19 -9 31 -7 58 6 49 26 99 22 174 -14 37 -17 73 -31 79 -31 7 0 30 -18 51 -40 36 -37 40 -46 39 -91 0 -45 -4 -52 -44 -87 -59 -51 -111 -82 -137 -82 -26 0 -30 -12 -8 -30 26 -21 17 -30 -32 -30 -27 0 -56 -7 -65 -14 -23 -17 -23 -30 -2 -22 26 10 133 -15 185 -43 55 -31 119 -103 119 -136 0 -13 3 -31 6 -39 9 -24 -56 -79 -148 -126 -84 -43 -134 -50 -195 -28 -27 10 -38 10 -54 0 -13 -8 -49 -12 -99 -11 -69 2 -83 0 -102 -18 -13 -12 -35 -26 -49 -32 -21 -8 -30 -5 -51 14 -23 22 -25 28 -23 122 1 88 5 104 30 148 16 28 35 58 43 67 8 10 12 24 9 31 -3 8 8 29 26 47 l31 32 -24 20 c-20 16 -21 21 -9 28 11 7 5 19 -32 57 -54 56 -75 92 -100 180 -22 77 -16 128 19 166 29 31 25 36 -7 10z" transform="translate(0,106) scale(0.1,-0.1)" stroke="none" fill="#38999E"/>

<path d="M73 978 c-30 -34 -35 -88 -14 -161 25 -88 46 -124 100 -180 37 -38 43 -50 32 -57 -12 -7 -11 -12 10 -29 21 -18 22 -23 9 -34 -24 -21 -66 -71 -53 -63 15 8 18 -20 4 -28 -5 -3 -24 -32 -42 -64 -30 -53 -32 -64 -34 -156 -2 -93 0 -99 23 -121 21 -19 30 -22 51 -14 14 6 36 20 49 32 19 18 33 20 102 18 50 -1 86 3 99 11 16 10 27 10 54 0 61 -22 111 -15 195 28 92 47 157 102 148 126 -3 8 -6 26 -6 39 0 33 -64 105 -119 136 -52 28 -159 53 -185 43 -21 -8 -21 5 2 22 9 7 38 14 65 14 49 0 58 9 32 30 -22 18 -18 30 8 30 26 0 78 31 137 82 40 35 44 42 44 87 1 45 -3 54 -39 91 -21 22 -44 40 -51 40 -6 0 -42 14 -79 31 -75 36 -125 40 -174 14 -27 -13 -39 -15 -58 -6 -13 6 -37 11 -52 11 -15 0 -42 5 -60 11 -26 9 -36 8 -57 -6 -25 -16 -27 -16 -47 3 -20 18 -60 42 -70 42 -2 0 -13 -10 -24 -22z m92 -68 c3 -5 15 -10 25 -10 11 0 24 -8 29 -19 11 -19 50 -38 91 -43 24 -3 25 -7 33 -92 6 -55 5 -92 -1 -98 -6 -6 -31 6 -69 36 -46 35 -66 59 -87 103 -15 32 -34 70 -42 86 -15 26 -12 47 6 47 5 0 12 -4 15 -10z m447 -97 c53 -26 78 -44 78 -56 0 -16 -80 -98 -85 -87 -2 3 -11 -2 -21 -12 -29 -25 -154 -52 -154 -33 0 2 10 24 22 47 16 30 22 59 21 98 -1 93 20 100 139 43z m-202 -223 c0 -5 -7 -10 -15 -10 -8 0 -15 5 -15 10 0 6 7 10 15 10 8 0 15 -4 15 -10z m175 -150 c63 -31 115 -78 115 -105 0 -19 -15 -32 -75 -65 -55 -30 -83 -40 -100 -36 -26 7 -25 3 -30 126 -1 30 -6 68 -10 84 -8 29 -7 29 26 22 18 -3 52 -15 74 -26z m-188 -22 c-3 -13 -11 -41 -17 -63 -7 -22 -14 -57 -17 -77 -5 -38 -17 -45 -81 -46 -36 -1 -70 -28 -74 -59 -2 -14 -9 -28 -15 -31 -25 -8 -26 31 -3 101 27 82 72 137 139 172 59 31 75 32 68 3z" transform="translate(0,106) scale(0.1,-0.1)" stroke="none" fill="#E5E3DF"/>

</g>

<g id="2" transform="translate(172.0,0)scale(1,1)">

<path d="M480 454 c0 -11 5 -26 11 -34 8 -12 9 -9 5 13 -8 35 1 34 79 -4 69 -34 121 -80 113 -101 -7 -18 -138 -89 -157 -86 -9 2 -16 14 -17 28 0 14 -6 36 -12 50 -12 24 -12 24 -7 -9 3 -18 5 -42 5 -52 0 -37 44 -34 125 11 60 33 75 46 75 65 0 40 -107 115 -188 131 -27 5 -32 4 -32 -12z" transform="translate(0,106) scale(0.1,-0.1)" stroke="none" fill="#38999E"/>

<path d="M482 838 c-5 -7 -9 -38 -9 -68 1 -39 -5 -68 -21 -98 -12 -23 -22 -45 -22 -47 0 -19 125 8 154 33 10 10 19 15 21 12 5 -11 85 71 85 87 0 12 -25 30 -78 56 -82 39 -113 45 -130 25z m120 -35 c43 -21 78 -42 78 -46 0 -15 -67 -77 -83 -77 -8 0 -17 -6 -20 -14 -6 -14 -114 -43 -124 -33 -2 3 3 20 13 39 10 19 18 60 19 98 1 36 3 66 4 68 6 10 48 -3 113 -35z" transform="translate(0,106) scale(0.1,-0.1)" stroke="none" fill="#38999E"/>

<path d="M135 910 c-3 -5 1 -22 9 -37 8 -16 27 -54 42 -86 21 -44 41 -68 87 -103 38 -30 63 -42 69 -36 6 6 7 43 1 98 -8 85 -9 89 -33 92 -41 5 -80 24 -91 43 -5 11 -18 19 -29 19 -10 0 -22 5 -25 10 -8 13 -22 13 -30 0z m55 -25 c17 -9 30 -20 30 -25 0 -5 24 -16 54 -25 l53 -16 8 -80 c3 -45 4 -83 1 -87 -3 -3 -32 17 -63 45 -42 36 -63 65 -79 104 -12 29 -27 55 -33 57 -11 4 -16 42 -6 42 4 0 19 -7 35 -15z" transform="translate(0,106) scale(0.1,-0.1)" stroke="none" fill="#38999E"/>

<path d="M329 415 c-67 -35 -112 -90 -139 -172 -23 -70 -22 -109 3 -101 6 3 14 18 17 34 4 21 15 34 40 46 21 11 28 18 17 18 -30 0 -67 -31 -67 -56 0 -13 -5 -24 -11 -24 -13 0 -9 22 22 109 18 51 32 71 71 102 49 39 85 55 95 45 4 -3 -1 -33 -10 -66 -10 -33 -17 -69 -17 -80 0 -15 -8 -22 -30 -27 -17 -3 -29 -8 -26 -10 2 -3 18 -2 34 2 25 5 31 12 35 43 3 20 10 55 17 77 28 98 27 101 -51 60z" transform="translate(0,106) scale(0.1,-0.1)" stroke="none" fill="#38999E"/>

<path d="M71 993 c-29 -23 -44 -92 -32 -140 6 -21 14 -54 19 -73 11 -45 27 -75 64 -122 23 -29 26 -38 14 -38 -26 0 -18 -17 22 -46 20 -16 41 -31 45 -35 9 -7 -57 -79 -72 -79 -5 0 -12 -7 -15 -16 -5 -13 -2 -15 14 -11 21 5 28 -7 10 -18 -23 -15 -78 -146 -70 -170 2 -5 2 -39 1 -75 -2 -61 0 -67 29 -95 l31 -30 62 33 c53 27 74 32 131 32 37 0 76 4 86 10 12 7 38 5 82 -6 l65 -16 79 39 c93 45 169 96 178 118 3 8 1 38 -4 65 -12 63 -69 135 -120 151 -19 6 -39 15 -45 19 -5 4 -29 11 -52 15 -52 8 -57 25 -8 25 37 0 42 9 25 41 -8 14 -7 19 3 19 25 0 75 30 126 76 114 103 69 204 -127 279 l-97 38 -60 -21 c-38 -13 -64 -17 -70 -11 -5 5 -22 9 -38 9 -16 0 -47 5 -68 12 -31 9 -44 8 -63 -2 -21 -11 -28 -10 -54 9 -17 11 -36 21 -44 21 -7 0 -4 -5 7 -12 11 -6 30 -20 42 -30 20 -19 22 -19 47 -3 21 14 31 15 57 6 18 -6 45 -11 60 -11 15 0 39 -5 52 -11 19 -9 31 -7 58 6 49 26 99 22 174 -14 37 -17 73 -31 79 -31 7 0 30 -18 51 -40 36 -37 40 -46 39 -91 0 -45 -4 -52 -44 -87 -59 -51 -111 -82 -137 -82 -26 0 -30 -12 -8 -30 26 -21 17 -30 -32 -30 -27 0 -56 -7 -65 -14 -23 -17 -23 -30 -2 -22 26 10 133 -15 185 -43 55 -31 119 -103 119 -136 0 -13 3 -31 6 -39 9 -24 -56 -79 -148 -126 -84 -43 -134 -50 -195 -28 -27 10 -38 10 -54 0 -13 -8 -49 -12 -99 -11 -69 2 -83 0 -102 -18 -13 -12 -35 -26 -49 -32 -21 -8 -30 -5 -51 14 -23 22 -25 28 -23 122 1 88 5 104 30 148 16 28 35 58 43 67 8 10 12 24 9 31 -3 8 8 29 26 47 l31 32 -24 20 c-20 16 -21 21 -9 28 11 7 5 19 -32 57 -54 56 -75 92 -100 180 -22 77 -16 128 19 166 29 31 25 36 -7 10z" transform="translate(0,106) scale(0.1,-0.1)" stroke="none" fill="#38999E"/>

<path d="M73 978 c-30 -34 -35 -88 -14 -161 25 -88 46 -124 100 -180 37 -38 43 -50 32 -57 -12 -7 -11 -12 10 -29 21 -18 22 -23 9 -34 -24 -21 -66 -71 -53 -63 15 8 18 -20 4 -28 -5 -3 -24 -32 -42 -64 -30 -53 -32 -64 -34 -156 -2 -93 0 -99 23 -121 21 -19 30 -22 51 -14 14 6 36 20 49 32 19 18 33 20 102 18 50 -1 86 3 99 11 16 10 27 10 54 0 61 -22 111 -15 195 28 92 47 157 102 148 126 -3 8 -6 26 -6 39 0 33 -64 105 -119 136 -52 28 -159 53 -185 43 -21 -8 -21 5 2 22 9 7 38 14 65 14 49 0 58 9 32 30 -22 18 -18 30 8 30 26 0 78 31 137 82 40 35 44 42 44 87 1 45 -3 54 -39 91 -21 22 -44 40 -51 40 -6 0 -42 14 -79 31 -75 36 -125 40 -174 14 -27 -13 -39 -15 -58 -6 -13 6 -37 11 -52 11 -15 0 -42 5 -60 11 -26 9 -36 8 -57 -6 -25 -16 -27 -16 -47 3 -20 18 -60 42 -70 42 -2 0 -13 -10 -24 -22z m92 -68 c3 -5 15 -10 25 -10 11 0 24 -8 29 -19 11 -19 50 -38 91 -43 24 -3 25 -7 33 -92 6 -55 5 -92 -1 -98 -6 -6 -31 6 -69 36 -46 35 -66 59 -87 103 -15 32 -34 70 -42 86 -15 26 -12 47 6 47 5 0 12 -4 15 -10z m447 -97 c53 -26 78 -44 78 -56 0 -16 -80 -98 -85 -87 -2 3 -11 -2 -21 -12 -29 -25 -154 -52 -154 -33 0 2 10 24 22 47 16 30 22 59 21 98 -1 93 20 100 139 43z m-202 -223 c0 -5 -7 -10 -15 -10 -8 0 -15 5 -15 10 0 6 7 10 15 10 8 0 15 -4 15 -10z m175 -150 c63 -31 115 -78 115 -105 0 -19 -15 -32 -75 -65 -55 -30 -83 -40 -100 -36 -26 7 -25 3 -30 126 -1 30 -6 68 -10 84 -8 29 -7 29 26 22 18 -3 52 -15 74 -26z m-188 -22 c-3 -13 -11 -41 -17 -63 -7 -22 -14 -57 -17 -77 -5 -38 -17 -45 -81 -46 -36 -1 -70 -28 -74 -59 -2 -14 -9 -28 -15 -31 -25 -8 -26 31 -3 101 27 82 72 137 139 172 59 31 75 32 68 3z" transform="translate(0,106) scale(0.1,-0.1)" stroke="none" fill="#E5E3DF"/>

</g>

<g id="3" transform="translate(258.0,0)scale(1,1)">

<path d="M480 454 c0 -11 5 -26 11 -34 8 -12 9 -9 5 13 -8 35 1 34 79 -4 69 -34 121 -80 113 -101 -7 -18 -138 -89 -157 -86 -9 2 -16 14 -17 28 0 14 -6 36 -12 50 -12 24 -12 24 -7 -9 3 -18 5 -42 5 -52 0 -37 44 -34 125 11 60 33 75 46 75 65 0 40 -107 115 -188 131 -27 5 -32 4 -32 -12z" transform="translate(0,106) scale(0.1,-0.1)" stroke="none" fill="#38999E"/>

<path d="M482 838 c-5 -7 -9 -38 -9 -68 1 -39 -5 -68 -21 -98 -12 -23 -22 -45 -22 -47 0 -19 125 8 154 33 10 10 19 15 21 12 5 -11 85 71 85 87 0 12 -25 30 -78 56 -82 39 -113 45 -130 25z m120 -35 c43 -21 78 -42 78 -46 0 -15 -67 -77 -83 -77 -8 0 -17 -6 -20 -14 -6 -14 -114 -43 -124 -33 -2 3 3 20 13 39 10 19 18 60 19 98 1 36 3 66 4 68 6 10 48 -3 113 -35z" transform="translate(0,106) scale(0.1,-0.1)" stroke="none" fill="#38999E"/>

<path d="M135 910 c-3 -5 1 -22 9 -37 8 -16 27 -54 42 -86 21 -44 41 -68 87 -103 38 -30 63 -42 69 -36 6 6 7 43 1 98 -8 85 -9 89 -33 92 -41 5 -80 24 -91 43 -5 11 -18 19 -29 19 -10 0 -22 5 -25 10 -8 13 -22 13 -30 0z m55 -25 c17 -9 30 -20 30 -25 0 -5 24 -16 54 -25 l53 -16 8 -80 c3 -45 4 -83 1 -87 -3 -3 -32 17 -63 45 -42 36 -63 65 -79 104 -12 29 -27 55 -33 57 -11 4 -16 42 -6 42 4 0 19 -7 35 -15z" transform="translate(0,106) scale(0.1,-0.1)" stroke="none" fill="#38999E"/>

<path d="M329 415 c-67 -35 -112 -90 -139 -172 -23 -70 -22 -109 3 -101 6 3 14 18 17 34 4 21 15 34 40 46 21 11 28 18 17 18 -30 0 -67 -31 -67 -56 0 -13 -5 -24 -11 -24 -13 0 -9 22 22 109 18 51 32 71 71 102 49 39 85 55 95 45 4 -3 -1 -33 -10 -66 -10 -33 -17 -69 -17 -80 0 -15 -8 -22 -30 -27 -17 -3 -29 -8 -26 -10 2 -3 18 -2 34 2 25 5 31 12 35 43 3 20 10 55 17 77 28 98 27 101 -51 60z" transform="translate(0,106) scale(0.1,-0.1)" stroke="none" fill="#38999E"/>

<path d="M71 993 c-29 -23 -44 -92 -32 -140 6 -21 14 -54 19 -73 11 -45 27 -75 64 -122 23 -29 26 -38 14 -38 -26 0 -18 -17 22 -46 20 -16 41 -31 45 -35 9 -7 -57 -79 -72 -79 -5 0 -12 -7 -15 -16 -5 -13 -2 -15 14 -11 21 5 28 -7 10 -18 -23 -15 -78 -146 -70 -170 2 -5 2 -39 1 -75 -2 -61 0 -67 29 -95 l31 -30 62 33 c53 27 74 32 131 32 37 0 76 4 86 10 12 7 38 5 82 -6 l65 -16 79 39 c93 45 169 96 178 118 3 8 1 38 -4 65 -12 63 -69 135 -120 151 -19 6 -39 15 -45 19 -5 4 -29 11 -52 15 -52 8 -57 25 -8 25 37 0 42 9 25 41 -8 14 -7 19 3 19 25 0 75 30 126 76 114 103 69 204 -127 279 l-97 38 -60 -21 c-38 -13 -64 -17 -70 -11 -5 5 -22 9 -38 9 -16 0 -47 5 -68 12 -31 9 -44 8 -63 -2 -21 -11 -28 -10 -54 9 -17 11 -36 21 -44 21 -7 0 -4 -5 7 -12 11 -6 30 -20 42 -30 20 -19 22 -19 47 -3 21 14 31 15 57 6 18 -6 45 -11 60 -11 15 0 39 -5 52 -11 19 -9 31 -7 58 6 49 26 99 22 174 -14 37 -17 73 -31 79 -31 7 0 30 -18 51 -40 36 -37 40 -46 39 -91 0 -45 -4 -52 -44 -87 -59 -51 -111 -82 -137 -82 -26 0 -30 -12 -8 -30 26 -21 17 -30 -32 -30 -27 0 -56 -7 -65 -14 -23 -17 -23 -30 -2 -22 26 10 133 -15 185 -43 55 -31 119 -103 119 -136 0 -13 3 -31 6 -39 9 -24 -56 -79 -148 -126 -84 -43 -134 -50 -195 -28 -27 10 -38 10 -54 0 -13 -8 -49 -12 -99 -11 -69 2 -83 0 -102 -18 -13 -12 -35 -26 -49 -32 -21 -8 -30 -5 -51 14 -23 22 -25 28 -23 122 1 88 5 104 30 148 16 28 35 58 43 67 8 10 12 24 9 31 -3 8 8 29 26 47 l31 32 -24 20 c-20 16 -21 21 -9 28 11 7 5 19 -32 57 -54 56 -75 92 -100 180 -22 77 -16 128 19 166 29 31 25 36 -7 10z" transform="translate(0,106) scale(0.1,-0.1)" stroke="none" fill="#38999E"/>

<path d="M73 978 c-30 -34 -35 -88 -14 -161 25 -88 46 -124 100 -180 37 -38 43 -50 32 -57 -12 -7 -11 -12 10 -29 21 -18 22 -23 9 -34 -24 -21 -66 -71 -53 -63 15 8 18 -20 4 -28 -5 -3 -24 -32 -42 -64 -30 -53 -32 -64 -34 -156 -2 -93 0 -99 23 -121 21 -19 30 -22 51 -14 14 6 36 20 49 32 19 18 33 20 102 18 50 -1 86 3 99 11 16 10 27 10 54 0 61 -22 111 -15 195 28 92 47 157 102 148 126 -3 8 -6 26 -6 39 0 33 -64 105 -119 136 -52 28 -159 53 -185 43 -21 -8 -21 5 2 22 9 7 38 14 65 14 49 0 58 9 32 30 -22 18 -18 30 8 30 26 0 78 31 137 82 40 35 44 42 44 87 1 45 -3 54 -39 91 -21 22 -44 40 -51 40 -6 0 -42 14 -79 31 -75 36 -125 40 -174 14 -27 -13 -39 -15 -58 -6 -13 6 -37 11 -52 11 -15 0 -42 5 -60 11 -26 9 -36 8 -57 -6 -25 -16 -27 -16 -47 3 -20 18 -60 42 -70 42 -2 0 -13 -10 -24 -22z m92 -68 c3 -5 15 -10 25 -10 11 0 24 -8 29 -19 11 -19 50 -38 91 -43 24 -3 25 -7 33 -92 6 -55 5 -92 -1 -98 -6 -6 -31 6 -69 36 -46 35 -66 59 -87 103 -15 32 -34 70 -42 86 -15 26 -12 47 6 47 5 0 12 -4 15 -10z m447 -97 c53 -26 78 -44 78 -56 0 -16 -80 -98 -85 -87 -2 3 -11 -2 -21 -12 -29 -25 -154 -52 -154 -33 0 2 10 24 22 47 16 30 22 59 21 98 -1 93 20 100 139 43z m-202 -223 c0 -5 -7 -10 -15 -10 -8 0 -15 5 -15 10 0 6 7 10 15 10 8 0 15 -4 15 -10z m175 -150 c63 -31 115 -78 115 -105 0 -19 -15 -32 -75 -65 -55 -30 -83 -40 -100 -36 -26 7 -25 3 -30 126 -1 30 -6 68 -10 84 -8 29 -7 29 26 22 18 -3 52 -15 74 -26z m-188 -22 c-3 -13 -11 -41 -17 -63 -7 -22 -14 -57 -17 -77 -5 -38 -17 -45 -81 -46 -36 -1 -70 -28 -74 -59 -2 -14 -9 -28 -15 -31 -25 -8 -26 31 -3 101 27 82 72 137 139 172 59 31 75 32 68 3z" transform="translate(0,106) scale(0.1,-0.1)" stroke="none" fill="#E5E3DF"/>

</g>

<g id="4" transform="translate(344.0,0)scale(1,1)">

<path d="M480 454 c0 -11 5 -26 11 -34 8 -12 9 -9 5 13 -8 35 1 34 79 -4 69 -34 121 -80 113 -101 -7 -18 -138 -89 -157 -86 -9 2 -16 14 -17 28 0 14 -6 36 -12 50 -12 24 -12 24 -7 -9 3 -18 5 -42 5 -52 0 -37 44 -34 125 11 60 33 75 46 75 65 0 40 -107 115 -188 131 -27 5 -32 4 -32 -12z" transform="translate(0,106) scale(0.1,-0.1)" stroke="none" fill="#38999E"/>

<path d="M482 838 c-5 -7 -9 -38 -9 -68 1 -39 -5 -68 -21 -98 -12 -23 -22 -45 -22 -47 0 -19 125 8 154 33 10 10 19 15 21 12 5 -11 85 71 85 87 0 12 -25 30 -78 56 -82 39 -113 45 -130 25z m120 -35 c43 -21 78 -42 78 -46 0 -15 -67 -77 -83 -77 -8 0 -17 -6 -20 -14 -6 -14 -114 -43 -124 -33 -2 3 3 20 13 39 10 19 18 60 19 98 1 36 3 66 4 68 6 10 48 -3 113 -35z" transform="translate(0,106) scale(0.1,-0.1)" stroke="none" fill="#38999E"/>

<path d="M135 910 c-3 -5 1 -22 9 -37 8 -16 27 -54 42 -86 21 -44 41 -68 87 -103 38 -30 63 -42 69 -36 6 6 7 43 1 98 -8 85 -9 89 -33 92 -41 5 -80 24 -91 43 -5 11 -18 19 -29 19 -10 0 -22 5 -25 10 -8 13 -22 13 -30 0z m55 -25 c17 -9 30 -20 30 -25 0 -5 24 -16 54 -25 l53 -16 8 -80 c3 -45 4 -83 1 -87 -3 -3 -32 17 -63 45 -42 36 -63 65 -79 104 -12 29 -27 55 -33 57 -11 4 -16 42 -6 42 4 0 19 -7 35 -15z" transform="translate(0,106) scale(0.1,-0.1)" stroke="none" fill="#38999E"/>

<path d="M329 415 c-67 -35 -112 -90 -139 -172 -23 -70 -22 -109 3 -101 6 3 14 18 17 34 4 21 15 34 40 46 21 11 28 18 17 18 -30 0 -67 -31 -67 -56 0 -13 -5 -24 -11 -24 -13 0 -9 22 22 109 18 51 32 71 71 102 49 39 85 55 95 45 4 -3 -1 -33 -10 -66 -10 -33 -17 -69 -17 -80 0 -15 -8 -22 -30 -27 -17 -3 -29 -8 -26 -10 2 -3 18 -2 34 2 25 5 31 12 35 43 3 20 10 55 17 77 28 98 27 101 -51 60z" transform="translate(0,106) scale(0.1,-0.1)" stroke="none" fill="#38999E"/>

<path d="M71 993 c-29 -23 -44 -92 -32 -140 6 -21 14 -54 19 -73 11 -45 27 -75 64 -122 23 -29 26 -38 14 -38 -26 0 -18 -17 22 -46 20 -16 41 -31 45 -35 9 -7 -57 -79 -72 -79 -5 0 -12 -7 -15 -16 -5 -13 -2 -15 14 -11 21 5 28 -7 10 -18 -23 -15 -78 -146 -70 -170 2 -5 2 -39 1 -75 -2 -61 0 -67 29 -95 l31 -30 62 33 c53 27 74 32 131 32 37 0 76 4 86 10 12 7 38 5 82 -6 l65 -16 79 39 c93 45 169 96 178 118 3 8 1 38 -4 65 -12 63 -69 135 -120 151 -19 6 -39 15 -45 19 -5 4 -29 11 -52 15 -52 8 -57 25 -8 25 37 0 42 9 25 41 -8 14 -7 19 3 19 25 0 75 30 126 76 114 103 69 204 -127 279 l-97 38 -60 -21 c-38 -13 -64 -17 -70 -11 -5 5 -22 9 -38 9 -16 0 -47 5 -68 12 -31 9 -44 8 -63 -2 -21 -11 -28 -10 -54 9 -17 11 -36 21 -44 21 -7 0 -4 -5 7 -12 11 -6 30 -20 42 -30 20 -19 22 -19 47 -3 21 14 31 15 57 6 18 -6 45 -11 60 -11 15 0 39 -5 52 -11 19 -9 31 -7 58 6 49 26 99 22 174 -14 37 -17 73 -31 79 -31 7 0 30 -18 51 -40 36 -37 40 -46 39 -91 0 -45 -4 -52 -44 -87 -59 -51 -111 -82 -137 -82 -26 0 -30 -12 -8 -30 26 -21 17 -30 -32 -30 -27 0 -56 -7 -65 -14 -23 -17 -23 -30 -2 -22 26 10 133 -15 185 -43 55 -31 119 -103 119 -136 0 -13 3 -31 6 -39 9 -24 -56 -79 -148 -126 -84 -43 -134 -50 -195 -28 -27 10 -38 10 -54 0 -13 -8 -49 -12 -99 -11 -69 2 -83 0 -102 -18 -13 -12 -35 -26 -49 -32 -21 -8 -30 -5 -51 14 -23 22 -25 28 -23 122 1 88 5 104 30 148 16 28 35 58 43 67 8 10 12 24 9 31 -3 8 8 29 26 47 l31 32 -24 20 c-20 16 -21 21 -9 28 11 7 5 19 -32 57 -54 56 -75 92 -100 180 -22 77 -16 128 19 166 29 31 25 36 -7 10z" transform="translate(0,106) scale(0.1,-0.1)" stroke="none" fill="#38999E"/>

<path d="M73 978 c-30 -34 -35 -88 -14 -161 25 -88 46 -124 100 -180 37 -38 43 -50 32 -57 -12 -7 -11 -12 10 -29 21 -18 22 -23 9 -34 -24 -21 -66 -71 -53 -63 15 8 18 -20 4 -28 -5 -3 -24 -32 -42 -64 -30 -53 -32 -64 -34 -156 -2 -93 0 -99 23 -121 21 -19 30 -22 51 -14 14 6 36 20 49 32 19 18 33 20 102 18 50 -1 86 3 99 11 16 10 27 10 54 0 61 -22 111 -15 195 28 92 47 157 102 148 126 -3 8 -6 26 -6 39 0 33 -64 105 -119 136 -52 28 -159 53 -185 43 -21 -8 -21 5 2 22 9 7 38 14 65 14 49 0 58 9 32 30 -22 18 -18 30 8 30 26 0 78 31 137 82 40 35 44 42 44 87 1 45 -3 54 -39 91 -21 22 -44 40 -51 40 -6 0 -42 14 -79 31 -75 36 -125 40 -174 14 -27 -13 -39 -15 -58 -6 -13 6 -37 11 -52 11 -15 0 -42 5 -60 11 -26 9 -36 8 -57 -6 -25 -16 -27 -16 -47 3 -20 18 -60 42 -70 42 -2 0 -13 -10 -24 -22z m92 -68 c3 -5 15 -10 25 -10 11 0 24 -8 29 -19 11 -19 50 -38 91 -43 24 -3 25 -7 33 -92 6 -55 5 -92 -1 -98 -6 -6 -31 6 -69 36 -46 35 -66 59 -87 103 -15 32 -34 70 -42 86 -15 26 -12 47 6 47 5 0 12 -4 15 -10z m447 -97 c53 -26 78 -44 78 -56 0 -16 -80 -98 -85 -87 -2 3 -11 -2 -21 -12 -29 -25 -154 -52 -154 -33 0 2 10 24 22 47 16 30 22 59 21 98 -1 93 20 100 139 43z m-202 -223 c0 -5 -7 -10 -15 -10 -8 0 -15 5 -15 10 0 6 7 10 15 10 8 0 15 -4 15 -10z m175 -150 c63 -31 115 -78 115 -105 0 -19 -15 -32 -75 -65 -55 -30 -83 -40 -100 -36 -26 7 -25 3 -30 126 -1 30 -6 68 -10 84 -8 29 -7 29 26 22 18 -3 52 -15 74 -26z m-188 -22 c-3 -13 -11 -41 -17 -63 -7 -22 -14 -57 -17 -77 -5 -38 -17 -45 -81 -46 -36 -1 -70 -28 -74 -59 -2 -14 -9 -28 -15 -31 -25 -8 -26 31 -3 101 27 82 72 137 139 172 59 31 75 32 68 3z" transform="translate(0,106) scale(0.1,-0.1)" stroke="none" fill="#E5E3DF"/>

</g>

</g>
<g id="row1" transform="translate(11,106.0)">
<g id="0" transform="translate(0.0,0)scale(1,1)">

<path d="M480 454 c0 -11 5 -26 11 -34 8 -12 9 -9 5 13 -8 35 1 34 79 -4 69 -34 121 -80 113 -101 -7 -18 -138 -89 -157 -86 -9 2 -16 14 -17 28 0 14 -6 36 -12 50 -12 24 -12 24 -7 -9 3 -18 5 -42 5 -52 0 -37 44 -34 125 11 60 33 75 46 75 65 0 40 -107 115 -188 131 -27 5 -32 4 -32 -12z" transform="translate(0,106) scale(0.1,-0.1)" stroke="none" fill="#38999E"/>

<path d="M482 838 c-5 -7 -9 -38 -9 -68 1 -39 -5 -68 -21 -98 -12 -23 -22 -45 -22 -47 0 -19 125 8 154 33 10 10 19 15 21 12 5 -11 85 71 85 87 0 12 -25 30 -78 56 -82 39 -113 45 -130 25z m120 -35 c43 -21 78 -42 78 -46 0 -15 -67 -77 -83 -77 -8 0 -17 -6 -20 -14 -6 -14 -114 -43 -124 -33 -2 3 3 20 13 39 10 19 18 60 19 98 1 36 3 66 4 68 6 10 48 -3 113 -35z" transform="translate(0,106) scale(0.1,-0.1)" stroke="none" fill="#38999E"/>

<path d="M135 910 c-3 -5 1 -22 9 -37 8 -16 27 -54 42 -86 21 -44 41 -68 87 -103 38 -30 63 -42 69 -36 6 6 7 43 1 98 -8 85 -9 89 -33 92 -41 5 -80 24 -91 43 -5 11 -18 19 -29 19 -10 0 -22 5 -25 10 -8 13 -22 13 -30 0z m55 -25 c17 -9 30 -20 30 -25 0 -5 24 -16 54 -25 l53 -16 8 -80 c3 -45 4 -83 1 -87 -3 -3 -32 17 -63 45 -42 36 -63 65 -79 104 -12 29 -27 55 -33 57 -11 4 -16 42 -6 42 4 0 19 -7 35 -15z" transform="translate(0,106) scale(0.1,-0.1)" stroke="none" fill="#38999E"/>

<path d="M329 415 c-67 -35 -112 -90 -139 -172 -23 -70 -22 -109 3 -101 6 3 14 18 17 34 4 21 15 34 40 46 21 11 28 18 17 18 -30 0 -67 -31 -67 -56 0 -13 -5 -24 -11 -24 -13 0 -9 22 22 109 18 51 32 71 71 102 49 39 85 55 95 45 4 -3 -1 -33 -10 -66 -10 -33 -17 -69 -17 -80 0 -15 -8 -22 -30 -27 -17 -3 -29 -8 -26 -10 2 -3 18 -2 34 2 25 5 31 12 35 43 3 20 10 55 17 77 28 98 27 101 -51 60z" transform="translate(0,106) scale(0.1,-0.1)" stroke="none" fill="#38999E"/>

<path d="M71 993 c-29 -23 -44 -92 -32 -140 6 -21 14 -54 19 -73 11 -45 27 -75 64 -122 23 -29 26 -38 14 -38 -26 0 -18 -17 22 -46 20 -16 41 -31 45 -35 9 -7 -57 -79 -72 -79 -5 0 -12 -7 -15 -16 -5 -13 -2 -15 14 -11 21 5 28 -7 10 -18 -23 -15 -78 -146 -70 -170 2 -5 2 -39 1 -75 -2 -61 0 -67 29 -95 l31 -30 62 33 c53 27 74 32 131 32 37 0 76 4 86 10 12 7 38 5 82 -6 l65 -16 79 39 c93 45 169 96 178 118 3 8 1 38 -4 65 -12 63 -69 135 -120 151 -19 6 -39 15 -45 19 -5 4 -29 11 -52 15 -52 8 -57 25 -8 25 37 0 42 9 25 41 -8 14 -7 19 3 19 25 0 75 30 126 76 114 103 69 204 -127 279 l-97 38 -60 -21 c-38 -13 -64 -17 -70 -11 -5 5 -22 9 -38 9 -16 0 -47 5 -68 12 -31 9 -44 8 -63 -2 -21 -11 -28 -10 -54 9 -17 11 -36 21 -44 21 -7 0 -4 -5 7 -12 11 -6 30 -20 42 -30 20 -19 22 -19 47 -3 21 14 31 15 57 6 18 -6 45 -11 60 -11 15 0 39 -5 52 -11 19 -9 31 -7 58 6 49 26 99 22 174 -14 37 -17 73 -31 79 -31 7 0 30 -18 51 -40 36 -37 40 -46 39 -91 0 -45 -4 -52 -44 -87 -59 -51 -111 -82 -137 -82 -26 0 -30 -12 -8 -30 26 -21 17 -30 -32 -30 -27 0 -56 -7 -65 -14 -23 -17 -23 -30 -2 -22 26 10 133 -15 185 -43 55 -31 119 -103 119 -136 0 -13 3 -31 6 -39 9 -24 -56 -79 -148 -126 -84 -43 -134 -50 -195 -28 -27 10 -38 10 -54 0 -13 -8 -49 -12 -99 -11 -69 2 -83 0 -102 -18 -13 -12 -35 -26 -49 -32 -21 -8 -30 -5 -51 14 -23 22 -25 28 -23 122 1 88 5 104 30 148 16 28 35 58 43 67 8 10 12 24 9 31 -3 8 8 29 26 47 l31 32 -24 20 c-20 16 -21 21 -9 28 11 7 5 19 -32 57 -54 56 -75 92 -100 180 -22 77 -16 128 19 166 29 31 25 36 -7 10z" transform="translate(0,106) scale(0.1,-0.1)" stroke="none" fill="#38999E"/>

<path d="M73 978 c-30 -34 -35 -88 -14 -161 25 -88 46 -124 100 -180 37 -38 43 -50 32 -57 -12 -7 -11 -12 10 -29 21 -18 22 -23 9 -34 -24 -21 -66 -71 -53 -63 15 8 18 -20 4 -28 -5 -3 -24 -32 -42 -64 -30 -53 -32 -64 -34 -156 -2 -93 0 -99 23 -121 21 -19 30 -22 51 -14 14 6 36 20 49 32 19 18 33 20 102 18 50 -1 86 3 99 11 16 10 27 10 54 0 61 -22 111 -15 195 28 92 47 157 102 148 126 -3 8 -6 26 -6 39 0 33 -64 105 -119 136 -52 28 -159 53 -185 43 -21 -8 -21 5 2 22 9 7 38 14 65 14 49 0 58 9 32 30 -22 18 -18 30 8 30 26 0 78 31 137 82 40 35 44 42 44 87 1 45 -3 54 -39 91 -21 22 -44 40 -51 40 -6 0 -42 14 -79 31 -75 36 -125 40 -174 14 -27 -13 -39 -15 -58 -6 -13 6 -37 11 -52 11 -15 0 -42 5 -60 11 -26 9 -36 8 -57 -6 -25 -16 -27 -16 -47 3 -20 18 -60 42 -70 42 -2 0 -13 -10 -24 -22z m92 -68 c3 -5 15 -10 25 -10 11 0 24 -8 29 -19 11 -19 50 -38 91 -43 24 -3 25 -7 33 -92 6 -55 5 -92 -1 -98 -6 -6 -31 6 -69 36 -46 35 -66 59 -87 103 -15 32 -34 70 -42 86 -15 26 -12 47 6 47 5 0 12 -4 15 -10z m447 -97 c53 -26 78 -44 78 -56 0 -16 -80 -98 -85 -87 -2 3 -11 -2 -21 -12 -29 -25 -154 -52 -154 -33 0 2 10 24 22 47 16 30 22 59 21 98 -1 93 20 100 139 43z m-202 -223 c0 -5 -7 -10 -15 -10 -8 0 -15 5 -15 10 0 6 7 10 15 10 8 0 15 -4 15 -10z m175 -150 c63 -31 115 -78 115 -105 0 -19 -15 -32 -75 -65 -55 -30 -83 -40 -100 -36 -26 7 -25 3 -30 126 -1 30 -6 68 -10 84 -8 29 -7 29 26 22 18 -3 52 -15 74 -26z m-188 -22 c-3 -13 -11 -41 -17 -63 -7 -22 -14 -57 -17 -77 -5 -38 -17 -45 -81 -46 -36 -1 -70 -28 -74 -59 -2 -14 -9 -28 -15 -31 -25 -8 -26 31 -3 101 27 82 72 137 139 172 59 31 75 32 68 3z" transform="translate(0,106) scale(0.1,-0.1)" stroke="none" fill="#E5E3DF"/>

</g>

<g id="1" transform="translate(86.0,0)scale(1,1)">

<path d="M480 454 c0 -11 5 -26 11 -34 8 -12 9 -9 5 13 -8 35 1 34 79 -4 69 -34 121 -80 113 -101 -7 -18 -138 -89 -157 -86 -9 2 -16 14 -17 28 0 14 -6 36 -12 50 -12 24 -12 24 -7 -9 3 -18 5 -42 5 -52 0 -37 44 -34 125 11 60 33 75 46 75 65 0 40 -107 115 -188 131 -27 5 -32 4 -32 -12z" transform="translate(0,106) scale(0.1,-0.1)" stroke="none" fill="#38999E"/>

<path d="M482 838 c-5 -7 -9 -38 -9 -68 1 -39 -5 -68 -21 -98 -12 -23 -22 -45 -22 -47 0 -19 125 8 154 33 10 10 19 15 21 12 5 -11 85 71 85 87 0 12 -25 30 -78 56 -82 39 -113 45 -130 25z m120 -35 c43 -21 78 -42 78 -46 0 -15 -67 -77 -83 -77 -8 0 -17 -6 -20 -14 -6 -14 -114 -43 -124 -33 -2 3 3 20 13 39 10 19 18 60 19 98 1 36 3 66 4 68 6 10 48 -3 113 -35z" transform="translate(0,106) scale(0.1,-0.1)" stroke="none" fill="#38999E"/>

<path d="M135 910 c-3 -5 1 -22 9 -37 8 -16 27 -54 42 -86 21 -44 41 -68 87 -103 38 -30 63 -42 69 -36 6 6 7 43 1 98 -8 85 -9 89 -33 92 -41 5 -80 24 -91 43 -5 11 -18 19 -29 19 -10 0 -22 5 -25 10 -8 13 -22 13 -30 0z m55 -25 c17 -9 30 -20 30 -25 0 -5 24 -16 54 -25 l53 -16 8 -80 c3 -45 4 -83 1 -87 -3 -3 -32 17 -63 45 -42 36 -63 65 -79 104 -12 29 -27 55 -33 57 -11 4 -16 42 -6 42 4 0 19 -7 35 -15z" transform="translate(0,106) scale(0.1,-0.1)" stroke="none" fill="#38999E"/>

<path d="M329 415 c-67 -35 -112 -90 -139 -172 -23 -70 -22 -109 3 -101 6 3 14 18 17 34 4 21 15 34 40 46 21 11 28 18 17 18 -30 0 -67 -31 -67 -56 0 -13 -5 -24 -11 -24 -13 0 -9 22 22 109 18 51 32 71 71 102 49 39 85 55 95 45 4 -3 -1 -33 -10 -66 -10 -33 -17 -69 -17 -80 0 -15 -8 -22 -30 -27 -17 -3 -29 -8 -26 -10 2 -3 18 -2 34 2 25 5 31 12 35 43 3 20 10 55 17 77 28 98 27 101 -51 60z" transform="translate(0,106) scale(0.1,-0.1)" stroke="none" fill="#38999E"/>

<path d="M71 993 c-29 -23 -44 -92 -32 -140 6 -21 14 -54 19 -73 11 -45 27 -75 64 -122 23 -29 26 -38 14 -38 -26 0 -18 -17 22 -46 20 -16 41 -31 45 -35 9 -7 -57 -79 -72 -79 -5 0 -12 -7 -15 -16 -5 -13 -2 -15 14 -11 21 5 28 -7 10 -18 -23 -15 -78 -146 -70 -170 2 -5 2 -39 1 -75 -2 -61 0 -67 29 -95 l31 -30 62 33 c53 27 74 32 131 32 37 0 76 4 86 10 12 7 38 5 82 -6 l65 -16 79 39 c93 45 169 96 178 118 3 8 1 38 -4 65 -12 63 -69 135 -120 151 -19 6 -39 15 -45 19 -5 4 -29 11 -52 15 -52 8 -57 25 -8 25 37 0 42 9 25 41 -8 14 -7 19 3 19 25 0 75 30 126 76 114 103 69 204 -127 279 l-97 38 -60 -21 c-38 -13 -64 -17 -70 -11 -5 5 -22 9 -38 9 -16 0 -47 5 -68 12 -31 9 -44 8 -63 -2 -21 -11 -28 -10 -54 9 -17 11 -36 21 -44 21 -7 0 -4 -5 7 -12 11 -6 30 -20 42 -30 20 -19 22 -19 47 -3 21 14 31 15 57 6 18 -6 45 -11 60 -11 15 0 39 -5 52 -11 19 -9 31 -7 58 6 49 26 99 22 174 -14 37 -17 73 -31 79 -31 7 0 30 -18 51 -40 36 -37 40 -46 39 -91 0 -45 -4 -52 -44 -87 -59 -51 -111 -82 -137 -82 -26 0 -30 -12 -8 -30 26 -21 17 -30 -32 -30 -27 0 -56 -7 -65 -14 -23 -17 -23 -30 -2 -22 26 10 133 -15 185 -43 55 -31 119 -103 119 -136 0 -13 3 -31 6 -39 9 -24 -56 -79 -148 -126 -84 -43 -134 -50 -195 -28 -27 10 -38 10 -54 0 -13 -8 -49 -12 -99 -11 -69 2 -83 0 -102 -18 -13 -12 -35 -26 -49 -32 -21 -8 -30 -5 -51 14 -23 22 -25 28 -23 122 1 88 5 104 30 148 16 28 35 58 43 67 8 10 12 24 9 31 -3 8 8 29 26 47 l31 32 -24 20 c-20 16 -21 21 -9 28 11 7 5 19 -32 57 -54 56 -75 92 -100 180 -22 77 -16 128 19 166 29 31 25 36 -7 10z" transform="translate(0,106) scale(0.1,-0.1)" stroke="none" fill="#38999E"/>

<path d="M73 978 c-30 -34 -35 -88 -14 -161 25 -88 46 -124 100 -180 37 -38 43 -50 32 -57 -12 -7 -11 -12 10 -29 21 -18 22 -23 9 -34 -24 -21 -66 -71 -53 -63 15 8 18 -20 4 -28 -5 -3 -24 -32 -42 -64 -30 -53 -32 -64 -34 -156 -2 -93 0 -99 23 -121 21 -19 30 -22 51 -14 14 6 36 20 49 32 19 18 33 20 102 18 50 -1 86 3 99 11 16 10 27 10 54 0 61 -22 111 -15 195 28 92 47 157 102 148 126 -3 8 -6 26 -6 39 0 33 -64 105 -119 136 -52 28 -159 53 -185 43 -21 -8 -21 5 2 22 9 7 38 14 65 14 49 0 58 9 32 30 -22 18 -18 30 8 30 26 0 78 31 137 82 40 35 44 42 44 87 1 45 -3 54 -39 91 -21 22 -44 40 -51 40 -6 0 -42 14 -79 31 -75 36 -125 40 -174 14 -27 -13 -39 -15 -58 -6 -13 6 -37 11 -52 11 -15 0 -42 5 -60 11 -26 9 -36 8 -57 -6 -25 -16 -27 -16 -47 3 -20 18 -60 42 -70 42 -2 0 -13 -10 -24 -22z m92 -68 c3 -5 15 -10 25 -10 11 0 24 -8 29 -19 11 -19 50 -38 91 -43 24 -3 25 -7 33 -92 6 -55 5 -92 -1 -98 -6 -6 -31 6 -69 36 -46 35 -66 59 -87 103 -15 32 -34 70 -42 86 -15 26 -12 47 6 47 5 0 12 -4 15 -10z m447 -97 c53 -26 78 -44 78 -56 0 -16 -80 -98 -85 -87 -2 3 -11 -2 -21 -12 -29 -25 -154 -52 -154 -33 0 2 10 24 22 47 16 30 22 59 21 98 -1 93 20 100 139 43z m-202 -223 c0 -5 -7 -10 -15 -10 -8 0 -15 5 -15 10 0 6 7 10 15 10 8 0 15 -4 15 -10z m175 -150 c63 -31 115 -78 115 -105 0 -19 -15 -32 -75 -65 -55 -30 -83 -40 -100 -36 -26 7 -25 3 -30 126 -1 30 -6 68 -10 84 -8 29 -7 29 26 22 18 -3 52 -15 74 -26z m-188 -22 c-3 -13 -11 -41 -17 -63 -7 -22 -14 -57 -17 -77 -5 -38 -17 -45 -81 -46 -36 -1 -70 -28 -74 -59 -2 -14 -9 -28 -15 -31 -25 -8 -26 31 -3 101 27 82 72 137 139 172 59 31 75 32 68 3z" transform="translate(0,106) scale(0.1,-0.1)" stroke="none" fill="#E5E3DF"/>

</g>

<g id="2" transform="translate(172.0,0)scale(1,1)">

<path d="M480 454 c0 -11 5 -26 11 -34 8 -12 9 -9 5 13 -8 35 1 34 79 -4 69 -34 121 -80 113 -101 -7 -18 -138 -89 -157 -86 -9 2 -16 14 -17 28 0 14 -6 36 -12 50 -12 24 -12 24 -7 -9 3 -18 5 -42 5 -52 0 -37 44 -34 125 11 60 33 75 46 75 65 0 40 -107 115 -188 131 -27 5 -32 4 -32 -12z" transform="translate(0,106) scale(0.1,-0.1)" stroke="none" fill="#38999E"/>

<path d="M482 838 c-5 -7 -9 -38 -9 -68 1 -39 -5 -68 -21 -98 -12 -23 -22 -45 -22 -47 0 -19 125 8 154 33 10 10 19 15 21 12 5 -11 85 71 85 87 0 12 -25 30 -78 56 -82 39 -113 45 -130 25z m120 -35 c43 -21 78 -42 78 -46 0 -15 -67 -77 -83 -77 -8 0 -17 -6 -20 -14 -6 -14 -114 -43 -124 -33 -2 3 3 20 13 39 10 19 18 60 19 98 1 36 3 66 4 68 6 10 48 -3 113 -35z" transform="translate(0,106) scale(0.1,-0.1)" stroke="none" fill="#38999E"/>

<path d="M135 910 c-3 -5 1 -22 9 -37 8 -16 27 -54 42 -86 21 -44 41 -68 87 -103 38 -30 63 -42 69 -36 6 6 7 43 1 98 -8 85 -9 89 -33 92 -41 5 -80 24 -91 43 -5 11 -18 19 -29 19 -10 0 -22 5 -25 10 -8 13 -22 13 -30 0z m55 -25 c17 -9 30 -20 30 -25 0 -5 24 -16 54 -25 l53 -16 8 -80 c3 -45 4 -83 1 -87 -3 -3 -32 17 -63 45 -42 36 -63 65 -79 104 -12 29 -27 55 -33 57 -11 4 -16 42 -6 42 4 0 19 -7 35 -15z" transform="translate(0,106) scale(0.1,-0.1)" stroke="none" fill="#38999E"/>

<path d="M329 415 c-67 -35 -112 -90 -139 -172 -23 -70 -22 -109 3 -101 6 3 14 18 17 34 4 21 15 34 40 46 21 11 28 18 17 18 -30 0 -67 -31 -67 -56 0 -13 -5 -24 -11 -24 -13 0 -9 22 22 109 18 51 32 71 71 102 49 39 85 55 95 45 4 -3 -1 -33 -10 -66 -10 -33 -17 -69 -17 -80 0 -15 -8 -22 -30 -27 -17 -3 -29 -8 -26 -10 2 -3 18 -2 34 2 25 5 31 12 35 43 3 20 10 55 17 77 28 98 27 101 -51 60z" transform="translate(0,106) scale(0.1,-0.1)" stroke="none" fill="#38999E"/>

<path d="M71 993 c-29 -23 -44 -92 -32 -140 6 -21 14 -54 19 -73 11 -45 27 -75 64 -122 23 -29 26 -38 14 -38 -26 0 -18 -17 22 -46 20 -16 41 -31 45 -35 9 -7 -57 -79 -72 -79 -5 0 -12 -7 -15 -16 -5 -13 -2 -15 14 -11 21 5 28 -7 10 -18 -23 -15 -78 -146 -70 -170 2 -5 2 -39 1 -75 -2 -61 0 -67 29 -95 l31 -30 62 33 c53 27 74 32 131 32 37 0 76 4 86 10 12 7 38 5 82 -6 l65 -16 79 39 c93 45 169 96 178 118 3 8 1 38 -4 65 -12 63 -69 135 -120 151 -19 6 -39 15 -45 19 -5 4 -29 11 -52 15 -52 8 -57 25 -8 25 37 0 42 9 25 41 -8 14 -7 19 3 19 25 0 75 30 126 76 114 103 69 204 -127 279 l-97 38 -60 -21 c-38 -13 -64 -17 -70 -11 -5 5 -22 9 -38 9 -16 0 -47 5 -68 12 -31 9 -44 8 -63 -2 -21 -11 -28 -10 -54 9 -17 11 -36 21 -44 21 -7 0 -4 -5 7 -12 11 -6 30 -20 42 -30 20 -19 22 -19 47 -3 21 14 31 15 57 6 18 -6 45 -11 60 -11 15 0 39 -5 52 -11 19 -9 31 -7 58 6 49 26 99 22 174 -14 37 -17 73 -31 79 -31 7 0 30 -18 51 -40 36 -37 40 -46 39 -91 0 -45 -4 -52 -44 -87 -59 -51 -111 -82 -137 -82 -26 0 -30 -12 -8 -30 26 -21 17 -30 -32 -30 -27 0 -56 -7 -65 -14 -23 -17 -23 -30 -2 -22 26 10 133 -15 185 -43 55 -31 119 -103 119 -136 0 -13 3 -31 6 -39 9 -24 -56 -79 -148 -126 -84 -43 -134 -50 -195 -28 -27 10 -38 10 -54 0 -13 -8 -49 -12 -99 -11 -69 2 -83 0 -102 -18 -13 -12 -35 -26 -49 -32 -21 -8 -30 -5 -51 14 -23 22 -25 28 -23 122 1 88 5 104 30 148 16 28 35 58 43 67 8 10 12 24 9 31 -3 8 8 29 26 47 l31 32 -24 20 c-20 16 -21 21 -9 28 11 7 5 19 -32 57 -54 56 -75 92 -100 180 -22 77 -16 128 19 166 29 31 25 36 -7 10z" transform="translate(0,106) scale(0.1,-0.1)" stroke="none" fill="#38999E"/>

<path d="M73 978 c-30 -34 -35 -88 -14 -161 25 -88 46 -124 100 -180 37 -38 43 -50 32 -57 -12 -7 -11 -12 10 -29 21 -18 22 -23 9 -34 -24 -21 -66 -71 -53 -63 15 8 18 -20 4 -28 -5 -3 -24 -32 -42 -64 -30 -53 -32 -64 -34 -156 -2 -93 0 -99 23 -121 21 -19 30 -22 51 -14 14 6 36 20 49 32 19 18 33 20 102 18 50 -1 86 3 99 11 16 10 27 10 54 0 61 -22 111 -15 195 28 92 47 157 102 148 126 -3 8 -6 26 -6 39 0 33 -64 105 -119 136 -52 28 -159 53 -185 43 -21 -8 -21 5 2 22 9 7 38 14 65 14 49 0 58 9 32 30 -22 18 -18 30 8 30 26 0 78 31 137 82 40 35 44 42 44 87 1 45 -3 54 -39 91 -21 22 -44 40 -51 40 -6 0 -42 14 -79 31 -75 36 -125 40 -174 14 -27 -13 -39 -15 -58 -6 -13 6 -37 11 -52 11 -15 0 -42 5 -60 11 -26 9 -36 8 -57 -6 -25 -16 -27 -16 -47 3 -20 18 -60 42 -70 42 -2 0 -13 -10 -24 -22z m92 -68 c3 -5 15 -10 25 -10 11 0 24 -8 29 -19 11 -19 50 -38 91 -43 24 -3 25 -7 33 -92 6 -55 5 -92 -1 -98 -6 -6 -31 6 -69 36 -46 35 -66 59 -87 103 -15 32 -34 70 -42 86 -15 26 -12 47 6 47 5 0 12 -4 15 -10z m447 -97 c53 -26 78 -44 78 -56 0 -16 -80 -98 -85 -87 -2 3 -11 -2 -21 -12 -29 -25 -154 -52 -154 -33 0 2 10 24 22 47 16 30 22 59 21 98 -1 93 20 100 139 43z m-202 -223 c0 -5 -7 -10 -15 -10 -8 0 -15 5 -15 10 0 6 7 10 15 10 8 0 15 -4 15 -10z m175 -150 c63 -31 115 -78 115 -105 0 -19 -15 -32 -75 -65 -55 -30 -83 -40 -100 -36 -26 7 -25 3 -30 126 -1 30 -6 68 -10 84 -8 29 -7 29 26 22 18 -3 52 -15 74 -26z m-188 -22 c-3 -13 -11 -41 -17 -63 -7 -22 -14 -57 -17 -77 -5 -38 -17 -45 -81 -46 -36 -1 -70 -28 -74 -59 -2 -14 -9 -28 -15 -31 -25 -8 -26 31 -3 101 27 82 72 137 139 172 59 31 75 32 68 3z" transform="translate(0,106) scale(0.1,-0.1)" stroke="none" fill="#E5E3DF"/>

</g>

<g id="3" transform="translate(258.0,0)scale(1,1)">

<path d="M480 454 c0 -11 5 -26 11 -34 8 -12 9 -9 5 13 -8 35 1 34 79 -4 69 -34 121 -80 113 -101 -7 -18 -138 -89 -157 -86 -9 2 -16 14 -17 28 0 14 -6 36 -12 50 -12 24 -12 24 -7 -9 3 -18 5 -42 5 -52 0 -37 44 -34 125 11 60 33 75 46 75 65 0 40 -107 115 -188 131 -27 5 -32 4 -32 -12z" transform="translate(0,106) scale(0.1,-0.1)" stroke="none" fill="#38999E"/>

<path d="M482 838 c-5 -7 -9 -38 -9 -68 1 -39 -5 -68 -21 -98 -12 -23 -22 -45 -22 -47 0 -19 125 8 154 33 10 10 19 15 21 12 5 -11 85 71 85 87 0 12 -25 30 -78 56 -82 39 -113 45 -130 25z m120 -35 c43 -21 78 -42 78 -46 0 -15 -67 -77 -83 -77 -8 0 -17 -6 -20 -14 -6 -14 -114 -43 -124 -33 -2 3 3 20 13 39 10 19 18 60 19 98 1 36 3 66 4 68 6 10 48 -3 113 -35z" transform="translate(0,106) scale(0.1,-0.1)" stroke="none" fill="#38999E"/>

<path d="M135 910 c-3 -5 1 -22 9 -37 8 -16 27 -54 42 -86 21 -44 41 -68 87 -103 38 -30 63 -42 69 -36 6 6 7 43 1 98 -8 85 -9 89 -33 92 -41 5 -80 24 -91 43 -5 11 -18 19 -29 19 -10 0 -22 5 -25 10 -8 13 -22 13 -30 0z m55 -25 c17 -9 30 -20 30 -25 0 -5 24 -16 54 -25 l53 -16 8 -80 c3 -45 4 -83 1 -87 -3 -3 -32 17 -63 45 -42 36 -63 65 -79 104 -12 29 -27 55 -33 57 -11 4 -16 42 -6 42 4 0 19 -7 35 -15z" transform="translate(0,106) scale(0.1,-0.1)" stroke="none" fill="#38999E"/>

<path d="M329 415 c-67 -35 -112 -90 -139 -172 -23 -70 -22 -109 3 -101 6 3 14 18 17 34 4 21 15 34 40 46 21 11 28 18 17 18 -30 0 -67 -31 -67 -56 0 -13 -5 -24 -11 -24 -13 0 -9 22 22 109 18 51 32 71 71 102 49 39 85 55 95 45 4 -3 -1 -33 -10 -66 -10 -33 -17 -69 -17 -80 0 -15 -8 -22 -30 -27 -17 -3 -29 -8 -26 -10 2 -3 18 -2 34 2 25 5 31 12 35 43 3 20 10 55 17 77 28 98 27 101 -51 60z" transform="translate(0,106) scale(0.1,-0.1)" stroke="none" fill="#38999E"/>

<path d="M71 993 c-29 -23 -44 -92 -32 -140 6 -21 14 -54 19 -73 11 -45 27 -75 64 -122 23 -29 26 -38 14 -38 -26 0 -18 -17 22 -46 20 -16 41 -31 45 -35 9 -7 -57 -79 -72 -79 -5 0 -12 -7 -15 -16 -5 -13 -2 -15 14 -11 21 5 28 -7 10 -18 -23 -15 -78 -146 -70 -170 2 -5 2 -39 1 -75 -2 -61 0 -67 29 -95 l31 -30 62 33 c53 27 74 32 131 32 37 0 76 4 86 10 12 7 38 5 82 -6 l65 -16 79 39 c93 45 169 96 178 118 3 8 1 38 -4 65 -12 63 -69 135 -120 151 -19 6 -39 15 -45 19 -5 4 -29 11 -52 15 -52 8 -57 25 -8 25 37 0 42 9 25 41 -8 14 -7 19 3 19 25 0 75 30 126 76 114 103 69 204 -127 279 l-97 38 -60 -21 c-38 -13 -64 -17 -70 -11 -5 5 -22 9 -38 9 -16 0 -47 5 -68 12 -31 9 -44 8 -63 -2 -21 -11 -28 -10 -54 9 -17 11 -36 21 -44 21 -7 0 -4 -5 7 -12 11 -6 30 -20 42 -30 20 -19 22 -19 47 -3 21 14 31 15 57 6 18 -6 45 -11 60 -11 15 0 39 -5 52 -11 19 -9 31 -7 58 6 49 26 99 22 174 -14 37 -17 73 -31 79 -31 7 0 30 -18 51 -40 36 -37 40 -46 39 -91 0 -45 -4 -52 -44 -87 -59 -51 -111 -82 -137 -82 -26 0 -30 -12 -8 -30 26 -21 17 -30 -32 -30 -27 0 -56 -7 -65 -14 -23 -17 -23 -30 -2 -22 26 10 133 -15 185 -43 55 -31 119 -103 119 -136 0 -13 3 -31 6 -39 9 -24 -56 -79 -148 -126 -84 -43 -134 -50 -195 -28 -27 10 -38 10 -54 0 -13 -8 -49 -12 -99 -11 -69 2 -83 0 -102 -18 -13 -12 -35 -26 -49 -32 -21 -8 -30 -5 -51 14 -23 22 -25 28 -23 122 1 88 5 104 30 148 16 28 35 58 43 67 8 10 12 24 9 31 -3 8 8 29 26 47 l31 32 -24 20 c-20 16 -21 21 -9 28 11 7 5 19 -32 57 -54 56 -75 92 -100 180 -22 77 -16 128 19 166 29 31 25 36 -7 10z" transform="translate(0,106) scale(0.1,-0.1)" stroke="none" fill="#38999E"/>

<path d="M73 978 c-30 -34 -35 -88 -14 -161 25 -88 46 -124 100 -180 37 -38 43 -50 32 -57 -12 -7 -11 -12 10 -29 21 -18 22 -23 9 -34 -24 -21 -66 -71 -53 -63 15 8 18 -20 4 -28 -5 -3 -24 -32 -42 -64 -30 -53 -32 -64 -34 -156 -2 -93 0 -99 23 -121 21 -19 30 -22 51 -14 14 6 36 20 49 32 19 18 33 20 102 18 50 -1 86 3 99 11 16 10 27 10 54 0 61 -22 111 -15 195 28 92 47 157 102 148 126 -3 8 -6 26 -6 39 0 33 -64 105 -119 136 -52 28 -159 53 -185 43 -21 -8 -21 5 2 22 9 7 38 14 65 14 49 0 58 9 32 30 -22 18 -18 30 8 30 26 0 78 31 137 82 40 35 44 42 44 87 1 45 -3 54 -39 91 -21 22 -44 40 -51 40 -6 0 -42 14 -79 31 -75 36 -125 40 -174 14 -27 -13 -39 -15 -58 -6 -13 6 -37 11 -52 11 -15 0 -42 5 -60 11 -26 9 -36 8 -57 -6 -25 -16 -27 -16 -47 3 -20 18 -60 42 -70 42 -2 0 -13 -10 -24 -22z m92 -68 c3 -5 15 -10 25 -10 11 0 24 -8 29 -19 11 -19 50 -38 91 -43 24 -3 25 -7 33 -92 6 -55 5 -92 -1 -98 -6 -6 -31 6 -69 36 -46 35 -66 59 -87 103 -15 32 -34 70 -42 86 -15 26 -12 47 6 47 5 0 12 -4 15 -10z m447 -97 c53 -26 78 -44 78 -56 0 -16 -80 -98 -85 -87 -2 3 -11 -2 -21 -12 -29 -25 -154 -52 -154 -33 0 2 10 24 22 47 16 30 22 59 21 98 -1 93 20 100 139 43z m-202 -223 c0 -5 -7 -10 -15 -10 -8 0 -15 5 -15 10 0 6 7 10 15 10 8 0 15 -4 15 -10z m175 -150 c63 -31 115 -78 115 -105 0 -19 -15 -32 -75 -65 -55 -30 -83 -40 -100 -36 -26 7 -25 3 -30 126 -1 30 -6 68 -10 84 -8 29 -7 29 26 22 18 -3 52 -15 74 -26z m-188 -22 c-3 -13 -11 -41 -17 -63 -7 -22 -14 -57 -17 -77 -5 -38 -17 -45 -81 -46 -36 -1 -70 -28 -74 -59 -2 -14 -9 -28 -15 -31 -25 -8 -26 31 -3 101 27 82 72 137 139 172 59 31 75 32 68 3z" transform="translate(0,106) scale(0.1,-0.1)" stroke="none" fill="#E5E3DF"/>

</g>

<g id="4" transform="translate(344.0,0)scale(1,1)">

<path d="M480 454 c0 -11 5 -26 11 -34 8 -12 9 -9 5 13 -8 35 1 34 79 -4 69 -34 121 -80 113 -101 -7 -18 -138 -89 -157 -86 -9 2 -16 14 -17 28 0 14 -6 36 -12 50 -12 24 -12 24 -7 -9 3 -18 5 -42 5 -52 0 -37 44 -34 125 11 60 33 75 46 75 65 0 40 -107 115 -188 131 -27 5 -32 4 -32 -12z" transform="translate(0,106) scale(0.1,-0.1)" stroke="none" fill="#38999E"/>

<path d="M482 838 c-5 -7 -9 -38 -9 -68 1 -39 -5 -68 -21 -98 -12 -23 -22 -45 -22 -47 0 -19 125 8 154 33 10 10 19 15 21 12 5 -11 85 71 85 87 0 12 -25 30 -78 56 -82 39 -113 45 -130 25z m120 -35 c43 -21 78 -42 78 -46 0 -15 -67 -77 -83 -77 -8 0 -17 -6 -20 -14 -6 -14 -114 -43 -124 -33 -2 3 3 20 13 39 10 19 18 60 19 98 1 36 3 66 4 68 6 10 48 -3 113 -35z" transform="translate(0,106) scale(0.1,-0.1)" stroke="none" fill="#38999E"/>

<path d="M135 910 c-3 -5 1 -22 9 -37 8 -16 27 -54 42 -86 21 -44 41 -68 87 -103 38 -30 63 -42 69 -36 6 6 7 43 1 98 -8 85 -9 89 -33 92 -41 5 -80 24 -91 43 -5 11 -18 19 -29 19 -10 0 -22 5 -25 10 -8 13 -22 13 -30 0z m55 -25 c17 -9 30 -20 30 -25 0 -5 24 -16 54 -25 l53 -16 8 -80 c3 -45 4 -83 1 -87 -3 -3 -32 17 -63 45 -42 36 -63 65 -79 104 -12 29 -27 55 -33 57 -11 4 -16 42 -6 42 4 0 19 -7 35 -15z" transform="translate(0,106) scale(0.1,-0.1)" stroke="none" fill="#38999E"/>

<path d="M329 415 c-67 -35 -112 -90 -139 -172 -23 -70 -22 -109 3 -101 6 3 14 18 17 34 4 21 15 34 40 46 21 11 28 18 17 18 -30 0 -67 -31 -67 -56 0 -13 -5 -24 -11 -24 -13 0 -9 22 22 109 18 51 32 71 71 102 49 39 85 55 95 45 4 -3 -1 -33 -10 -66 -10 -33 -17 -69 -17 -80 0 -15 -8 -22 -30 -27 -17 -3 -29 -8 -26 -10 2 -3 18 -2 34 2 25 5 31 12 35 43 3 20 10 55 17 77 28 98 27 101 -51 60z" transform="translate(0,106) scale(0.1,-0.1)" stroke="none" fill="#38999E"/>

<path d="M71 993 c-29 -23 -44 -92 -32 -140 6 -21 14 -54 19 -73 11 -45 27 -75 64 -122 23 -29 26 -38 14 -38 -26 0 -18 -17 22 -46 20 -16 41 -31 45 -35 9 -7 -57 -79 -72 -79 -5 0 -12 -7 -15 -16 -5 -13 -2 -15 14 -11 21 5 28 -7 10 -18 -23 -15 -78 -146 -70 -170 2 -5 2 -39 1 -75 -2 -61 0 -67 29 -95 l31 -30 62 33 c53 27 74 32 131 32 37 0 76 4 86 10 12 7 38 5 82 -6 l65 -16 79 39 c93 45 169 96 178 118 3 8 1 38 -4 65 -12 63 -69 135 -120 151 -19 6 -39 15 -45 19 -5 4 -29 11 -52 15 -52 8 -57 25 -8 25 37 0 42 9 25 41 -8 14 -7 19 3 19 25 0 75 30 126 76 114 103 69 204 -127 279 l-97 38 -60 -21 c-38 -13 -64 -17 -70 -11 -5 5 -22 9 -38 9 -16 0 -47 5 -68 12 -31 9 -44 8 -63 -2 -21 -11 -28 -10 -54 9 -17 11 -36 21 -44 21 -7 0 -4 -5 7 -12 11 -6 30 -20 42 -30 20 -19 22 -19 47 -3 21 14 31 15 57 6 18 -6 45 -11 60 -11 15 0 39 -5 52 -11 19 -9 31 -7 58 6 49 26 99 22 174 -14 37 -17 73 -31 79 -31 7 0 30 -18 51 -40 36 -37 40 -46 39 -91 0 -45 -4 -52 -44 -87 -59 -51 -111 -82 -137 -82 -26 0 -30 -12 -8 -30 26 -21 17 -30 -32 -30 -27 0 -56 -7 -65 -14 -23 -17 -23 -30 -2 -22 26 10 133 -15 185 -43 55 -31 119 -103 119 -136 0 -13 3 -31 6 -39 9 -24 -56 -79 -148 -126 -84 -43 -134 -50 -195 -28 -27 10 -38 10 -54 0 -13 -8 -49 -12 -99 -11 -69 2 -83 0 -102 -18 -13 -12 -35 -26 -49 -32 -21 -8 -30 -5 -51 14 -23 22 -25 28 -23 122 1 88 5 104 30 148 16 28 35 58 43 67 8 10 12 24 9 31 -3 8 8 29 26 47 l31 32 -24 20 c-20 16 -21 21 -9 28 11 7 5 19 -32 57 -54 56 -75 92 -100 180 -22 77 -16 128 19 166 29 31 25 36 -7 10z" transform="translate(0,106) scale(0.1,-0.1)" stroke="none" fill="#38999E"/>

<path d="M73 978 c-30 -34 -35 -88 -14 -161 25 -88 46 -124 100 -180 37 -38 43 -50 32 -57 -12 -7 -11 -12 10 -29 21 -18 22 -23 9 -34 -24 -21 -66 -71 -53 -63 15 8 18 -20 4 -28 -5 -3 -24 -32 -42 -64 -30 -53 -32 -64 -34 -156 -2 -93 0 -99 23 -121 21 -19 30 -22 51 -14 14 6 36 20 49 32 19 18 33 20 102 18 50 -1 86 3 99 11 16 10 27 10 54 0 61 -22 111 -15 195 28 92 47 157 102 148 126 -3 8 -6 26 -6 39 0 33 -64 105 -119 136 -52 28 -159 53 -185 43 -21 -8 -21 5 2 22 9 7 38 14 65 14 49 0 58 9 32 30 -22 18 -18 30 8 30 26 0 78 31 137 82 40 35 44 42 44 87 1 45 -3 54 -39 91 -21 22 -44 40 -51 40 -6 0 -42 14 -79 31 -75 36 -125 40 -174 14 -27 -13 -39 -15 -58 -6 -13 6 -37 11 -52 11 -15 0 -42 5 -60 11 -26 9 -36 8 -57 -6 -25 -16 -27 -16 -47 3 -20 18 -60 42 -70 42 -2 0 -13 -10 -24 -22z m92 -68 c3 -5 15 -10 25 -10 11 0 24 -8 29 -19 11 -19 50 -38 91 -43 24 -3 25 -7 33 -92 6 -55 5 -92 -1 -98 -6 -6 -31 6 -69 36 -46 35 -66 59 -87 103 -15 32 -34 70 -42 86 -15 26 -12 47 6 47 5 0 12 -4 15 -10z m447 -97 c53 -26 78 -44 78 -56 0 -16 -80 -98 -85 -87 -2 3 -11 -2 -21 -12 -29 -25 -154 -52 -154 -33 0 2 10 24 22 47 16 30 22 59 21 98 -1 93 20 100 139 43z m-202 -223 c0 -5 -7 -10 -15 -10 -8 0 -15 5 -15 10 0 6 7 10 15 10 8 0 15 -4 15 -10z m175 -150 c63 -31 115 -78 115 -105 0 -19 -15 -32 -75 -65 -55 -30 -83 -40 -100 -36 -26 7 -25 3 -30 126 -1 30 -6 68 -10 84 -8 29 -7 29 26 22 18 -3 52 -15 74 -26z m-188 -22 c-3 -13 -11 -41 -17 -63 -7 -22 -14 -57 -17 -77 -5 -38 -17 -45 -81 -46 -36 -1 -70 -28 -74 -59 -2 -14 -9 -28 -15 -31 -25 -8 -26 31 -3 101 27 82 72 137 139 172 59 31 75 32 68 3z" transform="translate(0,106) scale(0.1,-0.1)" stroke="none" fill="#E5E3DF"/>

</g>

</g>
<g id="row2" transform="translate(11,212.0)">
<g id="0" transform="translate(0.0,0)scale(1,1)">

<path d="M480 454 c0 -11 5 -26 11 -34 8 -12 9 -9 5 13 -8 35 1 34 79 -4 69 -34 121 -80 113 -101 -7 -18 -138 -89 -157 -86 -9 2 -16 14 -17 28 0 14 -6 36 -12 50 -12 24 -12 24 -7 -9 3 -18 5 -42 5 -52 0 -37 44 -34 125 11 60 33 75 46 75 65 0 40 -107 115 -188 131 -27 5 -32 4 -32 -12z" transform="translate(0,106) scale(0.1,-0.1)" stroke="none" fill="#38999E"/>

<path d="M482 838 c-5 -7 -9 -38 -9 -68 1 -39 -5 -68 -21 -98 -12 -23 -22 -45 -22 -47 0 -19 125 8 154 33 10 10 19 15 21 12 5 -11 85 71 85 87 0 12 -25 30 -78 56 -82 39 -113 45 -130 25z m120 -35 c43 -21 78 -42 78 -46 0 -15 -67 -77 -83 -77 -8 0 -17 -6 -20 -14 -6 -14 -114 -43 -124 -33 -2 3 3 20 13 39 10 19 18 60 19 98 1 36 3 66 4 68 6 10 48 -3 113 -35z" transform="translate(0,106) scale(0.1,-0.1)" stroke="none" fill="#38999E"/>

<path d="M135 910 c-3 -5 1 -22 9 -37 8 -16 27 -54 42 -86 21 -44 41 -68 87 -103 38 -30 63 -42 69 -36 6 6 7 43 1 98 -8 85 -9 89 -33 92 -41 5 -80 24 -91 43 -5 11 -18 19 -29 19 -10 0 -22 5 -25 10 -8 13 -22 13 -30 0z m55 -25 c17 -9 30 -20 30 -25 0 -5 24 -16 54 -25 l53 -16 8 -80 c3 -45 4 -83 1 -87 -3 -3 -32 17 -63 45 -42 36 -63 65 -79 104 -12 29 -27 55 -33 57 -11 4 -16 42 -6 42 4 0 19 -7 35 -15z" transform="translate(0,106) scale(0.1,-0.1)" stroke="none" fill="#38999E"/>

<path d="M329 415 c-67 -35 -112 -90 -139 -172 -23 -70 -22 -109 3 -101 6 3 14 18 17 34 4 21 15 34 40 46 21 11 28 18 17 18 -30 0 -67 -31 -67 -56 0 -13 -5 -24 -11 -24 -13 0 -9 22 22 109 18 51 32 71 71 102 49 39 85 55 95 45 4 -3 -1 -33 -10 -66 -10 -33 -17 -69 -17 -80 0 -15 -8 -22 -30 -27 -17 -3 -29 -8 -26 -10 2 -3 18 -2 34 2 25 5 31 12 35 43 3 20 10 55 17 77 28 98 27 101 -51 60z" transform="translate(0,106) scale(0.1,-0.1)" stroke="none" fill="#38999E"/>

<path d="M71 993 c-29 -23 -44 -92 -32 -140 6 -21 14 -54 19 -73 11 -45 27 -75 64 -122 23 -29 26 -38 14 -38 -26 0 -18 -17 22 -46 20 -16 41 -31 45 -35 9 -7 -57 -79 -72 -79 -5 0 -12 -7 -15 -16 -5 -13 -2 -15 14 -11 21 5 28 -7 10 -18 -23 -15 -78 -146 -70 -170 2 -5 2 -39 1 -75 -2 -61 0 -67 29 -95 l31 -30 62 33 c53 27 74 32 131 32 37 0 76 4 86 10 12 7 38 5 82 -6 l65 -16 79 39 c93 45 169 96 178 118 3 8 1 38 -4 65 -12 63 -69 135 -120 151 -19 6 -39 15 -45 19 -5 4 -29 11 -52 15 -52 8 -57 25 -8 25 37 0 42 9 25 41 -8 14 -7 19 3 19 25 0 75 30 126 76 114 103 69 204 -127 279 l-97 38 -60 -21 c-38 -13 -64 -17 -70 -11 -5 5 -22 9 -38 9 -16 0 -47 5 -68 12 -31 9 -44 8 -63 -2 -21 -11 -28 -10 -54 9 -17 11 -36 21 -44 21 -7 0 -4 -5 7 -12 11 -6 30 -20 42 -30 20 -19 22 -19 47 -3 21 14 31 15 57 6 18 -6 45 -11 60 -11 15 0 39 -5 52 -11 19 -9 31 -7 58 6 49 26 99 22 174 -14 37 -17 73 -31 79 -31 7 0 30 -18 51 -40 36 -37 40 -46 39 -91 0 -45 -4 -52 -44 -87 -59 -51 -111 -82 -137 -82 -26 0 -30 -12 -8 -30 26 -21 17 -30 -32 -30 -27 0 -56 -7 -65 -14 -23 -17 -23 -30 -2 -22 26 10 133 -15 185 -43 55 -31 119 -103 119 -136 0 -13 3 -31 6 -39 9 -24 -56 -79 -148 -126 -84 -43 -134 -50 -195 -28 -27 10 -38 10 -54 0 -13 -8 -49 -12 -99 -11 -69 2 -83 0 -102 -18 -13 -12 -35 -26 -49 -32 -21 -8 -30 -5 -51 14 -23 22 -25 28 -23 122 1 88 5 104 30 148 16 28 35 58 43 67 8 10 12 24 9 31 -3 8 8 29 26 47 l31 32 -24 20 c-20 16 -21 21 -9 28 11 7 5 19 -32 57 -54 56 -75 92 -100 180 -22 77 -16 128 19 166 29 31 25 36 -7 10z" transform="translate(0,106) scale(0.1,-0.1)" stroke="none" fill="#38999E"/>

<path d="M73 978 c-30 -34 -35 -88 -14 -161 25 -88 46 -124 100 -180 37 -38 43 -50 32 -57 -12 -7 -11 -12 10 -29 21 -18 22 -23 9 -34 -24 -21 -66 -71 -53 -63 15 8 18 -20 4 -28 -5 -3 -24 -32 -42 -64 -30 -53 -32 -64 -34 -156 -2 -93 0 -99 23 -121 21 -19 30 -22 51 -14 14 6 36 20 49 32 19 18 33 20 102 18 50 -1 86 3 99 11 16 10 27 10 54 0 61 -22 111 -15 195 28 92 47 157 102 148 126 -3 8 -6 26 -6 39 0 33 -64 105 -119 136 -52 28 -159 53 -185 43 -21 -8 -21 5 2 22 9 7 38 14 65 14 49 0 58 9 32 30 -22 18 -18 30 8 30 26 0 78 31 137 82 40 35 44 42 44 87 1 45 -3 54 -39 91 -21 22 -44 40 -51 40 -6 0 -42 14 -79 31 -75 36 -125 40 -174 14 -27 -13 -39 -15 -58 -6 -13 6 -37 11 -52 11 -15 0 -42 5 -60 11 -26 9 -36 8 -57 -6 -25 -16 -27 -16 -47 3 -20 18 -60 42 -70 42 -2 0 -13 -10 -24 -22z m92 -68 c3 -5 15 -10 25 -10 11 0 24 -8 29 -19 11 -19 50 -38 91 -43 24 -3 25 -7 33 -92 6 -55 5 -92 -1 -98 -6 -6 -31 6 -69 36 -46 35 -66 59 -87 103 -15 32 -34 70 -42 86 -15 26 -12 47 6 47 5 0 12 -4 15 -10z m447 -97 c53 -26 78 -44 78 -56 0 -16 -80 -98 -85 -87 -2 3 -11 -2 -21 -12 -29 -25 -154 -52 -154 -33 0 2 10 24 22 47 16 30 22 59 21 98 -1 93 20 100 139 43z m-202 -223 c0 -5 -7 -10 -15 -10 -8 0 -15 5 -15 10 0 6 7 10 15 10 8 0 15 -4 15 -10z m175 -150 c63 -31 115 -78 115 -105 0 -19 -15 -32 -75 -65 -55 -30 -83 -40 -100 -36 -26 7 -25 3 -30 126 -1 30 -6 68 -10 84 -8 29 -7 29 26 22 18 -3 52 -15 74 -26z m-188 -22 c-3 -13 -11 -41 -17 -63 -7 -22 -14 -57 -17 -77 -5 -38 -17 -45 -81 -46 -36 -1 -70 -28 -74 -59 -2 -14 -9 -28 -15 -31 -25 -8 -26 31 -3 101 27 82 72 137 139 172 59 31 75 32 68 3z" transform="translate(0,106) scale(0.1,-0.1)" stroke="none" fill="#E5E3DF"/>

</g>

<g id="1" transform="translate(86.0,0)scale(1,1)">

<path d="M480 454 c0 -11 5 -26 11 -34 8 -12 9 -9 5 13 -8 35 1 34 79 -4 69 -34 121 -80 113 -101 -7 -18 -138 -89 -157 -86 -9 2 -16 14 -17 28 0 14 -6 36 -12 50 -12 24 -12 24 -7 -9 3 -18 5 -42 5 -52 0 -37 44 -34 125 11 60 33 75 46 75 65 0 40 -107 115 -188 131 -27 5 -32 4 -32 -12z" transform="translate(0,106) scale(0.1,-0.1)" stroke="none" fill="#38999E"/>

<path d="M482 838 c-5 -7 -9 -38 -9 -68 1 -39 -5 -68 -21 -98 -12 -23 -22 -45 -22 -47 0 -19 125 8 154 33 10 10 19 15 21 12 5 -11 85 71 85 87 0 12 -25 30 -78 56 -82 39 -113 45 -130 25z m120 -35 c43 -21 78 -42 78 -46 0 -15 -67 -77 -83 -77 -8 0 -17 -6 -20 -14 -6 -14 -114 -43 -124 -33 -2 3 3 20 13 39 10 19 18 60 19 98 1 36 3 66 4 68 6 10 48 -3 113 -35z" transform="translate(0,106) scale(0.1,-0.1)" stroke="none" fill="#38999E"/>

<path d="M135 910 c-3 -5 1 -22 9 -37 8 -16 27 -54 42 -86 21 -44 41 -68 87 -103 38 -30 63 -42 69 -36 6 6 7 43 1 98 -8 85 -9 89 -33 92 -41 5 -80 24 -91 43 -5 11 -18 19 -29 19 -10 0 -22 5 -25 10 -8 13 -22 13 -30 0z m55 -25 c17 -9 30 -20 30 -25 0 -5 24 -16 54 -25 l53 -16 8 -80 c3 -45 4 -83 1 -87 -3 -3 -32 17 -63 45 -42 36 -63 65 -79 104 -12 29 -27 55 -33 57 -11 4 -16 42 -6 42 4 0 19 -7 35 -15z" transform="translate(0,106) scale(0.1,-0.1)" stroke="none" fill="#38999E"/>

<path d="M329 415 c-67 -35 -112 -90 -139 -172 -23 -70 -22 -109 3 -101 6 3 14 18 17 34 4 21 15 34 40 46 21 11 28 18 17 18 -30 0 -67 -31 -67 -56 0 -13 -5 -24 -11 -24 -13 0 -9 22 22 109 18 51 32 71 71 102 49 39 85 55 95 45 4 -3 -1 -33 -10 -66 -10 -33 -17 -69 -17 -80 0 -15 -8 -22 -30 -27 -17 -3 -29 -8 -26 -10 2 -3 18 -2 34 2 25 5 31 12 35 43 3 20 10 55 17 77 28 98 27 101 -51 60z" transform="translate(0,106) scale(0.1,-0.1)" stroke="none" fill="#38999E"/>

<path d="M71 993 c-29 -23 -44 -92 -32 -140 6 -21 14 -54 19 -73 11 -45 27 -75 64 -122 23 -29 26 -38 14 -38 -26 0 -18 -17 22 -46 20 -16 41 -31 45 -35 9 -7 -57 -79 -72 -79 -5 0 -12 -7 -15 -16 -5 -13 -2 -15 14 -11 21 5 28 -7 10 -18 -23 -15 -78 -146 -70 -170 2 -5 2 -39 1 -75 -2 -61 0 -67 29 -95 l31 -30 62 33 c53 27 74 32 131 32 37 0 76 4 86 10 12 7 38 5 82 -6 l65 -16 79 39 c93 45 169 96 178 118 3 8 1 38 -4 65 -12 63 -69 135 -120 151 -19 6 -39 15 -45 19 -5 4 -29 11 -52 15 -52 8 -57 25 -8 25 37 0 42 9 25 41 -8 14 -7 19 3 19 25 0 75 30 126 76 114 103 69 204 -127 279 l-97 38 -60 -21 c-38 -13 -64 -17 -70 -11 -5 5 -22 9 -38 9 -16 0 -47 5 -68 12 -31 9 -44 8 -63 -2 -21 -11 -28 -10 -54 9 -17 11 -36 21 -44 21 -7 0 -4 -5 7 -12 11 -6 30 -20 42 -30 20 -19 22 -19 47 -3 21 14 31 15 57 6 18 -6 45 -11 60 -11 15 0 39 -5 52 -11 19 -9 31 -7 58 6 49 26 99 22 174 -14 37 -17 73 -31 79 -31 7 0 30 -18 51 -40 36 -37 40 -46 39 -91 0 -45 -4 -52 -44 -87 -59 -51 -111 -82 -137 -82 -26 0 -30 -12 -8 -30 26 -21 17 -30 -32 -30 -27 0 -56 -7 -65 -14 -23 -17 -23 -30 -2 -22 26 10 133 -15 185 -43 55 -31 119 -103 119 -136 0 -13 3 -31 6 -39 9 -24 -56 -79 -148 -126 -84 -43 -134 -50 -195 -28 -27 10 -38 10 -54 0 -13 -8 -49 -12 -99 -11 -69 2 -83 0 -102 -18 -13 -12 -35 -26 -49 -32 -21 -8 -30 -5 -51 14 -23 22 -25 28 -23 122 1 88 5 104 30 148 16 28 35 58 43 67 8 10 12 24 9 31 -3 8 8 29 26 47 l31 32 -24 20 c-20 16 -21 21 -9 28 11 7 5 19 -32 57 -54 56 -75 92 -100 180 -22 77 -16 128 19 166 29 31 25 36 -7 10z" transform="translate(0,106) scale(0.1,-0.1)" stroke="none" fill="#38999E"/>

<path d="M73 978 c-30 -34 -35 -88 -14 -161 25 -88 46 -124 100 -180 37 -38 43 -50 32 -57 -12 -7 -11 -12 10 -29 21 -18 22 -23 9 -34 -24 -21 -66 -71 -53 -63 15 8 18 -20 4 -28 -5 -3 -24 -32 -42 -64 -30 -53 -32 -64 -34 -156 -2 -93 0 -99 23 -121 21 -19 30 -22 51 -14 14 6 36 20 49 32 19 18 33 20 102 18 50 -1 86 3 99 11 16 10 27 10 54 0 61 -22 111 -15 195 28 92 47 157 102 148 126 -3 8 -6 26 -6 39 0 33 -64 105 -119 136 -52 28 -159 53 -185 43 -21 -8 -21 5 2 22 9 7 38 14 65 14 49 0 58 9 32 30 -22 18 -18 30 8 30 26 0 78 31 137 82 40 35 44 42 44 87 1 45 -3 54 -39 91 -21 22 -44 40 -51 40 -6 0 -42 14 -79 31 -75 36 -125 40 -174 14 -27 -13 -39 -15 -58 -6 -13 6 -37 11 -52 11 -15 0 -42 5 -60 11 -26 9 -36 8 -57 -6 -25 -16 -27 -16 -47 3 -20 18 -60 42 -70 42 -2 0 -13 -10 -24 -22z m92 -68 c3 -5 15 -10 25 -10 11 0 24 -8 29 -19 11 -19 50 -38 91 -43 24 -3 25 -7 33 -92 6 -55 5 -92 -1 -98 -6 -6 -31 6 -69 36 -46 35 -66 59 -87 103 -15 32 -34 70 -42 86 -15 26 -12 47 6 47 5 0 12 -4 15 -10z m447 -97 c53 -26 78 -44 78 -56 0 -16 -80 -98 -85 -87 -2 3 -11 -2 -21 -12 -29 -25 -154 -52 -154 -33 0 2 10 24 22 47 16 30 22 59 21 98 -1 93 20 100 139 43z m-202 -223 c0 -5 -7 -10 -15 -10 -8 0 -15 5 -15 10 0 6 7 10 15 10 8 0 15 -4 15 -10z m175 -150 c63 -31 115 -78 115 -105 0 -19 -15 -32 -75 -65 -55 -30 -83 -40 -100 -36 -26 7 -25 3 -30 126 -1 30 -6 68 -10 84 -8 29 -7 29 26 22 18 -3 52 -15 74 -26z m-188 -22 c-3 -13 -11 -41 -17 -63 -7 -22 -14 -57 -17 -77 -5 -38 -17 -45 -81 -46 -36 -1 -70 -28 -74 -59 -2 -14 -9 -28 -15 -31 -25 -8 -26 31 -3 101 27 82 72 137 139 172 59 31 75 32 68 3z" transform="translate(0,106) scale(0.1,-0.1)" stroke="none" fill="#E5E3DF"/>

</g>

<g id="2" transform="translate(172.0,0)scale(1,1)">

<path d="M480 454 c0 -11 5 -26 11 -34 8 -12 9 -9 5 13 -8 35 1 34 79 -4 69 -34 121 -80 113 -101 -7 -18 -138 -89 -157 -86 -9 2 -16 14 -17 28 0 14 -6 36 -12 50 -12 24 -12 24 -7 -9 3 -18 5 -42 5 -52 0 -37 44 -34 125 11 60 33 75 46 75 65 0 40 -107 115 -188 131 -27 5 -32 4 -32 -12z" transform="translate(0,106) scale(0.1,-0.1)" stroke="none" fill="#38999E"/>

<path d="M482 838 c-5 -7 -9 -38 -9 -68 1 -39 -5 -68 -21 -98 -12 -23 -22 -45 -22 -47 0 -19 125 8 154 33 10 10 19 15 21 12 5 -11 85 71 85 87 0 12 -25 30 -78 56 -82 39 -113 45 -130 25z m120 -35 c43 -21 78 -42 78 -46 0 -15 -67 -77 -83 -77 -8 0 -17 -6 -20 -14 -6 -14 -114 -43 -124 -33 -2 3 3 20 13 39 10 19 18 60 19 98 1 36 3 66 4 68 6 10 48 -3 113 -35z" transform="translate(0,106) scale(0.1,-0.1)" stroke="none" fill="#38999E"/>

<path d="M135 910 c-3 -5 1 -22 9 -37 8 -16 27 -54 42 -86 21 -44 41 -68 87 -103 38 -30 63 -42 69 -36 6 6 7 43 1 98 -8 85 -9 89 -33 92 -41 5 -80 24 -91 43 -5 11 -18 19 -29 19 -10 0 -22 5 -25 10 -8 13 -22 13 -30 0z m55 -25 c17 -9 30 -20 30 -25 0 -5 24 -16 54 -25 l53 -16 8 -80 c3 -45 4 -83 1 -87 -3 -3 -32 17 -63 45 -42 36 -63 65 -79 104 -12 29 -27 55 -33 57 -11 4 -16 42 -6 42 4 0 19 -7 35 -15z" transform="translate(0,106) scale(0.1,-0.1)" stroke="none" fill="#38999E"/>

<path d="M329 415 c-67 -35 -112 -90 -139 -172 -23 -70 -22 -109 3 -101 6 3 14 18 17 34 4 21 15 34 40 46 21 11 28 18 17 18 -30 0 -67 -31 -67 -56 0 -13 -5 -24 -11 -24 -13 0 -9 22 22 109 18 51 32 71 71 102 49 39 85 55 95 45 4 -3 -1 -33 -10 -66 -10 -33 -17 -69 -17 -80 0 -15 -8 -22 -30 -27 -17 -3 -29 -8 -26 -10 2 -3 18 -2 34 2 25 5 31 12 35 43 3 20 10 55 17 77 28 98 27 101 -51 60z" transform="translate(0,106) scale(0.1,-0.1)" stroke="none" fill="#38999E"/>

<path d="M71 993 c-29 -23 -44 -92 -32 -140 6 -21 14 -54 19 -73 11 -45 27 -75 64 -122 23 -29 26 -38 14 -38 -26 0 -18 -17 22 -46 20 -16 41 -31 45 -35 9 -7 -57 -79 -72 -79 -5 0 -12 -7 -15 -16 -5 -13 -2 -15 14 -11 21 5 28 -7 10 -18 -23 -15 -78 -146 -70 -170 2 -5 2 -39 1 -75 -2 -61 0 -67 29 -95 l31 -30 62 33 c53 27 74 32 131 32 37 0 76 4 86 10 12 7 38 5 82 -6 l65 -16 79 39 c93 45 169 96 178 118 3 8 1 38 -4 65 -12 63 -69 135 -120 151 -19 6 -39 15 -45 19 -5 4 -29 11 -52 15 -52 8 -57 25 -8 25 37 0 42 9 25 41 -8 14 -7 19 3 19 25 0 75 30 126 76 114 103 69 204 -127 279 l-97 38 -60 -21 c-38 -13 -64 -17 -70 -11 -5 5 -22 9 -38 9 -16 0 -47 5 -68 12 -31 9 -44 8 -63 -2 -21 -11 -28 -10 -54 9 -17 11 -36 21 -44 21 -7 0 -4 -5 7 -12 11 -6 30 -20 42 -30 20 -19 22 -19 47 -3 21 14 31 15 57 6 18 -6 45 -11 60 -11 15 0 39 -5 52 -11 19 -9 31 -7 58 6 49 26 99 22 174 -14 37 -17 73 -31 79 -31 7 0 30 -18 51 -40 36 -37 40 -46 39 -91 0 -45 -4 -52 -44 -87 -59 -51 -111 -82 -137 -82 -26 0 -30 -12 -8 -30 26 -21 17 -30 -32 -30 -27 0 -56 -7 -65 -14 -23 -17 -23 -30 -2 -22 26 10 133 -15 185 -43 55 -31 119 -103 119 -136 0 -13 3 -31 6 -39 9 -24 -56 -79 -148 -126 -84 -43 -134 -50 -195 -28 -27 10 -38 10 -54 0 -13 -8 -49 -12 -99 -11 -69 2 -83 0 -102 -18 -13 -12 -35 -26 -49 -32 -21 -8 -30 -5 -51 14 -23 22 -25 28 -23 122 1 88 5 104 30 148 16 28 35 58 43 67 8 10 12 24 9 31 -3 8 8 29 26 47 l31 32 -24 20 c-20 16 -21 21 -9 28 11 7 5 19 -32 57 -54 56 -75 92 -100 180 -22 77 -16 128 19 166 29 31 25 36 -7 10z" transform="translate(0,106) scale(0.1,-0.1)" stroke="none" fill="#38999E"/>

<path d="M73 978 c-30 -34 -35 -88 -14 -161 25 -88 46 -124 100 -180 37 -38 43 -50 32 -57 -12 -7 -11 -12 10 -29 21 -18 22 -23 9 -34 -24 -21 -66 -71 -53 -63 15 8 18 -20 4 -28 -5 -3 -24 -32 -42 -64 -30 -53 -32 -64 -34 -156 -2 -93 0 -99 23 -121 21 -19 30 -22 51 -14 14 6 36 20 49 32 19 18 33 20 102 18 50 -1 86 3 99 11 16 10 27 10 54 0 61 -22 111 -15 195 28 92 47 157 102 148 126 -3 8 -6 26 -6 39 0 33 -64 105 -119 136 -52 28 -159 53 -185 43 -21 -8 -21 5 2 22 9 7 38 14 65 14 49 0 58 9 32 30 -22 18 -18 30 8 30 26 0 78 31 137 82 40 35 44 42 44 87 1 45 -3 54 -39 91 -21 22 -44 40 -51 40 -6 0 -42 14 -79 31 -75 36 -125 40 -174 14 -27 -13 -39 -15 -58 -6 -13 6 -37 11 -52 11 -15 0 -42 5 -60 11 -26 9 -36 8 -57 -6 -25 -16 -27 -16 -47 3 -20 18 -60 42 -70 42 -2 0 -13 -10 -24 -22z m92 -68 c3 -5 15 -10 25 -10 11 0 24 -8 29 -19 11 -19 50 -38 91 -43 24 -3 25 -7 33 -92 6 -55 5 -92 -1 -98 -6 -6 -31 6 -69 36 -46 35 -66 59 -87 103 -15 32 -34 70 -42 86 -15 26 -12 47 6 47 5 0 12 -4 15 -10z m447 -97 c53 -26 78 -44 78 -56 0 -16 -80 -98 -85 -87 -2 3 -11 -2 -21 -12 -29 -25 -154 -52 -154 -33 0 2 10 24 22 47 16 30 22 59 21 98 -1 93 20 100 139 43z m-202 -223 c0 -5 -7 -10 -15 -10 -8 0 -15 5 -15 10 0 6 7 10 15 10 8 0 15 -4 15 -10z m175 -150 c63 -31 115 -78 115 -105 0 -19 -15 -32 -75 -65 -55 -30 -83 -40 -100 -36 -26 7 -25 3 -30 126 -1 30 -6 68 -10 84 -8 29 -7 29 26 22 18 -3 52 -15 74 -26z m-188 -22 c-3 -13 -11 -41 -17 -63 -7 -22 -14 -57 -17 -77 -5 -38 -17 -45 -81 -46 -36 -1 -70 -28 -74 -59 -2 -14 -9 -28 -15 -31 -25 -8 -26 31 -3 101 27 82 72 137 139 172 59 31 75 32 68 3z" transform="translate(0,106) scale(0.1,-0.1)" stroke="none" fill="#E5E3DF"/>

</g>

<g id="3" transform="translate(258.0,0)scale(1,1)">

<path d="M480 454 c0 -11 5 -26 11 -34 8 -12 9 -9 5 13 -8 35 1 34 79 -4 69 -34 121 -80 113 -101 -7 -18 -138 -89 -157 -86 -9 2 -16 14 -17 28 0 14 -6 36 -12 50 -12 24 -12 24 -7 -9 3 -18 5 -42 5 -52 0 -37 44 -34 125 11 60 33 75 46 75 65 0 40 -107 115 -188 131 -27 5 -32 4 -32 -12z" transform="translate(0,106) scale(0.1,-0.1)" stroke="none" fill="#38999E"/>

<path d="M482 838 c-5 -7 -9 -38 -9 -68 1 -39 -5 -68 -21 -98 -12 -23 -22 -45 -22 -47 0 -19 125 8 154 33 10 10 19 15 21 12 5 -11 85 71 85 87 0 12 -25 30 -78 56 -82 39 -113 45 -130 25z m120 -35 c43 -21 78 -42 78 -46 0 -15 -67 -77 -83 -77 -8 0 -17 -6 -20 -14 -6 -14 -114 -43 -124 -33 -2 3 3 20 13 39 10 19 18 60 19 98 1 36 3 66 4 68 6 10 48 -3 113 -35z" transform="translate(0,106) scale(0.1,-0.1)" stroke="none" fill="#38999E"/>

<path d="M135 910 c-3 -5 1 -22 9 -37 8 -16 27 -54 42 -86 21 -44 41 -68 87 -103 38 -30 63 -42 69 -36 6 6 7 43 1 98 -8 85 -9 89 -33 92 -41 5 -80 24 -91 43 -5 11 -18 19 -29 19 -10 0 -22 5 -25 10 -8 13 -22 13 -30 0z m55 -25 c17 -9 30 -20 30 -25 0 -5 24 -16 54 -25 l53 -16 8 -80 c3 -45 4 -83 1 -87 -3 -3 -32 17 -63 45 -42 36 -63 65 -79 104 -12 29 -27 55 -33 57 -11 4 -16 42 -6 42 4 0 19 -7 35 -15z" transform="translate(0,106) scale(0.1,-0.1)" stroke="none" fill="#38999E"/>

<path d="M329 415 c-67 -35 -112 -90 -139 -172 -23 -70 -22 -109 3 -101 6 3 14 18 17 34 4 21 15 34 40 46 21 11 28 18 17 18 -30 0 -67 -31 -67 -56 0 -13 -5 -24 -11 -24 -13 0 -9 22 22 109 18 51 32 71 71 102 49 39 85 55 95 45 4 -3 -1 -33 -10 -66 -10 -33 -17 -69 -17 -80 0 -15 -8 -22 -30 -27 -17 -3 -29 -8 -26 -10 2 -3 18 -2 34 2 25 5 31 12 35 43 3 20 10 55 17 77 28 98 27 101 -51 60z" transform="translate(0,106) scale(0.1,-0.1)" stroke="none" fill="#38999E"/>

<path d="M71 993 c-29 -23 -44 -92 -32 -140 6 -21 14 -54 19 -73 11 -45 27 -75 64 -122 23 -29 26 -38 14 -38 -26 0 -18 -17 22 -46 20 -16 41 -31 45 -35 9 -7 -57 -79 -72 -79 -5 0 -12 -7 -15 -16 -5 -13 -2 -15 14 -11 21 5 28 -7 10 -18 -23 -15 -78 -146 -70 -170 2 -5 2 -39 1 -75 -2 -61 0 -67 29 -95 l31 -30 62 33 c53 27 74 32 131 32 37 0 76 4 86 10 12 7 38 5 82 -6 l65 -16 79 39 c93 45 169 96 178 118 3 8 1 38 -4 65 -12 63 -69 135 -120 151 -19 6 -39 15 -45 19 -5 4 -29 11 -52 15 -52 8 -57 25 -8 25 37 0 42 9 25 41 -8 14 -7 19 3 19 25 0 75 30 126 76 114 103 69 204 -127 279 l-97 38 -60 -21 c-38 -13 -64 -17 -70 -11 -5 5 -22 9 -38 9 -16 0 -47 5 -68 12 -31 9 -44 8 -63 -2 -21 -11 -28 -10 -54 9 -17 11 -36 21 -44 21 -7 0 -4 -5 7 -12 11 -6 30 -20 42 -30 20 -19 22 -19 47 -3 21 14 31 15 57 6 18 -6 45 -11 60 -11 15 0 39 -5 52 -11 19 -9 31 -7 58 6 49 26 99 22 174 -14 37 -17 73 -31 79 -31 7 0 30 -18 51 -40 36 -37 40 -46 39 -91 0 -45 -4 -52 -44 -87 -59 -51 -111 -82 -137 -82 -26 0 -30 -12 -8 -30 26 -21 17 -30 -32 -30 -27 0 -56 -7 -65 -14 -23 -17 -23 -30 -2 -22 26 10 133 -15 185 -43 55 -31 119 -103 119 -136 0 -13 3 -31 6 -39 9 -24 -56 -79 -148 -126 -84 -43 -134 -50 -195 -28 -27 10 -38 10 -54 0 -13 -8 -49 -12 -99 -11 -69 2 -83 0 -102 -18 -13 -12 -35 -26 -49 -32 -21 -8 -30 -5 -51 14 -23 22 -25 28 -23 122 1 88 5 104 30 148 16 28 35 58 43 67 8 10 12 24 9 31 -3 8 8 29 26 47 l31 32 -24 20 c-20 16 -21 21 -9 28 11 7 5 19 -32 57 -54 56 -75 92 -100 180 -22 77 -16 128 19 166 29 31 25 36 -7 10z" transform="translate(0,106) scale(0.1,-0.1)" stroke="none" fill="#38999E"/>

<path d="M73 978 c-30 -34 -35 -88 -14 -161 25 -88 46 -124 100 -180 37 -38 43 -50 32 -57 -12 -7 -11 -12 10 -29 21 -18 22 -23 9 -34 -24 -21 -66 -71 -53 -63 15 8 18 -20 4 -28 -5 -3 -24 -32 -42 -64 -30 -53 -32 -64 -34 -156 -2 -93 0 -99 23 -121 21 -19 30 -22 51 -14 14 6 36 20 49 32 19 18 33 20 102 18 50 -1 86 3 99 11 16 10 27 10 54 0 61 -22 111 -15 195 28 92 47 157 102 148 126 -3 8 -6 26 -6 39 0 33 -64 105 -119 136 -52 28 -159 53 -185 43 -21 -8 -21 5 2 22 9 7 38 14 65 14 49 0 58 9 32 30 -22 18 -18 30 8 30 26 0 78 31 137 82 40 35 44 42 44 87 1 45 -3 54 -39 91 -21 22 -44 40 -51 40 -6 0 -42 14 -79 31 -75 36 -125 40 -174 14 -27 -13 -39 -15 -58 -6 -13 6 -37 11 -52 11 -15 0 -42 5 -60 11 -26 9 -36 8 -57 -6 -25 -16 -27 -16 -47 3 -20 18 -60 42 -70 42 -2 0 -13 -10 -24 -22z m92 -68 c3 -5 15 -10 25 -10 11 0 24 -8 29 -19 11 -19 50 -38 91 -43 24 -3 25 -7 33 -92 6 -55 5 -92 -1 -98 -6 -6 -31 6 -69 36 -46 35 -66 59 -87 103 -15 32 -34 70 -42 86 -15 26 -12 47 6 47 5 0 12 -4 15 -10z m447 -97 c53 -26 78 -44 78 -56 0 -16 -80 -98 -85 -87 -2 3 -11 -2 -21 -12 -29 -25 -154 -52 -154 -33 0 2 10 24 22 47 16 30 22 59 21 98 -1 93 20 100 139 43z m-202 -223 c0 -5 -7 -10 -15 -10 -8 0 -15 5 -15 10 0 6 7 10 15 10 8 0 15 -4 15 -10z m175 -150 c63 -31 115 -78 115 -105 0 -19 -15 -32 -75 -65 -55 -30 -83 -40 -100 -36 -26 7 -25 3 -30 126 -1 30 -6 68 -10 84 -8 29 -7 29 26 22 18 -3 52 -15 74 -26z m-188 -22 c-3 -13 -11 -41 -17 -63 -7 -22 -14 -57 -17 -77 -5 -38 -17 -45 -81 -46 -36 -1 -70 -28 -74 -59 -2 -14 -9 -28 -15 -31 -25 -8 -26 31 -3 101 27 82 72 137 139 172 59 31 75 32 68 3z" transform="translate(0,106) scale(0.1,-0.1)" stroke="none" fill="#E5E3DF"/>

</g>

<g id="4" transform="translate(344.0,0)scale(1,1)">

<path d="M480 454 c0 -11 5 -26 11 -34 8 -12 9 -9 5 13 -8 35 1 34 79 -4 69 -34 121 -80 113 -101 -7 -18 -138 -89 -157 -86 -9 2 -16 14 -17 28 0 14 -6 36 -12 50 -12 24 -12 24 -7 -9 3 -18 5 -42 5 -52 0 -37 44 -34 125 11 60 33 75 46 75 65 0 40 -107 115 -188 131 -27 5 -32 4 -32 -12z" transform="translate(0,106) scale(0.1,-0.1)" stroke="none" fill="#38999E"/>

<path d="M482 838 c-5 -7 -9 -38 -9 -68 1 -39 -5 -68 -21 -98 -12 -23 -22 -45 -22 -47 0 -19 125 8 154 33 10 10 19 15 21 12 5 -11 85 71 85 87 0 12 -25 30 -78 56 -82 39 -113 45 -130 25z m120 -35 c43 -21 78 -42 78 -46 0 -15 -67 -77 -83 -77 -8 0 -17 -6 -20 -14 -6 -14 -114 -43 -124 -33 -2 3 3 20 13 39 10 19 18 60 19 98 1 36 3 66 4 68 6 10 48 -3 113 -35z" transform="translate(0,106) scale(0.1,-0.1)" stroke="none" fill="#38999E"/>

<path d="M135 910 c-3 -5 1 -22 9 -37 8 -16 27 -54 42 -86 21 -44 41 -68 87 -103 38 -30 63 -42 69 -36 6 6 7 43 1 98 -8 85 -9 89 -33 92 -41 5 -80 24 -91 43 -5 11 -18 19 -29 19 -10 0 -22 5 -25 10 -8 13 -22 13 -30 0z m55 -25 c17 -9 30 -20 30 -25 0 -5 24 -16 54 -25 l53 -16 8 -80 c3 -45 4 -83 1 -87 -3 -3 -32 17 -63 45 -42 36 -63 65 -79 104 -12 29 -27 55 -33 57 -11 4 -16 42 -6 42 4 0 19 -7 35 -15z" transform="translate(0,106) scale(0.1,-0.1)" stroke="none" fill="#38999E"/>

<path d="M329 415 c-67 -35 -112 -90 -139 -172 -23 -70 -22 -109 3 -101 6 3 14 18 17 34 4 21 15 34 40 46 21 11 28 18 17 18 -30 0 -67 -31 -67 -56 0 -13 -5 -24 -11 -24 -13 0 -9 22 22 109 18 51 32 71 71 102 49 39 85 55 95 45 4 -3 -1 -33 -10 -66 -10 -33 -17 -69 -17 -80 0 -15 -8 -22 -30 -27 -17 -3 -29 -8 -26 -10 2 -3 18 -2 34 2 25 5 31 12 35 43 3 20 10 55 17 77 28 98 27 101 -51 60z" transform="translate(0,106) scale(0.1,-0.1)" stroke="none" fill="#38999E"/>

<path d="M71 993 c-29 -23 -44 -92 -32 -140 6 -21 14 -54 19 -73 11 -45 27 -75 64 -122 23 -29 26 -38 14 -38 -26 0 -18 -17 22 -46 20 -16 41 -31 45 -35 9 -7 -57 -79 -72 -79 -5 0 -12 -7 -15 -16 -5 -13 -2 -15 14 -11 21 5 28 -7 10 -18 -23 -15 -78 -146 -70 -170 2 -5 2 -39 1 -75 -2 -61 0 -67 29 -95 l31 -30 62 33 c53 27 74 32 131 32 37 0 76 4 86 10 12 7 38 5 82 -6 l65 -16 79 39 c93 45 169 96 178 118 3 8 1 38 -4 65 -12 63 -69 135 -120 151 -19 6 -39 15 -45 19 -5 4 -29 11 -52 15 -52 8 -57 25 -8 25 37 0 42 9 25 41 -8 14 -7 19 3 19 25 0 75 30 126 76 114 103 69 204 -127 279 l-97 38 -60 -21 c-38 -13 -64 -17 -70 -11 -5 5 -22 9 -38 9 -16 0 -47 5 -68 12 -31 9 -44 8 -63 -2 -21 -11 -28 -10 -54 9 -17 11 -36 21 -44 21 -7 0 -4 -5 7 -12 11 -6 30 -20 42 -30 20 -19 22 -19 47 -3 21 14 31 15 57 6 18 -6 45 -11 60 -11 15 0 39 -5 52 -11 19 -9 31 -7 58 6 49 26 99 22 174 -14 37 -17 73 -31 79 -31 7 0 30 -18 51 -40 36 -37 40 -46 39 -91 0 -45 -4 -52 -44 -87 -59 -51 -111 -82 -137 -82 -26 0 -30 -12 -8 -30 26 -21 17 -30 -32 -30 -27 0 -56 -7 -65 -14 -23 -17 -23 -30 -2 -22 26 10 133 -15 185 -43 55 -31 119 -103 119 -136 0 -13 3 -31 6 -39 9 -24 -56 -79 -148 -126 -84 -43 -134 -50 -195 -28 -27 10 -38 10 -54 0 -13 -8 -49 -12 -99 -11 -69 2 -83 0 -102 -18 -13 -12 -35 -26 -49 -32 -21 -8 -30 -5 -51 14 -23 22 -25 28 -23 122 1 88 5 104 30 148 16 28 35 58 43 67 8 10 12 24 9 31 -3 8 8 29 26 47 l31 32 -24 20 c-20 16 -21 21 -9 28 11 7 5 19 -32 57 -54 56 -75 92 -100 180 -22 77 -16 128 19 166 29 31 25 36 -7 10z" transform="translate(0,106) scale(0.1,-0.1)" stroke="none" fill="#38999E"/>

<path d="M73 978 c-30 -34 -35 -88 -14 -161 25 -88 46 -124 100 -180 37 -38 43 -50 32 -57 -12 -7 -11 -12 10 -29 21 -18 22 -23 9 -34 -24 -21 -66 -71 -53 -63 15 8 18 -20 4 -28 -5 -3 -24 -32 -42 -64 -30 -53 -32 -64 -34 -156 -2 -93 0 -99 23 -121 21 -19 30 -22 51 -14 14 6 36 20 49 32 19 18 33 20 102 18 50 -1 86 3 99 11 16 10 27 10 54 0 61 -22 111 -15 195 28 92 47 157 102 148 126 -3 8 -6 26 -6 39 0 33 -64 105 -119 136 -52 28 -159 53 -185 43 -21 -8 -21 5 2 22 9 7 38 14 65 14 49 0 58 9 32 30 -22 18 -18 30 8 30 26 0 78 31 137 82 40 35 44 42 44 87 1 45 -3 54 -39 91 -21 22 -44 40 -51 40 -6 0 -42 14 -79 31 -75 36 -125 40 -174 14 -27 -13 -39 -15 -58 -6 -13 6 -37 11 -52 11 -15 0 -42 5 -60 11 -26 9 -36 8 -57 -6 -25 -16 -27 -16 -47 3 -20 18 -60 42 -70 42 -2 0 -13 -10 -24 -22z m92 -68 c3 -5 15 -10 25 -10 11 0 24 -8 29 -19 11 -19 50 -38 91 -43 24 -3 25 -7 33 -92 6 -55 5 -92 -1 -98 -6 -6 -31 6 -69 36 -46 35 -66 59 -87 103 -15 32 -34 70 -42 86 -15 26 -12 47 6 47 5 0 12 -4 15 -10z m447 -97 c53 -26 78 -44 78 -56 0 -16 -80 -98 -85 -87 -2 3 -11 -2 -21 -12 -29 -25 -154 -52 -154 -33 0 2 10 24 22 47 16 30 22 59 21 98 -1 93 20 100 139 43z m-202 -223 c0 -5 -7 -10 -15 -10 -8 0 -15 5 -15 10 0 6 7 10 15 10 8 0 15 -4 15 -10z m175 -150 c63 -31 115 -78 115 -105 0 -19 -15 -32 -75 -65 -55 -30 -83 -40 -100 -36 -26 7 -25 3 -30 126 -1 30 -6 68 -10 84 -8 29 -7 29 26 22 18 -3 52 -15 74 -26z m-188 -22 c-3 -13 -11 -41 -17 -63 -7 -22 -14 -57 -17 -77 -5 -38 -17 -45 -81 -46 -36 -1 -70 -28 -74 -59 -2 -14 -9 -28 -15 -31 -25 -8 -26 31 -3 101 27 82 72 137 139 172 59 31 75 32 68 3z" transform="translate(0,106) scale(0.1,-0.1)" stroke="none" fill="#E5E3DF"/>

</g>

</g>
<g id="row3" transform="translate(11,318.0)">
<g id="0" transform="translate(0.0,0)scale(1,1)">

<path d="M480 454 c0 -11 5 -26 11 -34 8 -12 9 -9 5 13 -8 35 1 34 79 -4 69 -34 121 -80 113 -101 -7 -18 -138 -89 -157 -86 -9 2 -16 14 -17 28 0 14 -6 36 -12 50 -12 24 -12 24 -7 -9 3 -18 5 -42 5 -52 0 -37 44 -34 125 11 60 33 75 46 75 65 0 40 -107 115 -188 131 -27 5 -32 4 -32 -12z" transform="translate(0,106) scale(0.1,-0.1)" stroke="none" fill="#38999E"/>

<path d="M482 838 c-5 -7 -9 -38 -9 -68 1 -39 -5 -68 -21 -98 -12 -23 -22 -45 -22 -47 0 -19 125 8 154 33 10 10 19 15 21 12 5 -11 85 71 85 87 0 12 -25 30 -78 56 -82 39 -113 45 -130 25z m120 -35 c43 -21 78 -42 78 -46 0 -15 -67 -77 -83 -77 -8 0 -17 -6 -20 -14 -6 -14 -114 -43 -124 -33 -2 3 3 20 13 39 10 19 18 60 19 98 1 36 3 66 4 68 6 10 48 -3 113 -35z" transform="translate(0,106) scale(0.1,-0.1)" stroke="none" fill="#38999E"/>

<path d="M135 910 c-3 -5 1 -22 9 -37 8 -16 27 -54 42 -86 21 -44 41 -68 87 -103 38 -30 63 -42 69 -36 6 6 7 43 1 98 -8 85 -9 89 -33 92 -41 5 -80 24 -91 43 -5 11 -18 19 -29 19 -10 0 -22 5 -25 10 -8 13 -22 13 -30 0z m55 -25 c17 -9 30 -20 30 -25 0 -5 24 -16 54 -25 l53 -16 8 -80 c3 -45 4 -83 1 -87 -3 -3 -32 17 -63 45 -42 36 -63 65 -79 104 -12 29 -27 55 -33 57 -11 4 -16 42 -6 42 4 0 19 -7 35 -15z" transform="translate(0,106) scale(0.1,-0.1)" stroke="none" fill="#38999E"/>

<path d="M329 415 c-67 -35 -112 -90 -139 -172 -23 -70 -22 -109 3 -101 6 3 14 18 17 34 4 21 15 34 40 46 21 11 28 18 17 18 -30 0 -67 -31 -67 -56 0 -13 -5 -24 -11 -24 -13 0 -9 22 22 109 18 51 32 71 71 102 49 39 85 55 95 45 4 -3 -1 -33 -10 -66 -10 -33 -17 -69 -17 -80 0 -15 -8 -22 -30 -27 -17 -3 -29 -8 -26 -10 2 -3 18 -2 34 2 25 5 31 12 35 43 3 20 10 55 17 77 28 98 27 101 -51 60z" transform="translate(0,106) scale(0.1,-0.1)" stroke="none" fill="#38999E"/>

<path d="M71 993 c-29 -23 -44 -92 -32 -140 6 -21 14 -54 19 -73 11 -45 27 -75 64 -122 23 -29 26 -38 14 -38 -26 0 -18 -17 22 -46 20 -16 41 -31 45 -35 9 -7 -57 -79 -72 -79 -5 0 -12 -7 -15 -16 -5 -13 -2 -15 14 -11 21 5 28 -7 10 -18 -23 -15 -78 -146 -70 -170 2 -5 2 -39 1 -75 -2 -61 0 -67 29 -95 l31 -30 62 33 c53 27 74 32 131 32 37 0 76 4 86 10 12 7 38 5 82 -6 l65 -16 79 39 c93 45 169 96 178 118 3 8 1 38 -4 65 -12 63 -69 135 -120 151 -19 6 -39 15 -45 19 -5 4 -29 11 -52 15 -52 8 -57 25 -8 25 37 0 42 9 25 41 -8 14 -7 19 3 19 25 0 75 30 126 76 114 103 69 204 -127 279 l-97 38 -60 -21 c-38 -13 -64 -17 -70 -11 -5 5 -22 9 -38 9 -16 0 -47 5 -68 12 -31 9 -44 8 -63 -2 -21 -11 -28 -10 -54 9 -17 11 -36 21 -44 21 -7 0 -4 -5 7 -12 11 -6 30 -20 42 -30 20 -19 22 -19 47 -3 21 14 31 15 57 6 18 -6 45 -11 60 -11 15 0 39 -5 52 -11 19 -9 31 -7 58 6 49 26 99 22 174 -14 37 -17 73 -31 79 -31 7 0 30 -18 51 -40 36 -37 40 -46 39 -91 0 -45 -4 -52 -44 -87 -59 -51 -111 -82 -137 -82 -26 0 -30 -12 -8 -30 26 -21 17 -30 -32 -30 -27 0 -56 -7 -65 -14 -23 -17 -23 -30 -2 -22 26 10 133 -15 185 -43 55 -31 119 -103 119 -136 0 -13 3 -31 6 -39 9 -24 -56 -79 -148 -126 -84 -43 -134 -50 -195 -28 -27 10 -38 10 -54 0 -13 -8 -49 -12 -99 -11 -69 2 -83 0 -102 -18 -13 -12 -35 -26 -49 -32 -21 -8 -30 -5 -51 14 -23 22 -25 28 -23 122 1 88 5 104 30 148 16 28 35 58 43 67 8 10 12 24 9 31 -3 8 8 29 26 47 l31 32 -24 20 c-20 16 -21 21 -9 28 11 7 5 19 -32 57 -54 56 -75 92 -100 180 -22 77 -16 128 19 166 29 31 25 36 -7 10z" transform="translate(0,106) scale(0.1,-0.1)" stroke="none" fill="#38999E"/>

<path d="M73 978 c-30 -34 -35 -88 -14 -161 25 -88 46 -124 100 -180 37 -38 43 -50 32 -57 -12 -7 -11 -12 10 -29 21 -18 22 -23 9 -34 -24 -21 -66 -71 -53 -63 15 8 18 -20 4 -28 -5 -3 -24 -32 -42 -64 -30 -53 -32 -64 -34 -156 -2 -93 0 -99 23 -121 21 -19 30 -22 51 -14 14 6 36 20 49 32 19 18 33 20 102 18 50 -1 86 3 99 11 16 10 27 10 54 0 61 -22 111 -15 195 28 92 47 157 102 148 126 -3 8 -6 26 -6 39 0 33 -64 105 -119 136 -52 28 -159 53 -185 43 -21 -8 -21 5 2 22 9 7 38 14 65 14 49 0 58 9 32 30 -22 18 -18 30 8 30 26 0 78 31 137 82 40 35 44 42 44 87 1 45 -3 54 -39 91 -21 22 -44 40 -51 40 -6 0 -42 14 -79 31 -75 36 -125 40 -174 14 -27 -13 -39 -15 -58 -6 -13 6 -37 11 -52 11 -15 0 -42 5 -60 11 -26 9 -36 8 -57 -6 -25 -16 -27 -16 -47 3 -20 18 -60 42 -70 42 -2 0 -13 -10 -24 -22z m92 -68 c3 -5 15 -10 25 -10 11 0 24 -8 29 -19 11 -19 50 -38 91 -43 24 -3 25 -7 33 -92 6 -55 5 -92 -1 -98 -6 -6 -31 6 -69 36 -46 35 -66 59 -87 103 -15 32 -34 70 -42 86 -15 26 -12 47 6 47 5 0 12 -4 15 -10z m447 -97 c53 -26 78 -44 78 -56 0 -16 -80 -98 -85 -87 -2 3 -11 -2 -21 -12 -29 -25 -154 -52 -154 -33 0 2 10 24 22 47 16 30 22 59 21 98 -1 93 20 100 139 43z m-202 -223 c0 -5 -7 -10 -15 -10 -8 0 -15 5 -15 10 0 6 7 10 15 10 8 0 15 -4 15 -10z m175 -150 c63 -31 115 -78 115 -105 0 -19 -15 -32 -75 -65 -55 -30 -83 -40 -100 -36 -26 7 -25 3 -30 126 -1 30 -6 68 -10 84 -8 29 -7 29 26 22 18 -3 52 -15 74 -26z m-188 -22 c-3 -13 -11 -41 -17 -63 -7 -22 -14 -57 -17 -77 -5 -38 -17 -45 -81 -46 -36 -1 -70 -28 -74 -59 -2 -14 -9 -28 -15 -31 -25 -8 -26 31 -3 101 27 82 72 137 139 172 59 31 75 32 68 3z" transform="translate(0,106) scale(0.1,-0.1)" stroke="none" fill="#E5E3DF"/>

</g>

<g id="1" transform="translate(86.0,0)scale(1,1)">

<path d="M480 454 c0 -11 5 -26 11 -34 8 -12 9 -9 5 13 -8 35 1 34 79 -4 69 -34 121 -80 113 -101 -7 -18 -138 -89 -157 -86 -9 2 -16 14 -17 28 0 14 -6 36 -12 50 -12 24 -12 24 -7 -9 3 -18 5 -42 5 -52 0 -37 44 -34 125 11 60 33 75 46 75 65 0 40 -107 115 -188 131 -27 5 -32 4 -32 -12z" transform="translate(0,106) scale(0.1,-0.1)" stroke="none" fill="#38999E"/>

<path d="M482 838 c-5 -7 -9 -38 -9 -68 1 -39 -5 -68 -21 -98 -12 -23 -22 -45 -22 -47 0 -19 125 8 154 33 10 10 19 15 21 12 5 -11 85 71 85 87 0 12 -25 30 -78 56 -82 39 -113 45 -130 25z m120 -35 c43 -21 78 -42 78 -46 0 -15 -67 -77 -83 -77 -8 0 -17 -6 -20 -14 -6 -14 -114 -43 -124 -33 -2 3 3 20 13 39 10 19 18 60 19 98 1 36 3 66 4 68 6 10 48 -3 113 -35z" transform="translate(0,106) scale(0.1,-0.1)" stroke="none" fill="#38999E"/>

<path d="M135 910 c-3 -5 1 -22 9 -37 8 -16 27 -54 42 -86 21 -44 41 -68 87 -103 38 -30 63 -42 69 -36 6 6 7 43 1 98 -8 85 -9 89 -33 92 -41 5 -80 24 -91 43 -5 11 -18 19 -29 19 -10 0 -22 5 -25 10 -8 13 -22 13 -30 0z m55 -25 c17 -9 30 -20 30 -25 0 -5 24 -16 54 -25 l53 -16 8 -80 c3 -45 4 -83 1 -87 -3 -3 -32 17 -63 45 -42 36 -63 65 -79 104 -12 29 -27 55 -33 57 -11 4 -16 42 -6 42 4 0 19 -7 35 -15z" transform="translate(0,106) scale(0.1,-0.1)" stroke="none" fill="#38999E"/>

<path d="M329 415 c-67 -35 -112 -90 -139 -172 -23 -70 -22 -109 3 -101 6 3 14 18 17 34 4 21 15 34 40 46 21 11 28 18 17 18 -30 0 -67 -31 -67 -56 0 -13 -5 -24 -11 -24 -13 0 -9 22 22 109 18 51 32 71 71 102 49 39 85 55 95 45 4 -3 -1 -33 -10 -66 -10 -33 -17 -69 -17 -80 0 -15 -8 -22 -30 -27 -17 -3 -29 -8 -26 -10 2 -3 18 -2 34 2 25 5 31 12 35 43 3 20 10 55 17 77 28 98 27 101 -51 60z" transform="translate(0,106) scale(0.1,-0.1)" stroke="none" fill="#38999E"/>

<path d="M71 993 c-29 -23 -44 -92 -32 -140 6 -21 14 -54 19 -73 11 -45 27 -75 64 -122 23 -29 26 -38 14 -38 -26 0 -18 -17 22 -46 20 -16 41 -31 45 -35 9 -7 -57 -79 -72 -79 -5 0 -12 -7 -15 -16 -5 -13 -2 -15 14 -11 21 5 28 -7 10 -18 -23 -15 -78 -146 -70 -170 2 -5 2 -39 1 -75 -2 -61 0 -67 29 -95 l31 -30 62 33 c53 27 74 32 131 32 37 0 76 4 86 10 12 7 38 5 82 -6 l65 -16 79 39 c93 45 169 96 178 118 3 8 1 38 -4 65 -12 63 -69 135 -120 151 -19 6 -39 15 -45 19 -5 4 -29 11 -52 15 -52 8 -57 25 -8 25 37 0 42 9 25 41 -8 14 -7 19 3 19 25 0 75 30 126 76 114 103 69 204 -127 279 l-97 38 -60 -21 c-38 -13 -64 -17 -70 -11 -5 5 -22 9 -38 9 -16 0 -47 5 -68 12 -31 9 -44 8 -63 -2 -21 -11 -28 -10 -54 9 -17 11 -36 21 -44 21 -7 0 -4 -5 7 -12 11 -6 30 -20 42 -30 20 -19 22 -19 47 -3 21 14 31 15 57 6 18 -6 45 -11 60 -11 15 0 39 -5 52 -11 19 -9 31 -7 58 6 49 26 99 22 174 -14 37 -17 73 -31 79 -31 7 0 30 -18 51 -40 36 -37 40 -46 39 -91 0 -45 -4 -52 -44 -87 -59 -51 -111 -82 -137 -82 -26 0 -30 -12 -8 -30 26 -21 17 -30 -32 -30 -27 0 -56 -7 -65 -14 -23 -17 -23 -30 -2 -22 26 10 133 -15 185 -43 55 -31 119 -103 119 -136 0 -13 3 -31 6 -39 9 -24 -56 -79 -148 -126 -84 -43 -134 -50 -195 -28 -27 10 -38 10 -54 0 -13 -8 -49 -12 -99 -11 -69 2 -83 0 -102 -18 -13 -12 -35 -26 -49 -32 -21 -8 -30 -5 -51 14 -23 22 -25 28 -23 122 1 88 5 104 30 148 16 28 35 58 43 67 8 10 12 24 9 31 -3 8 8 29 26 47 l31 32 -24 20 c-20 16 -21 21 -9 28 11 7 5 19 -32 57 -54 56 -75 92 -100 180 -22 77 -16 128 19 166 29 31 25 36 -7 10z" transform="translate(0,106) scale(0.1,-0.1)" stroke="none" fill="#38999E"/>

<path d="M73 978 c-30 -34 -35 -88 -14 -161 25 -88 46 -124 100 -180 37 -38 43 -50 32 -57 -12 -7 -11 -12 10 -29 21 -18 22 -23 9 -34 -24 -21 -66 -71 -53 -63 15 8 18 -20 4 -28 -5 -3 -24 -32 -42 -64 -30 -53 -32 -64 -34 -156 -2 -93 0 -99 23 -121 21 -19 30 -22 51 -14 14 6 36 20 49 32 19 18 33 20 102 18 50 -1 86 3 99 11 16 10 27 10 54 0 61 -22 111 -15 195 28 92 47 157 102 148 126 -3 8 -6 26 -6 39 0 33 -64 105 -119 136 -52 28 -159 53 -185 43 -21 -8 -21 5 2 22 9 7 38 14 65 14 49 0 58 9 32 30 -22 18 -18 30 8 30 26 0 78 31 137 82 40 35 44 42 44 87 1 45 -3 54 -39 91 -21 22 -44 40 -51 40 -6 0 -42 14 -79 31 -75 36 -125 40 -174 14 -27 -13 -39 -15 -58 -6 -13 6 -37 11 -52 11 -15 0 -42 5 -60 11 -26 9 -36 8 -57 -6 -25 -16 -27 -16 -47 3 -20 18 -60 42 -70 42 -2 0 -13 -10 -24 -22z m92 -68 c3 -5 15 -10 25 -10 11 0 24 -8 29 -19 11 -19 50 -38 91 -43 24 -3 25 -7 33 -92 6 -55 5 -92 -1 -98 -6 -6 -31 6 -69 36 -46 35 -66 59 -87 103 -15 32 -34 70 -42 86 -15 26 -12 47 6 47 5 0 12 -4 15 -10z m447 -97 c53 -26 78 -44 78 -56 0 -16 -80 -98 -85 -87 -2 3 -11 -2 -21 -12 -29 -25 -154 -52 -154 -33 0 2 10 24 22 47 16 30 22 59 21 98 -1 93 20 100 139 43z m-202 -223 c0 -5 -7 -10 -15 -10 -8 0 -15 5 -15 10 0 6 7 10 15 10 8 0 15 -4 15 -10z m175 -150 c63 -31 115 -78 115 -105 0 -19 -15 -32 -75 -65 -55 -30 -83 -40 -100 -36 -26 7 -25 3 -30 126 -1 30 -6 68 -10 84 -8 29 -7 29 26 22 18 -3 52 -15 74 -26z m-188 -22 c-3 -13 -11 -41 -17 -63 -7 -22 -14 -57 -17 -77 -5 -38 -17 -45 -81 -46 -36 -1 -70 -28 -74 -59 -2 -14 -9 -28 -15 -31 -25 -8 -26 31 -3 101 27 82 72 137 139 172 59 31 75 32 68 3z" transform="translate(0,106) scale(0.1,-0.1)" stroke="none" fill="#E5E3DF"/>

</g>

<g id="2" transform="translate(172.0,0)scale(1,1)">

<path d="M480 454 c0 -11 5 -26 11 -34 8 -12 9 -9 5 13 -8 35 1 34 79 -4 69 -34 121 -80 113 -101 -7 -18 -138 -89 -157 -86 -9 2 -16 14 -17 28 0 14 -6 36 -12 50 -12 24 -12 24 -7 -9 3 -18 5 -42 5 -52 0 -37 44 -34 125 11 60 33 75 46 75 65 0 40 -107 115 -188 131 -27 5 -32 4 -32 -12z" transform="translate(0,106) scale(0.1,-0.1)" stroke="none" fill="#38999E"/>

<path d="M482 838 c-5 -7 -9 -38 -9 -68 1 -39 -5 -68 -21 -98 -12 -23 -22 -45 -22 -47 0 -19 125 8 154 33 10 10 19 15 21 12 5 -11 85 71 85 87 0 12 -25 30 -78 56 -82 39 -113 45 -130 25z m120 -35 c43 -21 78 -42 78 -46 0 -15 -67 -77 -83 -77 -8 0 -17 -6 -20 -14 -6 -14 -114 -43 -124 -33 -2 3 3 20 13 39 10 19 18 60 19 98 1 36 3 66 4 68 6 10 48 -3 113 -35z" transform="translate(0,106) scale(0.1,-0.1)" stroke="none" fill="#38999E"/>

<path d="M135 910 c-3 -5 1 -22 9 -37 8 -16 27 -54 42 -86 21 -44 41 -68 87 -103 38 -30 63 -42 69 -36 6 6 7 43 1 98 -8 85 -9 89 -33 92 -41 5 -80 24 -91 43 -5 11 -18 19 -29 19 -10 0 -22 5 -25 10 -8 13 -22 13 -30 0z m55 -25 c17 -9 30 -20 30 -25 0 -5 24 -16 54 -25 l53 -16 8 -80 c3 -45 4 -83 1 -87 -3 -3 -32 17 -63 45 -42 36 -63 65 -79 104 -12 29 -27 55 -33 57 -11 4 -16 42 -6 42 4 0 19 -7 35 -15z" transform="translate(0,106) scale(0.1,-0.1)" stroke="none" fill="#38999E"/>

<path d="M329 415 c-67 -35 -112 -90 -139 -172 -23 -70 -22 -109 3 -101 6 3 14 18 17 34 4 21 15 34 40 46 21 11 28 18 17 18 -30 0 -67 -31 -67 -56 0 -13 -5 -24 -11 -24 -13 0 -9 22 22 109 18 51 32 71 71 102 49 39 85 55 95 45 4 -3 -1 -33 -10 -66 -10 -33 -17 -69 -17 -80 0 -15 -8 -22 -30 -27 -17 -3 -29 -8 -26 -10 2 -3 18 -2 34 2 25 5 31 12 35 43 3 20 10 55 17 77 28 98 27 101 -51 60z" transform="translate(0,106) scale(0.1,-0.1)" stroke="none" fill="#38999E"/>

<path d="M71 993 c-29 -23 -44 -92 -32 -140 6 -21 14 -54 19 -73 11 -45 27 -75 64 -122 23 -29 26 -38 14 -38 -26 0 -18 -17 22 -46 20 -16 41 -31 45 -35 9 -7 -57 -79 -72 -79 -5 0 -12 -7 -15 -16 -5 -13 -2 -15 14 -11 21 5 28 -7 10 -18 -23 -15 -78 -146 -70 -170 2 -5 2 -39 1 -75 -2 -61 0 -67 29 -95 l31 -30 62 33 c53 27 74 32 131 32 37 0 76 4 86 10 12 7 38 5 82 -6 l65 -16 79 39 c93 45 169 96 178 118 3 8 1 38 -4 65 -12 63 -69 135 -120 151 -19 6 -39 15 -45 19 -5 4 -29 11 -52 15 -52 8 -57 25 -8 25 37 0 42 9 25 41 -8 14 -7 19 3 19 25 0 75 30 126 76 114 103 69 204 -127 279 l-97 38 -60 -21 c-38 -13 -64 -17 -70 -11 -5 5 -22 9 -38 9 -16 0 -47 5 -68 12 -31 9 -44 8 -63 -2 -21 -11 -28 -10 -54 9 -17 11 -36 21 -44 21 -7 0 -4 -5 7 -12 11 -6 30 -20 42 -30 20 -19 22 -19 47 -3 21 14 31 15 57 6 18 -6 45 -11 60 -11 15 0 39 -5 52 -11 19 -9 31 -7 58 6 49 26 99 22 174 -14 37 -17 73 -31 79 -31 7 0 30 -18 51 -40 36 -37 40 -46 39 -91 0 -45 -4 -52 -44 -87 -59 -51 -111 -82 -137 -82 -26 0 -30 -12 -8 -30 26 -21 17 -30 -32 -30 -27 0 -56 -7 -65 -14 -23 -17 -23 -30 -2 -22 26 10 133 -15 185 -43 55 -31 119 -103 119 -136 0 -13 3 -31 6 -39 9 -24 -56 -79 -148 -126 -84 -43 -134 -50 -195 -28 -27 10 -38 10 -54 0 -13 -8 -49 -12 -99 -11 -69 2 -83 0 -102 -18 -13 -12 -35 -26 -49 -32 -21 -8 -30 -5 -51 14 -23 22 -25 28 -23 122 1 88 5 104 30 148 16 28 35 58 43 67 8 10 12 24 9 31 -3 8 8 29 26 47 l31 32 -24 20 c-20 16 -21 21 -9 28 11 7 5 19 -32 57 -54 56 -75 92 -100 180 -22 77 -16 128 19 166 29 31 25 36 -7 10z" transform="translate(0,106) scale(0.1,-0.1)" stroke="none" fill="#38999E"/>

<path d="M73 978 c-30 -34 -35 -88 -14 -161 25 -88 46 -124 100 -180 37 -38 43 -50 32 -57 -12 -7 -11 -12 10 -29 21 -18 22 -23 9 -34 -24 -21 -66 -71 -53 -63 15 8 18 -20 4 -28 -5 -3 -24 -32 -42 -64 -30 -53 -32 -64 -34 -156 -2 -93 0 -99 23 -121 21 -19 30 -22 51 -14 14 6 36 20 49 32 19 18 33 20 102 18 50 -1 86 3 99 11 16 10 27 10 54 0 61 -22 111 -15 195 28 92 47 157 102 148 126 -3 8 -6 26 -6 39 0 33 -64 105 -119 136 -52 28 -159 53 -185 43 -21 -8 -21 5 2 22 9 7 38 14 65 14 49 0 58 9 32 30 -22 18 -18 30 8 30 26 0 78 31 137 82 40 35 44 42 44 87 1 45 -3 54 -39 91 -21 22 -44 40 -51 40 -6 0 -42 14 -79 31 -75 36 -125 40 -174 14 -27 -13 -39 -15 -58 -6 -13 6 -37 11 -52 11 -15 0 -42 5 -60 11 -26 9 -36 8 -57 -6 -25 -16 -27 -16 -47 3 -20 18 -60 42 -70 42 -2 0 -13 -10 -24 -22z m92 -68 c3 -5 15 -10 25 -10 11 0 24 -8 29 -19 11 -19 50 -38 91 -43 24 -3 25 -7 33 -92 6 -55 5 -92 -1 -98 -6 -6 -31 6 -69 36 -46 35 -66 59 -87 103 -15 32 -34 70 -42 86 -15 26 -12 47 6 47 5 0 12 -4 15 -10z m447 -97 c53 -26 78 -44 78 -56 0 -16 -80 -98 -85 -87 -2 3 -11 -2 -21 -12 -29 -25 -154 -52 -154 -33 0 2 10 24 22 47 16 30 22 59 21 98 -1 93 20 100 139 43z m-202 -223 c0 -5 -7 -10 -15 -10 -8 0 -15 5 -15 10 0 6 7 10 15 10 8 0 15 -4 15 -10z m175 -150 c63 -31 115 -78 115 -105 0 -19 -15 -32 -75 -65 -55 -30 -83 -40 -100 -36 -26 7 -25 3 -30 126 -1 30 -6 68 -10 84 -8 29 -7 29 26 22 18 -3 52 -15 74 -26z m-188 -22 c-3 -13 -11 -41 -17 -63 -7 -22 -14 -57 -17 -77 -5 -38 -17 -45 -81 -46 -36 -1 -70 -28 -74 -59 -2 -14 -9 -28 -15 -31 -25 -8 -26 31 -3 101 27 82 72 137 139 172 59 31 75 32 68 3z" transform="translate(0,106) scale(0.1,-0.1)" stroke="none" fill="#E5E3DF"/>

</g>

<g id="3" transform="translate(258.0,0)scale(1,1)">

<path d="M480 454 c0 -11 5 -26 11 -34 8 -12 9 -9 5 13 -8 35 1 34 79 -4 69 -34 121 -80 113 -101 -7 -18 -138 -89 -157 -86 -9 2 -16 14 -17 28 0 14 -6 36 -12 50 -12 24 -12 24 -7 -9 3 -18 5 -42 5 -52 0 -37 44 -34 125 11 60 33 75 46 75 65 0 40 -107 115 -188 131 -27 5 -32 4 -32 -12z" transform="translate(0,106) scale(0.1,-0.1)" stroke="none" fill="#38999E"/>

<path d="M482 838 c-5 -7 -9 -38 -9 -68 1 -39 -5 -68 -21 -98 -12 -23 -22 -45 -22 -47 0 -19 125 8 154 33 10 10 19 15 21 12 5 -11 85 71 85 87 0 12 -25 30 -78 56 -82 39 -113 45 -130 25z m120 -35 c43 -21 78 -42 78 -46 0 -15 -67 -77 -83 -77 -8 0 -17 -6 -20 -14 -6 -14 -114 -43 -124 -33 -2 3 3 20 13 39 10 19 18 60 19 98 1 36 3 66 4 68 6 10 48 -3 113 -35z" transform="translate(0,106) scale(0.1,-0.1)" stroke="none" fill="#38999E"/>

<path d="M135 910 c-3 -5 1 -22 9 -37 8 -16 27 -54 42 -86 21 -44 41 -68 87 -103 38 -30 63 -42 69 -36 6 6 7 43 1 98 -8 85 -9 89 -33 92 -41 5 -80 24 -91 43 -5 11 -18 19 -29 19 -10 0 -22 5 -25 10 -8 13 -22 13 -30 0z m55 -25 c17 -9 30 -20 30 -25 0 -5 24 -16 54 -25 l53 -16 8 -80 c3 -45 4 -83 1 -87 -3 -3 -32 17 -63 45 -42 36 -63 65 -79 104 -12 29 -27 55 -33 57 -11 4 -16 42 -6 42 4 0 19 -7 35 -15z" transform="translate(0,106) scale(0.1,-0.1)" stroke="none" fill="#38999E"/>

<path d="M329 415 c-67 -35 -112 -90 -139 -172 -23 -70 -22 -109 3 -101 6 3 14 18 17 34 4 21 15 34 40 46 21 11 28 18 17 18 -30 0 -67 -31 -67 -56 0 -13 -5 -24 -11 -24 -13 0 -9 22 22 109 18 51 32 71 71 102 49 39 85 55 95 45 4 -3 -1 -33 -10 -66 -10 -33 -17 -69 -17 -80 0 -15 -8 -22 -30 -27 -17 -3 -29 -8 -26 -10 2 -3 18 -2 34 2 25 5 31 12 35 43 3 20 10 55 17 77 28 98 27 101 -51 60z" transform="translate(0,106) scale(0.1,-0.1)" stroke="none" fill="#38999E"/>

<path d="M71 993 c-29 -23 -44 -92 -32 -140 6 -21 14 -54 19 -73 11 -45 27 -75 64 -122 23 -29 26 -38 14 -38 -26 0 -18 -17 22 -46 20 -16 41 -31 45 -35 9 -7 -57 -79 -72 -79 -5 0 -12 -7 -15 -16 -5 -13 -2 -15 14 -11 21 5 28 -7 10 -18 -23 -15 -78 -146 -70 -170 2 -5 2 -39 1 -75 -2 -61 0 -67 29 -95 l31 -30 62 33 c53 27 74 32 131 32 37 0 76 4 86 10 12 7 38 5 82 -6 l65 -16 79 39 c93 45 169 96 178 118 3 8 1 38 -4 65 -12 63 -69 135 -120 151 -19 6 -39 15 -45 19 -5 4 -29 11 -52 15 -52 8 -57 25 -8 25 37 0 42 9 25 41 -8 14 -7 19 3 19 25 0 75 30 126 76 114 103 69 204 -127 279 l-97 38 -60 -21 c-38 -13 -64 -17 -70 -11 -5 5 -22 9 -38 9 -16 0 -47 5 -68 12 -31 9 -44 8 -63 -2 -21 -11 -28 -10 -54 9 -17 11 -36 21 -44 21 -7 0 -4 -5 7 -12 11 -6 30 -20 42 -30 20 -19 22 -19 47 -3 21 14 31 15 57 6 18 -6 45 -11 60 -11 15 0 39 -5 52 -11 19 -9 31 -7 58 6 49 26 99 22 174 -14 37 -17 73 -31 79 -31 7 0 30 -18 51 -40 36 -37 40 -46 39 -91 0 -45 -4 -52 -44 -87 -59 -51 -111 -82 -137 -82 -26 0 -30 -12 -8 -30 26 -21 17 -30 -32 -30 -27 0 -56 -7 -65 -14 -23 -17 -23 -30 -2 -22 26 10 133 -15 185 -43 55 -31 119 -103 119 -136 0 -13 3 -31 6 -39 9 -24 -56 -79 -148 -126 -84 -43 -134 -50 -195 -28 -27 10 -38 10 -54 0 -13 -8 -49 -12 -99 -11 -69 2 -83 0 -102 -18 -13 -12 -35 -26 -49 -32 -21 -8 -30 -5 -51 14 -23 22 -25 28 -23 122 1 88 5 104 30 148 16 28 35 58 43 67 8 10 12 24 9 31 -3 8 8 29 26 47 l31 32 -24 20 c-20 16 -21 21 -9 28 11 7 5 19 -32 57 -54 56 -75 92 -100 180 -22 77 -16 128 19 166 29 31 25 36 -7 10z" transform="translate(0,106) scale(0.1,-0.1)" stroke="none" fill="#38999E"/>

<path d="M73 978 c-30 -34 -35 -88 -14 -161 25 -88 46 -124 100 -180 37 -38 43 -50 32 -57 -12 -7 -11 -12 10 -29 21 -18 22 -23 9 -34 -24 -21 -66 -71 -53 -63 15 8 18 -20 4 -28 -5 -3 -24 -32 -42 -64 -30 -53 -32 -64 -34 -156 -2 -93 0 -99 23 -121 21 -19 30 -22 51 -14 14 6 36 20 49 32 19 18 33 20 102 18 50 -1 86 3 99 11 16 10 27 10 54 0 61 -22 111 -15 195 28 92 47 157 102 148 126 -3 8 -6 26 -6 39 0 33 -64 105 -119 136 -52 28 -159 53 -185 43 -21 -8 -21 5 2 22 9 7 38 14 65 14 49 0 58 9 32 30 -22 18 -18 30 8 30 26 0 78 31 137 82 40 35 44 42 44 87 1 45 -3 54 -39 91 -21 22 -44 40 -51 40 -6 0 -42 14 -79 31 -75 36 -125 40 -174 14 -27 -13 -39 -15 -58 -6 -13 6 -37 11 -52 11 -15 0 -42 5 -60 11 -26 9 -36 8 -57 -6 -25 -16 -27 -16 -47 3 -20 18 -60 42 -70 42 -2 0 -13 -10 -24 -22z m92 -68 c3 -5 15 -10 25 -10 11 0 24 -8 29 -19 11 -19 50 -38 91 -43 24 -3 25 -7 33 -92 6 -55 5 -92 -1 -98 -6 -6 -31 6 -69 36 -46 35 -66 59 -87 103 -15 32 -34 70 -42 86 -15 26 -12 47 6 47 5 0 12 -4 15 -10z m447 -97 c53 -26 78 -44 78 -56 0 -16 -80 -98 -85 -87 -2 3 -11 -2 -21 -12 -29 -25 -154 -52 -154 -33 0 2 10 24 22 47 16 30 22 59 21 98 -1 93 20 100 139 43z m-202 -223 c0 -5 -7 -10 -15 -10 -8 0 -15 5 -15 10 0 6 7 10 15 10 8 0 15 -4 15 -10z m175 -150 c63 -31 115 -78 115 -105 0 -19 -15 -32 -75 -65 -55 -30 -83 -40 -100 -36 -26 7 -25 3 -30 126 -1 30 -6 68 -10 84 -8 29 -7 29 26 22 18 -3 52 -15 74 -26z m-188 -22 c-3 -13 -11 -41 -17 -63 -7 -22 -14 -57 -17 -77 -5 -38 -17 -45 -81 -46 -36 -1 -70 -28 -74 -59 -2 -14 -9 -28 -15 -31 -25 -8 -26 31 -3 101 27 82 72 137 139 172 59 31 75 32 68 3z" transform="translate(0,106) scale(0.1,-0.1)" stroke="none" fill="#E5E3DF"/>

</g>

<g id="4" transform="translate(344.0,0)scale(1,1)">

<path d="M480 454 c0 -11 5 -26 11 -34 8 -12 9 -9 5 13 -8 35 1 34 79 -4 69 -34 121 -80 113 -101 -7 -18 -138 -89 -157 -86 -9 2 -16 14 -17 28 0 14 -6 36 -12 50 -12 24 -12 24 -7 -9 3 -18 5 -42 5 -52 0 -37 44 -34 125 11 60 33 75 46 75 65 0 40 -107 115 -188 131 -27 5 -32 4 -32 -12z" transform="translate(0,106) scale(0.1,-0.1)" stroke="none" fill="#38999E"/>

<path d="M482 838 c-5 -7 -9 -38 -9 -68 1 -39 -5 -68 -21 -98 -12 -23 -22 -45 -22 -47 0 -19 125 8 154 33 10 10 19 15 21 12 5 -11 85 71 85 87 0 12 -25 30 -78 56 -82 39 -113 45 -130 25z m120 -35 c43 -21 78 -42 78 -46 0 -15 -67 -77 -83 -77 -8 0 -17 -6 -20 -14 -6 -14 -114 -43 -124 -33 -2 3 3 20 13 39 10 19 18 60 19 98 1 36 3 66 4 68 6 10 48 -3 113 -35z" transform="translate(0,106) scale(0.1,-0.1)" stroke="none" fill="#38999E"/>

<path d="M135 910 c-3 -5 1 -22 9 -37 8 -16 27 -54 42 -86 21 -44 41 -68 87 -103 38 -30 63 -42 69 -36 6 6 7 43 1 98 -8 85 -9 89 -33 92 -41 5 -80 24 -91 43 -5 11 -18 19 -29 19 -10 0 -22 5 -25 10 -8 13 -22 13 -30 0z m55 -25 c17 -9 30 -20 30 -25 0 -5 24 -16 54 -25 l53 -16 8 -80 c3 -45 4 -83 1 -87 -3 -3 -32 17 -63 45 -42 36 -63 65 -79 104 -12 29 -27 55 -33 57 -11 4 -16 42 -6 42 4 0 19 -7 35 -15z" transform="translate(0,106) scale(0.1,-0.1)" stroke="none" fill="#38999E"/>

<path d="M329 415 c-67 -35 -112 -90 -139 -172 -23 -70 -22 -109 3 -101 6 3 14 18 17 34 4 21 15 34 40 46 21 11 28 18 17 18 -30 0 -67 -31 -67 -56 0 -13 -5 -24 -11 -24 -13 0 -9 22 22 109 18 51 32 71 71 102 49 39 85 55 95 45 4 -3 -1 -33 -10 -66 -10 -33 -17 -69 -17 -80 0 -15 -8 -22 -30 -27 -17 -3 -29 -8 -26 -10 2 -3 18 -2 34 2 25 5 31 12 35 43 3 20 10 55 17 77 28 98 27 101 -51 60z" transform="translate(0,106) scale(0.1,-0.1)" stroke="none" fill="#38999E"/>

<path d="M71 993 c-29 -23 -44 -92 -32 -140 6 -21 14 -54 19 -73 11 -45 27 -75 64 -122 23 -29 26 -38 14 -38 -26 0 -18 -17 22 -46 20 -16 41 -31 45 -35 9 -7 -57 -79 -72 -79 -5 0 -12 -7 -15 -16 -5 -13 -2 -15 14 -11 21 5 28 -7 10 -18 -23 -15 -78 -146 -70 -170 2 -5 2 -39 1 -75 -2 -61 0 -67 29 -95 l31 -30 62 33 c53 27 74 32 131 32 37 0 76 4 86 10 12 7 38 5 82 -6 l65 -16 79 39 c93 45 169 96 178 118 3 8 1 38 -4 65 -12 63 -69 135 -120 151 -19 6 -39 15 -45 19 -5 4 -29 11 -52 15 -52 8 -57 25 -8 25 37 0 42 9 25 41 -8 14 -7 19 3 19 25 0 75 30 126 76 114 103 69 204 -127 279 l-97 38 -60 -21 c-38 -13 -64 -17 -70 -11 -5 5 -22 9 -38 9 -16 0 -47 5 -68 12 -31 9 -44 8 -63 -2 -21 -11 -28 -10 -54 9 -17 11 -36 21 -44 21 -7 0 -4 -5 7 -12 11 -6 30 -20 42 -30 20 -19 22 -19 47 -3 21 14 31 15 57 6 18 -6 45 -11 60 -11 15 0 39 -5 52 -11 19 -9 31 -7 58 6 49 26 99 22 174 -14 37 -17 73 -31 79 -31 7 0 30 -18 51 -40 36 -37 40 -46 39 -91 0 -45 -4 -52 -44 -87 -59 -51 -111 -82 -137 -82 -26 0 -30 -12 -8 -30 26 -21 17 -30 -32 -30 -27 0 -56 -7 -65 -14 -23 -17 -23 -30 -2 -22 26 10 133 -15 185 -43 55 -31 119 -103 119 -136 0 -13 3 -31 6 -39 9 -24 -56 -79 -148 -126 -84 -43 -134 -50 -195 -28 -27 10 -38 10 -54 0 -13 -8 -49 -12 -99 -11 -69 2 -83 0 -102 -18 -13 -12 -35 -26 -49 -32 -21 -8 -30 -5 -51 14 -23 22 -25 28 -23 122 1 88 5 104 30 148 16 28 35 58 43 67 8 10 12 24 9 31 -3 8 8 29 26 47 l31 32 -24 20 c-20 16 -21 21 -9 28 11 7 5 19 -32 57 -54 56 -75 92 -100 180 -22 77 -16 128 19 166 29 31 25 36 -7 10z" transform="translate(0,106) scale(0.1,-0.1)" stroke="none" fill="#38999E"/>

<path d="M73 978 c-30 -34 -35 -88 -14 -161 25 -88 46 -124 100 -180 37 -38 43 -50 32 -57 -12 -7 -11 -12 10 -29 21 -18 22 -23 9 -34 -24 -21 -66 -71 -53 -63 15 8 18 -20 4 -28 -5 -3 -24 -32 -42 -64 -30 -53 -32 -64 -34 -156 -2 -93 0 -99 23 -121 21 -19 30 -22 51 -14 14 6 36 20 49 32 19 18 33 20 102 18 50 -1 86 3 99 11 16 10 27 10 54 0 61 -22 111 -15 195 28 92 47 157 102 148 126 -3 8 -6 26 -6 39 0 33 -64 105 -119 136 -52 28 -159 53 -185 43 -21 -8 -21 5 2 22 9 7 38 14 65 14 49 0 58 9 32 30 -22 18 -18 30 8 30 26 0 78 31 137 82 40 35 44 42 44 87 1 45 -3 54 -39 91 -21 22 -44 40 -51 40 -6 0 -42 14 -79 31 -75 36 -125 40 -174 14 -27 -13 -39 -15 -58 -6 -13 6 -37 11 -52 11 -15 0 -42 5 -60 11 -26 9 -36 8 -57 -6 -25 -16 -27 -16 -47 3 -20 18 -60 42 -70 42 -2 0 -13 -10 -24 -22z m92 -68 c3 -5 15 -10 25 -10 11 0 24 -8 29 -19 11 -19 50 -38 91 -43 24 -3 25 -7 33 -92 6 -55 5 -92 -1 -98 -6 -6 -31 6 -69 36 -46 35 -66 59 -87 103 -15 32 -34 70 -42 86 -15 26 -12 47 6 47 5 0 12 -4 15 -10z m447 -97 c53 -26 78 -44 78 -56 0 -16 -80 -98 -85 -87 -2 3 -11 -2 -21 -12 -29 -25 -154 -52 -154 -33 0 2 10 24 22 47 16 30 22 59 21 98 -1 93 20 100 139 43z m-202 -223 c0 -5 -7 -10 -15 -10 -8 0 -15 5 -15 10 0 6 7 10 15 10 8 0 15 -4 15 -10z m175 -150 c63 -31 115 -78 115 -105 0 -19 -15 -32 -75 -65 -55 -30 -83 -40 -100 -36 -26 7 -25 3 -30 126 -1 30 -6 68 -10 84 -8 29 -7 29 26 22 18 -3 52 -15 74 -26z m-188 -22 c-3 -13 -11 -41 -17 -63 -7 -22 -14 -57 -17 -77 -5 -38 -17 -45 -81 -46 -36 -1 -70 -28 -74 -59 -2 -14 -9 -28 -15 -31 -25 -8 -26 31 -3 101 27 82 72 137 139 172 59 31 75 32 68 3z" transform="translate(0,106) scale(0.1,-0.1)" stroke="none" fill="#E5E3DF"/>

</g>

</g>
</svg>