<?xml version="1.0" standalone="no"?>
<!DOCTYPE svg PUBLIC "-//W3C//DTD SVG 20010904//EN"
 "http://www.w3.org/TR/2001/REC-SVG-20010904/DTD/svg10.dtd">
<svg version="1.0" xmlns="http://www.w3.org/2000/svg" width="496pt" height="164pt" viewBox="0 0 496 164" preserveAspectRatio = "xMidYMid meet" >
<metadata>
Created by ZoeQu, written in 2022
</metadata>
<rect width="496" height="164" fill="#D9D6A4"/>
<g id="row0" transform="translate(16,0.0)">
<g id="0" transform="translate(0.0,0)scale(1,1)">

<g transform="matrix(0.5,0,0,0.5,0,0)">

<path d="M550 370 c-14 -4 16 -5 65 -3 50 3 95 6 100 8 21 7 -141 3 -165 -5z" transform="translate(0,41.0) scale(0.1,-0.1)" stroke="none" fill="#936C3F"/>

<path d="M871 326 c10 -9 129 -66 129 -61 0 5 -116 65 -126 65 -4 0 -5 -2 -3 -4z" transform="translate(0,41.0) scale(0.1,-0.1)" stroke="none" fill="#936C3F"/>

<path d="M219 197 c-58 -49 -159 -157 -159 -171 0 -11 1118 -7 1125 4 6 10 -29 85 -44 95 -6 3 1 -14 14 -37 14 -24 25 -46 25 -50 0 -4 -247 -8 -550 -8 -302 0 -550 3 -550 7 0 12 118 133 170 175 25 21 43 37 39 38 -3 0 -34 -24 -70 -53z" transform="translate(0,41.0) scale(0.1,-0.1)" stroke="none" fill="#936C3F"/>

<path d="M533 360 c-63 -13 -180 -71 -253 -126 -64 -48 -200 -182 -200 -197 0 -4 248 -7 550 -7 303 0 550 4 550 8 0 16 -61 112 -80 125 -11 7 -17 17 -13 20 3 4 1 7 -5 7 -6 0 -25 15 -42 33 -36 40 -182 112 -267 132 -63 16 -174 18 -240 5z" transform="translate(0,41.0) scale(0.1,-0.1)" stroke="none" fill="#F3A181"/>

<path d="M550 370 c-14 -4 16 -5 65 -3 50 3 95 6 100 8 21 7 -141 3 -165 -5z" transform="translate(248.0,41.0) scale(-0.1,-0.1)" stroke="none" fill="#936C3F"/>

<path d="M871 326 c10 -9 129 -66 129 -61 0 5 -116 65 -126 65 -4 0 -5 -2 -3 -4z" transform="translate(248.0,41.0) scale(-0.1,-0.1)" stroke="none" fill="#936C3F"/>

<path d="M219 197 c-58 -49 -159 -157 -159 -171 0 -11 1118 -7 1125 4 6 10 -29 85 -44 95 -6 3 1 -14 14 -37 14 -24 25 -46 25 -50 0 -4 -247 -8 -550 -8 -302 0 -550 3 -550 7 0 12 118 133 170 175 25 21 43 37 39 38 -3 0 -34 -24 -70 -53z" transform="translate(248.0,41.0) scale(-0.1,-0.1)" stroke="none" fill="#936C3F"/>

<path d="M533 360 c-63 -13 -180 -71 -253 -126 -64 -48 -200 -182 -200 -197 0 -4 248 -7 550 -7 303 0 550 4 550 8 0 16 -61 112 -80 125 -11 7 -17 17 -13 20 3 4 1 7 -5 7 -6 0 -25 15 -42 33 -36 40 -182 112 -267 132 -63 16 -174 18 -240 5z" transform="translate(248.0,41.0) scale(-0.1,-0.1)" stroke="none" fill="#F3A181"/>

<path d="M550 370 c-14 -4 16 -5 65 -3 50 3 95 6 100 8 21 7 -141 3 -165 -5z" transform="translate(0,41.0) scale(0.1,0.1)" stroke="none" fill="#936C3F"/>

<path d="M871 326 c10 -9 129 -66 129 -61 0 5 -116 65 -126 65 -4 0 -5 -2 -3 -4z" transform="translate(0,41.0) scale(0.1,0.1)" stroke="none" fill="#936C3F"/>

<path d="M219 197 c-58 -49 -159 -157 -159 -171 0 -11 1118 -7 1125 4 6 10 -29 85 -44 95 -6 3 1 -14 14 -37 14 -24 25 -46 25 -50 0 -4 -247 -8 -550 -8 -302 0 -550 3 -550 7 0 12 118 133 170 175 25 21 43 37 39 38 -3 0 -34 -24 -70 -53z" transform="translate(0,41.0) scale(0.1,0.1)" stroke="none" fill="#936C3F"/>

<path d="M533 360 c-63 -13 -180 -71 -253 -126 -64 -48 -200 -182 -200 -197 0 -4 248 -7 550 -7 303 0 550 4 550 8 0 16 -61 112 -80 125 -11 7 -17 17 -13 20 3 4 1 7 -5 7 -6 0 -25 15 -42 33 -36 40 -182 112 -267 132 -63 16 -174 18 -240 5z" transform="translate(0,41.0) scale(0.1,0.1)" stroke="none" fill="#F3A181"/>

<path d="M550 370 c-14 -4 16 -5 65 -3 50 3 95 6 100 8 21 7 -141 3 -165 -5z" transform="translate(248.0,41.0) scale(-0.1,0.1)" stroke="none" fill="#936C3F"/>

<path d="M871 326 c10 -9 129 -66 129 -61 0 5 -116 65 -126 65 -4 0 -5 -2 -3 -4z" transform="translate(248.0,41.0) scale(-0.1,0.1)" stroke="none" fill="#936C3F"/>

<path d="M219 197 c-58 -49 -159 -157 -159 -171 0 -11 1118 -7 1125 4 6 10 -29 85 -44 95 -6 3 1 -14 14 -37 14 -24 25 -46 25 -50 0 -4 -247 -8 -550 -8 -302 0 -550 3 -550 7 0 12 118 133 170 175 25 21 43 37 39 38 -3 0 -34 -24 -70 -53z" transform="translate(248.0,41.0) scale(-0.1,0.1)" stroke="none" fill="#936C3F"/>

<path d="M533 360 c-63 -13 -180 -71 -253 -126 -64 -48 -200 -182 -200 -197 0 -4 248 -7 550 -7 303 0 550 4 550 8 0 16 -61 112 -80 125 -11 7 -17 17 -13 20 3 4 1 7 -5 7 -6 0 -25 15 -42 33 -36 40 -182 112 -267 132 -63 16 -174 18 -240 5z" transform="translate(248.0,41.0) scale(-0.1,0.1)" stroke="none" fill="#F3A181"/>

</g>

</g>

<g id="1" transform="translate(124.0,0)scale(1,1)">

<g transform="matrix(0.5,0,0,0.5,0,0)">

<path d="M550 370 c-14 -4 16 -5 65 -3 50 3 95 6 100 8 21 7 -141 3 -165 -5z" transform="translate(0,41.0) scale(0.1,-0.1)" stroke="none" fill="#936C3F"/>

<path d="M871 326 c10 -9 129 -66 129 -61 0 5 -116 65 -126 65 -4 0 -5 -2 -3 -4z" transform="translate(0,41.0) scale(0.1,-0.1)" stroke="none" fill="#936C3F"/>

<path d="M219 197 c-58 -49 -159 -157 -159 -171 0 -11 1118 -7 1125 4 6 10 -29 85 -44 95 -6 3 1 -14 14 -37 14 -24 25 -46 25 -50 0 -4 -247 -8 -550 -8 -302 0 -550 3 -550 7 0 12 118 133 170 175 25 21 43 37 39 38 -3 0 -34 -24 -70 -53z" transform="translate(0,41.0) scale(0.1,-0.1)" stroke="none" fill="#936C3F"/>

<path d="M533 360 c-63 -13 -180 -71 -253 -126 -64 -48 -200 -182 -200 -197 0 -4 248 -7 550 -7 303 0 550 4 550 8 0 16 -61 112 -80 125 -11 7 -17 17 -13 20 3 4 1 7 -5 7 -6 0 -25 15 -42 33 -36 40 -182 112 -267 132 -63 16 -174 18 -240 5z" transform="translate(0,41.0) scale(0.1,-0.1)" stroke="none" fill="#F3A181"/>

<path d="M550 370 c-14 -4 16 -5 65 -3 50 3 95 6 100 8 21 7 -141 3 -165 -5z" transform="translate(248.0,41.0) scale(-0.1,-0.1)" stroke="none" fill="#936C3F"/>

<path d="M871 326 c10 -9 129 -66 129 -61 0 5 -116 65 -126 65 -4 0 -5 -2 -3 -4z" transform="translate(248.0,41.0) scale(-0.1,-0.1)" stroke="none" fill="#936C3F"/>

<path d="M219 197 c-58 -49 -159 -157 -159 -171 0 -11 1118 -7 1125 4 6 10 -29 85 -44 95 -6 3 1 -14 14 -37 14 -24 25 -46 25 -50 0 -4 -247 -8 -550 -8 -302 0 -550 3 -550 7 0 12 118 133 170 175 25 21 43 37 39 38 -3 0 -34 -24 -70 -53z" transform="translate(248.0,41.0) scale(-0.1,-0.1)" stroke="none" fill="#936C3F"/>

<path d="M533 360 c-63 -13 -180 -71 -253 -126 -64 -48 -200 -182 -200 -197 0 -4 248 -7 550 -7 303 0 550 4 550 8 0 16 -61 112 -80 125 -11 7 -17 17 -13 20 3 4 1 7 -5 7 -6 0 -25 15 -42 33 -36 40 -182 112 -267 132 -63 16 -174 18 -240 5z" transform="translate(248.0,41.0) scale(-0.1,-0.1)" stroke="none" fill="#F3A181"/>

<path d="M550 370 c-14 -4 16 -5 65 -3 50 3 95 6 100 8 21 7 -141 3 -165 -5z" transform="translate(0,41.0) scale(0.1,0.1)" stroke="none" fill="#936C3F"/>

<path d="M871 326 c10 -9 129 -66 129 -61 0 5 -116 65 -126 65 -4 0 -5 -2 -3 -4z" transform="translate(0,41.0) scale(0.1,0.1)" stroke="none" fill="#936C3F"/>

<path d="M219 197 c-58 -49 -159 -157 -159 -171 0 -11 1118 -7 1125 4 6 10 -29 85 -44 95 -6 3 1 -14 14 -37 14 -24 25 -46 25 -50 0 -4 -247 -8 -550 -8 -302 0 -550 3 -550 7 0 12 118 133 170 175 25 21 43 37 39 38 -3 0 -34 -24 -70 -53z" transform="translate(0,41.0) scale(0.1,0.1)" stroke="none" fill="#936C3F"/>

<path d="M533 360 c-63 -13 -180 -71 -253 -126 -64 -48 -200 -182 -200 -197 0 -4 248 -7 550 -7 303 0 550 4 550 8 0 16 -61 112 -80 125 -11 7 -17 17 -13 20 3 4 1 7 -5 7 -6 0 -25 15 -42 33 -36 40 -182 112 -267 132 -63 16 -174 18 -240 5z" transform="translate(0,41.0) scale(0.1,0.1)" stroke="none" fill="#F3A181"/>

<path d="M550 370 c-14 -4 16 -5 65 -3 50 3 95 6 100 8 21 7 -141 3 -165 -5z" transform="translate(248.0,41.0) scale(-0.1,0.1)" stroke="none" fill="#936C3F"/>

<path d="M871 326 c10 -9 129 -66 129 -61 0 5 -116 65 -126 65 -4 0 -5 -2 -3 -4z" transform="translate(248.0,41.0) scale(-0.1,0.1)" stroke="none" fill="#936C3F"/>

<path d="M219 197 c-58 -49 -159 -157 -159 -171 0 -11 1118 -7 1125 4 6 10 -29 85 -44 95 -6 3 1 -14 14 -37 14 -24 25 -46 25 -50 0 -4 -247 -8 -550 -8 -302 0 -550 3 -550 7 0 12 118 133 170 175 25 21 43 37 39 38 -3 0 -34 -24 -70 -53z" transform="translate(248.0,41.0) scale(-0.1,0.1)" stroke="none" fill="#936C3F"/>

<path d="M533 360 c-63 -13 -180 -71 -253 -126 -64 -48 -200 -182 -200 -197 0 -4 248 -7 550 -7 303 0 550 4 550 8 0 16 -61 112 -80 125 -11 7 -17 17 -13 20 3 4 1 7 -5 7 -6 0 -25 15 -42 33 -36 40 -182 112 -267 132 -63 16 -174 18 -240 5z" transform="translate(248.0,41.0) scale(-0.1,0.1)" stroke="none" fill="#F3A181"/>

</g>

</g>

<g id="2" transform="translate(248.0,0)scale(1,1)">

<g transform="matrix(0.5,0,0,0.5,0,0)">

<path d="M550 370 c-14 -4 16 -5 65 -3 50 3 95 6 100 8 21 7 -141 3 -165 -5z" transform="translate(0,41.0) scale(0.1,-0.1)" stroke="none" fill="#936C3F"/>

<path d="M871 326 c10 -9 129 -66 129 -61 0 5 -116 65 -126 65 -4 0 -5 -2 -3 -4z" transform="translate(0,41.0) scale(0.1,-0.1)" stroke="none" fill="#936C3F"/>

<path d="M219 197 c-58 -49 -159 -157 -159 -171 0 -11 1118 -7 1125 4 6 10 -29 85 -44 95 -6 3 1 -14 14 -37 14 -24 25 -46 25 -50 0 -4 -247 -8 -550 -8 -302 0 -550 3 -550 7 0 12 118 133 170 175 25 21 43 37 39 38 -3 0 -34 -24 -70 -53z" transform="translate(0,41.0) scale(0.1,-0.1)" stroke="none" fill="#936C3F"/>

<path d="M533 360 c-63 -13 -180 -71 -253 -126 -64 -48 -200 -182 -200 -197 0 -4 248 -7 550 -7 303 0 550 4 550 8 0 16 -61 112 -80 125 -11 7 -17 17 -13 20 3 4 1 7 -5 7 -6 0 -25 15 -42 33 -36 40 -182 112 -267 132 -63 16 -174 18 -240 5z" transform="translate(0,41.0) scale(0.1,-0.1)" stroke="none" fill="#F3A181"/>

<path d="M550 370 c-14 -4 16 -5 65 -3 50 3 95 6 100 8 21 7 -141 3 -165 -5z" transform="translate(248.0,41.0) scale(-0.1,-0.1)" stroke="none" fill="#936C3F"/>

<path d="M871 326 c10 -9 129 -66 129 -61 0 5 -116 65 -126 65 -4 0 -5 -2 -3 -4z" transform="translate(248.0,41.0) scale(-0.1,-0.1)" stroke="none" fill="#936C3F"/>

<path d="M219 197 c-58 -49 -159 -157 -159 -171 0 -11 1118 -7 1125 4 6 10 -29 85 -44 95 -6 3 1 -14 14 -37 14 -24 25 -46 25 -50 0 -4 -247 -8 -550 -8 -302 0 -550 3 -550 7 0 12 118 133 170 175 25 21 43 37 39 38 -3 0 -34 -24 -70 -53z" transform="translate(248.0,41.0) scale(-0.1,-0.1)" stroke="none" fill="#936C3F"/>

<path d="M533 360 c-63 -13 -180 -71 -253 -126 -64 -48 -200 -182 -200 -197 0 -4 248 -7 550 -7 303 0 550 4 550 8 0 16 -61 112 -80 125 -11 7 -17 17 -13 20 3 4 1 7 -5 7 -6 0 -25 15 -42 33 -36 40 -182 112 -267 132 -63 16 -174 18 -240 5z" transform="translate(248.0,41.0) scale(-0.1,-0.1)" stroke="none" fill="#F3A181"/>

<path d="M550 370 c-14 -4 16 -5 65 -3 50 3 95 6 100 8 21 7 -141 3 -165 -5z" transform="translate(0,41.0) scale(0.1,0.1)" stroke="none" fill="#936C3F"/>

<path d="M871 326 c10 -9 129 -66 129 -61 0 5 -116 65 -126 65 -4 0 -5 -2 -3 -4z" transform="translate(0,41.0) scale(0.1,0.1)" stroke="none" fill="#936C3F"/>

<path d="M219 197 c-58 -49 -159 -157 -159 -171 0 -11 1118 -7 1125 4 6 10 -29 85 -44 95 -6 3 1 -14 14 -37 14 -24 25 -46 25 -50 0 -4 -247 -8 -550 -8 -302 0 -550 3 -550 7 0 12 118 133 170 175 25 21 43 37 39 38 -3 0 -34 -24 -70 -53z" transform="translate(0,41.0) scale(0.1,0.1)" stroke="none" fill="#936C3F"/>

<path d="M533 360 c-63 -13 -180 -71 -253 -126 -64 -48 -200 -182 -200 -197 0 -4 248 -7 550 -7 303 0 550 4 550 8 0 16 -61 112 -80 125 -11 7 -17 17 -13 20 3 4 1 7 -5 7 -6 0 -25 15 -42 33 -36 40 -182 112 -267 132 -63 16 -174 18 -240 5z" transform="translate(0,41.0) scale(0.1,0.1)" stroke="none" fill="#F3A181"/>

<path d="M550 370 c-14 -4 16 -5 65 -3 50 3 95 6 100 8 21 7 -141 3 -165 -5z" transform="translate(248.0,41.0) scale(-0.1,0.1)" stroke="none" fill="#936C3F"/>

<path d="M871 326 c10 -9 129 -66 129 -61 0 5 -116 65 -126 65 -4 0 -5 -2 -3 -4z" transform="translate(248.0,41.0) scale(-0.1,0.1)" stroke="none" fill="#936C3F"/>

<path d="M219 197 c-58 -49 -159 -157 -159 -171 0 -11 1118 -7 1125 4 6 10 -29 85 -44 95 -6 3 1 -14 14 -37 14 -24 25 -46 25 -50 0 -4 -247 -8 -550 -8 -302 0 -550 3 -550 7 0 12 118 133 170 175 25 21 43 37 39 38 -3 0 -34 -24 -70 -53z" transform="translate(248.0,41.0) scale(-0.1,0.1)" stroke="none" fill="#936C3F"/>

<path d="M533 360 c-63 -13 -180 -71 -253 -126 -64 -48 -200 -182 -200 -197 0 -4 248 -7 550 -7 303 0 550 4 550 8 0 16 -61 112 -80 125 -11 7 -17 17 -13 20 3 4 1 7 -5 7 -6 0 -25 15 -42 33 -36 40 -182 112 -267 132 -63 16 -174 18 -240 5z" transform="translate(248.0,41.0) scale(-0.1,0.1)" stroke="none" fill="#F3A181"/>

</g>

</g>

<g id="3" transform="translate(372.0,0)scale(1,1)">

<g transform="matrix(0.5,0,0,0.5,0,0)">

<path d="M550 370 c-14 -4 16 -5 65 -3 50 3 95 6 100 8 21 7 -141 3 -165 -5z" transform="translate(0,41.0) scale(0.1,-0.1)" stroke="none" fill="#936C3F"/>

<path d="M871 326 c10 -9 129 -66 129 -61 0 5 -116 65 -126 65 -4 0 -5 -2 -3 -4z" transform="translate(0,41.0) scale(0.1,-0.1)" stroke="none" fill="#936C3F"/>

<path d="M219 197 c-58 -49 -159 -157 -159 -171 0 -11 1118 -7 1125 4 6 10 -29 85 -44 95 -6 3 1 -14 14 -37 14 -24 25 -46 25 -50 0 -4 -247 -8 -550 -8 -302 0 -550 3 -550 7 0 12 118 133 170 175 25 21 43 37 39 38 -3 0 -34 -24 -70 -53z" transform="translate(0,41.0) scale(0.1,-0.1)" stroke="none" fill="#936C3F"/>

<path d="M533 360 c-63 -13 -180 -71 -253 -126 -64 -48 -200 -182 -200 -197 0 -4 248 -7 550 -7 303 0 550 4 550 8 0 16 -61 112 -80 125 -11 7 -17 17 -13 20 3 4 1 7 -5 7 -6 0 -25 15 -42 33 -36 40 -182 112 -267 132 -63 16 -174 18 -240 5z" transform="translate(0,41.0) scale(0.1,-0.1)" stroke="none" fill="#F3A181"/>

<path d="M550 370 c-14 -4 16 -5 65 -3 50 3 95 6 100 8 21 7 -141 3 -165 -5z" transform="translate(248.0,41.0) scale(-0.1,-0.1)" stroke="none" fill="#936C3F"/>

<path d="M871 326 c10 -9 129 -66 129 -61 0 5 -116 65 -126 65 -4 0 -5 -2 -3 -4z" transform="translate(248.0,41.0) scale(-0.1,-0.1)" stroke="none" fill="#936C3F"/>

<path d="M219 197 c-58 -49 -159 -157 -159 -171 0 -11 1118 -7 1125 4 6 10 -29 85 -44 95 -6 3 1 -14 14 -37 14 -24 25 -46 25 -50 0 -4 -247 -8 -550 -8 -302 0 -550 3 -550 7 0 12 118 133 170 175 25 21 43 37 39 38 -3 0 -34 -24 -70 -53z" transform="translate(248.0,41.0) scale(-0.1,-0.1)" stroke="none" fill="#936C3F"/>

<path d="M533 360 c-63 -13 -180 -71 -253 -126 -64 -48 -200 -182 -200 -197 0 -4 248 -7 550 -7 303 0 550 4 550 8 0 16 -61 112 -80 125 -11 7 -17 17 -13 20 3 4 1 7 -5 7 -6 0 -25 15 -42 33 -36 40 -182 112 -267 132 -63 16 -174 18 -240 5z" transform="translate(248.0,41.0) scale(-0.1,-0.1)" stroke="none" fill="#F3A181"/>

<path d="M550 370 c-14 -4 16 -5 65 -3 50 3 95 6 100 8 21 7 -141 3 -165 -5z" transform="translate(0,41.0) scale(0.1,0.1)" stroke="none" fill="#936C3F"/>

<path d="M871 326 c10 -9 129 -66 129 -61 0 5 -116 65 -126 65 -4 0 -5 -2 -3 -4z" transform="translate(0,41.0) scale(0.1,0.1)" stroke="none" fill="#936C3F"/>

<path d="M219 197 c-58 -49 -159 -157 -159 -171 0 -11 1118 -7 1125 4 6 10 -29 85 -44 95 -6 3 1 -14 14 -37 14 -24 25 -46 25 -50 0 -4 -247 -8 -550 -8 -302 0 -550 3 -550 7 0 12 118 133 170 175 25 21 43 37 39 38 -3 0 -34 -24 -70 -53z" transform="translate(0,41.0) scale(0.1,0.1)" stroke="none" fill="#936C3F"/>

<path d="M533 360 c-63 -13 -180 -71 -253 -126 -64 -48 -200 -182 -200 -197 0 -4 248 -7 550 -7 303 0 550 4 550 8 0 16 -61 112 -80 125 -11 7 -17 17 -13 20 3 4 1 7 -5 7 -6 0 -25 15 -42 33 -36 40 -182 112 -267 132 -63 16 -174 18 -240 5z" transform="translate(0,41.0) scale(0.1,0.1)" stroke="none" fill="#F3A181"/>

<path d="M550 370 c-14 -4 16 -5 65 -3 50 3 95 6 100 8 21 7 -141 3 -165 -5z" transform="translate(248.0,41.0) scale(-0.1,0.1)" stroke="none" fill="#936C3F"/>

<path d="M871 326 c10 -9 129 -66 129 -61 0 5 -116 65 -126 65 -4 0 -5 -2 -3 -4z" transform="translate(248.0,41.0) scale(-0.1,0.1)" stroke="none" fill="#936C3F"/>

<path d="M219 197 c-58 -49 -159 -157 -159 -171 0 -11 1118 -7 1125 4 6 10 -29 85 -44 95 -6 3 1 -14 14 -37 14 -24 25 -46 25 -50 0 -4 -247 -8 -550 -8 -302 0 -550 3 -550 7 0 12 118 133 170 175 25 21 43 37 39 38 -3 0 -34 -24 -70 -53z" transform="translate(248.0,41.0) scale(-0.1,0.1)" stroke="none" fill="#936C3F"/>

<path d="M533 360 c-63 -13 -180 -71 -253 -126 -64 -48 -200 -182 -200 -197 0 -4 248 -7 550 -7 303 0 550 4 550 8 0 16 -61 112 -80 125 -11 7 -17 17 -13 20 3 4 1 7 -5 7 -6 0 -25 15 -42 33 -36 40 -182 112 -267 132 -63 16 -174 18 -240 5z" transform="translate(248.0,41.0) scale(-0.1,0.1)" stroke="none" fill="#F3A181"/>

</g>

</g>

<g id="4" transform="translate(496.0,0)scale(1,1)">

<g transform="matrix(0.5,0,0,0.5,0,0)">

<path d="M550 370 c-14 -4 16 -5 65 -3 50 3 95 6 100 8 21 7 -141 3 -165 -5z" transform="translate(0,41.0) scale(0.1,-0.1)" stroke="none" fill="#936C3F"/>

<path d="M871 326 c10 -9 129 -66 129 -61 0 5 -116 65 -126 65 -4 0 -5 -2 -3 -4z" transform="translate(0,41.0) scale(0.1,-0.1)" stroke="none" fill="#936C3F"/>

<path d="M219 197 c-58 -49 -159 -157 -159 -171 0 -11 1118 -7 1125 4 6 10 -29 85 -44 95 -6 3 1 -14 14 -37 14 -24 25 -46 25 -50 0 -4 -247 -8 -550 -8 -302 0 -550 3 -550 7 0 12 118 133 170 175 25 21 43 37 39 38 -3 0 -34 -24 -70 -53z" transform="translate(0,41.0) scale(0.1,-0.1)" stroke="none" fill="#936C3F"/>

<path d="M533 360 c-63 -13 -180 -71 -253 -126 -64 -48 -200 -182 -200 -197 0 -4 248 -7 550 -7 303 0 550 4 550 8 0 16 -61 112 -80 125 -11 7 -17 17 -13 20 3 4 1 7 -5 7 -6 0 -25 15 -42 33 -36 40 -182 112 -267 132 -63 16 -174 18 -240 5z" transform="translate(0,41.0) scale(0.1,-0.1)" stroke="none" fill="#F3A181"/>

<path d="M550 370 c-14 -4 16 -5 65 -3 50 3 95 6 100 8 21 7 -141 3 -165 -5z" transform="translate(248.0,41.0) scale(-0.1,-0.1)" stroke="none" fill="#936C3F"/>

<path d="M871 326 c10 -9 129 -66 129 -61 0 5 -116 65 -126 65 -4 0 -5 -2 -3 -4z" transform="translate(248.0,41.0) scale(-0.1,-0.1)" stroke="none" fill="#936C3F"/>

<path d="M219 197 c-58 -49 -159 -157 -159 -171 0 -11 1118 -7 1125 4 6 10 -29 85 -44 95 -6 3 1 -14 14 -37 14 -24 25 -46 25 -50 0 -4 -247 -8 -550 -8 -302 0 -550 3 -550 7 0 12 118 133 170 175 25 21 43 37 39 38 -3 0 -34 -24 -70 -53z" transform="translate(248.0,41.0) scale(-0.1,-0.1)" stroke="none" fill="#936C3F"/>

<path d="M533 360 c-63 -13 -180 -71 -253 -126 -64 -48 -200 -182 -200 -197 0 -4 248 -7 550 -7 303 0 550 4 550 8 0 16 -61 112 -80 125 -11 7 -17 17 -13 20 3 4 1 7 -5 7 -6 0 -25 15 -42 33 -36 40 -182 112 -267 132 -63 16 -174 18 -240 5z" transform="translate(248.0,41.0) scale(-0.1,-0.1)" stroke="none" fill="#F3A181"/>

<path d="M550 370 c-14 -4 16 -5 65 -3 50 3 95 6 100 8 21 7 -141 3 -165 -5z" transform="translate(0,41.0) scale(0.1,0.1)" stroke="none" fill="#936C3F"/>

<path d="M871 326 c10 -9 129 -66 129 -61 0 5 -116 65 -126 65 -4 0 -5 -2 -3 -4z" transform="translate(0,41.0) scale(0.1,0.1)" stroke="none" fill="#936C3F"/>

<path d="M219 197 c-58 -49 -159 -157 -159 -171 0 -11 1118 -7 1125 4 6 10 -29 85 -44 95 -6 3 1 -14 14 -37 14 -24 25 -46 25 -50 0 -4 -247 -8 -550 -8 -302 0 -550 3 -550 7 0 12 118 133 170 175 25 21 43 37 39 38 -3 0 -34 -24 -70 -53z" transform="translate(0,41.0) scale(0.1,0.1)" stroke="none" fill="#936C3F"/>

<path d="M533 360 c-63 -13 -180 -71 -253 -126 -64 -48 -200 -182 -200 -197 0 -4 248 -7 550 -7 303 0 550 4 550 8 0 16 -61 112 -80 125 -11 7 -17 17 -13 20 3 4 1 7 -5 7 -6 0 -25 15 -42 33 -36 40 -182 112 -267 132 -63 16 -174 18 -240 5z" transform="translate(0,41.0) scale(0.1,0.1)" stroke="none" fill="#F3A181"/>

<path d="M550 370 c-14 -4 16 -5 65 -3 50 3 95 6 100 8 21 7 -141 3 -165 -5z" transform="translate(248.0,41.0) scale(-0.1,0.1)" stroke="none" fill="#936C3F"/>

<path d="M871 326 c10 -9 129 -66 129 -61 0 5 -116 65 -126 65 -4 0 -5 -2 -3 -4z" transform="translate(248.0,41.0) scale(-0.1,0.1)" stroke="none" fill="#936C3F"/>

<path d="M219 197 c-58 -49 -159 -157 -159 -171 0 -11 1118 -7 1125 4 6 10 -29 85 -44 95 -6 3 1 -14 14 -37 14 -24 25 -46 25 -50 0 -4 -247 -8 -550 -8 -302 0 -550 3 -550 7 0 12 118 133 170 175 25 21 43 37 39 38 -3 0 -34 -24 -70 -53z" transform="translate(248.0,41.0) scale(-0.1,0.1)" stroke="none" fill="#936C3F"/>

<path d="M533 360 c-63 -13 -180 -71 -253 -126 -64 -48 -200 -182 -200 -197 0 -4 248 -7 550 -7 303 0 550 4 550 8 0 16 -61 112 -80 125 -11 7 -17 17 -13 20 3 4 1 7 -5 7 -6 0 -25 15 -42 33 -36 40 -182 112 -267 132 -63 16 -174 18 -240 5z" transform="translate(248.0,41.0) scale(-0.1,0.1)" stroke="none" fill="#F3A181"/>

</g>

</g>

</g>
<g id="row1" transform="translate(16,41.0)">
<g id="0" transform="translate(0.0,0)scale(1,1)">

<g transform="matrix(0.5,0,0,0.5,0,0)">

<path d="M550 370 c-14 -4 16 -5 65 -3 50 3 95 6 100 8 21 7 -141 3 -165 -5z" transform="translate(0,41.0) scale(0.1,-0.1)" stroke="none" fill="#936C3F"/>

<path d="M871 326 c10 -9 129 -66 129 -61 0 5 -116 65 -126 65 -4 0 -5 -2 -3 -4z" transform="translate(0,41.0) scale(0.1,-0.1)" stroke="none" fill="#936C3F"/>

<path d="M219 197 c-58 -49 -159 -157 -159 -171 0 -11 1118 -7 1125 4 6 10 -29 85 -44 95 -6 3 1 -14 14 -37 14 -24 25 -46 25 -50 0 -4 -247 -8 -550 -8 -302 0 -550 3 -550 7 0 12 118 133 170 175 25 21 43 37 39 38 -3 0 -34 -24 -70 -53z" transform="translate(0,41.0) scale(0.1,-0.1)" stroke="none" fill="#936C3F"/>

<path d="M533 360 c-63 -13 -180 -71 -253 -126 -64 -48 -200 -182 -200 -197 0 -4 248 -7 550 -7 303 0 550 4 550 8 0 16 -61 112 -80 125 -11 7 -17 17 -13 20 3 4 1 7 -5 7 -6 0 -25 15 -42 33 -36 40 -182 112 -267 132 -63 16 -174 18 -240 5z" transform="translate(0,41.0) scale(0.1,-0.1)" stroke="none" fill="#F3A181"/>

<path d="M550 370 c-14 -4 16 -5 65 -3 50 3 95 6 100 8 21 7 -141 3 -165 -5z" transform="translate(248.0,41.0) scale(-0.1,-0.1)" stroke="none" fill="#936C3F"/>

<path d="M871 326 c10 -9 129 -66 129 -61 0 5 -116 65 -126 65 -4 0 -5 -2 -3 -4z" transform="translate(248.0,41.0) scale(-0.1,-0.1)" stroke="none" fill="#936C3F"/>

<path d="M219 197 c-58 -49 -159 -157 -159 -171 0 -11 1118 -7 1125 4 6 10 -29 85 -44 95 -6 3 1 -14 14 -37 14 -24 25 -46 25 -50 0 -4 -247 -8 -550 -8 -302 0 -550 3 -550 7 0 12 118 133 170 175 25 21 43 37 39 38 -3 0 -34 -24 -70 -53z" transform="translate(248.0,41.0) scale(-0.1,-0.1)" stroke="none" fill="#936C3F"/>

<path d="M533 360 c-63 -13 -180 -71 -253 -126 -64 -48 -200 -182 -200 -197 0 -4 248 -7 550 -7 303 0 550 4 550 8 0 16 -61 112 -80 125 -11 7 -17 17 -13 20 3 4 1 7 -5 7 -6 0 -25 15 -42 33 -36 40 -182 112 -267 132 -63 16 -174 18 -240 5z" transform="translate(248.0,41.0) scale(-0.1,-0.1)" stroke="none" fill="#F3A181"/>

<path d="M550 370 c-14 -4 16 -5 65 -3 50 3 95 6 100 8 21 7 -141 3 -165 -5z" transform="translate(0,41.0) scale(0.1,0.1)" stroke="none" fill="#936C3F"/>

<path d="M871 326 c10 -9 129 -66 129 -61 0 5 -116 65 -126 65 -4 0 -5 -2 -3 -4z" transform="translate(0,41.0) scale(0.1,0.1)" stroke="none" fill="#936C3F"/>

<path d="M219 197 c-58 -49 -159 -157 -159 -171 0 -11 1118 -7 1125 4 6 10 -29 85 -44 95 -6 3 1 -14 14 -37 14 -24 25 -46 25 -50 0 -4 -247 -8 -550 -8 -302 0 -550 3 -550 7 0 12 118 133 170 175 25 21 43 37 39 38 -3 0 -34 -24 -70 -53z" transform="translate(0,41.0) scale(0.1,0.1)" stroke="none" fill="#936C3F"/>

<path d="M533 360 c-63 -13 -180 -71 -253 -126 -64 -48 -200 -182 -200 -197 0 -4 248 -7 550 -7 303 0 550 4 550 8 0 16 -61 112 -80 125 -11 7 -17 17 -13 20 3 4 1 7 -5 7 -6 0 -25 15 -42 33 -36 40 -182 112 -267 132 -63 16 -174 18 -240 5z" transform="translate(0,41.0) scale(0.1,0.1)" stroke="none" fill="#F3A181"/>

<path d="M550 370 c-14 -4 16 -5 65 -3 50 3 95 6 100 8 21 7 -141 3 -165 -5z" transform="translate(248.0,41.0) scale(-0.1,0.1)" stroke="none" fill="#936C3F"/>

<path d="M871 326 c10 -9 129 -66 129 -61 0 5 -116 65 -126 65 -4 0 -5 -2 -3 -4z" transform="translate(248.0,41.0) scale(-0.1,0.1)" stroke="none" fill="#936C3F"/>

<path d="M219 197 c-58 -49 -159 -157 -159 -171 0 -11 1118 -7 1125 4 6 10 -29 85 -44 95 -6 3 1 -14 14 -37 14 -24 25 -46 25 -50 0 -4 -247 -8 -550 -8 -302 0 -550 3 -550 7 0 12 118 133 170 175 25 21 43 37 39 38 -3 0 -34 -24 -70 -53z" transform="translate(248.0,41.0) scale(-0.1,0.1)" stroke="none" fill="#936C3F"/>

<path d="M533 360 c-63 -13 -180 -71 -253 -126 -64 -48 -200 -182 -200 -197 0 -4 248 -7 550 -7 303 0 550 4 550 8 0 16 -61 112 -80 125 -11 7 -17 17 -13 20 3 4 1 7 -5 7 -6 0 -25 15 -42 33 -36 40 -182 112 -267 132 -63 16 -174 18 -240 5z" transform="translate(248.0,41.0) scale(-0.1,0.1)" stroke="none" fill="#F3A181"/>

</g>

</g>

<g id="1" transform="translate(124.0,0)scale(1,1)">

<g transform="matrix(0.5,0,0,0.5,0,0)">

<path d="M550 370 c-14 -4 16 -5 65 -3 50 3 95 6 100 8 21 7 -141 3 -165 -5z" transform="translate(0,41.0) scale(0.1,-0.1)" stroke="none" fill="#936C3F"/>

<path d="M871 326 c10 -9 129 -66 129 -61 0 5 -116 65 -126 65 -4 0 -5 -2 -3 -4z" transform="translate(0,41.0) scale(0.1,-0.1)" stroke="none" fill="#936C3F"/>

<path d="M219 197 c-58 -49 -159 -157 -159 -171 0 -11 1118 -7 1125 4 6 10 -29 85 -44 95 -6 3 1 -14 14 -37 14 -24 25 -46 25 -50 0 -4 -247 -8 -550 -8 -302 0 -550 3 -550 7 0 12 118 133 170 175 25 21 43 37 39 38 -3 0 -34 -24 -70 -53z" transform="translate(0,41.0) scale(0.1,-0.1)" stroke="none" fill="#936C3F"/>

<path d="M533 360 c-63 -13 -180 -71 -253 -126 -64 -48 -200 -182 -200 -197 0 -4 248 -7 550 -7 303 0 550 4 550 8 0 16 -61 112 -80 125 -11 7 -17 17 -13 20 3 4 1 7 -5 7 -6 0 -25 15 -42 33 -36 40 -182 112 -267 132 -63 16 -174 18 -240 5z" transform="translate(0,41.0) scale(0.1,-0.1)" stroke="none" fill="#F3A181"/>

<path d="M550 370 c-14 -4 16 -5 65 -3 50 3 95 6 100 8 21 7 -141 3 -165 -5z" transform="translate(248.0,41.0) scale(-0.1,-0.1)" stroke="none" fill="#936C3F"/>

<path d="M871 326 c10 -9 129 -66 129 -61 0 5 -116 65 -126 65 -4 0 -5 -2 -3 -4z" transform="translate(248.0,41.0) scale(-0.1,-0.1)" stroke="none" fill="#936C3F"/>

<path d="M219 197 c-58 -49 -159 -157 -159 -171 0 -11 1118 -7 1125 4 6 10 -29 85 -44 95 -6 3 1 -14 14 -37 14 -24 25 -46 25 -50 0 -4 -247 -8 -550 -8 -302 0 -550 3 -550 7 0 12 118 133 170 175 25 21 43 37 39 38 -3 0 -34 -24 -70 -53z" transform="translate(248.0,41.0) scale(-0.1,-0.1)" stroke="none" fill="#936C3F"/>

<path d="M533 360 c-63 -13 -180 -71 -253 -126 -64 -48 -200 -182 -200 -197 0 -4 248 -7 550 -7 303 0 550 4 550 8 0 16 -61 112 -80 125 -11 7 -17 17 -13 20 3 4 1 7 -5 7 -6 0 -25 15 -42 33 -36 40 -182 112 -267 132 -63 16 -174 18 -240 5z" transform="translate(248.0,41.0) scale(-0.1,-0.1)" stroke="none" fill="#F3A181"/>

<path d="M550 370 c-14 -4 16 -5 65 -3 50 3 95 6 100 8 21 7 -141 3 -165 -5z" transform="translate(0,41.0) scale(0.1,0.1)" stroke="none" fill="#936C3F"/>

<path d="M871 326 c10 -9 129 -66 129 -61 0 5 -116 65 -126 65 -4 0 -5 -2 -3 -4z" transform="translate(0,41.0) scale(0.1,0.1)" stroke="none" fill="#936C3F"/>

<path d="M219 197 c-58 -49 -159 -157 -159 -171 0 -11 1118 -7 1125 4 6 10 -29 85 -44 95 -6 3 1 -14 14 -37 14 -24 25 -46 25 -50 0 -4 -247 -8 -550 -8 -302 0 -550 3 -550 7 0 12 118 133 170 175 25 21 43 37 39 38 -3 0 -34 -24 -70 -53z" transform="translate(0,41.0) scale(0.1,0.1)" stroke="none" fill="#936C3F"/>

<path d="M533 360 c-63 -13 -180 -71 -253 -126 -64 -48 -200 -182 -200 -197 0 -4 248 -7 550 -7 303 0 550 4 550 8 0 16 -61 112 -80 125 -11 7 -17 17 -13 20 3 4 1 7 -5 7 -6 0 -25 15 -42 33 -36 40 -182 112 -267 132 -63 16 -174 18 -240 5z" transform="translate(0,41.0) scale(0.1,0.1)" stroke="none" fill="#F3A181"/>

<path d="M550 370 c-14 -4 16 -5 65 -3 50 3 95 6 100 8 21 7 -141 3 -165 -5z" transform="translate(248.0,41.0) scale(-0.1,0.1)" stroke="none" fill="#936C3F"/>

<path d="M871 326 c10 -9 129 -66 129 -61 0 5 -116 65 -126 65 -4 0 -5 -2 -3 -4z" transform="translate(248.0,41.0) scale(-0.1,0.1)" stroke="none" fill="#936C3F"/>

<path d="M219 197 c-58 -49 -159 -157 -159 -171 0 -11 1118 -7 1125 4 6 10 -29 85 -44 95 -6 3 1 -14 14 -37 14 -24 25 -46 25 -50 0 -4 -247 -8 -550 -8 -302 0 -550 3 -550 7 0 12 118 133 170 175 25 21 43 37 39 38 -3 0 -34 -24 -70 -53z" transform="translate(248.0,41.0) scale(-0.1,0.1)" stroke="none" fill="#936C3F"/>

<path d="M533 360 c-63 -13 -180 -71 -253 -126 -64 -48 -200 -182 -200 -197 0 -4 248 -7 550 -7 303 0 550 4 550 8 0 16 -61 112 -80 125 -11 7 -17 17 -13 20 3 4 1 7 -5 7 -6 0 -25 15 -42 33 -36 40 -182 112 -267 132 -63 16 -174 18 -240 5z" transform="translate(248.0,41.0) scale(-0.1,0.1)" stroke="none" fill="#F3A181"/>

</g>

</g>

<g id="2" transform="translate(248.0,0)scale(1,1)">

<g transform="matrix(0.5,0,0,0.5,0,0)">

<path d="M550 370 c-14 -4 16 -5 65 -3 50 3 95 6 100 8 21 7 -141 3 -165 -5z" transform="translate(0,41.0) scale(0.1,-0.1)" stroke="none" fill="#936C3F"/>

<path d="M871 326 c10 -9 129 -66 129 -61 0 5 -116 65 -126 65 -4 0 -5 -2 -3 -4z" transform="translate(0,41.0) scale(0.1,-0.1)" stroke="none" fill="#936C3F"/>

<path d="M219 197 c-58 -49 -159 -157 -159 -171 0 -11 1118 -7 1125 4 6 10 -29 85 -44 95 -6 3 1 -14 14 -37 14 -24 25 -46 25 -50 0 -4 -247 -8 -550 -8 -302 0 -550 3 -550 7 0 12 118 133 170 175 25 21 43 37 39 38 -3 0 -34 -24 -70 -53z" transform="translate(0,41.0) scale(0.1,-0.1)" stroke="none" fill="#936C3F"/>

<path d="M533 360 c-63 -13 -180 -71 -253 -126 -64 -48 -200 -182 -200 -197 0 -4 248 -7 550 -7 303 0 550 4 550 8 0 16 -61 112 -80 125 -11 7 -17 17 -13 20 3 4 1 7 -5 7 -6 0 -25 15 -42 33 -36 40 -182 112 -267 132 -63 16 -174 18 -240 5z" transform="translate(0,41.0) scale(0.1,-0.1)" stroke="none" fill="#F3A181"/>

<path d="M550 370 c-14 -4 16 -5 65 -3 50 3 95 6 100 8 21 7 -141 3 -165 -5z" transform="translate(248.0,41.0) scale(-0.1,-0.1)" stroke="none" fill="#936C3F"/>

<path d="M871 326 c10 -9 129 -66 129 -61 0 5 -116 65 -126 65 -4 0 -5 -2 -3 -4z" transform="translate(248.0,41.0) scale(-0.1,-0.1)" stroke="none" fill="#936C3F"/>

<path d="M219 197 c-58 -49 -159 -157 -159 -171 0 -11 1118 -7 1125 4 6 10 -29 85 -44 95 -6 3 1 -14 14 -37 14 -24 25 -46 25 -50 0 -4 -247 -8 -550 -8 -302 0 -550 3 -550 7 0 12 118 133 170 175 25 21 43 37 39 38 -3 0 -34 -24 -70 -53z" transform="translate(248.0,41.0) scale(-0.1,-0.1)" stroke="none" fill="#936C3F"/>

<path d="M533 360 c-63 -13 -180 -71 -253 -126 -64 -48 -200 -182 -200 -197 0 -4 248 -7 550 -7 303 0 550 4 550 8 0 16 -61 112 -80 125 -11 7 -17 17 -13 20 3 4 1 7 -5 7 -6 0 -25 15 -42 33 -36 40 -182 112 -267 132 -63 16 -174 18 -240 5z" transform="translate(248.0,41.0) scale(-0.1,-0.1)" stroke="none" fill="#F3A181"/>

<path d="M550 370 c-14 -4 16 -5 65 -3 50 3 95 6 100 8 21 7 -141 3 -165 -5z" transform="translate(0,41.0) scale(0.1,0.1)" stroke="none" fill="#936C3F"/>

<path d="M871 326 c10 -9 129 -66 129 -61 0 5 -116 65 -126 65 -4 0 -5 -2 -3 -4z" transform="translate(0,41.0) scale(0.1,0.1)" stroke="none" fill="#936C3F"/>

<path d="M219 197 c-58 -49 -159 -157 -159 -171 0 -11 1118 -7 1125 4 6 10 -29 85 -44 95 -6 3 1 -14 14 -37 14 -24 25 -46 25 -50 0 -4 -247 -8 -550 -8 -302 0 -550 3 -550 7 0 12 118 133 170 175 25 21 43 37 39 38 -3 0 -34 -24 -70 -53z" transform="translate(0,41.0) scale(0.1,0.1)" stroke="none" fill="#936C3F"/>

<path d="M533 360 c-63 -13 -180 -71 -253 -126 -64 -48 -200 -182 -200 -197 0 -4 248 -7 550 -7 303 0 550 4 550 8 0 16 -61 112 -80 125 -11 7 -17 17 -13 20 3 4 1 7 -5 7 -6 0 -25 15 -42 33 -36 40 -182 112 -267 132 -63 16 -174 18 -240 5z" transform="translate(0,41.0) scale(0.1,0.1)" stroke="none" fill="#F3A181"/>

<path d="M550 370 c-14 -4 16 -5 65 -3 50 3 95 6 100 8 21 7 -141 3 -165 -5z" transform="translate(248.0,41.0) scale(-0.1,0.1)" stroke="none" fill="#936C3F"/>

<path d="M871 326 c10 -9 129 -66 129 -61 0 5 -116 65 -126 65 -4 0 -5 -2 -3 -4z" transform="translate(248.0,41.0) scale(-0.1,0.1)" stroke="none" fill="#936C3F"/>

<path d="M219 197 c-58 -49 -159 -157 -159 -171 0 -11 1118 -7 1125 4 6 10 -29 85 -44 95 -6 3 1 -14 14 -37 14 -24 25 -46 25 -50 0 -4 -247 -8 -550 -8 -302 0 -550 3 -550 7 0 12 118 133 170 175 25 21 43 37 39 38 -3 0 -34 -24 -70 -53z" transform="translate(248.0,41.0) scale(-0.1,0.1)" stroke="none" fill="#936C3F"/>

<path d="M533 360 c-63 -13 -180 -71 -253 -126 -64 -48 -200 -182 -200 -197 0 -4 248 -7 550 -7 303 0 550 4 550 8 0 16 -61 112 -80 125 -11 7 -17 17 -13 20 3 4 1 7 -5 7 -6 0 -25 15 -42 33 -36 40 -182 112 -267 132 -63 16 -174 18 -240 5z" transform="translate(248.0,41.0) scale(-0.1,0.1)" stroke="none" fill="#F3A181"/>

</g>

</g>

<g id="3" transform="translate(372.0,0)scale(1,1)">

<g transform="matrix(0.5,0,0,0.5,0,0)">

<path d="M550 370 c-14 -4 16 -5 65 -3 50 3 95 6 100 8 21 7 -141 3 -165 -5z" transform="translate(0,41.0) scale(0.1,-0.1)" stroke="none" fill="#936C3F"/>

<path d="M871 326 c10 -9 129 -66 129 -61 0 5 -116 65 -126 65 -4 0 -5 -2 -3 -4z" transform="translate(0,41.0) scale(0.1,-0.1)" stroke="none" fill="#936C3F"/>

<path d="M219 197 c-58 -49 -159 -157 -159 -171 0 -11 1118 -7 1125 4 6 10 -29 85 -44 95 -6 3 1 -14 14 -37 14 -24 25 -46 25 -50 0 -4 -247 -8 -550 -8 -302 0 -550 3 -550 7 0 12 118 133 170 175 25 21 43 37 39 38 -3 0 -34 -24 -70 -53z" transform="translate(0,41.0) scale(0.1,-0.1)" stroke="none" fill="#936C3F"/>

<path d="M533 360 c-63 -13 -180 -71 -253 -126 -64 -48 -200 -182 -200 -197 0 -4 248 -7 550 -7 303 0 550 4 550 8 0 16 -61 112 -80 125 -11 7 -17 17 -13 20 3 4 1 7 -5 7 -6 0 -25 15 -42 33 -36 40 -182 112 -267 132 -63 16 -174 18 -240 5z" transform="translate(0,41.0) scale(0.1,-0.1)" stroke="none" fill="#F3A181"/>

<path d="M550 370 c-14 -4 16 -5 65 -3 50 3 95 6 100 8 21 7 -141 3 -165 -5z" transform="translate(248.0,41.0) scale(-0.1,-0.1)" stroke="none" fill="#936C3F"/>

<path d="M871 326 c10 -9 129 -66 129 -61 0 5 -116 65 -126 65 -4 0 -5 -2 -3 -4z" transform="translate(248.0,41.0) scale(-0.1,-0.1)" stroke="none" fill="#936C3F"/>

<path d="M219 197 c-58 -49 -159 -157 -159 -171 0 -11 1118 -7 1125 4 6 10 -29 85 -44 95 -6 3 1 -14 14 -37 14 -24 25 -46 25 -50 0 -4 -247 -8 -550 -8 -302 0 -550 3 -550 7 0 12 118 133 170 175 25 21 43 37 39 38 -3 0 -34 -24 -70 -53z" transform="translate(248.0,41.0) scale(-0.1,-0.1)" stroke="none" fill="#936C3F"/>

<path d="M533 360 c-63 -13 -180 -71 -253 -126 -64 -48 -200 -182 -200 -197 0 -4 248 -7 550 -7 303 0 550 4 550 8 0 16 -61 112 -80 125 -11 7 -17 17 -13 20 3 4 1 7 -5 7 -6 0 -25 15 -42 33 -36 40 -182 112 -267 132 -63 16 -174 18 -240 5z" transform="translate(248.0,41.0) scale(-0.1,-0.1)" stroke="none" fill="#F3A181"/>

<path d="M550 370 c-14 -4 16 -5 65 -3 50 3 95 6 100 8 21 7 -141 3 -165 -5z" transform="translate(0,41.0) scale(0.1,0.1)" stroke="none" fill="#936C3F"/>

<path d="M871 326 c10 -9 129 -66 129 -61 0 5 -116 65 -126 65 -4 0 -5 -2 -3 -4z" transform="translate(0,41.0) scale(0.1,0.1)" stroke="none" fill="#936C3F"/>

<path d="M219 197 c-58 -49 -159 -157 -159 -171 0 -11 1118 -7 1125 4 6 10 -29 85 -44 95 -6 3 1 -14 14 -37 14 -24 25 -46 25 -50 0 -4 -247 -8 -550 -8 -302 0 -550 3 -550 7 0 12 118 133 170 175 25 21 43 37 39 38 -3 0 -34 -24 -70 -53z" transform="translate(0,41.0) scale(0.1,0.1)" stroke="none" fill="#936C3F"/>

<path d="M533 360 c-63 -13 -180 -71 -253 -126 -64 -48 -200 -182 -200 -197 0 -4 248 -7 550 -7 303 0 550 4 550 8 0 16 -61 112 -80 125 -11 7 -17 17 -13 20 3 4 1 7 -5 7 -6 0 -25 15 -42 33 -36 40 -182 112 -267 132 -63 16 -174 18 -240 5z" transform="translate(0,41.0) scale(0.1,0.1)" stroke="none" fill="#F3A181"/>

<path d="M550 370 c-14 -4 16 -5 65 -3 50 3 95 6 100 8 21 7 -141 3 -165 -5z" transform="translate(248.0,41.0) scale(-0.1,0.1)" stroke="none" fill="#936C3F"/>

<path d="M871 326 c10 -9 129 -66 129 -61 0 5 -116 65 -126 65 -4 0 -5 -2 -3 -4z" transform="translate(248.0,41.0) scale(-0.1,0.1)" stroke="none" fill="#936C3F"/>

<path d="M219 197 c-58 -49 -159 -157 -159 -171 0 -11 1118 -7 1125 4 6 10 -29 85 -44 95 -6 3 1 -14 14 -37 14 -24 25 -46 25 -50 0 -4 -247 -8 -550 -8 -302 0 -550 3 -550 7 0 12 118 133 170 175 25 21 43 37 39 38 -3 0 -34 -24 -70 -53z" transform="translate(248.0,41.0) scale(-0.1,0.1)" stroke="none" fill="#936C3F"/>

<path d="M533 360 c-63 -13 -180 -71 -253 -126 -64 -48 -200 -182 -200 -197 0 -4 248 -7 550 -7 303 0 550 4 550 8 0 16 -61 112 -80 125 -11 7 -17 17 -13 20 3 4 1 7 -5 7 -6 0 -25 15 -42 33 -36 40 -182 112 -267 132 -63 16 -174 18 -240 5z" transform="translate(248.0,41.0) scale(-0.1,0.1)" stroke="none" fill="#F3A181"/>

</g>

</g>

<g id="4" transform="translate(496.0,0)scale(1,1)">

<g transform="matrix(0.5,0,0,0.5,0,0)">

<path d="M550 370 c-14 -4 16 -5 65 -3 50 3 95 6 100 8 21 7 -141 3 -165 -5z" transform="translate(0,41.0) scale(0.1,-0.1)" stroke="none" fill="#936C3F"/>

<path d="M871 326 c10 -9 129 -66 129 -61 0 5 -116 65 -126 65 -4 0 -5 -2 -3 -4z" transform="translate(0,41.0) scale(0.1,-0.1)" stroke="none" fill="#936C3F"/>

<path d="M219 197 c-58 -49 -159 -157 -159 -171 0 -11 1118 -7 1125 4 6 10 -29 85 -44 95 -6 3 1 -14 14 -37 14 -24 25 -46 25 -50 0 -4 -247 -8 -550 -8 -302 0 -550 3 -550 7 0 12 118 133 170 175 25 21 43 37 39 38 -3 0 -34 -24 -70 -53z" transform="translate(0,41.0) scale(0.1,-0.1)" stroke="none" fill="#936C3F"/>

<path d="M533 360 c-63 -13 -180 -71 -253 -126 -64 -48 -200 -182 -200 -197 0 -4 248 -7 550 -7 303 0 550 4 550 8 0 16 -61 112 -80 125 -11 7 -17 17 -13 20 3 4 1 7 -5 7 -6 0 -25 15 -42 33 -36 40 -182 112 -267 132 -63 16 -174 18 -240 5z" transform="translate(0,41.0) scale(0.1,-0.1)" stroke="none" fill="#F3A181"/>

<path d="M550 370 c-14 -4 16 -5 65 -3 50 3 95 6 100 8 21 7 -141 3 -165 -5z" transform="translate(248.0,41.0) scale(-0.1,-0.1)" stroke="none" fill="#936C3F"/>

<path d="M871 326 c10 -9 129 -66 129 -61 0 5 -116 65 -126 65 -4 0 -5 -2 -3 -4z" transform="translate(248.0,41.0) scale(-0.1,-0.1)" stroke="none" fill="#936C3F"/>

<path d="M219 197 c-58 -49 -159 -157 -159 -171 0 -11 1118 -7 1125 4 6 10 -29 85 -44 95 -6 3 1 -14 14 -37 14 -24 25 -46 25 -50 0 -4 -247 -8 -550 -8 -302 0 -550 3 -550 7 0 12 118 133 170 175 25 21 43 37 39 38 -3 0 -34 -24 -70 -53z" transform="translate(248.0,41.0) scale(-0.1,-0.1)" stroke="none" fill="#936C3F"/>

<path d="M533 360 c-63 -13 -180 -71 -253 -126 -64 -48 -200 -182 -200 -197 0 -4 248 -7 550 -7 303 0 550 4 550 8 0 16 -61 112 -80 125 -11 7 -17 17 -13 20 3 4 1 7 -5 7 -6 0 -25 15 -42 33 -36 40 -182 112 -267 132 -63 16 -174 18 -240 5z" transform="translate(248.0,41.0) scale(-0.1,-0.1)" stroke="none" fill="#F3A181"/>

<path d="M550 370 c-14 -4 16 -5 65 -3 50 3 95 6 100 8 21 7 -141 3 -165 -5z" transform="translate(0,41.0) scale(0.1,0.1)" stroke="none" fill="#936C3F"/>

<path d="M871 326 c10 -9 129 -66 129 -61 0 5 -116 65 -126 65 -4 0 -5 -2 -3 -4z" transform="translate(0,41.0) scale(0.1,0.1)" stroke="none" fill="#936C3F"/>

<path d="M219 197 c-58 -49 -159 -157 -159 -171 0 -11 1118 -7 1125 4 6 10 -29 85 -44 95 -6 3 1 -14 14 -37 14 -24 25 -46 25 -50 0 -4 -247 -8 -550 -8 -302 0 -550 3 -550 7 0 12 118 133 170 175 25 21 43 37 39 38 -3 0 -34 -24 -70 -53z" transform="translate(0,41.0) scale(0.1,0.1)" stroke="none" fill="#936C3F"/>

<path d="M533 360 c-63 -13 -180 -71 -253 -126 -64 -48 -200 -182 -200 -197 0 -4 248 -7 550 -7 303 0 550 4 550 8 0 16 -61 112 -80 125 -11 7 -17 17 -13 20 3 4 1 7 -5 7 -6 0 -25 15 -42 33 -36 40 -182 112 -267 132 -63 16 -174 18 -240 5z" transform="translate(0,41.0) scale(0.1,0.1)" stroke="none" fill="#F3A181"/>

<path d="M550 370 c-14 -4 16 -5 65 -3 50 3 95 6 100 8 21 7 -141 3 -165 -5z" transform="translate(248.0,41.0) scale(-0.1,0.1)" stroke="none" fill="#936C3F"/>

<path d="M871 326 c10 -9 129 -66 129 -61 0 5 -116 65 -126 65 -4 0 -5 -2 -3 -4z" transform="translate(248.0,41.0) scale(-0.1,0.1)" stroke="none" fill="#936C3F"/>

<path d="M219 197 c-58 -49 -159 -157 -159 -171 0 -11 1118 -7 1125 4 6 10 -29 85 -44 95 -6 3 1 -14 14 -37 14 -24 25 -46 25 -50 0 -4 -247 -8 -550 -8 -302 0 -550 3 -550 7 0 12 118 133 170 175 25 21 43 37 39 38 -3 0 -34 -24 -70 -53z" transform="translate(248.0,41.0) scale(-0.1,0.1)" stroke="none" fill="#936C3F"/>

<path d="M533 360 c-63 -13 -180 -71 -253 -126 -64 -48 -200 -182 -200 -197 0 -4 248 -7 550 -7 303 0 550 4 550 8 0 16 -61 112 -80 125 -11 7 -17 17 -13 20 3 4 1 7 -5 7 -6 0 -25 15 -42 33 -36 40 -182 112 -267 132 -63 16 -174 18 -240 5z" transform="translate(248.0,41.0) scale(-0.1,0.1)" stroke="none" fill="#F3A181"/>

</g>

</g>

</g>
<g id="row2" transform="translate(16,82.0)">
<g id="0" transform="translate(0.0,0)scale(1,1)">

<g transform="matrix(0.5,0,0,0.5,0,0)">

<path d="M550 370 c-14 -4 16 -5 65 -3 50 3 95 6 100 8 21 7 -141 3 -165 -5z" transform="translate(0,41.0) scale(0.1,-0.1)" stroke="none" fill="#936C3F"/>

<path d="M871 326 c10 -9 129 -66 129 -61 0 5 -116 65 -126 65 -4 0 -5 -2 -3 -4z" transform="translate(0,41.0) scale(0.1,-0.1)" stroke="none" fill="#936C3F"/>

<path d="M219 197 c-58 -49 -159 -157 -159 -171 0 -11 1118 -7 1125 4 6 10 -29 85 -44 95 -6 3 1 -14 14 -37 14 -24 25 -46 25 -50 0 -4 -247 -8 -550 -8 -302 0 -550 3 -550 7 0 12 118 133 170 175 25 21 43 37 39 38 -3 0 -34 -24 -70 -53z" transform="translate(0,41.0) scale(0.1,-0.1)" stroke="none" fill="#936C3F"/>

<path d="M533 360 c-63 -13 -180 -71 -253 -126 -64 -48 -200 -182 -200 -197 0 -4 248 -7 550 -7 303 0 550 4 550 8 0 16 -61 112 -80 125 -11 7 -17 17 -13 20 3 4 1 7 -5 7 -6 0 -25 15 -42 33 -36 40 -182 112 -267 132 -63 16 -174 18 -240 5z" transform="translate(0,41.0) scale(0.1,-0.1)" stroke="none" fill="#F3A181"/>

<path d="M550 370 c-14 -4 16 -5 65 -3 50 3 95 6 100 8 21 7 -141 3 -165 -5z" transform="translate(248.0,41.0) scale(-0.1,-0.1)" stroke="none" fill="#936C3F"/>

<path d="M871 326 c10 -9 129 -66 129 -61 0 5 -116 65 -126 65 -4 0 -5 -2 -3 -4z" transform="translate(248.0,41.0) scale(-0.1,-0.1)" stroke="none" fill="#936C3F"/>

<path d="M219 197 c-58 -49 -159 -157 -159 -171 0 -11 1118 -7 1125 4 6 10 -29 85 -44 95 -6 3 1 -14 14 -37 14 -24 25 -46 25 -50 0 -4 -247 -8 -550 -8 -302 0 -550 3 -550 7 0 12 118 133 170 175 25 21 43 37 39 38 -3 0 -34 -24 -70 -53z" transform="translate(248.0,41.0) scale(-0.1,-0.1)" stroke="none" fill="#936C3F"/>

<path d="M533 360 c-63 -13 -180 -71 -253 -126 -64 -48 -200 -182 -200 -197 0 -4 248 -7 550 -7 303 0 550 4 550 8 0 16 -61 112 -80 125 -11 7 -17 17 -13 20 3 4 1 7 -5 7 -6 0 -25 15 -42 33 -36 40 -182 112 -267 132 -63 16 -174 18 -240 5z" transform="translate(248.0,41.0) scale(-0.1,-0.1)" stroke="none" fill="#F3A181"/>

<path d="M550 370 c-14 -4 16 -5 65 -3 50 3 95 6 100 8 21 7 -141 3 -165 -5z" transform="translate(0,41.0) scale(0.1,0.1)" stroke="none" fill="#936C3F"/>

<path d="M871 326 c10 -9 129 -66 129 -61 0 5 -116 65 -126 65 -4 0 -5 -2 -3 -4z" transform="translate(0,41.0) scale(0.1,0.1)" stroke="none" fill="#936C3F"/>

<path d="M219 197 c-58 -49 -159 -157 -159 -171 0 -11 1118 -7 1125 4 6 10 -29 85 -44 95 -6 3 1 -14 14 -37 14 -24 25 -46 25 -50 0 -4 -247 -8 -550 -8 -302 0 -550 3 -550 7 0 12 118 133 170 175 25 21 43 37 39 38 -3 0 -34 -24 -70 -53z" transform="translate(0,41.0) scale(0.1,0.1)" stroke="none" fill="#936C3F"/>

<path d="M533 360 c-63 -13 -180 -71 -253 -126 -64 -48 -200 -182 -200 -197 0 -4 248 -7 550 -7 303 0 550 4 550 8 0 16 -61 112 -80 125 -11 7 -17 17 -13 20 3 4 1 7 -5 7 -6 0 -25 15 -42 33 -36 40 -182 112 -267 132 -63 16 -174 18 -240 5z" transform="translate(0,41.0) scale(0.1,0.1)" stroke="none" fill="#F3A181"/>

<path d="M550 370 c-14 -4 16 -5 65 -3 50 3 95 6 100 8 21 7 -141 3 -165 -5z" transform="translate(248.0,41.0) scale(-0.1,0.1)" stroke="none" fill="#936C3F"/>

<path d="M871 326 c10 -9 129 -66 129 -61 0 5 -116 65 -126 65 -4 0 -5 -2 -3 -4z" transform="translate(248.0,41.0) scale(-0.1,0.1)" stroke="none" fill="#936C3F"/>

<path d="M219 197 c-58 -49 -159 -157 -159 -171 0 -11 1118 -7 1125 4 6 10 -29 85 -44 95 -6 3 1 -14 14 -37 14 -24 25 -46 25 -50 0 -4 -247 -8 -550 -8 -302 0 -550 3 -550 7 0 12 118 133 170 175 25 21 43 37 39 38 -3 0 -34 -24 -70 -53z" transform="translate(248.0,41.0) scale(-0.1,0.1)" stroke="none" fill="#936C3F"/>

<path d="M533 360 c-63 -13 -180 -71 -253 -126 -64 -48 -200 -182 -200 -197 0 -4 248 -7 550 -7 303 0 550 4 550 8 0 16 -61 112 -80 125 -11 7 -17 17 -13 20 3 4 1 7 -5 7 -6 0 -25 15 -42 33 -36 40 -182 112 -267 132 -63 16 -174 18 -240 5z" transform="translate(248.0,41.0) scale(-0.1,0.1)" stroke="none" fill="#F3A181"/>

</g>

</g>

<g id="1" transform="translate(124.0,0)scale(1,1)">

<g transform="matrix(0.5,0,0,0.5,0,0)">

<path d="M550 370 c-14 -4 16 -5 65 -3 50 3 95 6 100 8 21 7 -141 3 -165 -5z" transform="translate(0,41.0) scale(0.1,-0.1)" stroke="none" fill="#936C3F"/>

<path d="M871 326 c10 -9 129 -66 129 -61 0 5 -116 65 -126 65 -4 0 -5 -2 -3 -4z" transform="translate(0,41.0) scale(0.1,-0.1)" stroke="none" fill="#936C3F"/>

<path d="M219 197 c-58 -49 -159 -157 -159 -171 0 -11 1118 -7 1125 4 6 10 -29 85 -44 95 -6 3 1 -14 14 -37 14 -24 25 -46 25 -50 0 -4 -247 -8 -550 -8 -302 0 -550 3 -550 7 0 12 118 133 170 175 25 21 43 37 39 38 -3 0 -34 -24 -70 -53z" transform="translate(0,41.0) scale(0.1,-0.1)" stroke="none" fill="#936C3F"/>

<path d="M533 360 c-63 -13 -180 -71 -253 -126 -64 -48 -200 -182 -200 -197 0 -4 248 -7 550 -7 303 0 550 4 550 8 0 16 -61 112 -80 125 -11 7 -17 17 -13 20 3 4 1 7 -5 7 -6 0 -25 15 -42 33 -36 40 -182 112 -267 132 -63 16 -174 18 -240 5z" transform="translate(0,41.0) scale(0.1,-0.1)" stroke="none" fill="#F3A181"/>

<path d="M550 370 c-14 -4 16 -5 65 -3 50 3 95 6 100 8 21 7 -141 3 -165 -5z" transform="translate(248.0,41.0) scale(-0.1,-0.1)" stroke="none" fill="#936C3F"/>

<path d="M871 326 c10 -9 129 -66 129 -61 0 5 -116 65 -126 65 -4 0 -5 -2 -3 -4z" transform="translate(248.0,41.0) scale(-0.1,-0.1)" stroke="none" fill="#936C3F"/>

<path d="M219 197 c-58 -49 -159 -157 -159 -171 0 -11 1118 -7 1125 4 6 10 -29 85 -44 95 -6 3 1 -14 14 -37 14 -24 25 -46 25 -50 0 -4 -247 -8 -550 -8 -302 0 -550 3 -550 7 0 12 118 133 170 175 25 21 43 37 39 38 -3 0 -34 -24 -70 -53z" transform="translate(248.0,41.0) scale(-0.1,-0.1)" stroke="none" fill="#936C3F"/>

<path d="M533 360 c-63 -13 -180 -71 -253 -126 -64 -48 -200 -182 -200 -197 0 -4 248 -7 550 -7 303 0 550 4 550 8 0 16 -61 112 -80 125 -11 7 -17 17 -13 20 3 4 1 7 -5 7 -6 0 -25 15 -42 33 -36 40 -182 112 -267 132 -63 16 -174 18 -240 5z" transform="translate(248.0,41.0) scale(-0.1,-0.1)" stroke="none" fill="#F3A181"/>

<path d="M550 370 c-14 -4 16 -5 65 -3 50 3 95 6 100 8 21 7 -141 3 -165 -5z" transform="translate(0,41.0) scale(0.1,0.1)" stroke="none" fill="#936C3F"/>

<path d="M871 326 c10 -9 129 -66 129 -61 0 5 -116 65 -126 65 -4 0 -5 -2 -3 -4z" transform="translate(0,41.0) scale(0.1,0.1)" stroke="none" fill="#936C3F"/>

<path d="M219 197 c-58 -49 -159 -157 -159 -171 0 -11 1118 -7 1125 4 6 10 -29 85 -44 95 -6 3 1 -14 14 -37 14 -24 25 -46 25 -50 0 -4 -247 -8 -550 -8 -302 0 -550 3 -550 7 0 12 118 133 170 175 25 21 43 37 39 38 -3 0 -34 -24 -70 -53z" transform="translate(0,41.0) scale(0.1,0.1)" stroke="none" fill="#936C3F"/>

<path d="M533 360 c-63 -13 -180 -71 -253 -126 -64 -48 -200 -182 -200 -197 0 -4 248 -7 550 -7 303 0 550 4 550 8 0 16 -61 112 -80 125 -11 7 -17 17 -13 20 3 4 1 7 -5 7 -6 0 -25 15 -42 33 -36 40 -182 112 -267 132 -63 16 -174 18 -240 5z" transform="translate(0,41.0) scale(0.1,0.1)" stroke="none" fill="#F3A181"/>

<path d="M550 370 c-14 -4 16 -5 65 -3 50 3 95 6 100 8 21 7 -141 3 -165 -5z" transform="translate(248.0,41.0) scale(-0.1,0.1)" stroke="none" fill="#936C3F"/>

<path d="M871 326 c10 -9 129 -66 129 -61 0 5 -116 65 -126 65 -4 0 -5 -2 -3 -4z" transform="translate(248.0,41.0) scale(-0.1,0.1)" stroke="none" fill="#936C3F"/>

<path d="M219 197 c-58 -49 -159 -157 -159 -171 0 -11 1118 -7 1125 4 6 10 -29 85 -44 95 -6 3 1 -14 14 -37 14 -24 25 -46 25 -50 0 -4 -247 -8 -550 -8 -302 0 -550 3 -550 7 0 12 118 133 170 175 25 21 43 37 39 38 -3 0 -34 -24 -70 -53z" transform="translate(248.0,41.0) scale(-0.1,0.1)" stroke="none" fill="#936C3F"/>

<path d="M533 360 c-63 -13 -180 -71 -253 -126 -64 -48 -200 -182 -200 -197 0 -4 248 -7 550 -7 303 0 550 4 550 8 0 16 -61 112 -80 125 -11 7 -17 17 -13 20 3 4 1 7 -5 7 -6 0 -25 15 -42 33 -36 40 -182 112 -267 132 -63 16 -174 18 -240 5z" transform="translate(248.0,41.0) scale(-0.1,0.1)" stroke="none" fill="#F3A181"/>

</g>

</g>

<g id="2" transform="translate(248.0,0)scale(1,1)">

<g transform="matrix(0.5,0,0,0.5,0,0)">

<path d="M550 370 c-14 -4 16 -5 65 -3 50 3 95 6 100 8 21 7 -141 3 -165 -5z" transform="translate(0,41.0) scale(0.1,-0.1)" stroke="none" fill="#936C3F"/>

<path d="M871 326 c10 -9 129 -66 129 -61 0 5 -116 65 -126 65 -4 0 -5 -2 -3 -4z" transform="translate(0,41.0) scale(0.1,-0.1)" stroke="none" fill="#936C3F"/>

<path d="M219 197 c-58 -49 -159 -157 -159 -171 0 -11 1118 -7 1125 4 6 10 -29 85 -44 95 -6 3 1 -14 14 -37 14 -24 25 -46 25 -50 0 -4 -247 -8 -550 -8 -302 0 -550 3 -550 7 0 12 118 133 170 175 25 21 43 37 39 38 -3 0 -34 -24 -70 -53z" transform="translate(0,41.0) scale(0.1,-0.1)" stroke="none" fill="#936C3F"/>

<path d="M533 360 c-63 -13 -180 -71 -253 -126 -64 -48 -200 -182 -200 -197 0 -4 248 -7 550 -7 303 0 550 4 550 8 0 16 -61 112 -80 125 -11 7 -17 17 -13 20 3 4 1 7 -5 7 -6 0 -25 15 -42 33 -36 40 -182 112 -267 132 -63 16 -174 18 -240 5z" transform="translate(0,41.0) scale(0.1,-0.1)" stroke="none" fill="#F3A181"/>

<path d="M550 370 c-14 -4 16 -5 65 -3 50 3 95 6 100 8 21 7 -141 3 -165 -5z" transform="translate(248.0,41.0) scale(-0.1,-0.1)" stroke="none" fill="#936C3F"/>

<path d="M871 326 c10 -9 129 -66 129 -61 0 5 -116 65 -126 65 -4 0 -5 -2 -3 -4z" transform="translate(248.0,41.0) scale(-0.1,-0.1)" stroke="none" fill="#936C3F"/>

<path d="M219 197 c-58 -49 -159 -157 -159 -171 0 -11 1118 -7 1125 4 6 10 -29 85 -44 95 -6 3 1 -14 14 -37 14 -24 25 -46 25 -50 0 -4 -247 -8 -550 -8 -302 0 -550 3 -550 7 0 12 118 133 170 175 25 21 43 37 39 38 -3 0 -34 -24 -70 -53z" transform="translate(248.0,41.0) scale(-0.1,-0.1)" stroke="none" fill="#936C3F"/>

<path d="M533 360 c-63 -13 -180 -71 -253 -126 -64 -48 -200 -182 -200 -197 0 -4 248 -7 550 -7 303 0 550 4 550 8 0 16 -61 112 -80 125 -11 7 -17 17 -13 20 3 4 1 7 -5 7 -6 0 -25 15 -42 33 -36 40 -182 112 -267 132 -63 16 -174 18 -240 5z" transform="translate(248.0,41.0) scale(-0.1,-0.1)" stroke="none" fill="#F3A181"/>

<path d="M550 370 c-14 -4 16 -5 65 -3 50 3 95 6 100 8 21 7 -141 3 -165 -5z" transform="translate(0,41.0) scale(0.1,0.1)" stroke="none" fill="#936C3F"/>

<path d="M871 326 c10 -9 129 -66 129 -61 0 5 -116 65 -126 65 -4 0 -5 -2 -3 -4z" transform="translate(0,41.0) scale(0.1,0.1)" stroke="none" fill="#936C3F"/>

<path d="M219 197 c-58 -49 -159 -157 -159 -171 0 -11 1118 -7 1125 4 6 10 -29 85 -44 95 -6 3 1 -14 14 -37 14 -24 25 -46 25 -50 0 -4 -247 -8 -550 -8 -302 0 -550 3 -550 7 0 12 118 133 170 175 25 21 43 37 39 38 -3 0 -34 -24 -70 -53z" transform="translate(0,41.0) scale(0.1,0.1)" stroke="none" fill="#936C3F"/>

<path d="M533 360 c-63 -13 -180 -71 -253 -126 -64 -48 -200 -182 -200 -197 0 -4 248 -7 550 -7 303 0 550 4 550 8 0 16 -61 112 -80 125 -11 7 -17 17 -13 20 3 4 1 7 -5 7 -6 0 -25 15 -42 33 -36 40 -182 112 -267 132 -63 16 -174 18 -240 5z" transform="translate(0,41.0) scale(0.1,0.1)" stroke="none" fill="#F3A181"/>

<path d="M550 370 c-14 -4 16 -5 65 -3 50 3 95 6 100 8 21 7 -141 3 -165 -5z" transform="translate(248.0,41.0) scale(-0.1,0.1)" stroke="none" fill="#936C3F"/>

<path d="M871 326 c10 -9 129 -66 129 -61 0 5 -116 65 -126 65 -4 0 -5 -2 -3 -4z" transform="translate(248.0,41.0) scale(-0.1,0.1)" stroke="none" fill="#936C3F"/>

<path d="M219 197 c-58 -49 -159 -157 -159 -171 0 -11 1118 -7 1125 4 6 10 -29 85 -44 95 -6 3 1 -14 14 -37 14 -24 25 -46 25 -50 0 -4 -247 -8 -550 -8 -302 0 -550 3 -550 7 0 12 118 133 170 175 25 21 43 37 39 38 -3 0 -34 -24 -70 -53z" transform="translate(248.0,41.0) scale(-0.1,0.1)" stroke="none" fill="#936C3F"/>

<path d="M533 360 c-63 -13 -180 -71 -253 -126 -64 -48 -200 -182 -200 -197 0 -4 248 -7 550 -7 303 0 550 4 550 8 0 16 -61 112 -80 125 -11 7 -17 17 -13 20 3 4 1 7 -5 7 -6 0 -25 15 -42 33 -36 40 -182 112 -267 132 -63 16 -174 18 -240 5z" transform="translate(248.0,41.0) scale(-0.1,0.1)" stroke="none" fill="#F3A181"/>

</g>

</g>

<g id="3" transform="translate(372.0,0)scale(1,1)">

<g transform="matrix(0.5,0,0,0.5,0,0)">

<path d="M550 370 c-14 -4 16 -5 65 -3 50 3 95 6 100 8 21 7 -141 3 -165 -5z" transform="translate(0,41.0) scale(0.1,-0.1)" stroke="none" fill="#936C3F"/>

<path d="M871 326 c10 -9 129 -66 129 -61 0 5 -116 65 -126 65 -4 0 -5 -2 -3 -4z" transform="translate(0,41.0) scale(0.1,-0.1)" stroke="none" fill="#936C3F"/>

<path d="M219 197 c-58 -49 -159 -157 -159 -171 0 -11 1118 -7 1125 4 6 10 -29 85 -44 95 -6 3 1 -14 14 -37 14 -24 25 -46 25 -50 0 -4 -247 -8 -550 -8 -302 0 -550 3 -550 7 0 12 118 133 170 175 25 21 43 37 39 38 -3 0 -34 -24 -70 -53z" transform="translate(0,41.0) scale(0.1,-0.1)" stroke="none" fill="#936C3F"/>

<path d="M533 360 c-63 -13 -180 -71 -253 -126 -64 -48 -200 -182 -200 -197 0 -4 248 -7 550 -7 303 0 550 4 550 8 0 16 -61 112 -80 125 -11 7 -17 17 -13 20 3 4 1 7 -5 7 -6 0 -25 15 -42 33 -36 40 -182 112 -267 132 -63 16 -174 18 -240 5z" transform="translate(0,41.0) scale(0.1,-0.1)" stroke="none" fill="#F3A181"/>

<path d="M550 370 c-14 -4 16 -5 65 -3 50 3 95 6 100 8 21 7 -141 3 -165 -5z" transform="translate(248.0,41.0) scale(-0.1,-0.1)" stroke="none" fill="#936C3F"/>

<path d="M871 326 c10 -9 129 -66 129 -61 0 5 -116 65 -126 65 -4 0 -5 -2 -3 -4z" transform="translate(248.0,41.0) scale(-0.1,-0.1)" stroke="none" fill="#936C3F"/>

<path d="M219 197 c-58 -49 -159 -157 -159 -171 0 -11 1118 -7 1125 4 6 10 -29 85 -44 95 -6 3 1 -14 14 -37 14 -24 25 -46 25 -50 0 -4 -247 -8 -550 -8 -302 0 -550 3 -550 7 0 12 118 133 170 175 25 21 43 37 39 38 -3 0 -34 -24 -70 -53z" transform="translate(248.0,41.0) scale(-0.1,-0.1)" stroke="none" fill="#936C3F"/>

<path d="M533 360 c-63 -13 -180 -71 -253 -126 -64 -48 -200 -182 -200 -197 0 -4 248 -7 550 -7 303 0 550 4 550 8 0 16 -61 112 -80 125 -11 7 -17 17 -13 20 3 4 1 7 -5 7 -6 0 -25 15 -42 33 -36 40 -182 112 -267 132 -63 16 -174 18 -240 5z" transform="translate(248.0,41.0) scale(-0.1,-0.1)" stroke="none" fill="#F3A181"/>

<path d="M550 370 c-14 -4 16 -5 65 -3 50 3 95 6 100 8 21 7 -141 3 -165 -5z" transform="translate(0,41.0) scale(0.1,0.1)" stroke="none" fill="#936C3F"/>

<path d="M871 326 c10 -9 129 -66 129 -61 0 5 -116 65 -126 65 -4 0 -5 -2 -3 -4z" transform="translate(0,41.0) scale(0.1,0.1)" stroke="none" fill="#936C3F"/>

<path d="M219 197 c-58 -49 -159 -157 -159 -171 0 -11 1118 -7 1125 4 6 10 -29 85 -44 95 -6 3 1 -14 14 -37 14 -24 25 -46 25 -50 0 -4 -247 -8 -550 -8 -302 0 -550 3 -550 7 0 12 118 133 170 175 25 21 43 37 39 38 -3 0 -34 -24 -70 -53z" transform="translate(0,41.0) scale(0.1,0.1)" stroke="none" fill="#936C3F"/>

<path d="M533 360 c-63 -13 -180 -71 -253 -126 -64 -48 -200 -182 -200 -197 0 -4 248 -7 550 -7 303 0 550 4 550 8 0 16 -61 112 -80 125 -11 7 -17 17 -13 20 3 4 1 7 -5 7 -6 0 -25 15 -42 33 -36 40 -182 112 -267 132 -63 16 -174 18 -240 5z" transform="translate(0,41.0) scale(0.1,0.1)" stroke="none" fill="#F3A181"/>

<path d="M550 370 c-14 -4 16 -5 65 -3 50 3 95 6 100 8 21 7 -141 3 -165 -5z" transform="translate(248.0,41.0) scale(-0.1,0.1)" stroke="none" fill="#936C3F"/>

<path d="M871 326 c10 -9 129 -66 129 -61 0 5 -116 65 -126 65 -4 0 -5 -2 -3 -4z" transform="translate(248.0,41.0) scale(-0.1,0.1)" stroke="none" fill="#936C3F"/>

<path d="M219 197 c-58 -49 -159 -157 -159 -171 0 -11 1118 -7 1125 4 6 10 -29 85 -44 95 -6 3 1 -14 14 -37 14 -24 25 -46 25 -50 0 -4 -247 -8 -550 -8 -302 0 -550 3 -550 7 0 12 118 133 170 175 25 21 43 37 39 38 -3 0 -34 -24 -70 -53z" transform="translate(248.0,41.0) scale(-0.1,0.1)" stroke="none" fill="#936C3F"/>

<path d="M533 360 c-63 -13 -180 -71 -253 -126 -64 -48 -200 -182 -200 -197 0 -4 248 -7 550 -7 303 0 550 4 550 8 0 16 -61 112 -80 125 -11 7 -17 17 -13 20 3 4 1 7 -5 7 -6 0 -25 15 -42 33 -36 40 -182 112 -267 132 -63 16 -174 18 -240 5z" transform="translate(248.0,41.0) scale(-0.1,0.1)" stroke="none" fill="#F3A181"/>

</g>

</g>

<g id="4" transform="translate(496.0,0)scale(1,1)">

<g transform="matrix(0.5,0,0,0.5,0,0)">

<path d="M550 370 c-14 -4 16 -5 65 -3 50 3 95 6 100 8 21 7 -141 3 -165 -5z" transform="translate(0,41.0) scale(0.1,-0.1)" stroke="none" fill="#936C3F"/>

<path d="M871 326 c10 -9 129 -66 129 -61 0 5 -116 65 -126 65 -4 0 -5 -2 -3 -4z" transform="translate(0,41.0) scale(0.1,-0.1)" stroke="none" fill="#936C3F"/>

<path d="M219 197 c-58 -49 -159 -157 -159 -171 0 -11 1118 -7 1125 4 6 10 -29 85 -44 95 -6 3 1 -14 14 -37 14 -24 25 -46 25 -50 0 -4 -247 -8 -550 -8 -302 0 -550 3 -550 7 0 12 118 133 170 175 25 21 43 37 39 38 -3 0 -34 -24 -70 -53z" transform="translate(0,41.0) scale(0.1,-0.1)" stroke="none" fill="#936C3F"/>

<path d="M533 360 c-63 -13 -180 -71 -253 -126 -64 -48 -200 -182 -200 -197 0 -4 248 -7 550 -7 303 0 550 4 550 8 0 16 -61 112 -80 125 -11 7 -17 17 -13 20 3 4 1 7 -5 7 -6 0 -25 15 -42 33 -36 40 -182 112 -267 132 -63 16 -174 18 -240 5z" transform="translate(0,41.0) scale(0.1,-0.1)" stroke="none" fill="#F3A181"/>

<path d="M550 370 c-14 -4 16 -5 65 -3 50 3 95 6 100 8 21 7 -141 3 -165 -5z" transform="translate(248.0,41.0) scale(-0.1,-0.1)" stroke="none" fill="#936C3F"/>

<path d="M871 326 c10 -9 129 -66 129 -61 0 5 -116 65 -126 65 -4 0 -5 -2 -3 -4z" transform="translate(248.0,41.0) scale(-0.1,-0.1)" stroke="none" fill="#936C3F"/>

<path d="M219 197 c-58 -49 -159 -157 -159 -171 0 -11 1118 -7 1125 4 6 10 -29 85 -44 95 -6 3 1 -14 14 -37 14 -24 25 -46 25 -50 0 -4 -247 -8 -550 -8 -302 0 -550 3 -550 7 0 12 118 133 170 175 25 21 43 37 39 38 -3 0 -34 -24 -70 -53z" transform="translate(248.0,41.0) scale(-0.1,-0.1)" stroke="none" fill="#936C3F"/>

<path d="M533 360 c-63 -13 -180 -71 -253 -126 -64 -48 -200 -182 -200 -197 0 -4 248 -7 550 -7 303 0 550 4 550 8 0 16 -61 112 -80 125 -11 7 -17 17 -13 20 3 4 1 7 -5 7 -6 0 -25 15 -42 33 -36 40 -182 112 -267 132 -63 16 -174 18 -240 5z" transform="translate(248.0,41.0) scale(-0.1,-0.1)" stroke="none" fill="#F3A181"/>

<path d="M550 370 c-14 -4 16 -5 65 -3 50 3 95 6 100 8 21 7 -141 3 -165 -5z" transform="translate(0,41.0) scale(0.1,0.1)" stroke="none" fill="#936C3F"/>

<path d="M871 326 c10 -9 129 -66 129 -61 0 5 -116 65 -126 65 -4 0 -5 -2 -3 -4z" transform="translate(0,41.0) scale(0.1,0.1)" stroke="none" fill="#936C3F"/>

<path d="M219 197 c-58 -49 -159 -157 -159 -171 0 -11 1118 -7 1125 4 6 10 -29 85 -44 95 -6 3 1 -14 14 -37 14 -24 25 -46 25 -50 0 -4 -247 -8 -550 -8 -302 0 -550 3 -550 7 0 12 118 133 170 175 25 21 43 37 39 38 -3 0 -34 -24 -70 -53z" transform="translate(0,41.0) scale(0.1,0.1)" stroke="none" fill="#936C3F"/>

<path d="M533 360 c-63 -13 -180 -71 -253 -126 -64 -48 -200 -182 -200 -197 0 -4 248 -7 550 -7 303 0 550 4 550 8 0 16 -61 112 -80 125 -11 7 -17 17 -13 20 3 4 1 7 -5 7 -6 0 -25 15 -42 33 -36 40 -182 112 -267 132 -63 16 -174 18 -240 5z" transform="translate(0,41.0) scale(0.1,0.1)" stroke="none" fill="#F3A181"/>

<path d="M550 370 c-14 -4 16 -5 65 -3 50 3 95 6 100 8 21 7 -141 3 -165 -5z" transform="translate(248.0,41.0) scale(-0.1,0.1)" stroke="none" fill="#936C3F"/>

<path d="M871 326 c10 -9 129 -66 129 -61 0 5 -116 65 -126 65 -4 0 -5 -2 -3 -4z" transform="translate(248.0,41.0) scale(-0.1,0.1)" stroke="none" fill="#936C3F"/>

<path d="M219 197 c-58 -49 -159 -157 -159 -171 0 -11 1118 -7 1125 4 6 10 -29 85 -44 95 -6 3 1 -14 14 -37 14 -24 25 -46 25 -50 0 -4 -247 -8 -550 -8 -302 0 -550 3 -550 7 0 12 118 133 170 175 25 21 43 37 39 38 -3 0 -34 -24 -70 -53z" transform="translate(248.0,41.0) scale(-0.1,0.1)" stroke="none" fill="#936C3F"/>

<path d="M533 360 c-63 -13 -180 -71 -253 -126 -64 -48 -200 -182 -200 -197 0 -4 248 -7 550 -7 303 0 550 4 550 8 0 16 -61 112 -80 125 -11 7 -17 17 -13 20 3 4 1 7 -5 7 -6 0 -25 15 -42 33 -36 40 -182 112 -267 132 -63 16 -174 18 -240 5z" transform="translate(248.0,41.0) scale(-0.1,0.1)" stroke="none" fill="#F3A181"/>

</g>

</g>

</g>
<g id="row3" transform="translate(16,123.0)">
<g id="0" transform="translate(0.0,0)scale(1,1)">

<g transform="matrix(0.5,0,0,0.5,0,0)">

<path d="M550 370 c-14 -4 16 -5 65 -3 50 3 95 6 100 8 21 7 -141 3 -165 -5z" transform="translate(0,41.0) scale(0.1,-0.1)" stroke="none" fill="#936C3F"/>

<path d="M871 326 c10 -9 129 -66 129 -61 0 5 -116 65 -126 65 -4 0 -5 -2 -3 -4z" transform="translate(0,41.0) scale(0.1,-0.1)" stroke="none" fill="#936C3F"/>

<path d="M219 197 c-58 -49 -159 -157 -159 -171 0 -11 1118 -7 1125 4 6 10 -29 85 -44 95 -6 3 1 -14 14 -37 14 -24 25 -46 25 -50 0 -4 -247 -8 -550 -8 -302 0 -550 3 -550 7 0 12 118 133 170 175 25 21 43 37 39 38 -3 0 -34 -24 -70 -53z" transform="translate(0,41.0) scale(0.1,-0.1)" stroke="none" fill="#936C3F"/>

<path d="M533 360 c-63 -13 -180 -71 -253 -126 -64 -48 -200 -182 -200 -197 0 -4 248 -7 550 -7 303 0 550 4 550 8 0 16 -61 112 -80 125 -11 7 -17 17 -13 20 3 4 1 7 -5 7 -6 0 -25 15 -42 33 -36 40 -182 112 -267 132 -63 16 -174 18 -240 5z" transform="translate(0,41.0) scale(0.1,-0.1)" stroke="none" fill="#F3A181"/>

<path d="M550 370 c-14 -4 16 -5 65 -3 50 3 95 6 100 8 21 7 -141 3 -165 -5z" transform="translate(248.0,41.0) scale(-0.1,-0.1)" stroke="none" fill="#936C3F"/>

<path d="M871 326 c10 -9 129 -66 129 -61 0 5 -116 65 -126 65 -4 0 -5 -2 -3 -4z" transform="translate(248.0,41.0) scale(-0.1,-0.1)" stroke="none" fill="#936C3F"/>

<path d="M219 197 c-58 -49 -159 -157 -159 -171 0 -11 1118 -7 1125 4 6 10 -29 85 -44 95 -6 3 1 -14 14 -37 14 -24 25 -46 25 -50 0 -4 -247 -8 -550 -8 -302 0 -550 3 -550 7 0 12 118 133 170 175 25 21 43 37 39 38 -3 0 -34 -24 -70 -53z" transform="translate(248.0,41.0) scale(-0.1,-0.1)" stroke="none" fill="#936C3F"/>

<path d="M533 360 c-63 -13 -180 -71 -253 -126 -64 -48 -200 -182 -200 -197 0 -4 248 -7 550 -7 303 0 550 4 550 8 0 16 -61 112 -80 125 -11 7 -17 17 -13 20 3 4 1 7 -5 7 -6 0 -25 15 -42 33 -36 40 -182 112 -267 132 -63 16 -174 18 -240 5z" transform="translate(248.0,41.0) scale(-0.1,-0.1)" stroke="none" fill="#F3A181"/>

<path d="M550 370 c-14 -4 16 -5 65 -3 50 3 95 6 100 8 21 7 -141 3 -165 -5z" transform="translate(0,41.0) scale(0.1,0.1)" stroke="none" fill="#936C3F"/>

<path d="M871 326 c10 -9 129 -66 129 -61 0 5 -116 65 -126 65 -4 0 -5 -2 -3 -4z" transform="translate(0,41.0) scale(0.1,0.1)" stroke="none" fill="#936C3F"/>

<path d="M219 197 c-58 -49 -159 -157 -159 -171 0 -11 1118 -7 1125 4 6 10 -29 85 -44 95 -6 3 1 -14 14 -37 14 -24 25 -46 25 -50 0 -4 -247 -8 -550 -8 -302 0 -550 3 -550 7 0 12 118 133 170 175 25 21 43 37 39 38 -3 0 -34 -24 -70 -53z" transform="translate(0,41.0) scale(0.1,0.1)" stroke="none" fill="#936C3F"/>

<path d="M533 360 c-63 -13 -180 -71 -253 -126 -64 -48 -200 -182 -200 -197 0 -4 248 -7 550 -7 303 0 550 4 550 8 0 16 -61 112 -80 125 -11 7 -17 17 -13 20 3 4 1 7 -5 7 -6 0 -25 15 -42 33 -36 40 -182 112 -267 132 -63 16 -174 18 -240 5z" transform="translate(0,41.0) scale(0.1,0.1)" stroke="none" fill="#F3A181"/>

<path d="M550 370 c-14 -4 16 -5 65 -3 50 3 95 6 100 8 21 7 -141 3 -165 -5z" transform="translate(248.0,41.0) scale(-0.1,0.1)" stroke="none" fill="#936C3F"/>

<path d="M871 326 c10 -9 129 -66 129 -61 0 5 -116 65 -126 65 -4 0 -5 -2 -3 -4z" transform="translate(248.0,41.0) scale(-0.1,0.1)" stroke="none" fill="#936C3F"/>

<path d="M219 197 c-58 -49 -159 -157 -159 -171 0 -11 1118 -7 1125 4 6 10 -29 85 -44 95 -6 3 1 -14 14 -37 14 -24 25 -46 25 -50 0 -4 -247 -8 -550 -8 -302 0 -550 3 -550 7 0 12 118 133 170 175 25 21 43 37 39 38 -3 0 -34 -24 -70 -53z" transform="translate(248.0,41.0) scale(-0.1,0.1)" stroke="none" fill="#936C3F"/>

<path d="M533 360 c-63 -13 -180 -71 -253 -126 -64 -48 -200 -182 -200 -197 0 -4 248 -7 550 -7 303 0 550 4 550 8 0 16 -61 112 -80 125 -11 7 -17 17 -13 20 3 4 1 7 -5 7 -6 0 -25 15 -42 33 -36 40 -182 112 -267 132 -63 16 -174 18 -240 5z" transform="translate(248.0,41.0) scale(-0.1,0.1)" stroke="none" fill="#F3A181"/>

</g>

</g>

<g id="1" transform="translate(124.0,0)scale(1,1)">

<g transform="matrix(0.5,0,0,0.5,0,0)">

<path d="M550 370 c-14 -4 16 -5 65 -3 50 3 95 6 100 8 21 7 -141 3 -165 -5z" transform="translate(0,41.0) scale(0.1,-0.1)" stroke="none" fill="#936C3F"/>

<path d="M871 326 c10 -9 129 -66 129 -61 0 5 -116 65 -126 65 -4 0 -5 -2 -3 -4z" transform="translate(0,41.0) scale(0.1,-0.1)" stroke="none" fill="#936C3F"/>

<path d="M219 197 c-58 -49 -159 -157 -159 -171 0 -11 1118 -7 1125 4 6 10 -29 85 -44 95 -6 3 1 -14 14 -37 14 -24 25 -46 25 -50 0 -4 -247 -8 -550 -8 -302 0 -550 3 -550 7 0 12 118 133 170 175 25 21 43 37 39 38 -3 0 -34 -24 -70 -53z" transform="translate(0,41.0) scale(0.1,-0.1)" stroke="none" fill="#936C3F"/>

<path d="M533 360 c-63 -13 -180 -71 -253 -126 -64 -48 -200 -182 -200 -197 0 -4 248 -7 550 -7 303 0 550 4 550 8 0 16 -61 112 -80 125 -11 7 -17 17 -13 20 3 4 1 7 -5 7 -6 0 -25 15 -42 33 -36 40 -182 112 -267 132 -63 16 -174 18 -240 5z" transform="translate(0,41.0) scale(0.1,-0.1)" stroke="none" fill="#F3A181"/>

<path d="M550 370 c-14 -4 16 -5 65 -3 50 3 95 6 100 8 21 7 -141 3 -165 -5z" transform="translate(248.0,41.0) scale(-0.1,-0.1)" stroke="none" fill="#936C3F"/>

<path d="M871 326 c10 -9 129 -66 129 -61 0 5 -116 65 -126 65 -4 0 -5 -2 -3 -4z" transform="translate(248.0,41.0) scale(-0.1,-0.1)" stroke="none" fill="#936C3F"/>

<path d="M219 197 c-58 -49 -159 -157 -159 -171 0 -11 1118 -7 1125 4 6 10 -29 85 -44 95 -6 3 1 -14 14 -37 14 -24 25 -46 25 -50 0 -4 -247 -8 -550 -8 -302 0 -550 3 -550 7 0 12 118 133 170 175 25 21 43 37 39 38 -3 0 -34 -24 -70 -53z" transform="translate(248.0,41.0) scale(-0.1,-0.1)" stroke="none" fill="#936C3F"/>

<path d="M533 360 c-63 -13 -180 -71 -253 -126 -64 -48 -200 -182 -200 -197 0 -4 248 -7 550 -7 303 0 550 4 550 8 0 16 -61 112 -80 125 -11 7 -17 17 -13 20 3 4 1 7 -5 7 -6 0 -25 15 -42 33 -36 40 -182 112 -267 132 -63 16 -174 18 -240 5z" transform="translate(248.0,41.0) scale(-0.1,-0.1)" stroke="none" fill="#F3A181"/>

<path d="M550 370 c-14 -4 16 -5 65 -3 50 3 95 6 100 8 21 7 -141 3 -165 -5z" transform="translate(0,41.0) scale(0.1,0.1)" stroke="none" fill="#936C3F"/>

<path d="M871 326 c10 -9 129 -66 129 -61 0 5 -116 65 -126 65 -4 0 -5 -2 -3 -4z" transform="translate(0,41.0) scale(0.1,0.1)" stroke="none" fill="#936C3F"/>

<path d="M219 197 c-58 -49 -159 -157 -159 -171 0 -11 1118 -7 1125 4 6 10 -29 85 -44 95 -6 3 1 -14 14 -37 14 -24 25 -46 25 -50 0 -4 -247 -8 -550 -8 -302 0 -550 3 -550 7 0 12 118 133 170 175 25 21 43 37 39 38 -3 0 -34 -24 -70 -53z" transform="translate(0,41.0) scale(0.1,0.1)" stroke="none" fill="#936C3F"/>

<path d="M533 360 c-63 -13 -180 -71 -253 -126 -64 -48 -200 -182 -200 -197 0 -4 248 -7 550 -7 303 0 550 4 550 8 0 16 -61 112 -80 125 -11 7 -17 17 -13 20 3 4 1 7 -5 7 -6 0 -25 15 -42 33 -36 40 -182 112 -267 132 -63 16 -174 18 -240 5z" transform="translate(0,41.0) scale(0.1,0.1)" stroke="none" fill="#F3A181"/>

<path d="M550 370 c-14 -4 16 -5 65 -3 50 3 95 6 100 8 21 7 -141 3 -165 -5z" transform="translate(248.0,41.0) scale(-0.1,0.1)" stroke="none" fill="#936C3F"/>

<path d="M871 326 c10 -9 129 -66 129 -61 0 5 -116 65 -126 65 -4 0 -5 -2 -3 -4z" transform="translate(248.0,41.0) scale(-0.1,0.1)" stroke="none" fill="#936C3F"/>

<path d="M219 197 c-58 -49 -159 -157 -159 -171 0 -11 1118 -7 1125 4 6 10 -29 85 -44 95 -6 3 1 -14 14 -37 14 -24 25 -46 25 -50 0 -4 -247 -8 -550 -8 -302 0 -550 3 -550 7 0 12 118 133 170 175 25 21 43 37 39 38 -3 0 -34 -24 -70 -53z" transform="translate(248.0,41.0) scale(-0.1,0.1)" stroke="none" fill="#936C3F"/>

<path d="M533 360 c-63 -13 -180 -71 -253 -126 -64 -48 -200 -182 -200 -197 0 -4 248 -7 550 -7 303 0 550 4 550 8 0 16 -61 112 -80 125 -11 7 -17 17 -13 20 3 4 1 7 -5 7 -6 0 -25 15 -42 33 -36 40 -182 112 -267 132 -63 16 -174 18 -240 5z" transform="translate(248.0,41.0) scale(-0.1,0.1)" stroke="none" fill="#F3A181"/>

</g>

</g>

<g id="2" transform="translate(248.0,0)scale(1,1)">

<g transform="matrix(0.5,0,0,0.5,0,0)">

<path d="M550 370 c-14 -4 16 -5 65 -3 50 3 95 6 100 8 21 7 -141 3 -165 -5z" transform="translate(0,41.0) scale(0.1,-0.1)" stroke="none" fill="#936C3F"/>

<path d="M871 326 c10 -9 129 -66 129 -61 0 5 -116 65 -126 65 -4 0 -5 -2 -3 -4z" transform="translate(0,41.0) scale(0.1,-0.1)" stroke="none" fill="#936C3F"/>

<path d="M219 197 c-58 -49 -159 -157 -159 -171 0 -11 1118 -7 1125 4 6 10 -29 85 -44 95 -6 3 1 -14 14 -37 14 -24 25 -46 25 -50 0 -4 -247 -8 -550 -8 -302 0 -550 3 -550 7 0 12 118 133 170 175 25 21 43 37 39 38 -3 0 -34 -24 -70 -53z" transform="translate(0,41.0) scale(0.1,-0.1)" stroke="none" fill="#936C3F"/>

<path d="M533 360 c-63 -13 -180 -71 -253 -126 -64 -48 -200 -182 -200 -197 0 -4 248 -7 550 -7 303 0 550 4 550 8 0 16 -61 112 -80 125 -11 7 -17 17 -13 20 3 4 1 7 -5 7 -6 0 -25 15 -42 33 -36 40 -182 112 -267 132 -63 16 -174 18 -240 5z" transform="translate(0,41.0) scale(0.1,-0.1)" stroke="none" fill="#F3A181"/>

<path d="M550 370 c-14 -4 16 -5 65 -3 50 3 95 6 100 8 21 7 -141 3 -165 -5z" transform="translate(248.0,41.0) scale(-0.1,-0.1)" stroke="none" fill="#936C3F"/>

<path d="M871 326 c10 -9 129 -66 129 -61 0 5 -116 65 -126 65 -4 0 -5 -2 -3 -4z" transform="translate(248.0,41.0) scale(-0.1,-0.1)" stroke="none" fill="#936C3F"/>

<path d="M219 197 c-58 -49 -159 -157 -159 -171 0 -11 1118 -7 1125 4 6 10 -29 85 -44 95 -6 3 1 -14 14 -37 14 -24 25 -46 25 -50 0 -4 -247 -8 -550 -8 -302 0 -550 3 -550 7 0 12 118 133 170 175 25 21 43 37 39 38 -3 0 -34 -24 -70 -53z" transform="translate(248.0,41.0) scale(-0.1,-0.1)" stroke="none" fill="#936C3F"/>

<path d="M533 360 c-63 -13 -180 -71 -253 -126 -64 -48 -200 -182 -200 -197 0 -4 248 -7 550 -7 303 0 550 4 550 8 0 16 -61 112 -80 125 -11 7 -17 17 -13 20 3 4 1 7 -5 7 -6 0 -25 15 -42 33 -36 40 -182 112 -267 132 -63 16 -174 18 -240 5z" transform="translate(248.0,41.0) scale(-0.1,-0.1)" stroke="none" fill="#F3A181"/>

<path d="M550 370 c-14 -4 16 -5 65 -3 50 3 95 6 100 8 21 7 -141 3 -165 -5z" transform="translate(0,41.0) scale(0.1,0.1)" stroke="none" fill="#936C3F"/>

<path d="M871 326 c10 -9 129 -66 129 -61 0 5 -116 65 -126 65 -4 0 -5 -2 -3 -4z" transform="translate(0,41.0) scale(0.1,0.1)" stroke="none" fill="#936C3F"/>

<path d="M219 197 c-58 -49 -159 -157 -159 -171 0 -11 1118 -7 1125 4 6 10 -29 85 -44 95 -6 3 1 -14 14 -37 14 -24 25 -46 25 -50 0 -4 -247 -8 -550 -8 -302 0 -550 3 -550 7 0 12 118 133 170 175 25 21 43 37 39 38 -3 0 -34 -24 -70 -53z" transform="translate(0,41.0) scale(0.1,0.1)" stroke="none" fill="#936C3F"/>

<path d="M533 360 c-63 -13 -180 -71 -253 -126 -64 -48 -200 -182 -200 -197 0 -4 248 -7 550 -7 303 0 550 4 550 8 0 16 -61 112 -80 125 -11 7 -17 17 -13 20 3 4 1 7 -5 7 -6 0 -25 15 -42 33 -36 40 -182 112 -267 132 -63 16 -174 18 -240 5z" transform="translate(0,41.0) scale(0.1,0.1)" stroke="none" fill="#F3A181"/>

<path d="M550 370 c-14 -4 16 -5 65 -3 50 3 95 6 100 8 21 7 -141 3 -165 -5z" transform="translate(248.0,41.0) scale(-0.1,0.1)" stroke="none" fill="#936C3F"/>

<path d="M871 326 c10 -9 129 -66 129 -61 0 5 -116 65 -126 65 -4 0 -5 -2 -3 -4z" transform="translate(248.0,41.0) scale(-0.1,0.1)" stroke="none" fill="#936C3F"/>

<path d="M219 197 c-58 -49 -159 -157 -159 -171 0 -11 1118 -7 1125 4 6 10 -29 85 -44 95 -6 3 1 -14 14 -37 14 -24 25 -46 25 -50 0 -4 -247 -8 -550 -8 -302 0 -550 3 -550 7 0 12 118 133 170 175 25 21 43 37 39 38 -3 0 -34 -24 -70 -53z" transform="translate(248.0,41.0) scale(-0.1,0.1)" stroke="none" fill="#936C3F"/>

<path d="M533 360 c-63 -13 -180 -71 -253 -126 -64 -48 -200 -182 -200 -197 0 -4 248 -7 550 -7 303 0 550 4 550 8 0 16 -61 112 -80 125 -11 7 -17 17 -13 20 3 4 1 7 -5 7 -6 0 -25 15 -42 33 -36 40 -182 112 -267 132 -63 16 -174 18 -240 5z" transform="translate(248.0,41.0) scale(-0.1,0.1)" stroke="none" fill="#F3A181"/>

</g>

</g>

<g id="3" transform="translate(372.0,0)scale(1,1)">

<g transform="matrix(0.5,0,0,0.5,0,0)">

<path d="M550 370 c-14 -4 16 -5 65 -3 50 3 95 6 100 8 21 7 -141 3 -165 -5z" transform="translate(0,41.0) scale(0.1,-0.1)" stroke="none" fill="#936C3F"/>

<path d="M871 326 c10 -9 129 -66 129 -61 0 5 -116 65 -126 65 -4 0 -5 -2 -3 -4z" transform="translate(0,41.0) scale(0.1,-0.1)" stroke="none" fill="#936C3F"/>

<path d="M219 197 c-58 -49 -159 -157 -159 -171 0 -11 1118 -7 1125 4 6 10 -29 85 -44 95 -6 3 1 -14 14 -37 14 -24 25 -46 25 -50 0 -4 -247 -8 -550 -8 -302 0 -550 3 -550 7 0 12 118 133 170 175 25 21 43 37 39 38 -3 0 -34 -24 -70 -53z" transform="translate(0,41.0) scale(0.1,-0.1)" stroke="none" fill="#936C3F"/>

<path d="M533 360 c-63 -13 -180 -71 -253 -126 -64 -48 -200 -182 -200 -197 0 -4 248 -7 550 -7 303 0 550 4 550 8 0 16 -61 112 -80 125 -11 7 -17 17 -13 20 3 4 1 7 -5 7 -6 0 -25 15 -42 33 -36 40 -182 112 -267 132 -63 16 -174 18 -240 5z" transform="translate(0,41.0) scale(0.1,-0.1)" stroke="none" fill="#F3A181"/>

<path d="M550 370 c-14 -4 16 -5 65 -3 50 3 95 6 100 8 21 7 -141 3 -165 -5z" transform="translate(248.0,41.0) scale(-0.1,-0.1)" stroke="none" fill="#936C3F"/>

<path d="M871 326 c10 -9 129 -66 129 -61 0 5 -116 65 -126 65 -4 0 -5 -2 -3 -4z" transform="translate(248.0,41.0) scale(-0.1,-0.1)" stroke="none" fill="#936C3F"/>

<path d="M219 197 c-58 -49 -159 -157 -159 -171 0 -11 1118 -7 1125 4 6 10 -29 85 -44 95 -6 3 1 -14 14 -37 14 -24 25 -46 25 -50 0 -4 -247 -8 -550 -8 -302 0 -550 3 -550 7 0 12 118 133 170 175 25 21 43 37 39 38 -3 0 -34 -24 -70 -53z" transform="translate(248.0,41.0) scale(-0.1,-0.1)" stroke="none" fill="#936C3F"/>

<path d="M533 360 c-63 -13 -180 -71 -253 -126 -64 -48 -200 -182 -200 -197 0 -4 248 -7 550 -7 303 0 550 4 550 8 0 16 -61 112 -80 125 -11 7 -17 17 -13 20 3 4 1 7 -5 7 -6 0 -25 15 -42 33 -36 40 -182 112 -267 132 -63 16 -174 18 -240 5z" transform="translate(248.0,41.0) scale(-0.1,-0.1)" stroke="none" fill="#F3A181"/>

<path d="M550 370 c-14 -4 16 -5 65 -3 50 3 95 6 100 8 21 7 -141 3 -165 -5z" transform="translate(0,41.0) scale(0.1,0.1)" stroke="none" fill="#936C3F"/>

<path d="M871 326 c10 -9 129 -66 129 -61 0 5 -116 65 -126 65 -4 0 -5 -2 -3 -4z" transform="translate(0,41.0) scale(0.1,0.1)" stroke="none" fill="#936C3F"/>

<path d="M219 197 c-58 -49 -159 -157 -159 -171 0 -11 1118 -7 1125 4 6 10 -29 85 -44 95 -6 3 1 -14 14 -37 14 -24 25 -46 25 -50 0 -4 -247 -8 -550 -8 -302 0 -550 3 -550 7 0 12 118 133 170 175 25 21 43 37 39 38 -3 0 -34 -24 -70 -53z" transform="translate(0,41.0) scale(0.1,0.1)" stroke="none" fill="#936C3F"/>

<path d="M533 360 c-63 -13 -180 -71 -253 -126 -64 -48 -200 -182 -200 -197 0 -4 248 -7 550 -7 303 0 550 4 550 8 0 16 -61 112 -80 125 -11 7 -17 17 -13 20 3 4 1 7 -5 7 -6 0 -25 15 -42 33 -36 40 -182 112 -267 132 -63 16 -174 18 -240 5z" transform="translate(0,41.0) scale(0.1,0.1)" stroke="none" fill="#F3A181"/>

<path d="M550 370 c-14 -4 16 -5 65 -3 50 3 95 6 100 8 21 7 -141 3 -165 -5z" transform="translate(248.0,41.0) scale(-0.1,0.1)" stroke="none" fill="#936C3F"/>

<path d="M871 326 c10 -9 129 -66 129 -61 0 5 -116 65 -126 65 -4 0 -5 -2 -3 -4z" transform="translate(248.0,41.0) scale(-0.1,0.1)" stroke="none" fill="#936C3F"/>

<path d="M219 197 c-58 -49 -159 -157 -159 -171 0 -11 1118 -7 1125 4 6 10 -29 85 -44 95 -6 3 1 -14 14 -37 14 -24 25 -46 25 -50 0 -4 -247 -8 -550 -8 -302 0 -550 3 -550 7 0 12 118 133 170 175 25 21 43 37 39 38 -3 0 -34 -24 -70 -53z" transform="translate(248.0,41.0) scale(-0.1,0.1)" stroke="none" fill="#936C3F"/>

<path d="M533 360 c-63 -13 -180 -71 -253 -126 -64 -48 -200 -182 -200 -197 0 -4 248 -7 550 -7 303 0 550 4 550 8 0 16 -61 112 -80 125 -11 7 -17 17 -13 20 3 4 1 7 -5 7 -6 0 -25 15 -42 33 -36 40 -182 112 -267 132 -63 16 -174 18 -240 5z" transform="translate(248.0,41.0) scale(-0.1,0.1)" stroke="none" fill="#F3A181"/>

</g>

</g>

<g id="4" transform="translate(496.0,0)scale(1,1)">

<g transform="matrix(0.5,0,0,0.5,0,0)">

<path d="M550 370 c-14 -4 16 -5 65 -3 50 3 95 6 100 8 21 7 -141 3 -165 -5z" transform="translate(0,41.0) scale(0.1,-0.1)" stroke="none" fill="#936C3F"/>

<path d="M871 326 c10 -9 129 -66 129 -61 0 5 -116 65 -126 65 -4 0 -5 -2 -3 -4z" transform="translate(0,41.0) scale(0.1,-0.1)" stroke="none" fill="#936C3F"/>

<path d="M219 197 c-58 -49 -159 -157 -159 -171 0 -11 1118 -7 1125 4 6 10 -29 85 -44 95 -6 3 1 -14 14 -37 14 -24 25 -46 25 -50 0 -4 -247 -8 -550 -8 -302 0 -550 3 -550 7 0 12 118 133 170 175 25 21 43 37 39 38 -3 0 -34 -24 -70 -53z" transform="translate(0,41.0) scale(0.1,-0.1)" stroke="none" fill="#936C3F"/>

<path d="M533 360 c-63 -13 -180 -71 -253 -126 -64 -48 -200 -182 -200 -197 0 -4 248 -7 550 -7 303 0 550 4 550 8 0 16 -61 112 -80 125 -11 7 -17 17 -13 20 3 4 1 7 -5 7 -6 0 -25 15 -42 33 -36 40 -182 112 -267 132 -63 16 -174 18 -240 5z" transform="translate(0,41.0) scale(0.1,-0.1)" stroke="none" fill="#F3A181"/>

<path d="M550 370 c-14 -4 16 -5 65 -3 50 3 95 6 100 8 21 7 -141 3 -165 -5z" transform="translate(248.0,41.0) scale(-0.1,-0.1)" stroke="none" fill="#936C3F"/>

<path d="M871 326 c10 -9 129 -66 129 -61 0 5 -116 65 -126 65 -4 0 -5 -2 -3 -4z" transform="translate(248.0,41.0) scale(-0.1,-0.1)" stroke="none" fill="#936C3F"/>

<path d="M219 197 c-58 -49 -159 -157 -159 -171 0 -11 1118 -7 1125 4 6 10 -29 85 -44 95 -6 3 1 -14 14 -37 14 -24 25 -46 25 -50 0 -4 -247 -8 -550 -8 -302 0 -550 3 -550 7 0 12 118 133 170 175 25 21 43 37 39 38 -3 0 -34 -24 -70 -53z" transform="translate(248.0,41.0) scale(-0.1,-0.1)" stroke="none" fill="#936C3F"/>

<path d="M533 360 c-63 -13 -180 -71 -253 -126 -64 -48 -200 -182 -200 -197 0 -4 248 -7 550 -7 303 0 550 4 550 8 0 16 -61 112 -80 125 -11 7 -17 17 -13 20 3 4 1 7 -5 7 -6 0 -25 15 -42 33 -36 40 -182 112 -267 132 -63 16 -174 18 -240 5z" transform="translate(248.0,41.0) scale(-0.1,-0.1)" stroke="none" fill="#F3A181"/>

<path d="M550 370 c-14 -4 16 -5 65 -3 50 3 95 6 100 8 21 7 -141 3 -165 -5z" transform="translate(0,41.0) scale(0.1,0.1)" stroke="none" fill="#936C3F"/>

<path d="M871 326 c10 -9 129 -66 129 -61 0 5 -116 65 -126 65 -4 0 -5 -2 -3 -4z" transform="translate(0,41.0) scale(0.1,0.1)" stroke="none" fill="#936C3F"/>

<path d="M219 197 c-58 -49 -159 -157 -159 -171 0 -11 1118 -7 1125 4 6 10 -29 85 -44 95 -6 3 1 -14 14 -37 14 -24 25 -46 25 -50 0 -4 -247 -8 -550 -8 -302 0 -550 3 -550 7 0 12 118 133 170 175 25 21 43 37 39 38 -3 0 -34 -24 -70 -53z" transform="translate(0,41.0) scale(0.1,0.1)" stroke="none" fill="#936C3F"/>

<path d="M533 360 c-63 -13 -180 -71 -253 -126 -64 -48 -200 -182 -200 -197 0 -4 248 -7 550 -7 303 0 550 4 550 8 0 16 -61 112 -80 125 -11 7 -17 17 -13 20 3 4 1 7 -5 7 -6 0 -25 15 -42 33 -36 40 -182 112 -267 132 -63 16 -174 18 -240 5z" transform="translate(0,41.0) scale(0.1,0.1)" stroke="none" fill="#F3A181"/>

<path d="M550 370 c-14 -4 16 -5 65 -3 50 3 95 6 100 8 21 7 -141 3 -165 -5z" transform="translate(248.0,41.0) scale(-0.1,0.1)" stroke="none" fill="#936C3F"/>

<path d="M871 326 c10 -9 129 -66 129 -61 0 5 -116 65 -126 65 -4 0 -5 -2 -3 -4z" transform="translate(248.0,41.0) scale(-0.1,0.1)" stroke="none" fill="#936C3F"/>

<path d="M219 197 c-58 -49 -159 -157 -159 -171 0 -11 1118 -7 1125 4 6 10 -29 85 -44 95 -6 3 1 -14 14 -37 14 -24 25 -46 25 -50 0 -4 -247 -8 -550 -8 -302 0 -550 3 -550 7 0 12 118 133 170 175 25 21 43 37 39 38 -3 0 -34 -24 -70 -53z" transform="translate(248.0,41.0) scale(-0.1,0.1)" stroke="none" fill="#936C3F"/>

<path d="M533 360 c-63 -13 -180 -71 -253 -126 -64 -48 -200 -182 -200 -197 0 -4 248 -7 550 -7 303 0 550 4 550 8 0 16 -61 112 -80 125 -11 7 -17 17 -13 20 3 4 1 7 -5 7 -6 0 -25 15 -42 33 -36 40 -182 112 -267 132 -63 16 -174 18 -240 5z" transform="translate(248.0,41.0) scale(-0.1,0.1)" stroke="none" fill="#F3A181"/>

</g>

</g>

</g>
</svg>