<?xml version="1.0" standalone="no"?>
<!DOCTYPE svg PUBLIC "-//W3C//DTD SVG 20010904//EN"
 "http://www.w3.org/TR/2001/REC-SVG-20010904/DTD/svg10.dtd">
<svg version="1.0" xmlns="http://www.w3.org/2000/svg" width="5676pt" height="5676pt" viewBox="0 0 5676 5676" preserveAspectRatio = "xMidYMid meet" >
<metadata>
Created by ZoeQu, written in 2022
</metadata>
<rect width="5676" height="5676" fill="#C0CCC8"/>
<g id="row0" transform="translate(0,0.0)">
<g id="0" transform="translate(0.0,0)scale(0.25,0.25)">

<g id="pattern">
<rect width="6149" height="6149" fill="#C0CCC8"/>
<g id="pattern1" transform="matrix(1,0,0,1,383,383)">
<path d="M550 370 c-14 -4 16 -5 65 -3 50 3 95 6 100 8 21 7 -141 3 -165 -5z" transform="translate(0.000000,0.000000) scale(1,1)" stroke="none" fill="#696959"/>
<path d="M871 326 c10 -9 129 -66 129 -61 0 5 -116 65 -126 65 -4 0 -5 -2 -3 -4z" transform="translate(0.000000,0.000000) scale(1,1)" stroke="none" fill="#696959"/>
<path d="M219 197 c-58 -49 -159 -157 -159 -171 0 -11 1118 -7 1125 4 6 10 -29 85 -44 95 -6 3 1 -14 14 -37 14 -24 25 -46 25 -50 0 -4 -247 -8 -550 -8 -302 0 -550 3 -550 7 0 12 118 133 170 175 25 21 43 37 39 38 -3 0 -34 -24 -70 -53z" transform="translate(0.000000,0.000000) scale(1,1)" stroke="none" fill="#696959"/>
<path d="M533 360 c-63 -13 -180 -71 -253 -126 -64 -48 -200 -182 -200 -197 0 -4 248 -7 550 -7 303 0 550 4 550 8 0 16 -61 112 -80 125 -11 7 -17 17 -13 20 3 4 1 7 -5 7 -6 0 -25 15 -42 33 -36 40 -182 112 -267 132 -63 16 -174 18 -240 5z" transform="translate(0.000000,0.000000) scale(1,1)" stroke="none" fill="#A49E98"/>
</g>
<g id="pattern2" transform="matrix(0.618,0,0,0.618,2913,856)">
<path d="M550 370 c-14 -4 16 -5 65 -3 50 3 95 6 100 8 21 7 -141 3 -165 -5z" transform="translate(3859,0.000000) scale(-1,1)" stroke="none" fill="#696959"/>
<path d="M871 326 c10 -9 129 -66 129 -61 0 5 -116 65 -126 65 -4 0 -5 -2 -3 -4z" transform="translate(3859,0.000000) scale(-1,1)" stroke="none" fill="#696959"/>
<path d="M219 197 c-58 -49 -159 -157 -159 -171 0 -11 1118 -7 1125 4 6 10 -29 85 -44 95 -6 3 1 -14 14 -37 14 -24 25 -46 25 -50 0 -4 -247 -8 -550 -8 -302 0 -550 3 -550 7 0 12 118 133 170 175 25 21 43 37 39 38 -3 0 -34 -24 -70 -53z" transform="translate(3859,0.000000) scale(-1,1)" stroke="none" fill="#696959"/>
<path d="M533 360 c-63 -13 -180 -71 -253 -126 -64 -48 -200 -182 -200 -197 0 -4 248 -7 550 -7 303 0 550 4 550 8 0 16 -61 112 -80 125 -11 7 -17 17 -13 20 3 4 1 7 -5 7 -6 0 -25 15 -42 33 -36 40 -182 112 -267 132 -63 16 -174 18 -240 5z" transform="translate(3859,0.000000) scale(-1,1)" stroke="none" fill="#A49E98"/>
</g>
<g id="pattern3" transform="matrix(0.618,0,0,0.618,1092,3859)matrix(0.71,0.71,-0.71,0.71,0,0)">
<path d="M550 370 c-14 -4 16 -5 65 -3 50 3 95 6 100 8 21 7 -141 3 -165 -5z" transform="translate(619,-619) scale(1,1)" stroke="none" fill="#696959"/>
<path d="M871 326 c10 -9 129 -66 129 -61 0 5 -116 65 -126 65 -4 0 -5 -2 -3 -4z" transform="translate(619,-619) scale(1,1)" stroke="none" fill="#696959"/>
<path d="M219 197 c-58 -49 -159 -157 -159 -171 0 -11 1118 -7 1125 4 6 10 -29 85 -44 95 -6 3 1 -14 14 -37 14 -24 25 -46 25 -50 0 -4 -247 -8 -550 -8 -302 0 -550 3 -550 7 0 12 118 133 170 175 25 21 43 37 39 38 -3 0 -34 -24 -70 -53z" transform="translate(619,-619) scale(1,1)" stroke="none" fill="#696959"/>
<path d="M533 360 c-63 -13 -180 -71 -253 -126 -64 -48 -200 -182 -200 -197 0 -4 248 -7 550 -7 303 0 550 4 550 8 0 16 -61 112 -80 125 -11 7 -17 17 -13 20 3 4 1 7 -5 7 -6 0 -25 15 -42 33 -36 40 -182 112 -267 132 -63 16 -174 18 -240 5z" transform="translate(619,-619) scale(1,1)" stroke="none" fill="#A49E98"/>
</g>
<g id="pattern4" transform="matrix(1.618,0,0,1.618,1619,1619)matrix(0.87,0.5,-0.5,0.87,0,0)">
<path d="M550 370 c-14 -4 16 -5 65 -3 50 3 95 6 100 8 21 7 -141 3 -165 -5z" transform="translate(619,-619) scale(1,1)" stroke="none" fill="#696959"/>
<path d="M871 326 c10 -9 129 -66 129 -61 0 5 -116 65 -126 65 -4 0 -5 -2 -3 -4z" transform="translate(619,-619) scale(1,1)" stroke="none" fill="#696959"/>
<path d="M219 197 c-58 -49 -159 -157 -159 -171 0 -11 1118 -7 1125 4 6 10 -29 85 -44 95 -6 3 1 -14 14 -37 14 -24 25 -46 25 -50 0 -4 -247 -8 -550 -8 -302 0 -550 3 -550 7 0 12 118 133 170 175 25 21 43 37 39 38 -3 0 -34 -24 -70 -53z" transform="translate(619,-619) scale(1,1)" stroke="none" fill="#696959"/>
<path d="M533 360 c-63 -13 -180 -71 -253 -126 -64 -48 -200 -182 -200 -197 0 -4 248 -7 550 -7 303 0 550 4 550 8 0 16 -61 112 -80 125 -11 7 -17 17 -13 20 3 4 1 7 -5 7 -6 0 -25 15 -42 33 -36 40 -182 112 -267 132 -63 16 -174 18 -240 5z" transform="translate(619,-619) scale(1,1)" stroke="none" fill="#A49E98"/>
</g>
</g>
</g>

<g id="1" transform="translate(1419.0,0)scale(0.25,0.25)">

<g id="pattern">
<rect width="6149" height="6149" fill="#C0CCC8"/>
<g id="pattern1" transform="matrix(1,0,0,1,383,383)">
<path d="M550 370 c-14 -4 16 -5 65 -3 50 3 95 6 100 8 21 7 -141 3 -165 -5z" transform="translate(0.000000,0.000000) scale(1,1)" stroke="none" fill="#696959"/>
<path d="M871 326 c10 -9 129 -66 129 -61 0 5 -116 65 -126 65 -4 0 -5 -2 -3 -4z" transform="translate(0.000000,0.000000) scale(1,1)" stroke="none" fill="#696959"/>
<path d="M219 197 c-58 -49 -159 -157 -159 -171 0 -11 1118 -7 1125 4 6 10 -29 85 -44 95 -6 3 1 -14 14 -37 14 -24 25 -46 25 -50 0 -4 -247 -8 -550 -8 -302 0 -550 3 -550 7 0 12 118 133 170 175 25 21 43 37 39 38 -3 0 -34 -24 -70 -53z" transform="translate(0.000000,0.000000) scale(1,1)" stroke="none" fill="#696959"/>
<path d="M533 360 c-63 -13 -180 -71 -253 -126 -64 -48 -200 -182 -200 -197 0 -4 248 -7 550 -7 303 0 550 4 550 8 0 16 -61 112 -80 125 -11 7 -17 17 -13 20 3 4 1 7 -5 7 -6 0 -25 15 -42 33 -36 40 -182 112 -267 132 -63 16 -174 18 -240 5z" transform="translate(0.000000,0.000000) scale(1,1)" stroke="none" fill="#A49E98"/>
</g>
<g id="pattern2" transform="matrix(0.618,0,0,0.618,2913,856)">
<path d="M550 370 c-14 -4 16 -5 65 -3 50 3 95 6 100 8 21 7 -141 3 -165 -5z" transform="translate(3859,0.000000) scale(-1,1)" stroke="none" fill="#696959"/>
<path d="M871 326 c10 -9 129 -66 129 -61 0 5 -116 65 -126 65 -4 0 -5 -2 -3 -4z" transform="translate(3859,0.000000) scale(-1,1)" stroke="none" fill="#696959"/>
<path d="M219 197 c-58 -49 -159 -157 -159 -171 0 -11 1118 -7 1125 4 6 10 -29 85 -44 95 -6 3 1 -14 14 -37 14 -24 25 -46 25 -50 0 -4 -247 -8 -550 -8 -302 0 -550 3 -550 7 0 12 118 133 170 175 25 21 43 37 39 38 -3 0 -34 -24 -70 -53z" transform="translate(3859,0.000000) scale(-1,1)" stroke="none" fill="#696959"/>
<path d="M533 360 c-63 -13 -180 -71 -253 -126 -64 -48 -200 -182 -200 -197 0 -4 248 -7 550 -7 303 0 550 4 550 8 0 16 -61 112 -80 125 -11 7 -17 17 -13 20 3 4 1 7 -5 7 -6 0 -25 15 -42 33 -36 40 -182 112 -267 132 -63 16 -174 18 -240 5z" transform="translate(3859,0.000000) scale(-1,1)" stroke="none" fill="#A49E98"/>
</g>
<g id="pattern3" transform="matrix(0.618,0,0,0.618,1092,3859)matrix(0.71,0.71,-0.71,0.71,0,0)">
<path d="M550 370 c-14 -4 16 -5 65 -3 50 3 95 6 100 8 21 7 -141 3 -165 -5z" transform="translate(619,-619) scale(1,1)" stroke="none" fill="#696959"/>
<path d="M871 326 c10 -9 129 -66 129 -61 0 5 -116 65 -126 65 -4 0 -5 -2 -3 -4z" transform="translate(619,-619) scale(1,1)" stroke="none" fill="#696959"/>
<path d="M219 197 c-58 -49 -159 -157 -159 -171 0 -11 1118 -7 1125 4 6 10 -29 85 -44 95 -6 3 1 -14 14 -37 14 -24 25 -46 25 -50 0 -4 -247 -8 -550 -8 -302 0 -550 3 -550 7 0 12 118 133 170 175 25 21 43 37 39 38 -3 0 -34 -24 -70 -53z" transform="translate(619,-619) scale(1,1)" stroke="none" fill="#696959"/>
<path d="M533 360 c-63 -13 -180 -71 -253 -126 -64 -48 -200 -182 -200 -197 0 -4 248 -7 550 -7 303 0 550 4 550 8 0 16 -61 112 -80 125 -11 7 -17 17 -13 20 3 4 1 7 -5 7 -6 0 -25 15 -42 33 -36 40 -182 112 -267 132 -63 16 -174 18 -240 5z" transform="translate(619,-619) scale(1,1)" stroke="none" fill="#A49E98"/>
</g>
<g id="pattern4" transform="matrix(1.618,0,0,1.618,1619,1619)matrix(0.87,0.5,-0.5,0.87,0,0)">
<path d="M550 370 c-14 -4 16 -5 65 -3 50 3 95 6 100 8 21 7 -141 3 -165 -5z" transform="translate(619,-619) scale(1,1)" stroke="none" fill="#696959"/>
<path d="M871 326 c10 -9 129 -66 129 -61 0 5 -116 65 -126 65 -4 0 -5 -2 -3 -4z" transform="translate(619,-619) scale(1,1)" stroke="none" fill="#696959"/>
<path d="M219 197 c-58 -49 -159 -157 -159 -171 0 -11 1118 -7 1125 4 6 10 -29 85 -44 95 -6 3 1 -14 14 -37 14 -24 25 -46 25 -50 0 -4 -247 -8 -550 -8 -302 0 -550 3 -550 7 0 12 118 133 170 175 25 21 43 37 39 38 -3 0 -34 -24 -70 -53z" transform="translate(619,-619) scale(1,1)" stroke="none" fill="#696959"/>
<path d="M533 360 c-63 -13 -180 -71 -253 -126 -64 -48 -200 -182 -200 -197 0 -4 248 -7 550 -7 303 0 550 4 550 8 0 16 -61 112 -80 125 -11 7 -17 17 -13 20 3 4 1 7 -5 7 -6 0 -25 15 -42 33 -36 40 -182 112 -267 132 -63 16 -174 18 -240 5z" transform="translate(619,-619) scale(1,1)" stroke="none" fill="#A49E98"/>
</g>
</g>
</g>

<g id="2" transform="translate(2838.0,0)scale(0.25,0.25)">

<g id="pattern">
<rect width="6149" height="6149" fill="#C0CCC8"/>
<g id="pattern1" transform="matrix(1,0,0,1,383,383)">
<path d="M550 370 c-14 -4 16 -5 65 -3 50 3 95 6 100 8 21 7 -141 3 -165 -5z" transform="translate(0.000000,0.000000) scale(1,1)" stroke="none" fill="#696959"/>
<path d="M871 326 c10 -9 129 -66 129 -61 0 5 -116 65 -126 65 -4 0 -5 -2 -3 -4z" transform="translate(0.000000,0.000000) scale(1,1)" stroke="none" fill="#696959"/>
<path d="M219 197 c-58 -49 -159 -157 -159 -171 0 -11 1118 -7 1125 4 6 10 -29 85 -44 95 -6 3 1 -14 14 -37 14 -24 25 -46 25 -50 0 -4 -247 -8 -550 -8 -302 0 -550 3 -550 7 0 12 118 133 170 175 25 21 43 37 39 38 -3 0 -34 -24 -70 -53z" transform="translate(0.000000,0.000000) scale(1,1)" stroke="none" fill="#696959"/>
<path d="M533 360 c-63 -13 -180 -71 -253 -126 -64 -48 -200 -182 -200 -197 0 -4 248 -7 550 -7 303 0 550 4 550 8 0 16 -61 112 -80 125 -11 7 -17 17 -13 20 3 4 1 7 -5 7 -6 0 -25 15 -42 33 -36 40 -182 112 -267 132 -63 16 -174 18 -240 5z" transform="translate(0.000000,0.000000) scale(1,1)" stroke="none" fill="#A49E98"/>
</g>
<g id="pattern2" transform="matrix(0.618,0,0,0.618,2913,856)">
<path d="M550 370 c-14 -4 16 -5 65 -3 50 3 95 6 100 8 21 7 -141 3 -165 -5z" transform="translate(3859,0.000000) scale(-1,1)" stroke="none" fill="#696959"/>
<path d="M871 326 c10 -9 129 -66 129 -61 0 5 -116 65 -126 65 -4 0 -5 -2 -3 -4z" transform="translate(3859,0.000000) scale(-1,1)" stroke="none" fill="#696959"/>
<path d="M219 197 c-58 -49 -159 -157 -159 -171 0 -11 1118 -7 1125 4 6 10 -29 85 -44 95 -6 3 1 -14 14 -37 14 -24 25 -46 25 -50 0 -4 -247 -8 -550 -8 -302 0 -550 3 -550 7 0 12 118 133 170 175 25 21 43 37 39 38 -3 0 -34 -24 -70 -53z" transform="translate(3859,0.000000) scale(-1,1)" stroke="none" fill="#696959"/>
<path d="M533 360 c-63 -13 -180 -71 -253 -126 -64 -48 -200 -182 -200 -197 0 -4 248 -7 550 -7 303 0 550 4 550 8 0 16 -61 112 -80 125 -11 7 -17 17 -13 20 3 4 1 7 -5 7 -6 0 -25 15 -42 33 -36 40 -182 112 -267 132 -63 16 -174 18 -240 5z" transform="translate(3859,0.000000) scale(-1,1)" stroke="none" fill="#A49E98"/>
</g>
<g id="pattern3" transform="matrix(0.618,0,0,0.618,1092,3859)matrix(0.71,0.71,-0.71,0.71,0,0)">
<path d="M550 370 c-14 -4 16 -5 65 -3 50 3 95 6 100 8 21 7 -141 3 -165 -5z" transform="translate(619,-619) scale(1,1)" stroke="none" fill="#696959"/>
<path d="M871 326 c10 -9 129 -66 129 -61 0 5 -116 65 -126 65 -4 0 -5 -2 -3 -4z" transform="translate(619,-619) scale(1,1)" stroke="none" fill="#696959"/>
<path d="M219 197 c-58 -49 -159 -157 -159 -171 0 -11 1118 -7 1125 4 6 10 -29 85 -44 95 -6 3 1 -14 14 -37 14 -24 25 -46 25 -50 0 -4 -247 -8 -550 -8 -302 0 -550 3 -550 7 0 12 118 133 170 175 25 21 43 37 39 38 -3 0 -34 -24 -70 -53z" transform="translate(619,-619) scale(1,1)" stroke="none" fill="#696959"/>
<path d="M533 360 c-63 -13 -180 -71 -253 -126 -64 -48 -200 -182 -200 -197 0 -4 248 -7 550 -7 303 0 550 4 550 8 0 16 -61 112 -80 125 -11 7 -17 17 -13 20 3 4 1 7 -5 7 -6 0 -25 15 -42 33 -36 40 -182 112 -267 132 -63 16 -174 18 -240 5z" transform="translate(619,-619) scale(1,1)" stroke="none" fill="#A49E98"/>
</g>
<g id="pattern4" transform="matrix(1.618,0,0,1.618,1619,1619)matrix(0.87,0.5,-0.5,0.87,0,0)">
<path d="M550 370 c-14 -4 16 -5 65 -3 50 3 95 6 100 8 21 7 -141 3 -165 -5z" transform="translate(619,-619) scale(1,1)" stroke="none" fill="#696959"/>
<path d="M871 326 c10 -9 129 -66 129 -61 0 5 -116 65 -126 65 -4 0 -5 -2 -3 -4z" transform="translate(619,-619) scale(1,1)" stroke="none" fill="#696959"/>
<path d="M219 197 c-58 -49 -159 -157 -159 -171 0 -11 1118 -7 1125 4 6 10 -29 85 -44 95 -6 3 1 -14 14 -37 14 -24 25 -46 25 -50 0 -4 -247 -8 -550 -8 -302 0 -550 3 -550 7 0 12 118 133 170 175 25 21 43 37 39 38 -3 0 -34 -24 -70 -53z" transform="translate(619,-619) scale(1,1)" stroke="none" fill="#696959"/>
<path d="M533 360 c-63 -13 -180 -71 -253 -126 -64 -48 -200 -182 -200 -197 0 -4 248 -7 550 -7 303 0 550 4 550 8 0 16 -61 112 -80 125 -11 7 -17 17 -13 20 3 4 1 7 -5 7 -6 0 -25 15 -42 33 -36 40 -182 112 -267 132 -63 16 -174 18 -240 5z" transform="translate(619,-619) scale(1,1)" stroke="none" fill="#A49E98"/>
</g>
</g>
</g>

<g id="3" transform="translate(4257.0,0)scale(0.25,0.25)">

<g id="pattern">
<rect width="6149" height="6149" fill="#C0CCC8"/>
<g id="pattern1" transform="matrix(1,0,0,1,383,383)">
<path d="M550 370 c-14 -4 16 -5 65 -3 50 3 95 6 100 8 21 7 -141 3 -165 -5z" transform="translate(0.000000,0.000000) scale(1,1)" stroke="none" fill="#696959"/>
<path d="M871 326 c10 -9 129 -66 129 -61 0 5 -116 65 -126 65 -4 0 -5 -2 -3 -4z" transform="translate(0.000000,0.000000) scale(1,1)" stroke="none" fill="#696959"/>
<path d="M219 197 c-58 -49 -159 -157 -159 -171 0 -11 1118 -7 1125 4 6 10 -29 85 -44 95 -6 3 1 -14 14 -37 14 -24 25 -46 25 -50 0 -4 -247 -8 -550 -8 -302 0 -550 3 -550 7 0 12 118 133 170 175 25 21 43 37 39 38 -3 0 -34 -24 -70 -53z" transform="translate(0.000000,0.000000) scale(1,1)" stroke="none" fill="#696959"/>
<path d="M533 360 c-63 -13 -180 -71 -253 -126 -64 -48 -200 -182 -200 -197 0 -4 248 -7 550 -7 303 0 550 4 550 8 0 16 -61 112 -80 125 -11 7 -17 17 -13 20 3 4 1 7 -5 7 -6 0 -25 15 -42 33 -36 40 -182 112 -267 132 -63 16 -174 18 -240 5z" transform="translate(0.000000,0.000000) scale(1,1)" stroke="none" fill="#A49E98"/>
</g>
<g id="pattern2" transform="matrix(0.618,0,0,0.618,2913,856)">
<path d="M550 370 c-14 -4 16 -5 65 -3 50 3 95 6 100 8 21 7 -141 3 -165 -5z" transform="translate(3859,0.000000) scale(-1,1)" stroke="none" fill="#696959"/>
<path d="M871 326 c10 -9 129 -66 129 -61 0 5 -116 65 -126 65 -4 0 -5 -2 -3 -4z" transform="translate(3859,0.000000) scale(-1,1)" stroke="none" fill="#696959"/>
<path d="M219 197 c-58 -49 -159 -157 -159 -171 0 -11 1118 -7 1125 4 6 10 -29 85 -44 95 -6 3 1 -14 14 -37 14 -24 25 -46 25 -50 0 -4 -247 -8 -550 -8 -302 0 -550 3 -550 7 0 12 118 133 170 175 25 21 43 37 39 38 -3 0 -34 -24 -70 -53z" transform="translate(3859,0.000000) scale(-1,1)" stroke="none" fill="#696959"/>
<path d="M533 360 c-63 -13 -180 -71 -253 -126 -64 -48 -200 -182 -200 -197 0 -4 248 -7 550 -7 303 0 550 4 550 8 0 16 -61 112 -80 125 -11 7 -17 17 -13 20 3 4 1 7 -5 7 -6 0 -25 15 -42 33 -36 40 -182 112 -267 132 -63 16 -174 18 -240 5z" transform="translate(3859,0.000000) scale(-1,1)" stroke="none" fill="#A49E98"/>
</g>
<g id="pattern3" transform="matrix(0.618,0,0,0.618,1092,3859)matrix(0.71,0.71,-0.71,0.71,0,0)">
<path d="M550 370 c-14 -4 16 -5 65 -3 50 3 95 6 100 8 21 7 -141 3 -165 -5z" transform="translate(619,-619) scale(1,1)" stroke="none" fill="#696959"/>
<path d="M871 326 c10 -9 129 -66 129 -61 0 5 -116 65 -126 65 -4 0 -5 -2 -3 -4z" transform="translate(619,-619) scale(1,1)" stroke="none" fill="#696959"/>
<path d="M219 197 c-58 -49 -159 -157 -159 -171 0 -11 1118 -7 1125 4 6 10 -29 85 -44 95 -6 3 1 -14 14 -37 14 -24 25 -46 25 -50 0 -4 -247 -8 -550 -8 -302 0 -550 3 -550 7 0 12 118 133 170 175 25 21 43 37 39 38 -3 0 -34 -24 -70 -53z" transform="translate(619,-619) scale(1,1)" stroke="none" fill="#696959"/>
<path d="M533 360 c-63 -13 -180 -71 -253 -126 -64 -48 -200 -182 -200 -197 0 -4 248 -7 550 -7 303 0 550 4 550 8 0 16 -61 112 -80 125 -11 7 -17 17 -13 20 3 4 1 7 -5 7 -6 0 -25 15 -42 33 -36 40 -182 112 -267 132 -63 16 -174 18 -240 5z" transform="translate(619,-619) scale(1,1)" stroke="none" fill="#A49E98"/>
</g>
<g id="pattern4" transform="matrix(1.618,0,0,1.618,1619,1619)matrix(0.87,0.5,-0.5,0.87,0,0)">
<path d="M550 370 c-14 -4 16 -5 65 -3 50 3 95 6 100 8 21 7 -141 3 -165 -5z" transform="translate(619,-619) scale(1,1)" stroke="none" fill="#696959"/>
<path d="M871 326 c10 -9 129 -66 129 -61 0 5 -116 65 -126 65 -4 0 -5 -2 -3 -4z" transform="translate(619,-619) scale(1,1)" stroke="none" fill="#696959"/>
<path d="M219 197 c-58 -49 -159 -157 -159 -171 0 -11 1118 -7 1125 4 6 10 -29 85 -44 95 -6 3 1 -14 14 -37 14 -24 25 -46 25 -50 0 -4 -247 -8 -550 -8 -302 0 -550 3 -550 7 0 12 118 133 170 175 25 21 43 37 39 38 -3 0 -34 -24 -70 -53z" transform="translate(619,-619) scale(1,1)" stroke="none" fill="#696959"/>
<path d="M533 360 c-63 -13 -180 -71 -253 -126 -64 -48 -200 -182 -200 -197 0 -4 248 -7 550 -7 303 0 550 4 550 8 0 16 -61 112 -80 125 -11 7 -17 17 -13 20 3 4 1 7 -5 7 -6 0 -25 15 -42 33 -36 40 -182 112 -267 132 -63 16 -174 18 -240 5z" transform="translate(619,-619) scale(1,1)" stroke="none" fill="#A49E98"/>
</g>
</g>
</g>

<g id="4" transform="translate(5676.0,0)scale(0.25,0.25)">

<g id="pattern">
<rect width="6149" height="6149" fill="#C0CCC8"/>
<g id="pattern1" transform="matrix(1,0,0,1,383,383)">
<path d="M550 370 c-14 -4 16 -5 65 -3 50 3 95 6 100 8 21 7 -141 3 -165 -5z" transform="translate(0.000000,0.000000) scale(1,1)" stroke="none" fill="#696959"/>
<path d="M871 326 c10 -9 129 -66 129 -61 0 5 -116 65 -126 65 -4 0 -5 -2 -3 -4z" transform="translate(0.000000,0.000000) scale(1,1)" stroke="none" fill="#696959"/>
<path d="M219 197 c-58 -49 -159 -157 -159 -171 0 -11 1118 -7 1125 4 6 10 -29 85 -44 95 -6 3 1 -14 14 -37 14 -24 25 -46 25 -50 0 -4 -247 -8 -550 -8 -302 0 -550 3 -550 7 0 12 118 133 170 175 25 21 43 37 39 38 -3 0 -34 -24 -70 -53z" transform="translate(0.000000,0.000000) scale(1,1)" stroke="none" fill="#696959"/>
<path d="M533 360 c-63 -13 -180 -71 -253 -126 -64 -48 -200 -182 -200 -197 0 -4 248 -7 550 -7 303 0 550 4 550 8 0 16 -61 112 -80 125 -11 7 -17 17 -13 20 3 4 1 7 -5 7 -6 0 -25 15 -42 33 -36 40 -182 112 -267 132 -63 16 -174 18 -240 5z" transform="translate(0.000000,0.000000) scale(1,1)" stroke="none" fill="#A49E98"/>
</g>
<g id="pattern2" transform="matrix(0.618,0,0,0.618,2913,856)">
<path d="M550 370 c-14 -4 16 -5 65 -3 50 3 95 6 100 8 21 7 -141 3 -165 -5z" transform="translate(3859,0.000000) scale(-1,1)" stroke="none" fill="#696959"/>
<path d="M871 326 c10 -9 129 -66 129 -61 0 5 -116 65 -126 65 -4 0 -5 -2 -3 -4z" transform="translate(3859,0.000000) scale(-1,1)" stroke="none" fill="#696959"/>
<path d="M219 197 c-58 -49 -159 -157 -159 -171 0 -11 1118 -7 1125 4 6 10 -29 85 -44 95 -6 3 1 -14 14 -37 14 -24 25 -46 25 -50 0 -4 -247 -8 -550 -8 -302 0 -550 3 -550 7 0 12 118 133 170 175 25 21 43 37 39 38 -3 0 -34 -24 -70 -53z" transform="translate(3859,0.000000) scale(-1,1)" stroke="none" fill="#696959"/>
<path d="M533 360 c-63 -13 -180 -71 -253 -126 -64 -48 -200 -182 -200 -197 0 -4 248 -7 550 -7 303 0 550 4 550 8 0 16 -61 112 -80 125 -11 7 -17 17 -13 20 3 4 1 7 -5 7 -6 0 -25 15 -42 33 -36 40 -182 112 -267 132 -63 16 -174 18 -240 5z" transform="translate(3859,0.000000) scale(-1,1)" stroke="none" fill="#A49E98"/>
</g>
<g id="pattern3" transform="matrix(0.618,0,0,0.618,1092,3859)matrix(0.71,0.71,-0.71,0.71,0,0)">
<path d="M550 370 c-14 -4 16 -5 65 -3 50 3 95 6 100 8 21 7 -141 3 -165 -5z" transform="translate(619,-619) scale(1,1)" stroke="none" fill="#696959"/>
<path d="M871 326 c10 -9 129 -66 129 -61 0 5 -116 65 -126 65 -4 0 -5 -2 -3 -4z" transform="translate(619,-619) scale(1,1)" stroke="none" fill="#696959"/>
<path d="M219 197 c-58 -49 -159 -157 -159 -171 0 -11 1118 -7 1125 4 6 10 -29 85 -44 95 -6 3 1 -14 14 -37 14 -24 25 -46 25 -50 0 -4 -247 -8 -550 -8 -302 0 -550 3 -550 7 0 12 118 133 170 175 25 21 43 37 39 38 -3 0 -34 -24 -70 -53z" transform="translate(619,-619) scale(1,1)" stroke="none" fill="#696959"/>
<path d="M533 360 c-63 -13 -180 -71 -253 -126 -64 -48 -200 -182 -200 -197 0 -4 248 -7 550 -7 303 0 550 4 550 8 0 16 -61 112 -80 125 -11 7 -17 17 -13 20 3 4 1 7 -5 7 -6 0 -25 15 -42 33 -36 40 -182 112 -267 132 -63 16 -174 18 -240 5z" transform="translate(619,-619) scale(1,1)" stroke="none" fill="#A49E98"/>
</g>
<g id="pattern4" transform="matrix(1.618,0,0,1.618,1619,1619)matrix(0.87,0.5,-0.5,0.87,0,0)">
<path d="M550 370 c-14 -4 16 -5 65 -3 50 3 95 6 100 8 21 7 -141 3 -165 -5z" transform="translate(619,-619) scale(1,1)" stroke="none" fill="#696959"/>
<path d="M871 326 c10 -9 129 -66 129 -61 0 5 -116 65 -126 65 -4 0 -5 -2 -3 -4z" transform="translate(619,-619) scale(1,1)" stroke="none" fill="#696959"/>
<path d="M219 197 c-58 -49 -159 -157 -159 -171 0 -11 1118 -7 1125 4 6 10 -29 85 -44 95 -6 3 1 -14 14 -37 14 -24 25 -46 25 -50 0 -4 -247 -8 -550 -8 -302 0 -550 3 -550 7 0 12 118 133 170 175 25 21 43 37 39 38 -3 0 -34 -24 -70 -53z" transform="translate(619,-619) scale(1,1)" stroke="none" fill="#696959"/>
<path d="M533 360 c-63 -13 -180 -71 -253 -126 -64 -48 -200 -182 -200 -197 0 -4 248 -7 550 -7 303 0 550 4 550 8 0 16 -61 112 -80 125 -11 7 -17 17 -13 20 3 4 1 7 -5 7 -6 0 -25 15 -42 33 -36 40 -182 112 -267 132 -63 16 -174 18 -240 5z" transform="translate(619,-619) scale(1,1)" stroke="none" fill="#A49E98"/>
</g>
</g>
</g>

</g>
<g id="row1" transform="translate(0,1419.0)">
<g id="0" transform="translate(0.0,0)scale(0.25,0.25)">

<g id="pattern">
<rect width="6149" height="6149" fill="#C0CCC8"/>
<g id="pattern1" transform="matrix(1,0,0,1,383,383)">
<path d="M550 370 c-14 -4 16 -5 65 -3 50 3 95 6 100 8 21 7 -141 3 -165 -5z" transform="translate(0.000000,0.000000) scale(1,1)" stroke="none" fill="#696959"/>
<path d="M871 326 c10 -9 129 -66 129 -61 0 5 -116 65 -126 65 -4 0 -5 -2 -3 -4z" transform="translate(0.000000,0.000000) scale(1,1)" stroke="none" fill="#696959"/>
<path d="M219 197 c-58 -49 -159 -157 -159 -171 0 -11 1118 -7 1125 4 6 10 -29 85 -44 95 -6 3 1 -14 14 -37 14 -24 25 -46 25 -50 0 -4 -247 -8 -550 -8 -302 0 -550 3 -550 7 0 12 118 133 170 175 25 21 43 37 39 38 -3 0 -34 -24 -70 -53z" transform="translate(0.000000,0.000000) scale(1,1)" stroke="none" fill="#696959"/>
<path d="M533 360 c-63 -13 -180 -71 -253 -126 -64 -48 -200 -182 -200 -197 0 -4 248 -7 550 -7 303 0 550 4 550 8 0 16 -61 112 -80 125 -11 7 -17 17 -13 20 3 4 1 7 -5 7 -6 0 -25 15 -42 33 -36 40 -182 112 -267 132 -63 16 -174 18 -240 5z" transform="translate(0.000000,0.000000) scale(1,1)" stroke="none" fill="#A49E98"/>
</g>
<g id="pattern2" transform="matrix(0.618,0,0,0.618,2913,856)">
<path d="M550 370 c-14 -4 16 -5 65 -3 50 3 95 6 100 8 21 7 -141 3 -165 -5z" transform="translate(3859,0.000000) scale(-1,1)" stroke="none" fill="#696959"/>
<path d="M871 326 c10 -9 129 -66 129 -61 0 5 -116 65 -126 65 -4 0 -5 -2 -3 -4z" transform="translate(3859,0.000000) scale(-1,1)" stroke="none" fill="#696959"/>
<path d="M219 197 c-58 -49 -159 -157 -159 -171 0 -11 1118 -7 1125 4 6 10 -29 85 -44 95 -6 3 1 -14 14 -37 14 -24 25 -46 25 -50 0 -4 -247 -8 -550 -8 -302 0 -550 3 -550 7 0 12 118 133 170 175 25 21 43 37 39 38 -3 0 -34 -24 -70 -53z" transform="translate(3859,0.000000) scale(-1,1)" stroke="none" fill="#696959"/>
<path d="M533 360 c-63 -13 -180 -71 -253 -126 -64 -48 -200 -182 -200 -197 0 -4 248 -7 550 -7 303 0 550 4 550 8 0 16 -61 112 -80 125 -11 7 -17 17 -13 20 3 4 1 7 -5 7 -6 0 -25 15 -42 33 -36 40 -182 112 -267 132 -63 16 -174 18 -240 5z" transform="translate(3859,0.000000) scale(-1,1)" stroke="none" fill="#A49E98"/>
</g>
<g id="pattern3" transform="matrix(0.618,0,0,0.618,1092,3859)matrix(0.71,0.71,-0.71,0.71,0,0)">
<path d="M550 370 c-14 -4 16 -5 65 -3 50 3 95 6 100 8 21 7 -141 3 -165 -5z" transform="translate(619,-619) scale(1,1)" stroke="none" fill="#696959"/>
<path d="M871 326 c10 -9 129 -66 129 -61 0 5 -116 65 -126 65 -4 0 -5 -2 -3 -4z" transform="translate(619,-619) scale(1,1)" stroke="none" fill="#696959"/>
<path d="M219 197 c-58 -49 -159 -157 -159 -171 0 -11 1118 -7 1125 4 6 10 -29 85 -44 95 -6 3 1 -14 14 -37 14 -24 25 -46 25 -50 0 -4 -247 -8 -550 -8 -302 0 -550 3 -550 7 0 12 118 133 170 175 25 21 43 37 39 38 -3 0 -34 -24 -70 -53z" transform="translate(619,-619) scale(1,1)" stroke="none" fill="#696959"/>
<path d="M533 360 c-63 -13 -180 -71 -253 -126 -64 -48 -200 -182 -200 -197 0 -4 248 -7 550 -7 303 0 550 4 550 8 0 16 -61 112 -80 125 -11 7 -17 17 -13 20 3 4 1 7 -5 7 -6 0 -25 15 -42 33 -36 40 -182 112 -267 132 -63 16 -174 18 -240 5z" transform="translate(619,-619) scale(1,1)" stroke="none" fill="#A49E98"/>
</g>
<g id="pattern4" transform="matrix(1.618,0,0,1.618,1619,1619)matrix(0.87,0.5,-0.5,0.87,0,0)">
<path d="M550 370 c-14 -4 16 -5 65 -3 50 3 95 6 100 8 21 7 -141 3 -165 -5z" transform="translate(619,-619) scale(1,1)" stroke="none" fill="#696959"/>
<path d="M871 326 c10 -9 129 -66 129 -61 0 5 -116 65 -126 65 -4 0 -5 -2 -3 -4z" transform="translate(619,-619) scale(1,1)" stroke="none" fill="#696959"/>
<path d="M219 197 c-58 -49 -159 -157 -159 -171 0 -11 1118 -7 1125 4 6 10 -29 85 -44 95 -6 3 1 -14 14 -37 14 -24 25 -46 25 -50 0 -4 -247 -8 -550 -8 -302 0 -550 3 -550 7 0 12 118 133 170 175 25 21 43 37 39 38 -3 0 -34 -24 -70 -53z" transform="translate(619,-619) scale(1,1)" stroke="none" fill="#696959"/>
<path d="M533 360 c-63 -13 -180 -71 -253 -126 -64 -48 -200 -182 -200 -197 0 -4 248 -7 550 -7 303 0 550 4 550 8 0 16 -61 112 -80 125 -11 7 -17 17 -13 20 3 4 1 7 -5 7 -6 0 -25 15 -42 33 -36 40 -182 112 -267 132 -63 16 -174 18 -240 5z" transform="translate(619,-619) scale(1,1)" stroke="none" fill="#A49E98"/>
</g>
</g>
</g>

<g id="1" transform="translate(1419.0,0)scale(0.25,0.25)">

<g id="pattern">
<rect width="6149" height="6149" fill="#C0CCC8"/>
<g id="pattern1" transform="matrix(1,0,0,1,383,383)">
<path d="M550 370 c-14 -4 16 -5 65 -3 50 3 95 6 100 8 21 7 -141 3 -165 -5z" transform="translate(0.000000,0.000000) scale(1,1)" stroke="none" fill="#696959"/>
<path d="M871 326 c10 -9 129 -66 129 -61 0 5 -116 65 -126 65 -4 0 -5 -2 -3 -4z" transform="translate(0.000000,0.000000) scale(1,1)" stroke="none" fill="#696959"/>
<path d="M219 197 c-58 -49 -159 -157 -159 -171 0 -11 1118 -7 1125 4 6 10 -29 85 -44 95 -6 3 1 -14 14 -37 14 -24 25 -46 25 -50 0 -4 -247 -8 -550 -8 -302 0 -550 3 -550 7 0 12 118 133 170 175 25 21 43 37 39 38 -3 0 -34 -24 -70 -53z" transform="translate(0.000000,0.000000) scale(1,1)" stroke="none" fill="#696959"/>
<path d="M533 360 c-63 -13 -180 -71 -253 -126 -64 -48 -200 -182 -200 -197 0 -4 248 -7 550 -7 303 0 550 4 550 8 0 16 -61 112 -80 125 -11 7 -17 17 -13 20 3 4 1 7 -5 7 -6 0 -25 15 -42 33 -36 40 -182 112 -267 132 -63 16 -174 18 -240 5z" transform="translate(0.000000,0.000000) scale(1,1)" stroke="none" fill="#A49E98"/>
</g>
<g id="pattern2" transform="matrix(0.618,0,0,0.618,2913,856)">
<path d="M550 370 c-14 -4 16 -5 65 -3 50 3 95 6 100 8 21 7 -141 3 -165 -5z" transform="translate(3859,0.000000) scale(-1,1)" stroke="none" fill="#696959"/>
<path d="M871 326 c10 -9 129 -66 129 -61 0 5 -116 65 -126 65 -4 0 -5 -2 -3 -4z" transform="translate(3859,0.000000) scale(-1,1)" stroke="none" fill="#696959"/>
<path d="M219 197 c-58 -49 -159 -157 -159 -171 0 -11 1118 -7 1125 4 6 10 -29 85 -44 95 -6 3 1 -14 14 -37 14 -24 25 -46 25 -50 0 -4 -247 -8 -550 -8 -302 0 -550 3 -550 7 0 12 118 133 170 175 25 21 43 37 39 38 -3 0 -34 -24 -70 -53z" transform="translate(3859,0.000000) scale(-1,1)" stroke="none" fill="#696959"/>
<path d="M533 360 c-63 -13 -180 -71 -253 -126 -64 -48 -200 -182 -200 -197 0 -4 248 -7 550 -7 303 0 550 4 550 8 0 16 -61 112 -80 125 -11 7 -17 17 -13 20 3 4 1 7 -5 7 -6 0 -25 15 -42 33 -36 40 -182 112 -267 132 -63 16 -174 18 -240 5z" transform="translate(3859,0.000000) scale(-1,1)" stroke="none" fill="#A49E98"/>
</g>
<g id="pattern3" transform="matrix(0.618,0,0,0.618,1092,3859)matrix(0.71,0.71,-0.71,0.71,0,0)">
<path d="M550 370 c-14 -4 16 -5 65 -3 50 3 95 6 100 8 21 7 -141 3 -165 -5z" transform="translate(619,-619) scale(1,1)" stroke="none" fill="#696959"/>
<path d="M871 326 c10 -9 129 -66 129 -61 0 5 -116 65 -126 65 -4 0 -5 -2 -3 -4z" transform="translate(619,-619) scale(1,1)" stroke="none" fill="#696959"/>
<path d="M219 197 c-58 -49 -159 -157 -159 -171 0 -11 1118 -7 1125 4 6 10 -29 85 -44 95 -6 3 1 -14 14 -37 14 -24 25 -46 25 -50 0 -4 -247 -8 -550 -8 -302 0 -550 3 -550 7 0 12 118 133 170 175 25 21 43 37 39 38 -3 0 -34 -24 -70 -53z" transform="translate(619,-619) scale(1,1)" stroke="none" fill="#696959"/>
<path d="M533 360 c-63 -13 -180 -71 -253 -126 -64 -48 -200 -182 -200 -197 0 -4 248 -7 550 -7 303 0 550 4 550 8 0 16 -61 112 -80 125 -11 7 -17 17 -13 20 3 4 1 7 -5 7 -6 0 -25 15 -42 33 -36 40 -182 112 -267 132 -63 16 -174 18 -240 5z" transform="translate(619,-619) scale(1,1)" stroke="none" fill="#A49E98"/>
</g>
<g id="pattern4" transform="matrix(1.618,0,0,1.618,1619,1619)matrix(0.87,0.5,-0.5,0.87,0,0)">
<path d="M550 370 c-14 -4 16 -5 65 -3 50 3 95 6 100 8 21 7 -141 3 -165 -5z" transform="translate(619,-619) scale(1,1)" stroke="none" fill="#696959"/>
<path d="M871 326 c10 -9 129 -66 129 -61 0 5 -116 65 -126 65 -4 0 -5 -2 -3 -4z" transform="translate(619,-619) scale(1,1)" stroke="none" fill="#696959"/>
<path d="M219 197 c-58 -49 -159 -157 -159 -171 0 -11 1118 -7 1125 4 6 10 -29 85 -44 95 -6 3 1 -14 14 -37 14 -24 25 -46 25 -50 0 -4 -247 -8 -550 -8 -302 0 -550 3 -550 7 0 12 118 133 170 175 25 21 43 37 39 38 -3 0 -34 -24 -70 -53z" transform="translate(619,-619) scale(1,1)" stroke="none" fill="#696959"/>
<path d="M533 360 c-63 -13 -180 -71 -253 -126 -64 -48 -200 -182 -200 -197 0 -4 248 -7 550 -7 303 0 550 4 550 8 0 16 -61 112 -80 125 -11 7 -17 17 -13 20 3 4 1 7 -5 7 -6 0 -25 15 -42 33 -36 40 -182 112 -267 132 -63 16 -174 18 -240 5z" transform="translate(619,-619) scale(1,1)" stroke="none" fill="#A49E98"/>
</g>
</g>
</g>

<g id="2" transform="translate(2838.0,0)scale(0.25,0.25)">

<g id="pattern">
<rect width="6149" height="6149" fill="#C0CCC8"/>
<g id="pattern1" transform="matrix(1,0,0,1,383,383)">
<path d="M550 370 c-14 -4 16 -5 65 -3 50 3 95 6 100 8 21 7 -141 3 -165 -5z" transform="translate(0.000000,0.000000) scale(1,1)" stroke="none" fill="#696959"/>
<path d="M871 326 c10 -9 129 -66 129 -61 0 5 -116 65 -126 65 -4 0 -5 -2 -3 -4z" transform="translate(0.000000,0.000000) scale(1,1)" stroke="none" fill="#696959"/>
<path d="M219 197 c-58 -49 -159 -157 -159 -171 0 -11 1118 -7 1125 4 6 10 -29 85 -44 95 -6 3 1 -14 14 -37 14 -24 25 -46 25 -50 0 -4 -247 -8 -550 -8 -302 0 -550 3 -550 7 0 12 118 133 170 175 25 21 43 37 39 38 -3 0 -34 -24 -70 -53z" transform="translate(0.000000,0.000000) scale(1,1)" stroke="none" fill="#696959"/>
<path d="M533 360 c-63 -13 -180 -71 -253 -126 -64 -48 -200 -182 -200 -197 0 -4 248 -7 550 -7 303 0 550 4 550 8 0 16 -61 112 -80 125 -11 7 -17 17 -13 20 3 4 1 7 -5 7 -6 0 -25 15 -42 33 -36 40 -182 112 -267 132 -63 16 -174 18 -240 5z" transform="translate(0.000000,0.000000) scale(1,1)" stroke="none" fill="#A49E98"/>
</g>
<g id="pattern2" transform="matrix(0.618,0,0,0.618,2913,856)">
<path d="M550 370 c-14 -4 16 -5 65 -3 50 3 95 6 100 8 21 7 -141 3 -165 -5z" transform="translate(3859,0.000000) scale(-1,1)" stroke="none" fill="#696959"/>
<path d="M871 326 c10 -9 129 -66 129 -61 0 5 -116 65 -126 65 -4 0 -5 -2 -3 -4z" transform="translate(3859,0.000000) scale(-1,1)" stroke="none" fill="#696959"/>
<path d="M219 197 c-58 -49 -159 -157 -159 -171 0 -11 1118 -7 1125 4 6 10 -29 85 -44 95 -6 3 1 -14 14 -37 14 -24 25 -46 25 -50 0 -4 -247 -8 -550 -8 -302 0 -550 3 -550 7 0 12 118 133 170 175 25 21 43 37 39 38 -3 0 -34 -24 -70 -53z" transform="translate(3859,0.000000) scale(-1,1)" stroke="none" fill="#696959"/>
<path d="M533 360 c-63 -13 -180 -71 -253 -126 -64 -48 -200 -182 -200 -197 0 -4 248 -7 550 -7 303 0 550 4 550 8 0 16 -61 112 -80 125 -11 7 -17 17 -13 20 3 4 1 7 -5 7 -6 0 -25 15 -42 33 -36 40 -182 112 -267 132 -63 16 -174 18 -240 5z" transform="translate(3859,0.000000) scale(-1,1)" stroke="none" fill="#A49E98"/>
</g>
<g id="pattern3" transform="matrix(0.618,0,0,0.618,1092,3859)matrix(0.71,0.71,-0.71,0.71,0,0)">
<path d="M550 370 c-14 -4 16 -5 65 -3 50 3 95 6 100 8 21 7 -141 3 -165 -5z" transform="translate(619,-619) scale(1,1)" stroke="none" fill="#696959"/>
<path d="M871 326 c10 -9 129 -66 129 -61 0 5 -116 65 -126 65 -4 0 -5 -2 -3 -4z" transform="translate(619,-619) scale(1,1)" stroke="none" fill="#696959"/>
<path d="M219 197 c-58 -49 -159 -157 -159 -171 0 -11 1118 -7 1125 4 6 10 -29 85 -44 95 -6 3 1 -14 14 -37 14 -24 25 -46 25 -50 0 -4 -247 -8 -550 -8 -302 0 -550 3 -550 7 0 12 118 133 170 175 25 21 43 37 39 38 -3 0 -34 -24 -70 -53z" transform="translate(619,-619) scale(1,1)" stroke="none" fill="#696959"/>
<path d="M533 360 c-63 -13 -180 -71 -253 -126 -64 -48 -200 -182 -200 -197 0 -4 248 -7 550 -7 303 0 550 4 550 8 0 16 -61 112 -80 125 -11 7 -17 17 -13 20 3 4 1 7 -5 7 -6 0 -25 15 -42 33 -36 40 -182 112 -267 132 -63 16 -174 18 -240 5z" transform="translate(619,-619) scale(1,1)" stroke="none" fill="#A49E98"/>
</g>
<g id="pattern4" transform="matrix(1.618,0,0,1.618,1619,1619)matrix(0.87,0.5,-0.5,0.87,0,0)">
<path d="M550 370 c-14 -4 16 -5 65 -3 50 3 95 6 100 8 21 7 -141 3 -165 -5z" transform="translate(619,-619) scale(1,1)" stroke="none" fill="#696959"/>
<path d="M871 326 c10 -9 129 -66 129 -61 0 5 -116 65 -126 65 -4 0 -5 -2 -3 -4z" transform="translate(619,-619) scale(1,1)" stroke="none" fill="#696959"/>
<path d="M219 197 c-58 -49 -159 -157 -159 -171 0 -11 1118 -7 1125 4 6 10 -29 85 -44 95 -6 3 1 -14 14 -37 14 -24 25 -46 25 -50 0 -4 -247 -8 -550 -8 -302 0 -550 3 -550 7 0 12 118 133 170 175 25 21 43 37 39 38 -3 0 -34 -24 -70 -53z" transform="translate(619,-619) scale(1,1)" stroke="none" fill="#696959"/>
<path d="M533 360 c-63 -13 -180 -71 -253 -126 -64 -48 -200 -182 -200 -197 0 -4 248 -7 550 -7 303 0 550 4 550 8 0 16 -61 112 -80 125 -11 7 -17 17 -13 20 3 4 1 7 -5 7 -6 0 -25 15 -42 33 -36 40 -182 112 -267 132 -63 16 -174 18 -240 5z" transform="translate(619,-619) scale(1,1)" stroke="none" fill="#A49E98"/>
</g>
</g>
</g>

<g id="3" transform="translate(4257.0,0)scale(0.25,0.25)">

<g id="pattern">
<rect width="6149" height="6149" fill="#C0CCC8"/>
<g id="pattern1" transform="matrix(1,0,0,1,383,383)">
<path d="M550 370 c-14 -4 16 -5 65 -3 50 3 95 6 100 8 21 7 -141 3 -165 -5z" transform="translate(0.000000,0.000000) scale(1,1)" stroke="none" fill="#696959"/>
<path d="M871 326 c10 -9 129 -66 129 -61 0 5 -116 65 -126 65 -4 0 -5 -2 -3 -4z" transform="translate(0.000000,0.000000) scale(1,1)" stroke="none" fill="#696959"/>
<path d="M219 197 c-58 -49 -159 -157 -159 -171 0 -11 1118 -7 1125 4 6 10 -29 85 -44 95 -6 3 1 -14 14 -37 14 -24 25 -46 25 -50 0 -4 -247 -8 -550 -8 -302 0 -550 3 -550 7 0 12 118 133 170 175 25 21 43 37 39 38 -3 0 -34 -24 -70 -53z" transform="translate(0.000000,0.000000) scale(1,1)" stroke="none" fill="#696959"/>
<path d="M533 360 c-63 -13 -180 -71 -253 -126 -64 -48 -200 -182 -200 -197 0 -4 248 -7 550 -7 303 0 550 4 550 8 0 16 -61 112 -80 125 -11 7 -17 17 -13 20 3 4 1 7 -5 7 -6 0 -25 15 -42 33 -36 40 -182 112 -267 132 -63 16 -174 18 -240 5z" transform="translate(0.000000,0.000000) scale(1,1)" stroke="none" fill="#A49E98"/>
</g>
<g id="pattern2" transform="matrix(0.618,0,0,0.618,2913,856)">
<path d="M550 370 c-14 -4 16 -5 65 -3 50 3 95 6 100 8 21 7 -141 3 -165 -5z" transform="translate(3859,0.000000) scale(-1,1)" stroke="none" fill="#696959"/>
<path d="M871 326 c10 -9 129 -66 129 -61 0 5 -116 65 -126 65 -4 0 -5 -2 -3 -4z" transform="translate(3859,0.000000) scale(-1,1)" stroke="none" fill="#696959"/>
<path d="M219 197 c-58 -49 -159 -157 -159 -171 0 -11 1118 -7 1125 4 6 10 -29 85 -44 95 -6 3 1 -14 14 -37 14 -24 25 -46 25 -50 0 -4 -247 -8 -550 -8 -302 0 -550 3 -550 7 0 12 118 133 170 175 25 21 43 37 39 38 -3 0 -34 -24 -70 -53z" transform="translate(3859,0.000000) scale(-1,1)" stroke="none" fill="#696959"/>
<path d="M533 360 c-63 -13 -180 -71 -253 -126 -64 -48 -200 -182 -200 -197 0 -4 248 -7 550 -7 303 0 550 4 550 8 0 16 -61 112 -80 125 -11 7 -17 17 -13 20 3 4 1 7 -5 7 -6 0 -25 15 -42 33 -36 40 -182 112 -267 132 -63 16 -174 18 -240 5z" transform="translate(3859,0.000000) scale(-1,1)" stroke="none" fill="#A49E98"/>
</g>
<g id="pattern3" transform="matrix(0.618,0,0,0.618,1092,3859)matrix(0.71,0.71,-0.71,0.71,0,0)">
<path d="M550 370 c-14 -4 16 -5 65 -3 50 3 95 6 100 8 21 7 -141 3 -165 -5z" transform="translate(619,-619) scale(1,1)" stroke="none" fill="#696959"/>
<path d="M871 326 c10 -9 129 -66 129 -61 0 5 -116 65 -126 65 -4 0 -5 -2 -3 -4z" transform="translate(619,-619) scale(1,1)" stroke="none" fill="#696959"/>
<path d="M219 197 c-58 -49 -159 -157 -159 -171 0 -11 1118 -7 1125 4 6 10 -29 85 -44 95 -6 3 1 -14 14 -37 14 -24 25 -46 25 -50 0 -4 -247 -8 -550 -8 -302 0 -550 3 -550 7 0 12 118 133 170 175 25 21 43 37 39 38 -3 0 -34 -24 -70 -53z" transform="translate(619,-619) scale(1,1)" stroke="none" fill="#696959"/>
<path d="M533 360 c-63 -13 -180 -71 -253 -126 -64 -48 -200 -182 -200 -197 0 -4 248 -7 550 -7 303 0 550 4 550 8 0 16 -61 112 -80 125 -11 7 -17 17 -13 20 3 4 1 7 -5 7 -6 0 -25 15 -42 33 -36 40 -182 112 -267 132 -63 16 -174 18 -240 5z" transform="translate(619,-619) scale(1,1)" stroke="none" fill="#A49E98"/>
</g>
<g id="pattern4" transform="matrix(1.618,0,0,1.618,1619,1619)matrix(0.87,0.5,-0.5,0.87,0,0)">
<path d="M550 370 c-14 -4 16 -5 65 -3 50 3 95 6 100 8 21 7 -141 3 -165 -5z" transform="translate(619,-619) scale(1,1)" stroke="none" fill="#696959"/>
<path d="M871 326 c10 -9 129 -66 129 -61 0 5 -116 65 -126 65 -4 0 -5 -2 -3 -4z" transform="translate(619,-619) scale(1,1)" stroke="none" fill="#696959"/>
<path d="M219 197 c-58 -49 -159 -157 -159 -171 0 -11 1118 -7 1125 4 6 10 -29 85 -44 95 -6 3 1 -14 14 -37 14 -24 25 -46 25 -50 0 -4 -247 -8 -550 -8 -302 0 -550 3 -550 7 0 12 118 133 170 175 25 21 43 37 39 38 -3 0 -34 -24 -70 -53z" transform="translate(619,-619) scale(1,1)" stroke="none" fill="#696959"/>
<path d="M533 360 c-63 -13 -180 -71 -253 -126 -64 -48 -200 -182 -200 -197 0 -4 248 -7 550 -7 303 0 550 4 550 8 0 16 -61 112 -80 125 -11 7 -17 17 -13 20 3 4 1 7 -5 7 -6 0 -25 15 -42 33 -36 40 -182 112 -267 132 -63 16 -174 18 -240 5z" transform="translate(619,-619) scale(1,1)" stroke="none" fill="#A49E98"/>
</g>
</g>
</g>

<g id="4" transform="translate(5676.0,0)scale(0.25,0.25)">

<g id="pattern">
<rect width="6149" height="6149" fill="#C0CCC8"/>
<g id="pattern1" transform="matrix(1,0,0,1,383,383)">
<path d="M550 370 c-14 -4 16 -5 65 -3 50 3 95 6 100 8 21 7 -141 3 -165 -5z" transform="translate(0.000000,0.000000) scale(1,1)" stroke="none" fill="#696959"/>
<path d="M871 326 c10 -9 129 -66 129 -61 0 5 -116 65 -126 65 -4 0 -5 -2 -3 -4z" transform="translate(0.000000,0.000000) scale(1,1)" stroke="none" fill="#696959"/>
<path d="M219 197 c-58 -49 -159 -157 -159 -171 0 -11 1118 -7 1125 4 6 10 -29 85 -44 95 -6 3 1 -14 14 -37 14 -24 25 -46 25 -50 0 -4 -247 -8 -550 -8 -302 0 -550 3 -550 7 0 12 118 133 170 175 25 21 43 37 39 38 -3 0 -34 -24 -70 -53z" transform="translate(0.000000,0.000000) scale(1,1)" stroke="none" fill="#696959"/>
<path d="M533 360 c-63 -13 -180 -71 -253 -126 -64 -48 -200 -182 -200 -197 0 -4 248 -7 550 -7 303 0 550 4 550 8 0 16 -61 112 -80 125 -11 7 -17 17 -13 20 3 4 1 7 -5 7 -6 0 -25 15 -42 33 -36 40 -182 112 -267 132 -63 16 -174 18 -240 5z" transform="translate(0.000000,0.000000) scale(1,1)" stroke="none" fill="#A49E98"/>
</g>
<g id="pattern2" transform="matrix(0.618,0,0,0.618,2913,856)">
<path d="M550 370 c-14 -4 16 -5 65 -3 50 3 95 6 100 8 21 7 -141 3 -165 -5z" transform="translate(3859,0.000000) scale(-1,1)" stroke="none" fill="#696959"/>
<path d="M871 326 c10 -9 129 -66 129 -61 0 5 -116 65 -126 65 -4 0 -5 -2 -3 -4z" transform="translate(3859,0.000000) scale(-1,1)" stroke="none" fill="#696959"/>
<path d="M219 197 c-58 -49 -159 -157 -159 -171 0 -11 1118 -7 1125 4 6 10 -29 85 -44 95 -6 3 1 -14 14 -37 14 -24 25 -46 25 -50 0 -4 -247 -8 -550 -8 -302 0 -550 3 -550 7 0 12 118 133 170 175 25 21 43 37 39 38 -3 0 -34 -24 -70 -53z" transform="translate(3859,0.000000) scale(-1,1)" stroke="none" fill="#696959"/>
<path d="M533 360 c-63 -13 -180 -71 -253 -126 -64 -48 -200 -182 -200 -197 0 -4 248 -7 550 -7 303 0 550 4 550 8 0 16 -61 112 -80 125 -11 7 -17 17 -13 20 3 4 1 7 -5 7 -6 0 -25 15 -42 33 -36 40 -182 112 -267 132 -63 16 -174 18 -240 5z" transform="translate(3859,0.000000) scale(-1,1)" stroke="none" fill="#A49E98"/>
</g>
<g id="pattern3" transform="matrix(0.618,0,0,0.618,1092,3859)matrix(0.71,0.71,-0.71,0.71,0,0)">
<path d="M550 370 c-14 -4 16 -5 65 -3 50 3 95 6 100 8 21 7 -141 3 -165 -5z" transform="translate(619,-619) scale(1,1)" stroke="none" fill="#696959"/>
<path d="M871 326 c10 -9 129 -66 129 -61 0 5 -116 65 -126 65 -4 0 -5 -2 -3 -4z" transform="translate(619,-619) scale(1,1)" stroke="none" fill="#696959"/>
<path d="M219 197 c-58 -49 -159 -157 -159 -171 0 -11 1118 -7 1125 4 6 10 -29 85 -44 95 -6 3 1 -14 14 -37 14 -24 25 -46 25 -50 0 -4 -247 -8 -550 -8 -302 0 -550 3 -550 7 0 12 118 133 170 175 25 21 43 37 39 38 -3 0 -34 -24 -70 -53z" transform="translate(619,-619) scale(1,1)" stroke="none" fill="#696959"/>
<path d="M533 360 c-63 -13 -180 -71 -253 -126 -64 -48 -200 -182 -200 -197 0 -4 248 -7 550 -7 303 0 550 4 550 8 0 16 -61 112 -80 125 -11 7 -17 17 -13 20 3 4 1 7 -5 7 -6 0 -25 15 -42 33 -36 40 -182 112 -267 132 -63 16 -174 18 -240 5z" transform="translate(619,-619) scale(1,1)" stroke="none" fill="#A49E98"/>
</g>
<g id="pattern4" transform="matrix(1.618,0,0,1.618,1619,1619)matrix(0.87,0.5,-0.5,0.87,0,0)">
<path d="M550 370 c-14 -4 16 -5 65 -3 50 3 95 6 100 8 21 7 -141 3 -165 -5z" transform="translate(619,-619) scale(1,1)" stroke="none" fill="#696959"/>
<path d="M871 326 c10 -9 129 -66 129 -61 0 5 -116 65 -126 65 -4 0 -5 -2 -3 -4z" transform="translate(619,-619) scale(1,1)" stroke="none" fill="#696959"/>
<path d="M219 197 c-58 -49 -159 -157 -159 -171 0 -11 1118 -7 1125 4 6 10 -29 85 -44 95 -6 3 1 -14 14 -37 14 -24 25 -46 25 -50 0 -4 -247 -8 -550 -8 -302 0 -550 3 -550 7 0 12 118 133 170 175 25 21 43 37 39 38 -3 0 -34 -24 -70 -53z" transform="translate(619,-619) scale(1,1)" stroke="none" fill="#696959"/>
<path d="M533 360 c-63 -13 -180 -71 -253 -126 -64 -48 -200 -182 -200 -197 0 -4 248 -7 550 -7 303 0 550 4 550 8 0 16 -61 112 -80 125 -11 7 -17 17 -13 20 3 4 1 7 -5 7 -6 0 -25 15 -42 33 -36 40 -182 112 -267 132 -63 16 -174 18 -240 5z" transform="translate(619,-619) scale(1,1)" stroke="none" fill="#A49E98"/>
</g>
</g>
</g>

</g>
<g id="row2" transform="translate(0,2838.0)">
<g id="0" transform="translate(0.0,0)scale(0.25,0.25)">

<g id="pattern">
<rect width="6149" height="6149" fill="#C0CCC8"/>
<g id="pattern1" transform="matrix(1,0,0,1,383,383)">
<path d="M550 370 c-14 -4 16 -5 65 -3 50 3 95 6 100 8 21 7 -141 3 -165 -5z" transform="translate(0.000000,0.000000) scale(1,1)" stroke="none" fill="#696959"/>
<path d="M871 326 c10 -9 129 -66 129 -61 0 5 -116 65 -126 65 -4 0 -5 -2 -3 -4z" transform="translate(0.000000,0.000000) scale(1,1)" stroke="none" fill="#696959"/>
<path d="M219 197 c-58 -49 -159 -157 -159 -171 0 -11 1118 -7 1125 4 6 10 -29 85 -44 95 -6 3 1 -14 14 -37 14 -24 25 -46 25 -50 0 -4 -247 -8 -550 -8 -302 0 -550 3 -550 7 0 12 118 133 170 175 25 21 43 37 39 38 -3 0 -34 -24 -70 -53z" transform="translate(0.000000,0.000000) scale(1,1)" stroke="none" fill="#696959"/>
<path d="M533 360 c-63 -13 -180 -71 -253 -126 -64 -48 -200 -182 -200 -197 0 -4 248 -7 550 -7 303 0 550 4 550 8 0 16 -61 112 -80 125 -11 7 -17 17 -13 20 3 4 1 7 -5 7 -6 0 -25 15 -42 33 -36 40 -182 112 -267 132 -63 16 -174 18 -240 5z" transform="translate(0.000000,0.000000) scale(1,1)" stroke="none" fill="#A49E98"/>
</g>
<g id="pattern2" transform="matrix(0.618,0,0,0.618,2913,856)">
<path d="M550 370 c-14 -4 16 -5 65 -3 50 3 95 6 100 8 21 7 -141 3 -165 -5z" transform="translate(3859,0.000000) scale(-1,1)" stroke="none" fill="#696959"/>
<path d="M871 326 c10 -9 129 -66 129 -61 0 5 -116 65 -126 65 -4 0 -5 -2 -3 -4z" transform="translate(3859,0.000000) scale(-1,1)" stroke="none" fill="#696959"/>
<path d="M219 197 c-58 -49 -159 -157 -159 -171 0 -11 1118 -7 1125 4 6 10 -29 85 -44 95 -6 3 1 -14 14 -37 14 -24 25 -46 25 -50 0 -4 -247 -8 -550 -8 -302 0 -550 3 -550 7 0 12 118 133 170 175 25 21 43 37 39 38 -3 0 -34 -24 -70 -53z" transform="translate(3859,0.000000) scale(-1,1)" stroke="none" fill="#696959"/>
<path d="M533 360 c-63 -13 -180 -71 -253 -126 -64 -48 -200 -182 -200 -197 0 -4 248 -7 550 -7 303 0 550 4 550 8 0 16 -61 112 -80 125 -11 7 -17 17 -13 20 3 4 1 7 -5 7 -6 0 -25 15 -42 33 -36 40 -182 112 -267 132 -63 16 -174 18 -240 5z" transform="translate(3859,0.000000) scale(-1,1)" stroke="none" fill="#A49E98"/>
</g>
<g id="pattern3" transform="matrix(0.618,0,0,0.618,1092,3859)matrix(0.71,0.71,-0.71,0.71,0,0)">
<path d="M550 370 c-14 -4 16 -5 65 -3 50 3 95 6 100 8 21 7 -141 3 -165 -5z" transform="translate(619,-619) scale(1,1)" stroke="none" fill="#696959"/>
<path d="M871 326 c10 -9 129 -66 129 -61 0 5 -116 65 -126 65 -4 0 -5 -2 -3 -4z" transform="translate(619,-619) scale(1,1)" stroke="none" fill="#696959"/>
<path d="M219 197 c-58 -49 -159 -157 -159 -171 0 -11 1118 -7 1125 4 6 10 -29 85 -44 95 -6 3 1 -14 14 -37 14 -24 25 -46 25 -50 0 -4 -247 -8 -550 -8 -302 0 -550 3 -550 7 0 12 118 133 170 175 25 21 43 37 39 38 -3 0 -34 -24 -70 -53z" transform="translate(619,-619) scale(1,1)" stroke="none" fill="#696959"/>
<path d="M533 360 c-63 -13 -180 -71 -253 -126 -64 -48 -200 -182 -200 -197 0 -4 248 -7 550 -7 303 0 550 4 550 8 0 16 -61 112 -80 125 -11 7 -17 17 -13 20 3 4 1 7 -5 7 -6 0 -25 15 -42 33 -36 40 -182 112 -267 132 -63 16 -174 18 -240 5z" transform="translate(619,-619) scale(1,1)" stroke="none" fill="#A49E98"/>
</g>
<g id="pattern4" transform="matrix(1.618,0,0,1.618,1619,1619)matrix(0.87,0.5,-0.5,0.87,0,0)">
<path d="M550 370 c-14 -4 16 -5 65 -3 50 3 95 6 100 8 21 7 -141 3 -165 -5z" transform="translate(619,-619) scale(1,1)" stroke="none" fill="#696959"/>
<path d="M871 326 c10 -9 129 -66 129 -61 0 5 -116 65 -126 65 -4 0 -5 -2 -3 -4z" transform="translate(619,-619) scale(1,1)" stroke="none" fill="#696959"/>
<path d="M219 197 c-58 -49 -159 -157 -159 -171 0 -11 1118 -7 1125 4 6 10 -29 85 -44 95 -6 3 1 -14 14 -37 14 -24 25 -46 25 -50 0 -4 -247 -8 -550 -8 -302 0 -550 3 -550 7 0 12 118 133 170 175 25 21 43 37 39 38 -3 0 -34 -24 -70 -53z" transform="translate(619,-619) scale(1,1)" stroke="none" fill="#696959"/>
<path d="M533 360 c-63 -13 -180 -71 -253 -126 -64 -48 -200 -182 -200 -197 0 -4 248 -7 550 -7 303 0 550 4 550 8 0 16 -61 112 -80 125 -11 7 -17 17 -13 20 3 4 1 7 -5 7 -6 0 -25 15 -42 33 -36 40 -182 112 -267 132 -63 16 -174 18 -240 5z" transform="translate(619,-619) scale(1,1)" stroke="none" fill="#A49E98"/>
</g>
</g>
</g>

<g id="1" transform="translate(1419.0,0)scale(0.25,0.25)">

<g id="pattern">
<rect width="6149" height="6149" fill="#C0CCC8"/>
<g id="pattern1" transform="matrix(1,0,0,1,383,383)">
<path d="M550 370 c-14 -4 16 -5 65 -3 50 3 95 6 100 8 21 7 -141 3 -165 -5z" transform="translate(0.000000,0.000000) scale(1,1)" stroke="none" fill="#696959"/>
<path d="M871 326 c10 -9 129 -66 129 -61 0 5 -116 65 -126 65 -4 0 -5 -2 -3 -4z" transform="translate(0.000000,0.000000) scale(1,1)" stroke="none" fill="#696959"/>
<path d="M219 197 c-58 -49 -159 -157 -159 -171 0 -11 1118 -7 1125 4 6 10 -29 85 -44 95 -6 3 1 -14 14 -37 14 -24 25 -46 25 -50 0 -4 -247 -8 -550 -8 -302 0 -550 3 -550 7 0 12 118 133 170 175 25 21 43 37 39 38 -3 0 -34 -24 -70 -53z" transform="translate(0.000000,0.000000) scale(1,1)" stroke="none" fill="#696959"/>
<path d="M533 360 c-63 -13 -180 -71 -253 -126 -64 -48 -200 -182 -200 -197 0 -4 248 -7 550 -7 303 0 550 4 550 8 0 16 -61 112 -80 125 -11 7 -17 17 -13 20 3 4 1 7 -5 7 -6 0 -25 15 -42 33 -36 40 -182 112 -267 132 -63 16 -174 18 -240 5z" transform="translate(0.000000,0.000000) scale(1,1)" stroke="none" fill="#A49E98"/>
</g>
<g id="pattern2" transform="matrix(0.618,0,0,0.618,2913,856)">
<path d="M550 370 c-14 -4 16 -5 65 -3 50 3 95 6 100 8 21 7 -141 3 -165 -5z" transform="translate(3859,0.000000) scale(-1,1)" stroke="none" fill="#696959"/>
<path d="M871 326 c10 -9 129 -66 129 -61 0 5 -116 65 -126 65 -4 0 -5 -2 -3 -4z" transform="translate(3859,0.000000) scale(-1,1)" stroke="none" fill="#696959"/>
<path d="M219 197 c-58 -49 -159 -157 -159 -171 0 -11 1118 -7 1125 4 6 10 -29 85 -44 95 -6 3 1 -14 14 -37 14 -24 25 -46 25 -50 0 -4 -247 -8 -550 -8 -302 0 -550 3 -550 7 0 12 118 133 170 175 25 21 43 37 39 38 -3 0 -34 -24 -70 -53z" transform="translate(3859,0.000000) scale(-1,1)" stroke="none" fill="#696959"/>
<path d="M533 360 c-63 -13 -180 -71 -253 -126 -64 -48 -200 -182 -200 -197 0 -4 248 -7 550 -7 303 0 550 4 550 8 0 16 -61 112 -80 125 -11 7 -17 17 -13 20 3 4 1 7 -5 7 -6 0 -25 15 -42 33 -36 40 -182 112 -267 132 -63 16 -174 18 -240 5z" transform="translate(3859,0.000000) scale(-1,1)" stroke="none" fill="#A49E98"/>
</g>
<g id="pattern3" transform="matrix(0.618,0,0,0.618,1092,3859)matrix(0.71,0.71,-0.71,0.71,0,0)">
<path d="M550 370 c-14 -4 16 -5 65 -3 50 3 95 6 100 8 21 7 -141 3 -165 -5z" transform="translate(619,-619) scale(1,1)" stroke="none" fill="#696959"/>
<path d="M871 326 c10 -9 129 -66 129 -61 0 5 -116 65 -126 65 -4 0 -5 -2 -3 -4z" transform="translate(619,-619) scale(1,1)" stroke="none" fill="#696959"/>
<path d="M219 197 c-58 -49 -159 -157 -159 -171 0 -11 1118 -7 1125 4 6 10 -29 85 -44 95 -6 3 1 -14 14 -37 14 -24 25 -46 25 -50 0 -4 -247 -8 -550 -8 -302 0 -550 3 -550 7 0 12 118 133 170 175 25 21 43 37 39 38 -3 0 -34 -24 -70 -53z" transform="translate(619,-619) scale(1,1)" stroke="none" fill="#696959"/>
<path d="M533 360 c-63 -13 -180 -71 -253 -126 -64 -48 -200 -182 -200 -197 0 -4 248 -7 550 -7 303 0 550 4 550 8 0 16 -61 112 -80 125 -11 7 -17 17 -13 20 3 4 1 7 -5 7 -6 0 -25 15 -42 33 -36 40 -182 112 -267 132 -63 16 -174 18 -240 5z" transform="translate(619,-619) scale(1,1)" stroke="none" fill="#A49E98"/>
</g>
<g id="pattern4" transform="matrix(1.618,0,0,1.618,1619,1619)matrix(0.87,0.5,-0.5,0.87,0,0)">
<path d="M550 370 c-14 -4 16 -5 65 -3 50 3 95 6 100 8 21 7 -141 3 -165 -5z" transform="translate(619,-619) scale(1,1)" stroke="none" fill="#696959"/>
<path d="M871 326 c10 -9 129 -66 129 -61 0 5 -116 65 -126 65 -4 0 -5 -2 -3 -4z" transform="translate(619,-619) scale(1,1)" stroke="none" fill="#696959"/>
<path d="M219 197 c-58 -49 -159 -157 -159 -171 0 -11 1118 -7 1125 4 6 10 -29 85 -44 95 -6 3 1 -14 14 -37 14 -24 25 -46 25 -50 0 -4 -247 -8 -550 -8 -302 0 -550 3 -550 7 0 12 118 133 170 175 25 21 43 37 39 38 -3 0 -34 -24 -70 -53z" transform="translate(619,-619) scale(1,1)" stroke="none" fill="#696959"/>
<path d="M533 360 c-63 -13 -180 -71 -253 -126 -64 -48 -200 -182 -200 -197 0 -4 248 -7 550 -7 303 0 550 4 550 8 0 16 -61 112 -80 125 -11 7 -17 17 -13 20 3 4 1 7 -5 7 -6 0 -25 15 -42 33 -36 40 -182 112 -267 132 -63 16 -174 18 -240 5z" transform="translate(619,-619) scale(1,1)" stroke="none" fill="#A49E98"/>
</g>
</g>
</g>

<g id="2" transform="translate(2838.0,0)scale(0.25,0.25)">

<g id="pattern">
<rect width="6149" height="6149" fill="#C0CCC8"/>
<g id="pattern1" transform="matrix(1,0,0,1,383,383)">
<path d="M550 370 c-14 -4 16 -5 65 -3 50 3 95 6 100 8 21 7 -141 3 -165 -5z" transform="translate(0.000000,0.000000) scale(1,1)" stroke="none" fill="#696959"/>
<path d="M871 326 c10 -9 129 -66 129 -61 0 5 -116 65 -126 65 -4 0 -5 -2 -3 -4z" transform="translate(0.000000,0.000000) scale(1,1)" stroke="none" fill="#696959"/>
<path d="M219 197 c-58 -49 -159 -157 -159 -171 0 -11 1118 -7 1125 4 6 10 -29 85 -44 95 -6 3 1 -14 14 -37 14 -24 25 -46 25 -50 0 -4 -247 -8 -550 -8 -302 0 -550 3 -550 7 0 12 118 133 170 175 25 21 43 37 39 38 -3 0 -34 -24 -70 -53z" transform="translate(0.000000,0.000000) scale(1,1)" stroke="none" fill="#696959"/>
<path d="M533 360 c-63 -13 -180 -71 -253 -126 -64 -48 -200 -182 -200 -197 0 -4 248 -7 550 -7 303 0 550 4 550 8 0 16 -61 112 -80 125 -11 7 -17 17 -13 20 3 4 1 7 -5 7 -6 0 -25 15 -42 33 -36 40 -182 112 -267 132 -63 16 -174 18 -240 5z" transform="translate(0.000000,0.000000) scale(1,1)" stroke="none" fill="#A49E98"/>
</g>
<g id="pattern2" transform="matrix(0.618,0,0,0.618,2913,856)">
<path d="M550 370 c-14 -4 16 -5 65 -3 50 3 95 6 100 8 21 7 -141 3 -165 -5z" transform="translate(3859,0.000000) scale(-1,1)" stroke="none" fill="#696959"/>
<path d="M871 326 c10 -9 129 -66 129 -61 0 5 -116 65 -126 65 -4 0 -5 -2 -3 -4z" transform="translate(3859,0.000000) scale(-1,1)" stroke="none" fill="#696959"/>
<path d="M219 197 c-58 -49 -159 -157 -159 -171 0 -11 1118 -7 1125 4 6 10 -29 85 -44 95 -6 3 1 -14 14 -37 14 -24 25 -46 25 -50 0 -4 -247 -8 -550 -8 -302 0 -550 3 -550 7 0 12 118 133 170 175 25 21 43 37 39 38 -3 0 -34 -24 -70 -53z" transform="translate(3859,0.000000) scale(-1,1)" stroke="none" fill="#696959"/>
<path d="M533 360 c-63 -13 -180 -71 -253 -126 -64 -48 -200 -182 -200 -197 0 -4 248 -7 550 -7 303 0 550 4 550 8 0 16 -61 112 -80 125 -11 7 -17 17 -13 20 3 4 1 7 -5 7 -6 0 -25 15 -42 33 -36 40 -182 112 -267 132 -63 16 -174 18 -240 5z" transform="translate(3859,0.000000) scale(-1,1)" stroke="none" fill="#A49E98"/>
</g>
<g id="pattern3" transform="matrix(0.618,0,0,0.618,1092,3859)matrix(0.71,0.71,-0.71,0.71,0,0)">
<path d="M550 370 c-14 -4 16 -5 65 -3 50 3 95 6 100 8 21 7 -141 3 -165 -5z" transform="translate(619,-619) scale(1,1)" stroke="none" fill="#696959"/>
<path d="M871 326 c10 -9 129 -66 129 -61 0 5 -116 65 -126 65 -4 0 -5 -2 -3 -4z" transform="translate(619,-619) scale(1,1)" stroke="none" fill="#696959"/>
<path d="M219 197 c-58 -49 -159 -157 -159 -171 0 -11 1118 -7 1125 4 6 10 -29 85 -44 95 -6 3 1 -14 14 -37 14 -24 25 -46 25 -50 0 -4 -247 -8 -550 -8 -302 0 -550 3 -550 7 0 12 118 133 170 175 25 21 43 37 39 38 -3 0 -34 -24 -70 -53z" transform="translate(619,-619) scale(1,1)" stroke="none" fill="#696959"/>
<path d="M533 360 c-63 -13 -180 -71 -253 -126 -64 -48 -200 -182 -200 -197 0 -4 248 -7 550 -7 303 0 550 4 550 8 0 16 -61 112 -80 125 -11 7 -17 17 -13 20 3 4 1 7 -5 7 -6 0 -25 15 -42 33 -36 40 -182 112 -267 132 -63 16 -174 18 -240 5z" transform="translate(619,-619) scale(1,1)" stroke="none" fill="#A49E98"/>
</g>
<g id="pattern4" transform="matrix(1.618,0,0,1.618,1619,1619)matrix(0.87,0.5,-0.5,0.87,0,0)">
<path d="M550 370 c-14 -4 16 -5 65 -3 50 3 95 6 100 8 21 7 -141 3 -165 -5z" transform="translate(619,-619) scale(1,1)" stroke="none" fill="#696959"/>
<path d="M871 326 c10 -9 129 -66 129 -61 0 5 -116 65 -126 65 -4 0 -5 -2 -3 -4z" transform="translate(619,-619) scale(1,1)" stroke="none" fill="#696959"/>
<path d="M219 197 c-58 -49 -159 -157 -159 -171 0 -11 1118 -7 1125 4 6 10 -29 85 -44 95 -6 3 1 -14 14 -37 14 -24 25 -46 25 -50 0 -4 -247 -8 -550 -8 -302 0 -550 3 -550 7 0 12 118 133 170 175 25 21 43 37 39 38 -3 0 -34 -24 -70 -53z" transform="translate(619,-619) scale(1,1)" stroke="none" fill="#696959"/>
<path d="M533 360 c-63 -13 -180 -71 -253 -126 -64 -48 -200 -182 -200 -197 0 -4 248 -7 550 -7 303 0 550 4 550 8 0 16 -61 112 -80 125 -11 7 -17 17 -13 20 3 4 1 7 -5 7 -6 0 -25 15 -42 33 -36 40 -182 112 -267 132 -63 16 -174 18 -240 5z" transform="translate(619,-619) scale(1,1)" stroke="none" fill="#A49E98"/>
</g>
</g>
</g>

<g id="3" transform="translate(4257.0,0)scale(0.25,0.25)">

<g id="pattern">
<rect width="6149" height="6149" fill="#C0CCC8"/>
<g id="pattern1" transform="matrix(1,0,0,1,383,383)">
<path d="M550 370 c-14 -4 16 -5 65 -3 50 3 95 6 100 8 21 7 -141 3 -165 -5z" transform="translate(0.000000,0.000000) scale(1,1)" stroke="none" fill="#696959"/>
<path d="M871 326 c10 -9 129 -66 129 -61 0 5 -116 65 -126 65 -4 0 -5 -2 -3 -4z" transform="translate(0.000000,0.000000) scale(1,1)" stroke="none" fill="#696959"/>
<path d="M219 197 c-58 -49 -159 -157 -159 -171 0 -11 1118 -7 1125 4 6 10 -29 85 -44 95 -6 3 1 -14 14 -37 14 -24 25 -46 25 -50 0 -4 -247 -8 -550 -8 -302 0 -550 3 -550 7 0 12 118 133 170 175 25 21 43 37 39 38 -3 0 -34 -24 -70 -53z" transform="translate(0.000000,0.000000) scale(1,1)" stroke="none" fill="#696959"/>
<path d="M533 360 c-63 -13 -180 -71 -253 -126 -64 -48 -200 -182 -200 -197 0 -4 248 -7 550 -7 303 0 550 4 550 8 0 16 -61 112 -80 125 -11 7 -17 17 -13 20 3 4 1 7 -5 7 -6 0 -25 15 -42 33 -36 40 -182 112 -267 132 -63 16 -174 18 -240 5z" transform="translate(0.000000,0.000000) scale(1,1)" stroke="none" fill="#A49E98"/>
</g>
<g id="pattern2" transform="matrix(0.618,0,0,0.618,2913,856)">
<path d="M550 370 c-14 -4 16 -5 65 -3 50 3 95 6 100 8 21 7 -141 3 -165 -5z" transform="translate(3859,0.000000) scale(-1,1)" stroke="none" fill="#696959"/>
<path d="M871 326 c10 -9 129 -66 129 -61 0 5 -116 65 -126 65 -4 0 -5 -2 -3 -4z" transform="translate(3859,0.000000) scale(-1,1)" stroke="none" fill="#696959"/>
<path d="M219 197 c-58 -49 -159 -157 -159 -171 0 -11 1118 -7 1125 4 6 10 -29 85 -44 95 -6 3 1 -14 14 -37 14 -24 25 -46 25 -50 0 -4 -247 -8 -550 -8 -302 0 -550 3 -550 7 0 12 118 133 170 175 25 21 43 37 39 38 -3 0 -34 -24 -70 -53z" transform="translate(3859,0.000000) scale(-1,1)" stroke="none" fill="#696959"/>
<path d="M533 360 c-63 -13 -180 -71 -253 -126 -64 -48 -200 -182 -200 -197 0 -4 248 -7 550 -7 303 0 550 4 550 8 0 16 -61 112 -80 125 -11 7 -17 17 -13 20 3 4 1 7 -5 7 -6 0 -25 15 -42 33 -36 40 -182 112 -267 132 -63 16 -174 18 -240 5z" transform="translate(3859,0.000000) scale(-1,1)" stroke="none" fill="#A49E98"/>
</g>
<g id="pattern3" transform="matrix(0.618,0,0,0.618,1092,3859)matrix(0.71,0.71,-0.71,0.71,0,0)">
<path d="M550 370 c-14 -4 16 -5 65 -3 50 3 95 6 100 8 21 7 -141 3 -165 -5z" transform="translate(619,-619) scale(1,1)" stroke="none" fill="#696959"/>
<path d="M871 326 c10 -9 129 -66 129 -61 0 5 -116 65 -126 65 -4 0 -5 -2 -3 -4z" transform="translate(619,-619) scale(1,1)" stroke="none" fill="#696959"/>
<path d="M219 197 c-58 -49 -159 -157 -159 -171 0 -11 1118 -7 1125 4 6 10 -29 85 -44 95 -6 3 1 -14 14 -37 14 -24 25 -46 25 -50 0 -4 -247 -8 -550 -8 -302 0 -550 3 -550 7 0 12 118 133 170 175 25 21 43 37 39 38 -3 0 -34 -24 -70 -53z" transform="translate(619,-619) scale(1,1)" stroke="none" fill="#696959"/>
<path d="M533 360 c-63 -13 -180 -71 -253 -126 -64 -48 -200 -182 -200 -197 0 -4 248 -7 550 -7 303 0 550 4 550 8 0 16 -61 112 -80 125 -11 7 -17 17 -13 20 3 4 1 7 -5 7 -6 0 -25 15 -42 33 -36 40 -182 112 -267 132 -63 16 -174 18 -240 5z" transform="translate(619,-619) scale(1,1)" stroke="none" fill="#A49E98"/>
</g>
<g id="pattern4" transform="matrix(1.618,0,0,1.618,1619,1619)matrix(0.87,0.5,-0.5,0.87,0,0)">
<path d="M550 370 c-14 -4 16 -5 65 -3 50 3 95 6 100 8 21 7 -141 3 -165 -5z" transform="translate(619,-619) scale(1,1)" stroke="none" fill="#696959"/>
<path d="M871 326 c10 -9 129 -66 129 -61 0 5 -116 65 -126 65 -4 0 -5 -2 -3 -4z" transform="translate(619,-619) scale(1,1)" stroke="none" fill="#696959"/>
<path d="M219 197 c-58 -49 -159 -157 -159 -171 0 -11 1118 -7 1125 4 6 10 -29 85 -44 95 -6 3 1 -14 14 -37 14 -24 25 -46 25 -50 0 -4 -247 -8 -550 -8 -302 0 -550 3 -550 7 0 12 118 133 170 175 25 21 43 37 39 38 -3 0 -34 -24 -70 -53z" transform="translate(619,-619) scale(1,1)" stroke="none" fill="#696959"/>
<path d="M533 360 c-63 -13 -180 -71 -253 -126 -64 -48 -200 -182 -200 -197 0 -4 248 -7 550 -7 303 0 550 4 550 8 0 16 -61 112 -80 125 -11 7 -17 17 -13 20 3 4 1 7 -5 7 -6 0 -25 15 -42 33 -36 40 -182 112 -267 132 -63 16 -174 18 -240 5z" transform="translate(619,-619) scale(1,1)" stroke="none" fill="#A49E98"/>
</g>
</g>
</g>

<g id="4" transform="translate(5676.0,0)scale(0.25,0.25)">

<g id="pattern">
<rect width="6149" height="6149" fill="#C0CCC8"/>
<g id="pattern1" transform="matrix(1,0,0,1,383,383)">
<path d="M550 370 c-14 -4 16 -5 65 -3 50 3 95 6 100 8 21 7 -141 3 -165 -5z" transform="translate(0.000000,0.000000) scale(1,1)" stroke="none" fill="#696959"/>
<path d="M871 326 c10 -9 129 -66 129 -61 0 5 -116 65 -126 65 -4 0 -5 -2 -3 -4z" transform="translate(0.000000,0.000000) scale(1,1)" stroke="none" fill="#696959"/>
<path d="M219 197 c-58 -49 -159 -157 -159 -171 0 -11 1118 -7 1125 4 6 10 -29 85 -44 95 -6 3 1 -14 14 -37 14 -24 25 -46 25 -50 0 -4 -247 -8 -550 -8 -302 0 -550 3 -550 7 0 12 118 133 170 175 25 21 43 37 39 38 -3 0 -34 -24 -70 -53z" transform="translate(0.000000,0.000000) scale(1,1)" stroke="none" fill="#696959"/>
<path d="M533 360 c-63 -13 -180 -71 -253 -126 -64 -48 -200 -182 -200 -197 0 -4 248 -7 550 -7 303 0 550 4 550 8 0 16 -61 112 -80 125 -11 7 -17 17 -13 20 3 4 1 7 -5 7 -6 0 -25 15 -42 33 -36 40 -182 112 -267 132 -63 16 -174 18 -240 5z" transform="translate(0.000000,0.000000) scale(1,1)" stroke="none" fill="#A49E98"/>
</g>
<g id="pattern2" transform="matrix(0.618,0,0,0.618,2913,856)">
<path d="M550 370 c-14 -4 16 -5 65 -3 50 3 95 6 100 8 21 7 -141 3 -165 -5z" transform="translate(3859,0.000000) scale(-1,1)" stroke="none" fill="#696959"/>
<path d="M871 326 c10 -9 129 -66 129 -61 0 5 -116 65 -126 65 -4 0 -5 -2 -3 -4z" transform="translate(3859,0.000000) scale(-1,1)" stroke="none" fill="#696959"/>
<path d="M219 197 c-58 -49 -159 -157 -159 -171 0 -11 1118 -7 1125 4 6 10 -29 85 -44 95 -6 3 1 -14 14 -37 14 -24 25 -46 25 -50 0 -4 -247 -8 -550 -8 -302 0 -550 3 -550 7 0 12 118 133 170 175 25 21 43 37 39 38 -3 0 -34 -24 -70 -53z" transform="translate(3859,0.000000) scale(-1,1)" stroke="none" fill="#696959"/>
<path d="M533 360 c-63 -13 -180 -71 -253 -126 -64 -48 -200 -182 -200 -197 0 -4 248 -7 550 -7 303 0 550 4 550 8 0 16 -61 112 -80 125 -11 7 -17 17 -13 20 3 4 1 7 -5 7 -6 0 -25 15 -42 33 -36 40 -182 112 -267 132 -63 16 -174 18 -240 5z" transform="translate(3859,0.000000) scale(-1,1)" stroke="none" fill="#A49E98"/>
</g>
<g id="pattern3" transform="matrix(0.618,0,0,0.618,1092,3859)matrix(0.71,0.71,-0.71,0.71,0,0)">
<path d="M550 370 c-14 -4 16 -5 65 -3 50 3 95 6 100 8 21 7 -141 3 -165 -5z" transform="translate(619,-619) scale(1,1)" stroke="none" fill="#696959"/>
<path d="M871 326 c10 -9 129 -66 129 -61 0 5 -116 65 -126 65 -4 0 -5 -2 -3 -4z" transform="translate(619,-619) scale(1,1)" stroke="none" fill="#696959"/>
<path d="M219 197 c-58 -49 -159 -157 -159 -171 0 -11 1118 -7 1125 4 6 10 -29 85 -44 95 -6 3 1 -14 14 -37 14 -24 25 -46 25 -50 0 -4 -247 -8 -550 -8 -302 0 -550 3 -550 7 0 12 118 133 170 175 25 21 43 37 39 38 -3 0 -34 -24 -70 -53z" transform="translate(619,-619) scale(1,1)" stroke="none" fill="#696959"/>
<path d="M533 360 c-63 -13 -180 -71 -253 -126 -64 -48 -200 -182 -200 -197 0 -4 248 -7 550 -7 303 0 550 4 550 8 0 16 -61 112 -80 125 -11 7 -17 17 -13 20 3 4 1 7 -5 7 -6 0 -25 15 -42 33 -36 40 -182 112 -267 132 -63 16 -174 18 -240 5z" transform="translate(619,-619) scale(1,1)" stroke="none" fill="#A49E98"/>
</g>
<g id="pattern4" transform="matrix(1.618,0,0,1.618,1619,1619)matrix(0.87,0.5,-0.5,0.87,0,0)">
<path d="M550 370 c-14 -4 16 -5 65 -3 50 3 95 6 100 8 21 7 -141 3 -165 -5z" transform="translate(619,-619) scale(1,1)" stroke="none" fill="#696959"/>
<path d="M871 326 c10 -9 129 -66 129 -61 0 5 -116 65 -126 65 -4 0 -5 -2 -3 -4z" transform="translate(619,-619) scale(1,1)" stroke="none" fill="#696959"/>
<path d="M219 197 c-58 -49 -159 -157 -159 -171 0 -11 1118 -7 1125 4 6 10 -29 85 -44 95 -6 3 1 -14 14 -37 14 -24 25 -46 25 -50 0 -4 -247 -8 -550 -8 -302 0 -550 3 -550 7 0 12 118 133 170 175 25 21 43 37 39 38 -3 0 -34 -24 -70 -53z" transform="translate(619,-619) scale(1,1)" stroke="none" fill="#696959"/>
<path d="M533 360 c-63 -13 -180 -71 -253 -126 -64 -48 -200 -182 -200 -197 0 -4 248 -7 550 -7 303 0 550 4 550 8 0 16 -61 112 -80 125 -11 7 -17 17 -13 20 3 4 1 7 -5 7 -6 0 -25 15 -42 33 -36 40 -182 112 -267 132 -63 16 -174 18 -240 5z" transform="translate(619,-619) scale(1,1)" stroke="none" fill="#A49E98"/>
</g>
</g>
</g>

</g>
<g id="row3" transform="translate(0,4257.0)">
<g id="0" transform="translate(0.0,0)scale(0.25,0.25)">

<g id="pattern">
<rect width="6149" height="6149" fill="#C0CCC8"/>
<g id="pattern1" transform="matrix(1,0,0,1,383,383)">
<path d="M550 370 c-14 -4 16 -5 65 -3 50 3 95 6 100 8 21 7 -141 3 -165 -5z" transform="translate(0.000000,0.000000) scale(1,1)" stroke="none" fill="#696959"/>
<path d="M871 326 c10 -9 129 -66 129 -61 0 5 -116 65 -126 65 -4 0 -5 -2 -3 -4z" transform="translate(0.000000,0.000000) scale(1,1)" stroke="none" fill="#696959"/>
<path d="M219 197 c-58 -49 -159 -157 -159 -171 0 -11 1118 -7 1125 4 6 10 -29 85 -44 95 -6 3 1 -14 14 -37 14 -24 25 -46 25 -50 0 -4 -247 -8 -550 -8 -302 0 -550 3 -550 7 0 12 118 133 170 175 25 21 43 37 39 38 -3 0 -34 -24 -70 -53z" transform="translate(0.000000,0.000000) scale(1,1)" stroke="none" fill="#696959"/>
<path d="M533 360 c-63 -13 -180 -71 -253 -126 -64 -48 -200 -182 -200 -197 0 -4 248 -7 550 -7 303 0 550 4 550 8 0 16 -61 112 -80 125 -11 7 -17 17 -13 20 3 4 1 7 -5 7 -6 0 -25 15 -42 33 -36 40 -182 112 -267 132 -63 16 -174 18 -240 5z" transform="translate(0.000000,0.000000) scale(1,1)" stroke="none" fill="#A49E98"/>
</g>
<g id="pattern2" transform="matrix(0.618,0,0,0.618,2913,856)">
<path d="M550 370 c-14 -4 16 -5 65 -3 50 3 95 6 100 8 21 7 -141 3 -165 -5z" transform="translate(3859,0.000000) scale(-1,1)" stroke="none" fill="#696959"/>
<path d="M871 326 c10 -9 129 -66 129 -61 0 5 -116 65 -126 65 -4 0 -5 -2 -3 -4z" transform="translate(3859,0.000000) scale(-1,1)" stroke="none" fill="#696959"/>
<path d="M219 197 c-58 -49 -159 -157 -159 -171 0 -11 1118 -7 1125 4 6 10 -29 85 -44 95 -6 3 1 -14 14 -37 14 -24 25 -46 25 -50 0 -4 -247 -8 -550 -8 -302 0 -550 3 -550 7 0 12 118 133 170 175 25 21 43 37 39 38 -3 0 -34 -24 -70 -53z" transform="translate(3859,0.000000) scale(-1,1)" stroke="none" fill="#696959"/>
<path d="M533 360 c-63 -13 -180 -71 -253 -126 -64 -48 -200 -182 -200 -197 0 -4 248 -7 550 -7 303 0 550 4 550 8 0 16 -61 112 -80 125 -11 7 -17 17 -13 20 3 4 1 7 -5 7 -6 0 -25 15 -42 33 -36 40 -182 112 -267 132 -63 16 -174 18 -240 5z" transform="translate(3859,0.000000) scale(-1,1)" stroke="none" fill="#A49E98"/>
</g>
<g id="pattern3" transform="matrix(0.618,0,0,0.618,1092,3859)matrix(0.71,0.71,-0.71,0.71,0,0)">
<path d="M550 370 c-14 -4 16 -5 65 -3 50 3 95 6 100 8 21 7 -141 3 -165 -5z" transform="translate(619,-619) scale(1,1)" stroke="none" fill="#696959"/>
<path d="M871 326 c10 -9 129 -66 129 -61 0 5 -116 65 -126 65 -4 0 -5 -2 -3 -4z" transform="translate(619,-619) scale(1,1)" stroke="none" fill="#696959"/>
<path d="M219 197 c-58 -49 -159 -157 -159 -171 0 -11 1118 -7 1125 4 6 10 -29 85 -44 95 -6 3 1 -14 14 -37 14 -24 25 -46 25 -50 0 -4 -247 -8 -550 -8 -302 0 -550 3 -550 7 0 12 118 133 170 175 25 21 43 37 39 38 -3 0 -34 -24 -70 -53z" transform="translate(619,-619) scale(1,1)" stroke="none" fill="#696959"/>
<path d="M533 360 c-63 -13 -180 -71 -253 -126 -64 -48 -200 -182 -200 -197 0 -4 248 -7 550 -7 303 0 550 4 550 8 0 16 -61 112 -80 125 -11 7 -17 17 -13 20 3 4 1 7 -5 7 -6 0 -25 15 -42 33 -36 40 -182 112 -267 132 -63 16 -174 18 -240 5z" transform="translate(619,-619) scale(1,1)" stroke="none" fill="#A49E98"/>
</g>
<g id="pattern4" transform="matrix(1.618,0,0,1.618,1619,1619)matrix(0.87,0.5,-0.5,0.87,0,0)">
<path d="M550 370 c-14 -4 16 -5 65 -3 50 3 95 6 100 8 21 7 -141 3 -165 -5z" transform="translate(619,-619) scale(1,1)" stroke="none" fill="#696959"/>
<path d="M871 326 c10 -9 129 -66 129 -61 0 5 -116 65 -126 65 -4 0 -5 -2 -3 -4z" transform="translate(619,-619) scale(1,1)" stroke="none" fill="#696959"/>
<path d="M219 197 c-58 -49 -159 -157 -159 -171 0 -11 1118 -7 1125 4 6 10 -29 85 -44 95 -6 3 1 -14 14 -37 14 -24 25 -46 25 -50 0 -4 -247 -8 -550 -8 -302 0 -550 3 -550 7 0 12 118 133 170 175 25 21 43 37 39 38 -3 0 -34 -24 -70 -53z" transform="translate(619,-619) scale(1,1)" stroke="none" fill="#696959"/>
<path d="M533 360 c-63 -13 -180 -71 -253 -126 -64 -48 -200 -182 -200 -197 0 -4 248 -7 550 -7 303 0 550 4 550 8 0 16 -61 112 -80 125 -11 7 -17 17 -13 20 3 4 1 7 -5 7 -6 0 -25 15 -42 33 -36 40 -182 112 -267 132 -63 16 -174 18 -240 5z" transform="translate(619,-619) scale(1,1)" stroke="none" fill="#A49E98"/>
</g>
</g>
</g>

<g id="1" transform="translate(1419.0,0)scale(0.25,0.25)">

<g id="pattern">
<rect width="6149" height="6149" fill="#C0CCC8"/>
<g id="pattern1" transform="matrix(1,0,0,1,383,383)">
<path d="M550 370 c-14 -4 16 -5 65 -3 50 3 95 6 100 8 21 7 -141 3 -165 -5z" transform="translate(0.000000,0.000000) scale(1,1)" stroke="none" fill="#696959"/>
<path d="M871 326 c10 -9 129 -66 129 -61 0 5 -116 65 -126 65 -4 0 -5 -2 -3 -4z" transform="translate(0.000000,0.000000) scale(1,1)" stroke="none" fill="#696959"/>
<path d="M219 197 c-58 -49 -159 -157 -159 -171 0 -11 1118 -7 1125 4 6 10 -29 85 -44 95 -6 3 1 -14 14 -37 14 -24 25 -46 25 -50 0 -4 -247 -8 -550 -8 -302 0 -550 3 -550 7 0 12 118 133 170 175 25 21 43 37 39 38 -3 0 -34 -24 -70 -53z" transform="translate(0.000000,0.000000) scale(1,1)" stroke="none" fill="#696959"/>
<path d="M533 360 c-63 -13 -180 -71 -253 -126 -64 -48 -200 -182 -200 -197 0 -4 248 -7 550 -7 303 0 550 4 550 8 0 16 -61 112 -80 125 -11 7 -17 17 -13 20 3 4 1 7 -5 7 -6 0 -25 15 -42 33 -36 40 -182 112 -267 132 -63 16 -174 18 -240 5z" transform="translate(0.000000,0.000000) scale(1,1)" stroke="none" fill="#A49E98"/>
</g>
<g id="pattern2" transform="matrix(0.618,0,0,0.618,2913,856)">
<path d="M550 370 c-14 -4 16 -5 65 -3 50 3 95 6 100 8 21 7 -141 3 -165 -5z" transform="translate(3859,0.000000) scale(-1,1)" stroke="none" fill="#696959"/>
<path d="M871 326 c10 -9 129 -66 129 -61 0 5 -116 65 -126 65 -4 0 -5 -2 -3 -4z" transform="translate(3859,0.000000) scale(-1,1)" stroke="none" fill="#696959"/>
<path d="M219 197 c-58 -49 -159 -157 -159 -171 0 -11 1118 -7 1125 4 6 10 -29 85 -44 95 -6 3 1 -14 14 -37 14 -24 25 -46 25 -50 0 -4 -247 -8 -550 -8 -302 0 -550 3 -550 7 0 12 118 133 170 175 25 21 43 37 39 38 -3 0 -34 -24 -70 -53z" transform="translate(3859,0.000000) scale(-1,1)" stroke="none" fill="#696959"/>
<path d="M533 360 c-63 -13 -180 -71 -253 -126 -64 -48 -200 -182 -200 -197 0 -4 248 -7 550 -7 303 0 550 4 550 8 0 16 -61 112 -80 125 -11 7 -17 17 -13 20 3 4 1 7 -5 7 -6 0 -25 15 -42 33 -36 40 -182 112 -267 132 -63 16 -174 18 -240 5z" transform="translate(3859,0.000000) scale(-1,1)" stroke="none" fill="#A49E98"/>
</g>
<g id="pattern3" transform="matrix(0.618,0,0,0.618,1092,3859)matrix(0.71,0.71,-0.71,0.71,0,0)">
<path d="M550 370 c-14 -4 16 -5 65 -3 50 3 95 6 100 8 21 7 -141 3 -165 -5z" transform="translate(619,-619) scale(1,1)" stroke="none" fill="#696959"/>
<path d="M871 326 c10 -9 129 -66 129 -61 0 5 -116 65 -126 65 -4 0 -5 -2 -3 -4z" transform="translate(619,-619) scale(1,1)" stroke="none" fill="#696959"/>
<path d="M219 197 c-58 -49 -159 -157 -159 -171 0 -11 1118 -7 1125 4 6 10 -29 85 -44 95 -6 3 1 -14 14 -37 14 -24 25 -46 25 -50 0 -4 -247 -8 -550 -8 -302 0 -550 3 -550 7 0 12 118 133 170 175 25 21 43 37 39 38 -3 0 -34 -24 -70 -53z" transform="translate(619,-619) scale(1,1)" stroke="none" fill="#696959"/>
<path d="M533 360 c-63 -13 -180 -71 -253 -126 -64 -48 -200 -182 -200 -197 0 -4 248 -7 550 -7 303 0 550 4 550 8 0 16 -61 112 -80 125 -11 7 -17 17 -13 20 3 4 1 7 -5 7 -6 0 -25 15 -42 33 -36 40 -182 112 -267 132 -63 16 -174 18 -240 5z" transform="translate(619,-619) scale(1,1)" stroke="none" fill="#A49E98"/>
</g>
<g id="pattern4" transform="matrix(1.618,0,0,1.618,1619,1619)matrix(0.87,0.5,-0.5,0.87,0,0)">
<path d="M550 370 c-14 -4 16 -5 65 -3 50 3 95 6 100 8 21 7 -141 3 -165 -5z" transform="translate(619,-619) scale(1,1)" stroke="none" fill="#696959"/>
<path d="M871 326 c10 -9 129 -66 129 -61 0 5 -116 65 -126 65 -4 0 -5 -2 -3 -4z" transform="translate(619,-619) scale(1,1)" stroke="none" fill="#696959"/>
<path d="M219 197 c-58 -49 -159 -157 -159 -171 0 -11 1118 -7 1125 4 6 10 -29 85 -44 95 -6 3 1 -14 14 -37 14 -24 25 -46 25 -50 0 -4 -247 -8 -550 -8 -302 0 -550 3 -550 7 0 12 118 133 170 175 25 21 43 37 39 38 -3 0 -34 -24 -70 -53z" transform="translate(619,-619) scale(1,1)" stroke="none" fill="#696959"/>
<path d="M533 360 c-63 -13 -180 -71 -253 -126 -64 -48 -200 -182 -200 -197 0 -4 248 -7 550 -7 303 0 550 4 550 8 0 16 -61 112 -80 125 -11 7 -17 17 -13 20 3 4 1 7 -5 7 -6 0 -25 15 -42 33 -36 40 -182 112 -267 132 -63 16 -174 18 -240 5z" transform="translate(619,-619) scale(1,1)" stroke="none" fill="#A49E98"/>
</g>
</g>
</g>

<g id="2" transform="translate(2838.0,0)scale(0.25,0.25)">

<g id="pattern">
<rect width="6149" height="6149" fill="#C0CCC8"/>
<g id="pattern1" transform="matrix(1,0,0,1,383,383)">
<path d="M550 370 c-14 -4 16 -5 65 -3 50 3 95 6 100 8 21 7 -141 3 -165 -5z" transform="translate(0.000000,0.000000) scale(1,1)" stroke="none" fill="#696959"/>
<path d="M871 326 c10 -9 129 -66 129 -61 0 5 -116 65 -126 65 -4 0 -5 -2 -3 -4z" transform="translate(0.000000,0.000000) scale(1,1)" stroke="none" fill="#696959"/>
<path d="M219 197 c-58 -49 -159 -157 -159 -171 0 -11 1118 -7 1125 4 6 10 -29 85 -44 95 -6 3 1 -14 14 -37 14 -24 25 -46 25 -50 0 -4 -247 -8 -550 -8 -302 0 -550 3 -550 7 0 12 118 133 170 175 25 21 43 37 39 38 -3 0 -34 -24 -70 -53z" transform="translate(0.000000,0.000000) scale(1,1)" stroke="none" fill="#696959"/>
<path d="M533 360 c-63 -13 -180 -71 -253 -126 -64 -48 -200 -182 -200 -197 0 -4 248 -7 550 -7 303 0 550 4 550 8 0 16 -61 112 -80 125 -11 7 -17 17 -13 20 3 4 1 7 -5 7 -6 0 -25 15 -42 33 -36 40 -182 112 -267 132 -63 16 -174 18 -240 5z" transform="translate(0.000000,0.000000) scale(1,1)" stroke="none" fill="#A49E98"/>
</g>
<g id="pattern2" transform="matrix(0.618,0,0,0.618,2913,856)">
<path d="M550 370 c-14 -4 16 -5 65 -3 50 3 95 6 100 8 21 7 -141 3 -165 -5z" transform="translate(3859,0.000000) scale(-1,1)" stroke="none" fill="#696959"/>
<path d="M871 326 c10 -9 129 -66 129 -61 0 5 -116 65 -126 65 -4 0 -5 -2 -3 -4z" transform="translate(3859,0.000000) scale(-1,1)" stroke="none" fill="#696959"/>
<path d="M219 197 c-58 -49 -159 -157 -159 -171 0 -11 1118 -7 1125 4 6 10 -29 85 -44 95 -6 3 1 -14 14 -37 14 -24 25 -46 25 -50 0 -4 -247 -8 -550 -8 -302 0 -550 3 -550 7 0 12 118 133 170 175 25 21 43 37 39 38 -3 0 -34 -24 -70 -53z" transform="translate(3859,0.000000) scale(-1,1)" stroke="none" fill="#696959"/>
<path d="M533 360 c-63 -13 -180 -71 -253 -126 -64 -48 -200 -182 -200 -197 0 -4 248 -7 550 -7 303 0 550 4 550 8 0 16 -61 112 -80 125 -11 7 -17 17 -13 20 3 4 1 7 -5 7 -6 0 -25 15 -42 33 -36 40 -182 112 -267 132 -63 16 -174 18 -240 5z" transform="translate(3859,0.000000) scale(-1,1)" stroke="none" fill="#A49E98"/>
</g>
<g id="pattern3" transform="matrix(0.618,0,0,0.618,1092,3859)matrix(0.71,0.71,-0.71,0.71,0,0)">
<path d="M550 370 c-14 -4 16 -5 65 -3 50 3 95 6 100 8 21 7 -141 3 -165 -5z" transform="translate(619,-619) scale(1,1)" stroke="none" fill="#696959"/>
<path d="M871 326 c10 -9 129 -66 129 -61 0 5 -116 65 -126 65 -4 0 -5 -2 -3 -4z" transform="translate(619,-619) scale(1,1)" stroke="none" fill="#696959"/>
<path d="M219 197 c-58 -49 -159 -157 -159 -171 0 -11 1118 -7 1125 4 6 10 -29 85 -44 95 -6 3 1 -14 14 -37 14 -24 25 -46 25 -50 0 -4 -247 -8 -550 -8 -302 0 -550 3 -550 7 0 12 118 133 170 175 25 21 43 37 39 38 -3 0 -34 -24 -70 -53z" transform="translate(619,-619) scale(1,1)" stroke="none" fill="#696959"/>
<path d="M533 360 c-63 -13 -180 -71 -253 -126 -64 -48 -200 -182 -200 -197 0 -4 248 -7 550 -7 303 0 550 4 550 8 0 16 -61 112 -80 125 -11 7 -17 17 -13 20 3 4 1 7 -5 7 -6 0 -25 15 -42 33 -36 40 -182 112 -267 132 -63 16 -174 18 -240 5z" transform="translate(619,-619) scale(1,1)" stroke="none" fill="#A49E98"/>
</g>
<g id="pattern4" transform="matrix(1.618,0,0,1.618,1619,1619)matrix(0.87,0.5,-0.5,0.87,0,0)">
<path d="M550 370 c-14 -4 16 -5 65 -3 50 3 95 6 100 8 21 7 -141 3 -165 -5z" transform="translate(619,-619) scale(1,1)" stroke="none" fill="#696959"/>
<path d="M871 326 c10 -9 129 -66 129 -61 0 5 -116 65 -126 65 -4 0 -5 -2 -3 -4z" transform="translate(619,-619) scale(1,1)" stroke="none" fill="#696959"/>
<path d="M219 197 c-58 -49 -159 -157 -159 -171 0 -11 1118 -7 1125 4 6 10 -29 85 -44 95 -6 3 1 -14 14 -37 14 -24 25 -46 25 -50 0 -4 -247 -8 -550 -8 -302 0 -550 3 -550 7 0 12 118 133 170 175 25 21 43 37 39 38 -3 0 -34 -24 -70 -53z" transform="translate(619,-619) scale(1,1)" stroke="none" fill="#696959"/>
<path d="M533 360 c-63 -13 -180 -71 -253 -126 -64 -48 -200 -182 -200 -197 0 -4 248 -7 550 -7 303 0 550 4 550 8 0 16 -61 112 -80 125 -11 7 -17 17 -13 20 3 4 1 7 -5 7 -6 0 -25 15 -42 33 -36 40 -182 112 -267 132 -63 16 -174 18 -240 5z" transform="translate(619,-619) scale(1,1)" stroke="none" fill="#A49E98"/>
</g>
</g>
</g>

<g id="3" transform="translate(4257.0,0)scale(0.25,0.25)">

<g id="pattern">
<rect width="6149" height="6149" fill="#C0CCC8"/>
<g id="pattern1" transform="matrix(1,0,0,1,383,383)">
<path d="M550 370 c-14 -4 16 -5 65 -3 50 3 95 6 100 8 21 7 -141 3 -165 -5z" transform="translate(0.000000,0.000000) scale(1,1)" stroke="none" fill="#696959"/>
<path d="M871 326 c10 -9 129 -66 129 -61 0 5 -116 65 -126 65 -4 0 -5 -2 -3 -4z" transform="translate(0.000000,0.000000) scale(1,1)" stroke="none" fill="#696959"/>
<path d="M219 197 c-58 -49 -159 -157 -159 -171 0 -11 1118 -7 1125 4 6 10 -29 85 -44 95 -6 3 1 -14 14 -37 14 -24 25 -46 25 -50 0 -4 -247 -8 -550 -8 -302 0 -550 3 -550 7 0 12 118 133 170 175 25 21 43 37 39 38 -3 0 -34 -24 -70 -53z" transform="translate(0.000000,0.000000) scale(1,1)" stroke="none" fill="#696959"/>
<path d="M533 360 c-63 -13 -180 -71 -253 -126 -64 -48 -200 -182 -200 -197 0 -4 248 -7 550 -7 303 0 550 4 550 8 0 16 -61 112 -80 125 -11 7 -17 17 -13 20 3 4 1 7 -5 7 -6 0 -25 15 -42 33 -36 40 -182 112 -267 132 -63 16 -174 18 -240 5z" transform="translate(0.000000,0.000000) scale(1,1)" stroke="none" fill="#A49E98"/>
</g>
<g id="pattern2" transform="matrix(0.618,0,0,0.618,2913,856)">
<path d="M550 370 c-14 -4 16 -5 65 -3 50 3 95 6 100 8 21 7 -141 3 -165 -5z" transform="translate(3859,0.000000) scale(-1,1)" stroke="none" fill="#696959"/>
<path d="M871 326 c10 -9 129 -66 129 -61 0 5 -116 65 -126 65 -4 0 -5 -2 -3 -4z" transform="translate(3859,0.000000) scale(-1,1)" stroke="none" fill="#696959"/>
<path d="M219 197 c-58 -49 -159 -157 -159 -171 0 -11 1118 -7 1125 4 6 10 -29 85 -44 95 -6 3 1 -14 14 -37 14 -24 25 -46 25 -50 0 -4 -247 -8 -550 -8 -302 0 -550 3 -550 7 0 12 118 133 170 175 25 21 43 37 39 38 -3 0 -34 -24 -70 -53z" transform="translate(3859,0.000000) scale(-1,1)" stroke="none" fill="#696959"/>
<path d="M533 360 c-63 -13 -180 -71 -253 -126 -64 -48 -200 -182 -200 -197 0 -4 248 -7 550 -7 303 0 550 4 550 8 0 16 -61 112 -80 125 -11 7 -17 17 -13 20 3 4 1 7 -5 7 -6 0 -25 15 -42 33 -36 40 -182 112 -267 132 -63 16 -174 18 -240 5z" transform="translate(3859,0.000000) scale(-1,1)" stroke="none" fill="#A49E98"/>
</g>
<g id="pattern3" transform="matrix(0.618,0,0,0.618,1092,3859)matrix(0.71,0.71,-0.71,0.71,0,0)">
<path d="M550 370 c-14 -4 16 -5 65 -3 50 3 95 6 100 8 21 7 -141 3 -165 -5z" transform="translate(619,-619) scale(1,1)" stroke="none" fill="#696959"/>
<path d="M871 326 c10 -9 129 -66 129 -61 0 5 -116 65 -126 65 -4 0 -5 -2 -3 -4z" transform="translate(619,-619) scale(1,1)" stroke="none" fill="#696959"/>
<path d="M219 197 c-58 -49 -159 -157 -159 -171 0 -11 1118 -7 1125 4 6 10 -29 85 -44 95 -6 3 1 -14 14 -37 14 -24 25 -46 25 -50 0 -4 -247 -8 -550 -8 -302 0 -550 3 -550 7 0 12 118 133 170 175 25 21 43 37 39 38 -3 0 -34 -24 -70 -53z" transform="translate(619,-619) scale(1,1)" stroke="none" fill="#696959"/>
<path d="M533 360 c-63 -13 -180 -71 -253 -126 -64 -48 -200 -182 -200 -197 0 -4 248 -7 550 -7 303 0 550 4 550 8 0 16 -61 112 -80 125 -11 7 -17 17 -13 20 3 4 1 7 -5 7 -6 0 -25 15 -42 33 -36 40 -182 112 -267 132 -63 16 -174 18 -240 5z" transform="translate(619,-619) scale(1,1)" stroke="none" fill="#A49E98"/>
</g>
<g id="pattern4" transform="matrix(1.618,0,0,1.618,1619,1619)matrix(0.87,0.5,-0.5,0.87,0,0)">
<path d="M550 370 c-14 -4 16 -5 65 -3 50 3 95 6 100 8 21 7 -141 3 -165 -5z" transform="translate(619,-619) scale(1,1)" stroke="none" fill="#696959"/>
<path d="M871 326 c10 -9 129 -66 129 -61 0 5 -116 65 -126 65 -4 0 -5 -2 -3 -4z" transform="translate(619,-619) scale(1,1)" stroke="none" fill="#696959"/>
<path d="M219 197 c-58 -49 -159 -157 -159 -171 0 -11 1118 -7 1125 4 6 10 -29 85 -44 95 -6 3 1 -14 14 -37 14 -24 25 -46 25 -50 0 -4 -247 -8 -550 -8 -302 0 -550 3 -550 7 0 12 118 133 170 175 25 21 43 37 39 38 -3 0 -34 -24 -70 -53z" transform="translate(619,-619) scale(1,1)" stroke="none" fill="#696959"/>
<path d="M533 360 c-63 -13 -180 -71 -253 -126 -64 -48 -200 -182 -200 -197 0 -4 248 -7 550 -7 303 0 550 4 550 8 0 16 -61 112 -80 125 -11 7 -17 17 -13 20 3 4 1 7 -5 7 -6 0 -25 15 -42 33 -36 40 -182 112 -267 132 -63 16 -174 18 -240 5z" transform="translate(619,-619) scale(1,1)" stroke="none" fill="#A49E98"/>
</g>
</g>
</g>

<g id="4" transform="translate(5676.0,0)scale(0.25,0.25)">

<g id="pattern">
<rect width="6149" height="6149" fill="#C0CCC8"/>
<g id="pattern1" transform="matrix(1,0,0,1,383,383)">
<path d="M550 370 c-14 -4 16 -5 65 -3 50 3 95 6 100 8 21 7 -141 3 -165 -5z" transform="translate(0.000000,0.000000) scale(1,1)" stroke="none" fill="#696959"/>
<path d="M871 326 c10 -9 129 -66 129 -61 0 5 -116 65 -126 65 -4 0 -5 -2 -3 -4z" transform="translate(0.000000,0.000000) scale(1,1)" stroke="none" fill="#696959"/>
<path d="M219 197 c-58 -49 -159 -157 -159 -171 0 -11 1118 -7 1125 4 6 10 -29 85 -44 95 -6 3 1 -14 14 -37 14 -24 25 -46 25 -50 0 -4 -247 -8 -550 -8 -302 0 -550 3 -550 7 0 12 118 133 170 175 25 21 43 37 39 38 -3 0 -34 -24 -70 -53z" transform="translate(0.000000,0.000000) scale(1,1)" stroke="none" fill="#696959"/>
<path d="M533 360 c-63 -13 -180 -71 -253 -126 -64 -48 -200 -182 -200 -197 0 -4 248 -7 550 -7 303 0 550 4 550 8 0 16 -61 112 -80 125 -11 7 -17 17 -13 20 3 4 1 7 -5 7 -6 0 -25 15 -42 33 -36 40 -182 112 -267 132 -63 16 -174 18 -240 5z" transform="translate(0.000000,0.000000) scale(1,1)" stroke="none" fill="#A49E98"/>
</g>
<g id="pattern2" transform="matrix(0.618,0,0,0.618,2913,856)">
<path d="M550 370 c-14 -4 16 -5 65 -3 50 3 95 6 100 8 21 7 -141 3 -165 -5z" transform="translate(3859,0.000000) scale(-1,1)" stroke="none" fill="#696959"/>
<path d="M871 326 c10 -9 129 -66 129 -61 0 5 -116 65 -126 65 -4 0 -5 -2 -3 -4z" transform="translate(3859,0.000000) scale(-1,1)" stroke="none" fill="#696959"/>
<path d="M219 197 c-58 -49 -159 -157 -159 -171 0 -11 1118 -7 1125 4 6 10 -29 85 -44 95 -6 3 1 -14 14 -37 14 -24 25 -46 25 -50 0 -4 -247 -8 -550 -8 -302 0 -550 3 -550 7 0 12 118 133 170 175 25 21 43 37 39 38 -3 0 -34 -24 -70 -53z" transform="translate(3859,0.000000) scale(-1,1)" stroke="none" fill="#696959"/>
<path d="M533 360 c-63 -13 -180 -71 -253 -126 -64 -48 -200 -182 -200 -197 0 -4 248 -7 550 -7 303 0 550 4 550 8 0 16 -61 112 -80 125 -11 7 -17 17 -13 20 3 4 1 7 -5 7 -6 0 -25 15 -42 33 -36 40 -182 112 -267 132 -63 16 -174 18 -240 5z" transform="translate(3859,0.000000) scale(-1,1)" stroke="none" fill="#A49E98"/>
</g>
<g id="pattern3" transform="matrix(0.618,0,0,0.618,1092,3859)matrix(0.71,0.71,-0.71,0.71,0,0)">
<path d="M550 370 c-14 -4 16 -5 65 -3 50 3 95 6 100 8 21 7 -141 3 -165 -5z" transform="translate(619,-619) scale(1,1)" stroke="none" fill="#696959"/>
<path d="M871 326 c10 -9 129 -66 129 -61 0 5 -116 65 -126 65 -4 0 -5 -2 -3 -4z" transform="translate(619,-619) scale(1,1)" stroke="none" fill="#696959"/>
<path d="M219 197 c-58 -49 -159 -157 -159 -171 0 -11 1118 -7 1125 4 6 10 -29 85 -44 95 -6 3 1 -14 14 -37 14 -24 25 -46 25 -50 0 -4 -247 -8 -550 -8 -302 0 -550 3 -550 7 0 12 118 133 170 175 25 21 43 37 39 38 -3 0 -34 -24 -70 -53z" transform="translate(619,-619) scale(1,1)" stroke="none" fill="#696959"/>
<path d="M533 360 c-63 -13 -180 -71 -253 -126 -64 -48 -200 -182 -200 -197 0 -4 248 -7 550 -7 303 0 550 4 550 8 0 16 -61 112 -80 125 -11 7 -17 17 -13 20 3 4 1 7 -5 7 -6 0 -25 15 -42 33 -36 40 -182 112 -267 132 -63 16 -174 18 -240 5z" transform="translate(619,-619) scale(1,1)" stroke="none" fill="#A49E98"/>
</g>
<g id="pattern4" transform="matrix(1.618,0,0,1.618,1619,1619)matrix(0.87,0.5,-0.5,0.87,0,0)">
<path d="M550 370 c-14 -4 16 -5 65 -3 50 3 95 6 100 8 21 7 -141 3 -165 -5z" transform="translate(619,-619) scale(1,1)" stroke="none" fill="#696959"/>
<path d="M871 326 c10 -9 129 -66 129 -61 0 5 -116 65 -126 65 -4 0 -5 -2 -3 -4z" transform="translate(619,-619) scale(1,1)" stroke="none" fill="#696959"/>
<path d="M219 197 c-58 -49 -159 -157 -159 -171 0 -11 1118 -7 1125 4 6 10 -29 85 -44 95 -6 3 1 -14 14 -37 14 -24 25 -46 25 -50 0 -4 -247 -8 -550 -8 -302 0 -550 3 -550 7 0 12 118 133 170 175 25 21 43 37 39 38 -3 0 -34 -24 -70 -53z" transform="translate(619,-619) scale(1,1)" stroke="none" fill="#696959"/>
<path d="M533 360 c-63 -13 -180 -71 -253 -126 -64 -48 -200 -182 -200 -197 0 -4 248 -7 550 -7 303 0 550 4 550 8 0 16 -61 112 -80 125 -11 7 -17 17 -13 20 3 4 1 7 -5 7 -6 0 -25 15 -42 33 -36 40 -182 112 -267 132 -63 16 -174 18 -240 5z" transform="translate(619,-619) scale(1,1)" stroke="none" fill="#A49E98"/>
</g>
</g>
</g>

</g>
</svg>