<?xml version="1.0" standalone="no"?>
<!DOCTYPE svg PUBLIC "-//W3C//DTD SVG 20010904//EN"
 "http://www.w3.org/TR/2001/REC-SVG-20010904/DTD/svg10.dtd">
<svg version="1.0" xmlns="http://www.w3.org/2000/svg" width="488pt" height="268pt" viewBox="0 0 488 268" preserveAspectRatio = "xMidYMid meet" >
<metadata>
Created by ZoeQu, written in 2022
</metadata>
<rect width="488" height="268" fill="#ACC2DF"/>
<g id="col0" transform="translate(0, 8)">
<g id="0" transform="translate(0,0.0)scale(0.8,0.8)">

<path d="M623 51 c-18 -15 -33 -31 -33 -34 0 -12 26 -8 46 8 19 15 19 15 -1 9 -16 -5 -14 -1 8 20 38 35 21 33 -20 -3z" transform="translate(0,67) scale(0.1,-0.1)" stroke="none" fill="#D1B1DB"/>

<path d="M632 251 c-11 -6 -6 -14 17 -30 17 -12 31 -19 31 -15 0 5 5 3 12 -4 7 -7 16 -12 21 -12 5 0 -3 10 -19 22 -16 13 -33 28 -39 35 -6 8 -15 9 -23 4z" transform="translate(0,67) scale(0.1,-0.1)" stroke="none" fill="#D1B1DB"/>

<path d="M538 208 c-24 -24 -30 -31 -13 -15 36 32 45 34 45 10 0 -15 2 -15 9 -4 5 8 16 11 26 8 9 -4 14 -3 10 3 -3 6 -13 10 -21 10 -8 0 -14 5 -14 11 0 6 9 9 20 6 11 -3 18 -1 14 4 -11 18 -33 8 -76 -33z" transform="translate(0,67) scale(0.1,-0.1)" stroke="none" fill="#2964D4"/>

<path d="M388 520 c-43 -27 -78 -52 -78 -55 0 -3 6 -2 13 2 120 76 159 104 145 103 -2 0 -38 -23 -80 -50z" transform="translate(0,67) scale(0.1,-0.1)" stroke="none" fill="#D1B1DB"/>

<path d="M880 220 c-6 -11 -23 -26 -38 -34 -15 -9 -21 -15 -14 -16 7 0 10 -5 6 -11 -8 -14 42 15 77 43 l24 20 -27 -16 c-37 -22 -41 -20 -22 9 9 14 14 25 11 25 -4 0 -11 -9 -17 -20z m-15 -40 c-3 -5 -12 -10 -18 -10 -7 0 -6 4 3 10 19 12 23 12 15 0z" transform="translate(0,67) scale(0.1,-0.1)" stroke="none" fill="#D1B1DB"/>

<path d="M477 153 c-4 -3 -7 -17 -7 -30 0 -17 -4 -22 -12 -17 -24 14 -2 -5 35 -30 21 -14 43 -26 50 -25 7 0 3 4 -8 9 -14 6 -15 9 -5 10 8 0 0 7 -19 15 -29 13 -33 19 -29 45 5 32 5 33 -5 23z" transform="translate(0,67) scale(0.1,-0.1)" stroke="none" fill="#548BDB"/>

<path d="M539 307 c21 -24 23 -29 11 -56 -7 -17 -16 -29 -20 -28 -4 1 -9 -2 -10 -8 -1 -5 -9 -19 -18 -30 -9 -10 4 -1 29 20 26 22 44 42 40 45 -3 3 -6 16 -6 29 0 14 -10 30 -25 39 l-25 16 24 -27z" transform="translate(0,67) scale(0.1,-0.1)" stroke="none" fill="#548BDB"/>

<path d="M240 245 c0 -7 133 -85 138 -81 8 9 -19 36 -52 53 -30 16 -86 34 -86 28z" transform="translate(0,67) scale(0.1,-0.1)" stroke="none" fill="#D1B1DB"/>

<path d="M455 174 c-12 -9 -30 -12 -47 -8 -16 3 -28 2 -28 -3 0 -8 71 -47 74 -41 1 2 10 15 19 30 26 42 19 50 -18 22z" transform="translate(0,67) scale(0.1,-0.1)" stroke="none" fill="#7DADDE"/>

<path d="M948 301 c3 -33 0 -41 -19 -52 -13 -6 -38 -28 -56 -47 -30 -32 -36 -34 -81 -30 -27 3 -63 12 -80 21 -31 15 -46 7 -19 -10 28 -17 36 -46 21 -75 -8 -15 -21 -28 -29 -28 -8 0 -29 -14 -47 -30 l-33 -31 38 18 c20 9 37 20 37 24 0 4 8 9 18 12 9 4 81 48 159 99 78 51 150 98 160 104 16 10 13 14 -25 37 -23 15 -43 27 -45 27 -1 0 -1 -18 1 -39z" transform="translate(0,67) scale(0.1,-0.1)" stroke="none" fill="#7DADDE"/>

<path d="M535 510 c-33 -21 -100 -64 -150 -96 -164 -104 -195 -124 -195 -128 0 -3 15 -14 34 -25 35 -22 61 -28 51 -11 -12 20 6 49 43 68 20 10 52 27 70 37 31 16 37 16 80 2 26 -9 48 -15 49 -13 2 1 -3 16 -9 33 -16 43 0 75 51 102 54 27 61 27 122 -11 49 -29 51 -33 46 -65 -5 -30 -4 -34 11 -28 59 24 74 24 124 -1 28 -14 52 -24 54 -21 4 3 -65 52 -146 102 -19 12 -61 38 -92 58 -31 21 -62 37 -70 36 -7 0 -40 -18 -73 -39z" transform="translate(0,67) scale(0.1,-0.1)" stroke="none" fill="#7DADDE"/>

<path d="M550 640 c-25 -16 -64 -43 -88 -60 -24 -17 -55 -37 -70 -43 -27 -12 -322 -207 -371 -246 l-25 -19 48 -29 c75 -44 176 -108 236 -151 83 -58 146 -92 172 -92 17 0 8 10 -39 38 -34 20 -110 68 -170 106 -59 38 -128 82 -151 97 -24 15 -49 30 -55 32 -21 7 5 27 143 114 77 48 190 121 252 160 62 40 128 80 146 89 38 19 42 18 157 -57 38 -25 86 -54 105 -65 19 -10 37 -22 40 -25 5 -6 38 -27 218 -140 45 -29 82 -57 82 -63 0 -6 -71 -56 -158 -110 -294 -185 -281 -176 -248 -176 16 0 48 14 75 33 25 19 73 49 106 67 101 55 265 164 265 177 0 9 -92 77 -201 148 -17 11 -60 39 -96 63 -36 24 -71 46 -79 49 -7 2 -57 33 -111 69 -54 35 -107 64 -118 64 -11 0 -40 -14 -65 -30z" transform="translate(0,67) scale(0.1,-0.1)" stroke="none" fill="#7DADDE"/>

</g>

<g id="1" transform="translate(0,67.0)scale(0.8,0.8)">

<path d="M623 51 c-18 -15 -33 -31 -33 -34 0 -12 26 -8 46 8 19 15 19 15 -1 9 -16 -5 -14 -1 8 20 38 35 21 33 -20 -3z" transform="translate(0,67) scale(0.1,-0.1)" stroke="none" fill="#D1B1DB"/>

<path d="M632 251 c-11 -6 -6 -14 17 -30 17 -12 31 -19 31 -15 0 5 5 3 12 -4 7 -7 16 -12 21 -12 5 0 -3 10 -19 22 -16 13 -33 28 -39 35 -6 8 -15 9 -23 4z" transform="translate(0,67) scale(0.1,-0.1)" stroke="none" fill="#D1B1DB"/>

<path d="M538 208 c-24 -24 -30 -31 -13 -15 36 32 45 34 45 10 0 -15 2 -15 9 -4 5 8 16 11 26 8 9 -4 14 -3 10 3 -3 6 -13 10 -21 10 -8 0 -14 5 -14 11 0 6 9 9 20 6 11 -3 18 -1 14 4 -11 18 -33 8 -76 -33z" transform="translate(0,67) scale(0.1,-0.1)" stroke="none" fill="#2964D4"/>

<path d="M388 520 c-43 -27 -78 -52 -78 -55 0 -3 6 -2 13 2 120 76 159 104 145 103 -2 0 -38 -23 -80 -50z" transform="translate(0,67) scale(0.1,-0.1)" stroke="none" fill="#D1B1DB"/>

<path d="M880 220 c-6 -11 -23 -26 -38 -34 -15 -9 -21 -15 -14 -16 7 0 10 -5 6 -11 -8 -14 42 15 77 43 l24 20 -27 -16 c-37 -22 -41 -20 -22 9 9 14 14 25 11 25 -4 0 -11 -9 -17 -20z m-15 -40 c-3 -5 -12 -10 -18 -10 -7 0 -6 4 3 10 19 12 23 12 15 0z" transform="translate(0,67) scale(0.1,-0.1)" stroke="none" fill="#D1B1DB"/>

<path d="M477 153 c-4 -3 -7 -17 -7 -30 0 -17 -4 -22 -12 -17 -24 14 -2 -5 35 -30 21 -14 43 -26 50 -25 7 0 3 4 -8 9 -14 6 -15 9 -5 10 8 0 0 7 -19 15 -29 13 -33 19 -29 45 5 32 5 33 -5 23z" transform="translate(0,67) scale(0.1,-0.1)" stroke="none" fill="#548BDB"/>

<path d="M539 307 c21 -24 23 -29 11 -56 -7 -17 -16 -29 -20 -28 -4 1 -9 -2 -10 -8 -1 -5 -9 -19 -18 -30 -9 -10 4 -1 29 20 26 22 44 42 40 45 -3 3 -6 16 -6 29 0 14 -10 30 -25 39 l-25 16 24 -27z" transform="translate(0,67) scale(0.1,-0.1)" stroke="none" fill="#548BDB"/>

<path d="M240 245 c0 -7 133 -85 138 -81 8 9 -19 36 -52 53 -30 16 -86 34 -86 28z" transform="translate(0,67) scale(0.1,-0.1)" stroke="none" fill="#D1B1DB"/>

<path d="M455 174 c-12 -9 -30 -12 -47 -8 -16 3 -28 2 -28 -3 0 -8 71 -47 74 -41 1 2 10 15 19 30 26 42 19 50 -18 22z" transform="translate(0,67) scale(0.1,-0.1)" stroke="none" fill="#7DADDE"/>

<path d="M948 301 c3 -33 0 -41 -19 -52 -13 -6 -38 -28 -56 -47 -30 -32 -36 -34 -81 -30 -27 3 -63 12 -80 21 -31 15 -46 7 -19 -10 28 -17 36 -46 21 -75 -8 -15 -21 -28 -29 -28 -8 0 -29 -14 -47 -30 l-33 -31 38 18 c20 9 37 20 37 24 0 4 8 9 18 12 9 4 81 48 159 99 78 51 150 98 160 104 16 10 13 14 -25 37 -23 15 -43 27 -45 27 -1 0 -1 -18 1 -39z" transform="translate(0,67) scale(0.1,-0.1)" stroke="none" fill="#7DADDE"/>

<path d="M535 510 c-33 -21 -100 -64 -150 -96 -164 -104 -195 -124 -195 -128 0 -3 15 -14 34 -25 35 -22 61 -28 51 -11 -12 20 6 49 43 68 20 10 52 27 70 37 31 16 37 16 80 2 26 -9 48 -15 49 -13 2 1 -3 16 -9 33 -16 43 0 75 51 102 54 27 61 27 122 -11 49 -29 51 -33 46 -65 -5 -30 -4 -34 11 -28 59 24 74 24 124 -1 28 -14 52 -24 54 -21 4 3 -65 52 -146 102 -19 12 -61 38 -92 58 -31 21 -62 37 -70 36 -7 0 -40 -18 -73 -39z" transform="translate(0,67) scale(0.1,-0.1)" stroke="none" fill="#7DADDE"/>

<path d="M550 640 c-25 -16 -64 -43 -88 -60 -24 -17 -55 -37 -70 -43 -27 -12 -322 -207 -371 -246 l-25 -19 48 -29 c75 -44 176 -108 236 -151 83 -58 146 -92 172 -92 17 0 8 10 -39 38 -34 20 -110 68 -170 106 -59 38 -128 82 -151 97 -24 15 -49 30 -55 32 -21 7 5 27 143 114 77 48 190 121 252 160 62 40 128 80 146 89 38 19 42 18 157 -57 38 -25 86 -54 105 -65 19 -10 37 -22 40 -25 5 -6 38 -27 218 -140 45 -29 82 -57 82 -63 0 -6 -71 -56 -158 -110 -294 -185 -281 -176 -248 -176 16 0 48 14 75 33 25 19 73 49 106 67 101 55 265 164 265 177 0 9 -92 77 -201 148 -17 11 -60 39 -96 63 -36 24 -71 46 -79 49 -7 2 -57 33 -111 69 -54 35 -107 64 -118 64 -11 0 -40 -14 -65 -30z" transform="translate(0,67) scale(0.1,-0.1)" stroke="none" fill="#7DADDE"/>

</g>

<g id="2" transform="translate(0,134.0)scale(0.8,0.8)">

<path d="M623 51 c-18 -15 -33 -31 -33 -34 0 -12 26 -8 46 8 19 15 19 15 -1 9 -16 -5 -14 -1 8 20 38 35 21 33 -20 -3z" transform="translate(0,67) scale(0.1,-0.1)" stroke="none" fill="#D1B1DB"/>

<path d="M632 251 c-11 -6 -6 -14 17 -30 17 -12 31 -19 31 -15 0 5 5 3 12 -4 7 -7 16 -12 21 -12 5 0 -3 10 -19 22 -16 13 -33 28 -39 35 -6 8 -15 9 -23 4z" transform="translate(0,67) scale(0.1,-0.1)" stroke="none" fill="#D1B1DB"/>

<path d="M538 208 c-24 -24 -30 -31 -13 -15 36 32 45 34 45 10 0 -15 2 -15 9 -4 5 8 16 11 26 8 9 -4 14 -3 10 3 -3 6 -13 10 -21 10 -8 0 -14 5 -14 11 0 6 9 9 20 6 11 -3 18 -1 14 4 -11 18 -33 8 -76 -33z" transform="translate(0,67) scale(0.1,-0.1)" stroke="none" fill="#2964D4"/>

<path d="M388 520 c-43 -27 -78 -52 -78 -55 0 -3 6 -2 13 2 120 76 159 104 145 103 -2 0 -38 -23 -80 -50z" transform="translate(0,67) scale(0.1,-0.1)" stroke="none" fill="#D1B1DB"/>

<path d="M880 220 c-6 -11 -23 -26 -38 -34 -15 -9 -21 -15 -14 -16 7 0 10 -5 6 -11 -8 -14 42 15 77 43 l24 20 -27 -16 c-37 -22 -41 -20 -22 9 9 14 14 25 11 25 -4 0 -11 -9 -17 -20z m-15 -40 c-3 -5 -12 -10 -18 -10 -7 0 -6 4 3 10 19 12 23 12 15 0z" transform="translate(0,67) scale(0.1,-0.1)" stroke="none" fill="#D1B1DB"/>

<path d="M477 153 c-4 -3 -7 -17 -7 -30 0 -17 -4 -22 -12 -17 -24 14 -2 -5 35 -30 21 -14 43 -26 50 -25 7 0 3 4 -8 9 -14 6 -15 9 -5 10 8 0 0 7 -19 15 -29 13 -33 19 -29 45 5 32 5 33 -5 23z" transform="translate(0,67) scale(0.1,-0.1)" stroke="none" fill="#548BDB"/>

<path d="M539 307 c21 -24 23 -29 11 -56 -7 -17 -16 -29 -20 -28 -4 1 -9 -2 -10 -8 -1 -5 -9 -19 -18 -30 -9 -10 4 -1 29 20 26 22 44 42 40 45 -3 3 -6 16 -6 29 0 14 -10 30 -25 39 l-25 16 24 -27z" transform="translate(0,67) scale(0.1,-0.1)" stroke="none" fill="#548BDB"/>

<path d="M240 245 c0 -7 133 -85 138 -81 8 9 -19 36 -52 53 -30 16 -86 34 -86 28z" transform="translate(0,67) scale(0.1,-0.1)" stroke="none" fill="#D1B1DB"/>

<path d="M455 174 c-12 -9 -30 -12 -47 -8 -16 3 -28 2 -28 -3 0 -8 71 -47 74 -41 1 2 10 15 19 30 26 42 19 50 -18 22z" transform="translate(0,67) scale(0.1,-0.1)" stroke="none" fill="#7DADDE"/>

<path d="M948 301 c3 -33 0 -41 -19 -52 -13 -6 -38 -28 -56 -47 -30 -32 -36 -34 -81 -30 -27 3 -63 12 -80 21 -31 15 -46 7 -19 -10 28 -17 36 -46 21 -75 -8 -15 -21 -28 -29 -28 -8 0 -29 -14 -47 -30 l-33 -31 38 18 c20 9 37 20 37 24 0 4 8 9 18 12 9 4 81 48 159 99 78 51 150 98 160 104 16 10 13 14 -25 37 -23 15 -43 27 -45 27 -1 0 -1 -18 1 -39z" transform="translate(0,67) scale(0.1,-0.1)" stroke="none" fill="#7DADDE"/>

<path d="M535 510 c-33 -21 -100 -64 -150 -96 -164 -104 -195 -124 -195 -128 0 -3 15 -14 34 -25 35 -22 61 -28 51 -11 -12 20 6 49 43 68 20 10 52 27 70 37 31 16 37 16 80 2 26 -9 48 -15 49 -13 2 1 -3 16 -9 33 -16 43 0 75 51 102 54 27 61 27 122 -11 49 -29 51 -33 46 -65 -5 -30 -4 -34 11 -28 59 24 74 24 124 -1 28 -14 52 -24 54 -21 4 3 -65 52 -146 102 -19 12 -61 38 -92 58 -31 21 -62 37 -70 36 -7 0 -40 -18 -73 -39z" transform="translate(0,67) scale(0.1,-0.1)" stroke="none" fill="#7DADDE"/>

<path d="M550 640 c-25 -16 -64 -43 -88 -60 -24 -17 -55 -37 -70 -43 -27 -12 -322 -207 -371 -246 l-25 -19 48 -29 c75 -44 176 -108 236 -151 83 -58 146 -92 172 -92 17 0 8 10 -39 38 -34 20 -110 68 -170 106 -59 38 -128 82 -151 97 -24 15 -49 30 -55 32 -21 7 5 27 143 114 77 48 190 121 252 160 62 40 128 80 146 89 38 19 42 18 157 -57 38 -25 86 -54 105 -65 19 -10 37 -22 40 -25 5 -6 38 -27 218 -140 45 -29 82 -57 82 -63 0 -6 -71 -56 -158 -110 -294 -185 -281 -176 -248 -176 16 0 48 14 75 33 25 19 73 49 106 67 101 55 265 164 265 177 0 9 -92 77 -201 148 -17 11 -60 39 -96 63 -36 24 -71 46 -79 49 -7 2 -57 33 -111 69 -54 35 -107 64 -118 64 -11 0 -40 -14 -65 -30z" transform="translate(0,67) scale(0.1,-0.1)" stroke="none" fill="#7DADDE"/>

</g>

<g id="3" transform="translate(0,201.0)scale(0.8,0.8)">

<path d="M623 51 c-18 -15 -33 -31 -33 -34 0 -12 26 -8 46 8 19 15 19 15 -1 9 -16 -5 -14 -1 8 20 38 35 21 33 -20 -3z" transform="translate(0,67) scale(0.1,-0.1)" stroke="none" fill="#D1B1DB"/>

<path d="M632 251 c-11 -6 -6 -14 17 -30 17 -12 31 -19 31 -15 0 5 5 3 12 -4 7 -7 16 -12 21 -12 5 0 -3 10 -19 22 -16 13 -33 28 -39 35 -6 8 -15 9 -23 4z" transform="translate(0,67) scale(0.1,-0.1)" stroke="none" fill="#D1B1DB"/>

<path d="M538 208 c-24 -24 -30 -31 -13 -15 36 32 45 34 45 10 0 -15 2 -15 9 -4 5 8 16 11 26 8 9 -4 14 -3 10 3 -3 6 -13 10 -21 10 -8 0 -14 5 -14 11 0 6 9 9 20 6 11 -3 18 -1 14 4 -11 18 -33 8 -76 -33z" transform="translate(0,67) scale(0.1,-0.1)" stroke="none" fill="#2964D4"/>

<path d="M388 520 c-43 -27 -78 -52 -78 -55 0 -3 6 -2 13 2 120 76 159 104 145 103 -2 0 -38 -23 -80 -50z" transform="translate(0,67) scale(0.1,-0.1)" stroke="none" fill="#D1B1DB"/>

<path d="M880 220 c-6 -11 -23 -26 -38 -34 -15 -9 -21 -15 -14 -16 7 0 10 -5 6 -11 -8 -14 42 15 77 43 l24 20 -27 -16 c-37 -22 -41 -20 -22 9 9 14 14 25 11 25 -4 0 -11 -9 -17 -20z m-15 -40 c-3 -5 -12 -10 -18 -10 -7 0 -6 4 3 10 19 12 23 12 15 0z" transform="translate(0,67) scale(0.1,-0.1)" stroke="none" fill="#D1B1DB"/>

<path d="M477 153 c-4 -3 -7 -17 -7 -30 0 -17 -4 -22 -12 -17 -24 14 -2 -5 35 -30 21 -14 43 -26 50 -25 7 0 3 4 -8 9 -14 6 -15 9 -5 10 8 0 0 7 -19 15 -29 13 -33 19 -29 45 5 32 5 33 -5 23z" transform="translate(0,67) scale(0.1,-0.1)" stroke="none" fill="#548BDB"/>

<path d="M539 307 c21 -24 23 -29 11 -56 -7 -17 -16 -29 -20 -28 -4 1 -9 -2 -10 -8 -1 -5 -9 -19 -18 -30 -9 -10 4 -1 29 20 26 22 44 42 40 45 -3 3 -6 16 -6 29 0 14 -10 30 -25 39 l-25 16 24 -27z" transform="translate(0,67) scale(0.1,-0.1)" stroke="none" fill="#548BDB"/>

<path d="M240 245 c0 -7 133 -85 138 -81 8 9 -19 36 -52 53 -30 16 -86 34 -86 28z" transform="translate(0,67) scale(0.1,-0.1)" stroke="none" fill="#D1B1DB"/>

<path d="M455 174 c-12 -9 -30 -12 -47 -8 -16 3 -28 2 -28 -3 0 -8 71 -47 74 -41 1 2 10 15 19 30 26 42 19 50 -18 22z" transform="translate(0,67) scale(0.1,-0.1)" stroke="none" fill="#7DADDE"/>

<path d="M948 301 c3 -33 0 -41 -19 -52 -13 -6 -38 -28 -56 -47 -30 -32 -36 -34 -81 -30 -27 3 -63 12 -80 21 -31 15 -46 7 -19 -10 28 -17 36 -46 21 -75 -8 -15 -21 -28 -29 -28 -8 0 -29 -14 -47 -30 l-33 -31 38 18 c20 9 37 20 37 24 0 4 8 9 18 12 9 4 81 48 159 99 78 51 150 98 160 104 16 10 13 14 -25 37 -23 15 -43 27 -45 27 -1 0 -1 -18 1 -39z" transform="translate(0,67) scale(0.1,-0.1)" stroke="none" fill="#7DADDE"/>

<path d="M535 510 c-33 -21 -100 -64 -150 -96 -164 -104 -195 -124 -195 -128 0 -3 15 -14 34 -25 35 -22 61 -28 51 -11 -12 20 6 49 43 68 20 10 52 27 70 37 31 16 37 16 80 2 26 -9 48 -15 49 -13 2 1 -3 16 -9 33 -16 43 0 75 51 102 54 27 61 27 122 -11 49 -29 51 -33 46 -65 -5 -30 -4 -34 11 -28 59 24 74 24 124 -1 28 -14 52 -24 54 -21 4 3 -65 52 -146 102 -19 12 -61 38 -92 58 -31 21 -62 37 -70 36 -7 0 -40 -18 -73 -39z" transform="translate(0,67) scale(0.1,-0.1)" stroke="none" fill="#7DADDE"/>

<path d="M550 640 c-25 -16 -64 -43 -88 -60 -24 -17 -55 -37 -70 -43 -27 -12 -322 -207 -371 -246 l-25 -19 48 -29 c75 -44 176 -108 236 -151 83 -58 146 -92 172 -92 17 0 8 10 -39 38 -34 20 -110 68 -170 106 -59 38 -128 82 -151 97 -24 15 -49 30 -55 32 -21 7 5 27 143 114 77 48 190 121 252 160 62 40 128 80 146 89 38 19 42 18 157 -57 38 -25 86 -54 105 -65 19 -10 37 -22 40 -25 5 -6 38 -27 218 -140 45 -29 82 -57 82 -63 0 -6 -71 -56 -158 -110 -294 -185 -281 -176 -248 -176 16 0 48 14 75 33 25 19 73 49 106 67 101 55 265 164 265 177 0 9 -92 77 -201 148 -17 11 -60 39 -96 63 -36 24 -71 46 -79 49 -7 2 -57 33 -111 69 -54 35 -107 64 -118 64 -11 0 -40 -14 -65 -30z" transform="translate(0,67) scale(0.1,-0.1)" stroke="none" fill="#7DADDE"/>

</g>

<g id="4" transform="translate(0,268.0)scale(0.8,0.8)">

<path d="M623 51 c-18 -15 -33 -31 -33 -34 0 -12 26 -8 46 8 19 15 19 15 -1 9 -16 -5 -14 -1 8 20 38 35 21 33 -20 -3z" transform="translate(0,67) scale(0.1,-0.1)" stroke="none" fill="#D1B1DB"/>

<path d="M632 251 c-11 -6 -6 -14 17 -30 17 -12 31 -19 31 -15 0 5 5 3 12 -4 7 -7 16 -12 21 -12 5 0 -3 10 -19 22 -16 13 -33 28 -39 35 -6 8 -15 9 -23 4z" transform="translate(0,67) scale(0.1,-0.1)" stroke="none" fill="#D1B1DB"/>

<path d="M538 208 c-24 -24 -30 -31 -13 -15 36 32 45 34 45 10 0 -15 2 -15 9 -4 5 8 16 11 26 8 9 -4 14 -3 10 3 -3 6 -13 10 -21 10 -8 0 -14 5 -14 11 0 6 9 9 20 6 11 -3 18 -1 14 4 -11 18 -33 8 -76 -33z" transform="translate(0,67) scale(0.1,-0.1)" stroke="none" fill="#2964D4"/>

<path d="M388 520 c-43 -27 -78 -52 -78 -55 0 -3 6 -2 13 2 120 76 159 104 145 103 -2 0 -38 -23 -80 -50z" transform="translate(0,67) scale(0.1,-0.1)" stroke="none" fill="#D1B1DB"/>

<path d="M880 220 c-6 -11 -23 -26 -38 -34 -15 -9 -21 -15 -14 -16 7 0 10 -5 6 -11 -8 -14 42 15 77 43 l24 20 -27 -16 c-37 -22 -41 -20 -22 9 9 14 14 25 11 25 -4 0 -11 -9 -17 -20z m-15 -40 c-3 -5 -12 -10 -18 -10 -7 0 -6 4 3 10 19 12 23 12 15 0z" transform="translate(0,67) scale(0.1,-0.1)" stroke="none" fill="#D1B1DB"/>

<path d="M477 153 c-4 -3 -7 -17 -7 -30 0 -17 -4 -22 -12 -17 -24 14 -2 -5 35 -30 21 -14 43 -26 50 -25 7 0 3 4 -8 9 -14 6 -15 9 -5 10 8 0 0 7 -19 15 -29 13 -33 19 -29 45 5 32 5 33 -5 23z" transform="translate(0,67) scale(0.1,-0.1)" stroke="none" fill="#548BDB"/>

<path d="M539 307 c21 -24 23 -29 11 -56 -7 -17 -16 -29 -20 -28 -4 1 -9 -2 -10 -8 -1 -5 -9 -19 -18 -30 -9 -10 4 -1 29 20 26 22 44 42 40 45 -3 3 -6 16 -6 29 0 14 -10 30 -25 39 l-25 16 24 -27z" transform="translate(0,67) scale(0.1,-0.1)" stroke="none" fill="#548BDB"/>

<path d="M240 245 c0 -7 133 -85 138 -81 8 9 -19 36 -52 53 -30 16 -86 34 -86 28z" transform="translate(0,67) scale(0.1,-0.1)" stroke="none" fill="#D1B1DB"/>

<path d="M455 174 c-12 -9 -30 -12 -47 -8 -16 3 -28 2 -28 -3 0 -8 71 -47 74 -41 1 2 10 15 19 30 26 42 19 50 -18 22z" transform="translate(0,67) scale(0.1,-0.1)" stroke="none" fill="#7DADDE"/>

<path d="M948 301 c3 -33 0 -41 -19 -52 -13 -6 -38 -28 -56 -47 -30 -32 -36 -34 -81 -30 -27 3 -63 12 -80 21 -31 15 -46 7 -19 -10 28 -17 36 -46 21 -75 -8 -15 -21 -28 -29 -28 -8 0 -29 -14 -47 -30 l-33 -31 38 18 c20 9 37 20 37 24 0 4 8 9 18 12 9 4 81 48 159 99 78 51 150 98 160 104 16 10 13 14 -25 37 -23 15 -43 27 -45 27 -1 0 -1 -18 1 -39z" transform="translate(0,67) scale(0.1,-0.1)" stroke="none" fill="#7DADDE"/>

<path d="M535 510 c-33 -21 -100 -64 -150 -96 -164 -104 -195 -124 -195 -128 0 -3 15 -14 34 -25 35 -22 61 -28 51 -11 -12 20 6 49 43 68 20 10 52 27 70 37 31 16 37 16 80 2 26 -9 48 -15 49 -13 2 1 -3 16 -9 33 -16 43 0 75 51 102 54 27 61 27 122 -11 49 -29 51 -33 46 -65 -5 -30 -4 -34 11 -28 59 24 74 24 124 -1 28 -14 52 -24 54 -21 4 3 -65 52 -146 102 -19 12 -61 38 -92 58 -31 21 -62 37 -70 36 -7 0 -40 -18 -73 -39z" transform="translate(0,67) scale(0.1,-0.1)" stroke="none" fill="#7DADDE"/>

<path d="M550 640 c-25 -16 -64 -43 -88 -60 -24 -17 -55 -37 -70 -43 -27 -12 -322 -207 -371 -246 l-25 -19 48 -29 c75 -44 176 -108 236 -151 83 -58 146 -92 172 -92 17 0 8 10 -39 38 -34 20 -110 68 -170 106 -59 38 -128 82 -151 97 -24 15 -49 30 -55 32 -21 7 5 27 143 114 77 48 190 121 252 160 62 40 128 80 146 89 38 19 42 18 157 -57 38 -25 86 -54 105 -65 19 -10 37 -22 40 -25 5 -6 38 -27 218 -140 45 -29 82 -57 82 -63 0 -6 -71 -56 -158 -110 -294 -185 -281 -176 -248 -176 16 0 48 14 75 33 25 19 73 49 106 67 101 55 265 164 265 177 0 9 -92 77 -201 148 -17 11 -60 39 -96 63 -36 24 -71 46 -79 49 -7 2 -57 33 -111 69 -54 35 -107 64 -118 64 -11 0 -40 -14 -65 -30z" transform="translate(0,67) scale(0.1,-0.1)" stroke="none" fill="#7DADDE"/>

</g>

</g>
<g id="col1" transform="translate(122, -25.5)">
<g id="0" transform="translate(0,0.0)scale(0.8,0.8)">

<path d="M623 51 c-18 -15 -33 -31 -33 -34 0 -12 26 -8 46 8 19 15 19 15 -1 9 -16 -5 -14 -1 8 20 38 35 21 33 -20 -3z" transform="translate(0,67) scale(0.1,-0.1)" stroke="none" fill="#D1B1DB"/>

<path d="M632 251 c-11 -6 -6 -14 17 -30 17 -12 31 -19 31 -15 0 5 5 3 12 -4 7 -7 16 -12 21 -12 5 0 -3 10 -19 22 -16 13 -33 28 -39 35 -6 8 -15 9 -23 4z" transform="translate(0,67) scale(0.1,-0.1)" stroke="none" fill="#D1B1DB"/>

<path d="M538 208 c-24 -24 -30 -31 -13 -15 36 32 45 34 45 10 0 -15 2 -15 9 -4 5 8 16 11 26 8 9 -4 14 -3 10 3 -3 6 -13 10 -21 10 -8 0 -14 5 -14 11 0 6 9 9 20 6 11 -3 18 -1 14 4 -11 18 -33 8 -76 -33z" transform="translate(0,67) scale(0.1,-0.1)" stroke="none" fill="#2964D4"/>

<path d="M388 520 c-43 -27 -78 -52 -78 -55 0 -3 6 -2 13 2 120 76 159 104 145 103 -2 0 -38 -23 -80 -50z" transform="translate(0,67) scale(0.1,-0.1)" stroke="none" fill="#D1B1DB"/>

<path d="M880 220 c-6 -11 -23 -26 -38 -34 -15 -9 -21 -15 -14 -16 7 0 10 -5 6 -11 -8 -14 42 15 77 43 l24 20 -27 -16 c-37 -22 -41 -20 -22 9 9 14 14 25 11 25 -4 0 -11 -9 -17 -20z m-15 -40 c-3 -5 -12 -10 -18 -10 -7 0 -6 4 3 10 19 12 23 12 15 0z" transform="translate(0,67) scale(0.1,-0.1)" stroke="none" fill="#D1B1DB"/>

<path d="M477 153 c-4 -3 -7 -17 -7 -30 0 -17 -4 -22 -12 -17 -24 14 -2 -5 35 -30 21 -14 43 -26 50 -25 7 0 3 4 -8 9 -14 6 -15 9 -5 10 8 0 0 7 -19 15 -29 13 -33 19 -29 45 5 32 5 33 -5 23z" transform="translate(0,67) scale(0.1,-0.1)" stroke="none" fill="#548BDB"/>

<path d="M539 307 c21 -24 23 -29 11 -56 -7 -17 -16 -29 -20 -28 -4 1 -9 -2 -10 -8 -1 -5 -9 -19 -18 -30 -9 -10 4 -1 29 20 26 22 44 42 40 45 -3 3 -6 16 -6 29 0 14 -10 30 -25 39 l-25 16 24 -27z" transform="translate(0,67) scale(0.1,-0.1)" stroke="none" fill="#548BDB"/>

<path d="M240 245 c0 -7 133 -85 138 -81 8 9 -19 36 -52 53 -30 16 -86 34 -86 28z" transform="translate(0,67) scale(0.1,-0.1)" stroke="none" fill="#D1B1DB"/>

<path d="M455 174 c-12 -9 -30 -12 -47 -8 -16 3 -28 2 -28 -3 0 -8 71 -47 74 -41 1 2 10 15 19 30 26 42 19 50 -18 22z" transform="translate(0,67) scale(0.1,-0.1)" stroke="none" fill="#7DADDE"/>

<path d="M948 301 c3 -33 0 -41 -19 -52 -13 -6 -38 -28 -56 -47 -30 -32 -36 -34 -81 -30 -27 3 -63 12 -80 21 -31 15 -46 7 -19 -10 28 -17 36 -46 21 -75 -8 -15 -21 -28 -29 -28 -8 0 -29 -14 -47 -30 l-33 -31 38 18 c20 9 37 20 37 24 0 4 8 9 18 12 9 4 81 48 159 99 78 51 150 98 160 104 16 10 13 14 -25 37 -23 15 -43 27 -45 27 -1 0 -1 -18 1 -39z" transform="translate(0,67) scale(0.1,-0.1)" stroke="none" fill="#7DADDE"/>

<path d="M535 510 c-33 -21 -100 -64 -150 -96 -164 -104 -195 -124 -195 -128 0 -3 15 -14 34 -25 35 -22 61 -28 51 -11 -12 20 6 49 43 68 20 10 52 27 70 37 31 16 37 16 80 2 26 -9 48 -15 49 -13 2 1 -3 16 -9 33 -16 43 0 75 51 102 54 27 61 27 122 -11 49 -29 51 -33 46 -65 -5 -30 -4 -34 11 -28 59 24 74 24 124 -1 28 -14 52 -24 54 -21 4 3 -65 52 -146 102 -19 12 -61 38 -92 58 -31 21 -62 37 -70 36 -7 0 -40 -18 -73 -39z" transform="translate(0,67) scale(0.1,-0.1)" stroke="none" fill="#7DADDE"/>

<path d="M550 640 c-25 -16 -64 -43 -88 -60 -24 -17 -55 -37 -70 -43 -27 -12 -322 -207 -371 -246 l-25 -19 48 -29 c75 -44 176 -108 236 -151 83 -58 146 -92 172 -92 17 0 8 10 -39 38 -34 20 -110 68 -170 106 -59 38 -128 82 -151 97 -24 15 -49 30 -55 32 -21 7 5 27 143 114 77 48 190 121 252 160 62 40 128 80 146 89 38 19 42 18 157 -57 38 -25 86 -54 105 -65 19 -10 37 -22 40 -25 5 -6 38 -27 218 -140 45 -29 82 -57 82 -63 0 -6 -71 -56 -158 -110 -294 -185 -281 -176 -248 -176 16 0 48 14 75 33 25 19 73 49 106 67 101 55 265 164 265 177 0 9 -92 77 -201 148 -17 11 -60 39 -96 63 -36 24 -71 46 -79 49 -7 2 -57 33 -111 69 -54 35 -107 64 -118 64 -11 0 -40 -14 -65 -30z" transform="translate(0,67) scale(0.1,-0.1)" stroke="none" fill="#7DADDE"/>

</g>

<g id="1" transform="translate(0,67.0)scale(0.8,0.8)">

<path d="M623 51 c-18 -15 -33 -31 -33 -34 0 -12 26 -8 46 8 19 15 19 15 -1 9 -16 -5 -14 -1 8 20 38 35 21 33 -20 -3z" transform="translate(0,67) scale(0.1,-0.1)" stroke="none" fill="#D1B1DB"/>

<path d="M632 251 c-11 -6 -6 -14 17 -30 17 -12 31 -19 31 -15 0 5 5 3 12 -4 7 -7 16 -12 21 -12 5 0 -3 10 -19 22 -16 13 -33 28 -39 35 -6 8 -15 9 -23 4z" transform="translate(0,67) scale(0.1,-0.1)" stroke="none" fill="#D1B1DB"/>

<path d="M538 208 c-24 -24 -30 -31 -13 -15 36 32 45 34 45 10 0 -15 2 -15 9 -4 5 8 16 11 26 8 9 -4 14 -3 10 3 -3 6 -13 10 -21 10 -8 0 -14 5 -14 11 0 6 9 9 20 6 11 -3 18 -1 14 4 -11 18 -33 8 -76 -33z" transform="translate(0,67) scale(0.1,-0.1)" stroke="none" fill="#2964D4"/>

<path d="M388 520 c-43 -27 -78 -52 -78 -55 0 -3 6 -2 13 2 120 76 159 104 145 103 -2 0 -38 -23 -80 -50z" transform="translate(0,67) scale(0.1,-0.1)" stroke="none" fill="#D1B1DB"/>

<path d="M880 220 c-6 -11 -23 -26 -38 -34 -15 -9 -21 -15 -14 -16 7 0 10 -5 6 -11 -8 -14 42 15 77 43 l24 20 -27 -16 c-37 -22 -41 -20 -22 9 9 14 14 25 11 25 -4 0 -11 -9 -17 -20z m-15 -40 c-3 -5 -12 -10 -18 -10 -7 0 -6 4 3 10 19 12 23 12 15 0z" transform="translate(0,67) scale(0.1,-0.1)" stroke="none" fill="#D1B1DB"/>

<path d="M477 153 c-4 -3 -7 -17 -7 -30 0 -17 -4 -22 -12 -17 -24 14 -2 -5 35 -30 21 -14 43 -26 50 -25 7 0 3 4 -8 9 -14 6 -15 9 -5 10 8 0 0 7 -19 15 -29 13 -33 19 -29 45 5 32 5 33 -5 23z" transform="translate(0,67) scale(0.1,-0.1)" stroke="none" fill="#548BDB"/>

<path d="M539 307 c21 -24 23 -29 11 -56 -7 -17 -16 -29 -20 -28 -4 1 -9 -2 -10 -8 -1 -5 -9 -19 -18 -30 -9 -10 4 -1 29 20 26 22 44 42 40 45 -3 3 -6 16 -6 29 0 14 -10 30 -25 39 l-25 16 24 -27z" transform="translate(0,67) scale(0.1,-0.1)" stroke="none" fill="#548BDB"/>

<path d="M240 245 c0 -7 133 -85 138 -81 8 9 -19 36 -52 53 -30 16 -86 34 -86 28z" transform="translate(0,67) scale(0.1,-0.1)" stroke="none" fill="#D1B1DB"/>

<path d="M455 174 c-12 -9 -30 -12 -47 -8 -16 3 -28 2 -28 -3 0 -8 71 -47 74 -41 1 2 10 15 19 30 26 42 19 50 -18 22z" transform="translate(0,67) scale(0.1,-0.1)" stroke="none" fill="#7DADDE"/>

<path d="M948 301 c3 -33 0 -41 -19 -52 -13 -6 -38 -28 -56 -47 -30 -32 -36 -34 -81 -30 -27 3 -63 12 -80 21 -31 15 -46 7 -19 -10 28 -17 36 -46 21 -75 -8 -15 -21 -28 -29 -28 -8 0 -29 -14 -47 -30 l-33 -31 38 18 c20 9 37 20 37 24 0 4 8 9 18 12 9 4 81 48 159 99 78 51 150 98 160 104 16 10 13 14 -25 37 -23 15 -43 27 -45 27 -1 0 -1 -18 1 -39z" transform="translate(0,67) scale(0.1,-0.1)" stroke="none" fill="#7DADDE"/>

<path d="M535 510 c-33 -21 -100 -64 -150 -96 -164 -104 -195 -124 -195 -128 0 -3 15 -14 34 -25 35 -22 61 -28 51 -11 -12 20 6 49 43 68 20 10 52 27 70 37 31 16 37 16 80 2 26 -9 48 -15 49 -13 2 1 -3 16 -9 33 -16 43 0 75 51 102 54 27 61 27 122 -11 49 -29 51 -33 46 -65 -5 -30 -4 -34 11 -28 59 24 74 24 124 -1 28 -14 52 -24 54 -21 4 3 -65 52 -146 102 -19 12 -61 38 -92 58 -31 21 -62 37 -70 36 -7 0 -40 -18 -73 -39z" transform="translate(0,67) scale(0.1,-0.1)" stroke="none" fill="#7DADDE"/>

<path d="M550 640 c-25 -16 -64 -43 -88 -60 -24 -17 -55 -37 -70 -43 -27 -12 -322 -207 -371 -246 l-25 -19 48 -29 c75 -44 176 -108 236 -151 83 -58 146 -92 172 -92 17 0 8 10 -39 38 -34 20 -110 68 -170 106 -59 38 -128 82 -151 97 -24 15 -49 30 -55 32 -21 7 5 27 143 114 77 48 190 121 252 160 62 40 128 80 146 89 38 19 42 18 157 -57 38 -25 86 -54 105 -65 19 -10 37 -22 40 -25 5 -6 38 -27 218 -140 45 -29 82 -57 82 -63 0 -6 -71 -56 -158 -110 -294 -185 -281 -176 -248 -176 16 0 48 14 75 33 25 19 73 49 106 67 101 55 265 164 265 177 0 9 -92 77 -201 148 -17 11 -60 39 -96 63 -36 24 -71 46 -79 49 -7 2 -57 33 -111 69 -54 35 -107 64 -118 64 -11 0 -40 -14 -65 -30z" transform="translate(0,67) scale(0.1,-0.1)" stroke="none" fill="#7DADDE"/>

</g>

<g id="2" transform="translate(0,134.0)scale(0.8,0.8)">

<path d="M623 51 c-18 -15 -33 -31 -33 -34 0 -12 26 -8 46 8 19 15 19 15 -1 9 -16 -5 -14 -1 8 20 38 35 21 33 -20 -3z" transform="translate(0,67) scale(0.1,-0.1)" stroke="none" fill="#D1B1DB"/>

<path d="M632 251 c-11 -6 -6 -14 17 -30 17 -12 31 -19 31 -15 0 5 5 3 12 -4 7 -7 16 -12 21 -12 5 0 -3 10 -19 22 -16 13 -33 28 -39 35 -6 8 -15 9 -23 4z" transform="translate(0,67) scale(0.1,-0.1)" stroke="none" fill="#D1B1DB"/>

<path d="M538 208 c-24 -24 -30 -31 -13 -15 36 32 45 34 45 10 0 -15 2 -15 9 -4 5 8 16 11 26 8 9 -4 14 -3 10 3 -3 6 -13 10 -21 10 -8 0 -14 5 -14 11 0 6 9 9 20 6 11 -3 18 -1 14 4 -11 18 -33 8 -76 -33z" transform="translate(0,67) scale(0.1,-0.1)" stroke="none" fill="#2964D4"/>

<path d="M388 520 c-43 -27 -78 -52 -78 -55 0 -3 6 -2 13 2 120 76 159 104 145 103 -2 0 -38 -23 -80 -50z" transform="translate(0,67) scale(0.1,-0.1)" stroke="none" fill="#D1B1DB"/>

<path d="M880 220 c-6 -11 -23 -26 -38 -34 -15 -9 -21 -15 -14 -16 7 0 10 -5 6 -11 -8 -14 42 15 77 43 l24 20 -27 -16 c-37 -22 -41 -20 -22 9 9 14 14 25 11 25 -4 0 -11 -9 -17 -20z m-15 -40 c-3 -5 -12 -10 -18 -10 -7 0 -6 4 3 10 19 12 23 12 15 0z" transform="translate(0,67) scale(0.1,-0.1)" stroke="none" fill="#D1B1DB"/>

<path d="M477 153 c-4 -3 -7 -17 -7 -30 0 -17 -4 -22 -12 -17 -24 14 -2 -5 35 -30 21 -14 43 -26 50 -25 7 0 3 4 -8 9 -14 6 -15 9 -5 10 8 0 0 7 -19 15 -29 13 -33 19 -29 45 5 32 5 33 -5 23z" transform="translate(0,67) scale(0.1,-0.1)" stroke="none" fill="#548BDB"/>

<path d="M539 307 c21 -24 23 -29 11 -56 -7 -17 -16 -29 -20 -28 -4 1 -9 -2 -10 -8 -1 -5 -9 -19 -18 -30 -9 -10 4 -1 29 20 26 22 44 42 40 45 -3 3 -6 16 -6 29 0 14 -10 30 -25 39 l-25 16 24 -27z" transform="translate(0,67) scale(0.1,-0.1)" stroke="none" fill="#548BDB"/>

<path d="M240 245 c0 -7 133 -85 138 -81 8 9 -19 36 -52 53 -30 16 -86 34 -86 28z" transform="translate(0,67) scale(0.1,-0.1)" stroke="none" fill="#D1B1DB"/>

<path d="M455 174 c-12 -9 -30 -12 -47 -8 -16 3 -28 2 -28 -3 0 -8 71 -47 74 -41 1 2 10 15 19 30 26 42 19 50 -18 22z" transform="translate(0,67) scale(0.1,-0.1)" stroke="none" fill="#7DADDE"/>

<path d="M948 301 c3 -33 0 -41 -19 -52 -13 -6 -38 -28 -56 -47 -30 -32 -36 -34 -81 -30 -27 3 -63 12 -80 21 -31 15 -46 7 -19 -10 28 -17 36 -46 21 -75 -8 -15 -21 -28 -29 -28 -8 0 -29 -14 -47 -30 l-33 -31 38 18 c20 9 37 20 37 24 0 4 8 9 18 12 9 4 81 48 159 99 78 51 150 98 160 104 16 10 13 14 -25 37 -23 15 -43 27 -45 27 -1 0 -1 -18 1 -39z" transform="translate(0,67) scale(0.1,-0.1)" stroke="none" fill="#7DADDE"/>

<path d="M535 510 c-33 -21 -100 -64 -150 -96 -164 -104 -195 -124 -195 -128 0 -3 15 -14 34 -25 35 -22 61 -28 51 -11 -12 20 6 49 43 68 20 10 52 27 70 37 31 16 37 16 80 2 26 -9 48 -15 49 -13 2 1 -3 16 -9 33 -16 43 0 75 51 102 54 27 61 27 122 -11 49 -29 51 -33 46 -65 -5 -30 -4 -34 11 -28 59 24 74 24 124 -1 28 -14 52 -24 54 -21 4 3 -65 52 -146 102 -19 12 -61 38 -92 58 -31 21 -62 37 -70 36 -7 0 -40 -18 -73 -39z" transform="translate(0,67) scale(0.1,-0.1)" stroke="none" fill="#7DADDE"/>

<path d="M550 640 c-25 -16 -64 -43 -88 -60 -24 -17 -55 -37 -70 -43 -27 -12 -322 -207 -371 -246 l-25 -19 48 -29 c75 -44 176 -108 236 -151 83 -58 146 -92 172 -92 17 0 8 10 -39 38 -34 20 -110 68 -170 106 -59 38 -128 82 -151 97 -24 15 -49 30 -55 32 -21 7 5 27 143 114 77 48 190 121 252 160 62 40 128 80 146 89 38 19 42 18 157 -57 38 -25 86 -54 105 -65 19 -10 37 -22 40 -25 5 -6 38 -27 218 -140 45 -29 82 -57 82 -63 0 -6 -71 -56 -158 -110 -294 -185 -281 -176 -248 -176 16 0 48 14 75 33 25 19 73 49 106 67 101 55 265 164 265 177 0 9 -92 77 -201 148 -17 11 -60 39 -96 63 -36 24 -71 46 -79 49 -7 2 -57 33 -111 69 -54 35 -107 64 -118 64 -11 0 -40 -14 -65 -30z" transform="translate(0,67) scale(0.1,-0.1)" stroke="none" fill="#7DADDE"/>

</g>

<g id="3" transform="translate(0,201.0)scale(0.8,0.8)">

<path d="M623 51 c-18 -15 -33 -31 -33 -34 0 -12 26 -8 46 8 19 15 19 15 -1 9 -16 -5 -14 -1 8 20 38 35 21 33 -20 -3z" transform="translate(0,67) scale(0.1,-0.1)" stroke="none" fill="#D1B1DB"/>

<path d="M632 251 c-11 -6 -6 -14 17 -30 17 -12 31 -19 31 -15 0 5 5 3 12 -4 7 -7 16 -12 21 -12 5 0 -3 10 -19 22 -16 13 -33 28 -39 35 -6 8 -15 9 -23 4z" transform="translate(0,67) scale(0.1,-0.1)" stroke="none" fill="#D1B1DB"/>

<path d="M538 208 c-24 -24 -30 -31 -13 -15 36 32 45 34 45 10 0 -15 2 -15 9 -4 5 8 16 11 26 8 9 -4 14 -3 10 3 -3 6 -13 10 -21 10 -8 0 -14 5 -14 11 0 6 9 9 20 6 11 -3 18 -1 14 4 -11 18 -33 8 -76 -33z" transform="translate(0,67) scale(0.1,-0.1)" stroke="none" fill="#2964D4"/>

<path d="M388 520 c-43 -27 -78 -52 -78 -55 0 -3 6 -2 13 2 120 76 159 104 145 103 -2 0 -38 -23 -80 -50z" transform="translate(0,67) scale(0.1,-0.1)" stroke="none" fill="#D1B1DB"/>

<path d="M880 220 c-6 -11 -23 -26 -38 -34 -15 -9 -21 -15 -14 -16 7 0 10 -5 6 -11 -8 -14 42 15 77 43 l24 20 -27 -16 c-37 -22 -41 -20 -22 9 9 14 14 25 11 25 -4 0 -11 -9 -17 -20z m-15 -40 c-3 -5 -12 -10 -18 -10 -7 0 -6 4 3 10 19 12 23 12 15 0z" transform="translate(0,67) scale(0.1,-0.1)" stroke="none" fill="#D1B1DB"/>

<path d="M477 153 c-4 -3 -7 -17 -7 -30 0 -17 -4 -22 -12 -17 -24 14 -2 -5 35 -30 21 -14 43 -26 50 -25 7 0 3 4 -8 9 -14 6 -15 9 -5 10 8 0 0 7 -19 15 -29 13 -33 19 -29 45 5 32 5 33 -5 23z" transform="translate(0,67) scale(0.1,-0.1)" stroke="none" fill="#548BDB"/>

<path d="M539 307 c21 -24 23 -29 11 -56 -7 -17 -16 -29 -20 -28 -4 1 -9 -2 -10 -8 -1 -5 -9 -19 -18 -30 -9 -10 4 -1 29 20 26 22 44 42 40 45 -3 3 -6 16 -6 29 0 14 -10 30 -25 39 l-25 16 24 -27z" transform="translate(0,67) scale(0.1,-0.1)" stroke="none" fill="#548BDB"/>

<path d="M240 245 c0 -7 133 -85 138 -81 8 9 -19 36 -52 53 -30 16 -86 34 -86 28z" transform="translate(0,67) scale(0.1,-0.1)" stroke="none" fill="#D1B1DB"/>

<path d="M455 174 c-12 -9 -30 -12 -47 -8 -16 3 -28 2 -28 -3 0 -8 71 -47 74 -41 1 2 10 15 19 30 26 42 19 50 -18 22z" transform="translate(0,67) scale(0.1,-0.1)" stroke="none" fill="#7DADDE"/>

<path d="M948 301 c3 -33 0 -41 -19 -52 -13 -6 -38 -28 -56 -47 -30 -32 -36 -34 -81 -30 -27 3 -63 12 -80 21 -31 15 -46 7 -19 -10 28 -17 36 -46 21 -75 -8 -15 -21 -28 -29 -28 -8 0 -29 -14 -47 -30 l-33 -31 38 18 c20 9 37 20 37 24 0 4 8 9 18 12 9 4 81 48 159 99 78 51 150 98 160 104 16 10 13 14 -25 37 -23 15 -43 27 -45 27 -1 0 -1 -18 1 -39z" transform="translate(0,67) scale(0.1,-0.1)" stroke="none" fill="#7DADDE"/>

<path d="M535 510 c-33 -21 -100 -64 -150 -96 -164 -104 -195 -124 -195 -128 0 -3 15 -14 34 -25 35 -22 61 -28 51 -11 -12 20 6 49 43 68 20 10 52 27 70 37 31 16 37 16 80 2 26 -9 48 -15 49 -13 2 1 -3 16 -9 33 -16 43 0 75 51 102 54 27 61 27 122 -11 49 -29 51 -33 46 -65 -5 -30 -4 -34 11 -28 59 24 74 24 124 -1 28 -14 52 -24 54 -21 4 3 -65 52 -146 102 -19 12 -61 38 -92 58 -31 21 -62 37 -70 36 -7 0 -40 -18 -73 -39z" transform="translate(0,67) scale(0.1,-0.1)" stroke="none" fill="#7DADDE"/>

<path d="M550 640 c-25 -16 -64 -43 -88 -60 -24 -17 -55 -37 -70 -43 -27 -12 -322 -207 -371 -246 l-25 -19 48 -29 c75 -44 176 -108 236 -151 83 -58 146 -92 172 -92 17 0 8 10 -39 38 -34 20 -110 68 -170 106 -59 38 -128 82 -151 97 -24 15 -49 30 -55 32 -21 7 5 27 143 114 77 48 190 121 252 160 62 40 128 80 146 89 38 19 42 18 157 -57 38 -25 86 -54 105 -65 19 -10 37 -22 40 -25 5 -6 38 -27 218 -140 45 -29 82 -57 82 -63 0 -6 -71 -56 -158 -110 -294 -185 -281 -176 -248 -176 16 0 48 14 75 33 25 19 73 49 106 67 101 55 265 164 265 177 0 9 -92 77 -201 148 -17 11 -60 39 -96 63 -36 24 -71 46 -79 49 -7 2 -57 33 -111 69 -54 35 -107 64 -118 64 -11 0 -40 -14 -65 -30z" transform="translate(0,67) scale(0.1,-0.1)" stroke="none" fill="#7DADDE"/>

</g>

<g id="4" transform="translate(0,268.0)scale(0.8,0.8)">

<path d="M623 51 c-18 -15 -33 -31 -33 -34 0 -12 26 -8 46 8 19 15 19 15 -1 9 -16 -5 -14 -1 8 20 38 35 21 33 -20 -3z" transform="translate(0,67) scale(0.1,-0.1)" stroke="none" fill="#D1B1DB"/>

<path d="M632 251 c-11 -6 -6 -14 17 -30 17 -12 31 -19 31 -15 0 5 5 3 12 -4 7 -7 16 -12 21 -12 5 0 -3 10 -19 22 -16 13 -33 28 -39 35 -6 8 -15 9 -23 4z" transform="translate(0,67) scale(0.1,-0.1)" stroke="none" fill="#D1B1DB"/>

<path d="M538 208 c-24 -24 -30 -31 -13 -15 36 32 45 34 45 10 0 -15 2 -15 9 -4 5 8 16 11 26 8 9 -4 14 -3 10 3 -3 6 -13 10 -21 10 -8 0 -14 5 -14 11 0 6 9 9 20 6 11 -3 18 -1 14 4 -11 18 -33 8 -76 -33z" transform="translate(0,67) scale(0.1,-0.1)" stroke="none" fill="#2964D4"/>

<path d="M388 520 c-43 -27 -78 -52 -78 -55 0 -3 6 -2 13 2 120 76 159 104 145 103 -2 0 -38 -23 -80 -50z" transform="translate(0,67) scale(0.1,-0.1)" stroke="none" fill="#D1B1DB"/>

<path d="M880 220 c-6 -11 -23 -26 -38 -34 -15 -9 -21 -15 -14 -16 7 0 10 -5 6 -11 -8 -14 42 15 77 43 l24 20 -27 -16 c-37 -22 -41 -20 -22 9 9 14 14 25 11 25 -4 0 -11 -9 -17 -20z m-15 -40 c-3 -5 -12 -10 -18 -10 -7 0 -6 4 3 10 19 12 23 12 15 0z" transform="translate(0,67) scale(0.1,-0.1)" stroke="none" fill="#D1B1DB"/>

<path d="M477 153 c-4 -3 -7 -17 -7 -30 0 -17 -4 -22 -12 -17 -24 14 -2 -5 35 -30 21 -14 43 -26 50 -25 7 0 3 4 -8 9 -14 6 -15 9 -5 10 8 0 0 7 -19 15 -29 13 -33 19 -29 45 5 32 5 33 -5 23z" transform="translate(0,67) scale(0.1,-0.1)" stroke="none" fill="#548BDB"/>

<path d="M539 307 c21 -24 23 -29 11 -56 -7 -17 -16 -29 -20 -28 -4 1 -9 -2 -10 -8 -1 -5 -9 -19 -18 -30 -9 -10 4 -1 29 20 26 22 44 42 40 45 -3 3 -6 16 -6 29 0 14 -10 30 -25 39 l-25 16 24 -27z" transform="translate(0,67) scale(0.1,-0.1)" stroke="none" fill="#548BDB"/>

<path d="M240 245 c0 -7 133 -85 138 -81 8 9 -19 36 -52 53 -30 16 -86 34 -86 28z" transform="translate(0,67) scale(0.1,-0.1)" stroke="none" fill="#D1B1DB"/>

<path d="M455 174 c-12 -9 -30 -12 -47 -8 -16 3 -28 2 -28 -3 0 -8 71 -47 74 -41 1 2 10 15 19 30 26 42 19 50 -18 22z" transform="translate(0,67) scale(0.1,-0.1)" stroke="none" fill="#7DADDE"/>

<path d="M948 301 c3 -33 0 -41 -19 -52 -13 -6 -38 -28 -56 -47 -30 -32 -36 -34 -81 -30 -27 3 -63 12 -80 21 -31 15 -46 7 -19 -10 28 -17 36 -46 21 -75 -8 -15 -21 -28 -29 -28 -8 0 -29 -14 -47 -30 l-33 -31 38 18 c20 9 37 20 37 24 0 4 8 9 18 12 9 4 81 48 159 99 78 51 150 98 160 104 16 10 13 14 -25 37 -23 15 -43 27 -45 27 -1 0 -1 -18 1 -39z" transform="translate(0,67) scale(0.1,-0.1)" stroke="none" fill="#7DADDE"/>

<path d="M535 510 c-33 -21 -100 -64 -150 -96 -164 -104 -195 -124 -195 -128 0 -3 15 -14 34 -25 35 -22 61 -28 51 -11 -12 20 6 49 43 68 20 10 52 27 70 37 31 16 37 16 80 2 26 -9 48 -15 49 -13 2 1 -3 16 -9 33 -16 43 0 75 51 102 54 27 61 27 122 -11 49 -29 51 -33 46 -65 -5 -30 -4 -34 11 -28 59 24 74 24 124 -1 28 -14 52 -24 54 -21 4 3 -65 52 -146 102 -19 12 -61 38 -92 58 -31 21 -62 37 -70 36 -7 0 -40 -18 -73 -39z" transform="translate(0,67) scale(0.1,-0.1)" stroke="none" fill="#7DADDE"/>

<path d="M550 640 c-25 -16 -64 -43 -88 -60 -24 -17 -55 -37 -70 -43 -27 -12 -322 -207 -371 -246 l-25 -19 48 -29 c75 -44 176 -108 236 -151 83 -58 146 -92 172 -92 17 0 8 10 -39 38 -34 20 -110 68 -170 106 -59 38 -128 82 -151 97 -24 15 -49 30 -55 32 -21 7 5 27 143 114 77 48 190 121 252 160 62 40 128 80 146 89 38 19 42 18 157 -57 38 -25 86 -54 105 -65 19 -10 37 -22 40 -25 5 -6 38 -27 218 -140 45 -29 82 -57 82 -63 0 -6 -71 -56 -158 -110 -294 -185 -281 -176 -248 -176 16 0 48 14 75 33 25 19 73 49 106 67 101 55 265 164 265 177 0 9 -92 77 -201 148 -17 11 -60 39 -96 63 -36 24 -71 46 -79 49 -7 2 -57 33 -111 69 -54 35 -107 64 -118 64 -11 0 -40 -14 -65 -30z" transform="translate(0,67) scale(0.1,-0.1)" stroke="none" fill="#7DADDE"/>

</g>

</g>
<g id="col2" transform="translate(244, 8)">
<g id="0" transform="translate(0,0.0)scale(0.8,0.8)">

<path d="M623 51 c-18 -15 -33 -31 -33 -34 0 -12 26 -8 46 8 19 15 19 15 -1 9 -16 -5 -14 -1 8 20 38 35 21 33 -20 -3z" transform="translate(0,67) scale(0.1,-0.1)" stroke="none" fill="#D1B1DB"/>

<path d="M632 251 c-11 -6 -6 -14 17 -30 17 -12 31 -19 31 -15 0 5 5 3 12 -4 7 -7 16 -12 21 -12 5 0 -3 10 -19 22 -16 13 -33 28 -39 35 -6 8 -15 9 -23 4z" transform="translate(0,67) scale(0.1,-0.1)" stroke="none" fill="#D1B1DB"/>

<path d="M538 208 c-24 -24 -30 -31 -13 -15 36 32 45 34 45 10 0 -15 2 -15 9 -4 5 8 16 11 26 8 9 -4 14 -3 10 3 -3 6 -13 10 -21 10 -8 0 -14 5 -14 11 0 6 9 9 20 6 11 -3 18 -1 14 4 -11 18 -33 8 -76 -33z" transform="translate(0,67) scale(0.1,-0.1)" stroke="none" fill="#2964D4"/>

<path d="M388 520 c-43 -27 -78 -52 -78 -55 0 -3 6 -2 13 2 120 76 159 104 145 103 -2 0 -38 -23 -80 -50z" transform="translate(0,67) scale(0.1,-0.1)" stroke="none" fill="#D1B1DB"/>

<path d="M880 220 c-6 -11 -23 -26 -38 -34 -15 -9 -21 -15 -14 -16 7 0 10 -5 6 -11 -8 -14 42 15 77 43 l24 20 -27 -16 c-37 -22 -41 -20 -22 9 9 14 14 25 11 25 -4 0 -11 -9 -17 -20z m-15 -40 c-3 -5 -12 -10 -18 -10 -7 0 -6 4 3 10 19 12 23 12 15 0z" transform="translate(0,67) scale(0.1,-0.1)" stroke="none" fill="#D1B1DB"/>

<path d="M477 153 c-4 -3 -7 -17 -7 -30 0 -17 -4 -22 -12 -17 -24 14 -2 -5 35 -30 21 -14 43 -26 50 -25 7 0 3 4 -8 9 -14 6 -15 9 -5 10 8 0 0 7 -19 15 -29 13 -33 19 -29 45 5 32 5 33 -5 23z" transform="translate(0,67) scale(0.1,-0.1)" stroke="none" fill="#548BDB"/>

<path d="M539 307 c21 -24 23 -29 11 -56 -7 -17 -16 -29 -20 -28 -4 1 -9 -2 -10 -8 -1 -5 -9 -19 -18 -30 -9 -10 4 -1 29 20 26 22 44 42 40 45 -3 3 -6 16 -6 29 0 14 -10 30 -25 39 l-25 16 24 -27z" transform="translate(0,67) scale(0.1,-0.1)" stroke="none" fill="#548BDB"/>

<path d="M240 245 c0 -7 133 -85 138 -81 8 9 -19 36 -52 53 -30 16 -86 34 -86 28z" transform="translate(0,67) scale(0.1,-0.1)" stroke="none" fill="#D1B1DB"/>

<path d="M455 174 c-12 -9 -30 -12 -47 -8 -16 3 -28 2 -28 -3 0 -8 71 -47 74 -41 1 2 10 15 19 30 26 42 19 50 -18 22z" transform="translate(0,67) scale(0.1,-0.1)" stroke="none" fill="#7DADDE"/>

<path d="M948 301 c3 -33 0 -41 -19 -52 -13 -6 -38 -28 -56 -47 -30 -32 -36 -34 -81 -30 -27 3 -63 12 -80 21 -31 15 -46 7 -19 -10 28 -17 36 -46 21 -75 -8 -15 -21 -28 -29 -28 -8 0 -29 -14 -47 -30 l-33 -31 38 18 c20 9 37 20 37 24 0 4 8 9 18 12 9 4 81 48 159 99 78 51 150 98 160 104 16 10 13 14 -25 37 -23 15 -43 27 -45 27 -1 0 -1 -18 1 -39z" transform="translate(0,67) scale(0.1,-0.1)" stroke="none" fill="#7DADDE"/>

<path d="M535 510 c-33 -21 -100 -64 -150 -96 -164 -104 -195 -124 -195 -128 0 -3 15 -14 34 -25 35 -22 61 -28 51 -11 -12 20 6 49 43 68 20 10 52 27 70 37 31 16 37 16 80 2 26 -9 48 -15 49 -13 2 1 -3 16 -9 33 -16 43 0 75 51 102 54 27 61 27 122 -11 49 -29 51 -33 46 -65 -5 -30 -4 -34 11 -28 59 24 74 24 124 -1 28 -14 52 -24 54 -21 4 3 -65 52 -146 102 -19 12 -61 38 -92 58 -31 21 -62 37 -70 36 -7 0 -40 -18 -73 -39z" transform="translate(0,67) scale(0.1,-0.1)" stroke="none" fill="#7DADDE"/>

<path d="M550 640 c-25 -16 -64 -43 -88 -60 -24 -17 -55 -37 -70 -43 -27 -12 -322 -207 -371 -246 l-25 -19 48 -29 c75 -44 176 -108 236 -151 83 -58 146 -92 172 -92 17 0 8 10 -39 38 -34 20 -110 68 -170 106 -59 38 -128 82 -151 97 -24 15 -49 30 -55 32 -21 7 5 27 143 114 77 48 190 121 252 160 62 40 128 80 146 89 38 19 42 18 157 -57 38 -25 86 -54 105 -65 19 -10 37 -22 40 -25 5 -6 38 -27 218 -140 45 -29 82 -57 82 -63 0 -6 -71 -56 -158 -110 -294 -185 -281 -176 -248 -176 16 0 48 14 75 33 25 19 73 49 106 67 101 55 265 164 265 177 0 9 -92 77 -201 148 -17 11 -60 39 -96 63 -36 24 -71 46 -79 49 -7 2 -57 33 -111 69 -54 35 -107 64 -118 64 -11 0 -40 -14 -65 -30z" transform="translate(0,67) scale(0.1,-0.1)" stroke="none" fill="#7DADDE"/>

</g>

<g id="1" transform="translate(0,67.0)scale(0.8,0.8)">

<path d="M623 51 c-18 -15 -33 -31 -33 -34 0 -12 26 -8 46 8 19 15 19 15 -1 9 -16 -5 -14 -1 8 20 38 35 21 33 -20 -3z" transform="translate(0,67) scale(0.1,-0.1)" stroke="none" fill="#D1B1DB"/>

<path d="M632 251 c-11 -6 -6 -14 17 -30 17 -12 31 -19 31 -15 0 5 5 3 12 -4 7 -7 16 -12 21 -12 5 0 -3 10 -19 22 -16 13 -33 28 -39 35 -6 8 -15 9 -23 4z" transform="translate(0,67) scale(0.1,-0.1)" stroke="none" fill="#D1B1DB"/>

<path d="M538 208 c-24 -24 -30 -31 -13 -15 36 32 45 34 45 10 0 -15 2 -15 9 -4 5 8 16 11 26 8 9 -4 14 -3 10 3 -3 6 -13 10 -21 10 -8 0 -14 5 -14 11 0 6 9 9 20 6 11 -3 18 -1 14 4 -11 18 -33 8 -76 -33z" transform="translate(0,67) scale(0.1,-0.1)" stroke="none" fill="#2964D4"/>

<path d="M388 520 c-43 -27 -78 -52 -78 -55 0 -3 6 -2 13 2 120 76 159 104 145 103 -2 0 -38 -23 -80 -50z" transform="translate(0,67) scale(0.1,-0.1)" stroke="none" fill="#D1B1DB"/>

<path d="M880 220 c-6 -11 -23 -26 -38 -34 -15 -9 -21 -15 -14 -16 7 0 10 -5 6 -11 -8 -14 42 15 77 43 l24 20 -27 -16 c-37 -22 -41 -20 -22 9 9 14 14 25 11 25 -4 0 -11 -9 -17 -20z m-15 -40 c-3 -5 -12 -10 -18 -10 -7 0 -6 4 3 10 19 12 23 12 15 0z" transform="translate(0,67) scale(0.1,-0.1)" stroke="none" fill="#D1B1DB"/>

<path d="M477 153 c-4 -3 -7 -17 -7 -30 0 -17 -4 -22 -12 -17 -24 14 -2 -5 35 -30 21 -14 43 -26 50 -25 7 0 3 4 -8 9 -14 6 -15 9 -5 10 8 0 0 7 -19 15 -29 13 -33 19 -29 45 5 32 5 33 -5 23z" transform="translate(0,67) scale(0.1,-0.1)" stroke="none" fill="#548BDB"/>

<path d="M539 307 c21 -24 23 -29 11 -56 -7 -17 -16 -29 -20 -28 -4 1 -9 -2 -10 -8 -1 -5 -9 -19 -18 -30 -9 -10 4 -1 29 20 26 22 44 42 40 45 -3 3 -6 16 -6 29 0 14 -10 30 -25 39 l-25 16 24 -27z" transform="translate(0,67) scale(0.1,-0.1)" stroke="none" fill="#548BDB"/>

<path d="M240 245 c0 -7 133 -85 138 -81 8 9 -19 36 -52 53 -30 16 -86 34 -86 28z" transform="translate(0,67) scale(0.1,-0.1)" stroke="none" fill="#D1B1DB"/>

<path d="M455 174 c-12 -9 -30 -12 -47 -8 -16 3 -28 2 -28 -3 0 -8 71 -47 74 -41 1 2 10 15 19 30 26 42 19 50 -18 22z" transform="translate(0,67) scale(0.1,-0.1)" stroke="none" fill="#7DADDE"/>

<path d="M948 301 c3 -33 0 -41 -19 -52 -13 -6 -38 -28 -56 -47 -30 -32 -36 -34 -81 -30 -27 3 -63 12 -80 21 -31 15 -46 7 -19 -10 28 -17 36 -46 21 -75 -8 -15 -21 -28 -29 -28 -8 0 -29 -14 -47 -30 l-33 -31 38 18 c20 9 37 20 37 24 0 4 8 9 18 12 9 4 81 48 159 99 78 51 150 98 160 104 16 10 13 14 -25 37 -23 15 -43 27 -45 27 -1 0 -1 -18 1 -39z" transform="translate(0,67) scale(0.1,-0.1)" stroke="none" fill="#7DADDE"/>

<path d="M535 510 c-33 -21 -100 -64 -150 -96 -164 -104 -195 -124 -195 -128 0 -3 15 -14 34 -25 35 -22 61 -28 51 -11 -12 20 6 49 43 68 20 10 52 27 70 37 31 16 37 16 80 2 26 -9 48 -15 49 -13 2 1 -3 16 -9 33 -16 43 0 75 51 102 54 27 61 27 122 -11 49 -29 51 -33 46 -65 -5 -30 -4 -34 11 -28 59 24 74 24 124 -1 28 -14 52 -24 54 -21 4 3 -65 52 -146 102 -19 12 -61 38 -92 58 -31 21 -62 37 -70 36 -7 0 -40 -18 -73 -39z" transform="translate(0,67) scale(0.1,-0.1)" stroke="none" fill="#7DADDE"/>

<path d="M550 640 c-25 -16 -64 -43 -88 -60 -24 -17 -55 -37 -70 -43 -27 -12 -322 -207 -371 -246 l-25 -19 48 -29 c75 -44 176 -108 236 -151 83 -58 146 -92 172 -92 17 0 8 10 -39 38 -34 20 -110 68 -170 106 -59 38 -128 82 -151 97 -24 15 -49 30 -55 32 -21 7 5 27 143 114 77 48 190 121 252 160 62 40 128 80 146 89 38 19 42 18 157 -57 38 -25 86 -54 105 -65 19 -10 37 -22 40 -25 5 -6 38 -27 218 -140 45 -29 82 -57 82 -63 0 -6 -71 -56 -158 -110 -294 -185 -281 -176 -248 -176 16 0 48 14 75 33 25 19 73 49 106 67 101 55 265 164 265 177 0 9 -92 77 -201 148 -17 11 -60 39 -96 63 -36 24 -71 46 -79 49 -7 2 -57 33 -111 69 -54 35 -107 64 -118 64 -11 0 -40 -14 -65 -30z" transform="translate(0,67) scale(0.1,-0.1)" stroke="none" fill="#7DADDE"/>

</g>

<g id="2" transform="translate(0,134.0)scale(0.8,0.8)">

<path d="M623 51 c-18 -15 -33 -31 -33 -34 0 -12 26 -8 46 8 19 15 19 15 -1 9 -16 -5 -14 -1 8 20 38 35 21 33 -20 -3z" transform="translate(0,67) scale(0.1,-0.1)" stroke="none" fill="#D1B1DB"/>

<path d="M632 251 c-11 -6 -6 -14 17 -30 17 -12 31 -19 31 -15 0 5 5 3 12 -4 7 -7 16 -12 21 -12 5 0 -3 10 -19 22 -16 13 -33 28 -39 35 -6 8 -15 9 -23 4z" transform="translate(0,67) scale(0.1,-0.1)" stroke="none" fill="#D1B1DB"/>

<path d="M538 208 c-24 -24 -30 -31 -13 -15 36 32 45 34 45 10 0 -15 2 -15 9 -4 5 8 16 11 26 8 9 -4 14 -3 10 3 -3 6 -13 10 -21 10 -8 0 -14 5 -14 11 0 6 9 9 20 6 11 -3 18 -1 14 4 -11 18 -33 8 -76 -33z" transform="translate(0,67) scale(0.1,-0.1)" stroke="none" fill="#2964D4"/>

<path d="M388 520 c-43 -27 -78 -52 -78 -55 0 -3 6 -2 13 2 120 76 159 104 145 103 -2 0 -38 -23 -80 -50z" transform="translate(0,67) scale(0.1,-0.1)" stroke="none" fill="#D1B1DB"/>

<path d="M880 220 c-6 -11 -23 -26 -38 -34 -15 -9 -21 -15 -14 -16 7 0 10 -5 6 -11 -8 -14 42 15 77 43 l24 20 -27 -16 c-37 -22 -41 -20 -22 9 9 14 14 25 11 25 -4 0 -11 -9 -17 -20z m-15 -40 c-3 -5 -12 -10 -18 -10 -7 0 -6 4 3 10 19 12 23 12 15 0z" transform="translate(0,67) scale(0.1,-0.1)" stroke="none" fill="#D1B1DB"/>

<path d="M477 153 c-4 -3 -7 -17 -7 -30 0 -17 -4 -22 -12 -17 -24 14 -2 -5 35 -30 21 -14 43 -26 50 -25 7 0 3 4 -8 9 -14 6 -15 9 -5 10 8 0 0 7 -19 15 -29 13 -33 19 -29 45 5 32 5 33 -5 23z" transform="translate(0,67) scale(0.1,-0.1)" stroke="none" fill="#548BDB"/>

<path d="M539 307 c21 -24 23 -29 11 -56 -7 -17 -16 -29 -20 -28 -4 1 -9 -2 -10 -8 -1 -5 -9 -19 -18 -30 -9 -10 4 -1 29 20 26 22 44 42 40 45 -3 3 -6 16 -6 29 0 14 -10 30 -25 39 l-25 16 24 -27z" transform="translate(0,67) scale(0.1,-0.1)" stroke="none" fill="#548BDB"/>

<path d="M240 245 c0 -7 133 -85 138 -81 8 9 -19 36 -52 53 -30 16 -86 34 -86 28z" transform="translate(0,67) scale(0.1,-0.1)" stroke="none" fill="#D1B1DB"/>

<path d="M455 174 c-12 -9 -30 -12 -47 -8 -16 3 -28 2 -28 -3 0 -8 71 -47 74 -41 1 2 10 15 19 30 26 42 19 50 -18 22z" transform="translate(0,67) scale(0.1,-0.1)" stroke="none" fill="#7DADDE"/>

<path d="M948 301 c3 -33 0 -41 -19 -52 -13 -6 -38 -28 -56 -47 -30 -32 -36 -34 -81 -30 -27 3 -63 12 -80 21 -31 15 -46 7 -19 -10 28 -17 36 -46 21 -75 -8 -15 -21 -28 -29 -28 -8 0 -29 -14 -47 -30 l-33 -31 38 18 c20 9 37 20 37 24 0 4 8 9 18 12 9 4 81 48 159 99 78 51 150 98 160 104 16 10 13 14 -25 37 -23 15 -43 27 -45 27 -1 0 -1 -18 1 -39z" transform="translate(0,67) scale(0.1,-0.1)" stroke="none" fill="#7DADDE"/>

<path d="M535 510 c-33 -21 -100 -64 -150 -96 -164 -104 -195 -124 -195 -128 0 -3 15 -14 34 -25 35 -22 61 -28 51 -11 -12 20 6 49 43 68 20 10 52 27 70 37 31 16 37 16 80 2 26 -9 48 -15 49 -13 2 1 -3 16 -9 33 -16 43 0 75 51 102 54 27 61 27 122 -11 49 -29 51 -33 46 -65 -5 -30 -4 -34 11 -28 59 24 74 24 124 -1 28 -14 52 -24 54 -21 4 3 -65 52 -146 102 -19 12 -61 38 -92 58 -31 21 -62 37 -70 36 -7 0 -40 -18 -73 -39z" transform="translate(0,67) scale(0.1,-0.1)" stroke="none" fill="#7DADDE"/>

<path d="M550 640 c-25 -16 -64 -43 -88 -60 -24 -17 -55 -37 -70 -43 -27 -12 -322 -207 -371 -246 l-25 -19 48 -29 c75 -44 176 -108 236 -151 83 -58 146 -92 172 -92 17 0 8 10 -39 38 -34 20 -110 68 -170 106 -59 38 -128 82 -151 97 -24 15 -49 30 -55 32 -21 7 5 27 143 114 77 48 190 121 252 160 62 40 128 80 146 89 38 19 42 18 157 -57 38 -25 86 -54 105 -65 19 -10 37 -22 40 -25 5 -6 38 -27 218 -140 45 -29 82 -57 82 -63 0 -6 -71 -56 -158 -110 -294 -185 -281 -176 -248 -176 16 0 48 14 75 33 25 19 73 49 106 67 101 55 265 164 265 177 0 9 -92 77 -201 148 -17 11 -60 39 -96 63 -36 24 -71 46 -79 49 -7 2 -57 33 -111 69 -54 35 -107 64 -118 64 -11 0 -40 -14 -65 -30z" transform="translate(0,67) scale(0.1,-0.1)" stroke="none" fill="#7DADDE"/>

</g>

<g id="3" transform="translate(0,201.0)scale(0.8,0.8)">

<path d="M623 51 c-18 -15 -33 -31 -33 -34 0 -12 26 -8 46 8 19 15 19 15 -1 9 -16 -5 -14 -1 8 20 38 35 21 33 -20 -3z" transform="translate(0,67) scale(0.1,-0.1)" stroke="none" fill="#D1B1DB"/>

<path d="M632 251 c-11 -6 -6 -14 17 -30 17 -12 31 -19 31 -15 0 5 5 3 12 -4 7 -7 16 -12 21 -12 5 0 -3 10 -19 22 -16 13 -33 28 -39 35 -6 8 -15 9 -23 4z" transform="translate(0,67) scale(0.1,-0.1)" stroke="none" fill="#D1B1DB"/>

<path d="M538 208 c-24 -24 -30 -31 -13 -15 36 32 45 34 45 10 0 -15 2 -15 9 -4 5 8 16 11 26 8 9 -4 14 -3 10 3 -3 6 -13 10 -21 10 -8 0 -14 5 -14 11 0 6 9 9 20 6 11 -3 18 -1 14 4 -11 18 -33 8 -76 -33z" transform="translate(0,67) scale(0.1,-0.1)" stroke="none" fill="#2964D4"/>

<path d="M388 520 c-43 -27 -78 -52 -78 -55 0 -3 6 -2 13 2 120 76 159 104 145 103 -2 0 -38 -23 -80 -50z" transform="translate(0,67) scale(0.1,-0.1)" stroke="none" fill="#D1B1DB"/>

<path d="M880 220 c-6 -11 -23 -26 -38 -34 -15 -9 -21 -15 -14 -16 7 0 10 -5 6 -11 -8 -14 42 15 77 43 l24 20 -27 -16 c-37 -22 -41 -20 -22 9 9 14 14 25 11 25 -4 0 -11 -9 -17 -20z m-15 -40 c-3 -5 -12 -10 -18 -10 -7 0 -6 4 3 10 19 12 23 12 15 0z" transform="translate(0,67) scale(0.1,-0.1)" stroke="none" fill="#D1B1DB"/>

<path d="M477 153 c-4 -3 -7 -17 -7 -30 0 -17 -4 -22 -12 -17 -24 14 -2 -5 35 -30 21 -14 43 -26 50 -25 7 0 3 4 -8 9 -14 6 -15 9 -5 10 8 0 0 7 -19 15 -29 13 -33 19 -29 45 5 32 5 33 -5 23z" transform="translate(0,67) scale(0.1,-0.1)" stroke="none" fill="#548BDB"/>

<path d="M539 307 c21 -24 23 -29 11 -56 -7 -17 -16 -29 -20 -28 -4 1 -9 -2 -10 -8 -1 -5 -9 -19 -18 -30 -9 -10 4 -1 29 20 26 22 44 42 40 45 -3 3 -6 16 -6 29 0 14 -10 30 -25 39 l-25 16 24 -27z" transform="translate(0,67) scale(0.1,-0.1)" stroke="none" fill="#548BDB"/>

<path d="M240 245 c0 -7 133 -85 138 -81 8 9 -19 36 -52 53 -30 16 -86 34 -86 28z" transform="translate(0,67) scale(0.1,-0.1)" stroke="none" fill="#D1B1DB"/>

<path d="M455 174 c-12 -9 -30 -12 -47 -8 -16 3 -28 2 -28 -3 0 -8 71 -47 74 -41 1 2 10 15 19 30 26 42 19 50 -18 22z" transform="translate(0,67) scale(0.1,-0.1)" stroke="none" fill="#7DADDE"/>

<path d="M948 301 c3 -33 0 -41 -19 -52 -13 -6 -38 -28 -56 -47 -30 -32 -36 -34 -81 -30 -27 3 -63 12 -80 21 -31 15 -46 7 -19 -10 28 -17 36 -46 21 -75 -8 -15 -21 -28 -29 -28 -8 0 -29 -14 -47 -30 l-33 -31 38 18 c20 9 37 20 37 24 0 4 8 9 18 12 9 4 81 48 159 99 78 51 150 98 160 104 16 10 13 14 -25 37 -23 15 -43 27 -45 27 -1 0 -1 -18 1 -39z" transform="translate(0,67) scale(0.1,-0.1)" stroke="none" fill="#7DADDE"/>

<path d="M535 510 c-33 -21 -100 -64 -150 -96 -164 -104 -195 -124 -195 -128 0 -3 15 -14 34 -25 35 -22 61 -28 51 -11 -12 20 6 49 43 68 20 10 52 27 70 37 31 16 37 16 80 2 26 -9 48 -15 49 -13 2 1 -3 16 -9 33 -16 43 0 75 51 102 54 27 61 27 122 -11 49 -29 51 -33 46 -65 -5 -30 -4 -34 11 -28 59 24 74 24 124 -1 28 -14 52 -24 54 -21 4 3 -65 52 -146 102 -19 12 -61 38 -92 58 -31 21 -62 37 -70 36 -7 0 -40 -18 -73 -39z" transform="translate(0,67) scale(0.1,-0.1)" stroke="none" fill="#7DADDE"/>

<path d="M550 640 c-25 -16 -64 -43 -88 -60 -24 -17 -55 -37 -70 -43 -27 -12 -322 -207 -371 -246 l-25 -19 48 -29 c75 -44 176 -108 236 -151 83 -58 146 -92 172 -92 17 0 8 10 -39 38 -34 20 -110 68 -170 106 -59 38 -128 82 -151 97 -24 15 -49 30 -55 32 -21 7 5 27 143 114 77 48 190 121 252 160 62 40 128 80 146 89 38 19 42 18 157 -57 38 -25 86 -54 105 -65 19 -10 37 -22 40 -25 5 -6 38 -27 218 -140 45 -29 82 -57 82 -63 0 -6 -71 -56 -158 -110 -294 -185 -281 -176 -248 -176 16 0 48 14 75 33 25 19 73 49 106 67 101 55 265 164 265 177 0 9 -92 77 -201 148 -17 11 -60 39 -96 63 -36 24 -71 46 -79 49 -7 2 -57 33 -111 69 -54 35 -107 64 -118 64 -11 0 -40 -14 -65 -30z" transform="translate(0,67) scale(0.1,-0.1)" stroke="none" fill="#7DADDE"/>

</g>

<g id="4" transform="translate(0,268.0)scale(0.8,0.8)">

<path d="M623 51 c-18 -15 -33 -31 -33 -34 0 -12 26 -8 46 8 19 15 19 15 -1 9 -16 -5 -14 -1 8 20 38 35 21 33 -20 -3z" transform="translate(0,67) scale(0.1,-0.1)" stroke="none" fill="#D1B1DB"/>

<path d="M632 251 c-11 -6 -6 -14 17 -30 17 -12 31 -19 31 -15 0 5 5 3 12 -4 7 -7 16 -12 21 -12 5 0 -3 10 -19 22 -16 13 -33 28 -39 35 -6 8 -15 9 -23 4z" transform="translate(0,67) scale(0.1,-0.1)" stroke="none" fill="#D1B1DB"/>

<path d="M538 208 c-24 -24 -30 -31 -13 -15 36 32 45 34 45 10 0 -15 2 -15 9 -4 5 8 16 11 26 8 9 -4 14 -3 10 3 -3 6 -13 10 -21 10 -8 0 -14 5 -14 11 0 6 9 9 20 6 11 -3 18 -1 14 4 -11 18 -33 8 -76 -33z" transform="translate(0,67) scale(0.1,-0.1)" stroke="none" fill="#2964D4"/>

<path d="M388 520 c-43 -27 -78 -52 -78 -55 0 -3 6 -2 13 2 120 76 159 104 145 103 -2 0 -38 -23 -80 -50z" transform="translate(0,67) scale(0.1,-0.1)" stroke="none" fill="#D1B1DB"/>

<path d="M880 220 c-6 -11 -23 -26 -38 -34 -15 -9 -21 -15 -14 -16 7 0 10 -5 6 -11 -8 -14 42 15 77 43 l24 20 -27 -16 c-37 -22 -41 -20 -22 9 9 14 14 25 11 25 -4 0 -11 -9 -17 -20z m-15 -40 c-3 -5 -12 -10 -18 -10 -7 0 -6 4 3 10 19 12 23 12 15 0z" transform="translate(0,67) scale(0.1,-0.1)" stroke="none" fill="#D1B1DB"/>

<path d="M477 153 c-4 -3 -7 -17 -7 -30 0 -17 -4 -22 -12 -17 -24 14 -2 -5 35 -30 21 -14 43 -26 50 -25 7 0 3 4 -8 9 -14 6 -15 9 -5 10 8 0 0 7 -19 15 -29 13 -33 19 -29 45 5 32 5 33 -5 23z" transform="translate(0,67) scale(0.1,-0.1)" stroke="none" fill="#548BDB"/>

<path d="M539 307 c21 -24 23 -29 11 -56 -7 -17 -16 -29 -20 -28 -4 1 -9 -2 -10 -8 -1 -5 -9 -19 -18 -30 -9 -10 4 -1 29 20 26 22 44 42 40 45 -3 3 -6 16 -6 29 0 14 -10 30 -25 39 l-25 16 24 -27z" transform="translate(0,67) scale(0.1,-0.1)" stroke="none" fill="#548BDB"/>

<path d="M240 245 c0 -7 133 -85 138 -81 8 9 -19 36 -52 53 -30 16 -86 34 -86 28z" transform="translate(0,67) scale(0.1,-0.1)" stroke="none" fill="#D1B1DB"/>

<path d="M455 174 c-12 -9 -30 -12 -47 -8 -16 3 -28 2 -28 -3 0 -8 71 -47 74 -41 1 2 10 15 19 30 26 42 19 50 -18 22z" transform="translate(0,67) scale(0.1,-0.1)" stroke="none" fill="#7DADDE"/>

<path d="M948 301 c3 -33 0 -41 -19 -52 -13 -6 -38 -28 -56 -47 -30 -32 -36 -34 -81 -30 -27 3 -63 12 -80 21 -31 15 -46 7 -19 -10 28 -17 36 -46 21 -75 -8 -15 -21 -28 -29 -28 -8 0 -29 -14 -47 -30 l-33 -31 38 18 c20 9 37 20 37 24 0 4 8 9 18 12 9 4 81 48 159 99 78 51 150 98 160 104 16 10 13 14 -25 37 -23 15 -43 27 -45 27 -1 0 -1 -18 1 -39z" transform="translate(0,67) scale(0.1,-0.1)" stroke="none" fill="#7DADDE"/>

<path d="M535 510 c-33 -21 -100 -64 -150 -96 -164 -104 -195 -124 -195 -128 0 -3 15 -14 34 -25 35 -22 61 -28 51 -11 -12 20 6 49 43 68 20 10 52 27 70 37 31 16 37 16 80 2 26 -9 48 -15 49 -13 2 1 -3 16 -9 33 -16 43 0 75 51 102 54 27 61 27 122 -11 49 -29 51 -33 46 -65 -5 -30 -4 -34 11 -28 59 24 74 24 124 -1 28 -14 52 -24 54 -21 4 3 -65 52 -146 102 -19 12 -61 38 -92 58 -31 21 -62 37 -70 36 -7 0 -40 -18 -73 -39z" transform="translate(0,67) scale(0.1,-0.1)" stroke="none" fill="#7DADDE"/>

<path d="M550 640 c-25 -16 -64 -43 -88 -60 -24 -17 -55 -37 -70 -43 -27 -12 -322 -207 -371 -246 l-25 -19 48 -29 c75 -44 176 -108 236 -151 83 -58 146 -92 172 -92 17 0 8 10 -39 38 -34 20 -110 68 -170 106 -59 38 -128 82 -151 97 -24 15 -49 30 -55 32 -21 7 5 27 143 114 77 48 190 121 252 160 62 40 128 80 146 89 38 19 42 18 157 -57 38 -25 86 -54 105 -65 19 -10 37 -22 40 -25 5 -6 38 -27 218 -140 45 -29 82 -57 82 -63 0 -6 -71 -56 -158 -110 -294 -185 -281 -176 -248 -176 16 0 48 14 75 33 25 19 73 49 106 67 101 55 265 164 265 177 0 9 -92 77 -201 148 -17 11 -60 39 -96 63 -36 24 -71 46 -79 49 -7 2 -57 33 -111 69 -54 35 -107 64 -118 64 -11 0 -40 -14 -65 -30z" transform="translate(0,67) scale(0.1,-0.1)" stroke="none" fill="#7DADDE"/>

</g>

</g>
<g id="col3" transform="translate(366, -25.5)">
<g id="0" transform="translate(0,0.0)scale(0.8,0.8)">

<path d="M623 51 c-18 -15 -33 -31 -33 -34 0 -12 26 -8 46 8 19 15 19 15 -1 9 -16 -5 -14 -1 8 20 38 35 21 33 -20 -3z" transform="translate(0,67) scale(0.1,-0.1)" stroke="none" fill="#D1B1DB"/>

<path d="M632 251 c-11 -6 -6 -14 17 -30 17 -12 31 -19 31 -15 0 5 5 3 12 -4 7 -7 16 -12 21 -12 5 0 -3 10 -19 22 -16 13 -33 28 -39 35 -6 8 -15 9 -23 4z" transform="translate(0,67) scale(0.1,-0.1)" stroke="none" fill="#D1B1DB"/>

<path d="M538 208 c-24 -24 -30 -31 -13 -15 36 32 45 34 45 10 0 -15 2 -15 9 -4 5 8 16 11 26 8 9 -4 14 -3 10 3 -3 6 -13 10 -21 10 -8 0 -14 5 -14 11 0 6 9 9 20 6 11 -3 18 -1 14 4 -11 18 -33 8 -76 -33z" transform="translate(0,67) scale(0.1,-0.1)" stroke="none" fill="#2964D4"/>

<path d="M388 520 c-43 -27 -78 -52 -78 -55 0 -3 6 -2 13 2 120 76 159 104 145 103 -2 0 -38 -23 -80 -50z" transform="translate(0,67) scale(0.1,-0.1)" stroke="none" fill="#D1B1DB"/>

<path d="M880 220 c-6 -11 -23 -26 -38 -34 -15 -9 -21 -15 -14 -16 7 0 10 -5 6 -11 -8 -14 42 15 77 43 l24 20 -27 -16 c-37 -22 -41 -20 -22 9 9 14 14 25 11 25 -4 0 -11 -9 -17 -20z m-15 -40 c-3 -5 -12 -10 -18 -10 -7 0 -6 4 3 10 19 12 23 12 15 0z" transform="translate(0,67) scale(0.1,-0.1)" stroke="none" fill="#D1B1DB"/>

<path d="M477 153 c-4 -3 -7 -17 -7 -30 0 -17 -4 -22 -12 -17 -24 14 -2 -5 35 -30 21 -14 43 -26 50 -25 7 0 3 4 -8 9 -14 6 -15 9 -5 10 8 0 0 7 -19 15 -29 13 -33 19 -29 45 5 32 5 33 -5 23z" transform="translate(0,67) scale(0.1,-0.1)" stroke="none" fill="#548BDB"/>

<path d="M539 307 c21 -24 23 -29 11 -56 -7 -17 -16 -29 -20 -28 -4 1 -9 -2 -10 -8 -1 -5 -9 -19 -18 -30 -9 -10 4 -1 29 20 26 22 44 42 40 45 -3 3 -6 16 -6 29 0 14 -10 30 -25 39 l-25 16 24 -27z" transform="translate(0,67) scale(0.1,-0.1)" stroke="none" fill="#548BDB"/>

<path d="M240 245 c0 -7 133 -85 138 -81 8 9 -19 36 -52 53 -30 16 -86 34 -86 28z" transform="translate(0,67) scale(0.1,-0.1)" stroke="none" fill="#D1B1DB"/>

<path d="M455 174 c-12 -9 -30 -12 -47 -8 -16 3 -28 2 -28 -3 0 -8 71 -47 74 -41 1 2 10 15 19 30 26 42 19 50 -18 22z" transform="translate(0,67) scale(0.1,-0.1)" stroke="none" fill="#7DADDE"/>

<path d="M948 301 c3 -33 0 -41 -19 -52 -13 -6 -38 -28 -56 -47 -30 -32 -36 -34 -81 -30 -27 3 -63 12 -80 21 -31 15 -46 7 -19 -10 28 -17 36 -46 21 -75 -8 -15 -21 -28 -29 -28 -8 0 -29 -14 -47 -30 l-33 -31 38 18 c20 9 37 20 37 24 0 4 8 9 18 12 9 4 81 48 159 99 78 51 150 98 160 104 16 10 13 14 -25 37 -23 15 -43 27 -45 27 -1 0 -1 -18 1 -39z" transform="translate(0,67) scale(0.1,-0.1)" stroke="none" fill="#7DADDE"/>

<path d="M535 510 c-33 -21 -100 -64 -150 -96 -164 -104 -195 -124 -195 -128 0 -3 15 -14 34 -25 35 -22 61 -28 51 -11 -12 20 6 49 43 68 20 10 52 27 70 37 31 16 37 16 80 2 26 -9 48 -15 49 -13 2 1 -3 16 -9 33 -16 43 0 75 51 102 54 27 61 27 122 -11 49 -29 51 -33 46 -65 -5 -30 -4 -34 11 -28 59 24 74 24 124 -1 28 -14 52 -24 54 -21 4 3 -65 52 -146 102 -19 12 -61 38 -92 58 -31 21 -62 37 -70 36 -7 0 -40 -18 -73 -39z" transform="translate(0,67) scale(0.1,-0.1)" stroke="none" fill="#7DADDE"/>

<path d="M550 640 c-25 -16 -64 -43 -88 -60 -24 -17 -55 -37 -70 -43 -27 -12 -322 -207 -371 -246 l-25 -19 48 -29 c75 -44 176 -108 236 -151 83 -58 146 -92 172 -92 17 0 8 10 -39 38 -34 20 -110 68 -170 106 -59 38 -128 82 -151 97 -24 15 -49 30 -55 32 -21 7 5 27 143 114 77 48 190 121 252 160 62 40 128 80 146 89 38 19 42 18 157 -57 38 -25 86 -54 105 -65 19 -10 37 -22 40 -25 5 -6 38 -27 218 -140 45 -29 82 -57 82 -63 0 -6 -71 -56 -158 -110 -294 -185 -281 -176 -248 -176 16 0 48 14 75 33 25 19 73 49 106 67 101 55 265 164 265 177 0 9 -92 77 -201 148 -17 11 -60 39 -96 63 -36 24 -71 46 -79 49 -7 2 -57 33 -111 69 -54 35 -107 64 -118 64 -11 0 -40 -14 -65 -30z" transform="translate(0,67) scale(0.1,-0.1)" stroke="none" fill="#7DADDE"/>

</g>

<g id="1" transform="translate(0,67.0)scale(0.8,0.8)">

<path d="M623 51 c-18 -15 -33 -31 -33 -34 0 -12 26 -8 46 8 19 15 19 15 -1 9 -16 -5 -14 -1 8 20 38 35 21 33 -20 -3z" transform="translate(0,67) scale(0.1,-0.1)" stroke="none" fill="#D1B1DB"/>

<path d="M632 251 c-11 -6 -6 -14 17 -30 17 -12 31 -19 31 -15 0 5 5 3 12 -4 7 -7 16 -12 21 -12 5 0 -3 10 -19 22 -16 13 -33 28 -39 35 -6 8 -15 9 -23 4z" transform="translate(0,67) scale(0.1,-0.1)" stroke="none" fill="#D1B1DB"/>

<path d="M538 208 c-24 -24 -30 -31 -13 -15 36 32 45 34 45 10 0 -15 2 -15 9 -4 5 8 16 11 26 8 9 -4 14 -3 10 3 -3 6 -13 10 -21 10 -8 0 -14 5 -14 11 0 6 9 9 20 6 11 -3 18 -1 14 4 -11 18 -33 8 -76 -33z" transform="translate(0,67) scale(0.1,-0.1)" stroke="none" fill="#2964D4"/>

<path d="M388 520 c-43 -27 -78 -52 -78 -55 0 -3 6 -2 13 2 120 76 159 104 145 103 -2 0 -38 -23 -80 -50z" transform="translate(0,67) scale(0.1,-0.1)" stroke="none" fill="#D1B1DB"/>

<path d="M880 220 c-6 -11 -23 -26 -38 -34 -15 -9 -21 -15 -14 -16 7 0 10 -5 6 -11 -8 -14 42 15 77 43 l24 20 -27 -16 c-37 -22 -41 -20 -22 9 9 14 14 25 11 25 -4 0 -11 -9 -17 -20z m-15 -40 c-3 -5 -12 -10 -18 -10 -7 0 -6 4 3 10 19 12 23 12 15 0z" transform="translate(0,67) scale(0.1,-0.1)" stroke="none" fill="#D1B1DB"/>

<path d="M477 153 c-4 -3 -7 -17 -7 -30 0 -17 -4 -22 -12 -17 -24 14 -2 -5 35 -30 21 -14 43 -26 50 -25 7 0 3 4 -8 9 -14 6 -15 9 -5 10 8 0 0 7 -19 15 -29 13 -33 19 -29 45 5 32 5 33 -5 23z" transform="translate(0,67) scale(0.1,-0.1)" stroke="none" fill="#548BDB"/>

<path d="M539 307 c21 -24 23 -29 11 -56 -7 -17 -16 -29 -20 -28 -4 1 -9 -2 -10 -8 -1 -5 -9 -19 -18 -30 -9 -10 4 -1 29 20 26 22 44 42 40 45 -3 3 -6 16 -6 29 0 14 -10 30 -25 39 l-25 16 24 -27z" transform="translate(0,67) scale(0.1,-0.1)" stroke="none" fill="#548BDB"/>

<path d="M240 245 c0 -7 133 -85 138 -81 8 9 -19 36 -52 53 -30 16 -86 34 -86 28z" transform="translate(0,67) scale(0.1,-0.1)" stroke="none" fill="#D1B1DB"/>

<path d="M455 174 c-12 -9 -30 -12 -47 -8 -16 3 -28 2 -28 -3 0 -8 71 -47 74 -41 1 2 10 15 19 30 26 42 19 50 -18 22z" transform="translate(0,67) scale(0.1,-0.1)" stroke="none" fill="#7DADDE"/>

<path d="M948 301 c3 -33 0 -41 -19 -52 -13 -6 -38 -28 -56 -47 -30 -32 -36 -34 -81 -30 -27 3 -63 12 -80 21 -31 15 -46 7 -19 -10 28 -17 36 -46 21 -75 -8 -15 -21 -28 -29 -28 -8 0 -29 -14 -47 -30 l-33 -31 38 18 c20 9 37 20 37 24 0 4 8 9 18 12 9 4 81 48 159 99 78 51 150 98 160 104 16 10 13 14 -25 37 -23 15 -43 27 -45 27 -1 0 -1 -18 1 -39z" transform="translate(0,67) scale(0.1,-0.1)" stroke="none" fill="#7DADDE"/>

<path d="M535 510 c-33 -21 -100 -64 -150 -96 -164 -104 -195 -124 -195 -128 0 -3 15 -14 34 -25 35 -22 61 -28 51 -11 -12 20 6 49 43 68 20 10 52 27 70 37 31 16 37 16 80 2 26 -9 48 -15 49 -13 2 1 -3 16 -9 33 -16 43 0 75 51 102 54 27 61 27 122 -11 49 -29 51 -33 46 -65 -5 -30 -4 -34 11 -28 59 24 74 24 124 -1 28 -14 52 -24 54 -21 4 3 -65 52 -146 102 -19 12 -61 38 -92 58 -31 21 -62 37 -70 36 -7 0 -40 -18 -73 -39z" transform="translate(0,67) scale(0.1,-0.1)" stroke="none" fill="#7DADDE"/>

<path d="M550 640 c-25 -16 -64 -43 -88 -60 -24 -17 -55 -37 -70 -43 -27 -12 -322 -207 -371 -246 l-25 -19 48 -29 c75 -44 176 -108 236 -151 83 -58 146 -92 172 -92 17 0 8 10 -39 38 -34 20 -110 68 -170 106 -59 38 -128 82 -151 97 -24 15 -49 30 -55 32 -21 7 5 27 143 114 77 48 190 121 252 160 62 40 128 80 146 89 38 19 42 18 157 -57 38 -25 86 -54 105 -65 19 -10 37 -22 40 -25 5 -6 38 -27 218 -140 45 -29 82 -57 82 -63 0 -6 -71 -56 -158 -110 -294 -185 -281 -176 -248 -176 16 0 48 14 75 33 25 19 73 49 106 67 101 55 265 164 265 177 0 9 -92 77 -201 148 -17 11 -60 39 -96 63 -36 24 -71 46 -79 49 -7 2 -57 33 -111 69 -54 35 -107 64 -118 64 -11 0 -40 -14 -65 -30z" transform="translate(0,67) scale(0.1,-0.1)" stroke="none" fill="#7DADDE"/>

</g>

<g id="2" transform="translate(0,134.0)scale(0.8,0.8)">

<path d="M623 51 c-18 -15 -33 -31 -33 -34 0 -12 26 -8 46 8 19 15 19 15 -1 9 -16 -5 -14 -1 8 20 38 35 21 33 -20 -3z" transform="translate(0,67) scale(0.1,-0.1)" stroke="none" fill="#D1B1DB"/>

<path d="M632 251 c-11 -6 -6 -14 17 -30 17 -12 31 -19 31 -15 0 5 5 3 12 -4 7 -7 16 -12 21 -12 5 0 -3 10 -19 22 -16 13 -33 28 -39 35 -6 8 -15 9 -23 4z" transform="translate(0,67) scale(0.1,-0.1)" stroke="none" fill="#D1B1DB"/>

<path d="M538 208 c-24 -24 -30 -31 -13 -15 36 32 45 34 45 10 0 -15 2 -15 9 -4 5 8 16 11 26 8 9 -4 14 -3 10 3 -3 6 -13 10 -21 10 -8 0 -14 5 -14 11 0 6 9 9 20 6 11 -3 18 -1 14 4 -11 18 -33 8 -76 -33z" transform="translate(0,67) scale(0.1,-0.1)" stroke="none" fill="#2964D4"/>

<path d="M388 520 c-43 -27 -78 -52 -78 -55 0 -3 6 -2 13 2 120 76 159 104 145 103 -2 0 -38 -23 -80 -50z" transform="translate(0,67) scale(0.1,-0.1)" stroke="none" fill="#D1B1DB"/>

<path d="M880 220 c-6 -11 -23 -26 -38 -34 -15 -9 -21 -15 -14 -16 7 0 10 -5 6 -11 -8 -14 42 15 77 43 l24 20 -27 -16 c-37 -22 -41 -20 -22 9 9 14 14 25 11 25 -4 0 -11 -9 -17 -20z m-15 -40 c-3 -5 -12 -10 -18 -10 -7 0 -6 4 3 10 19 12 23 12 15 0z" transform="translate(0,67) scale(0.1,-0.1)" stroke="none" fill="#D1B1DB"/>

<path d="M477 153 c-4 -3 -7 -17 -7 -30 0 -17 -4 -22 -12 -17 -24 14 -2 -5 35 -30 21 -14 43 -26 50 -25 7 0 3 4 -8 9 -14 6 -15 9 -5 10 8 0 0 7 -19 15 -29 13 -33 19 -29 45 5 32 5 33 -5 23z" transform="translate(0,67) scale(0.1,-0.1)" stroke="none" fill="#548BDB"/>

<path d="M539 307 c21 -24 23 -29 11 -56 -7 -17 -16 -29 -20 -28 -4 1 -9 -2 -10 -8 -1 -5 -9 -19 -18 -30 -9 -10 4 -1 29 20 26 22 44 42 40 45 -3 3 -6 16 -6 29 0 14 -10 30 -25 39 l-25 16 24 -27z" transform="translate(0,67) scale(0.1,-0.1)" stroke="none" fill="#548BDB"/>

<path d="M240 245 c0 -7 133 -85 138 -81 8 9 -19 36 -52 53 -30 16 -86 34 -86 28z" transform="translate(0,67) scale(0.1,-0.1)" stroke="none" fill="#D1B1DB"/>

<path d="M455 174 c-12 -9 -30 -12 -47 -8 -16 3 -28 2 -28 -3 0 -8 71 -47 74 -41 1 2 10 15 19 30 26 42 19 50 -18 22z" transform="translate(0,67) scale(0.1,-0.1)" stroke="none" fill="#7DADDE"/>

<path d="M948 301 c3 -33 0 -41 -19 -52 -13 -6 -38 -28 -56 -47 -30 -32 -36 -34 -81 -30 -27 3 -63 12 -80 21 -31 15 -46 7 -19 -10 28 -17 36 -46 21 -75 -8 -15 -21 -28 -29 -28 -8 0 -29 -14 -47 -30 l-33 -31 38 18 c20 9 37 20 37 24 0 4 8 9 18 12 9 4 81 48 159 99 78 51 150 98 160 104 16 10 13 14 -25 37 -23 15 -43 27 -45 27 -1 0 -1 -18 1 -39z" transform="translate(0,67) scale(0.1,-0.1)" stroke="none" fill="#7DADDE"/>

<path d="M535 510 c-33 -21 -100 -64 -150 -96 -164 -104 -195 -124 -195 -128 0 -3 15 -14 34 -25 35 -22 61 -28 51 -11 -12 20 6 49 43 68 20 10 52 27 70 37 31 16 37 16 80 2 26 -9 48 -15 49 -13 2 1 -3 16 -9 33 -16 43 0 75 51 102 54 27 61 27 122 -11 49 -29 51 -33 46 -65 -5 -30 -4 -34 11 -28 59 24 74 24 124 -1 28 -14 52 -24 54 -21 4 3 -65 52 -146 102 -19 12 -61 38 -92 58 -31 21 -62 37 -70 36 -7 0 -40 -18 -73 -39z" transform="translate(0,67) scale(0.1,-0.1)" stroke="none" fill="#7DADDE"/>

<path d="M550 640 c-25 -16 -64 -43 -88 -60 -24 -17 -55 -37 -70 -43 -27 -12 -322 -207 -371 -246 l-25 -19 48 -29 c75 -44 176 -108 236 -151 83 -58 146 -92 172 -92 17 0 8 10 -39 38 -34 20 -110 68 -170 106 -59 38 -128 82 -151 97 -24 15 -49 30 -55 32 -21 7 5 27 143 114 77 48 190 121 252 160 62 40 128 80 146 89 38 19 42 18 157 -57 38 -25 86 -54 105 -65 19 -10 37 -22 40 -25 5 -6 38 -27 218 -140 45 -29 82 -57 82 -63 0 -6 -71 -56 -158 -110 -294 -185 -281 -176 -248 -176 16 0 48 14 75 33 25 19 73 49 106 67 101 55 265 164 265 177 0 9 -92 77 -201 148 -17 11 -60 39 -96 63 -36 24 -71 46 -79 49 -7 2 -57 33 -111 69 -54 35 -107 64 -118 64 -11 0 -40 -14 -65 -30z" transform="translate(0,67) scale(0.1,-0.1)" stroke="none" fill="#7DADDE"/>

</g>

<g id="3" transform="translate(0,201.0)scale(0.8,0.8)">

<path d="M623 51 c-18 -15 -33 -31 -33 -34 0 -12 26 -8 46 8 19 15 19 15 -1 9 -16 -5 -14 -1 8 20 38 35 21 33 -20 -3z" transform="translate(0,67) scale(0.1,-0.1)" stroke="none" fill="#D1B1DB"/>

<path d="M632 251 c-11 -6 -6 -14 17 -30 17 -12 31 -19 31 -15 0 5 5 3 12 -4 7 -7 16 -12 21 -12 5 0 -3 10 -19 22 -16 13 -33 28 -39 35 -6 8 -15 9 -23 4z" transform="translate(0,67) scale(0.1,-0.1)" stroke="none" fill="#D1B1DB"/>

<path d="M538 208 c-24 -24 -30 -31 -13 -15 36 32 45 34 45 10 0 -15 2 -15 9 -4 5 8 16 11 26 8 9 -4 14 -3 10 3 -3 6 -13 10 -21 10 -8 0 -14 5 -14 11 0 6 9 9 20 6 11 -3 18 -1 14 4 -11 18 -33 8 -76 -33z" transform="translate(0,67) scale(0.1,-0.1)" stroke="none" fill="#2964D4"/>

<path d="M388 520 c-43 -27 -78 -52 -78 -55 0 -3 6 -2 13 2 120 76 159 104 145 103 -2 0 -38 -23 -80 -50z" transform="translate(0,67) scale(0.1,-0.1)" stroke="none" fill="#D1B1DB"/>

<path d="M880 220 c-6 -11 -23 -26 -38 -34 -15 -9 -21 -15 -14 -16 7 0 10 -5 6 -11 -8 -14 42 15 77 43 l24 20 -27 -16 c-37 -22 -41 -20 -22 9 9 14 14 25 11 25 -4 0 -11 -9 -17 -20z m-15 -40 c-3 -5 -12 -10 -18 -10 -7 0 -6 4 3 10 19 12 23 12 15 0z" transform="translate(0,67) scale(0.1,-0.1)" stroke="none" fill="#D1B1DB"/>

<path d="M477 153 c-4 -3 -7 -17 -7 -30 0 -17 -4 -22 -12 -17 -24 14 -2 -5 35 -30 21 -14 43 -26 50 -25 7 0 3 4 -8 9 -14 6 -15 9 -5 10 8 0 0 7 -19 15 -29 13 -33 19 -29 45 5 32 5 33 -5 23z" transform="translate(0,67) scale(0.1,-0.1)" stroke="none" fill="#548BDB"/>

<path d="M539 307 c21 -24 23 -29 11 -56 -7 -17 -16 -29 -20 -28 -4 1 -9 -2 -10 -8 -1 -5 -9 -19 -18 -30 -9 -10 4 -1 29 20 26 22 44 42 40 45 -3 3 -6 16 -6 29 0 14 -10 30 -25 39 l-25 16 24 -27z" transform="translate(0,67) scale(0.1,-0.1)" stroke="none" fill="#548BDB"/>

<path d="M240 245 c0 -7 133 -85 138 -81 8 9 -19 36 -52 53 -30 16 -86 34 -86 28z" transform="translate(0,67) scale(0.1,-0.1)" stroke="none" fill="#D1B1DB"/>

<path d="M455 174 c-12 -9 -30 -12 -47 -8 -16 3 -28 2 -28 -3 0 -8 71 -47 74 -41 1 2 10 15 19 30 26 42 19 50 -18 22z" transform="translate(0,67) scale(0.1,-0.1)" stroke="none" fill="#7DADDE"/>

<path d="M948 301 c3 -33 0 -41 -19 -52 -13 -6 -38 -28 -56 -47 -30 -32 -36 -34 -81 -30 -27 3 -63 12 -80 21 -31 15 -46 7 -19 -10 28 -17 36 -46 21 -75 -8 -15 -21 -28 -29 -28 -8 0 -29 -14 -47 -30 l-33 -31 38 18 c20 9 37 20 37 24 0 4 8 9 18 12 9 4 81 48 159 99 78 51 150 98 160 104 16 10 13 14 -25 37 -23 15 -43 27 -45 27 -1 0 -1 -18 1 -39z" transform="translate(0,67) scale(0.1,-0.1)" stroke="none" fill="#7DADDE"/>

<path d="M535 510 c-33 -21 -100 -64 -150 -96 -164 -104 -195 -124 -195 -128 0 -3 15 -14 34 -25 35 -22 61 -28 51 -11 -12 20 6 49 43 68 20 10 52 27 70 37 31 16 37 16 80 2 26 -9 48 -15 49 -13 2 1 -3 16 -9 33 -16 43 0 75 51 102 54 27 61 27 122 -11 49 -29 51 -33 46 -65 -5 -30 -4 -34 11 -28 59 24 74 24 124 -1 28 -14 52 -24 54 -21 4 3 -65 52 -146 102 -19 12 -61 38 -92 58 -31 21 -62 37 -70 36 -7 0 -40 -18 -73 -39z" transform="translate(0,67) scale(0.1,-0.1)" stroke="none" fill="#7DADDE"/>

<path d="M550 640 c-25 -16 -64 -43 -88 -60 -24 -17 -55 -37 -70 -43 -27 -12 -322 -207 -371 -246 l-25 -19 48 -29 c75 -44 176 -108 236 -151 83 -58 146 -92 172 -92 17 0 8 10 -39 38 -34 20 -110 68 -170 106 -59 38 -128 82 -151 97 -24 15 -49 30 -55 32 -21 7 5 27 143 114 77 48 190 121 252 160 62 40 128 80 146 89 38 19 42 18 157 -57 38 -25 86 -54 105 -65 19 -10 37 -22 40 -25 5 -6 38 -27 218 -140 45 -29 82 -57 82 -63 0 -6 -71 -56 -158 -110 -294 -185 -281 -176 -248 -176 16 0 48 14 75 33 25 19 73 49 106 67 101 55 265 164 265 177 0 9 -92 77 -201 148 -17 11 -60 39 -96 63 -36 24 -71 46 -79 49 -7 2 -57 33 -111 69 -54 35 -107 64 -118 64 -11 0 -40 -14 -65 -30z" transform="translate(0,67) scale(0.1,-0.1)" stroke="none" fill="#7DADDE"/>

</g>

<g id="4" transform="translate(0,268.0)scale(0.8,0.8)">

<path d="M623 51 c-18 -15 -33 -31 -33 -34 0 -12 26 -8 46 8 19 15 19 15 -1 9 -16 -5 -14 -1 8 20 38 35 21 33 -20 -3z" transform="translate(0,67) scale(0.1,-0.1)" stroke="none" fill="#D1B1DB"/>

<path d="M632 251 c-11 -6 -6 -14 17 -30 17 -12 31 -19 31 -15 0 5 5 3 12 -4 7 -7 16 -12 21 -12 5 0 -3 10 -19 22 -16 13 -33 28 -39 35 -6 8 -15 9 -23 4z" transform="translate(0,67) scale(0.1,-0.1)" stroke="none" fill="#D1B1DB"/>

<path d="M538 208 c-24 -24 -30 -31 -13 -15 36 32 45 34 45 10 0 -15 2 -15 9 -4 5 8 16 11 26 8 9 -4 14 -3 10 3 -3 6 -13 10 -21 10 -8 0 -14 5 -14 11 0 6 9 9 20 6 11 -3 18 -1 14 4 -11 18 -33 8 -76 -33z" transform="translate(0,67) scale(0.1,-0.1)" stroke="none" fill="#2964D4"/>

<path d="M388 520 c-43 -27 -78 -52 -78 -55 0 -3 6 -2 13 2 120 76 159 104 145 103 -2 0 -38 -23 -80 -50z" transform="translate(0,67) scale(0.1,-0.1)" stroke="none" fill="#D1B1DB"/>

<path d="M880 220 c-6 -11 -23 -26 -38 -34 -15 -9 -21 -15 -14 -16 7 0 10 -5 6 -11 -8 -14 42 15 77 43 l24 20 -27 -16 c-37 -22 -41 -20 -22 9 9 14 14 25 11 25 -4 0 -11 -9 -17 -20z m-15 -40 c-3 -5 -12 -10 -18 -10 -7 0 -6 4 3 10 19 12 23 12 15 0z" transform="translate(0,67) scale(0.1,-0.1)" stroke="none" fill="#D1B1DB"/>

<path d="M477 153 c-4 -3 -7 -17 -7 -30 0 -17 -4 -22 -12 -17 -24 14 -2 -5 35 -30 21 -14 43 -26 50 -25 7 0 3 4 -8 9 -14 6 -15 9 -5 10 8 0 0 7 -19 15 -29 13 -33 19 -29 45 5 32 5 33 -5 23z" transform="translate(0,67) scale(0.1,-0.1)" stroke="none" fill="#548BDB"/>

<path d="M539 307 c21 -24 23 -29 11 -56 -7 -17 -16 -29 -20 -28 -4 1 -9 -2 -10 -8 -1 -5 -9 -19 -18 -30 -9 -10 4 -1 29 20 26 22 44 42 40 45 -3 3 -6 16 -6 29 0 14 -10 30 -25 39 l-25 16 24 -27z" transform="translate(0,67) scale(0.1,-0.1)" stroke="none" fill="#548BDB"/>

<path d="M240 245 c0 -7 133 -85 138 -81 8 9 -19 36 -52 53 -30 16 -86 34 -86 28z" transform="translate(0,67) scale(0.1,-0.1)" stroke="none" fill="#D1B1DB"/>

<path d="M455 174 c-12 -9 -30 -12 -47 -8 -16 3 -28 2 -28 -3 0 -8 71 -47 74 -41 1 2 10 15 19 30 26 42 19 50 -18 22z" transform="translate(0,67) scale(0.1,-0.1)" stroke="none" fill="#7DADDE"/>

<path d="M948 301 c3 -33 0 -41 -19 -52 -13 -6 -38 -28 -56 -47 -30 -32 -36 -34 -81 -30 -27 3 -63 12 -80 21 -31 15 -46 7 -19 -10 28 -17 36 -46 21 -75 -8 -15 -21 -28 -29 -28 -8 0 -29 -14 -47 -30 l-33 -31 38 18 c20 9 37 20 37 24 0 4 8 9 18 12 9 4 81 48 159 99 78 51 150 98 160 104 16 10 13 14 -25 37 -23 15 -43 27 -45 27 -1 0 -1 -18 1 -39z" transform="translate(0,67) scale(0.1,-0.1)" stroke="none" fill="#7DADDE"/>

<path d="M535 510 c-33 -21 -100 -64 -150 -96 -164 -104 -195 -124 -195 -128 0 -3 15 -14 34 -25 35 -22 61 -28 51 -11 -12 20 6 49 43 68 20 10 52 27 70 37 31 16 37 16 80 2 26 -9 48 -15 49 -13 2 1 -3 16 -9 33 -16 43 0 75 51 102 54 27 61 27 122 -11 49 -29 51 -33 46 -65 -5 -30 -4 -34 11 -28 59 24 74 24 124 -1 28 -14 52 -24 54 -21 4 3 -65 52 -146 102 -19 12 -61 38 -92 58 -31 21 -62 37 -70 36 -7 0 -40 -18 -73 -39z" transform="translate(0,67) scale(0.1,-0.1)" stroke="none" fill="#7DADDE"/>

<path d="M550 640 c-25 -16 -64 -43 -88 -60 -24 -17 -55 -37 -70 -43 -27 -12 -322 -207 -371 -246 l-25 -19 48 -29 c75 -44 176 -108 236 -151 83 -58 146 -92 172 -92 17 0 8 10 -39 38 -34 20 -110 68 -170 106 -59 38 -128 82 -151 97 -24 15 -49 30 -55 32 -21 7 5 27 143 114 77 48 190 121 252 160 62 40 128 80 146 89 38 19 42 18 157 -57 38 -25 86 -54 105 -65 19 -10 37 -22 40 -25 5 -6 38 -27 218 -140 45 -29 82 -57 82 -63 0 -6 -71 -56 -158 -110 -294 -185 -281 -176 -248 -176 16 0 48 14 75 33 25 19 73 49 106 67 101 55 265 164 265 177 0 9 -92 77 -201 148 -17 11 -60 39 -96 63 -36 24 -71 46 -79 49 -7 2 -57 33 -111 69 -54 35 -107 64 -118 64 -11 0 -40 -14 -65 -30z" transform="translate(0,67) scale(0.1,-0.1)" stroke="none" fill="#7DADDE"/>

</g>

</g>
</svg>