<?xml version="1.0" standalone="no"?>
<!DOCTYPE svg PUBLIC "-//W3C//DTD SVG 20010904//EN"
 "http://www.w3.org/TR/2001/REC-SVG-20010904/DTD/svg10.dtd">
<svg version="1.0" xmlns="http://www.w3.org/2000/svg" 
width="128.000000pt" height="158.000000pt" viewBox="0 0 128.000000 158.000000"
preserveAspectRatio = "xMidYMid meet" >
<metadata>
Created by ZoeQU, 2022
</metadata>
<rect width="128.000000" height="158.000000" fill="#39291D"/>
<path d="M310 1281 c-7 -22 -10 -53 -7 -70 8 -39 0 -39 -94 -1 -78 31 -109 37 -109 19 0 -5 5 -7 11 -4 6 4 49 -7 95 -25 100 -37 115 -35 107 14 -3 20 0 49 7 66 7 17 11 33 8 35 -3 3 -11 -13 -18 -34z" transform="translate(0.000000,158.000000) scale(0.100000,-0.100000)" stroke="none" fill="#E5CEAE"/>

<path d="M64 1056 c-8 -34 3 -64 32 -83 23 -15 24 -17 8 -34 -19 -21 -14 -36 25 -88 21 -28 53 -25 92 9 22 18 20 18 -19 -3 l-43 -22 -30 35 c-33 39 -36 55 -11 69 15 9 14 13 -17 41 -29 27 -33 36 -28 66 7 39 0 46 -9 10z" transform="translate(0.000000,158.000000) scale(0.100000,-0.100000)" stroke="none" fill="#E5CEAE"/>

<path d="M1181 587 c-8 -15 -67 -52 -162 -101 -82 -43 -149 -80 -149 -82 0 -3 67 29 149 71 95 48 155 85 166 101 9 14 15 28 12 30 -2 2 -9 -7 -16 -19z" transform="translate(0.000000,158.000000) scale(0.100000,-0.100000)" stroke="none" fill="#E5CEAE"/>

<path d="M600 256 c-60 -39 -142 -85 -234 -131 -49 -25 -84 -45 -78 -45 13 0 146 67 242 122 72 41 127 78 115 77 -6 0 -26 -10 -45 -23z" transform="translate(0.000000,158.000000) scale(0.100000,-0.100000)" stroke="none" fill="#E5CEAE"/>

<path d="M850 934 c17 -22 28 -47 25 -55 -3 -9 3 -24 15 -34 11 -10 20 -31 20 -46 0 -23 -6 -30 -26 -35 -23 -6 -35 2 -87 55 -33 33 -63 61 -67 61 -5 0 22 -29 59 -65 37 -36 76 -65 87 -65 28 0 44 19 44 53 0 16 4 26 10 22 15 -10 12 6 -6 26 -9 10 -22 15 -30 12 -8 -3 -14 -1 -14 5 0 6 4 12 10 14 5 2 -8 23 -31 48 -40 44 -40 44 -9 4z m65 -84 c3 -5 1 -10 -4 -10 -6 0 -11 5 -11 10 0 6 2 10 4 10 3 0 8 -4 11 -10z" transform="translate(0.000000,158.000000) scale(0.100000,-0.100000)" stroke="none" fill="#E5CEAE"/>

<path d="M126 1084 c-28 -28 -16 -57 37 -83 l47 -24 30 21 c16 12 34 22 40 22 5 0 10 6 10 14 0 7 -27 23 -62 36 -35 13 -68 25 -74 27 -6 2 -19 -3 -28 -13z" transform="translate(0.000000,158.000000) scale(0.100000,-0.100000)" stroke="none" fill="#765339"/>

<path d="M934 707 c-83 -43 -94 -54 -94 -92 0 -18 -10 -56 -22 -85 -23 -55 -18 -82 15 -88 9 -2 79 29 157 68 107 55 144 78 155 100 22 42 19 54 -19 94 -30 32 -39 36 -82 35 -35 0 -67 -10 -110 -32z" transform="translate(0.000000,158.000000) scale(0.100000,-0.100000)" stroke="none" fill="#E5CEAE"/>

<path d="M393 440 c-3 -11 -12 -20 -20 -20 -9 0 -11 5 -7 13 5 8 3 8 -9 -2 -9 -7 -14 -17 -11 -22 3 -5 -2 -9 -11 -9 -10 0 -13 5 -9 13 5 8 3 8 -9 -2 -9 -7 -15 -17 -12 -21 3 -4 -2 -11 -11 -14 -12 -5 -15 -2 -10 10 5 14 4 15 -9 4 -8 -7 -12 -16 -9 -21 3 -5 -2 -9 -11 -9 -10 0 -13 5 -9 13 5 8 3 8 -9 -2 -9 -7 -14 -17 -11 -22 3 -5 -2 -9 -11 -9 -10 0 -13 5 -9 13 5 8 3 8 -9 -2 -9 -7 -14 -17 -11 -22 3 -5 -2 -9 -11 -9 -10 0 -13 5 -9 13 5 8 2 7 -9 -2 -10 -8 -15 -16 -12 -19 3 -3 -4 -11 -15 -19 -61 -43 36 -173 129 -173 38 0 106 30 153 67 20 17 62 43 92 59 31 16 56 35 56 41 0 7 -15 20 -32 29 -50 25 -88 65 -88 92 0 15 -7 26 -20 29 -11 3 -17 9 -14 14 3 5 2 9 -1 9 -4 0 -9 -9 -12 -20z m27 -39 c0 -11 4 -22 9 -25 5 -4 4 -18 -4 -34 -7 -15 -16 -55 -20 -90 l-7 -63 -52 -29 c-28 -17 -56 -30 -63 -30 -11 0 -9 26 5 60 3 8 6 22 6 30 1 8 12 49 26 92 18 54 32 81 50 92 34 21 50 20 50 -3z m120 -115 c0 -2 -7 -7 -16 -10 -8 -3 -12 -2 -9 4 6 10 25 14 25 6z" transform="translate(0.000000,158.000000) scale(0.100000,-0.100000)" stroke="none" fill="#E5CEAE"/>

<path d="M372 1444 c-40 -28 -46 -51 -21 -85 21 -29 21 -33 6 -78 -18 -57 -7 -128 26 -173 l21 -28 125 0 c177 0 190 5 221 81 14 34 32 64 40 67 53 19 68 85 28 122 -25 23 -34 24 -67 6 -21 -11 -26 -10 -50 11 -42 40 -89 55 -151 50 -30 -3 -63 -8 -72 -12 -13 -5 -18 -2 -18 8 0 16 -36 47 -55 47 -6 0 -21 -7 -33 -16z m96 -191 c5 -17 -26 -29 -40 -15 -6 6 -7 15 -3 22 9 14 37 9 43 -7z m209 -39 c5 -15 -20 -24 -37 -14 -7 4 -9 13 -5 19 8 14 37 11 42 -5z m-130 -20 c3 -8 1 -20 -6 -27 -14 -14 -47 15 -37 32 10 16 36 13 43 -5z" transform="translate(0.000000,158.000000) scale(0.100000,-0.100000)" stroke="none" fill="#765339"/>

<path d="M685 1009 c-22 -5 -101 -8 -176 -7 -133 1 -135 0 -164 -26 l-28 -26 31 -12 c28 -11 49 -39 45 -59 -9 -35 40 -229 57 -229 4 0 20 -18 35 -40 l28 -41 -18 -80 -19 -80 30 -26 c38 -33 102 -65 114 -58 15 9 12 51 -5 65 -21 17 -18 54 10 134 19 55 22 72 12 87 -16 25 5 49 30 33 36 -22 38 -40 14 -110 l-23 -66 33 -34 c22 -23 42 -34 61 -34 31 0 37 20 13 40 -22 18 -18 54 10 108 33 62 32 80 -11 127 -53 59 -62 85 -51 150 6 30 13 55 17 55 4 0 34 -28 67 -61 52 -53 64 -61 87 -55 49 12 35 51 -59 156 -46 52 -88 95 -92 96 -4 1 -26 -2 -48 -7z" transform="translate(0.000000,158.000000) scale(0.100000,-0.100000)" stroke="none" fill="#765339"/>

<path d="M375 1481 c-32 -7 -75 -60 -75 -93 0 -10 7 -33 16 -50 13 -25 13 -35 4 -59 -7 -16 -10 -45 -7 -65 8 -50 -7 -51 -108 -13 -53 20 -90 28 -95 23 -5 -5 -18 -27 -29 -49 -17 -34 -18 -42 -6 -51 11 -8 12 -19 5 -45 -16 -53 -12 -68 23 -100 29 -27 30 -31 15 -40 -10 -6 -18 -15 -18 -21 0 -17 49 -78 63 -78 7 0 39 16 71 36 51 30 65 34 90 27 31 -9 31 -9 36 -93 6 -95 31 -158 80 -205 17 -16 30 -37 30 -47 0 -35 -31 -96 -53 -103 l-22 -6 23 -9 c14 -6 22 -18 22 -33 0 -26 39 -66 88 -91 17 -9 32 -22 32 -29 0 -6 -25 -25 -56 -41 -30 -16 -72 -42 -92 -59 -47 -37 -115 -67 -153 -67 -94 0 -190 130 -128 173 13 10 16 17 10 22 -6 3 -14 -1 -17 -9 -3 -9 -14 -16 -24 -16 -20 0 -29 -32 -21 -67 15 -58 122 -143 179 -143 28 0 189 83 335 171 26 16 49 29 51 29 2 0 57 31 123 68 65 37 182 101 259 141 143 75 174 101 174 151 0 67 -108 163 -140 125 -8 -10 -18 -11 -35 -5 -18 7 -36 3 -74 -16 -28 -14 -51 -30 -51 -35 0 -5 -9 -9 -19 -9 -11 0 -23 -4 -26 -10 -13 -21 -44 -9 -74 29 -52 65 -33 100 23 42 40 -41 81 -47 112 -16 24 24 32 69 14 80 -6 4 -10 -6 -10 -22 0 -16 -5 -34 -12 -41 -24 -24 -53 -11 -115 50 -34 34 -65 60 -67 57 -3 -3 -7 -30 -8 -61 -2 -52 1 -60 40 -110 49 -63 54 -97 24 -155 -26 -49 -28 -86 -7 -103 40 -34 -10 -69 -58 -41 -16 9 -37 26 -49 38 l-20 22 25 70 c22 62 23 72 10 90 -8 12 -21 21 -29 21 -16 0 -19 -21 -4 -36 9 -9 -24 -120 -45 -154 -4 -6 5 -31 19 -56 14 -24 23 -51 19 -59 -8 -24 -55 -17 -104 13 -73 47 -76 53 -56 130 23 91 22 104 -14 138 -53 49 -74 119 -88 287 -1 4 -17 15 -36 24 -38 18 -45 40 -18 50 9 4 25 15 36 26 10 10 24 16 31 14 53 -20 193 -17 321 8 27 5 34 1 80 -57 58 -73 114 -132 121 -126 2 3 -4 13 -14 24 -57 63 -122 161 -128 191 -8 41 10 108 34 128 66 56 72 64 72 105 0 74 -57 123 -119 102 -27 -10 -34 -7 -61 18 -34 32 -84 44 -164 38 -39 -2 -59 1 -72 13 -25 22 -52 28 -89 20z m80 -49 c8 -19 14 -21 40 -15 77 20 188 -4 218 -48 15 -20 16 -20 41 -3 24 15 30 15 53 3 51 -28 56 -119 6 -142 -17 -7 -37 -34 -57 -77 -31 -63 -33 -65 -76 -72 -25 -3 -97 -7 -161 -7 l-116 -1 -27 39 c-33 47 -45 134 -26 181 10 25 10 34 -4 55 -20 31 -20 59 0 91 14 21 23 25 58 22 31 -2 43 -8 51 -26z m-241 -347 c11 -8 31 -15 45 -15 14 0 32 -4 39 -8 15 -10 5 -42 -13 -42 -6 0 -20 -9 -30 -20 -22 -24 -46 -25 -102 -4 -48 18 -63 47 -43 83 13 25 74 29 104 6z m912 -381 c38 -40 41 -52 19 -94 -11 -22 -48 -45 -155 -100 -78 -39 -148 -70 -157 -68 -33 6 -38 33 -15 88 12 29 22 67 22 85 0 38 11 49 94 92 43 22 75 32 110 32 43 1 52 -3 82 -35z" transform="translate(0.000000,158.000000) scale(0.100000,-0.100000)" stroke="none" fill="#D07736"/>

</svg>