<?xml version="1.0" standalone="no"?>
<!DOCTYPE svg PUBLIC "-//W3C//DTD SVG 20010904//EN"
 "http://www.w3.org/TR/2001/REC-SVG-20010904/DTD/svg10.dtd">
<svg version="1.0" xmlns="http://www.w3.org/2000/svg" width="520pt" height="524pt" viewBox="0 0 520 524" preserveAspectRatio = "xMidYMid meet" >
<metadata>
Created by ZoeQu, written in 2022
</metadata>
<rect width="520" height="524" fill="#394E52"/>
<g id="row0" transform="translate(17,0.0)">
<g id="0" transform="translate(0.0,0)scale(1,1)">

<path d="M560 1254 c-71 -9 -207 -47 -270 -75 -75 -34 -220 -129 -220 -144 0 -5 7 -18 14 -28 13 -17 17 -16 63 16 159 114 337 167 557 167 155 0 281 -26 403 -84 l73 -35 15 22 c14 20 14 23 -7 39 -34 26 -158 76 -246 100 -76 20 -296 32 -382 22z" transform="translate(0,131) scale(0.1,-0.1)" stroke="none" fill="#B08E79"/>

<path d="M1130 1000 c0 -6 -27 -58 -61 -116 -33 -58 -84 -152 -114 -209 -29 -57 -68 -125 -86 -152 -18 -26 -34 -54 -34 -63 -3 -37 -28 -121 -38 -127 -7 -4 -8 0 -3 13 12 27 26 88 21 92 -2 2 -18 -24 -36 -58 -18 -34 -46 -76 -62 -93 l-29 -32 -35 40 c-19 22 -39 39 -43 38 -12 -3 -200 182 -200 196 0 19 14 11 45 -27 17 -20 59 -64 94 -97 l65 -60 -55 66 c-30 36 -112 138 -182 227 -70 89 -135 162 -144 162 -9 0 -13 6 -10 14 3 8 -4 22 -16 33 -21 18 -21 18 -7 -2 8 -11 -2 -5 -21 13 -36 33 -49 39 -49 22 0 -14 163 -202 199 -228 17 -12 31 -28 31 -34 0 -7 -9 -2 -20 10 -12 12 -25 22 -30 22 -4 0 -22 12 -39 26 -47 39 -37 14 14 -36 46 -46 57 -70 29 -70 -8 0 -24 -5 -35 -10 -16 -9 -17 -13 -7 -23 28 -27 71 -57 82 -57 6 0 3 5 -6 11 -10 5 -18 14 -18 20 0 5 12 2 26 -7 22 -15 24 -18 9 -27 -14 -7 -5 -20 57 -80 40 -40 78 -71 84 -69 6 1 19 -10 28 -25 l17 -28 -21 24 c-11 13 -23 21 -27 17 -8 -7 92 -112 122 -128 14 -7 11 -1 -9 21 -17 17 -25 31 -19 31 15 0 59 -53 83 -99 10 -20 28 -42 40 -49 26 -16 39 -7 74 52 92 154 114 195 118 216 1 14 6 20 10 15 10 -16 -15 -77 -75 -177 -62 -104 -83 -149 -50 -108 34 43 154 251 205 353 27 55 61 115 77 135 16 21 52 82 81 137 29 55 61 115 72 133 15 25 18 36 9 45 -8 8 -11 8 -11 -1 0 -7 -4 -12 -10 -12 -5 0 -7 13 -3 30 4 23 2 30 -11 30 -9 0 -16 5 -16 10 0 6 -6 10 -14 10 -8 0 -16 10 -18 22 -3 22 -28 39 -28 18z m-865 -230 c10 -11 16 -20 13 -20 -3 0 -13 9 -23 20 -10 11 -16 20 -13 20 3 0 13 -9 23 -20z m166 -207 c13 -17 13 -17 -6 -3 -11 8 -22 16 -24 17 -2 2 0 3 6 3 6 0 17 -8 24 -17z" transform="translate(0,131) scale(0.1,-0.1)" stroke="none" fill="#3C6F7D"/>

<path d="M587 1109 c-136 -13 -324 -84 -404 -154 l-35 -31 60 -74 c33 -41 110 -138 171 -215 170 -212 253 -316 282 -349 l27 -30 28 30 c16 17 42 55 58 85 16 30 51 88 79 129 28 41 74 120 103 176 29 57 80 150 113 208 34 58 61 110 61 116 0 6 -21 20 -47 31 -158 69 -321 94 -496 78z m-103 -274 l17 -30 -20 24 c-12 13 -21 28 -21 34 0 12 0 11 24 -28z" transform="translate(0,131) scale(0.1,-0.1)" stroke="none" fill="#2B3032"/>

</g>

<g id="1" transform="translate(130.0,0)scale(1,1)">

<path d="M560 1254 c-71 -9 -207 -47 -270 -75 -75 -34 -220 -129 -220 -144 0 -5 7 -18 14 -28 13 -17 17 -16 63 16 159 114 337 167 557 167 155 0 281 -26 403 -84 l73 -35 15 22 c14 20 14 23 -7 39 -34 26 -158 76 -246 100 -76 20 -296 32 -382 22z" transform="translate(0,131) scale(0.1,-0.1)" stroke="none" fill="#B08E79"/>

<path d="M1130 1000 c0 -6 -27 -58 -61 -116 -33 -58 -84 -152 -114 -209 -29 -57 -68 -125 -86 -152 -18 -26 -34 -54 -34 -63 -3 -37 -28 -121 -38 -127 -7 -4 -8 0 -3 13 12 27 26 88 21 92 -2 2 -18 -24 -36 -58 -18 -34 -46 -76 -62 -93 l-29 -32 -35 40 c-19 22 -39 39 -43 38 -12 -3 -200 182 -200 196 0 19 14 11 45 -27 17 -20 59 -64 94 -97 l65 -60 -55 66 c-30 36 -112 138 -182 227 -70 89 -135 162 -144 162 -9 0 -13 6 -10 14 3 8 -4 22 -16 33 -21 18 -21 18 -7 -2 8 -11 -2 -5 -21 13 -36 33 -49 39 -49 22 0 -14 163 -202 199 -228 17 -12 31 -28 31 -34 0 -7 -9 -2 -20 10 -12 12 -25 22 -30 22 -4 0 -22 12 -39 26 -47 39 -37 14 14 -36 46 -46 57 -70 29 -70 -8 0 -24 -5 -35 -10 -16 -9 -17 -13 -7 -23 28 -27 71 -57 82 -57 6 0 3 5 -6 11 -10 5 -18 14 -18 20 0 5 12 2 26 -7 22 -15 24 -18 9 -27 -14 -7 -5 -20 57 -80 40 -40 78 -71 84 -69 6 1 19 -10 28 -25 l17 -28 -21 24 c-11 13 -23 21 -27 17 -8 -7 92 -112 122 -128 14 -7 11 -1 -9 21 -17 17 -25 31 -19 31 15 0 59 -53 83 -99 10 -20 28 -42 40 -49 26 -16 39 -7 74 52 92 154 114 195 118 216 1 14 6 20 10 15 10 -16 -15 -77 -75 -177 -62 -104 -83 -149 -50 -108 34 43 154 251 205 353 27 55 61 115 77 135 16 21 52 82 81 137 29 55 61 115 72 133 15 25 18 36 9 45 -8 8 -11 8 -11 -1 0 -7 -4 -12 -10 -12 -5 0 -7 13 -3 30 4 23 2 30 -11 30 -9 0 -16 5 -16 10 0 6 -6 10 -14 10 -8 0 -16 10 -18 22 -3 22 -28 39 -28 18z m-865 -230 c10 -11 16 -20 13 -20 -3 0 -13 9 -23 20 -10 11 -16 20 -13 20 3 0 13 -9 23 -20z m166 -207 c13 -17 13 -17 -6 -3 -11 8 -22 16 -24 17 -2 2 0 3 6 3 6 0 17 -8 24 -17z" transform="translate(0,131) scale(0.1,-0.1)" stroke="none" fill="#3C6F7D"/>

<path d="M587 1109 c-136 -13 -324 -84 -404 -154 l-35 -31 60 -74 c33 -41 110 -138 171 -215 170 -212 253 -316 282 -349 l27 -30 28 30 c16 17 42 55 58 85 16 30 51 88 79 129 28 41 74 120 103 176 29 57 80 150 113 208 34 58 61 110 61 116 0 6 -21 20 -47 31 -158 69 -321 94 -496 78z m-103 -274 l17 -30 -20 24 c-12 13 -21 28 -21 34 0 12 0 11 24 -28z" transform="translate(0,131) scale(0.1,-0.1)" stroke="none" fill="#2B3032"/>

</g>

<g id="2" transform="translate(260.0,0)scale(1,1)">

<path d="M560 1254 c-71 -9 -207 -47 -270 -75 -75 -34 -220 -129 -220 -144 0 -5 7 -18 14 -28 13 -17 17 -16 63 16 159 114 337 167 557 167 155 0 281 -26 403 -84 l73 -35 15 22 c14 20 14 23 -7 39 -34 26 -158 76 -246 100 -76 20 -296 32 -382 22z" transform="translate(0,131) scale(0.1,-0.1)" stroke="none" fill="#B08E79"/>

<path d="M1130 1000 c0 -6 -27 -58 -61 -116 -33 -58 -84 -152 -114 -209 -29 -57 -68 -125 -86 -152 -18 -26 -34 -54 -34 -63 -3 -37 -28 -121 -38 -127 -7 -4 -8 0 -3 13 12 27 26 88 21 92 -2 2 -18 -24 -36 -58 -18 -34 -46 -76 -62 -93 l-29 -32 -35 40 c-19 22 -39 39 -43 38 -12 -3 -200 182 -200 196 0 19 14 11 45 -27 17 -20 59 -64 94 -97 l65 -60 -55 66 c-30 36 -112 138 -182 227 -70 89 -135 162 -144 162 -9 0 -13 6 -10 14 3 8 -4 22 -16 33 -21 18 -21 18 -7 -2 8 -11 -2 -5 -21 13 -36 33 -49 39 -49 22 0 -14 163 -202 199 -228 17 -12 31 -28 31 -34 0 -7 -9 -2 -20 10 -12 12 -25 22 -30 22 -4 0 -22 12 -39 26 -47 39 -37 14 14 -36 46 -46 57 -70 29 -70 -8 0 -24 -5 -35 -10 -16 -9 -17 -13 -7 -23 28 -27 71 -57 82 -57 6 0 3 5 -6 11 -10 5 -18 14 -18 20 0 5 12 2 26 -7 22 -15 24 -18 9 -27 -14 -7 -5 -20 57 -80 40 -40 78 -71 84 -69 6 1 19 -10 28 -25 l17 -28 -21 24 c-11 13 -23 21 -27 17 -8 -7 92 -112 122 -128 14 -7 11 -1 -9 21 -17 17 -25 31 -19 31 15 0 59 -53 83 -99 10 -20 28 -42 40 -49 26 -16 39 -7 74 52 92 154 114 195 118 216 1 14 6 20 10 15 10 -16 -15 -77 -75 -177 -62 -104 -83 -149 -50 -108 34 43 154 251 205 353 27 55 61 115 77 135 16 21 52 82 81 137 29 55 61 115 72 133 15 25 18 36 9 45 -8 8 -11 8 -11 -1 0 -7 -4 -12 -10 -12 -5 0 -7 13 -3 30 4 23 2 30 -11 30 -9 0 -16 5 -16 10 0 6 -6 10 -14 10 -8 0 -16 10 -18 22 -3 22 -28 39 -28 18z m-865 -230 c10 -11 16 -20 13 -20 -3 0 -13 9 -23 20 -10 11 -16 20 -13 20 3 0 13 -9 23 -20z m166 -207 c13 -17 13 -17 -6 -3 -11 8 -22 16 -24 17 -2 2 0 3 6 3 6 0 17 -8 24 -17z" transform="translate(0,131) scale(0.1,-0.1)" stroke="none" fill="#3C6F7D"/>

<path d="M587 1109 c-136 -13 -324 -84 -404 -154 l-35 -31 60 -74 c33 -41 110 -138 171 -215 170 -212 253 -316 282 -349 l27 -30 28 30 c16 17 42 55 58 85 16 30 51 88 79 129 28 41 74 120 103 176 29 57 80 150 113 208 34 58 61 110 61 116 0 6 -21 20 -47 31 -158 69 -321 94 -496 78z m-103 -274 l17 -30 -20 24 c-12 13 -21 28 -21 34 0 12 0 11 24 -28z" transform="translate(0,131) scale(0.1,-0.1)" stroke="none" fill="#2B3032"/>

</g>

<g id="3" transform="translate(390.0,0)scale(1,1)">

<path d="M560 1254 c-71 -9 -207 -47 -270 -75 -75 -34 -220 -129 -220 -144 0 -5 7 -18 14 -28 13 -17 17 -16 63 16 159 114 337 167 557 167 155 0 281 -26 403 -84 l73 -35 15 22 c14 20 14 23 -7 39 -34 26 -158 76 -246 100 -76 20 -296 32 -382 22z" transform="translate(0,131) scale(0.1,-0.1)" stroke="none" fill="#B08E79"/>

<path d="M1130 1000 c0 -6 -27 -58 -61 -116 -33 -58 -84 -152 -114 -209 -29 -57 -68 -125 -86 -152 -18 -26 -34 -54 -34 -63 -3 -37 -28 -121 -38 -127 -7 -4 -8 0 -3 13 12 27 26 88 21 92 -2 2 -18 -24 -36 -58 -18 -34 -46 -76 -62 -93 l-29 -32 -35 40 c-19 22 -39 39 -43 38 -12 -3 -200 182 -200 196 0 19 14 11 45 -27 17 -20 59 -64 94 -97 l65 -60 -55 66 c-30 36 -112 138 -182 227 -70 89 -135 162 -144 162 -9 0 -13 6 -10 14 3 8 -4 22 -16 33 -21 18 -21 18 -7 -2 8 -11 -2 -5 -21 13 -36 33 -49 39 -49 22 0 -14 163 -202 199 -228 17 -12 31 -28 31 -34 0 -7 -9 -2 -20 10 -12 12 -25 22 -30 22 -4 0 -22 12 -39 26 -47 39 -37 14 14 -36 46 -46 57 -70 29 -70 -8 0 -24 -5 -35 -10 -16 -9 -17 -13 -7 -23 28 -27 71 -57 82 -57 6 0 3 5 -6 11 -10 5 -18 14 -18 20 0 5 12 2 26 -7 22 -15 24 -18 9 -27 -14 -7 -5 -20 57 -80 40 -40 78 -71 84 -69 6 1 19 -10 28 -25 l17 -28 -21 24 c-11 13 -23 21 -27 17 -8 -7 92 -112 122 -128 14 -7 11 -1 -9 21 -17 17 -25 31 -19 31 15 0 59 -53 83 -99 10 -20 28 -42 40 -49 26 -16 39 -7 74 52 92 154 114 195 118 216 1 14 6 20 10 15 10 -16 -15 -77 -75 -177 -62 -104 -83 -149 -50 -108 34 43 154 251 205 353 27 55 61 115 77 135 16 21 52 82 81 137 29 55 61 115 72 133 15 25 18 36 9 45 -8 8 -11 8 -11 -1 0 -7 -4 -12 -10 -12 -5 0 -7 13 -3 30 4 23 2 30 -11 30 -9 0 -16 5 -16 10 0 6 -6 10 -14 10 -8 0 -16 10 -18 22 -3 22 -28 39 -28 18z m-865 -230 c10 -11 16 -20 13 -20 -3 0 -13 9 -23 20 -10 11 -16 20 -13 20 3 0 13 -9 23 -20z m166 -207 c13 -17 13 -17 -6 -3 -11 8 -22 16 -24 17 -2 2 0 3 6 3 6 0 17 -8 24 -17z" transform="translate(0,131) scale(0.1,-0.1)" stroke="none" fill="#3C6F7D"/>

<path d="M587 1109 c-136 -13 -324 -84 -404 -154 l-35 -31 60 -74 c33 -41 110 -138 171 -215 170 -212 253 -316 282 -349 l27 -30 28 30 c16 17 42 55 58 85 16 30 51 88 79 129 28 41 74 120 103 176 29 57 80 150 113 208 34 58 61 110 61 116 0 6 -21 20 -47 31 -158 69 -321 94 -496 78z m-103 -274 l17 -30 -20 24 c-12 13 -21 28 -21 34 0 12 0 11 24 -28z" transform="translate(0,131) scale(0.1,-0.1)" stroke="none" fill="#2B3032"/>

</g>

<g id="4" transform="translate(520.0,0)scale(1,1)">

<path d="M560 1254 c-71 -9 -207 -47 -270 -75 -75 -34 -220 -129 -220 -144 0 -5 7 -18 14 -28 13 -17 17 -16 63 16 159 114 337 167 557 167 155 0 281 -26 403 -84 l73 -35 15 22 c14 20 14 23 -7 39 -34 26 -158 76 -246 100 -76 20 -296 32 -382 22z" transform="translate(0,131) scale(0.1,-0.1)" stroke="none" fill="#B08E79"/>

<path d="M1130 1000 c0 -6 -27 -58 -61 -116 -33 -58 -84 -152 -114 -209 -29 -57 -68 -125 -86 -152 -18 -26 -34 -54 -34 -63 -3 -37 -28 -121 -38 -127 -7 -4 -8 0 -3 13 12 27 26 88 21 92 -2 2 -18 -24 -36 -58 -18 -34 -46 -76 -62 -93 l-29 -32 -35 40 c-19 22 -39 39 -43 38 -12 -3 -200 182 -200 196 0 19 14 11 45 -27 17 -20 59 -64 94 -97 l65 -60 -55 66 c-30 36 -112 138 -182 227 -70 89 -135 162 -144 162 -9 0 -13 6 -10 14 3 8 -4 22 -16 33 -21 18 -21 18 -7 -2 8 -11 -2 -5 -21 13 -36 33 -49 39 -49 22 0 -14 163 -202 199 -228 17 -12 31 -28 31 -34 0 -7 -9 -2 -20 10 -12 12 -25 22 -30 22 -4 0 -22 12 -39 26 -47 39 -37 14 14 -36 46 -46 57 -70 29 -70 -8 0 -24 -5 -35 -10 -16 -9 -17 -13 -7 -23 28 -27 71 -57 82 -57 6 0 3 5 -6 11 -10 5 -18 14 -18 20 0 5 12 2 26 -7 22 -15 24 -18 9 -27 -14 -7 -5 -20 57 -80 40 -40 78 -71 84 -69 6 1 19 -10 28 -25 l17 -28 -21 24 c-11 13 -23 21 -27 17 -8 -7 92 -112 122 -128 14 -7 11 -1 -9 21 -17 17 -25 31 -19 31 15 0 59 -53 83 -99 10 -20 28 -42 40 -49 26 -16 39 -7 74 52 92 154 114 195 118 216 1 14 6 20 10 15 10 -16 -15 -77 -75 -177 -62 -104 -83 -149 -50 -108 34 43 154 251 205 353 27 55 61 115 77 135 16 21 52 82 81 137 29 55 61 115 72 133 15 25 18 36 9 45 -8 8 -11 8 -11 -1 0 -7 -4 -12 -10 -12 -5 0 -7 13 -3 30 4 23 2 30 -11 30 -9 0 -16 5 -16 10 0 6 -6 10 -14 10 -8 0 -16 10 -18 22 -3 22 -28 39 -28 18z m-865 -230 c10 -11 16 -20 13 -20 -3 0 -13 9 -23 20 -10 11 -16 20 -13 20 3 0 13 -9 23 -20z m166 -207 c13 -17 13 -17 -6 -3 -11 8 -22 16 -24 17 -2 2 0 3 6 3 6 0 17 -8 24 -17z" transform="translate(0,131) scale(0.1,-0.1)" stroke="none" fill="#3C6F7D"/>

<path d="M587 1109 c-136 -13 -324 -84 -404 -154 l-35 -31 60 -74 c33 -41 110 -138 171 -215 170 -212 253 -316 282 -349 l27 -30 28 30 c16 17 42 55 58 85 16 30 51 88 79 129 28 41 74 120 103 176 29 57 80 150 113 208 34 58 61 110 61 116 0 6 -21 20 -47 31 -158 69 -321 94 -496 78z m-103 -274 l17 -30 -20 24 c-12 13 -21 28 -21 34 0 12 0 11 24 -28z" transform="translate(0,131) scale(0.1,-0.1)" stroke="none" fill="#2B3032"/>

</g>

</g>
<g id="row1" transform="translate(17,131.0)">
<g id="0" transform="translate(0.0,0)scale(1,1)">

<path d="M560 1254 c-71 -9 -207 -47 -270 -75 -75 -34 -220 -129 -220 -144 0 -5 7 -18 14 -28 13 -17 17 -16 63 16 159 114 337 167 557 167 155 0 281 -26 403 -84 l73 -35 15 22 c14 20 14 23 -7 39 -34 26 -158 76 -246 100 -76 20 -296 32 -382 22z" transform="translate(0,131) scale(0.1,-0.1)" stroke="none" fill="#B08E79"/>

<path d="M1130 1000 c0 -6 -27 -58 -61 -116 -33 -58 -84 -152 -114 -209 -29 -57 -68 -125 -86 -152 -18 -26 -34 -54 -34 -63 -3 -37 -28 -121 -38 -127 -7 -4 -8 0 -3 13 12 27 26 88 21 92 -2 2 -18 -24 -36 -58 -18 -34 -46 -76 -62 -93 l-29 -32 -35 40 c-19 22 -39 39 -43 38 -12 -3 -200 182 -200 196 0 19 14 11 45 -27 17 -20 59 -64 94 -97 l65 -60 -55 66 c-30 36 -112 138 -182 227 -70 89 -135 162 -144 162 -9 0 -13 6 -10 14 3 8 -4 22 -16 33 -21 18 -21 18 -7 -2 8 -11 -2 -5 -21 13 -36 33 -49 39 -49 22 0 -14 163 -202 199 -228 17 -12 31 -28 31 -34 0 -7 -9 -2 -20 10 -12 12 -25 22 -30 22 -4 0 -22 12 -39 26 -47 39 -37 14 14 -36 46 -46 57 -70 29 -70 -8 0 -24 -5 -35 -10 -16 -9 -17 -13 -7 -23 28 -27 71 -57 82 -57 6 0 3 5 -6 11 -10 5 -18 14 -18 20 0 5 12 2 26 -7 22 -15 24 -18 9 -27 -14 -7 -5 -20 57 -80 40 -40 78 -71 84 -69 6 1 19 -10 28 -25 l17 -28 -21 24 c-11 13 -23 21 -27 17 -8 -7 92 -112 122 -128 14 -7 11 -1 -9 21 -17 17 -25 31 -19 31 15 0 59 -53 83 -99 10 -20 28 -42 40 -49 26 -16 39 -7 74 52 92 154 114 195 118 216 1 14 6 20 10 15 10 -16 -15 -77 -75 -177 -62 -104 -83 -149 -50 -108 34 43 154 251 205 353 27 55 61 115 77 135 16 21 52 82 81 137 29 55 61 115 72 133 15 25 18 36 9 45 -8 8 -11 8 -11 -1 0 -7 -4 -12 -10 -12 -5 0 -7 13 -3 30 4 23 2 30 -11 30 -9 0 -16 5 -16 10 0 6 -6 10 -14 10 -8 0 -16 10 -18 22 -3 22 -28 39 -28 18z m-865 -230 c10 -11 16 -20 13 -20 -3 0 -13 9 -23 20 -10 11 -16 20 -13 20 3 0 13 -9 23 -20z m166 -207 c13 -17 13 -17 -6 -3 -11 8 -22 16 -24 17 -2 2 0 3 6 3 6 0 17 -8 24 -17z" transform="translate(0,131) scale(0.1,-0.1)" stroke="none" fill="#3C6F7D"/>

<path d="M587 1109 c-136 -13 -324 -84 -404 -154 l-35 -31 60 -74 c33 -41 110 -138 171 -215 170 -212 253 -316 282 -349 l27 -30 28 30 c16 17 42 55 58 85 16 30 51 88 79 129 28 41 74 120 103 176 29 57 80 150 113 208 34 58 61 110 61 116 0 6 -21 20 -47 31 -158 69 -321 94 -496 78z m-103 -274 l17 -30 -20 24 c-12 13 -21 28 -21 34 0 12 0 11 24 -28z" transform="translate(0,131) scale(0.1,-0.1)" stroke="none" fill="#2B3032"/>

</g>

<g id="1" transform="translate(130.0,0)scale(1,1)">

<path d="M560 1254 c-71 -9 -207 -47 -270 -75 -75 -34 -220 -129 -220 -144 0 -5 7 -18 14 -28 13 -17 17 -16 63 16 159 114 337 167 557 167 155 0 281 -26 403 -84 l73 -35 15 22 c14 20 14 23 -7 39 -34 26 -158 76 -246 100 -76 20 -296 32 -382 22z" transform="translate(0,131) scale(0.1,-0.1)" stroke="none" fill="#B08E79"/>

<path d="M1130 1000 c0 -6 -27 -58 -61 -116 -33 -58 -84 -152 -114 -209 -29 -57 -68 -125 -86 -152 -18 -26 -34 -54 -34 -63 -3 -37 -28 -121 -38 -127 -7 -4 -8 0 -3 13 12 27 26 88 21 92 -2 2 -18 -24 -36 -58 -18 -34 -46 -76 -62 -93 l-29 -32 -35 40 c-19 22 -39 39 -43 38 -12 -3 -200 182 -200 196 0 19 14 11 45 -27 17 -20 59 -64 94 -97 l65 -60 -55 66 c-30 36 -112 138 -182 227 -70 89 -135 162 -144 162 -9 0 -13 6 -10 14 3 8 -4 22 -16 33 -21 18 -21 18 -7 -2 8 -11 -2 -5 -21 13 -36 33 -49 39 -49 22 0 -14 163 -202 199 -228 17 -12 31 -28 31 -34 0 -7 -9 -2 -20 10 -12 12 -25 22 -30 22 -4 0 -22 12 -39 26 -47 39 -37 14 14 -36 46 -46 57 -70 29 -70 -8 0 -24 -5 -35 -10 -16 -9 -17 -13 -7 -23 28 -27 71 -57 82 -57 6 0 3 5 -6 11 -10 5 -18 14 -18 20 0 5 12 2 26 -7 22 -15 24 -18 9 -27 -14 -7 -5 -20 57 -80 40 -40 78 -71 84 -69 6 1 19 -10 28 -25 l17 -28 -21 24 c-11 13 -23 21 -27 17 -8 -7 92 -112 122 -128 14 -7 11 -1 -9 21 -17 17 -25 31 -19 31 15 0 59 -53 83 -99 10 -20 28 -42 40 -49 26 -16 39 -7 74 52 92 154 114 195 118 216 1 14 6 20 10 15 10 -16 -15 -77 -75 -177 -62 -104 -83 -149 -50 -108 34 43 154 251 205 353 27 55 61 115 77 135 16 21 52 82 81 137 29 55 61 115 72 133 15 25 18 36 9 45 -8 8 -11 8 -11 -1 0 -7 -4 -12 -10 -12 -5 0 -7 13 -3 30 4 23 2 30 -11 30 -9 0 -16 5 -16 10 0 6 -6 10 -14 10 -8 0 -16 10 -18 22 -3 22 -28 39 -28 18z m-865 -230 c10 -11 16 -20 13 -20 -3 0 -13 9 -23 20 -10 11 -16 20 -13 20 3 0 13 -9 23 -20z m166 -207 c13 -17 13 -17 -6 -3 -11 8 -22 16 -24 17 -2 2 0 3 6 3 6 0 17 -8 24 -17z" transform="translate(0,131) scale(0.1,-0.1)" stroke="none" fill="#3C6F7D"/>

<path d="M587 1109 c-136 -13 -324 -84 -404 -154 l-35 -31 60 -74 c33 -41 110 -138 171 -215 170 -212 253 -316 282 -349 l27 -30 28 30 c16 17 42 55 58 85 16 30 51 88 79 129 28 41 74 120 103 176 29 57 80 150 113 208 34 58 61 110 61 116 0 6 -21 20 -47 31 -158 69 -321 94 -496 78z m-103 -274 l17 -30 -20 24 c-12 13 -21 28 -21 34 0 12 0 11 24 -28z" transform="translate(0,131) scale(0.1,-0.1)" stroke="none" fill="#2B3032"/>

</g>

<g id="2" transform="translate(260.0,0)scale(1,1)">

<path d="M560 1254 c-71 -9 -207 -47 -270 -75 -75 -34 -220 -129 -220 -144 0 -5 7 -18 14 -28 13 -17 17 -16 63 16 159 114 337 167 557 167 155 0 281 -26 403 -84 l73 -35 15 22 c14 20 14 23 -7 39 -34 26 -158 76 -246 100 -76 20 -296 32 -382 22z" transform="translate(0,131) scale(0.1,-0.1)" stroke="none" fill="#B08E79"/>

<path d="M1130 1000 c0 -6 -27 -58 -61 -116 -33 -58 -84 -152 -114 -209 -29 -57 -68 -125 -86 -152 -18 -26 -34 -54 -34 -63 -3 -37 -28 -121 -38 -127 -7 -4 -8 0 -3 13 12 27 26 88 21 92 -2 2 -18 -24 -36 -58 -18 -34 -46 -76 -62 -93 l-29 -32 -35 40 c-19 22 -39 39 -43 38 -12 -3 -200 182 -200 196 0 19 14 11 45 -27 17 -20 59 -64 94 -97 l65 -60 -55 66 c-30 36 -112 138 -182 227 -70 89 -135 162 -144 162 -9 0 -13 6 -10 14 3 8 -4 22 -16 33 -21 18 -21 18 -7 -2 8 -11 -2 -5 -21 13 -36 33 -49 39 -49 22 0 -14 163 -202 199 -228 17 -12 31 -28 31 -34 0 -7 -9 -2 -20 10 -12 12 -25 22 -30 22 -4 0 -22 12 -39 26 -47 39 -37 14 14 -36 46 -46 57 -70 29 -70 -8 0 -24 -5 -35 -10 -16 -9 -17 -13 -7 -23 28 -27 71 -57 82 -57 6 0 3 5 -6 11 -10 5 -18 14 -18 20 0 5 12 2 26 -7 22 -15 24 -18 9 -27 -14 -7 -5 -20 57 -80 40 -40 78 -71 84 -69 6 1 19 -10 28 -25 l17 -28 -21 24 c-11 13 -23 21 -27 17 -8 -7 92 -112 122 -128 14 -7 11 -1 -9 21 -17 17 -25 31 -19 31 15 0 59 -53 83 -99 10 -20 28 -42 40 -49 26 -16 39 -7 74 52 92 154 114 195 118 216 1 14 6 20 10 15 10 -16 -15 -77 -75 -177 -62 -104 -83 -149 -50 -108 34 43 154 251 205 353 27 55 61 115 77 135 16 21 52 82 81 137 29 55 61 115 72 133 15 25 18 36 9 45 -8 8 -11 8 -11 -1 0 -7 -4 -12 -10 -12 -5 0 -7 13 -3 30 4 23 2 30 -11 30 -9 0 -16 5 -16 10 0 6 -6 10 -14 10 -8 0 -16 10 -18 22 -3 22 -28 39 -28 18z m-865 -230 c10 -11 16 -20 13 -20 -3 0 -13 9 -23 20 -10 11 -16 20 -13 20 3 0 13 -9 23 -20z m166 -207 c13 -17 13 -17 -6 -3 -11 8 -22 16 -24 17 -2 2 0 3 6 3 6 0 17 -8 24 -17z" transform="translate(0,131) scale(0.1,-0.1)" stroke="none" fill="#3C6F7D"/>

<path d="M587 1109 c-136 -13 -324 -84 -404 -154 l-35 -31 60 -74 c33 -41 110 -138 171 -215 170 -212 253 -316 282 -349 l27 -30 28 30 c16 17 42 55 58 85 16 30 51 88 79 129 28 41 74 120 103 176 29 57 80 150 113 208 34 58 61 110 61 116 0 6 -21 20 -47 31 -158 69 -321 94 -496 78z m-103 -274 l17 -30 -20 24 c-12 13 -21 28 -21 34 0 12 0 11 24 -28z" transform="translate(0,131) scale(0.1,-0.1)" stroke="none" fill="#2B3032"/>

</g>

<g id="3" transform="translate(390.0,0)scale(1,1)">

<path d="M560 1254 c-71 -9 -207 -47 -270 -75 -75 -34 -220 -129 -220 -144 0 -5 7 -18 14 -28 13 -17 17 -16 63 16 159 114 337 167 557 167 155 0 281 -26 403 -84 l73 -35 15 22 c14 20 14 23 -7 39 -34 26 -158 76 -246 100 -76 20 -296 32 -382 22z" transform="translate(0,131) scale(0.1,-0.1)" stroke="none" fill="#B08E79"/>

<path d="M1130 1000 c0 -6 -27 -58 -61 -116 -33 -58 -84 -152 -114 -209 -29 -57 -68 -125 -86 -152 -18 -26 -34 -54 -34 -63 -3 -37 -28 -121 -38 -127 -7 -4 -8 0 -3 13 12 27 26 88 21 92 -2 2 -18 -24 -36 -58 -18 -34 -46 -76 -62 -93 l-29 -32 -35 40 c-19 22 -39 39 -43 38 -12 -3 -200 182 -200 196 0 19 14 11 45 -27 17 -20 59 -64 94 -97 l65 -60 -55 66 c-30 36 -112 138 -182 227 -70 89 -135 162 -144 162 -9 0 -13 6 -10 14 3 8 -4 22 -16 33 -21 18 -21 18 -7 -2 8 -11 -2 -5 -21 13 -36 33 -49 39 -49 22 0 -14 163 -202 199 -228 17 -12 31 -28 31 -34 0 -7 -9 -2 -20 10 -12 12 -25 22 -30 22 -4 0 -22 12 -39 26 -47 39 -37 14 14 -36 46 -46 57 -70 29 -70 -8 0 -24 -5 -35 -10 -16 -9 -17 -13 -7 -23 28 -27 71 -57 82 -57 6 0 3 5 -6 11 -10 5 -18 14 -18 20 0 5 12 2 26 -7 22 -15 24 -18 9 -27 -14 -7 -5 -20 57 -80 40 -40 78 -71 84 -69 6 1 19 -10 28 -25 l17 -28 -21 24 c-11 13 -23 21 -27 17 -8 -7 92 -112 122 -128 14 -7 11 -1 -9 21 -17 17 -25 31 -19 31 15 0 59 -53 83 -99 10 -20 28 -42 40 -49 26 -16 39 -7 74 52 92 154 114 195 118 216 1 14 6 20 10 15 10 -16 -15 -77 -75 -177 -62 -104 -83 -149 -50 -108 34 43 154 251 205 353 27 55 61 115 77 135 16 21 52 82 81 137 29 55 61 115 72 133 15 25 18 36 9 45 -8 8 -11 8 -11 -1 0 -7 -4 -12 -10 -12 -5 0 -7 13 -3 30 4 23 2 30 -11 30 -9 0 -16 5 -16 10 0 6 -6 10 -14 10 -8 0 -16 10 -18 22 -3 22 -28 39 -28 18z m-865 -230 c10 -11 16 -20 13 -20 -3 0 -13 9 -23 20 -10 11 -16 20 -13 20 3 0 13 -9 23 -20z m166 -207 c13 -17 13 -17 -6 -3 -11 8 -22 16 -24 17 -2 2 0 3 6 3 6 0 17 -8 24 -17z" transform="translate(0,131) scale(0.1,-0.1)" stroke="none" fill="#3C6F7D"/>

<path d="M587 1109 c-136 -13 -324 -84 -404 -154 l-35 -31 60 -74 c33 -41 110 -138 171 -215 170 -212 253 -316 282 -349 l27 -30 28 30 c16 17 42 55 58 85 16 30 51 88 79 129 28 41 74 120 103 176 29 57 80 150 113 208 34 58 61 110 61 116 0 6 -21 20 -47 31 -158 69 -321 94 -496 78z m-103 -274 l17 -30 -20 24 c-12 13 -21 28 -21 34 0 12 0 11 24 -28z" transform="translate(0,131) scale(0.1,-0.1)" stroke="none" fill="#2B3032"/>

</g>

<g id="4" transform="translate(520.0,0)scale(1,1)">

<path d="M560 1254 c-71 -9 -207 -47 -270 -75 -75 -34 -220 -129 -220 -144 0 -5 7 -18 14 -28 13 -17 17 -16 63 16 159 114 337 167 557 167 155 0 281 -26 403 -84 l73 -35 15 22 c14 20 14 23 -7 39 -34 26 -158 76 -246 100 -76 20 -296 32 -382 22z" transform="translate(0,131) scale(0.1,-0.1)" stroke="none" fill="#B08E79"/>

<path d="M1130 1000 c0 -6 -27 -58 -61 -116 -33 -58 -84 -152 -114 -209 -29 -57 -68 -125 -86 -152 -18 -26 -34 -54 -34 -63 -3 -37 -28 -121 -38 -127 -7 -4 -8 0 -3 13 12 27 26 88 21 92 -2 2 -18 -24 -36 -58 -18 -34 -46 -76 -62 -93 l-29 -32 -35 40 c-19 22 -39 39 -43 38 -12 -3 -200 182 -200 196 0 19 14 11 45 -27 17 -20 59 -64 94 -97 l65 -60 -55 66 c-30 36 -112 138 -182 227 -70 89 -135 162 -144 162 -9 0 -13 6 -10 14 3 8 -4 22 -16 33 -21 18 -21 18 -7 -2 8 -11 -2 -5 -21 13 -36 33 -49 39 -49 22 0 -14 163 -202 199 -228 17 -12 31 -28 31 -34 0 -7 -9 -2 -20 10 -12 12 -25 22 -30 22 -4 0 -22 12 -39 26 -47 39 -37 14 14 -36 46 -46 57 -70 29 -70 -8 0 -24 -5 -35 -10 -16 -9 -17 -13 -7 -23 28 -27 71 -57 82 -57 6 0 3 5 -6 11 -10 5 -18 14 -18 20 0 5 12 2 26 -7 22 -15 24 -18 9 -27 -14 -7 -5 -20 57 -80 40 -40 78 -71 84 -69 6 1 19 -10 28 -25 l17 -28 -21 24 c-11 13 -23 21 -27 17 -8 -7 92 -112 122 -128 14 -7 11 -1 -9 21 -17 17 -25 31 -19 31 15 0 59 -53 83 -99 10 -20 28 -42 40 -49 26 -16 39 -7 74 52 92 154 114 195 118 216 1 14 6 20 10 15 10 -16 -15 -77 -75 -177 -62 -104 -83 -149 -50 -108 34 43 154 251 205 353 27 55 61 115 77 135 16 21 52 82 81 137 29 55 61 115 72 133 15 25 18 36 9 45 -8 8 -11 8 -11 -1 0 -7 -4 -12 -10 -12 -5 0 -7 13 -3 30 4 23 2 30 -11 30 -9 0 -16 5 -16 10 0 6 -6 10 -14 10 -8 0 -16 10 -18 22 -3 22 -28 39 -28 18z m-865 -230 c10 -11 16 -20 13 -20 -3 0 -13 9 -23 20 -10 11 -16 20 -13 20 3 0 13 -9 23 -20z m166 -207 c13 -17 13 -17 -6 -3 -11 8 -22 16 -24 17 -2 2 0 3 6 3 6 0 17 -8 24 -17z" transform="translate(0,131) scale(0.1,-0.1)" stroke="none" fill="#3C6F7D"/>

<path d="M587 1109 c-136 -13 -324 -84 -404 -154 l-35 -31 60 -74 c33 -41 110 -138 171 -215 170 -212 253 -316 282 -349 l27 -30 28 30 c16 17 42 55 58 85 16 30 51 88 79 129 28 41 74 120 103 176 29 57 80 150 113 208 34 58 61 110 61 116 0 6 -21 20 -47 31 -158 69 -321 94 -496 78z m-103 -274 l17 -30 -20 24 c-12 13 -21 28 -21 34 0 12 0 11 24 -28z" transform="translate(0,131) scale(0.1,-0.1)" stroke="none" fill="#2B3032"/>

</g>

</g>
<g id="row2" transform="translate(17,262.0)">
<g id="0" transform="translate(0.0,0)scale(1,1)">

<path d="M560 1254 c-71 -9 -207 -47 -270 -75 -75 -34 -220 -129 -220 -144 0 -5 7 -18 14 -28 13 -17 17 -16 63 16 159 114 337 167 557 167 155 0 281 -26 403 -84 l73 -35 15 22 c14 20 14 23 -7 39 -34 26 -158 76 -246 100 -76 20 -296 32 -382 22z" transform="translate(0,131) scale(0.1,-0.1)" stroke="none" fill="#B08E79"/>

<path d="M1130 1000 c0 -6 -27 -58 -61 -116 -33 -58 -84 -152 -114 -209 -29 -57 -68 -125 -86 -152 -18 -26 -34 -54 -34 -63 -3 -37 -28 -121 -38 -127 -7 -4 -8 0 -3 13 12 27 26 88 21 92 -2 2 -18 -24 -36 -58 -18 -34 -46 -76 -62 -93 l-29 -32 -35 40 c-19 22 -39 39 -43 38 -12 -3 -200 182 -200 196 0 19 14 11 45 -27 17 -20 59 -64 94 -97 l65 -60 -55 66 c-30 36 -112 138 -182 227 -70 89 -135 162 -144 162 -9 0 -13 6 -10 14 3 8 -4 22 -16 33 -21 18 -21 18 -7 -2 8 -11 -2 -5 -21 13 -36 33 -49 39 -49 22 0 -14 163 -202 199 -228 17 -12 31 -28 31 -34 0 -7 -9 -2 -20 10 -12 12 -25 22 -30 22 -4 0 -22 12 -39 26 -47 39 -37 14 14 -36 46 -46 57 -70 29 -70 -8 0 -24 -5 -35 -10 -16 -9 -17 -13 -7 -23 28 -27 71 -57 82 -57 6 0 3 5 -6 11 -10 5 -18 14 -18 20 0 5 12 2 26 -7 22 -15 24 -18 9 -27 -14 -7 -5 -20 57 -80 40 -40 78 -71 84 -69 6 1 19 -10 28 -25 l17 -28 -21 24 c-11 13 -23 21 -27 17 -8 -7 92 -112 122 -128 14 -7 11 -1 -9 21 -17 17 -25 31 -19 31 15 0 59 -53 83 -99 10 -20 28 -42 40 -49 26 -16 39 -7 74 52 92 154 114 195 118 216 1 14 6 20 10 15 10 -16 -15 -77 -75 -177 -62 -104 -83 -149 -50 -108 34 43 154 251 205 353 27 55 61 115 77 135 16 21 52 82 81 137 29 55 61 115 72 133 15 25 18 36 9 45 -8 8 -11 8 -11 -1 0 -7 -4 -12 -10 -12 -5 0 -7 13 -3 30 4 23 2 30 -11 30 -9 0 -16 5 -16 10 0 6 -6 10 -14 10 -8 0 -16 10 -18 22 -3 22 -28 39 -28 18z m-865 -230 c10 -11 16 -20 13 -20 -3 0 -13 9 -23 20 -10 11 -16 20 -13 20 3 0 13 -9 23 -20z m166 -207 c13 -17 13 -17 -6 -3 -11 8 -22 16 -24 17 -2 2 0 3 6 3 6 0 17 -8 24 -17z" transform="translate(0,131) scale(0.1,-0.1)" stroke="none" fill="#3C6F7D"/>

<path d="M587 1109 c-136 -13 -324 -84 -404 -154 l-35 -31 60 -74 c33 -41 110 -138 171 -215 170 -212 253 -316 282 -349 l27 -30 28 30 c16 17 42 55 58 85 16 30 51 88 79 129 28 41 74 120 103 176 29 57 80 150 113 208 34 58 61 110 61 116 0 6 -21 20 -47 31 -158 69 -321 94 -496 78z m-103 -274 l17 -30 -20 24 c-12 13 -21 28 -21 34 0 12 0 11 24 -28z" transform="translate(0,131) scale(0.1,-0.1)" stroke="none" fill="#2B3032"/>

</g>

<g id="1" transform="translate(130.0,0)scale(1,1)">

<path d="M560 1254 c-71 -9 -207 -47 -270 -75 -75 -34 -220 -129 -220 -144 0 -5 7 -18 14 -28 13 -17 17 -16 63 16 159 114 337 167 557 167 155 0 281 -26 403 -84 l73 -35 15 22 c14 20 14 23 -7 39 -34 26 -158 76 -246 100 -76 20 -296 32 -382 22z" transform="translate(0,131) scale(0.1,-0.1)" stroke="none" fill="#B08E79"/>

<path d="M1130 1000 c0 -6 -27 -58 -61 -116 -33 -58 -84 -152 -114 -209 -29 -57 -68 -125 -86 -152 -18 -26 -34 -54 -34 -63 -3 -37 -28 -121 -38 -127 -7 -4 -8 0 -3 13 12 27 26 88 21 92 -2 2 -18 -24 -36 -58 -18 -34 -46 -76 -62 -93 l-29 -32 -35 40 c-19 22 -39 39 -43 38 -12 -3 -200 182 -200 196 0 19 14 11 45 -27 17 -20 59 -64 94 -97 l65 -60 -55 66 c-30 36 -112 138 -182 227 -70 89 -135 162 -144 162 -9 0 -13 6 -10 14 3 8 -4 22 -16 33 -21 18 -21 18 -7 -2 8 -11 -2 -5 -21 13 -36 33 -49 39 -49 22 0 -14 163 -202 199 -228 17 -12 31 -28 31 -34 0 -7 -9 -2 -20 10 -12 12 -25 22 -30 22 -4 0 -22 12 -39 26 -47 39 -37 14 14 -36 46 -46 57 -70 29 -70 -8 0 -24 -5 -35 -10 -16 -9 -17 -13 -7 -23 28 -27 71 -57 82 -57 6 0 3 5 -6 11 -10 5 -18 14 -18 20 0 5 12 2 26 -7 22 -15 24 -18 9 -27 -14 -7 -5 -20 57 -80 40 -40 78 -71 84 -69 6 1 19 -10 28 -25 l17 -28 -21 24 c-11 13 -23 21 -27 17 -8 -7 92 -112 122 -128 14 -7 11 -1 -9 21 -17 17 -25 31 -19 31 15 0 59 -53 83 -99 10 -20 28 -42 40 -49 26 -16 39 -7 74 52 92 154 114 195 118 216 1 14 6 20 10 15 10 -16 -15 -77 -75 -177 -62 -104 -83 -149 -50 -108 34 43 154 251 205 353 27 55 61 115 77 135 16 21 52 82 81 137 29 55 61 115 72 133 15 25 18 36 9 45 -8 8 -11 8 -11 -1 0 -7 -4 -12 -10 -12 -5 0 -7 13 -3 30 4 23 2 30 -11 30 -9 0 -16 5 -16 10 0 6 -6 10 -14 10 -8 0 -16 10 -18 22 -3 22 -28 39 -28 18z m-865 -230 c10 -11 16 -20 13 -20 -3 0 -13 9 -23 20 -10 11 -16 20 -13 20 3 0 13 -9 23 -20z m166 -207 c13 -17 13 -17 -6 -3 -11 8 -22 16 -24 17 -2 2 0 3 6 3 6 0 17 -8 24 -17z" transform="translate(0,131) scale(0.1,-0.1)" stroke="none" fill="#3C6F7D"/>

<path d="M587 1109 c-136 -13 -324 -84 -404 -154 l-35 -31 60 -74 c33 -41 110 -138 171 -215 170 -212 253 -316 282 -349 l27 -30 28 30 c16 17 42 55 58 85 16 30 51 88 79 129 28 41 74 120 103 176 29 57 80 150 113 208 34 58 61 110 61 116 0 6 -21 20 -47 31 -158 69 -321 94 -496 78z m-103 -274 l17 -30 -20 24 c-12 13 -21 28 -21 34 0 12 0 11 24 -28z" transform="translate(0,131) scale(0.1,-0.1)" stroke="none" fill="#2B3032"/>

</g>

<g id="2" transform="translate(260.0,0)scale(1,1)">

<path d="M560 1254 c-71 -9 -207 -47 -270 -75 -75 -34 -220 -129 -220 -144 0 -5 7 -18 14 -28 13 -17 17 -16 63 16 159 114 337 167 557 167 155 0 281 -26 403 -84 l73 -35 15 22 c14 20 14 23 -7 39 -34 26 -158 76 -246 100 -76 20 -296 32 -382 22z" transform="translate(0,131) scale(0.1,-0.1)" stroke="none" fill="#B08E79"/>

<path d="M1130 1000 c0 -6 -27 -58 -61 -116 -33 -58 -84 -152 -114 -209 -29 -57 -68 -125 -86 -152 -18 -26 -34 -54 -34 -63 -3 -37 -28 -121 -38 -127 -7 -4 -8 0 -3 13 12 27 26 88 21 92 -2 2 -18 -24 -36 -58 -18 -34 -46 -76 -62 -93 l-29 -32 -35 40 c-19 22 -39 39 -43 38 -12 -3 -200 182 -200 196 0 19 14 11 45 -27 17 -20 59 -64 94 -97 l65 -60 -55 66 c-30 36 -112 138 -182 227 -70 89 -135 162 -144 162 -9 0 -13 6 -10 14 3 8 -4 22 -16 33 -21 18 -21 18 -7 -2 8 -11 -2 -5 -21 13 -36 33 -49 39 -49 22 0 -14 163 -202 199 -228 17 -12 31 -28 31 -34 0 -7 -9 -2 -20 10 -12 12 -25 22 -30 22 -4 0 -22 12 -39 26 -47 39 -37 14 14 -36 46 -46 57 -70 29 -70 -8 0 -24 -5 -35 -10 -16 -9 -17 -13 -7 -23 28 -27 71 -57 82 -57 6 0 3 5 -6 11 -10 5 -18 14 -18 20 0 5 12 2 26 -7 22 -15 24 -18 9 -27 -14 -7 -5 -20 57 -80 40 -40 78 -71 84 -69 6 1 19 -10 28 -25 l17 -28 -21 24 c-11 13 -23 21 -27 17 -8 -7 92 -112 122 -128 14 -7 11 -1 -9 21 -17 17 -25 31 -19 31 15 0 59 -53 83 -99 10 -20 28 -42 40 -49 26 -16 39 -7 74 52 92 154 114 195 118 216 1 14 6 20 10 15 10 -16 -15 -77 -75 -177 -62 -104 -83 -149 -50 -108 34 43 154 251 205 353 27 55 61 115 77 135 16 21 52 82 81 137 29 55 61 115 72 133 15 25 18 36 9 45 -8 8 -11 8 -11 -1 0 -7 -4 -12 -10 -12 -5 0 -7 13 -3 30 4 23 2 30 -11 30 -9 0 -16 5 -16 10 0 6 -6 10 -14 10 -8 0 -16 10 -18 22 -3 22 -28 39 -28 18z m-865 -230 c10 -11 16 -20 13 -20 -3 0 -13 9 -23 20 -10 11 -16 20 -13 20 3 0 13 -9 23 -20z m166 -207 c13 -17 13 -17 -6 -3 -11 8 -22 16 -24 17 -2 2 0 3 6 3 6 0 17 -8 24 -17z" transform="translate(0,131) scale(0.1,-0.1)" stroke="none" fill="#3C6F7D"/>

<path d="M587 1109 c-136 -13 -324 -84 -404 -154 l-35 -31 60 -74 c33 -41 110 -138 171 -215 170 -212 253 -316 282 -349 l27 -30 28 30 c16 17 42 55 58 85 16 30 51 88 79 129 28 41 74 120 103 176 29 57 80 150 113 208 34 58 61 110 61 116 0 6 -21 20 -47 31 -158 69 -321 94 -496 78z m-103 -274 l17 -30 -20 24 c-12 13 -21 28 -21 34 0 12 0 11 24 -28z" transform="translate(0,131) scale(0.1,-0.1)" stroke="none" fill="#2B3032"/>

</g>

<g id="3" transform="translate(390.0,0)scale(1,1)">

<path d="M560 1254 c-71 -9 -207 -47 -270 -75 -75 -34 -220 -129 -220 -144 0 -5 7 -18 14 -28 13 -17 17 -16 63 16 159 114 337 167 557 167 155 0 281 -26 403 -84 l73 -35 15 22 c14 20 14 23 -7 39 -34 26 -158 76 -246 100 -76 20 -296 32 -382 22z" transform="translate(0,131) scale(0.1,-0.1)" stroke="none" fill="#B08E79"/>

<path d="M1130 1000 c0 -6 -27 -58 -61 -116 -33 -58 -84 -152 -114 -209 -29 -57 -68 -125 -86 -152 -18 -26 -34 -54 -34 -63 -3 -37 -28 -121 -38 -127 -7 -4 -8 0 -3 13 12 27 26 88 21 92 -2 2 -18 -24 -36 -58 -18 -34 -46 -76 -62 -93 l-29 -32 -35 40 c-19 22 -39 39 -43 38 -12 -3 -200 182 -200 196 0 19 14 11 45 -27 17 -20 59 -64 94 -97 l65 -60 -55 66 c-30 36 -112 138 -182 227 -70 89 -135 162 -144 162 -9 0 -13 6 -10 14 3 8 -4 22 -16 33 -21 18 -21 18 -7 -2 8 -11 -2 -5 -21 13 -36 33 -49 39 -49 22 0 -14 163 -202 199 -228 17 -12 31 -28 31 -34 0 -7 -9 -2 -20 10 -12 12 -25 22 -30 22 -4 0 -22 12 -39 26 -47 39 -37 14 14 -36 46 -46 57 -70 29 -70 -8 0 -24 -5 -35 -10 -16 -9 -17 -13 -7 -23 28 -27 71 -57 82 -57 6 0 3 5 -6 11 -10 5 -18 14 -18 20 0 5 12 2 26 -7 22 -15 24 -18 9 -27 -14 -7 -5 -20 57 -80 40 -40 78 -71 84 -69 6 1 19 -10 28 -25 l17 -28 -21 24 c-11 13 -23 21 -27 17 -8 -7 92 -112 122 -128 14 -7 11 -1 -9 21 -17 17 -25 31 -19 31 15 0 59 -53 83 -99 10 -20 28 -42 40 -49 26 -16 39 -7 74 52 92 154 114 195 118 216 1 14 6 20 10 15 10 -16 -15 -77 -75 -177 -62 -104 -83 -149 -50 -108 34 43 154 251 205 353 27 55 61 115 77 135 16 21 52 82 81 137 29 55 61 115 72 133 15 25 18 36 9 45 -8 8 -11 8 -11 -1 0 -7 -4 -12 -10 -12 -5 0 -7 13 -3 30 4 23 2 30 -11 30 -9 0 -16 5 -16 10 0 6 -6 10 -14 10 -8 0 -16 10 -18 22 -3 22 -28 39 -28 18z m-865 -230 c10 -11 16 -20 13 -20 -3 0 -13 9 -23 20 -10 11 -16 20 -13 20 3 0 13 -9 23 -20z m166 -207 c13 -17 13 -17 -6 -3 -11 8 -22 16 -24 17 -2 2 0 3 6 3 6 0 17 -8 24 -17z" transform="translate(0,131) scale(0.1,-0.1)" stroke="none" fill="#3C6F7D"/>

<path d="M587 1109 c-136 -13 -324 -84 -404 -154 l-35 -31 60 -74 c33 -41 110 -138 171 -215 170 -212 253 -316 282 -349 l27 -30 28 30 c16 17 42 55 58 85 16 30 51 88 79 129 28 41 74 120 103 176 29 57 80 150 113 208 34 58 61 110 61 116 0 6 -21 20 -47 31 -158 69 -321 94 -496 78z m-103 -274 l17 -30 -20 24 c-12 13 -21 28 -21 34 0 12 0 11 24 -28z" transform="translate(0,131) scale(0.1,-0.1)" stroke="none" fill="#2B3032"/>

</g>

<g id="4" transform="translate(520.0,0)scale(1,1)">

<path d="M560 1254 c-71 -9 -207 -47 -270 -75 -75 -34 -220 -129 -220 -144 0 -5 7 -18 14 -28 13 -17 17 -16 63 16 159 114 337 167 557 167 155 0 281 -26 403 -84 l73 -35 15 22 c14 20 14 23 -7 39 -34 26 -158 76 -246 100 -76 20 -296 32 -382 22z" transform="translate(0,131) scale(0.1,-0.1)" stroke="none" fill="#B08E79"/>

<path d="M1130 1000 c0 -6 -27 -58 -61 -116 -33 -58 -84 -152 -114 -209 -29 -57 -68 -125 -86 -152 -18 -26 -34 -54 -34 -63 -3 -37 -28 -121 -38 -127 -7 -4 -8 0 -3 13 12 27 26 88 21 92 -2 2 -18 -24 -36 -58 -18 -34 -46 -76 -62 -93 l-29 -32 -35 40 c-19 22 -39 39 -43 38 -12 -3 -200 182 -200 196 0 19 14 11 45 -27 17 -20 59 -64 94 -97 l65 -60 -55 66 c-30 36 -112 138 -182 227 -70 89 -135 162 -144 162 -9 0 -13 6 -10 14 3 8 -4 22 -16 33 -21 18 -21 18 -7 -2 8 -11 -2 -5 -21 13 -36 33 -49 39 -49 22 0 -14 163 -202 199 -228 17 -12 31 -28 31 -34 0 -7 -9 -2 -20 10 -12 12 -25 22 -30 22 -4 0 -22 12 -39 26 -47 39 -37 14 14 -36 46 -46 57 -70 29 -70 -8 0 -24 -5 -35 -10 -16 -9 -17 -13 -7 -23 28 -27 71 -57 82 -57 6 0 3 5 -6 11 -10 5 -18 14 -18 20 0 5 12 2 26 -7 22 -15 24 -18 9 -27 -14 -7 -5 -20 57 -80 40 -40 78 -71 84 -69 6 1 19 -10 28 -25 l17 -28 -21 24 c-11 13 -23 21 -27 17 -8 -7 92 -112 122 -128 14 -7 11 -1 -9 21 -17 17 -25 31 -19 31 15 0 59 -53 83 -99 10 -20 28 -42 40 -49 26 -16 39 -7 74 52 92 154 114 195 118 216 1 14 6 20 10 15 10 -16 -15 -77 -75 -177 -62 -104 -83 -149 -50 -108 34 43 154 251 205 353 27 55 61 115 77 135 16 21 52 82 81 137 29 55 61 115 72 133 15 25 18 36 9 45 -8 8 -11 8 -11 -1 0 -7 -4 -12 -10 -12 -5 0 -7 13 -3 30 4 23 2 30 -11 30 -9 0 -16 5 -16 10 0 6 -6 10 -14 10 -8 0 -16 10 -18 22 -3 22 -28 39 -28 18z m-865 -230 c10 -11 16 -20 13 -20 -3 0 -13 9 -23 20 -10 11 -16 20 -13 20 3 0 13 -9 23 -20z m166 -207 c13 -17 13 -17 -6 -3 -11 8 -22 16 -24 17 -2 2 0 3 6 3 6 0 17 -8 24 -17z" transform="translate(0,131) scale(0.1,-0.1)" stroke="none" fill="#3C6F7D"/>

<path d="M587 1109 c-136 -13 -324 -84 -404 -154 l-35 -31 60 -74 c33 -41 110 -138 171 -215 170 -212 253 -316 282 -349 l27 -30 28 30 c16 17 42 55 58 85 16 30 51 88 79 129 28 41 74 120 103 176 29 57 80 150 113 208 34 58 61 110 61 116 0 6 -21 20 -47 31 -158 69 -321 94 -496 78z m-103 -274 l17 -30 -20 24 c-12 13 -21 28 -21 34 0 12 0 11 24 -28z" transform="translate(0,131) scale(0.1,-0.1)" stroke="none" fill="#2B3032"/>

</g>

</g>
<g id="row3" transform="translate(17,393.0)">
<g id="0" transform="translate(0.0,0)scale(1,1)">

<path d="M560 1254 c-71 -9 -207 -47 -270 -75 -75 -34 -220 -129 -220 -144 0 -5 7 -18 14 -28 13 -17 17 -16 63 16 159 114 337 167 557 167 155 0 281 -26 403 -84 l73 -35 15 22 c14 20 14 23 -7 39 -34 26 -158 76 -246 100 -76 20 -296 32 -382 22z" transform="translate(0,131) scale(0.1,-0.1)" stroke="none" fill="#B08E79"/>

<path d="M1130 1000 c0 -6 -27 -58 -61 -116 -33 -58 -84 -152 -114 -209 -29 -57 -68 -125 -86 -152 -18 -26 -34 -54 -34 -63 -3 -37 -28 -121 -38 -127 -7 -4 -8 0 -3 13 12 27 26 88 21 92 -2 2 -18 -24 -36 -58 -18 -34 -46 -76 -62 -93 l-29 -32 -35 40 c-19 22 -39 39 -43 38 -12 -3 -200 182 -200 196 0 19 14 11 45 -27 17 -20 59 -64 94 -97 l65 -60 -55 66 c-30 36 -112 138 -182 227 -70 89 -135 162 -144 162 -9 0 -13 6 -10 14 3 8 -4 22 -16 33 -21 18 -21 18 -7 -2 8 -11 -2 -5 -21 13 -36 33 -49 39 -49 22 0 -14 163 -202 199 -228 17 -12 31 -28 31 -34 0 -7 -9 -2 -20 10 -12 12 -25 22 -30 22 -4 0 -22 12 -39 26 -47 39 -37 14 14 -36 46 -46 57 -70 29 -70 -8 0 -24 -5 -35 -10 -16 -9 -17 -13 -7 -23 28 -27 71 -57 82 -57 6 0 3 5 -6 11 -10 5 -18 14 -18 20 0 5 12 2 26 -7 22 -15 24 -18 9 -27 -14 -7 -5 -20 57 -80 40 -40 78 -71 84 -69 6 1 19 -10 28 -25 l17 -28 -21 24 c-11 13 -23 21 -27 17 -8 -7 92 -112 122 -128 14 -7 11 -1 -9 21 -17 17 -25 31 -19 31 15 0 59 -53 83 -99 10 -20 28 -42 40 -49 26 -16 39 -7 74 52 92 154 114 195 118 216 1 14 6 20 10 15 10 -16 -15 -77 -75 -177 -62 -104 -83 -149 -50 -108 34 43 154 251 205 353 27 55 61 115 77 135 16 21 52 82 81 137 29 55 61 115 72 133 15 25 18 36 9 45 -8 8 -11 8 -11 -1 0 -7 -4 -12 -10 -12 -5 0 -7 13 -3 30 4 23 2 30 -11 30 -9 0 -16 5 -16 10 0 6 -6 10 -14 10 -8 0 -16 10 -18 22 -3 22 -28 39 -28 18z m-865 -230 c10 -11 16 -20 13 -20 -3 0 -13 9 -23 20 -10 11 -16 20 -13 20 3 0 13 -9 23 -20z m166 -207 c13 -17 13 -17 -6 -3 -11 8 -22 16 -24 17 -2 2 0 3 6 3 6 0 17 -8 24 -17z" transform="translate(0,131) scale(0.1,-0.1)" stroke="none" fill="#3C6F7D"/>

<path d="M587 1109 c-136 -13 -324 -84 -404 -154 l-35 -31 60 -74 c33 -41 110 -138 171 -215 170 -212 253 -316 282 -349 l27 -30 28 30 c16 17 42 55 58 85 16 30 51 88 79 129 28 41 74 120 103 176 29 57 80 150 113 208 34 58 61 110 61 116 0 6 -21 20 -47 31 -158 69 -321 94 -496 78z m-103 -274 l17 -30 -20 24 c-12 13 -21 28 -21 34 0 12 0 11 24 -28z" transform="translate(0,131) scale(0.1,-0.1)" stroke="none" fill="#2B3032"/>

</g>

<g id="1" transform="translate(130.0,0)scale(1,1)">

<path d="M560 1254 c-71 -9 -207 -47 -270 -75 -75 -34 -220 -129 -220 -144 0 -5 7 -18 14 -28 13 -17 17 -16 63 16 159 114 337 167 557 167 155 0 281 -26 403 -84 l73 -35 15 22 c14 20 14 23 -7 39 -34 26 -158 76 -246 100 -76 20 -296 32 -382 22z" transform="translate(0,131) scale(0.1,-0.1)" stroke="none" fill="#B08E79"/>

<path d="M1130 1000 c0 -6 -27 -58 -61 -116 -33 -58 -84 -152 -114 -209 -29 -57 -68 -125 -86 -152 -18 -26 -34 -54 -34 -63 -3 -37 -28 -121 -38 -127 -7 -4 -8 0 -3 13 12 27 26 88 21 92 -2 2 -18 -24 -36 -58 -18 -34 -46 -76 -62 -93 l-29 -32 -35 40 c-19 22 -39 39 -43 38 -12 -3 -200 182 -200 196 0 19 14 11 45 -27 17 -20 59 -64 94 -97 l65 -60 -55 66 c-30 36 -112 138 -182 227 -70 89 -135 162 -144 162 -9 0 -13 6 -10 14 3 8 -4 22 -16 33 -21 18 -21 18 -7 -2 8 -11 -2 -5 -21 13 -36 33 -49 39 -49 22 0 -14 163 -202 199 -228 17 -12 31 -28 31 -34 0 -7 -9 -2 -20 10 -12 12 -25 22 -30 22 -4 0 -22 12 -39 26 -47 39 -37 14 14 -36 46 -46 57 -70 29 -70 -8 0 -24 -5 -35 -10 -16 -9 -17 -13 -7 -23 28 -27 71 -57 82 -57 6 0 3 5 -6 11 -10 5 -18 14 -18 20 0 5 12 2 26 -7 22 -15 24 -18 9 -27 -14 -7 -5 -20 57 -80 40 -40 78 -71 84 -69 6 1 19 -10 28 -25 l17 -28 -21 24 c-11 13 -23 21 -27 17 -8 -7 92 -112 122 -128 14 -7 11 -1 -9 21 -17 17 -25 31 -19 31 15 0 59 -53 83 -99 10 -20 28 -42 40 -49 26 -16 39 -7 74 52 92 154 114 195 118 216 1 14 6 20 10 15 10 -16 -15 -77 -75 -177 -62 -104 -83 -149 -50 -108 34 43 154 251 205 353 27 55 61 115 77 135 16 21 52 82 81 137 29 55 61 115 72 133 15 25 18 36 9 45 -8 8 -11 8 -11 -1 0 -7 -4 -12 -10 -12 -5 0 -7 13 -3 30 4 23 2 30 -11 30 -9 0 -16 5 -16 10 0 6 -6 10 -14 10 -8 0 -16 10 -18 22 -3 22 -28 39 -28 18z m-865 -230 c10 -11 16 -20 13 -20 -3 0 -13 9 -23 20 -10 11 -16 20 -13 20 3 0 13 -9 23 -20z m166 -207 c13 -17 13 -17 -6 -3 -11 8 -22 16 -24 17 -2 2 0 3 6 3 6 0 17 -8 24 -17z" transform="translate(0,131) scale(0.1,-0.1)" stroke="none" fill="#3C6F7D"/>

<path d="M587 1109 c-136 -13 -324 -84 -404 -154 l-35 -31 60 -74 c33 -41 110 -138 171 -215 170 -212 253 -316 282 -349 l27 -30 28 30 c16 17 42 55 58 85 16 30 51 88 79 129 28 41 74 120 103 176 29 57 80 150 113 208 34 58 61 110 61 116 0 6 -21 20 -47 31 -158 69 -321 94 -496 78z m-103 -274 l17 -30 -20 24 c-12 13 -21 28 -21 34 0 12 0 11 24 -28z" transform="translate(0,131) scale(0.1,-0.1)" stroke="none" fill="#2B3032"/>

</g>

<g id="2" transform="translate(260.0,0)scale(1,1)">

<path d="M560 1254 c-71 -9 -207 -47 -270 -75 -75 -34 -220 -129 -220 -144 0 -5 7 -18 14 -28 13 -17 17 -16 63 16 159 114 337 167 557 167 155 0 281 -26 403 -84 l73 -35 15 22 c14 20 14 23 -7 39 -34 26 -158 76 -246 100 -76 20 -296 32 -382 22z" transform="translate(0,131) scale(0.1,-0.1)" stroke="none" fill="#B08E79"/>

<path d="M1130 1000 c0 -6 -27 -58 -61 -116 -33 -58 -84 -152 -114 -209 -29 -57 -68 -125 -86 -152 -18 -26 -34 -54 -34 -63 -3 -37 -28 -121 -38 -127 -7 -4 -8 0 -3 13 12 27 26 88 21 92 -2 2 -18 -24 -36 -58 -18 -34 -46 -76 -62 -93 l-29 -32 -35 40 c-19 22 -39 39 -43 38 -12 -3 -200 182 -200 196 0 19 14 11 45 -27 17 -20 59 -64 94 -97 l65 -60 -55 66 c-30 36 -112 138 -182 227 -70 89 -135 162 -144 162 -9 0 -13 6 -10 14 3 8 -4 22 -16 33 -21 18 -21 18 -7 -2 8 -11 -2 -5 -21 13 -36 33 -49 39 -49 22 0 -14 163 -202 199 -228 17 -12 31 -28 31 -34 0 -7 -9 -2 -20 10 -12 12 -25 22 -30 22 -4 0 -22 12 -39 26 -47 39 -37 14 14 -36 46 -46 57 -70 29 -70 -8 0 -24 -5 -35 -10 -16 -9 -17 -13 -7 -23 28 -27 71 -57 82 -57 6 0 3 5 -6 11 -10 5 -18 14 -18 20 0 5 12 2 26 -7 22 -15 24 -18 9 -27 -14 -7 -5 -20 57 -80 40 -40 78 -71 84 -69 6 1 19 -10 28 -25 l17 -28 -21 24 c-11 13 -23 21 -27 17 -8 -7 92 -112 122 -128 14 -7 11 -1 -9 21 -17 17 -25 31 -19 31 15 0 59 -53 83 -99 10 -20 28 -42 40 -49 26 -16 39 -7 74 52 92 154 114 195 118 216 1 14 6 20 10 15 10 -16 -15 -77 -75 -177 -62 -104 -83 -149 -50 -108 34 43 154 251 205 353 27 55 61 115 77 135 16 21 52 82 81 137 29 55 61 115 72 133 15 25 18 36 9 45 -8 8 -11 8 -11 -1 0 -7 -4 -12 -10 -12 -5 0 -7 13 -3 30 4 23 2 30 -11 30 -9 0 -16 5 -16 10 0 6 -6 10 -14 10 -8 0 -16 10 -18 22 -3 22 -28 39 -28 18z m-865 -230 c10 -11 16 -20 13 -20 -3 0 -13 9 -23 20 -10 11 -16 20 -13 20 3 0 13 -9 23 -20z m166 -207 c13 -17 13 -17 -6 -3 -11 8 -22 16 -24 17 -2 2 0 3 6 3 6 0 17 -8 24 -17z" transform="translate(0,131) scale(0.1,-0.1)" stroke="none" fill="#3C6F7D"/>

<path d="M587 1109 c-136 -13 -324 -84 -404 -154 l-35 -31 60 -74 c33 -41 110 -138 171 -215 170 -212 253 -316 282 -349 l27 -30 28 30 c16 17 42 55 58 85 16 30 51 88 79 129 28 41 74 120 103 176 29 57 80 150 113 208 34 58 61 110 61 116 0 6 -21 20 -47 31 -158 69 -321 94 -496 78z m-103 -274 l17 -30 -20 24 c-12 13 -21 28 -21 34 0 12 0 11 24 -28z" transform="translate(0,131) scale(0.1,-0.1)" stroke="none" fill="#2B3032"/>

</g>

<g id="3" transform="translate(390.0,0)scale(1,1)">

<path d="M560 1254 c-71 -9 -207 -47 -270 -75 -75 -34 -220 -129 -220 -144 0 -5 7 -18 14 -28 13 -17 17 -16 63 16 159 114 337 167 557 167 155 0 281 -26 403 -84 l73 -35 15 22 c14 20 14 23 -7 39 -34 26 -158 76 -246 100 -76 20 -296 32 -382 22z" transform="translate(0,131) scale(0.1,-0.1)" stroke="none" fill="#B08E79"/>

<path d="M1130 1000 c0 -6 -27 -58 -61 -116 -33 -58 -84 -152 -114 -209 -29 -57 -68 -125 -86 -152 -18 -26 -34 -54 -34 -63 -3 -37 -28 -121 -38 -127 -7 -4 -8 0 -3 13 12 27 26 88 21 92 -2 2 -18 -24 -36 -58 -18 -34 -46 -76 -62 -93 l-29 -32 -35 40 c-19 22 -39 39 -43 38 -12 -3 -200 182 -200 196 0 19 14 11 45 -27 17 -20 59 -64 94 -97 l65 -60 -55 66 c-30 36 -112 138 -182 227 -70 89 -135 162 -144 162 -9 0 -13 6 -10 14 3 8 -4 22 -16 33 -21 18 -21 18 -7 -2 8 -11 -2 -5 -21 13 -36 33 -49 39 -49 22 0 -14 163 -202 199 -228 17 -12 31 -28 31 -34 0 -7 -9 -2 -20 10 -12 12 -25 22 -30 22 -4 0 -22 12 -39 26 -47 39 -37 14 14 -36 46 -46 57 -70 29 -70 -8 0 -24 -5 -35 -10 -16 -9 -17 -13 -7 -23 28 -27 71 -57 82 -57 6 0 3 5 -6 11 -10 5 -18 14 -18 20 0 5 12 2 26 -7 22 -15 24 -18 9 -27 -14 -7 -5 -20 57 -80 40 -40 78 -71 84 -69 6 1 19 -10 28 -25 l17 -28 -21 24 c-11 13 -23 21 -27 17 -8 -7 92 -112 122 -128 14 -7 11 -1 -9 21 -17 17 -25 31 -19 31 15 0 59 -53 83 -99 10 -20 28 -42 40 -49 26 -16 39 -7 74 52 92 154 114 195 118 216 1 14 6 20 10 15 10 -16 -15 -77 -75 -177 -62 -104 -83 -149 -50 -108 34 43 154 251 205 353 27 55 61 115 77 135 16 21 52 82 81 137 29 55 61 115 72 133 15 25 18 36 9 45 -8 8 -11 8 -11 -1 0 -7 -4 -12 -10 -12 -5 0 -7 13 -3 30 4 23 2 30 -11 30 -9 0 -16 5 -16 10 0 6 -6 10 -14 10 -8 0 -16 10 -18 22 -3 22 -28 39 -28 18z m-865 -230 c10 -11 16 -20 13 -20 -3 0 -13 9 -23 20 -10 11 -16 20 -13 20 3 0 13 -9 23 -20z m166 -207 c13 -17 13 -17 -6 -3 -11 8 -22 16 -24 17 -2 2 0 3 6 3 6 0 17 -8 24 -17z" transform="translate(0,131) scale(0.1,-0.1)" stroke="none" fill="#3C6F7D"/>

<path d="M587 1109 c-136 -13 -324 -84 -404 -154 l-35 -31 60 -74 c33 -41 110 -138 171 -215 170 -212 253 -316 282 -349 l27 -30 28 30 c16 17 42 55 58 85 16 30 51 88 79 129 28 41 74 120 103 176 29 57 80 150 113 208 34 58 61 110 61 116 0 6 -21 20 -47 31 -158 69 -321 94 -496 78z m-103 -274 l17 -30 -20 24 c-12 13 -21 28 -21 34 0 12 0 11 24 -28z" transform="translate(0,131) scale(0.1,-0.1)" stroke="none" fill="#2B3032"/>

</g>

<g id="4" transform="translate(520.0,0)scale(1,1)">

<path d="M560 1254 c-71 -9 -207 -47 -270 -75 -75 -34 -220 -129 -220 -144 0 -5 7 -18 14 -28 13 -17 17 -16 63 16 159 114 337 167 557 167 155 0 281 -26 403 -84 l73 -35 15 22 c14 20 14 23 -7 39 -34 26 -158 76 -246 100 -76 20 -296 32 -382 22z" transform="translate(0,131) scale(0.1,-0.1)" stroke="none" fill="#B08E79"/>

<path d="M1130 1000 c0 -6 -27 -58 -61 -116 -33 -58 -84 -152 -114 -209 -29 -57 -68 -125 -86 -152 -18 -26 -34 -54 -34 -63 -3 -37 -28 -121 -38 -127 -7 -4 -8 0 -3 13 12 27 26 88 21 92 -2 2 -18 -24 -36 -58 -18 -34 -46 -76 -62 -93 l-29 -32 -35 40 c-19 22 -39 39 -43 38 -12 -3 -200 182 -200 196 0 19 14 11 45 -27 17 -20 59 -64 94 -97 l65 -60 -55 66 c-30 36 -112 138 -182 227 -70 89 -135 162 -144 162 -9 0 -13 6 -10 14 3 8 -4 22 -16 33 -21 18 -21 18 -7 -2 8 -11 -2 -5 -21 13 -36 33 -49 39 -49 22 0 -14 163 -202 199 -228 17 -12 31 -28 31 -34 0 -7 -9 -2 -20 10 -12 12 -25 22 -30 22 -4 0 -22 12 -39 26 -47 39 -37 14 14 -36 46 -46 57 -70 29 -70 -8 0 -24 -5 -35 -10 -16 -9 -17 -13 -7 -23 28 -27 71 -57 82 -57 6 0 3 5 -6 11 -10 5 -18 14 -18 20 0 5 12 2 26 -7 22 -15 24 -18 9 -27 -14 -7 -5 -20 57 -80 40 -40 78 -71 84 -69 6 1 19 -10 28 -25 l17 -28 -21 24 c-11 13 -23 21 -27 17 -8 -7 92 -112 122 -128 14 -7 11 -1 -9 21 -17 17 -25 31 -19 31 15 0 59 -53 83 -99 10 -20 28 -42 40 -49 26 -16 39 -7 74 52 92 154 114 195 118 216 1 14 6 20 10 15 10 -16 -15 -77 -75 -177 -62 -104 -83 -149 -50 -108 34 43 154 251 205 353 27 55 61 115 77 135 16 21 52 82 81 137 29 55 61 115 72 133 15 25 18 36 9 45 -8 8 -11 8 -11 -1 0 -7 -4 -12 -10 -12 -5 0 -7 13 -3 30 4 23 2 30 -11 30 -9 0 -16 5 -16 10 0 6 -6 10 -14 10 -8 0 -16 10 -18 22 -3 22 -28 39 -28 18z m-865 -230 c10 -11 16 -20 13 -20 -3 0 -13 9 -23 20 -10 11 -16 20 -13 20 3 0 13 -9 23 -20z m166 -207 c13 -17 13 -17 -6 -3 -11 8 -22 16 -24 17 -2 2 0 3 6 3 6 0 17 -8 24 -17z" transform="translate(0,131) scale(0.1,-0.1)" stroke="none" fill="#3C6F7D"/>

<path d="M587 1109 c-136 -13 -324 -84 -404 -154 l-35 -31 60 -74 c33 -41 110 -138 171 -215 170 -212 253 -316 282 -349 l27 -30 28 30 c16 17 42 55 58 85 16 30 51 88 79 129 28 41 74 120 103 176 29 57 80 150 113 208 34 58 61 110 61 116 0 6 -21 20 -47 31 -158 69 -321 94 -496 78z m-103 -274 l17 -30 -20 24 c-12 13 -21 28 -21 34 0 12 0 11 24 -28z" transform="translate(0,131) scale(0.1,-0.1)" stroke="none" fill="#2B3032"/>

</g>

</g>
</svg>