<?xml version="1.0" standalone="no"?>
<!DOCTYPE svg PUBLIC "-//W3C//DTD SVG 20010904//EN"
 "http://www.w3.org/TR/2001/REC-SVG-20010904/DTD/svg10.dtd">
<svg version="1.0" xmlns="http://www.w3.org/2000/svg" 
width="114.000000pt" height="120.000000pt" viewBox="0 0 114.000000 120.000000"
preserveAspectRatio = "xMidYMid meet" >
<metadata>
Created by ZoeQU, 2022
</metadata>
<rect width="114.000000" height="120.000000" fill="#A36CB7"/>
<path d="M380 630 c0 -5 -9 -10 -20 -10 -11 0 -20 -5 -20 -11 0 -7 12 -9 33 -5 17 3 49 9 70 12 53 9 46 24 -13 24 -27 0 -50 -4 -50 -10z" transform="translate(0.000000,120.000000) scale(0.100000,-0.100000)" stroke="none" fill="#D6DACA"/>

<path d="M78 43 c-10 -2 -18 -13 -18 -24 0 -17 7 -19 65 -19 36 0 65 4 65 8 0 10 -66 42 -83 41 -7 -1 -20 -3 -29 -6z" transform="translate(0.000000,120.000000) scale(0.100000,-0.100000)" stroke="none" fill="#D6DACA"/>

<path d="M1040 575 c0 -3 7 -17 16 -31 9 -14 20 -44 25 -67 7 -36 4 -48 -17 -79 -13 -21 -22 -38 -18 -38 17 0 46 24 59 50 18 35 8 98 -22 139 -19 24 -43 39 -43 26z" transform="translate(0.000000,120.000000) scale(0.100000,-0.100000)" stroke="none" fill="#F7B83F"/>

<path d="M868 977 c-27 -24 -41 -50 -15 -29 19 16 83 25 122 18 95 -18 75 -115 -35 -171 -60 -31 -66 -33 -109 -45 -25 -7 -41 -16 -38 -23 7 -20 54 -8 140 33 93 45 127 84 127 148 0 51 -43 84 -115 89 -42 4 -54 0 -77 -20z" transform="translate(0.000000,120.000000) scale(0.100000,-0.100000)" stroke="none" fill="#D6DACA"/>

<path d="M563 1106 c-27 -23 -28 -28 -26 -108 1 -59 9 -102 26 -148 23 -62 25 -65 60 -68 35 -3 52 11 25 20 -9 3 -6 24 10 80 38 131 27 217 -31 238 -38 13 -31 14 -64 -14z" transform="translate(0.000000,120.000000) scale(0.100000,-0.100000)" stroke="none" fill="#F7B83F"/>

<path d="M485 630 c-11 -4 -47 -13 -80 -20 -33 -6 -68 -16 -77 -21 -10 -5 -23 -9 -29 -9 -18 0 -53 -52 -57 -83 -4 -37 49 -97 86 -97 32 0 109 57 164 122 59 70 61 74 48 98 -11 21 -23 24 -55 10z" transform="translate(0.000000,120.000000) scale(0.100000,-0.100000)" stroke="none" fill="#F7B83F"/>

<path d="M890 963 c-44 -14 -64 -33 -111 -105 -48 -73 -51 -81 -39 -103 7 -14 18 -25 24 -25 23 0 119 36 181 68 95 48 121 135 49 162 -26 10 -78 12 -104 3z" transform="translate(0.000000,120.000000) scale(0.100000,-0.100000)" stroke="none" fill="#F7B83F"/>

<path d="M245 961 c-11 -5 -26 -20 -34 -33 -28 -53 32 -113 161 -161 138 -52 161 -58 170 -45 16 27 6 49 -49 108 -103 111 -189 156 -248 131z" transform="translate(0.000000,120.000000) scale(0.100000,-0.100000)" stroke="none" fill="#F7B83F"/>

<path d="M760 630 c0 -5 -7 -16 -15 -24 -22 -21 -11 -38 69 -114 73 -68 104 -87 159 -97 32 -6 42 -4 63 16 37 35 27 96 -25 143 -29 26 -111 66 -136 66 -12 0 -25 3 -29 7 -10 10 -86 13 -86 3z" transform="translate(0.000000,120.000000) scale(0.100000,-0.100000)" stroke="none" fill="#F7B83F"/>

<path d="M618 549 c-11 -6 -18 -22 -18 -39 0 -17 -4 -30 -10 -30 -5 0 -10 -9 -10 -20 0 -11 -4 -20 -8 -20 -13 0 -52 -75 -52 -98 0 -12 -4 -24 -10 -27 -27 -16 9 -99 48 -113 50 -16 120 19 149 76 22 41 7 158 -30 245 -16 38 -29 44 -59 26z" transform="translate(0.000000,120.000000) scale(0.100000,-0.100000)" stroke="none" fill="#F7B83F"/>

<path d="M195 480 c-3 -5 -21 -10 -39 -10 -33 0 -53 -15 -74 -56 -22 -43 -13 -222 14 -276 8 -15 14 -40 14 -56 0 -23 6 -32 29 -42 25 -10 34 -9 69 14 22 14 49 38 59 53 17 24 56 186 57 234 0 9 6 15 12 12 7 -2 15 0 18 5 3 5 -11 12 -31 15 -37 6 -103 66 -103 93 0 17 -17 27 -25 14z" transform="translate(0.000000,120.000000) scale(0.100000,-0.100000)" stroke="none" fill="#F7B83F"/>

<path d="M543 1127 c-31 -36 -52 -119 -34 -141 4 -6 11 -41 13 -78 l6 -66 -32 32 c-72 75 -158 126 -213 126 -15 0 -44 -12 -65 -26 -31 -22 -38 -33 -38 -60 0 -19 5 -34 10 -34 6 0 10 -7 10 -16 0 -29 84 -98 136 -112 27 -7 57 -18 66 -23 10 -5 23 -9 30 -9 22 0 87 -35 88 -47 0 -7 -4 -13 -10 -13 -5 0 -10 -5 -10 -11 0 -6 6 -9 14 -6 16 6 40 -39 29 -56 -21 -36 -102 -122 -143 -152 -60 -44 -87 -44 -129 -1 -37 39 -40 76 -7 113 11 13 17 26 13 29 -8 8 -44 -32 -57 -63 -20 -48 42 -130 104 -140 31 -5 43 0 90 36 29 23 75 68 102 101 53 64 70 74 60 35 -8 -30 7 -32 34 -5 11 11 27 20 36 20 25 0 60 -99 71 -203 6 -59 -14 -104 -59 -134 -71 -46 -137 -26 -153 48 -8 37 -25 38 -25 1 0 -31 41 -81 80 -98 36 -16 94 7 141 54 48 49 59 110 35 187 -9 28 -16 61 -16 73 0 11 -4 24 -10 27 -5 3 -10 18 -10 33 l1 27 20 -27 c11 -16 27 -28 36 -28 16 0 43 -24 43 -38 0 -6 22 -30 49 -54 51 -46 131 -75 175 -64 39 10 66 63 57 111 -9 47 -22 74 -48 96 -34 31 -108 66 -151 73 -65 10 -112 32 -112 53 0 10 -9 29 -20 43 -11 14 -20 33 -20 43 0 19 -11 22 -27 6 -5 -5 -34 -9 -63 -7 l-53 3 -22 62 c-43 119 -41 230 5 265 21 15 31 17 56 8 17 -6 36 -22 43 -36 17 -38 13 -121 -9 -194 -24 -77 -24 -90 -6 -90 15 0 56 147 56 202 0 86 -37 141 -101 153 -32 6 -39 3 -66 -28z m-154 -202 c25 -18 74 -63 109 -98 59 -61 62 -66 51 -91 -7 -15 -17 -25 -23 -23 -6 2 -29 10 -51 17 -157 51 -233 92 -263 142 -14 24 -14 30 -2 54 30 55 105 54 179 -1z m457 -298 c4 -4 17 -7 29 -7 25 0 107 -40 136 -66 52 -47 62 -108 25 -143 -21 -20 -31 -22 -63 -16 -55 10 -86 29 -159 97 -80 76 -91 93 -69 114 8 8 15 19 15 24 0 10 76 7 86 -3z" transform="translate(0.000000,120.000000) scale(0.100000,-0.100000)" stroke="none" fill="#D6DACA"/>

</svg>