<?xml version="1.0" standalone="no"?>
<!DOCTYPE svg PUBLIC "-//W3C//DTD SVG 20010904//EN"
 "http://www.w3.org/TR/2001/REC-SVG-20010904/DTD/svg10.dtd">
<svg version="1.0" xmlns="http://www.w3.org/2000/svg" 
width="126.000000pt" height="160.000000pt" viewBox="0 0 126.000000 160.000000"
preserveAspectRatio = "xMidYMid meet" >
<metadata>
Created by ZoeQU, 2022
</metadata>
<rect width="126.000000" height="160.000000" fill="#BBBBDD"/>
<path d="M965 1285 c-16 -7 -28 -14 -25 -14 3 -1 37 -3 75 -4 50 -3 81 -10 108 -25 45 -26 57 -27 57 -7 0 22 -97 65 -145 64 -22 0 -53 -6 -70 -14z" transform="translate(0.000000,160.000000) scale(0.100000,-0.100000)" stroke="none" fill="#3970D6"/>

<path d="M236 1332 c-8 -16 -11 -33 -8 -39 4 -5 58 -22 120 -36 117 -28 199 -69 241 -123 23 -29 31 -30 31 -6 0 10 -21 44 -47 75 -51 59 -88 80 -210 116 -40 12 -75 26 -78 31 -12 19 -34 10 -49 -18z" transform="translate(0.000000,160.000000) scale(0.100000,-0.100000)" stroke="none" fill="#3970D6"/>

<path d="M346 450 c-76 -30 -146 -106 -200 -216 -51 -102 -51 -117 -1 -144 35 -19 46 -5 69 84 10 39 33 93 52 121 45 69 138 114 253 124 l76 7 -40 18 c-61 28 -150 30 -209 6z" transform="translate(0.000000,160.000000) scale(0.100000,-0.100000)" stroke="none" fill="#3970D6"/>

<path d="M1151 1564 c-1 -7 -12 -15 -25 -18 -33 -8 -168 -111 -234 -178 -68 -70 -109 -131 -168 -248 -46 -91 -48 -94 -55 -65 -41 162 -54 199 -92 246 -53 68 -117 99 -199 99 -73 0 -118 -21 -97 -46 6 -8 44 -24 83 -35 121 -36 158 -57 209 -116 26 -31 47 -65 47 -75 0 -24 -8 -23 -31 6 -42 54 -124 95 -241 123 -62 14 -116 31 -120 37 -8 12 -12 -21 -9 -68 6 -67 88 -126 176 -126 24 0 47 -4 50 -10 3 -5 26 -10 50 -10 24 0 47 -4 50 -10 3 -5 17 -10 31 -10 14 0 24 -6 24 -14 0 -7 7 -19 15 -26 37 -31 60 -129 34 -146 -7 -4 -10 -71 -8 -207 2 -148 0 -202 -9 -205 -7 -2 -12 1 -12 7 0 6 -9 11 -19 11 -11 0 -23 5 -26 10 -3 6 -17 10 -31 10 -13 0 -24 5 -24 10 0 6 -50 10 -130 10 -80 0 -130 -4 -130 -10 0 -5 -9 -10 -20 -10 -11 0 -20 -4 -20 -10 0 -5 -9 -10 -20 -10 -11 0 -20 -4 -20 -10 0 -5 -6 -10 -14 -10 -24 0 -83 -75 -101 -130 -22 -66 -14 -136 21 -187 31 -46 41 -56 25 -25 -10 19 -6 35 34 115 101 204 252 282 410 211 l40 -18 -76 -7 c-114 -10 -208 -56 -253 -123 -18 -28 -41 -80 -51 -116 -9 -36 -21 -73 -26 -82 -14 -27 -12 -28 31 -28 86 0 132 34 219 164 27 39 59 81 72 93 64 59 148 59 173 0 47 -111 61 -137 73 -137 24 0 25 28 4 92 -54 163 -87 403 -59 425 7 6 40 13 74 16 63 5 124 29 124 49 0 7 -16 9 -47 4 -27 -3 -72 -9 -100 -12 l-53 -7 0 54 c0 104 104 379 149 394 10 3 22 12 25 20 3 8 15 15 26 15 11 0 20 5 20 10 0 6 7 10 16 10 8 0 13 4 10 9 -8 12 49 31 93 31 53 0 138 -43 144 -72 4 -21 4 -21 6 -2 1 27 -38 85 -69 102 -30 15 -103 9 -161 -15 -22 -8 -42 -13 -46 -10 -6 7 112 126 196 198 32 28 51 52 48 60 -3 8 -6 9 -6 3z" transform="translate(0.000000,160.000000) scale(0.100000,-0.100000)" stroke="none" fill="#73A5DE"/>

</svg>