<?xml version="1.0" standalone="no"?>
<!DOCTYPE svg PUBLIC "-//W3C//DTD SVG 20010904//EN"
 "http://www.w3.org/TR/2001/REC-SVG-20010904/DTD/svg10.dtd">
<svg version="1.0" xmlns="http://www.w3.org/2000/svg" width="480pt" height="536pt" viewBox="0 0 480 536" preserveAspectRatio = "xMidYMid meet" >
<metadata>
Created by ZoeQu, written in 2022
</metadata>
<rect width="480" height="536" fill="#F4A183"/>
<g id="col0" transform="translate(0, 17)">
<g id="0" transform="translate(0,0.0)scale(0.8,0.8)">

<path d="M363 969 c-31 -11 -40 -54 -18 -79 23 -26 57 -25 80 0 36 40 -10 99 -62 79z m65 -41 c4 -20 -24 -48 -49 -48 -11 0 -24 11 -31 26 -11 23 -10 29 11 45 21 17 26 18 45 6 12 -8 22 -21 24 -29z" transform="translate(0,134) scale(0.1,-0.1)" stroke="none" fill="#BED3B8"/>

<path d="M359 951 c-21 -16 -22 -22 -11 -45 13 -30 43 -34 67 -10 20 21 16 43 -11 61 -19 12 -24 11 -45 -6z" transform="translate(0,134) scale(0.1,-0.1)" stroke="none" fill="#936C3F"/>

<path d="M858 839 c-36 -21 -16 -79 27 -79 43 0 59 44 27 73 -21 19 -30 20 -54 6z" transform="translate(0,134) scale(0.1,-0.1)" stroke="none" fill="#BED3B8"/>

<path d="M726 1178 c-24 -34 -21 -118 7 -159 32 -49 105 -83 157 -74 80 14 147 104 130 175 -8 34 -8 34 -9 -14 -2 -121 -120 -187 -224 -127 -58 33 -87 147 -51 199 8 12 13 22 10 22 -3 0 -12 -10 -20 -22z" transform="translate(0,134) scale(0.1,-0.1)" stroke="none" fill="#BED3B8"/>

<path d="M793 1234 c-93 -46 -96 -204 -6 -255 73 -42 154 -25 201 44 29 43 30 117 2 162 -37 60 -128 83 -197 49z m161 -90 c9 -8 16 -22 16 -29 0 -13 -26 -45 -36 -45 -39 0 -59 60 -26 79 23 14 28 14 46 -5z" transform="translate(0,134) scale(0.1,-0.1)" stroke="none" fill="#936C3F"/>

<path d="M122 823 c-11 -16 -22 -37 -25 -48 -8 -24 6 -50 22 -41 6 4 42 -7 80 -24 38 -16 72 -30 75 -30 3 0 17 -11 31 -25 20 -17 34 -23 53 -19 21 4 36 -3 66 -31 24 -22 45 -33 56 -30 10 3 32 -9 56 -30 30 -27 47 -35 72 -33 18 1 36 -3 40 -9 10 -15 68 -43 91 -43 11 0 33 -12 50 -26 20 -17 45 -27 69 -28 24 -1 46 -10 60 -24 13 -13 36 -25 53 -29 17 -3 36 -14 42 -24 7 -11 17 -19 24 -19 15 0 39 36 48 72 7 27 6 28 -39 26 -59 -3 -92 22 -128 93 -52 104 -67 112 -191 104 -71 -5 -100 -3 -127 8 -44 19 -94 71 -114 117 -8 19 -26 46 -41 60 -23 22 -34 25 -83 22 -138 -9 -150 -7 -181 16 -17 12 -32 22 -35 22 -3 0 -13 -12 -24 -27z" transform="translate(0,134) scale(0.1,-0.1)" stroke="none" fill="#936C3F"/>

<path d="M635 1133 c-33 -8 -91 -16 -128 -18 -86 -5 -145 -32 -187 -84 -18 -22 -35 -39 -38 -36 -6 6 -96 -40 -109 -57 -6 -7 -13 -25 -17 -40 -5 -21 0 -31 24 -51 43 -36 65 -41 131 -27 67 14 119 7 143 -19 9 -10 29 -43 44 -72 19 -38 41 -63 76 -87 48 -32 49 -32 161 -30 131 3 142 -2 181 -89 42 -93 92 -120 172 -92 22 8 34 20 43 46 17 53 6 152 -24 209 -18 35 -27 70 -30 119 -4 65 -23 123 -59 180 -7 11 -14 22 -15 24 -1 2 -18 -10 -37 -27 -57 -50 -116 -54 -184 -12 -46 28 -72 76 -72 133 0 26 -3 47 -7 46 -5 -1 -35 -8 -68 -16z m45 -144 c25 -46 -17 -96 -68 -82 -31 8 -46 50 -27 79 21 32 79 34 95 3z m-260 -29 c24 -24 25 -47 3 -72 -31 -34 -93 -13 -93 33 0 23 34 59 55 59 8 0 24 -9 35 -20z m500 -124 c30 -37 -20 -97 -62 -75 -28 15 -32 36 -14 64 18 28 57 33 76 11z m-230 -41 c7 -8 10 -25 6 -40 -5 -20 -13 -25 -36 -25 -23 0 -31 5 -36 25 -7 29 10 55 36 55 10 0 23 -7 30 -15z m334 -178 c22 -16 18 -65 -6 -80 -28 -18 -68 7 -68 42 0 44 39 64 74 38z" transform="translate(0,134) scale(0.1,-0.1)" stroke="none" fill="#FBD984"/>

<path d="M96 690 c4 -36 7 -89 5 -118 -2 -47 -10 -83 -53 -236 -15 -54 5 -88 90 -151 71 -53 264 -155 292 -155 10 0 23 -7 30 -15 10 -12 41 -15 159 -15 l146 1 23 48 c27 58 117 159 190 213 49 36 52 41 40 60 -7 11 -31 26 -53 34 -22 7 -45 21 -52 31 -8 10 -28 18 -53 19 -26 1 -50 11 -71 28 -17 14 -39 26 -50 26 -23 0 -81 28 -91 43 -4 6 -22 10 -40 9 -25 -2 -42 6 -72 33 -24 21 -46 33 -56 30 -11 -3 -32 8 -56 30 -30 28 -45 35 -66 31 -19 -4 -33 2 -53 19 -14 14 -28 25 -31 25 -3 0 -37 14 -75 30 -38 17 -74 28 -80 24 -6 -4 -15 0 -21 7 -6 9 -7 -9 -2 -51z" transform="translate(0,134) scale(0.1,-0.1)" stroke="none" fill="#BED3B8"/>

</g>

<g id="1" transform="translate(0,134.0)scale(0.8,0.8)">

<path d="M363 969 c-31 -11 -40 -54 -18 -79 23 -26 57 -25 80 0 36 40 -10 99 -62 79z m65 -41 c4 -20 -24 -48 -49 -48 -11 0 -24 11 -31 26 -11 23 -10 29 11 45 21 17 26 18 45 6 12 -8 22 -21 24 -29z" transform="translate(0,134) scale(0.1,-0.1)" stroke="none" fill="#BED3B8"/>

<path d="M359 951 c-21 -16 -22 -22 -11 -45 13 -30 43 -34 67 -10 20 21 16 43 -11 61 -19 12 -24 11 -45 -6z" transform="translate(0,134) scale(0.1,-0.1)" stroke="none" fill="#936C3F"/>

<path d="M858 839 c-36 -21 -16 -79 27 -79 43 0 59 44 27 73 -21 19 -30 20 -54 6z" transform="translate(0,134) scale(0.1,-0.1)" stroke="none" fill="#BED3B8"/>

<path d="M726 1178 c-24 -34 -21 -118 7 -159 32 -49 105 -83 157 -74 80 14 147 104 130 175 -8 34 -8 34 -9 -14 -2 -121 -120 -187 -224 -127 -58 33 -87 147 -51 199 8 12 13 22 10 22 -3 0 -12 -10 -20 -22z" transform="translate(0,134) scale(0.1,-0.1)" stroke="none" fill="#BED3B8"/>

<path d="M793 1234 c-93 -46 -96 -204 -6 -255 73 -42 154 -25 201 44 29 43 30 117 2 162 -37 60 -128 83 -197 49z m161 -90 c9 -8 16 -22 16 -29 0 -13 -26 -45 -36 -45 -39 0 -59 60 -26 79 23 14 28 14 46 -5z" transform="translate(0,134) scale(0.1,-0.1)" stroke="none" fill="#936C3F"/>

<path d="M122 823 c-11 -16 -22 -37 -25 -48 -8 -24 6 -50 22 -41 6 4 42 -7 80 -24 38 -16 72 -30 75 -30 3 0 17 -11 31 -25 20 -17 34 -23 53 -19 21 4 36 -3 66 -31 24 -22 45 -33 56 -30 10 3 32 -9 56 -30 30 -27 47 -35 72 -33 18 1 36 -3 40 -9 10 -15 68 -43 91 -43 11 0 33 -12 50 -26 20 -17 45 -27 69 -28 24 -1 46 -10 60 -24 13 -13 36 -25 53 -29 17 -3 36 -14 42 -24 7 -11 17 -19 24 -19 15 0 39 36 48 72 7 27 6 28 -39 26 -59 -3 -92 22 -128 93 -52 104 -67 112 -191 104 -71 -5 -100 -3 -127 8 -44 19 -94 71 -114 117 -8 19 -26 46 -41 60 -23 22 -34 25 -83 22 -138 -9 -150 -7 -181 16 -17 12 -32 22 -35 22 -3 0 -13 -12 -24 -27z" transform="translate(0,134) scale(0.1,-0.1)" stroke="none" fill="#936C3F"/>

<path d="M635 1133 c-33 -8 -91 -16 -128 -18 -86 -5 -145 -32 -187 -84 -18 -22 -35 -39 -38 -36 -6 6 -96 -40 -109 -57 -6 -7 -13 -25 -17 -40 -5 -21 0 -31 24 -51 43 -36 65 -41 131 -27 67 14 119 7 143 -19 9 -10 29 -43 44 -72 19 -38 41 -63 76 -87 48 -32 49 -32 161 -30 131 3 142 -2 181 -89 42 -93 92 -120 172 -92 22 8 34 20 43 46 17 53 6 152 -24 209 -18 35 -27 70 -30 119 -4 65 -23 123 -59 180 -7 11 -14 22 -15 24 -1 2 -18 -10 -37 -27 -57 -50 -116 -54 -184 -12 -46 28 -72 76 -72 133 0 26 -3 47 -7 46 -5 -1 -35 -8 -68 -16z m45 -144 c25 -46 -17 -96 -68 -82 -31 8 -46 50 -27 79 21 32 79 34 95 3z m-260 -29 c24 -24 25 -47 3 -72 -31 -34 -93 -13 -93 33 0 23 34 59 55 59 8 0 24 -9 35 -20z m500 -124 c30 -37 -20 -97 -62 -75 -28 15 -32 36 -14 64 18 28 57 33 76 11z m-230 -41 c7 -8 10 -25 6 -40 -5 -20 -13 -25 -36 -25 -23 0 -31 5 -36 25 -7 29 10 55 36 55 10 0 23 -7 30 -15z m334 -178 c22 -16 18 -65 -6 -80 -28 -18 -68 7 -68 42 0 44 39 64 74 38z" transform="translate(0,134) scale(0.1,-0.1)" stroke="none" fill="#FBD984"/>

<path d="M96 690 c4 -36 7 -89 5 -118 -2 -47 -10 -83 -53 -236 -15 -54 5 -88 90 -151 71 -53 264 -155 292 -155 10 0 23 -7 30 -15 10 -12 41 -15 159 -15 l146 1 23 48 c27 58 117 159 190 213 49 36 52 41 40 60 -7 11 -31 26 -53 34 -22 7 -45 21 -52 31 -8 10 -28 18 -53 19 -26 1 -50 11 -71 28 -17 14 -39 26 -50 26 -23 0 -81 28 -91 43 -4 6 -22 10 -40 9 -25 -2 -42 6 -72 33 -24 21 -46 33 -56 30 -11 -3 -32 8 -56 30 -30 28 -45 35 -66 31 -19 -4 -33 2 -53 19 -14 14 -28 25 -31 25 -3 0 -37 14 -75 30 -38 17 -74 28 -80 24 -6 -4 -15 0 -21 7 -6 9 -7 -9 -2 -51z" transform="translate(0,134) scale(0.1,-0.1)" stroke="none" fill="#BED3B8"/>

</g>

<g id="2" transform="translate(0,268.0)scale(0.8,0.8)">

<path d="M363 969 c-31 -11 -40 -54 -18 -79 23 -26 57 -25 80 0 36 40 -10 99 -62 79z m65 -41 c4 -20 -24 -48 -49 -48 -11 0 -24 11 -31 26 -11 23 -10 29 11 45 21 17 26 18 45 6 12 -8 22 -21 24 -29z" transform="translate(0,134) scale(0.1,-0.1)" stroke="none" fill="#BED3B8"/>

<path d="M359 951 c-21 -16 -22 -22 -11 -45 13 -30 43 -34 67 -10 20 21 16 43 -11 61 -19 12 -24 11 -45 -6z" transform="translate(0,134) scale(0.1,-0.1)" stroke="none" fill="#936C3F"/>

<path d="M858 839 c-36 -21 -16 -79 27 -79 43 0 59 44 27 73 -21 19 -30 20 -54 6z" transform="translate(0,134) scale(0.1,-0.1)" stroke="none" fill="#BED3B8"/>

<path d="M726 1178 c-24 -34 -21 -118 7 -159 32 -49 105 -83 157 -74 80 14 147 104 130 175 -8 34 -8 34 -9 -14 -2 -121 -120 -187 -224 -127 -58 33 -87 147 -51 199 8 12 13 22 10 22 -3 0 -12 -10 -20 -22z" transform="translate(0,134) scale(0.1,-0.1)" stroke="none" fill="#BED3B8"/>

<path d="M793 1234 c-93 -46 -96 -204 -6 -255 73 -42 154 -25 201 44 29 43 30 117 2 162 -37 60 -128 83 -197 49z m161 -90 c9 -8 16 -22 16 -29 0 -13 -26 -45 -36 -45 -39 0 -59 60 -26 79 23 14 28 14 46 -5z" transform="translate(0,134) scale(0.1,-0.1)" stroke="none" fill="#936C3F"/>

<path d="M122 823 c-11 -16 -22 -37 -25 -48 -8 -24 6 -50 22 -41 6 4 42 -7 80 -24 38 -16 72 -30 75 -30 3 0 17 -11 31 -25 20 -17 34 -23 53 -19 21 4 36 -3 66 -31 24 -22 45 -33 56 -30 10 3 32 -9 56 -30 30 -27 47 -35 72 -33 18 1 36 -3 40 -9 10 -15 68 -43 91 -43 11 0 33 -12 50 -26 20 -17 45 -27 69 -28 24 -1 46 -10 60 -24 13 -13 36 -25 53 -29 17 -3 36 -14 42 -24 7 -11 17 -19 24 -19 15 0 39 36 48 72 7 27 6 28 -39 26 -59 -3 -92 22 -128 93 -52 104 -67 112 -191 104 -71 -5 -100 -3 -127 8 -44 19 -94 71 -114 117 -8 19 -26 46 -41 60 -23 22 -34 25 -83 22 -138 -9 -150 -7 -181 16 -17 12 -32 22 -35 22 -3 0 -13 -12 -24 -27z" transform="translate(0,134) scale(0.1,-0.1)" stroke="none" fill="#936C3F"/>

<path d="M635 1133 c-33 -8 -91 -16 -128 -18 -86 -5 -145 -32 -187 -84 -18 -22 -35 -39 -38 -36 -6 6 -96 -40 -109 -57 -6 -7 -13 -25 -17 -40 -5 -21 0 -31 24 -51 43 -36 65 -41 131 -27 67 14 119 7 143 -19 9 -10 29 -43 44 -72 19 -38 41 -63 76 -87 48 -32 49 -32 161 -30 131 3 142 -2 181 -89 42 -93 92 -120 172 -92 22 8 34 20 43 46 17 53 6 152 -24 209 -18 35 -27 70 -30 119 -4 65 -23 123 -59 180 -7 11 -14 22 -15 24 -1 2 -18 -10 -37 -27 -57 -50 -116 -54 -184 -12 -46 28 -72 76 -72 133 0 26 -3 47 -7 46 -5 -1 -35 -8 -68 -16z m45 -144 c25 -46 -17 -96 -68 -82 -31 8 -46 50 -27 79 21 32 79 34 95 3z m-260 -29 c24 -24 25 -47 3 -72 -31 -34 -93 -13 -93 33 0 23 34 59 55 59 8 0 24 -9 35 -20z m500 -124 c30 -37 -20 -97 -62 -75 -28 15 -32 36 -14 64 18 28 57 33 76 11z m-230 -41 c7 -8 10 -25 6 -40 -5 -20 -13 -25 -36 -25 -23 0 -31 5 -36 25 -7 29 10 55 36 55 10 0 23 -7 30 -15z m334 -178 c22 -16 18 -65 -6 -80 -28 -18 -68 7 -68 42 0 44 39 64 74 38z" transform="translate(0,134) scale(0.1,-0.1)" stroke="none" fill="#FBD984"/>

<path d="M96 690 c4 -36 7 -89 5 -118 -2 -47 -10 -83 -53 -236 -15 -54 5 -88 90 -151 71 -53 264 -155 292 -155 10 0 23 -7 30 -15 10 -12 41 -15 159 -15 l146 1 23 48 c27 58 117 159 190 213 49 36 52 41 40 60 -7 11 -31 26 -53 34 -22 7 -45 21 -52 31 -8 10 -28 18 -53 19 -26 1 -50 11 -71 28 -17 14 -39 26 -50 26 -23 0 -81 28 -91 43 -4 6 -22 10 -40 9 -25 -2 -42 6 -72 33 -24 21 -46 33 -56 30 -11 -3 -32 8 -56 30 -30 28 -45 35 -66 31 -19 -4 -33 2 -53 19 -14 14 -28 25 -31 25 -3 0 -37 14 -75 30 -38 17 -74 28 -80 24 -6 -4 -15 0 -21 7 -6 9 -7 -9 -2 -51z" transform="translate(0,134) scale(0.1,-0.1)" stroke="none" fill="#BED3B8"/>

</g>

<g id="3" transform="translate(0,402.0)scale(0.8,0.8)">

<path d="M363 969 c-31 -11 -40 -54 -18 -79 23 -26 57 -25 80 0 36 40 -10 99 -62 79z m65 -41 c4 -20 -24 -48 -49 -48 -11 0 -24 11 -31 26 -11 23 -10 29 11 45 21 17 26 18 45 6 12 -8 22 -21 24 -29z" transform="translate(0,134) scale(0.1,-0.1)" stroke="none" fill="#BED3B8"/>

<path d="M359 951 c-21 -16 -22 -22 -11 -45 13 -30 43 -34 67 -10 20 21 16 43 -11 61 -19 12 -24 11 -45 -6z" transform="translate(0,134) scale(0.1,-0.1)" stroke="none" fill="#936C3F"/>

<path d="M858 839 c-36 -21 -16 -79 27 -79 43 0 59 44 27 73 -21 19 -30 20 -54 6z" transform="translate(0,134) scale(0.1,-0.1)" stroke="none" fill="#BED3B8"/>

<path d="M726 1178 c-24 -34 -21 -118 7 -159 32 -49 105 -83 157 -74 80 14 147 104 130 175 -8 34 -8 34 -9 -14 -2 -121 -120 -187 -224 -127 -58 33 -87 147 -51 199 8 12 13 22 10 22 -3 0 -12 -10 -20 -22z" transform="translate(0,134) scale(0.1,-0.1)" stroke="none" fill="#BED3B8"/>

<path d="M793 1234 c-93 -46 -96 -204 -6 -255 73 -42 154 -25 201 44 29 43 30 117 2 162 -37 60 -128 83 -197 49z m161 -90 c9 -8 16 -22 16 -29 0 -13 -26 -45 -36 -45 -39 0 -59 60 -26 79 23 14 28 14 46 -5z" transform="translate(0,134) scale(0.1,-0.1)" stroke="none" fill="#936C3F"/>

<path d="M122 823 c-11 -16 -22 -37 -25 -48 -8 -24 6 -50 22 -41 6 4 42 -7 80 -24 38 -16 72 -30 75 -30 3 0 17 -11 31 -25 20 -17 34 -23 53 -19 21 4 36 -3 66 -31 24 -22 45 -33 56 -30 10 3 32 -9 56 -30 30 -27 47 -35 72 -33 18 1 36 -3 40 -9 10 -15 68 -43 91 -43 11 0 33 -12 50 -26 20 -17 45 -27 69 -28 24 -1 46 -10 60 -24 13 -13 36 -25 53 -29 17 -3 36 -14 42 -24 7 -11 17 -19 24 -19 15 0 39 36 48 72 7 27 6 28 -39 26 -59 -3 -92 22 -128 93 -52 104 -67 112 -191 104 -71 -5 -100 -3 -127 8 -44 19 -94 71 -114 117 -8 19 -26 46 -41 60 -23 22 -34 25 -83 22 -138 -9 -150 -7 -181 16 -17 12 -32 22 -35 22 -3 0 -13 -12 -24 -27z" transform="translate(0,134) scale(0.1,-0.1)" stroke="none" fill="#936C3F"/>

<path d="M635 1133 c-33 -8 -91 -16 -128 -18 -86 -5 -145 -32 -187 -84 -18 -22 -35 -39 -38 -36 -6 6 -96 -40 -109 -57 -6 -7 -13 -25 -17 -40 -5 -21 0 -31 24 -51 43 -36 65 -41 131 -27 67 14 119 7 143 -19 9 -10 29 -43 44 -72 19 -38 41 -63 76 -87 48 -32 49 -32 161 -30 131 3 142 -2 181 -89 42 -93 92 -120 172 -92 22 8 34 20 43 46 17 53 6 152 -24 209 -18 35 -27 70 -30 119 -4 65 -23 123 -59 180 -7 11 -14 22 -15 24 -1 2 -18 -10 -37 -27 -57 -50 -116 -54 -184 -12 -46 28 -72 76 -72 133 0 26 -3 47 -7 46 -5 -1 -35 -8 -68 -16z m45 -144 c25 -46 -17 -96 -68 -82 -31 8 -46 50 -27 79 21 32 79 34 95 3z m-260 -29 c24 -24 25 -47 3 -72 -31 -34 -93 -13 -93 33 0 23 34 59 55 59 8 0 24 -9 35 -20z m500 -124 c30 -37 -20 -97 -62 -75 -28 15 -32 36 -14 64 18 28 57 33 76 11z m-230 -41 c7 -8 10 -25 6 -40 -5 -20 -13 -25 -36 -25 -23 0 -31 5 -36 25 -7 29 10 55 36 55 10 0 23 -7 30 -15z m334 -178 c22 -16 18 -65 -6 -80 -28 -18 -68 7 -68 42 0 44 39 64 74 38z" transform="translate(0,134) scale(0.1,-0.1)" stroke="none" fill="#FBD984"/>

<path d="M96 690 c4 -36 7 -89 5 -118 -2 -47 -10 -83 -53 -236 -15 -54 5 -88 90 -151 71 -53 264 -155 292 -155 10 0 23 -7 30 -15 10 -12 41 -15 159 -15 l146 1 23 48 c27 58 117 159 190 213 49 36 52 41 40 60 -7 11 -31 26 -53 34 -22 7 -45 21 -52 31 -8 10 -28 18 -53 19 -26 1 -50 11 -71 28 -17 14 -39 26 -50 26 -23 0 -81 28 -91 43 -4 6 -22 10 -40 9 -25 -2 -42 6 -72 33 -24 21 -46 33 -56 30 -11 -3 -32 8 -56 30 -30 28 -45 35 -66 31 -19 -4 -33 2 -53 19 -14 14 -28 25 -31 25 -3 0 -37 14 -75 30 -38 17 -74 28 -80 24 -6 -4 -15 0 -21 7 -6 9 -7 -9 -2 -51z" transform="translate(0,134) scale(0.1,-0.1)" stroke="none" fill="#BED3B8"/>

</g>

<g id="4" transform="translate(0,536.0)scale(0.8,0.8)">

<path d="M363 969 c-31 -11 -40 -54 -18 -79 23 -26 57 -25 80 0 36 40 -10 99 -62 79z m65 -41 c4 -20 -24 -48 -49 -48 -11 0 -24 11 -31 26 -11 23 -10 29 11 45 21 17 26 18 45 6 12 -8 22 -21 24 -29z" transform="translate(0,134) scale(0.1,-0.1)" stroke="none" fill="#BED3B8"/>

<path d="M359 951 c-21 -16 -22 -22 -11 -45 13 -30 43 -34 67 -10 20 21 16 43 -11 61 -19 12 -24 11 -45 -6z" transform="translate(0,134) scale(0.1,-0.1)" stroke="none" fill="#936C3F"/>

<path d="M858 839 c-36 -21 -16 -79 27 -79 43 0 59 44 27 73 -21 19 -30 20 -54 6z" transform="translate(0,134) scale(0.1,-0.1)" stroke="none" fill="#BED3B8"/>

<path d="M726 1178 c-24 -34 -21 -118 7 -159 32 -49 105 -83 157 -74 80 14 147 104 130 175 -8 34 -8 34 -9 -14 -2 -121 -120 -187 -224 -127 -58 33 -87 147 -51 199 8 12 13 22 10 22 -3 0 -12 -10 -20 -22z" transform="translate(0,134) scale(0.1,-0.1)" stroke="none" fill="#BED3B8"/>

<path d="M793 1234 c-93 -46 -96 -204 -6 -255 73 -42 154 -25 201 44 29 43 30 117 2 162 -37 60 -128 83 -197 49z m161 -90 c9 -8 16 -22 16 -29 0 -13 -26 -45 -36 -45 -39 0 -59 60 -26 79 23 14 28 14 46 -5z" transform="translate(0,134) scale(0.1,-0.1)" stroke="none" fill="#936C3F"/>

<path d="M122 823 c-11 -16 -22 -37 -25 -48 -8 -24 6 -50 22 -41 6 4 42 -7 80 -24 38 -16 72 -30 75 -30 3 0 17 -11 31 -25 20 -17 34 -23 53 -19 21 4 36 -3 66 -31 24 -22 45 -33 56 -30 10 3 32 -9 56 -30 30 -27 47 -35 72 -33 18 1 36 -3 40 -9 10 -15 68 -43 91 -43 11 0 33 -12 50 -26 20 -17 45 -27 69 -28 24 -1 46 -10 60 -24 13 -13 36 -25 53 -29 17 -3 36 -14 42 -24 7 -11 17 -19 24 -19 15 0 39 36 48 72 7 27 6 28 -39 26 -59 -3 -92 22 -128 93 -52 104 -67 112 -191 104 -71 -5 -100 -3 -127 8 -44 19 -94 71 -114 117 -8 19 -26 46 -41 60 -23 22 -34 25 -83 22 -138 -9 -150 -7 -181 16 -17 12 -32 22 -35 22 -3 0 -13 -12 -24 -27z" transform="translate(0,134) scale(0.1,-0.1)" stroke="none" fill="#936C3F"/>

<path d="M635 1133 c-33 -8 -91 -16 -128 -18 -86 -5 -145 -32 -187 -84 -18 -22 -35 -39 -38 -36 -6 6 -96 -40 -109 -57 -6 -7 -13 -25 -17 -40 -5 -21 0 -31 24 -51 43 -36 65 -41 131 -27 67 14 119 7 143 -19 9 -10 29 -43 44 -72 19 -38 41 -63 76 -87 48 -32 49 -32 161 -30 131 3 142 -2 181 -89 42 -93 92 -120 172 -92 22 8 34 20 43 46 17 53 6 152 -24 209 -18 35 -27 70 -30 119 -4 65 -23 123 -59 180 -7 11 -14 22 -15 24 -1 2 -18 -10 -37 -27 -57 -50 -116 -54 -184 -12 -46 28 -72 76 -72 133 0 26 -3 47 -7 46 -5 -1 -35 -8 -68 -16z m45 -144 c25 -46 -17 -96 -68 -82 -31 8 -46 50 -27 79 21 32 79 34 95 3z m-260 -29 c24 -24 25 -47 3 -72 -31 -34 -93 -13 -93 33 0 23 34 59 55 59 8 0 24 -9 35 -20z m500 -124 c30 -37 -20 -97 -62 -75 -28 15 -32 36 -14 64 18 28 57 33 76 11z m-230 -41 c7 -8 10 -25 6 -40 -5 -20 -13 -25 -36 -25 -23 0 -31 5 -36 25 -7 29 10 55 36 55 10 0 23 -7 30 -15z m334 -178 c22 -16 18 -65 -6 -80 -28 -18 -68 7 -68 42 0 44 39 64 74 38z" transform="translate(0,134) scale(0.1,-0.1)" stroke="none" fill="#FBD984"/>

<path d="M96 690 c4 -36 7 -89 5 -118 -2 -47 -10 -83 -53 -236 -15 -54 5 -88 90 -151 71 -53 264 -155 292 -155 10 0 23 -7 30 -15 10 -12 41 -15 159 -15 l146 1 23 48 c27 58 117 159 190 213 49 36 52 41 40 60 -7 11 -31 26 -53 34 -22 7 -45 21 -52 31 -8 10 -28 18 -53 19 -26 1 -50 11 -71 28 -17 14 -39 26 -50 26 -23 0 -81 28 -91 43 -4 6 -22 10 -40 9 -25 -2 -42 6 -72 33 -24 21 -46 33 -56 30 -11 -3 -32 8 -56 30 -30 28 -45 35 -66 31 -19 -4 -33 2 -53 19 -14 14 -28 25 -31 25 -3 0 -37 14 -75 30 -38 17 -74 28 -80 24 -6 -4 -15 0 -21 7 -6 9 -7 -9 -2 -51z" transform="translate(0,134) scale(0.1,-0.1)" stroke="none" fill="#BED3B8"/>

</g>

</g>
<g id="col1" transform="translate(120, -50.0)">
<g id="0" transform="translate(0,0.0)scale(0.8,0.8)">

<path d="M363 969 c-31 -11 -40 -54 -18 -79 23 -26 57 -25 80 0 36 40 -10 99 -62 79z m65 -41 c4 -20 -24 -48 -49 -48 -11 0 -24 11 -31 26 -11 23 -10 29 11 45 21 17 26 18 45 6 12 -8 22 -21 24 -29z" transform="translate(0,134) scale(0.1,-0.1)" stroke="none" fill="#BED3B8"/>

<path d="M359 951 c-21 -16 -22 -22 -11 -45 13 -30 43 -34 67 -10 20 21 16 43 -11 61 -19 12 -24 11 -45 -6z" transform="translate(0,134) scale(0.1,-0.1)" stroke="none" fill="#936C3F"/>

<path d="M858 839 c-36 -21 -16 -79 27 -79 43 0 59 44 27 73 -21 19 -30 20 -54 6z" transform="translate(0,134) scale(0.1,-0.1)" stroke="none" fill="#BED3B8"/>

<path d="M726 1178 c-24 -34 -21 -118 7 -159 32 -49 105 -83 157 -74 80 14 147 104 130 175 -8 34 -8 34 -9 -14 -2 -121 -120 -187 -224 -127 -58 33 -87 147 -51 199 8 12 13 22 10 22 -3 0 -12 -10 -20 -22z" transform="translate(0,134) scale(0.1,-0.1)" stroke="none" fill="#BED3B8"/>

<path d="M793 1234 c-93 -46 -96 -204 -6 -255 73 -42 154 -25 201 44 29 43 30 117 2 162 -37 60 -128 83 -197 49z m161 -90 c9 -8 16 -22 16 -29 0 -13 -26 -45 -36 -45 -39 0 -59 60 -26 79 23 14 28 14 46 -5z" transform="translate(0,134) scale(0.1,-0.1)" stroke="none" fill="#936C3F"/>

<path d="M122 823 c-11 -16 -22 -37 -25 -48 -8 -24 6 -50 22 -41 6 4 42 -7 80 -24 38 -16 72 -30 75 -30 3 0 17 -11 31 -25 20 -17 34 -23 53 -19 21 4 36 -3 66 -31 24 -22 45 -33 56 -30 10 3 32 -9 56 -30 30 -27 47 -35 72 -33 18 1 36 -3 40 -9 10 -15 68 -43 91 -43 11 0 33 -12 50 -26 20 -17 45 -27 69 -28 24 -1 46 -10 60 -24 13 -13 36 -25 53 -29 17 -3 36 -14 42 -24 7 -11 17 -19 24 -19 15 0 39 36 48 72 7 27 6 28 -39 26 -59 -3 -92 22 -128 93 -52 104 -67 112 -191 104 -71 -5 -100 -3 -127 8 -44 19 -94 71 -114 117 -8 19 -26 46 -41 60 -23 22 -34 25 -83 22 -138 -9 -150 -7 -181 16 -17 12 -32 22 -35 22 -3 0 -13 -12 -24 -27z" transform="translate(0,134) scale(0.1,-0.1)" stroke="none" fill="#936C3F"/>

<path d="M635 1133 c-33 -8 -91 -16 -128 -18 -86 -5 -145 -32 -187 -84 -18 -22 -35 -39 -38 -36 -6 6 -96 -40 -109 -57 -6 -7 -13 -25 -17 -40 -5 -21 0 -31 24 -51 43 -36 65 -41 131 -27 67 14 119 7 143 -19 9 -10 29 -43 44 -72 19 -38 41 -63 76 -87 48 -32 49 -32 161 -30 131 3 142 -2 181 -89 42 -93 92 -120 172 -92 22 8 34 20 43 46 17 53 6 152 -24 209 -18 35 -27 70 -30 119 -4 65 -23 123 -59 180 -7 11 -14 22 -15 24 -1 2 -18 -10 -37 -27 -57 -50 -116 -54 -184 -12 -46 28 -72 76 -72 133 0 26 -3 47 -7 46 -5 -1 -35 -8 -68 -16z m45 -144 c25 -46 -17 -96 -68 -82 -31 8 -46 50 -27 79 21 32 79 34 95 3z m-260 -29 c24 -24 25 -47 3 -72 -31 -34 -93 -13 -93 33 0 23 34 59 55 59 8 0 24 -9 35 -20z m500 -124 c30 -37 -20 -97 -62 -75 -28 15 -32 36 -14 64 18 28 57 33 76 11z m-230 -41 c7 -8 10 -25 6 -40 -5 -20 -13 -25 -36 -25 -23 0 -31 5 -36 25 -7 29 10 55 36 55 10 0 23 -7 30 -15z m334 -178 c22 -16 18 -65 -6 -80 -28 -18 -68 7 -68 42 0 44 39 64 74 38z" transform="translate(0,134) scale(0.1,-0.1)" stroke="none" fill="#FBD984"/>

<path d="M96 690 c4 -36 7 -89 5 -118 -2 -47 -10 -83 -53 -236 -15 -54 5 -88 90 -151 71 -53 264 -155 292 -155 10 0 23 -7 30 -15 10 -12 41 -15 159 -15 l146 1 23 48 c27 58 117 159 190 213 49 36 52 41 40 60 -7 11 -31 26 -53 34 -22 7 -45 21 -52 31 -8 10 -28 18 -53 19 -26 1 -50 11 -71 28 -17 14 -39 26 -50 26 -23 0 -81 28 -91 43 -4 6 -22 10 -40 9 -25 -2 -42 6 -72 33 -24 21 -46 33 -56 30 -11 -3 -32 8 -56 30 -30 28 -45 35 -66 31 -19 -4 -33 2 -53 19 -14 14 -28 25 -31 25 -3 0 -37 14 -75 30 -38 17 -74 28 -80 24 -6 -4 -15 0 -21 7 -6 9 -7 -9 -2 -51z" transform="translate(0,134) scale(0.1,-0.1)" stroke="none" fill="#BED3B8"/>

</g>

<g id="1" transform="translate(0,134.0)scale(0.8,0.8)">

<path d="M363 969 c-31 -11 -40 -54 -18 -79 23 -26 57 -25 80 0 36 40 -10 99 -62 79z m65 -41 c4 -20 -24 -48 -49 -48 -11 0 -24 11 -31 26 -11 23 -10 29 11 45 21 17 26 18 45 6 12 -8 22 -21 24 -29z" transform="translate(0,134) scale(0.1,-0.1)" stroke="none" fill="#BED3B8"/>

<path d="M359 951 c-21 -16 -22 -22 -11 -45 13 -30 43 -34 67 -10 20 21 16 43 -11 61 -19 12 -24 11 -45 -6z" transform="translate(0,134) scale(0.1,-0.1)" stroke="none" fill="#936C3F"/>

<path d="M858 839 c-36 -21 -16 -79 27 -79 43 0 59 44 27 73 -21 19 -30 20 -54 6z" transform="translate(0,134) scale(0.1,-0.1)" stroke="none" fill="#BED3B8"/>

<path d="M726 1178 c-24 -34 -21 -118 7 -159 32 -49 105 -83 157 -74 80 14 147 104 130 175 -8 34 -8 34 -9 -14 -2 -121 -120 -187 -224 -127 -58 33 -87 147 -51 199 8 12 13 22 10 22 -3 0 -12 -10 -20 -22z" transform="translate(0,134) scale(0.1,-0.1)" stroke="none" fill="#BED3B8"/>

<path d="M793 1234 c-93 -46 -96 -204 -6 -255 73 -42 154 -25 201 44 29 43 30 117 2 162 -37 60 -128 83 -197 49z m161 -90 c9 -8 16 -22 16 -29 0 -13 -26 -45 -36 -45 -39 0 -59 60 -26 79 23 14 28 14 46 -5z" transform="translate(0,134) scale(0.1,-0.1)" stroke="none" fill="#936C3F"/>

<path d="M122 823 c-11 -16 -22 -37 -25 -48 -8 -24 6 -50 22 -41 6 4 42 -7 80 -24 38 -16 72 -30 75 -30 3 0 17 -11 31 -25 20 -17 34 -23 53 -19 21 4 36 -3 66 -31 24 -22 45 -33 56 -30 10 3 32 -9 56 -30 30 -27 47 -35 72 -33 18 1 36 -3 40 -9 10 -15 68 -43 91 -43 11 0 33 -12 50 -26 20 -17 45 -27 69 -28 24 -1 46 -10 60 -24 13 -13 36 -25 53 -29 17 -3 36 -14 42 -24 7 -11 17 -19 24 -19 15 0 39 36 48 72 7 27 6 28 -39 26 -59 -3 -92 22 -128 93 -52 104 -67 112 -191 104 -71 -5 -100 -3 -127 8 -44 19 -94 71 -114 117 -8 19 -26 46 -41 60 -23 22 -34 25 -83 22 -138 -9 -150 -7 -181 16 -17 12 -32 22 -35 22 -3 0 -13 -12 -24 -27z" transform="translate(0,134) scale(0.1,-0.1)" stroke="none" fill="#936C3F"/>

<path d="M635 1133 c-33 -8 -91 -16 -128 -18 -86 -5 -145 -32 -187 -84 -18 -22 -35 -39 -38 -36 -6 6 -96 -40 -109 -57 -6 -7 -13 -25 -17 -40 -5 -21 0 -31 24 -51 43 -36 65 -41 131 -27 67 14 119 7 143 -19 9 -10 29 -43 44 -72 19 -38 41 -63 76 -87 48 -32 49 -32 161 -30 131 3 142 -2 181 -89 42 -93 92 -120 172 -92 22 8 34 20 43 46 17 53 6 152 -24 209 -18 35 -27 70 -30 119 -4 65 -23 123 -59 180 -7 11 -14 22 -15 24 -1 2 -18 -10 -37 -27 -57 -50 -116 -54 -184 -12 -46 28 -72 76 -72 133 0 26 -3 47 -7 46 -5 -1 -35 -8 -68 -16z m45 -144 c25 -46 -17 -96 -68 -82 -31 8 -46 50 -27 79 21 32 79 34 95 3z m-260 -29 c24 -24 25 -47 3 -72 -31 -34 -93 -13 -93 33 0 23 34 59 55 59 8 0 24 -9 35 -20z m500 -124 c30 -37 -20 -97 -62 -75 -28 15 -32 36 -14 64 18 28 57 33 76 11z m-230 -41 c7 -8 10 -25 6 -40 -5 -20 -13 -25 -36 -25 -23 0 -31 5 -36 25 -7 29 10 55 36 55 10 0 23 -7 30 -15z m334 -178 c22 -16 18 -65 -6 -80 -28 -18 -68 7 -68 42 0 44 39 64 74 38z" transform="translate(0,134) scale(0.1,-0.1)" stroke="none" fill="#FBD984"/>

<path d="M96 690 c4 -36 7 -89 5 -118 -2 -47 -10 -83 -53 -236 -15 -54 5 -88 90 -151 71 -53 264 -155 292 -155 10 0 23 -7 30 -15 10 -12 41 -15 159 -15 l146 1 23 48 c27 58 117 159 190 213 49 36 52 41 40 60 -7 11 -31 26 -53 34 -22 7 -45 21 -52 31 -8 10 -28 18 -53 19 -26 1 -50 11 -71 28 -17 14 -39 26 -50 26 -23 0 -81 28 -91 43 -4 6 -22 10 -40 9 -25 -2 -42 6 -72 33 -24 21 -46 33 -56 30 -11 -3 -32 8 -56 30 -30 28 -45 35 -66 31 -19 -4 -33 2 -53 19 -14 14 -28 25 -31 25 -3 0 -37 14 -75 30 -38 17 -74 28 -80 24 -6 -4 -15 0 -21 7 -6 9 -7 -9 -2 -51z" transform="translate(0,134) scale(0.1,-0.1)" stroke="none" fill="#BED3B8"/>

</g>

<g id="2" transform="translate(0,268.0)scale(0.8,0.8)">

<path d="M363 969 c-31 -11 -40 -54 -18 -79 23 -26 57 -25 80 0 36 40 -10 99 -62 79z m65 -41 c4 -20 -24 -48 -49 -48 -11 0 -24 11 -31 26 -11 23 -10 29 11 45 21 17 26 18 45 6 12 -8 22 -21 24 -29z" transform="translate(0,134) scale(0.1,-0.1)" stroke="none" fill="#BED3B8"/>

<path d="M359 951 c-21 -16 -22 -22 -11 -45 13 -30 43 -34 67 -10 20 21 16 43 -11 61 -19 12 -24 11 -45 -6z" transform="translate(0,134) scale(0.1,-0.1)" stroke="none" fill="#936C3F"/>

<path d="M858 839 c-36 -21 -16 -79 27 -79 43 0 59 44 27 73 -21 19 -30 20 -54 6z" transform="translate(0,134) scale(0.1,-0.1)" stroke="none" fill="#BED3B8"/>

<path d="M726 1178 c-24 -34 -21 -118 7 -159 32 -49 105 -83 157 -74 80 14 147 104 130 175 -8 34 -8 34 -9 -14 -2 -121 -120 -187 -224 -127 -58 33 -87 147 -51 199 8 12 13 22 10 22 -3 0 -12 -10 -20 -22z" transform="translate(0,134) scale(0.1,-0.1)" stroke="none" fill="#BED3B8"/>

<path d="M793 1234 c-93 -46 -96 -204 -6 -255 73 -42 154 -25 201 44 29 43 30 117 2 162 -37 60 -128 83 -197 49z m161 -90 c9 -8 16 -22 16 -29 0 -13 -26 -45 -36 -45 -39 0 -59 60 -26 79 23 14 28 14 46 -5z" transform="translate(0,134) scale(0.1,-0.1)" stroke="none" fill="#936C3F"/>

<path d="M122 823 c-11 -16 -22 -37 -25 -48 -8 -24 6 -50 22 -41 6 4 42 -7 80 -24 38 -16 72 -30 75 -30 3 0 17 -11 31 -25 20 -17 34 -23 53 -19 21 4 36 -3 66 -31 24 -22 45 -33 56 -30 10 3 32 -9 56 -30 30 -27 47 -35 72 -33 18 1 36 -3 40 -9 10 -15 68 -43 91 -43 11 0 33 -12 50 -26 20 -17 45 -27 69 -28 24 -1 46 -10 60 -24 13 -13 36 -25 53 -29 17 -3 36 -14 42 -24 7 -11 17 -19 24 -19 15 0 39 36 48 72 7 27 6 28 -39 26 -59 -3 -92 22 -128 93 -52 104 -67 112 -191 104 -71 -5 -100 -3 -127 8 -44 19 -94 71 -114 117 -8 19 -26 46 -41 60 -23 22 -34 25 -83 22 -138 -9 -150 -7 -181 16 -17 12 -32 22 -35 22 -3 0 -13 -12 -24 -27z" transform="translate(0,134) scale(0.1,-0.1)" stroke="none" fill="#936C3F"/>

<path d="M635 1133 c-33 -8 -91 -16 -128 -18 -86 -5 -145 -32 -187 -84 -18 -22 -35 -39 -38 -36 -6 6 -96 -40 -109 -57 -6 -7 -13 -25 -17 -40 -5 -21 0 -31 24 -51 43 -36 65 -41 131 -27 67 14 119 7 143 -19 9 -10 29 -43 44 -72 19 -38 41 -63 76 -87 48 -32 49 -32 161 -30 131 3 142 -2 181 -89 42 -93 92 -120 172 -92 22 8 34 20 43 46 17 53 6 152 -24 209 -18 35 -27 70 -30 119 -4 65 -23 123 -59 180 -7 11 -14 22 -15 24 -1 2 -18 -10 -37 -27 -57 -50 -116 -54 -184 -12 -46 28 -72 76 -72 133 0 26 -3 47 -7 46 -5 -1 -35 -8 -68 -16z m45 -144 c25 -46 -17 -96 -68 -82 -31 8 -46 50 -27 79 21 32 79 34 95 3z m-260 -29 c24 -24 25 -47 3 -72 -31 -34 -93 -13 -93 33 0 23 34 59 55 59 8 0 24 -9 35 -20z m500 -124 c30 -37 -20 -97 -62 -75 -28 15 -32 36 -14 64 18 28 57 33 76 11z m-230 -41 c7 -8 10 -25 6 -40 -5 -20 -13 -25 -36 -25 -23 0 -31 5 -36 25 -7 29 10 55 36 55 10 0 23 -7 30 -15z m334 -178 c22 -16 18 -65 -6 -80 -28 -18 -68 7 -68 42 0 44 39 64 74 38z" transform="translate(0,134) scale(0.1,-0.1)" stroke="none" fill="#FBD984"/>

<path d="M96 690 c4 -36 7 -89 5 -118 -2 -47 -10 -83 -53 -236 -15 -54 5 -88 90 -151 71 -53 264 -155 292 -155 10 0 23 -7 30 -15 10 -12 41 -15 159 -15 l146 1 23 48 c27 58 117 159 190 213 49 36 52 41 40 60 -7 11 -31 26 -53 34 -22 7 -45 21 -52 31 -8 10 -28 18 -53 19 -26 1 -50 11 -71 28 -17 14 -39 26 -50 26 -23 0 -81 28 -91 43 -4 6 -22 10 -40 9 -25 -2 -42 6 -72 33 -24 21 -46 33 -56 30 -11 -3 -32 8 -56 30 -30 28 -45 35 -66 31 -19 -4 -33 2 -53 19 -14 14 -28 25 -31 25 -3 0 -37 14 -75 30 -38 17 -74 28 -80 24 -6 -4 -15 0 -21 7 -6 9 -7 -9 -2 -51z" transform="translate(0,134) scale(0.1,-0.1)" stroke="none" fill="#BED3B8"/>

</g>

<g id="3" transform="translate(0,402.0)scale(0.8,0.8)">

<path d="M363 969 c-31 -11 -40 -54 -18 -79 23 -26 57 -25 80 0 36 40 -10 99 -62 79z m65 -41 c4 -20 -24 -48 -49 -48 -11 0 -24 11 -31 26 -11 23 -10 29 11 45 21 17 26 18 45 6 12 -8 22 -21 24 -29z" transform="translate(0,134) scale(0.1,-0.1)" stroke="none" fill="#BED3B8"/>

<path d="M359 951 c-21 -16 -22 -22 -11 -45 13 -30 43 -34 67 -10 20 21 16 43 -11 61 -19 12 -24 11 -45 -6z" transform="translate(0,134) scale(0.1,-0.1)" stroke="none" fill="#936C3F"/>

<path d="M858 839 c-36 -21 -16 -79 27 -79 43 0 59 44 27 73 -21 19 -30 20 -54 6z" transform="translate(0,134) scale(0.1,-0.1)" stroke="none" fill="#BED3B8"/>

<path d="M726 1178 c-24 -34 -21 -118 7 -159 32 -49 105 -83 157 -74 80 14 147 104 130 175 -8 34 -8 34 -9 -14 -2 -121 -120 -187 -224 -127 -58 33 -87 147 -51 199 8 12 13 22 10 22 -3 0 -12 -10 -20 -22z" transform="translate(0,134) scale(0.1,-0.1)" stroke="none" fill="#BED3B8"/>

<path d="M793 1234 c-93 -46 -96 -204 -6 -255 73 -42 154 -25 201 44 29 43 30 117 2 162 -37 60 -128 83 -197 49z m161 -90 c9 -8 16 -22 16 -29 0 -13 -26 -45 -36 -45 -39 0 -59 60 -26 79 23 14 28 14 46 -5z" transform="translate(0,134) scale(0.1,-0.1)" stroke="none" fill="#936C3F"/>

<path d="M122 823 c-11 -16 -22 -37 -25 -48 -8 -24 6 -50 22 -41 6 4 42 -7 80 -24 38 -16 72 -30 75 -30 3 0 17 -11 31 -25 20 -17 34 -23 53 -19 21 4 36 -3 66 -31 24 -22 45 -33 56 -30 10 3 32 -9 56 -30 30 -27 47 -35 72 -33 18 1 36 -3 40 -9 10 -15 68 -43 91 -43 11 0 33 -12 50 -26 20 -17 45 -27 69 -28 24 -1 46 -10 60 -24 13 -13 36 -25 53 -29 17 -3 36 -14 42 -24 7 -11 17 -19 24 -19 15 0 39 36 48 72 7 27 6 28 -39 26 -59 -3 -92 22 -128 93 -52 104 -67 112 -191 104 -71 -5 -100 -3 -127 8 -44 19 -94 71 -114 117 -8 19 -26 46 -41 60 -23 22 -34 25 -83 22 -138 -9 -150 -7 -181 16 -17 12 -32 22 -35 22 -3 0 -13 -12 -24 -27z" transform="translate(0,134) scale(0.1,-0.1)" stroke="none" fill="#936C3F"/>

<path d="M635 1133 c-33 -8 -91 -16 -128 -18 -86 -5 -145 -32 -187 -84 -18 -22 -35 -39 -38 -36 -6 6 -96 -40 -109 -57 -6 -7 -13 -25 -17 -40 -5 -21 0 -31 24 -51 43 -36 65 -41 131 -27 67 14 119 7 143 -19 9 -10 29 -43 44 -72 19 -38 41 -63 76 -87 48 -32 49 -32 161 -30 131 3 142 -2 181 -89 42 -93 92 -120 172 -92 22 8 34 20 43 46 17 53 6 152 -24 209 -18 35 -27 70 -30 119 -4 65 -23 123 -59 180 -7 11 -14 22 -15 24 -1 2 -18 -10 -37 -27 -57 -50 -116 -54 -184 -12 -46 28 -72 76 -72 133 0 26 -3 47 -7 46 -5 -1 -35 -8 -68 -16z m45 -144 c25 -46 -17 -96 -68 -82 -31 8 -46 50 -27 79 21 32 79 34 95 3z m-260 -29 c24 -24 25 -47 3 -72 -31 -34 -93 -13 -93 33 0 23 34 59 55 59 8 0 24 -9 35 -20z m500 -124 c30 -37 -20 -97 -62 -75 -28 15 -32 36 -14 64 18 28 57 33 76 11z m-230 -41 c7 -8 10 -25 6 -40 -5 -20 -13 -25 -36 -25 -23 0 -31 5 -36 25 -7 29 10 55 36 55 10 0 23 -7 30 -15z m334 -178 c22 -16 18 -65 -6 -80 -28 -18 -68 7 -68 42 0 44 39 64 74 38z" transform="translate(0,134) scale(0.1,-0.1)" stroke="none" fill="#FBD984"/>

<path d="M96 690 c4 -36 7 -89 5 -118 -2 -47 -10 -83 -53 -236 -15 -54 5 -88 90 -151 71 -53 264 -155 292 -155 10 0 23 -7 30 -15 10 -12 41 -15 159 -15 l146 1 23 48 c27 58 117 159 190 213 49 36 52 41 40 60 -7 11 -31 26 -53 34 -22 7 -45 21 -52 31 -8 10 -28 18 -53 19 -26 1 -50 11 -71 28 -17 14 -39 26 -50 26 -23 0 -81 28 -91 43 -4 6 -22 10 -40 9 -25 -2 -42 6 -72 33 -24 21 -46 33 -56 30 -11 -3 -32 8 -56 30 -30 28 -45 35 -66 31 -19 -4 -33 2 -53 19 -14 14 -28 25 -31 25 -3 0 -37 14 -75 30 -38 17 -74 28 -80 24 -6 -4 -15 0 -21 7 -6 9 -7 -9 -2 -51z" transform="translate(0,134) scale(0.1,-0.1)" stroke="none" fill="#BED3B8"/>

</g>

<g id="4" transform="translate(0,536.0)scale(0.8,0.8)">

<path d="M363 969 c-31 -11 -40 -54 -18 -79 23 -26 57 -25 80 0 36 40 -10 99 -62 79z m65 -41 c4 -20 -24 -48 -49 -48 -11 0 -24 11 -31 26 -11 23 -10 29 11 45 21 17 26 18 45 6 12 -8 22 -21 24 -29z" transform="translate(0,134) scale(0.1,-0.1)" stroke="none" fill="#BED3B8"/>

<path d="M359 951 c-21 -16 -22 -22 -11 -45 13 -30 43 -34 67 -10 20 21 16 43 -11 61 -19 12 -24 11 -45 -6z" transform="translate(0,134) scale(0.1,-0.1)" stroke="none" fill="#936C3F"/>

<path d="M858 839 c-36 -21 -16 -79 27 -79 43 0 59 44 27 73 -21 19 -30 20 -54 6z" transform="translate(0,134) scale(0.1,-0.1)" stroke="none" fill="#BED3B8"/>

<path d="M726 1178 c-24 -34 -21 -118 7 -159 32 -49 105 -83 157 -74 80 14 147 104 130 175 -8 34 -8 34 -9 -14 -2 -121 -120 -187 -224 -127 -58 33 -87 147 -51 199 8 12 13 22 10 22 -3 0 -12 -10 -20 -22z" transform="translate(0,134) scale(0.1,-0.1)" stroke="none" fill="#BED3B8"/>

<path d="M793 1234 c-93 -46 -96 -204 -6 -255 73 -42 154 -25 201 44 29 43 30 117 2 162 -37 60 -128 83 -197 49z m161 -90 c9 -8 16 -22 16 -29 0 -13 -26 -45 -36 -45 -39 0 -59 60 -26 79 23 14 28 14 46 -5z" transform="translate(0,134) scale(0.1,-0.1)" stroke="none" fill="#936C3F"/>

<path d="M122 823 c-11 -16 -22 -37 -25 -48 -8 -24 6 -50 22 -41 6 4 42 -7 80 -24 38 -16 72 -30 75 -30 3 0 17 -11 31 -25 20 -17 34 -23 53 -19 21 4 36 -3 66 -31 24 -22 45 -33 56 -30 10 3 32 -9 56 -30 30 -27 47 -35 72 -33 18 1 36 -3 40 -9 10 -15 68 -43 91 -43 11 0 33 -12 50 -26 20 -17 45 -27 69 -28 24 -1 46 -10 60 -24 13 -13 36 -25 53 -29 17 -3 36 -14 42 -24 7 -11 17 -19 24 -19 15 0 39 36 48 72 7 27 6 28 -39 26 -59 -3 -92 22 -128 93 -52 104 -67 112 -191 104 -71 -5 -100 -3 -127 8 -44 19 -94 71 -114 117 -8 19 -26 46 -41 60 -23 22 -34 25 -83 22 -138 -9 -150 -7 -181 16 -17 12 -32 22 -35 22 -3 0 -13 -12 -24 -27z" transform="translate(0,134) scale(0.1,-0.1)" stroke="none" fill="#936C3F"/>

<path d="M635 1133 c-33 -8 -91 -16 -128 -18 -86 -5 -145 -32 -187 -84 -18 -22 -35 -39 -38 -36 -6 6 -96 -40 -109 -57 -6 -7 -13 -25 -17 -40 -5 -21 0 -31 24 -51 43 -36 65 -41 131 -27 67 14 119 7 143 -19 9 -10 29 -43 44 -72 19 -38 41 -63 76 -87 48 -32 49 -32 161 -30 131 3 142 -2 181 -89 42 -93 92 -120 172 -92 22 8 34 20 43 46 17 53 6 152 -24 209 -18 35 -27 70 -30 119 -4 65 -23 123 -59 180 -7 11 -14 22 -15 24 -1 2 -18 -10 -37 -27 -57 -50 -116 -54 -184 -12 -46 28 -72 76 -72 133 0 26 -3 47 -7 46 -5 -1 -35 -8 -68 -16z m45 -144 c25 -46 -17 -96 -68 -82 -31 8 -46 50 -27 79 21 32 79 34 95 3z m-260 -29 c24 -24 25 -47 3 -72 -31 -34 -93 -13 -93 33 0 23 34 59 55 59 8 0 24 -9 35 -20z m500 -124 c30 -37 -20 -97 -62 -75 -28 15 -32 36 -14 64 18 28 57 33 76 11z m-230 -41 c7 -8 10 -25 6 -40 -5 -20 -13 -25 -36 -25 -23 0 -31 5 -36 25 -7 29 10 55 36 55 10 0 23 -7 30 -15z m334 -178 c22 -16 18 -65 -6 -80 -28 -18 -68 7 -68 42 0 44 39 64 74 38z" transform="translate(0,134) scale(0.1,-0.1)" stroke="none" fill="#FBD984"/>

<path d="M96 690 c4 -36 7 -89 5 -118 -2 -47 -10 -83 -53 -236 -15 -54 5 -88 90 -151 71 -53 264 -155 292 -155 10 0 23 -7 30 -15 10 -12 41 -15 159 -15 l146 1 23 48 c27 58 117 159 190 213 49 36 52 41 40 60 -7 11 -31 26 -53 34 -22 7 -45 21 -52 31 -8 10 -28 18 -53 19 -26 1 -50 11 -71 28 -17 14 -39 26 -50 26 -23 0 -81 28 -91 43 -4 6 -22 10 -40 9 -25 -2 -42 6 -72 33 -24 21 -46 33 -56 30 -11 -3 -32 8 -56 30 -30 28 -45 35 -66 31 -19 -4 -33 2 -53 19 -14 14 -28 25 -31 25 -3 0 -37 14 -75 30 -38 17 -74 28 -80 24 -6 -4 -15 0 -21 7 -6 9 -7 -9 -2 -51z" transform="translate(0,134) scale(0.1,-0.1)" stroke="none" fill="#BED3B8"/>

</g>

</g>
<g id="col2" transform="translate(240, 17)">
<g id="0" transform="translate(0,0.0)scale(0.8,0.8)">

<path d="M363 969 c-31 -11 -40 -54 -18 -79 23 -26 57 -25 80 0 36 40 -10 99 -62 79z m65 -41 c4 -20 -24 -48 -49 -48 -11 0 -24 11 -31 26 -11 23 -10 29 11 45 21 17 26 18 45 6 12 -8 22 -21 24 -29z" transform="translate(0,134) scale(0.1,-0.1)" stroke="none" fill="#BED3B8"/>

<path d="M359 951 c-21 -16 -22 -22 -11 -45 13 -30 43 -34 67 -10 20 21 16 43 -11 61 -19 12 -24 11 -45 -6z" transform="translate(0,134) scale(0.1,-0.1)" stroke="none" fill="#936C3F"/>

<path d="M858 839 c-36 -21 -16 -79 27 -79 43 0 59 44 27 73 -21 19 -30 20 -54 6z" transform="translate(0,134) scale(0.1,-0.1)" stroke="none" fill="#BED3B8"/>

<path d="M726 1178 c-24 -34 -21 -118 7 -159 32 -49 105 -83 157 -74 80 14 147 104 130 175 -8 34 -8 34 -9 -14 -2 -121 -120 -187 -224 -127 -58 33 -87 147 -51 199 8 12 13 22 10 22 -3 0 -12 -10 -20 -22z" transform="translate(0,134) scale(0.1,-0.1)" stroke="none" fill="#BED3B8"/>

<path d="M793 1234 c-93 -46 -96 -204 -6 -255 73 -42 154 -25 201 44 29 43 30 117 2 162 -37 60 -128 83 -197 49z m161 -90 c9 -8 16 -22 16 -29 0 -13 -26 -45 -36 -45 -39 0 -59 60 -26 79 23 14 28 14 46 -5z" transform="translate(0,134) scale(0.1,-0.1)" stroke="none" fill="#936C3F"/>

<path d="M122 823 c-11 -16 -22 -37 -25 -48 -8 -24 6 -50 22 -41 6 4 42 -7 80 -24 38 -16 72 -30 75 -30 3 0 17 -11 31 -25 20 -17 34 -23 53 -19 21 4 36 -3 66 -31 24 -22 45 -33 56 -30 10 3 32 -9 56 -30 30 -27 47 -35 72 -33 18 1 36 -3 40 -9 10 -15 68 -43 91 -43 11 0 33 -12 50 -26 20 -17 45 -27 69 -28 24 -1 46 -10 60 -24 13 -13 36 -25 53 -29 17 -3 36 -14 42 -24 7 -11 17 -19 24 -19 15 0 39 36 48 72 7 27 6 28 -39 26 -59 -3 -92 22 -128 93 -52 104 -67 112 -191 104 -71 -5 -100 -3 -127 8 -44 19 -94 71 -114 117 -8 19 -26 46 -41 60 -23 22 -34 25 -83 22 -138 -9 -150 -7 -181 16 -17 12 -32 22 -35 22 -3 0 -13 -12 -24 -27z" transform="translate(0,134) scale(0.1,-0.1)" stroke="none" fill="#936C3F"/>

<path d="M635 1133 c-33 -8 -91 -16 -128 -18 -86 -5 -145 -32 -187 -84 -18 -22 -35 -39 -38 -36 -6 6 -96 -40 -109 -57 -6 -7 -13 -25 -17 -40 -5 -21 0 -31 24 -51 43 -36 65 -41 131 -27 67 14 119 7 143 -19 9 -10 29 -43 44 -72 19 -38 41 -63 76 -87 48 -32 49 -32 161 -30 131 3 142 -2 181 -89 42 -93 92 -120 172 -92 22 8 34 20 43 46 17 53 6 152 -24 209 -18 35 -27 70 -30 119 -4 65 -23 123 -59 180 -7 11 -14 22 -15 24 -1 2 -18 -10 -37 -27 -57 -50 -116 -54 -184 -12 -46 28 -72 76 -72 133 0 26 -3 47 -7 46 -5 -1 -35 -8 -68 -16z m45 -144 c25 -46 -17 -96 -68 -82 -31 8 -46 50 -27 79 21 32 79 34 95 3z m-260 -29 c24 -24 25 -47 3 -72 -31 -34 -93 -13 -93 33 0 23 34 59 55 59 8 0 24 -9 35 -20z m500 -124 c30 -37 -20 -97 -62 -75 -28 15 -32 36 -14 64 18 28 57 33 76 11z m-230 -41 c7 -8 10 -25 6 -40 -5 -20 -13 -25 -36 -25 -23 0 -31 5 -36 25 -7 29 10 55 36 55 10 0 23 -7 30 -15z m334 -178 c22 -16 18 -65 -6 -80 -28 -18 -68 7 -68 42 0 44 39 64 74 38z" transform="translate(0,134) scale(0.1,-0.1)" stroke="none" fill="#FBD984"/>

<path d="M96 690 c4 -36 7 -89 5 -118 -2 -47 -10 -83 -53 -236 -15 -54 5 -88 90 -151 71 -53 264 -155 292 -155 10 0 23 -7 30 -15 10 -12 41 -15 159 -15 l146 1 23 48 c27 58 117 159 190 213 49 36 52 41 40 60 -7 11 -31 26 -53 34 -22 7 -45 21 -52 31 -8 10 -28 18 -53 19 -26 1 -50 11 -71 28 -17 14 -39 26 -50 26 -23 0 -81 28 -91 43 -4 6 -22 10 -40 9 -25 -2 -42 6 -72 33 -24 21 -46 33 -56 30 -11 -3 -32 8 -56 30 -30 28 -45 35 -66 31 -19 -4 -33 2 -53 19 -14 14 -28 25 -31 25 -3 0 -37 14 -75 30 -38 17 -74 28 -80 24 -6 -4 -15 0 -21 7 -6 9 -7 -9 -2 -51z" transform="translate(0,134) scale(0.1,-0.1)" stroke="none" fill="#BED3B8"/>

</g>

<g id="1" transform="translate(0,134.0)scale(0.8,0.8)">

<path d="M363 969 c-31 -11 -40 -54 -18 -79 23 -26 57 -25 80 0 36 40 -10 99 -62 79z m65 -41 c4 -20 -24 -48 -49 -48 -11 0 -24 11 -31 26 -11 23 -10 29 11 45 21 17 26 18 45 6 12 -8 22 -21 24 -29z" transform="translate(0,134) scale(0.1,-0.1)" stroke="none" fill="#BED3B8"/>

<path d="M359 951 c-21 -16 -22 -22 -11 -45 13 -30 43 -34 67 -10 20 21 16 43 -11 61 -19 12 -24 11 -45 -6z" transform="translate(0,134) scale(0.1,-0.1)" stroke="none" fill="#936C3F"/>

<path d="M858 839 c-36 -21 -16 -79 27 -79 43 0 59 44 27 73 -21 19 -30 20 -54 6z" transform="translate(0,134) scale(0.1,-0.1)" stroke="none" fill="#BED3B8"/>

<path d="M726 1178 c-24 -34 -21 -118 7 -159 32 -49 105 -83 157 -74 80 14 147 104 130 175 -8 34 -8 34 -9 -14 -2 -121 -120 -187 -224 -127 -58 33 -87 147 -51 199 8 12 13 22 10 22 -3 0 -12 -10 -20 -22z" transform="translate(0,134) scale(0.1,-0.1)" stroke="none" fill="#BED3B8"/>

<path d="M793 1234 c-93 -46 -96 -204 -6 -255 73 -42 154 -25 201 44 29 43 30 117 2 162 -37 60 -128 83 -197 49z m161 -90 c9 -8 16 -22 16 -29 0 -13 -26 -45 -36 -45 -39 0 -59 60 -26 79 23 14 28 14 46 -5z" transform="translate(0,134) scale(0.1,-0.1)" stroke="none" fill="#936C3F"/>

<path d="M122 823 c-11 -16 -22 -37 -25 -48 -8 -24 6 -50 22 -41 6 4 42 -7 80 -24 38 -16 72 -30 75 -30 3 0 17 -11 31 -25 20 -17 34 -23 53 -19 21 4 36 -3 66 -31 24 -22 45 -33 56 -30 10 3 32 -9 56 -30 30 -27 47 -35 72 -33 18 1 36 -3 40 -9 10 -15 68 -43 91 -43 11 0 33 -12 50 -26 20 -17 45 -27 69 -28 24 -1 46 -10 60 -24 13 -13 36 -25 53 -29 17 -3 36 -14 42 -24 7 -11 17 -19 24 -19 15 0 39 36 48 72 7 27 6 28 -39 26 -59 -3 -92 22 -128 93 -52 104 -67 112 -191 104 -71 -5 -100 -3 -127 8 -44 19 -94 71 -114 117 -8 19 -26 46 -41 60 -23 22 -34 25 -83 22 -138 -9 -150 -7 -181 16 -17 12 -32 22 -35 22 -3 0 -13 -12 -24 -27z" transform="translate(0,134) scale(0.1,-0.1)" stroke="none" fill="#936C3F"/>

<path d="M635 1133 c-33 -8 -91 -16 -128 -18 -86 -5 -145 -32 -187 -84 -18 -22 -35 -39 -38 -36 -6 6 -96 -40 -109 -57 -6 -7 -13 -25 -17 -40 -5 -21 0 -31 24 -51 43 -36 65 -41 131 -27 67 14 119 7 143 -19 9 -10 29 -43 44 -72 19 -38 41 -63 76 -87 48 -32 49 -32 161 -30 131 3 142 -2 181 -89 42 -93 92 -120 172 -92 22 8 34 20 43 46 17 53 6 152 -24 209 -18 35 -27 70 -30 119 -4 65 -23 123 -59 180 -7 11 -14 22 -15 24 -1 2 -18 -10 -37 -27 -57 -50 -116 -54 -184 -12 -46 28 -72 76 -72 133 0 26 -3 47 -7 46 -5 -1 -35 -8 -68 -16z m45 -144 c25 -46 -17 -96 -68 -82 -31 8 -46 50 -27 79 21 32 79 34 95 3z m-260 -29 c24 -24 25 -47 3 -72 -31 -34 -93 -13 -93 33 0 23 34 59 55 59 8 0 24 -9 35 -20z m500 -124 c30 -37 -20 -97 -62 -75 -28 15 -32 36 -14 64 18 28 57 33 76 11z m-230 -41 c7 -8 10 -25 6 -40 -5 -20 -13 -25 -36 -25 -23 0 -31 5 -36 25 -7 29 10 55 36 55 10 0 23 -7 30 -15z m334 -178 c22 -16 18 -65 -6 -80 -28 -18 -68 7 -68 42 0 44 39 64 74 38z" transform="translate(0,134) scale(0.1,-0.1)" stroke="none" fill="#FBD984"/>

<path d="M96 690 c4 -36 7 -89 5 -118 -2 -47 -10 -83 -53 -236 -15 -54 5 -88 90 -151 71 -53 264 -155 292 -155 10 0 23 -7 30 -15 10 -12 41 -15 159 -15 l146 1 23 48 c27 58 117 159 190 213 49 36 52 41 40 60 -7 11 -31 26 -53 34 -22 7 -45 21 -52 31 -8 10 -28 18 -53 19 -26 1 -50 11 -71 28 -17 14 -39 26 -50 26 -23 0 -81 28 -91 43 -4 6 -22 10 -40 9 -25 -2 -42 6 -72 33 -24 21 -46 33 -56 30 -11 -3 -32 8 -56 30 -30 28 -45 35 -66 31 -19 -4 -33 2 -53 19 -14 14 -28 25 -31 25 -3 0 -37 14 -75 30 -38 17 -74 28 -80 24 -6 -4 -15 0 -21 7 -6 9 -7 -9 -2 -51z" transform="translate(0,134) scale(0.1,-0.1)" stroke="none" fill="#BED3B8"/>

</g>

<g id="2" transform="translate(0,268.0)scale(0.8,0.8)">

<path d="M363 969 c-31 -11 -40 -54 -18 -79 23 -26 57 -25 80 0 36 40 -10 99 -62 79z m65 -41 c4 -20 -24 -48 -49 -48 -11 0 -24 11 -31 26 -11 23 -10 29 11 45 21 17 26 18 45 6 12 -8 22 -21 24 -29z" transform="translate(0,134) scale(0.1,-0.1)" stroke="none" fill="#BED3B8"/>

<path d="M359 951 c-21 -16 -22 -22 -11 -45 13 -30 43 -34 67 -10 20 21 16 43 -11 61 -19 12 -24 11 -45 -6z" transform="translate(0,134) scale(0.1,-0.1)" stroke="none" fill="#936C3F"/>

<path d="M858 839 c-36 -21 -16 -79 27 -79 43 0 59 44 27 73 -21 19 -30 20 -54 6z" transform="translate(0,134) scale(0.1,-0.1)" stroke="none" fill="#BED3B8"/>

<path d="M726 1178 c-24 -34 -21 -118 7 -159 32 -49 105 -83 157 -74 80 14 147 104 130 175 -8 34 -8 34 -9 -14 -2 -121 -120 -187 -224 -127 -58 33 -87 147 -51 199 8 12 13 22 10 22 -3 0 -12 -10 -20 -22z" transform="translate(0,134) scale(0.1,-0.1)" stroke="none" fill="#BED3B8"/>

<path d="M793 1234 c-93 -46 -96 -204 -6 -255 73 -42 154 -25 201 44 29 43 30 117 2 162 -37 60 -128 83 -197 49z m161 -90 c9 -8 16 -22 16 -29 0 -13 -26 -45 -36 -45 -39 0 -59 60 -26 79 23 14 28 14 46 -5z" transform="translate(0,134) scale(0.1,-0.1)" stroke="none" fill="#936C3F"/>

<path d="M122 823 c-11 -16 -22 -37 -25 -48 -8 -24 6 -50 22 -41 6 4 42 -7 80 -24 38 -16 72 -30 75 -30 3 0 17 -11 31 -25 20 -17 34 -23 53 -19 21 4 36 -3 66 -31 24 -22 45 -33 56 -30 10 3 32 -9 56 -30 30 -27 47 -35 72 -33 18 1 36 -3 40 -9 10 -15 68 -43 91 -43 11 0 33 -12 50 -26 20 -17 45 -27 69 -28 24 -1 46 -10 60 -24 13 -13 36 -25 53 -29 17 -3 36 -14 42 -24 7 -11 17 -19 24 -19 15 0 39 36 48 72 7 27 6 28 -39 26 -59 -3 -92 22 -128 93 -52 104 -67 112 -191 104 -71 -5 -100 -3 -127 8 -44 19 -94 71 -114 117 -8 19 -26 46 -41 60 -23 22 -34 25 -83 22 -138 -9 -150 -7 -181 16 -17 12 -32 22 -35 22 -3 0 -13 -12 -24 -27z" transform="translate(0,134) scale(0.1,-0.1)" stroke="none" fill="#936C3F"/>

<path d="M635 1133 c-33 -8 -91 -16 -128 -18 -86 -5 -145 -32 -187 -84 -18 -22 -35 -39 -38 -36 -6 6 -96 -40 -109 -57 -6 -7 -13 -25 -17 -40 -5 -21 0 -31 24 -51 43 -36 65 -41 131 -27 67 14 119 7 143 -19 9 -10 29 -43 44 -72 19 -38 41 -63 76 -87 48 -32 49 -32 161 -30 131 3 142 -2 181 -89 42 -93 92 -120 172 -92 22 8 34 20 43 46 17 53 6 152 -24 209 -18 35 -27 70 -30 119 -4 65 -23 123 -59 180 -7 11 -14 22 -15 24 -1 2 -18 -10 -37 -27 -57 -50 -116 -54 -184 -12 -46 28 -72 76 -72 133 0 26 -3 47 -7 46 -5 -1 -35 -8 -68 -16z m45 -144 c25 -46 -17 -96 -68 -82 -31 8 -46 50 -27 79 21 32 79 34 95 3z m-260 -29 c24 -24 25 -47 3 -72 -31 -34 -93 -13 -93 33 0 23 34 59 55 59 8 0 24 -9 35 -20z m500 -124 c30 -37 -20 -97 -62 -75 -28 15 -32 36 -14 64 18 28 57 33 76 11z m-230 -41 c7 -8 10 -25 6 -40 -5 -20 -13 -25 -36 -25 -23 0 -31 5 -36 25 -7 29 10 55 36 55 10 0 23 -7 30 -15z m334 -178 c22 -16 18 -65 -6 -80 -28 -18 -68 7 -68 42 0 44 39 64 74 38z" transform="translate(0,134) scale(0.1,-0.1)" stroke="none" fill="#FBD984"/>

<path d="M96 690 c4 -36 7 -89 5 -118 -2 -47 -10 -83 -53 -236 -15 -54 5 -88 90 -151 71 -53 264 -155 292 -155 10 0 23 -7 30 -15 10 -12 41 -15 159 -15 l146 1 23 48 c27 58 117 159 190 213 49 36 52 41 40 60 -7 11 -31 26 -53 34 -22 7 -45 21 -52 31 -8 10 -28 18 -53 19 -26 1 -50 11 -71 28 -17 14 -39 26 -50 26 -23 0 -81 28 -91 43 -4 6 -22 10 -40 9 -25 -2 -42 6 -72 33 -24 21 -46 33 -56 30 -11 -3 -32 8 -56 30 -30 28 -45 35 -66 31 -19 -4 -33 2 -53 19 -14 14 -28 25 -31 25 -3 0 -37 14 -75 30 -38 17 -74 28 -80 24 -6 -4 -15 0 -21 7 -6 9 -7 -9 -2 -51z" transform="translate(0,134) scale(0.1,-0.1)" stroke="none" fill="#BED3B8"/>

</g>

<g id="3" transform="translate(0,402.0)scale(0.8,0.8)">

<path d="M363 969 c-31 -11 -40 -54 -18 -79 23 -26 57 -25 80 0 36 40 -10 99 -62 79z m65 -41 c4 -20 -24 -48 -49 -48 -11 0 -24 11 -31 26 -11 23 -10 29 11 45 21 17 26 18 45 6 12 -8 22 -21 24 -29z" transform="translate(0,134) scale(0.1,-0.1)" stroke="none" fill="#BED3B8"/>

<path d="M359 951 c-21 -16 -22 -22 -11 -45 13 -30 43 -34 67 -10 20 21 16 43 -11 61 -19 12 -24 11 -45 -6z" transform="translate(0,134) scale(0.1,-0.1)" stroke="none" fill="#936C3F"/>

<path d="M858 839 c-36 -21 -16 -79 27 -79 43 0 59 44 27 73 -21 19 -30 20 -54 6z" transform="translate(0,134) scale(0.1,-0.1)" stroke="none" fill="#BED3B8"/>

<path d="M726 1178 c-24 -34 -21 -118 7 -159 32 -49 105 -83 157 -74 80 14 147 104 130 175 -8 34 -8 34 -9 -14 -2 -121 -120 -187 -224 -127 -58 33 -87 147 -51 199 8 12 13 22 10 22 -3 0 -12 -10 -20 -22z" transform="translate(0,134) scale(0.1,-0.1)" stroke="none" fill="#BED3B8"/>

<path d="M793 1234 c-93 -46 -96 -204 -6 -255 73 -42 154 -25 201 44 29 43 30 117 2 162 -37 60 -128 83 -197 49z m161 -90 c9 -8 16 -22 16 -29 0 -13 -26 -45 -36 -45 -39 0 -59 60 -26 79 23 14 28 14 46 -5z" transform="translate(0,134) scale(0.1,-0.1)" stroke="none" fill="#936C3F"/>

<path d="M122 823 c-11 -16 -22 -37 -25 -48 -8 -24 6 -50 22 -41 6 4 42 -7 80 -24 38 -16 72 -30 75 -30 3 0 17 -11 31 -25 20 -17 34 -23 53 -19 21 4 36 -3 66 -31 24 -22 45 -33 56 -30 10 3 32 -9 56 -30 30 -27 47 -35 72 -33 18 1 36 -3 40 -9 10 -15 68 -43 91 -43 11 0 33 -12 50 -26 20 -17 45 -27 69 -28 24 -1 46 -10 60 -24 13 -13 36 -25 53 -29 17 -3 36 -14 42 -24 7 -11 17 -19 24 -19 15 0 39 36 48 72 7 27 6 28 -39 26 -59 -3 -92 22 -128 93 -52 104 -67 112 -191 104 -71 -5 -100 -3 -127 8 -44 19 -94 71 -114 117 -8 19 -26 46 -41 60 -23 22 -34 25 -83 22 -138 -9 -150 -7 -181 16 -17 12 -32 22 -35 22 -3 0 -13 -12 -24 -27z" transform="translate(0,134) scale(0.1,-0.1)" stroke="none" fill="#936C3F"/>

<path d="M635 1133 c-33 -8 -91 -16 -128 -18 -86 -5 -145 -32 -187 -84 -18 -22 -35 -39 -38 -36 -6 6 -96 -40 -109 -57 -6 -7 -13 -25 -17 -40 -5 -21 0 -31 24 -51 43 -36 65 -41 131 -27 67 14 119 7 143 -19 9 -10 29 -43 44 -72 19 -38 41 -63 76 -87 48 -32 49 -32 161 -30 131 3 142 -2 181 -89 42 -93 92 -120 172 -92 22 8 34 20 43 46 17 53 6 152 -24 209 -18 35 -27 70 -30 119 -4 65 -23 123 -59 180 -7 11 -14 22 -15 24 -1 2 -18 -10 -37 -27 -57 -50 -116 -54 -184 -12 -46 28 -72 76 -72 133 0 26 -3 47 -7 46 -5 -1 -35 -8 -68 -16z m45 -144 c25 -46 -17 -96 -68 -82 -31 8 -46 50 -27 79 21 32 79 34 95 3z m-260 -29 c24 -24 25 -47 3 -72 -31 -34 -93 -13 -93 33 0 23 34 59 55 59 8 0 24 -9 35 -20z m500 -124 c30 -37 -20 -97 -62 -75 -28 15 -32 36 -14 64 18 28 57 33 76 11z m-230 -41 c7 -8 10 -25 6 -40 -5 -20 -13 -25 -36 -25 -23 0 -31 5 -36 25 -7 29 10 55 36 55 10 0 23 -7 30 -15z m334 -178 c22 -16 18 -65 -6 -80 -28 -18 -68 7 -68 42 0 44 39 64 74 38z" transform="translate(0,134) scale(0.1,-0.1)" stroke="none" fill="#FBD984"/>

<path d="M96 690 c4 -36 7 -89 5 -118 -2 -47 -10 -83 -53 -236 -15 -54 5 -88 90 -151 71 -53 264 -155 292 -155 10 0 23 -7 30 -15 10 -12 41 -15 159 -15 l146 1 23 48 c27 58 117 159 190 213 49 36 52 41 40 60 -7 11 -31 26 -53 34 -22 7 -45 21 -52 31 -8 10 -28 18 -53 19 -26 1 -50 11 -71 28 -17 14 -39 26 -50 26 -23 0 -81 28 -91 43 -4 6 -22 10 -40 9 -25 -2 -42 6 -72 33 -24 21 -46 33 -56 30 -11 -3 -32 8 -56 30 -30 28 -45 35 -66 31 -19 -4 -33 2 -53 19 -14 14 -28 25 -31 25 -3 0 -37 14 -75 30 -38 17 -74 28 -80 24 -6 -4 -15 0 -21 7 -6 9 -7 -9 -2 -51z" transform="translate(0,134) scale(0.1,-0.1)" stroke="none" fill="#BED3B8"/>

</g>

<g id="4" transform="translate(0,536.0)scale(0.8,0.8)">

<path d="M363 969 c-31 -11 -40 -54 -18 -79 23 -26 57 -25 80 0 36 40 -10 99 -62 79z m65 -41 c4 -20 -24 -48 -49 -48 -11 0 -24 11 -31 26 -11 23 -10 29 11 45 21 17 26 18 45 6 12 -8 22 -21 24 -29z" transform="translate(0,134) scale(0.1,-0.1)" stroke="none" fill="#BED3B8"/>

<path d="M359 951 c-21 -16 -22 -22 -11 -45 13 -30 43 -34 67 -10 20 21 16 43 -11 61 -19 12 -24 11 -45 -6z" transform="translate(0,134) scale(0.1,-0.1)" stroke="none" fill="#936C3F"/>

<path d="M858 839 c-36 -21 -16 -79 27 -79 43 0 59 44 27 73 -21 19 -30 20 -54 6z" transform="translate(0,134) scale(0.1,-0.1)" stroke="none" fill="#BED3B8"/>

<path d="M726 1178 c-24 -34 -21 -118 7 -159 32 -49 105 -83 157 -74 80 14 147 104 130 175 -8 34 -8 34 -9 -14 -2 -121 -120 -187 -224 -127 -58 33 -87 147 -51 199 8 12 13 22 10 22 -3 0 -12 -10 -20 -22z" transform="translate(0,134) scale(0.1,-0.1)" stroke="none" fill="#BED3B8"/>

<path d="M793 1234 c-93 -46 -96 -204 -6 -255 73 -42 154 -25 201 44 29 43 30 117 2 162 -37 60 -128 83 -197 49z m161 -90 c9 -8 16 -22 16 -29 0 -13 -26 -45 -36 -45 -39 0 -59 60 -26 79 23 14 28 14 46 -5z" transform="translate(0,134) scale(0.1,-0.1)" stroke="none" fill="#936C3F"/>

<path d="M122 823 c-11 -16 -22 -37 -25 -48 -8 -24 6 -50 22 -41 6 4 42 -7 80 -24 38 -16 72 -30 75 -30 3 0 17 -11 31 -25 20 -17 34 -23 53 -19 21 4 36 -3 66 -31 24 -22 45 -33 56 -30 10 3 32 -9 56 -30 30 -27 47 -35 72 -33 18 1 36 -3 40 -9 10 -15 68 -43 91 -43 11 0 33 -12 50 -26 20 -17 45 -27 69 -28 24 -1 46 -10 60 -24 13 -13 36 -25 53 -29 17 -3 36 -14 42 -24 7 -11 17 -19 24 -19 15 0 39 36 48 72 7 27 6 28 -39 26 -59 -3 -92 22 -128 93 -52 104 -67 112 -191 104 -71 -5 -100 -3 -127 8 -44 19 -94 71 -114 117 -8 19 -26 46 -41 60 -23 22 -34 25 -83 22 -138 -9 -150 -7 -181 16 -17 12 -32 22 -35 22 -3 0 -13 -12 -24 -27z" transform="translate(0,134) scale(0.1,-0.1)" stroke="none" fill="#936C3F"/>

<path d="M635 1133 c-33 -8 -91 -16 -128 -18 -86 -5 -145 -32 -187 -84 -18 -22 -35 -39 -38 -36 -6 6 -96 -40 -109 -57 -6 -7 -13 -25 -17 -40 -5 -21 0 -31 24 -51 43 -36 65 -41 131 -27 67 14 119 7 143 -19 9 -10 29 -43 44 -72 19 -38 41 -63 76 -87 48 -32 49 -32 161 -30 131 3 142 -2 181 -89 42 -93 92 -120 172 -92 22 8 34 20 43 46 17 53 6 152 -24 209 -18 35 -27 70 -30 119 -4 65 -23 123 -59 180 -7 11 -14 22 -15 24 -1 2 -18 -10 -37 -27 -57 -50 -116 -54 -184 -12 -46 28 -72 76 -72 133 0 26 -3 47 -7 46 -5 -1 -35 -8 -68 -16z m45 -144 c25 -46 -17 -96 -68 -82 -31 8 -46 50 -27 79 21 32 79 34 95 3z m-260 -29 c24 -24 25 -47 3 -72 -31 -34 -93 -13 -93 33 0 23 34 59 55 59 8 0 24 -9 35 -20z m500 -124 c30 -37 -20 -97 -62 -75 -28 15 -32 36 -14 64 18 28 57 33 76 11z m-230 -41 c7 -8 10 -25 6 -40 -5 -20 -13 -25 -36 -25 -23 0 -31 5 -36 25 -7 29 10 55 36 55 10 0 23 -7 30 -15z m334 -178 c22 -16 18 -65 -6 -80 -28 -18 -68 7 -68 42 0 44 39 64 74 38z" transform="translate(0,134) scale(0.1,-0.1)" stroke="none" fill="#FBD984"/>

<path d="M96 690 c4 -36 7 -89 5 -118 -2 -47 -10 -83 -53 -236 -15 -54 5 -88 90 -151 71 -53 264 -155 292 -155 10 0 23 -7 30 -15 10 -12 41 -15 159 -15 l146 1 23 48 c27 58 117 159 190 213 49 36 52 41 40 60 -7 11 -31 26 -53 34 -22 7 -45 21 -52 31 -8 10 -28 18 -53 19 -26 1 -50 11 -71 28 -17 14 -39 26 -50 26 -23 0 -81 28 -91 43 -4 6 -22 10 -40 9 -25 -2 -42 6 -72 33 -24 21 -46 33 -56 30 -11 -3 -32 8 -56 30 -30 28 -45 35 -66 31 -19 -4 -33 2 -53 19 -14 14 -28 25 -31 25 -3 0 -37 14 -75 30 -38 17 -74 28 -80 24 -6 -4 -15 0 -21 7 -6 9 -7 -9 -2 -51z" transform="translate(0,134) scale(0.1,-0.1)" stroke="none" fill="#BED3B8"/>

</g>

</g>
<g id="col3" transform="translate(360, -50.0)">
<g id="0" transform="translate(0,0.0)scale(0.8,0.8)">

<path d="M363 969 c-31 -11 -40 -54 -18 -79 23 -26 57 -25 80 0 36 40 -10 99 -62 79z m65 -41 c4 -20 -24 -48 -49 -48 -11 0 -24 11 -31 26 -11 23 -10 29 11 45 21 17 26 18 45 6 12 -8 22 -21 24 -29z" transform="translate(0,134) scale(0.1,-0.1)" stroke="none" fill="#BED3B8"/>

<path d="M359 951 c-21 -16 -22 -22 -11 -45 13 -30 43 -34 67 -10 20 21 16 43 -11 61 -19 12 -24 11 -45 -6z" transform="translate(0,134) scale(0.1,-0.1)" stroke="none" fill="#936C3F"/>

<path d="M858 839 c-36 -21 -16 -79 27 -79 43 0 59 44 27 73 -21 19 -30 20 -54 6z" transform="translate(0,134) scale(0.1,-0.1)" stroke="none" fill="#BED3B8"/>

<path d="M726 1178 c-24 -34 -21 -118 7 -159 32 -49 105 -83 157 -74 80 14 147 104 130 175 -8 34 -8 34 -9 -14 -2 -121 -120 -187 -224 -127 -58 33 -87 147 -51 199 8 12 13 22 10 22 -3 0 -12 -10 -20 -22z" transform="translate(0,134) scale(0.1,-0.1)" stroke="none" fill="#BED3B8"/>

<path d="M793 1234 c-93 -46 -96 -204 -6 -255 73 -42 154 -25 201 44 29 43 30 117 2 162 -37 60 -128 83 -197 49z m161 -90 c9 -8 16 -22 16 -29 0 -13 -26 -45 -36 -45 -39 0 -59 60 -26 79 23 14 28 14 46 -5z" transform="translate(0,134) scale(0.1,-0.1)" stroke="none" fill="#936C3F"/>

<path d="M122 823 c-11 -16 -22 -37 -25 -48 -8 -24 6 -50 22 -41 6 4 42 -7 80 -24 38 -16 72 -30 75 -30 3 0 17 -11 31 -25 20 -17 34 -23 53 -19 21 4 36 -3 66 -31 24 -22 45 -33 56 -30 10 3 32 -9 56 -30 30 -27 47 -35 72 -33 18 1 36 -3 40 -9 10 -15 68 -43 91 -43 11 0 33 -12 50 -26 20 -17 45 -27 69 -28 24 -1 46 -10 60 -24 13 -13 36 -25 53 -29 17 -3 36 -14 42 -24 7 -11 17 -19 24 -19 15 0 39 36 48 72 7 27 6 28 -39 26 -59 -3 -92 22 -128 93 -52 104 -67 112 -191 104 -71 -5 -100 -3 -127 8 -44 19 -94 71 -114 117 -8 19 -26 46 -41 60 -23 22 -34 25 -83 22 -138 -9 -150 -7 -181 16 -17 12 -32 22 -35 22 -3 0 -13 -12 -24 -27z" transform="translate(0,134) scale(0.1,-0.1)" stroke="none" fill="#936C3F"/>

<path d="M635 1133 c-33 -8 -91 -16 -128 -18 -86 -5 -145 -32 -187 -84 -18 -22 -35 -39 -38 -36 -6 6 -96 -40 -109 -57 -6 -7 -13 -25 -17 -40 -5 -21 0 -31 24 -51 43 -36 65 -41 131 -27 67 14 119 7 143 -19 9 -10 29 -43 44 -72 19 -38 41 -63 76 -87 48 -32 49 -32 161 -30 131 3 142 -2 181 -89 42 -93 92 -120 172 -92 22 8 34 20 43 46 17 53 6 152 -24 209 -18 35 -27 70 -30 119 -4 65 -23 123 -59 180 -7 11 -14 22 -15 24 -1 2 -18 -10 -37 -27 -57 -50 -116 -54 -184 -12 -46 28 -72 76 -72 133 0 26 -3 47 -7 46 -5 -1 -35 -8 -68 -16z m45 -144 c25 -46 -17 -96 -68 -82 -31 8 -46 50 -27 79 21 32 79 34 95 3z m-260 -29 c24 -24 25 -47 3 -72 -31 -34 -93 -13 -93 33 0 23 34 59 55 59 8 0 24 -9 35 -20z m500 -124 c30 -37 -20 -97 -62 -75 -28 15 -32 36 -14 64 18 28 57 33 76 11z m-230 -41 c7 -8 10 -25 6 -40 -5 -20 -13 -25 -36 -25 -23 0 -31 5 -36 25 -7 29 10 55 36 55 10 0 23 -7 30 -15z m334 -178 c22 -16 18 -65 -6 -80 -28 -18 -68 7 -68 42 0 44 39 64 74 38z" transform="translate(0,134) scale(0.1,-0.1)" stroke="none" fill="#FBD984"/>

<path d="M96 690 c4 -36 7 -89 5 -118 -2 -47 -10 -83 -53 -236 -15 -54 5 -88 90 -151 71 -53 264 -155 292 -155 10 0 23 -7 30 -15 10 -12 41 -15 159 -15 l146 1 23 48 c27 58 117 159 190 213 49 36 52 41 40 60 -7 11 -31 26 -53 34 -22 7 -45 21 -52 31 -8 10 -28 18 -53 19 -26 1 -50 11 -71 28 -17 14 -39 26 -50 26 -23 0 -81 28 -91 43 -4 6 -22 10 -40 9 -25 -2 -42 6 -72 33 -24 21 -46 33 -56 30 -11 -3 -32 8 -56 30 -30 28 -45 35 -66 31 -19 -4 -33 2 -53 19 -14 14 -28 25 -31 25 -3 0 -37 14 -75 30 -38 17 -74 28 -80 24 -6 -4 -15 0 -21 7 -6 9 -7 -9 -2 -51z" transform="translate(0,134) scale(0.1,-0.1)" stroke="none" fill="#BED3B8"/>

</g>

<g id="1" transform="translate(0,134.0)scale(0.8,0.8)">

<path d="M363 969 c-31 -11 -40 -54 -18 -79 23 -26 57 -25 80 0 36 40 -10 99 -62 79z m65 -41 c4 -20 -24 -48 -49 -48 -11 0 -24 11 -31 26 -11 23 -10 29 11 45 21 17 26 18 45 6 12 -8 22 -21 24 -29z" transform="translate(0,134) scale(0.1,-0.1)" stroke="none" fill="#BED3B8"/>

<path d="M359 951 c-21 -16 -22 -22 -11 -45 13 -30 43 -34 67 -10 20 21 16 43 -11 61 -19 12 -24 11 -45 -6z" transform="translate(0,134) scale(0.1,-0.1)" stroke="none" fill="#936C3F"/>

<path d="M858 839 c-36 -21 -16 -79 27 -79 43 0 59 44 27 73 -21 19 -30 20 -54 6z" transform="translate(0,134) scale(0.1,-0.1)" stroke="none" fill="#BED3B8"/>

<path d="M726 1178 c-24 -34 -21 -118 7 -159 32 -49 105 -83 157 -74 80 14 147 104 130 175 -8 34 -8 34 -9 -14 -2 -121 -120 -187 -224 -127 -58 33 -87 147 -51 199 8 12 13 22 10 22 -3 0 -12 -10 -20 -22z" transform="translate(0,134) scale(0.1,-0.1)" stroke="none" fill="#BED3B8"/>

<path d="M793 1234 c-93 -46 -96 -204 -6 -255 73 -42 154 -25 201 44 29 43 30 117 2 162 -37 60 -128 83 -197 49z m161 -90 c9 -8 16 -22 16 -29 0 -13 -26 -45 -36 -45 -39 0 -59 60 -26 79 23 14 28 14 46 -5z" transform="translate(0,134) scale(0.1,-0.1)" stroke="none" fill="#936C3F"/>

<path d="M122 823 c-11 -16 -22 -37 -25 -48 -8 -24 6 -50 22 -41 6 4 42 -7 80 -24 38 -16 72 -30 75 -30 3 0 17 -11 31 -25 20 -17 34 -23 53 -19 21 4 36 -3 66 -31 24 -22 45 -33 56 -30 10 3 32 -9 56 -30 30 -27 47 -35 72 -33 18 1 36 -3 40 -9 10 -15 68 -43 91 -43 11 0 33 -12 50 -26 20 -17 45 -27 69 -28 24 -1 46 -10 60 -24 13 -13 36 -25 53 -29 17 -3 36 -14 42 -24 7 -11 17 -19 24 -19 15 0 39 36 48 72 7 27 6 28 -39 26 -59 -3 -92 22 -128 93 -52 104 -67 112 -191 104 -71 -5 -100 -3 -127 8 -44 19 -94 71 -114 117 -8 19 -26 46 -41 60 -23 22 -34 25 -83 22 -138 -9 -150 -7 -181 16 -17 12 -32 22 -35 22 -3 0 -13 -12 -24 -27z" transform="translate(0,134) scale(0.1,-0.1)" stroke="none" fill="#936C3F"/>

<path d="M635 1133 c-33 -8 -91 -16 -128 -18 -86 -5 -145 -32 -187 -84 -18 -22 -35 -39 -38 -36 -6 6 -96 -40 -109 -57 -6 -7 -13 -25 -17 -40 -5 -21 0 -31 24 -51 43 -36 65 -41 131 -27 67 14 119 7 143 -19 9 -10 29 -43 44 -72 19 -38 41 -63 76 -87 48 -32 49 -32 161 -30 131 3 142 -2 181 -89 42 -93 92 -120 172 -92 22 8 34 20 43 46 17 53 6 152 -24 209 -18 35 -27 70 -30 119 -4 65 -23 123 -59 180 -7 11 -14 22 -15 24 -1 2 -18 -10 -37 -27 -57 -50 -116 -54 -184 -12 -46 28 -72 76 -72 133 0 26 -3 47 -7 46 -5 -1 -35 -8 -68 -16z m45 -144 c25 -46 -17 -96 -68 -82 -31 8 -46 50 -27 79 21 32 79 34 95 3z m-260 -29 c24 -24 25 -47 3 -72 -31 -34 -93 -13 -93 33 0 23 34 59 55 59 8 0 24 -9 35 -20z m500 -124 c30 -37 -20 -97 -62 -75 -28 15 -32 36 -14 64 18 28 57 33 76 11z m-230 -41 c7 -8 10 -25 6 -40 -5 -20 -13 -25 -36 -25 -23 0 -31 5 -36 25 -7 29 10 55 36 55 10 0 23 -7 30 -15z m334 -178 c22 -16 18 -65 -6 -80 -28 -18 -68 7 -68 42 0 44 39 64 74 38z" transform="translate(0,134) scale(0.1,-0.1)" stroke="none" fill="#FBD984"/>

<path d="M96 690 c4 -36 7 -89 5 -118 -2 -47 -10 -83 -53 -236 -15 -54 5 -88 90 -151 71 -53 264 -155 292 -155 10 0 23 -7 30 -15 10 -12 41 -15 159 -15 l146 1 23 48 c27 58 117 159 190 213 49 36 52 41 40 60 -7 11 -31 26 -53 34 -22 7 -45 21 -52 31 -8 10 -28 18 -53 19 -26 1 -50 11 -71 28 -17 14 -39 26 -50 26 -23 0 -81 28 -91 43 -4 6 -22 10 -40 9 -25 -2 -42 6 -72 33 -24 21 -46 33 -56 30 -11 -3 -32 8 -56 30 -30 28 -45 35 -66 31 -19 -4 -33 2 -53 19 -14 14 -28 25 -31 25 -3 0 -37 14 -75 30 -38 17 -74 28 -80 24 -6 -4 -15 0 -21 7 -6 9 -7 -9 -2 -51z" transform="translate(0,134) scale(0.1,-0.1)" stroke="none" fill="#BED3B8"/>

</g>

<g id="2" transform="translate(0,268.0)scale(0.8,0.8)">

<path d="M363 969 c-31 -11 -40 -54 -18 -79 23 -26 57 -25 80 0 36 40 -10 99 -62 79z m65 -41 c4 -20 -24 -48 -49 -48 -11 0 -24 11 -31 26 -11 23 -10 29 11 45 21 17 26 18 45 6 12 -8 22 -21 24 -29z" transform="translate(0,134) scale(0.1,-0.1)" stroke="none" fill="#BED3B8"/>

<path d="M359 951 c-21 -16 -22 -22 -11 -45 13 -30 43 -34 67 -10 20 21 16 43 -11 61 -19 12 -24 11 -45 -6z" transform="translate(0,134) scale(0.1,-0.1)" stroke="none" fill="#936C3F"/>

<path d="M858 839 c-36 -21 -16 -79 27 -79 43 0 59 44 27 73 -21 19 -30 20 -54 6z" transform="translate(0,134) scale(0.1,-0.1)" stroke="none" fill="#BED3B8"/>

<path d="M726 1178 c-24 -34 -21 -118 7 -159 32 -49 105 -83 157 -74 80 14 147 104 130 175 -8 34 -8 34 -9 -14 -2 -121 -120 -187 -224 -127 -58 33 -87 147 -51 199 8 12 13 22 10 22 -3 0 -12 -10 -20 -22z" transform="translate(0,134) scale(0.1,-0.1)" stroke="none" fill="#BED3B8"/>

<path d="M793 1234 c-93 -46 -96 -204 -6 -255 73 -42 154 -25 201 44 29 43 30 117 2 162 -37 60 -128 83 -197 49z m161 -90 c9 -8 16 -22 16 -29 0 -13 -26 -45 -36 -45 -39 0 -59 60 -26 79 23 14 28 14 46 -5z" transform="translate(0,134) scale(0.1,-0.1)" stroke="none" fill="#936C3F"/>

<path d="M122 823 c-11 -16 -22 -37 -25 -48 -8 -24 6 -50 22 -41 6 4 42 -7 80 -24 38 -16 72 -30 75 -30 3 0 17 -11 31 -25 20 -17 34 -23 53 -19 21 4 36 -3 66 -31 24 -22 45 -33 56 -30 10 3 32 -9 56 -30 30 -27 47 -35 72 -33 18 1 36 -3 40 -9 10 -15 68 -43 91 -43 11 0 33 -12 50 -26 20 -17 45 -27 69 -28 24 -1 46 -10 60 -24 13 -13 36 -25 53 -29 17 -3 36 -14 42 -24 7 -11 17 -19 24 -19 15 0 39 36 48 72 7 27 6 28 -39 26 -59 -3 -92 22 -128 93 -52 104 -67 112 -191 104 -71 -5 -100 -3 -127 8 -44 19 -94 71 -114 117 -8 19 -26 46 -41 60 -23 22 -34 25 -83 22 -138 -9 -150 -7 -181 16 -17 12 -32 22 -35 22 -3 0 -13 -12 -24 -27z" transform="translate(0,134) scale(0.1,-0.1)" stroke="none" fill="#936C3F"/>

<path d="M635 1133 c-33 -8 -91 -16 -128 -18 -86 -5 -145 -32 -187 -84 -18 -22 -35 -39 -38 -36 -6 6 -96 -40 -109 -57 -6 -7 -13 -25 -17 -40 -5 -21 0 -31 24 -51 43 -36 65 -41 131 -27 67 14 119 7 143 -19 9 -10 29 -43 44 -72 19 -38 41 -63 76 -87 48 -32 49 -32 161 -30 131 3 142 -2 181 -89 42 -93 92 -120 172 -92 22 8 34 20 43 46 17 53 6 152 -24 209 -18 35 -27 70 -30 119 -4 65 -23 123 -59 180 -7 11 -14 22 -15 24 -1 2 -18 -10 -37 -27 -57 -50 -116 -54 -184 -12 -46 28 -72 76 -72 133 0 26 -3 47 -7 46 -5 -1 -35 -8 -68 -16z m45 -144 c25 -46 -17 -96 -68 -82 -31 8 -46 50 -27 79 21 32 79 34 95 3z m-260 -29 c24 -24 25 -47 3 -72 -31 -34 -93 -13 -93 33 0 23 34 59 55 59 8 0 24 -9 35 -20z m500 -124 c30 -37 -20 -97 -62 -75 -28 15 -32 36 -14 64 18 28 57 33 76 11z m-230 -41 c7 -8 10 -25 6 -40 -5 -20 -13 -25 -36 -25 -23 0 -31 5 -36 25 -7 29 10 55 36 55 10 0 23 -7 30 -15z m334 -178 c22 -16 18 -65 -6 -80 -28 -18 -68 7 -68 42 0 44 39 64 74 38z" transform="translate(0,134) scale(0.1,-0.1)" stroke="none" fill="#FBD984"/>

<path d="M96 690 c4 -36 7 -89 5 -118 -2 -47 -10 -83 -53 -236 -15 -54 5 -88 90 -151 71 -53 264 -155 292 -155 10 0 23 -7 30 -15 10 -12 41 -15 159 -15 l146 1 23 48 c27 58 117 159 190 213 49 36 52 41 40 60 -7 11 -31 26 -53 34 -22 7 -45 21 -52 31 -8 10 -28 18 -53 19 -26 1 -50 11 -71 28 -17 14 -39 26 -50 26 -23 0 -81 28 -91 43 -4 6 -22 10 -40 9 -25 -2 -42 6 -72 33 -24 21 -46 33 -56 30 -11 -3 -32 8 -56 30 -30 28 -45 35 -66 31 -19 -4 -33 2 -53 19 -14 14 -28 25 -31 25 -3 0 -37 14 -75 30 -38 17 -74 28 -80 24 -6 -4 -15 0 -21 7 -6 9 -7 -9 -2 -51z" transform="translate(0,134) scale(0.1,-0.1)" stroke="none" fill="#BED3B8"/>

</g>

<g id="3" transform="translate(0,402.0)scale(0.8,0.8)">

<path d="M363 969 c-31 -11 -40 -54 -18 -79 23 -26 57 -25 80 0 36 40 -10 99 -62 79z m65 -41 c4 -20 -24 -48 -49 -48 -11 0 -24 11 -31 26 -11 23 -10 29 11 45 21 17 26 18 45 6 12 -8 22 -21 24 -29z" transform="translate(0,134) scale(0.1,-0.1)" stroke="none" fill="#BED3B8"/>

<path d="M359 951 c-21 -16 -22 -22 -11 -45 13 -30 43 -34 67 -10 20 21 16 43 -11 61 -19 12 -24 11 -45 -6z" transform="translate(0,134) scale(0.1,-0.1)" stroke="none" fill="#936C3F"/>

<path d="M858 839 c-36 -21 -16 -79 27 -79 43 0 59 44 27 73 -21 19 -30 20 -54 6z" transform="translate(0,134) scale(0.1,-0.1)" stroke="none" fill="#BED3B8"/>

<path d="M726 1178 c-24 -34 -21 -118 7 -159 32 -49 105 -83 157 -74 80 14 147 104 130 175 -8 34 -8 34 -9 -14 -2 -121 -120 -187 -224 -127 -58 33 -87 147 -51 199 8 12 13 22 10 22 -3 0 -12 -10 -20 -22z" transform="translate(0,134) scale(0.1,-0.1)" stroke="none" fill="#BED3B8"/>

<path d="M793 1234 c-93 -46 -96 -204 -6 -255 73 -42 154 -25 201 44 29 43 30 117 2 162 -37 60 -128 83 -197 49z m161 -90 c9 -8 16 -22 16 -29 0 -13 -26 -45 -36 -45 -39 0 -59 60 -26 79 23 14 28 14 46 -5z" transform="translate(0,134) scale(0.1,-0.1)" stroke="none" fill="#936C3F"/>

<path d="M122 823 c-11 -16 -22 -37 -25 -48 -8 -24 6 -50 22 -41 6 4 42 -7 80 -24 38 -16 72 -30 75 -30 3 0 17 -11 31 -25 20 -17 34 -23 53 -19 21 4 36 -3 66 -31 24 -22 45 -33 56 -30 10 3 32 -9 56 -30 30 -27 47 -35 72 -33 18 1 36 -3 40 -9 10 -15 68 -43 91 -43 11 0 33 -12 50 -26 20 -17 45 -27 69 -28 24 -1 46 -10 60 -24 13 -13 36 -25 53 -29 17 -3 36 -14 42 -24 7 -11 17 -19 24 -19 15 0 39 36 48 72 7 27 6 28 -39 26 -59 -3 -92 22 -128 93 -52 104 -67 112 -191 104 -71 -5 -100 -3 -127 8 -44 19 -94 71 -114 117 -8 19 -26 46 -41 60 -23 22 -34 25 -83 22 -138 -9 -150 -7 -181 16 -17 12 -32 22 -35 22 -3 0 -13 -12 -24 -27z" transform="translate(0,134) scale(0.1,-0.1)" stroke="none" fill="#936C3F"/>

<path d="M635 1133 c-33 -8 -91 -16 -128 -18 -86 -5 -145 -32 -187 -84 -18 -22 -35 -39 -38 -36 -6 6 -96 -40 -109 -57 -6 -7 -13 -25 -17 -40 -5 -21 0 -31 24 -51 43 -36 65 -41 131 -27 67 14 119 7 143 -19 9 -10 29 -43 44 -72 19 -38 41 -63 76 -87 48 -32 49 -32 161 -30 131 3 142 -2 181 -89 42 -93 92 -120 172 -92 22 8 34 20 43 46 17 53 6 152 -24 209 -18 35 -27 70 -30 119 -4 65 -23 123 -59 180 -7 11 -14 22 -15 24 -1 2 -18 -10 -37 -27 -57 -50 -116 -54 -184 -12 -46 28 -72 76 -72 133 0 26 -3 47 -7 46 -5 -1 -35 -8 -68 -16z m45 -144 c25 -46 -17 -96 -68 -82 -31 8 -46 50 -27 79 21 32 79 34 95 3z m-260 -29 c24 -24 25 -47 3 -72 -31 -34 -93 -13 -93 33 0 23 34 59 55 59 8 0 24 -9 35 -20z m500 -124 c30 -37 -20 -97 -62 -75 -28 15 -32 36 -14 64 18 28 57 33 76 11z m-230 -41 c7 -8 10 -25 6 -40 -5 -20 -13 -25 -36 -25 -23 0 -31 5 -36 25 -7 29 10 55 36 55 10 0 23 -7 30 -15z m334 -178 c22 -16 18 -65 -6 -80 -28 -18 -68 7 -68 42 0 44 39 64 74 38z" transform="translate(0,134) scale(0.1,-0.1)" stroke="none" fill="#FBD984"/>

<path d="M96 690 c4 -36 7 -89 5 -118 -2 -47 -10 -83 -53 -236 -15 -54 5 -88 90 -151 71 -53 264 -155 292 -155 10 0 23 -7 30 -15 10 -12 41 -15 159 -15 l146 1 23 48 c27 58 117 159 190 213 49 36 52 41 40 60 -7 11 -31 26 -53 34 -22 7 -45 21 -52 31 -8 10 -28 18 -53 19 -26 1 -50 11 -71 28 -17 14 -39 26 -50 26 -23 0 -81 28 -91 43 -4 6 -22 10 -40 9 -25 -2 -42 6 -72 33 -24 21 -46 33 -56 30 -11 -3 -32 8 -56 30 -30 28 -45 35 -66 31 -19 -4 -33 2 -53 19 -14 14 -28 25 -31 25 -3 0 -37 14 -75 30 -38 17 -74 28 -80 24 -6 -4 -15 0 -21 7 -6 9 -7 -9 -2 -51z" transform="translate(0,134) scale(0.1,-0.1)" stroke="none" fill="#BED3B8"/>

</g>

<g id="4" transform="translate(0,536.0)scale(0.8,0.8)">

<path d="M363 969 c-31 -11 -40 -54 -18 -79 23 -26 57 -25 80 0 36 40 -10 99 -62 79z m65 -41 c4 -20 -24 -48 -49 -48 -11 0 -24 11 -31 26 -11 23 -10 29 11 45 21 17 26 18 45 6 12 -8 22 -21 24 -29z" transform="translate(0,134) scale(0.1,-0.1)" stroke="none" fill="#BED3B8"/>

<path d="M359 951 c-21 -16 -22 -22 -11 -45 13 -30 43 -34 67 -10 20 21 16 43 -11 61 -19 12 -24 11 -45 -6z" transform="translate(0,134) scale(0.1,-0.1)" stroke="none" fill="#936C3F"/>

<path d="M858 839 c-36 -21 -16 -79 27 -79 43 0 59 44 27 73 -21 19 -30 20 -54 6z" transform="translate(0,134) scale(0.1,-0.1)" stroke="none" fill="#BED3B8"/>

<path d="M726 1178 c-24 -34 -21 -118 7 -159 32 -49 105 -83 157 -74 80 14 147 104 130 175 -8 34 -8 34 -9 -14 -2 -121 -120 -187 -224 -127 -58 33 -87 147 -51 199 8 12 13 22 10 22 -3 0 -12 -10 -20 -22z" transform="translate(0,134) scale(0.1,-0.1)" stroke="none" fill="#BED3B8"/>

<path d="M793 1234 c-93 -46 -96 -204 -6 -255 73 -42 154 -25 201 44 29 43 30 117 2 162 -37 60 -128 83 -197 49z m161 -90 c9 -8 16 -22 16 -29 0 -13 -26 -45 -36 -45 -39 0 -59 60 -26 79 23 14 28 14 46 -5z" transform="translate(0,134) scale(0.1,-0.1)" stroke="none" fill="#936C3F"/>

<path d="M122 823 c-11 -16 -22 -37 -25 -48 -8 -24 6 -50 22 -41 6 4 42 -7 80 -24 38 -16 72 -30 75 -30 3 0 17 -11 31 -25 20 -17 34 -23 53 -19 21 4 36 -3 66 -31 24 -22 45 -33 56 -30 10 3 32 -9 56 -30 30 -27 47 -35 72 -33 18 1 36 -3 40 -9 10 -15 68 -43 91 -43 11 0 33 -12 50 -26 20 -17 45 -27 69 -28 24 -1 46 -10 60 -24 13 -13 36 -25 53 -29 17 -3 36 -14 42 -24 7 -11 17 -19 24 -19 15 0 39 36 48 72 7 27 6 28 -39 26 -59 -3 -92 22 -128 93 -52 104 -67 112 -191 104 -71 -5 -100 -3 -127 8 -44 19 -94 71 -114 117 -8 19 -26 46 -41 60 -23 22 -34 25 -83 22 -138 -9 -150 -7 -181 16 -17 12 -32 22 -35 22 -3 0 -13 -12 -24 -27z" transform="translate(0,134) scale(0.1,-0.1)" stroke="none" fill="#936C3F"/>

<path d="M635 1133 c-33 -8 -91 -16 -128 -18 -86 -5 -145 -32 -187 -84 -18 -22 -35 -39 -38 -36 -6 6 -96 -40 -109 -57 -6 -7 -13 -25 -17 -40 -5 -21 0 -31 24 -51 43 -36 65 -41 131 -27 67 14 119 7 143 -19 9 -10 29 -43 44 -72 19 -38 41 -63 76 -87 48 -32 49 -32 161 -30 131 3 142 -2 181 -89 42 -93 92 -120 172 -92 22 8 34 20 43 46 17 53 6 152 -24 209 -18 35 -27 70 -30 119 -4 65 -23 123 -59 180 -7 11 -14 22 -15 24 -1 2 -18 -10 -37 -27 -57 -50 -116 -54 -184 -12 -46 28 -72 76 -72 133 0 26 -3 47 -7 46 -5 -1 -35 -8 -68 -16z m45 -144 c25 -46 -17 -96 -68 -82 -31 8 -46 50 -27 79 21 32 79 34 95 3z m-260 -29 c24 -24 25 -47 3 -72 -31 -34 -93 -13 -93 33 0 23 34 59 55 59 8 0 24 -9 35 -20z m500 -124 c30 -37 -20 -97 -62 -75 -28 15 -32 36 -14 64 18 28 57 33 76 11z m-230 -41 c7 -8 10 -25 6 -40 -5 -20 -13 -25 -36 -25 -23 0 -31 5 -36 25 -7 29 10 55 36 55 10 0 23 -7 30 -15z m334 -178 c22 -16 18 -65 -6 -80 -28 -18 -68 7 -68 42 0 44 39 64 74 38z" transform="translate(0,134) scale(0.1,-0.1)" stroke="none" fill="#FBD984"/>

<path d="M96 690 c4 -36 7 -89 5 -118 -2 -47 -10 -83 -53 -236 -15 -54 5 -88 90 -151 71 -53 264 -155 292 -155 10 0 23 -7 30 -15 10 -12 41 -15 159 -15 l146 1 23 48 c27 58 117 159 190 213 49 36 52 41 40 60 -7 11 -31 26 -53 34 -22 7 -45 21 -52 31 -8 10 -28 18 -53 19 -26 1 -50 11 -71 28 -17 14 -39 26 -50 26 -23 0 -81 28 -91 43 -4 6 -22 10 -40 9 -25 -2 -42 6 -72 33 -24 21 -46 33 -56 30 -11 -3 -32 8 -56 30 -30 28 -45 35 -66 31 -19 -4 -33 2 -53 19 -14 14 -28 25 -31 25 -3 0 -37 14 -75 30 -38 17 -74 28 -80 24 -6 -4 -15 0 -21 7 -6 9 -7 -9 -2 -51z" transform="translate(0,134) scale(0.1,-0.1)" stroke="none" fill="#BED3B8"/>

</g>

</g>
</svg>