<?xml version="1.0" standalone="no"?>
<!DOCTYPE svg PUBLIC "-//W3C//DTD SVG 20010904//EN"
 "http://www.w3.org/TR/2001/REC-SVG-20010904/DTD/svg10.dtd">
<svg version="1.0" xmlns="http://www.w3.org/2000/svg" width="428pt" height="400pt" viewBox="0 0 428 400" preserveAspectRatio = "xMidYMid meet" >
<metadata>
Created by ZoeQu, written in 2022
</metadata>
<rect width="428" height="400" fill="#CBD7E6"/>
<g id="row0" transform="translate(14,0.0)">
<g id="0" transform="translate(0.0,0)scale(1,1)">

<path d="M52 313 c-1 -78 1 -144 6 -146 4 -3 6 38 4 91 -5 179 -8 198 -10 55z" transform="translate(0,100) scale(0.1,-0.1)" stroke="none" fill="#082223"/>

<path d="M313 423 c-42 -8 -120 -91 -158 -166 -20 -40 -44 -75 -53 -79 -15 -6 -15 -7 1 -7 10 -1 16 -4 14 -8 -3 -5 -12 -32 -21 -62 l-16 -54 203 6 c111 4 221 7 245 7 l42 0 -1 78 c0 42 -6 95 -13 117 l-13 40 56 60 56 60 -55 -53 -56 -52 -32 45 c-46 65 -107 86 -199 68z" transform="translate(0,100) scale(0.1,-0.1)" stroke="none" fill="#082223"/>

<path d="M535 939 c-22 -5 -57 -23 -77 -40 -23 -18 -58 -33 -90 -39 -62 -12 -89 -35 -117 -100 -24 -56 -27 -58 -100 -85 -95 -35 -97 -41 -93 -288 2 -117 5 -213 7 -215 1 -2 14 0 28 3 18 5 31 20 46 55 11 26 36 68 55 93 30 39 34 50 29 85 -17 128 79 224 192 193 22 -6 39 -9 40 -8 0 1 6 14 12 29 7 14 39 45 72 68 70 47 89 81 98 178 8 84 -5 93 -102 71z" transform="translate(0,100) scale(0.1,-0.1)" stroke="none" fill="#7296A7"/>

<path d="M805 794 c-37 -19 -107 -86 -141 -136 -14 -20 -43 -48 -64 -63 -44 -31 -88 -31 -173 0 -41 15 -54 16 -91 5 -73 -20 -116 -80 -116 -160 0 -66 7 -73 45 -44 44 33 125 43 177 21 23 -10 50 -34 70 -61 l32 -46 56 54 c63 61 87 74 185 106 174 56 225 106 225 218 0 54 -18 85 -60 107 -38 19 -107 19 -145 -1z" transform="translate(0,100) scale(0.1,-0.1)" stroke="none" fill="#2A5666"/>

</g>

<g id="1" transform="translate(107.0,0)scale(1,1)">

<path d="M52 313 c-1 -78 1 -144 6 -146 4 -3 6 38 4 91 -5 179 -8 198 -10 55z" transform="translate(0,100) scale(0.1,-0.1)" stroke="none" fill="#082223"/>

<path d="M313 423 c-42 -8 -120 -91 -158 -166 -20 -40 -44 -75 -53 -79 -15 -6 -15 -7 1 -7 10 -1 16 -4 14 -8 -3 -5 -12 -32 -21 -62 l-16 -54 203 6 c111 4 221 7 245 7 l42 0 -1 78 c0 42 -6 95 -13 117 l-13 40 56 60 56 60 -55 -53 -56 -52 -32 45 c-46 65 -107 86 -199 68z" transform="translate(0,100) scale(0.1,-0.1)" stroke="none" fill="#082223"/>

<path d="M535 939 c-22 -5 -57 -23 -77 -40 -23 -18 -58 -33 -90 -39 -62 -12 -89 -35 -117 -100 -24 -56 -27 -58 -100 -85 -95 -35 -97 -41 -93 -288 2 -117 5 -213 7 -215 1 -2 14 0 28 3 18 5 31 20 46 55 11 26 36 68 55 93 30 39 34 50 29 85 -17 128 79 224 192 193 22 -6 39 -9 40 -8 0 1 6 14 12 29 7 14 39 45 72 68 70 47 89 81 98 178 8 84 -5 93 -102 71z" transform="translate(0,100) scale(0.1,-0.1)" stroke="none" fill="#7296A7"/>

<path d="M805 794 c-37 -19 -107 -86 -141 -136 -14 -20 -43 -48 -64 -63 -44 -31 -88 -31 -173 0 -41 15 -54 16 -91 5 -73 -20 -116 -80 -116 -160 0 -66 7 -73 45 -44 44 33 125 43 177 21 23 -10 50 -34 70 -61 l32 -46 56 54 c63 61 87 74 185 106 174 56 225 106 225 218 0 54 -18 85 -60 107 -38 19 -107 19 -145 -1z" transform="translate(0,100) scale(0.1,-0.1)" stroke="none" fill="#2A5666"/>

</g>

<g id="2" transform="translate(214.0,0)scale(1,1)">

<path d="M52 313 c-1 -78 1 -144 6 -146 4 -3 6 38 4 91 -5 179 -8 198 -10 55z" transform="translate(0,100) scale(0.1,-0.1)" stroke="none" fill="#082223"/>

<path d="M313 423 c-42 -8 -120 -91 -158 -166 -20 -40 -44 -75 -53 -79 -15 -6 -15 -7 1 -7 10 -1 16 -4 14 -8 -3 -5 -12 -32 -21 -62 l-16 -54 203 6 c111 4 221 7 245 7 l42 0 -1 78 c0 42 -6 95 -13 117 l-13 40 56 60 56 60 -55 -53 -56 -52 -32 45 c-46 65 -107 86 -199 68z" transform="translate(0,100) scale(0.1,-0.1)" stroke="none" fill="#082223"/>

<path d="M535 939 c-22 -5 -57 -23 -77 -40 -23 -18 -58 -33 -90 -39 -62 -12 -89 -35 -117 -100 -24 -56 -27 -58 -100 -85 -95 -35 -97 -41 -93 -288 2 -117 5 -213 7 -215 1 -2 14 0 28 3 18 5 31 20 46 55 11 26 36 68 55 93 30 39 34 50 29 85 -17 128 79 224 192 193 22 -6 39 -9 40 -8 0 1 6 14 12 29 7 14 39 45 72 68 70 47 89 81 98 178 8 84 -5 93 -102 71z" transform="translate(0,100) scale(0.1,-0.1)" stroke="none" fill="#7296A7"/>

<path d="M805 794 c-37 -19 -107 -86 -141 -136 -14 -20 -43 -48 -64 -63 -44 -31 -88 -31 -173 0 -41 15 -54 16 -91 5 -73 -20 -116 -80 -116 -160 0 -66 7 -73 45 -44 44 33 125 43 177 21 23 -10 50 -34 70 -61 l32 -46 56 54 c63 61 87 74 185 106 174 56 225 106 225 218 0 54 -18 85 -60 107 -38 19 -107 19 -145 -1z" transform="translate(0,100) scale(0.1,-0.1)" stroke="none" fill="#2A5666"/>

</g>

<g id="3" transform="translate(321.0,0)scale(1,1)">

<path d="M52 313 c-1 -78 1 -144 6 -146 4 -3 6 38 4 91 -5 179 -8 198 -10 55z" transform="translate(0,100) scale(0.1,-0.1)" stroke="none" fill="#082223"/>

<path d="M313 423 c-42 -8 -120 -91 -158 -166 -20 -40 -44 -75 -53 -79 -15 -6 -15 -7 1 -7 10 -1 16 -4 14 -8 -3 -5 -12 -32 -21 -62 l-16 -54 203 6 c111 4 221 7 245 7 l42 0 -1 78 c0 42 -6 95 -13 117 l-13 40 56 60 56 60 -55 -53 -56 -52 -32 45 c-46 65 -107 86 -199 68z" transform="translate(0,100) scale(0.1,-0.1)" stroke="none" fill="#082223"/>

<path d="M535 939 c-22 -5 -57 -23 -77 -40 -23 -18 -58 -33 -90 -39 -62 -12 -89 -35 -117 -100 -24 -56 -27 -58 -100 -85 -95 -35 -97 -41 -93 -288 2 -117 5 -213 7 -215 1 -2 14 0 28 3 18 5 31 20 46 55 11 26 36 68 55 93 30 39 34 50 29 85 -17 128 79 224 192 193 22 -6 39 -9 40 -8 0 1 6 14 12 29 7 14 39 45 72 68 70 47 89 81 98 178 8 84 -5 93 -102 71z" transform="translate(0,100) scale(0.1,-0.1)" stroke="none" fill="#7296A7"/>

<path d="M805 794 c-37 -19 -107 -86 -141 -136 -14 -20 -43 -48 -64 -63 -44 -31 -88 -31 -173 0 -41 15 -54 16 -91 5 -73 -20 -116 -80 -116 -160 0 -66 7 -73 45 -44 44 33 125 43 177 21 23 -10 50 -34 70 -61 l32 -46 56 54 c63 61 87 74 185 106 174 56 225 106 225 218 0 54 -18 85 -60 107 -38 19 -107 19 -145 -1z" transform="translate(0,100) scale(0.1,-0.1)" stroke="none" fill="#2A5666"/>

</g>

<g id="4" transform="translate(428.0,0)scale(1,1)">

<path d="M52 313 c-1 -78 1 -144 6 -146 4 -3 6 38 4 91 -5 179 -8 198 -10 55z" transform="translate(0,100) scale(0.1,-0.1)" stroke="none" fill="#082223"/>

<path d="M313 423 c-42 -8 -120 -91 -158 -166 -20 -40 -44 -75 -53 -79 -15 -6 -15 -7 1 -7 10 -1 16 -4 14 -8 -3 -5 -12 -32 -21 -62 l-16 -54 203 6 c111 4 221 7 245 7 l42 0 -1 78 c0 42 -6 95 -13 117 l-13 40 56 60 56 60 -55 -53 -56 -52 -32 45 c-46 65 -107 86 -199 68z" transform="translate(0,100) scale(0.1,-0.1)" stroke="none" fill="#082223"/>

<path d="M535 939 c-22 -5 -57 -23 -77 -40 -23 -18 -58 -33 -90 -39 -62 -12 -89 -35 -117 -100 -24 -56 -27 -58 -100 -85 -95 -35 -97 -41 -93 -288 2 -117 5 -213 7 -215 1 -2 14 0 28 3 18 5 31 20 46 55 11 26 36 68 55 93 30 39 34 50 29 85 -17 128 79 224 192 193 22 -6 39 -9 40 -8 0 1 6 14 12 29 7 14 39 45 72 68 70 47 89 81 98 178 8 84 -5 93 -102 71z" transform="translate(0,100) scale(0.1,-0.1)" stroke="none" fill="#7296A7"/>

<path d="M805 794 c-37 -19 -107 -86 -141 -136 -14 -20 -43 -48 -64 -63 -44 -31 -88 -31 -173 0 -41 15 -54 16 -91 5 -73 -20 -116 -80 -116 -160 0 -66 7 -73 45 -44 44 33 125 43 177 21 23 -10 50 -34 70 -61 l32 -46 56 54 c63 61 87 74 185 106 174 56 225 106 225 218 0 54 -18 85 -60 107 -38 19 -107 19 -145 -1z" transform="translate(0,100) scale(0.1,-0.1)" stroke="none" fill="#2A5666"/>

</g>

</g>
<g id="row1" transform="translate(14,100.0)">
<g id="0" transform="translate(0.0,0)scale(1,1)">

<path d="M52 313 c-1 -78 1 -144 6 -146 4 -3 6 38 4 91 -5 179 -8 198 -10 55z" transform="translate(0,100) scale(0.1,-0.1)" stroke="none" fill="#082223"/>

<path d="M313 423 c-42 -8 -120 -91 -158 -166 -20 -40 -44 -75 -53 -79 -15 -6 -15 -7 1 -7 10 -1 16 -4 14 -8 -3 -5 -12 -32 -21 -62 l-16 -54 203 6 c111 4 221 7 245 7 l42 0 -1 78 c0 42 -6 95 -13 117 l-13 40 56 60 56 60 -55 -53 -56 -52 -32 45 c-46 65 -107 86 -199 68z" transform="translate(0,100) scale(0.1,-0.1)" stroke="none" fill="#082223"/>

<path d="M535 939 c-22 -5 -57 -23 -77 -40 -23 -18 -58 -33 -90 -39 -62 -12 -89 -35 -117 -100 -24 -56 -27 -58 -100 -85 -95 -35 -97 -41 -93 -288 2 -117 5 -213 7 -215 1 -2 14 0 28 3 18 5 31 20 46 55 11 26 36 68 55 93 30 39 34 50 29 85 -17 128 79 224 192 193 22 -6 39 -9 40 -8 0 1 6 14 12 29 7 14 39 45 72 68 70 47 89 81 98 178 8 84 -5 93 -102 71z" transform="translate(0,100) scale(0.1,-0.1)" stroke="none" fill="#7296A7"/>

<path d="M805 794 c-37 -19 -107 -86 -141 -136 -14 -20 -43 -48 -64 -63 -44 -31 -88 -31 -173 0 -41 15 -54 16 -91 5 -73 -20 -116 -80 -116 -160 0 -66 7 -73 45 -44 44 33 125 43 177 21 23 -10 50 -34 70 -61 l32 -46 56 54 c63 61 87 74 185 106 174 56 225 106 225 218 0 54 -18 85 -60 107 -38 19 -107 19 -145 -1z" transform="translate(0,100) scale(0.1,-0.1)" stroke="none" fill="#2A5666"/>

</g>

<g id="1" transform="translate(107.0,0)scale(1,1)">

<path d="M52 313 c-1 -78 1 -144 6 -146 4 -3 6 38 4 91 -5 179 -8 198 -10 55z" transform="translate(0,100) scale(0.1,-0.1)" stroke="none" fill="#082223"/>

<path d="M313 423 c-42 -8 -120 -91 -158 -166 -20 -40 -44 -75 -53 -79 -15 -6 -15 -7 1 -7 10 -1 16 -4 14 -8 -3 -5 -12 -32 -21 -62 l-16 -54 203 6 c111 4 221 7 245 7 l42 0 -1 78 c0 42 -6 95 -13 117 l-13 40 56 60 56 60 -55 -53 -56 -52 -32 45 c-46 65 -107 86 -199 68z" transform="translate(0,100) scale(0.1,-0.1)" stroke="none" fill="#082223"/>

<path d="M535 939 c-22 -5 -57 -23 -77 -40 -23 -18 -58 -33 -90 -39 -62 -12 -89 -35 -117 -100 -24 -56 -27 -58 -100 -85 -95 -35 -97 -41 -93 -288 2 -117 5 -213 7 -215 1 -2 14 0 28 3 18 5 31 20 46 55 11 26 36 68 55 93 30 39 34 50 29 85 -17 128 79 224 192 193 22 -6 39 -9 40 -8 0 1 6 14 12 29 7 14 39 45 72 68 70 47 89 81 98 178 8 84 -5 93 -102 71z" transform="translate(0,100) scale(0.1,-0.1)" stroke="none" fill="#7296A7"/>

<path d="M805 794 c-37 -19 -107 -86 -141 -136 -14 -20 -43 -48 -64 -63 -44 -31 -88 -31 -173 0 -41 15 -54 16 -91 5 -73 -20 -116 -80 -116 -160 0 -66 7 -73 45 -44 44 33 125 43 177 21 23 -10 50 -34 70 -61 l32 -46 56 54 c63 61 87 74 185 106 174 56 225 106 225 218 0 54 -18 85 -60 107 -38 19 -107 19 -145 -1z" transform="translate(0,100) scale(0.1,-0.1)" stroke="none" fill="#2A5666"/>

</g>

<g id="2" transform="translate(214.0,0)scale(1,1)">

<path d="M52 313 c-1 -78 1 -144 6 -146 4 -3 6 38 4 91 -5 179 -8 198 -10 55z" transform="translate(0,100) scale(0.1,-0.1)" stroke="none" fill="#082223"/>

<path d="M313 423 c-42 -8 -120 -91 -158 -166 -20 -40 -44 -75 -53 -79 -15 -6 -15 -7 1 -7 10 -1 16 -4 14 -8 -3 -5 -12 -32 -21 -62 l-16 -54 203 6 c111 4 221 7 245 7 l42 0 -1 78 c0 42 -6 95 -13 117 l-13 40 56 60 56 60 -55 -53 -56 -52 -32 45 c-46 65 -107 86 -199 68z" transform="translate(0,100) scale(0.1,-0.1)" stroke="none" fill="#082223"/>

<path d="M535 939 c-22 -5 -57 -23 -77 -40 -23 -18 -58 -33 -90 -39 -62 -12 -89 -35 -117 -100 -24 -56 -27 -58 -100 -85 -95 -35 -97 -41 -93 -288 2 -117 5 -213 7 -215 1 -2 14 0 28 3 18 5 31 20 46 55 11 26 36 68 55 93 30 39 34 50 29 85 -17 128 79 224 192 193 22 -6 39 -9 40 -8 0 1 6 14 12 29 7 14 39 45 72 68 70 47 89 81 98 178 8 84 -5 93 -102 71z" transform="translate(0,100) scale(0.1,-0.1)" stroke="none" fill="#7296A7"/>

<path d="M805 794 c-37 -19 -107 -86 -141 -136 -14 -20 -43 -48 -64 -63 -44 -31 -88 -31 -173 0 -41 15 -54 16 -91 5 -73 -20 -116 -80 -116 -160 0 -66 7 -73 45 -44 44 33 125 43 177 21 23 -10 50 -34 70 -61 l32 -46 56 54 c63 61 87 74 185 106 174 56 225 106 225 218 0 54 -18 85 -60 107 -38 19 -107 19 -145 -1z" transform="translate(0,100) scale(0.1,-0.1)" stroke="none" fill="#2A5666"/>

</g>

<g id="3" transform="translate(321.0,0)scale(1,1)">

<path d="M52 313 c-1 -78 1 -144 6 -146 4 -3 6 38 4 91 -5 179 -8 198 -10 55z" transform="translate(0,100) scale(0.1,-0.1)" stroke="none" fill="#082223"/>

<path d="M313 423 c-42 -8 -120 -91 -158 -166 -20 -40 -44 -75 -53 -79 -15 -6 -15 -7 1 -7 10 -1 16 -4 14 -8 -3 -5 -12 -32 -21 -62 l-16 -54 203 6 c111 4 221 7 245 7 l42 0 -1 78 c0 42 -6 95 -13 117 l-13 40 56 60 56 60 -55 -53 -56 -52 -32 45 c-46 65 -107 86 -199 68z" transform="translate(0,100) scale(0.1,-0.1)" stroke="none" fill="#082223"/>

<path d="M535 939 c-22 -5 -57 -23 -77 -40 -23 -18 -58 -33 -90 -39 -62 -12 -89 -35 -117 -100 -24 -56 -27 -58 -100 -85 -95 -35 -97 -41 -93 -288 2 -117 5 -213 7 -215 1 -2 14 0 28 3 18 5 31 20 46 55 11 26 36 68 55 93 30 39 34 50 29 85 -17 128 79 224 192 193 22 -6 39 -9 40 -8 0 1 6 14 12 29 7 14 39 45 72 68 70 47 89 81 98 178 8 84 -5 93 -102 71z" transform="translate(0,100) scale(0.1,-0.1)" stroke="none" fill="#7296A7"/>

<path d="M805 794 c-37 -19 -107 -86 -141 -136 -14 -20 -43 -48 -64 -63 -44 -31 -88 -31 -173 0 -41 15 -54 16 -91 5 -73 -20 -116 -80 -116 -160 0 -66 7 -73 45 -44 44 33 125 43 177 21 23 -10 50 -34 70 -61 l32 -46 56 54 c63 61 87 74 185 106 174 56 225 106 225 218 0 54 -18 85 -60 107 -38 19 -107 19 -145 -1z" transform="translate(0,100) scale(0.1,-0.1)" stroke="none" fill="#2A5666"/>

</g>

<g id="4" transform="translate(428.0,0)scale(1,1)">

<path d="M52 313 c-1 -78 1 -144 6 -146 4 -3 6 38 4 91 -5 179 -8 198 -10 55z" transform="translate(0,100) scale(0.1,-0.1)" stroke="none" fill="#082223"/>

<path d="M313 423 c-42 -8 -120 -91 -158 -166 -20 -40 -44 -75 -53 -79 -15 -6 -15 -7 1 -7 10 -1 16 -4 14 -8 -3 -5 -12 -32 -21 -62 l-16 -54 203 6 c111 4 221 7 245 7 l42 0 -1 78 c0 42 -6 95 -13 117 l-13 40 56 60 56 60 -55 -53 -56 -52 -32 45 c-46 65 -107 86 -199 68z" transform="translate(0,100) scale(0.1,-0.1)" stroke="none" fill="#082223"/>

<path d="M535 939 c-22 -5 -57 -23 -77 -40 -23 -18 -58 -33 -90 -39 -62 -12 -89 -35 -117 -100 -24 -56 -27 -58 -100 -85 -95 -35 -97 -41 -93 -288 2 -117 5 -213 7 -215 1 -2 14 0 28 3 18 5 31 20 46 55 11 26 36 68 55 93 30 39 34 50 29 85 -17 128 79 224 192 193 22 -6 39 -9 40 -8 0 1 6 14 12 29 7 14 39 45 72 68 70 47 89 81 98 178 8 84 -5 93 -102 71z" transform="translate(0,100) scale(0.1,-0.1)" stroke="none" fill="#7296A7"/>

<path d="M805 794 c-37 -19 -107 -86 -141 -136 -14 -20 -43 -48 -64 -63 -44 -31 -88 -31 -173 0 -41 15 -54 16 -91 5 -73 -20 -116 -80 -116 -160 0 -66 7 -73 45 -44 44 33 125 43 177 21 23 -10 50 -34 70 -61 l32 -46 56 54 c63 61 87 74 185 106 174 56 225 106 225 218 0 54 -18 85 -60 107 -38 19 -107 19 -145 -1z" transform="translate(0,100) scale(0.1,-0.1)" stroke="none" fill="#2A5666"/>

</g>

</g>
<g id="row2" transform="translate(14,200.0)">
<g id="0" transform="translate(0.0,0)scale(1,1)">

<path d="M52 313 c-1 -78 1 -144 6 -146 4 -3 6 38 4 91 -5 179 -8 198 -10 55z" transform="translate(0,100) scale(0.1,-0.1)" stroke="none" fill="#082223"/>

<path d="M313 423 c-42 -8 -120 -91 -158 -166 -20 -40 -44 -75 -53 -79 -15 -6 -15 -7 1 -7 10 -1 16 -4 14 -8 -3 -5 -12 -32 -21 -62 l-16 -54 203 6 c111 4 221 7 245 7 l42 0 -1 78 c0 42 -6 95 -13 117 l-13 40 56 60 56 60 -55 -53 -56 -52 -32 45 c-46 65 -107 86 -199 68z" transform="translate(0,100) scale(0.1,-0.1)" stroke="none" fill="#082223"/>

<path d="M535 939 c-22 -5 -57 -23 -77 -40 -23 -18 -58 -33 -90 -39 -62 -12 -89 -35 -117 -100 -24 -56 -27 -58 -100 -85 -95 -35 -97 -41 -93 -288 2 -117 5 -213 7 -215 1 -2 14 0 28 3 18 5 31 20 46 55 11 26 36 68 55 93 30 39 34 50 29 85 -17 128 79 224 192 193 22 -6 39 -9 40 -8 0 1 6 14 12 29 7 14 39 45 72 68 70 47 89 81 98 178 8 84 -5 93 -102 71z" transform="translate(0,100) scale(0.1,-0.1)" stroke="none" fill="#7296A7"/>

<path d="M805 794 c-37 -19 -107 -86 -141 -136 -14 -20 -43 -48 -64 -63 -44 -31 -88 -31 -173 0 -41 15 -54 16 -91 5 -73 -20 -116 -80 -116 -160 0 -66 7 -73 45 -44 44 33 125 43 177 21 23 -10 50 -34 70 -61 l32 -46 56 54 c63 61 87 74 185 106 174 56 225 106 225 218 0 54 -18 85 -60 107 -38 19 -107 19 -145 -1z" transform="translate(0,100) scale(0.1,-0.1)" stroke="none" fill="#2A5666"/>

</g>

<g id="1" transform="translate(107.0,0)scale(1,1)">

<path d="M52 313 c-1 -78 1 -144 6 -146 4 -3 6 38 4 91 -5 179 -8 198 -10 55z" transform="translate(0,100) scale(0.1,-0.1)" stroke="none" fill="#082223"/>

<path d="M313 423 c-42 -8 -120 -91 -158 -166 -20 -40 -44 -75 -53 -79 -15 -6 -15 -7 1 -7 10 -1 16 -4 14 -8 -3 -5 -12 -32 -21 -62 l-16 -54 203 6 c111 4 221 7 245 7 l42 0 -1 78 c0 42 -6 95 -13 117 l-13 40 56 60 56 60 -55 -53 -56 -52 -32 45 c-46 65 -107 86 -199 68z" transform="translate(0,100) scale(0.1,-0.1)" stroke="none" fill="#082223"/>

<path d="M535 939 c-22 -5 -57 -23 -77 -40 -23 -18 -58 -33 -90 -39 -62 -12 -89 -35 -117 -100 -24 -56 -27 -58 -100 -85 -95 -35 -97 -41 -93 -288 2 -117 5 -213 7 -215 1 -2 14 0 28 3 18 5 31 20 46 55 11 26 36 68 55 93 30 39 34 50 29 85 -17 128 79 224 192 193 22 -6 39 -9 40 -8 0 1 6 14 12 29 7 14 39 45 72 68 70 47 89 81 98 178 8 84 -5 93 -102 71z" transform="translate(0,100) scale(0.1,-0.1)" stroke="none" fill="#7296A7"/>

<path d="M805 794 c-37 -19 -107 -86 -141 -136 -14 -20 -43 -48 -64 -63 -44 -31 -88 -31 -173 0 -41 15 -54 16 -91 5 -73 -20 -116 -80 -116 -160 0 -66 7 -73 45 -44 44 33 125 43 177 21 23 -10 50 -34 70 -61 l32 -46 56 54 c63 61 87 74 185 106 174 56 225 106 225 218 0 54 -18 85 -60 107 -38 19 -107 19 -145 -1z" transform="translate(0,100) scale(0.1,-0.1)" stroke="none" fill="#2A5666"/>

</g>

<g id="2" transform="translate(214.0,0)scale(1,1)">

<path d="M52 313 c-1 -78 1 -144 6 -146 4 -3 6 38 4 91 -5 179 -8 198 -10 55z" transform="translate(0,100) scale(0.1,-0.1)" stroke="none" fill="#082223"/>

<path d="M313 423 c-42 -8 -120 -91 -158 -166 -20 -40 -44 -75 -53 -79 -15 -6 -15 -7 1 -7 10 -1 16 -4 14 -8 -3 -5 -12 -32 -21 -62 l-16 -54 203 6 c111 4 221 7 245 7 l42 0 -1 78 c0 42 -6 95 -13 117 l-13 40 56 60 56 60 -55 -53 -56 -52 -32 45 c-46 65 -107 86 -199 68z" transform="translate(0,100) scale(0.1,-0.1)" stroke="none" fill="#082223"/>

<path d="M535 939 c-22 -5 -57 -23 -77 -40 -23 -18 -58 -33 -90 -39 -62 -12 -89 -35 -117 -100 -24 -56 -27 -58 -100 -85 -95 -35 -97 -41 -93 -288 2 -117 5 -213 7 -215 1 -2 14 0 28 3 18 5 31 20 46 55 11 26 36 68 55 93 30 39 34 50 29 85 -17 128 79 224 192 193 22 -6 39 -9 40 -8 0 1 6 14 12 29 7 14 39 45 72 68 70 47 89 81 98 178 8 84 -5 93 -102 71z" transform="translate(0,100) scale(0.1,-0.1)" stroke="none" fill="#7296A7"/>

<path d="M805 794 c-37 -19 -107 -86 -141 -136 -14 -20 -43 -48 -64 -63 -44 -31 -88 -31 -173 0 -41 15 -54 16 -91 5 -73 -20 -116 -80 -116 -160 0 -66 7 -73 45 -44 44 33 125 43 177 21 23 -10 50 -34 70 -61 l32 -46 56 54 c63 61 87 74 185 106 174 56 225 106 225 218 0 54 -18 85 -60 107 -38 19 -107 19 -145 -1z" transform="translate(0,100) scale(0.1,-0.1)" stroke="none" fill="#2A5666"/>

</g>

<g id="3" transform="translate(321.0,0)scale(1,1)">

<path d="M52 313 c-1 -78 1 -144 6 -146 4 -3 6 38 4 91 -5 179 -8 198 -10 55z" transform="translate(0,100) scale(0.1,-0.1)" stroke="none" fill="#082223"/>

<path d="M313 423 c-42 -8 -120 -91 -158 -166 -20 -40 -44 -75 -53 -79 -15 -6 -15 -7 1 -7 10 -1 16 -4 14 -8 -3 -5 -12 -32 -21 -62 l-16 -54 203 6 c111 4 221 7 245 7 l42 0 -1 78 c0 42 -6 95 -13 117 l-13 40 56 60 56 60 -55 -53 -56 -52 -32 45 c-46 65 -107 86 -199 68z" transform="translate(0,100) scale(0.1,-0.1)" stroke="none" fill="#082223"/>

<path d="M535 939 c-22 -5 -57 -23 -77 -40 -23 -18 -58 -33 -90 -39 -62 -12 -89 -35 -117 -100 -24 -56 -27 -58 -100 -85 -95 -35 -97 -41 -93 -288 2 -117 5 -213 7 -215 1 -2 14 0 28 3 18 5 31 20 46 55 11 26 36 68 55 93 30 39 34 50 29 85 -17 128 79 224 192 193 22 -6 39 -9 40 -8 0 1 6 14 12 29 7 14 39 45 72 68 70 47 89 81 98 178 8 84 -5 93 -102 71z" transform="translate(0,100) scale(0.1,-0.1)" stroke="none" fill="#7296A7"/>

<path d="M805 794 c-37 -19 -107 -86 -141 -136 -14 -20 -43 -48 -64 -63 -44 -31 -88 -31 -173 0 -41 15 -54 16 -91 5 -73 -20 -116 -80 -116 -160 0 -66 7 -73 45 -44 44 33 125 43 177 21 23 -10 50 -34 70 -61 l32 -46 56 54 c63 61 87 74 185 106 174 56 225 106 225 218 0 54 -18 85 -60 107 -38 19 -107 19 -145 -1z" transform="translate(0,100) scale(0.1,-0.1)" stroke="none" fill="#2A5666"/>

</g>

<g id="4" transform="translate(428.0,0)scale(1,1)">

<path d="M52 313 c-1 -78 1 -144 6 -146 4 -3 6 38 4 91 -5 179 -8 198 -10 55z" transform="translate(0,100) scale(0.1,-0.1)" stroke="none" fill="#082223"/>

<path d="M313 423 c-42 -8 -120 -91 -158 -166 -20 -40 -44 -75 -53 -79 -15 -6 -15 -7 1 -7 10 -1 16 -4 14 -8 -3 -5 -12 -32 -21 -62 l-16 -54 203 6 c111 4 221 7 245 7 l42 0 -1 78 c0 42 -6 95 -13 117 l-13 40 56 60 56 60 -55 -53 -56 -52 -32 45 c-46 65 -107 86 -199 68z" transform="translate(0,100) scale(0.1,-0.1)" stroke="none" fill="#082223"/>

<path d="M535 939 c-22 -5 -57 -23 -77 -40 -23 -18 -58 -33 -90 -39 -62 -12 -89 -35 -117 -100 -24 -56 -27 -58 -100 -85 -95 -35 -97 -41 -93 -288 2 -117 5 -213 7 -215 1 -2 14 0 28 3 18 5 31 20 46 55 11 26 36 68 55 93 30 39 34 50 29 85 -17 128 79 224 192 193 22 -6 39 -9 40 -8 0 1 6 14 12 29 7 14 39 45 72 68 70 47 89 81 98 178 8 84 -5 93 -102 71z" transform="translate(0,100) scale(0.1,-0.1)" stroke="none" fill="#7296A7"/>

<path d="M805 794 c-37 -19 -107 -86 -141 -136 -14 -20 -43 -48 -64 -63 -44 -31 -88 -31 -173 0 -41 15 -54 16 -91 5 -73 -20 -116 -80 -116 -160 0 -66 7 -73 45 -44 44 33 125 43 177 21 23 -10 50 -34 70 -61 l32 -46 56 54 c63 61 87 74 185 106 174 56 225 106 225 218 0 54 -18 85 -60 107 -38 19 -107 19 -145 -1z" transform="translate(0,100) scale(0.1,-0.1)" stroke="none" fill="#2A5666"/>

</g>

</g>
<g id="row3" transform="translate(14,300.0)">
<g id="0" transform="translate(0.0,0)scale(1,1)">

<path d="M52 313 c-1 -78 1 -144 6 -146 4 -3 6 38 4 91 -5 179 -8 198 -10 55z" transform="translate(0,100) scale(0.1,-0.1)" stroke="none" fill="#082223"/>

<path d="M313 423 c-42 -8 -120 -91 -158 -166 -20 -40 -44 -75 -53 -79 -15 -6 -15 -7 1 -7 10 -1 16 -4 14 -8 -3 -5 -12 -32 -21 -62 l-16 -54 203 6 c111 4 221 7 245 7 l42 0 -1 78 c0 42 -6 95 -13 117 l-13 40 56 60 56 60 -55 -53 -56 -52 -32 45 c-46 65 -107 86 -199 68z" transform="translate(0,100) scale(0.1,-0.1)" stroke="none" fill="#082223"/>

<path d="M535 939 c-22 -5 -57 -23 -77 -40 -23 -18 -58 -33 -90 -39 -62 -12 -89 -35 -117 -100 -24 -56 -27 -58 -100 -85 -95 -35 -97 -41 -93 -288 2 -117 5 -213 7 -215 1 -2 14 0 28 3 18 5 31 20 46 55 11 26 36 68 55 93 30 39 34 50 29 85 -17 128 79 224 192 193 22 -6 39 -9 40 -8 0 1 6 14 12 29 7 14 39 45 72 68 70 47 89 81 98 178 8 84 -5 93 -102 71z" transform="translate(0,100) scale(0.1,-0.1)" stroke="none" fill="#7296A7"/>

<path d="M805 794 c-37 -19 -107 -86 -141 -136 -14 -20 -43 -48 -64 -63 -44 -31 -88 -31 -173 0 -41 15 -54 16 -91 5 -73 -20 -116 -80 -116 -160 0 -66 7 -73 45 -44 44 33 125 43 177 21 23 -10 50 -34 70 -61 l32 -46 56 54 c63 61 87 74 185 106 174 56 225 106 225 218 0 54 -18 85 -60 107 -38 19 -107 19 -145 -1z" transform="translate(0,100) scale(0.1,-0.1)" stroke="none" fill="#2A5666"/>

</g>

<g id="1" transform="translate(107.0,0)scale(1,1)">

<path d="M52 313 c-1 -78 1 -144 6 -146 4 -3 6 38 4 91 -5 179 -8 198 -10 55z" transform="translate(0,100) scale(0.1,-0.1)" stroke="none" fill="#082223"/>

<path d="M313 423 c-42 -8 -120 -91 -158 -166 -20 -40 -44 -75 -53 -79 -15 -6 -15 -7 1 -7 10 -1 16 -4 14 -8 -3 -5 -12 -32 -21 -62 l-16 -54 203 6 c111 4 221 7 245 7 l42 0 -1 78 c0 42 -6 95 -13 117 l-13 40 56 60 56 60 -55 -53 -56 -52 -32 45 c-46 65 -107 86 -199 68z" transform="translate(0,100) scale(0.1,-0.1)" stroke="none" fill="#082223"/>

<path d="M535 939 c-22 -5 -57 -23 -77 -40 -23 -18 -58 -33 -90 -39 -62 -12 -89 -35 -117 -100 -24 -56 -27 -58 -100 -85 -95 -35 -97 -41 -93 -288 2 -117 5 -213 7 -215 1 -2 14 0 28 3 18 5 31 20 46 55 11 26 36 68 55 93 30 39 34 50 29 85 -17 128 79 224 192 193 22 -6 39 -9 40 -8 0 1 6 14 12 29 7 14 39 45 72 68 70 47 89 81 98 178 8 84 -5 93 -102 71z" transform="translate(0,100) scale(0.1,-0.1)" stroke="none" fill="#7296A7"/>

<path d="M805 794 c-37 -19 -107 -86 -141 -136 -14 -20 -43 -48 -64 -63 -44 -31 -88 -31 -173 0 -41 15 -54 16 -91 5 -73 -20 -116 -80 -116 -160 0 -66 7 -73 45 -44 44 33 125 43 177 21 23 -10 50 -34 70 -61 l32 -46 56 54 c63 61 87 74 185 106 174 56 225 106 225 218 0 54 -18 85 -60 107 -38 19 -107 19 -145 -1z" transform="translate(0,100) scale(0.1,-0.1)" stroke="none" fill="#2A5666"/>

</g>

<g id="2" transform="translate(214.0,0)scale(1,1)">

<path d="M52 313 c-1 -78 1 -144 6 -146 4 -3 6 38 4 91 -5 179 -8 198 -10 55z" transform="translate(0,100) scale(0.1,-0.1)" stroke="none" fill="#082223"/>

<path d="M313 423 c-42 -8 -120 -91 -158 -166 -20 -40 -44 -75 -53 -79 -15 -6 -15 -7 1 -7 10 -1 16 -4 14 -8 -3 -5 -12 -32 -21 -62 l-16 -54 203 6 c111 4 221 7 245 7 l42 0 -1 78 c0 42 -6 95 -13 117 l-13 40 56 60 56 60 -55 -53 -56 -52 -32 45 c-46 65 -107 86 -199 68z" transform="translate(0,100) scale(0.1,-0.1)" stroke="none" fill="#082223"/>

<path d="M535 939 c-22 -5 -57 -23 -77 -40 -23 -18 -58 -33 -90 -39 -62 -12 -89 -35 -117 -100 -24 -56 -27 -58 -100 -85 -95 -35 -97 -41 -93 -288 2 -117 5 -213 7 -215 1 -2 14 0 28 3 18 5 31 20 46 55 11 26 36 68 55 93 30 39 34 50 29 85 -17 128 79 224 192 193 22 -6 39 -9 40 -8 0 1 6 14 12 29 7 14 39 45 72 68 70 47 89 81 98 178 8 84 -5 93 -102 71z" transform="translate(0,100) scale(0.1,-0.1)" stroke="none" fill="#7296A7"/>

<path d="M805 794 c-37 -19 -107 -86 -141 -136 -14 -20 -43 -48 -64 -63 -44 -31 -88 -31 -173 0 -41 15 -54 16 -91 5 -73 -20 -116 -80 -116 -160 0 -66 7 -73 45 -44 44 33 125 43 177 21 23 -10 50 -34 70 -61 l32 -46 56 54 c63 61 87 74 185 106 174 56 225 106 225 218 0 54 -18 85 -60 107 -38 19 -107 19 -145 -1z" transform="translate(0,100) scale(0.1,-0.1)" stroke="none" fill="#2A5666"/>

</g>

<g id="3" transform="translate(321.0,0)scale(1,1)">

<path d="M52 313 c-1 -78 1 -144 6 -146 4 -3 6 38 4 91 -5 179 -8 198 -10 55z" transform="translate(0,100) scale(0.1,-0.1)" stroke="none" fill="#082223"/>

<path d="M313 423 c-42 -8 -120 -91 -158 -166 -20 -40 -44 -75 -53 -79 -15 -6 -15 -7 1 -7 10 -1 16 -4 14 -8 -3 -5 -12 -32 -21 -62 l-16 -54 203 6 c111 4 221 7 245 7 l42 0 -1 78 c0 42 -6 95 -13 117 l-13 40 56 60 56 60 -55 -53 -56 -52 -32 45 c-46 65 -107 86 -199 68z" transform="translate(0,100) scale(0.1,-0.1)" stroke="none" fill="#082223"/>

<path d="M535 939 c-22 -5 -57 -23 -77 -40 -23 -18 -58 -33 -90 -39 -62 -12 -89 -35 -117 -100 -24 -56 -27 -58 -100 -85 -95 -35 -97 -41 -93 -288 2 -117 5 -213 7 -215 1 -2 14 0 28 3 18 5 31 20 46 55 11 26 36 68 55 93 30 39 34 50 29 85 -17 128 79 224 192 193 22 -6 39 -9 40 -8 0 1 6 14 12 29 7 14 39 45 72 68 70 47 89 81 98 178 8 84 -5 93 -102 71z" transform="translate(0,100) scale(0.1,-0.1)" stroke="none" fill="#7296A7"/>

<path d="M805 794 c-37 -19 -107 -86 -141 -136 -14 -20 -43 -48 -64 -63 -44 -31 -88 -31 -173 0 -41 15 -54 16 -91 5 -73 -20 -116 -80 -116 -160 0 -66 7 -73 45 -44 44 33 125 43 177 21 23 -10 50 -34 70 -61 l32 -46 56 54 c63 61 87 74 185 106 174 56 225 106 225 218 0 54 -18 85 -60 107 -38 19 -107 19 -145 -1z" transform="translate(0,100) scale(0.1,-0.1)" stroke="none" fill="#2A5666"/>

</g>

<g id="4" transform="translate(428.0,0)scale(1,1)">

<path d="M52 313 c-1 -78 1 -144 6 -146 4 -3 6 38 4 91 -5 179 -8 198 -10 55z" transform="translate(0,100) scale(0.1,-0.1)" stroke="none" fill="#082223"/>

<path d="M313 423 c-42 -8 -120 -91 -158 -166 -20 -40 -44 -75 -53 -79 -15 -6 -15 -7 1 -7 10 -1 16 -4 14 -8 -3 -5 -12 -32 -21 -62 l-16 -54 203 6 c111 4 221 7 245 7 l42 0 -1 78 c0 42 -6 95 -13 117 l-13 40 56 60 56 60 -55 -53 -56 -52 -32 45 c-46 65 -107 86 -199 68z" transform="translate(0,100) scale(0.1,-0.1)" stroke="none" fill="#082223"/>

<path d="M535 939 c-22 -5 -57 -23 -77 -40 -23 -18 -58 -33 -90 -39 -62 -12 -89 -35 -117 -100 -24 -56 -27 -58 -100 -85 -95 -35 -97 -41 -93 -288 2 -117 5 -213 7 -215 1 -2 14 0 28 3 18 5 31 20 46 55 11 26 36 68 55 93 30 39 34 50 29 85 -17 128 79 224 192 193 22 -6 39 -9 40 -8 0 1 6 14 12 29 7 14 39 45 72 68 70 47 89 81 98 178 8 84 -5 93 -102 71z" transform="translate(0,100) scale(0.1,-0.1)" stroke="none" fill="#7296A7"/>

<path d="M805 794 c-37 -19 -107 -86 -141 -136 -14 -20 -43 -48 -64 -63 -44 -31 -88 -31 -173 0 -41 15 -54 16 -91 5 -73 -20 -116 -80 -116 -160 0 -66 7 -73 45 -44 44 33 125 43 177 21 23 -10 50 -34 70 -61 l32 -46 56 54 c63 61 87 74 185 106 174 56 225 106 225 218 0 54 -18 85 -60 107 -38 19 -107 19 -145 -1z" transform="translate(0,100) scale(0.1,-0.1)" stroke="none" fill="#2A5666"/>

</g>

</g>
</svg>