<?xml version="1.0" standalone="no"?>
<!DOCTYPE svg PUBLIC "-//W3C//DTD SVG 20010904//EN"
 "http://www.w3.org/TR/2001/REC-SVG-20010904/DTD/svg10.dtd">
<svg version="1.0" xmlns="http://www.w3.org/2000/svg" width="264pt" height="256pt" viewBox="0 0 264 256" preserveAspectRatio = "xMidYMid meet" >
<metadata>
Created by ZoeQu, written in 2022
</metadata>
<rect width="264" height="256" fill="#A4D7DC"/>
<g id="row0" transform="translate(8,0.0)">
<g id="0" transform="translate(0.0,0)scale(1,1)">

<path d="M576 321 c-10 -16 5 -42 23 -39 21 4 21 42 -1 46 -9 2 -19 -1 -22 -7z" transform="translate(0,64) scale(0.1,-0.1)" stroke="none" fill="#EA9D28"/>

<path d="M390 59 c-19 -4 -62 -6 -95 -3 -42 3 -54 2 -40 -5 26 -12 146 -13 165 -1 22 14 9 18 -30 9z" transform="translate(0,64) scale(0.1,-0.1)" stroke="none" fill="#43682B"/>

<path d="M50 230 c0 -6 51 -10 140 -10 78 0 140 4 140 9 0 5 -63 10 -140 10 -90 1 -140 -2 -140 -9z" transform="translate(0,64) scale(0.1,-0.1)" stroke="none" fill="#EA9D28"/>

<path d="M160 110 c0 -6 57 -10 150 -10 93 0 150 4 150 10 0 6 -57 10 -150 10 -93 0 -150 -4 -150 -10z" transform="translate(0,64) scale(0.1,-0.1)" stroke="none" fill="#EA9D28"/>

<path d="M186 70 c5 -5 59 -10 119 -10 141 -1 144 -1 150 11 4 5 -50 9 -136 9 -95 0 -140 -3 -133 -10z" transform="translate(0,64) scale(0.1,-0.1)" stroke="none" fill="#EA9D28"/>

<path d="M432 225 l-27 -45 -122 0 c-75 0 -123 -4 -123 -10 0 -15 293 -13 308 2 15 15 16 98 2 98 -6 0 -23 -20 -38 -45z" transform="translate(0,64) scale(0.1,-0.1)" stroke="none" fill="#EA9D28"/>

<path d="M40 330 c0 -6 35 -10 85 -10 78 0 85 -2 85 -20 0 -18 -7 -20 -86 -20 -54 0 -83 -4 -79 -10 4 -6 63 -10 146 -10 86 0 139 4 139 10 0 6 -15 10 -34 10 -22 0 -36 6 -40 16 -9 24 -9 24 29 24 19 0 35 5 35 10 0 6 -53 10 -140 10 -87 0 -140 -4 -140 -10z" transform="translate(0,64) scale(0.1,-0.1)" stroke="none" fill="#EA9D28"/>

<path d="M210 591 c-73 -20 -82 -31 -139 -164 -33 -75 -47 -162 -29 -173 5 -3 6 -10 3 -15 -4 -5 0 -17 7 -28 16 -23 145 -160 134 -144 -6 10 24 13 134 13 92 0 139 -4 135 -10 -14 -22 11 -8 63 37 73 62 133 189 83 176 -11 -3 -21 2 -25 12 -13 35 24 49 44 18 9 -14 10 -9 5 25 -12 90 -89 202 -165 242 -54 27 -171 33 -250 11z m110 -261 c0 -5 -16 -10 -35 -10 -38 0 -38 0 -29 -24 4 -10 18 -16 40 -16 19 0 34 -4 34 -10 0 -13 -277 -13 -285 0 -4 6 25 10 79 10 79 0 86 2 86 20 0 18 -7 20 -85 20 -50 0 -85 4 -85 10 0 6 53 10 140 10 87 0 140 -4 140 -10z m160 -103 c0 -24 -5 -48 -12 -55 -15 -15 -308 -17 -308 -2 0 6 48 10 123 10 l122 0 27 45 c15 25 32 45 38 45 5 0 10 -19 10 -43z m-150 2 c0 -5 -62 -9 -140 -9 -89 0 -140 4 -140 10 0 7 50 10 140 9 77 0 140 -5 140 -10z m130 -119 c0 -6 -57 -10 -150 -10 -93 0 -150 4 -150 10 0 6 57 10 150 10 93 0 150 -4 150 -10z" transform="translate(0,64) scale(0.1,-0.1)" stroke="none" fill="#43682B"/>

</g>

<g id="1" transform="translate(66.0,0)scale(1,1)">

<path d="M576 321 c-10 -16 5 -42 23 -39 21 4 21 42 -1 46 -9 2 -19 -1 -22 -7z" transform="translate(0,64) scale(0.1,-0.1)" stroke="none" fill="#EA9D28"/>

<path d="M390 59 c-19 -4 -62 -6 -95 -3 -42 3 -54 2 -40 -5 26 -12 146 -13 165 -1 22 14 9 18 -30 9z" transform="translate(0,64) scale(0.1,-0.1)" stroke="none" fill="#43682B"/>

<path d="M50 230 c0 -6 51 -10 140 -10 78 0 140 4 140 9 0 5 -63 10 -140 10 -90 1 -140 -2 -140 -9z" transform="translate(0,64) scale(0.1,-0.1)" stroke="none" fill="#EA9D28"/>

<path d="M160 110 c0 -6 57 -10 150 -10 93 0 150 4 150 10 0 6 -57 10 -150 10 -93 0 -150 -4 -150 -10z" transform="translate(0,64) scale(0.1,-0.1)" stroke="none" fill="#EA9D28"/>

<path d="M186 70 c5 -5 59 -10 119 -10 141 -1 144 -1 150 11 4 5 -50 9 -136 9 -95 0 -140 -3 -133 -10z" transform="translate(0,64) scale(0.1,-0.1)" stroke="none" fill="#EA9D28"/>

<path d="M432 225 l-27 -45 -122 0 c-75 0 -123 -4 -123 -10 0 -15 293 -13 308 2 15 15 16 98 2 98 -6 0 -23 -20 -38 -45z" transform="translate(0,64) scale(0.1,-0.1)" stroke="none" fill="#EA9D28"/>

<path d="M40 330 c0 -6 35 -10 85 -10 78 0 85 -2 85 -20 0 -18 -7 -20 -86 -20 -54 0 -83 -4 -79 -10 4 -6 63 -10 146 -10 86 0 139 4 139 10 0 6 -15 10 -34 10 -22 0 -36 6 -40 16 -9 24 -9 24 29 24 19 0 35 5 35 10 0 6 -53 10 -140 10 -87 0 -140 -4 -140 -10z" transform="translate(0,64) scale(0.1,-0.1)" stroke="none" fill="#EA9D28"/>

<path d="M210 591 c-73 -20 -82 -31 -139 -164 -33 -75 -47 -162 -29 -173 5 -3 6 -10 3 -15 -4 -5 0 -17 7 -28 16 -23 145 -160 134 -144 -6 10 24 13 134 13 92 0 139 -4 135 -10 -14 -22 11 -8 63 37 73 62 133 189 83 176 -11 -3 -21 2 -25 12 -13 35 24 49 44 18 9 -14 10 -9 5 25 -12 90 -89 202 -165 242 -54 27 -171 33 -250 11z m110 -261 c0 -5 -16 -10 -35 -10 -38 0 -38 0 -29 -24 4 -10 18 -16 40 -16 19 0 34 -4 34 -10 0 -13 -277 -13 -285 0 -4 6 25 10 79 10 79 0 86 2 86 20 0 18 -7 20 -85 20 -50 0 -85 4 -85 10 0 6 53 10 140 10 87 0 140 -4 140 -10z m160 -103 c0 -24 -5 -48 -12 -55 -15 -15 -308 -17 -308 -2 0 6 48 10 123 10 l122 0 27 45 c15 25 32 45 38 45 5 0 10 -19 10 -43z m-150 2 c0 -5 -62 -9 -140 -9 -89 0 -140 4 -140 10 0 7 50 10 140 9 77 0 140 -5 140 -10z m130 -119 c0 -6 -57 -10 -150 -10 -93 0 -150 4 -150 10 0 6 57 10 150 10 93 0 150 -4 150 -10z" transform="translate(0,64) scale(0.1,-0.1)" stroke="none" fill="#43682B"/>

</g>

<g id="2" transform="translate(132.0,0)scale(1,1)">

<path d="M576 321 c-10 -16 5 -42 23 -39 21 4 21 42 -1 46 -9 2 -19 -1 -22 -7z" transform="translate(0,64) scale(0.1,-0.1)" stroke="none" fill="#EA9D28"/>

<path d="M390 59 c-19 -4 -62 -6 -95 -3 -42 3 -54 2 -40 -5 26 -12 146 -13 165 -1 22 14 9 18 -30 9z" transform="translate(0,64) scale(0.1,-0.1)" stroke="none" fill="#43682B"/>

<path d="M50 230 c0 -6 51 -10 140 -10 78 0 140 4 140 9 0 5 -63 10 -140 10 -90 1 -140 -2 -140 -9z" transform="translate(0,64) scale(0.1,-0.1)" stroke="none" fill="#EA9D28"/>

<path d="M160 110 c0 -6 57 -10 150 -10 93 0 150 4 150 10 0 6 -57 10 -150 10 -93 0 -150 -4 -150 -10z" transform="translate(0,64) scale(0.1,-0.1)" stroke="none" fill="#EA9D28"/>

<path d="M186 70 c5 -5 59 -10 119 -10 141 -1 144 -1 150 11 4 5 -50 9 -136 9 -95 0 -140 -3 -133 -10z" transform="translate(0,64) scale(0.1,-0.1)" stroke="none" fill="#EA9D28"/>

<path d="M432 225 l-27 -45 -122 0 c-75 0 -123 -4 -123 -10 0 -15 293 -13 308 2 15 15 16 98 2 98 -6 0 -23 -20 -38 -45z" transform="translate(0,64) scale(0.1,-0.1)" stroke="none" fill="#EA9D28"/>

<path d="M40 330 c0 -6 35 -10 85 -10 78 0 85 -2 85 -20 0 -18 -7 -20 -86 -20 -54 0 -83 -4 -79 -10 4 -6 63 -10 146 -10 86 0 139 4 139 10 0 6 -15 10 -34 10 -22 0 -36 6 -40 16 -9 24 -9 24 29 24 19 0 35 5 35 10 0 6 -53 10 -140 10 -87 0 -140 -4 -140 -10z" transform="translate(0,64) scale(0.1,-0.1)" stroke="none" fill="#EA9D28"/>

<path d="M210 591 c-73 -20 -82 -31 -139 -164 -33 -75 -47 -162 -29 -173 5 -3 6 -10 3 -15 -4 -5 0 -17 7 -28 16 -23 145 -160 134 -144 -6 10 24 13 134 13 92 0 139 -4 135 -10 -14 -22 11 -8 63 37 73 62 133 189 83 176 -11 -3 -21 2 -25 12 -13 35 24 49 44 18 9 -14 10 -9 5 25 -12 90 -89 202 -165 242 -54 27 -171 33 -250 11z m110 -261 c0 -5 -16 -10 -35 -10 -38 0 -38 0 -29 -24 4 -10 18 -16 40 -16 19 0 34 -4 34 -10 0 -13 -277 -13 -285 0 -4 6 25 10 79 10 79 0 86 2 86 20 0 18 -7 20 -85 20 -50 0 -85 4 -85 10 0 6 53 10 140 10 87 0 140 -4 140 -10z m160 -103 c0 -24 -5 -48 -12 -55 -15 -15 -308 -17 -308 -2 0 6 48 10 123 10 l122 0 27 45 c15 25 32 45 38 45 5 0 10 -19 10 -43z m-150 2 c0 -5 -62 -9 -140 -9 -89 0 -140 4 -140 10 0 7 50 10 140 9 77 0 140 -5 140 -10z m130 -119 c0 -6 -57 -10 -150 -10 -93 0 -150 4 -150 10 0 6 57 10 150 10 93 0 150 -4 150 -10z" transform="translate(0,64) scale(0.1,-0.1)" stroke="none" fill="#43682B"/>

</g>

<g id="3" transform="translate(198.0,0)scale(1,1)">

<path d="M576 321 c-10 -16 5 -42 23 -39 21 4 21 42 -1 46 -9 2 -19 -1 -22 -7z" transform="translate(0,64) scale(0.1,-0.1)" stroke="none" fill="#EA9D28"/>

<path d="M390 59 c-19 -4 -62 -6 -95 -3 -42 3 -54 2 -40 -5 26 -12 146 -13 165 -1 22 14 9 18 -30 9z" transform="translate(0,64) scale(0.1,-0.1)" stroke="none" fill="#43682B"/>

<path d="M50 230 c0 -6 51 -10 140 -10 78 0 140 4 140 9 0 5 -63 10 -140 10 -90 1 -140 -2 -140 -9z" transform="translate(0,64) scale(0.1,-0.1)" stroke="none" fill="#EA9D28"/>

<path d="M160 110 c0 -6 57 -10 150 -10 93 0 150 4 150 10 0 6 -57 10 -150 10 -93 0 -150 -4 -150 -10z" transform="translate(0,64) scale(0.1,-0.1)" stroke="none" fill="#EA9D28"/>

<path d="M186 70 c5 -5 59 -10 119 -10 141 -1 144 -1 150 11 4 5 -50 9 -136 9 -95 0 -140 -3 -133 -10z" transform="translate(0,64) scale(0.1,-0.1)" stroke="none" fill="#EA9D28"/>

<path d="M432 225 l-27 -45 -122 0 c-75 0 -123 -4 -123 -10 0 -15 293 -13 308 2 15 15 16 98 2 98 -6 0 -23 -20 -38 -45z" transform="translate(0,64) scale(0.1,-0.1)" stroke="none" fill="#EA9D28"/>

<path d="M40 330 c0 -6 35 -10 85 -10 78 0 85 -2 85 -20 0 -18 -7 -20 -86 -20 -54 0 -83 -4 -79 -10 4 -6 63 -10 146 -10 86 0 139 4 139 10 0 6 -15 10 -34 10 -22 0 -36 6 -40 16 -9 24 -9 24 29 24 19 0 35 5 35 10 0 6 -53 10 -140 10 -87 0 -140 -4 -140 -10z" transform="translate(0,64) scale(0.1,-0.1)" stroke="none" fill="#EA9D28"/>

<path d="M210 591 c-73 -20 -82 -31 -139 -164 -33 -75 -47 -162 -29 -173 5 -3 6 -10 3 -15 -4 -5 0 -17 7 -28 16 -23 145 -160 134 -144 -6 10 24 13 134 13 92 0 139 -4 135 -10 -14 -22 11 -8 63 37 73 62 133 189 83 176 -11 -3 -21 2 -25 12 -13 35 24 49 44 18 9 -14 10 -9 5 25 -12 90 -89 202 -165 242 -54 27 -171 33 -250 11z m110 -261 c0 -5 -16 -10 -35 -10 -38 0 -38 0 -29 -24 4 -10 18 -16 40 -16 19 0 34 -4 34 -10 0 -13 -277 -13 -285 0 -4 6 25 10 79 10 79 0 86 2 86 20 0 18 -7 20 -85 20 -50 0 -85 4 -85 10 0 6 53 10 140 10 87 0 140 -4 140 -10z m160 -103 c0 -24 -5 -48 -12 -55 -15 -15 -308 -17 -308 -2 0 6 48 10 123 10 l122 0 27 45 c15 25 32 45 38 45 5 0 10 -19 10 -43z m-150 2 c0 -5 -62 -9 -140 -9 -89 0 -140 4 -140 10 0 7 50 10 140 9 77 0 140 -5 140 -10z m130 -119 c0 -6 -57 -10 -150 -10 -93 0 -150 4 -150 10 0 6 57 10 150 10 93 0 150 -4 150 -10z" transform="translate(0,64) scale(0.1,-0.1)" stroke="none" fill="#43682B"/>

</g>

<g id="4" transform="translate(264.0,0)scale(1,1)">

<path d="M576 321 c-10 -16 5 -42 23 -39 21 4 21 42 -1 46 -9 2 -19 -1 -22 -7z" transform="translate(0,64) scale(0.1,-0.1)" stroke="none" fill="#EA9D28"/>

<path d="M390 59 c-19 -4 -62 -6 -95 -3 -42 3 -54 2 -40 -5 26 -12 146 -13 165 -1 22 14 9 18 -30 9z" transform="translate(0,64) scale(0.1,-0.1)" stroke="none" fill="#43682B"/>

<path d="M50 230 c0 -6 51 -10 140 -10 78 0 140 4 140 9 0 5 -63 10 -140 10 -90 1 -140 -2 -140 -9z" transform="translate(0,64) scale(0.1,-0.1)" stroke="none" fill="#EA9D28"/>

<path d="M160 110 c0 -6 57 -10 150 -10 93 0 150 4 150 10 0 6 -57 10 -150 10 -93 0 -150 -4 -150 -10z" transform="translate(0,64) scale(0.1,-0.1)" stroke="none" fill="#EA9D28"/>

<path d="M186 70 c5 -5 59 -10 119 -10 141 -1 144 -1 150 11 4 5 -50 9 -136 9 -95 0 -140 -3 -133 -10z" transform="translate(0,64) scale(0.1,-0.1)" stroke="none" fill="#EA9D28"/>

<path d="M432 225 l-27 -45 -122 0 c-75 0 -123 -4 -123 -10 0 -15 293 -13 308 2 15 15 16 98 2 98 -6 0 -23 -20 -38 -45z" transform="translate(0,64) scale(0.1,-0.1)" stroke="none" fill="#EA9D28"/>

<path d="M40 330 c0 -6 35 -10 85 -10 78 0 85 -2 85 -20 0 -18 -7 -20 -86 -20 -54 0 -83 -4 -79 -10 4 -6 63 -10 146 -10 86 0 139 4 139 10 0 6 -15 10 -34 10 -22 0 -36 6 -40 16 -9 24 -9 24 29 24 19 0 35 5 35 10 0 6 -53 10 -140 10 -87 0 -140 -4 -140 -10z" transform="translate(0,64) scale(0.1,-0.1)" stroke="none" fill="#EA9D28"/>

<path d="M210 591 c-73 -20 -82 -31 -139 -164 -33 -75 -47 -162 -29 -173 5 -3 6 -10 3 -15 -4 -5 0 -17 7 -28 16 -23 145 -160 134 -144 -6 10 24 13 134 13 92 0 139 -4 135 -10 -14 -22 11 -8 63 37 73 62 133 189 83 176 -11 -3 -21 2 -25 12 -13 35 24 49 44 18 9 -14 10 -9 5 25 -12 90 -89 202 -165 242 -54 27 -171 33 -250 11z m110 -261 c0 -5 -16 -10 -35 -10 -38 0 -38 0 -29 -24 4 -10 18 -16 40 -16 19 0 34 -4 34 -10 0 -13 -277 -13 -285 0 -4 6 25 10 79 10 79 0 86 2 86 20 0 18 -7 20 -85 20 -50 0 -85 4 -85 10 0 6 53 10 140 10 87 0 140 -4 140 -10z m160 -103 c0 -24 -5 -48 -12 -55 -15 -15 -308 -17 -308 -2 0 6 48 10 123 10 l122 0 27 45 c15 25 32 45 38 45 5 0 10 -19 10 -43z m-150 2 c0 -5 -62 -9 -140 -9 -89 0 -140 4 -140 10 0 7 50 10 140 9 77 0 140 -5 140 -10z m130 -119 c0 -6 -57 -10 -150 -10 -93 0 -150 4 -150 10 0 6 57 10 150 10 93 0 150 -4 150 -10z" transform="translate(0,64) scale(0.1,-0.1)" stroke="none" fill="#43682B"/>

</g>

</g>
<g id="row1" transform="translate(8,64.0)">
<g id="0" transform="translate(0.0,0)scale(1,1)">

<path d="M576 321 c-10 -16 5 -42 23 -39 21 4 21 42 -1 46 -9 2 -19 -1 -22 -7z" transform="translate(0,64) scale(0.1,-0.1)" stroke="none" fill="#EA9D28"/>

<path d="M390 59 c-19 -4 -62 -6 -95 -3 -42 3 -54 2 -40 -5 26 -12 146 -13 165 -1 22 14 9 18 -30 9z" transform="translate(0,64) scale(0.1,-0.1)" stroke="none" fill="#43682B"/>

<path d="M50 230 c0 -6 51 -10 140 -10 78 0 140 4 140 9 0 5 -63 10 -140 10 -90 1 -140 -2 -140 -9z" transform="translate(0,64) scale(0.1,-0.1)" stroke="none" fill="#EA9D28"/>

<path d="M160 110 c0 -6 57 -10 150 -10 93 0 150 4 150 10 0 6 -57 10 -150 10 -93 0 -150 -4 -150 -10z" transform="translate(0,64) scale(0.1,-0.1)" stroke="none" fill="#EA9D28"/>

<path d="M186 70 c5 -5 59 -10 119 -10 141 -1 144 -1 150 11 4 5 -50 9 -136 9 -95 0 -140 -3 -133 -10z" transform="translate(0,64) scale(0.1,-0.1)" stroke="none" fill="#EA9D28"/>

<path d="M432 225 l-27 -45 -122 0 c-75 0 -123 -4 -123 -10 0 -15 293 -13 308 2 15 15 16 98 2 98 -6 0 -23 -20 -38 -45z" transform="translate(0,64) scale(0.1,-0.1)" stroke="none" fill="#EA9D28"/>

<path d="M40 330 c0 -6 35 -10 85 -10 78 0 85 -2 85 -20 0 -18 -7 -20 -86 -20 -54 0 -83 -4 -79 -10 4 -6 63 -10 146 -10 86 0 139 4 139 10 0 6 -15 10 -34 10 -22 0 -36 6 -40 16 -9 24 -9 24 29 24 19 0 35 5 35 10 0 6 -53 10 -140 10 -87 0 -140 -4 -140 -10z" transform="translate(0,64) scale(0.1,-0.1)" stroke="none" fill="#EA9D28"/>

<path d="M210 591 c-73 -20 -82 -31 -139 -164 -33 -75 -47 -162 -29 -173 5 -3 6 -10 3 -15 -4 -5 0 -17 7 -28 16 -23 145 -160 134 -144 -6 10 24 13 134 13 92 0 139 -4 135 -10 -14 -22 11 -8 63 37 73 62 133 189 83 176 -11 -3 -21 2 -25 12 -13 35 24 49 44 18 9 -14 10 -9 5 25 -12 90 -89 202 -165 242 -54 27 -171 33 -250 11z m110 -261 c0 -5 -16 -10 -35 -10 -38 0 -38 0 -29 -24 4 -10 18 -16 40 -16 19 0 34 -4 34 -10 0 -13 -277 -13 -285 0 -4 6 25 10 79 10 79 0 86 2 86 20 0 18 -7 20 -85 20 -50 0 -85 4 -85 10 0 6 53 10 140 10 87 0 140 -4 140 -10z m160 -103 c0 -24 -5 -48 -12 -55 -15 -15 -308 -17 -308 -2 0 6 48 10 123 10 l122 0 27 45 c15 25 32 45 38 45 5 0 10 -19 10 -43z m-150 2 c0 -5 -62 -9 -140 -9 -89 0 -140 4 -140 10 0 7 50 10 140 9 77 0 140 -5 140 -10z m130 -119 c0 -6 -57 -10 -150 -10 -93 0 -150 4 -150 10 0 6 57 10 150 10 93 0 150 -4 150 -10z" transform="translate(0,64) scale(0.1,-0.1)" stroke="none" fill="#43682B"/>

</g>

<g id="1" transform="translate(66.0,0)scale(1,1)">

<path d="M576 321 c-10 -16 5 -42 23 -39 21 4 21 42 -1 46 -9 2 -19 -1 -22 -7z" transform="translate(0,64) scale(0.1,-0.1)" stroke="none" fill="#EA9D28"/>

<path d="M390 59 c-19 -4 -62 -6 -95 -3 -42 3 -54 2 -40 -5 26 -12 146 -13 165 -1 22 14 9 18 -30 9z" transform="translate(0,64) scale(0.1,-0.1)" stroke="none" fill="#43682B"/>

<path d="M50 230 c0 -6 51 -10 140 -10 78 0 140 4 140 9 0 5 -63 10 -140 10 -90 1 -140 -2 -140 -9z" transform="translate(0,64) scale(0.1,-0.1)" stroke="none" fill="#EA9D28"/>

<path d="M160 110 c0 -6 57 -10 150 -10 93 0 150 4 150 10 0 6 -57 10 -150 10 -93 0 -150 -4 -150 -10z" transform="translate(0,64) scale(0.1,-0.1)" stroke="none" fill="#EA9D28"/>

<path d="M186 70 c5 -5 59 -10 119 -10 141 -1 144 -1 150 11 4 5 -50 9 -136 9 -95 0 -140 -3 -133 -10z" transform="translate(0,64) scale(0.1,-0.1)" stroke="none" fill="#EA9D28"/>

<path d="M432 225 l-27 -45 -122 0 c-75 0 -123 -4 -123 -10 0 -15 293 -13 308 2 15 15 16 98 2 98 -6 0 -23 -20 -38 -45z" transform="translate(0,64) scale(0.1,-0.1)" stroke="none" fill="#EA9D28"/>

<path d="M40 330 c0 -6 35 -10 85 -10 78 0 85 -2 85 -20 0 -18 -7 -20 -86 -20 -54 0 -83 -4 -79 -10 4 -6 63 -10 146 -10 86 0 139 4 139 10 0 6 -15 10 -34 10 -22 0 -36 6 -40 16 -9 24 -9 24 29 24 19 0 35 5 35 10 0 6 -53 10 -140 10 -87 0 -140 -4 -140 -10z" transform="translate(0,64) scale(0.1,-0.1)" stroke="none" fill="#EA9D28"/>

<path d="M210 591 c-73 -20 -82 -31 -139 -164 -33 -75 -47 -162 -29 -173 5 -3 6 -10 3 -15 -4 -5 0 -17 7 -28 16 -23 145 -160 134 -144 -6 10 24 13 134 13 92 0 139 -4 135 -10 -14 -22 11 -8 63 37 73 62 133 189 83 176 -11 -3 -21 2 -25 12 -13 35 24 49 44 18 9 -14 10 -9 5 25 -12 90 -89 202 -165 242 -54 27 -171 33 -250 11z m110 -261 c0 -5 -16 -10 -35 -10 -38 0 -38 0 -29 -24 4 -10 18 -16 40 -16 19 0 34 -4 34 -10 0 -13 -277 -13 -285 0 -4 6 25 10 79 10 79 0 86 2 86 20 0 18 -7 20 -85 20 -50 0 -85 4 -85 10 0 6 53 10 140 10 87 0 140 -4 140 -10z m160 -103 c0 -24 -5 -48 -12 -55 -15 -15 -308 -17 -308 -2 0 6 48 10 123 10 l122 0 27 45 c15 25 32 45 38 45 5 0 10 -19 10 -43z m-150 2 c0 -5 -62 -9 -140 -9 -89 0 -140 4 -140 10 0 7 50 10 140 9 77 0 140 -5 140 -10z m130 -119 c0 -6 -57 -10 -150 -10 -93 0 -150 4 -150 10 0 6 57 10 150 10 93 0 150 -4 150 -10z" transform="translate(0,64) scale(0.1,-0.1)" stroke="none" fill="#43682B"/>

</g>

<g id="2" transform="translate(132.0,0)scale(1,1)">

<path d="M576 321 c-10 -16 5 -42 23 -39 21 4 21 42 -1 46 -9 2 -19 -1 -22 -7z" transform="translate(0,64) scale(0.1,-0.1)" stroke="none" fill="#EA9D28"/>

<path d="M390 59 c-19 -4 -62 -6 -95 -3 -42 3 -54 2 -40 -5 26 -12 146 -13 165 -1 22 14 9 18 -30 9z" transform="translate(0,64) scale(0.1,-0.1)" stroke="none" fill="#43682B"/>

<path d="M50 230 c0 -6 51 -10 140 -10 78 0 140 4 140 9 0 5 -63 10 -140 10 -90 1 -140 -2 -140 -9z" transform="translate(0,64) scale(0.1,-0.1)" stroke="none" fill="#EA9D28"/>

<path d="M160 110 c0 -6 57 -10 150 -10 93 0 150 4 150 10 0 6 -57 10 -150 10 -93 0 -150 -4 -150 -10z" transform="translate(0,64) scale(0.1,-0.1)" stroke="none" fill="#EA9D28"/>

<path d="M186 70 c5 -5 59 -10 119 -10 141 -1 144 -1 150 11 4 5 -50 9 -136 9 -95 0 -140 -3 -133 -10z" transform="translate(0,64) scale(0.1,-0.1)" stroke="none" fill="#EA9D28"/>

<path d="M432 225 l-27 -45 -122 0 c-75 0 -123 -4 -123 -10 0 -15 293 -13 308 2 15 15 16 98 2 98 -6 0 -23 -20 -38 -45z" transform="translate(0,64) scale(0.1,-0.1)" stroke="none" fill="#EA9D28"/>

<path d="M40 330 c0 -6 35 -10 85 -10 78 0 85 -2 85 -20 0 -18 -7 -20 -86 -20 -54 0 -83 -4 -79 -10 4 -6 63 -10 146 -10 86 0 139 4 139 10 0 6 -15 10 -34 10 -22 0 -36 6 -40 16 -9 24 -9 24 29 24 19 0 35 5 35 10 0 6 -53 10 -140 10 -87 0 -140 -4 -140 -10z" transform="translate(0,64) scale(0.1,-0.1)" stroke="none" fill="#EA9D28"/>

<path d="M210 591 c-73 -20 -82 -31 -139 -164 -33 -75 -47 -162 -29 -173 5 -3 6 -10 3 -15 -4 -5 0 -17 7 -28 16 -23 145 -160 134 -144 -6 10 24 13 134 13 92 0 139 -4 135 -10 -14 -22 11 -8 63 37 73 62 133 189 83 176 -11 -3 -21 2 -25 12 -13 35 24 49 44 18 9 -14 10 -9 5 25 -12 90 -89 202 -165 242 -54 27 -171 33 -250 11z m110 -261 c0 -5 -16 -10 -35 -10 -38 0 -38 0 -29 -24 4 -10 18 -16 40 -16 19 0 34 -4 34 -10 0 -13 -277 -13 -285 0 -4 6 25 10 79 10 79 0 86 2 86 20 0 18 -7 20 -85 20 -50 0 -85 4 -85 10 0 6 53 10 140 10 87 0 140 -4 140 -10z m160 -103 c0 -24 -5 -48 -12 -55 -15 -15 -308 -17 -308 -2 0 6 48 10 123 10 l122 0 27 45 c15 25 32 45 38 45 5 0 10 -19 10 -43z m-150 2 c0 -5 -62 -9 -140 -9 -89 0 -140 4 -140 10 0 7 50 10 140 9 77 0 140 -5 140 -10z m130 -119 c0 -6 -57 -10 -150 -10 -93 0 -150 4 -150 10 0 6 57 10 150 10 93 0 150 -4 150 -10z" transform="translate(0,64) scale(0.1,-0.1)" stroke="none" fill="#43682B"/>

</g>

<g id="3" transform="translate(198.0,0)scale(1,1)">

<path d="M576 321 c-10 -16 5 -42 23 -39 21 4 21 42 -1 46 -9 2 -19 -1 -22 -7z" transform="translate(0,64) scale(0.1,-0.1)" stroke="none" fill="#EA9D28"/>

<path d="M390 59 c-19 -4 -62 -6 -95 -3 -42 3 -54 2 -40 -5 26 -12 146 -13 165 -1 22 14 9 18 -30 9z" transform="translate(0,64) scale(0.1,-0.1)" stroke="none" fill="#43682B"/>

<path d="M50 230 c0 -6 51 -10 140 -10 78 0 140 4 140 9 0 5 -63 10 -140 10 -90 1 -140 -2 -140 -9z" transform="translate(0,64) scale(0.1,-0.1)" stroke="none" fill="#EA9D28"/>

<path d="M160 110 c0 -6 57 -10 150 -10 93 0 150 4 150 10 0 6 -57 10 -150 10 -93 0 -150 -4 -150 -10z" transform="translate(0,64) scale(0.1,-0.1)" stroke="none" fill="#EA9D28"/>

<path d="M186 70 c5 -5 59 -10 119 -10 141 -1 144 -1 150 11 4 5 -50 9 -136 9 -95 0 -140 -3 -133 -10z" transform="translate(0,64) scale(0.1,-0.1)" stroke="none" fill="#EA9D28"/>

<path d="M432 225 l-27 -45 -122 0 c-75 0 -123 -4 -123 -10 0 -15 293 -13 308 2 15 15 16 98 2 98 -6 0 -23 -20 -38 -45z" transform="translate(0,64) scale(0.1,-0.1)" stroke="none" fill="#EA9D28"/>

<path d="M40 330 c0 -6 35 -10 85 -10 78 0 85 -2 85 -20 0 -18 -7 -20 -86 -20 -54 0 -83 -4 -79 -10 4 -6 63 -10 146 -10 86 0 139 4 139 10 0 6 -15 10 -34 10 -22 0 -36 6 -40 16 -9 24 -9 24 29 24 19 0 35 5 35 10 0 6 -53 10 -140 10 -87 0 -140 -4 -140 -10z" transform="translate(0,64) scale(0.1,-0.1)" stroke="none" fill="#EA9D28"/>

<path d="M210 591 c-73 -20 -82 -31 -139 -164 -33 -75 -47 -162 -29 -173 5 -3 6 -10 3 -15 -4 -5 0 -17 7 -28 16 -23 145 -160 134 -144 -6 10 24 13 134 13 92 0 139 -4 135 -10 -14 -22 11 -8 63 37 73 62 133 189 83 176 -11 -3 -21 2 -25 12 -13 35 24 49 44 18 9 -14 10 -9 5 25 -12 90 -89 202 -165 242 -54 27 -171 33 -250 11z m110 -261 c0 -5 -16 -10 -35 -10 -38 0 -38 0 -29 -24 4 -10 18 -16 40 -16 19 0 34 -4 34 -10 0 -13 -277 -13 -285 0 -4 6 25 10 79 10 79 0 86 2 86 20 0 18 -7 20 -85 20 -50 0 -85 4 -85 10 0 6 53 10 140 10 87 0 140 -4 140 -10z m160 -103 c0 -24 -5 -48 -12 -55 -15 -15 -308 -17 -308 -2 0 6 48 10 123 10 l122 0 27 45 c15 25 32 45 38 45 5 0 10 -19 10 -43z m-150 2 c0 -5 -62 -9 -140 -9 -89 0 -140 4 -140 10 0 7 50 10 140 9 77 0 140 -5 140 -10z m130 -119 c0 -6 -57 -10 -150 -10 -93 0 -150 4 -150 10 0 6 57 10 150 10 93 0 150 -4 150 -10z" transform="translate(0,64) scale(0.1,-0.1)" stroke="none" fill="#43682B"/>

</g>

<g id="4" transform="translate(264.0,0)scale(1,1)">

<path d="M576 321 c-10 -16 5 -42 23 -39 21 4 21 42 -1 46 -9 2 -19 -1 -22 -7z" transform="translate(0,64) scale(0.1,-0.1)" stroke="none" fill="#EA9D28"/>

<path d="M390 59 c-19 -4 -62 -6 -95 -3 -42 3 -54 2 -40 -5 26 -12 146 -13 165 -1 22 14 9 18 -30 9z" transform="translate(0,64) scale(0.1,-0.1)" stroke="none" fill="#43682B"/>

<path d="M50 230 c0 -6 51 -10 140 -10 78 0 140 4 140 9 0 5 -63 10 -140 10 -90 1 -140 -2 -140 -9z" transform="translate(0,64) scale(0.1,-0.1)" stroke="none" fill="#EA9D28"/>

<path d="M160 110 c0 -6 57 -10 150 -10 93 0 150 4 150 10 0 6 -57 10 -150 10 -93 0 -150 -4 -150 -10z" transform="translate(0,64) scale(0.1,-0.1)" stroke="none" fill="#EA9D28"/>

<path d="M186 70 c5 -5 59 -10 119 -10 141 -1 144 -1 150 11 4 5 -50 9 -136 9 -95 0 -140 -3 -133 -10z" transform="translate(0,64) scale(0.1,-0.1)" stroke="none" fill="#EA9D28"/>

<path d="M432 225 l-27 -45 -122 0 c-75 0 -123 -4 -123 -10 0 -15 293 -13 308 2 15 15 16 98 2 98 -6 0 -23 -20 -38 -45z" transform="translate(0,64) scale(0.1,-0.1)" stroke="none" fill="#EA9D28"/>

<path d="M40 330 c0 -6 35 -10 85 -10 78 0 85 -2 85 -20 0 -18 -7 -20 -86 -20 -54 0 -83 -4 -79 -10 4 -6 63 -10 146 -10 86 0 139 4 139 10 0 6 -15 10 -34 10 -22 0 -36 6 -40 16 -9 24 -9 24 29 24 19 0 35 5 35 10 0 6 -53 10 -140 10 -87 0 -140 -4 -140 -10z" transform="translate(0,64) scale(0.1,-0.1)" stroke="none" fill="#EA9D28"/>

<path d="M210 591 c-73 -20 -82 -31 -139 -164 -33 -75 -47 -162 -29 -173 5 -3 6 -10 3 -15 -4 -5 0 -17 7 -28 16 -23 145 -160 134 -144 -6 10 24 13 134 13 92 0 139 -4 135 -10 -14 -22 11 -8 63 37 73 62 133 189 83 176 -11 -3 -21 2 -25 12 -13 35 24 49 44 18 9 -14 10 -9 5 25 -12 90 -89 202 -165 242 -54 27 -171 33 -250 11z m110 -261 c0 -5 -16 -10 -35 -10 -38 0 -38 0 -29 -24 4 -10 18 -16 40 -16 19 0 34 -4 34 -10 0 -13 -277 -13 -285 0 -4 6 25 10 79 10 79 0 86 2 86 20 0 18 -7 20 -85 20 -50 0 -85 4 -85 10 0 6 53 10 140 10 87 0 140 -4 140 -10z m160 -103 c0 -24 -5 -48 -12 -55 -15 -15 -308 -17 -308 -2 0 6 48 10 123 10 l122 0 27 45 c15 25 32 45 38 45 5 0 10 -19 10 -43z m-150 2 c0 -5 -62 -9 -140 -9 -89 0 -140 4 -140 10 0 7 50 10 140 9 77 0 140 -5 140 -10z m130 -119 c0 -6 -57 -10 -150 -10 -93 0 -150 4 -150 10 0 6 57 10 150 10 93 0 150 -4 150 -10z" transform="translate(0,64) scale(0.1,-0.1)" stroke="none" fill="#43682B"/>

</g>

</g>
<g id="row2" transform="translate(8,128.0)">
<g id="0" transform="translate(0.0,0)scale(1,1)">

<path d="M576 321 c-10 -16 5 -42 23 -39 21 4 21 42 -1 46 -9 2 -19 -1 -22 -7z" transform="translate(0,64) scale(0.1,-0.1)" stroke="none" fill="#EA9D28"/>

<path d="M390 59 c-19 -4 -62 -6 -95 -3 -42 3 -54 2 -40 -5 26 -12 146 -13 165 -1 22 14 9 18 -30 9z" transform="translate(0,64) scale(0.1,-0.1)" stroke="none" fill="#43682B"/>

<path d="M50 230 c0 -6 51 -10 140 -10 78 0 140 4 140 9 0 5 -63 10 -140 10 -90 1 -140 -2 -140 -9z" transform="translate(0,64) scale(0.1,-0.1)" stroke="none" fill="#EA9D28"/>

<path d="M160 110 c0 -6 57 -10 150 -10 93 0 150 4 150 10 0 6 -57 10 -150 10 -93 0 -150 -4 -150 -10z" transform="translate(0,64) scale(0.1,-0.1)" stroke="none" fill="#EA9D28"/>

<path d="M186 70 c5 -5 59 -10 119 -10 141 -1 144 -1 150 11 4 5 -50 9 -136 9 -95 0 -140 -3 -133 -10z" transform="translate(0,64) scale(0.1,-0.1)" stroke="none" fill="#EA9D28"/>

<path d="M432 225 l-27 -45 -122 0 c-75 0 -123 -4 -123 -10 0 -15 293 -13 308 2 15 15 16 98 2 98 -6 0 -23 -20 -38 -45z" transform="translate(0,64) scale(0.1,-0.1)" stroke="none" fill="#EA9D28"/>

<path d="M40 330 c0 -6 35 -10 85 -10 78 0 85 -2 85 -20 0 -18 -7 -20 -86 -20 -54 0 -83 -4 -79 -10 4 -6 63 -10 146 -10 86 0 139 4 139 10 0 6 -15 10 -34 10 -22 0 -36 6 -40 16 -9 24 -9 24 29 24 19 0 35 5 35 10 0 6 -53 10 -140 10 -87 0 -140 -4 -140 -10z" transform="translate(0,64) scale(0.1,-0.1)" stroke="none" fill="#EA9D28"/>

<path d="M210 591 c-73 -20 -82 -31 -139 -164 -33 -75 -47 -162 -29 -173 5 -3 6 -10 3 -15 -4 -5 0 -17 7 -28 16 -23 145 -160 134 -144 -6 10 24 13 134 13 92 0 139 -4 135 -10 -14 -22 11 -8 63 37 73 62 133 189 83 176 -11 -3 -21 2 -25 12 -13 35 24 49 44 18 9 -14 10 -9 5 25 -12 90 -89 202 -165 242 -54 27 -171 33 -250 11z m110 -261 c0 -5 -16 -10 -35 -10 -38 0 -38 0 -29 -24 4 -10 18 -16 40 -16 19 0 34 -4 34 -10 0 -13 -277 -13 -285 0 -4 6 25 10 79 10 79 0 86 2 86 20 0 18 -7 20 -85 20 -50 0 -85 4 -85 10 0 6 53 10 140 10 87 0 140 -4 140 -10z m160 -103 c0 -24 -5 -48 -12 -55 -15 -15 -308 -17 -308 -2 0 6 48 10 123 10 l122 0 27 45 c15 25 32 45 38 45 5 0 10 -19 10 -43z m-150 2 c0 -5 -62 -9 -140 -9 -89 0 -140 4 -140 10 0 7 50 10 140 9 77 0 140 -5 140 -10z m130 -119 c0 -6 -57 -10 -150 -10 -93 0 -150 4 -150 10 0 6 57 10 150 10 93 0 150 -4 150 -10z" transform="translate(0,64) scale(0.1,-0.1)" stroke="none" fill="#43682B"/>

</g>

<g id="1" transform="translate(66.0,0)scale(1,1)">

<path d="M576 321 c-10 -16 5 -42 23 -39 21 4 21 42 -1 46 -9 2 -19 -1 -22 -7z" transform="translate(0,64) scale(0.1,-0.1)" stroke="none" fill="#EA9D28"/>

<path d="M390 59 c-19 -4 -62 -6 -95 -3 -42 3 -54 2 -40 -5 26 -12 146 -13 165 -1 22 14 9 18 -30 9z" transform="translate(0,64) scale(0.1,-0.1)" stroke="none" fill="#43682B"/>

<path d="M50 230 c0 -6 51 -10 140 -10 78 0 140 4 140 9 0 5 -63 10 -140 10 -90 1 -140 -2 -140 -9z" transform="translate(0,64) scale(0.1,-0.1)" stroke="none" fill="#EA9D28"/>

<path d="M160 110 c0 -6 57 -10 150 -10 93 0 150 4 150 10 0 6 -57 10 -150 10 -93 0 -150 -4 -150 -10z" transform="translate(0,64) scale(0.1,-0.1)" stroke="none" fill="#EA9D28"/>

<path d="M186 70 c5 -5 59 -10 119 -10 141 -1 144 -1 150 11 4 5 -50 9 -136 9 -95 0 -140 -3 -133 -10z" transform="translate(0,64) scale(0.1,-0.1)" stroke="none" fill="#EA9D28"/>

<path d="M432 225 l-27 -45 -122 0 c-75 0 -123 -4 -123 -10 0 -15 293 -13 308 2 15 15 16 98 2 98 -6 0 -23 -20 -38 -45z" transform="translate(0,64) scale(0.1,-0.1)" stroke="none" fill="#EA9D28"/>

<path d="M40 330 c0 -6 35 -10 85 -10 78 0 85 -2 85 -20 0 -18 -7 -20 -86 -20 -54 0 -83 -4 -79 -10 4 -6 63 -10 146 -10 86 0 139 4 139 10 0 6 -15 10 -34 10 -22 0 -36 6 -40 16 -9 24 -9 24 29 24 19 0 35 5 35 10 0 6 -53 10 -140 10 -87 0 -140 -4 -140 -10z" transform="translate(0,64) scale(0.1,-0.1)" stroke="none" fill="#EA9D28"/>

<path d="M210 591 c-73 -20 -82 -31 -139 -164 -33 -75 -47 -162 -29 -173 5 -3 6 -10 3 -15 -4 -5 0 -17 7 -28 16 -23 145 -160 134 -144 -6 10 24 13 134 13 92 0 139 -4 135 -10 -14 -22 11 -8 63 37 73 62 133 189 83 176 -11 -3 -21 2 -25 12 -13 35 24 49 44 18 9 -14 10 -9 5 25 -12 90 -89 202 -165 242 -54 27 -171 33 -250 11z m110 -261 c0 -5 -16 -10 -35 -10 -38 0 -38 0 -29 -24 4 -10 18 -16 40 -16 19 0 34 -4 34 -10 0 -13 -277 -13 -285 0 -4 6 25 10 79 10 79 0 86 2 86 20 0 18 -7 20 -85 20 -50 0 -85 4 -85 10 0 6 53 10 140 10 87 0 140 -4 140 -10z m160 -103 c0 -24 -5 -48 -12 -55 -15 -15 -308 -17 -308 -2 0 6 48 10 123 10 l122 0 27 45 c15 25 32 45 38 45 5 0 10 -19 10 -43z m-150 2 c0 -5 -62 -9 -140 -9 -89 0 -140 4 -140 10 0 7 50 10 140 9 77 0 140 -5 140 -10z m130 -119 c0 -6 -57 -10 -150 -10 -93 0 -150 4 -150 10 0 6 57 10 150 10 93 0 150 -4 150 -10z" transform="translate(0,64) scale(0.1,-0.1)" stroke="none" fill="#43682B"/>

</g>

<g id="2" transform="translate(132.0,0)scale(1,1)">

<path d="M576 321 c-10 -16 5 -42 23 -39 21 4 21 42 -1 46 -9 2 -19 -1 -22 -7z" transform="translate(0,64) scale(0.1,-0.1)" stroke="none" fill="#EA9D28"/>

<path d="M390 59 c-19 -4 -62 -6 -95 -3 -42 3 -54 2 -40 -5 26 -12 146 -13 165 -1 22 14 9 18 -30 9z" transform="translate(0,64) scale(0.1,-0.1)" stroke="none" fill="#43682B"/>

<path d="M50 230 c0 -6 51 -10 140 -10 78 0 140 4 140 9 0 5 -63 10 -140 10 -90 1 -140 -2 -140 -9z" transform="translate(0,64) scale(0.1,-0.1)" stroke="none" fill="#EA9D28"/>

<path d="M160 110 c0 -6 57 -10 150 -10 93 0 150 4 150 10 0 6 -57 10 -150 10 -93 0 -150 -4 -150 -10z" transform="translate(0,64) scale(0.1,-0.1)" stroke="none" fill="#EA9D28"/>

<path d="M186 70 c5 -5 59 -10 119 -10 141 -1 144 -1 150 11 4 5 -50 9 -136 9 -95 0 -140 -3 -133 -10z" transform="translate(0,64) scale(0.1,-0.1)" stroke="none" fill="#EA9D28"/>

<path d="M432 225 l-27 -45 -122 0 c-75 0 -123 -4 -123 -10 0 -15 293 -13 308 2 15 15 16 98 2 98 -6 0 -23 -20 -38 -45z" transform="translate(0,64) scale(0.1,-0.1)" stroke="none" fill="#EA9D28"/>

<path d="M40 330 c0 -6 35 -10 85 -10 78 0 85 -2 85 -20 0 -18 -7 -20 -86 -20 -54 0 -83 -4 -79 -10 4 -6 63 -10 146 -10 86 0 139 4 139 10 0 6 -15 10 -34 10 -22 0 -36 6 -40 16 -9 24 -9 24 29 24 19 0 35 5 35 10 0 6 -53 10 -140 10 -87 0 -140 -4 -140 -10z" transform="translate(0,64) scale(0.1,-0.1)" stroke="none" fill="#EA9D28"/>

<path d="M210 591 c-73 -20 -82 -31 -139 -164 -33 -75 -47 -162 -29 -173 5 -3 6 -10 3 -15 -4 -5 0 -17 7 -28 16 -23 145 -160 134 -144 -6 10 24 13 134 13 92 0 139 -4 135 -10 -14 -22 11 -8 63 37 73 62 133 189 83 176 -11 -3 -21 2 -25 12 -13 35 24 49 44 18 9 -14 10 -9 5 25 -12 90 -89 202 -165 242 -54 27 -171 33 -250 11z m110 -261 c0 -5 -16 -10 -35 -10 -38 0 -38 0 -29 -24 4 -10 18 -16 40 -16 19 0 34 -4 34 -10 0 -13 -277 -13 -285 0 -4 6 25 10 79 10 79 0 86 2 86 20 0 18 -7 20 -85 20 -50 0 -85 4 -85 10 0 6 53 10 140 10 87 0 140 -4 140 -10z m160 -103 c0 -24 -5 -48 -12 -55 -15 -15 -308 -17 -308 -2 0 6 48 10 123 10 l122 0 27 45 c15 25 32 45 38 45 5 0 10 -19 10 -43z m-150 2 c0 -5 -62 -9 -140 -9 -89 0 -140 4 -140 10 0 7 50 10 140 9 77 0 140 -5 140 -10z m130 -119 c0 -6 -57 -10 -150 -10 -93 0 -150 4 -150 10 0 6 57 10 150 10 93 0 150 -4 150 -10z" transform="translate(0,64) scale(0.1,-0.1)" stroke="none" fill="#43682B"/>

</g>

<g id="3" transform="translate(198.0,0)scale(1,1)">

<path d="M576 321 c-10 -16 5 -42 23 -39 21 4 21 42 -1 46 -9 2 -19 -1 -22 -7z" transform="translate(0,64) scale(0.1,-0.1)" stroke="none" fill="#EA9D28"/>

<path d="M390 59 c-19 -4 -62 -6 -95 -3 -42 3 -54 2 -40 -5 26 -12 146 -13 165 -1 22 14 9 18 -30 9z" transform="translate(0,64) scale(0.1,-0.1)" stroke="none" fill="#43682B"/>

<path d="M50 230 c0 -6 51 -10 140 -10 78 0 140 4 140 9 0 5 -63 10 -140 10 -90 1 -140 -2 -140 -9z" transform="translate(0,64) scale(0.1,-0.1)" stroke="none" fill="#EA9D28"/>

<path d="M160 110 c0 -6 57 -10 150 -10 93 0 150 4 150 10 0 6 -57 10 -150 10 -93 0 -150 -4 -150 -10z" transform="translate(0,64) scale(0.1,-0.1)" stroke="none" fill="#EA9D28"/>

<path d="M186 70 c5 -5 59 -10 119 -10 141 -1 144 -1 150 11 4 5 -50 9 -136 9 -95 0 -140 -3 -133 -10z" transform="translate(0,64) scale(0.1,-0.1)" stroke="none" fill="#EA9D28"/>

<path d="M432 225 l-27 -45 -122 0 c-75 0 -123 -4 -123 -10 0 -15 293 -13 308 2 15 15 16 98 2 98 -6 0 -23 -20 -38 -45z" transform="translate(0,64) scale(0.1,-0.1)" stroke="none" fill="#EA9D28"/>

<path d="M40 330 c0 -6 35 -10 85 -10 78 0 85 -2 85 -20 0 -18 -7 -20 -86 -20 -54 0 -83 -4 -79 -10 4 -6 63 -10 146 -10 86 0 139 4 139 10 0 6 -15 10 -34 10 -22 0 -36 6 -40 16 -9 24 -9 24 29 24 19 0 35 5 35 10 0 6 -53 10 -140 10 -87 0 -140 -4 -140 -10z" transform="translate(0,64) scale(0.1,-0.1)" stroke="none" fill="#EA9D28"/>

<path d="M210 591 c-73 -20 -82 -31 -139 -164 -33 -75 -47 -162 -29 -173 5 -3 6 -10 3 -15 -4 -5 0 -17 7 -28 16 -23 145 -160 134 -144 -6 10 24 13 134 13 92 0 139 -4 135 -10 -14 -22 11 -8 63 37 73 62 133 189 83 176 -11 -3 -21 2 -25 12 -13 35 24 49 44 18 9 -14 10 -9 5 25 -12 90 -89 202 -165 242 -54 27 -171 33 -250 11z m110 -261 c0 -5 -16 -10 -35 -10 -38 0 -38 0 -29 -24 4 -10 18 -16 40 -16 19 0 34 -4 34 -10 0 -13 -277 -13 -285 0 -4 6 25 10 79 10 79 0 86 2 86 20 0 18 -7 20 -85 20 -50 0 -85 4 -85 10 0 6 53 10 140 10 87 0 140 -4 140 -10z m160 -103 c0 -24 -5 -48 -12 -55 -15 -15 -308 -17 -308 -2 0 6 48 10 123 10 l122 0 27 45 c15 25 32 45 38 45 5 0 10 -19 10 -43z m-150 2 c0 -5 -62 -9 -140 -9 -89 0 -140 4 -140 10 0 7 50 10 140 9 77 0 140 -5 140 -10z m130 -119 c0 -6 -57 -10 -150 -10 -93 0 -150 4 -150 10 0 6 57 10 150 10 93 0 150 -4 150 -10z" transform="translate(0,64) scale(0.1,-0.1)" stroke="none" fill="#43682B"/>

</g>

<g id="4" transform="translate(264.0,0)scale(1,1)">

<path d="M576 321 c-10 -16 5 -42 23 -39 21 4 21 42 -1 46 -9 2 -19 -1 -22 -7z" transform="translate(0,64) scale(0.1,-0.1)" stroke="none" fill="#EA9D28"/>

<path d="M390 59 c-19 -4 -62 -6 -95 -3 -42 3 -54 2 -40 -5 26 -12 146 -13 165 -1 22 14 9 18 -30 9z" transform="translate(0,64) scale(0.1,-0.1)" stroke="none" fill="#43682B"/>

<path d="M50 230 c0 -6 51 -10 140 -10 78 0 140 4 140 9 0 5 -63 10 -140 10 -90 1 -140 -2 -140 -9z" transform="translate(0,64) scale(0.1,-0.1)" stroke="none" fill="#EA9D28"/>

<path d="M160 110 c0 -6 57 -10 150 -10 93 0 150 4 150 10 0 6 -57 10 -150 10 -93 0 -150 -4 -150 -10z" transform="translate(0,64) scale(0.1,-0.1)" stroke="none" fill="#EA9D28"/>

<path d="M186 70 c5 -5 59 -10 119 -10 141 -1 144 -1 150 11 4 5 -50 9 -136 9 -95 0 -140 -3 -133 -10z" transform="translate(0,64) scale(0.1,-0.1)" stroke="none" fill="#EA9D28"/>

<path d="M432 225 l-27 -45 -122 0 c-75 0 -123 -4 -123 -10 0 -15 293 -13 308 2 15 15 16 98 2 98 -6 0 -23 -20 -38 -45z" transform="translate(0,64) scale(0.1,-0.1)" stroke="none" fill="#EA9D28"/>

<path d="M40 330 c0 -6 35 -10 85 -10 78 0 85 -2 85 -20 0 -18 -7 -20 -86 -20 -54 0 -83 -4 -79 -10 4 -6 63 -10 146 -10 86 0 139 4 139 10 0 6 -15 10 -34 10 -22 0 -36 6 -40 16 -9 24 -9 24 29 24 19 0 35 5 35 10 0 6 -53 10 -140 10 -87 0 -140 -4 -140 -10z" transform="translate(0,64) scale(0.1,-0.1)" stroke="none" fill="#EA9D28"/>

<path d="M210 591 c-73 -20 -82 -31 -139 -164 -33 -75 -47 -162 -29 -173 5 -3 6 -10 3 -15 -4 -5 0 -17 7 -28 16 -23 145 -160 134 -144 -6 10 24 13 134 13 92 0 139 -4 135 -10 -14 -22 11 -8 63 37 73 62 133 189 83 176 -11 -3 -21 2 -25 12 -13 35 24 49 44 18 9 -14 10 -9 5 25 -12 90 -89 202 -165 242 -54 27 -171 33 -250 11z m110 -261 c0 -5 -16 -10 -35 -10 -38 0 -38 0 -29 -24 4 -10 18 -16 40 -16 19 0 34 -4 34 -10 0 -13 -277 -13 -285 0 -4 6 25 10 79 10 79 0 86 2 86 20 0 18 -7 20 -85 20 -50 0 -85 4 -85 10 0 6 53 10 140 10 87 0 140 -4 140 -10z m160 -103 c0 -24 -5 -48 -12 -55 -15 -15 -308 -17 -308 -2 0 6 48 10 123 10 l122 0 27 45 c15 25 32 45 38 45 5 0 10 -19 10 -43z m-150 2 c0 -5 -62 -9 -140 -9 -89 0 -140 4 -140 10 0 7 50 10 140 9 77 0 140 -5 140 -10z m130 -119 c0 -6 -57 -10 -150 -10 -93 0 -150 4 -150 10 0 6 57 10 150 10 93 0 150 -4 150 -10z" transform="translate(0,64) scale(0.1,-0.1)" stroke="none" fill="#43682B"/>

</g>

</g>
<g id="row3" transform="translate(8,192.0)">
<g id="0" transform="translate(0.0,0)scale(1,1)">

<path d="M576 321 c-10 -16 5 -42 23 -39 21 4 21 42 -1 46 -9 2 -19 -1 -22 -7z" transform="translate(0,64) scale(0.1,-0.1)" stroke="none" fill="#EA9D28"/>

<path d="M390 59 c-19 -4 -62 -6 -95 -3 -42 3 -54 2 -40 -5 26 -12 146 -13 165 -1 22 14 9 18 -30 9z" transform="translate(0,64) scale(0.1,-0.1)" stroke="none" fill="#43682B"/>

<path d="M50 230 c0 -6 51 -10 140 -10 78 0 140 4 140 9 0 5 -63 10 -140 10 -90 1 -140 -2 -140 -9z" transform="translate(0,64) scale(0.1,-0.1)" stroke="none" fill="#EA9D28"/>

<path d="M160 110 c0 -6 57 -10 150 -10 93 0 150 4 150 10 0 6 -57 10 -150 10 -93 0 -150 -4 -150 -10z" transform="translate(0,64) scale(0.1,-0.1)" stroke="none" fill="#EA9D28"/>

<path d="M186 70 c5 -5 59 -10 119 -10 141 -1 144 -1 150 11 4 5 -50 9 -136 9 -95 0 -140 -3 -133 -10z" transform="translate(0,64) scale(0.1,-0.1)" stroke="none" fill="#EA9D28"/>

<path d="M432 225 l-27 -45 -122 0 c-75 0 -123 -4 -123 -10 0 -15 293 -13 308 2 15 15 16 98 2 98 -6 0 -23 -20 -38 -45z" transform="translate(0,64) scale(0.1,-0.1)" stroke="none" fill="#EA9D28"/>

<path d="M40 330 c0 -6 35 -10 85 -10 78 0 85 -2 85 -20 0 -18 -7 -20 -86 -20 -54 0 -83 -4 -79 -10 4 -6 63 -10 146 -10 86 0 139 4 139 10 0 6 -15 10 -34 10 -22 0 -36 6 -40 16 -9 24 -9 24 29 24 19 0 35 5 35 10 0 6 -53 10 -140 10 -87 0 -140 -4 -140 -10z" transform="translate(0,64) scale(0.1,-0.1)" stroke="none" fill="#EA9D28"/>

<path d="M210 591 c-73 -20 -82 -31 -139 -164 -33 -75 -47 -162 -29 -173 5 -3 6 -10 3 -15 -4 -5 0 -17 7 -28 16 -23 145 -160 134 -144 -6 10 24 13 134 13 92 0 139 -4 135 -10 -14 -22 11 -8 63 37 73 62 133 189 83 176 -11 -3 -21 2 -25 12 -13 35 24 49 44 18 9 -14 10 -9 5 25 -12 90 -89 202 -165 242 -54 27 -171 33 -250 11z m110 -261 c0 -5 -16 -10 -35 -10 -38 0 -38 0 -29 -24 4 -10 18 -16 40 -16 19 0 34 -4 34 -10 0 -13 -277 -13 -285 0 -4 6 25 10 79 10 79 0 86 2 86 20 0 18 -7 20 -85 20 -50 0 -85 4 -85 10 0 6 53 10 140 10 87 0 140 -4 140 -10z m160 -103 c0 -24 -5 -48 -12 -55 -15 -15 -308 -17 -308 -2 0 6 48 10 123 10 l122 0 27 45 c15 25 32 45 38 45 5 0 10 -19 10 -43z m-150 2 c0 -5 -62 -9 -140 -9 -89 0 -140 4 -140 10 0 7 50 10 140 9 77 0 140 -5 140 -10z m130 -119 c0 -6 -57 -10 -150 -10 -93 0 -150 4 -150 10 0 6 57 10 150 10 93 0 150 -4 150 -10z" transform="translate(0,64) scale(0.1,-0.1)" stroke="none" fill="#43682B"/>

</g>

<g id="1" transform="translate(66.0,0)scale(1,1)">

<path d="M576 321 c-10 -16 5 -42 23 -39 21 4 21 42 -1 46 -9 2 -19 -1 -22 -7z" transform="translate(0,64) scale(0.1,-0.1)" stroke="none" fill="#EA9D28"/>

<path d="M390 59 c-19 -4 -62 -6 -95 -3 -42 3 -54 2 -40 -5 26 -12 146 -13 165 -1 22 14 9 18 -30 9z" transform="translate(0,64) scale(0.1,-0.1)" stroke="none" fill="#43682B"/>

<path d="M50 230 c0 -6 51 -10 140 -10 78 0 140 4 140 9 0 5 -63 10 -140 10 -90 1 -140 -2 -140 -9z" transform="translate(0,64) scale(0.1,-0.1)" stroke="none" fill="#EA9D28"/>

<path d="M160 110 c0 -6 57 -10 150 -10 93 0 150 4 150 10 0 6 -57 10 -150 10 -93 0 -150 -4 -150 -10z" transform="translate(0,64) scale(0.1,-0.1)" stroke="none" fill="#EA9D28"/>

<path d="M186 70 c5 -5 59 -10 119 -10 141 -1 144 -1 150 11 4 5 -50 9 -136 9 -95 0 -140 -3 -133 -10z" transform="translate(0,64) scale(0.1,-0.1)" stroke="none" fill="#EA9D28"/>

<path d="M432 225 l-27 -45 -122 0 c-75 0 -123 -4 -123 -10 0 -15 293 -13 308 2 15 15 16 98 2 98 -6 0 -23 -20 -38 -45z" transform="translate(0,64) scale(0.1,-0.1)" stroke="none" fill="#EA9D28"/>

<path d="M40 330 c0 -6 35 -10 85 -10 78 0 85 -2 85 -20 0 -18 -7 -20 -86 -20 -54 0 -83 -4 -79 -10 4 -6 63 -10 146 -10 86 0 139 4 139 10 0 6 -15 10 -34 10 -22 0 -36 6 -40 16 -9 24 -9 24 29 24 19 0 35 5 35 10 0 6 -53 10 -140 10 -87 0 -140 -4 -140 -10z" transform="translate(0,64) scale(0.1,-0.1)" stroke="none" fill="#EA9D28"/>

<path d="M210 591 c-73 -20 -82 -31 -139 -164 -33 -75 -47 -162 -29 -173 5 -3 6 -10 3 -15 -4 -5 0 -17 7 -28 16 -23 145 -160 134 -144 -6 10 24 13 134 13 92 0 139 -4 135 -10 -14 -22 11 -8 63 37 73 62 133 189 83 176 -11 -3 -21 2 -25 12 -13 35 24 49 44 18 9 -14 10 -9 5 25 -12 90 -89 202 -165 242 -54 27 -171 33 -250 11z m110 -261 c0 -5 -16 -10 -35 -10 -38 0 -38 0 -29 -24 4 -10 18 -16 40 -16 19 0 34 -4 34 -10 0 -13 -277 -13 -285 0 -4 6 25 10 79 10 79 0 86 2 86 20 0 18 -7 20 -85 20 -50 0 -85 4 -85 10 0 6 53 10 140 10 87 0 140 -4 140 -10z m160 -103 c0 -24 -5 -48 -12 -55 -15 -15 -308 -17 -308 -2 0 6 48 10 123 10 l122 0 27 45 c15 25 32 45 38 45 5 0 10 -19 10 -43z m-150 2 c0 -5 -62 -9 -140 -9 -89 0 -140 4 -140 10 0 7 50 10 140 9 77 0 140 -5 140 -10z m130 -119 c0 -6 -57 -10 -150 -10 -93 0 -150 4 -150 10 0 6 57 10 150 10 93 0 150 -4 150 -10z" transform="translate(0,64) scale(0.1,-0.1)" stroke="none" fill="#43682B"/>

</g>

<g id="2" transform="translate(132.0,0)scale(1,1)">

<path d="M576 321 c-10 -16 5 -42 23 -39 21 4 21 42 -1 46 -9 2 -19 -1 -22 -7z" transform="translate(0,64) scale(0.1,-0.1)" stroke="none" fill="#EA9D28"/>

<path d="M390 59 c-19 -4 -62 -6 -95 -3 -42 3 -54 2 -40 -5 26 -12 146 -13 165 -1 22 14 9 18 -30 9z" transform="translate(0,64) scale(0.1,-0.1)" stroke="none" fill="#43682B"/>

<path d="M50 230 c0 -6 51 -10 140 -10 78 0 140 4 140 9 0 5 -63 10 -140 10 -90 1 -140 -2 -140 -9z" transform="translate(0,64) scale(0.1,-0.1)" stroke="none" fill="#EA9D28"/>

<path d="M160 110 c0 -6 57 -10 150 -10 93 0 150 4 150 10 0 6 -57 10 -150 10 -93 0 -150 -4 -150 -10z" transform="translate(0,64) scale(0.1,-0.1)" stroke="none" fill="#EA9D28"/>

<path d="M186 70 c5 -5 59 -10 119 -10 141 -1 144 -1 150 11 4 5 -50 9 -136 9 -95 0 -140 -3 -133 -10z" transform="translate(0,64) scale(0.1,-0.1)" stroke="none" fill="#EA9D28"/>

<path d="M432 225 l-27 -45 -122 0 c-75 0 -123 -4 -123 -10 0 -15 293 -13 308 2 15 15 16 98 2 98 -6 0 -23 -20 -38 -45z" transform="translate(0,64) scale(0.1,-0.1)" stroke="none" fill="#EA9D28"/>

<path d="M40 330 c0 -6 35 -10 85 -10 78 0 85 -2 85 -20 0 -18 -7 -20 -86 -20 -54 0 -83 -4 -79 -10 4 -6 63 -10 146 -10 86 0 139 4 139 10 0 6 -15 10 -34 10 -22 0 -36 6 -40 16 -9 24 -9 24 29 24 19 0 35 5 35 10 0 6 -53 10 -140 10 -87 0 -140 -4 -140 -10z" transform="translate(0,64) scale(0.1,-0.1)" stroke="none" fill="#EA9D28"/>

<path d="M210 591 c-73 -20 -82 -31 -139 -164 -33 -75 -47 -162 -29 -173 5 -3 6 -10 3 -15 -4 -5 0 -17 7 -28 16 -23 145 -160 134 -144 -6 10 24 13 134 13 92 0 139 -4 135 -10 -14 -22 11 -8 63 37 73 62 133 189 83 176 -11 -3 -21 2 -25 12 -13 35 24 49 44 18 9 -14 10 -9 5 25 -12 90 -89 202 -165 242 -54 27 -171 33 -250 11z m110 -261 c0 -5 -16 -10 -35 -10 -38 0 -38 0 -29 -24 4 -10 18 -16 40 -16 19 0 34 -4 34 -10 0 -13 -277 -13 -285 0 -4 6 25 10 79 10 79 0 86 2 86 20 0 18 -7 20 -85 20 -50 0 -85 4 -85 10 0 6 53 10 140 10 87 0 140 -4 140 -10z m160 -103 c0 -24 -5 -48 -12 -55 -15 -15 -308 -17 -308 -2 0 6 48 10 123 10 l122 0 27 45 c15 25 32 45 38 45 5 0 10 -19 10 -43z m-150 2 c0 -5 -62 -9 -140 -9 -89 0 -140 4 -140 10 0 7 50 10 140 9 77 0 140 -5 140 -10z m130 -119 c0 -6 -57 -10 -150 -10 -93 0 -150 4 -150 10 0 6 57 10 150 10 93 0 150 -4 150 -10z" transform="translate(0,64) scale(0.1,-0.1)" stroke="none" fill="#43682B"/>

</g>

<g id="3" transform="translate(198.0,0)scale(1,1)">

<path d="M576 321 c-10 -16 5 -42 23 -39 21 4 21 42 -1 46 -9 2 -19 -1 -22 -7z" transform="translate(0,64) scale(0.1,-0.1)" stroke="none" fill="#EA9D28"/>

<path d="M390 59 c-19 -4 -62 -6 -95 -3 -42 3 -54 2 -40 -5 26 -12 146 -13 165 -1 22 14 9 18 -30 9z" transform="translate(0,64) scale(0.1,-0.1)" stroke="none" fill="#43682B"/>

<path d="M50 230 c0 -6 51 -10 140 -10 78 0 140 4 140 9 0 5 -63 10 -140 10 -90 1 -140 -2 -140 -9z" transform="translate(0,64) scale(0.1,-0.1)" stroke="none" fill="#EA9D28"/>

<path d="M160 110 c0 -6 57 -10 150 -10 93 0 150 4 150 10 0 6 -57 10 -150 10 -93 0 -150 -4 -150 -10z" transform="translate(0,64) scale(0.1,-0.1)" stroke="none" fill="#EA9D28"/>

<path d="M186 70 c5 -5 59 -10 119 -10 141 -1 144 -1 150 11 4 5 -50 9 -136 9 -95 0 -140 -3 -133 -10z" transform="translate(0,64) scale(0.1,-0.1)" stroke="none" fill="#EA9D28"/>

<path d="M432 225 l-27 -45 -122 0 c-75 0 -123 -4 -123 -10 0 -15 293 -13 308 2 15 15 16 98 2 98 -6 0 -23 -20 -38 -45z" transform="translate(0,64) scale(0.1,-0.1)" stroke="none" fill="#EA9D28"/>

<path d="M40 330 c0 -6 35 -10 85 -10 78 0 85 -2 85 -20 0 -18 -7 -20 -86 -20 -54 0 -83 -4 -79 -10 4 -6 63 -10 146 -10 86 0 139 4 139 10 0 6 -15 10 -34 10 -22 0 -36 6 -40 16 -9 24 -9 24 29 24 19 0 35 5 35 10 0 6 -53 10 -140 10 -87 0 -140 -4 -140 -10z" transform="translate(0,64) scale(0.1,-0.1)" stroke="none" fill="#EA9D28"/>

<path d="M210 591 c-73 -20 -82 -31 -139 -164 -33 -75 -47 -162 -29 -173 5 -3 6 -10 3 -15 -4 -5 0 -17 7 -28 16 -23 145 -160 134 -144 -6 10 24 13 134 13 92 0 139 -4 135 -10 -14 -22 11 -8 63 37 73 62 133 189 83 176 -11 -3 -21 2 -25 12 -13 35 24 49 44 18 9 -14 10 -9 5 25 -12 90 -89 202 -165 242 -54 27 -171 33 -250 11z m110 -261 c0 -5 -16 -10 -35 -10 -38 0 -38 0 -29 -24 4 -10 18 -16 40 -16 19 0 34 -4 34 -10 0 -13 -277 -13 -285 0 -4 6 25 10 79 10 79 0 86 2 86 20 0 18 -7 20 -85 20 -50 0 -85 4 -85 10 0 6 53 10 140 10 87 0 140 -4 140 -10z m160 -103 c0 -24 -5 -48 -12 -55 -15 -15 -308 -17 -308 -2 0 6 48 10 123 10 l122 0 27 45 c15 25 32 45 38 45 5 0 10 -19 10 -43z m-150 2 c0 -5 -62 -9 -140 -9 -89 0 -140 4 -140 10 0 7 50 10 140 9 77 0 140 -5 140 -10z m130 -119 c0 -6 -57 -10 -150 -10 -93 0 -150 4 -150 10 0 6 57 10 150 10 93 0 150 -4 150 -10z" transform="translate(0,64) scale(0.1,-0.1)" stroke="none" fill="#43682B"/>

</g>

<g id="4" transform="translate(264.0,0)scale(1,1)">

<path d="M576 321 c-10 -16 5 -42 23 -39 21 4 21 42 -1 46 -9 2 -19 -1 -22 -7z" transform="translate(0,64) scale(0.1,-0.1)" stroke="none" fill="#EA9D28"/>

<path d="M390 59 c-19 -4 -62 -6 -95 -3 -42 3 -54 2 -40 -5 26 -12 146 -13 165 -1 22 14 9 18 -30 9z" transform="translate(0,64) scale(0.1,-0.1)" stroke="none" fill="#43682B"/>

<path d="M50 230 c0 -6 51 -10 140 -10 78 0 140 4 140 9 0 5 -63 10 -140 10 -90 1 -140 -2 -140 -9z" transform="translate(0,64) scale(0.1,-0.1)" stroke="none" fill="#EA9D28"/>

<path d="M160 110 c0 -6 57 -10 150 -10 93 0 150 4 150 10 0 6 -57 10 -150 10 -93 0 -150 -4 -150 -10z" transform="translate(0,64) scale(0.1,-0.1)" stroke="none" fill="#EA9D28"/>

<path d="M186 70 c5 -5 59 -10 119 -10 141 -1 144 -1 150 11 4 5 -50 9 -136 9 -95 0 -140 -3 -133 -10z" transform="translate(0,64) scale(0.1,-0.1)" stroke="none" fill="#EA9D28"/>

<path d="M432 225 l-27 -45 -122 0 c-75 0 -123 -4 -123 -10 0 -15 293 -13 308 2 15 15 16 98 2 98 -6 0 -23 -20 -38 -45z" transform="translate(0,64) scale(0.1,-0.1)" stroke="none" fill="#EA9D28"/>

<path d="M40 330 c0 -6 35 -10 85 -10 78 0 85 -2 85 -20 0 -18 -7 -20 -86 -20 -54 0 -83 -4 -79 -10 4 -6 63 -10 146 -10 86 0 139 4 139 10 0 6 -15 10 -34 10 -22 0 -36 6 -40 16 -9 24 -9 24 29 24 19 0 35 5 35 10 0 6 -53 10 -140 10 -87 0 -140 -4 -140 -10z" transform="translate(0,64) scale(0.1,-0.1)" stroke="none" fill="#EA9D28"/>

<path d="M210 591 c-73 -20 -82 -31 -139 -164 -33 -75 -47 -162 -29 -173 5 -3 6 -10 3 -15 -4 -5 0 -17 7 -28 16 -23 145 -160 134 -144 -6 10 24 13 134 13 92 0 139 -4 135 -10 -14 -22 11 -8 63 37 73 62 133 189 83 176 -11 -3 -21 2 -25 12 -13 35 24 49 44 18 9 -14 10 -9 5 25 -12 90 -89 202 -165 242 -54 27 -171 33 -250 11z m110 -261 c0 -5 -16 -10 -35 -10 -38 0 -38 0 -29 -24 4 -10 18 -16 40 -16 19 0 34 -4 34 -10 0 -13 -277 -13 -285 0 -4 6 25 10 79 10 79 0 86 2 86 20 0 18 -7 20 -85 20 -50 0 -85 4 -85 10 0 6 53 10 140 10 87 0 140 -4 140 -10z m160 -103 c0 -24 -5 -48 -12 -55 -15 -15 -308 -17 -308 -2 0 6 48 10 123 10 l122 0 27 45 c15 25 32 45 38 45 5 0 10 -19 10 -43z m-150 2 c0 -5 -62 -9 -140 -9 -89 0 -140 4 -140 10 0 7 50 10 140 9 77 0 140 -5 140 -10z m130 -119 c0 -6 -57 -10 -150 -10 -93 0 -150 4 -150 10 0 6 57 10 150 10 93 0 150 -4 150 -10z" transform="translate(0,64) scale(0.1,-0.1)" stroke="none" fill="#43682B"/>

</g>

</g>
</svg>