<?xml version="1.0" standalone="no"?>
<!DOCTYPE svg PUBLIC "-//W3C//DTD SVG 20010904//EN"
 "http://www.w3.org/TR/2001/REC-SVG-20010904/DTD/svg10.dtd">
<svg version="1.0" xmlns="http://www.w3.org/2000/svg" 
width="121.000000pt" height="157.000000pt" viewBox="0 0 121.000000 157.000000"
preserveAspectRatio = "xMidYMid meet" >
<metadata>
Created by ZoeQU, 2022
</metadata>
<rect width="121.000000" height="157.000000" fill="#394E52"/>
<path d="M1117 800 c-9 -24 -19 -31 -52 -38 l-40 -8 -7 -59 c-3 -33 -9 -73 -13 -88 -8 -28 -7 -28 31 -21 63 11 100 46 108 101 16 116 0 184 -27 113z" transform="translate(0.000000,157.000000) scale(0.100000,-0.100000)" stroke="none" fill="#B28D77"/>

<path d="M79 1389 c-10 -21 -19 -58 -19 -82 0 -40 5 -48 54 -95 49 -47 54 -56 54 -94 0 -24 10 -90 21 -147 12 -57 21 -104 21 -105 0 -1 30 -1 68 0 63 1 65 0 37 -12 -16 -7 -45 -13 -62 -14 l-33 0 0 -65 c0 -74 3 -78 79 -79 62 -1 55 -18 -14 -36 -49 -12 -55 -17 -50 -35 3 -11 10 -56 16 -100 13 -90 63 -302 84 -352 8 -18 21 -33 30 -33 9 0 31 -11 48 -24 43 -33 79 -40 122 -26 27 9 41 21 51 46 16 37 18 80 5 88 -4 3 -11 34 -14 70 -5 52 -18 88 -70 193 -46 92 -81 181 -122 318 -32 105 -71 217 -88 250 -24 48 -26 57 -11 46 11 -7 2 2 -18 21 -35 32 -36 36 -21 51 21 21 11 32 -16 17 -27 -14 -27 1 0 25 16 15 19 27 15 57 -4 21 -9 56 -12 78 -7 49 -36 71 -95 74 -38 2 -42 0 -60 -35z m101 -39 c0 -5 -4 -10 -10 -10 -5 0 -10 5 -10 10 0 6 5 10 10 10 6 0 10 -4 10 -10z m80 -350 c-20 -13 -43 -13 -35 0 3 6 16 10 28 10 18 0 19 -2 7 -10z m165 -471 c0 -21 -64 -33 -99 -20 -37 15 -28 23 32 32 58 8 67 6 67 -12z m60 -169 c-4 -6 -11 -8 -16 -5 -5 3 -6 0 -3 -8 6 -15 -24 -27 -83 -33 -29 -3 -32 0 -29 19 2 18 11 23 47 28 73 10 91 10 84 -1z m-12 -187 c-7 -2 -21 -2 -30 0 -10 3 -4 5 12 5 17 0 24 -2 18 -5z" transform="translate(0.000000,157.000000) scale(0.100000,-0.100000)" stroke="none" fill="#3C6F7D"/>

<path d="M283 1168 c-43 -21 -50 -13 247 -294 123 -116 204 -176 315 -232 111 -55 137 -60 155 -27 8 15 13 45 12 68 -2 62 5 77 37 77 58 0 102 101 64 145 -28 32 -138 106 -222 149 -96 49 -152 62 -456 111 -105 17 -122 17 -152 3z m125 -60 c-6 -18 -28 -21 -28 -4 0 9 7 16 16 16 9 0 14 -5 12 -12z m140 -60 c16 -16 -3 -48 -28 -48 -35 0 -25 54 11 59 3 1 10 -4 17 -11z m126 -84 c9 -3 16 -15 16 -26 0 -30 -54 -21 -58 10 -3 23 11 28 42 16z m130 -72 c9 -14 -12 -35 -28 -29 -23 9 -20 37 3 37 11 0 22 -4 25 -8z m140 -87 c3 -9 -1 -18 -10 -22 -19 -7 -28 2 -21 22 8 19 23 19 31 0z" transform="translate(0.000000,157.000000) scale(0.100000,-0.100000)" stroke="none" fill="#2B3032"/>

</svg>