<?xml version="1.0" standalone="no"?>
<!DOCTYPE svg PUBLIC "-//W3C//DTD SVG 20010904//EN"
 "http://www.w3.org/TR/2001/REC-SVG-20010904/DTD/svg10.dtd">
<svg version="1.0" xmlns="http://www.w3.org/2000/svg" 
width="138.000000pt" height="172.000000pt" viewBox="0 0 138.000000 172.000000"
preserveAspectRatio = "xMidYMid meet" >
<metadata>
Created by ZoeQU, 2022
</metadata>
<rect width="138.000000" height="172.000000" fill="#39281A"/>
<path d="M420 638 c-36 -22 -119 -67 -185 -100 -66 -33 -109 -56 -95 -53 35 10 259 122 270 136 3 3 19 14 37 23 17 9 35 20 38 26 9 14 7 13 -65 -32z" transform="translate(0.000000,172.000000) scale(0.100000,-0.100000)" stroke="none" fill="#D78140"/>

<path d="M762 943 c-39 -56 -128 -147 -222 -227 -25 -21 -38 -34 -30 -30 18 9 115 92 174 149 45 43 96 106 115 143 20 38 5 24 -37 -35z" transform="translate(0.000000,172.000000) scale(0.100000,-0.100000)" stroke="none" fill="#D78140"/>

<path d="M86 1173 c-15 -30 -22 -293 -8 -293 4 0 34 28 67 63 l60 62 -60 -58 -61 -57 2 133 c1 80 6 142 13 155 6 12 9 22 7 22 -3 0 -12 -12 -20 -27z" transform="translate(0.000000,172.000000) scale(0.100000,-0.100000)" stroke="none" fill="#D78140"/>

<path d="M82 467 c-6 -7 -11 -82 -11 -185 -2 -159 0 -172 16 -171 10 0 14 2 8 5 -16 7 -10 345 7 355 8 5 9 9 2 9 -6 0 -16 -6 -22 -13z" transform="translate(0.000000,172.000000) scale(0.100000,-0.100000)" stroke="none" fill="#D78140"/>

<path d="M745 1624 c11 -4 26 -11 33 -17 8 -6 37 -11 67 -12 29 0 60 -7 69 -14 9 -7 25 -11 35 -8 11 3 21 2 23 -2 2 -3 26 -17 53 -31 65 -32 173 -144 181 -187 3 -18 10 -30 15 -27 5 3 9 -1 9 -9 0 -8 7 -20 15 -27 9 -8 13 -22 9 -39 -5 -25 -5 -25 10 -7 14 17 12 24 -19 87 -49 96 -139 189 -223 230 -92 45 -100 47 -162 53 -30 3 -73 7 -95 10 -22 3 -31 3 -20 0z" transform="translate(0.000000,172.000000) scale(0.100000,-0.100000)" stroke="none" fill="#96481C"/>

<path d="M697 1191 c85 -4 137 -11 145 -19 18 -18 -24 -141 -68 -193 -19 -23 -42 -55 -50 -71 -8 -15 -18 -28 -22 -28 -4 0 -41 -33 -83 -73 -80 -79 -214 -172 -320 -224 -147 -72 -178 -85 -197 -79 -34 11 -42 -32 -42 -224 0 -209 -8 -197 110 -154 92 34 85 42 -8 9 -39 -14 -76 -25 -82 -25 -8 0 -10 56 -8 176 2 145 6 178 18 185 8 4 67 32 131 62 130 61 251 131 319 185 172 137 312 321 322 422 3 32 0 36 -32 47 -20 7 -84 11 -150 11 l-115 -1 132 -6z" transform="translate(0.000000,172.000000) scale(0.100000,-0.100000)" stroke="none" fill="#E7D7BB"/>

<path d="M640 1609 c-73 -13 -243 -101 -295 -152 -6 -7 -35 -32 -63 -57 -29 -24 -52 -47 -52 -50 0 -3 -21 -28 -46 -56 -88 -94 -96 -117 -98 -269 l-2 -134 61 57 c161 151 250 210 375 248 61 19 255 18 308 0 23 -9 44 -11 47 -6 13 21 -76 32 -236 28 -152 -4 -167 -6 -207 -29 -117 -66 -154 -90 -192 -125 -65 -60 -94 -83 -101 -79 -4 3 -9 -5 -12 -16 -3 -12 -10 -18 -16 -14 -25 15 -6 245 19 245 4 0 22 22 41 50 19 27 40 50 47 50 6 0 12 7 12 15 0 9 7 18 15 21 8 4 15 10 15 15 0 16 64 69 78 64 6 -2 12 2 12 10 0 8 3 15 8 15 4 0 25 16 47 35 22 19 45 35 51 35 6 0 17 7 24 15 7 8 21 15 31 15 10 0 43 13 73 29 33 19 73 31 103 33 39 2 43 4 18 8 -16 3 -46 3 -65 -1z" transform="translate(0.000000,172.000000) scale(0.100000,-0.100000)" stroke="none" fill="#96481C"/>

<path d="M665 1635 c-5 -2 -35 -11 -65 -20 -163 -49 -335 -185 -480 -377 l-60 -79 0 -145 c0 -109 3 -144 13 -144 6 0 30 17 53 38 170 155 282 231 399 268 24 8 32 13 19 13 -45 2 -177 -62 -248 -119 -59 -47 -155 -132 -180 -159 -17 -17 -33 -31 -38 -31 -4 0 -7 61 -6 136 l0 135 41 61 c54 81 197 230 272 283 86 61 199 112 279 126 139 24 291 -4 397 -72 96 -61 187 -180 223 -290 l17 -51 -57 -76 c-158 -211 -384 -487 -510 -621 -142 -151 -231 -222 -366 -290 -68 -34 -112 -59 -98 -55 55 14 239 119 297 170 168 147 377 388 641 734 115 151 112 140 62 247 -98 212 -274 324 -506 322 -49 0 -93 -2 -99 -4z" transform="translate(0.000000,172.000000) scale(0.100000,-0.100000)" stroke="none" fill="#E7D7BB"/>

<path d="M1259 1197 c-14 -18 -29 -41 -33 -52 -3 -11 -17 -27 -30 -35 -22 -13 -95 -112 -96 -129 -1 -3 -17 -24 -36 -46 -19 -22 -70 -83 -112 -135 -42 -52 -84 -102 -92 -111 -8 -9 -44 -49 -80 -90 -117 -133 -273 -279 -299 -279 -6 0 -11 -4 -11 -9 0 -11 -221 -121 -242 -121 -8 0 -23 -7 -34 -15 -10 -8 -29 -15 -41 -15 -12 0 -25 -5 -28 -10 -16 -26 -21 9 -19 132 1 73 3 141 4 150 2 9 22 24 44 34 66 27 118 53 161 79 22 13 47 27 55 30 8 4 22 11 30 16 8 5 23 12 33 15 9 4 17 11 17 16 0 5 18 17 40 27 22 10 65 41 97 70 32 29 70 64 85 77 29 27 44 30 51 12 2 -8 8 -9 13 -4 5 5 4 11 -3 13 -20 7 -15 37 7 51 11 7 20 19 20 27 0 8 5 15 10 15 6 0 10 5 10 10 0 6 9 21 21 33 11 12 25 31 30 42 15 30 33 61 47 78 7 8 9 22 6 31 -6 16 -7 15 -18 -1 -7 -10 -19 -34 -26 -53 -8 -19 -18 -39 -22 -45 -5 -5 -23 -32 -41 -60 -51 -79 -198 -216 -301 -282 -28 -18 -56 -36 -61 -41 -6 -5 -15 -11 -20 -13 -6 -2 -48 -24 -95 -49 -47 -25 -114 -56 -148 -70 l-64 -25 -1 -173 c-1 -94 1 -172 4 -172 25 0 280 105 322 133 14 9 31 17 37 17 5 0 10 4 10 9 0 5 12 12 26 15 14 4 84 66 161 144 177 178 198 201 279 302 38 47 75 91 82 98 7 8 25 30 40 50 15 21 37 48 50 62 12 14 22 28 22 32 0 3 6 13 13 20 7 7 42 51 77 98 36 47 69 88 73 91 5 4 7 14 5 23 -2 13 -9 9 -29 -17z" transform="translate(0.000000,172.000000) scale(0.100000,-0.100000)" stroke="none" fill="#96481C"/>

<path d="M525 1176 c-119 -39 -229 -113 -399 -268 -23 -21 -45 -38 -51 -38 -11 0 -12 -366 -1 -377 3 -4 6 -1 6 6 0 8 7 10 21 6 20 -7 46 4 198 78 106 52 240 145 320 224 42 40 79 73 83 73 4 0 14 13 22 28 8 16 31 48 50 71 44 52 86 175 67 194 -18 18 -264 21 -316 3z" transform="translate(0.000000,172.000000) scale(0.100000,-0.100000)" stroke="none" fill="#625B4A"/>

<path d="M686 1622 c-4 -6 6 -12 21 -15 18 -2 10 -5 -19 -6 -32 0 -66 -11 -103 -31 -30 -16 -64 -30 -74 -30 -10 0 -24 -7 -31 -15 -7 -8 -18 -15 -24 -15 -6 0 -29 -16 -51 -35 -22 -19 -43 -35 -47 -35 -5 0 -8 -7 -8 -16 0 -8 -5 -12 -11 -8 -6 3 -23 -6 -39 -21 -16 -15 -33 -24 -39 -21 -7 5 -8 1 -4 -9 7 -19 -18 -40 -27 -24 -4 5 -17 -3 -31 -18 -17 -20 -18 -23 -3 -10 25 21 34 22 34 2 0 -8 -6 -15 -12 -15 -7 0 -28 -23 -47 -50 -19 -28 -37 -50 -41 -50 -25 0 -44 -230 -19 -245 6 -4 13 2 16 14 3 11 8 19 12 16 7 -4 36 19 101 79 38 35 75 59 192 125 40 23 55 25 207 29 161 4 249 -7 236 -28 -3 -5 -13 -7 -23 -4 -15 5 -15 4 -1 -5 13 -8 15 -19 9 -53 -7 -36 -6 -40 5 -25 12 16 13 16 19 1 4 -9 0 -24 -9 -34 -8 -9 -15 -21 -15 -27 0 -6 -8 -17 -17 -24 -15 -13 -16 -11 -10 11 6 24 5 24 -9 5 -9 -12 -11 -21 -4 -23 17 -6 11 -26 -15 -54 -14 -15 -25 -32 -25 -38 0 -5 -4 -10 -10 -10 -5 0 -10 -7 -10 -15 0 -8 -9 -20 -20 -27 -22 -14 -27 -44 -7 -51 7 -2 8 -8 3 -13 -5 -5 -11 -4 -13 4 -7 18 -22 15 -51 -12 -15 -13 -53 -48 -85 -77 -32 -29 -75 -60 -97 -70 -22 -10 -40 -22 -40 -27 0 -5 -8 -12 -17 -16 -10 -3 -25 -10 -33 -15 -8 -5 -22 -12 -30 -16 -8 -3 -33 -17 -55 -30 -43 -26 -95 -52 -161 -79 -22 -10 -42 -25 -44 -34 -1 -9 -3 -77 -4 -150 -2 -123 3 -158 19 -132 3 5 16 10 28 10 12 0 31 7 41 15 11 8 26 15 34 15 21 0 242 110 242 121 0 5 5 9 11 9 26 0 182 146 299 279 36 41 72 81 80 90 8 9 50 59 92 111 42 52 93 113 112 135 19 22 35 43 36 46 0 4 16 31 36 60 34 51 70 86 80 77 4 -5 -56 -88 -83 -116 -13 -14 -16 -22 -8 -22 2 0 32 37 67 83 34 45 54 75 44 67 -18 -14 -18 -13 -11 10 4 13 20 39 34 57 22 28 27 30 33 15 4 -9 7 -11 7 -4 1 7 -4 22 -10 33 -10 20 -11 20 -25 2 -14 -17 -15 -16 -10 8 4 17 0 31 -9 39 -8 7 -15 19 -15 27 0 8 -4 12 -9 9 -5 -3 -12 9 -15 27 -8 43 -116 155 -181 187 -27 14 -51 28 -53 31 -2 4 -12 5 -23 2 -10 -3 -26 1 -35 8 -9 7 -40 14 -69 14 -30 1 -59 6 -67 12 -19 16 -85 27 -92 15z m-261 -182 c-10 -11 -21 -18 -23 -15 -3 3 3 12 14 20 27 20 30 18 9 -5z m685 -50 c0 -5 -7 -10 -16 -10 -8 0 -12 5 -9 10 3 6 10 10 16 10 5 0 9 -4 9 -10z m-220 -240 c0 -5 -5 -10 -11 -10 -5 0 -7 5 -4 10 3 6 8 10 11 10 2 0 4 -4 4 -10z m150 -214 c0 -3 -4 -8 -10 -11 -5 -3 -10 -1 -10 4 0 6 5 11 10 11 6 0 10 -2 10 -4z m-330 -160 c0 -3 -4 -8 -10 -11 -5 -3 -10 -1 -10 4 0 6 5 11 10 11 6 0 10 -2 10 -4z m20 -156 c0 -5 -2 -10 -4 -10 -3 0 -8 5 -11 10 -3 6 -1 10 4 10 6 0 11 -4 11 -10z" transform="translate(0.000000,172.000000) scale(0.100000,-0.100000)" stroke="none" fill="#D78140"/>

</svg>