<?xml version="1.0" standalone="no"?>
<!DOCTYPE svg PUBLIC "-//W3C//DTD SVG 20010904//EN"
 "http://www.w3.org/TR/2001/REC-SVG-20010904/DTD/svg10.dtd">
<svg version="1.0" xmlns="http://www.w3.org/2000/svg" 
width="80.000000pt" height="56.000000pt" viewBox="0 0 80.000000 56.000000"
preserveAspectRatio = "xMidYMid meet" >
<metadata>
Created by ZoeQU, 2022
</metadata>
<rect width="80.000000" height="56.000000" fill="#212131"/>
<path d="M572 408 c-17 -17 -15 -76 2 -94 32 -31 106 1 106 46 0 41 -80 76 -108 48z m57 -84 c2 -2 -8 -4 -22 -4 -18 0 -27 5 -27 15 0 13 4 14 23 4 12 -6 24 -13 26 -15z" transform="translate(0.000000,56.000000) scale(0.100000,-0.100000)" stroke="none" fill="#D29A5B"/>

<path d="M172 488 c-18 -18 -14 -62 7 -86 22 -26 43 -28 76 -6 29 19 34 66 11 90 -18 17 -77 19 -94 2z m23 -37 c3 -5 1 -12 -5 -16 -5 -3 -10 1 -10 9 0 18 6 21 15 7z m35 -41 c12 -8 11 -10 -7 -10 -13 0 -23 5 -23 10 0 13 11 13 30 0z" transform="translate(0.000000,56.000000) scale(0.100000,-0.100000)" stroke="none" fill="#D29A5B"/>

<path d="M260 501 c0 -11 5 -21 10 -21 6 0 10 -15 10 -34 0 -25 -6 -38 -25 -50 -27 -18 -65 -21 -65 -6 0 16 -26 12 -43 -8 -28 -31 -117 -216 -108 -225 4 -4 35 -12 67 -17 32 -5 86 -14 119 -20 87 -16 170 -29 255 -40 141 -18 215 -30 253 -39 20 -5 39 -6 41 -2 5 7 -27 111 -50 166 -7 17 -15 41 -19 55 -3 14 -13 34 -21 45 -12 16 -18 18 -34 7 -26 -16 -58 -15 -76 2 -17 18 -18 69 -2 96 11 18 8 25 -27 59 l-40 40 -122 7 c-121 7 -123 7 -123 -15z m182 -46 c9 -34 3 -45 -23 -45 -13 0 -19 7 -19 24 0 59 28 73 42 21z" transform="translate(0.000000,56.000000) scale(0.100000,-0.100000)" stroke="none" fill="#903F12"/>

</svg>