<?xml version="1.0" standalone="no"?>
<!DOCTYPE svg PUBLIC "-//W3C//DTD SVG 20010904//EN"
 "http://www.w3.org/TR/2001/REC-SVG-20010904/DTD/svg10.dtd">
<svg version="1.0" xmlns="http://www.w3.org/2000/svg" width="232pt" height="328pt" viewBox="0 0 232 328" preserveAspectRatio = "xMidYMid meet" >
<metadata>
Created by ZoeQu, written in 2022
</metadata>
<rect width="232" height="328" fill="#202031"/>
<g id="row0" transform="translate(7,0.0)">
<g id="0" transform="translate(0.0,0)scale(1,1)">

<path d="M240 716 c0 -2 9 -25 20 -51 15 -35 20 -71 21 -143 1 -66 4 -87 9 -67 17 68 9 147 -25 228 -11 27 11 21 61 -17 52 -40 79 -72 99 -118 8 -18 14 -27 15 -20 0 22 -37 86 -67 113 -55 51 -133 95 -133 75z" transform="translate(0,82) scale(0.1,-0.1)" stroke="none" fill="#D29A5B"/>

<path d="M259 352 c-25 -98 -56 -175 -95 -232 -28 -40 -32 -52 -20 -56 31 -12 112 26 160 74 51 51 123 183 131 242 4 26 0 21 -14 -20 -56 -164 -137 -258 -243 -284 -33 -8 -34 -3 -9 32 48 69 115 244 109 288 -2 15 -9 -1 -19 -44z" transform="translate(0,82) scale(0.1,-0.1)" stroke="none" fill="#D29A5B"/>

<path d="M120 770 c0 -6 14 -37 30 -70 28 -55 30 -67 30 -168 0 -90 -5 -127 -30 -215 -17 -59 -35 -117 -42 -130 -6 -12 -14 -27 -17 -33 -3 -7 -21 -33 -39 -59 -44 -64 -38 -75 40 -75 160 0 288 75 370 216 58 101 78 160 78 234 0 111 -31 160 -150 237 -56 37 -142 73 -170 72 -8 0 12 -10 45 -22 131 -49 231 -128 255 -202 37 -112 -28 -296 -145 -411 -74 -73 -139 -101 -251 -111 -93 -8 -100 4 -49 77 41 59 96 216 115 328 17 101 6 192 -31 264 -16 31 -29 59 -29 62 0 3 17 7 38 9 l37 4 -42 1 c-24 1 -43 -3 -43 -8z" transform="translate(0,82) scale(0.1,-0.1)" stroke="none" fill="#D29A5B"/>

<path d="M168 772 c-21 -2 -38 -5 -38 -8 0 -3 13 -31 29 -62 37 -72 48 -163 31 -264 -19 -112 -74 -269 -115 -328 -51 -73 -44 -85 49 -77 166 14 276 95 357 262 68 140 67 252 -3 331 -64 72 -234 152 -310 146z m137 -78 c158 -105 183 -232 86 -429 -49 -99 -115 -168 -183 -191 -75 -25 -85 -14 -44 46 99 143 148 424 96 545 -11 26 -20 49 -20 51 0 11 30 1 65 -22z" transform="translate(0,82) scale(0.1,-0.1)" stroke="none" fill="#903F12"/>

</g>

<g id="1" transform="translate(58.0,0)scale(1,1)">

<path d="M240 716 c0 -2 9 -25 20 -51 15 -35 20 -71 21 -143 1 -66 4 -87 9 -67 17 68 9 147 -25 228 -11 27 11 21 61 -17 52 -40 79 -72 99 -118 8 -18 14 -27 15 -20 0 22 -37 86 -67 113 -55 51 -133 95 -133 75z" transform="translate(0,82) scale(0.1,-0.1)" stroke="none" fill="#D29A5B"/>

<path d="M259 352 c-25 -98 -56 -175 -95 -232 -28 -40 -32 -52 -20 -56 31 -12 112 26 160 74 51 51 123 183 131 242 4 26 0 21 -14 -20 -56 -164 -137 -258 -243 -284 -33 -8 -34 -3 -9 32 48 69 115 244 109 288 -2 15 -9 -1 -19 -44z" transform="translate(0,82) scale(0.1,-0.1)" stroke="none" fill="#D29A5B"/>

<path d="M120 770 c0 -6 14 -37 30 -70 28 -55 30 -67 30 -168 0 -90 -5 -127 -30 -215 -17 -59 -35 -117 -42 -130 -6 -12 -14 -27 -17 -33 -3 -7 -21 -33 -39 -59 -44 -64 -38 -75 40 -75 160 0 288 75 370 216 58 101 78 160 78 234 0 111 -31 160 -150 237 -56 37 -142 73 -170 72 -8 0 12 -10 45 -22 131 -49 231 -128 255 -202 37 -112 -28 -296 -145 -411 -74 -73 -139 -101 -251 -111 -93 -8 -100 4 -49 77 41 59 96 216 115 328 17 101 6 192 -31 264 -16 31 -29 59 -29 62 0 3 17 7 38 9 l37 4 -42 1 c-24 1 -43 -3 -43 -8z" transform="translate(0,82) scale(0.1,-0.1)" stroke="none" fill="#D29A5B"/>

<path d="M168 772 c-21 -2 -38 -5 -38 -8 0 -3 13 -31 29 -62 37 -72 48 -163 31 -264 -19 -112 -74 -269 -115 -328 -51 -73 -44 -85 49 -77 166 14 276 95 357 262 68 140 67 252 -3 331 -64 72 -234 152 -310 146z m137 -78 c158 -105 183 -232 86 -429 -49 -99 -115 -168 -183 -191 -75 -25 -85 -14 -44 46 99 143 148 424 96 545 -11 26 -20 49 -20 51 0 11 30 1 65 -22z" transform="translate(0,82) scale(0.1,-0.1)" stroke="none" fill="#903F12"/>

</g>

<g id="2" transform="translate(116.0,0)scale(1,1)">

<path d="M240 716 c0 -2 9 -25 20 -51 15 -35 20 -71 21 -143 1 -66 4 -87 9 -67 17 68 9 147 -25 228 -11 27 11 21 61 -17 52 -40 79 -72 99 -118 8 -18 14 -27 15 -20 0 22 -37 86 -67 113 -55 51 -133 95 -133 75z" transform="translate(0,82) scale(0.1,-0.1)" stroke="none" fill="#D29A5B"/>

<path d="M259 352 c-25 -98 -56 -175 -95 -232 -28 -40 -32 -52 -20 -56 31 -12 112 26 160 74 51 51 123 183 131 242 4 26 0 21 -14 -20 -56 -164 -137 -258 -243 -284 -33 -8 -34 -3 -9 32 48 69 115 244 109 288 -2 15 -9 -1 -19 -44z" transform="translate(0,82) scale(0.1,-0.1)" stroke="none" fill="#D29A5B"/>

<path d="M120 770 c0 -6 14 -37 30 -70 28 -55 30 -67 30 -168 0 -90 -5 -127 -30 -215 -17 -59 -35 -117 -42 -130 -6 -12 -14 -27 -17 -33 -3 -7 -21 -33 -39 -59 -44 -64 -38 -75 40 -75 160 0 288 75 370 216 58 101 78 160 78 234 0 111 -31 160 -150 237 -56 37 -142 73 -170 72 -8 0 12 -10 45 -22 131 -49 231 -128 255 -202 37 -112 -28 -296 -145 -411 -74 -73 -139 -101 -251 -111 -93 -8 -100 4 -49 77 41 59 96 216 115 328 17 101 6 192 -31 264 -16 31 -29 59 -29 62 0 3 17 7 38 9 l37 4 -42 1 c-24 1 -43 -3 -43 -8z" transform="translate(0,82) scale(0.1,-0.1)" stroke="none" fill="#D29A5B"/>

<path d="M168 772 c-21 -2 -38 -5 -38 -8 0 -3 13 -31 29 -62 37 -72 48 -163 31 -264 -19 -112 -74 -269 -115 -328 -51 -73 -44 -85 49 -77 166 14 276 95 357 262 68 140 67 252 -3 331 -64 72 -234 152 -310 146z m137 -78 c158 -105 183 -232 86 -429 -49 -99 -115 -168 -183 -191 -75 -25 -85 -14 -44 46 99 143 148 424 96 545 -11 26 -20 49 -20 51 0 11 30 1 65 -22z" transform="translate(0,82) scale(0.1,-0.1)" stroke="none" fill="#903F12"/>

</g>

<g id="3" transform="translate(174.0,0)scale(1,1)">

<path d="M240 716 c0 -2 9 -25 20 -51 15 -35 20 -71 21 -143 1 -66 4 -87 9 -67 17 68 9 147 -25 228 -11 27 11 21 61 -17 52 -40 79 -72 99 -118 8 -18 14 -27 15 -20 0 22 -37 86 -67 113 -55 51 -133 95 -133 75z" transform="translate(0,82) scale(0.1,-0.1)" stroke="none" fill="#D29A5B"/>

<path d="M259 352 c-25 -98 -56 -175 -95 -232 -28 -40 -32 -52 -20 -56 31 -12 112 26 160 74 51 51 123 183 131 242 4 26 0 21 -14 -20 -56 -164 -137 -258 -243 -284 -33 -8 -34 -3 -9 32 48 69 115 244 109 288 -2 15 -9 -1 -19 -44z" transform="translate(0,82) scale(0.1,-0.1)" stroke="none" fill="#D29A5B"/>

<path d="M120 770 c0 -6 14 -37 30 -70 28 -55 30 -67 30 -168 0 -90 -5 -127 -30 -215 -17 -59 -35 -117 -42 -130 -6 -12 -14 -27 -17 -33 -3 -7 -21 -33 -39 -59 -44 -64 -38 -75 40 -75 160 0 288 75 370 216 58 101 78 160 78 234 0 111 -31 160 -150 237 -56 37 -142 73 -170 72 -8 0 12 -10 45 -22 131 -49 231 -128 255 -202 37 -112 -28 -296 -145 -411 -74 -73 -139 -101 -251 -111 -93 -8 -100 4 -49 77 41 59 96 216 115 328 17 101 6 192 -31 264 -16 31 -29 59 -29 62 0 3 17 7 38 9 l37 4 -42 1 c-24 1 -43 -3 -43 -8z" transform="translate(0,82) scale(0.1,-0.1)" stroke="none" fill="#D29A5B"/>

<path d="M168 772 c-21 -2 -38 -5 -38 -8 0 -3 13 -31 29 -62 37 -72 48 -163 31 -264 -19 -112 -74 -269 -115 -328 -51 -73 -44 -85 49 -77 166 14 276 95 357 262 68 140 67 252 -3 331 -64 72 -234 152 -310 146z m137 -78 c158 -105 183 -232 86 -429 -49 -99 -115 -168 -183 -191 -75 -25 -85 -14 -44 46 99 143 148 424 96 545 -11 26 -20 49 -20 51 0 11 30 1 65 -22z" transform="translate(0,82) scale(0.1,-0.1)" stroke="none" fill="#903F12"/>

</g>

<g id="4" transform="translate(232.0,0)scale(1,1)">

<path d="M240 716 c0 -2 9 -25 20 -51 15 -35 20 -71 21 -143 1 -66 4 -87 9 -67 17 68 9 147 -25 228 -11 27 11 21 61 -17 52 -40 79 -72 99 -118 8 -18 14 -27 15 -20 0 22 -37 86 -67 113 -55 51 -133 95 -133 75z" transform="translate(0,82) scale(0.1,-0.1)" stroke="none" fill="#D29A5B"/>

<path d="M259 352 c-25 -98 -56 -175 -95 -232 -28 -40 -32 -52 -20 -56 31 -12 112 26 160 74 51 51 123 183 131 242 4 26 0 21 -14 -20 -56 -164 -137 -258 -243 -284 -33 -8 -34 -3 -9 32 48 69 115 244 109 288 -2 15 -9 -1 -19 -44z" transform="translate(0,82) scale(0.1,-0.1)" stroke="none" fill="#D29A5B"/>

<path d="M120 770 c0 -6 14 -37 30 -70 28 -55 30 -67 30 -168 0 -90 -5 -127 -30 -215 -17 -59 -35 -117 -42 -130 -6 -12 -14 -27 -17 -33 -3 -7 -21 -33 -39 -59 -44 -64 -38 -75 40 -75 160 0 288 75 370 216 58 101 78 160 78 234 0 111 -31 160 -150 237 -56 37 -142 73 -170 72 -8 0 12 -10 45 -22 131 -49 231 -128 255 -202 37 -112 -28 -296 -145 -411 -74 -73 -139 -101 -251 -111 -93 -8 -100 4 -49 77 41 59 96 216 115 328 17 101 6 192 -31 264 -16 31 -29 59 -29 62 0 3 17 7 38 9 l37 4 -42 1 c-24 1 -43 -3 -43 -8z" transform="translate(0,82) scale(0.1,-0.1)" stroke="none" fill="#D29A5B"/>

<path d="M168 772 c-21 -2 -38 -5 -38 -8 0 -3 13 -31 29 -62 37 -72 48 -163 31 -264 -19 -112 -74 -269 -115 -328 -51 -73 -44 -85 49 -77 166 14 276 95 357 262 68 140 67 252 -3 331 -64 72 -234 152 -310 146z m137 -78 c158 -105 183 -232 86 -429 -49 -99 -115 -168 -183 -191 -75 -25 -85 -14 -44 46 99 143 148 424 96 545 -11 26 -20 49 -20 51 0 11 30 1 65 -22z" transform="translate(0,82) scale(0.1,-0.1)" stroke="none" fill="#903F12"/>

</g>

</g>
<g id="row1" transform="translate(-22,82.0)">
<g id="0" transform="translate(0.0,0)scale(1,1)">

<path d="M240 716 c0 -2 9 -25 20 -51 15 -35 20 -71 21 -143 1 -66 4 -87 9 -67 17 68 9 147 -25 228 -11 27 11 21 61 -17 52 -40 79 -72 99 -118 8 -18 14 -27 15 -20 0 22 -37 86 -67 113 -55 51 -133 95 -133 75z" transform="translate(0,82) scale(0.1,-0.1)" stroke="none" fill="#D29A5B"/>

<path d="M259 352 c-25 -98 -56 -175 -95 -232 -28 -40 -32 -52 -20 -56 31 -12 112 26 160 74 51 51 123 183 131 242 4 26 0 21 -14 -20 -56 -164 -137 -258 -243 -284 -33 -8 -34 -3 -9 32 48 69 115 244 109 288 -2 15 -9 -1 -19 -44z" transform="translate(0,82) scale(0.1,-0.1)" stroke="none" fill="#D29A5B"/>

<path d="M120 770 c0 -6 14 -37 30 -70 28 -55 30 -67 30 -168 0 -90 -5 -127 -30 -215 -17 -59 -35 -117 -42 -130 -6 -12 -14 -27 -17 -33 -3 -7 -21 -33 -39 -59 -44 -64 -38 -75 40 -75 160 0 288 75 370 216 58 101 78 160 78 234 0 111 -31 160 -150 237 -56 37 -142 73 -170 72 -8 0 12 -10 45 -22 131 -49 231 -128 255 -202 37 -112 -28 -296 -145 -411 -74 -73 -139 -101 -251 -111 -93 -8 -100 4 -49 77 41 59 96 216 115 328 17 101 6 192 -31 264 -16 31 -29 59 -29 62 0 3 17 7 38 9 l37 4 -42 1 c-24 1 -43 -3 -43 -8z" transform="translate(0,82) scale(0.1,-0.1)" stroke="none" fill="#D29A5B"/>

<path d="M168 772 c-21 -2 -38 -5 -38 -8 0 -3 13 -31 29 -62 37 -72 48 -163 31 -264 -19 -112 -74 -269 -115 -328 -51 -73 -44 -85 49 -77 166 14 276 95 357 262 68 140 67 252 -3 331 -64 72 -234 152 -310 146z m137 -78 c158 -105 183 -232 86 -429 -49 -99 -115 -168 -183 -191 -75 -25 -85 -14 -44 46 99 143 148 424 96 545 -11 26 -20 49 -20 51 0 11 30 1 65 -22z" transform="translate(0,82) scale(0.1,-0.1)" stroke="none" fill="#903F12"/>

</g>

<g id="1" transform="translate(58.0,0)scale(1,1)">

<path d="M240 716 c0 -2 9 -25 20 -51 15 -35 20 -71 21 -143 1 -66 4 -87 9 -67 17 68 9 147 -25 228 -11 27 11 21 61 -17 52 -40 79 -72 99 -118 8 -18 14 -27 15 -20 0 22 -37 86 -67 113 -55 51 -133 95 -133 75z" transform="translate(0,82) scale(0.1,-0.1)" stroke="none" fill="#D29A5B"/>

<path d="M259 352 c-25 -98 -56 -175 -95 -232 -28 -40 -32 -52 -20 -56 31 -12 112 26 160 74 51 51 123 183 131 242 4 26 0 21 -14 -20 -56 -164 -137 -258 -243 -284 -33 -8 -34 -3 -9 32 48 69 115 244 109 288 -2 15 -9 -1 -19 -44z" transform="translate(0,82) scale(0.1,-0.1)" stroke="none" fill="#D29A5B"/>

<path d="M120 770 c0 -6 14 -37 30 -70 28 -55 30 -67 30 -168 0 -90 -5 -127 -30 -215 -17 -59 -35 -117 -42 -130 -6 -12 -14 -27 -17 -33 -3 -7 -21 -33 -39 -59 -44 -64 -38 -75 40 -75 160 0 288 75 370 216 58 101 78 160 78 234 0 111 -31 160 -150 237 -56 37 -142 73 -170 72 -8 0 12 -10 45 -22 131 -49 231 -128 255 -202 37 -112 -28 -296 -145 -411 -74 -73 -139 -101 -251 -111 -93 -8 -100 4 -49 77 41 59 96 216 115 328 17 101 6 192 -31 264 -16 31 -29 59 -29 62 0 3 17 7 38 9 l37 4 -42 1 c-24 1 -43 -3 -43 -8z" transform="translate(0,82) scale(0.1,-0.1)" stroke="none" fill="#D29A5B"/>

<path d="M168 772 c-21 -2 -38 -5 -38 -8 0 -3 13 -31 29 -62 37 -72 48 -163 31 -264 -19 -112 -74 -269 -115 -328 -51 -73 -44 -85 49 -77 166 14 276 95 357 262 68 140 67 252 -3 331 -64 72 -234 152 -310 146z m137 -78 c158 -105 183 -232 86 -429 -49 -99 -115 -168 -183 -191 -75 -25 -85 -14 -44 46 99 143 148 424 96 545 -11 26 -20 49 -20 51 0 11 30 1 65 -22z" transform="translate(0,82) scale(0.1,-0.1)" stroke="none" fill="#903F12"/>

</g>

<g id="2" transform="translate(116.0,0)scale(1,1)">

<path d="M240 716 c0 -2 9 -25 20 -51 15 -35 20 -71 21 -143 1 -66 4 -87 9 -67 17 68 9 147 -25 228 -11 27 11 21 61 -17 52 -40 79 -72 99 -118 8 -18 14 -27 15 -20 0 22 -37 86 -67 113 -55 51 -133 95 -133 75z" transform="translate(0,82) scale(0.1,-0.1)" stroke="none" fill="#D29A5B"/>

<path d="M259 352 c-25 -98 -56 -175 -95 -232 -28 -40 -32 -52 -20 -56 31 -12 112 26 160 74 51 51 123 183 131 242 4 26 0 21 -14 -20 -56 -164 -137 -258 -243 -284 -33 -8 -34 -3 -9 32 48 69 115 244 109 288 -2 15 -9 -1 -19 -44z" transform="translate(0,82) scale(0.1,-0.1)" stroke="none" fill="#D29A5B"/>

<path d="M120 770 c0 -6 14 -37 30 -70 28 -55 30 -67 30 -168 0 -90 -5 -127 -30 -215 -17 -59 -35 -117 -42 -130 -6 -12 -14 -27 -17 -33 -3 -7 -21 -33 -39 -59 -44 -64 -38 -75 40 -75 160 0 288 75 370 216 58 101 78 160 78 234 0 111 -31 160 -150 237 -56 37 -142 73 -170 72 -8 0 12 -10 45 -22 131 -49 231 -128 255 -202 37 -112 -28 -296 -145 -411 -74 -73 -139 -101 -251 -111 -93 -8 -100 4 -49 77 41 59 96 216 115 328 17 101 6 192 -31 264 -16 31 -29 59 -29 62 0 3 17 7 38 9 l37 4 -42 1 c-24 1 -43 -3 -43 -8z" transform="translate(0,82) scale(0.1,-0.1)" stroke="none" fill="#D29A5B"/>

<path d="M168 772 c-21 -2 -38 -5 -38 -8 0 -3 13 -31 29 -62 37 -72 48 -163 31 -264 -19 -112 -74 -269 -115 -328 -51 -73 -44 -85 49 -77 166 14 276 95 357 262 68 140 67 252 -3 331 -64 72 -234 152 -310 146z m137 -78 c158 -105 183 -232 86 -429 -49 -99 -115 -168 -183 -191 -75 -25 -85 -14 -44 46 99 143 148 424 96 545 -11 26 -20 49 -20 51 0 11 30 1 65 -22z" transform="translate(0,82) scale(0.1,-0.1)" stroke="none" fill="#903F12"/>

</g>

<g id="3" transform="translate(174.0,0)scale(1,1)">

<path d="M240 716 c0 -2 9 -25 20 -51 15 -35 20 -71 21 -143 1 -66 4 -87 9 -67 17 68 9 147 -25 228 -11 27 11 21 61 -17 52 -40 79 -72 99 -118 8 -18 14 -27 15 -20 0 22 -37 86 -67 113 -55 51 -133 95 -133 75z" transform="translate(0,82) scale(0.1,-0.1)" stroke="none" fill="#D29A5B"/>

<path d="M259 352 c-25 -98 -56 -175 -95 -232 -28 -40 -32 -52 -20 -56 31 -12 112 26 160 74 51 51 123 183 131 242 4 26 0 21 -14 -20 -56 -164 -137 -258 -243 -284 -33 -8 -34 -3 -9 32 48 69 115 244 109 288 -2 15 -9 -1 -19 -44z" transform="translate(0,82) scale(0.1,-0.1)" stroke="none" fill="#D29A5B"/>

<path d="M120 770 c0 -6 14 -37 30 -70 28 -55 30 -67 30 -168 0 -90 -5 -127 -30 -215 -17 -59 -35 -117 -42 -130 -6 -12 -14 -27 -17 -33 -3 -7 -21 -33 -39 -59 -44 -64 -38 -75 40 -75 160 0 288 75 370 216 58 101 78 160 78 234 0 111 -31 160 -150 237 -56 37 -142 73 -170 72 -8 0 12 -10 45 -22 131 -49 231 -128 255 -202 37 -112 -28 -296 -145 -411 -74 -73 -139 -101 -251 -111 -93 -8 -100 4 -49 77 41 59 96 216 115 328 17 101 6 192 -31 264 -16 31 -29 59 -29 62 0 3 17 7 38 9 l37 4 -42 1 c-24 1 -43 -3 -43 -8z" transform="translate(0,82) scale(0.1,-0.1)" stroke="none" fill="#D29A5B"/>

<path d="M168 772 c-21 -2 -38 -5 -38 -8 0 -3 13 -31 29 -62 37 -72 48 -163 31 -264 -19 -112 -74 -269 -115 -328 -51 -73 -44 -85 49 -77 166 14 276 95 357 262 68 140 67 252 -3 331 -64 72 -234 152 -310 146z m137 -78 c158 -105 183 -232 86 -429 -49 -99 -115 -168 -183 -191 -75 -25 -85 -14 -44 46 99 143 148 424 96 545 -11 26 -20 49 -20 51 0 11 30 1 65 -22z" transform="translate(0,82) scale(0.1,-0.1)" stroke="none" fill="#903F12"/>

</g>

<g id="4" transform="translate(232.0,0)scale(1,1)">

<path d="M240 716 c0 -2 9 -25 20 -51 15 -35 20 -71 21 -143 1 -66 4 -87 9 -67 17 68 9 147 -25 228 -11 27 11 21 61 -17 52 -40 79 -72 99 -118 8 -18 14 -27 15 -20 0 22 -37 86 -67 113 -55 51 -133 95 -133 75z" transform="translate(0,82) scale(0.1,-0.1)" stroke="none" fill="#D29A5B"/>

<path d="M259 352 c-25 -98 -56 -175 -95 -232 -28 -40 -32 -52 -20 -56 31 -12 112 26 160 74 51 51 123 183 131 242 4 26 0 21 -14 -20 -56 -164 -137 -258 -243 -284 -33 -8 -34 -3 -9 32 48 69 115 244 109 288 -2 15 -9 -1 -19 -44z" transform="translate(0,82) scale(0.1,-0.1)" stroke="none" fill="#D29A5B"/>

<path d="M120 770 c0 -6 14 -37 30 -70 28 -55 30 -67 30 -168 0 -90 -5 -127 -30 -215 -17 -59 -35 -117 -42 -130 -6 -12 -14 -27 -17 -33 -3 -7 -21 -33 -39 -59 -44 -64 -38 -75 40 -75 160 0 288 75 370 216 58 101 78 160 78 234 0 111 -31 160 -150 237 -56 37 -142 73 -170 72 -8 0 12 -10 45 -22 131 -49 231 -128 255 -202 37 -112 -28 -296 -145 -411 -74 -73 -139 -101 -251 -111 -93 -8 -100 4 -49 77 41 59 96 216 115 328 17 101 6 192 -31 264 -16 31 -29 59 -29 62 0 3 17 7 38 9 l37 4 -42 1 c-24 1 -43 -3 -43 -8z" transform="translate(0,82) scale(0.1,-0.1)" stroke="none" fill="#D29A5B"/>

<path d="M168 772 c-21 -2 -38 -5 -38 -8 0 -3 13 -31 29 -62 37 -72 48 -163 31 -264 -19 -112 -74 -269 -115 -328 -51 -73 -44 -85 49 -77 166 14 276 95 357 262 68 140 67 252 -3 331 -64 72 -234 152 -310 146z m137 -78 c158 -105 183 -232 86 -429 -49 -99 -115 -168 -183 -191 -75 -25 -85 -14 -44 46 99 143 148 424 96 545 -11 26 -20 49 -20 51 0 11 30 1 65 -22z" transform="translate(0,82) scale(0.1,-0.1)" stroke="none" fill="#903F12"/>

</g>

</g>
<g id="row2" transform="translate(7,164.0)">
<g id="0" transform="translate(0.0,0)scale(1,1)">

<path d="M240 716 c0 -2 9 -25 20 -51 15 -35 20 -71 21 -143 1 -66 4 -87 9 -67 17 68 9 147 -25 228 -11 27 11 21 61 -17 52 -40 79 -72 99 -118 8 -18 14 -27 15 -20 0 22 -37 86 -67 113 -55 51 -133 95 -133 75z" transform="translate(0,82) scale(0.1,-0.1)" stroke="none" fill="#D29A5B"/>

<path d="M259 352 c-25 -98 -56 -175 -95 -232 -28 -40 -32 -52 -20 -56 31 -12 112 26 160 74 51 51 123 183 131 242 4 26 0 21 -14 -20 -56 -164 -137 -258 -243 -284 -33 -8 -34 -3 -9 32 48 69 115 244 109 288 -2 15 -9 -1 -19 -44z" transform="translate(0,82) scale(0.1,-0.1)" stroke="none" fill="#D29A5B"/>

<path d="M120 770 c0 -6 14 -37 30 -70 28 -55 30 -67 30 -168 0 -90 -5 -127 -30 -215 -17 -59 -35 -117 -42 -130 -6 -12 -14 -27 -17 -33 -3 -7 -21 -33 -39 -59 -44 -64 -38 -75 40 -75 160 0 288 75 370 216 58 101 78 160 78 234 0 111 -31 160 -150 237 -56 37 -142 73 -170 72 -8 0 12 -10 45 -22 131 -49 231 -128 255 -202 37 -112 -28 -296 -145 -411 -74 -73 -139 -101 -251 -111 -93 -8 -100 4 -49 77 41 59 96 216 115 328 17 101 6 192 -31 264 -16 31 -29 59 -29 62 0 3 17 7 38 9 l37 4 -42 1 c-24 1 -43 -3 -43 -8z" transform="translate(0,82) scale(0.1,-0.1)" stroke="none" fill="#D29A5B"/>

<path d="M168 772 c-21 -2 -38 -5 -38 -8 0 -3 13 -31 29 -62 37 -72 48 -163 31 -264 -19 -112 -74 -269 -115 -328 -51 -73 -44 -85 49 -77 166 14 276 95 357 262 68 140 67 252 -3 331 -64 72 -234 152 -310 146z m137 -78 c158 -105 183 -232 86 -429 -49 -99 -115 -168 -183 -191 -75 -25 -85 -14 -44 46 99 143 148 424 96 545 -11 26 -20 49 -20 51 0 11 30 1 65 -22z" transform="translate(0,82) scale(0.1,-0.1)" stroke="none" fill="#903F12"/>

</g>

<g id="1" transform="translate(58.0,0)scale(1,1)">

<path d="M240 716 c0 -2 9 -25 20 -51 15 -35 20 -71 21 -143 1 -66 4 -87 9 -67 17 68 9 147 -25 228 -11 27 11 21 61 -17 52 -40 79 -72 99 -118 8 -18 14 -27 15 -20 0 22 -37 86 -67 113 -55 51 -133 95 -133 75z" transform="translate(0,82) scale(0.1,-0.1)" stroke="none" fill="#D29A5B"/>

<path d="M259 352 c-25 -98 -56 -175 -95 -232 -28 -40 -32 -52 -20 -56 31 -12 112 26 160 74 51 51 123 183 131 242 4 26 0 21 -14 -20 -56 -164 -137 -258 -243 -284 -33 -8 -34 -3 -9 32 48 69 115 244 109 288 -2 15 -9 -1 -19 -44z" transform="translate(0,82) scale(0.1,-0.1)" stroke="none" fill="#D29A5B"/>

<path d="M120 770 c0 -6 14 -37 30 -70 28 -55 30 -67 30 -168 0 -90 -5 -127 -30 -215 -17 -59 -35 -117 -42 -130 -6 -12 -14 -27 -17 -33 -3 -7 -21 -33 -39 -59 -44 -64 -38 -75 40 -75 160 0 288 75 370 216 58 101 78 160 78 234 0 111 -31 160 -150 237 -56 37 -142 73 -170 72 -8 0 12 -10 45 -22 131 -49 231 -128 255 -202 37 -112 -28 -296 -145 -411 -74 -73 -139 -101 -251 -111 -93 -8 -100 4 -49 77 41 59 96 216 115 328 17 101 6 192 -31 264 -16 31 -29 59 -29 62 0 3 17 7 38 9 l37 4 -42 1 c-24 1 -43 -3 -43 -8z" transform="translate(0,82) scale(0.1,-0.1)" stroke="none" fill="#D29A5B"/>

<path d="M168 772 c-21 -2 -38 -5 -38 -8 0 -3 13 -31 29 -62 37 -72 48 -163 31 -264 -19 -112 -74 -269 -115 -328 -51 -73 -44 -85 49 -77 166 14 276 95 357 262 68 140 67 252 -3 331 -64 72 -234 152 -310 146z m137 -78 c158 -105 183 -232 86 -429 -49 -99 -115 -168 -183 -191 -75 -25 -85 -14 -44 46 99 143 148 424 96 545 -11 26 -20 49 -20 51 0 11 30 1 65 -22z" transform="translate(0,82) scale(0.1,-0.1)" stroke="none" fill="#903F12"/>

</g>

<g id="2" transform="translate(116.0,0)scale(1,1)">

<path d="M240 716 c0 -2 9 -25 20 -51 15 -35 20 -71 21 -143 1 -66 4 -87 9 -67 17 68 9 147 -25 228 -11 27 11 21 61 -17 52 -40 79 -72 99 -118 8 -18 14 -27 15 -20 0 22 -37 86 -67 113 -55 51 -133 95 -133 75z" transform="translate(0,82) scale(0.1,-0.1)" stroke="none" fill="#D29A5B"/>

<path d="M259 352 c-25 -98 -56 -175 -95 -232 -28 -40 -32 -52 -20 -56 31 -12 112 26 160 74 51 51 123 183 131 242 4 26 0 21 -14 -20 -56 -164 -137 -258 -243 -284 -33 -8 -34 -3 -9 32 48 69 115 244 109 288 -2 15 -9 -1 -19 -44z" transform="translate(0,82) scale(0.1,-0.1)" stroke="none" fill="#D29A5B"/>

<path d="M120 770 c0 -6 14 -37 30 -70 28 -55 30 -67 30 -168 0 -90 -5 -127 -30 -215 -17 -59 -35 -117 -42 -130 -6 -12 -14 -27 -17 -33 -3 -7 -21 -33 -39 -59 -44 -64 -38 -75 40 -75 160 0 288 75 370 216 58 101 78 160 78 234 0 111 -31 160 -150 237 -56 37 -142 73 -170 72 -8 0 12 -10 45 -22 131 -49 231 -128 255 -202 37 -112 -28 -296 -145 -411 -74 -73 -139 -101 -251 -111 -93 -8 -100 4 -49 77 41 59 96 216 115 328 17 101 6 192 -31 264 -16 31 -29 59 -29 62 0 3 17 7 38 9 l37 4 -42 1 c-24 1 -43 -3 -43 -8z" transform="translate(0,82) scale(0.1,-0.1)" stroke="none" fill="#D29A5B"/>

<path d="M168 772 c-21 -2 -38 -5 -38 -8 0 -3 13 -31 29 -62 37 -72 48 -163 31 -264 -19 -112 -74 -269 -115 -328 -51 -73 -44 -85 49 -77 166 14 276 95 357 262 68 140 67 252 -3 331 -64 72 -234 152 -310 146z m137 -78 c158 -105 183 -232 86 -429 -49 -99 -115 -168 -183 -191 -75 -25 -85 -14 -44 46 99 143 148 424 96 545 -11 26 -20 49 -20 51 0 11 30 1 65 -22z" transform="translate(0,82) scale(0.1,-0.1)" stroke="none" fill="#903F12"/>

</g>

<g id="3" transform="translate(174.0,0)scale(1,1)">

<path d="M240 716 c0 -2 9 -25 20 -51 15 -35 20 -71 21 -143 1 -66 4 -87 9 -67 17 68 9 147 -25 228 -11 27 11 21 61 -17 52 -40 79 -72 99 -118 8 -18 14 -27 15 -20 0 22 -37 86 -67 113 -55 51 -133 95 -133 75z" transform="translate(0,82) scale(0.1,-0.1)" stroke="none" fill="#D29A5B"/>

<path d="M259 352 c-25 -98 -56 -175 -95 -232 -28 -40 -32 -52 -20 -56 31 -12 112 26 160 74 51 51 123 183 131 242 4 26 0 21 -14 -20 -56 -164 -137 -258 -243 -284 -33 -8 -34 -3 -9 32 48 69 115 244 109 288 -2 15 -9 -1 -19 -44z" transform="translate(0,82) scale(0.1,-0.1)" stroke="none" fill="#D29A5B"/>

<path d="M120 770 c0 -6 14 -37 30 -70 28 -55 30 -67 30 -168 0 -90 -5 -127 -30 -215 -17 -59 -35 -117 -42 -130 -6 -12 -14 -27 -17 -33 -3 -7 -21 -33 -39 -59 -44 -64 -38 -75 40 -75 160 0 288 75 370 216 58 101 78 160 78 234 0 111 -31 160 -150 237 -56 37 -142 73 -170 72 -8 0 12 -10 45 -22 131 -49 231 -128 255 -202 37 -112 -28 -296 -145 -411 -74 -73 -139 -101 -251 -111 -93 -8 -100 4 -49 77 41 59 96 216 115 328 17 101 6 192 -31 264 -16 31 -29 59 -29 62 0 3 17 7 38 9 l37 4 -42 1 c-24 1 -43 -3 -43 -8z" transform="translate(0,82) scale(0.1,-0.1)" stroke="none" fill="#D29A5B"/>

<path d="M168 772 c-21 -2 -38 -5 -38 -8 0 -3 13 -31 29 -62 37 -72 48 -163 31 -264 -19 -112 -74 -269 -115 -328 -51 -73 -44 -85 49 -77 166 14 276 95 357 262 68 140 67 252 -3 331 -64 72 -234 152 -310 146z m137 -78 c158 -105 183 -232 86 -429 -49 -99 -115 -168 -183 -191 -75 -25 -85 -14 -44 46 99 143 148 424 96 545 -11 26 -20 49 -20 51 0 11 30 1 65 -22z" transform="translate(0,82) scale(0.1,-0.1)" stroke="none" fill="#903F12"/>

</g>

<g id="4" transform="translate(232.0,0)scale(1,1)">

<path d="M240 716 c0 -2 9 -25 20 -51 15 -35 20 -71 21 -143 1 -66 4 -87 9 -67 17 68 9 147 -25 228 -11 27 11 21 61 -17 52 -40 79 -72 99 -118 8 -18 14 -27 15 -20 0 22 -37 86 -67 113 -55 51 -133 95 -133 75z" transform="translate(0,82) scale(0.1,-0.1)" stroke="none" fill="#D29A5B"/>

<path d="M259 352 c-25 -98 -56 -175 -95 -232 -28 -40 -32 -52 -20 -56 31 -12 112 26 160 74 51 51 123 183 131 242 4 26 0 21 -14 -20 -56 -164 -137 -258 -243 -284 -33 -8 -34 -3 -9 32 48 69 115 244 109 288 -2 15 -9 -1 -19 -44z" transform="translate(0,82) scale(0.1,-0.1)" stroke="none" fill="#D29A5B"/>

<path d="M120 770 c0 -6 14 -37 30 -70 28 -55 30 -67 30 -168 0 -90 -5 -127 -30 -215 -17 -59 -35 -117 -42 -130 -6 -12 -14 -27 -17 -33 -3 -7 -21 -33 -39 -59 -44 -64 -38 -75 40 -75 160 0 288 75 370 216 58 101 78 160 78 234 0 111 -31 160 -150 237 -56 37 -142 73 -170 72 -8 0 12 -10 45 -22 131 -49 231 -128 255 -202 37 -112 -28 -296 -145 -411 -74 -73 -139 -101 -251 -111 -93 -8 -100 4 -49 77 41 59 96 216 115 328 17 101 6 192 -31 264 -16 31 -29 59 -29 62 0 3 17 7 38 9 l37 4 -42 1 c-24 1 -43 -3 -43 -8z" transform="translate(0,82) scale(0.1,-0.1)" stroke="none" fill="#D29A5B"/>

<path d="M168 772 c-21 -2 -38 -5 -38 -8 0 -3 13 -31 29 -62 37 -72 48 -163 31 -264 -19 -112 -74 -269 -115 -328 -51 -73 -44 -85 49 -77 166 14 276 95 357 262 68 140 67 252 -3 331 -64 72 -234 152 -310 146z m137 -78 c158 -105 183 -232 86 -429 -49 -99 -115 -168 -183 -191 -75 -25 -85 -14 -44 46 99 143 148 424 96 545 -11 26 -20 49 -20 51 0 11 30 1 65 -22z" transform="translate(0,82) scale(0.1,-0.1)" stroke="none" fill="#903F12"/>

</g>

</g>
<g id="row3" transform="translate(-22,246.0)">
<g id="0" transform="translate(0.0,0)scale(1,1)">

<path d="M240 716 c0 -2 9 -25 20 -51 15 -35 20 -71 21 -143 1 -66 4 -87 9 -67 17 68 9 147 -25 228 -11 27 11 21 61 -17 52 -40 79 -72 99 -118 8 -18 14 -27 15 -20 0 22 -37 86 -67 113 -55 51 -133 95 -133 75z" transform="translate(0,82) scale(0.1,-0.1)" stroke="none" fill="#D29A5B"/>

<path d="M259 352 c-25 -98 -56 -175 -95 -232 -28 -40 -32 -52 -20 -56 31 -12 112 26 160 74 51 51 123 183 131 242 4 26 0 21 -14 -20 -56 -164 -137 -258 -243 -284 -33 -8 -34 -3 -9 32 48 69 115 244 109 288 -2 15 -9 -1 -19 -44z" transform="translate(0,82) scale(0.1,-0.1)" stroke="none" fill="#D29A5B"/>

<path d="M120 770 c0 -6 14 -37 30 -70 28 -55 30 -67 30 -168 0 -90 -5 -127 -30 -215 -17 -59 -35 -117 -42 -130 -6 -12 -14 -27 -17 -33 -3 -7 -21 -33 -39 -59 -44 -64 -38 -75 40 -75 160 0 288 75 370 216 58 101 78 160 78 234 0 111 -31 160 -150 237 -56 37 -142 73 -170 72 -8 0 12 -10 45 -22 131 -49 231 -128 255 -202 37 -112 -28 -296 -145 -411 -74 -73 -139 -101 -251 -111 -93 -8 -100 4 -49 77 41 59 96 216 115 328 17 101 6 192 -31 264 -16 31 -29 59 -29 62 0 3 17 7 38 9 l37 4 -42 1 c-24 1 -43 -3 -43 -8z" transform="translate(0,82) scale(0.1,-0.1)" stroke="none" fill="#D29A5B"/>

<path d="M168 772 c-21 -2 -38 -5 -38 -8 0 -3 13 -31 29 -62 37 -72 48 -163 31 -264 -19 -112 -74 -269 -115 -328 -51 -73 -44 -85 49 -77 166 14 276 95 357 262 68 140 67 252 -3 331 -64 72 -234 152 -310 146z m137 -78 c158 -105 183 -232 86 -429 -49 -99 -115 -168 -183 -191 -75 -25 -85 -14 -44 46 99 143 148 424 96 545 -11 26 -20 49 -20 51 0 11 30 1 65 -22z" transform="translate(0,82) scale(0.1,-0.1)" stroke="none" fill="#903F12"/>

</g>

<g id="1" transform="translate(58.0,0)scale(1,1)">

<path d="M240 716 c0 -2 9 -25 20 -51 15 -35 20 -71 21 -143 1 -66 4 -87 9 -67 17 68 9 147 -25 228 -11 27 11 21 61 -17 52 -40 79 -72 99 -118 8 -18 14 -27 15 -20 0 22 -37 86 -67 113 -55 51 -133 95 -133 75z" transform="translate(0,82) scale(0.1,-0.1)" stroke="none" fill="#D29A5B"/>

<path d="M259 352 c-25 -98 -56 -175 -95 -232 -28 -40 -32 -52 -20 -56 31 -12 112 26 160 74 51 51 123 183 131 242 4 26 0 21 -14 -20 -56 -164 -137 -258 -243 -284 -33 -8 -34 -3 -9 32 48 69 115 244 109 288 -2 15 -9 -1 -19 -44z" transform="translate(0,82) scale(0.1,-0.1)" stroke="none" fill="#D29A5B"/>

<path d="M120 770 c0 -6 14 -37 30 -70 28 -55 30 -67 30 -168 0 -90 -5 -127 -30 -215 -17 -59 -35 -117 -42 -130 -6 -12 -14 -27 -17 -33 -3 -7 -21 -33 -39 -59 -44 -64 -38 -75 40 -75 160 0 288 75 370 216 58 101 78 160 78 234 0 111 -31 160 -150 237 -56 37 -142 73 -170 72 -8 0 12 -10 45 -22 131 -49 231 -128 255 -202 37 -112 -28 -296 -145 -411 -74 -73 -139 -101 -251 -111 -93 -8 -100 4 -49 77 41 59 96 216 115 328 17 101 6 192 -31 264 -16 31 -29 59 -29 62 0 3 17 7 38 9 l37 4 -42 1 c-24 1 -43 -3 -43 -8z" transform="translate(0,82) scale(0.1,-0.1)" stroke="none" fill="#D29A5B"/>

<path d="M168 772 c-21 -2 -38 -5 -38 -8 0 -3 13 -31 29 -62 37 -72 48 -163 31 -264 -19 -112 -74 -269 -115 -328 -51 -73 -44 -85 49 -77 166 14 276 95 357 262 68 140 67 252 -3 331 -64 72 -234 152 -310 146z m137 -78 c158 -105 183 -232 86 -429 -49 -99 -115 -168 -183 -191 -75 -25 -85 -14 -44 46 99 143 148 424 96 545 -11 26 -20 49 -20 51 0 11 30 1 65 -22z" transform="translate(0,82) scale(0.1,-0.1)" stroke="none" fill="#903F12"/>

</g>

<g id="2" transform="translate(116.0,0)scale(1,1)">

<path d="M240 716 c0 -2 9 -25 20 -51 15 -35 20 -71 21 -143 1 -66 4 -87 9 -67 17 68 9 147 -25 228 -11 27 11 21 61 -17 52 -40 79 -72 99 -118 8 -18 14 -27 15 -20 0 22 -37 86 -67 113 -55 51 -133 95 -133 75z" transform="translate(0,82) scale(0.1,-0.1)" stroke="none" fill="#D29A5B"/>

<path d="M259 352 c-25 -98 -56 -175 -95 -232 -28 -40 -32 -52 -20 -56 31 -12 112 26 160 74 51 51 123 183 131 242 4 26 0 21 -14 -20 -56 -164 -137 -258 -243 -284 -33 -8 -34 -3 -9 32 48 69 115 244 109 288 -2 15 -9 -1 -19 -44z" transform="translate(0,82) scale(0.1,-0.1)" stroke="none" fill="#D29A5B"/>

<path d="M120 770 c0 -6 14 -37 30 -70 28 -55 30 -67 30 -168 0 -90 -5 -127 -30 -215 -17 -59 -35 -117 -42 -130 -6 -12 -14 -27 -17 -33 -3 -7 -21 -33 -39 -59 -44 -64 -38 -75 40 -75 160 0 288 75 370 216 58 101 78 160 78 234 0 111 -31 160 -150 237 -56 37 -142 73 -170 72 -8 0 12 -10 45 -22 131 -49 231 -128 255 -202 37 -112 -28 -296 -145 -411 -74 -73 -139 -101 -251 -111 -93 -8 -100 4 -49 77 41 59 96 216 115 328 17 101 6 192 -31 264 -16 31 -29 59 -29 62 0 3 17 7 38 9 l37 4 -42 1 c-24 1 -43 -3 -43 -8z" transform="translate(0,82) scale(0.1,-0.1)" stroke="none" fill="#D29A5B"/>

<path d="M168 772 c-21 -2 -38 -5 -38 -8 0 -3 13 -31 29 -62 37 -72 48 -163 31 -264 -19 -112 -74 -269 -115 -328 -51 -73 -44 -85 49 -77 166 14 276 95 357 262 68 140 67 252 -3 331 -64 72 -234 152 -310 146z m137 -78 c158 -105 183 -232 86 -429 -49 -99 -115 -168 -183 -191 -75 -25 -85 -14 -44 46 99 143 148 424 96 545 -11 26 -20 49 -20 51 0 11 30 1 65 -22z" transform="translate(0,82) scale(0.1,-0.1)" stroke="none" fill="#903F12"/>

</g>

<g id="3" transform="translate(174.0,0)scale(1,1)">

<path d="M240 716 c0 -2 9 -25 20 -51 15 -35 20 -71 21 -143 1 -66 4 -87 9 -67 17 68 9 147 -25 228 -11 27 11 21 61 -17 52 -40 79 -72 99 -118 8 -18 14 -27 15 -20 0 22 -37 86 -67 113 -55 51 -133 95 -133 75z" transform="translate(0,82) scale(0.1,-0.1)" stroke="none" fill="#D29A5B"/>

<path d="M259 352 c-25 -98 -56 -175 -95 -232 -28 -40 -32 -52 -20 -56 31 -12 112 26 160 74 51 51 123 183 131 242 4 26 0 21 -14 -20 -56 -164 -137 -258 -243 -284 -33 -8 -34 -3 -9 32 48 69 115 244 109 288 -2 15 -9 -1 -19 -44z" transform="translate(0,82) scale(0.1,-0.1)" stroke="none" fill="#D29A5B"/>

<path d="M120 770 c0 -6 14 -37 30 -70 28 -55 30 -67 30 -168 0 -90 -5 -127 -30 -215 -17 -59 -35 -117 -42 -130 -6 -12 -14 -27 -17 -33 -3 -7 -21 -33 -39 -59 -44 -64 -38 -75 40 -75 160 0 288 75 370 216 58 101 78 160 78 234 0 111 -31 160 -150 237 -56 37 -142 73 -170 72 -8 0 12 -10 45 -22 131 -49 231 -128 255 -202 37 -112 -28 -296 -145 -411 -74 -73 -139 -101 -251 -111 -93 -8 -100 4 -49 77 41 59 96 216 115 328 17 101 6 192 -31 264 -16 31 -29 59 -29 62 0 3 17 7 38 9 l37 4 -42 1 c-24 1 -43 -3 -43 -8z" transform="translate(0,82) scale(0.1,-0.1)" stroke="none" fill="#D29A5B"/>

<path d="M168 772 c-21 -2 -38 -5 -38 -8 0 -3 13 -31 29 -62 37 -72 48 -163 31 -264 -19 -112 -74 -269 -115 -328 -51 -73 -44 -85 49 -77 166 14 276 95 357 262 68 140 67 252 -3 331 -64 72 -234 152 -310 146z m137 -78 c158 -105 183 -232 86 -429 -49 -99 -115 -168 -183 -191 -75 -25 -85 -14 -44 46 99 143 148 424 96 545 -11 26 -20 49 -20 51 0 11 30 1 65 -22z" transform="translate(0,82) scale(0.1,-0.1)" stroke="none" fill="#903F12"/>

</g>

<g id="4" transform="translate(232.0,0)scale(1,1)">

<path d="M240 716 c0 -2 9 -25 20 -51 15 -35 20 -71 21 -143 1 -66 4 -87 9 -67 17 68 9 147 -25 228 -11 27 11 21 61 -17 52 -40 79 -72 99 -118 8 -18 14 -27 15 -20 0 22 -37 86 -67 113 -55 51 -133 95 -133 75z" transform="translate(0,82) scale(0.1,-0.1)" stroke="none" fill="#D29A5B"/>

<path d="M259 352 c-25 -98 -56 -175 -95 -232 -28 -40 -32 -52 -20 -56 31 -12 112 26 160 74 51 51 123 183 131 242 4 26 0 21 -14 -20 -56 -164 -137 -258 -243 -284 -33 -8 -34 -3 -9 32 48 69 115 244 109 288 -2 15 -9 -1 -19 -44z" transform="translate(0,82) scale(0.1,-0.1)" stroke="none" fill="#D29A5B"/>

<path d="M120 770 c0 -6 14 -37 30 -70 28 -55 30 -67 30 -168 0 -90 -5 -127 -30 -215 -17 -59 -35 -117 -42 -130 -6 -12 -14 -27 -17 -33 -3 -7 -21 -33 -39 -59 -44 -64 -38 -75 40 -75 160 0 288 75 370 216 58 101 78 160 78 234 0 111 -31 160 -150 237 -56 37 -142 73 -170 72 -8 0 12 -10 45 -22 131 -49 231 -128 255 -202 37 -112 -28 -296 -145 -411 -74 -73 -139 -101 -251 -111 -93 -8 -100 4 -49 77 41 59 96 216 115 328 17 101 6 192 -31 264 -16 31 -29 59 -29 62 0 3 17 7 38 9 l37 4 -42 1 c-24 1 -43 -3 -43 -8z" transform="translate(0,82) scale(0.1,-0.1)" stroke="none" fill="#D29A5B"/>

<path d="M168 772 c-21 -2 -38 -5 -38 -8 0 -3 13 -31 29 -62 37 -72 48 -163 31 -264 -19 -112 -74 -269 -115 -328 -51 -73 -44 -85 49 -77 166 14 276 95 357 262 68 140 67 252 -3 331 -64 72 -234 152 -310 146z m137 -78 c158 -105 183 -232 86 -429 -49 -99 -115 -168 -183 -191 -75 -25 -85 -14 -44 46 99 143 148 424 96 545 -11 26 -20 49 -20 51 0 11 30 1 65 -22z" transform="translate(0,82) scale(0.1,-0.1)" stroke="none" fill="#903F12"/>

</g>

</g>
</svg>