<?xml version="1.0" standalone="no"?>
<!DOCTYPE svg PUBLIC "-//W3C//DTD SVG 20010904//EN"
 "http://www.w3.org/TR/2001/REC-SVG-20010904/DTD/svg10.dtd">
<svg version="1.0" xmlns="http://www.w3.org/2000/svg" 
width="108.000000pt" height="90.000000pt" viewBox="0 0 108.000000 90.000000"
preserveAspectRatio = "xMidYMid meet" >
<metadata>
Created by ZoeQU, 2022
</metadata>
<rect width="108.000000" height="90.000000" fill="#324144"/>
<path d="M111 853 l-30 -28 20 -60 c19 -53 20 -66 9 -117 -7 -32 -10 -74 -7 -93 4 -26 -1 -49 -19 -84 -29 -59 -30 -71 -4 -147 11 -32 20 -67 20 -76 0 -17 33 -81 57 -109 19 -23 100 -22 133 1 14 9 34 20 46 24 11 3 33 26 48 51 16 25 33 45 37 45 5 0 9 7 9 15 0 24 31 95 42 95 5 0 8 -21 6 -47 -3 -48 -3 -48 26 -45 20 3 27 0 24 -9 -7 -21 26 -101 62 -153 35 -52 69 -70 116 -62 33 7 114 62 114 78 0 6 13 27 29 47 16 20 39 58 52 84 21 43 22 50 10 98 -10 37 -10 54 -2 62 6 6 11 17 11 24 0 7 10 33 21 58 14 29 20 57 16 78 -4 26 2 39 29 70 40 44 42 56 12 85 -38 35 -77 44 -153 37 -85 -8 -147 -28 -202 -67 -44 -30 -55 -28 -26 4 30 34 7 28 -36 -9 l-43 -36 -24 29 c-14 16 -30 40 -36 54 -9 21 -12 22 -15 8 -3 -10 -6 -18 -7 -18 -2 0 -23 18 -47 39 -46 43 -122 86 -136 78 -8 -5 -66 4 -109 18 -16 5 -30 -1 -53 -22z m129 -108 c22 -14 44 -25 49 -25 14 0 78 -75 96 -113 9 -19 15 -49 13 -65 l-3 -30 -69 33 c-38 19 -77 35 -87 38 -15 4 -16 10 -7 47 13 52 -9 110 -42 110 -11 0 -20 7 -20 15 0 22 25 18 70 -10z m673 -71 c10 -11 -26 -65 -49 -74 -13 -5 -29 -27 -40 -55 l-17 -46 -66 6 c-36 3 -79 9 -94 12 l-29 5 29 30 c47 50 106 85 155 92 25 4 52 14 58 21 13 15 42 20 53 9z m-634 -252 c25 -3 67 -5 94 -5 29 0 47 -4 47 -12 0 -41 -137 -190 -164 -179 -14 5 -36 50 -60 124 -14 40 -14 47 0 68 8 12 20 20 26 16 6 -4 31 -9 57 -12z m345 -17 c18 -14 39 -25 47 -25 8 0 19 -4 25 -9 5 -5 27 -11 49 -13 34 -3 40 -7 43 -28 2 -17 -8 -40 -28 -65 -17 -22 -40 -55 -51 -72 -12 -18 -26 -33 -33 -33 -16 0 -64 73 -82 125 -13 39 -20 145 -8 145 3 0 20 -11 38 -25z" transform="translate(0.000000,90.000000) scale(0.100000,-0.100000)" stroke="none" fill="#617376"/>

</svg>