<?xml version="1.0" standalone="no"?>
<!DOCTYPE svg PUBLIC "-//W3C//DTD SVG 20010904//EN"
 "http://www.w3.org/TR/2001/REC-SVG-20010904/DTD/svg10.dtd">
<svg version="1.0" xmlns="http://www.w3.org/2000/svg" width="760pt" height="784pt" viewBox="0 0 760 784" preserveAspectRatio = "xMidYMid meet" >
<metadata>
Created by ZoeQu, written in 2022
</metadata>
<rect width="760" height="784" fill="#A36CB7"/>
<g id="row0" transform="translate(25,0.0)">
<g id="0" transform="translate(0.0,0)scale(1,1)">

<path d="M1443 918 c-30 -22 -57 -32 -100 -37 l-58 -6 -6 -55 c-13 -117 -55 -215 -115 -269 l-33 -31 23 -52 c72 -162 160 -315 203 -355 34 -32 60 -29 98 12 33 34 55 101 55 163 -1 77 -88 310 -136 363 -9 10 -14 25 -12 34 2 14 9 12 43 -12 42 -31 218 -118 296 -147 25 -10 59 -16 75 -14 25 3 30 8 36 43 13 79 -7 121 -106 224 -77 80 -195 173 -215 170 -3 0 -25 -14 -48 -31z" transform="translate(0,196) scale(0.1,-0.1)" stroke="none" fill="#D6DACA"/>

<path d="M538 1839 c-68 -35 -105 -83 -122 -162 -9 -40 -15 -85 -13 -101 2 -33 -6 -39 -84 -61 -85 -23 -174 -93 -206 -161 -34 -76 -40 -149 -17 -214 15 -41 35 -68 88 -116 37 -35 74 -64 82 -64 22 0 24 -16 9 -60 -8 -23 -15 -70 -15 -104 0 -142 69 -222 212 -246 70 -11 82 -11 145 8 52 16 80 32 116 67 44 42 67 55 67 38 0 -5 23 -32 50 -60 69 -72 120 -97 193 -95 50 1 63 6 95 33 74 64 115 153 127 272 7 74 2 69 93 82 68 9 145 67 158 120 18 71 -29 175 -124 274 -60 64 -80 101 -53 101 12 0 61 106 61 129 0 34 -40 110 -69 130 -73 51 -170 54 -297 11 -84 -28 -104 -30 -104 -9 0 5 -18 35 -41 65 -42 58 -101 106 -158 130 -47 20 -147 16 -193 -7z m266 -395 c21 -21 20 -41 -3 -54 -30 -15 -40 -12 -53 16 -11 22 -10 28 7 40 24 18 30 18 49 -2z m-109 -109 c0 -27 -3 -30 -30 -30 -21 0 -31 5 -33 18 -6 33 6 49 35 45 24 -3 28 -8 28 -33z m314 21 c16 -20 -3 -56 -29 -56 -26 0 -45 36 -29 56 6 8 19 14 29 14 10 0 23 -6 29 -14z m-429 -85 c0 -28 -28 -47 -48 -34 -24 15 -27 44 -7 59 22 17 55 1 55 -25z m264 26 c28 -21 17 -52 -19 -52 -33 0 -45 25 -25 50 15 18 21 19 44 2z m-119 -107 c18 -20 18 -21 -1 -39 -14 -14 -25 -17 -41 -10 -27 10 -30 44 -5 58 24 14 26 14 47 -9z m327 -34 c9 -15 7 -22 -8 -33 -10 -7 -25 -12 -33 -11 -19 4 -35 32 -29 50 8 21 57 17 70 -6z m-474 -21 c4 -35 -13 -51 -42 -37 -14 6 -26 18 -26 25 0 38 63 49 68 12z m316 -33 c-15 -22 -54 -22 -68 1 -9 15 -7 22 13 38 24 20 24 20 45 -1 16 -16 18 -24 10 -38z m-399 -57 c0 -23 -5 -31 -22 -33 -17 -3 -24 3 -29 22 -8 32 3 48 29 44 17 -2 22 -10 22 -33z m175 20 c17 -21 3 -55 -24 -55 -21 0 -46 17 -46 31 0 12 31 39 44 39 8 0 19 -7 26 -15z m114 -61 c19 -18 19 -20 6 -45 -13 -23 -33 -24 -54 -4 -15 16 -11 44 8 57 16 11 23 10 40 -8z m160 -23 c11 -17 -13 -61 -33 -61 -19 0 -37 42 -26 60 8 13 52 13 59 1z m-386 -13 c15 -15 16 -45 2 -53 -27 -17 -72 28 -55 55 8 14 38 13 53 -2z m140 -71 c5 -23 -15 -47 -39 -47 -24 0 -38 48 -18 61 21 14 53 6 57 -14z" transform="translate(0,196) scale(0.1,-0.1)" stroke="none" fill="#F7B83F"/>

</g>

<g id="1" transform="translate(190.0,0)scale(1,1)">

<path d="M1443 918 c-30 -22 -57 -32 -100 -37 l-58 -6 -6 -55 c-13 -117 -55 -215 -115 -269 l-33 -31 23 -52 c72 -162 160 -315 203 -355 34 -32 60 -29 98 12 33 34 55 101 55 163 -1 77 -88 310 -136 363 -9 10 -14 25 -12 34 2 14 9 12 43 -12 42 -31 218 -118 296 -147 25 -10 59 -16 75 -14 25 3 30 8 36 43 13 79 -7 121 -106 224 -77 80 -195 173 -215 170 -3 0 -25 -14 -48 -31z" transform="translate(0,196) scale(0.1,-0.1)" stroke="none" fill="#D6DACA"/>

<path d="M538 1839 c-68 -35 -105 -83 -122 -162 -9 -40 -15 -85 -13 -101 2 -33 -6 -39 -84 -61 -85 -23 -174 -93 -206 -161 -34 -76 -40 -149 -17 -214 15 -41 35 -68 88 -116 37 -35 74 -64 82 -64 22 0 24 -16 9 -60 -8 -23 -15 -70 -15 -104 0 -142 69 -222 212 -246 70 -11 82 -11 145 8 52 16 80 32 116 67 44 42 67 55 67 38 0 -5 23 -32 50 -60 69 -72 120 -97 193 -95 50 1 63 6 95 33 74 64 115 153 127 272 7 74 2 69 93 82 68 9 145 67 158 120 18 71 -29 175 -124 274 -60 64 -80 101 -53 101 12 0 61 106 61 129 0 34 -40 110 -69 130 -73 51 -170 54 -297 11 -84 -28 -104 -30 -104 -9 0 5 -18 35 -41 65 -42 58 -101 106 -158 130 -47 20 -147 16 -193 -7z m266 -395 c21 -21 20 -41 -3 -54 -30 -15 -40 -12 -53 16 -11 22 -10 28 7 40 24 18 30 18 49 -2z m-109 -109 c0 -27 -3 -30 -30 -30 -21 0 -31 5 -33 18 -6 33 6 49 35 45 24 -3 28 -8 28 -33z m314 21 c16 -20 -3 -56 -29 -56 -26 0 -45 36 -29 56 6 8 19 14 29 14 10 0 23 -6 29 -14z m-429 -85 c0 -28 -28 -47 -48 -34 -24 15 -27 44 -7 59 22 17 55 1 55 -25z m264 26 c28 -21 17 -52 -19 -52 -33 0 -45 25 -25 50 15 18 21 19 44 2z m-119 -107 c18 -20 18 -21 -1 -39 -14 -14 -25 -17 -41 -10 -27 10 -30 44 -5 58 24 14 26 14 47 -9z m327 -34 c9 -15 7 -22 -8 -33 -10 -7 -25 -12 -33 -11 -19 4 -35 32 -29 50 8 21 57 17 70 -6z m-474 -21 c4 -35 -13 -51 -42 -37 -14 6 -26 18 -26 25 0 38 63 49 68 12z m316 -33 c-15 -22 -54 -22 -68 1 -9 15 -7 22 13 38 24 20 24 20 45 -1 16 -16 18 -24 10 -38z m-399 -57 c0 -23 -5 -31 -22 -33 -17 -3 -24 3 -29 22 -8 32 3 48 29 44 17 -2 22 -10 22 -33z m175 20 c17 -21 3 -55 -24 -55 -21 0 -46 17 -46 31 0 12 31 39 44 39 8 0 19 -7 26 -15z m114 -61 c19 -18 19 -20 6 -45 -13 -23 -33 -24 -54 -4 -15 16 -11 44 8 57 16 11 23 10 40 -8z m160 -23 c11 -17 -13 -61 -33 -61 -19 0 -37 42 -26 60 8 13 52 13 59 1z m-386 -13 c15 -15 16 -45 2 -53 -27 -17 -72 28 -55 55 8 14 38 13 53 -2z m140 -71 c5 -23 -15 -47 -39 -47 -24 0 -38 48 -18 61 21 14 53 6 57 -14z" transform="translate(0,196) scale(0.1,-0.1)" stroke="none" fill="#F7B83F"/>

</g>

<g id="2" transform="translate(380.0,0)scale(1,1)">

<path d="M1443 918 c-30 -22 -57 -32 -100 -37 l-58 -6 -6 -55 c-13 -117 -55 -215 -115 -269 l-33 -31 23 -52 c72 -162 160 -315 203 -355 34 -32 60 -29 98 12 33 34 55 101 55 163 -1 77 -88 310 -136 363 -9 10 -14 25 -12 34 2 14 9 12 43 -12 42 -31 218 -118 296 -147 25 -10 59 -16 75 -14 25 3 30 8 36 43 13 79 -7 121 -106 224 -77 80 -195 173 -215 170 -3 0 -25 -14 -48 -31z" transform="translate(0,196) scale(0.1,-0.1)" stroke="none" fill="#D6DACA"/>

<path d="M538 1839 c-68 -35 -105 -83 -122 -162 -9 -40 -15 -85 -13 -101 2 -33 -6 -39 -84 -61 -85 -23 -174 -93 -206 -161 -34 -76 -40 -149 -17 -214 15 -41 35 -68 88 -116 37 -35 74 -64 82 -64 22 0 24 -16 9 -60 -8 -23 -15 -70 -15 -104 0 -142 69 -222 212 -246 70 -11 82 -11 145 8 52 16 80 32 116 67 44 42 67 55 67 38 0 -5 23 -32 50 -60 69 -72 120 -97 193 -95 50 1 63 6 95 33 74 64 115 153 127 272 7 74 2 69 93 82 68 9 145 67 158 120 18 71 -29 175 -124 274 -60 64 -80 101 -53 101 12 0 61 106 61 129 0 34 -40 110 -69 130 -73 51 -170 54 -297 11 -84 -28 -104 -30 -104 -9 0 5 -18 35 -41 65 -42 58 -101 106 -158 130 -47 20 -147 16 -193 -7z m266 -395 c21 -21 20 -41 -3 -54 -30 -15 -40 -12 -53 16 -11 22 -10 28 7 40 24 18 30 18 49 -2z m-109 -109 c0 -27 -3 -30 -30 -30 -21 0 -31 5 -33 18 -6 33 6 49 35 45 24 -3 28 -8 28 -33z m314 21 c16 -20 -3 -56 -29 -56 -26 0 -45 36 -29 56 6 8 19 14 29 14 10 0 23 -6 29 -14z m-429 -85 c0 -28 -28 -47 -48 -34 -24 15 -27 44 -7 59 22 17 55 1 55 -25z m264 26 c28 -21 17 -52 -19 -52 -33 0 -45 25 -25 50 15 18 21 19 44 2z m-119 -107 c18 -20 18 -21 -1 -39 -14 -14 -25 -17 -41 -10 -27 10 -30 44 -5 58 24 14 26 14 47 -9z m327 -34 c9 -15 7 -22 -8 -33 -10 -7 -25 -12 -33 -11 -19 4 -35 32 -29 50 8 21 57 17 70 -6z m-474 -21 c4 -35 -13 -51 -42 -37 -14 6 -26 18 -26 25 0 38 63 49 68 12z m316 -33 c-15 -22 -54 -22 -68 1 -9 15 -7 22 13 38 24 20 24 20 45 -1 16 -16 18 -24 10 -38z m-399 -57 c0 -23 -5 -31 -22 -33 -17 -3 -24 3 -29 22 -8 32 3 48 29 44 17 -2 22 -10 22 -33z m175 20 c17 -21 3 -55 -24 -55 -21 0 -46 17 -46 31 0 12 31 39 44 39 8 0 19 -7 26 -15z m114 -61 c19 -18 19 -20 6 -45 -13 -23 -33 -24 -54 -4 -15 16 -11 44 8 57 16 11 23 10 40 -8z m160 -23 c11 -17 -13 -61 -33 -61 -19 0 -37 42 -26 60 8 13 52 13 59 1z m-386 -13 c15 -15 16 -45 2 -53 -27 -17 -72 28 -55 55 8 14 38 13 53 -2z m140 -71 c5 -23 -15 -47 -39 -47 -24 0 -38 48 -18 61 21 14 53 6 57 -14z" transform="translate(0,196) scale(0.1,-0.1)" stroke="none" fill="#F7B83F"/>

</g>

<g id="3" transform="translate(570.0,0)scale(1,1)">

<path d="M1443 918 c-30 -22 -57 -32 -100 -37 l-58 -6 -6 -55 c-13 -117 -55 -215 -115 -269 l-33 -31 23 -52 c72 -162 160 -315 203 -355 34 -32 60 -29 98 12 33 34 55 101 55 163 -1 77 -88 310 -136 363 -9 10 -14 25 -12 34 2 14 9 12 43 -12 42 -31 218 -118 296 -147 25 -10 59 -16 75 -14 25 3 30 8 36 43 13 79 -7 121 -106 224 -77 80 -195 173 -215 170 -3 0 -25 -14 -48 -31z" transform="translate(0,196) scale(0.1,-0.1)" stroke="none" fill="#D6DACA"/>

<path d="M538 1839 c-68 -35 -105 -83 -122 -162 -9 -40 -15 -85 -13 -101 2 -33 -6 -39 -84 -61 -85 -23 -174 -93 -206 -161 -34 -76 -40 -149 -17 -214 15 -41 35 -68 88 -116 37 -35 74 -64 82 -64 22 0 24 -16 9 -60 -8 -23 -15 -70 -15 -104 0 -142 69 -222 212 -246 70 -11 82 -11 145 8 52 16 80 32 116 67 44 42 67 55 67 38 0 -5 23 -32 50 -60 69 -72 120 -97 193 -95 50 1 63 6 95 33 74 64 115 153 127 272 7 74 2 69 93 82 68 9 145 67 158 120 18 71 -29 175 -124 274 -60 64 -80 101 -53 101 12 0 61 106 61 129 0 34 -40 110 -69 130 -73 51 -170 54 -297 11 -84 -28 -104 -30 -104 -9 0 5 -18 35 -41 65 -42 58 -101 106 -158 130 -47 20 -147 16 -193 -7z m266 -395 c21 -21 20 -41 -3 -54 -30 -15 -40 -12 -53 16 -11 22 -10 28 7 40 24 18 30 18 49 -2z m-109 -109 c0 -27 -3 -30 -30 -30 -21 0 -31 5 -33 18 -6 33 6 49 35 45 24 -3 28 -8 28 -33z m314 21 c16 -20 -3 -56 -29 -56 -26 0 -45 36 -29 56 6 8 19 14 29 14 10 0 23 -6 29 -14z m-429 -85 c0 -28 -28 -47 -48 -34 -24 15 -27 44 -7 59 22 17 55 1 55 -25z m264 26 c28 -21 17 -52 -19 -52 -33 0 -45 25 -25 50 15 18 21 19 44 2z m-119 -107 c18 -20 18 -21 -1 -39 -14 -14 -25 -17 -41 -10 -27 10 -30 44 -5 58 24 14 26 14 47 -9z m327 -34 c9 -15 7 -22 -8 -33 -10 -7 -25 -12 -33 -11 -19 4 -35 32 -29 50 8 21 57 17 70 -6z m-474 -21 c4 -35 -13 -51 -42 -37 -14 6 -26 18 -26 25 0 38 63 49 68 12z m316 -33 c-15 -22 -54 -22 -68 1 -9 15 -7 22 13 38 24 20 24 20 45 -1 16 -16 18 -24 10 -38z m-399 -57 c0 -23 -5 -31 -22 -33 -17 -3 -24 3 -29 22 -8 32 3 48 29 44 17 -2 22 -10 22 -33z m175 20 c17 -21 3 -55 -24 -55 -21 0 -46 17 -46 31 0 12 31 39 44 39 8 0 19 -7 26 -15z m114 -61 c19 -18 19 -20 6 -45 -13 -23 -33 -24 -54 -4 -15 16 -11 44 8 57 16 11 23 10 40 -8z m160 -23 c11 -17 -13 -61 -33 -61 -19 0 -37 42 -26 60 8 13 52 13 59 1z m-386 -13 c15 -15 16 -45 2 -53 -27 -17 -72 28 -55 55 8 14 38 13 53 -2z m140 -71 c5 -23 -15 -47 -39 -47 -24 0 -38 48 -18 61 21 14 53 6 57 -14z" transform="translate(0,196) scale(0.1,-0.1)" stroke="none" fill="#F7B83F"/>

</g>

<g id="4" transform="translate(760.0,0)scale(1,1)">

<path d="M1443 918 c-30 -22 -57 -32 -100 -37 l-58 -6 -6 -55 c-13 -117 -55 -215 -115 -269 l-33 -31 23 -52 c72 -162 160 -315 203 -355 34 -32 60 -29 98 12 33 34 55 101 55 163 -1 77 -88 310 -136 363 -9 10 -14 25 -12 34 2 14 9 12 43 -12 42 -31 218 -118 296 -147 25 -10 59 -16 75 -14 25 3 30 8 36 43 13 79 -7 121 -106 224 -77 80 -195 173 -215 170 -3 0 -25 -14 -48 -31z" transform="translate(0,196) scale(0.1,-0.1)" stroke="none" fill="#D6DACA"/>

<path d="M538 1839 c-68 -35 -105 -83 -122 -162 -9 -40 -15 -85 -13 -101 2 -33 -6 -39 -84 -61 -85 -23 -174 -93 -206 -161 -34 -76 -40 -149 -17 -214 15 -41 35 -68 88 -116 37 -35 74 -64 82 -64 22 0 24 -16 9 -60 -8 -23 -15 -70 -15 -104 0 -142 69 -222 212 -246 70 -11 82 -11 145 8 52 16 80 32 116 67 44 42 67 55 67 38 0 -5 23 -32 50 -60 69 -72 120 -97 193 -95 50 1 63 6 95 33 74 64 115 153 127 272 7 74 2 69 93 82 68 9 145 67 158 120 18 71 -29 175 -124 274 -60 64 -80 101 -53 101 12 0 61 106 61 129 0 34 -40 110 -69 130 -73 51 -170 54 -297 11 -84 -28 -104 -30 -104 -9 0 5 -18 35 -41 65 -42 58 -101 106 -158 130 -47 20 -147 16 -193 -7z m266 -395 c21 -21 20 -41 -3 -54 -30 -15 -40 -12 -53 16 -11 22 -10 28 7 40 24 18 30 18 49 -2z m-109 -109 c0 -27 -3 -30 -30 -30 -21 0 -31 5 -33 18 -6 33 6 49 35 45 24 -3 28 -8 28 -33z m314 21 c16 -20 -3 -56 -29 -56 -26 0 -45 36 -29 56 6 8 19 14 29 14 10 0 23 -6 29 -14z m-429 -85 c0 -28 -28 -47 -48 -34 -24 15 -27 44 -7 59 22 17 55 1 55 -25z m264 26 c28 -21 17 -52 -19 -52 -33 0 -45 25 -25 50 15 18 21 19 44 2z m-119 -107 c18 -20 18 -21 -1 -39 -14 -14 -25 -17 -41 -10 -27 10 -30 44 -5 58 24 14 26 14 47 -9z m327 -34 c9 -15 7 -22 -8 -33 -10 -7 -25 -12 -33 -11 -19 4 -35 32 -29 50 8 21 57 17 70 -6z m-474 -21 c4 -35 -13 -51 -42 -37 -14 6 -26 18 -26 25 0 38 63 49 68 12z m316 -33 c-15 -22 -54 -22 -68 1 -9 15 -7 22 13 38 24 20 24 20 45 -1 16 -16 18 -24 10 -38z m-399 -57 c0 -23 -5 -31 -22 -33 -17 -3 -24 3 -29 22 -8 32 3 48 29 44 17 -2 22 -10 22 -33z m175 20 c17 -21 3 -55 -24 -55 -21 0 -46 17 -46 31 0 12 31 39 44 39 8 0 19 -7 26 -15z m114 -61 c19 -18 19 -20 6 -45 -13 -23 -33 -24 -54 -4 -15 16 -11 44 8 57 16 11 23 10 40 -8z m160 -23 c11 -17 -13 -61 -33 -61 -19 0 -37 42 -26 60 8 13 52 13 59 1z m-386 -13 c15 -15 16 -45 2 -53 -27 -17 -72 28 -55 55 8 14 38 13 53 -2z m140 -71 c5 -23 -15 -47 -39 -47 -24 0 -38 48 -18 61 21 14 53 6 57 -14z" transform="translate(0,196) scale(0.1,-0.1)" stroke="none" fill="#F7B83F"/>

</g>

</g>
<g id="row1" transform="translate(-70,196.0)">
<g id="0" transform="translate(0.0,0)scale(1,1)">

<path d="M1443 918 c-30 -22 -57 -32 -100 -37 l-58 -6 -6 -55 c-13 -117 -55 -215 -115 -269 l-33 -31 23 -52 c72 -162 160 -315 203 -355 34 -32 60 -29 98 12 33 34 55 101 55 163 -1 77 -88 310 -136 363 -9 10 -14 25 -12 34 2 14 9 12 43 -12 42 -31 218 -118 296 -147 25 -10 59 -16 75 -14 25 3 30 8 36 43 13 79 -7 121 -106 224 -77 80 -195 173 -215 170 -3 0 -25 -14 -48 -31z" transform="translate(0,196) scale(0.1,-0.1)" stroke="none" fill="#D6DACA"/>

<path d="M538 1839 c-68 -35 -105 -83 -122 -162 -9 -40 -15 -85 -13 -101 2 -33 -6 -39 -84 -61 -85 -23 -174 -93 -206 -161 -34 -76 -40 -149 -17 -214 15 -41 35 -68 88 -116 37 -35 74 -64 82 -64 22 0 24 -16 9 -60 -8 -23 -15 -70 -15 -104 0 -142 69 -222 212 -246 70 -11 82 -11 145 8 52 16 80 32 116 67 44 42 67 55 67 38 0 -5 23 -32 50 -60 69 -72 120 -97 193 -95 50 1 63 6 95 33 74 64 115 153 127 272 7 74 2 69 93 82 68 9 145 67 158 120 18 71 -29 175 -124 274 -60 64 -80 101 -53 101 12 0 61 106 61 129 0 34 -40 110 -69 130 -73 51 -170 54 -297 11 -84 -28 -104 -30 -104 -9 0 5 -18 35 -41 65 -42 58 -101 106 -158 130 -47 20 -147 16 -193 -7z m266 -395 c21 -21 20 -41 -3 -54 -30 -15 -40 -12 -53 16 -11 22 -10 28 7 40 24 18 30 18 49 -2z m-109 -109 c0 -27 -3 -30 -30 -30 -21 0 -31 5 -33 18 -6 33 6 49 35 45 24 -3 28 -8 28 -33z m314 21 c16 -20 -3 -56 -29 -56 -26 0 -45 36 -29 56 6 8 19 14 29 14 10 0 23 -6 29 -14z m-429 -85 c0 -28 -28 -47 -48 -34 -24 15 -27 44 -7 59 22 17 55 1 55 -25z m264 26 c28 -21 17 -52 -19 -52 -33 0 -45 25 -25 50 15 18 21 19 44 2z m-119 -107 c18 -20 18 -21 -1 -39 -14 -14 -25 -17 -41 -10 -27 10 -30 44 -5 58 24 14 26 14 47 -9z m327 -34 c9 -15 7 -22 -8 -33 -10 -7 -25 -12 -33 -11 -19 4 -35 32 -29 50 8 21 57 17 70 -6z m-474 -21 c4 -35 -13 -51 -42 -37 -14 6 -26 18 -26 25 0 38 63 49 68 12z m316 -33 c-15 -22 -54 -22 -68 1 -9 15 -7 22 13 38 24 20 24 20 45 -1 16 -16 18 -24 10 -38z m-399 -57 c0 -23 -5 -31 -22 -33 -17 -3 -24 3 -29 22 -8 32 3 48 29 44 17 -2 22 -10 22 -33z m175 20 c17 -21 3 -55 -24 -55 -21 0 -46 17 -46 31 0 12 31 39 44 39 8 0 19 -7 26 -15z m114 -61 c19 -18 19 -20 6 -45 -13 -23 -33 -24 -54 -4 -15 16 -11 44 8 57 16 11 23 10 40 -8z m160 -23 c11 -17 -13 -61 -33 -61 -19 0 -37 42 -26 60 8 13 52 13 59 1z m-386 -13 c15 -15 16 -45 2 -53 -27 -17 -72 28 -55 55 8 14 38 13 53 -2z m140 -71 c5 -23 -15 -47 -39 -47 -24 0 -38 48 -18 61 21 14 53 6 57 -14z" transform="translate(0,196) scale(0.1,-0.1)" stroke="none" fill="#F7B83F"/>

</g>

<g id="1" transform="translate(190.0,0)scale(1,1)">

<path d="M1443 918 c-30 -22 -57 -32 -100 -37 l-58 -6 -6 -55 c-13 -117 -55 -215 -115 -269 l-33 -31 23 -52 c72 -162 160 -315 203 -355 34 -32 60 -29 98 12 33 34 55 101 55 163 -1 77 -88 310 -136 363 -9 10 -14 25 -12 34 2 14 9 12 43 -12 42 -31 218 -118 296 -147 25 -10 59 -16 75 -14 25 3 30 8 36 43 13 79 -7 121 -106 224 -77 80 -195 173 -215 170 -3 0 -25 -14 -48 -31z" transform="translate(0,196) scale(0.1,-0.1)" stroke="none" fill="#D6DACA"/>

<path d="M538 1839 c-68 -35 -105 -83 -122 -162 -9 -40 -15 -85 -13 -101 2 -33 -6 -39 -84 -61 -85 -23 -174 -93 -206 -161 -34 -76 -40 -149 -17 -214 15 -41 35 -68 88 -116 37 -35 74 -64 82 -64 22 0 24 -16 9 -60 -8 -23 -15 -70 -15 -104 0 -142 69 -222 212 -246 70 -11 82 -11 145 8 52 16 80 32 116 67 44 42 67 55 67 38 0 -5 23 -32 50 -60 69 -72 120 -97 193 -95 50 1 63 6 95 33 74 64 115 153 127 272 7 74 2 69 93 82 68 9 145 67 158 120 18 71 -29 175 -124 274 -60 64 -80 101 -53 101 12 0 61 106 61 129 0 34 -40 110 -69 130 -73 51 -170 54 -297 11 -84 -28 -104 -30 -104 -9 0 5 -18 35 -41 65 -42 58 -101 106 -158 130 -47 20 -147 16 -193 -7z m266 -395 c21 -21 20 -41 -3 -54 -30 -15 -40 -12 -53 16 -11 22 -10 28 7 40 24 18 30 18 49 -2z m-109 -109 c0 -27 -3 -30 -30 -30 -21 0 -31 5 -33 18 -6 33 6 49 35 45 24 -3 28 -8 28 -33z m314 21 c16 -20 -3 -56 -29 -56 -26 0 -45 36 -29 56 6 8 19 14 29 14 10 0 23 -6 29 -14z m-429 -85 c0 -28 -28 -47 -48 -34 -24 15 -27 44 -7 59 22 17 55 1 55 -25z m264 26 c28 -21 17 -52 -19 -52 -33 0 -45 25 -25 50 15 18 21 19 44 2z m-119 -107 c18 -20 18 -21 -1 -39 -14 -14 -25 -17 -41 -10 -27 10 -30 44 -5 58 24 14 26 14 47 -9z m327 -34 c9 -15 7 -22 -8 -33 -10 -7 -25 -12 -33 -11 -19 4 -35 32 -29 50 8 21 57 17 70 -6z m-474 -21 c4 -35 -13 -51 -42 -37 -14 6 -26 18 -26 25 0 38 63 49 68 12z m316 -33 c-15 -22 -54 -22 -68 1 -9 15 -7 22 13 38 24 20 24 20 45 -1 16 -16 18 -24 10 -38z m-399 -57 c0 -23 -5 -31 -22 -33 -17 -3 -24 3 -29 22 -8 32 3 48 29 44 17 -2 22 -10 22 -33z m175 20 c17 -21 3 -55 -24 -55 -21 0 -46 17 -46 31 0 12 31 39 44 39 8 0 19 -7 26 -15z m114 -61 c19 -18 19 -20 6 -45 -13 -23 -33 -24 -54 -4 -15 16 -11 44 8 57 16 11 23 10 40 -8z m160 -23 c11 -17 -13 -61 -33 -61 -19 0 -37 42 -26 60 8 13 52 13 59 1z m-386 -13 c15 -15 16 -45 2 -53 -27 -17 -72 28 -55 55 8 14 38 13 53 -2z m140 -71 c5 -23 -15 -47 -39 -47 -24 0 -38 48 -18 61 21 14 53 6 57 -14z" transform="translate(0,196) scale(0.1,-0.1)" stroke="none" fill="#F7B83F"/>

</g>

<g id="2" transform="translate(380.0,0)scale(1,1)">

<path d="M1443 918 c-30 -22 -57 -32 -100 -37 l-58 -6 -6 -55 c-13 -117 -55 -215 -115 -269 l-33 -31 23 -52 c72 -162 160 -315 203 -355 34 -32 60 -29 98 12 33 34 55 101 55 163 -1 77 -88 310 -136 363 -9 10 -14 25 -12 34 2 14 9 12 43 -12 42 -31 218 -118 296 -147 25 -10 59 -16 75 -14 25 3 30 8 36 43 13 79 -7 121 -106 224 -77 80 -195 173 -215 170 -3 0 -25 -14 -48 -31z" transform="translate(0,196) scale(0.1,-0.1)" stroke="none" fill="#D6DACA"/>

<path d="M538 1839 c-68 -35 -105 -83 -122 -162 -9 -40 -15 -85 -13 -101 2 -33 -6 -39 -84 -61 -85 -23 -174 -93 -206 -161 -34 -76 -40 -149 -17 -214 15 -41 35 -68 88 -116 37 -35 74 -64 82 -64 22 0 24 -16 9 -60 -8 -23 -15 -70 -15 -104 0 -142 69 -222 212 -246 70 -11 82 -11 145 8 52 16 80 32 116 67 44 42 67 55 67 38 0 -5 23 -32 50 -60 69 -72 120 -97 193 -95 50 1 63 6 95 33 74 64 115 153 127 272 7 74 2 69 93 82 68 9 145 67 158 120 18 71 -29 175 -124 274 -60 64 -80 101 -53 101 12 0 61 106 61 129 0 34 -40 110 -69 130 -73 51 -170 54 -297 11 -84 -28 -104 -30 -104 -9 0 5 -18 35 -41 65 -42 58 -101 106 -158 130 -47 20 -147 16 -193 -7z m266 -395 c21 -21 20 -41 -3 -54 -30 -15 -40 -12 -53 16 -11 22 -10 28 7 40 24 18 30 18 49 -2z m-109 -109 c0 -27 -3 -30 -30 -30 -21 0 -31 5 -33 18 -6 33 6 49 35 45 24 -3 28 -8 28 -33z m314 21 c16 -20 -3 -56 -29 -56 -26 0 -45 36 -29 56 6 8 19 14 29 14 10 0 23 -6 29 -14z m-429 -85 c0 -28 -28 -47 -48 -34 -24 15 -27 44 -7 59 22 17 55 1 55 -25z m264 26 c28 -21 17 -52 -19 -52 -33 0 -45 25 -25 50 15 18 21 19 44 2z m-119 -107 c18 -20 18 -21 -1 -39 -14 -14 -25 -17 -41 -10 -27 10 -30 44 -5 58 24 14 26 14 47 -9z m327 -34 c9 -15 7 -22 -8 -33 -10 -7 -25 -12 -33 -11 -19 4 -35 32 -29 50 8 21 57 17 70 -6z m-474 -21 c4 -35 -13 -51 -42 -37 -14 6 -26 18 -26 25 0 38 63 49 68 12z m316 -33 c-15 -22 -54 -22 -68 1 -9 15 -7 22 13 38 24 20 24 20 45 -1 16 -16 18 -24 10 -38z m-399 -57 c0 -23 -5 -31 -22 -33 -17 -3 -24 3 -29 22 -8 32 3 48 29 44 17 -2 22 -10 22 -33z m175 20 c17 -21 3 -55 -24 -55 -21 0 -46 17 -46 31 0 12 31 39 44 39 8 0 19 -7 26 -15z m114 -61 c19 -18 19 -20 6 -45 -13 -23 -33 -24 -54 -4 -15 16 -11 44 8 57 16 11 23 10 40 -8z m160 -23 c11 -17 -13 -61 -33 -61 -19 0 -37 42 -26 60 8 13 52 13 59 1z m-386 -13 c15 -15 16 -45 2 -53 -27 -17 -72 28 -55 55 8 14 38 13 53 -2z m140 -71 c5 -23 -15 -47 -39 -47 -24 0 -38 48 -18 61 21 14 53 6 57 -14z" transform="translate(0,196) scale(0.1,-0.1)" stroke="none" fill="#F7B83F"/>

</g>

<g id="3" transform="translate(570.0,0)scale(1,1)">

<path d="M1443 918 c-30 -22 -57 -32 -100 -37 l-58 -6 -6 -55 c-13 -117 -55 -215 -115 -269 l-33 -31 23 -52 c72 -162 160 -315 203 -355 34 -32 60 -29 98 12 33 34 55 101 55 163 -1 77 -88 310 -136 363 -9 10 -14 25 -12 34 2 14 9 12 43 -12 42 -31 218 -118 296 -147 25 -10 59 -16 75 -14 25 3 30 8 36 43 13 79 -7 121 -106 224 -77 80 -195 173 -215 170 -3 0 -25 -14 -48 -31z" transform="translate(0,196) scale(0.1,-0.1)" stroke="none" fill="#D6DACA"/>

<path d="M538 1839 c-68 -35 -105 -83 -122 -162 -9 -40 -15 -85 -13 -101 2 -33 -6 -39 -84 -61 -85 -23 -174 -93 -206 -161 -34 -76 -40 -149 -17 -214 15 -41 35 -68 88 -116 37 -35 74 -64 82 -64 22 0 24 -16 9 -60 -8 -23 -15 -70 -15 -104 0 -142 69 -222 212 -246 70 -11 82 -11 145 8 52 16 80 32 116 67 44 42 67 55 67 38 0 -5 23 -32 50 -60 69 -72 120 -97 193 -95 50 1 63 6 95 33 74 64 115 153 127 272 7 74 2 69 93 82 68 9 145 67 158 120 18 71 -29 175 -124 274 -60 64 -80 101 -53 101 12 0 61 106 61 129 0 34 -40 110 -69 130 -73 51 -170 54 -297 11 -84 -28 -104 -30 -104 -9 0 5 -18 35 -41 65 -42 58 -101 106 -158 130 -47 20 -147 16 -193 -7z m266 -395 c21 -21 20 -41 -3 -54 -30 -15 -40 -12 -53 16 -11 22 -10 28 7 40 24 18 30 18 49 -2z m-109 -109 c0 -27 -3 -30 -30 -30 -21 0 -31 5 -33 18 -6 33 6 49 35 45 24 -3 28 -8 28 -33z m314 21 c16 -20 -3 -56 -29 -56 -26 0 -45 36 -29 56 6 8 19 14 29 14 10 0 23 -6 29 -14z m-429 -85 c0 -28 -28 -47 -48 -34 -24 15 -27 44 -7 59 22 17 55 1 55 -25z m264 26 c28 -21 17 -52 -19 -52 -33 0 -45 25 -25 50 15 18 21 19 44 2z m-119 -107 c18 -20 18 -21 -1 -39 -14 -14 -25 -17 -41 -10 -27 10 -30 44 -5 58 24 14 26 14 47 -9z m327 -34 c9 -15 7 -22 -8 -33 -10 -7 -25 -12 -33 -11 -19 4 -35 32 -29 50 8 21 57 17 70 -6z m-474 -21 c4 -35 -13 -51 -42 -37 -14 6 -26 18 -26 25 0 38 63 49 68 12z m316 -33 c-15 -22 -54 -22 -68 1 -9 15 -7 22 13 38 24 20 24 20 45 -1 16 -16 18 -24 10 -38z m-399 -57 c0 -23 -5 -31 -22 -33 -17 -3 -24 3 -29 22 -8 32 3 48 29 44 17 -2 22 -10 22 -33z m175 20 c17 -21 3 -55 -24 -55 -21 0 -46 17 -46 31 0 12 31 39 44 39 8 0 19 -7 26 -15z m114 -61 c19 -18 19 -20 6 -45 -13 -23 -33 -24 -54 -4 -15 16 -11 44 8 57 16 11 23 10 40 -8z m160 -23 c11 -17 -13 -61 -33 -61 -19 0 -37 42 -26 60 8 13 52 13 59 1z m-386 -13 c15 -15 16 -45 2 -53 -27 -17 -72 28 -55 55 8 14 38 13 53 -2z m140 -71 c5 -23 -15 -47 -39 -47 -24 0 -38 48 -18 61 21 14 53 6 57 -14z" transform="translate(0,196) scale(0.1,-0.1)" stroke="none" fill="#F7B83F"/>

</g>

<g id="4" transform="translate(760.0,0)scale(1,1)">

<path d="M1443 918 c-30 -22 -57 -32 -100 -37 l-58 -6 -6 -55 c-13 -117 -55 -215 -115 -269 l-33 -31 23 -52 c72 -162 160 -315 203 -355 34 -32 60 -29 98 12 33 34 55 101 55 163 -1 77 -88 310 -136 363 -9 10 -14 25 -12 34 2 14 9 12 43 -12 42 -31 218 -118 296 -147 25 -10 59 -16 75 -14 25 3 30 8 36 43 13 79 -7 121 -106 224 -77 80 -195 173 -215 170 -3 0 -25 -14 -48 -31z" transform="translate(0,196) scale(0.1,-0.1)" stroke="none" fill="#D6DACA"/>

<path d="M538 1839 c-68 -35 -105 -83 -122 -162 -9 -40 -15 -85 -13 -101 2 -33 -6 -39 -84 -61 -85 -23 -174 -93 -206 -161 -34 -76 -40 -149 -17 -214 15 -41 35 -68 88 -116 37 -35 74 -64 82 -64 22 0 24 -16 9 -60 -8 -23 -15 -70 -15 -104 0 -142 69 -222 212 -246 70 -11 82 -11 145 8 52 16 80 32 116 67 44 42 67 55 67 38 0 -5 23 -32 50 -60 69 -72 120 -97 193 -95 50 1 63 6 95 33 74 64 115 153 127 272 7 74 2 69 93 82 68 9 145 67 158 120 18 71 -29 175 -124 274 -60 64 -80 101 -53 101 12 0 61 106 61 129 0 34 -40 110 -69 130 -73 51 -170 54 -297 11 -84 -28 -104 -30 -104 -9 0 5 -18 35 -41 65 -42 58 -101 106 -158 130 -47 20 -147 16 -193 -7z m266 -395 c21 -21 20 -41 -3 -54 -30 -15 -40 -12 -53 16 -11 22 -10 28 7 40 24 18 30 18 49 -2z m-109 -109 c0 -27 -3 -30 -30 -30 -21 0 -31 5 -33 18 -6 33 6 49 35 45 24 -3 28 -8 28 -33z m314 21 c16 -20 -3 -56 -29 -56 -26 0 -45 36 -29 56 6 8 19 14 29 14 10 0 23 -6 29 -14z m-429 -85 c0 -28 -28 -47 -48 -34 -24 15 -27 44 -7 59 22 17 55 1 55 -25z m264 26 c28 -21 17 -52 -19 -52 -33 0 -45 25 -25 50 15 18 21 19 44 2z m-119 -107 c18 -20 18 -21 -1 -39 -14 -14 -25 -17 -41 -10 -27 10 -30 44 -5 58 24 14 26 14 47 -9z m327 -34 c9 -15 7 -22 -8 -33 -10 -7 -25 -12 -33 -11 -19 4 -35 32 -29 50 8 21 57 17 70 -6z m-474 -21 c4 -35 -13 -51 -42 -37 -14 6 -26 18 -26 25 0 38 63 49 68 12z m316 -33 c-15 -22 -54 -22 -68 1 -9 15 -7 22 13 38 24 20 24 20 45 -1 16 -16 18 -24 10 -38z m-399 -57 c0 -23 -5 -31 -22 -33 -17 -3 -24 3 -29 22 -8 32 3 48 29 44 17 -2 22 -10 22 -33z m175 20 c17 -21 3 -55 -24 -55 -21 0 -46 17 -46 31 0 12 31 39 44 39 8 0 19 -7 26 -15z m114 -61 c19 -18 19 -20 6 -45 -13 -23 -33 -24 -54 -4 -15 16 -11 44 8 57 16 11 23 10 40 -8z m160 -23 c11 -17 -13 -61 -33 -61 -19 0 -37 42 -26 60 8 13 52 13 59 1z m-386 -13 c15 -15 16 -45 2 -53 -27 -17 -72 28 -55 55 8 14 38 13 53 -2z m140 -71 c5 -23 -15 -47 -39 -47 -24 0 -38 48 -18 61 21 14 53 6 57 -14z" transform="translate(0,196) scale(0.1,-0.1)" stroke="none" fill="#F7B83F"/>

</g>

</g>
<g id="row2" transform="translate(25,392.0)">
<g id="0" transform="translate(0.0,0)scale(1,1)">

<path d="M1443 918 c-30 -22 -57 -32 -100 -37 l-58 -6 -6 -55 c-13 -117 -55 -215 -115 -269 l-33 -31 23 -52 c72 -162 160 -315 203 -355 34 -32 60 -29 98 12 33 34 55 101 55 163 -1 77 -88 310 -136 363 -9 10 -14 25 -12 34 2 14 9 12 43 -12 42 -31 218 -118 296 -147 25 -10 59 -16 75 -14 25 3 30 8 36 43 13 79 -7 121 -106 224 -77 80 -195 173 -215 170 -3 0 -25 -14 -48 -31z" transform="translate(0,196) scale(0.1,-0.1)" stroke="none" fill="#D6DACA"/>

<path d="M538 1839 c-68 -35 -105 -83 -122 -162 -9 -40 -15 -85 -13 -101 2 -33 -6 -39 -84 -61 -85 -23 -174 -93 -206 -161 -34 -76 -40 -149 -17 -214 15 -41 35 -68 88 -116 37 -35 74 -64 82 -64 22 0 24 -16 9 -60 -8 -23 -15 -70 -15 -104 0 -142 69 -222 212 -246 70 -11 82 -11 145 8 52 16 80 32 116 67 44 42 67 55 67 38 0 -5 23 -32 50 -60 69 -72 120 -97 193 -95 50 1 63 6 95 33 74 64 115 153 127 272 7 74 2 69 93 82 68 9 145 67 158 120 18 71 -29 175 -124 274 -60 64 -80 101 -53 101 12 0 61 106 61 129 0 34 -40 110 -69 130 -73 51 -170 54 -297 11 -84 -28 -104 -30 -104 -9 0 5 -18 35 -41 65 -42 58 -101 106 -158 130 -47 20 -147 16 -193 -7z m266 -395 c21 -21 20 -41 -3 -54 -30 -15 -40 -12 -53 16 -11 22 -10 28 7 40 24 18 30 18 49 -2z m-109 -109 c0 -27 -3 -30 -30 -30 -21 0 -31 5 -33 18 -6 33 6 49 35 45 24 -3 28 -8 28 -33z m314 21 c16 -20 -3 -56 -29 -56 -26 0 -45 36 -29 56 6 8 19 14 29 14 10 0 23 -6 29 -14z m-429 -85 c0 -28 -28 -47 -48 -34 -24 15 -27 44 -7 59 22 17 55 1 55 -25z m264 26 c28 -21 17 -52 -19 -52 -33 0 -45 25 -25 50 15 18 21 19 44 2z m-119 -107 c18 -20 18 -21 -1 -39 -14 -14 -25 -17 -41 -10 -27 10 -30 44 -5 58 24 14 26 14 47 -9z m327 -34 c9 -15 7 -22 -8 -33 -10 -7 -25 -12 -33 -11 -19 4 -35 32 -29 50 8 21 57 17 70 -6z m-474 -21 c4 -35 -13 -51 -42 -37 -14 6 -26 18 -26 25 0 38 63 49 68 12z m316 -33 c-15 -22 -54 -22 -68 1 -9 15 -7 22 13 38 24 20 24 20 45 -1 16 -16 18 -24 10 -38z m-399 -57 c0 -23 -5 -31 -22 -33 -17 -3 -24 3 -29 22 -8 32 3 48 29 44 17 -2 22 -10 22 -33z m175 20 c17 -21 3 -55 -24 -55 -21 0 -46 17 -46 31 0 12 31 39 44 39 8 0 19 -7 26 -15z m114 -61 c19 -18 19 -20 6 -45 -13 -23 -33 -24 -54 -4 -15 16 -11 44 8 57 16 11 23 10 40 -8z m160 -23 c11 -17 -13 -61 -33 -61 -19 0 -37 42 -26 60 8 13 52 13 59 1z m-386 -13 c15 -15 16 -45 2 -53 -27 -17 -72 28 -55 55 8 14 38 13 53 -2z m140 -71 c5 -23 -15 -47 -39 -47 -24 0 -38 48 -18 61 21 14 53 6 57 -14z" transform="translate(0,196) scale(0.1,-0.1)" stroke="none" fill="#F7B83F"/>

</g>

<g id="1" transform="translate(190.0,0)scale(1,1)">

<path d="M1443 918 c-30 -22 -57 -32 -100 -37 l-58 -6 -6 -55 c-13 -117 -55 -215 -115 -269 l-33 -31 23 -52 c72 -162 160 -315 203 -355 34 -32 60 -29 98 12 33 34 55 101 55 163 -1 77 -88 310 -136 363 -9 10 -14 25 -12 34 2 14 9 12 43 -12 42 -31 218 -118 296 -147 25 -10 59 -16 75 -14 25 3 30 8 36 43 13 79 -7 121 -106 224 -77 80 -195 173 -215 170 -3 0 -25 -14 -48 -31z" transform="translate(0,196) scale(0.1,-0.1)" stroke="none" fill="#D6DACA"/>

<path d="M538 1839 c-68 -35 -105 -83 -122 -162 -9 -40 -15 -85 -13 -101 2 -33 -6 -39 -84 -61 -85 -23 -174 -93 -206 -161 -34 -76 -40 -149 -17 -214 15 -41 35 -68 88 -116 37 -35 74 -64 82 -64 22 0 24 -16 9 -60 -8 -23 -15 -70 -15 -104 0 -142 69 -222 212 -246 70 -11 82 -11 145 8 52 16 80 32 116 67 44 42 67 55 67 38 0 -5 23 -32 50 -60 69 -72 120 -97 193 -95 50 1 63 6 95 33 74 64 115 153 127 272 7 74 2 69 93 82 68 9 145 67 158 120 18 71 -29 175 -124 274 -60 64 -80 101 -53 101 12 0 61 106 61 129 0 34 -40 110 -69 130 -73 51 -170 54 -297 11 -84 -28 -104 -30 -104 -9 0 5 -18 35 -41 65 -42 58 -101 106 -158 130 -47 20 -147 16 -193 -7z m266 -395 c21 -21 20 -41 -3 -54 -30 -15 -40 -12 -53 16 -11 22 -10 28 7 40 24 18 30 18 49 -2z m-109 -109 c0 -27 -3 -30 -30 -30 -21 0 -31 5 -33 18 -6 33 6 49 35 45 24 -3 28 -8 28 -33z m314 21 c16 -20 -3 -56 -29 -56 -26 0 -45 36 -29 56 6 8 19 14 29 14 10 0 23 -6 29 -14z m-429 -85 c0 -28 -28 -47 -48 -34 -24 15 -27 44 -7 59 22 17 55 1 55 -25z m264 26 c28 -21 17 -52 -19 -52 -33 0 -45 25 -25 50 15 18 21 19 44 2z m-119 -107 c18 -20 18 -21 -1 -39 -14 -14 -25 -17 -41 -10 -27 10 -30 44 -5 58 24 14 26 14 47 -9z m327 -34 c9 -15 7 -22 -8 -33 -10 -7 -25 -12 -33 -11 -19 4 -35 32 -29 50 8 21 57 17 70 -6z m-474 -21 c4 -35 -13 -51 -42 -37 -14 6 -26 18 -26 25 0 38 63 49 68 12z m316 -33 c-15 -22 -54 -22 -68 1 -9 15 -7 22 13 38 24 20 24 20 45 -1 16 -16 18 -24 10 -38z m-399 -57 c0 -23 -5 -31 -22 -33 -17 -3 -24 3 -29 22 -8 32 3 48 29 44 17 -2 22 -10 22 -33z m175 20 c17 -21 3 -55 -24 -55 -21 0 -46 17 -46 31 0 12 31 39 44 39 8 0 19 -7 26 -15z m114 -61 c19 -18 19 -20 6 -45 -13 -23 -33 -24 -54 -4 -15 16 -11 44 8 57 16 11 23 10 40 -8z m160 -23 c11 -17 -13 -61 -33 -61 -19 0 -37 42 -26 60 8 13 52 13 59 1z m-386 -13 c15 -15 16 -45 2 -53 -27 -17 -72 28 -55 55 8 14 38 13 53 -2z m140 -71 c5 -23 -15 -47 -39 -47 -24 0 -38 48 -18 61 21 14 53 6 57 -14z" transform="translate(0,196) scale(0.1,-0.1)" stroke="none" fill="#F7B83F"/>

</g>

<g id="2" transform="translate(380.0,0)scale(1,1)">

<path d="M1443 918 c-30 -22 -57 -32 -100 -37 l-58 -6 -6 -55 c-13 -117 -55 -215 -115 -269 l-33 -31 23 -52 c72 -162 160 -315 203 -355 34 -32 60 -29 98 12 33 34 55 101 55 163 -1 77 -88 310 -136 363 -9 10 -14 25 -12 34 2 14 9 12 43 -12 42 -31 218 -118 296 -147 25 -10 59 -16 75 -14 25 3 30 8 36 43 13 79 -7 121 -106 224 -77 80 -195 173 -215 170 -3 0 -25 -14 -48 -31z" transform="translate(0,196) scale(0.1,-0.1)" stroke="none" fill="#D6DACA"/>

<path d="M538 1839 c-68 -35 -105 -83 -122 -162 -9 -40 -15 -85 -13 -101 2 -33 -6 -39 -84 -61 -85 -23 -174 -93 -206 -161 -34 -76 -40 -149 -17 -214 15 -41 35 -68 88 -116 37 -35 74 -64 82 -64 22 0 24 -16 9 -60 -8 -23 -15 -70 -15 -104 0 -142 69 -222 212 -246 70 -11 82 -11 145 8 52 16 80 32 116 67 44 42 67 55 67 38 0 -5 23 -32 50 -60 69 -72 120 -97 193 -95 50 1 63 6 95 33 74 64 115 153 127 272 7 74 2 69 93 82 68 9 145 67 158 120 18 71 -29 175 -124 274 -60 64 -80 101 -53 101 12 0 61 106 61 129 0 34 -40 110 -69 130 -73 51 -170 54 -297 11 -84 -28 -104 -30 -104 -9 0 5 -18 35 -41 65 -42 58 -101 106 -158 130 -47 20 -147 16 -193 -7z m266 -395 c21 -21 20 -41 -3 -54 -30 -15 -40 -12 -53 16 -11 22 -10 28 7 40 24 18 30 18 49 -2z m-109 -109 c0 -27 -3 -30 -30 -30 -21 0 -31 5 -33 18 -6 33 6 49 35 45 24 -3 28 -8 28 -33z m314 21 c16 -20 -3 -56 -29 -56 -26 0 -45 36 -29 56 6 8 19 14 29 14 10 0 23 -6 29 -14z m-429 -85 c0 -28 -28 -47 -48 -34 -24 15 -27 44 -7 59 22 17 55 1 55 -25z m264 26 c28 -21 17 -52 -19 -52 -33 0 -45 25 -25 50 15 18 21 19 44 2z m-119 -107 c18 -20 18 -21 -1 -39 -14 -14 -25 -17 -41 -10 -27 10 -30 44 -5 58 24 14 26 14 47 -9z m327 -34 c9 -15 7 -22 -8 -33 -10 -7 -25 -12 -33 -11 -19 4 -35 32 -29 50 8 21 57 17 70 -6z m-474 -21 c4 -35 -13 -51 -42 -37 -14 6 -26 18 -26 25 0 38 63 49 68 12z m316 -33 c-15 -22 -54 -22 -68 1 -9 15 -7 22 13 38 24 20 24 20 45 -1 16 -16 18 -24 10 -38z m-399 -57 c0 -23 -5 -31 -22 -33 -17 -3 -24 3 -29 22 -8 32 3 48 29 44 17 -2 22 -10 22 -33z m175 20 c17 -21 3 -55 -24 -55 -21 0 -46 17 -46 31 0 12 31 39 44 39 8 0 19 -7 26 -15z m114 -61 c19 -18 19 -20 6 -45 -13 -23 -33 -24 -54 -4 -15 16 -11 44 8 57 16 11 23 10 40 -8z m160 -23 c11 -17 -13 -61 -33 -61 -19 0 -37 42 -26 60 8 13 52 13 59 1z m-386 -13 c15 -15 16 -45 2 -53 -27 -17 -72 28 -55 55 8 14 38 13 53 -2z m140 -71 c5 -23 -15 -47 -39 -47 -24 0 -38 48 -18 61 21 14 53 6 57 -14z" transform="translate(0,196) scale(0.1,-0.1)" stroke="none" fill="#F7B83F"/>

</g>

<g id="3" transform="translate(570.0,0)scale(1,1)">

<path d="M1443 918 c-30 -22 -57 -32 -100 -37 l-58 -6 -6 -55 c-13 -117 -55 -215 -115 -269 l-33 -31 23 -52 c72 -162 160 -315 203 -355 34 -32 60 -29 98 12 33 34 55 101 55 163 -1 77 -88 310 -136 363 -9 10 -14 25 -12 34 2 14 9 12 43 -12 42 -31 218 -118 296 -147 25 -10 59 -16 75 -14 25 3 30 8 36 43 13 79 -7 121 -106 224 -77 80 -195 173 -215 170 -3 0 -25 -14 -48 -31z" transform="translate(0,196) scale(0.1,-0.1)" stroke="none" fill="#D6DACA"/>

<path d="M538 1839 c-68 -35 -105 -83 -122 -162 -9 -40 -15 -85 -13 -101 2 -33 -6 -39 -84 -61 -85 -23 -174 -93 -206 -161 -34 -76 -40 -149 -17 -214 15 -41 35 -68 88 -116 37 -35 74 -64 82 -64 22 0 24 -16 9 -60 -8 -23 -15 -70 -15 -104 0 -142 69 -222 212 -246 70 -11 82 -11 145 8 52 16 80 32 116 67 44 42 67 55 67 38 0 -5 23 -32 50 -60 69 -72 120 -97 193 -95 50 1 63 6 95 33 74 64 115 153 127 272 7 74 2 69 93 82 68 9 145 67 158 120 18 71 -29 175 -124 274 -60 64 -80 101 -53 101 12 0 61 106 61 129 0 34 -40 110 -69 130 -73 51 -170 54 -297 11 -84 -28 -104 -30 -104 -9 0 5 -18 35 -41 65 -42 58 -101 106 -158 130 -47 20 -147 16 -193 -7z m266 -395 c21 -21 20 -41 -3 -54 -30 -15 -40 -12 -53 16 -11 22 -10 28 7 40 24 18 30 18 49 -2z m-109 -109 c0 -27 -3 -30 -30 -30 -21 0 -31 5 -33 18 -6 33 6 49 35 45 24 -3 28 -8 28 -33z m314 21 c16 -20 -3 -56 -29 -56 -26 0 -45 36 -29 56 6 8 19 14 29 14 10 0 23 -6 29 -14z m-429 -85 c0 -28 -28 -47 -48 -34 -24 15 -27 44 -7 59 22 17 55 1 55 -25z m264 26 c28 -21 17 -52 -19 -52 -33 0 -45 25 -25 50 15 18 21 19 44 2z m-119 -107 c18 -20 18 -21 -1 -39 -14 -14 -25 -17 -41 -10 -27 10 -30 44 -5 58 24 14 26 14 47 -9z m327 -34 c9 -15 7 -22 -8 -33 -10 -7 -25 -12 -33 -11 -19 4 -35 32 -29 50 8 21 57 17 70 -6z m-474 -21 c4 -35 -13 -51 -42 -37 -14 6 -26 18 -26 25 0 38 63 49 68 12z m316 -33 c-15 -22 -54 -22 -68 1 -9 15 -7 22 13 38 24 20 24 20 45 -1 16 -16 18 -24 10 -38z m-399 -57 c0 -23 -5 -31 -22 -33 -17 -3 -24 3 -29 22 -8 32 3 48 29 44 17 -2 22 -10 22 -33z m175 20 c17 -21 3 -55 -24 -55 -21 0 -46 17 -46 31 0 12 31 39 44 39 8 0 19 -7 26 -15z m114 -61 c19 -18 19 -20 6 -45 -13 -23 -33 -24 -54 -4 -15 16 -11 44 8 57 16 11 23 10 40 -8z m160 -23 c11 -17 -13 -61 -33 -61 -19 0 -37 42 -26 60 8 13 52 13 59 1z m-386 -13 c15 -15 16 -45 2 -53 -27 -17 -72 28 -55 55 8 14 38 13 53 -2z m140 -71 c5 -23 -15 -47 -39 -47 -24 0 -38 48 -18 61 21 14 53 6 57 -14z" transform="translate(0,196) scale(0.1,-0.1)" stroke="none" fill="#F7B83F"/>

</g>

<g id="4" transform="translate(760.0,0)scale(1,1)">

<path d="M1443 918 c-30 -22 -57 -32 -100 -37 l-58 -6 -6 -55 c-13 -117 -55 -215 -115 -269 l-33 -31 23 -52 c72 -162 160 -315 203 -355 34 -32 60 -29 98 12 33 34 55 101 55 163 -1 77 -88 310 -136 363 -9 10 -14 25 -12 34 2 14 9 12 43 -12 42 -31 218 -118 296 -147 25 -10 59 -16 75 -14 25 3 30 8 36 43 13 79 -7 121 -106 224 -77 80 -195 173 -215 170 -3 0 -25 -14 -48 -31z" transform="translate(0,196) scale(0.1,-0.1)" stroke="none" fill="#D6DACA"/>

<path d="M538 1839 c-68 -35 -105 -83 -122 -162 -9 -40 -15 -85 -13 -101 2 -33 -6 -39 -84 -61 -85 -23 -174 -93 -206 -161 -34 -76 -40 -149 -17 -214 15 -41 35 -68 88 -116 37 -35 74 -64 82 -64 22 0 24 -16 9 -60 -8 -23 -15 -70 -15 -104 0 -142 69 -222 212 -246 70 -11 82 -11 145 8 52 16 80 32 116 67 44 42 67 55 67 38 0 -5 23 -32 50 -60 69 -72 120 -97 193 -95 50 1 63 6 95 33 74 64 115 153 127 272 7 74 2 69 93 82 68 9 145 67 158 120 18 71 -29 175 -124 274 -60 64 -80 101 -53 101 12 0 61 106 61 129 0 34 -40 110 -69 130 -73 51 -170 54 -297 11 -84 -28 -104 -30 -104 -9 0 5 -18 35 -41 65 -42 58 -101 106 -158 130 -47 20 -147 16 -193 -7z m266 -395 c21 -21 20 -41 -3 -54 -30 -15 -40 -12 -53 16 -11 22 -10 28 7 40 24 18 30 18 49 -2z m-109 -109 c0 -27 -3 -30 -30 -30 -21 0 -31 5 -33 18 -6 33 6 49 35 45 24 -3 28 -8 28 -33z m314 21 c16 -20 -3 -56 -29 -56 -26 0 -45 36 -29 56 6 8 19 14 29 14 10 0 23 -6 29 -14z m-429 -85 c0 -28 -28 -47 -48 -34 -24 15 -27 44 -7 59 22 17 55 1 55 -25z m264 26 c28 -21 17 -52 -19 -52 -33 0 -45 25 -25 50 15 18 21 19 44 2z m-119 -107 c18 -20 18 -21 -1 -39 -14 -14 -25 -17 -41 -10 -27 10 -30 44 -5 58 24 14 26 14 47 -9z m327 -34 c9 -15 7 -22 -8 -33 -10 -7 -25 -12 -33 -11 -19 4 -35 32 -29 50 8 21 57 17 70 -6z m-474 -21 c4 -35 -13 -51 -42 -37 -14 6 -26 18 -26 25 0 38 63 49 68 12z m316 -33 c-15 -22 -54 -22 -68 1 -9 15 -7 22 13 38 24 20 24 20 45 -1 16 -16 18 -24 10 -38z m-399 -57 c0 -23 -5 -31 -22 -33 -17 -3 -24 3 -29 22 -8 32 3 48 29 44 17 -2 22 -10 22 -33z m175 20 c17 -21 3 -55 -24 -55 -21 0 -46 17 -46 31 0 12 31 39 44 39 8 0 19 -7 26 -15z m114 -61 c19 -18 19 -20 6 -45 -13 -23 -33 -24 -54 -4 -15 16 -11 44 8 57 16 11 23 10 40 -8z m160 -23 c11 -17 -13 -61 -33 -61 -19 0 -37 42 -26 60 8 13 52 13 59 1z m-386 -13 c15 -15 16 -45 2 -53 -27 -17 -72 28 -55 55 8 14 38 13 53 -2z m140 -71 c5 -23 -15 -47 -39 -47 -24 0 -38 48 -18 61 21 14 53 6 57 -14z" transform="translate(0,196) scale(0.1,-0.1)" stroke="none" fill="#F7B83F"/>

</g>

</g>
<g id="row3" transform="translate(-70,588.0)">
<g id="0" transform="translate(0.0,0)scale(1,1)">

<path d="M1443 918 c-30 -22 -57 -32 -100 -37 l-58 -6 -6 -55 c-13 -117 -55 -215 -115 -269 l-33 -31 23 -52 c72 -162 160 -315 203 -355 34 -32 60 -29 98 12 33 34 55 101 55 163 -1 77 -88 310 -136 363 -9 10 -14 25 -12 34 2 14 9 12 43 -12 42 -31 218 -118 296 -147 25 -10 59 -16 75 -14 25 3 30 8 36 43 13 79 -7 121 -106 224 -77 80 -195 173 -215 170 -3 0 -25 -14 -48 -31z" transform="translate(0,196) scale(0.1,-0.1)" stroke="none" fill="#D6DACA"/>

<path d="M538 1839 c-68 -35 -105 -83 -122 -162 -9 -40 -15 -85 -13 -101 2 -33 -6 -39 -84 -61 -85 -23 -174 -93 -206 -161 -34 -76 -40 -149 -17 -214 15 -41 35 -68 88 -116 37 -35 74 -64 82 -64 22 0 24 -16 9 -60 -8 -23 -15 -70 -15 -104 0 -142 69 -222 212 -246 70 -11 82 -11 145 8 52 16 80 32 116 67 44 42 67 55 67 38 0 -5 23 -32 50 -60 69 -72 120 -97 193 -95 50 1 63 6 95 33 74 64 115 153 127 272 7 74 2 69 93 82 68 9 145 67 158 120 18 71 -29 175 -124 274 -60 64 -80 101 -53 101 12 0 61 106 61 129 0 34 -40 110 -69 130 -73 51 -170 54 -297 11 -84 -28 -104 -30 -104 -9 0 5 -18 35 -41 65 -42 58 -101 106 -158 130 -47 20 -147 16 -193 -7z m266 -395 c21 -21 20 -41 -3 -54 -30 -15 -40 -12 -53 16 -11 22 -10 28 7 40 24 18 30 18 49 -2z m-109 -109 c0 -27 -3 -30 -30 -30 -21 0 -31 5 -33 18 -6 33 6 49 35 45 24 -3 28 -8 28 -33z m314 21 c16 -20 -3 -56 -29 -56 -26 0 -45 36 -29 56 6 8 19 14 29 14 10 0 23 -6 29 -14z m-429 -85 c0 -28 -28 -47 -48 -34 -24 15 -27 44 -7 59 22 17 55 1 55 -25z m264 26 c28 -21 17 -52 -19 -52 -33 0 -45 25 -25 50 15 18 21 19 44 2z m-119 -107 c18 -20 18 -21 -1 -39 -14 -14 -25 -17 -41 -10 -27 10 -30 44 -5 58 24 14 26 14 47 -9z m327 -34 c9 -15 7 -22 -8 -33 -10 -7 -25 -12 -33 -11 -19 4 -35 32 -29 50 8 21 57 17 70 -6z m-474 -21 c4 -35 -13 -51 -42 -37 -14 6 -26 18 -26 25 0 38 63 49 68 12z m316 -33 c-15 -22 -54 -22 -68 1 -9 15 -7 22 13 38 24 20 24 20 45 -1 16 -16 18 -24 10 -38z m-399 -57 c0 -23 -5 -31 -22 -33 -17 -3 -24 3 -29 22 -8 32 3 48 29 44 17 -2 22 -10 22 -33z m175 20 c17 -21 3 -55 -24 -55 -21 0 -46 17 -46 31 0 12 31 39 44 39 8 0 19 -7 26 -15z m114 -61 c19 -18 19 -20 6 -45 -13 -23 -33 -24 -54 -4 -15 16 -11 44 8 57 16 11 23 10 40 -8z m160 -23 c11 -17 -13 -61 -33 -61 -19 0 -37 42 -26 60 8 13 52 13 59 1z m-386 -13 c15 -15 16 -45 2 -53 -27 -17 -72 28 -55 55 8 14 38 13 53 -2z m140 -71 c5 -23 -15 -47 -39 -47 -24 0 -38 48 -18 61 21 14 53 6 57 -14z" transform="translate(0,196) scale(0.1,-0.1)" stroke="none" fill="#F7B83F"/>

</g>

<g id="1" transform="translate(190.0,0)scale(1,1)">

<path d="M1443 918 c-30 -22 -57 -32 -100 -37 l-58 -6 -6 -55 c-13 -117 -55 -215 -115 -269 l-33 -31 23 -52 c72 -162 160 -315 203 -355 34 -32 60 -29 98 12 33 34 55 101 55 163 -1 77 -88 310 -136 363 -9 10 -14 25 -12 34 2 14 9 12 43 -12 42 -31 218 -118 296 -147 25 -10 59 -16 75 -14 25 3 30 8 36 43 13 79 -7 121 -106 224 -77 80 -195 173 -215 170 -3 0 -25 -14 -48 -31z" transform="translate(0,196) scale(0.1,-0.1)" stroke="none" fill="#D6DACA"/>

<path d="M538 1839 c-68 -35 -105 -83 -122 -162 -9 -40 -15 -85 -13 -101 2 -33 -6 -39 -84 -61 -85 -23 -174 -93 -206 -161 -34 -76 -40 -149 -17 -214 15 -41 35 -68 88 -116 37 -35 74 -64 82 -64 22 0 24 -16 9 -60 -8 -23 -15 -70 -15 -104 0 -142 69 -222 212 -246 70 -11 82 -11 145 8 52 16 80 32 116 67 44 42 67 55 67 38 0 -5 23 -32 50 -60 69 -72 120 -97 193 -95 50 1 63 6 95 33 74 64 115 153 127 272 7 74 2 69 93 82 68 9 145 67 158 120 18 71 -29 175 -124 274 -60 64 -80 101 -53 101 12 0 61 106 61 129 0 34 -40 110 -69 130 -73 51 -170 54 -297 11 -84 -28 -104 -30 -104 -9 0 5 -18 35 -41 65 -42 58 -101 106 -158 130 -47 20 -147 16 -193 -7z m266 -395 c21 -21 20 -41 -3 -54 -30 -15 -40 -12 -53 16 -11 22 -10 28 7 40 24 18 30 18 49 -2z m-109 -109 c0 -27 -3 -30 -30 -30 -21 0 -31 5 -33 18 -6 33 6 49 35 45 24 -3 28 -8 28 -33z m314 21 c16 -20 -3 -56 -29 -56 -26 0 -45 36 -29 56 6 8 19 14 29 14 10 0 23 -6 29 -14z m-429 -85 c0 -28 -28 -47 -48 -34 -24 15 -27 44 -7 59 22 17 55 1 55 -25z m264 26 c28 -21 17 -52 -19 -52 -33 0 -45 25 -25 50 15 18 21 19 44 2z m-119 -107 c18 -20 18 -21 -1 -39 -14 -14 -25 -17 -41 -10 -27 10 -30 44 -5 58 24 14 26 14 47 -9z m327 -34 c9 -15 7 -22 -8 -33 -10 -7 -25 -12 -33 -11 -19 4 -35 32 -29 50 8 21 57 17 70 -6z m-474 -21 c4 -35 -13 -51 -42 -37 -14 6 -26 18 -26 25 0 38 63 49 68 12z m316 -33 c-15 -22 -54 -22 -68 1 -9 15 -7 22 13 38 24 20 24 20 45 -1 16 -16 18 -24 10 -38z m-399 -57 c0 -23 -5 -31 -22 -33 -17 -3 -24 3 -29 22 -8 32 3 48 29 44 17 -2 22 -10 22 -33z m175 20 c17 -21 3 -55 -24 -55 -21 0 -46 17 -46 31 0 12 31 39 44 39 8 0 19 -7 26 -15z m114 -61 c19 -18 19 -20 6 -45 -13 -23 -33 -24 -54 -4 -15 16 -11 44 8 57 16 11 23 10 40 -8z m160 -23 c11 -17 -13 -61 -33 -61 -19 0 -37 42 -26 60 8 13 52 13 59 1z m-386 -13 c15 -15 16 -45 2 -53 -27 -17 -72 28 -55 55 8 14 38 13 53 -2z m140 -71 c5 -23 -15 -47 -39 -47 -24 0 -38 48 -18 61 21 14 53 6 57 -14z" transform="translate(0,196) scale(0.1,-0.1)" stroke="none" fill="#F7B83F"/>

</g>

<g id="2" transform="translate(380.0,0)scale(1,1)">

<path d="M1443 918 c-30 -22 -57 -32 -100 -37 l-58 -6 -6 -55 c-13 -117 -55 -215 -115 -269 l-33 -31 23 -52 c72 -162 160 -315 203 -355 34 -32 60 -29 98 12 33 34 55 101 55 163 -1 77 -88 310 -136 363 -9 10 -14 25 -12 34 2 14 9 12 43 -12 42 -31 218 -118 296 -147 25 -10 59 -16 75 -14 25 3 30 8 36 43 13 79 -7 121 -106 224 -77 80 -195 173 -215 170 -3 0 -25 -14 -48 -31z" transform="translate(0,196) scale(0.1,-0.1)" stroke="none" fill="#D6DACA"/>

<path d="M538 1839 c-68 -35 -105 -83 -122 -162 -9 -40 -15 -85 -13 -101 2 -33 -6 -39 -84 -61 -85 -23 -174 -93 -206 -161 -34 -76 -40 -149 -17 -214 15 -41 35 -68 88 -116 37 -35 74 -64 82 -64 22 0 24 -16 9 -60 -8 -23 -15 -70 -15 -104 0 -142 69 -222 212 -246 70 -11 82 -11 145 8 52 16 80 32 116 67 44 42 67 55 67 38 0 -5 23 -32 50 -60 69 -72 120 -97 193 -95 50 1 63 6 95 33 74 64 115 153 127 272 7 74 2 69 93 82 68 9 145 67 158 120 18 71 -29 175 -124 274 -60 64 -80 101 -53 101 12 0 61 106 61 129 0 34 -40 110 -69 130 -73 51 -170 54 -297 11 -84 -28 -104 -30 -104 -9 0 5 -18 35 -41 65 -42 58 -101 106 -158 130 -47 20 -147 16 -193 -7z m266 -395 c21 -21 20 -41 -3 -54 -30 -15 -40 -12 -53 16 -11 22 -10 28 7 40 24 18 30 18 49 -2z m-109 -109 c0 -27 -3 -30 -30 -30 -21 0 -31 5 -33 18 -6 33 6 49 35 45 24 -3 28 -8 28 -33z m314 21 c16 -20 -3 -56 -29 -56 -26 0 -45 36 -29 56 6 8 19 14 29 14 10 0 23 -6 29 -14z m-429 -85 c0 -28 -28 -47 -48 -34 -24 15 -27 44 -7 59 22 17 55 1 55 -25z m264 26 c28 -21 17 -52 -19 -52 -33 0 -45 25 -25 50 15 18 21 19 44 2z m-119 -107 c18 -20 18 -21 -1 -39 -14 -14 -25 -17 -41 -10 -27 10 -30 44 -5 58 24 14 26 14 47 -9z m327 -34 c9 -15 7 -22 -8 -33 -10 -7 -25 -12 -33 -11 -19 4 -35 32 -29 50 8 21 57 17 70 -6z m-474 -21 c4 -35 -13 -51 -42 -37 -14 6 -26 18 -26 25 0 38 63 49 68 12z m316 -33 c-15 -22 -54 -22 -68 1 -9 15 -7 22 13 38 24 20 24 20 45 -1 16 -16 18 -24 10 -38z m-399 -57 c0 -23 -5 -31 -22 -33 -17 -3 -24 3 -29 22 -8 32 3 48 29 44 17 -2 22 -10 22 -33z m175 20 c17 -21 3 -55 -24 -55 -21 0 -46 17 -46 31 0 12 31 39 44 39 8 0 19 -7 26 -15z m114 -61 c19 -18 19 -20 6 -45 -13 -23 -33 -24 -54 -4 -15 16 -11 44 8 57 16 11 23 10 40 -8z m160 -23 c11 -17 -13 -61 -33 -61 -19 0 -37 42 -26 60 8 13 52 13 59 1z m-386 -13 c15 -15 16 -45 2 -53 -27 -17 -72 28 -55 55 8 14 38 13 53 -2z m140 -71 c5 -23 -15 -47 -39 -47 -24 0 -38 48 -18 61 21 14 53 6 57 -14z" transform="translate(0,196) scale(0.1,-0.1)" stroke="none" fill="#F7B83F"/>

</g>

<g id="3" transform="translate(570.0,0)scale(1,1)">

<path d="M1443 918 c-30 -22 -57 -32 -100 -37 l-58 -6 -6 -55 c-13 -117 -55 -215 -115 -269 l-33 -31 23 -52 c72 -162 160 -315 203 -355 34 -32 60 -29 98 12 33 34 55 101 55 163 -1 77 -88 310 -136 363 -9 10 -14 25 -12 34 2 14 9 12 43 -12 42 -31 218 -118 296 -147 25 -10 59 -16 75 -14 25 3 30 8 36 43 13 79 -7 121 -106 224 -77 80 -195 173 -215 170 -3 0 -25 -14 -48 -31z" transform="translate(0,196) scale(0.1,-0.1)" stroke="none" fill="#D6DACA"/>

<path d="M538 1839 c-68 -35 -105 -83 -122 -162 -9 -40 -15 -85 -13 -101 2 -33 -6 -39 -84 -61 -85 -23 -174 -93 -206 -161 -34 -76 -40 -149 -17 -214 15 -41 35 -68 88 -116 37 -35 74 -64 82 -64 22 0 24 -16 9 -60 -8 -23 -15 -70 -15 -104 0 -142 69 -222 212 -246 70 -11 82 -11 145 8 52 16 80 32 116 67 44 42 67 55 67 38 0 -5 23 -32 50 -60 69 -72 120 -97 193 -95 50 1 63 6 95 33 74 64 115 153 127 272 7 74 2 69 93 82 68 9 145 67 158 120 18 71 -29 175 -124 274 -60 64 -80 101 -53 101 12 0 61 106 61 129 0 34 -40 110 -69 130 -73 51 -170 54 -297 11 -84 -28 -104 -30 -104 -9 0 5 -18 35 -41 65 -42 58 -101 106 -158 130 -47 20 -147 16 -193 -7z m266 -395 c21 -21 20 -41 -3 -54 -30 -15 -40 -12 -53 16 -11 22 -10 28 7 40 24 18 30 18 49 -2z m-109 -109 c0 -27 -3 -30 -30 -30 -21 0 -31 5 -33 18 -6 33 6 49 35 45 24 -3 28 -8 28 -33z m314 21 c16 -20 -3 -56 -29 -56 -26 0 -45 36 -29 56 6 8 19 14 29 14 10 0 23 -6 29 -14z m-429 -85 c0 -28 -28 -47 -48 -34 -24 15 -27 44 -7 59 22 17 55 1 55 -25z m264 26 c28 -21 17 -52 -19 -52 -33 0 -45 25 -25 50 15 18 21 19 44 2z m-119 -107 c18 -20 18 -21 -1 -39 -14 -14 -25 -17 -41 -10 -27 10 -30 44 -5 58 24 14 26 14 47 -9z m327 -34 c9 -15 7 -22 -8 -33 -10 -7 -25 -12 -33 -11 -19 4 -35 32 -29 50 8 21 57 17 70 -6z m-474 -21 c4 -35 -13 -51 -42 -37 -14 6 -26 18 -26 25 0 38 63 49 68 12z m316 -33 c-15 -22 -54 -22 -68 1 -9 15 -7 22 13 38 24 20 24 20 45 -1 16 -16 18 -24 10 -38z m-399 -57 c0 -23 -5 -31 -22 -33 -17 -3 -24 3 -29 22 -8 32 3 48 29 44 17 -2 22 -10 22 -33z m175 20 c17 -21 3 -55 -24 -55 -21 0 -46 17 -46 31 0 12 31 39 44 39 8 0 19 -7 26 -15z m114 -61 c19 -18 19 -20 6 -45 -13 -23 -33 -24 -54 -4 -15 16 -11 44 8 57 16 11 23 10 40 -8z m160 -23 c11 -17 -13 -61 -33 -61 -19 0 -37 42 -26 60 8 13 52 13 59 1z m-386 -13 c15 -15 16 -45 2 -53 -27 -17 -72 28 -55 55 8 14 38 13 53 -2z m140 -71 c5 -23 -15 -47 -39 -47 -24 0 -38 48 -18 61 21 14 53 6 57 -14z" transform="translate(0,196) scale(0.1,-0.1)" stroke="none" fill="#F7B83F"/>

</g>

<g id="4" transform="translate(760.0,0)scale(1,1)">

<path d="M1443 918 c-30 -22 -57 -32 -100 -37 l-58 -6 -6 -55 c-13 -117 -55 -215 -115 -269 l-33 -31 23 -52 c72 -162 160 -315 203 -355 34 -32 60 -29 98 12 33 34 55 101 55 163 -1 77 -88 310 -136 363 -9 10 -14 25 -12 34 2 14 9 12 43 -12 42 -31 218 -118 296 -147 25 -10 59 -16 75 -14 25 3 30 8 36 43 13 79 -7 121 -106 224 -77 80 -195 173 -215 170 -3 0 -25 -14 -48 -31z" transform="translate(0,196) scale(0.1,-0.1)" stroke="none" fill="#D6DACA"/>

<path d="M538 1839 c-68 -35 -105 -83 -122 -162 -9 -40 -15 -85 -13 -101 2 -33 -6 -39 -84 -61 -85 -23 -174 -93 -206 -161 -34 -76 -40 -149 -17 -214 15 -41 35 -68 88 -116 37 -35 74 -64 82 -64 22 0 24 -16 9 -60 -8 -23 -15 -70 -15 -104 0 -142 69 -222 212 -246 70 -11 82 -11 145 8 52 16 80 32 116 67 44 42 67 55 67 38 0 -5 23 -32 50 -60 69 -72 120 -97 193 -95 50 1 63 6 95 33 74 64 115 153 127 272 7 74 2 69 93 82 68 9 145 67 158 120 18 71 -29 175 -124 274 -60 64 -80 101 -53 101 12 0 61 106 61 129 0 34 -40 110 -69 130 -73 51 -170 54 -297 11 -84 -28 -104 -30 -104 -9 0 5 -18 35 -41 65 -42 58 -101 106 -158 130 -47 20 -147 16 -193 -7z m266 -395 c21 -21 20 -41 -3 -54 -30 -15 -40 -12 -53 16 -11 22 -10 28 7 40 24 18 30 18 49 -2z m-109 -109 c0 -27 -3 -30 -30 -30 -21 0 -31 5 -33 18 -6 33 6 49 35 45 24 -3 28 -8 28 -33z m314 21 c16 -20 -3 -56 -29 -56 -26 0 -45 36 -29 56 6 8 19 14 29 14 10 0 23 -6 29 -14z m-429 -85 c0 -28 -28 -47 -48 -34 -24 15 -27 44 -7 59 22 17 55 1 55 -25z m264 26 c28 -21 17 -52 -19 -52 -33 0 -45 25 -25 50 15 18 21 19 44 2z m-119 -107 c18 -20 18 -21 -1 -39 -14 -14 -25 -17 -41 -10 -27 10 -30 44 -5 58 24 14 26 14 47 -9z m327 -34 c9 -15 7 -22 -8 -33 -10 -7 -25 -12 -33 -11 -19 4 -35 32 -29 50 8 21 57 17 70 -6z m-474 -21 c4 -35 -13 -51 -42 -37 -14 6 -26 18 -26 25 0 38 63 49 68 12z m316 -33 c-15 -22 -54 -22 -68 1 -9 15 -7 22 13 38 24 20 24 20 45 -1 16 -16 18 -24 10 -38z m-399 -57 c0 -23 -5 -31 -22 -33 -17 -3 -24 3 -29 22 -8 32 3 48 29 44 17 -2 22 -10 22 -33z m175 20 c17 -21 3 -55 -24 -55 -21 0 -46 17 -46 31 0 12 31 39 44 39 8 0 19 -7 26 -15z m114 -61 c19 -18 19 -20 6 -45 -13 -23 -33 -24 -54 -4 -15 16 -11 44 8 57 16 11 23 10 40 -8z m160 -23 c11 -17 -13 -61 -33 -61 -19 0 -37 42 -26 60 8 13 52 13 59 1z m-386 -13 c15 -15 16 -45 2 -53 -27 -17 -72 28 -55 55 8 14 38 13 53 -2z m140 -71 c5 -23 -15 -47 -39 -47 -24 0 -38 48 -18 61 21 14 53 6 57 -14z" transform="translate(0,196) scale(0.1,-0.1)" stroke="none" fill="#F7B83F"/>

</g>

</g>
</svg>