<?xml version="1.0" standalone="no"?>
<!DOCTYPE svg PUBLIC "-//W3C//DTD SVG 20010904//EN"
 "http://www.w3.org/TR/2001/REC-SVG-20010904/DTD/svg10.dtd">
<svg version="1.0" xmlns="http://www.w3.org/2000/svg" width="364pt" height="420pt" viewBox="0 0 364 420" preserveAspectRatio = "xMidYMid meet" >
<metadata>
Created by ZoeQu, written in 2022
</metadata>
<rect width="364" height="420" fill="#B3C6D5"/>
<g id="row0" transform="translate(12,0.0)">
<g id="0" transform="translate(0.0,0)scale(1,1)">

<path d="M287 991 c-174 -70 -261 -244 -242 -483 8 -106 35 -242 71 -360 l27 -88 39 0 c38 0 39 1 34 27 -3 16 -19 108 -36 206 -30 170 -31 183 -20 300 13 155 27 193 90 246 64 54 85 61 186 61 128 0 174 -29 232 -145 41 -83 138 -323 147 -362 7 -36 8 -37 35 -23 17 9 17 14 -6 121 -80 381 -182 505 -424 516 -67 2 -95 -1 -133 -16z" transform="translate(0,105) scale(0.1,-0.1)" stroke="none" fill="#1F444E"/>

</g>

<g id="1" transform="translate(91.0,0)scale(1,1)">

<path d="M287 991 c-174 -70 -261 -244 -242 -483 8 -106 35 -242 71 -360 l27 -88 39 0 c38 0 39 1 34 27 -3 16 -19 108 -36 206 -30 170 -31 183 -20 300 13 155 27 193 90 246 64 54 85 61 186 61 128 0 174 -29 232 -145 41 -83 138 -323 147 -362 7 -36 8 -37 35 -23 17 9 17 14 -6 121 -80 381 -182 505 -424 516 -67 2 -95 -1 -133 -16z" transform="translate(0,105) scale(0.1,-0.1)" stroke="none" fill="#1F444E"/>

</g>

<g id="2" transform="translate(182.0,0)scale(1,1)">

<path d="M287 991 c-174 -70 -261 -244 -242 -483 8 -106 35 -242 71 -360 l27 -88 39 0 c38 0 39 1 34 27 -3 16 -19 108 -36 206 -30 170 -31 183 -20 300 13 155 27 193 90 246 64 54 85 61 186 61 128 0 174 -29 232 -145 41 -83 138 -323 147 -362 7 -36 8 -37 35 -23 17 9 17 14 -6 121 -80 381 -182 505 -424 516 -67 2 -95 -1 -133 -16z" transform="translate(0,105) scale(0.1,-0.1)" stroke="none" fill="#1F444E"/>

</g>

<g id="3" transform="translate(273.0,0)scale(1,1)">

<path d="M287 991 c-174 -70 -261 -244 -242 -483 8 -106 35 -242 71 -360 l27 -88 39 0 c38 0 39 1 34 27 -3 16 -19 108 -36 206 -30 170 -31 183 -20 300 13 155 27 193 90 246 64 54 85 61 186 61 128 0 174 -29 232 -145 41 -83 138 -323 147 -362 7 -36 8 -37 35 -23 17 9 17 14 -6 121 -80 381 -182 505 -424 516 -67 2 -95 -1 -133 -16z" transform="translate(0,105) scale(0.1,-0.1)" stroke="none" fill="#1F444E"/>

</g>

<g id="4" transform="translate(364.0,0)scale(1,1)">

<path d="M287 991 c-174 -70 -261 -244 -242 -483 8 -106 35 -242 71 -360 l27 -88 39 0 c38 0 39 1 34 27 -3 16 -19 108 -36 206 -30 170 -31 183 -20 300 13 155 27 193 90 246 64 54 85 61 186 61 128 0 174 -29 232 -145 41 -83 138 -323 147 -362 7 -36 8 -37 35 -23 17 9 17 14 -6 121 -80 381 -182 505 -424 516 -67 2 -95 -1 -133 -16z" transform="translate(0,105) scale(0.1,-0.1)" stroke="none" fill="#1F444E"/>

</g>

</g>
<g id="row1" transform="translate(-33,105.0)">
<g id="0" transform="translate(0.0,0)scale(1,1)">

<path d="M287 991 c-174 -70 -261 -244 -242 -483 8 -106 35 -242 71 -360 l27 -88 39 0 c38 0 39 1 34 27 -3 16 -19 108 -36 206 -30 170 -31 183 -20 300 13 155 27 193 90 246 64 54 85 61 186 61 128 0 174 -29 232 -145 41 -83 138 -323 147 -362 7 -36 8 -37 35 -23 17 9 17 14 -6 121 -80 381 -182 505 -424 516 -67 2 -95 -1 -133 -16z" transform="translate(0,105) scale(0.1,-0.1)" stroke="none" fill="#1F444E"/>

</g>

<g id="1" transform="translate(91.0,0)scale(1,1)">

<path d="M287 991 c-174 -70 -261 -244 -242 -483 8 -106 35 -242 71 -360 l27 -88 39 0 c38 0 39 1 34 27 -3 16 -19 108 -36 206 -30 170 -31 183 -20 300 13 155 27 193 90 246 64 54 85 61 186 61 128 0 174 -29 232 -145 41 -83 138 -323 147 -362 7 -36 8 -37 35 -23 17 9 17 14 -6 121 -80 381 -182 505 -424 516 -67 2 -95 -1 -133 -16z" transform="translate(0,105) scale(0.1,-0.1)" stroke="none" fill="#1F444E"/>

</g>

<g id="2" transform="translate(182.0,0)scale(1,1)">

<path d="M287 991 c-174 -70 -261 -244 -242 -483 8 -106 35 -242 71 -360 l27 -88 39 0 c38 0 39 1 34 27 -3 16 -19 108 -36 206 -30 170 -31 183 -20 300 13 155 27 193 90 246 64 54 85 61 186 61 128 0 174 -29 232 -145 41 -83 138 -323 147 -362 7 -36 8 -37 35 -23 17 9 17 14 -6 121 -80 381 -182 505 -424 516 -67 2 -95 -1 -133 -16z" transform="translate(0,105) scale(0.1,-0.1)" stroke="none" fill="#1F444E"/>

</g>

<g id="3" transform="translate(273.0,0)scale(1,1)">

<path d="M287 991 c-174 -70 -261 -244 -242 -483 8 -106 35 -242 71 -360 l27 -88 39 0 c38 0 39 1 34 27 -3 16 -19 108 -36 206 -30 170 -31 183 -20 300 13 155 27 193 90 246 64 54 85 61 186 61 128 0 174 -29 232 -145 41 -83 138 -323 147 -362 7 -36 8 -37 35 -23 17 9 17 14 -6 121 -80 381 -182 505 -424 516 -67 2 -95 -1 -133 -16z" transform="translate(0,105) scale(0.1,-0.1)" stroke="none" fill="#1F444E"/>

</g>

<g id="4" transform="translate(364.0,0)scale(1,1)">

<path d="M287 991 c-174 -70 -261 -244 -242 -483 8 -106 35 -242 71 -360 l27 -88 39 0 c38 0 39 1 34 27 -3 16 -19 108 -36 206 -30 170 -31 183 -20 300 13 155 27 193 90 246 64 54 85 61 186 61 128 0 174 -29 232 -145 41 -83 138 -323 147 -362 7 -36 8 -37 35 -23 17 9 17 14 -6 121 -80 381 -182 505 -424 516 -67 2 -95 -1 -133 -16z" transform="translate(0,105) scale(0.1,-0.1)" stroke="none" fill="#1F444E"/>

</g>

</g>
<g id="row2" transform="translate(12,210.0)">
<g id="0" transform="translate(0.0,0)scale(1,1)">

<path d="M287 991 c-174 -70 -261 -244 -242 -483 8 -106 35 -242 71 -360 l27 -88 39 0 c38 0 39 1 34 27 -3 16 -19 108 -36 206 -30 170 -31 183 -20 300 13 155 27 193 90 246 64 54 85 61 186 61 128 0 174 -29 232 -145 41 -83 138 -323 147 -362 7 -36 8 -37 35 -23 17 9 17 14 -6 121 -80 381 -182 505 -424 516 -67 2 -95 -1 -133 -16z" transform="translate(0,105) scale(0.1,-0.1)" stroke="none" fill="#1F444E"/>

</g>

<g id="1" transform="translate(91.0,0)scale(1,1)">

<path d="M287 991 c-174 -70 -261 -244 -242 -483 8 -106 35 -242 71 -360 l27 -88 39 0 c38 0 39 1 34 27 -3 16 -19 108 -36 206 -30 170 -31 183 -20 300 13 155 27 193 90 246 64 54 85 61 186 61 128 0 174 -29 232 -145 41 -83 138 -323 147 -362 7 -36 8 -37 35 -23 17 9 17 14 -6 121 -80 381 -182 505 -424 516 -67 2 -95 -1 -133 -16z" transform="translate(0,105) scale(0.1,-0.1)" stroke="none" fill="#1F444E"/>

</g>

<g id="2" transform="translate(182.0,0)scale(1,1)">

<path d="M287 991 c-174 -70 -261 -244 -242 -483 8 -106 35 -242 71 -360 l27 -88 39 0 c38 0 39 1 34 27 -3 16 -19 108 -36 206 -30 170 -31 183 -20 300 13 155 27 193 90 246 64 54 85 61 186 61 128 0 174 -29 232 -145 41 -83 138 -323 147 -362 7 -36 8 -37 35 -23 17 9 17 14 -6 121 -80 381 -182 505 -424 516 -67 2 -95 -1 -133 -16z" transform="translate(0,105) scale(0.1,-0.1)" stroke="none" fill="#1F444E"/>

</g>

<g id="3" transform="translate(273.0,0)scale(1,1)">

<path d="M287 991 c-174 -70 -261 -244 -242 -483 8 -106 35 -242 71 -360 l27 -88 39 0 c38 0 39 1 34 27 -3 16 -19 108 -36 206 -30 170 -31 183 -20 300 13 155 27 193 90 246 64 54 85 61 186 61 128 0 174 -29 232 -145 41 -83 138 -323 147 -362 7 -36 8 -37 35 -23 17 9 17 14 -6 121 -80 381 -182 505 -424 516 -67 2 -95 -1 -133 -16z" transform="translate(0,105) scale(0.1,-0.1)" stroke="none" fill="#1F444E"/>

</g>

<g id="4" transform="translate(364.0,0)scale(1,1)">

<path d="M287 991 c-174 -70 -261 -244 -242 -483 8 -106 35 -242 71 -360 l27 -88 39 0 c38 0 39 1 34 27 -3 16 -19 108 -36 206 -30 170 -31 183 -20 300 13 155 27 193 90 246 64 54 85 61 186 61 128 0 174 -29 232 -145 41 -83 138 -323 147 -362 7 -36 8 -37 35 -23 17 9 17 14 -6 121 -80 381 -182 505 -424 516 -67 2 -95 -1 -133 -16z" transform="translate(0,105) scale(0.1,-0.1)" stroke="none" fill="#1F444E"/>

</g>

</g>
<g id="row3" transform="translate(-33,315.0)">
<g id="0" transform="translate(0.0,0)scale(1,1)">

<path d="M287 991 c-174 -70 -261 -244 -242 -483 8 -106 35 -242 71 -360 l27 -88 39 0 c38 0 39 1 34 27 -3 16 -19 108 -36 206 -30 170 -31 183 -20 300 13 155 27 193 90 246 64 54 85 61 186 61 128 0 174 -29 232 -145 41 -83 138 -323 147 -362 7 -36 8 -37 35 -23 17 9 17 14 -6 121 -80 381 -182 505 -424 516 -67 2 -95 -1 -133 -16z" transform="translate(0,105) scale(0.1,-0.1)" stroke="none" fill="#1F444E"/>

</g>

<g id="1" transform="translate(91.0,0)scale(1,1)">

<path d="M287 991 c-174 -70 -261 -244 -242 -483 8 -106 35 -242 71 -360 l27 -88 39 0 c38 0 39 1 34 27 -3 16 -19 108 -36 206 -30 170 -31 183 -20 300 13 155 27 193 90 246 64 54 85 61 186 61 128 0 174 -29 232 -145 41 -83 138 -323 147 -362 7 -36 8 -37 35 -23 17 9 17 14 -6 121 -80 381 -182 505 -424 516 -67 2 -95 -1 -133 -16z" transform="translate(0,105) scale(0.1,-0.1)" stroke="none" fill="#1F444E"/>

</g>

<g id="2" transform="translate(182.0,0)scale(1,1)">

<path d="M287 991 c-174 -70 -261 -244 -242 -483 8 -106 35 -242 71 -360 l27 -88 39 0 c38 0 39 1 34 27 -3 16 -19 108 -36 206 -30 170 -31 183 -20 300 13 155 27 193 90 246 64 54 85 61 186 61 128 0 174 -29 232 -145 41 -83 138 -323 147 -362 7 -36 8 -37 35 -23 17 9 17 14 -6 121 -80 381 -182 505 -424 516 -67 2 -95 -1 -133 -16z" transform="translate(0,105) scale(0.1,-0.1)" stroke="none" fill="#1F444E"/>

</g>

<g id="3" transform="translate(273.0,0)scale(1,1)">

<path d="M287 991 c-174 -70 -261 -244 -242 -483 8 -106 35 -242 71 -360 l27 -88 39 0 c38 0 39 1 34 27 -3 16 -19 108 -36 206 -30 170 -31 183 -20 300 13 155 27 193 90 246 64 54 85 61 186 61 128 0 174 -29 232 -145 41 -83 138 -323 147 -362 7 -36 8 -37 35 -23 17 9 17 14 -6 121 -80 381 -182 505 -424 516 -67 2 -95 -1 -133 -16z" transform="translate(0,105) scale(0.1,-0.1)" stroke="none" fill="#1F444E"/>

</g>

<g id="4" transform="translate(364.0,0)scale(1,1)">

<path d="M287 991 c-174 -70 -261 -244 -242 -483 8 -106 35 -242 71 -360 l27 -88 39 0 c38 0 39 1 34 27 -3 16 -19 108 -36 206 -30 170 -31 183 -20 300 13 155 27 193 90 246 64 54 85 61 186 61 128 0 174 -29 232 -145 41 -83 138 -323 147 -362 7 -36 8 -37 35 -23 17 9 17 14 -6 121 -80 381 -182 505 -424 516 -67 2 -95 -1 -133 -16z" transform="translate(0,105) scale(0.1,-0.1)" stroke="none" fill="#1F444E"/>

</g>

</g>
</svg>