<?xml version="1.0" standalone="no"?>
<!DOCTYPE svg PUBLIC "-//W3C//DTD SVG 20010904//EN"
 "http://www.w3.org/TR/2001/REC-SVG-20010904/DTD/svg10.dtd">
<svg version="1.0" xmlns="http://www.w3.org/2000/svg" width="824pt" height="820pt" viewBox="0 0 824 820" preserveAspectRatio = "xMidYMid meet" >
<metadata>
Created by ZoeQu, written in 2022
</metadata>
<rect width="824" height="820" fill="#167F79"/>
<g id="row0" transform="translate(27,0.0)">
<g id="0" transform="translate(0.0,0)scale(1,1)">

<path d="M1350 1816 c0 -2 35 -23 78 -46 96 -53 203 -160 292 -291 92 -138 149 -272 178 -424 7 -33 19 -94 27 -135 8 -41 20 -129 26 -195 10 -103 9 -129 -5 -183 -13 -50 -14 -72 -5 -113 9 -42 8 -58 -6 -95 -18 -47 -47 -74 -80 -74 -11 0 -33 -7 -49 -15 -15 -8 -34 -15 -41 -15 -7 0 -23 -8 -36 -18 -25 -20 -97 -49 -139 -56 -14 -2 -50 -11 -81 -19 -32 -9 -75 -13 -98 -10 -27 4 -41 2 -41 -5 0 -14 -168 -6 -185 8 -7 6 -14 7 -17 4 -7 -6 -187 54 -213 72 -11 8 -24 14 -31 14 -18 0 -175 92 -249 146 -96 70 -192 169 -250 259 -36 55 -122 229 -135 272 -37 122 -60 206 -60 218 0 8 -4 15 -8 15 -17 0 -46 137 -47 223 -1 65 -5 91 -16 98 -7 5 -10 9 -5 9 5 0 2 8 -7 18 -15 16 -15 20 -1 40 8 12 12 22 7 22 -4 0 -7 24 -6 52 3 71 -12 26 -21 -64 -10 -93 11 -193 89 -431 36 -109 65 -203 65 -210 0 -30 130 -268 181 -332 145 -180 380 -343 579 -399 36 -10 79 -24 95 -31 38 -16 158 -37 176 -30 8 2 66 9 129 15 135 12 225 33 260 60 35 28 118 66 162 74 21 4 51 19 69 33 l31 26 -6 81 c-3 45 -6 88 -6 96 -1 8 5 39 12 68 16 68 0 251 -40 452 -47 232 -82 317 -202 494 -84 123 -188 226 -289 284 -72 42 -81 46 -81 38z" transform="translate(0,205) scale(0.1,-0.1)" stroke="none" fill="#949271"/>

<path d="M596 1934 c-38 -8 -98 -26 -134 -40 -70 -26 -170 -42 -142 -23 11 7 -2 9 -47 7 -48 -3 -69 -10 -97 -32 -53 -40 -71 -72 -58 -99 15 -31 25 -93 26 -154 1 -29 5 -53 9 -53 5 0 1 -10 -7 -22 -14 -20 -14 -24 1 -40 9 -10 12 -18 7 -18 -5 0 -2 -4 5 -9 11 -7 15 -33 16 -98 1 -86 30 -223 47 -223 4 0 8 -7 8 -15 0 -12 23 -96 60 -218 13 -43 99 -217 135 -272 58 -90 154 -189 250 -259 74 -54 231 -146 249 -146 7 0 20 -6 31 -14 26 -18 206 -78 213 -72 3 3 10 2 17 -4 17 -14 185 -22 185 -8 0 7 14 9 41 5 23 -3 66 1 98 10 31 8 67 17 81 19 42 7 114 36 139 56 13 10 29 18 36 18 7 0 26 7 41 15 16 8 38 15 49 15 33 0 62 27 80 74 14 37 15 53 6 95 -9 41 -8 63 5 113 14 54 15 80 5 183 -6 66 -18 154 -26 195 -8 41 -20 102 -27 135 -15 79 -52 195 -87 270 -66 141 -225 343 -324 408 -107 71 -270 146 -373 172 -186 46 -386 57 -518 29z m914 -879 c0 -8 -4 -15 -9 -15 -5 0 -11 7 -15 15 -3 9 0 15 9 15 8 0 15 -7 15 -15z m210 -65 c0 -5 -7 -10 -15 -10 -8 0 -15 5 -15 10 0 6 7 10 15 10 8 0 15 -4 15 -10z m-93 -114 c-8 -20 -21 -20 -42 0 -14 15 -14 17 2 29 15 12 20 12 32 0 7 -7 11 -21 8 -29z m-140 -42 c7 -19 -20 -49 -36 -40 -12 8 -15 39 -4 49 12 12 33 7 40 -9z m228 -54 c14 -15 16 -23 7 -32 -15 -15 -42 7 -42 33 0 25 12 24 35 -1z m-101 -56 c18 -7 22 -39 6 -49 -15 -9 -40 14 -40 36 0 20 8 23 34 13z m-110 -82 c8 -13 -11 -35 -23 -28 -16 10 -14 36 3 36 8 0 17 -4 20 -8z m216 -68 c0 -8 -7 -14 -15 -14 -15 0 -21 21 -9 33 10 9 24 -2 24 -19z" transform="translate(0,205) scale(0.1,-0.1)" stroke="none" fill="#EFB664"/>

</g>

<g id="1" transform="translate(206.0,0)scale(1,1)">

<path d="M1350 1816 c0 -2 35 -23 78 -46 96 -53 203 -160 292 -291 92 -138 149 -272 178 -424 7 -33 19 -94 27 -135 8 -41 20 -129 26 -195 10 -103 9 -129 -5 -183 -13 -50 -14 -72 -5 -113 9 -42 8 -58 -6 -95 -18 -47 -47 -74 -80 -74 -11 0 -33 -7 -49 -15 -15 -8 -34 -15 -41 -15 -7 0 -23 -8 -36 -18 -25 -20 -97 -49 -139 -56 -14 -2 -50 -11 -81 -19 -32 -9 -75 -13 -98 -10 -27 4 -41 2 -41 -5 0 -14 -168 -6 -185 8 -7 6 -14 7 -17 4 -7 -6 -187 54 -213 72 -11 8 -24 14 -31 14 -18 0 -175 92 -249 146 -96 70 -192 169 -250 259 -36 55 -122 229 -135 272 -37 122 -60 206 -60 218 0 8 -4 15 -8 15 -17 0 -46 137 -47 223 -1 65 -5 91 -16 98 -7 5 -10 9 -5 9 5 0 2 8 -7 18 -15 16 -15 20 -1 40 8 12 12 22 7 22 -4 0 -7 24 -6 52 3 71 -12 26 -21 -64 -10 -93 11 -193 89 -431 36 -109 65 -203 65 -210 0 -30 130 -268 181 -332 145 -180 380 -343 579 -399 36 -10 79 -24 95 -31 38 -16 158 -37 176 -30 8 2 66 9 129 15 135 12 225 33 260 60 35 28 118 66 162 74 21 4 51 19 69 33 l31 26 -6 81 c-3 45 -6 88 -6 96 -1 8 5 39 12 68 16 68 0 251 -40 452 -47 232 -82 317 -202 494 -84 123 -188 226 -289 284 -72 42 -81 46 -81 38z" transform="translate(0,205) scale(0.1,-0.1)" stroke="none" fill="#949271"/>

<path d="M596 1934 c-38 -8 -98 -26 -134 -40 -70 -26 -170 -42 -142 -23 11 7 -2 9 -47 7 -48 -3 -69 -10 -97 -32 -53 -40 -71 -72 -58 -99 15 -31 25 -93 26 -154 1 -29 5 -53 9 -53 5 0 1 -10 -7 -22 -14 -20 -14 -24 1 -40 9 -10 12 -18 7 -18 -5 0 -2 -4 5 -9 11 -7 15 -33 16 -98 1 -86 30 -223 47 -223 4 0 8 -7 8 -15 0 -12 23 -96 60 -218 13 -43 99 -217 135 -272 58 -90 154 -189 250 -259 74 -54 231 -146 249 -146 7 0 20 -6 31 -14 26 -18 206 -78 213 -72 3 3 10 2 17 -4 17 -14 185 -22 185 -8 0 7 14 9 41 5 23 -3 66 1 98 10 31 8 67 17 81 19 42 7 114 36 139 56 13 10 29 18 36 18 7 0 26 7 41 15 16 8 38 15 49 15 33 0 62 27 80 74 14 37 15 53 6 95 -9 41 -8 63 5 113 14 54 15 80 5 183 -6 66 -18 154 -26 195 -8 41 -20 102 -27 135 -15 79 -52 195 -87 270 -66 141 -225 343 -324 408 -107 71 -270 146 -373 172 -186 46 -386 57 -518 29z m914 -879 c0 -8 -4 -15 -9 -15 -5 0 -11 7 -15 15 -3 9 0 15 9 15 8 0 15 -7 15 -15z m210 -65 c0 -5 -7 -10 -15 -10 -8 0 -15 5 -15 10 0 6 7 10 15 10 8 0 15 -4 15 -10z m-93 -114 c-8 -20 -21 -20 -42 0 -14 15 -14 17 2 29 15 12 20 12 32 0 7 -7 11 -21 8 -29z m-140 -42 c7 -19 -20 -49 -36 -40 -12 8 -15 39 -4 49 12 12 33 7 40 -9z m228 -54 c14 -15 16 -23 7 -32 -15 -15 -42 7 -42 33 0 25 12 24 35 -1z m-101 -56 c18 -7 22 -39 6 -49 -15 -9 -40 14 -40 36 0 20 8 23 34 13z m-110 -82 c8 -13 -11 -35 -23 -28 -16 10 -14 36 3 36 8 0 17 -4 20 -8z m216 -68 c0 -8 -7 -14 -15 -14 -15 0 -21 21 -9 33 10 9 24 -2 24 -19z" transform="translate(0,205) scale(0.1,-0.1)" stroke="none" fill="#EFB664"/>

</g>

<g id="2" transform="translate(412.0,0)scale(1,1)">

<path d="M1350 1816 c0 -2 35 -23 78 -46 96 -53 203 -160 292 -291 92 -138 149 -272 178 -424 7 -33 19 -94 27 -135 8 -41 20 -129 26 -195 10 -103 9 -129 -5 -183 -13 -50 -14 -72 -5 -113 9 -42 8 -58 -6 -95 -18 -47 -47 -74 -80 -74 -11 0 -33 -7 -49 -15 -15 -8 -34 -15 -41 -15 -7 0 -23 -8 -36 -18 -25 -20 -97 -49 -139 -56 -14 -2 -50 -11 -81 -19 -32 -9 -75 -13 -98 -10 -27 4 -41 2 -41 -5 0 -14 -168 -6 -185 8 -7 6 -14 7 -17 4 -7 -6 -187 54 -213 72 -11 8 -24 14 -31 14 -18 0 -175 92 -249 146 -96 70 -192 169 -250 259 -36 55 -122 229 -135 272 -37 122 -60 206 -60 218 0 8 -4 15 -8 15 -17 0 -46 137 -47 223 -1 65 -5 91 -16 98 -7 5 -10 9 -5 9 5 0 2 8 -7 18 -15 16 -15 20 -1 40 8 12 12 22 7 22 -4 0 -7 24 -6 52 3 71 -12 26 -21 -64 -10 -93 11 -193 89 -431 36 -109 65 -203 65 -210 0 -30 130 -268 181 -332 145 -180 380 -343 579 -399 36 -10 79 -24 95 -31 38 -16 158 -37 176 -30 8 2 66 9 129 15 135 12 225 33 260 60 35 28 118 66 162 74 21 4 51 19 69 33 l31 26 -6 81 c-3 45 -6 88 -6 96 -1 8 5 39 12 68 16 68 0 251 -40 452 -47 232 -82 317 -202 494 -84 123 -188 226 -289 284 -72 42 -81 46 -81 38z" transform="translate(0,205) scale(0.1,-0.1)" stroke="none" fill="#949271"/>

<path d="M596 1934 c-38 -8 -98 -26 -134 -40 -70 -26 -170 -42 -142 -23 11 7 -2 9 -47 7 -48 -3 -69 -10 -97 -32 -53 -40 -71 -72 -58 -99 15 -31 25 -93 26 -154 1 -29 5 -53 9 -53 5 0 1 -10 -7 -22 -14 -20 -14 -24 1 -40 9 -10 12 -18 7 -18 -5 0 -2 -4 5 -9 11 -7 15 -33 16 -98 1 -86 30 -223 47 -223 4 0 8 -7 8 -15 0 -12 23 -96 60 -218 13 -43 99 -217 135 -272 58 -90 154 -189 250 -259 74 -54 231 -146 249 -146 7 0 20 -6 31 -14 26 -18 206 -78 213 -72 3 3 10 2 17 -4 17 -14 185 -22 185 -8 0 7 14 9 41 5 23 -3 66 1 98 10 31 8 67 17 81 19 42 7 114 36 139 56 13 10 29 18 36 18 7 0 26 7 41 15 16 8 38 15 49 15 33 0 62 27 80 74 14 37 15 53 6 95 -9 41 -8 63 5 113 14 54 15 80 5 183 -6 66 -18 154 -26 195 -8 41 -20 102 -27 135 -15 79 -52 195 -87 270 -66 141 -225 343 -324 408 -107 71 -270 146 -373 172 -186 46 -386 57 -518 29z m914 -879 c0 -8 -4 -15 -9 -15 -5 0 -11 7 -15 15 -3 9 0 15 9 15 8 0 15 -7 15 -15z m210 -65 c0 -5 -7 -10 -15 -10 -8 0 -15 5 -15 10 0 6 7 10 15 10 8 0 15 -4 15 -10z m-93 -114 c-8 -20 -21 -20 -42 0 -14 15 -14 17 2 29 15 12 20 12 32 0 7 -7 11 -21 8 -29z m-140 -42 c7 -19 -20 -49 -36 -40 -12 8 -15 39 -4 49 12 12 33 7 40 -9z m228 -54 c14 -15 16 -23 7 -32 -15 -15 -42 7 -42 33 0 25 12 24 35 -1z m-101 -56 c18 -7 22 -39 6 -49 -15 -9 -40 14 -40 36 0 20 8 23 34 13z m-110 -82 c8 -13 -11 -35 -23 -28 -16 10 -14 36 3 36 8 0 17 -4 20 -8z m216 -68 c0 -8 -7 -14 -15 -14 -15 0 -21 21 -9 33 10 9 24 -2 24 -19z" transform="translate(0,205) scale(0.1,-0.1)" stroke="none" fill="#EFB664"/>

</g>

<g id="3" transform="translate(618.0,0)scale(1,1)">

<path d="M1350 1816 c0 -2 35 -23 78 -46 96 -53 203 -160 292 -291 92 -138 149 -272 178 -424 7 -33 19 -94 27 -135 8 -41 20 -129 26 -195 10 -103 9 -129 -5 -183 -13 -50 -14 -72 -5 -113 9 -42 8 -58 -6 -95 -18 -47 -47 -74 -80 -74 -11 0 -33 -7 -49 -15 -15 -8 -34 -15 -41 -15 -7 0 -23 -8 -36 -18 -25 -20 -97 -49 -139 -56 -14 -2 -50 -11 -81 -19 -32 -9 -75 -13 -98 -10 -27 4 -41 2 -41 -5 0 -14 -168 -6 -185 8 -7 6 -14 7 -17 4 -7 -6 -187 54 -213 72 -11 8 -24 14 -31 14 -18 0 -175 92 -249 146 -96 70 -192 169 -250 259 -36 55 -122 229 -135 272 -37 122 -60 206 -60 218 0 8 -4 15 -8 15 -17 0 -46 137 -47 223 -1 65 -5 91 -16 98 -7 5 -10 9 -5 9 5 0 2 8 -7 18 -15 16 -15 20 -1 40 8 12 12 22 7 22 -4 0 -7 24 -6 52 3 71 -12 26 -21 -64 -10 -93 11 -193 89 -431 36 -109 65 -203 65 -210 0 -30 130 -268 181 -332 145 -180 380 -343 579 -399 36 -10 79 -24 95 -31 38 -16 158 -37 176 -30 8 2 66 9 129 15 135 12 225 33 260 60 35 28 118 66 162 74 21 4 51 19 69 33 l31 26 -6 81 c-3 45 -6 88 -6 96 -1 8 5 39 12 68 16 68 0 251 -40 452 -47 232 -82 317 -202 494 -84 123 -188 226 -289 284 -72 42 -81 46 -81 38z" transform="translate(0,205) scale(0.1,-0.1)" stroke="none" fill="#949271"/>

<path d="M596 1934 c-38 -8 -98 -26 -134 -40 -70 -26 -170 -42 -142 -23 11 7 -2 9 -47 7 -48 -3 -69 -10 -97 -32 -53 -40 -71 -72 -58 -99 15 -31 25 -93 26 -154 1 -29 5 -53 9 -53 5 0 1 -10 -7 -22 -14 -20 -14 -24 1 -40 9 -10 12 -18 7 -18 -5 0 -2 -4 5 -9 11 -7 15 -33 16 -98 1 -86 30 -223 47 -223 4 0 8 -7 8 -15 0 -12 23 -96 60 -218 13 -43 99 -217 135 -272 58 -90 154 -189 250 -259 74 -54 231 -146 249 -146 7 0 20 -6 31 -14 26 -18 206 -78 213 -72 3 3 10 2 17 -4 17 -14 185 -22 185 -8 0 7 14 9 41 5 23 -3 66 1 98 10 31 8 67 17 81 19 42 7 114 36 139 56 13 10 29 18 36 18 7 0 26 7 41 15 16 8 38 15 49 15 33 0 62 27 80 74 14 37 15 53 6 95 -9 41 -8 63 5 113 14 54 15 80 5 183 -6 66 -18 154 -26 195 -8 41 -20 102 -27 135 -15 79 -52 195 -87 270 -66 141 -225 343 -324 408 -107 71 -270 146 -373 172 -186 46 -386 57 -518 29z m914 -879 c0 -8 -4 -15 -9 -15 -5 0 -11 7 -15 15 -3 9 0 15 9 15 8 0 15 -7 15 -15z m210 -65 c0 -5 -7 -10 -15 -10 -8 0 -15 5 -15 10 0 6 7 10 15 10 8 0 15 -4 15 -10z m-93 -114 c-8 -20 -21 -20 -42 0 -14 15 -14 17 2 29 15 12 20 12 32 0 7 -7 11 -21 8 -29z m-140 -42 c7 -19 -20 -49 -36 -40 -12 8 -15 39 -4 49 12 12 33 7 40 -9z m228 -54 c14 -15 16 -23 7 -32 -15 -15 -42 7 -42 33 0 25 12 24 35 -1z m-101 -56 c18 -7 22 -39 6 -49 -15 -9 -40 14 -40 36 0 20 8 23 34 13z m-110 -82 c8 -13 -11 -35 -23 -28 -16 10 -14 36 3 36 8 0 17 -4 20 -8z m216 -68 c0 -8 -7 -14 -15 -14 -15 0 -21 21 -9 33 10 9 24 -2 24 -19z" transform="translate(0,205) scale(0.1,-0.1)" stroke="none" fill="#EFB664"/>

</g>

<g id="4" transform="translate(824.0,0)scale(1,1)">

<path d="M1350 1816 c0 -2 35 -23 78 -46 96 -53 203 -160 292 -291 92 -138 149 -272 178 -424 7 -33 19 -94 27 -135 8 -41 20 -129 26 -195 10 -103 9 -129 -5 -183 -13 -50 -14 -72 -5 -113 9 -42 8 -58 -6 -95 -18 -47 -47 -74 -80 -74 -11 0 -33 -7 -49 -15 -15 -8 -34 -15 -41 -15 -7 0 -23 -8 -36 -18 -25 -20 -97 -49 -139 -56 -14 -2 -50 -11 -81 -19 -32 -9 -75 -13 -98 -10 -27 4 -41 2 -41 -5 0 -14 -168 -6 -185 8 -7 6 -14 7 -17 4 -7 -6 -187 54 -213 72 -11 8 -24 14 -31 14 -18 0 -175 92 -249 146 -96 70 -192 169 -250 259 -36 55 -122 229 -135 272 -37 122 -60 206 -60 218 0 8 -4 15 -8 15 -17 0 -46 137 -47 223 -1 65 -5 91 -16 98 -7 5 -10 9 -5 9 5 0 2 8 -7 18 -15 16 -15 20 -1 40 8 12 12 22 7 22 -4 0 -7 24 -6 52 3 71 -12 26 -21 -64 -10 -93 11 -193 89 -431 36 -109 65 -203 65 -210 0 -30 130 -268 181 -332 145 -180 380 -343 579 -399 36 -10 79 -24 95 -31 38 -16 158 -37 176 -30 8 2 66 9 129 15 135 12 225 33 260 60 35 28 118 66 162 74 21 4 51 19 69 33 l31 26 -6 81 c-3 45 -6 88 -6 96 -1 8 5 39 12 68 16 68 0 251 -40 452 -47 232 -82 317 -202 494 -84 123 -188 226 -289 284 -72 42 -81 46 -81 38z" transform="translate(0,205) scale(0.1,-0.1)" stroke="none" fill="#949271"/>

<path d="M596 1934 c-38 -8 -98 -26 -134 -40 -70 -26 -170 -42 -142 -23 11 7 -2 9 -47 7 -48 -3 -69 -10 -97 -32 -53 -40 -71 -72 -58 -99 15 -31 25 -93 26 -154 1 -29 5 -53 9 -53 5 0 1 -10 -7 -22 -14 -20 -14 -24 1 -40 9 -10 12 -18 7 -18 -5 0 -2 -4 5 -9 11 -7 15 -33 16 -98 1 -86 30 -223 47 -223 4 0 8 -7 8 -15 0 -12 23 -96 60 -218 13 -43 99 -217 135 -272 58 -90 154 -189 250 -259 74 -54 231 -146 249 -146 7 0 20 -6 31 -14 26 -18 206 -78 213 -72 3 3 10 2 17 -4 17 -14 185 -22 185 -8 0 7 14 9 41 5 23 -3 66 1 98 10 31 8 67 17 81 19 42 7 114 36 139 56 13 10 29 18 36 18 7 0 26 7 41 15 16 8 38 15 49 15 33 0 62 27 80 74 14 37 15 53 6 95 -9 41 -8 63 5 113 14 54 15 80 5 183 -6 66 -18 154 -26 195 -8 41 -20 102 -27 135 -15 79 -52 195 -87 270 -66 141 -225 343 -324 408 -107 71 -270 146 -373 172 -186 46 -386 57 -518 29z m914 -879 c0 -8 -4 -15 -9 -15 -5 0 -11 7 -15 15 -3 9 0 15 9 15 8 0 15 -7 15 -15z m210 -65 c0 -5 -7 -10 -15 -10 -8 0 -15 5 -15 10 0 6 7 10 15 10 8 0 15 -4 15 -10z m-93 -114 c-8 -20 -21 -20 -42 0 -14 15 -14 17 2 29 15 12 20 12 32 0 7 -7 11 -21 8 -29z m-140 -42 c7 -19 -20 -49 -36 -40 -12 8 -15 39 -4 49 12 12 33 7 40 -9z m228 -54 c14 -15 16 -23 7 -32 -15 -15 -42 7 -42 33 0 25 12 24 35 -1z m-101 -56 c18 -7 22 -39 6 -49 -15 -9 -40 14 -40 36 0 20 8 23 34 13z m-110 -82 c8 -13 -11 -35 -23 -28 -16 10 -14 36 3 36 8 0 17 -4 20 -8z m216 -68 c0 -8 -7 -14 -15 -14 -15 0 -21 21 -9 33 10 9 24 -2 24 -19z" transform="translate(0,205) scale(0.1,-0.1)" stroke="none" fill="#EFB664"/>

</g>

</g>
<g id="row1" transform="translate(-76,205.0)">
<g id="0" transform="translate(0.0,0)scale(1,1)">

<path d="M1350 1816 c0 -2 35 -23 78 -46 96 -53 203 -160 292 -291 92 -138 149 -272 178 -424 7 -33 19 -94 27 -135 8 -41 20 -129 26 -195 10 -103 9 -129 -5 -183 -13 -50 -14 -72 -5 -113 9 -42 8 -58 -6 -95 -18 -47 -47 -74 -80 -74 -11 0 -33 -7 -49 -15 -15 -8 -34 -15 -41 -15 -7 0 -23 -8 -36 -18 -25 -20 -97 -49 -139 -56 -14 -2 -50 -11 -81 -19 -32 -9 -75 -13 -98 -10 -27 4 -41 2 -41 -5 0 -14 -168 -6 -185 8 -7 6 -14 7 -17 4 -7 -6 -187 54 -213 72 -11 8 -24 14 -31 14 -18 0 -175 92 -249 146 -96 70 -192 169 -250 259 -36 55 -122 229 -135 272 -37 122 -60 206 -60 218 0 8 -4 15 -8 15 -17 0 -46 137 -47 223 -1 65 -5 91 -16 98 -7 5 -10 9 -5 9 5 0 2 8 -7 18 -15 16 -15 20 -1 40 8 12 12 22 7 22 -4 0 -7 24 -6 52 3 71 -12 26 -21 -64 -10 -93 11 -193 89 -431 36 -109 65 -203 65 -210 0 -30 130 -268 181 -332 145 -180 380 -343 579 -399 36 -10 79 -24 95 -31 38 -16 158 -37 176 -30 8 2 66 9 129 15 135 12 225 33 260 60 35 28 118 66 162 74 21 4 51 19 69 33 l31 26 -6 81 c-3 45 -6 88 -6 96 -1 8 5 39 12 68 16 68 0 251 -40 452 -47 232 -82 317 -202 494 -84 123 -188 226 -289 284 -72 42 -81 46 -81 38z" transform="translate(0,205) scale(0.1,-0.1)" stroke="none" fill="#949271"/>

<path d="M596 1934 c-38 -8 -98 -26 -134 -40 -70 -26 -170 -42 -142 -23 11 7 -2 9 -47 7 -48 -3 -69 -10 -97 -32 -53 -40 -71 -72 -58 -99 15 -31 25 -93 26 -154 1 -29 5 -53 9 -53 5 0 1 -10 -7 -22 -14 -20 -14 -24 1 -40 9 -10 12 -18 7 -18 -5 0 -2 -4 5 -9 11 -7 15 -33 16 -98 1 -86 30 -223 47 -223 4 0 8 -7 8 -15 0 -12 23 -96 60 -218 13 -43 99 -217 135 -272 58 -90 154 -189 250 -259 74 -54 231 -146 249 -146 7 0 20 -6 31 -14 26 -18 206 -78 213 -72 3 3 10 2 17 -4 17 -14 185 -22 185 -8 0 7 14 9 41 5 23 -3 66 1 98 10 31 8 67 17 81 19 42 7 114 36 139 56 13 10 29 18 36 18 7 0 26 7 41 15 16 8 38 15 49 15 33 0 62 27 80 74 14 37 15 53 6 95 -9 41 -8 63 5 113 14 54 15 80 5 183 -6 66 -18 154 -26 195 -8 41 -20 102 -27 135 -15 79 -52 195 -87 270 -66 141 -225 343 -324 408 -107 71 -270 146 -373 172 -186 46 -386 57 -518 29z m914 -879 c0 -8 -4 -15 -9 -15 -5 0 -11 7 -15 15 -3 9 0 15 9 15 8 0 15 -7 15 -15z m210 -65 c0 -5 -7 -10 -15 -10 -8 0 -15 5 -15 10 0 6 7 10 15 10 8 0 15 -4 15 -10z m-93 -114 c-8 -20 -21 -20 -42 0 -14 15 -14 17 2 29 15 12 20 12 32 0 7 -7 11 -21 8 -29z m-140 -42 c7 -19 -20 -49 -36 -40 -12 8 -15 39 -4 49 12 12 33 7 40 -9z m228 -54 c14 -15 16 -23 7 -32 -15 -15 -42 7 -42 33 0 25 12 24 35 -1z m-101 -56 c18 -7 22 -39 6 -49 -15 -9 -40 14 -40 36 0 20 8 23 34 13z m-110 -82 c8 -13 -11 -35 -23 -28 -16 10 -14 36 3 36 8 0 17 -4 20 -8z m216 -68 c0 -8 -7 -14 -15 -14 -15 0 -21 21 -9 33 10 9 24 -2 24 -19z" transform="translate(0,205) scale(0.1,-0.1)" stroke="none" fill="#EFB664"/>

</g>

<g id="1" transform="translate(206.0,0)scale(1,1)">

<path d="M1350 1816 c0 -2 35 -23 78 -46 96 -53 203 -160 292 -291 92 -138 149 -272 178 -424 7 -33 19 -94 27 -135 8 -41 20 -129 26 -195 10 -103 9 -129 -5 -183 -13 -50 -14 -72 -5 -113 9 -42 8 -58 -6 -95 -18 -47 -47 -74 -80 -74 -11 0 -33 -7 -49 -15 -15 -8 -34 -15 -41 -15 -7 0 -23 -8 -36 -18 -25 -20 -97 -49 -139 -56 -14 -2 -50 -11 -81 -19 -32 -9 -75 -13 -98 -10 -27 4 -41 2 -41 -5 0 -14 -168 -6 -185 8 -7 6 -14 7 -17 4 -7 -6 -187 54 -213 72 -11 8 -24 14 -31 14 -18 0 -175 92 -249 146 -96 70 -192 169 -250 259 -36 55 -122 229 -135 272 -37 122 -60 206 -60 218 0 8 -4 15 -8 15 -17 0 -46 137 -47 223 -1 65 -5 91 -16 98 -7 5 -10 9 -5 9 5 0 2 8 -7 18 -15 16 -15 20 -1 40 8 12 12 22 7 22 -4 0 -7 24 -6 52 3 71 -12 26 -21 -64 -10 -93 11 -193 89 -431 36 -109 65 -203 65 -210 0 -30 130 -268 181 -332 145 -180 380 -343 579 -399 36 -10 79 -24 95 -31 38 -16 158 -37 176 -30 8 2 66 9 129 15 135 12 225 33 260 60 35 28 118 66 162 74 21 4 51 19 69 33 l31 26 -6 81 c-3 45 -6 88 -6 96 -1 8 5 39 12 68 16 68 0 251 -40 452 -47 232 -82 317 -202 494 -84 123 -188 226 -289 284 -72 42 -81 46 -81 38z" transform="translate(0,205) scale(0.1,-0.1)" stroke="none" fill="#949271"/>

<path d="M596 1934 c-38 -8 -98 -26 -134 -40 -70 -26 -170 -42 -142 -23 11 7 -2 9 -47 7 -48 -3 -69 -10 -97 -32 -53 -40 -71 -72 -58 -99 15 -31 25 -93 26 -154 1 -29 5 -53 9 -53 5 0 1 -10 -7 -22 -14 -20 -14 -24 1 -40 9 -10 12 -18 7 -18 -5 0 -2 -4 5 -9 11 -7 15 -33 16 -98 1 -86 30 -223 47 -223 4 0 8 -7 8 -15 0 -12 23 -96 60 -218 13 -43 99 -217 135 -272 58 -90 154 -189 250 -259 74 -54 231 -146 249 -146 7 0 20 -6 31 -14 26 -18 206 -78 213 -72 3 3 10 2 17 -4 17 -14 185 -22 185 -8 0 7 14 9 41 5 23 -3 66 1 98 10 31 8 67 17 81 19 42 7 114 36 139 56 13 10 29 18 36 18 7 0 26 7 41 15 16 8 38 15 49 15 33 0 62 27 80 74 14 37 15 53 6 95 -9 41 -8 63 5 113 14 54 15 80 5 183 -6 66 -18 154 -26 195 -8 41 -20 102 -27 135 -15 79 -52 195 -87 270 -66 141 -225 343 -324 408 -107 71 -270 146 -373 172 -186 46 -386 57 -518 29z m914 -879 c0 -8 -4 -15 -9 -15 -5 0 -11 7 -15 15 -3 9 0 15 9 15 8 0 15 -7 15 -15z m210 -65 c0 -5 -7 -10 -15 -10 -8 0 -15 5 -15 10 0 6 7 10 15 10 8 0 15 -4 15 -10z m-93 -114 c-8 -20 -21 -20 -42 0 -14 15 -14 17 2 29 15 12 20 12 32 0 7 -7 11 -21 8 -29z m-140 -42 c7 -19 -20 -49 -36 -40 -12 8 -15 39 -4 49 12 12 33 7 40 -9z m228 -54 c14 -15 16 -23 7 -32 -15 -15 -42 7 -42 33 0 25 12 24 35 -1z m-101 -56 c18 -7 22 -39 6 -49 -15 -9 -40 14 -40 36 0 20 8 23 34 13z m-110 -82 c8 -13 -11 -35 -23 -28 -16 10 -14 36 3 36 8 0 17 -4 20 -8z m216 -68 c0 -8 -7 -14 -15 -14 -15 0 -21 21 -9 33 10 9 24 -2 24 -19z" transform="translate(0,205) scale(0.1,-0.1)" stroke="none" fill="#EFB664"/>

</g>

<g id="2" transform="translate(412.0,0)scale(1,1)">

<path d="M1350 1816 c0 -2 35 -23 78 -46 96 -53 203 -160 292 -291 92 -138 149 -272 178 -424 7 -33 19 -94 27 -135 8 -41 20 -129 26 -195 10 -103 9 -129 -5 -183 -13 -50 -14 -72 -5 -113 9 -42 8 -58 -6 -95 -18 -47 -47 -74 -80 -74 -11 0 -33 -7 -49 -15 -15 -8 -34 -15 -41 -15 -7 0 -23 -8 -36 -18 -25 -20 -97 -49 -139 -56 -14 -2 -50 -11 -81 -19 -32 -9 -75 -13 -98 -10 -27 4 -41 2 -41 -5 0 -14 -168 -6 -185 8 -7 6 -14 7 -17 4 -7 -6 -187 54 -213 72 -11 8 -24 14 -31 14 -18 0 -175 92 -249 146 -96 70 -192 169 -250 259 -36 55 -122 229 -135 272 -37 122 -60 206 -60 218 0 8 -4 15 -8 15 -17 0 -46 137 -47 223 -1 65 -5 91 -16 98 -7 5 -10 9 -5 9 5 0 2 8 -7 18 -15 16 -15 20 -1 40 8 12 12 22 7 22 -4 0 -7 24 -6 52 3 71 -12 26 -21 -64 -10 -93 11 -193 89 -431 36 -109 65 -203 65 -210 0 -30 130 -268 181 -332 145 -180 380 -343 579 -399 36 -10 79 -24 95 -31 38 -16 158 -37 176 -30 8 2 66 9 129 15 135 12 225 33 260 60 35 28 118 66 162 74 21 4 51 19 69 33 l31 26 -6 81 c-3 45 -6 88 -6 96 -1 8 5 39 12 68 16 68 0 251 -40 452 -47 232 -82 317 -202 494 -84 123 -188 226 -289 284 -72 42 -81 46 -81 38z" transform="translate(0,205) scale(0.1,-0.1)" stroke="none" fill="#949271"/>

<path d="M596 1934 c-38 -8 -98 -26 -134 -40 -70 -26 -170 -42 -142 -23 11 7 -2 9 -47 7 -48 -3 -69 -10 -97 -32 -53 -40 -71 -72 -58 -99 15 -31 25 -93 26 -154 1 -29 5 -53 9 -53 5 0 1 -10 -7 -22 -14 -20 -14 -24 1 -40 9 -10 12 -18 7 -18 -5 0 -2 -4 5 -9 11 -7 15 -33 16 -98 1 -86 30 -223 47 -223 4 0 8 -7 8 -15 0 -12 23 -96 60 -218 13 -43 99 -217 135 -272 58 -90 154 -189 250 -259 74 -54 231 -146 249 -146 7 0 20 -6 31 -14 26 -18 206 -78 213 -72 3 3 10 2 17 -4 17 -14 185 -22 185 -8 0 7 14 9 41 5 23 -3 66 1 98 10 31 8 67 17 81 19 42 7 114 36 139 56 13 10 29 18 36 18 7 0 26 7 41 15 16 8 38 15 49 15 33 0 62 27 80 74 14 37 15 53 6 95 -9 41 -8 63 5 113 14 54 15 80 5 183 -6 66 -18 154 -26 195 -8 41 -20 102 -27 135 -15 79 -52 195 -87 270 -66 141 -225 343 -324 408 -107 71 -270 146 -373 172 -186 46 -386 57 -518 29z m914 -879 c0 -8 -4 -15 -9 -15 -5 0 -11 7 -15 15 -3 9 0 15 9 15 8 0 15 -7 15 -15z m210 -65 c0 -5 -7 -10 -15 -10 -8 0 -15 5 -15 10 0 6 7 10 15 10 8 0 15 -4 15 -10z m-93 -114 c-8 -20 -21 -20 -42 0 -14 15 -14 17 2 29 15 12 20 12 32 0 7 -7 11 -21 8 -29z m-140 -42 c7 -19 -20 -49 -36 -40 -12 8 -15 39 -4 49 12 12 33 7 40 -9z m228 -54 c14 -15 16 -23 7 -32 -15 -15 -42 7 -42 33 0 25 12 24 35 -1z m-101 -56 c18 -7 22 -39 6 -49 -15 -9 -40 14 -40 36 0 20 8 23 34 13z m-110 -82 c8 -13 -11 -35 -23 -28 -16 10 -14 36 3 36 8 0 17 -4 20 -8z m216 -68 c0 -8 -7 -14 -15 -14 -15 0 -21 21 -9 33 10 9 24 -2 24 -19z" transform="translate(0,205) scale(0.1,-0.1)" stroke="none" fill="#EFB664"/>

</g>

<g id="3" transform="translate(618.0,0)scale(1,1)">

<path d="M1350 1816 c0 -2 35 -23 78 -46 96 -53 203 -160 292 -291 92 -138 149 -272 178 -424 7 -33 19 -94 27 -135 8 -41 20 -129 26 -195 10 -103 9 -129 -5 -183 -13 -50 -14 -72 -5 -113 9 -42 8 -58 -6 -95 -18 -47 -47 -74 -80 -74 -11 0 -33 -7 -49 -15 -15 -8 -34 -15 -41 -15 -7 0 -23 -8 -36 -18 -25 -20 -97 -49 -139 -56 -14 -2 -50 -11 -81 -19 -32 -9 -75 -13 -98 -10 -27 4 -41 2 -41 -5 0 -14 -168 -6 -185 8 -7 6 -14 7 -17 4 -7 -6 -187 54 -213 72 -11 8 -24 14 -31 14 -18 0 -175 92 -249 146 -96 70 -192 169 -250 259 -36 55 -122 229 -135 272 -37 122 -60 206 -60 218 0 8 -4 15 -8 15 -17 0 -46 137 -47 223 -1 65 -5 91 -16 98 -7 5 -10 9 -5 9 5 0 2 8 -7 18 -15 16 -15 20 -1 40 8 12 12 22 7 22 -4 0 -7 24 -6 52 3 71 -12 26 -21 -64 -10 -93 11 -193 89 -431 36 -109 65 -203 65 -210 0 -30 130 -268 181 -332 145 -180 380 -343 579 -399 36 -10 79 -24 95 -31 38 -16 158 -37 176 -30 8 2 66 9 129 15 135 12 225 33 260 60 35 28 118 66 162 74 21 4 51 19 69 33 l31 26 -6 81 c-3 45 -6 88 -6 96 -1 8 5 39 12 68 16 68 0 251 -40 452 -47 232 -82 317 -202 494 -84 123 -188 226 -289 284 -72 42 -81 46 -81 38z" transform="translate(0,205) scale(0.1,-0.1)" stroke="none" fill="#949271"/>

<path d="M596 1934 c-38 -8 -98 -26 -134 -40 -70 -26 -170 -42 -142 -23 11 7 -2 9 -47 7 -48 -3 -69 -10 -97 -32 -53 -40 -71 -72 -58 -99 15 -31 25 -93 26 -154 1 -29 5 -53 9 -53 5 0 1 -10 -7 -22 -14 -20 -14 -24 1 -40 9 -10 12 -18 7 -18 -5 0 -2 -4 5 -9 11 -7 15 -33 16 -98 1 -86 30 -223 47 -223 4 0 8 -7 8 -15 0 -12 23 -96 60 -218 13 -43 99 -217 135 -272 58 -90 154 -189 250 -259 74 -54 231 -146 249 -146 7 0 20 -6 31 -14 26 -18 206 -78 213 -72 3 3 10 2 17 -4 17 -14 185 -22 185 -8 0 7 14 9 41 5 23 -3 66 1 98 10 31 8 67 17 81 19 42 7 114 36 139 56 13 10 29 18 36 18 7 0 26 7 41 15 16 8 38 15 49 15 33 0 62 27 80 74 14 37 15 53 6 95 -9 41 -8 63 5 113 14 54 15 80 5 183 -6 66 -18 154 -26 195 -8 41 -20 102 -27 135 -15 79 -52 195 -87 270 -66 141 -225 343 -324 408 -107 71 -270 146 -373 172 -186 46 -386 57 -518 29z m914 -879 c0 -8 -4 -15 -9 -15 -5 0 -11 7 -15 15 -3 9 0 15 9 15 8 0 15 -7 15 -15z m210 -65 c0 -5 -7 -10 -15 -10 -8 0 -15 5 -15 10 0 6 7 10 15 10 8 0 15 -4 15 -10z m-93 -114 c-8 -20 -21 -20 -42 0 -14 15 -14 17 2 29 15 12 20 12 32 0 7 -7 11 -21 8 -29z m-140 -42 c7 -19 -20 -49 -36 -40 -12 8 -15 39 -4 49 12 12 33 7 40 -9z m228 -54 c14 -15 16 -23 7 -32 -15 -15 -42 7 -42 33 0 25 12 24 35 -1z m-101 -56 c18 -7 22 -39 6 -49 -15 -9 -40 14 -40 36 0 20 8 23 34 13z m-110 -82 c8 -13 -11 -35 -23 -28 -16 10 -14 36 3 36 8 0 17 -4 20 -8z m216 -68 c0 -8 -7 -14 -15 -14 -15 0 -21 21 -9 33 10 9 24 -2 24 -19z" transform="translate(0,205) scale(0.1,-0.1)" stroke="none" fill="#EFB664"/>

</g>

<g id="4" transform="translate(824.0,0)scale(1,1)">

<path d="M1350 1816 c0 -2 35 -23 78 -46 96 -53 203 -160 292 -291 92 -138 149 -272 178 -424 7 -33 19 -94 27 -135 8 -41 20 -129 26 -195 10 -103 9 -129 -5 -183 -13 -50 -14 -72 -5 -113 9 -42 8 -58 -6 -95 -18 -47 -47 -74 -80 -74 -11 0 -33 -7 -49 -15 -15 -8 -34 -15 -41 -15 -7 0 -23 -8 -36 -18 -25 -20 -97 -49 -139 -56 -14 -2 -50 -11 -81 -19 -32 -9 -75 -13 -98 -10 -27 4 -41 2 -41 -5 0 -14 -168 -6 -185 8 -7 6 -14 7 -17 4 -7 -6 -187 54 -213 72 -11 8 -24 14 -31 14 -18 0 -175 92 -249 146 -96 70 -192 169 -250 259 -36 55 -122 229 -135 272 -37 122 -60 206 -60 218 0 8 -4 15 -8 15 -17 0 -46 137 -47 223 -1 65 -5 91 -16 98 -7 5 -10 9 -5 9 5 0 2 8 -7 18 -15 16 -15 20 -1 40 8 12 12 22 7 22 -4 0 -7 24 -6 52 3 71 -12 26 -21 -64 -10 -93 11 -193 89 -431 36 -109 65 -203 65 -210 0 -30 130 -268 181 -332 145 -180 380 -343 579 -399 36 -10 79 -24 95 -31 38 -16 158 -37 176 -30 8 2 66 9 129 15 135 12 225 33 260 60 35 28 118 66 162 74 21 4 51 19 69 33 l31 26 -6 81 c-3 45 -6 88 -6 96 -1 8 5 39 12 68 16 68 0 251 -40 452 -47 232 -82 317 -202 494 -84 123 -188 226 -289 284 -72 42 -81 46 -81 38z" transform="translate(0,205) scale(0.1,-0.1)" stroke="none" fill="#949271"/>

<path d="M596 1934 c-38 -8 -98 -26 -134 -40 -70 -26 -170 -42 -142 -23 11 7 -2 9 -47 7 -48 -3 -69 -10 -97 -32 -53 -40 -71 -72 -58 -99 15 -31 25 -93 26 -154 1 -29 5 -53 9 -53 5 0 1 -10 -7 -22 -14 -20 -14 -24 1 -40 9 -10 12 -18 7 -18 -5 0 -2 -4 5 -9 11 -7 15 -33 16 -98 1 -86 30 -223 47 -223 4 0 8 -7 8 -15 0 -12 23 -96 60 -218 13 -43 99 -217 135 -272 58 -90 154 -189 250 -259 74 -54 231 -146 249 -146 7 0 20 -6 31 -14 26 -18 206 -78 213 -72 3 3 10 2 17 -4 17 -14 185 -22 185 -8 0 7 14 9 41 5 23 -3 66 1 98 10 31 8 67 17 81 19 42 7 114 36 139 56 13 10 29 18 36 18 7 0 26 7 41 15 16 8 38 15 49 15 33 0 62 27 80 74 14 37 15 53 6 95 -9 41 -8 63 5 113 14 54 15 80 5 183 -6 66 -18 154 -26 195 -8 41 -20 102 -27 135 -15 79 -52 195 -87 270 -66 141 -225 343 -324 408 -107 71 -270 146 -373 172 -186 46 -386 57 -518 29z m914 -879 c0 -8 -4 -15 -9 -15 -5 0 -11 7 -15 15 -3 9 0 15 9 15 8 0 15 -7 15 -15z m210 -65 c0 -5 -7 -10 -15 -10 -8 0 -15 5 -15 10 0 6 7 10 15 10 8 0 15 -4 15 -10z m-93 -114 c-8 -20 -21 -20 -42 0 -14 15 -14 17 2 29 15 12 20 12 32 0 7 -7 11 -21 8 -29z m-140 -42 c7 -19 -20 -49 -36 -40 -12 8 -15 39 -4 49 12 12 33 7 40 -9z m228 -54 c14 -15 16 -23 7 -32 -15 -15 -42 7 -42 33 0 25 12 24 35 -1z m-101 -56 c18 -7 22 -39 6 -49 -15 -9 -40 14 -40 36 0 20 8 23 34 13z m-110 -82 c8 -13 -11 -35 -23 -28 -16 10 -14 36 3 36 8 0 17 -4 20 -8z m216 -68 c0 -8 -7 -14 -15 -14 -15 0 -21 21 -9 33 10 9 24 -2 24 -19z" transform="translate(0,205) scale(0.1,-0.1)" stroke="none" fill="#EFB664"/>

</g>

</g>
<g id="row2" transform="translate(27,410.0)">
<g id="0" transform="translate(0.0,0)scale(1,1)">

<path d="M1350 1816 c0 -2 35 -23 78 -46 96 -53 203 -160 292 -291 92 -138 149 -272 178 -424 7 -33 19 -94 27 -135 8 -41 20 -129 26 -195 10 -103 9 -129 -5 -183 -13 -50 -14 -72 -5 -113 9 -42 8 -58 -6 -95 -18 -47 -47 -74 -80 -74 -11 0 -33 -7 -49 -15 -15 -8 -34 -15 -41 -15 -7 0 -23 -8 -36 -18 -25 -20 -97 -49 -139 -56 -14 -2 -50 -11 -81 -19 -32 -9 -75 -13 -98 -10 -27 4 -41 2 -41 -5 0 -14 -168 -6 -185 8 -7 6 -14 7 -17 4 -7 -6 -187 54 -213 72 -11 8 -24 14 -31 14 -18 0 -175 92 -249 146 -96 70 -192 169 -250 259 -36 55 -122 229 -135 272 -37 122 -60 206 -60 218 0 8 -4 15 -8 15 -17 0 -46 137 -47 223 -1 65 -5 91 -16 98 -7 5 -10 9 -5 9 5 0 2 8 -7 18 -15 16 -15 20 -1 40 8 12 12 22 7 22 -4 0 -7 24 -6 52 3 71 -12 26 -21 -64 -10 -93 11 -193 89 -431 36 -109 65 -203 65 -210 0 -30 130 -268 181 -332 145 -180 380 -343 579 -399 36 -10 79 -24 95 -31 38 -16 158 -37 176 -30 8 2 66 9 129 15 135 12 225 33 260 60 35 28 118 66 162 74 21 4 51 19 69 33 l31 26 -6 81 c-3 45 -6 88 -6 96 -1 8 5 39 12 68 16 68 0 251 -40 452 -47 232 -82 317 -202 494 -84 123 -188 226 -289 284 -72 42 -81 46 -81 38z" transform="translate(0,205) scale(0.1,-0.1)" stroke="none" fill="#949271"/>

<path d="M596 1934 c-38 -8 -98 -26 -134 -40 -70 -26 -170 -42 -142 -23 11 7 -2 9 -47 7 -48 -3 -69 -10 -97 -32 -53 -40 -71 -72 -58 -99 15 -31 25 -93 26 -154 1 -29 5 -53 9 -53 5 0 1 -10 -7 -22 -14 -20 -14 -24 1 -40 9 -10 12 -18 7 -18 -5 0 -2 -4 5 -9 11 -7 15 -33 16 -98 1 -86 30 -223 47 -223 4 0 8 -7 8 -15 0 -12 23 -96 60 -218 13 -43 99 -217 135 -272 58 -90 154 -189 250 -259 74 -54 231 -146 249 -146 7 0 20 -6 31 -14 26 -18 206 -78 213 -72 3 3 10 2 17 -4 17 -14 185 -22 185 -8 0 7 14 9 41 5 23 -3 66 1 98 10 31 8 67 17 81 19 42 7 114 36 139 56 13 10 29 18 36 18 7 0 26 7 41 15 16 8 38 15 49 15 33 0 62 27 80 74 14 37 15 53 6 95 -9 41 -8 63 5 113 14 54 15 80 5 183 -6 66 -18 154 -26 195 -8 41 -20 102 -27 135 -15 79 -52 195 -87 270 -66 141 -225 343 -324 408 -107 71 -270 146 -373 172 -186 46 -386 57 -518 29z m914 -879 c0 -8 -4 -15 -9 -15 -5 0 -11 7 -15 15 -3 9 0 15 9 15 8 0 15 -7 15 -15z m210 -65 c0 -5 -7 -10 -15 -10 -8 0 -15 5 -15 10 0 6 7 10 15 10 8 0 15 -4 15 -10z m-93 -114 c-8 -20 -21 -20 -42 0 -14 15 -14 17 2 29 15 12 20 12 32 0 7 -7 11 -21 8 -29z m-140 -42 c7 -19 -20 -49 -36 -40 -12 8 -15 39 -4 49 12 12 33 7 40 -9z m228 -54 c14 -15 16 -23 7 -32 -15 -15 -42 7 -42 33 0 25 12 24 35 -1z m-101 -56 c18 -7 22 -39 6 -49 -15 -9 -40 14 -40 36 0 20 8 23 34 13z m-110 -82 c8 -13 -11 -35 -23 -28 -16 10 -14 36 3 36 8 0 17 -4 20 -8z m216 -68 c0 -8 -7 -14 -15 -14 -15 0 -21 21 -9 33 10 9 24 -2 24 -19z" transform="translate(0,205) scale(0.1,-0.1)" stroke="none" fill="#EFB664"/>

</g>

<g id="1" transform="translate(206.0,0)scale(1,1)">

<path d="M1350 1816 c0 -2 35 -23 78 -46 96 -53 203 -160 292 -291 92 -138 149 -272 178 -424 7 -33 19 -94 27 -135 8 -41 20 -129 26 -195 10 -103 9 -129 -5 -183 -13 -50 -14 -72 -5 -113 9 -42 8 -58 -6 -95 -18 -47 -47 -74 -80 -74 -11 0 -33 -7 -49 -15 -15 -8 -34 -15 -41 -15 -7 0 -23 -8 -36 -18 -25 -20 -97 -49 -139 -56 -14 -2 -50 -11 -81 -19 -32 -9 -75 -13 -98 -10 -27 4 -41 2 -41 -5 0 -14 -168 -6 -185 8 -7 6 -14 7 -17 4 -7 -6 -187 54 -213 72 -11 8 -24 14 -31 14 -18 0 -175 92 -249 146 -96 70 -192 169 -250 259 -36 55 -122 229 -135 272 -37 122 -60 206 -60 218 0 8 -4 15 -8 15 -17 0 -46 137 -47 223 -1 65 -5 91 -16 98 -7 5 -10 9 -5 9 5 0 2 8 -7 18 -15 16 -15 20 -1 40 8 12 12 22 7 22 -4 0 -7 24 -6 52 3 71 -12 26 -21 -64 -10 -93 11 -193 89 -431 36 -109 65 -203 65 -210 0 -30 130 -268 181 -332 145 -180 380 -343 579 -399 36 -10 79 -24 95 -31 38 -16 158 -37 176 -30 8 2 66 9 129 15 135 12 225 33 260 60 35 28 118 66 162 74 21 4 51 19 69 33 l31 26 -6 81 c-3 45 -6 88 -6 96 -1 8 5 39 12 68 16 68 0 251 -40 452 -47 232 -82 317 -202 494 -84 123 -188 226 -289 284 -72 42 -81 46 -81 38z" transform="translate(0,205) scale(0.1,-0.1)" stroke="none" fill="#949271"/>

<path d="M596 1934 c-38 -8 -98 -26 -134 -40 -70 -26 -170 -42 -142 -23 11 7 -2 9 -47 7 -48 -3 -69 -10 -97 -32 -53 -40 -71 -72 -58 -99 15 -31 25 -93 26 -154 1 -29 5 -53 9 -53 5 0 1 -10 -7 -22 -14 -20 -14 -24 1 -40 9 -10 12 -18 7 -18 -5 0 -2 -4 5 -9 11 -7 15 -33 16 -98 1 -86 30 -223 47 -223 4 0 8 -7 8 -15 0 -12 23 -96 60 -218 13 -43 99 -217 135 -272 58 -90 154 -189 250 -259 74 -54 231 -146 249 -146 7 0 20 -6 31 -14 26 -18 206 -78 213 -72 3 3 10 2 17 -4 17 -14 185 -22 185 -8 0 7 14 9 41 5 23 -3 66 1 98 10 31 8 67 17 81 19 42 7 114 36 139 56 13 10 29 18 36 18 7 0 26 7 41 15 16 8 38 15 49 15 33 0 62 27 80 74 14 37 15 53 6 95 -9 41 -8 63 5 113 14 54 15 80 5 183 -6 66 -18 154 -26 195 -8 41 -20 102 -27 135 -15 79 -52 195 -87 270 -66 141 -225 343 -324 408 -107 71 -270 146 -373 172 -186 46 -386 57 -518 29z m914 -879 c0 -8 -4 -15 -9 -15 -5 0 -11 7 -15 15 -3 9 0 15 9 15 8 0 15 -7 15 -15z m210 -65 c0 -5 -7 -10 -15 -10 -8 0 -15 5 -15 10 0 6 7 10 15 10 8 0 15 -4 15 -10z m-93 -114 c-8 -20 -21 -20 -42 0 -14 15 -14 17 2 29 15 12 20 12 32 0 7 -7 11 -21 8 -29z m-140 -42 c7 -19 -20 -49 -36 -40 -12 8 -15 39 -4 49 12 12 33 7 40 -9z m228 -54 c14 -15 16 -23 7 -32 -15 -15 -42 7 -42 33 0 25 12 24 35 -1z m-101 -56 c18 -7 22 -39 6 -49 -15 -9 -40 14 -40 36 0 20 8 23 34 13z m-110 -82 c8 -13 -11 -35 -23 -28 -16 10 -14 36 3 36 8 0 17 -4 20 -8z m216 -68 c0 -8 -7 -14 -15 -14 -15 0 -21 21 -9 33 10 9 24 -2 24 -19z" transform="translate(0,205) scale(0.1,-0.1)" stroke="none" fill="#EFB664"/>

</g>

<g id="2" transform="translate(412.0,0)scale(1,1)">

<path d="M1350 1816 c0 -2 35 -23 78 -46 96 -53 203 -160 292 -291 92 -138 149 -272 178 -424 7 -33 19 -94 27 -135 8 -41 20 -129 26 -195 10 -103 9 -129 -5 -183 -13 -50 -14 -72 -5 -113 9 -42 8 -58 -6 -95 -18 -47 -47 -74 -80 -74 -11 0 -33 -7 -49 -15 -15 -8 -34 -15 -41 -15 -7 0 -23 -8 -36 -18 -25 -20 -97 -49 -139 -56 -14 -2 -50 -11 -81 -19 -32 -9 -75 -13 -98 -10 -27 4 -41 2 -41 -5 0 -14 -168 -6 -185 8 -7 6 -14 7 -17 4 -7 -6 -187 54 -213 72 -11 8 -24 14 -31 14 -18 0 -175 92 -249 146 -96 70 -192 169 -250 259 -36 55 -122 229 -135 272 -37 122 -60 206 -60 218 0 8 -4 15 -8 15 -17 0 -46 137 -47 223 -1 65 -5 91 -16 98 -7 5 -10 9 -5 9 5 0 2 8 -7 18 -15 16 -15 20 -1 40 8 12 12 22 7 22 -4 0 -7 24 -6 52 3 71 -12 26 -21 -64 -10 -93 11 -193 89 -431 36 -109 65 -203 65 -210 0 -30 130 -268 181 -332 145 -180 380 -343 579 -399 36 -10 79 -24 95 -31 38 -16 158 -37 176 -30 8 2 66 9 129 15 135 12 225 33 260 60 35 28 118 66 162 74 21 4 51 19 69 33 l31 26 -6 81 c-3 45 -6 88 -6 96 -1 8 5 39 12 68 16 68 0 251 -40 452 -47 232 -82 317 -202 494 -84 123 -188 226 -289 284 -72 42 -81 46 -81 38z" transform="translate(0,205) scale(0.1,-0.1)" stroke="none" fill="#949271"/>

<path d="M596 1934 c-38 -8 -98 -26 -134 -40 -70 -26 -170 -42 -142 -23 11 7 -2 9 -47 7 -48 -3 -69 -10 -97 -32 -53 -40 -71 -72 -58 -99 15 -31 25 -93 26 -154 1 -29 5 -53 9 -53 5 0 1 -10 -7 -22 -14 -20 -14 -24 1 -40 9 -10 12 -18 7 -18 -5 0 -2 -4 5 -9 11 -7 15 -33 16 -98 1 -86 30 -223 47 -223 4 0 8 -7 8 -15 0 -12 23 -96 60 -218 13 -43 99 -217 135 -272 58 -90 154 -189 250 -259 74 -54 231 -146 249 -146 7 0 20 -6 31 -14 26 -18 206 -78 213 -72 3 3 10 2 17 -4 17 -14 185 -22 185 -8 0 7 14 9 41 5 23 -3 66 1 98 10 31 8 67 17 81 19 42 7 114 36 139 56 13 10 29 18 36 18 7 0 26 7 41 15 16 8 38 15 49 15 33 0 62 27 80 74 14 37 15 53 6 95 -9 41 -8 63 5 113 14 54 15 80 5 183 -6 66 -18 154 -26 195 -8 41 -20 102 -27 135 -15 79 -52 195 -87 270 -66 141 -225 343 -324 408 -107 71 -270 146 -373 172 -186 46 -386 57 -518 29z m914 -879 c0 -8 -4 -15 -9 -15 -5 0 -11 7 -15 15 -3 9 0 15 9 15 8 0 15 -7 15 -15z m210 -65 c0 -5 -7 -10 -15 -10 -8 0 -15 5 -15 10 0 6 7 10 15 10 8 0 15 -4 15 -10z m-93 -114 c-8 -20 -21 -20 -42 0 -14 15 -14 17 2 29 15 12 20 12 32 0 7 -7 11 -21 8 -29z m-140 -42 c7 -19 -20 -49 -36 -40 -12 8 -15 39 -4 49 12 12 33 7 40 -9z m228 -54 c14 -15 16 -23 7 -32 -15 -15 -42 7 -42 33 0 25 12 24 35 -1z m-101 -56 c18 -7 22 -39 6 -49 -15 -9 -40 14 -40 36 0 20 8 23 34 13z m-110 -82 c8 -13 -11 -35 -23 -28 -16 10 -14 36 3 36 8 0 17 -4 20 -8z m216 -68 c0 -8 -7 -14 -15 -14 -15 0 -21 21 -9 33 10 9 24 -2 24 -19z" transform="translate(0,205) scale(0.1,-0.1)" stroke="none" fill="#EFB664"/>

</g>

<g id="3" transform="translate(618.0,0)scale(1,1)">

<path d="M1350 1816 c0 -2 35 -23 78 -46 96 -53 203 -160 292 -291 92 -138 149 -272 178 -424 7 -33 19 -94 27 -135 8 -41 20 -129 26 -195 10 -103 9 -129 -5 -183 -13 -50 -14 -72 -5 -113 9 -42 8 -58 -6 -95 -18 -47 -47 -74 -80 -74 -11 0 -33 -7 -49 -15 -15 -8 -34 -15 -41 -15 -7 0 -23 -8 -36 -18 -25 -20 -97 -49 -139 -56 -14 -2 -50 -11 -81 -19 -32 -9 -75 -13 -98 -10 -27 4 -41 2 -41 -5 0 -14 -168 -6 -185 8 -7 6 -14 7 -17 4 -7 -6 -187 54 -213 72 -11 8 -24 14 -31 14 -18 0 -175 92 -249 146 -96 70 -192 169 -250 259 -36 55 -122 229 -135 272 -37 122 -60 206 -60 218 0 8 -4 15 -8 15 -17 0 -46 137 -47 223 -1 65 -5 91 -16 98 -7 5 -10 9 -5 9 5 0 2 8 -7 18 -15 16 -15 20 -1 40 8 12 12 22 7 22 -4 0 -7 24 -6 52 3 71 -12 26 -21 -64 -10 -93 11 -193 89 -431 36 -109 65 -203 65 -210 0 -30 130 -268 181 -332 145 -180 380 -343 579 -399 36 -10 79 -24 95 -31 38 -16 158 -37 176 -30 8 2 66 9 129 15 135 12 225 33 260 60 35 28 118 66 162 74 21 4 51 19 69 33 l31 26 -6 81 c-3 45 -6 88 -6 96 -1 8 5 39 12 68 16 68 0 251 -40 452 -47 232 -82 317 -202 494 -84 123 -188 226 -289 284 -72 42 -81 46 -81 38z" transform="translate(0,205) scale(0.1,-0.1)" stroke="none" fill="#949271"/>

<path d="M596 1934 c-38 -8 -98 -26 -134 -40 -70 -26 -170 -42 -142 -23 11 7 -2 9 -47 7 -48 -3 -69 -10 -97 -32 -53 -40 -71 -72 -58 -99 15 -31 25 -93 26 -154 1 -29 5 -53 9 -53 5 0 1 -10 -7 -22 -14 -20 -14 -24 1 -40 9 -10 12 -18 7 -18 -5 0 -2 -4 5 -9 11 -7 15 -33 16 -98 1 -86 30 -223 47 -223 4 0 8 -7 8 -15 0 -12 23 -96 60 -218 13 -43 99 -217 135 -272 58 -90 154 -189 250 -259 74 -54 231 -146 249 -146 7 0 20 -6 31 -14 26 -18 206 -78 213 -72 3 3 10 2 17 -4 17 -14 185 -22 185 -8 0 7 14 9 41 5 23 -3 66 1 98 10 31 8 67 17 81 19 42 7 114 36 139 56 13 10 29 18 36 18 7 0 26 7 41 15 16 8 38 15 49 15 33 0 62 27 80 74 14 37 15 53 6 95 -9 41 -8 63 5 113 14 54 15 80 5 183 -6 66 -18 154 -26 195 -8 41 -20 102 -27 135 -15 79 -52 195 -87 270 -66 141 -225 343 -324 408 -107 71 -270 146 -373 172 -186 46 -386 57 -518 29z m914 -879 c0 -8 -4 -15 -9 -15 -5 0 -11 7 -15 15 -3 9 0 15 9 15 8 0 15 -7 15 -15z m210 -65 c0 -5 -7 -10 -15 -10 -8 0 -15 5 -15 10 0 6 7 10 15 10 8 0 15 -4 15 -10z m-93 -114 c-8 -20 -21 -20 -42 0 -14 15 -14 17 2 29 15 12 20 12 32 0 7 -7 11 -21 8 -29z m-140 -42 c7 -19 -20 -49 -36 -40 -12 8 -15 39 -4 49 12 12 33 7 40 -9z m228 -54 c14 -15 16 -23 7 -32 -15 -15 -42 7 -42 33 0 25 12 24 35 -1z m-101 -56 c18 -7 22 -39 6 -49 -15 -9 -40 14 -40 36 0 20 8 23 34 13z m-110 -82 c8 -13 -11 -35 -23 -28 -16 10 -14 36 3 36 8 0 17 -4 20 -8z m216 -68 c0 -8 -7 -14 -15 -14 -15 0 -21 21 -9 33 10 9 24 -2 24 -19z" transform="translate(0,205) scale(0.1,-0.1)" stroke="none" fill="#EFB664"/>

</g>

<g id="4" transform="translate(824.0,0)scale(1,1)">

<path d="M1350 1816 c0 -2 35 -23 78 -46 96 -53 203 -160 292 -291 92 -138 149 -272 178 -424 7 -33 19 -94 27 -135 8 -41 20 -129 26 -195 10 -103 9 -129 -5 -183 -13 -50 -14 -72 -5 -113 9 -42 8 -58 -6 -95 -18 -47 -47 -74 -80 -74 -11 0 -33 -7 -49 -15 -15 -8 -34 -15 -41 -15 -7 0 -23 -8 -36 -18 -25 -20 -97 -49 -139 -56 -14 -2 -50 -11 -81 -19 -32 -9 -75 -13 -98 -10 -27 4 -41 2 -41 -5 0 -14 -168 -6 -185 8 -7 6 -14 7 -17 4 -7 -6 -187 54 -213 72 -11 8 -24 14 -31 14 -18 0 -175 92 -249 146 -96 70 -192 169 -250 259 -36 55 -122 229 -135 272 -37 122 -60 206 -60 218 0 8 -4 15 -8 15 -17 0 -46 137 -47 223 -1 65 -5 91 -16 98 -7 5 -10 9 -5 9 5 0 2 8 -7 18 -15 16 -15 20 -1 40 8 12 12 22 7 22 -4 0 -7 24 -6 52 3 71 -12 26 -21 -64 -10 -93 11 -193 89 -431 36 -109 65 -203 65 -210 0 -30 130 -268 181 -332 145 -180 380 -343 579 -399 36 -10 79 -24 95 -31 38 -16 158 -37 176 -30 8 2 66 9 129 15 135 12 225 33 260 60 35 28 118 66 162 74 21 4 51 19 69 33 l31 26 -6 81 c-3 45 -6 88 -6 96 -1 8 5 39 12 68 16 68 0 251 -40 452 -47 232 -82 317 -202 494 -84 123 -188 226 -289 284 -72 42 -81 46 -81 38z" transform="translate(0,205) scale(0.1,-0.1)" stroke="none" fill="#949271"/>

<path d="M596 1934 c-38 -8 -98 -26 -134 -40 -70 -26 -170 -42 -142 -23 11 7 -2 9 -47 7 -48 -3 -69 -10 -97 -32 -53 -40 -71 -72 -58 -99 15 -31 25 -93 26 -154 1 -29 5 -53 9 -53 5 0 1 -10 -7 -22 -14 -20 -14 -24 1 -40 9 -10 12 -18 7 -18 -5 0 -2 -4 5 -9 11 -7 15 -33 16 -98 1 -86 30 -223 47 -223 4 0 8 -7 8 -15 0 -12 23 -96 60 -218 13 -43 99 -217 135 -272 58 -90 154 -189 250 -259 74 -54 231 -146 249 -146 7 0 20 -6 31 -14 26 -18 206 -78 213 -72 3 3 10 2 17 -4 17 -14 185 -22 185 -8 0 7 14 9 41 5 23 -3 66 1 98 10 31 8 67 17 81 19 42 7 114 36 139 56 13 10 29 18 36 18 7 0 26 7 41 15 16 8 38 15 49 15 33 0 62 27 80 74 14 37 15 53 6 95 -9 41 -8 63 5 113 14 54 15 80 5 183 -6 66 -18 154 -26 195 -8 41 -20 102 -27 135 -15 79 -52 195 -87 270 -66 141 -225 343 -324 408 -107 71 -270 146 -373 172 -186 46 -386 57 -518 29z m914 -879 c0 -8 -4 -15 -9 -15 -5 0 -11 7 -15 15 -3 9 0 15 9 15 8 0 15 -7 15 -15z m210 -65 c0 -5 -7 -10 -15 -10 -8 0 -15 5 -15 10 0 6 7 10 15 10 8 0 15 -4 15 -10z m-93 -114 c-8 -20 -21 -20 -42 0 -14 15 -14 17 2 29 15 12 20 12 32 0 7 -7 11 -21 8 -29z m-140 -42 c7 -19 -20 -49 -36 -40 -12 8 -15 39 -4 49 12 12 33 7 40 -9z m228 -54 c14 -15 16 -23 7 -32 -15 -15 -42 7 -42 33 0 25 12 24 35 -1z m-101 -56 c18 -7 22 -39 6 -49 -15 -9 -40 14 -40 36 0 20 8 23 34 13z m-110 -82 c8 -13 -11 -35 -23 -28 -16 10 -14 36 3 36 8 0 17 -4 20 -8z m216 -68 c0 -8 -7 -14 -15 -14 -15 0 -21 21 -9 33 10 9 24 -2 24 -19z" transform="translate(0,205) scale(0.1,-0.1)" stroke="none" fill="#EFB664"/>

</g>

</g>
<g id="row3" transform="translate(-76,615.0)">
<g id="0" transform="translate(0.0,0)scale(1,1)">

<path d="M1350 1816 c0 -2 35 -23 78 -46 96 -53 203 -160 292 -291 92 -138 149 -272 178 -424 7 -33 19 -94 27 -135 8 -41 20 -129 26 -195 10 -103 9 -129 -5 -183 -13 -50 -14 -72 -5 -113 9 -42 8 -58 -6 -95 -18 -47 -47 -74 -80 -74 -11 0 -33 -7 -49 -15 -15 -8 -34 -15 -41 -15 -7 0 -23 -8 -36 -18 -25 -20 -97 -49 -139 -56 -14 -2 -50 -11 -81 -19 -32 -9 -75 -13 -98 -10 -27 4 -41 2 -41 -5 0 -14 -168 -6 -185 8 -7 6 -14 7 -17 4 -7 -6 -187 54 -213 72 -11 8 -24 14 -31 14 -18 0 -175 92 -249 146 -96 70 -192 169 -250 259 -36 55 -122 229 -135 272 -37 122 -60 206 -60 218 0 8 -4 15 -8 15 -17 0 -46 137 -47 223 -1 65 -5 91 -16 98 -7 5 -10 9 -5 9 5 0 2 8 -7 18 -15 16 -15 20 -1 40 8 12 12 22 7 22 -4 0 -7 24 -6 52 3 71 -12 26 -21 -64 -10 -93 11 -193 89 -431 36 -109 65 -203 65 -210 0 -30 130 -268 181 -332 145 -180 380 -343 579 -399 36 -10 79 -24 95 -31 38 -16 158 -37 176 -30 8 2 66 9 129 15 135 12 225 33 260 60 35 28 118 66 162 74 21 4 51 19 69 33 l31 26 -6 81 c-3 45 -6 88 -6 96 -1 8 5 39 12 68 16 68 0 251 -40 452 -47 232 -82 317 -202 494 -84 123 -188 226 -289 284 -72 42 -81 46 -81 38z" transform="translate(0,205) scale(0.1,-0.1)" stroke="none" fill="#949271"/>

<path d="M596 1934 c-38 -8 -98 -26 -134 -40 -70 -26 -170 -42 -142 -23 11 7 -2 9 -47 7 -48 -3 -69 -10 -97 -32 -53 -40 -71 -72 -58 -99 15 -31 25 -93 26 -154 1 -29 5 -53 9 -53 5 0 1 -10 -7 -22 -14 -20 -14 -24 1 -40 9 -10 12 -18 7 -18 -5 0 -2 -4 5 -9 11 -7 15 -33 16 -98 1 -86 30 -223 47 -223 4 0 8 -7 8 -15 0 -12 23 -96 60 -218 13 -43 99 -217 135 -272 58 -90 154 -189 250 -259 74 -54 231 -146 249 -146 7 0 20 -6 31 -14 26 -18 206 -78 213 -72 3 3 10 2 17 -4 17 -14 185 -22 185 -8 0 7 14 9 41 5 23 -3 66 1 98 10 31 8 67 17 81 19 42 7 114 36 139 56 13 10 29 18 36 18 7 0 26 7 41 15 16 8 38 15 49 15 33 0 62 27 80 74 14 37 15 53 6 95 -9 41 -8 63 5 113 14 54 15 80 5 183 -6 66 -18 154 -26 195 -8 41 -20 102 -27 135 -15 79 -52 195 -87 270 -66 141 -225 343 -324 408 -107 71 -270 146 -373 172 -186 46 -386 57 -518 29z m914 -879 c0 -8 -4 -15 -9 -15 -5 0 -11 7 -15 15 -3 9 0 15 9 15 8 0 15 -7 15 -15z m210 -65 c0 -5 -7 -10 -15 -10 -8 0 -15 5 -15 10 0 6 7 10 15 10 8 0 15 -4 15 -10z m-93 -114 c-8 -20 -21 -20 -42 0 -14 15 -14 17 2 29 15 12 20 12 32 0 7 -7 11 -21 8 -29z m-140 -42 c7 -19 -20 -49 -36 -40 -12 8 -15 39 -4 49 12 12 33 7 40 -9z m228 -54 c14 -15 16 -23 7 -32 -15 -15 -42 7 -42 33 0 25 12 24 35 -1z m-101 -56 c18 -7 22 -39 6 -49 -15 -9 -40 14 -40 36 0 20 8 23 34 13z m-110 -82 c8 -13 -11 -35 -23 -28 -16 10 -14 36 3 36 8 0 17 -4 20 -8z m216 -68 c0 -8 -7 -14 -15 -14 -15 0 -21 21 -9 33 10 9 24 -2 24 -19z" transform="translate(0,205) scale(0.1,-0.1)" stroke="none" fill="#EFB664"/>

</g>

<g id="1" transform="translate(206.0,0)scale(1,1)">

<path d="M1350 1816 c0 -2 35 -23 78 -46 96 -53 203 -160 292 -291 92 -138 149 -272 178 -424 7 -33 19 -94 27 -135 8 -41 20 -129 26 -195 10 -103 9 -129 -5 -183 -13 -50 -14 -72 -5 -113 9 -42 8 -58 -6 -95 -18 -47 -47 -74 -80 -74 -11 0 -33 -7 -49 -15 -15 -8 -34 -15 -41 -15 -7 0 -23 -8 -36 -18 -25 -20 -97 -49 -139 -56 -14 -2 -50 -11 -81 -19 -32 -9 -75 -13 -98 -10 -27 4 -41 2 -41 -5 0 -14 -168 -6 -185 8 -7 6 -14 7 -17 4 -7 -6 -187 54 -213 72 -11 8 -24 14 -31 14 -18 0 -175 92 -249 146 -96 70 -192 169 -250 259 -36 55 -122 229 -135 272 -37 122 -60 206 -60 218 0 8 -4 15 -8 15 -17 0 -46 137 -47 223 -1 65 -5 91 -16 98 -7 5 -10 9 -5 9 5 0 2 8 -7 18 -15 16 -15 20 -1 40 8 12 12 22 7 22 -4 0 -7 24 -6 52 3 71 -12 26 -21 -64 -10 -93 11 -193 89 -431 36 -109 65 -203 65 -210 0 -30 130 -268 181 -332 145 -180 380 -343 579 -399 36 -10 79 -24 95 -31 38 -16 158 -37 176 -30 8 2 66 9 129 15 135 12 225 33 260 60 35 28 118 66 162 74 21 4 51 19 69 33 l31 26 -6 81 c-3 45 -6 88 -6 96 -1 8 5 39 12 68 16 68 0 251 -40 452 -47 232 -82 317 -202 494 -84 123 -188 226 -289 284 -72 42 -81 46 -81 38z" transform="translate(0,205) scale(0.1,-0.1)" stroke="none" fill="#949271"/>

<path d="M596 1934 c-38 -8 -98 -26 -134 -40 -70 -26 -170 -42 -142 -23 11 7 -2 9 -47 7 -48 -3 -69 -10 -97 -32 -53 -40 -71 -72 -58 -99 15 -31 25 -93 26 -154 1 -29 5 -53 9 -53 5 0 1 -10 -7 -22 -14 -20 -14 -24 1 -40 9 -10 12 -18 7 -18 -5 0 -2 -4 5 -9 11 -7 15 -33 16 -98 1 -86 30 -223 47 -223 4 0 8 -7 8 -15 0 -12 23 -96 60 -218 13 -43 99 -217 135 -272 58 -90 154 -189 250 -259 74 -54 231 -146 249 -146 7 0 20 -6 31 -14 26 -18 206 -78 213 -72 3 3 10 2 17 -4 17 -14 185 -22 185 -8 0 7 14 9 41 5 23 -3 66 1 98 10 31 8 67 17 81 19 42 7 114 36 139 56 13 10 29 18 36 18 7 0 26 7 41 15 16 8 38 15 49 15 33 0 62 27 80 74 14 37 15 53 6 95 -9 41 -8 63 5 113 14 54 15 80 5 183 -6 66 -18 154 -26 195 -8 41 -20 102 -27 135 -15 79 -52 195 -87 270 -66 141 -225 343 -324 408 -107 71 -270 146 -373 172 -186 46 -386 57 -518 29z m914 -879 c0 -8 -4 -15 -9 -15 -5 0 -11 7 -15 15 -3 9 0 15 9 15 8 0 15 -7 15 -15z m210 -65 c0 -5 -7 -10 -15 -10 -8 0 -15 5 -15 10 0 6 7 10 15 10 8 0 15 -4 15 -10z m-93 -114 c-8 -20 -21 -20 -42 0 -14 15 -14 17 2 29 15 12 20 12 32 0 7 -7 11 -21 8 -29z m-140 -42 c7 -19 -20 -49 -36 -40 -12 8 -15 39 -4 49 12 12 33 7 40 -9z m228 -54 c14 -15 16 -23 7 -32 -15 -15 -42 7 -42 33 0 25 12 24 35 -1z m-101 -56 c18 -7 22 -39 6 -49 -15 -9 -40 14 -40 36 0 20 8 23 34 13z m-110 -82 c8 -13 -11 -35 -23 -28 -16 10 -14 36 3 36 8 0 17 -4 20 -8z m216 -68 c0 -8 -7 -14 -15 -14 -15 0 -21 21 -9 33 10 9 24 -2 24 -19z" transform="translate(0,205) scale(0.1,-0.1)" stroke="none" fill="#EFB664"/>

</g>

<g id="2" transform="translate(412.0,0)scale(1,1)">

<path d="M1350 1816 c0 -2 35 -23 78 -46 96 -53 203 -160 292 -291 92 -138 149 -272 178 -424 7 -33 19 -94 27 -135 8 -41 20 -129 26 -195 10 -103 9 -129 -5 -183 -13 -50 -14 -72 -5 -113 9 -42 8 -58 -6 -95 -18 -47 -47 -74 -80 -74 -11 0 -33 -7 -49 -15 -15 -8 -34 -15 -41 -15 -7 0 -23 -8 -36 -18 -25 -20 -97 -49 -139 -56 -14 -2 -50 -11 -81 -19 -32 -9 -75 -13 -98 -10 -27 4 -41 2 -41 -5 0 -14 -168 -6 -185 8 -7 6 -14 7 -17 4 -7 -6 -187 54 -213 72 -11 8 -24 14 -31 14 -18 0 -175 92 -249 146 -96 70 -192 169 -250 259 -36 55 -122 229 -135 272 -37 122 -60 206 -60 218 0 8 -4 15 -8 15 -17 0 -46 137 -47 223 -1 65 -5 91 -16 98 -7 5 -10 9 -5 9 5 0 2 8 -7 18 -15 16 -15 20 -1 40 8 12 12 22 7 22 -4 0 -7 24 -6 52 3 71 -12 26 -21 -64 -10 -93 11 -193 89 -431 36 -109 65 -203 65 -210 0 -30 130 -268 181 -332 145 -180 380 -343 579 -399 36 -10 79 -24 95 -31 38 -16 158 -37 176 -30 8 2 66 9 129 15 135 12 225 33 260 60 35 28 118 66 162 74 21 4 51 19 69 33 l31 26 -6 81 c-3 45 -6 88 -6 96 -1 8 5 39 12 68 16 68 0 251 -40 452 -47 232 -82 317 -202 494 -84 123 -188 226 -289 284 -72 42 -81 46 -81 38z" transform="translate(0,205) scale(0.1,-0.1)" stroke="none" fill="#949271"/>

<path d="M596 1934 c-38 -8 -98 -26 -134 -40 -70 -26 -170 -42 -142 -23 11 7 -2 9 -47 7 -48 -3 -69 -10 -97 -32 -53 -40 -71 -72 -58 -99 15 -31 25 -93 26 -154 1 -29 5 -53 9 -53 5 0 1 -10 -7 -22 -14 -20 -14 -24 1 -40 9 -10 12 -18 7 -18 -5 0 -2 -4 5 -9 11 -7 15 -33 16 -98 1 -86 30 -223 47 -223 4 0 8 -7 8 -15 0 -12 23 -96 60 -218 13 -43 99 -217 135 -272 58 -90 154 -189 250 -259 74 -54 231 -146 249 -146 7 0 20 -6 31 -14 26 -18 206 -78 213 -72 3 3 10 2 17 -4 17 -14 185 -22 185 -8 0 7 14 9 41 5 23 -3 66 1 98 10 31 8 67 17 81 19 42 7 114 36 139 56 13 10 29 18 36 18 7 0 26 7 41 15 16 8 38 15 49 15 33 0 62 27 80 74 14 37 15 53 6 95 -9 41 -8 63 5 113 14 54 15 80 5 183 -6 66 -18 154 -26 195 -8 41 -20 102 -27 135 -15 79 -52 195 -87 270 -66 141 -225 343 -324 408 -107 71 -270 146 -373 172 -186 46 -386 57 -518 29z m914 -879 c0 -8 -4 -15 -9 -15 -5 0 -11 7 -15 15 -3 9 0 15 9 15 8 0 15 -7 15 -15z m210 -65 c0 -5 -7 -10 -15 -10 -8 0 -15 5 -15 10 0 6 7 10 15 10 8 0 15 -4 15 -10z m-93 -114 c-8 -20 -21 -20 -42 0 -14 15 -14 17 2 29 15 12 20 12 32 0 7 -7 11 -21 8 -29z m-140 -42 c7 -19 -20 -49 -36 -40 -12 8 -15 39 -4 49 12 12 33 7 40 -9z m228 -54 c14 -15 16 -23 7 -32 -15 -15 -42 7 -42 33 0 25 12 24 35 -1z m-101 -56 c18 -7 22 -39 6 -49 -15 -9 -40 14 -40 36 0 20 8 23 34 13z m-110 -82 c8 -13 -11 -35 -23 -28 -16 10 -14 36 3 36 8 0 17 -4 20 -8z m216 -68 c0 -8 -7 -14 -15 -14 -15 0 -21 21 -9 33 10 9 24 -2 24 -19z" transform="translate(0,205) scale(0.1,-0.1)" stroke="none" fill="#EFB664"/>

</g>

<g id="3" transform="translate(618.0,0)scale(1,1)">

<path d="M1350 1816 c0 -2 35 -23 78 -46 96 -53 203 -160 292 -291 92 -138 149 -272 178 -424 7 -33 19 -94 27 -135 8 -41 20 -129 26 -195 10 -103 9 -129 -5 -183 -13 -50 -14 -72 -5 -113 9 -42 8 -58 -6 -95 -18 -47 -47 -74 -80 -74 -11 0 -33 -7 -49 -15 -15 -8 -34 -15 -41 -15 -7 0 -23 -8 -36 -18 -25 -20 -97 -49 -139 -56 -14 -2 -50 -11 -81 -19 -32 -9 -75 -13 -98 -10 -27 4 -41 2 -41 -5 0 -14 -168 -6 -185 8 -7 6 -14 7 -17 4 -7 -6 -187 54 -213 72 -11 8 -24 14 -31 14 -18 0 -175 92 -249 146 -96 70 -192 169 -250 259 -36 55 -122 229 -135 272 -37 122 -60 206 -60 218 0 8 -4 15 -8 15 -17 0 -46 137 -47 223 -1 65 -5 91 -16 98 -7 5 -10 9 -5 9 5 0 2 8 -7 18 -15 16 -15 20 -1 40 8 12 12 22 7 22 -4 0 -7 24 -6 52 3 71 -12 26 -21 -64 -10 -93 11 -193 89 -431 36 -109 65 -203 65 -210 0 -30 130 -268 181 -332 145 -180 380 -343 579 -399 36 -10 79 -24 95 -31 38 -16 158 -37 176 -30 8 2 66 9 129 15 135 12 225 33 260 60 35 28 118 66 162 74 21 4 51 19 69 33 l31 26 -6 81 c-3 45 -6 88 -6 96 -1 8 5 39 12 68 16 68 0 251 -40 452 -47 232 -82 317 -202 494 -84 123 -188 226 -289 284 -72 42 -81 46 -81 38z" transform="translate(0,205) scale(0.1,-0.1)" stroke="none" fill="#949271"/>

<path d="M596 1934 c-38 -8 -98 -26 -134 -40 -70 -26 -170 -42 -142 -23 11 7 -2 9 -47 7 -48 -3 -69 -10 -97 -32 -53 -40 -71 -72 -58 -99 15 -31 25 -93 26 -154 1 -29 5 -53 9 -53 5 0 1 -10 -7 -22 -14 -20 -14 -24 1 -40 9 -10 12 -18 7 -18 -5 0 -2 -4 5 -9 11 -7 15 -33 16 -98 1 -86 30 -223 47 -223 4 0 8 -7 8 -15 0 -12 23 -96 60 -218 13 -43 99 -217 135 -272 58 -90 154 -189 250 -259 74 -54 231 -146 249 -146 7 0 20 -6 31 -14 26 -18 206 -78 213 -72 3 3 10 2 17 -4 17 -14 185 -22 185 -8 0 7 14 9 41 5 23 -3 66 1 98 10 31 8 67 17 81 19 42 7 114 36 139 56 13 10 29 18 36 18 7 0 26 7 41 15 16 8 38 15 49 15 33 0 62 27 80 74 14 37 15 53 6 95 -9 41 -8 63 5 113 14 54 15 80 5 183 -6 66 -18 154 -26 195 -8 41 -20 102 -27 135 -15 79 -52 195 -87 270 -66 141 -225 343 -324 408 -107 71 -270 146 -373 172 -186 46 -386 57 -518 29z m914 -879 c0 -8 -4 -15 -9 -15 -5 0 -11 7 -15 15 -3 9 0 15 9 15 8 0 15 -7 15 -15z m210 -65 c0 -5 -7 -10 -15 -10 -8 0 -15 5 -15 10 0 6 7 10 15 10 8 0 15 -4 15 -10z m-93 -114 c-8 -20 -21 -20 -42 0 -14 15 -14 17 2 29 15 12 20 12 32 0 7 -7 11 -21 8 -29z m-140 -42 c7 -19 -20 -49 -36 -40 -12 8 -15 39 -4 49 12 12 33 7 40 -9z m228 -54 c14 -15 16 -23 7 -32 -15 -15 -42 7 -42 33 0 25 12 24 35 -1z m-101 -56 c18 -7 22 -39 6 -49 -15 -9 -40 14 -40 36 0 20 8 23 34 13z m-110 -82 c8 -13 -11 -35 -23 -28 -16 10 -14 36 3 36 8 0 17 -4 20 -8z m216 -68 c0 -8 -7 -14 -15 -14 -15 0 -21 21 -9 33 10 9 24 -2 24 -19z" transform="translate(0,205) scale(0.1,-0.1)" stroke="none" fill="#EFB664"/>

</g>

<g id="4" transform="translate(824.0,0)scale(1,1)">

<path d="M1350 1816 c0 -2 35 -23 78 -46 96 -53 203 -160 292 -291 92 -138 149 -272 178 -424 7 -33 19 -94 27 -135 8 -41 20 -129 26 -195 10 -103 9 -129 -5 -183 -13 -50 -14 -72 -5 -113 9 -42 8 -58 -6 -95 -18 -47 -47 -74 -80 -74 -11 0 -33 -7 -49 -15 -15 -8 -34 -15 -41 -15 -7 0 -23 -8 -36 -18 -25 -20 -97 -49 -139 -56 -14 -2 -50 -11 -81 -19 -32 -9 -75 -13 -98 -10 -27 4 -41 2 -41 -5 0 -14 -168 -6 -185 8 -7 6 -14 7 -17 4 -7 -6 -187 54 -213 72 -11 8 -24 14 -31 14 -18 0 -175 92 -249 146 -96 70 -192 169 -250 259 -36 55 -122 229 -135 272 -37 122 -60 206 -60 218 0 8 -4 15 -8 15 -17 0 -46 137 -47 223 -1 65 -5 91 -16 98 -7 5 -10 9 -5 9 5 0 2 8 -7 18 -15 16 -15 20 -1 40 8 12 12 22 7 22 -4 0 -7 24 -6 52 3 71 -12 26 -21 -64 -10 -93 11 -193 89 -431 36 -109 65 -203 65 -210 0 -30 130 -268 181 -332 145 -180 380 -343 579 -399 36 -10 79 -24 95 -31 38 -16 158 -37 176 -30 8 2 66 9 129 15 135 12 225 33 260 60 35 28 118 66 162 74 21 4 51 19 69 33 l31 26 -6 81 c-3 45 -6 88 -6 96 -1 8 5 39 12 68 16 68 0 251 -40 452 -47 232 -82 317 -202 494 -84 123 -188 226 -289 284 -72 42 -81 46 -81 38z" transform="translate(0,205) scale(0.1,-0.1)" stroke="none" fill="#949271"/>

<path d="M596 1934 c-38 -8 -98 -26 -134 -40 -70 -26 -170 -42 -142 -23 11 7 -2 9 -47 7 -48 -3 -69 -10 -97 -32 -53 -40 -71 -72 -58 -99 15 -31 25 -93 26 -154 1 -29 5 -53 9 -53 5 0 1 -10 -7 -22 -14 -20 -14 -24 1 -40 9 -10 12 -18 7 -18 -5 0 -2 -4 5 -9 11 -7 15 -33 16 -98 1 -86 30 -223 47 -223 4 0 8 -7 8 -15 0 -12 23 -96 60 -218 13 -43 99 -217 135 -272 58 -90 154 -189 250 -259 74 -54 231 -146 249 -146 7 0 20 -6 31 -14 26 -18 206 -78 213 -72 3 3 10 2 17 -4 17 -14 185 -22 185 -8 0 7 14 9 41 5 23 -3 66 1 98 10 31 8 67 17 81 19 42 7 114 36 139 56 13 10 29 18 36 18 7 0 26 7 41 15 16 8 38 15 49 15 33 0 62 27 80 74 14 37 15 53 6 95 -9 41 -8 63 5 113 14 54 15 80 5 183 -6 66 -18 154 -26 195 -8 41 -20 102 -27 135 -15 79 -52 195 -87 270 -66 141 -225 343 -324 408 -107 71 -270 146 -373 172 -186 46 -386 57 -518 29z m914 -879 c0 -8 -4 -15 -9 -15 -5 0 -11 7 -15 15 -3 9 0 15 9 15 8 0 15 -7 15 -15z m210 -65 c0 -5 -7 -10 -15 -10 -8 0 -15 5 -15 10 0 6 7 10 15 10 8 0 15 -4 15 -10z m-93 -114 c-8 -20 -21 -20 -42 0 -14 15 -14 17 2 29 15 12 20 12 32 0 7 -7 11 -21 8 -29z m-140 -42 c7 -19 -20 -49 -36 -40 -12 8 -15 39 -4 49 12 12 33 7 40 -9z m228 -54 c14 -15 16 -23 7 -32 -15 -15 -42 7 -42 33 0 25 12 24 35 -1z m-101 -56 c18 -7 22 -39 6 -49 -15 -9 -40 14 -40 36 0 20 8 23 34 13z m-110 -82 c8 -13 -11 -35 -23 -28 -16 10 -14 36 3 36 8 0 17 -4 20 -8z m216 -68 c0 -8 -7 -14 -15 -14 -15 0 -21 21 -9 33 10 9 24 -2 24 -19z" transform="translate(0,205) scale(0.1,-0.1)" stroke="none" fill="#EFB664"/>

</g>

</g>
</svg>