<?xml version="1.0" standalone="no"?>
<!DOCTYPE svg PUBLIC "-//W3C//DTD SVG 20010904//EN"
 "http://www.w3.org/TR/2001/REC-SVG-20010904/DTD/svg10.dtd">
<svg version="1.0" xmlns="http://www.w3.org/2000/svg" 
width="102.000000pt" height="60.000000pt" viewBox="0 0 102.000000 60.000000"
preserveAspectRatio = "xMidYMid meet" >
<metadata>
Created by ZoeQU, 2022
</metadata>
<rect width="102.000000" height="60.000000" fill="#394E52"/>
<path d="M400 545 c-14 -8 -34 -15 -45 -15 -11 -1 -15 -4 -9 -6 7 -3 38 4 70 15 37 13 50 20 34 20 -14 0 -36 -6 -50 -14z" transform="translate(0.000000,60.000000) scale(0.100000,-0.100000)" stroke="none" fill="#B18E77"/>

<path d="M691 196 c2 -2 36 -6 74 -9 41 -3 60 -2 45 3 -25 8 -127 13 -119 6z" transform="translate(0.000000,60.000000) scale(0.100000,-0.100000)" stroke="none" fill="#B18E77"/>

<path d="M936 265 c5 -11 8 -41 9 -67 0 -27 3 -48 8 -48 13 0 7 85 -9 110 -9 15 -12 17 -8 5z" transform="translate(0.000000,60.000000) scale(0.100000,-0.100000)" stroke="none" fill="#3C6F7D"/>

<path d="M142 238 c-5 -7 -13 -24 -17 -37 -6 -20 -4 -23 10 -18 9 4 21 7 26 7 5 0 9 4 9 10 0 5 -7 7 -15 4 -18 -7 -20 17 -3 34 7 7 9 12 6 12 -3 0 -10 -6 -16 -12z" transform="translate(0.000000,60.000000) scale(0.100000,-0.100000)" stroke="none" fill="#3C6F7D"/>

<path d="M555 559 c33 -4 74 -10 90 -13 28 -6 28 -5 -5 8 -19 8 -60 14 -90 14 l-55 -1 60 -8z" transform="translate(0.000000,60.000000) scale(0.100000,-0.100000)" stroke="none" fill="#B18E77"/>

<path d="M500 190 c-20 -5 6 -6 60 -3 52 3 97 7 99 9 8 7 -123 2 -159 -6z" transform="translate(0.000000,60.000000) scale(0.100000,-0.100000)" stroke="none" fill="#B18E77"/>

<path d="M472 446 c-29 -8 -56 -17 -60 -21 -4 -5 0 -6 8 -3 48 17 140 29 184 25 34 -4 43 -3 26 3 -36 12 -97 10 -158 -4z" transform="translate(0.000000,60.000000) scale(0.100000,-0.100000)" stroke="none" fill="#B18E77"/>

<path d="M320 271 c-42 -10 -85 -23 -95 -30 -20 -12 -20 -12 0 -6 11 4 58 16 105 27 46 10 86 21 89 24 7 7 -21 3 -99 -15z" transform="translate(0.000000,60.000000) scale(0.100000,-0.100000)" stroke="none" fill="#3C6F7D"/>

<path d="M704 424 c35 -12 67 -34 113 -78 69 -68 87 -73 23 -8 -52 54 -107 89 -150 96 -26 4 -23 1 14 -10z" transform="translate(0.000000,60.000000) scale(0.100000,-0.100000)" stroke="none" fill="#B18E77"/>

<path d="M505 310 c-43 -3 1 -6 113 -5 100 0 172 3 160 7 -28 7 -177 7 -273 -2z" transform="translate(0.000000,60.000000) scale(0.100000,-0.100000)" stroke="none" fill="#B18E77"/>

<path d="M51 160 c0 -14 2 -49 5 -77 8 -65 20 -67 84 -13 26 22 63 47 81 55 19 8 27 14 18 15 -17 0 -90 -46 -127 -81 -13 -12 -27 -18 -32 -13 -5 5 -13 38 -18 74 -5 36 -10 54 -11 40z" transform="translate(0.000000,60.000000) scale(0.100000,-0.100000)" stroke="none" fill="#B18E77"/>

<path d="M269 491 c-65 -42 -169 -156 -169 -185 0 -6 13 10 28 35 34 53 125 137 170 156 17 7 32 15 32 18 0 11 -18 4 -61 -24z" transform="translate(0.000000,60.000000) scale(0.100000,-0.100000)" stroke="none" fill="#B18E77"/>

<path d="M243 462 c-56 -45 -107 -101 -127 -140 -31 -62 -57 -153 -53 -189 l4 -38 1 40 c2 45 42 161 71 209 24 38 83 96 135 130 21 14 34 26 28 26 -5 0 -32 -17 -59 -38z" transform="translate(0.000000,60.000000) scale(0.100000,-0.100000)" stroke="none" fill="#3C6F7D"/>

<path d="M827 429 c84 -94 133 -181 133 -238 0 -23 -2 -41 -4 -41 -2 0 -23 7 -46 15 -23 8 -50 15 -59 14 -9 0 11 -9 43 -19 33 -11 63 -17 68 -14 4 3 8 23 8 46 0 59 -52 148 -138 237 l-74 76 69 -76z" transform="translate(0.000000,60.000000) scale(0.100000,-0.100000)" stroke="none" fill="#B18E77"/>

<path d="M828 351 c59 -59 65 -76 25 -68 -129 27 -154 29 -289 19 l-139 -10 150 4 c140 5 177 1 280 -25 22 -5 41 -8 43 -6 9 9 -42 77 -81 107 -39 30 -38 28 11 -21z" transform="translate(0.000000,60.000000) scale(0.100000,-0.100000)" stroke="none" fill="#3C6F7D"/>

<path d="M317 388 c-60 -32 -177 -147 -177 -173 0 -20 4 -19 56 11 25 15 68 32 97 40 l52 13 -45 -5 c-25 -3 -65 -16 -89 -30 -50 -27 -51 -28 -51 -13 0 26 107 121 173 154 38 19 63 35 56 35 -8 0 -40 -15 -72 -32z" transform="translate(0.000000,60.000000) scale(0.100000,-0.100000)" stroke="none" fill="#B18E77"/>

<path d="M505 465 c-5 -2 -41 -13 -80 -24 -105 -32 -189 -86 -250 -161 -11 -14 7 0 40 31 86 80 192 129 315 145 54 7 176 -17 220 -43 23 -14 24 -14 10 1 -31 32 -207 67 -255 51z" transform="translate(0.000000,60.000000) scale(0.100000,-0.100000)" stroke="none" fill="#3C6F7D"/>

<path d="M525 204 c-5 -2 -44 -8 -85 -13 -93 -11 -228 -45 -243 -61 -9 -9 -6 -9 13 -1 80 34 227 59 409 67 123 6 178 1 266 -23 11 -3 17 -2 13 1 -17 19 -133 35 -243 35 -66 0 -124 -2 -130 -5z" transform="translate(0.000000,60.000000) scale(0.100000,-0.100000)" stroke="none" fill="#3C6F7D"/>

<path d="M420 540 c-30 -11 -63 -19 -72 -20 -9 0 -19 -4 -22 -9 -6 -10 29 -2 108 23 54 18 152 21 188 7 13 -5 43 -15 67 -22 53 -16 141 -94 196 -174 43 -61 56 -72 28 -23 -10 18 -54 69 -98 113 -62 63 -90 84 -125 94 -25 7 -55 17 -68 22 -39 15 -144 9 -202 -11z" transform="translate(0.000000,60.000000) scale(0.100000,-0.100000)" stroke="none" fill="#3C6F7D"/>

<path d="M410 529 c-102 -32 -141 -53 -198 -104 -90 -81 -149 -214 -139 -313 3 -30 8 -57 12 -60 3 -3 20 8 38 25 87 81 220 116 495 129 134 7 216 -3 289 -33 43 -18 43 -18 43 22 0 44 -14 76 -66 151 -59 84 -141 157 -195 173 -24 7 -54 17 -67 22 -39 15 -144 9 -212 -12z m260 -78 c49 -14 88 -33 129 -65 53 -41 110 -110 99 -121 -2 -2 -21 1 -43 6 -106 27 -138 30 -270 24 -176 -8 -362 -47 -403 -85 -10 -10 -29 -21 -41 -25 -21 -6 -22 -4 -16 17 9 28 58 92 100 131 47 44 123 85 200 108 39 11 75 22 80 24 28 9 103 3 165 -14z" transform="translate(0.000000,60.000000) scale(0.100000,-0.100000)" stroke="none" fill="#2B3032"/>

</svg>