<?xml version="1.0" standalone="no"?>
<!DOCTYPE svg PUBLIC "-//W3C//DTD SVG 20010904//EN"
 "http://www.w3.org/TR/2001/REC-SVG-20010904/DTD/svg10.dtd">
<svg version="1.0" xmlns="http://www.w3.org/2000/svg" width="632pt" height="624pt" viewBox="0 0 632 624" preserveAspectRatio = "xMidYMid meet" >
<metadata>
Created by ZoeQu, written in 2022
</metadata>
<rect width="632" height="624" fill="#E3E4EA"/>
<g id="col0" transform="translate(0, 20)">
<g id="0" transform="translate(0,0.0)scale(0.8,0.8)">

<path d="M1410 1272 c0 -6 12 -46 26 -89 27 -83 27 -104 -1 -195 l-18 -58 47 -57 c60 -72 59 -96 -4 -104 l-45 -6 52 -1 c77 -3 77 30 1 120 -45 54 -45 53 -1 172 13 37 12 44 -18 130 -32 93 -39 108 -39 88z" transform="translate(0,156) scale(0.1,-0.1)" stroke="none" fill="#B9CF64"/>

<path d="M807 1473 c-9 -11 -19 -35 -22 -54 l-6 -34 15 39 c8 21 18 42 23 47 31 31 142 -51 196 -145 21 -37 31 -46 45 -41 77 33 150 55 185 56 39 1 40 1 14 9 -31 10 -106 -9 -171 -42 -39 -20 -40 -20 -54 -2 -8 11 -20 33 -28 50 -7 17 -32 52 -56 79 -35 38 -51 48 -83 52 -31 3 -45 0 -58 -14z" transform="translate(0,156) scale(0.1,-0.1)" stroke="none" fill="#B9CF64"/>

<path d="M1070 923 c0 -4 -4 -14 -9 -22 -7 -11 -15 -10 -45 4 -48 23 -66 15 -66 -30 0 -27 8 -42 38 -70 31 -30 43 -35 77 -33 35 3 42 8 62 43 16 31 20 48 14 75 -6 30 -11 35 -39 38 -18 2 -32 0 -32 -5z m30 -33 c0 -5 -4 -10 -10 -10 -5 0 -10 5 -10 10 0 6 5 10 10 10 6 0 10 -4 10 -10z" transform="translate(0,156) scale(0.1,-0.1)" stroke="none" fill="#806379"/>

<path d="M942 1032 c-18 -18 -19 -25 -9 -66 9 -40 14 -46 37 -46 14 0 30 -4 36 -9 5 -5 19 -12 31 -15 16 -5 23 -2 28 14 5 17 13 20 38 18 27 -3 32 -8 38 -38 6 -27 2 -44 -14 -75 -19 -35 -27 -40 -61 -43 -32 -3 -44 2 -71 28 -44 42 -51 24 -17 -43 19 -41 32 -56 47 -55 15 0 16 1 4 5 -14 3 -28 30 -29 53 0 3 18 4 39 2 36 -4 40 -6 39 -33 -1 -17 -7 -30 -17 -32 -13 -4 -13 -5 2 -6 10 -1 21 9 27 24 7 19 19 26 51 31 34 6 38 9 24 17 -13 7 -24 6 -36 -2 -31 -18 -30 -13 2 39 25 42 30 56 24 88 -3 20 -15 48 -26 61 -18 21 -23 23 -40 13 -11 -7 -23 -10 -28 -8 -4 3 -7 -5 -7 -17 1 -26 -33 -36 -46 -13 -5 9 -18 16 -28 16 -11 0 -24 9 -30 21 -25 47 8 93 52 72 13 -7 38 -15 56 -18 18 -4 30 -11 27 -16 -4 -5 0 -6 7 -4 8 3 32 -10 53 -30 22 -19 47 -35 55 -34 8 0 4 5 -9 10 -17 7 -22 15 -18 29 7 28 -40 62 -90 65 -21 1 -57 5 -79 9 -35 7 -45 5 -62 -12z" transform="translate(0,156) scale(0.1,-0.1)" stroke="none" fill="#B9CF64"/>

<path d="M779 1285 l-4 -80 -57 -6 c-69 -8 -142 -48 -169 -94 -11 -18 -34 -38 -52 -45 -18 -7 -70 -30 -117 -52 -83 -40 -104 -44 -228 -47 -48 -1 -53 -3 -50 -22 2 -14 31 -39 84 -72 45 -29 101 -67 124 -84 24 -18 50 -33 59 -33 24 -1 44 -20 76 -70 35 -56 42 -61 85 -59 19 0 40 1 47 0 6 -1 38 -24 69 -51 56 -49 134 -105 157 -113 8 -2 2 -25 -16 -68 -15 -35 -27 -71 -27 -80 0 -9 13 -40 30 -70 16 -30 37 -76 46 -102 9 -27 22 -51 30 -54 19 -7 77 32 147 101 33 32 66 56 78 56 22 0 164 83 176 103 4 6 -7 1 -24 -11 -17 -12 -34 -22 -38 -22 -3 0 -26 -13 -50 -30 -61 -42 -85 -39 -115 11 -14 23 -39 58 -56 78 -17 20 -41 56 -55 81 -37 71 -48 81 -73 68 -11 -6 -27 -17 -34 -25 -22 -21 -46 -15 -98 24 -119 90 -185 170 -206 249 -10 37 -9 51 6 94 14 38 16 64 11 109 -12 107 41 180 154 211 23 6 46 8 51 5 18 -11 48 15 53 47 3 18 2 56 -2 83 -8 49 -8 49 -12 -30z" transform="translate(0,156) scale(0.1,-0.1)" stroke="none" fill="#B9CF64"/>

<path d="M804 1448 c-13 -24 -17 -50 -14 -98 6 -116 3 -143 -16 -157 -10 -7 -25 -11 -32 -8 -21 8 -90 -13 -134 -41 -57 -36 -82 -97 -73 -175 5 -45 3 -71 -11 -109 -15 -43 -16 -57 -6 -94 21 -79 87 -159 206 -249 52 -39 76 -45 98 -24 7 8 23 19 34 25 25 13 36 3 73 -68 14 -25 38 -61 55 -81 17 -20 42 -55 56 -78 29 -50 54 -53 113 -13 23 15 55 34 71 42 16 8 51 35 78 58 44 41 48 47 48 90 0 48 -15 85 -85 207 -19 33 -35 68 -35 78 0 19 -15 23 -25 7 -3 -5 -19 -10 -35 -10 -43 0 -77 -16 -83 -40 -5 -19 -10 -20 -44 -14 -21 4 -38 7 -38 8 0 0 -12 24 -27 52 -20 39 -26 63 -25 107 1 32 -1 57 -4 57 -3 0 -10 21 -16 46 -10 41 -9 48 9 66 17 17 27 19 62 12 22 -4 58 -8 79 -9 49 -3 97 -37 90 -64 -4 -16 3 -23 31 -35 40 -16 47 -35 17 -43 -53 -14 -14 -72 60 -91 225 -56 273 -38 183 71 l-47 57 18 58 c9 31 19 69 22 84 6 30 -36 179 -69 246 -21 42 -23 44 -57 37 -20 -3 -63 -10 -96 -14 -34 -5 -90 -20 -125 -34 -35 -14 -67 -24 -72 -21 -5 3 -22 30 -39 59 -35 61 -100 119 -146 129 -29 7 -33 4 -49 -26z" transform="translate(0,156) scale(0.1,-0.1)" stroke="none" fill="#B7AFCE"/>

</g>

<g id="1" transform="translate(0,156.0)scale(0.8,0.8)">

<path d="M1410 1272 c0 -6 12 -46 26 -89 27 -83 27 -104 -1 -195 l-18 -58 47 -57 c60 -72 59 -96 -4 -104 l-45 -6 52 -1 c77 -3 77 30 1 120 -45 54 -45 53 -1 172 13 37 12 44 -18 130 -32 93 -39 108 -39 88z" transform="translate(0,156) scale(0.1,-0.1)" stroke="none" fill="#B9CF64"/>

<path d="M807 1473 c-9 -11 -19 -35 -22 -54 l-6 -34 15 39 c8 21 18 42 23 47 31 31 142 -51 196 -145 21 -37 31 -46 45 -41 77 33 150 55 185 56 39 1 40 1 14 9 -31 10 -106 -9 -171 -42 -39 -20 -40 -20 -54 -2 -8 11 -20 33 -28 50 -7 17 -32 52 -56 79 -35 38 -51 48 -83 52 -31 3 -45 0 -58 -14z" transform="translate(0,156) scale(0.1,-0.1)" stroke="none" fill="#B9CF64"/>

<path d="M1070 923 c0 -4 -4 -14 -9 -22 -7 -11 -15 -10 -45 4 -48 23 -66 15 -66 -30 0 -27 8 -42 38 -70 31 -30 43 -35 77 -33 35 3 42 8 62 43 16 31 20 48 14 75 -6 30 -11 35 -39 38 -18 2 -32 0 -32 -5z m30 -33 c0 -5 -4 -10 -10 -10 -5 0 -10 5 -10 10 0 6 5 10 10 10 6 0 10 -4 10 -10z" transform="translate(0,156) scale(0.1,-0.1)" stroke="none" fill="#806379"/>

<path d="M942 1032 c-18 -18 -19 -25 -9 -66 9 -40 14 -46 37 -46 14 0 30 -4 36 -9 5 -5 19 -12 31 -15 16 -5 23 -2 28 14 5 17 13 20 38 18 27 -3 32 -8 38 -38 6 -27 2 -44 -14 -75 -19 -35 -27 -40 -61 -43 -32 -3 -44 2 -71 28 -44 42 -51 24 -17 -43 19 -41 32 -56 47 -55 15 0 16 1 4 5 -14 3 -28 30 -29 53 0 3 18 4 39 2 36 -4 40 -6 39 -33 -1 -17 -7 -30 -17 -32 -13 -4 -13 -5 2 -6 10 -1 21 9 27 24 7 19 19 26 51 31 34 6 38 9 24 17 -13 7 -24 6 -36 -2 -31 -18 -30 -13 2 39 25 42 30 56 24 88 -3 20 -15 48 -26 61 -18 21 -23 23 -40 13 -11 -7 -23 -10 -28 -8 -4 3 -7 -5 -7 -17 1 -26 -33 -36 -46 -13 -5 9 -18 16 -28 16 -11 0 -24 9 -30 21 -25 47 8 93 52 72 13 -7 38 -15 56 -18 18 -4 30 -11 27 -16 -4 -5 0 -6 7 -4 8 3 32 -10 53 -30 22 -19 47 -35 55 -34 8 0 4 5 -9 10 -17 7 -22 15 -18 29 7 28 -40 62 -90 65 -21 1 -57 5 -79 9 -35 7 -45 5 -62 -12z" transform="translate(0,156) scale(0.1,-0.1)" stroke="none" fill="#B9CF64"/>

<path d="M779 1285 l-4 -80 -57 -6 c-69 -8 -142 -48 -169 -94 -11 -18 -34 -38 -52 -45 -18 -7 -70 -30 -117 -52 -83 -40 -104 -44 -228 -47 -48 -1 -53 -3 -50 -22 2 -14 31 -39 84 -72 45 -29 101 -67 124 -84 24 -18 50 -33 59 -33 24 -1 44 -20 76 -70 35 -56 42 -61 85 -59 19 0 40 1 47 0 6 -1 38 -24 69 -51 56 -49 134 -105 157 -113 8 -2 2 -25 -16 -68 -15 -35 -27 -71 -27 -80 0 -9 13 -40 30 -70 16 -30 37 -76 46 -102 9 -27 22 -51 30 -54 19 -7 77 32 147 101 33 32 66 56 78 56 22 0 164 83 176 103 4 6 -7 1 -24 -11 -17 -12 -34 -22 -38 -22 -3 0 -26 -13 -50 -30 -61 -42 -85 -39 -115 11 -14 23 -39 58 -56 78 -17 20 -41 56 -55 81 -37 71 -48 81 -73 68 -11 -6 -27 -17 -34 -25 -22 -21 -46 -15 -98 24 -119 90 -185 170 -206 249 -10 37 -9 51 6 94 14 38 16 64 11 109 -12 107 41 180 154 211 23 6 46 8 51 5 18 -11 48 15 53 47 3 18 2 56 -2 83 -8 49 -8 49 -12 -30z" transform="translate(0,156) scale(0.1,-0.1)" stroke="none" fill="#B9CF64"/>

<path d="M804 1448 c-13 -24 -17 -50 -14 -98 6 -116 3 -143 -16 -157 -10 -7 -25 -11 -32 -8 -21 8 -90 -13 -134 -41 -57 -36 -82 -97 -73 -175 5 -45 3 -71 -11 -109 -15 -43 -16 -57 -6 -94 21 -79 87 -159 206 -249 52 -39 76 -45 98 -24 7 8 23 19 34 25 25 13 36 3 73 -68 14 -25 38 -61 55 -81 17 -20 42 -55 56 -78 29 -50 54 -53 113 -13 23 15 55 34 71 42 16 8 51 35 78 58 44 41 48 47 48 90 0 48 -15 85 -85 207 -19 33 -35 68 -35 78 0 19 -15 23 -25 7 -3 -5 -19 -10 -35 -10 -43 0 -77 -16 -83 -40 -5 -19 -10 -20 -44 -14 -21 4 -38 7 -38 8 0 0 -12 24 -27 52 -20 39 -26 63 -25 107 1 32 -1 57 -4 57 -3 0 -10 21 -16 46 -10 41 -9 48 9 66 17 17 27 19 62 12 22 -4 58 -8 79 -9 49 -3 97 -37 90 -64 -4 -16 3 -23 31 -35 40 -16 47 -35 17 -43 -53 -14 -14 -72 60 -91 225 -56 273 -38 183 71 l-47 57 18 58 c9 31 19 69 22 84 6 30 -36 179 -69 246 -21 42 -23 44 -57 37 -20 -3 -63 -10 -96 -14 -34 -5 -90 -20 -125 -34 -35 -14 -67 -24 -72 -21 -5 3 -22 30 -39 59 -35 61 -100 119 -146 129 -29 7 -33 4 -49 -26z" transform="translate(0,156) scale(0.1,-0.1)" stroke="none" fill="#B7AFCE"/>

</g>

<g id="2" transform="translate(0,312.0)scale(0.8,0.8)">

<path d="M1410 1272 c0 -6 12 -46 26 -89 27 -83 27 -104 -1 -195 l-18 -58 47 -57 c60 -72 59 -96 -4 -104 l-45 -6 52 -1 c77 -3 77 30 1 120 -45 54 -45 53 -1 172 13 37 12 44 -18 130 -32 93 -39 108 -39 88z" transform="translate(0,156) scale(0.1,-0.1)" stroke="none" fill="#B9CF64"/>

<path d="M807 1473 c-9 -11 -19 -35 -22 -54 l-6 -34 15 39 c8 21 18 42 23 47 31 31 142 -51 196 -145 21 -37 31 -46 45 -41 77 33 150 55 185 56 39 1 40 1 14 9 -31 10 -106 -9 -171 -42 -39 -20 -40 -20 -54 -2 -8 11 -20 33 -28 50 -7 17 -32 52 -56 79 -35 38 -51 48 -83 52 -31 3 -45 0 -58 -14z" transform="translate(0,156) scale(0.1,-0.1)" stroke="none" fill="#B9CF64"/>

<path d="M1070 923 c0 -4 -4 -14 -9 -22 -7 -11 -15 -10 -45 4 -48 23 -66 15 -66 -30 0 -27 8 -42 38 -70 31 -30 43 -35 77 -33 35 3 42 8 62 43 16 31 20 48 14 75 -6 30 -11 35 -39 38 -18 2 -32 0 -32 -5z m30 -33 c0 -5 -4 -10 -10 -10 -5 0 -10 5 -10 10 0 6 5 10 10 10 6 0 10 -4 10 -10z" transform="translate(0,156) scale(0.1,-0.1)" stroke="none" fill="#806379"/>

<path d="M942 1032 c-18 -18 -19 -25 -9 -66 9 -40 14 -46 37 -46 14 0 30 -4 36 -9 5 -5 19 -12 31 -15 16 -5 23 -2 28 14 5 17 13 20 38 18 27 -3 32 -8 38 -38 6 -27 2 -44 -14 -75 -19 -35 -27 -40 -61 -43 -32 -3 -44 2 -71 28 -44 42 -51 24 -17 -43 19 -41 32 -56 47 -55 15 0 16 1 4 5 -14 3 -28 30 -29 53 0 3 18 4 39 2 36 -4 40 -6 39 -33 -1 -17 -7 -30 -17 -32 -13 -4 -13 -5 2 -6 10 -1 21 9 27 24 7 19 19 26 51 31 34 6 38 9 24 17 -13 7 -24 6 -36 -2 -31 -18 -30 -13 2 39 25 42 30 56 24 88 -3 20 -15 48 -26 61 -18 21 -23 23 -40 13 -11 -7 -23 -10 -28 -8 -4 3 -7 -5 -7 -17 1 -26 -33 -36 -46 -13 -5 9 -18 16 -28 16 -11 0 -24 9 -30 21 -25 47 8 93 52 72 13 -7 38 -15 56 -18 18 -4 30 -11 27 -16 -4 -5 0 -6 7 -4 8 3 32 -10 53 -30 22 -19 47 -35 55 -34 8 0 4 5 -9 10 -17 7 -22 15 -18 29 7 28 -40 62 -90 65 -21 1 -57 5 -79 9 -35 7 -45 5 -62 -12z" transform="translate(0,156) scale(0.1,-0.1)" stroke="none" fill="#B9CF64"/>

<path d="M779 1285 l-4 -80 -57 -6 c-69 -8 -142 -48 -169 -94 -11 -18 -34 -38 -52 -45 -18 -7 -70 -30 -117 -52 -83 -40 -104 -44 -228 -47 -48 -1 -53 -3 -50 -22 2 -14 31 -39 84 -72 45 -29 101 -67 124 -84 24 -18 50 -33 59 -33 24 -1 44 -20 76 -70 35 -56 42 -61 85 -59 19 0 40 1 47 0 6 -1 38 -24 69 -51 56 -49 134 -105 157 -113 8 -2 2 -25 -16 -68 -15 -35 -27 -71 -27 -80 0 -9 13 -40 30 -70 16 -30 37 -76 46 -102 9 -27 22 -51 30 -54 19 -7 77 32 147 101 33 32 66 56 78 56 22 0 164 83 176 103 4 6 -7 1 -24 -11 -17 -12 -34 -22 -38 -22 -3 0 -26 -13 -50 -30 -61 -42 -85 -39 -115 11 -14 23 -39 58 -56 78 -17 20 -41 56 -55 81 -37 71 -48 81 -73 68 -11 -6 -27 -17 -34 -25 -22 -21 -46 -15 -98 24 -119 90 -185 170 -206 249 -10 37 -9 51 6 94 14 38 16 64 11 109 -12 107 41 180 154 211 23 6 46 8 51 5 18 -11 48 15 53 47 3 18 2 56 -2 83 -8 49 -8 49 -12 -30z" transform="translate(0,156) scale(0.1,-0.1)" stroke="none" fill="#B9CF64"/>

<path d="M804 1448 c-13 -24 -17 -50 -14 -98 6 -116 3 -143 -16 -157 -10 -7 -25 -11 -32 -8 -21 8 -90 -13 -134 -41 -57 -36 -82 -97 -73 -175 5 -45 3 -71 -11 -109 -15 -43 -16 -57 -6 -94 21 -79 87 -159 206 -249 52 -39 76 -45 98 -24 7 8 23 19 34 25 25 13 36 3 73 -68 14 -25 38 -61 55 -81 17 -20 42 -55 56 -78 29 -50 54 -53 113 -13 23 15 55 34 71 42 16 8 51 35 78 58 44 41 48 47 48 90 0 48 -15 85 -85 207 -19 33 -35 68 -35 78 0 19 -15 23 -25 7 -3 -5 -19 -10 -35 -10 -43 0 -77 -16 -83 -40 -5 -19 -10 -20 -44 -14 -21 4 -38 7 -38 8 0 0 -12 24 -27 52 -20 39 -26 63 -25 107 1 32 -1 57 -4 57 -3 0 -10 21 -16 46 -10 41 -9 48 9 66 17 17 27 19 62 12 22 -4 58 -8 79 -9 49 -3 97 -37 90 -64 -4 -16 3 -23 31 -35 40 -16 47 -35 17 -43 -53 -14 -14 -72 60 -91 225 -56 273 -38 183 71 l-47 57 18 58 c9 31 19 69 22 84 6 30 -36 179 -69 246 -21 42 -23 44 -57 37 -20 -3 -63 -10 -96 -14 -34 -5 -90 -20 -125 -34 -35 -14 -67 -24 -72 -21 -5 3 -22 30 -39 59 -35 61 -100 119 -146 129 -29 7 -33 4 -49 -26z" transform="translate(0,156) scale(0.1,-0.1)" stroke="none" fill="#B7AFCE"/>

</g>

<g id="3" transform="translate(0,468.0)scale(0.8,0.8)">

<path d="M1410 1272 c0 -6 12 -46 26 -89 27 -83 27 -104 -1 -195 l-18 -58 47 -57 c60 -72 59 -96 -4 -104 l-45 -6 52 -1 c77 -3 77 30 1 120 -45 54 -45 53 -1 172 13 37 12 44 -18 130 -32 93 -39 108 -39 88z" transform="translate(0,156) scale(0.1,-0.1)" stroke="none" fill="#B9CF64"/>

<path d="M807 1473 c-9 -11 -19 -35 -22 -54 l-6 -34 15 39 c8 21 18 42 23 47 31 31 142 -51 196 -145 21 -37 31 -46 45 -41 77 33 150 55 185 56 39 1 40 1 14 9 -31 10 -106 -9 -171 -42 -39 -20 -40 -20 -54 -2 -8 11 -20 33 -28 50 -7 17 -32 52 -56 79 -35 38 -51 48 -83 52 -31 3 -45 0 -58 -14z" transform="translate(0,156) scale(0.1,-0.1)" stroke="none" fill="#B9CF64"/>

<path d="M1070 923 c0 -4 -4 -14 -9 -22 -7 -11 -15 -10 -45 4 -48 23 -66 15 -66 -30 0 -27 8 -42 38 -70 31 -30 43 -35 77 -33 35 3 42 8 62 43 16 31 20 48 14 75 -6 30 -11 35 -39 38 -18 2 -32 0 -32 -5z m30 -33 c0 -5 -4 -10 -10 -10 -5 0 -10 5 -10 10 0 6 5 10 10 10 6 0 10 -4 10 -10z" transform="translate(0,156) scale(0.1,-0.1)" stroke="none" fill="#806379"/>

<path d="M942 1032 c-18 -18 -19 -25 -9 -66 9 -40 14 -46 37 -46 14 0 30 -4 36 -9 5 -5 19 -12 31 -15 16 -5 23 -2 28 14 5 17 13 20 38 18 27 -3 32 -8 38 -38 6 -27 2 -44 -14 -75 -19 -35 -27 -40 -61 -43 -32 -3 -44 2 -71 28 -44 42 -51 24 -17 -43 19 -41 32 -56 47 -55 15 0 16 1 4 5 -14 3 -28 30 -29 53 0 3 18 4 39 2 36 -4 40 -6 39 -33 -1 -17 -7 -30 -17 -32 -13 -4 -13 -5 2 -6 10 -1 21 9 27 24 7 19 19 26 51 31 34 6 38 9 24 17 -13 7 -24 6 -36 -2 -31 -18 -30 -13 2 39 25 42 30 56 24 88 -3 20 -15 48 -26 61 -18 21 -23 23 -40 13 -11 -7 -23 -10 -28 -8 -4 3 -7 -5 -7 -17 1 -26 -33 -36 -46 -13 -5 9 -18 16 -28 16 -11 0 -24 9 -30 21 -25 47 8 93 52 72 13 -7 38 -15 56 -18 18 -4 30 -11 27 -16 -4 -5 0 -6 7 -4 8 3 32 -10 53 -30 22 -19 47 -35 55 -34 8 0 4 5 -9 10 -17 7 -22 15 -18 29 7 28 -40 62 -90 65 -21 1 -57 5 -79 9 -35 7 -45 5 -62 -12z" transform="translate(0,156) scale(0.1,-0.1)" stroke="none" fill="#B9CF64"/>

<path d="M779 1285 l-4 -80 -57 -6 c-69 -8 -142 -48 -169 -94 -11 -18 -34 -38 -52 -45 -18 -7 -70 -30 -117 -52 -83 -40 -104 -44 -228 -47 -48 -1 -53 -3 -50 -22 2 -14 31 -39 84 -72 45 -29 101 -67 124 -84 24 -18 50 -33 59 -33 24 -1 44 -20 76 -70 35 -56 42 -61 85 -59 19 0 40 1 47 0 6 -1 38 -24 69 -51 56 -49 134 -105 157 -113 8 -2 2 -25 -16 -68 -15 -35 -27 -71 -27 -80 0 -9 13 -40 30 -70 16 -30 37 -76 46 -102 9 -27 22 -51 30 -54 19 -7 77 32 147 101 33 32 66 56 78 56 22 0 164 83 176 103 4 6 -7 1 -24 -11 -17 -12 -34 -22 -38 -22 -3 0 -26 -13 -50 -30 -61 -42 -85 -39 -115 11 -14 23 -39 58 -56 78 -17 20 -41 56 -55 81 -37 71 -48 81 -73 68 -11 -6 -27 -17 -34 -25 -22 -21 -46 -15 -98 24 -119 90 -185 170 -206 249 -10 37 -9 51 6 94 14 38 16 64 11 109 -12 107 41 180 154 211 23 6 46 8 51 5 18 -11 48 15 53 47 3 18 2 56 -2 83 -8 49 -8 49 -12 -30z" transform="translate(0,156) scale(0.1,-0.1)" stroke="none" fill="#B9CF64"/>

<path d="M804 1448 c-13 -24 -17 -50 -14 -98 6 -116 3 -143 -16 -157 -10 -7 -25 -11 -32 -8 -21 8 -90 -13 -134 -41 -57 -36 -82 -97 -73 -175 5 -45 3 -71 -11 -109 -15 -43 -16 -57 -6 -94 21 -79 87 -159 206 -249 52 -39 76 -45 98 -24 7 8 23 19 34 25 25 13 36 3 73 -68 14 -25 38 -61 55 -81 17 -20 42 -55 56 -78 29 -50 54 -53 113 -13 23 15 55 34 71 42 16 8 51 35 78 58 44 41 48 47 48 90 0 48 -15 85 -85 207 -19 33 -35 68 -35 78 0 19 -15 23 -25 7 -3 -5 -19 -10 -35 -10 -43 0 -77 -16 -83 -40 -5 -19 -10 -20 -44 -14 -21 4 -38 7 -38 8 0 0 -12 24 -27 52 -20 39 -26 63 -25 107 1 32 -1 57 -4 57 -3 0 -10 21 -16 46 -10 41 -9 48 9 66 17 17 27 19 62 12 22 -4 58 -8 79 -9 49 -3 97 -37 90 -64 -4 -16 3 -23 31 -35 40 -16 47 -35 17 -43 -53 -14 -14 -72 60 -91 225 -56 273 -38 183 71 l-47 57 18 58 c9 31 19 69 22 84 6 30 -36 179 -69 246 -21 42 -23 44 -57 37 -20 -3 -63 -10 -96 -14 -34 -5 -90 -20 -125 -34 -35 -14 -67 -24 -72 -21 -5 3 -22 30 -39 59 -35 61 -100 119 -146 129 -29 7 -33 4 -49 -26z" transform="translate(0,156) scale(0.1,-0.1)" stroke="none" fill="#B7AFCE"/>

</g>

<g id="4" transform="translate(0,624.0)scale(0.8,0.8)">

<path d="M1410 1272 c0 -6 12 -46 26 -89 27 -83 27 -104 -1 -195 l-18 -58 47 -57 c60 -72 59 -96 -4 -104 l-45 -6 52 -1 c77 -3 77 30 1 120 -45 54 -45 53 -1 172 13 37 12 44 -18 130 -32 93 -39 108 -39 88z" transform="translate(0,156) scale(0.1,-0.1)" stroke="none" fill="#B9CF64"/>

<path d="M807 1473 c-9 -11 -19 -35 -22 -54 l-6 -34 15 39 c8 21 18 42 23 47 31 31 142 -51 196 -145 21 -37 31 -46 45 -41 77 33 150 55 185 56 39 1 40 1 14 9 -31 10 -106 -9 -171 -42 -39 -20 -40 -20 -54 -2 -8 11 -20 33 -28 50 -7 17 -32 52 -56 79 -35 38 -51 48 -83 52 -31 3 -45 0 -58 -14z" transform="translate(0,156) scale(0.1,-0.1)" stroke="none" fill="#B9CF64"/>

<path d="M1070 923 c0 -4 -4 -14 -9 -22 -7 -11 -15 -10 -45 4 -48 23 -66 15 -66 -30 0 -27 8 -42 38 -70 31 -30 43 -35 77 -33 35 3 42 8 62 43 16 31 20 48 14 75 -6 30 -11 35 -39 38 -18 2 -32 0 -32 -5z m30 -33 c0 -5 -4 -10 -10 -10 -5 0 -10 5 -10 10 0 6 5 10 10 10 6 0 10 -4 10 -10z" transform="translate(0,156) scale(0.1,-0.1)" stroke="none" fill="#806379"/>

<path d="M942 1032 c-18 -18 -19 -25 -9 -66 9 -40 14 -46 37 -46 14 0 30 -4 36 -9 5 -5 19 -12 31 -15 16 -5 23 -2 28 14 5 17 13 20 38 18 27 -3 32 -8 38 -38 6 -27 2 -44 -14 -75 -19 -35 -27 -40 -61 -43 -32 -3 -44 2 -71 28 -44 42 -51 24 -17 -43 19 -41 32 -56 47 -55 15 0 16 1 4 5 -14 3 -28 30 -29 53 0 3 18 4 39 2 36 -4 40 -6 39 -33 -1 -17 -7 -30 -17 -32 -13 -4 -13 -5 2 -6 10 -1 21 9 27 24 7 19 19 26 51 31 34 6 38 9 24 17 -13 7 -24 6 -36 -2 -31 -18 -30 -13 2 39 25 42 30 56 24 88 -3 20 -15 48 -26 61 -18 21 -23 23 -40 13 -11 -7 -23 -10 -28 -8 -4 3 -7 -5 -7 -17 1 -26 -33 -36 -46 -13 -5 9 -18 16 -28 16 -11 0 -24 9 -30 21 -25 47 8 93 52 72 13 -7 38 -15 56 -18 18 -4 30 -11 27 -16 -4 -5 0 -6 7 -4 8 3 32 -10 53 -30 22 -19 47 -35 55 -34 8 0 4 5 -9 10 -17 7 -22 15 -18 29 7 28 -40 62 -90 65 -21 1 -57 5 -79 9 -35 7 -45 5 -62 -12z" transform="translate(0,156) scale(0.1,-0.1)" stroke="none" fill="#B9CF64"/>

<path d="M779 1285 l-4 -80 -57 -6 c-69 -8 -142 -48 -169 -94 -11 -18 -34 -38 -52 -45 -18 -7 -70 -30 -117 -52 -83 -40 -104 -44 -228 -47 -48 -1 -53 -3 -50 -22 2 -14 31 -39 84 -72 45 -29 101 -67 124 -84 24 -18 50 -33 59 -33 24 -1 44 -20 76 -70 35 -56 42 -61 85 -59 19 0 40 1 47 0 6 -1 38 -24 69 -51 56 -49 134 -105 157 -113 8 -2 2 -25 -16 -68 -15 -35 -27 -71 -27 -80 0 -9 13 -40 30 -70 16 -30 37 -76 46 -102 9 -27 22 -51 30 -54 19 -7 77 32 147 101 33 32 66 56 78 56 22 0 164 83 176 103 4 6 -7 1 -24 -11 -17 -12 -34 -22 -38 -22 -3 0 -26 -13 -50 -30 -61 -42 -85 -39 -115 11 -14 23 -39 58 -56 78 -17 20 -41 56 -55 81 -37 71 -48 81 -73 68 -11 -6 -27 -17 -34 -25 -22 -21 -46 -15 -98 24 -119 90 -185 170 -206 249 -10 37 -9 51 6 94 14 38 16 64 11 109 -12 107 41 180 154 211 23 6 46 8 51 5 18 -11 48 15 53 47 3 18 2 56 -2 83 -8 49 -8 49 -12 -30z" transform="translate(0,156) scale(0.1,-0.1)" stroke="none" fill="#B9CF64"/>

<path d="M804 1448 c-13 -24 -17 -50 -14 -98 6 -116 3 -143 -16 -157 -10 -7 -25 -11 -32 -8 -21 8 -90 -13 -134 -41 -57 -36 -82 -97 -73 -175 5 -45 3 -71 -11 -109 -15 -43 -16 -57 -6 -94 21 -79 87 -159 206 -249 52 -39 76 -45 98 -24 7 8 23 19 34 25 25 13 36 3 73 -68 14 -25 38 -61 55 -81 17 -20 42 -55 56 -78 29 -50 54 -53 113 -13 23 15 55 34 71 42 16 8 51 35 78 58 44 41 48 47 48 90 0 48 -15 85 -85 207 -19 33 -35 68 -35 78 0 19 -15 23 -25 7 -3 -5 -19 -10 -35 -10 -43 0 -77 -16 -83 -40 -5 -19 -10 -20 -44 -14 -21 4 -38 7 -38 8 0 0 -12 24 -27 52 -20 39 -26 63 -25 107 1 32 -1 57 -4 57 -3 0 -10 21 -16 46 -10 41 -9 48 9 66 17 17 27 19 62 12 22 -4 58 -8 79 -9 49 -3 97 -37 90 -64 -4 -16 3 -23 31 -35 40 -16 47 -35 17 -43 -53 -14 -14 -72 60 -91 225 -56 273 -38 183 71 l-47 57 18 58 c9 31 19 69 22 84 6 30 -36 179 -69 246 -21 42 -23 44 -57 37 -20 -3 -63 -10 -96 -14 -34 -5 -90 -20 -125 -34 -35 -14 -67 -24 -72 -21 -5 3 -22 30 -39 59 -35 61 -100 119 -146 129 -29 7 -33 4 -49 -26z" transform="translate(0,156) scale(0.1,-0.1)" stroke="none" fill="#B7AFCE"/>

</g>

</g>
<g id="col1" transform="translate(158, -58.0)">
<g id="0" transform="translate(0,0.0)scale(0.8,0.8)">

<path d="M1410 1272 c0 -6 12 -46 26 -89 27 -83 27 -104 -1 -195 l-18 -58 47 -57 c60 -72 59 -96 -4 -104 l-45 -6 52 -1 c77 -3 77 30 1 120 -45 54 -45 53 -1 172 13 37 12 44 -18 130 -32 93 -39 108 -39 88z" transform="translate(0,156) scale(0.1,-0.1)" stroke="none" fill="#B9CF64"/>

<path d="M807 1473 c-9 -11 -19 -35 -22 -54 l-6 -34 15 39 c8 21 18 42 23 47 31 31 142 -51 196 -145 21 -37 31 -46 45 -41 77 33 150 55 185 56 39 1 40 1 14 9 -31 10 -106 -9 -171 -42 -39 -20 -40 -20 -54 -2 -8 11 -20 33 -28 50 -7 17 -32 52 -56 79 -35 38 -51 48 -83 52 -31 3 -45 0 -58 -14z" transform="translate(0,156) scale(0.1,-0.1)" stroke="none" fill="#B9CF64"/>

<path d="M1070 923 c0 -4 -4 -14 -9 -22 -7 -11 -15 -10 -45 4 -48 23 -66 15 -66 -30 0 -27 8 -42 38 -70 31 -30 43 -35 77 -33 35 3 42 8 62 43 16 31 20 48 14 75 -6 30 -11 35 -39 38 -18 2 -32 0 -32 -5z m30 -33 c0 -5 -4 -10 -10 -10 -5 0 -10 5 -10 10 0 6 5 10 10 10 6 0 10 -4 10 -10z" transform="translate(0,156) scale(0.1,-0.1)" stroke="none" fill="#806379"/>

<path d="M942 1032 c-18 -18 -19 -25 -9 -66 9 -40 14 -46 37 -46 14 0 30 -4 36 -9 5 -5 19 -12 31 -15 16 -5 23 -2 28 14 5 17 13 20 38 18 27 -3 32 -8 38 -38 6 -27 2 -44 -14 -75 -19 -35 -27 -40 -61 -43 -32 -3 -44 2 -71 28 -44 42 -51 24 -17 -43 19 -41 32 -56 47 -55 15 0 16 1 4 5 -14 3 -28 30 -29 53 0 3 18 4 39 2 36 -4 40 -6 39 -33 -1 -17 -7 -30 -17 -32 -13 -4 -13 -5 2 -6 10 -1 21 9 27 24 7 19 19 26 51 31 34 6 38 9 24 17 -13 7 -24 6 -36 -2 -31 -18 -30 -13 2 39 25 42 30 56 24 88 -3 20 -15 48 -26 61 -18 21 -23 23 -40 13 -11 -7 -23 -10 -28 -8 -4 3 -7 -5 -7 -17 1 -26 -33 -36 -46 -13 -5 9 -18 16 -28 16 -11 0 -24 9 -30 21 -25 47 8 93 52 72 13 -7 38 -15 56 -18 18 -4 30 -11 27 -16 -4 -5 0 -6 7 -4 8 3 32 -10 53 -30 22 -19 47 -35 55 -34 8 0 4 5 -9 10 -17 7 -22 15 -18 29 7 28 -40 62 -90 65 -21 1 -57 5 -79 9 -35 7 -45 5 -62 -12z" transform="translate(0,156) scale(0.1,-0.1)" stroke="none" fill="#B9CF64"/>

<path d="M779 1285 l-4 -80 -57 -6 c-69 -8 -142 -48 -169 -94 -11 -18 -34 -38 -52 -45 -18 -7 -70 -30 -117 -52 -83 -40 -104 -44 -228 -47 -48 -1 -53 -3 -50 -22 2 -14 31 -39 84 -72 45 -29 101 -67 124 -84 24 -18 50 -33 59 -33 24 -1 44 -20 76 -70 35 -56 42 -61 85 -59 19 0 40 1 47 0 6 -1 38 -24 69 -51 56 -49 134 -105 157 -113 8 -2 2 -25 -16 -68 -15 -35 -27 -71 -27 -80 0 -9 13 -40 30 -70 16 -30 37 -76 46 -102 9 -27 22 -51 30 -54 19 -7 77 32 147 101 33 32 66 56 78 56 22 0 164 83 176 103 4 6 -7 1 -24 -11 -17 -12 -34 -22 -38 -22 -3 0 -26 -13 -50 -30 -61 -42 -85 -39 -115 11 -14 23 -39 58 -56 78 -17 20 -41 56 -55 81 -37 71 -48 81 -73 68 -11 -6 -27 -17 -34 -25 -22 -21 -46 -15 -98 24 -119 90 -185 170 -206 249 -10 37 -9 51 6 94 14 38 16 64 11 109 -12 107 41 180 154 211 23 6 46 8 51 5 18 -11 48 15 53 47 3 18 2 56 -2 83 -8 49 -8 49 -12 -30z" transform="translate(0,156) scale(0.1,-0.1)" stroke="none" fill="#B9CF64"/>

<path d="M804 1448 c-13 -24 -17 -50 -14 -98 6 -116 3 -143 -16 -157 -10 -7 -25 -11 -32 -8 -21 8 -90 -13 -134 -41 -57 -36 -82 -97 -73 -175 5 -45 3 -71 -11 -109 -15 -43 -16 -57 -6 -94 21 -79 87 -159 206 -249 52 -39 76 -45 98 -24 7 8 23 19 34 25 25 13 36 3 73 -68 14 -25 38 -61 55 -81 17 -20 42 -55 56 -78 29 -50 54 -53 113 -13 23 15 55 34 71 42 16 8 51 35 78 58 44 41 48 47 48 90 0 48 -15 85 -85 207 -19 33 -35 68 -35 78 0 19 -15 23 -25 7 -3 -5 -19 -10 -35 -10 -43 0 -77 -16 -83 -40 -5 -19 -10 -20 -44 -14 -21 4 -38 7 -38 8 0 0 -12 24 -27 52 -20 39 -26 63 -25 107 1 32 -1 57 -4 57 -3 0 -10 21 -16 46 -10 41 -9 48 9 66 17 17 27 19 62 12 22 -4 58 -8 79 -9 49 -3 97 -37 90 -64 -4 -16 3 -23 31 -35 40 -16 47 -35 17 -43 -53 -14 -14 -72 60 -91 225 -56 273 -38 183 71 l-47 57 18 58 c9 31 19 69 22 84 6 30 -36 179 -69 246 -21 42 -23 44 -57 37 -20 -3 -63 -10 -96 -14 -34 -5 -90 -20 -125 -34 -35 -14 -67 -24 -72 -21 -5 3 -22 30 -39 59 -35 61 -100 119 -146 129 -29 7 -33 4 -49 -26z" transform="translate(0,156) scale(0.1,-0.1)" stroke="none" fill="#B7AFCE"/>

</g>

<g id="1" transform="translate(0,156.0)scale(0.8,0.8)">

<path d="M1410 1272 c0 -6 12 -46 26 -89 27 -83 27 -104 -1 -195 l-18 -58 47 -57 c60 -72 59 -96 -4 -104 l-45 -6 52 -1 c77 -3 77 30 1 120 -45 54 -45 53 -1 172 13 37 12 44 -18 130 -32 93 -39 108 -39 88z" transform="translate(0,156) scale(0.1,-0.1)" stroke="none" fill="#B9CF64"/>

<path d="M807 1473 c-9 -11 -19 -35 -22 -54 l-6 -34 15 39 c8 21 18 42 23 47 31 31 142 -51 196 -145 21 -37 31 -46 45 -41 77 33 150 55 185 56 39 1 40 1 14 9 -31 10 -106 -9 -171 -42 -39 -20 -40 -20 -54 -2 -8 11 -20 33 -28 50 -7 17 -32 52 -56 79 -35 38 -51 48 -83 52 -31 3 -45 0 -58 -14z" transform="translate(0,156) scale(0.1,-0.1)" stroke="none" fill="#B9CF64"/>

<path d="M1070 923 c0 -4 -4 -14 -9 -22 -7 -11 -15 -10 -45 4 -48 23 -66 15 -66 -30 0 -27 8 -42 38 -70 31 -30 43 -35 77 -33 35 3 42 8 62 43 16 31 20 48 14 75 -6 30 -11 35 -39 38 -18 2 -32 0 -32 -5z m30 -33 c0 -5 -4 -10 -10 -10 -5 0 -10 5 -10 10 0 6 5 10 10 10 6 0 10 -4 10 -10z" transform="translate(0,156) scale(0.1,-0.1)" stroke="none" fill="#806379"/>

<path d="M942 1032 c-18 -18 -19 -25 -9 -66 9 -40 14 -46 37 -46 14 0 30 -4 36 -9 5 -5 19 -12 31 -15 16 -5 23 -2 28 14 5 17 13 20 38 18 27 -3 32 -8 38 -38 6 -27 2 -44 -14 -75 -19 -35 -27 -40 -61 -43 -32 -3 -44 2 -71 28 -44 42 -51 24 -17 -43 19 -41 32 -56 47 -55 15 0 16 1 4 5 -14 3 -28 30 -29 53 0 3 18 4 39 2 36 -4 40 -6 39 -33 -1 -17 -7 -30 -17 -32 -13 -4 -13 -5 2 -6 10 -1 21 9 27 24 7 19 19 26 51 31 34 6 38 9 24 17 -13 7 -24 6 -36 -2 -31 -18 -30 -13 2 39 25 42 30 56 24 88 -3 20 -15 48 -26 61 -18 21 -23 23 -40 13 -11 -7 -23 -10 -28 -8 -4 3 -7 -5 -7 -17 1 -26 -33 -36 -46 -13 -5 9 -18 16 -28 16 -11 0 -24 9 -30 21 -25 47 8 93 52 72 13 -7 38 -15 56 -18 18 -4 30 -11 27 -16 -4 -5 0 -6 7 -4 8 3 32 -10 53 -30 22 -19 47 -35 55 -34 8 0 4 5 -9 10 -17 7 -22 15 -18 29 7 28 -40 62 -90 65 -21 1 -57 5 -79 9 -35 7 -45 5 -62 -12z" transform="translate(0,156) scale(0.1,-0.1)" stroke="none" fill="#B9CF64"/>

<path d="M779 1285 l-4 -80 -57 -6 c-69 -8 -142 -48 -169 -94 -11 -18 -34 -38 -52 -45 -18 -7 -70 -30 -117 -52 -83 -40 -104 -44 -228 -47 -48 -1 -53 -3 -50 -22 2 -14 31 -39 84 -72 45 -29 101 -67 124 -84 24 -18 50 -33 59 -33 24 -1 44 -20 76 -70 35 -56 42 -61 85 -59 19 0 40 1 47 0 6 -1 38 -24 69 -51 56 -49 134 -105 157 -113 8 -2 2 -25 -16 -68 -15 -35 -27 -71 -27 -80 0 -9 13 -40 30 -70 16 -30 37 -76 46 -102 9 -27 22 -51 30 -54 19 -7 77 32 147 101 33 32 66 56 78 56 22 0 164 83 176 103 4 6 -7 1 -24 -11 -17 -12 -34 -22 -38 -22 -3 0 -26 -13 -50 -30 -61 -42 -85 -39 -115 11 -14 23 -39 58 -56 78 -17 20 -41 56 -55 81 -37 71 -48 81 -73 68 -11 -6 -27 -17 -34 -25 -22 -21 -46 -15 -98 24 -119 90 -185 170 -206 249 -10 37 -9 51 6 94 14 38 16 64 11 109 -12 107 41 180 154 211 23 6 46 8 51 5 18 -11 48 15 53 47 3 18 2 56 -2 83 -8 49 -8 49 -12 -30z" transform="translate(0,156) scale(0.1,-0.1)" stroke="none" fill="#B9CF64"/>

<path d="M804 1448 c-13 -24 -17 -50 -14 -98 6 -116 3 -143 -16 -157 -10 -7 -25 -11 -32 -8 -21 8 -90 -13 -134 -41 -57 -36 -82 -97 -73 -175 5 -45 3 -71 -11 -109 -15 -43 -16 -57 -6 -94 21 -79 87 -159 206 -249 52 -39 76 -45 98 -24 7 8 23 19 34 25 25 13 36 3 73 -68 14 -25 38 -61 55 -81 17 -20 42 -55 56 -78 29 -50 54 -53 113 -13 23 15 55 34 71 42 16 8 51 35 78 58 44 41 48 47 48 90 0 48 -15 85 -85 207 -19 33 -35 68 -35 78 0 19 -15 23 -25 7 -3 -5 -19 -10 -35 -10 -43 0 -77 -16 -83 -40 -5 -19 -10 -20 -44 -14 -21 4 -38 7 -38 8 0 0 -12 24 -27 52 -20 39 -26 63 -25 107 1 32 -1 57 -4 57 -3 0 -10 21 -16 46 -10 41 -9 48 9 66 17 17 27 19 62 12 22 -4 58 -8 79 -9 49 -3 97 -37 90 -64 -4 -16 3 -23 31 -35 40 -16 47 -35 17 -43 -53 -14 -14 -72 60 -91 225 -56 273 -38 183 71 l-47 57 18 58 c9 31 19 69 22 84 6 30 -36 179 -69 246 -21 42 -23 44 -57 37 -20 -3 -63 -10 -96 -14 -34 -5 -90 -20 -125 -34 -35 -14 -67 -24 -72 -21 -5 3 -22 30 -39 59 -35 61 -100 119 -146 129 -29 7 -33 4 -49 -26z" transform="translate(0,156) scale(0.1,-0.1)" stroke="none" fill="#B7AFCE"/>

</g>

<g id="2" transform="translate(0,312.0)scale(0.8,0.8)">

<path d="M1410 1272 c0 -6 12 -46 26 -89 27 -83 27 -104 -1 -195 l-18 -58 47 -57 c60 -72 59 -96 -4 -104 l-45 -6 52 -1 c77 -3 77 30 1 120 -45 54 -45 53 -1 172 13 37 12 44 -18 130 -32 93 -39 108 -39 88z" transform="translate(0,156) scale(0.1,-0.1)" stroke="none" fill="#B9CF64"/>

<path d="M807 1473 c-9 -11 -19 -35 -22 -54 l-6 -34 15 39 c8 21 18 42 23 47 31 31 142 -51 196 -145 21 -37 31 -46 45 -41 77 33 150 55 185 56 39 1 40 1 14 9 -31 10 -106 -9 -171 -42 -39 -20 -40 -20 -54 -2 -8 11 -20 33 -28 50 -7 17 -32 52 -56 79 -35 38 -51 48 -83 52 -31 3 -45 0 -58 -14z" transform="translate(0,156) scale(0.1,-0.1)" stroke="none" fill="#B9CF64"/>

<path d="M1070 923 c0 -4 -4 -14 -9 -22 -7 -11 -15 -10 -45 4 -48 23 -66 15 -66 -30 0 -27 8 -42 38 -70 31 -30 43 -35 77 -33 35 3 42 8 62 43 16 31 20 48 14 75 -6 30 -11 35 -39 38 -18 2 -32 0 -32 -5z m30 -33 c0 -5 -4 -10 -10 -10 -5 0 -10 5 -10 10 0 6 5 10 10 10 6 0 10 -4 10 -10z" transform="translate(0,156) scale(0.1,-0.1)" stroke="none" fill="#806379"/>

<path d="M942 1032 c-18 -18 -19 -25 -9 -66 9 -40 14 -46 37 -46 14 0 30 -4 36 -9 5 -5 19 -12 31 -15 16 -5 23 -2 28 14 5 17 13 20 38 18 27 -3 32 -8 38 -38 6 -27 2 -44 -14 -75 -19 -35 -27 -40 -61 -43 -32 -3 -44 2 -71 28 -44 42 -51 24 -17 -43 19 -41 32 -56 47 -55 15 0 16 1 4 5 -14 3 -28 30 -29 53 0 3 18 4 39 2 36 -4 40 -6 39 -33 -1 -17 -7 -30 -17 -32 -13 -4 -13 -5 2 -6 10 -1 21 9 27 24 7 19 19 26 51 31 34 6 38 9 24 17 -13 7 -24 6 -36 -2 -31 -18 -30 -13 2 39 25 42 30 56 24 88 -3 20 -15 48 -26 61 -18 21 -23 23 -40 13 -11 -7 -23 -10 -28 -8 -4 3 -7 -5 -7 -17 1 -26 -33 -36 -46 -13 -5 9 -18 16 -28 16 -11 0 -24 9 -30 21 -25 47 8 93 52 72 13 -7 38 -15 56 -18 18 -4 30 -11 27 -16 -4 -5 0 -6 7 -4 8 3 32 -10 53 -30 22 -19 47 -35 55 -34 8 0 4 5 -9 10 -17 7 -22 15 -18 29 7 28 -40 62 -90 65 -21 1 -57 5 -79 9 -35 7 -45 5 -62 -12z" transform="translate(0,156) scale(0.1,-0.1)" stroke="none" fill="#B9CF64"/>

<path d="M779 1285 l-4 -80 -57 -6 c-69 -8 -142 -48 -169 -94 -11 -18 -34 -38 -52 -45 -18 -7 -70 -30 -117 -52 -83 -40 -104 -44 -228 -47 -48 -1 -53 -3 -50 -22 2 -14 31 -39 84 -72 45 -29 101 -67 124 -84 24 -18 50 -33 59 -33 24 -1 44 -20 76 -70 35 -56 42 -61 85 -59 19 0 40 1 47 0 6 -1 38 -24 69 -51 56 -49 134 -105 157 -113 8 -2 2 -25 -16 -68 -15 -35 -27 -71 -27 -80 0 -9 13 -40 30 -70 16 -30 37 -76 46 -102 9 -27 22 -51 30 -54 19 -7 77 32 147 101 33 32 66 56 78 56 22 0 164 83 176 103 4 6 -7 1 -24 -11 -17 -12 -34 -22 -38 -22 -3 0 -26 -13 -50 -30 -61 -42 -85 -39 -115 11 -14 23 -39 58 -56 78 -17 20 -41 56 -55 81 -37 71 -48 81 -73 68 -11 -6 -27 -17 -34 -25 -22 -21 -46 -15 -98 24 -119 90 -185 170 -206 249 -10 37 -9 51 6 94 14 38 16 64 11 109 -12 107 41 180 154 211 23 6 46 8 51 5 18 -11 48 15 53 47 3 18 2 56 -2 83 -8 49 -8 49 -12 -30z" transform="translate(0,156) scale(0.1,-0.1)" stroke="none" fill="#B9CF64"/>

<path d="M804 1448 c-13 -24 -17 -50 -14 -98 6 -116 3 -143 -16 -157 -10 -7 -25 -11 -32 -8 -21 8 -90 -13 -134 -41 -57 -36 -82 -97 -73 -175 5 -45 3 -71 -11 -109 -15 -43 -16 -57 -6 -94 21 -79 87 -159 206 -249 52 -39 76 -45 98 -24 7 8 23 19 34 25 25 13 36 3 73 -68 14 -25 38 -61 55 -81 17 -20 42 -55 56 -78 29 -50 54 -53 113 -13 23 15 55 34 71 42 16 8 51 35 78 58 44 41 48 47 48 90 0 48 -15 85 -85 207 -19 33 -35 68 -35 78 0 19 -15 23 -25 7 -3 -5 -19 -10 -35 -10 -43 0 -77 -16 -83 -40 -5 -19 -10 -20 -44 -14 -21 4 -38 7 -38 8 0 0 -12 24 -27 52 -20 39 -26 63 -25 107 1 32 -1 57 -4 57 -3 0 -10 21 -16 46 -10 41 -9 48 9 66 17 17 27 19 62 12 22 -4 58 -8 79 -9 49 -3 97 -37 90 -64 -4 -16 3 -23 31 -35 40 -16 47 -35 17 -43 -53 -14 -14 -72 60 -91 225 -56 273 -38 183 71 l-47 57 18 58 c9 31 19 69 22 84 6 30 -36 179 -69 246 -21 42 -23 44 -57 37 -20 -3 -63 -10 -96 -14 -34 -5 -90 -20 -125 -34 -35 -14 -67 -24 -72 -21 -5 3 -22 30 -39 59 -35 61 -100 119 -146 129 -29 7 -33 4 -49 -26z" transform="translate(0,156) scale(0.1,-0.1)" stroke="none" fill="#B7AFCE"/>

</g>

<g id="3" transform="translate(0,468.0)scale(0.8,0.8)">

<path d="M1410 1272 c0 -6 12 -46 26 -89 27 -83 27 -104 -1 -195 l-18 -58 47 -57 c60 -72 59 -96 -4 -104 l-45 -6 52 -1 c77 -3 77 30 1 120 -45 54 -45 53 -1 172 13 37 12 44 -18 130 -32 93 -39 108 -39 88z" transform="translate(0,156) scale(0.1,-0.1)" stroke="none" fill="#B9CF64"/>

<path d="M807 1473 c-9 -11 -19 -35 -22 -54 l-6 -34 15 39 c8 21 18 42 23 47 31 31 142 -51 196 -145 21 -37 31 -46 45 -41 77 33 150 55 185 56 39 1 40 1 14 9 -31 10 -106 -9 -171 -42 -39 -20 -40 -20 -54 -2 -8 11 -20 33 -28 50 -7 17 -32 52 -56 79 -35 38 -51 48 -83 52 -31 3 -45 0 -58 -14z" transform="translate(0,156) scale(0.1,-0.1)" stroke="none" fill="#B9CF64"/>

<path d="M1070 923 c0 -4 -4 -14 -9 -22 -7 -11 -15 -10 -45 4 -48 23 -66 15 -66 -30 0 -27 8 -42 38 -70 31 -30 43 -35 77 -33 35 3 42 8 62 43 16 31 20 48 14 75 -6 30 -11 35 -39 38 -18 2 -32 0 -32 -5z m30 -33 c0 -5 -4 -10 -10 -10 -5 0 -10 5 -10 10 0 6 5 10 10 10 6 0 10 -4 10 -10z" transform="translate(0,156) scale(0.1,-0.1)" stroke="none" fill="#806379"/>

<path d="M942 1032 c-18 -18 -19 -25 -9 -66 9 -40 14 -46 37 -46 14 0 30 -4 36 -9 5 -5 19 -12 31 -15 16 -5 23 -2 28 14 5 17 13 20 38 18 27 -3 32 -8 38 -38 6 -27 2 -44 -14 -75 -19 -35 -27 -40 -61 -43 -32 -3 -44 2 -71 28 -44 42 -51 24 -17 -43 19 -41 32 -56 47 -55 15 0 16 1 4 5 -14 3 -28 30 -29 53 0 3 18 4 39 2 36 -4 40 -6 39 -33 -1 -17 -7 -30 -17 -32 -13 -4 -13 -5 2 -6 10 -1 21 9 27 24 7 19 19 26 51 31 34 6 38 9 24 17 -13 7 -24 6 -36 -2 -31 -18 -30 -13 2 39 25 42 30 56 24 88 -3 20 -15 48 -26 61 -18 21 -23 23 -40 13 -11 -7 -23 -10 -28 -8 -4 3 -7 -5 -7 -17 1 -26 -33 -36 -46 -13 -5 9 -18 16 -28 16 -11 0 -24 9 -30 21 -25 47 8 93 52 72 13 -7 38 -15 56 -18 18 -4 30 -11 27 -16 -4 -5 0 -6 7 -4 8 3 32 -10 53 -30 22 -19 47 -35 55 -34 8 0 4 5 -9 10 -17 7 -22 15 -18 29 7 28 -40 62 -90 65 -21 1 -57 5 -79 9 -35 7 -45 5 -62 -12z" transform="translate(0,156) scale(0.1,-0.1)" stroke="none" fill="#B9CF64"/>

<path d="M779 1285 l-4 -80 -57 -6 c-69 -8 -142 -48 -169 -94 -11 -18 -34 -38 -52 -45 -18 -7 -70 -30 -117 -52 -83 -40 -104 -44 -228 -47 -48 -1 -53 -3 -50 -22 2 -14 31 -39 84 -72 45 -29 101 -67 124 -84 24 -18 50 -33 59 -33 24 -1 44 -20 76 -70 35 -56 42 -61 85 -59 19 0 40 1 47 0 6 -1 38 -24 69 -51 56 -49 134 -105 157 -113 8 -2 2 -25 -16 -68 -15 -35 -27 -71 -27 -80 0 -9 13 -40 30 -70 16 -30 37 -76 46 -102 9 -27 22 -51 30 -54 19 -7 77 32 147 101 33 32 66 56 78 56 22 0 164 83 176 103 4 6 -7 1 -24 -11 -17 -12 -34 -22 -38 -22 -3 0 -26 -13 -50 -30 -61 -42 -85 -39 -115 11 -14 23 -39 58 -56 78 -17 20 -41 56 -55 81 -37 71 -48 81 -73 68 -11 -6 -27 -17 -34 -25 -22 -21 -46 -15 -98 24 -119 90 -185 170 -206 249 -10 37 -9 51 6 94 14 38 16 64 11 109 -12 107 41 180 154 211 23 6 46 8 51 5 18 -11 48 15 53 47 3 18 2 56 -2 83 -8 49 -8 49 -12 -30z" transform="translate(0,156) scale(0.1,-0.1)" stroke="none" fill="#B9CF64"/>

<path d="M804 1448 c-13 -24 -17 -50 -14 -98 6 -116 3 -143 -16 -157 -10 -7 -25 -11 -32 -8 -21 8 -90 -13 -134 -41 -57 -36 -82 -97 -73 -175 5 -45 3 -71 -11 -109 -15 -43 -16 -57 -6 -94 21 -79 87 -159 206 -249 52 -39 76 -45 98 -24 7 8 23 19 34 25 25 13 36 3 73 -68 14 -25 38 -61 55 -81 17 -20 42 -55 56 -78 29 -50 54 -53 113 -13 23 15 55 34 71 42 16 8 51 35 78 58 44 41 48 47 48 90 0 48 -15 85 -85 207 -19 33 -35 68 -35 78 0 19 -15 23 -25 7 -3 -5 -19 -10 -35 -10 -43 0 -77 -16 -83 -40 -5 -19 -10 -20 -44 -14 -21 4 -38 7 -38 8 0 0 -12 24 -27 52 -20 39 -26 63 -25 107 1 32 -1 57 -4 57 -3 0 -10 21 -16 46 -10 41 -9 48 9 66 17 17 27 19 62 12 22 -4 58 -8 79 -9 49 -3 97 -37 90 -64 -4 -16 3 -23 31 -35 40 -16 47 -35 17 -43 -53 -14 -14 -72 60 -91 225 -56 273 -38 183 71 l-47 57 18 58 c9 31 19 69 22 84 6 30 -36 179 -69 246 -21 42 -23 44 -57 37 -20 -3 -63 -10 -96 -14 -34 -5 -90 -20 -125 -34 -35 -14 -67 -24 -72 -21 -5 3 -22 30 -39 59 -35 61 -100 119 -146 129 -29 7 -33 4 -49 -26z" transform="translate(0,156) scale(0.1,-0.1)" stroke="none" fill="#B7AFCE"/>

</g>

<g id="4" transform="translate(0,624.0)scale(0.8,0.8)">

<path d="M1410 1272 c0 -6 12 -46 26 -89 27 -83 27 -104 -1 -195 l-18 -58 47 -57 c60 -72 59 -96 -4 -104 l-45 -6 52 -1 c77 -3 77 30 1 120 -45 54 -45 53 -1 172 13 37 12 44 -18 130 -32 93 -39 108 -39 88z" transform="translate(0,156) scale(0.1,-0.1)" stroke="none" fill="#B9CF64"/>

<path d="M807 1473 c-9 -11 -19 -35 -22 -54 l-6 -34 15 39 c8 21 18 42 23 47 31 31 142 -51 196 -145 21 -37 31 -46 45 -41 77 33 150 55 185 56 39 1 40 1 14 9 -31 10 -106 -9 -171 -42 -39 -20 -40 -20 -54 -2 -8 11 -20 33 -28 50 -7 17 -32 52 -56 79 -35 38 -51 48 -83 52 -31 3 -45 0 -58 -14z" transform="translate(0,156) scale(0.1,-0.1)" stroke="none" fill="#B9CF64"/>

<path d="M1070 923 c0 -4 -4 -14 -9 -22 -7 -11 -15 -10 -45 4 -48 23 -66 15 -66 -30 0 -27 8 -42 38 -70 31 -30 43 -35 77 -33 35 3 42 8 62 43 16 31 20 48 14 75 -6 30 -11 35 -39 38 -18 2 -32 0 -32 -5z m30 -33 c0 -5 -4 -10 -10 -10 -5 0 -10 5 -10 10 0 6 5 10 10 10 6 0 10 -4 10 -10z" transform="translate(0,156) scale(0.1,-0.1)" stroke="none" fill="#806379"/>

<path d="M942 1032 c-18 -18 -19 -25 -9 -66 9 -40 14 -46 37 -46 14 0 30 -4 36 -9 5 -5 19 -12 31 -15 16 -5 23 -2 28 14 5 17 13 20 38 18 27 -3 32 -8 38 -38 6 -27 2 -44 -14 -75 -19 -35 -27 -40 -61 -43 -32 -3 -44 2 -71 28 -44 42 -51 24 -17 -43 19 -41 32 -56 47 -55 15 0 16 1 4 5 -14 3 -28 30 -29 53 0 3 18 4 39 2 36 -4 40 -6 39 -33 -1 -17 -7 -30 -17 -32 -13 -4 -13 -5 2 -6 10 -1 21 9 27 24 7 19 19 26 51 31 34 6 38 9 24 17 -13 7 -24 6 -36 -2 -31 -18 -30 -13 2 39 25 42 30 56 24 88 -3 20 -15 48 -26 61 -18 21 -23 23 -40 13 -11 -7 -23 -10 -28 -8 -4 3 -7 -5 -7 -17 1 -26 -33 -36 -46 -13 -5 9 -18 16 -28 16 -11 0 -24 9 -30 21 -25 47 8 93 52 72 13 -7 38 -15 56 -18 18 -4 30 -11 27 -16 -4 -5 0 -6 7 -4 8 3 32 -10 53 -30 22 -19 47 -35 55 -34 8 0 4 5 -9 10 -17 7 -22 15 -18 29 7 28 -40 62 -90 65 -21 1 -57 5 -79 9 -35 7 -45 5 -62 -12z" transform="translate(0,156) scale(0.1,-0.1)" stroke="none" fill="#B9CF64"/>

<path d="M779 1285 l-4 -80 -57 -6 c-69 -8 -142 -48 -169 -94 -11 -18 -34 -38 -52 -45 -18 -7 -70 -30 -117 -52 -83 -40 -104 -44 -228 -47 -48 -1 -53 -3 -50 -22 2 -14 31 -39 84 -72 45 -29 101 -67 124 -84 24 -18 50 -33 59 -33 24 -1 44 -20 76 -70 35 -56 42 -61 85 -59 19 0 40 1 47 0 6 -1 38 -24 69 -51 56 -49 134 -105 157 -113 8 -2 2 -25 -16 -68 -15 -35 -27 -71 -27 -80 0 -9 13 -40 30 -70 16 -30 37 -76 46 -102 9 -27 22 -51 30 -54 19 -7 77 32 147 101 33 32 66 56 78 56 22 0 164 83 176 103 4 6 -7 1 -24 -11 -17 -12 -34 -22 -38 -22 -3 0 -26 -13 -50 -30 -61 -42 -85 -39 -115 11 -14 23 -39 58 -56 78 -17 20 -41 56 -55 81 -37 71 -48 81 -73 68 -11 -6 -27 -17 -34 -25 -22 -21 -46 -15 -98 24 -119 90 -185 170 -206 249 -10 37 -9 51 6 94 14 38 16 64 11 109 -12 107 41 180 154 211 23 6 46 8 51 5 18 -11 48 15 53 47 3 18 2 56 -2 83 -8 49 -8 49 -12 -30z" transform="translate(0,156) scale(0.1,-0.1)" stroke="none" fill="#B9CF64"/>

<path d="M804 1448 c-13 -24 -17 -50 -14 -98 6 -116 3 -143 -16 -157 -10 -7 -25 -11 -32 -8 -21 8 -90 -13 -134 -41 -57 -36 -82 -97 -73 -175 5 -45 3 -71 -11 -109 -15 -43 -16 -57 -6 -94 21 -79 87 -159 206 -249 52 -39 76 -45 98 -24 7 8 23 19 34 25 25 13 36 3 73 -68 14 -25 38 -61 55 -81 17 -20 42 -55 56 -78 29 -50 54 -53 113 -13 23 15 55 34 71 42 16 8 51 35 78 58 44 41 48 47 48 90 0 48 -15 85 -85 207 -19 33 -35 68 -35 78 0 19 -15 23 -25 7 -3 -5 -19 -10 -35 -10 -43 0 -77 -16 -83 -40 -5 -19 -10 -20 -44 -14 -21 4 -38 7 -38 8 0 0 -12 24 -27 52 -20 39 -26 63 -25 107 1 32 -1 57 -4 57 -3 0 -10 21 -16 46 -10 41 -9 48 9 66 17 17 27 19 62 12 22 -4 58 -8 79 -9 49 -3 97 -37 90 -64 -4 -16 3 -23 31 -35 40 -16 47 -35 17 -43 -53 -14 -14 -72 60 -91 225 -56 273 -38 183 71 l-47 57 18 58 c9 31 19 69 22 84 6 30 -36 179 -69 246 -21 42 -23 44 -57 37 -20 -3 -63 -10 -96 -14 -34 -5 -90 -20 -125 -34 -35 -14 -67 -24 -72 -21 -5 3 -22 30 -39 59 -35 61 -100 119 -146 129 -29 7 -33 4 -49 -26z" transform="translate(0,156) scale(0.1,-0.1)" stroke="none" fill="#B7AFCE"/>

</g>

</g>
<g id="col2" transform="translate(316, 20)">
<g id="0" transform="translate(0,0.0)scale(0.8,0.8)">

<path d="M1410 1272 c0 -6 12 -46 26 -89 27 -83 27 -104 -1 -195 l-18 -58 47 -57 c60 -72 59 -96 -4 -104 l-45 -6 52 -1 c77 -3 77 30 1 120 -45 54 -45 53 -1 172 13 37 12 44 -18 130 -32 93 -39 108 -39 88z" transform="translate(0,156) scale(0.1,-0.1)" stroke="none" fill="#B9CF64"/>

<path d="M807 1473 c-9 -11 -19 -35 -22 -54 l-6 -34 15 39 c8 21 18 42 23 47 31 31 142 -51 196 -145 21 -37 31 -46 45 -41 77 33 150 55 185 56 39 1 40 1 14 9 -31 10 -106 -9 -171 -42 -39 -20 -40 -20 -54 -2 -8 11 -20 33 -28 50 -7 17 -32 52 -56 79 -35 38 -51 48 -83 52 -31 3 -45 0 -58 -14z" transform="translate(0,156) scale(0.1,-0.1)" stroke="none" fill="#B9CF64"/>

<path d="M1070 923 c0 -4 -4 -14 -9 -22 -7 -11 -15 -10 -45 4 -48 23 -66 15 -66 -30 0 -27 8 -42 38 -70 31 -30 43 -35 77 -33 35 3 42 8 62 43 16 31 20 48 14 75 -6 30 -11 35 -39 38 -18 2 -32 0 -32 -5z m30 -33 c0 -5 -4 -10 -10 -10 -5 0 -10 5 -10 10 0 6 5 10 10 10 6 0 10 -4 10 -10z" transform="translate(0,156) scale(0.1,-0.1)" stroke="none" fill="#806379"/>

<path d="M942 1032 c-18 -18 -19 -25 -9 -66 9 -40 14 -46 37 -46 14 0 30 -4 36 -9 5 -5 19 -12 31 -15 16 -5 23 -2 28 14 5 17 13 20 38 18 27 -3 32 -8 38 -38 6 -27 2 -44 -14 -75 -19 -35 -27 -40 -61 -43 -32 -3 -44 2 -71 28 -44 42 -51 24 -17 -43 19 -41 32 -56 47 -55 15 0 16 1 4 5 -14 3 -28 30 -29 53 0 3 18 4 39 2 36 -4 40 -6 39 -33 -1 -17 -7 -30 -17 -32 -13 -4 -13 -5 2 -6 10 -1 21 9 27 24 7 19 19 26 51 31 34 6 38 9 24 17 -13 7 -24 6 -36 -2 -31 -18 -30 -13 2 39 25 42 30 56 24 88 -3 20 -15 48 -26 61 -18 21 -23 23 -40 13 -11 -7 -23 -10 -28 -8 -4 3 -7 -5 -7 -17 1 -26 -33 -36 -46 -13 -5 9 -18 16 -28 16 -11 0 -24 9 -30 21 -25 47 8 93 52 72 13 -7 38 -15 56 -18 18 -4 30 -11 27 -16 -4 -5 0 -6 7 -4 8 3 32 -10 53 -30 22 -19 47 -35 55 -34 8 0 4 5 -9 10 -17 7 -22 15 -18 29 7 28 -40 62 -90 65 -21 1 -57 5 -79 9 -35 7 -45 5 -62 -12z" transform="translate(0,156) scale(0.1,-0.1)" stroke="none" fill="#B9CF64"/>

<path d="M779 1285 l-4 -80 -57 -6 c-69 -8 -142 -48 -169 -94 -11 -18 -34 -38 -52 -45 -18 -7 -70 -30 -117 -52 -83 -40 -104 -44 -228 -47 -48 -1 -53 -3 -50 -22 2 -14 31 -39 84 -72 45 -29 101 -67 124 -84 24 -18 50 -33 59 -33 24 -1 44 -20 76 -70 35 -56 42 -61 85 -59 19 0 40 1 47 0 6 -1 38 -24 69 -51 56 -49 134 -105 157 -113 8 -2 2 -25 -16 -68 -15 -35 -27 -71 -27 -80 0 -9 13 -40 30 -70 16 -30 37 -76 46 -102 9 -27 22 -51 30 -54 19 -7 77 32 147 101 33 32 66 56 78 56 22 0 164 83 176 103 4 6 -7 1 -24 -11 -17 -12 -34 -22 -38 -22 -3 0 -26 -13 -50 -30 -61 -42 -85 -39 -115 11 -14 23 -39 58 -56 78 -17 20 -41 56 -55 81 -37 71 -48 81 -73 68 -11 -6 -27 -17 -34 -25 -22 -21 -46 -15 -98 24 -119 90 -185 170 -206 249 -10 37 -9 51 6 94 14 38 16 64 11 109 -12 107 41 180 154 211 23 6 46 8 51 5 18 -11 48 15 53 47 3 18 2 56 -2 83 -8 49 -8 49 -12 -30z" transform="translate(0,156) scale(0.1,-0.1)" stroke="none" fill="#B9CF64"/>

<path d="M804 1448 c-13 -24 -17 -50 -14 -98 6 -116 3 -143 -16 -157 -10 -7 -25 -11 -32 -8 -21 8 -90 -13 -134 -41 -57 -36 -82 -97 -73 -175 5 -45 3 -71 -11 -109 -15 -43 -16 -57 -6 -94 21 -79 87 -159 206 -249 52 -39 76 -45 98 -24 7 8 23 19 34 25 25 13 36 3 73 -68 14 -25 38 -61 55 -81 17 -20 42 -55 56 -78 29 -50 54 -53 113 -13 23 15 55 34 71 42 16 8 51 35 78 58 44 41 48 47 48 90 0 48 -15 85 -85 207 -19 33 -35 68 -35 78 0 19 -15 23 -25 7 -3 -5 -19 -10 -35 -10 -43 0 -77 -16 -83 -40 -5 -19 -10 -20 -44 -14 -21 4 -38 7 -38 8 0 0 -12 24 -27 52 -20 39 -26 63 -25 107 1 32 -1 57 -4 57 -3 0 -10 21 -16 46 -10 41 -9 48 9 66 17 17 27 19 62 12 22 -4 58 -8 79 -9 49 -3 97 -37 90 -64 -4 -16 3 -23 31 -35 40 -16 47 -35 17 -43 -53 -14 -14 -72 60 -91 225 -56 273 -38 183 71 l-47 57 18 58 c9 31 19 69 22 84 6 30 -36 179 -69 246 -21 42 -23 44 -57 37 -20 -3 -63 -10 -96 -14 -34 -5 -90 -20 -125 -34 -35 -14 -67 -24 -72 -21 -5 3 -22 30 -39 59 -35 61 -100 119 -146 129 -29 7 -33 4 -49 -26z" transform="translate(0,156) scale(0.1,-0.1)" stroke="none" fill="#B7AFCE"/>

</g>

<g id="1" transform="translate(0,156.0)scale(0.8,0.8)">

<path d="M1410 1272 c0 -6 12 -46 26 -89 27 -83 27 -104 -1 -195 l-18 -58 47 -57 c60 -72 59 -96 -4 -104 l-45 -6 52 -1 c77 -3 77 30 1 120 -45 54 -45 53 -1 172 13 37 12 44 -18 130 -32 93 -39 108 -39 88z" transform="translate(0,156) scale(0.1,-0.1)" stroke="none" fill="#B9CF64"/>

<path d="M807 1473 c-9 -11 -19 -35 -22 -54 l-6 -34 15 39 c8 21 18 42 23 47 31 31 142 -51 196 -145 21 -37 31 -46 45 -41 77 33 150 55 185 56 39 1 40 1 14 9 -31 10 -106 -9 -171 -42 -39 -20 -40 -20 -54 -2 -8 11 -20 33 -28 50 -7 17 -32 52 -56 79 -35 38 -51 48 -83 52 -31 3 -45 0 -58 -14z" transform="translate(0,156) scale(0.1,-0.1)" stroke="none" fill="#B9CF64"/>

<path d="M1070 923 c0 -4 -4 -14 -9 -22 -7 -11 -15 -10 -45 4 -48 23 -66 15 -66 -30 0 -27 8 -42 38 -70 31 -30 43 -35 77 -33 35 3 42 8 62 43 16 31 20 48 14 75 -6 30 -11 35 -39 38 -18 2 -32 0 -32 -5z m30 -33 c0 -5 -4 -10 -10 -10 -5 0 -10 5 -10 10 0 6 5 10 10 10 6 0 10 -4 10 -10z" transform="translate(0,156) scale(0.1,-0.1)" stroke="none" fill="#806379"/>

<path d="M942 1032 c-18 -18 -19 -25 -9 -66 9 -40 14 -46 37 -46 14 0 30 -4 36 -9 5 -5 19 -12 31 -15 16 -5 23 -2 28 14 5 17 13 20 38 18 27 -3 32 -8 38 -38 6 -27 2 -44 -14 -75 -19 -35 -27 -40 -61 -43 -32 -3 -44 2 -71 28 -44 42 -51 24 -17 -43 19 -41 32 -56 47 -55 15 0 16 1 4 5 -14 3 -28 30 -29 53 0 3 18 4 39 2 36 -4 40 -6 39 -33 -1 -17 -7 -30 -17 -32 -13 -4 -13 -5 2 -6 10 -1 21 9 27 24 7 19 19 26 51 31 34 6 38 9 24 17 -13 7 -24 6 -36 -2 -31 -18 -30 -13 2 39 25 42 30 56 24 88 -3 20 -15 48 -26 61 -18 21 -23 23 -40 13 -11 -7 -23 -10 -28 -8 -4 3 -7 -5 -7 -17 1 -26 -33 -36 -46 -13 -5 9 -18 16 -28 16 -11 0 -24 9 -30 21 -25 47 8 93 52 72 13 -7 38 -15 56 -18 18 -4 30 -11 27 -16 -4 -5 0 -6 7 -4 8 3 32 -10 53 -30 22 -19 47 -35 55 -34 8 0 4 5 -9 10 -17 7 -22 15 -18 29 7 28 -40 62 -90 65 -21 1 -57 5 -79 9 -35 7 -45 5 -62 -12z" transform="translate(0,156) scale(0.1,-0.1)" stroke="none" fill="#B9CF64"/>

<path d="M779 1285 l-4 -80 -57 -6 c-69 -8 -142 -48 -169 -94 -11 -18 -34 -38 -52 -45 -18 -7 -70 -30 -117 -52 -83 -40 -104 -44 -228 -47 -48 -1 -53 -3 -50 -22 2 -14 31 -39 84 -72 45 -29 101 -67 124 -84 24 -18 50 -33 59 -33 24 -1 44 -20 76 -70 35 -56 42 -61 85 -59 19 0 40 1 47 0 6 -1 38 -24 69 -51 56 -49 134 -105 157 -113 8 -2 2 -25 -16 -68 -15 -35 -27 -71 -27 -80 0 -9 13 -40 30 -70 16 -30 37 -76 46 -102 9 -27 22 -51 30 -54 19 -7 77 32 147 101 33 32 66 56 78 56 22 0 164 83 176 103 4 6 -7 1 -24 -11 -17 -12 -34 -22 -38 -22 -3 0 -26 -13 -50 -30 -61 -42 -85 -39 -115 11 -14 23 -39 58 -56 78 -17 20 -41 56 -55 81 -37 71 -48 81 -73 68 -11 -6 -27 -17 -34 -25 -22 -21 -46 -15 -98 24 -119 90 -185 170 -206 249 -10 37 -9 51 6 94 14 38 16 64 11 109 -12 107 41 180 154 211 23 6 46 8 51 5 18 -11 48 15 53 47 3 18 2 56 -2 83 -8 49 -8 49 -12 -30z" transform="translate(0,156) scale(0.1,-0.1)" stroke="none" fill="#B9CF64"/>

<path d="M804 1448 c-13 -24 -17 -50 -14 -98 6 -116 3 -143 -16 -157 -10 -7 -25 -11 -32 -8 -21 8 -90 -13 -134 -41 -57 -36 -82 -97 -73 -175 5 -45 3 -71 -11 -109 -15 -43 -16 -57 -6 -94 21 -79 87 -159 206 -249 52 -39 76 -45 98 -24 7 8 23 19 34 25 25 13 36 3 73 -68 14 -25 38 -61 55 -81 17 -20 42 -55 56 -78 29 -50 54 -53 113 -13 23 15 55 34 71 42 16 8 51 35 78 58 44 41 48 47 48 90 0 48 -15 85 -85 207 -19 33 -35 68 -35 78 0 19 -15 23 -25 7 -3 -5 -19 -10 -35 -10 -43 0 -77 -16 -83 -40 -5 -19 -10 -20 -44 -14 -21 4 -38 7 -38 8 0 0 -12 24 -27 52 -20 39 -26 63 -25 107 1 32 -1 57 -4 57 -3 0 -10 21 -16 46 -10 41 -9 48 9 66 17 17 27 19 62 12 22 -4 58 -8 79 -9 49 -3 97 -37 90 -64 -4 -16 3 -23 31 -35 40 -16 47 -35 17 -43 -53 -14 -14 -72 60 -91 225 -56 273 -38 183 71 l-47 57 18 58 c9 31 19 69 22 84 6 30 -36 179 -69 246 -21 42 -23 44 -57 37 -20 -3 -63 -10 -96 -14 -34 -5 -90 -20 -125 -34 -35 -14 -67 -24 -72 -21 -5 3 -22 30 -39 59 -35 61 -100 119 -146 129 -29 7 -33 4 -49 -26z" transform="translate(0,156) scale(0.1,-0.1)" stroke="none" fill="#B7AFCE"/>

</g>

<g id="2" transform="translate(0,312.0)scale(0.8,0.8)">

<path d="M1410 1272 c0 -6 12 -46 26 -89 27 -83 27 -104 -1 -195 l-18 -58 47 -57 c60 -72 59 -96 -4 -104 l-45 -6 52 -1 c77 -3 77 30 1 120 -45 54 -45 53 -1 172 13 37 12 44 -18 130 -32 93 -39 108 -39 88z" transform="translate(0,156) scale(0.1,-0.1)" stroke="none" fill="#B9CF64"/>

<path d="M807 1473 c-9 -11 -19 -35 -22 -54 l-6 -34 15 39 c8 21 18 42 23 47 31 31 142 -51 196 -145 21 -37 31 -46 45 -41 77 33 150 55 185 56 39 1 40 1 14 9 -31 10 -106 -9 -171 -42 -39 -20 -40 -20 -54 -2 -8 11 -20 33 -28 50 -7 17 -32 52 -56 79 -35 38 -51 48 -83 52 -31 3 -45 0 -58 -14z" transform="translate(0,156) scale(0.1,-0.1)" stroke="none" fill="#B9CF64"/>

<path d="M1070 923 c0 -4 -4 -14 -9 -22 -7 -11 -15 -10 -45 4 -48 23 -66 15 -66 -30 0 -27 8 -42 38 -70 31 -30 43 -35 77 -33 35 3 42 8 62 43 16 31 20 48 14 75 -6 30 -11 35 -39 38 -18 2 -32 0 -32 -5z m30 -33 c0 -5 -4 -10 -10 -10 -5 0 -10 5 -10 10 0 6 5 10 10 10 6 0 10 -4 10 -10z" transform="translate(0,156) scale(0.1,-0.1)" stroke="none" fill="#806379"/>

<path d="M942 1032 c-18 -18 -19 -25 -9 -66 9 -40 14 -46 37 -46 14 0 30 -4 36 -9 5 -5 19 -12 31 -15 16 -5 23 -2 28 14 5 17 13 20 38 18 27 -3 32 -8 38 -38 6 -27 2 -44 -14 -75 -19 -35 -27 -40 -61 -43 -32 -3 -44 2 -71 28 -44 42 -51 24 -17 -43 19 -41 32 -56 47 -55 15 0 16 1 4 5 -14 3 -28 30 -29 53 0 3 18 4 39 2 36 -4 40 -6 39 -33 -1 -17 -7 -30 -17 -32 -13 -4 -13 -5 2 -6 10 -1 21 9 27 24 7 19 19 26 51 31 34 6 38 9 24 17 -13 7 -24 6 -36 -2 -31 -18 -30 -13 2 39 25 42 30 56 24 88 -3 20 -15 48 -26 61 -18 21 -23 23 -40 13 -11 -7 -23 -10 -28 -8 -4 3 -7 -5 -7 -17 1 -26 -33 -36 -46 -13 -5 9 -18 16 -28 16 -11 0 -24 9 -30 21 -25 47 8 93 52 72 13 -7 38 -15 56 -18 18 -4 30 -11 27 -16 -4 -5 0 -6 7 -4 8 3 32 -10 53 -30 22 -19 47 -35 55 -34 8 0 4 5 -9 10 -17 7 -22 15 -18 29 7 28 -40 62 -90 65 -21 1 -57 5 -79 9 -35 7 -45 5 -62 -12z" transform="translate(0,156) scale(0.1,-0.1)" stroke="none" fill="#B9CF64"/>

<path d="M779 1285 l-4 -80 -57 -6 c-69 -8 -142 -48 -169 -94 -11 -18 -34 -38 -52 -45 -18 -7 -70 -30 -117 -52 -83 -40 -104 -44 -228 -47 -48 -1 -53 -3 -50 -22 2 -14 31 -39 84 -72 45 -29 101 -67 124 -84 24 -18 50 -33 59 -33 24 -1 44 -20 76 -70 35 -56 42 -61 85 -59 19 0 40 1 47 0 6 -1 38 -24 69 -51 56 -49 134 -105 157 -113 8 -2 2 -25 -16 -68 -15 -35 -27 -71 -27 -80 0 -9 13 -40 30 -70 16 -30 37 -76 46 -102 9 -27 22 -51 30 -54 19 -7 77 32 147 101 33 32 66 56 78 56 22 0 164 83 176 103 4 6 -7 1 -24 -11 -17 -12 -34 -22 -38 -22 -3 0 -26 -13 -50 -30 -61 -42 -85 -39 -115 11 -14 23 -39 58 -56 78 -17 20 -41 56 -55 81 -37 71 -48 81 -73 68 -11 -6 -27 -17 -34 -25 -22 -21 -46 -15 -98 24 -119 90 -185 170 -206 249 -10 37 -9 51 6 94 14 38 16 64 11 109 -12 107 41 180 154 211 23 6 46 8 51 5 18 -11 48 15 53 47 3 18 2 56 -2 83 -8 49 -8 49 -12 -30z" transform="translate(0,156) scale(0.1,-0.1)" stroke="none" fill="#B9CF64"/>

<path d="M804 1448 c-13 -24 -17 -50 -14 -98 6 -116 3 -143 -16 -157 -10 -7 -25 -11 -32 -8 -21 8 -90 -13 -134 -41 -57 -36 -82 -97 -73 -175 5 -45 3 -71 -11 -109 -15 -43 -16 -57 -6 -94 21 -79 87 -159 206 -249 52 -39 76 -45 98 -24 7 8 23 19 34 25 25 13 36 3 73 -68 14 -25 38 -61 55 -81 17 -20 42 -55 56 -78 29 -50 54 -53 113 -13 23 15 55 34 71 42 16 8 51 35 78 58 44 41 48 47 48 90 0 48 -15 85 -85 207 -19 33 -35 68 -35 78 0 19 -15 23 -25 7 -3 -5 -19 -10 -35 -10 -43 0 -77 -16 -83 -40 -5 -19 -10 -20 -44 -14 -21 4 -38 7 -38 8 0 0 -12 24 -27 52 -20 39 -26 63 -25 107 1 32 -1 57 -4 57 -3 0 -10 21 -16 46 -10 41 -9 48 9 66 17 17 27 19 62 12 22 -4 58 -8 79 -9 49 -3 97 -37 90 -64 -4 -16 3 -23 31 -35 40 -16 47 -35 17 -43 -53 -14 -14 -72 60 -91 225 -56 273 -38 183 71 l-47 57 18 58 c9 31 19 69 22 84 6 30 -36 179 -69 246 -21 42 -23 44 -57 37 -20 -3 -63 -10 -96 -14 -34 -5 -90 -20 -125 -34 -35 -14 -67 -24 -72 -21 -5 3 -22 30 -39 59 -35 61 -100 119 -146 129 -29 7 -33 4 -49 -26z" transform="translate(0,156) scale(0.1,-0.1)" stroke="none" fill="#B7AFCE"/>

</g>

<g id="3" transform="translate(0,468.0)scale(0.8,0.8)">

<path d="M1410 1272 c0 -6 12 -46 26 -89 27 -83 27 -104 -1 -195 l-18 -58 47 -57 c60 -72 59 -96 -4 -104 l-45 -6 52 -1 c77 -3 77 30 1 120 -45 54 -45 53 -1 172 13 37 12 44 -18 130 -32 93 -39 108 -39 88z" transform="translate(0,156) scale(0.1,-0.1)" stroke="none" fill="#B9CF64"/>

<path d="M807 1473 c-9 -11 -19 -35 -22 -54 l-6 -34 15 39 c8 21 18 42 23 47 31 31 142 -51 196 -145 21 -37 31 -46 45 -41 77 33 150 55 185 56 39 1 40 1 14 9 -31 10 -106 -9 -171 -42 -39 -20 -40 -20 -54 -2 -8 11 -20 33 -28 50 -7 17 -32 52 -56 79 -35 38 -51 48 -83 52 -31 3 -45 0 -58 -14z" transform="translate(0,156) scale(0.1,-0.1)" stroke="none" fill="#B9CF64"/>

<path d="M1070 923 c0 -4 -4 -14 -9 -22 -7 -11 -15 -10 -45 4 -48 23 -66 15 -66 -30 0 -27 8 -42 38 -70 31 -30 43 -35 77 -33 35 3 42 8 62 43 16 31 20 48 14 75 -6 30 -11 35 -39 38 -18 2 -32 0 -32 -5z m30 -33 c0 -5 -4 -10 -10 -10 -5 0 -10 5 -10 10 0 6 5 10 10 10 6 0 10 -4 10 -10z" transform="translate(0,156) scale(0.1,-0.1)" stroke="none" fill="#806379"/>

<path d="M942 1032 c-18 -18 -19 -25 -9 -66 9 -40 14 -46 37 -46 14 0 30 -4 36 -9 5 -5 19 -12 31 -15 16 -5 23 -2 28 14 5 17 13 20 38 18 27 -3 32 -8 38 -38 6 -27 2 -44 -14 -75 -19 -35 -27 -40 -61 -43 -32 -3 -44 2 -71 28 -44 42 -51 24 -17 -43 19 -41 32 -56 47 -55 15 0 16 1 4 5 -14 3 -28 30 -29 53 0 3 18 4 39 2 36 -4 40 -6 39 -33 -1 -17 -7 -30 -17 -32 -13 -4 -13 -5 2 -6 10 -1 21 9 27 24 7 19 19 26 51 31 34 6 38 9 24 17 -13 7 -24 6 -36 -2 -31 -18 -30 -13 2 39 25 42 30 56 24 88 -3 20 -15 48 -26 61 -18 21 -23 23 -40 13 -11 -7 -23 -10 -28 -8 -4 3 -7 -5 -7 -17 1 -26 -33 -36 -46 -13 -5 9 -18 16 -28 16 -11 0 -24 9 -30 21 -25 47 8 93 52 72 13 -7 38 -15 56 -18 18 -4 30 -11 27 -16 -4 -5 0 -6 7 -4 8 3 32 -10 53 -30 22 -19 47 -35 55 -34 8 0 4 5 -9 10 -17 7 -22 15 -18 29 7 28 -40 62 -90 65 -21 1 -57 5 -79 9 -35 7 -45 5 -62 -12z" transform="translate(0,156) scale(0.1,-0.1)" stroke="none" fill="#B9CF64"/>

<path d="M779 1285 l-4 -80 -57 -6 c-69 -8 -142 -48 -169 -94 -11 -18 -34 -38 -52 -45 -18 -7 -70 -30 -117 -52 -83 -40 -104 -44 -228 -47 -48 -1 -53 -3 -50 -22 2 -14 31 -39 84 -72 45 -29 101 -67 124 -84 24 -18 50 -33 59 -33 24 -1 44 -20 76 -70 35 -56 42 -61 85 -59 19 0 40 1 47 0 6 -1 38 -24 69 -51 56 -49 134 -105 157 -113 8 -2 2 -25 -16 -68 -15 -35 -27 -71 -27 -80 0 -9 13 -40 30 -70 16 -30 37 -76 46 -102 9 -27 22 -51 30 -54 19 -7 77 32 147 101 33 32 66 56 78 56 22 0 164 83 176 103 4 6 -7 1 -24 -11 -17 -12 -34 -22 -38 -22 -3 0 -26 -13 -50 -30 -61 -42 -85 -39 -115 11 -14 23 -39 58 -56 78 -17 20 -41 56 -55 81 -37 71 -48 81 -73 68 -11 -6 -27 -17 -34 -25 -22 -21 -46 -15 -98 24 -119 90 -185 170 -206 249 -10 37 -9 51 6 94 14 38 16 64 11 109 -12 107 41 180 154 211 23 6 46 8 51 5 18 -11 48 15 53 47 3 18 2 56 -2 83 -8 49 -8 49 -12 -30z" transform="translate(0,156) scale(0.1,-0.1)" stroke="none" fill="#B9CF64"/>

<path d="M804 1448 c-13 -24 -17 -50 -14 -98 6 -116 3 -143 -16 -157 -10 -7 -25 -11 -32 -8 -21 8 -90 -13 -134 -41 -57 -36 -82 -97 -73 -175 5 -45 3 -71 -11 -109 -15 -43 -16 -57 -6 -94 21 -79 87 -159 206 -249 52 -39 76 -45 98 -24 7 8 23 19 34 25 25 13 36 3 73 -68 14 -25 38 -61 55 -81 17 -20 42 -55 56 -78 29 -50 54 -53 113 -13 23 15 55 34 71 42 16 8 51 35 78 58 44 41 48 47 48 90 0 48 -15 85 -85 207 -19 33 -35 68 -35 78 0 19 -15 23 -25 7 -3 -5 -19 -10 -35 -10 -43 0 -77 -16 -83 -40 -5 -19 -10 -20 -44 -14 -21 4 -38 7 -38 8 0 0 -12 24 -27 52 -20 39 -26 63 -25 107 1 32 -1 57 -4 57 -3 0 -10 21 -16 46 -10 41 -9 48 9 66 17 17 27 19 62 12 22 -4 58 -8 79 -9 49 -3 97 -37 90 -64 -4 -16 3 -23 31 -35 40 -16 47 -35 17 -43 -53 -14 -14 -72 60 -91 225 -56 273 -38 183 71 l-47 57 18 58 c9 31 19 69 22 84 6 30 -36 179 -69 246 -21 42 -23 44 -57 37 -20 -3 -63 -10 -96 -14 -34 -5 -90 -20 -125 -34 -35 -14 -67 -24 -72 -21 -5 3 -22 30 -39 59 -35 61 -100 119 -146 129 -29 7 -33 4 -49 -26z" transform="translate(0,156) scale(0.1,-0.1)" stroke="none" fill="#B7AFCE"/>

</g>

<g id="4" transform="translate(0,624.0)scale(0.8,0.8)">

<path d="M1410 1272 c0 -6 12 -46 26 -89 27 -83 27 -104 -1 -195 l-18 -58 47 -57 c60 -72 59 -96 -4 -104 l-45 -6 52 -1 c77 -3 77 30 1 120 -45 54 -45 53 -1 172 13 37 12 44 -18 130 -32 93 -39 108 -39 88z" transform="translate(0,156) scale(0.1,-0.1)" stroke="none" fill="#B9CF64"/>

<path d="M807 1473 c-9 -11 -19 -35 -22 -54 l-6 -34 15 39 c8 21 18 42 23 47 31 31 142 -51 196 -145 21 -37 31 -46 45 -41 77 33 150 55 185 56 39 1 40 1 14 9 -31 10 -106 -9 -171 -42 -39 -20 -40 -20 -54 -2 -8 11 -20 33 -28 50 -7 17 -32 52 -56 79 -35 38 -51 48 -83 52 -31 3 -45 0 -58 -14z" transform="translate(0,156) scale(0.1,-0.1)" stroke="none" fill="#B9CF64"/>

<path d="M1070 923 c0 -4 -4 -14 -9 -22 -7 -11 -15 -10 -45 4 -48 23 -66 15 -66 -30 0 -27 8 -42 38 -70 31 -30 43 -35 77 -33 35 3 42 8 62 43 16 31 20 48 14 75 -6 30 -11 35 -39 38 -18 2 -32 0 -32 -5z m30 -33 c0 -5 -4 -10 -10 -10 -5 0 -10 5 -10 10 0 6 5 10 10 10 6 0 10 -4 10 -10z" transform="translate(0,156) scale(0.1,-0.1)" stroke="none" fill="#806379"/>

<path d="M942 1032 c-18 -18 -19 -25 -9 -66 9 -40 14 -46 37 -46 14 0 30 -4 36 -9 5 -5 19 -12 31 -15 16 -5 23 -2 28 14 5 17 13 20 38 18 27 -3 32 -8 38 -38 6 -27 2 -44 -14 -75 -19 -35 -27 -40 -61 -43 -32 -3 -44 2 -71 28 -44 42 -51 24 -17 -43 19 -41 32 -56 47 -55 15 0 16 1 4 5 -14 3 -28 30 -29 53 0 3 18 4 39 2 36 -4 40 -6 39 -33 -1 -17 -7 -30 -17 -32 -13 -4 -13 -5 2 -6 10 -1 21 9 27 24 7 19 19 26 51 31 34 6 38 9 24 17 -13 7 -24 6 -36 -2 -31 -18 -30 -13 2 39 25 42 30 56 24 88 -3 20 -15 48 -26 61 -18 21 -23 23 -40 13 -11 -7 -23 -10 -28 -8 -4 3 -7 -5 -7 -17 1 -26 -33 -36 -46 -13 -5 9 -18 16 -28 16 -11 0 -24 9 -30 21 -25 47 8 93 52 72 13 -7 38 -15 56 -18 18 -4 30 -11 27 -16 -4 -5 0 -6 7 -4 8 3 32 -10 53 -30 22 -19 47 -35 55 -34 8 0 4 5 -9 10 -17 7 -22 15 -18 29 7 28 -40 62 -90 65 -21 1 -57 5 -79 9 -35 7 -45 5 -62 -12z" transform="translate(0,156) scale(0.1,-0.1)" stroke="none" fill="#B9CF64"/>

<path d="M779 1285 l-4 -80 -57 -6 c-69 -8 -142 -48 -169 -94 -11 -18 -34 -38 -52 -45 -18 -7 -70 -30 -117 -52 -83 -40 -104 -44 -228 -47 -48 -1 -53 -3 -50 -22 2 -14 31 -39 84 -72 45 -29 101 -67 124 -84 24 -18 50 -33 59 -33 24 -1 44 -20 76 -70 35 -56 42 -61 85 -59 19 0 40 1 47 0 6 -1 38 -24 69 -51 56 -49 134 -105 157 -113 8 -2 2 -25 -16 -68 -15 -35 -27 -71 -27 -80 0 -9 13 -40 30 -70 16 -30 37 -76 46 -102 9 -27 22 -51 30 -54 19 -7 77 32 147 101 33 32 66 56 78 56 22 0 164 83 176 103 4 6 -7 1 -24 -11 -17 -12 -34 -22 -38 -22 -3 0 -26 -13 -50 -30 -61 -42 -85 -39 -115 11 -14 23 -39 58 -56 78 -17 20 -41 56 -55 81 -37 71 -48 81 -73 68 -11 -6 -27 -17 -34 -25 -22 -21 -46 -15 -98 24 -119 90 -185 170 -206 249 -10 37 -9 51 6 94 14 38 16 64 11 109 -12 107 41 180 154 211 23 6 46 8 51 5 18 -11 48 15 53 47 3 18 2 56 -2 83 -8 49 -8 49 -12 -30z" transform="translate(0,156) scale(0.1,-0.1)" stroke="none" fill="#B9CF64"/>

<path d="M804 1448 c-13 -24 -17 -50 -14 -98 6 -116 3 -143 -16 -157 -10 -7 -25 -11 -32 -8 -21 8 -90 -13 -134 -41 -57 -36 -82 -97 -73 -175 5 -45 3 -71 -11 -109 -15 -43 -16 -57 -6 -94 21 -79 87 -159 206 -249 52 -39 76 -45 98 -24 7 8 23 19 34 25 25 13 36 3 73 -68 14 -25 38 -61 55 -81 17 -20 42 -55 56 -78 29 -50 54 -53 113 -13 23 15 55 34 71 42 16 8 51 35 78 58 44 41 48 47 48 90 0 48 -15 85 -85 207 -19 33 -35 68 -35 78 0 19 -15 23 -25 7 -3 -5 -19 -10 -35 -10 -43 0 -77 -16 -83 -40 -5 -19 -10 -20 -44 -14 -21 4 -38 7 -38 8 0 0 -12 24 -27 52 -20 39 -26 63 -25 107 1 32 -1 57 -4 57 -3 0 -10 21 -16 46 -10 41 -9 48 9 66 17 17 27 19 62 12 22 -4 58 -8 79 -9 49 -3 97 -37 90 -64 -4 -16 3 -23 31 -35 40 -16 47 -35 17 -43 -53 -14 -14 -72 60 -91 225 -56 273 -38 183 71 l-47 57 18 58 c9 31 19 69 22 84 6 30 -36 179 -69 246 -21 42 -23 44 -57 37 -20 -3 -63 -10 -96 -14 -34 -5 -90 -20 -125 -34 -35 -14 -67 -24 -72 -21 -5 3 -22 30 -39 59 -35 61 -100 119 -146 129 -29 7 -33 4 -49 -26z" transform="translate(0,156) scale(0.1,-0.1)" stroke="none" fill="#B7AFCE"/>

</g>

</g>
<g id="col3" transform="translate(474, -58.0)">
<g id="0" transform="translate(0,0.0)scale(0.8,0.8)">

<path d="M1410 1272 c0 -6 12 -46 26 -89 27 -83 27 -104 -1 -195 l-18 -58 47 -57 c60 -72 59 -96 -4 -104 l-45 -6 52 -1 c77 -3 77 30 1 120 -45 54 -45 53 -1 172 13 37 12 44 -18 130 -32 93 -39 108 -39 88z" transform="translate(0,156) scale(0.1,-0.1)" stroke="none" fill="#B9CF64"/>

<path d="M807 1473 c-9 -11 -19 -35 -22 -54 l-6 -34 15 39 c8 21 18 42 23 47 31 31 142 -51 196 -145 21 -37 31 -46 45 -41 77 33 150 55 185 56 39 1 40 1 14 9 -31 10 -106 -9 -171 -42 -39 -20 -40 -20 -54 -2 -8 11 -20 33 -28 50 -7 17 -32 52 -56 79 -35 38 -51 48 -83 52 -31 3 -45 0 -58 -14z" transform="translate(0,156) scale(0.1,-0.1)" stroke="none" fill="#B9CF64"/>

<path d="M1070 923 c0 -4 -4 -14 -9 -22 -7 -11 -15 -10 -45 4 -48 23 -66 15 -66 -30 0 -27 8 -42 38 -70 31 -30 43 -35 77 -33 35 3 42 8 62 43 16 31 20 48 14 75 -6 30 -11 35 -39 38 -18 2 -32 0 -32 -5z m30 -33 c0 -5 -4 -10 -10 -10 -5 0 -10 5 -10 10 0 6 5 10 10 10 6 0 10 -4 10 -10z" transform="translate(0,156) scale(0.1,-0.1)" stroke="none" fill="#806379"/>

<path d="M942 1032 c-18 -18 -19 -25 -9 -66 9 -40 14 -46 37 -46 14 0 30 -4 36 -9 5 -5 19 -12 31 -15 16 -5 23 -2 28 14 5 17 13 20 38 18 27 -3 32 -8 38 -38 6 -27 2 -44 -14 -75 -19 -35 -27 -40 -61 -43 -32 -3 -44 2 -71 28 -44 42 -51 24 -17 -43 19 -41 32 -56 47 -55 15 0 16 1 4 5 -14 3 -28 30 -29 53 0 3 18 4 39 2 36 -4 40 -6 39 -33 -1 -17 -7 -30 -17 -32 -13 -4 -13 -5 2 -6 10 -1 21 9 27 24 7 19 19 26 51 31 34 6 38 9 24 17 -13 7 -24 6 -36 -2 -31 -18 -30 -13 2 39 25 42 30 56 24 88 -3 20 -15 48 -26 61 -18 21 -23 23 -40 13 -11 -7 -23 -10 -28 -8 -4 3 -7 -5 -7 -17 1 -26 -33 -36 -46 -13 -5 9 -18 16 -28 16 -11 0 -24 9 -30 21 -25 47 8 93 52 72 13 -7 38 -15 56 -18 18 -4 30 -11 27 -16 -4 -5 0 -6 7 -4 8 3 32 -10 53 -30 22 -19 47 -35 55 -34 8 0 4 5 -9 10 -17 7 -22 15 -18 29 7 28 -40 62 -90 65 -21 1 -57 5 -79 9 -35 7 -45 5 -62 -12z" transform="translate(0,156) scale(0.1,-0.1)" stroke="none" fill="#B9CF64"/>

<path d="M779 1285 l-4 -80 -57 -6 c-69 -8 -142 -48 -169 -94 -11 -18 -34 -38 -52 -45 -18 -7 -70 -30 -117 -52 -83 -40 -104 -44 -228 -47 -48 -1 -53 -3 -50 -22 2 -14 31 -39 84 -72 45 -29 101 -67 124 -84 24 -18 50 -33 59 -33 24 -1 44 -20 76 -70 35 -56 42 -61 85 -59 19 0 40 1 47 0 6 -1 38 -24 69 -51 56 -49 134 -105 157 -113 8 -2 2 -25 -16 -68 -15 -35 -27 -71 -27 -80 0 -9 13 -40 30 -70 16 -30 37 -76 46 -102 9 -27 22 -51 30 -54 19 -7 77 32 147 101 33 32 66 56 78 56 22 0 164 83 176 103 4 6 -7 1 -24 -11 -17 -12 -34 -22 -38 -22 -3 0 -26 -13 -50 -30 -61 -42 -85 -39 -115 11 -14 23 -39 58 -56 78 -17 20 -41 56 -55 81 -37 71 -48 81 -73 68 -11 -6 -27 -17 -34 -25 -22 -21 -46 -15 -98 24 -119 90 -185 170 -206 249 -10 37 -9 51 6 94 14 38 16 64 11 109 -12 107 41 180 154 211 23 6 46 8 51 5 18 -11 48 15 53 47 3 18 2 56 -2 83 -8 49 -8 49 -12 -30z" transform="translate(0,156) scale(0.1,-0.1)" stroke="none" fill="#B9CF64"/>

<path d="M804 1448 c-13 -24 -17 -50 -14 -98 6 -116 3 -143 -16 -157 -10 -7 -25 -11 -32 -8 -21 8 -90 -13 -134 -41 -57 -36 -82 -97 -73 -175 5 -45 3 -71 -11 -109 -15 -43 -16 -57 -6 -94 21 -79 87 -159 206 -249 52 -39 76 -45 98 -24 7 8 23 19 34 25 25 13 36 3 73 -68 14 -25 38 -61 55 -81 17 -20 42 -55 56 -78 29 -50 54 -53 113 -13 23 15 55 34 71 42 16 8 51 35 78 58 44 41 48 47 48 90 0 48 -15 85 -85 207 -19 33 -35 68 -35 78 0 19 -15 23 -25 7 -3 -5 -19 -10 -35 -10 -43 0 -77 -16 -83 -40 -5 -19 -10 -20 -44 -14 -21 4 -38 7 -38 8 0 0 -12 24 -27 52 -20 39 -26 63 -25 107 1 32 -1 57 -4 57 -3 0 -10 21 -16 46 -10 41 -9 48 9 66 17 17 27 19 62 12 22 -4 58 -8 79 -9 49 -3 97 -37 90 -64 -4 -16 3 -23 31 -35 40 -16 47 -35 17 -43 -53 -14 -14 -72 60 -91 225 -56 273 -38 183 71 l-47 57 18 58 c9 31 19 69 22 84 6 30 -36 179 -69 246 -21 42 -23 44 -57 37 -20 -3 -63 -10 -96 -14 -34 -5 -90 -20 -125 -34 -35 -14 -67 -24 -72 -21 -5 3 -22 30 -39 59 -35 61 -100 119 -146 129 -29 7 -33 4 -49 -26z" transform="translate(0,156) scale(0.1,-0.1)" stroke="none" fill="#B7AFCE"/>

</g>

<g id="1" transform="translate(0,156.0)scale(0.8,0.8)">

<path d="M1410 1272 c0 -6 12 -46 26 -89 27 -83 27 -104 -1 -195 l-18 -58 47 -57 c60 -72 59 -96 -4 -104 l-45 -6 52 -1 c77 -3 77 30 1 120 -45 54 -45 53 -1 172 13 37 12 44 -18 130 -32 93 -39 108 -39 88z" transform="translate(0,156) scale(0.1,-0.1)" stroke="none" fill="#B9CF64"/>

<path d="M807 1473 c-9 -11 -19 -35 -22 -54 l-6 -34 15 39 c8 21 18 42 23 47 31 31 142 -51 196 -145 21 -37 31 -46 45 -41 77 33 150 55 185 56 39 1 40 1 14 9 -31 10 -106 -9 -171 -42 -39 -20 -40 -20 -54 -2 -8 11 -20 33 -28 50 -7 17 -32 52 -56 79 -35 38 -51 48 -83 52 -31 3 -45 0 -58 -14z" transform="translate(0,156) scale(0.1,-0.1)" stroke="none" fill="#B9CF64"/>

<path d="M1070 923 c0 -4 -4 -14 -9 -22 -7 -11 -15 -10 -45 4 -48 23 -66 15 -66 -30 0 -27 8 -42 38 -70 31 -30 43 -35 77 -33 35 3 42 8 62 43 16 31 20 48 14 75 -6 30 -11 35 -39 38 -18 2 -32 0 -32 -5z m30 -33 c0 -5 -4 -10 -10 -10 -5 0 -10 5 -10 10 0 6 5 10 10 10 6 0 10 -4 10 -10z" transform="translate(0,156) scale(0.1,-0.1)" stroke="none" fill="#806379"/>

<path d="M942 1032 c-18 -18 -19 -25 -9 -66 9 -40 14 -46 37 -46 14 0 30 -4 36 -9 5 -5 19 -12 31 -15 16 -5 23 -2 28 14 5 17 13 20 38 18 27 -3 32 -8 38 -38 6 -27 2 -44 -14 -75 -19 -35 -27 -40 -61 -43 -32 -3 -44 2 -71 28 -44 42 -51 24 -17 -43 19 -41 32 -56 47 -55 15 0 16 1 4 5 -14 3 -28 30 -29 53 0 3 18 4 39 2 36 -4 40 -6 39 -33 -1 -17 -7 -30 -17 -32 -13 -4 -13 -5 2 -6 10 -1 21 9 27 24 7 19 19 26 51 31 34 6 38 9 24 17 -13 7 -24 6 -36 -2 -31 -18 -30 -13 2 39 25 42 30 56 24 88 -3 20 -15 48 -26 61 -18 21 -23 23 -40 13 -11 -7 -23 -10 -28 -8 -4 3 -7 -5 -7 -17 1 -26 -33 -36 -46 -13 -5 9 -18 16 -28 16 -11 0 -24 9 -30 21 -25 47 8 93 52 72 13 -7 38 -15 56 -18 18 -4 30 -11 27 -16 -4 -5 0 -6 7 -4 8 3 32 -10 53 -30 22 -19 47 -35 55 -34 8 0 4 5 -9 10 -17 7 -22 15 -18 29 7 28 -40 62 -90 65 -21 1 -57 5 -79 9 -35 7 -45 5 -62 -12z" transform="translate(0,156) scale(0.1,-0.1)" stroke="none" fill="#B9CF64"/>

<path d="M779 1285 l-4 -80 -57 -6 c-69 -8 -142 -48 -169 -94 -11 -18 -34 -38 -52 -45 -18 -7 -70 -30 -117 -52 -83 -40 -104 -44 -228 -47 -48 -1 -53 -3 -50 -22 2 -14 31 -39 84 -72 45 -29 101 -67 124 -84 24 -18 50 -33 59 -33 24 -1 44 -20 76 -70 35 -56 42 -61 85 -59 19 0 40 1 47 0 6 -1 38 -24 69 -51 56 -49 134 -105 157 -113 8 -2 2 -25 -16 -68 -15 -35 -27 -71 -27 -80 0 -9 13 -40 30 -70 16 -30 37 -76 46 -102 9 -27 22 -51 30 -54 19 -7 77 32 147 101 33 32 66 56 78 56 22 0 164 83 176 103 4 6 -7 1 -24 -11 -17 -12 -34 -22 -38 -22 -3 0 -26 -13 -50 -30 -61 -42 -85 -39 -115 11 -14 23 -39 58 -56 78 -17 20 -41 56 -55 81 -37 71 -48 81 -73 68 -11 -6 -27 -17 -34 -25 -22 -21 -46 -15 -98 24 -119 90 -185 170 -206 249 -10 37 -9 51 6 94 14 38 16 64 11 109 -12 107 41 180 154 211 23 6 46 8 51 5 18 -11 48 15 53 47 3 18 2 56 -2 83 -8 49 -8 49 -12 -30z" transform="translate(0,156) scale(0.1,-0.1)" stroke="none" fill="#B9CF64"/>

<path d="M804 1448 c-13 -24 -17 -50 -14 -98 6 -116 3 -143 -16 -157 -10 -7 -25 -11 -32 -8 -21 8 -90 -13 -134 -41 -57 -36 -82 -97 -73 -175 5 -45 3 -71 -11 -109 -15 -43 -16 -57 -6 -94 21 -79 87 -159 206 -249 52 -39 76 -45 98 -24 7 8 23 19 34 25 25 13 36 3 73 -68 14 -25 38 -61 55 -81 17 -20 42 -55 56 -78 29 -50 54 -53 113 -13 23 15 55 34 71 42 16 8 51 35 78 58 44 41 48 47 48 90 0 48 -15 85 -85 207 -19 33 -35 68 -35 78 0 19 -15 23 -25 7 -3 -5 -19 -10 -35 -10 -43 0 -77 -16 -83 -40 -5 -19 -10 -20 -44 -14 -21 4 -38 7 -38 8 0 0 -12 24 -27 52 -20 39 -26 63 -25 107 1 32 -1 57 -4 57 -3 0 -10 21 -16 46 -10 41 -9 48 9 66 17 17 27 19 62 12 22 -4 58 -8 79 -9 49 -3 97 -37 90 -64 -4 -16 3 -23 31 -35 40 -16 47 -35 17 -43 -53 -14 -14 -72 60 -91 225 -56 273 -38 183 71 l-47 57 18 58 c9 31 19 69 22 84 6 30 -36 179 -69 246 -21 42 -23 44 -57 37 -20 -3 -63 -10 -96 -14 -34 -5 -90 -20 -125 -34 -35 -14 -67 -24 -72 -21 -5 3 -22 30 -39 59 -35 61 -100 119 -146 129 -29 7 -33 4 -49 -26z" transform="translate(0,156) scale(0.1,-0.1)" stroke="none" fill="#B7AFCE"/>

</g>

<g id="2" transform="translate(0,312.0)scale(0.8,0.8)">

<path d="M1410 1272 c0 -6 12 -46 26 -89 27 -83 27 -104 -1 -195 l-18 -58 47 -57 c60 -72 59 -96 -4 -104 l-45 -6 52 -1 c77 -3 77 30 1 120 -45 54 -45 53 -1 172 13 37 12 44 -18 130 -32 93 -39 108 -39 88z" transform="translate(0,156) scale(0.1,-0.1)" stroke="none" fill="#B9CF64"/>

<path d="M807 1473 c-9 -11 -19 -35 -22 -54 l-6 -34 15 39 c8 21 18 42 23 47 31 31 142 -51 196 -145 21 -37 31 -46 45 -41 77 33 150 55 185 56 39 1 40 1 14 9 -31 10 -106 -9 -171 -42 -39 -20 -40 -20 -54 -2 -8 11 -20 33 -28 50 -7 17 -32 52 -56 79 -35 38 -51 48 -83 52 -31 3 -45 0 -58 -14z" transform="translate(0,156) scale(0.1,-0.1)" stroke="none" fill="#B9CF64"/>

<path d="M1070 923 c0 -4 -4 -14 -9 -22 -7 -11 -15 -10 -45 4 -48 23 -66 15 -66 -30 0 -27 8 -42 38 -70 31 -30 43 -35 77 -33 35 3 42 8 62 43 16 31 20 48 14 75 -6 30 -11 35 -39 38 -18 2 -32 0 -32 -5z m30 -33 c0 -5 -4 -10 -10 -10 -5 0 -10 5 -10 10 0 6 5 10 10 10 6 0 10 -4 10 -10z" transform="translate(0,156) scale(0.1,-0.1)" stroke="none" fill="#806379"/>

<path d="M942 1032 c-18 -18 -19 -25 -9 -66 9 -40 14 -46 37 -46 14 0 30 -4 36 -9 5 -5 19 -12 31 -15 16 -5 23 -2 28 14 5 17 13 20 38 18 27 -3 32 -8 38 -38 6 -27 2 -44 -14 -75 -19 -35 -27 -40 -61 -43 -32 -3 -44 2 -71 28 -44 42 -51 24 -17 -43 19 -41 32 -56 47 -55 15 0 16 1 4 5 -14 3 -28 30 -29 53 0 3 18 4 39 2 36 -4 40 -6 39 -33 -1 -17 -7 -30 -17 -32 -13 -4 -13 -5 2 -6 10 -1 21 9 27 24 7 19 19 26 51 31 34 6 38 9 24 17 -13 7 -24 6 -36 -2 -31 -18 -30 -13 2 39 25 42 30 56 24 88 -3 20 -15 48 -26 61 -18 21 -23 23 -40 13 -11 -7 -23 -10 -28 -8 -4 3 -7 -5 -7 -17 1 -26 -33 -36 -46 -13 -5 9 -18 16 -28 16 -11 0 -24 9 -30 21 -25 47 8 93 52 72 13 -7 38 -15 56 -18 18 -4 30 -11 27 -16 -4 -5 0 -6 7 -4 8 3 32 -10 53 -30 22 -19 47 -35 55 -34 8 0 4 5 -9 10 -17 7 -22 15 -18 29 7 28 -40 62 -90 65 -21 1 -57 5 -79 9 -35 7 -45 5 -62 -12z" transform="translate(0,156) scale(0.1,-0.1)" stroke="none" fill="#B9CF64"/>

<path d="M779 1285 l-4 -80 -57 -6 c-69 -8 -142 -48 -169 -94 -11 -18 -34 -38 -52 -45 -18 -7 -70 -30 -117 -52 -83 -40 -104 -44 -228 -47 -48 -1 -53 -3 -50 -22 2 -14 31 -39 84 -72 45 -29 101 -67 124 -84 24 -18 50 -33 59 -33 24 -1 44 -20 76 -70 35 -56 42 -61 85 -59 19 0 40 1 47 0 6 -1 38 -24 69 -51 56 -49 134 -105 157 -113 8 -2 2 -25 -16 -68 -15 -35 -27 -71 -27 -80 0 -9 13 -40 30 -70 16 -30 37 -76 46 -102 9 -27 22 -51 30 -54 19 -7 77 32 147 101 33 32 66 56 78 56 22 0 164 83 176 103 4 6 -7 1 -24 -11 -17 -12 -34 -22 -38 -22 -3 0 -26 -13 -50 -30 -61 -42 -85 -39 -115 11 -14 23 -39 58 -56 78 -17 20 -41 56 -55 81 -37 71 -48 81 -73 68 -11 -6 -27 -17 -34 -25 -22 -21 -46 -15 -98 24 -119 90 -185 170 -206 249 -10 37 -9 51 6 94 14 38 16 64 11 109 -12 107 41 180 154 211 23 6 46 8 51 5 18 -11 48 15 53 47 3 18 2 56 -2 83 -8 49 -8 49 -12 -30z" transform="translate(0,156) scale(0.1,-0.1)" stroke="none" fill="#B9CF64"/>

<path d="M804 1448 c-13 -24 -17 -50 -14 -98 6 -116 3 -143 -16 -157 -10 -7 -25 -11 -32 -8 -21 8 -90 -13 -134 -41 -57 -36 -82 -97 -73 -175 5 -45 3 -71 -11 -109 -15 -43 -16 -57 -6 -94 21 -79 87 -159 206 -249 52 -39 76 -45 98 -24 7 8 23 19 34 25 25 13 36 3 73 -68 14 -25 38 -61 55 -81 17 -20 42 -55 56 -78 29 -50 54 -53 113 -13 23 15 55 34 71 42 16 8 51 35 78 58 44 41 48 47 48 90 0 48 -15 85 -85 207 -19 33 -35 68 -35 78 0 19 -15 23 -25 7 -3 -5 -19 -10 -35 -10 -43 0 -77 -16 -83 -40 -5 -19 -10 -20 -44 -14 -21 4 -38 7 -38 8 0 0 -12 24 -27 52 -20 39 -26 63 -25 107 1 32 -1 57 -4 57 -3 0 -10 21 -16 46 -10 41 -9 48 9 66 17 17 27 19 62 12 22 -4 58 -8 79 -9 49 -3 97 -37 90 -64 -4 -16 3 -23 31 -35 40 -16 47 -35 17 -43 -53 -14 -14 -72 60 -91 225 -56 273 -38 183 71 l-47 57 18 58 c9 31 19 69 22 84 6 30 -36 179 -69 246 -21 42 -23 44 -57 37 -20 -3 -63 -10 -96 -14 -34 -5 -90 -20 -125 -34 -35 -14 -67 -24 -72 -21 -5 3 -22 30 -39 59 -35 61 -100 119 -146 129 -29 7 -33 4 -49 -26z" transform="translate(0,156) scale(0.1,-0.1)" stroke="none" fill="#B7AFCE"/>

</g>

<g id="3" transform="translate(0,468.0)scale(0.8,0.8)">

<path d="M1410 1272 c0 -6 12 -46 26 -89 27 -83 27 -104 -1 -195 l-18 -58 47 -57 c60 -72 59 -96 -4 -104 l-45 -6 52 -1 c77 -3 77 30 1 120 -45 54 -45 53 -1 172 13 37 12 44 -18 130 -32 93 -39 108 -39 88z" transform="translate(0,156) scale(0.1,-0.1)" stroke="none" fill="#B9CF64"/>

<path d="M807 1473 c-9 -11 -19 -35 -22 -54 l-6 -34 15 39 c8 21 18 42 23 47 31 31 142 -51 196 -145 21 -37 31 -46 45 -41 77 33 150 55 185 56 39 1 40 1 14 9 -31 10 -106 -9 -171 -42 -39 -20 -40 -20 -54 -2 -8 11 -20 33 -28 50 -7 17 -32 52 -56 79 -35 38 -51 48 -83 52 -31 3 -45 0 -58 -14z" transform="translate(0,156) scale(0.1,-0.1)" stroke="none" fill="#B9CF64"/>

<path d="M1070 923 c0 -4 -4 -14 -9 -22 -7 -11 -15 -10 -45 4 -48 23 -66 15 -66 -30 0 -27 8 -42 38 -70 31 -30 43 -35 77 -33 35 3 42 8 62 43 16 31 20 48 14 75 -6 30 -11 35 -39 38 -18 2 -32 0 -32 -5z m30 -33 c0 -5 -4 -10 -10 -10 -5 0 -10 5 -10 10 0 6 5 10 10 10 6 0 10 -4 10 -10z" transform="translate(0,156) scale(0.1,-0.1)" stroke="none" fill="#806379"/>

<path d="M942 1032 c-18 -18 -19 -25 -9 -66 9 -40 14 -46 37 -46 14 0 30 -4 36 -9 5 -5 19 -12 31 -15 16 -5 23 -2 28 14 5 17 13 20 38 18 27 -3 32 -8 38 -38 6 -27 2 -44 -14 -75 -19 -35 -27 -40 -61 -43 -32 -3 -44 2 -71 28 -44 42 -51 24 -17 -43 19 -41 32 -56 47 -55 15 0 16 1 4 5 -14 3 -28 30 -29 53 0 3 18 4 39 2 36 -4 40 -6 39 -33 -1 -17 -7 -30 -17 -32 -13 -4 -13 -5 2 -6 10 -1 21 9 27 24 7 19 19 26 51 31 34 6 38 9 24 17 -13 7 -24 6 -36 -2 -31 -18 -30 -13 2 39 25 42 30 56 24 88 -3 20 -15 48 -26 61 -18 21 -23 23 -40 13 -11 -7 -23 -10 -28 -8 -4 3 -7 -5 -7 -17 1 -26 -33 -36 -46 -13 -5 9 -18 16 -28 16 -11 0 -24 9 -30 21 -25 47 8 93 52 72 13 -7 38 -15 56 -18 18 -4 30 -11 27 -16 -4 -5 0 -6 7 -4 8 3 32 -10 53 -30 22 -19 47 -35 55 -34 8 0 4 5 -9 10 -17 7 -22 15 -18 29 7 28 -40 62 -90 65 -21 1 -57 5 -79 9 -35 7 -45 5 -62 -12z" transform="translate(0,156) scale(0.1,-0.1)" stroke="none" fill="#B9CF64"/>

<path d="M779 1285 l-4 -80 -57 -6 c-69 -8 -142 -48 -169 -94 -11 -18 -34 -38 -52 -45 -18 -7 -70 -30 -117 -52 -83 -40 -104 -44 -228 -47 -48 -1 -53 -3 -50 -22 2 -14 31 -39 84 -72 45 -29 101 -67 124 -84 24 -18 50 -33 59 -33 24 -1 44 -20 76 -70 35 -56 42 -61 85 -59 19 0 40 1 47 0 6 -1 38 -24 69 -51 56 -49 134 -105 157 -113 8 -2 2 -25 -16 -68 -15 -35 -27 -71 -27 -80 0 -9 13 -40 30 -70 16 -30 37 -76 46 -102 9 -27 22 -51 30 -54 19 -7 77 32 147 101 33 32 66 56 78 56 22 0 164 83 176 103 4 6 -7 1 -24 -11 -17 -12 -34 -22 -38 -22 -3 0 -26 -13 -50 -30 -61 -42 -85 -39 -115 11 -14 23 -39 58 -56 78 -17 20 -41 56 -55 81 -37 71 -48 81 -73 68 -11 -6 -27 -17 -34 -25 -22 -21 -46 -15 -98 24 -119 90 -185 170 -206 249 -10 37 -9 51 6 94 14 38 16 64 11 109 -12 107 41 180 154 211 23 6 46 8 51 5 18 -11 48 15 53 47 3 18 2 56 -2 83 -8 49 -8 49 -12 -30z" transform="translate(0,156) scale(0.1,-0.1)" stroke="none" fill="#B9CF64"/>

<path d="M804 1448 c-13 -24 -17 -50 -14 -98 6 -116 3 -143 -16 -157 -10 -7 -25 -11 -32 -8 -21 8 -90 -13 -134 -41 -57 -36 -82 -97 -73 -175 5 -45 3 -71 -11 -109 -15 -43 -16 -57 -6 -94 21 -79 87 -159 206 -249 52 -39 76 -45 98 -24 7 8 23 19 34 25 25 13 36 3 73 -68 14 -25 38 -61 55 -81 17 -20 42 -55 56 -78 29 -50 54 -53 113 -13 23 15 55 34 71 42 16 8 51 35 78 58 44 41 48 47 48 90 0 48 -15 85 -85 207 -19 33 -35 68 -35 78 0 19 -15 23 -25 7 -3 -5 -19 -10 -35 -10 -43 0 -77 -16 -83 -40 -5 -19 -10 -20 -44 -14 -21 4 -38 7 -38 8 0 0 -12 24 -27 52 -20 39 -26 63 -25 107 1 32 -1 57 -4 57 -3 0 -10 21 -16 46 -10 41 -9 48 9 66 17 17 27 19 62 12 22 -4 58 -8 79 -9 49 -3 97 -37 90 -64 -4 -16 3 -23 31 -35 40 -16 47 -35 17 -43 -53 -14 -14 -72 60 -91 225 -56 273 -38 183 71 l-47 57 18 58 c9 31 19 69 22 84 6 30 -36 179 -69 246 -21 42 -23 44 -57 37 -20 -3 -63 -10 -96 -14 -34 -5 -90 -20 -125 -34 -35 -14 -67 -24 -72 -21 -5 3 -22 30 -39 59 -35 61 -100 119 -146 129 -29 7 -33 4 -49 -26z" transform="translate(0,156) scale(0.1,-0.1)" stroke="none" fill="#B7AFCE"/>

</g>

<g id="4" transform="translate(0,624.0)scale(0.8,0.8)">

<path d="M1410 1272 c0 -6 12 -46 26 -89 27 -83 27 -104 -1 -195 l-18 -58 47 -57 c60 -72 59 -96 -4 -104 l-45 -6 52 -1 c77 -3 77 30 1 120 -45 54 -45 53 -1 172 13 37 12 44 -18 130 -32 93 -39 108 -39 88z" transform="translate(0,156) scale(0.1,-0.1)" stroke="none" fill="#B9CF64"/>

<path d="M807 1473 c-9 -11 -19 -35 -22 -54 l-6 -34 15 39 c8 21 18 42 23 47 31 31 142 -51 196 -145 21 -37 31 -46 45 -41 77 33 150 55 185 56 39 1 40 1 14 9 -31 10 -106 -9 -171 -42 -39 -20 -40 -20 -54 -2 -8 11 -20 33 -28 50 -7 17 -32 52 -56 79 -35 38 -51 48 -83 52 -31 3 -45 0 -58 -14z" transform="translate(0,156) scale(0.1,-0.1)" stroke="none" fill="#B9CF64"/>

<path d="M1070 923 c0 -4 -4 -14 -9 -22 -7 -11 -15 -10 -45 4 -48 23 -66 15 -66 -30 0 -27 8 -42 38 -70 31 -30 43 -35 77 -33 35 3 42 8 62 43 16 31 20 48 14 75 -6 30 -11 35 -39 38 -18 2 -32 0 -32 -5z m30 -33 c0 -5 -4 -10 -10 -10 -5 0 -10 5 -10 10 0 6 5 10 10 10 6 0 10 -4 10 -10z" transform="translate(0,156) scale(0.1,-0.1)" stroke="none" fill="#806379"/>

<path d="M942 1032 c-18 -18 -19 -25 -9 -66 9 -40 14 -46 37 -46 14 0 30 -4 36 -9 5 -5 19 -12 31 -15 16 -5 23 -2 28 14 5 17 13 20 38 18 27 -3 32 -8 38 -38 6 -27 2 -44 -14 -75 -19 -35 -27 -40 -61 -43 -32 -3 -44 2 -71 28 -44 42 -51 24 -17 -43 19 -41 32 -56 47 -55 15 0 16 1 4 5 -14 3 -28 30 -29 53 0 3 18 4 39 2 36 -4 40 -6 39 -33 -1 -17 -7 -30 -17 -32 -13 -4 -13 -5 2 -6 10 -1 21 9 27 24 7 19 19 26 51 31 34 6 38 9 24 17 -13 7 -24 6 -36 -2 -31 -18 -30 -13 2 39 25 42 30 56 24 88 -3 20 -15 48 -26 61 -18 21 -23 23 -40 13 -11 -7 -23 -10 -28 -8 -4 3 -7 -5 -7 -17 1 -26 -33 -36 -46 -13 -5 9 -18 16 -28 16 -11 0 -24 9 -30 21 -25 47 8 93 52 72 13 -7 38 -15 56 -18 18 -4 30 -11 27 -16 -4 -5 0 -6 7 -4 8 3 32 -10 53 -30 22 -19 47 -35 55 -34 8 0 4 5 -9 10 -17 7 -22 15 -18 29 7 28 -40 62 -90 65 -21 1 -57 5 -79 9 -35 7 -45 5 -62 -12z" transform="translate(0,156) scale(0.1,-0.1)" stroke="none" fill="#B9CF64"/>

<path d="M779 1285 l-4 -80 -57 -6 c-69 -8 -142 -48 -169 -94 -11 -18 -34 -38 -52 -45 -18 -7 -70 -30 -117 -52 -83 -40 -104 -44 -228 -47 -48 -1 -53 -3 -50 -22 2 -14 31 -39 84 -72 45 -29 101 -67 124 -84 24 -18 50 -33 59 -33 24 -1 44 -20 76 -70 35 -56 42 -61 85 -59 19 0 40 1 47 0 6 -1 38 -24 69 -51 56 -49 134 -105 157 -113 8 -2 2 -25 -16 -68 -15 -35 -27 -71 -27 -80 0 -9 13 -40 30 -70 16 -30 37 -76 46 -102 9 -27 22 -51 30 -54 19 -7 77 32 147 101 33 32 66 56 78 56 22 0 164 83 176 103 4 6 -7 1 -24 -11 -17 -12 -34 -22 -38 -22 -3 0 -26 -13 -50 -30 -61 -42 -85 -39 -115 11 -14 23 -39 58 -56 78 -17 20 -41 56 -55 81 -37 71 -48 81 -73 68 -11 -6 -27 -17 -34 -25 -22 -21 -46 -15 -98 24 -119 90 -185 170 -206 249 -10 37 -9 51 6 94 14 38 16 64 11 109 -12 107 41 180 154 211 23 6 46 8 51 5 18 -11 48 15 53 47 3 18 2 56 -2 83 -8 49 -8 49 -12 -30z" transform="translate(0,156) scale(0.1,-0.1)" stroke="none" fill="#B9CF64"/>

<path d="M804 1448 c-13 -24 -17 -50 -14 -98 6 -116 3 -143 -16 -157 -10 -7 -25 -11 -32 -8 -21 8 -90 -13 -134 -41 -57 -36 -82 -97 -73 -175 5 -45 3 -71 -11 -109 -15 -43 -16 -57 -6 -94 21 -79 87 -159 206 -249 52 -39 76 -45 98 -24 7 8 23 19 34 25 25 13 36 3 73 -68 14 -25 38 -61 55 -81 17 -20 42 -55 56 -78 29 -50 54 -53 113 -13 23 15 55 34 71 42 16 8 51 35 78 58 44 41 48 47 48 90 0 48 -15 85 -85 207 -19 33 -35 68 -35 78 0 19 -15 23 -25 7 -3 -5 -19 -10 -35 -10 -43 0 -77 -16 -83 -40 -5 -19 -10 -20 -44 -14 -21 4 -38 7 -38 8 0 0 -12 24 -27 52 -20 39 -26 63 -25 107 1 32 -1 57 -4 57 -3 0 -10 21 -16 46 -10 41 -9 48 9 66 17 17 27 19 62 12 22 -4 58 -8 79 -9 49 -3 97 -37 90 -64 -4 -16 3 -23 31 -35 40 -16 47 -35 17 -43 -53 -14 -14 -72 60 -91 225 -56 273 -38 183 71 l-47 57 18 58 c9 31 19 69 22 84 6 30 -36 179 -69 246 -21 42 -23 44 -57 37 -20 -3 -63 -10 -96 -14 -34 -5 -90 -20 -125 -34 -35 -14 -67 -24 -72 -21 -5 3 -22 30 -39 59 -35 61 -100 119 -146 129 -29 7 -33 4 -49 -26z" transform="translate(0,156) scale(0.1,-0.1)" stroke="none" fill="#B7AFCE"/>

</g>

</g>
</svg>