<?xml version="1.0" standalone="no"?>
<!DOCTYPE svg PUBLIC "-//W3C//DTD SVG 20010904//EN"
 "http://www.w3.org/TR/2001/REC-SVG-20010904/DTD/svg10.dtd">
<svg version="1.0" xmlns="http://www.w3.org/2000/svg" width="408pt" height="380pt" viewBox="0 0 408 380" preserveAspectRatio = "xMidYMid meet" >
<metadata>
Created by ZoeQu, written in 2022
</metadata>
<rect width="408" height="380" fill="#A4D7DC"/>
<g id="col0" transform="translate(0, 12)">
<g id="0" transform="translate(0,0.0)scale(0.8,0.8)">

<path d="M412 738 c-7 -7 -12 -19 -12 -28 0 -41 61 -55 80 -19 21 38 -37 78 -68 47z" transform="translate(0,95) scale(0.1,-0.1)" stroke="none" fill="#EA9D28"/>

<path d="M714 525 c-29 -29 -26 -58 8 -87 27 -23 53 -23 78 2 27 27 26 75 -2 94 -32 22 -55 20 -84 -9z" transform="translate(0,95) scale(0.1,-0.1)" stroke="none" fill="#EA9D28"/>

<path d="M313 385 c-34 -24 -30 -69 7 -107 28 -28 36 -30 80 -26 28 3 54 0 61 -6 9 -8 10 -7 6 6 -3 10 0 19 9 22 31 12 12 58 -36 88 -59 36 -99 43 -127 23z" transform="translate(0,95) scale(0.1,-0.1)" stroke="none" fill="#EA9D28"/>

<path d="M323 890 c-29 -12 -29 -19 3 -81 14 -28 24 -52 22 -54 -2 -1 -27 4 -56 11 -30 8 -58 12 -63 8 -5 -3 -9 -32 -9 -65 0 -74 20 -99 80 -99 43 0 45 -2 30 -30 -15 -28 -2 -49 49 -75 39 -19 43 -25 27 -31 -10 -4 -46 -2 -80 5 -49 10 -68 10 -89 0 -37 -17 -34 -38 10 -77 34 -30 36 -33 13 -28 -64 15 -190 29 -196 23 -14 -13 -4 -79 15 -111 42 -68 66 -81 142 -80 68 2 69 1 63 -22 -18 -72 215 -174 270 -118 9 8 16 18 16 21 0 4 -18 30 -40 59 -22 29 -40 56 -40 60 0 4 -9 17 -20 29 -17 18 -29 21 -70 17 -44 -4 -52 -2 -80 26 -39 39 -41 84 -5 108 31 20 68 13 129 -26 49 -31 62 -70 30 -88 -13 -7 -3 -18 53 -55 113 -75 158 -85 192 -41 12 15 21 38 21 52 0 23 14 86 28 122 3 9 8 1 12 -20 3 -20 11 -34 18 -32 7 1 12 -9 12 -23 0 -36 20 -31 92 23 74 55 83 83 44 129 -14 17 -39 36 -56 43 l-30 13 25 23 c36 33 31 62 -17 111 -48 49 -56 51 -86 23 l-22 -21 -25 28 c-13 15 -25 31 -25 34 0 14 -32 19 -51 9 -13 -8 -19 -7 -19 0 0 6 -17 18 -37 27 l-38 16 32 7 c34 8 63 26 63 41 0 15 -66 83 -99 102 l-32 18 -29 -31 c-20 -21 -30 -27 -30 -17 0 41 -84 62 -147 37z m151 -159 c14 -15 15 -24 6 -40 -19 -36 -80 -22 -80 19 0 39 46 52 74 21z m113 -126 c24 -25 43 -47 43 -49 0 -15 -45 12 -64 38 -53 71 -42 77 21 11z m211 -71 c28 -19 29 -67 2 -94 -25 -25 -51 -25 -78 -2 -34 29 -37 58 -8 87 29 29 52 31 84 9z m-166 -170 c-4 -22 -9 -24 -68 -24 -35 0 -64 3 -64 7 0 4 9 16 19 27 16 17 29 20 69 18 46 -3 49 -5 44 -28z" transform="translate(0,95) scale(0.1,-0.1)" stroke="none" fill="#43682B"/>

</g>

<g id="1" transform="translate(0,95.0)scale(0.8,0.8)">

<path d="M412 738 c-7 -7 -12 -19 -12 -28 0 -41 61 -55 80 -19 21 38 -37 78 -68 47z" transform="translate(0,95) scale(0.1,-0.1)" stroke="none" fill="#EA9D28"/>

<path d="M714 525 c-29 -29 -26 -58 8 -87 27 -23 53 -23 78 2 27 27 26 75 -2 94 -32 22 -55 20 -84 -9z" transform="translate(0,95) scale(0.1,-0.1)" stroke="none" fill="#EA9D28"/>

<path d="M313 385 c-34 -24 -30 -69 7 -107 28 -28 36 -30 80 -26 28 3 54 0 61 -6 9 -8 10 -7 6 6 -3 10 0 19 9 22 31 12 12 58 -36 88 -59 36 -99 43 -127 23z" transform="translate(0,95) scale(0.1,-0.1)" stroke="none" fill="#EA9D28"/>

<path d="M323 890 c-29 -12 -29 -19 3 -81 14 -28 24 -52 22 -54 -2 -1 -27 4 -56 11 -30 8 -58 12 -63 8 -5 -3 -9 -32 -9 -65 0 -74 20 -99 80 -99 43 0 45 -2 30 -30 -15 -28 -2 -49 49 -75 39 -19 43 -25 27 -31 -10 -4 -46 -2 -80 5 -49 10 -68 10 -89 0 -37 -17 -34 -38 10 -77 34 -30 36 -33 13 -28 -64 15 -190 29 -196 23 -14 -13 -4 -79 15 -111 42 -68 66 -81 142 -80 68 2 69 1 63 -22 -18 -72 215 -174 270 -118 9 8 16 18 16 21 0 4 -18 30 -40 59 -22 29 -40 56 -40 60 0 4 -9 17 -20 29 -17 18 -29 21 -70 17 -44 -4 -52 -2 -80 26 -39 39 -41 84 -5 108 31 20 68 13 129 -26 49 -31 62 -70 30 -88 -13 -7 -3 -18 53 -55 113 -75 158 -85 192 -41 12 15 21 38 21 52 0 23 14 86 28 122 3 9 8 1 12 -20 3 -20 11 -34 18 -32 7 1 12 -9 12 -23 0 -36 20 -31 92 23 74 55 83 83 44 129 -14 17 -39 36 -56 43 l-30 13 25 23 c36 33 31 62 -17 111 -48 49 -56 51 -86 23 l-22 -21 -25 28 c-13 15 -25 31 -25 34 0 14 -32 19 -51 9 -13 -8 -19 -7 -19 0 0 6 -17 18 -37 27 l-38 16 32 7 c34 8 63 26 63 41 0 15 -66 83 -99 102 l-32 18 -29 -31 c-20 -21 -30 -27 -30 -17 0 41 -84 62 -147 37z m151 -159 c14 -15 15 -24 6 -40 -19 -36 -80 -22 -80 19 0 39 46 52 74 21z m113 -126 c24 -25 43 -47 43 -49 0 -15 -45 12 -64 38 -53 71 -42 77 21 11z m211 -71 c28 -19 29 -67 2 -94 -25 -25 -51 -25 -78 -2 -34 29 -37 58 -8 87 29 29 52 31 84 9z m-166 -170 c-4 -22 -9 -24 -68 -24 -35 0 -64 3 -64 7 0 4 9 16 19 27 16 17 29 20 69 18 46 -3 49 -5 44 -28z" transform="translate(0,95) scale(0.1,-0.1)" stroke="none" fill="#43682B"/>

</g>

<g id="2" transform="translate(0,190.0)scale(0.8,0.8)">

<path d="M412 738 c-7 -7 -12 -19 -12 -28 0 -41 61 -55 80 -19 21 38 -37 78 -68 47z" transform="translate(0,95) scale(0.1,-0.1)" stroke="none" fill="#EA9D28"/>

<path d="M714 525 c-29 -29 -26 -58 8 -87 27 -23 53 -23 78 2 27 27 26 75 -2 94 -32 22 -55 20 -84 -9z" transform="translate(0,95) scale(0.1,-0.1)" stroke="none" fill="#EA9D28"/>

<path d="M313 385 c-34 -24 -30 -69 7 -107 28 -28 36 -30 80 -26 28 3 54 0 61 -6 9 -8 10 -7 6 6 -3 10 0 19 9 22 31 12 12 58 -36 88 -59 36 -99 43 -127 23z" transform="translate(0,95) scale(0.1,-0.1)" stroke="none" fill="#EA9D28"/>

<path d="M323 890 c-29 -12 -29 -19 3 -81 14 -28 24 -52 22 -54 -2 -1 -27 4 -56 11 -30 8 -58 12 -63 8 -5 -3 -9 -32 -9 -65 0 -74 20 -99 80 -99 43 0 45 -2 30 -30 -15 -28 -2 -49 49 -75 39 -19 43 -25 27 -31 -10 -4 -46 -2 -80 5 -49 10 -68 10 -89 0 -37 -17 -34 -38 10 -77 34 -30 36 -33 13 -28 -64 15 -190 29 -196 23 -14 -13 -4 -79 15 -111 42 -68 66 -81 142 -80 68 2 69 1 63 -22 -18 -72 215 -174 270 -118 9 8 16 18 16 21 0 4 -18 30 -40 59 -22 29 -40 56 -40 60 0 4 -9 17 -20 29 -17 18 -29 21 -70 17 -44 -4 -52 -2 -80 26 -39 39 -41 84 -5 108 31 20 68 13 129 -26 49 -31 62 -70 30 -88 -13 -7 -3 -18 53 -55 113 -75 158 -85 192 -41 12 15 21 38 21 52 0 23 14 86 28 122 3 9 8 1 12 -20 3 -20 11 -34 18 -32 7 1 12 -9 12 -23 0 -36 20 -31 92 23 74 55 83 83 44 129 -14 17 -39 36 -56 43 l-30 13 25 23 c36 33 31 62 -17 111 -48 49 -56 51 -86 23 l-22 -21 -25 28 c-13 15 -25 31 -25 34 0 14 -32 19 -51 9 -13 -8 -19 -7 -19 0 0 6 -17 18 -37 27 l-38 16 32 7 c34 8 63 26 63 41 0 15 -66 83 -99 102 l-32 18 -29 -31 c-20 -21 -30 -27 -30 -17 0 41 -84 62 -147 37z m151 -159 c14 -15 15 -24 6 -40 -19 -36 -80 -22 -80 19 0 39 46 52 74 21z m113 -126 c24 -25 43 -47 43 -49 0 -15 -45 12 -64 38 -53 71 -42 77 21 11z m211 -71 c28 -19 29 -67 2 -94 -25 -25 -51 -25 -78 -2 -34 29 -37 58 -8 87 29 29 52 31 84 9z m-166 -170 c-4 -22 -9 -24 -68 -24 -35 0 -64 3 -64 7 0 4 9 16 19 27 16 17 29 20 69 18 46 -3 49 -5 44 -28z" transform="translate(0,95) scale(0.1,-0.1)" stroke="none" fill="#43682B"/>

</g>

<g id="3" transform="translate(0,285.0)scale(0.8,0.8)">

<path d="M412 738 c-7 -7 -12 -19 -12 -28 0 -41 61 -55 80 -19 21 38 -37 78 -68 47z" transform="translate(0,95) scale(0.1,-0.1)" stroke="none" fill="#EA9D28"/>

<path d="M714 525 c-29 -29 -26 -58 8 -87 27 -23 53 -23 78 2 27 27 26 75 -2 94 -32 22 -55 20 -84 -9z" transform="translate(0,95) scale(0.1,-0.1)" stroke="none" fill="#EA9D28"/>

<path d="M313 385 c-34 -24 -30 -69 7 -107 28 -28 36 -30 80 -26 28 3 54 0 61 -6 9 -8 10 -7 6 6 -3 10 0 19 9 22 31 12 12 58 -36 88 -59 36 -99 43 -127 23z" transform="translate(0,95) scale(0.1,-0.1)" stroke="none" fill="#EA9D28"/>

<path d="M323 890 c-29 -12 -29 -19 3 -81 14 -28 24 -52 22 -54 -2 -1 -27 4 -56 11 -30 8 -58 12 -63 8 -5 -3 -9 -32 -9 -65 0 -74 20 -99 80 -99 43 0 45 -2 30 -30 -15 -28 -2 -49 49 -75 39 -19 43 -25 27 -31 -10 -4 -46 -2 -80 5 -49 10 -68 10 -89 0 -37 -17 -34 -38 10 -77 34 -30 36 -33 13 -28 -64 15 -190 29 -196 23 -14 -13 -4 -79 15 -111 42 -68 66 -81 142 -80 68 2 69 1 63 -22 -18 -72 215 -174 270 -118 9 8 16 18 16 21 0 4 -18 30 -40 59 -22 29 -40 56 -40 60 0 4 -9 17 -20 29 -17 18 -29 21 -70 17 -44 -4 -52 -2 -80 26 -39 39 -41 84 -5 108 31 20 68 13 129 -26 49 -31 62 -70 30 -88 -13 -7 -3 -18 53 -55 113 -75 158 -85 192 -41 12 15 21 38 21 52 0 23 14 86 28 122 3 9 8 1 12 -20 3 -20 11 -34 18 -32 7 1 12 -9 12 -23 0 -36 20 -31 92 23 74 55 83 83 44 129 -14 17 -39 36 -56 43 l-30 13 25 23 c36 33 31 62 -17 111 -48 49 -56 51 -86 23 l-22 -21 -25 28 c-13 15 -25 31 -25 34 0 14 -32 19 -51 9 -13 -8 -19 -7 -19 0 0 6 -17 18 -37 27 l-38 16 32 7 c34 8 63 26 63 41 0 15 -66 83 -99 102 l-32 18 -29 -31 c-20 -21 -30 -27 -30 -17 0 41 -84 62 -147 37z m151 -159 c14 -15 15 -24 6 -40 -19 -36 -80 -22 -80 19 0 39 46 52 74 21z m113 -126 c24 -25 43 -47 43 -49 0 -15 -45 12 -64 38 -53 71 -42 77 21 11z m211 -71 c28 -19 29 -67 2 -94 -25 -25 -51 -25 -78 -2 -34 29 -37 58 -8 87 29 29 52 31 84 9z m-166 -170 c-4 -22 -9 -24 -68 -24 -35 0 -64 3 -64 7 0 4 9 16 19 27 16 17 29 20 69 18 46 -3 49 -5 44 -28z" transform="translate(0,95) scale(0.1,-0.1)" stroke="none" fill="#43682B"/>

</g>

<g id="4" transform="translate(0,380.0)scale(0.8,0.8)">

<path d="M412 738 c-7 -7 -12 -19 -12 -28 0 -41 61 -55 80 -19 21 38 -37 78 -68 47z" transform="translate(0,95) scale(0.1,-0.1)" stroke="none" fill="#EA9D28"/>

<path d="M714 525 c-29 -29 -26 -58 8 -87 27 -23 53 -23 78 2 27 27 26 75 -2 94 -32 22 -55 20 -84 -9z" transform="translate(0,95) scale(0.1,-0.1)" stroke="none" fill="#EA9D28"/>

<path d="M313 385 c-34 -24 -30 -69 7 -107 28 -28 36 -30 80 -26 28 3 54 0 61 -6 9 -8 10 -7 6 6 -3 10 0 19 9 22 31 12 12 58 -36 88 -59 36 -99 43 -127 23z" transform="translate(0,95) scale(0.1,-0.1)" stroke="none" fill="#EA9D28"/>

<path d="M323 890 c-29 -12 -29 -19 3 -81 14 -28 24 -52 22 -54 -2 -1 -27 4 -56 11 -30 8 -58 12 -63 8 -5 -3 -9 -32 -9 -65 0 -74 20 -99 80 -99 43 0 45 -2 30 -30 -15 -28 -2 -49 49 -75 39 -19 43 -25 27 -31 -10 -4 -46 -2 -80 5 -49 10 -68 10 -89 0 -37 -17 -34 -38 10 -77 34 -30 36 -33 13 -28 -64 15 -190 29 -196 23 -14 -13 -4 -79 15 -111 42 -68 66 -81 142 -80 68 2 69 1 63 -22 -18 -72 215 -174 270 -118 9 8 16 18 16 21 0 4 -18 30 -40 59 -22 29 -40 56 -40 60 0 4 -9 17 -20 29 -17 18 -29 21 -70 17 -44 -4 -52 -2 -80 26 -39 39 -41 84 -5 108 31 20 68 13 129 -26 49 -31 62 -70 30 -88 -13 -7 -3 -18 53 -55 113 -75 158 -85 192 -41 12 15 21 38 21 52 0 23 14 86 28 122 3 9 8 1 12 -20 3 -20 11 -34 18 -32 7 1 12 -9 12 -23 0 -36 20 -31 92 23 74 55 83 83 44 129 -14 17 -39 36 -56 43 l-30 13 25 23 c36 33 31 62 -17 111 -48 49 -56 51 -86 23 l-22 -21 -25 28 c-13 15 -25 31 -25 34 0 14 -32 19 -51 9 -13 -8 -19 -7 -19 0 0 6 -17 18 -37 27 l-38 16 32 7 c34 8 63 26 63 41 0 15 -66 83 -99 102 l-32 18 -29 -31 c-20 -21 -30 -27 -30 -17 0 41 -84 62 -147 37z m151 -159 c14 -15 15 -24 6 -40 -19 -36 -80 -22 -80 19 0 39 46 52 74 21z m113 -126 c24 -25 43 -47 43 -49 0 -15 -45 12 -64 38 -53 71 -42 77 21 11z m211 -71 c28 -19 29 -67 2 -94 -25 -25 -51 -25 -78 -2 -34 29 -37 58 -8 87 29 29 52 31 84 9z m-166 -170 c-4 -22 -9 -24 -68 -24 -35 0 -64 3 -64 7 0 4 9 16 19 27 16 17 29 20 69 18 46 -3 49 -5 44 -28z" transform="translate(0,95) scale(0.1,-0.1)" stroke="none" fill="#43682B"/>

</g>

</g>
<g id="col1" transform="translate(102, -35.5)">
<g id="0" transform="translate(0,0.0)scale(0.8,0.8)">

<path d="M412 738 c-7 -7 -12 -19 -12 -28 0 -41 61 -55 80 -19 21 38 -37 78 -68 47z" transform="translate(0,95) scale(0.1,-0.1)" stroke="none" fill="#EA9D28"/>

<path d="M714 525 c-29 -29 -26 -58 8 -87 27 -23 53 -23 78 2 27 27 26 75 -2 94 -32 22 -55 20 -84 -9z" transform="translate(0,95) scale(0.1,-0.1)" stroke="none" fill="#EA9D28"/>

<path d="M313 385 c-34 -24 -30 -69 7 -107 28 -28 36 -30 80 -26 28 3 54 0 61 -6 9 -8 10 -7 6 6 -3 10 0 19 9 22 31 12 12 58 -36 88 -59 36 -99 43 -127 23z" transform="translate(0,95) scale(0.1,-0.1)" stroke="none" fill="#EA9D28"/>

<path d="M323 890 c-29 -12 -29 -19 3 -81 14 -28 24 -52 22 -54 -2 -1 -27 4 -56 11 -30 8 -58 12 -63 8 -5 -3 -9 -32 -9 -65 0 -74 20 -99 80 -99 43 0 45 -2 30 -30 -15 -28 -2 -49 49 -75 39 -19 43 -25 27 -31 -10 -4 -46 -2 -80 5 -49 10 -68 10 -89 0 -37 -17 -34 -38 10 -77 34 -30 36 -33 13 -28 -64 15 -190 29 -196 23 -14 -13 -4 -79 15 -111 42 -68 66 -81 142 -80 68 2 69 1 63 -22 -18 -72 215 -174 270 -118 9 8 16 18 16 21 0 4 -18 30 -40 59 -22 29 -40 56 -40 60 0 4 -9 17 -20 29 -17 18 -29 21 -70 17 -44 -4 -52 -2 -80 26 -39 39 -41 84 -5 108 31 20 68 13 129 -26 49 -31 62 -70 30 -88 -13 -7 -3 -18 53 -55 113 -75 158 -85 192 -41 12 15 21 38 21 52 0 23 14 86 28 122 3 9 8 1 12 -20 3 -20 11 -34 18 -32 7 1 12 -9 12 -23 0 -36 20 -31 92 23 74 55 83 83 44 129 -14 17 -39 36 -56 43 l-30 13 25 23 c36 33 31 62 -17 111 -48 49 -56 51 -86 23 l-22 -21 -25 28 c-13 15 -25 31 -25 34 0 14 -32 19 -51 9 -13 -8 -19 -7 -19 0 0 6 -17 18 -37 27 l-38 16 32 7 c34 8 63 26 63 41 0 15 -66 83 -99 102 l-32 18 -29 -31 c-20 -21 -30 -27 -30 -17 0 41 -84 62 -147 37z m151 -159 c14 -15 15 -24 6 -40 -19 -36 -80 -22 -80 19 0 39 46 52 74 21z m113 -126 c24 -25 43 -47 43 -49 0 -15 -45 12 -64 38 -53 71 -42 77 21 11z m211 -71 c28 -19 29 -67 2 -94 -25 -25 -51 -25 -78 -2 -34 29 -37 58 -8 87 29 29 52 31 84 9z m-166 -170 c-4 -22 -9 -24 -68 -24 -35 0 -64 3 -64 7 0 4 9 16 19 27 16 17 29 20 69 18 46 -3 49 -5 44 -28z" transform="translate(0,95) scale(0.1,-0.1)" stroke="none" fill="#43682B"/>

</g>

<g id="1" transform="translate(0,95.0)scale(0.8,0.8)">

<path d="M412 738 c-7 -7 -12 -19 -12 -28 0 -41 61 -55 80 -19 21 38 -37 78 -68 47z" transform="translate(0,95) scale(0.1,-0.1)" stroke="none" fill="#EA9D28"/>

<path d="M714 525 c-29 -29 -26 -58 8 -87 27 -23 53 -23 78 2 27 27 26 75 -2 94 -32 22 -55 20 -84 -9z" transform="translate(0,95) scale(0.1,-0.1)" stroke="none" fill="#EA9D28"/>

<path d="M313 385 c-34 -24 -30 -69 7 -107 28 -28 36 -30 80 -26 28 3 54 0 61 -6 9 -8 10 -7 6 6 -3 10 0 19 9 22 31 12 12 58 -36 88 -59 36 -99 43 -127 23z" transform="translate(0,95) scale(0.1,-0.1)" stroke="none" fill="#EA9D28"/>

<path d="M323 890 c-29 -12 -29 -19 3 -81 14 -28 24 -52 22 -54 -2 -1 -27 4 -56 11 -30 8 -58 12 -63 8 -5 -3 -9 -32 -9 -65 0 -74 20 -99 80 -99 43 0 45 -2 30 -30 -15 -28 -2 -49 49 -75 39 -19 43 -25 27 -31 -10 -4 -46 -2 -80 5 -49 10 -68 10 -89 0 -37 -17 -34 -38 10 -77 34 -30 36 -33 13 -28 -64 15 -190 29 -196 23 -14 -13 -4 -79 15 -111 42 -68 66 -81 142 -80 68 2 69 1 63 -22 -18 -72 215 -174 270 -118 9 8 16 18 16 21 0 4 -18 30 -40 59 -22 29 -40 56 -40 60 0 4 -9 17 -20 29 -17 18 -29 21 -70 17 -44 -4 -52 -2 -80 26 -39 39 -41 84 -5 108 31 20 68 13 129 -26 49 -31 62 -70 30 -88 -13 -7 -3 -18 53 -55 113 -75 158 -85 192 -41 12 15 21 38 21 52 0 23 14 86 28 122 3 9 8 1 12 -20 3 -20 11 -34 18 -32 7 1 12 -9 12 -23 0 -36 20 -31 92 23 74 55 83 83 44 129 -14 17 -39 36 -56 43 l-30 13 25 23 c36 33 31 62 -17 111 -48 49 -56 51 -86 23 l-22 -21 -25 28 c-13 15 -25 31 -25 34 0 14 -32 19 -51 9 -13 -8 -19 -7 -19 0 0 6 -17 18 -37 27 l-38 16 32 7 c34 8 63 26 63 41 0 15 -66 83 -99 102 l-32 18 -29 -31 c-20 -21 -30 -27 -30 -17 0 41 -84 62 -147 37z m151 -159 c14 -15 15 -24 6 -40 -19 -36 -80 -22 -80 19 0 39 46 52 74 21z m113 -126 c24 -25 43 -47 43 -49 0 -15 -45 12 -64 38 -53 71 -42 77 21 11z m211 -71 c28 -19 29 -67 2 -94 -25 -25 -51 -25 -78 -2 -34 29 -37 58 -8 87 29 29 52 31 84 9z m-166 -170 c-4 -22 -9 -24 -68 -24 -35 0 -64 3 -64 7 0 4 9 16 19 27 16 17 29 20 69 18 46 -3 49 -5 44 -28z" transform="translate(0,95) scale(0.1,-0.1)" stroke="none" fill="#43682B"/>

</g>

<g id="2" transform="translate(0,190.0)scale(0.8,0.8)">

<path d="M412 738 c-7 -7 -12 -19 -12 -28 0 -41 61 -55 80 -19 21 38 -37 78 -68 47z" transform="translate(0,95) scale(0.1,-0.1)" stroke="none" fill="#EA9D28"/>

<path d="M714 525 c-29 -29 -26 -58 8 -87 27 -23 53 -23 78 2 27 27 26 75 -2 94 -32 22 -55 20 -84 -9z" transform="translate(0,95) scale(0.1,-0.1)" stroke="none" fill="#EA9D28"/>

<path d="M313 385 c-34 -24 -30 -69 7 -107 28 -28 36 -30 80 -26 28 3 54 0 61 -6 9 -8 10 -7 6 6 -3 10 0 19 9 22 31 12 12 58 -36 88 -59 36 -99 43 -127 23z" transform="translate(0,95) scale(0.1,-0.1)" stroke="none" fill="#EA9D28"/>

<path d="M323 890 c-29 -12 -29 -19 3 -81 14 -28 24 -52 22 -54 -2 -1 -27 4 -56 11 -30 8 -58 12 -63 8 -5 -3 -9 -32 -9 -65 0 -74 20 -99 80 -99 43 0 45 -2 30 -30 -15 -28 -2 -49 49 -75 39 -19 43 -25 27 -31 -10 -4 -46 -2 -80 5 -49 10 -68 10 -89 0 -37 -17 -34 -38 10 -77 34 -30 36 -33 13 -28 -64 15 -190 29 -196 23 -14 -13 -4 -79 15 -111 42 -68 66 -81 142 -80 68 2 69 1 63 -22 -18 -72 215 -174 270 -118 9 8 16 18 16 21 0 4 -18 30 -40 59 -22 29 -40 56 -40 60 0 4 -9 17 -20 29 -17 18 -29 21 -70 17 -44 -4 -52 -2 -80 26 -39 39 -41 84 -5 108 31 20 68 13 129 -26 49 -31 62 -70 30 -88 -13 -7 -3 -18 53 -55 113 -75 158 -85 192 -41 12 15 21 38 21 52 0 23 14 86 28 122 3 9 8 1 12 -20 3 -20 11 -34 18 -32 7 1 12 -9 12 -23 0 -36 20 -31 92 23 74 55 83 83 44 129 -14 17 -39 36 -56 43 l-30 13 25 23 c36 33 31 62 -17 111 -48 49 -56 51 -86 23 l-22 -21 -25 28 c-13 15 -25 31 -25 34 0 14 -32 19 -51 9 -13 -8 -19 -7 -19 0 0 6 -17 18 -37 27 l-38 16 32 7 c34 8 63 26 63 41 0 15 -66 83 -99 102 l-32 18 -29 -31 c-20 -21 -30 -27 -30 -17 0 41 -84 62 -147 37z m151 -159 c14 -15 15 -24 6 -40 -19 -36 -80 -22 -80 19 0 39 46 52 74 21z m113 -126 c24 -25 43 -47 43 -49 0 -15 -45 12 -64 38 -53 71 -42 77 21 11z m211 -71 c28 -19 29 -67 2 -94 -25 -25 -51 -25 -78 -2 -34 29 -37 58 -8 87 29 29 52 31 84 9z m-166 -170 c-4 -22 -9 -24 -68 -24 -35 0 -64 3 -64 7 0 4 9 16 19 27 16 17 29 20 69 18 46 -3 49 -5 44 -28z" transform="translate(0,95) scale(0.1,-0.1)" stroke="none" fill="#43682B"/>

</g>

<g id="3" transform="translate(0,285.0)scale(0.8,0.8)">

<path d="M412 738 c-7 -7 -12 -19 -12 -28 0 -41 61 -55 80 -19 21 38 -37 78 -68 47z" transform="translate(0,95) scale(0.1,-0.1)" stroke="none" fill="#EA9D28"/>

<path d="M714 525 c-29 -29 -26 -58 8 -87 27 -23 53 -23 78 2 27 27 26 75 -2 94 -32 22 -55 20 -84 -9z" transform="translate(0,95) scale(0.1,-0.1)" stroke="none" fill="#EA9D28"/>

<path d="M313 385 c-34 -24 -30 -69 7 -107 28 -28 36 -30 80 -26 28 3 54 0 61 -6 9 -8 10 -7 6 6 -3 10 0 19 9 22 31 12 12 58 -36 88 -59 36 -99 43 -127 23z" transform="translate(0,95) scale(0.1,-0.1)" stroke="none" fill="#EA9D28"/>

<path d="M323 890 c-29 -12 -29 -19 3 -81 14 -28 24 -52 22 -54 -2 -1 -27 4 -56 11 -30 8 -58 12 -63 8 -5 -3 -9 -32 -9 -65 0 -74 20 -99 80 -99 43 0 45 -2 30 -30 -15 -28 -2 -49 49 -75 39 -19 43 -25 27 -31 -10 -4 -46 -2 -80 5 -49 10 -68 10 -89 0 -37 -17 -34 -38 10 -77 34 -30 36 -33 13 -28 -64 15 -190 29 -196 23 -14 -13 -4 -79 15 -111 42 -68 66 -81 142 -80 68 2 69 1 63 -22 -18 -72 215 -174 270 -118 9 8 16 18 16 21 0 4 -18 30 -40 59 -22 29 -40 56 -40 60 0 4 -9 17 -20 29 -17 18 -29 21 -70 17 -44 -4 -52 -2 -80 26 -39 39 -41 84 -5 108 31 20 68 13 129 -26 49 -31 62 -70 30 -88 -13 -7 -3 -18 53 -55 113 -75 158 -85 192 -41 12 15 21 38 21 52 0 23 14 86 28 122 3 9 8 1 12 -20 3 -20 11 -34 18 -32 7 1 12 -9 12 -23 0 -36 20 -31 92 23 74 55 83 83 44 129 -14 17 -39 36 -56 43 l-30 13 25 23 c36 33 31 62 -17 111 -48 49 -56 51 -86 23 l-22 -21 -25 28 c-13 15 -25 31 -25 34 0 14 -32 19 -51 9 -13 -8 -19 -7 -19 0 0 6 -17 18 -37 27 l-38 16 32 7 c34 8 63 26 63 41 0 15 -66 83 -99 102 l-32 18 -29 -31 c-20 -21 -30 -27 -30 -17 0 41 -84 62 -147 37z m151 -159 c14 -15 15 -24 6 -40 -19 -36 -80 -22 -80 19 0 39 46 52 74 21z m113 -126 c24 -25 43 -47 43 -49 0 -15 -45 12 -64 38 -53 71 -42 77 21 11z m211 -71 c28 -19 29 -67 2 -94 -25 -25 -51 -25 -78 -2 -34 29 -37 58 -8 87 29 29 52 31 84 9z m-166 -170 c-4 -22 -9 -24 -68 -24 -35 0 -64 3 -64 7 0 4 9 16 19 27 16 17 29 20 69 18 46 -3 49 -5 44 -28z" transform="translate(0,95) scale(0.1,-0.1)" stroke="none" fill="#43682B"/>

</g>

<g id="4" transform="translate(0,380.0)scale(0.8,0.8)">

<path d="M412 738 c-7 -7 -12 -19 -12 -28 0 -41 61 -55 80 -19 21 38 -37 78 -68 47z" transform="translate(0,95) scale(0.1,-0.1)" stroke="none" fill="#EA9D28"/>

<path d="M714 525 c-29 -29 -26 -58 8 -87 27 -23 53 -23 78 2 27 27 26 75 -2 94 -32 22 -55 20 -84 -9z" transform="translate(0,95) scale(0.1,-0.1)" stroke="none" fill="#EA9D28"/>

<path d="M313 385 c-34 -24 -30 -69 7 -107 28 -28 36 -30 80 -26 28 3 54 0 61 -6 9 -8 10 -7 6 6 -3 10 0 19 9 22 31 12 12 58 -36 88 -59 36 -99 43 -127 23z" transform="translate(0,95) scale(0.1,-0.1)" stroke="none" fill="#EA9D28"/>

<path d="M323 890 c-29 -12 -29 -19 3 -81 14 -28 24 -52 22 -54 -2 -1 -27 4 -56 11 -30 8 -58 12 -63 8 -5 -3 -9 -32 -9 -65 0 -74 20 -99 80 -99 43 0 45 -2 30 -30 -15 -28 -2 -49 49 -75 39 -19 43 -25 27 -31 -10 -4 -46 -2 -80 5 -49 10 -68 10 -89 0 -37 -17 -34 -38 10 -77 34 -30 36 -33 13 -28 -64 15 -190 29 -196 23 -14 -13 -4 -79 15 -111 42 -68 66 -81 142 -80 68 2 69 1 63 -22 -18 -72 215 -174 270 -118 9 8 16 18 16 21 0 4 -18 30 -40 59 -22 29 -40 56 -40 60 0 4 -9 17 -20 29 -17 18 -29 21 -70 17 -44 -4 -52 -2 -80 26 -39 39 -41 84 -5 108 31 20 68 13 129 -26 49 -31 62 -70 30 -88 -13 -7 -3 -18 53 -55 113 -75 158 -85 192 -41 12 15 21 38 21 52 0 23 14 86 28 122 3 9 8 1 12 -20 3 -20 11 -34 18 -32 7 1 12 -9 12 -23 0 -36 20 -31 92 23 74 55 83 83 44 129 -14 17 -39 36 -56 43 l-30 13 25 23 c36 33 31 62 -17 111 -48 49 -56 51 -86 23 l-22 -21 -25 28 c-13 15 -25 31 -25 34 0 14 -32 19 -51 9 -13 -8 -19 -7 -19 0 0 6 -17 18 -37 27 l-38 16 32 7 c34 8 63 26 63 41 0 15 -66 83 -99 102 l-32 18 -29 -31 c-20 -21 -30 -27 -30 -17 0 41 -84 62 -147 37z m151 -159 c14 -15 15 -24 6 -40 -19 -36 -80 -22 -80 19 0 39 46 52 74 21z m113 -126 c24 -25 43 -47 43 -49 0 -15 -45 12 -64 38 -53 71 -42 77 21 11z m211 -71 c28 -19 29 -67 2 -94 -25 -25 -51 -25 -78 -2 -34 29 -37 58 -8 87 29 29 52 31 84 9z m-166 -170 c-4 -22 -9 -24 -68 -24 -35 0 -64 3 -64 7 0 4 9 16 19 27 16 17 29 20 69 18 46 -3 49 -5 44 -28z" transform="translate(0,95) scale(0.1,-0.1)" stroke="none" fill="#43682B"/>

</g>

</g>
<g id="col2" transform="translate(204, 12)">
<g id="0" transform="translate(0,0.0)scale(0.8,0.8)">

<path d="M412 738 c-7 -7 -12 -19 -12 -28 0 -41 61 -55 80 -19 21 38 -37 78 -68 47z" transform="translate(0,95) scale(0.1,-0.1)" stroke="none" fill="#EA9D28"/>

<path d="M714 525 c-29 -29 -26 -58 8 -87 27 -23 53 -23 78 2 27 27 26 75 -2 94 -32 22 -55 20 -84 -9z" transform="translate(0,95) scale(0.1,-0.1)" stroke="none" fill="#EA9D28"/>

<path d="M313 385 c-34 -24 -30 -69 7 -107 28 -28 36 -30 80 -26 28 3 54 0 61 -6 9 -8 10 -7 6 6 -3 10 0 19 9 22 31 12 12 58 -36 88 -59 36 -99 43 -127 23z" transform="translate(0,95) scale(0.1,-0.1)" stroke="none" fill="#EA9D28"/>

<path d="M323 890 c-29 -12 -29 -19 3 -81 14 -28 24 -52 22 -54 -2 -1 -27 4 -56 11 -30 8 -58 12 -63 8 -5 -3 -9 -32 -9 -65 0 -74 20 -99 80 -99 43 0 45 -2 30 -30 -15 -28 -2 -49 49 -75 39 -19 43 -25 27 -31 -10 -4 -46 -2 -80 5 -49 10 -68 10 -89 0 -37 -17 -34 -38 10 -77 34 -30 36 -33 13 -28 -64 15 -190 29 -196 23 -14 -13 -4 -79 15 -111 42 -68 66 -81 142 -80 68 2 69 1 63 -22 -18 -72 215 -174 270 -118 9 8 16 18 16 21 0 4 -18 30 -40 59 -22 29 -40 56 -40 60 0 4 -9 17 -20 29 -17 18 -29 21 -70 17 -44 -4 -52 -2 -80 26 -39 39 -41 84 -5 108 31 20 68 13 129 -26 49 -31 62 -70 30 -88 -13 -7 -3 -18 53 -55 113 -75 158 -85 192 -41 12 15 21 38 21 52 0 23 14 86 28 122 3 9 8 1 12 -20 3 -20 11 -34 18 -32 7 1 12 -9 12 -23 0 -36 20 -31 92 23 74 55 83 83 44 129 -14 17 -39 36 -56 43 l-30 13 25 23 c36 33 31 62 -17 111 -48 49 -56 51 -86 23 l-22 -21 -25 28 c-13 15 -25 31 -25 34 0 14 -32 19 -51 9 -13 -8 -19 -7 -19 0 0 6 -17 18 -37 27 l-38 16 32 7 c34 8 63 26 63 41 0 15 -66 83 -99 102 l-32 18 -29 -31 c-20 -21 -30 -27 -30 -17 0 41 -84 62 -147 37z m151 -159 c14 -15 15 -24 6 -40 -19 -36 -80 -22 -80 19 0 39 46 52 74 21z m113 -126 c24 -25 43 -47 43 -49 0 -15 -45 12 -64 38 -53 71 -42 77 21 11z m211 -71 c28 -19 29 -67 2 -94 -25 -25 -51 -25 -78 -2 -34 29 -37 58 -8 87 29 29 52 31 84 9z m-166 -170 c-4 -22 -9 -24 -68 -24 -35 0 -64 3 -64 7 0 4 9 16 19 27 16 17 29 20 69 18 46 -3 49 -5 44 -28z" transform="translate(0,95) scale(0.1,-0.1)" stroke="none" fill="#43682B"/>

</g>

<g id="1" transform="translate(0,95.0)scale(0.8,0.8)">

<path d="M412 738 c-7 -7 -12 -19 -12 -28 0 -41 61 -55 80 -19 21 38 -37 78 -68 47z" transform="translate(0,95) scale(0.1,-0.1)" stroke="none" fill="#EA9D28"/>

<path d="M714 525 c-29 -29 -26 -58 8 -87 27 -23 53 -23 78 2 27 27 26 75 -2 94 -32 22 -55 20 -84 -9z" transform="translate(0,95) scale(0.1,-0.1)" stroke="none" fill="#EA9D28"/>

<path d="M313 385 c-34 -24 -30 -69 7 -107 28 -28 36 -30 80 -26 28 3 54 0 61 -6 9 -8 10 -7 6 6 -3 10 0 19 9 22 31 12 12 58 -36 88 -59 36 -99 43 -127 23z" transform="translate(0,95) scale(0.1,-0.1)" stroke="none" fill="#EA9D28"/>

<path d="M323 890 c-29 -12 -29 -19 3 -81 14 -28 24 -52 22 -54 -2 -1 -27 4 -56 11 -30 8 -58 12 -63 8 -5 -3 -9 -32 -9 -65 0 -74 20 -99 80 -99 43 0 45 -2 30 -30 -15 -28 -2 -49 49 -75 39 -19 43 -25 27 -31 -10 -4 -46 -2 -80 5 -49 10 -68 10 -89 0 -37 -17 -34 -38 10 -77 34 -30 36 -33 13 -28 -64 15 -190 29 -196 23 -14 -13 -4 -79 15 -111 42 -68 66 -81 142 -80 68 2 69 1 63 -22 -18 -72 215 -174 270 -118 9 8 16 18 16 21 0 4 -18 30 -40 59 -22 29 -40 56 -40 60 0 4 -9 17 -20 29 -17 18 -29 21 -70 17 -44 -4 -52 -2 -80 26 -39 39 -41 84 -5 108 31 20 68 13 129 -26 49 -31 62 -70 30 -88 -13 -7 -3 -18 53 -55 113 -75 158 -85 192 -41 12 15 21 38 21 52 0 23 14 86 28 122 3 9 8 1 12 -20 3 -20 11 -34 18 -32 7 1 12 -9 12 -23 0 -36 20 -31 92 23 74 55 83 83 44 129 -14 17 -39 36 -56 43 l-30 13 25 23 c36 33 31 62 -17 111 -48 49 -56 51 -86 23 l-22 -21 -25 28 c-13 15 -25 31 -25 34 0 14 -32 19 -51 9 -13 -8 -19 -7 -19 0 0 6 -17 18 -37 27 l-38 16 32 7 c34 8 63 26 63 41 0 15 -66 83 -99 102 l-32 18 -29 -31 c-20 -21 -30 -27 -30 -17 0 41 -84 62 -147 37z m151 -159 c14 -15 15 -24 6 -40 -19 -36 -80 -22 -80 19 0 39 46 52 74 21z m113 -126 c24 -25 43 -47 43 -49 0 -15 -45 12 -64 38 -53 71 -42 77 21 11z m211 -71 c28 -19 29 -67 2 -94 -25 -25 -51 -25 -78 -2 -34 29 -37 58 -8 87 29 29 52 31 84 9z m-166 -170 c-4 -22 -9 -24 -68 -24 -35 0 -64 3 -64 7 0 4 9 16 19 27 16 17 29 20 69 18 46 -3 49 -5 44 -28z" transform="translate(0,95) scale(0.1,-0.1)" stroke="none" fill="#43682B"/>

</g>

<g id="2" transform="translate(0,190.0)scale(0.8,0.8)">

<path d="M412 738 c-7 -7 -12 -19 -12 -28 0 -41 61 -55 80 -19 21 38 -37 78 -68 47z" transform="translate(0,95) scale(0.1,-0.1)" stroke="none" fill="#EA9D28"/>

<path d="M714 525 c-29 -29 -26 -58 8 -87 27 -23 53 -23 78 2 27 27 26 75 -2 94 -32 22 -55 20 -84 -9z" transform="translate(0,95) scale(0.1,-0.1)" stroke="none" fill="#EA9D28"/>

<path d="M313 385 c-34 -24 -30 -69 7 -107 28 -28 36 -30 80 -26 28 3 54 0 61 -6 9 -8 10 -7 6 6 -3 10 0 19 9 22 31 12 12 58 -36 88 -59 36 -99 43 -127 23z" transform="translate(0,95) scale(0.1,-0.1)" stroke="none" fill="#EA9D28"/>

<path d="M323 890 c-29 -12 -29 -19 3 -81 14 -28 24 -52 22 -54 -2 -1 -27 4 -56 11 -30 8 -58 12 -63 8 -5 -3 -9 -32 -9 -65 0 -74 20 -99 80 -99 43 0 45 -2 30 -30 -15 -28 -2 -49 49 -75 39 -19 43 -25 27 -31 -10 -4 -46 -2 -80 5 -49 10 -68 10 -89 0 -37 -17 -34 -38 10 -77 34 -30 36 -33 13 -28 -64 15 -190 29 -196 23 -14 -13 -4 -79 15 -111 42 -68 66 -81 142 -80 68 2 69 1 63 -22 -18 -72 215 -174 270 -118 9 8 16 18 16 21 0 4 -18 30 -40 59 -22 29 -40 56 -40 60 0 4 -9 17 -20 29 -17 18 -29 21 -70 17 -44 -4 -52 -2 -80 26 -39 39 -41 84 -5 108 31 20 68 13 129 -26 49 -31 62 -70 30 -88 -13 -7 -3 -18 53 -55 113 -75 158 -85 192 -41 12 15 21 38 21 52 0 23 14 86 28 122 3 9 8 1 12 -20 3 -20 11 -34 18 -32 7 1 12 -9 12 -23 0 -36 20 -31 92 23 74 55 83 83 44 129 -14 17 -39 36 -56 43 l-30 13 25 23 c36 33 31 62 -17 111 -48 49 -56 51 -86 23 l-22 -21 -25 28 c-13 15 -25 31 -25 34 0 14 -32 19 -51 9 -13 -8 -19 -7 -19 0 0 6 -17 18 -37 27 l-38 16 32 7 c34 8 63 26 63 41 0 15 -66 83 -99 102 l-32 18 -29 -31 c-20 -21 -30 -27 -30 -17 0 41 -84 62 -147 37z m151 -159 c14 -15 15 -24 6 -40 -19 -36 -80 -22 -80 19 0 39 46 52 74 21z m113 -126 c24 -25 43 -47 43 -49 0 -15 -45 12 -64 38 -53 71 -42 77 21 11z m211 -71 c28 -19 29 -67 2 -94 -25 -25 -51 -25 -78 -2 -34 29 -37 58 -8 87 29 29 52 31 84 9z m-166 -170 c-4 -22 -9 -24 -68 -24 -35 0 -64 3 -64 7 0 4 9 16 19 27 16 17 29 20 69 18 46 -3 49 -5 44 -28z" transform="translate(0,95) scale(0.1,-0.1)" stroke="none" fill="#43682B"/>

</g>

<g id="3" transform="translate(0,285.0)scale(0.8,0.8)">

<path d="M412 738 c-7 -7 -12 -19 -12 -28 0 -41 61 -55 80 -19 21 38 -37 78 -68 47z" transform="translate(0,95) scale(0.1,-0.1)" stroke="none" fill="#EA9D28"/>

<path d="M714 525 c-29 -29 -26 -58 8 -87 27 -23 53 -23 78 2 27 27 26 75 -2 94 -32 22 -55 20 -84 -9z" transform="translate(0,95) scale(0.1,-0.1)" stroke="none" fill="#EA9D28"/>

<path d="M313 385 c-34 -24 -30 -69 7 -107 28 -28 36 -30 80 -26 28 3 54 0 61 -6 9 -8 10 -7 6 6 -3 10 0 19 9 22 31 12 12 58 -36 88 -59 36 -99 43 -127 23z" transform="translate(0,95) scale(0.1,-0.1)" stroke="none" fill="#EA9D28"/>

<path d="M323 890 c-29 -12 -29 -19 3 -81 14 -28 24 -52 22 -54 -2 -1 -27 4 -56 11 -30 8 -58 12 -63 8 -5 -3 -9 -32 -9 -65 0 -74 20 -99 80 -99 43 0 45 -2 30 -30 -15 -28 -2 -49 49 -75 39 -19 43 -25 27 -31 -10 -4 -46 -2 -80 5 -49 10 -68 10 -89 0 -37 -17 -34 -38 10 -77 34 -30 36 -33 13 -28 -64 15 -190 29 -196 23 -14 -13 -4 -79 15 -111 42 -68 66 -81 142 -80 68 2 69 1 63 -22 -18 -72 215 -174 270 -118 9 8 16 18 16 21 0 4 -18 30 -40 59 -22 29 -40 56 -40 60 0 4 -9 17 -20 29 -17 18 -29 21 -70 17 -44 -4 -52 -2 -80 26 -39 39 -41 84 -5 108 31 20 68 13 129 -26 49 -31 62 -70 30 -88 -13 -7 -3 -18 53 -55 113 -75 158 -85 192 -41 12 15 21 38 21 52 0 23 14 86 28 122 3 9 8 1 12 -20 3 -20 11 -34 18 -32 7 1 12 -9 12 -23 0 -36 20 -31 92 23 74 55 83 83 44 129 -14 17 -39 36 -56 43 l-30 13 25 23 c36 33 31 62 -17 111 -48 49 -56 51 -86 23 l-22 -21 -25 28 c-13 15 -25 31 -25 34 0 14 -32 19 -51 9 -13 -8 -19 -7 -19 0 0 6 -17 18 -37 27 l-38 16 32 7 c34 8 63 26 63 41 0 15 -66 83 -99 102 l-32 18 -29 -31 c-20 -21 -30 -27 -30 -17 0 41 -84 62 -147 37z m151 -159 c14 -15 15 -24 6 -40 -19 -36 -80 -22 -80 19 0 39 46 52 74 21z m113 -126 c24 -25 43 -47 43 -49 0 -15 -45 12 -64 38 -53 71 -42 77 21 11z m211 -71 c28 -19 29 -67 2 -94 -25 -25 -51 -25 -78 -2 -34 29 -37 58 -8 87 29 29 52 31 84 9z m-166 -170 c-4 -22 -9 -24 -68 -24 -35 0 -64 3 -64 7 0 4 9 16 19 27 16 17 29 20 69 18 46 -3 49 -5 44 -28z" transform="translate(0,95) scale(0.1,-0.1)" stroke="none" fill="#43682B"/>

</g>

<g id="4" transform="translate(0,380.0)scale(0.8,0.8)">

<path d="M412 738 c-7 -7 -12 -19 -12 -28 0 -41 61 -55 80 -19 21 38 -37 78 -68 47z" transform="translate(0,95) scale(0.1,-0.1)" stroke="none" fill="#EA9D28"/>

<path d="M714 525 c-29 -29 -26 -58 8 -87 27 -23 53 -23 78 2 27 27 26 75 -2 94 -32 22 -55 20 -84 -9z" transform="translate(0,95) scale(0.1,-0.1)" stroke="none" fill="#EA9D28"/>

<path d="M313 385 c-34 -24 -30 -69 7 -107 28 -28 36 -30 80 -26 28 3 54 0 61 -6 9 -8 10 -7 6 6 -3 10 0 19 9 22 31 12 12 58 -36 88 -59 36 -99 43 -127 23z" transform="translate(0,95) scale(0.1,-0.1)" stroke="none" fill="#EA9D28"/>

<path d="M323 890 c-29 -12 -29 -19 3 -81 14 -28 24 -52 22 -54 -2 -1 -27 4 -56 11 -30 8 -58 12 -63 8 -5 -3 -9 -32 -9 -65 0 -74 20 -99 80 -99 43 0 45 -2 30 -30 -15 -28 -2 -49 49 -75 39 -19 43 -25 27 -31 -10 -4 -46 -2 -80 5 -49 10 -68 10 -89 0 -37 -17 -34 -38 10 -77 34 -30 36 -33 13 -28 -64 15 -190 29 -196 23 -14 -13 -4 -79 15 -111 42 -68 66 -81 142 -80 68 2 69 1 63 -22 -18 -72 215 -174 270 -118 9 8 16 18 16 21 0 4 -18 30 -40 59 -22 29 -40 56 -40 60 0 4 -9 17 -20 29 -17 18 -29 21 -70 17 -44 -4 -52 -2 -80 26 -39 39 -41 84 -5 108 31 20 68 13 129 -26 49 -31 62 -70 30 -88 -13 -7 -3 -18 53 -55 113 -75 158 -85 192 -41 12 15 21 38 21 52 0 23 14 86 28 122 3 9 8 1 12 -20 3 -20 11 -34 18 -32 7 1 12 -9 12 -23 0 -36 20 -31 92 23 74 55 83 83 44 129 -14 17 -39 36 -56 43 l-30 13 25 23 c36 33 31 62 -17 111 -48 49 -56 51 -86 23 l-22 -21 -25 28 c-13 15 -25 31 -25 34 0 14 -32 19 -51 9 -13 -8 -19 -7 -19 0 0 6 -17 18 -37 27 l-38 16 32 7 c34 8 63 26 63 41 0 15 -66 83 -99 102 l-32 18 -29 -31 c-20 -21 -30 -27 -30 -17 0 41 -84 62 -147 37z m151 -159 c14 -15 15 -24 6 -40 -19 -36 -80 -22 -80 19 0 39 46 52 74 21z m113 -126 c24 -25 43 -47 43 -49 0 -15 -45 12 -64 38 -53 71 -42 77 21 11z m211 -71 c28 -19 29 -67 2 -94 -25 -25 -51 -25 -78 -2 -34 29 -37 58 -8 87 29 29 52 31 84 9z m-166 -170 c-4 -22 -9 -24 -68 -24 -35 0 -64 3 -64 7 0 4 9 16 19 27 16 17 29 20 69 18 46 -3 49 -5 44 -28z" transform="translate(0,95) scale(0.1,-0.1)" stroke="none" fill="#43682B"/>

</g>

</g>
<g id="col3" transform="translate(306, -35.5)">
<g id="0" transform="translate(0,0.0)scale(0.8,0.8)">

<path d="M412 738 c-7 -7 -12 -19 -12 -28 0 -41 61 -55 80 -19 21 38 -37 78 -68 47z" transform="translate(0,95) scale(0.1,-0.1)" stroke="none" fill="#EA9D28"/>

<path d="M714 525 c-29 -29 -26 -58 8 -87 27 -23 53 -23 78 2 27 27 26 75 -2 94 -32 22 -55 20 -84 -9z" transform="translate(0,95) scale(0.1,-0.1)" stroke="none" fill="#EA9D28"/>

<path d="M313 385 c-34 -24 -30 -69 7 -107 28 -28 36 -30 80 -26 28 3 54 0 61 -6 9 -8 10 -7 6 6 -3 10 0 19 9 22 31 12 12 58 -36 88 -59 36 -99 43 -127 23z" transform="translate(0,95) scale(0.1,-0.1)" stroke="none" fill="#EA9D28"/>

<path d="M323 890 c-29 -12 -29 -19 3 -81 14 -28 24 -52 22 -54 -2 -1 -27 4 -56 11 -30 8 -58 12 -63 8 -5 -3 -9 -32 -9 -65 0 -74 20 -99 80 -99 43 0 45 -2 30 -30 -15 -28 -2 -49 49 -75 39 -19 43 -25 27 -31 -10 -4 -46 -2 -80 5 -49 10 -68 10 -89 0 -37 -17 -34 -38 10 -77 34 -30 36 -33 13 -28 -64 15 -190 29 -196 23 -14 -13 -4 -79 15 -111 42 -68 66 -81 142 -80 68 2 69 1 63 -22 -18 -72 215 -174 270 -118 9 8 16 18 16 21 0 4 -18 30 -40 59 -22 29 -40 56 -40 60 0 4 -9 17 -20 29 -17 18 -29 21 -70 17 -44 -4 -52 -2 -80 26 -39 39 -41 84 -5 108 31 20 68 13 129 -26 49 -31 62 -70 30 -88 -13 -7 -3 -18 53 -55 113 -75 158 -85 192 -41 12 15 21 38 21 52 0 23 14 86 28 122 3 9 8 1 12 -20 3 -20 11 -34 18 -32 7 1 12 -9 12 -23 0 -36 20 -31 92 23 74 55 83 83 44 129 -14 17 -39 36 -56 43 l-30 13 25 23 c36 33 31 62 -17 111 -48 49 -56 51 -86 23 l-22 -21 -25 28 c-13 15 -25 31 -25 34 0 14 -32 19 -51 9 -13 -8 -19 -7 -19 0 0 6 -17 18 -37 27 l-38 16 32 7 c34 8 63 26 63 41 0 15 -66 83 -99 102 l-32 18 -29 -31 c-20 -21 -30 -27 -30 -17 0 41 -84 62 -147 37z m151 -159 c14 -15 15 -24 6 -40 -19 -36 -80 -22 -80 19 0 39 46 52 74 21z m113 -126 c24 -25 43 -47 43 -49 0 -15 -45 12 -64 38 -53 71 -42 77 21 11z m211 -71 c28 -19 29 -67 2 -94 -25 -25 -51 -25 -78 -2 -34 29 -37 58 -8 87 29 29 52 31 84 9z m-166 -170 c-4 -22 -9 -24 -68 -24 -35 0 -64 3 -64 7 0 4 9 16 19 27 16 17 29 20 69 18 46 -3 49 -5 44 -28z" transform="translate(0,95) scale(0.1,-0.1)" stroke="none" fill="#43682B"/>

</g>

<g id="1" transform="translate(0,95.0)scale(0.8,0.8)">

<path d="M412 738 c-7 -7 -12 -19 -12 -28 0 -41 61 -55 80 -19 21 38 -37 78 -68 47z" transform="translate(0,95) scale(0.1,-0.1)" stroke="none" fill="#EA9D28"/>

<path d="M714 525 c-29 -29 -26 -58 8 -87 27 -23 53 -23 78 2 27 27 26 75 -2 94 -32 22 -55 20 -84 -9z" transform="translate(0,95) scale(0.1,-0.1)" stroke="none" fill="#EA9D28"/>

<path d="M313 385 c-34 -24 -30 -69 7 -107 28 -28 36 -30 80 -26 28 3 54 0 61 -6 9 -8 10 -7 6 6 -3 10 0 19 9 22 31 12 12 58 -36 88 -59 36 -99 43 -127 23z" transform="translate(0,95) scale(0.1,-0.1)" stroke="none" fill="#EA9D28"/>

<path d="M323 890 c-29 -12 -29 -19 3 -81 14 -28 24 -52 22 -54 -2 -1 -27 4 -56 11 -30 8 -58 12 -63 8 -5 -3 -9 -32 -9 -65 0 -74 20 -99 80 -99 43 0 45 -2 30 -30 -15 -28 -2 -49 49 -75 39 -19 43 -25 27 -31 -10 -4 -46 -2 -80 5 -49 10 -68 10 -89 0 -37 -17 -34 -38 10 -77 34 -30 36 -33 13 -28 -64 15 -190 29 -196 23 -14 -13 -4 -79 15 -111 42 -68 66 -81 142 -80 68 2 69 1 63 -22 -18 -72 215 -174 270 -118 9 8 16 18 16 21 0 4 -18 30 -40 59 -22 29 -40 56 -40 60 0 4 -9 17 -20 29 -17 18 -29 21 -70 17 -44 -4 -52 -2 -80 26 -39 39 -41 84 -5 108 31 20 68 13 129 -26 49 -31 62 -70 30 -88 -13 -7 -3 -18 53 -55 113 -75 158 -85 192 -41 12 15 21 38 21 52 0 23 14 86 28 122 3 9 8 1 12 -20 3 -20 11 -34 18 -32 7 1 12 -9 12 -23 0 -36 20 -31 92 23 74 55 83 83 44 129 -14 17 -39 36 -56 43 l-30 13 25 23 c36 33 31 62 -17 111 -48 49 -56 51 -86 23 l-22 -21 -25 28 c-13 15 -25 31 -25 34 0 14 -32 19 -51 9 -13 -8 -19 -7 -19 0 0 6 -17 18 -37 27 l-38 16 32 7 c34 8 63 26 63 41 0 15 -66 83 -99 102 l-32 18 -29 -31 c-20 -21 -30 -27 -30 -17 0 41 -84 62 -147 37z m151 -159 c14 -15 15 -24 6 -40 -19 -36 -80 -22 -80 19 0 39 46 52 74 21z m113 -126 c24 -25 43 -47 43 -49 0 -15 -45 12 -64 38 -53 71 -42 77 21 11z m211 -71 c28 -19 29 -67 2 -94 -25 -25 -51 -25 -78 -2 -34 29 -37 58 -8 87 29 29 52 31 84 9z m-166 -170 c-4 -22 -9 -24 -68 -24 -35 0 -64 3 -64 7 0 4 9 16 19 27 16 17 29 20 69 18 46 -3 49 -5 44 -28z" transform="translate(0,95) scale(0.1,-0.1)" stroke="none" fill="#43682B"/>

</g>

<g id="2" transform="translate(0,190.0)scale(0.8,0.8)">

<path d="M412 738 c-7 -7 -12 -19 -12 -28 0 -41 61 -55 80 -19 21 38 -37 78 -68 47z" transform="translate(0,95) scale(0.1,-0.1)" stroke="none" fill="#EA9D28"/>

<path d="M714 525 c-29 -29 -26 -58 8 -87 27 -23 53 -23 78 2 27 27 26 75 -2 94 -32 22 -55 20 -84 -9z" transform="translate(0,95) scale(0.1,-0.1)" stroke="none" fill="#EA9D28"/>

<path d="M313 385 c-34 -24 -30 -69 7 -107 28 -28 36 -30 80 -26 28 3 54 0 61 -6 9 -8 10 -7 6 6 -3 10 0 19 9 22 31 12 12 58 -36 88 -59 36 -99 43 -127 23z" transform="translate(0,95) scale(0.1,-0.1)" stroke="none" fill="#EA9D28"/>

<path d="M323 890 c-29 -12 -29 -19 3 -81 14 -28 24 -52 22 -54 -2 -1 -27 4 -56 11 -30 8 -58 12 -63 8 -5 -3 -9 -32 -9 -65 0 -74 20 -99 80 -99 43 0 45 -2 30 -30 -15 -28 -2 -49 49 -75 39 -19 43 -25 27 -31 -10 -4 -46 -2 -80 5 -49 10 -68 10 -89 0 -37 -17 -34 -38 10 -77 34 -30 36 -33 13 -28 -64 15 -190 29 -196 23 -14 -13 -4 -79 15 -111 42 -68 66 -81 142 -80 68 2 69 1 63 -22 -18 -72 215 -174 270 -118 9 8 16 18 16 21 0 4 -18 30 -40 59 -22 29 -40 56 -40 60 0 4 -9 17 -20 29 -17 18 -29 21 -70 17 -44 -4 -52 -2 -80 26 -39 39 -41 84 -5 108 31 20 68 13 129 -26 49 -31 62 -70 30 -88 -13 -7 -3 -18 53 -55 113 -75 158 -85 192 -41 12 15 21 38 21 52 0 23 14 86 28 122 3 9 8 1 12 -20 3 -20 11 -34 18 -32 7 1 12 -9 12 -23 0 -36 20 -31 92 23 74 55 83 83 44 129 -14 17 -39 36 -56 43 l-30 13 25 23 c36 33 31 62 -17 111 -48 49 -56 51 -86 23 l-22 -21 -25 28 c-13 15 -25 31 -25 34 0 14 -32 19 -51 9 -13 -8 -19 -7 -19 0 0 6 -17 18 -37 27 l-38 16 32 7 c34 8 63 26 63 41 0 15 -66 83 -99 102 l-32 18 -29 -31 c-20 -21 -30 -27 -30 -17 0 41 -84 62 -147 37z m151 -159 c14 -15 15 -24 6 -40 -19 -36 -80 -22 -80 19 0 39 46 52 74 21z m113 -126 c24 -25 43 -47 43 -49 0 -15 -45 12 -64 38 -53 71 -42 77 21 11z m211 -71 c28 -19 29 -67 2 -94 -25 -25 -51 -25 -78 -2 -34 29 -37 58 -8 87 29 29 52 31 84 9z m-166 -170 c-4 -22 -9 -24 -68 -24 -35 0 -64 3 -64 7 0 4 9 16 19 27 16 17 29 20 69 18 46 -3 49 -5 44 -28z" transform="translate(0,95) scale(0.1,-0.1)" stroke="none" fill="#43682B"/>

</g>

<g id="3" transform="translate(0,285.0)scale(0.8,0.8)">

<path d="M412 738 c-7 -7 -12 -19 -12 -28 0 -41 61 -55 80 -19 21 38 -37 78 -68 47z" transform="translate(0,95) scale(0.1,-0.1)" stroke="none" fill="#EA9D28"/>

<path d="M714 525 c-29 -29 -26 -58 8 -87 27 -23 53 -23 78 2 27 27 26 75 -2 94 -32 22 -55 20 -84 -9z" transform="translate(0,95) scale(0.1,-0.1)" stroke="none" fill="#EA9D28"/>

<path d="M313 385 c-34 -24 -30 -69 7 -107 28 -28 36 -30 80 -26 28 3 54 0 61 -6 9 -8 10 -7 6 6 -3 10 0 19 9 22 31 12 12 58 -36 88 -59 36 -99 43 -127 23z" transform="translate(0,95) scale(0.1,-0.1)" stroke="none" fill="#EA9D28"/>

<path d="M323 890 c-29 -12 -29 -19 3 -81 14 -28 24 -52 22 -54 -2 -1 -27 4 -56 11 -30 8 -58 12 -63 8 -5 -3 -9 -32 -9 -65 0 -74 20 -99 80 -99 43 0 45 -2 30 -30 -15 -28 -2 -49 49 -75 39 -19 43 -25 27 -31 -10 -4 -46 -2 -80 5 -49 10 -68 10 -89 0 -37 -17 -34 -38 10 -77 34 -30 36 -33 13 -28 -64 15 -190 29 -196 23 -14 -13 -4 -79 15 -111 42 -68 66 -81 142 -80 68 2 69 1 63 -22 -18 -72 215 -174 270 -118 9 8 16 18 16 21 0 4 -18 30 -40 59 -22 29 -40 56 -40 60 0 4 -9 17 -20 29 -17 18 -29 21 -70 17 -44 -4 -52 -2 -80 26 -39 39 -41 84 -5 108 31 20 68 13 129 -26 49 -31 62 -70 30 -88 -13 -7 -3 -18 53 -55 113 -75 158 -85 192 -41 12 15 21 38 21 52 0 23 14 86 28 122 3 9 8 1 12 -20 3 -20 11 -34 18 -32 7 1 12 -9 12 -23 0 -36 20 -31 92 23 74 55 83 83 44 129 -14 17 -39 36 -56 43 l-30 13 25 23 c36 33 31 62 -17 111 -48 49 -56 51 -86 23 l-22 -21 -25 28 c-13 15 -25 31 -25 34 0 14 -32 19 -51 9 -13 -8 -19 -7 -19 0 0 6 -17 18 -37 27 l-38 16 32 7 c34 8 63 26 63 41 0 15 -66 83 -99 102 l-32 18 -29 -31 c-20 -21 -30 -27 -30 -17 0 41 -84 62 -147 37z m151 -159 c14 -15 15 -24 6 -40 -19 -36 -80 -22 -80 19 0 39 46 52 74 21z m113 -126 c24 -25 43 -47 43 -49 0 -15 -45 12 -64 38 -53 71 -42 77 21 11z m211 -71 c28 -19 29 -67 2 -94 -25 -25 -51 -25 -78 -2 -34 29 -37 58 -8 87 29 29 52 31 84 9z m-166 -170 c-4 -22 -9 -24 -68 -24 -35 0 -64 3 -64 7 0 4 9 16 19 27 16 17 29 20 69 18 46 -3 49 -5 44 -28z" transform="translate(0,95) scale(0.1,-0.1)" stroke="none" fill="#43682B"/>

</g>

<g id="4" transform="translate(0,380.0)scale(0.8,0.8)">

<path d="M412 738 c-7 -7 -12 -19 -12 -28 0 -41 61 -55 80 -19 21 38 -37 78 -68 47z" transform="translate(0,95) scale(0.1,-0.1)" stroke="none" fill="#EA9D28"/>

<path d="M714 525 c-29 -29 -26 -58 8 -87 27 -23 53 -23 78 2 27 27 26 75 -2 94 -32 22 -55 20 -84 -9z" transform="translate(0,95) scale(0.1,-0.1)" stroke="none" fill="#EA9D28"/>

<path d="M313 385 c-34 -24 -30 -69 7 -107 28 -28 36 -30 80 -26 28 3 54 0 61 -6 9 -8 10 -7 6 6 -3 10 0 19 9 22 31 12 12 58 -36 88 -59 36 -99 43 -127 23z" transform="translate(0,95) scale(0.1,-0.1)" stroke="none" fill="#EA9D28"/>

<path d="M323 890 c-29 -12 -29 -19 3 -81 14 -28 24 -52 22 -54 -2 -1 -27 4 -56 11 -30 8 -58 12 -63 8 -5 -3 -9 -32 -9 -65 0 -74 20 -99 80 -99 43 0 45 -2 30 -30 -15 -28 -2 -49 49 -75 39 -19 43 -25 27 -31 -10 -4 -46 -2 -80 5 -49 10 -68 10 -89 0 -37 -17 -34 -38 10 -77 34 -30 36 -33 13 -28 -64 15 -190 29 -196 23 -14 -13 -4 -79 15 -111 42 -68 66 -81 142 -80 68 2 69 1 63 -22 -18 -72 215 -174 270 -118 9 8 16 18 16 21 0 4 -18 30 -40 59 -22 29 -40 56 -40 60 0 4 -9 17 -20 29 -17 18 -29 21 -70 17 -44 -4 -52 -2 -80 26 -39 39 -41 84 -5 108 31 20 68 13 129 -26 49 -31 62 -70 30 -88 -13 -7 -3 -18 53 -55 113 -75 158 -85 192 -41 12 15 21 38 21 52 0 23 14 86 28 122 3 9 8 1 12 -20 3 -20 11 -34 18 -32 7 1 12 -9 12 -23 0 -36 20 -31 92 23 74 55 83 83 44 129 -14 17 -39 36 -56 43 l-30 13 25 23 c36 33 31 62 -17 111 -48 49 -56 51 -86 23 l-22 -21 -25 28 c-13 15 -25 31 -25 34 0 14 -32 19 -51 9 -13 -8 -19 -7 -19 0 0 6 -17 18 -37 27 l-38 16 32 7 c34 8 63 26 63 41 0 15 -66 83 -99 102 l-32 18 -29 -31 c-20 -21 -30 -27 -30 -17 0 41 -84 62 -147 37z m151 -159 c14 -15 15 -24 6 -40 -19 -36 -80 -22 -80 19 0 39 46 52 74 21z m113 -126 c24 -25 43 -47 43 -49 0 -15 -45 12 -64 38 -53 71 -42 77 21 11z m211 -71 c28 -19 29 -67 2 -94 -25 -25 -51 -25 -78 -2 -34 29 -37 58 -8 87 29 29 52 31 84 9z m-166 -170 c-4 -22 -9 -24 -68 -24 -35 0 -64 3 -64 7 0 4 9 16 19 27 16 17 29 20 69 18 46 -3 49 -5 44 -28z" transform="translate(0,95) scale(0.1,-0.1)" stroke="none" fill="#43682B"/>

</g>

</g>
</svg>