<?xml version="1.0" standalone="no"?>
<!DOCTYPE svg PUBLIC "-//W3C//DTD SVG 20010904//EN"
 "http://www.w3.org/TR/2001/REC-SVG-20010904/DTD/svg10.dtd">
<svg version="1.0" xmlns="http://www.w3.org/2000/svg" width="5040pt" height="5040pt" viewBox="0 0 5040 5040" preserveAspectRatio = "xMidYMid meet" >
<metadata>
Created by ZoeQu, written in 2022
</metadata>
<rect width="5040" height="5040" fill="#D9D6A4"/>
<g id="row0" transform="translate(0,0.0)">
<g id="0" transform="translate(0.0,0)scale(0.25,0.25)">

<g id="pattern">
<rect width="5460" height="5460" fill="#D9D6A4"/>
<g id="pattern1" transform="matrix(1,0,0,1,340,340)">
<path d="M148 184 c-27 -14 -39 -44 -18 -44 6 0 10 -4 10 -10 0 -5 -9 -10 -20 -10 -13 0 -20 -7 -20 -19 0 -22 20 -32 50 -24 15 4 26 -1 36 -16 8 -11 19 -21 25 -21 16 0 10 28 -8 39 -16 9 -16 11 -2 28 35 40 29 94 -10 93 -9 -1 -28 -8 -43 -16z" transform="translate(0.000000,0.000000) scale(1,1)" stroke="none" fill="#936C3F"/>
<path d="M153 1033 c-13 -2 -23 -7 -23 -11 -3 -87 -14 -166 -36 -247 -58 -218 -59 -340 -6 -478 28 -73 76 -124 88 -94 3 9 15 18 27 21 20 5 113 88 145 130 33 42 74 151 92 242 10 54 28 126 39 158 12 33 21 69 21 81 0 25 -28 52 -83 80 -21 10 -50 33 -64 50 -53 64 -114 85 -200 68z" transform="translate(0.000000,0.000000) scale(1,1)" stroke="none" fill="#F3A181"/>
</g>
<g id="pattern2" transform="matrix(0.618,0,0,0.618,2587,760)">
<path d="M148 184 c-27 -14 -39 -44 -18 -44 6 0 10 -4 10 -10 0 -5 -9 -10 -20 -10 -13 0 -20 -7 -20 -19 0 -22 20 -32 50 -24 15 4 26 -1 36 -16 8 -11 19 -21 25 -21 16 0 10 28 -8 39 -16 9 -16 11 -2 28 35 40 29 94 -10 93 -9 -1 -28 -8 -43 -16z" transform="translate(3427,0.000000) scale(-1,1)" stroke="none" fill="#936C3F"/>
<path d="M153 1033 c-13 -2 -23 -7 -23 -11 -3 -87 -14 -166 -36 -247 -58 -218 -59 -340 -6 -478 28 -73 76 -124 88 -94 3 9 15 18 27 21 20 5 113 88 145 130 33 42 74 151 92 242 10 54 28 126 39 158 12 33 21 69 21 81 0 25 -28 52 -83 80 -21 10 -50 33 -64 50 -53 64 -114 85 -200 68z" transform="translate(3427,0.000000) scale(-1,1)" stroke="none" fill="#F3A181"/>
</g>
<g id="pattern3" transform="matrix(0.618,0,0,0.618,970,3427)matrix(0.71,0.71,-0.71,0.71,0,0)">
<path d="M148 184 c-27 -14 -39 -44 -18 -44 6 0 10 -4 10 -10 0 -5 -9 -10 -20 -10 -13 0 -20 -7 -20 -19 0 -22 20 -32 50 -24 15 4 26 -1 36 -16 8 -11 19 -21 25 -21 16 0 10 28 -8 39 -16 9 -16 11 -2 28 35 40 29 94 -10 93 -9 -1 -28 -8 -43 -16z" transform="translate(550,-550) scale(1,1)" stroke="none" fill="#936C3F"/>
<path d="M153 1033 c-13 -2 -23 -7 -23 -11 -3 -87 -14 -166 -36 -247 -58 -218 -59 -340 -6 -478 28 -73 76 -124 88 -94 3 9 15 18 27 21 20 5 113 88 145 130 33 42 74 151 92 242 10 54 28 126 39 158 12 33 21 69 21 81 0 25 -28 52 -83 80 -21 10 -50 33 -64 50 -53 64 -114 85 -200 68z" transform="translate(550,-550) scale(1,1)" stroke="none" fill="#F3A181"/>
</g>
<g id="pattern4" transform="matrix(1.618,0,0,1.618,1438,1438)matrix(0.87,0.5,-0.5,0.87,0,0)">
<path d="M148 184 c-27 -14 -39 -44 -18 -44 6 0 10 -4 10 -10 0 -5 -9 -10 -20 -10 -13 0 -20 -7 -20 -19 0 -22 20 -32 50 -24 15 4 26 -1 36 -16 8 -11 19 -21 25 -21 16 0 10 28 -8 39 -16 9 -16 11 -2 28 35 40 29 94 -10 93 -9 -1 -28 -8 -43 -16z" transform="translate(550,-550) scale(1,1)" stroke="none" fill="#936C3F"/>
<path d="M153 1033 c-13 -2 -23 -7 -23 -11 -3 -87 -14 -166 -36 -247 -58 -218 -59 -340 -6 -478 28 -73 76 -124 88 -94 3 9 15 18 27 21 20 5 113 88 145 130 33 42 74 151 92 242 10 54 28 126 39 158 12 33 21 69 21 81 0 25 -28 52 -83 80 -21 10 -50 33 -64 50 -53 64 -114 85 -200 68z" transform="translate(550,-550) scale(1,1)" stroke="none" fill="#F3A181"/>
</g>
</g>
</g>

<g id="1" transform="translate(1260.0,0)scale(0.25,0.25)">

<g id="pattern">
<rect width="5460" height="5460" fill="#D9D6A4"/>
<g id="pattern1" transform="matrix(1,0,0,1,340,340)">
<path d="M148 184 c-27 -14 -39 -44 -18 -44 6 0 10 -4 10 -10 0 -5 -9 -10 -20 -10 -13 0 -20 -7 -20 -19 0 -22 20 -32 50 -24 15 4 26 -1 36 -16 8 -11 19 -21 25 -21 16 0 10 28 -8 39 -16 9 -16 11 -2 28 35 40 29 94 -10 93 -9 -1 -28 -8 -43 -16z" transform="translate(0.000000,0.000000) scale(1,1)" stroke="none" fill="#936C3F"/>
<path d="M153 1033 c-13 -2 -23 -7 -23 -11 -3 -87 -14 -166 -36 -247 -58 -218 -59 -340 -6 -478 28 -73 76 -124 88 -94 3 9 15 18 27 21 20 5 113 88 145 130 33 42 74 151 92 242 10 54 28 126 39 158 12 33 21 69 21 81 0 25 -28 52 -83 80 -21 10 -50 33 -64 50 -53 64 -114 85 -200 68z" transform="translate(0.000000,0.000000) scale(1,1)" stroke="none" fill="#F3A181"/>
</g>
<g id="pattern2" transform="matrix(0.618,0,0,0.618,2587,760)">
<path d="M148 184 c-27 -14 -39 -44 -18 -44 6 0 10 -4 10 -10 0 -5 -9 -10 -20 -10 -13 0 -20 -7 -20 -19 0 -22 20 -32 50 -24 15 4 26 -1 36 -16 8 -11 19 -21 25 -21 16 0 10 28 -8 39 -16 9 -16 11 -2 28 35 40 29 94 -10 93 -9 -1 -28 -8 -43 -16z" transform="translate(3427,0.000000) scale(-1,1)" stroke="none" fill="#936C3F"/>
<path d="M153 1033 c-13 -2 -23 -7 -23 -11 -3 -87 -14 -166 -36 -247 -58 -218 -59 -340 -6 -478 28 -73 76 -124 88 -94 3 9 15 18 27 21 20 5 113 88 145 130 33 42 74 151 92 242 10 54 28 126 39 158 12 33 21 69 21 81 0 25 -28 52 -83 80 -21 10 -50 33 -64 50 -53 64 -114 85 -200 68z" transform="translate(3427,0.000000) scale(-1,1)" stroke="none" fill="#F3A181"/>
</g>
<g id="pattern3" transform="matrix(0.618,0,0,0.618,970,3427)matrix(0.71,0.71,-0.71,0.71,0,0)">
<path d="M148 184 c-27 -14 -39 -44 -18 -44 6 0 10 -4 10 -10 0 -5 -9 -10 -20 -10 -13 0 -20 -7 -20 -19 0 -22 20 -32 50 -24 15 4 26 -1 36 -16 8 -11 19 -21 25 -21 16 0 10 28 -8 39 -16 9 -16 11 -2 28 35 40 29 94 -10 93 -9 -1 -28 -8 -43 -16z" transform="translate(550,-550) scale(1,1)" stroke="none" fill="#936C3F"/>
<path d="M153 1033 c-13 -2 -23 -7 -23 -11 -3 -87 -14 -166 -36 -247 -58 -218 -59 -340 -6 -478 28 -73 76 -124 88 -94 3 9 15 18 27 21 20 5 113 88 145 130 33 42 74 151 92 242 10 54 28 126 39 158 12 33 21 69 21 81 0 25 -28 52 -83 80 -21 10 -50 33 -64 50 -53 64 -114 85 -200 68z" transform="translate(550,-550) scale(1,1)" stroke="none" fill="#F3A181"/>
</g>
<g id="pattern4" transform="matrix(1.618,0,0,1.618,1438,1438)matrix(0.87,0.5,-0.5,0.87,0,0)">
<path d="M148 184 c-27 -14 -39 -44 -18 -44 6 0 10 -4 10 -10 0 -5 -9 -10 -20 -10 -13 0 -20 -7 -20 -19 0 -22 20 -32 50 -24 15 4 26 -1 36 -16 8 -11 19 -21 25 -21 16 0 10 28 -8 39 -16 9 -16 11 -2 28 35 40 29 94 -10 93 -9 -1 -28 -8 -43 -16z" transform="translate(550,-550) scale(1,1)" stroke="none" fill="#936C3F"/>
<path d="M153 1033 c-13 -2 -23 -7 -23 -11 -3 -87 -14 -166 -36 -247 -58 -218 -59 -340 -6 -478 28 -73 76 -124 88 -94 3 9 15 18 27 21 20 5 113 88 145 130 33 42 74 151 92 242 10 54 28 126 39 158 12 33 21 69 21 81 0 25 -28 52 -83 80 -21 10 -50 33 -64 50 -53 64 -114 85 -200 68z" transform="translate(550,-550) scale(1,1)" stroke="none" fill="#F3A181"/>
</g>
</g>
</g>

<g id="2" transform="translate(2520.0,0)scale(0.25,0.25)">

<g id="pattern">
<rect width="5460" height="5460" fill="#D9D6A4"/>
<g id="pattern1" transform="matrix(1,0,0,1,340,340)">
<path d="M148 184 c-27 -14 -39 -44 -18 -44 6 0 10 -4 10 -10 0 -5 -9 -10 -20 -10 -13 0 -20 -7 -20 -19 0 -22 20 -32 50 -24 15 4 26 -1 36 -16 8 -11 19 -21 25 -21 16 0 10 28 -8 39 -16 9 -16 11 -2 28 35 40 29 94 -10 93 -9 -1 -28 -8 -43 -16z" transform="translate(0.000000,0.000000) scale(1,1)" stroke="none" fill="#936C3F"/>
<path d="M153 1033 c-13 -2 -23 -7 -23 -11 -3 -87 -14 -166 -36 -247 -58 -218 -59 -340 -6 -478 28 -73 76 -124 88 -94 3 9 15 18 27 21 20 5 113 88 145 130 33 42 74 151 92 242 10 54 28 126 39 158 12 33 21 69 21 81 0 25 -28 52 -83 80 -21 10 -50 33 -64 50 -53 64 -114 85 -200 68z" transform="translate(0.000000,0.000000) scale(1,1)" stroke="none" fill="#F3A181"/>
</g>
<g id="pattern2" transform="matrix(0.618,0,0,0.618,2587,760)">
<path d="M148 184 c-27 -14 -39 -44 -18 -44 6 0 10 -4 10 -10 0 -5 -9 -10 -20 -10 -13 0 -20 -7 -20 -19 0 -22 20 -32 50 -24 15 4 26 -1 36 -16 8 -11 19 -21 25 -21 16 0 10 28 -8 39 -16 9 -16 11 -2 28 35 40 29 94 -10 93 -9 -1 -28 -8 -43 -16z" transform="translate(3427,0.000000) scale(-1,1)" stroke="none" fill="#936C3F"/>
<path d="M153 1033 c-13 -2 -23 -7 -23 -11 -3 -87 -14 -166 -36 -247 -58 -218 -59 -340 -6 -478 28 -73 76 -124 88 -94 3 9 15 18 27 21 20 5 113 88 145 130 33 42 74 151 92 242 10 54 28 126 39 158 12 33 21 69 21 81 0 25 -28 52 -83 80 -21 10 -50 33 -64 50 -53 64 -114 85 -200 68z" transform="translate(3427,0.000000) scale(-1,1)" stroke="none" fill="#F3A181"/>
</g>
<g id="pattern3" transform="matrix(0.618,0,0,0.618,970,3427)matrix(0.71,0.71,-0.71,0.71,0,0)">
<path d="M148 184 c-27 -14 -39 -44 -18 -44 6 0 10 -4 10 -10 0 -5 -9 -10 -20 -10 -13 0 -20 -7 -20 -19 0 -22 20 -32 50 -24 15 4 26 -1 36 -16 8 -11 19 -21 25 -21 16 0 10 28 -8 39 -16 9 -16 11 -2 28 35 40 29 94 -10 93 -9 -1 -28 -8 -43 -16z" transform="translate(550,-550) scale(1,1)" stroke="none" fill="#936C3F"/>
<path d="M153 1033 c-13 -2 -23 -7 -23 -11 -3 -87 -14 -166 -36 -247 -58 -218 -59 -340 -6 -478 28 -73 76 -124 88 -94 3 9 15 18 27 21 20 5 113 88 145 130 33 42 74 151 92 242 10 54 28 126 39 158 12 33 21 69 21 81 0 25 -28 52 -83 80 -21 10 -50 33 -64 50 -53 64 -114 85 -200 68z" transform="translate(550,-550) scale(1,1)" stroke="none" fill="#F3A181"/>
</g>
<g id="pattern4" transform="matrix(1.618,0,0,1.618,1438,1438)matrix(0.87,0.5,-0.5,0.87,0,0)">
<path d="M148 184 c-27 -14 -39 -44 -18 -44 6 0 10 -4 10 -10 0 -5 -9 -10 -20 -10 -13 0 -20 -7 -20 -19 0 -22 20 -32 50 -24 15 4 26 -1 36 -16 8 -11 19 -21 25 -21 16 0 10 28 -8 39 -16 9 -16 11 -2 28 35 40 29 94 -10 93 -9 -1 -28 -8 -43 -16z" transform="translate(550,-550) scale(1,1)" stroke="none" fill="#936C3F"/>
<path d="M153 1033 c-13 -2 -23 -7 -23 -11 -3 -87 -14 -166 -36 -247 -58 -218 -59 -340 -6 -478 28 -73 76 -124 88 -94 3 9 15 18 27 21 20 5 113 88 145 130 33 42 74 151 92 242 10 54 28 126 39 158 12 33 21 69 21 81 0 25 -28 52 -83 80 -21 10 -50 33 -64 50 -53 64 -114 85 -200 68z" transform="translate(550,-550) scale(1,1)" stroke="none" fill="#F3A181"/>
</g>
</g>
</g>

<g id="3" transform="translate(3780.0,0)scale(0.25,0.25)">

<g id="pattern">
<rect width="5460" height="5460" fill="#D9D6A4"/>
<g id="pattern1" transform="matrix(1,0,0,1,340,340)">
<path d="M148 184 c-27 -14 -39 -44 -18 -44 6 0 10 -4 10 -10 0 -5 -9 -10 -20 -10 -13 0 -20 -7 -20 -19 0 -22 20 -32 50 -24 15 4 26 -1 36 -16 8 -11 19 -21 25 -21 16 0 10 28 -8 39 -16 9 -16 11 -2 28 35 40 29 94 -10 93 -9 -1 -28 -8 -43 -16z" transform="translate(0.000000,0.000000) scale(1,1)" stroke="none" fill="#936C3F"/>
<path d="M153 1033 c-13 -2 -23 -7 -23 -11 -3 -87 -14 -166 -36 -247 -58 -218 -59 -340 -6 -478 28 -73 76 -124 88 -94 3 9 15 18 27 21 20 5 113 88 145 130 33 42 74 151 92 242 10 54 28 126 39 158 12 33 21 69 21 81 0 25 -28 52 -83 80 -21 10 -50 33 -64 50 -53 64 -114 85 -200 68z" transform="translate(0.000000,0.000000) scale(1,1)" stroke="none" fill="#F3A181"/>
</g>
<g id="pattern2" transform="matrix(0.618,0,0,0.618,2587,760)">
<path d="M148 184 c-27 -14 -39 -44 -18 -44 6 0 10 -4 10 -10 0 -5 -9 -10 -20 -10 -13 0 -20 -7 -20 -19 0 -22 20 -32 50 -24 15 4 26 -1 36 -16 8 -11 19 -21 25 -21 16 0 10 28 -8 39 -16 9 -16 11 -2 28 35 40 29 94 -10 93 -9 -1 -28 -8 -43 -16z" transform="translate(3427,0.000000) scale(-1,1)" stroke="none" fill="#936C3F"/>
<path d="M153 1033 c-13 -2 -23 -7 -23 -11 -3 -87 -14 -166 -36 -247 -58 -218 -59 -340 -6 -478 28 -73 76 -124 88 -94 3 9 15 18 27 21 20 5 113 88 145 130 33 42 74 151 92 242 10 54 28 126 39 158 12 33 21 69 21 81 0 25 -28 52 -83 80 -21 10 -50 33 -64 50 -53 64 -114 85 -200 68z" transform="translate(3427,0.000000) scale(-1,1)" stroke="none" fill="#F3A181"/>
</g>
<g id="pattern3" transform="matrix(0.618,0,0,0.618,970,3427)matrix(0.71,0.71,-0.71,0.71,0,0)">
<path d="M148 184 c-27 -14 -39 -44 -18 -44 6 0 10 -4 10 -10 0 -5 -9 -10 -20 -10 -13 0 -20 -7 -20 -19 0 -22 20 -32 50 -24 15 4 26 -1 36 -16 8 -11 19 -21 25 -21 16 0 10 28 -8 39 -16 9 -16 11 -2 28 35 40 29 94 -10 93 -9 -1 -28 -8 -43 -16z" transform="translate(550,-550) scale(1,1)" stroke="none" fill="#936C3F"/>
<path d="M153 1033 c-13 -2 -23 -7 -23 -11 -3 -87 -14 -166 -36 -247 -58 -218 -59 -340 -6 -478 28 -73 76 -124 88 -94 3 9 15 18 27 21 20 5 113 88 145 130 33 42 74 151 92 242 10 54 28 126 39 158 12 33 21 69 21 81 0 25 -28 52 -83 80 -21 10 -50 33 -64 50 -53 64 -114 85 -200 68z" transform="translate(550,-550) scale(1,1)" stroke="none" fill="#F3A181"/>
</g>
<g id="pattern4" transform="matrix(1.618,0,0,1.618,1438,1438)matrix(0.87,0.5,-0.5,0.87,0,0)">
<path d="M148 184 c-27 -14 -39 -44 -18 -44 6 0 10 -4 10 -10 0 -5 -9 -10 -20 -10 -13 0 -20 -7 -20 -19 0 -22 20 -32 50 -24 15 4 26 -1 36 -16 8 -11 19 -21 25 -21 16 0 10 28 -8 39 -16 9 -16 11 -2 28 35 40 29 94 -10 93 -9 -1 -28 -8 -43 -16z" transform="translate(550,-550) scale(1,1)" stroke="none" fill="#936C3F"/>
<path d="M153 1033 c-13 -2 -23 -7 -23 -11 -3 -87 -14 -166 -36 -247 -58 -218 -59 -340 -6 -478 28 -73 76 -124 88 -94 3 9 15 18 27 21 20 5 113 88 145 130 33 42 74 151 92 242 10 54 28 126 39 158 12 33 21 69 21 81 0 25 -28 52 -83 80 -21 10 -50 33 -64 50 -53 64 -114 85 -200 68z" transform="translate(550,-550) scale(1,1)" stroke="none" fill="#F3A181"/>
</g>
</g>
</g>

<g id="4" transform="translate(5040.0,0)scale(0.25,0.25)">

<g id="pattern">
<rect width="5460" height="5460" fill="#D9D6A4"/>
<g id="pattern1" transform="matrix(1,0,0,1,340,340)">
<path d="M148 184 c-27 -14 -39 -44 -18 -44 6 0 10 -4 10 -10 0 -5 -9 -10 -20 -10 -13 0 -20 -7 -20 -19 0 -22 20 -32 50 -24 15 4 26 -1 36 -16 8 -11 19 -21 25 -21 16 0 10 28 -8 39 -16 9 -16 11 -2 28 35 40 29 94 -10 93 -9 -1 -28 -8 -43 -16z" transform="translate(0.000000,0.000000) scale(1,1)" stroke="none" fill="#936C3F"/>
<path d="M153 1033 c-13 -2 -23 -7 -23 -11 -3 -87 -14 -166 -36 -247 -58 -218 -59 -340 -6 -478 28 -73 76 -124 88 -94 3 9 15 18 27 21 20 5 113 88 145 130 33 42 74 151 92 242 10 54 28 126 39 158 12 33 21 69 21 81 0 25 -28 52 -83 80 -21 10 -50 33 -64 50 -53 64 -114 85 -200 68z" transform="translate(0.000000,0.000000) scale(1,1)" stroke="none" fill="#F3A181"/>
</g>
<g id="pattern2" transform="matrix(0.618,0,0,0.618,2587,760)">
<path d="M148 184 c-27 -14 -39 -44 -18 -44 6 0 10 -4 10 -10 0 -5 -9 -10 -20 -10 -13 0 -20 -7 -20 -19 0 -22 20 -32 50 -24 15 4 26 -1 36 -16 8 -11 19 -21 25 -21 16 0 10 28 -8 39 -16 9 -16 11 -2 28 35 40 29 94 -10 93 -9 -1 -28 -8 -43 -16z" transform="translate(3427,0.000000) scale(-1,1)" stroke="none" fill="#936C3F"/>
<path d="M153 1033 c-13 -2 -23 -7 -23 -11 -3 -87 -14 -166 -36 -247 -58 -218 -59 -340 -6 -478 28 -73 76 -124 88 -94 3 9 15 18 27 21 20 5 113 88 145 130 33 42 74 151 92 242 10 54 28 126 39 158 12 33 21 69 21 81 0 25 -28 52 -83 80 -21 10 -50 33 -64 50 -53 64 -114 85 -200 68z" transform="translate(3427,0.000000) scale(-1,1)" stroke="none" fill="#F3A181"/>
</g>
<g id="pattern3" transform="matrix(0.618,0,0,0.618,970,3427)matrix(0.71,0.71,-0.71,0.71,0,0)">
<path d="M148 184 c-27 -14 -39 -44 -18 -44 6 0 10 -4 10 -10 0 -5 -9 -10 -20 -10 -13 0 -20 -7 -20 -19 0 -22 20 -32 50 -24 15 4 26 -1 36 -16 8 -11 19 -21 25 -21 16 0 10 28 -8 39 -16 9 -16 11 -2 28 35 40 29 94 -10 93 -9 -1 -28 -8 -43 -16z" transform="translate(550,-550) scale(1,1)" stroke="none" fill="#936C3F"/>
<path d="M153 1033 c-13 -2 -23 -7 -23 -11 -3 -87 -14 -166 -36 -247 -58 -218 -59 -340 -6 -478 28 -73 76 -124 88 -94 3 9 15 18 27 21 20 5 113 88 145 130 33 42 74 151 92 242 10 54 28 126 39 158 12 33 21 69 21 81 0 25 -28 52 -83 80 -21 10 -50 33 -64 50 -53 64 -114 85 -200 68z" transform="translate(550,-550) scale(1,1)" stroke="none" fill="#F3A181"/>
</g>
<g id="pattern4" transform="matrix(1.618,0,0,1.618,1438,1438)matrix(0.87,0.5,-0.5,0.87,0,0)">
<path d="M148 184 c-27 -14 -39 -44 -18 -44 6 0 10 -4 10 -10 0 -5 -9 -10 -20 -10 -13 0 -20 -7 -20 -19 0 -22 20 -32 50 -24 15 4 26 -1 36 -16 8 -11 19 -21 25 -21 16 0 10 28 -8 39 -16 9 -16 11 -2 28 35 40 29 94 -10 93 -9 -1 -28 -8 -43 -16z" transform="translate(550,-550) scale(1,1)" stroke="none" fill="#936C3F"/>
<path d="M153 1033 c-13 -2 -23 -7 -23 -11 -3 -87 -14 -166 -36 -247 -58 -218 -59 -340 -6 -478 28 -73 76 -124 88 -94 3 9 15 18 27 21 20 5 113 88 145 130 33 42 74 151 92 242 10 54 28 126 39 158 12 33 21 69 21 81 0 25 -28 52 -83 80 -21 10 -50 33 -64 50 -53 64 -114 85 -200 68z" transform="translate(550,-550) scale(1,1)" stroke="none" fill="#F3A181"/>
</g>
</g>
</g>

</g>
<g id="row1" transform="translate(0,1260.0)">
<g id="0" transform="translate(0.0,0)scale(0.25,0.25)">

<g id="pattern">
<rect width="5460" height="5460" fill="#D9D6A4"/>
<g id="pattern1" transform="matrix(1,0,0,1,340,340)">
<path d="M148 184 c-27 -14 -39 -44 -18 -44 6 0 10 -4 10 -10 0 -5 -9 -10 -20 -10 -13 0 -20 -7 -20 -19 0 -22 20 -32 50 -24 15 4 26 -1 36 -16 8 -11 19 -21 25 -21 16 0 10 28 -8 39 -16 9 -16 11 -2 28 35 40 29 94 -10 93 -9 -1 -28 -8 -43 -16z" transform="translate(0.000000,0.000000) scale(1,1)" stroke="none" fill="#936C3F"/>
<path d="M153 1033 c-13 -2 -23 -7 -23 -11 -3 -87 -14 -166 -36 -247 -58 -218 -59 -340 -6 -478 28 -73 76 -124 88 -94 3 9 15 18 27 21 20 5 113 88 145 130 33 42 74 151 92 242 10 54 28 126 39 158 12 33 21 69 21 81 0 25 -28 52 -83 80 -21 10 -50 33 -64 50 -53 64 -114 85 -200 68z" transform="translate(0.000000,0.000000) scale(1,1)" stroke="none" fill="#F3A181"/>
</g>
<g id="pattern2" transform="matrix(0.618,0,0,0.618,2587,760)">
<path d="M148 184 c-27 -14 -39 -44 -18 -44 6 0 10 -4 10 -10 0 -5 -9 -10 -20 -10 -13 0 -20 -7 -20 -19 0 -22 20 -32 50 -24 15 4 26 -1 36 -16 8 -11 19 -21 25 -21 16 0 10 28 -8 39 -16 9 -16 11 -2 28 35 40 29 94 -10 93 -9 -1 -28 -8 -43 -16z" transform="translate(3427,0.000000) scale(-1,1)" stroke="none" fill="#936C3F"/>
<path d="M153 1033 c-13 -2 -23 -7 -23 -11 -3 -87 -14 -166 -36 -247 -58 -218 -59 -340 -6 -478 28 -73 76 -124 88 -94 3 9 15 18 27 21 20 5 113 88 145 130 33 42 74 151 92 242 10 54 28 126 39 158 12 33 21 69 21 81 0 25 -28 52 -83 80 -21 10 -50 33 -64 50 -53 64 -114 85 -200 68z" transform="translate(3427,0.000000) scale(-1,1)" stroke="none" fill="#F3A181"/>
</g>
<g id="pattern3" transform="matrix(0.618,0,0,0.618,970,3427)matrix(0.71,0.71,-0.71,0.71,0,0)">
<path d="M148 184 c-27 -14 -39 -44 -18 -44 6 0 10 -4 10 -10 0 -5 -9 -10 -20 -10 -13 0 -20 -7 -20 -19 0 -22 20 -32 50 -24 15 4 26 -1 36 -16 8 -11 19 -21 25 -21 16 0 10 28 -8 39 -16 9 -16 11 -2 28 35 40 29 94 -10 93 -9 -1 -28 -8 -43 -16z" transform="translate(550,-550) scale(1,1)" stroke="none" fill="#936C3F"/>
<path d="M153 1033 c-13 -2 -23 -7 -23 -11 -3 -87 -14 -166 -36 -247 -58 -218 -59 -340 -6 -478 28 -73 76 -124 88 -94 3 9 15 18 27 21 20 5 113 88 145 130 33 42 74 151 92 242 10 54 28 126 39 158 12 33 21 69 21 81 0 25 -28 52 -83 80 -21 10 -50 33 -64 50 -53 64 -114 85 -200 68z" transform="translate(550,-550) scale(1,1)" stroke="none" fill="#F3A181"/>
</g>
<g id="pattern4" transform="matrix(1.618,0,0,1.618,1438,1438)matrix(0.87,0.5,-0.5,0.87,0,0)">
<path d="M148 184 c-27 -14 -39 -44 -18 -44 6 0 10 -4 10 -10 0 -5 -9 -10 -20 -10 -13 0 -20 -7 -20 -19 0 -22 20 -32 50 -24 15 4 26 -1 36 -16 8 -11 19 -21 25 -21 16 0 10 28 -8 39 -16 9 -16 11 -2 28 35 40 29 94 -10 93 -9 -1 -28 -8 -43 -16z" transform="translate(550,-550) scale(1,1)" stroke="none" fill="#936C3F"/>
<path d="M153 1033 c-13 -2 -23 -7 -23 -11 -3 -87 -14 -166 -36 -247 -58 -218 -59 -340 -6 -478 28 -73 76 -124 88 -94 3 9 15 18 27 21 20 5 113 88 145 130 33 42 74 151 92 242 10 54 28 126 39 158 12 33 21 69 21 81 0 25 -28 52 -83 80 -21 10 -50 33 -64 50 -53 64 -114 85 -200 68z" transform="translate(550,-550) scale(1,1)" stroke="none" fill="#F3A181"/>
</g>
</g>
</g>

<g id="1" transform="translate(1260.0,0)scale(0.25,0.25)">

<g id="pattern">
<rect width="5460" height="5460" fill="#D9D6A4"/>
<g id="pattern1" transform="matrix(1,0,0,1,340,340)">
<path d="M148 184 c-27 -14 -39 -44 -18 -44 6 0 10 -4 10 -10 0 -5 -9 -10 -20 -10 -13 0 -20 -7 -20 -19 0 -22 20 -32 50 -24 15 4 26 -1 36 -16 8 -11 19 -21 25 -21 16 0 10 28 -8 39 -16 9 -16 11 -2 28 35 40 29 94 -10 93 -9 -1 -28 -8 -43 -16z" transform="translate(0.000000,0.000000) scale(1,1)" stroke="none" fill="#936C3F"/>
<path d="M153 1033 c-13 -2 -23 -7 -23 -11 -3 -87 -14 -166 -36 -247 -58 -218 -59 -340 -6 -478 28 -73 76 -124 88 -94 3 9 15 18 27 21 20 5 113 88 145 130 33 42 74 151 92 242 10 54 28 126 39 158 12 33 21 69 21 81 0 25 -28 52 -83 80 -21 10 -50 33 -64 50 -53 64 -114 85 -200 68z" transform="translate(0.000000,0.000000) scale(1,1)" stroke="none" fill="#F3A181"/>
</g>
<g id="pattern2" transform="matrix(0.618,0,0,0.618,2587,760)">
<path d="M148 184 c-27 -14 -39 -44 -18 -44 6 0 10 -4 10 -10 0 -5 -9 -10 -20 -10 -13 0 -20 -7 -20 -19 0 -22 20 -32 50 -24 15 4 26 -1 36 -16 8 -11 19 -21 25 -21 16 0 10 28 -8 39 -16 9 -16 11 -2 28 35 40 29 94 -10 93 -9 -1 -28 -8 -43 -16z" transform="translate(3427,0.000000) scale(-1,1)" stroke="none" fill="#936C3F"/>
<path d="M153 1033 c-13 -2 -23 -7 -23 -11 -3 -87 -14 -166 -36 -247 -58 -218 -59 -340 -6 -478 28 -73 76 -124 88 -94 3 9 15 18 27 21 20 5 113 88 145 130 33 42 74 151 92 242 10 54 28 126 39 158 12 33 21 69 21 81 0 25 -28 52 -83 80 -21 10 -50 33 -64 50 -53 64 -114 85 -200 68z" transform="translate(3427,0.000000) scale(-1,1)" stroke="none" fill="#F3A181"/>
</g>
<g id="pattern3" transform="matrix(0.618,0,0,0.618,970,3427)matrix(0.71,0.71,-0.71,0.71,0,0)">
<path d="M148 184 c-27 -14 -39 -44 -18 -44 6 0 10 -4 10 -10 0 -5 -9 -10 -20 -10 -13 0 -20 -7 -20 -19 0 -22 20 -32 50 -24 15 4 26 -1 36 -16 8 -11 19 -21 25 -21 16 0 10 28 -8 39 -16 9 -16 11 -2 28 35 40 29 94 -10 93 -9 -1 -28 -8 -43 -16z" transform="translate(550,-550) scale(1,1)" stroke="none" fill="#936C3F"/>
<path d="M153 1033 c-13 -2 -23 -7 -23 -11 -3 -87 -14 -166 -36 -247 -58 -218 -59 -340 -6 -478 28 -73 76 -124 88 -94 3 9 15 18 27 21 20 5 113 88 145 130 33 42 74 151 92 242 10 54 28 126 39 158 12 33 21 69 21 81 0 25 -28 52 -83 80 -21 10 -50 33 -64 50 -53 64 -114 85 -200 68z" transform="translate(550,-550) scale(1,1)" stroke="none" fill="#F3A181"/>
</g>
<g id="pattern4" transform="matrix(1.618,0,0,1.618,1438,1438)matrix(0.87,0.5,-0.5,0.87,0,0)">
<path d="M148 184 c-27 -14 -39 -44 -18 -44 6 0 10 -4 10 -10 0 -5 -9 -10 -20 -10 -13 0 -20 -7 -20 -19 0 -22 20 -32 50 -24 15 4 26 -1 36 -16 8 -11 19 -21 25 -21 16 0 10 28 -8 39 -16 9 -16 11 -2 28 35 40 29 94 -10 93 -9 -1 -28 -8 -43 -16z" transform="translate(550,-550) scale(1,1)" stroke="none" fill="#936C3F"/>
<path d="M153 1033 c-13 -2 -23 -7 -23 -11 -3 -87 -14 -166 -36 -247 -58 -218 -59 -340 -6 -478 28 -73 76 -124 88 -94 3 9 15 18 27 21 20 5 113 88 145 130 33 42 74 151 92 242 10 54 28 126 39 158 12 33 21 69 21 81 0 25 -28 52 -83 80 -21 10 -50 33 -64 50 -53 64 -114 85 -200 68z" transform="translate(550,-550) scale(1,1)" stroke="none" fill="#F3A181"/>
</g>
</g>
</g>

<g id="2" transform="translate(2520.0,0)scale(0.25,0.25)">

<g id="pattern">
<rect width="5460" height="5460" fill="#D9D6A4"/>
<g id="pattern1" transform="matrix(1,0,0,1,340,340)">
<path d="M148 184 c-27 -14 -39 -44 -18 -44 6 0 10 -4 10 -10 0 -5 -9 -10 -20 -10 -13 0 -20 -7 -20 -19 0 -22 20 -32 50 -24 15 4 26 -1 36 -16 8 -11 19 -21 25 -21 16 0 10 28 -8 39 -16 9 -16 11 -2 28 35 40 29 94 -10 93 -9 -1 -28 -8 -43 -16z" transform="translate(0.000000,0.000000) scale(1,1)" stroke="none" fill="#936C3F"/>
<path d="M153 1033 c-13 -2 -23 -7 -23 -11 -3 -87 -14 -166 -36 -247 -58 -218 -59 -340 -6 -478 28 -73 76 -124 88 -94 3 9 15 18 27 21 20 5 113 88 145 130 33 42 74 151 92 242 10 54 28 126 39 158 12 33 21 69 21 81 0 25 -28 52 -83 80 -21 10 -50 33 -64 50 -53 64 -114 85 -200 68z" transform="translate(0.000000,0.000000) scale(1,1)" stroke="none" fill="#F3A181"/>
</g>
<g id="pattern2" transform="matrix(0.618,0,0,0.618,2587,760)">
<path d="M148 184 c-27 -14 -39 -44 -18 -44 6 0 10 -4 10 -10 0 -5 -9 -10 -20 -10 -13 0 -20 -7 -20 -19 0 -22 20 -32 50 -24 15 4 26 -1 36 -16 8 -11 19 -21 25 -21 16 0 10 28 -8 39 -16 9 -16 11 -2 28 35 40 29 94 -10 93 -9 -1 -28 -8 -43 -16z" transform="translate(3427,0.000000) scale(-1,1)" stroke="none" fill="#936C3F"/>
<path d="M153 1033 c-13 -2 -23 -7 -23 -11 -3 -87 -14 -166 -36 -247 -58 -218 -59 -340 -6 -478 28 -73 76 -124 88 -94 3 9 15 18 27 21 20 5 113 88 145 130 33 42 74 151 92 242 10 54 28 126 39 158 12 33 21 69 21 81 0 25 -28 52 -83 80 -21 10 -50 33 -64 50 -53 64 -114 85 -200 68z" transform="translate(3427,0.000000) scale(-1,1)" stroke="none" fill="#F3A181"/>
</g>
<g id="pattern3" transform="matrix(0.618,0,0,0.618,970,3427)matrix(0.71,0.71,-0.71,0.71,0,0)">
<path d="M148 184 c-27 -14 -39 -44 -18 -44 6 0 10 -4 10 -10 0 -5 -9 -10 -20 -10 -13 0 -20 -7 -20 -19 0 -22 20 -32 50 -24 15 4 26 -1 36 -16 8 -11 19 -21 25 -21 16 0 10 28 -8 39 -16 9 -16 11 -2 28 35 40 29 94 -10 93 -9 -1 -28 -8 -43 -16z" transform="translate(550,-550) scale(1,1)" stroke="none" fill="#936C3F"/>
<path d="M153 1033 c-13 -2 -23 -7 -23 -11 -3 -87 -14 -166 -36 -247 -58 -218 -59 -340 -6 -478 28 -73 76 -124 88 -94 3 9 15 18 27 21 20 5 113 88 145 130 33 42 74 151 92 242 10 54 28 126 39 158 12 33 21 69 21 81 0 25 -28 52 -83 80 -21 10 -50 33 -64 50 -53 64 -114 85 -200 68z" transform="translate(550,-550) scale(1,1)" stroke="none" fill="#F3A181"/>
</g>
<g id="pattern4" transform="matrix(1.618,0,0,1.618,1438,1438)matrix(0.87,0.5,-0.5,0.87,0,0)">
<path d="M148 184 c-27 -14 -39 -44 -18 -44 6 0 10 -4 10 -10 0 -5 -9 -10 -20 -10 -13 0 -20 -7 -20 -19 0 -22 20 -32 50 -24 15 4 26 -1 36 -16 8 -11 19 -21 25 -21 16 0 10 28 -8 39 -16 9 -16 11 -2 28 35 40 29 94 -10 93 -9 -1 -28 -8 -43 -16z" transform="translate(550,-550) scale(1,1)" stroke="none" fill="#936C3F"/>
<path d="M153 1033 c-13 -2 -23 -7 -23 -11 -3 -87 -14 -166 -36 -247 -58 -218 -59 -340 -6 -478 28 -73 76 -124 88 -94 3 9 15 18 27 21 20 5 113 88 145 130 33 42 74 151 92 242 10 54 28 126 39 158 12 33 21 69 21 81 0 25 -28 52 -83 80 -21 10 -50 33 -64 50 -53 64 -114 85 -200 68z" transform="translate(550,-550) scale(1,1)" stroke="none" fill="#F3A181"/>
</g>
</g>
</g>

<g id="3" transform="translate(3780.0,0)scale(0.25,0.25)">

<g id="pattern">
<rect width="5460" height="5460" fill="#D9D6A4"/>
<g id="pattern1" transform="matrix(1,0,0,1,340,340)">
<path d="M148 184 c-27 -14 -39 -44 -18 -44 6 0 10 -4 10 -10 0 -5 -9 -10 -20 -10 -13 0 -20 -7 -20 -19 0 -22 20 -32 50 -24 15 4 26 -1 36 -16 8 -11 19 -21 25 -21 16 0 10 28 -8 39 -16 9 -16 11 -2 28 35 40 29 94 -10 93 -9 -1 -28 -8 -43 -16z" transform="translate(0.000000,0.000000) scale(1,1)" stroke="none" fill="#936C3F"/>
<path d="M153 1033 c-13 -2 -23 -7 -23 -11 -3 -87 -14 -166 -36 -247 -58 -218 -59 -340 -6 -478 28 -73 76 -124 88 -94 3 9 15 18 27 21 20 5 113 88 145 130 33 42 74 151 92 242 10 54 28 126 39 158 12 33 21 69 21 81 0 25 -28 52 -83 80 -21 10 -50 33 -64 50 -53 64 -114 85 -200 68z" transform="translate(0.000000,0.000000) scale(1,1)" stroke="none" fill="#F3A181"/>
</g>
<g id="pattern2" transform="matrix(0.618,0,0,0.618,2587,760)">
<path d="M148 184 c-27 -14 -39 -44 -18 -44 6 0 10 -4 10 -10 0 -5 -9 -10 -20 -10 -13 0 -20 -7 -20 -19 0 -22 20 -32 50 -24 15 4 26 -1 36 -16 8 -11 19 -21 25 -21 16 0 10 28 -8 39 -16 9 -16 11 -2 28 35 40 29 94 -10 93 -9 -1 -28 -8 -43 -16z" transform="translate(3427,0.000000) scale(-1,1)" stroke="none" fill="#936C3F"/>
<path d="M153 1033 c-13 -2 -23 -7 -23 -11 -3 -87 -14 -166 -36 -247 -58 -218 -59 -340 -6 -478 28 -73 76 -124 88 -94 3 9 15 18 27 21 20 5 113 88 145 130 33 42 74 151 92 242 10 54 28 126 39 158 12 33 21 69 21 81 0 25 -28 52 -83 80 -21 10 -50 33 -64 50 -53 64 -114 85 -200 68z" transform="translate(3427,0.000000) scale(-1,1)" stroke="none" fill="#F3A181"/>
</g>
<g id="pattern3" transform="matrix(0.618,0,0,0.618,970,3427)matrix(0.71,0.71,-0.71,0.71,0,0)">
<path d="M148 184 c-27 -14 -39 -44 -18 -44 6 0 10 -4 10 -10 0 -5 -9 -10 -20 -10 -13 0 -20 -7 -20 -19 0 -22 20 -32 50 -24 15 4 26 -1 36 -16 8 -11 19 -21 25 -21 16 0 10 28 -8 39 -16 9 -16 11 -2 28 35 40 29 94 -10 93 -9 -1 -28 -8 -43 -16z" transform="translate(550,-550) scale(1,1)" stroke="none" fill="#936C3F"/>
<path d="M153 1033 c-13 -2 -23 -7 -23 -11 -3 -87 -14 -166 -36 -247 -58 -218 -59 -340 -6 -478 28 -73 76 -124 88 -94 3 9 15 18 27 21 20 5 113 88 145 130 33 42 74 151 92 242 10 54 28 126 39 158 12 33 21 69 21 81 0 25 -28 52 -83 80 -21 10 -50 33 -64 50 -53 64 -114 85 -200 68z" transform="translate(550,-550) scale(1,1)" stroke="none" fill="#F3A181"/>
</g>
<g id="pattern4" transform="matrix(1.618,0,0,1.618,1438,1438)matrix(0.87,0.5,-0.5,0.87,0,0)">
<path d="M148 184 c-27 -14 -39 -44 -18 -44 6 0 10 -4 10 -10 0 -5 -9 -10 -20 -10 -13 0 -20 -7 -20 -19 0 -22 20 -32 50 -24 15 4 26 -1 36 -16 8 -11 19 -21 25 -21 16 0 10 28 -8 39 -16 9 -16 11 -2 28 35 40 29 94 -10 93 -9 -1 -28 -8 -43 -16z" transform="translate(550,-550) scale(1,1)" stroke="none" fill="#936C3F"/>
<path d="M153 1033 c-13 -2 -23 -7 -23 -11 -3 -87 -14 -166 -36 -247 -58 -218 -59 -340 -6 -478 28 -73 76 -124 88 -94 3 9 15 18 27 21 20 5 113 88 145 130 33 42 74 151 92 242 10 54 28 126 39 158 12 33 21 69 21 81 0 25 -28 52 -83 80 -21 10 -50 33 -64 50 -53 64 -114 85 -200 68z" transform="translate(550,-550) scale(1,1)" stroke="none" fill="#F3A181"/>
</g>
</g>
</g>

<g id="4" transform="translate(5040.0,0)scale(0.25,0.25)">

<g id="pattern">
<rect width="5460" height="5460" fill="#D9D6A4"/>
<g id="pattern1" transform="matrix(1,0,0,1,340,340)">
<path d="M148 184 c-27 -14 -39 -44 -18 -44 6 0 10 -4 10 -10 0 -5 -9 -10 -20 -10 -13 0 -20 -7 -20 -19 0 -22 20 -32 50 -24 15 4 26 -1 36 -16 8 -11 19 -21 25 -21 16 0 10 28 -8 39 -16 9 -16 11 -2 28 35 40 29 94 -10 93 -9 -1 -28 -8 -43 -16z" transform="translate(0.000000,0.000000) scale(1,1)" stroke="none" fill="#936C3F"/>
<path d="M153 1033 c-13 -2 -23 -7 -23 -11 -3 -87 -14 -166 -36 -247 -58 -218 -59 -340 -6 -478 28 -73 76 -124 88 -94 3 9 15 18 27 21 20 5 113 88 145 130 33 42 74 151 92 242 10 54 28 126 39 158 12 33 21 69 21 81 0 25 -28 52 -83 80 -21 10 -50 33 -64 50 -53 64 -114 85 -200 68z" transform="translate(0.000000,0.000000) scale(1,1)" stroke="none" fill="#F3A181"/>
</g>
<g id="pattern2" transform="matrix(0.618,0,0,0.618,2587,760)">
<path d="M148 184 c-27 -14 -39 -44 -18 -44 6 0 10 -4 10 -10 0 -5 -9 -10 -20 -10 -13 0 -20 -7 -20 -19 0 -22 20 -32 50 -24 15 4 26 -1 36 -16 8 -11 19 -21 25 -21 16 0 10 28 -8 39 -16 9 -16 11 -2 28 35 40 29 94 -10 93 -9 -1 -28 -8 -43 -16z" transform="translate(3427,0.000000) scale(-1,1)" stroke="none" fill="#936C3F"/>
<path d="M153 1033 c-13 -2 -23 -7 -23 -11 -3 -87 -14 -166 -36 -247 -58 -218 -59 -340 -6 -478 28 -73 76 -124 88 -94 3 9 15 18 27 21 20 5 113 88 145 130 33 42 74 151 92 242 10 54 28 126 39 158 12 33 21 69 21 81 0 25 -28 52 -83 80 -21 10 -50 33 -64 50 -53 64 -114 85 -200 68z" transform="translate(3427,0.000000) scale(-1,1)" stroke="none" fill="#F3A181"/>
</g>
<g id="pattern3" transform="matrix(0.618,0,0,0.618,970,3427)matrix(0.71,0.71,-0.71,0.71,0,0)">
<path d="M148 184 c-27 -14 -39 -44 -18 -44 6 0 10 -4 10 -10 0 -5 -9 -10 -20 -10 -13 0 -20 -7 -20 -19 0 -22 20 -32 50 -24 15 4 26 -1 36 -16 8 -11 19 -21 25 -21 16 0 10 28 -8 39 -16 9 -16 11 -2 28 35 40 29 94 -10 93 -9 -1 -28 -8 -43 -16z" transform="translate(550,-550) scale(1,1)" stroke="none" fill="#936C3F"/>
<path d="M153 1033 c-13 -2 -23 -7 -23 -11 -3 -87 -14 -166 -36 -247 -58 -218 -59 -340 -6 -478 28 -73 76 -124 88 -94 3 9 15 18 27 21 20 5 113 88 145 130 33 42 74 151 92 242 10 54 28 126 39 158 12 33 21 69 21 81 0 25 -28 52 -83 80 -21 10 -50 33 -64 50 -53 64 -114 85 -200 68z" transform="translate(550,-550) scale(1,1)" stroke="none" fill="#F3A181"/>
</g>
<g id="pattern4" transform="matrix(1.618,0,0,1.618,1438,1438)matrix(0.87,0.5,-0.5,0.87,0,0)">
<path d="M148 184 c-27 -14 -39 -44 -18 -44 6 0 10 -4 10 -10 0 -5 -9 -10 -20 -10 -13 0 -20 -7 -20 -19 0 -22 20 -32 50 -24 15 4 26 -1 36 -16 8 -11 19 -21 25 -21 16 0 10 28 -8 39 -16 9 -16 11 -2 28 35 40 29 94 -10 93 -9 -1 -28 -8 -43 -16z" transform="translate(550,-550) scale(1,1)" stroke="none" fill="#936C3F"/>
<path d="M153 1033 c-13 -2 -23 -7 -23 -11 -3 -87 -14 -166 -36 -247 -58 -218 -59 -340 -6 -478 28 -73 76 -124 88 -94 3 9 15 18 27 21 20 5 113 88 145 130 33 42 74 151 92 242 10 54 28 126 39 158 12 33 21 69 21 81 0 25 -28 52 -83 80 -21 10 -50 33 -64 50 -53 64 -114 85 -200 68z" transform="translate(550,-550) scale(1,1)" stroke="none" fill="#F3A181"/>
</g>
</g>
</g>

</g>
<g id="row2" transform="translate(0,2520.0)">
<g id="0" transform="translate(0.0,0)scale(0.25,0.25)">

<g id="pattern">
<rect width="5460" height="5460" fill="#D9D6A4"/>
<g id="pattern1" transform="matrix(1,0,0,1,340,340)">
<path d="M148 184 c-27 -14 -39 -44 -18 -44 6 0 10 -4 10 -10 0 -5 -9 -10 -20 -10 -13 0 -20 -7 -20 -19 0 -22 20 -32 50 -24 15 4 26 -1 36 -16 8 -11 19 -21 25 -21 16 0 10 28 -8 39 -16 9 -16 11 -2 28 35 40 29 94 -10 93 -9 -1 -28 -8 -43 -16z" transform="translate(0.000000,0.000000) scale(1,1)" stroke="none" fill="#936C3F"/>
<path d="M153 1033 c-13 -2 -23 -7 -23 -11 -3 -87 -14 -166 -36 -247 -58 -218 -59 -340 -6 -478 28 -73 76 -124 88 -94 3 9 15 18 27 21 20 5 113 88 145 130 33 42 74 151 92 242 10 54 28 126 39 158 12 33 21 69 21 81 0 25 -28 52 -83 80 -21 10 -50 33 -64 50 -53 64 -114 85 -200 68z" transform="translate(0.000000,0.000000) scale(1,1)" stroke="none" fill="#F3A181"/>
</g>
<g id="pattern2" transform="matrix(0.618,0,0,0.618,2587,760)">
<path d="M148 184 c-27 -14 -39 -44 -18 -44 6 0 10 -4 10 -10 0 -5 -9 -10 -20 -10 -13 0 -20 -7 -20 -19 0 -22 20 -32 50 -24 15 4 26 -1 36 -16 8 -11 19 -21 25 -21 16 0 10 28 -8 39 -16 9 -16 11 -2 28 35 40 29 94 -10 93 -9 -1 -28 -8 -43 -16z" transform="translate(3427,0.000000) scale(-1,1)" stroke="none" fill="#936C3F"/>
<path d="M153 1033 c-13 -2 -23 -7 -23 -11 -3 -87 -14 -166 -36 -247 -58 -218 -59 -340 -6 -478 28 -73 76 -124 88 -94 3 9 15 18 27 21 20 5 113 88 145 130 33 42 74 151 92 242 10 54 28 126 39 158 12 33 21 69 21 81 0 25 -28 52 -83 80 -21 10 -50 33 -64 50 -53 64 -114 85 -200 68z" transform="translate(3427,0.000000) scale(-1,1)" stroke="none" fill="#F3A181"/>
</g>
<g id="pattern3" transform="matrix(0.618,0,0,0.618,970,3427)matrix(0.71,0.71,-0.71,0.71,0,0)">
<path d="M148 184 c-27 -14 -39 -44 -18 -44 6 0 10 -4 10 -10 0 -5 -9 -10 -20 -10 -13 0 -20 -7 -20 -19 0 -22 20 -32 50 -24 15 4 26 -1 36 -16 8 -11 19 -21 25 -21 16 0 10 28 -8 39 -16 9 -16 11 -2 28 35 40 29 94 -10 93 -9 -1 -28 -8 -43 -16z" transform="translate(550,-550) scale(1,1)" stroke="none" fill="#936C3F"/>
<path d="M153 1033 c-13 -2 -23 -7 -23 -11 -3 -87 -14 -166 -36 -247 -58 -218 -59 -340 -6 -478 28 -73 76 -124 88 -94 3 9 15 18 27 21 20 5 113 88 145 130 33 42 74 151 92 242 10 54 28 126 39 158 12 33 21 69 21 81 0 25 -28 52 -83 80 -21 10 -50 33 -64 50 -53 64 -114 85 -200 68z" transform="translate(550,-550) scale(1,1)" stroke="none" fill="#F3A181"/>
</g>
<g id="pattern4" transform="matrix(1.618,0,0,1.618,1438,1438)matrix(0.87,0.5,-0.5,0.87,0,0)">
<path d="M148 184 c-27 -14 -39 -44 -18 -44 6 0 10 -4 10 -10 0 -5 -9 -10 -20 -10 -13 0 -20 -7 -20 -19 0 -22 20 -32 50 -24 15 4 26 -1 36 -16 8 -11 19 -21 25 -21 16 0 10 28 -8 39 -16 9 -16 11 -2 28 35 40 29 94 -10 93 -9 -1 -28 -8 -43 -16z" transform="translate(550,-550) scale(1,1)" stroke="none" fill="#936C3F"/>
<path d="M153 1033 c-13 -2 -23 -7 -23 -11 -3 -87 -14 -166 -36 -247 -58 -218 -59 -340 -6 -478 28 -73 76 -124 88 -94 3 9 15 18 27 21 20 5 113 88 145 130 33 42 74 151 92 242 10 54 28 126 39 158 12 33 21 69 21 81 0 25 -28 52 -83 80 -21 10 -50 33 -64 50 -53 64 -114 85 -200 68z" transform="translate(550,-550) scale(1,1)" stroke="none" fill="#F3A181"/>
</g>
</g>
</g>

<g id="1" transform="translate(1260.0,0)scale(0.25,0.25)">

<g id="pattern">
<rect width="5460" height="5460" fill="#D9D6A4"/>
<g id="pattern1" transform="matrix(1,0,0,1,340,340)">
<path d="M148 184 c-27 -14 -39 -44 -18 -44 6 0 10 -4 10 -10 0 -5 -9 -10 -20 -10 -13 0 -20 -7 -20 -19 0 -22 20 -32 50 -24 15 4 26 -1 36 -16 8 -11 19 -21 25 -21 16 0 10 28 -8 39 -16 9 -16 11 -2 28 35 40 29 94 -10 93 -9 -1 -28 -8 -43 -16z" transform="translate(0.000000,0.000000) scale(1,1)" stroke="none" fill="#936C3F"/>
<path d="M153 1033 c-13 -2 -23 -7 -23 -11 -3 -87 -14 -166 -36 -247 -58 -218 -59 -340 -6 -478 28 -73 76 -124 88 -94 3 9 15 18 27 21 20 5 113 88 145 130 33 42 74 151 92 242 10 54 28 126 39 158 12 33 21 69 21 81 0 25 -28 52 -83 80 -21 10 -50 33 -64 50 -53 64 -114 85 -200 68z" transform="translate(0.000000,0.000000) scale(1,1)" stroke="none" fill="#F3A181"/>
</g>
<g id="pattern2" transform="matrix(0.618,0,0,0.618,2587,760)">
<path d="M148 184 c-27 -14 -39 -44 -18 -44 6 0 10 -4 10 -10 0 -5 -9 -10 -20 -10 -13 0 -20 -7 -20 -19 0 -22 20 -32 50 -24 15 4 26 -1 36 -16 8 -11 19 -21 25 -21 16 0 10 28 -8 39 -16 9 -16 11 -2 28 35 40 29 94 -10 93 -9 -1 -28 -8 -43 -16z" transform="translate(3427,0.000000) scale(-1,1)" stroke="none" fill="#936C3F"/>
<path d="M153 1033 c-13 -2 -23 -7 -23 -11 -3 -87 -14 -166 -36 -247 -58 -218 -59 -340 -6 -478 28 -73 76 -124 88 -94 3 9 15 18 27 21 20 5 113 88 145 130 33 42 74 151 92 242 10 54 28 126 39 158 12 33 21 69 21 81 0 25 -28 52 -83 80 -21 10 -50 33 -64 50 -53 64 -114 85 -200 68z" transform="translate(3427,0.000000) scale(-1,1)" stroke="none" fill="#F3A181"/>
</g>
<g id="pattern3" transform="matrix(0.618,0,0,0.618,970,3427)matrix(0.71,0.71,-0.71,0.71,0,0)">
<path d="M148 184 c-27 -14 -39 -44 -18 -44 6 0 10 -4 10 -10 0 -5 -9 -10 -20 -10 -13 0 -20 -7 -20 -19 0 -22 20 -32 50 -24 15 4 26 -1 36 -16 8 -11 19 -21 25 -21 16 0 10 28 -8 39 -16 9 -16 11 -2 28 35 40 29 94 -10 93 -9 -1 -28 -8 -43 -16z" transform="translate(550,-550) scale(1,1)" stroke="none" fill="#936C3F"/>
<path d="M153 1033 c-13 -2 -23 -7 -23 -11 -3 -87 -14 -166 -36 -247 -58 -218 -59 -340 -6 -478 28 -73 76 -124 88 -94 3 9 15 18 27 21 20 5 113 88 145 130 33 42 74 151 92 242 10 54 28 126 39 158 12 33 21 69 21 81 0 25 -28 52 -83 80 -21 10 -50 33 -64 50 -53 64 -114 85 -200 68z" transform="translate(550,-550) scale(1,1)" stroke="none" fill="#F3A181"/>
</g>
<g id="pattern4" transform="matrix(1.618,0,0,1.618,1438,1438)matrix(0.87,0.5,-0.5,0.87,0,0)">
<path d="M148 184 c-27 -14 -39 -44 -18 -44 6 0 10 -4 10 -10 0 -5 -9 -10 -20 -10 -13 0 -20 -7 -20 -19 0 -22 20 -32 50 -24 15 4 26 -1 36 -16 8 -11 19 -21 25 -21 16 0 10 28 -8 39 -16 9 -16 11 -2 28 35 40 29 94 -10 93 -9 -1 -28 -8 -43 -16z" transform="translate(550,-550) scale(1,1)" stroke="none" fill="#936C3F"/>
<path d="M153 1033 c-13 -2 -23 -7 -23 -11 -3 -87 -14 -166 -36 -247 -58 -218 -59 -340 -6 -478 28 -73 76 -124 88 -94 3 9 15 18 27 21 20 5 113 88 145 130 33 42 74 151 92 242 10 54 28 126 39 158 12 33 21 69 21 81 0 25 -28 52 -83 80 -21 10 -50 33 -64 50 -53 64 -114 85 -200 68z" transform="translate(550,-550) scale(1,1)" stroke="none" fill="#F3A181"/>
</g>
</g>
</g>

<g id="2" transform="translate(2520.0,0)scale(0.25,0.25)">

<g id="pattern">
<rect width="5460" height="5460" fill="#D9D6A4"/>
<g id="pattern1" transform="matrix(1,0,0,1,340,340)">
<path d="M148 184 c-27 -14 -39 -44 -18 -44 6 0 10 -4 10 -10 0 -5 -9 -10 -20 -10 -13 0 -20 -7 -20 -19 0 -22 20 -32 50 -24 15 4 26 -1 36 -16 8 -11 19 -21 25 -21 16 0 10 28 -8 39 -16 9 -16 11 -2 28 35 40 29 94 -10 93 -9 -1 -28 -8 -43 -16z" transform="translate(0.000000,0.000000) scale(1,1)" stroke="none" fill="#936C3F"/>
<path d="M153 1033 c-13 -2 -23 -7 -23 -11 -3 -87 -14 -166 -36 -247 -58 -218 -59 -340 -6 -478 28 -73 76 -124 88 -94 3 9 15 18 27 21 20 5 113 88 145 130 33 42 74 151 92 242 10 54 28 126 39 158 12 33 21 69 21 81 0 25 -28 52 -83 80 -21 10 -50 33 -64 50 -53 64 -114 85 -200 68z" transform="translate(0.000000,0.000000) scale(1,1)" stroke="none" fill="#F3A181"/>
</g>
<g id="pattern2" transform="matrix(0.618,0,0,0.618,2587,760)">
<path d="M148 184 c-27 -14 -39 -44 -18 -44 6 0 10 -4 10 -10 0 -5 -9 -10 -20 -10 -13 0 -20 -7 -20 -19 0 -22 20 -32 50 -24 15 4 26 -1 36 -16 8 -11 19 -21 25 -21 16 0 10 28 -8 39 -16 9 -16 11 -2 28 35 40 29 94 -10 93 -9 -1 -28 -8 -43 -16z" transform="translate(3427,0.000000) scale(-1,1)" stroke="none" fill="#936C3F"/>
<path d="M153 1033 c-13 -2 -23 -7 -23 -11 -3 -87 -14 -166 -36 -247 -58 -218 -59 -340 -6 -478 28 -73 76 -124 88 -94 3 9 15 18 27 21 20 5 113 88 145 130 33 42 74 151 92 242 10 54 28 126 39 158 12 33 21 69 21 81 0 25 -28 52 -83 80 -21 10 -50 33 -64 50 -53 64 -114 85 -200 68z" transform="translate(3427,0.000000) scale(-1,1)" stroke="none" fill="#F3A181"/>
</g>
<g id="pattern3" transform="matrix(0.618,0,0,0.618,970,3427)matrix(0.71,0.71,-0.71,0.71,0,0)">
<path d="M148 184 c-27 -14 -39 -44 -18 -44 6 0 10 -4 10 -10 0 -5 -9 -10 -20 -10 -13 0 -20 -7 -20 -19 0 -22 20 -32 50 -24 15 4 26 -1 36 -16 8 -11 19 -21 25 -21 16 0 10 28 -8 39 -16 9 -16 11 -2 28 35 40 29 94 -10 93 -9 -1 -28 -8 -43 -16z" transform="translate(550,-550) scale(1,1)" stroke="none" fill="#936C3F"/>
<path d="M153 1033 c-13 -2 -23 -7 -23 -11 -3 -87 -14 -166 -36 -247 -58 -218 -59 -340 -6 -478 28 -73 76 -124 88 -94 3 9 15 18 27 21 20 5 113 88 145 130 33 42 74 151 92 242 10 54 28 126 39 158 12 33 21 69 21 81 0 25 -28 52 -83 80 -21 10 -50 33 -64 50 -53 64 -114 85 -200 68z" transform="translate(550,-550) scale(1,1)" stroke="none" fill="#F3A181"/>
</g>
<g id="pattern4" transform="matrix(1.618,0,0,1.618,1438,1438)matrix(0.87,0.5,-0.5,0.87,0,0)">
<path d="M148 184 c-27 -14 -39 -44 -18 -44 6 0 10 -4 10 -10 0 -5 -9 -10 -20 -10 -13 0 -20 -7 -20 -19 0 -22 20 -32 50 -24 15 4 26 -1 36 -16 8 -11 19 -21 25 -21 16 0 10 28 -8 39 -16 9 -16 11 -2 28 35 40 29 94 -10 93 -9 -1 -28 -8 -43 -16z" transform="translate(550,-550) scale(1,1)" stroke="none" fill="#936C3F"/>
<path d="M153 1033 c-13 -2 -23 -7 -23 -11 -3 -87 -14 -166 -36 -247 -58 -218 -59 -340 -6 -478 28 -73 76 -124 88 -94 3 9 15 18 27 21 20 5 113 88 145 130 33 42 74 151 92 242 10 54 28 126 39 158 12 33 21 69 21 81 0 25 -28 52 -83 80 -21 10 -50 33 -64 50 -53 64 -114 85 -200 68z" transform="translate(550,-550) scale(1,1)" stroke="none" fill="#F3A181"/>
</g>
</g>
</g>

<g id="3" transform="translate(3780.0,0)scale(0.25,0.25)">

<g id="pattern">
<rect width="5460" height="5460" fill="#D9D6A4"/>
<g id="pattern1" transform="matrix(1,0,0,1,340,340)">
<path d="M148 184 c-27 -14 -39 -44 -18 -44 6 0 10 -4 10 -10 0 -5 -9 -10 -20 -10 -13 0 -20 -7 -20 -19 0 -22 20 -32 50 -24 15 4 26 -1 36 -16 8 -11 19 -21 25 -21 16 0 10 28 -8 39 -16 9 -16 11 -2 28 35 40 29 94 -10 93 -9 -1 -28 -8 -43 -16z" transform="translate(0.000000,0.000000) scale(1,1)" stroke="none" fill="#936C3F"/>
<path d="M153 1033 c-13 -2 -23 -7 -23 -11 -3 -87 -14 -166 -36 -247 -58 -218 -59 -340 -6 -478 28 -73 76 -124 88 -94 3 9 15 18 27 21 20 5 113 88 145 130 33 42 74 151 92 242 10 54 28 126 39 158 12 33 21 69 21 81 0 25 -28 52 -83 80 -21 10 -50 33 -64 50 -53 64 -114 85 -200 68z" transform="translate(0.000000,0.000000) scale(1,1)" stroke="none" fill="#F3A181"/>
</g>
<g id="pattern2" transform="matrix(0.618,0,0,0.618,2587,760)">
<path d="M148 184 c-27 -14 -39 -44 -18 -44 6 0 10 -4 10 -10 0 -5 -9 -10 -20 -10 -13 0 -20 -7 -20 -19 0 -22 20 -32 50 -24 15 4 26 -1 36 -16 8 -11 19 -21 25 -21 16 0 10 28 -8 39 -16 9 -16 11 -2 28 35 40 29 94 -10 93 -9 -1 -28 -8 -43 -16z" transform="translate(3427,0.000000) scale(-1,1)" stroke="none" fill="#936C3F"/>
<path d="M153 1033 c-13 -2 -23 -7 -23 -11 -3 -87 -14 -166 -36 -247 -58 -218 -59 -340 -6 -478 28 -73 76 -124 88 -94 3 9 15 18 27 21 20 5 113 88 145 130 33 42 74 151 92 242 10 54 28 126 39 158 12 33 21 69 21 81 0 25 -28 52 -83 80 -21 10 -50 33 -64 50 -53 64 -114 85 -200 68z" transform="translate(3427,0.000000) scale(-1,1)" stroke="none" fill="#F3A181"/>
</g>
<g id="pattern3" transform="matrix(0.618,0,0,0.618,970,3427)matrix(0.71,0.71,-0.71,0.71,0,0)">
<path d="M148 184 c-27 -14 -39 -44 -18 -44 6 0 10 -4 10 -10 0 -5 -9 -10 -20 -10 -13 0 -20 -7 -20 -19 0 -22 20 -32 50 -24 15 4 26 -1 36 -16 8 -11 19 -21 25 -21 16 0 10 28 -8 39 -16 9 -16 11 -2 28 35 40 29 94 -10 93 -9 -1 -28 -8 -43 -16z" transform="translate(550,-550) scale(1,1)" stroke="none" fill="#936C3F"/>
<path d="M153 1033 c-13 -2 -23 -7 -23 -11 -3 -87 -14 -166 -36 -247 -58 -218 -59 -340 -6 -478 28 -73 76 -124 88 -94 3 9 15 18 27 21 20 5 113 88 145 130 33 42 74 151 92 242 10 54 28 126 39 158 12 33 21 69 21 81 0 25 -28 52 -83 80 -21 10 -50 33 -64 50 -53 64 -114 85 -200 68z" transform="translate(550,-550) scale(1,1)" stroke="none" fill="#F3A181"/>
</g>
<g id="pattern4" transform="matrix(1.618,0,0,1.618,1438,1438)matrix(0.87,0.5,-0.5,0.87,0,0)">
<path d="M148 184 c-27 -14 -39 -44 -18 -44 6 0 10 -4 10 -10 0 -5 -9 -10 -20 -10 -13 0 -20 -7 -20 -19 0 -22 20 -32 50 -24 15 4 26 -1 36 -16 8 -11 19 -21 25 -21 16 0 10 28 -8 39 -16 9 -16 11 -2 28 35 40 29 94 -10 93 -9 -1 -28 -8 -43 -16z" transform="translate(550,-550) scale(1,1)" stroke="none" fill="#936C3F"/>
<path d="M153 1033 c-13 -2 -23 -7 -23 -11 -3 -87 -14 -166 -36 -247 -58 -218 -59 -340 -6 -478 28 -73 76 -124 88 -94 3 9 15 18 27 21 20 5 113 88 145 130 33 42 74 151 92 242 10 54 28 126 39 158 12 33 21 69 21 81 0 25 -28 52 -83 80 -21 10 -50 33 -64 50 -53 64 -114 85 -200 68z" transform="translate(550,-550) scale(1,1)" stroke="none" fill="#F3A181"/>
</g>
</g>
</g>

<g id="4" transform="translate(5040.0,0)scale(0.25,0.25)">

<g id="pattern">
<rect width="5460" height="5460" fill="#D9D6A4"/>
<g id="pattern1" transform="matrix(1,0,0,1,340,340)">
<path d="M148 184 c-27 -14 -39 -44 -18 -44 6 0 10 -4 10 -10 0 -5 -9 -10 -20 -10 -13 0 -20 -7 -20 -19 0 -22 20 -32 50 -24 15 4 26 -1 36 -16 8 -11 19 -21 25 -21 16 0 10 28 -8 39 -16 9 -16 11 -2 28 35 40 29 94 -10 93 -9 -1 -28 -8 -43 -16z" transform="translate(0.000000,0.000000) scale(1,1)" stroke="none" fill="#936C3F"/>
<path d="M153 1033 c-13 -2 -23 -7 -23 -11 -3 -87 -14 -166 -36 -247 -58 -218 -59 -340 -6 -478 28 -73 76 -124 88 -94 3 9 15 18 27 21 20 5 113 88 145 130 33 42 74 151 92 242 10 54 28 126 39 158 12 33 21 69 21 81 0 25 -28 52 -83 80 -21 10 -50 33 -64 50 -53 64 -114 85 -200 68z" transform="translate(0.000000,0.000000) scale(1,1)" stroke="none" fill="#F3A181"/>
</g>
<g id="pattern2" transform="matrix(0.618,0,0,0.618,2587,760)">
<path d="M148 184 c-27 -14 -39 -44 -18 -44 6 0 10 -4 10 -10 0 -5 -9 -10 -20 -10 -13 0 -20 -7 -20 -19 0 -22 20 -32 50 -24 15 4 26 -1 36 -16 8 -11 19 -21 25 -21 16 0 10 28 -8 39 -16 9 -16 11 -2 28 35 40 29 94 -10 93 -9 -1 -28 -8 -43 -16z" transform="translate(3427,0.000000) scale(-1,1)" stroke="none" fill="#936C3F"/>
<path d="M153 1033 c-13 -2 -23 -7 -23 -11 -3 -87 -14 -166 -36 -247 -58 -218 -59 -340 -6 -478 28 -73 76 -124 88 -94 3 9 15 18 27 21 20 5 113 88 145 130 33 42 74 151 92 242 10 54 28 126 39 158 12 33 21 69 21 81 0 25 -28 52 -83 80 -21 10 -50 33 -64 50 -53 64 -114 85 -200 68z" transform="translate(3427,0.000000) scale(-1,1)" stroke="none" fill="#F3A181"/>
</g>
<g id="pattern3" transform="matrix(0.618,0,0,0.618,970,3427)matrix(0.71,0.71,-0.71,0.71,0,0)">
<path d="M148 184 c-27 -14 -39 -44 -18 -44 6 0 10 -4 10 -10 0 -5 -9 -10 -20 -10 -13 0 -20 -7 -20 -19 0 -22 20 -32 50 -24 15 4 26 -1 36 -16 8 -11 19 -21 25 -21 16 0 10 28 -8 39 -16 9 -16 11 -2 28 35 40 29 94 -10 93 -9 -1 -28 -8 -43 -16z" transform="translate(550,-550) scale(1,1)" stroke="none" fill="#936C3F"/>
<path d="M153 1033 c-13 -2 -23 -7 -23 -11 -3 -87 -14 -166 -36 -247 -58 -218 -59 -340 -6 -478 28 -73 76 -124 88 -94 3 9 15 18 27 21 20 5 113 88 145 130 33 42 74 151 92 242 10 54 28 126 39 158 12 33 21 69 21 81 0 25 -28 52 -83 80 -21 10 -50 33 -64 50 -53 64 -114 85 -200 68z" transform="translate(550,-550) scale(1,1)" stroke="none" fill="#F3A181"/>
</g>
<g id="pattern4" transform="matrix(1.618,0,0,1.618,1438,1438)matrix(0.87,0.5,-0.5,0.87,0,0)">
<path d="M148 184 c-27 -14 -39 -44 -18 -44 6 0 10 -4 10 -10 0 -5 -9 -10 -20 -10 -13 0 -20 -7 -20 -19 0 -22 20 -32 50 -24 15 4 26 -1 36 -16 8 -11 19 -21 25 -21 16 0 10 28 -8 39 -16 9 -16 11 -2 28 35 40 29 94 -10 93 -9 -1 -28 -8 -43 -16z" transform="translate(550,-550) scale(1,1)" stroke="none" fill="#936C3F"/>
<path d="M153 1033 c-13 -2 -23 -7 -23 -11 -3 -87 -14 -166 -36 -247 -58 -218 -59 -340 -6 -478 28 -73 76 -124 88 -94 3 9 15 18 27 21 20 5 113 88 145 130 33 42 74 151 92 242 10 54 28 126 39 158 12 33 21 69 21 81 0 25 -28 52 -83 80 -21 10 -50 33 -64 50 -53 64 -114 85 -200 68z" transform="translate(550,-550) scale(1,1)" stroke="none" fill="#F3A181"/>
</g>
</g>
</g>

</g>
<g id="row3" transform="translate(0,3780.0)">
<g id="0" transform="translate(0.0,0)scale(0.25,0.25)">

<g id="pattern">
<rect width="5460" height="5460" fill="#D9D6A4"/>
<g id="pattern1" transform="matrix(1,0,0,1,340,340)">
<path d="M148 184 c-27 -14 -39 -44 -18 -44 6 0 10 -4 10 -10 0 -5 -9 -10 -20 -10 -13 0 -20 -7 -20 -19 0 -22 20 -32 50 -24 15 4 26 -1 36 -16 8 -11 19 -21 25 -21 16 0 10 28 -8 39 -16 9 -16 11 -2 28 35 40 29 94 -10 93 -9 -1 -28 -8 -43 -16z" transform="translate(0.000000,0.000000) scale(1,1)" stroke="none" fill="#936C3F"/>
<path d="M153 1033 c-13 -2 -23 -7 -23 -11 -3 -87 -14 -166 -36 -247 -58 -218 -59 -340 -6 -478 28 -73 76 -124 88 -94 3 9 15 18 27 21 20 5 113 88 145 130 33 42 74 151 92 242 10 54 28 126 39 158 12 33 21 69 21 81 0 25 -28 52 -83 80 -21 10 -50 33 -64 50 -53 64 -114 85 -200 68z" transform="translate(0.000000,0.000000) scale(1,1)" stroke="none" fill="#F3A181"/>
</g>
<g id="pattern2" transform="matrix(0.618,0,0,0.618,2587,760)">
<path d="M148 184 c-27 -14 -39 -44 -18 -44 6 0 10 -4 10 -10 0 -5 -9 -10 -20 -10 -13 0 -20 -7 -20 -19 0 -22 20 -32 50 -24 15 4 26 -1 36 -16 8 -11 19 -21 25 -21 16 0 10 28 -8 39 -16 9 -16 11 -2 28 35 40 29 94 -10 93 -9 -1 -28 -8 -43 -16z" transform="translate(3427,0.000000) scale(-1,1)" stroke="none" fill="#936C3F"/>
<path d="M153 1033 c-13 -2 -23 -7 -23 -11 -3 -87 -14 -166 -36 -247 -58 -218 -59 -340 -6 -478 28 -73 76 -124 88 -94 3 9 15 18 27 21 20 5 113 88 145 130 33 42 74 151 92 242 10 54 28 126 39 158 12 33 21 69 21 81 0 25 -28 52 -83 80 -21 10 -50 33 -64 50 -53 64 -114 85 -200 68z" transform="translate(3427,0.000000) scale(-1,1)" stroke="none" fill="#F3A181"/>
</g>
<g id="pattern3" transform="matrix(0.618,0,0,0.618,970,3427)matrix(0.71,0.71,-0.71,0.71,0,0)">
<path d="M148 184 c-27 -14 -39 -44 -18 -44 6 0 10 -4 10 -10 0 -5 -9 -10 -20 -10 -13 0 -20 -7 -20 -19 0 -22 20 -32 50 -24 15 4 26 -1 36 -16 8 -11 19 -21 25 -21 16 0 10 28 -8 39 -16 9 -16 11 -2 28 35 40 29 94 -10 93 -9 -1 -28 -8 -43 -16z" transform="translate(550,-550) scale(1,1)" stroke="none" fill="#936C3F"/>
<path d="M153 1033 c-13 -2 -23 -7 -23 -11 -3 -87 -14 -166 -36 -247 -58 -218 -59 -340 -6 -478 28 -73 76 -124 88 -94 3 9 15 18 27 21 20 5 113 88 145 130 33 42 74 151 92 242 10 54 28 126 39 158 12 33 21 69 21 81 0 25 -28 52 -83 80 -21 10 -50 33 -64 50 -53 64 -114 85 -200 68z" transform="translate(550,-550) scale(1,1)" stroke="none" fill="#F3A181"/>
</g>
<g id="pattern4" transform="matrix(1.618,0,0,1.618,1438,1438)matrix(0.87,0.5,-0.5,0.87,0,0)">
<path d="M148 184 c-27 -14 -39 -44 -18 -44 6 0 10 -4 10 -10 0 -5 -9 -10 -20 -10 -13 0 -20 -7 -20 -19 0 -22 20 -32 50 -24 15 4 26 -1 36 -16 8 -11 19 -21 25 -21 16 0 10 28 -8 39 -16 9 -16 11 -2 28 35 40 29 94 -10 93 -9 -1 -28 -8 -43 -16z" transform="translate(550,-550) scale(1,1)" stroke="none" fill="#936C3F"/>
<path d="M153 1033 c-13 -2 -23 -7 -23 -11 -3 -87 -14 -166 -36 -247 -58 -218 -59 -340 -6 -478 28 -73 76 -124 88 -94 3 9 15 18 27 21 20 5 113 88 145 130 33 42 74 151 92 242 10 54 28 126 39 158 12 33 21 69 21 81 0 25 -28 52 -83 80 -21 10 -50 33 -64 50 -53 64 -114 85 -200 68z" transform="translate(550,-550) scale(1,1)" stroke="none" fill="#F3A181"/>
</g>
</g>
</g>

<g id="1" transform="translate(1260.0,0)scale(0.25,0.25)">

<g id="pattern">
<rect width="5460" height="5460" fill="#D9D6A4"/>
<g id="pattern1" transform="matrix(1,0,0,1,340,340)">
<path d="M148 184 c-27 -14 -39 -44 -18 -44 6 0 10 -4 10 -10 0 -5 -9 -10 -20 -10 -13 0 -20 -7 -20 -19 0 -22 20 -32 50 -24 15 4 26 -1 36 -16 8 -11 19 -21 25 -21 16 0 10 28 -8 39 -16 9 -16 11 -2 28 35 40 29 94 -10 93 -9 -1 -28 -8 -43 -16z" transform="translate(0.000000,0.000000) scale(1,1)" stroke="none" fill="#936C3F"/>
<path d="M153 1033 c-13 -2 -23 -7 -23 -11 -3 -87 -14 -166 -36 -247 -58 -218 -59 -340 -6 -478 28 -73 76 -124 88 -94 3 9 15 18 27 21 20 5 113 88 145 130 33 42 74 151 92 242 10 54 28 126 39 158 12 33 21 69 21 81 0 25 -28 52 -83 80 -21 10 -50 33 -64 50 -53 64 -114 85 -200 68z" transform="translate(0.000000,0.000000) scale(1,1)" stroke="none" fill="#F3A181"/>
</g>
<g id="pattern2" transform="matrix(0.618,0,0,0.618,2587,760)">
<path d="M148 184 c-27 -14 -39 -44 -18 -44 6 0 10 -4 10 -10 0 -5 -9 -10 -20 -10 -13 0 -20 -7 -20 -19 0 -22 20 -32 50 -24 15 4 26 -1 36 -16 8 -11 19 -21 25 -21 16 0 10 28 -8 39 -16 9 -16 11 -2 28 35 40 29 94 -10 93 -9 -1 -28 -8 -43 -16z" transform="translate(3427,0.000000) scale(-1,1)" stroke="none" fill="#936C3F"/>
<path d="M153 1033 c-13 -2 -23 -7 -23 -11 -3 -87 -14 -166 -36 -247 -58 -218 -59 -340 -6 -478 28 -73 76 -124 88 -94 3 9 15 18 27 21 20 5 113 88 145 130 33 42 74 151 92 242 10 54 28 126 39 158 12 33 21 69 21 81 0 25 -28 52 -83 80 -21 10 -50 33 -64 50 -53 64 -114 85 -200 68z" transform="translate(3427,0.000000) scale(-1,1)" stroke="none" fill="#F3A181"/>
</g>
<g id="pattern3" transform="matrix(0.618,0,0,0.618,970,3427)matrix(0.71,0.71,-0.71,0.71,0,0)">
<path d="M148 184 c-27 -14 -39 -44 -18 -44 6 0 10 -4 10 -10 0 -5 -9 -10 -20 -10 -13 0 -20 -7 -20 -19 0 -22 20 -32 50 -24 15 4 26 -1 36 -16 8 -11 19 -21 25 -21 16 0 10 28 -8 39 -16 9 -16 11 -2 28 35 40 29 94 -10 93 -9 -1 -28 -8 -43 -16z" transform="translate(550,-550) scale(1,1)" stroke="none" fill="#936C3F"/>
<path d="M153 1033 c-13 -2 -23 -7 -23 -11 -3 -87 -14 -166 -36 -247 -58 -218 -59 -340 -6 -478 28 -73 76 -124 88 -94 3 9 15 18 27 21 20 5 113 88 145 130 33 42 74 151 92 242 10 54 28 126 39 158 12 33 21 69 21 81 0 25 -28 52 -83 80 -21 10 -50 33 -64 50 -53 64 -114 85 -200 68z" transform="translate(550,-550) scale(1,1)" stroke="none" fill="#F3A181"/>
</g>
<g id="pattern4" transform="matrix(1.618,0,0,1.618,1438,1438)matrix(0.87,0.5,-0.5,0.87,0,0)">
<path d="M148 184 c-27 -14 -39 -44 -18 -44 6 0 10 -4 10 -10 0 -5 -9 -10 -20 -10 -13 0 -20 -7 -20 -19 0 -22 20 -32 50 -24 15 4 26 -1 36 -16 8 -11 19 -21 25 -21 16 0 10 28 -8 39 -16 9 -16 11 -2 28 35 40 29 94 -10 93 -9 -1 -28 -8 -43 -16z" transform="translate(550,-550) scale(1,1)" stroke="none" fill="#936C3F"/>
<path d="M153 1033 c-13 -2 -23 -7 -23 -11 -3 -87 -14 -166 -36 -247 -58 -218 -59 -340 -6 -478 28 -73 76 -124 88 -94 3 9 15 18 27 21 20 5 113 88 145 130 33 42 74 151 92 242 10 54 28 126 39 158 12 33 21 69 21 81 0 25 -28 52 -83 80 -21 10 -50 33 -64 50 -53 64 -114 85 -200 68z" transform="translate(550,-550) scale(1,1)" stroke="none" fill="#F3A181"/>
</g>
</g>
</g>

<g id="2" transform="translate(2520.0,0)scale(0.25,0.25)">

<g id="pattern">
<rect width="5460" height="5460" fill="#D9D6A4"/>
<g id="pattern1" transform="matrix(1,0,0,1,340,340)">
<path d="M148 184 c-27 -14 -39 -44 -18 -44 6 0 10 -4 10 -10 0 -5 -9 -10 -20 -10 -13 0 -20 -7 -20 -19 0 -22 20 -32 50 -24 15 4 26 -1 36 -16 8 -11 19 -21 25 -21 16 0 10 28 -8 39 -16 9 -16 11 -2 28 35 40 29 94 -10 93 -9 -1 -28 -8 -43 -16z" transform="translate(0.000000,0.000000) scale(1,1)" stroke="none" fill="#936C3F"/>
<path d="M153 1033 c-13 -2 -23 -7 -23 -11 -3 -87 -14 -166 -36 -247 -58 -218 -59 -340 -6 -478 28 -73 76 -124 88 -94 3 9 15 18 27 21 20 5 113 88 145 130 33 42 74 151 92 242 10 54 28 126 39 158 12 33 21 69 21 81 0 25 -28 52 -83 80 -21 10 -50 33 -64 50 -53 64 -114 85 -200 68z" transform="translate(0.000000,0.000000) scale(1,1)" stroke="none" fill="#F3A181"/>
</g>
<g id="pattern2" transform="matrix(0.618,0,0,0.618,2587,760)">
<path d="M148 184 c-27 -14 -39 -44 -18 -44 6 0 10 -4 10 -10 0 -5 -9 -10 -20 -10 -13 0 -20 -7 -20 -19 0 -22 20 -32 50 -24 15 4 26 -1 36 -16 8 -11 19 -21 25 -21 16 0 10 28 -8 39 -16 9 -16 11 -2 28 35 40 29 94 -10 93 -9 -1 -28 -8 -43 -16z" transform="translate(3427,0.000000) scale(-1,1)" stroke="none" fill="#936C3F"/>
<path d="M153 1033 c-13 -2 -23 -7 -23 -11 -3 -87 -14 -166 -36 -247 -58 -218 -59 -340 -6 -478 28 -73 76 -124 88 -94 3 9 15 18 27 21 20 5 113 88 145 130 33 42 74 151 92 242 10 54 28 126 39 158 12 33 21 69 21 81 0 25 -28 52 -83 80 -21 10 -50 33 -64 50 -53 64 -114 85 -200 68z" transform="translate(3427,0.000000) scale(-1,1)" stroke="none" fill="#F3A181"/>
</g>
<g id="pattern3" transform="matrix(0.618,0,0,0.618,970,3427)matrix(0.71,0.71,-0.71,0.71,0,0)">
<path d="M148 184 c-27 -14 -39 -44 -18 -44 6 0 10 -4 10 -10 0 -5 -9 -10 -20 -10 -13 0 -20 -7 -20 -19 0 -22 20 -32 50 -24 15 4 26 -1 36 -16 8 -11 19 -21 25 -21 16 0 10 28 -8 39 -16 9 -16 11 -2 28 35 40 29 94 -10 93 -9 -1 -28 -8 -43 -16z" transform="translate(550,-550) scale(1,1)" stroke="none" fill="#936C3F"/>
<path d="M153 1033 c-13 -2 -23 -7 -23 -11 -3 -87 -14 -166 -36 -247 -58 -218 -59 -340 -6 -478 28 -73 76 -124 88 -94 3 9 15 18 27 21 20 5 113 88 145 130 33 42 74 151 92 242 10 54 28 126 39 158 12 33 21 69 21 81 0 25 -28 52 -83 80 -21 10 -50 33 -64 50 -53 64 -114 85 -200 68z" transform="translate(550,-550) scale(1,1)" stroke="none" fill="#F3A181"/>
</g>
<g id="pattern4" transform="matrix(1.618,0,0,1.618,1438,1438)matrix(0.87,0.5,-0.5,0.87,0,0)">
<path d="M148 184 c-27 -14 -39 -44 -18 -44 6 0 10 -4 10 -10 0 -5 -9 -10 -20 -10 -13 0 -20 -7 -20 -19 0 -22 20 -32 50 -24 15 4 26 -1 36 -16 8 -11 19 -21 25 -21 16 0 10 28 -8 39 -16 9 -16 11 -2 28 35 40 29 94 -10 93 -9 -1 -28 -8 -43 -16z" transform="translate(550,-550) scale(1,1)" stroke="none" fill="#936C3F"/>
<path d="M153 1033 c-13 -2 -23 -7 -23 -11 -3 -87 -14 -166 -36 -247 -58 -218 -59 -340 -6 -478 28 -73 76 -124 88 -94 3 9 15 18 27 21 20 5 113 88 145 130 33 42 74 151 92 242 10 54 28 126 39 158 12 33 21 69 21 81 0 25 -28 52 -83 80 -21 10 -50 33 -64 50 -53 64 -114 85 -200 68z" transform="translate(550,-550) scale(1,1)" stroke="none" fill="#F3A181"/>
</g>
</g>
</g>

<g id="3" transform="translate(3780.0,0)scale(0.25,0.25)">

<g id="pattern">
<rect width="5460" height="5460" fill="#D9D6A4"/>
<g id="pattern1" transform="matrix(1,0,0,1,340,340)">
<path d="M148 184 c-27 -14 -39 -44 -18 -44 6 0 10 -4 10 -10 0 -5 -9 -10 -20 -10 -13 0 -20 -7 -20 -19 0 -22 20 -32 50 -24 15 4 26 -1 36 -16 8 -11 19 -21 25 -21 16 0 10 28 -8 39 -16 9 -16 11 -2 28 35 40 29 94 -10 93 -9 -1 -28 -8 -43 -16z" transform="translate(0.000000,0.000000) scale(1,1)" stroke="none" fill="#936C3F"/>
<path d="M153 1033 c-13 -2 -23 -7 -23 -11 -3 -87 -14 -166 -36 -247 -58 -218 -59 -340 -6 -478 28 -73 76 -124 88 -94 3 9 15 18 27 21 20 5 113 88 145 130 33 42 74 151 92 242 10 54 28 126 39 158 12 33 21 69 21 81 0 25 -28 52 -83 80 -21 10 -50 33 -64 50 -53 64 -114 85 -200 68z" transform="translate(0.000000,0.000000) scale(1,1)" stroke="none" fill="#F3A181"/>
</g>
<g id="pattern2" transform="matrix(0.618,0,0,0.618,2587,760)">
<path d="M148 184 c-27 -14 -39 -44 -18 -44 6 0 10 -4 10 -10 0 -5 -9 -10 -20 -10 -13 0 -20 -7 -20 -19 0 -22 20 -32 50 -24 15 4 26 -1 36 -16 8 -11 19 -21 25 -21 16 0 10 28 -8 39 -16 9 -16 11 -2 28 35 40 29 94 -10 93 -9 -1 -28 -8 -43 -16z" transform="translate(3427,0.000000) scale(-1,1)" stroke="none" fill="#936C3F"/>
<path d="M153 1033 c-13 -2 -23 -7 -23 -11 -3 -87 -14 -166 -36 -247 -58 -218 -59 -340 -6 -478 28 -73 76 -124 88 -94 3 9 15 18 27 21 20 5 113 88 145 130 33 42 74 151 92 242 10 54 28 126 39 158 12 33 21 69 21 81 0 25 -28 52 -83 80 -21 10 -50 33 -64 50 -53 64 -114 85 -200 68z" transform="translate(3427,0.000000) scale(-1,1)" stroke="none" fill="#F3A181"/>
</g>
<g id="pattern3" transform="matrix(0.618,0,0,0.618,970,3427)matrix(0.71,0.71,-0.71,0.71,0,0)">
<path d="M148 184 c-27 -14 -39 -44 -18 -44 6 0 10 -4 10 -10 0 -5 -9 -10 -20 -10 -13 0 -20 -7 -20 -19 0 -22 20 -32 50 -24 15 4 26 -1 36 -16 8 -11 19 -21 25 -21 16 0 10 28 -8 39 -16 9 -16 11 -2 28 35 40 29 94 -10 93 -9 -1 -28 -8 -43 -16z" transform="translate(550,-550) scale(1,1)" stroke="none" fill="#936C3F"/>
<path d="M153 1033 c-13 -2 -23 -7 -23 -11 -3 -87 -14 -166 -36 -247 -58 -218 -59 -340 -6 -478 28 -73 76 -124 88 -94 3 9 15 18 27 21 20 5 113 88 145 130 33 42 74 151 92 242 10 54 28 126 39 158 12 33 21 69 21 81 0 25 -28 52 -83 80 -21 10 -50 33 -64 50 -53 64 -114 85 -200 68z" transform="translate(550,-550) scale(1,1)" stroke="none" fill="#F3A181"/>
</g>
<g id="pattern4" transform="matrix(1.618,0,0,1.618,1438,1438)matrix(0.87,0.5,-0.5,0.87,0,0)">
<path d="M148 184 c-27 -14 -39 -44 -18 -44 6 0 10 -4 10 -10 0 -5 -9 -10 -20 -10 -13 0 -20 -7 -20 -19 0 -22 20 -32 50 -24 15 4 26 -1 36 -16 8 -11 19 -21 25 -21 16 0 10 28 -8 39 -16 9 -16 11 -2 28 35 40 29 94 -10 93 -9 -1 -28 -8 -43 -16z" transform="translate(550,-550) scale(1,1)" stroke="none" fill="#936C3F"/>
<path d="M153 1033 c-13 -2 -23 -7 -23 -11 -3 -87 -14 -166 -36 -247 -58 -218 -59 -340 -6 -478 28 -73 76 -124 88 -94 3 9 15 18 27 21 20 5 113 88 145 130 33 42 74 151 92 242 10 54 28 126 39 158 12 33 21 69 21 81 0 25 -28 52 -83 80 -21 10 -50 33 -64 50 -53 64 -114 85 -200 68z" transform="translate(550,-550) scale(1,1)" stroke="none" fill="#F3A181"/>
</g>
</g>
</g>

<g id="4" transform="translate(5040.0,0)scale(0.25,0.25)">

<g id="pattern">
<rect width="5460" height="5460" fill="#D9D6A4"/>
<g id="pattern1" transform="matrix(1,0,0,1,340,340)">
<path d="M148 184 c-27 -14 -39 -44 -18 -44 6 0 10 -4 10 -10 0 -5 -9 -10 -20 -10 -13 0 -20 -7 -20 -19 0 -22 20 -32 50 -24 15 4 26 -1 36 -16 8 -11 19 -21 25 -21 16 0 10 28 -8 39 -16 9 -16 11 -2 28 35 40 29 94 -10 93 -9 -1 -28 -8 -43 -16z" transform="translate(0.000000,0.000000) scale(1,1)" stroke="none" fill="#936C3F"/>
<path d="M153 1033 c-13 -2 -23 -7 -23 -11 -3 -87 -14 -166 -36 -247 -58 -218 -59 -340 -6 -478 28 -73 76 -124 88 -94 3 9 15 18 27 21 20 5 113 88 145 130 33 42 74 151 92 242 10 54 28 126 39 158 12 33 21 69 21 81 0 25 -28 52 -83 80 -21 10 -50 33 -64 50 -53 64 -114 85 -200 68z" transform="translate(0.000000,0.000000) scale(1,1)" stroke="none" fill="#F3A181"/>
</g>
<g id="pattern2" transform="matrix(0.618,0,0,0.618,2587,760)">
<path d="M148 184 c-27 -14 -39 -44 -18 -44 6 0 10 -4 10 -10 0 -5 -9 -10 -20 -10 -13 0 -20 -7 -20 -19 0 -22 20 -32 50 -24 15 4 26 -1 36 -16 8 -11 19 -21 25 -21 16 0 10 28 -8 39 -16 9 -16 11 -2 28 35 40 29 94 -10 93 -9 -1 -28 -8 -43 -16z" transform="translate(3427,0.000000) scale(-1,1)" stroke="none" fill="#936C3F"/>
<path d="M153 1033 c-13 -2 -23 -7 -23 -11 -3 -87 -14 -166 -36 -247 -58 -218 -59 -340 -6 -478 28 -73 76 -124 88 -94 3 9 15 18 27 21 20 5 113 88 145 130 33 42 74 151 92 242 10 54 28 126 39 158 12 33 21 69 21 81 0 25 -28 52 -83 80 -21 10 -50 33 -64 50 -53 64 -114 85 -200 68z" transform="translate(3427,0.000000) scale(-1,1)" stroke="none" fill="#F3A181"/>
</g>
<g id="pattern3" transform="matrix(0.618,0,0,0.618,970,3427)matrix(0.71,0.71,-0.71,0.71,0,0)">
<path d="M148 184 c-27 -14 -39 -44 -18 -44 6 0 10 -4 10 -10 0 -5 -9 -10 -20 -10 -13 0 -20 -7 -20 -19 0 -22 20 -32 50 -24 15 4 26 -1 36 -16 8 -11 19 -21 25 -21 16 0 10 28 -8 39 -16 9 -16 11 -2 28 35 40 29 94 -10 93 -9 -1 -28 -8 -43 -16z" transform="translate(550,-550) scale(1,1)" stroke="none" fill="#936C3F"/>
<path d="M153 1033 c-13 -2 -23 -7 -23 -11 -3 -87 -14 -166 -36 -247 -58 -218 -59 -340 -6 -478 28 -73 76 -124 88 -94 3 9 15 18 27 21 20 5 113 88 145 130 33 42 74 151 92 242 10 54 28 126 39 158 12 33 21 69 21 81 0 25 -28 52 -83 80 -21 10 -50 33 -64 50 -53 64 -114 85 -200 68z" transform="translate(550,-550) scale(1,1)" stroke="none" fill="#F3A181"/>
</g>
<g id="pattern4" transform="matrix(1.618,0,0,1.618,1438,1438)matrix(0.87,0.5,-0.5,0.87,0,0)">
<path d="M148 184 c-27 -14 -39 -44 -18 -44 6 0 10 -4 10 -10 0 -5 -9 -10 -20 -10 -13 0 -20 -7 -20 -19 0 -22 20 -32 50 -24 15 4 26 -1 36 -16 8 -11 19 -21 25 -21 16 0 10 28 -8 39 -16 9 -16 11 -2 28 35 40 29 94 -10 93 -9 -1 -28 -8 -43 -16z" transform="translate(550,-550) scale(1,1)" stroke="none" fill="#936C3F"/>
<path d="M153 1033 c-13 -2 -23 -7 -23 -11 -3 -87 -14 -166 -36 -247 -58 -218 -59 -340 -6 -478 28 -73 76 -124 88 -94 3 9 15 18 27 21 20 5 113 88 145 130 33 42 74 151 92 242 10 54 28 126 39 158 12 33 21 69 21 81 0 25 -28 52 -83 80 -21 10 -50 33 -64 50 -53 64 -114 85 -200 68z" transform="translate(550,-550) scale(1,1)" stroke="none" fill="#F3A181"/>
</g>
</g>
</g>

</g>
</svg>