<?xml version="1.0" standalone="no"?>
<!DOCTYPE svg PUBLIC "-//W3C//DTD SVG 20010904//EN"
 "http://www.w3.org/TR/2001/REC-SVG-20010904/DTD/svg10.dtd">
<svg version="1.0" xmlns="http://www.w3.org/2000/svg" 
width="64.000000pt" height="60.000000pt" viewBox="0 0 64.000000 60.000000"
preserveAspectRatio = "xMidYMid meet" >
<metadata>
Created by ZoeQU, 2022
</metadata>
<rect width="64.000000" height="60.000000" fill="#DDDEE6"/>
<path d="M226 82 c-3 -5 3 -17 14 -27 23 -21 26 -9 6 18 -8 10 -17 14 -20 9z" transform="translate(0.000000,60.000000) scale(0.100000,-0.100000)" stroke="none" fill="#A798B9"/>

<path d="M235 560 c-21 -23 -9 -26 18 -6 10 8 14 17 9 20 -5 3 -17 -3 -27 -14z" transform="translate(0.000000,60.000000) scale(0.100000,-0.100000)" stroke="none" fill="#A798B9"/>

<path d="M579 133 l-24 -28 28 24 c15 14 27 26 27 28 0 8 -8 1 -31 -24z" transform="translate(0.000000,60.000000) scale(0.100000,-0.100000)" stroke="none" fill="#B9CF64"/>

<path d="M397 564 c3 -8 12 -14 20 -14 9 0 52 -35 97 -77 l81 -77 -75 77 c-73 76 -135 121 -123 91z" transform="translate(0.000000,60.000000) scale(0.100000,-0.100000)" stroke="none" fill="#B9CF64"/>

<path d="M13 293 c-15 -6 -18 -53 -3 -53 6 0 10 -12 10 -28 0 -17 8 -32 21 -40 27 -17 37 -8 17 15 -17 21 -39 93 -32 105 6 9 5 9 -13 1z" transform="translate(0.000000,60.000000) scale(0.100000,-0.100000)" stroke="none" fill="#A798B9"/>

<path d="M616 213 c-18 -35 -52 -63 -85 -73 l-26 -7 28 -8 c22 -6 33 -3 51 14 12 11 30 21 39 21 13 0 17 9 17 40 0 47 -4 50 -24 13z" transform="translate(0.000000,60.000000) scale(0.100000,-0.100000)" stroke="none" fill="#A798B9"/>

<path d="M453 108 c-11 -13 -30 -38 -43 -56 -22 -32 -24 -33 -83 -31 -40 2 -62 -1 -65 -9 -3 -9 18 -12 73 -12 70 0 78 2 100 27 13 16 25 38 25 49 0 13 8 24 20 27 11 3 20 10 20 16 0 19 -25 12 -47 -11z" transform="translate(0.000000,60.000000) scale(0.100000,-0.100000)" stroke="none" fill="#A798B9"/>

<path d="M280 444 c-15 -39 -12 -110 5 -124 13 -11 20 -11 40 0 33 17 35 79 4 121 -25 36 -37 37 -49 3z" transform="translate(0.000000,60.000000) scale(0.100000,-0.100000)" stroke="none" fill="#A798B9"/>

<path d="M270 458 c-27 -44 -27 -128 -2 -151 22 -20 63 -22 80 -5 21 21 15 126 -9 159 -26 38 -45 37 -69 -3z m59 -17 c31 -42 29 -104 -4 -121 -20 -11 -27 -11 -40 0 -26 22 -14 150 14 150 5 0 19 -13 30 -29z" transform="translate(0.000000,60.000000) scale(0.100000,-0.100000)" stroke="none" fill="#B9CF64"/>

<path d="M366 571 c-3 -5 8 -14 24 -21 40 -17 181 -166 219 -231 l31 -54 0 35 c0 24 -6 39 -20 48 -11 7 -20 18 -20 26 0 17 -142 157 -173 171 -12 5 -26 15 -30 22 -9 15 -23 17 -31 4z" transform="translate(0.000000,60.000000) scale(0.100000,-0.100000)" stroke="none" fill="#A798B9"/>

<path d="M270 585 c-7 -8 -9 -15 -4 -15 11 0 -29 -29 -40 -30 -5 0 -1 10 10 23 10 12 -30 -25 -89 -83 -59 -57 -107 -107 -107 -109 0 -2 9 4 20 14 11 10 20 14 20 9 -1 -14 -26 -44 -32 -39 -3 3 -11 -2 -19 -12 -9 -11 -10 -14 -2 -9 8 4 13 1 13 -8 0 -9 -6 -16 -14 -16 -8 0 -18 -5 -22 -12 -5 -8 -2 -9 10 -5 9 4 15 3 11 -2 -3 -5 -1 -19 3 -32 8 -20 10 -17 14 22 3 25 14 56 24 70 33 42 168 175 201 197 30 22 78 29 85 15 2 -5 29 -27 60 -51 52 -40 90 -78 157 -158 24 -29 41 -73 41 -108 0 -27 -73 -96 -101 -96 -45 0 -70 -13 -85 -42 -30 -57 -55 -78 -96 -78 -21 0 -38 4 -38 8 0 19 -100 112 -119 112 -28 0 -119 51 -124 70 -4 12 -5 12 -6 -1 0 -9 6 -22 14 -29 8 -7 15 -18 15 -26 0 -7 4 -16 10 -19 6 -3 7 1 4 10 -5 11 -2 14 10 9 9 -3 14 -10 11 -14 -3 -4 3 -14 12 -21 12 -10 14 -10 9 -1 -5 8 0 12 14 12 12 0 19 -4 16 -8 -2 -4 4 -14 16 -21 11 -7 17 -8 13 -2 -3 6 1 11 10 11 9 0 14 -4 11 -9 -3 -5 1 -14 9 -21 8 -7 15 -9 15 -4 0 11 29 -29 30 -40 0 -5 -10 -1 -22 10 l-23 19 23 -26 c19 -22 32 -26 86 -28 l62 -2 40 53 c38 51 85 80 71 44 -5 -13 -3 -14 13 -4 14 9 16 14 7 20 -8 5 -5 8 9 8 25 0 75 43 99 86 17 31 17 32 -11 85 -35 64 -182 222 -223 239 -18 7 -28 17 -25 25 3 7 1 16 -5 20 -6 3 -11 1 -11 -5 0 -7 -6 -8 -19 0 -14 7 -22 7 -27 -1 -5 -8 -8 -8 -14 0 -5 9 -10 8 -20 -4z m-110 -115 c0 -5 -5 -10 -11 -10 -5 0 -7 5 -4 10 3 6 8 10 11 10 2 0 4 -4 4 -10z" transform="translate(0.000000,60.000000) scale(0.100000,-0.100000)" stroke="none" fill="#B9CF64"/>

</svg>