<?xml version="1.0" standalone="no"?>
<!DOCTYPE svg PUBLIC "-//W3C//DTD SVG 20010904//EN"
 "http://www.w3.org/TR/2001/REC-SVG-20010904/DTD/svg10.dtd">
<svg version="1.0" xmlns="http://www.w3.org/2000/svg" width="456pt" height="464pt" viewBox="0 0 456 464" preserveAspectRatio = "xMidYMid meet" >
<metadata>
Created by ZoeQu, written in 2022
</metadata>
<rect width="456" height="464" fill="#4D3725"/>
<g id="col0" transform="translate(0, 15)">
<g id="0" transform="translate(0,0.0)scale(0.8,0.8)">

<path d="M448 1055 c-28 -36 -38 -58 -43 -105 -7 -62 1 -97 42 -184 12 -27 21 -52 18 -55 -3 -2 -18 8 -33 22 -33 32 -52 34 -52 7 0 -25 2 -25 -54 6 -25 14 -73 29 -107 34 -145 21 -189 -58 -139 -246 28 -104 42 -127 92 -154 36 -19 49 -35 81 -100 25 -50 47 -81 63 -89 18 -8 24 -18 24 -41 0 -33 15 -70 34 -82 35 -23 108 20 162 95 38 52 84 165 84 204 0 25 15 31 23 11 3 -7 6 8 6 35 l1 47 53 0 c29 0 58 -5 65 -12 9 -9 12 -9 12 0 0 7 -4 12 -10 12 -5 0 -10 4 -10 9 0 4 21 11 48 14 74 9 151 37 157 58 4 11 12 19 18 19 7 1 29 15 49 33 27 23 37 41 40 67 3 31 -1 37 -32 52 -19 10 -46 19 -60 22 -16 3 -40 26 -65 61 -22 30 -54 64 -71 74 -18 11 -34 31 -38 47 -14 53 -46 84 -130 123 -44 21 -94 42 -111 45 -83 19 -79 20 -117 -29z m171 -124 c81 -38 85 -52 31 -98 -24 -21 -61 -56 -82 -77 -21 -22 -39 -37 -41 -35 -25 35 -45 174 -33 224 6 24 10 26 39 20 18 -4 57 -19 86 -34z m201 -211 c12 -17 35 -37 52 -46 27 -14 32 -14 55 1 18 12 28 14 36 6 16 -16 1 -26 -87 -56 -74 -25 -83 -27 -134 -15 -89 20 -143 59 -96 69 10 2 45 18 78 36 34 18 64 34 68 34 4 1 16 -13 28 -29z m-557 -35 c20 -4 40 -11 43 -16 3 -5 9 -7 14 -4 4 3 30 -10 56 -29 54 -36 69 -66 34 -66 -30 0 -118 -47 -130 -70 -15 -29 -47 -25 -64 8 -8 15 -19 53 -25 85 -6 32 -13 62 -16 67 -11 18 8 42 29 36 11 -2 38 -8 59 -11z m229 -237 c4 -84 -2 -121 -26 -165 -14 -25 -26 -56 -26 -68 0 -20 -26 -54 -33 -44 -15 21 -26 64 -22 86 3 16 -3 45 -14 68 l-19 40 56 58 c31 31 62 57 69 57 8 0 14 -14 15 -32z" transform="translate(0,116) scale(0.1,-0.1)" stroke="none" fill="#C8814D"/>

</g>

<g id="1" transform="translate(0,116.0)scale(0.8,0.8)">

<path d="M448 1055 c-28 -36 -38 -58 -43 -105 -7 -62 1 -97 42 -184 12 -27 21 -52 18 -55 -3 -2 -18 8 -33 22 -33 32 -52 34 -52 7 0 -25 2 -25 -54 6 -25 14 -73 29 -107 34 -145 21 -189 -58 -139 -246 28 -104 42 -127 92 -154 36 -19 49 -35 81 -100 25 -50 47 -81 63 -89 18 -8 24 -18 24 -41 0 -33 15 -70 34 -82 35 -23 108 20 162 95 38 52 84 165 84 204 0 25 15 31 23 11 3 -7 6 8 6 35 l1 47 53 0 c29 0 58 -5 65 -12 9 -9 12 -9 12 0 0 7 -4 12 -10 12 -5 0 -10 4 -10 9 0 4 21 11 48 14 74 9 151 37 157 58 4 11 12 19 18 19 7 1 29 15 49 33 27 23 37 41 40 67 3 31 -1 37 -32 52 -19 10 -46 19 -60 22 -16 3 -40 26 -65 61 -22 30 -54 64 -71 74 -18 11 -34 31 -38 47 -14 53 -46 84 -130 123 -44 21 -94 42 -111 45 -83 19 -79 20 -117 -29z m171 -124 c81 -38 85 -52 31 -98 -24 -21 -61 -56 -82 -77 -21 -22 -39 -37 -41 -35 -25 35 -45 174 -33 224 6 24 10 26 39 20 18 -4 57 -19 86 -34z m201 -211 c12 -17 35 -37 52 -46 27 -14 32 -14 55 1 18 12 28 14 36 6 16 -16 1 -26 -87 -56 -74 -25 -83 -27 -134 -15 -89 20 -143 59 -96 69 10 2 45 18 78 36 34 18 64 34 68 34 4 1 16 -13 28 -29z m-557 -35 c20 -4 40 -11 43 -16 3 -5 9 -7 14 -4 4 3 30 -10 56 -29 54 -36 69 -66 34 -66 -30 0 -118 -47 -130 -70 -15 -29 -47 -25 -64 8 -8 15 -19 53 -25 85 -6 32 -13 62 -16 67 -11 18 8 42 29 36 11 -2 38 -8 59 -11z m229 -237 c4 -84 -2 -121 -26 -165 -14 -25 -26 -56 -26 -68 0 -20 -26 -54 -33 -44 -15 21 -26 64 -22 86 3 16 -3 45 -14 68 l-19 40 56 58 c31 31 62 57 69 57 8 0 14 -14 15 -32z" transform="translate(0,116) scale(0.1,-0.1)" stroke="none" fill="#C8814D"/>

</g>

<g id="2" transform="translate(0,232.0)scale(0.8,0.8)">

<path d="M448 1055 c-28 -36 -38 -58 -43 -105 -7 -62 1 -97 42 -184 12 -27 21 -52 18 -55 -3 -2 -18 8 -33 22 -33 32 -52 34 -52 7 0 -25 2 -25 -54 6 -25 14 -73 29 -107 34 -145 21 -189 -58 -139 -246 28 -104 42 -127 92 -154 36 -19 49 -35 81 -100 25 -50 47 -81 63 -89 18 -8 24 -18 24 -41 0 -33 15 -70 34 -82 35 -23 108 20 162 95 38 52 84 165 84 204 0 25 15 31 23 11 3 -7 6 8 6 35 l1 47 53 0 c29 0 58 -5 65 -12 9 -9 12 -9 12 0 0 7 -4 12 -10 12 -5 0 -10 4 -10 9 0 4 21 11 48 14 74 9 151 37 157 58 4 11 12 19 18 19 7 1 29 15 49 33 27 23 37 41 40 67 3 31 -1 37 -32 52 -19 10 -46 19 -60 22 -16 3 -40 26 -65 61 -22 30 -54 64 -71 74 -18 11 -34 31 -38 47 -14 53 -46 84 -130 123 -44 21 -94 42 -111 45 -83 19 -79 20 -117 -29z m171 -124 c81 -38 85 -52 31 -98 -24 -21 -61 -56 -82 -77 -21 -22 -39 -37 -41 -35 -25 35 -45 174 -33 224 6 24 10 26 39 20 18 -4 57 -19 86 -34z m201 -211 c12 -17 35 -37 52 -46 27 -14 32 -14 55 1 18 12 28 14 36 6 16 -16 1 -26 -87 -56 -74 -25 -83 -27 -134 -15 -89 20 -143 59 -96 69 10 2 45 18 78 36 34 18 64 34 68 34 4 1 16 -13 28 -29z m-557 -35 c20 -4 40 -11 43 -16 3 -5 9 -7 14 -4 4 3 30 -10 56 -29 54 -36 69 -66 34 -66 -30 0 -118 -47 -130 -70 -15 -29 -47 -25 -64 8 -8 15 -19 53 -25 85 -6 32 -13 62 -16 67 -11 18 8 42 29 36 11 -2 38 -8 59 -11z m229 -237 c4 -84 -2 -121 -26 -165 -14 -25 -26 -56 -26 -68 0 -20 -26 -54 -33 -44 -15 21 -26 64 -22 86 3 16 -3 45 -14 68 l-19 40 56 58 c31 31 62 57 69 57 8 0 14 -14 15 -32z" transform="translate(0,116) scale(0.1,-0.1)" stroke="none" fill="#C8814D"/>

</g>

<g id="3" transform="translate(0,348.0)scale(0.8,0.8)">

<path d="M448 1055 c-28 -36 -38 -58 -43 -105 -7 -62 1 -97 42 -184 12 -27 21 -52 18 -55 -3 -2 -18 8 -33 22 -33 32 -52 34 -52 7 0 -25 2 -25 -54 6 -25 14 -73 29 -107 34 -145 21 -189 -58 -139 -246 28 -104 42 -127 92 -154 36 -19 49 -35 81 -100 25 -50 47 -81 63 -89 18 -8 24 -18 24 -41 0 -33 15 -70 34 -82 35 -23 108 20 162 95 38 52 84 165 84 204 0 25 15 31 23 11 3 -7 6 8 6 35 l1 47 53 0 c29 0 58 -5 65 -12 9 -9 12 -9 12 0 0 7 -4 12 -10 12 -5 0 -10 4 -10 9 0 4 21 11 48 14 74 9 151 37 157 58 4 11 12 19 18 19 7 1 29 15 49 33 27 23 37 41 40 67 3 31 -1 37 -32 52 -19 10 -46 19 -60 22 -16 3 -40 26 -65 61 -22 30 -54 64 -71 74 -18 11 -34 31 -38 47 -14 53 -46 84 -130 123 -44 21 -94 42 -111 45 -83 19 -79 20 -117 -29z m171 -124 c81 -38 85 -52 31 -98 -24 -21 -61 -56 -82 -77 -21 -22 -39 -37 -41 -35 -25 35 -45 174 -33 224 6 24 10 26 39 20 18 -4 57 -19 86 -34z m201 -211 c12 -17 35 -37 52 -46 27 -14 32 -14 55 1 18 12 28 14 36 6 16 -16 1 -26 -87 -56 -74 -25 -83 -27 -134 -15 -89 20 -143 59 -96 69 10 2 45 18 78 36 34 18 64 34 68 34 4 1 16 -13 28 -29z m-557 -35 c20 -4 40 -11 43 -16 3 -5 9 -7 14 -4 4 3 30 -10 56 -29 54 -36 69 -66 34 -66 -30 0 -118 -47 -130 -70 -15 -29 -47 -25 -64 8 -8 15 -19 53 -25 85 -6 32 -13 62 -16 67 -11 18 8 42 29 36 11 -2 38 -8 59 -11z m229 -237 c4 -84 -2 -121 -26 -165 -14 -25 -26 -56 -26 -68 0 -20 -26 -54 -33 -44 -15 21 -26 64 -22 86 3 16 -3 45 -14 68 l-19 40 56 58 c31 31 62 57 69 57 8 0 14 -14 15 -32z" transform="translate(0,116) scale(0.1,-0.1)" stroke="none" fill="#C8814D"/>

</g>

<g id="4" transform="translate(0,464.0)scale(0.8,0.8)">

<path d="M448 1055 c-28 -36 -38 -58 -43 -105 -7 -62 1 -97 42 -184 12 -27 21 -52 18 -55 -3 -2 -18 8 -33 22 -33 32 -52 34 -52 7 0 -25 2 -25 -54 6 -25 14 -73 29 -107 34 -145 21 -189 -58 -139 -246 28 -104 42 -127 92 -154 36 -19 49 -35 81 -100 25 -50 47 -81 63 -89 18 -8 24 -18 24 -41 0 -33 15 -70 34 -82 35 -23 108 20 162 95 38 52 84 165 84 204 0 25 15 31 23 11 3 -7 6 8 6 35 l1 47 53 0 c29 0 58 -5 65 -12 9 -9 12 -9 12 0 0 7 -4 12 -10 12 -5 0 -10 4 -10 9 0 4 21 11 48 14 74 9 151 37 157 58 4 11 12 19 18 19 7 1 29 15 49 33 27 23 37 41 40 67 3 31 -1 37 -32 52 -19 10 -46 19 -60 22 -16 3 -40 26 -65 61 -22 30 -54 64 -71 74 -18 11 -34 31 -38 47 -14 53 -46 84 -130 123 -44 21 -94 42 -111 45 -83 19 -79 20 -117 -29z m171 -124 c81 -38 85 -52 31 -98 -24 -21 -61 -56 -82 -77 -21 -22 -39 -37 -41 -35 -25 35 -45 174 -33 224 6 24 10 26 39 20 18 -4 57 -19 86 -34z m201 -211 c12 -17 35 -37 52 -46 27 -14 32 -14 55 1 18 12 28 14 36 6 16 -16 1 -26 -87 -56 -74 -25 -83 -27 -134 -15 -89 20 -143 59 -96 69 10 2 45 18 78 36 34 18 64 34 68 34 4 1 16 -13 28 -29z m-557 -35 c20 -4 40 -11 43 -16 3 -5 9 -7 14 -4 4 3 30 -10 56 -29 54 -36 69 -66 34 -66 -30 0 -118 -47 -130 -70 -15 -29 -47 -25 -64 8 -8 15 -19 53 -25 85 -6 32 -13 62 -16 67 -11 18 8 42 29 36 11 -2 38 -8 59 -11z m229 -237 c4 -84 -2 -121 -26 -165 -14 -25 -26 -56 -26 -68 0 -20 -26 -54 -33 -44 -15 21 -26 64 -22 86 3 16 -3 45 -14 68 l-19 40 56 58 c31 31 62 57 69 57 8 0 14 -14 15 -32z" transform="translate(0,116) scale(0.1,-0.1)" stroke="none" fill="#C8814D"/>

</g>

</g>
<g id="col1" transform="translate(114, -43.0)">
<g id="0" transform="translate(0,0.0)scale(0.8,0.8)">

<path d="M448 1055 c-28 -36 -38 -58 -43 -105 -7 -62 1 -97 42 -184 12 -27 21 -52 18 -55 -3 -2 -18 8 -33 22 -33 32 -52 34 -52 7 0 -25 2 -25 -54 6 -25 14 -73 29 -107 34 -145 21 -189 -58 -139 -246 28 -104 42 -127 92 -154 36 -19 49 -35 81 -100 25 -50 47 -81 63 -89 18 -8 24 -18 24 -41 0 -33 15 -70 34 -82 35 -23 108 20 162 95 38 52 84 165 84 204 0 25 15 31 23 11 3 -7 6 8 6 35 l1 47 53 0 c29 0 58 -5 65 -12 9 -9 12 -9 12 0 0 7 -4 12 -10 12 -5 0 -10 4 -10 9 0 4 21 11 48 14 74 9 151 37 157 58 4 11 12 19 18 19 7 1 29 15 49 33 27 23 37 41 40 67 3 31 -1 37 -32 52 -19 10 -46 19 -60 22 -16 3 -40 26 -65 61 -22 30 -54 64 -71 74 -18 11 -34 31 -38 47 -14 53 -46 84 -130 123 -44 21 -94 42 -111 45 -83 19 -79 20 -117 -29z m171 -124 c81 -38 85 -52 31 -98 -24 -21 -61 -56 -82 -77 -21 -22 -39 -37 -41 -35 -25 35 -45 174 -33 224 6 24 10 26 39 20 18 -4 57 -19 86 -34z m201 -211 c12 -17 35 -37 52 -46 27 -14 32 -14 55 1 18 12 28 14 36 6 16 -16 1 -26 -87 -56 -74 -25 -83 -27 -134 -15 -89 20 -143 59 -96 69 10 2 45 18 78 36 34 18 64 34 68 34 4 1 16 -13 28 -29z m-557 -35 c20 -4 40 -11 43 -16 3 -5 9 -7 14 -4 4 3 30 -10 56 -29 54 -36 69 -66 34 -66 -30 0 -118 -47 -130 -70 -15 -29 -47 -25 -64 8 -8 15 -19 53 -25 85 -6 32 -13 62 -16 67 -11 18 8 42 29 36 11 -2 38 -8 59 -11z m229 -237 c4 -84 -2 -121 -26 -165 -14 -25 -26 -56 -26 -68 0 -20 -26 -54 -33 -44 -15 21 -26 64 -22 86 3 16 -3 45 -14 68 l-19 40 56 58 c31 31 62 57 69 57 8 0 14 -14 15 -32z" transform="translate(0,116) scale(0.1,-0.1)" stroke="none" fill="#C8814D"/>

</g>

<g id="1" transform="translate(0,116.0)scale(0.8,0.8)">

<path d="M448 1055 c-28 -36 -38 -58 -43 -105 -7 -62 1 -97 42 -184 12 -27 21 -52 18 -55 -3 -2 -18 8 -33 22 -33 32 -52 34 -52 7 0 -25 2 -25 -54 6 -25 14 -73 29 -107 34 -145 21 -189 -58 -139 -246 28 -104 42 -127 92 -154 36 -19 49 -35 81 -100 25 -50 47 -81 63 -89 18 -8 24 -18 24 -41 0 -33 15 -70 34 -82 35 -23 108 20 162 95 38 52 84 165 84 204 0 25 15 31 23 11 3 -7 6 8 6 35 l1 47 53 0 c29 0 58 -5 65 -12 9 -9 12 -9 12 0 0 7 -4 12 -10 12 -5 0 -10 4 -10 9 0 4 21 11 48 14 74 9 151 37 157 58 4 11 12 19 18 19 7 1 29 15 49 33 27 23 37 41 40 67 3 31 -1 37 -32 52 -19 10 -46 19 -60 22 -16 3 -40 26 -65 61 -22 30 -54 64 -71 74 -18 11 -34 31 -38 47 -14 53 -46 84 -130 123 -44 21 -94 42 -111 45 -83 19 -79 20 -117 -29z m171 -124 c81 -38 85 -52 31 -98 -24 -21 -61 -56 -82 -77 -21 -22 -39 -37 -41 -35 -25 35 -45 174 -33 224 6 24 10 26 39 20 18 -4 57 -19 86 -34z m201 -211 c12 -17 35 -37 52 -46 27 -14 32 -14 55 1 18 12 28 14 36 6 16 -16 1 -26 -87 -56 -74 -25 -83 -27 -134 -15 -89 20 -143 59 -96 69 10 2 45 18 78 36 34 18 64 34 68 34 4 1 16 -13 28 -29z m-557 -35 c20 -4 40 -11 43 -16 3 -5 9 -7 14 -4 4 3 30 -10 56 -29 54 -36 69 -66 34 -66 -30 0 -118 -47 -130 -70 -15 -29 -47 -25 -64 8 -8 15 -19 53 -25 85 -6 32 -13 62 -16 67 -11 18 8 42 29 36 11 -2 38 -8 59 -11z m229 -237 c4 -84 -2 -121 -26 -165 -14 -25 -26 -56 -26 -68 0 -20 -26 -54 -33 -44 -15 21 -26 64 -22 86 3 16 -3 45 -14 68 l-19 40 56 58 c31 31 62 57 69 57 8 0 14 -14 15 -32z" transform="translate(0,116) scale(0.1,-0.1)" stroke="none" fill="#C8814D"/>

</g>

<g id="2" transform="translate(0,232.0)scale(0.8,0.8)">

<path d="M448 1055 c-28 -36 -38 -58 -43 -105 -7 -62 1 -97 42 -184 12 -27 21 -52 18 -55 -3 -2 -18 8 -33 22 -33 32 -52 34 -52 7 0 -25 2 -25 -54 6 -25 14 -73 29 -107 34 -145 21 -189 -58 -139 -246 28 -104 42 -127 92 -154 36 -19 49 -35 81 -100 25 -50 47 -81 63 -89 18 -8 24 -18 24 -41 0 -33 15 -70 34 -82 35 -23 108 20 162 95 38 52 84 165 84 204 0 25 15 31 23 11 3 -7 6 8 6 35 l1 47 53 0 c29 0 58 -5 65 -12 9 -9 12 -9 12 0 0 7 -4 12 -10 12 -5 0 -10 4 -10 9 0 4 21 11 48 14 74 9 151 37 157 58 4 11 12 19 18 19 7 1 29 15 49 33 27 23 37 41 40 67 3 31 -1 37 -32 52 -19 10 -46 19 -60 22 -16 3 -40 26 -65 61 -22 30 -54 64 -71 74 -18 11 -34 31 -38 47 -14 53 -46 84 -130 123 -44 21 -94 42 -111 45 -83 19 -79 20 -117 -29z m171 -124 c81 -38 85 -52 31 -98 -24 -21 -61 -56 -82 -77 -21 -22 -39 -37 -41 -35 -25 35 -45 174 -33 224 6 24 10 26 39 20 18 -4 57 -19 86 -34z m201 -211 c12 -17 35 -37 52 -46 27 -14 32 -14 55 1 18 12 28 14 36 6 16 -16 1 -26 -87 -56 -74 -25 -83 -27 -134 -15 -89 20 -143 59 -96 69 10 2 45 18 78 36 34 18 64 34 68 34 4 1 16 -13 28 -29z m-557 -35 c20 -4 40 -11 43 -16 3 -5 9 -7 14 -4 4 3 30 -10 56 -29 54 -36 69 -66 34 -66 -30 0 -118 -47 -130 -70 -15 -29 -47 -25 -64 8 -8 15 -19 53 -25 85 -6 32 -13 62 -16 67 -11 18 8 42 29 36 11 -2 38 -8 59 -11z m229 -237 c4 -84 -2 -121 -26 -165 -14 -25 -26 -56 -26 -68 0 -20 -26 -54 -33 -44 -15 21 -26 64 -22 86 3 16 -3 45 -14 68 l-19 40 56 58 c31 31 62 57 69 57 8 0 14 -14 15 -32z" transform="translate(0,116) scale(0.1,-0.1)" stroke="none" fill="#C8814D"/>

</g>

<g id="3" transform="translate(0,348.0)scale(0.8,0.8)">

<path d="M448 1055 c-28 -36 -38 -58 -43 -105 -7 -62 1 -97 42 -184 12 -27 21 -52 18 -55 -3 -2 -18 8 -33 22 -33 32 -52 34 -52 7 0 -25 2 -25 -54 6 -25 14 -73 29 -107 34 -145 21 -189 -58 -139 -246 28 -104 42 -127 92 -154 36 -19 49 -35 81 -100 25 -50 47 -81 63 -89 18 -8 24 -18 24 -41 0 -33 15 -70 34 -82 35 -23 108 20 162 95 38 52 84 165 84 204 0 25 15 31 23 11 3 -7 6 8 6 35 l1 47 53 0 c29 0 58 -5 65 -12 9 -9 12 -9 12 0 0 7 -4 12 -10 12 -5 0 -10 4 -10 9 0 4 21 11 48 14 74 9 151 37 157 58 4 11 12 19 18 19 7 1 29 15 49 33 27 23 37 41 40 67 3 31 -1 37 -32 52 -19 10 -46 19 -60 22 -16 3 -40 26 -65 61 -22 30 -54 64 -71 74 -18 11 -34 31 -38 47 -14 53 -46 84 -130 123 -44 21 -94 42 -111 45 -83 19 -79 20 -117 -29z m171 -124 c81 -38 85 -52 31 -98 -24 -21 -61 -56 -82 -77 -21 -22 -39 -37 -41 -35 -25 35 -45 174 -33 224 6 24 10 26 39 20 18 -4 57 -19 86 -34z m201 -211 c12 -17 35 -37 52 -46 27 -14 32 -14 55 1 18 12 28 14 36 6 16 -16 1 -26 -87 -56 -74 -25 -83 -27 -134 -15 -89 20 -143 59 -96 69 10 2 45 18 78 36 34 18 64 34 68 34 4 1 16 -13 28 -29z m-557 -35 c20 -4 40 -11 43 -16 3 -5 9 -7 14 -4 4 3 30 -10 56 -29 54 -36 69 -66 34 -66 -30 0 -118 -47 -130 -70 -15 -29 -47 -25 -64 8 -8 15 -19 53 -25 85 -6 32 -13 62 -16 67 -11 18 8 42 29 36 11 -2 38 -8 59 -11z m229 -237 c4 -84 -2 -121 -26 -165 -14 -25 -26 -56 -26 -68 0 -20 -26 -54 -33 -44 -15 21 -26 64 -22 86 3 16 -3 45 -14 68 l-19 40 56 58 c31 31 62 57 69 57 8 0 14 -14 15 -32z" transform="translate(0,116) scale(0.1,-0.1)" stroke="none" fill="#C8814D"/>

</g>

<g id="4" transform="translate(0,464.0)scale(0.8,0.8)">

<path d="M448 1055 c-28 -36 -38 -58 -43 -105 -7 -62 1 -97 42 -184 12 -27 21 -52 18 -55 -3 -2 -18 8 -33 22 -33 32 -52 34 -52 7 0 -25 2 -25 -54 6 -25 14 -73 29 -107 34 -145 21 -189 -58 -139 -246 28 -104 42 -127 92 -154 36 -19 49 -35 81 -100 25 -50 47 -81 63 -89 18 -8 24 -18 24 -41 0 -33 15 -70 34 -82 35 -23 108 20 162 95 38 52 84 165 84 204 0 25 15 31 23 11 3 -7 6 8 6 35 l1 47 53 0 c29 0 58 -5 65 -12 9 -9 12 -9 12 0 0 7 -4 12 -10 12 -5 0 -10 4 -10 9 0 4 21 11 48 14 74 9 151 37 157 58 4 11 12 19 18 19 7 1 29 15 49 33 27 23 37 41 40 67 3 31 -1 37 -32 52 -19 10 -46 19 -60 22 -16 3 -40 26 -65 61 -22 30 -54 64 -71 74 -18 11 -34 31 -38 47 -14 53 -46 84 -130 123 -44 21 -94 42 -111 45 -83 19 -79 20 -117 -29z m171 -124 c81 -38 85 -52 31 -98 -24 -21 -61 -56 -82 -77 -21 -22 -39 -37 -41 -35 -25 35 -45 174 -33 224 6 24 10 26 39 20 18 -4 57 -19 86 -34z m201 -211 c12 -17 35 -37 52 -46 27 -14 32 -14 55 1 18 12 28 14 36 6 16 -16 1 -26 -87 -56 -74 -25 -83 -27 -134 -15 -89 20 -143 59 -96 69 10 2 45 18 78 36 34 18 64 34 68 34 4 1 16 -13 28 -29z m-557 -35 c20 -4 40 -11 43 -16 3 -5 9 -7 14 -4 4 3 30 -10 56 -29 54 -36 69 -66 34 -66 -30 0 -118 -47 -130 -70 -15 -29 -47 -25 -64 8 -8 15 -19 53 -25 85 -6 32 -13 62 -16 67 -11 18 8 42 29 36 11 -2 38 -8 59 -11z m229 -237 c4 -84 -2 -121 -26 -165 -14 -25 -26 -56 -26 -68 0 -20 -26 -54 -33 -44 -15 21 -26 64 -22 86 3 16 -3 45 -14 68 l-19 40 56 58 c31 31 62 57 69 57 8 0 14 -14 15 -32z" transform="translate(0,116) scale(0.1,-0.1)" stroke="none" fill="#C8814D"/>

</g>

</g>
<g id="col2" transform="translate(228, 15)">
<g id="0" transform="translate(0,0.0)scale(0.8,0.8)">

<path d="M448 1055 c-28 -36 -38 -58 -43 -105 -7 -62 1 -97 42 -184 12 -27 21 -52 18 -55 -3 -2 -18 8 -33 22 -33 32 -52 34 -52 7 0 -25 2 -25 -54 6 -25 14 -73 29 -107 34 -145 21 -189 -58 -139 -246 28 -104 42 -127 92 -154 36 -19 49 -35 81 -100 25 -50 47 -81 63 -89 18 -8 24 -18 24 -41 0 -33 15 -70 34 -82 35 -23 108 20 162 95 38 52 84 165 84 204 0 25 15 31 23 11 3 -7 6 8 6 35 l1 47 53 0 c29 0 58 -5 65 -12 9 -9 12 -9 12 0 0 7 -4 12 -10 12 -5 0 -10 4 -10 9 0 4 21 11 48 14 74 9 151 37 157 58 4 11 12 19 18 19 7 1 29 15 49 33 27 23 37 41 40 67 3 31 -1 37 -32 52 -19 10 -46 19 -60 22 -16 3 -40 26 -65 61 -22 30 -54 64 -71 74 -18 11 -34 31 -38 47 -14 53 -46 84 -130 123 -44 21 -94 42 -111 45 -83 19 -79 20 -117 -29z m171 -124 c81 -38 85 -52 31 -98 -24 -21 -61 -56 -82 -77 -21 -22 -39 -37 -41 -35 -25 35 -45 174 -33 224 6 24 10 26 39 20 18 -4 57 -19 86 -34z m201 -211 c12 -17 35 -37 52 -46 27 -14 32 -14 55 1 18 12 28 14 36 6 16 -16 1 -26 -87 -56 -74 -25 -83 -27 -134 -15 -89 20 -143 59 -96 69 10 2 45 18 78 36 34 18 64 34 68 34 4 1 16 -13 28 -29z m-557 -35 c20 -4 40 -11 43 -16 3 -5 9 -7 14 -4 4 3 30 -10 56 -29 54 -36 69 -66 34 -66 -30 0 -118 -47 -130 -70 -15 -29 -47 -25 -64 8 -8 15 -19 53 -25 85 -6 32 -13 62 -16 67 -11 18 8 42 29 36 11 -2 38 -8 59 -11z m229 -237 c4 -84 -2 -121 -26 -165 -14 -25 -26 -56 -26 -68 0 -20 -26 -54 -33 -44 -15 21 -26 64 -22 86 3 16 -3 45 -14 68 l-19 40 56 58 c31 31 62 57 69 57 8 0 14 -14 15 -32z" transform="translate(0,116) scale(0.1,-0.1)" stroke="none" fill="#C8814D"/>

</g>

<g id="1" transform="translate(0,116.0)scale(0.8,0.8)">

<path d="M448 1055 c-28 -36 -38 -58 -43 -105 -7 -62 1 -97 42 -184 12 -27 21 -52 18 -55 -3 -2 -18 8 -33 22 -33 32 -52 34 -52 7 0 -25 2 -25 -54 6 -25 14 -73 29 -107 34 -145 21 -189 -58 -139 -246 28 -104 42 -127 92 -154 36 -19 49 -35 81 -100 25 -50 47 -81 63 -89 18 -8 24 -18 24 -41 0 -33 15 -70 34 -82 35 -23 108 20 162 95 38 52 84 165 84 204 0 25 15 31 23 11 3 -7 6 8 6 35 l1 47 53 0 c29 0 58 -5 65 -12 9 -9 12 -9 12 0 0 7 -4 12 -10 12 -5 0 -10 4 -10 9 0 4 21 11 48 14 74 9 151 37 157 58 4 11 12 19 18 19 7 1 29 15 49 33 27 23 37 41 40 67 3 31 -1 37 -32 52 -19 10 -46 19 -60 22 -16 3 -40 26 -65 61 -22 30 -54 64 -71 74 -18 11 -34 31 -38 47 -14 53 -46 84 -130 123 -44 21 -94 42 -111 45 -83 19 -79 20 -117 -29z m171 -124 c81 -38 85 -52 31 -98 -24 -21 -61 -56 -82 -77 -21 -22 -39 -37 -41 -35 -25 35 -45 174 -33 224 6 24 10 26 39 20 18 -4 57 -19 86 -34z m201 -211 c12 -17 35 -37 52 -46 27 -14 32 -14 55 1 18 12 28 14 36 6 16 -16 1 -26 -87 -56 -74 -25 -83 -27 -134 -15 -89 20 -143 59 -96 69 10 2 45 18 78 36 34 18 64 34 68 34 4 1 16 -13 28 -29z m-557 -35 c20 -4 40 -11 43 -16 3 -5 9 -7 14 -4 4 3 30 -10 56 -29 54 -36 69 -66 34 -66 -30 0 -118 -47 -130 -70 -15 -29 -47 -25 -64 8 -8 15 -19 53 -25 85 -6 32 -13 62 -16 67 -11 18 8 42 29 36 11 -2 38 -8 59 -11z m229 -237 c4 -84 -2 -121 -26 -165 -14 -25 -26 -56 -26 -68 0 -20 -26 -54 -33 -44 -15 21 -26 64 -22 86 3 16 -3 45 -14 68 l-19 40 56 58 c31 31 62 57 69 57 8 0 14 -14 15 -32z" transform="translate(0,116) scale(0.1,-0.1)" stroke="none" fill="#C8814D"/>

</g>

<g id="2" transform="translate(0,232.0)scale(0.8,0.8)">

<path d="M448 1055 c-28 -36 -38 -58 -43 -105 -7 -62 1 -97 42 -184 12 -27 21 -52 18 -55 -3 -2 -18 8 -33 22 -33 32 -52 34 -52 7 0 -25 2 -25 -54 6 -25 14 -73 29 -107 34 -145 21 -189 -58 -139 -246 28 -104 42 -127 92 -154 36 -19 49 -35 81 -100 25 -50 47 -81 63 -89 18 -8 24 -18 24 -41 0 -33 15 -70 34 -82 35 -23 108 20 162 95 38 52 84 165 84 204 0 25 15 31 23 11 3 -7 6 8 6 35 l1 47 53 0 c29 0 58 -5 65 -12 9 -9 12 -9 12 0 0 7 -4 12 -10 12 -5 0 -10 4 -10 9 0 4 21 11 48 14 74 9 151 37 157 58 4 11 12 19 18 19 7 1 29 15 49 33 27 23 37 41 40 67 3 31 -1 37 -32 52 -19 10 -46 19 -60 22 -16 3 -40 26 -65 61 -22 30 -54 64 -71 74 -18 11 -34 31 -38 47 -14 53 -46 84 -130 123 -44 21 -94 42 -111 45 -83 19 -79 20 -117 -29z m171 -124 c81 -38 85 -52 31 -98 -24 -21 -61 -56 -82 -77 -21 -22 -39 -37 -41 -35 -25 35 -45 174 -33 224 6 24 10 26 39 20 18 -4 57 -19 86 -34z m201 -211 c12 -17 35 -37 52 -46 27 -14 32 -14 55 1 18 12 28 14 36 6 16 -16 1 -26 -87 -56 -74 -25 -83 -27 -134 -15 -89 20 -143 59 -96 69 10 2 45 18 78 36 34 18 64 34 68 34 4 1 16 -13 28 -29z m-557 -35 c20 -4 40 -11 43 -16 3 -5 9 -7 14 -4 4 3 30 -10 56 -29 54 -36 69 -66 34 -66 -30 0 -118 -47 -130 -70 -15 -29 -47 -25 -64 8 -8 15 -19 53 -25 85 -6 32 -13 62 -16 67 -11 18 8 42 29 36 11 -2 38 -8 59 -11z m229 -237 c4 -84 -2 -121 -26 -165 -14 -25 -26 -56 -26 -68 0 -20 -26 -54 -33 -44 -15 21 -26 64 -22 86 3 16 -3 45 -14 68 l-19 40 56 58 c31 31 62 57 69 57 8 0 14 -14 15 -32z" transform="translate(0,116) scale(0.1,-0.1)" stroke="none" fill="#C8814D"/>

</g>

<g id="3" transform="translate(0,348.0)scale(0.8,0.8)">

<path d="M448 1055 c-28 -36 -38 -58 -43 -105 -7 -62 1 -97 42 -184 12 -27 21 -52 18 -55 -3 -2 -18 8 -33 22 -33 32 -52 34 -52 7 0 -25 2 -25 -54 6 -25 14 -73 29 -107 34 -145 21 -189 -58 -139 -246 28 -104 42 -127 92 -154 36 -19 49 -35 81 -100 25 -50 47 -81 63 -89 18 -8 24 -18 24 -41 0 -33 15 -70 34 -82 35 -23 108 20 162 95 38 52 84 165 84 204 0 25 15 31 23 11 3 -7 6 8 6 35 l1 47 53 0 c29 0 58 -5 65 -12 9 -9 12 -9 12 0 0 7 -4 12 -10 12 -5 0 -10 4 -10 9 0 4 21 11 48 14 74 9 151 37 157 58 4 11 12 19 18 19 7 1 29 15 49 33 27 23 37 41 40 67 3 31 -1 37 -32 52 -19 10 -46 19 -60 22 -16 3 -40 26 -65 61 -22 30 -54 64 -71 74 -18 11 -34 31 -38 47 -14 53 -46 84 -130 123 -44 21 -94 42 -111 45 -83 19 -79 20 -117 -29z m171 -124 c81 -38 85 -52 31 -98 -24 -21 -61 -56 -82 -77 -21 -22 -39 -37 -41 -35 -25 35 -45 174 -33 224 6 24 10 26 39 20 18 -4 57 -19 86 -34z m201 -211 c12 -17 35 -37 52 -46 27 -14 32 -14 55 1 18 12 28 14 36 6 16 -16 1 -26 -87 -56 -74 -25 -83 -27 -134 -15 -89 20 -143 59 -96 69 10 2 45 18 78 36 34 18 64 34 68 34 4 1 16 -13 28 -29z m-557 -35 c20 -4 40 -11 43 -16 3 -5 9 -7 14 -4 4 3 30 -10 56 -29 54 -36 69 -66 34 -66 -30 0 -118 -47 -130 -70 -15 -29 -47 -25 -64 8 -8 15 -19 53 -25 85 -6 32 -13 62 -16 67 -11 18 8 42 29 36 11 -2 38 -8 59 -11z m229 -237 c4 -84 -2 -121 -26 -165 -14 -25 -26 -56 -26 -68 0 -20 -26 -54 -33 -44 -15 21 -26 64 -22 86 3 16 -3 45 -14 68 l-19 40 56 58 c31 31 62 57 69 57 8 0 14 -14 15 -32z" transform="translate(0,116) scale(0.1,-0.1)" stroke="none" fill="#C8814D"/>

</g>

<g id="4" transform="translate(0,464.0)scale(0.8,0.8)">

<path d="M448 1055 c-28 -36 -38 -58 -43 -105 -7 -62 1 -97 42 -184 12 -27 21 -52 18 -55 -3 -2 -18 8 -33 22 -33 32 -52 34 -52 7 0 -25 2 -25 -54 6 -25 14 -73 29 -107 34 -145 21 -189 -58 -139 -246 28 -104 42 -127 92 -154 36 -19 49 -35 81 -100 25 -50 47 -81 63 -89 18 -8 24 -18 24 -41 0 -33 15 -70 34 -82 35 -23 108 20 162 95 38 52 84 165 84 204 0 25 15 31 23 11 3 -7 6 8 6 35 l1 47 53 0 c29 0 58 -5 65 -12 9 -9 12 -9 12 0 0 7 -4 12 -10 12 -5 0 -10 4 -10 9 0 4 21 11 48 14 74 9 151 37 157 58 4 11 12 19 18 19 7 1 29 15 49 33 27 23 37 41 40 67 3 31 -1 37 -32 52 -19 10 -46 19 -60 22 -16 3 -40 26 -65 61 -22 30 -54 64 -71 74 -18 11 -34 31 -38 47 -14 53 -46 84 -130 123 -44 21 -94 42 -111 45 -83 19 -79 20 -117 -29z m171 -124 c81 -38 85 -52 31 -98 -24 -21 -61 -56 -82 -77 -21 -22 -39 -37 -41 -35 -25 35 -45 174 -33 224 6 24 10 26 39 20 18 -4 57 -19 86 -34z m201 -211 c12 -17 35 -37 52 -46 27 -14 32 -14 55 1 18 12 28 14 36 6 16 -16 1 -26 -87 -56 -74 -25 -83 -27 -134 -15 -89 20 -143 59 -96 69 10 2 45 18 78 36 34 18 64 34 68 34 4 1 16 -13 28 -29z m-557 -35 c20 -4 40 -11 43 -16 3 -5 9 -7 14 -4 4 3 30 -10 56 -29 54 -36 69 -66 34 -66 -30 0 -118 -47 -130 -70 -15 -29 -47 -25 -64 8 -8 15 -19 53 -25 85 -6 32 -13 62 -16 67 -11 18 8 42 29 36 11 -2 38 -8 59 -11z m229 -237 c4 -84 -2 -121 -26 -165 -14 -25 -26 -56 -26 -68 0 -20 -26 -54 -33 -44 -15 21 -26 64 -22 86 3 16 -3 45 -14 68 l-19 40 56 58 c31 31 62 57 69 57 8 0 14 -14 15 -32z" transform="translate(0,116) scale(0.1,-0.1)" stroke="none" fill="#C8814D"/>

</g>

</g>
<g id="col3" transform="translate(342, -43.0)">
<g id="0" transform="translate(0,0.0)scale(0.8,0.8)">

<path d="M448 1055 c-28 -36 -38 -58 -43 -105 -7 -62 1 -97 42 -184 12 -27 21 -52 18 -55 -3 -2 -18 8 -33 22 -33 32 -52 34 -52 7 0 -25 2 -25 -54 6 -25 14 -73 29 -107 34 -145 21 -189 -58 -139 -246 28 -104 42 -127 92 -154 36 -19 49 -35 81 -100 25 -50 47 -81 63 -89 18 -8 24 -18 24 -41 0 -33 15 -70 34 -82 35 -23 108 20 162 95 38 52 84 165 84 204 0 25 15 31 23 11 3 -7 6 8 6 35 l1 47 53 0 c29 0 58 -5 65 -12 9 -9 12 -9 12 0 0 7 -4 12 -10 12 -5 0 -10 4 -10 9 0 4 21 11 48 14 74 9 151 37 157 58 4 11 12 19 18 19 7 1 29 15 49 33 27 23 37 41 40 67 3 31 -1 37 -32 52 -19 10 -46 19 -60 22 -16 3 -40 26 -65 61 -22 30 -54 64 -71 74 -18 11 -34 31 -38 47 -14 53 -46 84 -130 123 -44 21 -94 42 -111 45 -83 19 -79 20 -117 -29z m171 -124 c81 -38 85 -52 31 -98 -24 -21 -61 -56 -82 -77 -21 -22 -39 -37 -41 -35 -25 35 -45 174 -33 224 6 24 10 26 39 20 18 -4 57 -19 86 -34z m201 -211 c12 -17 35 -37 52 -46 27 -14 32 -14 55 1 18 12 28 14 36 6 16 -16 1 -26 -87 -56 -74 -25 -83 -27 -134 -15 -89 20 -143 59 -96 69 10 2 45 18 78 36 34 18 64 34 68 34 4 1 16 -13 28 -29z m-557 -35 c20 -4 40 -11 43 -16 3 -5 9 -7 14 -4 4 3 30 -10 56 -29 54 -36 69 -66 34 -66 -30 0 -118 -47 -130 -70 -15 -29 -47 -25 -64 8 -8 15 -19 53 -25 85 -6 32 -13 62 -16 67 -11 18 8 42 29 36 11 -2 38 -8 59 -11z m229 -237 c4 -84 -2 -121 -26 -165 -14 -25 -26 -56 -26 -68 0 -20 -26 -54 -33 -44 -15 21 -26 64 -22 86 3 16 -3 45 -14 68 l-19 40 56 58 c31 31 62 57 69 57 8 0 14 -14 15 -32z" transform="translate(0,116) scale(0.1,-0.1)" stroke="none" fill="#C8814D"/>

</g>

<g id="1" transform="translate(0,116.0)scale(0.8,0.8)">

<path d="M448 1055 c-28 -36 -38 -58 -43 -105 -7 -62 1 -97 42 -184 12 -27 21 -52 18 -55 -3 -2 -18 8 -33 22 -33 32 -52 34 -52 7 0 -25 2 -25 -54 6 -25 14 -73 29 -107 34 -145 21 -189 -58 -139 -246 28 -104 42 -127 92 -154 36 -19 49 -35 81 -100 25 -50 47 -81 63 -89 18 -8 24 -18 24 -41 0 -33 15 -70 34 -82 35 -23 108 20 162 95 38 52 84 165 84 204 0 25 15 31 23 11 3 -7 6 8 6 35 l1 47 53 0 c29 0 58 -5 65 -12 9 -9 12 -9 12 0 0 7 -4 12 -10 12 -5 0 -10 4 -10 9 0 4 21 11 48 14 74 9 151 37 157 58 4 11 12 19 18 19 7 1 29 15 49 33 27 23 37 41 40 67 3 31 -1 37 -32 52 -19 10 -46 19 -60 22 -16 3 -40 26 -65 61 -22 30 -54 64 -71 74 -18 11 -34 31 -38 47 -14 53 -46 84 -130 123 -44 21 -94 42 -111 45 -83 19 -79 20 -117 -29z m171 -124 c81 -38 85 -52 31 -98 -24 -21 -61 -56 -82 -77 -21 -22 -39 -37 -41 -35 -25 35 -45 174 -33 224 6 24 10 26 39 20 18 -4 57 -19 86 -34z m201 -211 c12 -17 35 -37 52 -46 27 -14 32 -14 55 1 18 12 28 14 36 6 16 -16 1 -26 -87 -56 -74 -25 -83 -27 -134 -15 -89 20 -143 59 -96 69 10 2 45 18 78 36 34 18 64 34 68 34 4 1 16 -13 28 -29z m-557 -35 c20 -4 40 -11 43 -16 3 -5 9 -7 14 -4 4 3 30 -10 56 -29 54 -36 69 -66 34 -66 -30 0 -118 -47 -130 -70 -15 -29 -47 -25 -64 8 -8 15 -19 53 -25 85 -6 32 -13 62 -16 67 -11 18 8 42 29 36 11 -2 38 -8 59 -11z m229 -237 c4 -84 -2 -121 -26 -165 -14 -25 -26 -56 -26 -68 0 -20 -26 -54 -33 -44 -15 21 -26 64 -22 86 3 16 -3 45 -14 68 l-19 40 56 58 c31 31 62 57 69 57 8 0 14 -14 15 -32z" transform="translate(0,116) scale(0.1,-0.1)" stroke="none" fill="#C8814D"/>

</g>

<g id="2" transform="translate(0,232.0)scale(0.8,0.8)">

<path d="M448 1055 c-28 -36 -38 -58 -43 -105 -7 -62 1 -97 42 -184 12 -27 21 -52 18 -55 -3 -2 -18 8 -33 22 -33 32 -52 34 -52 7 0 -25 2 -25 -54 6 -25 14 -73 29 -107 34 -145 21 -189 -58 -139 -246 28 -104 42 -127 92 -154 36 -19 49 -35 81 -100 25 -50 47 -81 63 -89 18 -8 24 -18 24 -41 0 -33 15 -70 34 -82 35 -23 108 20 162 95 38 52 84 165 84 204 0 25 15 31 23 11 3 -7 6 8 6 35 l1 47 53 0 c29 0 58 -5 65 -12 9 -9 12 -9 12 0 0 7 -4 12 -10 12 -5 0 -10 4 -10 9 0 4 21 11 48 14 74 9 151 37 157 58 4 11 12 19 18 19 7 1 29 15 49 33 27 23 37 41 40 67 3 31 -1 37 -32 52 -19 10 -46 19 -60 22 -16 3 -40 26 -65 61 -22 30 -54 64 -71 74 -18 11 -34 31 -38 47 -14 53 -46 84 -130 123 -44 21 -94 42 -111 45 -83 19 -79 20 -117 -29z m171 -124 c81 -38 85 -52 31 -98 -24 -21 -61 -56 -82 -77 -21 -22 -39 -37 -41 -35 -25 35 -45 174 -33 224 6 24 10 26 39 20 18 -4 57 -19 86 -34z m201 -211 c12 -17 35 -37 52 -46 27 -14 32 -14 55 1 18 12 28 14 36 6 16 -16 1 -26 -87 -56 -74 -25 -83 -27 -134 -15 -89 20 -143 59 -96 69 10 2 45 18 78 36 34 18 64 34 68 34 4 1 16 -13 28 -29z m-557 -35 c20 -4 40 -11 43 -16 3 -5 9 -7 14 -4 4 3 30 -10 56 -29 54 -36 69 -66 34 -66 -30 0 -118 -47 -130 -70 -15 -29 -47 -25 -64 8 -8 15 -19 53 -25 85 -6 32 -13 62 -16 67 -11 18 8 42 29 36 11 -2 38 -8 59 -11z m229 -237 c4 -84 -2 -121 -26 -165 -14 -25 -26 -56 -26 -68 0 -20 -26 -54 -33 -44 -15 21 -26 64 -22 86 3 16 -3 45 -14 68 l-19 40 56 58 c31 31 62 57 69 57 8 0 14 -14 15 -32z" transform="translate(0,116) scale(0.1,-0.1)" stroke="none" fill="#C8814D"/>

</g>

<g id="3" transform="translate(0,348.0)scale(0.8,0.8)">

<path d="M448 1055 c-28 -36 -38 -58 -43 -105 -7 -62 1 -97 42 -184 12 -27 21 -52 18 -55 -3 -2 -18 8 -33 22 -33 32 -52 34 -52 7 0 -25 2 -25 -54 6 -25 14 -73 29 -107 34 -145 21 -189 -58 -139 -246 28 -104 42 -127 92 -154 36 -19 49 -35 81 -100 25 -50 47 -81 63 -89 18 -8 24 -18 24 -41 0 -33 15 -70 34 -82 35 -23 108 20 162 95 38 52 84 165 84 204 0 25 15 31 23 11 3 -7 6 8 6 35 l1 47 53 0 c29 0 58 -5 65 -12 9 -9 12 -9 12 0 0 7 -4 12 -10 12 -5 0 -10 4 -10 9 0 4 21 11 48 14 74 9 151 37 157 58 4 11 12 19 18 19 7 1 29 15 49 33 27 23 37 41 40 67 3 31 -1 37 -32 52 -19 10 -46 19 -60 22 -16 3 -40 26 -65 61 -22 30 -54 64 -71 74 -18 11 -34 31 -38 47 -14 53 -46 84 -130 123 -44 21 -94 42 -111 45 -83 19 -79 20 -117 -29z m171 -124 c81 -38 85 -52 31 -98 -24 -21 -61 -56 -82 -77 -21 -22 -39 -37 -41 -35 -25 35 -45 174 -33 224 6 24 10 26 39 20 18 -4 57 -19 86 -34z m201 -211 c12 -17 35 -37 52 -46 27 -14 32 -14 55 1 18 12 28 14 36 6 16 -16 1 -26 -87 -56 -74 -25 -83 -27 -134 -15 -89 20 -143 59 -96 69 10 2 45 18 78 36 34 18 64 34 68 34 4 1 16 -13 28 -29z m-557 -35 c20 -4 40 -11 43 -16 3 -5 9 -7 14 -4 4 3 30 -10 56 -29 54 -36 69 -66 34 -66 -30 0 -118 -47 -130 -70 -15 -29 -47 -25 -64 8 -8 15 -19 53 -25 85 -6 32 -13 62 -16 67 -11 18 8 42 29 36 11 -2 38 -8 59 -11z m229 -237 c4 -84 -2 -121 -26 -165 -14 -25 -26 -56 -26 -68 0 -20 -26 -54 -33 -44 -15 21 -26 64 -22 86 3 16 -3 45 -14 68 l-19 40 56 58 c31 31 62 57 69 57 8 0 14 -14 15 -32z" transform="translate(0,116) scale(0.1,-0.1)" stroke="none" fill="#C8814D"/>

</g>

<g id="4" transform="translate(0,464.0)scale(0.8,0.8)">

<path d="M448 1055 c-28 -36 -38 -58 -43 -105 -7 -62 1 -97 42 -184 12 -27 21 -52 18 -55 -3 -2 -18 8 -33 22 -33 32 -52 34 -52 7 0 -25 2 -25 -54 6 -25 14 -73 29 -107 34 -145 21 -189 -58 -139 -246 28 -104 42 -127 92 -154 36 -19 49 -35 81 -100 25 -50 47 -81 63 -89 18 -8 24 -18 24 -41 0 -33 15 -70 34 -82 35 -23 108 20 162 95 38 52 84 165 84 204 0 25 15 31 23 11 3 -7 6 8 6 35 l1 47 53 0 c29 0 58 -5 65 -12 9 -9 12 -9 12 0 0 7 -4 12 -10 12 -5 0 -10 4 -10 9 0 4 21 11 48 14 74 9 151 37 157 58 4 11 12 19 18 19 7 1 29 15 49 33 27 23 37 41 40 67 3 31 -1 37 -32 52 -19 10 -46 19 -60 22 -16 3 -40 26 -65 61 -22 30 -54 64 -71 74 -18 11 -34 31 -38 47 -14 53 -46 84 -130 123 -44 21 -94 42 -111 45 -83 19 -79 20 -117 -29z m171 -124 c81 -38 85 -52 31 -98 -24 -21 -61 -56 -82 -77 -21 -22 -39 -37 -41 -35 -25 35 -45 174 -33 224 6 24 10 26 39 20 18 -4 57 -19 86 -34z m201 -211 c12 -17 35 -37 52 -46 27 -14 32 -14 55 1 18 12 28 14 36 6 16 -16 1 -26 -87 -56 -74 -25 -83 -27 -134 -15 -89 20 -143 59 -96 69 10 2 45 18 78 36 34 18 64 34 68 34 4 1 16 -13 28 -29z m-557 -35 c20 -4 40 -11 43 -16 3 -5 9 -7 14 -4 4 3 30 -10 56 -29 54 -36 69 -66 34 -66 -30 0 -118 -47 -130 -70 -15 -29 -47 -25 -64 8 -8 15 -19 53 -25 85 -6 32 -13 62 -16 67 -11 18 8 42 29 36 11 -2 38 -8 59 -11z m229 -237 c4 -84 -2 -121 -26 -165 -14 -25 -26 -56 -26 -68 0 -20 -26 -54 -33 -44 -15 21 -26 64 -22 86 3 16 -3 45 -14 68 l-19 40 56 58 c31 31 62 57 69 57 8 0 14 -14 15 -32z" transform="translate(0,116) scale(0.1,-0.1)" stroke="none" fill="#C8814D"/>

</g>

</g>
</svg>