<?xml version="1.0" standalone="no"?>
<!DOCTYPE svg PUBLIC "-//W3C//DTD SVG 20010904//EN"
 "http://www.w3.org/TR/2001/REC-SVG-20010904/DTD/svg10.dtd">
<svg version="1.0" xmlns="http://www.w3.org/2000/svg" width="352pt" height="432pt" viewBox="0 0 352 432" preserveAspectRatio = "xMidYMid meet" >
<metadata>
Created by ZoeQu, written in 2022
</metadata>
<rect width="352" height="432" fill="#CAD6E5"/>
<g id="row0" transform="translate(11,0.0)">
<g id="0" transform="translate(0.0,0)scale(1,1)">

<path d="M707 280 c24 -26 35 -50 42 -90 5 -30 9 -45 10 -32 0 12 6 22 11 22 16 0 12 27 -5 34 -8 3 -15 11 -15 19 0 7 -17 29 -37 48 l-38 34 32 -35z" transform="translate(0,108) scale(0.1,-0.1)" stroke="none" fill="#082223"/>

<path d="M779 109 c12 -11 21 -29 21 -41 0 -18 -4 -20 -47 -15 -27 3 -40 3 -31 1 10 -3 15 -11 11 -20 -6 -16 22 -20 32 -4 3 6 15 10 26 10 33 0 19 81 -15 86 -16 2 -16 0 3 -17z" transform="translate(0,108) scale(0.1,-0.1)" stroke="none" fill="#082223"/>

<path d="M401 341 c30 -24 54 -85 41 -107 -12 -22 5 -78 32 -102 12 -11 37 -22 56 -26 25 -4 31 -3 20 4 -8 5 -24 10 -36 10 -39 0 -82 79 -62 114 16 29 -34 126 -65 126 -5 0 1 -8 14 -19z" transform="translate(0,108) scale(0.1,-0.1)" stroke="none" fill="#082223"/>

<path d="M50 776 c0 -27 21 -57 98 -138 40 -44 52 -63 47 -78 -9 -29 2 -57 26 -63 17 -5 19 -9 10 -26 -13 -23 0 -35 28 -26 13 4 32 -8 66 -42 l48 -48 -34 42 c-19 24 -46 49 -61 55 -16 7 -28 21 -28 30 0 10 -4 18 -9 18 -21 0 -41 32 -35 55 5 19 -4 34 -38 72 -96 105 -110 125 -105 149 2 13 0 24 -4 24 -5 0 -9 -11 -9 -24z" transform="translate(0,108) scale(0.1,-0.1)" stroke="none" fill="#082223"/>

<path d="M557 1014 c-3 -3 -3 -12 0 -20 3 -8 0 -14 -6 -14 -40 0 -281 -128 -281 -150 0 -5 11 -21 25 -36 28 -30 33 -76 13 -119 -8 -18 -18 -25 -30 -22 -10 3 -16 1 -13 -3 3 -5 0 -12 -7 -17 -7 -4 -18 -17 -25 -28 -6 -11 -15 -19 -20 -18 -7 1 -9 -31 -4 -66 0 -5 10 -13 21 -16 11 -3 20 -15 20 -26 0 -10 7 -19 15 -19 8 0 36 -22 62 -50 26 -27 50 -50 54 -50 10 0 -84 95 -106 107 -29 16 -11 44 27 43 18 0 75 3 127 6 l93 6 52 -48 51 -49 -45 47 c-26 29 -40 51 -35 56 6 5 30 14 54 21 54 16 151 61 151 71 0 7 20 33 65 83 14 15 25 36 25 46 0 24 -26 51 -48 51 -30 0 -82 38 -76 55 4 8 12 15 19 15 21 0 26 30 11 58 -8 15 -17 39 -20 54 -6 26 -7 26 -76 22 -46 -4 -70 -1 -70 5 0 12 -13 15 -23 5z" transform="translate(0,108) scale(0.1,-0.1)" stroke="none" fill="#295565"/>

<path d="M70 768 c0 -14 22 -46 56 -83 30 -33 62 -70 71 -83 12 -17 19 -20 29 -11 8 6 14 16 14 22 0 5 7 15 16 22 14 10 10 16 -32 46 -27 20 -73 52 -101 73 -51 37 -53 37 -53 14z" transform="translate(0,108) scale(0.1,-0.1)" stroke="none" fill="#7195A6"/>

<path d="M540 1006 c-5 -13 -19 -27 -32 -31 -13 -4 -47 -18 -76 -31 -29 -13 -57 -24 -62 -24 -5 0 -15 -6 -22 -12 -7 -7 -30 -26 -50 -41 -45 -33 -47 -53 -12 -87 22 -20 25 -30 21 -63 -6 -47 -22 -66 -39 -49 -7 7 -17 12 -23 12 -14 -1 26 -30 40 -30 16 0 35 45 35 84 0 21 -9 43 -25 60 -14 15 -25 31 -25 36 0 22 241 150 281 150 6 0 9 7 6 15 -7 18 13 32 23 16 4 -8 28 -10 73 -7 66 4 67 4 73 -22 3 -15 12 -39 20 -54 15 -28 10 -58 -11 -58 -7 0 -15 -7 -19 -15 -6 -17 46 -55 76 -55 22 0 48 -27 48 -51 0 -10 -11 -31 -25 -46 -45 -50 -65 -76 -65 -83 0 -10 -97 -55 -151 -71 -66 -19 -68 -24 -20 -73 24 -24 47 -59 51 -77 8 -32 8 -33 9 -6 1 20 -12 41 -45 77 -32 34 -42 51 -33 55 8 2 37 12 64 21 66 22 135 54 135 64 0 4 10 19 23 33 50 60 67 86 67 110 0 25 -27 57 -49 57 -19 0 -71 29 -71 40 0 6 7 10 15 10 22 0 29 45 11 72 -9 12 -16 37 -16 55 0 17 -3 34 -7 36 -5 2 -37 1 -73 -3 -36 -4 -69 -3 -74 1 -18 16 -36 9 -46 -15z" transform="translate(0,108) scale(0.1,-0.1)" stroke="none" fill="#082223"/>

<path d="M344 511 c-2 -3 -20 -4 -40 -3 -41 3 -59 -24 -28 -41 10 -6 37 -29 59 -52 22 -23 52 -49 67 -58 38 -24 61 -72 55 -114 -10 -58 20 -110 66 -119 13 -2 59 -15 102 -29 96 -30 175 -42 175 -27 0 6 -13 25 -30 42 -23 24 -30 40 -30 71 0 51 -11 71 -71 136 -35 37 -49 60 -49 80 0 21 -13 42 -49 77 l-48 47 -87 -2 c-48 -2 -89 -5 -92 -8z m246 -281 c0 -5 -5 -10 -11 -10 -5 0 -7 5 -4 10 3 6 8 10 11 10 2 0 4 -4 4 -10z" transform="translate(0,108) scale(0.1,-0.1)" stroke="none" fill="#7195A6"/>

</g>

<g id="1" transform="translate(88.0,0)scale(1,1)">

<path d="M707 280 c24 -26 35 -50 42 -90 5 -30 9 -45 10 -32 0 12 6 22 11 22 16 0 12 27 -5 34 -8 3 -15 11 -15 19 0 7 -17 29 -37 48 l-38 34 32 -35z" transform="translate(0,108) scale(0.1,-0.1)" stroke="none" fill="#082223"/>

<path d="M779 109 c12 -11 21 -29 21 -41 0 -18 -4 -20 -47 -15 -27 3 -40 3 -31 1 10 -3 15 -11 11 -20 -6 -16 22 -20 32 -4 3 6 15 10 26 10 33 0 19 81 -15 86 -16 2 -16 0 3 -17z" transform="translate(0,108) scale(0.1,-0.1)" stroke="none" fill="#082223"/>

<path d="M401 341 c30 -24 54 -85 41 -107 -12 -22 5 -78 32 -102 12 -11 37 -22 56 -26 25 -4 31 -3 20 4 -8 5 -24 10 -36 10 -39 0 -82 79 -62 114 16 29 -34 126 -65 126 -5 0 1 -8 14 -19z" transform="translate(0,108) scale(0.1,-0.1)" stroke="none" fill="#082223"/>

<path d="M50 776 c0 -27 21 -57 98 -138 40 -44 52 -63 47 -78 -9 -29 2 -57 26 -63 17 -5 19 -9 10 -26 -13 -23 0 -35 28 -26 13 4 32 -8 66 -42 l48 -48 -34 42 c-19 24 -46 49 -61 55 -16 7 -28 21 -28 30 0 10 -4 18 -9 18 -21 0 -41 32 -35 55 5 19 -4 34 -38 72 -96 105 -110 125 -105 149 2 13 0 24 -4 24 -5 0 -9 -11 -9 -24z" transform="translate(0,108) scale(0.1,-0.1)" stroke="none" fill="#082223"/>

<path d="M557 1014 c-3 -3 -3 -12 0 -20 3 -8 0 -14 -6 -14 -40 0 -281 -128 -281 -150 0 -5 11 -21 25 -36 28 -30 33 -76 13 -119 -8 -18 -18 -25 -30 -22 -10 3 -16 1 -13 -3 3 -5 0 -12 -7 -17 -7 -4 -18 -17 -25 -28 -6 -11 -15 -19 -20 -18 -7 1 -9 -31 -4 -66 0 -5 10 -13 21 -16 11 -3 20 -15 20 -26 0 -10 7 -19 15 -19 8 0 36 -22 62 -50 26 -27 50 -50 54 -50 10 0 -84 95 -106 107 -29 16 -11 44 27 43 18 0 75 3 127 6 l93 6 52 -48 51 -49 -45 47 c-26 29 -40 51 -35 56 6 5 30 14 54 21 54 16 151 61 151 71 0 7 20 33 65 83 14 15 25 36 25 46 0 24 -26 51 -48 51 -30 0 -82 38 -76 55 4 8 12 15 19 15 21 0 26 30 11 58 -8 15 -17 39 -20 54 -6 26 -7 26 -76 22 -46 -4 -70 -1 -70 5 0 12 -13 15 -23 5z" transform="translate(0,108) scale(0.1,-0.1)" stroke="none" fill="#295565"/>

<path d="M70 768 c0 -14 22 -46 56 -83 30 -33 62 -70 71 -83 12 -17 19 -20 29 -11 8 6 14 16 14 22 0 5 7 15 16 22 14 10 10 16 -32 46 -27 20 -73 52 -101 73 -51 37 -53 37 -53 14z" transform="translate(0,108) scale(0.1,-0.1)" stroke="none" fill="#7195A6"/>

<path d="M540 1006 c-5 -13 -19 -27 -32 -31 -13 -4 -47 -18 -76 -31 -29 -13 -57 -24 -62 -24 -5 0 -15 -6 -22 -12 -7 -7 -30 -26 -50 -41 -45 -33 -47 -53 -12 -87 22 -20 25 -30 21 -63 -6 -47 -22 -66 -39 -49 -7 7 -17 12 -23 12 -14 -1 26 -30 40 -30 16 0 35 45 35 84 0 21 -9 43 -25 60 -14 15 -25 31 -25 36 0 22 241 150 281 150 6 0 9 7 6 15 -7 18 13 32 23 16 4 -8 28 -10 73 -7 66 4 67 4 73 -22 3 -15 12 -39 20 -54 15 -28 10 -58 -11 -58 -7 0 -15 -7 -19 -15 -6 -17 46 -55 76 -55 22 0 48 -27 48 -51 0 -10 -11 -31 -25 -46 -45 -50 -65 -76 -65 -83 0 -10 -97 -55 -151 -71 -66 -19 -68 -24 -20 -73 24 -24 47 -59 51 -77 8 -32 8 -33 9 -6 1 20 -12 41 -45 77 -32 34 -42 51 -33 55 8 2 37 12 64 21 66 22 135 54 135 64 0 4 10 19 23 33 50 60 67 86 67 110 0 25 -27 57 -49 57 -19 0 -71 29 -71 40 0 6 7 10 15 10 22 0 29 45 11 72 -9 12 -16 37 -16 55 0 17 -3 34 -7 36 -5 2 -37 1 -73 -3 -36 -4 -69 -3 -74 1 -18 16 -36 9 -46 -15z" transform="translate(0,108) scale(0.1,-0.1)" stroke="none" fill="#082223"/>

<path d="M344 511 c-2 -3 -20 -4 -40 -3 -41 3 -59 -24 -28 -41 10 -6 37 -29 59 -52 22 -23 52 -49 67 -58 38 -24 61 -72 55 -114 -10 -58 20 -110 66 -119 13 -2 59 -15 102 -29 96 -30 175 -42 175 -27 0 6 -13 25 -30 42 -23 24 -30 40 -30 71 0 51 -11 71 -71 136 -35 37 -49 60 -49 80 0 21 -13 42 -49 77 l-48 47 -87 -2 c-48 -2 -89 -5 -92 -8z m246 -281 c0 -5 -5 -10 -11 -10 -5 0 -7 5 -4 10 3 6 8 10 11 10 2 0 4 -4 4 -10z" transform="translate(0,108) scale(0.1,-0.1)" stroke="none" fill="#7195A6"/>

</g>

<g id="2" transform="translate(176.0,0)scale(1,1)">

<path d="M707 280 c24 -26 35 -50 42 -90 5 -30 9 -45 10 -32 0 12 6 22 11 22 16 0 12 27 -5 34 -8 3 -15 11 -15 19 0 7 -17 29 -37 48 l-38 34 32 -35z" transform="translate(0,108) scale(0.1,-0.1)" stroke="none" fill="#082223"/>

<path d="M779 109 c12 -11 21 -29 21 -41 0 -18 -4 -20 -47 -15 -27 3 -40 3 -31 1 10 -3 15 -11 11 -20 -6 -16 22 -20 32 -4 3 6 15 10 26 10 33 0 19 81 -15 86 -16 2 -16 0 3 -17z" transform="translate(0,108) scale(0.1,-0.1)" stroke="none" fill="#082223"/>

<path d="M401 341 c30 -24 54 -85 41 -107 -12 -22 5 -78 32 -102 12 -11 37 -22 56 -26 25 -4 31 -3 20 4 -8 5 -24 10 -36 10 -39 0 -82 79 -62 114 16 29 -34 126 -65 126 -5 0 1 -8 14 -19z" transform="translate(0,108) scale(0.1,-0.1)" stroke="none" fill="#082223"/>

<path d="M50 776 c0 -27 21 -57 98 -138 40 -44 52 -63 47 -78 -9 -29 2 -57 26 -63 17 -5 19 -9 10 -26 -13 -23 0 -35 28 -26 13 4 32 -8 66 -42 l48 -48 -34 42 c-19 24 -46 49 -61 55 -16 7 -28 21 -28 30 0 10 -4 18 -9 18 -21 0 -41 32 -35 55 5 19 -4 34 -38 72 -96 105 -110 125 -105 149 2 13 0 24 -4 24 -5 0 -9 -11 -9 -24z" transform="translate(0,108) scale(0.1,-0.1)" stroke="none" fill="#082223"/>

<path d="M557 1014 c-3 -3 -3 -12 0 -20 3 -8 0 -14 -6 -14 -40 0 -281 -128 -281 -150 0 -5 11 -21 25 -36 28 -30 33 -76 13 -119 -8 -18 -18 -25 -30 -22 -10 3 -16 1 -13 -3 3 -5 0 -12 -7 -17 -7 -4 -18 -17 -25 -28 -6 -11 -15 -19 -20 -18 -7 1 -9 -31 -4 -66 0 -5 10 -13 21 -16 11 -3 20 -15 20 -26 0 -10 7 -19 15 -19 8 0 36 -22 62 -50 26 -27 50 -50 54 -50 10 0 -84 95 -106 107 -29 16 -11 44 27 43 18 0 75 3 127 6 l93 6 52 -48 51 -49 -45 47 c-26 29 -40 51 -35 56 6 5 30 14 54 21 54 16 151 61 151 71 0 7 20 33 65 83 14 15 25 36 25 46 0 24 -26 51 -48 51 -30 0 -82 38 -76 55 4 8 12 15 19 15 21 0 26 30 11 58 -8 15 -17 39 -20 54 -6 26 -7 26 -76 22 -46 -4 -70 -1 -70 5 0 12 -13 15 -23 5z" transform="translate(0,108) scale(0.1,-0.1)" stroke="none" fill="#295565"/>

<path d="M70 768 c0 -14 22 -46 56 -83 30 -33 62 -70 71 -83 12 -17 19 -20 29 -11 8 6 14 16 14 22 0 5 7 15 16 22 14 10 10 16 -32 46 -27 20 -73 52 -101 73 -51 37 -53 37 -53 14z" transform="translate(0,108) scale(0.1,-0.1)" stroke="none" fill="#7195A6"/>

<path d="M540 1006 c-5 -13 -19 -27 -32 -31 -13 -4 -47 -18 -76 -31 -29 -13 -57 -24 -62 -24 -5 0 -15 -6 -22 -12 -7 -7 -30 -26 -50 -41 -45 -33 -47 -53 -12 -87 22 -20 25 -30 21 -63 -6 -47 -22 -66 -39 -49 -7 7 -17 12 -23 12 -14 -1 26 -30 40 -30 16 0 35 45 35 84 0 21 -9 43 -25 60 -14 15 -25 31 -25 36 0 22 241 150 281 150 6 0 9 7 6 15 -7 18 13 32 23 16 4 -8 28 -10 73 -7 66 4 67 4 73 -22 3 -15 12 -39 20 -54 15 -28 10 -58 -11 -58 -7 0 -15 -7 -19 -15 -6 -17 46 -55 76 -55 22 0 48 -27 48 -51 0 -10 -11 -31 -25 -46 -45 -50 -65 -76 -65 -83 0 -10 -97 -55 -151 -71 -66 -19 -68 -24 -20 -73 24 -24 47 -59 51 -77 8 -32 8 -33 9 -6 1 20 -12 41 -45 77 -32 34 -42 51 -33 55 8 2 37 12 64 21 66 22 135 54 135 64 0 4 10 19 23 33 50 60 67 86 67 110 0 25 -27 57 -49 57 -19 0 -71 29 -71 40 0 6 7 10 15 10 22 0 29 45 11 72 -9 12 -16 37 -16 55 0 17 -3 34 -7 36 -5 2 -37 1 -73 -3 -36 -4 -69 -3 -74 1 -18 16 -36 9 -46 -15z" transform="translate(0,108) scale(0.1,-0.1)" stroke="none" fill="#082223"/>

<path d="M344 511 c-2 -3 -20 -4 -40 -3 -41 3 -59 -24 -28 -41 10 -6 37 -29 59 -52 22 -23 52 -49 67 -58 38 -24 61 -72 55 -114 -10 -58 20 -110 66 -119 13 -2 59 -15 102 -29 96 -30 175 -42 175 -27 0 6 -13 25 -30 42 -23 24 -30 40 -30 71 0 51 -11 71 -71 136 -35 37 -49 60 -49 80 0 21 -13 42 -49 77 l-48 47 -87 -2 c-48 -2 -89 -5 -92 -8z m246 -281 c0 -5 -5 -10 -11 -10 -5 0 -7 5 -4 10 3 6 8 10 11 10 2 0 4 -4 4 -10z" transform="translate(0,108) scale(0.1,-0.1)" stroke="none" fill="#7195A6"/>

</g>

<g id="3" transform="translate(264.0,0)scale(1,1)">

<path d="M707 280 c24 -26 35 -50 42 -90 5 -30 9 -45 10 -32 0 12 6 22 11 22 16 0 12 27 -5 34 -8 3 -15 11 -15 19 0 7 -17 29 -37 48 l-38 34 32 -35z" transform="translate(0,108) scale(0.1,-0.1)" stroke="none" fill="#082223"/>

<path d="M779 109 c12 -11 21 -29 21 -41 0 -18 -4 -20 -47 -15 -27 3 -40 3 -31 1 10 -3 15 -11 11 -20 -6 -16 22 -20 32 -4 3 6 15 10 26 10 33 0 19 81 -15 86 -16 2 -16 0 3 -17z" transform="translate(0,108) scale(0.1,-0.1)" stroke="none" fill="#082223"/>

<path d="M401 341 c30 -24 54 -85 41 -107 -12 -22 5 -78 32 -102 12 -11 37 -22 56 -26 25 -4 31 -3 20 4 -8 5 -24 10 -36 10 -39 0 -82 79 -62 114 16 29 -34 126 -65 126 -5 0 1 -8 14 -19z" transform="translate(0,108) scale(0.1,-0.1)" stroke="none" fill="#082223"/>

<path d="M50 776 c0 -27 21 -57 98 -138 40 -44 52 -63 47 -78 -9 -29 2 -57 26 -63 17 -5 19 -9 10 -26 -13 -23 0 -35 28 -26 13 4 32 -8 66 -42 l48 -48 -34 42 c-19 24 -46 49 -61 55 -16 7 -28 21 -28 30 0 10 -4 18 -9 18 -21 0 -41 32 -35 55 5 19 -4 34 -38 72 -96 105 -110 125 -105 149 2 13 0 24 -4 24 -5 0 -9 -11 -9 -24z" transform="translate(0,108) scale(0.1,-0.1)" stroke="none" fill="#082223"/>

<path d="M557 1014 c-3 -3 -3 -12 0 -20 3 -8 0 -14 -6 -14 -40 0 -281 -128 -281 -150 0 -5 11 -21 25 -36 28 -30 33 -76 13 -119 -8 -18 -18 -25 -30 -22 -10 3 -16 1 -13 -3 3 -5 0 -12 -7 -17 -7 -4 -18 -17 -25 -28 -6 -11 -15 -19 -20 -18 -7 1 -9 -31 -4 -66 0 -5 10 -13 21 -16 11 -3 20 -15 20 -26 0 -10 7 -19 15 -19 8 0 36 -22 62 -50 26 -27 50 -50 54 -50 10 0 -84 95 -106 107 -29 16 -11 44 27 43 18 0 75 3 127 6 l93 6 52 -48 51 -49 -45 47 c-26 29 -40 51 -35 56 6 5 30 14 54 21 54 16 151 61 151 71 0 7 20 33 65 83 14 15 25 36 25 46 0 24 -26 51 -48 51 -30 0 -82 38 -76 55 4 8 12 15 19 15 21 0 26 30 11 58 -8 15 -17 39 -20 54 -6 26 -7 26 -76 22 -46 -4 -70 -1 -70 5 0 12 -13 15 -23 5z" transform="translate(0,108) scale(0.1,-0.1)" stroke="none" fill="#295565"/>

<path d="M70 768 c0 -14 22 -46 56 -83 30 -33 62 -70 71 -83 12 -17 19 -20 29 -11 8 6 14 16 14 22 0 5 7 15 16 22 14 10 10 16 -32 46 -27 20 -73 52 -101 73 -51 37 -53 37 -53 14z" transform="translate(0,108) scale(0.1,-0.1)" stroke="none" fill="#7195A6"/>

<path d="M540 1006 c-5 -13 -19 -27 -32 -31 -13 -4 -47 -18 -76 -31 -29 -13 -57 -24 -62 -24 -5 0 -15 -6 -22 -12 -7 -7 -30 -26 -50 -41 -45 -33 -47 -53 -12 -87 22 -20 25 -30 21 -63 -6 -47 -22 -66 -39 -49 -7 7 -17 12 -23 12 -14 -1 26 -30 40 -30 16 0 35 45 35 84 0 21 -9 43 -25 60 -14 15 -25 31 -25 36 0 22 241 150 281 150 6 0 9 7 6 15 -7 18 13 32 23 16 4 -8 28 -10 73 -7 66 4 67 4 73 -22 3 -15 12 -39 20 -54 15 -28 10 -58 -11 -58 -7 0 -15 -7 -19 -15 -6 -17 46 -55 76 -55 22 0 48 -27 48 -51 0 -10 -11 -31 -25 -46 -45 -50 -65 -76 -65 -83 0 -10 -97 -55 -151 -71 -66 -19 -68 -24 -20 -73 24 -24 47 -59 51 -77 8 -32 8 -33 9 -6 1 20 -12 41 -45 77 -32 34 -42 51 -33 55 8 2 37 12 64 21 66 22 135 54 135 64 0 4 10 19 23 33 50 60 67 86 67 110 0 25 -27 57 -49 57 -19 0 -71 29 -71 40 0 6 7 10 15 10 22 0 29 45 11 72 -9 12 -16 37 -16 55 0 17 -3 34 -7 36 -5 2 -37 1 -73 -3 -36 -4 -69 -3 -74 1 -18 16 -36 9 -46 -15z" transform="translate(0,108) scale(0.1,-0.1)" stroke="none" fill="#082223"/>

<path d="M344 511 c-2 -3 -20 -4 -40 -3 -41 3 -59 -24 -28 -41 10 -6 37 -29 59 -52 22 -23 52 -49 67 -58 38 -24 61 -72 55 -114 -10 -58 20 -110 66 -119 13 -2 59 -15 102 -29 96 -30 175 -42 175 -27 0 6 -13 25 -30 42 -23 24 -30 40 -30 71 0 51 -11 71 -71 136 -35 37 -49 60 -49 80 0 21 -13 42 -49 77 l-48 47 -87 -2 c-48 -2 -89 -5 -92 -8z m246 -281 c0 -5 -5 -10 -11 -10 -5 0 -7 5 -4 10 3 6 8 10 11 10 2 0 4 -4 4 -10z" transform="translate(0,108) scale(0.1,-0.1)" stroke="none" fill="#7195A6"/>

</g>

<g id="4" transform="translate(352.0,0)scale(1,1)">

<path d="M707 280 c24 -26 35 -50 42 -90 5 -30 9 -45 10 -32 0 12 6 22 11 22 16 0 12 27 -5 34 -8 3 -15 11 -15 19 0 7 -17 29 -37 48 l-38 34 32 -35z" transform="translate(0,108) scale(0.1,-0.1)" stroke="none" fill="#082223"/>

<path d="M779 109 c12 -11 21 -29 21 -41 0 -18 -4 -20 -47 -15 -27 3 -40 3 -31 1 10 -3 15 -11 11 -20 -6 -16 22 -20 32 -4 3 6 15 10 26 10 33 0 19 81 -15 86 -16 2 -16 0 3 -17z" transform="translate(0,108) scale(0.1,-0.1)" stroke="none" fill="#082223"/>

<path d="M401 341 c30 -24 54 -85 41 -107 -12 -22 5 -78 32 -102 12 -11 37 -22 56 -26 25 -4 31 -3 20 4 -8 5 -24 10 -36 10 -39 0 -82 79 -62 114 16 29 -34 126 -65 126 -5 0 1 -8 14 -19z" transform="translate(0,108) scale(0.1,-0.1)" stroke="none" fill="#082223"/>

<path d="M50 776 c0 -27 21 -57 98 -138 40 -44 52 -63 47 -78 -9 -29 2 -57 26 -63 17 -5 19 -9 10 -26 -13 -23 0 -35 28 -26 13 4 32 -8 66 -42 l48 -48 -34 42 c-19 24 -46 49 -61 55 -16 7 -28 21 -28 30 0 10 -4 18 -9 18 -21 0 -41 32 -35 55 5 19 -4 34 -38 72 -96 105 -110 125 -105 149 2 13 0 24 -4 24 -5 0 -9 -11 -9 -24z" transform="translate(0,108) scale(0.1,-0.1)" stroke="none" fill="#082223"/>

<path d="M557 1014 c-3 -3 -3 -12 0 -20 3 -8 0 -14 -6 -14 -40 0 -281 -128 -281 -150 0 -5 11 -21 25 -36 28 -30 33 -76 13 -119 -8 -18 -18 -25 -30 -22 -10 3 -16 1 -13 -3 3 -5 0 -12 -7 -17 -7 -4 -18 -17 -25 -28 -6 -11 -15 -19 -20 -18 -7 1 -9 -31 -4 -66 0 -5 10 -13 21 -16 11 -3 20 -15 20 -26 0 -10 7 -19 15 -19 8 0 36 -22 62 -50 26 -27 50 -50 54 -50 10 0 -84 95 -106 107 -29 16 -11 44 27 43 18 0 75 3 127 6 l93 6 52 -48 51 -49 -45 47 c-26 29 -40 51 -35 56 6 5 30 14 54 21 54 16 151 61 151 71 0 7 20 33 65 83 14 15 25 36 25 46 0 24 -26 51 -48 51 -30 0 -82 38 -76 55 4 8 12 15 19 15 21 0 26 30 11 58 -8 15 -17 39 -20 54 -6 26 -7 26 -76 22 -46 -4 -70 -1 -70 5 0 12 -13 15 -23 5z" transform="translate(0,108) scale(0.1,-0.1)" stroke="none" fill="#295565"/>

<path d="M70 768 c0 -14 22 -46 56 -83 30 -33 62 -70 71 -83 12 -17 19 -20 29 -11 8 6 14 16 14 22 0 5 7 15 16 22 14 10 10 16 -32 46 -27 20 -73 52 -101 73 -51 37 -53 37 -53 14z" transform="translate(0,108) scale(0.1,-0.1)" stroke="none" fill="#7195A6"/>

<path d="M540 1006 c-5 -13 -19 -27 -32 -31 -13 -4 -47 -18 -76 -31 -29 -13 -57 -24 -62 -24 -5 0 -15 -6 -22 -12 -7 -7 -30 -26 -50 -41 -45 -33 -47 -53 -12 -87 22 -20 25 -30 21 -63 -6 -47 -22 -66 -39 -49 -7 7 -17 12 -23 12 -14 -1 26 -30 40 -30 16 0 35 45 35 84 0 21 -9 43 -25 60 -14 15 -25 31 -25 36 0 22 241 150 281 150 6 0 9 7 6 15 -7 18 13 32 23 16 4 -8 28 -10 73 -7 66 4 67 4 73 -22 3 -15 12 -39 20 -54 15 -28 10 -58 -11 -58 -7 0 -15 -7 -19 -15 -6 -17 46 -55 76 -55 22 0 48 -27 48 -51 0 -10 -11 -31 -25 -46 -45 -50 -65 -76 -65 -83 0 -10 -97 -55 -151 -71 -66 -19 -68 -24 -20 -73 24 -24 47 -59 51 -77 8 -32 8 -33 9 -6 1 20 -12 41 -45 77 -32 34 -42 51 -33 55 8 2 37 12 64 21 66 22 135 54 135 64 0 4 10 19 23 33 50 60 67 86 67 110 0 25 -27 57 -49 57 -19 0 -71 29 -71 40 0 6 7 10 15 10 22 0 29 45 11 72 -9 12 -16 37 -16 55 0 17 -3 34 -7 36 -5 2 -37 1 -73 -3 -36 -4 -69 -3 -74 1 -18 16 -36 9 -46 -15z" transform="translate(0,108) scale(0.1,-0.1)" stroke="none" fill="#082223"/>

<path d="M344 511 c-2 -3 -20 -4 -40 -3 -41 3 -59 -24 -28 -41 10 -6 37 -29 59 -52 22 -23 52 -49 67 -58 38 -24 61 -72 55 -114 -10 -58 20 -110 66 -119 13 -2 59 -15 102 -29 96 -30 175 -42 175 -27 0 6 -13 25 -30 42 -23 24 -30 40 -30 71 0 51 -11 71 -71 136 -35 37 -49 60 -49 80 0 21 -13 42 -49 77 l-48 47 -87 -2 c-48 -2 -89 -5 -92 -8z m246 -281 c0 -5 -5 -10 -11 -10 -5 0 -7 5 -4 10 3 6 8 10 11 10 2 0 4 -4 4 -10z" transform="translate(0,108) scale(0.1,-0.1)" stroke="none" fill="#7195A6"/>

</g>

</g>
<g id="row1" transform="translate(-33,108.0)">
<g id="0" transform="translate(0.0,0)scale(1,1)">

<path d="M707 280 c24 -26 35 -50 42 -90 5 -30 9 -45 10 -32 0 12 6 22 11 22 16 0 12 27 -5 34 -8 3 -15 11 -15 19 0 7 -17 29 -37 48 l-38 34 32 -35z" transform="translate(0,108) scale(0.1,-0.1)" stroke="none" fill="#082223"/>

<path d="M779 109 c12 -11 21 -29 21 -41 0 -18 -4 -20 -47 -15 -27 3 -40 3 -31 1 10 -3 15 -11 11 -20 -6 -16 22 -20 32 -4 3 6 15 10 26 10 33 0 19 81 -15 86 -16 2 -16 0 3 -17z" transform="translate(0,108) scale(0.1,-0.1)" stroke="none" fill="#082223"/>

<path d="M401 341 c30 -24 54 -85 41 -107 -12 -22 5 -78 32 -102 12 -11 37 -22 56 -26 25 -4 31 -3 20 4 -8 5 -24 10 -36 10 -39 0 -82 79 -62 114 16 29 -34 126 -65 126 -5 0 1 -8 14 -19z" transform="translate(0,108) scale(0.1,-0.1)" stroke="none" fill="#082223"/>

<path d="M50 776 c0 -27 21 -57 98 -138 40 -44 52 -63 47 -78 -9 -29 2 -57 26 -63 17 -5 19 -9 10 -26 -13 -23 0 -35 28 -26 13 4 32 -8 66 -42 l48 -48 -34 42 c-19 24 -46 49 -61 55 -16 7 -28 21 -28 30 0 10 -4 18 -9 18 -21 0 -41 32 -35 55 5 19 -4 34 -38 72 -96 105 -110 125 -105 149 2 13 0 24 -4 24 -5 0 -9 -11 -9 -24z" transform="translate(0,108) scale(0.1,-0.1)" stroke="none" fill="#082223"/>

<path d="M557 1014 c-3 -3 -3 -12 0 -20 3 -8 0 -14 -6 -14 -40 0 -281 -128 -281 -150 0 -5 11 -21 25 -36 28 -30 33 -76 13 -119 -8 -18 -18 -25 -30 -22 -10 3 -16 1 -13 -3 3 -5 0 -12 -7 -17 -7 -4 -18 -17 -25 -28 -6 -11 -15 -19 -20 -18 -7 1 -9 -31 -4 -66 0 -5 10 -13 21 -16 11 -3 20 -15 20 -26 0 -10 7 -19 15 -19 8 0 36 -22 62 -50 26 -27 50 -50 54 -50 10 0 -84 95 -106 107 -29 16 -11 44 27 43 18 0 75 3 127 6 l93 6 52 -48 51 -49 -45 47 c-26 29 -40 51 -35 56 6 5 30 14 54 21 54 16 151 61 151 71 0 7 20 33 65 83 14 15 25 36 25 46 0 24 -26 51 -48 51 -30 0 -82 38 -76 55 4 8 12 15 19 15 21 0 26 30 11 58 -8 15 -17 39 -20 54 -6 26 -7 26 -76 22 -46 -4 -70 -1 -70 5 0 12 -13 15 -23 5z" transform="translate(0,108) scale(0.1,-0.1)" stroke="none" fill="#295565"/>

<path d="M70 768 c0 -14 22 -46 56 -83 30 -33 62 -70 71 -83 12 -17 19 -20 29 -11 8 6 14 16 14 22 0 5 7 15 16 22 14 10 10 16 -32 46 -27 20 -73 52 -101 73 -51 37 -53 37 -53 14z" transform="translate(0,108) scale(0.1,-0.1)" stroke="none" fill="#7195A6"/>

<path d="M540 1006 c-5 -13 -19 -27 -32 -31 -13 -4 -47 -18 -76 -31 -29 -13 -57 -24 -62 -24 -5 0 -15 -6 -22 -12 -7 -7 -30 -26 -50 -41 -45 -33 -47 -53 -12 -87 22 -20 25 -30 21 -63 -6 -47 -22 -66 -39 -49 -7 7 -17 12 -23 12 -14 -1 26 -30 40 -30 16 0 35 45 35 84 0 21 -9 43 -25 60 -14 15 -25 31 -25 36 0 22 241 150 281 150 6 0 9 7 6 15 -7 18 13 32 23 16 4 -8 28 -10 73 -7 66 4 67 4 73 -22 3 -15 12 -39 20 -54 15 -28 10 -58 -11 -58 -7 0 -15 -7 -19 -15 -6 -17 46 -55 76 -55 22 0 48 -27 48 -51 0 -10 -11 -31 -25 -46 -45 -50 -65 -76 -65 -83 0 -10 -97 -55 -151 -71 -66 -19 -68 -24 -20 -73 24 -24 47 -59 51 -77 8 -32 8 -33 9 -6 1 20 -12 41 -45 77 -32 34 -42 51 -33 55 8 2 37 12 64 21 66 22 135 54 135 64 0 4 10 19 23 33 50 60 67 86 67 110 0 25 -27 57 -49 57 -19 0 -71 29 -71 40 0 6 7 10 15 10 22 0 29 45 11 72 -9 12 -16 37 -16 55 0 17 -3 34 -7 36 -5 2 -37 1 -73 -3 -36 -4 -69 -3 -74 1 -18 16 -36 9 -46 -15z" transform="translate(0,108) scale(0.1,-0.1)" stroke="none" fill="#082223"/>

<path d="M344 511 c-2 -3 -20 -4 -40 -3 -41 3 -59 -24 -28 -41 10 -6 37 -29 59 -52 22 -23 52 -49 67 -58 38 -24 61 -72 55 -114 -10 -58 20 -110 66 -119 13 -2 59 -15 102 -29 96 -30 175 -42 175 -27 0 6 -13 25 -30 42 -23 24 -30 40 -30 71 0 51 -11 71 -71 136 -35 37 -49 60 -49 80 0 21 -13 42 -49 77 l-48 47 -87 -2 c-48 -2 -89 -5 -92 -8z m246 -281 c0 -5 -5 -10 -11 -10 -5 0 -7 5 -4 10 3 6 8 10 11 10 2 0 4 -4 4 -10z" transform="translate(0,108) scale(0.1,-0.1)" stroke="none" fill="#7195A6"/>

</g>

<g id="1" transform="translate(88.0,0)scale(1,1)">

<path d="M707 280 c24 -26 35 -50 42 -90 5 -30 9 -45 10 -32 0 12 6 22 11 22 16 0 12 27 -5 34 -8 3 -15 11 -15 19 0 7 -17 29 -37 48 l-38 34 32 -35z" transform="translate(0,108) scale(0.1,-0.1)" stroke="none" fill="#082223"/>

<path d="M779 109 c12 -11 21 -29 21 -41 0 -18 -4 -20 -47 -15 -27 3 -40 3 -31 1 10 -3 15 -11 11 -20 -6 -16 22 -20 32 -4 3 6 15 10 26 10 33 0 19 81 -15 86 -16 2 -16 0 3 -17z" transform="translate(0,108) scale(0.1,-0.1)" stroke="none" fill="#082223"/>

<path d="M401 341 c30 -24 54 -85 41 -107 -12 -22 5 -78 32 -102 12 -11 37 -22 56 -26 25 -4 31 -3 20 4 -8 5 -24 10 -36 10 -39 0 -82 79 -62 114 16 29 -34 126 -65 126 -5 0 1 -8 14 -19z" transform="translate(0,108) scale(0.1,-0.1)" stroke="none" fill="#082223"/>

<path d="M50 776 c0 -27 21 -57 98 -138 40 -44 52 -63 47 -78 -9 -29 2 -57 26 -63 17 -5 19 -9 10 -26 -13 -23 0 -35 28 -26 13 4 32 -8 66 -42 l48 -48 -34 42 c-19 24 -46 49 -61 55 -16 7 -28 21 -28 30 0 10 -4 18 -9 18 -21 0 -41 32 -35 55 5 19 -4 34 -38 72 -96 105 -110 125 -105 149 2 13 0 24 -4 24 -5 0 -9 -11 -9 -24z" transform="translate(0,108) scale(0.1,-0.1)" stroke="none" fill="#082223"/>

<path d="M557 1014 c-3 -3 -3 -12 0 -20 3 -8 0 -14 -6 -14 -40 0 -281 -128 -281 -150 0 -5 11 -21 25 -36 28 -30 33 -76 13 -119 -8 -18 -18 -25 -30 -22 -10 3 -16 1 -13 -3 3 -5 0 -12 -7 -17 -7 -4 -18 -17 -25 -28 -6 -11 -15 -19 -20 -18 -7 1 -9 -31 -4 -66 0 -5 10 -13 21 -16 11 -3 20 -15 20 -26 0 -10 7 -19 15 -19 8 0 36 -22 62 -50 26 -27 50 -50 54 -50 10 0 -84 95 -106 107 -29 16 -11 44 27 43 18 0 75 3 127 6 l93 6 52 -48 51 -49 -45 47 c-26 29 -40 51 -35 56 6 5 30 14 54 21 54 16 151 61 151 71 0 7 20 33 65 83 14 15 25 36 25 46 0 24 -26 51 -48 51 -30 0 -82 38 -76 55 4 8 12 15 19 15 21 0 26 30 11 58 -8 15 -17 39 -20 54 -6 26 -7 26 -76 22 -46 -4 -70 -1 -70 5 0 12 -13 15 -23 5z" transform="translate(0,108) scale(0.1,-0.1)" stroke="none" fill="#295565"/>

<path d="M70 768 c0 -14 22 -46 56 -83 30 -33 62 -70 71 -83 12 -17 19 -20 29 -11 8 6 14 16 14 22 0 5 7 15 16 22 14 10 10 16 -32 46 -27 20 -73 52 -101 73 -51 37 -53 37 -53 14z" transform="translate(0,108) scale(0.1,-0.1)" stroke="none" fill="#7195A6"/>

<path d="M540 1006 c-5 -13 -19 -27 -32 -31 -13 -4 -47 -18 -76 -31 -29 -13 -57 -24 -62 -24 -5 0 -15 -6 -22 -12 -7 -7 -30 -26 -50 -41 -45 -33 -47 -53 -12 -87 22 -20 25 -30 21 -63 -6 -47 -22 -66 -39 -49 -7 7 -17 12 -23 12 -14 -1 26 -30 40 -30 16 0 35 45 35 84 0 21 -9 43 -25 60 -14 15 -25 31 -25 36 0 22 241 150 281 150 6 0 9 7 6 15 -7 18 13 32 23 16 4 -8 28 -10 73 -7 66 4 67 4 73 -22 3 -15 12 -39 20 -54 15 -28 10 -58 -11 -58 -7 0 -15 -7 -19 -15 -6 -17 46 -55 76 -55 22 0 48 -27 48 -51 0 -10 -11 -31 -25 -46 -45 -50 -65 -76 -65 -83 0 -10 -97 -55 -151 -71 -66 -19 -68 -24 -20 -73 24 -24 47 -59 51 -77 8 -32 8 -33 9 -6 1 20 -12 41 -45 77 -32 34 -42 51 -33 55 8 2 37 12 64 21 66 22 135 54 135 64 0 4 10 19 23 33 50 60 67 86 67 110 0 25 -27 57 -49 57 -19 0 -71 29 -71 40 0 6 7 10 15 10 22 0 29 45 11 72 -9 12 -16 37 -16 55 0 17 -3 34 -7 36 -5 2 -37 1 -73 -3 -36 -4 -69 -3 -74 1 -18 16 -36 9 -46 -15z" transform="translate(0,108) scale(0.1,-0.1)" stroke="none" fill="#082223"/>

<path d="M344 511 c-2 -3 -20 -4 -40 -3 -41 3 -59 -24 -28 -41 10 -6 37 -29 59 -52 22 -23 52 -49 67 -58 38 -24 61 -72 55 -114 -10 -58 20 -110 66 -119 13 -2 59 -15 102 -29 96 -30 175 -42 175 -27 0 6 -13 25 -30 42 -23 24 -30 40 -30 71 0 51 -11 71 -71 136 -35 37 -49 60 -49 80 0 21 -13 42 -49 77 l-48 47 -87 -2 c-48 -2 -89 -5 -92 -8z m246 -281 c0 -5 -5 -10 -11 -10 -5 0 -7 5 -4 10 3 6 8 10 11 10 2 0 4 -4 4 -10z" transform="translate(0,108) scale(0.1,-0.1)" stroke="none" fill="#7195A6"/>

</g>

<g id="2" transform="translate(176.0,0)scale(1,1)">

<path d="M707 280 c24 -26 35 -50 42 -90 5 -30 9 -45 10 -32 0 12 6 22 11 22 16 0 12 27 -5 34 -8 3 -15 11 -15 19 0 7 -17 29 -37 48 l-38 34 32 -35z" transform="translate(0,108) scale(0.1,-0.1)" stroke="none" fill="#082223"/>

<path d="M779 109 c12 -11 21 -29 21 -41 0 -18 -4 -20 -47 -15 -27 3 -40 3 -31 1 10 -3 15 -11 11 -20 -6 -16 22 -20 32 -4 3 6 15 10 26 10 33 0 19 81 -15 86 -16 2 -16 0 3 -17z" transform="translate(0,108) scale(0.1,-0.1)" stroke="none" fill="#082223"/>

<path d="M401 341 c30 -24 54 -85 41 -107 -12 -22 5 -78 32 -102 12 -11 37 -22 56 -26 25 -4 31 -3 20 4 -8 5 -24 10 -36 10 -39 0 -82 79 -62 114 16 29 -34 126 -65 126 -5 0 1 -8 14 -19z" transform="translate(0,108) scale(0.1,-0.1)" stroke="none" fill="#082223"/>

<path d="M50 776 c0 -27 21 -57 98 -138 40 -44 52 -63 47 -78 -9 -29 2 -57 26 -63 17 -5 19 -9 10 -26 -13 -23 0 -35 28 -26 13 4 32 -8 66 -42 l48 -48 -34 42 c-19 24 -46 49 -61 55 -16 7 -28 21 -28 30 0 10 -4 18 -9 18 -21 0 -41 32 -35 55 5 19 -4 34 -38 72 -96 105 -110 125 -105 149 2 13 0 24 -4 24 -5 0 -9 -11 -9 -24z" transform="translate(0,108) scale(0.1,-0.1)" stroke="none" fill="#082223"/>

<path d="M557 1014 c-3 -3 -3 -12 0 -20 3 -8 0 -14 -6 -14 -40 0 -281 -128 -281 -150 0 -5 11 -21 25 -36 28 -30 33 -76 13 -119 -8 -18 -18 -25 -30 -22 -10 3 -16 1 -13 -3 3 -5 0 -12 -7 -17 -7 -4 -18 -17 -25 -28 -6 -11 -15 -19 -20 -18 -7 1 -9 -31 -4 -66 0 -5 10 -13 21 -16 11 -3 20 -15 20 -26 0 -10 7 -19 15 -19 8 0 36 -22 62 -50 26 -27 50 -50 54 -50 10 0 -84 95 -106 107 -29 16 -11 44 27 43 18 0 75 3 127 6 l93 6 52 -48 51 -49 -45 47 c-26 29 -40 51 -35 56 6 5 30 14 54 21 54 16 151 61 151 71 0 7 20 33 65 83 14 15 25 36 25 46 0 24 -26 51 -48 51 -30 0 -82 38 -76 55 4 8 12 15 19 15 21 0 26 30 11 58 -8 15 -17 39 -20 54 -6 26 -7 26 -76 22 -46 -4 -70 -1 -70 5 0 12 -13 15 -23 5z" transform="translate(0,108) scale(0.1,-0.1)" stroke="none" fill="#295565"/>

<path d="M70 768 c0 -14 22 -46 56 -83 30 -33 62 -70 71 -83 12 -17 19 -20 29 -11 8 6 14 16 14 22 0 5 7 15 16 22 14 10 10 16 -32 46 -27 20 -73 52 -101 73 -51 37 -53 37 -53 14z" transform="translate(0,108) scale(0.1,-0.1)" stroke="none" fill="#7195A6"/>

<path d="M540 1006 c-5 -13 -19 -27 -32 -31 -13 -4 -47 -18 -76 -31 -29 -13 -57 -24 -62 -24 -5 0 -15 -6 -22 -12 -7 -7 -30 -26 -50 -41 -45 -33 -47 -53 -12 -87 22 -20 25 -30 21 -63 -6 -47 -22 -66 -39 -49 -7 7 -17 12 -23 12 -14 -1 26 -30 40 -30 16 0 35 45 35 84 0 21 -9 43 -25 60 -14 15 -25 31 -25 36 0 22 241 150 281 150 6 0 9 7 6 15 -7 18 13 32 23 16 4 -8 28 -10 73 -7 66 4 67 4 73 -22 3 -15 12 -39 20 -54 15 -28 10 -58 -11 -58 -7 0 -15 -7 -19 -15 -6 -17 46 -55 76 -55 22 0 48 -27 48 -51 0 -10 -11 -31 -25 -46 -45 -50 -65 -76 -65 -83 0 -10 -97 -55 -151 -71 -66 -19 -68 -24 -20 -73 24 -24 47 -59 51 -77 8 -32 8 -33 9 -6 1 20 -12 41 -45 77 -32 34 -42 51 -33 55 8 2 37 12 64 21 66 22 135 54 135 64 0 4 10 19 23 33 50 60 67 86 67 110 0 25 -27 57 -49 57 -19 0 -71 29 -71 40 0 6 7 10 15 10 22 0 29 45 11 72 -9 12 -16 37 -16 55 0 17 -3 34 -7 36 -5 2 -37 1 -73 -3 -36 -4 -69 -3 -74 1 -18 16 -36 9 -46 -15z" transform="translate(0,108) scale(0.1,-0.1)" stroke="none" fill="#082223"/>

<path d="M344 511 c-2 -3 -20 -4 -40 -3 -41 3 -59 -24 -28 -41 10 -6 37 -29 59 -52 22 -23 52 -49 67 -58 38 -24 61 -72 55 -114 -10 -58 20 -110 66 -119 13 -2 59 -15 102 -29 96 -30 175 -42 175 -27 0 6 -13 25 -30 42 -23 24 -30 40 -30 71 0 51 -11 71 -71 136 -35 37 -49 60 -49 80 0 21 -13 42 -49 77 l-48 47 -87 -2 c-48 -2 -89 -5 -92 -8z m246 -281 c0 -5 -5 -10 -11 -10 -5 0 -7 5 -4 10 3 6 8 10 11 10 2 0 4 -4 4 -10z" transform="translate(0,108) scale(0.1,-0.1)" stroke="none" fill="#7195A6"/>

</g>

<g id="3" transform="translate(264.0,0)scale(1,1)">

<path d="M707 280 c24 -26 35 -50 42 -90 5 -30 9 -45 10 -32 0 12 6 22 11 22 16 0 12 27 -5 34 -8 3 -15 11 -15 19 0 7 -17 29 -37 48 l-38 34 32 -35z" transform="translate(0,108) scale(0.1,-0.1)" stroke="none" fill="#082223"/>

<path d="M779 109 c12 -11 21 -29 21 -41 0 -18 -4 -20 -47 -15 -27 3 -40 3 -31 1 10 -3 15 -11 11 -20 -6 -16 22 -20 32 -4 3 6 15 10 26 10 33 0 19 81 -15 86 -16 2 -16 0 3 -17z" transform="translate(0,108) scale(0.1,-0.1)" stroke="none" fill="#082223"/>

<path d="M401 341 c30 -24 54 -85 41 -107 -12 -22 5 -78 32 -102 12 -11 37 -22 56 -26 25 -4 31 -3 20 4 -8 5 -24 10 -36 10 -39 0 -82 79 -62 114 16 29 -34 126 -65 126 -5 0 1 -8 14 -19z" transform="translate(0,108) scale(0.1,-0.1)" stroke="none" fill="#082223"/>

<path d="M50 776 c0 -27 21 -57 98 -138 40 -44 52 -63 47 -78 -9 -29 2 -57 26 -63 17 -5 19 -9 10 -26 -13 -23 0 -35 28 -26 13 4 32 -8 66 -42 l48 -48 -34 42 c-19 24 -46 49 -61 55 -16 7 -28 21 -28 30 0 10 -4 18 -9 18 -21 0 -41 32 -35 55 5 19 -4 34 -38 72 -96 105 -110 125 -105 149 2 13 0 24 -4 24 -5 0 -9 -11 -9 -24z" transform="translate(0,108) scale(0.1,-0.1)" stroke="none" fill="#082223"/>

<path d="M557 1014 c-3 -3 -3 -12 0 -20 3 -8 0 -14 -6 -14 -40 0 -281 -128 -281 -150 0 -5 11 -21 25 -36 28 -30 33 -76 13 -119 -8 -18 -18 -25 -30 -22 -10 3 -16 1 -13 -3 3 -5 0 -12 -7 -17 -7 -4 -18 -17 -25 -28 -6 -11 -15 -19 -20 -18 -7 1 -9 -31 -4 -66 0 -5 10 -13 21 -16 11 -3 20 -15 20 -26 0 -10 7 -19 15 -19 8 0 36 -22 62 -50 26 -27 50 -50 54 -50 10 0 -84 95 -106 107 -29 16 -11 44 27 43 18 0 75 3 127 6 l93 6 52 -48 51 -49 -45 47 c-26 29 -40 51 -35 56 6 5 30 14 54 21 54 16 151 61 151 71 0 7 20 33 65 83 14 15 25 36 25 46 0 24 -26 51 -48 51 -30 0 -82 38 -76 55 4 8 12 15 19 15 21 0 26 30 11 58 -8 15 -17 39 -20 54 -6 26 -7 26 -76 22 -46 -4 -70 -1 -70 5 0 12 -13 15 -23 5z" transform="translate(0,108) scale(0.1,-0.1)" stroke="none" fill="#295565"/>

<path d="M70 768 c0 -14 22 -46 56 -83 30 -33 62 -70 71 -83 12 -17 19 -20 29 -11 8 6 14 16 14 22 0 5 7 15 16 22 14 10 10 16 -32 46 -27 20 -73 52 -101 73 -51 37 -53 37 -53 14z" transform="translate(0,108) scale(0.1,-0.1)" stroke="none" fill="#7195A6"/>

<path d="M540 1006 c-5 -13 -19 -27 -32 -31 -13 -4 -47 -18 -76 -31 -29 -13 -57 -24 -62 -24 -5 0 -15 -6 -22 -12 -7 -7 -30 -26 -50 -41 -45 -33 -47 -53 -12 -87 22 -20 25 -30 21 -63 -6 -47 -22 -66 -39 -49 -7 7 -17 12 -23 12 -14 -1 26 -30 40 -30 16 0 35 45 35 84 0 21 -9 43 -25 60 -14 15 -25 31 -25 36 0 22 241 150 281 150 6 0 9 7 6 15 -7 18 13 32 23 16 4 -8 28 -10 73 -7 66 4 67 4 73 -22 3 -15 12 -39 20 -54 15 -28 10 -58 -11 -58 -7 0 -15 -7 -19 -15 -6 -17 46 -55 76 -55 22 0 48 -27 48 -51 0 -10 -11 -31 -25 -46 -45 -50 -65 -76 -65 -83 0 -10 -97 -55 -151 -71 -66 -19 -68 -24 -20 -73 24 -24 47 -59 51 -77 8 -32 8 -33 9 -6 1 20 -12 41 -45 77 -32 34 -42 51 -33 55 8 2 37 12 64 21 66 22 135 54 135 64 0 4 10 19 23 33 50 60 67 86 67 110 0 25 -27 57 -49 57 -19 0 -71 29 -71 40 0 6 7 10 15 10 22 0 29 45 11 72 -9 12 -16 37 -16 55 0 17 -3 34 -7 36 -5 2 -37 1 -73 -3 -36 -4 -69 -3 -74 1 -18 16 -36 9 -46 -15z" transform="translate(0,108) scale(0.1,-0.1)" stroke="none" fill="#082223"/>

<path d="M344 511 c-2 -3 -20 -4 -40 -3 -41 3 -59 -24 -28 -41 10 -6 37 -29 59 -52 22 -23 52 -49 67 -58 38 -24 61 -72 55 -114 -10 -58 20 -110 66 -119 13 -2 59 -15 102 -29 96 -30 175 -42 175 -27 0 6 -13 25 -30 42 -23 24 -30 40 -30 71 0 51 -11 71 -71 136 -35 37 -49 60 -49 80 0 21 -13 42 -49 77 l-48 47 -87 -2 c-48 -2 -89 -5 -92 -8z m246 -281 c0 -5 -5 -10 -11 -10 -5 0 -7 5 -4 10 3 6 8 10 11 10 2 0 4 -4 4 -10z" transform="translate(0,108) scale(0.1,-0.1)" stroke="none" fill="#7195A6"/>

</g>

<g id="4" transform="translate(352.0,0)scale(1,1)">

<path d="M707 280 c24 -26 35 -50 42 -90 5 -30 9 -45 10 -32 0 12 6 22 11 22 16 0 12 27 -5 34 -8 3 -15 11 -15 19 0 7 -17 29 -37 48 l-38 34 32 -35z" transform="translate(0,108) scale(0.1,-0.1)" stroke="none" fill="#082223"/>

<path d="M779 109 c12 -11 21 -29 21 -41 0 -18 -4 -20 -47 -15 -27 3 -40 3 -31 1 10 -3 15 -11 11 -20 -6 -16 22 -20 32 -4 3 6 15 10 26 10 33 0 19 81 -15 86 -16 2 -16 0 3 -17z" transform="translate(0,108) scale(0.1,-0.1)" stroke="none" fill="#082223"/>

<path d="M401 341 c30 -24 54 -85 41 -107 -12 -22 5 -78 32 -102 12 -11 37 -22 56 -26 25 -4 31 -3 20 4 -8 5 -24 10 -36 10 -39 0 -82 79 -62 114 16 29 -34 126 -65 126 -5 0 1 -8 14 -19z" transform="translate(0,108) scale(0.1,-0.1)" stroke="none" fill="#082223"/>

<path d="M50 776 c0 -27 21 -57 98 -138 40 -44 52 -63 47 -78 -9 -29 2 -57 26 -63 17 -5 19 -9 10 -26 -13 -23 0 -35 28 -26 13 4 32 -8 66 -42 l48 -48 -34 42 c-19 24 -46 49 -61 55 -16 7 -28 21 -28 30 0 10 -4 18 -9 18 -21 0 -41 32 -35 55 5 19 -4 34 -38 72 -96 105 -110 125 -105 149 2 13 0 24 -4 24 -5 0 -9 -11 -9 -24z" transform="translate(0,108) scale(0.1,-0.1)" stroke="none" fill="#082223"/>

<path d="M557 1014 c-3 -3 -3 -12 0 -20 3 -8 0 -14 -6 -14 -40 0 -281 -128 -281 -150 0 -5 11 -21 25 -36 28 -30 33 -76 13 -119 -8 -18 -18 -25 -30 -22 -10 3 -16 1 -13 -3 3 -5 0 -12 -7 -17 -7 -4 -18 -17 -25 -28 -6 -11 -15 -19 -20 -18 -7 1 -9 -31 -4 -66 0 -5 10 -13 21 -16 11 -3 20 -15 20 -26 0 -10 7 -19 15 -19 8 0 36 -22 62 -50 26 -27 50 -50 54 -50 10 0 -84 95 -106 107 -29 16 -11 44 27 43 18 0 75 3 127 6 l93 6 52 -48 51 -49 -45 47 c-26 29 -40 51 -35 56 6 5 30 14 54 21 54 16 151 61 151 71 0 7 20 33 65 83 14 15 25 36 25 46 0 24 -26 51 -48 51 -30 0 -82 38 -76 55 4 8 12 15 19 15 21 0 26 30 11 58 -8 15 -17 39 -20 54 -6 26 -7 26 -76 22 -46 -4 -70 -1 -70 5 0 12 -13 15 -23 5z" transform="translate(0,108) scale(0.1,-0.1)" stroke="none" fill="#295565"/>

<path d="M70 768 c0 -14 22 -46 56 -83 30 -33 62 -70 71 -83 12 -17 19 -20 29 -11 8 6 14 16 14 22 0 5 7 15 16 22 14 10 10 16 -32 46 -27 20 -73 52 -101 73 -51 37 -53 37 -53 14z" transform="translate(0,108) scale(0.1,-0.1)" stroke="none" fill="#7195A6"/>

<path d="M540 1006 c-5 -13 -19 -27 -32 -31 -13 -4 -47 -18 -76 -31 -29 -13 -57 -24 -62 -24 -5 0 -15 -6 -22 -12 -7 -7 -30 -26 -50 -41 -45 -33 -47 -53 -12 -87 22 -20 25 -30 21 -63 -6 -47 -22 -66 -39 -49 -7 7 -17 12 -23 12 -14 -1 26 -30 40 -30 16 0 35 45 35 84 0 21 -9 43 -25 60 -14 15 -25 31 -25 36 0 22 241 150 281 150 6 0 9 7 6 15 -7 18 13 32 23 16 4 -8 28 -10 73 -7 66 4 67 4 73 -22 3 -15 12 -39 20 -54 15 -28 10 -58 -11 -58 -7 0 -15 -7 -19 -15 -6 -17 46 -55 76 -55 22 0 48 -27 48 -51 0 -10 -11 -31 -25 -46 -45 -50 -65 -76 -65 -83 0 -10 -97 -55 -151 -71 -66 -19 -68 -24 -20 -73 24 -24 47 -59 51 -77 8 -32 8 -33 9 -6 1 20 -12 41 -45 77 -32 34 -42 51 -33 55 8 2 37 12 64 21 66 22 135 54 135 64 0 4 10 19 23 33 50 60 67 86 67 110 0 25 -27 57 -49 57 -19 0 -71 29 -71 40 0 6 7 10 15 10 22 0 29 45 11 72 -9 12 -16 37 -16 55 0 17 -3 34 -7 36 -5 2 -37 1 -73 -3 -36 -4 -69 -3 -74 1 -18 16 -36 9 -46 -15z" transform="translate(0,108) scale(0.1,-0.1)" stroke="none" fill="#082223"/>

<path d="M344 511 c-2 -3 -20 -4 -40 -3 -41 3 -59 -24 -28 -41 10 -6 37 -29 59 -52 22 -23 52 -49 67 -58 38 -24 61 -72 55 -114 -10 -58 20 -110 66 -119 13 -2 59 -15 102 -29 96 -30 175 -42 175 -27 0 6 -13 25 -30 42 -23 24 -30 40 -30 71 0 51 -11 71 -71 136 -35 37 -49 60 -49 80 0 21 -13 42 -49 77 l-48 47 -87 -2 c-48 -2 -89 -5 -92 -8z m246 -281 c0 -5 -5 -10 -11 -10 -5 0 -7 5 -4 10 3 6 8 10 11 10 2 0 4 -4 4 -10z" transform="translate(0,108) scale(0.1,-0.1)" stroke="none" fill="#7195A6"/>

</g>

</g>
<g id="row2" transform="translate(11,216.0)">
<g id="0" transform="translate(0.0,0)scale(1,1)">

<path d="M707 280 c24 -26 35 -50 42 -90 5 -30 9 -45 10 -32 0 12 6 22 11 22 16 0 12 27 -5 34 -8 3 -15 11 -15 19 0 7 -17 29 -37 48 l-38 34 32 -35z" transform="translate(0,108) scale(0.1,-0.1)" stroke="none" fill="#082223"/>

<path d="M779 109 c12 -11 21 -29 21 -41 0 -18 -4 -20 -47 -15 -27 3 -40 3 -31 1 10 -3 15 -11 11 -20 -6 -16 22 -20 32 -4 3 6 15 10 26 10 33 0 19 81 -15 86 -16 2 -16 0 3 -17z" transform="translate(0,108) scale(0.1,-0.1)" stroke="none" fill="#082223"/>

<path d="M401 341 c30 -24 54 -85 41 -107 -12 -22 5 -78 32 -102 12 -11 37 -22 56 -26 25 -4 31 -3 20 4 -8 5 -24 10 -36 10 -39 0 -82 79 -62 114 16 29 -34 126 -65 126 -5 0 1 -8 14 -19z" transform="translate(0,108) scale(0.1,-0.1)" stroke="none" fill="#082223"/>

<path d="M50 776 c0 -27 21 -57 98 -138 40 -44 52 -63 47 -78 -9 -29 2 -57 26 -63 17 -5 19 -9 10 -26 -13 -23 0 -35 28 -26 13 4 32 -8 66 -42 l48 -48 -34 42 c-19 24 -46 49 -61 55 -16 7 -28 21 -28 30 0 10 -4 18 -9 18 -21 0 -41 32 -35 55 5 19 -4 34 -38 72 -96 105 -110 125 -105 149 2 13 0 24 -4 24 -5 0 -9 -11 -9 -24z" transform="translate(0,108) scale(0.1,-0.1)" stroke="none" fill="#082223"/>

<path d="M557 1014 c-3 -3 -3 -12 0 -20 3 -8 0 -14 -6 -14 -40 0 -281 -128 -281 -150 0 -5 11 -21 25 -36 28 -30 33 -76 13 -119 -8 -18 -18 -25 -30 -22 -10 3 -16 1 -13 -3 3 -5 0 -12 -7 -17 -7 -4 -18 -17 -25 -28 -6 -11 -15 -19 -20 -18 -7 1 -9 -31 -4 -66 0 -5 10 -13 21 -16 11 -3 20 -15 20 -26 0 -10 7 -19 15 -19 8 0 36 -22 62 -50 26 -27 50 -50 54 -50 10 0 -84 95 -106 107 -29 16 -11 44 27 43 18 0 75 3 127 6 l93 6 52 -48 51 -49 -45 47 c-26 29 -40 51 -35 56 6 5 30 14 54 21 54 16 151 61 151 71 0 7 20 33 65 83 14 15 25 36 25 46 0 24 -26 51 -48 51 -30 0 -82 38 -76 55 4 8 12 15 19 15 21 0 26 30 11 58 -8 15 -17 39 -20 54 -6 26 -7 26 -76 22 -46 -4 -70 -1 -70 5 0 12 -13 15 -23 5z" transform="translate(0,108) scale(0.1,-0.1)" stroke="none" fill="#295565"/>

<path d="M70 768 c0 -14 22 -46 56 -83 30 -33 62 -70 71 -83 12 -17 19 -20 29 -11 8 6 14 16 14 22 0 5 7 15 16 22 14 10 10 16 -32 46 -27 20 -73 52 -101 73 -51 37 -53 37 -53 14z" transform="translate(0,108) scale(0.1,-0.1)" stroke="none" fill="#7195A6"/>

<path d="M540 1006 c-5 -13 -19 -27 -32 -31 -13 -4 -47 -18 -76 -31 -29 -13 -57 -24 -62 -24 -5 0 -15 -6 -22 -12 -7 -7 -30 -26 -50 -41 -45 -33 -47 -53 -12 -87 22 -20 25 -30 21 -63 -6 -47 -22 -66 -39 -49 -7 7 -17 12 -23 12 -14 -1 26 -30 40 -30 16 0 35 45 35 84 0 21 -9 43 -25 60 -14 15 -25 31 -25 36 0 22 241 150 281 150 6 0 9 7 6 15 -7 18 13 32 23 16 4 -8 28 -10 73 -7 66 4 67 4 73 -22 3 -15 12 -39 20 -54 15 -28 10 -58 -11 -58 -7 0 -15 -7 -19 -15 -6 -17 46 -55 76 -55 22 0 48 -27 48 -51 0 -10 -11 -31 -25 -46 -45 -50 -65 -76 -65 -83 0 -10 -97 -55 -151 -71 -66 -19 -68 -24 -20 -73 24 -24 47 -59 51 -77 8 -32 8 -33 9 -6 1 20 -12 41 -45 77 -32 34 -42 51 -33 55 8 2 37 12 64 21 66 22 135 54 135 64 0 4 10 19 23 33 50 60 67 86 67 110 0 25 -27 57 -49 57 -19 0 -71 29 -71 40 0 6 7 10 15 10 22 0 29 45 11 72 -9 12 -16 37 -16 55 0 17 -3 34 -7 36 -5 2 -37 1 -73 -3 -36 -4 -69 -3 -74 1 -18 16 -36 9 -46 -15z" transform="translate(0,108) scale(0.1,-0.1)" stroke="none" fill="#082223"/>

<path d="M344 511 c-2 -3 -20 -4 -40 -3 -41 3 -59 -24 -28 -41 10 -6 37 -29 59 -52 22 -23 52 -49 67 -58 38 -24 61 -72 55 -114 -10 -58 20 -110 66 -119 13 -2 59 -15 102 -29 96 -30 175 -42 175 -27 0 6 -13 25 -30 42 -23 24 -30 40 -30 71 0 51 -11 71 -71 136 -35 37 -49 60 -49 80 0 21 -13 42 -49 77 l-48 47 -87 -2 c-48 -2 -89 -5 -92 -8z m246 -281 c0 -5 -5 -10 -11 -10 -5 0 -7 5 -4 10 3 6 8 10 11 10 2 0 4 -4 4 -10z" transform="translate(0,108) scale(0.1,-0.1)" stroke="none" fill="#7195A6"/>

</g>

<g id="1" transform="translate(88.0,0)scale(1,1)">

<path d="M707 280 c24 -26 35 -50 42 -90 5 -30 9 -45 10 -32 0 12 6 22 11 22 16 0 12 27 -5 34 -8 3 -15 11 -15 19 0 7 -17 29 -37 48 l-38 34 32 -35z" transform="translate(0,108) scale(0.1,-0.1)" stroke="none" fill="#082223"/>

<path d="M779 109 c12 -11 21 -29 21 -41 0 -18 -4 -20 -47 -15 -27 3 -40 3 -31 1 10 -3 15 -11 11 -20 -6 -16 22 -20 32 -4 3 6 15 10 26 10 33 0 19 81 -15 86 -16 2 -16 0 3 -17z" transform="translate(0,108) scale(0.1,-0.1)" stroke="none" fill="#082223"/>

<path d="M401 341 c30 -24 54 -85 41 -107 -12 -22 5 -78 32 -102 12 -11 37 -22 56 -26 25 -4 31 -3 20 4 -8 5 -24 10 -36 10 -39 0 -82 79 -62 114 16 29 -34 126 -65 126 -5 0 1 -8 14 -19z" transform="translate(0,108) scale(0.1,-0.1)" stroke="none" fill="#082223"/>

<path d="M50 776 c0 -27 21 -57 98 -138 40 -44 52 -63 47 -78 -9 -29 2 -57 26 -63 17 -5 19 -9 10 -26 -13 -23 0 -35 28 -26 13 4 32 -8 66 -42 l48 -48 -34 42 c-19 24 -46 49 -61 55 -16 7 -28 21 -28 30 0 10 -4 18 -9 18 -21 0 -41 32 -35 55 5 19 -4 34 -38 72 -96 105 -110 125 -105 149 2 13 0 24 -4 24 -5 0 -9 -11 -9 -24z" transform="translate(0,108) scale(0.1,-0.1)" stroke="none" fill="#082223"/>

<path d="M557 1014 c-3 -3 -3 -12 0 -20 3 -8 0 -14 -6 -14 -40 0 -281 -128 -281 -150 0 -5 11 -21 25 -36 28 -30 33 -76 13 -119 -8 -18 -18 -25 -30 -22 -10 3 -16 1 -13 -3 3 -5 0 -12 -7 -17 -7 -4 -18 -17 -25 -28 -6 -11 -15 -19 -20 -18 -7 1 -9 -31 -4 -66 0 -5 10 -13 21 -16 11 -3 20 -15 20 -26 0 -10 7 -19 15 -19 8 0 36 -22 62 -50 26 -27 50 -50 54 -50 10 0 -84 95 -106 107 -29 16 -11 44 27 43 18 0 75 3 127 6 l93 6 52 -48 51 -49 -45 47 c-26 29 -40 51 -35 56 6 5 30 14 54 21 54 16 151 61 151 71 0 7 20 33 65 83 14 15 25 36 25 46 0 24 -26 51 -48 51 -30 0 -82 38 -76 55 4 8 12 15 19 15 21 0 26 30 11 58 -8 15 -17 39 -20 54 -6 26 -7 26 -76 22 -46 -4 -70 -1 -70 5 0 12 -13 15 -23 5z" transform="translate(0,108) scale(0.1,-0.1)" stroke="none" fill="#295565"/>

<path d="M70 768 c0 -14 22 -46 56 -83 30 -33 62 -70 71 -83 12 -17 19 -20 29 -11 8 6 14 16 14 22 0 5 7 15 16 22 14 10 10 16 -32 46 -27 20 -73 52 -101 73 -51 37 -53 37 -53 14z" transform="translate(0,108) scale(0.1,-0.1)" stroke="none" fill="#7195A6"/>

<path d="M540 1006 c-5 -13 -19 -27 -32 -31 -13 -4 -47 -18 -76 -31 -29 -13 -57 -24 -62 -24 -5 0 -15 -6 -22 -12 -7 -7 -30 -26 -50 -41 -45 -33 -47 -53 -12 -87 22 -20 25 -30 21 -63 -6 -47 -22 -66 -39 -49 -7 7 -17 12 -23 12 -14 -1 26 -30 40 -30 16 0 35 45 35 84 0 21 -9 43 -25 60 -14 15 -25 31 -25 36 0 22 241 150 281 150 6 0 9 7 6 15 -7 18 13 32 23 16 4 -8 28 -10 73 -7 66 4 67 4 73 -22 3 -15 12 -39 20 -54 15 -28 10 -58 -11 -58 -7 0 -15 -7 -19 -15 -6 -17 46 -55 76 -55 22 0 48 -27 48 -51 0 -10 -11 -31 -25 -46 -45 -50 -65 -76 -65 -83 0 -10 -97 -55 -151 -71 -66 -19 -68 -24 -20 -73 24 -24 47 -59 51 -77 8 -32 8 -33 9 -6 1 20 -12 41 -45 77 -32 34 -42 51 -33 55 8 2 37 12 64 21 66 22 135 54 135 64 0 4 10 19 23 33 50 60 67 86 67 110 0 25 -27 57 -49 57 -19 0 -71 29 -71 40 0 6 7 10 15 10 22 0 29 45 11 72 -9 12 -16 37 -16 55 0 17 -3 34 -7 36 -5 2 -37 1 -73 -3 -36 -4 -69 -3 -74 1 -18 16 -36 9 -46 -15z" transform="translate(0,108) scale(0.1,-0.1)" stroke="none" fill="#082223"/>

<path d="M344 511 c-2 -3 -20 -4 -40 -3 -41 3 -59 -24 -28 -41 10 -6 37 -29 59 -52 22 -23 52 -49 67 -58 38 -24 61 -72 55 -114 -10 -58 20 -110 66 -119 13 -2 59 -15 102 -29 96 -30 175 -42 175 -27 0 6 -13 25 -30 42 -23 24 -30 40 -30 71 0 51 -11 71 -71 136 -35 37 -49 60 -49 80 0 21 -13 42 -49 77 l-48 47 -87 -2 c-48 -2 -89 -5 -92 -8z m246 -281 c0 -5 -5 -10 -11 -10 -5 0 -7 5 -4 10 3 6 8 10 11 10 2 0 4 -4 4 -10z" transform="translate(0,108) scale(0.1,-0.1)" stroke="none" fill="#7195A6"/>

</g>

<g id="2" transform="translate(176.0,0)scale(1,1)">

<path d="M707 280 c24 -26 35 -50 42 -90 5 -30 9 -45 10 -32 0 12 6 22 11 22 16 0 12 27 -5 34 -8 3 -15 11 -15 19 0 7 -17 29 -37 48 l-38 34 32 -35z" transform="translate(0,108) scale(0.1,-0.1)" stroke="none" fill="#082223"/>

<path d="M779 109 c12 -11 21 -29 21 -41 0 -18 -4 -20 -47 -15 -27 3 -40 3 -31 1 10 -3 15 -11 11 -20 -6 -16 22 -20 32 -4 3 6 15 10 26 10 33 0 19 81 -15 86 -16 2 -16 0 3 -17z" transform="translate(0,108) scale(0.1,-0.1)" stroke="none" fill="#082223"/>

<path d="M401 341 c30 -24 54 -85 41 -107 -12 -22 5 -78 32 -102 12 -11 37 -22 56 -26 25 -4 31 -3 20 4 -8 5 -24 10 -36 10 -39 0 -82 79 -62 114 16 29 -34 126 -65 126 -5 0 1 -8 14 -19z" transform="translate(0,108) scale(0.1,-0.1)" stroke="none" fill="#082223"/>

<path d="M50 776 c0 -27 21 -57 98 -138 40 -44 52 -63 47 -78 -9 -29 2 -57 26 -63 17 -5 19 -9 10 -26 -13 -23 0 -35 28 -26 13 4 32 -8 66 -42 l48 -48 -34 42 c-19 24 -46 49 -61 55 -16 7 -28 21 -28 30 0 10 -4 18 -9 18 -21 0 -41 32 -35 55 5 19 -4 34 -38 72 -96 105 -110 125 -105 149 2 13 0 24 -4 24 -5 0 -9 -11 -9 -24z" transform="translate(0,108) scale(0.1,-0.1)" stroke="none" fill="#082223"/>

<path d="M557 1014 c-3 -3 -3 -12 0 -20 3 -8 0 -14 -6 -14 -40 0 -281 -128 -281 -150 0 -5 11 -21 25 -36 28 -30 33 -76 13 -119 -8 -18 -18 -25 -30 -22 -10 3 -16 1 -13 -3 3 -5 0 -12 -7 -17 -7 -4 -18 -17 -25 -28 -6 -11 -15 -19 -20 -18 -7 1 -9 -31 -4 -66 0 -5 10 -13 21 -16 11 -3 20 -15 20 -26 0 -10 7 -19 15 -19 8 0 36 -22 62 -50 26 -27 50 -50 54 -50 10 0 -84 95 -106 107 -29 16 -11 44 27 43 18 0 75 3 127 6 l93 6 52 -48 51 -49 -45 47 c-26 29 -40 51 -35 56 6 5 30 14 54 21 54 16 151 61 151 71 0 7 20 33 65 83 14 15 25 36 25 46 0 24 -26 51 -48 51 -30 0 -82 38 -76 55 4 8 12 15 19 15 21 0 26 30 11 58 -8 15 -17 39 -20 54 -6 26 -7 26 -76 22 -46 -4 -70 -1 -70 5 0 12 -13 15 -23 5z" transform="translate(0,108) scale(0.1,-0.1)" stroke="none" fill="#295565"/>

<path d="M70 768 c0 -14 22 -46 56 -83 30 -33 62 -70 71 -83 12 -17 19 -20 29 -11 8 6 14 16 14 22 0 5 7 15 16 22 14 10 10 16 -32 46 -27 20 -73 52 -101 73 -51 37 -53 37 -53 14z" transform="translate(0,108) scale(0.1,-0.1)" stroke="none" fill="#7195A6"/>

<path d="M540 1006 c-5 -13 -19 -27 -32 -31 -13 -4 -47 -18 -76 -31 -29 -13 -57 -24 -62 -24 -5 0 -15 -6 -22 -12 -7 -7 -30 -26 -50 -41 -45 -33 -47 -53 -12 -87 22 -20 25 -30 21 -63 -6 -47 -22 -66 -39 -49 -7 7 -17 12 -23 12 -14 -1 26 -30 40 -30 16 0 35 45 35 84 0 21 -9 43 -25 60 -14 15 -25 31 -25 36 0 22 241 150 281 150 6 0 9 7 6 15 -7 18 13 32 23 16 4 -8 28 -10 73 -7 66 4 67 4 73 -22 3 -15 12 -39 20 -54 15 -28 10 -58 -11 -58 -7 0 -15 -7 -19 -15 -6 -17 46 -55 76 -55 22 0 48 -27 48 -51 0 -10 -11 -31 -25 -46 -45 -50 -65 -76 -65 -83 0 -10 -97 -55 -151 -71 -66 -19 -68 -24 -20 -73 24 -24 47 -59 51 -77 8 -32 8 -33 9 -6 1 20 -12 41 -45 77 -32 34 -42 51 -33 55 8 2 37 12 64 21 66 22 135 54 135 64 0 4 10 19 23 33 50 60 67 86 67 110 0 25 -27 57 -49 57 -19 0 -71 29 -71 40 0 6 7 10 15 10 22 0 29 45 11 72 -9 12 -16 37 -16 55 0 17 -3 34 -7 36 -5 2 -37 1 -73 -3 -36 -4 -69 -3 -74 1 -18 16 -36 9 -46 -15z" transform="translate(0,108) scale(0.1,-0.1)" stroke="none" fill="#082223"/>

<path d="M344 511 c-2 -3 -20 -4 -40 -3 -41 3 -59 -24 -28 -41 10 -6 37 -29 59 -52 22 -23 52 -49 67 -58 38 -24 61 -72 55 -114 -10 -58 20 -110 66 -119 13 -2 59 -15 102 -29 96 -30 175 -42 175 -27 0 6 -13 25 -30 42 -23 24 -30 40 -30 71 0 51 -11 71 -71 136 -35 37 -49 60 -49 80 0 21 -13 42 -49 77 l-48 47 -87 -2 c-48 -2 -89 -5 -92 -8z m246 -281 c0 -5 -5 -10 -11 -10 -5 0 -7 5 -4 10 3 6 8 10 11 10 2 0 4 -4 4 -10z" transform="translate(0,108) scale(0.1,-0.1)" stroke="none" fill="#7195A6"/>

</g>

<g id="3" transform="translate(264.0,0)scale(1,1)">

<path d="M707 280 c24 -26 35 -50 42 -90 5 -30 9 -45 10 -32 0 12 6 22 11 22 16 0 12 27 -5 34 -8 3 -15 11 -15 19 0 7 -17 29 -37 48 l-38 34 32 -35z" transform="translate(0,108) scale(0.1,-0.1)" stroke="none" fill="#082223"/>

<path d="M779 109 c12 -11 21 -29 21 -41 0 -18 -4 -20 -47 -15 -27 3 -40 3 -31 1 10 -3 15 -11 11 -20 -6 -16 22 -20 32 -4 3 6 15 10 26 10 33 0 19 81 -15 86 -16 2 -16 0 3 -17z" transform="translate(0,108) scale(0.1,-0.1)" stroke="none" fill="#082223"/>

<path d="M401 341 c30 -24 54 -85 41 -107 -12 -22 5 -78 32 -102 12 -11 37 -22 56 -26 25 -4 31 -3 20 4 -8 5 -24 10 -36 10 -39 0 -82 79 -62 114 16 29 -34 126 -65 126 -5 0 1 -8 14 -19z" transform="translate(0,108) scale(0.1,-0.1)" stroke="none" fill="#082223"/>

<path d="M50 776 c0 -27 21 -57 98 -138 40 -44 52 -63 47 -78 -9 -29 2 -57 26 -63 17 -5 19 -9 10 -26 -13 -23 0 -35 28 -26 13 4 32 -8 66 -42 l48 -48 -34 42 c-19 24 -46 49 -61 55 -16 7 -28 21 -28 30 0 10 -4 18 -9 18 -21 0 -41 32 -35 55 5 19 -4 34 -38 72 -96 105 -110 125 -105 149 2 13 0 24 -4 24 -5 0 -9 -11 -9 -24z" transform="translate(0,108) scale(0.1,-0.1)" stroke="none" fill="#082223"/>

<path d="M557 1014 c-3 -3 -3 -12 0 -20 3 -8 0 -14 -6 -14 -40 0 -281 -128 -281 -150 0 -5 11 -21 25 -36 28 -30 33 -76 13 -119 -8 -18 -18 -25 -30 -22 -10 3 -16 1 -13 -3 3 -5 0 -12 -7 -17 -7 -4 -18 -17 -25 -28 -6 -11 -15 -19 -20 -18 -7 1 -9 -31 -4 -66 0 -5 10 -13 21 -16 11 -3 20 -15 20 -26 0 -10 7 -19 15 -19 8 0 36 -22 62 -50 26 -27 50 -50 54 -50 10 0 -84 95 -106 107 -29 16 -11 44 27 43 18 0 75 3 127 6 l93 6 52 -48 51 -49 -45 47 c-26 29 -40 51 -35 56 6 5 30 14 54 21 54 16 151 61 151 71 0 7 20 33 65 83 14 15 25 36 25 46 0 24 -26 51 -48 51 -30 0 -82 38 -76 55 4 8 12 15 19 15 21 0 26 30 11 58 -8 15 -17 39 -20 54 -6 26 -7 26 -76 22 -46 -4 -70 -1 -70 5 0 12 -13 15 -23 5z" transform="translate(0,108) scale(0.1,-0.1)" stroke="none" fill="#295565"/>

<path d="M70 768 c0 -14 22 -46 56 -83 30 -33 62 -70 71 -83 12 -17 19 -20 29 -11 8 6 14 16 14 22 0 5 7 15 16 22 14 10 10 16 -32 46 -27 20 -73 52 -101 73 -51 37 -53 37 -53 14z" transform="translate(0,108) scale(0.1,-0.1)" stroke="none" fill="#7195A6"/>

<path d="M540 1006 c-5 -13 -19 -27 -32 -31 -13 -4 -47 -18 -76 -31 -29 -13 -57 -24 -62 -24 -5 0 -15 -6 -22 -12 -7 -7 -30 -26 -50 -41 -45 -33 -47 -53 -12 -87 22 -20 25 -30 21 -63 -6 -47 -22 -66 -39 -49 -7 7 -17 12 -23 12 -14 -1 26 -30 40 -30 16 0 35 45 35 84 0 21 -9 43 -25 60 -14 15 -25 31 -25 36 0 22 241 150 281 150 6 0 9 7 6 15 -7 18 13 32 23 16 4 -8 28 -10 73 -7 66 4 67 4 73 -22 3 -15 12 -39 20 -54 15 -28 10 -58 -11 -58 -7 0 -15 -7 -19 -15 -6 -17 46 -55 76 -55 22 0 48 -27 48 -51 0 -10 -11 -31 -25 -46 -45 -50 -65 -76 -65 -83 0 -10 -97 -55 -151 -71 -66 -19 -68 -24 -20 -73 24 -24 47 -59 51 -77 8 -32 8 -33 9 -6 1 20 -12 41 -45 77 -32 34 -42 51 -33 55 8 2 37 12 64 21 66 22 135 54 135 64 0 4 10 19 23 33 50 60 67 86 67 110 0 25 -27 57 -49 57 -19 0 -71 29 -71 40 0 6 7 10 15 10 22 0 29 45 11 72 -9 12 -16 37 -16 55 0 17 -3 34 -7 36 -5 2 -37 1 -73 -3 -36 -4 -69 -3 -74 1 -18 16 -36 9 -46 -15z" transform="translate(0,108) scale(0.1,-0.1)" stroke="none" fill="#082223"/>

<path d="M344 511 c-2 -3 -20 -4 -40 -3 -41 3 -59 -24 -28 -41 10 -6 37 -29 59 -52 22 -23 52 -49 67 -58 38 -24 61 -72 55 -114 -10 -58 20 -110 66 -119 13 -2 59 -15 102 -29 96 -30 175 -42 175 -27 0 6 -13 25 -30 42 -23 24 -30 40 -30 71 0 51 -11 71 -71 136 -35 37 -49 60 -49 80 0 21 -13 42 -49 77 l-48 47 -87 -2 c-48 -2 -89 -5 -92 -8z m246 -281 c0 -5 -5 -10 -11 -10 -5 0 -7 5 -4 10 3 6 8 10 11 10 2 0 4 -4 4 -10z" transform="translate(0,108) scale(0.1,-0.1)" stroke="none" fill="#7195A6"/>

</g>

<g id="4" transform="translate(352.0,0)scale(1,1)">

<path d="M707 280 c24 -26 35 -50 42 -90 5 -30 9 -45 10 -32 0 12 6 22 11 22 16 0 12 27 -5 34 -8 3 -15 11 -15 19 0 7 -17 29 -37 48 l-38 34 32 -35z" transform="translate(0,108) scale(0.1,-0.1)" stroke="none" fill="#082223"/>

<path d="M779 109 c12 -11 21 -29 21 -41 0 -18 -4 -20 -47 -15 -27 3 -40 3 -31 1 10 -3 15 -11 11 -20 -6 -16 22 -20 32 -4 3 6 15 10 26 10 33 0 19 81 -15 86 -16 2 -16 0 3 -17z" transform="translate(0,108) scale(0.1,-0.1)" stroke="none" fill="#082223"/>

<path d="M401 341 c30 -24 54 -85 41 -107 -12 -22 5 -78 32 -102 12 -11 37 -22 56 -26 25 -4 31 -3 20 4 -8 5 -24 10 -36 10 -39 0 -82 79 -62 114 16 29 -34 126 -65 126 -5 0 1 -8 14 -19z" transform="translate(0,108) scale(0.1,-0.1)" stroke="none" fill="#082223"/>

<path d="M50 776 c0 -27 21 -57 98 -138 40 -44 52 -63 47 -78 -9 -29 2 -57 26 -63 17 -5 19 -9 10 -26 -13 -23 0 -35 28 -26 13 4 32 -8 66 -42 l48 -48 -34 42 c-19 24 -46 49 -61 55 -16 7 -28 21 -28 30 0 10 -4 18 -9 18 -21 0 -41 32 -35 55 5 19 -4 34 -38 72 -96 105 -110 125 -105 149 2 13 0 24 -4 24 -5 0 -9 -11 -9 -24z" transform="translate(0,108) scale(0.1,-0.1)" stroke="none" fill="#082223"/>

<path d="M557 1014 c-3 -3 -3 -12 0 -20 3 -8 0 -14 -6 -14 -40 0 -281 -128 -281 -150 0 -5 11 -21 25 -36 28 -30 33 -76 13 -119 -8 -18 -18 -25 -30 -22 -10 3 -16 1 -13 -3 3 -5 0 -12 -7 -17 -7 -4 -18 -17 -25 -28 -6 -11 -15 -19 -20 -18 -7 1 -9 -31 -4 -66 0 -5 10 -13 21 -16 11 -3 20 -15 20 -26 0 -10 7 -19 15 -19 8 0 36 -22 62 -50 26 -27 50 -50 54 -50 10 0 -84 95 -106 107 -29 16 -11 44 27 43 18 0 75 3 127 6 l93 6 52 -48 51 -49 -45 47 c-26 29 -40 51 -35 56 6 5 30 14 54 21 54 16 151 61 151 71 0 7 20 33 65 83 14 15 25 36 25 46 0 24 -26 51 -48 51 -30 0 -82 38 -76 55 4 8 12 15 19 15 21 0 26 30 11 58 -8 15 -17 39 -20 54 -6 26 -7 26 -76 22 -46 -4 -70 -1 -70 5 0 12 -13 15 -23 5z" transform="translate(0,108) scale(0.1,-0.1)" stroke="none" fill="#295565"/>

<path d="M70 768 c0 -14 22 -46 56 -83 30 -33 62 -70 71 -83 12 -17 19 -20 29 -11 8 6 14 16 14 22 0 5 7 15 16 22 14 10 10 16 -32 46 -27 20 -73 52 -101 73 -51 37 -53 37 -53 14z" transform="translate(0,108) scale(0.1,-0.1)" stroke="none" fill="#7195A6"/>

<path d="M540 1006 c-5 -13 -19 -27 -32 -31 -13 -4 -47 -18 -76 -31 -29 -13 -57 -24 -62 -24 -5 0 -15 -6 -22 -12 -7 -7 -30 -26 -50 -41 -45 -33 -47 -53 -12 -87 22 -20 25 -30 21 -63 -6 -47 -22 -66 -39 -49 -7 7 -17 12 -23 12 -14 -1 26 -30 40 -30 16 0 35 45 35 84 0 21 -9 43 -25 60 -14 15 -25 31 -25 36 0 22 241 150 281 150 6 0 9 7 6 15 -7 18 13 32 23 16 4 -8 28 -10 73 -7 66 4 67 4 73 -22 3 -15 12 -39 20 -54 15 -28 10 -58 -11 -58 -7 0 -15 -7 -19 -15 -6 -17 46 -55 76 -55 22 0 48 -27 48 -51 0 -10 -11 -31 -25 -46 -45 -50 -65 -76 -65 -83 0 -10 -97 -55 -151 -71 -66 -19 -68 -24 -20 -73 24 -24 47 -59 51 -77 8 -32 8 -33 9 -6 1 20 -12 41 -45 77 -32 34 -42 51 -33 55 8 2 37 12 64 21 66 22 135 54 135 64 0 4 10 19 23 33 50 60 67 86 67 110 0 25 -27 57 -49 57 -19 0 -71 29 -71 40 0 6 7 10 15 10 22 0 29 45 11 72 -9 12 -16 37 -16 55 0 17 -3 34 -7 36 -5 2 -37 1 -73 -3 -36 -4 -69 -3 -74 1 -18 16 -36 9 -46 -15z" transform="translate(0,108) scale(0.1,-0.1)" stroke="none" fill="#082223"/>

<path d="M344 511 c-2 -3 -20 -4 -40 -3 -41 3 -59 -24 -28 -41 10 -6 37 -29 59 -52 22 -23 52 -49 67 -58 38 -24 61 -72 55 -114 -10 -58 20 -110 66 -119 13 -2 59 -15 102 -29 96 -30 175 -42 175 -27 0 6 -13 25 -30 42 -23 24 -30 40 -30 71 0 51 -11 71 -71 136 -35 37 -49 60 -49 80 0 21 -13 42 -49 77 l-48 47 -87 -2 c-48 -2 -89 -5 -92 -8z m246 -281 c0 -5 -5 -10 -11 -10 -5 0 -7 5 -4 10 3 6 8 10 11 10 2 0 4 -4 4 -10z" transform="translate(0,108) scale(0.1,-0.1)" stroke="none" fill="#7195A6"/>

</g>

</g>
<g id="row3" transform="translate(-33,324.0)">
<g id="0" transform="translate(0.0,0)scale(1,1)">

<path d="M707 280 c24 -26 35 -50 42 -90 5 -30 9 -45 10 -32 0 12 6 22 11 22 16 0 12 27 -5 34 -8 3 -15 11 -15 19 0 7 -17 29 -37 48 l-38 34 32 -35z" transform="translate(0,108) scale(0.1,-0.1)" stroke="none" fill="#082223"/>

<path d="M779 109 c12 -11 21 -29 21 -41 0 -18 -4 -20 -47 -15 -27 3 -40 3 -31 1 10 -3 15 -11 11 -20 -6 -16 22 -20 32 -4 3 6 15 10 26 10 33 0 19 81 -15 86 -16 2 -16 0 3 -17z" transform="translate(0,108) scale(0.1,-0.1)" stroke="none" fill="#082223"/>

<path d="M401 341 c30 -24 54 -85 41 -107 -12 -22 5 -78 32 -102 12 -11 37 -22 56 -26 25 -4 31 -3 20 4 -8 5 -24 10 -36 10 -39 0 -82 79 -62 114 16 29 -34 126 -65 126 -5 0 1 -8 14 -19z" transform="translate(0,108) scale(0.1,-0.1)" stroke="none" fill="#082223"/>

<path d="M50 776 c0 -27 21 -57 98 -138 40 -44 52 -63 47 -78 -9 -29 2 -57 26 -63 17 -5 19 -9 10 -26 -13 -23 0 -35 28 -26 13 4 32 -8 66 -42 l48 -48 -34 42 c-19 24 -46 49 -61 55 -16 7 -28 21 -28 30 0 10 -4 18 -9 18 -21 0 -41 32 -35 55 5 19 -4 34 -38 72 -96 105 -110 125 -105 149 2 13 0 24 -4 24 -5 0 -9 -11 -9 -24z" transform="translate(0,108) scale(0.1,-0.1)" stroke="none" fill="#082223"/>

<path d="M557 1014 c-3 -3 -3 -12 0 -20 3 -8 0 -14 -6 -14 -40 0 -281 -128 -281 -150 0 -5 11 -21 25 -36 28 -30 33 -76 13 -119 -8 -18 -18 -25 -30 -22 -10 3 -16 1 -13 -3 3 -5 0 -12 -7 -17 -7 -4 -18 -17 -25 -28 -6 -11 -15 -19 -20 -18 -7 1 -9 -31 -4 -66 0 -5 10 -13 21 -16 11 -3 20 -15 20 -26 0 -10 7 -19 15 -19 8 0 36 -22 62 -50 26 -27 50 -50 54 -50 10 0 -84 95 -106 107 -29 16 -11 44 27 43 18 0 75 3 127 6 l93 6 52 -48 51 -49 -45 47 c-26 29 -40 51 -35 56 6 5 30 14 54 21 54 16 151 61 151 71 0 7 20 33 65 83 14 15 25 36 25 46 0 24 -26 51 -48 51 -30 0 -82 38 -76 55 4 8 12 15 19 15 21 0 26 30 11 58 -8 15 -17 39 -20 54 -6 26 -7 26 -76 22 -46 -4 -70 -1 -70 5 0 12 -13 15 -23 5z" transform="translate(0,108) scale(0.1,-0.1)" stroke="none" fill="#295565"/>

<path d="M70 768 c0 -14 22 -46 56 -83 30 -33 62 -70 71 -83 12 -17 19 -20 29 -11 8 6 14 16 14 22 0 5 7 15 16 22 14 10 10 16 -32 46 -27 20 -73 52 -101 73 -51 37 -53 37 -53 14z" transform="translate(0,108) scale(0.1,-0.1)" stroke="none" fill="#7195A6"/>

<path d="M540 1006 c-5 -13 -19 -27 -32 -31 -13 -4 -47 -18 -76 -31 -29 -13 -57 -24 -62 -24 -5 0 -15 -6 -22 -12 -7 -7 -30 -26 -50 -41 -45 -33 -47 -53 -12 -87 22 -20 25 -30 21 -63 -6 -47 -22 -66 -39 -49 -7 7 -17 12 -23 12 -14 -1 26 -30 40 -30 16 0 35 45 35 84 0 21 -9 43 -25 60 -14 15 -25 31 -25 36 0 22 241 150 281 150 6 0 9 7 6 15 -7 18 13 32 23 16 4 -8 28 -10 73 -7 66 4 67 4 73 -22 3 -15 12 -39 20 -54 15 -28 10 -58 -11 -58 -7 0 -15 -7 -19 -15 -6 -17 46 -55 76 -55 22 0 48 -27 48 -51 0 -10 -11 -31 -25 -46 -45 -50 -65 -76 -65 -83 0 -10 -97 -55 -151 -71 -66 -19 -68 -24 -20 -73 24 -24 47 -59 51 -77 8 -32 8 -33 9 -6 1 20 -12 41 -45 77 -32 34 -42 51 -33 55 8 2 37 12 64 21 66 22 135 54 135 64 0 4 10 19 23 33 50 60 67 86 67 110 0 25 -27 57 -49 57 -19 0 -71 29 -71 40 0 6 7 10 15 10 22 0 29 45 11 72 -9 12 -16 37 -16 55 0 17 -3 34 -7 36 -5 2 -37 1 -73 -3 -36 -4 -69 -3 -74 1 -18 16 -36 9 -46 -15z" transform="translate(0,108) scale(0.1,-0.1)" stroke="none" fill="#082223"/>

<path d="M344 511 c-2 -3 -20 -4 -40 -3 -41 3 -59 -24 -28 -41 10 -6 37 -29 59 -52 22 -23 52 -49 67 -58 38 -24 61 -72 55 -114 -10 -58 20 -110 66 -119 13 -2 59 -15 102 -29 96 -30 175 -42 175 -27 0 6 -13 25 -30 42 -23 24 -30 40 -30 71 0 51 -11 71 -71 136 -35 37 -49 60 -49 80 0 21 -13 42 -49 77 l-48 47 -87 -2 c-48 -2 -89 -5 -92 -8z m246 -281 c0 -5 -5 -10 -11 -10 -5 0 -7 5 -4 10 3 6 8 10 11 10 2 0 4 -4 4 -10z" transform="translate(0,108) scale(0.1,-0.1)" stroke="none" fill="#7195A6"/>

</g>

<g id="1" transform="translate(88.0,0)scale(1,1)">

<path d="M707 280 c24 -26 35 -50 42 -90 5 -30 9 -45 10 -32 0 12 6 22 11 22 16 0 12 27 -5 34 -8 3 -15 11 -15 19 0 7 -17 29 -37 48 l-38 34 32 -35z" transform="translate(0,108) scale(0.1,-0.1)" stroke="none" fill="#082223"/>

<path d="M779 109 c12 -11 21 -29 21 -41 0 -18 -4 -20 -47 -15 -27 3 -40 3 -31 1 10 -3 15 -11 11 -20 -6 -16 22 -20 32 -4 3 6 15 10 26 10 33 0 19 81 -15 86 -16 2 -16 0 3 -17z" transform="translate(0,108) scale(0.1,-0.1)" stroke="none" fill="#082223"/>

<path d="M401 341 c30 -24 54 -85 41 -107 -12 -22 5 -78 32 -102 12 -11 37 -22 56 -26 25 -4 31 -3 20 4 -8 5 -24 10 -36 10 -39 0 -82 79 -62 114 16 29 -34 126 -65 126 -5 0 1 -8 14 -19z" transform="translate(0,108) scale(0.1,-0.1)" stroke="none" fill="#082223"/>

<path d="M50 776 c0 -27 21 -57 98 -138 40 -44 52 -63 47 -78 -9 -29 2 -57 26 -63 17 -5 19 -9 10 -26 -13 -23 0 -35 28 -26 13 4 32 -8 66 -42 l48 -48 -34 42 c-19 24 -46 49 -61 55 -16 7 -28 21 -28 30 0 10 -4 18 -9 18 -21 0 -41 32 -35 55 5 19 -4 34 -38 72 -96 105 -110 125 -105 149 2 13 0 24 -4 24 -5 0 -9 -11 -9 -24z" transform="translate(0,108) scale(0.1,-0.1)" stroke="none" fill="#082223"/>

<path d="M557 1014 c-3 -3 -3 -12 0 -20 3 -8 0 -14 -6 -14 -40 0 -281 -128 -281 -150 0 -5 11 -21 25 -36 28 -30 33 -76 13 -119 -8 -18 -18 -25 -30 -22 -10 3 -16 1 -13 -3 3 -5 0 -12 -7 -17 -7 -4 -18 -17 -25 -28 -6 -11 -15 -19 -20 -18 -7 1 -9 -31 -4 -66 0 -5 10 -13 21 -16 11 -3 20 -15 20 -26 0 -10 7 -19 15 -19 8 0 36 -22 62 -50 26 -27 50 -50 54 -50 10 0 -84 95 -106 107 -29 16 -11 44 27 43 18 0 75 3 127 6 l93 6 52 -48 51 -49 -45 47 c-26 29 -40 51 -35 56 6 5 30 14 54 21 54 16 151 61 151 71 0 7 20 33 65 83 14 15 25 36 25 46 0 24 -26 51 -48 51 -30 0 -82 38 -76 55 4 8 12 15 19 15 21 0 26 30 11 58 -8 15 -17 39 -20 54 -6 26 -7 26 -76 22 -46 -4 -70 -1 -70 5 0 12 -13 15 -23 5z" transform="translate(0,108) scale(0.1,-0.1)" stroke="none" fill="#295565"/>

<path d="M70 768 c0 -14 22 -46 56 -83 30 -33 62 -70 71 -83 12 -17 19 -20 29 -11 8 6 14 16 14 22 0 5 7 15 16 22 14 10 10 16 -32 46 -27 20 -73 52 -101 73 -51 37 -53 37 -53 14z" transform="translate(0,108) scale(0.1,-0.1)" stroke="none" fill="#7195A6"/>

<path d="M540 1006 c-5 -13 -19 -27 -32 -31 -13 -4 -47 -18 -76 -31 -29 -13 -57 -24 -62 -24 -5 0 -15 -6 -22 -12 -7 -7 -30 -26 -50 -41 -45 -33 -47 -53 -12 -87 22 -20 25 -30 21 -63 -6 -47 -22 -66 -39 -49 -7 7 -17 12 -23 12 -14 -1 26 -30 40 -30 16 0 35 45 35 84 0 21 -9 43 -25 60 -14 15 -25 31 -25 36 0 22 241 150 281 150 6 0 9 7 6 15 -7 18 13 32 23 16 4 -8 28 -10 73 -7 66 4 67 4 73 -22 3 -15 12 -39 20 -54 15 -28 10 -58 -11 -58 -7 0 -15 -7 -19 -15 -6 -17 46 -55 76 -55 22 0 48 -27 48 -51 0 -10 -11 -31 -25 -46 -45 -50 -65 -76 -65 -83 0 -10 -97 -55 -151 -71 -66 -19 -68 -24 -20 -73 24 -24 47 -59 51 -77 8 -32 8 -33 9 -6 1 20 -12 41 -45 77 -32 34 -42 51 -33 55 8 2 37 12 64 21 66 22 135 54 135 64 0 4 10 19 23 33 50 60 67 86 67 110 0 25 -27 57 -49 57 -19 0 -71 29 -71 40 0 6 7 10 15 10 22 0 29 45 11 72 -9 12 -16 37 -16 55 0 17 -3 34 -7 36 -5 2 -37 1 -73 -3 -36 -4 -69 -3 -74 1 -18 16 -36 9 -46 -15z" transform="translate(0,108) scale(0.1,-0.1)" stroke="none" fill="#082223"/>

<path d="M344 511 c-2 -3 -20 -4 -40 -3 -41 3 -59 -24 -28 -41 10 -6 37 -29 59 -52 22 -23 52 -49 67 -58 38 -24 61 -72 55 -114 -10 -58 20 -110 66 -119 13 -2 59 -15 102 -29 96 -30 175 -42 175 -27 0 6 -13 25 -30 42 -23 24 -30 40 -30 71 0 51 -11 71 -71 136 -35 37 -49 60 -49 80 0 21 -13 42 -49 77 l-48 47 -87 -2 c-48 -2 -89 -5 -92 -8z m246 -281 c0 -5 -5 -10 -11 -10 -5 0 -7 5 -4 10 3 6 8 10 11 10 2 0 4 -4 4 -10z" transform="translate(0,108) scale(0.1,-0.1)" stroke="none" fill="#7195A6"/>

</g>

<g id="2" transform="translate(176.0,0)scale(1,1)">

<path d="M707 280 c24 -26 35 -50 42 -90 5 -30 9 -45 10 -32 0 12 6 22 11 22 16 0 12 27 -5 34 -8 3 -15 11 -15 19 0 7 -17 29 -37 48 l-38 34 32 -35z" transform="translate(0,108) scale(0.1,-0.1)" stroke="none" fill="#082223"/>

<path d="M779 109 c12 -11 21 -29 21 -41 0 -18 -4 -20 -47 -15 -27 3 -40 3 -31 1 10 -3 15 -11 11 -20 -6 -16 22 -20 32 -4 3 6 15 10 26 10 33 0 19 81 -15 86 -16 2 -16 0 3 -17z" transform="translate(0,108) scale(0.1,-0.1)" stroke="none" fill="#082223"/>

<path d="M401 341 c30 -24 54 -85 41 -107 -12 -22 5 -78 32 -102 12 -11 37 -22 56 -26 25 -4 31 -3 20 4 -8 5 -24 10 -36 10 -39 0 -82 79 -62 114 16 29 -34 126 -65 126 -5 0 1 -8 14 -19z" transform="translate(0,108) scale(0.1,-0.1)" stroke="none" fill="#082223"/>

<path d="M50 776 c0 -27 21 -57 98 -138 40 -44 52 -63 47 -78 -9 -29 2 -57 26 -63 17 -5 19 -9 10 -26 -13 -23 0 -35 28 -26 13 4 32 -8 66 -42 l48 -48 -34 42 c-19 24 -46 49 -61 55 -16 7 -28 21 -28 30 0 10 -4 18 -9 18 -21 0 -41 32 -35 55 5 19 -4 34 -38 72 -96 105 -110 125 -105 149 2 13 0 24 -4 24 -5 0 -9 -11 -9 -24z" transform="translate(0,108) scale(0.1,-0.1)" stroke="none" fill="#082223"/>

<path d="M557 1014 c-3 -3 -3 -12 0 -20 3 -8 0 -14 -6 -14 -40 0 -281 -128 -281 -150 0 -5 11 -21 25 -36 28 -30 33 -76 13 -119 -8 -18 -18 -25 -30 -22 -10 3 -16 1 -13 -3 3 -5 0 -12 -7 -17 -7 -4 -18 -17 -25 -28 -6 -11 -15 -19 -20 -18 -7 1 -9 -31 -4 -66 0 -5 10 -13 21 -16 11 -3 20 -15 20 -26 0 -10 7 -19 15 -19 8 0 36 -22 62 -50 26 -27 50 -50 54 -50 10 0 -84 95 -106 107 -29 16 -11 44 27 43 18 0 75 3 127 6 l93 6 52 -48 51 -49 -45 47 c-26 29 -40 51 -35 56 6 5 30 14 54 21 54 16 151 61 151 71 0 7 20 33 65 83 14 15 25 36 25 46 0 24 -26 51 -48 51 -30 0 -82 38 -76 55 4 8 12 15 19 15 21 0 26 30 11 58 -8 15 -17 39 -20 54 -6 26 -7 26 -76 22 -46 -4 -70 -1 -70 5 0 12 -13 15 -23 5z" transform="translate(0,108) scale(0.1,-0.1)" stroke="none" fill="#295565"/>

<path d="M70 768 c0 -14 22 -46 56 -83 30 -33 62 -70 71 -83 12 -17 19 -20 29 -11 8 6 14 16 14 22 0 5 7 15 16 22 14 10 10 16 -32 46 -27 20 -73 52 -101 73 -51 37 -53 37 -53 14z" transform="translate(0,108) scale(0.1,-0.1)" stroke="none" fill="#7195A6"/>

<path d="M540 1006 c-5 -13 -19 -27 -32 -31 -13 -4 -47 -18 -76 -31 -29 -13 -57 -24 -62 -24 -5 0 -15 -6 -22 -12 -7 -7 -30 -26 -50 -41 -45 -33 -47 -53 -12 -87 22 -20 25 -30 21 -63 -6 -47 -22 -66 -39 -49 -7 7 -17 12 -23 12 -14 -1 26 -30 40 -30 16 0 35 45 35 84 0 21 -9 43 -25 60 -14 15 -25 31 -25 36 0 22 241 150 281 150 6 0 9 7 6 15 -7 18 13 32 23 16 4 -8 28 -10 73 -7 66 4 67 4 73 -22 3 -15 12 -39 20 -54 15 -28 10 -58 -11 -58 -7 0 -15 -7 -19 -15 -6 -17 46 -55 76 -55 22 0 48 -27 48 -51 0 -10 -11 -31 -25 -46 -45 -50 -65 -76 -65 -83 0 -10 -97 -55 -151 -71 -66 -19 -68 -24 -20 -73 24 -24 47 -59 51 -77 8 -32 8 -33 9 -6 1 20 -12 41 -45 77 -32 34 -42 51 -33 55 8 2 37 12 64 21 66 22 135 54 135 64 0 4 10 19 23 33 50 60 67 86 67 110 0 25 -27 57 -49 57 -19 0 -71 29 -71 40 0 6 7 10 15 10 22 0 29 45 11 72 -9 12 -16 37 -16 55 0 17 -3 34 -7 36 -5 2 -37 1 -73 -3 -36 -4 -69 -3 -74 1 -18 16 -36 9 -46 -15z" transform="translate(0,108) scale(0.1,-0.1)" stroke="none" fill="#082223"/>

<path d="M344 511 c-2 -3 -20 -4 -40 -3 -41 3 -59 -24 -28 -41 10 -6 37 -29 59 -52 22 -23 52 -49 67 -58 38 -24 61 -72 55 -114 -10 -58 20 -110 66 -119 13 -2 59 -15 102 -29 96 -30 175 -42 175 -27 0 6 -13 25 -30 42 -23 24 -30 40 -30 71 0 51 -11 71 -71 136 -35 37 -49 60 -49 80 0 21 -13 42 -49 77 l-48 47 -87 -2 c-48 -2 -89 -5 -92 -8z m246 -281 c0 -5 -5 -10 -11 -10 -5 0 -7 5 -4 10 3 6 8 10 11 10 2 0 4 -4 4 -10z" transform="translate(0,108) scale(0.1,-0.1)" stroke="none" fill="#7195A6"/>

</g>

<g id="3" transform="translate(264.0,0)scale(1,1)">

<path d="M707 280 c24 -26 35 -50 42 -90 5 -30 9 -45 10 -32 0 12 6 22 11 22 16 0 12 27 -5 34 -8 3 -15 11 -15 19 0 7 -17 29 -37 48 l-38 34 32 -35z" transform="translate(0,108) scale(0.1,-0.1)" stroke="none" fill="#082223"/>

<path d="M779 109 c12 -11 21 -29 21 -41 0 -18 -4 -20 -47 -15 -27 3 -40 3 -31 1 10 -3 15 -11 11 -20 -6 -16 22 -20 32 -4 3 6 15 10 26 10 33 0 19 81 -15 86 -16 2 -16 0 3 -17z" transform="translate(0,108) scale(0.1,-0.1)" stroke="none" fill="#082223"/>

<path d="M401 341 c30 -24 54 -85 41 -107 -12 -22 5 -78 32 -102 12 -11 37 -22 56 -26 25 -4 31 -3 20 4 -8 5 -24 10 -36 10 -39 0 -82 79 -62 114 16 29 -34 126 -65 126 -5 0 1 -8 14 -19z" transform="translate(0,108) scale(0.1,-0.1)" stroke="none" fill="#082223"/>

<path d="M50 776 c0 -27 21 -57 98 -138 40 -44 52 -63 47 -78 -9 -29 2 -57 26 -63 17 -5 19 -9 10 -26 -13 -23 0 -35 28 -26 13 4 32 -8 66 -42 l48 -48 -34 42 c-19 24 -46 49 -61 55 -16 7 -28 21 -28 30 0 10 -4 18 -9 18 -21 0 -41 32 -35 55 5 19 -4 34 -38 72 -96 105 -110 125 -105 149 2 13 0 24 -4 24 -5 0 -9 -11 -9 -24z" transform="translate(0,108) scale(0.1,-0.1)" stroke="none" fill="#082223"/>

<path d="M557 1014 c-3 -3 -3 -12 0 -20 3 -8 0 -14 -6 -14 -40 0 -281 -128 -281 -150 0 -5 11 -21 25 -36 28 -30 33 -76 13 -119 -8 -18 -18 -25 -30 -22 -10 3 -16 1 -13 -3 3 -5 0 -12 -7 -17 -7 -4 -18 -17 -25 -28 -6 -11 -15 -19 -20 -18 -7 1 -9 -31 -4 -66 0 -5 10 -13 21 -16 11 -3 20 -15 20 -26 0 -10 7 -19 15 -19 8 0 36 -22 62 -50 26 -27 50 -50 54 -50 10 0 -84 95 -106 107 -29 16 -11 44 27 43 18 0 75 3 127 6 l93 6 52 -48 51 -49 -45 47 c-26 29 -40 51 -35 56 6 5 30 14 54 21 54 16 151 61 151 71 0 7 20 33 65 83 14 15 25 36 25 46 0 24 -26 51 -48 51 -30 0 -82 38 -76 55 4 8 12 15 19 15 21 0 26 30 11 58 -8 15 -17 39 -20 54 -6 26 -7 26 -76 22 -46 -4 -70 -1 -70 5 0 12 -13 15 -23 5z" transform="translate(0,108) scale(0.1,-0.1)" stroke="none" fill="#295565"/>

<path d="M70 768 c0 -14 22 -46 56 -83 30 -33 62 -70 71 -83 12 -17 19 -20 29 -11 8 6 14 16 14 22 0 5 7 15 16 22 14 10 10 16 -32 46 -27 20 -73 52 -101 73 -51 37 -53 37 -53 14z" transform="translate(0,108) scale(0.1,-0.1)" stroke="none" fill="#7195A6"/>

<path d="M540 1006 c-5 -13 -19 -27 -32 -31 -13 -4 -47 -18 -76 -31 -29 -13 -57 -24 -62 -24 -5 0 -15 -6 -22 -12 -7 -7 -30 -26 -50 -41 -45 -33 -47 -53 -12 -87 22 -20 25 -30 21 -63 -6 -47 -22 -66 -39 -49 -7 7 -17 12 -23 12 -14 -1 26 -30 40 -30 16 0 35 45 35 84 0 21 -9 43 -25 60 -14 15 -25 31 -25 36 0 22 241 150 281 150 6 0 9 7 6 15 -7 18 13 32 23 16 4 -8 28 -10 73 -7 66 4 67 4 73 -22 3 -15 12 -39 20 -54 15 -28 10 -58 -11 -58 -7 0 -15 -7 -19 -15 -6 -17 46 -55 76 -55 22 0 48 -27 48 -51 0 -10 -11 -31 -25 -46 -45 -50 -65 -76 -65 -83 0 -10 -97 -55 -151 -71 -66 -19 -68 -24 -20 -73 24 -24 47 -59 51 -77 8 -32 8 -33 9 -6 1 20 -12 41 -45 77 -32 34 -42 51 -33 55 8 2 37 12 64 21 66 22 135 54 135 64 0 4 10 19 23 33 50 60 67 86 67 110 0 25 -27 57 -49 57 -19 0 -71 29 -71 40 0 6 7 10 15 10 22 0 29 45 11 72 -9 12 -16 37 -16 55 0 17 -3 34 -7 36 -5 2 -37 1 -73 -3 -36 -4 -69 -3 -74 1 -18 16 -36 9 -46 -15z" transform="translate(0,108) scale(0.1,-0.1)" stroke="none" fill="#082223"/>

<path d="M344 511 c-2 -3 -20 -4 -40 -3 -41 3 -59 -24 -28 -41 10 -6 37 -29 59 -52 22 -23 52 -49 67 -58 38 -24 61 -72 55 -114 -10 -58 20 -110 66 -119 13 -2 59 -15 102 -29 96 -30 175 -42 175 -27 0 6 -13 25 -30 42 -23 24 -30 40 -30 71 0 51 -11 71 -71 136 -35 37 -49 60 -49 80 0 21 -13 42 -49 77 l-48 47 -87 -2 c-48 -2 -89 -5 -92 -8z m246 -281 c0 -5 -5 -10 -11 -10 -5 0 -7 5 -4 10 3 6 8 10 11 10 2 0 4 -4 4 -10z" transform="translate(0,108) scale(0.1,-0.1)" stroke="none" fill="#7195A6"/>

</g>

<g id="4" transform="translate(352.0,0)scale(1,1)">

<path d="M707 280 c24 -26 35 -50 42 -90 5 -30 9 -45 10 -32 0 12 6 22 11 22 16 0 12 27 -5 34 -8 3 -15 11 -15 19 0 7 -17 29 -37 48 l-38 34 32 -35z" transform="translate(0,108) scale(0.1,-0.1)" stroke="none" fill="#082223"/>

<path d="M779 109 c12 -11 21 -29 21 -41 0 -18 -4 -20 -47 -15 -27 3 -40 3 -31 1 10 -3 15 -11 11 -20 -6 -16 22 -20 32 -4 3 6 15 10 26 10 33 0 19 81 -15 86 -16 2 -16 0 3 -17z" transform="translate(0,108) scale(0.1,-0.1)" stroke="none" fill="#082223"/>

<path d="M401 341 c30 -24 54 -85 41 -107 -12 -22 5 -78 32 -102 12 -11 37 -22 56 -26 25 -4 31 -3 20 4 -8 5 -24 10 -36 10 -39 0 -82 79 -62 114 16 29 -34 126 -65 126 -5 0 1 -8 14 -19z" transform="translate(0,108) scale(0.1,-0.1)" stroke="none" fill="#082223"/>

<path d="M50 776 c0 -27 21 -57 98 -138 40 -44 52 -63 47 -78 -9 -29 2 -57 26 -63 17 -5 19 -9 10 -26 -13 -23 0 -35 28 -26 13 4 32 -8 66 -42 l48 -48 -34 42 c-19 24 -46 49 -61 55 -16 7 -28 21 -28 30 0 10 -4 18 -9 18 -21 0 -41 32 -35 55 5 19 -4 34 -38 72 -96 105 -110 125 -105 149 2 13 0 24 -4 24 -5 0 -9 -11 -9 -24z" transform="translate(0,108) scale(0.1,-0.1)" stroke="none" fill="#082223"/>

<path d="M557 1014 c-3 -3 -3 -12 0 -20 3 -8 0 -14 -6 -14 -40 0 -281 -128 -281 -150 0 -5 11 -21 25 -36 28 -30 33 -76 13 -119 -8 -18 -18 -25 -30 -22 -10 3 -16 1 -13 -3 3 -5 0 -12 -7 -17 -7 -4 -18 -17 -25 -28 -6 -11 -15 -19 -20 -18 -7 1 -9 -31 -4 -66 0 -5 10 -13 21 -16 11 -3 20 -15 20 -26 0 -10 7 -19 15 -19 8 0 36 -22 62 -50 26 -27 50 -50 54 -50 10 0 -84 95 -106 107 -29 16 -11 44 27 43 18 0 75 3 127 6 l93 6 52 -48 51 -49 -45 47 c-26 29 -40 51 -35 56 6 5 30 14 54 21 54 16 151 61 151 71 0 7 20 33 65 83 14 15 25 36 25 46 0 24 -26 51 -48 51 -30 0 -82 38 -76 55 4 8 12 15 19 15 21 0 26 30 11 58 -8 15 -17 39 -20 54 -6 26 -7 26 -76 22 -46 -4 -70 -1 -70 5 0 12 -13 15 -23 5z" transform="translate(0,108) scale(0.1,-0.1)" stroke="none" fill="#295565"/>

<path d="M70 768 c0 -14 22 -46 56 -83 30 -33 62 -70 71 -83 12 -17 19 -20 29 -11 8 6 14 16 14 22 0 5 7 15 16 22 14 10 10 16 -32 46 -27 20 -73 52 -101 73 -51 37 -53 37 -53 14z" transform="translate(0,108) scale(0.1,-0.1)" stroke="none" fill="#7195A6"/>

<path d="M540 1006 c-5 -13 -19 -27 -32 -31 -13 -4 -47 -18 -76 -31 -29 -13 -57 -24 -62 -24 -5 0 -15 -6 -22 -12 -7 -7 -30 -26 -50 -41 -45 -33 -47 -53 -12 -87 22 -20 25 -30 21 -63 -6 -47 -22 -66 -39 -49 -7 7 -17 12 -23 12 -14 -1 26 -30 40 -30 16 0 35 45 35 84 0 21 -9 43 -25 60 -14 15 -25 31 -25 36 0 22 241 150 281 150 6 0 9 7 6 15 -7 18 13 32 23 16 4 -8 28 -10 73 -7 66 4 67 4 73 -22 3 -15 12 -39 20 -54 15 -28 10 -58 -11 -58 -7 0 -15 -7 -19 -15 -6 -17 46 -55 76 -55 22 0 48 -27 48 -51 0 -10 -11 -31 -25 -46 -45 -50 -65 -76 -65 -83 0 -10 -97 -55 -151 -71 -66 -19 -68 -24 -20 -73 24 -24 47 -59 51 -77 8 -32 8 -33 9 -6 1 20 -12 41 -45 77 -32 34 -42 51 -33 55 8 2 37 12 64 21 66 22 135 54 135 64 0 4 10 19 23 33 50 60 67 86 67 110 0 25 -27 57 -49 57 -19 0 -71 29 -71 40 0 6 7 10 15 10 22 0 29 45 11 72 -9 12 -16 37 -16 55 0 17 -3 34 -7 36 -5 2 -37 1 -73 -3 -36 -4 -69 -3 -74 1 -18 16 -36 9 -46 -15z" transform="translate(0,108) scale(0.1,-0.1)" stroke="none" fill="#082223"/>

<path d="M344 511 c-2 -3 -20 -4 -40 -3 -41 3 -59 -24 -28 -41 10 -6 37 -29 59 -52 22 -23 52 -49 67 -58 38 -24 61 -72 55 -114 -10 -58 20 -110 66 -119 13 -2 59 -15 102 -29 96 -30 175 -42 175 -27 0 6 -13 25 -30 42 -23 24 -30 40 -30 71 0 51 -11 71 -71 136 -35 37 -49 60 -49 80 0 21 -13 42 -49 77 l-48 47 -87 -2 c-48 -2 -89 -5 -92 -8z m246 -281 c0 -5 -5 -10 -11 -10 -5 0 -7 5 -4 10 3 6 8 10 11 10 2 0 4 -4 4 -10z" transform="translate(0,108) scale(0.1,-0.1)" stroke="none" fill="#7195A6"/>

</g>

</g>
</svg>