<?xml version="1.0" standalone="no"?>
<!DOCTYPE svg PUBLIC "-//W3C//DTD SVG 20010904//EN"
 "http://www.w3.org/TR/2001/REC-SVG-20010904/DTD/svg10.dtd">
<svg version="1.0" xmlns="http://www.w3.org/2000/svg" width="296pt" height="368pt" viewBox="0 0 296 368" preserveAspectRatio = "xMidYMid meet" >
<metadata>
Created by ZoeQu, written in 2022
</metadata>
<rect width="296" height="368" fill="#A8D6DA"/>
<g id="col0" transform="translate(0, 12)">
<g id="0" transform="translate(0,0.0)scale(0.8,0.8)">

<path d="M213 841 c-51 -32 -139 -175 -162 -266 -6 -22 -11 -81 -11 -131 0 -81 3 -97 30 -150 39 -78 121 -162 191 -197 98 -48 145 -57 283 -57 145 -1 169 8 121 43 -103 76 -184 180 -274 357 -75 145 -90 202 -91 328 l0 92 -27 0 c-16 0 -42 -9 -60 -19z m-13 -156 c0 -72 20 -144 66 -240 74 -152 145 -261 202 -313 41 -36 18 -37 -70 -1 -68 27 -94 44 -145 96 -107 108 -143 213 -119 348 13 71 44 155 58 155 5 0 8 -20 8 -45z" transform="translate(0,92) scale(0.1,-0.1)" stroke="none" fill="#93822A"/>

</g>

<g id="1" transform="translate(0,92.0)scale(0.8,0.8)">

<path d="M213 841 c-51 -32 -139 -175 -162 -266 -6 -22 -11 -81 -11 -131 0 -81 3 -97 30 -150 39 -78 121 -162 191 -197 98 -48 145 -57 283 -57 145 -1 169 8 121 43 -103 76 -184 180 -274 357 -75 145 -90 202 -91 328 l0 92 -27 0 c-16 0 -42 -9 -60 -19z m-13 -156 c0 -72 20 -144 66 -240 74 -152 145 -261 202 -313 41 -36 18 -37 -70 -1 -68 27 -94 44 -145 96 -107 108 -143 213 -119 348 13 71 44 155 58 155 5 0 8 -20 8 -45z" transform="translate(0,92) scale(0.1,-0.1)" stroke="none" fill="#93822A"/>

</g>

<g id="2" transform="translate(0,184.0)scale(0.8,0.8)">

<path d="M213 841 c-51 -32 -139 -175 -162 -266 -6 -22 -11 -81 -11 -131 0 -81 3 -97 30 -150 39 -78 121 -162 191 -197 98 -48 145 -57 283 -57 145 -1 169 8 121 43 -103 76 -184 180 -274 357 -75 145 -90 202 -91 328 l0 92 -27 0 c-16 0 -42 -9 -60 -19z m-13 -156 c0 -72 20 -144 66 -240 74 -152 145 -261 202 -313 41 -36 18 -37 -70 -1 -68 27 -94 44 -145 96 -107 108 -143 213 -119 348 13 71 44 155 58 155 5 0 8 -20 8 -45z" transform="translate(0,92) scale(0.1,-0.1)" stroke="none" fill="#93822A"/>

</g>

<g id="3" transform="translate(0,276.0)scale(0.8,0.8)">

<path d="M213 841 c-51 -32 -139 -175 -162 -266 -6 -22 -11 -81 -11 -131 0 -81 3 -97 30 -150 39 -78 121 -162 191 -197 98 -48 145 -57 283 -57 145 -1 169 8 121 43 -103 76 -184 180 -274 357 -75 145 -90 202 -91 328 l0 92 -27 0 c-16 0 -42 -9 -60 -19z m-13 -156 c0 -72 20 -144 66 -240 74 -152 145 -261 202 -313 41 -36 18 -37 -70 -1 -68 27 -94 44 -145 96 -107 108 -143 213 -119 348 13 71 44 155 58 155 5 0 8 -20 8 -45z" transform="translate(0,92) scale(0.1,-0.1)" stroke="none" fill="#93822A"/>

</g>

<g id="4" transform="translate(0,368.0)scale(0.8,0.8)">

<path d="M213 841 c-51 -32 -139 -175 -162 -266 -6 -22 -11 -81 -11 -131 0 -81 3 -97 30 -150 39 -78 121 -162 191 -197 98 -48 145 -57 283 -57 145 -1 169 8 121 43 -103 76 -184 180 -274 357 -75 145 -90 202 -91 328 l0 92 -27 0 c-16 0 -42 -9 -60 -19z m-13 -156 c0 -72 20 -144 66 -240 74 -152 145 -261 202 -313 41 -36 18 -37 -70 -1 -68 27 -94 44 -145 96 -107 108 -143 213 -119 348 13 71 44 155 58 155 5 0 8 -20 8 -45z" transform="translate(0,92) scale(0.1,-0.1)" stroke="none" fill="#93822A"/>

</g>

</g>
<g id="col1" transform="translate(74, -34.0)">
<g id="0" transform="translate(0,0.0)scale(0.8,0.8)">

<path d="M213 841 c-51 -32 -139 -175 -162 -266 -6 -22 -11 -81 -11 -131 0 -81 3 -97 30 -150 39 -78 121 -162 191 -197 98 -48 145 -57 283 -57 145 -1 169 8 121 43 -103 76 -184 180 -274 357 -75 145 -90 202 -91 328 l0 92 -27 0 c-16 0 -42 -9 -60 -19z m-13 -156 c0 -72 20 -144 66 -240 74 -152 145 -261 202 -313 41 -36 18 -37 -70 -1 -68 27 -94 44 -145 96 -107 108 -143 213 -119 348 13 71 44 155 58 155 5 0 8 -20 8 -45z" transform="translate(0,92) scale(0.1,-0.1)" stroke="none" fill="#93822A"/>

</g>

<g id="1" transform="translate(0,92.0)scale(0.8,0.8)">

<path d="M213 841 c-51 -32 -139 -175 -162 -266 -6 -22 -11 -81 -11 -131 0 -81 3 -97 30 -150 39 -78 121 -162 191 -197 98 -48 145 -57 283 -57 145 -1 169 8 121 43 -103 76 -184 180 -274 357 -75 145 -90 202 -91 328 l0 92 -27 0 c-16 0 -42 -9 -60 -19z m-13 -156 c0 -72 20 -144 66 -240 74 -152 145 -261 202 -313 41 -36 18 -37 -70 -1 -68 27 -94 44 -145 96 -107 108 -143 213 -119 348 13 71 44 155 58 155 5 0 8 -20 8 -45z" transform="translate(0,92) scale(0.1,-0.1)" stroke="none" fill="#93822A"/>

</g>

<g id="2" transform="translate(0,184.0)scale(0.8,0.8)">

<path d="M213 841 c-51 -32 -139 -175 -162 -266 -6 -22 -11 -81 -11 -131 0 -81 3 -97 30 -150 39 -78 121 -162 191 -197 98 -48 145 -57 283 -57 145 -1 169 8 121 43 -103 76 -184 180 -274 357 -75 145 -90 202 -91 328 l0 92 -27 0 c-16 0 -42 -9 -60 -19z m-13 -156 c0 -72 20 -144 66 -240 74 -152 145 -261 202 -313 41 -36 18 -37 -70 -1 -68 27 -94 44 -145 96 -107 108 -143 213 -119 348 13 71 44 155 58 155 5 0 8 -20 8 -45z" transform="translate(0,92) scale(0.1,-0.1)" stroke="none" fill="#93822A"/>

</g>

<g id="3" transform="translate(0,276.0)scale(0.8,0.8)">

<path d="M213 841 c-51 -32 -139 -175 -162 -266 -6 -22 -11 -81 -11 -131 0 -81 3 -97 30 -150 39 -78 121 -162 191 -197 98 -48 145 -57 283 -57 145 -1 169 8 121 43 -103 76 -184 180 -274 357 -75 145 -90 202 -91 328 l0 92 -27 0 c-16 0 -42 -9 -60 -19z m-13 -156 c0 -72 20 -144 66 -240 74 -152 145 -261 202 -313 41 -36 18 -37 -70 -1 -68 27 -94 44 -145 96 -107 108 -143 213 -119 348 13 71 44 155 58 155 5 0 8 -20 8 -45z" transform="translate(0,92) scale(0.1,-0.1)" stroke="none" fill="#93822A"/>

</g>

<g id="4" transform="translate(0,368.0)scale(0.8,0.8)">

<path d="M213 841 c-51 -32 -139 -175 -162 -266 -6 -22 -11 -81 -11 -131 0 -81 3 -97 30 -150 39 -78 121 -162 191 -197 98 -48 145 -57 283 -57 145 -1 169 8 121 43 -103 76 -184 180 -274 357 -75 145 -90 202 -91 328 l0 92 -27 0 c-16 0 -42 -9 -60 -19z m-13 -156 c0 -72 20 -144 66 -240 74 -152 145 -261 202 -313 41 -36 18 -37 -70 -1 -68 27 -94 44 -145 96 -107 108 -143 213 -119 348 13 71 44 155 58 155 5 0 8 -20 8 -45z" transform="translate(0,92) scale(0.1,-0.1)" stroke="none" fill="#93822A"/>

</g>

</g>
<g id="col2" transform="translate(148, 12)">
<g id="0" transform="translate(0,0.0)scale(0.8,0.8)">

<path d="M213 841 c-51 -32 -139 -175 -162 -266 -6 -22 -11 -81 -11 -131 0 -81 3 -97 30 -150 39 -78 121 -162 191 -197 98 -48 145 -57 283 -57 145 -1 169 8 121 43 -103 76 -184 180 -274 357 -75 145 -90 202 -91 328 l0 92 -27 0 c-16 0 -42 -9 -60 -19z m-13 -156 c0 -72 20 -144 66 -240 74 -152 145 -261 202 -313 41 -36 18 -37 -70 -1 -68 27 -94 44 -145 96 -107 108 -143 213 -119 348 13 71 44 155 58 155 5 0 8 -20 8 -45z" transform="translate(0,92) scale(0.1,-0.1)" stroke="none" fill="#93822A"/>

</g>

<g id="1" transform="translate(0,92.0)scale(0.8,0.8)">

<path d="M213 841 c-51 -32 -139 -175 -162 -266 -6 -22 -11 -81 -11 -131 0 -81 3 -97 30 -150 39 -78 121 -162 191 -197 98 -48 145 -57 283 -57 145 -1 169 8 121 43 -103 76 -184 180 -274 357 -75 145 -90 202 -91 328 l0 92 -27 0 c-16 0 -42 -9 -60 -19z m-13 -156 c0 -72 20 -144 66 -240 74 -152 145 -261 202 -313 41 -36 18 -37 -70 -1 -68 27 -94 44 -145 96 -107 108 -143 213 -119 348 13 71 44 155 58 155 5 0 8 -20 8 -45z" transform="translate(0,92) scale(0.1,-0.1)" stroke="none" fill="#93822A"/>

</g>

<g id="2" transform="translate(0,184.0)scale(0.8,0.8)">

<path d="M213 841 c-51 -32 -139 -175 -162 -266 -6 -22 -11 -81 -11 -131 0 -81 3 -97 30 -150 39 -78 121 -162 191 -197 98 -48 145 -57 283 -57 145 -1 169 8 121 43 -103 76 -184 180 -274 357 -75 145 -90 202 -91 328 l0 92 -27 0 c-16 0 -42 -9 -60 -19z m-13 -156 c0 -72 20 -144 66 -240 74 -152 145 -261 202 -313 41 -36 18 -37 -70 -1 -68 27 -94 44 -145 96 -107 108 -143 213 -119 348 13 71 44 155 58 155 5 0 8 -20 8 -45z" transform="translate(0,92) scale(0.1,-0.1)" stroke="none" fill="#93822A"/>

</g>

<g id="3" transform="translate(0,276.0)scale(0.8,0.8)">

<path d="M213 841 c-51 -32 -139 -175 -162 -266 -6 -22 -11 -81 -11 -131 0 -81 3 -97 30 -150 39 -78 121 -162 191 -197 98 -48 145 -57 283 -57 145 -1 169 8 121 43 -103 76 -184 180 -274 357 -75 145 -90 202 -91 328 l0 92 -27 0 c-16 0 -42 -9 -60 -19z m-13 -156 c0 -72 20 -144 66 -240 74 -152 145 -261 202 -313 41 -36 18 -37 -70 -1 -68 27 -94 44 -145 96 -107 108 -143 213 -119 348 13 71 44 155 58 155 5 0 8 -20 8 -45z" transform="translate(0,92) scale(0.1,-0.1)" stroke="none" fill="#93822A"/>

</g>

<g id="4" transform="translate(0,368.0)scale(0.8,0.8)">

<path d="M213 841 c-51 -32 -139 -175 -162 -266 -6 -22 -11 -81 -11 -131 0 -81 3 -97 30 -150 39 -78 121 -162 191 -197 98 -48 145 -57 283 -57 145 -1 169 8 121 43 -103 76 -184 180 -274 357 -75 145 -90 202 -91 328 l0 92 -27 0 c-16 0 -42 -9 -60 -19z m-13 -156 c0 -72 20 -144 66 -240 74 -152 145 -261 202 -313 41 -36 18 -37 -70 -1 -68 27 -94 44 -145 96 -107 108 -143 213 -119 348 13 71 44 155 58 155 5 0 8 -20 8 -45z" transform="translate(0,92) scale(0.1,-0.1)" stroke="none" fill="#93822A"/>

</g>

</g>
<g id="col3" transform="translate(222, -34.0)">
<g id="0" transform="translate(0,0.0)scale(0.8,0.8)">

<path d="M213 841 c-51 -32 -139 -175 -162 -266 -6 -22 -11 -81 -11 -131 0 -81 3 -97 30 -150 39 -78 121 -162 191 -197 98 -48 145 -57 283 -57 145 -1 169 8 121 43 -103 76 -184 180 -274 357 -75 145 -90 202 -91 328 l0 92 -27 0 c-16 0 -42 -9 -60 -19z m-13 -156 c0 -72 20 -144 66 -240 74 -152 145 -261 202 -313 41 -36 18 -37 -70 -1 -68 27 -94 44 -145 96 -107 108 -143 213 -119 348 13 71 44 155 58 155 5 0 8 -20 8 -45z" transform="translate(0,92) scale(0.1,-0.1)" stroke="none" fill="#93822A"/>

</g>

<g id="1" transform="translate(0,92.0)scale(0.8,0.8)">

<path d="M213 841 c-51 -32 -139 -175 -162 -266 -6 -22 -11 -81 -11 -131 0 -81 3 -97 30 -150 39 -78 121 -162 191 -197 98 -48 145 -57 283 -57 145 -1 169 8 121 43 -103 76 -184 180 -274 357 -75 145 -90 202 -91 328 l0 92 -27 0 c-16 0 -42 -9 -60 -19z m-13 -156 c0 -72 20 -144 66 -240 74 -152 145 -261 202 -313 41 -36 18 -37 -70 -1 -68 27 -94 44 -145 96 -107 108 -143 213 -119 348 13 71 44 155 58 155 5 0 8 -20 8 -45z" transform="translate(0,92) scale(0.1,-0.1)" stroke="none" fill="#93822A"/>

</g>

<g id="2" transform="translate(0,184.0)scale(0.8,0.8)">

<path d="M213 841 c-51 -32 -139 -175 -162 -266 -6 -22 -11 -81 -11 -131 0 -81 3 -97 30 -150 39 -78 121 -162 191 -197 98 -48 145 -57 283 -57 145 -1 169 8 121 43 -103 76 -184 180 -274 357 -75 145 -90 202 -91 328 l0 92 -27 0 c-16 0 -42 -9 -60 -19z m-13 -156 c0 -72 20 -144 66 -240 74 -152 145 -261 202 -313 41 -36 18 -37 -70 -1 -68 27 -94 44 -145 96 -107 108 -143 213 -119 348 13 71 44 155 58 155 5 0 8 -20 8 -45z" transform="translate(0,92) scale(0.1,-0.1)" stroke="none" fill="#93822A"/>

</g>

<g id="3" transform="translate(0,276.0)scale(0.8,0.8)">

<path d="M213 841 c-51 -32 -139 -175 -162 -266 -6 -22 -11 -81 -11 -131 0 -81 3 -97 30 -150 39 -78 121 -162 191 -197 98 -48 145 -57 283 -57 145 -1 169 8 121 43 -103 76 -184 180 -274 357 -75 145 -90 202 -91 328 l0 92 -27 0 c-16 0 -42 -9 -60 -19z m-13 -156 c0 -72 20 -144 66 -240 74 -152 145 -261 202 -313 41 -36 18 -37 -70 -1 -68 27 -94 44 -145 96 -107 108 -143 213 -119 348 13 71 44 155 58 155 5 0 8 -20 8 -45z" transform="translate(0,92) scale(0.1,-0.1)" stroke="none" fill="#93822A"/>

</g>

<g id="4" transform="translate(0,368.0)scale(0.8,0.8)">

<path d="M213 841 c-51 -32 -139 -175 -162 -266 -6 -22 -11 -81 -11 -131 0 -81 3 -97 30 -150 39 -78 121 -162 191 -197 98 -48 145 -57 283 -57 145 -1 169 8 121 43 -103 76 -184 180 -274 357 -75 145 -90 202 -91 328 l0 92 -27 0 c-16 0 -42 -9 -60 -19z m-13 -156 c0 -72 20 -144 66 -240 74 -152 145 -261 202 -313 41 -36 18 -37 -70 -1 -68 27 -94 44 -145 96 -107 108 -143 213 -119 348 13 71 44 155 58 155 5 0 8 -20 8 -45z" transform="translate(0,92) scale(0.1,-0.1)" stroke="none" fill="#93822A"/>

</g>

</g>
</svg>