<?xml version="1.0" standalone="no"?>
<!DOCTYPE svg PUBLIC "-//W3C//DTD SVG 20010904//EN"
 "http://www.w3.org/TR/2001/REC-SVG-20010904/DTD/svg10.dtd">
<svg version="1.0" xmlns="http://www.w3.org/2000/svg" 
width="84.000000pt" height="86.000000pt" viewBox="0 0 84.000000 86.000000"
preserveAspectRatio = "xMidYMid meet" >
<metadata>
Created by ZoeQU, 2022
</metadata>
<rect width="84.000000" height="86.000000" fill="#A8D7DD"/>
<path d="M404 129 c10 -6 48 -13 85 -15 l66 -3 -60 8 c-33 4 -71 11 -85 15 -22 6 -23 6 -6 -5z" transform="translate(0.000000,86.000000) scale(0.100000,-0.100000)" stroke="none" fill="#6A8A4F"/>

<path d="M363 34 c7 -7 138 -7 145 1 3 3 -30 5 -73 5 -43 0 -76 -3 -72 -6z" transform="translate(0.000000,86.000000) scale(0.100000,-0.100000)" stroke="none" fill="#6A8A4F"/>

<path d="M363 293 c9 -14 117 -97 121 -92 1 2 -26 26 -62 53 -36 27 -62 44 -59 39z" transform="translate(0.000000,86.000000) scale(0.100000,-0.100000)" stroke="none" fill="#2A5417"/>

<path d="M778 193 c21 -8 13 -30 -17 -43 -16 -6 -38 -21 -48 -33 -20 -23 -12 -19 55 26 46 31 55 57 20 56 -13 0 -17 -3 -10 -6z" transform="translate(0.000000,86.000000) scale(0.100000,-0.100000)" stroke="none" fill="#6A8A4F"/>

<path d="M317 484 c24 -40 51 -72 98 -114 26 -23 19 -12 -20 31 -33 37 -68 77 -78 90 -17 23 -17 23 0 -7z" transform="translate(0.000000,86.000000) scale(0.100000,-0.100000)" stroke="none" fill="#6A8A4F"/>

<path d="M128 793 c-25 -16 -54 -61 -44 -70 2 -2 7 5 11 16 7 24 51 61 71 61 9 0 14 -11 14 -27 0 -16 5 -35 11 -43 7 -11 8 -4 3 25 -10 63 -18 67 -66 38z" transform="translate(0.000000,86.000000) scale(0.100000,-0.100000)" stroke="none" fill="#6A8A4F"/>

<path d="M492 313 c66 -55 160 -104 174 -91 2 3 -15 11 -38 18 -24 8 -69 33 -101 57 -64 48 -85 57 -35 16z" transform="translate(0.000000,86.000000) scale(0.100000,-0.100000)" stroke="none" fill="#6A8A4F"/>

<path d="M100 215 c0 -3 24 -31 52 -62 53 -55 117 -95 173 -106 29 -6 29 -6 5 4 -14 6 -47 21 -73 32 -30 13 -70 44 -103 80 -30 32 -54 55 -54 52z" transform="translate(0.000000,86.000000) scale(0.100000,-0.100000)" stroke="none" fill="#6A8A4F"/>

<path d="M121 474 c-2 -71 82 -234 142 -276 25 -17 22 -12 -13 24 -53 54 -86 116 -111 208 -10 36 -18 56 -18 44z" transform="translate(0.000000,86.000000) scale(0.100000,-0.100000)" stroke="none" fill="#6A8A4F"/>

<path d="M187 493 c24 -66 140 -196 225 -253 21 -14 17 -8 -12 16 -83 69 -165 160 -188 207 -23 47 -37 63 -25 30z" transform="translate(0.000000,86.000000) scale(0.100000,-0.100000)" stroke="none" fill="#6A8A4F"/>

<path d="M171 767 c-1 -22 88 -209 136 -285 33 -52 128 -152 145 -152 3 0 21 -12 40 -27 18 -15 26 -19 18 -9 -8 11 -28 27 -44 37 -46 28 -115 99 -151 155 -36 56 -130 246 -138 279 -4 17 -5 17 -6 2z" transform="translate(0.000000,86.000000) scale(0.100000,-0.100000)" stroke="none" fill="#2A5417"/>

<path d="M103 558 c12 -201 81 -331 217 -405 74 -40 146 -56 228 -48 94 8 112 13 112 29 0 14 -42 36 -69 36 -10 0 -35 7 -56 16 -20 8 -34 11 -31 6 3 -5 24 -14 48 -21 113 -34 112 -46 -5 -56 -82 -7 -132 2 -207 38 -135 63 -213 196 -227 390 -5 77 -4 87 11 87 9 0 16 -4 16 -9 0 -12 70 -161 75 -161 6 0 -4 24 -37 92 -15 32 -28 62 -28 67 0 10 -34 41 -45 41 -4 0 -5 -46 -2 -102z" transform="translate(0.000000,86.000000) scale(0.100000,-0.100000)" stroke="none" fill="#2A5417"/>

<path d="M131 784 c-28 -20 -64 -97 -81 -175 -23 -105 1 -287 51 -381 21 -38 102 -119 140 -139 134 -68 259 -67 430 5 19 8 41 21 48 29 6 8 25 20 41 27 46 19 34 50 -18 50 -25 0 -155 42 -172 55 -29 23 -44 26 -18 3 27 -23 156 -68 196 -68 31 0 36 -17 10 -31 -13 -6 -32 -19 -43 -29 -11 -9 -36 -22 -55 -29 -19 -7 -44 -17 -55 -21 -56 -23 -95 -30 -164 -30 -231 1 -374 154 -389 414 -8 148 38 294 100 321 18 8 26 14 18 15 -9 0 -26 -7 -39 -16z" transform="translate(0.000000,86.000000) scale(0.100000,-0.100000)" stroke="none" fill="#2A5417"/>

<path d="M136 779 c-22 -14 -59 -96 -76 -170 -24 -106 -5 -255 47 -368 74 -163 308 -239 498 -161 11 4 36 14 55 21 19 7 44 20 55 29 11 10 30 23 43 29 26 14 20 31 -11 31 -49 0 -164 45 -217 84 -30 23 -62 46 -71 51 -47 29 -105 87 -143 145 -60 90 -149 278 -143 301 6 21 -8 24 -37 8z m-4 -136 c10 -9 18 -20 18 -24 0 -15 73 -162 100 -202 71 -105 267 -247 340 -247 28 0 70 -21 70 -36 0 -16 -18 -21 -112 -29 -192 -17 -354 93 -418 285 -22 67 -41 270 -25 270 5 0 17 -7 27 -17z" transform="translate(0.000000,86.000000) scale(0.100000,-0.100000)" stroke="none" fill="#EB9C25"/>

</svg>