<?xml version="1.0" standalone="no"?>
<!DOCTYPE svg PUBLIC "-//W3C//DTD SVG 20010904//EN"
 "http://www.w3.org/TR/2001/REC-SVG-20010904/DTD/svg10.dtd">
<svg version="1.0" xmlns="http://www.w3.org/2000/svg" width="336pt" height="304pt" viewBox="0 0 336 304" preserveAspectRatio = "xMidYMid meet" >
<metadata>
Created by ZoeQu, written in 2022
</metadata>
<rect width="336" height="304" fill="#3B2B1F"/>
<g id="row0" transform="translate(11,0.0)">
<g id="0" transform="translate(0.0,0)scale(1,1)">

<path d="M41 226 c-1 -10 8 -51 20 -89 15 -50 31 -81 55 -105 19 -19 38 -31 42 -28 4 4 -2 12 -12 18 -36 20 -54 47 -69 99 -28 104 -35 124 -36 105z" transform="translate(0,76) scale(0.1,-0.1)" stroke="none" fill="#DF9359"/>

<path d="M339 615 c-25 -13 -71 -49 -102 -80 -72 -72 -114 -157 -121 -245 l-5 -65 13 70 c8 39 24 93 37 119 34 73 120 161 192 196 34 16 55 29 47 29 -8 0 -36 -11 -61 -24z" transform="translate(0,76) scale(0.1,-0.1)" stroke="none" fill="#DF9359"/>

<path d="M524 661 c15 -6 7 -15 -48 -50 -83 -54 -219 -197 -285 -298 -28 -43 -55 -84 -62 -91 -6 -7 -8 -16 -4 -20 8 -8 17 5 65 90 46 80 234 277 311 324 65 39 74 54 32 53 -23 0 -24 -2 -9 -8z" transform="translate(0,76) scale(0.1,-0.1)" stroke="none" fill="#DF9359"/>

<path d="M350 721 c-84 -22 -125 -44 -178 -95 -101 -96 -160 -233 -144 -336 6 -41 7 -37 12 41 4 69 11 97 38 151 65 133 154 203 294 232 92 19 160 20 265 4 63 -9 83 -16 105 -39 37 -36 35 -45 -9 -60 -65 -21 -160 -68 -184 -92 -13 -13 -40 -33 -60 -45 -60 -37 -165 -164 -260 -319 -11 -18 -27 -59 -35 -91 -16 -69 -16 -72 -5 -72 4 0 11 22 14 49 7 56 39 125 94 201 127 176 255 285 397 341 57 22 86 39 86 50 0 8 -15 29 -32 45 -25 24 -49 34 -99 42 -92 17 -222 13 -299 -7z" transform="translate(0,76) scale(0.1,-0.1)" stroke="none" fill="#DF9359"/>

<path d="M365 713 c-133 -28 -223 -100 -287 -231 -44 -89 -49 -176 -18 -299 28 -108 41 -135 74 -153 14 -7 26 -17 26 -22 0 -4 4 -8 9 -8 5 0 15 26 22 58 15 70 18 75 90 185 73 110 160 210 208 239 20 12 47 32 60 45 24 24 119 71 184 92 44 15 46 24 9 60 -47 48 -234 65 -377 34z m195 -52 c0 -5 -27 -26 -59 -45 -77 -47 -265 -244 -311 -324 -67 -119 -76 -120 -73 -9 2 56 8 83 33 133 36 73 124 166 189 198 79 39 221 69 221 47z" transform="translate(0,76) scale(0.1,-0.1)" stroke="none" fill="#845735"/>

</g>

<g id="1" transform="translate(84.0,0)scale(1,1)">

<path d="M41 226 c-1 -10 8 -51 20 -89 15 -50 31 -81 55 -105 19 -19 38 -31 42 -28 4 4 -2 12 -12 18 -36 20 -54 47 -69 99 -28 104 -35 124 -36 105z" transform="translate(0,76) scale(0.1,-0.1)" stroke="none" fill="#DF9359"/>

<path d="M339 615 c-25 -13 -71 -49 -102 -80 -72 -72 -114 -157 -121 -245 l-5 -65 13 70 c8 39 24 93 37 119 34 73 120 161 192 196 34 16 55 29 47 29 -8 0 -36 -11 -61 -24z" transform="translate(0,76) scale(0.1,-0.1)" stroke="none" fill="#DF9359"/>

<path d="M524 661 c15 -6 7 -15 -48 -50 -83 -54 -219 -197 -285 -298 -28 -43 -55 -84 -62 -91 -6 -7 -8 -16 -4 -20 8 -8 17 5 65 90 46 80 234 277 311 324 65 39 74 54 32 53 -23 0 -24 -2 -9 -8z" transform="translate(0,76) scale(0.1,-0.1)" stroke="none" fill="#DF9359"/>

<path d="M350 721 c-84 -22 -125 -44 -178 -95 -101 -96 -160 -233 -144 -336 6 -41 7 -37 12 41 4 69 11 97 38 151 65 133 154 203 294 232 92 19 160 20 265 4 63 -9 83 -16 105 -39 37 -36 35 -45 -9 -60 -65 -21 -160 -68 -184 -92 -13 -13 -40 -33 -60 -45 -60 -37 -165 -164 -260 -319 -11 -18 -27 -59 -35 -91 -16 -69 -16 -72 -5 -72 4 0 11 22 14 49 7 56 39 125 94 201 127 176 255 285 397 341 57 22 86 39 86 50 0 8 -15 29 -32 45 -25 24 -49 34 -99 42 -92 17 -222 13 -299 -7z" transform="translate(0,76) scale(0.1,-0.1)" stroke="none" fill="#DF9359"/>

<path d="M365 713 c-133 -28 -223 -100 -287 -231 -44 -89 -49 -176 -18 -299 28 -108 41 -135 74 -153 14 -7 26 -17 26 -22 0 -4 4 -8 9 -8 5 0 15 26 22 58 15 70 18 75 90 185 73 110 160 210 208 239 20 12 47 32 60 45 24 24 119 71 184 92 44 15 46 24 9 60 -47 48 -234 65 -377 34z m195 -52 c0 -5 -27 -26 -59 -45 -77 -47 -265 -244 -311 -324 -67 -119 -76 -120 -73 -9 2 56 8 83 33 133 36 73 124 166 189 198 79 39 221 69 221 47z" transform="translate(0,76) scale(0.1,-0.1)" stroke="none" fill="#845735"/>

</g>

<g id="2" transform="translate(168.0,0)scale(1,1)">

<path d="M41 226 c-1 -10 8 -51 20 -89 15 -50 31 -81 55 -105 19 -19 38 -31 42 -28 4 4 -2 12 -12 18 -36 20 -54 47 -69 99 -28 104 -35 124 -36 105z" transform="translate(0,76) scale(0.1,-0.1)" stroke="none" fill="#DF9359"/>

<path d="M339 615 c-25 -13 -71 -49 -102 -80 -72 -72 -114 -157 -121 -245 l-5 -65 13 70 c8 39 24 93 37 119 34 73 120 161 192 196 34 16 55 29 47 29 -8 0 -36 -11 -61 -24z" transform="translate(0,76) scale(0.1,-0.1)" stroke="none" fill="#DF9359"/>

<path d="M524 661 c15 -6 7 -15 -48 -50 -83 -54 -219 -197 -285 -298 -28 -43 -55 -84 -62 -91 -6 -7 -8 -16 -4 -20 8 -8 17 5 65 90 46 80 234 277 311 324 65 39 74 54 32 53 -23 0 -24 -2 -9 -8z" transform="translate(0,76) scale(0.1,-0.1)" stroke="none" fill="#DF9359"/>

<path d="M350 721 c-84 -22 -125 -44 -178 -95 -101 -96 -160 -233 -144 -336 6 -41 7 -37 12 41 4 69 11 97 38 151 65 133 154 203 294 232 92 19 160 20 265 4 63 -9 83 -16 105 -39 37 -36 35 -45 -9 -60 -65 -21 -160 -68 -184 -92 -13 -13 -40 -33 -60 -45 -60 -37 -165 -164 -260 -319 -11 -18 -27 -59 -35 -91 -16 -69 -16 -72 -5 -72 4 0 11 22 14 49 7 56 39 125 94 201 127 176 255 285 397 341 57 22 86 39 86 50 0 8 -15 29 -32 45 -25 24 -49 34 -99 42 -92 17 -222 13 -299 -7z" transform="translate(0,76) scale(0.1,-0.1)" stroke="none" fill="#DF9359"/>

<path d="M365 713 c-133 -28 -223 -100 -287 -231 -44 -89 -49 -176 -18 -299 28 -108 41 -135 74 -153 14 -7 26 -17 26 -22 0 -4 4 -8 9 -8 5 0 15 26 22 58 15 70 18 75 90 185 73 110 160 210 208 239 20 12 47 32 60 45 24 24 119 71 184 92 44 15 46 24 9 60 -47 48 -234 65 -377 34z m195 -52 c0 -5 -27 -26 -59 -45 -77 -47 -265 -244 -311 -324 -67 -119 -76 -120 -73 -9 2 56 8 83 33 133 36 73 124 166 189 198 79 39 221 69 221 47z" transform="translate(0,76) scale(0.1,-0.1)" stroke="none" fill="#845735"/>

</g>

<g id="3" transform="translate(252.0,0)scale(1,1)">

<path d="M41 226 c-1 -10 8 -51 20 -89 15 -50 31 -81 55 -105 19 -19 38 -31 42 -28 4 4 -2 12 -12 18 -36 20 -54 47 -69 99 -28 104 -35 124 -36 105z" transform="translate(0,76) scale(0.1,-0.1)" stroke="none" fill="#DF9359"/>

<path d="M339 615 c-25 -13 -71 -49 -102 -80 -72 -72 -114 -157 -121 -245 l-5 -65 13 70 c8 39 24 93 37 119 34 73 120 161 192 196 34 16 55 29 47 29 -8 0 -36 -11 -61 -24z" transform="translate(0,76) scale(0.1,-0.1)" stroke="none" fill="#DF9359"/>

<path d="M524 661 c15 -6 7 -15 -48 -50 -83 -54 -219 -197 -285 -298 -28 -43 -55 -84 -62 -91 -6 -7 -8 -16 -4 -20 8 -8 17 5 65 90 46 80 234 277 311 324 65 39 74 54 32 53 -23 0 -24 -2 -9 -8z" transform="translate(0,76) scale(0.1,-0.1)" stroke="none" fill="#DF9359"/>

<path d="M350 721 c-84 -22 -125 -44 -178 -95 -101 -96 -160 -233 -144 -336 6 -41 7 -37 12 41 4 69 11 97 38 151 65 133 154 203 294 232 92 19 160 20 265 4 63 -9 83 -16 105 -39 37 -36 35 -45 -9 -60 -65 -21 -160 -68 -184 -92 -13 -13 -40 -33 -60 -45 -60 -37 -165 -164 -260 -319 -11 -18 -27 -59 -35 -91 -16 -69 -16 -72 -5 -72 4 0 11 22 14 49 7 56 39 125 94 201 127 176 255 285 397 341 57 22 86 39 86 50 0 8 -15 29 -32 45 -25 24 -49 34 -99 42 -92 17 -222 13 -299 -7z" transform="translate(0,76) scale(0.1,-0.1)" stroke="none" fill="#DF9359"/>

<path d="M365 713 c-133 -28 -223 -100 -287 -231 -44 -89 -49 -176 -18 -299 28 -108 41 -135 74 -153 14 -7 26 -17 26 -22 0 -4 4 -8 9 -8 5 0 15 26 22 58 15 70 18 75 90 185 73 110 160 210 208 239 20 12 47 32 60 45 24 24 119 71 184 92 44 15 46 24 9 60 -47 48 -234 65 -377 34z m195 -52 c0 -5 -27 -26 -59 -45 -77 -47 -265 -244 -311 -324 -67 -119 -76 -120 -73 -9 2 56 8 83 33 133 36 73 124 166 189 198 79 39 221 69 221 47z" transform="translate(0,76) scale(0.1,-0.1)" stroke="none" fill="#845735"/>

</g>

<g id="4" transform="translate(336.0,0)scale(1,1)">

<path d="M41 226 c-1 -10 8 -51 20 -89 15 -50 31 -81 55 -105 19 -19 38 -31 42 -28 4 4 -2 12 -12 18 -36 20 -54 47 -69 99 -28 104 -35 124 -36 105z" transform="translate(0,76) scale(0.1,-0.1)" stroke="none" fill="#DF9359"/>

<path d="M339 615 c-25 -13 -71 -49 -102 -80 -72 -72 -114 -157 -121 -245 l-5 -65 13 70 c8 39 24 93 37 119 34 73 120 161 192 196 34 16 55 29 47 29 -8 0 -36 -11 -61 -24z" transform="translate(0,76) scale(0.1,-0.1)" stroke="none" fill="#DF9359"/>

<path d="M524 661 c15 -6 7 -15 -48 -50 -83 -54 -219 -197 -285 -298 -28 -43 -55 -84 -62 -91 -6 -7 -8 -16 -4 -20 8 -8 17 5 65 90 46 80 234 277 311 324 65 39 74 54 32 53 -23 0 -24 -2 -9 -8z" transform="translate(0,76) scale(0.1,-0.1)" stroke="none" fill="#DF9359"/>

<path d="M350 721 c-84 -22 -125 -44 -178 -95 -101 -96 -160 -233 -144 -336 6 -41 7 -37 12 41 4 69 11 97 38 151 65 133 154 203 294 232 92 19 160 20 265 4 63 -9 83 -16 105 -39 37 -36 35 -45 -9 -60 -65 -21 -160 -68 -184 -92 -13 -13 -40 -33 -60 -45 -60 -37 -165 -164 -260 -319 -11 -18 -27 -59 -35 -91 -16 -69 -16 -72 -5 -72 4 0 11 22 14 49 7 56 39 125 94 201 127 176 255 285 397 341 57 22 86 39 86 50 0 8 -15 29 -32 45 -25 24 -49 34 -99 42 -92 17 -222 13 -299 -7z" transform="translate(0,76) scale(0.1,-0.1)" stroke="none" fill="#DF9359"/>

<path d="M365 713 c-133 -28 -223 -100 -287 -231 -44 -89 -49 -176 -18 -299 28 -108 41 -135 74 -153 14 -7 26 -17 26 -22 0 -4 4 -8 9 -8 5 0 15 26 22 58 15 70 18 75 90 185 73 110 160 210 208 239 20 12 47 32 60 45 24 24 119 71 184 92 44 15 46 24 9 60 -47 48 -234 65 -377 34z m195 -52 c0 -5 -27 -26 -59 -45 -77 -47 -265 -244 -311 -324 -67 -119 -76 -120 -73 -9 2 56 8 83 33 133 36 73 124 166 189 198 79 39 221 69 221 47z" transform="translate(0,76) scale(0.1,-0.1)" stroke="none" fill="#845735"/>

</g>

</g>
<g id="row1" transform="translate(-31,76.0)">
<g id="0" transform="translate(0.0,0)scale(1,1)">

<path d="M41 226 c-1 -10 8 -51 20 -89 15 -50 31 -81 55 -105 19 -19 38 -31 42 -28 4 4 -2 12 -12 18 -36 20 -54 47 -69 99 -28 104 -35 124 -36 105z" transform="translate(0,76) scale(0.1,-0.1)" stroke="none" fill="#DF9359"/>

<path d="M339 615 c-25 -13 -71 -49 -102 -80 -72 -72 -114 -157 -121 -245 l-5 -65 13 70 c8 39 24 93 37 119 34 73 120 161 192 196 34 16 55 29 47 29 -8 0 -36 -11 -61 -24z" transform="translate(0,76) scale(0.1,-0.1)" stroke="none" fill="#DF9359"/>

<path d="M524 661 c15 -6 7 -15 -48 -50 -83 -54 -219 -197 -285 -298 -28 -43 -55 -84 -62 -91 -6 -7 -8 -16 -4 -20 8 -8 17 5 65 90 46 80 234 277 311 324 65 39 74 54 32 53 -23 0 -24 -2 -9 -8z" transform="translate(0,76) scale(0.1,-0.1)" stroke="none" fill="#DF9359"/>

<path d="M350 721 c-84 -22 -125 -44 -178 -95 -101 -96 -160 -233 -144 -336 6 -41 7 -37 12 41 4 69 11 97 38 151 65 133 154 203 294 232 92 19 160 20 265 4 63 -9 83 -16 105 -39 37 -36 35 -45 -9 -60 -65 -21 -160 -68 -184 -92 -13 -13 -40 -33 -60 -45 -60 -37 -165 -164 -260 -319 -11 -18 -27 -59 -35 -91 -16 -69 -16 -72 -5 -72 4 0 11 22 14 49 7 56 39 125 94 201 127 176 255 285 397 341 57 22 86 39 86 50 0 8 -15 29 -32 45 -25 24 -49 34 -99 42 -92 17 -222 13 -299 -7z" transform="translate(0,76) scale(0.1,-0.1)" stroke="none" fill="#DF9359"/>

<path d="M365 713 c-133 -28 -223 -100 -287 -231 -44 -89 -49 -176 -18 -299 28 -108 41 -135 74 -153 14 -7 26 -17 26 -22 0 -4 4 -8 9 -8 5 0 15 26 22 58 15 70 18 75 90 185 73 110 160 210 208 239 20 12 47 32 60 45 24 24 119 71 184 92 44 15 46 24 9 60 -47 48 -234 65 -377 34z m195 -52 c0 -5 -27 -26 -59 -45 -77 -47 -265 -244 -311 -324 -67 -119 -76 -120 -73 -9 2 56 8 83 33 133 36 73 124 166 189 198 79 39 221 69 221 47z" transform="translate(0,76) scale(0.1,-0.1)" stroke="none" fill="#845735"/>

</g>

<g id="1" transform="translate(84.0,0)scale(1,1)">

<path d="M41 226 c-1 -10 8 -51 20 -89 15 -50 31 -81 55 -105 19 -19 38 -31 42 -28 4 4 -2 12 -12 18 -36 20 -54 47 -69 99 -28 104 -35 124 -36 105z" transform="translate(0,76) scale(0.1,-0.1)" stroke="none" fill="#DF9359"/>

<path d="M339 615 c-25 -13 -71 -49 -102 -80 -72 -72 -114 -157 -121 -245 l-5 -65 13 70 c8 39 24 93 37 119 34 73 120 161 192 196 34 16 55 29 47 29 -8 0 -36 -11 -61 -24z" transform="translate(0,76) scale(0.1,-0.1)" stroke="none" fill="#DF9359"/>

<path d="M524 661 c15 -6 7 -15 -48 -50 -83 -54 -219 -197 -285 -298 -28 -43 -55 -84 -62 -91 -6 -7 -8 -16 -4 -20 8 -8 17 5 65 90 46 80 234 277 311 324 65 39 74 54 32 53 -23 0 -24 -2 -9 -8z" transform="translate(0,76) scale(0.1,-0.1)" stroke="none" fill="#DF9359"/>

<path d="M350 721 c-84 -22 -125 -44 -178 -95 -101 -96 -160 -233 -144 -336 6 -41 7 -37 12 41 4 69 11 97 38 151 65 133 154 203 294 232 92 19 160 20 265 4 63 -9 83 -16 105 -39 37 -36 35 -45 -9 -60 -65 -21 -160 -68 -184 -92 -13 -13 -40 -33 -60 -45 -60 -37 -165 -164 -260 -319 -11 -18 -27 -59 -35 -91 -16 -69 -16 -72 -5 -72 4 0 11 22 14 49 7 56 39 125 94 201 127 176 255 285 397 341 57 22 86 39 86 50 0 8 -15 29 -32 45 -25 24 -49 34 -99 42 -92 17 -222 13 -299 -7z" transform="translate(0,76) scale(0.1,-0.1)" stroke="none" fill="#DF9359"/>

<path d="M365 713 c-133 -28 -223 -100 -287 -231 -44 -89 -49 -176 -18 -299 28 -108 41 -135 74 -153 14 -7 26 -17 26 -22 0 -4 4 -8 9 -8 5 0 15 26 22 58 15 70 18 75 90 185 73 110 160 210 208 239 20 12 47 32 60 45 24 24 119 71 184 92 44 15 46 24 9 60 -47 48 -234 65 -377 34z m195 -52 c0 -5 -27 -26 -59 -45 -77 -47 -265 -244 -311 -324 -67 -119 -76 -120 -73 -9 2 56 8 83 33 133 36 73 124 166 189 198 79 39 221 69 221 47z" transform="translate(0,76) scale(0.1,-0.1)" stroke="none" fill="#845735"/>

</g>

<g id="2" transform="translate(168.0,0)scale(1,1)">

<path d="M41 226 c-1 -10 8 -51 20 -89 15 -50 31 -81 55 -105 19 -19 38 -31 42 -28 4 4 -2 12 -12 18 -36 20 -54 47 -69 99 -28 104 -35 124 -36 105z" transform="translate(0,76) scale(0.1,-0.1)" stroke="none" fill="#DF9359"/>

<path d="M339 615 c-25 -13 -71 -49 -102 -80 -72 -72 -114 -157 -121 -245 l-5 -65 13 70 c8 39 24 93 37 119 34 73 120 161 192 196 34 16 55 29 47 29 -8 0 -36 -11 -61 -24z" transform="translate(0,76) scale(0.1,-0.1)" stroke="none" fill="#DF9359"/>

<path d="M524 661 c15 -6 7 -15 -48 -50 -83 -54 -219 -197 -285 -298 -28 -43 -55 -84 -62 -91 -6 -7 -8 -16 -4 -20 8 -8 17 5 65 90 46 80 234 277 311 324 65 39 74 54 32 53 -23 0 -24 -2 -9 -8z" transform="translate(0,76) scale(0.1,-0.1)" stroke="none" fill="#DF9359"/>

<path d="M350 721 c-84 -22 -125 -44 -178 -95 -101 -96 -160 -233 -144 -336 6 -41 7 -37 12 41 4 69 11 97 38 151 65 133 154 203 294 232 92 19 160 20 265 4 63 -9 83 -16 105 -39 37 -36 35 -45 -9 -60 -65 -21 -160 -68 -184 -92 -13 -13 -40 -33 -60 -45 -60 -37 -165 -164 -260 -319 -11 -18 -27 -59 -35 -91 -16 -69 -16 -72 -5 -72 4 0 11 22 14 49 7 56 39 125 94 201 127 176 255 285 397 341 57 22 86 39 86 50 0 8 -15 29 -32 45 -25 24 -49 34 -99 42 -92 17 -222 13 -299 -7z" transform="translate(0,76) scale(0.1,-0.1)" stroke="none" fill="#DF9359"/>

<path d="M365 713 c-133 -28 -223 -100 -287 -231 -44 -89 -49 -176 -18 -299 28 -108 41 -135 74 -153 14 -7 26 -17 26 -22 0 -4 4 -8 9 -8 5 0 15 26 22 58 15 70 18 75 90 185 73 110 160 210 208 239 20 12 47 32 60 45 24 24 119 71 184 92 44 15 46 24 9 60 -47 48 -234 65 -377 34z m195 -52 c0 -5 -27 -26 -59 -45 -77 -47 -265 -244 -311 -324 -67 -119 -76 -120 -73 -9 2 56 8 83 33 133 36 73 124 166 189 198 79 39 221 69 221 47z" transform="translate(0,76) scale(0.1,-0.1)" stroke="none" fill="#845735"/>

</g>

<g id="3" transform="translate(252.0,0)scale(1,1)">

<path d="M41 226 c-1 -10 8 -51 20 -89 15 -50 31 -81 55 -105 19 -19 38 -31 42 -28 4 4 -2 12 -12 18 -36 20 -54 47 -69 99 -28 104 -35 124 -36 105z" transform="translate(0,76) scale(0.1,-0.1)" stroke="none" fill="#DF9359"/>

<path d="M339 615 c-25 -13 -71 -49 -102 -80 -72 -72 -114 -157 -121 -245 l-5 -65 13 70 c8 39 24 93 37 119 34 73 120 161 192 196 34 16 55 29 47 29 -8 0 -36 -11 -61 -24z" transform="translate(0,76) scale(0.1,-0.1)" stroke="none" fill="#DF9359"/>

<path d="M524 661 c15 -6 7 -15 -48 -50 -83 -54 -219 -197 -285 -298 -28 -43 -55 -84 -62 -91 -6 -7 -8 -16 -4 -20 8 -8 17 5 65 90 46 80 234 277 311 324 65 39 74 54 32 53 -23 0 -24 -2 -9 -8z" transform="translate(0,76) scale(0.1,-0.1)" stroke="none" fill="#DF9359"/>

<path d="M350 721 c-84 -22 -125 -44 -178 -95 -101 -96 -160 -233 -144 -336 6 -41 7 -37 12 41 4 69 11 97 38 151 65 133 154 203 294 232 92 19 160 20 265 4 63 -9 83 -16 105 -39 37 -36 35 -45 -9 -60 -65 -21 -160 -68 -184 -92 -13 -13 -40 -33 -60 -45 -60 -37 -165 -164 -260 -319 -11 -18 -27 -59 -35 -91 -16 -69 -16 -72 -5 -72 4 0 11 22 14 49 7 56 39 125 94 201 127 176 255 285 397 341 57 22 86 39 86 50 0 8 -15 29 -32 45 -25 24 -49 34 -99 42 -92 17 -222 13 -299 -7z" transform="translate(0,76) scale(0.1,-0.1)" stroke="none" fill="#DF9359"/>

<path d="M365 713 c-133 -28 -223 -100 -287 -231 -44 -89 -49 -176 -18 -299 28 -108 41 -135 74 -153 14 -7 26 -17 26 -22 0 -4 4 -8 9 -8 5 0 15 26 22 58 15 70 18 75 90 185 73 110 160 210 208 239 20 12 47 32 60 45 24 24 119 71 184 92 44 15 46 24 9 60 -47 48 -234 65 -377 34z m195 -52 c0 -5 -27 -26 -59 -45 -77 -47 -265 -244 -311 -324 -67 -119 -76 -120 -73 -9 2 56 8 83 33 133 36 73 124 166 189 198 79 39 221 69 221 47z" transform="translate(0,76) scale(0.1,-0.1)" stroke="none" fill="#845735"/>

</g>

<g id="4" transform="translate(336.0,0)scale(1,1)">

<path d="M41 226 c-1 -10 8 -51 20 -89 15 -50 31 -81 55 -105 19 -19 38 -31 42 -28 4 4 -2 12 -12 18 -36 20 -54 47 -69 99 -28 104 -35 124 -36 105z" transform="translate(0,76) scale(0.1,-0.1)" stroke="none" fill="#DF9359"/>

<path d="M339 615 c-25 -13 -71 -49 -102 -80 -72 -72 -114 -157 -121 -245 l-5 -65 13 70 c8 39 24 93 37 119 34 73 120 161 192 196 34 16 55 29 47 29 -8 0 -36 -11 -61 -24z" transform="translate(0,76) scale(0.1,-0.1)" stroke="none" fill="#DF9359"/>

<path d="M524 661 c15 -6 7 -15 -48 -50 -83 -54 -219 -197 -285 -298 -28 -43 -55 -84 -62 -91 -6 -7 -8 -16 -4 -20 8 -8 17 5 65 90 46 80 234 277 311 324 65 39 74 54 32 53 -23 0 -24 -2 -9 -8z" transform="translate(0,76) scale(0.1,-0.1)" stroke="none" fill="#DF9359"/>

<path d="M350 721 c-84 -22 -125 -44 -178 -95 -101 -96 -160 -233 -144 -336 6 -41 7 -37 12 41 4 69 11 97 38 151 65 133 154 203 294 232 92 19 160 20 265 4 63 -9 83 -16 105 -39 37 -36 35 -45 -9 -60 -65 -21 -160 -68 -184 -92 -13 -13 -40 -33 -60 -45 -60 -37 -165 -164 -260 -319 -11 -18 -27 -59 -35 -91 -16 -69 -16 -72 -5 -72 4 0 11 22 14 49 7 56 39 125 94 201 127 176 255 285 397 341 57 22 86 39 86 50 0 8 -15 29 -32 45 -25 24 -49 34 -99 42 -92 17 -222 13 -299 -7z" transform="translate(0,76) scale(0.1,-0.1)" stroke="none" fill="#DF9359"/>

<path d="M365 713 c-133 -28 -223 -100 -287 -231 -44 -89 -49 -176 -18 -299 28 -108 41 -135 74 -153 14 -7 26 -17 26 -22 0 -4 4 -8 9 -8 5 0 15 26 22 58 15 70 18 75 90 185 73 110 160 210 208 239 20 12 47 32 60 45 24 24 119 71 184 92 44 15 46 24 9 60 -47 48 -234 65 -377 34z m195 -52 c0 -5 -27 -26 -59 -45 -77 -47 -265 -244 -311 -324 -67 -119 -76 -120 -73 -9 2 56 8 83 33 133 36 73 124 166 189 198 79 39 221 69 221 47z" transform="translate(0,76) scale(0.1,-0.1)" stroke="none" fill="#845735"/>

</g>

</g>
<g id="row2" transform="translate(11,152.0)">
<g id="0" transform="translate(0.0,0)scale(1,1)">

<path d="M41 226 c-1 -10 8 -51 20 -89 15 -50 31 -81 55 -105 19 -19 38 -31 42 -28 4 4 -2 12 -12 18 -36 20 -54 47 -69 99 -28 104 -35 124 -36 105z" transform="translate(0,76) scale(0.1,-0.1)" stroke="none" fill="#DF9359"/>

<path d="M339 615 c-25 -13 -71 -49 -102 -80 -72 -72 -114 -157 -121 -245 l-5 -65 13 70 c8 39 24 93 37 119 34 73 120 161 192 196 34 16 55 29 47 29 -8 0 -36 -11 -61 -24z" transform="translate(0,76) scale(0.1,-0.1)" stroke="none" fill="#DF9359"/>

<path d="M524 661 c15 -6 7 -15 -48 -50 -83 -54 -219 -197 -285 -298 -28 -43 -55 -84 -62 -91 -6 -7 -8 -16 -4 -20 8 -8 17 5 65 90 46 80 234 277 311 324 65 39 74 54 32 53 -23 0 -24 -2 -9 -8z" transform="translate(0,76) scale(0.1,-0.1)" stroke="none" fill="#DF9359"/>

<path d="M350 721 c-84 -22 -125 -44 -178 -95 -101 -96 -160 -233 -144 -336 6 -41 7 -37 12 41 4 69 11 97 38 151 65 133 154 203 294 232 92 19 160 20 265 4 63 -9 83 -16 105 -39 37 -36 35 -45 -9 -60 -65 -21 -160 -68 -184 -92 -13 -13 -40 -33 -60 -45 -60 -37 -165 -164 -260 -319 -11 -18 -27 -59 -35 -91 -16 -69 -16 -72 -5 -72 4 0 11 22 14 49 7 56 39 125 94 201 127 176 255 285 397 341 57 22 86 39 86 50 0 8 -15 29 -32 45 -25 24 -49 34 -99 42 -92 17 -222 13 -299 -7z" transform="translate(0,76) scale(0.1,-0.1)" stroke="none" fill="#DF9359"/>

<path d="M365 713 c-133 -28 -223 -100 -287 -231 -44 -89 -49 -176 -18 -299 28 -108 41 -135 74 -153 14 -7 26 -17 26 -22 0 -4 4 -8 9 -8 5 0 15 26 22 58 15 70 18 75 90 185 73 110 160 210 208 239 20 12 47 32 60 45 24 24 119 71 184 92 44 15 46 24 9 60 -47 48 -234 65 -377 34z m195 -52 c0 -5 -27 -26 -59 -45 -77 -47 -265 -244 -311 -324 -67 -119 -76 -120 -73 -9 2 56 8 83 33 133 36 73 124 166 189 198 79 39 221 69 221 47z" transform="translate(0,76) scale(0.1,-0.1)" stroke="none" fill="#845735"/>

</g>

<g id="1" transform="translate(84.0,0)scale(1,1)">

<path d="M41 226 c-1 -10 8 -51 20 -89 15 -50 31 -81 55 -105 19 -19 38 -31 42 -28 4 4 -2 12 -12 18 -36 20 -54 47 -69 99 -28 104 -35 124 -36 105z" transform="translate(0,76) scale(0.1,-0.1)" stroke="none" fill="#DF9359"/>

<path d="M339 615 c-25 -13 -71 -49 -102 -80 -72 -72 -114 -157 -121 -245 l-5 -65 13 70 c8 39 24 93 37 119 34 73 120 161 192 196 34 16 55 29 47 29 -8 0 -36 -11 -61 -24z" transform="translate(0,76) scale(0.1,-0.1)" stroke="none" fill="#DF9359"/>

<path d="M524 661 c15 -6 7 -15 -48 -50 -83 -54 -219 -197 -285 -298 -28 -43 -55 -84 -62 -91 -6 -7 -8 -16 -4 -20 8 -8 17 5 65 90 46 80 234 277 311 324 65 39 74 54 32 53 -23 0 -24 -2 -9 -8z" transform="translate(0,76) scale(0.1,-0.1)" stroke="none" fill="#DF9359"/>

<path d="M350 721 c-84 -22 -125 -44 -178 -95 -101 -96 -160 -233 -144 -336 6 -41 7 -37 12 41 4 69 11 97 38 151 65 133 154 203 294 232 92 19 160 20 265 4 63 -9 83 -16 105 -39 37 -36 35 -45 -9 -60 -65 -21 -160 -68 -184 -92 -13 -13 -40 -33 -60 -45 -60 -37 -165 -164 -260 -319 -11 -18 -27 -59 -35 -91 -16 -69 -16 -72 -5 -72 4 0 11 22 14 49 7 56 39 125 94 201 127 176 255 285 397 341 57 22 86 39 86 50 0 8 -15 29 -32 45 -25 24 -49 34 -99 42 -92 17 -222 13 -299 -7z" transform="translate(0,76) scale(0.1,-0.1)" stroke="none" fill="#DF9359"/>

<path d="M365 713 c-133 -28 -223 -100 -287 -231 -44 -89 -49 -176 -18 -299 28 -108 41 -135 74 -153 14 -7 26 -17 26 -22 0 -4 4 -8 9 -8 5 0 15 26 22 58 15 70 18 75 90 185 73 110 160 210 208 239 20 12 47 32 60 45 24 24 119 71 184 92 44 15 46 24 9 60 -47 48 -234 65 -377 34z m195 -52 c0 -5 -27 -26 -59 -45 -77 -47 -265 -244 -311 -324 -67 -119 -76 -120 -73 -9 2 56 8 83 33 133 36 73 124 166 189 198 79 39 221 69 221 47z" transform="translate(0,76) scale(0.1,-0.1)" stroke="none" fill="#845735"/>

</g>

<g id="2" transform="translate(168.0,0)scale(1,1)">

<path d="M41 226 c-1 -10 8 -51 20 -89 15 -50 31 -81 55 -105 19 -19 38 -31 42 -28 4 4 -2 12 -12 18 -36 20 -54 47 -69 99 -28 104 -35 124 -36 105z" transform="translate(0,76) scale(0.1,-0.1)" stroke="none" fill="#DF9359"/>

<path d="M339 615 c-25 -13 -71 -49 -102 -80 -72 -72 -114 -157 -121 -245 l-5 -65 13 70 c8 39 24 93 37 119 34 73 120 161 192 196 34 16 55 29 47 29 -8 0 -36 -11 -61 -24z" transform="translate(0,76) scale(0.1,-0.1)" stroke="none" fill="#DF9359"/>

<path d="M524 661 c15 -6 7 -15 -48 -50 -83 -54 -219 -197 -285 -298 -28 -43 -55 -84 -62 -91 -6 -7 -8 -16 -4 -20 8 -8 17 5 65 90 46 80 234 277 311 324 65 39 74 54 32 53 -23 0 -24 -2 -9 -8z" transform="translate(0,76) scale(0.1,-0.1)" stroke="none" fill="#DF9359"/>

<path d="M350 721 c-84 -22 -125 -44 -178 -95 -101 -96 -160 -233 -144 -336 6 -41 7 -37 12 41 4 69 11 97 38 151 65 133 154 203 294 232 92 19 160 20 265 4 63 -9 83 -16 105 -39 37 -36 35 -45 -9 -60 -65 -21 -160 -68 -184 -92 -13 -13 -40 -33 -60 -45 -60 -37 -165 -164 -260 -319 -11 -18 -27 -59 -35 -91 -16 -69 -16 -72 -5 -72 4 0 11 22 14 49 7 56 39 125 94 201 127 176 255 285 397 341 57 22 86 39 86 50 0 8 -15 29 -32 45 -25 24 -49 34 -99 42 -92 17 -222 13 -299 -7z" transform="translate(0,76) scale(0.1,-0.1)" stroke="none" fill="#DF9359"/>

<path d="M365 713 c-133 -28 -223 -100 -287 -231 -44 -89 -49 -176 -18 -299 28 -108 41 -135 74 -153 14 -7 26 -17 26 -22 0 -4 4 -8 9 -8 5 0 15 26 22 58 15 70 18 75 90 185 73 110 160 210 208 239 20 12 47 32 60 45 24 24 119 71 184 92 44 15 46 24 9 60 -47 48 -234 65 -377 34z m195 -52 c0 -5 -27 -26 -59 -45 -77 -47 -265 -244 -311 -324 -67 -119 -76 -120 -73 -9 2 56 8 83 33 133 36 73 124 166 189 198 79 39 221 69 221 47z" transform="translate(0,76) scale(0.1,-0.1)" stroke="none" fill="#845735"/>

</g>

<g id="3" transform="translate(252.0,0)scale(1,1)">

<path d="M41 226 c-1 -10 8 -51 20 -89 15 -50 31 -81 55 -105 19 -19 38 -31 42 -28 4 4 -2 12 -12 18 -36 20 -54 47 -69 99 -28 104 -35 124 -36 105z" transform="translate(0,76) scale(0.1,-0.1)" stroke="none" fill="#DF9359"/>

<path d="M339 615 c-25 -13 -71 -49 -102 -80 -72 -72 -114 -157 -121 -245 l-5 -65 13 70 c8 39 24 93 37 119 34 73 120 161 192 196 34 16 55 29 47 29 -8 0 -36 -11 -61 -24z" transform="translate(0,76) scale(0.1,-0.1)" stroke="none" fill="#DF9359"/>

<path d="M524 661 c15 -6 7 -15 -48 -50 -83 -54 -219 -197 -285 -298 -28 -43 -55 -84 -62 -91 -6 -7 -8 -16 -4 -20 8 -8 17 5 65 90 46 80 234 277 311 324 65 39 74 54 32 53 -23 0 -24 -2 -9 -8z" transform="translate(0,76) scale(0.1,-0.1)" stroke="none" fill="#DF9359"/>

<path d="M350 721 c-84 -22 -125 -44 -178 -95 -101 -96 -160 -233 -144 -336 6 -41 7 -37 12 41 4 69 11 97 38 151 65 133 154 203 294 232 92 19 160 20 265 4 63 -9 83 -16 105 -39 37 -36 35 -45 -9 -60 -65 -21 -160 -68 -184 -92 -13 -13 -40 -33 -60 -45 -60 -37 -165 -164 -260 -319 -11 -18 -27 -59 -35 -91 -16 -69 -16 -72 -5 -72 4 0 11 22 14 49 7 56 39 125 94 201 127 176 255 285 397 341 57 22 86 39 86 50 0 8 -15 29 -32 45 -25 24 -49 34 -99 42 -92 17 -222 13 -299 -7z" transform="translate(0,76) scale(0.1,-0.1)" stroke="none" fill="#DF9359"/>

<path d="M365 713 c-133 -28 -223 -100 -287 -231 -44 -89 -49 -176 -18 -299 28 -108 41 -135 74 -153 14 -7 26 -17 26 -22 0 -4 4 -8 9 -8 5 0 15 26 22 58 15 70 18 75 90 185 73 110 160 210 208 239 20 12 47 32 60 45 24 24 119 71 184 92 44 15 46 24 9 60 -47 48 -234 65 -377 34z m195 -52 c0 -5 -27 -26 -59 -45 -77 -47 -265 -244 -311 -324 -67 -119 -76 -120 -73 -9 2 56 8 83 33 133 36 73 124 166 189 198 79 39 221 69 221 47z" transform="translate(0,76) scale(0.1,-0.1)" stroke="none" fill="#845735"/>

</g>

<g id="4" transform="translate(336.0,0)scale(1,1)">

<path d="M41 226 c-1 -10 8 -51 20 -89 15 -50 31 -81 55 -105 19 -19 38 -31 42 -28 4 4 -2 12 -12 18 -36 20 -54 47 -69 99 -28 104 -35 124 -36 105z" transform="translate(0,76) scale(0.1,-0.1)" stroke="none" fill="#DF9359"/>

<path d="M339 615 c-25 -13 -71 -49 -102 -80 -72 -72 -114 -157 -121 -245 l-5 -65 13 70 c8 39 24 93 37 119 34 73 120 161 192 196 34 16 55 29 47 29 -8 0 -36 -11 -61 -24z" transform="translate(0,76) scale(0.1,-0.1)" stroke="none" fill="#DF9359"/>

<path d="M524 661 c15 -6 7 -15 -48 -50 -83 -54 -219 -197 -285 -298 -28 -43 -55 -84 -62 -91 -6 -7 -8 -16 -4 -20 8 -8 17 5 65 90 46 80 234 277 311 324 65 39 74 54 32 53 -23 0 -24 -2 -9 -8z" transform="translate(0,76) scale(0.1,-0.1)" stroke="none" fill="#DF9359"/>

<path d="M350 721 c-84 -22 -125 -44 -178 -95 -101 -96 -160 -233 -144 -336 6 -41 7 -37 12 41 4 69 11 97 38 151 65 133 154 203 294 232 92 19 160 20 265 4 63 -9 83 -16 105 -39 37 -36 35 -45 -9 -60 -65 -21 -160 -68 -184 -92 -13 -13 -40 -33 -60 -45 -60 -37 -165 -164 -260 -319 -11 -18 -27 -59 -35 -91 -16 -69 -16 -72 -5 -72 4 0 11 22 14 49 7 56 39 125 94 201 127 176 255 285 397 341 57 22 86 39 86 50 0 8 -15 29 -32 45 -25 24 -49 34 -99 42 -92 17 -222 13 -299 -7z" transform="translate(0,76) scale(0.1,-0.1)" stroke="none" fill="#DF9359"/>

<path d="M365 713 c-133 -28 -223 -100 -287 -231 -44 -89 -49 -176 -18 -299 28 -108 41 -135 74 -153 14 -7 26 -17 26 -22 0 -4 4 -8 9 -8 5 0 15 26 22 58 15 70 18 75 90 185 73 110 160 210 208 239 20 12 47 32 60 45 24 24 119 71 184 92 44 15 46 24 9 60 -47 48 -234 65 -377 34z m195 -52 c0 -5 -27 -26 -59 -45 -77 -47 -265 -244 -311 -324 -67 -119 -76 -120 -73 -9 2 56 8 83 33 133 36 73 124 166 189 198 79 39 221 69 221 47z" transform="translate(0,76) scale(0.1,-0.1)" stroke="none" fill="#845735"/>

</g>

</g>
<g id="row3" transform="translate(-31,228.0)">
<g id="0" transform="translate(0.0,0)scale(1,1)">

<path d="M41 226 c-1 -10 8 -51 20 -89 15 -50 31 -81 55 -105 19 -19 38 -31 42 -28 4 4 -2 12 -12 18 -36 20 -54 47 -69 99 -28 104 -35 124 -36 105z" transform="translate(0,76) scale(0.1,-0.1)" stroke="none" fill="#DF9359"/>

<path d="M339 615 c-25 -13 -71 -49 -102 -80 -72 -72 -114 -157 -121 -245 l-5 -65 13 70 c8 39 24 93 37 119 34 73 120 161 192 196 34 16 55 29 47 29 -8 0 -36 -11 -61 -24z" transform="translate(0,76) scale(0.1,-0.1)" stroke="none" fill="#DF9359"/>

<path d="M524 661 c15 -6 7 -15 -48 -50 -83 -54 -219 -197 -285 -298 -28 -43 -55 -84 -62 -91 -6 -7 -8 -16 -4 -20 8 -8 17 5 65 90 46 80 234 277 311 324 65 39 74 54 32 53 -23 0 -24 -2 -9 -8z" transform="translate(0,76) scale(0.1,-0.1)" stroke="none" fill="#DF9359"/>

<path d="M350 721 c-84 -22 -125 -44 -178 -95 -101 -96 -160 -233 -144 -336 6 -41 7 -37 12 41 4 69 11 97 38 151 65 133 154 203 294 232 92 19 160 20 265 4 63 -9 83 -16 105 -39 37 -36 35 -45 -9 -60 -65 -21 -160 -68 -184 -92 -13 -13 -40 -33 -60 -45 -60 -37 -165 -164 -260 -319 -11 -18 -27 -59 -35 -91 -16 -69 -16 -72 -5 -72 4 0 11 22 14 49 7 56 39 125 94 201 127 176 255 285 397 341 57 22 86 39 86 50 0 8 -15 29 -32 45 -25 24 -49 34 -99 42 -92 17 -222 13 -299 -7z" transform="translate(0,76) scale(0.1,-0.1)" stroke="none" fill="#DF9359"/>

<path d="M365 713 c-133 -28 -223 -100 -287 -231 -44 -89 -49 -176 -18 -299 28 -108 41 -135 74 -153 14 -7 26 -17 26 -22 0 -4 4 -8 9 -8 5 0 15 26 22 58 15 70 18 75 90 185 73 110 160 210 208 239 20 12 47 32 60 45 24 24 119 71 184 92 44 15 46 24 9 60 -47 48 -234 65 -377 34z m195 -52 c0 -5 -27 -26 -59 -45 -77 -47 -265 -244 -311 -324 -67 -119 -76 -120 -73 -9 2 56 8 83 33 133 36 73 124 166 189 198 79 39 221 69 221 47z" transform="translate(0,76) scale(0.1,-0.1)" stroke="none" fill="#845735"/>

</g>

<g id="1" transform="translate(84.0,0)scale(1,1)">

<path d="M41 226 c-1 -10 8 -51 20 -89 15 -50 31 -81 55 -105 19 -19 38 -31 42 -28 4 4 -2 12 -12 18 -36 20 -54 47 -69 99 -28 104 -35 124 -36 105z" transform="translate(0,76) scale(0.1,-0.1)" stroke="none" fill="#DF9359"/>

<path d="M339 615 c-25 -13 -71 -49 -102 -80 -72 -72 -114 -157 -121 -245 l-5 -65 13 70 c8 39 24 93 37 119 34 73 120 161 192 196 34 16 55 29 47 29 -8 0 -36 -11 -61 -24z" transform="translate(0,76) scale(0.1,-0.1)" stroke="none" fill="#DF9359"/>

<path d="M524 661 c15 -6 7 -15 -48 -50 -83 -54 -219 -197 -285 -298 -28 -43 -55 -84 -62 -91 -6 -7 -8 -16 -4 -20 8 -8 17 5 65 90 46 80 234 277 311 324 65 39 74 54 32 53 -23 0 -24 -2 -9 -8z" transform="translate(0,76) scale(0.1,-0.1)" stroke="none" fill="#DF9359"/>

<path d="M350 721 c-84 -22 -125 -44 -178 -95 -101 -96 -160 -233 -144 -336 6 -41 7 -37 12 41 4 69 11 97 38 151 65 133 154 203 294 232 92 19 160 20 265 4 63 -9 83 -16 105 -39 37 -36 35 -45 -9 -60 -65 -21 -160 -68 -184 -92 -13 -13 -40 -33 -60 -45 -60 -37 -165 -164 -260 -319 -11 -18 -27 -59 -35 -91 -16 -69 -16 -72 -5 -72 4 0 11 22 14 49 7 56 39 125 94 201 127 176 255 285 397 341 57 22 86 39 86 50 0 8 -15 29 -32 45 -25 24 -49 34 -99 42 -92 17 -222 13 -299 -7z" transform="translate(0,76) scale(0.1,-0.1)" stroke="none" fill="#DF9359"/>

<path d="M365 713 c-133 -28 -223 -100 -287 -231 -44 -89 -49 -176 -18 -299 28 -108 41 -135 74 -153 14 -7 26 -17 26 -22 0 -4 4 -8 9 -8 5 0 15 26 22 58 15 70 18 75 90 185 73 110 160 210 208 239 20 12 47 32 60 45 24 24 119 71 184 92 44 15 46 24 9 60 -47 48 -234 65 -377 34z m195 -52 c0 -5 -27 -26 -59 -45 -77 -47 -265 -244 -311 -324 -67 -119 -76 -120 -73 -9 2 56 8 83 33 133 36 73 124 166 189 198 79 39 221 69 221 47z" transform="translate(0,76) scale(0.1,-0.1)" stroke="none" fill="#845735"/>

</g>

<g id="2" transform="translate(168.0,0)scale(1,1)">

<path d="M41 226 c-1 -10 8 -51 20 -89 15 -50 31 -81 55 -105 19 -19 38 -31 42 -28 4 4 -2 12 -12 18 -36 20 -54 47 -69 99 -28 104 -35 124 -36 105z" transform="translate(0,76) scale(0.1,-0.1)" stroke="none" fill="#DF9359"/>

<path d="M339 615 c-25 -13 -71 -49 -102 -80 -72 -72 -114 -157 -121 -245 l-5 -65 13 70 c8 39 24 93 37 119 34 73 120 161 192 196 34 16 55 29 47 29 -8 0 -36 -11 -61 -24z" transform="translate(0,76) scale(0.1,-0.1)" stroke="none" fill="#DF9359"/>

<path d="M524 661 c15 -6 7 -15 -48 -50 -83 -54 -219 -197 -285 -298 -28 -43 -55 -84 -62 -91 -6 -7 -8 -16 -4 -20 8 -8 17 5 65 90 46 80 234 277 311 324 65 39 74 54 32 53 -23 0 -24 -2 -9 -8z" transform="translate(0,76) scale(0.1,-0.1)" stroke="none" fill="#DF9359"/>

<path d="M350 721 c-84 -22 -125 -44 -178 -95 -101 -96 -160 -233 -144 -336 6 -41 7 -37 12 41 4 69 11 97 38 151 65 133 154 203 294 232 92 19 160 20 265 4 63 -9 83 -16 105 -39 37 -36 35 -45 -9 -60 -65 -21 -160 -68 -184 -92 -13 -13 -40 -33 -60 -45 -60 -37 -165 -164 -260 -319 -11 -18 -27 -59 -35 -91 -16 -69 -16 -72 -5 -72 4 0 11 22 14 49 7 56 39 125 94 201 127 176 255 285 397 341 57 22 86 39 86 50 0 8 -15 29 -32 45 -25 24 -49 34 -99 42 -92 17 -222 13 -299 -7z" transform="translate(0,76) scale(0.1,-0.1)" stroke="none" fill="#DF9359"/>

<path d="M365 713 c-133 -28 -223 -100 -287 -231 -44 -89 -49 -176 -18 -299 28 -108 41 -135 74 -153 14 -7 26 -17 26 -22 0 -4 4 -8 9 -8 5 0 15 26 22 58 15 70 18 75 90 185 73 110 160 210 208 239 20 12 47 32 60 45 24 24 119 71 184 92 44 15 46 24 9 60 -47 48 -234 65 -377 34z m195 -52 c0 -5 -27 -26 -59 -45 -77 -47 -265 -244 -311 -324 -67 -119 -76 -120 -73 -9 2 56 8 83 33 133 36 73 124 166 189 198 79 39 221 69 221 47z" transform="translate(0,76) scale(0.1,-0.1)" stroke="none" fill="#845735"/>

</g>

<g id="3" transform="translate(252.0,0)scale(1,1)">

<path d="M41 226 c-1 -10 8 -51 20 -89 15 -50 31 -81 55 -105 19 -19 38 -31 42 -28 4 4 -2 12 -12 18 -36 20 -54 47 -69 99 -28 104 -35 124 -36 105z" transform="translate(0,76) scale(0.1,-0.1)" stroke="none" fill="#DF9359"/>

<path d="M339 615 c-25 -13 -71 -49 -102 -80 -72 -72 -114 -157 -121 -245 l-5 -65 13 70 c8 39 24 93 37 119 34 73 120 161 192 196 34 16 55 29 47 29 -8 0 -36 -11 -61 -24z" transform="translate(0,76) scale(0.1,-0.1)" stroke="none" fill="#DF9359"/>

<path d="M524 661 c15 -6 7 -15 -48 -50 -83 -54 -219 -197 -285 -298 -28 -43 -55 -84 -62 -91 -6 -7 -8 -16 -4 -20 8 -8 17 5 65 90 46 80 234 277 311 324 65 39 74 54 32 53 -23 0 -24 -2 -9 -8z" transform="translate(0,76) scale(0.1,-0.1)" stroke="none" fill="#DF9359"/>

<path d="M350 721 c-84 -22 -125 -44 -178 -95 -101 -96 -160 -233 -144 -336 6 -41 7 -37 12 41 4 69 11 97 38 151 65 133 154 203 294 232 92 19 160 20 265 4 63 -9 83 -16 105 -39 37 -36 35 -45 -9 -60 -65 -21 -160 -68 -184 -92 -13 -13 -40 -33 -60 -45 -60 -37 -165 -164 -260 -319 -11 -18 -27 -59 -35 -91 -16 -69 -16 -72 -5 -72 4 0 11 22 14 49 7 56 39 125 94 201 127 176 255 285 397 341 57 22 86 39 86 50 0 8 -15 29 -32 45 -25 24 -49 34 -99 42 -92 17 -222 13 -299 -7z" transform="translate(0,76) scale(0.1,-0.1)" stroke="none" fill="#DF9359"/>

<path d="M365 713 c-133 -28 -223 -100 -287 -231 -44 -89 -49 -176 -18 -299 28 -108 41 -135 74 -153 14 -7 26 -17 26 -22 0 -4 4 -8 9 -8 5 0 15 26 22 58 15 70 18 75 90 185 73 110 160 210 208 239 20 12 47 32 60 45 24 24 119 71 184 92 44 15 46 24 9 60 -47 48 -234 65 -377 34z m195 -52 c0 -5 -27 -26 -59 -45 -77 -47 -265 -244 -311 -324 -67 -119 -76 -120 -73 -9 2 56 8 83 33 133 36 73 124 166 189 198 79 39 221 69 221 47z" transform="translate(0,76) scale(0.1,-0.1)" stroke="none" fill="#845735"/>

</g>

<g id="4" transform="translate(336.0,0)scale(1,1)">

<path d="M41 226 c-1 -10 8 -51 20 -89 15 -50 31 -81 55 -105 19 -19 38 -31 42 -28 4 4 -2 12 -12 18 -36 20 -54 47 -69 99 -28 104 -35 124 -36 105z" transform="translate(0,76) scale(0.1,-0.1)" stroke="none" fill="#DF9359"/>

<path d="M339 615 c-25 -13 -71 -49 -102 -80 -72 -72 -114 -157 -121 -245 l-5 -65 13 70 c8 39 24 93 37 119 34 73 120 161 192 196 34 16 55 29 47 29 -8 0 -36 -11 -61 -24z" transform="translate(0,76) scale(0.1,-0.1)" stroke="none" fill="#DF9359"/>

<path d="M524 661 c15 -6 7 -15 -48 -50 -83 -54 -219 -197 -285 -298 -28 -43 -55 -84 -62 -91 -6 -7 -8 -16 -4 -20 8 -8 17 5 65 90 46 80 234 277 311 324 65 39 74 54 32 53 -23 0 -24 -2 -9 -8z" transform="translate(0,76) scale(0.1,-0.1)" stroke="none" fill="#DF9359"/>

<path d="M350 721 c-84 -22 -125 -44 -178 -95 -101 -96 -160 -233 -144 -336 6 -41 7 -37 12 41 4 69 11 97 38 151 65 133 154 203 294 232 92 19 160 20 265 4 63 -9 83 -16 105 -39 37 -36 35 -45 -9 -60 -65 -21 -160 -68 -184 -92 -13 -13 -40 -33 -60 -45 -60 -37 -165 -164 -260 -319 -11 -18 -27 -59 -35 -91 -16 -69 -16 -72 -5 -72 4 0 11 22 14 49 7 56 39 125 94 201 127 176 255 285 397 341 57 22 86 39 86 50 0 8 -15 29 -32 45 -25 24 -49 34 -99 42 -92 17 -222 13 -299 -7z" transform="translate(0,76) scale(0.1,-0.1)" stroke="none" fill="#DF9359"/>

<path d="M365 713 c-133 -28 -223 -100 -287 -231 -44 -89 -49 -176 -18 -299 28 -108 41 -135 74 -153 14 -7 26 -17 26 -22 0 -4 4 -8 9 -8 5 0 15 26 22 58 15 70 18 75 90 185 73 110 160 210 208 239 20 12 47 32 60 45 24 24 119 71 184 92 44 15 46 24 9 60 -47 48 -234 65 -377 34z m195 -52 c0 -5 -27 -26 -59 -45 -77 -47 -265 -244 -311 -324 -67 -119 -76 -120 -73 -9 2 56 8 83 33 133 36 73 124 166 189 198 79 39 221 69 221 47z" transform="translate(0,76) scale(0.1,-0.1)" stroke="none" fill="#845735"/>

</g>

</g>
</svg>