<?xml version="1.0" standalone="no"?>
<!DOCTYPE svg PUBLIC "-//W3C//DTD SVG 20010904//EN"
 "http://www.w3.org/TR/2001/REC-SVG-20010904/DTD/svg10.dtd">
<svg version="1.0" xmlns="http://www.w3.org/2000/svg" width="328pt" height="504pt" viewBox="0 0 328 504" preserveAspectRatio = "xMidYMid meet" >
<metadata>
Created by ZoeQu, written in 2022
</metadata>
<rect width="328" height="504" fill="#D8D6A6"/>
<g id="row0" transform="translate(10,0.0)">
<g id="0" transform="translate(0.0,0)scale(1,1)">

<path d="M674 339 c-18 -20 -18 -21 14 -45 18 -14 32 -31 32 -38 0 -18 24 -66 33 -66 15 0 7 105 -11 125 -35 42 -47 47 -68 24z" transform="translate(0,126) scale(0.1,-0.1)" stroke="none" fill="#F3A181"/>

<path d="M669 344 l-24 -26 33 -27 c17 -15 32 -34 32 -43 0 -9 8 -22 18 -29 14 -11 15 -11 5 1 -7 8 -13 22 -13 31 0 10 -15 29 -32 43 l-33 25 21 21 21 21 32 -31 c26 -27 31 -39 31 -81 0 -42 -5 -55 -30 -82 -31 -33 -37 -47 -20 -47 5 0 22 18 37 41 46 69 32 152 -33 196 -18 12 -23 10 -45 -13z" transform="translate(0,126) scale(0.1,-0.1)" stroke="none" fill="#936C3F"/>

<path d="M469 1181 c9 -6 15 -30 16 -68 1 -32 6 -77 10 -100 7 -37 4 -47 -25 -90 -29 -44 -31 -52 -24 -98 4 -27 8 -115 9 -195 1 -116 6 -160 24 -222 27 -95 20 -132 -39 -197 -46 -51 -48 -61 -20 -86 24 -21 27 -9 5 16 -15 15 -13 21 24 63 63 73 68 101 37 228 -24 95 -26 115 -18 195 7 66 5 103 -5 148 -17 70 -11 110 20 143 17 18 22 34 20 70 -1 26 -2 72 -3 102 -2 80 -8 100 -28 100 -14 0 -14 -2 -3 -9z" transform="translate(0,126) scale(0.1,-0.1)" stroke="none" fill="#936C3F"/>

<path d="M185 1180 c-3 -5 -5 -29 -4 -52 1 -24 -4 -66 -11 -93 -11 -46 -11 -54 8 -93 42 -88 41 -91 -62 -235 -66 -90 -80 -145 -81 -297 0 -130 1 -137 30 -195 39 -77 67 -96 152 -105 38 -4 90 -18 118 -31 43 -20 65 -24 157 -24 96 0 130 6 117 20 -3 2 -36 6 -75 8 -38 3 -50 2 -26 0 23 -2 42 -9 42 -15 0 -21 -159 -2 -223 26 -36 16 -76 26 -106 26 -91 0 -151 64 -171 182 -28 165 7 315 103 441 66 86 74 111 52 163 -32 74 -35 94 -19 139 9 27 12 59 8 83 -8 53 8 61 52 25 63 -50 78 -56 115 -49 23 4 43 18 63 43 l29 38 -34 -31 c-54 -50 -88 -51 -151 -4 -54 41 -72 48 -83 30z" transform="translate(0,126) scale(0.1,-0.1)" stroke="none" fill="#936C3F"/>

<path d="M195 1169 c-4 -6 -4 -26 -1 -45 4 -20 1 -51 -8 -78 -16 -46 -13 -65 19 -140 22 -52 14 -77 -52 -163 -69 -90 -103 -180 -110 -288 -14 -209 53 -335 178 -335 30 0 70 -10 106 -26 65 -28 223 -47 223 -25 0 7 -20 11 -55 11 -39 0 -55 4 -55 13 0 8 -9 22 -20 32 -28 25 -26 35 20 86 59 65 66 102 39 197 -18 62 -23 106 -24 222 -1 80 -5 168 -9 195 -7 46 -5 54 24 98 29 43 32 53 25 90 -5 23 -9 65 -11 92 -1 28 -3 56 -3 63 -2 23 -30 12 -59 -24 -22 -26 -39 -37 -68 -41 -35 -4 -45 0 -89 36 -53 44 -60 47 -70 30z" transform="translate(0,126) scale(0.1,-0.1)" stroke="none" fill="#F3A181"/>

</g>

<g id="1" transform="translate(82.0,0)scale(1,1)">

<path d="M674 339 c-18 -20 -18 -21 14 -45 18 -14 32 -31 32 -38 0 -18 24 -66 33 -66 15 0 7 105 -11 125 -35 42 -47 47 -68 24z" transform="translate(0,126) scale(0.1,-0.1)" stroke="none" fill="#F3A181"/>

<path d="M669 344 l-24 -26 33 -27 c17 -15 32 -34 32 -43 0 -9 8 -22 18 -29 14 -11 15 -11 5 1 -7 8 -13 22 -13 31 0 10 -15 29 -32 43 l-33 25 21 21 21 21 32 -31 c26 -27 31 -39 31 -81 0 -42 -5 -55 -30 -82 -31 -33 -37 -47 -20 -47 5 0 22 18 37 41 46 69 32 152 -33 196 -18 12 -23 10 -45 -13z" transform="translate(0,126) scale(0.1,-0.1)" stroke="none" fill="#936C3F"/>

<path d="M469 1181 c9 -6 15 -30 16 -68 1 -32 6 -77 10 -100 7 -37 4 -47 -25 -90 -29 -44 -31 -52 -24 -98 4 -27 8 -115 9 -195 1 -116 6 -160 24 -222 27 -95 20 -132 -39 -197 -46 -51 -48 -61 -20 -86 24 -21 27 -9 5 16 -15 15 -13 21 24 63 63 73 68 101 37 228 -24 95 -26 115 -18 195 7 66 5 103 -5 148 -17 70 -11 110 20 143 17 18 22 34 20 70 -1 26 -2 72 -3 102 -2 80 -8 100 -28 100 -14 0 -14 -2 -3 -9z" transform="translate(0,126) scale(0.1,-0.1)" stroke="none" fill="#936C3F"/>

<path d="M185 1180 c-3 -5 -5 -29 -4 -52 1 -24 -4 -66 -11 -93 -11 -46 -11 -54 8 -93 42 -88 41 -91 -62 -235 -66 -90 -80 -145 -81 -297 0 -130 1 -137 30 -195 39 -77 67 -96 152 -105 38 -4 90 -18 118 -31 43 -20 65 -24 157 -24 96 0 130 6 117 20 -3 2 -36 6 -75 8 -38 3 -50 2 -26 0 23 -2 42 -9 42 -15 0 -21 -159 -2 -223 26 -36 16 -76 26 -106 26 -91 0 -151 64 -171 182 -28 165 7 315 103 441 66 86 74 111 52 163 -32 74 -35 94 -19 139 9 27 12 59 8 83 -8 53 8 61 52 25 63 -50 78 -56 115 -49 23 4 43 18 63 43 l29 38 -34 -31 c-54 -50 -88 -51 -151 -4 -54 41 -72 48 -83 30z" transform="translate(0,126) scale(0.1,-0.1)" stroke="none" fill="#936C3F"/>

<path d="M195 1169 c-4 -6 -4 -26 -1 -45 4 -20 1 -51 -8 -78 -16 -46 -13 -65 19 -140 22 -52 14 -77 -52 -163 -69 -90 -103 -180 -110 -288 -14 -209 53 -335 178 -335 30 0 70 -10 106 -26 65 -28 223 -47 223 -25 0 7 -20 11 -55 11 -39 0 -55 4 -55 13 0 8 -9 22 -20 32 -28 25 -26 35 20 86 59 65 66 102 39 197 -18 62 -23 106 -24 222 -1 80 -5 168 -9 195 -7 46 -5 54 24 98 29 43 32 53 25 90 -5 23 -9 65 -11 92 -1 28 -3 56 -3 63 -2 23 -30 12 -59 -24 -22 -26 -39 -37 -68 -41 -35 -4 -45 0 -89 36 -53 44 -60 47 -70 30z" transform="translate(0,126) scale(0.1,-0.1)" stroke="none" fill="#F3A181"/>

</g>

<g id="2" transform="translate(164.0,0)scale(1,1)">

<path d="M674 339 c-18 -20 -18 -21 14 -45 18 -14 32 -31 32 -38 0 -18 24 -66 33 -66 15 0 7 105 -11 125 -35 42 -47 47 -68 24z" transform="translate(0,126) scale(0.1,-0.1)" stroke="none" fill="#F3A181"/>

<path d="M669 344 l-24 -26 33 -27 c17 -15 32 -34 32 -43 0 -9 8 -22 18 -29 14 -11 15 -11 5 1 -7 8 -13 22 -13 31 0 10 -15 29 -32 43 l-33 25 21 21 21 21 32 -31 c26 -27 31 -39 31 -81 0 -42 -5 -55 -30 -82 -31 -33 -37 -47 -20 -47 5 0 22 18 37 41 46 69 32 152 -33 196 -18 12 -23 10 -45 -13z" transform="translate(0,126) scale(0.1,-0.1)" stroke="none" fill="#936C3F"/>

<path d="M469 1181 c9 -6 15 -30 16 -68 1 -32 6 -77 10 -100 7 -37 4 -47 -25 -90 -29 -44 -31 -52 -24 -98 4 -27 8 -115 9 -195 1 -116 6 -160 24 -222 27 -95 20 -132 -39 -197 -46 -51 -48 -61 -20 -86 24 -21 27 -9 5 16 -15 15 -13 21 24 63 63 73 68 101 37 228 -24 95 -26 115 -18 195 7 66 5 103 -5 148 -17 70 -11 110 20 143 17 18 22 34 20 70 -1 26 -2 72 -3 102 -2 80 -8 100 -28 100 -14 0 -14 -2 -3 -9z" transform="translate(0,126) scale(0.1,-0.1)" stroke="none" fill="#936C3F"/>

<path d="M185 1180 c-3 -5 -5 -29 -4 -52 1 -24 -4 -66 -11 -93 -11 -46 -11 -54 8 -93 42 -88 41 -91 -62 -235 -66 -90 -80 -145 -81 -297 0 -130 1 -137 30 -195 39 -77 67 -96 152 -105 38 -4 90 -18 118 -31 43 -20 65 -24 157 -24 96 0 130 6 117 20 -3 2 -36 6 -75 8 -38 3 -50 2 -26 0 23 -2 42 -9 42 -15 0 -21 -159 -2 -223 26 -36 16 -76 26 -106 26 -91 0 -151 64 -171 182 -28 165 7 315 103 441 66 86 74 111 52 163 -32 74 -35 94 -19 139 9 27 12 59 8 83 -8 53 8 61 52 25 63 -50 78 -56 115 -49 23 4 43 18 63 43 l29 38 -34 -31 c-54 -50 -88 -51 -151 -4 -54 41 -72 48 -83 30z" transform="translate(0,126) scale(0.1,-0.1)" stroke="none" fill="#936C3F"/>

<path d="M195 1169 c-4 -6 -4 -26 -1 -45 4 -20 1 -51 -8 -78 -16 -46 -13 -65 19 -140 22 -52 14 -77 -52 -163 -69 -90 -103 -180 -110 -288 -14 -209 53 -335 178 -335 30 0 70 -10 106 -26 65 -28 223 -47 223 -25 0 7 -20 11 -55 11 -39 0 -55 4 -55 13 0 8 -9 22 -20 32 -28 25 -26 35 20 86 59 65 66 102 39 197 -18 62 -23 106 -24 222 -1 80 -5 168 -9 195 -7 46 -5 54 24 98 29 43 32 53 25 90 -5 23 -9 65 -11 92 -1 28 -3 56 -3 63 -2 23 -30 12 -59 -24 -22 -26 -39 -37 -68 -41 -35 -4 -45 0 -89 36 -53 44 -60 47 -70 30z" transform="translate(0,126) scale(0.1,-0.1)" stroke="none" fill="#F3A181"/>

</g>

<g id="3" transform="translate(246.0,0)scale(1,1)">

<path d="M674 339 c-18 -20 -18 -21 14 -45 18 -14 32 -31 32 -38 0 -18 24 -66 33 -66 15 0 7 105 -11 125 -35 42 -47 47 -68 24z" transform="translate(0,126) scale(0.1,-0.1)" stroke="none" fill="#F3A181"/>

<path d="M669 344 l-24 -26 33 -27 c17 -15 32 -34 32 -43 0 -9 8 -22 18 -29 14 -11 15 -11 5 1 -7 8 -13 22 -13 31 0 10 -15 29 -32 43 l-33 25 21 21 21 21 32 -31 c26 -27 31 -39 31 -81 0 -42 -5 -55 -30 -82 -31 -33 -37 -47 -20 -47 5 0 22 18 37 41 46 69 32 152 -33 196 -18 12 -23 10 -45 -13z" transform="translate(0,126) scale(0.1,-0.1)" stroke="none" fill="#936C3F"/>

<path d="M469 1181 c9 -6 15 -30 16 -68 1 -32 6 -77 10 -100 7 -37 4 -47 -25 -90 -29 -44 -31 -52 -24 -98 4 -27 8 -115 9 -195 1 -116 6 -160 24 -222 27 -95 20 -132 -39 -197 -46 -51 -48 -61 -20 -86 24 -21 27 -9 5 16 -15 15 -13 21 24 63 63 73 68 101 37 228 -24 95 -26 115 -18 195 7 66 5 103 -5 148 -17 70 -11 110 20 143 17 18 22 34 20 70 -1 26 -2 72 -3 102 -2 80 -8 100 -28 100 -14 0 -14 -2 -3 -9z" transform="translate(0,126) scale(0.1,-0.1)" stroke="none" fill="#936C3F"/>

<path d="M185 1180 c-3 -5 -5 -29 -4 -52 1 -24 -4 -66 -11 -93 -11 -46 -11 -54 8 -93 42 -88 41 -91 -62 -235 -66 -90 -80 -145 -81 -297 0 -130 1 -137 30 -195 39 -77 67 -96 152 -105 38 -4 90 -18 118 -31 43 -20 65 -24 157 -24 96 0 130 6 117 20 -3 2 -36 6 -75 8 -38 3 -50 2 -26 0 23 -2 42 -9 42 -15 0 -21 -159 -2 -223 26 -36 16 -76 26 -106 26 -91 0 -151 64 -171 182 -28 165 7 315 103 441 66 86 74 111 52 163 -32 74 -35 94 -19 139 9 27 12 59 8 83 -8 53 8 61 52 25 63 -50 78 -56 115 -49 23 4 43 18 63 43 l29 38 -34 -31 c-54 -50 -88 -51 -151 -4 -54 41 -72 48 -83 30z" transform="translate(0,126) scale(0.1,-0.1)" stroke="none" fill="#936C3F"/>

<path d="M195 1169 c-4 -6 -4 -26 -1 -45 4 -20 1 -51 -8 -78 -16 -46 -13 -65 19 -140 22 -52 14 -77 -52 -163 -69 -90 -103 -180 -110 -288 -14 -209 53 -335 178 -335 30 0 70 -10 106 -26 65 -28 223 -47 223 -25 0 7 -20 11 -55 11 -39 0 -55 4 -55 13 0 8 -9 22 -20 32 -28 25 -26 35 20 86 59 65 66 102 39 197 -18 62 -23 106 -24 222 -1 80 -5 168 -9 195 -7 46 -5 54 24 98 29 43 32 53 25 90 -5 23 -9 65 -11 92 -1 28 -3 56 -3 63 -2 23 -30 12 -59 -24 -22 -26 -39 -37 -68 -41 -35 -4 -45 0 -89 36 -53 44 -60 47 -70 30z" transform="translate(0,126) scale(0.1,-0.1)" stroke="none" fill="#F3A181"/>

</g>

<g id="4" transform="translate(328.0,0)scale(1,1)">

<path d="M674 339 c-18 -20 -18 -21 14 -45 18 -14 32 -31 32 -38 0 -18 24 -66 33 -66 15 0 7 105 -11 125 -35 42 -47 47 -68 24z" transform="translate(0,126) scale(0.1,-0.1)" stroke="none" fill="#F3A181"/>

<path d="M669 344 l-24 -26 33 -27 c17 -15 32 -34 32 -43 0 -9 8 -22 18 -29 14 -11 15 -11 5 1 -7 8 -13 22 -13 31 0 10 -15 29 -32 43 l-33 25 21 21 21 21 32 -31 c26 -27 31 -39 31 -81 0 -42 -5 -55 -30 -82 -31 -33 -37 -47 -20 -47 5 0 22 18 37 41 46 69 32 152 -33 196 -18 12 -23 10 -45 -13z" transform="translate(0,126) scale(0.1,-0.1)" stroke="none" fill="#936C3F"/>

<path d="M469 1181 c9 -6 15 -30 16 -68 1 -32 6 -77 10 -100 7 -37 4 -47 -25 -90 -29 -44 -31 -52 -24 -98 4 -27 8 -115 9 -195 1 -116 6 -160 24 -222 27 -95 20 -132 -39 -197 -46 -51 -48 -61 -20 -86 24 -21 27 -9 5 16 -15 15 -13 21 24 63 63 73 68 101 37 228 -24 95 -26 115 -18 195 7 66 5 103 -5 148 -17 70 -11 110 20 143 17 18 22 34 20 70 -1 26 -2 72 -3 102 -2 80 -8 100 -28 100 -14 0 -14 -2 -3 -9z" transform="translate(0,126) scale(0.1,-0.1)" stroke="none" fill="#936C3F"/>

<path d="M185 1180 c-3 -5 -5 -29 -4 -52 1 -24 -4 -66 -11 -93 -11 -46 -11 -54 8 -93 42 -88 41 -91 -62 -235 -66 -90 -80 -145 -81 -297 0 -130 1 -137 30 -195 39 -77 67 -96 152 -105 38 -4 90 -18 118 -31 43 -20 65 -24 157 -24 96 0 130 6 117 20 -3 2 -36 6 -75 8 -38 3 -50 2 -26 0 23 -2 42 -9 42 -15 0 -21 -159 -2 -223 26 -36 16 -76 26 -106 26 -91 0 -151 64 -171 182 -28 165 7 315 103 441 66 86 74 111 52 163 -32 74 -35 94 -19 139 9 27 12 59 8 83 -8 53 8 61 52 25 63 -50 78 -56 115 -49 23 4 43 18 63 43 l29 38 -34 -31 c-54 -50 -88 -51 -151 -4 -54 41 -72 48 -83 30z" transform="translate(0,126) scale(0.1,-0.1)" stroke="none" fill="#936C3F"/>

<path d="M195 1169 c-4 -6 -4 -26 -1 -45 4 -20 1 -51 -8 -78 -16 -46 -13 -65 19 -140 22 -52 14 -77 -52 -163 -69 -90 -103 -180 -110 -288 -14 -209 53 -335 178 -335 30 0 70 -10 106 -26 65 -28 223 -47 223 -25 0 7 -20 11 -55 11 -39 0 -55 4 -55 13 0 8 -9 22 -20 32 -28 25 -26 35 20 86 59 65 66 102 39 197 -18 62 -23 106 -24 222 -1 80 -5 168 -9 195 -7 46 -5 54 24 98 29 43 32 53 25 90 -5 23 -9 65 -11 92 -1 28 -3 56 -3 63 -2 23 -30 12 -59 -24 -22 -26 -39 -37 -68 -41 -35 -4 -45 0 -89 36 -53 44 -60 47 -70 30z" transform="translate(0,126) scale(0.1,-0.1)" stroke="none" fill="#F3A181"/>

</g>

</g>
<g id="row1" transform="translate(-31,126.0)">
<g id="0" transform="translate(0.0,0)scale(1,1)">

<path d="M674 339 c-18 -20 -18 -21 14 -45 18 -14 32 -31 32 -38 0 -18 24 -66 33 -66 15 0 7 105 -11 125 -35 42 -47 47 -68 24z" transform="translate(0,126) scale(0.1,-0.1)" stroke="none" fill="#F3A181"/>

<path d="M669 344 l-24 -26 33 -27 c17 -15 32 -34 32 -43 0 -9 8 -22 18 -29 14 -11 15 -11 5 1 -7 8 -13 22 -13 31 0 10 -15 29 -32 43 l-33 25 21 21 21 21 32 -31 c26 -27 31 -39 31 -81 0 -42 -5 -55 -30 -82 -31 -33 -37 -47 -20 -47 5 0 22 18 37 41 46 69 32 152 -33 196 -18 12 -23 10 -45 -13z" transform="translate(0,126) scale(0.1,-0.1)" stroke="none" fill="#936C3F"/>

<path d="M469 1181 c9 -6 15 -30 16 -68 1 -32 6 -77 10 -100 7 -37 4 -47 -25 -90 -29 -44 -31 -52 -24 -98 4 -27 8 -115 9 -195 1 -116 6 -160 24 -222 27 -95 20 -132 -39 -197 -46 -51 -48 -61 -20 -86 24 -21 27 -9 5 16 -15 15 -13 21 24 63 63 73 68 101 37 228 -24 95 -26 115 -18 195 7 66 5 103 -5 148 -17 70 -11 110 20 143 17 18 22 34 20 70 -1 26 -2 72 -3 102 -2 80 -8 100 -28 100 -14 0 -14 -2 -3 -9z" transform="translate(0,126) scale(0.1,-0.1)" stroke="none" fill="#936C3F"/>

<path d="M185 1180 c-3 -5 -5 -29 -4 -52 1 -24 -4 -66 -11 -93 -11 -46 -11 -54 8 -93 42 -88 41 -91 -62 -235 -66 -90 -80 -145 -81 -297 0 -130 1 -137 30 -195 39 -77 67 -96 152 -105 38 -4 90 -18 118 -31 43 -20 65 -24 157 -24 96 0 130 6 117 20 -3 2 -36 6 -75 8 -38 3 -50 2 -26 0 23 -2 42 -9 42 -15 0 -21 -159 -2 -223 26 -36 16 -76 26 -106 26 -91 0 -151 64 -171 182 -28 165 7 315 103 441 66 86 74 111 52 163 -32 74 -35 94 -19 139 9 27 12 59 8 83 -8 53 8 61 52 25 63 -50 78 -56 115 -49 23 4 43 18 63 43 l29 38 -34 -31 c-54 -50 -88 -51 -151 -4 -54 41 -72 48 -83 30z" transform="translate(0,126) scale(0.1,-0.1)" stroke="none" fill="#936C3F"/>

<path d="M195 1169 c-4 -6 -4 -26 -1 -45 4 -20 1 -51 -8 -78 -16 -46 -13 -65 19 -140 22 -52 14 -77 -52 -163 -69 -90 -103 -180 -110 -288 -14 -209 53 -335 178 -335 30 0 70 -10 106 -26 65 -28 223 -47 223 -25 0 7 -20 11 -55 11 -39 0 -55 4 -55 13 0 8 -9 22 -20 32 -28 25 -26 35 20 86 59 65 66 102 39 197 -18 62 -23 106 -24 222 -1 80 -5 168 -9 195 -7 46 -5 54 24 98 29 43 32 53 25 90 -5 23 -9 65 -11 92 -1 28 -3 56 -3 63 -2 23 -30 12 -59 -24 -22 -26 -39 -37 -68 -41 -35 -4 -45 0 -89 36 -53 44 -60 47 -70 30z" transform="translate(0,126) scale(0.1,-0.1)" stroke="none" fill="#F3A181"/>

</g>

<g id="1" transform="translate(82.0,0)scale(1,1)">

<path d="M674 339 c-18 -20 -18 -21 14 -45 18 -14 32 -31 32 -38 0 -18 24 -66 33 -66 15 0 7 105 -11 125 -35 42 -47 47 -68 24z" transform="translate(0,126) scale(0.1,-0.1)" stroke="none" fill="#F3A181"/>

<path d="M669 344 l-24 -26 33 -27 c17 -15 32 -34 32 -43 0 -9 8 -22 18 -29 14 -11 15 -11 5 1 -7 8 -13 22 -13 31 0 10 -15 29 -32 43 l-33 25 21 21 21 21 32 -31 c26 -27 31 -39 31 -81 0 -42 -5 -55 -30 -82 -31 -33 -37 -47 -20 -47 5 0 22 18 37 41 46 69 32 152 -33 196 -18 12 -23 10 -45 -13z" transform="translate(0,126) scale(0.1,-0.1)" stroke="none" fill="#936C3F"/>

<path d="M469 1181 c9 -6 15 -30 16 -68 1 -32 6 -77 10 -100 7 -37 4 -47 -25 -90 -29 -44 -31 -52 -24 -98 4 -27 8 -115 9 -195 1 -116 6 -160 24 -222 27 -95 20 -132 -39 -197 -46 -51 -48 -61 -20 -86 24 -21 27 -9 5 16 -15 15 -13 21 24 63 63 73 68 101 37 228 -24 95 -26 115 -18 195 7 66 5 103 -5 148 -17 70 -11 110 20 143 17 18 22 34 20 70 -1 26 -2 72 -3 102 -2 80 -8 100 -28 100 -14 0 -14 -2 -3 -9z" transform="translate(0,126) scale(0.1,-0.1)" stroke="none" fill="#936C3F"/>

<path d="M185 1180 c-3 -5 -5 -29 -4 -52 1 -24 -4 -66 -11 -93 -11 -46 -11 -54 8 -93 42 -88 41 -91 -62 -235 -66 -90 -80 -145 -81 -297 0 -130 1 -137 30 -195 39 -77 67 -96 152 -105 38 -4 90 -18 118 -31 43 -20 65 -24 157 -24 96 0 130 6 117 20 -3 2 -36 6 -75 8 -38 3 -50 2 -26 0 23 -2 42 -9 42 -15 0 -21 -159 -2 -223 26 -36 16 -76 26 -106 26 -91 0 -151 64 -171 182 -28 165 7 315 103 441 66 86 74 111 52 163 -32 74 -35 94 -19 139 9 27 12 59 8 83 -8 53 8 61 52 25 63 -50 78 -56 115 -49 23 4 43 18 63 43 l29 38 -34 -31 c-54 -50 -88 -51 -151 -4 -54 41 -72 48 -83 30z" transform="translate(0,126) scale(0.1,-0.1)" stroke="none" fill="#936C3F"/>

<path d="M195 1169 c-4 -6 -4 -26 -1 -45 4 -20 1 -51 -8 -78 -16 -46 -13 -65 19 -140 22 -52 14 -77 -52 -163 -69 -90 -103 -180 -110 -288 -14 -209 53 -335 178 -335 30 0 70 -10 106 -26 65 -28 223 -47 223 -25 0 7 -20 11 -55 11 -39 0 -55 4 -55 13 0 8 -9 22 -20 32 -28 25 -26 35 20 86 59 65 66 102 39 197 -18 62 -23 106 -24 222 -1 80 -5 168 -9 195 -7 46 -5 54 24 98 29 43 32 53 25 90 -5 23 -9 65 -11 92 -1 28 -3 56 -3 63 -2 23 -30 12 -59 -24 -22 -26 -39 -37 -68 -41 -35 -4 -45 0 -89 36 -53 44 -60 47 -70 30z" transform="translate(0,126) scale(0.1,-0.1)" stroke="none" fill="#F3A181"/>

</g>

<g id="2" transform="translate(164.0,0)scale(1,1)">

<path d="M674 339 c-18 -20 -18 -21 14 -45 18 -14 32 -31 32 -38 0 -18 24 -66 33 -66 15 0 7 105 -11 125 -35 42 -47 47 -68 24z" transform="translate(0,126) scale(0.1,-0.1)" stroke="none" fill="#F3A181"/>

<path d="M669 344 l-24 -26 33 -27 c17 -15 32 -34 32 -43 0 -9 8 -22 18 -29 14 -11 15 -11 5 1 -7 8 -13 22 -13 31 0 10 -15 29 -32 43 l-33 25 21 21 21 21 32 -31 c26 -27 31 -39 31 -81 0 -42 -5 -55 -30 -82 -31 -33 -37 -47 -20 -47 5 0 22 18 37 41 46 69 32 152 -33 196 -18 12 -23 10 -45 -13z" transform="translate(0,126) scale(0.1,-0.1)" stroke="none" fill="#936C3F"/>

<path d="M469 1181 c9 -6 15 -30 16 -68 1 -32 6 -77 10 -100 7 -37 4 -47 -25 -90 -29 -44 -31 -52 -24 -98 4 -27 8 -115 9 -195 1 -116 6 -160 24 -222 27 -95 20 -132 -39 -197 -46 -51 -48 -61 -20 -86 24 -21 27 -9 5 16 -15 15 -13 21 24 63 63 73 68 101 37 228 -24 95 -26 115 -18 195 7 66 5 103 -5 148 -17 70 -11 110 20 143 17 18 22 34 20 70 -1 26 -2 72 -3 102 -2 80 -8 100 -28 100 -14 0 -14 -2 -3 -9z" transform="translate(0,126) scale(0.1,-0.1)" stroke="none" fill="#936C3F"/>

<path d="M185 1180 c-3 -5 -5 -29 -4 -52 1 -24 -4 -66 -11 -93 -11 -46 -11 -54 8 -93 42 -88 41 -91 -62 -235 -66 -90 -80 -145 -81 -297 0 -130 1 -137 30 -195 39 -77 67 -96 152 -105 38 -4 90 -18 118 -31 43 -20 65 -24 157 -24 96 0 130 6 117 20 -3 2 -36 6 -75 8 -38 3 -50 2 -26 0 23 -2 42 -9 42 -15 0 -21 -159 -2 -223 26 -36 16 -76 26 -106 26 -91 0 -151 64 -171 182 -28 165 7 315 103 441 66 86 74 111 52 163 -32 74 -35 94 -19 139 9 27 12 59 8 83 -8 53 8 61 52 25 63 -50 78 -56 115 -49 23 4 43 18 63 43 l29 38 -34 -31 c-54 -50 -88 -51 -151 -4 -54 41 -72 48 -83 30z" transform="translate(0,126) scale(0.1,-0.1)" stroke="none" fill="#936C3F"/>

<path d="M195 1169 c-4 -6 -4 -26 -1 -45 4 -20 1 -51 -8 -78 -16 -46 -13 -65 19 -140 22 -52 14 -77 -52 -163 -69 -90 -103 -180 -110 -288 -14 -209 53 -335 178 -335 30 0 70 -10 106 -26 65 -28 223 -47 223 -25 0 7 -20 11 -55 11 -39 0 -55 4 -55 13 0 8 -9 22 -20 32 -28 25 -26 35 20 86 59 65 66 102 39 197 -18 62 -23 106 -24 222 -1 80 -5 168 -9 195 -7 46 -5 54 24 98 29 43 32 53 25 90 -5 23 -9 65 -11 92 -1 28 -3 56 -3 63 -2 23 -30 12 -59 -24 -22 -26 -39 -37 -68 -41 -35 -4 -45 0 -89 36 -53 44 -60 47 -70 30z" transform="translate(0,126) scale(0.1,-0.1)" stroke="none" fill="#F3A181"/>

</g>

<g id="3" transform="translate(246.0,0)scale(1,1)">

<path d="M674 339 c-18 -20 -18 -21 14 -45 18 -14 32 -31 32 -38 0 -18 24 -66 33 -66 15 0 7 105 -11 125 -35 42 -47 47 -68 24z" transform="translate(0,126) scale(0.1,-0.1)" stroke="none" fill="#F3A181"/>

<path d="M669 344 l-24 -26 33 -27 c17 -15 32 -34 32 -43 0 -9 8 -22 18 -29 14 -11 15 -11 5 1 -7 8 -13 22 -13 31 0 10 -15 29 -32 43 l-33 25 21 21 21 21 32 -31 c26 -27 31 -39 31 -81 0 -42 -5 -55 -30 -82 -31 -33 -37 -47 -20 -47 5 0 22 18 37 41 46 69 32 152 -33 196 -18 12 -23 10 -45 -13z" transform="translate(0,126) scale(0.1,-0.1)" stroke="none" fill="#936C3F"/>

<path d="M469 1181 c9 -6 15 -30 16 -68 1 -32 6 -77 10 -100 7 -37 4 -47 -25 -90 -29 -44 -31 -52 -24 -98 4 -27 8 -115 9 -195 1 -116 6 -160 24 -222 27 -95 20 -132 -39 -197 -46 -51 -48 -61 -20 -86 24 -21 27 -9 5 16 -15 15 -13 21 24 63 63 73 68 101 37 228 -24 95 -26 115 -18 195 7 66 5 103 -5 148 -17 70 -11 110 20 143 17 18 22 34 20 70 -1 26 -2 72 -3 102 -2 80 -8 100 -28 100 -14 0 -14 -2 -3 -9z" transform="translate(0,126) scale(0.1,-0.1)" stroke="none" fill="#936C3F"/>

<path d="M185 1180 c-3 -5 -5 -29 -4 -52 1 -24 -4 -66 -11 -93 -11 -46 -11 -54 8 -93 42 -88 41 -91 -62 -235 -66 -90 -80 -145 -81 -297 0 -130 1 -137 30 -195 39 -77 67 -96 152 -105 38 -4 90 -18 118 -31 43 -20 65 -24 157 -24 96 0 130 6 117 20 -3 2 -36 6 -75 8 -38 3 -50 2 -26 0 23 -2 42 -9 42 -15 0 -21 -159 -2 -223 26 -36 16 -76 26 -106 26 -91 0 -151 64 -171 182 -28 165 7 315 103 441 66 86 74 111 52 163 -32 74 -35 94 -19 139 9 27 12 59 8 83 -8 53 8 61 52 25 63 -50 78 -56 115 -49 23 4 43 18 63 43 l29 38 -34 -31 c-54 -50 -88 -51 -151 -4 -54 41 -72 48 -83 30z" transform="translate(0,126) scale(0.1,-0.1)" stroke="none" fill="#936C3F"/>

<path d="M195 1169 c-4 -6 -4 -26 -1 -45 4 -20 1 -51 -8 -78 -16 -46 -13 -65 19 -140 22 -52 14 -77 -52 -163 -69 -90 -103 -180 -110 -288 -14 -209 53 -335 178 -335 30 0 70 -10 106 -26 65 -28 223 -47 223 -25 0 7 -20 11 -55 11 -39 0 -55 4 -55 13 0 8 -9 22 -20 32 -28 25 -26 35 20 86 59 65 66 102 39 197 -18 62 -23 106 -24 222 -1 80 -5 168 -9 195 -7 46 -5 54 24 98 29 43 32 53 25 90 -5 23 -9 65 -11 92 -1 28 -3 56 -3 63 -2 23 -30 12 -59 -24 -22 -26 -39 -37 -68 -41 -35 -4 -45 0 -89 36 -53 44 -60 47 -70 30z" transform="translate(0,126) scale(0.1,-0.1)" stroke="none" fill="#F3A181"/>

</g>

<g id="4" transform="translate(328.0,0)scale(1,1)">

<path d="M674 339 c-18 -20 -18 -21 14 -45 18 -14 32 -31 32 -38 0 -18 24 -66 33 -66 15 0 7 105 -11 125 -35 42 -47 47 -68 24z" transform="translate(0,126) scale(0.1,-0.1)" stroke="none" fill="#F3A181"/>

<path d="M669 344 l-24 -26 33 -27 c17 -15 32 -34 32 -43 0 -9 8 -22 18 -29 14 -11 15 -11 5 1 -7 8 -13 22 -13 31 0 10 -15 29 -32 43 l-33 25 21 21 21 21 32 -31 c26 -27 31 -39 31 -81 0 -42 -5 -55 -30 -82 -31 -33 -37 -47 -20 -47 5 0 22 18 37 41 46 69 32 152 -33 196 -18 12 -23 10 -45 -13z" transform="translate(0,126) scale(0.1,-0.1)" stroke="none" fill="#936C3F"/>

<path d="M469 1181 c9 -6 15 -30 16 -68 1 -32 6 -77 10 -100 7 -37 4 -47 -25 -90 -29 -44 -31 -52 -24 -98 4 -27 8 -115 9 -195 1 -116 6 -160 24 -222 27 -95 20 -132 -39 -197 -46 -51 -48 -61 -20 -86 24 -21 27 -9 5 16 -15 15 -13 21 24 63 63 73 68 101 37 228 -24 95 -26 115 -18 195 7 66 5 103 -5 148 -17 70 -11 110 20 143 17 18 22 34 20 70 -1 26 -2 72 -3 102 -2 80 -8 100 -28 100 -14 0 -14 -2 -3 -9z" transform="translate(0,126) scale(0.1,-0.1)" stroke="none" fill="#936C3F"/>

<path d="M185 1180 c-3 -5 -5 -29 -4 -52 1 -24 -4 -66 -11 -93 -11 -46 -11 -54 8 -93 42 -88 41 -91 -62 -235 -66 -90 -80 -145 -81 -297 0 -130 1 -137 30 -195 39 -77 67 -96 152 -105 38 -4 90 -18 118 -31 43 -20 65 -24 157 -24 96 0 130 6 117 20 -3 2 -36 6 -75 8 -38 3 -50 2 -26 0 23 -2 42 -9 42 -15 0 -21 -159 -2 -223 26 -36 16 -76 26 -106 26 -91 0 -151 64 -171 182 -28 165 7 315 103 441 66 86 74 111 52 163 -32 74 -35 94 -19 139 9 27 12 59 8 83 -8 53 8 61 52 25 63 -50 78 -56 115 -49 23 4 43 18 63 43 l29 38 -34 -31 c-54 -50 -88 -51 -151 -4 -54 41 -72 48 -83 30z" transform="translate(0,126) scale(0.1,-0.1)" stroke="none" fill="#936C3F"/>

<path d="M195 1169 c-4 -6 -4 -26 -1 -45 4 -20 1 -51 -8 -78 -16 -46 -13 -65 19 -140 22 -52 14 -77 -52 -163 -69 -90 -103 -180 -110 -288 -14 -209 53 -335 178 -335 30 0 70 -10 106 -26 65 -28 223 -47 223 -25 0 7 -20 11 -55 11 -39 0 -55 4 -55 13 0 8 -9 22 -20 32 -28 25 -26 35 20 86 59 65 66 102 39 197 -18 62 -23 106 -24 222 -1 80 -5 168 -9 195 -7 46 -5 54 24 98 29 43 32 53 25 90 -5 23 -9 65 -11 92 -1 28 -3 56 -3 63 -2 23 -30 12 -59 -24 -22 -26 -39 -37 -68 -41 -35 -4 -45 0 -89 36 -53 44 -60 47 -70 30z" transform="translate(0,126) scale(0.1,-0.1)" stroke="none" fill="#F3A181"/>

</g>

</g>
<g id="row2" transform="translate(10,252.0)">
<g id="0" transform="translate(0.0,0)scale(1,1)">

<path d="M674 339 c-18 -20 -18 -21 14 -45 18 -14 32 -31 32 -38 0 -18 24 -66 33 -66 15 0 7 105 -11 125 -35 42 -47 47 -68 24z" transform="translate(0,126) scale(0.1,-0.1)" stroke="none" fill="#F3A181"/>

<path d="M669 344 l-24 -26 33 -27 c17 -15 32 -34 32 -43 0 -9 8 -22 18 -29 14 -11 15 -11 5 1 -7 8 -13 22 -13 31 0 10 -15 29 -32 43 l-33 25 21 21 21 21 32 -31 c26 -27 31 -39 31 -81 0 -42 -5 -55 -30 -82 -31 -33 -37 -47 -20 -47 5 0 22 18 37 41 46 69 32 152 -33 196 -18 12 -23 10 -45 -13z" transform="translate(0,126) scale(0.1,-0.1)" stroke="none" fill="#936C3F"/>

<path d="M469 1181 c9 -6 15 -30 16 -68 1 -32 6 -77 10 -100 7 -37 4 -47 -25 -90 -29 -44 -31 -52 -24 -98 4 -27 8 -115 9 -195 1 -116 6 -160 24 -222 27 -95 20 -132 -39 -197 -46 -51 -48 -61 -20 -86 24 -21 27 -9 5 16 -15 15 -13 21 24 63 63 73 68 101 37 228 -24 95 -26 115 -18 195 7 66 5 103 -5 148 -17 70 -11 110 20 143 17 18 22 34 20 70 -1 26 -2 72 -3 102 -2 80 -8 100 -28 100 -14 0 -14 -2 -3 -9z" transform="translate(0,126) scale(0.1,-0.1)" stroke="none" fill="#936C3F"/>

<path d="M185 1180 c-3 -5 -5 -29 -4 -52 1 -24 -4 -66 -11 -93 -11 -46 -11 -54 8 -93 42 -88 41 -91 -62 -235 -66 -90 -80 -145 -81 -297 0 -130 1 -137 30 -195 39 -77 67 -96 152 -105 38 -4 90 -18 118 -31 43 -20 65 -24 157 -24 96 0 130 6 117 20 -3 2 -36 6 -75 8 -38 3 -50 2 -26 0 23 -2 42 -9 42 -15 0 -21 -159 -2 -223 26 -36 16 -76 26 -106 26 -91 0 -151 64 -171 182 -28 165 7 315 103 441 66 86 74 111 52 163 -32 74 -35 94 -19 139 9 27 12 59 8 83 -8 53 8 61 52 25 63 -50 78 -56 115 -49 23 4 43 18 63 43 l29 38 -34 -31 c-54 -50 -88 -51 -151 -4 -54 41 -72 48 -83 30z" transform="translate(0,126) scale(0.1,-0.1)" stroke="none" fill="#936C3F"/>

<path d="M195 1169 c-4 -6 -4 -26 -1 -45 4 -20 1 -51 -8 -78 -16 -46 -13 -65 19 -140 22 -52 14 -77 -52 -163 -69 -90 -103 -180 -110 -288 -14 -209 53 -335 178 -335 30 0 70 -10 106 -26 65 -28 223 -47 223 -25 0 7 -20 11 -55 11 -39 0 -55 4 -55 13 0 8 -9 22 -20 32 -28 25 -26 35 20 86 59 65 66 102 39 197 -18 62 -23 106 -24 222 -1 80 -5 168 -9 195 -7 46 -5 54 24 98 29 43 32 53 25 90 -5 23 -9 65 -11 92 -1 28 -3 56 -3 63 -2 23 -30 12 -59 -24 -22 -26 -39 -37 -68 -41 -35 -4 -45 0 -89 36 -53 44 -60 47 -70 30z" transform="translate(0,126) scale(0.1,-0.1)" stroke="none" fill="#F3A181"/>

</g>

<g id="1" transform="translate(82.0,0)scale(1,1)">

<path d="M674 339 c-18 -20 -18 -21 14 -45 18 -14 32 -31 32 -38 0 -18 24 -66 33 -66 15 0 7 105 -11 125 -35 42 -47 47 -68 24z" transform="translate(0,126) scale(0.1,-0.1)" stroke="none" fill="#F3A181"/>

<path d="M669 344 l-24 -26 33 -27 c17 -15 32 -34 32 -43 0 -9 8 -22 18 -29 14 -11 15 -11 5 1 -7 8 -13 22 -13 31 0 10 -15 29 -32 43 l-33 25 21 21 21 21 32 -31 c26 -27 31 -39 31 -81 0 -42 -5 -55 -30 -82 -31 -33 -37 -47 -20 -47 5 0 22 18 37 41 46 69 32 152 -33 196 -18 12 -23 10 -45 -13z" transform="translate(0,126) scale(0.1,-0.1)" stroke="none" fill="#936C3F"/>

<path d="M469 1181 c9 -6 15 -30 16 -68 1 -32 6 -77 10 -100 7 -37 4 -47 -25 -90 -29 -44 -31 -52 -24 -98 4 -27 8 -115 9 -195 1 -116 6 -160 24 -222 27 -95 20 -132 -39 -197 -46 -51 -48 -61 -20 -86 24 -21 27 -9 5 16 -15 15 -13 21 24 63 63 73 68 101 37 228 -24 95 -26 115 -18 195 7 66 5 103 -5 148 -17 70 -11 110 20 143 17 18 22 34 20 70 -1 26 -2 72 -3 102 -2 80 -8 100 -28 100 -14 0 -14 -2 -3 -9z" transform="translate(0,126) scale(0.1,-0.1)" stroke="none" fill="#936C3F"/>

<path d="M185 1180 c-3 -5 -5 -29 -4 -52 1 -24 -4 -66 -11 -93 -11 -46 -11 -54 8 -93 42 -88 41 -91 -62 -235 -66 -90 -80 -145 -81 -297 0 -130 1 -137 30 -195 39 -77 67 -96 152 -105 38 -4 90 -18 118 -31 43 -20 65 -24 157 -24 96 0 130 6 117 20 -3 2 -36 6 -75 8 -38 3 -50 2 -26 0 23 -2 42 -9 42 -15 0 -21 -159 -2 -223 26 -36 16 -76 26 -106 26 -91 0 -151 64 -171 182 -28 165 7 315 103 441 66 86 74 111 52 163 -32 74 -35 94 -19 139 9 27 12 59 8 83 -8 53 8 61 52 25 63 -50 78 -56 115 -49 23 4 43 18 63 43 l29 38 -34 -31 c-54 -50 -88 -51 -151 -4 -54 41 -72 48 -83 30z" transform="translate(0,126) scale(0.1,-0.1)" stroke="none" fill="#936C3F"/>

<path d="M195 1169 c-4 -6 -4 -26 -1 -45 4 -20 1 -51 -8 -78 -16 -46 -13 -65 19 -140 22 -52 14 -77 -52 -163 -69 -90 -103 -180 -110 -288 -14 -209 53 -335 178 -335 30 0 70 -10 106 -26 65 -28 223 -47 223 -25 0 7 -20 11 -55 11 -39 0 -55 4 -55 13 0 8 -9 22 -20 32 -28 25 -26 35 20 86 59 65 66 102 39 197 -18 62 -23 106 -24 222 -1 80 -5 168 -9 195 -7 46 -5 54 24 98 29 43 32 53 25 90 -5 23 -9 65 -11 92 -1 28 -3 56 -3 63 -2 23 -30 12 -59 -24 -22 -26 -39 -37 -68 -41 -35 -4 -45 0 -89 36 -53 44 -60 47 -70 30z" transform="translate(0,126) scale(0.1,-0.1)" stroke="none" fill="#F3A181"/>

</g>

<g id="2" transform="translate(164.0,0)scale(1,1)">

<path d="M674 339 c-18 -20 -18 -21 14 -45 18 -14 32 -31 32 -38 0 -18 24 -66 33 -66 15 0 7 105 -11 125 -35 42 -47 47 -68 24z" transform="translate(0,126) scale(0.1,-0.1)" stroke="none" fill="#F3A181"/>

<path d="M669 344 l-24 -26 33 -27 c17 -15 32 -34 32 -43 0 -9 8 -22 18 -29 14 -11 15 -11 5 1 -7 8 -13 22 -13 31 0 10 -15 29 -32 43 l-33 25 21 21 21 21 32 -31 c26 -27 31 -39 31 -81 0 -42 -5 -55 -30 -82 -31 -33 -37 -47 -20 -47 5 0 22 18 37 41 46 69 32 152 -33 196 -18 12 -23 10 -45 -13z" transform="translate(0,126) scale(0.1,-0.1)" stroke="none" fill="#936C3F"/>

<path d="M469 1181 c9 -6 15 -30 16 -68 1 -32 6 -77 10 -100 7 -37 4 -47 -25 -90 -29 -44 -31 -52 -24 -98 4 -27 8 -115 9 -195 1 -116 6 -160 24 -222 27 -95 20 -132 -39 -197 -46 -51 -48 -61 -20 -86 24 -21 27 -9 5 16 -15 15 -13 21 24 63 63 73 68 101 37 228 -24 95 -26 115 -18 195 7 66 5 103 -5 148 -17 70 -11 110 20 143 17 18 22 34 20 70 -1 26 -2 72 -3 102 -2 80 -8 100 -28 100 -14 0 -14 -2 -3 -9z" transform="translate(0,126) scale(0.1,-0.1)" stroke="none" fill="#936C3F"/>

<path d="M185 1180 c-3 -5 -5 -29 -4 -52 1 -24 -4 -66 -11 -93 -11 -46 -11 -54 8 -93 42 -88 41 -91 -62 -235 -66 -90 -80 -145 -81 -297 0 -130 1 -137 30 -195 39 -77 67 -96 152 -105 38 -4 90 -18 118 -31 43 -20 65 -24 157 -24 96 0 130 6 117 20 -3 2 -36 6 -75 8 -38 3 -50 2 -26 0 23 -2 42 -9 42 -15 0 -21 -159 -2 -223 26 -36 16 -76 26 -106 26 -91 0 -151 64 -171 182 -28 165 7 315 103 441 66 86 74 111 52 163 -32 74 -35 94 -19 139 9 27 12 59 8 83 -8 53 8 61 52 25 63 -50 78 -56 115 -49 23 4 43 18 63 43 l29 38 -34 -31 c-54 -50 -88 -51 -151 -4 -54 41 -72 48 -83 30z" transform="translate(0,126) scale(0.1,-0.1)" stroke="none" fill="#936C3F"/>

<path d="M195 1169 c-4 -6 -4 -26 -1 -45 4 -20 1 -51 -8 -78 -16 -46 -13 -65 19 -140 22 -52 14 -77 -52 -163 -69 -90 -103 -180 -110 -288 -14 -209 53 -335 178 -335 30 0 70 -10 106 -26 65 -28 223 -47 223 -25 0 7 -20 11 -55 11 -39 0 -55 4 -55 13 0 8 -9 22 -20 32 -28 25 -26 35 20 86 59 65 66 102 39 197 -18 62 -23 106 -24 222 -1 80 -5 168 -9 195 -7 46 -5 54 24 98 29 43 32 53 25 90 -5 23 -9 65 -11 92 -1 28 -3 56 -3 63 -2 23 -30 12 -59 -24 -22 -26 -39 -37 -68 -41 -35 -4 -45 0 -89 36 -53 44 -60 47 -70 30z" transform="translate(0,126) scale(0.1,-0.1)" stroke="none" fill="#F3A181"/>

</g>

<g id="3" transform="translate(246.0,0)scale(1,1)">

<path d="M674 339 c-18 -20 -18 -21 14 -45 18 -14 32 -31 32 -38 0 -18 24 -66 33 -66 15 0 7 105 -11 125 -35 42 -47 47 -68 24z" transform="translate(0,126) scale(0.1,-0.1)" stroke="none" fill="#F3A181"/>

<path d="M669 344 l-24 -26 33 -27 c17 -15 32 -34 32 -43 0 -9 8 -22 18 -29 14 -11 15 -11 5 1 -7 8 -13 22 -13 31 0 10 -15 29 -32 43 l-33 25 21 21 21 21 32 -31 c26 -27 31 -39 31 -81 0 -42 -5 -55 -30 -82 -31 -33 -37 -47 -20 -47 5 0 22 18 37 41 46 69 32 152 -33 196 -18 12 -23 10 -45 -13z" transform="translate(0,126) scale(0.1,-0.1)" stroke="none" fill="#936C3F"/>

<path d="M469 1181 c9 -6 15 -30 16 -68 1 -32 6 -77 10 -100 7 -37 4 -47 -25 -90 -29 -44 -31 -52 -24 -98 4 -27 8 -115 9 -195 1 -116 6 -160 24 -222 27 -95 20 -132 -39 -197 -46 -51 -48 -61 -20 -86 24 -21 27 -9 5 16 -15 15 -13 21 24 63 63 73 68 101 37 228 -24 95 -26 115 -18 195 7 66 5 103 -5 148 -17 70 -11 110 20 143 17 18 22 34 20 70 -1 26 -2 72 -3 102 -2 80 -8 100 -28 100 -14 0 -14 -2 -3 -9z" transform="translate(0,126) scale(0.1,-0.1)" stroke="none" fill="#936C3F"/>

<path d="M185 1180 c-3 -5 -5 -29 -4 -52 1 -24 -4 -66 -11 -93 -11 -46 -11 -54 8 -93 42 -88 41 -91 -62 -235 -66 -90 -80 -145 -81 -297 0 -130 1 -137 30 -195 39 -77 67 -96 152 -105 38 -4 90 -18 118 -31 43 -20 65 -24 157 -24 96 0 130 6 117 20 -3 2 -36 6 -75 8 -38 3 -50 2 -26 0 23 -2 42 -9 42 -15 0 -21 -159 -2 -223 26 -36 16 -76 26 -106 26 -91 0 -151 64 -171 182 -28 165 7 315 103 441 66 86 74 111 52 163 -32 74 -35 94 -19 139 9 27 12 59 8 83 -8 53 8 61 52 25 63 -50 78 -56 115 -49 23 4 43 18 63 43 l29 38 -34 -31 c-54 -50 -88 -51 -151 -4 -54 41 -72 48 -83 30z" transform="translate(0,126) scale(0.1,-0.1)" stroke="none" fill="#936C3F"/>

<path d="M195 1169 c-4 -6 -4 -26 -1 -45 4 -20 1 -51 -8 -78 -16 -46 -13 -65 19 -140 22 -52 14 -77 -52 -163 -69 -90 -103 -180 -110 -288 -14 -209 53 -335 178 -335 30 0 70 -10 106 -26 65 -28 223 -47 223 -25 0 7 -20 11 -55 11 -39 0 -55 4 -55 13 0 8 -9 22 -20 32 -28 25 -26 35 20 86 59 65 66 102 39 197 -18 62 -23 106 -24 222 -1 80 -5 168 -9 195 -7 46 -5 54 24 98 29 43 32 53 25 90 -5 23 -9 65 -11 92 -1 28 -3 56 -3 63 -2 23 -30 12 -59 -24 -22 -26 -39 -37 -68 -41 -35 -4 -45 0 -89 36 -53 44 -60 47 -70 30z" transform="translate(0,126) scale(0.1,-0.1)" stroke="none" fill="#F3A181"/>

</g>

<g id="4" transform="translate(328.0,0)scale(1,1)">

<path d="M674 339 c-18 -20 -18 -21 14 -45 18 -14 32 -31 32 -38 0 -18 24 -66 33 -66 15 0 7 105 -11 125 -35 42 -47 47 -68 24z" transform="translate(0,126) scale(0.1,-0.1)" stroke="none" fill="#F3A181"/>

<path d="M669 344 l-24 -26 33 -27 c17 -15 32 -34 32 -43 0 -9 8 -22 18 -29 14 -11 15 -11 5 1 -7 8 -13 22 -13 31 0 10 -15 29 -32 43 l-33 25 21 21 21 21 32 -31 c26 -27 31 -39 31 -81 0 -42 -5 -55 -30 -82 -31 -33 -37 -47 -20 -47 5 0 22 18 37 41 46 69 32 152 -33 196 -18 12 -23 10 -45 -13z" transform="translate(0,126) scale(0.1,-0.1)" stroke="none" fill="#936C3F"/>

<path d="M469 1181 c9 -6 15 -30 16 -68 1 -32 6 -77 10 -100 7 -37 4 -47 -25 -90 -29 -44 -31 -52 -24 -98 4 -27 8 -115 9 -195 1 -116 6 -160 24 -222 27 -95 20 -132 -39 -197 -46 -51 -48 -61 -20 -86 24 -21 27 -9 5 16 -15 15 -13 21 24 63 63 73 68 101 37 228 -24 95 -26 115 -18 195 7 66 5 103 -5 148 -17 70 -11 110 20 143 17 18 22 34 20 70 -1 26 -2 72 -3 102 -2 80 -8 100 -28 100 -14 0 -14 -2 -3 -9z" transform="translate(0,126) scale(0.1,-0.1)" stroke="none" fill="#936C3F"/>

<path d="M185 1180 c-3 -5 -5 -29 -4 -52 1 -24 -4 -66 -11 -93 -11 -46 -11 -54 8 -93 42 -88 41 -91 -62 -235 -66 -90 -80 -145 -81 -297 0 -130 1 -137 30 -195 39 -77 67 -96 152 -105 38 -4 90 -18 118 -31 43 -20 65 -24 157 -24 96 0 130 6 117 20 -3 2 -36 6 -75 8 -38 3 -50 2 -26 0 23 -2 42 -9 42 -15 0 -21 -159 -2 -223 26 -36 16 -76 26 -106 26 -91 0 -151 64 -171 182 -28 165 7 315 103 441 66 86 74 111 52 163 -32 74 -35 94 -19 139 9 27 12 59 8 83 -8 53 8 61 52 25 63 -50 78 -56 115 -49 23 4 43 18 63 43 l29 38 -34 -31 c-54 -50 -88 -51 -151 -4 -54 41 -72 48 -83 30z" transform="translate(0,126) scale(0.1,-0.1)" stroke="none" fill="#936C3F"/>

<path d="M195 1169 c-4 -6 -4 -26 -1 -45 4 -20 1 -51 -8 -78 -16 -46 -13 -65 19 -140 22 -52 14 -77 -52 -163 -69 -90 -103 -180 -110 -288 -14 -209 53 -335 178 -335 30 0 70 -10 106 -26 65 -28 223 -47 223 -25 0 7 -20 11 -55 11 -39 0 -55 4 -55 13 0 8 -9 22 -20 32 -28 25 -26 35 20 86 59 65 66 102 39 197 -18 62 -23 106 -24 222 -1 80 -5 168 -9 195 -7 46 -5 54 24 98 29 43 32 53 25 90 -5 23 -9 65 -11 92 -1 28 -3 56 -3 63 -2 23 -30 12 -59 -24 -22 -26 -39 -37 -68 -41 -35 -4 -45 0 -89 36 -53 44 -60 47 -70 30z" transform="translate(0,126) scale(0.1,-0.1)" stroke="none" fill="#F3A181"/>

</g>

</g>
<g id="row3" transform="translate(-31,378.0)">
<g id="0" transform="translate(0.0,0)scale(1,1)">

<path d="M674 339 c-18 -20 -18 -21 14 -45 18 -14 32 -31 32 -38 0 -18 24 -66 33 -66 15 0 7 105 -11 125 -35 42 -47 47 -68 24z" transform="translate(0,126) scale(0.1,-0.1)" stroke="none" fill="#F3A181"/>

<path d="M669 344 l-24 -26 33 -27 c17 -15 32 -34 32 -43 0 -9 8 -22 18 -29 14 -11 15 -11 5 1 -7 8 -13 22 -13 31 0 10 -15 29 -32 43 l-33 25 21 21 21 21 32 -31 c26 -27 31 -39 31 -81 0 -42 -5 -55 -30 -82 -31 -33 -37 -47 -20 -47 5 0 22 18 37 41 46 69 32 152 -33 196 -18 12 -23 10 -45 -13z" transform="translate(0,126) scale(0.1,-0.1)" stroke="none" fill="#936C3F"/>

<path d="M469 1181 c9 -6 15 -30 16 -68 1 -32 6 -77 10 -100 7 -37 4 -47 -25 -90 -29 -44 -31 -52 -24 -98 4 -27 8 -115 9 -195 1 -116 6 -160 24 -222 27 -95 20 -132 -39 -197 -46 -51 -48 -61 -20 -86 24 -21 27 -9 5 16 -15 15 -13 21 24 63 63 73 68 101 37 228 -24 95 -26 115 -18 195 7 66 5 103 -5 148 -17 70 -11 110 20 143 17 18 22 34 20 70 -1 26 -2 72 -3 102 -2 80 -8 100 -28 100 -14 0 -14 -2 -3 -9z" transform="translate(0,126) scale(0.1,-0.1)" stroke="none" fill="#936C3F"/>

<path d="M185 1180 c-3 -5 -5 -29 -4 -52 1 -24 -4 -66 -11 -93 -11 -46 -11 -54 8 -93 42 -88 41 -91 -62 -235 -66 -90 -80 -145 -81 -297 0 -130 1 -137 30 -195 39 -77 67 -96 152 -105 38 -4 90 -18 118 -31 43 -20 65 -24 157 -24 96 0 130 6 117 20 -3 2 -36 6 -75 8 -38 3 -50 2 -26 0 23 -2 42 -9 42 -15 0 -21 -159 -2 -223 26 -36 16 -76 26 -106 26 -91 0 -151 64 -171 182 -28 165 7 315 103 441 66 86 74 111 52 163 -32 74 -35 94 -19 139 9 27 12 59 8 83 -8 53 8 61 52 25 63 -50 78 -56 115 -49 23 4 43 18 63 43 l29 38 -34 -31 c-54 -50 -88 -51 -151 -4 -54 41 -72 48 -83 30z" transform="translate(0,126) scale(0.1,-0.1)" stroke="none" fill="#936C3F"/>

<path d="M195 1169 c-4 -6 -4 -26 -1 -45 4 -20 1 -51 -8 -78 -16 -46 -13 -65 19 -140 22 -52 14 -77 -52 -163 -69 -90 -103 -180 -110 -288 -14 -209 53 -335 178 -335 30 0 70 -10 106 -26 65 -28 223 -47 223 -25 0 7 -20 11 -55 11 -39 0 -55 4 -55 13 0 8 -9 22 -20 32 -28 25 -26 35 20 86 59 65 66 102 39 197 -18 62 -23 106 -24 222 -1 80 -5 168 -9 195 -7 46 -5 54 24 98 29 43 32 53 25 90 -5 23 -9 65 -11 92 -1 28 -3 56 -3 63 -2 23 -30 12 -59 -24 -22 -26 -39 -37 -68 -41 -35 -4 -45 0 -89 36 -53 44 -60 47 -70 30z" transform="translate(0,126) scale(0.1,-0.1)" stroke="none" fill="#F3A181"/>

</g>

<g id="1" transform="translate(82.0,0)scale(1,1)">

<path d="M674 339 c-18 -20 -18 -21 14 -45 18 -14 32 -31 32 -38 0 -18 24 -66 33 -66 15 0 7 105 -11 125 -35 42 -47 47 -68 24z" transform="translate(0,126) scale(0.1,-0.1)" stroke="none" fill="#F3A181"/>

<path d="M669 344 l-24 -26 33 -27 c17 -15 32 -34 32 -43 0 -9 8 -22 18 -29 14 -11 15 -11 5 1 -7 8 -13 22 -13 31 0 10 -15 29 -32 43 l-33 25 21 21 21 21 32 -31 c26 -27 31 -39 31 -81 0 -42 -5 -55 -30 -82 -31 -33 -37 -47 -20 -47 5 0 22 18 37 41 46 69 32 152 -33 196 -18 12 -23 10 -45 -13z" transform="translate(0,126) scale(0.1,-0.1)" stroke="none" fill="#936C3F"/>

<path d="M469 1181 c9 -6 15 -30 16 -68 1 -32 6 -77 10 -100 7 -37 4 -47 -25 -90 -29 -44 -31 -52 -24 -98 4 -27 8 -115 9 -195 1 -116 6 -160 24 -222 27 -95 20 -132 -39 -197 -46 -51 -48 -61 -20 -86 24 -21 27 -9 5 16 -15 15 -13 21 24 63 63 73 68 101 37 228 -24 95 -26 115 -18 195 7 66 5 103 -5 148 -17 70 -11 110 20 143 17 18 22 34 20 70 -1 26 -2 72 -3 102 -2 80 -8 100 -28 100 -14 0 -14 -2 -3 -9z" transform="translate(0,126) scale(0.1,-0.1)" stroke="none" fill="#936C3F"/>

<path d="M185 1180 c-3 -5 -5 -29 -4 -52 1 -24 -4 -66 -11 -93 -11 -46 -11 -54 8 -93 42 -88 41 -91 -62 -235 -66 -90 -80 -145 -81 -297 0 -130 1 -137 30 -195 39 -77 67 -96 152 -105 38 -4 90 -18 118 -31 43 -20 65 -24 157 -24 96 0 130 6 117 20 -3 2 -36 6 -75 8 -38 3 -50 2 -26 0 23 -2 42 -9 42 -15 0 -21 -159 -2 -223 26 -36 16 -76 26 -106 26 -91 0 -151 64 -171 182 -28 165 7 315 103 441 66 86 74 111 52 163 -32 74 -35 94 -19 139 9 27 12 59 8 83 -8 53 8 61 52 25 63 -50 78 -56 115 -49 23 4 43 18 63 43 l29 38 -34 -31 c-54 -50 -88 -51 -151 -4 -54 41 -72 48 -83 30z" transform="translate(0,126) scale(0.1,-0.1)" stroke="none" fill="#936C3F"/>

<path d="M195 1169 c-4 -6 -4 -26 -1 -45 4 -20 1 -51 -8 -78 -16 -46 -13 -65 19 -140 22 -52 14 -77 -52 -163 -69 -90 -103 -180 -110 -288 -14 -209 53 -335 178 -335 30 0 70 -10 106 -26 65 -28 223 -47 223 -25 0 7 -20 11 -55 11 -39 0 -55 4 -55 13 0 8 -9 22 -20 32 -28 25 -26 35 20 86 59 65 66 102 39 197 -18 62 -23 106 -24 222 -1 80 -5 168 -9 195 -7 46 -5 54 24 98 29 43 32 53 25 90 -5 23 -9 65 -11 92 -1 28 -3 56 -3 63 -2 23 -30 12 -59 -24 -22 -26 -39 -37 -68 -41 -35 -4 -45 0 -89 36 -53 44 -60 47 -70 30z" transform="translate(0,126) scale(0.1,-0.1)" stroke="none" fill="#F3A181"/>

</g>

<g id="2" transform="translate(164.0,0)scale(1,1)">

<path d="M674 339 c-18 -20 -18 -21 14 -45 18 -14 32 -31 32 -38 0 -18 24 -66 33 -66 15 0 7 105 -11 125 -35 42 -47 47 -68 24z" transform="translate(0,126) scale(0.1,-0.1)" stroke="none" fill="#F3A181"/>

<path d="M669 344 l-24 -26 33 -27 c17 -15 32 -34 32 -43 0 -9 8 -22 18 -29 14 -11 15 -11 5 1 -7 8 -13 22 -13 31 0 10 -15 29 -32 43 l-33 25 21 21 21 21 32 -31 c26 -27 31 -39 31 -81 0 -42 -5 -55 -30 -82 -31 -33 -37 -47 -20 -47 5 0 22 18 37 41 46 69 32 152 -33 196 -18 12 -23 10 -45 -13z" transform="translate(0,126) scale(0.1,-0.1)" stroke="none" fill="#936C3F"/>

<path d="M469 1181 c9 -6 15 -30 16 -68 1 -32 6 -77 10 -100 7 -37 4 -47 -25 -90 -29 -44 -31 -52 -24 -98 4 -27 8 -115 9 -195 1 -116 6 -160 24 -222 27 -95 20 -132 -39 -197 -46 -51 -48 -61 -20 -86 24 -21 27 -9 5 16 -15 15 -13 21 24 63 63 73 68 101 37 228 -24 95 -26 115 -18 195 7 66 5 103 -5 148 -17 70 -11 110 20 143 17 18 22 34 20 70 -1 26 -2 72 -3 102 -2 80 -8 100 -28 100 -14 0 -14 -2 -3 -9z" transform="translate(0,126) scale(0.1,-0.1)" stroke="none" fill="#936C3F"/>

<path d="M185 1180 c-3 -5 -5 -29 -4 -52 1 -24 -4 -66 -11 -93 -11 -46 -11 -54 8 -93 42 -88 41 -91 -62 -235 -66 -90 -80 -145 -81 -297 0 -130 1 -137 30 -195 39 -77 67 -96 152 -105 38 -4 90 -18 118 -31 43 -20 65 -24 157 -24 96 0 130 6 117 20 -3 2 -36 6 -75 8 -38 3 -50 2 -26 0 23 -2 42 -9 42 -15 0 -21 -159 -2 -223 26 -36 16 -76 26 -106 26 -91 0 -151 64 -171 182 -28 165 7 315 103 441 66 86 74 111 52 163 -32 74 -35 94 -19 139 9 27 12 59 8 83 -8 53 8 61 52 25 63 -50 78 -56 115 -49 23 4 43 18 63 43 l29 38 -34 -31 c-54 -50 -88 -51 -151 -4 -54 41 -72 48 -83 30z" transform="translate(0,126) scale(0.1,-0.1)" stroke="none" fill="#936C3F"/>

<path d="M195 1169 c-4 -6 -4 -26 -1 -45 4 -20 1 -51 -8 -78 -16 -46 -13 -65 19 -140 22 -52 14 -77 -52 -163 -69 -90 -103 -180 -110 -288 -14 -209 53 -335 178 -335 30 0 70 -10 106 -26 65 -28 223 -47 223 -25 0 7 -20 11 -55 11 -39 0 -55 4 -55 13 0 8 -9 22 -20 32 -28 25 -26 35 20 86 59 65 66 102 39 197 -18 62 -23 106 -24 222 -1 80 -5 168 -9 195 -7 46 -5 54 24 98 29 43 32 53 25 90 -5 23 -9 65 -11 92 -1 28 -3 56 -3 63 -2 23 -30 12 -59 -24 -22 -26 -39 -37 -68 -41 -35 -4 -45 0 -89 36 -53 44 -60 47 -70 30z" transform="translate(0,126) scale(0.1,-0.1)" stroke="none" fill="#F3A181"/>

</g>

<g id="3" transform="translate(246.0,0)scale(1,1)">

<path d="M674 339 c-18 -20 -18 -21 14 -45 18 -14 32 -31 32 -38 0 -18 24 -66 33 -66 15 0 7 105 -11 125 -35 42 -47 47 -68 24z" transform="translate(0,126) scale(0.1,-0.1)" stroke="none" fill="#F3A181"/>

<path d="M669 344 l-24 -26 33 -27 c17 -15 32 -34 32 -43 0 -9 8 -22 18 -29 14 -11 15 -11 5 1 -7 8 -13 22 -13 31 0 10 -15 29 -32 43 l-33 25 21 21 21 21 32 -31 c26 -27 31 -39 31 -81 0 -42 -5 -55 -30 -82 -31 -33 -37 -47 -20 -47 5 0 22 18 37 41 46 69 32 152 -33 196 -18 12 -23 10 -45 -13z" transform="translate(0,126) scale(0.1,-0.1)" stroke="none" fill="#936C3F"/>

<path d="M469 1181 c9 -6 15 -30 16 -68 1 -32 6 -77 10 -100 7 -37 4 -47 -25 -90 -29 -44 -31 -52 -24 -98 4 -27 8 -115 9 -195 1 -116 6 -160 24 -222 27 -95 20 -132 -39 -197 -46 -51 -48 -61 -20 -86 24 -21 27 -9 5 16 -15 15 -13 21 24 63 63 73 68 101 37 228 -24 95 -26 115 -18 195 7 66 5 103 -5 148 -17 70 -11 110 20 143 17 18 22 34 20 70 -1 26 -2 72 -3 102 -2 80 -8 100 -28 100 -14 0 -14 -2 -3 -9z" transform="translate(0,126) scale(0.1,-0.1)" stroke="none" fill="#936C3F"/>

<path d="M185 1180 c-3 -5 -5 -29 -4 -52 1 -24 -4 -66 -11 -93 -11 -46 -11 -54 8 -93 42 -88 41 -91 -62 -235 -66 -90 -80 -145 -81 -297 0 -130 1 -137 30 -195 39 -77 67 -96 152 -105 38 -4 90 -18 118 -31 43 -20 65 -24 157 -24 96 0 130 6 117 20 -3 2 -36 6 -75 8 -38 3 -50 2 -26 0 23 -2 42 -9 42 -15 0 -21 -159 -2 -223 26 -36 16 -76 26 -106 26 -91 0 -151 64 -171 182 -28 165 7 315 103 441 66 86 74 111 52 163 -32 74 -35 94 -19 139 9 27 12 59 8 83 -8 53 8 61 52 25 63 -50 78 -56 115 -49 23 4 43 18 63 43 l29 38 -34 -31 c-54 -50 -88 -51 -151 -4 -54 41 -72 48 -83 30z" transform="translate(0,126) scale(0.1,-0.1)" stroke="none" fill="#936C3F"/>

<path d="M195 1169 c-4 -6 -4 -26 -1 -45 4 -20 1 -51 -8 -78 -16 -46 -13 -65 19 -140 22 -52 14 -77 -52 -163 -69 -90 -103 -180 -110 -288 -14 -209 53 -335 178 -335 30 0 70 -10 106 -26 65 -28 223 -47 223 -25 0 7 -20 11 -55 11 -39 0 -55 4 -55 13 0 8 -9 22 -20 32 -28 25 -26 35 20 86 59 65 66 102 39 197 -18 62 -23 106 -24 222 -1 80 -5 168 -9 195 -7 46 -5 54 24 98 29 43 32 53 25 90 -5 23 -9 65 -11 92 -1 28 -3 56 -3 63 -2 23 -30 12 -59 -24 -22 -26 -39 -37 -68 -41 -35 -4 -45 0 -89 36 -53 44 -60 47 -70 30z" transform="translate(0,126) scale(0.1,-0.1)" stroke="none" fill="#F3A181"/>

</g>

<g id="4" transform="translate(328.0,0)scale(1,1)">

<path d="M674 339 c-18 -20 -18 -21 14 -45 18 -14 32 -31 32 -38 0 -18 24 -66 33 -66 15 0 7 105 -11 125 -35 42 -47 47 -68 24z" transform="translate(0,126) scale(0.1,-0.1)" stroke="none" fill="#F3A181"/>

<path d="M669 344 l-24 -26 33 -27 c17 -15 32 -34 32 -43 0 -9 8 -22 18 -29 14 -11 15 -11 5 1 -7 8 -13 22 -13 31 0 10 -15 29 -32 43 l-33 25 21 21 21 21 32 -31 c26 -27 31 -39 31 -81 0 -42 -5 -55 -30 -82 -31 -33 -37 -47 -20 -47 5 0 22 18 37 41 46 69 32 152 -33 196 -18 12 -23 10 -45 -13z" transform="translate(0,126) scale(0.1,-0.1)" stroke="none" fill="#936C3F"/>

<path d="M469 1181 c9 -6 15 -30 16 -68 1 -32 6 -77 10 -100 7 -37 4 -47 -25 -90 -29 -44 -31 -52 -24 -98 4 -27 8 -115 9 -195 1 -116 6 -160 24 -222 27 -95 20 -132 -39 -197 -46 -51 -48 -61 -20 -86 24 -21 27 -9 5 16 -15 15 -13 21 24 63 63 73 68 101 37 228 -24 95 -26 115 -18 195 7 66 5 103 -5 148 -17 70 -11 110 20 143 17 18 22 34 20 70 -1 26 -2 72 -3 102 -2 80 -8 100 -28 100 -14 0 -14 -2 -3 -9z" transform="translate(0,126) scale(0.1,-0.1)" stroke="none" fill="#936C3F"/>

<path d="M185 1180 c-3 -5 -5 -29 -4 -52 1 -24 -4 -66 -11 -93 -11 -46 -11 -54 8 -93 42 -88 41 -91 -62 -235 -66 -90 -80 -145 -81 -297 0 -130 1 -137 30 -195 39 -77 67 -96 152 -105 38 -4 90 -18 118 -31 43 -20 65 -24 157 -24 96 0 130 6 117 20 -3 2 -36 6 -75 8 -38 3 -50 2 -26 0 23 -2 42 -9 42 -15 0 -21 -159 -2 -223 26 -36 16 -76 26 -106 26 -91 0 -151 64 -171 182 -28 165 7 315 103 441 66 86 74 111 52 163 -32 74 -35 94 -19 139 9 27 12 59 8 83 -8 53 8 61 52 25 63 -50 78 -56 115 -49 23 4 43 18 63 43 l29 38 -34 -31 c-54 -50 -88 -51 -151 -4 -54 41 -72 48 -83 30z" transform="translate(0,126) scale(0.1,-0.1)" stroke="none" fill="#936C3F"/>

<path d="M195 1169 c-4 -6 -4 -26 -1 -45 4 -20 1 -51 -8 -78 -16 -46 -13 -65 19 -140 22 -52 14 -77 -52 -163 -69 -90 -103 -180 -110 -288 -14 -209 53 -335 178 -335 30 0 70 -10 106 -26 65 -28 223 -47 223 -25 0 7 -20 11 -55 11 -39 0 -55 4 -55 13 0 8 -9 22 -20 32 -28 25 -26 35 20 86 59 65 66 102 39 197 -18 62 -23 106 -24 222 -1 80 -5 168 -9 195 -7 46 -5 54 24 98 29 43 32 53 25 90 -5 23 -9 65 -11 92 -1 28 -3 56 -3 63 -2 23 -30 12 -59 -24 -22 -26 -39 -37 -68 -41 -35 -4 -45 0 -89 36 -53 44 -60 47 -70 30z" transform="translate(0,126) scale(0.1,-0.1)" stroke="none" fill="#F3A181"/>

</g>

</g>
</svg>