<?xml version="1.0" standalone="no"?>
<!DOCTYPE svg PUBLIC "-//W3C//DTD SVG 20010904//EN"
 "http://www.w3.org/TR/2001/REC-SVG-20010904/DTD/svg10.dtd">
<svg version="1.0" xmlns="http://www.w3.org/2000/svg" width="288pt" height="320pt" viewBox="0 0 288 320" preserveAspectRatio = "xMidYMid meet" >
<metadata>
Created by ZoeQu, written in 2022
</metadata>
<rect width="288" height="320" fill="#394E52"/>
<g id="row0" transform="translate(9,0.0)">
<g id="0" transform="translate(0.0,0)scale(1,1)">

<path d="M463 762 c-8 -5 -10 -17 -4 -37 6 -26 12 -30 42 -30 40 0 51 25 23 56 -18 20 -41 24 -61 11z" transform="translate(0,80) scale(0.1,-0.1)" stroke="none" fill="#B28D77"/>

<path d="M480 681 c0 -6 7 -8 15 -5 19 8 122 -85 148 -133 11 -22 21 -66 24 -109 5 -62 3 -78 -16 -109 -11 -20 -21 -42 -21 -49 0 -28 -202 -206 -235 -206 -12 0 -26 -5 -32 -11 -8 -8 -49 -10 -126 -7 -141 5 -180 22 -185 81 -2 20 0 37 5 37 80 4 120 11 178 30 81 25 146 58 158 77 4 7 16 13 27 13 23 0 38 39 19 51 -10 6 -11 9 -1 9 6 0 12 6 12 14 0 9 7 12 20 9 11 -3 20 -1 21 3 0 5 2 16 5 24 15 57 23 113 24 165 0 49 -4 64 -20 78 -20 17 -20 16 -20 -93 0 -67 -4 -110 -10 -110 -5 0 -10 -9 -10 -20 0 -11 -4 -20 -10 -20 -5 0 -10 -6 -10 -14 0 -8 -20 -37 -45 -64 -46 -52 -93 -82 -126 -82 -10 0 -21 -5 -24 -10 -3 -6 -26 -10 -50 -10 -24 0 -47 -4 -50 -10 -3 -5 -22 -10 -41 -10 -47 0 -66 -21 -68 -74 -1 -38 2 -46 29 -64 32 -22 161 -40 240 -34 56 4 136 31 161 53 11 11 25 19 31 19 22 0 146 146 171 200 20 43 26 70 25 124 -1 38 -5 71 -10 75 -4 3 -17 23 -28 45 -10 21 -39 58 -62 82 -24 23 -43 47 -43 51 0 5 -16 10 -35 11 -19 2 -35 -2 -35 -7z" transform="translate(0,80) scale(0.1,-0.1)" stroke="none" fill="#3C6F7D"/>

<path d="M485 670 c-3 -5 3 -17 15 -27 28 -25 27 -127 -4 -243 -3 -8 -5 -19 -5 -24 -1 -4 -10 -6 -21 -3 -13 3 -20 0 -20 -9 0 -8 -6 -14 -12 -14 -10 0 -9 -3 1 -9 19 -12 4 -51 -19 -51 -11 0 -23 -6 -27 -13 -12 -19 -77 -52 -158 -77 -58 -19 -98 -26 -178 -30 -5 0 -7 -17 -5 -37 5 -59 44 -76 185 -81 77 -3 118 -1 126 7 6 6 20 11 32 11 33 0 235 178 235 206 0 7 10 29 21 49 19 31 21 47 16 109 -6 90 -26 129 -99 195 -56 51 -72 59 -83 41z" transform="translate(0,80) scale(0.1,-0.1)" stroke="none" fill="#2B3032"/>

</g>

<g id="1" transform="translate(72.0,0)scale(1,1)">

<path d="M463 762 c-8 -5 -10 -17 -4 -37 6 -26 12 -30 42 -30 40 0 51 25 23 56 -18 20 -41 24 -61 11z" transform="translate(0,80) scale(0.1,-0.1)" stroke="none" fill="#B28D77"/>

<path d="M480 681 c0 -6 7 -8 15 -5 19 8 122 -85 148 -133 11 -22 21 -66 24 -109 5 -62 3 -78 -16 -109 -11 -20 -21 -42 -21 -49 0 -28 -202 -206 -235 -206 -12 0 -26 -5 -32 -11 -8 -8 -49 -10 -126 -7 -141 5 -180 22 -185 81 -2 20 0 37 5 37 80 4 120 11 178 30 81 25 146 58 158 77 4 7 16 13 27 13 23 0 38 39 19 51 -10 6 -11 9 -1 9 6 0 12 6 12 14 0 9 7 12 20 9 11 -3 20 -1 21 3 0 5 2 16 5 24 15 57 23 113 24 165 0 49 -4 64 -20 78 -20 17 -20 16 -20 -93 0 -67 -4 -110 -10 -110 -5 0 -10 -9 -10 -20 0 -11 -4 -20 -10 -20 -5 0 -10 -6 -10 -14 0 -8 -20 -37 -45 -64 -46 -52 -93 -82 -126 -82 -10 0 -21 -5 -24 -10 -3 -6 -26 -10 -50 -10 -24 0 -47 -4 -50 -10 -3 -5 -22 -10 -41 -10 -47 0 -66 -21 -68 -74 -1 -38 2 -46 29 -64 32 -22 161 -40 240 -34 56 4 136 31 161 53 11 11 25 19 31 19 22 0 146 146 171 200 20 43 26 70 25 124 -1 38 -5 71 -10 75 -4 3 -17 23 -28 45 -10 21 -39 58 -62 82 -24 23 -43 47 -43 51 0 5 -16 10 -35 11 -19 2 -35 -2 -35 -7z" transform="translate(0,80) scale(0.1,-0.1)" stroke="none" fill="#3C6F7D"/>

<path d="M485 670 c-3 -5 3 -17 15 -27 28 -25 27 -127 -4 -243 -3 -8 -5 -19 -5 -24 -1 -4 -10 -6 -21 -3 -13 3 -20 0 -20 -9 0 -8 -6 -14 -12 -14 -10 0 -9 -3 1 -9 19 -12 4 -51 -19 -51 -11 0 -23 -6 -27 -13 -12 -19 -77 -52 -158 -77 -58 -19 -98 -26 -178 -30 -5 0 -7 -17 -5 -37 5 -59 44 -76 185 -81 77 -3 118 -1 126 7 6 6 20 11 32 11 33 0 235 178 235 206 0 7 10 29 21 49 19 31 21 47 16 109 -6 90 -26 129 -99 195 -56 51 -72 59 -83 41z" transform="translate(0,80) scale(0.1,-0.1)" stroke="none" fill="#2B3032"/>

</g>

<g id="2" transform="translate(144.0,0)scale(1,1)">

<path d="M463 762 c-8 -5 -10 -17 -4 -37 6 -26 12 -30 42 -30 40 0 51 25 23 56 -18 20 -41 24 -61 11z" transform="translate(0,80) scale(0.1,-0.1)" stroke="none" fill="#B28D77"/>

<path d="M480 681 c0 -6 7 -8 15 -5 19 8 122 -85 148 -133 11 -22 21 -66 24 -109 5 -62 3 -78 -16 -109 -11 -20 -21 -42 -21 -49 0 -28 -202 -206 -235 -206 -12 0 -26 -5 -32 -11 -8 -8 -49 -10 -126 -7 -141 5 -180 22 -185 81 -2 20 0 37 5 37 80 4 120 11 178 30 81 25 146 58 158 77 4 7 16 13 27 13 23 0 38 39 19 51 -10 6 -11 9 -1 9 6 0 12 6 12 14 0 9 7 12 20 9 11 -3 20 -1 21 3 0 5 2 16 5 24 15 57 23 113 24 165 0 49 -4 64 -20 78 -20 17 -20 16 -20 -93 0 -67 -4 -110 -10 -110 -5 0 -10 -9 -10 -20 0 -11 -4 -20 -10 -20 -5 0 -10 -6 -10 -14 0 -8 -20 -37 -45 -64 -46 -52 -93 -82 -126 -82 -10 0 -21 -5 -24 -10 -3 -6 -26 -10 -50 -10 -24 0 -47 -4 -50 -10 -3 -5 -22 -10 -41 -10 -47 0 -66 -21 -68 -74 -1 -38 2 -46 29 -64 32 -22 161 -40 240 -34 56 4 136 31 161 53 11 11 25 19 31 19 22 0 146 146 171 200 20 43 26 70 25 124 -1 38 -5 71 -10 75 -4 3 -17 23 -28 45 -10 21 -39 58 -62 82 -24 23 -43 47 -43 51 0 5 -16 10 -35 11 -19 2 -35 -2 -35 -7z" transform="translate(0,80) scale(0.1,-0.1)" stroke="none" fill="#3C6F7D"/>

<path d="M485 670 c-3 -5 3 -17 15 -27 28 -25 27 -127 -4 -243 -3 -8 -5 -19 -5 -24 -1 -4 -10 -6 -21 -3 -13 3 -20 0 -20 -9 0 -8 -6 -14 -12 -14 -10 0 -9 -3 1 -9 19 -12 4 -51 -19 -51 -11 0 -23 -6 -27 -13 -12 -19 -77 -52 -158 -77 -58 -19 -98 -26 -178 -30 -5 0 -7 -17 -5 -37 5 -59 44 -76 185 -81 77 -3 118 -1 126 7 6 6 20 11 32 11 33 0 235 178 235 206 0 7 10 29 21 49 19 31 21 47 16 109 -6 90 -26 129 -99 195 -56 51 -72 59 -83 41z" transform="translate(0,80) scale(0.1,-0.1)" stroke="none" fill="#2B3032"/>

</g>

<g id="3" transform="translate(216.0,0)scale(1,1)">

<path d="M463 762 c-8 -5 -10 -17 -4 -37 6 -26 12 -30 42 -30 40 0 51 25 23 56 -18 20 -41 24 -61 11z" transform="translate(0,80) scale(0.1,-0.1)" stroke="none" fill="#B28D77"/>

<path d="M480 681 c0 -6 7 -8 15 -5 19 8 122 -85 148 -133 11 -22 21 -66 24 -109 5 -62 3 -78 -16 -109 -11 -20 -21 -42 -21 -49 0 -28 -202 -206 -235 -206 -12 0 -26 -5 -32 -11 -8 -8 -49 -10 -126 -7 -141 5 -180 22 -185 81 -2 20 0 37 5 37 80 4 120 11 178 30 81 25 146 58 158 77 4 7 16 13 27 13 23 0 38 39 19 51 -10 6 -11 9 -1 9 6 0 12 6 12 14 0 9 7 12 20 9 11 -3 20 -1 21 3 0 5 2 16 5 24 15 57 23 113 24 165 0 49 -4 64 -20 78 -20 17 -20 16 -20 -93 0 -67 -4 -110 -10 -110 -5 0 -10 -9 -10 -20 0 -11 -4 -20 -10 -20 -5 0 -10 -6 -10 -14 0 -8 -20 -37 -45 -64 -46 -52 -93 -82 -126 -82 -10 0 -21 -5 -24 -10 -3 -6 -26 -10 -50 -10 -24 0 -47 -4 -50 -10 -3 -5 -22 -10 -41 -10 -47 0 -66 -21 -68 -74 -1 -38 2 -46 29 -64 32 -22 161 -40 240 -34 56 4 136 31 161 53 11 11 25 19 31 19 22 0 146 146 171 200 20 43 26 70 25 124 -1 38 -5 71 -10 75 -4 3 -17 23 -28 45 -10 21 -39 58 -62 82 -24 23 -43 47 -43 51 0 5 -16 10 -35 11 -19 2 -35 -2 -35 -7z" transform="translate(0,80) scale(0.1,-0.1)" stroke="none" fill="#3C6F7D"/>

<path d="M485 670 c-3 -5 3 -17 15 -27 28 -25 27 -127 -4 -243 -3 -8 -5 -19 -5 -24 -1 -4 -10 -6 -21 -3 -13 3 -20 0 -20 -9 0 -8 -6 -14 -12 -14 -10 0 -9 -3 1 -9 19 -12 4 -51 -19 -51 -11 0 -23 -6 -27 -13 -12 -19 -77 -52 -158 -77 -58 -19 -98 -26 -178 -30 -5 0 -7 -17 -5 -37 5 -59 44 -76 185 -81 77 -3 118 -1 126 7 6 6 20 11 32 11 33 0 235 178 235 206 0 7 10 29 21 49 19 31 21 47 16 109 -6 90 -26 129 -99 195 -56 51 -72 59 -83 41z" transform="translate(0,80) scale(0.1,-0.1)" stroke="none" fill="#2B3032"/>

</g>

<g id="4" transform="translate(288.0,0)scale(1,1)">

<path d="M463 762 c-8 -5 -10 -17 -4 -37 6 -26 12 -30 42 -30 40 0 51 25 23 56 -18 20 -41 24 -61 11z" transform="translate(0,80) scale(0.1,-0.1)" stroke="none" fill="#B28D77"/>

<path d="M480 681 c0 -6 7 -8 15 -5 19 8 122 -85 148 -133 11 -22 21 -66 24 -109 5 -62 3 -78 -16 -109 -11 -20 -21 -42 -21 -49 0 -28 -202 -206 -235 -206 -12 0 -26 -5 -32 -11 -8 -8 -49 -10 -126 -7 -141 5 -180 22 -185 81 -2 20 0 37 5 37 80 4 120 11 178 30 81 25 146 58 158 77 4 7 16 13 27 13 23 0 38 39 19 51 -10 6 -11 9 -1 9 6 0 12 6 12 14 0 9 7 12 20 9 11 -3 20 -1 21 3 0 5 2 16 5 24 15 57 23 113 24 165 0 49 -4 64 -20 78 -20 17 -20 16 -20 -93 0 -67 -4 -110 -10 -110 -5 0 -10 -9 -10 -20 0 -11 -4 -20 -10 -20 -5 0 -10 -6 -10 -14 0 -8 -20 -37 -45 -64 -46 -52 -93 -82 -126 -82 -10 0 -21 -5 -24 -10 -3 -6 -26 -10 -50 -10 -24 0 -47 -4 -50 -10 -3 -5 -22 -10 -41 -10 -47 0 -66 -21 -68 -74 -1 -38 2 -46 29 -64 32 -22 161 -40 240 -34 56 4 136 31 161 53 11 11 25 19 31 19 22 0 146 146 171 200 20 43 26 70 25 124 -1 38 -5 71 -10 75 -4 3 -17 23 -28 45 -10 21 -39 58 -62 82 -24 23 -43 47 -43 51 0 5 -16 10 -35 11 -19 2 -35 -2 -35 -7z" transform="translate(0,80) scale(0.1,-0.1)" stroke="none" fill="#3C6F7D"/>

<path d="M485 670 c-3 -5 3 -17 15 -27 28 -25 27 -127 -4 -243 -3 -8 -5 -19 -5 -24 -1 -4 -10 -6 -21 -3 -13 3 -20 0 -20 -9 0 -8 -6 -14 -12 -14 -10 0 -9 -3 1 -9 19 -12 4 -51 -19 -51 -11 0 -23 -6 -27 -13 -12 -19 -77 -52 -158 -77 -58 -19 -98 -26 -178 -30 -5 0 -7 -17 -5 -37 5 -59 44 -76 185 -81 77 -3 118 -1 126 7 6 6 20 11 32 11 33 0 235 178 235 206 0 7 10 29 21 49 19 31 21 47 16 109 -6 90 -26 129 -99 195 -56 51 -72 59 -83 41z" transform="translate(0,80) scale(0.1,-0.1)" stroke="none" fill="#2B3032"/>

</g>

</g>
<g id="row1" transform="translate(9,80.0)">
<g id="0" transform="translate(0.0,0)scale(1,1)">

<path d="M463 762 c-8 -5 -10 -17 -4 -37 6 -26 12 -30 42 -30 40 0 51 25 23 56 -18 20 -41 24 -61 11z" transform="translate(0,80) scale(0.1,-0.1)" stroke="none" fill="#B28D77"/>

<path d="M480 681 c0 -6 7 -8 15 -5 19 8 122 -85 148 -133 11 -22 21 -66 24 -109 5 -62 3 -78 -16 -109 -11 -20 -21 -42 -21 -49 0 -28 -202 -206 -235 -206 -12 0 -26 -5 -32 -11 -8 -8 -49 -10 -126 -7 -141 5 -180 22 -185 81 -2 20 0 37 5 37 80 4 120 11 178 30 81 25 146 58 158 77 4 7 16 13 27 13 23 0 38 39 19 51 -10 6 -11 9 -1 9 6 0 12 6 12 14 0 9 7 12 20 9 11 -3 20 -1 21 3 0 5 2 16 5 24 15 57 23 113 24 165 0 49 -4 64 -20 78 -20 17 -20 16 -20 -93 0 -67 -4 -110 -10 -110 -5 0 -10 -9 -10 -20 0 -11 -4 -20 -10 -20 -5 0 -10 -6 -10 -14 0 -8 -20 -37 -45 -64 -46 -52 -93 -82 -126 -82 -10 0 -21 -5 -24 -10 -3 -6 -26 -10 -50 -10 -24 0 -47 -4 -50 -10 -3 -5 -22 -10 -41 -10 -47 0 -66 -21 -68 -74 -1 -38 2 -46 29 -64 32 -22 161 -40 240 -34 56 4 136 31 161 53 11 11 25 19 31 19 22 0 146 146 171 200 20 43 26 70 25 124 -1 38 -5 71 -10 75 -4 3 -17 23 -28 45 -10 21 -39 58 -62 82 -24 23 -43 47 -43 51 0 5 -16 10 -35 11 -19 2 -35 -2 -35 -7z" transform="translate(0,80) scale(0.1,-0.1)" stroke="none" fill="#3C6F7D"/>

<path d="M485 670 c-3 -5 3 -17 15 -27 28 -25 27 -127 -4 -243 -3 -8 -5 -19 -5 -24 -1 -4 -10 -6 -21 -3 -13 3 -20 0 -20 -9 0 -8 -6 -14 -12 -14 -10 0 -9 -3 1 -9 19 -12 4 -51 -19 -51 -11 0 -23 -6 -27 -13 -12 -19 -77 -52 -158 -77 -58 -19 -98 -26 -178 -30 -5 0 -7 -17 -5 -37 5 -59 44 -76 185 -81 77 -3 118 -1 126 7 6 6 20 11 32 11 33 0 235 178 235 206 0 7 10 29 21 49 19 31 21 47 16 109 -6 90 -26 129 -99 195 -56 51 -72 59 -83 41z" transform="translate(0,80) scale(0.1,-0.1)" stroke="none" fill="#2B3032"/>

</g>

<g id="1" transform="translate(72.0,0)scale(1,1)">

<path d="M463 762 c-8 -5 -10 -17 -4 -37 6 -26 12 -30 42 -30 40 0 51 25 23 56 -18 20 -41 24 -61 11z" transform="translate(0,80) scale(0.1,-0.1)" stroke="none" fill="#B28D77"/>

<path d="M480 681 c0 -6 7 -8 15 -5 19 8 122 -85 148 -133 11 -22 21 -66 24 -109 5 -62 3 -78 -16 -109 -11 -20 -21 -42 -21 -49 0 -28 -202 -206 -235 -206 -12 0 -26 -5 -32 -11 -8 -8 -49 -10 -126 -7 -141 5 -180 22 -185 81 -2 20 0 37 5 37 80 4 120 11 178 30 81 25 146 58 158 77 4 7 16 13 27 13 23 0 38 39 19 51 -10 6 -11 9 -1 9 6 0 12 6 12 14 0 9 7 12 20 9 11 -3 20 -1 21 3 0 5 2 16 5 24 15 57 23 113 24 165 0 49 -4 64 -20 78 -20 17 -20 16 -20 -93 0 -67 -4 -110 -10 -110 -5 0 -10 -9 -10 -20 0 -11 -4 -20 -10 -20 -5 0 -10 -6 -10 -14 0 -8 -20 -37 -45 -64 -46 -52 -93 -82 -126 -82 -10 0 -21 -5 -24 -10 -3 -6 -26 -10 -50 -10 -24 0 -47 -4 -50 -10 -3 -5 -22 -10 -41 -10 -47 0 -66 -21 -68 -74 -1 -38 2 -46 29 -64 32 -22 161 -40 240 -34 56 4 136 31 161 53 11 11 25 19 31 19 22 0 146 146 171 200 20 43 26 70 25 124 -1 38 -5 71 -10 75 -4 3 -17 23 -28 45 -10 21 -39 58 -62 82 -24 23 -43 47 -43 51 0 5 -16 10 -35 11 -19 2 -35 -2 -35 -7z" transform="translate(0,80) scale(0.1,-0.1)" stroke="none" fill="#3C6F7D"/>

<path d="M485 670 c-3 -5 3 -17 15 -27 28 -25 27 -127 -4 -243 -3 -8 -5 -19 -5 -24 -1 -4 -10 -6 -21 -3 -13 3 -20 0 -20 -9 0 -8 -6 -14 -12 -14 -10 0 -9 -3 1 -9 19 -12 4 -51 -19 -51 -11 0 -23 -6 -27 -13 -12 -19 -77 -52 -158 -77 -58 -19 -98 -26 -178 -30 -5 0 -7 -17 -5 -37 5 -59 44 -76 185 -81 77 -3 118 -1 126 7 6 6 20 11 32 11 33 0 235 178 235 206 0 7 10 29 21 49 19 31 21 47 16 109 -6 90 -26 129 -99 195 -56 51 -72 59 -83 41z" transform="translate(0,80) scale(0.1,-0.1)" stroke="none" fill="#2B3032"/>

</g>

<g id="2" transform="translate(144.0,0)scale(1,1)">

<path d="M463 762 c-8 -5 -10 -17 -4 -37 6 -26 12 -30 42 -30 40 0 51 25 23 56 -18 20 -41 24 -61 11z" transform="translate(0,80) scale(0.1,-0.1)" stroke="none" fill="#B28D77"/>

<path d="M480 681 c0 -6 7 -8 15 -5 19 8 122 -85 148 -133 11 -22 21 -66 24 -109 5 -62 3 -78 -16 -109 -11 -20 -21 -42 -21 -49 0 -28 -202 -206 -235 -206 -12 0 -26 -5 -32 -11 -8 -8 -49 -10 -126 -7 -141 5 -180 22 -185 81 -2 20 0 37 5 37 80 4 120 11 178 30 81 25 146 58 158 77 4 7 16 13 27 13 23 0 38 39 19 51 -10 6 -11 9 -1 9 6 0 12 6 12 14 0 9 7 12 20 9 11 -3 20 -1 21 3 0 5 2 16 5 24 15 57 23 113 24 165 0 49 -4 64 -20 78 -20 17 -20 16 -20 -93 0 -67 -4 -110 -10 -110 -5 0 -10 -9 -10 -20 0 -11 -4 -20 -10 -20 -5 0 -10 -6 -10 -14 0 -8 -20 -37 -45 -64 -46 -52 -93 -82 -126 -82 -10 0 -21 -5 -24 -10 -3 -6 -26 -10 -50 -10 -24 0 -47 -4 -50 -10 -3 -5 -22 -10 -41 -10 -47 0 -66 -21 -68 -74 -1 -38 2 -46 29 -64 32 -22 161 -40 240 -34 56 4 136 31 161 53 11 11 25 19 31 19 22 0 146 146 171 200 20 43 26 70 25 124 -1 38 -5 71 -10 75 -4 3 -17 23 -28 45 -10 21 -39 58 -62 82 -24 23 -43 47 -43 51 0 5 -16 10 -35 11 -19 2 -35 -2 -35 -7z" transform="translate(0,80) scale(0.1,-0.1)" stroke="none" fill="#3C6F7D"/>

<path d="M485 670 c-3 -5 3 -17 15 -27 28 -25 27 -127 -4 -243 -3 -8 -5 -19 -5 -24 -1 -4 -10 -6 -21 -3 -13 3 -20 0 -20 -9 0 -8 -6 -14 -12 -14 -10 0 -9 -3 1 -9 19 -12 4 -51 -19 -51 -11 0 -23 -6 -27 -13 -12 -19 -77 -52 -158 -77 -58 -19 -98 -26 -178 -30 -5 0 -7 -17 -5 -37 5 -59 44 -76 185 -81 77 -3 118 -1 126 7 6 6 20 11 32 11 33 0 235 178 235 206 0 7 10 29 21 49 19 31 21 47 16 109 -6 90 -26 129 -99 195 -56 51 -72 59 -83 41z" transform="translate(0,80) scale(0.1,-0.1)" stroke="none" fill="#2B3032"/>

</g>

<g id="3" transform="translate(216.0,0)scale(1,1)">

<path d="M463 762 c-8 -5 -10 -17 -4 -37 6 -26 12 -30 42 -30 40 0 51 25 23 56 -18 20 -41 24 -61 11z" transform="translate(0,80) scale(0.1,-0.1)" stroke="none" fill="#B28D77"/>

<path d="M480 681 c0 -6 7 -8 15 -5 19 8 122 -85 148 -133 11 -22 21 -66 24 -109 5 -62 3 -78 -16 -109 -11 -20 -21 -42 -21 -49 0 -28 -202 -206 -235 -206 -12 0 -26 -5 -32 -11 -8 -8 -49 -10 -126 -7 -141 5 -180 22 -185 81 -2 20 0 37 5 37 80 4 120 11 178 30 81 25 146 58 158 77 4 7 16 13 27 13 23 0 38 39 19 51 -10 6 -11 9 -1 9 6 0 12 6 12 14 0 9 7 12 20 9 11 -3 20 -1 21 3 0 5 2 16 5 24 15 57 23 113 24 165 0 49 -4 64 -20 78 -20 17 -20 16 -20 -93 0 -67 -4 -110 -10 -110 -5 0 -10 -9 -10 -20 0 -11 -4 -20 -10 -20 -5 0 -10 -6 -10 -14 0 -8 -20 -37 -45 -64 -46 -52 -93 -82 -126 -82 -10 0 -21 -5 -24 -10 -3 -6 -26 -10 -50 -10 -24 0 -47 -4 -50 -10 -3 -5 -22 -10 -41 -10 -47 0 -66 -21 -68 -74 -1 -38 2 -46 29 -64 32 -22 161 -40 240 -34 56 4 136 31 161 53 11 11 25 19 31 19 22 0 146 146 171 200 20 43 26 70 25 124 -1 38 -5 71 -10 75 -4 3 -17 23 -28 45 -10 21 -39 58 -62 82 -24 23 -43 47 -43 51 0 5 -16 10 -35 11 -19 2 -35 -2 -35 -7z" transform="translate(0,80) scale(0.1,-0.1)" stroke="none" fill="#3C6F7D"/>

<path d="M485 670 c-3 -5 3 -17 15 -27 28 -25 27 -127 -4 -243 -3 -8 -5 -19 -5 -24 -1 -4 -10 -6 -21 -3 -13 3 -20 0 -20 -9 0 -8 -6 -14 -12 -14 -10 0 -9 -3 1 -9 19 -12 4 -51 -19 -51 -11 0 -23 -6 -27 -13 -12 -19 -77 -52 -158 -77 -58 -19 -98 -26 -178 -30 -5 0 -7 -17 -5 -37 5 -59 44 -76 185 -81 77 -3 118 -1 126 7 6 6 20 11 32 11 33 0 235 178 235 206 0 7 10 29 21 49 19 31 21 47 16 109 -6 90 -26 129 -99 195 -56 51 -72 59 -83 41z" transform="translate(0,80) scale(0.1,-0.1)" stroke="none" fill="#2B3032"/>

</g>

<g id="4" transform="translate(288.0,0)scale(1,1)">

<path d="M463 762 c-8 -5 -10 -17 -4 -37 6 -26 12 -30 42 -30 40 0 51 25 23 56 -18 20 -41 24 -61 11z" transform="translate(0,80) scale(0.1,-0.1)" stroke="none" fill="#B28D77"/>

<path d="M480 681 c0 -6 7 -8 15 -5 19 8 122 -85 148 -133 11 -22 21 -66 24 -109 5 -62 3 -78 -16 -109 -11 -20 -21 -42 -21 -49 0 -28 -202 -206 -235 -206 -12 0 -26 -5 -32 -11 -8 -8 -49 -10 -126 -7 -141 5 -180 22 -185 81 -2 20 0 37 5 37 80 4 120 11 178 30 81 25 146 58 158 77 4 7 16 13 27 13 23 0 38 39 19 51 -10 6 -11 9 -1 9 6 0 12 6 12 14 0 9 7 12 20 9 11 -3 20 -1 21 3 0 5 2 16 5 24 15 57 23 113 24 165 0 49 -4 64 -20 78 -20 17 -20 16 -20 -93 0 -67 -4 -110 -10 -110 -5 0 -10 -9 -10 -20 0 -11 -4 -20 -10 -20 -5 0 -10 -6 -10 -14 0 -8 -20 -37 -45 -64 -46 -52 -93 -82 -126 -82 -10 0 -21 -5 -24 -10 -3 -6 -26 -10 -50 -10 -24 0 -47 -4 -50 -10 -3 -5 -22 -10 -41 -10 -47 0 -66 -21 -68 -74 -1 -38 2 -46 29 -64 32 -22 161 -40 240 -34 56 4 136 31 161 53 11 11 25 19 31 19 22 0 146 146 171 200 20 43 26 70 25 124 -1 38 -5 71 -10 75 -4 3 -17 23 -28 45 -10 21 -39 58 -62 82 -24 23 -43 47 -43 51 0 5 -16 10 -35 11 -19 2 -35 -2 -35 -7z" transform="translate(0,80) scale(0.1,-0.1)" stroke="none" fill="#3C6F7D"/>

<path d="M485 670 c-3 -5 3 -17 15 -27 28 -25 27 -127 -4 -243 -3 -8 -5 -19 -5 -24 -1 -4 -10 -6 -21 -3 -13 3 -20 0 -20 -9 0 -8 -6 -14 -12 -14 -10 0 -9 -3 1 -9 19 -12 4 -51 -19 -51 -11 0 -23 -6 -27 -13 -12 -19 -77 -52 -158 -77 -58 -19 -98 -26 -178 -30 -5 0 -7 -17 -5 -37 5 -59 44 -76 185 -81 77 -3 118 -1 126 7 6 6 20 11 32 11 33 0 235 178 235 206 0 7 10 29 21 49 19 31 21 47 16 109 -6 90 -26 129 -99 195 -56 51 -72 59 -83 41z" transform="translate(0,80) scale(0.1,-0.1)" stroke="none" fill="#2B3032"/>

</g>

</g>
<g id="row2" transform="translate(9,160.0)">
<g id="0" transform="translate(0.0,0)scale(1,1)">

<path d="M463 762 c-8 -5 -10 -17 -4 -37 6 -26 12 -30 42 -30 40 0 51 25 23 56 -18 20 -41 24 -61 11z" transform="translate(0,80) scale(0.1,-0.1)" stroke="none" fill="#B28D77"/>

<path d="M480 681 c0 -6 7 -8 15 -5 19 8 122 -85 148 -133 11 -22 21 -66 24 -109 5 -62 3 -78 -16 -109 -11 -20 -21 -42 -21 -49 0 -28 -202 -206 -235 -206 -12 0 -26 -5 -32 -11 -8 -8 -49 -10 -126 -7 -141 5 -180 22 -185 81 -2 20 0 37 5 37 80 4 120 11 178 30 81 25 146 58 158 77 4 7 16 13 27 13 23 0 38 39 19 51 -10 6 -11 9 -1 9 6 0 12 6 12 14 0 9 7 12 20 9 11 -3 20 -1 21 3 0 5 2 16 5 24 15 57 23 113 24 165 0 49 -4 64 -20 78 -20 17 -20 16 -20 -93 0 -67 -4 -110 -10 -110 -5 0 -10 -9 -10 -20 0 -11 -4 -20 -10 -20 -5 0 -10 -6 -10 -14 0 -8 -20 -37 -45 -64 -46 -52 -93 -82 -126 -82 -10 0 -21 -5 -24 -10 -3 -6 -26 -10 -50 -10 -24 0 -47 -4 -50 -10 -3 -5 -22 -10 -41 -10 -47 0 -66 -21 -68 -74 -1 -38 2 -46 29 -64 32 -22 161 -40 240 -34 56 4 136 31 161 53 11 11 25 19 31 19 22 0 146 146 171 200 20 43 26 70 25 124 -1 38 -5 71 -10 75 -4 3 -17 23 -28 45 -10 21 -39 58 -62 82 -24 23 -43 47 -43 51 0 5 -16 10 -35 11 -19 2 -35 -2 -35 -7z" transform="translate(0,80) scale(0.1,-0.1)" stroke="none" fill="#3C6F7D"/>

<path d="M485 670 c-3 -5 3 -17 15 -27 28 -25 27 -127 -4 -243 -3 -8 -5 -19 -5 -24 -1 -4 -10 -6 -21 -3 -13 3 -20 0 -20 -9 0 -8 -6 -14 -12 -14 -10 0 -9 -3 1 -9 19 -12 4 -51 -19 -51 -11 0 -23 -6 -27 -13 -12 -19 -77 -52 -158 -77 -58 -19 -98 -26 -178 -30 -5 0 -7 -17 -5 -37 5 -59 44 -76 185 -81 77 -3 118 -1 126 7 6 6 20 11 32 11 33 0 235 178 235 206 0 7 10 29 21 49 19 31 21 47 16 109 -6 90 -26 129 -99 195 -56 51 -72 59 -83 41z" transform="translate(0,80) scale(0.1,-0.1)" stroke="none" fill="#2B3032"/>

</g>

<g id="1" transform="translate(72.0,0)scale(1,1)">

<path d="M463 762 c-8 -5 -10 -17 -4 -37 6 -26 12 -30 42 -30 40 0 51 25 23 56 -18 20 -41 24 -61 11z" transform="translate(0,80) scale(0.1,-0.1)" stroke="none" fill="#B28D77"/>

<path d="M480 681 c0 -6 7 -8 15 -5 19 8 122 -85 148 -133 11 -22 21 -66 24 -109 5 -62 3 -78 -16 -109 -11 -20 -21 -42 -21 -49 0 -28 -202 -206 -235 -206 -12 0 -26 -5 -32 -11 -8 -8 -49 -10 -126 -7 -141 5 -180 22 -185 81 -2 20 0 37 5 37 80 4 120 11 178 30 81 25 146 58 158 77 4 7 16 13 27 13 23 0 38 39 19 51 -10 6 -11 9 -1 9 6 0 12 6 12 14 0 9 7 12 20 9 11 -3 20 -1 21 3 0 5 2 16 5 24 15 57 23 113 24 165 0 49 -4 64 -20 78 -20 17 -20 16 -20 -93 0 -67 -4 -110 -10 -110 -5 0 -10 -9 -10 -20 0 -11 -4 -20 -10 -20 -5 0 -10 -6 -10 -14 0 -8 -20 -37 -45 -64 -46 -52 -93 -82 -126 -82 -10 0 -21 -5 -24 -10 -3 -6 -26 -10 -50 -10 -24 0 -47 -4 -50 -10 -3 -5 -22 -10 -41 -10 -47 0 -66 -21 -68 -74 -1 -38 2 -46 29 -64 32 -22 161 -40 240 -34 56 4 136 31 161 53 11 11 25 19 31 19 22 0 146 146 171 200 20 43 26 70 25 124 -1 38 -5 71 -10 75 -4 3 -17 23 -28 45 -10 21 -39 58 -62 82 -24 23 -43 47 -43 51 0 5 -16 10 -35 11 -19 2 -35 -2 -35 -7z" transform="translate(0,80) scale(0.1,-0.1)" stroke="none" fill="#3C6F7D"/>

<path d="M485 670 c-3 -5 3 -17 15 -27 28 -25 27 -127 -4 -243 -3 -8 -5 -19 -5 -24 -1 -4 -10 -6 -21 -3 -13 3 -20 0 -20 -9 0 -8 -6 -14 -12 -14 -10 0 -9 -3 1 -9 19 -12 4 -51 -19 -51 -11 0 -23 -6 -27 -13 -12 -19 -77 -52 -158 -77 -58 -19 -98 -26 -178 -30 -5 0 -7 -17 -5 -37 5 -59 44 -76 185 -81 77 -3 118 -1 126 7 6 6 20 11 32 11 33 0 235 178 235 206 0 7 10 29 21 49 19 31 21 47 16 109 -6 90 -26 129 -99 195 -56 51 -72 59 -83 41z" transform="translate(0,80) scale(0.1,-0.1)" stroke="none" fill="#2B3032"/>

</g>

<g id="2" transform="translate(144.0,0)scale(1,1)">

<path d="M463 762 c-8 -5 -10 -17 -4 -37 6 -26 12 -30 42 -30 40 0 51 25 23 56 -18 20 -41 24 -61 11z" transform="translate(0,80) scale(0.1,-0.1)" stroke="none" fill="#B28D77"/>

<path d="M480 681 c0 -6 7 -8 15 -5 19 8 122 -85 148 -133 11 -22 21 -66 24 -109 5 -62 3 -78 -16 -109 -11 -20 -21 -42 -21 -49 0 -28 -202 -206 -235 -206 -12 0 -26 -5 -32 -11 -8 -8 -49 -10 -126 -7 -141 5 -180 22 -185 81 -2 20 0 37 5 37 80 4 120 11 178 30 81 25 146 58 158 77 4 7 16 13 27 13 23 0 38 39 19 51 -10 6 -11 9 -1 9 6 0 12 6 12 14 0 9 7 12 20 9 11 -3 20 -1 21 3 0 5 2 16 5 24 15 57 23 113 24 165 0 49 -4 64 -20 78 -20 17 -20 16 -20 -93 0 -67 -4 -110 -10 -110 -5 0 -10 -9 -10 -20 0 -11 -4 -20 -10 -20 -5 0 -10 -6 -10 -14 0 -8 -20 -37 -45 -64 -46 -52 -93 -82 -126 -82 -10 0 -21 -5 -24 -10 -3 -6 -26 -10 -50 -10 -24 0 -47 -4 -50 -10 -3 -5 -22 -10 -41 -10 -47 0 -66 -21 -68 -74 -1 -38 2 -46 29 -64 32 -22 161 -40 240 -34 56 4 136 31 161 53 11 11 25 19 31 19 22 0 146 146 171 200 20 43 26 70 25 124 -1 38 -5 71 -10 75 -4 3 -17 23 -28 45 -10 21 -39 58 -62 82 -24 23 -43 47 -43 51 0 5 -16 10 -35 11 -19 2 -35 -2 -35 -7z" transform="translate(0,80) scale(0.1,-0.1)" stroke="none" fill="#3C6F7D"/>

<path d="M485 670 c-3 -5 3 -17 15 -27 28 -25 27 -127 -4 -243 -3 -8 -5 -19 -5 -24 -1 -4 -10 -6 -21 -3 -13 3 -20 0 -20 -9 0 -8 -6 -14 -12 -14 -10 0 -9 -3 1 -9 19 -12 4 -51 -19 -51 -11 0 -23 -6 -27 -13 -12 -19 -77 -52 -158 -77 -58 -19 -98 -26 -178 -30 -5 0 -7 -17 -5 -37 5 -59 44 -76 185 -81 77 -3 118 -1 126 7 6 6 20 11 32 11 33 0 235 178 235 206 0 7 10 29 21 49 19 31 21 47 16 109 -6 90 -26 129 -99 195 -56 51 -72 59 -83 41z" transform="translate(0,80) scale(0.1,-0.1)" stroke="none" fill="#2B3032"/>

</g>

<g id="3" transform="translate(216.0,0)scale(1,1)">

<path d="M463 762 c-8 -5 -10 -17 -4 -37 6 -26 12 -30 42 -30 40 0 51 25 23 56 -18 20 -41 24 -61 11z" transform="translate(0,80) scale(0.1,-0.1)" stroke="none" fill="#B28D77"/>

<path d="M480 681 c0 -6 7 -8 15 -5 19 8 122 -85 148 -133 11 -22 21 -66 24 -109 5 -62 3 -78 -16 -109 -11 -20 -21 -42 -21 -49 0 -28 -202 -206 -235 -206 -12 0 -26 -5 -32 -11 -8 -8 -49 -10 -126 -7 -141 5 -180 22 -185 81 -2 20 0 37 5 37 80 4 120 11 178 30 81 25 146 58 158 77 4 7 16 13 27 13 23 0 38 39 19 51 -10 6 -11 9 -1 9 6 0 12 6 12 14 0 9 7 12 20 9 11 -3 20 -1 21 3 0 5 2 16 5 24 15 57 23 113 24 165 0 49 -4 64 -20 78 -20 17 -20 16 -20 -93 0 -67 -4 -110 -10 -110 -5 0 -10 -9 -10 -20 0 -11 -4 -20 -10 -20 -5 0 -10 -6 -10 -14 0 -8 -20 -37 -45 -64 -46 -52 -93 -82 -126 -82 -10 0 -21 -5 -24 -10 -3 -6 -26 -10 -50 -10 -24 0 -47 -4 -50 -10 -3 -5 -22 -10 -41 -10 -47 0 -66 -21 -68 -74 -1 -38 2 -46 29 -64 32 -22 161 -40 240 -34 56 4 136 31 161 53 11 11 25 19 31 19 22 0 146 146 171 200 20 43 26 70 25 124 -1 38 -5 71 -10 75 -4 3 -17 23 -28 45 -10 21 -39 58 -62 82 -24 23 -43 47 -43 51 0 5 -16 10 -35 11 -19 2 -35 -2 -35 -7z" transform="translate(0,80) scale(0.1,-0.1)" stroke="none" fill="#3C6F7D"/>

<path d="M485 670 c-3 -5 3 -17 15 -27 28 -25 27 -127 -4 -243 -3 -8 -5 -19 -5 -24 -1 -4 -10 -6 -21 -3 -13 3 -20 0 -20 -9 0 -8 -6 -14 -12 -14 -10 0 -9 -3 1 -9 19 -12 4 -51 -19 -51 -11 0 -23 -6 -27 -13 -12 -19 -77 -52 -158 -77 -58 -19 -98 -26 -178 -30 -5 0 -7 -17 -5 -37 5 -59 44 -76 185 -81 77 -3 118 -1 126 7 6 6 20 11 32 11 33 0 235 178 235 206 0 7 10 29 21 49 19 31 21 47 16 109 -6 90 -26 129 -99 195 -56 51 -72 59 -83 41z" transform="translate(0,80) scale(0.1,-0.1)" stroke="none" fill="#2B3032"/>

</g>

<g id="4" transform="translate(288.0,0)scale(1,1)">

<path d="M463 762 c-8 -5 -10 -17 -4 -37 6 -26 12 -30 42 -30 40 0 51 25 23 56 -18 20 -41 24 -61 11z" transform="translate(0,80) scale(0.1,-0.1)" stroke="none" fill="#B28D77"/>

<path d="M480 681 c0 -6 7 -8 15 -5 19 8 122 -85 148 -133 11 -22 21 -66 24 -109 5 -62 3 -78 -16 -109 -11 -20 -21 -42 -21 -49 0 -28 -202 -206 -235 -206 -12 0 -26 -5 -32 -11 -8 -8 -49 -10 -126 -7 -141 5 -180 22 -185 81 -2 20 0 37 5 37 80 4 120 11 178 30 81 25 146 58 158 77 4 7 16 13 27 13 23 0 38 39 19 51 -10 6 -11 9 -1 9 6 0 12 6 12 14 0 9 7 12 20 9 11 -3 20 -1 21 3 0 5 2 16 5 24 15 57 23 113 24 165 0 49 -4 64 -20 78 -20 17 -20 16 -20 -93 0 -67 -4 -110 -10 -110 -5 0 -10 -9 -10 -20 0 -11 -4 -20 -10 -20 -5 0 -10 -6 -10 -14 0 -8 -20 -37 -45 -64 -46 -52 -93 -82 -126 -82 -10 0 -21 -5 -24 -10 -3 -6 -26 -10 -50 -10 -24 0 -47 -4 -50 -10 -3 -5 -22 -10 -41 -10 -47 0 -66 -21 -68 -74 -1 -38 2 -46 29 -64 32 -22 161 -40 240 -34 56 4 136 31 161 53 11 11 25 19 31 19 22 0 146 146 171 200 20 43 26 70 25 124 -1 38 -5 71 -10 75 -4 3 -17 23 -28 45 -10 21 -39 58 -62 82 -24 23 -43 47 -43 51 0 5 -16 10 -35 11 -19 2 -35 -2 -35 -7z" transform="translate(0,80) scale(0.1,-0.1)" stroke="none" fill="#3C6F7D"/>

<path d="M485 670 c-3 -5 3 -17 15 -27 28 -25 27 -127 -4 -243 -3 -8 -5 -19 -5 -24 -1 -4 -10 -6 -21 -3 -13 3 -20 0 -20 -9 0 -8 -6 -14 -12 -14 -10 0 -9 -3 1 -9 19 -12 4 -51 -19 -51 -11 0 -23 -6 -27 -13 -12 -19 -77 -52 -158 -77 -58 -19 -98 -26 -178 -30 -5 0 -7 -17 -5 -37 5 -59 44 -76 185 -81 77 -3 118 -1 126 7 6 6 20 11 32 11 33 0 235 178 235 206 0 7 10 29 21 49 19 31 21 47 16 109 -6 90 -26 129 -99 195 -56 51 -72 59 -83 41z" transform="translate(0,80) scale(0.1,-0.1)" stroke="none" fill="#2B3032"/>

</g>

</g>
<g id="row3" transform="translate(9,240.0)">
<g id="0" transform="translate(0.0,0)scale(1,1)">

<path d="M463 762 c-8 -5 -10 -17 -4 -37 6 -26 12 -30 42 -30 40 0 51 25 23 56 -18 20 -41 24 -61 11z" transform="translate(0,80) scale(0.1,-0.1)" stroke="none" fill="#B28D77"/>

<path d="M480 681 c0 -6 7 -8 15 -5 19 8 122 -85 148 -133 11 -22 21 -66 24 -109 5 -62 3 -78 -16 -109 -11 -20 -21 -42 -21 -49 0 -28 -202 -206 -235 -206 -12 0 -26 -5 -32 -11 -8 -8 -49 -10 -126 -7 -141 5 -180 22 -185 81 -2 20 0 37 5 37 80 4 120 11 178 30 81 25 146 58 158 77 4 7 16 13 27 13 23 0 38 39 19 51 -10 6 -11 9 -1 9 6 0 12 6 12 14 0 9 7 12 20 9 11 -3 20 -1 21 3 0 5 2 16 5 24 15 57 23 113 24 165 0 49 -4 64 -20 78 -20 17 -20 16 -20 -93 0 -67 -4 -110 -10 -110 -5 0 -10 -9 -10 -20 0 -11 -4 -20 -10 -20 -5 0 -10 -6 -10 -14 0 -8 -20 -37 -45 -64 -46 -52 -93 -82 -126 -82 -10 0 -21 -5 -24 -10 -3 -6 -26 -10 -50 -10 -24 0 -47 -4 -50 -10 -3 -5 -22 -10 -41 -10 -47 0 -66 -21 -68 -74 -1 -38 2 -46 29 -64 32 -22 161 -40 240 -34 56 4 136 31 161 53 11 11 25 19 31 19 22 0 146 146 171 200 20 43 26 70 25 124 -1 38 -5 71 -10 75 -4 3 -17 23 -28 45 -10 21 -39 58 -62 82 -24 23 -43 47 -43 51 0 5 -16 10 -35 11 -19 2 -35 -2 -35 -7z" transform="translate(0,80) scale(0.1,-0.1)" stroke="none" fill="#3C6F7D"/>

<path d="M485 670 c-3 -5 3 -17 15 -27 28 -25 27 -127 -4 -243 -3 -8 -5 -19 -5 -24 -1 -4 -10 -6 -21 -3 -13 3 -20 0 -20 -9 0 -8 -6 -14 -12 -14 -10 0 -9 -3 1 -9 19 -12 4 -51 -19 -51 -11 0 -23 -6 -27 -13 -12 -19 -77 -52 -158 -77 -58 -19 -98 -26 -178 -30 -5 0 -7 -17 -5 -37 5 -59 44 -76 185 -81 77 -3 118 -1 126 7 6 6 20 11 32 11 33 0 235 178 235 206 0 7 10 29 21 49 19 31 21 47 16 109 -6 90 -26 129 -99 195 -56 51 -72 59 -83 41z" transform="translate(0,80) scale(0.1,-0.1)" stroke="none" fill="#2B3032"/>

</g>

<g id="1" transform="translate(72.0,0)scale(1,1)">

<path d="M463 762 c-8 -5 -10 -17 -4 -37 6 -26 12 -30 42 -30 40 0 51 25 23 56 -18 20 -41 24 -61 11z" transform="translate(0,80) scale(0.1,-0.1)" stroke="none" fill="#B28D77"/>

<path d="M480 681 c0 -6 7 -8 15 -5 19 8 122 -85 148 -133 11 -22 21 -66 24 -109 5 -62 3 -78 -16 -109 -11 -20 -21 -42 -21 -49 0 -28 -202 -206 -235 -206 -12 0 -26 -5 -32 -11 -8 -8 -49 -10 -126 -7 -141 5 -180 22 -185 81 -2 20 0 37 5 37 80 4 120 11 178 30 81 25 146 58 158 77 4 7 16 13 27 13 23 0 38 39 19 51 -10 6 -11 9 -1 9 6 0 12 6 12 14 0 9 7 12 20 9 11 -3 20 -1 21 3 0 5 2 16 5 24 15 57 23 113 24 165 0 49 -4 64 -20 78 -20 17 -20 16 -20 -93 0 -67 -4 -110 -10 -110 -5 0 -10 -9 -10 -20 0 -11 -4 -20 -10 -20 -5 0 -10 -6 -10 -14 0 -8 -20 -37 -45 -64 -46 -52 -93 -82 -126 -82 -10 0 -21 -5 -24 -10 -3 -6 -26 -10 -50 -10 -24 0 -47 -4 -50 -10 -3 -5 -22 -10 -41 -10 -47 0 -66 -21 -68 -74 -1 -38 2 -46 29 -64 32 -22 161 -40 240 -34 56 4 136 31 161 53 11 11 25 19 31 19 22 0 146 146 171 200 20 43 26 70 25 124 -1 38 -5 71 -10 75 -4 3 -17 23 -28 45 -10 21 -39 58 -62 82 -24 23 -43 47 -43 51 0 5 -16 10 -35 11 -19 2 -35 -2 -35 -7z" transform="translate(0,80) scale(0.1,-0.1)" stroke="none" fill="#3C6F7D"/>

<path d="M485 670 c-3 -5 3 -17 15 -27 28 -25 27 -127 -4 -243 -3 -8 -5 -19 -5 -24 -1 -4 -10 -6 -21 -3 -13 3 -20 0 -20 -9 0 -8 -6 -14 -12 -14 -10 0 -9 -3 1 -9 19 -12 4 -51 -19 -51 -11 0 -23 -6 -27 -13 -12 -19 -77 -52 -158 -77 -58 -19 -98 -26 -178 -30 -5 0 -7 -17 -5 -37 5 -59 44 -76 185 -81 77 -3 118 -1 126 7 6 6 20 11 32 11 33 0 235 178 235 206 0 7 10 29 21 49 19 31 21 47 16 109 -6 90 -26 129 -99 195 -56 51 -72 59 -83 41z" transform="translate(0,80) scale(0.1,-0.1)" stroke="none" fill="#2B3032"/>

</g>

<g id="2" transform="translate(144.0,0)scale(1,1)">

<path d="M463 762 c-8 -5 -10 -17 -4 -37 6 -26 12 -30 42 -30 40 0 51 25 23 56 -18 20 -41 24 -61 11z" transform="translate(0,80) scale(0.1,-0.1)" stroke="none" fill="#B28D77"/>

<path d="M480 681 c0 -6 7 -8 15 -5 19 8 122 -85 148 -133 11 -22 21 -66 24 -109 5 -62 3 -78 -16 -109 -11 -20 -21 -42 -21 -49 0 -28 -202 -206 -235 -206 -12 0 -26 -5 -32 -11 -8 -8 -49 -10 -126 -7 -141 5 -180 22 -185 81 -2 20 0 37 5 37 80 4 120 11 178 30 81 25 146 58 158 77 4 7 16 13 27 13 23 0 38 39 19 51 -10 6 -11 9 -1 9 6 0 12 6 12 14 0 9 7 12 20 9 11 -3 20 -1 21 3 0 5 2 16 5 24 15 57 23 113 24 165 0 49 -4 64 -20 78 -20 17 -20 16 -20 -93 0 -67 -4 -110 -10 -110 -5 0 -10 -9 -10 -20 0 -11 -4 -20 -10 -20 -5 0 -10 -6 -10 -14 0 -8 -20 -37 -45 -64 -46 -52 -93 -82 -126 -82 -10 0 -21 -5 -24 -10 -3 -6 -26 -10 -50 -10 -24 0 -47 -4 -50 -10 -3 -5 -22 -10 -41 -10 -47 0 -66 -21 -68 -74 -1 -38 2 -46 29 -64 32 -22 161 -40 240 -34 56 4 136 31 161 53 11 11 25 19 31 19 22 0 146 146 171 200 20 43 26 70 25 124 -1 38 -5 71 -10 75 -4 3 -17 23 -28 45 -10 21 -39 58 -62 82 -24 23 -43 47 -43 51 0 5 -16 10 -35 11 -19 2 -35 -2 -35 -7z" transform="translate(0,80) scale(0.1,-0.1)" stroke="none" fill="#3C6F7D"/>

<path d="M485 670 c-3 -5 3 -17 15 -27 28 -25 27 -127 -4 -243 -3 -8 -5 -19 -5 -24 -1 -4 -10 -6 -21 -3 -13 3 -20 0 -20 -9 0 -8 -6 -14 -12 -14 -10 0 -9 -3 1 -9 19 -12 4 -51 -19 -51 -11 0 -23 -6 -27 -13 -12 -19 -77 -52 -158 -77 -58 -19 -98 -26 -178 -30 -5 0 -7 -17 -5 -37 5 -59 44 -76 185 -81 77 -3 118 -1 126 7 6 6 20 11 32 11 33 0 235 178 235 206 0 7 10 29 21 49 19 31 21 47 16 109 -6 90 -26 129 -99 195 -56 51 -72 59 -83 41z" transform="translate(0,80) scale(0.1,-0.1)" stroke="none" fill="#2B3032"/>

</g>

<g id="3" transform="translate(216.0,0)scale(1,1)">

<path d="M463 762 c-8 -5 -10 -17 -4 -37 6 -26 12 -30 42 -30 40 0 51 25 23 56 -18 20 -41 24 -61 11z" transform="translate(0,80) scale(0.1,-0.1)" stroke="none" fill="#B28D77"/>

<path d="M480 681 c0 -6 7 -8 15 -5 19 8 122 -85 148 -133 11 -22 21 -66 24 -109 5 -62 3 -78 -16 -109 -11 -20 -21 -42 -21 -49 0 -28 -202 -206 -235 -206 -12 0 -26 -5 -32 -11 -8 -8 -49 -10 -126 -7 -141 5 -180 22 -185 81 -2 20 0 37 5 37 80 4 120 11 178 30 81 25 146 58 158 77 4 7 16 13 27 13 23 0 38 39 19 51 -10 6 -11 9 -1 9 6 0 12 6 12 14 0 9 7 12 20 9 11 -3 20 -1 21 3 0 5 2 16 5 24 15 57 23 113 24 165 0 49 -4 64 -20 78 -20 17 -20 16 -20 -93 0 -67 -4 -110 -10 -110 -5 0 -10 -9 -10 -20 0 -11 -4 -20 -10 -20 -5 0 -10 -6 -10 -14 0 -8 -20 -37 -45 -64 -46 -52 -93 -82 -126 -82 -10 0 -21 -5 -24 -10 -3 -6 -26 -10 -50 -10 -24 0 -47 -4 -50 -10 -3 -5 -22 -10 -41 -10 -47 0 -66 -21 -68 -74 -1 -38 2 -46 29 -64 32 -22 161 -40 240 -34 56 4 136 31 161 53 11 11 25 19 31 19 22 0 146 146 171 200 20 43 26 70 25 124 -1 38 -5 71 -10 75 -4 3 -17 23 -28 45 -10 21 -39 58 -62 82 -24 23 -43 47 -43 51 0 5 -16 10 -35 11 -19 2 -35 -2 -35 -7z" transform="translate(0,80) scale(0.1,-0.1)" stroke="none" fill="#3C6F7D"/>

<path d="M485 670 c-3 -5 3 -17 15 -27 28 -25 27 -127 -4 -243 -3 -8 -5 -19 -5 -24 -1 -4 -10 -6 -21 -3 -13 3 -20 0 -20 -9 0 -8 -6 -14 -12 -14 -10 0 -9 -3 1 -9 19 -12 4 -51 -19 -51 -11 0 -23 -6 -27 -13 -12 -19 -77 -52 -158 -77 -58 -19 -98 -26 -178 -30 -5 0 -7 -17 -5 -37 5 -59 44 -76 185 -81 77 -3 118 -1 126 7 6 6 20 11 32 11 33 0 235 178 235 206 0 7 10 29 21 49 19 31 21 47 16 109 -6 90 -26 129 -99 195 -56 51 -72 59 -83 41z" transform="translate(0,80) scale(0.1,-0.1)" stroke="none" fill="#2B3032"/>

</g>

<g id="4" transform="translate(288.0,0)scale(1,1)">

<path d="M463 762 c-8 -5 -10 -17 -4 -37 6 -26 12 -30 42 -30 40 0 51 25 23 56 -18 20 -41 24 -61 11z" transform="translate(0,80) scale(0.1,-0.1)" stroke="none" fill="#B28D77"/>

<path d="M480 681 c0 -6 7 -8 15 -5 19 8 122 -85 148 -133 11 -22 21 -66 24 -109 5 -62 3 -78 -16 -109 -11 -20 -21 -42 -21 -49 0 -28 -202 -206 -235 -206 -12 0 -26 -5 -32 -11 -8 -8 -49 -10 -126 -7 -141 5 -180 22 -185 81 -2 20 0 37 5 37 80 4 120 11 178 30 81 25 146 58 158 77 4 7 16 13 27 13 23 0 38 39 19 51 -10 6 -11 9 -1 9 6 0 12 6 12 14 0 9 7 12 20 9 11 -3 20 -1 21 3 0 5 2 16 5 24 15 57 23 113 24 165 0 49 -4 64 -20 78 -20 17 -20 16 -20 -93 0 -67 -4 -110 -10 -110 -5 0 -10 -9 -10 -20 0 -11 -4 -20 -10 -20 -5 0 -10 -6 -10 -14 0 -8 -20 -37 -45 -64 -46 -52 -93 -82 -126 -82 -10 0 -21 -5 -24 -10 -3 -6 -26 -10 -50 -10 -24 0 -47 -4 -50 -10 -3 -5 -22 -10 -41 -10 -47 0 -66 -21 -68 -74 -1 -38 2 -46 29 -64 32 -22 161 -40 240 -34 56 4 136 31 161 53 11 11 25 19 31 19 22 0 146 146 171 200 20 43 26 70 25 124 -1 38 -5 71 -10 75 -4 3 -17 23 -28 45 -10 21 -39 58 -62 82 -24 23 -43 47 -43 51 0 5 -16 10 -35 11 -19 2 -35 -2 -35 -7z" transform="translate(0,80) scale(0.1,-0.1)" stroke="none" fill="#3C6F7D"/>

<path d="M485 670 c-3 -5 3 -17 15 -27 28 -25 27 -127 -4 -243 -3 -8 -5 -19 -5 -24 -1 -4 -10 -6 -21 -3 -13 3 -20 0 -20 -9 0 -8 -6 -14 -12 -14 -10 0 -9 -3 1 -9 19 -12 4 -51 -19 -51 -11 0 -23 -6 -27 -13 -12 -19 -77 -52 -158 -77 -58 -19 -98 -26 -178 -30 -5 0 -7 -17 -5 -37 5 -59 44 -76 185 -81 77 -3 118 -1 126 7 6 6 20 11 32 11 33 0 235 178 235 206 0 7 10 29 21 49 19 31 21 47 16 109 -6 90 -26 129 -99 195 -56 51 -72 59 -83 41z" transform="translate(0,80) scale(0.1,-0.1)" stroke="none" fill="#2B3032"/>

</g>

</g>
</svg>