<?xml version="1.0" standalone="no"?>
<!DOCTYPE svg PUBLIC "-//W3C//DTD SVG 20010904//EN"
 "http://www.w3.org/TR/2001/REC-SVG-20010904/DTD/svg10.dtd">
<svg version="1.0" xmlns="http://www.w3.org/2000/svg" width="656pt" height="480pt" viewBox="0 0 656 480" preserveAspectRatio = "xMidYMid meet" >
<metadata>
Created by ZoeQu, written in 2022
</metadata>
<rect width="656" height="480" fill="#39291D"/>
<g id="col0" transform="translate(0, 16)">
<g id="0" transform="translate(0,0.0)scale(0.8,0.8)">

<path d="M556 368 c-11 -43 -6 -83 18 -133 27 -58 62 -91 131 -125 43 -21 64 -25 145 -25 82 1 103 5 151 28 59 29 84 33 94 17 3 -5 32 -22 63 -37 70 -33 188 -38 237 -11 61 33 125 109 125 148 0 8 -15 -10 -32 -40 -77 -128 -204 -150 -367 -63 -62 33 -64 34 -90 16 -65 -44 -173 -62 -262 -43 -32 7 -64 19 -70 26 -6 8 -17 14 -23 14 -19 0 -81 71 -101 114 -13 29 -16 51 -11 87 7 51 3 65 -8 27z" transform="translate(0,120) scale(0.1,-0.1)" stroke="none" fill="#E4CDAD"/>

<path d="M735 1127 c-46 -14 -105 -69 -135 -126 -23 -46 -36 -145 -23 -178 5 -15 8 3 8 55 0 66 5 85 28 124 70 120 206 160 329 96 56 -29 135 -108 154 -154 11 -27 19 -34 32 -29 102 40 138 47 206 43 124 -8 196 -74 220 -201 8 -45 -8 -128 -34 -177 -10 -19 -24 -45 -31 -58 -9 -16 -9 -28 -2 -45 29 -59 37 -96 36 -161 0 -57 1 -65 9 -41 11 39 1 126 -22 181 l-19 43 36 70 c33 64 37 79 37 149 0 69 -4 86 -31 133 -18 33 -47 66 -74 84 -42 29 -49 30 -149 30 -80 0 -113 -5 -137 -18 -44 -23 -56 -22 -71 11 -40 92 -161 172 -266 178 -33 1 -79 -3 -101 -9z" transform="translate(0,120) scale(0.1,-0.1)" stroke="none" fill="#E4CDAD"/>

<path d="M1017 749 c-8 -11 -13 -29 -10 -40 4 -16 0 -19 -25 -19 -45 0 -60 -57 -21 -84 14 -9 20 -22 17 -34 -8 -29 17 -55 51 -54 17 0 32 -5 35 -14 6 -17 57 -19 73 -3 6 6 9 18 6 26 -5 12 -1 14 15 9 12 -4 30 -2 41 4 17 9 20 19 17 65 -2 34 -9 62 -19 73 -9 10 -17 26 -17 35 0 18 -34 32 -51 21 -6 -3 -9 -19 -7 -35 4 -24 2 -26 -13 -18 -11 5 -16 16 -13 24 4 8 3 26 0 40 -8 32 -58 35 -79 4z m43 -89 c0 -5 -4 -12 -10 -15 -5 -3 -10 -4 -10 -1 0 2 -3 12 -6 20 -5 12 -2 15 10 10 9 -3 16 -10 16 -14z m100 -11 c0 -11 -4 -17 -10 -14 -5 3 -10 13 -10 21 0 8 5 14 10 14 6 0 10 -9 10 -21z m-110 -44 c0 -9 -6 -12 -15 -9 -8 4 -15 10 -15 15 0 5 7 9 15 9 8 0 15 -7 15 -15z m25 -35 c3 -5 1 -10 -4 -10 -6 0 -11 5 -11 10 0 6 2 10 4 10 3 0 8 -4 11 -10z m65 0 c0 -5 -4 -10 -10 -10 -5 0 -10 5 -10 10 0 6 5 10 10 10 6 0 10 -4 10 -10z" transform="translate(0,120) scale(0.1,-0.1)" stroke="none" fill="#D07736"/>

<path d="M1045 800 c-4 -6 -19 -10 -33 -7 -18 3 -32 -2 -49 -19 -14 -14 -29 -25 -35 -27 -41 -9 -98 -119 -98 -190 0 -93 74 -193 163 -223 57 -19 158 -15 198 7 36 21 99 81 99 96 0 7 5 13 10 13 6 0 10 9 10 20 0 11 4 20 10 20 15 0 4 143 -14 176 -21 39 -41 64 -52 64 -5 0 -15 9 -22 21 -8 12 -19 18 -28 15 -8 -3 -14 -2 -14 3 0 16 -58 33 -91 26 -21 -5 -34 -3 -39 5 -6 9 -9 9 -15 0z m78 -39 c50 -21 96 -79 98 -121 1 -23 2 -23 9 5 8 30 8 30 9 -8 0 -21 -3 -36 -8 -33 -4 3 -6 -6 -3 -19 5 -29 -13 -55 -38 -55 -9 0 -28 -11 -42 -23 -31 -29 -109 -43 -141 -25 -12 7 -24 12 -27 13 -3 0 -18 9 -33 20 -38 28 -49 109 -21 160 10 19 21 35 25 35 4 0 24 16 45 35 43 40 64 43 127 16z" transform="translate(0,120) scale(0.1,-0.1)" stroke="none" fill="#E4CDAD"/>

<path d="M455 787 c-117 -41 -214 -94 -292 -158 -51 -42 -63 -57 -63 -81 0 -43 16 -65 62 -89 91 -46 336 -110 372 -96 8 3 20 24 26 46 6 22 29 63 53 92 23 28 46 57 51 64 7 9 -2 35 -26 81 -20 38 -44 93 -53 122 -10 28 -22 52 -29 52 -6 -1 -52 -15 -101 -33z" transform="translate(0,120) scale(0.1,-0.1)" stroke="none" fill="#D07736"/>

<path d="M745 1118 c-118 -44 -184 -175 -156 -307 12 -55 52 -148 83 -193 26 -37 23 -48 -22 -97 -54 -57 -76 -104 -85 -172 -5 -44 -3 -65 11 -95 19 -43 82 -114 100 -114 6 0 17 -6 23 -14 6 -7 38 -19 70 -26 89 -19 197 -1 262 43 26 18 28 17 85 -14 177 -96 310 -65 389 90 31 62 24 171 -18 258 -7 17 -7 29 2 45 7 13 21 39 31 58 26 49 42 132 34 177 -24 127 -96 193 -220 201 -68 4 -104 -3 -206 -43 -13 -5 -21 2 -32 29 -19 46 -99 125 -155 154 -51 27 -152 37 -196 20z m354 -323 c33 7 91 -10 91 -26 0 -5 6 -6 14 -3 9 3 20 -3 28 -15 7 -12 17 -21 22 -21 11 0 31 -25 52 -64 18 -33 29 -176 14 -176 -6 0 -10 -9 -10 -20 0 -11 -4 -20 -10 -20 -5 0 -10 -6 -10 -13 0 -15 -63 -75 -99 -96 -40 -22 -141 -26 -198 -7 -89 30 -163 130 -163 223 0 71 57 181 98 190 6 2 21 13 35 27 17 17 31 22 49 19 14 -3 29 1 33 7 6 9 9 9 15 0 5 -8 18 -10 39 -5z" transform="translate(0,120) scale(0.1,-0.1)" stroke="none" fill="#765339"/>

</g>

<g id="1" transform="translate(0,120.0)scale(0.8,0.8)">

<path d="M556 368 c-11 -43 -6 -83 18 -133 27 -58 62 -91 131 -125 43 -21 64 -25 145 -25 82 1 103 5 151 28 59 29 84 33 94 17 3 -5 32 -22 63 -37 70 -33 188 -38 237 -11 61 33 125 109 125 148 0 8 -15 -10 -32 -40 -77 -128 -204 -150 -367 -63 -62 33 -64 34 -90 16 -65 -44 -173 -62 -262 -43 -32 7 -64 19 -70 26 -6 8 -17 14 -23 14 -19 0 -81 71 -101 114 -13 29 -16 51 -11 87 7 51 3 65 -8 27z" transform="translate(0,120) scale(0.1,-0.1)" stroke="none" fill="#E4CDAD"/>

<path d="M735 1127 c-46 -14 -105 -69 -135 -126 -23 -46 -36 -145 -23 -178 5 -15 8 3 8 55 0 66 5 85 28 124 70 120 206 160 329 96 56 -29 135 -108 154 -154 11 -27 19 -34 32 -29 102 40 138 47 206 43 124 -8 196 -74 220 -201 8 -45 -8 -128 -34 -177 -10 -19 -24 -45 -31 -58 -9 -16 -9 -28 -2 -45 29 -59 37 -96 36 -161 0 -57 1 -65 9 -41 11 39 1 126 -22 181 l-19 43 36 70 c33 64 37 79 37 149 0 69 -4 86 -31 133 -18 33 -47 66 -74 84 -42 29 -49 30 -149 30 -80 0 -113 -5 -137 -18 -44 -23 -56 -22 -71 11 -40 92 -161 172 -266 178 -33 1 -79 -3 -101 -9z" transform="translate(0,120) scale(0.1,-0.1)" stroke="none" fill="#E4CDAD"/>

<path d="M1017 749 c-8 -11 -13 -29 -10 -40 4 -16 0 -19 -25 -19 -45 0 -60 -57 -21 -84 14 -9 20 -22 17 -34 -8 -29 17 -55 51 -54 17 0 32 -5 35 -14 6 -17 57 -19 73 -3 6 6 9 18 6 26 -5 12 -1 14 15 9 12 -4 30 -2 41 4 17 9 20 19 17 65 -2 34 -9 62 -19 73 -9 10 -17 26 -17 35 0 18 -34 32 -51 21 -6 -3 -9 -19 -7 -35 4 -24 2 -26 -13 -18 -11 5 -16 16 -13 24 4 8 3 26 0 40 -8 32 -58 35 -79 4z m43 -89 c0 -5 -4 -12 -10 -15 -5 -3 -10 -4 -10 -1 0 2 -3 12 -6 20 -5 12 -2 15 10 10 9 -3 16 -10 16 -14z m100 -11 c0 -11 -4 -17 -10 -14 -5 3 -10 13 -10 21 0 8 5 14 10 14 6 0 10 -9 10 -21z m-110 -44 c0 -9 -6 -12 -15 -9 -8 4 -15 10 -15 15 0 5 7 9 15 9 8 0 15 -7 15 -15z m25 -35 c3 -5 1 -10 -4 -10 -6 0 -11 5 -11 10 0 6 2 10 4 10 3 0 8 -4 11 -10z m65 0 c0 -5 -4 -10 -10 -10 -5 0 -10 5 -10 10 0 6 5 10 10 10 6 0 10 -4 10 -10z" transform="translate(0,120) scale(0.1,-0.1)" stroke="none" fill="#D07736"/>

<path d="M1045 800 c-4 -6 -19 -10 -33 -7 -18 3 -32 -2 -49 -19 -14 -14 -29 -25 -35 -27 -41 -9 -98 -119 -98 -190 0 -93 74 -193 163 -223 57 -19 158 -15 198 7 36 21 99 81 99 96 0 7 5 13 10 13 6 0 10 9 10 20 0 11 4 20 10 20 15 0 4 143 -14 176 -21 39 -41 64 -52 64 -5 0 -15 9 -22 21 -8 12 -19 18 -28 15 -8 -3 -14 -2 -14 3 0 16 -58 33 -91 26 -21 -5 -34 -3 -39 5 -6 9 -9 9 -15 0z m78 -39 c50 -21 96 -79 98 -121 1 -23 2 -23 9 5 8 30 8 30 9 -8 0 -21 -3 -36 -8 -33 -4 3 -6 -6 -3 -19 5 -29 -13 -55 -38 -55 -9 0 -28 -11 -42 -23 -31 -29 -109 -43 -141 -25 -12 7 -24 12 -27 13 -3 0 -18 9 -33 20 -38 28 -49 109 -21 160 10 19 21 35 25 35 4 0 24 16 45 35 43 40 64 43 127 16z" transform="translate(0,120) scale(0.1,-0.1)" stroke="none" fill="#E4CDAD"/>

<path d="M455 787 c-117 -41 -214 -94 -292 -158 -51 -42 -63 -57 -63 -81 0 -43 16 -65 62 -89 91 -46 336 -110 372 -96 8 3 20 24 26 46 6 22 29 63 53 92 23 28 46 57 51 64 7 9 -2 35 -26 81 -20 38 -44 93 -53 122 -10 28 -22 52 -29 52 -6 -1 -52 -15 -101 -33z" transform="translate(0,120) scale(0.1,-0.1)" stroke="none" fill="#D07736"/>

<path d="M745 1118 c-118 -44 -184 -175 -156 -307 12 -55 52 -148 83 -193 26 -37 23 -48 -22 -97 -54 -57 -76 -104 -85 -172 -5 -44 -3 -65 11 -95 19 -43 82 -114 100 -114 6 0 17 -6 23 -14 6 -7 38 -19 70 -26 89 -19 197 -1 262 43 26 18 28 17 85 -14 177 -96 310 -65 389 90 31 62 24 171 -18 258 -7 17 -7 29 2 45 7 13 21 39 31 58 26 49 42 132 34 177 -24 127 -96 193 -220 201 -68 4 -104 -3 -206 -43 -13 -5 -21 2 -32 29 -19 46 -99 125 -155 154 -51 27 -152 37 -196 20z m354 -323 c33 7 91 -10 91 -26 0 -5 6 -6 14 -3 9 3 20 -3 28 -15 7 -12 17 -21 22 -21 11 0 31 -25 52 -64 18 -33 29 -176 14 -176 -6 0 -10 -9 -10 -20 0 -11 -4 -20 -10 -20 -5 0 -10 -6 -10 -13 0 -15 -63 -75 -99 -96 -40 -22 -141 -26 -198 -7 -89 30 -163 130 -163 223 0 71 57 181 98 190 6 2 21 13 35 27 17 17 31 22 49 19 14 -3 29 1 33 7 6 9 9 9 15 0 5 -8 18 -10 39 -5z" transform="translate(0,120) scale(0.1,-0.1)" stroke="none" fill="#765339"/>

</g>

<g id="2" transform="translate(0,240.0)scale(0.8,0.8)">

<path d="M556 368 c-11 -43 -6 -83 18 -133 27 -58 62 -91 131 -125 43 -21 64 -25 145 -25 82 1 103 5 151 28 59 29 84 33 94 17 3 -5 32 -22 63 -37 70 -33 188 -38 237 -11 61 33 125 109 125 148 0 8 -15 -10 -32 -40 -77 -128 -204 -150 -367 -63 -62 33 -64 34 -90 16 -65 -44 -173 -62 -262 -43 -32 7 -64 19 -70 26 -6 8 -17 14 -23 14 -19 0 -81 71 -101 114 -13 29 -16 51 -11 87 7 51 3 65 -8 27z" transform="translate(0,120) scale(0.1,-0.1)" stroke="none" fill="#E4CDAD"/>

<path d="M735 1127 c-46 -14 -105 -69 -135 -126 -23 -46 -36 -145 -23 -178 5 -15 8 3 8 55 0 66 5 85 28 124 70 120 206 160 329 96 56 -29 135 -108 154 -154 11 -27 19 -34 32 -29 102 40 138 47 206 43 124 -8 196 -74 220 -201 8 -45 -8 -128 -34 -177 -10 -19 -24 -45 -31 -58 -9 -16 -9 -28 -2 -45 29 -59 37 -96 36 -161 0 -57 1 -65 9 -41 11 39 1 126 -22 181 l-19 43 36 70 c33 64 37 79 37 149 0 69 -4 86 -31 133 -18 33 -47 66 -74 84 -42 29 -49 30 -149 30 -80 0 -113 -5 -137 -18 -44 -23 -56 -22 -71 11 -40 92 -161 172 -266 178 -33 1 -79 -3 -101 -9z" transform="translate(0,120) scale(0.1,-0.1)" stroke="none" fill="#E4CDAD"/>

<path d="M1017 749 c-8 -11 -13 -29 -10 -40 4 -16 0 -19 -25 -19 -45 0 -60 -57 -21 -84 14 -9 20 -22 17 -34 -8 -29 17 -55 51 -54 17 0 32 -5 35 -14 6 -17 57 -19 73 -3 6 6 9 18 6 26 -5 12 -1 14 15 9 12 -4 30 -2 41 4 17 9 20 19 17 65 -2 34 -9 62 -19 73 -9 10 -17 26 -17 35 0 18 -34 32 -51 21 -6 -3 -9 -19 -7 -35 4 -24 2 -26 -13 -18 -11 5 -16 16 -13 24 4 8 3 26 0 40 -8 32 -58 35 -79 4z m43 -89 c0 -5 -4 -12 -10 -15 -5 -3 -10 -4 -10 -1 0 2 -3 12 -6 20 -5 12 -2 15 10 10 9 -3 16 -10 16 -14z m100 -11 c0 -11 -4 -17 -10 -14 -5 3 -10 13 -10 21 0 8 5 14 10 14 6 0 10 -9 10 -21z m-110 -44 c0 -9 -6 -12 -15 -9 -8 4 -15 10 -15 15 0 5 7 9 15 9 8 0 15 -7 15 -15z m25 -35 c3 -5 1 -10 -4 -10 -6 0 -11 5 -11 10 0 6 2 10 4 10 3 0 8 -4 11 -10z m65 0 c0 -5 -4 -10 -10 -10 -5 0 -10 5 -10 10 0 6 5 10 10 10 6 0 10 -4 10 -10z" transform="translate(0,120) scale(0.1,-0.1)" stroke="none" fill="#D07736"/>

<path d="M1045 800 c-4 -6 -19 -10 -33 -7 -18 3 -32 -2 -49 -19 -14 -14 -29 -25 -35 -27 -41 -9 -98 -119 -98 -190 0 -93 74 -193 163 -223 57 -19 158 -15 198 7 36 21 99 81 99 96 0 7 5 13 10 13 6 0 10 9 10 20 0 11 4 20 10 20 15 0 4 143 -14 176 -21 39 -41 64 -52 64 -5 0 -15 9 -22 21 -8 12 -19 18 -28 15 -8 -3 -14 -2 -14 3 0 16 -58 33 -91 26 -21 -5 -34 -3 -39 5 -6 9 -9 9 -15 0z m78 -39 c50 -21 96 -79 98 -121 1 -23 2 -23 9 5 8 30 8 30 9 -8 0 -21 -3 -36 -8 -33 -4 3 -6 -6 -3 -19 5 -29 -13 -55 -38 -55 -9 0 -28 -11 -42 -23 -31 -29 -109 -43 -141 -25 -12 7 -24 12 -27 13 -3 0 -18 9 -33 20 -38 28 -49 109 -21 160 10 19 21 35 25 35 4 0 24 16 45 35 43 40 64 43 127 16z" transform="translate(0,120) scale(0.1,-0.1)" stroke="none" fill="#E4CDAD"/>

<path d="M455 787 c-117 -41 -214 -94 -292 -158 -51 -42 -63 -57 -63 -81 0 -43 16 -65 62 -89 91 -46 336 -110 372 -96 8 3 20 24 26 46 6 22 29 63 53 92 23 28 46 57 51 64 7 9 -2 35 -26 81 -20 38 -44 93 -53 122 -10 28 -22 52 -29 52 -6 -1 -52 -15 -101 -33z" transform="translate(0,120) scale(0.1,-0.1)" stroke="none" fill="#D07736"/>

<path d="M745 1118 c-118 -44 -184 -175 -156 -307 12 -55 52 -148 83 -193 26 -37 23 -48 -22 -97 -54 -57 -76 -104 -85 -172 -5 -44 -3 -65 11 -95 19 -43 82 -114 100 -114 6 0 17 -6 23 -14 6 -7 38 -19 70 -26 89 -19 197 -1 262 43 26 18 28 17 85 -14 177 -96 310 -65 389 90 31 62 24 171 -18 258 -7 17 -7 29 2 45 7 13 21 39 31 58 26 49 42 132 34 177 -24 127 -96 193 -220 201 -68 4 -104 -3 -206 -43 -13 -5 -21 2 -32 29 -19 46 -99 125 -155 154 -51 27 -152 37 -196 20z m354 -323 c33 7 91 -10 91 -26 0 -5 6 -6 14 -3 9 3 20 -3 28 -15 7 -12 17 -21 22 -21 11 0 31 -25 52 -64 18 -33 29 -176 14 -176 -6 0 -10 -9 -10 -20 0 -11 -4 -20 -10 -20 -5 0 -10 -6 -10 -13 0 -15 -63 -75 -99 -96 -40 -22 -141 -26 -198 -7 -89 30 -163 130 -163 223 0 71 57 181 98 190 6 2 21 13 35 27 17 17 31 22 49 19 14 -3 29 1 33 7 6 9 9 9 15 0 5 -8 18 -10 39 -5z" transform="translate(0,120) scale(0.1,-0.1)" stroke="none" fill="#765339"/>

</g>

<g id="3" transform="translate(0,360.0)scale(0.8,0.8)">

<path d="M556 368 c-11 -43 -6 -83 18 -133 27 -58 62 -91 131 -125 43 -21 64 -25 145 -25 82 1 103 5 151 28 59 29 84 33 94 17 3 -5 32 -22 63 -37 70 -33 188 -38 237 -11 61 33 125 109 125 148 0 8 -15 -10 -32 -40 -77 -128 -204 -150 -367 -63 -62 33 -64 34 -90 16 -65 -44 -173 -62 -262 -43 -32 7 -64 19 -70 26 -6 8 -17 14 -23 14 -19 0 -81 71 -101 114 -13 29 -16 51 -11 87 7 51 3 65 -8 27z" transform="translate(0,120) scale(0.1,-0.1)" stroke="none" fill="#E4CDAD"/>

<path d="M735 1127 c-46 -14 -105 -69 -135 -126 -23 -46 -36 -145 -23 -178 5 -15 8 3 8 55 0 66 5 85 28 124 70 120 206 160 329 96 56 -29 135 -108 154 -154 11 -27 19 -34 32 -29 102 40 138 47 206 43 124 -8 196 -74 220 -201 8 -45 -8 -128 -34 -177 -10 -19 -24 -45 -31 -58 -9 -16 -9 -28 -2 -45 29 -59 37 -96 36 -161 0 -57 1 -65 9 -41 11 39 1 126 -22 181 l-19 43 36 70 c33 64 37 79 37 149 0 69 -4 86 -31 133 -18 33 -47 66 -74 84 -42 29 -49 30 -149 30 -80 0 -113 -5 -137 -18 -44 -23 -56 -22 -71 11 -40 92 -161 172 -266 178 -33 1 -79 -3 -101 -9z" transform="translate(0,120) scale(0.1,-0.1)" stroke="none" fill="#E4CDAD"/>

<path d="M1017 749 c-8 -11 -13 -29 -10 -40 4 -16 0 -19 -25 -19 -45 0 -60 -57 -21 -84 14 -9 20 -22 17 -34 -8 -29 17 -55 51 -54 17 0 32 -5 35 -14 6 -17 57 -19 73 -3 6 6 9 18 6 26 -5 12 -1 14 15 9 12 -4 30 -2 41 4 17 9 20 19 17 65 -2 34 -9 62 -19 73 -9 10 -17 26 -17 35 0 18 -34 32 -51 21 -6 -3 -9 -19 -7 -35 4 -24 2 -26 -13 -18 -11 5 -16 16 -13 24 4 8 3 26 0 40 -8 32 -58 35 -79 4z m43 -89 c0 -5 -4 -12 -10 -15 -5 -3 -10 -4 -10 -1 0 2 -3 12 -6 20 -5 12 -2 15 10 10 9 -3 16 -10 16 -14z m100 -11 c0 -11 -4 -17 -10 -14 -5 3 -10 13 -10 21 0 8 5 14 10 14 6 0 10 -9 10 -21z m-110 -44 c0 -9 -6 -12 -15 -9 -8 4 -15 10 -15 15 0 5 7 9 15 9 8 0 15 -7 15 -15z m25 -35 c3 -5 1 -10 -4 -10 -6 0 -11 5 -11 10 0 6 2 10 4 10 3 0 8 -4 11 -10z m65 0 c0 -5 -4 -10 -10 -10 -5 0 -10 5 -10 10 0 6 5 10 10 10 6 0 10 -4 10 -10z" transform="translate(0,120) scale(0.1,-0.1)" stroke="none" fill="#D07736"/>

<path d="M1045 800 c-4 -6 -19 -10 -33 -7 -18 3 -32 -2 -49 -19 -14 -14 -29 -25 -35 -27 -41 -9 -98 -119 -98 -190 0 -93 74 -193 163 -223 57 -19 158 -15 198 7 36 21 99 81 99 96 0 7 5 13 10 13 6 0 10 9 10 20 0 11 4 20 10 20 15 0 4 143 -14 176 -21 39 -41 64 -52 64 -5 0 -15 9 -22 21 -8 12 -19 18 -28 15 -8 -3 -14 -2 -14 3 0 16 -58 33 -91 26 -21 -5 -34 -3 -39 5 -6 9 -9 9 -15 0z m78 -39 c50 -21 96 -79 98 -121 1 -23 2 -23 9 5 8 30 8 30 9 -8 0 -21 -3 -36 -8 -33 -4 3 -6 -6 -3 -19 5 -29 -13 -55 -38 -55 -9 0 -28 -11 -42 -23 -31 -29 -109 -43 -141 -25 -12 7 -24 12 -27 13 -3 0 -18 9 -33 20 -38 28 -49 109 -21 160 10 19 21 35 25 35 4 0 24 16 45 35 43 40 64 43 127 16z" transform="translate(0,120) scale(0.1,-0.1)" stroke="none" fill="#E4CDAD"/>

<path d="M455 787 c-117 -41 -214 -94 -292 -158 -51 -42 -63 -57 -63 -81 0 -43 16 -65 62 -89 91 -46 336 -110 372 -96 8 3 20 24 26 46 6 22 29 63 53 92 23 28 46 57 51 64 7 9 -2 35 -26 81 -20 38 -44 93 -53 122 -10 28 -22 52 -29 52 -6 -1 -52 -15 -101 -33z" transform="translate(0,120) scale(0.1,-0.1)" stroke="none" fill="#D07736"/>

<path d="M745 1118 c-118 -44 -184 -175 -156 -307 12 -55 52 -148 83 -193 26 -37 23 -48 -22 -97 -54 -57 -76 -104 -85 -172 -5 -44 -3 -65 11 -95 19 -43 82 -114 100 -114 6 0 17 -6 23 -14 6 -7 38 -19 70 -26 89 -19 197 -1 262 43 26 18 28 17 85 -14 177 -96 310 -65 389 90 31 62 24 171 -18 258 -7 17 -7 29 2 45 7 13 21 39 31 58 26 49 42 132 34 177 -24 127 -96 193 -220 201 -68 4 -104 -3 -206 -43 -13 -5 -21 2 -32 29 -19 46 -99 125 -155 154 -51 27 -152 37 -196 20z m354 -323 c33 7 91 -10 91 -26 0 -5 6 -6 14 -3 9 3 20 -3 28 -15 7 -12 17 -21 22 -21 11 0 31 -25 52 -64 18 -33 29 -176 14 -176 -6 0 -10 -9 -10 -20 0 -11 -4 -20 -10 -20 -5 0 -10 -6 -10 -13 0 -15 -63 -75 -99 -96 -40 -22 -141 -26 -198 -7 -89 30 -163 130 -163 223 0 71 57 181 98 190 6 2 21 13 35 27 17 17 31 22 49 19 14 -3 29 1 33 7 6 9 9 9 15 0 5 -8 18 -10 39 -5z" transform="translate(0,120) scale(0.1,-0.1)" stroke="none" fill="#765339"/>

</g>

<g id="4" transform="translate(0,480.0)scale(0.8,0.8)">

<path d="M556 368 c-11 -43 -6 -83 18 -133 27 -58 62 -91 131 -125 43 -21 64 -25 145 -25 82 1 103 5 151 28 59 29 84 33 94 17 3 -5 32 -22 63 -37 70 -33 188 -38 237 -11 61 33 125 109 125 148 0 8 -15 -10 -32 -40 -77 -128 -204 -150 -367 -63 -62 33 -64 34 -90 16 -65 -44 -173 -62 -262 -43 -32 7 -64 19 -70 26 -6 8 -17 14 -23 14 -19 0 -81 71 -101 114 -13 29 -16 51 -11 87 7 51 3 65 -8 27z" transform="translate(0,120) scale(0.1,-0.1)" stroke="none" fill="#E4CDAD"/>

<path d="M735 1127 c-46 -14 -105 -69 -135 -126 -23 -46 -36 -145 -23 -178 5 -15 8 3 8 55 0 66 5 85 28 124 70 120 206 160 329 96 56 -29 135 -108 154 -154 11 -27 19 -34 32 -29 102 40 138 47 206 43 124 -8 196 -74 220 -201 8 -45 -8 -128 -34 -177 -10 -19 -24 -45 -31 -58 -9 -16 -9 -28 -2 -45 29 -59 37 -96 36 -161 0 -57 1 -65 9 -41 11 39 1 126 -22 181 l-19 43 36 70 c33 64 37 79 37 149 0 69 -4 86 -31 133 -18 33 -47 66 -74 84 -42 29 -49 30 -149 30 -80 0 -113 -5 -137 -18 -44 -23 -56 -22 -71 11 -40 92 -161 172 -266 178 -33 1 -79 -3 -101 -9z" transform="translate(0,120) scale(0.1,-0.1)" stroke="none" fill="#E4CDAD"/>

<path d="M1017 749 c-8 -11 -13 -29 -10 -40 4 -16 0 -19 -25 -19 -45 0 -60 -57 -21 -84 14 -9 20 -22 17 -34 -8 -29 17 -55 51 -54 17 0 32 -5 35 -14 6 -17 57 -19 73 -3 6 6 9 18 6 26 -5 12 -1 14 15 9 12 -4 30 -2 41 4 17 9 20 19 17 65 -2 34 -9 62 -19 73 -9 10 -17 26 -17 35 0 18 -34 32 -51 21 -6 -3 -9 -19 -7 -35 4 -24 2 -26 -13 -18 -11 5 -16 16 -13 24 4 8 3 26 0 40 -8 32 -58 35 -79 4z m43 -89 c0 -5 -4 -12 -10 -15 -5 -3 -10 -4 -10 -1 0 2 -3 12 -6 20 -5 12 -2 15 10 10 9 -3 16 -10 16 -14z m100 -11 c0 -11 -4 -17 -10 -14 -5 3 -10 13 -10 21 0 8 5 14 10 14 6 0 10 -9 10 -21z m-110 -44 c0 -9 -6 -12 -15 -9 -8 4 -15 10 -15 15 0 5 7 9 15 9 8 0 15 -7 15 -15z m25 -35 c3 -5 1 -10 -4 -10 -6 0 -11 5 -11 10 0 6 2 10 4 10 3 0 8 -4 11 -10z m65 0 c0 -5 -4 -10 -10 -10 -5 0 -10 5 -10 10 0 6 5 10 10 10 6 0 10 -4 10 -10z" transform="translate(0,120) scale(0.1,-0.1)" stroke="none" fill="#D07736"/>

<path d="M1045 800 c-4 -6 -19 -10 -33 -7 -18 3 -32 -2 -49 -19 -14 -14 -29 -25 -35 -27 -41 -9 -98 -119 -98 -190 0 -93 74 -193 163 -223 57 -19 158 -15 198 7 36 21 99 81 99 96 0 7 5 13 10 13 6 0 10 9 10 20 0 11 4 20 10 20 15 0 4 143 -14 176 -21 39 -41 64 -52 64 -5 0 -15 9 -22 21 -8 12 -19 18 -28 15 -8 -3 -14 -2 -14 3 0 16 -58 33 -91 26 -21 -5 -34 -3 -39 5 -6 9 -9 9 -15 0z m78 -39 c50 -21 96 -79 98 -121 1 -23 2 -23 9 5 8 30 8 30 9 -8 0 -21 -3 -36 -8 -33 -4 3 -6 -6 -3 -19 5 -29 -13 -55 -38 -55 -9 0 -28 -11 -42 -23 -31 -29 -109 -43 -141 -25 -12 7 -24 12 -27 13 -3 0 -18 9 -33 20 -38 28 -49 109 -21 160 10 19 21 35 25 35 4 0 24 16 45 35 43 40 64 43 127 16z" transform="translate(0,120) scale(0.1,-0.1)" stroke="none" fill="#E4CDAD"/>

<path d="M455 787 c-117 -41 -214 -94 -292 -158 -51 -42 -63 -57 -63 -81 0 -43 16 -65 62 -89 91 -46 336 -110 372 -96 8 3 20 24 26 46 6 22 29 63 53 92 23 28 46 57 51 64 7 9 -2 35 -26 81 -20 38 -44 93 -53 122 -10 28 -22 52 -29 52 -6 -1 -52 -15 -101 -33z" transform="translate(0,120) scale(0.1,-0.1)" stroke="none" fill="#D07736"/>

<path d="M745 1118 c-118 -44 -184 -175 -156 -307 12 -55 52 -148 83 -193 26 -37 23 -48 -22 -97 -54 -57 -76 -104 -85 -172 -5 -44 -3 -65 11 -95 19 -43 82 -114 100 -114 6 0 17 -6 23 -14 6 -7 38 -19 70 -26 89 -19 197 -1 262 43 26 18 28 17 85 -14 177 -96 310 -65 389 90 31 62 24 171 -18 258 -7 17 -7 29 2 45 7 13 21 39 31 58 26 49 42 132 34 177 -24 127 -96 193 -220 201 -68 4 -104 -3 -206 -43 -13 -5 -21 2 -32 29 -19 46 -99 125 -155 154 -51 27 -152 37 -196 20z m354 -323 c33 7 91 -10 91 -26 0 -5 6 -6 14 -3 9 3 20 -3 28 -15 7 -12 17 -21 22 -21 11 0 31 -25 52 -64 18 -33 29 -176 14 -176 -6 0 -10 -9 -10 -20 0 -11 -4 -20 -10 -20 -5 0 -10 -6 -10 -13 0 -15 -63 -75 -99 -96 -40 -22 -141 -26 -198 -7 -89 30 -163 130 -163 223 0 71 57 181 98 190 6 2 21 13 35 27 17 17 31 22 49 19 14 -3 29 1 33 7 6 9 9 9 15 0 5 -8 18 -10 39 -5z" transform="translate(0,120) scale(0.1,-0.1)" stroke="none" fill="#765339"/>

</g>

</g>
<g id="col1" transform="translate(164, -44.0)">
<g id="0" transform="translate(0,0.0)scale(0.8,0.8)">

<path d="M556 368 c-11 -43 -6 -83 18 -133 27 -58 62 -91 131 -125 43 -21 64 -25 145 -25 82 1 103 5 151 28 59 29 84 33 94 17 3 -5 32 -22 63 -37 70 -33 188 -38 237 -11 61 33 125 109 125 148 0 8 -15 -10 -32 -40 -77 -128 -204 -150 -367 -63 -62 33 -64 34 -90 16 -65 -44 -173 -62 -262 -43 -32 7 -64 19 -70 26 -6 8 -17 14 -23 14 -19 0 -81 71 -101 114 -13 29 -16 51 -11 87 7 51 3 65 -8 27z" transform="translate(0,120) scale(0.1,-0.1)" stroke="none" fill="#E4CDAD"/>

<path d="M735 1127 c-46 -14 -105 -69 -135 -126 -23 -46 -36 -145 -23 -178 5 -15 8 3 8 55 0 66 5 85 28 124 70 120 206 160 329 96 56 -29 135 -108 154 -154 11 -27 19 -34 32 -29 102 40 138 47 206 43 124 -8 196 -74 220 -201 8 -45 -8 -128 -34 -177 -10 -19 -24 -45 -31 -58 -9 -16 -9 -28 -2 -45 29 -59 37 -96 36 -161 0 -57 1 -65 9 -41 11 39 1 126 -22 181 l-19 43 36 70 c33 64 37 79 37 149 0 69 -4 86 -31 133 -18 33 -47 66 -74 84 -42 29 -49 30 -149 30 -80 0 -113 -5 -137 -18 -44 -23 -56 -22 -71 11 -40 92 -161 172 -266 178 -33 1 -79 -3 -101 -9z" transform="translate(0,120) scale(0.1,-0.1)" stroke="none" fill="#E4CDAD"/>

<path d="M1017 749 c-8 -11 -13 -29 -10 -40 4 -16 0 -19 -25 -19 -45 0 -60 -57 -21 -84 14 -9 20 -22 17 -34 -8 -29 17 -55 51 -54 17 0 32 -5 35 -14 6 -17 57 -19 73 -3 6 6 9 18 6 26 -5 12 -1 14 15 9 12 -4 30 -2 41 4 17 9 20 19 17 65 -2 34 -9 62 -19 73 -9 10 -17 26 -17 35 0 18 -34 32 -51 21 -6 -3 -9 -19 -7 -35 4 -24 2 -26 -13 -18 -11 5 -16 16 -13 24 4 8 3 26 0 40 -8 32 -58 35 -79 4z m43 -89 c0 -5 -4 -12 -10 -15 -5 -3 -10 -4 -10 -1 0 2 -3 12 -6 20 -5 12 -2 15 10 10 9 -3 16 -10 16 -14z m100 -11 c0 -11 -4 -17 -10 -14 -5 3 -10 13 -10 21 0 8 5 14 10 14 6 0 10 -9 10 -21z m-110 -44 c0 -9 -6 -12 -15 -9 -8 4 -15 10 -15 15 0 5 7 9 15 9 8 0 15 -7 15 -15z m25 -35 c3 -5 1 -10 -4 -10 -6 0 -11 5 -11 10 0 6 2 10 4 10 3 0 8 -4 11 -10z m65 0 c0 -5 -4 -10 -10 -10 -5 0 -10 5 -10 10 0 6 5 10 10 10 6 0 10 -4 10 -10z" transform="translate(0,120) scale(0.1,-0.1)" stroke="none" fill="#D07736"/>

<path d="M1045 800 c-4 -6 -19 -10 -33 -7 -18 3 -32 -2 -49 -19 -14 -14 -29 -25 -35 -27 -41 -9 -98 -119 -98 -190 0 -93 74 -193 163 -223 57 -19 158 -15 198 7 36 21 99 81 99 96 0 7 5 13 10 13 6 0 10 9 10 20 0 11 4 20 10 20 15 0 4 143 -14 176 -21 39 -41 64 -52 64 -5 0 -15 9 -22 21 -8 12 -19 18 -28 15 -8 -3 -14 -2 -14 3 0 16 -58 33 -91 26 -21 -5 -34 -3 -39 5 -6 9 -9 9 -15 0z m78 -39 c50 -21 96 -79 98 -121 1 -23 2 -23 9 5 8 30 8 30 9 -8 0 -21 -3 -36 -8 -33 -4 3 -6 -6 -3 -19 5 -29 -13 -55 -38 -55 -9 0 -28 -11 -42 -23 -31 -29 -109 -43 -141 -25 -12 7 -24 12 -27 13 -3 0 -18 9 -33 20 -38 28 -49 109 -21 160 10 19 21 35 25 35 4 0 24 16 45 35 43 40 64 43 127 16z" transform="translate(0,120) scale(0.1,-0.1)" stroke="none" fill="#E4CDAD"/>

<path d="M455 787 c-117 -41 -214 -94 -292 -158 -51 -42 -63 -57 -63 -81 0 -43 16 -65 62 -89 91 -46 336 -110 372 -96 8 3 20 24 26 46 6 22 29 63 53 92 23 28 46 57 51 64 7 9 -2 35 -26 81 -20 38 -44 93 -53 122 -10 28 -22 52 -29 52 -6 -1 -52 -15 -101 -33z" transform="translate(0,120) scale(0.1,-0.1)" stroke="none" fill="#D07736"/>

<path d="M745 1118 c-118 -44 -184 -175 -156 -307 12 -55 52 -148 83 -193 26 -37 23 -48 -22 -97 -54 -57 -76 -104 -85 -172 -5 -44 -3 -65 11 -95 19 -43 82 -114 100 -114 6 0 17 -6 23 -14 6 -7 38 -19 70 -26 89 -19 197 -1 262 43 26 18 28 17 85 -14 177 -96 310 -65 389 90 31 62 24 171 -18 258 -7 17 -7 29 2 45 7 13 21 39 31 58 26 49 42 132 34 177 -24 127 -96 193 -220 201 -68 4 -104 -3 -206 -43 -13 -5 -21 2 -32 29 -19 46 -99 125 -155 154 -51 27 -152 37 -196 20z m354 -323 c33 7 91 -10 91 -26 0 -5 6 -6 14 -3 9 3 20 -3 28 -15 7 -12 17 -21 22 -21 11 0 31 -25 52 -64 18 -33 29 -176 14 -176 -6 0 -10 -9 -10 -20 0 -11 -4 -20 -10 -20 -5 0 -10 -6 -10 -13 0 -15 -63 -75 -99 -96 -40 -22 -141 -26 -198 -7 -89 30 -163 130 -163 223 0 71 57 181 98 190 6 2 21 13 35 27 17 17 31 22 49 19 14 -3 29 1 33 7 6 9 9 9 15 0 5 -8 18 -10 39 -5z" transform="translate(0,120) scale(0.1,-0.1)" stroke="none" fill="#765339"/>

</g>

<g id="1" transform="translate(0,120.0)scale(0.8,0.8)">

<path d="M556 368 c-11 -43 -6 -83 18 -133 27 -58 62 -91 131 -125 43 -21 64 -25 145 -25 82 1 103 5 151 28 59 29 84 33 94 17 3 -5 32 -22 63 -37 70 -33 188 -38 237 -11 61 33 125 109 125 148 0 8 -15 -10 -32 -40 -77 -128 -204 -150 -367 -63 -62 33 -64 34 -90 16 -65 -44 -173 -62 -262 -43 -32 7 -64 19 -70 26 -6 8 -17 14 -23 14 -19 0 -81 71 -101 114 -13 29 -16 51 -11 87 7 51 3 65 -8 27z" transform="translate(0,120) scale(0.1,-0.1)" stroke="none" fill="#E4CDAD"/>

<path d="M735 1127 c-46 -14 -105 -69 -135 -126 -23 -46 -36 -145 -23 -178 5 -15 8 3 8 55 0 66 5 85 28 124 70 120 206 160 329 96 56 -29 135 -108 154 -154 11 -27 19 -34 32 -29 102 40 138 47 206 43 124 -8 196 -74 220 -201 8 -45 -8 -128 -34 -177 -10 -19 -24 -45 -31 -58 -9 -16 -9 -28 -2 -45 29 -59 37 -96 36 -161 0 -57 1 -65 9 -41 11 39 1 126 -22 181 l-19 43 36 70 c33 64 37 79 37 149 0 69 -4 86 -31 133 -18 33 -47 66 -74 84 -42 29 -49 30 -149 30 -80 0 -113 -5 -137 -18 -44 -23 -56 -22 -71 11 -40 92 -161 172 -266 178 -33 1 -79 -3 -101 -9z" transform="translate(0,120) scale(0.1,-0.1)" stroke="none" fill="#E4CDAD"/>

<path d="M1017 749 c-8 -11 -13 -29 -10 -40 4 -16 0 -19 -25 -19 -45 0 -60 -57 -21 -84 14 -9 20 -22 17 -34 -8 -29 17 -55 51 -54 17 0 32 -5 35 -14 6 -17 57 -19 73 -3 6 6 9 18 6 26 -5 12 -1 14 15 9 12 -4 30 -2 41 4 17 9 20 19 17 65 -2 34 -9 62 -19 73 -9 10 -17 26 -17 35 0 18 -34 32 -51 21 -6 -3 -9 -19 -7 -35 4 -24 2 -26 -13 -18 -11 5 -16 16 -13 24 4 8 3 26 0 40 -8 32 -58 35 -79 4z m43 -89 c0 -5 -4 -12 -10 -15 -5 -3 -10 -4 -10 -1 0 2 -3 12 -6 20 -5 12 -2 15 10 10 9 -3 16 -10 16 -14z m100 -11 c0 -11 -4 -17 -10 -14 -5 3 -10 13 -10 21 0 8 5 14 10 14 6 0 10 -9 10 -21z m-110 -44 c0 -9 -6 -12 -15 -9 -8 4 -15 10 -15 15 0 5 7 9 15 9 8 0 15 -7 15 -15z m25 -35 c3 -5 1 -10 -4 -10 -6 0 -11 5 -11 10 0 6 2 10 4 10 3 0 8 -4 11 -10z m65 0 c0 -5 -4 -10 -10 -10 -5 0 -10 5 -10 10 0 6 5 10 10 10 6 0 10 -4 10 -10z" transform="translate(0,120) scale(0.1,-0.1)" stroke="none" fill="#D07736"/>

<path d="M1045 800 c-4 -6 -19 -10 -33 -7 -18 3 -32 -2 -49 -19 -14 -14 -29 -25 -35 -27 -41 -9 -98 -119 -98 -190 0 -93 74 -193 163 -223 57 -19 158 -15 198 7 36 21 99 81 99 96 0 7 5 13 10 13 6 0 10 9 10 20 0 11 4 20 10 20 15 0 4 143 -14 176 -21 39 -41 64 -52 64 -5 0 -15 9 -22 21 -8 12 -19 18 -28 15 -8 -3 -14 -2 -14 3 0 16 -58 33 -91 26 -21 -5 -34 -3 -39 5 -6 9 -9 9 -15 0z m78 -39 c50 -21 96 -79 98 -121 1 -23 2 -23 9 5 8 30 8 30 9 -8 0 -21 -3 -36 -8 -33 -4 3 -6 -6 -3 -19 5 -29 -13 -55 -38 -55 -9 0 -28 -11 -42 -23 -31 -29 -109 -43 -141 -25 -12 7 -24 12 -27 13 -3 0 -18 9 -33 20 -38 28 -49 109 -21 160 10 19 21 35 25 35 4 0 24 16 45 35 43 40 64 43 127 16z" transform="translate(0,120) scale(0.1,-0.1)" stroke="none" fill="#E4CDAD"/>

<path d="M455 787 c-117 -41 -214 -94 -292 -158 -51 -42 -63 -57 -63 -81 0 -43 16 -65 62 -89 91 -46 336 -110 372 -96 8 3 20 24 26 46 6 22 29 63 53 92 23 28 46 57 51 64 7 9 -2 35 -26 81 -20 38 -44 93 -53 122 -10 28 -22 52 -29 52 -6 -1 -52 -15 -101 -33z" transform="translate(0,120) scale(0.1,-0.1)" stroke="none" fill="#D07736"/>

<path d="M745 1118 c-118 -44 -184 -175 -156 -307 12 -55 52 -148 83 -193 26 -37 23 -48 -22 -97 -54 -57 -76 -104 -85 -172 -5 -44 -3 -65 11 -95 19 -43 82 -114 100 -114 6 0 17 -6 23 -14 6 -7 38 -19 70 -26 89 -19 197 -1 262 43 26 18 28 17 85 -14 177 -96 310 -65 389 90 31 62 24 171 -18 258 -7 17 -7 29 2 45 7 13 21 39 31 58 26 49 42 132 34 177 -24 127 -96 193 -220 201 -68 4 -104 -3 -206 -43 -13 -5 -21 2 -32 29 -19 46 -99 125 -155 154 -51 27 -152 37 -196 20z m354 -323 c33 7 91 -10 91 -26 0 -5 6 -6 14 -3 9 3 20 -3 28 -15 7 -12 17 -21 22 -21 11 0 31 -25 52 -64 18 -33 29 -176 14 -176 -6 0 -10 -9 -10 -20 0 -11 -4 -20 -10 -20 -5 0 -10 -6 -10 -13 0 -15 -63 -75 -99 -96 -40 -22 -141 -26 -198 -7 -89 30 -163 130 -163 223 0 71 57 181 98 190 6 2 21 13 35 27 17 17 31 22 49 19 14 -3 29 1 33 7 6 9 9 9 15 0 5 -8 18 -10 39 -5z" transform="translate(0,120) scale(0.1,-0.1)" stroke="none" fill="#765339"/>

</g>

<g id="2" transform="translate(0,240.0)scale(0.8,0.8)">

<path d="M556 368 c-11 -43 -6 -83 18 -133 27 -58 62 -91 131 -125 43 -21 64 -25 145 -25 82 1 103 5 151 28 59 29 84 33 94 17 3 -5 32 -22 63 -37 70 -33 188 -38 237 -11 61 33 125 109 125 148 0 8 -15 -10 -32 -40 -77 -128 -204 -150 -367 -63 -62 33 -64 34 -90 16 -65 -44 -173 -62 -262 -43 -32 7 -64 19 -70 26 -6 8 -17 14 -23 14 -19 0 -81 71 -101 114 -13 29 -16 51 -11 87 7 51 3 65 -8 27z" transform="translate(0,120) scale(0.1,-0.1)" stroke="none" fill="#E4CDAD"/>

<path d="M735 1127 c-46 -14 -105 -69 -135 -126 -23 -46 -36 -145 -23 -178 5 -15 8 3 8 55 0 66 5 85 28 124 70 120 206 160 329 96 56 -29 135 -108 154 -154 11 -27 19 -34 32 -29 102 40 138 47 206 43 124 -8 196 -74 220 -201 8 -45 -8 -128 -34 -177 -10 -19 -24 -45 -31 -58 -9 -16 -9 -28 -2 -45 29 -59 37 -96 36 -161 0 -57 1 -65 9 -41 11 39 1 126 -22 181 l-19 43 36 70 c33 64 37 79 37 149 0 69 -4 86 -31 133 -18 33 -47 66 -74 84 -42 29 -49 30 -149 30 -80 0 -113 -5 -137 -18 -44 -23 -56 -22 -71 11 -40 92 -161 172 -266 178 -33 1 -79 -3 -101 -9z" transform="translate(0,120) scale(0.1,-0.1)" stroke="none" fill="#E4CDAD"/>

<path d="M1017 749 c-8 -11 -13 -29 -10 -40 4 -16 0 -19 -25 -19 -45 0 -60 -57 -21 -84 14 -9 20 -22 17 -34 -8 -29 17 -55 51 -54 17 0 32 -5 35 -14 6 -17 57 -19 73 -3 6 6 9 18 6 26 -5 12 -1 14 15 9 12 -4 30 -2 41 4 17 9 20 19 17 65 -2 34 -9 62 -19 73 -9 10 -17 26 -17 35 0 18 -34 32 -51 21 -6 -3 -9 -19 -7 -35 4 -24 2 -26 -13 -18 -11 5 -16 16 -13 24 4 8 3 26 0 40 -8 32 -58 35 -79 4z m43 -89 c0 -5 -4 -12 -10 -15 -5 -3 -10 -4 -10 -1 0 2 -3 12 -6 20 -5 12 -2 15 10 10 9 -3 16 -10 16 -14z m100 -11 c0 -11 -4 -17 -10 -14 -5 3 -10 13 -10 21 0 8 5 14 10 14 6 0 10 -9 10 -21z m-110 -44 c0 -9 -6 -12 -15 -9 -8 4 -15 10 -15 15 0 5 7 9 15 9 8 0 15 -7 15 -15z m25 -35 c3 -5 1 -10 -4 -10 -6 0 -11 5 -11 10 0 6 2 10 4 10 3 0 8 -4 11 -10z m65 0 c0 -5 -4 -10 -10 -10 -5 0 -10 5 -10 10 0 6 5 10 10 10 6 0 10 -4 10 -10z" transform="translate(0,120) scale(0.1,-0.1)" stroke="none" fill="#D07736"/>

<path d="M1045 800 c-4 -6 -19 -10 -33 -7 -18 3 -32 -2 -49 -19 -14 -14 -29 -25 -35 -27 -41 -9 -98 -119 -98 -190 0 -93 74 -193 163 -223 57 -19 158 -15 198 7 36 21 99 81 99 96 0 7 5 13 10 13 6 0 10 9 10 20 0 11 4 20 10 20 15 0 4 143 -14 176 -21 39 -41 64 -52 64 -5 0 -15 9 -22 21 -8 12 -19 18 -28 15 -8 -3 -14 -2 -14 3 0 16 -58 33 -91 26 -21 -5 -34 -3 -39 5 -6 9 -9 9 -15 0z m78 -39 c50 -21 96 -79 98 -121 1 -23 2 -23 9 5 8 30 8 30 9 -8 0 -21 -3 -36 -8 -33 -4 3 -6 -6 -3 -19 5 -29 -13 -55 -38 -55 -9 0 -28 -11 -42 -23 -31 -29 -109 -43 -141 -25 -12 7 -24 12 -27 13 -3 0 -18 9 -33 20 -38 28 -49 109 -21 160 10 19 21 35 25 35 4 0 24 16 45 35 43 40 64 43 127 16z" transform="translate(0,120) scale(0.1,-0.1)" stroke="none" fill="#E4CDAD"/>

<path d="M455 787 c-117 -41 -214 -94 -292 -158 -51 -42 -63 -57 -63 -81 0 -43 16 -65 62 -89 91 -46 336 -110 372 -96 8 3 20 24 26 46 6 22 29 63 53 92 23 28 46 57 51 64 7 9 -2 35 -26 81 -20 38 -44 93 -53 122 -10 28 -22 52 -29 52 -6 -1 -52 -15 -101 -33z" transform="translate(0,120) scale(0.1,-0.1)" stroke="none" fill="#D07736"/>

<path d="M745 1118 c-118 -44 -184 -175 -156 -307 12 -55 52 -148 83 -193 26 -37 23 -48 -22 -97 -54 -57 -76 -104 -85 -172 -5 -44 -3 -65 11 -95 19 -43 82 -114 100 -114 6 0 17 -6 23 -14 6 -7 38 -19 70 -26 89 -19 197 -1 262 43 26 18 28 17 85 -14 177 -96 310 -65 389 90 31 62 24 171 -18 258 -7 17 -7 29 2 45 7 13 21 39 31 58 26 49 42 132 34 177 -24 127 -96 193 -220 201 -68 4 -104 -3 -206 -43 -13 -5 -21 2 -32 29 -19 46 -99 125 -155 154 -51 27 -152 37 -196 20z m354 -323 c33 7 91 -10 91 -26 0 -5 6 -6 14 -3 9 3 20 -3 28 -15 7 -12 17 -21 22 -21 11 0 31 -25 52 -64 18 -33 29 -176 14 -176 -6 0 -10 -9 -10 -20 0 -11 -4 -20 -10 -20 -5 0 -10 -6 -10 -13 0 -15 -63 -75 -99 -96 -40 -22 -141 -26 -198 -7 -89 30 -163 130 -163 223 0 71 57 181 98 190 6 2 21 13 35 27 17 17 31 22 49 19 14 -3 29 1 33 7 6 9 9 9 15 0 5 -8 18 -10 39 -5z" transform="translate(0,120) scale(0.1,-0.1)" stroke="none" fill="#765339"/>

</g>

<g id="3" transform="translate(0,360.0)scale(0.8,0.8)">

<path d="M556 368 c-11 -43 -6 -83 18 -133 27 -58 62 -91 131 -125 43 -21 64 -25 145 -25 82 1 103 5 151 28 59 29 84 33 94 17 3 -5 32 -22 63 -37 70 -33 188 -38 237 -11 61 33 125 109 125 148 0 8 -15 -10 -32 -40 -77 -128 -204 -150 -367 -63 -62 33 -64 34 -90 16 -65 -44 -173 -62 -262 -43 -32 7 -64 19 -70 26 -6 8 -17 14 -23 14 -19 0 -81 71 -101 114 -13 29 -16 51 -11 87 7 51 3 65 -8 27z" transform="translate(0,120) scale(0.1,-0.1)" stroke="none" fill="#E4CDAD"/>

<path d="M735 1127 c-46 -14 -105 -69 -135 -126 -23 -46 -36 -145 -23 -178 5 -15 8 3 8 55 0 66 5 85 28 124 70 120 206 160 329 96 56 -29 135 -108 154 -154 11 -27 19 -34 32 -29 102 40 138 47 206 43 124 -8 196 -74 220 -201 8 -45 -8 -128 -34 -177 -10 -19 -24 -45 -31 -58 -9 -16 -9 -28 -2 -45 29 -59 37 -96 36 -161 0 -57 1 -65 9 -41 11 39 1 126 -22 181 l-19 43 36 70 c33 64 37 79 37 149 0 69 -4 86 -31 133 -18 33 -47 66 -74 84 -42 29 -49 30 -149 30 -80 0 -113 -5 -137 -18 -44 -23 -56 -22 -71 11 -40 92 -161 172 -266 178 -33 1 -79 -3 -101 -9z" transform="translate(0,120) scale(0.1,-0.1)" stroke="none" fill="#E4CDAD"/>

<path d="M1017 749 c-8 -11 -13 -29 -10 -40 4 -16 0 -19 -25 -19 -45 0 -60 -57 -21 -84 14 -9 20 -22 17 -34 -8 -29 17 -55 51 -54 17 0 32 -5 35 -14 6 -17 57 -19 73 -3 6 6 9 18 6 26 -5 12 -1 14 15 9 12 -4 30 -2 41 4 17 9 20 19 17 65 -2 34 -9 62 -19 73 -9 10 -17 26 -17 35 0 18 -34 32 -51 21 -6 -3 -9 -19 -7 -35 4 -24 2 -26 -13 -18 -11 5 -16 16 -13 24 4 8 3 26 0 40 -8 32 -58 35 -79 4z m43 -89 c0 -5 -4 -12 -10 -15 -5 -3 -10 -4 -10 -1 0 2 -3 12 -6 20 -5 12 -2 15 10 10 9 -3 16 -10 16 -14z m100 -11 c0 -11 -4 -17 -10 -14 -5 3 -10 13 -10 21 0 8 5 14 10 14 6 0 10 -9 10 -21z m-110 -44 c0 -9 -6 -12 -15 -9 -8 4 -15 10 -15 15 0 5 7 9 15 9 8 0 15 -7 15 -15z m25 -35 c3 -5 1 -10 -4 -10 -6 0 -11 5 -11 10 0 6 2 10 4 10 3 0 8 -4 11 -10z m65 0 c0 -5 -4 -10 -10 -10 -5 0 -10 5 -10 10 0 6 5 10 10 10 6 0 10 -4 10 -10z" transform="translate(0,120) scale(0.1,-0.1)" stroke="none" fill="#D07736"/>

<path d="M1045 800 c-4 -6 -19 -10 -33 -7 -18 3 -32 -2 -49 -19 -14 -14 -29 -25 -35 -27 -41 -9 -98 -119 -98 -190 0 -93 74 -193 163 -223 57 -19 158 -15 198 7 36 21 99 81 99 96 0 7 5 13 10 13 6 0 10 9 10 20 0 11 4 20 10 20 15 0 4 143 -14 176 -21 39 -41 64 -52 64 -5 0 -15 9 -22 21 -8 12 -19 18 -28 15 -8 -3 -14 -2 -14 3 0 16 -58 33 -91 26 -21 -5 -34 -3 -39 5 -6 9 -9 9 -15 0z m78 -39 c50 -21 96 -79 98 -121 1 -23 2 -23 9 5 8 30 8 30 9 -8 0 -21 -3 -36 -8 -33 -4 3 -6 -6 -3 -19 5 -29 -13 -55 -38 -55 -9 0 -28 -11 -42 -23 -31 -29 -109 -43 -141 -25 -12 7 -24 12 -27 13 -3 0 -18 9 -33 20 -38 28 -49 109 -21 160 10 19 21 35 25 35 4 0 24 16 45 35 43 40 64 43 127 16z" transform="translate(0,120) scale(0.1,-0.1)" stroke="none" fill="#E4CDAD"/>

<path d="M455 787 c-117 -41 -214 -94 -292 -158 -51 -42 -63 -57 -63 -81 0 -43 16 -65 62 -89 91 -46 336 -110 372 -96 8 3 20 24 26 46 6 22 29 63 53 92 23 28 46 57 51 64 7 9 -2 35 -26 81 -20 38 -44 93 -53 122 -10 28 -22 52 -29 52 -6 -1 -52 -15 -101 -33z" transform="translate(0,120) scale(0.1,-0.1)" stroke="none" fill="#D07736"/>

<path d="M745 1118 c-118 -44 -184 -175 -156 -307 12 -55 52 -148 83 -193 26 -37 23 -48 -22 -97 -54 -57 -76 -104 -85 -172 -5 -44 -3 -65 11 -95 19 -43 82 -114 100 -114 6 0 17 -6 23 -14 6 -7 38 -19 70 -26 89 -19 197 -1 262 43 26 18 28 17 85 -14 177 -96 310 -65 389 90 31 62 24 171 -18 258 -7 17 -7 29 2 45 7 13 21 39 31 58 26 49 42 132 34 177 -24 127 -96 193 -220 201 -68 4 -104 -3 -206 -43 -13 -5 -21 2 -32 29 -19 46 -99 125 -155 154 -51 27 -152 37 -196 20z m354 -323 c33 7 91 -10 91 -26 0 -5 6 -6 14 -3 9 3 20 -3 28 -15 7 -12 17 -21 22 -21 11 0 31 -25 52 -64 18 -33 29 -176 14 -176 -6 0 -10 -9 -10 -20 0 -11 -4 -20 -10 -20 -5 0 -10 -6 -10 -13 0 -15 -63 -75 -99 -96 -40 -22 -141 -26 -198 -7 -89 30 -163 130 -163 223 0 71 57 181 98 190 6 2 21 13 35 27 17 17 31 22 49 19 14 -3 29 1 33 7 6 9 9 9 15 0 5 -8 18 -10 39 -5z" transform="translate(0,120) scale(0.1,-0.1)" stroke="none" fill="#765339"/>

</g>

<g id="4" transform="translate(0,480.0)scale(0.8,0.8)">

<path d="M556 368 c-11 -43 -6 -83 18 -133 27 -58 62 -91 131 -125 43 -21 64 -25 145 -25 82 1 103 5 151 28 59 29 84 33 94 17 3 -5 32 -22 63 -37 70 -33 188 -38 237 -11 61 33 125 109 125 148 0 8 -15 -10 -32 -40 -77 -128 -204 -150 -367 -63 -62 33 -64 34 -90 16 -65 -44 -173 -62 -262 -43 -32 7 -64 19 -70 26 -6 8 -17 14 -23 14 -19 0 -81 71 -101 114 -13 29 -16 51 -11 87 7 51 3 65 -8 27z" transform="translate(0,120) scale(0.1,-0.1)" stroke="none" fill="#E4CDAD"/>

<path d="M735 1127 c-46 -14 -105 -69 -135 -126 -23 -46 -36 -145 -23 -178 5 -15 8 3 8 55 0 66 5 85 28 124 70 120 206 160 329 96 56 -29 135 -108 154 -154 11 -27 19 -34 32 -29 102 40 138 47 206 43 124 -8 196 -74 220 -201 8 -45 -8 -128 -34 -177 -10 -19 -24 -45 -31 -58 -9 -16 -9 -28 -2 -45 29 -59 37 -96 36 -161 0 -57 1 -65 9 -41 11 39 1 126 -22 181 l-19 43 36 70 c33 64 37 79 37 149 0 69 -4 86 -31 133 -18 33 -47 66 -74 84 -42 29 -49 30 -149 30 -80 0 -113 -5 -137 -18 -44 -23 -56 -22 -71 11 -40 92 -161 172 -266 178 -33 1 -79 -3 -101 -9z" transform="translate(0,120) scale(0.1,-0.1)" stroke="none" fill="#E4CDAD"/>

<path d="M1017 749 c-8 -11 -13 -29 -10 -40 4 -16 0 -19 -25 -19 -45 0 -60 -57 -21 -84 14 -9 20 -22 17 -34 -8 -29 17 -55 51 -54 17 0 32 -5 35 -14 6 -17 57 -19 73 -3 6 6 9 18 6 26 -5 12 -1 14 15 9 12 -4 30 -2 41 4 17 9 20 19 17 65 -2 34 -9 62 -19 73 -9 10 -17 26 -17 35 0 18 -34 32 -51 21 -6 -3 -9 -19 -7 -35 4 -24 2 -26 -13 -18 -11 5 -16 16 -13 24 4 8 3 26 0 40 -8 32 -58 35 -79 4z m43 -89 c0 -5 -4 -12 -10 -15 -5 -3 -10 -4 -10 -1 0 2 -3 12 -6 20 -5 12 -2 15 10 10 9 -3 16 -10 16 -14z m100 -11 c0 -11 -4 -17 -10 -14 -5 3 -10 13 -10 21 0 8 5 14 10 14 6 0 10 -9 10 -21z m-110 -44 c0 -9 -6 -12 -15 -9 -8 4 -15 10 -15 15 0 5 7 9 15 9 8 0 15 -7 15 -15z m25 -35 c3 -5 1 -10 -4 -10 -6 0 -11 5 -11 10 0 6 2 10 4 10 3 0 8 -4 11 -10z m65 0 c0 -5 -4 -10 -10 -10 -5 0 -10 5 -10 10 0 6 5 10 10 10 6 0 10 -4 10 -10z" transform="translate(0,120) scale(0.1,-0.1)" stroke="none" fill="#D07736"/>

<path d="M1045 800 c-4 -6 -19 -10 -33 -7 -18 3 -32 -2 -49 -19 -14 -14 -29 -25 -35 -27 -41 -9 -98 -119 -98 -190 0 -93 74 -193 163 -223 57 -19 158 -15 198 7 36 21 99 81 99 96 0 7 5 13 10 13 6 0 10 9 10 20 0 11 4 20 10 20 15 0 4 143 -14 176 -21 39 -41 64 -52 64 -5 0 -15 9 -22 21 -8 12 -19 18 -28 15 -8 -3 -14 -2 -14 3 0 16 -58 33 -91 26 -21 -5 -34 -3 -39 5 -6 9 -9 9 -15 0z m78 -39 c50 -21 96 -79 98 -121 1 -23 2 -23 9 5 8 30 8 30 9 -8 0 -21 -3 -36 -8 -33 -4 3 -6 -6 -3 -19 5 -29 -13 -55 -38 -55 -9 0 -28 -11 -42 -23 -31 -29 -109 -43 -141 -25 -12 7 -24 12 -27 13 -3 0 -18 9 -33 20 -38 28 -49 109 -21 160 10 19 21 35 25 35 4 0 24 16 45 35 43 40 64 43 127 16z" transform="translate(0,120) scale(0.1,-0.1)" stroke="none" fill="#E4CDAD"/>

<path d="M455 787 c-117 -41 -214 -94 -292 -158 -51 -42 -63 -57 -63 -81 0 -43 16 -65 62 -89 91 -46 336 -110 372 -96 8 3 20 24 26 46 6 22 29 63 53 92 23 28 46 57 51 64 7 9 -2 35 -26 81 -20 38 -44 93 -53 122 -10 28 -22 52 -29 52 -6 -1 -52 -15 -101 -33z" transform="translate(0,120) scale(0.1,-0.1)" stroke="none" fill="#D07736"/>

<path d="M745 1118 c-118 -44 -184 -175 -156 -307 12 -55 52 -148 83 -193 26 -37 23 -48 -22 -97 -54 -57 -76 -104 -85 -172 -5 -44 -3 -65 11 -95 19 -43 82 -114 100 -114 6 0 17 -6 23 -14 6 -7 38 -19 70 -26 89 -19 197 -1 262 43 26 18 28 17 85 -14 177 -96 310 -65 389 90 31 62 24 171 -18 258 -7 17 -7 29 2 45 7 13 21 39 31 58 26 49 42 132 34 177 -24 127 -96 193 -220 201 -68 4 -104 -3 -206 -43 -13 -5 -21 2 -32 29 -19 46 -99 125 -155 154 -51 27 -152 37 -196 20z m354 -323 c33 7 91 -10 91 -26 0 -5 6 -6 14 -3 9 3 20 -3 28 -15 7 -12 17 -21 22 -21 11 0 31 -25 52 -64 18 -33 29 -176 14 -176 -6 0 -10 -9 -10 -20 0 -11 -4 -20 -10 -20 -5 0 -10 -6 -10 -13 0 -15 -63 -75 -99 -96 -40 -22 -141 -26 -198 -7 -89 30 -163 130 -163 223 0 71 57 181 98 190 6 2 21 13 35 27 17 17 31 22 49 19 14 -3 29 1 33 7 6 9 9 9 15 0 5 -8 18 -10 39 -5z" transform="translate(0,120) scale(0.1,-0.1)" stroke="none" fill="#765339"/>

</g>

</g>
<g id="col2" transform="translate(328, 16)">
<g id="0" transform="translate(0,0.0)scale(0.8,0.8)">

<path d="M556 368 c-11 -43 -6 -83 18 -133 27 -58 62 -91 131 -125 43 -21 64 -25 145 -25 82 1 103 5 151 28 59 29 84 33 94 17 3 -5 32 -22 63 -37 70 -33 188 -38 237 -11 61 33 125 109 125 148 0 8 -15 -10 -32 -40 -77 -128 -204 -150 -367 -63 -62 33 -64 34 -90 16 -65 -44 -173 -62 -262 -43 -32 7 -64 19 -70 26 -6 8 -17 14 -23 14 -19 0 -81 71 -101 114 -13 29 -16 51 -11 87 7 51 3 65 -8 27z" transform="translate(0,120) scale(0.1,-0.1)" stroke="none" fill="#E4CDAD"/>

<path d="M735 1127 c-46 -14 -105 -69 -135 -126 -23 -46 -36 -145 -23 -178 5 -15 8 3 8 55 0 66 5 85 28 124 70 120 206 160 329 96 56 -29 135 -108 154 -154 11 -27 19 -34 32 -29 102 40 138 47 206 43 124 -8 196 -74 220 -201 8 -45 -8 -128 -34 -177 -10 -19 -24 -45 -31 -58 -9 -16 -9 -28 -2 -45 29 -59 37 -96 36 -161 0 -57 1 -65 9 -41 11 39 1 126 -22 181 l-19 43 36 70 c33 64 37 79 37 149 0 69 -4 86 -31 133 -18 33 -47 66 -74 84 -42 29 -49 30 -149 30 -80 0 -113 -5 -137 -18 -44 -23 -56 -22 -71 11 -40 92 -161 172 -266 178 -33 1 -79 -3 -101 -9z" transform="translate(0,120) scale(0.1,-0.1)" stroke="none" fill="#E4CDAD"/>

<path d="M1017 749 c-8 -11 -13 -29 -10 -40 4 -16 0 -19 -25 -19 -45 0 -60 -57 -21 -84 14 -9 20 -22 17 -34 -8 -29 17 -55 51 -54 17 0 32 -5 35 -14 6 -17 57 -19 73 -3 6 6 9 18 6 26 -5 12 -1 14 15 9 12 -4 30 -2 41 4 17 9 20 19 17 65 -2 34 -9 62 -19 73 -9 10 -17 26 -17 35 0 18 -34 32 -51 21 -6 -3 -9 -19 -7 -35 4 -24 2 -26 -13 -18 -11 5 -16 16 -13 24 4 8 3 26 0 40 -8 32 -58 35 -79 4z m43 -89 c0 -5 -4 -12 -10 -15 -5 -3 -10 -4 -10 -1 0 2 -3 12 -6 20 -5 12 -2 15 10 10 9 -3 16 -10 16 -14z m100 -11 c0 -11 -4 -17 -10 -14 -5 3 -10 13 -10 21 0 8 5 14 10 14 6 0 10 -9 10 -21z m-110 -44 c0 -9 -6 -12 -15 -9 -8 4 -15 10 -15 15 0 5 7 9 15 9 8 0 15 -7 15 -15z m25 -35 c3 -5 1 -10 -4 -10 -6 0 -11 5 -11 10 0 6 2 10 4 10 3 0 8 -4 11 -10z m65 0 c0 -5 -4 -10 -10 -10 -5 0 -10 5 -10 10 0 6 5 10 10 10 6 0 10 -4 10 -10z" transform="translate(0,120) scale(0.1,-0.1)" stroke="none" fill="#D07736"/>

<path d="M1045 800 c-4 -6 -19 -10 -33 -7 -18 3 -32 -2 -49 -19 -14 -14 -29 -25 -35 -27 -41 -9 -98 -119 -98 -190 0 -93 74 -193 163 -223 57 -19 158 -15 198 7 36 21 99 81 99 96 0 7 5 13 10 13 6 0 10 9 10 20 0 11 4 20 10 20 15 0 4 143 -14 176 -21 39 -41 64 -52 64 -5 0 -15 9 -22 21 -8 12 -19 18 -28 15 -8 -3 -14 -2 -14 3 0 16 -58 33 -91 26 -21 -5 -34 -3 -39 5 -6 9 -9 9 -15 0z m78 -39 c50 -21 96 -79 98 -121 1 -23 2 -23 9 5 8 30 8 30 9 -8 0 -21 -3 -36 -8 -33 -4 3 -6 -6 -3 -19 5 -29 -13 -55 -38 -55 -9 0 -28 -11 -42 -23 -31 -29 -109 -43 -141 -25 -12 7 -24 12 -27 13 -3 0 -18 9 -33 20 -38 28 -49 109 -21 160 10 19 21 35 25 35 4 0 24 16 45 35 43 40 64 43 127 16z" transform="translate(0,120) scale(0.1,-0.1)" stroke="none" fill="#E4CDAD"/>

<path d="M455 787 c-117 -41 -214 -94 -292 -158 -51 -42 -63 -57 -63 -81 0 -43 16 -65 62 -89 91 -46 336 -110 372 -96 8 3 20 24 26 46 6 22 29 63 53 92 23 28 46 57 51 64 7 9 -2 35 -26 81 -20 38 -44 93 -53 122 -10 28 -22 52 -29 52 -6 -1 -52 -15 -101 -33z" transform="translate(0,120) scale(0.1,-0.1)" stroke="none" fill="#D07736"/>

<path d="M745 1118 c-118 -44 -184 -175 -156 -307 12 -55 52 -148 83 -193 26 -37 23 -48 -22 -97 -54 -57 -76 -104 -85 -172 -5 -44 -3 -65 11 -95 19 -43 82 -114 100 -114 6 0 17 -6 23 -14 6 -7 38 -19 70 -26 89 -19 197 -1 262 43 26 18 28 17 85 -14 177 -96 310 -65 389 90 31 62 24 171 -18 258 -7 17 -7 29 2 45 7 13 21 39 31 58 26 49 42 132 34 177 -24 127 -96 193 -220 201 -68 4 -104 -3 -206 -43 -13 -5 -21 2 -32 29 -19 46 -99 125 -155 154 -51 27 -152 37 -196 20z m354 -323 c33 7 91 -10 91 -26 0 -5 6 -6 14 -3 9 3 20 -3 28 -15 7 -12 17 -21 22 -21 11 0 31 -25 52 -64 18 -33 29 -176 14 -176 -6 0 -10 -9 -10 -20 0 -11 -4 -20 -10 -20 -5 0 -10 -6 -10 -13 0 -15 -63 -75 -99 -96 -40 -22 -141 -26 -198 -7 -89 30 -163 130 -163 223 0 71 57 181 98 190 6 2 21 13 35 27 17 17 31 22 49 19 14 -3 29 1 33 7 6 9 9 9 15 0 5 -8 18 -10 39 -5z" transform="translate(0,120) scale(0.1,-0.1)" stroke="none" fill="#765339"/>

</g>

<g id="1" transform="translate(0,120.0)scale(0.8,0.8)">

<path d="M556 368 c-11 -43 -6 -83 18 -133 27 -58 62 -91 131 -125 43 -21 64 -25 145 -25 82 1 103 5 151 28 59 29 84 33 94 17 3 -5 32 -22 63 -37 70 -33 188 -38 237 -11 61 33 125 109 125 148 0 8 -15 -10 -32 -40 -77 -128 -204 -150 -367 -63 -62 33 -64 34 -90 16 -65 -44 -173 -62 -262 -43 -32 7 -64 19 -70 26 -6 8 -17 14 -23 14 -19 0 -81 71 -101 114 -13 29 -16 51 -11 87 7 51 3 65 -8 27z" transform="translate(0,120) scale(0.1,-0.1)" stroke="none" fill="#E4CDAD"/>

<path d="M735 1127 c-46 -14 -105 -69 -135 -126 -23 -46 -36 -145 -23 -178 5 -15 8 3 8 55 0 66 5 85 28 124 70 120 206 160 329 96 56 -29 135 -108 154 -154 11 -27 19 -34 32 -29 102 40 138 47 206 43 124 -8 196 -74 220 -201 8 -45 -8 -128 -34 -177 -10 -19 -24 -45 -31 -58 -9 -16 -9 -28 -2 -45 29 -59 37 -96 36 -161 0 -57 1 -65 9 -41 11 39 1 126 -22 181 l-19 43 36 70 c33 64 37 79 37 149 0 69 -4 86 -31 133 -18 33 -47 66 -74 84 -42 29 -49 30 -149 30 -80 0 -113 -5 -137 -18 -44 -23 -56 -22 -71 11 -40 92 -161 172 -266 178 -33 1 -79 -3 -101 -9z" transform="translate(0,120) scale(0.1,-0.1)" stroke="none" fill="#E4CDAD"/>

<path d="M1017 749 c-8 -11 -13 -29 -10 -40 4 -16 0 -19 -25 -19 -45 0 -60 -57 -21 -84 14 -9 20 -22 17 -34 -8 -29 17 -55 51 -54 17 0 32 -5 35 -14 6 -17 57 -19 73 -3 6 6 9 18 6 26 -5 12 -1 14 15 9 12 -4 30 -2 41 4 17 9 20 19 17 65 -2 34 -9 62 -19 73 -9 10 -17 26 -17 35 0 18 -34 32 -51 21 -6 -3 -9 -19 -7 -35 4 -24 2 -26 -13 -18 -11 5 -16 16 -13 24 4 8 3 26 0 40 -8 32 -58 35 -79 4z m43 -89 c0 -5 -4 -12 -10 -15 -5 -3 -10 -4 -10 -1 0 2 -3 12 -6 20 -5 12 -2 15 10 10 9 -3 16 -10 16 -14z m100 -11 c0 -11 -4 -17 -10 -14 -5 3 -10 13 -10 21 0 8 5 14 10 14 6 0 10 -9 10 -21z m-110 -44 c0 -9 -6 -12 -15 -9 -8 4 -15 10 -15 15 0 5 7 9 15 9 8 0 15 -7 15 -15z m25 -35 c3 -5 1 -10 -4 -10 -6 0 -11 5 -11 10 0 6 2 10 4 10 3 0 8 -4 11 -10z m65 0 c0 -5 -4 -10 -10 -10 -5 0 -10 5 -10 10 0 6 5 10 10 10 6 0 10 -4 10 -10z" transform="translate(0,120) scale(0.1,-0.1)" stroke="none" fill="#D07736"/>

<path d="M1045 800 c-4 -6 -19 -10 -33 -7 -18 3 -32 -2 -49 -19 -14 -14 -29 -25 -35 -27 -41 -9 -98 -119 -98 -190 0 -93 74 -193 163 -223 57 -19 158 -15 198 7 36 21 99 81 99 96 0 7 5 13 10 13 6 0 10 9 10 20 0 11 4 20 10 20 15 0 4 143 -14 176 -21 39 -41 64 -52 64 -5 0 -15 9 -22 21 -8 12 -19 18 -28 15 -8 -3 -14 -2 -14 3 0 16 -58 33 -91 26 -21 -5 -34 -3 -39 5 -6 9 -9 9 -15 0z m78 -39 c50 -21 96 -79 98 -121 1 -23 2 -23 9 5 8 30 8 30 9 -8 0 -21 -3 -36 -8 -33 -4 3 -6 -6 -3 -19 5 -29 -13 -55 -38 -55 -9 0 -28 -11 -42 -23 -31 -29 -109 -43 -141 -25 -12 7 -24 12 -27 13 -3 0 -18 9 -33 20 -38 28 -49 109 -21 160 10 19 21 35 25 35 4 0 24 16 45 35 43 40 64 43 127 16z" transform="translate(0,120) scale(0.1,-0.1)" stroke="none" fill="#E4CDAD"/>

<path d="M455 787 c-117 -41 -214 -94 -292 -158 -51 -42 -63 -57 -63 -81 0 -43 16 -65 62 -89 91 -46 336 -110 372 -96 8 3 20 24 26 46 6 22 29 63 53 92 23 28 46 57 51 64 7 9 -2 35 -26 81 -20 38 -44 93 -53 122 -10 28 -22 52 -29 52 -6 -1 -52 -15 -101 -33z" transform="translate(0,120) scale(0.1,-0.1)" stroke="none" fill="#D07736"/>

<path d="M745 1118 c-118 -44 -184 -175 -156 -307 12 -55 52 -148 83 -193 26 -37 23 -48 -22 -97 -54 -57 -76 -104 -85 -172 -5 -44 -3 -65 11 -95 19 -43 82 -114 100 -114 6 0 17 -6 23 -14 6 -7 38 -19 70 -26 89 -19 197 -1 262 43 26 18 28 17 85 -14 177 -96 310 -65 389 90 31 62 24 171 -18 258 -7 17 -7 29 2 45 7 13 21 39 31 58 26 49 42 132 34 177 -24 127 -96 193 -220 201 -68 4 -104 -3 -206 -43 -13 -5 -21 2 -32 29 -19 46 -99 125 -155 154 -51 27 -152 37 -196 20z m354 -323 c33 7 91 -10 91 -26 0 -5 6 -6 14 -3 9 3 20 -3 28 -15 7 -12 17 -21 22 -21 11 0 31 -25 52 -64 18 -33 29 -176 14 -176 -6 0 -10 -9 -10 -20 0 -11 -4 -20 -10 -20 -5 0 -10 -6 -10 -13 0 -15 -63 -75 -99 -96 -40 -22 -141 -26 -198 -7 -89 30 -163 130 -163 223 0 71 57 181 98 190 6 2 21 13 35 27 17 17 31 22 49 19 14 -3 29 1 33 7 6 9 9 9 15 0 5 -8 18 -10 39 -5z" transform="translate(0,120) scale(0.1,-0.1)" stroke="none" fill="#765339"/>

</g>

<g id="2" transform="translate(0,240.0)scale(0.8,0.8)">

<path d="M556 368 c-11 -43 -6 -83 18 -133 27 -58 62 -91 131 -125 43 -21 64 -25 145 -25 82 1 103 5 151 28 59 29 84 33 94 17 3 -5 32 -22 63 -37 70 -33 188 -38 237 -11 61 33 125 109 125 148 0 8 -15 -10 -32 -40 -77 -128 -204 -150 -367 -63 -62 33 -64 34 -90 16 -65 -44 -173 -62 -262 -43 -32 7 -64 19 -70 26 -6 8 -17 14 -23 14 -19 0 -81 71 -101 114 -13 29 -16 51 -11 87 7 51 3 65 -8 27z" transform="translate(0,120) scale(0.1,-0.1)" stroke="none" fill="#E4CDAD"/>

<path d="M735 1127 c-46 -14 -105 -69 -135 -126 -23 -46 -36 -145 -23 -178 5 -15 8 3 8 55 0 66 5 85 28 124 70 120 206 160 329 96 56 -29 135 -108 154 -154 11 -27 19 -34 32 -29 102 40 138 47 206 43 124 -8 196 -74 220 -201 8 -45 -8 -128 -34 -177 -10 -19 -24 -45 -31 -58 -9 -16 -9 -28 -2 -45 29 -59 37 -96 36 -161 0 -57 1 -65 9 -41 11 39 1 126 -22 181 l-19 43 36 70 c33 64 37 79 37 149 0 69 -4 86 -31 133 -18 33 -47 66 -74 84 -42 29 -49 30 -149 30 -80 0 -113 -5 -137 -18 -44 -23 -56 -22 -71 11 -40 92 -161 172 -266 178 -33 1 -79 -3 -101 -9z" transform="translate(0,120) scale(0.1,-0.1)" stroke="none" fill="#E4CDAD"/>

<path d="M1017 749 c-8 -11 -13 -29 -10 -40 4 -16 0 -19 -25 -19 -45 0 -60 -57 -21 -84 14 -9 20 -22 17 -34 -8 -29 17 -55 51 -54 17 0 32 -5 35 -14 6 -17 57 -19 73 -3 6 6 9 18 6 26 -5 12 -1 14 15 9 12 -4 30 -2 41 4 17 9 20 19 17 65 -2 34 -9 62 -19 73 -9 10 -17 26 -17 35 0 18 -34 32 -51 21 -6 -3 -9 -19 -7 -35 4 -24 2 -26 -13 -18 -11 5 -16 16 -13 24 4 8 3 26 0 40 -8 32 -58 35 -79 4z m43 -89 c0 -5 -4 -12 -10 -15 -5 -3 -10 -4 -10 -1 0 2 -3 12 -6 20 -5 12 -2 15 10 10 9 -3 16 -10 16 -14z m100 -11 c0 -11 -4 -17 -10 -14 -5 3 -10 13 -10 21 0 8 5 14 10 14 6 0 10 -9 10 -21z m-110 -44 c0 -9 -6 -12 -15 -9 -8 4 -15 10 -15 15 0 5 7 9 15 9 8 0 15 -7 15 -15z m25 -35 c3 -5 1 -10 -4 -10 -6 0 -11 5 -11 10 0 6 2 10 4 10 3 0 8 -4 11 -10z m65 0 c0 -5 -4 -10 -10 -10 -5 0 -10 5 -10 10 0 6 5 10 10 10 6 0 10 -4 10 -10z" transform="translate(0,120) scale(0.1,-0.1)" stroke="none" fill="#D07736"/>

<path d="M1045 800 c-4 -6 -19 -10 -33 -7 -18 3 -32 -2 -49 -19 -14 -14 -29 -25 -35 -27 -41 -9 -98 -119 -98 -190 0 -93 74 -193 163 -223 57 -19 158 -15 198 7 36 21 99 81 99 96 0 7 5 13 10 13 6 0 10 9 10 20 0 11 4 20 10 20 15 0 4 143 -14 176 -21 39 -41 64 -52 64 -5 0 -15 9 -22 21 -8 12 -19 18 -28 15 -8 -3 -14 -2 -14 3 0 16 -58 33 -91 26 -21 -5 -34 -3 -39 5 -6 9 -9 9 -15 0z m78 -39 c50 -21 96 -79 98 -121 1 -23 2 -23 9 5 8 30 8 30 9 -8 0 -21 -3 -36 -8 -33 -4 3 -6 -6 -3 -19 5 -29 -13 -55 -38 -55 -9 0 -28 -11 -42 -23 -31 -29 -109 -43 -141 -25 -12 7 -24 12 -27 13 -3 0 -18 9 -33 20 -38 28 -49 109 -21 160 10 19 21 35 25 35 4 0 24 16 45 35 43 40 64 43 127 16z" transform="translate(0,120) scale(0.1,-0.1)" stroke="none" fill="#E4CDAD"/>

<path d="M455 787 c-117 -41 -214 -94 -292 -158 -51 -42 -63 -57 -63 -81 0 -43 16 -65 62 -89 91 -46 336 -110 372 -96 8 3 20 24 26 46 6 22 29 63 53 92 23 28 46 57 51 64 7 9 -2 35 -26 81 -20 38 -44 93 -53 122 -10 28 -22 52 -29 52 -6 -1 -52 -15 -101 -33z" transform="translate(0,120) scale(0.1,-0.1)" stroke="none" fill="#D07736"/>

<path d="M745 1118 c-118 -44 -184 -175 -156 -307 12 -55 52 -148 83 -193 26 -37 23 -48 -22 -97 -54 -57 -76 -104 -85 -172 -5 -44 -3 -65 11 -95 19 -43 82 -114 100 -114 6 0 17 -6 23 -14 6 -7 38 -19 70 -26 89 -19 197 -1 262 43 26 18 28 17 85 -14 177 -96 310 -65 389 90 31 62 24 171 -18 258 -7 17 -7 29 2 45 7 13 21 39 31 58 26 49 42 132 34 177 -24 127 -96 193 -220 201 -68 4 -104 -3 -206 -43 -13 -5 -21 2 -32 29 -19 46 -99 125 -155 154 -51 27 -152 37 -196 20z m354 -323 c33 7 91 -10 91 -26 0 -5 6 -6 14 -3 9 3 20 -3 28 -15 7 -12 17 -21 22 -21 11 0 31 -25 52 -64 18 -33 29 -176 14 -176 -6 0 -10 -9 -10 -20 0 -11 -4 -20 -10 -20 -5 0 -10 -6 -10 -13 0 -15 -63 -75 -99 -96 -40 -22 -141 -26 -198 -7 -89 30 -163 130 -163 223 0 71 57 181 98 190 6 2 21 13 35 27 17 17 31 22 49 19 14 -3 29 1 33 7 6 9 9 9 15 0 5 -8 18 -10 39 -5z" transform="translate(0,120) scale(0.1,-0.1)" stroke="none" fill="#765339"/>

</g>

<g id="3" transform="translate(0,360.0)scale(0.8,0.8)">

<path d="M556 368 c-11 -43 -6 -83 18 -133 27 -58 62 -91 131 -125 43 -21 64 -25 145 -25 82 1 103 5 151 28 59 29 84 33 94 17 3 -5 32 -22 63 -37 70 -33 188 -38 237 -11 61 33 125 109 125 148 0 8 -15 -10 -32 -40 -77 -128 -204 -150 -367 -63 -62 33 -64 34 -90 16 -65 -44 -173 -62 -262 -43 -32 7 -64 19 -70 26 -6 8 -17 14 -23 14 -19 0 -81 71 -101 114 -13 29 -16 51 -11 87 7 51 3 65 -8 27z" transform="translate(0,120) scale(0.1,-0.1)" stroke="none" fill="#E4CDAD"/>

<path d="M735 1127 c-46 -14 -105 -69 -135 -126 -23 -46 -36 -145 -23 -178 5 -15 8 3 8 55 0 66 5 85 28 124 70 120 206 160 329 96 56 -29 135 -108 154 -154 11 -27 19 -34 32 -29 102 40 138 47 206 43 124 -8 196 -74 220 -201 8 -45 -8 -128 -34 -177 -10 -19 -24 -45 -31 -58 -9 -16 -9 -28 -2 -45 29 -59 37 -96 36 -161 0 -57 1 -65 9 -41 11 39 1 126 -22 181 l-19 43 36 70 c33 64 37 79 37 149 0 69 -4 86 -31 133 -18 33 -47 66 -74 84 -42 29 -49 30 -149 30 -80 0 -113 -5 -137 -18 -44 -23 -56 -22 -71 11 -40 92 -161 172 -266 178 -33 1 -79 -3 -101 -9z" transform="translate(0,120) scale(0.1,-0.1)" stroke="none" fill="#E4CDAD"/>

<path d="M1017 749 c-8 -11 -13 -29 -10 -40 4 -16 0 -19 -25 -19 -45 0 -60 -57 -21 -84 14 -9 20 -22 17 -34 -8 -29 17 -55 51 -54 17 0 32 -5 35 -14 6 -17 57 -19 73 -3 6 6 9 18 6 26 -5 12 -1 14 15 9 12 -4 30 -2 41 4 17 9 20 19 17 65 -2 34 -9 62 -19 73 -9 10 -17 26 -17 35 0 18 -34 32 -51 21 -6 -3 -9 -19 -7 -35 4 -24 2 -26 -13 -18 -11 5 -16 16 -13 24 4 8 3 26 0 40 -8 32 -58 35 -79 4z m43 -89 c0 -5 -4 -12 -10 -15 -5 -3 -10 -4 -10 -1 0 2 -3 12 -6 20 -5 12 -2 15 10 10 9 -3 16 -10 16 -14z m100 -11 c0 -11 -4 -17 -10 -14 -5 3 -10 13 -10 21 0 8 5 14 10 14 6 0 10 -9 10 -21z m-110 -44 c0 -9 -6 -12 -15 -9 -8 4 -15 10 -15 15 0 5 7 9 15 9 8 0 15 -7 15 -15z m25 -35 c3 -5 1 -10 -4 -10 -6 0 -11 5 -11 10 0 6 2 10 4 10 3 0 8 -4 11 -10z m65 0 c0 -5 -4 -10 -10 -10 -5 0 -10 5 -10 10 0 6 5 10 10 10 6 0 10 -4 10 -10z" transform="translate(0,120) scale(0.1,-0.1)" stroke="none" fill="#D07736"/>

<path d="M1045 800 c-4 -6 -19 -10 -33 -7 -18 3 -32 -2 -49 -19 -14 -14 -29 -25 -35 -27 -41 -9 -98 -119 -98 -190 0 -93 74 -193 163 -223 57 -19 158 -15 198 7 36 21 99 81 99 96 0 7 5 13 10 13 6 0 10 9 10 20 0 11 4 20 10 20 15 0 4 143 -14 176 -21 39 -41 64 -52 64 -5 0 -15 9 -22 21 -8 12 -19 18 -28 15 -8 -3 -14 -2 -14 3 0 16 -58 33 -91 26 -21 -5 -34 -3 -39 5 -6 9 -9 9 -15 0z m78 -39 c50 -21 96 -79 98 -121 1 -23 2 -23 9 5 8 30 8 30 9 -8 0 -21 -3 -36 -8 -33 -4 3 -6 -6 -3 -19 5 -29 -13 -55 -38 -55 -9 0 -28 -11 -42 -23 -31 -29 -109 -43 -141 -25 -12 7 -24 12 -27 13 -3 0 -18 9 -33 20 -38 28 -49 109 -21 160 10 19 21 35 25 35 4 0 24 16 45 35 43 40 64 43 127 16z" transform="translate(0,120) scale(0.1,-0.1)" stroke="none" fill="#E4CDAD"/>

<path d="M455 787 c-117 -41 -214 -94 -292 -158 -51 -42 -63 -57 -63 -81 0 -43 16 -65 62 -89 91 -46 336 -110 372 -96 8 3 20 24 26 46 6 22 29 63 53 92 23 28 46 57 51 64 7 9 -2 35 -26 81 -20 38 -44 93 -53 122 -10 28 -22 52 -29 52 -6 -1 -52 -15 -101 -33z" transform="translate(0,120) scale(0.1,-0.1)" stroke="none" fill="#D07736"/>

<path d="M745 1118 c-118 -44 -184 -175 -156 -307 12 -55 52 -148 83 -193 26 -37 23 -48 -22 -97 -54 -57 -76 -104 -85 -172 -5 -44 -3 -65 11 -95 19 -43 82 -114 100 -114 6 0 17 -6 23 -14 6 -7 38 -19 70 -26 89 -19 197 -1 262 43 26 18 28 17 85 -14 177 -96 310 -65 389 90 31 62 24 171 -18 258 -7 17 -7 29 2 45 7 13 21 39 31 58 26 49 42 132 34 177 -24 127 -96 193 -220 201 -68 4 -104 -3 -206 -43 -13 -5 -21 2 -32 29 -19 46 -99 125 -155 154 -51 27 -152 37 -196 20z m354 -323 c33 7 91 -10 91 -26 0 -5 6 -6 14 -3 9 3 20 -3 28 -15 7 -12 17 -21 22 -21 11 0 31 -25 52 -64 18 -33 29 -176 14 -176 -6 0 -10 -9 -10 -20 0 -11 -4 -20 -10 -20 -5 0 -10 -6 -10 -13 0 -15 -63 -75 -99 -96 -40 -22 -141 -26 -198 -7 -89 30 -163 130 -163 223 0 71 57 181 98 190 6 2 21 13 35 27 17 17 31 22 49 19 14 -3 29 1 33 7 6 9 9 9 15 0 5 -8 18 -10 39 -5z" transform="translate(0,120) scale(0.1,-0.1)" stroke="none" fill="#765339"/>

</g>

<g id="4" transform="translate(0,480.0)scale(0.8,0.8)">

<path d="M556 368 c-11 -43 -6 -83 18 -133 27 -58 62 -91 131 -125 43 -21 64 -25 145 -25 82 1 103 5 151 28 59 29 84 33 94 17 3 -5 32 -22 63 -37 70 -33 188 -38 237 -11 61 33 125 109 125 148 0 8 -15 -10 -32 -40 -77 -128 -204 -150 -367 -63 -62 33 -64 34 -90 16 -65 -44 -173 -62 -262 -43 -32 7 -64 19 -70 26 -6 8 -17 14 -23 14 -19 0 -81 71 -101 114 -13 29 -16 51 -11 87 7 51 3 65 -8 27z" transform="translate(0,120) scale(0.1,-0.1)" stroke="none" fill="#E4CDAD"/>

<path d="M735 1127 c-46 -14 -105 -69 -135 -126 -23 -46 -36 -145 -23 -178 5 -15 8 3 8 55 0 66 5 85 28 124 70 120 206 160 329 96 56 -29 135 -108 154 -154 11 -27 19 -34 32 -29 102 40 138 47 206 43 124 -8 196 -74 220 -201 8 -45 -8 -128 -34 -177 -10 -19 -24 -45 -31 -58 -9 -16 -9 -28 -2 -45 29 -59 37 -96 36 -161 0 -57 1 -65 9 -41 11 39 1 126 -22 181 l-19 43 36 70 c33 64 37 79 37 149 0 69 -4 86 -31 133 -18 33 -47 66 -74 84 -42 29 -49 30 -149 30 -80 0 -113 -5 -137 -18 -44 -23 -56 -22 -71 11 -40 92 -161 172 -266 178 -33 1 -79 -3 -101 -9z" transform="translate(0,120) scale(0.1,-0.1)" stroke="none" fill="#E4CDAD"/>

<path d="M1017 749 c-8 -11 -13 -29 -10 -40 4 -16 0 -19 -25 -19 -45 0 -60 -57 -21 -84 14 -9 20 -22 17 -34 -8 -29 17 -55 51 -54 17 0 32 -5 35 -14 6 -17 57 -19 73 -3 6 6 9 18 6 26 -5 12 -1 14 15 9 12 -4 30 -2 41 4 17 9 20 19 17 65 -2 34 -9 62 -19 73 -9 10 -17 26 -17 35 0 18 -34 32 -51 21 -6 -3 -9 -19 -7 -35 4 -24 2 -26 -13 -18 -11 5 -16 16 -13 24 4 8 3 26 0 40 -8 32 -58 35 -79 4z m43 -89 c0 -5 -4 -12 -10 -15 -5 -3 -10 -4 -10 -1 0 2 -3 12 -6 20 -5 12 -2 15 10 10 9 -3 16 -10 16 -14z m100 -11 c0 -11 -4 -17 -10 -14 -5 3 -10 13 -10 21 0 8 5 14 10 14 6 0 10 -9 10 -21z m-110 -44 c0 -9 -6 -12 -15 -9 -8 4 -15 10 -15 15 0 5 7 9 15 9 8 0 15 -7 15 -15z m25 -35 c3 -5 1 -10 -4 -10 -6 0 -11 5 -11 10 0 6 2 10 4 10 3 0 8 -4 11 -10z m65 0 c0 -5 -4 -10 -10 -10 -5 0 -10 5 -10 10 0 6 5 10 10 10 6 0 10 -4 10 -10z" transform="translate(0,120) scale(0.1,-0.1)" stroke="none" fill="#D07736"/>

<path d="M1045 800 c-4 -6 -19 -10 -33 -7 -18 3 -32 -2 -49 -19 -14 -14 -29 -25 -35 -27 -41 -9 -98 -119 -98 -190 0 -93 74 -193 163 -223 57 -19 158 -15 198 7 36 21 99 81 99 96 0 7 5 13 10 13 6 0 10 9 10 20 0 11 4 20 10 20 15 0 4 143 -14 176 -21 39 -41 64 -52 64 -5 0 -15 9 -22 21 -8 12 -19 18 -28 15 -8 -3 -14 -2 -14 3 0 16 -58 33 -91 26 -21 -5 -34 -3 -39 5 -6 9 -9 9 -15 0z m78 -39 c50 -21 96 -79 98 -121 1 -23 2 -23 9 5 8 30 8 30 9 -8 0 -21 -3 -36 -8 -33 -4 3 -6 -6 -3 -19 5 -29 -13 -55 -38 -55 -9 0 -28 -11 -42 -23 -31 -29 -109 -43 -141 -25 -12 7 -24 12 -27 13 -3 0 -18 9 -33 20 -38 28 -49 109 -21 160 10 19 21 35 25 35 4 0 24 16 45 35 43 40 64 43 127 16z" transform="translate(0,120) scale(0.1,-0.1)" stroke="none" fill="#E4CDAD"/>

<path d="M455 787 c-117 -41 -214 -94 -292 -158 -51 -42 -63 -57 -63 -81 0 -43 16 -65 62 -89 91 -46 336 -110 372 -96 8 3 20 24 26 46 6 22 29 63 53 92 23 28 46 57 51 64 7 9 -2 35 -26 81 -20 38 -44 93 -53 122 -10 28 -22 52 -29 52 -6 -1 -52 -15 -101 -33z" transform="translate(0,120) scale(0.1,-0.1)" stroke="none" fill="#D07736"/>

<path d="M745 1118 c-118 -44 -184 -175 -156 -307 12 -55 52 -148 83 -193 26 -37 23 -48 -22 -97 -54 -57 -76 -104 -85 -172 -5 -44 -3 -65 11 -95 19 -43 82 -114 100 -114 6 0 17 -6 23 -14 6 -7 38 -19 70 -26 89 -19 197 -1 262 43 26 18 28 17 85 -14 177 -96 310 -65 389 90 31 62 24 171 -18 258 -7 17 -7 29 2 45 7 13 21 39 31 58 26 49 42 132 34 177 -24 127 -96 193 -220 201 -68 4 -104 -3 -206 -43 -13 -5 -21 2 -32 29 -19 46 -99 125 -155 154 -51 27 -152 37 -196 20z m354 -323 c33 7 91 -10 91 -26 0 -5 6 -6 14 -3 9 3 20 -3 28 -15 7 -12 17 -21 22 -21 11 0 31 -25 52 -64 18 -33 29 -176 14 -176 -6 0 -10 -9 -10 -20 0 -11 -4 -20 -10 -20 -5 0 -10 -6 -10 -13 0 -15 -63 -75 -99 -96 -40 -22 -141 -26 -198 -7 -89 30 -163 130 -163 223 0 71 57 181 98 190 6 2 21 13 35 27 17 17 31 22 49 19 14 -3 29 1 33 7 6 9 9 9 15 0 5 -8 18 -10 39 -5z" transform="translate(0,120) scale(0.1,-0.1)" stroke="none" fill="#765339"/>

</g>

</g>
<g id="col3" transform="translate(492, -44.0)">
<g id="0" transform="translate(0,0.0)scale(0.8,0.8)">

<path d="M556 368 c-11 -43 -6 -83 18 -133 27 -58 62 -91 131 -125 43 -21 64 -25 145 -25 82 1 103 5 151 28 59 29 84 33 94 17 3 -5 32 -22 63 -37 70 -33 188 -38 237 -11 61 33 125 109 125 148 0 8 -15 -10 -32 -40 -77 -128 -204 -150 -367 -63 -62 33 -64 34 -90 16 -65 -44 -173 -62 -262 -43 -32 7 -64 19 -70 26 -6 8 -17 14 -23 14 -19 0 -81 71 -101 114 -13 29 -16 51 -11 87 7 51 3 65 -8 27z" transform="translate(0,120) scale(0.1,-0.1)" stroke="none" fill="#E4CDAD"/>

<path d="M735 1127 c-46 -14 -105 -69 -135 -126 -23 -46 -36 -145 -23 -178 5 -15 8 3 8 55 0 66 5 85 28 124 70 120 206 160 329 96 56 -29 135 -108 154 -154 11 -27 19 -34 32 -29 102 40 138 47 206 43 124 -8 196 -74 220 -201 8 -45 -8 -128 -34 -177 -10 -19 -24 -45 -31 -58 -9 -16 -9 -28 -2 -45 29 -59 37 -96 36 -161 0 -57 1 -65 9 -41 11 39 1 126 -22 181 l-19 43 36 70 c33 64 37 79 37 149 0 69 -4 86 -31 133 -18 33 -47 66 -74 84 -42 29 -49 30 -149 30 -80 0 -113 -5 -137 -18 -44 -23 -56 -22 -71 11 -40 92 -161 172 -266 178 -33 1 -79 -3 -101 -9z" transform="translate(0,120) scale(0.1,-0.1)" stroke="none" fill="#E4CDAD"/>

<path d="M1017 749 c-8 -11 -13 -29 -10 -40 4 -16 0 -19 -25 -19 -45 0 -60 -57 -21 -84 14 -9 20 -22 17 -34 -8 -29 17 -55 51 -54 17 0 32 -5 35 -14 6 -17 57 -19 73 -3 6 6 9 18 6 26 -5 12 -1 14 15 9 12 -4 30 -2 41 4 17 9 20 19 17 65 -2 34 -9 62 -19 73 -9 10 -17 26 -17 35 0 18 -34 32 -51 21 -6 -3 -9 -19 -7 -35 4 -24 2 -26 -13 -18 -11 5 -16 16 -13 24 4 8 3 26 0 40 -8 32 -58 35 -79 4z m43 -89 c0 -5 -4 -12 -10 -15 -5 -3 -10 -4 -10 -1 0 2 -3 12 -6 20 -5 12 -2 15 10 10 9 -3 16 -10 16 -14z m100 -11 c0 -11 -4 -17 -10 -14 -5 3 -10 13 -10 21 0 8 5 14 10 14 6 0 10 -9 10 -21z m-110 -44 c0 -9 -6 -12 -15 -9 -8 4 -15 10 -15 15 0 5 7 9 15 9 8 0 15 -7 15 -15z m25 -35 c3 -5 1 -10 -4 -10 -6 0 -11 5 -11 10 0 6 2 10 4 10 3 0 8 -4 11 -10z m65 0 c0 -5 -4 -10 -10 -10 -5 0 -10 5 -10 10 0 6 5 10 10 10 6 0 10 -4 10 -10z" transform="translate(0,120) scale(0.1,-0.1)" stroke="none" fill="#D07736"/>

<path d="M1045 800 c-4 -6 -19 -10 -33 -7 -18 3 -32 -2 -49 -19 -14 -14 -29 -25 -35 -27 -41 -9 -98 -119 -98 -190 0 -93 74 -193 163 -223 57 -19 158 -15 198 7 36 21 99 81 99 96 0 7 5 13 10 13 6 0 10 9 10 20 0 11 4 20 10 20 15 0 4 143 -14 176 -21 39 -41 64 -52 64 -5 0 -15 9 -22 21 -8 12 -19 18 -28 15 -8 -3 -14 -2 -14 3 0 16 -58 33 -91 26 -21 -5 -34 -3 -39 5 -6 9 -9 9 -15 0z m78 -39 c50 -21 96 -79 98 -121 1 -23 2 -23 9 5 8 30 8 30 9 -8 0 -21 -3 -36 -8 -33 -4 3 -6 -6 -3 -19 5 -29 -13 -55 -38 -55 -9 0 -28 -11 -42 -23 -31 -29 -109 -43 -141 -25 -12 7 -24 12 -27 13 -3 0 -18 9 -33 20 -38 28 -49 109 -21 160 10 19 21 35 25 35 4 0 24 16 45 35 43 40 64 43 127 16z" transform="translate(0,120) scale(0.1,-0.1)" stroke="none" fill="#E4CDAD"/>

<path d="M455 787 c-117 -41 -214 -94 -292 -158 -51 -42 -63 -57 -63 -81 0 -43 16 -65 62 -89 91 -46 336 -110 372 -96 8 3 20 24 26 46 6 22 29 63 53 92 23 28 46 57 51 64 7 9 -2 35 -26 81 -20 38 -44 93 -53 122 -10 28 -22 52 -29 52 -6 -1 -52 -15 -101 -33z" transform="translate(0,120) scale(0.1,-0.1)" stroke="none" fill="#D07736"/>

<path d="M745 1118 c-118 -44 -184 -175 -156 -307 12 -55 52 -148 83 -193 26 -37 23 -48 -22 -97 -54 -57 -76 -104 -85 -172 -5 -44 -3 -65 11 -95 19 -43 82 -114 100 -114 6 0 17 -6 23 -14 6 -7 38 -19 70 -26 89 -19 197 -1 262 43 26 18 28 17 85 -14 177 -96 310 -65 389 90 31 62 24 171 -18 258 -7 17 -7 29 2 45 7 13 21 39 31 58 26 49 42 132 34 177 -24 127 -96 193 -220 201 -68 4 -104 -3 -206 -43 -13 -5 -21 2 -32 29 -19 46 -99 125 -155 154 -51 27 -152 37 -196 20z m354 -323 c33 7 91 -10 91 -26 0 -5 6 -6 14 -3 9 3 20 -3 28 -15 7 -12 17 -21 22 -21 11 0 31 -25 52 -64 18 -33 29 -176 14 -176 -6 0 -10 -9 -10 -20 0 -11 -4 -20 -10 -20 -5 0 -10 -6 -10 -13 0 -15 -63 -75 -99 -96 -40 -22 -141 -26 -198 -7 -89 30 -163 130 -163 223 0 71 57 181 98 190 6 2 21 13 35 27 17 17 31 22 49 19 14 -3 29 1 33 7 6 9 9 9 15 0 5 -8 18 -10 39 -5z" transform="translate(0,120) scale(0.1,-0.1)" stroke="none" fill="#765339"/>

</g>

<g id="1" transform="translate(0,120.0)scale(0.8,0.8)">

<path d="M556 368 c-11 -43 -6 -83 18 -133 27 -58 62 -91 131 -125 43 -21 64 -25 145 -25 82 1 103 5 151 28 59 29 84 33 94 17 3 -5 32 -22 63 -37 70 -33 188 -38 237 -11 61 33 125 109 125 148 0 8 -15 -10 -32 -40 -77 -128 -204 -150 -367 -63 -62 33 -64 34 -90 16 -65 -44 -173 -62 -262 -43 -32 7 -64 19 -70 26 -6 8 -17 14 -23 14 -19 0 -81 71 -101 114 -13 29 -16 51 -11 87 7 51 3 65 -8 27z" transform="translate(0,120) scale(0.1,-0.1)" stroke="none" fill="#E4CDAD"/>

<path d="M735 1127 c-46 -14 -105 -69 -135 -126 -23 -46 -36 -145 -23 -178 5 -15 8 3 8 55 0 66 5 85 28 124 70 120 206 160 329 96 56 -29 135 -108 154 -154 11 -27 19 -34 32 -29 102 40 138 47 206 43 124 -8 196 -74 220 -201 8 -45 -8 -128 -34 -177 -10 -19 -24 -45 -31 -58 -9 -16 -9 -28 -2 -45 29 -59 37 -96 36 -161 0 -57 1 -65 9 -41 11 39 1 126 -22 181 l-19 43 36 70 c33 64 37 79 37 149 0 69 -4 86 -31 133 -18 33 -47 66 -74 84 -42 29 -49 30 -149 30 -80 0 -113 -5 -137 -18 -44 -23 -56 -22 -71 11 -40 92 -161 172 -266 178 -33 1 -79 -3 -101 -9z" transform="translate(0,120) scale(0.1,-0.1)" stroke="none" fill="#E4CDAD"/>

<path d="M1017 749 c-8 -11 -13 -29 -10 -40 4 -16 0 -19 -25 -19 -45 0 -60 -57 -21 -84 14 -9 20 -22 17 -34 -8 -29 17 -55 51 -54 17 0 32 -5 35 -14 6 -17 57 -19 73 -3 6 6 9 18 6 26 -5 12 -1 14 15 9 12 -4 30 -2 41 4 17 9 20 19 17 65 -2 34 -9 62 -19 73 -9 10 -17 26 -17 35 0 18 -34 32 -51 21 -6 -3 -9 -19 -7 -35 4 -24 2 -26 -13 -18 -11 5 -16 16 -13 24 4 8 3 26 0 40 -8 32 -58 35 -79 4z m43 -89 c0 -5 -4 -12 -10 -15 -5 -3 -10 -4 -10 -1 0 2 -3 12 -6 20 -5 12 -2 15 10 10 9 -3 16 -10 16 -14z m100 -11 c0 -11 -4 -17 -10 -14 -5 3 -10 13 -10 21 0 8 5 14 10 14 6 0 10 -9 10 -21z m-110 -44 c0 -9 -6 -12 -15 -9 -8 4 -15 10 -15 15 0 5 7 9 15 9 8 0 15 -7 15 -15z m25 -35 c3 -5 1 -10 -4 -10 -6 0 -11 5 -11 10 0 6 2 10 4 10 3 0 8 -4 11 -10z m65 0 c0 -5 -4 -10 -10 -10 -5 0 -10 5 -10 10 0 6 5 10 10 10 6 0 10 -4 10 -10z" transform="translate(0,120) scale(0.1,-0.1)" stroke="none" fill="#D07736"/>

<path d="M1045 800 c-4 -6 -19 -10 -33 -7 -18 3 -32 -2 -49 -19 -14 -14 -29 -25 -35 -27 -41 -9 -98 -119 -98 -190 0 -93 74 -193 163 -223 57 -19 158 -15 198 7 36 21 99 81 99 96 0 7 5 13 10 13 6 0 10 9 10 20 0 11 4 20 10 20 15 0 4 143 -14 176 -21 39 -41 64 -52 64 -5 0 -15 9 -22 21 -8 12 -19 18 -28 15 -8 -3 -14 -2 -14 3 0 16 -58 33 -91 26 -21 -5 -34 -3 -39 5 -6 9 -9 9 -15 0z m78 -39 c50 -21 96 -79 98 -121 1 -23 2 -23 9 5 8 30 8 30 9 -8 0 -21 -3 -36 -8 -33 -4 3 -6 -6 -3 -19 5 -29 -13 -55 -38 -55 -9 0 -28 -11 -42 -23 -31 -29 -109 -43 -141 -25 -12 7 -24 12 -27 13 -3 0 -18 9 -33 20 -38 28 -49 109 -21 160 10 19 21 35 25 35 4 0 24 16 45 35 43 40 64 43 127 16z" transform="translate(0,120) scale(0.1,-0.1)" stroke="none" fill="#E4CDAD"/>

<path d="M455 787 c-117 -41 -214 -94 -292 -158 -51 -42 -63 -57 -63 -81 0 -43 16 -65 62 -89 91 -46 336 -110 372 -96 8 3 20 24 26 46 6 22 29 63 53 92 23 28 46 57 51 64 7 9 -2 35 -26 81 -20 38 -44 93 -53 122 -10 28 -22 52 -29 52 -6 -1 -52 -15 -101 -33z" transform="translate(0,120) scale(0.1,-0.1)" stroke="none" fill="#D07736"/>

<path d="M745 1118 c-118 -44 -184 -175 -156 -307 12 -55 52 -148 83 -193 26 -37 23 -48 -22 -97 -54 -57 -76 -104 -85 -172 -5 -44 -3 -65 11 -95 19 -43 82 -114 100 -114 6 0 17 -6 23 -14 6 -7 38 -19 70 -26 89 -19 197 -1 262 43 26 18 28 17 85 -14 177 -96 310 -65 389 90 31 62 24 171 -18 258 -7 17 -7 29 2 45 7 13 21 39 31 58 26 49 42 132 34 177 -24 127 -96 193 -220 201 -68 4 -104 -3 -206 -43 -13 -5 -21 2 -32 29 -19 46 -99 125 -155 154 -51 27 -152 37 -196 20z m354 -323 c33 7 91 -10 91 -26 0 -5 6 -6 14 -3 9 3 20 -3 28 -15 7 -12 17 -21 22 -21 11 0 31 -25 52 -64 18 -33 29 -176 14 -176 -6 0 -10 -9 -10 -20 0 -11 -4 -20 -10 -20 -5 0 -10 -6 -10 -13 0 -15 -63 -75 -99 -96 -40 -22 -141 -26 -198 -7 -89 30 -163 130 -163 223 0 71 57 181 98 190 6 2 21 13 35 27 17 17 31 22 49 19 14 -3 29 1 33 7 6 9 9 9 15 0 5 -8 18 -10 39 -5z" transform="translate(0,120) scale(0.1,-0.1)" stroke="none" fill="#765339"/>

</g>

<g id="2" transform="translate(0,240.0)scale(0.8,0.8)">

<path d="M556 368 c-11 -43 -6 -83 18 -133 27 -58 62 -91 131 -125 43 -21 64 -25 145 -25 82 1 103 5 151 28 59 29 84 33 94 17 3 -5 32 -22 63 -37 70 -33 188 -38 237 -11 61 33 125 109 125 148 0 8 -15 -10 -32 -40 -77 -128 -204 -150 -367 -63 -62 33 -64 34 -90 16 -65 -44 -173 -62 -262 -43 -32 7 -64 19 -70 26 -6 8 -17 14 -23 14 -19 0 -81 71 -101 114 -13 29 -16 51 -11 87 7 51 3 65 -8 27z" transform="translate(0,120) scale(0.1,-0.1)" stroke="none" fill="#E4CDAD"/>

<path d="M735 1127 c-46 -14 -105 -69 -135 -126 -23 -46 -36 -145 -23 -178 5 -15 8 3 8 55 0 66 5 85 28 124 70 120 206 160 329 96 56 -29 135 -108 154 -154 11 -27 19 -34 32 -29 102 40 138 47 206 43 124 -8 196 -74 220 -201 8 -45 -8 -128 -34 -177 -10 -19 -24 -45 -31 -58 -9 -16 -9 -28 -2 -45 29 -59 37 -96 36 -161 0 -57 1 -65 9 -41 11 39 1 126 -22 181 l-19 43 36 70 c33 64 37 79 37 149 0 69 -4 86 -31 133 -18 33 -47 66 -74 84 -42 29 -49 30 -149 30 -80 0 -113 -5 -137 -18 -44 -23 -56 -22 -71 11 -40 92 -161 172 -266 178 -33 1 -79 -3 -101 -9z" transform="translate(0,120) scale(0.1,-0.1)" stroke="none" fill="#E4CDAD"/>

<path d="M1017 749 c-8 -11 -13 -29 -10 -40 4 -16 0 -19 -25 -19 -45 0 -60 -57 -21 -84 14 -9 20 -22 17 -34 -8 -29 17 -55 51 -54 17 0 32 -5 35 -14 6 -17 57 -19 73 -3 6 6 9 18 6 26 -5 12 -1 14 15 9 12 -4 30 -2 41 4 17 9 20 19 17 65 -2 34 -9 62 -19 73 -9 10 -17 26 -17 35 0 18 -34 32 -51 21 -6 -3 -9 -19 -7 -35 4 -24 2 -26 -13 -18 -11 5 -16 16 -13 24 4 8 3 26 0 40 -8 32 -58 35 -79 4z m43 -89 c0 -5 -4 -12 -10 -15 -5 -3 -10 -4 -10 -1 0 2 -3 12 -6 20 -5 12 -2 15 10 10 9 -3 16 -10 16 -14z m100 -11 c0 -11 -4 -17 -10 -14 -5 3 -10 13 -10 21 0 8 5 14 10 14 6 0 10 -9 10 -21z m-110 -44 c0 -9 -6 -12 -15 -9 -8 4 -15 10 -15 15 0 5 7 9 15 9 8 0 15 -7 15 -15z m25 -35 c3 -5 1 -10 -4 -10 -6 0 -11 5 -11 10 0 6 2 10 4 10 3 0 8 -4 11 -10z m65 0 c0 -5 -4 -10 -10 -10 -5 0 -10 5 -10 10 0 6 5 10 10 10 6 0 10 -4 10 -10z" transform="translate(0,120) scale(0.1,-0.1)" stroke="none" fill="#D07736"/>

<path d="M1045 800 c-4 -6 -19 -10 -33 -7 -18 3 -32 -2 -49 -19 -14 -14 -29 -25 -35 -27 -41 -9 -98 -119 -98 -190 0 -93 74 -193 163 -223 57 -19 158 -15 198 7 36 21 99 81 99 96 0 7 5 13 10 13 6 0 10 9 10 20 0 11 4 20 10 20 15 0 4 143 -14 176 -21 39 -41 64 -52 64 -5 0 -15 9 -22 21 -8 12 -19 18 -28 15 -8 -3 -14 -2 -14 3 0 16 -58 33 -91 26 -21 -5 -34 -3 -39 5 -6 9 -9 9 -15 0z m78 -39 c50 -21 96 -79 98 -121 1 -23 2 -23 9 5 8 30 8 30 9 -8 0 -21 -3 -36 -8 -33 -4 3 -6 -6 -3 -19 5 -29 -13 -55 -38 -55 -9 0 -28 -11 -42 -23 -31 -29 -109 -43 -141 -25 -12 7 -24 12 -27 13 -3 0 -18 9 -33 20 -38 28 -49 109 -21 160 10 19 21 35 25 35 4 0 24 16 45 35 43 40 64 43 127 16z" transform="translate(0,120) scale(0.1,-0.1)" stroke="none" fill="#E4CDAD"/>

<path d="M455 787 c-117 -41 -214 -94 -292 -158 -51 -42 -63 -57 -63 -81 0 -43 16 -65 62 -89 91 -46 336 -110 372 -96 8 3 20 24 26 46 6 22 29 63 53 92 23 28 46 57 51 64 7 9 -2 35 -26 81 -20 38 -44 93 -53 122 -10 28 -22 52 -29 52 -6 -1 -52 -15 -101 -33z" transform="translate(0,120) scale(0.1,-0.1)" stroke="none" fill="#D07736"/>

<path d="M745 1118 c-118 -44 -184 -175 -156 -307 12 -55 52 -148 83 -193 26 -37 23 -48 -22 -97 -54 -57 -76 -104 -85 -172 -5 -44 -3 -65 11 -95 19 -43 82 -114 100 -114 6 0 17 -6 23 -14 6 -7 38 -19 70 -26 89 -19 197 -1 262 43 26 18 28 17 85 -14 177 -96 310 -65 389 90 31 62 24 171 -18 258 -7 17 -7 29 2 45 7 13 21 39 31 58 26 49 42 132 34 177 -24 127 -96 193 -220 201 -68 4 -104 -3 -206 -43 -13 -5 -21 2 -32 29 -19 46 -99 125 -155 154 -51 27 -152 37 -196 20z m354 -323 c33 7 91 -10 91 -26 0 -5 6 -6 14 -3 9 3 20 -3 28 -15 7 -12 17 -21 22 -21 11 0 31 -25 52 -64 18 -33 29 -176 14 -176 -6 0 -10 -9 -10 -20 0 -11 -4 -20 -10 -20 -5 0 -10 -6 -10 -13 0 -15 -63 -75 -99 -96 -40 -22 -141 -26 -198 -7 -89 30 -163 130 -163 223 0 71 57 181 98 190 6 2 21 13 35 27 17 17 31 22 49 19 14 -3 29 1 33 7 6 9 9 9 15 0 5 -8 18 -10 39 -5z" transform="translate(0,120) scale(0.1,-0.1)" stroke="none" fill="#765339"/>

</g>

<g id="3" transform="translate(0,360.0)scale(0.8,0.8)">

<path d="M556 368 c-11 -43 -6 -83 18 -133 27 -58 62 -91 131 -125 43 -21 64 -25 145 -25 82 1 103 5 151 28 59 29 84 33 94 17 3 -5 32 -22 63 -37 70 -33 188 -38 237 -11 61 33 125 109 125 148 0 8 -15 -10 -32 -40 -77 -128 -204 -150 -367 -63 -62 33 -64 34 -90 16 -65 -44 -173 -62 -262 -43 -32 7 -64 19 -70 26 -6 8 -17 14 -23 14 -19 0 -81 71 -101 114 -13 29 -16 51 -11 87 7 51 3 65 -8 27z" transform="translate(0,120) scale(0.1,-0.1)" stroke="none" fill="#E4CDAD"/>

<path d="M735 1127 c-46 -14 -105 -69 -135 -126 -23 -46 -36 -145 -23 -178 5 -15 8 3 8 55 0 66 5 85 28 124 70 120 206 160 329 96 56 -29 135 -108 154 -154 11 -27 19 -34 32 -29 102 40 138 47 206 43 124 -8 196 -74 220 -201 8 -45 -8 -128 -34 -177 -10 -19 -24 -45 -31 -58 -9 -16 -9 -28 -2 -45 29 -59 37 -96 36 -161 0 -57 1 -65 9 -41 11 39 1 126 -22 181 l-19 43 36 70 c33 64 37 79 37 149 0 69 -4 86 -31 133 -18 33 -47 66 -74 84 -42 29 -49 30 -149 30 -80 0 -113 -5 -137 -18 -44 -23 -56 -22 -71 11 -40 92 -161 172 -266 178 -33 1 -79 -3 -101 -9z" transform="translate(0,120) scale(0.1,-0.1)" stroke="none" fill="#E4CDAD"/>

<path d="M1017 749 c-8 -11 -13 -29 -10 -40 4 -16 0 -19 -25 -19 -45 0 -60 -57 -21 -84 14 -9 20 -22 17 -34 -8 -29 17 -55 51 -54 17 0 32 -5 35 -14 6 -17 57 -19 73 -3 6 6 9 18 6 26 -5 12 -1 14 15 9 12 -4 30 -2 41 4 17 9 20 19 17 65 -2 34 -9 62 -19 73 -9 10 -17 26 -17 35 0 18 -34 32 -51 21 -6 -3 -9 -19 -7 -35 4 -24 2 -26 -13 -18 -11 5 -16 16 -13 24 4 8 3 26 0 40 -8 32 -58 35 -79 4z m43 -89 c0 -5 -4 -12 -10 -15 -5 -3 -10 -4 -10 -1 0 2 -3 12 -6 20 -5 12 -2 15 10 10 9 -3 16 -10 16 -14z m100 -11 c0 -11 -4 -17 -10 -14 -5 3 -10 13 -10 21 0 8 5 14 10 14 6 0 10 -9 10 -21z m-110 -44 c0 -9 -6 -12 -15 -9 -8 4 -15 10 -15 15 0 5 7 9 15 9 8 0 15 -7 15 -15z m25 -35 c3 -5 1 -10 -4 -10 -6 0 -11 5 -11 10 0 6 2 10 4 10 3 0 8 -4 11 -10z m65 0 c0 -5 -4 -10 -10 -10 -5 0 -10 5 -10 10 0 6 5 10 10 10 6 0 10 -4 10 -10z" transform="translate(0,120) scale(0.1,-0.1)" stroke="none" fill="#D07736"/>

<path d="M1045 800 c-4 -6 -19 -10 -33 -7 -18 3 -32 -2 -49 -19 -14 -14 -29 -25 -35 -27 -41 -9 -98 -119 -98 -190 0 -93 74 -193 163 -223 57 -19 158 -15 198 7 36 21 99 81 99 96 0 7 5 13 10 13 6 0 10 9 10 20 0 11 4 20 10 20 15 0 4 143 -14 176 -21 39 -41 64 -52 64 -5 0 -15 9 -22 21 -8 12 -19 18 -28 15 -8 -3 -14 -2 -14 3 0 16 -58 33 -91 26 -21 -5 -34 -3 -39 5 -6 9 -9 9 -15 0z m78 -39 c50 -21 96 -79 98 -121 1 -23 2 -23 9 5 8 30 8 30 9 -8 0 -21 -3 -36 -8 -33 -4 3 -6 -6 -3 -19 5 -29 -13 -55 -38 -55 -9 0 -28 -11 -42 -23 -31 -29 -109 -43 -141 -25 -12 7 -24 12 -27 13 -3 0 -18 9 -33 20 -38 28 -49 109 -21 160 10 19 21 35 25 35 4 0 24 16 45 35 43 40 64 43 127 16z" transform="translate(0,120) scale(0.1,-0.1)" stroke="none" fill="#E4CDAD"/>

<path d="M455 787 c-117 -41 -214 -94 -292 -158 -51 -42 -63 -57 -63 -81 0 -43 16 -65 62 -89 91 -46 336 -110 372 -96 8 3 20 24 26 46 6 22 29 63 53 92 23 28 46 57 51 64 7 9 -2 35 -26 81 -20 38 -44 93 -53 122 -10 28 -22 52 -29 52 -6 -1 -52 -15 -101 -33z" transform="translate(0,120) scale(0.1,-0.1)" stroke="none" fill="#D07736"/>

<path d="M745 1118 c-118 -44 -184 -175 -156 -307 12 -55 52 -148 83 -193 26 -37 23 -48 -22 -97 -54 -57 -76 -104 -85 -172 -5 -44 -3 -65 11 -95 19 -43 82 -114 100 -114 6 0 17 -6 23 -14 6 -7 38 -19 70 -26 89 -19 197 -1 262 43 26 18 28 17 85 -14 177 -96 310 -65 389 90 31 62 24 171 -18 258 -7 17 -7 29 2 45 7 13 21 39 31 58 26 49 42 132 34 177 -24 127 -96 193 -220 201 -68 4 -104 -3 -206 -43 -13 -5 -21 2 -32 29 -19 46 -99 125 -155 154 -51 27 -152 37 -196 20z m354 -323 c33 7 91 -10 91 -26 0 -5 6 -6 14 -3 9 3 20 -3 28 -15 7 -12 17 -21 22 -21 11 0 31 -25 52 -64 18 -33 29 -176 14 -176 -6 0 -10 -9 -10 -20 0 -11 -4 -20 -10 -20 -5 0 -10 -6 -10 -13 0 -15 -63 -75 -99 -96 -40 -22 -141 -26 -198 -7 -89 30 -163 130 -163 223 0 71 57 181 98 190 6 2 21 13 35 27 17 17 31 22 49 19 14 -3 29 1 33 7 6 9 9 9 15 0 5 -8 18 -10 39 -5z" transform="translate(0,120) scale(0.1,-0.1)" stroke="none" fill="#765339"/>

</g>

<g id="4" transform="translate(0,480.0)scale(0.8,0.8)">

<path d="M556 368 c-11 -43 -6 -83 18 -133 27 -58 62 -91 131 -125 43 -21 64 -25 145 -25 82 1 103 5 151 28 59 29 84 33 94 17 3 -5 32 -22 63 -37 70 -33 188 -38 237 -11 61 33 125 109 125 148 0 8 -15 -10 -32 -40 -77 -128 -204 -150 -367 -63 -62 33 -64 34 -90 16 -65 -44 -173 -62 -262 -43 -32 7 -64 19 -70 26 -6 8 -17 14 -23 14 -19 0 -81 71 -101 114 -13 29 -16 51 -11 87 7 51 3 65 -8 27z" transform="translate(0,120) scale(0.1,-0.1)" stroke="none" fill="#E4CDAD"/>

<path d="M735 1127 c-46 -14 -105 -69 -135 -126 -23 -46 -36 -145 -23 -178 5 -15 8 3 8 55 0 66 5 85 28 124 70 120 206 160 329 96 56 -29 135 -108 154 -154 11 -27 19 -34 32 -29 102 40 138 47 206 43 124 -8 196 -74 220 -201 8 -45 -8 -128 -34 -177 -10 -19 -24 -45 -31 -58 -9 -16 -9 -28 -2 -45 29 -59 37 -96 36 -161 0 -57 1 -65 9 -41 11 39 1 126 -22 181 l-19 43 36 70 c33 64 37 79 37 149 0 69 -4 86 -31 133 -18 33 -47 66 -74 84 -42 29 -49 30 -149 30 -80 0 -113 -5 -137 -18 -44 -23 -56 -22 -71 11 -40 92 -161 172 -266 178 -33 1 -79 -3 -101 -9z" transform="translate(0,120) scale(0.1,-0.1)" stroke="none" fill="#E4CDAD"/>

<path d="M1017 749 c-8 -11 -13 -29 -10 -40 4 -16 0 -19 -25 -19 -45 0 -60 -57 -21 -84 14 -9 20 -22 17 -34 -8 -29 17 -55 51 -54 17 0 32 -5 35 -14 6 -17 57 -19 73 -3 6 6 9 18 6 26 -5 12 -1 14 15 9 12 -4 30 -2 41 4 17 9 20 19 17 65 -2 34 -9 62 -19 73 -9 10 -17 26 -17 35 0 18 -34 32 -51 21 -6 -3 -9 -19 -7 -35 4 -24 2 -26 -13 -18 -11 5 -16 16 -13 24 4 8 3 26 0 40 -8 32 -58 35 -79 4z m43 -89 c0 -5 -4 -12 -10 -15 -5 -3 -10 -4 -10 -1 0 2 -3 12 -6 20 -5 12 -2 15 10 10 9 -3 16 -10 16 -14z m100 -11 c0 -11 -4 -17 -10 -14 -5 3 -10 13 -10 21 0 8 5 14 10 14 6 0 10 -9 10 -21z m-110 -44 c0 -9 -6 -12 -15 -9 -8 4 -15 10 -15 15 0 5 7 9 15 9 8 0 15 -7 15 -15z m25 -35 c3 -5 1 -10 -4 -10 -6 0 -11 5 -11 10 0 6 2 10 4 10 3 0 8 -4 11 -10z m65 0 c0 -5 -4 -10 -10 -10 -5 0 -10 5 -10 10 0 6 5 10 10 10 6 0 10 -4 10 -10z" transform="translate(0,120) scale(0.1,-0.1)" stroke="none" fill="#D07736"/>

<path d="M1045 800 c-4 -6 -19 -10 -33 -7 -18 3 -32 -2 -49 -19 -14 -14 -29 -25 -35 -27 -41 -9 -98 -119 -98 -190 0 -93 74 -193 163 -223 57 -19 158 -15 198 7 36 21 99 81 99 96 0 7 5 13 10 13 6 0 10 9 10 20 0 11 4 20 10 20 15 0 4 143 -14 176 -21 39 -41 64 -52 64 -5 0 -15 9 -22 21 -8 12 -19 18 -28 15 -8 -3 -14 -2 -14 3 0 16 -58 33 -91 26 -21 -5 -34 -3 -39 5 -6 9 -9 9 -15 0z m78 -39 c50 -21 96 -79 98 -121 1 -23 2 -23 9 5 8 30 8 30 9 -8 0 -21 -3 -36 -8 -33 -4 3 -6 -6 -3 -19 5 -29 -13 -55 -38 -55 -9 0 -28 -11 -42 -23 -31 -29 -109 -43 -141 -25 -12 7 -24 12 -27 13 -3 0 -18 9 -33 20 -38 28 -49 109 -21 160 10 19 21 35 25 35 4 0 24 16 45 35 43 40 64 43 127 16z" transform="translate(0,120) scale(0.1,-0.1)" stroke="none" fill="#E4CDAD"/>

<path d="M455 787 c-117 -41 -214 -94 -292 -158 -51 -42 -63 -57 -63 -81 0 -43 16 -65 62 -89 91 -46 336 -110 372 -96 8 3 20 24 26 46 6 22 29 63 53 92 23 28 46 57 51 64 7 9 -2 35 -26 81 -20 38 -44 93 -53 122 -10 28 -22 52 -29 52 -6 -1 -52 -15 -101 -33z" transform="translate(0,120) scale(0.1,-0.1)" stroke="none" fill="#D07736"/>

<path d="M745 1118 c-118 -44 -184 -175 -156 -307 12 -55 52 -148 83 -193 26 -37 23 -48 -22 -97 -54 -57 -76 -104 -85 -172 -5 -44 -3 -65 11 -95 19 -43 82 -114 100 -114 6 0 17 -6 23 -14 6 -7 38 -19 70 -26 89 -19 197 -1 262 43 26 18 28 17 85 -14 177 -96 310 -65 389 90 31 62 24 171 -18 258 -7 17 -7 29 2 45 7 13 21 39 31 58 26 49 42 132 34 177 -24 127 -96 193 -220 201 -68 4 -104 -3 -206 -43 -13 -5 -21 2 -32 29 -19 46 -99 125 -155 154 -51 27 -152 37 -196 20z m354 -323 c33 7 91 -10 91 -26 0 -5 6 -6 14 -3 9 3 20 -3 28 -15 7 -12 17 -21 22 -21 11 0 31 -25 52 -64 18 -33 29 -176 14 -176 -6 0 -10 -9 -10 -20 0 -11 -4 -20 -10 -20 -5 0 -10 -6 -10 -13 0 -15 -63 -75 -99 -96 -40 -22 -141 -26 -198 -7 -89 30 -163 130 -163 223 0 71 57 181 98 190 6 2 21 13 35 27 17 17 31 22 49 19 14 -3 29 1 33 7 6 9 9 9 15 0 5 -8 18 -10 39 -5z" transform="translate(0,120) scale(0.1,-0.1)" stroke="none" fill="#765339"/>

</g>

</g>
</svg>