<?xml version="1.0" standalone="no"?>
<!DOCTYPE svg PUBLIC "-//W3C//DTD SVG 20010904//EN"
 "http://www.w3.org/TR/2001/REC-SVG-20010904/DTD/svg10.dtd">
<svg version="1.0" xmlns="http://www.w3.org/2000/svg" width="352pt" height="368pt" viewBox="0 0 352 368" preserveAspectRatio = "xMidYMid meet" >
<metadata>
Created by ZoeQu, written in 2022
</metadata>
<rect width="352" height="368" fill="#CDBADD"/>
<g id="row0" transform="translate(11,0.0)">
<g id="0" transform="translate(0.0,0)scale(1,1)">

<path d="M683 753 c-26 -10 -13 -33 18 -33 24 0 30 4 27 17 -3 18 -24 26 -45 16z" transform="translate(0,92) scale(0.1,-0.1)" stroke="none" fill="#6097DD"/>

<path d="M147 193 c-17 -17 -6 -34 20 -31 36 4 45 38 10 38 -13 0 -27 -3 -30 -7z" transform="translate(0,92) scale(0.1,-0.1)" stroke="none" fill="#6097DD"/>

<path d="M251 161 c-12 -22 -5 -31 26 -31 18 0 23 5 23 25 0 31 -34 35 -49 6z" transform="translate(0,92) scale(0.1,-0.1)" stroke="none" fill="#6097DD"/>

<path d="M412 401 c-18 -11 -12 -41 10 -55 14 -8 22 -7 35 7 29 29 -10 71 -45 48z" transform="translate(0,92) scale(0.1,-0.1)" stroke="none" fill="#316AD4"/>

<path d="M172 410 c-16 -26 -15 -50 2 -50 8 0 18 -9 21 -20 7 -22 13 -24 34 -11 8 5 11 16 8 26 -4 9 -11 14 -16 10 -5 -3 -12 -1 -15 4 -4 5 -2 12 4 16 5 3 10 15 10 26 0 25 -31 25 -48 -1z m28 -10 c0 -5 -5 -10 -11 -10 -5 0 -7 5 -4 10 3 6 8 10 11 10 2 0 4 -4 4 -10z" transform="translate(0,92) scale(0.1,-0.1)" stroke="none" fill="#6097DD"/>

<path d="M606 585 c-3 -9 1 -18 8 -21 10 -4 13 -16 9 -40 -6 -39 12 -47 40 -16 21 23 22 48 2 56 -8 3 -15 12 -15 21 0 20 -36 20 -44 0z m44 -65 c0 -5 -5 -10 -11 -10 -5 0 -7 5 -4 10 3 6 8 10 11 10 2 0 4 -4 4 -10z" transform="translate(0,92) scale(0.1,-0.1)" stroke="none" fill="#6097DD"/>

<path d="M804 232 c1 -115 0 -123 -19 -127 -39 -8 -690 -14 -702 -7 -7 4 -14 34 -16 67 l-3 60 -2 -68 c-1 -48 2 -69 11 -73 17 -6 734 9 741 16 2 3 1 62 -3 130 l-9 125 2 -123z" transform="translate(0,92) scale(0.1,-0.1)" stroke="none" fill="#6097DD"/>

<path d="M56 833 c-18 -5 -18 -15 -10 -236 5 -128 8 -257 8 -287 -1 -35 1 -45 5 -27 3 16 17 33 31 40 14 7 25 19 25 27 0 9 -10 15 -25 15 l-25 0 -7 225 c-4 123 -5 226 -2 229 10 11 703 7 712 -4 5 -5 13 -61 16 -122 l7 -113 -23 0 c-24 0 -48 -16 -48 -33 0 -5 16 -7 35 -5 l34 4 4 -66 c2 -36 3 21 2 126 -2 121 -7 199 -14 212 -12 22 -13 22 -359 21 -191 -1 -355 -3 -366 -6z m714 -267 c0 -3 -4 -8 -10 -11 -5 -3 -10 -1 -10 4 0 6 5 11 10 11 6 0 10 -2 10 -4z" transform="translate(0,92) scale(0.1,-0.1)" stroke="none" fill="#6097DD"/>

<path d="M108 823 l-58 -4 7 -222 c3 -122 8 -224 10 -227 2 -2 14 -5 26 -5 31 0 27 -27 -6 -43 l-28 -14 7 -101 c4 -56 12 -105 18 -109 11 -7 663 0 701 7 19 4 20 9 14 177 -4 95 -7 193 -8 218 l-1 46 -35 -4 c-19 -2 -35 0 -35 5 0 17 24 33 48 33 l23 0 -7 113 c-3 61 -11 116 -15 122 -10 10 -548 16 -661 8z m422 -33 c0 -5 -7 -10 -15 -10 -8 0 -15 5 -15 10 0 6 7 10 15 10 8 0 15 -4 15 -10z m97 -7 c6 -16 -30 -34 -46 -23 -21 12 -5 42 21 38 12 -2 23 -8 25 -15z m101 -46 c3 -13 -3 -17 -27 -17 -20 0 -31 5 -31 14 0 29 53 32 58 3z m-143 -7 c3 -5 -1 -10 -9 -10 -9 0 -16 5 -16 10 0 6 4 10 9 10 6 0 13 -4 16 -10z m-1 -29 c8 -12 -3 -41 -15 -41 -5 0 -9 11 -9 25 0 25 14 34 24 16z m180 -49 c2 -4 1 -14 -4 -22 -7 -11 -11 -11 -24 -1 -9 8 -16 17 -16 22 0 11 37 12 44 1z m-114 -67 c0 -9 7 -18 15 -21 20 -8 19 -33 -2 -56 -28 -31 -46 -23 -40 16 4 24 1 36 -9 40 -19 7 -6 36 17 36 10 0 19 -7 19 -15z m-460 -35 c0 -5 -7 -10 -15 -10 -8 0 -15 5 -15 10 0 6 7 10 15 10 8 0 15 -4 15 -10z m530 -50 c0 -11 -4 -20 -10 -20 -5 0 -10 2 -10 4 0 2 -3 11 -6 20 -4 11 -1 16 10 16 9 0 16 -8 16 -20z m-500 -10 c0 -5 -4 -10 -10 -10 -5 0 -10 5 -10 10 0 6 5 10 10 10 6 0 10 -4 10 -10z m480 -60 c0 -5 -4 -10 -10 -10 -5 0 -10 5 -10 10 0 6 5 10 10 10 6 0 10 -4 10 -10z m-560 -20 c0 -11 -4 -20 -10 -20 -5 0 -10 9 -10 20 0 11 5 20 10 20 6 0 10 -9 10 -20z m80 1 c0 -11 -5 -23 -10 -26 -6 -4 -8 -11 -4 -16 3 -5 10 -7 15 -4 5 4 12 -1 16 -10 3 -10 0 -21 -8 -26 -21 -13 -27 -11 -34 11 -3 11 -13 20 -21 20 -17 0 -18 24 -2 50 17 26 48 26 48 1z m244 -23 c15 -25 -17 -57 -42 -42 -22 14 -28 44 -10 55 18 12 39 7 52 -13z m196 -18 c0 -5 -7 -10 -15 -10 -8 0 -15 5 -15 10 0 6 7 10 15 10 8 0 15 -4 15 -10z m-526 -99 c8 -12 -21 -34 -34 -26 -17 11 -11 35 9 35 11 0 22 -4 25 -9z m184 -48 c-4 -22 -48 -31 -48 -10 0 19 10 27 32 27 13 0 18 -6 16 -17z m-120 -40 c-4 -22 -58 -31 -58 -10 0 20 10 27 37 27 18 0 24 -5 21 -17z m102 -28 c0 -20 -5 -25 -23 -25 -31 0 -38 9 -26 31 15 29 49 25 49 -6z m80 -5 c0 -5 -9 -10 -20 -10 -11 0 -20 5 -20 10 0 6 9 10 20 10 11 0 20 -4 20 -10z" transform="translate(0,92) scale(0.1,-0.1)" stroke="none" fill="#95B9DF"/>

</g>

<g id="1" transform="translate(88.0,0)scale(1,1)">

<path d="M683 753 c-26 -10 -13 -33 18 -33 24 0 30 4 27 17 -3 18 -24 26 -45 16z" transform="translate(0,92) scale(0.1,-0.1)" stroke="none" fill="#6097DD"/>

<path d="M147 193 c-17 -17 -6 -34 20 -31 36 4 45 38 10 38 -13 0 -27 -3 -30 -7z" transform="translate(0,92) scale(0.1,-0.1)" stroke="none" fill="#6097DD"/>

<path d="M251 161 c-12 -22 -5 -31 26 -31 18 0 23 5 23 25 0 31 -34 35 -49 6z" transform="translate(0,92) scale(0.1,-0.1)" stroke="none" fill="#6097DD"/>

<path d="M412 401 c-18 -11 -12 -41 10 -55 14 -8 22 -7 35 7 29 29 -10 71 -45 48z" transform="translate(0,92) scale(0.1,-0.1)" stroke="none" fill="#316AD4"/>

<path d="M172 410 c-16 -26 -15 -50 2 -50 8 0 18 -9 21 -20 7 -22 13 -24 34 -11 8 5 11 16 8 26 -4 9 -11 14 -16 10 -5 -3 -12 -1 -15 4 -4 5 -2 12 4 16 5 3 10 15 10 26 0 25 -31 25 -48 -1z m28 -10 c0 -5 -5 -10 -11 -10 -5 0 -7 5 -4 10 3 6 8 10 11 10 2 0 4 -4 4 -10z" transform="translate(0,92) scale(0.1,-0.1)" stroke="none" fill="#6097DD"/>

<path d="M606 585 c-3 -9 1 -18 8 -21 10 -4 13 -16 9 -40 -6 -39 12 -47 40 -16 21 23 22 48 2 56 -8 3 -15 12 -15 21 0 20 -36 20 -44 0z m44 -65 c0 -5 -5 -10 -11 -10 -5 0 -7 5 -4 10 3 6 8 10 11 10 2 0 4 -4 4 -10z" transform="translate(0,92) scale(0.1,-0.1)" stroke="none" fill="#6097DD"/>

<path d="M804 232 c1 -115 0 -123 -19 -127 -39 -8 -690 -14 -702 -7 -7 4 -14 34 -16 67 l-3 60 -2 -68 c-1 -48 2 -69 11 -73 17 -6 734 9 741 16 2 3 1 62 -3 130 l-9 125 2 -123z" transform="translate(0,92) scale(0.1,-0.1)" stroke="none" fill="#6097DD"/>

<path d="M56 833 c-18 -5 -18 -15 -10 -236 5 -128 8 -257 8 -287 -1 -35 1 -45 5 -27 3 16 17 33 31 40 14 7 25 19 25 27 0 9 -10 15 -25 15 l-25 0 -7 225 c-4 123 -5 226 -2 229 10 11 703 7 712 -4 5 -5 13 -61 16 -122 l7 -113 -23 0 c-24 0 -48 -16 -48 -33 0 -5 16 -7 35 -5 l34 4 4 -66 c2 -36 3 21 2 126 -2 121 -7 199 -14 212 -12 22 -13 22 -359 21 -191 -1 -355 -3 -366 -6z m714 -267 c0 -3 -4 -8 -10 -11 -5 -3 -10 -1 -10 4 0 6 5 11 10 11 6 0 10 -2 10 -4z" transform="translate(0,92) scale(0.1,-0.1)" stroke="none" fill="#6097DD"/>

<path d="M108 823 l-58 -4 7 -222 c3 -122 8 -224 10 -227 2 -2 14 -5 26 -5 31 0 27 -27 -6 -43 l-28 -14 7 -101 c4 -56 12 -105 18 -109 11 -7 663 0 701 7 19 4 20 9 14 177 -4 95 -7 193 -8 218 l-1 46 -35 -4 c-19 -2 -35 0 -35 5 0 17 24 33 48 33 l23 0 -7 113 c-3 61 -11 116 -15 122 -10 10 -548 16 -661 8z m422 -33 c0 -5 -7 -10 -15 -10 -8 0 -15 5 -15 10 0 6 7 10 15 10 8 0 15 -4 15 -10z m97 -7 c6 -16 -30 -34 -46 -23 -21 12 -5 42 21 38 12 -2 23 -8 25 -15z m101 -46 c3 -13 -3 -17 -27 -17 -20 0 -31 5 -31 14 0 29 53 32 58 3z m-143 -7 c3 -5 -1 -10 -9 -10 -9 0 -16 5 -16 10 0 6 4 10 9 10 6 0 13 -4 16 -10z m-1 -29 c8 -12 -3 -41 -15 -41 -5 0 -9 11 -9 25 0 25 14 34 24 16z m180 -49 c2 -4 1 -14 -4 -22 -7 -11 -11 -11 -24 -1 -9 8 -16 17 -16 22 0 11 37 12 44 1z m-114 -67 c0 -9 7 -18 15 -21 20 -8 19 -33 -2 -56 -28 -31 -46 -23 -40 16 4 24 1 36 -9 40 -19 7 -6 36 17 36 10 0 19 -7 19 -15z m-460 -35 c0 -5 -7 -10 -15 -10 -8 0 -15 5 -15 10 0 6 7 10 15 10 8 0 15 -4 15 -10z m530 -50 c0 -11 -4 -20 -10 -20 -5 0 -10 2 -10 4 0 2 -3 11 -6 20 -4 11 -1 16 10 16 9 0 16 -8 16 -20z m-500 -10 c0 -5 -4 -10 -10 -10 -5 0 -10 5 -10 10 0 6 5 10 10 10 6 0 10 -4 10 -10z m480 -60 c0 -5 -4 -10 -10 -10 -5 0 -10 5 -10 10 0 6 5 10 10 10 6 0 10 -4 10 -10z m-560 -20 c0 -11 -4 -20 -10 -20 -5 0 -10 9 -10 20 0 11 5 20 10 20 6 0 10 -9 10 -20z m80 1 c0 -11 -5 -23 -10 -26 -6 -4 -8 -11 -4 -16 3 -5 10 -7 15 -4 5 4 12 -1 16 -10 3 -10 0 -21 -8 -26 -21 -13 -27 -11 -34 11 -3 11 -13 20 -21 20 -17 0 -18 24 -2 50 17 26 48 26 48 1z m244 -23 c15 -25 -17 -57 -42 -42 -22 14 -28 44 -10 55 18 12 39 7 52 -13z m196 -18 c0 -5 -7 -10 -15 -10 -8 0 -15 5 -15 10 0 6 7 10 15 10 8 0 15 -4 15 -10z m-526 -99 c8 -12 -21 -34 -34 -26 -17 11 -11 35 9 35 11 0 22 -4 25 -9z m184 -48 c-4 -22 -48 -31 -48 -10 0 19 10 27 32 27 13 0 18 -6 16 -17z m-120 -40 c-4 -22 -58 -31 -58 -10 0 20 10 27 37 27 18 0 24 -5 21 -17z m102 -28 c0 -20 -5 -25 -23 -25 -31 0 -38 9 -26 31 15 29 49 25 49 -6z m80 -5 c0 -5 -9 -10 -20 -10 -11 0 -20 5 -20 10 0 6 9 10 20 10 11 0 20 -4 20 -10z" transform="translate(0,92) scale(0.1,-0.1)" stroke="none" fill="#95B9DF"/>

</g>

<g id="2" transform="translate(176.0,0)scale(1,1)">

<path d="M683 753 c-26 -10 -13 -33 18 -33 24 0 30 4 27 17 -3 18 -24 26 -45 16z" transform="translate(0,92) scale(0.1,-0.1)" stroke="none" fill="#6097DD"/>

<path d="M147 193 c-17 -17 -6 -34 20 -31 36 4 45 38 10 38 -13 0 -27 -3 -30 -7z" transform="translate(0,92) scale(0.1,-0.1)" stroke="none" fill="#6097DD"/>

<path d="M251 161 c-12 -22 -5 -31 26 -31 18 0 23 5 23 25 0 31 -34 35 -49 6z" transform="translate(0,92) scale(0.1,-0.1)" stroke="none" fill="#6097DD"/>

<path d="M412 401 c-18 -11 -12 -41 10 -55 14 -8 22 -7 35 7 29 29 -10 71 -45 48z" transform="translate(0,92) scale(0.1,-0.1)" stroke="none" fill="#316AD4"/>

<path d="M172 410 c-16 -26 -15 -50 2 -50 8 0 18 -9 21 -20 7 -22 13 -24 34 -11 8 5 11 16 8 26 -4 9 -11 14 -16 10 -5 -3 -12 -1 -15 4 -4 5 -2 12 4 16 5 3 10 15 10 26 0 25 -31 25 -48 -1z m28 -10 c0 -5 -5 -10 -11 -10 -5 0 -7 5 -4 10 3 6 8 10 11 10 2 0 4 -4 4 -10z" transform="translate(0,92) scale(0.1,-0.1)" stroke="none" fill="#6097DD"/>

<path d="M606 585 c-3 -9 1 -18 8 -21 10 -4 13 -16 9 -40 -6 -39 12 -47 40 -16 21 23 22 48 2 56 -8 3 -15 12 -15 21 0 20 -36 20 -44 0z m44 -65 c0 -5 -5 -10 -11 -10 -5 0 -7 5 -4 10 3 6 8 10 11 10 2 0 4 -4 4 -10z" transform="translate(0,92) scale(0.1,-0.1)" stroke="none" fill="#6097DD"/>

<path d="M804 232 c1 -115 0 -123 -19 -127 -39 -8 -690 -14 -702 -7 -7 4 -14 34 -16 67 l-3 60 -2 -68 c-1 -48 2 -69 11 -73 17 -6 734 9 741 16 2 3 1 62 -3 130 l-9 125 2 -123z" transform="translate(0,92) scale(0.1,-0.1)" stroke="none" fill="#6097DD"/>

<path d="M56 833 c-18 -5 -18 -15 -10 -236 5 -128 8 -257 8 -287 -1 -35 1 -45 5 -27 3 16 17 33 31 40 14 7 25 19 25 27 0 9 -10 15 -25 15 l-25 0 -7 225 c-4 123 -5 226 -2 229 10 11 703 7 712 -4 5 -5 13 -61 16 -122 l7 -113 -23 0 c-24 0 -48 -16 -48 -33 0 -5 16 -7 35 -5 l34 4 4 -66 c2 -36 3 21 2 126 -2 121 -7 199 -14 212 -12 22 -13 22 -359 21 -191 -1 -355 -3 -366 -6z m714 -267 c0 -3 -4 -8 -10 -11 -5 -3 -10 -1 -10 4 0 6 5 11 10 11 6 0 10 -2 10 -4z" transform="translate(0,92) scale(0.1,-0.1)" stroke="none" fill="#6097DD"/>

<path d="M108 823 l-58 -4 7 -222 c3 -122 8 -224 10 -227 2 -2 14 -5 26 -5 31 0 27 -27 -6 -43 l-28 -14 7 -101 c4 -56 12 -105 18 -109 11 -7 663 0 701 7 19 4 20 9 14 177 -4 95 -7 193 -8 218 l-1 46 -35 -4 c-19 -2 -35 0 -35 5 0 17 24 33 48 33 l23 0 -7 113 c-3 61 -11 116 -15 122 -10 10 -548 16 -661 8z m422 -33 c0 -5 -7 -10 -15 -10 -8 0 -15 5 -15 10 0 6 7 10 15 10 8 0 15 -4 15 -10z m97 -7 c6 -16 -30 -34 -46 -23 -21 12 -5 42 21 38 12 -2 23 -8 25 -15z m101 -46 c3 -13 -3 -17 -27 -17 -20 0 -31 5 -31 14 0 29 53 32 58 3z m-143 -7 c3 -5 -1 -10 -9 -10 -9 0 -16 5 -16 10 0 6 4 10 9 10 6 0 13 -4 16 -10z m-1 -29 c8 -12 -3 -41 -15 -41 -5 0 -9 11 -9 25 0 25 14 34 24 16z m180 -49 c2 -4 1 -14 -4 -22 -7 -11 -11 -11 -24 -1 -9 8 -16 17 -16 22 0 11 37 12 44 1z m-114 -67 c0 -9 7 -18 15 -21 20 -8 19 -33 -2 -56 -28 -31 -46 -23 -40 16 4 24 1 36 -9 40 -19 7 -6 36 17 36 10 0 19 -7 19 -15z m-460 -35 c0 -5 -7 -10 -15 -10 -8 0 -15 5 -15 10 0 6 7 10 15 10 8 0 15 -4 15 -10z m530 -50 c0 -11 -4 -20 -10 -20 -5 0 -10 2 -10 4 0 2 -3 11 -6 20 -4 11 -1 16 10 16 9 0 16 -8 16 -20z m-500 -10 c0 -5 -4 -10 -10 -10 -5 0 -10 5 -10 10 0 6 5 10 10 10 6 0 10 -4 10 -10z m480 -60 c0 -5 -4 -10 -10 -10 -5 0 -10 5 -10 10 0 6 5 10 10 10 6 0 10 -4 10 -10z m-560 -20 c0 -11 -4 -20 -10 -20 -5 0 -10 9 -10 20 0 11 5 20 10 20 6 0 10 -9 10 -20z m80 1 c0 -11 -5 -23 -10 -26 -6 -4 -8 -11 -4 -16 3 -5 10 -7 15 -4 5 4 12 -1 16 -10 3 -10 0 -21 -8 -26 -21 -13 -27 -11 -34 11 -3 11 -13 20 -21 20 -17 0 -18 24 -2 50 17 26 48 26 48 1z m244 -23 c15 -25 -17 -57 -42 -42 -22 14 -28 44 -10 55 18 12 39 7 52 -13z m196 -18 c0 -5 -7 -10 -15 -10 -8 0 -15 5 -15 10 0 6 7 10 15 10 8 0 15 -4 15 -10z m-526 -99 c8 -12 -21 -34 -34 -26 -17 11 -11 35 9 35 11 0 22 -4 25 -9z m184 -48 c-4 -22 -48 -31 -48 -10 0 19 10 27 32 27 13 0 18 -6 16 -17z m-120 -40 c-4 -22 -58 -31 -58 -10 0 20 10 27 37 27 18 0 24 -5 21 -17z m102 -28 c0 -20 -5 -25 -23 -25 -31 0 -38 9 -26 31 15 29 49 25 49 -6z m80 -5 c0 -5 -9 -10 -20 -10 -11 0 -20 5 -20 10 0 6 9 10 20 10 11 0 20 -4 20 -10z" transform="translate(0,92) scale(0.1,-0.1)" stroke="none" fill="#95B9DF"/>

</g>

<g id="3" transform="translate(264.0,0)scale(1,1)">

<path d="M683 753 c-26 -10 -13 -33 18 -33 24 0 30 4 27 17 -3 18 -24 26 -45 16z" transform="translate(0,92) scale(0.1,-0.1)" stroke="none" fill="#6097DD"/>

<path d="M147 193 c-17 -17 -6 -34 20 -31 36 4 45 38 10 38 -13 0 -27 -3 -30 -7z" transform="translate(0,92) scale(0.1,-0.1)" stroke="none" fill="#6097DD"/>

<path d="M251 161 c-12 -22 -5 -31 26 -31 18 0 23 5 23 25 0 31 -34 35 -49 6z" transform="translate(0,92) scale(0.1,-0.1)" stroke="none" fill="#6097DD"/>

<path d="M412 401 c-18 -11 -12 -41 10 -55 14 -8 22 -7 35 7 29 29 -10 71 -45 48z" transform="translate(0,92) scale(0.1,-0.1)" stroke="none" fill="#316AD4"/>

<path d="M172 410 c-16 -26 -15 -50 2 -50 8 0 18 -9 21 -20 7 -22 13 -24 34 -11 8 5 11 16 8 26 -4 9 -11 14 -16 10 -5 -3 -12 -1 -15 4 -4 5 -2 12 4 16 5 3 10 15 10 26 0 25 -31 25 -48 -1z m28 -10 c0 -5 -5 -10 -11 -10 -5 0 -7 5 -4 10 3 6 8 10 11 10 2 0 4 -4 4 -10z" transform="translate(0,92) scale(0.1,-0.1)" stroke="none" fill="#6097DD"/>

<path d="M606 585 c-3 -9 1 -18 8 -21 10 -4 13 -16 9 -40 -6 -39 12 -47 40 -16 21 23 22 48 2 56 -8 3 -15 12 -15 21 0 20 -36 20 -44 0z m44 -65 c0 -5 -5 -10 -11 -10 -5 0 -7 5 -4 10 3 6 8 10 11 10 2 0 4 -4 4 -10z" transform="translate(0,92) scale(0.1,-0.1)" stroke="none" fill="#6097DD"/>

<path d="M804 232 c1 -115 0 -123 -19 -127 -39 -8 -690 -14 -702 -7 -7 4 -14 34 -16 67 l-3 60 -2 -68 c-1 -48 2 -69 11 -73 17 -6 734 9 741 16 2 3 1 62 -3 130 l-9 125 2 -123z" transform="translate(0,92) scale(0.1,-0.1)" stroke="none" fill="#6097DD"/>

<path d="M56 833 c-18 -5 -18 -15 -10 -236 5 -128 8 -257 8 -287 -1 -35 1 -45 5 -27 3 16 17 33 31 40 14 7 25 19 25 27 0 9 -10 15 -25 15 l-25 0 -7 225 c-4 123 -5 226 -2 229 10 11 703 7 712 -4 5 -5 13 -61 16 -122 l7 -113 -23 0 c-24 0 -48 -16 -48 -33 0 -5 16 -7 35 -5 l34 4 4 -66 c2 -36 3 21 2 126 -2 121 -7 199 -14 212 -12 22 -13 22 -359 21 -191 -1 -355 -3 -366 -6z m714 -267 c0 -3 -4 -8 -10 -11 -5 -3 -10 -1 -10 4 0 6 5 11 10 11 6 0 10 -2 10 -4z" transform="translate(0,92) scale(0.1,-0.1)" stroke="none" fill="#6097DD"/>

<path d="M108 823 l-58 -4 7 -222 c3 -122 8 -224 10 -227 2 -2 14 -5 26 -5 31 0 27 -27 -6 -43 l-28 -14 7 -101 c4 -56 12 -105 18 -109 11 -7 663 0 701 7 19 4 20 9 14 177 -4 95 -7 193 -8 218 l-1 46 -35 -4 c-19 -2 -35 0 -35 5 0 17 24 33 48 33 l23 0 -7 113 c-3 61 -11 116 -15 122 -10 10 -548 16 -661 8z m422 -33 c0 -5 -7 -10 -15 -10 -8 0 -15 5 -15 10 0 6 7 10 15 10 8 0 15 -4 15 -10z m97 -7 c6 -16 -30 -34 -46 -23 -21 12 -5 42 21 38 12 -2 23 -8 25 -15z m101 -46 c3 -13 -3 -17 -27 -17 -20 0 -31 5 -31 14 0 29 53 32 58 3z m-143 -7 c3 -5 -1 -10 -9 -10 -9 0 -16 5 -16 10 0 6 4 10 9 10 6 0 13 -4 16 -10z m-1 -29 c8 -12 -3 -41 -15 -41 -5 0 -9 11 -9 25 0 25 14 34 24 16z m180 -49 c2 -4 1 -14 -4 -22 -7 -11 -11 -11 -24 -1 -9 8 -16 17 -16 22 0 11 37 12 44 1z m-114 -67 c0 -9 7 -18 15 -21 20 -8 19 -33 -2 -56 -28 -31 -46 -23 -40 16 4 24 1 36 -9 40 -19 7 -6 36 17 36 10 0 19 -7 19 -15z m-460 -35 c0 -5 -7 -10 -15 -10 -8 0 -15 5 -15 10 0 6 7 10 15 10 8 0 15 -4 15 -10z m530 -50 c0 -11 -4 -20 -10 -20 -5 0 -10 2 -10 4 0 2 -3 11 -6 20 -4 11 -1 16 10 16 9 0 16 -8 16 -20z m-500 -10 c0 -5 -4 -10 -10 -10 -5 0 -10 5 -10 10 0 6 5 10 10 10 6 0 10 -4 10 -10z m480 -60 c0 -5 -4 -10 -10 -10 -5 0 -10 5 -10 10 0 6 5 10 10 10 6 0 10 -4 10 -10z m-560 -20 c0 -11 -4 -20 -10 -20 -5 0 -10 9 -10 20 0 11 5 20 10 20 6 0 10 -9 10 -20z m80 1 c0 -11 -5 -23 -10 -26 -6 -4 -8 -11 -4 -16 3 -5 10 -7 15 -4 5 4 12 -1 16 -10 3 -10 0 -21 -8 -26 -21 -13 -27 -11 -34 11 -3 11 -13 20 -21 20 -17 0 -18 24 -2 50 17 26 48 26 48 1z m244 -23 c15 -25 -17 -57 -42 -42 -22 14 -28 44 -10 55 18 12 39 7 52 -13z m196 -18 c0 -5 -7 -10 -15 -10 -8 0 -15 5 -15 10 0 6 7 10 15 10 8 0 15 -4 15 -10z m-526 -99 c8 -12 -21 -34 -34 -26 -17 11 -11 35 9 35 11 0 22 -4 25 -9z m184 -48 c-4 -22 -48 -31 -48 -10 0 19 10 27 32 27 13 0 18 -6 16 -17z m-120 -40 c-4 -22 -58 -31 -58 -10 0 20 10 27 37 27 18 0 24 -5 21 -17z m102 -28 c0 -20 -5 -25 -23 -25 -31 0 -38 9 -26 31 15 29 49 25 49 -6z m80 -5 c0 -5 -9 -10 -20 -10 -11 0 -20 5 -20 10 0 6 9 10 20 10 11 0 20 -4 20 -10z" transform="translate(0,92) scale(0.1,-0.1)" stroke="none" fill="#95B9DF"/>

</g>

<g id="4" transform="translate(352.0,0)scale(1,1)">

<path d="M683 753 c-26 -10 -13 -33 18 -33 24 0 30 4 27 17 -3 18 -24 26 -45 16z" transform="translate(0,92) scale(0.1,-0.1)" stroke="none" fill="#6097DD"/>

<path d="M147 193 c-17 -17 -6 -34 20 -31 36 4 45 38 10 38 -13 0 -27 -3 -30 -7z" transform="translate(0,92) scale(0.1,-0.1)" stroke="none" fill="#6097DD"/>

<path d="M251 161 c-12 -22 -5 -31 26 -31 18 0 23 5 23 25 0 31 -34 35 -49 6z" transform="translate(0,92) scale(0.1,-0.1)" stroke="none" fill="#6097DD"/>

<path d="M412 401 c-18 -11 -12 -41 10 -55 14 -8 22 -7 35 7 29 29 -10 71 -45 48z" transform="translate(0,92) scale(0.1,-0.1)" stroke="none" fill="#316AD4"/>

<path d="M172 410 c-16 -26 -15 -50 2 -50 8 0 18 -9 21 -20 7 -22 13 -24 34 -11 8 5 11 16 8 26 -4 9 -11 14 -16 10 -5 -3 -12 -1 -15 4 -4 5 -2 12 4 16 5 3 10 15 10 26 0 25 -31 25 -48 -1z m28 -10 c0 -5 -5 -10 -11 -10 -5 0 -7 5 -4 10 3 6 8 10 11 10 2 0 4 -4 4 -10z" transform="translate(0,92) scale(0.1,-0.1)" stroke="none" fill="#6097DD"/>

<path d="M606 585 c-3 -9 1 -18 8 -21 10 -4 13 -16 9 -40 -6 -39 12 -47 40 -16 21 23 22 48 2 56 -8 3 -15 12 -15 21 0 20 -36 20 -44 0z m44 -65 c0 -5 -5 -10 -11 -10 -5 0 -7 5 -4 10 3 6 8 10 11 10 2 0 4 -4 4 -10z" transform="translate(0,92) scale(0.1,-0.1)" stroke="none" fill="#6097DD"/>

<path d="M804 232 c1 -115 0 -123 -19 -127 -39 -8 -690 -14 -702 -7 -7 4 -14 34 -16 67 l-3 60 -2 -68 c-1 -48 2 -69 11 -73 17 -6 734 9 741 16 2 3 1 62 -3 130 l-9 125 2 -123z" transform="translate(0,92) scale(0.1,-0.1)" stroke="none" fill="#6097DD"/>

<path d="M56 833 c-18 -5 -18 -15 -10 -236 5 -128 8 -257 8 -287 -1 -35 1 -45 5 -27 3 16 17 33 31 40 14 7 25 19 25 27 0 9 -10 15 -25 15 l-25 0 -7 225 c-4 123 -5 226 -2 229 10 11 703 7 712 -4 5 -5 13 -61 16 -122 l7 -113 -23 0 c-24 0 -48 -16 -48 -33 0 -5 16 -7 35 -5 l34 4 4 -66 c2 -36 3 21 2 126 -2 121 -7 199 -14 212 -12 22 -13 22 -359 21 -191 -1 -355 -3 -366 -6z m714 -267 c0 -3 -4 -8 -10 -11 -5 -3 -10 -1 -10 4 0 6 5 11 10 11 6 0 10 -2 10 -4z" transform="translate(0,92) scale(0.1,-0.1)" stroke="none" fill="#6097DD"/>

<path d="M108 823 l-58 -4 7 -222 c3 -122 8 -224 10 -227 2 -2 14 -5 26 -5 31 0 27 -27 -6 -43 l-28 -14 7 -101 c4 -56 12 -105 18 -109 11 -7 663 0 701 7 19 4 20 9 14 177 -4 95 -7 193 -8 218 l-1 46 -35 -4 c-19 -2 -35 0 -35 5 0 17 24 33 48 33 l23 0 -7 113 c-3 61 -11 116 -15 122 -10 10 -548 16 -661 8z m422 -33 c0 -5 -7 -10 -15 -10 -8 0 -15 5 -15 10 0 6 7 10 15 10 8 0 15 -4 15 -10z m97 -7 c6 -16 -30 -34 -46 -23 -21 12 -5 42 21 38 12 -2 23 -8 25 -15z m101 -46 c3 -13 -3 -17 -27 -17 -20 0 -31 5 -31 14 0 29 53 32 58 3z m-143 -7 c3 -5 -1 -10 -9 -10 -9 0 -16 5 -16 10 0 6 4 10 9 10 6 0 13 -4 16 -10z m-1 -29 c8 -12 -3 -41 -15 -41 -5 0 -9 11 -9 25 0 25 14 34 24 16z m180 -49 c2 -4 1 -14 -4 -22 -7 -11 -11 -11 -24 -1 -9 8 -16 17 -16 22 0 11 37 12 44 1z m-114 -67 c0 -9 7 -18 15 -21 20 -8 19 -33 -2 -56 -28 -31 -46 -23 -40 16 4 24 1 36 -9 40 -19 7 -6 36 17 36 10 0 19 -7 19 -15z m-460 -35 c0 -5 -7 -10 -15 -10 -8 0 -15 5 -15 10 0 6 7 10 15 10 8 0 15 -4 15 -10z m530 -50 c0 -11 -4 -20 -10 -20 -5 0 -10 2 -10 4 0 2 -3 11 -6 20 -4 11 -1 16 10 16 9 0 16 -8 16 -20z m-500 -10 c0 -5 -4 -10 -10 -10 -5 0 -10 5 -10 10 0 6 5 10 10 10 6 0 10 -4 10 -10z m480 -60 c0 -5 -4 -10 -10 -10 -5 0 -10 5 -10 10 0 6 5 10 10 10 6 0 10 -4 10 -10z m-560 -20 c0 -11 -4 -20 -10 -20 -5 0 -10 9 -10 20 0 11 5 20 10 20 6 0 10 -9 10 -20z m80 1 c0 -11 -5 -23 -10 -26 -6 -4 -8 -11 -4 -16 3 -5 10 -7 15 -4 5 4 12 -1 16 -10 3 -10 0 -21 -8 -26 -21 -13 -27 -11 -34 11 -3 11 -13 20 -21 20 -17 0 -18 24 -2 50 17 26 48 26 48 1z m244 -23 c15 -25 -17 -57 -42 -42 -22 14 -28 44 -10 55 18 12 39 7 52 -13z m196 -18 c0 -5 -7 -10 -15 -10 -8 0 -15 5 -15 10 0 6 7 10 15 10 8 0 15 -4 15 -10z m-526 -99 c8 -12 -21 -34 -34 -26 -17 11 -11 35 9 35 11 0 22 -4 25 -9z m184 -48 c-4 -22 -48 -31 -48 -10 0 19 10 27 32 27 13 0 18 -6 16 -17z m-120 -40 c-4 -22 -58 -31 -58 -10 0 20 10 27 37 27 18 0 24 -5 21 -17z m102 -28 c0 -20 -5 -25 -23 -25 -31 0 -38 9 -26 31 15 29 49 25 49 -6z m80 -5 c0 -5 -9 -10 -20 -10 -11 0 -20 5 -20 10 0 6 9 10 20 10 11 0 20 -4 20 -10z" transform="translate(0,92) scale(0.1,-0.1)" stroke="none" fill="#95B9DF"/>

</g>

</g>
<g id="row1" transform="translate(11,92.0)">
<g id="0" transform="translate(0.0,0)scale(1,1)">

<path d="M683 753 c-26 -10 -13 -33 18 -33 24 0 30 4 27 17 -3 18 -24 26 -45 16z" transform="translate(0,92) scale(0.1,-0.1)" stroke="none" fill="#6097DD"/>

<path d="M147 193 c-17 -17 -6 -34 20 -31 36 4 45 38 10 38 -13 0 -27 -3 -30 -7z" transform="translate(0,92) scale(0.1,-0.1)" stroke="none" fill="#6097DD"/>

<path d="M251 161 c-12 -22 -5 -31 26 -31 18 0 23 5 23 25 0 31 -34 35 -49 6z" transform="translate(0,92) scale(0.1,-0.1)" stroke="none" fill="#6097DD"/>

<path d="M412 401 c-18 -11 -12 -41 10 -55 14 -8 22 -7 35 7 29 29 -10 71 -45 48z" transform="translate(0,92) scale(0.1,-0.1)" stroke="none" fill="#316AD4"/>

<path d="M172 410 c-16 -26 -15 -50 2 -50 8 0 18 -9 21 -20 7 -22 13 -24 34 -11 8 5 11 16 8 26 -4 9 -11 14 -16 10 -5 -3 -12 -1 -15 4 -4 5 -2 12 4 16 5 3 10 15 10 26 0 25 -31 25 -48 -1z m28 -10 c0 -5 -5 -10 -11 -10 -5 0 -7 5 -4 10 3 6 8 10 11 10 2 0 4 -4 4 -10z" transform="translate(0,92) scale(0.1,-0.1)" stroke="none" fill="#6097DD"/>

<path d="M606 585 c-3 -9 1 -18 8 -21 10 -4 13 -16 9 -40 -6 -39 12 -47 40 -16 21 23 22 48 2 56 -8 3 -15 12 -15 21 0 20 -36 20 -44 0z m44 -65 c0 -5 -5 -10 -11 -10 -5 0 -7 5 -4 10 3 6 8 10 11 10 2 0 4 -4 4 -10z" transform="translate(0,92) scale(0.1,-0.1)" stroke="none" fill="#6097DD"/>

<path d="M804 232 c1 -115 0 -123 -19 -127 -39 -8 -690 -14 -702 -7 -7 4 -14 34 -16 67 l-3 60 -2 -68 c-1 -48 2 -69 11 -73 17 -6 734 9 741 16 2 3 1 62 -3 130 l-9 125 2 -123z" transform="translate(0,92) scale(0.1,-0.1)" stroke="none" fill="#6097DD"/>

<path d="M56 833 c-18 -5 -18 -15 -10 -236 5 -128 8 -257 8 -287 -1 -35 1 -45 5 -27 3 16 17 33 31 40 14 7 25 19 25 27 0 9 -10 15 -25 15 l-25 0 -7 225 c-4 123 -5 226 -2 229 10 11 703 7 712 -4 5 -5 13 -61 16 -122 l7 -113 -23 0 c-24 0 -48 -16 -48 -33 0 -5 16 -7 35 -5 l34 4 4 -66 c2 -36 3 21 2 126 -2 121 -7 199 -14 212 -12 22 -13 22 -359 21 -191 -1 -355 -3 -366 -6z m714 -267 c0 -3 -4 -8 -10 -11 -5 -3 -10 -1 -10 4 0 6 5 11 10 11 6 0 10 -2 10 -4z" transform="translate(0,92) scale(0.1,-0.1)" stroke="none" fill="#6097DD"/>

<path d="M108 823 l-58 -4 7 -222 c3 -122 8 -224 10 -227 2 -2 14 -5 26 -5 31 0 27 -27 -6 -43 l-28 -14 7 -101 c4 -56 12 -105 18 -109 11 -7 663 0 701 7 19 4 20 9 14 177 -4 95 -7 193 -8 218 l-1 46 -35 -4 c-19 -2 -35 0 -35 5 0 17 24 33 48 33 l23 0 -7 113 c-3 61 -11 116 -15 122 -10 10 -548 16 -661 8z m422 -33 c0 -5 -7 -10 -15 -10 -8 0 -15 5 -15 10 0 6 7 10 15 10 8 0 15 -4 15 -10z m97 -7 c6 -16 -30 -34 -46 -23 -21 12 -5 42 21 38 12 -2 23 -8 25 -15z m101 -46 c3 -13 -3 -17 -27 -17 -20 0 -31 5 -31 14 0 29 53 32 58 3z m-143 -7 c3 -5 -1 -10 -9 -10 -9 0 -16 5 -16 10 0 6 4 10 9 10 6 0 13 -4 16 -10z m-1 -29 c8 -12 -3 -41 -15 -41 -5 0 -9 11 -9 25 0 25 14 34 24 16z m180 -49 c2 -4 1 -14 -4 -22 -7 -11 -11 -11 -24 -1 -9 8 -16 17 -16 22 0 11 37 12 44 1z m-114 -67 c0 -9 7 -18 15 -21 20 -8 19 -33 -2 -56 -28 -31 -46 -23 -40 16 4 24 1 36 -9 40 -19 7 -6 36 17 36 10 0 19 -7 19 -15z m-460 -35 c0 -5 -7 -10 -15 -10 -8 0 -15 5 -15 10 0 6 7 10 15 10 8 0 15 -4 15 -10z m530 -50 c0 -11 -4 -20 -10 -20 -5 0 -10 2 -10 4 0 2 -3 11 -6 20 -4 11 -1 16 10 16 9 0 16 -8 16 -20z m-500 -10 c0 -5 -4 -10 -10 -10 -5 0 -10 5 -10 10 0 6 5 10 10 10 6 0 10 -4 10 -10z m480 -60 c0 -5 -4 -10 -10 -10 -5 0 -10 5 -10 10 0 6 5 10 10 10 6 0 10 -4 10 -10z m-560 -20 c0 -11 -4 -20 -10 -20 -5 0 -10 9 -10 20 0 11 5 20 10 20 6 0 10 -9 10 -20z m80 1 c0 -11 -5 -23 -10 -26 -6 -4 -8 -11 -4 -16 3 -5 10 -7 15 -4 5 4 12 -1 16 -10 3 -10 0 -21 -8 -26 -21 -13 -27 -11 -34 11 -3 11 -13 20 -21 20 -17 0 -18 24 -2 50 17 26 48 26 48 1z m244 -23 c15 -25 -17 -57 -42 -42 -22 14 -28 44 -10 55 18 12 39 7 52 -13z m196 -18 c0 -5 -7 -10 -15 -10 -8 0 -15 5 -15 10 0 6 7 10 15 10 8 0 15 -4 15 -10z m-526 -99 c8 -12 -21 -34 -34 -26 -17 11 -11 35 9 35 11 0 22 -4 25 -9z m184 -48 c-4 -22 -48 -31 -48 -10 0 19 10 27 32 27 13 0 18 -6 16 -17z m-120 -40 c-4 -22 -58 -31 -58 -10 0 20 10 27 37 27 18 0 24 -5 21 -17z m102 -28 c0 -20 -5 -25 -23 -25 -31 0 -38 9 -26 31 15 29 49 25 49 -6z m80 -5 c0 -5 -9 -10 -20 -10 -11 0 -20 5 -20 10 0 6 9 10 20 10 11 0 20 -4 20 -10z" transform="translate(0,92) scale(0.1,-0.1)" stroke="none" fill="#95B9DF"/>

</g>

<g id="1" transform="translate(88.0,0)scale(1,1)">

<path d="M683 753 c-26 -10 -13 -33 18 -33 24 0 30 4 27 17 -3 18 -24 26 -45 16z" transform="translate(0,92) scale(0.1,-0.1)" stroke="none" fill="#6097DD"/>

<path d="M147 193 c-17 -17 -6 -34 20 -31 36 4 45 38 10 38 -13 0 -27 -3 -30 -7z" transform="translate(0,92) scale(0.1,-0.1)" stroke="none" fill="#6097DD"/>

<path d="M251 161 c-12 -22 -5 -31 26 -31 18 0 23 5 23 25 0 31 -34 35 -49 6z" transform="translate(0,92) scale(0.1,-0.1)" stroke="none" fill="#6097DD"/>

<path d="M412 401 c-18 -11 -12 -41 10 -55 14 -8 22 -7 35 7 29 29 -10 71 -45 48z" transform="translate(0,92) scale(0.1,-0.1)" stroke="none" fill="#316AD4"/>

<path d="M172 410 c-16 -26 -15 -50 2 -50 8 0 18 -9 21 -20 7 -22 13 -24 34 -11 8 5 11 16 8 26 -4 9 -11 14 -16 10 -5 -3 -12 -1 -15 4 -4 5 -2 12 4 16 5 3 10 15 10 26 0 25 -31 25 -48 -1z m28 -10 c0 -5 -5 -10 -11 -10 -5 0 -7 5 -4 10 3 6 8 10 11 10 2 0 4 -4 4 -10z" transform="translate(0,92) scale(0.1,-0.1)" stroke="none" fill="#6097DD"/>

<path d="M606 585 c-3 -9 1 -18 8 -21 10 -4 13 -16 9 -40 -6 -39 12 -47 40 -16 21 23 22 48 2 56 -8 3 -15 12 -15 21 0 20 -36 20 -44 0z m44 -65 c0 -5 -5 -10 -11 -10 -5 0 -7 5 -4 10 3 6 8 10 11 10 2 0 4 -4 4 -10z" transform="translate(0,92) scale(0.1,-0.1)" stroke="none" fill="#6097DD"/>

<path d="M804 232 c1 -115 0 -123 -19 -127 -39 -8 -690 -14 -702 -7 -7 4 -14 34 -16 67 l-3 60 -2 -68 c-1 -48 2 -69 11 -73 17 -6 734 9 741 16 2 3 1 62 -3 130 l-9 125 2 -123z" transform="translate(0,92) scale(0.1,-0.1)" stroke="none" fill="#6097DD"/>

<path d="M56 833 c-18 -5 -18 -15 -10 -236 5 -128 8 -257 8 -287 -1 -35 1 -45 5 -27 3 16 17 33 31 40 14 7 25 19 25 27 0 9 -10 15 -25 15 l-25 0 -7 225 c-4 123 -5 226 -2 229 10 11 703 7 712 -4 5 -5 13 -61 16 -122 l7 -113 -23 0 c-24 0 -48 -16 -48 -33 0 -5 16 -7 35 -5 l34 4 4 -66 c2 -36 3 21 2 126 -2 121 -7 199 -14 212 -12 22 -13 22 -359 21 -191 -1 -355 -3 -366 -6z m714 -267 c0 -3 -4 -8 -10 -11 -5 -3 -10 -1 -10 4 0 6 5 11 10 11 6 0 10 -2 10 -4z" transform="translate(0,92) scale(0.1,-0.1)" stroke="none" fill="#6097DD"/>

<path d="M108 823 l-58 -4 7 -222 c3 -122 8 -224 10 -227 2 -2 14 -5 26 -5 31 0 27 -27 -6 -43 l-28 -14 7 -101 c4 -56 12 -105 18 -109 11 -7 663 0 701 7 19 4 20 9 14 177 -4 95 -7 193 -8 218 l-1 46 -35 -4 c-19 -2 -35 0 -35 5 0 17 24 33 48 33 l23 0 -7 113 c-3 61 -11 116 -15 122 -10 10 -548 16 -661 8z m422 -33 c0 -5 -7 -10 -15 -10 -8 0 -15 5 -15 10 0 6 7 10 15 10 8 0 15 -4 15 -10z m97 -7 c6 -16 -30 -34 -46 -23 -21 12 -5 42 21 38 12 -2 23 -8 25 -15z m101 -46 c3 -13 -3 -17 -27 -17 -20 0 -31 5 -31 14 0 29 53 32 58 3z m-143 -7 c3 -5 -1 -10 -9 -10 -9 0 -16 5 -16 10 0 6 4 10 9 10 6 0 13 -4 16 -10z m-1 -29 c8 -12 -3 -41 -15 -41 -5 0 -9 11 -9 25 0 25 14 34 24 16z m180 -49 c2 -4 1 -14 -4 -22 -7 -11 -11 -11 -24 -1 -9 8 -16 17 -16 22 0 11 37 12 44 1z m-114 -67 c0 -9 7 -18 15 -21 20 -8 19 -33 -2 -56 -28 -31 -46 -23 -40 16 4 24 1 36 -9 40 -19 7 -6 36 17 36 10 0 19 -7 19 -15z m-460 -35 c0 -5 -7 -10 -15 -10 -8 0 -15 5 -15 10 0 6 7 10 15 10 8 0 15 -4 15 -10z m530 -50 c0 -11 -4 -20 -10 -20 -5 0 -10 2 -10 4 0 2 -3 11 -6 20 -4 11 -1 16 10 16 9 0 16 -8 16 -20z m-500 -10 c0 -5 -4 -10 -10 -10 -5 0 -10 5 -10 10 0 6 5 10 10 10 6 0 10 -4 10 -10z m480 -60 c0 -5 -4 -10 -10 -10 -5 0 -10 5 -10 10 0 6 5 10 10 10 6 0 10 -4 10 -10z m-560 -20 c0 -11 -4 -20 -10 -20 -5 0 -10 9 -10 20 0 11 5 20 10 20 6 0 10 -9 10 -20z m80 1 c0 -11 -5 -23 -10 -26 -6 -4 -8 -11 -4 -16 3 -5 10 -7 15 -4 5 4 12 -1 16 -10 3 -10 0 -21 -8 -26 -21 -13 -27 -11 -34 11 -3 11 -13 20 -21 20 -17 0 -18 24 -2 50 17 26 48 26 48 1z m244 -23 c15 -25 -17 -57 -42 -42 -22 14 -28 44 -10 55 18 12 39 7 52 -13z m196 -18 c0 -5 -7 -10 -15 -10 -8 0 -15 5 -15 10 0 6 7 10 15 10 8 0 15 -4 15 -10z m-526 -99 c8 -12 -21 -34 -34 -26 -17 11 -11 35 9 35 11 0 22 -4 25 -9z m184 -48 c-4 -22 -48 -31 -48 -10 0 19 10 27 32 27 13 0 18 -6 16 -17z m-120 -40 c-4 -22 -58 -31 -58 -10 0 20 10 27 37 27 18 0 24 -5 21 -17z m102 -28 c0 -20 -5 -25 -23 -25 -31 0 -38 9 -26 31 15 29 49 25 49 -6z m80 -5 c0 -5 -9 -10 -20 -10 -11 0 -20 5 -20 10 0 6 9 10 20 10 11 0 20 -4 20 -10z" transform="translate(0,92) scale(0.1,-0.1)" stroke="none" fill="#95B9DF"/>

</g>

<g id="2" transform="translate(176.0,0)scale(1,1)">

<path d="M683 753 c-26 -10 -13 -33 18 -33 24 0 30 4 27 17 -3 18 -24 26 -45 16z" transform="translate(0,92) scale(0.1,-0.1)" stroke="none" fill="#6097DD"/>

<path d="M147 193 c-17 -17 -6 -34 20 -31 36 4 45 38 10 38 -13 0 -27 -3 -30 -7z" transform="translate(0,92) scale(0.1,-0.1)" stroke="none" fill="#6097DD"/>

<path d="M251 161 c-12 -22 -5 -31 26 -31 18 0 23 5 23 25 0 31 -34 35 -49 6z" transform="translate(0,92) scale(0.1,-0.1)" stroke="none" fill="#6097DD"/>

<path d="M412 401 c-18 -11 -12 -41 10 -55 14 -8 22 -7 35 7 29 29 -10 71 -45 48z" transform="translate(0,92) scale(0.1,-0.1)" stroke="none" fill="#316AD4"/>

<path d="M172 410 c-16 -26 -15 -50 2 -50 8 0 18 -9 21 -20 7 -22 13 -24 34 -11 8 5 11 16 8 26 -4 9 -11 14 -16 10 -5 -3 -12 -1 -15 4 -4 5 -2 12 4 16 5 3 10 15 10 26 0 25 -31 25 -48 -1z m28 -10 c0 -5 -5 -10 -11 -10 -5 0 -7 5 -4 10 3 6 8 10 11 10 2 0 4 -4 4 -10z" transform="translate(0,92) scale(0.1,-0.1)" stroke="none" fill="#6097DD"/>

<path d="M606 585 c-3 -9 1 -18 8 -21 10 -4 13 -16 9 -40 -6 -39 12 -47 40 -16 21 23 22 48 2 56 -8 3 -15 12 -15 21 0 20 -36 20 -44 0z m44 -65 c0 -5 -5 -10 -11 -10 -5 0 -7 5 -4 10 3 6 8 10 11 10 2 0 4 -4 4 -10z" transform="translate(0,92) scale(0.1,-0.1)" stroke="none" fill="#6097DD"/>

<path d="M804 232 c1 -115 0 -123 -19 -127 -39 -8 -690 -14 -702 -7 -7 4 -14 34 -16 67 l-3 60 -2 -68 c-1 -48 2 -69 11 -73 17 -6 734 9 741 16 2 3 1 62 -3 130 l-9 125 2 -123z" transform="translate(0,92) scale(0.1,-0.1)" stroke="none" fill="#6097DD"/>

<path d="M56 833 c-18 -5 -18 -15 -10 -236 5 -128 8 -257 8 -287 -1 -35 1 -45 5 -27 3 16 17 33 31 40 14 7 25 19 25 27 0 9 -10 15 -25 15 l-25 0 -7 225 c-4 123 -5 226 -2 229 10 11 703 7 712 -4 5 -5 13 -61 16 -122 l7 -113 -23 0 c-24 0 -48 -16 -48 -33 0 -5 16 -7 35 -5 l34 4 4 -66 c2 -36 3 21 2 126 -2 121 -7 199 -14 212 -12 22 -13 22 -359 21 -191 -1 -355 -3 -366 -6z m714 -267 c0 -3 -4 -8 -10 -11 -5 -3 -10 -1 -10 4 0 6 5 11 10 11 6 0 10 -2 10 -4z" transform="translate(0,92) scale(0.1,-0.1)" stroke="none" fill="#6097DD"/>

<path d="M108 823 l-58 -4 7 -222 c3 -122 8 -224 10 -227 2 -2 14 -5 26 -5 31 0 27 -27 -6 -43 l-28 -14 7 -101 c4 -56 12 -105 18 -109 11 -7 663 0 701 7 19 4 20 9 14 177 -4 95 -7 193 -8 218 l-1 46 -35 -4 c-19 -2 -35 0 -35 5 0 17 24 33 48 33 l23 0 -7 113 c-3 61 -11 116 -15 122 -10 10 -548 16 -661 8z m422 -33 c0 -5 -7 -10 -15 -10 -8 0 -15 5 -15 10 0 6 7 10 15 10 8 0 15 -4 15 -10z m97 -7 c6 -16 -30 -34 -46 -23 -21 12 -5 42 21 38 12 -2 23 -8 25 -15z m101 -46 c3 -13 -3 -17 -27 -17 -20 0 -31 5 -31 14 0 29 53 32 58 3z m-143 -7 c3 -5 -1 -10 -9 -10 -9 0 -16 5 -16 10 0 6 4 10 9 10 6 0 13 -4 16 -10z m-1 -29 c8 -12 -3 -41 -15 -41 -5 0 -9 11 -9 25 0 25 14 34 24 16z m180 -49 c2 -4 1 -14 -4 -22 -7 -11 -11 -11 -24 -1 -9 8 -16 17 -16 22 0 11 37 12 44 1z m-114 -67 c0 -9 7 -18 15 -21 20 -8 19 -33 -2 -56 -28 -31 -46 -23 -40 16 4 24 1 36 -9 40 -19 7 -6 36 17 36 10 0 19 -7 19 -15z m-460 -35 c0 -5 -7 -10 -15 -10 -8 0 -15 5 -15 10 0 6 7 10 15 10 8 0 15 -4 15 -10z m530 -50 c0 -11 -4 -20 -10 -20 -5 0 -10 2 -10 4 0 2 -3 11 -6 20 -4 11 -1 16 10 16 9 0 16 -8 16 -20z m-500 -10 c0 -5 -4 -10 -10 -10 -5 0 -10 5 -10 10 0 6 5 10 10 10 6 0 10 -4 10 -10z m480 -60 c0 -5 -4 -10 -10 -10 -5 0 -10 5 -10 10 0 6 5 10 10 10 6 0 10 -4 10 -10z m-560 -20 c0 -11 -4 -20 -10 -20 -5 0 -10 9 -10 20 0 11 5 20 10 20 6 0 10 -9 10 -20z m80 1 c0 -11 -5 -23 -10 -26 -6 -4 -8 -11 -4 -16 3 -5 10 -7 15 -4 5 4 12 -1 16 -10 3 -10 0 -21 -8 -26 -21 -13 -27 -11 -34 11 -3 11 -13 20 -21 20 -17 0 -18 24 -2 50 17 26 48 26 48 1z m244 -23 c15 -25 -17 -57 -42 -42 -22 14 -28 44 -10 55 18 12 39 7 52 -13z m196 -18 c0 -5 -7 -10 -15 -10 -8 0 -15 5 -15 10 0 6 7 10 15 10 8 0 15 -4 15 -10z m-526 -99 c8 -12 -21 -34 -34 -26 -17 11 -11 35 9 35 11 0 22 -4 25 -9z m184 -48 c-4 -22 -48 -31 -48 -10 0 19 10 27 32 27 13 0 18 -6 16 -17z m-120 -40 c-4 -22 -58 -31 -58 -10 0 20 10 27 37 27 18 0 24 -5 21 -17z m102 -28 c0 -20 -5 -25 -23 -25 -31 0 -38 9 -26 31 15 29 49 25 49 -6z m80 -5 c0 -5 -9 -10 -20 -10 -11 0 -20 5 -20 10 0 6 9 10 20 10 11 0 20 -4 20 -10z" transform="translate(0,92) scale(0.1,-0.1)" stroke="none" fill="#95B9DF"/>

</g>

<g id="3" transform="translate(264.0,0)scale(1,1)">

<path d="M683 753 c-26 -10 -13 -33 18 -33 24 0 30 4 27 17 -3 18 -24 26 -45 16z" transform="translate(0,92) scale(0.1,-0.1)" stroke="none" fill="#6097DD"/>

<path d="M147 193 c-17 -17 -6 -34 20 -31 36 4 45 38 10 38 -13 0 -27 -3 -30 -7z" transform="translate(0,92) scale(0.1,-0.1)" stroke="none" fill="#6097DD"/>

<path d="M251 161 c-12 -22 -5 -31 26 -31 18 0 23 5 23 25 0 31 -34 35 -49 6z" transform="translate(0,92) scale(0.1,-0.1)" stroke="none" fill="#6097DD"/>

<path d="M412 401 c-18 -11 -12 -41 10 -55 14 -8 22 -7 35 7 29 29 -10 71 -45 48z" transform="translate(0,92) scale(0.1,-0.1)" stroke="none" fill="#316AD4"/>

<path d="M172 410 c-16 -26 -15 -50 2 -50 8 0 18 -9 21 -20 7 -22 13 -24 34 -11 8 5 11 16 8 26 -4 9 -11 14 -16 10 -5 -3 -12 -1 -15 4 -4 5 -2 12 4 16 5 3 10 15 10 26 0 25 -31 25 -48 -1z m28 -10 c0 -5 -5 -10 -11 -10 -5 0 -7 5 -4 10 3 6 8 10 11 10 2 0 4 -4 4 -10z" transform="translate(0,92) scale(0.1,-0.1)" stroke="none" fill="#6097DD"/>

<path d="M606 585 c-3 -9 1 -18 8 -21 10 -4 13 -16 9 -40 -6 -39 12 -47 40 -16 21 23 22 48 2 56 -8 3 -15 12 -15 21 0 20 -36 20 -44 0z m44 -65 c0 -5 -5 -10 -11 -10 -5 0 -7 5 -4 10 3 6 8 10 11 10 2 0 4 -4 4 -10z" transform="translate(0,92) scale(0.1,-0.1)" stroke="none" fill="#6097DD"/>

<path d="M804 232 c1 -115 0 -123 -19 -127 -39 -8 -690 -14 -702 -7 -7 4 -14 34 -16 67 l-3 60 -2 -68 c-1 -48 2 -69 11 -73 17 -6 734 9 741 16 2 3 1 62 -3 130 l-9 125 2 -123z" transform="translate(0,92) scale(0.1,-0.1)" stroke="none" fill="#6097DD"/>

<path d="M56 833 c-18 -5 -18 -15 -10 -236 5 -128 8 -257 8 -287 -1 -35 1 -45 5 -27 3 16 17 33 31 40 14 7 25 19 25 27 0 9 -10 15 -25 15 l-25 0 -7 225 c-4 123 -5 226 -2 229 10 11 703 7 712 -4 5 -5 13 -61 16 -122 l7 -113 -23 0 c-24 0 -48 -16 -48 -33 0 -5 16 -7 35 -5 l34 4 4 -66 c2 -36 3 21 2 126 -2 121 -7 199 -14 212 -12 22 -13 22 -359 21 -191 -1 -355 -3 -366 -6z m714 -267 c0 -3 -4 -8 -10 -11 -5 -3 -10 -1 -10 4 0 6 5 11 10 11 6 0 10 -2 10 -4z" transform="translate(0,92) scale(0.1,-0.1)" stroke="none" fill="#6097DD"/>

<path d="M108 823 l-58 -4 7 -222 c3 -122 8 -224 10 -227 2 -2 14 -5 26 -5 31 0 27 -27 -6 -43 l-28 -14 7 -101 c4 -56 12 -105 18 -109 11 -7 663 0 701 7 19 4 20 9 14 177 -4 95 -7 193 -8 218 l-1 46 -35 -4 c-19 -2 -35 0 -35 5 0 17 24 33 48 33 l23 0 -7 113 c-3 61 -11 116 -15 122 -10 10 -548 16 -661 8z m422 -33 c0 -5 -7 -10 -15 -10 -8 0 -15 5 -15 10 0 6 7 10 15 10 8 0 15 -4 15 -10z m97 -7 c6 -16 -30 -34 -46 -23 -21 12 -5 42 21 38 12 -2 23 -8 25 -15z m101 -46 c3 -13 -3 -17 -27 -17 -20 0 -31 5 -31 14 0 29 53 32 58 3z m-143 -7 c3 -5 -1 -10 -9 -10 -9 0 -16 5 -16 10 0 6 4 10 9 10 6 0 13 -4 16 -10z m-1 -29 c8 -12 -3 -41 -15 -41 -5 0 -9 11 -9 25 0 25 14 34 24 16z m180 -49 c2 -4 1 -14 -4 -22 -7 -11 -11 -11 -24 -1 -9 8 -16 17 -16 22 0 11 37 12 44 1z m-114 -67 c0 -9 7 -18 15 -21 20 -8 19 -33 -2 -56 -28 -31 -46 -23 -40 16 4 24 1 36 -9 40 -19 7 -6 36 17 36 10 0 19 -7 19 -15z m-460 -35 c0 -5 -7 -10 -15 -10 -8 0 -15 5 -15 10 0 6 7 10 15 10 8 0 15 -4 15 -10z m530 -50 c0 -11 -4 -20 -10 -20 -5 0 -10 2 -10 4 0 2 -3 11 -6 20 -4 11 -1 16 10 16 9 0 16 -8 16 -20z m-500 -10 c0 -5 -4 -10 -10 -10 -5 0 -10 5 -10 10 0 6 5 10 10 10 6 0 10 -4 10 -10z m480 -60 c0 -5 -4 -10 -10 -10 -5 0 -10 5 -10 10 0 6 5 10 10 10 6 0 10 -4 10 -10z m-560 -20 c0 -11 -4 -20 -10 -20 -5 0 -10 9 -10 20 0 11 5 20 10 20 6 0 10 -9 10 -20z m80 1 c0 -11 -5 -23 -10 -26 -6 -4 -8 -11 -4 -16 3 -5 10 -7 15 -4 5 4 12 -1 16 -10 3 -10 0 -21 -8 -26 -21 -13 -27 -11 -34 11 -3 11 -13 20 -21 20 -17 0 -18 24 -2 50 17 26 48 26 48 1z m244 -23 c15 -25 -17 -57 -42 -42 -22 14 -28 44 -10 55 18 12 39 7 52 -13z m196 -18 c0 -5 -7 -10 -15 -10 -8 0 -15 5 -15 10 0 6 7 10 15 10 8 0 15 -4 15 -10z m-526 -99 c8 -12 -21 -34 -34 -26 -17 11 -11 35 9 35 11 0 22 -4 25 -9z m184 -48 c-4 -22 -48 -31 -48 -10 0 19 10 27 32 27 13 0 18 -6 16 -17z m-120 -40 c-4 -22 -58 -31 -58 -10 0 20 10 27 37 27 18 0 24 -5 21 -17z m102 -28 c0 -20 -5 -25 -23 -25 -31 0 -38 9 -26 31 15 29 49 25 49 -6z m80 -5 c0 -5 -9 -10 -20 -10 -11 0 -20 5 -20 10 0 6 9 10 20 10 11 0 20 -4 20 -10z" transform="translate(0,92) scale(0.1,-0.1)" stroke="none" fill="#95B9DF"/>

</g>

<g id="4" transform="translate(352.0,0)scale(1,1)">

<path d="M683 753 c-26 -10 -13 -33 18 -33 24 0 30 4 27 17 -3 18 -24 26 -45 16z" transform="translate(0,92) scale(0.1,-0.1)" stroke="none" fill="#6097DD"/>

<path d="M147 193 c-17 -17 -6 -34 20 -31 36 4 45 38 10 38 -13 0 -27 -3 -30 -7z" transform="translate(0,92) scale(0.1,-0.1)" stroke="none" fill="#6097DD"/>

<path d="M251 161 c-12 -22 -5 -31 26 -31 18 0 23 5 23 25 0 31 -34 35 -49 6z" transform="translate(0,92) scale(0.1,-0.1)" stroke="none" fill="#6097DD"/>

<path d="M412 401 c-18 -11 -12 -41 10 -55 14 -8 22 -7 35 7 29 29 -10 71 -45 48z" transform="translate(0,92) scale(0.1,-0.1)" stroke="none" fill="#316AD4"/>

<path d="M172 410 c-16 -26 -15 -50 2 -50 8 0 18 -9 21 -20 7 -22 13 -24 34 -11 8 5 11 16 8 26 -4 9 -11 14 -16 10 -5 -3 -12 -1 -15 4 -4 5 -2 12 4 16 5 3 10 15 10 26 0 25 -31 25 -48 -1z m28 -10 c0 -5 -5 -10 -11 -10 -5 0 -7 5 -4 10 3 6 8 10 11 10 2 0 4 -4 4 -10z" transform="translate(0,92) scale(0.1,-0.1)" stroke="none" fill="#6097DD"/>

<path d="M606 585 c-3 -9 1 -18 8 -21 10 -4 13 -16 9 -40 -6 -39 12 -47 40 -16 21 23 22 48 2 56 -8 3 -15 12 -15 21 0 20 -36 20 -44 0z m44 -65 c0 -5 -5 -10 -11 -10 -5 0 -7 5 -4 10 3 6 8 10 11 10 2 0 4 -4 4 -10z" transform="translate(0,92) scale(0.1,-0.1)" stroke="none" fill="#6097DD"/>

<path d="M804 232 c1 -115 0 -123 -19 -127 -39 -8 -690 -14 -702 -7 -7 4 -14 34 -16 67 l-3 60 -2 -68 c-1 -48 2 -69 11 -73 17 -6 734 9 741 16 2 3 1 62 -3 130 l-9 125 2 -123z" transform="translate(0,92) scale(0.1,-0.1)" stroke="none" fill="#6097DD"/>

<path d="M56 833 c-18 -5 -18 -15 -10 -236 5 -128 8 -257 8 -287 -1 -35 1 -45 5 -27 3 16 17 33 31 40 14 7 25 19 25 27 0 9 -10 15 -25 15 l-25 0 -7 225 c-4 123 -5 226 -2 229 10 11 703 7 712 -4 5 -5 13 -61 16 -122 l7 -113 -23 0 c-24 0 -48 -16 -48 -33 0 -5 16 -7 35 -5 l34 4 4 -66 c2 -36 3 21 2 126 -2 121 -7 199 -14 212 -12 22 -13 22 -359 21 -191 -1 -355 -3 -366 -6z m714 -267 c0 -3 -4 -8 -10 -11 -5 -3 -10 -1 -10 4 0 6 5 11 10 11 6 0 10 -2 10 -4z" transform="translate(0,92) scale(0.1,-0.1)" stroke="none" fill="#6097DD"/>

<path d="M108 823 l-58 -4 7 -222 c3 -122 8 -224 10 -227 2 -2 14 -5 26 -5 31 0 27 -27 -6 -43 l-28 -14 7 -101 c4 -56 12 -105 18 -109 11 -7 663 0 701 7 19 4 20 9 14 177 -4 95 -7 193 -8 218 l-1 46 -35 -4 c-19 -2 -35 0 -35 5 0 17 24 33 48 33 l23 0 -7 113 c-3 61 -11 116 -15 122 -10 10 -548 16 -661 8z m422 -33 c0 -5 -7 -10 -15 -10 -8 0 -15 5 -15 10 0 6 7 10 15 10 8 0 15 -4 15 -10z m97 -7 c6 -16 -30 -34 -46 -23 -21 12 -5 42 21 38 12 -2 23 -8 25 -15z m101 -46 c3 -13 -3 -17 -27 -17 -20 0 -31 5 -31 14 0 29 53 32 58 3z m-143 -7 c3 -5 -1 -10 -9 -10 -9 0 -16 5 -16 10 0 6 4 10 9 10 6 0 13 -4 16 -10z m-1 -29 c8 -12 -3 -41 -15 -41 -5 0 -9 11 -9 25 0 25 14 34 24 16z m180 -49 c2 -4 1 -14 -4 -22 -7 -11 -11 -11 -24 -1 -9 8 -16 17 -16 22 0 11 37 12 44 1z m-114 -67 c0 -9 7 -18 15 -21 20 -8 19 -33 -2 -56 -28 -31 -46 -23 -40 16 4 24 1 36 -9 40 -19 7 -6 36 17 36 10 0 19 -7 19 -15z m-460 -35 c0 -5 -7 -10 -15 -10 -8 0 -15 5 -15 10 0 6 7 10 15 10 8 0 15 -4 15 -10z m530 -50 c0 -11 -4 -20 -10 -20 -5 0 -10 2 -10 4 0 2 -3 11 -6 20 -4 11 -1 16 10 16 9 0 16 -8 16 -20z m-500 -10 c0 -5 -4 -10 -10 -10 -5 0 -10 5 -10 10 0 6 5 10 10 10 6 0 10 -4 10 -10z m480 -60 c0 -5 -4 -10 -10 -10 -5 0 -10 5 -10 10 0 6 5 10 10 10 6 0 10 -4 10 -10z m-560 -20 c0 -11 -4 -20 -10 -20 -5 0 -10 9 -10 20 0 11 5 20 10 20 6 0 10 -9 10 -20z m80 1 c0 -11 -5 -23 -10 -26 -6 -4 -8 -11 -4 -16 3 -5 10 -7 15 -4 5 4 12 -1 16 -10 3 -10 0 -21 -8 -26 -21 -13 -27 -11 -34 11 -3 11 -13 20 -21 20 -17 0 -18 24 -2 50 17 26 48 26 48 1z m244 -23 c15 -25 -17 -57 -42 -42 -22 14 -28 44 -10 55 18 12 39 7 52 -13z m196 -18 c0 -5 -7 -10 -15 -10 -8 0 -15 5 -15 10 0 6 7 10 15 10 8 0 15 -4 15 -10z m-526 -99 c8 -12 -21 -34 -34 -26 -17 11 -11 35 9 35 11 0 22 -4 25 -9z m184 -48 c-4 -22 -48 -31 -48 -10 0 19 10 27 32 27 13 0 18 -6 16 -17z m-120 -40 c-4 -22 -58 -31 -58 -10 0 20 10 27 37 27 18 0 24 -5 21 -17z m102 -28 c0 -20 -5 -25 -23 -25 -31 0 -38 9 -26 31 15 29 49 25 49 -6z m80 -5 c0 -5 -9 -10 -20 -10 -11 0 -20 5 -20 10 0 6 9 10 20 10 11 0 20 -4 20 -10z" transform="translate(0,92) scale(0.1,-0.1)" stroke="none" fill="#95B9DF"/>

</g>

</g>
<g id="row2" transform="translate(11,184.0)">
<g id="0" transform="translate(0.0,0)scale(1,1)">

<path d="M683 753 c-26 -10 -13 -33 18 -33 24 0 30 4 27 17 -3 18 -24 26 -45 16z" transform="translate(0,92) scale(0.1,-0.1)" stroke="none" fill="#6097DD"/>

<path d="M147 193 c-17 -17 -6 -34 20 -31 36 4 45 38 10 38 -13 0 -27 -3 -30 -7z" transform="translate(0,92) scale(0.1,-0.1)" stroke="none" fill="#6097DD"/>

<path d="M251 161 c-12 -22 -5 -31 26 -31 18 0 23 5 23 25 0 31 -34 35 -49 6z" transform="translate(0,92) scale(0.1,-0.1)" stroke="none" fill="#6097DD"/>

<path d="M412 401 c-18 -11 -12 -41 10 -55 14 -8 22 -7 35 7 29 29 -10 71 -45 48z" transform="translate(0,92) scale(0.1,-0.1)" stroke="none" fill="#316AD4"/>

<path d="M172 410 c-16 -26 -15 -50 2 -50 8 0 18 -9 21 -20 7 -22 13 -24 34 -11 8 5 11 16 8 26 -4 9 -11 14 -16 10 -5 -3 -12 -1 -15 4 -4 5 -2 12 4 16 5 3 10 15 10 26 0 25 -31 25 -48 -1z m28 -10 c0 -5 -5 -10 -11 -10 -5 0 -7 5 -4 10 3 6 8 10 11 10 2 0 4 -4 4 -10z" transform="translate(0,92) scale(0.1,-0.1)" stroke="none" fill="#6097DD"/>

<path d="M606 585 c-3 -9 1 -18 8 -21 10 -4 13 -16 9 -40 -6 -39 12 -47 40 -16 21 23 22 48 2 56 -8 3 -15 12 -15 21 0 20 -36 20 -44 0z m44 -65 c0 -5 -5 -10 -11 -10 -5 0 -7 5 -4 10 3 6 8 10 11 10 2 0 4 -4 4 -10z" transform="translate(0,92) scale(0.1,-0.1)" stroke="none" fill="#6097DD"/>

<path d="M804 232 c1 -115 0 -123 -19 -127 -39 -8 -690 -14 -702 -7 -7 4 -14 34 -16 67 l-3 60 -2 -68 c-1 -48 2 -69 11 -73 17 -6 734 9 741 16 2 3 1 62 -3 130 l-9 125 2 -123z" transform="translate(0,92) scale(0.1,-0.1)" stroke="none" fill="#6097DD"/>

<path d="M56 833 c-18 -5 -18 -15 -10 -236 5 -128 8 -257 8 -287 -1 -35 1 -45 5 -27 3 16 17 33 31 40 14 7 25 19 25 27 0 9 -10 15 -25 15 l-25 0 -7 225 c-4 123 -5 226 -2 229 10 11 703 7 712 -4 5 -5 13 -61 16 -122 l7 -113 -23 0 c-24 0 -48 -16 -48 -33 0 -5 16 -7 35 -5 l34 4 4 -66 c2 -36 3 21 2 126 -2 121 -7 199 -14 212 -12 22 -13 22 -359 21 -191 -1 -355 -3 -366 -6z m714 -267 c0 -3 -4 -8 -10 -11 -5 -3 -10 -1 -10 4 0 6 5 11 10 11 6 0 10 -2 10 -4z" transform="translate(0,92) scale(0.1,-0.1)" stroke="none" fill="#6097DD"/>

<path d="M108 823 l-58 -4 7 -222 c3 -122 8 -224 10 -227 2 -2 14 -5 26 -5 31 0 27 -27 -6 -43 l-28 -14 7 -101 c4 -56 12 -105 18 -109 11 -7 663 0 701 7 19 4 20 9 14 177 -4 95 -7 193 -8 218 l-1 46 -35 -4 c-19 -2 -35 0 -35 5 0 17 24 33 48 33 l23 0 -7 113 c-3 61 -11 116 -15 122 -10 10 -548 16 -661 8z m422 -33 c0 -5 -7 -10 -15 -10 -8 0 -15 5 -15 10 0 6 7 10 15 10 8 0 15 -4 15 -10z m97 -7 c6 -16 -30 -34 -46 -23 -21 12 -5 42 21 38 12 -2 23 -8 25 -15z m101 -46 c3 -13 -3 -17 -27 -17 -20 0 -31 5 -31 14 0 29 53 32 58 3z m-143 -7 c3 -5 -1 -10 -9 -10 -9 0 -16 5 -16 10 0 6 4 10 9 10 6 0 13 -4 16 -10z m-1 -29 c8 -12 -3 -41 -15 -41 -5 0 -9 11 -9 25 0 25 14 34 24 16z m180 -49 c2 -4 1 -14 -4 -22 -7 -11 -11 -11 -24 -1 -9 8 -16 17 -16 22 0 11 37 12 44 1z m-114 -67 c0 -9 7 -18 15 -21 20 -8 19 -33 -2 -56 -28 -31 -46 -23 -40 16 4 24 1 36 -9 40 -19 7 -6 36 17 36 10 0 19 -7 19 -15z m-460 -35 c0 -5 -7 -10 -15 -10 -8 0 -15 5 -15 10 0 6 7 10 15 10 8 0 15 -4 15 -10z m530 -50 c0 -11 -4 -20 -10 -20 -5 0 -10 2 -10 4 0 2 -3 11 -6 20 -4 11 -1 16 10 16 9 0 16 -8 16 -20z m-500 -10 c0 -5 -4 -10 -10 -10 -5 0 -10 5 -10 10 0 6 5 10 10 10 6 0 10 -4 10 -10z m480 -60 c0 -5 -4 -10 -10 -10 -5 0 -10 5 -10 10 0 6 5 10 10 10 6 0 10 -4 10 -10z m-560 -20 c0 -11 -4 -20 -10 -20 -5 0 -10 9 -10 20 0 11 5 20 10 20 6 0 10 -9 10 -20z m80 1 c0 -11 -5 -23 -10 -26 -6 -4 -8 -11 -4 -16 3 -5 10 -7 15 -4 5 4 12 -1 16 -10 3 -10 0 -21 -8 -26 -21 -13 -27 -11 -34 11 -3 11 -13 20 -21 20 -17 0 -18 24 -2 50 17 26 48 26 48 1z m244 -23 c15 -25 -17 -57 -42 -42 -22 14 -28 44 -10 55 18 12 39 7 52 -13z m196 -18 c0 -5 -7 -10 -15 -10 -8 0 -15 5 -15 10 0 6 7 10 15 10 8 0 15 -4 15 -10z m-526 -99 c8 -12 -21 -34 -34 -26 -17 11 -11 35 9 35 11 0 22 -4 25 -9z m184 -48 c-4 -22 -48 -31 -48 -10 0 19 10 27 32 27 13 0 18 -6 16 -17z m-120 -40 c-4 -22 -58 -31 -58 -10 0 20 10 27 37 27 18 0 24 -5 21 -17z m102 -28 c0 -20 -5 -25 -23 -25 -31 0 -38 9 -26 31 15 29 49 25 49 -6z m80 -5 c0 -5 -9 -10 -20 -10 -11 0 -20 5 -20 10 0 6 9 10 20 10 11 0 20 -4 20 -10z" transform="translate(0,92) scale(0.1,-0.1)" stroke="none" fill="#95B9DF"/>

</g>

<g id="1" transform="translate(88.0,0)scale(1,1)">

<path d="M683 753 c-26 -10 -13 -33 18 -33 24 0 30 4 27 17 -3 18 -24 26 -45 16z" transform="translate(0,92) scale(0.1,-0.1)" stroke="none" fill="#6097DD"/>

<path d="M147 193 c-17 -17 -6 -34 20 -31 36 4 45 38 10 38 -13 0 -27 -3 -30 -7z" transform="translate(0,92) scale(0.1,-0.1)" stroke="none" fill="#6097DD"/>

<path d="M251 161 c-12 -22 -5 -31 26 -31 18 0 23 5 23 25 0 31 -34 35 -49 6z" transform="translate(0,92) scale(0.1,-0.1)" stroke="none" fill="#6097DD"/>

<path d="M412 401 c-18 -11 -12 -41 10 -55 14 -8 22 -7 35 7 29 29 -10 71 -45 48z" transform="translate(0,92) scale(0.1,-0.1)" stroke="none" fill="#316AD4"/>

<path d="M172 410 c-16 -26 -15 -50 2 -50 8 0 18 -9 21 -20 7 -22 13 -24 34 -11 8 5 11 16 8 26 -4 9 -11 14 -16 10 -5 -3 -12 -1 -15 4 -4 5 -2 12 4 16 5 3 10 15 10 26 0 25 -31 25 -48 -1z m28 -10 c0 -5 -5 -10 -11 -10 -5 0 -7 5 -4 10 3 6 8 10 11 10 2 0 4 -4 4 -10z" transform="translate(0,92) scale(0.1,-0.1)" stroke="none" fill="#6097DD"/>

<path d="M606 585 c-3 -9 1 -18 8 -21 10 -4 13 -16 9 -40 -6 -39 12 -47 40 -16 21 23 22 48 2 56 -8 3 -15 12 -15 21 0 20 -36 20 -44 0z m44 -65 c0 -5 -5 -10 -11 -10 -5 0 -7 5 -4 10 3 6 8 10 11 10 2 0 4 -4 4 -10z" transform="translate(0,92) scale(0.1,-0.1)" stroke="none" fill="#6097DD"/>

<path d="M804 232 c1 -115 0 -123 -19 -127 -39 -8 -690 -14 -702 -7 -7 4 -14 34 -16 67 l-3 60 -2 -68 c-1 -48 2 -69 11 -73 17 -6 734 9 741 16 2 3 1 62 -3 130 l-9 125 2 -123z" transform="translate(0,92) scale(0.1,-0.1)" stroke="none" fill="#6097DD"/>

<path d="M56 833 c-18 -5 -18 -15 -10 -236 5 -128 8 -257 8 -287 -1 -35 1 -45 5 -27 3 16 17 33 31 40 14 7 25 19 25 27 0 9 -10 15 -25 15 l-25 0 -7 225 c-4 123 -5 226 -2 229 10 11 703 7 712 -4 5 -5 13 -61 16 -122 l7 -113 -23 0 c-24 0 -48 -16 -48 -33 0 -5 16 -7 35 -5 l34 4 4 -66 c2 -36 3 21 2 126 -2 121 -7 199 -14 212 -12 22 -13 22 -359 21 -191 -1 -355 -3 -366 -6z m714 -267 c0 -3 -4 -8 -10 -11 -5 -3 -10 -1 -10 4 0 6 5 11 10 11 6 0 10 -2 10 -4z" transform="translate(0,92) scale(0.1,-0.1)" stroke="none" fill="#6097DD"/>

<path d="M108 823 l-58 -4 7 -222 c3 -122 8 -224 10 -227 2 -2 14 -5 26 -5 31 0 27 -27 -6 -43 l-28 -14 7 -101 c4 -56 12 -105 18 -109 11 -7 663 0 701 7 19 4 20 9 14 177 -4 95 -7 193 -8 218 l-1 46 -35 -4 c-19 -2 -35 0 -35 5 0 17 24 33 48 33 l23 0 -7 113 c-3 61 -11 116 -15 122 -10 10 -548 16 -661 8z m422 -33 c0 -5 -7 -10 -15 -10 -8 0 -15 5 -15 10 0 6 7 10 15 10 8 0 15 -4 15 -10z m97 -7 c6 -16 -30 -34 -46 -23 -21 12 -5 42 21 38 12 -2 23 -8 25 -15z m101 -46 c3 -13 -3 -17 -27 -17 -20 0 -31 5 -31 14 0 29 53 32 58 3z m-143 -7 c3 -5 -1 -10 -9 -10 -9 0 -16 5 -16 10 0 6 4 10 9 10 6 0 13 -4 16 -10z m-1 -29 c8 -12 -3 -41 -15 -41 -5 0 -9 11 -9 25 0 25 14 34 24 16z m180 -49 c2 -4 1 -14 -4 -22 -7 -11 -11 -11 -24 -1 -9 8 -16 17 -16 22 0 11 37 12 44 1z m-114 -67 c0 -9 7 -18 15 -21 20 -8 19 -33 -2 -56 -28 -31 -46 -23 -40 16 4 24 1 36 -9 40 -19 7 -6 36 17 36 10 0 19 -7 19 -15z m-460 -35 c0 -5 -7 -10 -15 -10 -8 0 -15 5 -15 10 0 6 7 10 15 10 8 0 15 -4 15 -10z m530 -50 c0 -11 -4 -20 -10 -20 -5 0 -10 2 -10 4 0 2 -3 11 -6 20 -4 11 -1 16 10 16 9 0 16 -8 16 -20z m-500 -10 c0 -5 -4 -10 -10 -10 -5 0 -10 5 -10 10 0 6 5 10 10 10 6 0 10 -4 10 -10z m480 -60 c0 -5 -4 -10 -10 -10 -5 0 -10 5 -10 10 0 6 5 10 10 10 6 0 10 -4 10 -10z m-560 -20 c0 -11 -4 -20 -10 -20 -5 0 -10 9 -10 20 0 11 5 20 10 20 6 0 10 -9 10 -20z m80 1 c0 -11 -5 -23 -10 -26 -6 -4 -8 -11 -4 -16 3 -5 10 -7 15 -4 5 4 12 -1 16 -10 3 -10 0 -21 -8 -26 -21 -13 -27 -11 -34 11 -3 11 -13 20 -21 20 -17 0 -18 24 -2 50 17 26 48 26 48 1z m244 -23 c15 -25 -17 -57 -42 -42 -22 14 -28 44 -10 55 18 12 39 7 52 -13z m196 -18 c0 -5 -7 -10 -15 -10 -8 0 -15 5 -15 10 0 6 7 10 15 10 8 0 15 -4 15 -10z m-526 -99 c8 -12 -21 -34 -34 -26 -17 11 -11 35 9 35 11 0 22 -4 25 -9z m184 -48 c-4 -22 -48 -31 -48 -10 0 19 10 27 32 27 13 0 18 -6 16 -17z m-120 -40 c-4 -22 -58 -31 -58 -10 0 20 10 27 37 27 18 0 24 -5 21 -17z m102 -28 c0 -20 -5 -25 -23 -25 -31 0 -38 9 -26 31 15 29 49 25 49 -6z m80 -5 c0 -5 -9 -10 -20 -10 -11 0 -20 5 -20 10 0 6 9 10 20 10 11 0 20 -4 20 -10z" transform="translate(0,92) scale(0.1,-0.1)" stroke="none" fill="#95B9DF"/>

</g>

<g id="2" transform="translate(176.0,0)scale(1,1)">

<path d="M683 753 c-26 -10 -13 -33 18 -33 24 0 30 4 27 17 -3 18 -24 26 -45 16z" transform="translate(0,92) scale(0.1,-0.1)" stroke="none" fill="#6097DD"/>

<path d="M147 193 c-17 -17 -6 -34 20 -31 36 4 45 38 10 38 -13 0 -27 -3 -30 -7z" transform="translate(0,92) scale(0.1,-0.1)" stroke="none" fill="#6097DD"/>

<path d="M251 161 c-12 -22 -5 -31 26 -31 18 0 23 5 23 25 0 31 -34 35 -49 6z" transform="translate(0,92) scale(0.1,-0.1)" stroke="none" fill="#6097DD"/>

<path d="M412 401 c-18 -11 -12 -41 10 -55 14 -8 22 -7 35 7 29 29 -10 71 -45 48z" transform="translate(0,92) scale(0.1,-0.1)" stroke="none" fill="#316AD4"/>

<path d="M172 410 c-16 -26 -15 -50 2 -50 8 0 18 -9 21 -20 7 -22 13 -24 34 -11 8 5 11 16 8 26 -4 9 -11 14 -16 10 -5 -3 -12 -1 -15 4 -4 5 -2 12 4 16 5 3 10 15 10 26 0 25 -31 25 -48 -1z m28 -10 c0 -5 -5 -10 -11 -10 -5 0 -7 5 -4 10 3 6 8 10 11 10 2 0 4 -4 4 -10z" transform="translate(0,92) scale(0.1,-0.1)" stroke="none" fill="#6097DD"/>

<path d="M606 585 c-3 -9 1 -18 8 -21 10 -4 13 -16 9 -40 -6 -39 12 -47 40 -16 21 23 22 48 2 56 -8 3 -15 12 -15 21 0 20 -36 20 -44 0z m44 -65 c0 -5 -5 -10 -11 -10 -5 0 -7 5 -4 10 3 6 8 10 11 10 2 0 4 -4 4 -10z" transform="translate(0,92) scale(0.1,-0.1)" stroke="none" fill="#6097DD"/>

<path d="M804 232 c1 -115 0 -123 -19 -127 -39 -8 -690 -14 -702 -7 -7 4 -14 34 -16 67 l-3 60 -2 -68 c-1 -48 2 -69 11 -73 17 -6 734 9 741 16 2 3 1 62 -3 130 l-9 125 2 -123z" transform="translate(0,92) scale(0.1,-0.1)" stroke="none" fill="#6097DD"/>

<path d="M56 833 c-18 -5 -18 -15 -10 -236 5 -128 8 -257 8 -287 -1 -35 1 -45 5 -27 3 16 17 33 31 40 14 7 25 19 25 27 0 9 -10 15 -25 15 l-25 0 -7 225 c-4 123 -5 226 -2 229 10 11 703 7 712 -4 5 -5 13 -61 16 -122 l7 -113 -23 0 c-24 0 -48 -16 -48 -33 0 -5 16 -7 35 -5 l34 4 4 -66 c2 -36 3 21 2 126 -2 121 -7 199 -14 212 -12 22 -13 22 -359 21 -191 -1 -355 -3 -366 -6z m714 -267 c0 -3 -4 -8 -10 -11 -5 -3 -10 -1 -10 4 0 6 5 11 10 11 6 0 10 -2 10 -4z" transform="translate(0,92) scale(0.1,-0.1)" stroke="none" fill="#6097DD"/>

<path d="M108 823 l-58 -4 7 -222 c3 -122 8 -224 10 -227 2 -2 14 -5 26 -5 31 0 27 -27 -6 -43 l-28 -14 7 -101 c4 -56 12 -105 18 -109 11 -7 663 0 701 7 19 4 20 9 14 177 -4 95 -7 193 -8 218 l-1 46 -35 -4 c-19 -2 -35 0 -35 5 0 17 24 33 48 33 l23 0 -7 113 c-3 61 -11 116 -15 122 -10 10 -548 16 -661 8z m422 -33 c0 -5 -7 -10 -15 -10 -8 0 -15 5 -15 10 0 6 7 10 15 10 8 0 15 -4 15 -10z m97 -7 c6 -16 -30 -34 -46 -23 -21 12 -5 42 21 38 12 -2 23 -8 25 -15z m101 -46 c3 -13 -3 -17 -27 -17 -20 0 -31 5 -31 14 0 29 53 32 58 3z m-143 -7 c3 -5 -1 -10 -9 -10 -9 0 -16 5 -16 10 0 6 4 10 9 10 6 0 13 -4 16 -10z m-1 -29 c8 -12 -3 -41 -15 -41 -5 0 -9 11 -9 25 0 25 14 34 24 16z m180 -49 c2 -4 1 -14 -4 -22 -7 -11 -11 -11 -24 -1 -9 8 -16 17 -16 22 0 11 37 12 44 1z m-114 -67 c0 -9 7 -18 15 -21 20 -8 19 -33 -2 -56 -28 -31 -46 -23 -40 16 4 24 1 36 -9 40 -19 7 -6 36 17 36 10 0 19 -7 19 -15z m-460 -35 c0 -5 -7 -10 -15 -10 -8 0 -15 5 -15 10 0 6 7 10 15 10 8 0 15 -4 15 -10z m530 -50 c0 -11 -4 -20 -10 -20 -5 0 -10 2 -10 4 0 2 -3 11 -6 20 -4 11 -1 16 10 16 9 0 16 -8 16 -20z m-500 -10 c0 -5 -4 -10 -10 -10 -5 0 -10 5 -10 10 0 6 5 10 10 10 6 0 10 -4 10 -10z m480 -60 c0 -5 -4 -10 -10 -10 -5 0 -10 5 -10 10 0 6 5 10 10 10 6 0 10 -4 10 -10z m-560 -20 c0 -11 -4 -20 -10 -20 -5 0 -10 9 -10 20 0 11 5 20 10 20 6 0 10 -9 10 -20z m80 1 c0 -11 -5 -23 -10 -26 -6 -4 -8 -11 -4 -16 3 -5 10 -7 15 -4 5 4 12 -1 16 -10 3 -10 0 -21 -8 -26 -21 -13 -27 -11 -34 11 -3 11 -13 20 -21 20 -17 0 -18 24 -2 50 17 26 48 26 48 1z m244 -23 c15 -25 -17 -57 -42 -42 -22 14 -28 44 -10 55 18 12 39 7 52 -13z m196 -18 c0 -5 -7 -10 -15 -10 -8 0 -15 5 -15 10 0 6 7 10 15 10 8 0 15 -4 15 -10z m-526 -99 c8 -12 -21 -34 -34 -26 -17 11 -11 35 9 35 11 0 22 -4 25 -9z m184 -48 c-4 -22 -48 -31 -48 -10 0 19 10 27 32 27 13 0 18 -6 16 -17z m-120 -40 c-4 -22 -58 -31 -58 -10 0 20 10 27 37 27 18 0 24 -5 21 -17z m102 -28 c0 -20 -5 -25 -23 -25 -31 0 -38 9 -26 31 15 29 49 25 49 -6z m80 -5 c0 -5 -9 -10 -20 -10 -11 0 -20 5 -20 10 0 6 9 10 20 10 11 0 20 -4 20 -10z" transform="translate(0,92) scale(0.1,-0.1)" stroke="none" fill="#95B9DF"/>

</g>

<g id="3" transform="translate(264.0,0)scale(1,1)">

<path d="M683 753 c-26 -10 -13 -33 18 -33 24 0 30 4 27 17 -3 18 -24 26 -45 16z" transform="translate(0,92) scale(0.1,-0.1)" stroke="none" fill="#6097DD"/>

<path d="M147 193 c-17 -17 -6 -34 20 -31 36 4 45 38 10 38 -13 0 -27 -3 -30 -7z" transform="translate(0,92) scale(0.1,-0.1)" stroke="none" fill="#6097DD"/>

<path d="M251 161 c-12 -22 -5 -31 26 -31 18 0 23 5 23 25 0 31 -34 35 -49 6z" transform="translate(0,92) scale(0.1,-0.1)" stroke="none" fill="#6097DD"/>

<path d="M412 401 c-18 -11 -12 -41 10 -55 14 -8 22 -7 35 7 29 29 -10 71 -45 48z" transform="translate(0,92) scale(0.1,-0.1)" stroke="none" fill="#316AD4"/>

<path d="M172 410 c-16 -26 -15 -50 2 -50 8 0 18 -9 21 -20 7 -22 13 -24 34 -11 8 5 11 16 8 26 -4 9 -11 14 -16 10 -5 -3 -12 -1 -15 4 -4 5 -2 12 4 16 5 3 10 15 10 26 0 25 -31 25 -48 -1z m28 -10 c0 -5 -5 -10 -11 -10 -5 0 -7 5 -4 10 3 6 8 10 11 10 2 0 4 -4 4 -10z" transform="translate(0,92) scale(0.1,-0.1)" stroke="none" fill="#6097DD"/>

<path d="M606 585 c-3 -9 1 -18 8 -21 10 -4 13 -16 9 -40 -6 -39 12 -47 40 -16 21 23 22 48 2 56 -8 3 -15 12 -15 21 0 20 -36 20 -44 0z m44 -65 c0 -5 -5 -10 -11 -10 -5 0 -7 5 -4 10 3 6 8 10 11 10 2 0 4 -4 4 -10z" transform="translate(0,92) scale(0.1,-0.1)" stroke="none" fill="#6097DD"/>

<path d="M804 232 c1 -115 0 -123 -19 -127 -39 -8 -690 -14 -702 -7 -7 4 -14 34 -16 67 l-3 60 -2 -68 c-1 -48 2 -69 11 -73 17 -6 734 9 741 16 2 3 1 62 -3 130 l-9 125 2 -123z" transform="translate(0,92) scale(0.1,-0.1)" stroke="none" fill="#6097DD"/>

<path d="M56 833 c-18 -5 -18 -15 -10 -236 5 -128 8 -257 8 -287 -1 -35 1 -45 5 -27 3 16 17 33 31 40 14 7 25 19 25 27 0 9 -10 15 -25 15 l-25 0 -7 225 c-4 123 -5 226 -2 229 10 11 703 7 712 -4 5 -5 13 -61 16 -122 l7 -113 -23 0 c-24 0 -48 -16 -48 -33 0 -5 16 -7 35 -5 l34 4 4 -66 c2 -36 3 21 2 126 -2 121 -7 199 -14 212 -12 22 -13 22 -359 21 -191 -1 -355 -3 -366 -6z m714 -267 c0 -3 -4 -8 -10 -11 -5 -3 -10 -1 -10 4 0 6 5 11 10 11 6 0 10 -2 10 -4z" transform="translate(0,92) scale(0.1,-0.1)" stroke="none" fill="#6097DD"/>

<path d="M108 823 l-58 -4 7 -222 c3 -122 8 -224 10 -227 2 -2 14 -5 26 -5 31 0 27 -27 -6 -43 l-28 -14 7 -101 c4 -56 12 -105 18 -109 11 -7 663 0 701 7 19 4 20 9 14 177 -4 95 -7 193 -8 218 l-1 46 -35 -4 c-19 -2 -35 0 -35 5 0 17 24 33 48 33 l23 0 -7 113 c-3 61 -11 116 -15 122 -10 10 -548 16 -661 8z m422 -33 c0 -5 -7 -10 -15 -10 -8 0 -15 5 -15 10 0 6 7 10 15 10 8 0 15 -4 15 -10z m97 -7 c6 -16 -30 -34 -46 -23 -21 12 -5 42 21 38 12 -2 23 -8 25 -15z m101 -46 c3 -13 -3 -17 -27 -17 -20 0 -31 5 -31 14 0 29 53 32 58 3z m-143 -7 c3 -5 -1 -10 -9 -10 -9 0 -16 5 -16 10 0 6 4 10 9 10 6 0 13 -4 16 -10z m-1 -29 c8 -12 -3 -41 -15 -41 -5 0 -9 11 -9 25 0 25 14 34 24 16z m180 -49 c2 -4 1 -14 -4 -22 -7 -11 -11 -11 -24 -1 -9 8 -16 17 -16 22 0 11 37 12 44 1z m-114 -67 c0 -9 7 -18 15 -21 20 -8 19 -33 -2 -56 -28 -31 -46 -23 -40 16 4 24 1 36 -9 40 -19 7 -6 36 17 36 10 0 19 -7 19 -15z m-460 -35 c0 -5 -7 -10 -15 -10 -8 0 -15 5 -15 10 0 6 7 10 15 10 8 0 15 -4 15 -10z m530 -50 c0 -11 -4 -20 -10 -20 -5 0 -10 2 -10 4 0 2 -3 11 -6 20 -4 11 -1 16 10 16 9 0 16 -8 16 -20z m-500 -10 c0 -5 -4 -10 -10 -10 -5 0 -10 5 -10 10 0 6 5 10 10 10 6 0 10 -4 10 -10z m480 -60 c0 -5 -4 -10 -10 -10 -5 0 -10 5 -10 10 0 6 5 10 10 10 6 0 10 -4 10 -10z m-560 -20 c0 -11 -4 -20 -10 -20 -5 0 -10 9 -10 20 0 11 5 20 10 20 6 0 10 -9 10 -20z m80 1 c0 -11 -5 -23 -10 -26 -6 -4 -8 -11 -4 -16 3 -5 10 -7 15 -4 5 4 12 -1 16 -10 3 -10 0 -21 -8 -26 -21 -13 -27 -11 -34 11 -3 11 -13 20 -21 20 -17 0 -18 24 -2 50 17 26 48 26 48 1z m244 -23 c15 -25 -17 -57 -42 -42 -22 14 -28 44 -10 55 18 12 39 7 52 -13z m196 -18 c0 -5 -7 -10 -15 -10 -8 0 -15 5 -15 10 0 6 7 10 15 10 8 0 15 -4 15 -10z m-526 -99 c8 -12 -21 -34 -34 -26 -17 11 -11 35 9 35 11 0 22 -4 25 -9z m184 -48 c-4 -22 -48 -31 -48 -10 0 19 10 27 32 27 13 0 18 -6 16 -17z m-120 -40 c-4 -22 -58 -31 -58 -10 0 20 10 27 37 27 18 0 24 -5 21 -17z m102 -28 c0 -20 -5 -25 -23 -25 -31 0 -38 9 -26 31 15 29 49 25 49 -6z m80 -5 c0 -5 -9 -10 -20 -10 -11 0 -20 5 -20 10 0 6 9 10 20 10 11 0 20 -4 20 -10z" transform="translate(0,92) scale(0.1,-0.1)" stroke="none" fill="#95B9DF"/>

</g>

<g id="4" transform="translate(352.0,0)scale(1,1)">

<path d="M683 753 c-26 -10 -13 -33 18 -33 24 0 30 4 27 17 -3 18 -24 26 -45 16z" transform="translate(0,92) scale(0.1,-0.1)" stroke="none" fill="#6097DD"/>

<path d="M147 193 c-17 -17 -6 -34 20 -31 36 4 45 38 10 38 -13 0 -27 -3 -30 -7z" transform="translate(0,92) scale(0.1,-0.1)" stroke="none" fill="#6097DD"/>

<path d="M251 161 c-12 -22 -5 -31 26 -31 18 0 23 5 23 25 0 31 -34 35 -49 6z" transform="translate(0,92) scale(0.1,-0.1)" stroke="none" fill="#6097DD"/>

<path d="M412 401 c-18 -11 -12 -41 10 -55 14 -8 22 -7 35 7 29 29 -10 71 -45 48z" transform="translate(0,92) scale(0.1,-0.1)" stroke="none" fill="#316AD4"/>

<path d="M172 410 c-16 -26 -15 -50 2 -50 8 0 18 -9 21 -20 7 -22 13 -24 34 -11 8 5 11 16 8 26 -4 9 -11 14 -16 10 -5 -3 -12 -1 -15 4 -4 5 -2 12 4 16 5 3 10 15 10 26 0 25 -31 25 -48 -1z m28 -10 c0 -5 -5 -10 -11 -10 -5 0 -7 5 -4 10 3 6 8 10 11 10 2 0 4 -4 4 -10z" transform="translate(0,92) scale(0.1,-0.1)" stroke="none" fill="#6097DD"/>

<path d="M606 585 c-3 -9 1 -18 8 -21 10 -4 13 -16 9 -40 -6 -39 12 -47 40 -16 21 23 22 48 2 56 -8 3 -15 12 -15 21 0 20 -36 20 -44 0z m44 -65 c0 -5 -5 -10 -11 -10 -5 0 -7 5 -4 10 3 6 8 10 11 10 2 0 4 -4 4 -10z" transform="translate(0,92) scale(0.1,-0.1)" stroke="none" fill="#6097DD"/>

<path d="M804 232 c1 -115 0 -123 -19 -127 -39 -8 -690 -14 -702 -7 -7 4 -14 34 -16 67 l-3 60 -2 -68 c-1 -48 2 -69 11 -73 17 -6 734 9 741 16 2 3 1 62 -3 130 l-9 125 2 -123z" transform="translate(0,92) scale(0.1,-0.1)" stroke="none" fill="#6097DD"/>

<path d="M56 833 c-18 -5 -18 -15 -10 -236 5 -128 8 -257 8 -287 -1 -35 1 -45 5 -27 3 16 17 33 31 40 14 7 25 19 25 27 0 9 -10 15 -25 15 l-25 0 -7 225 c-4 123 -5 226 -2 229 10 11 703 7 712 -4 5 -5 13 -61 16 -122 l7 -113 -23 0 c-24 0 -48 -16 -48 -33 0 -5 16 -7 35 -5 l34 4 4 -66 c2 -36 3 21 2 126 -2 121 -7 199 -14 212 -12 22 -13 22 -359 21 -191 -1 -355 -3 -366 -6z m714 -267 c0 -3 -4 -8 -10 -11 -5 -3 -10 -1 -10 4 0 6 5 11 10 11 6 0 10 -2 10 -4z" transform="translate(0,92) scale(0.1,-0.1)" stroke="none" fill="#6097DD"/>

<path d="M108 823 l-58 -4 7 -222 c3 -122 8 -224 10 -227 2 -2 14 -5 26 -5 31 0 27 -27 -6 -43 l-28 -14 7 -101 c4 -56 12 -105 18 -109 11 -7 663 0 701 7 19 4 20 9 14 177 -4 95 -7 193 -8 218 l-1 46 -35 -4 c-19 -2 -35 0 -35 5 0 17 24 33 48 33 l23 0 -7 113 c-3 61 -11 116 -15 122 -10 10 -548 16 -661 8z m422 -33 c0 -5 -7 -10 -15 -10 -8 0 -15 5 -15 10 0 6 7 10 15 10 8 0 15 -4 15 -10z m97 -7 c6 -16 -30 -34 -46 -23 -21 12 -5 42 21 38 12 -2 23 -8 25 -15z m101 -46 c3 -13 -3 -17 -27 -17 -20 0 -31 5 -31 14 0 29 53 32 58 3z m-143 -7 c3 -5 -1 -10 -9 -10 -9 0 -16 5 -16 10 0 6 4 10 9 10 6 0 13 -4 16 -10z m-1 -29 c8 -12 -3 -41 -15 -41 -5 0 -9 11 -9 25 0 25 14 34 24 16z m180 -49 c2 -4 1 -14 -4 -22 -7 -11 -11 -11 -24 -1 -9 8 -16 17 -16 22 0 11 37 12 44 1z m-114 -67 c0 -9 7 -18 15 -21 20 -8 19 -33 -2 -56 -28 -31 -46 -23 -40 16 4 24 1 36 -9 40 -19 7 -6 36 17 36 10 0 19 -7 19 -15z m-460 -35 c0 -5 -7 -10 -15 -10 -8 0 -15 5 -15 10 0 6 7 10 15 10 8 0 15 -4 15 -10z m530 -50 c0 -11 -4 -20 -10 -20 -5 0 -10 2 -10 4 0 2 -3 11 -6 20 -4 11 -1 16 10 16 9 0 16 -8 16 -20z m-500 -10 c0 -5 -4 -10 -10 -10 -5 0 -10 5 -10 10 0 6 5 10 10 10 6 0 10 -4 10 -10z m480 -60 c0 -5 -4 -10 -10 -10 -5 0 -10 5 -10 10 0 6 5 10 10 10 6 0 10 -4 10 -10z m-560 -20 c0 -11 -4 -20 -10 -20 -5 0 -10 9 -10 20 0 11 5 20 10 20 6 0 10 -9 10 -20z m80 1 c0 -11 -5 -23 -10 -26 -6 -4 -8 -11 -4 -16 3 -5 10 -7 15 -4 5 4 12 -1 16 -10 3 -10 0 -21 -8 -26 -21 -13 -27 -11 -34 11 -3 11 -13 20 -21 20 -17 0 -18 24 -2 50 17 26 48 26 48 1z m244 -23 c15 -25 -17 -57 -42 -42 -22 14 -28 44 -10 55 18 12 39 7 52 -13z m196 -18 c0 -5 -7 -10 -15 -10 -8 0 -15 5 -15 10 0 6 7 10 15 10 8 0 15 -4 15 -10z m-526 -99 c8 -12 -21 -34 -34 -26 -17 11 -11 35 9 35 11 0 22 -4 25 -9z m184 -48 c-4 -22 -48 -31 -48 -10 0 19 10 27 32 27 13 0 18 -6 16 -17z m-120 -40 c-4 -22 -58 -31 -58 -10 0 20 10 27 37 27 18 0 24 -5 21 -17z m102 -28 c0 -20 -5 -25 -23 -25 -31 0 -38 9 -26 31 15 29 49 25 49 -6z m80 -5 c0 -5 -9 -10 -20 -10 -11 0 -20 5 -20 10 0 6 9 10 20 10 11 0 20 -4 20 -10z" transform="translate(0,92) scale(0.1,-0.1)" stroke="none" fill="#95B9DF"/>

</g>

</g>
<g id="row3" transform="translate(11,276.0)">
<g id="0" transform="translate(0.0,0)scale(1,1)">

<path d="M683 753 c-26 -10 -13 -33 18 -33 24 0 30 4 27 17 -3 18 -24 26 -45 16z" transform="translate(0,92) scale(0.1,-0.1)" stroke="none" fill="#6097DD"/>

<path d="M147 193 c-17 -17 -6 -34 20 -31 36 4 45 38 10 38 -13 0 -27 -3 -30 -7z" transform="translate(0,92) scale(0.1,-0.1)" stroke="none" fill="#6097DD"/>

<path d="M251 161 c-12 -22 -5 -31 26 -31 18 0 23 5 23 25 0 31 -34 35 -49 6z" transform="translate(0,92) scale(0.1,-0.1)" stroke="none" fill="#6097DD"/>

<path d="M412 401 c-18 -11 -12 -41 10 -55 14 -8 22 -7 35 7 29 29 -10 71 -45 48z" transform="translate(0,92) scale(0.1,-0.1)" stroke="none" fill="#316AD4"/>

<path d="M172 410 c-16 -26 -15 -50 2 -50 8 0 18 -9 21 -20 7 -22 13 -24 34 -11 8 5 11 16 8 26 -4 9 -11 14 -16 10 -5 -3 -12 -1 -15 4 -4 5 -2 12 4 16 5 3 10 15 10 26 0 25 -31 25 -48 -1z m28 -10 c0 -5 -5 -10 -11 -10 -5 0 -7 5 -4 10 3 6 8 10 11 10 2 0 4 -4 4 -10z" transform="translate(0,92) scale(0.1,-0.1)" stroke="none" fill="#6097DD"/>

<path d="M606 585 c-3 -9 1 -18 8 -21 10 -4 13 -16 9 -40 -6 -39 12 -47 40 -16 21 23 22 48 2 56 -8 3 -15 12 -15 21 0 20 -36 20 -44 0z m44 -65 c0 -5 -5 -10 -11 -10 -5 0 -7 5 -4 10 3 6 8 10 11 10 2 0 4 -4 4 -10z" transform="translate(0,92) scale(0.1,-0.1)" stroke="none" fill="#6097DD"/>

<path d="M804 232 c1 -115 0 -123 -19 -127 -39 -8 -690 -14 -702 -7 -7 4 -14 34 -16 67 l-3 60 -2 -68 c-1 -48 2 -69 11 -73 17 -6 734 9 741 16 2 3 1 62 -3 130 l-9 125 2 -123z" transform="translate(0,92) scale(0.1,-0.1)" stroke="none" fill="#6097DD"/>

<path d="M56 833 c-18 -5 -18 -15 -10 -236 5 -128 8 -257 8 -287 -1 -35 1 -45 5 -27 3 16 17 33 31 40 14 7 25 19 25 27 0 9 -10 15 -25 15 l-25 0 -7 225 c-4 123 -5 226 -2 229 10 11 703 7 712 -4 5 -5 13 -61 16 -122 l7 -113 -23 0 c-24 0 -48 -16 -48 -33 0 -5 16 -7 35 -5 l34 4 4 -66 c2 -36 3 21 2 126 -2 121 -7 199 -14 212 -12 22 -13 22 -359 21 -191 -1 -355 -3 -366 -6z m714 -267 c0 -3 -4 -8 -10 -11 -5 -3 -10 -1 -10 4 0 6 5 11 10 11 6 0 10 -2 10 -4z" transform="translate(0,92) scale(0.1,-0.1)" stroke="none" fill="#6097DD"/>

<path d="M108 823 l-58 -4 7 -222 c3 -122 8 -224 10 -227 2 -2 14 -5 26 -5 31 0 27 -27 -6 -43 l-28 -14 7 -101 c4 -56 12 -105 18 -109 11 -7 663 0 701 7 19 4 20 9 14 177 -4 95 -7 193 -8 218 l-1 46 -35 -4 c-19 -2 -35 0 -35 5 0 17 24 33 48 33 l23 0 -7 113 c-3 61 -11 116 -15 122 -10 10 -548 16 -661 8z m422 -33 c0 -5 -7 -10 -15 -10 -8 0 -15 5 -15 10 0 6 7 10 15 10 8 0 15 -4 15 -10z m97 -7 c6 -16 -30 -34 -46 -23 -21 12 -5 42 21 38 12 -2 23 -8 25 -15z m101 -46 c3 -13 -3 -17 -27 -17 -20 0 -31 5 -31 14 0 29 53 32 58 3z m-143 -7 c3 -5 -1 -10 -9 -10 -9 0 -16 5 -16 10 0 6 4 10 9 10 6 0 13 -4 16 -10z m-1 -29 c8 -12 -3 -41 -15 -41 -5 0 -9 11 -9 25 0 25 14 34 24 16z m180 -49 c2 -4 1 -14 -4 -22 -7 -11 -11 -11 -24 -1 -9 8 -16 17 -16 22 0 11 37 12 44 1z m-114 -67 c0 -9 7 -18 15 -21 20 -8 19 -33 -2 -56 -28 -31 -46 -23 -40 16 4 24 1 36 -9 40 -19 7 -6 36 17 36 10 0 19 -7 19 -15z m-460 -35 c0 -5 -7 -10 -15 -10 -8 0 -15 5 -15 10 0 6 7 10 15 10 8 0 15 -4 15 -10z m530 -50 c0 -11 -4 -20 -10 -20 -5 0 -10 2 -10 4 0 2 -3 11 -6 20 -4 11 -1 16 10 16 9 0 16 -8 16 -20z m-500 -10 c0 -5 -4 -10 -10 -10 -5 0 -10 5 -10 10 0 6 5 10 10 10 6 0 10 -4 10 -10z m480 -60 c0 -5 -4 -10 -10 -10 -5 0 -10 5 -10 10 0 6 5 10 10 10 6 0 10 -4 10 -10z m-560 -20 c0 -11 -4 -20 -10 -20 -5 0 -10 9 -10 20 0 11 5 20 10 20 6 0 10 -9 10 -20z m80 1 c0 -11 -5 -23 -10 -26 -6 -4 -8 -11 -4 -16 3 -5 10 -7 15 -4 5 4 12 -1 16 -10 3 -10 0 -21 -8 -26 -21 -13 -27 -11 -34 11 -3 11 -13 20 -21 20 -17 0 -18 24 -2 50 17 26 48 26 48 1z m244 -23 c15 -25 -17 -57 -42 -42 -22 14 -28 44 -10 55 18 12 39 7 52 -13z m196 -18 c0 -5 -7 -10 -15 -10 -8 0 -15 5 -15 10 0 6 7 10 15 10 8 0 15 -4 15 -10z m-526 -99 c8 -12 -21 -34 -34 -26 -17 11 -11 35 9 35 11 0 22 -4 25 -9z m184 -48 c-4 -22 -48 -31 -48 -10 0 19 10 27 32 27 13 0 18 -6 16 -17z m-120 -40 c-4 -22 -58 -31 -58 -10 0 20 10 27 37 27 18 0 24 -5 21 -17z m102 -28 c0 -20 -5 -25 -23 -25 -31 0 -38 9 -26 31 15 29 49 25 49 -6z m80 -5 c0 -5 -9 -10 -20 -10 -11 0 -20 5 -20 10 0 6 9 10 20 10 11 0 20 -4 20 -10z" transform="translate(0,92) scale(0.1,-0.1)" stroke="none" fill="#95B9DF"/>

</g>

<g id="1" transform="translate(88.0,0)scale(1,1)">

<path d="M683 753 c-26 -10 -13 -33 18 -33 24 0 30 4 27 17 -3 18 -24 26 -45 16z" transform="translate(0,92) scale(0.1,-0.1)" stroke="none" fill="#6097DD"/>

<path d="M147 193 c-17 -17 -6 -34 20 -31 36 4 45 38 10 38 -13 0 -27 -3 -30 -7z" transform="translate(0,92) scale(0.1,-0.1)" stroke="none" fill="#6097DD"/>

<path d="M251 161 c-12 -22 -5 -31 26 -31 18 0 23 5 23 25 0 31 -34 35 -49 6z" transform="translate(0,92) scale(0.1,-0.1)" stroke="none" fill="#6097DD"/>

<path d="M412 401 c-18 -11 -12 -41 10 -55 14 -8 22 -7 35 7 29 29 -10 71 -45 48z" transform="translate(0,92) scale(0.1,-0.1)" stroke="none" fill="#316AD4"/>

<path d="M172 410 c-16 -26 -15 -50 2 -50 8 0 18 -9 21 -20 7 -22 13 -24 34 -11 8 5 11 16 8 26 -4 9 -11 14 -16 10 -5 -3 -12 -1 -15 4 -4 5 -2 12 4 16 5 3 10 15 10 26 0 25 -31 25 -48 -1z m28 -10 c0 -5 -5 -10 -11 -10 -5 0 -7 5 -4 10 3 6 8 10 11 10 2 0 4 -4 4 -10z" transform="translate(0,92) scale(0.1,-0.1)" stroke="none" fill="#6097DD"/>

<path d="M606 585 c-3 -9 1 -18 8 -21 10 -4 13 -16 9 -40 -6 -39 12 -47 40 -16 21 23 22 48 2 56 -8 3 -15 12 -15 21 0 20 -36 20 -44 0z m44 -65 c0 -5 -5 -10 -11 -10 -5 0 -7 5 -4 10 3 6 8 10 11 10 2 0 4 -4 4 -10z" transform="translate(0,92) scale(0.1,-0.1)" stroke="none" fill="#6097DD"/>

<path d="M804 232 c1 -115 0 -123 -19 -127 -39 -8 -690 -14 -702 -7 -7 4 -14 34 -16 67 l-3 60 -2 -68 c-1 -48 2 -69 11 -73 17 -6 734 9 741 16 2 3 1 62 -3 130 l-9 125 2 -123z" transform="translate(0,92) scale(0.1,-0.1)" stroke="none" fill="#6097DD"/>

<path d="M56 833 c-18 -5 -18 -15 -10 -236 5 -128 8 -257 8 -287 -1 -35 1 -45 5 -27 3 16 17 33 31 40 14 7 25 19 25 27 0 9 -10 15 -25 15 l-25 0 -7 225 c-4 123 -5 226 -2 229 10 11 703 7 712 -4 5 -5 13 -61 16 -122 l7 -113 -23 0 c-24 0 -48 -16 -48 -33 0 -5 16 -7 35 -5 l34 4 4 -66 c2 -36 3 21 2 126 -2 121 -7 199 -14 212 -12 22 -13 22 -359 21 -191 -1 -355 -3 -366 -6z m714 -267 c0 -3 -4 -8 -10 -11 -5 -3 -10 -1 -10 4 0 6 5 11 10 11 6 0 10 -2 10 -4z" transform="translate(0,92) scale(0.1,-0.1)" stroke="none" fill="#6097DD"/>

<path d="M108 823 l-58 -4 7 -222 c3 -122 8 -224 10 -227 2 -2 14 -5 26 -5 31 0 27 -27 -6 -43 l-28 -14 7 -101 c4 -56 12 -105 18 -109 11 -7 663 0 701 7 19 4 20 9 14 177 -4 95 -7 193 -8 218 l-1 46 -35 -4 c-19 -2 -35 0 -35 5 0 17 24 33 48 33 l23 0 -7 113 c-3 61 -11 116 -15 122 -10 10 -548 16 -661 8z m422 -33 c0 -5 -7 -10 -15 -10 -8 0 -15 5 -15 10 0 6 7 10 15 10 8 0 15 -4 15 -10z m97 -7 c6 -16 -30 -34 -46 -23 -21 12 -5 42 21 38 12 -2 23 -8 25 -15z m101 -46 c3 -13 -3 -17 -27 -17 -20 0 -31 5 -31 14 0 29 53 32 58 3z m-143 -7 c3 -5 -1 -10 -9 -10 -9 0 -16 5 -16 10 0 6 4 10 9 10 6 0 13 -4 16 -10z m-1 -29 c8 -12 -3 -41 -15 -41 -5 0 -9 11 -9 25 0 25 14 34 24 16z m180 -49 c2 -4 1 -14 -4 -22 -7 -11 -11 -11 -24 -1 -9 8 -16 17 -16 22 0 11 37 12 44 1z m-114 -67 c0 -9 7 -18 15 -21 20 -8 19 -33 -2 -56 -28 -31 -46 -23 -40 16 4 24 1 36 -9 40 -19 7 -6 36 17 36 10 0 19 -7 19 -15z m-460 -35 c0 -5 -7 -10 -15 -10 -8 0 -15 5 -15 10 0 6 7 10 15 10 8 0 15 -4 15 -10z m530 -50 c0 -11 -4 -20 -10 -20 -5 0 -10 2 -10 4 0 2 -3 11 -6 20 -4 11 -1 16 10 16 9 0 16 -8 16 -20z m-500 -10 c0 -5 -4 -10 -10 -10 -5 0 -10 5 -10 10 0 6 5 10 10 10 6 0 10 -4 10 -10z m480 -60 c0 -5 -4 -10 -10 -10 -5 0 -10 5 -10 10 0 6 5 10 10 10 6 0 10 -4 10 -10z m-560 -20 c0 -11 -4 -20 -10 -20 -5 0 -10 9 -10 20 0 11 5 20 10 20 6 0 10 -9 10 -20z m80 1 c0 -11 -5 -23 -10 -26 -6 -4 -8 -11 -4 -16 3 -5 10 -7 15 -4 5 4 12 -1 16 -10 3 -10 0 -21 -8 -26 -21 -13 -27 -11 -34 11 -3 11 -13 20 -21 20 -17 0 -18 24 -2 50 17 26 48 26 48 1z m244 -23 c15 -25 -17 -57 -42 -42 -22 14 -28 44 -10 55 18 12 39 7 52 -13z m196 -18 c0 -5 -7 -10 -15 -10 -8 0 -15 5 -15 10 0 6 7 10 15 10 8 0 15 -4 15 -10z m-526 -99 c8 -12 -21 -34 -34 -26 -17 11 -11 35 9 35 11 0 22 -4 25 -9z m184 -48 c-4 -22 -48 -31 -48 -10 0 19 10 27 32 27 13 0 18 -6 16 -17z m-120 -40 c-4 -22 -58 -31 -58 -10 0 20 10 27 37 27 18 0 24 -5 21 -17z m102 -28 c0 -20 -5 -25 -23 -25 -31 0 -38 9 -26 31 15 29 49 25 49 -6z m80 -5 c0 -5 -9 -10 -20 -10 -11 0 -20 5 -20 10 0 6 9 10 20 10 11 0 20 -4 20 -10z" transform="translate(0,92) scale(0.1,-0.1)" stroke="none" fill="#95B9DF"/>

</g>

<g id="2" transform="translate(176.0,0)scale(1,1)">

<path d="M683 753 c-26 -10 -13 -33 18 -33 24 0 30 4 27 17 -3 18 -24 26 -45 16z" transform="translate(0,92) scale(0.1,-0.1)" stroke="none" fill="#6097DD"/>

<path d="M147 193 c-17 -17 -6 -34 20 -31 36 4 45 38 10 38 -13 0 -27 -3 -30 -7z" transform="translate(0,92) scale(0.1,-0.1)" stroke="none" fill="#6097DD"/>

<path d="M251 161 c-12 -22 -5 -31 26 -31 18 0 23 5 23 25 0 31 -34 35 -49 6z" transform="translate(0,92) scale(0.1,-0.1)" stroke="none" fill="#6097DD"/>

<path d="M412 401 c-18 -11 -12 -41 10 -55 14 -8 22 -7 35 7 29 29 -10 71 -45 48z" transform="translate(0,92) scale(0.1,-0.1)" stroke="none" fill="#316AD4"/>

<path d="M172 410 c-16 -26 -15 -50 2 -50 8 0 18 -9 21 -20 7 -22 13 -24 34 -11 8 5 11 16 8 26 -4 9 -11 14 -16 10 -5 -3 -12 -1 -15 4 -4 5 -2 12 4 16 5 3 10 15 10 26 0 25 -31 25 -48 -1z m28 -10 c0 -5 -5 -10 -11 -10 -5 0 -7 5 -4 10 3 6 8 10 11 10 2 0 4 -4 4 -10z" transform="translate(0,92) scale(0.1,-0.1)" stroke="none" fill="#6097DD"/>

<path d="M606 585 c-3 -9 1 -18 8 -21 10 -4 13 -16 9 -40 -6 -39 12 -47 40 -16 21 23 22 48 2 56 -8 3 -15 12 -15 21 0 20 -36 20 -44 0z m44 -65 c0 -5 -5 -10 -11 -10 -5 0 -7 5 -4 10 3 6 8 10 11 10 2 0 4 -4 4 -10z" transform="translate(0,92) scale(0.1,-0.1)" stroke="none" fill="#6097DD"/>

<path d="M804 232 c1 -115 0 -123 -19 -127 -39 -8 -690 -14 -702 -7 -7 4 -14 34 -16 67 l-3 60 -2 -68 c-1 -48 2 -69 11 -73 17 -6 734 9 741 16 2 3 1 62 -3 130 l-9 125 2 -123z" transform="translate(0,92) scale(0.1,-0.1)" stroke="none" fill="#6097DD"/>

<path d="M56 833 c-18 -5 -18 -15 -10 -236 5 -128 8 -257 8 -287 -1 -35 1 -45 5 -27 3 16 17 33 31 40 14 7 25 19 25 27 0 9 -10 15 -25 15 l-25 0 -7 225 c-4 123 -5 226 -2 229 10 11 703 7 712 -4 5 -5 13 -61 16 -122 l7 -113 -23 0 c-24 0 -48 -16 -48 -33 0 -5 16 -7 35 -5 l34 4 4 -66 c2 -36 3 21 2 126 -2 121 -7 199 -14 212 -12 22 -13 22 -359 21 -191 -1 -355 -3 -366 -6z m714 -267 c0 -3 -4 -8 -10 -11 -5 -3 -10 -1 -10 4 0 6 5 11 10 11 6 0 10 -2 10 -4z" transform="translate(0,92) scale(0.1,-0.1)" stroke="none" fill="#6097DD"/>

<path d="M108 823 l-58 -4 7 -222 c3 -122 8 -224 10 -227 2 -2 14 -5 26 -5 31 0 27 -27 -6 -43 l-28 -14 7 -101 c4 -56 12 -105 18 -109 11 -7 663 0 701 7 19 4 20 9 14 177 -4 95 -7 193 -8 218 l-1 46 -35 -4 c-19 -2 -35 0 -35 5 0 17 24 33 48 33 l23 0 -7 113 c-3 61 -11 116 -15 122 -10 10 -548 16 -661 8z m422 -33 c0 -5 -7 -10 -15 -10 -8 0 -15 5 -15 10 0 6 7 10 15 10 8 0 15 -4 15 -10z m97 -7 c6 -16 -30 -34 -46 -23 -21 12 -5 42 21 38 12 -2 23 -8 25 -15z m101 -46 c3 -13 -3 -17 -27 -17 -20 0 -31 5 -31 14 0 29 53 32 58 3z m-143 -7 c3 -5 -1 -10 -9 -10 -9 0 -16 5 -16 10 0 6 4 10 9 10 6 0 13 -4 16 -10z m-1 -29 c8 -12 -3 -41 -15 -41 -5 0 -9 11 -9 25 0 25 14 34 24 16z m180 -49 c2 -4 1 -14 -4 -22 -7 -11 -11 -11 -24 -1 -9 8 -16 17 -16 22 0 11 37 12 44 1z m-114 -67 c0 -9 7 -18 15 -21 20 -8 19 -33 -2 -56 -28 -31 -46 -23 -40 16 4 24 1 36 -9 40 -19 7 -6 36 17 36 10 0 19 -7 19 -15z m-460 -35 c0 -5 -7 -10 -15 -10 -8 0 -15 5 -15 10 0 6 7 10 15 10 8 0 15 -4 15 -10z m530 -50 c0 -11 -4 -20 -10 -20 -5 0 -10 2 -10 4 0 2 -3 11 -6 20 -4 11 -1 16 10 16 9 0 16 -8 16 -20z m-500 -10 c0 -5 -4 -10 -10 -10 -5 0 -10 5 -10 10 0 6 5 10 10 10 6 0 10 -4 10 -10z m480 -60 c0 -5 -4 -10 -10 -10 -5 0 -10 5 -10 10 0 6 5 10 10 10 6 0 10 -4 10 -10z m-560 -20 c0 -11 -4 -20 -10 -20 -5 0 -10 9 -10 20 0 11 5 20 10 20 6 0 10 -9 10 -20z m80 1 c0 -11 -5 -23 -10 -26 -6 -4 -8 -11 -4 -16 3 -5 10 -7 15 -4 5 4 12 -1 16 -10 3 -10 0 -21 -8 -26 -21 -13 -27 -11 -34 11 -3 11 -13 20 -21 20 -17 0 -18 24 -2 50 17 26 48 26 48 1z m244 -23 c15 -25 -17 -57 -42 -42 -22 14 -28 44 -10 55 18 12 39 7 52 -13z m196 -18 c0 -5 -7 -10 -15 -10 -8 0 -15 5 -15 10 0 6 7 10 15 10 8 0 15 -4 15 -10z m-526 -99 c8 -12 -21 -34 -34 -26 -17 11 -11 35 9 35 11 0 22 -4 25 -9z m184 -48 c-4 -22 -48 -31 -48 -10 0 19 10 27 32 27 13 0 18 -6 16 -17z m-120 -40 c-4 -22 -58 -31 -58 -10 0 20 10 27 37 27 18 0 24 -5 21 -17z m102 -28 c0 -20 -5 -25 -23 -25 -31 0 -38 9 -26 31 15 29 49 25 49 -6z m80 -5 c0 -5 -9 -10 -20 -10 -11 0 -20 5 -20 10 0 6 9 10 20 10 11 0 20 -4 20 -10z" transform="translate(0,92) scale(0.1,-0.1)" stroke="none" fill="#95B9DF"/>

</g>

<g id="3" transform="translate(264.0,0)scale(1,1)">

<path d="M683 753 c-26 -10 -13 -33 18 -33 24 0 30 4 27 17 -3 18 -24 26 -45 16z" transform="translate(0,92) scale(0.1,-0.1)" stroke="none" fill="#6097DD"/>

<path d="M147 193 c-17 -17 -6 -34 20 -31 36 4 45 38 10 38 -13 0 -27 -3 -30 -7z" transform="translate(0,92) scale(0.1,-0.1)" stroke="none" fill="#6097DD"/>

<path d="M251 161 c-12 -22 -5 -31 26 -31 18 0 23 5 23 25 0 31 -34 35 -49 6z" transform="translate(0,92) scale(0.1,-0.1)" stroke="none" fill="#6097DD"/>

<path d="M412 401 c-18 -11 -12 -41 10 -55 14 -8 22 -7 35 7 29 29 -10 71 -45 48z" transform="translate(0,92) scale(0.1,-0.1)" stroke="none" fill="#316AD4"/>

<path d="M172 410 c-16 -26 -15 -50 2 -50 8 0 18 -9 21 -20 7 -22 13 -24 34 -11 8 5 11 16 8 26 -4 9 -11 14 -16 10 -5 -3 -12 -1 -15 4 -4 5 -2 12 4 16 5 3 10 15 10 26 0 25 -31 25 -48 -1z m28 -10 c0 -5 -5 -10 -11 -10 -5 0 -7 5 -4 10 3 6 8 10 11 10 2 0 4 -4 4 -10z" transform="translate(0,92) scale(0.1,-0.1)" stroke="none" fill="#6097DD"/>

<path d="M606 585 c-3 -9 1 -18 8 -21 10 -4 13 -16 9 -40 -6 -39 12 -47 40 -16 21 23 22 48 2 56 -8 3 -15 12 -15 21 0 20 -36 20 -44 0z m44 -65 c0 -5 -5 -10 -11 -10 -5 0 -7 5 -4 10 3 6 8 10 11 10 2 0 4 -4 4 -10z" transform="translate(0,92) scale(0.1,-0.1)" stroke="none" fill="#6097DD"/>

<path d="M804 232 c1 -115 0 -123 -19 -127 -39 -8 -690 -14 -702 -7 -7 4 -14 34 -16 67 l-3 60 -2 -68 c-1 -48 2 -69 11 -73 17 -6 734 9 741 16 2 3 1 62 -3 130 l-9 125 2 -123z" transform="translate(0,92) scale(0.1,-0.1)" stroke="none" fill="#6097DD"/>

<path d="M56 833 c-18 -5 -18 -15 -10 -236 5 -128 8 -257 8 -287 -1 -35 1 -45 5 -27 3 16 17 33 31 40 14 7 25 19 25 27 0 9 -10 15 -25 15 l-25 0 -7 225 c-4 123 -5 226 -2 229 10 11 703 7 712 -4 5 -5 13 -61 16 -122 l7 -113 -23 0 c-24 0 -48 -16 -48 -33 0 -5 16 -7 35 -5 l34 4 4 -66 c2 -36 3 21 2 126 -2 121 -7 199 -14 212 -12 22 -13 22 -359 21 -191 -1 -355 -3 -366 -6z m714 -267 c0 -3 -4 -8 -10 -11 -5 -3 -10 -1 -10 4 0 6 5 11 10 11 6 0 10 -2 10 -4z" transform="translate(0,92) scale(0.1,-0.1)" stroke="none" fill="#6097DD"/>

<path d="M108 823 l-58 -4 7 -222 c3 -122 8 -224 10 -227 2 -2 14 -5 26 -5 31 0 27 -27 -6 -43 l-28 -14 7 -101 c4 -56 12 -105 18 -109 11 -7 663 0 701 7 19 4 20 9 14 177 -4 95 -7 193 -8 218 l-1 46 -35 -4 c-19 -2 -35 0 -35 5 0 17 24 33 48 33 l23 0 -7 113 c-3 61 -11 116 -15 122 -10 10 -548 16 -661 8z m422 -33 c0 -5 -7 -10 -15 -10 -8 0 -15 5 -15 10 0 6 7 10 15 10 8 0 15 -4 15 -10z m97 -7 c6 -16 -30 -34 -46 -23 -21 12 -5 42 21 38 12 -2 23 -8 25 -15z m101 -46 c3 -13 -3 -17 -27 -17 -20 0 -31 5 -31 14 0 29 53 32 58 3z m-143 -7 c3 -5 -1 -10 -9 -10 -9 0 -16 5 -16 10 0 6 4 10 9 10 6 0 13 -4 16 -10z m-1 -29 c8 -12 -3 -41 -15 -41 -5 0 -9 11 -9 25 0 25 14 34 24 16z m180 -49 c2 -4 1 -14 -4 -22 -7 -11 -11 -11 -24 -1 -9 8 -16 17 -16 22 0 11 37 12 44 1z m-114 -67 c0 -9 7 -18 15 -21 20 -8 19 -33 -2 -56 -28 -31 -46 -23 -40 16 4 24 1 36 -9 40 -19 7 -6 36 17 36 10 0 19 -7 19 -15z m-460 -35 c0 -5 -7 -10 -15 -10 -8 0 -15 5 -15 10 0 6 7 10 15 10 8 0 15 -4 15 -10z m530 -50 c0 -11 -4 -20 -10 -20 -5 0 -10 2 -10 4 0 2 -3 11 -6 20 -4 11 -1 16 10 16 9 0 16 -8 16 -20z m-500 -10 c0 -5 -4 -10 -10 -10 -5 0 -10 5 -10 10 0 6 5 10 10 10 6 0 10 -4 10 -10z m480 -60 c0 -5 -4 -10 -10 -10 -5 0 -10 5 -10 10 0 6 5 10 10 10 6 0 10 -4 10 -10z m-560 -20 c0 -11 -4 -20 -10 -20 -5 0 -10 9 -10 20 0 11 5 20 10 20 6 0 10 -9 10 -20z m80 1 c0 -11 -5 -23 -10 -26 -6 -4 -8 -11 -4 -16 3 -5 10 -7 15 -4 5 4 12 -1 16 -10 3 -10 0 -21 -8 -26 -21 -13 -27 -11 -34 11 -3 11 -13 20 -21 20 -17 0 -18 24 -2 50 17 26 48 26 48 1z m244 -23 c15 -25 -17 -57 -42 -42 -22 14 -28 44 -10 55 18 12 39 7 52 -13z m196 -18 c0 -5 -7 -10 -15 -10 -8 0 -15 5 -15 10 0 6 7 10 15 10 8 0 15 -4 15 -10z m-526 -99 c8 -12 -21 -34 -34 -26 -17 11 -11 35 9 35 11 0 22 -4 25 -9z m184 -48 c-4 -22 -48 -31 -48 -10 0 19 10 27 32 27 13 0 18 -6 16 -17z m-120 -40 c-4 -22 -58 -31 -58 -10 0 20 10 27 37 27 18 0 24 -5 21 -17z m102 -28 c0 -20 -5 -25 -23 -25 -31 0 -38 9 -26 31 15 29 49 25 49 -6z m80 -5 c0 -5 -9 -10 -20 -10 -11 0 -20 5 -20 10 0 6 9 10 20 10 11 0 20 -4 20 -10z" transform="translate(0,92) scale(0.1,-0.1)" stroke="none" fill="#95B9DF"/>

</g>

<g id="4" transform="translate(352.0,0)scale(1,1)">

<path d="M683 753 c-26 -10 -13 -33 18 -33 24 0 30 4 27 17 -3 18 -24 26 -45 16z" transform="translate(0,92) scale(0.1,-0.1)" stroke="none" fill="#6097DD"/>

<path d="M147 193 c-17 -17 -6 -34 20 -31 36 4 45 38 10 38 -13 0 -27 -3 -30 -7z" transform="translate(0,92) scale(0.1,-0.1)" stroke="none" fill="#6097DD"/>

<path d="M251 161 c-12 -22 -5 -31 26 -31 18 0 23 5 23 25 0 31 -34 35 -49 6z" transform="translate(0,92) scale(0.1,-0.1)" stroke="none" fill="#6097DD"/>

<path d="M412 401 c-18 -11 -12 -41 10 -55 14 -8 22 -7 35 7 29 29 -10 71 -45 48z" transform="translate(0,92) scale(0.1,-0.1)" stroke="none" fill="#316AD4"/>

<path d="M172 410 c-16 -26 -15 -50 2 -50 8 0 18 -9 21 -20 7 -22 13 -24 34 -11 8 5 11 16 8 26 -4 9 -11 14 -16 10 -5 -3 -12 -1 -15 4 -4 5 -2 12 4 16 5 3 10 15 10 26 0 25 -31 25 -48 -1z m28 -10 c0 -5 -5 -10 -11 -10 -5 0 -7 5 -4 10 3 6 8 10 11 10 2 0 4 -4 4 -10z" transform="translate(0,92) scale(0.1,-0.1)" stroke="none" fill="#6097DD"/>

<path d="M606 585 c-3 -9 1 -18 8 -21 10 -4 13 -16 9 -40 -6 -39 12 -47 40 -16 21 23 22 48 2 56 -8 3 -15 12 -15 21 0 20 -36 20 -44 0z m44 -65 c0 -5 -5 -10 -11 -10 -5 0 -7 5 -4 10 3 6 8 10 11 10 2 0 4 -4 4 -10z" transform="translate(0,92) scale(0.1,-0.1)" stroke="none" fill="#6097DD"/>

<path d="M804 232 c1 -115 0 -123 -19 -127 -39 -8 -690 -14 -702 -7 -7 4 -14 34 -16 67 l-3 60 -2 -68 c-1 -48 2 -69 11 -73 17 -6 734 9 741 16 2 3 1 62 -3 130 l-9 125 2 -123z" transform="translate(0,92) scale(0.1,-0.1)" stroke="none" fill="#6097DD"/>

<path d="M56 833 c-18 -5 -18 -15 -10 -236 5 -128 8 -257 8 -287 -1 -35 1 -45 5 -27 3 16 17 33 31 40 14 7 25 19 25 27 0 9 -10 15 -25 15 l-25 0 -7 225 c-4 123 -5 226 -2 229 10 11 703 7 712 -4 5 -5 13 -61 16 -122 l7 -113 -23 0 c-24 0 -48 -16 -48 -33 0 -5 16 -7 35 -5 l34 4 4 -66 c2 -36 3 21 2 126 -2 121 -7 199 -14 212 -12 22 -13 22 -359 21 -191 -1 -355 -3 -366 -6z m714 -267 c0 -3 -4 -8 -10 -11 -5 -3 -10 -1 -10 4 0 6 5 11 10 11 6 0 10 -2 10 -4z" transform="translate(0,92) scale(0.1,-0.1)" stroke="none" fill="#6097DD"/>

<path d="M108 823 l-58 -4 7 -222 c3 -122 8 -224 10 -227 2 -2 14 -5 26 -5 31 0 27 -27 -6 -43 l-28 -14 7 -101 c4 -56 12 -105 18 -109 11 -7 663 0 701 7 19 4 20 9 14 177 -4 95 -7 193 -8 218 l-1 46 -35 -4 c-19 -2 -35 0 -35 5 0 17 24 33 48 33 l23 0 -7 113 c-3 61 -11 116 -15 122 -10 10 -548 16 -661 8z m422 -33 c0 -5 -7 -10 -15 -10 -8 0 -15 5 -15 10 0 6 7 10 15 10 8 0 15 -4 15 -10z m97 -7 c6 -16 -30 -34 -46 -23 -21 12 -5 42 21 38 12 -2 23 -8 25 -15z m101 -46 c3 -13 -3 -17 -27 -17 -20 0 -31 5 -31 14 0 29 53 32 58 3z m-143 -7 c3 -5 -1 -10 -9 -10 -9 0 -16 5 -16 10 0 6 4 10 9 10 6 0 13 -4 16 -10z m-1 -29 c8 -12 -3 -41 -15 -41 -5 0 -9 11 -9 25 0 25 14 34 24 16z m180 -49 c2 -4 1 -14 -4 -22 -7 -11 -11 -11 -24 -1 -9 8 -16 17 -16 22 0 11 37 12 44 1z m-114 -67 c0 -9 7 -18 15 -21 20 -8 19 -33 -2 -56 -28 -31 -46 -23 -40 16 4 24 1 36 -9 40 -19 7 -6 36 17 36 10 0 19 -7 19 -15z m-460 -35 c0 -5 -7 -10 -15 -10 -8 0 -15 5 -15 10 0 6 7 10 15 10 8 0 15 -4 15 -10z m530 -50 c0 -11 -4 -20 -10 -20 -5 0 -10 2 -10 4 0 2 -3 11 -6 20 -4 11 -1 16 10 16 9 0 16 -8 16 -20z m-500 -10 c0 -5 -4 -10 -10 -10 -5 0 -10 5 -10 10 0 6 5 10 10 10 6 0 10 -4 10 -10z m480 -60 c0 -5 -4 -10 -10 -10 -5 0 -10 5 -10 10 0 6 5 10 10 10 6 0 10 -4 10 -10z m-560 -20 c0 -11 -4 -20 -10 -20 -5 0 -10 9 -10 20 0 11 5 20 10 20 6 0 10 -9 10 -20z m80 1 c0 -11 -5 -23 -10 -26 -6 -4 -8 -11 -4 -16 3 -5 10 -7 15 -4 5 4 12 -1 16 -10 3 -10 0 -21 -8 -26 -21 -13 -27 -11 -34 11 -3 11 -13 20 -21 20 -17 0 -18 24 -2 50 17 26 48 26 48 1z m244 -23 c15 -25 -17 -57 -42 -42 -22 14 -28 44 -10 55 18 12 39 7 52 -13z m196 -18 c0 -5 -7 -10 -15 -10 -8 0 -15 5 -15 10 0 6 7 10 15 10 8 0 15 -4 15 -10z m-526 -99 c8 -12 -21 -34 -34 -26 -17 11 -11 35 9 35 11 0 22 -4 25 -9z m184 -48 c-4 -22 -48 -31 -48 -10 0 19 10 27 32 27 13 0 18 -6 16 -17z m-120 -40 c-4 -22 -58 -31 -58 -10 0 20 10 27 37 27 18 0 24 -5 21 -17z m102 -28 c0 -20 -5 -25 -23 -25 -31 0 -38 9 -26 31 15 29 49 25 49 -6z m80 -5 c0 -5 -9 -10 -20 -10 -11 0 -20 5 -20 10 0 6 9 10 20 10 11 0 20 -4 20 -10z" transform="translate(0,92) scale(0.1,-0.1)" stroke="none" fill="#95B9DF"/>

</g>

</g>
</svg>