<?xml version="1.0" standalone="no"?>
<!DOCTYPE svg PUBLIC "-//W3C//DTD SVG 20010904//EN"
 "http://www.w3.org/TR/2001/REC-SVG-20010904/DTD/svg10.dtd">
<svg version="1.0" xmlns="http://www.w3.org/2000/svg" width="352pt" height="312pt" viewBox="0 0 352 312" preserveAspectRatio = "xMidYMid meet" >
<metadata>
Created by ZoeQu, written in 2022
</metadata>
<rect width="352" height="312" fill="#F9A085"/>
<g id="row0" transform="translate(11,0.0)">
<g id="0" transform="translate(0.0,0)scale(1,1)">

<path d="M783 253 c15 -16 27 -40 27 -53 0 -13 -12 -37 -27 -53 -16 -16 -21 -28 -13 -25 14 4 60 64 60 78 0 14 -46 74 -60 78 -8 3 -3 -9 13 -25z" transform="translate(0,78) scale(0.1,-0.1)" stroke="none" fill="#905D35"/>

<path d="M701 501 c-7 -16 -26 -41 -42 -57 -52 -50 -29 -60 42 -19 24 14 40 25 34 25 -5 -1 -21 -7 -35 -15 -34 -20 -46 -19 -28 3 20 22 51 83 45 88 -2 3 -10 -8 -16 -25z" transform="translate(0,78) scale(0.1,-0.1)" stroke="none" fill="#905D35"/>

<path d="M813 424 c33 -18 35 -51 4 -65 -13 -6 -50 -16 -82 -22 -53 -11 -89 -37 -50 -37 9 0 14 4 11 9 -4 5 13 12 36 16 24 4 60 14 81 22 30 12 37 20 37 42 0 20 -7 31 -25 39 -37 17 -45 14 -12 -4z" transform="translate(0,78) scale(0.1,-0.1)" stroke="none" fill="#905D35"/>

<path d="M557 381 c-3 -12 1 -22 9 -25 8 -3 14 -19 14 -35 0 -35 15 -48 36 -30 15 13 10 73 -9 97 -15 18 -44 14 -50 -7z" transform="translate(0,78) scale(0.1,-0.1)" stroke="none" fill="#FBD984"/>

<path d="M222 568 c-15 -15 -15 -51 0 -66 27 -27 78 -7 78 29 0 39 -52 63 -78 37z" transform="translate(0,78) scale(0.1,-0.1)" stroke="none" fill="#A19C60"/>

<path d="M583 224 c7 -87 -7 -131 -52 -161 -37 -25 -95 -31 -107 -11 -5 7 -7 29 -6 48 2 26 0 31 -7 20 -12 -17 -14 -50 -5 -74 8 -22 90 -20 128 2 37 22 66 76 66 124 l0 37 45 -44 c24 -25 52 -45 62 -45 11 1 3 9 -20 21 -40 21 -74 66 -84 112 -3 15 -10 30 -16 34 -7 4 -8 -17 -4 -63z" transform="translate(0,78) scale(0.1,-0.1)" stroke="none" fill="#905D35"/>

<path d="M253 337 c-51 -41 -68 -65 -38 -53 12 4 15 -4 15 -38 0 -58 12 -67 79 -54 48 8 96 35 140 76 23 22 25 5 3 -31 -11 -19 -22 -50 -26 -68 l-5 -34 12 36 c7 19 20 47 30 62 17 27 23 57 10 57 -4 0 -34 -19 -67 -42 -51 -36 -68 -42 -111 -43 l-50 0 0 52 c1 46 5 57 35 88 44 46 37 44 -27 -8z" transform="translate(0,78) scale(0.1,-0.1)" stroke="none" fill="#905D35"/>

<path d="M283 744 c-19 -8 -42 -31 -57 -57 -24 -41 -29 -44 -70 -44 -48 0 -89 -20 -106 -53 -9 -17 -6 -25 19 -50 16 -17 37 -30 45 -30 20 0 21 -19 2 -26 -21 -8 -36 -58 -27 -91 4 -15 19 -34 33 -40 36 -18 91 6 108 47 14 33 40 39 60 15 7 -8 19 -15 27 -15 8 0 11 -4 8 -10 -4 -6 20 -10 64 -10 l71 0 0 46 0 47 -23 -34 c-31 -46 -88 -52 -132 -14 -17 14 -34 25 -39 25 -4 0 -25 -17 -45 -39 -43 -45 -62 -54 -96 -41 -42 16 -32 84 14 102 l26 9 -31 27 c-17 15 -41 35 -52 44 -12 10 -22 22 -22 27 0 17 71 51 108 51 44 0 52 5 73 45 9 17 33 39 53 50 33 18 38 19 63 5 42 -23 43 -68 2 -108 -17 -17 -28 -35 -24 -41 8 -14 42 -14 50 -1 3 6 26 10 51 10 25 0 43 -4 40 -8 -2 -4 -1 -14 4 -21 6 -11 14 -9 40 9 32 23 33 23 63 5 30 -18 31 -18 45 3 16 24 60 30 80 10 8 -8 12 -8 12 -1 0 6 -13 16 -30 21 -24 9 -33 7 -55 -10 -22 -17 -30 -18 -54 -8 -23 9 -33 9 -49 -1 -18 -11 -23 -10 -40 11 -15 18 -23 22 -33 14 -21 -16 -79 -17 -79 -1 0 7 4 17 9 23 9 9 14 37 12 64 -5 46 -64 68 -118 44z m82 -154 c-3 -5 -10 -10 -16 -10 -5 0 -9 5 -9 10 0 6 7 10 16 10 8 0 12 -4 9 -10z m81 -197 c-10 -10 -19 5 -10 18 6 11 8 11 12 0 2 -7 1 -15 -2 -18z" transform="translate(0,78) scale(0.1,-0.1)" stroke="none" fill="#905D35"/>

<path d="M285 722 c-16 -10 -37 -32 -45 -48 -20 -38 -28 -44 -72 -44 -37 0 -108 -34 -108 -51 0 -5 10 -17 22 -27 11 -9 35 -29 52 -44 l31 -27 -26 -9 c-46 -18 -56 -86 -14 -102 34 -13 53 -4 96 41 20 22 41 39 45 39 5 0 22 -11 38 -25 41 -35 97 -34 125 2 12 14 24 38 28 52 3 14 13 32 20 40 8 7 11 21 7 30 -3 9 -7 22 -7 29 0 15 -83 17 -92 2 -8 -13 -42 -13 -50 1 -4 6 7 24 24 41 38 37 41 80 9 102 -29 21 -46 20 -83 -2z m45 -112 c0 -5 -7 -10 -16 -10 -8 0 -12 5 -9 10 3 6 10 10 16 10 5 0 9 -4 9 -10z m-120 -27 c-1 -13 -29 -59 -30 -48 0 21 13 55 21 55 5 0 9 -3 9 -7z m74 -19 c31 -30 13 -74 -30 -74 -37 0 -63 50 -38 75 20 19 48 19 68 -1z m-104 -54 c0 -5 -7 -10 -15 -10 -8 0 -15 5 -15 10 0 6 7 10 15 10 8 0 15 -4 15 -10z" transform="translate(0,78) scale(0.1,-0.1)" stroke="none" fill="#FBD984"/>

<path d="M628 578 c-14 -21 -15 -21 -45 -3 -29 17 -31 17 -57 0 -37 -25 -66 -89 -66 -147 l0 -48 -73 0 c-70 0 -74 -1 -107 -35 -30 -31 -34 -42 -35 -88 l0 -52 50 0 c43 1 60 7 111 43 33 23 63 42 67 42 13 0 7 -32 -11 -58 -30 -44 -54 -155 -39 -179 13 -21 71 -15 108 10 47 31 58 72 52 187 -5 80 -9 98 -26 111 -24 19 -15 39 17 39 29 0 42 -15 50 -61 5 -26 2 -40 -9 -49 -20 -17 -19 -33 5 -81 21 -40 64 -74 108 -85 31 -9 82 39 82 76 0 34 -43 75 -98 92 -23 7 -41 17 -39 23 2 5 30 15 62 22 79 15 105 29 105 53 0 23 -46 50 -87 50 -15 0 -43 -9 -61 -20 -59 -36 -82 -22 -36 21 30 28 64 90 64 117 0 44 -66 59 -92 20z m-108 -254 c0 -8 -4 -14 -10 -14 -5 0 -10 9 -10 21 0 11 5 17 10 14 6 -3 10 -13 10 -21z" transform="translate(0,78) scale(0.1,-0.1)" stroke="none" fill="#C0D6BD"/>

</g>

<g id="1" transform="translate(88.0,0)scale(1,1)">

<path d="M783 253 c15 -16 27 -40 27 -53 0 -13 -12 -37 -27 -53 -16 -16 -21 -28 -13 -25 14 4 60 64 60 78 0 14 -46 74 -60 78 -8 3 -3 -9 13 -25z" transform="translate(0,78) scale(0.1,-0.1)" stroke="none" fill="#905D35"/>

<path d="M701 501 c-7 -16 -26 -41 -42 -57 -52 -50 -29 -60 42 -19 24 14 40 25 34 25 -5 -1 -21 -7 -35 -15 -34 -20 -46 -19 -28 3 20 22 51 83 45 88 -2 3 -10 -8 -16 -25z" transform="translate(0,78) scale(0.1,-0.1)" stroke="none" fill="#905D35"/>

<path d="M813 424 c33 -18 35 -51 4 -65 -13 -6 -50 -16 -82 -22 -53 -11 -89 -37 -50 -37 9 0 14 4 11 9 -4 5 13 12 36 16 24 4 60 14 81 22 30 12 37 20 37 42 0 20 -7 31 -25 39 -37 17 -45 14 -12 -4z" transform="translate(0,78) scale(0.1,-0.1)" stroke="none" fill="#905D35"/>

<path d="M557 381 c-3 -12 1 -22 9 -25 8 -3 14 -19 14 -35 0 -35 15 -48 36 -30 15 13 10 73 -9 97 -15 18 -44 14 -50 -7z" transform="translate(0,78) scale(0.1,-0.1)" stroke="none" fill="#FBD984"/>

<path d="M222 568 c-15 -15 -15 -51 0 -66 27 -27 78 -7 78 29 0 39 -52 63 -78 37z" transform="translate(0,78) scale(0.1,-0.1)" stroke="none" fill="#A19C60"/>

<path d="M583 224 c7 -87 -7 -131 -52 -161 -37 -25 -95 -31 -107 -11 -5 7 -7 29 -6 48 2 26 0 31 -7 20 -12 -17 -14 -50 -5 -74 8 -22 90 -20 128 2 37 22 66 76 66 124 l0 37 45 -44 c24 -25 52 -45 62 -45 11 1 3 9 -20 21 -40 21 -74 66 -84 112 -3 15 -10 30 -16 34 -7 4 -8 -17 -4 -63z" transform="translate(0,78) scale(0.1,-0.1)" stroke="none" fill="#905D35"/>

<path d="M253 337 c-51 -41 -68 -65 -38 -53 12 4 15 -4 15 -38 0 -58 12 -67 79 -54 48 8 96 35 140 76 23 22 25 5 3 -31 -11 -19 -22 -50 -26 -68 l-5 -34 12 36 c7 19 20 47 30 62 17 27 23 57 10 57 -4 0 -34 -19 -67 -42 -51 -36 -68 -42 -111 -43 l-50 0 0 52 c1 46 5 57 35 88 44 46 37 44 -27 -8z" transform="translate(0,78) scale(0.1,-0.1)" stroke="none" fill="#905D35"/>

<path d="M283 744 c-19 -8 -42 -31 -57 -57 -24 -41 -29 -44 -70 -44 -48 0 -89 -20 -106 -53 -9 -17 -6 -25 19 -50 16 -17 37 -30 45 -30 20 0 21 -19 2 -26 -21 -8 -36 -58 -27 -91 4 -15 19 -34 33 -40 36 -18 91 6 108 47 14 33 40 39 60 15 7 -8 19 -15 27 -15 8 0 11 -4 8 -10 -4 -6 20 -10 64 -10 l71 0 0 46 0 47 -23 -34 c-31 -46 -88 -52 -132 -14 -17 14 -34 25 -39 25 -4 0 -25 -17 -45 -39 -43 -45 -62 -54 -96 -41 -42 16 -32 84 14 102 l26 9 -31 27 c-17 15 -41 35 -52 44 -12 10 -22 22 -22 27 0 17 71 51 108 51 44 0 52 5 73 45 9 17 33 39 53 50 33 18 38 19 63 5 42 -23 43 -68 2 -108 -17 -17 -28 -35 -24 -41 8 -14 42 -14 50 -1 3 6 26 10 51 10 25 0 43 -4 40 -8 -2 -4 -1 -14 4 -21 6 -11 14 -9 40 9 32 23 33 23 63 5 30 -18 31 -18 45 3 16 24 60 30 80 10 8 -8 12 -8 12 -1 0 6 -13 16 -30 21 -24 9 -33 7 -55 -10 -22 -17 -30 -18 -54 -8 -23 9 -33 9 -49 -1 -18 -11 -23 -10 -40 11 -15 18 -23 22 -33 14 -21 -16 -79 -17 -79 -1 0 7 4 17 9 23 9 9 14 37 12 64 -5 46 -64 68 -118 44z m82 -154 c-3 -5 -10 -10 -16 -10 -5 0 -9 5 -9 10 0 6 7 10 16 10 8 0 12 -4 9 -10z m81 -197 c-10 -10 -19 5 -10 18 6 11 8 11 12 0 2 -7 1 -15 -2 -18z" transform="translate(0,78) scale(0.1,-0.1)" stroke="none" fill="#905D35"/>

<path d="M285 722 c-16 -10 -37 -32 -45 -48 -20 -38 -28 -44 -72 -44 -37 0 -108 -34 -108 -51 0 -5 10 -17 22 -27 11 -9 35 -29 52 -44 l31 -27 -26 -9 c-46 -18 -56 -86 -14 -102 34 -13 53 -4 96 41 20 22 41 39 45 39 5 0 22 -11 38 -25 41 -35 97 -34 125 2 12 14 24 38 28 52 3 14 13 32 20 40 8 7 11 21 7 30 -3 9 -7 22 -7 29 0 15 -83 17 -92 2 -8 -13 -42 -13 -50 1 -4 6 7 24 24 41 38 37 41 80 9 102 -29 21 -46 20 -83 -2z m45 -112 c0 -5 -7 -10 -16 -10 -8 0 -12 5 -9 10 3 6 10 10 16 10 5 0 9 -4 9 -10z m-120 -27 c-1 -13 -29 -59 -30 -48 0 21 13 55 21 55 5 0 9 -3 9 -7z m74 -19 c31 -30 13 -74 -30 -74 -37 0 -63 50 -38 75 20 19 48 19 68 -1z m-104 -54 c0 -5 -7 -10 -15 -10 -8 0 -15 5 -15 10 0 6 7 10 15 10 8 0 15 -4 15 -10z" transform="translate(0,78) scale(0.1,-0.1)" stroke="none" fill="#FBD984"/>

<path d="M628 578 c-14 -21 -15 -21 -45 -3 -29 17 -31 17 -57 0 -37 -25 -66 -89 -66 -147 l0 -48 -73 0 c-70 0 -74 -1 -107 -35 -30 -31 -34 -42 -35 -88 l0 -52 50 0 c43 1 60 7 111 43 33 23 63 42 67 42 13 0 7 -32 -11 -58 -30 -44 -54 -155 -39 -179 13 -21 71 -15 108 10 47 31 58 72 52 187 -5 80 -9 98 -26 111 -24 19 -15 39 17 39 29 0 42 -15 50 -61 5 -26 2 -40 -9 -49 -20 -17 -19 -33 5 -81 21 -40 64 -74 108 -85 31 -9 82 39 82 76 0 34 -43 75 -98 92 -23 7 -41 17 -39 23 2 5 30 15 62 22 79 15 105 29 105 53 0 23 -46 50 -87 50 -15 0 -43 -9 -61 -20 -59 -36 -82 -22 -36 21 30 28 64 90 64 117 0 44 -66 59 -92 20z m-108 -254 c0 -8 -4 -14 -10 -14 -5 0 -10 9 -10 21 0 11 5 17 10 14 6 -3 10 -13 10 -21z" transform="translate(0,78) scale(0.1,-0.1)" stroke="none" fill="#C0D6BD"/>

</g>

<g id="2" transform="translate(176.0,0)scale(1,1)">

<path d="M783 253 c15 -16 27 -40 27 -53 0 -13 -12 -37 -27 -53 -16 -16 -21 -28 -13 -25 14 4 60 64 60 78 0 14 -46 74 -60 78 -8 3 -3 -9 13 -25z" transform="translate(0,78) scale(0.1,-0.1)" stroke="none" fill="#905D35"/>

<path d="M701 501 c-7 -16 -26 -41 -42 -57 -52 -50 -29 -60 42 -19 24 14 40 25 34 25 -5 -1 -21 -7 -35 -15 -34 -20 -46 -19 -28 3 20 22 51 83 45 88 -2 3 -10 -8 -16 -25z" transform="translate(0,78) scale(0.1,-0.1)" stroke="none" fill="#905D35"/>

<path d="M813 424 c33 -18 35 -51 4 -65 -13 -6 -50 -16 -82 -22 -53 -11 -89 -37 -50 -37 9 0 14 4 11 9 -4 5 13 12 36 16 24 4 60 14 81 22 30 12 37 20 37 42 0 20 -7 31 -25 39 -37 17 -45 14 -12 -4z" transform="translate(0,78) scale(0.1,-0.1)" stroke="none" fill="#905D35"/>

<path d="M557 381 c-3 -12 1 -22 9 -25 8 -3 14 -19 14 -35 0 -35 15 -48 36 -30 15 13 10 73 -9 97 -15 18 -44 14 -50 -7z" transform="translate(0,78) scale(0.1,-0.1)" stroke="none" fill="#FBD984"/>

<path d="M222 568 c-15 -15 -15 -51 0 -66 27 -27 78 -7 78 29 0 39 -52 63 -78 37z" transform="translate(0,78) scale(0.1,-0.1)" stroke="none" fill="#A19C60"/>

<path d="M583 224 c7 -87 -7 -131 -52 -161 -37 -25 -95 -31 -107 -11 -5 7 -7 29 -6 48 2 26 0 31 -7 20 -12 -17 -14 -50 -5 -74 8 -22 90 -20 128 2 37 22 66 76 66 124 l0 37 45 -44 c24 -25 52 -45 62 -45 11 1 3 9 -20 21 -40 21 -74 66 -84 112 -3 15 -10 30 -16 34 -7 4 -8 -17 -4 -63z" transform="translate(0,78) scale(0.1,-0.1)" stroke="none" fill="#905D35"/>

<path d="M253 337 c-51 -41 -68 -65 -38 -53 12 4 15 -4 15 -38 0 -58 12 -67 79 -54 48 8 96 35 140 76 23 22 25 5 3 -31 -11 -19 -22 -50 -26 -68 l-5 -34 12 36 c7 19 20 47 30 62 17 27 23 57 10 57 -4 0 -34 -19 -67 -42 -51 -36 -68 -42 -111 -43 l-50 0 0 52 c1 46 5 57 35 88 44 46 37 44 -27 -8z" transform="translate(0,78) scale(0.1,-0.1)" stroke="none" fill="#905D35"/>

<path d="M283 744 c-19 -8 -42 -31 -57 -57 -24 -41 -29 -44 -70 -44 -48 0 -89 -20 -106 -53 -9 -17 -6 -25 19 -50 16 -17 37 -30 45 -30 20 0 21 -19 2 -26 -21 -8 -36 -58 -27 -91 4 -15 19 -34 33 -40 36 -18 91 6 108 47 14 33 40 39 60 15 7 -8 19 -15 27 -15 8 0 11 -4 8 -10 -4 -6 20 -10 64 -10 l71 0 0 46 0 47 -23 -34 c-31 -46 -88 -52 -132 -14 -17 14 -34 25 -39 25 -4 0 -25 -17 -45 -39 -43 -45 -62 -54 -96 -41 -42 16 -32 84 14 102 l26 9 -31 27 c-17 15 -41 35 -52 44 -12 10 -22 22 -22 27 0 17 71 51 108 51 44 0 52 5 73 45 9 17 33 39 53 50 33 18 38 19 63 5 42 -23 43 -68 2 -108 -17 -17 -28 -35 -24 -41 8 -14 42 -14 50 -1 3 6 26 10 51 10 25 0 43 -4 40 -8 -2 -4 -1 -14 4 -21 6 -11 14 -9 40 9 32 23 33 23 63 5 30 -18 31 -18 45 3 16 24 60 30 80 10 8 -8 12 -8 12 -1 0 6 -13 16 -30 21 -24 9 -33 7 -55 -10 -22 -17 -30 -18 -54 -8 -23 9 -33 9 -49 -1 -18 -11 -23 -10 -40 11 -15 18 -23 22 -33 14 -21 -16 -79 -17 -79 -1 0 7 4 17 9 23 9 9 14 37 12 64 -5 46 -64 68 -118 44z m82 -154 c-3 -5 -10 -10 -16 -10 -5 0 -9 5 -9 10 0 6 7 10 16 10 8 0 12 -4 9 -10z m81 -197 c-10 -10 -19 5 -10 18 6 11 8 11 12 0 2 -7 1 -15 -2 -18z" transform="translate(0,78) scale(0.1,-0.1)" stroke="none" fill="#905D35"/>

<path d="M285 722 c-16 -10 -37 -32 -45 -48 -20 -38 -28 -44 -72 -44 -37 0 -108 -34 -108 -51 0 -5 10 -17 22 -27 11 -9 35 -29 52 -44 l31 -27 -26 -9 c-46 -18 -56 -86 -14 -102 34 -13 53 -4 96 41 20 22 41 39 45 39 5 0 22 -11 38 -25 41 -35 97 -34 125 2 12 14 24 38 28 52 3 14 13 32 20 40 8 7 11 21 7 30 -3 9 -7 22 -7 29 0 15 -83 17 -92 2 -8 -13 -42 -13 -50 1 -4 6 7 24 24 41 38 37 41 80 9 102 -29 21 -46 20 -83 -2z m45 -112 c0 -5 -7 -10 -16 -10 -8 0 -12 5 -9 10 3 6 10 10 16 10 5 0 9 -4 9 -10z m-120 -27 c-1 -13 -29 -59 -30 -48 0 21 13 55 21 55 5 0 9 -3 9 -7z m74 -19 c31 -30 13 -74 -30 -74 -37 0 -63 50 -38 75 20 19 48 19 68 -1z m-104 -54 c0 -5 -7 -10 -15 -10 -8 0 -15 5 -15 10 0 6 7 10 15 10 8 0 15 -4 15 -10z" transform="translate(0,78) scale(0.1,-0.1)" stroke="none" fill="#FBD984"/>

<path d="M628 578 c-14 -21 -15 -21 -45 -3 -29 17 -31 17 -57 0 -37 -25 -66 -89 -66 -147 l0 -48 -73 0 c-70 0 -74 -1 -107 -35 -30 -31 -34 -42 -35 -88 l0 -52 50 0 c43 1 60 7 111 43 33 23 63 42 67 42 13 0 7 -32 -11 -58 -30 -44 -54 -155 -39 -179 13 -21 71 -15 108 10 47 31 58 72 52 187 -5 80 -9 98 -26 111 -24 19 -15 39 17 39 29 0 42 -15 50 -61 5 -26 2 -40 -9 -49 -20 -17 -19 -33 5 -81 21 -40 64 -74 108 -85 31 -9 82 39 82 76 0 34 -43 75 -98 92 -23 7 -41 17 -39 23 2 5 30 15 62 22 79 15 105 29 105 53 0 23 -46 50 -87 50 -15 0 -43 -9 -61 -20 -59 -36 -82 -22 -36 21 30 28 64 90 64 117 0 44 -66 59 -92 20z m-108 -254 c0 -8 -4 -14 -10 -14 -5 0 -10 9 -10 21 0 11 5 17 10 14 6 -3 10 -13 10 -21z" transform="translate(0,78) scale(0.1,-0.1)" stroke="none" fill="#C0D6BD"/>

</g>

<g id="3" transform="translate(264.0,0)scale(1,1)">

<path d="M783 253 c15 -16 27 -40 27 -53 0 -13 -12 -37 -27 -53 -16 -16 -21 -28 -13 -25 14 4 60 64 60 78 0 14 -46 74 -60 78 -8 3 -3 -9 13 -25z" transform="translate(0,78) scale(0.1,-0.1)" stroke="none" fill="#905D35"/>

<path d="M701 501 c-7 -16 -26 -41 -42 -57 -52 -50 -29 -60 42 -19 24 14 40 25 34 25 -5 -1 -21 -7 -35 -15 -34 -20 -46 -19 -28 3 20 22 51 83 45 88 -2 3 -10 -8 -16 -25z" transform="translate(0,78) scale(0.1,-0.1)" stroke="none" fill="#905D35"/>

<path d="M813 424 c33 -18 35 -51 4 -65 -13 -6 -50 -16 -82 -22 -53 -11 -89 -37 -50 -37 9 0 14 4 11 9 -4 5 13 12 36 16 24 4 60 14 81 22 30 12 37 20 37 42 0 20 -7 31 -25 39 -37 17 -45 14 -12 -4z" transform="translate(0,78) scale(0.1,-0.1)" stroke="none" fill="#905D35"/>

<path d="M557 381 c-3 -12 1 -22 9 -25 8 -3 14 -19 14 -35 0 -35 15 -48 36 -30 15 13 10 73 -9 97 -15 18 -44 14 -50 -7z" transform="translate(0,78) scale(0.1,-0.1)" stroke="none" fill="#FBD984"/>

<path d="M222 568 c-15 -15 -15 -51 0 -66 27 -27 78 -7 78 29 0 39 -52 63 -78 37z" transform="translate(0,78) scale(0.1,-0.1)" stroke="none" fill="#A19C60"/>

<path d="M583 224 c7 -87 -7 -131 -52 -161 -37 -25 -95 -31 -107 -11 -5 7 -7 29 -6 48 2 26 0 31 -7 20 -12 -17 -14 -50 -5 -74 8 -22 90 -20 128 2 37 22 66 76 66 124 l0 37 45 -44 c24 -25 52 -45 62 -45 11 1 3 9 -20 21 -40 21 -74 66 -84 112 -3 15 -10 30 -16 34 -7 4 -8 -17 -4 -63z" transform="translate(0,78) scale(0.1,-0.1)" stroke="none" fill="#905D35"/>

<path d="M253 337 c-51 -41 -68 -65 -38 -53 12 4 15 -4 15 -38 0 -58 12 -67 79 -54 48 8 96 35 140 76 23 22 25 5 3 -31 -11 -19 -22 -50 -26 -68 l-5 -34 12 36 c7 19 20 47 30 62 17 27 23 57 10 57 -4 0 -34 -19 -67 -42 -51 -36 -68 -42 -111 -43 l-50 0 0 52 c1 46 5 57 35 88 44 46 37 44 -27 -8z" transform="translate(0,78) scale(0.1,-0.1)" stroke="none" fill="#905D35"/>

<path d="M283 744 c-19 -8 -42 -31 -57 -57 -24 -41 -29 -44 -70 -44 -48 0 -89 -20 -106 -53 -9 -17 -6 -25 19 -50 16 -17 37 -30 45 -30 20 0 21 -19 2 -26 -21 -8 -36 -58 -27 -91 4 -15 19 -34 33 -40 36 -18 91 6 108 47 14 33 40 39 60 15 7 -8 19 -15 27 -15 8 0 11 -4 8 -10 -4 -6 20 -10 64 -10 l71 0 0 46 0 47 -23 -34 c-31 -46 -88 -52 -132 -14 -17 14 -34 25 -39 25 -4 0 -25 -17 -45 -39 -43 -45 -62 -54 -96 -41 -42 16 -32 84 14 102 l26 9 -31 27 c-17 15 -41 35 -52 44 -12 10 -22 22 -22 27 0 17 71 51 108 51 44 0 52 5 73 45 9 17 33 39 53 50 33 18 38 19 63 5 42 -23 43 -68 2 -108 -17 -17 -28 -35 -24 -41 8 -14 42 -14 50 -1 3 6 26 10 51 10 25 0 43 -4 40 -8 -2 -4 -1 -14 4 -21 6 -11 14 -9 40 9 32 23 33 23 63 5 30 -18 31 -18 45 3 16 24 60 30 80 10 8 -8 12 -8 12 -1 0 6 -13 16 -30 21 -24 9 -33 7 -55 -10 -22 -17 -30 -18 -54 -8 -23 9 -33 9 -49 -1 -18 -11 -23 -10 -40 11 -15 18 -23 22 -33 14 -21 -16 -79 -17 -79 -1 0 7 4 17 9 23 9 9 14 37 12 64 -5 46 -64 68 -118 44z m82 -154 c-3 -5 -10 -10 -16 -10 -5 0 -9 5 -9 10 0 6 7 10 16 10 8 0 12 -4 9 -10z m81 -197 c-10 -10 -19 5 -10 18 6 11 8 11 12 0 2 -7 1 -15 -2 -18z" transform="translate(0,78) scale(0.1,-0.1)" stroke="none" fill="#905D35"/>

<path d="M285 722 c-16 -10 -37 -32 -45 -48 -20 -38 -28 -44 -72 -44 -37 0 -108 -34 -108 -51 0 -5 10 -17 22 -27 11 -9 35 -29 52 -44 l31 -27 -26 -9 c-46 -18 -56 -86 -14 -102 34 -13 53 -4 96 41 20 22 41 39 45 39 5 0 22 -11 38 -25 41 -35 97 -34 125 2 12 14 24 38 28 52 3 14 13 32 20 40 8 7 11 21 7 30 -3 9 -7 22 -7 29 0 15 -83 17 -92 2 -8 -13 -42 -13 -50 1 -4 6 7 24 24 41 38 37 41 80 9 102 -29 21 -46 20 -83 -2z m45 -112 c0 -5 -7 -10 -16 -10 -8 0 -12 5 -9 10 3 6 10 10 16 10 5 0 9 -4 9 -10z m-120 -27 c-1 -13 -29 -59 -30 -48 0 21 13 55 21 55 5 0 9 -3 9 -7z m74 -19 c31 -30 13 -74 -30 -74 -37 0 -63 50 -38 75 20 19 48 19 68 -1z m-104 -54 c0 -5 -7 -10 -15 -10 -8 0 -15 5 -15 10 0 6 7 10 15 10 8 0 15 -4 15 -10z" transform="translate(0,78) scale(0.1,-0.1)" stroke="none" fill="#FBD984"/>

<path d="M628 578 c-14 -21 -15 -21 -45 -3 -29 17 -31 17 -57 0 -37 -25 -66 -89 -66 -147 l0 -48 -73 0 c-70 0 -74 -1 -107 -35 -30 -31 -34 -42 -35 -88 l0 -52 50 0 c43 1 60 7 111 43 33 23 63 42 67 42 13 0 7 -32 -11 -58 -30 -44 -54 -155 -39 -179 13 -21 71 -15 108 10 47 31 58 72 52 187 -5 80 -9 98 -26 111 -24 19 -15 39 17 39 29 0 42 -15 50 -61 5 -26 2 -40 -9 -49 -20 -17 -19 -33 5 -81 21 -40 64 -74 108 -85 31 -9 82 39 82 76 0 34 -43 75 -98 92 -23 7 -41 17 -39 23 2 5 30 15 62 22 79 15 105 29 105 53 0 23 -46 50 -87 50 -15 0 -43 -9 -61 -20 -59 -36 -82 -22 -36 21 30 28 64 90 64 117 0 44 -66 59 -92 20z m-108 -254 c0 -8 -4 -14 -10 -14 -5 0 -10 9 -10 21 0 11 5 17 10 14 6 -3 10 -13 10 -21z" transform="translate(0,78) scale(0.1,-0.1)" stroke="none" fill="#C0D6BD"/>

</g>

<g id="4" transform="translate(352.0,0)scale(1,1)">

<path d="M783 253 c15 -16 27 -40 27 -53 0 -13 -12 -37 -27 -53 -16 -16 -21 -28 -13 -25 14 4 60 64 60 78 0 14 -46 74 -60 78 -8 3 -3 -9 13 -25z" transform="translate(0,78) scale(0.1,-0.1)" stroke="none" fill="#905D35"/>

<path d="M701 501 c-7 -16 -26 -41 -42 -57 -52 -50 -29 -60 42 -19 24 14 40 25 34 25 -5 -1 -21 -7 -35 -15 -34 -20 -46 -19 -28 3 20 22 51 83 45 88 -2 3 -10 -8 -16 -25z" transform="translate(0,78) scale(0.1,-0.1)" stroke="none" fill="#905D35"/>

<path d="M813 424 c33 -18 35 -51 4 -65 -13 -6 -50 -16 -82 -22 -53 -11 -89 -37 -50 -37 9 0 14 4 11 9 -4 5 13 12 36 16 24 4 60 14 81 22 30 12 37 20 37 42 0 20 -7 31 -25 39 -37 17 -45 14 -12 -4z" transform="translate(0,78) scale(0.1,-0.1)" stroke="none" fill="#905D35"/>

<path d="M557 381 c-3 -12 1 -22 9 -25 8 -3 14 -19 14 -35 0 -35 15 -48 36 -30 15 13 10 73 -9 97 -15 18 -44 14 -50 -7z" transform="translate(0,78) scale(0.1,-0.1)" stroke="none" fill="#FBD984"/>

<path d="M222 568 c-15 -15 -15 -51 0 -66 27 -27 78 -7 78 29 0 39 -52 63 -78 37z" transform="translate(0,78) scale(0.1,-0.1)" stroke="none" fill="#A19C60"/>

<path d="M583 224 c7 -87 -7 -131 -52 -161 -37 -25 -95 -31 -107 -11 -5 7 -7 29 -6 48 2 26 0 31 -7 20 -12 -17 -14 -50 -5 -74 8 -22 90 -20 128 2 37 22 66 76 66 124 l0 37 45 -44 c24 -25 52 -45 62 -45 11 1 3 9 -20 21 -40 21 -74 66 -84 112 -3 15 -10 30 -16 34 -7 4 -8 -17 -4 -63z" transform="translate(0,78) scale(0.1,-0.1)" stroke="none" fill="#905D35"/>

<path d="M253 337 c-51 -41 -68 -65 -38 -53 12 4 15 -4 15 -38 0 -58 12 -67 79 -54 48 8 96 35 140 76 23 22 25 5 3 -31 -11 -19 -22 -50 -26 -68 l-5 -34 12 36 c7 19 20 47 30 62 17 27 23 57 10 57 -4 0 -34 -19 -67 -42 -51 -36 -68 -42 -111 -43 l-50 0 0 52 c1 46 5 57 35 88 44 46 37 44 -27 -8z" transform="translate(0,78) scale(0.1,-0.1)" stroke="none" fill="#905D35"/>

<path d="M283 744 c-19 -8 -42 -31 -57 -57 -24 -41 -29 -44 -70 -44 -48 0 -89 -20 -106 -53 -9 -17 -6 -25 19 -50 16 -17 37 -30 45 -30 20 0 21 -19 2 -26 -21 -8 -36 -58 -27 -91 4 -15 19 -34 33 -40 36 -18 91 6 108 47 14 33 40 39 60 15 7 -8 19 -15 27 -15 8 0 11 -4 8 -10 -4 -6 20 -10 64 -10 l71 0 0 46 0 47 -23 -34 c-31 -46 -88 -52 -132 -14 -17 14 -34 25 -39 25 -4 0 -25 -17 -45 -39 -43 -45 -62 -54 -96 -41 -42 16 -32 84 14 102 l26 9 -31 27 c-17 15 -41 35 -52 44 -12 10 -22 22 -22 27 0 17 71 51 108 51 44 0 52 5 73 45 9 17 33 39 53 50 33 18 38 19 63 5 42 -23 43 -68 2 -108 -17 -17 -28 -35 -24 -41 8 -14 42 -14 50 -1 3 6 26 10 51 10 25 0 43 -4 40 -8 -2 -4 -1 -14 4 -21 6 -11 14 -9 40 9 32 23 33 23 63 5 30 -18 31 -18 45 3 16 24 60 30 80 10 8 -8 12 -8 12 -1 0 6 -13 16 -30 21 -24 9 -33 7 -55 -10 -22 -17 -30 -18 -54 -8 -23 9 -33 9 -49 -1 -18 -11 -23 -10 -40 11 -15 18 -23 22 -33 14 -21 -16 -79 -17 -79 -1 0 7 4 17 9 23 9 9 14 37 12 64 -5 46 -64 68 -118 44z m82 -154 c-3 -5 -10 -10 -16 -10 -5 0 -9 5 -9 10 0 6 7 10 16 10 8 0 12 -4 9 -10z m81 -197 c-10 -10 -19 5 -10 18 6 11 8 11 12 0 2 -7 1 -15 -2 -18z" transform="translate(0,78) scale(0.1,-0.1)" stroke="none" fill="#905D35"/>

<path d="M285 722 c-16 -10 -37 -32 -45 -48 -20 -38 -28 -44 -72 -44 -37 0 -108 -34 -108 -51 0 -5 10 -17 22 -27 11 -9 35 -29 52 -44 l31 -27 -26 -9 c-46 -18 -56 -86 -14 -102 34 -13 53 -4 96 41 20 22 41 39 45 39 5 0 22 -11 38 -25 41 -35 97 -34 125 2 12 14 24 38 28 52 3 14 13 32 20 40 8 7 11 21 7 30 -3 9 -7 22 -7 29 0 15 -83 17 -92 2 -8 -13 -42 -13 -50 1 -4 6 7 24 24 41 38 37 41 80 9 102 -29 21 -46 20 -83 -2z m45 -112 c0 -5 -7 -10 -16 -10 -8 0 -12 5 -9 10 3 6 10 10 16 10 5 0 9 -4 9 -10z m-120 -27 c-1 -13 -29 -59 -30 -48 0 21 13 55 21 55 5 0 9 -3 9 -7z m74 -19 c31 -30 13 -74 -30 -74 -37 0 -63 50 -38 75 20 19 48 19 68 -1z m-104 -54 c0 -5 -7 -10 -15 -10 -8 0 -15 5 -15 10 0 6 7 10 15 10 8 0 15 -4 15 -10z" transform="translate(0,78) scale(0.1,-0.1)" stroke="none" fill="#FBD984"/>

<path d="M628 578 c-14 -21 -15 -21 -45 -3 -29 17 -31 17 -57 0 -37 -25 -66 -89 -66 -147 l0 -48 -73 0 c-70 0 -74 -1 -107 -35 -30 -31 -34 -42 -35 -88 l0 -52 50 0 c43 1 60 7 111 43 33 23 63 42 67 42 13 0 7 -32 -11 -58 -30 -44 -54 -155 -39 -179 13 -21 71 -15 108 10 47 31 58 72 52 187 -5 80 -9 98 -26 111 -24 19 -15 39 17 39 29 0 42 -15 50 -61 5 -26 2 -40 -9 -49 -20 -17 -19 -33 5 -81 21 -40 64 -74 108 -85 31 -9 82 39 82 76 0 34 -43 75 -98 92 -23 7 -41 17 -39 23 2 5 30 15 62 22 79 15 105 29 105 53 0 23 -46 50 -87 50 -15 0 -43 -9 -61 -20 -59 -36 -82 -22 -36 21 30 28 64 90 64 117 0 44 -66 59 -92 20z m-108 -254 c0 -8 -4 -14 -10 -14 -5 0 -10 9 -10 21 0 11 5 17 10 14 6 -3 10 -13 10 -21z" transform="translate(0,78) scale(0.1,-0.1)" stroke="none" fill="#C0D6BD"/>

</g>

</g>
<g id="row1" transform="translate(-33,78.0)">
<g id="0" transform="translate(0.0,0)scale(1,1)">

<path d="M783 253 c15 -16 27 -40 27 -53 0 -13 -12 -37 -27 -53 -16 -16 -21 -28 -13 -25 14 4 60 64 60 78 0 14 -46 74 -60 78 -8 3 -3 -9 13 -25z" transform="translate(0,78) scale(0.1,-0.1)" stroke="none" fill="#905D35"/>

<path d="M701 501 c-7 -16 -26 -41 -42 -57 -52 -50 -29 -60 42 -19 24 14 40 25 34 25 -5 -1 -21 -7 -35 -15 -34 -20 -46 -19 -28 3 20 22 51 83 45 88 -2 3 -10 -8 -16 -25z" transform="translate(0,78) scale(0.1,-0.1)" stroke="none" fill="#905D35"/>

<path d="M813 424 c33 -18 35 -51 4 -65 -13 -6 -50 -16 -82 -22 -53 -11 -89 -37 -50 -37 9 0 14 4 11 9 -4 5 13 12 36 16 24 4 60 14 81 22 30 12 37 20 37 42 0 20 -7 31 -25 39 -37 17 -45 14 -12 -4z" transform="translate(0,78) scale(0.1,-0.1)" stroke="none" fill="#905D35"/>

<path d="M557 381 c-3 -12 1 -22 9 -25 8 -3 14 -19 14 -35 0 -35 15 -48 36 -30 15 13 10 73 -9 97 -15 18 -44 14 -50 -7z" transform="translate(0,78) scale(0.1,-0.1)" stroke="none" fill="#FBD984"/>

<path d="M222 568 c-15 -15 -15 -51 0 -66 27 -27 78 -7 78 29 0 39 -52 63 -78 37z" transform="translate(0,78) scale(0.1,-0.1)" stroke="none" fill="#A19C60"/>

<path d="M583 224 c7 -87 -7 -131 -52 -161 -37 -25 -95 -31 -107 -11 -5 7 -7 29 -6 48 2 26 0 31 -7 20 -12 -17 -14 -50 -5 -74 8 -22 90 -20 128 2 37 22 66 76 66 124 l0 37 45 -44 c24 -25 52 -45 62 -45 11 1 3 9 -20 21 -40 21 -74 66 -84 112 -3 15 -10 30 -16 34 -7 4 -8 -17 -4 -63z" transform="translate(0,78) scale(0.1,-0.1)" stroke="none" fill="#905D35"/>

<path d="M253 337 c-51 -41 -68 -65 -38 -53 12 4 15 -4 15 -38 0 -58 12 -67 79 -54 48 8 96 35 140 76 23 22 25 5 3 -31 -11 -19 -22 -50 -26 -68 l-5 -34 12 36 c7 19 20 47 30 62 17 27 23 57 10 57 -4 0 -34 -19 -67 -42 -51 -36 -68 -42 -111 -43 l-50 0 0 52 c1 46 5 57 35 88 44 46 37 44 -27 -8z" transform="translate(0,78) scale(0.1,-0.1)" stroke="none" fill="#905D35"/>

<path d="M283 744 c-19 -8 -42 -31 -57 -57 -24 -41 -29 -44 -70 -44 -48 0 -89 -20 -106 -53 -9 -17 -6 -25 19 -50 16 -17 37 -30 45 -30 20 0 21 -19 2 -26 -21 -8 -36 -58 -27 -91 4 -15 19 -34 33 -40 36 -18 91 6 108 47 14 33 40 39 60 15 7 -8 19 -15 27 -15 8 0 11 -4 8 -10 -4 -6 20 -10 64 -10 l71 0 0 46 0 47 -23 -34 c-31 -46 -88 -52 -132 -14 -17 14 -34 25 -39 25 -4 0 -25 -17 -45 -39 -43 -45 -62 -54 -96 -41 -42 16 -32 84 14 102 l26 9 -31 27 c-17 15 -41 35 -52 44 -12 10 -22 22 -22 27 0 17 71 51 108 51 44 0 52 5 73 45 9 17 33 39 53 50 33 18 38 19 63 5 42 -23 43 -68 2 -108 -17 -17 -28 -35 -24 -41 8 -14 42 -14 50 -1 3 6 26 10 51 10 25 0 43 -4 40 -8 -2 -4 -1 -14 4 -21 6 -11 14 -9 40 9 32 23 33 23 63 5 30 -18 31 -18 45 3 16 24 60 30 80 10 8 -8 12 -8 12 -1 0 6 -13 16 -30 21 -24 9 -33 7 -55 -10 -22 -17 -30 -18 -54 -8 -23 9 -33 9 -49 -1 -18 -11 -23 -10 -40 11 -15 18 -23 22 -33 14 -21 -16 -79 -17 -79 -1 0 7 4 17 9 23 9 9 14 37 12 64 -5 46 -64 68 -118 44z m82 -154 c-3 -5 -10 -10 -16 -10 -5 0 -9 5 -9 10 0 6 7 10 16 10 8 0 12 -4 9 -10z m81 -197 c-10 -10 -19 5 -10 18 6 11 8 11 12 0 2 -7 1 -15 -2 -18z" transform="translate(0,78) scale(0.1,-0.1)" stroke="none" fill="#905D35"/>

<path d="M285 722 c-16 -10 -37 -32 -45 -48 -20 -38 -28 -44 -72 -44 -37 0 -108 -34 -108 -51 0 -5 10 -17 22 -27 11 -9 35 -29 52 -44 l31 -27 -26 -9 c-46 -18 -56 -86 -14 -102 34 -13 53 -4 96 41 20 22 41 39 45 39 5 0 22 -11 38 -25 41 -35 97 -34 125 2 12 14 24 38 28 52 3 14 13 32 20 40 8 7 11 21 7 30 -3 9 -7 22 -7 29 0 15 -83 17 -92 2 -8 -13 -42 -13 -50 1 -4 6 7 24 24 41 38 37 41 80 9 102 -29 21 -46 20 -83 -2z m45 -112 c0 -5 -7 -10 -16 -10 -8 0 -12 5 -9 10 3 6 10 10 16 10 5 0 9 -4 9 -10z m-120 -27 c-1 -13 -29 -59 -30 -48 0 21 13 55 21 55 5 0 9 -3 9 -7z m74 -19 c31 -30 13 -74 -30 -74 -37 0 -63 50 -38 75 20 19 48 19 68 -1z m-104 -54 c0 -5 -7 -10 -15 -10 -8 0 -15 5 -15 10 0 6 7 10 15 10 8 0 15 -4 15 -10z" transform="translate(0,78) scale(0.1,-0.1)" stroke="none" fill="#FBD984"/>

<path d="M628 578 c-14 -21 -15 -21 -45 -3 -29 17 -31 17 -57 0 -37 -25 -66 -89 -66 -147 l0 -48 -73 0 c-70 0 -74 -1 -107 -35 -30 -31 -34 -42 -35 -88 l0 -52 50 0 c43 1 60 7 111 43 33 23 63 42 67 42 13 0 7 -32 -11 -58 -30 -44 -54 -155 -39 -179 13 -21 71 -15 108 10 47 31 58 72 52 187 -5 80 -9 98 -26 111 -24 19 -15 39 17 39 29 0 42 -15 50 -61 5 -26 2 -40 -9 -49 -20 -17 -19 -33 5 -81 21 -40 64 -74 108 -85 31 -9 82 39 82 76 0 34 -43 75 -98 92 -23 7 -41 17 -39 23 2 5 30 15 62 22 79 15 105 29 105 53 0 23 -46 50 -87 50 -15 0 -43 -9 -61 -20 -59 -36 -82 -22 -36 21 30 28 64 90 64 117 0 44 -66 59 -92 20z m-108 -254 c0 -8 -4 -14 -10 -14 -5 0 -10 9 -10 21 0 11 5 17 10 14 6 -3 10 -13 10 -21z" transform="translate(0,78) scale(0.1,-0.1)" stroke="none" fill="#C0D6BD"/>

</g>

<g id="1" transform="translate(88.0,0)scale(1,1)">

<path d="M783 253 c15 -16 27 -40 27 -53 0 -13 -12 -37 -27 -53 -16 -16 -21 -28 -13 -25 14 4 60 64 60 78 0 14 -46 74 -60 78 -8 3 -3 -9 13 -25z" transform="translate(0,78) scale(0.1,-0.1)" stroke="none" fill="#905D35"/>

<path d="M701 501 c-7 -16 -26 -41 -42 -57 -52 -50 -29 -60 42 -19 24 14 40 25 34 25 -5 -1 -21 -7 -35 -15 -34 -20 -46 -19 -28 3 20 22 51 83 45 88 -2 3 -10 -8 -16 -25z" transform="translate(0,78) scale(0.1,-0.1)" stroke="none" fill="#905D35"/>

<path d="M813 424 c33 -18 35 -51 4 -65 -13 -6 -50 -16 -82 -22 -53 -11 -89 -37 -50 -37 9 0 14 4 11 9 -4 5 13 12 36 16 24 4 60 14 81 22 30 12 37 20 37 42 0 20 -7 31 -25 39 -37 17 -45 14 -12 -4z" transform="translate(0,78) scale(0.1,-0.1)" stroke="none" fill="#905D35"/>

<path d="M557 381 c-3 -12 1 -22 9 -25 8 -3 14 -19 14 -35 0 -35 15 -48 36 -30 15 13 10 73 -9 97 -15 18 -44 14 -50 -7z" transform="translate(0,78) scale(0.1,-0.1)" stroke="none" fill="#FBD984"/>

<path d="M222 568 c-15 -15 -15 -51 0 -66 27 -27 78 -7 78 29 0 39 -52 63 -78 37z" transform="translate(0,78) scale(0.1,-0.1)" stroke="none" fill="#A19C60"/>

<path d="M583 224 c7 -87 -7 -131 -52 -161 -37 -25 -95 -31 -107 -11 -5 7 -7 29 -6 48 2 26 0 31 -7 20 -12 -17 -14 -50 -5 -74 8 -22 90 -20 128 2 37 22 66 76 66 124 l0 37 45 -44 c24 -25 52 -45 62 -45 11 1 3 9 -20 21 -40 21 -74 66 -84 112 -3 15 -10 30 -16 34 -7 4 -8 -17 -4 -63z" transform="translate(0,78) scale(0.1,-0.1)" stroke="none" fill="#905D35"/>

<path d="M253 337 c-51 -41 -68 -65 -38 -53 12 4 15 -4 15 -38 0 -58 12 -67 79 -54 48 8 96 35 140 76 23 22 25 5 3 -31 -11 -19 -22 -50 -26 -68 l-5 -34 12 36 c7 19 20 47 30 62 17 27 23 57 10 57 -4 0 -34 -19 -67 -42 -51 -36 -68 -42 -111 -43 l-50 0 0 52 c1 46 5 57 35 88 44 46 37 44 -27 -8z" transform="translate(0,78) scale(0.1,-0.1)" stroke="none" fill="#905D35"/>

<path d="M283 744 c-19 -8 -42 -31 -57 -57 -24 -41 -29 -44 -70 -44 -48 0 -89 -20 -106 -53 -9 -17 -6 -25 19 -50 16 -17 37 -30 45 -30 20 0 21 -19 2 -26 -21 -8 -36 -58 -27 -91 4 -15 19 -34 33 -40 36 -18 91 6 108 47 14 33 40 39 60 15 7 -8 19 -15 27 -15 8 0 11 -4 8 -10 -4 -6 20 -10 64 -10 l71 0 0 46 0 47 -23 -34 c-31 -46 -88 -52 -132 -14 -17 14 -34 25 -39 25 -4 0 -25 -17 -45 -39 -43 -45 -62 -54 -96 -41 -42 16 -32 84 14 102 l26 9 -31 27 c-17 15 -41 35 -52 44 -12 10 -22 22 -22 27 0 17 71 51 108 51 44 0 52 5 73 45 9 17 33 39 53 50 33 18 38 19 63 5 42 -23 43 -68 2 -108 -17 -17 -28 -35 -24 -41 8 -14 42 -14 50 -1 3 6 26 10 51 10 25 0 43 -4 40 -8 -2 -4 -1 -14 4 -21 6 -11 14 -9 40 9 32 23 33 23 63 5 30 -18 31 -18 45 3 16 24 60 30 80 10 8 -8 12 -8 12 -1 0 6 -13 16 -30 21 -24 9 -33 7 -55 -10 -22 -17 -30 -18 -54 -8 -23 9 -33 9 -49 -1 -18 -11 -23 -10 -40 11 -15 18 -23 22 -33 14 -21 -16 -79 -17 -79 -1 0 7 4 17 9 23 9 9 14 37 12 64 -5 46 -64 68 -118 44z m82 -154 c-3 -5 -10 -10 -16 -10 -5 0 -9 5 -9 10 0 6 7 10 16 10 8 0 12 -4 9 -10z m81 -197 c-10 -10 -19 5 -10 18 6 11 8 11 12 0 2 -7 1 -15 -2 -18z" transform="translate(0,78) scale(0.1,-0.1)" stroke="none" fill="#905D35"/>

<path d="M285 722 c-16 -10 -37 -32 -45 -48 -20 -38 -28 -44 -72 -44 -37 0 -108 -34 -108 -51 0 -5 10 -17 22 -27 11 -9 35 -29 52 -44 l31 -27 -26 -9 c-46 -18 -56 -86 -14 -102 34 -13 53 -4 96 41 20 22 41 39 45 39 5 0 22 -11 38 -25 41 -35 97 -34 125 2 12 14 24 38 28 52 3 14 13 32 20 40 8 7 11 21 7 30 -3 9 -7 22 -7 29 0 15 -83 17 -92 2 -8 -13 -42 -13 -50 1 -4 6 7 24 24 41 38 37 41 80 9 102 -29 21 -46 20 -83 -2z m45 -112 c0 -5 -7 -10 -16 -10 -8 0 -12 5 -9 10 3 6 10 10 16 10 5 0 9 -4 9 -10z m-120 -27 c-1 -13 -29 -59 -30 -48 0 21 13 55 21 55 5 0 9 -3 9 -7z m74 -19 c31 -30 13 -74 -30 -74 -37 0 -63 50 -38 75 20 19 48 19 68 -1z m-104 -54 c0 -5 -7 -10 -15 -10 -8 0 -15 5 -15 10 0 6 7 10 15 10 8 0 15 -4 15 -10z" transform="translate(0,78) scale(0.1,-0.1)" stroke="none" fill="#FBD984"/>

<path d="M628 578 c-14 -21 -15 -21 -45 -3 -29 17 -31 17 -57 0 -37 -25 -66 -89 -66 -147 l0 -48 -73 0 c-70 0 -74 -1 -107 -35 -30 -31 -34 -42 -35 -88 l0 -52 50 0 c43 1 60 7 111 43 33 23 63 42 67 42 13 0 7 -32 -11 -58 -30 -44 -54 -155 -39 -179 13 -21 71 -15 108 10 47 31 58 72 52 187 -5 80 -9 98 -26 111 -24 19 -15 39 17 39 29 0 42 -15 50 -61 5 -26 2 -40 -9 -49 -20 -17 -19 -33 5 -81 21 -40 64 -74 108 -85 31 -9 82 39 82 76 0 34 -43 75 -98 92 -23 7 -41 17 -39 23 2 5 30 15 62 22 79 15 105 29 105 53 0 23 -46 50 -87 50 -15 0 -43 -9 -61 -20 -59 -36 -82 -22 -36 21 30 28 64 90 64 117 0 44 -66 59 -92 20z m-108 -254 c0 -8 -4 -14 -10 -14 -5 0 -10 9 -10 21 0 11 5 17 10 14 6 -3 10 -13 10 -21z" transform="translate(0,78) scale(0.1,-0.1)" stroke="none" fill="#C0D6BD"/>

</g>

<g id="2" transform="translate(176.0,0)scale(1,1)">

<path d="M783 253 c15 -16 27 -40 27 -53 0 -13 -12 -37 -27 -53 -16 -16 -21 -28 -13 -25 14 4 60 64 60 78 0 14 -46 74 -60 78 -8 3 -3 -9 13 -25z" transform="translate(0,78) scale(0.1,-0.1)" stroke="none" fill="#905D35"/>

<path d="M701 501 c-7 -16 -26 -41 -42 -57 -52 -50 -29 -60 42 -19 24 14 40 25 34 25 -5 -1 -21 -7 -35 -15 -34 -20 -46 -19 -28 3 20 22 51 83 45 88 -2 3 -10 -8 -16 -25z" transform="translate(0,78) scale(0.1,-0.1)" stroke="none" fill="#905D35"/>

<path d="M813 424 c33 -18 35 -51 4 -65 -13 -6 -50 -16 -82 -22 -53 -11 -89 -37 -50 -37 9 0 14 4 11 9 -4 5 13 12 36 16 24 4 60 14 81 22 30 12 37 20 37 42 0 20 -7 31 -25 39 -37 17 -45 14 -12 -4z" transform="translate(0,78) scale(0.1,-0.1)" stroke="none" fill="#905D35"/>

<path d="M557 381 c-3 -12 1 -22 9 -25 8 -3 14 -19 14 -35 0 -35 15 -48 36 -30 15 13 10 73 -9 97 -15 18 -44 14 -50 -7z" transform="translate(0,78) scale(0.1,-0.1)" stroke="none" fill="#FBD984"/>

<path d="M222 568 c-15 -15 -15 -51 0 -66 27 -27 78 -7 78 29 0 39 -52 63 -78 37z" transform="translate(0,78) scale(0.1,-0.1)" stroke="none" fill="#A19C60"/>

<path d="M583 224 c7 -87 -7 -131 -52 -161 -37 -25 -95 -31 -107 -11 -5 7 -7 29 -6 48 2 26 0 31 -7 20 -12 -17 -14 -50 -5 -74 8 -22 90 -20 128 2 37 22 66 76 66 124 l0 37 45 -44 c24 -25 52 -45 62 -45 11 1 3 9 -20 21 -40 21 -74 66 -84 112 -3 15 -10 30 -16 34 -7 4 -8 -17 -4 -63z" transform="translate(0,78) scale(0.1,-0.1)" stroke="none" fill="#905D35"/>

<path d="M253 337 c-51 -41 -68 -65 -38 -53 12 4 15 -4 15 -38 0 -58 12 -67 79 -54 48 8 96 35 140 76 23 22 25 5 3 -31 -11 -19 -22 -50 -26 -68 l-5 -34 12 36 c7 19 20 47 30 62 17 27 23 57 10 57 -4 0 -34 -19 -67 -42 -51 -36 -68 -42 -111 -43 l-50 0 0 52 c1 46 5 57 35 88 44 46 37 44 -27 -8z" transform="translate(0,78) scale(0.1,-0.1)" stroke="none" fill="#905D35"/>

<path d="M283 744 c-19 -8 -42 -31 -57 -57 -24 -41 -29 -44 -70 -44 -48 0 -89 -20 -106 -53 -9 -17 -6 -25 19 -50 16 -17 37 -30 45 -30 20 0 21 -19 2 -26 -21 -8 -36 -58 -27 -91 4 -15 19 -34 33 -40 36 -18 91 6 108 47 14 33 40 39 60 15 7 -8 19 -15 27 -15 8 0 11 -4 8 -10 -4 -6 20 -10 64 -10 l71 0 0 46 0 47 -23 -34 c-31 -46 -88 -52 -132 -14 -17 14 -34 25 -39 25 -4 0 -25 -17 -45 -39 -43 -45 -62 -54 -96 -41 -42 16 -32 84 14 102 l26 9 -31 27 c-17 15 -41 35 -52 44 -12 10 -22 22 -22 27 0 17 71 51 108 51 44 0 52 5 73 45 9 17 33 39 53 50 33 18 38 19 63 5 42 -23 43 -68 2 -108 -17 -17 -28 -35 -24 -41 8 -14 42 -14 50 -1 3 6 26 10 51 10 25 0 43 -4 40 -8 -2 -4 -1 -14 4 -21 6 -11 14 -9 40 9 32 23 33 23 63 5 30 -18 31 -18 45 3 16 24 60 30 80 10 8 -8 12 -8 12 -1 0 6 -13 16 -30 21 -24 9 -33 7 -55 -10 -22 -17 -30 -18 -54 -8 -23 9 -33 9 -49 -1 -18 -11 -23 -10 -40 11 -15 18 -23 22 -33 14 -21 -16 -79 -17 -79 -1 0 7 4 17 9 23 9 9 14 37 12 64 -5 46 -64 68 -118 44z m82 -154 c-3 -5 -10 -10 -16 -10 -5 0 -9 5 -9 10 0 6 7 10 16 10 8 0 12 -4 9 -10z m81 -197 c-10 -10 -19 5 -10 18 6 11 8 11 12 0 2 -7 1 -15 -2 -18z" transform="translate(0,78) scale(0.1,-0.1)" stroke="none" fill="#905D35"/>

<path d="M285 722 c-16 -10 -37 -32 -45 -48 -20 -38 -28 -44 -72 -44 -37 0 -108 -34 -108 -51 0 -5 10 -17 22 -27 11 -9 35 -29 52 -44 l31 -27 -26 -9 c-46 -18 -56 -86 -14 -102 34 -13 53 -4 96 41 20 22 41 39 45 39 5 0 22 -11 38 -25 41 -35 97 -34 125 2 12 14 24 38 28 52 3 14 13 32 20 40 8 7 11 21 7 30 -3 9 -7 22 -7 29 0 15 -83 17 -92 2 -8 -13 -42 -13 -50 1 -4 6 7 24 24 41 38 37 41 80 9 102 -29 21 -46 20 -83 -2z m45 -112 c0 -5 -7 -10 -16 -10 -8 0 -12 5 -9 10 3 6 10 10 16 10 5 0 9 -4 9 -10z m-120 -27 c-1 -13 -29 -59 -30 -48 0 21 13 55 21 55 5 0 9 -3 9 -7z m74 -19 c31 -30 13 -74 -30 -74 -37 0 -63 50 -38 75 20 19 48 19 68 -1z m-104 -54 c0 -5 -7 -10 -15 -10 -8 0 -15 5 -15 10 0 6 7 10 15 10 8 0 15 -4 15 -10z" transform="translate(0,78) scale(0.1,-0.1)" stroke="none" fill="#FBD984"/>

<path d="M628 578 c-14 -21 -15 -21 -45 -3 -29 17 -31 17 -57 0 -37 -25 -66 -89 -66 -147 l0 -48 -73 0 c-70 0 -74 -1 -107 -35 -30 -31 -34 -42 -35 -88 l0 -52 50 0 c43 1 60 7 111 43 33 23 63 42 67 42 13 0 7 -32 -11 -58 -30 -44 -54 -155 -39 -179 13 -21 71 -15 108 10 47 31 58 72 52 187 -5 80 -9 98 -26 111 -24 19 -15 39 17 39 29 0 42 -15 50 -61 5 -26 2 -40 -9 -49 -20 -17 -19 -33 5 -81 21 -40 64 -74 108 -85 31 -9 82 39 82 76 0 34 -43 75 -98 92 -23 7 -41 17 -39 23 2 5 30 15 62 22 79 15 105 29 105 53 0 23 -46 50 -87 50 -15 0 -43 -9 -61 -20 -59 -36 -82 -22 -36 21 30 28 64 90 64 117 0 44 -66 59 -92 20z m-108 -254 c0 -8 -4 -14 -10 -14 -5 0 -10 9 -10 21 0 11 5 17 10 14 6 -3 10 -13 10 -21z" transform="translate(0,78) scale(0.1,-0.1)" stroke="none" fill="#C0D6BD"/>

</g>

<g id="3" transform="translate(264.0,0)scale(1,1)">

<path d="M783 253 c15 -16 27 -40 27 -53 0 -13 -12 -37 -27 -53 -16 -16 -21 -28 -13 -25 14 4 60 64 60 78 0 14 -46 74 -60 78 -8 3 -3 -9 13 -25z" transform="translate(0,78) scale(0.1,-0.1)" stroke="none" fill="#905D35"/>

<path d="M701 501 c-7 -16 -26 -41 -42 -57 -52 -50 -29 -60 42 -19 24 14 40 25 34 25 -5 -1 -21 -7 -35 -15 -34 -20 -46 -19 -28 3 20 22 51 83 45 88 -2 3 -10 -8 -16 -25z" transform="translate(0,78) scale(0.1,-0.1)" stroke="none" fill="#905D35"/>

<path d="M813 424 c33 -18 35 -51 4 -65 -13 -6 -50 -16 -82 -22 -53 -11 -89 -37 -50 -37 9 0 14 4 11 9 -4 5 13 12 36 16 24 4 60 14 81 22 30 12 37 20 37 42 0 20 -7 31 -25 39 -37 17 -45 14 -12 -4z" transform="translate(0,78) scale(0.1,-0.1)" stroke="none" fill="#905D35"/>

<path d="M557 381 c-3 -12 1 -22 9 -25 8 -3 14 -19 14 -35 0 -35 15 -48 36 -30 15 13 10 73 -9 97 -15 18 -44 14 -50 -7z" transform="translate(0,78) scale(0.1,-0.1)" stroke="none" fill="#FBD984"/>

<path d="M222 568 c-15 -15 -15 -51 0 -66 27 -27 78 -7 78 29 0 39 -52 63 -78 37z" transform="translate(0,78) scale(0.1,-0.1)" stroke="none" fill="#A19C60"/>

<path d="M583 224 c7 -87 -7 -131 -52 -161 -37 -25 -95 -31 -107 -11 -5 7 -7 29 -6 48 2 26 0 31 -7 20 -12 -17 -14 -50 -5 -74 8 -22 90 -20 128 2 37 22 66 76 66 124 l0 37 45 -44 c24 -25 52 -45 62 -45 11 1 3 9 -20 21 -40 21 -74 66 -84 112 -3 15 -10 30 -16 34 -7 4 -8 -17 -4 -63z" transform="translate(0,78) scale(0.1,-0.1)" stroke="none" fill="#905D35"/>

<path d="M253 337 c-51 -41 -68 -65 -38 -53 12 4 15 -4 15 -38 0 -58 12 -67 79 -54 48 8 96 35 140 76 23 22 25 5 3 -31 -11 -19 -22 -50 -26 -68 l-5 -34 12 36 c7 19 20 47 30 62 17 27 23 57 10 57 -4 0 -34 -19 -67 -42 -51 -36 -68 -42 -111 -43 l-50 0 0 52 c1 46 5 57 35 88 44 46 37 44 -27 -8z" transform="translate(0,78) scale(0.1,-0.1)" stroke="none" fill="#905D35"/>

<path d="M283 744 c-19 -8 -42 -31 -57 -57 -24 -41 -29 -44 -70 -44 -48 0 -89 -20 -106 -53 -9 -17 -6 -25 19 -50 16 -17 37 -30 45 -30 20 0 21 -19 2 -26 -21 -8 -36 -58 -27 -91 4 -15 19 -34 33 -40 36 -18 91 6 108 47 14 33 40 39 60 15 7 -8 19 -15 27 -15 8 0 11 -4 8 -10 -4 -6 20 -10 64 -10 l71 0 0 46 0 47 -23 -34 c-31 -46 -88 -52 -132 -14 -17 14 -34 25 -39 25 -4 0 -25 -17 -45 -39 -43 -45 -62 -54 -96 -41 -42 16 -32 84 14 102 l26 9 -31 27 c-17 15 -41 35 -52 44 -12 10 -22 22 -22 27 0 17 71 51 108 51 44 0 52 5 73 45 9 17 33 39 53 50 33 18 38 19 63 5 42 -23 43 -68 2 -108 -17 -17 -28 -35 -24 -41 8 -14 42 -14 50 -1 3 6 26 10 51 10 25 0 43 -4 40 -8 -2 -4 -1 -14 4 -21 6 -11 14 -9 40 9 32 23 33 23 63 5 30 -18 31 -18 45 3 16 24 60 30 80 10 8 -8 12 -8 12 -1 0 6 -13 16 -30 21 -24 9 -33 7 -55 -10 -22 -17 -30 -18 -54 -8 -23 9 -33 9 -49 -1 -18 -11 -23 -10 -40 11 -15 18 -23 22 -33 14 -21 -16 -79 -17 -79 -1 0 7 4 17 9 23 9 9 14 37 12 64 -5 46 -64 68 -118 44z m82 -154 c-3 -5 -10 -10 -16 -10 -5 0 -9 5 -9 10 0 6 7 10 16 10 8 0 12 -4 9 -10z m81 -197 c-10 -10 -19 5 -10 18 6 11 8 11 12 0 2 -7 1 -15 -2 -18z" transform="translate(0,78) scale(0.1,-0.1)" stroke="none" fill="#905D35"/>

<path d="M285 722 c-16 -10 -37 -32 -45 -48 -20 -38 -28 -44 -72 -44 -37 0 -108 -34 -108 -51 0 -5 10 -17 22 -27 11 -9 35 -29 52 -44 l31 -27 -26 -9 c-46 -18 -56 -86 -14 -102 34 -13 53 -4 96 41 20 22 41 39 45 39 5 0 22 -11 38 -25 41 -35 97 -34 125 2 12 14 24 38 28 52 3 14 13 32 20 40 8 7 11 21 7 30 -3 9 -7 22 -7 29 0 15 -83 17 -92 2 -8 -13 -42 -13 -50 1 -4 6 7 24 24 41 38 37 41 80 9 102 -29 21 -46 20 -83 -2z m45 -112 c0 -5 -7 -10 -16 -10 -8 0 -12 5 -9 10 3 6 10 10 16 10 5 0 9 -4 9 -10z m-120 -27 c-1 -13 -29 -59 -30 -48 0 21 13 55 21 55 5 0 9 -3 9 -7z m74 -19 c31 -30 13 -74 -30 -74 -37 0 -63 50 -38 75 20 19 48 19 68 -1z m-104 -54 c0 -5 -7 -10 -15 -10 -8 0 -15 5 -15 10 0 6 7 10 15 10 8 0 15 -4 15 -10z" transform="translate(0,78) scale(0.1,-0.1)" stroke="none" fill="#FBD984"/>

<path d="M628 578 c-14 -21 -15 -21 -45 -3 -29 17 -31 17 -57 0 -37 -25 -66 -89 -66 -147 l0 -48 -73 0 c-70 0 -74 -1 -107 -35 -30 -31 -34 -42 -35 -88 l0 -52 50 0 c43 1 60 7 111 43 33 23 63 42 67 42 13 0 7 -32 -11 -58 -30 -44 -54 -155 -39 -179 13 -21 71 -15 108 10 47 31 58 72 52 187 -5 80 -9 98 -26 111 -24 19 -15 39 17 39 29 0 42 -15 50 -61 5 -26 2 -40 -9 -49 -20 -17 -19 -33 5 -81 21 -40 64 -74 108 -85 31 -9 82 39 82 76 0 34 -43 75 -98 92 -23 7 -41 17 -39 23 2 5 30 15 62 22 79 15 105 29 105 53 0 23 -46 50 -87 50 -15 0 -43 -9 -61 -20 -59 -36 -82 -22 -36 21 30 28 64 90 64 117 0 44 -66 59 -92 20z m-108 -254 c0 -8 -4 -14 -10 -14 -5 0 -10 9 -10 21 0 11 5 17 10 14 6 -3 10 -13 10 -21z" transform="translate(0,78) scale(0.1,-0.1)" stroke="none" fill="#C0D6BD"/>

</g>

<g id="4" transform="translate(352.0,0)scale(1,1)">

<path d="M783 253 c15 -16 27 -40 27 -53 0 -13 -12 -37 -27 -53 -16 -16 -21 -28 -13 -25 14 4 60 64 60 78 0 14 -46 74 -60 78 -8 3 -3 -9 13 -25z" transform="translate(0,78) scale(0.1,-0.1)" stroke="none" fill="#905D35"/>

<path d="M701 501 c-7 -16 -26 -41 -42 -57 -52 -50 -29 -60 42 -19 24 14 40 25 34 25 -5 -1 -21 -7 -35 -15 -34 -20 -46 -19 -28 3 20 22 51 83 45 88 -2 3 -10 -8 -16 -25z" transform="translate(0,78) scale(0.1,-0.1)" stroke="none" fill="#905D35"/>

<path d="M813 424 c33 -18 35 -51 4 -65 -13 -6 -50 -16 -82 -22 -53 -11 -89 -37 -50 -37 9 0 14 4 11 9 -4 5 13 12 36 16 24 4 60 14 81 22 30 12 37 20 37 42 0 20 -7 31 -25 39 -37 17 -45 14 -12 -4z" transform="translate(0,78) scale(0.1,-0.1)" stroke="none" fill="#905D35"/>

<path d="M557 381 c-3 -12 1 -22 9 -25 8 -3 14 -19 14 -35 0 -35 15 -48 36 -30 15 13 10 73 -9 97 -15 18 -44 14 -50 -7z" transform="translate(0,78) scale(0.1,-0.1)" stroke="none" fill="#FBD984"/>

<path d="M222 568 c-15 -15 -15 -51 0 -66 27 -27 78 -7 78 29 0 39 -52 63 -78 37z" transform="translate(0,78) scale(0.1,-0.1)" stroke="none" fill="#A19C60"/>

<path d="M583 224 c7 -87 -7 -131 -52 -161 -37 -25 -95 -31 -107 -11 -5 7 -7 29 -6 48 2 26 0 31 -7 20 -12 -17 -14 -50 -5 -74 8 -22 90 -20 128 2 37 22 66 76 66 124 l0 37 45 -44 c24 -25 52 -45 62 -45 11 1 3 9 -20 21 -40 21 -74 66 -84 112 -3 15 -10 30 -16 34 -7 4 -8 -17 -4 -63z" transform="translate(0,78) scale(0.1,-0.1)" stroke="none" fill="#905D35"/>

<path d="M253 337 c-51 -41 -68 -65 -38 -53 12 4 15 -4 15 -38 0 -58 12 -67 79 -54 48 8 96 35 140 76 23 22 25 5 3 -31 -11 -19 -22 -50 -26 -68 l-5 -34 12 36 c7 19 20 47 30 62 17 27 23 57 10 57 -4 0 -34 -19 -67 -42 -51 -36 -68 -42 -111 -43 l-50 0 0 52 c1 46 5 57 35 88 44 46 37 44 -27 -8z" transform="translate(0,78) scale(0.1,-0.1)" stroke="none" fill="#905D35"/>

<path d="M283 744 c-19 -8 -42 -31 -57 -57 -24 -41 -29 -44 -70 -44 -48 0 -89 -20 -106 -53 -9 -17 -6 -25 19 -50 16 -17 37 -30 45 -30 20 0 21 -19 2 -26 -21 -8 -36 -58 -27 -91 4 -15 19 -34 33 -40 36 -18 91 6 108 47 14 33 40 39 60 15 7 -8 19 -15 27 -15 8 0 11 -4 8 -10 -4 -6 20 -10 64 -10 l71 0 0 46 0 47 -23 -34 c-31 -46 -88 -52 -132 -14 -17 14 -34 25 -39 25 -4 0 -25 -17 -45 -39 -43 -45 -62 -54 -96 -41 -42 16 -32 84 14 102 l26 9 -31 27 c-17 15 -41 35 -52 44 -12 10 -22 22 -22 27 0 17 71 51 108 51 44 0 52 5 73 45 9 17 33 39 53 50 33 18 38 19 63 5 42 -23 43 -68 2 -108 -17 -17 -28 -35 -24 -41 8 -14 42 -14 50 -1 3 6 26 10 51 10 25 0 43 -4 40 -8 -2 -4 -1 -14 4 -21 6 -11 14 -9 40 9 32 23 33 23 63 5 30 -18 31 -18 45 3 16 24 60 30 80 10 8 -8 12 -8 12 -1 0 6 -13 16 -30 21 -24 9 -33 7 -55 -10 -22 -17 -30 -18 -54 -8 -23 9 -33 9 -49 -1 -18 -11 -23 -10 -40 11 -15 18 -23 22 -33 14 -21 -16 -79 -17 -79 -1 0 7 4 17 9 23 9 9 14 37 12 64 -5 46 -64 68 -118 44z m82 -154 c-3 -5 -10 -10 -16 -10 -5 0 -9 5 -9 10 0 6 7 10 16 10 8 0 12 -4 9 -10z m81 -197 c-10 -10 -19 5 -10 18 6 11 8 11 12 0 2 -7 1 -15 -2 -18z" transform="translate(0,78) scale(0.1,-0.1)" stroke="none" fill="#905D35"/>

<path d="M285 722 c-16 -10 -37 -32 -45 -48 -20 -38 -28 -44 -72 -44 -37 0 -108 -34 -108 -51 0 -5 10 -17 22 -27 11 -9 35 -29 52 -44 l31 -27 -26 -9 c-46 -18 -56 -86 -14 -102 34 -13 53 -4 96 41 20 22 41 39 45 39 5 0 22 -11 38 -25 41 -35 97 -34 125 2 12 14 24 38 28 52 3 14 13 32 20 40 8 7 11 21 7 30 -3 9 -7 22 -7 29 0 15 -83 17 -92 2 -8 -13 -42 -13 -50 1 -4 6 7 24 24 41 38 37 41 80 9 102 -29 21 -46 20 -83 -2z m45 -112 c0 -5 -7 -10 -16 -10 -8 0 -12 5 -9 10 3 6 10 10 16 10 5 0 9 -4 9 -10z m-120 -27 c-1 -13 -29 -59 -30 -48 0 21 13 55 21 55 5 0 9 -3 9 -7z m74 -19 c31 -30 13 -74 -30 -74 -37 0 -63 50 -38 75 20 19 48 19 68 -1z m-104 -54 c0 -5 -7 -10 -15 -10 -8 0 -15 5 -15 10 0 6 7 10 15 10 8 0 15 -4 15 -10z" transform="translate(0,78) scale(0.1,-0.1)" stroke="none" fill="#FBD984"/>

<path d="M628 578 c-14 -21 -15 -21 -45 -3 -29 17 -31 17 -57 0 -37 -25 -66 -89 -66 -147 l0 -48 -73 0 c-70 0 -74 -1 -107 -35 -30 -31 -34 -42 -35 -88 l0 -52 50 0 c43 1 60 7 111 43 33 23 63 42 67 42 13 0 7 -32 -11 -58 -30 -44 -54 -155 -39 -179 13 -21 71 -15 108 10 47 31 58 72 52 187 -5 80 -9 98 -26 111 -24 19 -15 39 17 39 29 0 42 -15 50 -61 5 -26 2 -40 -9 -49 -20 -17 -19 -33 5 -81 21 -40 64 -74 108 -85 31 -9 82 39 82 76 0 34 -43 75 -98 92 -23 7 -41 17 -39 23 2 5 30 15 62 22 79 15 105 29 105 53 0 23 -46 50 -87 50 -15 0 -43 -9 -61 -20 -59 -36 -82 -22 -36 21 30 28 64 90 64 117 0 44 -66 59 -92 20z m-108 -254 c0 -8 -4 -14 -10 -14 -5 0 -10 9 -10 21 0 11 5 17 10 14 6 -3 10 -13 10 -21z" transform="translate(0,78) scale(0.1,-0.1)" stroke="none" fill="#C0D6BD"/>

</g>

</g>
<g id="row2" transform="translate(11,156.0)">
<g id="0" transform="translate(0.0,0)scale(1,1)">

<path d="M783 253 c15 -16 27 -40 27 -53 0 -13 -12 -37 -27 -53 -16 -16 -21 -28 -13 -25 14 4 60 64 60 78 0 14 -46 74 -60 78 -8 3 -3 -9 13 -25z" transform="translate(0,78) scale(0.1,-0.1)" stroke="none" fill="#905D35"/>

<path d="M701 501 c-7 -16 -26 -41 -42 -57 -52 -50 -29 -60 42 -19 24 14 40 25 34 25 -5 -1 -21 -7 -35 -15 -34 -20 -46 -19 -28 3 20 22 51 83 45 88 -2 3 -10 -8 -16 -25z" transform="translate(0,78) scale(0.1,-0.1)" stroke="none" fill="#905D35"/>

<path d="M813 424 c33 -18 35 -51 4 -65 -13 -6 -50 -16 -82 -22 -53 -11 -89 -37 -50 -37 9 0 14 4 11 9 -4 5 13 12 36 16 24 4 60 14 81 22 30 12 37 20 37 42 0 20 -7 31 -25 39 -37 17 -45 14 -12 -4z" transform="translate(0,78) scale(0.1,-0.1)" stroke="none" fill="#905D35"/>

<path d="M557 381 c-3 -12 1 -22 9 -25 8 -3 14 -19 14 -35 0 -35 15 -48 36 -30 15 13 10 73 -9 97 -15 18 -44 14 -50 -7z" transform="translate(0,78) scale(0.1,-0.1)" stroke="none" fill="#FBD984"/>

<path d="M222 568 c-15 -15 -15 -51 0 -66 27 -27 78 -7 78 29 0 39 -52 63 -78 37z" transform="translate(0,78) scale(0.1,-0.1)" stroke="none" fill="#A19C60"/>

<path d="M583 224 c7 -87 -7 -131 -52 -161 -37 -25 -95 -31 -107 -11 -5 7 -7 29 -6 48 2 26 0 31 -7 20 -12 -17 -14 -50 -5 -74 8 -22 90 -20 128 2 37 22 66 76 66 124 l0 37 45 -44 c24 -25 52 -45 62 -45 11 1 3 9 -20 21 -40 21 -74 66 -84 112 -3 15 -10 30 -16 34 -7 4 -8 -17 -4 -63z" transform="translate(0,78) scale(0.1,-0.1)" stroke="none" fill="#905D35"/>

<path d="M253 337 c-51 -41 -68 -65 -38 -53 12 4 15 -4 15 -38 0 -58 12 -67 79 -54 48 8 96 35 140 76 23 22 25 5 3 -31 -11 -19 -22 -50 -26 -68 l-5 -34 12 36 c7 19 20 47 30 62 17 27 23 57 10 57 -4 0 -34 -19 -67 -42 -51 -36 -68 -42 -111 -43 l-50 0 0 52 c1 46 5 57 35 88 44 46 37 44 -27 -8z" transform="translate(0,78) scale(0.1,-0.1)" stroke="none" fill="#905D35"/>

<path d="M283 744 c-19 -8 -42 -31 -57 -57 -24 -41 -29 -44 -70 -44 -48 0 -89 -20 -106 -53 -9 -17 -6 -25 19 -50 16 -17 37 -30 45 -30 20 0 21 -19 2 -26 -21 -8 -36 -58 -27 -91 4 -15 19 -34 33 -40 36 -18 91 6 108 47 14 33 40 39 60 15 7 -8 19 -15 27 -15 8 0 11 -4 8 -10 -4 -6 20 -10 64 -10 l71 0 0 46 0 47 -23 -34 c-31 -46 -88 -52 -132 -14 -17 14 -34 25 -39 25 -4 0 -25 -17 -45 -39 -43 -45 -62 -54 -96 -41 -42 16 -32 84 14 102 l26 9 -31 27 c-17 15 -41 35 -52 44 -12 10 -22 22 -22 27 0 17 71 51 108 51 44 0 52 5 73 45 9 17 33 39 53 50 33 18 38 19 63 5 42 -23 43 -68 2 -108 -17 -17 -28 -35 -24 -41 8 -14 42 -14 50 -1 3 6 26 10 51 10 25 0 43 -4 40 -8 -2 -4 -1 -14 4 -21 6 -11 14 -9 40 9 32 23 33 23 63 5 30 -18 31 -18 45 3 16 24 60 30 80 10 8 -8 12 -8 12 -1 0 6 -13 16 -30 21 -24 9 -33 7 -55 -10 -22 -17 -30 -18 -54 -8 -23 9 -33 9 -49 -1 -18 -11 -23 -10 -40 11 -15 18 -23 22 -33 14 -21 -16 -79 -17 -79 -1 0 7 4 17 9 23 9 9 14 37 12 64 -5 46 -64 68 -118 44z m82 -154 c-3 -5 -10 -10 -16 -10 -5 0 -9 5 -9 10 0 6 7 10 16 10 8 0 12 -4 9 -10z m81 -197 c-10 -10 -19 5 -10 18 6 11 8 11 12 0 2 -7 1 -15 -2 -18z" transform="translate(0,78) scale(0.1,-0.1)" stroke="none" fill="#905D35"/>

<path d="M285 722 c-16 -10 -37 -32 -45 -48 -20 -38 -28 -44 -72 -44 -37 0 -108 -34 -108 -51 0 -5 10 -17 22 -27 11 -9 35 -29 52 -44 l31 -27 -26 -9 c-46 -18 -56 -86 -14 -102 34 -13 53 -4 96 41 20 22 41 39 45 39 5 0 22 -11 38 -25 41 -35 97 -34 125 2 12 14 24 38 28 52 3 14 13 32 20 40 8 7 11 21 7 30 -3 9 -7 22 -7 29 0 15 -83 17 -92 2 -8 -13 -42 -13 -50 1 -4 6 7 24 24 41 38 37 41 80 9 102 -29 21 -46 20 -83 -2z m45 -112 c0 -5 -7 -10 -16 -10 -8 0 -12 5 -9 10 3 6 10 10 16 10 5 0 9 -4 9 -10z m-120 -27 c-1 -13 -29 -59 -30 -48 0 21 13 55 21 55 5 0 9 -3 9 -7z m74 -19 c31 -30 13 -74 -30 -74 -37 0 -63 50 -38 75 20 19 48 19 68 -1z m-104 -54 c0 -5 -7 -10 -15 -10 -8 0 -15 5 -15 10 0 6 7 10 15 10 8 0 15 -4 15 -10z" transform="translate(0,78) scale(0.1,-0.1)" stroke="none" fill="#FBD984"/>

<path d="M628 578 c-14 -21 -15 -21 -45 -3 -29 17 -31 17 -57 0 -37 -25 -66 -89 -66 -147 l0 -48 -73 0 c-70 0 -74 -1 -107 -35 -30 -31 -34 -42 -35 -88 l0 -52 50 0 c43 1 60 7 111 43 33 23 63 42 67 42 13 0 7 -32 -11 -58 -30 -44 -54 -155 -39 -179 13 -21 71 -15 108 10 47 31 58 72 52 187 -5 80 -9 98 -26 111 -24 19 -15 39 17 39 29 0 42 -15 50 -61 5 -26 2 -40 -9 -49 -20 -17 -19 -33 5 -81 21 -40 64 -74 108 -85 31 -9 82 39 82 76 0 34 -43 75 -98 92 -23 7 -41 17 -39 23 2 5 30 15 62 22 79 15 105 29 105 53 0 23 -46 50 -87 50 -15 0 -43 -9 -61 -20 -59 -36 -82 -22 -36 21 30 28 64 90 64 117 0 44 -66 59 -92 20z m-108 -254 c0 -8 -4 -14 -10 -14 -5 0 -10 9 -10 21 0 11 5 17 10 14 6 -3 10 -13 10 -21z" transform="translate(0,78) scale(0.1,-0.1)" stroke="none" fill="#C0D6BD"/>

</g>

<g id="1" transform="translate(88.0,0)scale(1,1)">

<path d="M783 253 c15 -16 27 -40 27 -53 0 -13 -12 -37 -27 -53 -16 -16 -21 -28 -13 -25 14 4 60 64 60 78 0 14 -46 74 -60 78 -8 3 -3 -9 13 -25z" transform="translate(0,78) scale(0.1,-0.1)" stroke="none" fill="#905D35"/>

<path d="M701 501 c-7 -16 -26 -41 -42 -57 -52 -50 -29 -60 42 -19 24 14 40 25 34 25 -5 -1 -21 -7 -35 -15 -34 -20 -46 -19 -28 3 20 22 51 83 45 88 -2 3 -10 -8 -16 -25z" transform="translate(0,78) scale(0.1,-0.1)" stroke="none" fill="#905D35"/>

<path d="M813 424 c33 -18 35 -51 4 -65 -13 -6 -50 -16 -82 -22 -53 -11 -89 -37 -50 -37 9 0 14 4 11 9 -4 5 13 12 36 16 24 4 60 14 81 22 30 12 37 20 37 42 0 20 -7 31 -25 39 -37 17 -45 14 -12 -4z" transform="translate(0,78) scale(0.1,-0.1)" stroke="none" fill="#905D35"/>

<path d="M557 381 c-3 -12 1 -22 9 -25 8 -3 14 -19 14 -35 0 -35 15 -48 36 -30 15 13 10 73 -9 97 -15 18 -44 14 -50 -7z" transform="translate(0,78) scale(0.1,-0.1)" stroke="none" fill="#FBD984"/>

<path d="M222 568 c-15 -15 -15 -51 0 -66 27 -27 78 -7 78 29 0 39 -52 63 -78 37z" transform="translate(0,78) scale(0.1,-0.1)" stroke="none" fill="#A19C60"/>

<path d="M583 224 c7 -87 -7 -131 -52 -161 -37 -25 -95 -31 -107 -11 -5 7 -7 29 -6 48 2 26 0 31 -7 20 -12 -17 -14 -50 -5 -74 8 -22 90 -20 128 2 37 22 66 76 66 124 l0 37 45 -44 c24 -25 52 -45 62 -45 11 1 3 9 -20 21 -40 21 -74 66 -84 112 -3 15 -10 30 -16 34 -7 4 -8 -17 -4 -63z" transform="translate(0,78) scale(0.1,-0.1)" stroke="none" fill="#905D35"/>

<path d="M253 337 c-51 -41 -68 -65 -38 -53 12 4 15 -4 15 -38 0 -58 12 -67 79 -54 48 8 96 35 140 76 23 22 25 5 3 -31 -11 -19 -22 -50 -26 -68 l-5 -34 12 36 c7 19 20 47 30 62 17 27 23 57 10 57 -4 0 -34 -19 -67 -42 -51 -36 -68 -42 -111 -43 l-50 0 0 52 c1 46 5 57 35 88 44 46 37 44 -27 -8z" transform="translate(0,78) scale(0.1,-0.1)" stroke="none" fill="#905D35"/>

<path d="M283 744 c-19 -8 -42 -31 -57 -57 -24 -41 -29 -44 -70 -44 -48 0 -89 -20 -106 -53 -9 -17 -6 -25 19 -50 16 -17 37 -30 45 -30 20 0 21 -19 2 -26 -21 -8 -36 -58 -27 -91 4 -15 19 -34 33 -40 36 -18 91 6 108 47 14 33 40 39 60 15 7 -8 19 -15 27 -15 8 0 11 -4 8 -10 -4 -6 20 -10 64 -10 l71 0 0 46 0 47 -23 -34 c-31 -46 -88 -52 -132 -14 -17 14 -34 25 -39 25 -4 0 -25 -17 -45 -39 -43 -45 -62 -54 -96 -41 -42 16 -32 84 14 102 l26 9 -31 27 c-17 15 -41 35 -52 44 -12 10 -22 22 -22 27 0 17 71 51 108 51 44 0 52 5 73 45 9 17 33 39 53 50 33 18 38 19 63 5 42 -23 43 -68 2 -108 -17 -17 -28 -35 -24 -41 8 -14 42 -14 50 -1 3 6 26 10 51 10 25 0 43 -4 40 -8 -2 -4 -1 -14 4 -21 6 -11 14 -9 40 9 32 23 33 23 63 5 30 -18 31 -18 45 3 16 24 60 30 80 10 8 -8 12 -8 12 -1 0 6 -13 16 -30 21 -24 9 -33 7 -55 -10 -22 -17 -30 -18 -54 -8 -23 9 -33 9 -49 -1 -18 -11 -23 -10 -40 11 -15 18 -23 22 -33 14 -21 -16 -79 -17 -79 -1 0 7 4 17 9 23 9 9 14 37 12 64 -5 46 -64 68 -118 44z m82 -154 c-3 -5 -10 -10 -16 -10 -5 0 -9 5 -9 10 0 6 7 10 16 10 8 0 12 -4 9 -10z m81 -197 c-10 -10 -19 5 -10 18 6 11 8 11 12 0 2 -7 1 -15 -2 -18z" transform="translate(0,78) scale(0.1,-0.1)" stroke="none" fill="#905D35"/>

<path d="M285 722 c-16 -10 -37 -32 -45 -48 -20 -38 -28 -44 -72 -44 -37 0 -108 -34 -108 -51 0 -5 10 -17 22 -27 11 -9 35 -29 52 -44 l31 -27 -26 -9 c-46 -18 -56 -86 -14 -102 34 -13 53 -4 96 41 20 22 41 39 45 39 5 0 22 -11 38 -25 41 -35 97 -34 125 2 12 14 24 38 28 52 3 14 13 32 20 40 8 7 11 21 7 30 -3 9 -7 22 -7 29 0 15 -83 17 -92 2 -8 -13 -42 -13 -50 1 -4 6 7 24 24 41 38 37 41 80 9 102 -29 21 -46 20 -83 -2z m45 -112 c0 -5 -7 -10 -16 -10 -8 0 -12 5 -9 10 3 6 10 10 16 10 5 0 9 -4 9 -10z m-120 -27 c-1 -13 -29 -59 -30 -48 0 21 13 55 21 55 5 0 9 -3 9 -7z m74 -19 c31 -30 13 -74 -30 -74 -37 0 -63 50 -38 75 20 19 48 19 68 -1z m-104 -54 c0 -5 -7 -10 -15 -10 -8 0 -15 5 -15 10 0 6 7 10 15 10 8 0 15 -4 15 -10z" transform="translate(0,78) scale(0.1,-0.1)" stroke="none" fill="#FBD984"/>

<path d="M628 578 c-14 -21 -15 -21 -45 -3 -29 17 -31 17 -57 0 -37 -25 -66 -89 -66 -147 l0 -48 -73 0 c-70 0 -74 -1 -107 -35 -30 -31 -34 -42 -35 -88 l0 -52 50 0 c43 1 60 7 111 43 33 23 63 42 67 42 13 0 7 -32 -11 -58 -30 -44 -54 -155 -39 -179 13 -21 71 -15 108 10 47 31 58 72 52 187 -5 80 -9 98 -26 111 -24 19 -15 39 17 39 29 0 42 -15 50 -61 5 -26 2 -40 -9 -49 -20 -17 -19 -33 5 -81 21 -40 64 -74 108 -85 31 -9 82 39 82 76 0 34 -43 75 -98 92 -23 7 -41 17 -39 23 2 5 30 15 62 22 79 15 105 29 105 53 0 23 -46 50 -87 50 -15 0 -43 -9 -61 -20 -59 -36 -82 -22 -36 21 30 28 64 90 64 117 0 44 -66 59 -92 20z m-108 -254 c0 -8 -4 -14 -10 -14 -5 0 -10 9 -10 21 0 11 5 17 10 14 6 -3 10 -13 10 -21z" transform="translate(0,78) scale(0.1,-0.1)" stroke="none" fill="#C0D6BD"/>

</g>

<g id="2" transform="translate(176.0,0)scale(1,1)">

<path d="M783 253 c15 -16 27 -40 27 -53 0 -13 -12 -37 -27 -53 -16 -16 -21 -28 -13 -25 14 4 60 64 60 78 0 14 -46 74 -60 78 -8 3 -3 -9 13 -25z" transform="translate(0,78) scale(0.1,-0.1)" stroke="none" fill="#905D35"/>

<path d="M701 501 c-7 -16 -26 -41 -42 -57 -52 -50 -29 -60 42 -19 24 14 40 25 34 25 -5 -1 -21 -7 -35 -15 -34 -20 -46 -19 -28 3 20 22 51 83 45 88 -2 3 -10 -8 -16 -25z" transform="translate(0,78) scale(0.1,-0.1)" stroke="none" fill="#905D35"/>

<path d="M813 424 c33 -18 35 -51 4 -65 -13 -6 -50 -16 -82 -22 -53 -11 -89 -37 -50 -37 9 0 14 4 11 9 -4 5 13 12 36 16 24 4 60 14 81 22 30 12 37 20 37 42 0 20 -7 31 -25 39 -37 17 -45 14 -12 -4z" transform="translate(0,78) scale(0.1,-0.1)" stroke="none" fill="#905D35"/>

<path d="M557 381 c-3 -12 1 -22 9 -25 8 -3 14 -19 14 -35 0 -35 15 -48 36 -30 15 13 10 73 -9 97 -15 18 -44 14 -50 -7z" transform="translate(0,78) scale(0.1,-0.1)" stroke="none" fill="#FBD984"/>

<path d="M222 568 c-15 -15 -15 -51 0 -66 27 -27 78 -7 78 29 0 39 -52 63 -78 37z" transform="translate(0,78) scale(0.1,-0.1)" stroke="none" fill="#A19C60"/>

<path d="M583 224 c7 -87 -7 -131 -52 -161 -37 -25 -95 -31 -107 -11 -5 7 -7 29 -6 48 2 26 0 31 -7 20 -12 -17 -14 -50 -5 -74 8 -22 90 -20 128 2 37 22 66 76 66 124 l0 37 45 -44 c24 -25 52 -45 62 -45 11 1 3 9 -20 21 -40 21 -74 66 -84 112 -3 15 -10 30 -16 34 -7 4 -8 -17 -4 -63z" transform="translate(0,78) scale(0.1,-0.1)" stroke="none" fill="#905D35"/>

<path d="M253 337 c-51 -41 -68 -65 -38 -53 12 4 15 -4 15 -38 0 -58 12 -67 79 -54 48 8 96 35 140 76 23 22 25 5 3 -31 -11 -19 -22 -50 -26 -68 l-5 -34 12 36 c7 19 20 47 30 62 17 27 23 57 10 57 -4 0 -34 -19 -67 -42 -51 -36 -68 -42 -111 -43 l-50 0 0 52 c1 46 5 57 35 88 44 46 37 44 -27 -8z" transform="translate(0,78) scale(0.1,-0.1)" stroke="none" fill="#905D35"/>

<path d="M283 744 c-19 -8 -42 -31 -57 -57 -24 -41 -29 -44 -70 -44 -48 0 -89 -20 -106 -53 -9 -17 -6 -25 19 -50 16 -17 37 -30 45 -30 20 0 21 -19 2 -26 -21 -8 -36 -58 -27 -91 4 -15 19 -34 33 -40 36 -18 91 6 108 47 14 33 40 39 60 15 7 -8 19 -15 27 -15 8 0 11 -4 8 -10 -4 -6 20 -10 64 -10 l71 0 0 46 0 47 -23 -34 c-31 -46 -88 -52 -132 -14 -17 14 -34 25 -39 25 -4 0 -25 -17 -45 -39 -43 -45 -62 -54 -96 -41 -42 16 -32 84 14 102 l26 9 -31 27 c-17 15 -41 35 -52 44 -12 10 -22 22 -22 27 0 17 71 51 108 51 44 0 52 5 73 45 9 17 33 39 53 50 33 18 38 19 63 5 42 -23 43 -68 2 -108 -17 -17 -28 -35 -24 -41 8 -14 42 -14 50 -1 3 6 26 10 51 10 25 0 43 -4 40 -8 -2 -4 -1 -14 4 -21 6 -11 14 -9 40 9 32 23 33 23 63 5 30 -18 31 -18 45 3 16 24 60 30 80 10 8 -8 12 -8 12 -1 0 6 -13 16 -30 21 -24 9 -33 7 -55 -10 -22 -17 -30 -18 -54 -8 -23 9 -33 9 -49 -1 -18 -11 -23 -10 -40 11 -15 18 -23 22 -33 14 -21 -16 -79 -17 -79 -1 0 7 4 17 9 23 9 9 14 37 12 64 -5 46 -64 68 -118 44z m82 -154 c-3 -5 -10 -10 -16 -10 -5 0 -9 5 -9 10 0 6 7 10 16 10 8 0 12 -4 9 -10z m81 -197 c-10 -10 -19 5 -10 18 6 11 8 11 12 0 2 -7 1 -15 -2 -18z" transform="translate(0,78) scale(0.1,-0.1)" stroke="none" fill="#905D35"/>

<path d="M285 722 c-16 -10 -37 -32 -45 -48 -20 -38 -28 -44 -72 -44 -37 0 -108 -34 -108 -51 0 -5 10 -17 22 -27 11 -9 35 -29 52 -44 l31 -27 -26 -9 c-46 -18 -56 -86 -14 -102 34 -13 53 -4 96 41 20 22 41 39 45 39 5 0 22 -11 38 -25 41 -35 97 -34 125 2 12 14 24 38 28 52 3 14 13 32 20 40 8 7 11 21 7 30 -3 9 -7 22 -7 29 0 15 -83 17 -92 2 -8 -13 -42 -13 -50 1 -4 6 7 24 24 41 38 37 41 80 9 102 -29 21 -46 20 -83 -2z m45 -112 c0 -5 -7 -10 -16 -10 -8 0 -12 5 -9 10 3 6 10 10 16 10 5 0 9 -4 9 -10z m-120 -27 c-1 -13 -29 -59 -30 -48 0 21 13 55 21 55 5 0 9 -3 9 -7z m74 -19 c31 -30 13 -74 -30 -74 -37 0 -63 50 -38 75 20 19 48 19 68 -1z m-104 -54 c0 -5 -7 -10 -15 -10 -8 0 -15 5 -15 10 0 6 7 10 15 10 8 0 15 -4 15 -10z" transform="translate(0,78) scale(0.1,-0.1)" stroke="none" fill="#FBD984"/>

<path d="M628 578 c-14 -21 -15 -21 -45 -3 -29 17 -31 17 -57 0 -37 -25 -66 -89 -66 -147 l0 -48 -73 0 c-70 0 -74 -1 -107 -35 -30 -31 -34 -42 -35 -88 l0 -52 50 0 c43 1 60 7 111 43 33 23 63 42 67 42 13 0 7 -32 -11 -58 -30 -44 -54 -155 -39 -179 13 -21 71 -15 108 10 47 31 58 72 52 187 -5 80 -9 98 -26 111 -24 19 -15 39 17 39 29 0 42 -15 50 -61 5 -26 2 -40 -9 -49 -20 -17 -19 -33 5 -81 21 -40 64 -74 108 -85 31 -9 82 39 82 76 0 34 -43 75 -98 92 -23 7 -41 17 -39 23 2 5 30 15 62 22 79 15 105 29 105 53 0 23 -46 50 -87 50 -15 0 -43 -9 -61 -20 -59 -36 -82 -22 -36 21 30 28 64 90 64 117 0 44 -66 59 -92 20z m-108 -254 c0 -8 -4 -14 -10 -14 -5 0 -10 9 -10 21 0 11 5 17 10 14 6 -3 10 -13 10 -21z" transform="translate(0,78) scale(0.1,-0.1)" stroke="none" fill="#C0D6BD"/>

</g>

<g id="3" transform="translate(264.0,0)scale(1,1)">

<path d="M783 253 c15 -16 27 -40 27 -53 0 -13 -12 -37 -27 -53 -16 -16 -21 -28 -13 -25 14 4 60 64 60 78 0 14 -46 74 -60 78 -8 3 -3 -9 13 -25z" transform="translate(0,78) scale(0.1,-0.1)" stroke="none" fill="#905D35"/>

<path d="M701 501 c-7 -16 -26 -41 -42 -57 -52 -50 -29 -60 42 -19 24 14 40 25 34 25 -5 -1 -21 -7 -35 -15 -34 -20 -46 -19 -28 3 20 22 51 83 45 88 -2 3 -10 -8 -16 -25z" transform="translate(0,78) scale(0.1,-0.1)" stroke="none" fill="#905D35"/>

<path d="M813 424 c33 -18 35 -51 4 -65 -13 -6 -50 -16 -82 -22 -53 -11 -89 -37 -50 -37 9 0 14 4 11 9 -4 5 13 12 36 16 24 4 60 14 81 22 30 12 37 20 37 42 0 20 -7 31 -25 39 -37 17 -45 14 -12 -4z" transform="translate(0,78) scale(0.1,-0.1)" stroke="none" fill="#905D35"/>

<path d="M557 381 c-3 -12 1 -22 9 -25 8 -3 14 -19 14 -35 0 -35 15 -48 36 -30 15 13 10 73 -9 97 -15 18 -44 14 -50 -7z" transform="translate(0,78) scale(0.1,-0.1)" stroke="none" fill="#FBD984"/>

<path d="M222 568 c-15 -15 -15 -51 0 -66 27 -27 78 -7 78 29 0 39 -52 63 -78 37z" transform="translate(0,78) scale(0.1,-0.1)" stroke="none" fill="#A19C60"/>

<path d="M583 224 c7 -87 -7 -131 -52 -161 -37 -25 -95 -31 -107 -11 -5 7 -7 29 -6 48 2 26 0 31 -7 20 -12 -17 -14 -50 -5 -74 8 -22 90 -20 128 2 37 22 66 76 66 124 l0 37 45 -44 c24 -25 52 -45 62 -45 11 1 3 9 -20 21 -40 21 -74 66 -84 112 -3 15 -10 30 -16 34 -7 4 -8 -17 -4 -63z" transform="translate(0,78) scale(0.1,-0.1)" stroke="none" fill="#905D35"/>

<path d="M253 337 c-51 -41 -68 -65 -38 -53 12 4 15 -4 15 -38 0 -58 12 -67 79 -54 48 8 96 35 140 76 23 22 25 5 3 -31 -11 -19 -22 -50 -26 -68 l-5 -34 12 36 c7 19 20 47 30 62 17 27 23 57 10 57 -4 0 -34 -19 -67 -42 -51 -36 -68 -42 -111 -43 l-50 0 0 52 c1 46 5 57 35 88 44 46 37 44 -27 -8z" transform="translate(0,78) scale(0.1,-0.1)" stroke="none" fill="#905D35"/>

<path d="M283 744 c-19 -8 -42 -31 -57 -57 -24 -41 -29 -44 -70 -44 -48 0 -89 -20 -106 -53 -9 -17 -6 -25 19 -50 16 -17 37 -30 45 -30 20 0 21 -19 2 -26 -21 -8 -36 -58 -27 -91 4 -15 19 -34 33 -40 36 -18 91 6 108 47 14 33 40 39 60 15 7 -8 19 -15 27 -15 8 0 11 -4 8 -10 -4 -6 20 -10 64 -10 l71 0 0 46 0 47 -23 -34 c-31 -46 -88 -52 -132 -14 -17 14 -34 25 -39 25 -4 0 -25 -17 -45 -39 -43 -45 -62 -54 -96 -41 -42 16 -32 84 14 102 l26 9 -31 27 c-17 15 -41 35 -52 44 -12 10 -22 22 -22 27 0 17 71 51 108 51 44 0 52 5 73 45 9 17 33 39 53 50 33 18 38 19 63 5 42 -23 43 -68 2 -108 -17 -17 -28 -35 -24 -41 8 -14 42 -14 50 -1 3 6 26 10 51 10 25 0 43 -4 40 -8 -2 -4 -1 -14 4 -21 6 -11 14 -9 40 9 32 23 33 23 63 5 30 -18 31 -18 45 3 16 24 60 30 80 10 8 -8 12 -8 12 -1 0 6 -13 16 -30 21 -24 9 -33 7 -55 -10 -22 -17 -30 -18 -54 -8 -23 9 -33 9 -49 -1 -18 -11 -23 -10 -40 11 -15 18 -23 22 -33 14 -21 -16 -79 -17 -79 -1 0 7 4 17 9 23 9 9 14 37 12 64 -5 46 -64 68 -118 44z m82 -154 c-3 -5 -10 -10 -16 -10 -5 0 -9 5 -9 10 0 6 7 10 16 10 8 0 12 -4 9 -10z m81 -197 c-10 -10 -19 5 -10 18 6 11 8 11 12 0 2 -7 1 -15 -2 -18z" transform="translate(0,78) scale(0.1,-0.1)" stroke="none" fill="#905D35"/>

<path d="M285 722 c-16 -10 -37 -32 -45 -48 -20 -38 -28 -44 -72 -44 -37 0 -108 -34 -108 -51 0 -5 10 -17 22 -27 11 -9 35 -29 52 -44 l31 -27 -26 -9 c-46 -18 -56 -86 -14 -102 34 -13 53 -4 96 41 20 22 41 39 45 39 5 0 22 -11 38 -25 41 -35 97 -34 125 2 12 14 24 38 28 52 3 14 13 32 20 40 8 7 11 21 7 30 -3 9 -7 22 -7 29 0 15 -83 17 -92 2 -8 -13 -42 -13 -50 1 -4 6 7 24 24 41 38 37 41 80 9 102 -29 21 -46 20 -83 -2z m45 -112 c0 -5 -7 -10 -16 -10 -8 0 -12 5 -9 10 3 6 10 10 16 10 5 0 9 -4 9 -10z m-120 -27 c-1 -13 -29 -59 -30 -48 0 21 13 55 21 55 5 0 9 -3 9 -7z m74 -19 c31 -30 13 -74 -30 -74 -37 0 -63 50 -38 75 20 19 48 19 68 -1z m-104 -54 c0 -5 -7 -10 -15 -10 -8 0 -15 5 -15 10 0 6 7 10 15 10 8 0 15 -4 15 -10z" transform="translate(0,78) scale(0.1,-0.1)" stroke="none" fill="#FBD984"/>

<path d="M628 578 c-14 -21 -15 -21 -45 -3 -29 17 -31 17 -57 0 -37 -25 -66 -89 -66 -147 l0 -48 -73 0 c-70 0 -74 -1 -107 -35 -30 -31 -34 -42 -35 -88 l0 -52 50 0 c43 1 60 7 111 43 33 23 63 42 67 42 13 0 7 -32 -11 -58 -30 -44 -54 -155 -39 -179 13 -21 71 -15 108 10 47 31 58 72 52 187 -5 80 -9 98 -26 111 -24 19 -15 39 17 39 29 0 42 -15 50 -61 5 -26 2 -40 -9 -49 -20 -17 -19 -33 5 -81 21 -40 64 -74 108 -85 31 -9 82 39 82 76 0 34 -43 75 -98 92 -23 7 -41 17 -39 23 2 5 30 15 62 22 79 15 105 29 105 53 0 23 -46 50 -87 50 -15 0 -43 -9 -61 -20 -59 -36 -82 -22 -36 21 30 28 64 90 64 117 0 44 -66 59 -92 20z m-108 -254 c0 -8 -4 -14 -10 -14 -5 0 -10 9 -10 21 0 11 5 17 10 14 6 -3 10 -13 10 -21z" transform="translate(0,78) scale(0.1,-0.1)" stroke="none" fill="#C0D6BD"/>

</g>

<g id="4" transform="translate(352.0,0)scale(1,1)">

<path d="M783 253 c15 -16 27 -40 27 -53 0 -13 -12 -37 -27 -53 -16 -16 -21 -28 -13 -25 14 4 60 64 60 78 0 14 -46 74 -60 78 -8 3 -3 -9 13 -25z" transform="translate(0,78) scale(0.1,-0.1)" stroke="none" fill="#905D35"/>

<path d="M701 501 c-7 -16 -26 -41 -42 -57 -52 -50 -29 -60 42 -19 24 14 40 25 34 25 -5 -1 -21 -7 -35 -15 -34 -20 -46 -19 -28 3 20 22 51 83 45 88 -2 3 -10 -8 -16 -25z" transform="translate(0,78) scale(0.1,-0.1)" stroke="none" fill="#905D35"/>

<path d="M813 424 c33 -18 35 -51 4 -65 -13 -6 -50 -16 -82 -22 -53 -11 -89 -37 -50 -37 9 0 14 4 11 9 -4 5 13 12 36 16 24 4 60 14 81 22 30 12 37 20 37 42 0 20 -7 31 -25 39 -37 17 -45 14 -12 -4z" transform="translate(0,78) scale(0.1,-0.1)" stroke="none" fill="#905D35"/>

<path d="M557 381 c-3 -12 1 -22 9 -25 8 -3 14 -19 14 -35 0 -35 15 -48 36 -30 15 13 10 73 -9 97 -15 18 -44 14 -50 -7z" transform="translate(0,78) scale(0.1,-0.1)" stroke="none" fill="#FBD984"/>

<path d="M222 568 c-15 -15 -15 -51 0 -66 27 -27 78 -7 78 29 0 39 -52 63 -78 37z" transform="translate(0,78) scale(0.1,-0.1)" stroke="none" fill="#A19C60"/>

<path d="M583 224 c7 -87 -7 -131 -52 -161 -37 -25 -95 -31 -107 -11 -5 7 -7 29 -6 48 2 26 0 31 -7 20 -12 -17 -14 -50 -5 -74 8 -22 90 -20 128 2 37 22 66 76 66 124 l0 37 45 -44 c24 -25 52 -45 62 -45 11 1 3 9 -20 21 -40 21 -74 66 -84 112 -3 15 -10 30 -16 34 -7 4 -8 -17 -4 -63z" transform="translate(0,78) scale(0.1,-0.1)" stroke="none" fill="#905D35"/>

<path d="M253 337 c-51 -41 -68 -65 -38 -53 12 4 15 -4 15 -38 0 -58 12 -67 79 -54 48 8 96 35 140 76 23 22 25 5 3 -31 -11 -19 -22 -50 -26 -68 l-5 -34 12 36 c7 19 20 47 30 62 17 27 23 57 10 57 -4 0 -34 -19 -67 -42 -51 -36 -68 -42 -111 -43 l-50 0 0 52 c1 46 5 57 35 88 44 46 37 44 -27 -8z" transform="translate(0,78) scale(0.1,-0.1)" stroke="none" fill="#905D35"/>

<path d="M283 744 c-19 -8 -42 -31 -57 -57 -24 -41 -29 -44 -70 -44 -48 0 -89 -20 -106 -53 -9 -17 -6 -25 19 -50 16 -17 37 -30 45 -30 20 0 21 -19 2 -26 -21 -8 -36 -58 -27 -91 4 -15 19 -34 33 -40 36 -18 91 6 108 47 14 33 40 39 60 15 7 -8 19 -15 27 -15 8 0 11 -4 8 -10 -4 -6 20 -10 64 -10 l71 0 0 46 0 47 -23 -34 c-31 -46 -88 -52 -132 -14 -17 14 -34 25 -39 25 -4 0 -25 -17 -45 -39 -43 -45 -62 -54 -96 -41 -42 16 -32 84 14 102 l26 9 -31 27 c-17 15 -41 35 -52 44 -12 10 -22 22 -22 27 0 17 71 51 108 51 44 0 52 5 73 45 9 17 33 39 53 50 33 18 38 19 63 5 42 -23 43 -68 2 -108 -17 -17 -28 -35 -24 -41 8 -14 42 -14 50 -1 3 6 26 10 51 10 25 0 43 -4 40 -8 -2 -4 -1 -14 4 -21 6 -11 14 -9 40 9 32 23 33 23 63 5 30 -18 31 -18 45 3 16 24 60 30 80 10 8 -8 12 -8 12 -1 0 6 -13 16 -30 21 -24 9 -33 7 -55 -10 -22 -17 -30 -18 -54 -8 -23 9 -33 9 -49 -1 -18 -11 -23 -10 -40 11 -15 18 -23 22 -33 14 -21 -16 -79 -17 -79 -1 0 7 4 17 9 23 9 9 14 37 12 64 -5 46 -64 68 -118 44z m82 -154 c-3 -5 -10 -10 -16 -10 -5 0 -9 5 -9 10 0 6 7 10 16 10 8 0 12 -4 9 -10z m81 -197 c-10 -10 -19 5 -10 18 6 11 8 11 12 0 2 -7 1 -15 -2 -18z" transform="translate(0,78) scale(0.1,-0.1)" stroke="none" fill="#905D35"/>

<path d="M285 722 c-16 -10 -37 -32 -45 -48 -20 -38 -28 -44 -72 -44 -37 0 -108 -34 -108 -51 0 -5 10 -17 22 -27 11 -9 35 -29 52 -44 l31 -27 -26 -9 c-46 -18 -56 -86 -14 -102 34 -13 53 -4 96 41 20 22 41 39 45 39 5 0 22 -11 38 -25 41 -35 97 -34 125 2 12 14 24 38 28 52 3 14 13 32 20 40 8 7 11 21 7 30 -3 9 -7 22 -7 29 0 15 -83 17 -92 2 -8 -13 -42 -13 -50 1 -4 6 7 24 24 41 38 37 41 80 9 102 -29 21 -46 20 -83 -2z m45 -112 c0 -5 -7 -10 -16 -10 -8 0 -12 5 -9 10 3 6 10 10 16 10 5 0 9 -4 9 -10z m-120 -27 c-1 -13 -29 -59 -30 -48 0 21 13 55 21 55 5 0 9 -3 9 -7z m74 -19 c31 -30 13 -74 -30 -74 -37 0 -63 50 -38 75 20 19 48 19 68 -1z m-104 -54 c0 -5 -7 -10 -15 -10 -8 0 -15 5 -15 10 0 6 7 10 15 10 8 0 15 -4 15 -10z" transform="translate(0,78) scale(0.1,-0.1)" stroke="none" fill="#FBD984"/>

<path d="M628 578 c-14 -21 -15 -21 -45 -3 -29 17 -31 17 -57 0 -37 -25 -66 -89 -66 -147 l0 -48 -73 0 c-70 0 -74 -1 -107 -35 -30 -31 -34 -42 -35 -88 l0 -52 50 0 c43 1 60 7 111 43 33 23 63 42 67 42 13 0 7 -32 -11 -58 -30 -44 -54 -155 -39 -179 13 -21 71 -15 108 10 47 31 58 72 52 187 -5 80 -9 98 -26 111 -24 19 -15 39 17 39 29 0 42 -15 50 -61 5 -26 2 -40 -9 -49 -20 -17 -19 -33 5 -81 21 -40 64 -74 108 -85 31 -9 82 39 82 76 0 34 -43 75 -98 92 -23 7 -41 17 -39 23 2 5 30 15 62 22 79 15 105 29 105 53 0 23 -46 50 -87 50 -15 0 -43 -9 -61 -20 -59 -36 -82 -22 -36 21 30 28 64 90 64 117 0 44 -66 59 -92 20z m-108 -254 c0 -8 -4 -14 -10 -14 -5 0 -10 9 -10 21 0 11 5 17 10 14 6 -3 10 -13 10 -21z" transform="translate(0,78) scale(0.1,-0.1)" stroke="none" fill="#C0D6BD"/>

</g>

</g>
<g id="row3" transform="translate(-33,234.0)">
<g id="0" transform="translate(0.0,0)scale(1,1)">

<path d="M783 253 c15 -16 27 -40 27 -53 0 -13 -12 -37 -27 -53 -16 -16 -21 -28 -13 -25 14 4 60 64 60 78 0 14 -46 74 -60 78 -8 3 -3 -9 13 -25z" transform="translate(0,78) scale(0.1,-0.1)" stroke="none" fill="#905D35"/>

<path d="M701 501 c-7 -16 -26 -41 -42 -57 -52 -50 -29 -60 42 -19 24 14 40 25 34 25 -5 -1 -21 -7 -35 -15 -34 -20 -46 -19 -28 3 20 22 51 83 45 88 -2 3 -10 -8 -16 -25z" transform="translate(0,78) scale(0.1,-0.1)" stroke="none" fill="#905D35"/>

<path d="M813 424 c33 -18 35 -51 4 -65 -13 -6 -50 -16 -82 -22 -53 -11 -89 -37 -50 -37 9 0 14 4 11 9 -4 5 13 12 36 16 24 4 60 14 81 22 30 12 37 20 37 42 0 20 -7 31 -25 39 -37 17 -45 14 -12 -4z" transform="translate(0,78) scale(0.1,-0.1)" stroke="none" fill="#905D35"/>

<path d="M557 381 c-3 -12 1 -22 9 -25 8 -3 14 -19 14 -35 0 -35 15 -48 36 -30 15 13 10 73 -9 97 -15 18 -44 14 -50 -7z" transform="translate(0,78) scale(0.1,-0.1)" stroke="none" fill="#FBD984"/>

<path d="M222 568 c-15 -15 -15 -51 0 -66 27 -27 78 -7 78 29 0 39 -52 63 -78 37z" transform="translate(0,78) scale(0.1,-0.1)" stroke="none" fill="#A19C60"/>

<path d="M583 224 c7 -87 -7 -131 -52 -161 -37 -25 -95 -31 -107 -11 -5 7 -7 29 -6 48 2 26 0 31 -7 20 -12 -17 -14 -50 -5 -74 8 -22 90 -20 128 2 37 22 66 76 66 124 l0 37 45 -44 c24 -25 52 -45 62 -45 11 1 3 9 -20 21 -40 21 -74 66 -84 112 -3 15 -10 30 -16 34 -7 4 -8 -17 -4 -63z" transform="translate(0,78) scale(0.1,-0.1)" stroke="none" fill="#905D35"/>

<path d="M253 337 c-51 -41 -68 -65 -38 -53 12 4 15 -4 15 -38 0 -58 12 -67 79 -54 48 8 96 35 140 76 23 22 25 5 3 -31 -11 -19 -22 -50 -26 -68 l-5 -34 12 36 c7 19 20 47 30 62 17 27 23 57 10 57 -4 0 -34 -19 -67 -42 -51 -36 -68 -42 -111 -43 l-50 0 0 52 c1 46 5 57 35 88 44 46 37 44 -27 -8z" transform="translate(0,78) scale(0.1,-0.1)" stroke="none" fill="#905D35"/>

<path d="M283 744 c-19 -8 -42 -31 -57 -57 -24 -41 -29 -44 -70 -44 -48 0 -89 -20 -106 -53 -9 -17 -6 -25 19 -50 16 -17 37 -30 45 -30 20 0 21 -19 2 -26 -21 -8 -36 -58 -27 -91 4 -15 19 -34 33 -40 36 -18 91 6 108 47 14 33 40 39 60 15 7 -8 19 -15 27 -15 8 0 11 -4 8 -10 -4 -6 20 -10 64 -10 l71 0 0 46 0 47 -23 -34 c-31 -46 -88 -52 -132 -14 -17 14 -34 25 -39 25 -4 0 -25 -17 -45 -39 -43 -45 -62 -54 -96 -41 -42 16 -32 84 14 102 l26 9 -31 27 c-17 15 -41 35 -52 44 -12 10 -22 22 -22 27 0 17 71 51 108 51 44 0 52 5 73 45 9 17 33 39 53 50 33 18 38 19 63 5 42 -23 43 -68 2 -108 -17 -17 -28 -35 -24 -41 8 -14 42 -14 50 -1 3 6 26 10 51 10 25 0 43 -4 40 -8 -2 -4 -1 -14 4 -21 6 -11 14 -9 40 9 32 23 33 23 63 5 30 -18 31 -18 45 3 16 24 60 30 80 10 8 -8 12 -8 12 -1 0 6 -13 16 -30 21 -24 9 -33 7 -55 -10 -22 -17 -30 -18 -54 -8 -23 9 -33 9 -49 -1 -18 -11 -23 -10 -40 11 -15 18 -23 22 -33 14 -21 -16 -79 -17 -79 -1 0 7 4 17 9 23 9 9 14 37 12 64 -5 46 -64 68 -118 44z m82 -154 c-3 -5 -10 -10 -16 -10 -5 0 -9 5 -9 10 0 6 7 10 16 10 8 0 12 -4 9 -10z m81 -197 c-10 -10 -19 5 -10 18 6 11 8 11 12 0 2 -7 1 -15 -2 -18z" transform="translate(0,78) scale(0.1,-0.1)" stroke="none" fill="#905D35"/>

<path d="M285 722 c-16 -10 -37 -32 -45 -48 -20 -38 -28 -44 -72 -44 -37 0 -108 -34 -108 -51 0 -5 10 -17 22 -27 11 -9 35 -29 52 -44 l31 -27 -26 -9 c-46 -18 -56 -86 -14 -102 34 -13 53 -4 96 41 20 22 41 39 45 39 5 0 22 -11 38 -25 41 -35 97 -34 125 2 12 14 24 38 28 52 3 14 13 32 20 40 8 7 11 21 7 30 -3 9 -7 22 -7 29 0 15 -83 17 -92 2 -8 -13 -42 -13 -50 1 -4 6 7 24 24 41 38 37 41 80 9 102 -29 21 -46 20 -83 -2z m45 -112 c0 -5 -7 -10 -16 -10 -8 0 -12 5 -9 10 3 6 10 10 16 10 5 0 9 -4 9 -10z m-120 -27 c-1 -13 -29 -59 -30 -48 0 21 13 55 21 55 5 0 9 -3 9 -7z m74 -19 c31 -30 13 -74 -30 -74 -37 0 -63 50 -38 75 20 19 48 19 68 -1z m-104 -54 c0 -5 -7 -10 -15 -10 -8 0 -15 5 -15 10 0 6 7 10 15 10 8 0 15 -4 15 -10z" transform="translate(0,78) scale(0.1,-0.1)" stroke="none" fill="#FBD984"/>

<path d="M628 578 c-14 -21 -15 -21 -45 -3 -29 17 -31 17 -57 0 -37 -25 -66 -89 -66 -147 l0 -48 -73 0 c-70 0 -74 -1 -107 -35 -30 -31 -34 -42 -35 -88 l0 -52 50 0 c43 1 60 7 111 43 33 23 63 42 67 42 13 0 7 -32 -11 -58 -30 -44 -54 -155 -39 -179 13 -21 71 -15 108 10 47 31 58 72 52 187 -5 80 -9 98 -26 111 -24 19 -15 39 17 39 29 0 42 -15 50 -61 5 -26 2 -40 -9 -49 -20 -17 -19 -33 5 -81 21 -40 64 -74 108 -85 31 -9 82 39 82 76 0 34 -43 75 -98 92 -23 7 -41 17 -39 23 2 5 30 15 62 22 79 15 105 29 105 53 0 23 -46 50 -87 50 -15 0 -43 -9 -61 -20 -59 -36 -82 -22 -36 21 30 28 64 90 64 117 0 44 -66 59 -92 20z m-108 -254 c0 -8 -4 -14 -10 -14 -5 0 -10 9 -10 21 0 11 5 17 10 14 6 -3 10 -13 10 -21z" transform="translate(0,78) scale(0.1,-0.1)" stroke="none" fill="#C0D6BD"/>

</g>

<g id="1" transform="translate(88.0,0)scale(1,1)">

<path d="M783 253 c15 -16 27 -40 27 -53 0 -13 -12 -37 -27 -53 -16 -16 -21 -28 -13 -25 14 4 60 64 60 78 0 14 -46 74 -60 78 -8 3 -3 -9 13 -25z" transform="translate(0,78) scale(0.1,-0.1)" stroke="none" fill="#905D35"/>

<path d="M701 501 c-7 -16 -26 -41 -42 -57 -52 -50 -29 -60 42 -19 24 14 40 25 34 25 -5 -1 -21 -7 -35 -15 -34 -20 -46 -19 -28 3 20 22 51 83 45 88 -2 3 -10 -8 -16 -25z" transform="translate(0,78) scale(0.1,-0.1)" stroke="none" fill="#905D35"/>

<path d="M813 424 c33 -18 35 -51 4 -65 -13 -6 -50 -16 -82 -22 -53 -11 -89 -37 -50 -37 9 0 14 4 11 9 -4 5 13 12 36 16 24 4 60 14 81 22 30 12 37 20 37 42 0 20 -7 31 -25 39 -37 17 -45 14 -12 -4z" transform="translate(0,78) scale(0.1,-0.1)" stroke="none" fill="#905D35"/>

<path d="M557 381 c-3 -12 1 -22 9 -25 8 -3 14 -19 14 -35 0 -35 15 -48 36 -30 15 13 10 73 -9 97 -15 18 -44 14 -50 -7z" transform="translate(0,78) scale(0.1,-0.1)" stroke="none" fill="#FBD984"/>

<path d="M222 568 c-15 -15 -15 -51 0 -66 27 -27 78 -7 78 29 0 39 -52 63 -78 37z" transform="translate(0,78) scale(0.1,-0.1)" stroke="none" fill="#A19C60"/>

<path d="M583 224 c7 -87 -7 -131 -52 -161 -37 -25 -95 -31 -107 -11 -5 7 -7 29 -6 48 2 26 0 31 -7 20 -12 -17 -14 -50 -5 -74 8 -22 90 -20 128 2 37 22 66 76 66 124 l0 37 45 -44 c24 -25 52 -45 62 -45 11 1 3 9 -20 21 -40 21 -74 66 -84 112 -3 15 -10 30 -16 34 -7 4 -8 -17 -4 -63z" transform="translate(0,78) scale(0.1,-0.1)" stroke="none" fill="#905D35"/>

<path d="M253 337 c-51 -41 -68 -65 -38 -53 12 4 15 -4 15 -38 0 -58 12 -67 79 -54 48 8 96 35 140 76 23 22 25 5 3 -31 -11 -19 -22 -50 -26 -68 l-5 -34 12 36 c7 19 20 47 30 62 17 27 23 57 10 57 -4 0 -34 -19 -67 -42 -51 -36 -68 -42 -111 -43 l-50 0 0 52 c1 46 5 57 35 88 44 46 37 44 -27 -8z" transform="translate(0,78) scale(0.1,-0.1)" stroke="none" fill="#905D35"/>

<path d="M283 744 c-19 -8 -42 -31 -57 -57 -24 -41 -29 -44 -70 -44 -48 0 -89 -20 -106 -53 -9 -17 -6 -25 19 -50 16 -17 37 -30 45 -30 20 0 21 -19 2 -26 -21 -8 -36 -58 -27 -91 4 -15 19 -34 33 -40 36 -18 91 6 108 47 14 33 40 39 60 15 7 -8 19 -15 27 -15 8 0 11 -4 8 -10 -4 -6 20 -10 64 -10 l71 0 0 46 0 47 -23 -34 c-31 -46 -88 -52 -132 -14 -17 14 -34 25 -39 25 -4 0 -25 -17 -45 -39 -43 -45 -62 -54 -96 -41 -42 16 -32 84 14 102 l26 9 -31 27 c-17 15 -41 35 -52 44 -12 10 -22 22 -22 27 0 17 71 51 108 51 44 0 52 5 73 45 9 17 33 39 53 50 33 18 38 19 63 5 42 -23 43 -68 2 -108 -17 -17 -28 -35 -24 -41 8 -14 42 -14 50 -1 3 6 26 10 51 10 25 0 43 -4 40 -8 -2 -4 -1 -14 4 -21 6 -11 14 -9 40 9 32 23 33 23 63 5 30 -18 31 -18 45 3 16 24 60 30 80 10 8 -8 12 -8 12 -1 0 6 -13 16 -30 21 -24 9 -33 7 -55 -10 -22 -17 -30 -18 -54 -8 -23 9 -33 9 -49 -1 -18 -11 -23 -10 -40 11 -15 18 -23 22 -33 14 -21 -16 -79 -17 -79 -1 0 7 4 17 9 23 9 9 14 37 12 64 -5 46 -64 68 -118 44z m82 -154 c-3 -5 -10 -10 -16 -10 -5 0 -9 5 -9 10 0 6 7 10 16 10 8 0 12 -4 9 -10z m81 -197 c-10 -10 -19 5 -10 18 6 11 8 11 12 0 2 -7 1 -15 -2 -18z" transform="translate(0,78) scale(0.1,-0.1)" stroke="none" fill="#905D35"/>

<path d="M285 722 c-16 -10 -37 -32 -45 -48 -20 -38 -28 -44 -72 -44 -37 0 -108 -34 -108 -51 0 -5 10 -17 22 -27 11 -9 35 -29 52 -44 l31 -27 -26 -9 c-46 -18 -56 -86 -14 -102 34 -13 53 -4 96 41 20 22 41 39 45 39 5 0 22 -11 38 -25 41 -35 97 -34 125 2 12 14 24 38 28 52 3 14 13 32 20 40 8 7 11 21 7 30 -3 9 -7 22 -7 29 0 15 -83 17 -92 2 -8 -13 -42 -13 -50 1 -4 6 7 24 24 41 38 37 41 80 9 102 -29 21 -46 20 -83 -2z m45 -112 c0 -5 -7 -10 -16 -10 -8 0 -12 5 -9 10 3 6 10 10 16 10 5 0 9 -4 9 -10z m-120 -27 c-1 -13 -29 -59 -30 -48 0 21 13 55 21 55 5 0 9 -3 9 -7z m74 -19 c31 -30 13 -74 -30 -74 -37 0 -63 50 -38 75 20 19 48 19 68 -1z m-104 -54 c0 -5 -7 -10 -15 -10 -8 0 -15 5 -15 10 0 6 7 10 15 10 8 0 15 -4 15 -10z" transform="translate(0,78) scale(0.1,-0.1)" stroke="none" fill="#FBD984"/>

<path d="M628 578 c-14 -21 -15 -21 -45 -3 -29 17 -31 17 -57 0 -37 -25 -66 -89 -66 -147 l0 -48 -73 0 c-70 0 -74 -1 -107 -35 -30 -31 -34 -42 -35 -88 l0 -52 50 0 c43 1 60 7 111 43 33 23 63 42 67 42 13 0 7 -32 -11 -58 -30 -44 -54 -155 -39 -179 13 -21 71 -15 108 10 47 31 58 72 52 187 -5 80 -9 98 -26 111 -24 19 -15 39 17 39 29 0 42 -15 50 -61 5 -26 2 -40 -9 -49 -20 -17 -19 -33 5 -81 21 -40 64 -74 108 -85 31 -9 82 39 82 76 0 34 -43 75 -98 92 -23 7 -41 17 -39 23 2 5 30 15 62 22 79 15 105 29 105 53 0 23 -46 50 -87 50 -15 0 -43 -9 -61 -20 -59 -36 -82 -22 -36 21 30 28 64 90 64 117 0 44 -66 59 -92 20z m-108 -254 c0 -8 -4 -14 -10 -14 -5 0 -10 9 -10 21 0 11 5 17 10 14 6 -3 10 -13 10 -21z" transform="translate(0,78) scale(0.1,-0.1)" stroke="none" fill="#C0D6BD"/>

</g>

<g id="2" transform="translate(176.0,0)scale(1,1)">

<path d="M783 253 c15 -16 27 -40 27 -53 0 -13 -12 -37 -27 -53 -16 -16 -21 -28 -13 -25 14 4 60 64 60 78 0 14 -46 74 -60 78 -8 3 -3 -9 13 -25z" transform="translate(0,78) scale(0.1,-0.1)" stroke="none" fill="#905D35"/>

<path d="M701 501 c-7 -16 -26 -41 -42 -57 -52 -50 -29 -60 42 -19 24 14 40 25 34 25 -5 -1 -21 -7 -35 -15 -34 -20 -46 -19 -28 3 20 22 51 83 45 88 -2 3 -10 -8 -16 -25z" transform="translate(0,78) scale(0.1,-0.1)" stroke="none" fill="#905D35"/>

<path d="M813 424 c33 -18 35 -51 4 -65 -13 -6 -50 -16 -82 -22 -53 -11 -89 -37 -50 -37 9 0 14 4 11 9 -4 5 13 12 36 16 24 4 60 14 81 22 30 12 37 20 37 42 0 20 -7 31 -25 39 -37 17 -45 14 -12 -4z" transform="translate(0,78) scale(0.1,-0.1)" stroke="none" fill="#905D35"/>

<path d="M557 381 c-3 -12 1 -22 9 -25 8 -3 14 -19 14 -35 0 -35 15 -48 36 -30 15 13 10 73 -9 97 -15 18 -44 14 -50 -7z" transform="translate(0,78) scale(0.1,-0.1)" stroke="none" fill="#FBD984"/>

<path d="M222 568 c-15 -15 -15 -51 0 -66 27 -27 78 -7 78 29 0 39 -52 63 -78 37z" transform="translate(0,78) scale(0.1,-0.1)" stroke="none" fill="#A19C60"/>

<path d="M583 224 c7 -87 -7 -131 -52 -161 -37 -25 -95 -31 -107 -11 -5 7 -7 29 -6 48 2 26 0 31 -7 20 -12 -17 -14 -50 -5 -74 8 -22 90 -20 128 2 37 22 66 76 66 124 l0 37 45 -44 c24 -25 52 -45 62 -45 11 1 3 9 -20 21 -40 21 -74 66 -84 112 -3 15 -10 30 -16 34 -7 4 -8 -17 -4 -63z" transform="translate(0,78) scale(0.1,-0.1)" stroke="none" fill="#905D35"/>

<path d="M253 337 c-51 -41 -68 -65 -38 -53 12 4 15 -4 15 -38 0 -58 12 -67 79 -54 48 8 96 35 140 76 23 22 25 5 3 -31 -11 -19 -22 -50 -26 -68 l-5 -34 12 36 c7 19 20 47 30 62 17 27 23 57 10 57 -4 0 -34 -19 -67 -42 -51 -36 -68 -42 -111 -43 l-50 0 0 52 c1 46 5 57 35 88 44 46 37 44 -27 -8z" transform="translate(0,78) scale(0.1,-0.1)" stroke="none" fill="#905D35"/>

<path d="M283 744 c-19 -8 -42 -31 -57 -57 -24 -41 -29 -44 -70 -44 -48 0 -89 -20 -106 -53 -9 -17 -6 -25 19 -50 16 -17 37 -30 45 -30 20 0 21 -19 2 -26 -21 -8 -36 -58 -27 -91 4 -15 19 -34 33 -40 36 -18 91 6 108 47 14 33 40 39 60 15 7 -8 19 -15 27 -15 8 0 11 -4 8 -10 -4 -6 20 -10 64 -10 l71 0 0 46 0 47 -23 -34 c-31 -46 -88 -52 -132 -14 -17 14 -34 25 -39 25 -4 0 -25 -17 -45 -39 -43 -45 -62 -54 -96 -41 -42 16 -32 84 14 102 l26 9 -31 27 c-17 15 -41 35 -52 44 -12 10 -22 22 -22 27 0 17 71 51 108 51 44 0 52 5 73 45 9 17 33 39 53 50 33 18 38 19 63 5 42 -23 43 -68 2 -108 -17 -17 -28 -35 -24 -41 8 -14 42 -14 50 -1 3 6 26 10 51 10 25 0 43 -4 40 -8 -2 -4 -1 -14 4 -21 6 -11 14 -9 40 9 32 23 33 23 63 5 30 -18 31 -18 45 3 16 24 60 30 80 10 8 -8 12 -8 12 -1 0 6 -13 16 -30 21 -24 9 -33 7 -55 -10 -22 -17 -30 -18 -54 -8 -23 9 -33 9 -49 -1 -18 -11 -23 -10 -40 11 -15 18 -23 22 -33 14 -21 -16 -79 -17 -79 -1 0 7 4 17 9 23 9 9 14 37 12 64 -5 46 -64 68 -118 44z m82 -154 c-3 -5 -10 -10 -16 -10 -5 0 -9 5 -9 10 0 6 7 10 16 10 8 0 12 -4 9 -10z m81 -197 c-10 -10 -19 5 -10 18 6 11 8 11 12 0 2 -7 1 -15 -2 -18z" transform="translate(0,78) scale(0.1,-0.1)" stroke="none" fill="#905D35"/>

<path d="M285 722 c-16 -10 -37 -32 -45 -48 -20 -38 -28 -44 -72 -44 -37 0 -108 -34 -108 -51 0 -5 10 -17 22 -27 11 -9 35 -29 52 -44 l31 -27 -26 -9 c-46 -18 -56 -86 -14 -102 34 -13 53 -4 96 41 20 22 41 39 45 39 5 0 22 -11 38 -25 41 -35 97 -34 125 2 12 14 24 38 28 52 3 14 13 32 20 40 8 7 11 21 7 30 -3 9 -7 22 -7 29 0 15 -83 17 -92 2 -8 -13 -42 -13 -50 1 -4 6 7 24 24 41 38 37 41 80 9 102 -29 21 -46 20 -83 -2z m45 -112 c0 -5 -7 -10 -16 -10 -8 0 -12 5 -9 10 3 6 10 10 16 10 5 0 9 -4 9 -10z m-120 -27 c-1 -13 -29 -59 -30 -48 0 21 13 55 21 55 5 0 9 -3 9 -7z m74 -19 c31 -30 13 -74 -30 -74 -37 0 -63 50 -38 75 20 19 48 19 68 -1z m-104 -54 c0 -5 -7 -10 -15 -10 -8 0 -15 5 -15 10 0 6 7 10 15 10 8 0 15 -4 15 -10z" transform="translate(0,78) scale(0.1,-0.1)" stroke="none" fill="#FBD984"/>

<path d="M628 578 c-14 -21 -15 -21 -45 -3 -29 17 -31 17 -57 0 -37 -25 -66 -89 -66 -147 l0 -48 -73 0 c-70 0 -74 -1 -107 -35 -30 -31 -34 -42 -35 -88 l0 -52 50 0 c43 1 60 7 111 43 33 23 63 42 67 42 13 0 7 -32 -11 -58 -30 -44 -54 -155 -39 -179 13 -21 71 -15 108 10 47 31 58 72 52 187 -5 80 -9 98 -26 111 -24 19 -15 39 17 39 29 0 42 -15 50 -61 5 -26 2 -40 -9 -49 -20 -17 -19 -33 5 -81 21 -40 64 -74 108 -85 31 -9 82 39 82 76 0 34 -43 75 -98 92 -23 7 -41 17 -39 23 2 5 30 15 62 22 79 15 105 29 105 53 0 23 -46 50 -87 50 -15 0 -43 -9 -61 -20 -59 -36 -82 -22 -36 21 30 28 64 90 64 117 0 44 -66 59 -92 20z m-108 -254 c0 -8 -4 -14 -10 -14 -5 0 -10 9 -10 21 0 11 5 17 10 14 6 -3 10 -13 10 -21z" transform="translate(0,78) scale(0.1,-0.1)" stroke="none" fill="#C0D6BD"/>

</g>

<g id="3" transform="translate(264.0,0)scale(1,1)">

<path d="M783 253 c15 -16 27 -40 27 -53 0 -13 -12 -37 -27 -53 -16 -16 -21 -28 -13 -25 14 4 60 64 60 78 0 14 -46 74 -60 78 -8 3 -3 -9 13 -25z" transform="translate(0,78) scale(0.1,-0.1)" stroke="none" fill="#905D35"/>

<path d="M701 501 c-7 -16 -26 -41 -42 -57 -52 -50 -29 -60 42 -19 24 14 40 25 34 25 -5 -1 -21 -7 -35 -15 -34 -20 -46 -19 -28 3 20 22 51 83 45 88 -2 3 -10 -8 -16 -25z" transform="translate(0,78) scale(0.1,-0.1)" stroke="none" fill="#905D35"/>

<path d="M813 424 c33 -18 35 -51 4 -65 -13 -6 -50 -16 -82 -22 -53 -11 -89 -37 -50 -37 9 0 14 4 11 9 -4 5 13 12 36 16 24 4 60 14 81 22 30 12 37 20 37 42 0 20 -7 31 -25 39 -37 17 -45 14 -12 -4z" transform="translate(0,78) scale(0.1,-0.1)" stroke="none" fill="#905D35"/>

<path d="M557 381 c-3 -12 1 -22 9 -25 8 -3 14 -19 14 -35 0 -35 15 -48 36 -30 15 13 10 73 -9 97 -15 18 -44 14 -50 -7z" transform="translate(0,78) scale(0.1,-0.1)" stroke="none" fill="#FBD984"/>

<path d="M222 568 c-15 -15 -15 -51 0 -66 27 -27 78 -7 78 29 0 39 -52 63 -78 37z" transform="translate(0,78) scale(0.1,-0.1)" stroke="none" fill="#A19C60"/>

<path d="M583 224 c7 -87 -7 -131 -52 -161 -37 -25 -95 -31 -107 -11 -5 7 -7 29 -6 48 2 26 0 31 -7 20 -12 -17 -14 -50 -5 -74 8 -22 90 -20 128 2 37 22 66 76 66 124 l0 37 45 -44 c24 -25 52 -45 62 -45 11 1 3 9 -20 21 -40 21 -74 66 -84 112 -3 15 -10 30 -16 34 -7 4 -8 -17 -4 -63z" transform="translate(0,78) scale(0.1,-0.1)" stroke="none" fill="#905D35"/>

<path d="M253 337 c-51 -41 -68 -65 -38 -53 12 4 15 -4 15 -38 0 -58 12 -67 79 -54 48 8 96 35 140 76 23 22 25 5 3 -31 -11 -19 -22 -50 -26 -68 l-5 -34 12 36 c7 19 20 47 30 62 17 27 23 57 10 57 -4 0 -34 -19 -67 -42 -51 -36 -68 -42 -111 -43 l-50 0 0 52 c1 46 5 57 35 88 44 46 37 44 -27 -8z" transform="translate(0,78) scale(0.1,-0.1)" stroke="none" fill="#905D35"/>

<path d="M283 744 c-19 -8 -42 -31 -57 -57 -24 -41 -29 -44 -70 -44 -48 0 -89 -20 -106 -53 -9 -17 -6 -25 19 -50 16 -17 37 -30 45 -30 20 0 21 -19 2 -26 -21 -8 -36 -58 -27 -91 4 -15 19 -34 33 -40 36 -18 91 6 108 47 14 33 40 39 60 15 7 -8 19 -15 27 -15 8 0 11 -4 8 -10 -4 -6 20 -10 64 -10 l71 0 0 46 0 47 -23 -34 c-31 -46 -88 -52 -132 -14 -17 14 -34 25 -39 25 -4 0 -25 -17 -45 -39 -43 -45 -62 -54 -96 -41 -42 16 -32 84 14 102 l26 9 -31 27 c-17 15 -41 35 -52 44 -12 10 -22 22 -22 27 0 17 71 51 108 51 44 0 52 5 73 45 9 17 33 39 53 50 33 18 38 19 63 5 42 -23 43 -68 2 -108 -17 -17 -28 -35 -24 -41 8 -14 42 -14 50 -1 3 6 26 10 51 10 25 0 43 -4 40 -8 -2 -4 -1 -14 4 -21 6 -11 14 -9 40 9 32 23 33 23 63 5 30 -18 31 -18 45 3 16 24 60 30 80 10 8 -8 12 -8 12 -1 0 6 -13 16 -30 21 -24 9 -33 7 -55 -10 -22 -17 -30 -18 -54 -8 -23 9 -33 9 -49 -1 -18 -11 -23 -10 -40 11 -15 18 -23 22 -33 14 -21 -16 -79 -17 -79 -1 0 7 4 17 9 23 9 9 14 37 12 64 -5 46 -64 68 -118 44z m82 -154 c-3 -5 -10 -10 -16 -10 -5 0 -9 5 -9 10 0 6 7 10 16 10 8 0 12 -4 9 -10z m81 -197 c-10 -10 -19 5 -10 18 6 11 8 11 12 0 2 -7 1 -15 -2 -18z" transform="translate(0,78) scale(0.1,-0.1)" stroke="none" fill="#905D35"/>

<path d="M285 722 c-16 -10 -37 -32 -45 -48 -20 -38 -28 -44 -72 -44 -37 0 -108 -34 -108 -51 0 -5 10 -17 22 -27 11 -9 35 -29 52 -44 l31 -27 -26 -9 c-46 -18 -56 -86 -14 -102 34 -13 53 -4 96 41 20 22 41 39 45 39 5 0 22 -11 38 -25 41 -35 97 -34 125 2 12 14 24 38 28 52 3 14 13 32 20 40 8 7 11 21 7 30 -3 9 -7 22 -7 29 0 15 -83 17 -92 2 -8 -13 -42 -13 -50 1 -4 6 7 24 24 41 38 37 41 80 9 102 -29 21 -46 20 -83 -2z m45 -112 c0 -5 -7 -10 -16 -10 -8 0 -12 5 -9 10 3 6 10 10 16 10 5 0 9 -4 9 -10z m-120 -27 c-1 -13 -29 -59 -30 -48 0 21 13 55 21 55 5 0 9 -3 9 -7z m74 -19 c31 -30 13 -74 -30 -74 -37 0 -63 50 -38 75 20 19 48 19 68 -1z m-104 -54 c0 -5 -7 -10 -15 -10 -8 0 -15 5 -15 10 0 6 7 10 15 10 8 0 15 -4 15 -10z" transform="translate(0,78) scale(0.1,-0.1)" stroke="none" fill="#FBD984"/>

<path d="M628 578 c-14 -21 -15 -21 -45 -3 -29 17 -31 17 -57 0 -37 -25 -66 -89 -66 -147 l0 -48 -73 0 c-70 0 -74 -1 -107 -35 -30 -31 -34 -42 -35 -88 l0 -52 50 0 c43 1 60 7 111 43 33 23 63 42 67 42 13 0 7 -32 -11 -58 -30 -44 -54 -155 -39 -179 13 -21 71 -15 108 10 47 31 58 72 52 187 -5 80 -9 98 -26 111 -24 19 -15 39 17 39 29 0 42 -15 50 -61 5 -26 2 -40 -9 -49 -20 -17 -19 -33 5 -81 21 -40 64 -74 108 -85 31 -9 82 39 82 76 0 34 -43 75 -98 92 -23 7 -41 17 -39 23 2 5 30 15 62 22 79 15 105 29 105 53 0 23 -46 50 -87 50 -15 0 -43 -9 -61 -20 -59 -36 -82 -22 -36 21 30 28 64 90 64 117 0 44 -66 59 -92 20z m-108 -254 c0 -8 -4 -14 -10 -14 -5 0 -10 9 -10 21 0 11 5 17 10 14 6 -3 10 -13 10 -21z" transform="translate(0,78) scale(0.1,-0.1)" stroke="none" fill="#C0D6BD"/>

</g>

<g id="4" transform="translate(352.0,0)scale(1,1)">

<path d="M783 253 c15 -16 27 -40 27 -53 0 -13 -12 -37 -27 -53 -16 -16 -21 -28 -13 -25 14 4 60 64 60 78 0 14 -46 74 -60 78 -8 3 -3 -9 13 -25z" transform="translate(0,78) scale(0.1,-0.1)" stroke="none" fill="#905D35"/>

<path d="M701 501 c-7 -16 -26 -41 -42 -57 -52 -50 -29 -60 42 -19 24 14 40 25 34 25 -5 -1 -21 -7 -35 -15 -34 -20 -46 -19 -28 3 20 22 51 83 45 88 -2 3 -10 -8 -16 -25z" transform="translate(0,78) scale(0.1,-0.1)" stroke="none" fill="#905D35"/>

<path d="M813 424 c33 -18 35 -51 4 -65 -13 -6 -50 -16 -82 -22 -53 -11 -89 -37 -50 -37 9 0 14 4 11 9 -4 5 13 12 36 16 24 4 60 14 81 22 30 12 37 20 37 42 0 20 -7 31 -25 39 -37 17 -45 14 -12 -4z" transform="translate(0,78) scale(0.1,-0.1)" stroke="none" fill="#905D35"/>

<path d="M557 381 c-3 -12 1 -22 9 -25 8 -3 14 -19 14 -35 0 -35 15 -48 36 -30 15 13 10 73 -9 97 -15 18 -44 14 -50 -7z" transform="translate(0,78) scale(0.1,-0.1)" stroke="none" fill="#FBD984"/>

<path d="M222 568 c-15 -15 -15 -51 0 -66 27 -27 78 -7 78 29 0 39 -52 63 -78 37z" transform="translate(0,78) scale(0.1,-0.1)" stroke="none" fill="#A19C60"/>

<path d="M583 224 c7 -87 -7 -131 -52 -161 -37 -25 -95 -31 -107 -11 -5 7 -7 29 -6 48 2 26 0 31 -7 20 -12 -17 -14 -50 -5 -74 8 -22 90 -20 128 2 37 22 66 76 66 124 l0 37 45 -44 c24 -25 52 -45 62 -45 11 1 3 9 -20 21 -40 21 -74 66 -84 112 -3 15 -10 30 -16 34 -7 4 -8 -17 -4 -63z" transform="translate(0,78) scale(0.1,-0.1)" stroke="none" fill="#905D35"/>

<path d="M253 337 c-51 -41 -68 -65 -38 -53 12 4 15 -4 15 -38 0 -58 12 -67 79 -54 48 8 96 35 140 76 23 22 25 5 3 -31 -11 -19 -22 -50 -26 -68 l-5 -34 12 36 c7 19 20 47 30 62 17 27 23 57 10 57 -4 0 -34 -19 -67 -42 -51 -36 -68 -42 -111 -43 l-50 0 0 52 c1 46 5 57 35 88 44 46 37 44 -27 -8z" transform="translate(0,78) scale(0.1,-0.1)" stroke="none" fill="#905D35"/>

<path d="M283 744 c-19 -8 -42 -31 -57 -57 -24 -41 -29 -44 -70 -44 -48 0 -89 -20 -106 -53 -9 -17 -6 -25 19 -50 16 -17 37 -30 45 -30 20 0 21 -19 2 -26 -21 -8 -36 -58 -27 -91 4 -15 19 -34 33 -40 36 -18 91 6 108 47 14 33 40 39 60 15 7 -8 19 -15 27 -15 8 0 11 -4 8 -10 -4 -6 20 -10 64 -10 l71 0 0 46 0 47 -23 -34 c-31 -46 -88 -52 -132 -14 -17 14 -34 25 -39 25 -4 0 -25 -17 -45 -39 -43 -45 -62 -54 -96 -41 -42 16 -32 84 14 102 l26 9 -31 27 c-17 15 -41 35 -52 44 -12 10 -22 22 -22 27 0 17 71 51 108 51 44 0 52 5 73 45 9 17 33 39 53 50 33 18 38 19 63 5 42 -23 43 -68 2 -108 -17 -17 -28 -35 -24 -41 8 -14 42 -14 50 -1 3 6 26 10 51 10 25 0 43 -4 40 -8 -2 -4 -1 -14 4 -21 6 -11 14 -9 40 9 32 23 33 23 63 5 30 -18 31 -18 45 3 16 24 60 30 80 10 8 -8 12 -8 12 -1 0 6 -13 16 -30 21 -24 9 -33 7 -55 -10 -22 -17 -30 -18 -54 -8 -23 9 -33 9 -49 -1 -18 -11 -23 -10 -40 11 -15 18 -23 22 -33 14 -21 -16 -79 -17 -79 -1 0 7 4 17 9 23 9 9 14 37 12 64 -5 46 -64 68 -118 44z m82 -154 c-3 -5 -10 -10 -16 -10 -5 0 -9 5 -9 10 0 6 7 10 16 10 8 0 12 -4 9 -10z m81 -197 c-10 -10 -19 5 -10 18 6 11 8 11 12 0 2 -7 1 -15 -2 -18z" transform="translate(0,78) scale(0.1,-0.1)" stroke="none" fill="#905D35"/>

<path d="M285 722 c-16 -10 -37 -32 -45 -48 -20 -38 -28 -44 -72 -44 -37 0 -108 -34 -108 -51 0 -5 10 -17 22 -27 11 -9 35 -29 52 -44 l31 -27 -26 -9 c-46 -18 -56 -86 -14 -102 34 -13 53 -4 96 41 20 22 41 39 45 39 5 0 22 -11 38 -25 41 -35 97 -34 125 2 12 14 24 38 28 52 3 14 13 32 20 40 8 7 11 21 7 30 -3 9 -7 22 -7 29 0 15 -83 17 -92 2 -8 -13 -42 -13 -50 1 -4 6 7 24 24 41 38 37 41 80 9 102 -29 21 -46 20 -83 -2z m45 -112 c0 -5 -7 -10 -16 -10 -8 0 -12 5 -9 10 3 6 10 10 16 10 5 0 9 -4 9 -10z m-120 -27 c-1 -13 -29 -59 -30 -48 0 21 13 55 21 55 5 0 9 -3 9 -7z m74 -19 c31 -30 13 -74 -30 -74 -37 0 -63 50 -38 75 20 19 48 19 68 -1z m-104 -54 c0 -5 -7 -10 -15 -10 -8 0 -15 5 -15 10 0 6 7 10 15 10 8 0 15 -4 15 -10z" transform="translate(0,78) scale(0.1,-0.1)" stroke="none" fill="#FBD984"/>

<path d="M628 578 c-14 -21 -15 -21 -45 -3 -29 17 -31 17 -57 0 -37 -25 -66 -89 -66 -147 l0 -48 -73 0 c-70 0 -74 -1 -107 -35 -30 -31 -34 -42 -35 -88 l0 -52 50 0 c43 1 60 7 111 43 33 23 63 42 67 42 13 0 7 -32 -11 -58 -30 -44 -54 -155 -39 -179 13 -21 71 -15 108 10 47 31 58 72 52 187 -5 80 -9 98 -26 111 -24 19 -15 39 17 39 29 0 42 -15 50 -61 5 -26 2 -40 -9 -49 -20 -17 -19 -33 5 -81 21 -40 64 -74 108 -85 31 -9 82 39 82 76 0 34 -43 75 -98 92 -23 7 -41 17 -39 23 2 5 30 15 62 22 79 15 105 29 105 53 0 23 -46 50 -87 50 -15 0 -43 -9 -61 -20 -59 -36 -82 -22 -36 21 30 28 64 90 64 117 0 44 -66 59 -92 20z m-108 -254 c0 -8 -4 -14 -10 -14 -5 0 -10 9 -10 21 0 11 5 17 10 14 6 -3 10 -13 10 -21z" transform="translate(0,78) scale(0.1,-0.1)" stroke="none" fill="#C0D6BD"/>

</g>

</g>
</svg>