<?xml version="1.0" standalone="no"?>
<!DOCTYPE svg PUBLIC "-//W3C//DTD SVG 20010904//EN"
 "http://www.w3.org/TR/2001/REC-SVG-20010904/DTD/svg10.dtd">
<svg version="1.0" xmlns="http://www.w3.org/2000/svg" width="448pt" height="464pt" viewBox="0 0 448 464" preserveAspectRatio = "xMidYMid meet" >
<metadata>
Created by ZoeQu, written in 2022
</metadata>
<rect width="448" height="464" fill="#202031"/>
<g id="row0" transform="translate(14,0.0)">
<g id="0" transform="translate(0.0,0)scale(1,1)">

<path d="M490 956 c-16 -21 -8 -137 13 -187 9 -19 16 -28 16 -21 1 7 -3 21 -8 30 -13 27 -22 155 -11 172 17 26 180 -40 180 -73 0 -11 -140 -147 -152 -147 -4 0 -8 -4 -8 -10 0 -18 12 -11 55 33 23 23 61 59 85 79 42 36 43 38 27 61 -8 13 -30 29 -49 36 -18 7 -40 16 -49 21 -37 19 -85 22 -99 6z" transform="translate(0,116) scale(0.1,-0.1)" stroke="none" fill="#D29A5B"/>

<path d="M174 685 c-7 -18 23 -161 40 -187 6 -10 14 -18 19 -18 4 0 0 11 -8 24 -9 13 -20 48 -26 77 -5 30 -13 66 -16 81 l-5 27 53 -6 c30 -3 59 -9 64 -13 6 -4 21 -10 35 -13 14 -4 40 -21 59 -39 l34 -32 -53 -23 c-57 -25 -131 -83 -106 -83 9 0 20 9 26 20 15 28 82 60 125 60 19 0 35 2 35 5 0 14 -34 55 -44 55 -7 0 -23 11 -36 25 -13 14 -31 25 -40 25 -9 0 -20 4 -26 9 -5 5 -35 11 -67 15 -46 5 -59 3 -63 -9z" transform="translate(0,116) scale(0.1,-0.1)" stroke="none" fill="#D29A5B"/>

<path d="M409 431 c-32 -32 -59 -63 -59 -70 0 -6 7 -23 16 -36 9 -13 15 -39 14 -57 -3 -40 9 -96 22 -104 15 -9 38 17 38 42 0 14 12 43 27 67 24 36 28 55 31 130 5 109 -5 112 -89 28z m79 -36 c-4 -54 -12 -85 -31 -120 -15 -26 -27 -56 -27 -66 0 -18 -17 -35 -26 -26 -3 3 -7 29 -8 59 -2 30 -11 68 -20 86 -9 17 -16 33 -16 35 0 12 115 115 123 110 5 -3 7 -38 5 -78z" transform="translate(0,116) scale(0.1,-0.1)" stroke="none" fill="#D29A5B"/>

<path d="M766 741 c-3 -5 -37 -21 -76 -37 -38 -16 -70 -35 -70 -42 0 -22 100 -62 155 -62 63 1 189 42 193 64 4 20 -25 33 -41 17 -20 -20 -47 -12 -91 29 -43 40 -60 48 -70 31z m65 -41 c40 -41 82 -53 107 -28 6 6 15 9 19 5 11 -12 -8 -23 -76 -46 -94 -31 -166 -26 -229 15 l-25 17 38 18 c21 11 44 19 51 19 6 0 22 9 35 20 13 10 28 19 33 20 4 0 26 -18 47 -40z" transform="translate(0,116) scale(0.1,-0.1)" stroke="none" fill="#D29A5B"/>

<path d="M446 1061 c-31 -31 -41 -51 -47 -93 -11 -66 5 -148 39 -201 29 -44 22 -62 -9 -24 -24 32 -45 35 -54 7 -6 -19 -7 -19 -45 1 -57 30 -170 46 -209 30 -65 -28 -85 -111 -53 -226 38 -135 51 -157 120 -190 19 -9 32 -23 32 -34 0 -10 7 -24 14 -31 8 -6 23 -32 32 -56 11 -29 27 -50 46 -60 23 -12 28 -21 28 -52 1 -50 19 -72 62 -72 39 0 109 45 129 82 6 13 20 32 30 43 9 11 29 53 42 93 25 76 37 97 37 69 0 -9 5 -17 11 -17 7 0 10 22 7 61 l-3 62 75 -6 c66 -6 73 -5 56 8 -10 7 -15 18 -11 24 10 17 -11 13 -26 -5 -10 -12 -24 -15 -59 -11 -45 5 -46 5 -58 -31 -7 -20 -18 -60 -23 -89 -12 -69 -40 -131 -84 -189 -44 -57 -84 -84 -125 -84 -35 0 -50 23 -50 74 0 29 -5 38 -29 50 -19 10 -40 39 -66 91 -30 61 -44 79 -76 95 -48 25 -62 46 -90 140 -42 138 -26 229 44 254 37 14 159 -10 202 -40 43 -29 45 -29 45 -5 0 34 16 31 55 -9 22 -22 45 -40 52 -40 14 0 18 16 5 22 -13 5 -68 118 -81 166 -18 63 1 144 43 190 31 33 35 34 79 28 26 -4 89 -28 140 -54 87 -45 93 -50 119 -102 14 -30 37 -62 51 -70 26 -16 97 -96 97 -110 0 -10 27 -21 58 -25 41 -6 68 -30 66 -61 -3 -50 -4 -53 -22 -58 -10 -4 -36 -23 -58 -44 -44 -42 -70 -56 -134 -71 l-45 -10 45 5 c55 6 120 33 120 50 0 7 8 15 18 18 10 4 35 21 55 40 29 27 37 41 37 69 0 30 -6 38 -36 56 -19 12 -46 21 -58 21 -17 0 -36 16 -65 55 -23 30 -53 62 -67 72 -14 9 -38 42 -54 74 -28 54 -34 59 -112 97 -84 41 -146 62 -183 62 -12 0 -38 -18 -59 -39z" transform="translate(0,116) scale(0.1,-0.1)" stroke="none" fill="#D29A5B"/>

<path d="M453 1057 c-41 -47 -59 -128 -42 -189 13 -48 68 -161 81 -166 13 -6 9 -22 -5 -22 -7 0 -30 18 -52 40 -39 40 -55 43 -55 9 0 -24 -2 -24 -45 5 -43 30 -165 54 -202 40 -70 -25 -86 -116 -44 -254 28 -94 42 -115 90 -140 32 -16 46 -34 76 -95 26 -52 47 -81 66 -91 24 -12 29 -21 29 -50 0 -51 15 -74 50 -74 82 0 184 133 209 273 5 29 16 69 23 89 12 36 13 37 55 31 33 -4 48 -2 63 12 10 9 23 14 28 11 12 -7 106 11 142 28 14 6 43 28 64 48 22 21 48 40 58 44 18 5 19 8 22 58 2 31 -25 55 -66 61 -31 4 -58 15 -58 25 0 14 -71 94 -97 110 -14 8 -37 40 -51 70 -26 53 -31 57 -122 103 -52 26 -115 50 -141 53 -42 6 -47 4 -76 -29z m136 -107 c9 -5 31 -14 49 -21 19 -7 41 -23 49 -36 16 -23 15 -25 -27 -61 -24 -20 -63 -57 -87 -81 -24 -24 -45 -42 -47 -40 -15 19 -39 106 -43 161 -7 83 4 103 55 93 19 -3 42 -10 51 -15z m247 -240 c44 -41 71 -49 91 -29 16 16 45 3 41 -17 -4 -22 -130 -63 -193 -64 -55 0 -155 40 -155 62 0 7 32 26 70 42 39 16 73 32 76 37 10 17 27 9 70 -31z m-532 -31 c6 -5 17 -9 26 -9 9 0 27 -11 40 -25 13 -14 29 -25 36 -25 10 0 44 -41 44 -55 0 -3 -16 -5 -35 -5 -43 0 -110 -32 -125 -60 -14 -26 -61 -27 -76 -2 -17 26 -47 169 -40 187 4 12 17 14 63 9 32 -4 62 -10 67 -15z m206 -109 c0 -5 -7 -10 -15 -10 -8 0 -15 5 -15 10 0 6 7 10 15 10 8 0 15 -4 15 -10z m-12 -167 c-3 -75 -7 -94 -31 -130 -15 -24 -27 -53 -27 -67 0 -25 -23 -51 -38 -42 -13 8 -25 64 -22 104 1 18 -5 44 -14 57 -9 13 -16 30 -16 36 0 18 116 129 135 129 15 0 17 -11 13 -87z" transform="translate(0,116) scale(0.1,-0.1)" stroke="none" fill="#903F12"/>

</g>

<g id="1" transform="translate(112.0,0)scale(1,1)">

<path d="M490 956 c-16 -21 -8 -137 13 -187 9 -19 16 -28 16 -21 1 7 -3 21 -8 30 -13 27 -22 155 -11 172 17 26 180 -40 180 -73 0 -11 -140 -147 -152 -147 -4 0 -8 -4 -8 -10 0 -18 12 -11 55 33 23 23 61 59 85 79 42 36 43 38 27 61 -8 13 -30 29 -49 36 -18 7 -40 16 -49 21 -37 19 -85 22 -99 6z" transform="translate(0,116) scale(0.1,-0.1)" stroke="none" fill="#D29A5B"/>

<path d="M174 685 c-7 -18 23 -161 40 -187 6 -10 14 -18 19 -18 4 0 0 11 -8 24 -9 13 -20 48 -26 77 -5 30 -13 66 -16 81 l-5 27 53 -6 c30 -3 59 -9 64 -13 6 -4 21 -10 35 -13 14 -4 40 -21 59 -39 l34 -32 -53 -23 c-57 -25 -131 -83 -106 -83 9 0 20 9 26 20 15 28 82 60 125 60 19 0 35 2 35 5 0 14 -34 55 -44 55 -7 0 -23 11 -36 25 -13 14 -31 25 -40 25 -9 0 -20 4 -26 9 -5 5 -35 11 -67 15 -46 5 -59 3 -63 -9z" transform="translate(0,116) scale(0.1,-0.1)" stroke="none" fill="#D29A5B"/>

<path d="M409 431 c-32 -32 -59 -63 -59 -70 0 -6 7 -23 16 -36 9 -13 15 -39 14 -57 -3 -40 9 -96 22 -104 15 -9 38 17 38 42 0 14 12 43 27 67 24 36 28 55 31 130 5 109 -5 112 -89 28z m79 -36 c-4 -54 -12 -85 -31 -120 -15 -26 -27 -56 -27 -66 0 -18 -17 -35 -26 -26 -3 3 -7 29 -8 59 -2 30 -11 68 -20 86 -9 17 -16 33 -16 35 0 12 115 115 123 110 5 -3 7 -38 5 -78z" transform="translate(0,116) scale(0.1,-0.1)" stroke="none" fill="#D29A5B"/>

<path d="M766 741 c-3 -5 -37 -21 -76 -37 -38 -16 -70 -35 -70 -42 0 -22 100 -62 155 -62 63 1 189 42 193 64 4 20 -25 33 -41 17 -20 -20 -47 -12 -91 29 -43 40 -60 48 -70 31z m65 -41 c40 -41 82 -53 107 -28 6 6 15 9 19 5 11 -12 -8 -23 -76 -46 -94 -31 -166 -26 -229 15 l-25 17 38 18 c21 11 44 19 51 19 6 0 22 9 35 20 13 10 28 19 33 20 4 0 26 -18 47 -40z" transform="translate(0,116) scale(0.1,-0.1)" stroke="none" fill="#D29A5B"/>

<path d="M446 1061 c-31 -31 -41 -51 -47 -93 -11 -66 5 -148 39 -201 29 -44 22 -62 -9 -24 -24 32 -45 35 -54 7 -6 -19 -7 -19 -45 1 -57 30 -170 46 -209 30 -65 -28 -85 -111 -53 -226 38 -135 51 -157 120 -190 19 -9 32 -23 32 -34 0 -10 7 -24 14 -31 8 -6 23 -32 32 -56 11 -29 27 -50 46 -60 23 -12 28 -21 28 -52 1 -50 19 -72 62 -72 39 0 109 45 129 82 6 13 20 32 30 43 9 11 29 53 42 93 25 76 37 97 37 69 0 -9 5 -17 11 -17 7 0 10 22 7 61 l-3 62 75 -6 c66 -6 73 -5 56 8 -10 7 -15 18 -11 24 10 17 -11 13 -26 -5 -10 -12 -24 -15 -59 -11 -45 5 -46 5 -58 -31 -7 -20 -18 -60 -23 -89 -12 -69 -40 -131 -84 -189 -44 -57 -84 -84 -125 -84 -35 0 -50 23 -50 74 0 29 -5 38 -29 50 -19 10 -40 39 -66 91 -30 61 -44 79 -76 95 -48 25 -62 46 -90 140 -42 138 -26 229 44 254 37 14 159 -10 202 -40 43 -29 45 -29 45 -5 0 34 16 31 55 -9 22 -22 45 -40 52 -40 14 0 18 16 5 22 -13 5 -68 118 -81 166 -18 63 1 144 43 190 31 33 35 34 79 28 26 -4 89 -28 140 -54 87 -45 93 -50 119 -102 14 -30 37 -62 51 -70 26 -16 97 -96 97 -110 0 -10 27 -21 58 -25 41 -6 68 -30 66 -61 -3 -50 -4 -53 -22 -58 -10 -4 -36 -23 -58 -44 -44 -42 -70 -56 -134 -71 l-45 -10 45 5 c55 6 120 33 120 50 0 7 8 15 18 18 10 4 35 21 55 40 29 27 37 41 37 69 0 30 -6 38 -36 56 -19 12 -46 21 -58 21 -17 0 -36 16 -65 55 -23 30 -53 62 -67 72 -14 9 -38 42 -54 74 -28 54 -34 59 -112 97 -84 41 -146 62 -183 62 -12 0 -38 -18 -59 -39z" transform="translate(0,116) scale(0.1,-0.1)" stroke="none" fill="#D29A5B"/>

<path d="M453 1057 c-41 -47 -59 -128 -42 -189 13 -48 68 -161 81 -166 13 -6 9 -22 -5 -22 -7 0 -30 18 -52 40 -39 40 -55 43 -55 9 0 -24 -2 -24 -45 5 -43 30 -165 54 -202 40 -70 -25 -86 -116 -44 -254 28 -94 42 -115 90 -140 32 -16 46 -34 76 -95 26 -52 47 -81 66 -91 24 -12 29 -21 29 -50 0 -51 15 -74 50 -74 82 0 184 133 209 273 5 29 16 69 23 89 12 36 13 37 55 31 33 -4 48 -2 63 12 10 9 23 14 28 11 12 -7 106 11 142 28 14 6 43 28 64 48 22 21 48 40 58 44 18 5 19 8 22 58 2 31 -25 55 -66 61 -31 4 -58 15 -58 25 0 14 -71 94 -97 110 -14 8 -37 40 -51 70 -26 53 -31 57 -122 103 -52 26 -115 50 -141 53 -42 6 -47 4 -76 -29z m136 -107 c9 -5 31 -14 49 -21 19 -7 41 -23 49 -36 16 -23 15 -25 -27 -61 -24 -20 -63 -57 -87 -81 -24 -24 -45 -42 -47 -40 -15 19 -39 106 -43 161 -7 83 4 103 55 93 19 -3 42 -10 51 -15z m247 -240 c44 -41 71 -49 91 -29 16 16 45 3 41 -17 -4 -22 -130 -63 -193 -64 -55 0 -155 40 -155 62 0 7 32 26 70 42 39 16 73 32 76 37 10 17 27 9 70 -31z m-532 -31 c6 -5 17 -9 26 -9 9 0 27 -11 40 -25 13 -14 29 -25 36 -25 10 0 44 -41 44 -55 0 -3 -16 -5 -35 -5 -43 0 -110 -32 -125 -60 -14 -26 -61 -27 -76 -2 -17 26 -47 169 -40 187 4 12 17 14 63 9 32 -4 62 -10 67 -15z m206 -109 c0 -5 -7 -10 -15 -10 -8 0 -15 5 -15 10 0 6 7 10 15 10 8 0 15 -4 15 -10z m-12 -167 c-3 -75 -7 -94 -31 -130 -15 -24 -27 -53 -27 -67 0 -25 -23 -51 -38 -42 -13 8 -25 64 -22 104 1 18 -5 44 -14 57 -9 13 -16 30 -16 36 0 18 116 129 135 129 15 0 17 -11 13 -87z" transform="translate(0,116) scale(0.1,-0.1)" stroke="none" fill="#903F12"/>

</g>

<g id="2" transform="translate(224.0,0)scale(1,1)">

<path d="M490 956 c-16 -21 -8 -137 13 -187 9 -19 16 -28 16 -21 1 7 -3 21 -8 30 -13 27 -22 155 -11 172 17 26 180 -40 180 -73 0 -11 -140 -147 -152 -147 -4 0 -8 -4 -8 -10 0 -18 12 -11 55 33 23 23 61 59 85 79 42 36 43 38 27 61 -8 13 -30 29 -49 36 -18 7 -40 16 -49 21 -37 19 -85 22 -99 6z" transform="translate(0,116) scale(0.1,-0.1)" stroke="none" fill="#D29A5B"/>

<path d="M174 685 c-7 -18 23 -161 40 -187 6 -10 14 -18 19 -18 4 0 0 11 -8 24 -9 13 -20 48 -26 77 -5 30 -13 66 -16 81 l-5 27 53 -6 c30 -3 59 -9 64 -13 6 -4 21 -10 35 -13 14 -4 40 -21 59 -39 l34 -32 -53 -23 c-57 -25 -131 -83 -106 -83 9 0 20 9 26 20 15 28 82 60 125 60 19 0 35 2 35 5 0 14 -34 55 -44 55 -7 0 -23 11 -36 25 -13 14 -31 25 -40 25 -9 0 -20 4 -26 9 -5 5 -35 11 -67 15 -46 5 -59 3 -63 -9z" transform="translate(0,116) scale(0.1,-0.1)" stroke="none" fill="#D29A5B"/>

<path d="M409 431 c-32 -32 -59 -63 -59 -70 0 -6 7 -23 16 -36 9 -13 15 -39 14 -57 -3 -40 9 -96 22 -104 15 -9 38 17 38 42 0 14 12 43 27 67 24 36 28 55 31 130 5 109 -5 112 -89 28z m79 -36 c-4 -54 -12 -85 -31 -120 -15 -26 -27 -56 -27 -66 0 -18 -17 -35 -26 -26 -3 3 -7 29 -8 59 -2 30 -11 68 -20 86 -9 17 -16 33 -16 35 0 12 115 115 123 110 5 -3 7 -38 5 -78z" transform="translate(0,116) scale(0.1,-0.1)" stroke="none" fill="#D29A5B"/>

<path d="M766 741 c-3 -5 -37 -21 -76 -37 -38 -16 -70 -35 -70 -42 0 -22 100 -62 155 -62 63 1 189 42 193 64 4 20 -25 33 -41 17 -20 -20 -47 -12 -91 29 -43 40 -60 48 -70 31z m65 -41 c40 -41 82 -53 107 -28 6 6 15 9 19 5 11 -12 -8 -23 -76 -46 -94 -31 -166 -26 -229 15 l-25 17 38 18 c21 11 44 19 51 19 6 0 22 9 35 20 13 10 28 19 33 20 4 0 26 -18 47 -40z" transform="translate(0,116) scale(0.1,-0.1)" stroke="none" fill="#D29A5B"/>

<path d="M446 1061 c-31 -31 -41 -51 -47 -93 -11 -66 5 -148 39 -201 29 -44 22 -62 -9 -24 -24 32 -45 35 -54 7 -6 -19 -7 -19 -45 1 -57 30 -170 46 -209 30 -65 -28 -85 -111 -53 -226 38 -135 51 -157 120 -190 19 -9 32 -23 32 -34 0 -10 7 -24 14 -31 8 -6 23 -32 32 -56 11 -29 27 -50 46 -60 23 -12 28 -21 28 -52 1 -50 19 -72 62 -72 39 0 109 45 129 82 6 13 20 32 30 43 9 11 29 53 42 93 25 76 37 97 37 69 0 -9 5 -17 11 -17 7 0 10 22 7 61 l-3 62 75 -6 c66 -6 73 -5 56 8 -10 7 -15 18 -11 24 10 17 -11 13 -26 -5 -10 -12 -24 -15 -59 -11 -45 5 -46 5 -58 -31 -7 -20 -18 -60 -23 -89 -12 -69 -40 -131 -84 -189 -44 -57 -84 -84 -125 -84 -35 0 -50 23 -50 74 0 29 -5 38 -29 50 -19 10 -40 39 -66 91 -30 61 -44 79 -76 95 -48 25 -62 46 -90 140 -42 138 -26 229 44 254 37 14 159 -10 202 -40 43 -29 45 -29 45 -5 0 34 16 31 55 -9 22 -22 45 -40 52 -40 14 0 18 16 5 22 -13 5 -68 118 -81 166 -18 63 1 144 43 190 31 33 35 34 79 28 26 -4 89 -28 140 -54 87 -45 93 -50 119 -102 14 -30 37 -62 51 -70 26 -16 97 -96 97 -110 0 -10 27 -21 58 -25 41 -6 68 -30 66 -61 -3 -50 -4 -53 -22 -58 -10 -4 -36 -23 -58 -44 -44 -42 -70 -56 -134 -71 l-45 -10 45 5 c55 6 120 33 120 50 0 7 8 15 18 18 10 4 35 21 55 40 29 27 37 41 37 69 0 30 -6 38 -36 56 -19 12 -46 21 -58 21 -17 0 -36 16 -65 55 -23 30 -53 62 -67 72 -14 9 -38 42 -54 74 -28 54 -34 59 -112 97 -84 41 -146 62 -183 62 -12 0 -38 -18 -59 -39z" transform="translate(0,116) scale(0.1,-0.1)" stroke="none" fill="#D29A5B"/>

<path d="M453 1057 c-41 -47 -59 -128 -42 -189 13 -48 68 -161 81 -166 13 -6 9 -22 -5 -22 -7 0 -30 18 -52 40 -39 40 -55 43 -55 9 0 -24 -2 -24 -45 5 -43 30 -165 54 -202 40 -70 -25 -86 -116 -44 -254 28 -94 42 -115 90 -140 32 -16 46 -34 76 -95 26 -52 47 -81 66 -91 24 -12 29 -21 29 -50 0 -51 15 -74 50 -74 82 0 184 133 209 273 5 29 16 69 23 89 12 36 13 37 55 31 33 -4 48 -2 63 12 10 9 23 14 28 11 12 -7 106 11 142 28 14 6 43 28 64 48 22 21 48 40 58 44 18 5 19 8 22 58 2 31 -25 55 -66 61 -31 4 -58 15 -58 25 0 14 -71 94 -97 110 -14 8 -37 40 -51 70 -26 53 -31 57 -122 103 -52 26 -115 50 -141 53 -42 6 -47 4 -76 -29z m136 -107 c9 -5 31 -14 49 -21 19 -7 41 -23 49 -36 16 -23 15 -25 -27 -61 -24 -20 -63 -57 -87 -81 -24 -24 -45 -42 -47 -40 -15 19 -39 106 -43 161 -7 83 4 103 55 93 19 -3 42 -10 51 -15z m247 -240 c44 -41 71 -49 91 -29 16 16 45 3 41 -17 -4 -22 -130 -63 -193 -64 -55 0 -155 40 -155 62 0 7 32 26 70 42 39 16 73 32 76 37 10 17 27 9 70 -31z m-532 -31 c6 -5 17 -9 26 -9 9 0 27 -11 40 -25 13 -14 29 -25 36 -25 10 0 44 -41 44 -55 0 -3 -16 -5 -35 -5 -43 0 -110 -32 -125 -60 -14 -26 -61 -27 -76 -2 -17 26 -47 169 -40 187 4 12 17 14 63 9 32 -4 62 -10 67 -15z m206 -109 c0 -5 -7 -10 -15 -10 -8 0 -15 5 -15 10 0 6 7 10 15 10 8 0 15 -4 15 -10z m-12 -167 c-3 -75 -7 -94 -31 -130 -15 -24 -27 -53 -27 -67 0 -25 -23 -51 -38 -42 -13 8 -25 64 -22 104 1 18 -5 44 -14 57 -9 13 -16 30 -16 36 0 18 116 129 135 129 15 0 17 -11 13 -87z" transform="translate(0,116) scale(0.1,-0.1)" stroke="none" fill="#903F12"/>

</g>

<g id="3" transform="translate(336.0,0)scale(1,1)">

<path d="M490 956 c-16 -21 -8 -137 13 -187 9 -19 16 -28 16 -21 1 7 -3 21 -8 30 -13 27 -22 155 -11 172 17 26 180 -40 180 -73 0 -11 -140 -147 -152 -147 -4 0 -8 -4 -8 -10 0 -18 12 -11 55 33 23 23 61 59 85 79 42 36 43 38 27 61 -8 13 -30 29 -49 36 -18 7 -40 16 -49 21 -37 19 -85 22 -99 6z" transform="translate(0,116) scale(0.1,-0.1)" stroke="none" fill="#D29A5B"/>

<path d="M174 685 c-7 -18 23 -161 40 -187 6 -10 14 -18 19 -18 4 0 0 11 -8 24 -9 13 -20 48 -26 77 -5 30 -13 66 -16 81 l-5 27 53 -6 c30 -3 59 -9 64 -13 6 -4 21 -10 35 -13 14 -4 40 -21 59 -39 l34 -32 -53 -23 c-57 -25 -131 -83 -106 -83 9 0 20 9 26 20 15 28 82 60 125 60 19 0 35 2 35 5 0 14 -34 55 -44 55 -7 0 -23 11 -36 25 -13 14 -31 25 -40 25 -9 0 -20 4 -26 9 -5 5 -35 11 -67 15 -46 5 -59 3 -63 -9z" transform="translate(0,116) scale(0.1,-0.1)" stroke="none" fill="#D29A5B"/>

<path d="M409 431 c-32 -32 -59 -63 -59 -70 0 -6 7 -23 16 -36 9 -13 15 -39 14 -57 -3 -40 9 -96 22 -104 15 -9 38 17 38 42 0 14 12 43 27 67 24 36 28 55 31 130 5 109 -5 112 -89 28z m79 -36 c-4 -54 -12 -85 -31 -120 -15 -26 -27 -56 -27 -66 0 -18 -17 -35 -26 -26 -3 3 -7 29 -8 59 -2 30 -11 68 -20 86 -9 17 -16 33 -16 35 0 12 115 115 123 110 5 -3 7 -38 5 -78z" transform="translate(0,116) scale(0.1,-0.1)" stroke="none" fill="#D29A5B"/>

<path d="M766 741 c-3 -5 -37 -21 -76 -37 -38 -16 -70 -35 -70 -42 0 -22 100 -62 155 -62 63 1 189 42 193 64 4 20 -25 33 -41 17 -20 -20 -47 -12 -91 29 -43 40 -60 48 -70 31z m65 -41 c40 -41 82 -53 107 -28 6 6 15 9 19 5 11 -12 -8 -23 -76 -46 -94 -31 -166 -26 -229 15 l-25 17 38 18 c21 11 44 19 51 19 6 0 22 9 35 20 13 10 28 19 33 20 4 0 26 -18 47 -40z" transform="translate(0,116) scale(0.1,-0.1)" stroke="none" fill="#D29A5B"/>

<path d="M446 1061 c-31 -31 -41 -51 -47 -93 -11 -66 5 -148 39 -201 29 -44 22 -62 -9 -24 -24 32 -45 35 -54 7 -6 -19 -7 -19 -45 1 -57 30 -170 46 -209 30 -65 -28 -85 -111 -53 -226 38 -135 51 -157 120 -190 19 -9 32 -23 32 -34 0 -10 7 -24 14 -31 8 -6 23 -32 32 -56 11 -29 27 -50 46 -60 23 -12 28 -21 28 -52 1 -50 19 -72 62 -72 39 0 109 45 129 82 6 13 20 32 30 43 9 11 29 53 42 93 25 76 37 97 37 69 0 -9 5 -17 11 -17 7 0 10 22 7 61 l-3 62 75 -6 c66 -6 73 -5 56 8 -10 7 -15 18 -11 24 10 17 -11 13 -26 -5 -10 -12 -24 -15 -59 -11 -45 5 -46 5 -58 -31 -7 -20 -18 -60 -23 -89 -12 -69 -40 -131 -84 -189 -44 -57 -84 -84 -125 -84 -35 0 -50 23 -50 74 0 29 -5 38 -29 50 -19 10 -40 39 -66 91 -30 61 -44 79 -76 95 -48 25 -62 46 -90 140 -42 138 -26 229 44 254 37 14 159 -10 202 -40 43 -29 45 -29 45 -5 0 34 16 31 55 -9 22 -22 45 -40 52 -40 14 0 18 16 5 22 -13 5 -68 118 -81 166 -18 63 1 144 43 190 31 33 35 34 79 28 26 -4 89 -28 140 -54 87 -45 93 -50 119 -102 14 -30 37 -62 51 -70 26 -16 97 -96 97 -110 0 -10 27 -21 58 -25 41 -6 68 -30 66 -61 -3 -50 -4 -53 -22 -58 -10 -4 -36 -23 -58 -44 -44 -42 -70 -56 -134 -71 l-45 -10 45 5 c55 6 120 33 120 50 0 7 8 15 18 18 10 4 35 21 55 40 29 27 37 41 37 69 0 30 -6 38 -36 56 -19 12 -46 21 -58 21 -17 0 -36 16 -65 55 -23 30 -53 62 -67 72 -14 9 -38 42 -54 74 -28 54 -34 59 -112 97 -84 41 -146 62 -183 62 -12 0 -38 -18 -59 -39z" transform="translate(0,116) scale(0.1,-0.1)" stroke="none" fill="#D29A5B"/>

<path d="M453 1057 c-41 -47 -59 -128 -42 -189 13 -48 68 -161 81 -166 13 -6 9 -22 -5 -22 -7 0 -30 18 -52 40 -39 40 -55 43 -55 9 0 -24 -2 -24 -45 5 -43 30 -165 54 -202 40 -70 -25 -86 -116 -44 -254 28 -94 42 -115 90 -140 32 -16 46 -34 76 -95 26 -52 47 -81 66 -91 24 -12 29 -21 29 -50 0 -51 15 -74 50 -74 82 0 184 133 209 273 5 29 16 69 23 89 12 36 13 37 55 31 33 -4 48 -2 63 12 10 9 23 14 28 11 12 -7 106 11 142 28 14 6 43 28 64 48 22 21 48 40 58 44 18 5 19 8 22 58 2 31 -25 55 -66 61 -31 4 -58 15 -58 25 0 14 -71 94 -97 110 -14 8 -37 40 -51 70 -26 53 -31 57 -122 103 -52 26 -115 50 -141 53 -42 6 -47 4 -76 -29z m136 -107 c9 -5 31 -14 49 -21 19 -7 41 -23 49 -36 16 -23 15 -25 -27 -61 -24 -20 -63 -57 -87 -81 -24 -24 -45 -42 -47 -40 -15 19 -39 106 -43 161 -7 83 4 103 55 93 19 -3 42 -10 51 -15z m247 -240 c44 -41 71 -49 91 -29 16 16 45 3 41 -17 -4 -22 -130 -63 -193 -64 -55 0 -155 40 -155 62 0 7 32 26 70 42 39 16 73 32 76 37 10 17 27 9 70 -31z m-532 -31 c6 -5 17 -9 26 -9 9 0 27 -11 40 -25 13 -14 29 -25 36 -25 10 0 44 -41 44 -55 0 -3 -16 -5 -35 -5 -43 0 -110 -32 -125 -60 -14 -26 -61 -27 -76 -2 -17 26 -47 169 -40 187 4 12 17 14 63 9 32 -4 62 -10 67 -15z m206 -109 c0 -5 -7 -10 -15 -10 -8 0 -15 5 -15 10 0 6 7 10 15 10 8 0 15 -4 15 -10z m-12 -167 c-3 -75 -7 -94 -31 -130 -15 -24 -27 -53 -27 -67 0 -25 -23 -51 -38 -42 -13 8 -25 64 -22 104 1 18 -5 44 -14 57 -9 13 -16 30 -16 36 0 18 116 129 135 129 15 0 17 -11 13 -87z" transform="translate(0,116) scale(0.1,-0.1)" stroke="none" fill="#903F12"/>

</g>

<g id="4" transform="translate(448.0,0)scale(1,1)">

<path d="M490 956 c-16 -21 -8 -137 13 -187 9 -19 16 -28 16 -21 1 7 -3 21 -8 30 -13 27 -22 155 -11 172 17 26 180 -40 180 -73 0 -11 -140 -147 -152 -147 -4 0 -8 -4 -8 -10 0 -18 12 -11 55 33 23 23 61 59 85 79 42 36 43 38 27 61 -8 13 -30 29 -49 36 -18 7 -40 16 -49 21 -37 19 -85 22 -99 6z" transform="translate(0,116) scale(0.1,-0.1)" stroke="none" fill="#D29A5B"/>

<path d="M174 685 c-7 -18 23 -161 40 -187 6 -10 14 -18 19 -18 4 0 0 11 -8 24 -9 13 -20 48 -26 77 -5 30 -13 66 -16 81 l-5 27 53 -6 c30 -3 59 -9 64 -13 6 -4 21 -10 35 -13 14 -4 40 -21 59 -39 l34 -32 -53 -23 c-57 -25 -131 -83 -106 -83 9 0 20 9 26 20 15 28 82 60 125 60 19 0 35 2 35 5 0 14 -34 55 -44 55 -7 0 -23 11 -36 25 -13 14 -31 25 -40 25 -9 0 -20 4 -26 9 -5 5 -35 11 -67 15 -46 5 -59 3 -63 -9z" transform="translate(0,116) scale(0.1,-0.1)" stroke="none" fill="#D29A5B"/>

<path d="M409 431 c-32 -32 -59 -63 -59 -70 0 -6 7 -23 16 -36 9 -13 15 -39 14 -57 -3 -40 9 -96 22 -104 15 -9 38 17 38 42 0 14 12 43 27 67 24 36 28 55 31 130 5 109 -5 112 -89 28z m79 -36 c-4 -54 -12 -85 -31 -120 -15 -26 -27 -56 -27 -66 0 -18 -17 -35 -26 -26 -3 3 -7 29 -8 59 -2 30 -11 68 -20 86 -9 17 -16 33 -16 35 0 12 115 115 123 110 5 -3 7 -38 5 -78z" transform="translate(0,116) scale(0.1,-0.1)" stroke="none" fill="#D29A5B"/>

<path d="M766 741 c-3 -5 -37 -21 -76 -37 -38 -16 -70 -35 -70 -42 0 -22 100 -62 155 -62 63 1 189 42 193 64 4 20 -25 33 -41 17 -20 -20 -47 -12 -91 29 -43 40 -60 48 -70 31z m65 -41 c40 -41 82 -53 107 -28 6 6 15 9 19 5 11 -12 -8 -23 -76 -46 -94 -31 -166 -26 -229 15 l-25 17 38 18 c21 11 44 19 51 19 6 0 22 9 35 20 13 10 28 19 33 20 4 0 26 -18 47 -40z" transform="translate(0,116) scale(0.1,-0.1)" stroke="none" fill="#D29A5B"/>

<path d="M446 1061 c-31 -31 -41 -51 -47 -93 -11 -66 5 -148 39 -201 29 -44 22 -62 -9 -24 -24 32 -45 35 -54 7 -6 -19 -7 -19 -45 1 -57 30 -170 46 -209 30 -65 -28 -85 -111 -53 -226 38 -135 51 -157 120 -190 19 -9 32 -23 32 -34 0 -10 7 -24 14 -31 8 -6 23 -32 32 -56 11 -29 27 -50 46 -60 23 -12 28 -21 28 -52 1 -50 19 -72 62 -72 39 0 109 45 129 82 6 13 20 32 30 43 9 11 29 53 42 93 25 76 37 97 37 69 0 -9 5 -17 11 -17 7 0 10 22 7 61 l-3 62 75 -6 c66 -6 73 -5 56 8 -10 7 -15 18 -11 24 10 17 -11 13 -26 -5 -10 -12 -24 -15 -59 -11 -45 5 -46 5 -58 -31 -7 -20 -18 -60 -23 -89 -12 -69 -40 -131 -84 -189 -44 -57 -84 -84 -125 -84 -35 0 -50 23 -50 74 0 29 -5 38 -29 50 -19 10 -40 39 -66 91 -30 61 -44 79 -76 95 -48 25 -62 46 -90 140 -42 138 -26 229 44 254 37 14 159 -10 202 -40 43 -29 45 -29 45 -5 0 34 16 31 55 -9 22 -22 45 -40 52 -40 14 0 18 16 5 22 -13 5 -68 118 -81 166 -18 63 1 144 43 190 31 33 35 34 79 28 26 -4 89 -28 140 -54 87 -45 93 -50 119 -102 14 -30 37 -62 51 -70 26 -16 97 -96 97 -110 0 -10 27 -21 58 -25 41 -6 68 -30 66 -61 -3 -50 -4 -53 -22 -58 -10 -4 -36 -23 -58 -44 -44 -42 -70 -56 -134 -71 l-45 -10 45 5 c55 6 120 33 120 50 0 7 8 15 18 18 10 4 35 21 55 40 29 27 37 41 37 69 0 30 -6 38 -36 56 -19 12 -46 21 -58 21 -17 0 -36 16 -65 55 -23 30 -53 62 -67 72 -14 9 -38 42 -54 74 -28 54 -34 59 -112 97 -84 41 -146 62 -183 62 -12 0 -38 -18 -59 -39z" transform="translate(0,116) scale(0.1,-0.1)" stroke="none" fill="#D29A5B"/>

<path d="M453 1057 c-41 -47 -59 -128 -42 -189 13 -48 68 -161 81 -166 13 -6 9 -22 -5 -22 -7 0 -30 18 -52 40 -39 40 -55 43 -55 9 0 -24 -2 -24 -45 5 -43 30 -165 54 -202 40 -70 -25 -86 -116 -44 -254 28 -94 42 -115 90 -140 32 -16 46 -34 76 -95 26 -52 47 -81 66 -91 24 -12 29 -21 29 -50 0 -51 15 -74 50 -74 82 0 184 133 209 273 5 29 16 69 23 89 12 36 13 37 55 31 33 -4 48 -2 63 12 10 9 23 14 28 11 12 -7 106 11 142 28 14 6 43 28 64 48 22 21 48 40 58 44 18 5 19 8 22 58 2 31 -25 55 -66 61 -31 4 -58 15 -58 25 0 14 -71 94 -97 110 -14 8 -37 40 -51 70 -26 53 -31 57 -122 103 -52 26 -115 50 -141 53 -42 6 -47 4 -76 -29z m136 -107 c9 -5 31 -14 49 -21 19 -7 41 -23 49 -36 16 -23 15 -25 -27 -61 -24 -20 -63 -57 -87 -81 -24 -24 -45 -42 -47 -40 -15 19 -39 106 -43 161 -7 83 4 103 55 93 19 -3 42 -10 51 -15z m247 -240 c44 -41 71 -49 91 -29 16 16 45 3 41 -17 -4 -22 -130 -63 -193 -64 -55 0 -155 40 -155 62 0 7 32 26 70 42 39 16 73 32 76 37 10 17 27 9 70 -31z m-532 -31 c6 -5 17 -9 26 -9 9 0 27 -11 40 -25 13 -14 29 -25 36 -25 10 0 44 -41 44 -55 0 -3 -16 -5 -35 -5 -43 0 -110 -32 -125 -60 -14 -26 -61 -27 -76 -2 -17 26 -47 169 -40 187 4 12 17 14 63 9 32 -4 62 -10 67 -15z m206 -109 c0 -5 -7 -10 -15 -10 -8 0 -15 5 -15 10 0 6 7 10 15 10 8 0 15 -4 15 -10z m-12 -167 c-3 -75 -7 -94 -31 -130 -15 -24 -27 -53 -27 -67 0 -25 -23 -51 -38 -42 -13 8 -25 64 -22 104 1 18 -5 44 -14 57 -9 13 -16 30 -16 36 0 18 116 129 135 129 15 0 17 -11 13 -87z" transform="translate(0,116) scale(0.1,-0.1)" stroke="none" fill="#903F12"/>

</g>

</g>
<g id="row1" transform="translate(-42,116.0)">
<g id="0" transform="translate(0.0,0)scale(1,1)">

<path d="M490 956 c-16 -21 -8 -137 13 -187 9 -19 16 -28 16 -21 1 7 -3 21 -8 30 -13 27 -22 155 -11 172 17 26 180 -40 180 -73 0 -11 -140 -147 -152 -147 -4 0 -8 -4 -8 -10 0 -18 12 -11 55 33 23 23 61 59 85 79 42 36 43 38 27 61 -8 13 -30 29 -49 36 -18 7 -40 16 -49 21 -37 19 -85 22 -99 6z" transform="translate(0,116) scale(0.1,-0.1)" stroke="none" fill="#D29A5B"/>

<path d="M174 685 c-7 -18 23 -161 40 -187 6 -10 14 -18 19 -18 4 0 0 11 -8 24 -9 13 -20 48 -26 77 -5 30 -13 66 -16 81 l-5 27 53 -6 c30 -3 59 -9 64 -13 6 -4 21 -10 35 -13 14 -4 40 -21 59 -39 l34 -32 -53 -23 c-57 -25 -131 -83 -106 -83 9 0 20 9 26 20 15 28 82 60 125 60 19 0 35 2 35 5 0 14 -34 55 -44 55 -7 0 -23 11 -36 25 -13 14 -31 25 -40 25 -9 0 -20 4 -26 9 -5 5 -35 11 -67 15 -46 5 -59 3 -63 -9z" transform="translate(0,116) scale(0.1,-0.1)" stroke="none" fill="#D29A5B"/>

<path d="M409 431 c-32 -32 -59 -63 -59 -70 0 -6 7 -23 16 -36 9 -13 15 -39 14 -57 -3 -40 9 -96 22 -104 15 -9 38 17 38 42 0 14 12 43 27 67 24 36 28 55 31 130 5 109 -5 112 -89 28z m79 -36 c-4 -54 -12 -85 -31 -120 -15 -26 -27 -56 -27 -66 0 -18 -17 -35 -26 -26 -3 3 -7 29 -8 59 -2 30 -11 68 -20 86 -9 17 -16 33 -16 35 0 12 115 115 123 110 5 -3 7 -38 5 -78z" transform="translate(0,116) scale(0.1,-0.1)" stroke="none" fill="#D29A5B"/>

<path d="M766 741 c-3 -5 -37 -21 -76 -37 -38 -16 -70 -35 -70 -42 0 -22 100 -62 155 -62 63 1 189 42 193 64 4 20 -25 33 -41 17 -20 -20 -47 -12 -91 29 -43 40 -60 48 -70 31z m65 -41 c40 -41 82 -53 107 -28 6 6 15 9 19 5 11 -12 -8 -23 -76 -46 -94 -31 -166 -26 -229 15 l-25 17 38 18 c21 11 44 19 51 19 6 0 22 9 35 20 13 10 28 19 33 20 4 0 26 -18 47 -40z" transform="translate(0,116) scale(0.1,-0.1)" stroke="none" fill="#D29A5B"/>

<path d="M446 1061 c-31 -31 -41 -51 -47 -93 -11 -66 5 -148 39 -201 29 -44 22 -62 -9 -24 -24 32 -45 35 -54 7 -6 -19 -7 -19 -45 1 -57 30 -170 46 -209 30 -65 -28 -85 -111 -53 -226 38 -135 51 -157 120 -190 19 -9 32 -23 32 -34 0 -10 7 -24 14 -31 8 -6 23 -32 32 -56 11 -29 27 -50 46 -60 23 -12 28 -21 28 -52 1 -50 19 -72 62 -72 39 0 109 45 129 82 6 13 20 32 30 43 9 11 29 53 42 93 25 76 37 97 37 69 0 -9 5 -17 11 -17 7 0 10 22 7 61 l-3 62 75 -6 c66 -6 73 -5 56 8 -10 7 -15 18 -11 24 10 17 -11 13 -26 -5 -10 -12 -24 -15 -59 -11 -45 5 -46 5 -58 -31 -7 -20 -18 -60 -23 -89 -12 -69 -40 -131 -84 -189 -44 -57 -84 -84 -125 -84 -35 0 -50 23 -50 74 0 29 -5 38 -29 50 -19 10 -40 39 -66 91 -30 61 -44 79 -76 95 -48 25 -62 46 -90 140 -42 138 -26 229 44 254 37 14 159 -10 202 -40 43 -29 45 -29 45 -5 0 34 16 31 55 -9 22 -22 45 -40 52 -40 14 0 18 16 5 22 -13 5 -68 118 -81 166 -18 63 1 144 43 190 31 33 35 34 79 28 26 -4 89 -28 140 -54 87 -45 93 -50 119 -102 14 -30 37 -62 51 -70 26 -16 97 -96 97 -110 0 -10 27 -21 58 -25 41 -6 68 -30 66 -61 -3 -50 -4 -53 -22 -58 -10 -4 -36 -23 -58 -44 -44 -42 -70 -56 -134 -71 l-45 -10 45 5 c55 6 120 33 120 50 0 7 8 15 18 18 10 4 35 21 55 40 29 27 37 41 37 69 0 30 -6 38 -36 56 -19 12 -46 21 -58 21 -17 0 -36 16 -65 55 -23 30 -53 62 -67 72 -14 9 -38 42 -54 74 -28 54 -34 59 -112 97 -84 41 -146 62 -183 62 -12 0 -38 -18 -59 -39z" transform="translate(0,116) scale(0.1,-0.1)" stroke="none" fill="#D29A5B"/>

<path d="M453 1057 c-41 -47 -59 -128 -42 -189 13 -48 68 -161 81 -166 13 -6 9 -22 -5 -22 -7 0 -30 18 -52 40 -39 40 -55 43 -55 9 0 -24 -2 -24 -45 5 -43 30 -165 54 -202 40 -70 -25 -86 -116 -44 -254 28 -94 42 -115 90 -140 32 -16 46 -34 76 -95 26 -52 47 -81 66 -91 24 -12 29 -21 29 -50 0 -51 15 -74 50 -74 82 0 184 133 209 273 5 29 16 69 23 89 12 36 13 37 55 31 33 -4 48 -2 63 12 10 9 23 14 28 11 12 -7 106 11 142 28 14 6 43 28 64 48 22 21 48 40 58 44 18 5 19 8 22 58 2 31 -25 55 -66 61 -31 4 -58 15 -58 25 0 14 -71 94 -97 110 -14 8 -37 40 -51 70 -26 53 -31 57 -122 103 -52 26 -115 50 -141 53 -42 6 -47 4 -76 -29z m136 -107 c9 -5 31 -14 49 -21 19 -7 41 -23 49 -36 16 -23 15 -25 -27 -61 -24 -20 -63 -57 -87 -81 -24 -24 -45 -42 -47 -40 -15 19 -39 106 -43 161 -7 83 4 103 55 93 19 -3 42 -10 51 -15z m247 -240 c44 -41 71 -49 91 -29 16 16 45 3 41 -17 -4 -22 -130 -63 -193 -64 -55 0 -155 40 -155 62 0 7 32 26 70 42 39 16 73 32 76 37 10 17 27 9 70 -31z m-532 -31 c6 -5 17 -9 26 -9 9 0 27 -11 40 -25 13 -14 29 -25 36 -25 10 0 44 -41 44 -55 0 -3 -16 -5 -35 -5 -43 0 -110 -32 -125 -60 -14 -26 -61 -27 -76 -2 -17 26 -47 169 -40 187 4 12 17 14 63 9 32 -4 62 -10 67 -15z m206 -109 c0 -5 -7 -10 -15 -10 -8 0 -15 5 -15 10 0 6 7 10 15 10 8 0 15 -4 15 -10z m-12 -167 c-3 -75 -7 -94 -31 -130 -15 -24 -27 -53 -27 -67 0 -25 -23 -51 -38 -42 -13 8 -25 64 -22 104 1 18 -5 44 -14 57 -9 13 -16 30 -16 36 0 18 116 129 135 129 15 0 17 -11 13 -87z" transform="translate(0,116) scale(0.1,-0.1)" stroke="none" fill="#903F12"/>

</g>

<g id="1" transform="translate(112.0,0)scale(1,1)">

<path d="M490 956 c-16 -21 -8 -137 13 -187 9 -19 16 -28 16 -21 1 7 -3 21 -8 30 -13 27 -22 155 -11 172 17 26 180 -40 180 -73 0 -11 -140 -147 -152 -147 -4 0 -8 -4 -8 -10 0 -18 12 -11 55 33 23 23 61 59 85 79 42 36 43 38 27 61 -8 13 -30 29 -49 36 -18 7 -40 16 -49 21 -37 19 -85 22 -99 6z" transform="translate(0,116) scale(0.1,-0.1)" stroke="none" fill="#D29A5B"/>

<path d="M174 685 c-7 -18 23 -161 40 -187 6 -10 14 -18 19 -18 4 0 0 11 -8 24 -9 13 -20 48 -26 77 -5 30 -13 66 -16 81 l-5 27 53 -6 c30 -3 59 -9 64 -13 6 -4 21 -10 35 -13 14 -4 40 -21 59 -39 l34 -32 -53 -23 c-57 -25 -131 -83 -106 -83 9 0 20 9 26 20 15 28 82 60 125 60 19 0 35 2 35 5 0 14 -34 55 -44 55 -7 0 -23 11 -36 25 -13 14 -31 25 -40 25 -9 0 -20 4 -26 9 -5 5 -35 11 -67 15 -46 5 -59 3 -63 -9z" transform="translate(0,116) scale(0.1,-0.1)" stroke="none" fill="#D29A5B"/>

<path d="M409 431 c-32 -32 -59 -63 -59 -70 0 -6 7 -23 16 -36 9 -13 15 -39 14 -57 -3 -40 9 -96 22 -104 15 -9 38 17 38 42 0 14 12 43 27 67 24 36 28 55 31 130 5 109 -5 112 -89 28z m79 -36 c-4 -54 -12 -85 -31 -120 -15 -26 -27 -56 -27 -66 0 -18 -17 -35 -26 -26 -3 3 -7 29 -8 59 -2 30 -11 68 -20 86 -9 17 -16 33 -16 35 0 12 115 115 123 110 5 -3 7 -38 5 -78z" transform="translate(0,116) scale(0.1,-0.1)" stroke="none" fill="#D29A5B"/>

<path d="M766 741 c-3 -5 -37 -21 -76 -37 -38 -16 -70 -35 -70 -42 0 -22 100 -62 155 -62 63 1 189 42 193 64 4 20 -25 33 -41 17 -20 -20 -47 -12 -91 29 -43 40 -60 48 -70 31z m65 -41 c40 -41 82 -53 107 -28 6 6 15 9 19 5 11 -12 -8 -23 -76 -46 -94 -31 -166 -26 -229 15 l-25 17 38 18 c21 11 44 19 51 19 6 0 22 9 35 20 13 10 28 19 33 20 4 0 26 -18 47 -40z" transform="translate(0,116) scale(0.1,-0.1)" stroke="none" fill="#D29A5B"/>

<path d="M446 1061 c-31 -31 -41 -51 -47 -93 -11 -66 5 -148 39 -201 29 -44 22 -62 -9 -24 -24 32 -45 35 -54 7 -6 -19 -7 -19 -45 1 -57 30 -170 46 -209 30 -65 -28 -85 -111 -53 -226 38 -135 51 -157 120 -190 19 -9 32 -23 32 -34 0 -10 7 -24 14 -31 8 -6 23 -32 32 -56 11 -29 27 -50 46 -60 23 -12 28 -21 28 -52 1 -50 19 -72 62 -72 39 0 109 45 129 82 6 13 20 32 30 43 9 11 29 53 42 93 25 76 37 97 37 69 0 -9 5 -17 11 -17 7 0 10 22 7 61 l-3 62 75 -6 c66 -6 73 -5 56 8 -10 7 -15 18 -11 24 10 17 -11 13 -26 -5 -10 -12 -24 -15 -59 -11 -45 5 -46 5 -58 -31 -7 -20 -18 -60 -23 -89 -12 -69 -40 -131 -84 -189 -44 -57 -84 -84 -125 -84 -35 0 -50 23 -50 74 0 29 -5 38 -29 50 -19 10 -40 39 -66 91 -30 61 -44 79 -76 95 -48 25 -62 46 -90 140 -42 138 -26 229 44 254 37 14 159 -10 202 -40 43 -29 45 -29 45 -5 0 34 16 31 55 -9 22 -22 45 -40 52 -40 14 0 18 16 5 22 -13 5 -68 118 -81 166 -18 63 1 144 43 190 31 33 35 34 79 28 26 -4 89 -28 140 -54 87 -45 93 -50 119 -102 14 -30 37 -62 51 -70 26 -16 97 -96 97 -110 0 -10 27 -21 58 -25 41 -6 68 -30 66 -61 -3 -50 -4 -53 -22 -58 -10 -4 -36 -23 -58 -44 -44 -42 -70 -56 -134 -71 l-45 -10 45 5 c55 6 120 33 120 50 0 7 8 15 18 18 10 4 35 21 55 40 29 27 37 41 37 69 0 30 -6 38 -36 56 -19 12 -46 21 -58 21 -17 0 -36 16 -65 55 -23 30 -53 62 -67 72 -14 9 -38 42 -54 74 -28 54 -34 59 -112 97 -84 41 -146 62 -183 62 -12 0 -38 -18 -59 -39z" transform="translate(0,116) scale(0.1,-0.1)" stroke="none" fill="#D29A5B"/>

<path d="M453 1057 c-41 -47 -59 -128 -42 -189 13 -48 68 -161 81 -166 13 -6 9 -22 -5 -22 -7 0 -30 18 -52 40 -39 40 -55 43 -55 9 0 -24 -2 -24 -45 5 -43 30 -165 54 -202 40 -70 -25 -86 -116 -44 -254 28 -94 42 -115 90 -140 32 -16 46 -34 76 -95 26 -52 47 -81 66 -91 24 -12 29 -21 29 -50 0 -51 15 -74 50 -74 82 0 184 133 209 273 5 29 16 69 23 89 12 36 13 37 55 31 33 -4 48 -2 63 12 10 9 23 14 28 11 12 -7 106 11 142 28 14 6 43 28 64 48 22 21 48 40 58 44 18 5 19 8 22 58 2 31 -25 55 -66 61 -31 4 -58 15 -58 25 0 14 -71 94 -97 110 -14 8 -37 40 -51 70 -26 53 -31 57 -122 103 -52 26 -115 50 -141 53 -42 6 -47 4 -76 -29z m136 -107 c9 -5 31 -14 49 -21 19 -7 41 -23 49 -36 16 -23 15 -25 -27 -61 -24 -20 -63 -57 -87 -81 -24 -24 -45 -42 -47 -40 -15 19 -39 106 -43 161 -7 83 4 103 55 93 19 -3 42 -10 51 -15z m247 -240 c44 -41 71 -49 91 -29 16 16 45 3 41 -17 -4 -22 -130 -63 -193 -64 -55 0 -155 40 -155 62 0 7 32 26 70 42 39 16 73 32 76 37 10 17 27 9 70 -31z m-532 -31 c6 -5 17 -9 26 -9 9 0 27 -11 40 -25 13 -14 29 -25 36 -25 10 0 44 -41 44 -55 0 -3 -16 -5 -35 -5 -43 0 -110 -32 -125 -60 -14 -26 -61 -27 -76 -2 -17 26 -47 169 -40 187 4 12 17 14 63 9 32 -4 62 -10 67 -15z m206 -109 c0 -5 -7 -10 -15 -10 -8 0 -15 5 -15 10 0 6 7 10 15 10 8 0 15 -4 15 -10z m-12 -167 c-3 -75 -7 -94 -31 -130 -15 -24 -27 -53 -27 -67 0 -25 -23 -51 -38 -42 -13 8 -25 64 -22 104 1 18 -5 44 -14 57 -9 13 -16 30 -16 36 0 18 116 129 135 129 15 0 17 -11 13 -87z" transform="translate(0,116) scale(0.1,-0.1)" stroke="none" fill="#903F12"/>

</g>

<g id="2" transform="translate(224.0,0)scale(1,1)">

<path d="M490 956 c-16 -21 -8 -137 13 -187 9 -19 16 -28 16 -21 1 7 -3 21 -8 30 -13 27 -22 155 -11 172 17 26 180 -40 180 -73 0 -11 -140 -147 -152 -147 -4 0 -8 -4 -8 -10 0 -18 12 -11 55 33 23 23 61 59 85 79 42 36 43 38 27 61 -8 13 -30 29 -49 36 -18 7 -40 16 -49 21 -37 19 -85 22 -99 6z" transform="translate(0,116) scale(0.1,-0.1)" stroke="none" fill="#D29A5B"/>

<path d="M174 685 c-7 -18 23 -161 40 -187 6 -10 14 -18 19 -18 4 0 0 11 -8 24 -9 13 -20 48 -26 77 -5 30 -13 66 -16 81 l-5 27 53 -6 c30 -3 59 -9 64 -13 6 -4 21 -10 35 -13 14 -4 40 -21 59 -39 l34 -32 -53 -23 c-57 -25 -131 -83 -106 -83 9 0 20 9 26 20 15 28 82 60 125 60 19 0 35 2 35 5 0 14 -34 55 -44 55 -7 0 -23 11 -36 25 -13 14 -31 25 -40 25 -9 0 -20 4 -26 9 -5 5 -35 11 -67 15 -46 5 -59 3 -63 -9z" transform="translate(0,116) scale(0.1,-0.1)" stroke="none" fill="#D29A5B"/>

<path d="M409 431 c-32 -32 -59 -63 -59 -70 0 -6 7 -23 16 -36 9 -13 15 -39 14 -57 -3 -40 9 -96 22 -104 15 -9 38 17 38 42 0 14 12 43 27 67 24 36 28 55 31 130 5 109 -5 112 -89 28z m79 -36 c-4 -54 -12 -85 -31 -120 -15 -26 -27 -56 -27 -66 0 -18 -17 -35 -26 -26 -3 3 -7 29 -8 59 -2 30 -11 68 -20 86 -9 17 -16 33 -16 35 0 12 115 115 123 110 5 -3 7 -38 5 -78z" transform="translate(0,116) scale(0.1,-0.1)" stroke="none" fill="#D29A5B"/>

<path d="M766 741 c-3 -5 -37 -21 -76 -37 -38 -16 -70 -35 -70 -42 0 -22 100 -62 155 -62 63 1 189 42 193 64 4 20 -25 33 -41 17 -20 -20 -47 -12 -91 29 -43 40 -60 48 -70 31z m65 -41 c40 -41 82 -53 107 -28 6 6 15 9 19 5 11 -12 -8 -23 -76 -46 -94 -31 -166 -26 -229 15 l-25 17 38 18 c21 11 44 19 51 19 6 0 22 9 35 20 13 10 28 19 33 20 4 0 26 -18 47 -40z" transform="translate(0,116) scale(0.1,-0.1)" stroke="none" fill="#D29A5B"/>

<path d="M446 1061 c-31 -31 -41 -51 -47 -93 -11 -66 5 -148 39 -201 29 -44 22 -62 -9 -24 -24 32 -45 35 -54 7 -6 -19 -7 -19 -45 1 -57 30 -170 46 -209 30 -65 -28 -85 -111 -53 -226 38 -135 51 -157 120 -190 19 -9 32 -23 32 -34 0 -10 7 -24 14 -31 8 -6 23 -32 32 -56 11 -29 27 -50 46 -60 23 -12 28 -21 28 -52 1 -50 19 -72 62 -72 39 0 109 45 129 82 6 13 20 32 30 43 9 11 29 53 42 93 25 76 37 97 37 69 0 -9 5 -17 11 -17 7 0 10 22 7 61 l-3 62 75 -6 c66 -6 73 -5 56 8 -10 7 -15 18 -11 24 10 17 -11 13 -26 -5 -10 -12 -24 -15 -59 -11 -45 5 -46 5 -58 -31 -7 -20 -18 -60 -23 -89 -12 -69 -40 -131 -84 -189 -44 -57 -84 -84 -125 -84 -35 0 -50 23 -50 74 0 29 -5 38 -29 50 -19 10 -40 39 -66 91 -30 61 -44 79 -76 95 -48 25 -62 46 -90 140 -42 138 -26 229 44 254 37 14 159 -10 202 -40 43 -29 45 -29 45 -5 0 34 16 31 55 -9 22 -22 45 -40 52 -40 14 0 18 16 5 22 -13 5 -68 118 -81 166 -18 63 1 144 43 190 31 33 35 34 79 28 26 -4 89 -28 140 -54 87 -45 93 -50 119 -102 14 -30 37 -62 51 -70 26 -16 97 -96 97 -110 0 -10 27 -21 58 -25 41 -6 68 -30 66 -61 -3 -50 -4 -53 -22 -58 -10 -4 -36 -23 -58 -44 -44 -42 -70 -56 -134 -71 l-45 -10 45 5 c55 6 120 33 120 50 0 7 8 15 18 18 10 4 35 21 55 40 29 27 37 41 37 69 0 30 -6 38 -36 56 -19 12 -46 21 -58 21 -17 0 -36 16 -65 55 -23 30 -53 62 -67 72 -14 9 -38 42 -54 74 -28 54 -34 59 -112 97 -84 41 -146 62 -183 62 -12 0 -38 -18 -59 -39z" transform="translate(0,116) scale(0.1,-0.1)" stroke="none" fill="#D29A5B"/>

<path d="M453 1057 c-41 -47 -59 -128 -42 -189 13 -48 68 -161 81 -166 13 -6 9 -22 -5 -22 -7 0 -30 18 -52 40 -39 40 -55 43 -55 9 0 -24 -2 -24 -45 5 -43 30 -165 54 -202 40 -70 -25 -86 -116 -44 -254 28 -94 42 -115 90 -140 32 -16 46 -34 76 -95 26 -52 47 -81 66 -91 24 -12 29 -21 29 -50 0 -51 15 -74 50 -74 82 0 184 133 209 273 5 29 16 69 23 89 12 36 13 37 55 31 33 -4 48 -2 63 12 10 9 23 14 28 11 12 -7 106 11 142 28 14 6 43 28 64 48 22 21 48 40 58 44 18 5 19 8 22 58 2 31 -25 55 -66 61 -31 4 -58 15 -58 25 0 14 -71 94 -97 110 -14 8 -37 40 -51 70 -26 53 -31 57 -122 103 -52 26 -115 50 -141 53 -42 6 -47 4 -76 -29z m136 -107 c9 -5 31 -14 49 -21 19 -7 41 -23 49 -36 16 -23 15 -25 -27 -61 -24 -20 -63 -57 -87 -81 -24 -24 -45 -42 -47 -40 -15 19 -39 106 -43 161 -7 83 4 103 55 93 19 -3 42 -10 51 -15z m247 -240 c44 -41 71 -49 91 -29 16 16 45 3 41 -17 -4 -22 -130 -63 -193 -64 -55 0 -155 40 -155 62 0 7 32 26 70 42 39 16 73 32 76 37 10 17 27 9 70 -31z m-532 -31 c6 -5 17 -9 26 -9 9 0 27 -11 40 -25 13 -14 29 -25 36 -25 10 0 44 -41 44 -55 0 -3 -16 -5 -35 -5 -43 0 -110 -32 -125 -60 -14 -26 -61 -27 -76 -2 -17 26 -47 169 -40 187 4 12 17 14 63 9 32 -4 62 -10 67 -15z m206 -109 c0 -5 -7 -10 -15 -10 -8 0 -15 5 -15 10 0 6 7 10 15 10 8 0 15 -4 15 -10z m-12 -167 c-3 -75 -7 -94 -31 -130 -15 -24 -27 -53 -27 -67 0 -25 -23 -51 -38 -42 -13 8 -25 64 -22 104 1 18 -5 44 -14 57 -9 13 -16 30 -16 36 0 18 116 129 135 129 15 0 17 -11 13 -87z" transform="translate(0,116) scale(0.1,-0.1)" stroke="none" fill="#903F12"/>

</g>

<g id="3" transform="translate(336.0,0)scale(1,1)">

<path d="M490 956 c-16 -21 -8 -137 13 -187 9 -19 16 -28 16 -21 1 7 -3 21 -8 30 -13 27 -22 155 -11 172 17 26 180 -40 180 -73 0 -11 -140 -147 -152 -147 -4 0 -8 -4 -8 -10 0 -18 12 -11 55 33 23 23 61 59 85 79 42 36 43 38 27 61 -8 13 -30 29 -49 36 -18 7 -40 16 -49 21 -37 19 -85 22 -99 6z" transform="translate(0,116) scale(0.1,-0.1)" stroke="none" fill="#D29A5B"/>

<path d="M174 685 c-7 -18 23 -161 40 -187 6 -10 14 -18 19 -18 4 0 0 11 -8 24 -9 13 -20 48 -26 77 -5 30 -13 66 -16 81 l-5 27 53 -6 c30 -3 59 -9 64 -13 6 -4 21 -10 35 -13 14 -4 40 -21 59 -39 l34 -32 -53 -23 c-57 -25 -131 -83 -106 -83 9 0 20 9 26 20 15 28 82 60 125 60 19 0 35 2 35 5 0 14 -34 55 -44 55 -7 0 -23 11 -36 25 -13 14 -31 25 -40 25 -9 0 -20 4 -26 9 -5 5 -35 11 -67 15 -46 5 -59 3 -63 -9z" transform="translate(0,116) scale(0.1,-0.1)" stroke="none" fill="#D29A5B"/>

<path d="M409 431 c-32 -32 -59 -63 -59 -70 0 -6 7 -23 16 -36 9 -13 15 -39 14 -57 -3 -40 9 -96 22 -104 15 -9 38 17 38 42 0 14 12 43 27 67 24 36 28 55 31 130 5 109 -5 112 -89 28z m79 -36 c-4 -54 -12 -85 -31 -120 -15 -26 -27 -56 -27 -66 0 -18 -17 -35 -26 -26 -3 3 -7 29 -8 59 -2 30 -11 68 -20 86 -9 17 -16 33 -16 35 0 12 115 115 123 110 5 -3 7 -38 5 -78z" transform="translate(0,116) scale(0.1,-0.1)" stroke="none" fill="#D29A5B"/>

<path d="M766 741 c-3 -5 -37 -21 -76 -37 -38 -16 -70 -35 -70 -42 0 -22 100 -62 155 -62 63 1 189 42 193 64 4 20 -25 33 -41 17 -20 -20 -47 -12 -91 29 -43 40 -60 48 -70 31z m65 -41 c40 -41 82 -53 107 -28 6 6 15 9 19 5 11 -12 -8 -23 -76 -46 -94 -31 -166 -26 -229 15 l-25 17 38 18 c21 11 44 19 51 19 6 0 22 9 35 20 13 10 28 19 33 20 4 0 26 -18 47 -40z" transform="translate(0,116) scale(0.1,-0.1)" stroke="none" fill="#D29A5B"/>

<path d="M446 1061 c-31 -31 -41 -51 -47 -93 -11 -66 5 -148 39 -201 29 -44 22 -62 -9 -24 -24 32 -45 35 -54 7 -6 -19 -7 -19 -45 1 -57 30 -170 46 -209 30 -65 -28 -85 -111 -53 -226 38 -135 51 -157 120 -190 19 -9 32 -23 32 -34 0 -10 7 -24 14 -31 8 -6 23 -32 32 -56 11 -29 27 -50 46 -60 23 -12 28 -21 28 -52 1 -50 19 -72 62 -72 39 0 109 45 129 82 6 13 20 32 30 43 9 11 29 53 42 93 25 76 37 97 37 69 0 -9 5 -17 11 -17 7 0 10 22 7 61 l-3 62 75 -6 c66 -6 73 -5 56 8 -10 7 -15 18 -11 24 10 17 -11 13 -26 -5 -10 -12 -24 -15 -59 -11 -45 5 -46 5 -58 -31 -7 -20 -18 -60 -23 -89 -12 -69 -40 -131 -84 -189 -44 -57 -84 -84 -125 -84 -35 0 -50 23 -50 74 0 29 -5 38 -29 50 -19 10 -40 39 -66 91 -30 61 -44 79 -76 95 -48 25 -62 46 -90 140 -42 138 -26 229 44 254 37 14 159 -10 202 -40 43 -29 45 -29 45 -5 0 34 16 31 55 -9 22 -22 45 -40 52 -40 14 0 18 16 5 22 -13 5 -68 118 -81 166 -18 63 1 144 43 190 31 33 35 34 79 28 26 -4 89 -28 140 -54 87 -45 93 -50 119 -102 14 -30 37 -62 51 -70 26 -16 97 -96 97 -110 0 -10 27 -21 58 -25 41 -6 68 -30 66 -61 -3 -50 -4 -53 -22 -58 -10 -4 -36 -23 -58 -44 -44 -42 -70 -56 -134 -71 l-45 -10 45 5 c55 6 120 33 120 50 0 7 8 15 18 18 10 4 35 21 55 40 29 27 37 41 37 69 0 30 -6 38 -36 56 -19 12 -46 21 -58 21 -17 0 -36 16 -65 55 -23 30 -53 62 -67 72 -14 9 -38 42 -54 74 -28 54 -34 59 -112 97 -84 41 -146 62 -183 62 -12 0 -38 -18 -59 -39z" transform="translate(0,116) scale(0.1,-0.1)" stroke="none" fill="#D29A5B"/>

<path d="M453 1057 c-41 -47 -59 -128 -42 -189 13 -48 68 -161 81 -166 13 -6 9 -22 -5 -22 -7 0 -30 18 -52 40 -39 40 -55 43 -55 9 0 -24 -2 -24 -45 5 -43 30 -165 54 -202 40 -70 -25 -86 -116 -44 -254 28 -94 42 -115 90 -140 32 -16 46 -34 76 -95 26 -52 47 -81 66 -91 24 -12 29 -21 29 -50 0 -51 15 -74 50 -74 82 0 184 133 209 273 5 29 16 69 23 89 12 36 13 37 55 31 33 -4 48 -2 63 12 10 9 23 14 28 11 12 -7 106 11 142 28 14 6 43 28 64 48 22 21 48 40 58 44 18 5 19 8 22 58 2 31 -25 55 -66 61 -31 4 -58 15 -58 25 0 14 -71 94 -97 110 -14 8 -37 40 -51 70 -26 53 -31 57 -122 103 -52 26 -115 50 -141 53 -42 6 -47 4 -76 -29z m136 -107 c9 -5 31 -14 49 -21 19 -7 41 -23 49 -36 16 -23 15 -25 -27 -61 -24 -20 -63 -57 -87 -81 -24 -24 -45 -42 -47 -40 -15 19 -39 106 -43 161 -7 83 4 103 55 93 19 -3 42 -10 51 -15z m247 -240 c44 -41 71 -49 91 -29 16 16 45 3 41 -17 -4 -22 -130 -63 -193 -64 -55 0 -155 40 -155 62 0 7 32 26 70 42 39 16 73 32 76 37 10 17 27 9 70 -31z m-532 -31 c6 -5 17 -9 26 -9 9 0 27 -11 40 -25 13 -14 29 -25 36 -25 10 0 44 -41 44 -55 0 -3 -16 -5 -35 -5 -43 0 -110 -32 -125 -60 -14 -26 -61 -27 -76 -2 -17 26 -47 169 -40 187 4 12 17 14 63 9 32 -4 62 -10 67 -15z m206 -109 c0 -5 -7 -10 -15 -10 -8 0 -15 5 -15 10 0 6 7 10 15 10 8 0 15 -4 15 -10z m-12 -167 c-3 -75 -7 -94 -31 -130 -15 -24 -27 -53 -27 -67 0 -25 -23 -51 -38 -42 -13 8 -25 64 -22 104 1 18 -5 44 -14 57 -9 13 -16 30 -16 36 0 18 116 129 135 129 15 0 17 -11 13 -87z" transform="translate(0,116) scale(0.1,-0.1)" stroke="none" fill="#903F12"/>

</g>

<g id="4" transform="translate(448.0,0)scale(1,1)">

<path d="M490 956 c-16 -21 -8 -137 13 -187 9 -19 16 -28 16 -21 1 7 -3 21 -8 30 -13 27 -22 155 -11 172 17 26 180 -40 180 -73 0 -11 -140 -147 -152 -147 -4 0 -8 -4 -8 -10 0 -18 12 -11 55 33 23 23 61 59 85 79 42 36 43 38 27 61 -8 13 -30 29 -49 36 -18 7 -40 16 -49 21 -37 19 -85 22 -99 6z" transform="translate(0,116) scale(0.1,-0.1)" stroke="none" fill="#D29A5B"/>

<path d="M174 685 c-7 -18 23 -161 40 -187 6 -10 14 -18 19 -18 4 0 0 11 -8 24 -9 13 -20 48 -26 77 -5 30 -13 66 -16 81 l-5 27 53 -6 c30 -3 59 -9 64 -13 6 -4 21 -10 35 -13 14 -4 40 -21 59 -39 l34 -32 -53 -23 c-57 -25 -131 -83 -106 -83 9 0 20 9 26 20 15 28 82 60 125 60 19 0 35 2 35 5 0 14 -34 55 -44 55 -7 0 -23 11 -36 25 -13 14 -31 25 -40 25 -9 0 -20 4 -26 9 -5 5 -35 11 -67 15 -46 5 -59 3 -63 -9z" transform="translate(0,116) scale(0.1,-0.1)" stroke="none" fill="#D29A5B"/>

<path d="M409 431 c-32 -32 -59 -63 -59 -70 0 -6 7 -23 16 -36 9 -13 15 -39 14 -57 -3 -40 9 -96 22 -104 15 -9 38 17 38 42 0 14 12 43 27 67 24 36 28 55 31 130 5 109 -5 112 -89 28z m79 -36 c-4 -54 -12 -85 -31 -120 -15 -26 -27 -56 -27 -66 0 -18 -17 -35 -26 -26 -3 3 -7 29 -8 59 -2 30 -11 68 -20 86 -9 17 -16 33 -16 35 0 12 115 115 123 110 5 -3 7 -38 5 -78z" transform="translate(0,116) scale(0.1,-0.1)" stroke="none" fill="#D29A5B"/>

<path d="M766 741 c-3 -5 -37 -21 -76 -37 -38 -16 -70 -35 -70 -42 0 -22 100 -62 155 -62 63 1 189 42 193 64 4 20 -25 33 -41 17 -20 -20 -47 -12 -91 29 -43 40 -60 48 -70 31z m65 -41 c40 -41 82 -53 107 -28 6 6 15 9 19 5 11 -12 -8 -23 -76 -46 -94 -31 -166 -26 -229 15 l-25 17 38 18 c21 11 44 19 51 19 6 0 22 9 35 20 13 10 28 19 33 20 4 0 26 -18 47 -40z" transform="translate(0,116) scale(0.1,-0.1)" stroke="none" fill="#D29A5B"/>

<path d="M446 1061 c-31 -31 -41 -51 -47 -93 -11 -66 5 -148 39 -201 29 -44 22 -62 -9 -24 -24 32 -45 35 -54 7 -6 -19 -7 -19 -45 1 -57 30 -170 46 -209 30 -65 -28 -85 -111 -53 -226 38 -135 51 -157 120 -190 19 -9 32 -23 32 -34 0 -10 7 -24 14 -31 8 -6 23 -32 32 -56 11 -29 27 -50 46 -60 23 -12 28 -21 28 -52 1 -50 19 -72 62 -72 39 0 109 45 129 82 6 13 20 32 30 43 9 11 29 53 42 93 25 76 37 97 37 69 0 -9 5 -17 11 -17 7 0 10 22 7 61 l-3 62 75 -6 c66 -6 73 -5 56 8 -10 7 -15 18 -11 24 10 17 -11 13 -26 -5 -10 -12 -24 -15 -59 -11 -45 5 -46 5 -58 -31 -7 -20 -18 -60 -23 -89 -12 -69 -40 -131 -84 -189 -44 -57 -84 -84 -125 -84 -35 0 -50 23 -50 74 0 29 -5 38 -29 50 -19 10 -40 39 -66 91 -30 61 -44 79 -76 95 -48 25 -62 46 -90 140 -42 138 -26 229 44 254 37 14 159 -10 202 -40 43 -29 45 -29 45 -5 0 34 16 31 55 -9 22 -22 45 -40 52 -40 14 0 18 16 5 22 -13 5 -68 118 -81 166 -18 63 1 144 43 190 31 33 35 34 79 28 26 -4 89 -28 140 -54 87 -45 93 -50 119 -102 14 -30 37 -62 51 -70 26 -16 97 -96 97 -110 0 -10 27 -21 58 -25 41 -6 68 -30 66 -61 -3 -50 -4 -53 -22 -58 -10 -4 -36 -23 -58 -44 -44 -42 -70 -56 -134 -71 l-45 -10 45 5 c55 6 120 33 120 50 0 7 8 15 18 18 10 4 35 21 55 40 29 27 37 41 37 69 0 30 -6 38 -36 56 -19 12 -46 21 -58 21 -17 0 -36 16 -65 55 -23 30 -53 62 -67 72 -14 9 -38 42 -54 74 -28 54 -34 59 -112 97 -84 41 -146 62 -183 62 -12 0 -38 -18 -59 -39z" transform="translate(0,116) scale(0.1,-0.1)" stroke="none" fill="#D29A5B"/>

<path d="M453 1057 c-41 -47 -59 -128 -42 -189 13 -48 68 -161 81 -166 13 -6 9 -22 -5 -22 -7 0 -30 18 -52 40 -39 40 -55 43 -55 9 0 -24 -2 -24 -45 5 -43 30 -165 54 -202 40 -70 -25 -86 -116 -44 -254 28 -94 42 -115 90 -140 32 -16 46 -34 76 -95 26 -52 47 -81 66 -91 24 -12 29 -21 29 -50 0 -51 15 -74 50 -74 82 0 184 133 209 273 5 29 16 69 23 89 12 36 13 37 55 31 33 -4 48 -2 63 12 10 9 23 14 28 11 12 -7 106 11 142 28 14 6 43 28 64 48 22 21 48 40 58 44 18 5 19 8 22 58 2 31 -25 55 -66 61 -31 4 -58 15 -58 25 0 14 -71 94 -97 110 -14 8 -37 40 -51 70 -26 53 -31 57 -122 103 -52 26 -115 50 -141 53 -42 6 -47 4 -76 -29z m136 -107 c9 -5 31 -14 49 -21 19 -7 41 -23 49 -36 16 -23 15 -25 -27 -61 -24 -20 -63 -57 -87 -81 -24 -24 -45 -42 -47 -40 -15 19 -39 106 -43 161 -7 83 4 103 55 93 19 -3 42 -10 51 -15z m247 -240 c44 -41 71 -49 91 -29 16 16 45 3 41 -17 -4 -22 -130 -63 -193 -64 -55 0 -155 40 -155 62 0 7 32 26 70 42 39 16 73 32 76 37 10 17 27 9 70 -31z m-532 -31 c6 -5 17 -9 26 -9 9 0 27 -11 40 -25 13 -14 29 -25 36 -25 10 0 44 -41 44 -55 0 -3 -16 -5 -35 -5 -43 0 -110 -32 -125 -60 -14 -26 -61 -27 -76 -2 -17 26 -47 169 -40 187 4 12 17 14 63 9 32 -4 62 -10 67 -15z m206 -109 c0 -5 -7 -10 -15 -10 -8 0 -15 5 -15 10 0 6 7 10 15 10 8 0 15 -4 15 -10z m-12 -167 c-3 -75 -7 -94 -31 -130 -15 -24 -27 -53 -27 -67 0 -25 -23 -51 -38 -42 -13 8 -25 64 -22 104 1 18 -5 44 -14 57 -9 13 -16 30 -16 36 0 18 116 129 135 129 15 0 17 -11 13 -87z" transform="translate(0,116) scale(0.1,-0.1)" stroke="none" fill="#903F12"/>

</g>

</g>
<g id="row2" transform="translate(14,232.0)">
<g id="0" transform="translate(0.0,0)scale(1,1)">

<path d="M490 956 c-16 -21 -8 -137 13 -187 9 -19 16 -28 16 -21 1 7 -3 21 -8 30 -13 27 -22 155 -11 172 17 26 180 -40 180 -73 0 -11 -140 -147 -152 -147 -4 0 -8 -4 -8 -10 0 -18 12 -11 55 33 23 23 61 59 85 79 42 36 43 38 27 61 -8 13 -30 29 -49 36 -18 7 -40 16 -49 21 -37 19 -85 22 -99 6z" transform="translate(0,116) scale(0.1,-0.1)" stroke="none" fill="#D29A5B"/>

<path d="M174 685 c-7 -18 23 -161 40 -187 6 -10 14 -18 19 -18 4 0 0 11 -8 24 -9 13 -20 48 -26 77 -5 30 -13 66 -16 81 l-5 27 53 -6 c30 -3 59 -9 64 -13 6 -4 21 -10 35 -13 14 -4 40 -21 59 -39 l34 -32 -53 -23 c-57 -25 -131 -83 -106 -83 9 0 20 9 26 20 15 28 82 60 125 60 19 0 35 2 35 5 0 14 -34 55 -44 55 -7 0 -23 11 -36 25 -13 14 -31 25 -40 25 -9 0 -20 4 -26 9 -5 5 -35 11 -67 15 -46 5 -59 3 -63 -9z" transform="translate(0,116) scale(0.1,-0.1)" stroke="none" fill="#D29A5B"/>

<path d="M409 431 c-32 -32 -59 -63 -59 -70 0 -6 7 -23 16 -36 9 -13 15 -39 14 -57 -3 -40 9 -96 22 -104 15 -9 38 17 38 42 0 14 12 43 27 67 24 36 28 55 31 130 5 109 -5 112 -89 28z m79 -36 c-4 -54 -12 -85 -31 -120 -15 -26 -27 -56 -27 -66 0 -18 -17 -35 -26 -26 -3 3 -7 29 -8 59 -2 30 -11 68 -20 86 -9 17 -16 33 -16 35 0 12 115 115 123 110 5 -3 7 -38 5 -78z" transform="translate(0,116) scale(0.1,-0.1)" stroke="none" fill="#D29A5B"/>

<path d="M766 741 c-3 -5 -37 -21 -76 -37 -38 -16 -70 -35 -70 -42 0 -22 100 -62 155 -62 63 1 189 42 193 64 4 20 -25 33 -41 17 -20 -20 -47 -12 -91 29 -43 40 -60 48 -70 31z m65 -41 c40 -41 82 -53 107 -28 6 6 15 9 19 5 11 -12 -8 -23 -76 -46 -94 -31 -166 -26 -229 15 l-25 17 38 18 c21 11 44 19 51 19 6 0 22 9 35 20 13 10 28 19 33 20 4 0 26 -18 47 -40z" transform="translate(0,116) scale(0.1,-0.1)" stroke="none" fill="#D29A5B"/>

<path d="M446 1061 c-31 -31 -41 -51 -47 -93 -11 -66 5 -148 39 -201 29 -44 22 -62 -9 -24 -24 32 -45 35 -54 7 -6 -19 -7 -19 -45 1 -57 30 -170 46 -209 30 -65 -28 -85 -111 -53 -226 38 -135 51 -157 120 -190 19 -9 32 -23 32 -34 0 -10 7 -24 14 -31 8 -6 23 -32 32 -56 11 -29 27 -50 46 -60 23 -12 28 -21 28 -52 1 -50 19 -72 62 -72 39 0 109 45 129 82 6 13 20 32 30 43 9 11 29 53 42 93 25 76 37 97 37 69 0 -9 5 -17 11 -17 7 0 10 22 7 61 l-3 62 75 -6 c66 -6 73 -5 56 8 -10 7 -15 18 -11 24 10 17 -11 13 -26 -5 -10 -12 -24 -15 -59 -11 -45 5 -46 5 -58 -31 -7 -20 -18 -60 -23 -89 -12 -69 -40 -131 -84 -189 -44 -57 -84 -84 -125 -84 -35 0 -50 23 -50 74 0 29 -5 38 -29 50 -19 10 -40 39 -66 91 -30 61 -44 79 -76 95 -48 25 -62 46 -90 140 -42 138 -26 229 44 254 37 14 159 -10 202 -40 43 -29 45 -29 45 -5 0 34 16 31 55 -9 22 -22 45 -40 52 -40 14 0 18 16 5 22 -13 5 -68 118 -81 166 -18 63 1 144 43 190 31 33 35 34 79 28 26 -4 89 -28 140 -54 87 -45 93 -50 119 -102 14 -30 37 -62 51 -70 26 -16 97 -96 97 -110 0 -10 27 -21 58 -25 41 -6 68 -30 66 -61 -3 -50 -4 -53 -22 -58 -10 -4 -36 -23 -58 -44 -44 -42 -70 -56 -134 -71 l-45 -10 45 5 c55 6 120 33 120 50 0 7 8 15 18 18 10 4 35 21 55 40 29 27 37 41 37 69 0 30 -6 38 -36 56 -19 12 -46 21 -58 21 -17 0 -36 16 -65 55 -23 30 -53 62 -67 72 -14 9 -38 42 -54 74 -28 54 -34 59 -112 97 -84 41 -146 62 -183 62 -12 0 -38 -18 -59 -39z" transform="translate(0,116) scale(0.1,-0.1)" stroke="none" fill="#D29A5B"/>

<path d="M453 1057 c-41 -47 -59 -128 -42 -189 13 -48 68 -161 81 -166 13 -6 9 -22 -5 -22 -7 0 -30 18 -52 40 -39 40 -55 43 -55 9 0 -24 -2 -24 -45 5 -43 30 -165 54 -202 40 -70 -25 -86 -116 -44 -254 28 -94 42 -115 90 -140 32 -16 46 -34 76 -95 26 -52 47 -81 66 -91 24 -12 29 -21 29 -50 0 -51 15 -74 50 -74 82 0 184 133 209 273 5 29 16 69 23 89 12 36 13 37 55 31 33 -4 48 -2 63 12 10 9 23 14 28 11 12 -7 106 11 142 28 14 6 43 28 64 48 22 21 48 40 58 44 18 5 19 8 22 58 2 31 -25 55 -66 61 -31 4 -58 15 -58 25 0 14 -71 94 -97 110 -14 8 -37 40 -51 70 -26 53 -31 57 -122 103 -52 26 -115 50 -141 53 -42 6 -47 4 -76 -29z m136 -107 c9 -5 31 -14 49 -21 19 -7 41 -23 49 -36 16 -23 15 -25 -27 -61 -24 -20 -63 -57 -87 -81 -24 -24 -45 -42 -47 -40 -15 19 -39 106 -43 161 -7 83 4 103 55 93 19 -3 42 -10 51 -15z m247 -240 c44 -41 71 -49 91 -29 16 16 45 3 41 -17 -4 -22 -130 -63 -193 -64 -55 0 -155 40 -155 62 0 7 32 26 70 42 39 16 73 32 76 37 10 17 27 9 70 -31z m-532 -31 c6 -5 17 -9 26 -9 9 0 27 -11 40 -25 13 -14 29 -25 36 -25 10 0 44 -41 44 -55 0 -3 -16 -5 -35 -5 -43 0 -110 -32 -125 -60 -14 -26 -61 -27 -76 -2 -17 26 -47 169 -40 187 4 12 17 14 63 9 32 -4 62 -10 67 -15z m206 -109 c0 -5 -7 -10 -15 -10 -8 0 -15 5 -15 10 0 6 7 10 15 10 8 0 15 -4 15 -10z m-12 -167 c-3 -75 -7 -94 -31 -130 -15 -24 -27 -53 -27 -67 0 -25 -23 -51 -38 -42 -13 8 -25 64 -22 104 1 18 -5 44 -14 57 -9 13 -16 30 -16 36 0 18 116 129 135 129 15 0 17 -11 13 -87z" transform="translate(0,116) scale(0.1,-0.1)" stroke="none" fill="#903F12"/>

</g>

<g id="1" transform="translate(112.0,0)scale(1,1)">

<path d="M490 956 c-16 -21 -8 -137 13 -187 9 -19 16 -28 16 -21 1 7 -3 21 -8 30 -13 27 -22 155 -11 172 17 26 180 -40 180 -73 0 -11 -140 -147 -152 -147 -4 0 -8 -4 -8 -10 0 -18 12 -11 55 33 23 23 61 59 85 79 42 36 43 38 27 61 -8 13 -30 29 -49 36 -18 7 -40 16 -49 21 -37 19 -85 22 -99 6z" transform="translate(0,116) scale(0.1,-0.1)" stroke="none" fill="#D29A5B"/>

<path d="M174 685 c-7 -18 23 -161 40 -187 6 -10 14 -18 19 -18 4 0 0 11 -8 24 -9 13 -20 48 -26 77 -5 30 -13 66 -16 81 l-5 27 53 -6 c30 -3 59 -9 64 -13 6 -4 21 -10 35 -13 14 -4 40 -21 59 -39 l34 -32 -53 -23 c-57 -25 -131 -83 -106 -83 9 0 20 9 26 20 15 28 82 60 125 60 19 0 35 2 35 5 0 14 -34 55 -44 55 -7 0 -23 11 -36 25 -13 14 -31 25 -40 25 -9 0 -20 4 -26 9 -5 5 -35 11 -67 15 -46 5 -59 3 -63 -9z" transform="translate(0,116) scale(0.1,-0.1)" stroke="none" fill="#D29A5B"/>

<path d="M409 431 c-32 -32 -59 -63 -59 -70 0 -6 7 -23 16 -36 9 -13 15 -39 14 -57 -3 -40 9 -96 22 -104 15 -9 38 17 38 42 0 14 12 43 27 67 24 36 28 55 31 130 5 109 -5 112 -89 28z m79 -36 c-4 -54 -12 -85 -31 -120 -15 -26 -27 -56 -27 -66 0 -18 -17 -35 -26 -26 -3 3 -7 29 -8 59 -2 30 -11 68 -20 86 -9 17 -16 33 -16 35 0 12 115 115 123 110 5 -3 7 -38 5 -78z" transform="translate(0,116) scale(0.1,-0.1)" stroke="none" fill="#D29A5B"/>

<path d="M766 741 c-3 -5 -37 -21 -76 -37 -38 -16 -70 -35 -70 -42 0 -22 100 -62 155 -62 63 1 189 42 193 64 4 20 -25 33 -41 17 -20 -20 -47 -12 -91 29 -43 40 -60 48 -70 31z m65 -41 c40 -41 82 -53 107 -28 6 6 15 9 19 5 11 -12 -8 -23 -76 -46 -94 -31 -166 -26 -229 15 l-25 17 38 18 c21 11 44 19 51 19 6 0 22 9 35 20 13 10 28 19 33 20 4 0 26 -18 47 -40z" transform="translate(0,116) scale(0.1,-0.1)" stroke="none" fill="#D29A5B"/>

<path d="M446 1061 c-31 -31 -41 -51 -47 -93 -11 -66 5 -148 39 -201 29 -44 22 -62 -9 -24 -24 32 -45 35 -54 7 -6 -19 -7 -19 -45 1 -57 30 -170 46 -209 30 -65 -28 -85 -111 -53 -226 38 -135 51 -157 120 -190 19 -9 32 -23 32 -34 0 -10 7 -24 14 -31 8 -6 23 -32 32 -56 11 -29 27 -50 46 -60 23 -12 28 -21 28 -52 1 -50 19 -72 62 -72 39 0 109 45 129 82 6 13 20 32 30 43 9 11 29 53 42 93 25 76 37 97 37 69 0 -9 5 -17 11 -17 7 0 10 22 7 61 l-3 62 75 -6 c66 -6 73 -5 56 8 -10 7 -15 18 -11 24 10 17 -11 13 -26 -5 -10 -12 -24 -15 -59 -11 -45 5 -46 5 -58 -31 -7 -20 -18 -60 -23 -89 -12 -69 -40 -131 -84 -189 -44 -57 -84 -84 -125 -84 -35 0 -50 23 -50 74 0 29 -5 38 -29 50 -19 10 -40 39 -66 91 -30 61 -44 79 -76 95 -48 25 -62 46 -90 140 -42 138 -26 229 44 254 37 14 159 -10 202 -40 43 -29 45 -29 45 -5 0 34 16 31 55 -9 22 -22 45 -40 52 -40 14 0 18 16 5 22 -13 5 -68 118 -81 166 -18 63 1 144 43 190 31 33 35 34 79 28 26 -4 89 -28 140 -54 87 -45 93 -50 119 -102 14 -30 37 -62 51 -70 26 -16 97 -96 97 -110 0 -10 27 -21 58 -25 41 -6 68 -30 66 -61 -3 -50 -4 -53 -22 -58 -10 -4 -36 -23 -58 -44 -44 -42 -70 -56 -134 -71 l-45 -10 45 5 c55 6 120 33 120 50 0 7 8 15 18 18 10 4 35 21 55 40 29 27 37 41 37 69 0 30 -6 38 -36 56 -19 12 -46 21 -58 21 -17 0 -36 16 -65 55 -23 30 -53 62 -67 72 -14 9 -38 42 -54 74 -28 54 -34 59 -112 97 -84 41 -146 62 -183 62 -12 0 -38 -18 -59 -39z" transform="translate(0,116) scale(0.1,-0.1)" stroke="none" fill="#D29A5B"/>

<path d="M453 1057 c-41 -47 -59 -128 -42 -189 13 -48 68 -161 81 -166 13 -6 9 -22 -5 -22 -7 0 -30 18 -52 40 -39 40 -55 43 -55 9 0 -24 -2 -24 -45 5 -43 30 -165 54 -202 40 -70 -25 -86 -116 -44 -254 28 -94 42 -115 90 -140 32 -16 46 -34 76 -95 26 -52 47 -81 66 -91 24 -12 29 -21 29 -50 0 -51 15 -74 50 -74 82 0 184 133 209 273 5 29 16 69 23 89 12 36 13 37 55 31 33 -4 48 -2 63 12 10 9 23 14 28 11 12 -7 106 11 142 28 14 6 43 28 64 48 22 21 48 40 58 44 18 5 19 8 22 58 2 31 -25 55 -66 61 -31 4 -58 15 -58 25 0 14 -71 94 -97 110 -14 8 -37 40 -51 70 -26 53 -31 57 -122 103 -52 26 -115 50 -141 53 -42 6 -47 4 -76 -29z m136 -107 c9 -5 31 -14 49 -21 19 -7 41 -23 49 -36 16 -23 15 -25 -27 -61 -24 -20 -63 -57 -87 -81 -24 -24 -45 -42 -47 -40 -15 19 -39 106 -43 161 -7 83 4 103 55 93 19 -3 42 -10 51 -15z m247 -240 c44 -41 71 -49 91 -29 16 16 45 3 41 -17 -4 -22 -130 -63 -193 -64 -55 0 -155 40 -155 62 0 7 32 26 70 42 39 16 73 32 76 37 10 17 27 9 70 -31z m-532 -31 c6 -5 17 -9 26 -9 9 0 27 -11 40 -25 13 -14 29 -25 36 -25 10 0 44 -41 44 -55 0 -3 -16 -5 -35 -5 -43 0 -110 -32 -125 -60 -14 -26 -61 -27 -76 -2 -17 26 -47 169 -40 187 4 12 17 14 63 9 32 -4 62 -10 67 -15z m206 -109 c0 -5 -7 -10 -15 -10 -8 0 -15 5 -15 10 0 6 7 10 15 10 8 0 15 -4 15 -10z m-12 -167 c-3 -75 -7 -94 -31 -130 -15 -24 -27 -53 -27 -67 0 -25 -23 -51 -38 -42 -13 8 -25 64 -22 104 1 18 -5 44 -14 57 -9 13 -16 30 -16 36 0 18 116 129 135 129 15 0 17 -11 13 -87z" transform="translate(0,116) scale(0.1,-0.1)" stroke="none" fill="#903F12"/>

</g>

<g id="2" transform="translate(224.0,0)scale(1,1)">

<path d="M490 956 c-16 -21 -8 -137 13 -187 9 -19 16 -28 16 -21 1 7 -3 21 -8 30 -13 27 -22 155 -11 172 17 26 180 -40 180 -73 0 -11 -140 -147 -152 -147 -4 0 -8 -4 -8 -10 0 -18 12 -11 55 33 23 23 61 59 85 79 42 36 43 38 27 61 -8 13 -30 29 -49 36 -18 7 -40 16 -49 21 -37 19 -85 22 -99 6z" transform="translate(0,116) scale(0.1,-0.1)" stroke="none" fill="#D29A5B"/>

<path d="M174 685 c-7 -18 23 -161 40 -187 6 -10 14 -18 19 -18 4 0 0 11 -8 24 -9 13 -20 48 -26 77 -5 30 -13 66 -16 81 l-5 27 53 -6 c30 -3 59 -9 64 -13 6 -4 21 -10 35 -13 14 -4 40 -21 59 -39 l34 -32 -53 -23 c-57 -25 -131 -83 -106 -83 9 0 20 9 26 20 15 28 82 60 125 60 19 0 35 2 35 5 0 14 -34 55 -44 55 -7 0 -23 11 -36 25 -13 14 -31 25 -40 25 -9 0 -20 4 -26 9 -5 5 -35 11 -67 15 -46 5 -59 3 -63 -9z" transform="translate(0,116) scale(0.1,-0.1)" stroke="none" fill="#D29A5B"/>

<path d="M409 431 c-32 -32 -59 -63 -59 -70 0 -6 7 -23 16 -36 9 -13 15 -39 14 -57 -3 -40 9 -96 22 -104 15 -9 38 17 38 42 0 14 12 43 27 67 24 36 28 55 31 130 5 109 -5 112 -89 28z m79 -36 c-4 -54 -12 -85 -31 -120 -15 -26 -27 -56 -27 -66 0 -18 -17 -35 -26 -26 -3 3 -7 29 -8 59 -2 30 -11 68 -20 86 -9 17 -16 33 -16 35 0 12 115 115 123 110 5 -3 7 -38 5 -78z" transform="translate(0,116) scale(0.1,-0.1)" stroke="none" fill="#D29A5B"/>

<path d="M766 741 c-3 -5 -37 -21 -76 -37 -38 -16 -70 -35 -70 -42 0 -22 100 -62 155 -62 63 1 189 42 193 64 4 20 -25 33 -41 17 -20 -20 -47 -12 -91 29 -43 40 -60 48 -70 31z m65 -41 c40 -41 82 -53 107 -28 6 6 15 9 19 5 11 -12 -8 -23 -76 -46 -94 -31 -166 -26 -229 15 l-25 17 38 18 c21 11 44 19 51 19 6 0 22 9 35 20 13 10 28 19 33 20 4 0 26 -18 47 -40z" transform="translate(0,116) scale(0.1,-0.1)" stroke="none" fill="#D29A5B"/>

<path d="M446 1061 c-31 -31 -41 -51 -47 -93 -11 -66 5 -148 39 -201 29 -44 22 -62 -9 -24 -24 32 -45 35 -54 7 -6 -19 -7 -19 -45 1 -57 30 -170 46 -209 30 -65 -28 -85 -111 -53 -226 38 -135 51 -157 120 -190 19 -9 32 -23 32 -34 0 -10 7 -24 14 -31 8 -6 23 -32 32 -56 11 -29 27 -50 46 -60 23 -12 28 -21 28 -52 1 -50 19 -72 62 -72 39 0 109 45 129 82 6 13 20 32 30 43 9 11 29 53 42 93 25 76 37 97 37 69 0 -9 5 -17 11 -17 7 0 10 22 7 61 l-3 62 75 -6 c66 -6 73 -5 56 8 -10 7 -15 18 -11 24 10 17 -11 13 -26 -5 -10 -12 -24 -15 -59 -11 -45 5 -46 5 -58 -31 -7 -20 -18 -60 -23 -89 -12 -69 -40 -131 -84 -189 -44 -57 -84 -84 -125 -84 -35 0 -50 23 -50 74 0 29 -5 38 -29 50 -19 10 -40 39 -66 91 -30 61 -44 79 -76 95 -48 25 -62 46 -90 140 -42 138 -26 229 44 254 37 14 159 -10 202 -40 43 -29 45 -29 45 -5 0 34 16 31 55 -9 22 -22 45 -40 52 -40 14 0 18 16 5 22 -13 5 -68 118 -81 166 -18 63 1 144 43 190 31 33 35 34 79 28 26 -4 89 -28 140 -54 87 -45 93 -50 119 -102 14 -30 37 -62 51 -70 26 -16 97 -96 97 -110 0 -10 27 -21 58 -25 41 -6 68 -30 66 -61 -3 -50 -4 -53 -22 -58 -10 -4 -36 -23 -58 -44 -44 -42 -70 -56 -134 -71 l-45 -10 45 5 c55 6 120 33 120 50 0 7 8 15 18 18 10 4 35 21 55 40 29 27 37 41 37 69 0 30 -6 38 -36 56 -19 12 -46 21 -58 21 -17 0 -36 16 -65 55 -23 30 -53 62 -67 72 -14 9 -38 42 -54 74 -28 54 -34 59 -112 97 -84 41 -146 62 -183 62 -12 0 -38 -18 -59 -39z" transform="translate(0,116) scale(0.1,-0.1)" stroke="none" fill="#D29A5B"/>

<path d="M453 1057 c-41 -47 -59 -128 -42 -189 13 -48 68 -161 81 -166 13 -6 9 -22 -5 -22 -7 0 -30 18 -52 40 -39 40 -55 43 -55 9 0 -24 -2 -24 -45 5 -43 30 -165 54 -202 40 -70 -25 -86 -116 -44 -254 28 -94 42 -115 90 -140 32 -16 46 -34 76 -95 26 -52 47 -81 66 -91 24 -12 29 -21 29 -50 0 -51 15 -74 50 -74 82 0 184 133 209 273 5 29 16 69 23 89 12 36 13 37 55 31 33 -4 48 -2 63 12 10 9 23 14 28 11 12 -7 106 11 142 28 14 6 43 28 64 48 22 21 48 40 58 44 18 5 19 8 22 58 2 31 -25 55 -66 61 -31 4 -58 15 -58 25 0 14 -71 94 -97 110 -14 8 -37 40 -51 70 -26 53 -31 57 -122 103 -52 26 -115 50 -141 53 -42 6 -47 4 -76 -29z m136 -107 c9 -5 31 -14 49 -21 19 -7 41 -23 49 -36 16 -23 15 -25 -27 -61 -24 -20 -63 -57 -87 -81 -24 -24 -45 -42 -47 -40 -15 19 -39 106 -43 161 -7 83 4 103 55 93 19 -3 42 -10 51 -15z m247 -240 c44 -41 71 -49 91 -29 16 16 45 3 41 -17 -4 -22 -130 -63 -193 -64 -55 0 -155 40 -155 62 0 7 32 26 70 42 39 16 73 32 76 37 10 17 27 9 70 -31z m-532 -31 c6 -5 17 -9 26 -9 9 0 27 -11 40 -25 13 -14 29 -25 36 -25 10 0 44 -41 44 -55 0 -3 -16 -5 -35 -5 -43 0 -110 -32 -125 -60 -14 -26 -61 -27 -76 -2 -17 26 -47 169 -40 187 4 12 17 14 63 9 32 -4 62 -10 67 -15z m206 -109 c0 -5 -7 -10 -15 -10 -8 0 -15 5 -15 10 0 6 7 10 15 10 8 0 15 -4 15 -10z m-12 -167 c-3 -75 -7 -94 -31 -130 -15 -24 -27 -53 -27 -67 0 -25 -23 -51 -38 -42 -13 8 -25 64 -22 104 1 18 -5 44 -14 57 -9 13 -16 30 -16 36 0 18 116 129 135 129 15 0 17 -11 13 -87z" transform="translate(0,116) scale(0.1,-0.1)" stroke="none" fill="#903F12"/>

</g>

<g id="3" transform="translate(336.0,0)scale(1,1)">

<path d="M490 956 c-16 -21 -8 -137 13 -187 9 -19 16 -28 16 -21 1 7 -3 21 -8 30 -13 27 -22 155 -11 172 17 26 180 -40 180 -73 0 -11 -140 -147 -152 -147 -4 0 -8 -4 -8 -10 0 -18 12 -11 55 33 23 23 61 59 85 79 42 36 43 38 27 61 -8 13 -30 29 -49 36 -18 7 -40 16 -49 21 -37 19 -85 22 -99 6z" transform="translate(0,116) scale(0.1,-0.1)" stroke="none" fill="#D29A5B"/>

<path d="M174 685 c-7 -18 23 -161 40 -187 6 -10 14 -18 19 -18 4 0 0 11 -8 24 -9 13 -20 48 -26 77 -5 30 -13 66 -16 81 l-5 27 53 -6 c30 -3 59 -9 64 -13 6 -4 21 -10 35 -13 14 -4 40 -21 59 -39 l34 -32 -53 -23 c-57 -25 -131 -83 -106 -83 9 0 20 9 26 20 15 28 82 60 125 60 19 0 35 2 35 5 0 14 -34 55 -44 55 -7 0 -23 11 -36 25 -13 14 -31 25 -40 25 -9 0 -20 4 -26 9 -5 5 -35 11 -67 15 -46 5 -59 3 -63 -9z" transform="translate(0,116) scale(0.1,-0.1)" stroke="none" fill="#D29A5B"/>

<path d="M409 431 c-32 -32 -59 -63 -59 -70 0 -6 7 -23 16 -36 9 -13 15 -39 14 -57 -3 -40 9 -96 22 -104 15 -9 38 17 38 42 0 14 12 43 27 67 24 36 28 55 31 130 5 109 -5 112 -89 28z m79 -36 c-4 -54 -12 -85 -31 -120 -15 -26 -27 -56 -27 -66 0 -18 -17 -35 -26 -26 -3 3 -7 29 -8 59 -2 30 -11 68 -20 86 -9 17 -16 33 -16 35 0 12 115 115 123 110 5 -3 7 -38 5 -78z" transform="translate(0,116) scale(0.1,-0.1)" stroke="none" fill="#D29A5B"/>

<path d="M766 741 c-3 -5 -37 -21 -76 -37 -38 -16 -70 -35 -70 -42 0 -22 100 -62 155 -62 63 1 189 42 193 64 4 20 -25 33 -41 17 -20 -20 -47 -12 -91 29 -43 40 -60 48 -70 31z m65 -41 c40 -41 82 -53 107 -28 6 6 15 9 19 5 11 -12 -8 -23 -76 -46 -94 -31 -166 -26 -229 15 l-25 17 38 18 c21 11 44 19 51 19 6 0 22 9 35 20 13 10 28 19 33 20 4 0 26 -18 47 -40z" transform="translate(0,116) scale(0.1,-0.1)" stroke="none" fill="#D29A5B"/>

<path d="M446 1061 c-31 -31 -41 -51 -47 -93 -11 -66 5 -148 39 -201 29 -44 22 -62 -9 -24 -24 32 -45 35 -54 7 -6 -19 -7 -19 -45 1 -57 30 -170 46 -209 30 -65 -28 -85 -111 -53 -226 38 -135 51 -157 120 -190 19 -9 32 -23 32 -34 0 -10 7 -24 14 -31 8 -6 23 -32 32 -56 11 -29 27 -50 46 -60 23 -12 28 -21 28 -52 1 -50 19 -72 62 -72 39 0 109 45 129 82 6 13 20 32 30 43 9 11 29 53 42 93 25 76 37 97 37 69 0 -9 5 -17 11 -17 7 0 10 22 7 61 l-3 62 75 -6 c66 -6 73 -5 56 8 -10 7 -15 18 -11 24 10 17 -11 13 -26 -5 -10 -12 -24 -15 -59 -11 -45 5 -46 5 -58 -31 -7 -20 -18 -60 -23 -89 -12 -69 -40 -131 -84 -189 -44 -57 -84 -84 -125 -84 -35 0 -50 23 -50 74 0 29 -5 38 -29 50 -19 10 -40 39 -66 91 -30 61 -44 79 -76 95 -48 25 -62 46 -90 140 -42 138 -26 229 44 254 37 14 159 -10 202 -40 43 -29 45 -29 45 -5 0 34 16 31 55 -9 22 -22 45 -40 52 -40 14 0 18 16 5 22 -13 5 -68 118 -81 166 -18 63 1 144 43 190 31 33 35 34 79 28 26 -4 89 -28 140 -54 87 -45 93 -50 119 -102 14 -30 37 -62 51 -70 26 -16 97 -96 97 -110 0 -10 27 -21 58 -25 41 -6 68 -30 66 -61 -3 -50 -4 -53 -22 -58 -10 -4 -36 -23 -58 -44 -44 -42 -70 -56 -134 -71 l-45 -10 45 5 c55 6 120 33 120 50 0 7 8 15 18 18 10 4 35 21 55 40 29 27 37 41 37 69 0 30 -6 38 -36 56 -19 12 -46 21 -58 21 -17 0 -36 16 -65 55 -23 30 -53 62 -67 72 -14 9 -38 42 -54 74 -28 54 -34 59 -112 97 -84 41 -146 62 -183 62 -12 0 -38 -18 -59 -39z" transform="translate(0,116) scale(0.1,-0.1)" stroke="none" fill="#D29A5B"/>

<path d="M453 1057 c-41 -47 -59 -128 -42 -189 13 -48 68 -161 81 -166 13 -6 9 -22 -5 -22 -7 0 -30 18 -52 40 -39 40 -55 43 -55 9 0 -24 -2 -24 -45 5 -43 30 -165 54 -202 40 -70 -25 -86 -116 -44 -254 28 -94 42 -115 90 -140 32 -16 46 -34 76 -95 26 -52 47 -81 66 -91 24 -12 29 -21 29 -50 0 -51 15 -74 50 -74 82 0 184 133 209 273 5 29 16 69 23 89 12 36 13 37 55 31 33 -4 48 -2 63 12 10 9 23 14 28 11 12 -7 106 11 142 28 14 6 43 28 64 48 22 21 48 40 58 44 18 5 19 8 22 58 2 31 -25 55 -66 61 -31 4 -58 15 -58 25 0 14 -71 94 -97 110 -14 8 -37 40 -51 70 -26 53 -31 57 -122 103 -52 26 -115 50 -141 53 -42 6 -47 4 -76 -29z m136 -107 c9 -5 31 -14 49 -21 19 -7 41 -23 49 -36 16 -23 15 -25 -27 -61 -24 -20 -63 -57 -87 -81 -24 -24 -45 -42 -47 -40 -15 19 -39 106 -43 161 -7 83 4 103 55 93 19 -3 42 -10 51 -15z m247 -240 c44 -41 71 -49 91 -29 16 16 45 3 41 -17 -4 -22 -130 -63 -193 -64 -55 0 -155 40 -155 62 0 7 32 26 70 42 39 16 73 32 76 37 10 17 27 9 70 -31z m-532 -31 c6 -5 17 -9 26 -9 9 0 27 -11 40 -25 13 -14 29 -25 36 -25 10 0 44 -41 44 -55 0 -3 -16 -5 -35 -5 -43 0 -110 -32 -125 -60 -14 -26 -61 -27 -76 -2 -17 26 -47 169 -40 187 4 12 17 14 63 9 32 -4 62 -10 67 -15z m206 -109 c0 -5 -7 -10 -15 -10 -8 0 -15 5 -15 10 0 6 7 10 15 10 8 0 15 -4 15 -10z m-12 -167 c-3 -75 -7 -94 -31 -130 -15 -24 -27 -53 -27 -67 0 -25 -23 -51 -38 -42 -13 8 -25 64 -22 104 1 18 -5 44 -14 57 -9 13 -16 30 -16 36 0 18 116 129 135 129 15 0 17 -11 13 -87z" transform="translate(0,116) scale(0.1,-0.1)" stroke="none" fill="#903F12"/>

</g>

<g id="4" transform="translate(448.0,0)scale(1,1)">

<path d="M490 956 c-16 -21 -8 -137 13 -187 9 -19 16 -28 16 -21 1 7 -3 21 -8 30 -13 27 -22 155 -11 172 17 26 180 -40 180 -73 0 -11 -140 -147 -152 -147 -4 0 -8 -4 -8 -10 0 -18 12 -11 55 33 23 23 61 59 85 79 42 36 43 38 27 61 -8 13 -30 29 -49 36 -18 7 -40 16 -49 21 -37 19 -85 22 -99 6z" transform="translate(0,116) scale(0.1,-0.1)" stroke="none" fill="#D29A5B"/>

<path d="M174 685 c-7 -18 23 -161 40 -187 6 -10 14 -18 19 -18 4 0 0 11 -8 24 -9 13 -20 48 -26 77 -5 30 -13 66 -16 81 l-5 27 53 -6 c30 -3 59 -9 64 -13 6 -4 21 -10 35 -13 14 -4 40 -21 59 -39 l34 -32 -53 -23 c-57 -25 -131 -83 -106 -83 9 0 20 9 26 20 15 28 82 60 125 60 19 0 35 2 35 5 0 14 -34 55 -44 55 -7 0 -23 11 -36 25 -13 14 -31 25 -40 25 -9 0 -20 4 -26 9 -5 5 -35 11 -67 15 -46 5 -59 3 -63 -9z" transform="translate(0,116) scale(0.1,-0.1)" stroke="none" fill="#D29A5B"/>

<path d="M409 431 c-32 -32 -59 -63 -59 -70 0 -6 7 -23 16 -36 9 -13 15 -39 14 -57 -3 -40 9 -96 22 -104 15 -9 38 17 38 42 0 14 12 43 27 67 24 36 28 55 31 130 5 109 -5 112 -89 28z m79 -36 c-4 -54 -12 -85 -31 -120 -15 -26 -27 -56 -27 -66 0 -18 -17 -35 -26 -26 -3 3 -7 29 -8 59 -2 30 -11 68 -20 86 -9 17 -16 33 -16 35 0 12 115 115 123 110 5 -3 7 -38 5 -78z" transform="translate(0,116) scale(0.1,-0.1)" stroke="none" fill="#D29A5B"/>

<path d="M766 741 c-3 -5 -37 -21 -76 -37 -38 -16 -70 -35 -70 -42 0 -22 100 -62 155 -62 63 1 189 42 193 64 4 20 -25 33 -41 17 -20 -20 -47 -12 -91 29 -43 40 -60 48 -70 31z m65 -41 c40 -41 82 -53 107 -28 6 6 15 9 19 5 11 -12 -8 -23 -76 -46 -94 -31 -166 -26 -229 15 l-25 17 38 18 c21 11 44 19 51 19 6 0 22 9 35 20 13 10 28 19 33 20 4 0 26 -18 47 -40z" transform="translate(0,116) scale(0.1,-0.1)" stroke="none" fill="#D29A5B"/>

<path d="M446 1061 c-31 -31 -41 -51 -47 -93 -11 -66 5 -148 39 -201 29 -44 22 -62 -9 -24 -24 32 -45 35 -54 7 -6 -19 -7 -19 -45 1 -57 30 -170 46 -209 30 -65 -28 -85 -111 -53 -226 38 -135 51 -157 120 -190 19 -9 32 -23 32 -34 0 -10 7 -24 14 -31 8 -6 23 -32 32 -56 11 -29 27 -50 46 -60 23 -12 28 -21 28 -52 1 -50 19 -72 62 -72 39 0 109 45 129 82 6 13 20 32 30 43 9 11 29 53 42 93 25 76 37 97 37 69 0 -9 5 -17 11 -17 7 0 10 22 7 61 l-3 62 75 -6 c66 -6 73 -5 56 8 -10 7 -15 18 -11 24 10 17 -11 13 -26 -5 -10 -12 -24 -15 -59 -11 -45 5 -46 5 -58 -31 -7 -20 -18 -60 -23 -89 -12 -69 -40 -131 -84 -189 -44 -57 -84 -84 -125 -84 -35 0 -50 23 -50 74 0 29 -5 38 -29 50 -19 10 -40 39 -66 91 -30 61 -44 79 -76 95 -48 25 -62 46 -90 140 -42 138 -26 229 44 254 37 14 159 -10 202 -40 43 -29 45 -29 45 -5 0 34 16 31 55 -9 22 -22 45 -40 52 -40 14 0 18 16 5 22 -13 5 -68 118 -81 166 -18 63 1 144 43 190 31 33 35 34 79 28 26 -4 89 -28 140 -54 87 -45 93 -50 119 -102 14 -30 37 -62 51 -70 26 -16 97 -96 97 -110 0 -10 27 -21 58 -25 41 -6 68 -30 66 -61 -3 -50 -4 -53 -22 -58 -10 -4 -36 -23 -58 -44 -44 -42 -70 -56 -134 -71 l-45 -10 45 5 c55 6 120 33 120 50 0 7 8 15 18 18 10 4 35 21 55 40 29 27 37 41 37 69 0 30 -6 38 -36 56 -19 12 -46 21 -58 21 -17 0 -36 16 -65 55 -23 30 -53 62 -67 72 -14 9 -38 42 -54 74 -28 54 -34 59 -112 97 -84 41 -146 62 -183 62 -12 0 -38 -18 -59 -39z" transform="translate(0,116) scale(0.1,-0.1)" stroke="none" fill="#D29A5B"/>

<path d="M453 1057 c-41 -47 -59 -128 -42 -189 13 -48 68 -161 81 -166 13 -6 9 -22 -5 -22 -7 0 -30 18 -52 40 -39 40 -55 43 -55 9 0 -24 -2 -24 -45 5 -43 30 -165 54 -202 40 -70 -25 -86 -116 -44 -254 28 -94 42 -115 90 -140 32 -16 46 -34 76 -95 26 -52 47 -81 66 -91 24 -12 29 -21 29 -50 0 -51 15 -74 50 -74 82 0 184 133 209 273 5 29 16 69 23 89 12 36 13 37 55 31 33 -4 48 -2 63 12 10 9 23 14 28 11 12 -7 106 11 142 28 14 6 43 28 64 48 22 21 48 40 58 44 18 5 19 8 22 58 2 31 -25 55 -66 61 -31 4 -58 15 -58 25 0 14 -71 94 -97 110 -14 8 -37 40 -51 70 -26 53 -31 57 -122 103 -52 26 -115 50 -141 53 -42 6 -47 4 -76 -29z m136 -107 c9 -5 31 -14 49 -21 19 -7 41 -23 49 -36 16 -23 15 -25 -27 -61 -24 -20 -63 -57 -87 -81 -24 -24 -45 -42 -47 -40 -15 19 -39 106 -43 161 -7 83 4 103 55 93 19 -3 42 -10 51 -15z m247 -240 c44 -41 71 -49 91 -29 16 16 45 3 41 -17 -4 -22 -130 -63 -193 -64 -55 0 -155 40 -155 62 0 7 32 26 70 42 39 16 73 32 76 37 10 17 27 9 70 -31z m-532 -31 c6 -5 17 -9 26 -9 9 0 27 -11 40 -25 13 -14 29 -25 36 -25 10 0 44 -41 44 -55 0 -3 -16 -5 -35 -5 -43 0 -110 -32 -125 -60 -14 -26 -61 -27 -76 -2 -17 26 -47 169 -40 187 4 12 17 14 63 9 32 -4 62 -10 67 -15z m206 -109 c0 -5 -7 -10 -15 -10 -8 0 -15 5 -15 10 0 6 7 10 15 10 8 0 15 -4 15 -10z m-12 -167 c-3 -75 -7 -94 -31 -130 -15 -24 -27 -53 -27 -67 0 -25 -23 -51 -38 -42 -13 8 -25 64 -22 104 1 18 -5 44 -14 57 -9 13 -16 30 -16 36 0 18 116 129 135 129 15 0 17 -11 13 -87z" transform="translate(0,116) scale(0.1,-0.1)" stroke="none" fill="#903F12"/>

</g>

</g>
<g id="row3" transform="translate(-42,348.0)">
<g id="0" transform="translate(0.0,0)scale(1,1)">

<path d="M490 956 c-16 -21 -8 -137 13 -187 9 -19 16 -28 16 -21 1 7 -3 21 -8 30 -13 27 -22 155 -11 172 17 26 180 -40 180 -73 0 -11 -140 -147 -152 -147 -4 0 -8 -4 -8 -10 0 -18 12 -11 55 33 23 23 61 59 85 79 42 36 43 38 27 61 -8 13 -30 29 -49 36 -18 7 -40 16 -49 21 -37 19 -85 22 -99 6z" transform="translate(0,116) scale(0.1,-0.1)" stroke="none" fill="#D29A5B"/>

<path d="M174 685 c-7 -18 23 -161 40 -187 6 -10 14 -18 19 -18 4 0 0 11 -8 24 -9 13 -20 48 -26 77 -5 30 -13 66 -16 81 l-5 27 53 -6 c30 -3 59 -9 64 -13 6 -4 21 -10 35 -13 14 -4 40 -21 59 -39 l34 -32 -53 -23 c-57 -25 -131 -83 -106 -83 9 0 20 9 26 20 15 28 82 60 125 60 19 0 35 2 35 5 0 14 -34 55 -44 55 -7 0 -23 11 -36 25 -13 14 -31 25 -40 25 -9 0 -20 4 -26 9 -5 5 -35 11 -67 15 -46 5 -59 3 -63 -9z" transform="translate(0,116) scale(0.1,-0.1)" stroke="none" fill="#D29A5B"/>

<path d="M409 431 c-32 -32 -59 -63 -59 -70 0 -6 7 -23 16 -36 9 -13 15 -39 14 -57 -3 -40 9 -96 22 -104 15 -9 38 17 38 42 0 14 12 43 27 67 24 36 28 55 31 130 5 109 -5 112 -89 28z m79 -36 c-4 -54 -12 -85 -31 -120 -15 -26 -27 -56 -27 -66 0 -18 -17 -35 -26 -26 -3 3 -7 29 -8 59 -2 30 -11 68 -20 86 -9 17 -16 33 -16 35 0 12 115 115 123 110 5 -3 7 -38 5 -78z" transform="translate(0,116) scale(0.1,-0.1)" stroke="none" fill="#D29A5B"/>

<path d="M766 741 c-3 -5 -37 -21 -76 -37 -38 -16 -70 -35 -70 -42 0 -22 100 -62 155 -62 63 1 189 42 193 64 4 20 -25 33 -41 17 -20 -20 -47 -12 -91 29 -43 40 -60 48 -70 31z m65 -41 c40 -41 82 -53 107 -28 6 6 15 9 19 5 11 -12 -8 -23 -76 -46 -94 -31 -166 -26 -229 15 l-25 17 38 18 c21 11 44 19 51 19 6 0 22 9 35 20 13 10 28 19 33 20 4 0 26 -18 47 -40z" transform="translate(0,116) scale(0.1,-0.1)" stroke="none" fill="#D29A5B"/>

<path d="M446 1061 c-31 -31 -41 -51 -47 -93 -11 -66 5 -148 39 -201 29 -44 22 -62 -9 -24 -24 32 -45 35 -54 7 -6 -19 -7 -19 -45 1 -57 30 -170 46 -209 30 -65 -28 -85 -111 -53 -226 38 -135 51 -157 120 -190 19 -9 32 -23 32 -34 0 -10 7 -24 14 -31 8 -6 23 -32 32 -56 11 -29 27 -50 46 -60 23 -12 28 -21 28 -52 1 -50 19 -72 62 -72 39 0 109 45 129 82 6 13 20 32 30 43 9 11 29 53 42 93 25 76 37 97 37 69 0 -9 5 -17 11 -17 7 0 10 22 7 61 l-3 62 75 -6 c66 -6 73 -5 56 8 -10 7 -15 18 -11 24 10 17 -11 13 -26 -5 -10 -12 -24 -15 -59 -11 -45 5 -46 5 -58 -31 -7 -20 -18 -60 -23 -89 -12 -69 -40 -131 -84 -189 -44 -57 -84 -84 -125 -84 -35 0 -50 23 -50 74 0 29 -5 38 -29 50 -19 10 -40 39 -66 91 -30 61 -44 79 -76 95 -48 25 -62 46 -90 140 -42 138 -26 229 44 254 37 14 159 -10 202 -40 43 -29 45 -29 45 -5 0 34 16 31 55 -9 22 -22 45 -40 52 -40 14 0 18 16 5 22 -13 5 -68 118 -81 166 -18 63 1 144 43 190 31 33 35 34 79 28 26 -4 89 -28 140 -54 87 -45 93 -50 119 -102 14 -30 37 -62 51 -70 26 -16 97 -96 97 -110 0 -10 27 -21 58 -25 41 -6 68 -30 66 -61 -3 -50 -4 -53 -22 -58 -10 -4 -36 -23 -58 -44 -44 -42 -70 -56 -134 -71 l-45 -10 45 5 c55 6 120 33 120 50 0 7 8 15 18 18 10 4 35 21 55 40 29 27 37 41 37 69 0 30 -6 38 -36 56 -19 12 -46 21 -58 21 -17 0 -36 16 -65 55 -23 30 -53 62 -67 72 -14 9 -38 42 -54 74 -28 54 -34 59 -112 97 -84 41 -146 62 -183 62 -12 0 -38 -18 -59 -39z" transform="translate(0,116) scale(0.1,-0.1)" stroke="none" fill="#D29A5B"/>

<path d="M453 1057 c-41 -47 -59 -128 -42 -189 13 -48 68 -161 81 -166 13 -6 9 -22 -5 -22 -7 0 -30 18 -52 40 -39 40 -55 43 -55 9 0 -24 -2 -24 -45 5 -43 30 -165 54 -202 40 -70 -25 -86 -116 -44 -254 28 -94 42 -115 90 -140 32 -16 46 -34 76 -95 26 -52 47 -81 66 -91 24 -12 29 -21 29 -50 0 -51 15 -74 50 -74 82 0 184 133 209 273 5 29 16 69 23 89 12 36 13 37 55 31 33 -4 48 -2 63 12 10 9 23 14 28 11 12 -7 106 11 142 28 14 6 43 28 64 48 22 21 48 40 58 44 18 5 19 8 22 58 2 31 -25 55 -66 61 -31 4 -58 15 -58 25 0 14 -71 94 -97 110 -14 8 -37 40 -51 70 -26 53 -31 57 -122 103 -52 26 -115 50 -141 53 -42 6 -47 4 -76 -29z m136 -107 c9 -5 31 -14 49 -21 19 -7 41 -23 49 -36 16 -23 15 -25 -27 -61 -24 -20 -63 -57 -87 -81 -24 -24 -45 -42 -47 -40 -15 19 -39 106 -43 161 -7 83 4 103 55 93 19 -3 42 -10 51 -15z m247 -240 c44 -41 71 -49 91 -29 16 16 45 3 41 -17 -4 -22 -130 -63 -193 -64 -55 0 -155 40 -155 62 0 7 32 26 70 42 39 16 73 32 76 37 10 17 27 9 70 -31z m-532 -31 c6 -5 17 -9 26 -9 9 0 27 -11 40 -25 13 -14 29 -25 36 -25 10 0 44 -41 44 -55 0 -3 -16 -5 -35 -5 -43 0 -110 -32 -125 -60 -14 -26 -61 -27 -76 -2 -17 26 -47 169 -40 187 4 12 17 14 63 9 32 -4 62 -10 67 -15z m206 -109 c0 -5 -7 -10 -15 -10 -8 0 -15 5 -15 10 0 6 7 10 15 10 8 0 15 -4 15 -10z m-12 -167 c-3 -75 -7 -94 -31 -130 -15 -24 -27 -53 -27 -67 0 -25 -23 -51 -38 -42 -13 8 -25 64 -22 104 1 18 -5 44 -14 57 -9 13 -16 30 -16 36 0 18 116 129 135 129 15 0 17 -11 13 -87z" transform="translate(0,116) scale(0.1,-0.1)" stroke="none" fill="#903F12"/>

</g>

<g id="1" transform="translate(112.0,0)scale(1,1)">

<path d="M490 956 c-16 -21 -8 -137 13 -187 9 -19 16 -28 16 -21 1 7 -3 21 -8 30 -13 27 -22 155 -11 172 17 26 180 -40 180 -73 0 -11 -140 -147 -152 -147 -4 0 -8 -4 -8 -10 0 -18 12 -11 55 33 23 23 61 59 85 79 42 36 43 38 27 61 -8 13 -30 29 -49 36 -18 7 -40 16 -49 21 -37 19 -85 22 -99 6z" transform="translate(0,116) scale(0.1,-0.1)" stroke="none" fill="#D29A5B"/>

<path d="M174 685 c-7 -18 23 -161 40 -187 6 -10 14 -18 19 -18 4 0 0 11 -8 24 -9 13 -20 48 -26 77 -5 30 -13 66 -16 81 l-5 27 53 -6 c30 -3 59 -9 64 -13 6 -4 21 -10 35 -13 14 -4 40 -21 59 -39 l34 -32 -53 -23 c-57 -25 -131 -83 -106 -83 9 0 20 9 26 20 15 28 82 60 125 60 19 0 35 2 35 5 0 14 -34 55 -44 55 -7 0 -23 11 -36 25 -13 14 -31 25 -40 25 -9 0 -20 4 -26 9 -5 5 -35 11 -67 15 -46 5 -59 3 -63 -9z" transform="translate(0,116) scale(0.1,-0.1)" stroke="none" fill="#D29A5B"/>

<path d="M409 431 c-32 -32 -59 -63 -59 -70 0 -6 7 -23 16 -36 9 -13 15 -39 14 -57 -3 -40 9 -96 22 -104 15 -9 38 17 38 42 0 14 12 43 27 67 24 36 28 55 31 130 5 109 -5 112 -89 28z m79 -36 c-4 -54 -12 -85 -31 -120 -15 -26 -27 -56 -27 -66 0 -18 -17 -35 -26 -26 -3 3 -7 29 -8 59 -2 30 -11 68 -20 86 -9 17 -16 33 -16 35 0 12 115 115 123 110 5 -3 7 -38 5 -78z" transform="translate(0,116) scale(0.1,-0.1)" stroke="none" fill="#D29A5B"/>

<path d="M766 741 c-3 -5 -37 -21 -76 -37 -38 -16 -70 -35 -70 -42 0 -22 100 -62 155 -62 63 1 189 42 193 64 4 20 -25 33 -41 17 -20 -20 -47 -12 -91 29 -43 40 -60 48 -70 31z m65 -41 c40 -41 82 -53 107 -28 6 6 15 9 19 5 11 -12 -8 -23 -76 -46 -94 -31 -166 -26 -229 15 l-25 17 38 18 c21 11 44 19 51 19 6 0 22 9 35 20 13 10 28 19 33 20 4 0 26 -18 47 -40z" transform="translate(0,116) scale(0.1,-0.1)" stroke="none" fill="#D29A5B"/>

<path d="M446 1061 c-31 -31 -41 -51 -47 -93 -11 -66 5 -148 39 -201 29 -44 22 -62 -9 -24 -24 32 -45 35 -54 7 -6 -19 -7 -19 -45 1 -57 30 -170 46 -209 30 -65 -28 -85 -111 -53 -226 38 -135 51 -157 120 -190 19 -9 32 -23 32 -34 0 -10 7 -24 14 -31 8 -6 23 -32 32 -56 11 -29 27 -50 46 -60 23 -12 28 -21 28 -52 1 -50 19 -72 62 -72 39 0 109 45 129 82 6 13 20 32 30 43 9 11 29 53 42 93 25 76 37 97 37 69 0 -9 5 -17 11 -17 7 0 10 22 7 61 l-3 62 75 -6 c66 -6 73 -5 56 8 -10 7 -15 18 -11 24 10 17 -11 13 -26 -5 -10 -12 -24 -15 -59 -11 -45 5 -46 5 -58 -31 -7 -20 -18 -60 -23 -89 -12 -69 -40 -131 -84 -189 -44 -57 -84 -84 -125 -84 -35 0 -50 23 -50 74 0 29 -5 38 -29 50 -19 10 -40 39 -66 91 -30 61 -44 79 -76 95 -48 25 -62 46 -90 140 -42 138 -26 229 44 254 37 14 159 -10 202 -40 43 -29 45 -29 45 -5 0 34 16 31 55 -9 22 -22 45 -40 52 -40 14 0 18 16 5 22 -13 5 -68 118 -81 166 -18 63 1 144 43 190 31 33 35 34 79 28 26 -4 89 -28 140 -54 87 -45 93 -50 119 -102 14 -30 37 -62 51 -70 26 -16 97 -96 97 -110 0 -10 27 -21 58 -25 41 -6 68 -30 66 -61 -3 -50 -4 -53 -22 -58 -10 -4 -36 -23 -58 -44 -44 -42 -70 -56 -134 -71 l-45 -10 45 5 c55 6 120 33 120 50 0 7 8 15 18 18 10 4 35 21 55 40 29 27 37 41 37 69 0 30 -6 38 -36 56 -19 12 -46 21 -58 21 -17 0 -36 16 -65 55 -23 30 -53 62 -67 72 -14 9 -38 42 -54 74 -28 54 -34 59 -112 97 -84 41 -146 62 -183 62 -12 0 -38 -18 -59 -39z" transform="translate(0,116) scale(0.1,-0.1)" stroke="none" fill="#D29A5B"/>

<path d="M453 1057 c-41 -47 -59 -128 -42 -189 13 -48 68 -161 81 -166 13 -6 9 -22 -5 -22 -7 0 -30 18 -52 40 -39 40 -55 43 -55 9 0 -24 -2 -24 -45 5 -43 30 -165 54 -202 40 -70 -25 -86 -116 -44 -254 28 -94 42 -115 90 -140 32 -16 46 -34 76 -95 26 -52 47 -81 66 -91 24 -12 29 -21 29 -50 0 -51 15 -74 50 -74 82 0 184 133 209 273 5 29 16 69 23 89 12 36 13 37 55 31 33 -4 48 -2 63 12 10 9 23 14 28 11 12 -7 106 11 142 28 14 6 43 28 64 48 22 21 48 40 58 44 18 5 19 8 22 58 2 31 -25 55 -66 61 -31 4 -58 15 -58 25 0 14 -71 94 -97 110 -14 8 -37 40 -51 70 -26 53 -31 57 -122 103 -52 26 -115 50 -141 53 -42 6 -47 4 -76 -29z m136 -107 c9 -5 31 -14 49 -21 19 -7 41 -23 49 -36 16 -23 15 -25 -27 -61 -24 -20 -63 -57 -87 -81 -24 -24 -45 -42 -47 -40 -15 19 -39 106 -43 161 -7 83 4 103 55 93 19 -3 42 -10 51 -15z m247 -240 c44 -41 71 -49 91 -29 16 16 45 3 41 -17 -4 -22 -130 -63 -193 -64 -55 0 -155 40 -155 62 0 7 32 26 70 42 39 16 73 32 76 37 10 17 27 9 70 -31z m-532 -31 c6 -5 17 -9 26 -9 9 0 27 -11 40 -25 13 -14 29 -25 36 -25 10 0 44 -41 44 -55 0 -3 -16 -5 -35 -5 -43 0 -110 -32 -125 -60 -14 -26 -61 -27 -76 -2 -17 26 -47 169 -40 187 4 12 17 14 63 9 32 -4 62 -10 67 -15z m206 -109 c0 -5 -7 -10 -15 -10 -8 0 -15 5 -15 10 0 6 7 10 15 10 8 0 15 -4 15 -10z m-12 -167 c-3 -75 -7 -94 -31 -130 -15 -24 -27 -53 -27 -67 0 -25 -23 -51 -38 -42 -13 8 -25 64 -22 104 1 18 -5 44 -14 57 -9 13 -16 30 -16 36 0 18 116 129 135 129 15 0 17 -11 13 -87z" transform="translate(0,116) scale(0.1,-0.1)" stroke="none" fill="#903F12"/>

</g>

<g id="2" transform="translate(224.0,0)scale(1,1)">

<path d="M490 956 c-16 -21 -8 -137 13 -187 9 -19 16 -28 16 -21 1 7 -3 21 -8 30 -13 27 -22 155 -11 172 17 26 180 -40 180 -73 0 -11 -140 -147 -152 -147 -4 0 -8 -4 -8 -10 0 -18 12 -11 55 33 23 23 61 59 85 79 42 36 43 38 27 61 -8 13 -30 29 -49 36 -18 7 -40 16 -49 21 -37 19 -85 22 -99 6z" transform="translate(0,116) scale(0.1,-0.1)" stroke="none" fill="#D29A5B"/>

<path d="M174 685 c-7 -18 23 -161 40 -187 6 -10 14 -18 19 -18 4 0 0 11 -8 24 -9 13 -20 48 -26 77 -5 30 -13 66 -16 81 l-5 27 53 -6 c30 -3 59 -9 64 -13 6 -4 21 -10 35 -13 14 -4 40 -21 59 -39 l34 -32 -53 -23 c-57 -25 -131 -83 -106 -83 9 0 20 9 26 20 15 28 82 60 125 60 19 0 35 2 35 5 0 14 -34 55 -44 55 -7 0 -23 11 -36 25 -13 14 -31 25 -40 25 -9 0 -20 4 -26 9 -5 5 -35 11 -67 15 -46 5 -59 3 -63 -9z" transform="translate(0,116) scale(0.1,-0.1)" stroke="none" fill="#D29A5B"/>

<path d="M409 431 c-32 -32 -59 -63 -59 -70 0 -6 7 -23 16 -36 9 -13 15 -39 14 -57 -3 -40 9 -96 22 -104 15 -9 38 17 38 42 0 14 12 43 27 67 24 36 28 55 31 130 5 109 -5 112 -89 28z m79 -36 c-4 -54 -12 -85 -31 -120 -15 -26 -27 -56 -27 -66 0 -18 -17 -35 -26 -26 -3 3 -7 29 -8 59 -2 30 -11 68 -20 86 -9 17 -16 33 -16 35 0 12 115 115 123 110 5 -3 7 -38 5 -78z" transform="translate(0,116) scale(0.1,-0.1)" stroke="none" fill="#D29A5B"/>

<path d="M766 741 c-3 -5 -37 -21 -76 -37 -38 -16 -70 -35 -70 -42 0 -22 100 -62 155 -62 63 1 189 42 193 64 4 20 -25 33 -41 17 -20 -20 -47 -12 -91 29 -43 40 -60 48 -70 31z m65 -41 c40 -41 82 -53 107 -28 6 6 15 9 19 5 11 -12 -8 -23 -76 -46 -94 -31 -166 -26 -229 15 l-25 17 38 18 c21 11 44 19 51 19 6 0 22 9 35 20 13 10 28 19 33 20 4 0 26 -18 47 -40z" transform="translate(0,116) scale(0.1,-0.1)" stroke="none" fill="#D29A5B"/>

<path d="M446 1061 c-31 -31 -41 -51 -47 -93 -11 -66 5 -148 39 -201 29 -44 22 -62 -9 -24 -24 32 -45 35 -54 7 -6 -19 -7 -19 -45 1 -57 30 -170 46 -209 30 -65 -28 -85 -111 -53 -226 38 -135 51 -157 120 -190 19 -9 32 -23 32 -34 0 -10 7 -24 14 -31 8 -6 23 -32 32 -56 11 -29 27 -50 46 -60 23 -12 28 -21 28 -52 1 -50 19 -72 62 -72 39 0 109 45 129 82 6 13 20 32 30 43 9 11 29 53 42 93 25 76 37 97 37 69 0 -9 5 -17 11 -17 7 0 10 22 7 61 l-3 62 75 -6 c66 -6 73 -5 56 8 -10 7 -15 18 -11 24 10 17 -11 13 -26 -5 -10 -12 -24 -15 -59 -11 -45 5 -46 5 -58 -31 -7 -20 -18 -60 -23 -89 -12 -69 -40 -131 -84 -189 -44 -57 -84 -84 -125 -84 -35 0 -50 23 -50 74 0 29 -5 38 -29 50 -19 10 -40 39 -66 91 -30 61 -44 79 -76 95 -48 25 -62 46 -90 140 -42 138 -26 229 44 254 37 14 159 -10 202 -40 43 -29 45 -29 45 -5 0 34 16 31 55 -9 22 -22 45 -40 52 -40 14 0 18 16 5 22 -13 5 -68 118 -81 166 -18 63 1 144 43 190 31 33 35 34 79 28 26 -4 89 -28 140 -54 87 -45 93 -50 119 -102 14 -30 37 -62 51 -70 26 -16 97 -96 97 -110 0 -10 27 -21 58 -25 41 -6 68 -30 66 -61 -3 -50 -4 -53 -22 -58 -10 -4 -36 -23 -58 -44 -44 -42 -70 -56 -134 -71 l-45 -10 45 5 c55 6 120 33 120 50 0 7 8 15 18 18 10 4 35 21 55 40 29 27 37 41 37 69 0 30 -6 38 -36 56 -19 12 -46 21 -58 21 -17 0 -36 16 -65 55 -23 30 -53 62 -67 72 -14 9 -38 42 -54 74 -28 54 -34 59 -112 97 -84 41 -146 62 -183 62 -12 0 -38 -18 -59 -39z" transform="translate(0,116) scale(0.1,-0.1)" stroke="none" fill="#D29A5B"/>

<path d="M453 1057 c-41 -47 -59 -128 -42 -189 13 -48 68 -161 81 -166 13 -6 9 -22 -5 -22 -7 0 -30 18 -52 40 -39 40 -55 43 -55 9 0 -24 -2 -24 -45 5 -43 30 -165 54 -202 40 -70 -25 -86 -116 -44 -254 28 -94 42 -115 90 -140 32 -16 46 -34 76 -95 26 -52 47 -81 66 -91 24 -12 29 -21 29 -50 0 -51 15 -74 50 -74 82 0 184 133 209 273 5 29 16 69 23 89 12 36 13 37 55 31 33 -4 48 -2 63 12 10 9 23 14 28 11 12 -7 106 11 142 28 14 6 43 28 64 48 22 21 48 40 58 44 18 5 19 8 22 58 2 31 -25 55 -66 61 -31 4 -58 15 -58 25 0 14 -71 94 -97 110 -14 8 -37 40 -51 70 -26 53 -31 57 -122 103 -52 26 -115 50 -141 53 -42 6 -47 4 -76 -29z m136 -107 c9 -5 31 -14 49 -21 19 -7 41 -23 49 -36 16 -23 15 -25 -27 -61 -24 -20 -63 -57 -87 -81 -24 -24 -45 -42 -47 -40 -15 19 -39 106 -43 161 -7 83 4 103 55 93 19 -3 42 -10 51 -15z m247 -240 c44 -41 71 -49 91 -29 16 16 45 3 41 -17 -4 -22 -130 -63 -193 -64 -55 0 -155 40 -155 62 0 7 32 26 70 42 39 16 73 32 76 37 10 17 27 9 70 -31z m-532 -31 c6 -5 17 -9 26 -9 9 0 27 -11 40 -25 13 -14 29 -25 36 -25 10 0 44 -41 44 -55 0 -3 -16 -5 -35 -5 -43 0 -110 -32 -125 -60 -14 -26 -61 -27 -76 -2 -17 26 -47 169 -40 187 4 12 17 14 63 9 32 -4 62 -10 67 -15z m206 -109 c0 -5 -7 -10 -15 -10 -8 0 -15 5 -15 10 0 6 7 10 15 10 8 0 15 -4 15 -10z m-12 -167 c-3 -75 -7 -94 -31 -130 -15 -24 -27 -53 -27 -67 0 -25 -23 -51 -38 -42 -13 8 -25 64 -22 104 1 18 -5 44 -14 57 -9 13 -16 30 -16 36 0 18 116 129 135 129 15 0 17 -11 13 -87z" transform="translate(0,116) scale(0.1,-0.1)" stroke="none" fill="#903F12"/>

</g>

<g id="3" transform="translate(336.0,0)scale(1,1)">

<path d="M490 956 c-16 -21 -8 -137 13 -187 9 -19 16 -28 16 -21 1 7 -3 21 -8 30 -13 27 -22 155 -11 172 17 26 180 -40 180 -73 0 -11 -140 -147 -152 -147 -4 0 -8 -4 -8 -10 0 -18 12 -11 55 33 23 23 61 59 85 79 42 36 43 38 27 61 -8 13 -30 29 -49 36 -18 7 -40 16 -49 21 -37 19 -85 22 -99 6z" transform="translate(0,116) scale(0.1,-0.1)" stroke="none" fill="#D29A5B"/>

<path d="M174 685 c-7 -18 23 -161 40 -187 6 -10 14 -18 19 -18 4 0 0 11 -8 24 -9 13 -20 48 -26 77 -5 30 -13 66 -16 81 l-5 27 53 -6 c30 -3 59 -9 64 -13 6 -4 21 -10 35 -13 14 -4 40 -21 59 -39 l34 -32 -53 -23 c-57 -25 -131 -83 -106 -83 9 0 20 9 26 20 15 28 82 60 125 60 19 0 35 2 35 5 0 14 -34 55 -44 55 -7 0 -23 11 -36 25 -13 14 -31 25 -40 25 -9 0 -20 4 -26 9 -5 5 -35 11 -67 15 -46 5 -59 3 -63 -9z" transform="translate(0,116) scale(0.1,-0.1)" stroke="none" fill="#D29A5B"/>

<path d="M409 431 c-32 -32 -59 -63 -59 -70 0 -6 7 -23 16 -36 9 -13 15 -39 14 -57 -3 -40 9 -96 22 -104 15 -9 38 17 38 42 0 14 12 43 27 67 24 36 28 55 31 130 5 109 -5 112 -89 28z m79 -36 c-4 -54 -12 -85 -31 -120 -15 -26 -27 -56 -27 -66 0 -18 -17 -35 -26 -26 -3 3 -7 29 -8 59 -2 30 -11 68 -20 86 -9 17 -16 33 -16 35 0 12 115 115 123 110 5 -3 7 -38 5 -78z" transform="translate(0,116) scale(0.1,-0.1)" stroke="none" fill="#D29A5B"/>

<path d="M766 741 c-3 -5 -37 -21 -76 -37 -38 -16 -70 -35 -70 -42 0 -22 100 -62 155 -62 63 1 189 42 193 64 4 20 -25 33 -41 17 -20 -20 -47 -12 -91 29 -43 40 -60 48 -70 31z m65 -41 c40 -41 82 -53 107 -28 6 6 15 9 19 5 11 -12 -8 -23 -76 -46 -94 -31 -166 -26 -229 15 l-25 17 38 18 c21 11 44 19 51 19 6 0 22 9 35 20 13 10 28 19 33 20 4 0 26 -18 47 -40z" transform="translate(0,116) scale(0.1,-0.1)" stroke="none" fill="#D29A5B"/>

<path d="M446 1061 c-31 -31 -41 -51 -47 -93 -11 -66 5 -148 39 -201 29 -44 22 -62 -9 -24 -24 32 -45 35 -54 7 -6 -19 -7 -19 -45 1 -57 30 -170 46 -209 30 -65 -28 -85 -111 -53 -226 38 -135 51 -157 120 -190 19 -9 32 -23 32 -34 0 -10 7 -24 14 -31 8 -6 23 -32 32 -56 11 -29 27 -50 46 -60 23 -12 28 -21 28 -52 1 -50 19 -72 62 -72 39 0 109 45 129 82 6 13 20 32 30 43 9 11 29 53 42 93 25 76 37 97 37 69 0 -9 5 -17 11 -17 7 0 10 22 7 61 l-3 62 75 -6 c66 -6 73 -5 56 8 -10 7 -15 18 -11 24 10 17 -11 13 -26 -5 -10 -12 -24 -15 -59 -11 -45 5 -46 5 -58 -31 -7 -20 -18 -60 -23 -89 -12 -69 -40 -131 -84 -189 -44 -57 -84 -84 -125 -84 -35 0 -50 23 -50 74 0 29 -5 38 -29 50 -19 10 -40 39 -66 91 -30 61 -44 79 -76 95 -48 25 -62 46 -90 140 -42 138 -26 229 44 254 37 14 159 -10 202 -40 43 -29 45 -29 45 -5 0 34 16 31 55 -9 22 -22 45 -40 52 -40 14 0 18 16 5 22 -13 5 -68 118 -81 166 -18 63 1 144 43 190 31 33 35 34 79 28 26 -4 89 -28 140 -54 87 -45 93 -50 119 -102 14 -30 37 -62 51 -70 26 -16 97 -96 97 -110 0 -10 27 -21 58 -25 41 -6 68 -30 66 -61 -3 -50 -4 -53 -22 -58 -10 -4 -36 -23 -58 -44 -44 -42 -70 -56 -134 -71 l-45 -10 45 5 c55 6 120 33 120 50 0 7 8 15 18 18 10 4 35 21 55 40 29 27 37 41 37 69 0 30 -6 38 -36 56 -19 12 -46 21 -58 21 -17 0 -36 16 -65 55 -23 30 -53 62 -67 72 -14 9 -38 42 -54 74 -28 54 -34 59 -112 97 -84 41 -146 62 -183 62 -12 0 -38 -18 -59 -39z" transform="translate(0,116) scale(0.1,-0.1)" stroke="none" fill="#D29A5B"/>

<path d="M453 1057 c-41 -47 -59 -128 -42 -189 13 -48 68 -161 81 -166 13 -6 9 -22 -5 -22 -7 0 -30 18 -52 40 -39 40 -55 43 -55 9 0 -24 -2 -24 -45 5 -43 30 -165 54 -202 40 -70 -25 -86 -116 -44 -254 28 -94 42 -115 90 -140 32 -16 46 -34 76 -95 26 -52 47 -81 66 -91 24 -12 29 -21 29 -50 0 -51 15 -74 50 -74 82 0 184 133 209 273 5 29 16 69 23 89 12 36 13 37 55 31 33 -4 48 -2 63 12 10 9 23 14 28 11 12 -7 106 11 142 28 14 6 43 28 64 48 22 21 48 40 58 44 18 5 19 8 22 58 2 31 -25 55 -66 61 -31 4 -58 15 -58 25 0 14 -71 94 -97 110 -14 8 -37 40 -51 70 -26 53 -31 57 -122 103 -52 26 -115 50 -141 53 -42 6 -47 4 -76 -29z m136 -107 c9 -5 31 -14 49 -21 19 -7 41 -23 49 -36 16 -23 15 -25 -27 -61 -24 -20 -63 -57 -87 -81 -24 -24 -45 -42 -47 -40 -15 19 -39 106 -43 161 -7 83 4 103 55 93 19 -3 42 -10 51 -15z m247 -240 c44 -41 71 -49 91 -29 16 16 45 3 41 -17 -4 -22 -130 -63 -193 -64 -55 0 -155 40 -155 62 0 7 32 26 70 42 39 16 73 32 76 37 10 17 27 9 70 -31z m-532 -31 c6 -5 17 -9 26 -9 9 0 27 -11 40 -25 13 -14 29 -25 36 -25 10 0 44 -41 44 -55 0 -3 -16 -5 -35 -5 -43 0 -110 -32 -125 -60 -14 -26 -61 -27 -76 -2 -17 26 -47 169 -40 187 4 12 17 14 63 9 32 -4 62 -10 67 -15z m206 -109 c0 -5 -7 -10 -15 -10 -8 0 -15 5 -15 10 0 6 7 10 15 10 8 0 15 -4 15 -10z m-12 -167 c-3 -75 -7 -94 -31 -130 -15 -24 -27 -53 -27 -67 0 -25 -23 -51 -38 -42 -13 8 -25 64 -22 104 1 18 -5 44 -14 57 -9 13 -16 30 -16 36 0 18 116 129 135 129 15 0 17 -11 13 -87z" transform="translate(0,116) scale(0.1,-0.1)" stroke="none" fill="#903F12"/>

</g>

<g id="4" transform="translate(448.0,0)scale(1,1)">

<path d="M490 956 c-16 -21 -8 -137 13 -187 9 -19 16 -28 16 -21 1 7 -3 21 -8 30 -13 27 -22 155 -11 172 17 26 180 -40 180 -73 0 -11 -140 -147 -152 -147 -4 0 -8 -4 -8 -10 0 -18 12 -11 55 33 23 23 61 59 85 79 42 36 43 38 27 61 -8 13 -30 29 -49 36 -18 7 -40 16 -49 21 -37 19 -85 22 -99 6z" transform="translate(0,116) scale(0.1,-0.1)" stroke="none" fill="#D29A5B"/>

<path d="M174 685 c-7 -18 23 -161 40 -187 6 -10 14 -18 19 -18 4 0 0 11 -8 24 -9 13 -20 48 -26 77 -5 30 -13 66 -16 81 l-5 27 53 -6 c30 -3 59 -9 64 -13 6 -4 21 -10 35 -13 14 -4 40 -21 59 -39 l34 -32 -53 -23 c-57 -25 -131 -83 -106 -83 9 0 20 9 26 20 15 28 82 60 125 60 19 0 35 2 35 5 0 14 -34 55 -44 55 -7 0 -23 11 -36 25 -13 14 -31 25 -40 25 -9 0 -20 4 -26 9 -5 5 -35 11 -67 15 -46 5 -59 3 -63 -9z" transform="translate(0,116) scale(0.1,-0.1)" stroke="none" fill="#D29A5B"/>

<path d="M409 431 c-32 -32 -59 -63 -59 -70 0 -6 7 -23 16 -36 9 -13 15 -39 14 -57 -3 -40 9 -96 22 -104 15 -9 38 17 38 42 0 14 12 43 27 67 24 36 28 55 31 130 5 109 -5 112 -89 28z m79 -36 c-4 -54 -12 -85 -31 -120 -15 -26 -27 -56 -27 -66 0 -18 -17 -35 -26 -26 -3 3 -7 29 -8 59 -2 30 -11 68 -20 86 -9 17 -16 33 -16 35 0 12 115 115 123 110 5 -3 7 -38 5 -78z" transform="translate(0,116) scale(0.1,-0.1)" stroke="none" fill="#D29A5B"/>

<path d="M766 741 c-3 -5 -37 -21 -76 -37 -38 -16 -70 -35 -70 -42 0 -22 100 -62 155 -62 63 1 189 42 193 64 4 20 -25 33 -41 17 -20 -20 -47 -12 -91 29 -43 40 -60 48 -70 31z m65 -41 c40 -41 82 -53 107 -28 6 6 15 9 19 5 11 -12 -8 -23 -76 -46 -94 -31 -166 -26 -229 15 l-25 17 38 18 c21 11 44 19 51 19 6 0 22 9 35 20 13 10 28 19 33 20 4 0 26 -18 47 -40z" transform="translate(0,116) scale(0.1,-0.1)" stroke="none" fill="#D29A5B"/>

<path d="M446 1061 c-31 -31 -41 -51 -47 -93 -11 -66 5 -148 39 -201 29 -44 22 -62 -9 -24 -24 32 -45 35 -54 7 -6 -19 -7 -19 -45 1 -57 30 -170 46 -209 30 -65 -28 -85 -111 -53 -226 38 -135 51 -157 120 -190 19 -9 32 -23 32 -34 0 -10 7 -24 14 -31 8 -6 23 -32 32 -56 11 -29 27 -50 46 -60 23 -12 28 -21 28 -52 1 -50 19 -72 62 -72 39 0 109 45 129 82 6 13 20 32 30 43 9 11 29 53 42 93 25 76 37 97 37 69 0 -9 5 -17 11 -17 7 0 10 22 7 61 l-3 62 75 -6 c66 -6 73 -5 56 8 -10 7 -15 18 -11 24 10 17 -11 13 -26 -5 -10 -12 -24 -15 -59 -11 -45 5 -46 5 -58 -31 -7 -20 -18 -60 -23 -89 -12 -69 -40 -131 -84 -189 -44 -57 -84 -84 -125 -84 -35 0 -50 23 -50 74 0 29 -5 38 -29 50 -19 10 -40 39 -66 91 -30 61 -44 79 -76 95 -48 25 -62 46 -90 140 -42 138 -26 229 44 254 37 14 159 -10 202 -40 43 -29 45 -29 45 -5 0 34 16 31 55 -9 22 -22 45 -40 52 -40 14 0 18 16 5 22 -13 5 -68 118 -81 166 -18 63 1 144 43 190 31 33 35 34 79 28 26 -4 89 -28 140 -54 87 -45 93 -50 119 -102 14 -30 37 -62 51 -70 26 -16 97 -96 97 -110 0 -10 27 -21 58 -25 41 -6 68 -30 66 -61 -3 -50 -4 -53 -22 -58 -10 -4 -36 -23 -58 -44 -44 -42 -70 -56 -134 -71 l-45 -10 45 5 c55 6 120 33 120 50 0 7 8 15 18 18 10 4 35 21 55 40 29 27 37 41 37 69 0 30 -6 38 -36 56 -19 12 -46 21 -58 21 -17 0 -36 16 -65 55 -23 30 -53 62 -67 72 -14 9 -38 42 -54 74 -28 54 -34 59 -112 97 -84 41 -146 62 -183 62 -12 0 -38 -18 -59 -39z" transform="translate(0,116) scale(0.1,-0.1)" stroke="none" fill="#D29A5B"/>

<path d="M453 1057 c-41 -47 -59 -128 -42 -189 13 -48 68 -161 81 -166 13 -6 9 -22 -5 -22 -7 0 -30 18 -52 40 -39 40 -55 43 -55 9 0 -24 -2 -24 -45 5 -43 30 -165 54 -202 40 -70 -25 -86 -116 -44 -254 28 -94 42 -115 90 -140 32 -16 46 -34 76 -95 26 -52 47 -81 66 -91 24 -12 29 -21 29 -50 0 -51 15 -74 50 -74 82 0 184 133 209 273 5 29 16 69 23 89 12 36 13 37 55 31 33 -4 48 -2 63 12 10 9 23 14 28 11 12 -7 106 11 142 28 14 6 43 28 64 48 22 21 48 40 58 44 18 5 19 8 22 58 2 31 -25 55 -66 61 -31 4 -58 15 -58 25 0 14 -71 94 -97 110 -14 8 -37 40 -51 70 -26 53 -31 57 -122 103 -52 26 -115 50 -141 53 -42 6 -47 4 -76 -29z m136 -107 c9 -5 31 -14 49 -21 19 -7 41 -23 49 -36 16 -23 15 -25 -27 -61 -24 -20 -63 -57 -87 -81 -24 -24 -45 -42 -47 -40 -15 19 -39 106 -43 161 -7 83 4 103 55 93 19 -3 42 -10 51 -15z m247 -240 c44 -41 71 -49 91 -29 16 16 45 3 41 -17 -4 -22 -130 -63 -193 -64 -55 0 -155 40 -155 62 0 7 32 26 70 42 39 16 73 32 76 37 10 17 27 9 70 -31z m-532 -31 c6 -5 17 -9 26 -9 9 0 27 -11 40 -25 13 -14 29 -25 36 -25 10 0 44 -41 44 -55 0 -3 -16 -5 -35 -5 -43 0 -110 -32 -125 -60 -14 -26 -61 -27 -76 -2 -17 26 -47 169 -40 187 4 12 17 14 63 9 32 -4 62 -10 67 -15z m206 -109 c0 -5 -7 -10 -15 -10 -8 0 -15 5 -15 10 0 6 7 10 15 10 8 0 15 -4 15 -10z m-12 -167 c-3 -75 -7 -94 -31 -130 -15 -24 -27 -53 -27 -67 0 -25 -23 -51 -38 -42 -13 8 -25 64 -22 104 1 18 -5 44 -14 57 -9 13 -16 30 -16 36 0 18 116 129 135 129 15 0 17 -11 13 -87z" transform="translate(0,116) scale(0.1,-0.1)" stroke="none" fill="#903F12"/>

</g>

</g>
</svg>