<?xml version="1.0" standalone="no"?>
<!DOCTYPE svg PUBLIC "-//W3C//DTD SVG 20010904//EN"
 "http://www.w3.org/TR/2001/REC-SVG-20010904/DTD/svg10.dtd">
<svg version="1.0" xmlns="http://www.w3.org/2000/svg" width="760pt" height="360pt" viewBox="0 0 760 360" preserveAspectRatio = "xMidYMid meet" >
<metadata>
Created by ZoeQu, written in 2022
</metadata>
<rect width="760" height="360" fill="#3D2527"/>
<g id="col0" transform="translate(0, 12)">
<g id="0" transform="translate(0,0.0)scale(0.8,0.8)">

<path d="M360 590 c0 -5 -9 -10 -20 -10 -11 0 -20 -4 -20 -10 0 -5 -9 -10 -20 -10 -11 0 -20 -4 -20 -10 0 -5 -8 -10 -18 -10 -19 0 -62 -42 -62 -60 0 -15 10 -12 60 15 141 77 163 86 213 79 39 -5 47 -3 47 10 0 13 -13 16 -80 16 -47 0 -80 -4 -80 -10z" transform="translate(0,90) scale(0.1,-0.1)" stroke="none" fill="#BF7537"/>

<path d="M955 635 c-14 -13 -25 -36 -25 -51 0 -38 40 -144 55 -144 28 0 49 41 53 103 3 52 0 66 -18 90 -26 33 -34 34 -65 2z" transform="translate(0,90) scale(0.1,-0.1)" stroke="none" fill="#BF7537"/>

<path d="M1260 353 c-62 -27 -65 -30 -68 -50 -4 -27 17 -42 78 -58 76 -20 140 9 140 65 0 21 -8 30 -38 43 -47 20 -66 21 -112 0z" transform="translate(0,90) scale(0.1,-0.1)" stroke="none" fill="#BF7537"/>

<path d="M535 354 c-36 -39 -33 -79 8 -105 27 -17 43 -20 105 -15 79 5 122 25 122 55 0 24 -24 43 -87 69 -72 30 -118 29 -148 -4z" transform="translate(0,90) scale(0.1,-0.1)" stroke="none" fill="#BF7537"/>

<path d="M880 870 c-14 -16 -33 -30 -42 -30 -10 0 -18 -4 -18 -10 0 -5 -13 -10 -28 -10 -16 0 -34 -8 -42 -20 -8 -11 -20 -20 -28 -20 -7 0 -24 -11 -38 -25 -21 -21 -25 -33 -22 -75 2 -28 8 -50 13 -50 6 1 9 12 7 26 -2 16 7 41 23 64 21 31 38 42 80 55 29 8 68 29 86 46 18 17 48 33 66 36 34 6 93 -12 93 -28 0 -18 41 -49 65 -49 15 0 41 -14 61 -33 49 -45 57 -109 23 -194 -13 -32 -27 -62 -31 -67 -13 -16 -9 -26 10 -26 28 0 42 21 42 62 0 21 5 38 10 38 6 0 10 9 10 20 0 11 5 20 10 20 6 0 10 27 10 60 0 33 -4 60 -10 60 -5 0 -10 9 -10 20 0 11 -4 20 -10 20 -5 0 -10 8 -10 18 0 29 -21 42 -66 42 -36 0 -48 6 -82 40 -36 37 -43 40 -93 40 -47 -1 -57 -4 -79 -30z" transform="translate(0,90) scale(0.1,-0.1)" stroke="none" fill="#BF7537"/>

<path d="M1525 490 c-3 -6 5 -14 19 -19 13 -6 38 -25 55 -44 21 -22 48 -38 81 -47 28 -8 56 -20 62 -27 6 -7 17 -13 24 -13 20 0 44 -53 44 -95 0 -45 -42 -89 -92 -99 -19 -3 -59 -28 -92 -57 -71 -60 -91 -69 -157 -69 -27 0 -49 -4 -49 -10 0 -6 46 -10 118 -10 l118 0 29 30 c16 16 33 30 39 30 5 0 18 7 27 16 10 9 47 31 81 48 l63 31 3 68 c3 65 -9 97 -35 97 -5 0 -22 14 -38 30 -16 17 -37 30 -47 30 -10 0 -18 5 -18 10 0 6 -13 10 -30 10 -16 0 -30 5 -30 10 0 6 -7 10 -15 10 -8 0 -28 14 -43 30 -16 17 -37 30 -46 30 -9 0 -16 5 -16 10 0 13 -47 13 -55 0z" transform="translate(0,90) scale(0.1,-0.1)" stroke="none" fill="#BF7537"/>

<path d="M140 470 c0 -5 -13 -10 -29 -10 -16 0 -31 -4 -33 -9 -1 -5 -19 -18 -38 -28 l-35 -20 0 -74 c0 -66 2 -75 22 -85 13 -6 31 -18 41 -27 10 -10 26 -17 35 -17 9 0 17 -4 17 -10 0 -5 6 -10 13 -10 15 0 67 -51 67 -65 0 -17 84 -95 102 -95 10 0 18 -4 18 -10 0 -6 50 -10 130 -10 80 0 130 4 130 10 0 6 18 10 40 10 22 0 40 5 40 10 0 6 9 10 20 10 11 0 20 5 20 10 0 6 7 10 15 10 16 0 145 125 145 141 0 16 -14 9 -45 -22 -49 -50 -111 -89 -203 -126 -75 -30 -95 -34 -152 -31 -80 5 -149 45 -196 117 -23 34 -47 55 -85 74 -84 41 -92 50 -97 111 -7 84 0 99 57 121 27 10 48 23 45 27 -7 12 -44 10 -44 -2z" transform="translate(0,90) scale(0.1,-0.1)" stroke="none" fill="#BF7537"/>

</g>

<g id="1" transform="translate(0,90.0)scale(0.8,0.8)">

<path d="M360 590 c0 -5 -9 -10 -20 -10 -11 0 -20 -4 -20 -10 0 -5 -9 -10 -20 -10 -11 0 -20 -4 -20 -10 0 -5 -8 -10 -18 -10 -19 0 -62 -42 -62 -60 0 -15 10 -12 60 15 141 77 163 86 213 79 39 -5 47 -3 47 10 0 13 -13 16 -80 16 -47 0 -80 -4 -80 -10z" transform="translate(0,90) scale(0.1,-0.1)" stroke="none" fill="#BF7537"/>

<path d="M955 635 c-14 -13 -25 -36 -25 -51 0 -38 40 -144 55 -144 28 0 49 41 53 103 3 52 0 66 -18 90 -26 33 -34 34 -65 2z" transform="translate(0,90) scale(0.1,-0.1)" stroke="none" fill="#BF7537"/>

<path d="M1260 353 c-62 -27 -65 -30 -68 -50 -4 -27 17 -42 78 -58 76 -20 140 9 140 65 0 21 -8 30 -38 43 -47 20 -66 21 -112 0z" transform="translate(0,90) scale(0.1,-0.1)" stroke="none" fill="#BF7537"/>

<path d="M535 354 c-36 -39 -33 -79 8 -105 27 -17 43 -20 105 -15 79 5 122 25 122 55 0 24 -24 43 -87 69 -72 30 -118 29 -148 -4z" transform="translate(0,90) scale(0.1,-0.1)" stroke="none" fill="#BF7537"/>

<path d="M880 870 c-14 -16 -33 -30 -42 -30 -10 0 -18 -4 -18 -10 0 -5 -13 -10 -28 -10 -16 0 -34 -8 -42 -20 -8 -11 -20 -20 -28 -20 -7 0 -24 -11 -38 -25 -21 -21 -25 -33 -22 -75 2 -28 8 -50 13 -50 6 1 9 12 7 26 -2 16 7 41 23 64 21 31 38 42 80 55 29 8 68 29 86 46 18 17 48 33 66 36 34 6 93 -12 93 -28 0 -18 41 -49 65 -49 15 0 41 -14 61 -33 49 -45 57 -109 23 -194 -13 -32 -27 -62 -31 -67 -13 -16 -9 -26 10 -26 28 0 42 21 42 62 0 21 5 38 10 38 6 0 10 9 10 20 0 11 5 20 10 20 6 0 10 27 10 60 0 33 -4 60 -10 60 -5 0 -10 9 -10 20 0 11 -4 20 -10 20 -5 0 -10 8 -10 18 0 29 -21 42 -66 42 -36 0 -48 6 -82 40 -36 37 -43 40 -93 40 -47 -1 -57 -4 -79 -30z" transform="translate(0,90) scale(0.1,-0.1)" stroke="none" fill="#BF7537"/>

<path d="M1525 490 c-3 -6 5 -14 19 -19 13 -6 38 -25 55 -44 21 -22 48 -38 81 -47 28 -8 56 -20 62 -27 6 -7 17 -13 24 -13 20 0 44 -53 44 -95 0 -45 -42 -89 -92 -99 -19 -3 -59 -28 -92 -57 -71 -60 -91 -69 -157 -69 -27 0 -49 -4 -49 -10 0 -6 46 -10 118 -10 l118 0 29 30 c16 16 33 30 39 30 5 0 18 7 27 16 10 9 47 31 81 48 l63 31 3 68 c3 65 -9 97 -35 97 -5 0 -22 14 -38 30 -16 17 -37 30 -47 30 -10 0 -18 5 -18 10 0 6 -13 10 -30 10 -16 0 -30 5 -30 10 0 6 -7 10 -15 10 -8 0 -28 14 -43 30 -16 17 -37 30 -46 30 -9 0 -16 5 -16 10 0 13 -47 13 -55 0z" transform="translate(0,90) scale(0.1,-0.1)" stroke="none" fill="#BF7537"/>

<path d="M140 470 c0 -5 -13 -10 -29 -10 -16 0 -31 -4 -33 -9 -1 -5 -19 -18 -38 -28 l-35 -20 0 -74 c0 -66 2 -75 22 -85 13 -6 31 -18 41 -27 10 -10 26 -17 35 -17 9 0 17 -4 17 -10 0 -5 6 -10 13 -10 15 0 67 -51 67 -65 0 -17 84 -95 102 -95 10 0 18 -4 18 -10 0 -6 50 -10 130 -10 80 0 130 4 130 10 0 6 18 10 40 10 22 0 40 5 40 10 0 6 9 10 20 10 11 0 20 5 20 10 0 6 7 10 15 10 16 0 145 125 145 141 0 16 -14 9 -45 -22 -49 -50 -111 -89 -203 -126 -75 -30 -95 -34 -152 -31 -80 5 -149 45 -196 117 -23 34 -47 55 -85 74 -84 41 -92 50 -97 111 -7 84 0 99 57 121 27 10 48 23 45 27 -7 12 -44 10 -44 -2z" transform="translate(0,90) scale(0.1,-0.1)" stroke="none" fill="#BF7537"/>

</g>

<g id="2" transform="translate(0,180.0)scale(0.8,0.8)">

<path d="M360 590 c0 -5 -9 -10 -20 -10 -11 0 -20 -4 -20 -10 0 -5 -9 -10 -20 -10 -11 0 -20 -4 -20 -10 0 -5 -8 -10 -18 -10 -19 0 -62 -42 -62 -60 0 -15 10 -12 60 15 141 77 163 86 213 79 39 -5 47 -3 47 10 0 13 -13 16 -80 16 -47 0 -80 -4 -80 -10z" transform="translate(0,90) scale(0.1,-0.1)" stroke="none" fill="#BF7537"/>

<path d="M955 635 c-14 -13 -25 -36 -25 -51 0 -38 40 -144 55 -144 28 0 49 41 53 103 3 52 0 66 -18 90 -26 33 -34 34 -65 2z" transform="translate(0,90) scale(0.1,-0.1)" stroke="none" fill="#BF7537"/>

<path d="M1260 353 c-62 -27 -65 -30 -68 -50 -4 -27 17 -42 78 -58 76 -20 140 9 140 65 0 21 -8 30 -38 43 -47 20 -66 21 -112 0z" transform="translate(0,90) scale(0.1,-0.1)" stroke="none" fill="#BF7537"/>

<path d="M535 354 c-36 -39 -33 -79 8 -105 27 -17 43 -20 105 -15 79 5 122 25 122 55 0 24 -24 43 -87 69 -72 30 -118 29 -148 -4z" transform="translate(0,90) scale(0.1,-0.1)" stroke="none" fill="#BF7537"/>

<path d="M880 870 c-14 -16 -33 -30 -42 -30 -10 0 -18 -4 -18 -10 0 -5 -13 -10 -28 -10 -16 0 -34 -8 -42 -20 -8 -11 -20 -20 -28 -20 -7 0 -24 -11 -38 -25 -21 -21 -25 -33 -22 -75 2 -28 8 -50 13 -50 6 1 9 12 7 26 -2 16 7 41 23 64 21 31 38 42 80 55 29 8 68 29 86 46 18 17 48 33 66 36 34 6 93 -12 93 -28 0 -18 41 -49 65 -49 15 0 41 -14 61 -33 49 -45 57 -109 23 -194 -13 -32 -27 -62 -31 -67 -13 -16 -9 -26 10 -26 28 0 42 21 42 62 0 21 5 38 10 38 6 0 10 9 10 20 0 11 5 20 10 20 6 0 10 27 10 60 0 33 -4 60 -10 60 -5 0 -10 9 -10 20 0 11 -4 20 -10 20 -5 0 -10 8 -10 18 0 29 -21 42 -66 42 -36 0 -48 6 -82 40 -36 37 -43 40 -93 40 -47 -1 -57 -4 -79 -30z" transform="translate(0,90) scale(0.1,-0.1)" stroke="none" fill="#BF7537"/>

<path d="M1525 490 c-3 -6 5 -14 19 -19 13 -6 38 -25 55 -44 21 -22 48 -38 81 -47 28 -8 56 -20 62 -27 6 -7 17 -13 24 -13 20 0 44 -53 44 -95 0 -45 -42 -89 -92 -99 -19 -3 -59 -28 -92 -57 -71 -60 -91 -69 -157 -69 -27 0 -49 -4 -49 -10 0 -6 46 -10 118 -10 l118 0 29 30 c16 16 33 30 39 30 5 0 18 7 27 16 10 9 47 31 81 48 l63 31 3 68 c3 65 -9 97 -35 97 -5 0 -22 14 -38 30 -16 17 -37 30 -47 30 -10 0 -18 5 -18 10 0 6 -13 10 -30 10 -16 0 -30 5 -30 10 0 6 -7 10 -15 10 -8 0 -28 14 -43 30 -16 17 -37 30 -46 30 -9 0 -16 5 -16 10 0 13 -47 13 -55 0z" transform="translate(0,90) scale(0.1,-0.1)" stroke="none" fill="#BF7537"/>

<path d="M140 470 c0 -5 -13 -10 -29 -10 -16 0 -31 -4 -33 -9 -1 -5 -19 -18 -38 -28 l-35 -20 0 -74 c0 -66 2 -75 22 -85 13 -6 31 -18 41 -27 10 -10 26 -17 35 -17 9 0 17 -4 17 -10 0 -5 6 -10 13 -10 15 0 67 -51 67 -65 0 -17 84 -95 102 -95 10 0 18 -4 18 -10 0 -6 50 -10 130 -10 80 0 130 4 130 10 0 6 18 10 40 10 22 0 40 5 40 10 0 6 9 10 20 10 11 0 20 5 20 10 0 6 7 10 15 10 16 0 145 125 145 141 0 16 -14 9 -45 -22 -49 -50 -111 -89 -203 -126 -75 -30 -95 -34 -152 -31 -80 5 -149 45 -196 117 -23 34 -47 55 -85 74 -84 41 -92 50 -97 111 -7 84 0 99 57 121 27 10 48 23 45 27 -7 12 -44 10 -44 -2z" transform="translate(0,90) scale(0.1,-0.1)" stroke="none" fill="#BF7537"/>

</g>

<g id="3" transform="translate(0,270.0)scale(0.8,0.8)">

<path d="M360 590 c0 -5 -9 -10 -20 -10 -11 0 -20 -4 -20 -10 0 -5 -9 -10 -20 -10 -11 0 -20 -4 -20 -10 0 -5 -8 -10 -18 -10 -19 0 -62 -42 -62 -60 0 -15 10 -12 60 15 141 77 163 86 213 79 39 -5 47 -3 47 10 0 13 -13 16 -80 16 -47 0 -80 -4 -80 -10z" transform="translate(0,90) scale(0.1,-0.1)" stroke="none" fill="#BF7537"/>

<path d="M955 635 c-14 -13 -25 -36 -25 -51 0 -38 40 -144 55 -144 28 0 49 41 53 103 3 52 0 66 -18 90 -26 33 -34 34 -65 2z" transform="translate(0,90) scale(0.1,-0.1)" stroke="none" fill="#BF7537"/>

<path d="M1260 353 c-62 -27 -65 -30 -68 -50 -4 -27 17 -42 78 -58 76 -20 140 9 140 65 0 21 -8 30 -38 43 -47 20 -66 21 -112 0z" transform="translate(0,90) scale(0.1,-0.1)" stroke="none" fill="#BF7537"/>

<path d="M535 354 c-36 -39 -33 -79 8 -105 27 -17 43 -20 105 -15 79 5 122 25 122 55 0 24 -24 43 -87 69 -72 30 -118 29 -148 -4z" transform="translate(0,90) scale(0.1,-0.1)" stroke="none" fill="#BF7537"/>

<path d="M880 870 c-14 -16 -33 -30 -42 -30 -10 0 -18 -4 -18 -10 0 -5 -13 -10 -28 -10 -16 0 -34 -8 -42 -20 -8 -11 -20 -20 -28 -20 -7 0 -24 -11 -38 -25 -21 -21 -25 -33 -22 -75 2 -28 8 -50 13 -50 6 1 9 12 7 26 -2 16 7 41 23 64 21 31 38 42 80 55 29 8 68 29 86 46 18 17 48 33 66 36 34 6 93 -12 93 -28 0 -18 41 -49 65 -49 15 0 41 -14 61 -33 49 -45 57 -109 23 -194 -13 -32 -27 -62 -31 -67 -13 -16 -9 -26 10 -26 28 0 42 21 42 62 0 21 5 38 10 38 6 0 10 9 10 20 0 11 5 20 10 20 6 0 10 27 10 60 0 33 -4 60 -10 60 -5 0 -10 9 -10 20 0 11 -4 20 -10 20 -5 0 -10 8 -10 18 0 29 -21 42 -66 42 -36 0 -48 6 -82 40 -36 37 -43 40 -93 40 -47 -1 -57 -4 -79 -30z" transform="translate(0,90) scale(0.1,-0.1)" stroke="none" fill="#BF7537"/>

<path d="M1525 490 c-3 -6 5 -14 19 -19 13 -6 38 -25 55 -44 21 -22 48 -38 81 -47 28 -8 56 -20 62 -27 6 -7 17 -13 24 -13 20 0 44 -53 44 -95 0 -45 -42 -89 -92 -99 -19 -3 -59 -28 -92 -57 -71 -60 -91 -69 -157 -69 -27 0 -49 -4 -49 -10 0 -6 46 -10 118 -10 l118 0 29 30 c16 16 33 30 39 30 5 0 18 7 27 16 10 9 47 31 81 48 l63 31 3 68 c3 65 -9 97 -35 97 -5 0 -22 14 -38 30 -16 17 -37 30 -47 30 -10 0 -18 5 -18 10 0 6 -13 10 -30 10 -16 0 -30 5 -30 10 0 6 -7 10 -15 10 -8 0 -28 14 -43 30 -16 17 -37 30 -46 30 -9 0 -16 5 -16 10 0 13 -47 13 -55 0z" transform="translate(0,90) scale(0.1,-0.1)" stroke="none" fill="#BF7537"/>

<path d="M140 470 c0 -5 -13 -10 -29 -10 -16 0 -31 -4 -33 -9 -1 -5 -19 -18 -38 -28 l-35 -20 0 -74 c0 -66 2 -75 22 -85 13 -6 31 -18 41 -27 10 -10 26 -17 35 -17 9 0 17 -4 17 -10 0 -5 6 -10 13 -10 15 0 67 -51 67 -65 0 -17 84 -95 102 -95 10 0 18 -4 18 -10 0 -6 50 -10 130 -10 80 0 130 4 130 10 0 6 18 10 40 10 22 0 40 5 40 10 0 6 9 10 20 10 11 0 20 5 20 10 0 6 7 10 15 10 16 0 145 125 145 141 0 16 -14 9 -45 -22 -49 -50 -111 -89 -203 -126 -75 -30 -95 -34 -152 -31 -80 5 -149 45 -196 117 -23 34 -47 55 -85 74 -84 41 -92 50 -97 111 -7 84 0 99 57 121 27 10 48 23 45 27 -7 12 -44 10 -44 -2z" transform="translate(0,90) scale(0.1,-0.1)" stroke="none" fill="#BF7537"/>

</g>

<g id="4" transform="translate(0,360.0)scale(0.8,0.8)">

<path d="M360 590 c0 -5 -9 -10 -20 -10 -11 0 -20 -4 -20 -10 0 -5 -9 -10 -20 -10 -11 0 -20 -4 -20 -10 0 -5 -8 -10 -18 -10 -19 0 -62 -42 -62 -60 0 -15 10 -12 60 15 141 77 163 86 213 79 39 -5 47 -3 47 10 0 13 -13 16 -80 16 -47 0 -80 -4 -80 -10z" transform="translate(0,90) scale(0.1,-0.1)" stroke="none" fill="#BF7537"/>

<path d="M955 635 c-14 -13 -25 -36 -25 -51 0 -38 40 -144 55 -144 28 0 49 41 53 103 3 52 0 66 -18 90 -26 33 -34 34 -65 2z" transform="translate(0,90) scale(0.1,-0.1)" stroke="none" fill="#BF7537"/>

<path d="M1260 353 c-62 -27 -65 -30 -68 -50 -4 -27 17 -42 78 -58 76 -20 140 9 140 65 0 21 -8 30 -38 43 -47 20 -66 21 -112 0z" transform="translate(0,90) scale(0.1,-0.1)" stroke="none" fill="#BF7537"/>

<path d="M535 354 c-36 -39 -33 -79 8 -105 27 -17 43 -20 105 -15 79 5 122 25 122 55 0 24 -24 43 -87 69 -72 30 -118 29 -148 -4z" transform="translate(0,90) scale(0.1,-0.1)" stroke="none" fill="#BF7537"/>

<path d="M880 870 c-14 -16 -33 -30 -42 -30 -10 0 -18 -4 -18 -10 0 -5 -13 -10 -28 -10 -16 0 -34 -8 -42 -20 -8 -11 -20 -20 -28 -20 -7 0 -24 -11 -38 -25 -21 -21 -25 -33 -22 -75 2 -28 8 -50 13 -50 6 1 9 12 7 26 -2 16 7 41 23 64 21 31 38 42 80 55 29 8 68 29 86 46 18 17 48 33 66 36 34 6 93 -12 93 -28 0 -18 41 -49 65 -49 15 0 41 -14 61 -33 49 -45 57 -109 23 -194 -13 -32 -27 -62 -31 -67 -13 -16 -9 -26 10 -26 28 0 42 21 42 62 0 21 5 38 10 38 6 0 10 9 10 20 0 11 5 20 10 20 6 0 10 27 10 60 0 33 -4 60 -10 60 -5 0 -10 9 -10 20 0 11 -4 20 -10 20 -5 0 -10 8 -10 18 0 29 -21 42 -66 42 -36 0 -48 6 -82 40 -36 37 -43 40 -93 40 -47 -1 -57 -4 -79 -30z" transform="translate(0,90) scale(0.1,-0.1)" stroke="none" fill="#BF7537"/>

<path d="M1525 490 c-3 -6 5 -14 19 -19 13 -6 38 -25 55 -44 21 -22 48 -38 81 -47 28 -8 56 -20 62 -27 6 -7 17 -13 24 -13 20 0 44 -53 44 -95 0 -45 -42 -89 -92 -99 -19 -3 -59 -28 -92 -57 -71 -60 -91 -69 -157 -69 -27 0 -49 -4 -49 -10 0 -6 46 -10 118 -10 l118 0 29 30 c16 16 33 30 39 30 5 0 18 7 27 16 10 9 47 31 81 48 l63 31 3 68 c3 65 -9 97 -35 97 -5 0 -22 14 -38 30 -16 17 -37 30 -47 30 -10 0 -18 5 -18 10 0 6 -13 10 -30 10 -16 0 -30 5 -30 10 0 6 -7 10 -15 10 -8 0 -28 14 -43 30 -16 17 -37 30 -46 30 -9 0 -16 5 -16 10 0 13 -47 13 -55 0z" transform="translate(0,90) scale(0.1,-0.1)" stroke="none" fill="#BF7537"/>

<path d="M140 470 c0 -5 -13 -10 -29 -10 -16 0 -31 -4 -33 -9 -1 -5 -19 -18 -38 -28 l-35 -20 0 -74 c0 -66 2 -75 22 -85 13 -6 31 -18 41 -27 10 -10 26 -17 35 -17 9 0 17 -4 17 -10 0 -5 6 -10 13 -10 15 0 67 -51 67 -65 0 -17 84 -95 102 -95 10 0 18 -4 18 -10 0 -6 50 -10 130 -10 80 0 130 4 130 10 0 6 18 10 40 10 22 0 40 5 40 10 0 6 9 10 20 10 11 0 20 5 20 10 0 6 7 10 15 10 16 0 145 125 145 141 0 16 -14 9 -45 -22 -49 -50 -111 -89 -203 -126 -75 -30 -95 -34 -152 -31 -80 5 -149 45 -196 117 -23 34 -47 55 -85 74 -84 41 -92 50 -97 111 -7 84 0 99 57 121 27 10 48 23 45 27 -7 12 -44 10 -44 -2z" transform="translate(0,90) scale(0.1,-0.1)" stroke="none" fill="#BF7537"/>

</g>

</g>
<g id="col1" transform="translate(190, -33.0)">
<g id="0" transform="translate(0,0.0)scale(0.8,0.8)">

<path d="M360 590 c0 -5 -9 -10 -20 -10 -11 0 -20 -4 -20 -10 0 -5 -9 -10 -20 -10 -11 0 -20 -4 -20 -10 0 -5 -8 -10 -18 -10 -19 0 -62 -42 -62 -60 0 -15 10 -12 60 15 141 77 163 86 213 79 39 -5 47 -3 47 10 0 13 -13 16 -80 16 -47 0 -80 -4 -80 -10z" transform="translate(0,90) scale(0.1,-0.1)" stroke="none" fill="#BF7537"/>

<path d="M955 635 c-14 -13 -25 -36 -25 -51 0 -38 40 -144 55 -144 28 0 49 41 53 103 3 52 0 66 -18 90 -26 33 -34 34 -65 2z" transform="translate(0,90) scale(0.1,-0.1)" stroke="none" fill="#BF7537"/>

<path d="M1260 353 c-62 -27 -65 -30 -68 -50 -4 -27 17 -42 78 -58 76 -20 140 9 140 65 0 21 -8 30 -38 43 -47 20 -66 21 -112 0z" transform="translate(0,90) scale(0.1,-0.1)" stroke="none" fill="#BF7537"/>

<path d="M535 354 c-36 -39 -33 -79 8 -105 27 -17 43 -20 105 -15 79 5 122 25 122 55 0 24 -24 43 -87 69 -72 30 -118 29 -148 -4z" transform="translate(0,90) scale(0.1,-0.1)" stroke="none" fill="#BF7537"/>

<path d="M880 870 c-14 -16 -33 -30 -42 -30 -10 0 -18 -4 -18 -10 0 -5 -13 -10 -28 -10 -16 0 -34 -8 -42 -20 -8 -11 -20 -20 -28 -20 -7 0 -24 -11 -38 -25 -21 -21 -25 -33 -22 -75 2 -28 8 -50 13 -50 6 1 9 12 7 26 -2 16 7 41 23 64 21 31 38 42 80 55 29 8 68 29 86 46 18 17 48 33 66 36 34 6 93 -12 93 -28 0 -18 41 -49 65 -49 15 0 41 -14 61 -33 49 -45 57 -109 23 -194 -13 -32 -27 -62 -31 -67 -13 -16 -9 -26 10 -26 28 0 42 21 42 62 0 21 5 38 10 38 6 0 10 9 10 20 0 11 5 20 10 20 6 0 10 27 10 60 0 33 -4 60 -10 60 -5 0 -10 9 -10 20 0 11 -4 20 -10 20 -5 0 -10 8 -10 18 0 29 -21 42 -66 42 -36 0 -48 6 -82 40 -36 37 -43 40 -93 40 -47 -1 -57 -4 -79 -30z" transform="translate(0,90) scale(0.1,-0.1)" stroke="none" fill="#BF7537"/>

<path d="M1525 490 c-3 -6 5 -14 19 -19 13 -6 38 -25 55 -44 21 -22 48 -38 81 -47 28 -8 56 -20 62 -27 6 -7 17 -13 24 -13 20 0 44 -53 44 -95 0 -45 -42 -89 -92 -99 -19 -3 -59 -28 -92 -57 -71 -60 -91 -69 -157 -69 -27 0 -49 -4 -49 -10 0 -6 46 -10 118 -10 l118 0 29 30 c16 16 33 30 39 30 5 0 18 7 27 16 10 9 47 31 81 48 l63 31 3 68 c3 65 -9 97 -35 97 -5 0 -22 14 -38 30 -16 17 -37 30 -47 30 -10 0 -18 5 -18 10 0 6 -13 10 -30 10 -16 0 -30 5 -30 10 0 6 -7 10 -15 10 -8 0 -28 14 -43 30 -16 17 -37 30 -46 30 -9 0 -16 5 -16 10 0 13 -47 13 -55 0z" transform="translate(0,90) scale(0.1,-0.1)" stroke="none" fill="#BF7537"/>

<path d="M140 470 c0 -5 -13 -10 -29 -10 -16 0 -31 -4 -33 -9 -1 -5 -19 -18 -38 -28 l-35 -20 0 -74 c0 -66 2 -75 22 -85 13 -6 31 -18 41 -27 10 -10 26 -17 35 -17 9 0 17 -4 17 -10 0 -5 6 -10 13 -10 15 0 67 -51 67 -65 0 -17 84 -95 102 -95 10 0 18 -4 18 -10 0 -6 50 -10 130 -10 80 0 130 4 130 10 0 6 18 10 40 10 22 0 40 5 40 10 0 6 9 10 20 10 11 0 20 5 20 10 0 6 7 10 15 10 16 0 145 125 145 141 0 16 -14 9 -45 -22 -49 -50 -111 -89 -203 -126 -75 -30 -95 -34 -152 -31 -80 5 -149 45 -196 117 -23 34 -47 55 -85 74 -84 41 -92 50 -97 111 -7 84 0 99 57 121 27 10 48 23 45 27 -7 12 -44 10 -44 -2z" transform="translate(0,90) scale(0.1,-0.1)" stroke="none" fill="#BF7537"/>

</g>

<g id="1" transform="translate(0,90.0)scale(0.8,0.8)">

<path d="M360 590 c0 -5 -9 -10 -20 -10 -11 0 -20 -4 -20 -10 0 -5 -9 -10 -20 -10 -11 0 -20 -4 -20 -10 0 -5 -8 -10 -18 -10 -19 0 -62 -42 -62 -60 0 -15 10 -12 60 15 141 77 163 86 213 79 39 -5 47 -3 47 10 0 13 -13 16 -80 16 -47 0 -80 -4 -80 -10z" transform="translate(0,90) scale(0.1,-0.1)" stroke="none" fill="#BF7537"/>

<path d="M955 635 c-14 -13 -25 -36 -25 -51 0 -38 40 -144 55 -144 28 0 49 41 53 103 3 52 0 66 -18 90 -26 33 -34 34 -65 2z" transform="translate(0,90) scale(0.1,-0.1)" stroke="none" fill="#BF7537"/>

<path d="M1260 353 c-62 -27 -65 -30 -68 -50 -4 -27 17 -42 78 -58 76 -20 140 9 140 65 0 21 -8 30 -38 43 -47 20 -66 21 -112 0z" transform="translate(0,90) scale(0.1,-0.1)" stroke="none" fill="#BF7537"/>

<path d="M535 354 c-36 -39 -33 -79 8 -105 27 -17 43 -20 105 -15 79 5 122 25 122 55 0 24 -24 43 -87 69 -72 30 -118 29 -148 -4z" transform="translate(0,90) scale(0.1,-0.1)" stroke="none" fill="#BF7537"/>

<path d="M880 870 c-14 -16 -33 -30 -42 -30 -10 0 -18 -4 -18 -10 0 -5 -13 -10 -28 -10 -16 0 -34 -8 -42 -20 -8 -11 -20 -20 -28 -20 -7 0 -24 -11 -38 -25 -21 -21 -25 -33 -22 -75 2 -28 8 -50 13 -50 6 1 9 12 7 26 -2 16 7 41 23 64 21 31 38 42 80 55 29 8 68 29 86 46 18 17 48 33 66 36 34 6 93 -12 93 -28 0 -18 41 -49 65 -49 15 0 41 -14 61 -33 49 -45 57 -109 23 -194 -13 -32 -27 -62 -31 -67 -13 -16 -9 -26 10 -26 28 0 42 21 42 62 0 21 5 38 10 38 6 0 10 9 10 20 0 11 5 20 10 20 6 0 10 27 10 60 0 33 -4 60 -10 60 -5 0 -10 9 -10 20 0 11 -4 20 -10 20 -5 0 -10 8 -10 18 0 29 -21 42 -66 42 -36 0 -48 6 -82 40 -36 37 -43 40 -93 40 -47 -1 -57 -4 -79 -30z" transform="translate(0,90) scale(0.1,-0.1)" stroke="none" fill="#BF7537"/>

<path d="M1525 490 c-3 -6 5 -14 19 -19 13 -6 38 -25 55 -44 21 -22 48 -38 81 -47 28 -8 56 -20 62 -27 6 -7 17 -13 24 -13 20 0 44 -53 44 -95 0 -45 -42 -89 -92 -99 -19 -3 -59 -28 -92 -57 -71 -60 -91 -69 -157 -69 -27 0 -49 -4 -49 -10 0 -6 46 -10 118 -10 l118 0 29 30 c16 16 33 30 39 30 5 0 18 7 27 16 10 9 47 31 81 48 l63 31 3 68 c3 65 -9 97 -35 97 -5 0 -22 14 -38 30 -16 17 -37 30 -47 30 -10 0 -18 5 -18 10 0 6 -13 10 -30 10 -16 0 -30 5 -30 10 0 6 -7 10 -15 10 -8 0 -28 14 -43 30 -16 17 -37 30 -46 30 -9 0 -16 5 -16 10 0 13 -47 13 -55 0z" transform="translate(0,90) scale(0.1,-0.1)" stroke="none" fill="#BF7537"/>

<path d="M140 470 c0 -5 -13 -10 -29 -10 -16 0 -31 -4 -33 -9 -1 -5 -19 -18 -38 -28 l-35 -20 0 -74 c0 -66 2 -75 22 -85 13 -6 31 -18 41 -27 10 -10 26 -17 35 -17 9 0 17 -4 17 -10 0 -5 6 -10 13 -10 15 0 67 -51 67 -65 0 -17 84 -95 102 -95 10 0 18 -4 18 -10 0 -6 50 -10 130 -10 80 0 130 4 130 10 0 6 18 10 40 10 22 0 40 5 40 10 0 6 9 10 20 10 11 0 20 5 20 10 0 6 7 10 15 10 16 0 145 125 145 141 0 16 -14 9 -45 -22 -49 -50 -111 -89 -203 -126 -75 -30 -95 -34 -152 -31 -80 5 -149 45 -196 117 -23 34 -47 55 -85 74 -84 41 -92 50 -97 111 -7 84 0 99 57 121 27 10 48 23 45 27 -7 12 -44 10 -44 -2z" transform="translate(0,90) scale(0.1,-0.1)" stroke="none" fill="#BF7537"/>

</g>

<g id="2" transform="translate(0,180.0)scale(0.8,0.8)">

<path d="M360 590 c0 -5 -9 -10 -20 -10 -11 0 -20 -4 -20 -10 0 -5 -9 -10 -20 -10 -11 0 -20 -4 -20 -10 0 -5 -8 -10 -18 -10 -19 0 -62 -42 -62 -60 0 -15 10 -12 60 15 141 77 163 86 213 79 39 -5 47 -3 47 10 0 13 -13 16 -80 16 -47 0 -80 -4 -80 -10z" transform="translate(0,90) scale(0.1,-0.1)" stroke="none" fill="#BF7537"/>

<path d="M955 635 c-14 -13 -25 -36 -25 -51 0 -38 40 -144 55 -144 28 0 49 41 53 103 3 52 0 66 -18 90 -26 33 -34 34 -65 2z" transform="translate(0,90) scale(0.1,-0.1)" stroke="none" fill="#BF7537"/>

<path d="M1260 353 c-62 -27 -65 -30 -68 -50 -4 -27 17 -42 78 -58 76 -20 140 9 140 65 0 21 -8 30 -38 43 -47 20 -66 21 -112 0z" transform="translate(0,90) scale(0.1,-0.1)" stroke="none" fill="#BF7537"/>

<path d="M535 354 c-36 -39 -33 -79 8 -105 27 -17 43 -20 105 -15 79 5 122 25 122 55 0 24 -24 43 -87 69 -72 30 -118 29 -148 -4z" transform="translate(0,90) scale(0.1,-0.1)" stroke="none" fill="#BF7537"/>

<path d="M880 870 c-14 -16 -33 -30 -42 -30 -10 0 -18 -4 -18 -10 0 -5 -13 -10 -28 -10 -16 0 -34 -8 -42 -20 -8 -11 -20 -20 -28 -20 -7 0 -24 -11 -38 -25 -21 -21 -25 -33 -22 -75 2 -28 8 -50 13 -50 6 1 9 12 7 26 -2 16 7 41 23 64 21 31 38 42 80 55 29 8 68 29 86 46 18 17 48 33 66 36 34 6 93 -12 93 -28 0 -18 41 -49 65 -49 15 0 41 -14 61 -33 49 -45 57 -109 23 -194 -13 -32 -27 -62 -31 -67 -13 -16 -9 -26 10 -26 28 0 42 21 42 62 0 21 5 38 10 38 6 0 10 9 10 20 0 11 5 20 10 20 6 0 10 27 10 60 0 33 -4 60 -10 60 -5 0 -10 9 -10 20 0 11 -4 20 -10 20 -5 0 -10 8 -10 18 0 29 -21 42 -66 42 -36 0 -48 6 -82 40 -36 37 -43 40 -93 40 -47 -1 -57 -4 -79 -30z" transform="translate(0,90) scale(0.1,-0.1)" stroke="none" fill="#BF7537"/>

<path d="M1525 490 c-3 -6 5 -14 19 -19 13 -6 38 -25 55 -44 21 -22 48 -38 81 -47 28 -8 56 -20 62 -27 6 -7 17 -13 24 -13 20 0 44 -53 44 -95 0 -45 -42 -89 -92 -99 -19 -3 -59 -28 -92 -57 -71 -60 -91 -69 -157 -69 -27 0 -49 -4 -49 -10 0 -6 46 -10 118 -10 l118 0 29 30 c16 16 33 30 39 30 5 0 18 7 27 16 10 9 47 31 81 48 l63 31 3 68 c3 65 -9 97 -35 97 -5 0 -22 14 -38 30 -16 17 -37 30 -47 30 -10 0 -18 5 -18 10 0 6 -13 10 -30 10 -16 0 -30 5 -30 10 0 6 -7 10 -15 10 -8 0 -28 14 -43 30 -16 17 -37 30 -46 30 -9 0 -16 5 -16 10 0 13 -47 13 -55 0z" transform="translate(0,90) scale(0.1,-0.1)" stroke="none" fill="#BF7537"/>

<path d="M140 470 c0 -5 -13 -10 -29 -10 -16 0 -31 -4 -33 -9 -1 -5 -19 -18 -38 -28 l-35 -20 0 -74 c0 -66 2 -75 22 -85 13 -6 31 -18 41 -27 10 -10 26 -17 35 -17 9 0 17 -4 17 -10 0 -5 6 -10 13 -10 15 0 67 -51 67 -65 0 -17 84 -95 102 -95 10 0 18 -4 18 -10 0 -6 50 -10 130 -10 80 0 130 4 130 10 0 6 18 10 40 10 22 0 40 5 40 10 0 6 9 10 20 10 11 0 20 5 20 10 0 6 7 10 15 10 16 0 145 125 145 141 0 16 -14 9 -45 -22 -49 -50 -111 -89 -203 -126 -75 -30 -95 -34 -152 -31 -80 5 -149 45 -196 117 -23 34 -47 55 -85 74 -84 41 -92 50 -97 111 -7 84 0 99 57 121 27 10 48 23 45 27 -7 12 -44 10 -44 -2z" transform="translate(0,90) scale(0.1,-0.1)" stroke="none" fill="#BF7537"/>

</g>

<g id="3" transform="translate(0,270.0)scale(0.8,0.8)">

<path d="M360 590 c0 -5 -9 -10 -20 -10 -11 0 -20 -4 -20 -10 0 -5 -9 -10 -20 -10 -11 0 -20 -4 -20 -10 0 -5 -8 -10 -18 -10 -19 0 -62 -42 -62 -60 0 -15 10 -12 60 15 141 77 163 86 213 79 39 -5 47 -3 47 10 0 13 -13 16 -80 16 -47 0 -80 -4 -80 -10z" transform="translate(0,90) scale(0.1,-0.1)" stroke="none" fill="#BF7537"/>

<path d="M955 635 c-14 -13 -25 -36 -25 -51 0 -38 40 -144 55 -144 28 0 49 41 53 103 3 52 0 66 -18 90 -26 33 -34 34 -65 2z" transform="translate(0,90) scale(0.1,-0.1)" stroke="none" fill="#BF7537"/>

<path d="M1260 353 c-62 -27 -65 -30 -68 -50 -4 -27 17 -42 78 -58 76 -20 140 9 140 65 0 21 -8 30 -38 43 -47 20 -66 21 -112 0z" transform="translate(0,90) scale(0.1,-0.1)" stroke="none" fill="#BF7537"/>

<path d="M535 354 c-36 -39 -33 -79 8 -105 27 -17 43 -20 105 -15 79 5 122 25 122 55 0 24 -24 43 -87 69 -72 30 -118 29 -148 -4z" transform="translate(0,90) scale(0.1,-0.1)" stroke="none" fill="#BF7537"/>

<path d="M880 870 c-14 -16 -33 -30 -42 -30 -10 0 -18 -4 -18 -10 0 -5 -13 -10 -28 -10 -16 0 -34 -8 -42 -20 -8 -11 -20 -20 -28 -20 -7 0 -24 -11 -38 -25 -21 -21 -25 -33 -22 -75 2 -28 8 -50 13 -50 6 1 9 12 7 26 -2 16 7 41 23 64 21 31 38 42 80 55 29 8 68 29 86 46 18 17 48 33 66 36 34 6 93 -12 93 -28 0 -18 41 -49 65 -49 15 0 41 -14 61 -33 49 -45 57 -109 23 -194 -13 -32 -27 -62 -31 -67 -13 -16 -9 -26 10 -26 28 0 42 21 42 62 0 21 5 38 10 38 6 0 10 9 10 20 0 11 5 20 10 20 6 0 10 27 10 60 0 33 -4 60 -10 60 -5 0 -10 9 -10 20 0 11 -4 20 -10 20 -5 0 -10 8 -10 18 0 29 -21 42 -66 42 -36 0 -48 6 -82 40 -36 37 -43 40 -93 40 -47 -1 -57 -4 -79 -30z" transform="translate(0,90) scale(0.1,-0.1)" stroke="none" fill="#BF7537"/>

<path d="M1525 490 c-3 -6 5 -14 19 -19 13 -6 38 -25 55 -44 21 -22 48 -38 81 -47 28 -8 56 -20 62 -27 6 -7 17 -13 24 -13 20 0 44 -53 44 -95 0 -45 -42 -89 -92 -99 -19 -3 -59 -28 -92 -57 -71 -60 -91 -69 -157 -69 -27 0 -49 -4 -49 -10 0 -6 46 -10 118 -10 l118 0 29 30 c16 16 33 30 39 30 5 0 18 7 27 16 10 9 47 31 81 48 l63 31 3 68 c3 65 -9 97 -35 97 -5 0 -22 14 -38 30 -16 17 -37 30 -47 30 -10 0 -18 5 -18 10 0 6 -13 10 -30 10 -16 0 -30 5 -30 10 0 6 -7 10 -15 10 -8 0 -28 14 -43 30 -16 17 -37 30 -46 30 -9 0 -16 5 -16 10 0 13 -47 13 -55 0z" transform="translate(0,90) scale(0.1,-0.1)" stroke="none" fill="#BF7537"/>

<path d="M140 470 c0 -5 -13 -10 -29 -10 -16 0 -31 -4 -33 -9 -1 -5 -19 -18 -38 -28 l-35 -20 0 -74 c0 -66 2 -75 22 -85 13 -6 31 -18 41 -27 10 -10 26 -17 35 -17 9 0 17 -4 17 -10 0 -5 6 -10 13 -10 15 0 67 -51 67 -65 0 -17 84 -95 102 -95 10 0 18 -4 18 -10 0 -6 50 -10 130 -10 80 0 130 4 130 10 0 6 18 10 40 10 22 0 40 5 40 10 0 6 9 10 20 10 11 0 20 5 20 10 0 6 7 10 15 10 16 0 145 125 145 141 0 16 -14 9 -45 -22 -49 -50 -111 -89 -203 -126 -75 -30 -95 -34 -152 -31 -80 5 -149 45 -196 117 -23 34 -47 55 -85 74 -84 41 -92 50 -97 111 -7 84 0 99 57 121 27 10 48 23 45 27 -7 12 -44 10 -44 -2z" transform="translate(0,90) scale(0.1,-0.1)" stroke="none" fill="#BF7537"/>

</g>

<g id="4" transform="translate(0,360.0)scale(0.8,0.8)">

<path d="M360 590 c0 -5 -9 -10 -20 -10 -11 0 -20 -4 -20 -10 0 -5 -9 -10 -20 -10 -11 0 -20 -4 -20 -10 0 -5 -8 -10 -18 -10 -19 0 -62 -42 -62 -60 0 -15 10 -12 60 15 141 77 163 86 213 79 39 -5 47 -3 47 10 0 13 -13 16 -80 16 -47 0 -80 -4 -80 -10z" transform="translate(0,90) scale(0.1,-0.1)" stroke="none" fill="#BF7537"/>

<path d="M955 635 c-14 -13 -25 -36 -25 -51 0 -38 40 -144 55 -144 28 0 49 41 53 103 3 52 0 66 -18 90 -26 33 -34 34 -65 2z" transform="translate(0,90) scale(0.1,-0.1)" stroke="none" fill="#BF7537"/>

<path d="M1260 353 c-62 -27 -65 -30 -68 -50 -4 -27 17 -42 78 -58 76 -20 140 9 140 65 0 21 -8 30 -38 43 -47 20 -66 21 -112 0z" transform="translate(0,90) scale(0.1,-0.1)" stroke="none" fill="#BF7537"/>

<path d="M535 354 c-36 -39 -33 -79 8 -105 27 -17 43 -20 105 -15 79 5 122 25 122 55 0 24 -24 43 -87 69 -72 30 -118 29 -148 -4z" transform="translate(0,90) scale(0.1,-0.1)" stroke="none" fill="#BF7537"/>

<path d="M880 870 c-14 -16 -33 -30 -42 -30 -10 0 -18 -4 -18 -10 0 -5 -13 -10 -28 -10 -16 0 -34 -8 -42 -20 -8 -11 -20 -20 -28 -20 -7 0 -24 -11 -38 -25 -21 -21 -25 -33 -22 -75 2 -28 8 -50 13 -50 6 1 9 12 7 26 -2 16 7 41 23 64 21 31 38 42 80 55 29 8 68 29 86 46 18 17 48 33 66 36 34 6 93 -12 93 -28 0 -18 41 -49 65 -49 15 0 41 -14 61 -33 49 -45 57 -109 23 -194 -13 -32 -27 -62 -31 -67 -13 -16 -9 -26 10 -26 28 0 42 21 42 62 0 21 5 38 10 38 6 0 10 9 10 20 0 11 5 20 10 20 6 0 10 27 10 60 0 33 -4 60 -10 60 -5 0 -10 9 -10 20 0 11 -4 20 -10 20 -5 0 -10 8 -10 18 0 29 -21 42 -66 42 -36 0 -48 6 -82 40 -36 37 -43 40 -93 40 -47 -1 -57 -4 -79 -30z" transform="translate(0,90) scale(0.1,-0.1)" stroke="none" fill="#BF7537"/>

<path d="M1525 490 c-3 -6 5 -14 19 -19 13 -6 38 -25 55 -44 21 -22 48 -38 81 -47 28 -8 56 -20 62 -27 6 -7 17 -13 24 -13 20 0 44 -53 44 -95 0 -45 -42 -89 -92 -99 -19 -3 -59 -28 -92 -57 -71 -60 -91 -69 -157 -69 -27 0 -49 -4 -49 -10 0 -6 46 -10 118 -10 l118 0 29 30 c16 16 33 30 39 30 5 0 18 7 27 16 10 9 47 31 81 48 l63 31 3 68 c3 65 -9 97 -35 97 -5 0 -22 14 -38 30 -16 17 -37 30 -47 30 -10 0 -18 5 -18 10 0 6 -13 10 -30 10 -16 0 -30 5 -30 10 0 6 -7 10 -15 10 -8 0 -28 14 -43 30 -16 17 -37 30 -46 30 -9 0 -16 5 -16 10 0 13 -47 13 -55 0z" transform="translate(0,90) scale(0.1,-0.1)" stroke="none" fill="#BF7537"/>

<path d="M140 470 c0 -5 -13 -10 -29 -10 -16 0 -31 -4 -33 -9 -1 -5 -19 -18 -38 -28 l-35 -20 0 -74 c0 -66 2 -75 22 -85 13 -6 31 -18 41 -27 10 -10 26 -17 35 -17 9 0 17 -4 17 -10 0 -5 6 -10 13 -10 15 0 67 -51 67 -65 0 -17 84 -95 102 -95 10 0 18 -4 18 -10 0 -6 50 -10 130 -10 80 0 130 4 130 10 0 6 18 10 40 10 22 0 40 5 40 10 0 6 9 10 20 10 11 0 20 5 20 10 0 6 7 10 15 10 16 0 145 125 145 141 0 16 -14 9 -45 -22 -49 -50 -111 -89 -203 -126 -75 -30 -95 -34 -152 -31 -80 5 -149 45 -196 117 -23 34 -47 55 -85 74 -84 41 -92 50 -97 111 -7 84 0 99 57 121 27 10 48 23 45 27 -7 12 -44 10 -44 -2z" transform="translate(0,90) scale(0.1,-0.1)" stroke="none" fill="#BF7537"/>

</g>

</g>
<g id="col2" transform="translate(380, 12)">
<g id="0" transform="translate(0,0.0)scale(0.8,0.8)">

<path d="M360 590 c0 -5 -9 -10 -20 -10 -11 0 -20 -4 -20 -10 0 -5 -9 -10 -20 -10 -11 0 -20 -4 -20 -10 0 -5 -8 -10 -18 -10 -19 0 -62 -42 -62 -60 0 -15 10 -12 60 15 141 77 163 86 213 79 39 -5 47 -3 47 10 0 13 -13 16 -80 16 -47 0 -80 -4 -80 -10z" transform="translate(0,90) scale(0.1,-0.1)" stroke="none" fill="#BF7537"/>

<path d="M955 635 c-14 -13 -25 -36 -25 -51 0 -38 40 -144 55 -144 28 0 49 41 53 103 3 52 0 66 -18 90 -26 33 -34 34 -65 2z" transform="translate(0,90) scale(0.1,-0.1)" stroke="none" fill="#BF7537"/>

<path d="M1260 353 c-62 -27 -65 -30 -68 -50 -4 -27 17 -42 78 -58 76 -20 140 9 140 65 0 21 -8 30 -38 43 -47 20 -66 21 -112 0z" transform="translate(0,90) scale(0.1,-0.1)" stroke="none" fill="#BF7537"/>

<path d="M535 354 c-36 -39 -33 -79 8 -105 27 -17 43 -20 105 -15 79 5 122 25 122 55 0 24 -24 43 -87 69 -72 30 -118 29 -148 -4z" transform="translate(0,90) scale(0.1,-0.1)" stroke="none" fill="#BF7537"/>

<path d="M880 870 c-14 -16 -33 -30 -42 -30 -10 0 -18 -4 -18 -10 0 -5 -13 -10 -28 -10 -16 0 -34 -8 -42 -20 -8 -11 -20 -20 -28 -20 -7 0 -24 -11 -38 -25 -21 -21 -25 -33 -22 -75 2 -28 8 -50 13 -50 6 1 9 12 7 26 -2 16 7 41 23 64 21 31 38 42 80 55 29 8 68 29 86 46 18 17 48 33 66 36 34 6 93 -12 93 -28 0 -18 41 -49 65 -49 15 0 41 -14 61 -33 49 -45 57 -109 23 -194 -13 -32 -27 -62 -31 -67 -13 -16 -9 -26 10 -26 28 0 42 21 42 62 0 21 5 38 10 38 6 0 10 9 10 20 0 11 5 20 10 20 6 0 10 27 10 60 0 33 -4 60 -10 60 -5 0 -10 9 -10 20 0 11 -4 20 -10 20 -5 0 -10 8 -10 18 0 29 -21 42 -66 42 -36 0 -48 6 -82 40 -36 37 -43 40 -93 40 -47 -1 -57 -4 -79 -30z" transform="translate(0,90) scale(0.1,-0.1)" stroke="none" fill="#BF7537"/>

<path d="M1525 490 c-3 -6 5 -14 19 -19 13 -6 38 -25 55 -44 21 -22 48 -38 81 -47 28 -8 56 -20 62 -27 6 -7 17 -13 24 -13 20 0 44 -53 44 -95 0 -45 -42 -89 -92 -99 -19 -3 -59 -28 -92 -57 -71 -60 -91 -69 -157 -69 -27 0 -49 -4 -49 -10 0 -6 46 -10 118 -10 l118 0 29 30 c16 16 33 30 39 30 5 0 18 7 27 16 10 9 47 31 81 48 l63 31 3 68 c3 65 -9 97 -35 97 -5 0 -22 14 -38 30 -16 17 -37 30 -47 30 -10 0 -18 5 -18 10 0 6 -13 10 -30 10 -16 0 -30 5 -30 10 0 6 -7 10 -15 10 -8 0 -28 14 -43 30 -16 17 -37 30 -46 30 -9 0 -16 5 -16 10 0 13 -47 13 -55 0z" transform="translate(0,90) scale(0.1,-0.1)" stroke="none" fill="#BF7537"/>

<path d="M140 470 c0 -5 -13 -10 -29 -10 -16 0 -31 -4 -33 -9 -1 -5 -19 -18 -38 -28 l-35 -20 0 -74 c0 -66 2 -75 22 -85 13 -6 31 -18 41 -27 10 -10 26 -17 35 -17 9 0 17 -4 17 -10 0 -5 6 -10 13 -10 15 0 67 -51 67 -65 0 -17 84 -95 102 -95 10 0 18 -4 18 -10 0 -6 50 -10 130 -10 80 0 130 4 130 10 0 6 18 10 40 10 22 0 40 5 40 10 0 6 9 10 20 10 11 0 20 5 20 10 0 6 7 10 15 10 16 0 145 125 145 141 0 16 -14 9 -45 -22 -49 -50 -111 -89 -203 -126 -75 -30 -95 -34 -152 -31 -80 5 -149 45 -196 117 -23 34 -47 55 -85 74 -84 41 -92 50 -97 111 -7 84 0 99 57 121 27 10 48 23 45 27 -7 12 -44 10 -44 -2z" transform="translate(0,90) scale(0.1,-0.1)" stroke="none" fill="#BF7537"/>

</g>

<g id="1" transform="translate(0,90.0)scale(0.8,0.8)">

<path d="M360 590 c0 -5 -9 -10 -20 -10 -11 0 -20 -4 -20 -10 0 -5 -9 -10 -20 -10 -11 0 -20 -4 -20 -10 0 -5 -8 -10 -18 -10 -19 0 -62 -42 -62 -60 0 -15 10 -12 60 15 141 77 163 86 213 79 39 -5 47 -3 47 10 0 13 -13 16 -80 16 -47 0 -80 -4 -80 -10z" transform="translate(0,90) scale(0.1,-0.1)" stroke="none" fill="#BF7537"/>

<path d="M955 635 c-14 -13 -25 -36 -25 -51 0 -38 40 -144 55 -144 28 0 49 41 53 103 3 52 0 66 -18 90 -26 33 -34 34 -65 2z" transform="translate(0,90) scale(0.1,-0.1)" stroke="none" fill="#BF7537"/>

<path d="M1260 353 c-62 -27 -65 -30 -68 -50 -4 -27 17 -42 78 -58 76 -20 140 9 140 65 0 21 -8 30 -38 43 -47 20 -66 21 -112 0z" transform="translate(0,90) scale(0.1,-0.1)" stroke="none" fill="#BF7537"/>

<path d="M535 354 c-36 -39 -33 -79 8 -105 27 -17 43 -20 105 -15 79 5 122 25 122 55 0 24 -24 43 -87 69 -72 30 -118 29 -148 -4z" transform="translate(0,90) scale(0.1,-0.1)" stroke="none" fill="#BF7537"/>

<path d="M880 870 c-14 -16 -33 -30 -42 -30 -10 0 -18 -4 -18 -10 0 -5 -13 -10 -28 -10 -16 0 -34 -8 -42 -20 -8 -11 -20 -20 -28 -20 -7 0 -24 -11 -38 -25 -21 -21 -25 -33 -22 -75 2 -28 8 -50 13 -50 6 1 9 12 7 26 -2 16 7 41 23 64 21 31 38 42 80 55 29 8 68 29 86 46 18 17 48 33 66 36 34 6 93 -12 93 -28 0 -18 41 -49 65 -49 15 0 41 -14 61 -33 49 -45 57 -109 23 -194 -13 -32 -27 -62 -31 -67 -13 -16 -9 -26 10 -26 28 0 42 21 42 62 0 21 5 38 10 38 6 0 10 9 10 20 0 11 5 20 10 20 6 0 10 27 10 60 0 33 -4 60 -10 60 -5 0 -10 9 -10 20 0 11 -4 20 -10 20 -5 0 -10 8 -10 18 0 29 -21 42 -66 42 -36 0 -48 6 -82 40 -36 37 -43 40 -93 40 -47 -1 -57 -4 -79 -30z" transform="translate(0,90) scale(0.1,-0.1)" stroke="none" fill="#BF7537"/>

<path d="M1525 490 c-3 -6 5 -14 19 -19 13 -6 38 -25 55 -44 21 -22 48 -38 81 -47 28 -8 56 -20 62 -27 6 -7 17 -13 24 -13 20 0 44 -53 44 -95 0 -45 -42 -89 -92 -99 -19 -3 -59 -28 -92 -57 -71 -60 -91 -69 -157 -69 -27 0 -49 -4 -49 -10 0 -6 46 -10 118 -10 l118 0 29 30 c16 16 33 30 39 30 5 0 18 7 27 16 10 9 47 31 81 48 l63 31 3 68 c3 65 -9 97 -35 97 -5 0 -22 14 -38 30 -16 17 -37 30 -47 30 -10 0 -18 5 -18 10 0 6 -13 10 -30 10 -16 0 -30 5 -30 10 0 6 -7 10 -15 10 -8 0 -28 14 -43 30 -16 17 -37 30 -46 30 -9 0 -16 5 -16 10 0 13 -47 13 -55 0z" transform="translate(0,90) scale(0.1,-0.1)" stroke="none" fill="#BF7537"/>

<path d="M140 470 c0 -5 -13 -10 -29 -10 -16 0 -31 -4 -33 -9 -1 -5 -19 -18 -38 -28 l-35 -20 0 -74 c0 -66 2 -75 22 -85 13 -6 31 -18 41 -27 10 -10 26 -17 35 -17 9 0 17 -4 17 -10 0 -5 6 -10 13 -10 15 0 67 -51 67 -65 0 -17 84 -95 102 -95 10 0 18 -4 18 -10 0 -6 50 -10 130 -10 80 0 130 4 130 10 0 6 18 10 40 10 22 0 40 5 40 10 0 6 9 10 20 10 11 0 20 5 20 10 0 6 7 10 15 10 16 0 145 125 145 141 0 16 -14 9 -45 -22 -49 -50 -111 -89 -203 -126 -75 -30 -95 -34 -152 -31 -80 5 -149 45 -196 117 -23 34 -47 55 -85 74 -84 41 -92 50 -97 111 -7 84 0 99 57 121 27 10 48 23 45 27 -7 12 -44 10 -44 -2z" transform="translate(0,90) scale(0.1,-0.1)" stroke="none" fill="#BF7537"/>

</g>

<g id="2" transform="translate(0,180.0)scale(0.8,0.8)">

<path d="M360 590 c0 -5 -9 -10 -20 -10 -11 0 -20 -4 -20 -10 0 -5 -9 -10 -20 -10 -11 0 -20 -4 -20 -10 0 -5 -8 -10 -18 -10 -19 0 -62 -42 -62 -60 0 -15 10 -12 60 15 141 77 163 86 213 79 39 -5 47 -3 47 10 0 13 -13 16 -80 16 -47 0 -80 -4 -80 -10z" transform="translate(0,90) scale(0.1,-0.1)" stroke="none" fill="#BF7537"/>

<path d="M955 635 c-14 -13 -25 -36 -25 -51 0 -38 40 -144 55 -144 28 0 49 41 53 103 3 52 0 66 -18 90 -26 33 -34 34 -65 2z" transform="translate(0,90) scale(0.1,-0.1)" stroke="none" fill="#BF7537"/>

<path d="M1260 353 c-62 -27 -65 -30 -68 -50 -4 -27 17 -42 78 -58 76 -20 140 9 140 65 0 21 -8 30 -38 43 -47 20 -66 21 -112 0z" transform="translate(0,90) scale(0.1,-0.1)" stroke="none" fill="#BF7537"/>

<path d="M535 354 c-36 -39 -33 -79 8 -105 27 -17 43 -20 105 -15 79 5 122 25 122 55 0 24 -24 43 -87 69 -72 30 -118 29 -148 -4z" transform="translate(0,90) scale(0.1,-0.1)" stroke="none" fill="#BF7537"/>

<path d="M880 870 c-14 -16 -33 -30 -42 -30 -10 0 -18 -4 -18 -10 0 -5 -13 -10 -28 -10 -16 0 -34 -8 -42 -20 -8 -11 -20 -20 -28 -20 -7 0 -24 -11 -38 -25 -21 -21 -25 -33 -22 -75 2 -28 8 -50 13 -50 6 1 9 12 7 26 -2 16 7 41 23 64 21 31 38 42 80 55 29 8 68 29 86 46 18 17 48 33 66 36 34 6 93 -12 93 -28 0 -18 41 -49 65 -49 15 0 41 -14 61 -33 49 -45 57 -109 23 -194 -13 -32 -27 -62 -31 -67 -13 -16 -9 -26 10 -26 28 0 42 21 42 62 0 21 5 38 10 38 6 0 10 9 10 20 0 11 5 20 10 20 6 0 10 27 10 60 0 33 -4 60 -10 60 -5 0 -10 9 -10 20 0 11 -4 20 -10 20 -5 0 -10 8 -10 18 0 29 -21 42 -66 42 -36 0 -48 6 -82 40 -36 37 -43 40 -93 40 -47 -1 -57 -4 -79 -30z" transform="translate(0,90) scale(0.1,-0.1)" stroke="none" fill="#BF7537"/>

<path d="M1525 490 c-3 -6 5 -14 19 -19 13 -6 38 -25 55 -44 21 -22 48 -38 81 -47 28 -8 56 -20 62 -27 6 -7 17 -13 24 -13 20 0 44 -53 44 -95 0 -45 -42 -89 -92 -99 -19 -3 -59 -28 -92 -57 -71 -60 -91 -69 -157 -69 -27 0 -49 -4 -49 -10 0 -6 46 -10 118 -10 l118 0 29 30 c16 16 33 30 39 30 5 0 18 7 27 16 10 9 47 31 81 48 l63 31 3 68 c3 65 -9 97 -35 97 -5 0 -22 14 -38 30 -16 17 -37 30 -47 30 -10 0 -18 5 -18 10 0 6 -13 10 -30 10 -16 0 -30 5 -30 10 0 6 -7 10 -15 10 -8 0 -28 14 -43 30 -16 17 -37 30 -46 30 -9 0 -16 5 -16 10 0 13 -47 13 -55 0z" transform="translate(0,90) scale(0.1,-0.1)" stroke="none" fill="#BF7537"/>

<path d="M140 470 c0 -5 -13 -10 -29 -10 -16 0 -31 -4 -33 -9 -1 -5 -19 -18 -38 -28 l-35 -20 0 -74 c0 -66 2 -75 22 -85 13 -6 31 -18 41 -27 10 -10 26 -17 35 -17 9 0 17 -4 17 -10 0 -5 6 -10 13 -10 15 0 67 -51 67 -65 0 -17 84 -95 102 -95 10 0 18 -4 18 -10 0 -6 50 -10 130 -10 80 0 130 4 130 10 0 6 18 10 40 10 22 0 40 5 40 10 0 6 9 10 20 10 11 0 20 5 20 10 0 6 7 10 15 10 16 0 145 125 145 141 0 16 -14 9 -45 -22 -49 -50 -111 -89 -203 -126 -75 -30 -95 -34 -152 -31 -80 5 -149 45 -196 117 -23 34 -47 55 -85 74 -84 41 -92 50 -97 111 -7 84 0 99 57 121 27 10 48 23 45 27 -7 12 -44 10 -44 -2z" transform="translate(0,90) scale(0.1,-0.1)" stroke="none" fill="#BF7537"/>

</g>

<g id="3" transform="translate(0,270.0)scale(0.8,0.8)">

<path d="M360 590 c0 -5 -9 -10 -20 -10 -11 0 -20 -4 -20 -10 0 -5 -9 -10 -20 -10 -11 0 -20 -4 -20 -10 0 -5 -8 -10 -18 -10 -19 0 -62 -42 -62 -60 0 -15 10 -12 60 15 141 77 163 86 213 79 39 -5 47 -3 47 10 0 13 -13 16 -80 16 -47 0 -80 -4 -80 -10z" transform="translate(0,90) scale(0.1,-0.1)" stroke="none" fill="#BF7537"/>

<path d="M955 635 c-14 -13 -25 -36 -25 -51 0 -38 40 -144 55 -144 28 0 49 41 53 103 3 52 0 66 -18 90 -26 33 -34 34 -65 2z" transform="translate(0,90) scale(0.1,-0.1)" stroke="none" fill="#BF7537"/>

<path d="M1260 353 c-62 -27 -65 -30 -68 -50 -4 -27 17 -42 78 -58 76 -20 140 9 140 65 0 21 -8 30 -38 43 -47 20 -66 21 -112 0z" transform="translate(0,90) scale(0.1,-0.1)" stroke="none" fill="#BF7537"/>

<path d="M535 354 c-36 -39 -33 -79 8 -105 27 -17 43 -20 105 -15 79 5 122 25 122 55 0 24 -24 43 -87 69 -72 30 -118 29 -148 -4z" transform="translate(0,90) scale(0.1,-0.1)" stroke="none" fill="#BF7537"/>

<path d="M880 870 c-14 -16 -33 -30 -42 -30 -10 0 -18 -4 -18 -10 0 -5 -13 -10 -28 -10 -16 0 -34 -8 -42 -20 -8 -11 -20 -20 -28 -20 -7 0 -24 -11 -38 -25 -21 -21 -25 -33 -22 -75 2 -28 8 -50 13 -50 6 1 9 12 7 26 -2 16 7 41 23 64 21 31 38 42 80 55 29 8 68 29 86 46 18 17 48 33 66 36 34 6 93 -12 93 -28 0 -18 41 -49 65 -49 15 0 41 -14 61 -33 49 -45 57 -109 23 -194 -13 -32 -27 -62 -31 -67 -13 -16 -9 -26 10 -26 28 0 42 21 42 62 0 21 5 38 10 38 6 0 10 9 10 20 0 11 5 20 10 20 6 0 10 27 10 60 0 33 -4 60 -10 60 -5 0 -10 9 -10 20 0 11 -4 20 -10 20 -5 0 -10 8 -10 18 0 29 -21 42 -66 42 -36 0 -48 6 -82 40 -36 37 -43 40 -93 40 -47 -1 -57 -4 -79 -30z" transform="translate(0,90) scale(0.1,-0.1)" stroke="none" fill="#BF7537"/>

<path d="M1525 490 c-3 -6 5 -14 19 -19 13 -6 38 -25 55 -44 21 -22 48 -38 81 -47 28 -8 56 -20 62 -27 6 -7 17 -13 24 -13 20 0 44 -53 44 -95 0 -45 -42 -89 -92 -99 -19 -3 -59 -28 -92 -57 -71 -60 -91 -69 -157 -69 -27 0 -49 -4 -49 -10 0 -6 46 -10 118 -10 l118 0 29 30 c16 16 33 30 39 30 5 0 18 7 27 16 10 9 47 31 81 48 l63 31 3 68 c3 65 -9 97 -35 97 -5 0 -22 14 -38 30 -16 17 -37 30 -47 30 -10 0 -18 5 -18 10 0 6 -13 10 -30 10 -16 0 -30 5 -30 10 0 6 -7 10 -15 10 -8 0 -28 14 -43 30 -16 17 -37 30 -46 30 -9 0 -16 5 -16 10 0 13 -47 13 -55 0z" transform="translate(0,90) scale(0.1,-0.1)" stroke="none" fill="#BF7537"/>

<path d="M140 470 c0 -5 -13 -10 -29 -10 -16 0 -31 -4 -33 -9 -1 -5 -19 -18 -38 -28 l-35 -20 0 -74 c0 -66 2 -75 22 -85 13 -6 31 -18 41 -27 10 -10 26 -17 35 -17 9 0 17 -4 17 -10 0 -5 6 -10 13 -10 15 0 67 -51 67 -65 0 -17 84 -95 102 -95 10 0 18 -4 18 -10 0 -6 50 -10 130 -10 80 0 130 4 130 10 0 6 18 10 40 10 22 0 40 5 40 10 0 6 9 10 20 10 11 0 20 5 20 10 0 6 7 10 15 10 16 0 145 125 145 141 0 16 -14 9 -45 -22 -49 -50 -111 -89 -203 -126 -75 -30 -95 -34 -152 -31 -80 5 -149 45 -196 117 -23 34 -47 55 -85 74 -84 41 -92 50 -97 111 -7 84 0 99 57 121 27 10 48 23 45 27 -7 12 -44 10 -44 -2z" transform="translate(0,90) scale(0.1,-0.1)" stroke="none" fill="#BF7537"/>

</g>

<g id="4" transform="translate(0,360.0)scale(0.8,0.8)">

<path d="M360 590 c0 -5 -9 -10 -20 -10 -11 0 -20 -4 -20 -10 0 -5 -9 -10 -20 -10 -11 0 -20 -4 -20 -10 0 -5 -8 -10 -18 -10 -19 0 -62 -42 -62 -60 0 -15 10 -12 60 15 141 77 163 86 213 79 39 -5 47 -3 47 10 0 13 -13 16 -80 16 -47 0 -80 -4 -80 -10z" transform="translate(0,90) scale(0.1,-0.1)" stroke="none" fill="#BF7537"/>

<path d="M955 635 c-14 -13 -25 -36 -25 -51 0 -38 40 -144 55 -144 28 0 49 41 53 103 3 52 0 66 -18 90 -26 33 -34 34 -65 2z" transform="translate(0,90) scale(0.1,-0.1)" stroke="none" fill="#BF7537"/>

<path d="M1260 353 c-62 -27 -65 -30 -68 -50 -4 -27 17 -42 78 -58 76 -20 140 9 140 65 0 21 -8 30 -38 43 -47 20 -66 21 -112 0z" transform="translate(0,90) scale(0.1,-0.1)" stroke="none" fill="#BF7537"/>

<path d="M535 354 c-36 -39 -33 -79 8 -105 27 -17 43 -20 105 -15 79 5 122 25 122 55 0 24 -24 43 -87 69 -72 30 -118 29 -148 -4z" transform="translate(0,90) scale(0.1,-0.1)" stroke="none" fill="#BF7537"/>

<path d="M880 870 c-14 -16 -33 -30 -42 -30 -10 0 -18 -4 -18 -10 0 -5 -13 -10 -28 -10 -16 0 -34 -8 -42 -20 -8 -11 -20 -20 -28 -20 -7 0 -24 -11 -38 -25 -21 -21 -25 -33 -22 -75 2 -28 8 -50 13 -50 6 1 9 12 7 26 -2 16 7 41 23 64 21 31 38 42 80 55 29 8 68 29 86 46 18 17 48 33 66 36 34 6 93 -12 93 -28 0 -18 41 -49 65 -49 15 0 41 -14 61 -33 49 -45 57 -109 23 -194 -13 -32 -27 -62 -31 -67 -13 -16 -9 -26 10 -26 28 0 42 21 42 62 0 21 5 38 10 38 6 0 10 9 10 20 0 11 5 20 10 20 6 0 10 27 10 60 0 33 -4 60 -10 60 -5 0 -10 9 -10 20 0 11 -4 20 -10 20 -5 0 -10 8 -10 18 0 29 -21 42 -66 42 -36 0 -48 6 -82 40 -36 37 -43 40 -93 40 -47 -1 -57 -4 -79 -30z" transform="translate(0,90) scale(0.1,-0.1)" stroke="none" fill="#BF7537"/>

<path d="M1525 490 c-3 -6 5 -14 19 -19 13 -6 38 -25 55 -44 21 -22 48 -38 81 -47 28 -8 56 -20 62 -27 6 -7 17 -13 24 -13 20 0 44 -53 44 -95 0 -45 -42 -89 -92 -99 -19 -3 -59 -28 -92 -57 -71 -60 -91 -69 -157 -69 -27 0 -49 -4 -49 -10 0 -6 46 -10 118 -10 l118 0 29 30 c16 16 33 30 39 30 5 0 18 7 27 16 10 9 47 31 81 48 l63 31 3 68 c3 65 -9 97 -35 97 -5 0 -22 14 -38 30 -16 17 -37 30 -47 30 -10 0 -18 5 -18 10 0 6 -13 10 -30 10 -16 0 -30 5 -30 10 0 6 -7 10 -15 10 -8 0 -28 14 -43 30 -16 17 -37 30 -46 30 -9 0 -16 5 -16 10 0 13 -47 13 -55 0z" transform="translate(0,90) scale(0.1,-0.1)" stroke="none" fill="#BF7537"/>

<path d="M140 470 c0 -5 -13 -10 -29 -10 -16 0 -31 -4 -33 -9 -1 -5 -19 -18 -38 -28 l-35 -20 0 -74 c0 -66 2 -75 22 -85 13 -6 31 -18 41 -27 10 -10 26 -17 35 -17 9 0 17 -4 17 -10 0 -5 6 -10 13 -10 15 0 67 -51 67 -65 0 -17 84 -95 102 -95 10 0 18 -4 18 -10 0 -6 50 -10 130 -10 80 0 130 4 130 10 0 6 18 10 40 10 22 0 40 5 40 10 0 6 9 10 20 10 11 0 20 5 20 10 0 6 7 10 15 10 16 0 145 125 145 141 0 16 -14 9 -45 -22 -49 -50 -111 -89 -203 -126 -75 -30 -95 -34 -152 -31 -80 5 -149 45 -196 117 -23 34 -47 55 -85 74 -84 41 -92 50 -97 111 -7 84 0 99 57 121 27 10 48 23 45 27 -7 12 -44 10 -44 -2z" transform="translate(0,90) scale(0.1,-0.1)" stroke="none" fill="#BF7537"/>

</g>

</g>
<g id="col3" transform="translate(570, -33.0)">
<g id="0" transform="translate(0,0.0)scale(0.8,0.8)">

<path d="M360 590 c0 -5 -9 -10 -20 -10 -11 0 -20 -4 -20 -10 0 -5 -9 -10 -20 -10 -11 0 -20 -4 -20 -10 0 -5 -8 -10 -18 -10 -19 0 -62 -42 -62 -60 0 -15 10 -12 60 15 141 77 163 86 213 79 39 -5 47 -3 47 10 0 13 -13 16 -80 16 -47 0 -80 -4 -80 -10z" transform="translate(0,90) scale(0.1,-0.1)" stroke="none" fill="#BF7537"/>

<path d="M955 635 c-14 -13 -25 -36 -25 -51 0 -38 40 -144 55 -144 28 0 49 41 53 103 3 52 0 66 -18 90 -26 33 -34 34 -65 2z" transform="translate(0,90) scale(0.1,-0.1)" stroke="none" fill="#BF7537"/>

<path d="M1260 353 c-62 -27 -65 -30 -68 -50 -4 -27 17 -42 78 -58 76 -20 140 9 140 65 0 21 -8 30 -38 43 -47 20 -66 21 -112 0z" transform="translate(0,90) scale(0.1,-0.1)" stroke="none" fill="#BF7537"/>

<path d="M535 354 c-36 -39 -33 -79 8 -105 27 -17 43 -20 105 -15 79 5 122 25 122 55 0 24 -24 43 -87 69 -72 30 -118 29 -148 -4z" transform="translate(0,90) scale(0.1,-0.1)" stroke="none" fill="#BF7537"/>

<path d="M880 870 c-14 -16 -33 -30 -42 -30 -10 0 -18 -4 -18 -10 0 -5 -13 -10 -28 -10 -16 0 -34 -8 -42 -20 -8 -11 -20 -20 -28 -20 -7 0 -24 -11 -38 -25 -21 -21 -25 -33 -22 -75 2 -28 8 -50 13 -50 6 1 9 12 7 26 -2 16 7 41 23 64 21 31 38 42 80 55 29 8 68 29 86 46 18 17 48 33 66 36 34 6 93 -12 93 -28 0 -18 41 -49 65 -49 15 0 41 -14 61 -33 49 -45 57 -109 23 -194 -13 -32 -27 -62 -31 -67 -13 -16 -9 -26 10 -26 28 0 42 21 42 62 0 21 5 38 10 38 6 0 10 9 10 20 0 11 5 20 10 20 6 0 10 27 10 60 0 33 -4 60 -10 60 -5 0 -10 9 -10 20 0 11 -4 20 -10 20 -5 0 -10 8 -10 18 0 29 -21 42 -66 42 -36 0 -48 6 -82 40 -36 37 -43 40 -93 40 -47 -1 -57 -4 -79 -30z" transform="translate(0,90) scale(0.1,-0.1)" stroke="none" fill="#BF7537"/>

<path d="M1525 490 c-3 -6 5 -14 19 -19 13 -6 38 -25 55 -44 21 -22 48 -38 81 -47 28 -8 56 -20 62 -27 6 -7 17 -13 24 -13 20 0 44 -53 44 -95 0 -45 -42 -89 -92 -99 -19 -3 -59 -28 -92 -57 -71 -60 -91 -69 -157 -69 -27 0 -49 -4 -49 -10 0 -6 46 -10 118 -10 l118 0 29 30 c16 16 33 30 39 30 5 0 18 7 27 16 10 9 47 31 81 48 l63 31 3 68 c3 65 -9 97 -35 97 -5 0 -22 14 -38 30 -16 17 -37 30 -47 30 -10 0 -18 5 -18 10 0 6 -13 10 -30 10 -16 0 -30 5 -30 10 0 6 -7 10 -15 10 -8 0 -28 14 -43 30 -16 17 -37 30 -46 30 -9 0 -16 5 -16 10 0 13 -47 13 -55 0z" transform="translate(0,90) scale(0.1,-0.1)" stroke="none" fill="#BF7537"/>

<path d="M140 470 c0 -5 -13 -10 -29 -10 -16 0 -31 -4 -33 -9 -1 -5 -19 -18 -38 -28 l-35 -20 0 -74 c0 -66 2 -75 22 -85 13 -6 31 -18 41 -27 10 -10 26 -17 35 -17 9 0 17 -4 17 -10 0 -5 6 -10 13 -10 15 0 67 -51 67 -65 0 -17 84 -95 102 -95 10 0 18 -4 18 -10 0 -6 50 -10 130 -10 80 0 130 4 130 10 0 6 18 10 40 10 22 0 40 5 40 10 0 6 9 10 20 10 11 0 20 5 20 10 0 6 7 10 15 10 16 0 145 125 145 141 0 16 -14 9 -45 -22 -49 -50 -111 -89 -203 -126 -75 -30 -95 -34 -152 -31 -80 5 -149 45 -196 117 -23 34 -47 55 -85 74 -84 41 -92 50 -97 111 -7 84 0 99 57 121 27 10 48 23 45 27 -7 12 -44 10 -44 -2z" transform="translate(0,90) scale(0.1,-0.1)" stroke="none" fill="#BF7537"/>

</g>

<g id="1" transform="translate(0,90.0)scale(0.8,0.8)">

<path d="M360 590 c0 -5 -9 -10 -20 -10 -11 0 -20 -4 -20 -10 0 -5 -9 -10 -20 -10 -11 0 -20 -4 -20 -10 0 -5 -8 -10 -18 -10 -19 0 -62 -42 -62 -60 0 -15 10 -12 60 15 141 77 163 86 213 79 39 -5 47 -3 47 10 0 13 -13 16 -80 16 -47 0 -80 -4 -80 -10z" transform="translate(0,90) scale(0.1,-0.1)" stroke="none" fill="#BF7537"/>

<path d="M955 635 c-14 -13 -25 -36 -25 -51 0 -38 40 -144 55 -144 28 0 49 41 53 103 3 52 0 66 -18 90 -26 33 -34 34 -65 2z" transform="translate(0,90) scale(0.1,-0.1)" stroke="none" fill="#BF7537"/>

<path d="M1260 353 c-62 -27 -65 -30 -68 -50 -4 -27 17 -42 78 -58 76 -20 140 9 140 65 0 21 -8 30 -38 43 -47 20 -66 21 -112 0z" transform="translate(0,90) scale(0.1,-0.1)" stroke="none" fill="#BF7537"/>

<path d="M535 354 c-36 -39 -33 -79 8 -105 27 -17 43 -20 105 -15 79 5 122 25 122 55 0 24 -24 43 -87 69 -72 30 -118 29 -148 -4z" transform="translate(0,90) scale(0.1,-0.1)" stroke="none" fill="#BF7537"/>

<path d="M880 870 c-14 -16 -33 -30 -42 -30 -10 0 -18 -4 -18 -10 0 -5 -13 -10 -28 -10 -16 0 -34 -8 -42 -20 -8 -11 -20 -20 -28 -20 -7 0 -24 -11 -38 -25 -21 -21 -25 -33 -22 -75 2 -28 8 -50 13 -50 6 1 9 12 7 26 -2 16 7 41 23 64 21 31 38 42 80 55 29 8 68 29 86 46 18 17 48 33 66 36 34 6 93 -12 93 -28 0 -18 41 -49 65 -49 15 0 41 -14 61 -33 49 -45 57 -109 23 -194 -13 -32 -27 -62 -31 -67 -13 -16 -9 -26 10 -26 28 0 42 21 42 62 0 21 5 38 10 38 6 0 10 9 10 20 0 11 5 20 10 20 6 0 10 27 10 60 0 33 -4 60 -10 60 -5 0 -10 9 -10 20 0 11 -4 20 -10 20 -5 0 -10 8 -10 18 0 29 -21 42 -66 42 -36 0 -48 6 -82 40 -36 37 -43 40 -93 40 -47 -1 -57 -4 -79 -30z" transform="translate(0,90) scale(0.1,-0.1)" stroke="none" fill="#BF7537"/>

<path d="M1525 490 c-3 -6 5 -14 19 -19 13 -6 38 -25 55 -44 21 -22 48 -38 81 -47 28 -8 56 -20 62 -27 6 -7 17 -13 24 -13 20 0 44 -53 44 -95 0 -45 -42 -89 -92 -99 -19 -3 -59 -28 -92 -57 -71 -60 -91 -69 -157 -69 -27 0 -49 -4 -49 -10 0 -6 46 -10 118 -10 l118 0 29 30 c16 16 33 30 39 30 5 0 18 7 27 16 10 9 47 31 81 48 l63 31 3 68 c3 65 -9 97 -35 97 -5 0 -22 14 -38 30 -16 17 -37 30 -47 30 -10 0 -18 5 -18 10 0 6 -13 10 -30 10 -16 0 -30 5 -30 10 0 6 -7 10 -15 10 -8 0 -28 14 -43 30 -16 17 -37 30 -46 30 -9 0 -16 5 -16 10 0 13 -47 13 -55 0z" transform="translate(0,90) scale(0.1,-0.1)" stroke="none" fill="#BF7537"/>

<path d="M140 470 c0 -5 -13 -10 -29 -10 -16 0 -31 -4 -33 -9 -1 -5 -19 -18 -38 -28 l-35 -20 0 -74 c0 -66 2 -75 22 -85 13 -6 31 -18 41 -27 10 -10 26 -17 35 -17 9 0 17 -4 17 -10 0 -5 6 -10 13 -10 15 0 67 -51 67 -65 0 -17 84 -95 102 -95 10 0 18 -4 18 -10 0 -6 50 -10 130 -10 80 0 130 4 130 10 0 6 18 10 40 10 22 0 40 5 40 10 0 6 9 10 20 10 11 0 20 5 20 10 0 6 7 10 15 10 16 0 145 125 145 141 0 16 -14 9 -45 -22 -49 -50 -111 -89 -203 -126 -75 -30 -95 -34 -152 -31 -80 5 -149 45 -196 117 -23 34 -47 55 -85 74 -84 41 -92 50 -97 111 -7 84 0 99 57 121 27 10 48 23 45 27 -7 12 -44 10 -44 -2z" transform="translate(0,90) scale(0.1,-0.1)" stroke="none" fill="#BF7537"/>

</g>

<g id="2" transform="translate(0,180.0)scale(0.8,0.8)">

<path d="M360 590 c0 -5 -9 -10 -20 -10 -11 0 -20 -4 -20 -10 0 -5 -9 -10 -20 -10 -11 0 -20 -4 -20 -10 0 -5 -8 -10 -18 -10 -19 0 -62 -42 -62 -60 0 -15 10 -12 60 15 141 77 163 86 213 79 39 -5 47 -3 47 10 0 13 -13 16 -80 16 -47 0 -80 -4 -80 -10z" transform="translate(0,90) scale(0.1,-0.1)" stroke="none" fill="#BF7537"/>

<path d="M955 635 c-14 -13 -25 -36 -25 -51 0 -38 40 -144 55 -144 28 0 49 41 53 103 3 52 0 66 -18 90 -26 33 -34 34 -65 2z" transform="translate(0,90) scale(0.1,-0.1)" stroke="none" fill="#BF7537"/>

<path d="M1260 353 c-62 -27 -65 -30 -68 -50 -4 -27 17 -42 78 -58 76 -20 140 9 140 65 0 21 -8 30 -38 43 -47 20 -66 21 -112 0z" transform="translate(0,90) scale(0.1,-0.1)" stroke="none" fill="#BF7537"/>

<path d="M535 354 c-36 -39 -33 -79 8 -105 27 -17 43 -20 105 -15 79 5 122 25 122 55 0 24 -24 43 -87 69 -72 30 -118 29 -148 -4z" transform="translate(0,90) scale(0.1,-0.1)" stroke="none" fill="#BF7537"/>

<path d="M880 870 c-14 -16 -33 -30 -42 -30 -10 0 -18 -4 -18 -10 0 -5 -13 -10 -28 -10 -16 0 -34 -8 -42 -20 -8 -11 -20 -20 -28 -20 -7 0 -24 -11 -38 -25 -21 -21 -25 -33 -22 -75 2 -28 8 -50 13 -50 6 1 9 12 7 26 -2 16 7 41 23 64 21 31 38 42 80 55 29 8 68 29 86 46 18 17 48 33 66 36 34 6 93 -12 93 -28 0 -18 41 -49 65 -49 15 0 41 -14 61 -33 49 -45 57 -109 23 -194 -13 -32 -27 -62 -31 -67 -13 -16 -9 -26 10 -26 28 0 42 21 42 62 0 21 5 38 10 38 6 0 10 9 10 20 0 11 5 20 10 20 6 0 10 27 10 60 0 33 -4 60 -10 60 -5 0 -10 9 -10 20 0 11 -4 20 -10 20 -5 0 -10 8 -10 18 0 29 -21 42 -66 42 -36 0 -48 6 -82 40 -36 37 -43 40 -93 40 -47 -1 -57 -4 -79 -30z" transform="translate(0,90) scale(0.1,-0.1)" stroke="none" fill="#BF7537"/>

<path d="M1525 490 c-3 -6 5 -14 19 -19 13 -6 38 -25 55 -44 21 -22 48 -38 81 -47 28 -8 56 -20 62 -27 6 -7 17 -13 24 -13 20 0 44 -53 44 -95 0 -45 -42 -89 -92 -99 -19 -3 -59 -28 -92 -57 -71 -60 -91 -69 -157 -69 -27 0 -49 -4 -49 -10 0 -6 46 -10 118 -10 l118 0 29 30 c16 16 33 30 39 30 5 0 18 7 27 16 10 9 47 31 81 48 l63 31 3 68 c3 65 -9 97 -35 97 -5 0 -22 14 -38 30 -16 17 -37 30 -47 30 -10 0 -18 5 -18 10 0 6 -13 10 -30 10 -16 0 -30 5 -30 10 0 6 -7 10 -15 10 -8 0 -28 14 -43 30 -16 17 -37 30 -46 30 -9 0 -16 5 -16 10 0 13 -47 13 -55 0z" transform="translate(0,90) scale(0.1,-0.1)" stroke="none" fill="#BF7537"/>

<path d="M140 470 c0 -5 -13 -10 -29 -10 -16 0 -31 -4 -33 -9 -1 -5 -19 -18 -38 -28 l-35 -20 0 -74 c0 -66 2 -75 22 -85 13 -6 31 -18 41 -27 10 -10 26 -17 35 -17 9 0 17 -4 17 -10 0 -5 6 -10 13 -10 15 0 67 -51 67 -65 0 -17 84 -95 102 -95 10 0 18 -4 18 -10 0 -6 50 -10 130 -10 80 0 130 4 130 10 0 6 18 10 40 10 22 0 40 5 40 10 0 6 9 10 20 10 11 0 20 5 20 10 0 6 7 10 15 10 16 0 145 125 145 141 0 16 -14 9 -45 -22 -49 -50 -111 -89 -203 -126 -75 -30 -95 -34 -152 -31 -80 5 -149 45 -196 117 -23 34 -47 55 -85 74 -84 41 -92 50 -97 111 -7 84 0 99 57 121 27 10 48 23 45 27 -7 12 -44 10 -44 -2z" transform="translate(0,90) scale(0.1,-0.1)" stroke="none" fill="#BF7537"/>

</g>

<g id="3" transform="translate(0,270.0)scale(0.8,0.8)">

<path d="M360 590 c0 -5 -9 -10 -20 -10 -11 0 -20 -4 -20 -10 0 -5 -9 -10 -20 -10 -11 0 -20 -4 -20 -10 0 -5 -8 -10 -18 -10 -19 0 -62 -42 -62 -60 0 -15 10 -12 60 15 141 77 163 86 213 79 39 -5 47 -3 47 10 0 13 -13 16 -80 16 -47 0 -80 -4 -80 -10z" transform="translate(0,90) scale(0.1,-0.1)" stroke="none" fill="#BF7537"/>

<path d="M955 635 c-14 -13 -25 -36 -25 -51 0 -38 40 -144 55 -144 28 0 49 41 53 103 3 52 0 66 -18 90 -26 33 -34 34 -65 2z" transform="translate(0,90) scale(0.1,-0.1)" stroke="none" fill="#BF7537"/>

<path d="M1260 353 c-62 -27 -65 -30 -68 -50 -4 -27 17 -42 78 -58 76 -20 140 9 140 65 0 21 -8 30 -38 43 -47 20 -66 21 -112 0z" transform="translate(0,90) scale(0.1,-0.1)" stroke="none" fill="#BF7537"/>

<path d="M535 354 c-36 -39 -33 -79 8 -105 27 -17 43 -20 105 -15 79 5 122 25 122 55 0 24 -24 43 -87 69 -72 30 -118 29 -148 -4z" transform="translate(0,90) scale(0.1,-0.1)" stroke="none" fill="#BF7537"/>

<path d="M880 870 c-14 -16 -33 -30 -42 -30 -10 0 -18 -4 -18 -10 0 -5 -13 -10 -28 -10 -16 0 -34 -8 -42 -20 -8 -11 -20 -20 -28 -20 -7 0 -24 -11 -38 -25 -21 -21 -25 -33 -22 -75 2 -28 8 -50 13 -50 6 1 9 12 7 26 -2 16 7 41 23 64 21 31 38 42 80 55 29 8 68 29 86 46 18 17 48 33 66 36 34 6 93 -12 93 -28 0 -18 41 -49 65 -49 15 0 41 -14 61 -33 49 -45 57 -109 23 -194 -13 -32 -27 -62 -31 -67 -13 -16 -9 -26 10 -26 28 0 42 21 42 62 0 21 5 38 10 38 6 0 10 9 10 20 0 11 5 20 10 20 6 0 10 27 10 60 0 33 -4 60 -10 60 -5 0 -10 9 -10 20 0 11 -4 20 -10 20 -5 0 -10 8 -10 18 0 29 -21 42 -66 42 -36 0 -48 6 -82 40 -36 37 -43 40 -93 40 -47 -1 -57 -4 -79 -30z" transform="translate(0,90) scale(0.1,-0.1)" stroke="none" fill="#BF7537"/>

<path d="M1525 490 c-3 -6 5 -14 19 -19 13 -6 38 -25 55 -44 21 -22 48 -38 81 -47 28 -8 56 -20 62 -27 6 -7 17 -13 24 -13 20 0 44 -53 44 -95 0 -45 -42 -89 -92 -99 -19 -3 -59 -28 -92 -57 -71 -60 -91 -69 -157 -69 -27 0 -49 -4 -49 -10 0 -6 46 -10 118 -10 l118 0 29 30 c16 16 33 30 39 30 5 0 18 7 27 16 10 9 47 31 81 48 l63 31 3 68 c3 65 -9 97 -35 97 -5 0 -22 14 -38 30 -16 17 -37 30 -47 30 -10 0 -18 5 -18 10 0 6 -13 10 -30 10 -16 0 -30 5 -30 10 0 6 -7 10 -15 10 -8 0 -28 14 -43 30 -16 17 -37 30 -46 30 -9 0 -16 5 -16 10 0 13 -47 13 -55 0z" transform="translate(0,90) scale(0.1,-0.1)" stroke="none" fill="#BF7537"/>

<path d="M140 470 c0 -5 -13 -10 -29 -10 -16 0 -31 -4 -33 -9 -1 -5 -19 -18 -38 -28 l-35 -20 0 -74 c0 -66 2 -75 22 -85 13 -6 31 -18 41 -27 10 -10 26 -17 35 -17 9 0 17 -4 17 -10 0 -5 6 -10 13 -10 15 0 67 -51 67 -65 0 -17 84 -95 102 -95 10 0 18 -4 18 -10 0 -6 50 -10 130 -10 80 0 130 4 130 10 0 6 18 10 40 10 22 0 40 5 40 10 0 6 9 10 20 10 11 0 20 5 20 10 0 6 7 10 15 10 16 0 145 125 145 141 0 16 -14 9 -45 -22 -49 -50 -111 -89 -203 -126 -75 -30 -95 -34 -152 -31 -80 5 -149 45 -196 117 -23 34 -47 55 -85 74 -84 41 -92 50 -97 111 -7 84 0 99 57 121 27 10 48 23 45 27 -7 12 -44 10 -44 -2z" transform="translate(0,90) scale(0.1,-0.1)" stroke="none" fill="#BF7537"/>

</g>

<g id="4" transform="translate(0,360.0)scale(0.8,0.8)">

<path d="M360 590 c0 -5 -9 -10 -20 -10 -11 0 -20 -4 -20 -10 0 -5 -9 -10 -20 -10 -11 0 -20 -4 -20 -10 0 -5 -8 -10 -18 -10 -19 0 -62 -42 -62 -60 0 -15 10 -12 60 15 141 77 163 86 213 79 39 -5 47 -3 47 10 0 13 -13 16 -80 16 -47 0 -80 -4 -80 -10z" transform="translate(0,90) scale(0.1,-0.1)" stroke="none" fill="#BF7537"/>

<path d="M955 635 c-14 -13 -25 -36 -25 -51 0 -38 40 -144 55 -144 28 0 49 41 53 103 3 52 0 66 -18 90 -26 33 -34 34 -65 2z" transform="translate(0,90) scale(0.1,-0.1)" stroke="none" fill="#BF7537"/>

<path d="M1260 353 c-62 -27 -65 -30 -68 -50 -4 -27 17 -42 78 -58 76 -20 140 9 140 65 0 21 -8 30 -38 43 -47 20 -66 21 -112 0z" transform="translate(0,90) scale(0.1,-0.1)" stroke="none" fill="#BF7537"/>

<path d="M535 354 c-36 -39 -33 -79 8 -105 27 -17 43 -20 105 -15 79 5 122 25 122 55 0 24 -24 43 -87 69 -72 30 -118 29 -148 -4z" transform="translate(0,90) scale(0.1,-0.1)" stroke="none" fill="#BF7537"/>

<path d="M880 870 c-14 -16 -33 -30 -42 -30 -10 0 -18 -4 -18 -10 0 -5 -13 -10 -28 -10 -16 0 -34 -8 -42 -20 -8 -11 -20 -20 -28 -20 -7 0 -24 -11 -38 -25 -21 -21 -25 -33 -22 -75 2 -28 8 -50 13 -50 6 1 9 12 7 26 -2 16 7 41 23 64 21 31 38 42 80 55 29 8 68 29 86 46 18 17 48 33 66 36 34 6 93 -12 93 -28 0 -18 41 -49 65 -49 15 0 41 -14 61 -33 49 -45 57 -109 23 -194 -13 -32 -27 -62 -31 -67 -13 -16 -9 -26 10 -26 28 0 42 21 42 62 0 21 5 38 10 38 6 0 10 9 10 20 0 11 5 20 10 20 6 0 10 27 10 60 0 33 -4 60 -10 60 -5 0 -10 9 -10 20 0 11 -4 20 -10 20 -5 0 -10 8 -10 18 0 29 -21 42 -66 42 -36 0 -48 6 -82 40 -36 37 -43 40 -93 40 -47 -1 -57 -4 -79 -30z" transform="translate(0,90) scale(0.1,-0.1)" stroke="none" fill="#BF7537"/>

<path d="M1525 490 c-3 -6 5 -14 19 -19 13 -6 38 -25 55 -44 21 -22 48 -38 81 -47 28 -8 56 -20 62 -27 6 -7 17 -13 24 -13 20 0 44 -53 44 -95 0 -45 -42 -89 -92 -99 -19 -3 -59 -28 -92 -57 -71 -60 -91 -69 -157 -69 -27 0 -49 -4 -49 -10 0 -6 46 -10 118 -10 l118 0 29 30 c16 16 33 30 39 30 5 0 18 7 27 16 10 9 47 31 81 48 l63 31 3 68 c3 65 -9 97 -35 97 -5 0 -22 14 -38 30 -16 17 -37 30 -47 30 -10 0 -18 5 -18 10 0 6 -13 10 -30 10 -16 0 -30 5 -30 10 0 6 -7 10 -15 10 -8 0 -28 14 -43 30 -16 17 -37 30 -46 30 -9 0 -16 5 -16 10 0 13 -47 13 -55 0z" transform="translate(0,90) scale(0.1,-0.1)" stroke="none" fill="#BF7537"/>

<path d="M140 470 c0 -5 -13 -10 -29 -10 -16 0 -31 -4 -33 -9 -1 -5 -19 -18 -38 -28 l-35 -20 0 -74 c0 -66 2 -75 22 -85 13 -6 31 -18 41 -27 10 -10 26 -17 35 -17 9 0 17 -4 17 -10 0 -5 6 -10 13 -10 15 0 67 -51 67 -65 0 -17 84 -95 102 -95 10 0 18 -4 18 -10 0 -6 50 -10 130 -10 80 0 130 4 130 10 0 6 18 10 40 10 22 0 40 5 40 10 0 6 9 10 20 10 11 0 20 5 20 10 0 6 7 10 15 10 16 0 145 125 145 141 0 16 -14 9 -45 -22 -49 -50 -111 -89 -203 -126 -75 -30 -95 -34 -152 -31 -80 5 -149 45 -196 117 -23 34 -47 55 -85 74 -84 41 -92 50 -97 111 -7 84 0 99 57 121 27 10 48 23 45 27 -7 12 -44 10 -44 -2z" transform="translate(0,90) scale(0.1,-0.1)" stroke="none" fill="#BF7537"/>

</g>

</g>
</svg>