<?xml version="1.0" standalone="no"?>
<!DOCTYPE svg PUBLIC "-//W3C//DTD SVG 20010904//EN"
 "http://www.w3.org/TR/2001/REC-SVG-20010904/DTD/svg10.dtd">
<svg version="1.0" xmlns="http://www.w3.org/2000/svg" 
width="144.000000pt" height="160.000000pt" viewBox="0 0 144.000000 160.000000"
preserveAspectRatio = "xMidYMid meet" >
<metadata>
Created by ZoeQU, 2022
</metadata>
<rect width="144.000000" height="160.000000" fill="#F8A086"/>
<path d="M150 1145 c-17 -21 -40 -148 -40 -223 0 -102 56 -268 68 -204 2 9 8 21 12 25 4 5 2 34 -6 65 -18 75 -17 174 1 242 21 77 20 110 -4 110 -10 0 -24 -7 -31 -15z" transform="translate(0.000000,160.000000) scale(0.100000,-0.100000)" stroke="none" fill="#A19C60"/>

<path d="M508 1506 c-31 -12 -60 -25 -64 -29 -4 -4 -13 -7 -20 -7 -7 0 -32 -12 -56 -27 -24 -16 -52 -34 -63 -41 -11 -7 -35 -22 -53 -33 -18 -12 -40 -35 -49 -53 -8 -17 -27 -42 -42 -56 -15 -14 -34 -51 -45 -85 -10 -33 -24 -71 -31 -85 -20 -41 -38 -165 -32 -217 6 -52 59 -239 77 -274 6 -11 19 -29 28 -39 9 -10 36 -41 60 -69 77 -91 213 -196 314 -245 51 -24 104 -47 118 -51 14 -4 34 -15 45 -25 11 -10 31 -20 45 -23 14 -3 45 -12 70 -21 25 -8 63 -20 85 -25 23 -6 50 -19 61 -30 12 -10 35 -26 52 -35 18 -9 32 -21 32 -26 0 -6 11 -10 25 -10 16 0 25 6 25 15 0 8 -7 15 -15 15 -32 0 -29 32 5 61 18 16 31 29 28 29 -9 0 -73 -22 -95 -32 -17 -8 -26 -8 -38 2 -9 8 -57 24 -107 36 -49 13 -118 36 -151 53 -34 16 -66 30 -72 32 -30 11 -185 102 -196 115 -7 8 -26 22 -43 31 -63 32 -166 128 -227 212 -75 102 -120 320 -92 445 34 150 110 283 209 364 166 137 440 165 636 66 18 -9 54 -34 80 -55 26 -22 50 -39 55 -39 9 0 63 -65 63 -76 0 -4 9 -17 19 -28 32 -34 141 -261 141 -293 0 -11 8 -46 19 -79 33 -102 42 -272 26 -478 -8 -107 -9 -109 -37 -120 -15 -6 -31 -19 -34 -29 -3 -10 -19 -34 -36 -53 -21 -23 -28 -39 -23 -52 6 -14 9 -13 15 10 9 30 44 69 80 88 26 14 40 1 40 -37 0 -16 6 -23 20 -23 30 0 34 39 11 90 -25 55 -25 69 -4 177 16 82 16 96 -1 252 -11 104 -24 181 -36 206 -10 22 -20 56 -23 75 -7 46 -80 199 -131 274 -23 33 -72 91 -111 130 -61 61 -80 74 -150 99 -99 36 -156 46 -265 45 -62 0 -101 -6 -142 -22z" transform="translate(0.000000,160.000000) scale(0.100000,-0.100000)" stroke="none" fill="#A19C60"/>

<path d="M560 1495 c-19 -8 -47 -14 -62 -14 -50 -1 -37 -17 48 -61 336 -172 572 -534 678 -1039 27 -128 32 -143 44 -126 4 6 19 16 33 22 25 11 26 16 34 120 16 205 7 375 -26 477 -11 33 -19 68 -19 79 0 32 -109 259 -141 293 -10 11 -19 24 -19 28 0 11 -54 76 -63 76 -5 0 -29 17 -55 39 -57 47 -92 65 -175 91 -82 26 -230 34 -277 15z" transform="translate(0.000000,160.000000) scale(0.100000,-0.100000)" stroke="none" fill="#905D35"/>

<path d="M264 1348 c-99 -106 -145 -191 -177 -334 -28 -125 17 -343 92 -445 61 -84 164 -180 227 -212 17 -9 36 -23 43 -31 11 -13 166 -104 196 -115 6 -2 38 -16 72 -32 33 -17 102 -40 151 -53 50 -12 98 -29 107 -36 12 -10 21 -11 34 -3 9 6 32 14 51 18 31 7 33 9 14 15 -51 19 -226 145 -295 212 -70 69 -180 201 -273 329 -96 132 -190 357 -217 519 -22 129 -22 138 0 175 11 19 19 35 18 35 -2 0 -21 -19 -43 -42z m-64 -215 c0 -16 -7 -53 -15 -83 -19 -69 -19 -167 0 -245 18 -75 19 -92 2 -98 -25 -9 -37 8 -57 81 -23 84 -25 169 -6 270 15 78 28 102 57 102 14 0 19 -7 19 -27z" transform="translate(0.000000,160.000000) scale(0.100000,-0.100000)" stroke="none" fill="#FBD984"/>

<path d="M400 1444 c-87 -37 -135 -99 -127 -163 23 -179 63 -312 137 -456 60 -117 88 -158 214 -318 110 -139 212 -237 336 -318 106 -69 134 -78 184 -60 18 7 28 6 36 -5 20 -23 32 -16 25 14 -4 22 0 33 20 52 31 29 31 39 -1 191 -76 362 -221 655 -421 851 -88 87 -156 137 -245 181 -92 45 -115 49 -158 31z" transform="translate(0.000000,160.000000) scale(0.100000,-0.100000)" stroke="none" fill="#C0D6BD"/>

</svg>