<?xml version="1.0" standalone="no"?>
<!DOCTYPE svg PUBLIC "-//W3C//DTD SVG 20010904//EN"
 "http://www.w3.org/TR/2001/REC-SVG-20010904/DTD/svg10.dtd">
<svg version="1.0" xmlns="http://www.w3.org/2000/svg" width="436pt" height="348pt" viewBox="0 0 436 348" preserveAspectRatio = "xMidYMid meet" >
<metadata>
Created by ZoeQu, written in 2022
</metadata>
<rect width="436" height="348" fill="#E8BF96"/>
<g id="row0" transform="translate(14,0.0)">
<g id="0" transform="translate(0.0,0)scale(1,1)">

<path d="M520 800 c-104 -29 -148 -50 -181 -87 -38 -44 -49 -72 -57 -148 l-7 -60 -70 -35 c-157 -79 -168 -95 -141 -199 9 -36 22 -83 27 -104 10 -37 12 -38 42 -32 18 4 49 13 69 20 l38 13 0 -33 c0 -65 56 -103 126 -84 75 21 98 116 39 166 -14 13 -22 23 -18 23 5 0 14 -5 19 -10 7 -7 28 -6 65 4 137 38 175 54 211 89 20 21 44 37 55 37 11 0 5 -6 -17 -18 -43 -21 -64 -62 -56 -107 21 -109 196 -92 196 19 0 40 -22 78 -55 93 -23 11 -24 13 -5 8 14 -4 36 -8 49 -9 25 -3 120 21 133 33 10 8 -44 192 -65 225 -10 14 -28 28 -42 31 -14 3 -36 7 -50 10 -15 3 -44 31 -77 74 -82 107 -105 115 -228 81z m162 -70 c42 -43 68 -113 51 -138 -12 -19 -73 -40 -120 -41 -30 -1 -32 2 -47 53 -21 71 -21 140 0 161 25 24 73 10 116 -35z m-193 -22 c24 -25 53 -119 49 -156 -3 -22 -11 -28 -63 -44 -105 -31 -127 -24 -139 44 -21 116 88 227 153 156z m-378 -334 c-12 -15 -21 -35 -21 -46 0 -11 -4 -16 -10 -13 -5 3 -10 12 -10 19 0 17 38 66 51 66 6 0 1 -12 -10 -26z m673 -100 c12 -12 13 -20 6 -35 -11 -20 -19 -23 -44 -13 -19 7 -21 50 -3 57 20 9 25 8 41 -9z m-594 -39 c0 -18 -48 -48 -66 -41 -8 3 -14 19 -14 37 0 28 2 30 16 18 13 -11 17 -10 26 5 8 13 13 15 24 5 8 -6 14 -17 14 -24z m141 4 c-24 -5 -56 -19 -70 -31 l-26 -23 20 24 c24 28 50 40 90 39 23 0 20 -2 -14 -9z m34 -99 c0 -29 -34 -40 -54 -17 -18 23 -2 49 28 45 20 -2 26 -8 26 -28z" transform="translate(0,87) scale(0.1,-0.1)" stroke="none" fill="#9B7044"/>

</g>

<g id="1" transform="translate(109.0,0)scale(1,1)">

<path d="M520 800 c-104 -29 -148 -50 -181 -87 -38 -44 -49 -72 -57 -148 l-7 -60 -70 -35 c-157 -79 -168 -95 -141 -199 9 -36 22 -83 27 -104 10 -37 12 -38 42 -32 18 4 49 13 69 20 l38 13 0 -33 c0 -65 56 -103 126 -84 75 21 98 116 39 166 -14 13 -22 23 -18 23 5 0 14 -5 19 -10 7 -7 28 -6 65 4 137 38 175 54 211 89 20 21 44 37 55 37 11 0 5 -6 -17 -18 -43 -21 -64 -62 -56 -107 21 -109 196 -92 196 19 0 40 -22 78 -55 93 -23 11 -24 13 -5 8 14 -4 36 -8 49 -9 25 -3 120 21 133 33 10 8 -44 192 -65 225 -10 14 -28 28 -42 31 -14 3 -36 7 -50 10 -15 3 -44 31 -77 74 -82 107 -105 115 -228 81z m162 -70 c42 -43 68 -113 51 -138 -12 -19 -73 -40 -120 -41 -30 -1 -32 2 -47 53 -21 71 -21 140 0 161 25 24 73 10 116 -35z m-193 -22 c24 -25 53 -119 49 -156 -3 -22 -11 -28 -63 -44 -105 -31 -127 -24 -139 44 -21 116 88 227 153 156z m-378 -334 c-12 -15 -21 -35 -21 -46 0 -11 -4 -16 -10 -13 -5 3 -10 12 -10 19 0 17 38 66 51 66 6 0 1 -12 -10 -26z m673 -100 c12 -12 13 -20 6 -35 -11 -20 -19 -23 -44 -13 -19 7 -21 50 -3 57 20 9 25 8 41 -9z m-594 -39 c0 -18 -48 -48 -66 -41 -8 3 -14 19 -14 37 0 28 2 30 16 18 13 -11 17 -10 26 5 8 13 13 15 24 5 8 -6 14 -17 14 -24z m141 4 c-24 -5 -56 -19 -70 -31 l-26 -23 20 24 c24 28 50 40 90 39 23 0 20 -2 -14 -9z m34 -99 c0 -29 -34 -40 -54 -17 -18 23 -2 49 28 45 20 -2 26 -8 26 -28z" transform="translate(0,87) scale(0.1,-0.1)" stroke="none" fill="#9B7044"/>

</g>

<g id="2" transform="translate(218.0,0)scale(1,1)">

<path d="M520 800 c-104 -29 -148 -50 -181 -87 -38 -44 -49 -72 -57 -148 l-7 -60 -70 -35 c-157 -79 -168 -95 -141 -199 9 -36 22 -83 27 -104 10 -37 12 -38 42 -32 18 4 49 13 69 20 l38 13 0 -33 c0 -65 56 -103 126 -84 75 21 98 116 39 166 -14 13 -22 23 -18 23 5 0 14 -5 19 -10 7 -7 28 -6 65 4 137 38 175 54 211 89 20 21 44 37 55 37 11 0 5 -6 -17 -18 -43 -21 -64 -62 -56 -107 21 -109 196 -92 196 19 0 40 -22 78 -55 93 -23 11 -24 13 -5 8 14 -4 36 -8 49 -9 25 -3 120 21 133 33 10 8 -44 192 -65 225 -10 14 -28 28 -42 31 -14 3 -36 7 -50 10 -15 3 -44 31 -77 74 -82 107 -105 115 -228 81z m162 -70 c42 -43 68 -113 51 -138 -12 -19 -73 -40 -120 -41 -30 -1 -32 2 -47 53 -21 71 -21 140 0 161 25 24 73 10 116 -35z m-193 -22 c24 -25 53 -119 49 -156 -3 -22 -11 -28 -63 -44 -105 -31 -127 -24 -139 44 -21 116 88 227 153 156z m-378 -334 c-12 -15 -21 -35 -21 -46 0 -11 -4 -16 -10 -13 -5 3 -10 12 -10 19 0 17 38 66 51 66 6 0 1 -12 -10 -26z m673 -100 c12 -12 13 -20 6 -35 -11 -20 -19 -23 -44 -13 -19 7 -21 50 -3 57 20 9 25 8 41 -9z m-594 -39 c0 -18 -48 -48 -66 -41 -8 3 -14 19 -14 37 0 28 2 30 16 18 13 -11 17 -10 26 5 8 13 13 15 24 5 8 -6 14 -17 14 -24z m141 4 c-24 -5 -56 -19 -70 -31 l-26 -23 20 24 c24 28 50 40 90 39 23 0 20 -2 -14 -9z m34 -99 c0 -29 -34 -40 -54 -17 -18 23 -2 49 28 45 20 -2 26 -8 26 -28z" transform="translate(0,87) scale(0.1,-0.1)" stroke="none" fill="#9B7044"/>

</g>

<g id="3" transform="translate(327.0,0)scale(1,1)">

<path d="M520 800 c-104 -29 -148 -50 -181 -87 -38 -44 -49 -72 -57 -148 l-7 -60 -70 -35 c-157 -79 -168 -95 -141 -199 9 -36 22 -83 27 -104 10 -37 12 -38 42 -32 18 4 49 13 69 20 l38 13 0 -33 c0 -65 56 -103 126 -84 75 21 98 116 39 166 -14 13 -22 23 -18 23 5 0 14 -5 19 -10 7 -7 28 -6 65 4 137 38 175 54 211 89 20 21 44 37 55 37 11 0 5 -6 -17 -18 -43 -21 -64 -62 -56 -107 21 -109 196 -92 196 19 0 40 -22 78 -55 93 -23 11 -24 13 -5 8 14 -4 36 -8 49 -9 25 -3 120 21 133 33 10 8 -44 192 -65 225 -10 14 -28 28 -42 31 -14 3 -36 7 -50 10 -15 3 -44 31 -77 74 -82 107 -105 115 -228 81z m162 -70 c42 -43 68 -113 51 -138 -12 -19 -73 -40 -120 -41 -30 -1 -32 2 -47 53 -21 71 -21 140 0 161 25 24 73 10 116 -35z m-193 -22 c24 -25 53 -119 49 -156 -3 -22 -11 -28 -63 -44 -105 -31 -127 -24 -139 44 -21 116 88 227 153 156z m-378 -334 c-12 -15 -21 -35 -21 -46 0 -11 -4 -16 -10 -13 -5 3 -10 12 -10 19 0 17 38 66 51 66 6 0 1 -12 -10 -26z m673 -100 c12 -12 13 -20 6 -35 -11 -20 -19 -23 -44 -13 -19 7 -21 50 -3 57 20 9 25 8 41 -9z m-594 -39 c0 -18 -48 -48 -66 -41 -8 3 -14 19 -14 37 0 28 2 30 16 18 13 -11 17 -10 26 5 8 13 13 15 24 5 8 -6 14 -17 14 -24z m141 4 c-24 -5 -56 -19 -70 -31 l-26 -23 20 24 c24 28 50 40 90 39 23 0 20 -2 -14 -9z m34 -99 c0 -29 -34 -40 -54 -17 -18 23 -2 49 28 45 20 -2 26 -8 26 -28z" transform="translate(0,87) scale(0.1,-0.1)" stroke="none" fill="#9B7044"/>

</g>

<g id="4" transform="translate(436.0,0)scale(1,1)">

<path d="M520 800 c-104 -29 -148 -50 -181 -87 -38 -44 -49 -72 -57 -148 l-7 -60 -70 -35 c-157 -79 -168 -95 -141 -199 9 -36 22 -83 27 -104 10 -37 12 -38 42 -32 18 4 49 13 69 20 l38 13 0 -33 c0 -65 56 -103 126 -84 75 21 98 116 39 166 -14 13 -22 23 -18 23 5 0 14 -5 19 -10 7 -7 28 -6 65 4 137 38 175 54 211 89 20 21 44 37 55 37 11 0 5 -6 -17 -18 -43 -21 -64 -62 -56 -107 21 -109 196 -92 196 19 0 40 -22 78 -55 93 -23 11 -24 13 -5 8 14 -4 36 -8 49 -9 25 -3 120 21 133 33 10 8 -44 192 -65 225 -10 14 -28 28 -42 31 -14 3 -36 7 -50 10 -15 3 -44 31 -77 74 -82 107 -105 115 -228 81z m162 -70 c42 -43 68 -113 51 -138 -12 -19 -73 -40 -120 -41 -30 -1 -32 2 -47 53 -21 71 -21 140 0 161 25 24 73 10 116 -35z m-193 -22 c24 -25 53 -119 49 -156 -3 -22 -11 -28 -63 -44 -105 -31 -127 -24 -139 44 -21 116 88 227 153 156z m-378 -334 c-12 -15 -21 -35 -21 -46 0 -11 -4 -16 -10 -13 -5 3 -10 12 -10 19 0 17 38 66 51 66 6 0 1 -12 -10 -26z m673 -100 c12 -12 13 -20 6 -35 -11 -20 -19 -23 -44 -13 -19 7 -21 50 -3 57 20 9 25 8 41 -9z m-594 -39 c0 -18 -48 -48 -66 -41 -8 3 -14 19 -14 37 0 28 2 30 16 18 13 -11 17 -10 26 5 8 13 13 15 24 5 8 -6 14 -17 14 -24z m141 4 c-24 -5 -56 -19 -70 -31 l-26 -23 20 24 c24 28 50 40 90 39 23 0 20 -2 -14 -9z m34 -99 c0 -29 -34 -40 -54 -17 -18 23 -2 49 28 45 20 -2 26 -8 26 -28z" transform="translate(0,87) scale(0.1,-0.1)" stroke="none" fill="#9B7044"/>

</g>

</g>
<g id="row1" transform="translate(14,87.0)">
<g id="0" transform="translate(0.0,0)scale(1,1)">

<path d="M520 800 c-104 -29 -148 -50 -181 -87 -38 -44 -49 -72 -57 -148 l-7 -60 -70 -35 c-157 -79 -168 -95 -141 -199 9 -36 22 -83 27 -104 10 -37 12 -38 42 -32 18 4 49 13 69 20 l38 13 0 -33 c0 -65 56 -103 126 -84 75 21 98 116 39 166 -14 13 -22 23 -18 23 5 0 14 -5 19 -10 7 -7 28 -6 65 4 137 38 175 54 211 89 20 21 44 37 55 37 11 0 5 -6 -17 -18 -43 -21 -64 -62 -56 -107 21 -109 196 -92 196 19 0 40 -22 78 -55 93 -23 11 -24 13 -5 8 14 -4 36 -8 49 -9 25 -3 120 21 133 33 10 8 -44 192 -65 225 -10 14 -28 28 -42 31 -14 3 -36 7 -50 10 -15 3 -44 31 -77 74 -82 107 -105 115 -228 81z m162 -70 c42 -43 68 -113 51 -138 -12 -19 -73 -40 -120 -41 -30 -1 -32 2 -47 53 -21 71 -21 140 0 161 25 24 73 10 116 -35z m-193 -22 c24 -25 53 -119 49 -156 -3 -22 -11 -28 -63 -44 -105 -31 -127 -24 -139 44 -21 116 88 227 153 156z m-378 -334 c-12 -15 -21 -35 -21 -46 0 -11 -4 -16 -10 -13 -5 3 -10 12 -10 19 0 17 38 66 51 66 6 0 1 -12 -10 -26z m673 -100 c12 -12 13 -20 6 -35 -11 -20 -19 -23 -44 -13 -19 7 -21 50 -3 57 20 9 25 8 41 -9z m-594 -39 c0 -18 -48 -48 -66 -41 -8 3 -14 19 -14 37 0 28 2 30 16 18 13 -11 17 -10 26 5 8 13 13 15 24 5 8 -6 14 -17 14 -24z m141 4 c-24 -5 -56 -19 -70 -31 l-26 -23 20 24 c24 28 50 40 90 39 23 0 20 -2 -14 -9z m34 -99 c0 -29 -34 -40 -54 -17 -18 23 -2 49 28 45 20 -2 26 -8 26 -28z" transform="translate(0,87) scale(0.1,-0.1)" stroke="none" fill="#9B7044"/>

</g>

<g id="1" transform="translate(109.0,0)scale(1,1)">

<path d="M520 800 c-104 -29 -148 -50 -181 -87 -38 -44 -49 -72 -57 -148 l-7 -60 -70 -35 c-157 -79 -168 -95 -141 -199 9 -36 22 -83 27 -104 10 -37 12 -38 42 -32 18 4 49 13 69 20 l38 13 0 -33 c0 -65 56 -103 126 -84 75 21 98 116 39 166 -14 13 -22 23 -18 23 5 0 14 -5 19 -10 7 -7 28 -6 65 4 137 38 175 54 211 89 20 21 44 37 55 37 11 0 5 -6 -17 -18 -43 -21 -64 -62 -56 -107 21 -109 196 -92 196 19 0 40 -22 78 -55 93 -23 11 -24 13 -5 8 14 -4 36 -8 49 -9 25 -3 120 21 133 33 10 8 -44 192 -65 225 -10 14 -28 28 -42 31 -14 3 -36 7 -50 10 -15 3 -44 31 -77 74 -82 107 -105 115 -228 81z m162 -70 c42 -43 68 -113 51 -138 -12 -19 -73 -40 -120 -41 -30 -1 -32 2 -47 53 -21 71 -21 140 0 161 25 24 73 10 116 -35z m-193 -22 c24 -25 53 -119 49 -156 -3 -22 -11 -28 -63 -44 -105 -31 -127 -24 -139 44 -21 116 88 227 153 156z m-378 -334 c-12 -15 -21 -35 -21 -46 0 -11 -4 -16 -10 -13 -5 3 -10 12 -10 19 0 17 38 66 51 66 6 0 1 -12 -10 -26z m673 -100 c12 -12 13 -20 6 -35 -11 -20 -19 -23 -44 -13 -19 7 -21 50 -3 57 20 9 25 8 41 -9z m-594 -39 c0 -18 -48 -48 -66 -41 -8 3 -14 19 -14 37 0 28 2 30 16 18 13 -11 17 -10 26 5 8 13 13 15 24 5 8 -6 14 -17 14 -24z m141 4 c-24 -5 -56 -19 -70 -31 l-26 -23 20 24 c24 28 50 40 90 39 23 0 20 -2 -14 -9z m34 -99 c0 -29 -34 -40 -54 -17 -18 23 -2 49 28 45 20 -2 26 -8 26 -28z" transform="translate(0,87) scale(0.1,-0.1)" stroke="none" fill="#9B7044"/>

</g>

<g id="2" transform="translate(218.0,0)scale(1,1)">

<path d="M520 800 c-104 -29 -148 -50 -181 -87 -38 -44 -49 -72 -57 -148 l-7 -60 -70 -35 c-157 -79 -168 -95 -141 -199 9 -36 22 -83 27 -104 10 -37 12 -38 42 -32 18 4 49 13 69 20 l38 13 0 -33 c0 -65 56 -103 126 -84 75 21 98 116 39 166 -14 13 -22 23 -18 23 5 0 14 -5 19 -10 7 -7 28 -6 65 4 137 38 175 54 211 89 20 21 44 37 55 37 11 0 5 -6 -17 -18 -43 -21 -64 -62 -56 -107 21 -109 196 -92 196 19 0 40 -22 78 -55 93 -23 11 -24 13 -5 8 14 -4 36 -8 49 -9 25 -3 120 21 133 33 10 8 -44 192 -65 225 -10 14 -28 28 -42 31 -14 3 -36 7 -50 10 -15 3 -44 31 -77 74 -82 107 -105 115 -228 81z m162 -70 c42 -43 68 -113 51 -138 -12 -19 -73 -40 -120 -41 -30 -1 -32 2 -47 53 -21 71 -21 140 0 161 25 24 73 10 116 -35z m-193 -22 c24 -25 53 -119 49 -156 -3 -22 -11 -28 -63 -44 -105 -31 -127 -24 -139 44 -21 116 88 227 153 156z m-378 -334 c-12 -15 -21 -35 -21 -46 0 -11 -4 -16 -10 -13 -5 3 -10 12 -10 19 0 17 38 66 51 66 6 0 1 -12 -10 -26z m673 -100 c12 -12 13 -20 6 -35 -11 -20 -19 -23 -44 -13 -19 7 -21 50 -3 57 20 9 25 8 41 -9z m-594 -39 c0 -18 -48 -48 -66 -41 -8 3 -14 19 -14 37 0 28 2 30 16 18 13 -11 17 -10 26 5 8 13 13 15 24 5 8 -6 14 -17 14 -24z m141 4 c-24 -5 -56 -19 -70 -31 l-26 -23 20 24 c24 28 50 40 90 39 23 0 20 -2 -14 -9z m34 -99 c0 -29 -34 -40 -54 -17 -18 23 -2 49 28 45 20 -2 26 -8 26 -28z" transform="translate(0,87) scale(0.1,-0.1)" stroke="none" fill="#9B7044"/>

</g>

<g id="3" transform="translate(327.0,0)scale(1,1)">

<path d="M520 800 c-104 -29 -148 -50 -181 -87 -38 -44 -49 -72 -57 -148 l-7 -60 -70 -35 c-157 -79 -168 -95 -141 -199 9 -36 22 -83 27 -104 10 -37 12 -38 42 -32 18 4 49 13 69 20 l38 13 0 -33 c0 -65 56 -103 126 -84 75 21 98 116 39 166 -14 13 -22 23 -18 23 5 0 14 -5 19 -10 7 -7 28 -6 65 4 137 38 175 54 211 89 20 21 44 37 55 37 11 0 5 -6 -17 -18 -43 -21 -64 -62 -56 -107 21 -109 196 -92 196 19 0 40 -22 78 -55 93 -23 11 -24 13 -5 8 14 -4 36 -8 49 -9 25 -3 120 21 133 33 10 8 -44 192 -65 225 -10 14 -28 28 -42 31 -14 3 -36 7 -50 10 -15 3 -44 31 -77 74 -82 107 -105 115 -228 81z m162 -70 c42 -43 68 -113 51 -138 -12 -19 -73 -40 -120 -41 -30 -1 -32 2 -47 53 -21 71 -21 140 0 161 25 24 73 10 116 -35z m-193 -22 c24 -25 53 -119 49 -156 -3 -22 -11 -28 -63 -44 -105 -31 -127 -24 -139 44 -21 116 88 227 153 156z m-378 -334 c-12 -15 -21 -35 -21 -46 0 -11 -4 -16 -10 -13 -5 3 -10 12 -10 19 0 17 38 66 51 66 6 0 1 -12 -10 -26z m673 -100 c12 -12 13 -20 6 -35 -11 -20 -19 -23 -44 -13 -19 7 -21 50 -3 57 20 9 25 8 41 -9z m-594 -39 c0 -18 -48 -48 -66 -41 -8 3 -14 19 -14 37 0 28 2 30 16 18 13 -11 17 -10 26 5 8 13 13 15 24 5 8 -6 14 -17 14 -24z m141 4 c-24 -5 -56 -19 -70 -31 l-26 -23 20 24 c24 28 50 40 90 39 23 0 20 -2 -14 -9z m34 -99 c0 -29 -34 -40 -54 -17 -18 23 -2 49 28 45 20 -2 26 -8 26 -28z" transform="translate(0,87) scale(0.1,-0.1)" stroke="none" fill="#9B7044"/>

</g>

<g id="4" transform="translate(436.0,0)scale(1,1)">

<path d="M520 800 c-104 -29 -148 -50 -181 -87 -38 -44 -49 -72 -57 -148 l-7 -60 -70 -35 c-157 -79 -168 -95 -141 -199 9 -36 22 -83 27 -104 10 -37 12 -38 42 -32 18 4 49 13 69 20 l38 13 0 -33 c0 -65 56 -103 126 -84 75 21 98 116 39 166 -14 13 -22 23 -18 23 5 0 14 -5 19 -10 7 -7 28 -6 65 4 137 38 175 54 211 89 20 21 44 37 55 37 11 0 5 -6 -17 -18 -43 -21 -64 -62 -56 -107 21 -109 196 -92 196 19 0 40 -22 78 -55 93 -23 11 -24 13 -5 8 14 -4 36 -8 49 -9 25 -3 120 21 133 33 10 8 -44 192 -65 225 -10 14 -28 28 -42 31 -14 3 -36 7 -50 10 -15 3 -44 31 -77 74 -82 107 -105 115 -228 81z m162 -70 c42 -43 68 -113 51 -138 -12 -19 -73 -40 -120 -41 -30 -1 -32 2 -47 53 -21 71 -21 140 0 161 25 24 73 10 116 -35z m-193 -22 c24 -25 53 -119 49 -156 -3 -22 -11 -28 -63 -44 -105 -31 -127 -24 -139 44 -21 116 88 227 153 156z m-378 -334 c-12 -15 -21 -35 -21 -46 0 -11 -4 -16 -10 -13 -5 3 -10 12 -10 19 0 17 38 66 51 66 6 0 1 -12 -10 -26z m673 -100 c12 -12 13 -20 6 -35 -11 -20 -19 -23 -44 -13 -19 7 -21 50 -3 57 20 9 25 8 41 -9z m-594 -39 c0 -18 -48 -48 -66 -41 -8 3 -14 19 -14 37 0 28 2 30 16 18 13 -11 17 -10 26 5 8 13 13 15 24 5 8 -6 14 -17 14 -24z m141 4 c-24 -5 -56 -19 -70 -31 l-26 -23 20 24 c24 28 50 40 90 39 23 0 20 -2 -14 -9z m34 -99 c0 -29 -34 -40 -54 -17 -18 23 -2 49 28 45 20 -2 26 -8 26 -28z" transform="translate(0,87) scale(0.1,-0.1)" stroke="none" fill="#9B7044"/>

</g>

</g>
<g id="row2" transform="translate(14,174.0)">
<g id="0" transform="translate(0.0,0)scale(1,1)">

<path d="M520 800 c-104 -29 -148 -50 -181 -87 -38 -44 -49 -72 -57 -148 l-7 -60 -70 -35 c-157 -79 -168 -95 -141 -199 9 -36 22 -83 27 -104 10 -37 12 -38 42 -32 18 4 49 13 69 20 l38 13 0 -33 c0 -65 56 -103 126 -84 75 21 98 116 39 166 -14 13 -22 23 -18 23 5 0 14 -5 19 -10 7 -7 28 -6 65 4 137 38 175 54 211 89 20 21 44 37 55 37 11 0 5 -6 -17 -18 -43 -21 -64 -62 -56 -107 21 -109 196 -92 196 19 0 40 -22 78 -55 93 -23 11 -24 13 -5 8 14 -4 36 -8 49 -9 25 -3 120 21 133 33 10 8 -44 192 -65 225 -10 14 -28 28 -42 31 -14 3 -36 7 -50 10 -15 3 -44 31 -77 74 -82 107 -105 115 -228 81z m162 -70 c42 -43 68 -113 51 -138 -12 -19 -73 -40 -120 -41 -30 -1 -32 2 -47 53 -21 71 -21 140 0 161 25 24 73 10 116 -35z m-193 -22 c24 -25 53 -119 49 -156 -3 -22 -11 -28 -63 -44 -105 -31 -127 -24 -139 44 -21 116 88 227 153 156z m-378 -334 c-12 -15 -21 -35 -21 -46 0 -11 -4 -16 -10 -13 -5 3 -10 12 -10 19 0 17 38 66 51 66 6 0 1 -12 -10 -26z m673 -100 c12 -12 13 -20 6 -35 -11 -20 -19 -23 -44 -13 -19 7 -21 50 -3 57 20 9 25 8 41 -9z m-594 -39 c0 -18 -48 -48 -66 -41 -8 3 -14 19 -14 37 0 28 2 30 16 18 13 -11 17 -10 26 5 8 13 13 15 24 5 8 -6 14 -17 14 -24z m141 4 c-24 -5 -56 -19 -70 -31 l-26 -23 20 24 c24 28 50 40 90 39 23 0 20 -2 -14 -9z m34 -99 c0 -29 -34 -40 -54 -17 -18 23 -2 49 28 45 20 -2 26 -8 26 -28z" transform="translate(0,87) scale(0.1,-0.1)" stroke="none" fill="#9B7044"/>

</g>

<g id="1" transform="translate(109.0,0)scale(1,1)">

<path d="M520 800 c-104 -29 -148 -50 -181 -87 -38 -44 -49 -72 -57 -148 l-7 -60 -70 -35 c-157 -79 -168 -95 -141 -199 9 -36 22 -83 27 -104 10 -37 12 -38 42 -32 18 4 49 13 69 20 l38 13 0 -33 c0 -65 56 -103 126 -84 75 21 98 116 39 166 -14 13 -22 23 -18 23 5 0 14 -5 19 -10 7 -7 28 -6 65 4 137 38 175 54 211 89 20 21 44 37 55 37 11 0 5 -6 -17 -18 -43 -21 -64 -62 -56 -107 21 -109 196 -92 196 19 0 40 -22 78 -55 93 -23 11 -24 13 -5 8 14 -4 36 -8 49 -9 25 -3 120 21 133 33 10 8 -44 192 -65 225 -10 14 -28 28 -42 31 -14 3 -36 7 -50 10 -15 3 -44 31 -77 74 -82 107 -105 115 -228 81z m162 -70 c42 -43 68 -113 51 -138 -12 -19 -73 -40 -120 -41 -30 -1 -32 2 -47 53 -21 71 -21 140 0 161 25 24 73 10 116 -35z m-193 -22 c24 -25 53 -119 49 -156 -3 -22 -11 -28 -63 -44 -105 -31 -127 -24 -139 44 -21 116 88 227 153 156z m-378 -334 c-12 -15 -21 -35 -21 -46 0 -11 -4 -16 -10 -13 -5 3 -10 12 -10 19 0 17 38 66 51 66 6 0 1 -12 -10 -26z m673 -100 c12 -12 13 -20 6 -35 -11 -20 -19 -23 -44 -13 -19 7 -21 50 -3 57 20 9 25 8 41 -9z m-594 -39 c0 -18 -48 -48 -66 -41 -8 3 -14 19 -14 37 0 28 2 30 16 18 13 -11 17 -10 26 5 8 13 13 15 24 5 8 -6 14 -17 14 -24z m141 4 c-24 -5 -56 -19 -70 -31 l-26 -23 20 24 c24 28 50 40 90 39 23 0 20 -2 -14 -9z m34 -99 c0 -29 -34 -40 -54 -17 -18 23 -2 49 28 45 20 -2 26 -8 26 -28z" transform="translate(0,87) scale(0.1,-0.1)" stroke="none" fill="#9B7044"/>

</g>

<g id="2" transform="translate(218.0,0)scale(1,1)">

<path d="M520 800 c-104 -29 -148 -50 -181 -87 -38 -44 -49 -72 -57 -148 l-7 -60 -70 -35 c-157 -79 -168 -95 -141 -199 9 -36 22 -83 27 -104 10 -37 12 -38 42 -32 18 4 49 13 69 20 l38 13 0 -33 c0 -65 56 -103 126 -84 75 21 98 116 39 166 -14 13 -22 23 -18 23 5 0 14 -5 19 -10 7 -7 28 -6 65 4 137 38 175 54 211 89 20 21 44 37 55 37 11 0 5 -6 -17 -18 -43 -21 -64 -62 -56 -107 21 -109 196 -92 196 19 0 40 -22 78 -55 93 -23 11 -24 13 -5 8 14 -4 36 -8 49 -9 25 -3 120 21 133 33 10 8 -44 192 -65 225 -10 14 -28 28 -42 31 -14 3 -36 7 -50 10 -15 3 -44 31 -77 74 -82 107 -105 115 -228 81z m162 -70 c42 -43 68 -113 51 -138 -12 -19 -73 -40 -120 -41 -30 -1 -32 2 -47 53 -21 71 -21 140 0 161 25 24 73 10 116 -35z m-193 -22 c24 -25 53 -119 49 -156 -3 -22 -11 -28 -63 -44 -105 -31 -127 -24 -139 44 -21 116 88 227 153 156z m-378 -334 c-12 -15 -21 -35 -21 -46 0 -11 -4 -16 -10 -13 -5 3 -10 12 -10 19 0 17 38 66 51 66 6 0 1 -12 -10 -26z m673 -100 c12 -12 13 -20 6 -35 -11 -20 -19 -23 -44 -13 -19 7 -21 50 -3 57 20 9 25 8 41 -9z m-594 -39 c0 -18 -48 -48 -66 -41 -8 3 -14 19 -14 37 0 28 2 30 16 18 13 -11 17 -10 26 5 8 13 13 15 24 5 8 -6 14 -17 14 -24z m141 4 c-24 -5 -56 -19 -70 -31 l-26 -23 20 24 c24 28 50 40 90 39 23 0 20 -2 -14 -9z m34 -99 c0 -29 -34 -40 -54 -17 -18 23 -2 49 28 45 20 -2 26 -8 26 -28z" transform="translate(0,87) scale(0.1,-0.1)" stroke="none" fill="#9B7044"/>

</g>

<g id="3" transform="translate(327.0,0)scale(1,1)">

<path d="M520 800 c-104 -29 -148 -50 -181 -87 -38 -44 -49 -72 -57 -148 l-7 -60 -70 -35 c-157 -79 -168 -95 -141 -199 9 -36 22 -83 27 -104 10 -37 12 -38 42 -32 18 4 49 13 69 20 l38 13 0 -33 c0 -65 56 -103 126 -84 75 21 98 116 39 166 -14 13 -22 23 -18 23 5 0 14 -5 19 -10 7 -7 28 -6 65 4 137 38 175 54 211 89 20 21 44 37 55 37 11 0 5 -6 -17 -18 -43 -21 -64 -62 -56 -107 21 -109 196 -92 196 19 0 40 -22 78 -55 93 -23 11 -24 13 -5 8 14 -4 36 -8 49 -9 25 -3 120 21 133 33 10 8 -44 192 -65 225 -10 14 -28 28 -42 31 -14 3 -36 7 -50 10 -15 3 -44 31 -77 74 -82 107 -105 115 -228 81z m162 -70 c42 -43 68 -113 51 -138 -12 -19 -73 -40 -120 -41 -30 -1 -32 2 -47 53 -21 71 -21 140 0 161 25 24 73 10 116 -35z m-193 -22 c24 -25 53 -119 49 -156 -3 -22 -11 -28 -63 -44 -105 -31 -127 -24 -139 44 -21 116 88 227 153 156z m-378 -334 c-12 -15 -21 -35 -21 -46 0 -11 -4 -16 -10 -13 -5 3 -10 12 -10 19 0 17 38 66 51 66 6 0 1 -12 -10 -26z m673 -100 c12 -12 13 -20 6 -35 -11 -20 -19 -23 -44 -13 -19 7 -21 50 -3 57 20 9 25 8 41 -9z m-594 -39 c0 -18 -48 -48 -66 -41 -8 3 -14 19 -14 37 0 28 2 30 16 18 13 -11 17 -10 26 5 8 13 13 15 24 5 8 -6 14 -17 14 -24z m141 4 c-24 -5 -56 -19 -70 -31 l-26 -23 20 24 c24 28 50 40 90 39 23 0 20 -2 -14 -9z m34 -99 c0 -29 -34 -40 -54 -17 -18 23 -2 49 28 45 20 -2 26 -8 26 -28z" transform="translate(0,87) scale(0.1,-0.1)" stroke="none" fill="#9B7044"/>

</g>

<g id="4" transform="translate(436.0,0)scale(1,1)">

<path d="M520 800 c-104 -29 -148 -50 -181 -87 -38 -44 -49 -72 -57 -148 l-7 -60 -70 -35 c-157 -79 -168 -95 -141 -199 9 -36 22 -83 27 -104 10 -37 12 -38 42 -32 18 4 49 13 69 20 l38 13 0 -33 c0 -65 56 -103 126 -84 75 21 98 116 39 166 -14 13 -22 23 -18 23 5 0 14 -5 19 -10 7 -7 28 -6 65 4 137 38 175 54 211 89 20 21 44 37 55 37 11 0 5 -6 -17 -18 -43 -21 -64 -62 -56 -107 21 -109 196 -92 196 19 0 40 -22 78 -55 93 -23 11 -24 13 -5 8 14 -4 36 -8 49 -9 25 -3 120 21 133 33 10 8 -44 192 -65 225 -10 14 -28 28 -42 31 -14 3 -36 7 -50 10 -15 3 -44 31 -77 74 -82 107 -105 115 -228 81z m162 -70 c42 -43 68 -113 51 -138 -12 -19 -73 -40 -120 -41 -30 -1 -32 2 -47 53 -21 71 -21 140 0 161 25 24 73 10 116 -35z m-193 -22 c24 -25 53 -119 49 -156 -3 -22 -11 -28 -63 -44 -105 -31 -127 -24 -139 44 -21 116 88 227 153 156z m-378 -334 c-12 -15 -21 -35 -21 -46 0 -11 -4 -16 -10 -13 -5 3 -10 12 -10 19 0 17 38 66 51 66 6 0 1 -12 -10 -26z m673 -100 c12 -12 13 -20 6 -35 -11 -20 -19 -23 -44 -13 -19 7 -21 50 -3 57 20 9 25 8 41 -9z m-594 -39 c0 -18 -48 -48 -66 -41 -8 3 -14 19 -14 37 0 28 2 30 16 18 13 -11 17 -10 26 5 8 13 13 15 24 5 8 -6 14 -17 14 -24z m141 4 c-24 -5 -56 -19 -70 -31 l-26 -23 20 24 c24 28 50 40 90 39 23 0 20 -2 -14 -9z m34 -99 c0 -29 -34 -40 -54 -17 -18 23 -2 49 28 45 20 -2 26 -8 26 -28z" transform="translate(0,87) scale(0.1,-0.1)" stroke="none" fill="#9B7044"/>

</g>

</g>
<g id="row3" transform="translate(14,261.0)">
<g id="0" transform="translate(0.0,0)scale(1,1)">

<path d="M520 800 c-104 -29 -148 -50 -181 -87 -38 -44 -49 -72 -57 -148 l-7 -60 -70 -35 c-157 -79 -168 -95 -141 -199 9 -36 22 -83 27 -104 10 -37 12 -38 42 -32 18 4 49 13 69 20 l38 13 0 -33 c0 -65 56 -103 126 -84 75 21 98 116 39 166 -14 13 -22 23 -18 23 5 0 14 -5 19 -10 7 -7 28 -6 65 4 137 38 175 54 211 89 20 21 44 37 55 37 11 0 5 -6 -17 -18 -43 -21 -64 -62 -56 -107 21 -109 196 -92 196 19 0 40 -22 78 -55 93 -23 11 -24 13 -5 8 14 -4 36 -8 49 -9 25 -3 120 21 133 33 10 8 -44 192 -65 225 -10 14 -28 28 -42 31 -14 3 -36 7 -50 10 -15 3 -44 31 -77 74 -82 107 -105 115 -228 81z m162 -70 c42 -43 68 -113 51 -138 -12 -19 -73 -40 -120 -41 -30 -1 -32 2 -47 53 -21 71 -21 140 0 161 25 24 73 10 116 -35z m-193 -22 c24 -25 53 -119 49 -156 -3 -22 -11 -28 -63 -44 -105 -31 -127 -24 -139 44 -21 116 88 227 153 156z m-378 -334 c-12 -15 -21 -35 -21 -46 0 -11 -4 -16 -10 -13 -5 3 -10 12 -10 19 0 17 38 66 51 66 6 0 1 -12 -10 -26z m673 -100 c12 -12 13 -20 6 -35 -11 -20 -19 -23 -44 -13 -19 7 -21 50 -3 57 20 9 25 8 41 -9z m-594 -39 c0 -18 -48 -48 -66 -41 -8 3 -14 19 -14 37 0 28 2 30 16 18 13 -11 17 -10 26 5 8 13 13 15 24 5 8 -6 14 -17 14 -24z m141 4 c-24 -5 -56 -19 -70 -31 l-26 -23 20 24 c24 28 50 40 90 39 23 0 20 -2 -14 -9z m34 -99 c0 -29 -34 -40 -54 -17 -18 23 -2 49 28 45 20 -2 26 -8 26 -28z" transform="translate(0,87) scale(0.1,-0.1)" stroke="none" fill="#9B7044"/>

</g>

<g id="1" transform="translate(109.0,0)scale(1,1)">

<path d="M520 800 c-104 -29 -148 -50 -181 -87 -38 -44 -49 -72 -57 -148 l-7 -60 -70 -35 c-157 -79 -168 -95 -141 -199 9 -36 22 -83 27 -104 10 -37 12 -38 42 -32 18 4 49 13 69 20 l38 13 0 -33 c0 -65 56 -103 126 -84 75 21 98 116 39 166 -14 13 -22 23 -18 23 5 0 14 -5 19 -10 7 -7 28 -6 65 4 137 38 175 54 211 89 20 21 44 37 55 37 11 0 5 -6 -17 -18 -43 -21 -64 -62 -56 -107 21 -109 196 -92 196 19 0 40 -22 78 -55 93 -23 11 -24 13 -5 8 14 -4 36 -8 49 -9 25 -3 120 21 133 33 10 8 -44 192 -65 225 -10 14 -28 28 -42 31 -14 3 -36 7 -50 10 -15 3 -44 31 -77 74 -82 107 -105 115 -228 81z m162 -70 c42 -43 68 -113 51 -138 -12 -19 -73 -40 -120 -41 -30 -1 -32 2 -47 53 -21 71 -21 140 0 161 25 24 73 10 116 -35z m-193 -22 c24 -25 53 -119 49 -156 -3 -22 -11 -28 -63 -44 -105 -31 -127 -24 -139 44 -21 116 88 227 153 156z m-378 -334 c-12 -15 -21 -35 -21 -46 0 -11 -4 -16 -10 -13 -5 3 -10 12 -10 19 0 17 38 66 51 66 6 0 1 -12 -10 -26z m673 -100 c12 -12 13 -20 6 -35 -11 -20 -19 -23 -44 -13 -19 7 -21 50 -3 57 20 9 25 8 41 -9z m-594 -39 c0 -18 -48 -48 -66 -41 -8 3 -14 19 -14 37 0 28 2 30 16 18 13 -11 17 -10 26 5 8 13 13 15 24 5 8 -6 14 -17 14 -24z m141 4 c-24 -5 -56 -19 -70 -31 l-26 -23 20 24 c24 28 50 40 90 39 23 0 20 -2 -14 -9z m34 -99 c0 -29 -34 -40 -54 -17 -18 23 -2 49 28 45 20 -2 26 -8 26 -28z" transform="translate(0,87) scale(0.1,-0.1)" stroke="none" fill="#9B7044"/>

</g>

<g id="2" transform="translate(218.0,0)scale(1,1)">

<path d="M520 800 c-104 -29 -148 -50 -181 -87 -38 -44 -49 -72 -57 -148 l-7 -60 -70 -35 c-157 -79 -168 -95 -141 -199 9 -36 22 -83 27 -104 10 -37 12 -38 42 -32 18 4 49 13 69 20 l38 13 0 -33 c0 -65 56 -103 126 -84 75 21 98 116 39 166 -14 13 -22 23 -18 23 5 0 14 -5 19 -10 7 -7 28 -6 65 4 137 38 175 54 211 89 20 21 44 37 55 37 11 0 5 -6 -17 -18 -43 -21 -64 -62 -56 -107 21 -109 196 -92 196 19 0 40 -22 78 -55 93 -23 11 -24 13 -5 8 14 -4 36 -8 49 -9 25 -3 120 21 133 33 10 8 -44 192 -65 225 -10 14 -28 28 -42 31 -14 3 -36 7 -50 10 -15 3 -44 31 -77 74 -82 107 -105 115 -228 81z m162 -70 c42 -43 68 -113 51 -138 -12 -19 -73 -40 -120 -41 -30 -1 -32 2 -47 53 -21 71 -21 140 0 161 25 24 73 10 116 -35z m-193 -22 c24 -25 53 -119 49 -156 -3 -22 -11 -28 -63 -44 -105 -31 -127 -24 -139 44 -21 116 88 227 153 156z m-378 -334 c-12 -15 -21 -35 -21 -46 0 -11 -4 -16 -10 -13 -5 3 -10 12 -10 19 0 17 38 66 51 66 6 0 1 -12 -10 -26z m673 -100 c12 -12 13 -20 6 -35 -11 -20 -19 -23 -44 -13 -19 7 -21 50 -3 57 20 9 25 8 41 -9z m-594 -39 c0 -18 -48 -48 -66 -41 -8 3 -14 19 -14 37 0 28 2 30 16 18 13 -11 17 -10 26 5 8 13 13 15 24 5 8 -6 14 -17 14 -24z m141 4 c-24 -5 -56 -19 -70 -31 l-26 -23 20 24 c24 28 50 40 90 39 23 0 20 -2 -14 -9z m34 -99 c0 -29 -34 -40 -54 -17 -18 23 -2 49 28 45 20 -2 26 -8 26 -28z" transform="translate(0,87) scale(0.1,-0.1)" stroke="none" fill="#9B7044"/>

</g>

<g id="3" transform="translate(327.0,0)scale(1,1)">

<path d="M520 800 c-104 -29 -148 -50 -181 -87 -38 -44 -49 -72 -57 -148 l-7 -60 -70 -35 c-157 -79 -168 -95 -141 -199 9 -36 22 -83 27 -104 10 -37 12 -38 42 -32 18 4 49 13 69 20 l38 13 0 -33 c0 -65 56 -103 126 -84 75 21 98 116 39 166 -14 13 -22 23 -18 23 5 0 14 -5 19 -10 7 -7 28 -6 65 4 137 38 175 54 211 89 20 21 44 37 55 37 11 0 5 -6 -17 -18 -43 -21 -64 -62 -56 -107 21 -109 196 -92 196 19 0 40 -22 78 -55 93 -23 11 -24 13 -5 8 14 -4 36 -8 49 -9 25 -3 120 21 133 33 10 8 -44 192 -65 225 -10 14 -28 28 -42 31 -14 3 -36 7 -50 10 -15 3 -44 31 -77 74 -82 107 -105 115 -228 81z m162 -70 c42 -43 68 -113 51 -138 -12 -19 -73 -40 -120 -41 -30 -1 -32 2 -47 53 -21 71 -21 140 0 161 25 24 73 10 116 -35z m-193 -22 c24 -25 53 -119 49 -156 -3 -22 -11 -28 -63 -44 -105 -31 -127 -24 -139 44 -21 116 88 227 153 156z m-378 -334 c-12 -15 -21 -35 -21 -46 0 -11 -4 -16 -10 -13 -5 3 -10 12 -10 19 0 17 38 66 51 66 6 0 1 -12 -10 -26z m673 -100 c12 -12 13 -20 6 -35 -11 -20 -19 -23 -44 -13 -19 7 -21 50 -3 57 20 9 25 8 41 -9z m-594 -39 c0 -18 -48 -48 -66 -41 -8 3 -14 19 -14 37 0 28 2 30 16 18 13 -11 17 -10 26 5 8 13 13 15 24 5 8 -6 14 -17 14 -24z m141 4 c-24 -5 -56 -19 -70 -31 l-26 -23 20 24 c24 28 50 40 90 39 23 0 20 -2 -14 -9z m34 -99 c0 -29 -34 -40 -54 -17 -18 23 -2 49 28 45 20 -2 26 -8 26 -28z" transform="translate(0,87) scale(0.1,-0.1)" stroke="none" fill="#9B7044"/>

</g>

<g id="4" transform="translate(436.0,0)scale(1,1)">

<path d="M520 800 c-104 -29 -148 -50 -181 -87 -38 -44 -49 -72 -57 -148 l-7 -60 -70 -35 c-157 -79 -168 -95 -141 -199 9 -36 22 -83 27 -104 10 -37 12 -38 42 -32 18 4 49 13 69 20 l38 13 0 -33 c0 -65 56 -103 126 -84 75 21 98 116 39 166 -14 13 -22 23 -18 23 5 0 14 -5 19 -10 7 -7 28 -6 65 4 137 38 175 54 211 89 20 21 44 37 55 37 11 0 5 -6 -17 -18 -43 -21 -64 -62 -56 -107 21 -109 196 -92 196 19 0 40 -22 78 -55 93 -23 11 -24 13 -5 8 14 -4 36 -8 49 -9 25 -3 120 21 133 33 10 8 -44 192 -65 225 -10 14 -28 28 -42 31 -14 3 -36 7 -50 10 -15 3 -44 31 -77 74 -82 107 -105 115 -228 81z m162 -70 c42 -43 68 -113 51 -138 -12 -19 -73 -40 -120 -41 -30 -1 -32 2 -47 53 -21 71 -21 140 0 161 25 24 73 10 116 -35z m-193 -22 c24 -25 53 -119 49 -156 -3 -22 -11 -28 -63 -44 -105 -31 -127 -24 -139 44 -21 116 88 227 153 156z m-378 -334 c-12 -15 -21 -35 -21 -46 0 -11 -4 -16 -10 -13 -5 3 -10 12 -10 19 0 17 38 66 51 66 6 0 1 -12 -10 -26z m673 -100 c12 -12 13 -20 6 -35 -11 -20 -19 -23 -44 -13 -19 7 -21 50 -3 57 20 9 25 8 41 -9z m-594 -39 c0 -18 -48 -48 -66 -41 -8 3 -14 19 -14 37 0 28 2 30 16 18 13 -11 17 -10 26 5 8 13 13 15 24 5 8 -6 14 -17 14 -24z m141 4 c-24 -5 -56 -19 -70 -31 l-26 -23 20 24 c24 28 50 40 90 39 23 0 20 -2 -14 -9z m34 -99 c0 -29 -34 -40 -54 -17 -18 23 -2 49 28 45 20 -2 26 -8 26 -28z" transform="translate(0,87) scale(0.1,-0.1)" stroke="none" fill="#9B7044"/>

</g>

</g>
</svg>