<?xml version="1.0" standalone="no"?>
<!DOCTYPE svg PUBLIC "-//W3C//DTD SVG 20010904//EN"
 "http://www.w3.org/TR/2001/REC-SVG-20010904/DTD/svg10.dtd">
<svg version="1.0" xmlns="http://www.w3.org/2000/svg" width="512pt" height="528pt" viewBox="0 0 512 528" preserveAspectRatio = "xMidYMid meet" >
<metadata>
Created by ZoeQu, written in 2022
</metadata>
<rect width="512" height="528" fill="#EBB363"/>
<g id="row0" transform="translate(17,0.0)">
<g id="0" transform="translate(0.0,0)scale(1,1)">

<path d="M450 1047 c0 -129 -4 -187 -12 -195 -8 -8 -64 -12 -188 -12 -124 0 -180 -4 -188 -12 -15 -15 -17 -330 -2 -359 10 -18 23 -19 195 -19 102 0 186 -1 187 -2 1 -2 4 -88 7 -193 l6 -190 185 0 185 0 6 190 c3 105 6 191 7 193 1 1 88 2 192 2 162 0 190 -2 190 -15 0 -10 10 -15 31 -15 24 0 30 4 27 17 -2 11 -14 19 -28 21 l-25 3 3 166 c2 91 1 177 -2 190 l-6 23 -189 0 c-163 0 -190 2 -195 16 -3 9 -6 96 -6 195 l0 179 -190 0 -190 0 0 -183z" transform="translate(0,132) scale(0.1,-0.1)" stroke="none" fill="#4E8677"/>

</g>

<g id="1" transform="translate(128.0,0)scale(1,1)">

<path d="M450 1047 c0 -129 -4 -187 -12 -195 -8 -8 -64 -12 -188 -12 -124 0 -180 -4 -188 -12 -15 -15 -17 -330 -2 -359 10 -18 23 -19 195 -19 102 0 186 -1 187 -2 1 -2 4 -88 7 -193 l6 -190 185 0 185 0 6 190 c3 105 6 191 7 193 1 1 88 2 192 2 162 0 190 -2 190 -15 0 -10 10 -15 31 -15 24 0 30 4 27 17 -2 11 -14 19 -28 21 l-25 3 3 166 c2 91 1 177 -2 190 l-6 23 -189 0 c-163 0 -190 2 -195 16 -3 9 -6 96 -6 195 l0 179 -190 0 -190 0 0 -183z" transform="translate(0,132) scale(0.1,-0.1)" stroke="none" fill="#4E8677"/>

</g>

<g id="2" transform="translate(256.0,0)scale(1,1)">

<path d="M450 1047 c0 -129 -4 -187 -12 -195 -8 -8 -64 -12 -188 -12 -124 0 -180 -4 -188 -12 -15 -15 -17 -330 -2 -359 10 -18 23 -19 195 -19 102 0 186 -1 187 -2 1 -2 4 -88 7 -193 l6 -190 185 0 185 0 6 190 c3 105 6 191 7 193 1 1 88 2 192 2 162 0 190 -2 190 -15 0 -10 10 -15 31 -15 24 0 30 4 27 17 -2 11 -14 19 -28 21 l-25 3 3 166 c2 91 1 177 -2 190 l-6 23 -189 0 c-163 0 -190 2 -195 16 -3 9 -6 96 -6 195 l0 179 -190 0 -190 0 0 -183z" transform="translate(0,132) scale(0.1,-0.1)" stroke="none" fill="#4E8677"/>

</g>

<g id="3" transform="translate(384.0,0)scale(1,1)">

<path d="M450 1047 c0 -129 -4 -187 -12 -195 -8 -8 -64 -12 -188 -12 -124 0 -180 -4 -188 -12 -15 -15 -17 -330 -2 -359 10 -18 23 -19 195 -19 102 0 186 -1 187 -2 1 -2 4 -88 7 -193 l6 -190 185 0 185 0 6 190 c3 105 6 191 7 193 1 1 88 2 192 2 162 0 190 -2 190 -15 0 -10 10 -15 31 -15 24 0 30 4 27 17 -2 11 -14 19 -28 21 l-25 3 3 166 c2 91 1 177 -2 190 l-6 23 -189 0 c-163 0 -190 2 -195 16 -3 9 -6 96 -6 195 l0 179 -190 0 -190 0 0 -183z" transform="translate(0,132) scale(0.1,-0.1)" stroke="none" fill="#4E8677"/>

</g>

<g id="4" transform="translate(512.0,0)scale(1,1)">

<path d="M450 1047 c0 -129 -4 -187 -12 -195 -8 -8 -64 -12 -188 -12 -124 0 -180 -4 -188 -12 -15 -15 -17 -330 -2 -359 10 -18 23 -19 195 -19 102 0 186 -1 187 -2 1 -2 4 -88 7 -193 l6 -190 185 0 185 0 6 190 c3 105 6 191 7 193 1 1 88 2 192 2 162 0 190 -2 190 -15 0 -10 10 -15 31 -15 24 0 30 4 27 17 -2 11 -14 19 -28 21 l-25 3 3 166 c2 91 1 177 -2 190 l-6 23 -189 0 c-163 0 -190 2 -195 16 -3 9 -6 96 -6 195 l0 179 -190 0 -190 0 0 -183z" transform="translate(0,132) scale(0.1,-0.1)" stroke="none" fill="#4E8677"/>

</g>

</g>
<g id="row1" transform="translate(-47,132.0)">
<g id="0" transform="translate(0.0,0)scale(1,1)">

<path d="M450 1047 c0 -129 -4 -187 -12 -195 -8 -8 -64 -12 -188 -12 -124 0 -180 -4 -188 -12 -15 -15 -17 -330 -2 -359 10 -18 23 -19 195 -19 102 0 186 -1 187 -2 1 -2 4 -88 7 -193 l6 -190 185 0 185 0 6 190 c3 105 6 191 7 193 1 1 88 2 192 2 162 0 190 -2 190 -15 0 -10 10 -15 31 -15 24 0 30 4 27 17 -2 11 -14 19 -28 21 l-25 3 3 166 c2 91 1 177 -2 190 l-6 23 -189 0 c-163 0 -190 2 -195 16 -3 9 -6 96 -6 195 l0 179 -190 0 -190 0 0 -183z" transform="translate(0,132) scale(0.1,-0.1)" stroke="none" fill="#4E8677"/>

</g>

<g id="1" transform="translate(128.0,0)scale(1,1)">

<path d="M450 1047 c0 -129 -4 -187 -12 -195 -8 -8 -64 -12 -188 -12 -124 0 -180 -4 -188 -12 -15 -15 -17 -330 -2 -359 10 -18 23 -19 195 -19 102 0 186 -1 187 -2 1 -2 4 -88 7 -193 l6 -190 185 0 185 0 6 190 c3 105 6 191 7 193 1 1 88 2 192 2 162 0 190 -2 190 -15 0 -10 10 -15 31 -15 24 0 30 4 27 17 -2 11 -14 19 -28 21 l-25 3 3 166 c2 91 1 177 -2 190 l-6 23 -189 0 c-163 0 -190 2 -195 16 -3 9 -6 96 -6 195 l0 179 -190 0 -190 0 0 -183z" transform="translate(0,132) scale(0.1,-0.1)" stroke="none" fill="#4E8677"/>

</g>

<g id="2" transform="translate(256.0,0)scale(1,1)">

<path d="M450 1047 c0 -129 -4 -187 -12 -195 -8 -8 -64 -12 -188 -12 -124 0 -180 -4 -188 -12 -15 -15 -17 -330 -2 -359 10 -18 23 -19 195 -19 102 0 186 -1 187 -2 1 -2 4 -88 7 -193 l6 -190 185 0 185 0 6 190 c3 105 6 191 7 193 1 1 88 2 192 2 162 0 190 -2 190 -15 0 -10 10 -15 31 -15 24 0 30 4 27 17 -2 11 -14 19 -28 21 l-25 3 3 166 c2 91 1 177 -2 190 l-6 23 -189 0 c-163 0 -190 2 -195 16 -3 9 -6 96 -6 195 l0 179 -190 0 -190 0 0 -183z" transform="translate(0,132) scale(0.1,-0.1)" stroke="none" fill="#4E8677"/>

</g>

<g id="3" transform="translate(384.0,0)scale(1,1)">

<path d="M450 1047 c0 -129 -4 -187 -12 -195 -8 -8 -64 -12 -188 -12 -124 0 -180 -4 -188 -12 -15 -15 -17 -330 -2 -359 10 -18 23 -19 195 -19 102 0 186 -1 187 -2 1 -2 4 -88 7 -193 l6 -190 185 0 185 0 6 190 c3 105 6 191 7 193 1 1 88 2 192 2 162 0 190 -2 190 -15 0 -10 10 -15 31 -15 24 0 30 4 27 17 -2 11 -14 19 -28 21 l-25 3 3 166 c2 91 1 177 -2 190 l-6 23 -189 0 c-163 0 -190 2 -195 16 -3 9 -6 96 -6 195 l0 179 -190 0 -190 0 0 -183z" transform="translate(0,132) scale(0.1,-0.1)" stroke="none" fill="#4E8677"/>

</g>

<g id="4" transform="translate(512.0,0)scale(1,1)">

<path d="M450 1047 c0 -129 -4 -187 -12 -195 -8 -8 -64 -12 -188 -12 -124 0 -180 -4 -188 -12 -15 -15 -17 -330 -2 -359 10 -18 23 -19 195 -19 102 0 186 -1 187 -2 1 -2 4 -88 7 -193 l6 -190 185 0 185 0 6 190 c3 105 6 191 7 193 1 1 88 2 192 2 162 0 190 -2 190 -15 0 -10 10 -15 31 -15 24 0 30 4 27 17 -2 11 -14 19 -28 21 l-25 3 3 166 c2 91 1 177 -2 190 l-6 23 -189 0 c-163 0 -190 2 -195 16 -3 9 -6 96 -6 195 l0 179 -190 0 -190 0 0 -183z" transform="translate(0,132) scale(0.1,-0.1)" stroke="none" fill="#4E8677"/>

</g>

</g>
<g id="row2" transform="translate(17,264.0)">
<g id="0" transform="translate(0.0,0)scale(1,1)">

<path d="M450 1047 c0 -129 -4 -187 -12 -195 -8 -8 -64 -12 -188 -12 -124 0 -180 -4 -188 -12 -15 -15 -17 -330 -2 -359 10 -18 23 -19 195 -19 102 0 186 -1 187 -2 1 -2 4 -88 7 -193 l6 -190 185 0 185 0 6 190 c3 105 6 191 7 193 1 1 88 2 192 2 162 0 190 -2 190 -15 0 -10 10 -15 31 -15 24 0 30 4 27 17 -2 11 -14 19 -28 21 l-25 3 3 166 c2 91 1 177 -2 190 l-6 23 -189 0 c-163 0 -190 2 -195 16 -3 9 -6 96 -6 195 l0 179 -190 0 -190 0 0 -183z" transform="translate(0,132) scale(0.1,-0.1)" stroke="none" fill="#4E8677"/>

</g>

<g id="1" transform="translate(128.0,0)scale(1,1)">

<path d="M450 1047 c0 -129 -4 -187 -12 -195 -8 -8 -64 -12 -188 -12 -124 0 -180 -4 -188 -12 -15 -15 -17 -330 -2 -359 10 -18 23 -19 195 -19 102 0 186 -1 187 -2 1 -2 4 -88 7 -193 l6 -190 185 0 185 0 6 190 c3 105 6 191 7 193 1 1 88 2 192 2 162 0 190 -2 190 -15 0 -10 10 -15 31 -15 24 0 30 4 27 17 -2 11 -14 19 -28 21 l-25 3 3 166 c2 91 1 177 -2 190 l-6 23 -189 0 c-163 0 -190 2 -195 16 -3 9 -6 96 -6 195 l0 179 -190 0 -190 0 0 -183z" transform="translate(0,132) scale(0.1,-0.1)" stroke="none" fill="#4E8677"/>

</g>

<g id="2" transform="translate(256.0,0)scale(1,1)">

<path d="M450 1047 c0 -129 -4 -187 -12 -195 -8 -8 -64 -12 -188 -12 -124 0 -180 -4 -188 -12 -15 -15 -17 -330 -2 -359 10 -18 23 -19 195 -19 102 0 186 -1 187 -2 1 -2 4 -88 7 -193 l6 -190 185 0 185 0 6 190 c3 105 6 191 7 193 1 1 88 2 192 2 162 0 190 -2 190 -15 0 -10 10 -15 31 -15 24 0 30 4 27 17 -2 11 -14 19 -28 21 l-25 3 3 166 c2 91 1 177 -2 190 l-6 23 -189 0 c-163 0 -190 2 -195 16 -3 9 -6 96 -6 195 l0 179 -190 0 -190 0 0 -183z" transform="translate(0,132) scale(0.1,-0.1)" stroke="none" fill="#4E8677"/>

</g>

<g id="3" transform="translate(384.0,0)scale(1,1)">

<path d="M450 1047 c0 -129 -4 -187 -12 -195 -8 -8 -64 -12 -188 -12 -124 0 -180 -4 -188 -12 -15 -15 -17 -330 -2 -359 10 -18 23 -19 195 -19 102 0 186 -1 187 -2 1 -2 4 -88 7 -193 l6 -190 185 0 185 0 6 190 c3 105 6 191 7 193 1 1 88 2 192 2 162 0 190 -2 190 -15 0 -10 10 -15 31 -15 24 0 30 4 27 17 -2 11 -14 19 -28 21 l-25 3 3 166 c2 91 1 177 -2 190 l-6 23 -189 0 c-163 0 -190 2 -195 16 -3 9 -6 96 -6 195 l0 179 -190 0 -190 0 0 -183z" transform="translate(0,132) scale(0.1,-0.1)" stroke="none" fill="#4E8677"/>

</g>

<g id="4" transform="translate(512.0,0)scale(1,1)">

<path d="M450 1047 c0 -129 -4 -187 -12 -195 -8 -8 -64 -12 -188 -12 -124 0 -180 -4 -188 -12 -15 -15 -17 -330 -2 -359 10 -18 23 -19 195 -19 102 0 186 -1 187 -2 1 -2 4 -88 7 -193 l6 -190 185 0 185 0 6 190 c3 105 6 191 7 193 1 1 88 2 192 2 162 0 190 -2 190 -15 0 -10 10 -15 31 -15 24 0 30 4 27 17 -2 11 -14 19 -28 21 l-25 3 3 166 c2 91 1 177 -2 190 l-6 23 -189 0 c-163 0 -190 2 -195 16 -3 9 -6 96 -6 195 l0 179 -190 0 -190 0 0 -183z" transform="translate(0,132) scale(0.1,-0.1)" stroke="none" fill="#4E8677"/>

</g>

</g>
<g id="row3" transform="translate(-47,396.0)">
<g id="0" transform="translate(0.0,0)scale(1,1)">

<path d="M450 1047 c0 -129 -4 -187 -12 -195 -8 -8 -64 -12 -188 -12 -124 0 -180 -4 -188 -12 -15 -15 -17 -330 -2 -359 10 -18 23 -19 195 -19 102 0 186 -1 187 -2 1 -2 4 -88 7 -193 l6 -190 185 0 185 0 6 190 c3 105 6 191 7 193 1 1 88 2 192 2 162 0 190 -2 190 -15 0 -10 10 -15 31 -15 24 0 30 4 27 17 -2 11 -14 19 -28 21 l-25 3 3 166 c2 91 1 177 -2 190 l-6 23 -189 0 c-163 0 -190 2 -195 16 -3 9 -6 96 -6 195 l0 179 -190 0 -190 0 0 -183z" transform="translate(0,132) scale(0.1,-0.1)" stroke="none" fill="#4E8677"/>

</g>

<g id="1" transform="translate(128.0,0)scale(1,1)">

<path d="M450 1047 c0 -129 -4 -187 -12 -195 -8 -8 -64 -12 -188 -12 -124 0 -180 -4 -188 -12 -15 -15 -17 -330 -2 -359 10 -18 23 -19 195 -19 102 0 186 -1 187 -2 1 -2 4 -88 7 -193 l6 -190 185 0 185 0 6 190 c3 105 6 191 7 193 1 1 88 2 192 2 162 0 190 -2 190 -15 0 -10 10 -15 31 -15 24 0 30 4 27 17 -2 11 -14 19 -28 21 l-25 3 3 166 c2 91 1 177 -2 190 l-6 23 -189 0 c-163 0 -190 2 -195 16 -3 9 -6 96 -6 195 l0 179 -190 0 -190 0 0 -183z" transform="translate(0,132) scale(0.1,-0.1)" stroke="none" fill="#4E8677"/>

</g>

<g id="2" transform="translate(256.0,0)scale(1,1)">

<path d="M450 1047 c0 -129 -4 -187 -12 -195 -8 -8 -64 -12 -188 -12 -124 0 -180 -4 -188 -12 -15 -15 -17 -330 -2 -359 10 -18 23 -19 195 -19 102 0 186 -1 187 -2 1 -2 4 -88 7 -193 l6 -190 185 0 185 0 6 190 c3 105 6 191 7 193 1 1 88 2 192 2 162 0 190 -2 190 -15 0 -10 10 -15 31 -15 24 0 30 4 27 17 -2 11 -14 19 -28 21 l-25 3 3 166 c2 91 1 177 -2 190 l-6 23 -189 0 c-163 0 -190 2 -195 16 -3 9 -6 96 -6 195 l0 179 -190 0 -190 0 0 -183z" transform="translate(0,132) scale(0.1,-0.1)" stroke="none" fill="#4E8677"/>

</g>

<g id="3" transform="translate(384.0,0)scale(1,1)">

<path d="M450 1047 c0 -129 -4 -187 -12 -195 -8 -8 -64 -12 -188 -12 -124 0 -180 -4 -188 -12 -15 -15 -17 -330 -2 -359 10 -18 23 -19 195 -19 102 0 186 -1 187 -2 1 -2 4 -88 7 -193 l6 -190 185 0 185 0 6 190 c3 105 6 191 7 193 1 1 88 2 192 2 162 0 190 -2 190 -15 0 -10 10 -15 31 -15 24 0 30 4 27 17 -2 11 -14 19 -28 21 l-25 3 3 166 c2 91 1 177 -2 190 l-6 23 -189 0 c-163 0 -190 2 -195 16 -3 9 -6 96 -6 195 l0 179 -190 0 -190 0 0 -183z" transform="translate(0,132) scale(0.1,-0.1)" stroke="none" fill="#4E8677"/>

</g>

<g id="4" transform="translate(512.0,0)scale(1,1)">

<path d="M450 1047 c0 -129 -4 -187 -12 -195 -8 -8 -64 -12 -188 -12 -124 0 -180 -4 -188 -12 -15 -15 -17 -330 -2 -359 10 -18 23 -19 195 -19 102 0 186 -1 187 -2 1 -2 4 -88 7 -193 l6 -190 185 0 185 0 6 190 c3 105 6 191 7 193 1 1 88 2 192 2 162 0 190 -2 190 -15 0 -10 10 -15 31 -15 24 0 30 4 27 17 -2 11 -14 19 -28 21 l-25 3 3 166 c2 91 1 177 -2 190 l-6 23 -189 0 c-163 0 -190 2 -195 16 -3 9 -6 96 -6 195 l0 179 -190 0 -190 0 0 -183z" transform="translate(0,132) scale(0.1,-0.1)" stroke="none" fill="#4E8677"/>

</g>

</g>
</svg>