<?xml version="1.0" standalone="no"?>
<!DOCTYPE svg PUBLIC "-//W3C//DTD SVG 20010904//EN"
 "http://www.w3.org/TR/2001/REC-SVG-20010904/DTD/svg10.dtd">
<svg version="1.0" xmlns="http://www.w3.org/2000/svg" width="448pt" height="448pt" viewBox="0 0 448 448" preserveAspectRatio = "xMidYMid meet" >
<metadata>
Created by ZoeQu, written in 2022
</metadata>
<rect width="448" height="448" fill="#B3C6D5"/>
<g id="row0" transform="translate(14,0.0)">
<g id="0" transform="translate(0.0,0)scale(1,1)">

<path d="M785 1050 c-3 -5 -14 -10 -23 -10 -9 0 -44 -26 -77 -58 -54 -52 -89 -106 -111 -167 -6 -18 -8 -18 -11 -2 -5 21 -23 23 -23 2 0 -8 -6 -33 -12 -55 -12 -38 -15 -40 -43 -34 -16 3 -45 12 -62 20 -18 7 -33 9 -33 3 0 -5 5 -9 12 -9 6 0 9 -3 5 -6 -3 -3 -49 -7 -102 -8 -73 -1 -100 -5 -108 -16 -7 -9 -32 -24 -57 -34 -106 -45 -107 -114 -2 -161 18 -8 35 -22 38 -32 15 -45 38 -86 63 -116 16 -18 32 -50 35 -72 4 -22 13 -50 19 -61 24 -43 216 -175 253 -174 5 0 28 17 52 38 68 60 97 182 63 267 -7 17 -15 44 -17 60 l-5 30 18 -24 c49 -67 50 -68 66 -47 14 19 15 19 53 -10 95 -72 187 -92 236 -51 44 36 57 96 48 213 -8 112 -15 130 -62 169 -18 15 -36 39 -40 54 -29 109 -41 138 -60 154 -18 15 -21 27 -19 72 2 45 -1 55 -18 64 -25 14 -68 14 -76 1z m38 -132 c2 -18 0 -41 -5 -52 -9 -17 -8 -39 7 -98 5 -21 1 -28 -27 -42 -18 -9 -48 -28 -67 -42 -50 -35 -63 -32 -56 14 13 81 28 120 60 155 18 20 37 47 41 59 6 22 21 38 35 38 4 0 9 -15 12 -32z m99 -315 c15 -13 18 -32 18 -108 0 -72 -3 -94 -15 -98 -8 -4 -17 -2 -20 3 -3 5 -19 12 -36 15 -43 10 -98 49 -137 98 l-34 42 44 3 c23 2 47 7 53 13 5 5 18 9 28 9 10 0 30 9 44 20 31 24 32 24 55 3z m-536 -9 c50 -17 114 -62 114 -80 0 -5 -33 -16 -73 -22 -41 -7 -79 -18 -85 -24 -13 -13 -42 6 -42 27 0 7 -13 27 -30 45 -27 29 -33 31 -70 25 -25 -4 -40 -3 -40 4 0 17 22 25 80 32 90 10 97 10 146 -7z m208 -201 c10 -49 -9 -177 -30 -193 -22 -19 -158 76 -162 113 -3 22 1 27 17 27 12 0 21 4 21 10 0 5 20 19 44 31 24 11 52 29 62 40 24 27 38 19 48 -28z" transform="translate(0,112) scale(0.1,-0.1)" stroke="none" fill="#1F444E"/>

</g>

<g id="1" transform="translate(112.0,0)scale(1,1)">

<path d="M785 1050 c-3 -5 -14 -10 -23 -10 -9 0 -44 -26 -77 -58 -54 -52 -89 -106 -111 -167 -6 -18 -8 -18 -11 -2 -5 21 -23 23 -23 2 0 -8 -6 -33 -12 -55 -12 -38 -15 -40 -43 -34 -16 3 -45 12 -62 20 -18 7 -33 9 -33 3 0 -5 5 -9 12 -9 6 0 9 -3 5 -6 -3 -3 -49 -7 -102 -8 -73 -1 -100 -5 -108 -16 -7 -9 -32 -24 -57 -34 -106 -45 -107 -114 -2 -161 18 -8 35 -22 38 -32 15 -45 38 -86 63 -116 16 -18 32 -50 35 -72 4 -22 13 -50 19 -61 24 -43 216 -175 253 -174 5 0 28 17 52 38 68 60 97 182 63 267 -7 17 -15 44 -17 60 l-5 30 18 -24 c49 -67 50 -68 66 -47 14 19 15 19 53 -10 95 -72 187 -92 236 -51 44 36 57 96 48 213 -8 112 -15 130 -62 169 -18 15 -36 39 -40 54 -29 109 -41 138 -60 154 -18 15 -21 27 -19 72 2 45 -1 55 -18 64 -25 14 -68 14 -76 1z m38 -132 c2 -18 0 -41 -5 -52 -9 -17 -8 -39 7 -98 5 -21 1 -28 -27 -42 -18 -9 -48 -28 -67 -42 -50 -35 -63 -32 -56 14 13 81 28 120 60 155 18 20 37 47 41 59 6 22 21 38 35 38 4 0 9 -15 12 -32z m99 -315 c15 -13 18 -32 18 -108 0 -72 -3 -94 -15 -98 -8 -4 -17 -2 -20 3 -3 5 -19 12 -36 15 -43 10 -98 49 -137 98 l-34 42 44 3 c23 2 47 7 53 13 5 5 18 9 28 9 10 0 30 9 44 20 31 24 32 24 55 3z m-536 -9 c50 -17 114 -62 114 -80 0 -5 -33 -16 -73 -22 -41 -7 -79 -18 -85 -24 -13 -13 -42 6 -42 27 0 7 -13 27 -30 45 -27 29 -33 31 -70 25 -25 -4 -40 -3 -40 4 0 17 22 25 80 32 90 10 97 10 146 -7z m208 -201 c10 -49 -9 -177 -30 -193 -22 -19 -158 76 -162 113 -3 22 1 27 17 27 12 0 21 4 21 10 0 5 20 19 44 31 24 11 52 29 62 40 24 27 38 19 48 -28z" transform="translate(0,112) scale(0.1,-0.1)" stroke="none" fill="#1F444E"/>

</g>

<g id="2" transform="translate(224.0,0)scale(1,1)">

<path d="M785 1050 c-3 -5 -14 -10 -23 -10 -9 0 -44 -26 -77 -58 -54 -52 -89 -106 -111 -167 -6 -18 -8 -18 -11 -2 -5 21 -23 23 -23 2 0 -8 -6 -33 -12 -55 -12 -38 -15 -40 -43 -34 -16 3 -45 12 -62 20 -18 7 -33 9 -33 3 0 -5 5 -9 12 -9 6 0 9 -3 5 -6 -3 -3 -49 -7 -102 -8 -73 -1 -100 -5 -108 -16 -7 -9 -32 -24 -57 -34 -106 -45 -107 -114 -2 -161 18 -8 35 -22 38 -32 15 -45 38 -86 63 -116 16 -18 32 -50 35 -72 4 -22 13 -50 19 -61 24 -43 216 -175 253 -174 5 0 28 17 52 38 68 60 97 182 63 267 -7 17 -15 44 -17 60 l-5 30 18 -24 c49 -67 50 -68 66 -47 14 19 15 19 53 -10 95 -72 187 -92 236 -51 44 36 57 96 48 213 -8 112 -15 130 -62 169 -18 15 -36 39 -40 54 -29 109 -41 138 -60 154 -18 15 -21 27 -19 72 2 45 -1 55 -18 64 -25 14 -68 14 -76 1z m38 -132 c2 -18 0 -41 -5 -52 -9 -17 -8 -39 7 -98 5 -21 1 -28 -27 -42 -18 -9 -48 -28 -67 -42 -50 -35 -63 -32 -56 14 13 81 28 120 60 155 18 20 37 47 41 59 6 22 21 38 35 38 4 0 9 -15 12 -32z m99 -315 c15 -13 18 -32 18 -108 0 -72 -3 -94 -15 -98 -8 -4 -17 -2 -20 3 -3 5 -19 12 -36 15 -43 10 -98 49 -137 98 l-34 42 44 3 c23 2 47 7 53 13 5 5 18 9 28 9 10 0 30 9 44 20 31 24 32 24 55 3z m-536 -9 c50 -17 114 -62 114 -80 0 -5 -33 -16 -73 -22 -41 -7 -79 -18 -85 -24 -13 -13 -42 6 -42 27 0 7 -13 27 -30 45 -27 29 -33 31 -70 25 -25 -4 -40 -3 -40 4 0 17 22 25 80 32 90 10 97 10 146 -7z m208 -201 c10 -49 -9 -177 -30 -193 -22 -19 -158 76 -162 113 -3 22 1 27 17 27 12 0 21 4 21 10 0 5 20 19 44 31 24 11 52 29 62 40 24 27 38 19 48 -28z" transform="translate(0,112) scale(0.1,-0.1)" stroke="none" fill="#1F444E"/>

</g>

<g id="3" transform="translate(336.0,0)scale(1,1)">

<path d="M785 1050 c-3 -5 -14 -10 -23 -10 -9 0 -44 -26 -77 -58 -54 -52 -89 -106 -111 -167 -6 -18 -8 -18 -11 -2 -5 21 -23 23 -23 2 0 -8 -6 -33 -12 -55 -12 -38 -15 -40 -43 -34 -16 3 -45 12 -62 20 -18 7 -33 9 -33 3 0 -5 5 -9 12 -9 6 0 9 -3 5 -6 -3 -3 -49 -7 -102 -8 -73 -1 -100 -5 -108 -16 -7 -9 -32 -24 -57 -34 -106 -45 -107 -114 -2 -161 18 -8 35 -22 38 -32 15 -45 38 -86 63 -116 16 -18 32 -50 35 -72 4 -22 13 -50 19 -61 24 -43 216 -175 253 -174 5 0 28 17 52 38 68 60 97 182 63 267 -7 17 -15 44 -17 60 l-5 30 18 -24 c49 -67 50 -68 66 -47 14 19 15 19 53 -10 95 -72 187 -92 236 -51 44 36 57 96 48 213 -8 112 -15 130 -62 169 -18 15 -36 39 -40 54 -29 109 -41 138 -60 154 -18 15 -21 27 -19 72 2 45 -1 55 -18 64 -25 14 -68 14 -76 1z m38 -132 c2 -18 0 -41 -5 -52 -9 -17 -8 -39 7 -98 5 -21 1 -28 -27 -42 -18 -9 -48 -28 -67 -42 -50 -35 -63 -32 -56 14 13 81 28 120 60 155 18 20 37 47 41 59 6 22 21 38 35 38 4 0 9 -15 12 -32z m99 -315 c15 -13 18 -32 18 -108 0 -72 -3 -94 -15 -98 -8 -4 -17 -2 -20 3 -3 5 -19 12 -36 15 -43 10 -98 49 -137 98 l-34 42 44 3 c23 2 47 7 53 13 5 5 18 9 28 9 10 0 30 9 44 20 31 24 32 24 55 3z m-536 -9 c50 -17 114 -62 114 -80 0 -5 -33 -16 -73 -22 -41 -7 -79 -18 -85 -24 -13 -13 -42 6 -42 27 0 7 -13 27 -30 45 -27 29 -33 31 -70 25 -25 -4 -40 -3 -40 4 0 17 22 25 80 32 90 10 97 10 146 -7z m208 -201 c10 -49 -9 -177 -30 -193 -22 -19 -158 76 -162 113 -3 22 1 27 17 27 12 0 21 4 21 10 0 5 20 19 44 31 24 11 52 29 62 40 24 27 38 19 48 -28z" transform="translate(0,112) scale(0.1,-0.1)" stroke="none" fill="#1F444E"/>

</g>

<g id="4" transform="translate(448.0,0)scale(1,1)">

<path d="M785 1050 c-3 -5 -14 -10 -23 -10 -9 0 -44 -26 -77 -58 -54 -52 -89 -106 -111 -167 -6 -18 -8 -18 -11 -2 -5 21 -23 23 -23 2 0 -8 -6 -33 -12 -55 -12 -38 -15 -40 -43 -34 -16 3 -45 12 -62 20 -18 7 -33 9 -33 3 0 -5 5 -9 12 -9 6 0 9 -3 5 -6 -3 -3 -49 -7 -102 -8 -73 -1 -100 -5 -108 -16 -7 -9 -32 -24 -57 -34 -106 -45 -107 -114 -2 -161 18 -8 35 -22 38 -32 15 -45 38 -86 63 -116 16 -18 32 -50 35 -72 4 -22 13 -50 19 -61 24 -43 216 -175 253 -174 5 0 28 17 52 38 68 60 97 182 63 267 -7 17 -15 44 -17 60 l-5 30 18 -24 c49 -67 50 -68 66 -47 14 19 15 19 53 -10 95 -72 187 -92 236 -51 44 36 57 96 48 213 -8 112 -15 130 -62 169 -18 15 -36 39 -40 54 -29 109 -41 138 -60 154 -18 15 -21 27 -19 72 2 45 -1 55 -18 64 -25 14 -68 14 -76 1z m38 -132 c2 -18 0 -41 -5 -52 -9 -17 -8 -39 7 -98 5 -21 1 -28 -27 -42 -18 -9 -48 -28 -67 -42 -50 -35 -63 -32 -56 14 13 81 28 120 60 155 18 20 37 47 41 59 6 22 21 38 35 38 4 0 9 -15 12 -32z m99 -315 c15 -13 18 -32 18 -108 0 -72 -3 -94 -15 -98 -8 -4 -17 -2 -20 3 -3 5 -19 12 -36 15 -43 10 -98 49 -137 98 l-34 42 44 3 c23 2 47 7 53 13 5 5 18 9 28 9 10 0 30 9 44 20 31 24 32 24 55 3z m-536 -9 c50 -17 114 -62 114 -80 0 -5 -33 -16 -73 -22 -41 -7 -79 -18 -85 -24 -13 -13 -42 6 -42 27 0 7 -13 27 -30 45 -27 29 -33 31 -70 25 -25 -4 -40 -3 -40 4 0 17 22 25 80 32 90 10 97 10 146 -7z m208 -201 c10 -49 -9 -177 -30 -193 -22 -19 -158 76 -162 113 -3 22 1 27 17 27 12 0 21 4 21 10 0 5 20 19 44 31 24 11 52 29 62 40 24 27 38 19 48 -28z" transform="translate(0,112) scale(0.1,-0.1)" stroke="none" fill="#1F444E"/>

</g>

</g>
<g id="row1" transform="translate(-42,112.0)">
<g id="0" transform="translate(0.0,0)scale(1,1)">

<path d="M785 1050 c-3 -5 -14 -10 -23 -10 -9 0 -44 -26 -77 -58 -54 -52 -89 -106 -111 -167 -6 -18 -8 -18 -11 -2 -5 21 -23 23 -23 2 0 -8 -6 -33 -12 -55 -12 -38 -15 -40 -43 -34 -16 3 -45 12 -62 20 -18 7 -33 9 -33 3 0 -5 5 -9 12 -9 6 0 9 -3 5 -6 -3 -3 -49 -7 -102 -8 -73 -1 -100 -5 -108 -16 -7 -9 -32 -24 -57 -34 -106 -45 -107 -114 -2 -161 18 -8 35 -22 38 -32 15 -45 38 -86 63 -116 16 -18 32 -50 35 -72 4 -22 13 -50 19 -61 24 -43 216 -175 253 -174 5 0 28 17 52 38 68 60 97 182 63 267 -7 17 -15 44 -17 60 l-5 30 18 -24 c49 -67 50 -68 66 -47 14 19 15 19 53 -10 95 -72 187 -92 236 -51 44 36 57 96 48 213 -8 112 -15 130 -62 169 -18 15 -36 39 -40 54 -29 109 -41 138 -60 154 -18 15 -21 27 -19 72 2 45 -1 55 -18 64 -25 14 -68 14 -76 1z m38 -132 c2 -18 0 -41 -5 -52 -9 -17 -8 -39 7 -98 5 -21 1 -28 -27 -42 -18 -9 -48 -28 -67 -42 -50 -35 -63 -32 -56 14 13 81 28 120 60 155 18 20 37 47 41 59 6 22 21 38 35 38 4 0 9 -15 12 -32z m99 -315 c15 -13 18 -32 18 -108 0 -72 -3 -94 -15 -98 -8 -4 -17 -2 -20 3 -3 5 -19 12 -36 15 -43 10 -98 49 -137 98 l-34 42 44 3 c23 2 47 7 53 13 5 5 18 9 28 9 10 0 30 9 44 20 31 24 32 24 55 3z m-536 -9 c50 -17 114 -62 114 -80 0 -5 -33 -16 -73 -22 -41 -7 -79 -18 -85 -24 -13 -13 -42 6 -42 27 0 7 -13 27 -30 45 -27 29 -33 31 -70 25 -25 -4 -40 -3 -40 4 0 17 22 25 80 32 90 10 97 10 146 -7z m208 -201 c10 -49 -9 -177 -30 -193 -22 -19 -158 76 -162 113 -3 22 1 27 17 27 12 0 21 4 21 10 0 5 20 19 44 31 24 11 52 29 62 40 24 27 38 19 48 -28z" transform="translate(0,112) scale(0.1,-0.1)" stroke="none" fill="#1F444E"/>

</g>

<g id="1" transform="translate(112.0,0)scale(1,1)">

<path d="M785 1050 c-3 -5 -14 -10 -23 -10 -9 0 -44 -26 -77 -58 -54 -52 -89 -106 -111 -167 -6 -18 -8 -18 -11 -2 -5 21 -23 23 -23 2 0 -8 -6 -33 -12 -55 -12 -38 -15 -40 -43 -34 -16 3 -45 12 -62 20 -18 7 -33 9 -33 3 0 -5 5 -9 12 -9 6 0 9 -3 5 -6 -3 -3 -49 -7 -102 -8 -73 -1 -100 -5 -108 -16 -7 -9 -32 -24 -57 -34 -106 -45 -107 -114 -2 -161 18 -8 35 -22 38 -32 15 -45 38 -86 63 -116 16 -18 32 -50 35 -72 4 -22 13 -50 19 -61 24 -43 216 -175 253 -174 5 0 28 17 52 38 68 60 97 182 63 267 -7 17 -15 44 -17 60 l-5 30 18 -24 c49 -67 50 -68 66 -47 14 19 15 19 53 -10 95 -72 187 -92 236 -51 44 36 57 96 48 213 -8 112 -15 130 -62 169 -18 15 -36 39 -40 54 -29 109 -41 138 -60 154 -18 15 -21 27 -19 72 2 45 -1 55 -18 64 -25 14 -68 14 -76 1z m38 -132 c2 -18 0 -41 -5 -52 -9 -17 -8 -39 7 -98 5 -21 1 -28 -27 -42 -18 -9 -48 -28 -67 -42 -50 -35 -63 -32 -56 14 13 81 28 120 60 155 18 20 37 47 41 59 6 22 21 38 35 38 4 0 9 -15 12 -32z m99 -315 c15 -13 18 -32 18 -108 0 -72 -3 -94 -15 -98 -8 -4 -17 -2 -20 3 -3 5 -19 12 -36 15 -43 10 -98 49 -137 98 l-34 42 44 3 c23 2 47 7 53 13 5 5 18 9 28 9 10 0 30 9 44 20 31 24 32 24 55 3z m-536 -9 c50 -17 114 -62 114 -80 0 -5 -33 -16 -73 -22 -41 -7 -79 -18 -85 -24 -13 -13 -42 6 -42 27 0 7 -13 27 -30 45 -27 29 -33 31 -70 25 -25 -4 -40 -3 -40 4 0 17 22 25 80 32 90 10 97 10 146 -7z m208 -201 c10 -49 -9 -177 -30 -193 -22 -19 -158 76 -162 113 -3 22 1 27 17 27 12 0 21 4 21 10 0 5 20 19 44 31 24 11 52 29 62 40 24 27 38 19 48 -28z" transform="translate(0,112) scale(0.1,-0.1)" stroke="none" fill="#1F444E"/>

</g>

<g id="2" transform="translate(224.0,0)scale(1,1)">

<path d="M785 1050 c-3 -5 -14 -10 -23 -10 -9 0 -44 -26 -77 -58 -54 -52 -89 -106 -111 -167 -6 -18 -8 -18 -11 -2 -5 21 -23 23 -23 2 0 -8 -6 -33 -12 -55 -12 -38 -15 -40 -43 -34 -16 3 -45 12 -62 20 -18 7 -33 9 -33 3 0 -5 5 -9 12 -9 6 0 9 -3 5 -6 -3 -3 -49 -7 -102 -8 -73 -1 -100 -5 -108 -16 -7 -9 -32 -24 -57 -34 -106 -45 -107 -114 -2 -161 18 -8 35 -22 38 -32 15 -45 38 -86 63 -116 16 -18 32 -50 35 -72 4 -22 13 -50 19 -61 24 -43 216 -175 253 -174 5 0 28 17 52 38 68 60 97 182 63 267 -7 17 -15 44 -17 60 l-5 30 18 -24 c49 -67 50 -68 66 -47 14 19 15 19 53 -10 95 -72 187 -92 236 -51 44 36 57 96 48 213 -8 112 -15 130 -62 169 -18 15 -36 39 -40 54 -29 109 -41 138 -60 154 -18 15 -21 27 -19 72 2 45 -1 55 -18 64 -25 14 -68 14 -76 1z m38 -132 c2 -18 0 -41 -5 -52 -9 -17 -8 -39 7 -98 5 -21 1 -28 -27 -42 -18 -9 -48 -28 -67 -42 -50 -35 -63 -32 -56 14 13 81 28 120 60 155 18 20 37 47 41 59 6 22 21 38 35 38 4 0 9 -15 12 -32z m99 -315 c15 -13 18 -32 18 -108 0 -72 -3 -94 -15 -98 -8 -4 -17 -2 -20 3 -3 5 -19 12 -36 15 -43 10 -98 49 -137 98 l-34 42 44 3 c23 2 47 7 53 13 5 5 18 9 28 9 10 0 30 9 44 20 31 24 32 24 55 3z m-536 -9 c50 -17 114 -62 114 -80 0 -5 -33 -16 -73 -22 -41 -7 -79 -18 -85 -24 -13 -13 -42 6 -42 27 0 7 -13 27 -30 45 -27 29 -33 31 -70 25 -25 -4 -40 -3 -40 4 0 17 22 25 80 32 90 10 97 10 146 -7z m208 -201 c10 -49 -9 -177 -30 -193 -22 -19 -158 76 -162 113 -3 22 1 27 17 27 12 0 21 4 21 10 0 5 20 19 44 31 24 11 52 29 62 40 24 27 38 19 48 -28z" transform="translate(0,112) scale(0.1,-0.1)" stroke="none" fill="#1F444E"/>

</g>

<g id="3" transform="translate(336.0,0)scale(1,1)">

<path d="M785 1050 c-3 -5 -14 -10 -23 -10 -9 0 -44 -26 -77 -58 -54 -52 -89 -106 -111 -167 -6 -18 -8 -18 -11 -2 -5 21 -23 23 -23 2 0 -8 -6 -33 -12 -55 -12 -38 -15 -40 -43 -34 -16 3 -45 12 -62 20 -18 7 -33 9 -33 3 0 -5 5 -9 12 -9 6 0 9 -3 5 -6 -3 -3 -49 -7 -102 -8 -73 -1 -100 -5 -108 -16 -7 -9 -32 -24 -57 -34 -106 -45 -107 -114 -2 -161 18 -8 35 -22 38 -32 15 -45 38 -86 63 -116 16 -18 32 -50 35 -72 4 -22 13 -50 19 -61 24 -43 216 -175 253 -174 5 0 28 17 52 38 68 60 97 182 63 267 -7 17 -15 44 -17 60 l-5 30 18 -24 c49 -67 50 -68 66 -47 14 19 15 19 53 -10 95 -72 187 -92 236 -51 44 36 57 96 48 213 -8 112 -15 130 -62 169 -18 15 -36 39 -40 54 -29 109 -41 138 -60 154 -18 15 -21 27 -19 72 2 45 -1 55 -18 64 -25 14 -68 14 -76 1z m38 -132 c2 -18 0 -41 -5 -52 -9 -17 -8 -39 7 -98 5 -21 1 -28 -27 -42 -18 -9 -48 -28 -67 -42 -50 -35 -63 -32 -56 14 13 81 28 120 60 155 18 20 37 47 41 59 6 22 21 38 35 38 4 0 9 -15 12 -32z m99 -315 c15 -13 18 -32 18 -108 0 -72 -3 -94 -15 -98 -8 -4 -17 -2 -20 3 -3 5 -19 12 -36 15 -43 10 -98 49 -137 98 l-34 42 44 3 c23 2 47 7 53 13 5 5 18 9 28 9 10 0 30 9 44 20 31 24 32 24 55 3z m-536 -9 c50 -17 114 -62 114 -80 0 -5 -33 -16 -73 -22 -41 -7 -79 -18 -85 -24 -13 -13 -42 6 -42 27 0 7 -13 27 -30 45 -27 29 -33 31 -70 25 -25 -4 -40 -3 -40 4 0 17 22 25 80 32 90 10 97 10 146 -7z m208 -201 c10 -49 -9 -177 -30 -193 -22 -19 -158 76 -162 113 -3 22 1 27 17 27 12 0 21 4 21 10 0 5 20 19 44 31 24 11 52 29 62 40 24 27 38 19 48 -28z" transform="translate(0,112) scale(0.1,-0.1)" stroke="none" fill="#1F444E"/>

</g>

<g id="4" transform="translate(448.0,0)scale(1,1)">

<path d="M785 1050 c-3 -5 -14 -10 -23 -10 -9 0 -44 -26 -77 -58 -54 -52 -89 -106 -111 -167 -6 -18 -8 -18 -11 -2 -5 21 -23 23 -23 2 0 -8 -6 -33 -12 -55 -12 -38 -15 -40 -43 -34 -16 3 -45 12 -62 20 -18 7 -33 9 -33 3 0 -5 5 -9 12 -9 6 0 9 -3 5 -6 -3 -3 -49 -7 -102 -8 -73 -1 -100 -5 -108 -16 -7 -9 -32 -24 -57 -34 -106 -45 -107 -114 -2 -161 18 -8 35 -22 38 -32 15 -45 38 -86 63 -116 16 -18 32 -50 35 -72 4 -22 13 -50 19 -61 24 -43 216 -175 253 -174 5 0 28 17 52 38 68 60 97 182 63 267 -7 17 -15 44 -17 60 l-5 30 18 -24 c49 -67 50 -68 66 -47 14 19 15 19 53 -10 95 -72 187 -92 236 -51 44 36 57 96 48 213 -8 112 -15 130 -62 169 -18 15 -36 39 -40 54 -29 109 -41 138 -60 154 -18 15 -21 27 -19 72 2 45 -1 55 -18 64 -25 14 -68 14 -76 1z m38 -132 c2 -18 0 -41 -5 -52 -9 -17 -8 -39 7 -98 5 -21 1 -28 -27 -42 -18 -9 -48 -28 -67 -42 -50 -35 -63 -32 -56 14 13 81 28 120 60 155 18 20 37 47 41 59 6 22 21 38 35 38 4 0 9 -15 12 -32z m99 -315 c15 -13 18 -32 18 -108 0 -72 -3 -94 -15 -98 -8 -4 -17 -2 -20 3 -3 5 -19 12 -36 15 -43 10 -98 49 -137 98 l-34 42 44 3 c23 2 47 7 53 13 5 5 18 9 28 9 10 0 30 9 44 20 31 24 32 24 55 3z m-536 -9 c50 -17 114 -62 114 -80 0 -5 -33 -16 -73 -22 -41 -7 -79 -18 -85 -24 -13 -13 -42 6 -42 27 0 7 -13 27 -30 45 -27 29 -33 31 -70 25 -25 -4 -40 -3 -40 4 0 17 22 25 80 32 90 10 97 10 146 -7z m208 -201 c10 -49 -9 -177 -30 -193 -22 -19 -158 76 -162 113 -3 22 1 27 17 27 12 0 21 4 21 10 0 5 20 19 44 31 24 11 52 29 62 40 24 27 38 19 48 -28z" transform="translate(0,112) scale(0.1,-0.1)" stroke="none" fill="#1F444E"/>

</g>

</g>
<g id="row2" transform="translate(14,224.0)">
<g id="0" transform="translate(0.0,0)scale(1,1)">

<path d="M785 1050 c-3 -5 -14 -10 -23 -10 -9 0 -44 -26 -77 -58 -54 -52 -89 -106 -111 -167 -6 -18 -8 -18 -11 -2 -5 21 -23 23 -23 2 0 -8 -6 -33 -12 -55 -12 -38 -15 -40 -43 -34 -16 3 -45 12 -62 20 -18 7 -33 9 -33 3 0 -5 5 -9 12 -9 6 0 9 -3 5 -6 -3 -3 -49 -7 -102 -8 -73 -1 -100 -5 -108 -16 -7 -9 -32 -24 -57 -34 -106 -45 -107 -114 -2 -161 18 -8 35 -22 38 -32 15 -45 38 -86 63 -116 16 -18 32 -50 35 -72 4 -22 13 -50 19 -61 24 -43 216 -175 253 -174 5 0 28 17 52 38 68 60 97 182 63 267 -7 17 -15 44 -17 60 l-5 30 18 -24 c49 -67 50 -68 66 -47 14 19 15 19 53 -10 95 -72 187 -92 236 -51 44 36 57 96 48 213 -8 112 -15 130 -62 169 -18 15 -36 39 -40 54 -29 109 -41 138 -60 154 -18 15 -21 27 -19 72 2 45 -1 55 -18 64 -25 14 -68 14 -76 1z m38 -132 c2 -18 0 -41 -5 -52 -9 -17 -8 -39 7 -98 5 -21 1 -28 -27 -42 -18 -9 -48 -28 -67 -42 -50 -35 -63 -32 -56 14 13 81 28 120 60 155 18 20 37 47 41 59 6 22 21 38 35 38 4 0 9 -15 12 -32z m99 -315 c15 -13 18 -32 18 -108 0 -72 -3 -94 -15 -98 -8 -4 -17 -2 -20 3 -3 5 -19 12 -36 15 -43 10 -98 49 -137 98 l-34 42 44 3 c23 2 47 7 53 13 5 5 18 9 28 9 10 0 30 9 44 20 31 24 32 24 55 3z m-536 -9 c50 -17 114 -62 114 -80 0 -5 -33 -16 -73 -22 -41 -7 -79 -18 -85 -24 -13 -13 -42 6 -42 27 0 7 -13 27 -30 45 -27 29 -33 31 -70 25 -25 -4 -40 -3 -40 4 0 17 22 25 80 32 90 10 97 10 146 -7z m208 -201 c10 -49 -9 -177 -30 -193 -22 -19 -158 76 -162 113 -3 22 1 27 17 27 12 0 21 4 21 10 0 5 20 19 44 31 24 11 52 29 62 40 24 27 38 19 48 -28z" transform="translate(0,112) scale(0.1,-0.1)" stroke="none" fill="#1F444E"/>

</g>

<g id="1" transform="translate(112.0,0)scale(1,1)">

<path d="M785 1050 c-3 -5 -14 -10 -23 -10 -9 0 -44 -26 -77 -58 -54 -52 -89 -106 -111 -167 -6 -18 -8 -18 -11 -2 -5 21 -23 23 -23 2 0 -8 -6 -33 -12 -55 -12 -38 -15 -40 -43 -34 -16 3 -45 12 -62 20 -18 7 -33 9 -33 3 0 -5 5 -9 12 -9 6 0 9 -3 5 -6 -3 -3 -49 -7 -102 -8 -73 -1 -100 -5 -108 -16 -7 -9 -32 -24 -57 -34 -106 -45 -107 -114 -2 -161 18 -8 35 -22 38 -32 15 -45 38 -86 63 -116 16 -18 32 -50 35 -72 4 -22 13 -50 19 -61 24 -43 216 -175 253 -174 5 0 28 17 52 38 68 60 97 182 63 267 -7 17 -15 44 -17 60 l-5 30 18 -24 c49 -67 50 -68 66 -47 14 19 15 19 53 -10 95 -72 187 -92 236 -51 44 36 57 96 48 213 -8 112 -15 130 -62 169 -18 15 -36 39 -40 54 -29 109 -41 138 -60 154 -18 15 -21 27 -19 72 2 45 -1 55 -18 64 -25 14 -68 14 -76 1z m38 -132 c2 -18 0 -41 -5 -52 -9 -17 -8 -39 7 -98 5 -21 1 -28 -27 -42 -18 -9 -48 -28 -67 -42 -50 -35 -63 -32 -56 14 13 81 28 120 60 155 18 20 37 47 41 59 6 22 21 38 35 38 4 0 9 -15 12 -32z m99 -315 c15 -13 18 -32 18 -108 0 -72 -3 -94 -15 -98 -8 -4 -17 -2 -20 3 -3 5 -19 12 -36 15 -43 10 -98 49 -137 98 l-34 42 44 3 c23 2 47 7 53 13 5 5 18 9 28 9 10 0 30 9 44 20 31 24 32 24 55 3z m-536 -9 c50 -17 114 -62 114 -80 0 -5 -33 -16 -73 -22 -41 -7 -79 -18 -85 -24 -13 -13 -42 6 -42 27 0 7 -13 27 -30 45 -27 29 -33 31 -70 25 -25 -4 -40 -3 -40 4 0 17 22 25 80 32 90 10 97 10 146 -7z m208 -201 c10 -49 -9 -177 -30 -193 -22 -19 -158 76 -162 113 -3 22 1 27 17 27 12 0 21 4 21 10 0 5 20 19 44 31 24 11 52 29 62 40 24 27 38 19 48 -28z" transform="translate(0,112) scale(0.1,-0.1)" stroke="none" fill="#1F444E"/>

</g>

<g id="2" transform="translate(224.0,0)scale(1,1)">

<path d="M785 1050 c-3 -5 -14 -10 -23 -10 -9 0 -44 -26 -77 -58 -54 -52 -89 -106 -111 -167 -6 -18 -8 -18 -11 -2 -5 21 -23 23 -23 2 0 -8 -6 -33 -12 -55 -12 -38 -15 -40 -43 -34 -16 3 -45 12 -62 20 -18 7 -33 9 -33 3 0 -5 5 -9 12 -9 6 0 9 -3 5 -6 -3 -3 -49 -7 -102 -8 -73 -1 -100 -5 -108 -16 -7 -9 -32 -24 -57 -34 -106 -45 -107 -114 -2 -161 18 -8 35 -22 38 -32 15 -45 38 -86 63 -116 16 -18 32 -50 35 -72 4 -22 13 -50 19 -61 24 -43 216 -175 253 -174 5 0 28 17 52 38 68 60 97 182 63 267 -7 17 -15 44 -17 60 l-5 30 18 -24 c49 -67 50 -68 66 -47 14 19 15 19 53 -10 95 -72 187 -92 236 -51 44 36 57 96 48 213 -8 112 -15 130 -62 169 -18 15 -36 39 -40 54 -29 109 -41 138 -60 154 -18 15 -21 27 -19 72 2 45 -1 55 -18 64 -25 14 -68 14 -76 1z m38 -132 c2 -18 0 -41 -5 -52 -9 -17 -8 -39 7 -98 5 -21 1 -28 -27 -42 -18 -9 -48 -28 -67 -42 -50 -35 -63 -32 -56 14 13 81 28 120 60 155 18 20 37 47 41 59 6 22 21 38 35 38 4 0 9 -15 12 -32z m99 -315 c15 -13 18 -32 18 -108 0 -72 -3 -94 -15 -98 -8 -4 -17 -2 -20 3 -3 5 -19 12 -36 15 -43 10 -98 49 -137 98 l-34 42 44 3 c23 2 47 7 53 13 5 5 18 9 28 9 10 0 30 9 44 20 31 24 32 24 55 3z m-536 -9 c50 -17 114 -62 114 -80 0 -5 -33 -16 -73 -22 -41 -7 -79 -18 -85 -24 -13 -13 -42 6 -42 27 0 7 -13 27 -30 45 -27 29 -33 31 -70 25 -25 -4 -40 -3 -40 4 0 17 22 25 80 32 90 10 97 10 146 -7z m208 -201 c10 -49 -9 -177 -30 -193 -22 -19 -158 76 -162 113 -3 22 1 27 17 27 12 0 21 4 21 10 0 5 20 19 44 31 24 11 52 29 62 40 24 27 38 19 48 -28z" transform="translate(0,112) scale(0.1,-0.1)" stroke="none" fill="#1F444E"/>

</g>

<g id="3" transform="translate(336.0,0)scale(1,1)">

<path d="M785 1050 c-3 -5 -14 -10 -23 -10 -9 0 -44 -26 -77 -58 -54 -52 -89 -106 -111 -167 -6 -18 -8 -18 -11 -2 -5 21 -23 23 -23 2 0 -8 -6 -33 -12 -55 -12 -38 -15 -40 -43 -34 -16 3 -45 12 -62 20 -18 7 -33 9 -33 3 0 -5 5 -9 12 -9 6 0 9 -3 5 -6 -3 -3 -49 -7 -102 -8 -73 -1 -100 -5 -108 -16 -7 -9 -32 -24 -57 -34 -106 -45 -107 -114 -2 -161 18 -8 35 -22 38 -32 15 -45 38 -86 63 -116 16 -18 32 -50 35 -72 4 -22 13 -50 19 -61 24 -43 216 -175 253 -174 5 0 28 17 52 38 68 60 97 182 63 267 -7 17 -15 44 -17 60 l-5 30 18 -24 c49 -67 50 -68 66 -47 14 19 15 19 53 -10 95 -72 187 -92 236 -51 44 36 57 96 48 213 -8 112 -15 130 -62 169 -18 15 -36 39 -40 54 -29 109 -41 138 -60 154 -18 15 -21 27 -19 72 2 45 -1 55 -18 64 -25 14 -68 14 -76 1z m38 -132 c2 -18 0 -41 -5 -52 -9 -17 -8 -39 7 -98 5 -21 1 -28 -27 -42 -18 -9 -48 -28 -67 -42 -50 -35 -63 -32 -56 14 13 81 28 120 60 155 18 20 37 47 41 59 6 22 21 38 35 38 4 0 9 -15 12 -32z m99 -315 c15 -13 18 -32 18 -108 0 -72 -3 -94 -15 -98 -8 -4 -17 -2 -20 3 -3 5 -19 12 -36 15 -43 10 -98 49 -137 98 l-34 42 44 3 c23 2 47 7 53 13 5 5 18 9 28 9 10 0 30 9 44 20 31 24 32 24 55 3z m-536 -9 c50 -17 114 -62 114 -80 0 -5 -33 -16 -73 -22 -41 -7 -79 -18 -85 -24 -13 -13 -42 6 -42 27 0 7 -13 27 -30 45 -27 29 -33 31 -70 25 -25 -4 -40 -3 -40 4 0 17 22 25 80 32 90 10 97 10 146 -7z m208 -201 c10 -49 -9 -177 -30 -193 -22 -19 -158 76 -162 113 -3 22 1 27 17 27 12 0 21 4 21 10 0 5 20 19 44 31 24 11 52 29 62 40 24 27 38 19 48 -28z" transform="translate(0,112) scale(0.1,-0.1)" stroke="none" fill="#1F444E"/>

</g>

<g id="4" transform="translate(448.0,0)scale(1,1)">

<path d="M785 1050 c-3 -5 -14 -10 -23 -10 -9 0 -44 -26 -77 -58 -54 -52 -89 -106 -111 -167 -6 -18 -8 -18 -11 -2 -5 21 -23 23 -23 2 0 -8 -6 -33 -12 -55 -12 -38 -15 -40 -43 -34 -16 3 -45 12 -62 20 -18 7 -33 9 -33 3 0 -5 5 -9 12 -9 6 0 9 -3 5 -6 -3 -3 -49 -7 -102 -8 -73 -1 -100 -5 -108 -16 -7 -9 -32 -24 -57 -34 -106 -45 -107 -114 -2 -161 18 -8 35 -22 38 -32 15 -45 38 -86 63 -116 16 -18 32 -50 35 -72 4 -22 13 -50 19 -61 24 -43 216 -175 253 -174 5 0 28 17 52 38 68 60 97 182 63 267 -7 17 -15 44 -17 60 l-5 30 18 -24 c49 -67 50 -68 66 -47 14 19 15 19 53 -10 95 -72 187 -92 236 -51 44 36 57 96 48 213 -8 112 -15 130 -62 169 -18 15 -36 39 -40 54 -29 109 -41 138 -60 154 -18 15 -21 27 -19 72 2 45 -1 55 -18 64 -25 14 -68 14 -76 1z m38 -132 c2 -18 0 -41 -5 -52 -9 -17 -8 -39 7 -98 5 -21 1 -28 -27 -42 -18 -9 -48 -28 -67 -42 -50 -35 -63 -32 -56 14 13 81 28 120 60 155 18 20 37 47 41 59 6 22 21 38 35 38 4 0 9 -15 12 -32z m99 -315 c15 -13 18 -32 18 -108 0 -72 -3 -94 -15 -98 -8 -4 -17 -2 -20 3 -3 5 -19 12 -36 15 -43 10 -98 49 -137 98 l-34 42 44 3 c23 2 47 7 53 13 5 5 18 9 28 9 10 0 30 9 44 20 31 24 32 24 55 3z m-536 -9 c50 -17 114 -62 114 -80 0 -5 -33 -16 -73 -22 -41 -7 -79 -18 -85 -24 -13 -13 -42 6 -42 27 0 7 -13 27 -30 45 -27 29 -33 31 -70 25 -25 -4 -40 -3 -40 4 0 17 22 25 80 32 90 10 97 10 146 -7z m208 -201 c10 -49 -9 -177 -30 -193 -22 -19 -158 76 -162 113 -3 22 1 27 17 27 12 0 21 4 21 10 0 5 20 19 44 31 24 11 52 29 62 40 24 27 38 19 48 -28z" transform="translate(0,112) scale(0.1,-0.1)" stroke="none" fill="#1F444E"/>

</g>

</g>
<g id="row3" transform="translate(-42,336.0)">
<g id="0" transform="translate(0.0,0)scale(1,1)">

<path d="M785 1050 c-3 -5 -14 -10 -23 -10 -9 0 -44 -26 -77 -58 -54 -52 -89 -106 -111 -167 -6 -18 -8 -18 -11 -2 -5 21 -23 23 -23 2 0 -8 -6 -33 -12 -55 -12 -38 -15 -40 -43 -34 -16 3 -45 12 -62 20 -18 7 -33 9 -33 3 0 -5 5 -9 12 -9 6 0 9 -3 5 -6 -3 -3 -49 -7 -102 -8 -73 -1 -100 -5 -108 -16 -7 -9 -32 -24 -57 -34 -106 -45 -107 -114 -2 -161 18 -8 35 -22 38 -32 15 -45 38 -86 63 -116 16 -18 32 -50 35 -72 4 -22 13 -50 19 -61 24 -43 216 -175 253 -174 5 0 28 17 52 38 68 60 97 182 63 267 -7 17 -15 44 -17 60 l-5 30 18 -24 c49 -67 50 -68 66 -47 14 19 15 19 53 -10 95 -72 187 -92 236 -51 44 36 57 96 48 213 -8 112 -15 130 -62 169 -18 15 -36 39 -40 54 -29 109 -41 138 -60 154 -18 15 -21 27 -19 72 2 45 -1 55 -18 64 -25 14 -68 14 -76 1z m38 -132 c2 -18 0 -41 -5 -52 -9 -17 -8 -39 7 -98 5 -21 1 -28 -27 -42 -18 -9 -48 -28 -67 -42 -50 -35 -63 -32 -56 14 13 81 28 120 60 155 18 20 37 47 41 59 6 22 21 38 35 38 4 0 9 -15 12 -32z m99 -315 c15 -13 18 -32 18 -108 0 -72 -3 -94 -15 -98 -8 -4 -17 -2 -20 3 -3 5 -19 12 -36 15 -43 10 -98 49 -137 98 l-34 42 44 3 c23 2 47 7 53 13 5 5 18 9 28 9 10 0 30 9 44 20 31 24 32 24 55 3z m-536 -9 c50 -17 114 -62 114 -80 0 -5 -33 -16 -73 -22 -41 -7 -79 -18 -85 -24 -13 -13 -42 6 -42 27 0 7 -13 27 -30 45 -27 29 -33 31 -70 25 -25 -4 -40 -3 -40 4 0 17 22 25 80 32 90 10 97 10 146 -7z m208 -201 c10 -49 -9 -177 -30 -193 -22 -19 -158 76 -162 113 -3 22 1 27 17 27 12 0 21 4 21 10 0 5 20 19 44 31 24 11 52 29 62 40 24 27 38 19 48 -28z" transform="translate(0,112) scale(0.1,-0.1)" stroke="none" fill="#1F444E"/>

</g>

<g id="1" transform="translate(112.0,0)scale(1,1)">

<path d="M785 1050 c-3 -5 -14 -10 -23 -10 -9 0 -44 -26 -77 -58 -54 -52 -89 -106 -111 -167 -6 -18 -8 -18 -11 -2 -5 21 -23 23 -23 2 0 -8 -6 -33 -12 -55 -12 -38 -15 -40 -43 -34 -16 3 -45 12 -62 20 -18 7 -33 9 -33 3 0 -5 5 -9 12 -9 6 0 9 -3 5 -6 -3 -3 -49 -7 -102 -8 -73 -1 -100 -5 -108 -16 -7 -9 -32 -24 -57 -34 -106 -45 -107 -114 -2 -161 18 -8 35 -22 38 -32 15 -45 38 -86 63 -116 16 -18 32 -50 35 -72 4 -22 13 -50 19 -61 24 -43 216 -175 253 -174 5 0 28 17 52 38 68 60 97 182 63 267 -7 17 -15 44 -17 60 l-5 30 18 -24 c49 -67 50 -68 66 -47 14 19 15 19 53 -10 95 -72 187 -92 236 -51 44 36 57 96 48 213 -8 112 -15 130 -62 169 -18 15 -36 39 -40 54 -29 109 -41 138 -60 154 -18 15 -21 27 -19 72 2 45 -1 55 -18 64 -25 14 -68 14 -76 1z m38 -132 c2 -18 0 -41 -5 -52 -9 -17 -8 -39 7 -98 5 -21 1 -28 -27 -42 -18 -9 -48 -28 -67 -42 -50 -35 -63 -32 -56 14 13 81 28 120 60 155 18 20 37 47 41 59 6 22 21 38 35 38 4 0 9 -15 12 -32z m99 -315 c15 -13 18 -32 18 -108 0 -72 -3 -94 -15 -98 -8 -4 -17 -2 -20 3 -3 5 -19 12 -36 15 -43 10 -98 49 -137 98 l-34 42 44 3 c23 2 47 7 53 13 5 5 18 9 28 9 10 0 30 9 44 20 31 24 32 24 55 3z m-536 -9 c50 -17 114 -62 114 -80 0 -5 -33 -16 -73 -22 -41 -7 -79 -18 -85 -24 -13 -13 -42 6 -42 27 0 7 -13 27 -30 45 -27 29 -33 31 -70 25 -25 -4 -40 -3 -40 4 0 17 22 25 80 32 90 10 97 10 146 -7z m208 -201 c10 -49 -9 -177 -30 -193 -22 -19 -158 76 -162 113 -3 22 1 27 17 27 12 0 21 4 21 10 0 5 20 19 44 31 24 11 52 29 62 40 24 27 38 19 48 -28z" transform="translate(0,112) scale(0.1,-0.1)" stroke="none" fill="#1F444E"/>

</g>

<g id="2" transform="translate(224.0,0)scale(1,1)">

<path d="M785 1050 c-3 -5 -14 -10 -23 -10 -9 0 -44 -26 -77 -58 -54 -52 -89 -106 -111 -167 -6 -18 -8 -18 -11 -2 -5 21 -23 23 -23 2 0 -8 -6 -33 -12 -55 -12 -38 -15 -40 -43 -34 -16 3 -45 12 -62 20 -18 7 -33 9 -33 3 0 -5 5 -9 12 -9 6 0 9 -3 5 -6 -3 -3 -49 -7 -102 -8 -73 -1 -100 -5 -108 -16 -7 -9 -32 -24 -57 -34 -106 -45 -107 -114 -2 -161 18 -8 35 -22 38 -32 15 -45 38 -86 63 -116 16 -18 32 -50 35 -72 4 -22 13 -50 19 -61 24 -43 216 -175 253 -174 5 0 28 17 52 38 68 60 97 182 63 267 -7 17 -15 44 -17 60 l-5 30 18 -24 c49 -67 50 -68 66 -47 14 19 15 19 53 -10 95 -72 187 -92 236 -51 44 36 57 96 48 213 -8 112 -15 130 -62 169 -18 15 -36 39 -40 54 -29 109 -41 138 -60 154 -18 15 -21 27 -19 72 2 45 -1 55 -18 64 -25 14 -68 14 -76 1z m38 -132 c2 -18 0 -41 -5 -52 -9 -17 -8 -39 7 -98 5 -21 1 -28 -27 -42 -18 -9 -48 -28 -67 -42 -50 -35 -63 -32 -56 14 13 81 28 120 60 155 18 20 37 47 41 59 6 22 21 38 35 38 4 0 9 -15 12 -32z m99 -315 c15 -13 18 -32 18 -108 0 -72 -3 -94 -15 -98 -8 -4 -17 -2 -20 3 -3 5 -19 12 -36 15 -43 10 -98 49 -137 98 l-34 42 44 3 c23 2 47 7 53 13 5 5 18 9 28 9 10 0 30 9 44 20 31 24 32 24 55 3z m-536 -9 c50 -17 114 -62 114 -80 0 -5 -33 -16 -73 -22 -41 -7 -79 -18 -85 -24 -13 -13 -42 6 -42 27 0 7 -13 27 -30 45 -27 29 -33 31 -70 25 -25 -4 -40 -3 -40 4 0 17 22 25 80 32 90 10 97 10 146 -7z m208 -201 c10 -49 -9 -177 -30 -193 -22 -19 -158 76 -162 113 -3 22 1 27 17 27 12 0 21 4 21 10 0 5 20 19 44 31 24 11 52 29 62 40 24 27 38 19 48 -28z" transform="translate(0,112) scale(0.1,-0.1)" stroke="none" fill="#1F444E"/>

</g>

<g id="3" transform="translate(336.0,0)scale(1,1)">

<path d="M785 1050 c-3 -5 -14 -10 -23 -10 -9 0 -44 -26 -77 -58 -54 -52 -89 -106 -111 -167 -6 -18 -8 -18 -11 -2 -5 21 -23 23 -23 2 0 -8 -6 -33 -12 -55 -12 -38 -15 -40 -43 -34 -16 3 -45 12 -62 20 -18 7 -33 9 -33 3 0 -5 5 -9 12 -9 6 0 9 -3 5 -6 -3 -3 -49 -7 -102 -8 -73 -1 -100 -5 -108 -16 -7 -9 -32 -24 -57 -34 -106 -45 -107 -114 -2 -161 18 -8 35 -22 38 -32 15 -45 38 -86 63 -116 16 -18 32 -50 35 -72 4 -22 13 -50 19 -61 24 -43 216 -175 253 -174 5 0 28 17 52 38 68 60 97 182 63 267 -7 17 -15 44 -17 60 l-5 30 18 -24 c49 -67 50 -68 66 -47 14 19 15 19 53 -10 95 -72 187 -92 236 -51 44 36 57 96 48 213 -8 112 -15 130 -62 169 -18 15 -36 39 -40 54 -29 109 -41 138 -60 154 -18 15 -21 27 -19 72 2 45 -1 55 -18 64 -25 14 -68 14 -76 1z m38 -132 c2 -18 0 -41 -5 -52 -9 -17 -8 -39 7 -98 5 -21 1 -28 -27 -42 -18 -9 -48 -28 -67 -42 -50 -35 -63 -32 -56 14 13 81 28 120 60 155 18 20 37 47 41 59 6 22 21 38 35 38 4 0 9 -15 12 -32z m99 -315 c15 -13 18 -32 18 -108 0 -72 -3 -94 -15 -98 -8 -4 -17 -2 -20 3 -3 5 -19 12 -36 15 -43 10 -98 49 -137 98 l-34 42 44 3 c23 2 47 7 53 13 5 5 18 9 28 9 10 0 30 9 44 20 31 24 32 24 55 3z m-536 -9 c50 -17 114 -62 114 -80 0 -5 -33 -16 -73 -22 -41 -7 -79 -18 -85 -24 -13 -13 -42 6 -42 27 0 7 -13 27 -30 45 -27 29 -33 31 -70 25 -25 -4 -40 -3 -40 4 0 17 22 25 80 32 90 10 97 10 146 -7z m208 -201 c10 -49 -9 -177 -30 -193 -22 -19 -158 76 -162 113 -3 22 1 27 17 27 12 0 21 4 21 10 0 5 20 19 44 31 24 11 52 29 62 40 24 27 38 19 48 -28z" transform="translate(0,112) scale(0.1,-0.1)" stroke="none" fill="#1F444E"/>

</g>

<g id="4" transform="translate(448.0,0)scale(1,1)">

<path d="M785 1050 c-3 -5 -14 -10 -23 -10 -9 0 -44 -26 -77 -58 -54 -52 -89 -106 -111 -167 -6 -18 -8 -18 -11 -2 -5 21 -23 23 -23 2 0 -8 -6 -33 -12 -55 -12 -38 -15 -40 -43 -34 -16 3 -45 12 -62 20 -18 7 -33 9 -33 3 0 -5 5 -9 12 -9 6 0 9 -3 5 -6 -3 -3 -49 -7 -102 -8 -73 -1 -100 -5 -108 -16 -7 -9 -32 -24 -57 -34 -106 -45 -107 -114 -2 -161 18 -8 35 -22 38 -32 15 -45 38 -86 63 -116 16 -18 32 -50 35 -72 4 -22 13 -50 19 -61 24 -43 216 -175 253 -174 5 0 28 17 52 38 68 60 97 182 63 267 -7 17 -15 44 -17 60 l-5 30 18 -24 c49 -67 50 -68 66 -47 14 19 15 19 53 -10 95 -72 187 -92 236 -51 44 36 57 96 48 213 -8 112 -15 130 -62 169 -18 15 -36 39 -40 54 -29 109 -41 138 -60 154 -18 15 -21 27 -19 72 2 45 -1 55 -18 64 -25 14 -68 14 -76 1z m38 -132 c2 -18 0 -41 -5 -52 -9 -17 -8 -39 7 -98 5 -21 1 -28 -27 -42 -18 -9 -48 -28 -67 -42 -50 -35 -63 -32 -56 14 13 81 28 120 60 155 18 20 37 47 41 59 6 22 21 38 35 38 4 0 9 -15 12 -32z m99 -315 c15 -13 18 -32 18 -108 0 -72 -3 -94 -15 -98 -8 -4 -17 -2 -20 3 -3 5 -19 12 -36 15 -43 10 -98 49 -137 98 l-34 42 44 3 c23 2 47 7 53 13 5 5 18 9 28 9 10 0 30 9 44 20 31 24 32 24 55 3z m-536 -9 c50 -17 114 -62 114 -80 0 -5 -33 -16 -73 -22 -41 -7 -79 -18 -85 -24 -13 -13 -42 6 -42 27 0 7 -13 27 -30 45 -27 29 -33 31 -70 25 -25 -4 -40 -3 -40 4 0 17 22 25 80 32 90 10 97 10 146 -7z m208 -201 c10 -49 -9 -177 -30 -193 -22 -19 -158 76 -162 113 -3 22 1 27 17 27 12 0 21 4 21 10 0 5 20 19 44 31 24 11 52 29 62 40 24 27 38 19 48 -28z" transform="translate(0,112) scale(0.1,-0.1)" stroke="none" fill="#1F444E"/>

</g>

</g>
</svg>