<?xml version="1.0" standalone="no"?>
<!DOCTYPE svg PUBLIC "-//W3C//DTD SVG 20010904//EN"
 "http://www.w3.org/TR/2001/REC-SVG-20010904/DTD/svg10.dtd">
<svg version="1.0" xmlns="http://www.w3.org/2000/svg" width="6504pt" height="6504pt" viewBox="0 0 6504 6504" preserveAspectRatio = "xMidYMid meet" >
<metadata>
Created by ZoeQu, written in 2022
</metadata>
<rect width="6504" height="6504" fill="#BBC3BD"/>
<g id="row0" transform="translate(0,0.0)">
<g id="0" transform="translate(0.0,0)scale(0.25,0.25)">

<g id="pattern">
<rect width="7046" height="7046" fill="#BBC3BD"/>
<g id="pattern1" transform="matrix(1,0,0,1,439,439)">
<path d="M50 492 c0 -17 49 -81 97 -128 61 -59 147 -118 243 -167 41 -21 80 -44 85 -50 33 -40 122 -70 320 -108 123 -24 282 -30 293 -12 4 7 33 19 65 27 31 8 61 17 66 20 5 3 25 8 45 11 20 2 44 11 52 20 8 8 20 15 25 15 6 0 7 5 3 11 -7 12 -45 8 -129 -11 -76 -17 -394 -18 -424 -2 -12 8 -49 17 -80 22 -34 5 -98 28 -163 59 -58 28 -108 51 -111 51 -13 0 -161 93 -257 161 -127 91 -130 93 -130 81z" transform="translate(0.000000,0.000000) scale(1,1)" stroke="none" fill="#81786C"/>
</g>
<g id="pattern2" transform="matrix(0.618,0,0,0.618,3338,981)">
<path d="M50 492 c0 -17 49 -81 97 -128 61 -59 147 -118 243 -167 41 -21 80 -44 85 -50 33 -40 122 -70 320 -108 123 -24 282 -30 293 -12 4 7 33 19 65 27 31 8 61 17 66 20 5 3 25 8 45 11 20 2 44 11 52 20 8 8 20 15 25 15 6 0 7 5 3 11 -7 12 -45 8 -129 -11 -76 -17 -394 -18 -424 -2 -12 8 -49 17 -80 22 -34 5 -98 28 -163 59 -58 28 -108 51 -111 51 -13 0 -161 93 -257 161 -127 91 -130 93 -130 81z" transform="translate(4422,0.000000) scale(-1,1)" stroke="none" fill="#81786C"/>
</g>
<g id="pattern3" transform="matrix(0.618,0,0,0.618,1252,4422)matrix(0.71,0.71,-0.71,0.71,0,0)">
<path d="M50 492 c0 -17 49 -81 97 -128 61 -59 147 -118 243 -167 41 -21 80 -44 85 -50 33 -40 122 -70 320 -108 123 -24 282 -30 293 -12 4 7 33 19 65 27 31 8 61 17 66 20 5 3 25 8 45 11 20 2 44 11 52 20 8 8 20 15 25 15 6 0 7 5 3 11 -7 12 -45 8 -129 -11 -76 -17 -394 -18 -424 -2 -12 8 -49 17 -80 22 -34 5 -98 28 -163 59 -58 28 -108 51 -111 51 -13 0 -161 93 -257 161 -127 91 -130 93 -130 81z" transform="translate(710,-710) scale(1,1)" stroke="none" fill="#81786C"/>
</g>
<g id="pattern4" transform="matrix(1.618,0,0,1.618,1855,1855)matrix(0.87,0.5,-0.5,0.87,0,0)">
<path d="M50 492 c0 -17 49 -81 97 -128 61 -59 147 -118 243 -167 41 -21 80 -44 85 -50 33 -40 122 -70 320 -108 123 -24 282 -30 293 -12 4 7 33 19 65 27 31 8 61 17 66 20 5 3 25 8 45 11 20 2 44 11 52 20 8 8 20 15 25 15 6 0 7 5 3 11 -7 12 -45 8 -129 -11 -76 -17 -394 -18 -424 -2 -12 8 -49 17 -80 22 -34 5 -98 28 -163 59 -58 28 -108 51 -111 51 -13 0 -161 93 -257 161 -127 91 -130 93 -130 81z" transform="translate(710,-710) scale(1,1)" stroke="none" fill="#81786C"/>
</g>
</g>
</g>

<g id="1" transform="translate(1626.0,0)scale(0.25,0.25)">

<g id="pattern">
<rect width="7046" height="7046" fill="#BBC3BD"/>
<g id="pattern1" transform="matrix(1,0,0,1,439,439)">
<path d="M50 492 c0 -17 49 -81 97 -128 61 -59 147 -118 243 -167 41 -21 80 -44 85 -50 33 -40 122 -70 320 -108 123 -24 282 -30 293 -12 4 7 33 19 65 27 31 8 61 17 66 20 5 3 25 8 45 11 20 2 44 11 52 20 8 8 20 15 25 15 6 0 7 5 3 11 -7 12 -45 8 -129 -11 -76 -17 -394 -18 -424 -2 -12 8 -49 17 -80 22 -34 5 -98 28 -163 59 -58 28 -108 51 -111 51 -13 0 -161 93 -257 161 -127 91 -130 93 -130 81z" transform="translate(0.000000,0.000000) scale(1,1)" stroke="none" fill="#81786C"/>
</g>
<g id="pattern2" transform="matrix(0.618,0,0,0.618,3338,981)">
<path d="M50 492 c0 -17 49 -81 97 -128 61 -59 147 -118 243 -167 41 -21 80 -44 85 -50 33 -40 122 -70 320 -108 123 -24 282 -30 293 -12 4 7 33 19 65 27 31 8 61 17 66 20 5 3 25 8 45 11 20 2 44 11 52 20 8 8 20 15 25 15 6 0 7 5 3 11 -7 12 -45 8 -129 -11 -76 -17 -394 -18 -424 -2 -12 8 -49 17 -80 22 -34 5 -98 28 -163 59 -58 28 -108 51 -111 51 -13 0 -161 93 -257 161 -127 91 -130 93 -130 81z" transform="translate(4422,0.000000) scale(-1,1)" stroke="none" fill="#81786C"/>
</g>
<g id="pattern3" transform="matrix(0.618,0,0,0.618,1252,4422)matrix(0.71,0.71,-0.71,0.71,0,0)">
<path d="M50 492 c0 -17 49 -81 97 -128 61 -59 147 -118 243 -167 41 -21 80 -44 85 -50 33 -40 122 -70 320 -108 123 -24 282 -30 293 -12 4 7 33 19 65 27 31 8 61 17 66 20 5 3 25 8 45 11 20 2 44 11 52 20 8 8 20 15 25 15 6 0 7 5 3 11 -7 12 -45 8 -129 -11 -76 -17 -394 -18 -424 -2 -12 8 -49 17 -80 22 -34 5 -98 28 -163 59 -58 28 -108 51 -111 51 -13 0 -161 93 -257 161 -127 91 -130 93 -130 81z" transform="translate(710,-710) scale(1,1)" stroke="none" fill="#81786C"/>
</g>
<g id="pattern4" transform="matrix(1.618,0,0,1.618,1855,1855)matrix(0.87,0.5,-0.5,0.87,0,0)">
<path d="M50 492 c0 -17 49 -81 97 -128 61 -59 147 -118 243 -167 41 -21 80 -44 85 -50 33 -40 122 -70 320 -108 123 -24 282 -30 293 -12 4 7 33 19 65 27 31 8 61 17 66 20 5 3 25 8 45 11 20 2 44 11 52 20 8 8 20 15 25 15 6 0 7 5 3 11 -7 12 -45 8 -129 -11 -76 -17 -394 -18 -424 -2 -12 8 -49 17 -80 22 -34 5 -98 28 -163 59 -58 28 -108 51 -111 51 -13 0 -161 93 -257 161 -127 91 -130 93 -130 81z" transform="translate(710,-710) scale(1,1)" stroke="none" fill="#81786C"/>
</g>
</g>
</g>

<g id="2" transform="translate(3252.0,0)scale(0.25,0.25)">

<g id="pattern">
<rect width="7046" height="7046" fill="#BBC3BD"/>
<g id="pattern1" transform="matrix(1,0,0,1,439,439)">
<path d="M50 492 c0 -17 49 -81 97 -128 61 -59 147 -118 243 -167 41 -21 80 -44 85 -50 33 -40 122 -70 320 -108 123 -24 282 -30 293 -12 4 7 33 19 65 27 31 8 61 17 66 20 5 3 25 8 45 11 20 2 44 11 52 20 8 8 20 15 25 15 6 0 7 5 3 11 -7 12 -45 8 -129 -11 -76 -17 -394 -18 -424 -2 -12 8 -49 17 -80 22 -34 5 -98 28 -163 59 -58 28 -108 51 -111 51 -13 0 -161 93 -257 161 -127 91 -130 93 -130 81z" transform="translate(0.000000,0.000000) scale(1,1)" stroke="none" fill="#81786C"/>
</g>
<g id="pattern2" transform="matrix(0.618,0,0,0.618,3338,981)">
<path d="M50 492 c0 -17 49 -81 97 -128 61 -59 147 -118 243 -167 41 -21 80 -44 85 -50 33 -40 122 -70 320 -108 123 -24 282 -30 293 -12 4 7 33 19 65 27 31 8 61 17 66 20 5 3 25 8 45 11 20 2 44 11 52 20 8 8 20 15 25 15 6 0 7 5 3 11 -7 12 -45 8 -129 -11 -76 -17 -394 -18 -424 -2 -12 8 -49 17 -80 22 -34 5 -98 28 -163 59 -58 28 -108 51 -111 51 -13 0 -161 93 -257 161 -127 91 -130 93 -130 81z" transform="translate(4422,0.000000) scale(-1,1)" stroke="none" fill="#81786C"/>
</g>
<g id="pattern3" transform="matrix(0.618,0,0,0.618,1252,4422)matrix(0.71,0.71,-0.71,0.71,0,0)">
<path d="M50 492 c0 -17 49 -81 97 -128 61 -59 147 -118 243 -167 41 -21 80 -44 85 -50 33 -40 122 -70 320 -108 123 -24 282 -30 293 -12 4 7 33 19 65 27 31 8 61 17 66 20 5 3 25 8 45 11 20 2 44 11 52 20 8 8 20 15 25 15 6 0 7 5 3 11 -7 12 -45 8 -129 -11 -76 -17 -394 -18 -424 -2 -12 8 -49 17 -80 22 -34 5 -98 28 -163 59 -58 28 -108 51 -111 51 -13 0 -161 93 -257 161 -127 91 -130 93 -130 81z" transform="translate(710,-710) scale(1,1)" stroke="none" fill="#81786C"/>
</g>
<g id="pattern4" transform="matrix(1.618,0,0,1.618,1855,1855)matrix(0.87,0.5,-0.5,0.87,0,0)">
<path d="M50 492 c0 -17 49 -81 97 -128 61 -59 147 -118 243 -167 41 -21 80 -44 85 -50 33 -40 122 -70 320 -108 123 -24 282 -30 293 -12 4 7 33 19 65 27 31 8 61 17 66 20 5 3 25 8 45 11 20 2 44 11 52 20 8 8 20 15 25 15 6 0 7 5 3 11 -7 12 -45 8 -129 -11 -76 -17 -394 -18 -424 -2 -12 8 -49 17 -80 22 -34 5 -98 28 -163 59 -58 28 -108 51 -111 51 -13 0 -161 93 -257 161 -127 91 -130 93 -130 81z" transform="translate(710,-710) scale(1,1)" stroke="none" fill="#81786C"/>
</g>
</g>
</g>

<g id="3" transform="translate(4878.0,0)scale(0.25,0.25)">

<g id="pattern">
<rect width="7046" height="7046" fill="#BBC3BD"/>
<g id="pattern1" transform="matrix(1,0,0,1,439,439)">
<path d="M50 492 c0 -17 49 -81 97 -128 61 -59 147 -118 243 -167 41 -21 80 -44 85 -50 33 -40 122 -70 320 -108 123 -24 282 -30 293 -12 4 7 33 19 65 27 31 8 61 17 66 20 5 3 25 8 45 11 20 2 44 11 52 20 8 8 20 15 25 15 6 0 7 5 3 11 -7 12 -45 8 -129 -11 -76 -17 -394 -18 -424 -2 -12 8 -49 17 -80 22 -34 5 -98 28 -163 59 -58 28 -108 51 -111 51 -13 0 -161 93 -257 161 -127 91 -130 93 -130 81z" transform="translate(0.000000,0.000000) scale(1,1)" stroke="none" fill="#81786C"/>
</g>
<g id="pattern2" transform="matrix(0.618,0,0,0.618,3338,981)">
<path d="M50 492 c0 -17 49 -81 97 -128 61 -59 147 -118 243 -167 41 -21 80 -44 85 -50 33 -40 122 -70 320 -108 123 -24 282 -30 293 -12 4 7 33 19 65 27 31 8 61 17 66 20 5 3 25 8 45 11 20 2 44 11 52 20 8 8 20 15 25 15 6 0 7 5 3 11 -7 12 -45 8 -129 -11 -76 -17 -394 -18 -424 -2 -12 8 -49 17 -80 22 -34 5 -98 28 -163 59 -58 28 -108 51 -111 51 -13 0 -161 93 -257 161 -127 91 -130 93 -130 81z" transform="translate(4422,0.000000) scale(-1,1)" stroke="none" fill="#81786C"/>
</g>
<g id="pattern3" transform="matrix(0.618,0,0,0.618,1252,4422)matrix(0.71,0.71,-0.71,0.71,0,0)">
<path d="M50 492 c0 -17 49 -81 97 -128 61 -59 147 -118 243 -167 41 -21 80 -44 85 -50 33 -40 122 -70 320 -108 123 -24 282 -30 293 -12 4 7 33 19 65 27 31 8 61 17 66 20 5 3 25 8 45 11 20 2 44 11 52 20 8 8 20 15 25 15 6 0 7 5 3 11 -7 12 -45 8 -129 -11 -76 -17 -394 -18 -424 -2 -12 8 -49 17 -80 22 -34 5 -98 28 -163 59 -58 28 -108 51 -111 51 -13 0 -161 93 -257 161 -127 91 -130 93 -130 81z" transform="translate(710,-710) scale(1,1)" stroke="none" fill="#81786C"/>
</g>
<g id="pattern4" transform="matrix(1.618,0,0,1.618,1855,1855)matrix(0.87,0.5,-0.5,0.87,0,0)">
<path d="M50 492 c0 -17 49 -81 97 -128 61 -59 147 -118 243 -167 41 -21 80 -44 85 -50 33 -40 122 -70 320 -108 123 -24 282 -30 293 -12 4 7 33 19 65 27 31 8 61 17 66 20 5 3 25 8 45 11 20 2 44 11 52 20 8 8 20 15 25 15 6 0 7 5 3 11 -7 12 -45 8 -129 -11 -76 -17 -394 -18 -424 -2 -12 8 -49 17 -80 22 -34 5 -98 28 -163 59 -58 28 -108 51 -111 51 -13 0 -161 93 -257 161 -127 91 -130 93 -130 81z" transform="translate(710,-710) scale(1,1)" stroke="none" fill="#81786C"/>
</g>
</g>
</g>

<g id="4" transform="translate(6504.0,0)scale(0.25,0.25)">

<g id="pattern">
<rect width="7046" height="7046" fill="#BBC3BD"/>
<g id="pattern1" transform="matrix(1,0,0,1,439,439)">
<path d="M50 492 c0 -17 49 -81 97 -128 61 -59 147 -118 243 -167 41 -21 80 -44 85 -50 33 -40 122 -70 320 -108 123 -24 282 -30 293 -12 4 7 33 19 65 27 31 8 61 17 66 20 5 3 25 8 45 11 20 2 44 11 52 20 8 8 20 15 25 15 6 0 7 5 3 11 -7 12 -45 8 -129 -11 -76 -17 -394 -18 -424 -2 -12 8 -49 17 -80 22 -34 5 -98 28 -163 59 -58 28 -108 51 -111 51 -13 0 -161 93 -257 161 -127 91 -130 93 -130 81z" transform="translate(0.000000,0.000000) scale(1,1)" stroke="none" fill="#81786C"/>
</g>
<g id="pattern2" transform="matrix(0.618,0,0,0.618,3338,981)">
<path d="M50 492 c0 -17 49 -81 97 -128 61 -59 147 -118 243 -167 41 -21 80 -44 85 -50 33 -40 122 -70 320 -108 123 -24 282 -30 293 -12 4 7 33 19 65 27 31 8 61 17 66 20 5 3 25 8 45 11 20 2 44 11 52 20 8 8 20 15 25 15 6 0 7 5 3 11 -7 12 -45 8 -129 -11 -76 -17 -394 -18 -424 -2 -12 8 -49 17 -80 22 -34 5 -98 28 -163 59 -58 28 -108 51 -111 51 -13 0 -161 93 -257 161 -127 91 -130 93 -130 81z" transform="translate(4422,0.000000) scale(-1,1)" stroke="none" fill="#81786C"/>
</g>
<g id="pattern3" transform="matrix(0.618,0,0,0.618,1252,4422)matrix(0.71,0.71,-0.71,0.71,0,0)">
<path d="M50 492 c0 -17 49 -81 97 -128 61 -59 147 -118 243 -167 41 -21 80 -44 85 -50 33 -40 122 -70 320 -108 123 -24 282 -30 293 -12 4 7 33 19 65 27 31 8 61 17 66 20 5 3 25 8 45 11 20 2 44 11 52 20 8 8 20 15 25 15 6 0 7 5 3 11 -7 12 -45 8 -129 -11 -76 -17 -394 -18 -424 -2 -12 8 -49 17 -80 22 -34 5 -98 28 -163 59 -58 28 -108 51 -111 51 -13 0 -161 93 -257 161 -127 91 -130 93 -130 81z" transform="translate(710,-710) scale(1,1)" stroke="none" fill="#81786C"/>
</g>
<g id="pattern4" transform="matrix(1.618,0,0,1.618,1855,1855)matrix(0.87,0.5,-0.5,0.87,0,0)">
<path d="M50 492 c0 -17 49 -81 97 -128 61 -59 147 -118 243 -167 41 -21 80 -44 85 -50 33 -40 122 -70 320 -108 123 -24 282 -30 293 -12 4 7 33 19 65 27 31 8 61 17 66 20 5 3 25 8 45 11 20 2 44 11 52 20 8 8 20 15 25 15 6 0 7 5 3 11 -7 12 -45 8 -129 -11 -76 -17 -394 -18 -424 -2 -12 8 -49 17 -80 22 -34 5 -98 28 -163 59 -58 28 -108 51 -111 51 -13 0 -161 93 -257 161 -127 91 -130 93 -130 81z" transform="translate(710,-710) scale(1,1)" stroke="none" fill="#81786C"/>
</g>
</g>
</g>

</g>
<g id="row1" transform="translate(0,1626.0)">
<g id="0" transform="translate(0.0,0)scale(0.25,0.25)">

<g id="pattern">
<rect width="7046" height="7046" fill="#BBC3BD"/>
<g id="pattern1" transform="matrix(1,0,0,1,439,439)">
<path d="M50 492 c0 -17 49 -81 97 -128 61 -59 147 -118 243 -167 41 -21 80 -44 85 -50 33 -40 122 -70 320 -108 123 -24 282 -30 293 -12 4 7 33 19 65 27 31 8 61 17 66 20 5 3 25 8 45 11 20 2 44 11 52 20 8 8 20 15 25 15 6 0 7 5 3 11 -7 12 -45 8 -129 -11 -76 -17 -394 -18 -424 -2 -12 8 -49 17 -80 22 -34 5 -98 28 -163 59 -58 28 -108 51 -111 51 -13 0 -161 93 -257 161 -127 91 -130 93 -130 81z" transform="translate(0.000000,0.000000) scale(1,1)" stroke="none" fill="#81786C"/>
</g>
<g id="pattern2" transform="matrix(0.618,0,0,0.618,3338,981)">
<path d="M50 492 c0 -17 49 -81 97 -128 61 -59 147 -118 243 -167 41 -21 80 -44 85 -50 33 -40 122 -70 320 -108 123 -24 282 -30 293 -12 4 7 33 19 65 27 31 8 61 17 66 20 5 3 25 8 45 11 20 2 44 11 52 20 8 8 20 15 25 15 6 0 7 5 3 11 -7 12 -45 8 -129 -11 -76 -17 -394 -18 -424 -2 -12 8 -49 17 -80 22 -34 5 -98 28 -163 59 -58 28 -108 51 -111 51 -13 0 -161 93 -257 161 -127 91 -130 93 -130 81z" transform="translate(4422,0.000000) scale(-1,1)" stroke="none" fill="#81786C"/>
</g>
<g id="pattern3" transform="matrix(0.618,0,0,0.618,1252,4422)matrix(0.71,0.71,-0.71,0.71,0,0)">
<path d="M50 492 c0 -17 49 -81 97 -128 61 -59 147 -118 243 -167 41 -21 80 -44 85 -50 33 -40 122 -70 320 -108 123 -24 282 -30 293 -12 4 7 33 19 65 27 31 8 61 17 66 20 5 3 25 8 45 11 20 2 44 11 52 20 8 8 20 15 25 15 6 0 7 5 3 11 -7 12 -45 8 -129 -11 -76 -17 -394 -18 -424 -2 -12 8 -49 17 -80 22 -34 5 -98 28 -163 59 -58 28 -108 51 -111 51 -13 0 -161 93 -257 161 -127 91 -130 93 -130 81z" transform="translate(710,-710) scale(1,1)" stroke="none" fill="#81786C"/>
</g>
<g id="pattern4" transform="matrix(1.618,0,0,1.618,1855,1855)matrix(0.87,0.5,-0.5,0.87,0,0)">
<path d="M50 492 c0 -17 49 -81 97 -128 61 -59 147 -118 243 -167 41 -21 80 -44 85 -50 33 -40 122 -70 320 -108 123 -24 282 -30 293 -12 4 7 33 19 65 27 31 8 61 17 66 20 5 3 25 8 45 11 20 2 44 11 52 20 8 8 20 15 25 15 6 0 7 5 3 11 -7 12 -45 8 -129 -11 -76 -17 -394 -18 -424 -2 -12 8 -49 17 -80 22 -34 5 -98 28 -163 59 -58 28 -108 51 -111 51 -13 0 -161 93 -257 161 -127 91 -130 93 -130 81z" transform="translate(710,-710) scale(1,1)" stroke="none" fill="#81786C"/>
</g>
</g>
</g>

<g id="1" transform="translate(1626.0,0)scale(0.25,0.25)">

<g id="pattern">
<rect width="7046" height="7046" fill="#BBC3BD"/>
<g id="pattern1" transform="matrix(1,0,0,1,439,439)">
<path d="M50 492 c0 -17 49 -81 97 -128 61 -59 147 -118 243 -167 41 -21 80 -44 85 -50 33 -40 122 -70 320 -108 123 -24 282 -30 293 -12 4 7 33 19 65 27 31 8 61 17 66 20 5 3 25 8 45 11 20 2 44 11 52 20 8 8 20 15 25 15 6 0 7 5 3 11 -7 12 -45 8 -129 -11 -76 -17 -394 -18 -424 -2 -12 8 -49 17 -80 22 -34 5 -98 28 -163 59 -58 28 -108 51 -111 51 -13 0 -161 93 -257 161 -127 91 -130 93 -130 81z" transform="translate(0.000000,0.000000) scale(1,1)" stroke="none" fill="#81786C"/>
</g>
<g id="pattern2" transform="matrix(0.618,0,0,0.618,3338,981)">
<path d="M50 492 c0 -17 49 -81 97 -128 61 -59 147 -118 243 -167 41 -21 80 -44 85 -50 33 -40 122 -70 320 -108 123 -24 282 -30 293 -12 4 7 33 19 65 27 31 8 61 17 66 20 5 3 25 8 45 11 20 2 44 11 52 20 8 8 20 15 25 15 6 0 7 5 3 11 -7 12 -45 8 -129 -11 -76 -17 -394 -18 -424 -2 -12 8 -49 17 -80 22 -34 5 -98 28 -163 59 -58 28 -108 51 -111 51 -13 0 -161 93 -257 161 -127 91 -130 93 -130 81z" transform="translate(4422,0.000000) scale(-1,1)" stroke="none" fill="#81786C"/>
</g>
<g id="pattern3" transform="matrix(0.618,0,0,0.618,1252,4422)matrix(0.71,0.71,-0.71,0.71,0,0)">
<path d="M50 492 c0 -17 49 -81 97 -128 61 -59 147 -118 243 -167 41 -21 80 -44 85 -50 33 -40 122 -70 320 -108 123 -24 282 -30 293 -12 4 7 33 19 65 27 31 8 61 17 66 20 5 3 25 8 45 11 20 2 44 11 52 20 8 8 20 15 25 15 6 0 7 5 3 11 -7 12 -45 8 -129 -11 -76 -17 -394 -18 -424 -2 -12 8 -49 17 -80 22 -34 5 -98 28 -163 59 -58 28 -108 51 -111 51 -13 0 -161 93 -257 161 -127 91 -130 93 -130 81z" transform="translate(710,-710) scale(1,1)" stroke="none" fill="#81786C"/>
</g>
<g id="pattern4" transform="matrix(1.618,0,0,1.618,1855,1855)matrix(0.87,0.5,-0.5,0.87,0,0)">
<path d="M50 492 c0 -17 49 -81 97 -128 61 -59 147 -118 243 -167 41 -21 80 -44 85 -50 33 -40 122 -70 320 -108 123 -24 282 -30 293 -12 4 7 33 19 65 27 31 8 61 17 66 20 5 3 25 8 45 11 20 2 44 11 52 20 8 8 20 15 25 15 6 0 7 5 3 11 -7 12 -45 8 -129 -11 -76 -17 -394 -18 -424 -2 -12 8 -49 17 -80 22 -34 5 -98 28 -163 59 -58 28 -108 51 -111 51 -13 0 -161 93 -257 161 -127 91 -130 93 -130 81z" transform="translate(710,-710) scale(1,1)" stroke="none" fill="#81786C"/>
</g>
</g>
</g>

<g id="2" transform="translate(3252.0,0)scale(0.25,0.25)">

<g id="pattern">
<rect width="7046" height="7046" fill="#BBC3BD"/>
<g id="pattern1" transform="matrix(1,0,0,1,439,439)">
<path d="M50 492 c0 -17 49 -81 97 -128 61 -59 147 -118 243 -167 41 -21 80 -44 85 -50 33 -40 122 -70 320 -108 123 -24 282 -30 293 -12 4 7 33 19 65 27 31 8 61 17 66 20 5 3 25 8 45 11 20 2 44 11 52 20 8 8 20 15 25 15 6 0 7 5 3 11 -7 12 -45 8 -129 -11 -76 -17 -394 -18 -424 -2 -12 8 -49 17 -80 22 -34 5 -98 28 -163 59 -58 28 -108 51 -111 51 -13 0 -161 93 -257 161 -127 91 -130 93 -130 81z" transform="translate(0.000000,0.000000) scale(1,1)" stroke="none" fill="#81786C"/>
</g>
<g id="pattern2" transform="matrix(0.618,0,0,0.618,3338,981)">
<path d="M50 492 c0 -17 49 -81 97 -128 61 -59 147 -118 243 -167 41 -21 80 -44 85 -50 33 -40 122 -70 320 -108 123 -24 282 -30 293 -12 4 7 33 19 65 27 31 8 61 17 66 20 5 3 25 8 45 11 20 2 44 11 52 20 8 8 20 15 25 15 6 0 7 5 3 11 -7 12 -45 8 -129 -11 -76 -17 -394 -18 -424 -2 -12 8 -49 17 -80 22 -34 5 -98 28 -163 59 -58 28 -108 51 -111 51 -13 0 -161 93 -257 161 -127 91 -130 93 -130 81z" transform="translate(4422,0.000000) scale(-1,1)" stroke="none" fill="#81786C"/>
</g>
<g id="pattern3" transform="matrix(0.618,0,0,0.618,1252,4422)matrix(0.71,0.71,-0.71,0.71,0,0)">
<path d="M50 492 c0 -17 49 -81 97 -128 61 -59 147 -118 243 -167 41 -21 80 -44 85 -50 33 -40 122 -70 320 -108 123 -24 282 -30 293 -12 4 7 33 19 65 27 31 8 61 17 66 20 5 3 25 8 45 11 20 2 44 11 52 20 8 8 20 15 25 15 6 0 7 5 3 11 -7 12 -45 8 -129 -11 -76 -17 -394 -18 -424 -2 -12 8 -49 17 -80 22 -34 5 -98 28 -163 59 -58 28 -108 51 -111 51 -13 0 -161 93 -257 161 -127 91 -130 93 -130 81z" transform="translate(710,-710) scale(1,1)" stroke="none" fill="#81786C"/>
</g>
<g id="pattern4" transform="matrix(1.618,0,0,1.618,1855,1855)matrix(0.87,0.5,-0.5,0.87,0,0)">
<path d="M50 492 c0 -17 49 -81 97 -128 61 -59 147 -118 243 -167 41 -21 80 -44 85 -50 33 -40 122 -70 320 -108 123 -24 282 -30 293 -12 4 7 33 19 65 27 31 8 61 17 66 20 5 3 25 8 45 11 20 2 44 11 52 20 8 8 20 15 25 15 6 0 7 5 3 11 -7 12 -45 8 -129 -11 -76 -17 -394 -18 -424 -2 -12 8 -49 17 -80 22 -34 5 -98 28 -163 59 -58 28 -108 51 -111 51 -13 0 -161 93 -257 161 -127 91 -130 93 -130 81z" transform="translate(710,-710) scale(1,1)" stroke="none" fill="#81786C"/>
</g>
</g>
</g>

<g id="3" transform="translate(4878.0,0)scale(0.25,0.25)">

<g id="pattern">
<rect width="7046" height="7046" fill="#BBC3BD"/>
<g id="pattern1" transform="matrix(1,0,0,1,439,439)">
<path d="M50 492 c0 -17 49 -81 97 -128 61 -59 147 -118 243 -167 41 -21 80 -44 85 -50 33 -40 122 -70 320 -108 123 -24 282 -30 293 -12 4 7 33 19 65 27 31 8 61 17 66 20 5 3 25 8 45 11 20 2 44 11 52 20 8 8 20 15 25 15 6 0 7 5 3 11 -7 12 -45 8 -129 -11 -76 -17 -394 -18 -424 -2 -12 8 -49 17 -80 22 -34 5 -98 28 -163 59 -58 28 -108 51 -111 51 -13 0 -161 93 -257 161 -127 91 -130 93 -130 81z" transform="translate(0.000000,0.000000) scale(1,1)" stroke="none" fill="#81786C"/>
</g>
<g id="pattern2" transform="matrix(0.618,0,0,0.618,3338,981)">
<path d="M50 492 c0 -17 49 -81 97 -128 61 -59 147 -118 243 -167 41 -21 80 -44 85 -50 33 -40 122 -70 320 -108 123 -24 282 -30 293 -12 4 7 33 19 65 27 31 8 61 17 66 20 5 3 25 8 45 11 20 2 44 11 52 20 8 8 20 15 25 15 6 0 7 5 3 11 -7 12 -45 8 -129 -11 -76 -17 -394 -18 -424 -2 -12 8 -49 17 -80 22 -34 5 -98 28 -163 59 -58 28 -108 51 -111 51 -13 0 -161 93 -257 161 -127 91 -130 93 -130 81z" transform="translate(4422,0.000000) scale(-1,1)" stroke="none" fill="#81786C"/>
</g>
<g id="pattern3" transform="matrix(0.618,0,0,0.618,1252,4422)matrix(0.71,0.71,-0.71,0.71,0,0)">
<path d="M50 492 c0 -17 49 -81 97 -128 61 -59 147 -118 243 -167 41 -21 80 -44 85 -50 33 -40 122 -70 320 -108 123 -24 282 -30 293 -12 4 7 33 19 65 27 31 8 61 17 66 20 5 3 25 8 45 11 20 2 44 11 52 20 8 8 20 15 25 15 6 0 7 5 3 11 -7 12 -45 8 -129 -11 -76 -17 -394 -18 -424 -2 -12 8 -49 17 -80 22 -34 5 -98 28 -163 59 -58 28 -108 51 -111 51 -13 0 -161 93 -257 161 -127 91 -130 93 -130 81z" transform="translate(710,-710) scale(1,1)" stroke="none" fill="#81786C"/>
</g>
<g id="pattern4" transform="matrix(1.618,0,0,1.618,1855,1855)matrix(0.87,0.5,-0.5,0.87,0,0)">
<path d="M50 492 c0 -17 49 -81 97 -128 61 -59 147 -118 243 -167 41 -21 80 -44 85 -50 33 -40 122 -70 320 -108 123 -24 282 -30 293 -12 4 7 33 19 65 27 31 8 61 17 66 20 5 3 25 8 45 11 20 2 44 11 52 20 8 8 20 15 25 15 6 0 7 5 3 11 -7 12 -45 8 -129 -11 -76 -17 -394 -18 -424 -2 -12 8 -49 17 -80 22 -34 5 -98 28 -163 59 -58 28 -108 51 -111 51 -13 0 -161 93 -257 161 -127 91 -130 93 -130 81z" transform="translate(710,-710) scale(1,1)" stroke="none" fill="#81786C"/>
</g>
</g>
</g>

<g id="4" transform="translate(6504.0,0)scale(0.25,0.25)">

<g id="pattern">
<rect width="7046" height="7046" fill="#BBC3BD"/>
<g id="pattern1" transform="matrix(1,0,0,1,439,439)">
<path d="M50 492 c0 -17 49 -81 97 -128 61 -59 147 -118 243 -167 41 -21 80 -44 85 -50 33 -40 122 -70 320 -108 123 -24 282 -30 293 -12 4 7 33 19 65 27 31 8 61 17 66 20 5 3 25 8 45 11 20 2 44 11 52 20 8 8 20 15 25 15 6 0 7 5 3 11 -7 12 -45 8 -129 -11 -76 -17 -394 -18 -424 -2 -12 8 -49 17 -80 22 -34 5 -98 28 -163 59 -58 28 -108 51 -111 51 -13 0 -161 93 -257 161 -127 91 -130 93 -130 81z" transform="translate(0.000000,0.000000) scale(1,1)" stroke="none" fill="#81786C"/>
</g>
<g id="pattern2" transform="matrix(0.618,0,0,0.618,3338,981)">
<path d="M50 492 c0 -17 49 -81 97 -128 61 -59 147 -118 243 -167 41 -21 80 -44 85 -50 33 -40 122 -70 320 -108 123 -24 282 -30 293 -12 4 7 33 19 65 27 31 8 61 17 66 20 5 3 25 8 45 11 20 2 44 11 52 20 8 8 20 15 25 15 6 0 7 5 3 11 -7 12 -45 8 -129 -11 -76 -17 -394 -18 -424 -2 -12 8 -49 17 -80 22 -34 5 -98 28 -163 59 -58 28 -108 51 -111 51 -13 0 -161 93 -257 161 -127 91 -130 93 -130 81z" transform="translate(4422,0.000000) scale(-1,1)" stroke="none" fill="#81786C"/>
</g>
<g id="pattern3" transform="matrix(0.618,0,0,0.618,1252,4422)matrix(0.71,0.71,-0.71,0.71,0,0)">
<path d="M50 492 c0 -17 49 -81 97 -128 61 -59 147 -118 243 -167 41 -21 80 -44 85 -50 33 -40 122 -70 320 -108 123 -24 282 -30 293 -12 4 7 33 19 65 27 31 8 61 17 66 20 5 3 25 8 45 11 20 2 44 11 52 20 8 8 20 15 25 15 6 0 7 5 3 11 -7 12 -45 8 -129 -11 -76 -17 -394 -18 -424 -2 -12 8 -49 17 -80 22 -34 5 -98 28 -163 59 -58 28 -108 51 -111 51 -13 0 -161 93 -257 161 -127 91 -130 93 -130 81z" transform="translate(710,-710) scale(1,1)" stroke="none" fill="#81786C"/>
</g>
<g id="pattern4" transform="matrix(1.618,0,0,1.618,1855,1855)matrix(0.87,0.5,-0.5,0.87,0,0)">
<path d="M50 492 c0 -17 49 -81 97 -128 61 -59 147 -118 243 -167 41 -21 80 -44 85 -50 33 -40 122 -70 320 -108 123 -24 282 -30 293 -12 4 7 33 19 65 27 31 8 61 17 66 20 5 3 25 8 45 11 20 2 44 11 52 20 8 8 20 15 25 15 6 0 7 5 3 11 -7 12 -45 8 -129 -11 -76 -17 -394 -18 -424 -2 -12 8 -49 17 -80 22 -34 5 -98 28 -163 59 -58 28 -108 51 -111 51 -13 0 -161 93 -257 161 -127 91 -130 93 -130 81z" transform="translate(710,-710) scale(1,1)" stroke="none" fill="#81786C"/>
</g>
</g>
</g>

</g>
<g id="row2" transform="translate(0,3252.0)">
<g id="0" transform="translate(0.0,0)scale(0.25,0.25)">

<g id="pattern">
<rect width="7046" height="7046" fill="#BBC3BD"/>
<g id="pattern1" transform="matrix(1,0,0,1,439,439)">
<path d="M50 492 c0 -17 49 -81 97 -128 61 -59 147 -118 243 -167 41 -21 80 -44 85 -50 33 -40 122 -70 320 -108 123 -24 282 -30 293 -12 4 7 33 19 65 27 31 8 61 17 66 20 5 3 25 8 45 11 20 2 44 11 52 20 8 8 20 15 25 15 6 0 7 5 3 11 -7 12 -45 8 -129 -11 -76 -17 -394 -18 -424 -2 -12 8 -49 17 -80 22 -34 5 -98 28 -163 59 -58 28 -108 51 -111 51 -13 0 -161 93 -257 161 -127 91 -130 93 -130 81z" transform="translate(0.000000,0.000000) scale(1,1)" stroke="none" fill="#81786C"/>
</g>
<g id="pattern2" transform="matrix(0.618,0,0,0.618,3338,981)">
<path d="M50 492 c0 -17 49 -81 97 -128 61 -59 147 -118 243 -167 41 -21 80 -44 85 -50 33 -40 122 -70 320 -108 123 -24 282 -30 293 -12 4 7 33 19 65 27 31 8 61 17 66 20 5 3 25 8 45 11 20 2 44 11 52 20 8 8 20 15 25 15 6 0 7 5 3 11 -7 12 -45 8 -129 -11 -76 -17 -394 -18 -424 -2 -12 8 -49 17 -80 22 -34 5 -98 28 -163 59 -58 28 -108 51 -111 51 -13 0 -161 93 -257 161 -127 91 -130 93 -130 81z" transform="translate(4422,0.000000) scale(-1,1)" stroke="none" fill="#81786C"/>
</g>
<g id="pattern3" transform="matrix(0.618,0,0,0.618,1252,4422)matrix(0.71,0.71,-0.71,0.71,0,0)">
<path d="M50 492 c0 -17 49 -81 97 -128 61 -59 147 -118 243 -167 41 -21 80 -44 85 -50 33 -40 122 -70 320 -108 123 -24 282 -30 293 -12 4 7 33 19 65 27 31 8 61 17 66 20 5 3 25 8 45 11 20 2 44 11 52 20 8 8 20 15 25 15 6 0 7 5 3 11 -7 12 -45 8 -129 -11 -76 -17 -394 -18 -424 -2 -12 8 -49 17 -80 22 -34 5 -98 28 -163 59 -58 28 -108 51 -111 51 -13 0 -161 93 -257 161 -127 91 -130 93 -130 81z" transform="translate(710,-710) scale(1,1)" stroke="none" fill="#81786C"/>
</g>
<g id="pattern4" transform="matrix(1.618,0,0,1.618,1855,1855)matrix(0.87,0.5,-0.5,0.87,0,0)">
<path d="M50 492 c0 -17 49 -81 97 -128 61 -59 147 -118 243 -167 41 -21 80 -44 85 -50 33 -40 122 -70 320 -108 123 -24 282 -30 293 -12 4 7 33 19 65 27 31 8 61 17 66 20 5 3 25 8 45 11 20 2 44 11 52 20 8 8 20 15 25 15 6 0 7 5 3 11 -7 12 -45 8 -129 -11 -76 -17 -394 -18 -424 -2 -12 8 -49 17 -80 22 -34 5 -98 28 -163 59 -58 28 -108 51 -111 51 -13 0 -161 93 -257 161 -127 91 -130 93 -130 81z" transform="translate(710,-710) scale(1,1)" stroke="none" fill="#81786C"/>
</g>
</g>
</g>

<g id="1" transform="translate(1626.0,0)scale(0.25,0.25)">

<g id="pattern">
<rect width="7046" height="7046" fill="#BBC3BD"/>
<g id="pattern1" transform="matrix(1,0,0,1,439,439)">
<path d="M50 492 c0 -17 49 -81 97 -128 61 -59 147 -118 243 -167 41 -21 80 -44 85 -50 33 -40 122 -70 320 -108 123 -24 282 -30 293 -12 4 7 33 19 65 27 31 8 61 17 66 20 5 3 25 8 45 11 20 2 44 11 52 20 8 8 20 15 25 15 6 0 7 5 3 11 -7 12 -45 8 -129 -11 -76 -17 -394 -18 -424 -2 -12 8 -49 17 -80 22 -34 5 -98 28 -163 59 -58 28 -108 51 -111 51 -13 0 -161 93 -257 161 -127 91 -130 93 -130 81z" transform="translate(0.000000,0.000000) scale(1,1)" stroke="none" fill="#81786C"/>
</g>
<g id="pattern2" transform="matrix(0.618,0,0,0.618,3338,981)">
<path d="M50 492 c0 -17 49 -81 97 -128 61 -59 147 -118 243 -167 41 -21 80 -44 85 -50 33 -40 122 -70 320 -108 123 -24 282 -30 293 -12 4 7 33 19 65 27 31 8 61 17 66 20 5 3 25 8 45 11 20 2 44 11 52 20 8 8 20 15 25 15 6 0 7 5 3 11 -7 12 -45 8 -129 -11 -76 -17 -394 -18 -424 -2 -12 8 -49 17 -80 22 -34 5 -98 28 -163 59 -58 28 -108 51 -111 51 -13 0 -161 93 -257 161 -127 91 -130 93 -130 81z" transform="translate(4422,0.000000) scale(-1,1)" stroke="none" fill="#81786C"/>
</g>
<g id="pattern3" transform="matrix(0.618,0,0,0.618,1252,4422)matrix(0.71,0.71,-0.71,0.71,0,0)">
<path d="M50 492 c0 -17 49 -81 97 -128 61 -59 147 -118 243 -167 41 -21 80 -44 85 -50 33 -40 122 -70 320 -108 123 -24 282 -30 293 -12 4 7 33 19 65 27 31 8 61 17 66 20 5 3 25 8 45 11 20 2 44 11 52 20 8 8 20 15 25 15 6 0 7 5 3 11 -7 12 -45 8 -129 -11 -76 -17 -394 -18 -424 -2 -12 8 -49 17 -80 22 -34 5 -98 28 -163 59 -58 28 -108 51 -111 51 -13 0 -161 93 -257 161 -127 91 -130 93 -130 81z" transform="translate(710,-710) scale(1,1)" stroke="none" fill="#81786C"/>
</g>
<g id="pattern4" transform="matrix(1.618,0,0,1.618,1855,1855)matrix(0.87,0.5,-0.5,0.87,0,0)">
<path d="M50 492 c0 -17 49 -81 97 -128 61 -59 147 -118 243 -167 41 -21 80 -44 85 -50 33 -40 122 -70 320 -108 123 -24 282 -30 293 -12 4 7 33 19 65 27 31 8 61 17 66 20 5 3 25 8 45 11 20 2 44 11 52 20 8 8 20 15 25 15 6 0 7 5 3 11 -7 12 -45 8 -129 -11 -76 -17 -394 -18 -424 -2 -12 8 -49 17 -80 22 -34 5 -98 28 -163 59 -58 28 -108 51 -111 51 -13 0 -161 93 -257 161 -127 91 -130 93 -130 81z" transform="translate(710,-710) scale(1,1)" stroke="none" fill="#81786C"/>
</g>
</g>
</g>

<g id="2" transform="translate(3252.0,0)scale(0.25,0.25)">

<g id="pattern">
<rect width="7046" height="7046" fill="#BBC3BD"/>
<g id="pattern1" transform="matrix(1,0,0,1,439,439)">
<path d="M50 492 c0 -17 49 -81 97 -128 61 -59 147 -118 243 -167 41 -21 80 -44 85 -50 33 -40 122 -70 320 -108 123 -24 282 -30 293 -12 4 7 33 19 65 27 31 8 61 17 66 20 5 3 25 8 45 11 20 2 44 11 52 20 8 8 20 15 25 15 6 0 7 5 3 11 -7 12 -45 8 -129 -11 -76 -17 -394 -18 -424 -2 -12 8 -49 17 -80 22 -34 5 -98 28 -163 59 -58 28 -108 51 -111 51 -13 0 -161 93 -257 161 -127 91 -130 93 -130 81z" transform="translate(0.000000,0.000000) scale(1,1)" stroke="none" fill="#81786C"/>
</g>
<g id="pattern2" transform="matrix(0.618,0,0,0.618,3338,981)">
<path d="M50 492 c0 -17 49 -81 97 -128 61 -59 147 -118 243 -167 41 -21 80 -44 85 -50 33 -40 122 -70 320 -108 123 -24 282 -30 293 -12 4 7 33 19 65 27 31 8 61 17 66 20 5 3 25 8 45 11 20 2 44 11 52 20 8 8 20 15 25 15 6 0 7 5 3 11 -7 12 -45 8 -129 -11 -76 -17 -394 -18 -424 -2 -12 8 -49 17 -80 22 -34 5 -98 28 -163 59 -58 28 -108 51 -111 51 -13 0 -161 93 -257 161 -127 91 -130 93 -130 81z" transform="translate(4422,0.000000) scale(-1,1)" stroke="none" fill="#81786C"/>
</g>
<g id="pattern3" transform="matrix(0.618,0,0,0.618,1252,4422)matrix(0.71,0.71,-0.71,0.71,0,0)">
<path d="M50 492 c0 -17 49 -81 97 -128 61 -59 147 -118 243 -167 41 -21 80 -44 85 -50 33 -40 122 -70 320 -108 123 -24 282 -30 293 -12 4 7 33 19 65 27 31 8 61 17 66 20 5 3 25 8 45 11 20 2 44 11 52 20 8 8 20 15 25 15 6 0 7 5 3 11 -7 12 -45 8 -129 -11 -76 -17 -394 -18 -424 -2 -12 8 -49 17 -80 22 -34 5 -98 28 -163 59 -58 28 -108 51 -111 51 -13 0 -161 93 -257 161 -127 91 -130 93 -130 81z" transform="translate(710,-710) scale(1,1)" stroke="none" fill="#81786C"/>
</g>
<g id="pattern4" transform="matrix(1.618,0,0,1.618,1855,1855)matrix(0.87,0.5,-0.5,0.87,0,0)">
<path d="M50 492 c0 -17 49 -81 97 -128 61 -59 147 -118 243 -167 41 -21 80 -44 85 -50 33 -40 122 -70 320 -108 123 -24 282 -30 293 -12 4 7 33 19 65 27 31 8 61 17 66 20 5 3 25 8 45 11 20 2 44 11 52 20 8 8 20 15 25 15 6 0 7 5 3 11 -7 12 -45 8 -129 -11 -76 -17 -394 -18 -424 -2 -12 8 -49 17 -80 22 -34 5 -98 28 -163 59 -58 28 -108 51 -111 51 -13 0 -161 93 -257 161 -127 91 -130 93 -130 81z" transform="translate(710,-710) scale(1,1)" stroke="none" fill="#81786C"/>
</g>
</g>
</g>

<g id="3" transform="translate(4878.0,0)scale(0.25,0.25)">

<g id="pattern">
<rect width="7046" height="7046" fill="#BBC3BD"/>
<g id="pattern1" transform="matrix(1,0,0,1,439,439)">
<path d="M50 492 c0 -17 49 -81 97 -128 61 -59 147 -118 243 -167 41 -21 80 -44 85 -50 33 -40 122 -70 320 -108 123 -24 282 -30 293 -12 4 7 33 19 65 27 31 8 61 17 66 20 5 3 25 8 45 11 20 2 44 11 52 20 8 8 20 15 25 15 6 0 7 5 3 11 -7 12 -45 8 -129 -11 -76 -17 -394 -18 -424 -2 -12 8 -49 17 -80 22 -34 5 -98 28 -163 59 -58 28 -108 51 -111 51 -13 0 -161 93 -257 161 -127 91 -130 93 -130 81z" transform="translate(0.000000,0.000000) scale(1,1)" stroke="none" fill="#81786C"/>
</g>
<g id="pattern2" transform="matrix(0.618,0,0,0.618,3338,981)">
<path d="M50 492 c0 -17 49 -81 97 -128 61 -59 147 -118 243 -167 41 -21 80 -44 85 -50 33 -40 122 -70 320 -108 123 -24 282 -30 293 -12 4 7 33 19 65 27 31 8 61 17 66 20 5 3 25 8 45 11 20 2 44 11 52 20 8 8 20 15 25 15 6 0 7 5 3 11 -7 12 -45 8 -129 -11 -76 -17 -394 -18 -424 -2 -12 8 -49 17 -80 22 -34 5 -98 28 -163 59 -58 28 -108 51 -111 51 -13 0 -161 93 -257 161 -127 91 -130 93 -130 81z" transform="translate(4422,0.000000) scale(-1,1)" stroke="none" fill="#81786C"/>
</g>
<g id="pattern3" transform="matrix(0.618,0,0,0.618,1252,4422)matrix(0.71,0.71,-0.71,0.71,0,0)">
<path d="M50 492 c0 -17 49 -81 97 -128 61 -59 147 -118 243 -167 41 -21 80 -44 85 -50 33 -40 122 -70 320 -108 123 -24 282 -30 293 -12 4 7 33 19 65 27 31 8 61 17 66 20 5 3 25 8 45 11 20 2 44 11 52 20 8 8 20 15 25 15 6 0 7 5 3 11 -7 12 -45 8 -129 -11 -76 -17 -394 -18 -424 -2 -12 8 -49 17 -80 22 -34 5 -98 28 -163 59 -58 28 -108 51 -111 51 -13 0 -161 93 -257 161 -127 91 -130 93 -130 81z" transform="translate(710,-710) scale(1,1)" stroke="none" fill="#81786C"/>
</g>
<g id="pattern4" transform="matrix(1.618,0,0,1.618,1855,1855)matrix(0.87,0.5,-0.5,0.87,0,0)">
<path d="M50 492 c0 -17 49 -81 97 -128 61 -59 147 -118 243 -167 41 -21 80 -44 85 -50 33 -40 122 -70 320 -108 123 -24 282 -30 293 -12 4 7 33 19 65 27 31 8 61 17 66 20 5 3 25 8 45 11 20 2 44 11 52 20 8 8 20 15 25 15 6 0 7 5 3 11 -7 12 -45 8 -129 -11 -76 -17 -394 -18 -424 -2 -12 8 -49 17 -80 22 -34 5 -98 28 -163 59 -58 28 -108 51 -111 51 -13 0 -161 93 -257 161 -127 91 -130 93 -130 81z" transform="translate(710,-710) scale(1,1)" stroke="none" fill="#81786C"/>
</g>
</g>
</g>

<g id="4" transform="translate(6504.0,0)scale(0.25,0.25)">

<g id="pattern">
<rect width="7046" height="7046" fill="#BBC3BD"/>
<g id="pattern1" transform="matrix(1,0,0,1,439,439)">
<path d="M50 492 c0 -17 49 -81 97 -128 61 -59 147 -118 243 -167 41 -21 80 -44 85 -50 33 -40 122 -70 320 -108 123 -24 282 -30 293 -12 4 7 33 19 65 27 31 8 61 17 66 20 5 3 25 8 45 11 20 2 44 11 52 20 8 8 20 15 25 15 6 0 7 5 3 11 -7 12 -45 8 -129 -11 -76 -17 -394 -18 -424 -2 -12 8 -49 17 -80 22 -34 5 -98 28 -163 59 -58 28 -108 51 -111 51 -13 0 -161 93 -257 161 -127 91 -130 93 -130 81z" transform="translate(0.000000,0.000000) scale(1,1)" stroke="none" fill="#81786C"/>
</g>
<g id="pattern2" transform="matrix(0.618,0,0,0.618,3338,981)">
<path d="M50 492 c0 -17 49 -81 97 -128 61 -59 147 -118 243 -167 41 -21 80 -44 85 -50 33 -40 122 -70 320 -108 123 -24 282 -30 293 -12 4 7 33 19 65 27 31 8 61 17 66 20 5 3 25 8 45 11 20 2 44 11 52 20 8 8 20 15 25 15 6 0 7 5 3 11 -7 12 -45 8 -129 -11 -76 -17 -394 -18 -424 -2 -12 8 -49 17 -80 22 -34 5 -98 28 -163 59 -58 28 -108 51 -111 51 -13 0 -161 93 -257 161 -127 91 -130 93 -130 81z" transform="translate(4422,0.000000) scale(-1,1)" stroke="none" fill="#81786C"/>
</g>
<g id="pattern3" transform="matrix(0.618,0,0,0.618,1252,4422)matrix(0.71,0.71,-0.71,0.71,0,0)">
<path d="M50 492 c0 -17 49 -81 97 -128 61 -59 147 -118 243 -167 41 -21 80 -44 85 -50 33 -40 122 -70 320 -108 123 -24 282 -30 293 -12 4 7 33 19 65 27 31 8 61 17 66 20 5 3 25 8 45 11 20 2 44 11 52 20 8 8 20 15 25 15 6 0 7 5 3 11 -7 12 -45 8 -129 -11 -76 -17 -394 -18 -424 -2 -12 8 -49 17 -80 22 -34 5 -98 28 -163 59 -58 28 -108 51 -111 51 -13 0 -161 93 -257 161 -127 91 -130 93 -130 81z" transform="translate(710,-710) scale(1,1)" stroke="none" fill="#81786C"/>
</g>
<g id="pattern4" transform="matrix(1.618,0,0,1.618,1855,1855)matrix(0.87,0.5,-0.5,0.87,0,0)">
<path d="M50 492 c0 -17 49 -81 97 -128 61 -59 147 -118 243 -167 41 -21 80 -44 85 -50 33 -40 122 -70 320 -108 123 -24 282 -30 293 -12 4 7 33 19 65 27 31 8 61 17 66 20 5 3 25 8 45 11 20 2 44 11 52 20 8 8 20 15 25 15 6 0 7 5 3 11 -7 12 -45 8 -129 -11 -76 -17 -394 -18 -424 -2 -12 8 -49 17 -80 22 -34 5 -98 28 -163 59 -58 28 -108 51 -111 51 -13 0 -161 93 -257 161 -127 91 -130 93 -130 81z" transform="translate(710,-710) scale(1,1)" stroke="none" fill="#81786C"/>
</g>
</g>
</g>

</g>
<g id="row3" transform="translate(0,4878.0)">
<g id="0" transform="translate(0.0,0)scale(0.25,0.25)">

<g id="pattern">
<rect width="7046" height="7046" fill="#BBC3BD"/>
<g id="pattern1" transform="matrix(1,0,0,1,439,439)">
<path d="M50 492 c0 -17 49 -81 97 -128 61 -59 147 -118 243 -167 41 -21 80 -44 85 -50 33 -40 122 -70 320 -108 123 -24 282 -30 293 -12 4 7 33 19 65 27 31 8 61 17 66 20 5 3 25 8 45 11 20 2 44 11 52 20 8 8 20 15 25 15 6 0 7 5 3 11 -7 12 -45 8 -129 -11 -76 -17 -394 -18 -424 -2 -12 8 -49 17 -80 22 -34 5 -98 28 -163 59 -58 28 -108 51 -111 51 -13 0 -161 93 -257 161 -127 91 -130 93 -130 81z" transform="translate(0.000000,0.000000) scale(1,1)" stroke="none" fill="#81786C"/>
</g>
<g id="pattern2" transform="matrix(0.618,0,0,0.618,3338,981)">
<path d="M50 492 c0 -17 49 -81 97 -128 61 -59 147 -118 243 -167 41 -21 80 -44 85 -50 33 -40 122 -70 320 -108 123 -24 282 -30 293 -12 4 7 33 19 65 27 31 8 61 17 66 20 5 3 25 8 45 11 20 2 44 11 52 20 8 8 20 15 25 15 6 0 7 5 3 11 -7 12 -45 8 -129 -11 -76 -17 -394 -18 -424 -2 -12 8 -49 17 -80 22 -34 5 -98 28 -163 59 -58 28 -108 51 -111 51 -13 0 -161 93 -257 161 -127 91 -130 93 -130 81z" transform="translate(4422,0.000000) scale(-1,1)" stroke="none" fill="#81786C"/>
</g>
<g id="pattern3" transform="matrix(0.618,0,0,0.618,1252,4422)matrix(0.71,0.71,-0.71,0.71,0,0)">
<path d="M50 492 c0 -17 49 -81 97 -128 61 -59 147 -118 243 -167 41 -21 80 -44 85 -50 33 -40 122 -70 320 -108 123 -24 282 -30 293 -12 4 7 33 19 65 27 31 8 61 17 66 20 5 3 25 8 45 11 20 2 44 11 52 20 8 8 20 15 25 15 6 0 7 5 3 11 -7 12 -45 8 -129 -11 -76 -17 -394 -18 -424 -2 -12 8 -49 17 -80 22 -34 5 -98 28 -163 59 -58 28 -108 51 -111 51 -13 0 -161 93 -257 161 -127 91 -130 93 -130 81z" transform="translate(710,-710) scale(1,1)" stroke="none" fill="#81786C"/>
</g>
<g id="pattern4" transform="matrix(1.618,0,0,1.618,1855,1855)matrix(0.87,0.5,-0.5,0.87,0,0)">
<path d="M50 492 c0 -17 49 -81 97 -128 61 -59 147 -118 243 -167 41 -21 80 -44 85 -50 33 -40 122 -70 320 -108 123 -24 282 -30 293 -12 4 7 33 19 65 27 31 8 61 17 66 20 5 3 25 8 45 11 20 2 44 11 52 20 8 8 20 15 25 15 6 0 7 5 3 11 -7 12 -45 8 -129 -11 -76 -17 -394 -18 -424 -2 -12 8 -49 17 -80 22 -34 5 -98 28 -163 59 -58 28 -108 51 -111 51 -13 0 -161 93 -257 161 -127 91 -130 93 -130 81z" transform="translate(710,-710) scale(1,1)" stroke="none" fill="#81786C"/>
</g>
</g>
</g>

<g id="1" transform="translate(1626.0,0)scale(0.25,0.25)">

<g id="pattern">
<rect width="7046" height="7046" fill="#BBC3BD"/>
<g id="pattern1" transform="matrix(1,0,0,1,439,439)">
<path d="M50 492 c0 -17 49 -81 97 -128 61 -59 147 -118 243 -167 41 -21 80 -44 85 -50 33 -40 122 -70 320 -108 123 -24 282 -30 293 -12 4 7 33 19 65 27 31 8 61 17 66 20 5 3 25 8 45 11 20 2 44 11 52 20 8 8 20 15 25 15 6 0 7 5 3 11 -7 12 -45 8 -129 -11 -76 -17 -394 -18 -424 -2 -12 8 -49 17 -80 22 -34 5 -98 28 -163 59 -58 28 -108 51 -111 51 -13 0 -161 93 -257 161 -127 91 -130 93 -130 81z" transform="translate(0.000000,0.000000) scale(1,1)" stroke="none" fill="#81786C"/>
</g>
<g id="pattern2" transform="matrix(0.618,0,0,0.618,3338,981)">
<path d="M50 492 c0 -17 49 -81 97 -128 61 -59 147 -118 243 -167 41 -21 80 -44 85 -50 33 -40 122 -70 320 -108 123 -24 282 -30 293 -12 4 7 33 19 65 27 31 8 61 17 66 20 5 3 25 8 45 11 20 2 44 11 52 20 8 8 20 15 25 15 6 0 7 5 3 11 -7 12 -45 8 -129 -11 -76 -17 -394 -18 -424 -2 -12 8 -49 17 -80 22 -34 5 -98 28 -163 59 -58 28 -108 51 -111 51 -13 0 -161 93 -257 161 -127 91 -130 93 -130 81z" transform="translate(4422,0.000000) scale(-1,1)" stroke="none" fill="#81786C"/>
</g>
<g id="pattern3" transform="matrix(0.618,0,0,0.618,1252,4422)matrix(0.71,0.71,-0.71,0.71,0,0)">
<path d="M50 492 c0 -17 49 -81 97 -128 61 -59 147 -118 243 -167 41 -21 80 -44 85 -50 33 -40 122 -70 320 -108 123 -24 282 -30 293 -12 4 7 33 19 65 27 31 8 61 17 66 20 5 3 25 8 45 11 20 2 44 11 52 20 8 8 20 15 25 15 6 0 7 5 3 11 -7 12 -45 8 -129 -11 -76 -17 -394 -18 -424 -2 -12 8 -49 17 -80 22 -34 5 -98 28 -163 59 -58 28 -108 51 -111 51 -13 0 -161 93 -257 161 -127 91 -130 93 -130 81z" transform="translate(710,-710) scale(1,1)" stroke="none" fill="#81786C"/>
</g>
<g id="pattern4" transform="matrix(1.618,0,0,1.618,1855,1855)matrix(0.87,0.5,-0.5,0.87,0,0)">
<path d="M50 492 c0 -17 49 -81 97 -128 61 -59 147 -118 243 -167 41 -21 80 -44 85 -50 33 -40 122 -70 320 -108 123 -24 282 -30 293 -12 4 7 33 19 65 27 31 8 61 17 66 20 5 3 25 8 45 11 20 2 44 11 52 20 8 8 20 15 25 15 6 0 7 5 3 11 -7 12 -45 8 -129 -11 -76 -17 -394 -18 -424 -2 -12 8 -49 17 -80 22 -34 5 -98 28 -163 59 -58 28 -108 51 -111 51 -13 0 -161 93 -257 161 -127 91 -130 93 -130 81z" transform="translate(710,-710) scale(1,1)" stroke="none" fill="#81786C"/>
</g>
</g>
</g>

<g id="2" transform="translate(3252.0,0)scale(0.25,0.25)">

<g id="pattern">
<rect width="7046" height="7046" fill="#BBC3BD"/>
<g id="pattern1" transform="matrix(1,0,0,1,439,439)">
<path d="M50 492 c0 -17 49 -81 97 -128 61 -59 147 -118 243 -167 41 -21 80 -44 85 -50 33 -40 122 -70 320 -108 123 -24 282 -30 293 -12 4 7 33 19 65 27 31 8 61 17 66 20 5 3 25 8 45 11 20 2 44 11 52 20 8 8 20 15 25 15 6 0 7 5 3 11 -7 12 -45 8 -129 -11 -76 -17 -394 -18 -424 -2 -12 8 -49 17 -80 22 -34 5 -98 28 -163 59 -58 28 -108 51 -111 51 -13 0 -161 93 -257 161 -127 91 -130 93 -130 81z" transform="translate(0.000000,0.000000) scale(1,1)" stroke="none" fill="#81786C"/>
</g>
<g id="pattern2" transform="matrix(0.618,0,0,0.618,3338,981)">
<path d="M50 492 c0 -17 49 -81 97 -128 61 -59 147 -118 243 -167 41 -21 80 -44 85 -50 33 -40 122 -70 320 -108 123 -24 282 -30 293 -12 4 7 33 19 65 27 31 8 61 17 66 20 5 3 25 8 45 11 20 2 44 11 52 20 8 8 20 15 25 15 6 0 7 5 3 11 -7 12 -45 8 -129 -11 -76 -17 -394 -18 -424 -2 -12 8 -49 17 -80 22 -34 5 -98 28 -163 59 -58 28 -108 51 -111 51 -13 0 -161 93 -257 161 -127 91 -130 93 -130 81z" transform="translate(4422,0.000000) scale(-1,1)" stroke="none" fill="#81786C"/>
</g>
<g id="pattern3" transform="matrix(0.618,0,0,0.618,1252,4422)matrix(0.71,0.71,-0.71,0.71,0,0)">
<path d="M50 492 c0 -17 49 -81 97 -128 61 -59 147 -118 243 -167 41 -21 80 -44 85 -50 33 -40 122 -70 320 -108 123 -24 282 -30 293 -12 4 7 33 19 65 27 31 8 61 17 66 20 5 3 25 8 45 11 20 2 44 11 52 20 8 8 20 15 25 15 6 0 7 5 3 11 -7 12 -45 8 -129 -11 -76 -17 -394 -18 -424 -2 -12 8 -49 17 -80 22 -34 5 -98 28 -163 59 -58 28 -108 51 -111 51 -13 0 -161 93 -257 161 -127 91 -130 93 -130 81z" transform="translate(710,-710) scale(1,1)" stroke="none" fill="#81786C"/>
</g>
<g id="pattern4" transform="matrix(1.618,0,0,1.618,1855,1855)matrix(0.87,0.5,-0.5,0.87,0,0)">
<path d="M50 492 c0 -17 49 -81 97 -128 61 -59 147 -118 243 -167 41 -21 80 -44 85 -50 33 -40 122 -70 320 -108 123 -24 282 -30 293 -12 4 7 33 19 65 27 31 8 61 17 66 20 5 3 25 8 45 11 20 2 44 11 52 20 8 8 20 15 25 15 6 0 7 5 3 11 -7 12 -45 8 -129 -11 -76 -17 -394 -18 -424 -2 -12 8 -49 17 -80 22 -34 5 -98 28 -163 59 -58 28 -108 51 -111 51 -13 0 -161 93 -257 161 -127 91 -130 93 -130 81z" transform="translate(710,-710) scale(1,1)" stroke="none" fill="#81786C"/>
</g>
</g>
</g>

<g id="3" transform="translate(4878.0,0)scale(0.25,0.25)">

<g id="pattern">
<rect width="7046" height="7046" fill="#BBC3BD"/>
<g id="pattern1" transform="matrix(1,0,0,1,439,439)">
<path d="M50 492 c0 -17 49 -81 97 -128 61 -59 147 -118 243 -167 41 -21 80 -44 85 -50 33 -40 122 -70 320 -108 123 -24 282 -30 293 -12 4 7 33 19 65 27 31 8 61 17 66 20 5 3 25 8 45 11 20 2 44 11 52 20 8 8 20 15 25 15 6 0 7 5 3 11 -7 12 -45 8 -129 -11 -76 -17 -394 -18 -424 -2 -12 8 -49 17 -80 22 -34 5 -98 28 -163 59 -58 28 -108 51 -111 51 -13 0 -161 93 -257 161 -127 91 -130 93 -130 81z" transform="translate(0.000000,0.000000) scale(1,1)" stroke="none" fill="#81786C"/>
</g>
<g id="pattern2" transform="matrix(0.618,0,0,0.618,3338,981)">
<path d="M50 492 c0 -17 49 -81 97 -128 61 -59 147 -118 243 -167 41 -21 80 -44 85 -50 33 -40 122 -70 320 -108 123 -24 282 -30 293 -12 4 7 33 19 65 27 31 8 61 17 66 20 5 3 25 8 45 11 20 2 44 11 52 20 8 8 20 15 25 15 6 0 7 5 3 11 -7 12 -45 8 -129 -11 -76 -17 -394 -18 -424 -2 -12 8 -49 17 -80 22 -34 5 -98 28 -163 59 -58 28 -108 51 -111 51 -13 0 -161 93 -257 161 -127 91 -130 93 -130 81z" transform="translate(4422,0.000000) scale(-1,1)" stroke="none" fill="#81786C"/>
</g>
<g id="pattern3" transform="matrix(0.618,0,0,0.618,1252,4422)matrix(0.71,0.71,-0.71,0.71,0,0)">
<path d="M50 492 c0 -17 49 -81 97 -128 61 -59 147 -118 243 -167 41 -21 80 -44 85 -50 33 -40 122 -70 320 -108 123 -24 282 -30 293 -12 4 7 33 19 65 27 31 8 61 17 66 20 5 3 25 8 45 11 20 2 44 11 52 20 8 8 20 15 25 15 6 0 7 5 3 11 -7 12 -45 8 -129 -11 -76 -17 -394 -18 -424 -2 -12 8 -49 17 -80 22 -34 5 -98 28 -163 59 -58 28 -108 51 -111 51 -13 0 -161 93 -257 161 -127 91 -130 93 -130 81z" transform="translate(710,-710) scale(1,1)" stroke="none" fill="#81786C"/>
</g>
<g id="pattern4" transform="matrix(1.618,0,0,1.618,1855,1855)matrix(0.87,0.5,-0.5,0.87,0,0)">
<path d="M50 492 c0 -17 49 -81 97 -128 61 -59 147 -118 243 -167 41 -21 80 -44 85 -50 33 -40 122 -70 320 -108 123 -24 282 -30 293 -12 4 7 33 19 65 27 31 8 61 17 66 20 5 3 25 8 45 11 20 2 44 11 52 20 8 8 20 15 25 15 6 0 7 5 3 11 -7 12 -45 8 -129 -11 -76 -17 -394 -18 -424 -2 -12 8 -49 17 -80 22 -34 5 -98 28 -163 59 -58 28 -108 51 -111 51 -13 0 -161 93 -257 161 -127 91 -130 93 -130 81z" transform="translate(710,-710) scale(1,1)" stroke="none" fill="#81786C"/>
</g>
</g>
</g>

<g id="4" transform="translate(6504.0,0)scale(0.25,0.25)">

<g id="pattern">
<rect width="7046" height="7046" fill="#BBC3BD"/>
<g id="pattern1" transform="matrix(1,0,0,1,439,439)">
<path d="M50 492 c0 -17 49 -81 97 -128 61 -59 147 -118 243 -167 41 -21 80 -44 85 -50 33 -40 122 -70 320 -108 123 -24 282 -30 293 -12 4 7 33 19 65 27 31 8 61 17 66 20 5 3 25 8 45 11 20 2 44 11 52 20 8 8 20 15 25 15 6 0 7 5 3 11 -7 12 -45 8 -129 -11 -76 -17 -394 -18 -424 -2 -12 8 -49 17 -80 22 -34 5 -98 28 -163 59 -58 28 -108 51 -111 51 -13 0 -161 93 -257 161 -127 91 -130 93 -130 81z" transform="translate(0.000000,0.000000) scale(1,1)" stroke="none" fill="#81786C"/>
</g>
<g id="pattern2" transform="matrix(0.618,0,0,0.618,3338,981)">
<path d="M50 492 c0 -17 49 -81 97 -128 61 -59 147 -118 243 -167 41 -21 80 -44 85 -50 33 -40 122 -70 320 -108 123 -24 282 -30 293 -12 4 7 33 19 65 27 31 8 61 17 66 20 5 3 25 8 45 11 20 2 44 11 52 20 8 8 20 15 25 15 6 0 7 5 3 11 -7 12 -45 8 -129 -11 -76 -17 -394 -18 -424 -2 -12 8 -49 17 -80 22 -34 5 -98 28 -163 59 -58 28 -108 51 -111 51 -13 0 -161 93 -257 161 -127 91 -130 93 -130 81z" transform="translate(4422,0.000000) scale(-1,1)" stroke="none" fill="#81786C"/>
</g>
<g id="pattern3" transform="matrix(0.618,0,0,0.618,1252,4422)matrix(0.71,0.71,-0.71,0.71,0,0)">
<path d="M50 492 c0 -17 49 -81 97 -128 61 -59 147 -118 243 -167 41 -21 80 -44 85 -50 33 -40 122 -70 320 -108 123 -24 282 -30 293 -12 4 7 33 19 65 27 31 8 61 17 66 20 5 3 25 8 45 11 20 2 44 11 52 20 8 8 20 15 25 15 6 0 7 5 3 11 -7 12 -45 8 -129 -11 -76 -17 -394 -18 -424 -2 -12 8 -49 17 -80 22 -34 5 -98 28 -163 59 -58 28 -108 51 -111 51 -13 0 -161 93 -257 161 -127 91 -130 93 -130 81z" transform="translate(710,-710) scale(1,1)" stroke="none" fill="#81786C"/>
</g>
<g id="pattern4" transform="matrix(1.618,0,0,1.618,1855,1855)matrix(0.87,0.5,-0.5,0.87,0,0)">
<path d="M50 492 c0 -17 49 -81 97 -128 61 -59 147 -118 243 -167 41 -21 80 -44 85 -50 33 -40 122 -70 320 -108 123 -24 282 -30 293 -12 4 7 33 19 65 27 31 8 61 17 66 20 5 3 25 8 45 11 20 2 44 11 52 20 8 8 20 15 25 15 6 0 7 5 3 11 -7 12 -45 8 -129 -11 -76 -17 -394 -18 -424 -2 -12 8 -49 17 -80 22 -34 5 -98 28 -163 59 -58 28 -108 51 -111 51 -13 0 -161 93 -257 161 -127 91 -130 93 -130 81z" transform="translate(710,-710) scale(1,1)" stroke="none" fill="#81786C"/>
</g>
</g>
</g>

</g>
</svg>