<?xml version="1.0" standalone="no"?>
<!DOCTYPE svg PUBLIC "-//W3C//DTD SVG 20010904//EN"
 "http://www.w3.org/TR/2001/REC-SVG-20010904/DTD/svg10.dtd">
<svg version="1.0" xmlns="http://www.w3.org/2000/svg" width="9072pt" height="9072pt" viewBox="0 0 9072 9072" preserveAspectRatio = "xMidYMid meet" >
<metadata>
Created by ZoeQu, written in 2022
</metadata>
<rect width="9072" height="9072" fill="#324144"/>
<g id="row0" transform="translate(0,0.0)">
<g id="0" transform="translate(0.0,0)scale(0.25,0.25)">

<g id="pattern">
<rect width="9828" height="9828" fill="#324144"/>
<g id="pattern1" transform="matrix(1,0,0,1,612,612)">
<path d="M696 1514 c-28 -27 -21 -176 15 -315 13 -52 23 -230 15 -272 -4 -21 -11 -37 -16 -37 -12 0 -39 58 -80 175 -40 110 -60 135 -111 135 -74 0 -70 -49 14 -165 59 -82 93 -161 112 -259 16 -80 30 -114 91 -206 76 -115 70 -110 99 -75 14 17 52 66 85 110 32 44 95 117 140 163 44 46 94 101 110 124 33 45 40 98 15 118 -19 16 -52 -4 -92 -56 -53 -69 -95 -114 -108 -114 -31 0 -24 37 26 134 54 106 89 202 89 249 0 32 -26 77 -45 77 -34 0 -73 -76 -105 -200 -15 -63 -31 -100 -41 -100 -15 0 -10 60 11 160 30 140 24 200 -19 200 -37 0 -56 -64 -59 -197 -2 -68 -7 -123 -12 -123 -21 0 -30 75 -30 252 0 187 0 189 -25 213 -28 29 -57 32 -79 9z" transform="translate(0.000000,0.000000) scale(1,1)" stroke="none" fill="#617376"/>
</g>
<g id="pattern2" transform="matrix(0.618,0,0,0.618,4656,1368)">
<path d="M696 1514 c-28 -27 -21 -176 15 -315 13 -52 23 -230 15 -272 -4 -21 -11 -37 -16 -37 -12 0 -39 58 -80 175 -40 110 -60 135 -111 135 -74 0 -70 -49 14 -165 59 -82 93 -161 112 -259 16 -80 30 -114 91 -206 76 -115 70 -110 99 -75 14 17 52 66 85 110 32 44 95 117 140 163 44 46 94 101 110 124 33 45 40 98 15 118 -19 16 -52 -4 -92 -56 -53 -69 -95 -114 -108 -114 -31 0 -24 37 26 134 54 106 89 202 89 249 0 32 -26 77 -45 77 -34 0 -73 -76 -105 -200 -15 -63 -31 -100 -41 -100 -15 0 -10 60 11 160 30 140 24 200 -19 200 -37 0 -56 -64 -59 -197 -2 -68 -7 -123 -12 -123 -21 0 -30 75 -30 252 0 187 0 189 -25 213 -28 29 -57 32 -79 9z" transform="translate(6168,0.000000) scale(-1,1)" stroke="none" fill="#617376"/>
</g>
<g id="pattern3" transform="matrix(0.618,0,0,0.618,1746,6168)matrix(0.71,0.71,-0.71,0.71,0,0)">
<path d="M696 1514 c-28 -27 -21 -176 15 -315 13 -52 23 -230 15 -272 -4 -21 -11 -37 -16 -37 -12 0 -39 58 -80 175 -40 110 -60 135 -111 135 -74 0 -70 -49 14 -165 59 -82 93 -161 112 -259 16 -80 30 -114 91 -206 76 -115 70 -110 99 -75 14 17 52 66 85 110 32 44 95 117 140 163 44 46 94 101 110 124 33 45 40 98 15 118 -19 16 -52 -4 -92 -56 -53 -69 -95 -114 -108 -114 -31 0 -24 37 26 134 54 106 89 202 89 249 0 32 -26 77 -45 77 -34 0 -73 -76 -105 -200 -15 -63 -31 -100 -41 -100 -15 0 -10 60 11 160 30 140 24 200 -19 200 -37 0 -56 -64 -59 -197 -2 -68 -7 -123 -12 -123 -21 0 -30 75 -30 252 0 187 0 189 -25 213 -28 29 -57 32 -79 9z" transform="translate(990,-990) scale(1,1)" stroke="none" fill="#617376"/>
</g>
<g id="pattern4" transform="matrix(1.618,0,0,1.618,2588,2588)matrix(0.87,0.5,-0.5,0.87,0,0)">
<path d="M696 1514 c-28 -27 -21 -176 15 -315 13 -52 23 -230 15 -272 -4 -21 -11 -37 -16 -37 -12 0 -39 58 -80 175 -40 110 -60 135 -111 135 -74 0 -70 -49 14 -165 59 -82 93 -161 112 -259 16 -80 30 -114 91 -206 76 -115 70 -110 99 -75 14 17 52 66 85 110 32 44 95 117 140 163 44 46 94 101 110 124 33 45 40 98 15 118 -19 16 -52 -4 -92 -56 -53 -69 -95 -114 -108 -114 -31 0 -24 37 26 134 54 106 89 202 89 249 0 32 -26 77 -45 77 -34 0 -73 -76 -105 -200 -15 -63 -31 -100 -41 -100 -15 0 -10 60 11 160 30 140 24 200 -19 200 -37 0 -56 -64 -59 -197 -2 -68 -7 -123 -12 -123 -21 0 -30 75 -30 252 0 187 0 189 -25 213 -28 29 -57 32 -79 9z" transform="translate(990,-990) scale(1,1)" stroke="none" fill="#617376"/>
</g>
</g>
</g>

<g id="1" transform="translate(2268.0,0)scale(0.25,0.25)">

<g id="pattern">
<rect width="9828" height="9828" fill="#324144"/>
<g id="pattern1" transform="matrix(1,0,0,1,612,612)">
<path d="M696 1514 c-28 -27 -21 -176 15 -315 13 -52 23 -230 15 -272 -4 -21 -11 -37 -16 -37 -12 0 -39 58 -80 175 -40 110 -60 135 -111 135 -74 0 -70 -49 14 -165 59 -82 93 -161 112 -259 16 -80 30 -114 91 -206 76 -115 70 -110 99 -75 14 17 52 66 85 110 32 44 95 117 140 163 44 46 94 101 110 124 33 45 40 98 15 118 -19 16 -52 -4 -92 -56 -53 -69 -95 -114 -108 -114 -31 0 -24 37 26 134 54 106 89 202 89 249 0 32 -26 77 -45 77 -34 0 -73 -76 -105 -200 -15 -63 -31 -100 -41 -100 -15 0 -10 60 11 160 30 140 24 200 -19 200 -37 0 -56 -64 -59 -197 -2 -68 -7 -123 -12 -123 -21 0 -30 75 -30 252 0 187 0 189 -25 213 -28 29 -57 32 -79 9z" transform="translate(0.000000,0.000000) scale(1,1)" stroke="none" fill="#617376"/>
</g>
<g id="pattern2" transform="matrix(0.618,0,0,0.618,4656,1368)">
<path d="M696 1514 c-28 -27 -21 -176 15 -315 13 -52 23 -230 15 -272 -4 -21 -11 -37 -16 -37 -12 0 -39 58 -80 175 -40 110 -60 135 -111 135 -74 0 -70 -49 14 -165 59 -82 93 -161 112 -259 16 -80 30 -114 91 -206 76 -115 70 -110 99 -75 14 17 52 66 85 110 32 44 95 117 140 163 44 46 94 101 110 124 33 45 40 98 15 118 -19 16 -52 -4 -92 -56 -53 -69 -95 -114 -108 -114 -31 0 -24 37 26 134 54 106 89 202 89 249 0 32 -26 77 -45 77 -34 0 -73 -76 -105 -200 -15 -63 -31 -100 -41 -100 -15 0 -10 60 11 160 30 140 24 200 -19 200 -37 0 -56 -64 -59 -197 -2 -68 -7 -123 -12 -123 -21 0 -30 75 -30 252 0 187 0 189 -25 213 -28 29 -57 32 -79 9z" transform="translate(6168,0.000000) scale(-1,1)" stroke="none" fill="#617376"/>
</g>
<g id="pattern3" transform="matrix(0.618,0,0,0.618,1746,6168)matrix(0.71,0.71,-0.71,0.71,0,0)">
<path d="M696 1514 c-28 -27 -21 -176 15 -315 13 -52 23 -230 15 -272 -4 -21 -11 -37 -16 -37 -12 0 -39 58 -80 175 -40 110 -60 135 -111 135 -74 0 -70 -49 14 -165 59 -82 93 -161 112 -259 16 -80 30 -114 91 -206 76 -115 70 -110 99 -75 14 17 52 66 85 110 32 44 95 117 140 163 44 46 94 101 110 124 33 45 40 98 15 118 -19 16 -52 -4 -92 -56 -53 -69 -95 -114 -108 -114 -31 0 -24 37 26 134 54 106 89 202 89 249 0 32 -26 77 -45 77 -34 0 -73 -76 -105 -200 -15 -63 -31 -100 -41 -100 -15 0 -10 60 11 160 30 140 24 200 -19 200 -37 0 -56 -64 -59 -197 -2 -68 -7 -123 -12 -123 -21 0 -30 75 -30 252 0 187 0 189 -25 213 -28 29 -57 32 -79 9z" transform="translate(990,-990) scale(1,1)" stroke="none" fill="#617376"/>
</g>
<g id="pattern4" transform="matrix(1.618,0,0,1.618,2588,2588)matrix(0.87,0.5,-0.5,0.87,0,0)">
<path d="M696 1514 c-28 -27 -21 -176 15 -315 13 -52 23 -230 15 -272 -4 -21 -11 -37 -16 -37 -12 0 -39 58 -80 175 -40 110 -60 135 -111 135 -74 0 -70 -49 14 -165 59 -82 93 -161 112 -259 16 -80 30 -114 91 -206 76 -115 70 -110 99 -75 14 17 52 66 85 110 32 44 95 117 140 163 44 46 94 101 110 124 33 45 40 98 15 118 -19 16 -52 -4 -92 -56 -53 -69 -95 -114 -108 -114 -31 0 -24 37 26 134 54 106 89 202 89 249 0 32 -26 77 -45 77 -34 0 -73 -76 -105 -200 -15 -63 -31 -100 -41 -100 -15 0 -10 60 11 160 30 140 24 200 -19 200 -37 0 -56 -64 -59 -197 -2 -68 -7 -123 -12 -123 -21 0 -30 75 -30 252 0 187 0 189 -25 213 -28 29 -57 32 -79 9z" transform="translate(990,-990) scale(1,1)" stroke="none" fill="#617376"/>
</g>
</g>
</g>

<g id="2" transform="translate(4536.0,0)scale(0.25,0.25)">

<g id="pattern">
<rect width="9828" height="9828" fill="#324144"/>
<g id="pattern1" transform="matrix(1,0,0,1,612,612)">
<path d="M696 1514 c-28 -27 -21 -176 15 -315 13 -52 23 -230 15 -272 -4 -21 -11 -37 -16 -37 -12 0 -39 58 -80 175 -40 110 -60 135 -111 135 -74 0 -70 -49 14 -165 59 -82 93 -161 112 -259 16 -80 30 -114 91 -206 76 -115 70 -110 99 -75 14 17 52 66 85 110 32 44 95 117 140 163 44 46 94 101 110 124 33 45 40 98 15 118 -19 16 -52 -4 -92 -56 -53 -69 -95 -114 -108 -114 -31 0 -24 37 26 134 54 106 89 202 89 249 0 32 -26 77 -45 77 -34 0 -73 -76 -105 -200 -15 -63 -31 -100 -41 -100 -15 0 -10 60 11 160 30 140 24 200 -19 200 -37 0 -56 -64 -59 -197 -2 -68 -7 -123 -12 -123 -21 0 -30 75 -30 252 0 187 0 189 -25 213 -28 29 -57 32 -79 9z" transform="translate(0.000000,0.000000) scale(1,1)" stroke="none" fill="#617376"/>
</g>
<g id="pattern2" transform="matrix(0.618,0,0,0.618,4656,1368)">
<path d="M696 1514 c-28 -27 -21 -176 15 -315 13 -52 23 -230 15 -272 -4 -21 -11 -37 -16 -37 -12 0 -39 58 -80 175 -40 110 -60 135 -111 135 -74 0 -70 -49 14 -165 59 -82 93 -161 112 -259 16 -80 30 -114 91 -206 76 -115 70 -110 99 -75 14 17 52 66 85 110 32 44 95 117 140 163 44 46 94 101 110 124 33 45 40 98 15 118 -19 16 -52 -4 -92 -56 -53 -69 -95 -114 -108 -114 -31 0 -24 37 26 134 54 106 89 202 89 249 0 32 -26 77 -45 77 -34 0 -73 -76 -105 -200 -15 -63 -31 -100 -41 -100 -15 0 -10 60 11 160 30 140 24 200 -19 200 -37 0 -56 -64 -59 -197 -2 -68 -7 -123 -12 -123 -21 0 -30 75 -30 252 0 187 0 189 -25 213 -28 29 -57 32 -79 9z" transform="translate(6168,0.000000) scale(-1,1)" stroke="none" fill="#617376"/>
</g>
<g id="pattern3" transform="matrix(0.618,0,0,0.618,1746,6168)matrix(0.71,0.71,-0.71,0.71,0,0)">
<path d="M696 1514 c-28 -27 -21 -176 15 -315 13 -52 23 -230 15 -272 -4 -21 -11 -37 -16 -37 -12 0 -39 58 -80 175 -40 110 -60 135 -111 135 -74 0 -70 -49 14 -165 59 -82 93 -161 112 -259 16 -80 30 -114 91 -206 76 -115 70 -110 99 -75 14 17 52 66 85 110 32 44 95 117 140 163 44 46 94 101 110 124 33 45 40 98 15 118 -19 16 -52 -4 -92 -56 -53 -69 -95 -114 -108 -114 -31 0 -24 37 26 134 54 106 89 202 89 249 0 32 -26 77 -45 77 -34 0 -73 -76 -105 -200 -15 -63 -31 -100 -41 -100 -15 0 -10 60 11 160 30 140 24 200 -19 200 -37 0 -56 -64 -59 -197 -2 -68 -7 -123 -12 -123 -21 0 -30 75 -30 252 0 187 0 189 -25 213 -28 29 -57 32 -79 9z" transform="translate(990,-990) scale(1,1)" stroke="none" fill="#617376"/>
</g>
<g id="pattern4" transform="matrix(1.618,0,0,1.618,2588,2588)matrix(0.87,0.5,-0.5,0.87,0,0)">
<path d="M696 1514 c-28 -27 -21 -176 15 -315 13 -52 23 -230 15 -272 -4 -21 -11 -37 -16 -37 -12 0 -39 58 -80 175 -40 110 -60 135 -111 135 -74 0 -70 -49 14 -165 59 -82 93 -161 112 -259 16 -80 30 -114 91 -206 76 -115 70 -110 99 -75 14 17 52 66 85 110 32 44 95 117 140 163 44 46 94 101 110 124 33 45 40 98 15 118 -19 16 -52 -4 -92 -56 -53 -69 -95 -114 -108 -114 -31 0 -24 37 26 134 54 106 89 202 89 249 0 32 -26 77 -45 77 -34 0 -73 -76 -105 -200 -15 -63 -31 -100 -41 -100 -15 0 -10 60 11 160 30 140 24 200 -19 200 -37 0 -56 -64 -59 -197 -2 -68 -7 -123 -12 -123 -21 0 -30 75 -30 252 0 187 0 189 -25 213 -28 29 -57 32 -79 9z" transform="translate(990,-990) scale(1,1)" stroke="none" fill="#617376"/>
</g>
</g>
</g>

<g id="3" transform="translate(6804.0,0)scale(0.25,0.25)">

<g id="pattern">
<rect width="9828" height="9828" fill="#324144"/>
<g id="pattern1" transform="matrix(1,0,0,1,612,612)">
<path d="M696 1514 c-28 -27 -21 -176 15 -315 13 -52 23 -230 15 -272 -4 -21 -11 -37 -16 -37 -12 0 -39 58 -80 175 -40 110 -60 135 -111 135 -74 0 -70 -49 14 -165 59 -82 93 -161 112 -259 16 -80 30 -114 91 -206 76 -115 70 -110 99 -75 14 17 52 66 85 110 32 44 95 117 140 163 44 46 94 101 110 124 33 45 40 98 15 118 -19 16 -52 -4 -92 -56 -53 -69 -95 -114 -108 -114 -31 0 -24 37 26 134 54 106 89 202 89 249 0 32 -26 77 -45 77 -34 0 -73 -76 -105 -200 -15 -63 -31 -100 -41 -100 -15 0 -10 60 11 160 30 140 24 200 -19 200 -37 0 -56 -64 -59 -197 -2 -68 -7 -123 -12 -123 -21 0 -30 75 -30 252 0 187 0 189 -25 213 -28 29 -57 32 -79 9z" transform="translate(0.000000,0.000000) scale(1,1)" stroke="none" fill="#617376"/>
</g>
<g id="pattern2" transform="matrix(0.618,0,0,0.618,4656,1368)">
<path d="M696 1514 c-28 -27 -21 -176 15 -315 13 -52 23 -230 15 -272 -4 -21 -11 -37 -16 -37 -12 0 -39 58 -80 175 -40 110 -60 135 -111 135 -74 0 -70 -49 14 -165 59 -82 93 -161 112 -259 16 -80 30 -114 91 -206 76 -115 70 -110 99 -75 14 17 52 66 85 110 32 44 95 117 140 163 44 46 94 101 110 124 33 45 40 98 15 118 -19 16 -52 -4 -92 -56 -53 -69 -95 -114 -108 -114 -31 0 -24 37 26 134 54 106 89 202 89 249 0 32 -26 77 -45 77 -34 0 -73 -76 -105 -200 -15 -63 -31 -100 -41 -100 -15 0 -10 60 11 160 30 140 24 200 -19 200 -37 0 -56 -64 -59 -197 -2 -68 -7 -123 -12 -123 -21 0 -30 75 -30 252 0 187 0 189 -25 213 -28 29 -57 32 -79 9z" transform="translate(6168,0.000000) scale(-1,1)" stroke="none" fill="#617376"/>
</g>
<g id="pattern3" transform="matrix(0.618,0,0,0.618,1746,6168)matrix(0.71,0.71,-0.71,0.71,0,0)">
<path d="M696 1514 c-28 -27 -21 -176 15 -315 13 -52 23 -230 15 -272 -4 -21 -11 -37 -16 -37 -12 0 -39 58 -80 175 -40 110 -60 135 -111 135 -74 0 -70 -49 14 -165 59 -82 93 -161 112 -259 16 -80 30 -114 91 -206 76 -115 70 -110 99 -75 14 17 52 66 85 110 32 44 95 117 140 163 44 46 94 101 110 124 33 45 40 98 15 118 -19 16 -52 -4 -92 -56 -53 -69 -95 -114 -108 -114 -31 0 -24 37 26 134 54 106 89 202 89 249 0 32 -26 77 -45 77 -34 0 -73 -76 -105 -200 -15 -63 -31 -100 -41 -100 -15 0 -10 60 11 160 30 140 24 200 -19 200 -37 0 -56 -64 -59 -197 -2 -68 -7 -123 -12 -123 -21 0 -30 75 -30 252 0 187 0 189 -25 213 -28 29 -57 32 -79 9z" transform="translate(990,-990) scale(1,1)" stroke="none" fill="#617376"/>
</g>
<g id="pattern4" transform="matrix(1.618,0,0,1.618,2588,2588)matrix(0.87,0.5,-0.5,0.87,0,0)">
<path d="M696 1514 c-28 -27 -21 -176 15 -315 13 -52 23 -230 15 -272 -4 -21 -11 -37 -16 -37 -12 0 -39 58 -80 175 -40 110 -60 135 -111 135 -74 0 -70 -49 14 -165 59 -82 93 -161 112 -259 16 -80 30 -114 91 -206 76 -115 70 -110 99 -75 14 17 52 66 85 110 32 44 95 117 140 163 44 46 94 101 110 124 33 45 40 98 15 118 -19 16 -52 -4 -92 -56 -53 -69 -95 -114 -108 -114 -31 0 -24 37 26 134 54 106 89 202 89 249 0 32 -26 77 -45 77 -34 0 -73 -76 -105 -200 -15 -63 -31 -100 -41 -100 -15 0 -10 60 11 160 30 140 24 200 -19 200 -37 0 -56 -64 -59 -197 -2 -68 -7 -123 -12 -123 -21 0 -30 75 -30 252 0 187 0 189 -25 213 -28 29 -57 32 -79 9z" transform="translate(990,-990) scale(1,1)" stroke="none" fill="#617376"/>
</g>
</g>
</g>

<g id="4" transform="translate(9072.0,0)scale(0.25,0.25)">

<g id="pattern">
<rect width="9828" height="9828" fill="#324144"/>
<g id="pattern1" transform="matrix(1,0,0,1,612,612)">
<path d="M696 1514 c-28 -27 -21 -176 15 -315 13 -52 23 -230 15 -272 -4 -21 -11 -37 -16 -37 -12 0 -39 58 -80 175 -40 110 -60 135 -111 135 -74 0 -70 -49 14 -165 59 -82 93 -161 112 -259 16 -80 30 -114 91 -206 76 -115 70 -110 99 -75 14 17 52 66 85 110 32 44 95 117 140 163 44 46 94 101 110 124 33 45 40 98 15 118 -19 16 -52 -4 -92 -56 -53 -69 -95 -114 -108 -114 -31 0 -24 37 26 134 54 106 89 202 89 249 0 32 -26 77 -45 77 -34 0 -73 -76 -105 -200 -15 -63 -31 -100 -41 -100 -15 0 -10 60 11 160 30 140 24 200 -19 200 -37 0 -56 -64 -59 -197 -2 -68 -7 -123 -12 -123 -21 0 -30 75 -30 252 0 187 0 189 -25 213 -28 29 -57 32 -79 9z" transform="translate(0.000000,0.000000) scale(1,1)" stroke="none" fill="#617376"/>
</g>
<g id="pattern2" transform="matrix(0.618,0,0,0.618,4656,1368)">
<path d="M696 1514 c-28 -27 -21 -176 15 -315 13 -52 23 -230 15 -272 -4 -21 -11 -37 -16 -37 -12 0 -39 58 -80 175 -40 110 -60 135 -111 135 -74 0 -70 -49 14 -165 59 -82 93 -161 112 -259 16 -80 30 -114 91 -206 76 -115 70 -110 99 -75 14 17 52 66 85 110 32 44 95 117 140 163 44 46 94 101 110 124 33 45 40 98 15 118 -19 16 -52 -4 -92 -56 -53 -69 -95 -114 -108 -114 -31 0 -24 37 26 134 54 106 89 202 89 249 0 32 -26 77 -45 77 -34 0 -73 -76 -105 -200 -15 -63 -31 -100 -41 -100 -15 0 -10 60 11 160 30 140 24 200 -19 200 -37 0 -56 -64 -59 -197 -2 -68 -7 -123 -12 -123 -21 0 -30 75 -30 252 0 187 0 189 -25 213 -28 29 -57 32 -79 9z" transform="translate(6168,0.000000) scale(-1,1)" stroke="none" fill="#617376"/>
</g>
<g id="pattern3" transform="matrix(0.618,0,0,0.618,1746,6168)matrix(0.71,0.71,-0.71,0.71,0,0)">
<path d="M696 1514 c-28 -27 -21 -176 15 -315 13 -52 23 -230 15 -272 -4 -21 -11 -37 -16 -37 -12 0 -39 58 -80 175 -40 110 -60 135 -111 135 -74 0 -70 -49 14 -165 59 -82 93 -161 112 -259 16 -80 30 -114 91 -206 76 -115 70 -110 99 -75 14 17 52 66 85 110 32 44 95 117 140 163 44 46 94 101 110 124 33 45 40 98 15 118 -19 16 -52 -4 -92 -56 -53 -69 -95 -114 -108 -114 -31 0 -24 37 26 134 54 106 89 202 89 249 0 32 -26 77 -45 77 -34 0 -73 -76 -105 -200 -15 -63 -31 -100 -41 -100 -15 0 -10 60 11 160 30 140 24 200 -19 200 -37 0 -56 -64 -59 -197 -2 -68 -7 -123 -12 -123 -21 0 -30 75 -30 252 0 187 0 189 -25 213 -28 29 -57 32 -79 9z" transform="translate(990,-990) scale(1,1)" stroke="none" fill="#617376"/>
</g>
<g id="pattern4" transform="matrix(1.618,0,0,1.618,2588,2588)matrix(0.87,0.5,-0.5,0.87,0,0)">
<path d="M696 1514 c-28 -27 -21 -176 15 -315 13 -52 23 -230 15 -272 -4 -21 -11 -37 -16 -37 -12 0 -39 58 -80 175 -40 110 -60 135 -111 135 -74 0 -70 -49 14 -165 59 -82 93 -161 112 -259 16 -80 30 -114 91 -206 76 -115 70 -110 99 -75 14 17 52 66 85 110 32 44 95 117 140 163 44 46 94 101 110 124 33 45 40 98 15 118 -19 16 -52 -4 -92 -56 -53 -69 -95 -114 -108 -114 -31 0 -24 37 26 134 54 106 89 202 89 249 0 32 -26 77 -45 77 -34 0 -73 -76 -105 -200 -15 -63 -31 -100 -41 -100 -15 0 -10 60 11 160 30 140 24 200 -19 200 -37 0 -56 -64 -59 -197 -2 -68 -7 -123 -12 -123 -21 0 -30 75 -30 252 0 187 0 189 -25 213 -28 29 -57 32 -79 9z" transform="translate(990,-990) scale(1,1)" stroke="none" fill="#617376"/>
</g>
</g>
</g>

</g>
<g id="row1" transform="translate(0,2268.0)">
<g id="0" transform="translate(0.0,0)scale(0.25,0.25)">

<g id="pattern">
<rect width="9828" height="9828" fill="#324144"/>
<g id="pattern1" transform="matrix(1,0,0,1,612,612)">
<path d="M696 1514 c-28 -27 -21 -176 15 -315 13 -52 23 -230 15 -272 -4 -21 -11 -37 -16 -37 -12 0 -39 58 -80 175 -40 110 -60 135 -111 135 -74 0 -70 -49 14 -165 59 -82 93 -161 112 -259 16 -80 30 -114 91 -206 76 -115 70 -110 99 -75 14 17 52 66 85 110 32 44 95 117 140 163 44 46 94 101 110 124 33 45 40 98 15 118 -19 16 -52 -4 -92 -56 -53 -69 -95 -114 -108 -114 -31 0 -24 37 26 134 54 106 89 202 89 249 0 32 -26 77 -45 77 -34 0 -73 -76 -105 -200 -15 -63 -31 -100 -41 -100 -15 0 -10 60 11 160 30 140 24 200 -19 200 -37 0 -56 -64 -59 -197 -2 -68 -7 -123 -12 -123 -21 0 -30 75 -30 252 0 187 0 189 -25 213 -28 29 -57 32 -79 9z" transform="translate(0.000000,0.000000) scale(1,1)" stroke="none" fill="#617376"/>
</g>
<g id="pattern2" transform="matrix(0.618,0,0,0.618,4656,1368)">
<path d="M696 1514 c-28 -27 -21 -176 15 -315 13 -52 23 -230 15 -272 -4 -21 -11 -37 -16 -37 -12 0 -39 58 -80 175 -40 110 -60 135 -111 135 -74 0 -70 -49 14 -165 59 -82 93 -161 112 -259 16 -80 30 -114 91 -206 76 -115 70 -110 99 -75 14 17 52 66 85 110 32 44 95 117 140 163 44 46 94 101 110 124 33 45 40 98 15 118 -19 16 -52 -4 -92 -56 -53 -69 -95 -114 -108 -114 -31 0 -24 37 26 134 54 106 89 202 89 249 0 32 -26 77 -45 77 -34 0 -73 -76 -105 -200 -15 -63 -31 -100 -41 -100 -15 0 -10 60 11 160 30 140 24 200 -19 200 -37 0 -56 -64 -59 -197 -2 -68 -7 -123 -12 -123 -21 0 -30 75 -30 252 0 187 0 189 -25 213 -28 29 -57 32 -79 9z" transform="translate(6168,0.000000) scale(-1,1)" stroke="none" fill="#617376"/>
</g>
<g id="pattern3" transform="matrix(0.618,0,0,0.618,1746,6168)matrix(0.71,0.71,-0.71,0.71,0,0)">
<path d="M696 1514 c-28 -27 -21 -176 15 -315 13 -52 23 -230 15 -272 -4 -21 -11 -37 -16 -37 -12 0 -39 58 -80 175 -40 110 -60 135 -111 135 -74 0 -70 -49 14 -165 59 -82 93 -161 112 -259 16 -80 30 -114 91 -206 76 -115 70 -110 99 -75 14 17 52 66 85 110 32 44 95 117 140 163 44 46 94 101 110 124 33 45 40 98 15 118 -19 16 -52 -4 -92 -56 -53 -69 -95 -114 -108 -114 -31 0 -24 37 26 134 54 106 89 202 89 249 0 32 -26 77 -45 77 -34 0 -73 -76 -105 -200 -15 -63 -31 -100 -41 -100 -15 0 -10 60 11 160 30 140 24 200 -19 200 -37 0 -56 -64 -59 -197 -2 -68 -7 -123 -12 -123 -21 0 -30 75 -30 252 0 187 0 189 -25 213 -28 29 -57 32 -79 9z" transform="translate(990,-990) scale(1,1)" stroke="none" fill="#617376"/>
</g>
<g id="pattern4" transform="matrix(1.618,0,0,1.618,2588,2588)matrix(0.87,0.5,-0.5,0.87,0,0)">
<path d="M696 1514 c-28 -27 -21 -176 15 -315 13 -52 23 -230 15 -272 -4 -21 -11 -37 -16 -37 -12 0 -39 58 -80 175 -40 110 -60 135 -111 135 -74 0 -70 -49 14 -165 59 -82 93 -161 112 -259 16 -80 30 -114 91 -206 76 -115 70 -110 99 -75 14 17 52 66 85 110 32 44 95 117 140 163 44 46 94 101 110 124 33 45 40 98 15 118 -19 16 -52 -4 -92 -56 -53 -69 -95 -114 -108 -114 -31 0 -24 37 26 134 54 106 89 202 89 249 0 32 -26 77 -45 77 -34 0 -73 -76 -105 -200 -15 -63 -31 -100 -41 -100 -15 0 -10 60 11 160 30 140 24 200 -19 200 -37 0 -56 -64 -59 -197 -2 -68 -7 -123 -12 -123 -21 0 -30 75 -30 252 0 187 0 189 -25 213 -28 29 -57 32 -79 9z" transform="translate(990,-990) scale(1,1)" stroke="none" fill="#617376"/>
</g>
</g>
</g>

<g id="1" transform="translate(2268.0,0)scale(0.25,0.25)">

<g id="pattern">
<rect width="9828" height="9828" fill="#324144"/>
<g id="pattern1" transform="matrix(1,0,0,1,612,612)">
<path d="M696 1514 c-28 -27 -21 -176 15 -315 13 -52 23 -230 15 -272 -4 -21 -11 -37 -16 -37 -12 0 -39 58 -80 175 -40 110 -60 135 -111 135 -74 0 -70 -49 14 -165 59 -82 93 -161 112 -259 16 -80 30 -114 91 -206 76 -115 70 -110 99 -75 14 17 52 66 85 110 32 44 95 117 140 163 44 46 94 101 110 124 33 45 40 98 15 118 -19 16 -52 -4 -92 -56 -53 -69 -95 -114 -108 -114 -31 0 -24 37 26 134 54 106 89 202 89 249 0 32 -26 77 -45 77 -34 0 -73 -76 -105 -200 -15 -63 -31 -100 -41 -100 -15 0 -10 60 11 160 30 140 24 200 -19 200 -37 0 -56 -64 -59 -197 -2 -68 -7 -123 -12 -123 -21 0 -30 75 -30 252 0 187 0 189 -25 213 -28 29 -57 32 -79 9z" transform="translate(0.000000,0.000000) scale(1,1)" stroke="none" fill="#617376"/>
</g>
<g id="pattern2" transform="matrix(0.618,0,0,0.618,4656,1368)">
<path d="M696 1514 c-28 -27 -21 -176 15 -315 13 -52 23 -230 15 -272 -4 -21 -11 -37 -16 -37 -12 0 -39 58 -80 175 -40 110 -60 135 -111 135 -74 0 -70 -49 14 -165 59 -82 93 -161 112 -259 16 -80 30 -114 91 -206 76 -115 70 -110 99 -75 14 17 52 66 85 110 32 44 95 117 140 163 44 46 94 101 110 124 33 45 40 98 15 118 -19 16 -52 -4 -92 -56 -53 -69 -95 -114 -108 -114 -31 0 -24 37 26 134 54 106 89 202 89 249 0 32 -26 77 -45 77 -34 0 -73 -76 -105 -200 -15 -63 -31 -100 -41 -100 -15 0 -10 60 11 160 30 140 24 200 -19 200 -37 0 -56 -64 -59 -197 -2 -68 -7 -123 -12 -123 -21 0 -30 75 -30 252 0 187 0 189 -25 213 -28 29 -57 32 -79 9z" transform="translate(6168,0.000000) scale(-1,1)" stroke="none" fill="#617376"/>
</g>
<g id="pattern3" transform="matrix(0.618,0,0,0.618,1746,6168)matrix(0.71,0.71,-0.71,0.71,0,0)">
<path d="M696 1514 c-28 -27 -21 -176 15 -315 13 -52 23 -230 15 -272 -4 -21 -11 -37 -16 -37 -12 0 -39 58 -80 175 -40 110 -60 135 -111 135 -74 0 -70 -49 14 -165 59 -82 93 -161 112 -259 16 -80 30 -114 91 -206 76 -115 70 -110 99 -75 14 17 52 66 85 110 32 44 95 117 140 163 44 46 94 101 110 124 33 45 40 98 15 118 -19 16 -52 -4 -92 -56 -53 -69 -95 -114 -108 -114 -31 0 -24 37 26 134 54 106 89 202 89 249 0 32 -26 77 -45 77 -34 0 -73 -76 -105 -200 -15 -63 -31 -100 -41 -100 -15 0 -10 60 11 160 30 140 24 200 -19 200 -37 0 -56 -64 -59 -197 -2 -68 -7 -123 -12 -123 -21 0 -30 75 -30 252 0 187 0 189 -25 213 -28 29 -57 32 -79 9z" transform="translate(990,-990) scale(1,1)" stroke="none" fill="#617376"/>
</g>
<g id="pattern4" transform="matrix(1.618,0,0,1.618,2588,2588)matrix(0.87,0.5,-0.5,0.87,0,0)">
<path d="M696 1514 c-28 -27 -21 -176 15 -315 13 -52 23 -230 15 -272 -4 -21 -11 -37 -16 -37 -12 0 -39 58 -80 175 -40 110 -60 135 -111 135 -74 0 -70 -49 14 -165 59 -82 93 -161 112 -259 16 -80 30 -114 91 -206 76 -115 70 -110 99 -75 14 17 52 66 85 110 32 44 95 117 140 163 44 46 94 101 110 124 33 45 40 98 15 118 -19 16 -52 -4 -92 -56 -53 -69 -95 -114 -108 -114 -31 0 -24 37 26 134 54 106 89 202 89 249 0 32 -26 77 -45 77 -34 0 -73 -76 -105 -200 -15 -63 -31 -100 -41 -100 -15 0 -10 60 11 160 30 140 24 200 -19 200 -37 0 -56 -64 -59 -197 -2 -68 -7 -123 -12 -123 -21 0 -30 75 -30 252 0 187 0 189 -25 213 -28 29 -57 32 -79 9z" transform="translate(990,-990) scale(1,1)" stroke="none" fill="#617376"/>
</g>
</g>
</g>

<g id="2" transform="translate(4536.0,0)scale(0.25,0.25)">

<g id="pattern">
<rect width="9828" height="9828" fill="#324144"/>
<g id="pattern1" transform="matrix(1,0,0,1,612,612)">
<path d="M696 1514 c-28 -27 -21 -176 15 -315 13 -52 23 -230 15 -272 -4 -21 -11 -37 -16 -37 -12 0 -39 58 -80 175 -40 110 -60 135 -111 135 -74 0 -70 -49 14 -165 59 -82 93 -161 112 -259 16 -80 30 -114 91 -206 76 -115 70 -110 99 -75 14 17 52 66 85 110 32 44 95 117 140 163 44 46 94 101 110 124 33 45 40 98 15 118 -19 16 -52 -4 -92 -56 -53 -69 -95 -114 -108 -114 -31 0 -24 37 26 134 54 106 89 202 89 249 0 32 -26 77 -45 77 -34 0 -73 -76 -105 -200 -15 -63 -31 -100 -41 -100 -15 0 -10 60 11 160 30 140 24 200 -19 200 -37 0 -56 -64 -59 -197 -2 -68 -7 -123 -12 -123 -21 0 -30 75 -30 252 0 187 0 189 -25 213 -28 29 -57 32 -79 9z" transform="translate(0.000000,0.000000) scale(1,1)" stroke="none" fill="#617376"/>
</g>
<g id="pattern2" transform="matrix(0.618,0,0,0.618,4656,1368)">
<path d="M696 1514 c-28 -27 -21 -176 15 -315 13 -52 23 -230 15 -272 -4 -21 -11 -37 -16 -37 -12 0 -39 58 -80 175 -40 110 -60 135 -111 135 -74 0 -70 -49 14 -165 59 -82 93 -161 112 -259 16 -80 30 -114 91 -206 76 -115 70 -110 99 -75 14 17 52 66 85 110 32 44 95 117 140 163 44 46 94 101 110 124 33 45 40 98 15 118 -19 16 -52 -4 -92 -56 -53 -69 -95 -114 -108 -114 -31 0 -24 37 26 134 54 106 89 202 89 249 0 32 -26 77 -45 77 -34 0 -73 -76 -105 -200 -15 -63 -31 -100 -41 -100 -15 0 -10 60 11 160 30 140 24 200 -19 200 -37 0 -56 -64 -59 -197 -2 -68 -7 -123 -12 -123 -21 0 -30 75 -30 252 0 187 0 189 -25 213 -28 29 -57 32 -79 9z" transform="translate(6168,0.000000) scale(-1,1)" stroke="none" fill="#617376"/>
</g>
<g id="pattern3" transform="matrix(0.618,0,0,0.618,1746,6168)matrix(0.71,0.71,-0.71,0.71,0,0)">
<path d="M696 1514 c-28 -27 -21 -176 15 -315 13 -52 23 -230 15 -272 -4 -21 -11 -37 -16 -37 -12 0 -39 58 -80 175 -40 110 -60 135 -111 135 -74 0 -70 -49 14 -165 59 -82 93 -161 112 -259 16 -80 30 -114 91 -206 76 -115 70 -110 99 -75 14 17 52 66 85 110 32 44 95 117 140 163 44 46 94 101 110 124 33 45 40 98 15 118 -19 16 -52 -4 -92 -56 -53 -69 -95 -114 -108 -114 -31 0 -24 37 26 134 54 106 89 202 89 249 0 32 -26 77 -45 77 -34 0 -73 -76 -105 -200 -15 -63 -31 -100 -41 -100 -15 0 -10 60 11 160 30 140 24 200 -19 200 -37 0 -56 -64 -59 -197 -2 -68 -7 -123 -12 -123 -21 0 -30 75 -30 252 0 187 0 189 -25 213 -28 29 -57 32 -79 9z" transform="translate(990,-990) scale(1,1)" stroke="none" fill="#617376"/>
</g>
<g id="pattern4" transform="matrix(1.618,0,0,1.618,2588,2588)matrix(0.87,0.5,-0.5,0.87,0,0)">
<path d="M696 1514 c-28 -27 -21 -176 15 -315 13 -52 23 -230 15 -272 -4 -21 -11 -37 -16 -37 -12 0 -39 58 -80 175 -40 110 -60 135 -111 135 -74 0 -70 -49 14 -165 59 -82 93 -161 112 -259 16 -80 30 -114 91 -206 76 -115 70 -110 99 -75 14 17 52 66 85 110 32 44 95 117 140 163 44 46 94 101 110 124 33 45 40 98 15 118 -19 16 -52 -4 -92 -56 -53 -69 -95 -114 -108 -114 -31 0 -24 37 26 134 54 106 89 202 89 249 0 32 -26 77 -45 77 -34 0 -73 -76 -105 -200 -15 -63 -31 -100 -41 -100 -15 0 -10 60 11 160 30 140 24 200 -19 200 -37 0 -56 -64 -59 -197 -2 -68 -7 -123 -12 -123 -21 0 -30 75 -30 252 0 187 0 189 -25 213 -28 29 -57 32 -79 9z" transform="translate(990,-990) scale(1,1)" stroke="none" fill="#617376"/>
</g>
</g>
</g>

<g id="3" transform="translate(6804.0,0)scale(0.25,0.25)">

<g id="pattern">
<rect width="9828" height="9828" fill="#324144"/>
<g id="pattern1" transform="matrix(1,0,0,1,612,612)">
<path d="M696 1514 c-28 -27 -21 -176 15 -315 13 -52 23 -230 15 -272 -4 -21 -11 -37 -16 -37 -12 0 -39 58 -80 175 -40 110 -60 135 -111 135 -74 0 -70 -49 14 -165 59 -82 93 -161 112 -259 16 -80 30 -114 91 -206 76 -115 70 -110 99 -75 14 17 52 66 85 110 32 44 95 117 140 163 44 46 94 101 110 124 33 45 40 98 15 118 -19 16 -52 -4 -92 -56 -53 -69 -95 -114 -108 -114 -31 0 -24 37 26 134 54 106 89 202 89 249 0 32 -26 77 -45 77 -34 0 -73 -76 -105 -200 -15 -63 -31 -100 -41 -100 -15 0 -10 60 11 160 30 140 24 200 -19 200 -37 0 -56 -64 -59 -197 -2 -68 -7 -123 -12 -123 -21 0 -30 75 -30 252 0 187 0 189 -25 213 -28 29 -57 32 -79 9z" transform="translate(0.000000,0.000000) scale(1,1)" stroke="none" fill="#617376"/>
</g>
<g id="pattern2" transform="matrix(0.618,0,0,0.618,4656,1368)">
<path d="M696 1514 c-28 -27 -21 -176 15 -315 13 -52 23 -230 15 -272 -4 -21 -11 -37 -16 -37 -12 0 -39 58 -80 175 -40 110 -60 135 -111 135 -74 0 -70 -49 14 -165 59 -82 93 -161 112 -259 16 -80 30 -114 91 -206 76 -115 70 -110 99 -75 14 17 52 66 85 110 32 44 95 117 140 163 44 46 94 101 110 124 33 45 40 98 15 118 -19 16 -52 -4 -92 -56 -53 -69 -95 -114 -108 -114 -31 0 -24 37 26 134 54 106 89 202 89 249 0 32 -26 77 -45 77 -34 0 -73 -76 -105 -200 -15 -63 -31 -100 -41 -100 -15 0 -10 60 11 160 30 140 24 200 -19 200 -37 0 -56 -64 -59 -197 -2 -68 -7 -123 -12 -123 -21 0 -30 75 -30 252 0 187 0 189 -25 213 -28 29 -57 32 -79 9z" transform="translate(6168,0.000000) scale(-1,1)" stroke="none" fill="#617376"/>
</g>
<g id="pattern3" transform="matrix(0.618,0,0,0.618,1746,6168)matrix(0.71,0.71,-0.71,0.71,0,0)">
<path d="M696 1514 c-28 -27 -21 -176 15 -315 13 -52 23 -230 15 -272 -4 -21 -11 -37 -16 -37 -12 0 -39 58 -80 175 -40 110 -60 135 -111 135 -74 0 -70 -49 14 -165 59 -82 93 -161 112 -259 16 -80 30 -114 91 -206 76 -115 70 -110 99 -75 14 17 52 66 85 110 32 44 95 117 140 163 44 46 94 101 110 124 33 45 40 98 15 118 -19 16 -52 -4 -92 -56 -53 -69 -95 -114 -108 -114 -31 0 -24 37 26 134 54 106 89 202 89 249 0 32 -26 77 -45 77 -34 0 -73 -76 -105 -200 -15 -63 -31 -100 -41 -100 -15 0 -10 60 11 160 30 140 24 200 -19 200 -37 0 -56 -64 -59 -197 -2 -68 -7 -123 -12 -123 -21 0 -30 75 -30 252 0 187 0 189 -25 213 -28 29 -57 32 -79 9z" transform="translate(990,-990) scale(1,1)" stroke="none" fill="#617376"/>
</g>
<g id="pattern4" transform="matrix(1.618,0,0,1.618,2588,2588)matrix(0.87,0.5,-0.5,0.87,0,0)">
<path d="M696 1514 c-28 -27 -21 -176 15 -315 13 -52 23 -230 15 -272 -4 -21 -11 -37 -16 -37 -12 0 -39 58 -80 175 -40 110 -60 135 -111 135 -74 0 -70 -49 14 -165 59 -82 93 -161 112 -259 16 -80 30 -114 91 -206 76 -115 70 -110 99 -75 14 17 52 66 85 110 32 44 95 117 140 163 44 46 94 101 110 124 33 45 40 98 15 118 -19 16 -52 -4 -92 -56 -53 -69 -95 -114 -108 -114 -31 0 -24 37 26 134 54 106 89 202 89 249 0 32 -26 77 -45 77 -34 0 -73 -76 -105 -200 -15 -63 -31 -100 -41 -100 -15 0 -10 60 11 160 30 140 24 200 -19 200 -37 0 -56 -64 -59 -197 -2 -68 -7 -123 -12 -123 -21 0 -30 75 -30 252 0 187 0 189 -25 213 -28 29 -57 32 -79 9z" transform="translate(990,-990) scale(1,1)" stroke="none" fill="#617376"/>
</g>
</g>
</g>

<g id="4" transform="translate(9072.0,0)scale(0.25,0.25)">

<g id="pattern">
<rect width="9828" height="9828" fill="#324144"/>
<g id="pattern1" transform="matrix(1,0,0,1,612,612)">
<path d="M696 1514 c-28 -27 -21 -176 15 -315 13 -52 23 -230 15 -272 -4 -21 -11 -37 -16 -37 -12 0 -39 58 -80 175 -40 110 -60 135 -111 135 -74 0 -70 -49 14 -165 59 -82 93 -161 112 -259 16 -80 30 -114 91 -206 76 -115 70 -110 99 -75 14 17 52 66 85 110 32 44 95 117 140 163 44 46 94 101 110 124 33 45 40 98 15 118 -19 16 -52 -4 -92 -56 -53 -69 -95 -114 -108 -114 -31 0 -24 37 26 134 54 106 89 202 89 249 0 32 -26 77 -45 77 -34 0 -73 -76 -105 -200 -15 -63 -31 -100 -41 -100 -15 0 -10 60 11 160 30 140 24 200 -19 200 -37 0 -56 -64 -59 -197 -2 -68 -7 -123 -12 -123 -21 0 -30 75 -30 252 0 187 0 189 -25 213 -28 29 -57 32 -79 9z" transform="translate(0.000000,0.000000) scale(1,1)" stroke="none" fill="#617376"/>
</g>
<g id="pattern2" transform="matrix(0.618,0,0,0.618,4656,1368)">
<path d="M696 1514 c-28 -27 -21 -176 15 -315 13 -52 23 -230 15 -272 -4 -21 -11 -37 -16 -37 -12 0 -39 58 -80 175 -40 110 -60 135 -111 135 -74 0 -70 -49 14 -165 59 -82 93 -161 112 -259 16 -80 30 -114 91 -206 76 -115 70 -110 99 -75 14 17 52 66 85 110 32 44 95 117 140 163 44 46 94 101 110 124 33 45 40 98 15 118 -19 16 -52 -4 -92 -56 -53 -69 -95 -114 -108 -114 -31 0 -24 37 26 134 54 106 89 202 89 249 0 32 -26 77 -45 77 -34 0 -73 -76 -105 -200 -15 -63 -31 -100 -41 -100 -15 0 -10 60 11 160 30 140 24 200 -19 200 -37 0 -56 -64 -59 -197 -2 -68 -7 -123 -12 -123 -21 0 -30 75 -30 252 0 187 0 189 -25 213 -28 29 -57 32 -79 9z" transform="translate(6168,0.000000) scale(-1,1)" stroke="none" fill="#617376"/>
</g>
<g id="pattern3" transform="matrix(0.618,0,0,0.618,1746,6168)matrix(0.71,0.71,-0.71,0.71,0,0)">
<path d="M696 1514 c-28 -27 -21 -176 15 -315 13 -52 23 -230 15 -272 -4 -21 -11 -37 -16 -37 -12 0 -39 58 -80 175 -40 110 -60 135 -111 135 -74 0 -70 -49 14 -165 59 -82 93 -161 112 -259 16 -80 30 -114 91 -206 76 -115 70 -110 99 -75 14 17 52 66 85 110 32 44 95 117 140 163 44 46 94 101 110 124 33 45 40 98 15 118 -19 16 -52 -4 -92 -56 -53 -69 -95 -114 -108 -114 -31 0 -24 37 26 134 54 106 89 202 89 249 0 32 -26 77 -45 77 -34 0 -73 -76 -105 -200 -15 -63 -31 -100 -41 -100 -15 0 -10 60 11 160 30 140 24 200 -19 200 -37 0 -56 -64 -59 -197 -2 -68 -7 -123 -12 -123 -21 0 -30 75 -30 252 0 187 0 189 -25 213 -28 29 -57 32 -79 9z" transform="translate(990,-990) scale(1,1)" stroke="none" fill="#617376"/>
</g>
<g id="pattern4" transform="matrix(1.618,0,0,1.618,2588,2588)matrix(0.87,0.5,-0.5,0.87,0,0)">
<path d="M696 1514 c-28 -27 -21 -176 15 -315 13 -52 23 -230 15 -272 -4 -21 -11 -37 -16 -37 -12 0 -39 58 -80 175 -40 110 -60 135 -111 135 -74 0 -70 -49 14 -165 59 -82 93 -161 112 -259 16 -80 30 -114 91 -206 76 -115 70 -110 99 -75 14 17 52 66 85 110 32 44 95 117 140 163 44 46 94 101 110 124 33 45 40 98 15 118 -19 16 -52 -4 -92 -56 -53 -69 -95 -114 -108 -114 -31 0 -24 37 26 134 54 106 89 202 89 249 0 32 -26 77 -45 77 -34 0 -73 -76 -105 -200 -15 -63 -31 -100 -41 -100 -15 0 -10 60 11 160 30 140 24 200 -19 200 -37 0 -56 -64 -59 -197 -2 -68 -7 -123 -12 -123 -21 0 -30 75 -30 252 0 187 0 189 -25 213 -28 29 -57 32 -79 9z" transform="translate(990,-990) scale(1,1)" stroke="none" fill="#617376"/>
</g>
</g>
</g>

</g>
<g id="row2" transform="translate(0,4536.0)">
<g id="0" transform="translate(0.0,0)scale(0.25,0.25)">

<g id="pattern">
<rect width="9828" height="9828" fill="#324144"/>
<g id="pattern1" transform="matrix(1,0,0,1,612,612)">
<path d="M696 1514 c-28 -27 -21 -176 15 -315 13 -52 23 -230 15 -272 -4 -21 -11 -37 -16 -37 -12 0 -39 58 -80 175 -40 110 -60 135 -111 135 -74 0 -70 -49 14 -165 59 -82 93 -161 112 -259 16 -80 30 -114 91 -206 76 -115 70 -110 99 -75 14 17 52 66 85 110 32 44 95 117 140 163 44 46 94 101 110 124 33 45 40 98 15 118 -19 16 -52 -4 -92 -56 -53 -69 -95 -114 -108 -114 -31 0 -24 37 26 134 54 106 89 202 89 249 0 32 -26 77 -45 77 -34 0 -73 -76 -105 -200 -15 -63 -31 -100 -41 -100 -15 0 -10 60 11 160 30 140 24 200 -19 200 -37 0 -56 -64 -59 -197 -2 -68 -7 -123 -12 -123 -21 0 -30 75 -30 252 0 187 0 189 -25 213 -28 29 -57 32 -79 9z" transform="translate(0.000000,0.000000) scale(1,1)" stroke="none" fill="#617376"/>
</g>
<g id="pattern2" transform="matrix(0.618,0,0,0.618,4656,1368)">
<path d="M696 1514 c-28 -27 -21 -176 15 -315 13 -52 23 -230 15 -272 -4 -21 -11 -37 -16 -37 -12 0 -39 58 -80 175 -40 110 -60 135 -111 135 -74 0 -70 -49 14 -165 59 -82 93 -161 112 -259 16 -80 30 -114 91 -206 76 -115 70 -110 99 -75 14 17 52 66 85 110 32 44 95 117 140 163 44 46 94 101 110 124 33 45 40 98 15 118 -19 16 -52 -4 -92 -56 -53 -69 -95 -114 -108 -114 -31 0 -24 37 26 134 54 106 89 202 89 249 0 32 -26 77 -45 77 -34 0 -73 -76 -105 -200 -15 -63 -31 -100 -41 -100 -15 0 -10 60 11 160 30 140 24 200 -19 200 -37 0 -56 -64 -59 -197 -2 -68 -7 -123 -12 -123 -21 0 -30 75 -30 252 0 187 0 189 -25 213 -28 29 -57 32 -79 9z" transform="translate(6168,0.000000) scale(-1,1)" stroke="none" fill="#617376"/>
</g>
<g id="pattern3" transform="matrix(0.618,0,0,0.618,1746,6168)matrix(0.71,0.71,-0.71,0.71,0,0)">
<path d="M696 1514 c-28 -27 -21 -176 15 -315 13 -52 23 -230 15 -272 -4 -21 -11 -37 -16 -37 -12 0 -39 58 -80 175 -40 110 -60 135 -111 135 -74 0 -70 -49 14 -165 59 -82 93 -161 112 -259 16 -80 30 -114 91 -206 76 -115 70 -110 99 -75 14 17 52 66 85 110 32 44 95 117 140 163 44 46 94 101 110 124 33 45 40 98 15 118 -19 16 -52 -4 -92 -56 -53 -69 -95 -114 -108 -114 -31 0 -24 37 26 134 54 106 89 202 89 249 0 32 -26 77 -45 77 -34 0 -73 -76 -105 -200 -15 -63 -31 -100 -41 -100 -15 0 -10 60 11 160 30 140 24 200 -19 200 -37 0 -56 -64 -59 -197 -2 -68 -7 -123 -12 -123 -21 0 -30 75 -30 252 0 187 0 189 -25 213 -28 29 -57 32 -79 9z" transform="translate(990,-990) scale(1,1)" stroke="none" fill="#617376"/>
</g>
<g id="pattern4" transform="matrix(1.618,0,0,1.618,2588,2588)matrix(0.87,0.5,-0.5,0.87,0,0)">
<path d="M696 1514 c-28 -27 -21 -176 15 -315 13 -52 23 -230 15 -272 -4 -21 -11 -37 -16 -37 -12 0 -39 58 -80 175 -40 110 -60 135 -111 135 -74 0 -70 -49 14 -165 59 -82 93 -161 112 -259 16 -80 30 -114 91 -206 76 -115 70 -110 99 -75 14 17 52 66 85 110 32 44 95 117 140 163 44 46 94 101 110 124 33 45 40 98 15 118 -19 16 -52 -4 -92 -56 -53 -69 -95 -114 -108 -114 -31 0 -24 37 26 134 54 106 89 202 89 249 0 32 -26 77 -45 77 -34 0 -73 -76 -105 -200 -15 -63 -31 -100 -41 -100 -15 0 -10 60 11 160 30 140 24 200 -19 200 -37 0 -56 -64 -59 -197 -2 -68 -7 -123 -12 -123 -21 0 -30 75 -30 252 0 187 0 189 -25 213 -28 29 -57 32 -79 9z" transform="translate(990,-990) scale(1,1)" stroke="none" fill="#617376"/>
</g>
</g>
</g>

<g id="1" transform="translate(2268.0,0)scale(0.25,0.25)">

<g id="pattern">
<rect width="9828" height="9828" fill="#324144"/>
<g id="pattern1" transform="matrix(1,0,0,1,612,612)">
<path d="M696 1514 c-28 -27 -21 -176 15 -315 13 -52 23 -230 15 -272 -4 -21 -11 -37 -16 -37 -12 0 -39 58 -80 175 -40 110 -60 135 -111 135 -74 0 -70 -49 14 -165 59 -82 93 -161 112 -259 16 -80 30 -114 91 -206 76 -115 70 -110 99 -75 14 17 52 66 85 110 32 44 95 117 140 163 44 46 94 101 110 124 33 45 40 98 15 118 -19 16 -52 -4 -92 -56 -53 -69 -95 -114 -108 -114 -31 0 -24 37 26 134 54 106 89 202 89 249 0 32 -26 77 -45 77 -34 0 -73 -76 -105 -200 -15 -63 -31 -100 -41 -100 -15 0 -10 60 11 160 30 140 24 200 -19 200 -37 0 -56 -64 -59 -197 -2 -68 -7 -123 -12 -123 -21 0 -30 75 -30 252 0 187 0 189 -25 213 -28 29 -57 32 -79 9z" transform="translate(0.000000,0.000000) scale(1,1)" stroke="none" fill="#617376"/>
</g>
<g id="pattern2" transform="matrix(0.618,0,0,0.618,4656,1368)">
<path d="M696 1514 c-28 -27 -21 -176 15 -315 13 -52 23 -230 15 -272 -4 -21 -11 -37 -16 -37 -12 0 -39 58 -80 175 -40 110 -60 135 -111 135 -74 0 -70 -49 14 -165 59 -82 93 -161 112 -259 16 -80 30 -114 91 -206 76 -115 70 -110 99 -75 14 17 52 66 85 110 32 44 95 117 140 163 44 46 94 101 110 124 33 45 40 98 15 118 -19 16 -52 -4 -92 -56 -53 -69 -95 -114 -108 -114 -31 0 -24 37 26 134 54 106 89 202 89 249 0 32 -26 77 -45 77 -34 0 -73 -76 -105 -200 -15 -63 -31 -100 -41 -100 -15 0 -10 60 11 160 30 140 24 200 -19 200 -37 0 -56 -64 -59 -197 -2 -68 -7 -123 -12 -123 -21 0 -30 75 -30 252 0 187 0 189 -25 213 -28 29 -57 32 -79 9z" transform="translate(6168,0.000000) scale(-1,1)" stroke="none" fill="#617376"/>
</g>
<g id="pattern3" transform="matrix(0.618,0,0,0.618,1746,6168)matrix(0.71,0.71,-0.71,0.71,0,0)">
<path d="M696 1514 c-28 -27 -21 -176 15 -315 13 -52 23 -230 15 -272 -4 -21 -11 -37 -16 -37 -12 0 -39 58 -80 175 -40 110 -60 135 -111 135 -74 0 -70 -49 14 -165 59 -82 93 -161 112 -259 16 -80 30 -114 91 -206 76 -115 70 -110 99 -75 14 17 52 66 85 110 32 44 95 117 140 163 44 46 94 101 110 124 33 45 40 98 15 118 -19 16 -52 -4 -92 -56 -53 -69 -95 -114 -108 -114 -31 0 -24 37 26 134 54 106 89 202 89 249 0 32 -26 77 -45 77 -34 0 -73 -76 -105 -200 -15 -63 -31 -100 -41 -100 -15 0 -10 60 11 160 30 140 24 200 -19 200 -37 0 -56 -64 -59 -197 -2 -68 -7 -123 -12 -123 -21 0 -30 75 -30 252 0 187 0 189 -25 213 -28 29 -57 32 -79 9z" transform="translate(990,-990) scale(1,1)" stroke="none" fill="#617376"/>
</g>
<g id="pattern4" transform="matrix(1.618,0,0,1.618,2588,2588)matrix(0.87,0.5,-0.5,0.87,0,0)">
<path d="M696 1514 c-28 -27 -21 -176 15 -315 13 -52 23 -230 15 -272 -4 -21 -11 -37 -16 -37 -12 0 -39 58 -80 175 -40 110 -60 135 -111 135 -74 0 -70 -49 14 -165 59 -82 93 -161 112 -259 16 -80 30 -114 91 -206 76 -115 70 -110 99 -75 14 17 52 66 85 110 32 44 95 117 140 163 44 46 94 101 110 124 33 45 40 98 15 118 -19 16 -52 -4 -92 -56 -53 -69 -95 -114 -108 -114 -31 0 -24 37 26 134 54 106 89 202 89 249 0 32 -26 77 -45 77 -34 0 -73 -76 -105 -200 -15 -63 -31 -100 -41 -100 -15 0 -10 60 11 160 30 140 24 200 -19 200 -37 0 -56 -64 -59 -197 -2 -68 -7 -123 -12 -123 -21 0 -30 75 -30 252 0 187 0 189 -25 213 -28 29 -57 32 -79 9z" transform="translate(990,-990) scale(1,1)" stroke="none" fill="#617376"/>
</g>
</g>
</g>

<g id="2" transform="translate(4536.0,0)scale(0.25,0.25)">

<g id="pattern">
<rect width="9828" height="9828" fill="#324144"/>
<g id="pattern1" transform="matrix(1,0,0,1,612,612)">
<path d="M696 1514 c-28 -27 -21 -176 15 -315 13 -52 23 -230 15 -272 -4 -21 -11 -37 -16 -37 -12 0 -39 58 -80 175 -40 110 -60 135 -111 135 -74 0 -70 -49 14 -165 59 -82 93 -161 112 -259 16 -80 30 -114 91 -206 76 -115 70 -110 99 -75 14 17 52 66 85 110 32 44 95 117 140 163 44 46 94 101 110 124 33 45 40 98 15 118 -19 16 -52 -4 -92 -56 -53 -69 -95 -114 -108 -114 -31 0 -24 37 26 134 54 106 89 202 89 249 0 32 -26 77 -45 77 -34 0 -73 -76 -105 -200 -15 -63 -31 -100 -41 -100 -15 0 -10 60 11 160 30 140 24 200 -19 200 -37 0 -56 -64 -59 -197 -2 -68 -7 -123 -12 -123 -21 0 -30 75 -30 252 0 187 0 189 -25 213 -28 29 -57 32 -79 9z" transform="translate(0.000000,0.000000) scale(1,1)" stroke="none" fill="#617376"/>
</g>
<g id="pattern2" transform="matrix(0.618,0,0,0.618,4656,1368)">
<path d="M696 1514 c-28 -27 -21 -176 15 -315 13 -52 23 -230 15 -272 -4 -21 -11 -37 -16 -37 -12 0 -39 58 -80 175 -40 110 -60 135 -111 135 -74 0 -70 -49 14 -165 59 -82 93 -161 112 -259 16 -80 30 -114 91 -206 76 -115 70 -110 99 -75 14 17 52 66 85 110 32 44 95 117 140 163 44 46 94 101 110 124 33 45 40 98 15 118 -19 16 -52 -4 -92 -56 -53 -69 -95 -114 -108 -114 -31 0 -24 37 26 134 54 106 89 202 89 249 0 32 -26 77 -45 77 -34 0 -73 -76 -105 -200 -15 -63 -31 -100 -41 -100 -15 0 -10 60 11 160 30 140 24 200 -19 200 -37 0 -56 -64 -59 -197 -2 -68 -7 -123 -12 -123 -21 0 -30 75 -30 252 0 187 0 189 -25 213 -28 29 -57 32 -79 9z" transform="translate(6168,0.000000) scale(-1,1)" stroke="none" fill="#617376"/>
</g>
<g id="pattern3" transform="matrix(0.618,0,0,0.618,1746,6168)matrix(0.71,0.71,-0.71,0.71,0,0)">
<path d="M696 1514 c-28 -27 -21 -176 15 -315 13 -52 23 -230 15 -272 -4 -21 -11 -37 -16 -37 -12 0 -39 58 -80 175 -40 110 -60 135 -111 135 -74 0 -70 -49 14 -165 59 -82 93 -161 112 -259 16 -80 30 -114 91 -206 76 -115 70 -110 99 -75 14 17 52 66 85 110 32 44 95 117 140 163 44 46 94 101 110 124 33 45 40 98 15 118 -19 16 -52 -4 -92 -56 -53 -69 -95 -114 -108 -114 -31 0 -24 37 26 134 54 106 89 202 89 249 0 32 -26 77 -45 77 -34 0 -73 -76 -105 -200 -15 -63 -31 -100 -41 -100 -15 0 -10 60 11 160 30 140 24 200 -19 200 -37 0 -56 -64 -59 -197 -2 -68 -7 -123 -12 -123 -21 0 -30 75 -30 252 0 187 0 189 -25 213 -28 29 -57 32 -79 9z" transform="translate(990,-990) scale(1,1)" stroke="none" fill="#617376"/>
</g>
<g id="pattern4" transform="matrix(1.618,0,0,1.618,2588,2588)matrix(0.87,0.5,-0.5,0.87,0,0)">
<path d="M696 1514 c-28 -27 -21 -176 15 -315 13 -52 23 -230 15 -272 -4 -21 -11 -37 -16 -37 -12 0 -39 58 -80 175 -40 110 -60 135 -111 135 -74 0 -70 -49 14 -165 59 -82 93 -161 112 -259 16 -80 30 -114 91 -206 76 -115 70 -110 99 -75 14 17 52 66 85 110 32 44 95 117 140 163 44 46 94 101 110 124 33 45 40 98 15 118 -19 16 -52 -4 -92 -56 -53 -69 -95 -114 -108 -114 -31 0 -24 37 26 134 54 106 89 202 89 249 0 32 -26 77 -45 77 -34 0 -73 -76 -105 -200 -15 -63 -31 -100 -41 -100 -15 0 -10 60 11 160 30 140 24 200 -19 200 -37 0 -56 -64 -59 -197 -2 -68 -7 -123 -12 -123 -21 0 -30 75 -30 252 0 187 0 189 -25 213 -28 29 -57 32 -79 9z" transform="translate(990,-990) scale(1,1)" stroke="none" fill="#617376"/>
</g>
</g>
</g>

<g id="3" transform="translate(6804.0,0)scale(0.25,0.25)">

<g id="pattern">
<rect width="9828" height="9828" fill="#324144"/>
<g id="pattern1" transform="matrix(1,0,0,1,612,612)">
<path d="M696 1514 c-28 -27 -21 -176 15 -315 13 -52 23 -230 15 -272 -4 -21 -11 -37 -16 -37 -12 0 -39 58 -80 175 -40 110 -60 135 -111 135 -74 0 -70 -49 14 -165 59 -82 93 -161 112 -259 16 -80 30 -114 91 -206 76 -115 70 -110 99 -75 14 17 52 66 85 110 32 44 95 117 140 163 44 46 94 101 110 124 33 45 40 98 15 118 -19 16 -52 -4 -92 -56 -53 -69 -95 -114 -108 -114 -31 0 -24 37 26 134 54 106 89 202 89 249 0 32 -26 77 -45 77 -34 0 -73 -76 -105 -200 -15 -63 -31 -100 -41 -100 -15 0 -10 60 11 160 30 140 24 200 -19 200 -37 0 -56 -64 -59 -197 -2 -68 -7 -123 -12 -123 -21 0 -30 75 -30 252 0 187 0 189 -25 213 -28 29 -57 32 -79 9z" transform="translate(0.000000,0.000000) scale(1,1)" stroke="none" fill="#617376"/>
</g>
<g id="pattern2" transform="matrix(0.618,0,0,0.618,4656,1368)">
<path d="M696 1514 c-28 -27 -21 -176 15 -315 13 -52 23 -230 15 -272 -4 -21 -11 -37 -16 -37 -12 0 -39 58 -80 175 -40 110 -60 135 -111 135 -74 0 -70 -49 14 -165 59 -82 93 -161 112 -259 16 -80 30 -114 91 -206 76 -115 70 -110 99 -75 14 17 52 66 85 110 32 44 95 117 140 163 44 46 94 101 110 124 33 45 40 98 15 118 -19 16 -52 -4 -92 -56 -53 -69 -95 -114 -108 -114 -31 0 -24 37 26 134 54 106 89 202 89 249 0 32 -26 77 -45 77 -34 0 -73 -76 -105 -200 -15 -63 -31 -100 -41 -100 -15 0 -10 60 11 160 30 140 24 200 -19 200 -37 0 -56 -64 -59 -197 -2 -68 -7 -123 -12 -123 -21 0 -30 75 -30 252 0 187 0 189 -25 213 -28 29 -57 32 -79 9z" transform="translate(6168,0.000000) scale(-1,1)" stroke="none" fill="#617376"/>
</g>
<g id="pattern3" transform="matrix(0.618,0,0,0.618,1746,6168)matrix(0.71,0.71,-0.71,0.71,0,0)">
<path d="M696 1514 c-28 -27 -21 -176 15 -315 13 -52 23 -230 15 -272 -4 -21 -11 -37 -16 -37 -12 0 -39 58 -80 175 -40 110 -60 135 -111 135 -74 0 -70 -49 14 -165 59 -82 93 -161 112 -259 16 -80 30 -114 91 -206 76 -115 70 -110 99 -75 14 17 52 66 85 110 32 44 95 117 140 163 44 46 94 101 110 124 33 45 40 98 15 118 -19 16 -52 -4 -92 -56 -53 -69 -95 -114 -108 -114 -31 0 -24 37 26 134 54 106 89 202 89 249 0 32 -26 77 -45 77 -34 0 -73 -76 -105 -200 -15 -63 -31 -100 -41 -100 -15 0 -10 60 11 160 30 140 24 200 -19 200 -37 0 -56 -64 -59 -197 -2 -68 -7 -123 -12 -123 -21 0 -30 75 -30 252 0 187 0 189 -25 213 -28 29 -57 32 -79 9z" transform="translate(990,-990) scale(1,1)" stroke="none" fill="#617376"/>
</g>
<g id="pattern4" transform="matrix(1.618,0,0,1.618,2588,2588)matrix(0.87,0.5,-0.5,0.87,0,0)">
<path d="M696 1514 c-28 -27 -21 -176 15 -315 13 -52 23 -230 15 -272 -4 -21 -11 -37 -16 -37 -12 0 -39 58 -80 175 -40 110 -60 135 -111 135 -74 0 -70 -49 14 -165 59 -82 93 -161 112 -259 16 -80 30 -114 91 -206 76 -115 70 -110 99 -75 14 17 52 66 85 110 32 44 95 117 140 163 44 46 94 101 110 124 33 45 40 98 15 118 -19 16 -52 -4 -92 -56 -53 -69 -95 -114 -108 -114 -31 0 -24 37 26 134 54 106 89 202 89 249 0 32 -26 77 -45 77 -34 0 -73 -76 -105 -200 -15 -63 -31 -100 -41 -100 -15 0 -10 60 11 160 30 140 24 200 -19 200 -37 0 -56 -64 -59 -197 -2 -68 -7 -123 -12 -123 -21 0 -30 75 -30 252 0 187 0 189 -25 213 -28 29 -57 32 -79 9z" transform="translate(990,-990) scale(1,1)" stroke="none" fill="#617376"/>
</g>
</g>
</g>

<g id="4" transform="translate(9072.0,0)scale(0.25,0.25)">

<g id="pattern">
<rect width="9828" height="9828" fill="#324144"/>
<g id="pattern1" transform="matrix(1,0,0,1,612,612)">
<path d="M696 1514 c-28 -27 -21 -176 15 -315 13 -52 23 -230 15 -272 -4 -21 -11 -37 -16 -37 -12 0 -39 58 -80 175 -40 110 -60 135 -111 135 -74 0 -70 -49 14 -165 59 -82 93 -161 112 -259 16 -80 30 -114 91 -206 76 -115 70 -110 99 -75 14 17 52 66 85 110 32 44 95 117 140 163 44 46 94 101 110 124 33 45 40 98 15 118 -19 16 -52 -4 -92 -56 -53 -69 -95 -114 -108 -114 -31 0 -24 37 26 134 54 106 89 202 89 249 0 32 -26 77 -45 77 -34 0 -73 -76 -105 -200 -15 -63 -31 -100 -41 -100 -15 0 -10 60 11 160 30 140 24 200 -19 200 -37 0 -56 -64 -59 -197 -2 -68 -7 -123 -12 -123 -21 0 -30 75 -30 252 0 187 0 189 -25 213 -28 29 -57 32 -79 9z" transform="translate(0.000000,0.000000) scale(1,1)" stroke="none" fill="#617376"/>
</g>
<g id="pattern2" transform="matrix(0.618,0,0,0.618,4656,1368)">
<path d="M696 1514 c-28 -27 -21 -176 15 -315 13 -52 23 -230 15 -272 -4 -21 -11 -37 -16 -37 -12 0 -39 58 -80 175 -40 110 -60 135 -111 135 -74 0 -70 -49 14 -165 59 -82 93 -161 112 -259 16 -80 30 -114 91 -206 76 -115 70 -110 99 -75 14 17 52 66 85 110 32 44 95 117 140 163 44 46 94 101 110 124 33 45 40 98 15 118 -19 16 -52 -4 -92 -56 -53 -69 -95 -114 -108 -114 -31 0 -24 37 26 134 54 106 89 202 89 249 0 32 -26 77 -45 77 -34 0 -73 -76 -105 -200 -15 -63 -31 -100 -41 -100 -15 0 -10 60 11 160 30 140 24 200 -19 200 -37 0 -56 -64 -59 -197 -2 -68 -7 -123 -12 -123 -21 0 -30 75 -30 252 0 187 0 189 -25 213 -28 29 -57 32 -79 9z" transform="translate(6168,0.000000) scale(-1,1)" stroke="none" fill="#617376"/>
</g>
<g id="pattern3" transform="matrix(0.618,0,0,0.618,1746,6168)matrix(0.71,0.71,-0.71,0.71,0,0)">
<path d="M696 1514 c-28 -27 -21 -176 15 -315 13 -52 23 -230 15 -272 -4 -21 -11 -37 -16 -37 -12 0 -39 58 -80 175 -40 110 -60 135 -111 135 -74 0 -70 -49 14 -165 59 -82 93 -161 112 -259 16 -80 30 -114 91 -206 76 -115 70 -110 99 -75 14 17 52 66 85 110 32 44 95 117 140 163 44 46 94 101 110 124 33 45 40 98 15 118 -19 16 -52 -4 -92 -56 -53 -69 -95 -114 -108 -114 -31 0 -24 37 26 134 54 106 89 202 89 249 0 32 -26 77 -45 77 -34 0 -73 -76 -105 -200 -15 -63 -31 -100 -41 -100 -15 0 -10 60 11 160 30 140 24 200 -19 200 -37 0 -56 -64 -59 -197 -2 -68 -7 -123 -12 -123 -21 0 -30 75 -30 252 0 187 0 189 -25 213 -28 29 -57 32 -79 9z" transform="translate(990,-990) scale(1,1)" stroke="none" fill="#617376"/>
</g>
<g id="pattern4" transform="matrix(1.618,0,0,1.618,2588,2588)matrix(0.87,0.5,-0.5,0.87,0,0)">
<path d="M696 1514 c-28 -27 -21 -176 15 -315 13 -52 23 -230 15 -272 -4 -21 -11 -37 -16 -37 -12 0 -39 58 -80 175 -40 110 -60 135 -111 135 -74 0 -70 -49 14 -165 59 -82 93 -161 112 -259 16 -80 30 -114 91 -206 76 -115 70 -110 99 -75 14 17 52 66 85 110 32 44 95 117 140 163 44 46 94 101 110 124 33 45 40 98 15 118 -19 16 -52 -4 -92 -56 -53 -69 -95 -114 -108 -114 -31 0 -24 37 26 134 54 106 89 202 89 249 0 32 -26 77 -45 77 -34 0 -73 -76 -105 -200 -15 -63 -31 -100 -41 -100 -15 0 -10 60 11 160 30 140 24 200 -19 200 -37 0 -56 -64 -59 -197 -2 -68 -7 -123 -12 -123 -21 0 -30 75 -30 252 0 187 0 189 -25 213 -28 29 -57 32 -79 9z" transform="translate(990,-990) scale(1,1)" stroke="none" fill="#617376"/>
</g>
</g>
</g>

</g>
<g id="row3" transform="translate(0,6804.0)">
<g id="0" transform="translate(0.0,0)scale(0.25,0.25)">

<g id="pattern">
<rect width="9828" height="9828" fill="#324144"/>
<g id="pattern1" transform="matrix(1,0,0,1,612,612)">
<path d="M696 1514 c-28 -27 -21 -176 15 -315 13 -52 23 -230 15 -272 -4 -21 -11 -37 -16 -37 -12 0 -39 58 -80 175 -40 110 -60 135 -111 135 -74 0 -70 -49 14 -165 59 -82 93 -161 112 -259 16 -80 30 -114 91 -206 76 -115 70 -110 99 -75 14 17 52 66 85 110 32 44 95 117 140 163 44 46 94 101 110 124 33 45 40 98 15 118 -19 16 -52 -4 -92 -56 -53 -69 -95 -114 -108 -114 -31 0 -24 37 26 134 54 106 89 202 89 249 0 32 -26 77 -45 77 -34 0 -73 -76 -105 -200 -15 -63 -31 -100 -41 -100 -15 0 -10 60 11 160 30 140 24 200 -19 200 -37 0 -56 -64 -59 -197 -2 -68 -7 -123 -12 -123 -21 0 -30 75 -30 252 0 187 0 189 -25 213 -28 29 -57 32 -79 9z" transform="translate(0.000000,0.000000) scale(1,1)" stroke="none" fill="#617376"/>
</g>
<g id="pattern2" transform="matrix(0.618,0,0,0.618,4656,1368)">
<path d="M696 1514 c-28 -27 -21 -176 15 -315 13 -52 23 -230 15 -272 -4 -21 -11 -37 -16 -37 -12 0 -39 58 -80 175 -40 110 -60 135 -111 135 -74 0 -70 -49 14 -165 59 -82 93 -161 112 -259 16 -80 30 -114 91 -206 76 -115 70 -110 99 -75 14 17 52 66 85 110 32 44 95 117 140 163 44 46 94 101 110 124 33 45 40 98 15 118 -19 16 -52 -4 -92 -56 -53 -69 -95 -114 -108 -114 -31 0 -24 37 26 134 54 106 89 202 89 249 0 32 -26 77 -45 77 -34 0 -73 -76 -105 -200 -15 -63 -31 -100 -41 -100 -15 0 -10 60 11 160 30 140 24 200 -19 200 -37 0 -56 -64 -59 -197 -2 -68 -7 -123 -12 -123 -21 0 -30 75 -30 252 0 187 0 189 -25 213 -28 29 -57 32 -79 9z" transform="translate(6168,0.000000) scale(-1,1)" stroke="none" fill="#617376"/>
</g>
<g id="pattern3" transform="matrix(0.618,0,0,0.618,1746,6168)matrix(0.71,0.71,-0.71,0.71,0,0)">
<path d="M696 1514 c-28 -27 -21 -176 15 -315 13 -52 23 -230 15 -272 -4 -21 -11 -37 -16 -37 -12 0 -39 58 -80 175 -40 110 -60 135 -111 135 -74 0 -70 -49 14 -165 59 -82 93 -161 112 -259 16 -80 30 -114 91 -206 76 -115 70 -110 99 -75 14 17 52 66 85 110 32 44 95 117 140 163 44 46 94 101 110 124 33 45 40 98 15 118 -19 16 -52 -4 -92 -56 -53 -69 -95 -114 -108 -114 -31 0 -24 37 26 134 54 106 89 202 89 249 0 32 -26 77 -45 77 -34 0 -73 -76 -105 -200 -15 -63 -31 -100 -41 -100 -15 0 -10 60 11 160 30 140 24 200 -19 200 -37 0 -56 -64 -59 -197 -2 -68 -7 -123 -12 -123 -21 0 -30 75 -30 252 0 187 0 189 -25 213 -28 29 -57 32 -79 9z" transform="translate(990,-990) scale(1,1)" stroke="none" fill="#617376"/>
</g>
<g id="pattern4" transform="matrix(1.618,0,0,1.618,2588,2588)matrix(0.87,0.5,-0.5,0.87,0,0)">
<path d="M696 1514 c-28 -27 -21 -176 15 -315 13 -52 23 -230 15 -272 -4 -21 -11 -37 -16 -37 -12 0 -39 58 -80 175 -40 110 -60 135 -111 135 -74 0 -70 -49 14 -165 59 -82 93 -161 112 -259 16 -80 30 -114 91 -206 76 -115 70 -110 99 -75 14 17 52 66 85 110 32 44 95 117 140 163 44 46 94 101 110 124 33 45 40 98 15 118 -19 16 -52 -4 -92 -56 -53 -69 -95 -114 -108 -114 -31 0 -24 37 26 134 54 106 89 202 89 249 0 32 -26 77 -45 77 -34 0 -73 -76 -105 -200 -15 -63 -31 -100 -41 -100 -15 0 -10 60 11 160 30 140 24 200 -19 200 -37 0 -56 -64 -59 -197 -2 -68 -7 -123 -12 -123 -21 0 -30 75 -30 252 0 187 0 189 -25 213 -28 29 -57 32 -79 9z" transform="translate(990,-990) scale(1,1)" stroke="none" fill="#617376"/>
</g>
</g>
</g>

<g id="1" transform="translate(2268.0,0)scale(0.25,0.25)">

<g id="pattern">
<rect width="9828" height="9828" fill="#324144"/>
<g id="pattern1" transform="matrix(1,0,0,1,612,612)">
<path d="M696 1514 c-28 -27 -21 -176 15 -315 13 -52 23 -230 15 -272 -4 -21 -11 -37 -16 -37 -12 0 -39 58 -80 175 -40 110 -60 135 -111 135 -74 0 -70 -49 14 -165 59 -82 93 -161 112 -259 16 -80 30 -114 91 -206 76 -115 70 -110 99 -75 14 17 52 66 85 110 32 44 95 117 140 163 44 46 94 101 110 124 33 45 40 98 15 118 -19 16 -52 -4 -92 -56 -53 -69 -95 -114 -108 -114 -31 0 -24 37 26 134 54 106 89 202 89 249 0 32 -26 77 -45 77 -34 0 -73 -76 -105 -200 -15 -63 -31 -100 -41 -100 -15 0 -10 60 11 160 30 140 24 200 -19 200 -37 0 -56 -64 -59 -197 -2 -68 -7 -123 -12 -123 -21 0 -30 75 -30 252 0 187 0 189 -25 213 -28 29 -57 32 -79 9z" transform="translate(0.000000,0.000000) scale(1,1)" stroke="none" fill="#617376"/>
</g>
<g id="pattern2" transform="matrix(0.618,0,0,0.618,4656,1368)">
<path d="M696 1514 c-28 -27 -21 -176 15 -315 13 -52 23 -230 15 -272 -4 -21 -11 -37 -16 -37 -12 0 -39 58 -80 175 -40 110 -60 135 -111 135 -74 0 -70 -49 14 -165 59 -82 93 -161 112 -259 16 -80 30 -114 91 -206 76 -115 70 -110 99 -75 14 17 52 66 85 110 32 44 95 117 140 163 44 46 94 101 110 124 33 45 40 98 15 118 -19 16 -52 -4 -92 -56 -53 -69 -95 -114 -108 -114 -31 0 -24 37 26 134 54 106 89 202 89 249 0 32 -26 77 -45 77 -34 0 -73 -76 -105 -200 -15 -63 -31 -100 -41 -100 -15 0 -10 60 11 160 30 140 24 200 -19 200 -37 0 -56 -64 -59 -197 -2 -68 -7 -123 -12 -123 -21 0 -30 75 -30 252 0 187 0 189 -25 213 -28 29 -57 32 -79 9z" transform="translate(6168,0.000000) scale(-1,1)" stroke="none" fill="#617376"/>
</g>
<g id="pattern3" transform="matrix(0.618,0,0,0.618,1746,6168)matrix(0.71,0.71,-0.71,0.71,0,0)">
<path d="M696 1514 c-28 -27 -21 -176 15 -315 13 -52 23 -230 15 -272 -4 -21 -11 -37 -16 -37 -12 0 -39 58 -80 175 -40 110 -60 135 -111 135 -74 0 -70 -49 14 -165 59 -82 93 -161 112 -259 16 -80 30 -114 91 -206 76 -115 70 -110 99 -75 14 17 52 66 85 110 32 44 95 117 140 163 44 46 94 101 110 124 33 45 40 98 15 118 -19 16 -52 -4 -92 -56 -53 -69 -95 -114 -108 -114 -31 0 -24 37 26 134 54 106 89 202 89 249 0 32 -26 77 -45 77 -34 0 -73 -76 -105 -200 -15 -63 -31 -100 -41 -100 -15 0 -10 60 11 160 30 140 24 200 -19 200 -37 0 -56 -64 -59 -197 -2 -68 -7 -123 -12 -123 -21 0 -30 75 -30 252 0 187 0 189 -25 213 -28 29 -57 32 -79 9z" transform="translate(990,-990) scale(1,1)" stroke="none" fill="#617376"/>
</g>
<g id="pattern4" transform="matrix(1.618,0,0,1.618,2588,2588)matrix(0.87,0.5,-0.5,0.87,0,0)">
<path d="M696 1514 c-28 -27 -21 -176 15 -315 13 -52 23 -230 15 -272 -4 -21 -11 -37 -16 -37 -12 0 -39 58 -80 175 -40 110 -60 135 -111 135 -74 0 -70 -49 14 -165 59 -82 93 -161 112 -259 16 -80 30 -114 91 -206 76 -115 70 -110 99 -75 14 17 52 66 85 110 32 44 95 117 140 163 44 46 94 101 110 124 33 45 40 98 15 118 -19 16 -52 -4 -92 -56 -53 -69 -95 -114 -108 -114 -31 0 -24 37 26 134 54 106 89 202 89 249 0 32 -26 77 -45 77 -34 0 -73 -76 -105 -200 -15 -63 -31 -100 -41 -100 -15 0 -10 60 11 160 30 140 24 200 -19 200 -37 0 -56 -64 -59 -197 -2 -68 -7 -123 -12 -123 -21 0 -30 75 -30 252 0 187 0 189 -25 213 -28 29 -57 32 -79 9z" transform="translate(990,-990) scale(1,1)" stroke="none" fill="#617376"/>
</g>
</g>
</g>

<g id="2" transform="translate(4536.0,0)scale(0.25,0.25)">

<g id="pattern">
<rect width="9828" height="9828" fill="#324144"/>
<g id="pattern1" transform="matrix(1,0,0,1,612,612)">
<path d="M696 1514 c-28 -27 -21 -176 15 -315 13 -52 23 -230 15 -272 -4 -21 -11 -37 -16 -37 -12 0 -39 58 -80 175 -40 110 -60 135 -111 135 -74 0 -70 -49 14 -165 59 -82 93 -161 112 -259 16 -80 30 -114 91 -206 76 -115 70 -110 99 -75 14 17 52 66 85 110 32 44 95 117 140 163 44 46 94 101 110 124 33 45 40 98 15 118 -19 16 -52 -4 -92 -56 -53 -69 -95 -114 -108 -114 -31 0 -24 37 26 134 54 106 89 202 89 249 0 32 -26 77 -45 77 -34 0 -73 -76 -105 -200 -15 -63 -31 -100 -41 -100 -15 0 -10 60 11 160 30 140 24 200 -19 200 -37 0 -56 -64 -59 -197 -2 -68 -7 -123 -12 -123 -21 0 -30 75 -30 252 0 187 0 189 -25 213 -28 29 -57 32 -79 9z" transform="translate(0.000000,0.000000) scale(1,1)" stroke="none" fill="#617376"/>
</g>
<g id="pattern2" transform="matrix(0.618,0,0,0.618,4656,1368)">
<path d="M696 1514 c-28 -27 -21 -176 15 -315 13 -52 23 -230 15 -272 -4 -21 -11 -37 -16 -37 -12 0 -39 58 -80 175 -40 110 -60 135 -111 135 -74 0 -70 -49 14 -165 59 -82 93 -161 112 -259 16 -80 30 -114 91 -206 76 -115 70 -110 99 -75 14 17 52 66 85 110 32 44 95 117 140 163 44 46 94 101 110 124 33 45 40 98 15 118 -19 16 -52 -4 -92 -56 -53 -69 -95 -114 -108 -114 -31 0 -24 37 26 134 54 106 89 202 89 249 0 32 -26 77 -45 77 -34 0 -73 -76 -105 -200 -15 -63 -31 -100 -41 -100 -15 0 -10 60 11 160 30 140 24 200 -19 200 -37 0 -56 -64 -59 -197 -2 -68 -7 -123 -12 -123 -21 0 -30 75 -30 252 0 187 0 189 -25 213 -28 29 -57 32 -79 9z" transform="translate(6168,0.000000) scale(-1,1)" stroke="none" fill="#617376"/>
</g>
<g id="pattern3" transform="matrix(0.618,0,0,0.618,1746,6168)matrix(0.71,0.71,-0.71,0.71,0,0)">
<path d="M696 1514 c-28 -27 -21 -176 15 -315 13 -52 23 -230 15 -272 -4 -21 -11 -37 -16 -37 -12 0 -39 58 -80 175 -40 110 -60 135 -111 135 -74 0 -70 -49 14 -165 59 -82 93 -161 112 -259 16 -80 30 -114 91 -206 76 -115 70 -110 99 -75 14 17 52 66 85 110 32 44 95 117 140 163 44 46 94 101 110 124 33 45 40 98 15 118 -19 16 -52 -4 -92 -56 -53 -69 -95 -114 -108 -114 -31 0 -24 37 26 134 54 106 89 202 89 249 0 32 -26 77 -45 77 -34 0 -73 -76 -105 -200 -15 -63 -31 -100 -41 -100 -15 0 -10 60 11 160 30 140 24 200 -19 200 -37 0 -56 -64 -59 -197 -2 -68 -7 -123 -12 -123 -21 0 -30 75 -30 252 0 187 0 189 -25 213 -28 29 -57 32 -79 9z" transform="translate(990,-990) scale(1,1)" stroke="none" fill="#617376"/>
</g>
<g id="pattern4" transform="matrix(1.618,0,0,1.618,2588,2588)matrix(0.87,0.5,-0.5,0.87,0,0)">
<path d="M696 1514 c-28 -27 -21 -176 15 -315 13 -52 23 -230 15 -272 -4 -21 -11 -37 -16 -37 -12 0 -39 58 -80 175 -40 110 -60 135 -111 135 -74 0 -70 -49 14 -165 59 -82 93 -161 112 -259 16 -80 30 -114 91 -206 76 -115 70 -110 99 -75 14 17 52 66 85 110 32 44 95 117 140 163 44 46 94 101 110 124 33 45 40 98 15 118 -19 16 -52 -4 -92 -56 -53 -69 -95 -114 -108 -114 -31 0 -24 37 26 134 54 106 89 202 89 249 0 32 -26 77 -45 77 -34 0 -73 -76 -105 -200 -15 -63 -31 -100 -41 -100 -15 0 -10 60 11 160 30 140 24 200 -19 200 -37 0 -56 -64 -59 -197 -2 -68 -7 -123 -12 -123 -21 0 -30 75 -30 252 0 187 0 189 -25 213 -28 29 -57 32 -79 9z" transform="translate(990,-990) scale(1,1)" stroke="none" fill="#617376"/>
</g>
</g>
</g>

<g id="3" transform="translate(6804.0,0)scale(0.25,0.25)">

<g id="pattern">
<rect width="9828" height="9828" fill="#324144"/>
<g id="pattern1" transform="matrix(1,0,0,1,612,612)">
<path d="M696 1514 c-28 -27 -21 -176 15 -315 13 -52 23 -230 15 -272 -4 -21 -11 -37 -16 -37 -12 0 -39 58 -80 175 -40 110 -60 135 -111 135 -74 0 -70 -49 14 -165 59 -82 93 -161 112 -259 16 -80 30 -114 91 -206 76 -115 70 -110 99 -75 14 17 52 66 85 110 32 44 95 117 140 163 44 46 94 101 110 124 33 45 40 98 15 118 -19 16 -52 -4 -92 -56 -53 -69 -95 -114 -108 -114 -31 0 -24 37 26 134 54 106 89 202 89 249 0 32 -26 77 -45 77 -34 0 -73 -76 -105 -200 -15 -63 -31 -100 -41 -100 -15 0 -10 60 11 160 30 140 24 200 -19 200 -37 0 -56 -64 -59 -197 -2 -68 -7 -123 -12 -123 -21 0 -30 75 -30 252 0 187 0 189 -25 213 -28 29 -57 32 -79 9z" transform="translate(0.000000,0.000000) scale(1,1)" stroke="none" fill="#617376"/>
</g>
<g id="pattern2" transform="matrix(0.618,0,0,0.618,4656,1368)">
<path d="M696 1514 c-28 -27 -21 -176 15 -315 13 -52 23 -230 15 -272 -4 -21 -11 -37 -16 -37 -12 0 -39 58 -80 175 -40 110 -60 135 -111 135 -74 0 -70 -49 14 -165 59 -82 93 -161 112 -259 16 -80 30 -114 91 -206 76 -115 70 -110 99 -75 14 17 52 66 85 110 32 44 95 117 140 163 44 46 94 101 110 124 33 45 40 98 15 118 -19 16 -52 -4 -92 -56 -53 -69 -95 -114 -108 -114 -31 0 -24 37 26 134 54 106 89 202 89 249 0 32 -26 77 -45 77 -34 0 -73 -76 -105 -200 -15 -63 -31 -100 -41 -100 -15 0 -10 60 11 160 30 140 24 200 -19 200 -37 0 -56 -64 -59 -197 -2 -68 -7 -123 -12 -123 -21 0 -30 75 -30 252 0 187 0 189 -25 213 -28 29 -57 32 -79 9z" transform="translate(6168,0.000000) scale(-1,1)" stroke="none" fill="#617376"/>
</g>
<g id="pattern3" transform="matrix(0.618,0,0,0.618,1746,6168)matrix(0.71,0.71,-0.71,0.71,0,0)">
<path d="M696 1514 c-28 -27 -21 -176 15 -315 13 -52 23 -230 15 -272 -4 -21 -11 -37 -16 -37 -12 0 -39 58 -80 175 -40 110 -60 135 -111 135 -74 0 -70 -49 14 -165 59 -82 93 -161 112 -259 16 -80 30 -114 91 -206 76 -115 70 -110 99 -75 14 17 52 66 85 110 32 44 95 117 140 163 44 46 94 101 110 124 33 45 40 98 15 118 -19 16 -52 -4 -92 -56 -53 -69 -95 -114 -108 -114 -31 0 -24 37 26 134 54 106 89 202 89 249 0 32 -26 77 -45 77 -34 0 -73 -76 -105 -200 -15 -63 -31 -100 -41 -100 -15 0 -10 60 11 160 30 140 24 200 -19 200 -37 0 -56 -64 -59 -197 -2 -68 -7 -123 -12 -123 -21 0 -30 75 -30 252 0 187 0 189 -25 213 -28 29 -57 32 -79 9z" transform="translate(990,-990) scale(1,1)" stroke="none" fill="#617376"/>
</g>
<g id="pattern4" transform="matrix(1.618,0,0,1.618,2588,2588)matrix(0.87,0.5,-0.5,0.87,0,0)">
<path d="M696 1514 c-28 -27 -21 -176 15 -315 13 -52 23 -230 15 -272 -4 -21 -11 -37 -16 -37 -12 0 -39 58 -80 175 -40 110 -60 135 -111 135 -74 0 -70 -49 14 -165 59 -82 93 -161 112 -259 16 -80 30 -114 91 -206 76 -115 70 -110 99 -75 14 17 52 66 85 110 32 44 95 117 140 163 44 46 94 101 110 124 33 45 40 98 15 118 -19 16 -52 -4 -92 -56 -53 -69 -95 -114 -108 -114 -31 0 -24 37 26 134 54 106 89 202 89 249 0 32 -26 77 -45 77 -34 0 -73 -76 -105 -200 -15 -63 -31 -100 -41 -100 -15 0 -10 60 11 160 30 140 24 200 -19 200 -37 0 -56 -64 -59 -197 -2 -68 -7 -123 -12 -123 -21 0 -30 75 -30 252 0 187 0 189 -25 213 -28 29 -57 32 -79 9z" transform="translate(990,-990) scale(1,1)" stroke="none" fill="#617376"/>
</g>
</g>
</g>

<g id="4" transform="translate(9072.0,0)scale(0.25,0.25)">

<g id="pattern">
<rect width="9828" height="9828" fill="#324144"/>
<g id="pattern1" transform="matrix(1,0,0,1,612,612)">
<path d="M696 1514 c-28 -27 -21 -176 15 -315 13 -52 23 -230 15 -272 -4 -21 -11 -37 -16 -37 -12 0 -39 58 -80 175 -40 110 -60 135 -111 135 -74 0 -70 -49 14 -165 59 -82 93 -161 112 -259 16 -80 30 -114 91 -206 76 -115 70 -110 99 -75 14 17 52 66 85 110 32 44 95 117 140 163 44 46 94 101 110 124 33 45 40 98 15 118 -19 16 -52 -4 -92 -56 -53 -69 -95 -114 -108 -114 -31 0 -24 37 26 134 54 106 89 202 89 249 0 32 -26 77 -45 77 -34 0 -73 -76 -105 -200 -15 -63 -31 -100 -41 -100 -15 0 -10 60 11 160 30 140 24 200 -19 200 -37 0 -56 -64 -59 -197 -2 -68 -7 -123 -12 -123 -21 0 -30 75 -30 252 0 187 0 189 -25 213 -28 29 -57 32 -79 9z" transform="translate(0.000000,0.000000) scale(1,1)" stroke="none" fill="#617376"/>
</g>
<g id="pattern2" transform="matrix(0.618,0,0,0.618,4656,1368)">
<path d="M696 1514 c-28 -27 -21 -176 15 -315 13 -52 23 -230 15 -272 -4 -21 -11 -37 -16 -37 -12 0 -39 58 -80 175 -40 110 -60 135 -111 135 -74 0 -70 -49 14 -165 59 -82 93 -161 112 -259 16 -80 30 -114 91 -206 76 -115 70 -110 99 -75 14 17 52 66 85 110 32 44 95 117 140 163 44 46 94 101 110 124 33 45 40 98 15 118 -19 16 -52 -4 -92 -56 -53 -69 -95 -114 -108 -114 -31 0 -24 37 26 134 54 106 89 202 89 249 0 32 -26 77 -45 77 -34 0 -73 -76 -105 -200 -15 -63 -31 -100 -41 -100 -15 0 -10 60 11 160 30 140 24 200 -19 200 -37 0 -56 -64 -59 -197 -2 -68 -7 -123 -12 -123 -21 0 -30 75 -30 252 0 187 0 189 -25 213 -28 29 -57 32 -79 9z" transform="translate(6168,0.000000) scale(-1,1)" stroke="none" fill="#617376"/>
</g>
<g id="pattern3" transform="matrix(0.618,0,0,0.618,1746,6168)matrix(0.71,0.71,-0.71,0.71,0,0)">
<path d="M696 1514 c-28 -27 -21 -176 15 -315 13 -52 23 -230 15 -272 -4 -21 -11 -37 -16 -37 -12 0 -39 58 -80 175 -40 110 -60 135 -111 135 -74 0 -70 -49 14 -165 59 -82 93 -161 112 -259 16 -80 30 -114 91 -206 76 -115 70 -110 99 -75 14 17 52 66 85 110 32 44 95 117 140 163 44 46 94 101 110 124 33 45 40 98 15 118 -19 16 -52 -4 -92 -56 -53 -69 -95 -114 -108 -114 -31 0 -24 37 26 134 54 106 89 202 89 249 0 32 -26 77 -45 77 -34 0 -73 -76 -105 -200 -15 -63 -31 -100 -41 -100 -15 0 -10 60 11 160 30 140 24 200 -19 200 -37 0 -56 -64 -59 -197 -2 -68 -7 -123 -12 -123 -21 0 -30 75 -30 252 0 187 0 189 -25 213 -28 29 -57 32 -79 9z" transform="translate(990,-990) scale(1,1)" stroke="none" fill="#617376"/>
</g>
<g id="pattern4" transform="matrix(1.618,0,0,1.618,2588,2588)matrix(0.87,0.5,-0.5,0.87,0,0)">
<path d="M696 1514 c-28 -27 -21 -176 15 -315 13 -52 23 -230 15 -272 -4 -21 -11 -37 -16 -37 -12 0 -39 58 -80 175 -40 110 -60 135 -111 135 -74 0 -70 -49 14 -165 59 -82 93 -161 112 -259 16 -80 30 -114 91 -206 76 -115 70 -110 99 -75 14 17 52 66 85 110 32 44 95 117 140 163 44 46 94 101 110 124 33 45 40 98 15 118 -19 16 -52 -4 -92 -56 -53 -69 -95 -114 -108 -114 -31 0 -24 37 26 134 54 106 89 202 89 249 0 32 -26 77 -45 77 -34 0 -73 -76 -105 -200 -15 -63 -31 -100 -41 -100 -15 0 -10 60 11 160 30 140 24 200 -19 200 -37 0 -56 -64 -59 -197 -2 -68 -7 -123 -12 -123 -21 0 -30 75 -30 252 0 187 0 189 -25 213 -28 29 -57 32 -79 9z" transform="translate(990,-990) scale(1,1)" stroke="none" fill="#617376"/>
</g>
</g>
</g>

</g>
</svg>