<?xml version="1.0" standalone="no"?>
<!DOCTYPE svg PUBLIC "-//W3C//DTD SVG 20010904//EN"
 "http://www.w3.org/TR/2001/REC-SVG-20010904/DTD/svg10.dtd">
<svg version="1.0" xmlns="http://www.w3.org/2000/svg" width="384pt" height="304pt" viewBox="0 0 384 304" preserveAspectRatio = "xMidYMid meet" >
<metadata>
Created by ZoeQu, written in 2022
</metadata>
<rect width="384" height="304" fill="#D9D6A4"/>
<g id="row0" transform="translate(12,0.0)">
<g id="0" transform="translate(0.0,0)scale(1,1)">

<path d="M345 109 c40 -9 156 -9 177 -1 9 4 -33 7 -95 7 -62 0 -98 -3 -82 -6z" transform="translate(0,76) scale(0.1,-0.1)" stroke="none" fill="#936C3F"/>

<path d="M925 455 c0 -78 2 -106 7 -80 8 48 8 129 -1 170 -3 17 -6 -24 -6 -90z" transform="translate(0,76) scale(0.1,-0.1)" stroke="none" fill="#936C3F"/>

<path d="M836 175 c-9 -14 -44 -46 -78 -70 -33 -25 -56 -45 -51 -45 14 0 124 92 141 118 8 12 12 22 9 22 -2 0 -12 -11 -21 -25z" transform="translate(0,76) scale(0.1,-0.1)" stroke="none" fill="#936C3F"/>

<path d="M814 695 c-3 -8 -4 -20 -1 -27 3 -7 6 -3 6 10 2 42 27 22 74 -58 15 -25 27 -41 27 -36 0 12 -39 77 -63 104 -24 26 -35 28 -43 7z" transform="translate(0,76) scale(0.1,-0.1)" stroke="none" fill="#936C3F"/>

<path d="M710 224 c-25 -25 -71 -57 -102 -72 -67 -30 -72 -42 -7 -14 45 20 124 80 147 113 20 29 11 23 -38 -27z" transform="translate(0,76) scale(0.1,-0.1)" stroke="none" fill="#936C3F"/>

<path d="M660 493 c-63 -64 -90 -96 -59 -69 48 40 186 186 177 186 -2 0 -55 -53 -118 -117z" transform="translate(0,76) scale(0.1,-0.1)" stroke="none" fill="#936C3F"/>

<path d="M344 45 c48 -19 220 -30 261 -17 23 8 13 9 -40 5 -62 -5 -159 5 -235 22 -14 3 -7 -1 14 -10z" transform="translate(0,76) scale(0.1,-0.1)" stroke="none" fill="#936C3F"/>

<path d="M730 401 c-95 -98 -191 -174 -247 -197 -20 -9 -69 -22 -108 -30 l-70 -13 60 5 c111 11 170 43 322 180 58 52 145 147 131 143 -1 0 -41 -40 -88 -88z" transform="translate(0,76) scale(0.1,-0.1)" stroke="none" fill="#936C3F"/>

<path d="M414 306 c-68 -30 -183 -48 -276 -45 -81 4 -93 2 -96 -13 -6 -31 145 -174 164 -155 3 2 -9 10 -25 17 -36 15 -131 112 -131 135 0 14 11 15 89 9 67 -5 107 -2 166 11 70 15 175 53 150 54 -5 0 -24 -6 -41 -13z" transform="translate(0,76) scale(0.1,-0.1)" stroke="none" fill="#936C3F"/>

<path d="M826 673 c5 -19 -39 -73 -156 -192 -74 -76 -184 -171 -197 -171 -5 0 -27 -8 -49 -19 -72 -35 -189 -54 -281 -47 -54 4 -83 3 -83 -4 0 -19 84 -101 124 -122 127 -65 329 -94 446 -64 166 43 272 177 287 366 7 95 -8 165 -47 224 -32 47 -52 60 -44 29z m24 -192 c0 -126 -110 -285 -238 -347 -87 -41 -148 -50 -249 -35 -157 22 -283 92 -141 77 73 -7 221 15 271 41 79 40 244 185 303 264 20 27 40 47 45 43 5 -3 9 -22 9 -43z" transform="translate(0,76) scale(0.1,-0.1)" stroke="none" fill="#F3A181"/>

</g>

<g id="1" transform="translate(96.0,0)scale(1,1)">

<path d="M345 109 c40 -9 156 -9 177 -1 9 4 -33 7 -95 7 -62 0 -98 -3 -82 -6z" transform="translate(0,76) scale(0.1,-0.1)" stroke="none" fill="#936C3F"/>

<path d="M925 455 c0 -78 2 -106 7 -80 8 48 8 129 -1 170 -3 17 -6 -24 -6 -90z" transform="translate(0,76) scale(0.1,-0.1)" stroke="none" fill="#936C3F"/>

<path d="M836 175 c-9 -14 -44 -46 -78 -70 -33 -25 -56 -45 -51 -45 14 0 124 92 141 118 8 12 12 22 9 22 -2 0 -12 -11 -21 -25z" transform="translate(0,76) scale(0.1,-0.1)" stroke="none" fill="#936C3F"/>

<path d="M814 695 c-3 -8 -4 -20 -1 -27 3 -7 6 -3 6 10 2 42 27 22 74 -58 15 -25 27 -41 27 -36 0 12 -39 77 -63 104 -24 26 -35 28 -43 7z" transform="translate(0,76) scale(0.1,-0.1)" stroke="none" fill="#936C3F"/>

<path d="M710 224 c-25 -25 -71 -57 -102 -72 -67 -30 -72 -42 -7 -14 45 20 124 80 147 113 20 29 11 23 -38 -27z" transform="translate(0,76) scale(0.1,-0.1)" stroke="none" fill="#936C3F"/>

<path d="M660 493 c-63 -64 -90 -96 -59 -69 48 40 186 186 177 186 -2 0 -55 -53 -118 -117z" transform="translate(0,76) scale(0.1,-0.1)" stroke="none" fill="#936C3F"/>

<path d="M344 45 c48 -19 220 -30 261 -17 23 8 13 9 -40 5 -62 -5 -159 5 -235 22 -14 3 -7 -1 14 -10z" transform="translate(0,76) scale(0.1,-0.1)" stroke="none" fill="#936C3F"/>

<path d="M730 401 c-95 -98 -191 -174 -247 -197 -20 -9 -69 -22 -108 -30 l-70 -13 60 5 c111 11 170 43 322 180 58 52 145 147 131 143 -1 0 -41 -40 -88 -88z" transform="translate(0,76) scale(0.1,-0.1)" stroke="none" fill="#936C3F"/>

<path d="M414 306 c-68 -30 -183 -48 -276 -45 -81 4 -93 2 -96 -13 -6 -31 145 -174 164 -155 3 2 -9 10 -25 17 -36 15 -131 112 -131 135 0 14 11 15 89 9 67 -5 107 -2 166 11 70 15 175 53 150 54 -5 0 -24 -6 -41 -13z" transform="translate(0,76) scale(0.1,-0.1)" stroke="none" fill="#936C3F"/>

<path d="M826 673 c5 -19 -39 -73 -156 -192 -74 -76 -184 -171 -197 -171 -5 0 -27 -8 -49 -19 -72 -35 -189 -54 -281 -47 -54 4 -83 3 -83 -4 0 -19 84 -101 124 -122 127 -65 329 -94 446 -64 166 43 272 177 287 366 7 95 -8 165 -47 224 -32 47 -52 60 -44 29z m24 -192 c0 -126 -110 -285 -238 -347 -87 -41 -148 -50 -249 -35 -157 22 -283 92 -141 77 73 -7 221 15 271 41 79 40 244 185 303 264 20 27 40 47 45 43 5 -3 9 -22 9 -43z" transform="translate(0,76) scale(0.1,-0.1)" stroke="none" fill="#F3A181"/>

</g>

<g id="2" transform="translate(192.0,0)scale(1,1)">

<path d="M345 109 c40 -9 156 -9 177 -1 9 4 -33 7 -95 7 -62 0 -98 -3 -82 -6z" transform="translate(0,76) scale(0.1,-0.1)" stroke="none" fill="#936C3F"/>

<path d="M925 455 c0 -78 2 -106 7 -80 8 48 8 129 -1 170 -3 17 -6 -24 -6 -90z" transform="translate(0,76) scale(0.1,-0.1)" stroke="none" fill="#936C3F"/>

<path d="M836 175 c-9 -14 -44 -46 -78 -70 -33 -25 -56 -45 -51 -45 14 0 124 92 141 118 8 12 12 22 9 22 -2 0 -12 -11 -21 -25z" transform="translate(0,76) scale(0.1,-0.1)" stroke="none" fill="#936C3F"/>

<path d="M814 695 c-3 -8 -4 -20 -1 -27 3 -7 6 -3 6 10 2 42 27 22 74 -58 15 -25 27 -41 27 -36 0 12 -39 77 -63 104 -24 26 -35 28 -43 7z" transform="translate(0,76) scale(0.1,-0.1)" stroke="none" fill="#936C3F"/>

<path d="M710 224 c-25 -25 -71 -57 -102 -72 -67 -30 -72 -42 -7 -14 45 20 124 80 147 113 20 29 11 23 -38 -27z" transform="translate(0,76) scale(0.1,-0.1)" stroke="none" fill="#936C3F"/>

<path d="M660 493 c-63 -64 -90 -96 -59 -69 48 40 186 186 177 186 -2 0 -55 -53 -118 -117z" transform="translate(0,76) scale(0.1,-0.1)" stroke="none" fill="#936C3F"/>

<path d="M344 45 c48 -19 220 -30 261 -17 23 8 13 9 -40 5 -62 -5 -159 5 -235 22 -14 3 -7 -1 14 -10z" transform="translate(0,76) scale(0.1,-0.1)" stroke="none" fill="#936C3F"/>

<path d="M730 401 c-95 -98 -191 -174 -247 -197 -20 -9 -69 -22 -108 -30 l-70 -13 60 5 c111 11 170 43 322 180 58 52 145 147 131 143 -1 0 -41 -40 -88 -88z" transform="translate(0,76) scale(0.1,-0.1)" stroke="none" fill="#936C3F"/>

<path d="M414 306 c-68 -30 -183 -48 -276 -45 -81 4 -93 2 -96 -13 -6 -31 145 -174 164 -155 3 2 -9 10 -25 17 -36 15 -131 112 -131 135 0 14 11 15 89 9 67 -5 107 -2 166 11 70 15 175 53 150 54 -5 0 -24 -6 -41 -13z" transform="translate(0,76) scale(0.1,-0.1)" stroke="none" fill="#936C3F"/>

<path d="M826 673 c5 -19 -39 -73 -156 -192 -74 -76 -184 -171 -197 -171 -5 0 -27 -8 -49 -19 -72 -35 -189 -54 -281 -47 -54 4 -83 3 -83 -4 0 -19 84 -101 124 -122 127 -65 329 -94 446 -64 166 43 272 177 287 366 7 95 -8 165 -47 224 -32 47 -52 60 -44 29z m24 -192 c0 -126 -110 -285 -238 -347 -87 -41 -148 -50 -249 -35 -157 22 -283 92 -141 77 73 -7 221 15 271 41 79 40 244 185 303 264 20 27 40 47 45 43 5 -3 9 -22 9 -43z" transform="translate(0,76) scale(0.1,-0.1)" stroke="none" fill="#F3A181"/>

</g>

<g id="3" transform="translate(288.0,0)scale(1,1)">

<path d="M345 109 c40 -9 156 -9 177 -1 9 4 -33 7 -95 7 -62 0 -98 -3 -82 -6z" transform="translate(0,76) scale(0.1,-0.1)" stroke="none" fill="#936C3F"/>

<path d="M925 455 c0 -78 2 -106 7 -80 8 48 8 129 -1 170 -3 17 -6 -24 -6 -90z" transform="translate(0,76) scale(0.1,-0.1)" stroke="none" fill="#936C3F"/>

<path d="M836 175 c-9 -14 -44 -46 -78 -70 -33 -25 -56 -45 -51 -45 14 0 124 92 141 118 8 12 12 22 9 22 -2 0 -12 -11 -21 -25z" transform="translate(0,76) scale(0.1,-0.1)" stroke="none" fill="#936C3F"/>

<path d="M814 695 c-3 -8 -4 -20 -1 -27 3 -7 6 -3 6 10 2 42 27 22 74 -58 15 -25 27 -41 27 -36 0 12 -39 77 -63 104 -24 26 -35 28 -43 7z" transform="translate(0,76) scale(0.1,-0.1)" stroke="none" fill="#936C3F"/>

<path d="M710 224 c-25 -25 -71 -57 -102 -72 -67 -30 -72 -42 -7 -14 45 20 124 80 147 113 20 29 11 23 -38 -27z" transform="translate(0,76) scale(0.1,-0.1)" stroke="none" fill="#936C3F"/>

<path d="M660 493 c-63 -64 -90 -96 -59 -69 48 40 186 186 177 186 -2 0 -55 -53 -118 -117z" transform="translate(0,76) scale(0.1,-0.1)" stroke="none" fill="#936C3F"/>

<path d="M344 45 c48 -19 220 -30 261 -17 23 8 13 9 -40 5 -62 -5 -159 5 -235 22 -14 3 -7 -1 14 -10z" transform="translate(0,76) scale(0.1,-0.1)" stroke="none" fill="#936C3F"/>

<path d="M730 401 c-95 -98 -191 -174 -247 -197 -20 -9 -69 -22 -108 -30 l-70 -13 60 5 c111 11 170 43 322 180 58 52 145 147 131 143 -1 0 -41 -40 -88 -88z" transform="translate(0,76) scale(0.1,-0.1)" stroke="none" fill="#936C3F"/>

<path d="M414 306 c-68 -30 -183 -48 -276 -45 -81 4 -93 2 -96 -13 -6 -31 145 -174 164 -155 3 2 -9 10 -25 17 -36 15 -131 112 -131 135 0 14 11 15 89 9 67 -5 107 -2 166 11 70 15 175 53 150 54 -5 0 -24 -6 -41 -13z" transform="translate(0,76) scale(0.1,-0.1)" stroke="none" fill="#936C3F"/>

<path d="M826 673 c5 -19 -39 -73 -156 -192 -74 -76 -184 -171 -197 -171 -5 0 -27 -8 -49 -19 -72 -35 -189 -54 -281 -47 -54 4 -83 3 -83 -4 0 -19 84 -101 124 -122 127 -65 329 -94 446 -64 166 43 272 177 287 366 7 95 -8 165 -47 224 -32 47 -52 60 -44 29z m24 -192 c0 -126 -110 -285 -238 -347 -87 -41 -148 -50 -249 -35 -157 22 -283 92 -141 77 73 -7 221 15 271 41 79 40 244 185 303 264 20 27 40 47 45 43 5 -3 9 -22 9 -43z" transform="translate(0,76) scale(0.1,-0.1)" stroke="none" fill="#F3A181"/>

</g>

<g id="4" transform="translate(384.0,0)scale(1,1)">

<path d="M345 109 c40 -9 156 -9 177 -1 9 4 -33 7 -95 7 -62 0 -98 -3 -82 -6z" transform="translate(0,76) scale(0.1,-0.1)" stroke="none" fill="#936C3F"/>

<path d="M925 455 c0 -78 2 -106 7 -80 8 48 8 129 -1 170 -3 17 -6 -24 -6 -90z" transform="translate(0,76) scale(0.1,-0.1)" stroke="none" fill="#936C3F"/>

<path d="M836 175 c-9 -14 -44 -46 -78 -70 -33 -25 -56 -45 -51 -45 14 0 124 92 141 118 8 12 12 22 9 22 -2 0 -12 -11 -21 -25z" transform="translate(0,76) scale(0.1,-0.1)" stroke="none" fill="#936C3F"/>

<path d="M814 695 c-3 -8 -4 -20 -1 -27 3 -7 6 -3 6 10 2 42 27 22 74 -58 15 -25 27 -41 27 -36 0 12 -39 77 -63 104 -24 26 -35 28 -43 7z" transform="translate(0,76) scale(0.1,-0.1)" stroke="none" fill="#936C3F"/>

<path d="M710 224 c-25 -25 -71 -57 -102 -72 -67 -30 -72 -42 -7 -14 45 20 124 80 147 113 20 29 11 23 -38 -27z" transform="translate(0,76) scale(0.1,-0.1)" stroke="none" fill="#936C3F"/>

<path d="M660 493 c-63 -64 -90 -96 -59 -69 48 40 186 186 177 186 -2 0 -55 -53 -118 -117z" transform="translate(0,76) scale(0.1,-0.1)" stroke="none" fill="#936C3F"/>

<path d="M344 45 c48 -19 220 -30 261 -17 23 8 13 9 -40 5 -62 -5 -159 5 -235 22 -14 3 -7 -1 14 -10z" transform="translate(0,76) scale(0.1,-0.1)" stroke="none" fill="#936C3F"/>

<path d="M730 401 c-95 -98 -191 -174 -247 -197 -20 -9 -69 -22 -108 -30 l-70 -13 60 5 c111 11 170 43 322 180 58 52 145 147 131 143 -1 0 -41 -40 -88 -88z" transform="translate(0,76) scale(0.1,-0.1)" stroke="none" fill="#936C3F"/>

<path d="M414 306 c-68 -30 -183 -48 -276 -45 -81 4 -93 2 -96 -13 -6 -31 145 -174 164 -155 3 2 -9 10 -25 17 -36 15 -131 112 -131 135 0 14 11 15 89 9 67 -5 107 -2 166 11 70 15 175 53 150 54 -5 0 -24 -6 -41 -13z" transform="translate(0,76) scale(0.1,-0.1)" stroke="none" fill="#936C3F"/>

<path d="M826 673 c5 -19 -39 -73 -156 -192 -74 -76 -184 -171 -197 -171 -5 0 -27 -8 -49 -19 -72 -35 -189 -54 -281 -47 -54 4 -83 3 -83 -4 0 -19 84 -101 124 -122 127 -65 329 -94 446 -64 166 43 272 177 287 366 7 95 -8 165 -47 224 -32 47 -52 60 -44 29z m24 -192 c0 -126 -110 -285 -238 -347 -87 -41 -148 -50 -249 -35 -157 22 -283 92 -141 77 73 -7 221 15 271 41 79 40 244 185 303 264 20 27 40 47 45 43 5 -3 9 -22 9 -43z" transform="translate(0,76) scale(0.1,-0.1)" stroke="none" fill="#F3A181"/>

</g>

</g>
<g id="row1" transform="translate(12,76.0)">
<g id="0" transform="translate(0.0,0)scale(1,1)">

<path d="M345 109 c40 -9 156 -9 177 -1 9 4 -33 7 -95 7 -62 0 -98 -3 -82 -6z" transform="translate(0,76) scale(0.1,-0.1)" stroke="none" fill="#936C3F"/>

<path d="M925 455 c0 -78 2 -106 7 -80 8 48 8 129 -1 170 -3 17 -6 -24 -6 -90z" transform="translate(0,76) scale(0.1,-0.1)" stroke="none" fill="#936C3F"/>

<path d="M836 175 c-9 -14 -44 -46 -78 -70 -33 -25 -56 -45 -51 -45 14 0 124 92 141 118 8 12 12 22 9 22 -2 0 -12 -11 -21 -25z" transform="translate(0,76) scale(0.1,-0.1)" stroke="none" fill="#936C3F"/>

<path d="M814 695 c-3 -8 -4 -20 -1 -27 3 -7 6 -3 6 10 2 42 27 22 74 -58 15 -25 27 -41 27 -36 0 12 -39 77 -63 104 -24 26 -35 28 -43 7z" transform="translate(0,76) scale(0.1,-0.1)" stroke="none" fill="#936C3F"/>

<path d="M710 224 c-25 -25 -71 -57 -102 -72 -67 -30 -72 -42 -7 -14 45 20 124 80 147 113 20 29 11 23 -38 -27z" transform="translate(0,76) scale(0.1,-0.1)" stroke="none" fill="#936C3F"/>

<path d="M660 493 c-63 -64 -90 -96 -59 -69 48 40 186 186 177 186 -2 0 -55 -53 -118 -117z" transform="translate(0,76) scale(0.1,-0.1)" stroke="none" fill="#936C3F"/>

<path d="M344 45 c48 -19 220 -30 261 -17 23 8 13 9 -40 5 -62 -5 -159 5 -235 22 -14 3 -7 -1 14 -10z" transform="translate(0,76) scale(0.1,-0.1)" stroke="none" fill="#936C3F"/>

<path d="M730 401 c-95 -98 -191 -174 -247 -197 -20 -9 -69 -22 -108 -30 l-70 -13 60 5 c111 11 170 43 322 180 58 52 145 147 131 143 -1 0 -41 -40 -88 -88z" transform="translate(0,76) scale(0.1,-0.1)" stroke="none" fill="#936C3F"/>

<path d="M414 306 c-68 -30 -183 -48 -276 -45 -81 4 -93 2 -96 -13 -6 -31 145 -174 164 -155 3 2 -9 10 -25 17 -36 15 -131 112 -131 135 0 14 11 15 89 9 67 -5 107 -2 166 11 70 15 175 53 150 54 -5 0 -24 -6 -41 -13z" transform="translate(0,76) scale(0.1,-0.1)" stroke="none" fill="#936C3F"/>

<path d="M826 673 c5 -19 -39 -73 -156 -192 -74 -76 -184 -171 -197 -171 -5 0 -27 -8 -49 -19 -72 -35 -189 -54 -281 -47 -54 4 -83 3 -83 -4 0 -19 84 -101 124 -122 127 -65 329 -94 446 -64 166 43 272 177 287 366 7 95 -8 165 -47 224 -32 47 -52 60 -44 29z m24 -192 c0 -126 -110 -285 -238 -347 -87 -41 -148 -50 -249 -35 -157 22 -283 92 -141 77 73 -7 221 15 271 41 79 40 244 185 303 264 20 27 40 47 45 43 5 -3 9 -22 9 -43z" transform="translate(0,76) scale(0.1,-0.1)" stroke="none" fill="#F3A181"/>

</g>

<g id="1" transform="translate(96.0,0)scale(1,1)">

<path d="M345 109 c40 -9 156 -9 177 -1 9 4 -33 7 -95 7 -62 0 -98 -3 -82 -6z" transform="translate(0,76) scale(0.1,-0.1)" stroke="none" fill="#936C3F"/>

<path d="M925 455 c0 -78 2 -106 7 -80 8 48 8 129 -1 170 -3 17 -6 -24 -6 -90z" transform="translate(0,76) scale(0.1,-0.1)" stroke="none" fill="#936C3F"/>

<path d="M836 175 c-9 -14 -44 -46 -78 -70 -33 -25 -56 -45 -51 -45 14 0 124 92 141 118 8 12 12 22 9 22 -2 0 -12 -11 -21 -25z" transform="translate(0,76) scale(0.1,-0.1)" stroke="none" fill="#936C3F"/>

<path d="M814 695 c-3 -8 -4 -20 -1 -27 3 -7 6 -3 6 10 2 42 27 22 74 -58 15 -25 27 -41 27 -36 0 12 -39 77 -63 104 -24 26 -35 28 -43 7z" transform="translate(0,76) scale(0.1,-0.1)" stroke="none" fill="#936C3F"/>

<path d="M710 224 c-25 -25 -71 -57 -102 -72 -67 -30 -72 -42 -7 -14 45 20 124 80 147 113 20 29 11 23 -38 -27z" transform="translate(0,76) scale(0.1,-0.1)" stroke="none" fill="#936C3F"/>

<path d="M660 493 c-63 -64 -90 -96 -59 -69 48 40 186 186 177 186 -2 0 -55 -53 -118 -117z" transform="translate(0,76) scale(0.1,-0.1)" stroke="none" fill="#936C3F"/>

<path d="M344 45 c48 -19 220 -30 261 -17 23 8 13 9 -40 5 -62 -5 -159 5 -235 22 -14 3 -7 -1 14 -10z" transform="translate(0,76) scale(0.1,-0.1)" stroke="none" fill="#936C3F"/>

<path d="M730 401 c-95 -98 -191 -174 -247 -197 -20 -9 -69 -22 -108 -30 l-70 -13 60 5 c111 11 170 43 322 180 58 52 145 147 131 143 -1 0 -41 -40 -88 -88z" transform="translate(0,76) scale(0.1,-0.1)" stroke="none" fill="#936C3F"/>

<path d="M414 306 c-68 -30 -183 -48 -276 -45 -81 4 -93 2 -96 -13 -6 -31 145 -174 164 -155 3 2 -9 10 -25 17 -36 15 -131 112 -131 135 0 14 11 15 89 9 67 -5 107 -2 166 11 70 15 175 53 150 54 -5 0 -24 -6 -41 -13z" transform="translate(0,76) scale(0.1,-0.1)" stroke="none" fill="#936C3F"/>

<path d="M826 673 c5 -19 -39 -73 -156 -192 -74 -76 -184 -171 -197 -171 -5 0 -27 -8 -49 -19 -72 -35 -189 -54 -281 -47 -54 4 -83 3 -83 -4 0 -19 84 -101 124 -122 127 -65 329 -94 446 -64 166 43 272 177 287 366 7 95 -8 165 -47 224 -32 47 -52 60 -44 29z m24 -192 c0 -126 -110 -285 -238 -347 -87 -41 -148 -50 -249 -35 -157 22 -283 92 -141 77 73 -7 221 15 271 41 79 40 244 185 303 264 20 27 40 47 45 43 5 -3 9 -22 9 -43z" transform="translate(0,76) scale(0.1,-0.1)" stroke="none" fill="#F3A181"/>

</g>

<g id="2" transform="translate(192.0,0)scale(1,1)">

<path d="M345 109 c40 -9 156 -9 177 -1 9 4 -33 7 -95 7 -62 0 -98 -3 -82 -6z" transform="translate(0,76) scale(0.1,-0.1)" stroke="none" fill="#936C3F"/>

<path d="M925 455 c0 -78 2 -106 7 -80 8 48 8 129 -1 170 -3 17 -6 -24 -6 -90z" transform="translate(0,76) scale(0.1,-0.1)" stroke="none" fill="#936C3F"/>

<path d="M836 175 c-9 -14 -44 -46 -78 -70 -33 -25 -56 -45 -51 -45 14 0 124 92 141 118 8 12 12 22 9 22 -2 0 -12 -11 -21 -25z" transform="translate(0,76) scale(0.1,-0.1)" stroke="none" fill="#936C3F"/>

<path d="M814 695 c-3 -8 -4 -20 -1 -27 3 -7 6 -3 6 10 2 42 27 22 74 -58 15 -25 27 -41 27 -36 0 12 -39 77 -63 104 -24 26 -35 28 -43 7z" transform="translate(0,76) scale(0.1,-0.1)" stroke="none" fill="#936C3F"/>

<path d="M710 224 c-25 -25 -71 -57 -102 -72 -67 -30 -72 -42 -7 -14 45 20 124 80 147 113 20 29 11 23 -38 -27z" transform="translate(0,76) scale(0.1,-0.1)" stroke="none" fill="#936C3F"/>

<path d="M660 493 c-63 -64 -90 -96 -59 -69 48 40 186 186 177 186 -2 0 -55 -53 -118 -117z" transform="translate(0,76) scale(0.1,-0.1)" stroke="none" fill="#936C3F"/>

<path d="M344 45 c48 -19 220 -30 261 -17 23 8 13 9 -40 5 -62 -5 -159 5 -235 22 -14 3 -7 -1 14 -10z" transform="translate(0,76) scale(0.1,-0.1)" stroke="none" fill="#936C3F"/>

<path d="M730 401 c-95 -98 -191 -174 -247 -197 -20 -9 -69 -22 -108 -30 l-70 -13 60 5 c111 11 170 43 322 180 58 52 145 147 131 143 -1 0 -41 -40 -88 -88z" transform="translate(0,76) scale(0.1,-0.1)" stroke="none" fill="#936C3F"/>

<path d="M414 306 c-68 -30 -183 -48 -276 -45 -81 4 -93 2 -96 -13 -6 -31 145 -174 164 -155 3 2 -9 10 -25 17 -36 15 -131 112 -131 135 0 14 11 15 89 9 67 -5 107 -2 166 11 70 15 175 53 150 54 -5 0 -24 -6 -41 -13z" transform="translate(0,76) scale(0.1,-0.1)" stroke="none" fill="#936C3F"/>

<path d="M826 673 c5 -19 -39 -73 -156 -192 -74 -76 -184 -171 -197 -171 -5 0 -27 -8 -49 -19 -72 -35 -189 -54 -281 -47 -54 4 -83 3 -83 -4 0 -19 84 -101 124 -122 127 -65 329 -94 446 -64 166 43 272 177 287 366 7 95 -8 165 -47 224 -32 47 -52 60 -44 29z m24 -192 c0 -126 -110 -285 -238 -347 -87 -41 -148 -50 -249 -35 -157 22 -283 92 -141 77 73 -7 221 15 271 41 79 40 244 185 303 264 20 27 40 47 45 43 5 -3 9 -22 9 -43z" transform="translate(0,76) scale(0.1,-0.1)" stroke="none" fill="#F3A181"/>

</g>

<g id="3" transform="translate(288.0,0)scale(1,1)">

<path d="M345 109 c40 -9 156 -9 177 -1 9 4 -33 7 -95 7 -62 0 -98 -3 -82 -6z" transform="translate(0,76) scale(0.1,-0.1)" stroke="none" fill="#936C3F"/>

<path d="M925 455 c0 -78 2 -106 7 -80 8 48 8 129 -1 170 -3 17 -6 -24 -6 -90z" transform="translate(0,76) scale(0.1,-0.1)" stroke="none" fill="#936C3F"/>

<path d="M836 175 c-9 -14 -44 -46 -78 -70 -33 -25 -56 -45 -51 -45 14 0 124 92 141 118 8 12 12 22 9 22 -2 0 -12 -11 -21 -25z" transform="translate(0,76) scale(0.1,-0.1)" stroke="none" fill="#936C3F"/>

<path d="M814 695 c-3 -8 -4 -20 -1 -27 3 -7 6 -3 6 10 2 42 27 22 74 -58 15 -25 27 -41 27 -36 0 12 -39 77 -63 104 -24 26 -35 28 -43 7z" transform="translate(0,76) scale(0.1,-0.1)" stroke="none" fill="#936C3F"/>

<path d="M710 224 c-25 -25 -71 -57 -102 -72 -67 -30 -72 -42 -7 -14 45 20 124 80 147 113 20 29 11 23 -38 -27z" transform="translate(0,76) scale(0.1,-0.1)" stroke="none" fill="#936C3F"/>

<path d="M660 493 c-63 -64 -90 -96 -59 -69 48 40 186 186 177 186 -2 0 -55 -53 -118 -117z" transform="translate(0,76) scale(0.1,-0.1)" stroke="none" fill="#936C3F"/>

<path d="M344 45 c48 -19 220 -30 261 -17 23 8 13 9 -40 5 -62 -5 -159 5 -235 22 -14 3 -7 -1 14 -10z" transform="translate(0,76) scale(0.1,-0.1)" stroke="none" fill="#936C3F"/>

<path d="M730 401 c-95 -98 -191 -174 -247 -197 -20 -9 -69 -22 -108 -30 l-70 -13 60 5 c111 11 170 43 322 180 58 52 145 147 131 143 -1 0 -41 -40 -88 -88z" transform="translate(0,76) scale(0.1,-0.1)" stroke="none" fill="#936C3F"/>

<path d="M414 306 c-68 -30 -183 -48 -276 -45 -81 4 -93 2 -96 -13 -6 -31 145 -174 164 -155 3 2 -9 10 -25 17 -36 15 -131 112 -131 135 0 14 11 15 89 9 67 -5 107 -2 166 11 70 15 175 53 150 54 -5 0 -24 -6 -41 -13z" transform="translate(0,76) scale(0.1,-0.1)" stroke="none" fill="#936C3F"/>

<path d="M826 673 c5 -19 -39 -73 -156 -192 -74 -76 -184 -171 -197 -171 -5 0 -27 -8 -49 -19 -72 -35 -189 -54 -281 -47 -54 4 -83 3 -83 -4 0 -19 84 -101 124 -122 127 -65 329 -94 446 -64 166 43 272 177 287 366 7 95 -8 165 -47 224 -32 47 -52 60 -44 29z m24 -192 c0 -126 -110 -285 -238 -347 -87 -41 -148 -50 -249 -35 -157 22 -283 92 -141 77 73 -7 221 15 271 41 79 40 244 185 303 264 20 27 40 47 45 43 5 -3 9 -22 9 -43z" transform="translate(0,76) scale(0.1,-0.1)" stroke="none" fill="#F3A181"/>

</g>

<g id="4" transform="translate(384.0,0)scale(1,1)">

<path d="M345 109 c40 -9 156 -9 177 -1 9 4 -33 7 -95 7 -62 0 -98 -3 -82 -6z" transform="translate(0,76) scale(0.1,-0.1)" stroke="none" fill="#936C3F"/>

<path d="M925 455 c0 -78 2 -106 7 -80 8 48 8 129 -1 170 -3 17 -6 -24 -6 -90z" transform="translate(0,76) scale(0.1,-0.1)" stroke="none" fill="#936C3F"/>

<path d="M836 175 c-9 -14 -44 -46 -78 -70 -33 -25 -56 -45 -51 -45 14 0 124 92 141 118 8 12 12 22 9 22 -2 0 -12 -11 -21 -25z" transform="translate(0,76) scale(0.1,-0.1)" stroke="none" fill="#936C3F"/>

<path d="M814 695 c-3 -8 -4 -20 -1 -27 3 -7 6 -3 6 10 2 42 27 22 74 -58 15 -25 27 -41 27 -36 0 12 -39 77 -63 104 -24 26 -35 28 -43 7z" transform="translate(0,76) scale(0.1,-0.1)" stroke="none" fill="#936C3F"/>

<path d="M710 224 c-25 -25 -71 -57 -102 -72 -67 -30 -72 -42 -7 -14 45 20 124 80 147 113 20 29 11 23 -38 -27z" transform="translate(0,76) scale(0.1,-0.1)" stroke="none" fill="#936C3F"/>

<path d="M660 493 c-63 -64 -90 -96 -59 -69 48 40 186 186 177 186 -2 0 -55 -53 -118 -117z" transform="translate(0,76) scale(0.1,-0.1)" stroke="none" fill="#936C3F"/>

<path d="M344 45 c48 -19 220 -30 261 -17 23 8 13 9 -40 5 -62 -5 -159 5 -235 22 -14 3 -7 -1 14 -10z" transform="translate(0,76) scale(0.1,-0.1)" stroke="none" fill="#936C3F"/>

<path d="M730 401 c-95 -98 -191 -174 -247 -197 -20 -9 -69 -22 -108 -30 l-70 -13 60 5 c111 11 170 43 322 180 58 52 145 147 131 143 -1 0 -41 -40 -88 -88z" transform="translate(0,76) scale(0.1,-0.1)" stroke="none" fill="#936C3F"/>

<path d="M414 306 c-68 -30 -183 -48 -276 -45 -81 4 -93 2 -96 -13 -6 -31 145 -174 164 -155 3 2 -9 10 -25 17 -36 15 -131 112 -131 135 0 14 11 15 89 9 67 -5 107 -2 166 11 70 15 175 53 150 54 -5 0 -24 -6 -41 -13z" transform="translate(0,76) scale(0.1,-0.1)" stroke="none" fill="#936C3F"/>

<path d="M826 673 c5 -19 -39 -73 -156 -192 -74 -76 -184 -171 -197 -171 -5 0 -27 -8 -49 -19 -72 -35 -189 -54 -281 -47 -54 4 -83 3 -83 -4 0 -19 84 -101 124 -122 127 -65 329 -94 446 -64 166 43 272 177 287 366 7 95 -8 165 -47 224 -32 47 -52 60 -44 29z m24 -192 c0 -126 -110 -285 -238 -347 -87 -41 -148 -50 -249 -35 -157 22 -283 92 -141 77 73 -7 221 15 271 41 79 40 244 185 303 264 20 27 40 47 45 43 5 -3 9 -22 9 -43z" transform="translate(0,76) scale(0.1,-0.1)" stroke="none" fill="#F3A181"/>

</g>

</g>
<g id="row2" transform="translate(12,152.0)">
<g id="0" transform="translate(0.0,0)scale(1,1)">

<path d="M345 109 c40 -9 156 -9 177 -1 9 4 -33 7 -95 7 -62 0 -98 -3 -82 -6z" transform="translate(0,76) scale(0.1,-0.1)" stroke="none" fill="#936C3F"/>

<path d="M925 455 c0 -78 2 -106 7 -80 8 48 8 129 -1 170 -3 17 -6 -24 -6 -90z" transform="translate(0,76) scale(0.1,-0.1)" stroke="none" fill="#936C3F"/>

<path d="M836 175 c-9 -14 -44 -46 -78 -70 -33 -25 -56 -45 -51 -45 14 0 124 92 141 118 8 12 12 22 9 22 -2 0 -12 -11 -21 -25z" transform="translate(0,76) scale(0.1,-0.1)" stroke="none" fill="#936C3F"/>

<path d="M814 695 c-3 -8 -4 -20 -1 -27 3 -7 6 -3 6 10 2 42 27 22 74 -58 15 -25 27 -41 27 -36 0 12 -39 77 -63 104 -24 26 -35 28 -43 7z" transform="translate(0,76) scale(0.1,-0.1)" stroke="none" fill="#936C3F"/>

<path d="M710 224 c-25 -25 -71 -57 -102 -72 -67 -30 -72 -42 -7 -14 45 20 124 80 147 113 20 29 11 23 -38 -27z" transform="translate(0,76) scale(0.1,-0.1)" stroke="none" fill="#936C3F"/>

<path d="M660 493 c-63 -64 -90 -96 -59 -69 48 40 186 186 177 186 -2 0 -55 -53 -118 -117z" transform="translate(0,76) scale(0.1,-0.1)" stroke="none" fill="#936C3F"/>

<path d="M344 45 c48 -19 220 -30 261 -17 23 8 13 9 -40 5 -62 -5 -159 5 -235 22 -14 3 -7 -1 14 -10z" transform="translate(0,76) scale(0.1,-0.1)" stroke="none" fill="#936C3F"/>

<path d="M730 401 c-95 -98 -191 -174 -247 -197 -20 -9 -69 -22 -108 -30 l-70 -13 60 5 c111 11 170 43 322 180 58 52 145 147 131 143 -1 0 -41 -40 -88 -88z" transform="translate(0,76) scale(0.1,-0.1)" stroke="none" fill="#936C3F"/>

<path d="M414 306 c-68 -30 -183 -48 -276 -45 -81 4 -93 2 -96 -13 -6 -31 145 -174 164 -155 3 2 -9 10 -25 17 -36 15 -131 112 -131 135 0 14 11 15 89 9 67 -5 107 -2 166 11 70 15 175 53 150 54 -5 0 -24 -6 -41 -13z" transform="translate(0,76) scale(0.1,-0.1)" stroke="none" fill="#936C3F"/>

<path d="M826 673 c5 -19 -39 -73 -156 -192 -74 -76 -184 -171 -197 -171 -5 0 -27 -8 -49 -19 -72 -35 -189 -54 -281 -47 -54 4 -83 3 -83 -4 0 -19 84 -101 124 -122 127 -65 329 -94 446 -64 166 43 272 177 287 366 7 95 -8 165 -47 224 -32 47 -52 60 -44 29z m24 -192 c0 -126 -110 -285 -238 -347 -87 -41 -148 -50 -249 -35 -157 22 -283 92 -141 77 73 -7 221 15 271 41 79 40 244 185 303 264 20 27 40 47 45 43 5 -3 9 -22 9 -43z" transform="translate(0,76) scale(0.1,-0.1)" stroke="none" fill="#F3A181"/>

</g>

<g id="1" transform="translate(96.0,0)scale(1,1)">

<path d="M345 109 c40 -9 156 -9 177 -1 9 4 -33 7 -95 7 -62 0 -98 -3 -82 -6z" transform="translate(0,76) scale(0.1,-0.1)" stroke="none" fill="#936C3F"/>

<path d="M925 455 c0 -78 2 -106 7 -80 8 48 8 129 -1 170 -3 17 -6 -24 -6 -90z" transform="translate(0,76) scale(0.1,-0.1)" stroke="none" fill="#936C3F"/>

<path d="M836 175 c-9 -14 -44 -46 -78 -70 -33 -25 -56 -45 -51 -45 14 0 124 92 141 118 8 12 12 22 9 22 -2 0 -12 -11 -21 -25z" transform="translate(0,76) scale(0.1,-0.1)" stroke="none" fill="#936C3F"/>

<path d="M814 695 c-3 -8 -4 -20 -1 -27 3 -7 6 -3 6 10 2 42 27 22 74 -58 15 -25 27 -41 27 -36 0 12 -39 77 -63 104 -24 26 -35 28 -43 7z" transform="translate(0,76) scale(0.1,-0.1)" stroke="none" fill="#936C3F"/>

<path d="M710 224 c-25 -25 -71 -57 -102 -72 -67 -30 -72 -42 -7 -14 45 20 124 80 147 113 20 29 11 23 -38 -27z" transform="translate(0,76) scale(0.1,-0.1)" stroke="none" fill="#936C3F"/>

<path d="M660 493 c-63 -64 -90 -96 -59 -69 48 40 186 186 177 186 -2 0 -55 -53 -118 -117z" transform="translate(0,76) scale(0.1,-0.1)" stroke="none" fill="#936C3F"/>

<path d="M344 45 c48 -19 220 -30 261 -17 23 8 13 9 -40 5 -62 -5 -159 5 -235 22 -14 3 -7 -1 14 -10z" transform="translate(0,76) scale(0.1,-0.1)" stroke="none" fill="#936C3F"/>

<path d="M730 401 c-95 -98 -191 -174 -247 -197 -20 -9 -69 -22 -108 -30 l-70 -13 60 5 c111 11 170 43 322 180 58 52 145 147 131 143 -1 0 -41 -40 -88 -88z" transform="translate(0,76) scale(0.1,-0.1)" stroke="none" fill="#936C3F"/>

<path d="M414 306 c-68 -30 -183 -48 -276 -45 -81 4 -93 2 -96 -13 -6 -31 145 -174 164 -155 3 2 -9 10 -25 17 -36 15 -131 112 -131 135 0 14 11 15 89 9 67 -5 107 -2 166 11 70 15 175 53 150 54 -5 0 -24 -6 -41 -13z" transform="translate(0,76) scale(0.1,-0.1)" stroke="none" fill="#936C3F"/>

<path d="M826 673 c5 -19 -39 -73 -156 -192 -74 -76 -184 -171 -197 -171 -5 0 -27 -8 -49 -19 -72 -35 -189 -54 -281 -47 -54 4 -83 3 -83 -4 0 -19 84 -101 124 -122 127 -65 329 -94 446 -64 166 43 272 177 287 366 7 95 -8 165 -47 224 -32 47 -52 60 -44 29z m24 -192 c0 -126 -110 -285 -238 -347 -87 -41 -148 -50 -249 -35 -157 22 -283 92 -141 77 73 -7 221 15 271 41 79 40 244 185 303 264 20 27 40 47 45 43 5 -3 9 -22 9 -43z" transform="translate(0,76) scale(0.1,-0.1)" stroke="none" fill="#F3A181"/>

</g>

<g id="2" transform="translate(192.0,0)scale(1,1)">

<path d="M345 109 c40 -9 156 -9 177 -1 9 4 -33 7 -95 7 -62 0 -98 -3 -82 -6z" transform="translate(0,76) scale(0.1,-0.1)" stroke="none" fill="#936C3F"/>

<path d="M925 455 c0 -78 2 -106 7 -80 8 48 8 129 -1 170 -3 17 -6 -24 -6 -90z" transform="translate(0,76) scale(0.1,-0.1)" stroke="none" fill="#936C3F"/>

<path d="M836 175 c-9 -14 -44 -46 -78 -70 -33 -25 -56 -45 -51 -45 14 0 124 92 141 118 8 12 12 22 9 22 -2 0 -12 -11 -21 -25z" transform="translate(0,76) scale(0.1,-0.1)" stroke="none" fill="#936C3F"/>

<path d="M814 695 c-3 -8 -4 -20 -1 -27 3 -7 6 -3 6 10 2 42 27 22 74 -58 15 -25 27 -41 27 -36 0 12 -39 77 -63 104 -24 26 -35 28 -43 7z" transform="translate(0,76) scale(0.1,-0.1)" stroke="none" fill="#936C3F"/>

<path d="M710 224 c-25 -25 -71 -57 -102 -72 -67 -30 -72 -42 -7 -14 45 20 124 80 147 113 20 29 11 23 -38 -27z" transform="translate(0,76) scale(0.1,-0.1)" stroke="none" fill="#936C3F"/>

<path d="M660 493 c-63 -64 -90 -96 -59 -69 48 40 186 186 177 186 -2 0 -55 -53 -118 -117z" transform="translate(0,76) scale(0.1,-0.1)" stroke="none" fill="#936C3F"/>

<path d="M344 45 c48 -19 220 -30 261 -17 23 8 13 9 -40 5 -62 -5 -159 5 -235 22 -14 3 -7 -1 14 -10z" transform="translate(0,76) scale(0.1,-0.1)" stroke="none" fill="#936C3F"/>

<path d="M730 401 c-95 -98 -191 -174 -247 -197 -20 -9 -69 -22 -108 -30 l-70 -13 60 5 c111 11 170 43 322 180 58 52 145 147 131 143 -1 0 -41 -40 -88 -88z" transform="translate(0,76) scale(0.1,-0.1)" stroke="none" fill="#936C3F"/>

<path d="M414 306 c-68 -30 -183 -48 -276 -45 -81 4 -93 2 -96 -13 -6 -31 145 -174 164 -155 3 2 -9 10 -25 17 -36 15 -131 112 -131 135 0 14 11 15 89 9 67 -5 107 -2 166 11 70 15 175 53 150 54 -5 0 -24 -6 -41 -13z" transform="translate(0,76) scale(0.1,-0.1)" stroke="none" fill="#936C3F"/>

<path d="M826 673 c5 -19 -39 -73 -156 -192 -74 -76 -184 -171 -197 -171 -5 0 -27 -8 -49 -19 -72 -35 -189 -54 -281 -47 -54 4 -83 3 -83 -4 0 -19 84 -101 124 -122 127 -65 329 -94 446 -64 166 43 272 177 287 366 7 95 -8 165 -47 224 -32 47 -52 60 -44 29z m24 -192 c0 -126 -110 -285 -238 -347 -87 -41 -148 -50 -249 -35 -157 22 -283 92 -141 77 73 -7 221 15 271 41 79 40 244 185 303 264 20 27 40 47 45 43 5 -3 9 -22 9 -43z" transform="translate(0,76) scale(0.1,-0.1)" stroke="none" fill="#F3A181"/>

</g>

<g id="3" transform="translate(288.0,0)scale(1,1)">

<path d="M345 109 c40 -9 156 -9 177 -1 9 4 -33 7 -95 7 -62 0 -98 -3 -82 -6z" transform="translate(0,76) scale(0.1,-0.1)" stroke="none" fill="#936C3F"/>

<path d="M925 455 c0 -78 2 -106 7 -80 8 48 8 129 -1 170 -3 17 -6 -24 -6 -90z" transform="translate(0,76) scale(0.1,-0.1)" stroke="none" fill="#936C3F"/>

<path d="M836 175 c-9 -14 -44 -46 -78 -70 -33 -25 -56 -45 -51 -45 14 0 124 92 141 118 8 12 12 22 9 22 -2 0 -12 -11 -21 -25z" transform="translate(0,76) scale(0.1,-0.1)" stroke="none" fill="#936C3F"/>

<path d="M814 695 c-3 -8 -4 -20 -1 -27 3 -7 6 -3 6 10 2 42 27 22 74 -58 15 -25 27 -41 27 -36 0 12 -39 77 -63 104 -24 26 -35 28 -43 7z" transform="translate(0,76) scale(0.1,-0.1)" stroke="none" fill="#936C3F"/>

<path d="M710 224 c-25 -25 -71 -57 -102 -72 -67 -30 -72 -42 -7 -14 45 20 124 80 147 113 20 29 11 23 -38 -27z" transform="translate(0,76) scale(0.1,-0.1)" stroke="none" fill="#936C3F"/>

<path d="M660 493 c-63 -64 -90 -96 -59 -69 48 40 186 186 177 186 -2 0 -55 -53 -118 -117z" transform="translate(0,76) scale(0.1,-0.1)" stroke="none" fill="#936C3F"/>

<path d="M344 45 c48 -19 220 -30 261 -17 23 8 13 9 -40 5 -62 -5 -159 5 -235 22 -14 3 -7 -1 14 -10z" transform="translate(0,76) scale(0.1,-0.1)" stroke="none" fill="#936C3F"/>

<path d="M730 401 c-95 -98 -191 -174 -247 -197 -20 -9 -69 -22 -108 -30 l-70 -13 60 5 c111 11 170 43 322 180 58 52 145 147 131 143 -1 0 -41 -40 -88 -88z" transform="translate(0,76) scale(0.1,-0.1)" stroke="none" fill="#936C3F"/>

<path d="M414 306 c-68 -30 -183 -48 -276 -45 -81 4 -93 2 -96 -13 -6 -31 145 -174 164 -155 3 2 -9 10 -25 17 -36 15 -131 112 -131 135 0 14 11 15 89 9 67 -5 107 -2 166 11 70 15 175 53 150 54 -5 0 -24 -6 -41 -13z" transform="translate(0,76) scale(0.1,-0.1)" stroke="none" fill="#936C3F"/>

<path d="M826 673 c5 -19 -39 -73 -156 -192 -74 -76 -184 -171 -197 -171 -5 0 -27 -8 -49 -19 -72 -35 -189 -54 -281 -47 -54 4 -83 3 -83 -4 0 -19 84 -101 124 -122 127 -65 329 -94 446 -64 166 43 272 177 287 366 7 95 -8 165 -47 224 -32 47 -52 60 -44 29z m24 -192 c0 -126 -110 -285 -238 -347 -87 -41 -148 -50 -249 -35 -157 22 -283 92 -141 77 73 -7 221 15 271 41 79 40 244 185 303 264 20 27 40 47 45 43 5 -3 9 -22 9 -43z" transform="translate(0,76) scale(0.1,-0.1)" stroke="none" fill="#F3A181"/>

</g>

<g id="4" transform="translate(384.0,0)scale(1,1)">

<path d="M345 109 c40 -9 156 -9 177 -1 9 4 -33 7 -95 7 -62 0 -98 -3 -82 -6z" transform="translate(0,76) scale(0.1,-0.1)" stroke="none" fill="#936C3F"/>

<path d="M925 455 c0 -78 2 -106 7 -80 8 48 8 129 -1 170 -3 17 -6 -24 -6 -90z" transform="translate(0,76) scale(0.1,-0.1)" stroke="none" fill="#936C3F"/>

<path d="M836 175 c-9 -14 -44 -46 -78 -70 -33 -25 -56 -45 -51 -45 14 0 124 92 141 118 8 12 12 22 9 22 -2 0 -12 -11 -21 -25z" transform="translate(0,76) scale(0.1,-0.1)" stroke="none" fill="#936C3F"/>

<path d="M814 695 c-3 -8 -4 -20 -1 -27 3 -7 6 -3 6 10 2 42 27 22 74 -58 15 -25 27 -41 27 -36 0 12 -39 77 -63 104 -24 26 -35 28 -43 7z" transform="translate(0,76) scale(0.1,-0.1)" stroke="none" fill="#936C3F"/>

<path d="M710 224 c-25 -25 -71 -57 -102 -72 -67 -30 -72 -42 -7 -14 45 20 124 80 147 113 20 29 11 23 -38 -27z" transform="translate(0,76) scale(0.1,-0.1)" stroke="none" fill="#936C3F"/>

<path d="M660 493 c-63 -64 -90 -96 -59 -69 48 40 186 186 177 186 -2 0 -55 -53 -118 -117z" transform="translate(0,76) scale(0.1,-0.1)" stroke="none" fill="#936C3F"/>

<path d="M344 45 c48 -19 220 -30 261 -17 23 8 13 9 -40 5 -62 -5 -159 5 -235 22 -14 3 -7 -1 14 -10z" transform="translate(0,76) scale(0.1,-0.1)" stroke="none" fill="#936C3F"/>

<path d="M730 401 c-95 -98 -191 -174 -247 -197 -20 -9 -69 -22 -108 -30 l-70 -13 60 5 c111 11 170 43 322 180 58 52 145 147 131 143 -1 0 -41 -40 -88 -88z" transform="translate(0,76) scale(0.1,-0.1)" stroke="none" fill="#936C3F"/>

<path d="M414 306 c-68 -30 -183 -48 -276 -45 -81 4 -93 2 -96 -13 -6 -31 145 -174 164 -155 3 2 -9 10 -25 17 -36 15 -131 112 -131 135 0 14 11 15 89 9 67 -5 107 -2 166 11 70 15 175 53 150 54 -5 0 -24 -6 -41 -13z" transform="translate(0,76) scale(0.1,-0.1)" stroke="none" fill="#936C3F"/>

<path d="M826 673 c5 -19 -39 -73 -156 -192 -74 -76 -184 -171 -197 -171 -5 0 -27 -8 -49 -19 -72 -35 -189 -54 -281 -47 -54 4 -83 3 -83 -4 0 -19 84 -101 124 -122 127 -65 329 -94 446 -64 166 43 272 177 287 366 7 95 -8 165 -47 224 -32 47 -52 60 -44 29z m24 -192 c0 -126 -110 -285 -238 -347 -87 -41 -148 -50 -249 -35 -157 22 -283 92 -141 77 73 -7 221 15 271 41 79 40 244 185 303 264 20 27 40 47 45 43 5 -3 9 -22 9 -43z" transform="translate(0,76) scale(0.1,-0.1)" stroke="none" fill="#F3A181"/>

</g>

</g>
<g id="row3" transform="translate(12,228.0)">
<g id="0" transform="translate(0.0,0)scale(1,1)">

<path d="M345 109 c40 -9 156 -9 177 -1 9 4 -33 7 -95 7 -62 0 -98 -3 -82 -6z" transform="translate(0,76) scale(0.1,-0.1)" stroke="none" fill="#936C3F"/>

<path d="M925 455 c0 -78 2 -106 7 -80 8 48 8 129 -1 170 -3 17 -6 -24 -6 -90z" transform="translate(0,76) scale(0.1,-0.1)" stroke="none" fill="#936C3F"/>

<path d="M836 175 c-9 -14 -44 -46 -78 -70 -33 -25 -56 -45 -51 -45 14 0 124 92 141 118 8 12 12 22 9 22 -2 0 -12 -11 -21 -25z" transform="translate(0,76) scale(0.1,-0.1)" stroke="none" fill="#936C3F"/>

<path d="M814 695 c-3 -8 -4 -20 -1 -27 3 -7 6 -3 6 10 2 42 27 22 74 -58 15 -25 27 -41 27 -36 0 12 -39 77 -63 104 -24 26 -35 28 -43 7z" transform="translate(0,76) scale(0.1,-0.1)" stroke="none" fill="#936C3F"/>

<path d="M710 224 c-25 -25 -71 -57 -102 -72 -67 -30 -72 -42 -7 -14 45 20 124 80 147 113 20 29 11 23 -38 -27z" transform="translate(0,76) scale(0.1,-0.1)" stroke="none" fill="#936C3F"/>

<path d="M660 493 c-63 -64 -90 -96 -59 -69 48 40 186 186 177 186 -2 0 -55 -53 -118 -117z" transform="translate(0,76) scale(0.1,-0.1)" stroke="none" fill="#936C3F"/>

<path d="M344 45 c48 -19 220 -30 261 -17 23 8 13 9 -40 5 -62 -5 -159 5 -235 22 -14 3 -7 -1 14 -10z" transform="translate(0,76) scale(0.1,-0.1)" stroke="none" fill="#936C3F"/>

<path d="M730 401 c-95 -98 -191 -174 -247 -197 -20 -9 -69 -22 -108 -30 l-70 -13 60 5 c111 11 170 43 322 180 58 52 145 147 131 143 -1 0 -41 -40 -88 -88z" transform="translate(0,76) scale(0.1,-0.1)" stroke="none" fill="#936C3F"/>

<path d="M414 306 c-68 -30 -183 -48 -276 -45 -81 4 -93 2 -96 -13 -6 -31 145 -174 164 -155 3 2 -9 10 -25 17 -36 15 -131 112 -131 135 0 14 11 15 89 9 67 -5 107 -2 166 11 70 15 175 53 150 54 -5 0 -24 -6 -41 -13z" transform="translate(0,76) scale(0.1,-0.1)" stroke="none" fill="#936C3F"/>

<path d="M826 673 c5 -19 -39 -73 -156 -192 -74 -76 -184 -171 -197 -171 -5 0 -27 -8 -49 -19 -72 -35 -189 -54 -281 -47 -54 4 -83 3 -83 -4 0 -19 84 -101 124 -122 127 -65 329 -94 446 -64 166 43 272 177 287 366 7 95 -8 165 -47 224 -32 47 -52 60 -44 29z m24 -192 c0 -126 -110 -285 -238 -347 -87 -41 -148 -50 -249 -35 -157 22 -283 92 -141 77 73 -7 221 15 271 41 79 40 244 185 303 264 20 27 40 47 45 43 5 -3 9 -22 9 -43z" transform="translate(0,76) scale(0.1,-0.1)" stroke="none" fill="#F3A181"/>

</g>

<g id="1" transform="translate(96.0,0)scale(1,1)">

<path d="M345 109 c40 -9 156 -9 177 -1 9 4 -33 7 -95 7 -62 0 -98 -3 -82 -6z" transform="translate(0,76) scale(0.1,-0.1)" stroke="none" fill="#936C3F"/>

<path d="M925 455 c0 -78 2 -106 7 -80 8 48 8 129 -1 170 -3 17 -6 -24 -6 -90z" transform="translate(0,76) scale(0.1,-0.1)" stroke="none" fill="#936C3F"/>

<path d="M836 175 c-9 -14 -44 -46 -78 -70 -33 -25 -56 -45 -51 -45 14 0 124 92 141 118 8 12 12 22 9 22 -2 0 -12 -11 -21 -25z" transform="translate(0,76) scale(0.1,-0.1)" stroke="none" fill="#936C3F"/>

<path d="M814 695 c-3 -8 -4 -20 -1 -27 3 -7 6 -3 6 10 2 42 27 22 74 -58 15 -25 27 -41 27 -36 0 12 -39 77 -63 104 -24 26 -35 28 -43 7z" transform="translate(0,76) scale(0.1,-0.1)" stroke="none" fill="#936C3F"/>

<path d="M710 224 c-25 -25 -71 -57 -102 -72 -67 -30 -72 -42 -7 -14 45 20 124 80 147 113 20 29 11 23 -38 -27z" transform="translate(0,76) scale(0.1,-0.1)" stroke="none" fill="#936C3F"/>

<path d="M660 493 c-63 -64 -90 -96 -59 -69 48 40 186 186 177 186 -2 0 -55 -53 -118 -117z" transform="translate(0,76) scale(0.1,-0.1)" stroke="none" fill="#936C3F"/>

<path d="M344 45 c48 -19 220 -30 261 -17 23 8 13 9 -40 5 -62 -5 -159 5 -235 22 -14 3 -7 -1 14 -10z" transform="translate(0,76) scale(0.1,-0.1)" stroke="none" fill="#936C3F"/>

<path d="M730 401 c-95 -98 -191 -174 -247 -197 -20 -9 -69 -22 -108 -30 l-70 -13 60 5 c111 11 170 43 322 180 58 52 145 147 131 143 -1 0 -41 -40 -88 -88z" transform="translate(0,76) scale(0.1,-0.1)" stroke="none" fill="#936C3F"/>

<path d="M414 306 c-68 -30 -183 -48 -276 -45 -81 4 -93 2 -96 -13 -6 -31 145 -174 164 -155 3 2 -9 10 -25 17 -36 15 -131 112 -131 135 0 14 11 15 89 9 67 -5 107 -2 166 11 70 15 175 53 150 54 -5 0 -24 -6 -41 -13z" transform="translate(0,76) scale(0.1,-0.1)" stroke="none" fill="#936C3F"/>

<path d="M826 673 c5 -19 -39 -73 -156 -192 -74 -76 -184 -171 -197 -171 -5 0 -27 -8 -49 -19 -72 -35 -189 -54 -281 -47 -54 4 -83 3 -83 -4 0 -19 84 -101 124 -122 127 -65 329 -94 446 -64 166 43 272 177 287 366 7 95 -8 165 -47 224 -32 47 -52 60 -44 29z m24 -192 c0 -126 -110 -285 -238 -347 -87 -41 -148 -50 -249 -35 -157 22 -283 92 -141 77 73 -7 221 15 271 41 79 40 244 185 303 264 20 27 40 47 45 43 5 -3 9 -22 9 -43z" transform="translate(0,76) scale(0.1,-0.1)" stroke="none" fill="#F3A181"/>

</g>

<g id="2" transform="translate(192.0,0)scale(1,1)">

<path d="M345 109 c40 -9 156 -9 177 -1 9 4 -33 7 -95 7 -62 0 -98 -3 -82 -6z" transform="translate(0,76) scale(0.1,-0.1)" stroke="none" fill="#936C3F"/>

<path d="M925 455 c0 -78 2 -106 7 -80 8 48 8 129 -1 170 -3 17 -6 -24 -6 -90z" transform="translate(0,76) scale(0.1,-0.1)" stroke="none" fill="#936C3F"/>

<path d="M836 175 c-9 -14 -44 -46 -78 -70 -33 -25 -56 -45 -51 -45 14 0 124 92 141 118 8 12 12 22 9 22 -2 0 -12 -11 -21 -25z" transform="translate(0,76) scale(0.1,-0.1)" stroke="none" fill="#936C3F"/>

<path d="M814 695 c-3 -8 -4 -20 -1 -27 3 -7 6 -3 6 10 2 42 27 22 74 -58 15 -25 27 -41 27 -36 0 12 -39 77 -63 104 -24 26 -35 28 -43 7z" transform="translate(0,76) scale(0.1,-0.1)" stroke="none" fill="#936C3F"/>

<path d="M710 224 c-25 -25 -71 -57 -102 -72 -67 -30 -72 -42 -7 -14 45 20 124 80 147 113 20 29 11 23 -38 -27z" transform="translate(0,76) scale(0.1,-0.1)" stroke="none" fill="#936C3F"/>

<path d="M660 493 c-63 -64 -90 -96 -59 -69 48 40 186 186 177 186 -2 0 -55 -53 -118 -117z" transform="translate(0,76) scale(0.1,-0.1)" stroke="none" fill="#936C3F"/>

<path d="M344 45 c48 -19 220 -30 261 -17 23 8 13 9 -40 5 -62 -5 -159 5 -235 22 -14 3 -7 -1 14 -10z" transform="translate(0,76) scale(0.1,-0.1)" stroke="none" fill="#936C3F"/>

<path d="M730 401 c-95 -98 -191 -174 -247 -197 -20 -9 -69 -22 -108 -30 l-70 -13 60 5 c111 11 170 43 322 180 58 52 145 147 131 143 -1 0 -41 -40 -88 -88z" transform="translate(0,76) scale(0.1,-0.1)" stroke="none" fill="#936C3F"/>

<path d="M414 306 c-68 -30 -183 -48 -276 -45 -81 4 -93 2 -96 -13 -6 -31 145 -174 164 -155 3 2 -9 10 -25 17 -36 15 -131 112 -131 135 0 14 11 15 89 9 67 -5 107 -2 166 11 70 15 175 53 150 54 -5 0 -24 -6 -41 -13z" transform="translate(0,76) scale(0.1,-0.1)" stroke="none" fill="#936C3F"/>

<path d="M826 673 c5 -19 -39 -73 -156 -192 -74 -76 -184 -171 -197 -171 -5 0 -27 -8 -49 -19 -72 -35 -189 -54 -281 -47 -54 4 -83 3 -83 -4 0 -19 84 -101 124 -122 127 -65 329 -94 446 -64 166 43 272 177 287 366 7 95 -8 165 -47 224 -32 47 -52 60 -44 29z m24 -192 c0 -126 -110 -285 -238 -347 -87 -41 -148 -50 -249 -35 -157 22 -283 92 -141 77 73 -7 221 15 271 41 79 40 244 185 303 264 20 27 40 47 45 43 5 -3 9 -22 9 -43z" transform="translate(0,76) scale(0.1,-0.1)" stroke="none" fill="#F3A181"/>

</g>

<g id="3" transform="translate(288.0,0)scale(1,1)">

<path d="M345 109 c40 -9 156 -9 177 -1 9 4 -33 7 -95 7 -62 0 -98 -3 -82 -6z" transform="translate(0,76) scale(0.1,-0.1)" stroke="none" fill="#936C3F"/>

<path d="M925 455 c0 -78 2 -106 7 -80 8 48 8 129 -1 170 -3 17 -6 -24 -6 -90z" transform="translate(0,76) scale(0.1,-0.1)" stroke="none" fill="#936C3F"/>

<path d="M836 175 c-9 -14 -44 -46 -78 -70 -33 -25 -56 -45 -51 -45 14 0 124 92 141 118 8 12 12 22 9 22 -2 0 -12 -11 -21 -25z" transform="translate(0,76) scale(0.1,-0.1)" stroke="none" fill="#936C3F"/>

<path d="M814 695 c-3 -8 -4 -20 -1 -27 3 -7 6 -3 6 10 2 42 27 22 74 -58 15 -25 27 -41 27 -36 0 12 -39 77 -63 104 -24 26 -35 28 -43 7z" transform="translate(0,76) scale(0.1,-0.1)" stroke="none" fill="#936C3F"/>

<path d="M710 224 c-25 -25 -71 -57 -102 -72 -67 -30 -72 -42 -7 -14 45 20 124 80 147 113 20 29 11 23 -38 -27z" transform="translate(0,76) scale(0.1,-0.1)" stroke="none" fill="#936C3F"/>

<path d="M660 493 c-63 -64 -90 -96 -59 -69 48 40 186 186 177 186 -2 0 -55 -53 -118 -117z" transform="translate(0,76) scale(0.1,-0.1)" stroke="none" fill="#936C3F"/>

<path d="M344 45 c48 -19 220 -30 261 -17 23 8 13 9 -40 5 -62 -5 -159 5 -235 22 -14 3 -7 -1 14 -10z" transform="translate(0,76) scale(0.1,-0.1)" stroke="none" fill="#936C3F"/>

<path d="M730 401 c-95 -98 -191 -174 -247 -197 -20 -9 -69 -22 -108 -30 l-70 -13 60 5 c111 11 170 43 322 180 58 52 145 147 131 143 -1 0 -41 -40 -88 -88z" transform="translate(0,76) scale(0.1,-0.1)" stroke="none" fill="#936C3F"/>

<path d="M414 306 c-68 -30 -183 -48 -276 -45 -81 4 -93 2 -96 -13 -6 -31 145 -174 164 -155 3 2 -9 10 -25 17 -36 15 -131 112 -131 135 0 14 11 15 89 9 67 -5 107 -2 166 11 70 15 175 53 150 54 -5 0 -24 -6 -41 -13z" transform="translate(0,76) scale(0.1,-0.1)" stroke="none" fill="#936C3F"/>

<path d="M826 673 c5 -19 -39 -73 -156 -192 -74 -76 -184 -171 -197 -171 -5 0 -27 -8 -49 -19 -72 -35 -189 -54 -281 -47 -54 4 -83 3 -83 -4 0 -19 84 -101 124 -122 127 -65 329 -94 446 -64 166 43 272 177 287 366 7 95 -8 165 -47 224 -32 47 -52 60 -44 29z m24 -192 c0 -126 -110 -285 -238 -347 -87 -41 -148 -50 -249 -35 -157 22 -283 92 -141 77 73 -7 221 15 271 41 79 40 244 185 303 264 20 27 40 47 45 43 5 -3 9 -22 9 -43z" transform="translate(0,76) scale(0.1,-0.1)" stroke="none" fill="#F3A181"/>

</g>

<g id="4" transform="translate(384.0,0)scale(1,1)">

<path d="M345 109 c40 -9 156 -9 177 -1 9 4 -33 7 -95 7 -62 0 -98 -3 -82 -6z" transform="translate(0,76) scale(0.1,-0.1)" stroke="none" fill="#936C3F"/>

<path d="M925 455 c0 -78 2 -106 7 -80 8 48 8 129 -1 170 -3 17 -6 -24 -6 -90z" transform="translate(0,76) scale(0.1,-0.1)" stroke="none" fill="#936C3F"/>

<path d="M836 175 c-9 -14 -44 -46 -78 -70 -33 -25 -56 -45 -51 -45 14 0 124 92 141 118 8 12 12 22 9 22 -2 0 -12 -11 -21 -25z" transform="translate(0,76) scale(0.1,-0.1)" stroke="none" fill="#936C3F"/>

<path d="M814 695 c-3 -8 -4 -20 -1 -27 3 -7 6 -3 6 10 2 42 27 22 74 -58 15 -25 27 -41 27 -36 0 12 -39 77 -63 104 -24 26 -35 28 -43 7z" transform="translate(0,76) scale(0.1,-0.1)" stroke="none" fill="#936C3F"/>

<path d="M710 224 c-25 -25 -71 -57 -102 -72 -67 -30 -72 -42 -7 -14 45 20 124 80 147 113 20 29 11 23 -38 -27z" transform="translate(0,76) scale(0.1,-0.1)" stroke="none" fill="#936C3F"/>

<path d="M660 493 c-63 -64 -90 -96 -59 -69 48 40 186 186 177 186 -2 0 -55 -53 -118 -117z" transform="translate(0,76) scale(0.1,-0.1)" stroke="none" fill="#936C3F"/>

<path d="M344 45 c48 -19 220 -30 261 -17 23 8 13 9 -40 5 -62 -5 -159 5 -235 22 -14 3 -7 -1 14 -10z" transform="translate(0,76) scale(0.1,-0.1)" stroke="none" fill="#936C3F"/>

<path d="M730 401 c-95 -98 -191 -174 -247 -197 -20 -9 -69 -22 -108 -30 l-70 -13 60 5 c111 11 170 43 322 180 58 52 145 147 131 143 -1 0 -41 -40 -88 -88z" transform="translate(0,76) scale(0.1,-0.1)" stroke="none" fill="#936C3F"/>

<path d="M414 306 c-68 -30 -183 -48 -276 -45 -81 4 -93 2 -96 -13 -6 -31 145 -174 164 -155 3 2 -9 10 -25 17 -36 15 -131 112 -131 135 0 14 11 15 89 9 67 -5 107 -2 166 11 70 15 175 53 150 54 -5 0 -24 -6 -41 -13z" transform="translate(0,76) scale(0.1,-0.1)" stroke="none" fill="#936C3F"/>

<path d="M826 673 c5 -19 -39 -73 -156 -192 -74 -76 -184 -171 -197 -171 -5 0 -27 -8 -49 -19 -72 -35 -189 -54 -281 -47 -54 4 -83 3 -83 -4 0 -19 84 -101 124 -122 127 -65 329 -94 446 -64 166 43 272 177 287 366 7 95 -8 165 -47 224 -32 47 -52 60 -44 29z m24 -192 c0 -126 -110 -285 -238 -347 -87 -41 -148 -50 -249 -35 -157 22 -283 92 -141 77 73 -7 221 15 271 41 79 40 244 185 303 264 20 27 40 47 45 43 5 -3 9 -22 9 -43z" transform="translate(0,76) scale(0.1,-0.1)" stroke="none" fill="#F3A181"/>

</g>

</g>
</svg>