<?xml version="1.0" standalone="no"?>
<!DOCTYPE svg PUBLIC "-//W3C//DTD SVG 20010904//EN"
 "http://www.w3.org/TR/2001/REC-SVG-20010904/DTD/svg10.dtd">
<svg version="1.0" xmlns="http://www.w3.org/2000/svg" width="240pt" height="368pt" viewBox="0 0 240 368" preserveAspectRatio = "xMidYMid meet" >
<metadata>
Created by ZoeQu, written in 2022
</metadata>
<rect width="240" height="368" fill="#F4A183"/>
<g id="row0" transform="translate(8,0.0)">
<g id="0" transform="translate(0.0,0)scale(1,1)">

<path d="M355 720 c21 -22 41 -40 44 -40 3 0 -13 18 -34 40 -21 22 -41 40 -44 40 -3 0 13 -18 34 -40z" transform="translate(0,92) scale(0.1,-0.1)" stroke="none" fill="#FBD984"/>

<path d="M80 874 c-33 -13 -33 -14 -5 -9 17 4 46 10 65 14 35 9 35 9 5 9 -16 0 -46 -6 -65 -14z" transform="translate(0,92) scale(0.1,-0.1)" stroke="none" fill="#936C3F"/>

<path d="M465 435 c0 -46 3 -78 7 -71 4 6 8 38 8 71 0 33 -4 65 -8 72 -4 6 -7 -26 -7 -72z" transform="translate(0,92) scale(0.1,-0.1)" stroke="none" fill="#936C3F"/>

<path d="M418 774 c18 -16 44 -42 58 -59 l26 -30 -24 34 c-13 19 -40 46 -59 59 l-34 25 33 -29z" transform="translate(0,92) scale(0.1,-0.1)" stroke="none" fill="#FBD984"/>

<path d="M265 310 c0 -121 0 -123 9 -52 5 42 5 94 0 125 -8 44 -9 33 -9 -73z" transform="translate(0,92) scale(0.1,-0.1)" stroke="none" fill="#936C3F"/>

<path d="M180 810 c0 -10 59 -90 93 -125 20 -20 -7 21 -40 61 -19 23 -32 47 -31 54 2 7 -3 15 -9 17 -7 3 -13 -1 -13 -7z" transform="translate(0,92) scale(0.1,-0.1)" stroke="none" fill="#936C3F"/>

<path d="M173 814 c-4 -10 5 -26 23 -42 28 -27 28 -27 6 -1 -22 26 -29 49 -14 49 5 0 11 -3 15 -6 9 -10 107 -54 107 -48 0 4 -119 64 -127 64 -2 0 -6 -7 -10 -16z" transform="translate(0,92) scale(0.1,-0.1)" stroke="none" fill="#FBD984"/>

<path d="M369 245 c-3 -38 -5 -72 -3 -74 5 -6 30 23 43 49 l12 25 -20 -25 -20 -25 -3 60 -3 60 -6 -70z" transform="translate(0,92) scale(0.1,-0.1)" stroke="none" fill="#936C3F"/>

<path d="M290 763 c33 -23 91 -82 112 -113 9 -14 17 -20 17 -14 1 19 -89 114 -123 130 -31 14 -31 14 -6 -3z" transform="translate(0,92) scale(0.1,-0.1)" stroke="none" fill="#936C3F"/>

<path d="M547 567 c27 -76 27 -86 -12 -237 -5 -20 -3 -19 8 5 7 17 19 58 27 92 12 58 11 68 -10 133 -12 39 -26 73 -30 75 -5 3 3 -28 17 -68z" transform="translate(0,92) scale(0.1,-0.1)" stroke="none" fill="#FBD984"/>

<path d="M290 848 c14 -6 45 -21 70 -32 54 -25 129 -97 154 -149 10 -21 20 -36 23 -34 9 9 -45 91 -84 129 -38 36 -115 80 -163 92 l-25 6 25 -12z" transform="translate(0,92) scale(0.1,-0.1)" stroke="none" fill="#936C3F"/>

<path d="M31 851 c-1 -7 23 -39 52 -70 51 -55 113 -160 142 -238 7 -21 14 -31 14 -21 2 34 -98 213 -147 264 -27 27 -52 57 -55 65 -4 11 -6 11 -6 0z" transform="translate(0,92) scale(0.1,-0.1)" stroke="none" fill="#936C3F"/>

<path d="M100 870 c-8 -5 -25 -10 -37 -10 -34 0 -28 -15 28 -73 l52 -52 -39 48 c-21 26 -42 47 -46 47 -4 0 -8 4 -8 8 0 4 21 14 46 21 47 14 49 14 204 -24 l25 -6 -25 12 c-34 15 -129 38 -160 38 -14 1 -32 -4 -40 -9z" transform="translate(0,92) scale(0.1,-0.1)" stroke="none" fill="#FBD984"/>

<path d="M480 210 c-53 -82 -154 -154 -208 -148 -21 2 -26 8 -24 23 2 11 5 34 7 50 l4 30 -8 -31 c-4 -17 -11 -36 -15 -43 -11 -17 12 -41 41 -41 57 0 181 97 226 178 28 50 13 38 -23 -18z" transform="translate(0,92) scale(0.1,-0.1)" stroke="none" fill="#936C3F"/>

<path d="M182 655 c47 -90 73 -167 89 -260 12 -68 8 -116 -23 -310 -2 -15 3 -21 24 -23 46 -5 146 58 190 121 14 21 4 14 -31 -21 -58 -58 -116 -92 -157 -92 -21 0 -25 3 -19 18 12 28 34 184 34 237 0 54 -20 159 -32 171 -4 4 -7 15 -7 24 0 20 -84 195 -98 204 -5 3 8 -28 30 -69z" transform="translate(0,92) scale(0.1,-0.1)" stroke="none" fill="#FBD984"/>

<path d="M242 710 c50 -69 89 -162 114 -280 13 -60 13 -130 -1 -225 -3 -16 0 -37 5 -45 8 -13 12 -11 27 10 91 126 123 257 87 359 -22 66 -53 129 -64 136 -6 4 -2 -9 8 -27 33 -59 62 -153 62 -203 0 -52 -29 -145 -63 -204 -23 -39 -46 -66 -52 -60 -2 2 1 44 6 94 11 98 3 163 -33 270 -26 77 -74 169 -101 192 -16 14 -15 10 5 -17z" transform="translate(0,92) scale(0.1,-0.1)" stroke="none" fill="#FBD984"/>

<path d="M83 857 c-30 -10 -45 -27 -25 -27 32 0 192 -259 192 -310 0 -9 3 -20 7 -24 12 -12 32 -117 32 -171 0 -53 -22 -209 -34 -238 -10 -24 34 -23 85 3 133 68 253 306 221 437 -48 187 -144 280 -341 329 -63 15 -92 15 -137 1z m176 -63 c107 -54 168 -129 215 -265 36 -102 4 -233 -87 -359 -15 -21 -19 -23 -27 -10 -5 8 -8 29 -5 45 14 95 14 165 1 225 -29 136 -71 228 -142 315 -25 32 -43 63 -40 71 7 19 4 19 85 -22z" transform="translate(0,92) scale(0.1,-0.1)" stroke="none" fill="#BED3B8"/>

</g>

<g id="1" transform="translate(60.0,0)scale(1,1)">

<path d="M355 720 c21 -22 41 -40 44 -40 3 0 -13 18 -34 40 -21 22 -41 40 -44 40 -3 0 13 -18 34 -40z" transform="translate(0,92) scale(0.1,-0.1)" stroke="none" fill="#FBD984"/>

<path d="M80 874 c-33 -13 -33 -14 -5 -9 17 4 46 10 65 14 35 9 35 9 5 9 -16 0 -46 -6 -65 -14z" transform="translate(0,92) scale(0.1,-0.1)" stroke="none" fill="#936C3F"/>

<path d="M465 435 c0 -46 3 -78 7 -71 4 6 8 38 8 71 0 33 -4 65 -8 72 -4 6 -7 -26 -7 -72z" transform="translate(0,92) scale(0.1,-0.1)" stroke="none" fill="#936C3F"/>

<path d="M418 774 c18 -16 44 -42 58 -59 l26 -30 -24 34 c-13 19 -40 46 -59 59 l-34 25 33 -29z" transform="translate(0,92) scale(0.1,-0.1)" stroke="none" fill="#FBD984"/>

<path d="M265 310 c0 -121 0 -123 9 -52 5 42 5 94 0 125 -8 44 -9 33 -9 -73z" transform="translate(0,92) scale(0.1,-0.1)" stroke="none" fill="#936C3F"/>

<path d="M180 810 c0 -10 59 -90 93 -125 20 -20 -7 21 -40 61 -19 23 -32 47 -31 54 2 7 -3 15 -9 17 -7 3 -13 -1 -13 -7z" transform="translate(0,92) scale(0.1,-0.1)" stroke="none" fill="#936C3F"/>

<path d="M173 814 c-4 -10 5 -26 23 -42 28 -27 28 -27 6 -1 -22 26 -29 49 -14 49 5 0 11 -3 15 -6 9 -10 107 -54 107 -48 0 4 -119 64 -127 64 -2 0 -6 -7 -10 -16z" transform="translate(0,92) scale(0.1,-0.1)" stroke="none" fill="#FBD984"/>

<path d="M369 245 c-3 -38 -5 -72 -3 -74 5 -6 30 23 43 49 l12 25 -20 -25 -20 -25 -3 60 -3 60 -6 -70z" transform="translate(0,92) scale(0.1,-0.1)" stroke="none" fill="#936C3F"/>

<path d="M290 763 c33 -23 91 -82 112 -113 9 -14 17 -20 17 -14 1 19 -89 114 -123 130 -31 14 -31 14 -6 -3z" transform="translate(0,92) scale(0.1,-0.1)" stroke="none" fill="#936C3F"/>

<path d="M547 567 c27 -76 27 -86 -12 -237 -5 -20 -3 -19 8 5 7 17 19 58 27 92 12 58 11 68 -10 133 -12 39 -26 73 -30 75 -5 3 3 -28 17 -68z" transform="translate(0,92) scale(0.1,-0.1)" stroke="none" fill="#FBD984"/>

<path d="M290 848 c14 -6 45 -21 70 -32 54 -25 129 -97 154 -149 10 -21 20 -36 23 -34 9 9 -45 91 -84 129 -38 36 -115 80 -163 92 l-25 6 25 -12z" transform="translate(0,92) scale(0.1,-0.1)" stroke="none" fill="#936C3F"/>

<path d="M31 851 c-1 -7 23 -39 52 -70 51 -55 113 -160 142 -238 7 -21 14 -31 14 -21 2 34 -98 213 -147 264 -27 27 -52 57 -55 65 -4 11 -6 11 -6 0z" transform="translate(0,92) scale(0.1,-0.1)" stroke="none" fill="#936C3F"/>

<path d="M100 870 c-8 -5 -25 -10 -37 -10 -34 0 -28 -15 28 -73 l52 -52 -39 48 c-21 26 -42 47 -46 47 -4 0 -8 4 -8 8 0 4 21 14 46 21 47 14 49 14 204 -24 l25 -6 -25 12 c-34 15 -129 38 -160 38 -14 1 -32 -4 -40 -9z" transform="translate(0,92) scale(0.1,-0.1)" stroke="none" fill="#FBD984"/>

<path d="M480 210 c-53 -82 -154 -154 -208 -148 -21 2 -26 8 -24 23 2 11 5 34 7 50 l4 30 -8 -31 c-4 -17 -11 -36 -15 -43 -11 -17 12 -41 41 -41 57 0 181 97 226 178 28 50 13 38 -23 -18z" transform="translate(0,92) scale(0.1,-0.1)" stroke="none" fill="#936C3F"/>

<path d="M182 655 c47 -90 73 -167 89 -260 12 -68 8 -116 -23 -310 -2 -15 3 -21 24 -23 46 -5 146 58 190 121 14 21 4 14 -31 -21 -58 -58 -116 -92 -157 -92 -21 0 -25 3 -19 18 12 28 34 184 34 237 0 54 -20 159 -32 171 -4 4 -7 15 -7 24 0 20 -84 195 -98 204 -5 3 8 -28 30 -69z" transform="translate(0,92) scale(0.1,-0.1)" stroke="none" fill="#FBD984"/>

<path d="M242 710 c50 -69 89 -162 114 -280 13 -60 13 -130 -1 -225 -3 -16 0 -37 5 -45 8 -13 12 -11 27 10 91 126 123 257 87 359 -22 66 -53 129 -64 136 -6 4 -2 -9 8 -27 33 -59 62 -153 62 -203 0 -52 -29 -145 -63 -204 -23 -39 -46 -66 -52 -60 -2 2 1 44 6 94 11 98 3 163 -33 270 -26 77 -74 169 -101 192 -16 14 -15 10 5 -17z" transform="translate(0,92) scale(0.1,-0.1)" stroke="none" fill="#FBD984"/>

<path d="M83 857 c-30 -10 -45 -27 -25 -27 32 0 192 -259 192 -310 0 -9 3 -20 7 -24 12 -12 32 -117 32 -171 0 -53 -22 -209 -34 -238 -10 -24 34 -23 85 3 133 68 253 306 221 437 -48 187 -144 280 -341 329 -63 15 -92 15 -137 1z m176 -63 c107 -54 168 -129 215 -265 36 -102 4 -233 -87 -359 -15 -21 -19 -23 -27 -10 -5 8 -8 29 -5 45 14 95 14 165 1 225 -29 136 -71 228 -142 315 -25 32 -43 63 -40 71 7 19 4 19 85 -22z" transform="translate(0,92) scale(0.1,-0.1)" stroke="none" fill="#BED3B8"/>

</g>

<g id="2" transform="translate(120.0,0)scale(1,1)">

<path d="M355 720 c21 -22 41 -40 44 -40 3 0 -13 18 -34 40 -21 22 -41 40 -44 40 -3 0 13 -18 34 -40z" transform="translate(0,92) scale(0.1,-0.1)" stroke="none" fill="#FBD984"/>

<path d="M80 874 c-33 -13 -33 -14 -5 -9 17 4 46 10 65 14 35 9 35 9 5 9 -16 0 -46 -6 -65 -14z" transform="translate(0,92) scale(0.1,-0.1)" stroke="none" fill="#936C3F"/>

<path d="M465 435 c0 -46 3 -78 7 -71 4 6 8 38 8 71 0 33 -4 65 -8 72 -4 6 -7 -26 -7 -72z" transform="translate(0,92) scale(0.1,-0.1)" stroke="none" fill="#936C3F"/>

<path d="M418 774 c18 -16 44 -42 58 -59 l26 -30 -24 34 c-13 19 -40 46 -59 59 l-34 25 33 -29z" transform="translate(0,92) scale(0.1,-0.1)" stroke="none" fill="#FBD984"/>

<path d="M265 310 c0 -121 0 -123 9 -52 5 42 5 94 0 125 -8 44 -9 33 -9 -73z" transform="translate(0,92) scale(0.1,-0.1)" stroke="none" fill="#936C3F"/>

<path d="M180 810 c0 -10 59 -90 93 -125 20 -20 -7 21 -40 61 -19 23 -32 47 -31 54 2 7 -3 15 -9 17 -7 3 -13 -1 -13 -7z" transform="translate(0,92) scale(0.1,-0.1)" stroke="none" fill="#936C3F"/>

<path d="M173 814 c-4 -10 5 -26 23 -42 28 -27 28 -27 6 -1 -22 26 -29 49 -14 49 5 0 11 -3 15 -6 9 -10 107 -54 107 -48 0 4 -119 64 -127 64 -2 0 -6 -7 -10 -16z" transform="translate(0,92) scale(0.1,-0.1)" stroke="none" fill="#FBD984"/>

<path d="M369 245 c-3 -38 -5 -72 -3 -74 5 -6 30 23 43 49 l12 25 -20 -25 -20 -25 -3 60 -3 60 -6 -70z" transform="translate(0,92) scale(0.1,-0.1)" stroke="none" fill="#936C3F"/>

<path d="M290 763 c33 -23 91 -82 112 -113 9 -14 17 -20 17 -14 1 19 -89 114 -123 130 -31 14 -31 14 -6 -3z" transform="translate(0,92) scale(0.1,-0.1)" stroke="none" fill="#936C3F"/>

<path d="M547 567 c27 -76 27 -86 -12 -237 -5 -20 -3 -19 8 5 7 17 19 58 27 92 12 58 11 68 -10 133 -12 39 -26 73 -30 75 -5 3 3 -28 17 -68z" transform="translate(0,92) scale(0.1,-0.1)" stroke="none" fill="#FBD984"/>

<path d="M290 848 c14 -6 45 -21 70 -32 54 -25 129 -97 154 -149 10 -21 20 -36 23 -34 9 9 -45 91 -84 129 -38 36 -115 80 -163 92 l-25 6 25 -12z" transform="translate(0,92) scale(0.1,-0.1)" stroke="none" fill="#936C3F"/>

<path d="M31 851 c-1 -7 23 -39 52 -70 51 -55 113 -160 142 -238 7 -21 14 -31 14 -21 2 34 -98 213 -147 264 -27 27 -52 57 -55 65 -4 11 -6 11 -6 0z" transform="translate(0,92) scale(0.1,-0.1)" stroke="none" fill="#936C3F"/>

<path d="M100 870 c-8 -5 -25 -10 -37 -10 -34 0 -28 -15 28 -73 l52 -52 -39 48 c-21 26 -42 47 -46 47 -4 0 -8 4 -8 8 0 4 21 14 46 21 47 14 49 14 204 -24 l25 -6 -25 12 c-34 15 -129 38 -160 38 -14 1 -32 -4 -40 -9z" transform="translate(0,92) scale(0.1,-0.1)" stroke="none" fill="#FBD984"/>

<path d="M480 210 c-53 -82 -154 -154 -208 -148 -21 2 -26 8 -24 23 2 11 5 34 7 50 l4 30 -8 -31 c-4 -17 -11 -36 -15 -43 -11 -17 12 -41 41 -41 57 0 181 97 226 178 28 50 13 38 -23 -18z" transform="translate(0,92) scale(0.1,-0.1)" stroke="none" fill="#936C3F"/>

<path d="M182 655 c47 -90 73 -167 89 -260 12 -68 8 -116 -23 -310 -2 -15 3 -21 24 -23 46 -5 146 58 190 121 14 21 4 14 -31 -21 -58 -58 -116 -92 -157 -92 -21 0 -25 3 -19 18 12 28 34 184 34 237 0 54 -20 159 -32 171 -4 4 -7 15 -7 24 0 20 -84 195 -98 204 -5 3 8 -28 30 -69z" transform="translate(0,92) scale(0.1,-0.1)" stroke="none" fill="#FBD984"/>

<path d="M242 710 c50 -69 89 -162 114 -280 13 -60 13 -130 -1 -225 -3 -16 0 -37 5 -45 8 -13 12 -11 27 10 91 126 123 257 87 359 -22 66 -53 129 -64 136 -6 4 -2 -9 8 -27 33 -59 62 -153 62 -203 0 -52 -29 -145 -63 -204 -23 -39 -46 -66 -52 -60 -2 2 1 44 6 94 11 98 3 163 -33 270 -26 77 -74 169 -101 192 -16 14 -15 10 5 -17z" transform="translate(0,92) scale(0.1,-0.1)" stroke="none" fill="#FBD984"/>

<path d="M83 857 c-30 -10 -45 -27 -25 -27 32 0 192 -259 192 -310 0 -9 3 -20 7 -24 12 -12 32 -117 32 -171 0 -53 -22 -209 -34 -238 -10 -24 34 -23 85 3 133 68 253 306 221 437 -48 187 -144 280 -341 329 -63 15 -92 15 -137 1z m176 -63 c107 -54 168 -129 215 -265 36 -102 4 -233 -87 -359 -15 -21 -19 -23 -27 -10 -5 8 -8 29 -5 45 14 95 14 165 1 225 -29 136 -71 228 -142 315 -25 32 -43 63 -40 71 7 19 4 19 85 -22z" transform="translate(0,92) scale(0.1,-0.1)" stroke="none" fill="#BED3B8"/>

</g>

<g id="3" transform="translate(180.0,0)scale(1,1)">

<path d="M355 720 c21 -22 41 -40 44 -40 3 0 -13 18 -34 40 -21 22 -41 40 -44 40 -3 0 13 -18 34 -40z" transform="translate(0,92) scale(0.1,-0.1)" stroke="none" fill="#FBD984"/>

<path d="M80 874 c-33 -13 -33 -14 -5 -9 17 4 46 10 65 14 35 9 35 9 5 9 -16 0 -46 -6 -65 -14z" transform="translate(0,92) scale(0.1,-0.1)" stroke="none" fill="#936C3F"/>

<path d="M465 435 c0 -46 3 -78 7 -71 4 6 8 38 8 71 0 33 -4 65 -8 72 -4 6 -7 -26 -7 -72z" transform="translate(0,92) scale(0.1,-0.1)" stroke="none" fill="#936C3F"/>

<path d="M418 774 c18 -16 44 -42 58 -59 l26 -30 -24 34 c-13 19 -40 46 -59 59 l-34 25 33 -29z" transform="translate(0,92) scale(0.1,-0.1)" stroke="none" fill="#FBD984"/>

<path d="M265 310 c0 -121 0 -123 9 -52 5 42 5 94 0 125 -8 44 -9 33 -9 -73z" transform="translate(0,92) scale(0.1,-0.1)" stroke="none" fill="#936C3F"/>

<path d="M180 810 c0 -10 59 -90 93 -125 20 -20 -7 21 -40 61 -19 23 -32 47 -31 54 2 7 -3 15 -9 17 -7 3 -13 -1 -13 -7z" transform="translate(0,92) scale(0.1,-0.1)" stroke="none" fill="#936C3F"/>

<path d="M173 814 c-4 -10 5 -26 23 -42 28 -27 28 -27 6 -1 -22 26 -29 49 -14 49 5 0 11 -3 15 -6 9 -10 107 -54 107 -48 0 4 -119 64 -127 64 -2 0 -6 -7 -10 -16z" transform="translate(0,92) scale(0.1,-0.1)" stroke="none" fill="#FBD984"/>

<path d="M369 245 c-3 -38 -5 -72 -3 -74 5 -6 30 23 43 49 l12 25 -20 -25 -20 -25 -3 60 -3 60 -6 -70z" transform="translate(0,92) scale(0.1,-0.1)" stroke="none" fill="#936C3F"/>

<path d="M290 763 c33 -23 91 -82 112 -113 9 -14 17 -20 17 -14 1 19 -89 114 -123 130 -31 14 -31 14 -6 -3z" transform="translate(0,92) scale(0.1,-0.1)" stroke="none" fill="#936C3F"/>

<path d="M547 567 c27 -76 27 -86 -12 -237 -5 -20 -3 -19 8 5 7 17 19 58 27 92 12 58 11 68 -10 133 -12 39 -26 73 -30 75 -5 3 3 -28 17 -68z" transform="translate(0,92) scale(0.1,-0.1)" stroke="none" fill="#FBD984"/>

<path d="M290 848 c14 -6 45 -21 70 -32 54 -25 129 -97 154 -149 10 -21 20 -36 23 -34 9 9 -45 91 -84 129 -38 36 -115 80 -163 92 l-25 6 25 -12z" transform="translate(0,92) scale(0.1,-0.1)" stroke="none" fill="#936C3F"/>

<path d="M31 851 c-1 -7 23 -39 52 -70 51 -55 113 -160 142 -238 7 -21 14 -31 14 -21 2 34 -98 213 -147 264 -27 27 -52 57 -55 65 -4 11 -6 11 -6 0z" transform="translate(0,92) scale(0.1,-0.1)" stroke="none" fill="#936C3F"/>

<path d="M100 870 c-8 -5 -25 -10 -37 -10 -34 0 -28 -15 28 -73 l52 -52 -39 48 c-21 26 -42 47 -46 47 -4 0 -8 4 -8 8 0 4 21 14 46 21 47 14 49 14 204 -24 l25 -6 -25 12 c-34 15 -129 38 -160 38 -14 1 -32 -4 -40 -9z" transform="translate(0,92) scale(0.1,-0.1)" stroke="none" fill="#FBD984"/>

<path d="M480 210 c-53 -82 -154 -154 -208 -148 -21 2 -26 8 -24 23 2 11 5 34 7 50 l4 30 -8 -31 c-4 -17 -11 -36 -15 -43 -11 -17 12 -41 41 -41 57 0 181 97 226 178 28 50 13 38 -23 -18z" transform="translate(0,92) scale(0.1,-0.1)" stroke="none" fill="#936C3F"/>

<path d="M182 655 c47 -90 73 -167 89 -260 12 -68 8 -116 -23 -310 -2 -15 3 -21 24 -23 46 -5 146 58 190 121 14 21 4 14 -31 -21 -58 -58 -116 -92 -157 -92 -21 0 -25 3 -19 18 12 28 34 184 34 237 0 54 -20 159 -32 171 -4 4 -7 15 -7 24 0 20 -84 195 -98 204 -5 3 8 -28 30 -69z" transform="translate(0,92) scale(0.1,-0.1)" stroke="none" fill="#FBD984"/>

<path d="M242 710 c50 -69 89 -162 114 -280 13 -60 13 -130 -1 -225 -3 -16 0 -37 5 -45 8 -13 12 -11 27 10 91 126 123 257 87 359 -22 66 -53 129 -64 136 -6 4 -2 -9 8 -27 33 -59 62 -153 62 -203 0 -52 -29 -145 -63 -204 -23 -39 -46 -66 -52 -60 -2 2 1 44 6 94 11 98 3 163 -33 270 -26 77 -74 169 -101 192 -16 14 -15 10 5 -17z" transform="translate(0,92) scale(0.1,-0.1)" stroke="none" fill="#FBD984"/>

<path d="M83 857 c-30 -10 -45 -27 -25 -27 32 0 192 -259 192 -310 0 -9 3 -20 7 -24 12 -12 32 -117 32 -171 0 -53 -22 -209 -34 -238 -10 -24 34 -23 85 3 133 68 253 306 221 437 -48 187 -144 280 -341 329 -63 15 -92 15 -137 1z m176 -63 c107 -54 168 -129 215 -265 36 -102 4 -233 -87 -359 -15 -21 -19 -23 -27 -10 -5 8 -8 29 -5 45 14 95 14 165 1 225 -29 136 -71 228 -142 315 -25 32 -43 63 -40 71 7 19 4 19 85 -22z" transform="translate(0,92) scale(0.1,-0.1)" stroke="none" fill="#BED3B8"/>

</g>

<g id="4" transform="translate(240.0,0)scale(1,1)">

<path d="M355 720 c21 -22 41 -40 44 -40 3 0 -13 18 -34 40 -21 22 -41 40 -44 40 -3 0 13 -18 34 -40z" transform="translate(0,92) scale(0.1,-0.1)" stroke="none" fill="#FBD984"/>

<path d="M80 874 c-33 -13 -33 -14 -5 -9 17 4 46 10 65 14 35 9 35 9 5 9 -16 0 -46 -6 -65 -14z" transform="translate(0,92) scale(0.1,-0.1)" stroke="none" fill="#936C3F"/>

<path d="M465 435 c0 -46 3 -78 7 -71 4 6 8 38 8 71 0 33 -4 65 -8 72 -4 6 -7 -26 -7 -72z" transform="translate(0,92) scale(0.1,-0.1)" stroke="none" fill="#936C3F"/>

<path d="M418 774 c18 -16 44 -42 58 -59 l26 -30 -24 34 c-13 19 -40 46 -59 59 l-34 25 33 -29z" transform="translate(0,92) scale(0.1,-0.1)" stroke="none" fill="#FBD984"/>

<path d="M265 310 c0 -121 0 -123 9 -52 5 42 5 94 0 125 -8 44 -9 33 -9 -73z" transform="translate(0,92) scale(0.1,-0.1)" stroke="none" fill="#936C3F"/>

<path d="M180 810 c0 -10 59 -90 93 -125 20 -20 -7 21 -40 61 -19 23 -32 47 -31 54 2 7 -3 15 -9 17 -7 3 -13 -1 -13 -7z" transform="translate(0,92) scale(0.1,-0.1)" stroke="none" fill="#936C3F"/>

<path d="M173 814 c-4 -10 5 -26 23 -42 28 -27 28 -27 6 -1 -22 26 -29 49 -14 49 5 0 11 -3 15 -6 9 -10 107 -54 107 -48 0 4 -119 64 -127 64 -2 0 -6 -7 -10 -16z" transform="translate(0,92) scale(0.1,-0.1)" stroke="none" fill="#FBD984"/>

<path d="M369 245 c-3 -38 -5 -72 -3 -74 5 -6 30 23 43 49 l12 25 -20 -25 -20 -25 -3 60 -3 60 -6 -70z" transform="translate(0,92) scale(0.1,-0.1)" stroke="none" fill="#936C3F"/>

<path d="M290 763 c33 -23 91 -82 112 -113 9 -14 17 -20 17 -14 1 19 -89 114 -123 130 -31 14 -31 14 -6 -3z" transform="translate(0,92) scale(0.1,-0.1)" stroke="none" fill="#936C3F"/>

<path d="M547 567 c27 -76 27 -86 -12 -237 -5 -20 -3 -19 8 5 7 17 19 58 27 92 12 58 11 68 -10 133 -12 39 -26 73 -30 75 -5 3 3 -28 17 -68z" transform="translate(0,92) scale(0.1,-0.1)" stroke="none" fill="#FBD984"/>

<path d="M290 848 c14 -6 45 -21 70 -32 54 -25 129 -97 154 -149 10 -21 20 -36 23 -34 9 9 -45 91 -84 129 -38 36 -115 80 -163 92 l-25 6 25 -12z" transform="translate(0,92) scale(0.1,-0.1)" stroke="none" fill="#936C3F"/>

<path d="M31 851 c-1 -7 23 -39 52 -70 51 -55 113 -160 142 -238 7 -21 14 -31 14 -21 2 34 -98 213 -147 264 -27 27 -52 57 -55 65 -4 11 -6 11 -6 0z" transform="translate(0,92) scale(0.1,-0.1)" stroke="none" fill="#936C3F"/>

<path d="M100 870 c-8 -5 -25 -10 -37 -10 -34 0 -28 -15 28 -73 l52 -52 -39 48 c-21 26 -42 47 -46 47 -4 0 -8 4 -8 8 0 4 21 14 46 21 47 14 49 14 204 -24 l25 -6 -25 12 c-34 15 -129 38 -160 38 -14 1 -32 -4 -40 -9z" transform="translate(0,92) scale(0.1,-0.1)" stroke="none" fill="#FBD984"/>

<path d="M480 210 c-53 -82 -154 -154 -208 -148 -21 2 -26 8 -24 23 2 11 5 34 7 50 l4 30 -8 -31 c-4 -17 -11 -36 -15 -43 -11 -17 12 -41 41 -41 57 0 181 97 226 178 28 50 13 38 -23 -18z" transform="translate(0,92) scale(0.1,-0.1)" stroke="none" fill="#936C3F"/>

<path d="M182 655 c47 -90 73 -167 89 -260 12 -68 8 -116 -23 -310 -2 -15 3 -21 24 -23 46 -5 146 58 190 121 14 21 4 14 -31 -21 -58 -58 -116 -92 -157 -92 -21 0 -25 3 -19 18 12 28 34 184 34 237 0 54 -20 159 -32 171 -4 4 -7 15 -7 24 0 20 -84 195 -98 204 -5 3 8 -28 30 -69z" transform="translate(0,92) scale(0.1,-0.1)" stroke="none" fill="#FBD984"/>

<path d="M242 710 c50 -69 89 -162 114 -280 13 -60 13 -130 -1 -225 -3 -16 0 -37 5 -45 8 -13 12 -11 27 10 91 126 123 257 87 359 -22 66 -53 129 -64 136 -6 4 -2 -9 8 -27 33 -59 62 -153 62 -203 0 -52 -29 -145 -63 -204 -23 -39 -46 -66 -52 -60 -2 2 1 44 6 94 11 98 3 163 -33 270 -26 77 -74 169 -101 192 -16 14 -15 10 5 -17z" transform="translate(0,92) scale(0.1,-0.1)" stroke="none" fill="#FBD984"/>

<path d="M83 857 c-30 -10 -45 -27 -25 -27 32 0 192 -259 192 -310 0 -9 3 -20 7 -24 12 -12 32 -117 32 -171 0 -53 -22 -209 -34 -238 -10 -24 34 -23 85 3 133 68 253 306 221 437 -48 187 -144 280 -341 329 -63 15 -92 15 -137 1z m176 -63 c107 -54 168 -129 215 -265 36 -102 4 -233 -87 -359 -15 -21 -19 -23 -27 -10 -5 8 -8 29 -5 45 14 95 14 165 1 225 -29 136 -71 228 -142 315 -25 32 -43 63 -40 71 7 19 4 19 85 -22z" transform="translate(0,92) scale(0.1,-0.1)" stroke="none" fill="#BED3B8"/>

</g>

</g>
<g id="row1" transform="translate(8,92.0)">
<g id="0" transform="translate(0.0,0)scale(1,1)">

<path d="M355 720 c21 -22 41 -40 44 -40 3 0 -13 18 -34 40 -21 22 -41 40 -44 40 -3 0 13 -18 34 -40z" transform="translate(0,92) scale(0.1,-0.1)" stroke="none" fill="#FBD984"/>

<path d="M80 874 c-33 -13 -33 -14 -5 -9 17 4 46 10 65 14 35 9 35 9 5 9 -16 0 -46 -6 -65 -14z" transform="translate(0,92) scale(0.1,-0.1)" stroke="none" fill="#936C3F"/>

<path d="M465 435 c0 -46 3 -78 7 -71 4 6 8 38 8 71 0 33 -4 65 -8 72 -4 6 -7 -26 -7 -72z" transform="translate(0,92) scale(0.1,-0.1)" stroke="none" fill="#936C3F"/>

<path d="M418 774 c18 -16 44 -42 58 -59 l26 -30 -24 34 c-13 19 -40 46 -59 59 l-34 25 33 -29z" transform="translate(0,92) scale(0.1,-0.1)" stroke="none" fill="#FBD984"/>

<path d="M265 310 c0 -121 0 -123 9 -52 5 42 5 94 0 125 -8 44 -9 33 -9 -73z" transform="translate(0,92) scale(0.1,-0.1)" stroke="none" fill="#936C3F"/>

<path d="M180 810 c0 -10 59 -90 93 -125 20 -20 -7 21 -40 61 -19 23 -32 47 -31 54 2 7 -3 15 -9 17 -7 3 -13 -1 -13 -7z" transform="translate(0,92) scale(0.1,-0.1)" stroke="none" fill="#936C3F"/>

<path d="M173 814 c-4 -10 5 -26 23 -42 28 -27 28 -27 6 -1 -22 26 -29 49 -14 49 5 0 11 -3 15 -6 9 -10 107 -54 107 -48 0 4 -119 64 -127 64 -2 0 -6 -7 -10 -16z" transform="translate(0,92) scale(0.1,-0.1)" stroke="none" fill="#FBD984"/>

<path d="M369 245 c-3 -38 -5 -72 -3 -74 5 -6 30 23 43 49 l12 25 -20 -25 -20 -25 -3 60 -3 60 -6 -70z" transform="translate(0,92) scale(0.1,-0.1)" stroke="none" fill="#936C3F"/>

<path d="M290 763 c33 -23 91 -82 112 -113 9 -14 17 -20 17 -14 1 19 -89 114 -123 130 -31 14 -31 14 -6 -3z" transform="translate(0,92) scale(0.1,-0.1)" stroke="none" fill="#936C3F"/>

<path d="M547 567 c27 -76 27 -86 -12 -237 -5 -20 -3 -19 8 5 7 17 19 58 27 92 12 58 11 68 -10 133 -12 39 -26 73 -30 75 -5 3 3 -28 17 -68z" transform="translate(0,92) scale(0.1,-0.1)" stroke="none" fill="#FBD984"/>

<path d="M290 848 c14 -6 45 -21 70 -32 54 -25 129 -97 154 -149 10 -21 20 -36 23 -34 9 9 -45 91 -84 129 -38 36 -115 80 -163 92 l-25 6 25 -12z" transform="translate(0,92) scale(0.1,-0.1)" stroke="none" fill="#936C3F"/>

<path d="M31 851 c-1 -7 23 -39 52 -70 51 -55 113 -160 142 -238 7 -21 14 -31 14 -21 2 34 -98 213 -147 264 -27 27 -52 57 -55 65 -4 11 -6 11 -6 0z" transform="translate(0,92) scale(0.1,-0.1)" stroke="none" fill="#936C3F"/>

<path d="M100 870 c-8 -5 -25 -10 -37 -10 -34 0 -28 -15 28 -73 l52 -52 -39 48 c-21 26 -42 47 -46 47 -4 0 -8 4 -8 8 0 4 21 14 46 21 47 14 49 14 204 -24 l25 -6 -25 12 c-34 15 -129 38 -160 38 -14 1 -32 -4 -40 -9z" transform="translate(0,92) scale(0.1,-0.1)" stroke="none" fill="#FBD984"/>

<path d="M480 210 c-53 -82 -154 -154 -208 -148 -21 2 -26 8 -24 23 2 11 5 34 7 50 l4 30 -8 -31 c-4 -17 -11 -36 -15 -43 -11 -17 12 -41 41 -41 57 0 181 97 226 178 28 50 13 38 -23 -18z" transform="translate(0,92) scale(0.1,-0.1)" stroke="none" fill="#936C3F"/>

<path d="M182 655 c47 -90 73 -167 89 -260 12 -68 8 -116 -23 -310 -2 -15 3 -21 24 -23 46 -5 146 58 190 121 14 21 4 14 -31 -21 -58 -58 -116 -92 -157 -92 -21 0 -25 3 -19 18 12 28 34 184 34 237 0 54 -20 159 -32 171 -4 4 -7 15 -7 24 0 20 -84 195 -98 204 -5 3 8 -28 30 -69z" transform="translate(0,92) scale(0.1,-0.1)" stroke="none" fill="#FBD984"/>

<path d="M242 710 c50 -69 89 -162 114 -280 13 -60 13 -130 -1 -225 -3 -16 0 -37 5 -45 8 -13 12 -11 27 10 91 126 123 257 87 359 -22 66 -53 129 -64 136 -6 4 -2 -9 8 -27 33 -59 62 -153 62 -203 0 -52 -29 -145 -63 -204 -23 -39 -46 -66 -52 -60 -2 2 1 44 6 94 11 98 3 163 -33 270 -26 77 -74 169 -101 192 -16 14 -15 10 5 -17z" transform="translate(0,92) scale(0.1,-0.1)" stroke="none" fill="#FBD984"/>

<path d="M83 857 c-30 -10 -45 -27 -25 -27 32 0 192 -259 192 -310 0 -9 3 -20 7 -24 12 -12 32 -117 32 -171 0 -53 -22 -209 -34 -238 -10 -24 34 -23 85 3 133 68 253 306 221 437 -48 187 -144 280 -341 329 -63 15 -92 15 -137 1z m176 -63 c107 -54 168 -129 215 -265 36 -102 4 -233 -87 -359 -15 -21 -19 -23 -27 -10 -5 8 -8 29 -5 45 14 95 14 165 1 225 -29 136 -71 228 -142 315 -25 32 -43 63 -40 71 7 19 4 19 85 -22z" transform="translate(0,92) scale(0.1,-0.1)" stroke="none" fill="#BED3B8"/>

</g>

<g id="1" transform="translate(60.0,0)scale(1,1)">

<path d="M355 720 c21 -22 41 -40 44 -40 3 0 -13 18 -34 40 -21 22 -41 40 -44 40 -3 0 13 -18 34 -40z" transform="translate(0,92) scale(0.1,-0.1)" stroke="none" fill="#FBD984"/>

<path d="M80 874 c-33 -13 -33 -14 -5 -9 17 4 46 10 65 14 35 9 35 9 5 9 -16 0 -46 -6 -65 -14z" transform="translate(0,92) scale(0.1,-0.1)" stroke="none" fill="#936C3F"/>

<path d="M465 435 c0 -46 3 -78 7 -71 4 6 8 38 8 71 0 33 -4 65 -8 72 -4 6 -7 -26 -7 -72z" transform="translate(0,92) scale(0.1,-0.1)" stroke="none" fill="#936C3F"/>

<path d="M418 774 c18 -16 44 -42 58 -59 l26 -30 -24 34 c-13 19 -40 46 -59 59 l-34 25 33 -29z" transform="translate(0,92) scale(0.1,-0.1)" stroke="none" fill="#FBD984"/>

<path d="M265 310 c0 -121 0 -123 9 -52 5 42 5 94 0 125 -8 44 -9 33 -9 -73z" transform="translate(0,92) scale(0.1,-0.1)" stroke="none" fill="#936C3F"/>

<path d="M180 810 c0 -10 59 -90 93 -125 20 -20 -7 21 -40 61 -19 23 -32 47 -31 54 2 7 -3 15 -9 17 -7 3 -13 -1 -13 -7z" transform="translate(0,92) scale(0.1,-0.1)" stroke="none" fill="#936C3F"/>

<path d="M173 814 c-4 -10 5 -26 23 -42 28 -27 28 -27 6 -1 -22 26 -29 49 -14 49 5 0 11 -3 15 -6 9 -10 107 -54 107 -48 0 4 -119 64 -127 64 -2 0 -6 -7 -10 -16z" transform="translate(0,92) scale(0.1,-0.1)" stroke="none" fill="#FBD984"/>

<path d="M369 245 c-3 -38 -5 -72 -3 -74 5 -6 30 23 43 49 l12 25 -20 -25 -20 -25 -3 60 -3 60 -6 -70z" transform="translate(0,92) scale(0.1,-0.1)" stroke="none" fill="#936C3F"/>

<path d="M290 763 c33 -23 91 -82 112 -113 9 -14 17 -20 17 -14 1 19 -89 114 -123 130 -31 14 -31 14 -6 -3z" transform="translate(0,92) scale(0.1,-0.1)" stroke="none" fill="#936C3F"/>

<path d="M547 567 c27 -76 27 -86 -12 -237 -5 -20 -3 -19 8 5 7 17 19 58 27 92 12 58 11 68 -10 133 -12 39 -26 73 -30 75 -5 3 3 -28 17 -68z" transform="translate(0,92) scale(0.1,-0.1)" stroke="none" fill="#FBD984"/>

<path d="M290 848 c14 -6 45 -21 70 -32 54 -25 129 -97 154 -149 10 -21 20 -36 23 -34 9 9 -45 91 -84 129 -38 36 -115 80 -163 92 l-25 6 25 -12z" transform="translate(0,92) scale(0.1,-0.1)" stroke="none" fill="#936C3F"/>

<path d="M31 851 c-1 -7 23 -39 52 -70 51 -55 113 -160 142 -238 7 -21 14 -31 14 -21 2 34 -98 213 -147 264 -27 27 -52 57 -55 65 -4 11 -6 11 -6 0z" transform="translate(0,92) scale(0.1,-0.1)" stroke="none" fill="#936C3F"/>

<path d="M100 870 c-8 -5 -25 -10 -37 -10 -34 0 -28 -15 28 -73 l52 -52 -39 48 c-21 26 -42 47 -46 47 -4 0 -8 4 -8 8 0 4 21 14 46 21 47 14 49 14 204 -24 l25 -6 -25 12 c-34 15 -129 38 -160 38 -14 1 -32 -4 -40 -9z" transform="translate(0,92) scale(0.1,-0.1)" stroke="none" fill="#FBD984"/>

<path d="M480 210 c-53 -82 -154 -154 -208 -148 -21 2 -26 8 -24 23 2 11 5 34 7 50 l4 30 -8 -31 c-4 -17 -11 -36 -15 -43 -11 -17 12 -41 41 -41 57 0 181 97 226 178 28 50 13 38 -23 -18z" transform="translate(0,92) scale(0.1,-0.1)" stroke="none" fill="#936C3F"/>

<path d="M182 655 c47 -90 73 -167 89 -260 12 -68 8 -116 -23 -310 -2 -15 3 -21 24 -23 46 -5 146 58 190 121 14 21 4 14 -31 -21 -58 -58 -116 -92 -157 -92 -21 0 -25 3 -19 18 12 28 34 184 34 237 0 54 -20 159 -32 171 -4 4 -7 15 -7 24 0 20 -84 195 -98 204 -5 3 8 -28 30 -69z" transform="translate(0,92) scale(0.1,-0.1)" stroke="none" fill="#FBD984"/>

<path d="M242 710 c50 -69 89 -162 114 -280 13 -60 13 -130 -1 -225 -3 -16 0 -37 5 -45 8 -13 12 -11 27 10 91 126 123 257 87 359 -22 66 -53 129 -64 136 -6 4 -2 -9 8 -27 33 -59 62 -153 62 -203 0 -52 -29 -145 -63 -204 -23 -39 -46 -66 -52 -60 -2 2 1 44 6 94 11 98 3 163 -33 270 -26 77 -74 169 -101 192 -16 14 -15 10 5 -17z" transform="translate(0,92) scale(0.1,-0.1)" stroke="none" fill="#FBD984"/>

<path d="M83 857 c-30 -10 -45 -27 -25 -27 32 0 192 -259 192 -310 0 -9 3 -20 7 -24 12 -12 32 -117 32 -171 0 -53 -22 -209 -34 -238 -10 -24 34 -23 85 3 133 68 253 306 221 437 -48 187 -144 280 -341 329 -63 15 -92 15 -137 1z m176 -63 c107 -54 168 -129 215 -265 36 -102 4 -233 -87 -359 -15 -21 -19 -23 -27 -10 -5 8 -8 29 -5 45 14 95 14 165 1 225 -29 136 -71 228 -142 315 -25 32 -43 63 -40 71 7 19 4 19 85 -22z" transform="translate(0,92) scale(0.1,-0.1)" stroke="none" fill="#BED3B8"/>

</g>

<g id="2" transform="translate(120.0,0)scale(1,1)">

<path d="M355 720 c21 -22 41 -40 44 -40 3 0 -13 18 -34 40 -21 22 -41 40 -44 40 -3 0 13 -18 34 -40z" transform="translate(0,92) scale(0.1,-0.1)" stroke="none" fill="#FBD984"/>

<path d="M80 874 c-33 -13 -33 -14 -5 -9 17 4 46 10 65 14 35 9 35 9 5 9 -16 0 -46 -6 -65 -14z" transform="translate(0,92) scale(0.1,-0.1)" stroke="none" fill="#936C3F"/>

<path d="M465 435 c0 -46 3 -78 7 -71 4 6 8 38 8 71 0 33 -4 65 -8 72 -4 6 -7 -26 -7 -72z" transform="translate(0,92) scale(0.1,-0.1)" stroke="none" fill="#936C3F"/>

<path d="M418 774 c18 -16 44 -42 58 -59 l26 -30 -24 34 c-13 19 -40 46 -59 59 l-34 25 33 -29z" transform="translate(0,92) scale(0.1,-0.1)" stroke="none" fill="#FBD984"/>

<path d="M265 310 c0 -121 0 -123 9 -52 5 42 5 94 0 125 -8 44 -9 33 -9 -73z" transform="translate(0,92) scale(0.1,-0.1)" stroke="none" fill="#936C3F"/>

<path d="M180 810 c0 -10 59 -90 93 -125 20 -20 -7 21 -40 61 -19 23 -32 47 -31 54 2 7 -3 15 -9 17 -7 3 -13 -1 -13 -7z" transform="translate(0,92) scale(0.1,-0.1)" stroke="none" fill="#936C3F"/>

<path d="M173 814 c-4 -10 5 -26 23 -42 28 -27 28 -27 6 -1 -22 26 -29 49 -14 49 5 0 11 -3 15 -6 9 -10 107 -54 107 -48 0 4 -119 64 -127 64 -2 0 -6 -7 -10 -16z" transform="translate(0,92) scale(0.1,-0.1)" stroke="none" fill="#FBD984"/>

<path d="M369 245 c-3 -38 -5 -72 -3 -74 5 -6 30 23 43 49 l12 25 -20 -25 -20 -25 -3 60 -3 60 -6 -70z" transform="translate(0,92) scale(0.1,-0.1)" stroke="none" fill="#936C3F"/>

<path d="M290 763 c33 -23 91 -82 112 -113 9 -14 17 -20 17 -14 1 19 -89 114 -123 130 -31 14 -31 14 -6 -3z" transform="translate(0,92) scale(0.1,-0.1)" stroke="none" fill="#936C3F"/>

<path d="M547 567 c27 -76 27 -86 -12 -237 -5 -20 -3 -19 8 5 7 17 19 58 27 92 12 58 11 68 -10 133 -12 39 -26 73 -30 75 -5 3 3 -28 17 -68z" transform="translate(0,92) scale(0.1,-0.1)" stroke="none" fill="#FBD984"/>

<path d="M290 848 c14 -6 45 -21 70 -32 54 -25 129 -97 154 -149 10 -21 20 -36 23 -34 9 9 -45 91 -84 129 -38 36 -115 80 -163 92 l-25 6 25 -12z" transform="translate(0,92) scale(0.1,-0.1)" stroke="none" fill="#936C3F"/>

<path d="M31 851 c-1 -7 23 -39 52 -70 51 -55 113 -160 142 -238 7 -21 14 -31 14 -21 2 34 -98 213 -147 264 -27 27 -52 57 -55 65 -4 11 -6 11 -6 0z" transform="translate(0,92) scale(0.1,-0.1)" stroke="none" fill="#936C3F"/>

<path d="M100 870 c-8 -5 -25 -10 -37 -10 -34 0 -28 -15 28 -73 l52 -52 -39 48 c-21 26 -42 47 -46 47 -4 0 -8 4 -8 8 0 4 21 14 46 21 47 14 49 14 204 -24 l25 -6 -25 12 c-34 15 -129 38 -160 38 -14 1 -32 -4 -40 -9z" transform="translate(0,92) scale(0.1,-0.1)" stroke="none" fill="#FBD984"/>

<path d="M480 210 c-53 -82 -154 -154 -208 -148 -21 2 -26 8 -24 23 2 11 5 34 7 50 l4 30 -8 -31 c-4 -17 -11 -36 -15 -43 -11 -17 12 -41 41 -41 57 0 181 97 226 178 28 50 13 38 -23 -18z" transform="translate(0,92) scale(0.1,-0.1)" stroke="none" fill="#936C3F"/>

<path d="M182 655 c47 -90 73 -167 89 -260 12 -68 8 -116 -23 -310 -2 -15 3 -21 24 -23 46 -5 146 58 190 121 14 21 4 14 -31 -21 -58 -58 -116 -92 -157 -92 -21 0 -25 3 -19 18 12 28 34 184 34 237 0 54 -20 159 -32 171 -4 4 -7 15 -7 24 0 20 -84 195 -98 204 -5 3 8 -28 30 -69z" transform="translate(0,92) scale(0.1,-0.1)" stroke="none" fill="#FBD984"/>

<path d="M242 710 c50 -69 89 -162 114 -280 13 -60 13 -130 -1 -225 -3 -16 0 -37 5 -45 8 -13 12 -11 27 10 91 126 123 257 87 359 -22 66 -53 129 -64 136 -6 4 -2 -9 8 -27 33 -59 62 -153 62 -203 0 -52 -29 -145 -63 -204 -23 -39 -46 -66 -52 -60 -2 2 1 44 6 94 11 98 3 163 -33 270 -26 77 -74 169 -101 192 -16 14 -15 10 5 -17z" transform="translate(0,92) scale(0.1,-0.1)" stroke="none" fill="#FBD984"/>

<path d="M83 857 c-30 -10 -45 -27 -25 -27 32 0 192 -259 192 -310 0 -9 3 -20 7 -24 12 -12 32 -117 32 -171 0 -53 -22 -209 -34 -238 -10 -24 34 -23 85 3 133 68 253 306 221 437 -48 187 -144 280 -341 329 -63 15 -92 15 -137 1z m176 -63 c107 -54 168 -129 215 -265 36 -102 4 -233 -87 -359 -15 -21 -19 -23 -27 -10 -5 8 -8 29 -5 45 14 95 14 165 1 225 -29 136 -71 228 -142 315 -25 32 -43 63 -40 71 7 19 4 19 85 -22z" transform="translate(0,92) scale(0.1,-0.1)" stroke="none" fill="#BED3B8"/>

</g>

<g id="3" transform="translate(180.0,0)scale(1,1)">

<path d="M355 720 c21 -22 41 -40 44 -40 3 0 -13 18 -34 40 -21 22 -41 40 -44 40 -3 0 13 -18 34 -40z" transform="translate(0,92) scale(0.1,-0.1)" stroke="none" fill="#FBD984"/>

<path d="M80 874 c-33 -13 -33 -14 -5 -9 17 4 46 10 65 14 35 9 35 9 5 9 -16 0 -46 -6 -65 -14z" transform="translate(0,92) scale(0.1,-0.1)" stroke="none" fill="#936C3F"/>

<path d="M465 435 c0 -46 3 -78 7 -71 4 6 8 38 8 71 0 33 -4 65 -8 72 -4 6 -7 -26 -7 -72z" transform="translate(0,92) scale(0.1,-0.1)" stroke="none" fill="#936C3F"/>

<path d="M418 774 c18 -16 44 -42 58 -59 l26 -30 -24 34 c-13 19 -40 46 -59 59 l-34 25 33 -29z" transform="translate(0,92) scale(0.1,-0.1)" stroke="none" fill="#FBD984"/>

<path d="M265 310 c0 -121 0 -123 9 -52 5 42 5 94 0 125 -8 44 -9 33 -9 -73z" transform="translate(0,92) scale(0.1,-0.1)" stroke="none" fill="#936C3F"/>

<path d="M180 810 c0 -10 59 -90 93 -125 20 -20 -7 21 -40 61 -19 23 -32 47 -31 54 2 7 -3 15 -9 17 -7 3 -13 -1 -13 -7z" transform="translate(0,92) scale(0.1,-0.1)" stroke="none" fill="#936C3F"/>

<path d="M173 814 c-4 -10 5 -26 23 -42 28 -27 28 -27 6 -1 -22 26 -29 49 -14 49 5 0 11 -3 15 -6 9 -10 107 -54 107 -48 0 4 -119 64 -127 64 -2 0 -6 -7 -10 -16z" transform="translate(0,92) scale(0.1,-0.1)" stroke="none" fill="#FBD984"/>

<path d="M369 245 c-3 -38 -5 -72 -3 -74 5 -6 30 23 43 49 l12 25 -20 -25 -20 -25 -3 60 -3 60 -6 -70z" transform="translate(0,92) scale(0.1,-0.1)" stroke="none" fill="#936C3F"/>

<path d="M290 763 c33 -23 91 -82 112 -113 9 -14 17 -20 17 -14 1 19 -89 114 -123 130 -31 14 -31 14 -6 -3z" transform="translate(0,92) scale(0.1,-0.1)" stroke="none" fill="#936C3F"/>

<path d="M547 567 c27 -76 27 -86 -12 -237 -5 -20 -3 -19 8 5 7 17 19 58 27 92 12 58 11 68 -10 133 -12 39 -26 73 -30 75 -5 3 3 -28 17 -68z" transform="translate(0,92) scale(0.1,-0.1)" stroke="none" fill="#FBD984"/>

<path d="M290 848 c14 -6 45 -21 70 -32 54 -25 129 -97 154 -149 10 -21 20 -36 23 -34 9 9 -45 91 -84 129 -38 36 -115 80 -163 92 l-25 6 25 -12z" transform="translate(0,92) scale(0.1,-0.1)" stroke="none" fill="#936C3F"/>

<path d="M31 851 c-1 -7 23 -39 52 -70 51 -55 113 -160 142 -238 7 -21 14 -31 14 -21 2 34 -98 213 -147 264 -27 27 -52 57 -55 65 -4 11 -6 11 -6 0z" transform="translate(0,92) scale(0.1,-0.1)" stroke="none" fill="#936C3F"/>

<path d="M100 870 c-8 -5 -25 -10 -37 -10 -34 0 -28 -15 28 -73 l52 -52 -39 48 c-21 26 -42 47 -46 47 -4 0 -8 4 -8 8 0 4 21 14 46 21 47 14 49 14 204 -24 l25 -6 -25 12 c-34 15 -129 38 -160 38 -14 1 -32 -4 -40 -9z" transform="translate(0,92) scale(0.1,-0.1)" stroke="none" fill="#FBD984"/>

<path d="M480 210 c-53 -82 -154 -154 -208 -148 -21 2 -26 8 -24 23 2 11 5 34 7 50 l4 30 -8 -31 c-4 -17 -11 -36 -15 -43 -11 -17 12 -41 41 -41 57 0 181 97 226 178 28 50 13 38 -23 -18z" transform="translate(0,92) scale(0.1,-0.1)" stroke="none" fill="#936C3F"/>

<path d="M182 655 c47 -90 73 -167 89 -260 12 -68 8 -116 -23 -310 -2 -15 3 -21 24 -23 46 -5 146 58 190 121 14 21 4 14 -31 -21 -58 -58 -116 -92 -157 -92 -21 0 -25 3 -19 18 12 28 34 184 34 237 0 54 -20 159 -32 171 -4 4 -7 15 -7 24 0 20 -84 195 -98 204 -5 3 8 -28 30 -69z" transform="translate(0,92) scale(0.1,-0.1)" stroke="none" fill="#FBD984"/>

<path d="M242 710 c50 -69 89 -162 114 -280 13 -60 13 -130 -1 -225 -3 -16 0 -37 5 -45 8 -13 12 -11 27 10 91 126 123 257 87 359 -22 66 -53 129 -64 136 -6 4 -2 -9 8 -27 33 -59 62 -153 62 -203 0 -52 -29 -145 -63 -204 -23 -39 -46 -66 -52 -60 -2 2 1 44 6 94 11 98 3 163 -33 270 -26 77 -74 169 -101 192 -16 14 -15 10 5 -17z" transform="translate(0,92) scale(0.1,-0.1)" stroke="none" fill="#FBD984"/>

<path d="M83 857 c-30 -10 -45 -27 -25 -27 32 0 192 -259 192 -310 0 -9 3 -20 7 -24 12 -12 32 -117 32 -171 0 -53 -22 -209 -34 -238 -10 -24 34 -23 85 3 133 68 253 306 221 437 -48 187 -144 280 -341 329 -63 15 -92 15 -137 1z m176 -63 c107 -54 168 -129 215 -265 36 -102 4 -233 -87 -359 -15 -21 -19 -23 -27 -10 -5 8 -8 29 -5 45 14 95 14 165 1 225 -29 136 -71 228 -142 315 -25 32 -43 63 -40 71 7 19 4 19 85 -22z" transform="translate(0,92) scale(0.1,-0.1)" stroke="none" fill="#BED3B8"/>

</g>

<g id="4" transform="translate(240.0,0)scale(1,1)">

<path d="M355 720 c21 -22 41 -40 44 -40 3 0 -13 18 -34 40 -21 22 -41 40 -44 40 -3 0 13 -18 34 -40z" transform="translate(0,92) scale(0.1,-0.1)" stroke="none" fill="#FBD984"/>

<path d="M80 874 c-33 -13 -33 -14 -5 -9 17 4 46 10 65 14 35 9 35 9 5 9 -16 0 -46 -6 -65 -14z" transform="translate(0,92) scale(0.1,-0.1)" stroke="none" fill="#936C3F"/>

<path d="M465 435 c0 -46 3 -78 7 -71 4 6 8 38 8 71 0 33 -4 65 -8 72 -4 6 -7 -26 -7 -72z" transform="translate(0,92) scale(0.1,-0.1)" stroke="none" fill="#936C3F"/>

<path d="M418 774 c18 -16 44 -42 58 -59 l26 -30 -24 34 c-13 19 -40 46 -59 59 l-34 25 33 -29z" transform="translate(0,92) scale(0.1,-0.1)" stroke="none" fill="#FBD984"/>

<path d="M265 310 c0 -121 0 -123 9 -52 5 42 5 94 0 125 -8 44 -9 33 -9 -73z" transform="translate(0,92) scale(0.1,-0.1)" stroke="none" fill="#936C3F"/>

<path d="M180 810 c0 -10 59 -90 93 -125 20 -20 -7 21 -40 61 -19 23 -32 47 -31 54 2 7 -3 15 -9 17 -7 3 -13 -1 -13 -7z" transform="translate(0,92) scale(0.1,-0.1)" stroke="none" fill="#936C3F"/>

<path d="M173 814 c-4 -10 5 -26 23 -42 28 -27 28 -27 6 -1 -22 26 -29 49 -14 49 5 0 11 -3 15 -6 9 -10 107 -54 107 -48 0 4 -119 64 -127 64 -2 0 -6 -7 -10 -16z" transform="translate(0,92) scale(0.1,-0.1)" stroke="none" fill="#FBD984"/>

<path d="M369 245 c-3 -38 -5 -72 -3 -74 5 -6 30 23 43 49 l12 25 -20 -25 -20 -25 -3 60 -3 60 -6 -70z" transform="translate(0,92) scale(0.1,-0.1)" stroke="none" fill="#936C3F"/>

<path d="M290 763 c33 -23 91 -82 112 -113 9 -14 17 -20 17 -14 1 19 -89 114 -123 130 -31 14 -31 14 -6 -3z" transform="translate(0,92) scale(0.1,-0.1)" stroke="none" fill="#936C3F"/>

<path d="M547 567 c27 -76 27 -86 -12 -237 -5 -20 -3 -19 8 5 7 17 19 58 27 92 12 58 11 68 -10 133 -12 39 -26 73 -30 75 -5 3 3 -28 17 -68z" transform="translate(0,92) scale(0.1,-0.1)" stroke="none" fill="#FBD984"/>

<path d="M290 848 c14 -6 45 -21 70 -32 54 -25 129 -97 154 -149 10 -21 20 -36 23 -34 9 9 -45 91 -84 129 -38 36 -115 80 -163 92 l-25 6 25 -12z" transform="translate(0,92) scale(0.1,-0.1)" stroke="none" fill="#936C3F"/>

<path d="M31 851 c-1 -7 23 -39 52 -70 51 -55 113 -160 142 -238 7 -21 14 -31 14 -21 2 34 -98 213 -147 264 -27 27 -52 57 -55 65 -4 11 -6 11 -6 0z" transform="translate(0,92) scale(0.1,-0.1)" stroke="none" fill="#936C3F"/>

<path d="M100 870 c-8 -5 -25 -10 -37 -10 -34 0 -28 -15 28 -73 l52 -52 -39 48 c-21 26 -42 47 -46 47 -4 0 -8 4 -8 8 0 4 21 14 46 21 47 14 49 14 204 -24 l25 -6 -25 12 c-34 15 -129 38 -160 38 -14 1 -32 -4 -40 -9z" transform="translate(0,92) scale(0.1,-0.1)" stroke="none" fill="#FBD984"/>

<path d="M480 210 c-53 -82 -154 -154 -208 -148 -21 2 -26 8 -24 23 2 11 5 34 7 50 l4 30 -8 -31 c-4 -17 -11 -36 -15 -43 -11 -17 12 -41 41 -41 57 0 181 97 226 178 28 50 13 38 -23 -18z" transform="translate(0,92) scale(0.1,-0.1)" stroke="none" fill="#936C3F"/>

<path d="M182 655 c47 -90 73 -167 89 -260 12 -68 8 -116 -23 -310 -2 -15 3 -21 24 -23 46 -5 146 58 190 121 14 21 4 14 -31 -21 -58 -58 -116 -92 -157 -92 -21 0 -25 3 -19 18 12 28 34 184 34 237 0 54 -20 159 -32 171 -4 4 -7 15 -7 24 0 20 -84 195 -98 204 -5 3 8 -28 30 -69z" transform="translate(0,92) scale(0.1,-0.1)" stroke="none" fill="#FBD984"/>

<path d="M242 710 c50 -69 89 -162 114 -280 13 -60 13 -130 -1 -225 -3 -16 0 -37 5 -45 8 -13 12 -11 27 10 91 126 123 257 87 359 -22 66 -53 129 -64 136 -6 4 -2 -9 8 -27 33 -59 62 -153 62 -203 0 -52 -29 -145 -63 -204 -23 -39 -46 -66 -52 -60 -2 2 1 44 6 94 11 98 3 163 -33 270 -26 77 -74 169 -101 192 -16 14 -15 10 5 -17z" transform="translate(0,92) scale(0.1,-0.1)" stroke="none" fill="#FBD984"/>

<path d="M83 857 c-30 -10 -45 -27 -25 -27 32 0 192 -259 192 -310 0 -9 3 -20 7 -24 12 -12 32 -117 32 -171 0 -53 -22 -209 -34 -238 -10 -24 34 -23 85 3 133 68 253 306 221 437 -48 187 -144 280 -341 329 -63 15 -92 15 -137 1z m176 -63 c107 -54 168 -129 215 -265 36 -102 4 -233 -87 -359 -15 -21 -19 -23 -27 -10 -5 8 -8 29 -5 45 14 95 14 165 1 225 -29 136 -71 228 -142 315 -25 32 -43 63 -40 71 7 19 4 19 85 -22z" transform="translate(0,92) scale(0.1,-0.1)" stroke="none" fill="#BED3B8"/>

</g>

</g>
<g id="row2" transform="translate(8,184.0)">
<g id="0" transform="translate(0.0,0)scale(1,1)">

<path d="M355 720 c21 -22 41 -40 44 -40 3 0 -13 18 -34 40 -21 22 -41 40 -44 40 -3 0 13 -18 34 -40z" transform="translate(0,92) scale(0.1,-0.1)" stroke="none" fill="#FBD984"/>

<path d="M80 874 c-33 -13 -33 -14 -5 -9 17 4 46 10 65 14 35 9 35 9 5 9 -16 0 -46 -6 -65 -14z" transform="translate(0,92) scale(0.1,-0.1)" stroke="none" fill="#936C3F"/>

<path d="M465 435 c0 -46 3 -78 7 -71 4 6 8 38 8 71 0 33 -4 65 -8 72 -4 6 -7 -26 -7 -72z" transform="translate(0,92) scale(0.1,-0.1)" stroke="none" fill="#936C3F"/>

<path d="M418 774 c18 -16 44 -42 58 -59 l26 -30 -24 34 c-13 19 -40 46 -59 59 l-34 25 33 -29z" transform="translate(0,92) scale(0.1,-0.1)" stroke="none" fill="#FBD984"/>

<path d="M265 310 c0 -121 0 -123 9 -52 5 42 5 94 0 125 -8 44 -9 33 -9 -73z" transform="translate(0,92) scale(0.1,-0.1)" stroke="none" fill="#936C3F"/>

<path d="M180 810 c0 -10 59 -90 93 -125 20 -20 -7 21 -40 61 -19 23 -32 47 -31 54 2 7 -3 15 -9 17 -7 3 -13 -1 -13 -7z" transform="translate(0,92) scale(0.1,-0.1)" stroke="none" fill="#936C3F"/>

<path d="M173 814 c-4 -10 5 -26 23 -42 28 -27 28 -27 6 -1 -22 26 -29 49 -14 49 5 0 11 -3 15 -6 9 -10 107 -54 107 -48 0 4 -119 64 -127 64 -2 0 -6 -7 -10 -16z" transform="translate(0,92) scale(0.1,-0.1)" stroke="none" fill="#FBD984"/>

<path d="M369 245 c-3 -38 -5 -72 -3 -74 5 -6 30 23 43 49 l12 25 -20 -25 -20 -25 -3 60 -3 60 -6 -70z" transform="translate(0,92) scale(0.1,-0.1)" stroke="none" fill="#936C3F"/>

<path d="M290 763 c33 -23 91 -82 112 -113 9 -14 17 -20 17 -14 1 19 -89 114 -123 130 -31 14 -31 14 -6 -3z" transform="translate(0,92) scale(0.1,-0.1)" stroke="none" fill="#936C3F"/>

<path d="M547 567 c27 -76 27 -86 -12 -237 -5 -20 -3 -19 8 5 7 17 19 58 27 92 12 58 11 68 -10 133 -12 39 -26 73 -30 75 -5 3 3 -28 17 -68z" transform="translate(0,92) scale(0.1,-0.1)" stroke="none" fill="#FBD984"/>

<path d="M290 848 c14 -6 45 -21 70 -32 54 -25 129 -97 154 -149 10 -21 20 -36 23 -34 9 9 -45 91 -84 129 -38 36 -115 80 -163 92 l-25 6 25 -12z" transform="translate(0,92) scale(0.1,-0.1)" stroke="none" fill="#936C3F"/>

<path d="M31 851 c-1 -7 23 -39 52 -70 51 -55 113 -160 142 -238 7 -21 14 -31 14 -21 2 34 -98 213 -147 264 -27 27 -52 57 -55 65 -4 11 -6 11 -6 0z" transform="translate(0,92) scale(0.1,-0.1)" stroke="none" fill="#936C3F"/>

<path d="M100 870 c-8 -5 -25 -10 -37 -10 -34 0 -28 -15 28 -73 l52 -52 -39 48 c-21 26 -42 47 -46 47 -4 0 -8 4 -8 8 0 4 21 14 46 21 47 14 49 14 204 -24 l25 -6 -25 12 c-34 15 -129 38 -160 38 -14 1 -32 -4 -40 -9z" transform="translate(0,92) scale(0.1,-0.1)" stroke="none" fill="#FBD984"/>

<path d="M480 210 c-53 -82 -154 -154 -208 -148 -21 2 -26 8 -24 23 2 11 5 34 7 50 l4 30 -8 -31 c-4 -17 -11 -36 -15 -43 -11 -17 12 -41 41 -41 57 0 181 97 226 178 28 50 13 38 -23 -18z" transform="translate(0,92) scale(0.1,-0.1)" stroke="none" fill="#936C3F"/>

<path d="M182 655 c47 -90 73 -167 89 -260 12 -68 8 -116 -23 -310 -2 -15 3 -21 24 -23 46 -5 146 58 190 121 14 21 4 14 -31 -21 -58 -58 -116 -92 -157 -92 -21 0 -25 3 -19 18 12 28 34 184 34 237 0 54 -20 159 -32 171 -4 4 -7 15 -7 24 0 20 -84 195 -98 204 -5 3 8 -28 30 -69z" transform="translate(0,92) scale(0.1,-0.1)" stroke="none" fill="#FBD984"/>

<path d="M242 710 c50 -69 89 -162 114 -280 13 -60 13 -130 -1 -225 -3 -16 0 -37 5 -45 8 -13 12 -11 27 10 91 126 123 257 87 359 -22 66 -53 129 -64 136 -6 4 -2 -9 8 -27 33 -59 62 -153 62 -203 0 -52 -29 -145 -63 -204 -23 -39 -46 -66 -52 -60 -2 2 1 44 6 94 11 98 3 163 -33 270 -26 77 -74 169 -101 192 -16 14 -15 10 5 -17z" transform="translate(0,92) scale(0.1,-0.1)" stroke="none" fill="#FBD984"/>

<path d="M83 857 c-30 -10 -45 -27 -25 -27 32 0 192 -259 192 -310 0 -9 3 -20 7 -24 12 -12 32 -117 32 -171 0 -53 -22 -209 -34 -238 -10 -24 34 -23 85 3 133 68 253 306 221 437 -48 187 -144 280 -341 329 -63 15 -92 15 -137 1z m176 -63 c107 -54 168 -129 215 -265 36 -102 4 -233 -87 -359 -15 -21 -19 -23 -27 -10 -5 8 -8 29 -5 45 14 95 14 165 1 225 -29 136 -71 228 -142 315 -25 32 -43 63 -40 71 7 19 4 19 85 -22z" transform="translate(0,92) scale(0.1,-0.1)" stroke="none" fill="#BED3B8"/>

</g>

<g id="1" transform="translate(60.0,0)scale(1,1)">

<path d="M355 720 c21 -22 41 -40 44 -40 3 0 -13 18 -34 40 -21 22 -41 40 -44 40 -3 0 13 -18 34 -40z" transform="translate(0,92) scale(0.1,-0.1)" stroke="none" fill="#FBD984"/>

<path d="M80 874 c-33 -13 -33 -14 -5 -9 17 4 46 10 65 14 35 9 35 9 5 9 -16 0 -46 -6 -65 -14z" transform="translate(0,92) scale(0.1,-0.1)" stroke="none" fill="#936C3F"/>

<path d="M465 435 c0 -46 3 -78 7 -71 4 6 8 38 8 71 0 33 -4 65 -8 72 -4 6 -7 -26 -7 -72z" transform="translate(0,92) scale(0.1,-0.1)" stroke="none" fill="#936C3F"/>

<path d="M418 774 c18 -16 44 -42 58 -59 l26 -30 -24 34 c-13 19 -40 46 -59 59 l-34 25 33 -29z" transform="translate(0,92) scale(0.1,-0.1)" stroke="none" fill="#FBD984"/>

<path d="M265 310 c0 -121 0 -123 9 -52 5 42 5 94 0 125 -8 44 -9 33 -9 -73z" transform="translate(0,92) scale(0.1,-0.1)" stroke="none" fill="#936C3F"/>

<path d="M180 810 c0 -10 59 -90 93 -125 20 -20 -7 21 -40 61 -19 23 -32 47 -31 54 2 7 -3 15 -9 17 -7 3 -13 -1 -13 -7z" transform="translate(0,92) scale(0.1,-0.1)" stroke="none" fill="#936C3F"/>

<path d="M173 814 c-4 -10 5 -26 23 -42 28 -27 28 -27 6 -1 -22 26 -29 49 -14 49 5 0 11 -3 15 -6 9 -10 107 -54 107 -48 0 4 -119 64 -127 64 -2 0 -6 -7 -10 -16z" transform="translate(0,92) scale(0.1,-0.1)" stroke="none" fill="#FBD984"/>

<path d="M369 245 c-3 -38 -5 -72 -3 -74 5 -6 30 23 43 49 l12 25 -20 -25 -20 -25 -3 60 -3 60 -6 -70z" transform="translate(0,92) scale(0.1,-0.1)" stroke="none" fill="#936C3F"/>

<path d="M290 763 c33 -23 91 -82 112 -113 9 -14 17 -20 17 -14 1 19 -89 114 -123 130 -31 14 -31 14 -6 -3z" transform="translate(0,92) scale(0.1,-0.1)" stroke="none" fill="#936C3F"/>

<path d="M547 567 c27 -76 27 -86 -12 -237 -5 -20 -3 -19 8 5 7 17 19 58 27 92 12 58 11 68 -10 133 -12 39 -26 73 -30 75 -5 3 3 -28 17 -68z" transform="translate(0,92) scale(0.1,-0.1)" stroke="none" fill="#FBD984"/>

<path d="M290 848 c14 -6 45 -21 70 -32 54 -25 129 -97 154 -149 10 -21 20 -36 23 -34 9 9 -45 91 -84 129 -38 36 -115 80 -163 92 l-25 6 25 -12z" transform="translate(0,92) scale(0.1,-0.1)" stroke="none" fill="#936C3F"/>

<path d="M31 851 c-1 -7 23 -39 52 -70 51 -55 113 -160 142 -238 7 -21 14 -31 14 -21 2 34 -98 213 -147 264 -27 27 -52 57 -55 65 -4 11 -6 11 -6 0z" transform="translate(0,92) scale(0.1,-0.1)" stroke="none" fill="#936C3F"/>

<path d="M100 870 c-8 -5 -25 -10 -37 -10 -34 0 -28 -15 28 -73 l52 -52 -39 48 c-21 26 -42 47 -46 47 -4 0 -8 4 -8 8 0 4 21 14 46 21 47 14 49 14 204 -24 l25 -6 -25 12 c-34 15 -129 38 -160 38 -14 1 -32 -4 -40 -9z" transform="translate(0,92) scale(0.1,-0.1)" stroke="none" fill="#FBD984"/>

<path d="M480 210 c-53 -82 -154 -154 -208 -148 -21 2 -26 8 -24 23 2 11 5 34 7 50 l4 30 -8 -31 c-4 -17 -11 -36 -15 -43 -11 -17 12 -41 41 -41 57 0 181 97 226 178 28 50 13 38 -23 -18z" transform="translate(0,92) scale(0.1,-0.1)" stroke="none" fill="#936C3F"/>

<path d="M182 655 c47 -90 73 -167 89 -260 12 -68 8 -116 -23 -310 -2 -15 3 -21 24 -23 46 -5 146 58 190 121 14 21 4 14 -31 -21 -58 -58 -116 -92 -157 -92 -21 0 -25 3 -19 18 12 28 34 184 34 237 0 54 -20 159 -32 171 -4 4 -7 15 -7 24 0 20 -84 195 -98 204 -5 3 8 -28 30 -69z" transform="translate(0,92) scale(0.1,-0.1)" stroke="none" fill="#FBD984"/>

<path d="M242 710 c50 -69 89 -162 114 -280 13 -60 13 -130 -1 -225 -3 -16 0 -37 5 -45 8 -13 12 -11 27 10 91 126 123 257 87 359 -22 66 -53 129 -64 136 -6 4 -2 -9 8 -27 33 -59 62 -153 62 -203 0 -52 -29 -145 -63 -204 -23 -39 -46 -66 -52 -60 -2 2 1 44 6 94 11 98 3 163 -33 270 -26 77 -74 169 -101 192 -16 14 -15 10 5 -17z" transform="translate(0,92) scale(0.1,-0.1)" stroke="none" fill="#FBD984"/>

<path d="M83 857 c-30 -10 -45 -27 -25 -27 32 0 192 -259 192 -310 0 -9 3 -20 7 -24 12 -12 32 -117 32 -171 0 -53 -22 -209 -34 -238 -10 -24 34 -23 85 3 133 68 253 306 221 437 -48 187 -144 280 -341 329 -63 15 -92 15 -137 1z m176 -63 c107 -54 168 -129 215 -265 36 -102 4 -233 -87 -359 -15 -21 -19 -23 -27 -10 -5 8 -8 29 -5 45 14 95 14 165 1 225 -29 136 -71 228 -142 315 -25 32 -43 63 -40 71 7 19 4 19 85 -22z" transform="translate(0,92) scale(0.1,-0.1)" stroke="none" fill="#BED3B8"/>

</g>

<g id="2" transform="translate(120.0,0)scale(1,1)">

<path d="M355 720 c21 -22 41 -40 44 -40 3 0 -13 18 -34 40 -21 22 -41 40 -44 40 -3 0 13 -18 34 -40z" transform="translate(0,92) scale(0.1,-0.1)" stroke="none" fill="#FBD984"/>

<path d="M80 874 c-33 -13 -33 -14 -5 -9 17 4 46 10 65 14 35 9 35 9 5 9 -16 0 -46 -6 -65 -14z" transform="translate(0,92) scale(0.1,-0.1)" stroke="none" fill="#936C3F"/>

<path d="M465 435 c0 -46 3 -78 7 -71 4 6 8 38 8 71 0 33 -4 65 -8 72 -4 6 -7 -26 -7 -72z" transform="translate(0,92) scale(0.1,-0.1)" stroke="none" fill="#936C3F"/>

<path d="M418 774 c18 -16 44 -42 58 -59 l26 -30 -24 34 c-13 19 -40 46 -59 59 l-34 25 33 -29z" transform="translate(0,92) scale(0.1,-0.1)" stroke="none" fill="#FBD984"/>

<path d="M265 310 c0 -121 0 -123 9 -52 5 42 5 94 0 125 -8 44 -9 33 -9 -73z" transform="translate(0,92) scale(0.1,-0.1)" stroke="none" fill="#936C3F"/>

<path d="M180 810 c0 -10 59 -90 93 -125 20 -20 -7 21 -40 61 -19 23 -32 47 -31 54 2 7 -3 15 -9 17 -7 3 -13 -1 -13 -7z" transform="translate(0,92) scale(0.1,-0.1)" stroke="none" fill="#936C3F"/>

<path d="M173 814 c-4 -10 5 -26 23 -42 28 -27 28 -27 6 -1 -22 26 -29 49 -14 49 5 0 11 -3 15 -6 9 -10 107 -54 107 -48 0 4 -119 64 -127 64 -2 0 -6 -7 -10 -16z" transform="translate(0,92) scale(0.1,-0.1)" stroke="none" fill="#FBD984"/>

<path d="M369 245 c-3 -38 -5 -72 -3 -74 5 -6 30 23 43 49 l12 25 -20 -25 -20 -25 -3 60 -3 60 -6 -70z" transform="translate(0,92) scale(0.1,-0.1)" stroke="none" fill="#936C3F"/>

<path d="M290 763 c33 -23 91 -82 112 -113 9 -14 17 -20 17 -14 1 19 -89 114 -123 130 -31 14 -31 14 -6 -3z" transform="translate(0,92) scale(0.1,-0.1)" stroke="none" fill="#936C3F"/>

<path d="M547 567 c27 -76 27 -86 -12 -237 -5 -20 -3 -19 8 5 7 17 19 58 27 92 12 58 11 68 -10 133 -12 39 -26 73 -30 75 -5 3 3 -28 17 -68z" transform="translate(0,92) scale(0.1,-0.1)" stroke="none" fill="#FBD984"/>

<path d="M290 848 c14 -6 45 -21 70 -32 54 -25 129 -97 154 -149 10 -21 20 -36 23 -34 9 9 -45 91 -84 129 -38 36 -115 80 -163 92 l-25 6 25 -12z" transform="translate(0,92) scale(0.1,-0.1)" stroke="none" fill="#936C3F"/>

<path d="M31 851 c-1 -7 23 -39 52 -70 51 -55 113 -160 142 -238 7 -21 14 -31 14 -21 2 34 -98 213 -147 264 -27 27 -52 57 -55 65 -4 11 -6 11 -6 0z" transform="translate(0,92) scale(0.1,-0.1)" stroke="none" fill="#936C3F"/>

<path d="M100 870 c-8 -5 -25 -10 -37 -10 -34 0 -28 -15 28 -73 l52 -52 -39 48 c-21 26 -42 47 -46 47 -4 0 -8 4 -8 8 0 4 21 14 46 21 47 14 49 14 204 -24 l25 -6 -25 12 c-34 15 -129 38 -160 38 -14 1 -32 -4 -40 -9z" transform="translate(0,92) scale(0.1,-0.1)" stroke="none" fill="#FBD984"/>

<path d="M480 210 c-53 -82 -154 -154 -208 -148 -21 2 -26 8 -24 23 2 11 5 34 7 50 l4 30 -8 -31 c-4 -17 -11 -36 -15 -43 -11 -17 12 -41 41 -41 57 0 181 97 226 178 28 50 13 38 -23 -18z" transform="translate(0,92) scale(0.1,-0.1)" stroke="none" fill="#936C3F"/>

<path d="M182 655 c47 -90 73 -167 89 -260 12 -68 8 -116 -23 -310 -2 -15 3 -21 24 -23 46 -5 146 58 190 121 14 21 4 14 -31 -21 -58 -58 -116 -92 -157 -92 -21 0 -25 3 -19 18 12 28 34 184 34 237 0 54 -20 159 -32 171 -4 4 -7 15 -7 24 0 20 -84 195 -98 204 -5 3 8 -28 30 -69z" transform="translate(0,92) scale(0.1,-0.1)" stroke="none" fill="#FBD984"/>

<path d="M242 710 c50 -69 89 -162 114 -280 13 -60 13 -130 -1 -225 -3 -16 0 -37 5 -45 8 -13 12 -11 27 10 91 126 123 257 87 359 -22 66 -53 129 -64 136 -6 4 -2 -9 8 -27 33 -59 62 -153 62 -203 0 -52 -29 -145 -63 -204 -23 -39 -46 -66 -52 -60 -2 2 1 44 6 94 11 98 3 163 -33 270 -26 77 -74 169 -101 192 -16 14 -15 10 5 -17z" transform="translate(0,92) scale(0.1,-0.1)" stroke="none" fill="#FBD984"/>

<path d="M83 857 c-30 -10 -45 -27 -25 -27 32 0 192 -259 192 -310 0 -9 3 -20 7 -24 12 -12 32 -117 32 -171 0 -53 -22 -209 -34 -238 -10 -24 34 -23 85 3 133 68 253 306 221 437 -48 187 -144 280 -341 329 -63 15 -92 15 -137 1z m176 -63 c107 -54 168 -129 215 -265 36 -102 4 -233 -87 -359 -15 -21 -19 -23 -27 -10 -5 8 -8 29 -5 45 14 95 14 165 1 225 -29 136 -71 228 -142 315 -25 32 -43 63 -40 71 7 19 4 19 85 -22z" transform="translate(0,92) scale(0.1,-0.1)" stroke="none" fill="#BED3B8"/>

</g>

<g id="3" transform="translate(180.0,0)scale(1,1)">

<path d="M355 720 c21 -22 41 -40 44 -40 3 0 -13 18 -34 40 -21 22 -41 40 -44 40 -3 0 13 -18 34 -40z" transform="translate(0,92) scale(0.1,-0.1)" stroke="none" fill="#FBD984"/>

<path d="M80 874 c-33 -13 -33 -14 -5 -9 17 4 46 10 65 14 35 9 35 9 5 9 -16 0 -46 -6 -65 -14z" transform="translate(0,92) scale(0.1,-0.1)" stroke="none" fill="#936C3F"/>

<path d="M465 435 c0 -46 3 -78 7 -71 4 6 8 38 8 71 0 33 -4 65 -8 72 -4 6 -7 -26 -7 -72z" transform="translate(0,92) scale(0.1,-0.1)" stroke="none" fill="#936C3F"/>

<path d="M418 774 c18 -16 44 -42 58 -59 l26 -30 -24 34 c-13 19 -40 46 -59 59 l-34 25 33 -29z" transform="translate(0,92) scale(0.1,-0.1)" stroke="none" fill="#FBD984"/>

<path d="M265 310 c0 -121 0 -123 9 -52 5 42 5 94 0 125 -8 44 -9 33 -9 -73z" transform="translate(0,92) scale(0.1,-0.1)" stroke="none" fill="#936C3F"/>

<path d="M180 810 c0 -10 59 -90 93 -125 20 -20 -7 21 -40 61 -19 23 -32 47 -31 54 2 7 -3 15 -9 17 -7 3 -13 -1 -13 -7z" transform="translate(0,92) scale(0.1,-0.1)" stroke="none" fill="#936C3F"/>

<path d="M173 814 c-4 -10 5 -26 23 -42 28 -27 28 -27 6 -1 -22 26 -29 49 -14 49 5 0 11 -3 15 -6 9 -10 107 -54 107 -48 0 4 -119 64 -127 64 -2 0 -6 -7 -10 -16z" transform="translate(0,92) scale(0.1,-0.1)" stroke="none" fill="#FBD984"/>

<path d="M369 245 c-3 -38 -5 -72 -3 -74 5 -6 30 23 43 49 l12 25 -20 -25 -20 -25 -3 60 -3 60 -6 -70z" transform="translate(0,92) scale(0.1,-0.1)" stroke="none" fill="#936C3F"/>

<path d="M290 763 c33 -23 91 -82 112 -113 9 -14 17 -20 17 -14 1 19 -89 114 -123 130 -31 14 -31 14 -6 -3z" transform="translate(0,92) scale(0.1,-0.1)" stroke="none" fill="#936C3F"/>

<path d="M547 567 c27 -76 27 -86 -12 -237 -5 -20 -3 -19 8 5 7 17 19 58 27 92 12 58 11 68 -10 133 -12 39 -26 73 -30 75 -5 3 3 -28 17 -68z" transform="translate(0,92) scale(0.1,-0.1)" stroke="none" fill="#FBD984"/>

<path d="M290 848 c14 -6 45 -21 70 -32 54 -25 129 -97 154 -149 10 -21 20 -36 23 -34 9 9 -45 91 -84 129 -38 36 -115 80 -163 92 l-25 6 25 -12z" transform="translate(0,92) scale(0.1,-0.1)" stroke="none" fill="#936C3F"/>

<path d="M31 851 c-1 -7 23 -39 52 -70 51 -55 113 -160 142 -238 7 -21 14 -31 14 -21 2 34 -98 213 -147 264 -27 27 -52 57 -55 65 -4 11 -6 11 -6 0z" transform="translate(0,92) scale(0.1,-0.1)" stroke="none" fill="#936C3F"/>

<path d="M100 870 c-8 -5 -25 -10 -37 -10 -34 0 -28 -15 28 -73 l52 -52 -39 48 c-21 26 -42 47 -46 47 -4 0 -8 4 -8 8 0 4 21 14 46 21 47 14 49 14 204 -24 l25 -6 -25 12 c-34 15 -129 38 -160 38 -14 1 -32 -4 -40 -9z" transform="translate(0,92) scale(0.1,-0.1)" stroke="none" fill="#FBD984"/>

<path d="M480 210 c-53 -82 -154 -154 -208 -148 -21 2 -26 8 -24 23 2 11 5 34 7 50 l4 30 -8 -31 c-4 -17 -11 -36 -15 -43 -11 -17 12 -41 41 -41 57 0 181 97 226 178 28 50 13 38 -23 -18z" transform="translate(0,92) scale(0.1,-0.1)" stroke="none" fill="#936C3F"/>

<path d="M182 655 c47 -90 73 -167 89 -260 12 -68 8 -116 -23 -310 -2 -15 3 -21 24 -23 46 -5 146 58 190 121 14 21 4 14 -31 -21 -58 -58 -116 -92 -157 -92 -21 0 -25 3 -19 18 12 28 34 184 34 237 0 54 -20 159 -32 171 -4 4 -7 15 -7 24 0 20 -84 195 -98 204 -5 3 8 -28 30 -69z" transform="translate(0,92) scale(0.1,-0.1)" stroke="none" fill="#FBD984"/>

<path d="M242 710 c50 -69 89 -162 114 -280 13 -60 13 -130 -1 -225 -3 -16 0 -37 5 -45 8 -13 12 -11 27 10 91 126 123 257 87 359 -22 66 -53 129 -64 136 -6 4 -2 -9 8 -27 33 -59 62 -153 62 -203 0 -52 -29 -145 -63 -204 -23 -39 -46 -66 -52 -60 -2 2 1 44 6 94 11 98 3 163 -33 270 -26 77 -74 169 -101 192 -16 14 -15 10 5 -17z" transform="translate(0,92) scale(0.1,-0.1)" stroke="none" fill="#FBD984"/>

<path d="M83 857 c-30 -10 -45 -27 -25 -27 32 0 192 -259 192 -310 0 -9 3 -20 7 -24 12 -12 32 -117 32 -171 0 -53 -22 -209 -34 -238 -10 -24 34 -23 85 3 133 68 253 306 221 437 -48 187 -144 280 -341 329 -63 15 -92 15 -137 1z m176 -63 c107 -54 168 -129 215 -265 36 -102 4 -233 -87 -359 -15 -21 -19 -23 -27 -10 -5 8 -8 29 -5 45 14 95 14 165 1 225 -29 136 -71 228 -142 315 -25 32 -43 63 -40 71 7 19 4 19 85 -22z" transform="translate(0,92) scale(0.1,-0.1)" stroke="none" fill="#BED3B8"/>

</g>

<g id="4" transform="translate(240.0,0)scale(1,1)">

<path d="M355 720 c21 -22 41 -40 44 -40 3 0 -13 18 -34 40 -21 22 -41 40 -44 40 -3 0 13 -18 34 -40z" transform="translate(0,92) scale(0.1,-0.1)" stroke="none" fill="#FBD984"/>

<path d="M80 874 c-33 -13 -33 -14 -5 -9 17 4 46 10 65 14 35 9 35 9 5 9 -16 0 -46 -6 -65 -14z" transform="translate(0,92) scale(0.1,-0.1)" stroke="none" fill="#936C3F"/>

<path d="M465 435 c0 -46 3 -78 7 -71 4 6 8 38 8 71 0 33 -4 65 -8 72 -4 6 -7 -26 -7 -72z" transform="translate(0,92) scale(0.1,-0.1)" stroke="none" fill="#936C3F"/>

<path d="M418 774 c18 -16 44 -42 58 -59 l26 -30 -24 34 c-13 19 -40 46 -59 59 l-34 25 33 -29z" transform="translate(0,92) scale(0.1,-0.1)" stroke="none" fill="#FBD984"/>

<path d="M265 310 c0 -121 0 -123 9 -52 5 42 5 94 0 125 -8 44 -9 33 -9 -73z" transform="translate(0,92) scale(0.1,-0.1)" stroke="none" fill="#936C3F"/>

<path d="M180 810 c0 -10 59 -90 93 -125 20 -20 -7 21 -40 61 -19 23 -32 47 -31 54 2 7 -3 15 -9 17 -7 3 -13 -1 -13 -7z" transform="translate(0,92) scale(0.1,-0.1)" stroke="none" fill="#936C3F"/>

<path d="M173 814 c-4 -10 5 -26 23 -42 28 -27 28 -27 6 -1 -22 26 -29 49 -14 49 5 0 11 -3 15 -6 9 -10 107 -54 107 -48 0 4 -119 64 -127 64 -2 0 -6 -7 -10 -16z" transform="translate(0,92) scale(0.1,-0.1)" stroke="none" fill="#FBD984"/>

<path d="M369 245 c-3 -38 -5 -72 -3 -74 5 -6 30 23 43 49 l12 25 -20 -25 -20 -25 -3 60 -3 60 -6 -70z" transform="translate(0,92) scale(0.1,-0.1)" stroke="none" fill="#936C3F"/>

<path d="M290 763 c33 -23 91 -82 112 -113 9 -14 17 -20 17 -14 1 19 -89 114 -123 130 -31 14 -31 14 -6 -3z" transform="translate(0,92) scale(0.1,-0.1)" stroke="none" fill="#936C3F"/>

<path d="M547 567 c27 -76 27 -86 -12 -237 -5 -20 -3 -19 8 5 7 17 19 58 27 92 12 58 11 68 -10 133 -12 39 -26 73 -30 75 -5 3 3 -28 17 -68z" transform="translate(0,92) scale(0.1,-0.1)" stroke="none" fill="#FBD984"/>

<path d="M290 848 c14 -6 45 -21 70 -32 54 -25 129 -97 154 -149 10 -21 20 -36 23 -34 9 9 -45 91 -84 129 -38 36 -115 80 -163 92 l-25 6 25 -12z" transform="translate(0,92) scale(0.1,-0.1)" stroke="none" fill="#936C3F"/>

<path d="M31 851 c-1 -7 23 -39 52 -70 51 -55 113 -160 142 -238 7 -21 14 -31 14 -21 2 34 -98 213 -147 264 -27 27 -52 57 -55 65 -4 11 -6 11 -6 0z" transform="translate(0,92) scale(0.1,-0.1)" stroke="none" fill="#936C3F"/>

<path d="M100 870 c-8 -5 -25 -10 -37 -10 -34 0 -28 -15 28 -73 l52 -52 -39 48 c-21 26 -42 47 -46 47 -4 0 -8 4 -8 8 0 4 21 14 46 21 47 14 49 14 204 -24 l25 -6 -25 12 c-34 15 -129 38 -160 38 -14 1 -32 -4 -40 -9z" transform="translate(0,92) scale(0.1,-0.1)" stroke="none" fill="#FBD984"/>

<path d="M480 210 c-53 -82 -154 -154 -208 -148 -21 2 -26 8 -24 23 2 11 5 34 7 50 l4 30 -8 -31 c-4 -17 -11 -36 -15 -43 -11 -17 12 -41 41 -41 57 0 181 97 226 178 28 50 13 38 -23 -18z" transform="translate(0,92) scale(0.1,-0.1)" stroke="none" fill="#936C3F"/>

<path d="M182 655 c47 -90 73 -167 89 -260 12 -68 8 -116 -23 -310 -2 -15 3 -21 24 -23 46 -5 146 58 190 121 14 21 4 14 -31 -21 -58 -58 -116 -92 -157 -92 -21 0 -25 3 -19 18 12 28 34 184 34 237 0 54 -20 159 -32 171 -4 4 -7 15 -7 24 0 20 -84 195 -98 204 -5 3 8 -28 30 -69z" transform="translate(0,92) scale(0.1,-0.1)" stroke="none" fill="#FBD984"/>

<path d="M242 710 c50 -69 89 -162 114 -280 13 -60 13 -130 -1 -225 -3 -16 0 -37 5 -45 8 -13 12 -11 27 10 91 126 123 257 87 359 -22 66 -53 129 -64 136 -6 4 -2 -9 8 -27 33 -59 62 -153 62 -203 0 -52 -29 -145 -63 -204 -23 -39 -46 -66 -52 -60 -2 2 1 44 6 94 11 98 3 163 -33 270 -26 77 -74 169 -101 192 -16 14 -15 10 5 -17z" transform="translate(0,92) scale(0.1,-0.1)" stroke="none" fill="#FBD984"/>

<path d="M83 857 c-30 -10 -45 -27 -25 -27 32 0 192 -259 192 -310 0 -9 3 -20 7 -24 12 -12 32 -117 32 -171 0 -53 -22 -209 -34 -238 -10 -24 34 -23 85 3 133 68 253 306 221 437 -48 187 -144 280 -341 329 -63 15 -92 15 -137 1z m176 -63 c107 -54 168 -129 215 -265 36 -102 4 -233 -87 -359 -15 -21 -19 -23 -27 -10 -5 8 -8 29 -5 45 14 95 14 165 1 225 -29 136 -71 228 -142 315 -25 32 -43 63 -40 71 7 19 4 19 85 -22z" transform="translate(0,92) scale(0.1,-0.1)" stroke="none" fill="#BED3B8"/>

</g>

</g>
<g id="row3" transform="translate(8,276.0)">
<g id="0" transform="translate(0.0,0)scale(1,1)">

<path d="M355 720 c21 -22 41 -40 44 -40 3 0 -13 18 -34 40 -21 22 -41 40 -44 40 -3 0 13 -18 34 -40z" transform="translate(0,92) scale(0.1,-0.1)" stroke="none" fill="#FBD984"/>

<path d="M80 874 c-33 -13 -33 -14 -5 -9 17 4 46 10 65 14 35 9 35 9 5 9 -16 0 -46 -6 -65 -14z" transform="translate(0,92) scale(0.1,-0.1)" stroke="none" fill="#936C3F"/>

<path d="M465 435 c0 -46 3 -78 7 -71 4 6 8 38 8 71 0 33 -4 65 -8 72 -4 6 -7 -26 -7 -72z" transform="translate(0,92) scale(0.1,-0.1)" stroke="none" fill="#936C3F"/>

<path d="M418 774 c18 -16 44 -42 58 -59 l26 -30 -24 34 c-13 19 -40 46 -59 59 l-34 25 33 -29z" transform="translate(0,92) scale(0.1,-0.1)" stroke="none" fill="#FBD984"/>

<path d="M265 310 c0 -121 0 -123 9 -52 5 42 5 94 0 125 -8 44 -9 33 -9 -73z" transform="translate(0,92) scale(0.1,-0.1)" stroke="none" fill="#936C3F"/>

<path d="M180 810 c0 -10 59 -90 93 -125 20 -20 -7 21 -40 61 -19 23 -32 47 -31 54 2 7 -3 15 -9 17 -7 3 -13 -1 -13 -7z" transform="translate(0,92) scale(0.1,-0.1)" stroke="none" fill="#936C3F"/>

<path d="M173 814 c-4 -10 5 -26 23 -42 28 -27 28 -27 6 -1 -22 26 -29 49 -14 49 5 0 11 -3 15 -6 9 -10 107 -54 107 -48 0 4 -119 64 -127 64 -2 0 -6 -7 -10 -16z" transform="translate(0,92) scale(0.1,-0.1)" stroke="none" fill="#FBD984"/>

<path d="M369 245 c-3 -38 -5 -72 -3 -74 5 -6 30 23 43 49 l12 25 -20 -25 -20 -25 -3 60 -3 60 -6 -70z" transform="translate(0,92) scale(0.1,-0.1)" stroke="none" fill="#936C3F"/>

<path d="M290 763 c33 -23 91 -82 112 -113 9 -14 17 -20 17 -14 1 19 -89 114 -123 130 -31 14 -31 14 -6 -3z" transform="translate(0,92) scale(0.1,-0.1)" stroke="none" fill="#936C3F"/>

<path d="M547 567 c27 -76 27 -86 -12 -237 -5 -20 -3 -19 8 5 7 17 19 58 27 92 12 58 11 68 -10 133 -12 39 -26 73 -30 75 -5 3 3 -28 17 -68z" transform="translate(0,92) scale(0.1,-0.1)" stroke="none" fill="#FBD984"/>

<path d="M290 848 c14 -6 45 -21 70 -32 54 -25 129 -97 154 -149 10 -21 20 -36 23 -34 9 9 -45 91 -84 129 -38 36 -115 80 -163 92 l-25 6 25 -12z" transform="translate(0,92) scale(0.1,-0.1)" stroke="none" fill="#936C3F"/>

<path d="M31 851 c-1 -7 23 -39 52 -70 51 -55 113 -160 142 -238 7 -21 14 -31 14 -21 2 34 -98 213 -147 264 -27 27 -52 57 -55 65 -4 11 -6 11 -6 0z" transform="translate(0,92) scale(0.1,-0.1)" stroke="none" fill="#936C3F"/>

<path d="M100 870 c-8 -5 -25 -10 -37 -10 -34 0 -28 -15 28 -73 l52 -52 -39 48 c-21 26 -42 47 -46 47 -4 0 -8 4 -8 8 0 4 21 14 46 21 47 14 49 14 204 -24 l25 -6 -25 12 c-34 15 -129 38 -160 38 -14 1 -32 -4 -40 -9z" transform="translate(0,92) scale(0.1,-0.1)" stroke="none" fill="#FBD984"/>

<path d="M480 210 c-53 -82 -154 -154 -208 -148 -21 2 -26 8 -24 23 2 11 5 34 7 50 l4 30 -8 -31 c-4 -17 -11 -36 -15 -43 -11 -17 12 -41 41 -41 57 0 181 97 226 178 28 50 13 38 -23 -18z" transform="translate(0,92) scale(0.1,-0.1)" stroke="none" fill="#936C3F"/>

<path d="M182 655 c47 -90 73 -167 89 -260 12 -68 8 -116 -23 -310 -2 -15 3 -21 24 -23 46 -5 146 58 190 121 14 21 4 14 -31 -21 -58 -58 -116 -92 -157 -92 -21 0 -25 3 -19 18 12 28 34 184 34 237 0 54 -20 159 -32 171 -4 4 -7 15 -7 24 0 20 -84 195 -98 204 -5 3 8 -28 30 -69z" transform="translate(0,92) scale(0.1,-0.1)" stroke="none" fill="#FBD984"/>

<path d="M242 710 c50 -69 89 -162 114 -280 13 -60 13 -130 -1 -225 -3 -16 0 -37 5 -45 8 -13 12 -11 27 10 91 126 123 257 87 359 -22 66 -53 129 -64 136 -6 4 -2 -9 8 -27 33 -59 62 -153 62 -203 0 -52 -29 -145 -63 -204 -23 -39 -46 -66 -52 -60 -2 2 1 44 6 94 11 98 3 163 -33 270 -26 77 -74 169 -101 192 -16 14 -15 10 5 -17z" transform="translate(0,92) scale(0.1,-0.1)" stroke="none" fill="#FBD984"/>

<path d="M83 857 c-30 -10 -45 -27 -25 -27 32 0 192 -259 192 -310 0 -9 3 -20 7 -24 12 -12 32 -117 32 -171 0 -53 -22 -209 -34 -238 -10 -24 34 -23 85 3 133 68 253 306 221 437 -48 187 -144 280 -341 329 -63 15 -92 15 -137 1z m176 -63 c107 -54 168 -129 215 -265 36 -102 4 -233 -87 -359 -15 -21 -19 -23 -27 -10 -5 8 -8 29 -5 45 14 95 14 165 1 225 -29 136 -71 228 -142 315 -25 32 -43 63 -40 71 7 19 4 19 85 -22z" transform="translate(0,92) scale(0.1,-0.1)" stroke="none" fill="#BED3B8"/>

</g>

<g id="1" transform="translate(60.0,0)scale(1,1)">

<path d="M355 720 c21 -22 41 -40 44 -40 3 0 -13 18 -34 40 -21 22 -41 40 -44 40 -3 0 13 -18 34 -40z" transform="translate(0,92) scale(0.1,-0.1)" stroke="none" fill="#FBD984"/>

<path d="M80 874 c-33 -13 -33 -14 -5 -9 17 4 46 10 65 14 35 9 35 9 5 9 -16 0 -46 -6 -65 -14z" transform="translate(0,92) scale(0.1,-0.1)" stroke="none" fill="#936C3F"/>

<path d="M465 435 c0 -46 3 -78 7 -71 4 6 8 38 8 71 0 33 -4 65 -8 72 -4 6 -7 -26 -7 -72z" transform="translate(0,92) scale(0.1,-0.1)" stroke="none" fill="#936C3F"/>

<path d="M418 774 c18 -16 44 -42 58 -59 l26 -30 -24 34 c-13 19 -40 46 -59 59 l-34 25 33 -29z" transform="translate(0,92) scale(0.1,-0.1)" stroke="none" fill="#FBD984"/>

<path d="M265 310 c0 -121 0 -123 9 -52 5 42 5 94 0 125 -8 44 -9 33 -9 -73z" transform="translate(0,92) scale(0.1,-0.1)" stroke="none" fill="#936C3F"/>

<path d="M180 810 c0 -10 59 -90 93 -125 20 -20 -7 21 -40 61 -19 23 -32 47 -31 54 2 7 -3 15 -9 17 -7 3 -13 -1 -13 -7z" transform="translate(0,92) scale(0.1,-0.1)" stroke="none" fill="#936C3F"/>

<path d="M173 814 c-4 -10 5 -26 23 -42 28 -27 28 -27 6 -1 -22 26 -29 49 -14 49 5 0 11 -3 15 -6 9 -10 107 -54 107 -48 0 4 -119 64 -127 64 -2 0 -6 -7 -10 -16z" transform="translate(0,92) scale(0.1,-0.1)" stroke="none" fill="#FBD984"/>

<path d="M369 245 c-3 -38 -5 -72 -3 -74 5 -6 30 23 43 49 l12 25 -20 -25 -20 -25 -3 60 -3 60 -6 -70z" transform="translate(0,92) scale(0.1,-0.1)" stroke="none" fill="#936C3F"/>

<path d="M290 763 c33 -23 91 -82 112 -113 9 -14 17 -20 17 -14 1 19 -89 114 -123 130 -31 14 -31 14 -6 -3z" transform="translate(0,92) scale(0.1,-0.1)" stroke="none" fill="#936C3F"/>

<path d="M547 567 c27 -76 27 -86 -12 -237 -5 -20 -3 -19 8 5 7 17 19 58 27 92 12 58 11 68 -10 133 -12 39 -26 73 -30 75 -5 3 3 -28 17 -68z" transform="translate(0,92) scale(0.1,-0.1)" stroke="none" fill="#FBD984"/>

<path d="M290 848 c14 -6 45 -21 70 -32 54 -25 129 -97 154 -149 10 -21 20 -36 23 -34 9 9 -45 91 -84 129 -38 36 -115 80 -163 92 l-25 6 25 -12z" transform="translate(0,92) scale(0.1,-0.1)" stroke="none" fill="#936C3F"/>

<path d="M31 851 c-1 -7 23 -39 52 -70 51 -55 113 -160 142 -238 7 -21 14 -31 14 -21 2 34 -98 213 -147 264 -27 27 -52 57 -55 65 -4 11 -6 11 -6 0z" transform="translate(0,92) scale(0.1,-0.1)" stroke="none" fill="#936C3F"/>

<path d="M100 870 c-8 -5 -25 -10 -37 -10 -34 0 -28 -15 28 -73 l52 -52 -39 48 c-21 26 -42 47 -46 47 -4 0 -8 4 -8 8 0 4 21 14 46 21 47 14 49 14 204 -24 l25 -6 -25 12 c-34 15 -129 38 -160 38 -14 1 -32 -4 -40 -9z" transform="translate(0,92) scale(0.1,-0.1)" stroke="none" fill="#FBD984"/>

<path d="M480 210 c-53 -82 -154 -154 -208 -148 -21 2 -26 8 -24 23 2 11 5 34 7 50 l4 30 -8 -31 c-4 -17 -11 -36 -15 -43 -11 -17 12 -41 41 -41 57 0 181 97 226 178 28 50 13 38 -23 -18z" transform="translate(0,92) scale(0.1,-0.1)" stroke="none" fill="#936C3F"/>

<path d="M182 655 c47 -90 73 -167 89 -260 12 -68 8 -116 -23 -310 -2 -15 3 -21 24 -23 46 -5 146 58 190 121 14 21 4 14 -31 -21 -58 -58 -116 -92 -157 -92 -21 0 -25 3 -19 18 12 28 34 184 34 237 0 54 -20 159 -32 171 -4 4 -7 15 -7 24 0 20 -84 195 -98 204 -5 3 8 -28 30 -69z" transform="translate(0,92) scale(0.1,-0.1)" stroke="none" fill="#FBD984"/>

<path d="M242 710 c50 -69 89 -162 114 -280 13 -60 13 -130 -1 -225 -3 -16 0 -37 5 -45 8 -13 12 -11 27 10 91 126 123 257 87 359 -22 66 -53 129 -64 136 -6 4 -2 -9 8 -27 33 -59 62 -153 62 -203 0 -52 -29 -145 -63 -204 -23 -39 -46 -66 -52 -60 -2 2 1 44 6 94 11 98 3 163 -33 270 -26 77 -74 169 -101 192 -16 14 -15 10 5 -17z" transform="translate(0,92) scale(0.1,-0.1)" stroke="none" fill="#FBD984"/>

<path d="M83 857 c-30 -10 -45 -27 -25 -27 32 0 192 -259 192 -310 0 -9 3 -20 7 -24 12 -12 32 -117 32 -171 0 -53 -22 -209 -34 -238 -10 -24 34 -23 85 3 133 68 253 306 221 437 -48 187 -144 280 -341 329 -63 15 -92 15 -137 1z m176 -63 c107 -54 168 -129 215 -265 36 -102 4 -233 -87 -359 -15 -21 -19 -23 -27 -10 -5 8 -8 29 -5 45 14 95 14 165 1 225 -29 136 -71 228 -142 315 -25 32 -43 63 -40 71 7 19 4 19 85 -22z" transform="translate(0,92) scale(0.1,-0.1)" stroke="none" fill="#BED3B8"/>

</g>

<g id="2" transform="translate(120.0,0)scale(1,1)">

<path d="M355 720 c21 -22 41 -40 44 -40 3 0 -13 18 -34 40 -21 22 -41 40 -44 40 -3 0 13 -18 34 -40z" transform="translate(0,92) scale(0.1,-0.1)" stroke="none" fill="#FBD984"/>

<path d="M80 874 c-33 -13 -33 -14 -5 -9 17 4 46 10 65 14 35 9 35 9 5 9 -16 0 -46 -6 -65 -14z" transform="translate(0,92) scale(0.1,-0.1)" stroke="none" fill="#936C3F"/>

<path d="M465 435 c0 -46 3 -78 7 -71 4 6 8 38 8 71 0 33 -4 65 -8 72 -4 6 -7 -26 -7 -72z" transform="translate(0,92) scale(0.1,-0.1)" stroke="none" fill="#936C3F"/>

<path d="M418 774 c18 -16 44 -42 58 -59 l26 -30 -24 34 c-13 19 -40 46 -59 59 l-34 25 33 -29z" transform="translate(0,92) scale(0.1,-0.1)" stroke="none" fill="#FBD984"/>

<path d="M265 310 c0 -121 0 -123 9 -52 5 42 5 94 0 125 -8 44 -9 33 -9 -73z" transform="translate(0,92) scale(0.1,-0.1)" stroke="none" fill="#936C3F"/>

<path d="M180 810 c0 -10 59 -90 93 -125 20 -20 -7 21 -40 61 -19 23 -32 47 -31 54 2 7 -3 15 -9 17 -7 3 -13 -1 -13 -7z" transform="translate(0,92) scale(0.1,-0.1)" stroke="none" fill="#936C3F"/>

<path d="M173 814 c-4 -10 5 -26 23 -42 28 -27 28 -27 6 -1 -22 26 -29 49 -14 49 5 0 11 -3 15 -6 9 -10 107 -54 107 -48 0 4 -119 64 -127 64 -2 0 -6 -7 -10 -16z" transform="translate(0,92) scale(0.1,-0.1)" stroke="none" fill="#FBD984"/>

<path d="M369 245 c-3 -38 -5 -72 -3 -74 5 -6 30 23 43 49 l12 25 -20 -25 -20 -25 -3 60 -3 60 -6 -70z" transform="translate(0,92) scale(0.1,-0.1)" stroke="none" fill="#936C3F"/>

<path d="M290 763 c33 -23 91 -82 112 -113 9 -14 17 -20 17 -14 1 19 -89 114 -123 130 -31 14 -31 14 -6 -3z" transform="translate(0,92) scale(0.1,-0.1)" stroke="none" fill="#936C3F"/>

<path d="M547 567 c27 -76 27 -86 -12 -237 -5 -20 -3 -19 8 5 7 17 19 58 27 92 12 58 11 68 -10 133 -12 39 -26 73 -30 75 -5 3 3 -28 17 -68z" transform="translate(0,92) scale(0.1,-0.1)" stroke="none" fill="#FBD984"/>

<path d="M290 848 c14 -6 45 -21 70 -32 54 -25 129 -97 154 -149 10 -21 20 -36 23 -34 9 9 -45 91 -84 129 -38 36 -115 80 -163 92 l-25 6 25 -12z" transform="translate(0,92) scale(0.1,-0.1)" stroke="none" fill="#936C3F"/>

<path d="M31 851 c-1 -7 23 -39 52 -70 51 -55 113 -160 142 -238 7 -21 14 -31 14 -21 2 34 -98 213 -147 264 -27 27 -52 57 -55 65 -4 11 -6 11 -6 0z" transform="translate(0,92) scale(0.1,-0.1)" stroke="none" fill="#936C3F"/>

<path d="M100 870 c-8 -5 -25 -10 -37 -10 -34 0 -28 -15 28 -73 l52 -52 -39 48 c-21 26 -42 47 -46 47 -4 0 -8 4 -8 8 0 4 21 14 46 21 47 14 49 14 204 -24 l25 -6 -25 12 c-34 15 -129 38 -160 38 -14 1 -32 -4 -40 -9z" transform="translate(0,92) scale(0.1,-0.1)" stroke="none" fill="#FBD984"/>

<path d="M480 210 c-53 -82 -154 -154 -208 -148 -21 2 -26 8 -24 23 2 11 5 34 7 50 l4 30 -8 -31 c-4 -17 -11 -36 -15 -43 -11 -17 12 -41 41 -41 57 0 181 97 226 178 28 50 13 38 -23 -18z" transform="translate(0,92) scale(0.1,-0.1)" stroke="none" fill="#936C3F"/>

<path d="M182 655 c47 -90 73 -167 89 -260 12 -68 8 -116 -23 -310 -2 -15 3 -21 24 -23 46 -5 146 58 190 121 14 21 4 14 -31 -21 -58 -58 -116 -92 -157 -92 -21 0 -25 3 -19 18 12 28 34 184 34 237 0 54 -20 159 -32 171 -4 4 -7 15 -7 24 0 20 -84 195 -98 204 -5 3 8 -28 30 -69z" transform="translate(0,92) scale(0.1,-0.1)" stroke="none" fill="#FBD984"/>

<path d="M242 710 c50 -69 89 -162 114 -280 13 -60 13 -130 -1 -225 -3 -16 0 -37 5 -45 8 -13 12 -11 27 10 91 126 123 257 87 359 -22 66 -53 129 -64 136 -6 4 -2 -9 8 -27 33 -59 62 -153 62 -203 0 -52 -29 -145 -63 -204 -23 -39 -46 -66 -52 -60 -2 2 1 44 6 94 11 98 3 163 -33 270 -26 77 -74 169 -101 192 -16 14 -15 10 5 -17z" transform="translate(0,92) scale(0.1,-0.1)" stroke="none" fill="#FBD984"/>

<path d="M83 857 c-30 -10 -45 -27 -25 -27 32 0 192 -259 192 -310 0 -9 3 -20 7 -24 12 -12 32 -117 32 -171 0 -53 -22 -209 -34 -238 -10 -24 34 -23 85 3 133 68 253 306 221 437 -48 187 -144 280 -341 329 -63 15 -92 15 -137 1z m176 -63 c107 -54 168 -129 215 -265 36 -102 4 -233 -87 -359 -15 -21 -19 -23 -27 -10 -5 8 -8 29 -5 45 14 95 14 165 1 225 -29 136 -71 228 -142 315 -25 32 -43 63 -40 71 7 19 4 19 85 -22z" transform="translate(0,92) scale(0.1,-0.1)" stroke="none" fill="#BED3B8"/>

</g>

<g id="3" transform="translate(180.0,0)scale(1,1)">

<path d="M355 720 c21 -22 41 -40 44 -40 3 0 -13 18 -34 40 -21 22 -41 40 -44 40 -3 0 13 -18 34 -40z" transform="translate(0,92) scale(0.1,-0.1)" stroke="none" fill="#FBD984"/>

<path d="M80 874 c-33 -13 -33 -14 -5 -9 17 4 46 10 65 14 35 9 35 9 5 9 -16 0 -46 -6 -65 -14z" transform="translate(0,92) scale(0.1,-0.1)" stroke="none" fill="#936C3F"/>

<path d="M465 435 c0 -46 3 -78 7 -71 4 6 8 38 8 71 0 33 -4 65 -8 72 -4 6 -7 -26 -7 -72z" transform="translate(0,92) scale(0.1,-0.1)" stroke="none" fill="#936C3F"/>

<path d="M418 774 c18 -16 44 -42 58 -59 l26 -30 -24 34 c-13 19 -40 46 -59 59 l-34 25 33 -29z" transform="translate(0,92) scale(0.1,-0.1)" stroke="none" fill="#FBD984"/>

<path d="M265 310 c0 -121 0 -123 9 -52 5 42 5 94 0 125 -8 44 -9 33 -9 -73z" transform="translate(0,92) scale(0.1,-0.1)" stroke="none" fill="#936C3F"/>

<path d="M180 810 c0 -10 59 -90 93 -125 20 -20 -7 21 -40 61 -19 23 -32 47 -31 54 2 7 -3 15 -9 17 -7 3 -13 -1 -13 -7z" transform="translate(0,92) scale(0.1,-0.1)" stroke="none" fill="#936C3F"/>

<path d="M173 814 c-4 -10 5 -26 23 -42 28 -27 28 -27 6 -1 -22 26 -29 49 -14 49 5 0 11 -3 15 -6 9 -10 107 -54 107 -48 0 4 -119 64 -127 64 -2 0 -6 -7 -10 -16z" transform="translate(0,92) scale(0.1,-0.1)" stroke="none" fill="#FBD984"/>

<path d="M369 245 c-3 -38 -5 -72 -3 -74 5 -6 30 23 43 49 l12 25 -20 -25 -20 -25 -3 60 -3 60 -6 -70z" transform="translate(0,92) scale(0.1,-0.1)" stroke="none" fill="#936C3F"/>

<path d="M290 763 c33 -23 91 -82 112 -113 9 -14 17 -20 17 -14 1 19 -89 114 -123 130 -31 14 -31 14 -6 -3z" transform="translate(0,92) scale(0.1,-0.1)" stroke="none" fill="#936C3F"/>

<path d="M547 567 c27 -76 27 -86 -12 -237 -5 -20 -3 -19 8 5 7 17 19 58 27 92 12 58 11 68 -10 133 -12 39 -26 73 -30 75 -5 3 3 -28 17 -68z" transform="translate(0,92) scale(0.1,-0.1)" stroke="none" fill="#FBD984"/>

<path d="M290 848 c14 -6 45 -21 70 -32 54 -25 129 -97 154 -149 10 -21 20 -36 23 -34 9 9 -45 91 -84 129 -38 36 -115 80 -163 92 l-25 6 25 -12z" transform="translate(0,92) scale(0.1,-0.1)" stroke="none" fill="#936C3F"/>

<path d="M31 851 c-1 -7 23 -39 52 -70 51 -55 113 -160 142 -238 7 -21 14 -31 14 -21 2 34 -98 213 -147 264 -27 27 -52 57 -55 65 -4 11 -6 11 -6 0z" transform="translate(0,92) scale(0.1,-0.1)" stroke="none" fill="#936C3F"/>

<path d="M100 870 c-8 -5 -25 -10 -37 -10 -34 0 -28 -15 28 -73 l52 -52 -39 48 c-21 26 -42 47 -46 47 -4 0 -8 4 -8 8 0 4 21 14 46 21 47 14 49 14 204 -24 l25 -6 -25 12 c-34 15 -129 38 -160 38 -14 1 -32 -4 -40 -9z" transform="translate(0,92) scale(0.1,-0.1)" stroke="none" fill="#FBD984"/>

<path d="M480 210 c-53 -82 -154 -154 -208 -148 -21 2 -26 8 -24 23 2 11 5 34 7 50 l4 30 -8 -31 c-4 -17 -11 -36 -15 -43 -11 -17 12 -41 41 -41 57 0 181 97 226 178 28 50 13 38 -23 -18z" transform="translate(0,92) scale(0.1,-0.1)" stroke="none" fill="#936C3F"/>

<path d="M182 655 c47 -90 73 -167 89 -260 12 -68 8 -116 -23 -310 -2 -15 3 -21 24 -23 46 -5 146 58 190 121 14 21 4 14 -31 -21 -58 -58 -116 -92 -157 -92 -21 0 -25 3 -19 18 12 28 34 184 34 237 0 54 -20 159 -32 171 -4 4 -7 15 -7 24 0 20 -84 195 -98 204 -5 3 8 -28 30 -69z" transform="translate(0,92) scale(0.1,-0.1)" stroke="none" fill="#FBD984"/>

<path d="M242 710 c50 -69 89 -162 114 -280 13 -60 13 -130 -1 -225 -3 -16 0 -37 5 -45 8 -13 12 -11 27 10 91 126 123 257 87 359 -22 66 -53 129 -64 136 -6 4 -2 -9 8 -27 33 -59 62 -153 62 -203 0 -52 -29 -145 -63 -204 -23 -39 -46 -66 -52 -60 -2 2 1 44 6 94 11 98 3 163 -33 270 -26 77 -74 169 -101 192 -16 14 -15 10 5 -17z" transform="translate(0,92) scale(0.1,-0.1)" stroke="none" fill="#FBD984"/>

<path d="M83 857 c-30 -10 -45 -27 -25 -27 32 0 192 -259 192 -310 0 -9 3 -20 7 -24 12 -12 32 -117 32 -171 0 -53 -22 -209 -34 -238 -10 -24 34 -23 85 3 133 68 253 306 221 437 -48 187 -144 280 -341 329 -63 15 -92 15 -137 1z m176 -63 c107 -54 168 -129 215 -265 36 -102 4 -233 -87 -359 -15 -21 -19 -23 -27 -10 -5 8 -8 29 -5 45 14 95 14 165 1 225 -29 136 -71 228 -142 315 -25 32 -43 63 -40 71 7 19 4 19 85 -22z" transform="translate(0,92) scale(0.1,-0.1)" stroke="none" fill="#BED3B8"/>

</g>

<g id="4" transform="translate(240.0,0)scale(1,1)">

<path d="M355 720 c21 -22 41 -40 44 -40 3 0 -13 18 -34 40 -21 22 -41 40 -44 40 -3 0 13 -18 34 -40z" transform="translate(0,92) scale(0.1,-0.1)" stroke="none" fill="#FBD984"/>

<path d="M80 874 c-33 -13 -33 -14 -5 -9 17 4 46 10 65 14 35 9 35 9 5 9 -16 0 -46 -6 -65 -14z" transform="translate(0,92) scale(0.1,-0.1)" stroke="none" fill="#936C3F"/>

<path d="M465 435 c0 -46 3 -78 7 -71 4 6 8 38 8 71 0 33 -4 65 -8 72 -4 6 -7 -26 -7 -72z" transform="translate(0,92) scale(0.1,-0.1)" stroke="none" fill="#936C3F"/>

<path d="M418 774 c18 -16 44 -42 58 -59 l26 -30 -24 34 c-13 19 -40 46 -59 59 l-34 25 33 -29z" transform="translate(0,92) scale(0.1,-0.1)" stroke="none" fill="#FBD984"/>

<path d="M265 310 c0 -121 0 -123 9 -52 5 42 5 94 0 125 -8 44 -9 33 -9 -73z" transform="translate(0,92) scale(0.1,-0.1)" stroke="none" fill="#936C3F"/>

<path d="M180 810 c0 -10 59 -90 93 -125 20 -20 -7 21 -40 61 -19 23 -32 47 -31 54 2 7 -3 15 -9 17 -7 3 -13 -1 -13 -7z" transform="translate(0,92) scale(0.1,-0.1)" stroke="none" fill="#936C3F"/>

<path d="M173 814 c-4 -10 5 -26 23 -42 28 -27 28 -27 6 -1 -22 26 -29 49 -14 49 5 0 11 -3 15 -6 9 -10 107 -54 107 -48 0 4 -119 64 -127 64 -2 0 -6 -7 -10 -16z" transform="translate(0,92) scale(0.1,-0.1)" stroke="none" fill="#FBD984"/>

<path d="M369 245 c-3 -38 -5 -72 -3 -74 5 -6 30 23 43 49 l12 25 -20 -25 -20 -25 -3 60 -3 60 -6 -70z" transform="translate(0,92) scale(0.1,-0.1)" stroke="none" fill="#936C3F"/>

<path d="M290 763 c33 -23 91 -82 112 -113 9 -14 17 -20 17 -14 1 19 -89 114 -123 130 -31 14 -31 14 -6 -3z" transform="translate(0,92) scale(0.1,-0.1)" stroke="none" fill="#936C3F"/>

<path d="M547 567 c27 -76 27 -86 -12 -237 -5 -20 -3 -19 8 5 7 17 19 58 27 92 12 58 11 68 -10 133 -12 39 -26 73 -30 75 -5 3 3 -28 17 -68z" transform="translate(0,92) scale(0.1,-0.1)" stroke="none" fill="#FBD984"/>

<path d="M290 848 c14 -6 45 -21 70 -32 54 -25 129 -97 154 -149 10 -21 20 -36 23 -34 9 9 -45 91 -84 129 -38 36 -115 80 -163 92 l-25 6 25 -12z" transform="translate(0,92) scale(0.1,-0.1)" stroke="none" fill="#936C3F"/>

<path d="M31 851 c-1 -7 23 -39 52 -70 51 -55 113 -160 142 -238 7 -21 14 -31 14 -21 2 34 -98 213 -147 264 -27 27 -52 57 -55 65 -4 11 -6 11 -6 0z" transform="translate(0,92) scale(0.1,-0.1)" stroke="none" fill="#936C3F"/>

<path d="M100 870 c-8 -5 -25 -10 -37 -10 -34 0 -28 -15 28 -73 l52 -52 -39 48 c-21 26 -42 47 -46 47 -4 0 -8 4 -8 8 0 4 21 14 46 21 47 14 49 14 204 -24 l25 -6 -25 12 c-34 15 -129 38 -160 38 -14 1 -32 -4 -40 -9z" transform="translate(0,92) scale(0.1,-0.1)" stroke="none" fill="#FBD984"/>

<path d="M480 210 c-53 -82 -154 -154 -208 -148 -21 2 -26 8 -24 23 2 11 5 34 7 50 l4 30 -8 -31 c-4 -17 -11 -36 -15 -43 -11 -17 12 -41 41 -41 57 0 181 97 226 178 28 50 13 38 -23 -18z" transform="translate(0,92) scale(0.1,-0.1)" stroke="none" fill="#936C3F"/>

<path d="M182 655 c47 -90 73 -167 89 -260 12 -68 8 -116 -23 -310 -2 -15 3 -21 24 -23 46 -5 146 58 190 121 14 21 4 14 -31 -21 -58 -58 -116 -92 -157 -92 -21 0 -25 3 -19 18 12 28 34 184 34 237 0 54 -20 159 -32 171 -4 4 -7 15 -7 24 0 20 -84 195 -98 204 -5 3 8 -28 30 -69z" transform="translate(0,92) scale(0.1,-0.1)" stroke="none" fill="#FBD984"/>

<path d="M242 710 c50 -69 89 -162 114 -280 13 -60 13 -130 -1 -225 -3 -16 0 -37 5 -45 8 -13 12 -11 27 10 91 126 123 257 87 359 -22 66 -53 129 -64 136 -6 4 -2 -9 8 -27 33 -59 62 -153 62 -203 0 -52 -29 -145 -63 -204 -23 -39 -46 -66 -52 -60 -2 2 1 44 6 94 11 98 3 163 -33 270 -26 77 -74 169 -101 192 -16 14 -15 10 5 -17z" transform="translate(0,92) scale(0.1,-0.1)" stroke="none" fill="#FBD984"/>

<path d="M83 857 c-30 -10 -45 -27 -25 -27 32 0 192 -259 192 -310 0 -9 3 -20 7 -24 12 -12 32 -117 32 -171 0 -53 -22 -209 -34 -238 -10 -24 34 -23 85 3 133 68 253 306 221 437 -48 187 -144 280 -341 329 -63 15 -92 15 -137 1z m176 -63 c107 -54 168 -129 215 -265 36 -102 4 -233 -87 -359 -15 -21 -19 -23 -27 -10 -5 8 -8 29 -5 45 14 95 14 165 1 225 -29 136 -71 228 -142 315 -25 32 -43 63 -40 71 7 19 4 19 85 -22z" transform="translate(0,92) scale(0.1,-0.1)" stroke="none" fill="#BED3B8"/>

</g>

</g>
</svg>