<?xml version="1.0" standalone="no"?>
<!DOCTYPE svg PUBLIC "-//W3C//DTD SVG 20010904//EN"
 "http://www.w3.org/TR/2001/REC-SVG-20010904/DTD/svg10.dtd">
<svg version="1.0" xmlns="http://www.w3.org/2000/svg" width="4392pt" height="4392pt" viewBox="0 0 4392 4392" preserveAspectRatio = "xMidYMid meet" >
<metadata>
Created by ZoeQu, written in 2022
</metadata>
<rect width="4392" height="4392" fill="#F0B765"/>
<g id="row0" transform="translate(0,0.0)">
<g id="0" transform="translate(0.0,0)scale(0.25,0.25)">

<g id="pattern">
<rect width="4758" height="4758" fill="#F0B765"/>
<g id="pattern1" transform="matrix(1,0,0,1,296,296)">
<path d="M870 935 c0 -5 10 -19 22 -32 12 -13 16 -23 10 -23 -6 0 -13 4 -16 8 -3 5 -122 9 -266 9 -203 1 -262 -1 -266 -11 -5 -12 270 -296 286 -296 4 0 16 -12 26 -27 25 -40 226 -233 242 -233 10 0 12 55 10 270 -2 149 -1 270 3 270 3 0 10 -5 17 -12 6 -6 14 -9 17 -7 2 3 -16 25 -40 49 -25 24 -45 40 -45 35z" transform="translate(0.000000,0.000000) scale(1,1)" stroke="none" fill="#96926F"/>
<path d="M590 620 c0 -14 -31 -16 -249 -15 -137 0 -249 -2 -249 -5 1 -18 -4 -21 -16 -11 -9 8 -16 9 -20 2 -8 -12 231 -247 246 -243 5 1 7 -1 4 -6 -3 -5 59 -72 138 -151 l142 -142 14 28 13 28 8 -25 c4 -14 7 89 8 229 0 139 2 256 5 259 3 3 16 -3 27 -14 l22 -19 -18 28 c-9 15 -22 27 -27 27 -5 0 -18 10 -29 23 -14 16 -18 18 -19 7z m21 -227 c-8 -15 -10 -15 -11 -2 0 17 10 32 18 25 2 -3 -1 -13 -7 -23z" transform="translate(0.000000,0.000000) scale(1,1)" stroke="none" fill="#167F79"/>
</g>
<g id="pattern2" transform="matrix(0.618,0,0,0.618,2254,662)">
<path d="M870 935 c0 -5 10 -19 22 -32 12 -13 16 -23 10 -23 -6 0 -13 4 -16 8 -3 5 -122 9 -266 9 -203 1 -262 -1 -266 -11 -5 -12 270 -296 286 -296 4 0 16 -12 26 -27 25 -40 226 -233 242 -233 10 0 12 55 10 270 -2 149 -1 270 3 270 3 0 10 -5 17 -12 6 -6 14 -9 17 -7 2 3 -16 25 -40 49 -25 24 -45 40 -45 35z" transform="translate(2986,0.000000) scale(-1,1)" stroke="none" fill="#96926F"/>
<path d="M590 620 c0 -14 -31 -16 -249 -15 -137 0 -249 -2 -249 -5 1 -18 -4 -21 -16 -11 -9 8 -16 9 -20 2 -8 -12 231 -247 246 -243 5 1 7 -1 4 -6 -3 -5 59 -72 138 -151 l142 -142 14 28 13 28 8 -25 c4 -14 7 89 8 229 0 139 2 256 5 259 3 3 16 -3 27 -14 l22 -19 -18 28 c-9 15 -22 27 -27 27 -5 0 -18 10 -29 23 -14 16 -18 18 -19 7z m21 -227 c-8 -15 -10 -15 -11 -2 0 17 10 32 18 25 2 -3 -1 -13 -7 -23z" transform="translate(2986,0.000000) scale(-1,1)" stroke="none" fill="#167F79"/>
</g>
<g id="pattern3" transform="matrix(0.618,0,0,0.618,845,2986)matrix(0.71,0.71,-0.71,0.71,0,0)">
<path d="M870 935 c0 -5 10 -19 22 -32 12 -13 16 -23 10 -23 -6 0 -13 4 -16 8 -3 5 -122 9 -266 9 -203 1 -262 -1 -266 -11 -5 -12 270 -296 286 -296 4 0 16 -12 26 -27 25 -40 226 -233 242 -233 10 0 12 55 10 270 -2 149 -1 270 3 270 3 0 10 -5 17 -12 6 -6 14 -9 17 -7 2 3 -16 25 -40 49 -25 24 -45 40 -45 35z" transform="translate(479,-479) scale(1,1)" stroke="none" fill="#96926F"/>
<path d="M590 620 c0 -14 -31 -16 -249 -15 -137 0 -249 -2 -249 -5 1 -18 -4 -21 -16 -11 -9 8 -16 9 -20 2 -8 -12 231 -247 246 -243 5 1 7 -1 4 -6 -3 -5 59 -72 138 -151 l142 -142 14 28 13 28 8 -25 c4 -14 7 89 8 229 0 139 2 256 5 259 3 3 16 -3 27 -14 l22 -19 -18 28 c-9 15 -22 27 -27 27 -5 0 -18 10 -29 23 -14 16 -18 18 -19 7z m21 -227 c-8 -15 -10 -15 -11 -2 0 17 10 32 18 25 2 -3 -1 -13 -7 -23z" transform="translate(479,-479) scale(1,1)" stroke="none" fill="#167F79"/>
</g>
<g id="pattern4" transform="matrix(1.618,0,0,1.618,1253,1253)matrix(0.87,0.5,-0.5,0.87,0,0)">
<path d="M870 935 c0 -5 10 -19 22 -32 12 -13 16 -23 10 -23 -6 0 -13 4 -16 8 -3 5 -122 9 -266 9 -203 1 -262 -1 -266 -11 -5 -12 270 -296 286 -296 4 0 16 -12 26 -27 25 -40 226 -233 242 -233 10 0 12 55 10 270 -2 149 -1 270 3 270 3 0 10 -5 17 -12 6 -6 14 -9 17 -7 2 3 -16 25 -40 49 -25 24 -45 40 -45 35z" transform="translate(479,-479) scale(1,1)" stroke="none" fill="#96926F"/>
<path d="M590 620 c0 -14 -31 -16 -249 -15 -137 0 -249 -2 -249 -5 1 -18 -4 -21 -16 -11 -9 8 -16 9 -20 2 -8 -12 231 -247 246 -243 5 1 7 -1 4 -6 -3 -5 59 -72 138 -151 l142 -142 14 28 13 28 8 -25 c4 -14 7 89 8 229 0 139 2 256 5 259 3 3 16 -3 27 -14 l22 -19 -18 28 c-9 15 -22 27 -27 27 -5 0 -18 10 -29 23 -14 16 -18 18 -19 7z m21 -227 c-8 -15 -10 -15 -11 -2 0 17 10 32 18 25 2 -3 -1 -13 -7 -23z" transform="translate(479,-479) scale(1,1)" stroke="none" fill="#167F79"/>
</g>
</g>
</g>

<g id="1" transform="translate(1098.0,0)scale(0.25,0.25)">

<g id="pattern">
<rect width="4758" height="4758" fill="#F0B765"/>
<g id="pattern1" transform="matrix(1,0,0,1,296,296)">
<path d="M870 935 c0 -5 10 -19 22 -32 12 -13 16 -23 10 -23 -6 0 -13 4 -16 8 -3 5 -122 9 -266 9 -203 1 -262 -1 -266 -11 -5 -12 270 -296 286 -296 4 0 16 -12 26 -27 25 -40 226 -233 242 -233 10 0 12 55 10 270 -2 149 -1 270 3 270 3 0 10 -5 17 -12 6 -6 14 -9 17 -7 2 3 -16 25 -40 49 -25 24 -45 40 -45 35z" transform="translate(0.000000,0.000000) scale(1,1)" stroke="none" fill="#96926F"/>
<path d="M590 620 c0 -14 -31 -16 -249 -15 -137 0 -249 -2 -249 -5 1 -18 -4 -21 -16 -11 -9 8 -16 9 -20 2 -8 -12 231 -247 246 -243 5 1 7 -1 4 -6 -3 -5 59 -72 138 -151 l142 -142 14 28 13 28 8 -25 c4 -14 7 89 8 229 0 139 2 256 5 259 3 3 16 -3 27 -14 l22 -19 -18 28 c-9 15 -22 27 -27 27 -5 0 -18 10 -29 23 -14 16 -18 18 -19 7z m21 -227 c-8 -15 -10 -15 -11 -2 0 17 10 32 18 25 2 -3 -1 -13 -7 -23z" transform="translate(0.000000,0.000000) scale(1,1)" stroke="none" fill="#167F79"/>
</g>
<g id="pattern2" transform="matrix(0.618,0,0,0.618,2254,662)">
<path d="M870 935 c0 -5 10 -19 22 -32 12 -13 16 -23 10 -23 -6 0 -13 4 -16 8 -3 5 -122 9 -266 9 -203 1 -262 -1 -266 -11 -5 -12 270 -296 286 -296 4 0 16 -12 26 -27 25 -40 226 -233 242 -233 10 0 12 55 10 270 -2 149 -1 270 3 270 3 0 10 -5 17 -12 6 -6 14 -9 17 -7 2 3 -16 25 -40 49 -25 24 -45 40 -45 35z" transform="translate(2986,0.000000) scale(-1,1)" stroke="none" fill="#96926F"/>
<path d="M590 620 c0 -14 -31 -16 -249 -15 -137 0 -249 -2 -249 -5 1 -18 -4 -21 -16 -11 -9 8 -16 9 -20 2 -8 -12 231 -247 246 -243 5 1 7 -1 4 -6 -3 -5 59 -72 138 -151 l142 -142 14 28 13 28 8 -25 c4 -14 7 89 8 229 0 139 2 256 5 259 3 3 16 -3 27 -14 l22 -19 -18 28 c-9 15 -22 27 -27 27 -5 0 -18 10 -29 23 -14 16 -18 18 -19 7z m21 -227 c-8 -15 -10 -15 -11 -2 0 17 10 32 18 25 2 -3 -1 -13 -7 -23z" transform="translate(2986,0.000000) scale(-1,1)" stroke="none" fill="#167F79"/>
</g>
<g id="pattern3" transform="matrix(0.618,0,0,0.618,845,2986)matrix(0.71,0.71,-0.71,0.71,0,0)">
<path d="M870 935 c0 -5 10 -19 22 -32 12 -13 16 -23 10 -23 -6 0 -13 4 -16 8 -3 5 -122 9 -266 9 -203 1 -262 -1 -266 -11 -5 -12 270 -296 286 -296 4 0 16 -12 26 -27 25 -40 226 -233 242 -233 10 0 12 55 10 270 -2 149 -1 270 3 270 3 0 10 -5 17 -12 6 -6 14 -9 17 -7 2 3 -16 25 -40 49 -25 24 -45 40 -45 35z" transform="translate(479,-479) scale(1,1)" stroke="none" fill="#96926F"/>
<path d="M590 620 c0 -14 -31 -16 -249 -15 -137 0 -249 -2 -249 -5 1 -18 -4 -21 -16 -11 -9 8 -16 9 -20 2 -8 -12 231 -247 246 -243 5 1 7 -1 4 -6 -3 -5 59 -72 138 -151 l142 -142 14 28 13 28 8 -25 c4 -14 7 89 8 229 0 139 2 256 5 259 3 3 16 -3 27 -14 l22 -19 -18 28 c-9 15 -22 27 -27 27 -5 0 -18 10 -29 23 -14 16 -18 18 -19 7z m21 -227 c-8 -15 -10 -15 -11 -2 0 17 10 32 18 25 2 -3 -1 -13 -7 -23z" transform="translate(479,-479) scale(1,1)" stroke="none" fill="#167F79"/>
</g>
<g id="pattern4" transform="matrix(1.618,0,0,1.618,1253,1253)matrix(0.87,0.5,-0.5,0.87,0,0)">
<path d="M870 935 c0 -5 10 -19 22 -32 12 -13 16 -23 10 -23 -6 0 -13 4 -16 8 -3 5 -122 9 -266 9 -203 1 -262 -1 -266 -11 -5 -12 270 -296 286 -296 4 0 16 -12 26 -27 25 -40 226 -233 242 -233 10 0 12 55 10 270 -2 149 -1 270 3 270 3 0 10 -5 17 -12 6 -6 14 -9 17 -7 2 3 -16 25 -40 49 -25 24 -45 40 -45 35z" transform="translate(479,-479) scale(1,1)" stroke="none" fill="#96926F"/>
<path d="M590 620 c0 -14 -31 -16 -249 -15 -137 0 -249 -2 -249 -5 1 -18 -4 -21 -16 -11 -9 8 -16 9 -20 2 -8 -12 231 -247 246 -243 5 1 7 -1 4 -6 -3 -5 59 -72 138 -151 l142 -142 14 28 13 28 8 -25 c4 -14 7 89 8 229 0 139 2 256 5 259 3 3 16 -3 27 -14 l22 -19 -18 28 c-9 15 -22 27 -27 27 -5 0 -18 10 -29 23 -14 16 -18 18 -19 7z m21 -227 c-8 -15 -10 -15 -11 -2 0 17 10 32 18 25 2 -3 -1 -13 -7 -23z" transform="translate(479,-479) scale(1,1)" stroke="none" fill="#167F79"/>
</g>
</g>
</g>

<g id="2" transform="translate(2196.0,0)scale(0.25,0.25)">

<g id="pattern">
<rect width="4758" height="4758" fill="#F0B765"/>
<g id="pattern1" transform="matrix(1,0,0,1,296,296)">
<path d="M870 935 c0 -5 10 -19 22 -32 12 -13 16 -23 10 -23 -6 0 -13 4 -16 8 -3 5 -122 9 -266 9 -203 1 -262 -1 -266 -11 -5 -12 270 -296 286 -296 4 0 16 -12 26 -27 25 -40 226 -233 242 -233 10 0 12 55 10 270 -2 149 -1 270 3 270 3 0 10 -5 17 -12 6 -6 14 -9 17 -7 2 3 -16 25 -40 49 -25 24 -45 40 -45 35z" transform="translate(0.000000,0.000000) scale(1,1)" stroke="none" fill="#96926F"/>
<path d="M590 620 c0 -14 -31 -16 -249 -15 -137 0 -249 -2 -249 -5 1 -18 -4 -21 -16 -11 -9 8 -16 9 -20 2 -8 -12 231 -247 246 -243 5 1 7 -1 4 -6 -3 -5 59 -72 138 -151 l142 -142 14 28 13 28 8 -25 c4 -14 7 89 8 229 0 139 2 256 5 259 3 3 16 -3 27 -14 l22 -19 -18 28 c-9 15 -22 27 -27 27 -5 0 -18 10 -29 23 -14 16 -18 18 -19 7z m21 -227 c-8 -15 -10 -15 -11 -2 0 17 10 32 18 25 2 -3 -1 -13 -7 -23z" transform="translate(0.000000,0.000000) scale(1,1)" stroke="none" fill="#167F79"/>
</g>
<g id="pattern2" transform="matrix(0.618,0,0,0.618,2254,662)">
<path d="M870 935 c0 -5 10 -19 22 -32 12 -13 16 -23 10 -23 -6 0 -13 4 -16 8 -3 5 -122 9 -266 9 -203 1 -262 -1 -266 -11 -5 -12 270 -296 286 -296 4 0 16 -12 26 -27 25 -40 226 -233 242 -233 10 0 12 55 10 270 -2 149 -1 270 3 270 3 0 10 -5 17 -12 6 -6 14 -9 17 -7 2 3 -16 25 -40 49 -25 24 -45 40 -45 35z" transform="translate(2986,0.000000) scale(-1,1)" stroke="none" fill="#96926F"/>
<path d="M590 620 c0 -14 -31 -16 -249 -15 -137 0 -249 -2 -249 -5 1 -18 -4 -21 -16 -11 -9 8 -16 9 -20 2 -8 -12 231 -247 246 -243 5 1 7 -1 4 -6 -3 -5 59 -72 138 -151 l142 -142 14 28 13 28 8 -25 c4 -14 7 89 8 229 0 139 2 256 5 259 3 3 16 -3 27 -14 l22 -19 -18 28 c-9 15 -22 27 -27 27 -5 0 -18 10 -29 23 -14 16 -18 18 -19 7z m21 -227 c-8 -15 -10 -15 -11 -2 0 17 10 32 18 25 2 -3 -1 -13 -7 -23z" transform="translate(2986,0.000000) scale(-1,1)" stroke="none" fill="#167F79"/>
</g>
<g id="pattern3" transform="matrix(0.618,0,0,0.618,845,2986)matrix(0.71,0.71,-0.71,0.71,0,0)">
<path d="M870 935 c0 -5 10 -19 22 -32 12 -13 16 -23 10 -23 -6 0 -13 4 -16 8 -3 5 -122 9 -266 9 -203 1 -262 -1 -266 -11 -5 -12 270 -296 286 -296 4 0 16 -12 26 -27 25 -40 226 -233 242 -233 10 0 12 55 10 270 -2 149 -1 270 3 270 3 0 10 -5 17 -12 6 -6 14 -9 17 -7 2 3 -16 25 -40 49 -25 24 -45 40 -45 35z" transform="translate(479,-479) scale(1,1)" stroke="none" fill="#96926F"/>
<path d="M590 620 c0 -14 -31 -16 -249 -15 -137 0 -249 -2 -249 -5 1 -18 -4 -21 -16 -11 -9 8 -16 9 -20 2 -8 -12 231 -247 246 -243 5 1 7 -1 4 -6 -3 -5 59 -72 138 -151 l142 -142 14 28 13 28 8 -25 c4 -14 7 89 8 229 0 139 2 256 5 259 3 3 16 -3 27 -14 l22 -19 -18 28 c-9 15 -22 27 -27 27 -5 0 -18 10 -29 23 -14 16 -18 18 -19 7z m21 -227 c-8 -15 -10 -15 -11 -2 0 17 10 32 18 25 2 -3 -1 -13 -7 -23z" transform="translate(479,-479) scale(1,1)" stroke="none" fill="#167F79"/>
</g>
<g id="pattern4" transform="matrix(1.618,0,0,1.618,1253,1253)matrix(0.87,0.5,-0.5,0.87,0,0)">
<path d="M870 935 c0 -5 10 -19 22 -32 12 -13 16 -23 10 -23 -6 0 -13 4 -16 8 -3 5 -122 9 -266 9 -203 1 -262 -1 -266 -11 -5 -12 270 -296 286 -296 4 0 16 -12 26 -27 25 -40 226 -233 242 -233 10 0 12 55 10 270 -2 149 -1 270 3 270 3 0 10 -5 17 -12 6 -6 14 -9 17 -7 2 3 -16 25 -40 49 -25 24 -45 40 -45 35z" transform="translate(479,-479) scale(1,1)" stroke="none" fill="#96926F"/>
<path d="M590 620 c0 -14 -31 -16 -249 -15 -137 0 -249 -2 -249 -5 1 -18 -4 -21 -16 -11 -9 8 -16 9 -20 2 -8 -12 231 -247 246 -243 5 1 7 -1 4 -6 -3 -5 59 -72 138 -151 l142 -142 14 28 13 28 8 -25 c4 -14 7 89 8 229 0 139 2 256 5 259 3 3 16 -3 27 -14 l22 -19 -18 28 c-9 15 -22 27 -27 27 -5 0 -18 10 -29 23 -14 16 -18 18 -19 7z m21 -227 c-8 -15 -10 -15 -11 -2 0 17 10 32 18 25 2 -3 -1 -13 -7 -23z" transform="translate(479,-479) scale(1,1)" stroke="none" fill="#167F79"/>
</g>
</g>
</g>

<g id="3" transform="translate(3294.0,0)scale(0.25,0.25)">

<g id="pattern">
<rect width="4758" height="4758" fill="#F0B765"/>
<g id="pattern1" transform="matrix(1,0,0,1,296,296)">
<path d="M870 935 c0 -5 10 -19 22 -32 12 -13 16 -23 10 -23 -6 0 -13 4 -16 8 -3 5 -122 9 -266 9 -203 1 -262 -1 -266 -11 -5 -12 270 -296 286 -296 4 0 16 -12 26 -27 25 -40 226 -233 242 -233 10 0 12 55 10 270 -2 149 -1 270 3 270 3 0 10 -5 17 -12 6 -6 14 -9 17 -7 2 3 -16 25 -40 49 -25 24 -45 40 -45 35z" transform="translate(0.000000,0.000000) scale(1,1)" stroke="none" fill="#96926F"/>
<path d="M590 620 c0 -14 -31 -16 -249 -15 -137 0 -249 -2 -249 -5 1 -18 -4 -21 -16 -11 -9 8 -16 9 -20 2 -8 -12 231 -247 246 -243 5 1 7 -1 4 -6 -3 -5 59 -72 138 -151 l142 -142 14 28 13 28 8 -25 c4 -14 7 89 8 229 0 139 2 256 5 259 3 3 16 -3 27 -14 l22 -19 -18 28 c-9 15 -22 27 -27 27 -5 0 -18 10 -29 23 -14 16 -18 18 -19 7z m21 -227 c-8 -15 -10 -15 -11 -2 0 17 10 32 18 25 2 -3 -1 -13 -7 -23z" transform="translate(0.000000,0.000000) scale(1,1)" stroke="none" fill="#167F79"/>
</g>
<g id="pattern2" transform="matrix(0.618,0,0,0.618,2254,662)">
<path d="M870 935 c0 -5 10 -19 22 -32 12 -13 16 -23 10 -23 -6 0 -13 4 -16 8 -3 5 -122 9 -266 9 -203 1 -262 -1 -266 -11 -5 -12 270 -296 286 -296 4 0 16 -12 26 -27 25 -40 226 -233 242 -233 10 0 12 55 10 270 -2 149 -1 270 3 270 3 0 10 -5 17 -12 6 -6 14 -9 17 -7 2 3 -16 25 -40 49 -25 24 -45 40 -45 35z" transform="translate(2986,0.000000) scale(-1,1)" stroke="none" fill="#96926F"/>
<path d="M590 620 c0 -14 -31 -16 -249 -15 -137 0 -249 -2 -249 -5 1 -18 -4 -21 -16 -11 -9 8 -16 9 -20 2 -8 -12 231 -247 246 -243 5 1 7 -1 4 -6 -3 -5 59 -72 138 -151 l142 -142 14 28 13 28 8 -25 c4 -14 7 89 8 229 0 139 2 256 5 259 3 3 16 -3 27 -14 l22 -19 -18 28 c-9 15 -22 27 -27 27 -5 0 -18 10 -29 23 -14 16 -18 18 -19 7z m21 -227 c-8 -15 -10 -15 -11 -2 0 17 10 32 18 25 2 -3 -1 -13 -7 -23z" transform="translate(2986,0.000000) scale(-1,1)" stroke="none" fill="#167F79"/>
</g>
<g id="pattern3" transform="matrix(0.618,0,0,0.618,845,2986)matrix(0.71,0.71,-0.71,0.71,0,0)">
<path d="M870 935 c0 -5 10 -19 22 -32 12 -13 16 -23 10 -23 -6 0 -13 4 -16 8 -3 5 -122 9 -266 9 -203 1 -262 -1 -266 -11 -5 -12 270 -296 286 -296 4 0 16 -12 26 -27 25 -40 226 -233 242 -233 10 0 12 55 10 270 -2 149 -1 270 3 270 3 0 10 -5 17 -12 6 -6 14 -9 17 -7 2 3 -16 25 -40 49 -25 24 -45 40 -45 35z" transform="translate(479,-479) scale(1,1)" stroke="none" fill="#96926F"/>
<path d="M590 620 c0 -14 -31 -16 -249 -15 -137 0 -249 -2 -249 -5 1 -18 -4 -21 -16 -11 -9 8 -16 9 -20 2 -8 -12 231 -247 246 -243 5 1 7 -1 4 -6 -3 -5 59 -72 138 -151 l142 -142 14 28 13 28 8 -25 c4 -14 7 89 8 229 0 139 2 256 5 259 3 3 16 -3 27 -14 l22 -19 -18 28 c-9 15 -22 27 -27 27 -5 0 -18 10 -29 23 -14 16 -18 18 -19 7z m21 -227 c-8 -15 -10 -15 -11 -2 0 17 10 32 18 25 2 -3 -1 -13 -7 -23z" transform="translate(479,-479) scale(1,1)" stroke="none" fill="#167F79"/>
</g>
<g id="pattern4" transform="matrix(1.618,0,0,1.618,1253,1253)matrix(0.87,0.5,-0.5,0.87,0,0)">
<path d="M870 935 c0 -5 10 -19 22 -32 12 -13 16 -23 10 -23 -6 0 -13 4 -16 8 -3 5 -122 9 -266 9 -203 1 -262 -1 -266 -11 -5 -12 270 -296 286 -296 4 0 16 -12 26 -27 25 -40 226 -233 242 -233 10 0 12 55 10 270 -2 149 -1 270 3 270 3 0 10 -5 17 -12 6 -6 14 -9 17 -7 2 3 -16 25 -40 49 -25 24 -45 40 -45 35z" transform="translate(479,-479) scale(1,1)" stroke="none" fill="#96926F"/>
<path d="M590 620 c0 -14 -31 -16 -249 -15 -137 0 -249 -2 -249 -5 1 -18 -4 -21 -16 -11 -9 8 -16 9 -20 2 -8 -12 231 -247 246 -243 5 1 7 -1 4 -6 -3 -5 59 -72 138 -151 l142 -142 14 28 13 28 8 -25 c4 -14 7 89 8 229 0 139 2 256 5 259 3 3 16 -3 27 -14 l22 -19 -18 28 c-9 15 -22 27 -27 27 -5 0 -18 10 -29 23 -14 16 -18 18 -19 7z m21 -227 c-8 -15 -10 -15 -11 -2 0 17 10 32 18 25 2 -3 -1 -13 -7 -23z" transform="translate(479,-479) scale(1,1)" stroke="none" fill="#167F79"/>
</g>
</g>
</g>

<g id="4" transform="translate(4392.0,0)scale(0.25,0.25)">

<g id="pattern">
<rect width="4758" height="4758" fill="#F0B765"/>
<g id="pattern1" transform="matrix(1,0,0,1,296,296)">
<path d="M870 935 c0 -5 10 -19 22 -32 12 -13 16 -23 10 -23 -6 0 -13 4 -16 8 -3 5 -122 9 -266 9 -203 1 -262 -1 -266 -11 -5 -12 270 -296 286 -296 4 0 16 -12 26 -27 25 -40 226 -233 242 -233 10 0 12 55 10 270 -2 149 -1 270 3 270 3 0 10 -5 17 -12 6 -6 14 -9 17 -7 2 3 -16 25 -40 49 -25 24 -45 40 -45 35z" transform="translate(0.000000,0.000000) scale(1,1)" stroke="none" fill="#96926F"/>
<path d="M590 620 c0 -14 -31 -16 -249 -15 -137 0 -249 -2 -249 -5 1 -18 -4 -21 -16 -11 -9 8 -16 9 -20 2 -8 -12 231 -247 246 -243 5 1 7 -1 4 -6 -3 -5 59 -72 138 -151 l142 -142 14 28 13 28 8 -25 c4 -14 7 89 8 229 0 139 2 256 5 259 3 3 16 -3 27 -14 l22 -19 -18 28 c-9 15 -22 27 -27 27 -5 0 -18 10 -29 23 -14 16 -18 18 -19 7z m21 -227 c-8 -15 -10 -15 -11 -2 0 17 10 32 18 25 2 -3 -1 -13 -7 -23z" transform="translate(0.000000,0.000000) scale(1,1)" stroke="none" fill="#167F79"/>
</g>
<g id="pattern2" transform="matrix(0.618,0,0,0.618,2254,662)">
<path d="M870 935 c0 -5 10 -19 22 -32 12 -13 16 -23 10 -23 -6 0 -13 4 -16 8 -3 5 -122 9 -266 9 -203 1 -262 -1 -266 -11 -5 -12 270 -296 286 -296 4 0 16 -12 26 -27 25 -40 226 -233 242 -233 10 0 12 55 10 270 -2 149 -1 270 3 270 3 0 10 -5 17 -12 6 -6 14 -9 17 -7 2 3 -16 25 -40 49 -25 24 -45 40 -45 35z" transform="translate(2986,0.000000) scale(-1,1)" stroke="none" fill="#96926F"/>
<path d="M590 620 c0 -14 -31 -16 -249 -15 -137 0 -249 -2 -249 -5 1 -18 -4 -21 -16 -11 -9 8 -16 9 -20 2 -8 -12 231 -247 246 -243 5 1 7 -1 4 -6 -3 -5 59 -72 138 -151 l142 -142 14 28 13 28 8 -25 c4 -14 7 89 8 229 0 139 2 256 5 259 3 3 16 -3 27 -14 l22 -19 -18 28 c-9 15 -22 27 -27 27 -5 0 -18 10 -29 23 -14 16 -18 18 -19 7z m21 -227 c-8 -15 -10 -15 -11 -2 0 17 10 32 18 25 2 -3 -1 -13 -7 -23z" transform="translate(2986,0.000000) scale(-1,1)" stroke="none" fill="#167F79"/>
</g>
<g id="pattern3" transform="matrix(0.618,0,0,0.618,845,2986)matrix(0.71,0.71,-0.71,0.71,0,0)">
<path d="M870 935 c0 -5 10 -19 22 -32 12 -13 16 -23 10 -23 -6 0 -13 4 -16 8 -3 5 -122 9 -266 9 -203 1 -262 -1 -266 -11 -5 -12 270 -296 286 -296 4 0 16 -12 26 -27 25 -40 226 -233 242 -233 10 0 12 55 10 270 -2 149 -1 270 3 270 3 0 10 -5 17 -12 6 -6 14 -9 17 -7 2 3 -16 25 -40 49 -25 24 -45 40 -45 35z" transform="translate(479,-479) scale(1,1)" stroke="none" fill="#96926F"/>
<path d="M590 620 c0 -14 -31 -16 -249 -15 -137 0 -249 -2 -249 -5 1 -18 -4 -21 -16 -11 -9 8 -16 9 -20 2 -8 -12 231 -247 246 -243 5 1 7 -1 4 -6 -3 -5 59 -72 138 -151 l142 -142 14 28 13 28 8 -25 c4 -14 7 89 8 229 0 139 2 256 5 259 3 3 16 -3 27 -14 l22 -19 -18 28 c-9 15 -22 27 -27 27 -5 0 -18 10 -29 23 -14 16 -18 18 -19 7z m21 -227 c-8 -15 -10 -15 -11 -2 0 17 10 32 18 25 2 -3 -1 -13 -7 -23z" transform="translate(479,-479) scale(1,1)" stroke="none" fill="#167F79"/>
</g>
<g id="pattern4" transform="matrix(1.618,0,0,1.618,1253,1253)matrix(0.87,0.5,-0.5,0.87,0,0)">
<path d="M870 935 c0 -5 10 -19 22 -32 12 -13 16 -23 10 -23 -6 0 -13 4 -16 8 -3 5 -122 9 -266 9 -203 1 -262 -1 -266 -11 -5 -12 270 -296 286 -296 4 0 16 -12 26 -27 25 -40 226 -233 242 -233 10 0 12 55 10 270 -2 149 -1 270 3 270 3 0 10 -5 17 -12 6 -6 14 -9 17 -7 2 3 -16 25 -40 49 -25 24 -45 40 -45 35z" transform="translate(479,-479) scale(1,1)" stroke="none" fill="#96926F"/>
<path d="M590 620 c0 -14 -31 -16 -249 -15 -137 0 -249 -2 -249 -5 1 -18 -4 -21 -16 -11 -9 8 -16 9 -20 2 -8 -12 231 -247 246 -243 5 1 7 -1 4 -6 -3 -5 59 -72 138 -151 l142 -142 14 28 13 28 8 -25 c4 -14 7 89 8 229 0 139 2 256 5 259 3 3 16 -3 27 -14 l22 -19 -18 28 c-9 15 -22 27 -27 27 -5 0 -18 10 -29 23 -14 16 -18 18 -19 7z m21 -227 c-8 -15 -10 -15 -11 -2 0 17 10 32 18 25 2 -3 -1 -13 -7 -23z" transform="translate(479,-479) scale(1,1)" stroke="none" fill="#167F79"/>
</g>
</g>
</g>

</g>
<g id="row1" transform="translate(0,1098.0)">
<g id="0" transform="translate(0.0,0)scale(0.25,0.25)">

<g id="pattern">
<rect width="4758" height="4758" fill="#F0B765"/>
<g id="pattern1" transform="matrix(1,0,0,1,296,296)">
<path d="M870 935 c0 -5 10 -19 22 -32 12 -13 16 -23 10 -23 -6 0 -13 4 -16 8 -3 5 -122 9 -266 9 -203 1 -262 -1 -266 -11 -5 -12 270 -296 286 -296 4 0 16 -12 26 -27 25 -40 226 -233 242 -233 10 0 12 55 10 270 -2 149 -1 270 3 270 3 0 10 -5 17 -12 6 -6 14 -9 17 -7 2 3 -16 25 -40 49 -25 24 -45 40 -45 35z" transform="translate(0.000000,0.000000) scale(1,1)" stroke="none" fill="#96926F"/>
<path d="M590 620 c0 -14 -31 -16 -249 -15 -137 0 -249 -2 -249 -5 1 -18 -4 -21 -16 -11 -9 8 -16 9 -20 2 -8 -12 231 -247 246 -243 5 1 7 -1 4 -6 -3 -5 59 -72 138 -151 l142 -142 14 28 13 28 8 -25 c4 -14 7 89 8 229 0 139 2 256 5 259 3 3 16 -3 27 -14 l22 -19 -18 28 c-9 15 -22 27 -27 27 -5 0 -18 10 -29 23 -14 16 -18 18 -19 7z m21 -227 c-8 -15 -10 -15 -11 -2 0 17 10 32 18 25 2 -3 -1 -13 -7 -23z" transform="translate(0.000000,0.000000) scale(1,1)" stroke="none" fill="#167F79"/>
</g>
<g id="pattern2" transform="matrix(0.618,0,0,0.618,2254,662)">
<path d="M870 935 c0 -5 10 -19 22 -32 12 -13 16 -23 10 -23 -6 0 -13 4 -16 8 -3 5 -122 9 -266 9 -203 1 -262 -1 -266 -11 -5 -12 270 -296 286 -296 4 0 16 -12 26 -27 25 -40 226 -233 242 -233 10 0 12 55 10 270 -2 149 -1 270 3 270 3 0 10 -5 17 -12 6 -6 14 -9 17 -7 2 3 -16 25 -40 49 -25 24 -45 40 -45 35z" transform="translate(2986,0.000000) scale(-1,1)" stroke="none" fill="#96926F"/>
<path d="M590 620 c0 -14 -31 -16 -249 -15 -137 0 -249 -2 -249 -5 1 -18 -4 -21 -16 -11 -9 8 -16 9 -20 2 -8 -12 231 -247 246 -243 5 1 7 -1 4 -6 -3 -5 59 -72 138 -151 l142 -142 14 28 13 28 8 -25 c4 -14 7 89 8 229 0 139 2 256 5 259 3 3 16 -3 27 -14 l22 -19 -18 28 c-9 15 -22 27 -27 27 -5 0 -18 10 -29 23 -14 16 -18 18 -19 7z m21 -227 c-8 -15 -10 -15 -11 -2 0 17 10 32 18 25 2 -3 -1 -13 -7 -23z" transform="translate(2986,0.000000) scale(-1,1)" stroke="none" fill="#167F79"/>
</g>
<g id="pattern3" transform="matrix(0.618,0,0,0.618,845,2986)matrix(0.71,0.71,-0.71,0.71,0,0)">
<path d="M870 935 c0 -5 10 -19 22 -32 12 -13 16 -23 10 -23 -6 0 -13 4 -16 8 -3 5 -122 9 -266 9 -203 1 -262 -1 -266 -11 -5 -12 270 -296 286 -296 4 0 16 -12 26 -27 25 -40 226 -233 242 -233 10 0 12 55 10 270 -2 149 -1 270 3 270 3 0 10 -5 17 -12 6 -6 14 -9 17 -7 2 3 -16 25 -40 49 -25 24 -45 40 -45 35z" transform="translate(479,-479) scale(1,1)" stroke="none" fill="#96926F"/>
<path d="M590 620 c0 -14 -31 -16 -249 -15 -137 0 -249 -2 -249 -5 1 -18 -4 -21 -16 -11 -9 8 -16 9 -20 2 -8 -12 231 -247 246 -243 5 1 7 -1 4 -6 -3 -5 59 -72 138 -151 l142 -142 14 28 13 28 8 -25 c4 -14 7 89 8 229 0 139 2 256 5 259 3 3 16 -3 27 -14 l22 -19 -18 28 c-9 15 -22 27 -27 27 -5 0 -18 10 -29 23 -14 16 -18 18 -19 7z m21 -227 c-8 -15 -10 -15 -11 -2 0 17 10 32 18 25 2 -3 -1 -13 -7 -23z" transform="translate(479,-479) scale(1,1)" stroke="none" fill="#167F79"/>
</g>
<g id="pattern4" transform="matrix(1.618,0,0,1.618,1253,1253)matrix(0.87,0.5,-0.5,0.87,0,0)">
<path d="M870 935 c0 -5 10 -19 22 -32 12 -13 16 -23 10 -23 -6 0 -13 4 -16 8 -3 5 -122 9 -266 9 -203 1 -262 -1 -266 -11 -5 -12 270 -296 286 -296 4 0 16 -12 26 -27 25 -40 226 -233 242 -233 10 0 12 55 10 270 -2 149 -1 270 3 270 3 0 10 -5 17 -12 6 -6 14 -9 17 -7 2 3 -16 25 -40 49 -25 24 -45 40 -45 35z" transform="translate(479,-479) scale(1,1)" stroke="none" fill="#96926F"/>
<path d="M590 620 c0 -14 -31 -16 -249 -15 -137 0 -249 -2 -249 -5 1 -18 -4 -21 -16 -11 -9 8 -16 9 -20 2 -8 -12 231 -247 246 -243 5 1 7 -1 4 -6 -3 -5 59 -72 138 -151 l142 -142 14 28 13 28 8 -25 c4 -14 7 89 8 229 0 139 2 256 5 259 3 3 16 -3 27 -14 l22 -19 -18 28 c-9 15 -22 27 -27 27 -5 0 -18 10 -29 23 -14 16 -18 18 -19 7z m21 -227 c-8 -15 -10 -15 -11 -2 0 17 10 32 18 25 2 -3 -1 -13 -7 -23z" transform="translate(479,-479) scale(1,1)" stroke="none" fill="#167F79"/>
</g>
</g>
</g>

<g id="1" transform="translate(1098.0,0)scale(0.25,0.25)">

<g id="pattern">
<rect width="4758" height="4758" fill="#F0B765"/>
<g id="pattern1" transform="matrix(1,0,0,1,296,296)">
<path d="M870 935 c0 -5 10 -19 22 -32 12 -13 16 -23 10 -23 -6 0 -13 4 -16 8 -3 5 -122 9 -266 9 -203 1 -262 -1 -266 -11 -5 -12 270 -296 286 -296 4 0 16 -12 26 -27 25 -40 226 -233 242 -233 10 0 12 55 10 270 -2 149 -1 270 3 270 3 0 10 -5 17 -12 6 -6 14 -9 17 -7 2 3 -16 25 -40 49 -25 24 -45 40 -45 35z" transform="translate(0.000000,0.000000) scale(1,1)" stroke="none" fill="#96926F"/>
<path d="M590 620 c0 -14 -31 -16 -249 -15 -137 0 -249 -2 -249 -5 1 -18 -4 -21 -16 -11 -9 8 -16 9 -20 2 -8 -12 231 -247 246 -243 5 1 7 -1 4 -6 -3 -5 59 -72 138 -151 l142 -142 14 28 13 28 8 -25 c4 -14 7 89 8 229 0 139 2 256 5 259 3 3 16 -3 27 -14 l22 -19 -18 28 c-9 15 -22 27 -27 27 -5 0 -18 10 -29 23 -14 16 -18 18 -19 7z m21 -227 c-8 -15 -10 -15 -11 -2 0 17 10 32 18 25 2 -3 -1 -13 -7 -23z" transform="translate(0.000000,0.000000) scale(1,1)" stroke="none" fill="#167F79"/>
</g>
<g id="pattern2" transform="matrix(0.618,0,0,0.618,2254,662)">
<path d="M870 935 c0 -5 10 -19 22 -32 12 -13 16 -23 10 -23 -6 0 -13 4 -16 8 -3 5 -122 9 -266 9 -203 1 -262 -1 -266 -11 -5 -12 270 -296 286 -296 4 0 16 -12 26 -27 25 -40 226 -233 242 -233 10 0 12 55 10 270 -2 149 -1 270 3 270 3 0 10 -5 17 -12 6 -6 14 -9 17 -7 2 3 -16 25 -40 49 -25 24 -45 40 -45 35z" transform="translate(2986,0.000000) scale(-1,1)" stroke="none" fill="#96926F"/>
<path d="M590 620 c0 -14 -31 -16 -249 -15 -137 0 -249 -2 -249 -5 1 -18 -4 -21 -16 -11 -9 8 -16 9 -20 2 -8 -12 231 -247 246 -243 5 1 7 -1 4 -6 -3 -5 59 -72 138 -151 l142 -142 14 28 13 28 8 -25 c4 -14 7 89 8 229 0 139 2 256 5 259 3 3 16 -3 27 -14 l22 -19 -18 28 c-9 15 -22 27 -27 27 -5 0 -18 10 -29 23 -14 16 -18 18 -19 7z m21 -227 c-8 -15 -10 -15 -11 -2 0 17 10 32 18 25 2 -3 -1 -13 -7 -23z" transform="translate(2986,0.000000) scale(-1,1)" stroke="none" fill="#167F79"/>
</g>
<g id="pattern3" transform="matrix(0.618,0,0,0.618,845,2986)matrix(0.71,0.71,-0.71,0.71,0,0)">
<path d="M870 935 c0 -5 10 -19 22 -32 12 -13 16 -23 10 -23 -6 0 -13 4 -16 8 -3 5 -122 9 -266 9 -203 1 -262 -1 -266 -11 -5 -12 270 -296 286 -296 4 0 16 -12 26 -27 25 -40 226 -233 242 -233 10 0 12 55 10 270 -2 149 -1 270 3 270 3 0 10 -5 17 -12 6 -6 14 -9 17 -7 2 3 -16 25 -40 49 -25 24 -45 40 -45 35z" transform="translate(479,-479) scale(1,1)" stroke="none" fill="#96926F"/>
<path d="M590 620 c0 -14 -31 -16 -249 -15 -137 0 -249 -2 -249 -5 1 -18 -4 -21 -16 -11 -9 8 -16 9 -20 2 -8 -12 231 -247 246 -243 5 1 7 -1 4 -6 -3 -5 59 -72 138 -151 l142 -142 14 28 13 28 8 -25 c4 -14 7 89 8 229 0 139 2 256 5 259 3 3 16 -3 27 -14 l22 -19 -18 28 c-9 15 -22 27 -27 27 -5 0 -18 10 -29 23 -14 16 -18 18 -19 7z m21 -227 c-8 -15 -10 -15 -11 -2 0 17 10 32 18 25 2 -3 -1 -13 -7 -23z" transform="translate(479,-479) scale(1,1)" stroke="none" fill="#167F79"/>
</g>
<g id="pattern4" transform="matrix(1.618,0,0,1.618,1253,1253)matrix(0.87,0.5,-0.5,0.87,0,0)">
<path d="M870 935 c0 -5 10 -19 22 -32 12 -13 16 -23 10 -23 -6 0 -13 4 -16 8 -3 5 -122 9 -266 9 -203 1 -262 -1 -266 -11 -5 -12 270 -296 286 -296 4 0 16 -12 26 -27 25 -40 226 -233 242 -233 10 0 12 55 10 270 -2 149 -1 270 3 270 3 0 10 -5 17 -12 6 -6 14 -9 17 -7 2 3 -16 25 -40 49 -25 24 -45 40 -45 35z" transform="translate(479,-479) scale(1,1)" stroke="none" fill="#96926F"/>
<path d="M590 620 c0 -14 -31 -16 -249 -15 -137 0 -249 -2 -249 -5 1 -18 -4 -21 -16 -11 -9 8 -16 9 -20 2 -8 -12 231 -247 246 -243 5 1 7 -1 4 -6 -3 -5 59 -72 138 -151 l142 -142 14 28 13 28 8 -25 c4 -14 7 89 8 229 0 139 2 256 5 259 3 3 16 -3 27 -14 l22 -19 -18 28 c-9 15 -22 27 -27 27 -5 0 -18 10 -29 23 -14 16 -18 18 -19 7z m21 -227 c-8 -15 -10 -15 -11 -2 0 17 10 32 18 25 2 -3 -1 -13 -7 -23z" transform="translate(479,-479) scale(1,1)" stroke="none" fill="#167F79"/>
</g>
</g>
</g>

<g id="2" transform="translate(2196.0,0)scale(0.25,0.25)">

<g id="pattern">
<rect width="4758" height="4758" fill="#F0B765"/>
<g id="pattern1" transform="matrix(1,0,0,1,296,296)">
<path d="M870 935 c0 -5 10 -19 22 -32 12 -13 16 -23 10 -23 -6 0 -13 4 -16 8 -3 5 -122 9 -266 9 -203 1 -262 -1 -266 -11 -5 -12 270 -296 286 -296 4 0 16 -12 26 -27 25 -40 226 -233 242 -233 10 0 12 55 10 270 -2 149 -1 270 3 270 3 0 10 -5 17 -12 6 -6 14 -9 17 -7 2 3 -16 25 -40 49 -25 24 -45 40 -45 35z" transform="translate(0.000000,0.000000) scale(1,1)" stroke="none" fill="#96926F"/>
<path d="M590 620 c0 -14 -31 -16 -249 -15 -137 0 -249 -2 -249 -5 1 -18 -4 -21 -16 -11 -9 8 -16 9 -20 2 -8 -12 231 -247 246 -243 5 1 7 -1 4 -6 -3 -5 59 -72 138 -151 l142 -142 14 28 13 28 8 -25 c4 -14 7 89 8 229 0 139 2 256 5 259 3 3 16 -3 27 -14 l22 -19 -18 28 c-9 15 -22 27 -27 27 -5 0 -18 10 -29 23 -14 16 -18 18 -19 7z m21 -227 c-8 -15 -10 -15 -11 -2 0 17 10 32 18 25 2 -3 -1 -13 -7 -23z" transform="translate(0.000000,0.000000) scale(1,1)" stroke="none" fill="#167F79"/>
</g>
<g id="pattern2" transform="matrix(0.618,0,0,0.618,2254,662)">
<path d="M870 935 c0 -5 10 -19 22 -32 12 -13 16 -23 10 -23 -6 0 -13 4 -16 8 -3 5 -122 9 -266 9 -203 1 -262 -1 -266 -11 -5 -12 270 -296 286 -296 4 0 16 -12 26 -27 25 -40 226 -233 242 -233 10 0 12 55 10 270 -2 149 -1 270 3 270 3 0 10 -5 17 -12 6 -6 14 -9 17 -7 2 3 -16 25 -40 49 -25 24 -45 40 -45 35z" transform="translate(2986,0.000000) scale(-1,1)" stroke="none" fill="#96926F"/>
<path d="M590 620 c0 -14 -31 -16 -249 -15 -137 0 -249 -2 -249 -5 1 -18 -4 -21 -16 -11 -9 8 -16 9 -20 2 -8 -12 231 -247 246 -243 5 1 7 -1 4 -6 -3 -5 59 -72 138 -151 l142 -142 14 28 13 28 8 -25 c4 -14 7 89 8 229 0 139 2 256 5 259 3 3 16 -3 27 -14 l22 -19 -18 28 c-9 15 -22 27 -27 27 -5 0 -18 10 -29 23 -14 16 -18 18 -19 7z m21 -227 c-8 -15 -10 -15 -11 -2 0 17 10 32 18 25 2 -3 -1 -13 -7 -23z" transform="translate(2986,0.000000) scale(-1,1)" stroke="none" fill="#167F79"/>
</g>
<g id="pattern3" transform="matrix(0.618,0,0,0.618,845,2986)matrix(0.71,0.71,-0.71,0.71,0,0)">
<path d="M870 935 c0 -5 10 -19 22 -32 12 -13 16 -23 10 -23 -6 0 -13 4 -16 8 -3 5 -122 9 -266 9 -203 1 -262 -1 -266 -11 -5 -12 270 -296 286 -296 4 0 16 -12 26 -27 25 -40 226 -233 242 -233 10 0 12 55 10 270 -2 149 -1 270 3 270 3 0 10 -5 17 -12 6 -6 14 -9 17 -7 2 3 -16 25 -40 49 -25 24 -45 40 -45 35z" transform="translate(479,-479) scale(1,1)" stroke="none" fill="#96926F"/>
<path d="M590 620 c0 -14 -31 -16 -249 -15 -137 0 -249 -2 -249 -5 1 -18 -4 -21 -16 -11 -9 8 -16 9 -20 2 -8 -12 231 -247 246 -243 5 1 7 -1 4 -6 -3 -5 59 -72 138 -151 l142 -142 14 28 13 28 8 -25 c4 -14 7 89 8 229 0 139 2 256 5 259 3 3 16 -3 27 -14 l22 -19 -18 28 c-9 15 -22 27 -27 27 -5 0 -18 10 -29 23 -14 16 -18 18 -19 7z m21 -227 c-8 -15 -10 -15 -11 -2 0 17 10 32 18 25 2 -3 -1 -13 -7 -23z" transform="translate(479,-479) scale(1,1)" stroke="none" fill="#167F79"/>
</g>
<g id="pattern4" transform="matrix(1.618,0,0,1.618,1253,1253)matrix(0.87,0.5,-0.5,0.87,0,0)">
<path d="M870 935 c0 -5 10 -19 22 -32 12 -13 16 -23 10 -23 -6 0 -13 4 -16 8 -3 5 -122 9 -266 9 -203 1 -262 -1 -266 -11 -5 -12 270 -296 286 -296 4 0 16 -12 26 -27 25 -40 226 -233 242 -233 10 0 12 55 10 270 -2 149 -1 270 3 270 3 0 10 -5 17 -12 6 -6 14 -9 17 -7 2 3 -16 25 -40 49 -25 24 -45 40 -45 35z" transform="translate(479,-479) scale(1,1)" stroke="none" fill="#96926F"/>
<path d="M590 620 c0 -14 -31 -16 -249 -15 -137 0 -249 -2 -249 -5 1 -18 -4 -21 -16 -11 -9 8 -16 9 -20 2 -8 -12 231 -247 246 -243 5 1 7 -1 4 -6 -3 -5 59 -72 138 -151 l142 -142 14 28 13 28 8 -25 c4 -14 7 89 8 229 0 139 2 256 5 259 3 3 16 -3 27 -14 l22 -19 -18 28 c-9 15 -22 27 -27 27 -5 0 -18 10 -29 23 -14 16 -18 18 -19 7z m21 -227 c-8 -15 -10 -15 -11 -2 0 17 10 32 18 25 2 -3 -1 -13 -7 -23z" transform="translate(479,-479) scale(1,1)" stroke="none" fill="#167F79"/>
</g>
</g>
</g>

<g id="3" transform="translate(3294.0,0)scale(0.25,0.25)">

<g id="pattern">
<rect width="4758" height="4758" fill="#F0B765"/>
<g id="pattern1" transform="matrix(1,0,0,1,296,296)">
<path d="M870 935 c0 -5 10 -19 22 -32 12 -13 16 -23 10 -23 -6 0 -13 4 -16 8 -3 5 -122 9 -266 9 -203 1 -262 -1 -266 -11 -5 -12 270 -296 286 -296 4 0 16 -12 26 -27 25 -40 226 -233 242 -233 10 0 12 55 10 270 -2 149 -1 270 3 270 3 0 10 -5 17 -12 6 -6 14 -9 17 -7 2 3 -16 25 -40 49 -25 24 -45 40 -45 35z" transform="translate(0.000000,0.000000) scale(1,1)" stroke="none" fill="#96926F"/>
<path d="M590 620 c0 -14 -31 -16 -249 -15 -137 0 -249 -2 -249 -5 1 -18 -4 -21 -16 -11 -9 8 -16 9 -20 2 -8 -12 231 -247 246 -243 5 1 7 -1 4 -6 -3 -5 59 -72 138 -151 l142 -142 14 28 13 28 8 -25 c4 -14 7 89 8 229 0 139 2 256 5 259 3 3 16 -3 27 -14 l22 -19 -18 28 c-9 15 -22 27 -27 27 -5 0 -18 10 -29 23 -14 16 -18 18 -19 7z m21 -227 c-8 -15 -10 -15 -11 -2 0 17 10 32 18 25 2 -3 -1 -13 -7 -23z" transform="translate(0.000000,0.000000) scale(1,1)" stroke="none" fill="#167F79"/>
</g>
<g id="pattern2" transform="matrix(0.618,0,0,0.618,2254,662)">
<path d="M870 935 c0 -5 10 -19 22 -32 12 -13 16 -23 10 -23 -6 0 -13 4 -16 8 -3 5 -122 9 -266 9 -203 1 -262 -1 -266 -11 -5 -12 270 -296 286 -296 4 0 16 -12 26 -27 25 -40 226 -233 242 -233 10 0 12 55 10 270 -2 149 -1 270 3 270 3 0 10 -5 17 -12 6 -6 14 -9 17 -7 2 3 -16 25 -40 49 -25 24 -45 40 -45 35z" transform="translate(2986,0.000000) scale(-1,1)" stroke="none" fill="#96926F"/>
<path d="M590 620 c0 -14 -31 -16 -249 -15 -137 0 -249 -2 -249 -5 1 -18 -4 -21 -16 -11 -9 8 -16 9 -20 2 -8 -12 231 -247 246 -243 5 1 7 -1 4 -6 -3 -5 59 -72 138 -151 l142 -142 14 28 13 28 8 -25 c4 -14 7 89 8 229 0 139 2 256 5 259 3 3 16 -3 27 -14 l22 -19 -18 28 c-9 15 -22 27 -27 27 -5 0 -18 10 -29 23 -14 16 -18 18 -19 7z m21 -227 c-8 -15 -10 -15 -11 -2 0 17 10 32 18 25 2 -3 -1 -13 -7 -23z" transform="translate(2986,0.000000) scale(-1,1)" stroke="none" fill="#167F79"/>
</g>
<g id="pattern3" transform="matrix(0.618,0,0,0.618,845,2986)matrix(0.71,0.71,-0.71,0.71,0,0)">
<path d="M870 935 c0 -5 10 -19 22 -32 12 -13 16 -23 10 -23 -6 0 -13 4 -16 8 -3 5 -122 9 -266 9 -203 1 -262 -1 -266 -11 -5 -12 270 -296 286 -296 4 0 16 -12 26 -27 25 -40 226 -233 242 -233 10 0 12 55 10 270 -2 149 -1 270 3 270 3 0 10 -5 17 -12 6 -6 14 -9 17 -7 2 3 -16 25 -40 49 -25 24 -45 40 -45 35z" transform="translate(479,-479) scale(1,1)" stroke="none" fill="#96926F"/>
<path d="M590 620 c0 -14 -31 -16 -249 -15 -137 0 -249 -2 -249 -5 1 -18 -4 -21 -16 -11 -9 8 -16 9 -20 2 -8 -12 231 -247 246 -243 5 1 7 -1 4 -6 -3 -5 59 -72 138 -151 l142 -142 14 28 13 28 8 -25 c4 -14 7 89 8 229 0 139 2 256 5 259 3 3 16 -3 27 -14 l22 -19 -18 28 c-9 15 -22 27 -27 27 -5 0 -18 10 -29 23 -14 16 -18 18 -19 7z m21 -227 c-8 -15 -10 -15 -11 -2 0 17 10 32 18 25 2 -3 -1 -13 -7 -23z" transform="translate(479,-479) scale(1,1)" stroke="none" fill="#167F79"/>
</g>
<g id="pattern4" transform="matrix(1.618,0,0,1.618,1253,1253)matrix(0.87,0.5,-0.5,0.87,0,0)">
<path d="M870 935 c0 -5 10 -19 22 -32 12 -13 16 -23 10 -23 -6 0 -13 4 -16 8 -3 5 -122 9 -266 9 -203 1 -262 -1 -266 -11 -5 -12 270 -296 286 -296 4 0 16 -12 26 -27 25 -40 226 -233 242 -233 10 0 12 55 10 270 -2 149 -1 270 3 270 3 0 10 -5 17 -12 6 -6 14 -9 17 -7 2 3 -16 25 -40 49 -25 24 -45 40 -45 35z" transform="translate(479,-479) scale(1,1)" stroke="none" fill="#96926F"/>
<path d="M590 620 c0 -14 -31 -16 -249 -15 -137 0 -249 -2 -249 -5 1 -18 -4 -21 -16 -11 -9 8 -16 9 -20 2 -8 -12 231 -247 246 -243 5 1 7 -1 4 -6 -3 -5 59 -72 138 -151 l142 -142 14 28 13 28 8 -25 c4 -14 7 89 8 229 0 139 2 256 5 259 3 3 16 -3 27 -14 l22 -19 -18 28 c-9 15 -22 27 -27 27 -5 0 -18 10 -29 23 -14 16 -18 18 -19 7z m21 -227 c-8 -15 -10 -15 -11 -2 0 17 10 32 18 25 2 -3 -1 -13 -7 -23z" transform="translate(479,-479) scale(1,1)" stroke="none" fill="#167F79"/>
</g>
</g>
</g>

<g id="4" transform="translate(4392.0,0)scale(0.25,0.25)">

<g id="pattern">
<rect width="4758" height="4758" fill="#F0B765"/>
<g id="pattern1" transform="matrix(1,0,0,1,296,296)">
<path d="M870 935 c0 -5 10 -19 22 -32 12 -13 16 -23 10 -23 -6 0 -13 4 -16 8 -3 5 -122 9 -266 9 -203 1 -262 -1 -266 -11 -5 -12 270 -296 286 -296 4 0 16 -12 26 -27 25 -40 226 -233 242 -233 10 0 12 55 10 270 -2 149 -1 270 3 270 3 0 10 -5 17 -12 6 -6 14 -9 17 -7 2 3 -16 25 -40 49 -25 24 -45 40 -45 35z" transform="translate(0.000000,0.000000) scale(1,1)" stroke="none" fill="#96926F"/>
<path d="M590 620 c0 -14 -31 -16 -249 -15 -137 0 -249 -2 -249 -5 1 -18 -4 -21 -16 -11 -9 8 -16 9 -20 2 -8 -12 231 -247 246 -243 5 1 7 -1 4 -6 -3 -5 59 -72 138 -151 l142 -142 14 28 13 28 8 -25 c4 -14 7 89 8 229 0 139 2 256 5 259 3 3 16 -3 27 -14 l22 -19 -18 28 c-9 15 -22 27 -27 27 -5 0 -18 10 -29 23 -14 16 -18 18 -19 7z m21 -227 c-8 -15 -10 -15 -11 -2 0 17 10 32 18 25 2 -3 -1 -13 -7 -23z" transform="translate(0.000000,0.000000) scale(1,1)" stroke="none" fill="#167F79"/>
</g>
<g id="pattern2" transform="matrix(0.618,0,0,0.618,2254,662)">
<path d="M870 935 c0 -5 10 -19 22 -32 12 -13 16 -23 10 -23 -6 0 -13 4 -16 8 -3 5 -122 9 -266 9 -203 1 -262 -1 -266 -11 -5 -12 270 -296 286 -296 4 0 16 -12 26 -27 25 -40 226 -233 242 -233 10 0 12 55 10 270 -2 149 -1 270 3 270 3 0 10 -5 17 -12 6 -6 14 -9 17 -7 2 3 -16 25 -40 49 -25 24 -45 40 -45 35z" transform="translate(2986,0.000000) scale(-1,1)" stroke="none" fill="#96926F"/>
<path d="M590 620 c0 -14 -31 -16 -249 -15 -137 0 -249 -2 -249 -5 1 -18 -4 -21 -16 -11 -9 8 -16 9 -20 2 -8 -12 231 -247 246 -243 5 1 7 -1 4 -6 -3 -5 59 -72 138 -151 l142 -142 14 28 13 28 8 -25 c4 -14 7 89 8 229 0 139 2 256 5 259 3 3 16 -3 27 -14 l22 -19 -18 28 c-9 15 -22 27 -27 27 -5 0 -18 10 -29 23 -14 16 -18 18 -19 7z m21 -227 c-8 -15 -10 -15 -11 -2 0 17 10 32 18 25 2 -3 -1 -13 -7 -23z" transform="translate(2986,0.000000) scale(-1,1)" stroke="none" fill="#167F79"/>
</g>
<g id="pattern3" transform="matrix(0.618,0,0,0.618,845,2986)matrix(0.71,0.71,-0.71,0.71,0,0)">
<path d="M870 935 c0 -5 10 -19 22 -32 12 -13 16 -23 10 -23 -6 0 -13 4 -16 8 -3 5 -122 9 -266 9 -203 1 -262 -1 -266 -11 -5 -12 270 -296 286 -296 4 0 16 -12 26 -27 25 -40 226 -233 242 -233 10 0 12 55 10 270 -2 149 -1 270 3 270 3 0 10 -5 17 -12 6 -6 14 -9 17 -7 2 3 -16 25 -40 49 -25 24 -45 40 -45 35z" transform="translate(479,-479) scale(1,1)" stroke="none" fill="#96926F"/>
<path d="M590 620 c0 -14 -31 -16 -249 -15 -137 0 -249 -2 -249 -5 1 -18 -4 -21 -16 -11 -9 8 -16 9 -20 2 -8 -12 231 -247 246 -243 5 1 7 -1 4 -6 -3 -5 59 -72 138 -151 l142 -142 14 28 13 28 8 -25 c4 -14 7 89 8 229 0 139 2 256 5 259 3 3 16 -3 27 -14 l22 -19 -18 28 c-9 15 -22 27 -27 27 -5 0 -18 10 -29 23 -14 16 -18 18 -19 7z m21 -227 c-8 -15 -10 -15 -11 -2 0 17 10 32 18 25 2 -3 -1 -13 -7 -23z" transform="translate(479,-479) scale(1,1)" stroke="none" fill="#167F79"/>
</g>
<g id="pattern4" transform="matrix(1.618,0,0,1.618,1253,1253)matrix(0.87,0.5,-0.5,0.87,0,0)">
<path d="M870 935 c0 -5 10 -19 22 -32 12 -13 16 -23 10 -23 -6 0 -13 4 -16 8 -3 5 -122 9 -266 9 -203 1 -262 -1 -266 -11 -5 -12 270 -296 286 -296 4 0 16 -12 26 -27 25 -40 226 -233 242 -233 10 0 12 55 10 270 -2 149 -1 270 3 270 3 0 10 -5 17 -12 6 -6 14 -9 17 -7 2 3 -16 25 -40 49 -25 24 -45 40 -45 35z" transform="translate(479,-479) scale(1,1)" stroke="none" fill="#96926F"/>
<path d="M590 620 c0 -14 -31 -16 -249 -15 -137 0 -249 -2 -249 -5 1 -18 -4 -21 -16 -11 -9 8 -16 9 -20 2 -8 -12 231 -247 246 -243 5 1 7 -1 4 -6 -3 -5 59 -72 138 -151 l142 -142 14 28 13 28 8 -25 c4 -14 7 89 8 229 0 139 2 256 5 259 3 3 16 -3 27 -14 l22 -19 -18 28 c-9 15 -22 27 -27 27 -5 0 -18 10 -29 23 -14 16 -18 18 -19 7z m21 -227 c-8 -15 -10 -15 -11 -2 0 17 10 32 18 25 2 -3 -1 -13 -7 -23z" transform="translate(479,-479) scale(1,1)" stroke="none" fill="#167F79"/>
</g>
</g>
</g>

</g>
<g id="row2" transform="translate(0,2196.0)">
<g id="0" transform="translate(0.0,0)scale(0.25,0.25)">

<g id="pattern">
<rect width="4758" height="4758" fill="#F0B765"/>
<g id="pattern1" transform="matrix(1,0,0,1,296,296)">
<path d="M870 935 c0 -5 10 -19 22 -32 12 -13 16 -23 10 -23 -6 0 -13 4 -16 8 -3 5 -122 9 -266 9 -203 1 -262 -1 -266 -11 -5 -12 270 -296 286 -296 4 0 16 -12 26 -27 25 -40 226 -233 242 -233 10 0 12 55 10 270 -2 149 -1 270 3 270 3 0 10 -5 17 -12 6 -6 14 -9 17 -7 2 3 -16 25 -40 49 -25 24 -45 40 -45 35z" transform="translate(0.000000,0.000000) scale(1,1)" stroke="none" fill="#96926F"/>
<path d="M590 620 c0 -14 -31 -16 -249 -15 -137 0 -249 -2 -249 -5 1 -18 -4 -21 -16 -11 -9 8 -16 9 -20 2 -8 -12 231 -247 246 -243 5 1 7 -1 4 -6 -3 -5 59 -72 138 -151 l142 -142 14 28 13 28 8 -25 c4 -14 7 89 8 229 0 139 2 256 5 259 3 3 16 -3 27 -14 l22 -19 -18 28 c-9 15 -22 27 -27 27 -5 0 -18 10 -29 23 -14 16 -18 18 -19 7z m21 -227 c-8 -15 -10 -15 -11 -2 0 17 10 32 18 25 2 -3 -1 -13 -7 -23z" transform="translate(0.000000,0.000000) scale(1,1)" stroke="none" fill="#167F79"/>
</g>
<g id="pattern2" transform="matrix(0.618,0,0,0.618,2254,662)">
<path d="M870 935 c0 -5 10 -19 22 -32 12 -13 16 -23 10 -23 -6 0 -13 4 -16 8 -3 5 -122 9 -266 9 -203 1 -262 -1 -266 -11 -5 -12 270 -296 286 -296 4 0 16 -12 26 -27 25 -40 226 -233 242 -233 10 0 12 55 10 270 -2 149 -1 270 3 270 3 0 10 -5 17 -12 6 -6 14 -9 17 -7 2 3 -16 25 -40 49 -25 24 -45 40 -45 35z" transform="translate(2986,0.000000) scale(-1,1)" stroke="none" fill="#96926F"/>
<path d="M590 620 c0 -14 -31 -16 -249 -15 -137 0 -249 -2 -249 -5 1 -18 -4 -21 -16 -11 -9 8 -16 9 -20 2 -8 -12 231 -247 246 -243 5 1 7 -1 4 -6 -3 -5 59 -72 138 -151 l142 -142 14 28 13 28 8 -25 c4 -14 7 89 8 229 0 139 2 256 5 259 3 3 16 -3 27 -14 l22 -19 -18 28 c-9 15 -22 27 -27 27 -5 0 -18 10 -29 23 -14 16 -18 18 -19 7z m21 -227 c-8 -15 -10 -15 -11 -2 0 17 10 32 18 25 2 -3 -1 -13 -7 -23z" transform="translate(2986,0.000000) scale(-1,1)" stroke="none" fill="#167F79"/>
</g>
<g id="pattern3" transform="matrix(0.618,0,0,0.618,845,2986)matrix(0.71,0.71,-0.71,0.71,0,0)">
<path d="M870 935 c0 -5 10 -19 22 -32 12 -13 16 -23 10 -23 -6 0 -13 4 -16 8 -3 5 -122 9 -266 9 -203 1 -262 -1 -266 -11 -5 -12 270 -296 286 -296 4 0 16 -12 26 -27 25 -40 226 -233 242 -233 10 0 12 55 10 270 -2 149 -1 270 3 270 3 0 10 -5 17 -12 6 -6 14 -9 17 -7 2 3 -16 25 -40 49 -25 24 -45 40 -45 35z" transform="translate(479,-479) scale(1,1)" stroke="none" fill="#96926F"/>
<path d="M590 620 c0 -14 -31 -16 -249 -15 -137 0 -249 -2 -249 -5 1 -18 -4 -21 -16 -11 -9 8 -16 9 -20 2 -8 -12 231 -247 246 -243 5 1 7 -1 4 -6 -3 -5 59 -72 138 -151 l142 -142 14 28 13 28 8 -25 c4 -14 7 89 8 229 0 139 2 256 5 259 3 3 16 -3 27 -14 l22 -19 -18 28 c-9 15 -22 27 -27 27 -5 0 -18 10 -29 23 -14 16 -18 18 -19 7z m21 -227 c-8 -15 -10 -15 -11 -2 0 17 10 32 18 25 2 -3 -1 -13 -7 -23z" transform="translate(479,-479) scale(1,1)" stroke="none" fill="#167F79"/>
</g>
<g id="pattern4" transform="matrix(1.618,0,0,1.618,1253,1253)matrix(0.87,0.5,-0.5,0.87,0,0)">
<path d="M870 935 c0 -5 10 -19 22 -32 12 -13 16 -23 10 -23 -6 0 -13 4 -16 8 -3 5 -122 9 -266 9 -203 1 -262 -1 -266 -11 -5 -12 270 -296 286 -296 4 0 16 -12 26 -27 25 -40 226 -233 242 -233 10 0 12 55 10 270 -2 149 -1 270 3 270 3 0 10 -5 17 -12 6 -6 14 -9 17 -7 2 3 -16 25 -40 49 -25 24 -45 40 -45 35z" transform="translate(479,-479) scale(1,1)" stroke="none" fill="#96926F"/>
<path d="M590 620 c0 -14 -31 -16 -249 -15 -137 0 -249 -2 -249 -5 1 -18 -4 -21 -16 -11 -9 8 -16 9 -20 2 -8 -12 231 -247 246 -243 5 1 7 -1 4 -6 -3 -5 59 -72 138 -151 l142 -142 14 28 13 28 8 -25 c4 -14 7 89 8 229 0 139 2 256 5 259 3 3 16 -3 27 -14 l22 -19 -18 28 c-9 15 -22 27 -27 27 -5 0 -18 10 -29 23 -14 16 -18 18 -19 7z m21 -227 c-8 -15 -10 -15 -11 -2 0 17 10 32 18 25 2 -3 -1 -13 -7 -23z" transform="translate(479,-479) scale(1,1)" stroke="none" fill="#167F79"/>
</g>
</g>
</g>

<g id="1" transform="translate(1098.0,0)scale(0.25,0.25)">

<g id="pattern">
<rect width="4758" height="4758" fill="#F0B765"/>
<g id="pattern1" transform="matrix(1,0,0,1,296,296)">
<path d="M870 935 c0 -5 10 -19 22 -32 12 -13 16 -23 10 -23 -6 0 -13 4 -16 8 -3 5 -122 9 -266 9 -203 1 -262 -1 -266 -11 -5 -12 270 -296 286 -296 4 0 16 -12 26 -27 25 -40 226 -233 242 -233 10 0 12 55 10 270 -2 149 -1 270 3 270 3 0 10 -5 17 -12 6 -6 14 -9 17 -7 2 3 -16 25 -40 49 -25 24 -45 40 -45 35z" transform="translate(0.000000,0.000000) scale(1,1)" stroke="none" fill="#96926F"/>
<path d="M590 620 c0 -14 -31 -16 -249 -15 -137 0 -249 -2 -249 -5 1 -18 -4 -21 -16 -11 -9 8 -16 9 -20 2 -8 -12 231 -247 246 -243 5 1 7 -1 4 -6 -3 -5 59 -72 138 -151 l142 -142 14 28 13 28 8 -25 c4 -14 7 89 8 229 0 139 2 256 5 259 3 3 16 -3 27 -14 l22 -19 -18 28 c-9 15 -22 27 -27 27 -5 0 -18 10 -29 23 -14 16 -18 18 -19 7z m21 -227 c-8 -15 -10 -15 -11 -2 0 17 10 32 18 25 2 -3 -1 -13 -7 -23z" transform="translate(0.000000,0.000000) scale(1,1)" stroke="none" fill="#167F79"/>
</g>
<g id="pattern2" transform="matrix(0.618,0,0,0.618,2254,662)">
<path d="M870 935 c0 -5 10 -19 22 -32 12 -13 16 -23 10 -23 -6 0 -13 4 -16 8 -3 5 -122 9 -266 9 -203 1 -262 -1 -266 -11 -5 -12 270 -296 286 -296 4 0 16 -12 26 -27 25 -40 226 -233 242 -233 10 0 12 55 10 270 -2 149 -1 270 3 270 3 0 10 -5 17 -12 6 -6 14 -9 17 -7 2 3 -16 25 -40 49 -25 24 -45 40 -45 35z" transform="translate(2986,0.000000) scale(-1,1)" stroke="none" fill="#96926F"/>
<path d="M590 620 c0 -14 -31 -16 -249 -15 -137 0 -249 -2 -249 -5 1 -18 -4 -21 -16 -11 -9 8 -16 9 -20 2 -8 -12 231 -247 246 -243 5 1 7 -1 4 -6 -3 -5 59 -72 138 -151 l142 -142 14 28 13 28 8 -25 c4 -14 7 89 8 229 0 139 2 256 5 259 3 3 16 -3 27 -14 l22 -19 -18 28 c-9 15 -22 27 -27 27 -5 0 -18 10 -29 23 -14 16 -18 18 -19 7z m21 -227 c-8 -15 -10 -15 -11 -2 0 17 10 32 18 25 2 -3 -1 -13 -7 -23z" transform="translate(2986,0.000000) scale(-1,1)" stroke="none" fill="#167F79"/>
</g>
<g id="pattern3" transform="matrix(0.618,0,0,0.618,845,2986)matrix(0.71,0.71,-0.71,0.71,0,0)">
<path d="M870 935 c0 -5 10 -19 22 -32 12 -13 16 -23 10 -23 -6 0 -13 4 -16 8 -3 5 -122 9 -266 9 -203 1 -262 -1 -266 -11 -5 -12 270 -296 286 -296 4 0 16 -12 26 -27 25 -40 226 -233 242 -233 10 0 12 55 10 270 -2 149 -1 270 3 270 3 0 10 -5 17 -12 6 -6 14 -9 17 -7 2 3 -16 25 -40 49 -25 24 -45 40 -45 35z" transform="translate(479,-479) scale(1,1)" stroke="none" fill="#96926F"/>
<path d="M590 620 c0 -14 -31 -16 -249 -15 -137 0 -249 -2 -249 -5 1 -18 -4 -21 -16 -11 -9 8 -16 9 -20 2 -8 -12 231 -247 246 -243 5 1 7 -1 4 -6 -3 -5 59 -72 138 -151 l142 -142 14 28 13 28 8 -25 c4 -14 7 89 8 229 0 139 2 256 5 259 3 3 16 -3 27 -14 l22 -19 -18 28 c-9 15 -22 27 -27 27 -5 0 -18 10 -29 23 -14 16 -18 18 -19 7z m21 -227 c-8 -15 -10 -15 -11 -2 0 17 10 32 18 25 2 -3 -1 -13 -7 -23z" transform="translate(479,-479) scale(1,1)" stroke="none" fill="#167F79"/>
</g>
<g id="pattern4" transform="matrix(1.618,0,0,1.618,1253,1253)matrix(0.87,0.5,-0.5,0.87,0,0)">
<path d="M870 935 c0 -5 10 -19 22 -32 12 -13 16 -23 10 -23 -6 0 -13 4 -16 8 -3 5 -122 9 -266 9 -203 1 -262 -1 -266 -11 -5 -12 270 -296 286 -296 4 0 16 -12 26 -27 25 -40 226 -233 242 -233 10 0 12 55 10 270 -2 149 -1 270 3 270 3 0 10 -5 17 -12 6 -6 14 -9 17 -7 2 3 -16 25 -40 49 -25 24 -45 40 -45 35z" transform="translate(479,-479) scale(1,1)" stroke="none" fill="#96926F"/>
<path d="M590 620 c0 -14 -31 -16 -249 -15 -137 0 -249 -2 -249 -5 1 -18 -4 -21 -16 -11 -9 8 -16 9 -20 2 -8 -12 231 -247 246 -243 5 1 7 -1 4 -6 -3 -5 59 -72 138 -151 l142 -142 14 28 13 28 8 -25 c4 -14 7 89 8 229 0 139 2 256 5 259 3 3 16 -3 27 -14 l22 -19 -18 28 c-9 15 -22 27 -27 27 -5 0 -18 10 -29 23 -14 16 -18 18 -19 7z m21 -227 c-8 -15 -10 -15 -11 -2 0 17 10 32 18 25 2 -3 -1 -13 -7 -23z" transform="translate(479,-479) scale(1,1)" stroke="none" fill="#167F79"/>
</g>
</g>
</g>

<g id="2" transform="translate(2196.0,0)scale(0.25,0.25)">

<g id="pattern">
<rect width="4758" height="4758" fill="#F0B765"/>
<g id="pattern1" transform="matrix(1,0,0,1,296,296)">
<path d="M870 935 c0 -5 10 -19 22 -32 12 -13 16 -23 10 -23 -6 0 -13 4 -16 8 -3 5 -122 9 -266 9 -203 1 -262 -1 -266 -11 -5 -12 270 -296 286 -296 4 0 16 -12 26 -27 25 -40 226 -233 242 -233 10 0 12 55 10 270 -2 149 -1 270 3 270 3 0 10 -5 17 -12 6 -6 14 -9 17 -7 2 3 -16 25 -40 49 -25 24 -45 40 -45 35z" transform="translate(0.000000,0.000000) scale(1,1)" stroke="none" fill="#96926F"/>
<path d="M590 620 c0 -14 -31 -16 -249 -15 -137 0 -249 -2 -249 -5 1 -18 -4 -21 -16 -11 -9 8 -16 9 -20 2 -8 -12 231 -247 246 -243 5 1 7 -1 4 -6 -3 -5 59 -72 138 -151 l142 -142 14 28 13 28 8 -25 c4 -14 7 89 8 229 0 139 2 256 5 259 3 3 16 -3 27 -14 l22 -19 -18 28 c-9 15 -22 27 -27 27 -5 0 -18 10 -29 23 -14 16 -18 18 -19 7z m21 -227 c-8 -15 -10 -15 -11 -2 0 17 10 32 18 25 2 -3 -1 -13 -7 -23z" transform="translate(0.000000,0.000000) scale(1,1)" stroke="none" fill="#167F79"/>
</g>
<g id="pattern2" transform="matrix(0.618,0,0,0.618,2254,662)">
<path d="M870 935 c0 -5 10 -19 22 -32 12 -13 16 -23 10 -23 -6 0 -13 4 -16 8 -3 5 -122 9 -266 9 -203 1 -262 -1 -266 -11 -5 -12 270 -296 286 -296 4 0 16 -12 26 -27 25 -40 226 -233 242 -233 10 0 12 55 10 270 -2 149 -1 270 3 270 3 0 10 -5 17 -12 6 -6 14 -9 17 -7 2 3 -16 25 -40 49 -25 24 -45 40 -45 35z" transform="translate(2986,0.000000) scale(-1,1)" stroke="none" fill="#96926F"/>
<path d="M590 620 c0 -14 -31 -16 -249 -15 -137 0 -249 -2 -249 -5 1 -18 -4 -21 -16 -11 -9 8 -16 9 -20 2 -8 -12 231 -247 246 -243 5 1 7 -1 4 -6 -3 -5 59 -72 138 -151 l142 -142 14 28 13 28 8 -25 c4 -14 7 89 8 229 0 139 2 256 5 259 3 3 16 -3 27 -14 l22 -19 -18 28 c-9 15 -22 27 -27 27 -5 0 -18 10 -29 23 -14 16 -18 18 -19 7z m21 -227 c-8 -15 -10 -15 -11 -2 0 17 10 32 18 25 2 -3 -1 -13 -7 -23z" transform="translate(2986,0.000000) scale(-1,1)" stroke="none" fill="#167F79"/>
</g>
<g id="pattern3" transform="matrix(0.618,0,0,0.618,845,2986)matrix(0.71,0.71,-0.71,0.71,0,0)">
<path d="M870 935 c0 -5 10 -19 22 -32 12 -13 16 -23 10 -23 -6 0 -13 4 -16 8 -3 5 -122 9 -266 9 -203 1 -262 -1 -266 -11 -5 -12 270 -296 286 -296 4 0 16 -12 26 -27 25 -40 226 -233 242 -233 10 0 12 55 10 270 -2 149 -1 270 3 270 3 0 10 -5 17 -12 6 -6 14 -9 17 -7 2 3 -16 25 -40 49 -25 24 -45 40 -45 35z" transform="translate(479,-479) scale(1,1)" stroke="none" fill="#96926F"/>
<path d="M590 620 c0 -14 -31 -16 -249 -15 -137 0 -249 -2 -249 -5 1 -18 -4 -21 -16 -11 -9 8 -16 9 -20 2 -8 -12 231 -247 246 -243 5 1 7 -1 4 -6 -3 -5 59 -72 138 -151 l142 -142 14 28 13 28 8 -25 c4 -14 7 89 8 229 0 139 2 256 5 259 3 3 16 -3 27 -14 l22 -19 -18 28 c-9 15 -22 27 -27 27 -5 0 -18 10 -29 23 -14 16 -18 18 -19 7z m21 -227 c-8 -15 -10 -15 -11 -2 0 17 10 32 18 25 2 -3 -1 -13 -7 -23z" transform="translate(479,-479) scale(1,1)" stroke="none" fill="#167F79"/>
</g>
<g id="pattern4" transform="matrix(1.618,0,0,1.618,1253,1253)matrix(0.87,0.5,-0.5,0.87,0,0)">
<path d="M870 935 c0 -5 10 -19 22 -32 12 -13 16 -23 10 -23 -6 0 -13 4 -16 8 -3 5 -122 9 -266 9 -203 1 -262 -1 -266 -11 -5 -12 270 -296 286 -296 4 0 16 -12 26 -27 25 -40 226 -233 242 -233 10 0 12 55 10 270 -2 149 -1 270 3 270 3 0 10 -5 17 -12 6 -6 14 -9 17 -7 2 3 -16 25 -40 49 -25 24 -45 40 -45 35z" transform="translate(479,-479) scale(1,1)" stroke="none" fill="#96926F"/>
<path d="M590 620 c0 -14 -31 -16 -249 -15 -137 0 -249 -2 -249 -5 1 -18 -4 -21 -16 -11 -9 8 -16 9 -20 2 -8 -12 231 -247 246 -243 5 1 7 -1 4 -6 -3 -5 59 -72 138 -151 l142 -142 14 28 13 28 8 -25 c4 -14 7 89 8 229 0 139 2 256 5 259 3 3 16 -3 27 -14 l22 -19 -18 28 c-9 15 -22 27 -27 27 -5 0 -18 10 -29 23 -14 16 -18 18 -19 7z m21 -227 c-8 -15 -10 -15 -11 -2 0 17 10 32 18 25 2 -3 -1 -13 -7 -23z" transform="translate(479,-479) scale(1,1)" stroke="none" fill="#167F79"/>
</g>
</g>
</g>

<g id="3" transform="translate(3294.0,0)scale(0.25,0.25)">

<g id="pattern">
<rect width="4758" height="4758" fill="#F0B765"/>
<g id="pattern1" transform="matrix(1,0,0,1,296,296)">
<path d="M870 935 c0 -5 10 -19 22 -32 12 -13 16 -23 10 -23 -6 0 -13 4 -16 8 -3 5 -122 9 -266 9 -203 1 -262 -1 -266 -11 -5 -12 270 -296 286 -296 4 0 16 -12 26 -27 25 -40 226 -233 242 -233 10 0 12 55 10 270 -2 149 -1 270 3 270 3 0 10 -5 17 -12 6 -6 14 -9 17 -7 2 3 -16 25 -40 49 -25 24 -45 40 -45 35z" transform="translate(0.000000,0.000000) scale(1,1)" stroke="none" fill="#96926F"/>
<path d="M590 620 c0 -14 -31 -16 -249 -15 -137 0 -249 -2 -249 -5 1 -18 -4 -21 -16 -11 -9 8 -16 9 -20 2 -8 -12 231 -247 246 -243 5 1 7 -1 4 -6 -3 -5 59 -72 138 -151 l142 -142 14 28 13 28 8 -25 c4 -14 7 89 8 229 0 139 2 256 5 259 3 3 16 -3 27 -14 l22 -19 -18 28 c-9 15 -22 27 -27 27 -5 0 -18 10 -29 23 -14 16 -18 18 -19 7z m21 -227 c-8 -15 -10 -15 -11 -2 0 17 10 32 18 25 2 -3 -1 -13 -7 -23z" transform="translate(0.000000,0.000000) scale(1,1)" stroke="none" fill="#167F79"/>
</g>
<g id="pattern2" transform="matrix(0.618,0,0,0.618,2254,662)">
<path d="M870 935 c0 -5 10 -19 22 -32 12 -13 16 -23 10 -23 -6 0 -13 4 -16 8 -3 5 -122 9 -266 9 -203 1 -262 -1 -266 -11 -5 -12 270 -296 286 -296 4 0 16 -12 26 -27 25 -40 226 -233 242 -233 10 0 12 55 10 270 -2 149 -1 270 3 270 3 0 10 -5 17 -12 6 -6 14 -9 17 -7 2 3 -16 25 -40 49 -25 24 -45 40 -45 35z" transform="translate(2986,0.000000) scale(-1,1)" stroke="none" fill="#96926F"/>
<path d="M590 620 c0 -14 -31 -16 -249 -15 -137 0 -249 -2 -249 -5 1 -18 -4 -21 -16 -11 -9 8 -16 9 -20 2 -8 -12 231 -247 246 -243 5 1 7 -1 4 -6 -3 -5 59 -72 138 -151 l142 -142 14 28 13 28 8 -25 c4 -14 7 89 8 229 0 139 2 256 5 259 3 3 16 -3 27 -14 l22 -19 -18 28 c-9 15 -22 27 -27 27 -5 0 -18 10 -29 23 -14 16 -18 18 -19 7z m21 -227 c-8 -15 -10 -15 -11 -2 0 17 10 32 18 25 2 -3 -1 -13 -7 -23z" transform="translate(2986,0.000000) scale(-1,1)" stroke="none" fill="#167F79"/>
</g>
<g id="pattern3" transform="matrix(0.618,0,0,0.618,845,2986)matrix(0.71,0.71,-0.71,0.71,0,0)">
<path d="M870 935 c0 -5 10 -19 22 -32 12 -13 16 -23 10 -23 -6 0 -13 4 -16 8 -3 5 -122 9 -266 9 -203 1 -262 -1 -266 -11 -5 -12 270 -296 286 -296 4 0 16 -12 26 -27 25 -40 226 -233 242 -233 10 0 12 55 10 270 -2 149 -1 270 3 270 3 0 10 -5 17 -12 6 -6 14 -9 17 -7 2 3 -16 25 -40 49 -25 24 -45 40 -45 35z" transform="translate(479,-479) scale(1,1)" stroke="none" fill="#96926F"/>
<path d="M590 620 c0 -14 -31 -16 -249 -15 -137 0 -249 -2 -249 -5 1 -18 -4 -21 -16 -11 -9 8 -16 9 -20 2 -8 -12 231 -247 246 -243 5 1 7 -1 4 -6 -3 -5 59 -72 138 -151 l142 -142 14 28 13 28 8 -25 c4 -14 7 89 8 229 0 139 2 256 5 259 3 3 16 -3 27 -14 l22 -19 -18 28 c-9 15 -22 27 -27 27 -5 0 -18 10 -29 23 -14 16 -18 18 -19 7z m21 -227 c-8 -15 -10 -15 -11 -2 0 17 10 32 18 25 2 -3 -1 -13 -7 -23z" transform="translate(479,-479) scale(1,1)" stroke="none" fill="#167F79"/>
</g>
<g id="pattern4" transform="matrix(1.618,0,0,1.618,1253,1253)matrix(0.87,0.5,-0.5,0.87,0,0)">
<path d="M870 935 c0 -5 10 -19 22 -32 12 -13 16 -23 10 -23 -6 0 -13 4 -16 8 -3 5 -122 9 -266 9 -203 1 -262 -1 -266 -11 -5 -12 270 -296 286 -296 4 0 16 -12 26 -27 25 -40 226 -233 242 -233 10 0 12 55 10 270 -2 149 -1 270 3 270 3 0 10 -5 17 -12 6 -6 14 -9 17 -7 2 3 -16 25 -40 49 -25 24 -45 40 -45 35z" transform="translate(479,-479) scale(1,1)" stroke="none" fill="#96926F"/>
<path d="M590 620 c0 -14 -31 -16 -249 -15 -137 0 -249 -2 -249 -5 1 -18 -4 -21 -16 -11 -9 8 -16 9 -20 2 -8 -12 231 -247 246 -243 5 1 7 -1 4 -6 -3 -5 59 -72 138 -151 l142 -142 14 28 13 28 8 -25 c4 -14 7 89 8 229 0 139 2 256 5 259 3 3 16 -3 27 -14 l22 -19 -18 28 c-9 15 -22 27 -27 27 -5 0 -18 10 -29 23 -14 16 -18 18 -19 7z m21 -227 c-8 -15 -10 -15 -11 -2 0 17 10 32 18 25 2 -3 -1 -13 -7 -23z" transform="translate(479,-479) scale(1,1)" stroke="none" fill="#167F79"/>
</g>
</g>
</g>

<g id="4" transform="translate(4392.0,0)scale(0.25,0.25)">

<g id="pattern">
<rect width="4758" height="4758" fill="#F0B765"/>
<g id="pattern1" transform="matrix(1,0,0,1,296,296)">
<path d="M870 935 c0 -5 10 -19 22 -32 12 -13 16 -23 10 -23 -6 0 -13 4 -16 8 -3 5 -122 9 -266 9 -203 1 -262 -1 -266 -11 -5 -12 270 -296 286 -296 4 0 16 -12 26 -27 25 -40 226 -233 242 -233 10 0 12 55 10 270 -2 149 -1 270 3 270 3 0 10 -5 17 -12 6 -6 14 -9 17 -7 2 3 -16 25 -40 49 -25 24 -45 40 -45 35z" transform="translate(0.000000,0.000000) scale(1,1)" stroke="none" fill="#96926F"/>
<path d="M590 620 c0 -14 -31 -16 -249 -15 -137 0 -249 -2 -249 -5 1 -18 -4 -21 -16 -11 -9 8 -16 9 -20 2 -8 -12 231 -247 246 -243 5 1 7 -1 4 -6 -3 -5 59 -72 138 -151 l142 -142 14 28 13 28 8 -25 c4 -14 7 89 8 229 0 139 2 256 5 259 3 3 16 -3 27 -14 l22 -19 -18 28 c-9 15 -22 27 -27 27 -5 0 -18 10 -29 23 -14 16 -18 18 -19 7z m21 -227 c-8 -15 -10 -15 -11 -2 0 17 10 32 18 25 2 -3 -1 -13 -7 -23z" transform="translate(0.000000,0.000000) scale(1,1)" stroke="none" fill="#167F79"/>
</g>
<g id="pattern2" transform="matrix(0.618,0,0,0.618,2254,662)">
<path d="M870 935 c0 -5 10 -19 22 -32 12 -13 16 -23 10 -23 -6 0 -13 4 -16 8 -3 5 -122 9 -266 9 -203 1 -262 -1 -266 -11 -5 -12 270 -296 286 -296 4 0 16 -12 26 -27 25 -40 226 -233 242 -233 10 0 12 55 10 270 -2 149 -1 270 3 270 3 0 10 -5 17 -12 6 -6 14 -9 17 -7 2 3 -16 25 -40 49 -25 24 -45 40 -45 35z" transform="translate(2986,0.000000) scale(-1,1)" stroke="none" fill="#96926F"/>
<path d="M590 620 c0 -14 -31 -16 -249 -15 -137 0 -249 -2 -249 -5 1 -18 -4 -21 -16 -11 -9 8 -16 9 -20 2 -8 -12 231 -247 246 -243 5 1 7 -1 4 -6 -3 -5 59 -72 138 -151 l142 -142 14 28 13 28 8 -25 c4 -14 7 89 8 229 0 139 2 256 5 259 3 3 16 -3 27 -14 l22 -19 -18 28 c-9 15 -22 27 -27 27 -5 0 -18 10 -29 23 -14 16 -18 18 -19 7z m21 -227 c-8 -15 -10 -15 -11 -2 0 17 10 32 18 25 2 -3 -1 -13 -7 -23z" transform="translate(2986,0.000000) scale(-1,1)" stroke="none" fill="#167F79"/>
</g>
<g id="pattern3" transform="matrix(0.618,0,0,0.618,845,2986)matrix(0.71,0.71,-0.71,0.71,0,0)">
<path d="M870 935 c0 -5 10 -19 22 -32 12 -13 16 -23 10 -23 -6 0 -13 4 -16 8 -3 5 -122 9 -266 9 -203 1 -262 -1 -266 -11 -5 -12 270 -296 286 -296 4 0 16 -12 26 -27 25 -40 226 -233 242 -233 10 0 12 55 10 270 -2 149 -1 270 3 270 3 0 10 -5 17 -12 6 -6 14 -9 17 -7 2 3 -16 25 -40 49 -25 24 -45 40 -45 35z" transform="translate(479,-479) scale(1,1)" stroke="none" fill="#96926F"/>
<path d="M590 620 c0 -14 -31 -16 -249 -15 -137 0 -249 -2 -249 -5 1 -18 -4 -21 -16 -11 -9 8 -16 9 -20 2 -8 -12 231 -247 246 -243 5 1 7 -1 4 -6 -3 -5 59 -72 138 -151 l142 -142 14 28 13 28 8 -25 c4 -14 7 89 8 229 0 139 2 256 5 259 3 3 16 -3 27 -14 l22 -19 -18 28 c-9 15 -22 27 -27 27 -5 0 -18 10 -29 23 -14 16 -18 18 -19 7z m21 -227 c-8 -15 -10 -15 -11 -2 0 17 10 32 18 25 2 -3 -1 -13 -7 -23z" transform="translate(479,-479) scale(1,1)" stroke="none" fill="#167F79"/>
</g>
<g id="pattern4" transform="matrix(1.618,0,0,1.618,1253,1253)matrix(0.87,0.5,-0.5,0.87,0,0)">
<path d="M870 935 c0 -5 10 -19 22 -32 12 -13 16 -23 10 -23 -6 0 -13 4 -16 8 -3 5 -122 9 -266 9 -203 1 -262 -1 -266 -11 -5 -12 270 -296 286 -296 4 0 16 -12 26 -27 25 -40 226 -233 242 -233 10 0 12 55 10 270 -2 149 -1 270 3 270 3 0 10 -5 17 -12 6 -6 14 -9 17 -7 2 3 -16 25 -40 49 -25 24 -45 40 -45 35z" transform="translate(479,-479) scale(1,1)" stroke="none" fill="#96926F"/>
<path d="M590 620 c0 -14 -31 -16 -249 -15 -137 0 -249 -2 -249 -5 1 -18 -4 -21 -16 -11 -9 8 -16 9 -20 2 -8 -12 231 -247 246 -243 5 1 7 -1 4 -6 -3 -5 59 -72 138 -151 l142 -142 14 28 13 28 8 -25 c4 -14 7 89 8 229 0 139 2 256 5 259 3 3 16 -3 27 -14 l22 -19 -18 28 c-9 15 -22 27 -27 27 -5 0 -18 10 -29 23 -14 16 -18 18 -19 7z m21 -227 c-8 -15 -10 -15 -11 -2 0 17 10 32 18 25 2 -3 -1 -13 -7 -23z" transform="translate(479,-479) scale(1,1)" stroke="none" fill="#167F79"/>
</g>
</g>
</g>

</g>
<g id="row3" transform="translate(0,3294.0)">
<g id="0" transform="translate(0.0,0)scale(0.25,0.25)">

<g id="pattern">
<rect width="4758" height="4758" fill="#F0B765"/>
<g id="pattern1" transform="matrix(1,0,0,1,296,296)">
<path d="M870 935 c0 -5 10 -19 22 -32 12 -13 16 -23 10 -23 -6 0 -13 4 -16 8 -3 5 -122 9 -266 9 -203 1 -262 -1 -266 -11 -5 -12 270 -296 286 -296 4 0 16 -12 26 -27 25 -40 226 -233 242 -233 10 0 12 55 10 270 -2 149 -1 270 3 270 3 0 10 -5 17 -12 6 -6 14 -9 17 -7 2 3 -16 25 -40 49 -25 24 -45 40 -45 35z" transform="translate(0.000000,0.000000) scale(1,1)" stroke="none" fill="#96926F"/>
<path d="M590 620 c0 -14 -31 -16 -249 -15 -137 0 -249 -2 -249 -5 1 -18 -4 -21 -16 -11 -9 8 -16 9 -20 2 -8 -12 231 -247 246 -243 5 1 7 -1 4 -6 -3 -5 59 -72 138 -151 l142 -142 14 28 13 28 8 -25 c4 -14 7 89 8 229 0 139 2 256 5 259 3 3 16 -3 27 -14 l22 -19 -18 28 c-9 15 -22 27 -27 27 -5 0 -18 10 -29 23 -14 16 -18 18 -19 7z m21 -227 c-8 -15 -10 -15 -11 -2 0 17 10 32 18 25 2 -3 -1 -13 -7 -23z" transform="translate(0.000000,0.000000) scale(1,1)" stroke="none" fill="#167F79"/>
</g>
<g id="pattern2" transform="matrix(0.618,0,0,0.618,2254,662)">
<path d="M870 935 c0 -5 10 -19 22 -32 12 -13 16 -23 10 -23 -6 0 -13 4 -16 8 -3 5 -122 9 -266 9 -203 1 -262 -1 -266 -11 -5 -12 270 -296 286 -296 4 0 16 -12 26 -27 25 -40 226 -233 242 -233 10 0 12 55 10 270 -2 149 -1 270 3 270 3 0 10 -5 17 -12 6 -6 14 -9 17 -7 2 3 -16 25 -40 49 -25 24 -45 40 -45 35z" transform="translate(2986,0.000000) scale(-1,1)" stroke="none" fill="#96926F"/>
<path d="M590 620 c0 -14 -31 -16 -249 -15 -137 0 -249 -2 -249 -5 1 -18 -4 -21 -16 -11 -9 8 -16 9 -20 2 -8 -12 231 -247 246 -243 5 1 7 -1 4 -6 -3 -5 59 -72 138 -151 l142 -142 14 28 13 28 8 -25 c4 -14 7 89 8 229 0 139 2 256 5 259 3 3 16 -3 27 -14 l22 -19 -18 28 c-9 15 -22 27 -27 27 -5 0 -18 10 -29 23 -14 16 -18 18 -19 7z m21 -227 c-8 -15 -10 -15 -11 -2 0 17 10 32 18 25 2 -3 -1 -13 -7 -23z" transform="translate(2986,0.000000) scale(-1,1)" stroke="none" fill="#167F79"/>
</g>
<g id="pattern3" transform="matrix(0.618,0,0,0.618,845,2986)matrix(0.71,0.71,-0.71,0.71,0,0)">
<path d="M870 935 c0 -5 10 -19 22 -32 12 -13 16 -23 10 -23 -6 0 -13 4 -16 8 -3 5 -122 9 -266 9 -203 1 -262 -1 -266 -11 -5 -12 270 -296 286 -296 4 0 16 -12 26 -27 25 -40 226 -233 242 -233 10 0 12 55 10 270 -2 149 -1 270 3 270 3 0 10 -5 17 -12 6 -6 14 -9 17 -7 2 3 -16 25 -40 49 -25 24 -45 40 -45 35z" transform="translate(479,-479) scale(1,1)" stroke="none" fill="#96926F"/>
<path d="M590 620 c0 -14 -31 -16 -249 -15 -137 0 -249 -2 -249 -5 1 -18 -4 -21 -16 -11 -9 8 -16 9 -20 2 -8 -12 231 -247 246 -243 5 1 7 -1 4 -6 -3 -5 59 -72 138 -151 l142 -142 14 28 13 28 8 -25 c4 -14 7 89 8 229 0 139 2 256 5 259 3 3 16 -3 27 -14 l22 -19 -18 28 c-9 15 -22 27 -27 27 -5 0 -18 10 -29 23 -14 16 -18 18 -19 7z m21 -227 c-8 -15 -10 -15 -11 -2 0 17 10 32 18 25 2 -3 -1 -13 -7 -23z" transform="translate(479,-479) scale(1,1)" stroke="none" fill="#167F79"/>
</g>
<g id="pattern4" transform="matrix(1.618,0,0,1.618,1253,1253)matrix(0.87,0.5,-0.5,0.87,0,0)">
<path d="M870 935 c0 -5 10 -19 22 -32 12 -13 16 -23 10 -23 -6 0 -13 4 -16 8 -3 5 -122 9 -266 9 -203 1 -262 -1 -266 -11 -5 -12 270 -296 286 -296 4 0 16 -12 26 -27 25 -40 226 -233 242 -233 10 0 12 55 10 270 -2 149 -1 270 3 270 3 0 10 -5 17 -12 6 -6 14 -9 17 -7 2 3 -16 25 -40 49 -25 24 -45 40 -45 35z" transform="translate(479,-479) scale(1,1)" stroke="none" fill="#96926F"/>
<path d="M590 620 c0 -14 -31 -16 -249 -15 -137 0 -249 -2 -249 -5 1 -18 -4 -21 -16 -11 -9 8 -16 9 -20 2 -8 -12 231 -247 246 -243 5 1 7 -1 4 -6 -3 -5 59 -72 138 -151 l142 -142 14 28 13 28 8 -25 c4 -14 7 89 8 229 0 139 2 256 5 259 3 3 16 -3 27 -14 l22 -19 -18 28 c-9 15 -22 27 -27 27 -5 0 -18 10 -29 23 -14 16 -18 18 -19 7z m21 -227 c-8 -15 -10 -15 -11 -2 0 17 10 32 18 25 2 -3 -1 -13 -7 -23z" transform="translate(479,-479) scale(1,1)" stroke="none" fill="#167F79"/>
</g>
</g>
</g>

<g id="1" transform="translate(1098.0,0)scale(0.25,0.25)">

<g id="pattern">
<rect width="4758" height="4758" fill="#F0B765"/>
<g id="pattern1" transform="matrix(1,0,0,1,296,296)">
<path d="M870 935 c0 -5 10 -19 22 -32 12 -13 16 -23 10 -23 -6 0 -13 4 -16 8 -3 5 -122 9 -266 9 -203 1 -262 -1 -266 -11 -5 -12 270 -296 286 -296 4 0 16 -12 26 -27 25 -40 226 -233 242 -233 10 0 12 55 10 270 -2 149 -1 270 3 270 3 0 10 -5 17 -12 6 -6 14 -9 17 -7 2 3 -16 25 -40 49 -25 24 -45 40 -45 35z" transform="translate(0.000000,0.000000) scale(1,1)" stroke="none" fill="#96926F"/>
<path d="M590 620 c0 -14 -31 -16 -249 -15 -137 0 -249 -2 -249 -5 1 -18 -4 -21 -16 -11 -9 8 -16 9 -20 2 -8 -12 231 -247 246 -243 5 1 7 -1 4 -6 -3 -5 59 -72 138 -151 l142 -142 14 28 13 28 8 -25 c4 -14 7 89 8 229 0 139 2 256 5 259 3 3 16 -3 27 -14 l22 -19 -18 28 c-9 15 -22 27 -27 27 -5 0 -18 10 -29 23 -14 16 -18 18 -19 7z m21 -227 c-8 -15 -10 -15 -11 -2 0 17 10 32 18 25 2 -3 -1 -13 -7 -23z" transform="translate(0.000000,0.000000) scale(1,1)" stroke="none" fill="#167F79"/>
</g>
<g id="pattern2" transform="matrix(0.618,0,0,0.618,2254,662)">
<path d="M870 935 c0 -5 10 -19 22 -32 12 -13 16 -23 10 -23 -6 0 -13 4 -16 8 -3 5 -122 9 -266 9 -203 1 -262 -1 -266 -11 -5 -12 270 -296 286 -296 4 0 16 -12 26 -27 25 -40 226 -233 242 -233 10 0 12 55 10 270 -2 149 -1 270 3 270 3 0 10 -5 17 -12 6 -6 14 -9 17 -7 2 3 -16 25 -40 49 -25 24 -45 40 -45 35z" transform="translate(2986,0.000000) scale(-1,1)" stroke="none" fill="#96926F"/>
<path d="M590 620 c0 -14 -31 -16 -249 -15 -137 0 -249 -2 -249 -5 1 -18 -4 -21 -16 -11 -9 8 -16 9 -20 2 -8 -12 231 -247 246 -243 5 1 7 -1 4 -6 -3 -5 59 -72 138 -151 l142 -142 14 28 13 28 8 -25 c4 -14 7 89 8 229 0 139 2 256 5 259 3 3 16 -3 27 -14 l22 -19 -18 28 c-9 15 -22 27 -27 27 -5 0 -18 10 -29 23 -14 16 -18 18 -19 7z m21 -227 c-8 -15 -10 -15 -11 -2 0 17 10 32 18 25 2 -3 -1 -13 -7 -23z" transform="translate(2986,0.000000) scale(-1,1)" stroke="none" fill="#167F79"/>
</g>
<g id="pattern3" transform="matrix(0.618,0,0,0.618,845,2986)matrix(0.71,0.71,-0.71,0.71,0,0)">
<path d="M870 935 c0 -5 10 -19 22 -32 12 -13 16 -23 10 -23 -6 0 -13 4 -16 8 -3 5 -122 9 -266 9 -203 1 -262 -1 -266 -11 -5 -12 270 -296 286 -296 4 0 16 -12 26 -27 25 -40 226 -233 242 -233 10 0 12 55 10 270 -2 149 -1 270 3 270 3 0 10 -5 17 -12 6 -6 14 -9 17 -7 2 3 -16 25 -40 49 -25 24 -45 40 -45 35z" transform="translate(479,-479) scale(1,1)" stroke="none" fill="#96926F"/>
<path d="M590 620 c0 -14 -31 -16 -249 -15 -137 0 -249 -2 -249 -5 1 -18 -4 -21 -16 -11 -9 8 -16 9 -20 2 -8 -12 231 -247 246 -243 5 1 7 -1 4 -6 -3 -5 59 -72 138 -151 l142 -142 14 28 13 28 8 -25 c4 -14 7 89 8 229 0 139 2 256 5 259 3 3 16 -3 27 -14 l22 -19 -18 28 c-9 15 -22 27 -27 27 -5 0 -18 10 -29 23 -14 16 -18 18 -19 7z m21 -227 c-8 -15 -10 -15 -11 -2 0 17 10 32 18 25 2 -3 -1 -13 -7 -23z" transform="translate(479,-479) scale(1,1)" stroke="none" fill="#167F79"/>
</g>
<g id="pattern4" transform="matrix(1.618,0,0,1.618,1253,1253)matrix(0.87,0.5,-0.5,0.87,0,0)">
<path d="M870 935 c0 -5 10 -19 22 -32 12 -13 16 -23 10 -23 -6 0 -13 4 -16 8 -3 5 -122 9 -266 9 -203 1 -262 -1 -266 -11 -5 -12 270 -296 286 -296 4 0 16 -12 26 -27 25 -40 226 -233 242 -233 10 0 12 55 10 270 -2 149 -1 270 3 270 3 0 10 -5 17 -12 6 -6 14 -9 17 -7 2 3 -16 25 -40 49 -25 24 -45 40 -45 35z" transform="translate(479,-479) scale(1,1)" stroke="none" fill="#96926F"/>
<path d="M590 620 c0 -14 -31 -16 -249 -15 -137 0 -249 -2 -249 -5 1 -18 -4 -21 -16 -11 -9 8 -16 9 -20 2 -8 -12 231 -247 246 -243 5 1 7 -1 4 -6 -3 -5 59 -72 138 -151 l142 -142 14 28 13 28 8 -25 c4 -14 7 89 8 229 0 139 2 256 5 259 3 3 16 -3 27 -14 l22 -19 -18 28 c-9 15 -22 27 -27 27 -5 0 -18 10 -29 23 -14 16 -18 18 -19 7z m21 -227 c-8 -15 -10 -15 -11 -2 0 17 10 32 18 25 2 -3 -1 -13 -7 -23z" transform="translate(479,-479) scale(1,1)" stroke="none" fill="#167F79"/>
</g>
</g>
</g>

<g id="2" transform="translate(2196.0,0)scale(0.25,0.25)">

<g id="pattern">
<rect width="4758" height="4758" fill="#F0B765"/>
<g id="pattern1" transform="matrix(1,0,0,1,296,296)">
<path d="M870 935 c0 -5 10 -19 22 -32 12 -13 16 -23 10 -23 -6 0 -13 4 -16 8 -3 5 -122 9 -266 9 -203 1 -262 -1 -266 -11 -5 -12 270 -296 286 -296 4 0 16 -12 26 -27 25 -40 226 -233 242 -233 10 0 12 55 10 270 -2 149 -1 270 3 270 3 0 10 -5 17 -12 6 -6 14 -9 17 -7 2 3 -16 25 -40 49 -25 24 -45 40 -45 35z" transform="translate(0.000000,0.000000) scale(1,1)" stroke="none" fill="#96926F"/>
<path d="M590 620 c0 -14 -31 -16 -249 -15 -137 0 -249 -2 -249 -5 1 -18 -4 -21 -16 -11 -9 8 -16 9 -20 2 -8 -12 231 -247 246 -243 5 1 7 -1 4 -6 -3 -5 59 -72 138 -151 l142 -142 14 28 13 28 8 -25 c4 -14 7 89 8 229 0 139 2 256 5 259 3 3 16 -3 27 -14 l22 -19 -18 28 c-9 15 -22 27 -27 27 -5 0 -18 10 -29 23 -14 16 -18 18 -19 7z m21 -227 c-8 -15 -10 -15 -11 -2 0 17 10 32 18 25 2 -3 -1 -13 -7 -23z" transform="translate(0.000000,0.000000) scale(1,1)" stroke="none" fill="#167F79"/>
</g>
<g id="pattern2" transform="matrix(0.618,0,0,0.618,2254,662)">
<path d="M870 935 c0 -5 10 -19 22 -32 12 -13 16 -23 10 -23 -6 0 -13 4 -16 8 -3 5 -122 9 -266 9 -203 1 -262 -1 -266 -11 -5 -12 270 -296 286 -296 4 0 16 -12 26 -27 25 -40 226 -233 242 -233 10 0 12 55 10 270 -2 149 -1 270 3 270 3 0 10 -5 17 -12 6 -6 14 -9 17 -7 2 3 -16 25 -40 49 -25 24 -45 40 -45 35z" transform="translate(2986,0.000000) scale(-1,1)" stroke="none" fill="#96926F"/>
<path d="M590 620 c0 -14 -31 -16 -249 -15 -137 0 -249 -2 -249 -5 1 -18 -4 -21 -16 -11 -9 8 -16 9 -20 2 -8 -12 231 -247 246 -243 5 1 7 -1 4 -6 -3 -5 59 -72 138 -151 l142 -142 14 28 13 28 8 -25 c4 -14 7 89 8 229 0 139 2 256 5 259 3 3 16 -3 27 -14 l22 -19 -18 28 c-9 15 -22 27 -27 27 -5 0 -18 10 -29 23 -14 16 -18 18 -19 7z m21 -227 c-8 -15 -10 -15 -11 -2 0 17 10 32 18 25 2 -3 -1 -13 -7 -23z" transform="translate(2986,0.000000) scale(-1,1)" stroke="none" fill="#167F79"/>
</g>
<g id="pattern3" transform="matrix(0.618,0,0,0.618,845,2986)matrix(0.71,0.71,-0.71,0.71,0,0)">
<path d="M870 935 c0 -5 10 -19 22 -32 12 -13 16 -23 10 -23 -6 0 -13 4 -16 8 -3 5 -122 9 -266 9 -203 1 -262 -1 -266 -11 -5 -12 270 -296 286 -296 4 0 16 -12 26 -27 25 -40 226 -233 242 -233 10 0 12 55 10 270 -2 149 -1 270 3 270 3 0 10 -5 17 -12 6 -6 14 -9 17 -7 2 3 -16 25 -40 49 -25 24 -45 40 -45 35z" transform="translate(479,-479) scale(1,1)" stroke="none" fill="#96926F"/>
<path d="M590 620 c0 -14 -31 -16 -249 -15 -137 0 -249 -2 -249 -5 1 -18 -4 -21 -16 -11 -9 8 -16 9 -20 2 -8 -12 231 -247 246 -243 5 1 7 -1 4 -6 -3 -5 59 -72 138 -151 l142 -142 14 28 13 28 8 -25 c4 -14 7 89 8 229 0 139 2 256 5 259 3 3 16 -3 27 -14 l22 -19 -18 28 c-9 15 -22 27 -27 27 -5 0 -18 10 -29 23 -14 16 -18 18 -19 7z m21 -227 c-8 -15 -10 -15 -11 -2 0 17 10 32 18 25 2 -3 -1 -13 -7 -23z" transform="translate(479,-479) scale(1,1)" stroke="none" fill="#167F79"/>
</g>
<g id="pattern4" transform="matrix(1.618,0,0,1.618,1253,1253)matrix(0.87,0.5,-0.5,0.87,0,0)">
<path d="M870 935 c0 -5 10 -19 22 -32 12 -13 16 -23 10 -23 -6 0 -13 4 -16 8 -3 5 -122 9 -266 9 -203 1 -262 -1 -266 -11 -5 -12 270 -296 286 -296 4 0 16 -12 26 -27 25 -40 226 -233 242 -233 10 0 12 55 10 270 -2 149 -1 270 3 270 3 0 10 -5 17 -12 6 -6 14 -9 17 -7 2 3 -16 25 -40 49 -25 24 -45 40 -45 35z" transform="translate(479,-479) scale(1,1)" stroke="none" fill="#96926F"/>
<path d="M590 620 c0 -14 -31 -16 -249 -15 -137 0 -249 -2 -249 -5 1 -18 -4 -21 -16 -11 -9 8 -16 9 -20 2 -8 -12 231 -247 246 -243 5 1 7 -1 4 -6 -3 -5 59 -72 138 -151 l142 -142 14 28 13 28 8 -25 c4 -14 7 89 8 229 0 139 2 256 5 259 3 3 16 -3 27 -14 l22 -19 -18 28 c-9 15 -22 27 -27 27 -5 0 -18 10 -29 23 -14 16 -18 18 -19 7z m21 -227 c-8 -15 -10 -15 -11 -2 0 17 10 32 18 25 2 -3 -1 -13 -7 -23z" transform="translate(479,-479) scale(1,1)" stroke="none" fill="#167F79"/>
</g>
</g>
</g>

<g id="3" transform="translate(3294.0,0)scale(0.25,0.25)">

<g id="pattern">
<rect width="4758" height="4758" fill="#F0B765"/>
<g id="pattern1" transform="matrix(1,0,0,1,296,296)">
<path d="M870 935 c0 -5 10 -19 22 -32 12 -13 16 -23 10 -23 -6 0 -13 4 -16 8 -3 5 -122 9 -266 9 -203 1 -262 -1 -266 -11 -5 -12 270 -296 286 -296 4 0 16 -12 26 -27 25 -40 226 -233 242 -233 10 0 12 55 10 270 -2 149 -1 270 3 270 3 0 10 -5 17 -12 6 -6 14 -9 17 -7 2 3 -16 25 -40 49 -25 24 -45 40 -45 35z" transform="translate(0.000000,0.000000) scale(1,1)" stroke="none" fill="#96926F"/>
<path d="M590 620 c0 -14 -31 -16 -249 -15 -137 0 -249 -2 -249 -5 1 -18 -4 -21 -16 -11 -9 8 -16 9 -20 2 -8 -12 231 -247 246 -243 5 1 7 -1 4 -6 -3 -5 59 -72 138 -151 l142 -142 14 28 13 28 8 -25 c4 -14 7 89 8 229 0 139 2 256 5 259 3 3 16 -3 27 -14 l22 -19 -18 28 c-9 15 -22 27 -27 27 -5 0 -18 10 -29 23 -14 16 -18 18 -19 7z m21 -227 c-8 -15 -10 -15 -11 -2 0 17 10 32 18 25 2 -3 -1 -13 -7 -23z" transform="translate(0.000000,0.000000) scale(1,1)" stroke="none" fill="#167F79"/>
</g>
<g id="pattern2" transform="matrix(0.618,0,0,0.618,2254,662)">
<path d="M870 935 c0 -5 10 -19 22 -32 12 -13 16 -23 10 -23 -6 0 -13 4 -16 8 -3 5 -122 9 -266 9 -203 1 -262 -1 -266 -11 -5 -12 270 -296 286 -296 4 0 16 -12 26 -27 25 -40 226 -233 242 -233 10 0 12 55 10 270 -2 149 -1 270 3 270 3 0 10 -5 17 -12 6 -6 14 -9 17 -7 2 3 -16 25 -40 49 -25 24 -45 40 -45 35z" transform="translate(2986,0.000000) scale(-1,1)" stroke="none" fill="#96926F"/>
<path d="M590 620 c0 -14 -31 -16 -249 -15 -137 0 -249 -2 -249 -5 1 -18 -4 -21 -16 -11 -9 8 -16 9 -20 2 -8 -12 231 -247 246 -243 5 1 7 -1 4 -6 -3 -5 59 -72 138 -151 l142 -142 14 28 13 28 8 -25 c4 -14 7 89 8 229 0 139 2 256 5 259 3 3 16 -3 27 -14 l22 -19 -18 28 c-9 15 -22 27 -27 27 -5 0 -18 10 -29 23 -14 16 -18 18 -19 7z m21 -227 c-8 -15 -10 -15 -11 -2 0 17 10 32 18 25 2 -3 -1 -13 -7 -23z" transform="translate(2986,0.000000) scale(-1,1)" stroke="none" fill="#167F79"/>
</g>
<g id="pattern3" transform="matrix(0.618,0,0,0.618,845,2986)matrix(0.71,0.71,-0.71,0.71,0,0)">
<path d="M870 935 c0 -5 10 -19 22 -32 12 -13 16 -23 10 -23 -6 0 -13 4 -16 8 -3 5 -122 9 -266 9 -203 1 -262 -1 -266 -11 -5 -12 270 -296 286 -296 4 0 16 -12 26 -27 25 -40 226 -233 242 -233 10 0 12 55 10 270 -2 149 -1 270 3 270 3 0 10 -5 17 -12 6 -6 14 -9 17 -7 2 3 -16 25 -40 49 -25 24 -45 40 -45 35z" transform="translate(479,-479) scale(1,1)" stroke="none" fill="#96926F"/>
<path d="M590 620 c0 -14 -31 -16 -249 -15 -137 0 -249 -2 -249 -5 1 -18 -4 -21 -16 -11 -9 8 -16 9 -20 2 -8 -12 231 -247 246 -243 5 1 7 -1 4 -6 -3 -5 59 -72 138 -151 l142 -142 14 28 13 28 8 -25 c4 -14 7 89 8 229 0 139 2 256 5 259 3 3 16 -3 27 -14 l22 -19 -18 28 c-9 15 -22 27 -27 27 -5 0 -18 10 -29 23 -14 16 -18 18 -19 7z m21 -227 c-8 -15 -10 -15 -11 -2 0 17 10 32 18 25 2 -3 -1 -13 -7 -23z" transform="translate(479,-479) scale(1,1)" stroke="none" fill="#167F79"/>
</g>
<g id="pattern4" transform="matrix(1.618,0,0,1.618,1253,1253)matrix(0.87,0.5,-0.5,0.87,0,0)">
<path d="M870 935 c0 -5 10 -19 22 -32 12 -13 16 -23 10 -23 -6 0 -13 4 -16 8 -3 5 -122 9 -266 9 -203 1 -262 -1 -266 -11 -5 -12 270 -296 286 -296 4 0 16 -12 26 -27 25 -40 226 -233 242 -233 10 0 12 55 10 270 -2 149 -1 270 3 270 3 0 10 -5 17 -12 6 -6 14 -9 17 -7 2 3 -16 25 -40 49 -25 24 -45 40 -45 35z" transform="translate(479,-479) scale(1,1)" stroke="none" fill="#96926F"/>
<path d="M590 620 c0 -14 -31 -16 -249 -15 -137 0 -249 -2 -249 -5 1 -18 -4 -21 -16 -11 -9 8 -16 9 -20 2 -8 -12 231 -247 246 -243 5 1 7 -1 4 -6 -3 -5 59 -72 138 -151 l142 -142 14 28 13 28 8 -25 c4 -14 7 89 8 229 0 139 2 256 5 259 3 3 16 -3 27 -14 l22 -19 -18 28 c-9 15 -22 27 -27 27 -5 0 -18 10 -29 23 -14 16 -18 18 -19 7z m21 -227 c-8 -15 -10 -15 -11 -2 0 17 10 32 18 25 2 -3 -1 -13 -7 -23z" transform="translate(479,-479) scale(1,1)" stroke="none" fill="#167F79"/>
</g>
</g>
</g>

<g id="4" transform="translate(4392.0,0)scale(0.25,0.25)">

<g id="pattern">
<rect width="4758" height="4758" fill="#F0B765"/>
<g id="pattern1" transform="matrix(1,0,0,1,296,296)">
<path d="M870 935 c0 -5 10 -19 22 -32 12 -13 16 -23 10 -23 -6 0 -13 4 -16 8 -3 5 -122 9 -266 9 -203 1 -262 -1 -266 -11 -5 -12 270 -296 286 -296 4 0 16 -12 26 -27 25 -40 226 -233 242 -233 10 0 12 55 10 270 -2 149 -1 270 3 270 3 0 10 -5 17 -12 6 -6 14 -9 17 -7 2 3 -16 25 -40 49 -25 24 -45 40 -45 35z" transform="translate(0.000000,0.000000) scale(1,1)" stroke="none" fill="#96926F"/>
<path d="M590 620 c0 -14 -31 -16 -249 -15 -137 0 -249 -2 -249 -5 1 -18 -4 -21 -16 -11 -9 8 -16 9 -20 2 -8 -12 231 -247 246 -243 5 1 7 -1 4 -6 -3 -5 59 -72 138 -151 l142 -142 14 28 13 28 8 -25 c4 -14 7 89 8 229 0 139 2 256 5 259 3 3 16 -3 27 -14 l22 -19 -18 28 c-9 15 -22 27 -27 27 -5 0 -18 10 -29 23 -14 16 -18 18 -19 7z m21 -227 c-8 -15 -10 -15 -11 -2 0 17 10 32 18 25 2 -3 -1 -13 -7 -23z" transform="translate(0.000000,0.000000) scale(1,1)" stroke="none" fill="#167F79"/>
</g>
<g id="pattern2" transform="matrix(0.618,0,0,0.618,2254,662)">
<path d="M870 935 c0 -5 10 -19 22 -32 12 -13 16 -23 10 -23 -6 0 -13 4 -16 8 -3 5 -122 9 -266 9 -203 1 -262 -1 -266 -11 -5 -12 270 -296 286 -296 4 0 16 -12 26 -27 25 -40 226 -233 242 -233 10 0 12 55 10 270 -2 149 -1 270 3 270 3 0 10 -5 17 -12 6 -6 14 -9 17 -7 2 3 -16 25 -40 49 -25 24 -45 40 -45 35z" transform="translate(2986,0.000000) scale(-1,1)" stroke="none" fill="#96926F"/>
<path d="M590 620 c0 -14 -31 -16 -249 -15 -137 0 -249 -2 -249 -5 1 -18 -4 -21 -16 -11 -9 8 -16 9 -20 2 -8 -12 231 -247 246 -243 5 1 7 -1 4 -6 -3 -5 59 -72 138 -151 l142 -142 14 28 13 28 8 -25 c4 -14 7 89 8 229 0 139 2 256 5 259 3 3 16 -3 27 -14 l22 -19 -18 28 c-9 15 -22 27 -27 27 -5 0 -18 10 -29 23 -14 16 -18 18 -19 7z m21 -227 c-8 -15 -10 -15 -11 -2 0 17 10 32 18 25 2 -3 -1 -13 -7 -23z" transform="translate(2986,0.000000) scale(-1,1)" stroke="none" fill="#167F79"/>
</g>
<g id="pattern3" transform="matrix(0.618,0,0,0.618,845,2986)matrix(0.71,0.71,-0.71,0.71,0,0)">
<path d="M870 935 c0 -5 10 -19 22 -32 12 -13 16 -23 10 -23 -6 0 -13 4 -16 8 -3 5 -122 9 -266 9 -203 1 -262 -1 -266 -11 -5 -12 270 -296 286 -296 4 0 16 -12 26 -27 25 -40 226 -233 242 -233 10 0 12 55 10 270 -2 149 -1 270 3 270 3 0 10 -5 17 -12 6 -6 14 -9 17 -7 2 3 -16 25 -40 49 -25 24 -45 40 -45 35z" transform="translate(479,-479) scale(1,1)" stroke="none" fill="#96926F"/>
<path d="M590 620 c0 -14 -31 -16 -249 -15 -137 0 -249 -2 -249 -5 1 -18 -4 -21 -16 -11 -9 8 -16 9 -20 2 -8 -12 231 -247 246 -243 5 1 7 -1 4 -6 -3 -5 59 -72 138 -151 l142 -142 14 28 13 28 8 -25 c4 -14 7 89 8 229 0 139 2 256 5 259 3 3 16 -3 27 -14 l22 -19 -18 28 c-9 15 -22 27 -27 27 -5 0 -18 10 -29 23 -14 16 -18 18 -19 7z m21 -227 c-8 -15 -10 -15 -11 -2 0 17 10 32 18 25 2 -3 -1 -13 -7 -23z" transform="translate(479,-479) scale(1,1)" stroke="none" fill="#167F79"/>
</g>
<g id="pattern4" transform="matrix(1.618,0,0,1.618,1253,1253)matrix(0.87,0.5,-0.5,0.87,0,0)">
<path d="M870 935 c0 -5 10 -19 22 -32 12 -13 16 -23 10 -23 -6 0 -13 4 -16 8 -3 5 -122 9 -266 9 -203 1 -262 -1 -266 -11 -5 -12 270 -296 286 -296 4 0 16 -12 26 -27 25 -40 226 -233 242 -233 10 0 12 55 10 270 -2 149 -1 270 3 270 3 0 10 -5 17 -12 6 -6 14 -9 17 -7 2 3 -16 25 -40 49 -25 24 -45 40 -45 35z" transform="translate(479,-479) scale(1,1)" stroke="none" fill="#96926F"/>
<path d="M590 620 c0 -14 -31 -16 -249 -15 -137 0 -249 -2 -249 -5 1 -18 -4 -21 -16 -11 -9 8 -16 9 -20 2 -8 -12 231 -247 246 -243 5 1 7 -1 4 -6 -3 -5 59 -72 138 -151 l142 -142 14 28 13 28 8 -25 c4 -14 7 89 8 229 0 139 2 256 5 259 3 3 16 -3 27 -14 l22 -19 -18 28 c-9 15 -22 27 -27 27 -5 0 -18 10 -29 23 -14 16 -18 18 -19 7z m21 -227 c-8 -15 -10 -15 -11 -2 0 17 10 32 18 25 2 -3 -1 -13 -7 -23z" transform="translate(479,-479) scale(1,1)" stroke="none" fill="#167F79"/>
</g>
</g>
</g>

</g>
</svg>