<?xml version="1.0" standalone="no"?>
<!DOCTYPE svg PUBLIC "-//W3C//DTD SVG 20010904//EN"
 "http://www.w3.org/TR/2001/REC-SVG-20010904/DTD/svg10.dtd">
<svg version="1.0" xmlns="http://www.w3.org/2000/svg" 
width="96.000000pt" height="94.000000pt" viewBox="0 0 96.000000 94.000000"
preserveAspectRatio = "xMidYMid meet" >
<metadata>
Created by ZoeQU, 2022
</metadata>
<rect width="96.000000" height="94.000000" fill="#A36CB7"/>
<path d="M870 935 c0 -5 10 -19 22 -32 12 -13 16 -23 10 -23 -6 0 -13 4 -16 8 -3 5 -122 9 -266 9 -203 1 -262 -1 -266 -11 -5 -12 270 -296 286 -296 4 0 16 -12 26 -27 25 -40 226 -233 242 -233 10 0 12 55 10 270 -2 149 -1 270 3 270 3 0 10 -5 17 -12 6 -6 14 -9 17 -7 2 3 -16 25 -40 49 -25 24 -45 40 -45 35z" transform="translate(0.000000,94.000000) scale(0.100000,-0.100000)" stroke="none" fill="#D6DACA"/>

<path d="M590 620 c0 -14 -31 -16 -249 -15 -137 0 -249 -2 -249 -5 1 -18 -4 -21 -16 -11 -9 8 -16 9 -20 2 -8 -12 231 -247 246 -243 5 1 7 -1 4 -6 -3 -5 59 -72 138 -151 l142 -142 14 28 13 28 8 -25 c4 -14 7 89 8 229 0 139 2 256 5 259 3 3 16 -3 27 -14 l22 -19 -18 28 c-9 15 -22 27 -27 27 -5 0 -18 10 -29 23 -14 16 -18 18 -19 7z m21 -227 c-8 -15 -10 -15 -11 -2 0 17 10 32 18 25 2 -3 -1 -13 -7 -23z" transform="translate(0.000000,94.000000) scale(0.100000,-0.100000)" stroke="none" fill="#F7B83F"/>

</svg>