<?xml version="1.0" standalone="no"?>
<!DOCTYPE svg PUBLIC "-//W3C//DTD SVG 20010904//EN"
 "http://www.w3.org/TR/2001/REC-SVG-20010904/DTD/svg10.dtd">
<svg version="1.0" xmlns="http://www.w3.org/2000/svg" width="3756pt" height="3756pt" viewBox="0 0 3756 3756" preserveAspectRatio = "xMidYMid meet" >
<metadata>
Created by ZoeQu, written in 2022
</metadata>
<rect width="3756" height="3756" fill="#DDDEE6"/>
<g id="row0" transform="translate(0,0.0)">
<g id="0" transform="translate(0.0,0)scale(0.25,0.25)">

<g id="pattern">
<rect width="4069" height="4069" fill="#DDDEE6"/>
<g id="pattern1" transform="matrix(1,0,0,1,253,253)">
<path d="M385 519 c-44 -26 -65 -53 -65 -84 0 -70 79 -117 159 -95 79 21 104 94 53 151 -23 26 -38 32 -78 36 -27 2 -58 -2 -69 -8z" transform="translate(0.000000,0.000000) scale(1,1)" stroke="none" fill="#B9CF64"/>
<path d="M184 745 c-38 -17 -50 -31 -58 -74 -9 -48 9 -104 46 -140 l31 -30 -27 -11 c-15 -5 -33 -10 -39 -10 -17 0 -79 -38 -94 -58 -18 -22 -16 -67 3 -83 18 -15 63 -17 117 -6 48 10 47 -3 -2 -37 -67 -47 -85 -126 -37 -165 29 -24 131 -8 181 28 52 37 55 38 55 7 0 -36 27 -93 52 -110 34 -24 90 -20 122 8 41 34 80 108 99 187 l11 46 45 0 c36 0 49 5 69 28 20 24 23 35 18 73 -3 24 -14 57 -23 73 -16 27 -16 29 5 52 45 48 15 136 -52 153 -54 13 -150 -1 -209 -30 l-57 -29 -45 46 c-73 73 -157 106 -211 82z m348 -254 c34 -38 36 -78 7 -114 -43 -55 -155 -55 -198 0 -57 71 9 158 113 150 40 -4 55 -10 78 -36z" transform="translate(0.000000,0.000000) scale(1,1)" stroke="none" fill="#A798B9"/>
</g>
<g id="pattern2" transform="matrix(0.618,0,0,0.618,1928,566)">
<path d="M385 519 c-44 -26 -65 -53 -65 -84 0 -70 79 -117 159 -95 79 21 104 94 53 151 -23 26 -38 32 -78 36 -27 2 -58 -2 -69 -8z" transform="translate(2554,0.000000) scale(-1,1)" stroke="none" fill="#B9CF64"/>
<path d="M184 745 c-38 -17 -50 -31 -58 -74 -9 -48 9 -104 46 -140 l31 -30 -27 -11 c-15 -5 -33 -10 -39 -10 -17 0 -79 -38 -94 -58 -18 -22 -16 -67 3 -83 18 -15 63 -17 117 -6 48 10 47 -3 -2 -37 -67 -47 -85 -126 -37 -165 29 -24 131 -8 181 28 52 37 55 38 55 7 0 -36 27 -93 52 -110 34 -24 90 -20 122 8 41 34 80 108 99 187 l11 46 45 0 c36 0 49 5 69 28 20 24 23 35 18 73 -3 24 -14 57 -23 73 -16 27 -16 29 5 52 45 48 15 136 -52 153 -54 13 -150 -1 -209 -30 l-57 -29 -45 46 c-73 73 -157 106 -211 82z m348 -254 c34 -38 36 -78 7 -114 -43 -55 -155 -55 -198 0 -57 71 9 158 113 150 40 -4 55 -10 78 -36z" transform="translate(2554,0.000000) scale(-1,1)" stroke="none" fill="#A798B9"/>
</g>
<g id="pattern3" transform="matrix(0.618,0,0,0.618,723,2554)matrix(0.71,0.71,-0.71,0.71,0,0)">
<path d="M385 519 c-44 -26 -65 -53 -65 -84 0 -70 79 -117 159 -95 79 21 104 94 53 151 -23 26 -38 32 -78 36 -27 2 -58 -2 -69 -8z" transform="translate(410,-410) scale(1,1)" stroke="none" fill="#B9CF64"/>
<path d="M184 745 c-38 -17 -50 -31 -58 -74 -9 -48 9 -104 46 -140 l31 -30 -27 -11 c-15 -5 -33 -10 -39 -10 -17 0 -79 -38 -94 -58 -18 -22 -16 -67 3 -83 18 -15 63 -17 117 -6 48 10 47 -3 -2 -37 -67 -47 -85 -126 -37 -165 29 -24 131 -8 181 28 52 37 55 38 55 7 0 -36 27 -93 52 -110 34 -24 90 -20 122 8 41 34 80 108 99 187 l11 46 45 0 c36 0 49 5 69 28 20 24 23 35 18 73 -3 24 -14 57 -23 73 -16 27 -16 29 5 52 45 48 15 136 -52 153 -54 13 -150 -1 -209 -30 l-57 -29 -45 46 c-73 73 -157 106 -211 82z m348 -254 c34 -38 36 -78 7 -114 -43 -55 -155 -55 -198 0 -57 71 9 158 113 150 40 -4 55 -10 78 -36z" transform="translate(410,-410) scale(1,1)" stroke="none" fill="#A798B9"/>
</g>
<g id="pattern4" transform="matrix(1.618,0,0,1.618,1071,1071)matrix(0.87,0.5,-0.5,0.87,0,0)">
<path d="M385 519 c-44 -26 -65 -53 -65 -84 0 -70 79 -117 159 -95 79 21 104 94 53 151 -23 26 -38 32 -78 36 -27 2 -58 -2 -69 -8z" transform="translate(410,-410) scale(1,1)" stroke="none" fill="#B9CF64"/>
<path d="M184 745 c-38 -17 -50 -31 -58 -74 -9 -48 9 -104 46 -140 l31 -30 -27 -11 c-15 -5 -33 -10 -39 -10 -17 0 -79 -38 -94 -58 -18 -22 -16 -67 3 -83 18 -15 63 -17 117 -6 48 10 47 -3 -2 -37 -67 -47 -85 -126 -37 -165 29 -24 131 -8 181 28 52 37 55 38 55 7 0 -36 27 -93 52 -110 34 -24 90 -20 122 8 41 34 80 108 99 187 l11 46 45 0 c36 0 49 5 69 28 20 24 23 35 18 73 -3 24 -14 57 -23 73 -16 27 -16 29 5 52 45 48 15 136 -52 153 -54 13 -150 -1 -209 -30 l-57 -29 -45 46 c-73 73 -157 106 -211 82z m348 -254 c34 -38 36 -78 7 -114 -43 -55 -155 -55 -198 0 -57 71 9 158 113 150 40 -4 55 -10 78 -36z" transform="translate(410,-410) scale(1,1)" stroke="none" fill="#A798B9"/>
</g>
</g>
</g>

<g id="1" transform="translate(939.0,0)scale(0.25,0.25)">

<g id="pattern">
<rect width="4069" height="4069" fill="#DDDEE6"/>
<g id="pattern1" transform="matrix(1,0,0,1,253,253)">
<path d="M385 519 c-44 -26 -65 -53 -65 -84 0 -70 79 -117 159 -95 79 21 104 94 53 151 -23 26 -38 32 -78 36 -27 2 -58 -2 -69 -8z" transform="translate(0.000000,0.000000) scale(1,1)" stroke="none" fill="#B9CF64"/>
<path d="M184 745 c-38 -17 -50 -31 -58 -74 -9 -48 9 -104 46 -140 l31 -30 -27 -11 c-15 -5 -33 -10 -39 -10 -17 0 -79 -38 -94 -58 -18 -22 -16 -67 3 -83 18 -15 63 -17 117 -6 48 10 47 -3 -2 -37 -67 -47 -85 -126 -37 -165 29 -24 131 -8 181 28 52 37 55 38 55 7 0 -36 27 -93 52 -110 34 -24 90 -20 122 8 41 34 80 108 99 187 l11 46 45 0 c36 0 49 5 69 28 20 24 23 35 18 73 -3 24 -14 57 -23 73 -16 27 -16 29 5 52 45 48 15 136 -52 153 -54 13 -150 -1 -209 -30 l-57 -29 -45 46 c-73 73 -157 106 -211 82z m348 -254 c34 -38 36 -78 7 -114 -43 -55 -155 -55 -198 0 -57 71 9 158 113 150 40 -4 55 -10 78 -36z" transform="translate(0.000000,0.000000) scale(1,1)" stroke="none" fill="#A798B9"/>
</g>
<g id="pattern2" transform="matrix(0.618,0,0,0.618,1928,566)">
<path d="M385 519 c-44 -26 -65 -53 -65 -84 0 -70 79 -117 159 -95 79 21 104 94 53 151 -23 26 -38 32 -78 36 -27 2 -58 -2 -69 -8z" transform="translate(2554,0.000000) scale(-1,1)" stroke="none" fill="#B9CF64"/>
<path d="M184 745 c-38 -17 -50 -31 -58 -74 -9 -48 9 -104 46 -140 l31 -30 -27 -11 c-15 -5 -33 -10 -39 -10 -17 0 -79 -38 -94 -58 -18 -22 -16 -67 3 -83 18 -15 63 -17 117 -6 48 10 47 -3 -2 -37 -67 -47 -85 -126 -37 -165 29 -24 131 -8 181 28 52 37 55 38 55 7 0 -36 27 -93 52 -110 34 -24 90 -20 122 8 41 34 80 108 99 187 l11 46 45 0 c36 0 49 5 69 28 20 24 23 35 18 73 -3 24 -14 57 -23 73 -16 27 -16 29 5 52 45 48 15 136 -52 153 -54 13 -150 -1 -209 -30 l-57 -29 -45 46 c-73 73 -157 106 -211 82z m348 -254 c34 -38 36 -78 7 -114 -43 -55 -155 -55 -198 0 -57 71 9 158 113 150 40 -4 55 -10 78 -36z" transform="translate(2554,0.000000) scale(-1,1)" stroke="none" fill="#A798B9"/>
</g>
<g id="pattern3" transform="matrix(0.618,0,0,0.618,723,2554)matrix(0.71,0.71,-0.71,0.71,0,0)">
<path d="M385 519 c-44 -26 -65 -53 -65 -84 0 -70 79 -117 159 -95 79 21 104 94 53 151 -23 26 -38 32 -78 36 -27 2 -58 -2 -69 -8z" transform="translate(410,-410) scale(1,1)" stroke="none" fill="#B9CF64"/>
<path d="M184 745 c-38 -17 -50 -31 -58 -74 -9 -48 9 -104 46 -140 l31 -30 -27 -11 c-15 -5 -33 -10 -39 -10 -17 0 -79 -38 -94 -58 -18 -22 -16 -67 3 -83 18 -15 63 -17 117 -6 48 10 47 -3 -2 -37 -67 -47 -85 -126 -37 -165 29 -24 131 -8 181 28 52 37 55 38 55 7 0 -36 27 -93 52 -110 34 -24 90 -20 122 8 41 34 80 108 99 187 l11 46 45 0 c36 0 49 5 69 28 20 24 23 35 18 73 -3 24 -14 57 -23 73 -16 27 -16 29 5 52 45 48 15 136 -52 153 -54 13 -150 -1 -209 -30 l-57 -29 -45 46 c-73 73 -157 106 -211 82z m348 -254 c34 -38 36 -78 7 -114 -43 -55 -155 -55 -198 0 -57 71 9 158 113 150 40 -4 55 -10 78 -36z" transform="translate(410,-410) scale(1,1)" stroke="none" fill="#A798B9"/>
</g>
<g id="pattern4" transform="matrix(1.618,0,0,1.618,1071,1071)matrix(0.87,0.5,-0.5,0.87,0,0)">
<path d="M385 519 c-44 -26 -65 -53 -65 -84 0 -70 79 -117 159 -95 79 21 104 94 53 151 -23 26 -38 32 -78 36 -27 2 -58 -2 -69 -8z" transform="translate(410,-410) scale(1,1)" stroke="none" fill="#B9CF64"/>
<path d="M184 745 c-38 -17 -50 -31 -58 -74 -9 -48 9 -104 46 -140 l31 -30 -27 -11 c-15 -5 -33 -10 -39 -10 -17 0 -79 -38 -94 -58 -18 -22 -16 -67 3 -83 18 -15 63 -17 117 -6 48 10 47 -3 -2 -37 -67 -47 -85 -126 -37 -165 29 -24 131 -8 181 28 52 37 55 38 55 7 0 -36 27 -93 52 -110 34 -24 90 -20 122 8 41 34 80 108 99 187 l11 46 45 0 c36 0 49 5 69 28 20 24 23 35 18 73 -3 24 -14 57 -23 73 -16 27 -16 29 5 52 45 48 15 136 -52 153 -54 13 -150 -1 -209 -30 l-57 -29 -45 46 c-73 73 -157 106 -211 82z m348 -254 c34 -38 36 -78 7 -114 -43 -55 -155 -55 -198 0 -57 71 9 158 113 150 40 -4 55 -10 78 -36z" transform="translate(410,-410) scale(1,1)" stroke="none" fill="#A798B9"/>
</g>
</g>
</g>

<g id="2" transform="translate(1878.0,0)scale(0.25,0.25)">

<g id="pattern">
<rect width="4069" height="4069" fill="#DDDEE6"/>
<g id="pattern1" transform="matrix(1,0,0,1,253,253)">
<path d="M385 519 c-44 -26 -65 -53 -65 -84 0 -70 79 -117 159 -95 79 21 104 94 53 151 -23 26 -38 32 -78 36 -27 2 -58 -2 -69 -8z" transform="translate(0.000000,0.000000) scale(1,1)" stroke="none" fill="#B9CF64"/>
<path d="M184 745 c-38 -17 -50 -31 -58 -74 -9 -48 9 -104 46 -140 l31 -30 -27 -11 c-15 -5 -33 -10 -39 -10 -17 0 -79 -38 -94 -58 -18 -22 -16 -67 3 -83 18 -15 63 -17 117 -6 48 10 47 -3 -2 -37 -67 -47 -85 -126 -37 -165 29 -24 131 -8 181 28 52 37 55 38 55 7 0 -36 27 -93 52 -110 34 -24 90 -20 122 8 41 34 80 108 99 187 l11 46 45 0 c36 0 49 5 69 28 20 24 23 35 18 73 -3 24 -14 57 -23 73 -16 27 -16 29 5 52 45 48 15 136 -52 153 -54 13 -150 -1 -209 -30 l-57 -29 -45 46 c-73 73 -157 106 -211 82z m348 -254 c34 -38 36 -78 7 -114 -43 -55 -155 -55 -198 0 -57 71 9 158 113 150 40 -4 55 -10 78 -36z" transform="translate(0.000000,0.000000) scale(1,1)" stroke="none" fill="#A798B9"/>
</g>
<g id="pattern2" transform="matrix(0.618,0,0,0.618,1928,566)">
<path d="M385 519 c-44 -26 -65 -53 -65 -84 0 -70 79 -117 159 -95 79 21 104 94 53 151 -23 26 -38 32 -78 36 -27 2 -58 -2 -69 -8z" transform="translate(2554,0.000000) scale(-1,1)" stroke="none" fill="#B9CF64"/>
<path d="M184 745 c-38 -17 -50 -31 -58 -74 -9 -48 9 -104 46 -140 l31 -30 -27 -11 c-15 -5 -33 -10 -39 -10 -17 0 -79 -38 -94 -58 -18 -22 -16 -67 3 -83 18 -15 63 -17 117 -6 48 10 47 -3 -2 -37 -67 -47 -85 -126 -37 -165 29 -24 131 -8 181 28 52 37 55 38 55 7 0 -36 27 -93 52 -110 34 -24 90 -20 122 8 41 34 80 108 99 187 l11 46 45 0 c36 0 49 5 69 28 20 24 23 35 18 73 -3 24 -14 57 -23 73 -16 27 -16 29 5 52 45 48 15 136 -52 153 -54 13 -150 -1 -209 -30 l-57 -29 -45 46 c-73 73 -157 106 -211 82z m348 -254 c34 -38 36 -78 7 -114 -43 -55 -155 -55 -198 0 -57 71 9 158 113 150 40 -4 55 -10 78 -36z" transform="translate(2554,0.000000) scale(-1,1)" stroke="none" fill="#A798B9"/>
</g>
<g id="pattern3" transform="matrix(0.618,0,0,0.618,723,2554)matrix(0.71,0.71,-0.71,0.71,0,0)">
<path d="M385 519 c-44 -26 -65 -53 -65 -84 0 -70 79 -117 159 -95 79 21 104 94 53 151 -23 26 -38 32 -78 36 -27 2 -58 -2 -69 -8z" transform="translate(410,-410) scale(1,1)" stroke="none" fill="#B9CF64"/>
<path d="M184 745 c-38 -17 -50 -31 -58 -74 -9 -48 9 -104 46 -140 l31 -30 -27 -11 c-15 -5 -33 -10 -39 -10 -17 0 -79 -38 -94 -58 -18 -22 -16 -67 3 -83 18 -15 63 -17 117 -6 48 10 47 -3 -2 -37 -67 -47 -85 -126 -37 -165 29 -24 131 -8 181 28 52 37 55 38 55 7 0 -36 27 -93 52 -110 34 -24 90 -20 122 8 41 34 80 108 99 187 l11 46 45 0 c36 0 49 5 69 28 20 24 23 35 18 73 -3 24 -14 57 -23 73 -16 27 -16 29 5 52 45 48 15 136 -52 153 -54 13 -150 -1 -209 -30 l-57 -29 -45 46 c-73 73 -157 106 -211 82z m348 -254 c34 -38 36 -78 7 -114 -43 -55 -155 -55 -198 0 -57 71 9 158 113 150 40 -4 55 -10 78 -36z" transform="translate(410,-410) scale(1,1)" stroke="none" fill="#A798B9"/>
</g>
<g id="pattern4" transform="matrix(1.618,0,0,1.618,1071,1071)matrix(0.87,0.5,-0.5,0.87,0,0)">
<path d="M385 519 c-44 -26 -65 -53 -65 -84 0 -70 79 -117 159 -95 79 21 104 94 53 151 -23 26 -38 32 -78 36 -27 2 -58 -2 -69 -8z" transform="translate(410,-410) scale(1,1)" stroke="none" fill="#B9CF64"/>
<path d="M184 745 c-38 -17 -50 -31 -58 -74 -9 -48 9 -104 46 -140 l31 -30 -27 -11 c-15 -5 -33 -10 -39 -10 -17 0 -79 -38 -94 -58 -18 -22 -16 -67 3 -83 18 -15 63 -17 117 -6 48 10 47 -3 -2 -37 -67 -47 -85 -126 -37 -165 29 -24 131 -8 181 28 52 37 55 38 55 7 0 -36 27 -93 52 -110 34 -24 90 -20 122 8 41 34 80 108 99 187 l11 46 45 0 c36 0 49 5 69 28 20 24 23 35 18 73 -3 24 -14 57 -23 73 -16 27 -16 29 5 52 45 48 15 136 -52 153 -54 13 -150 -1 -209 -30 l-57 -29 -45 46 c-73 73 -157 106 -211 82z m348 -254 c34 -38 36 -78 7 -114 -43 -55 -155 -55 -198 0 -57 71 9 158 113 150 40 -4 55 -10 78 -36z" transform="translate(410,-410) scale(1,1)" stroke="none" fill="#A798B9"/>
</g>
</g>
</g>

<g id="3" transform="translate(2817.0,0)scale(0.25,0.25)">

<g id="pattern">
<rect width="4069" height="4069" fill="#DDDEE6"/>
<g id="pattern1" transform="matrix(1,0,0,1,253,253)">
<path d="M385 519 c-44 -26 -65 -53 -65 -84 0 -70 79 -117 159 -95 79 21 104 94 53 151 -23 26 -38 32 -78 36 -27 2 -58 -2 -69 -8z" transform="translate(0.000000,0.000000) scale(1,1)" stroke="none" fill="#B9CF64"/>
<path d="M184 745 c-38 -17 -50 -31 -58 -74 -9 -48 9 -104 46 -140 l31 -30 -27 -11 c-15 -5 -33 -10 -39 -10 -17 0 -79 -38 -94 -58 -18 -22 -16 -67 3 -83 18 -15 63 -17 117 -6 48 10 47 -3 -2 -37 -67 -47 -85 -126 -37 -165 29 -24 131 -8 181 28 52 37 55 38 55 7 0 -36 27 -93 52 -110 34 -24 90 -20 122 8 41 34 80 108 99 187 l11 46 45 0 c36 0 49 5 69 28 20 24 23 35 18 73 -3 24 -14 57 -23 73 -16 27 -16 29 5 52 45 48 15 136 -52 153 -54 13 -150 -1 -209 -30 l-57 -29 -45 46 c-73 73 -157 106 -211 82z m348 -254 c34 -38 36 -78 7 -114 -43 -55 -155 -55 -198 0 -57 71 9 158 113 150 40 -4 55 -10 78 -36z" transform="translate(0.000000,0.000000) scale(1,1)" stroke="none" fill="#A798B9"/>
</g>
<g id="pattern2" transform="matrix(0.618,0,0,0.618,1928,566)">
<path d="M385 519 c-44 -26 -65 -53 -65 -84 0 -70 79 -117 159 -95 79 21 104 94 53 151 -23 26 -38 32 -78 36 -27 2 -58 -2 -69 -8z" transform="translate(2554,0.000000) scale(-1,1)" stroke="none" fill="#B9CF64"/>
<path d="M184 745 c-38 -17 -50 -31 -58 -74 -9 -48 9 -104 46 -140 l31 -30 -27 -11 c-15 -5 -33 -10 -39 -10 -17 0 -79 -38 -94 -58 -18 -22 -16 -67 3 -83 18 -15 63 -17 117 -6 48 10 47 -3 -2 -37 -67 -47 -85 -126 -37 -165 29 -24 131 -8 181 28 52 37 55 38 55 7 0 -36 27 -93 52 -110 34 -24 90 -20 122 8 41 34 80 108 99 187 l11 46 45 0 c36 0 49 5 69 28 20 24 23 35 18 73 -3 24 -14 57 -23 73 -16 27 -16 29 5 52 45 48 15 136 -52 153 -54 13 -150 -1 -209 -30 l-57 -29 -45 46 c-73 73 -157 106 -211 82z m348 -254 c34 -38 36 -78 7 -114 -43 -55 -155 -55 -198 0 -57 71 9 158 113 150 40 -4 55 -10 78 -36z" transform="translate(2554,0.000000) scale(-1,1)" stroke="none" fill="#A798B9"/>
</g>
<g id="pattern3" transform="matrix(0.618,0,0,0.618,723,2554)matrix(0.71,0.71,-0.71,0.71,0,0)">
<path d="M385 519 c-44 -26 -65 -53 -65 -84 0 -70 79 -117 159 -95 79 21 104 94 53 151 -23 26 -38 32 -78 36 -27 2 -58 -2 -69 -8z" transform="translate(410,-410) scale(1,1)" stroke="none" fill="#B9CF64"/>
<path d="M184 745 c-38 -17 -50 -31 -58 -74 -9 -48 9 -104 46 -140 l31 -30 -27 -11 c-15 -5 -33 -10 -39 -10 -17 0 -79 -38 -94 -58 -18 -22 -16 -67 3 -83 18 -15 63 -17 117 -6 48 10 47 -3 -2 -37 -67 -47 -85 -126 -37 -165 29 -24 131 -8 181 28 52 37 55 38 55 7 0 -36 27 -93 52 -110 34 -24 90 -20 122 8 41 34 80 108 99 187 l11 46 45 0 c36 0 49 5 69 28 20 24 23 35 18 73 -3 24 -14 57 -23 73 -16 27 -16 29 5 52 45 48 15 136 -52 153 -54 13 -150 -1 -209 -30 l-57 -29 -45 46 c-73 73 -157 106 -211 82z m348 -254 c34 -38 36 -78 7 -114 -43 -55 -155 -55 -198 0 -57 71 9 158 113 150 40 -4 55 -10 78 -36z" transform="translate(410,-410) scale(1,1)" stroke="none" fill="#A798B9"/>
</g>
<g id="pattern4" transform="matrix(1.618,0,0,1.618,1071,1071)matrix(0.87,0.5,-0.5,0.87,0,0)">
<path d="M385 519 c-44 -26 -65 -53 -65 -84 0 -70 79 -117 159 -95 79 21 104 94 53 151 -23 26 -38 32 -78 36 -27 2 -58 -2 -69 -8z" transform="translate(410,-410) scale(1,1)" stroke="none" fill="#B9CF64"/>
<path d="M184 745 c-38 -17 -50 -31 -58 -74 -9 -48 9 -104 46 -140 l31 -30 -27 -11 c-15 -5 -33 -10 -39 -10 -17 0 -79 -38 -94 -58 -18 -22 -16 -67 3 -83 18 -15 63 -17 117 -6 48 10 47 -3 -2 -37 -67 -47 -85 -126 -37 -165 29 -24 131 -8 181 28 52 37 55 38 55 7 0 -36 27 -93 52 -110 34 -24 90 -20 122 8 41 34 80 108 99 187 l11 46 45 0 c36 0 49 5 69 28 20 24 23 35 18 73 -3 24 -14 57 -23 73 -16 27 -16 29 5 52 45 48 15 136 -52 153 -54 13 -150 -1 -209 -30 l-57 -29 -45 46 c-73 73 -157 106 -211 82z m348 -254 c34 -38 36 -78 7 -114 -43 -55 -155 -55 -198 0 -57 71 9 158 113 150 40 -4 55 -10 78 -36z" transform="translate(410,-410) scale(1,1)" stroke="none" fill="#A798B9"/>
</g>
</g>
</g>

<g id="4" transform="translate(3756.0,0)scale(0.25,0.25)">

<g id="pattern">
<rect width="4069" height="4069" fill="#DDDEE6"/>
<g id="pattern1" transform="matrix(1,0,0,1,253,253)">
<path d="M385 519 c-44 -26 -65 -53 -65 -84 0 -70 79 -117 159 -95 79 21 104 94 53 151 -23 26 -38 32 -78 36 -27 2 -58 -2 -69 -8z" transform="translate(0.000000,0.000000) scale(1,1)" stroke="none" fill="#B9CF64"/>
<path d="M184 745 c-38 -17 -50 -31 -58 -74 -9 -48 9 -104 46 -140 l31 -30 -27 -11 c-15 -5 -33 -10 -39 -10 -17 0 -79 -38 -94 -58 -18 -22 -16 -67 3 -83 18 -15 63 -17 117 -6 48 10 47 -3 -2 -37 -67 -47 -85 -126 -37 -165 29 -24 131 -8 181 28 52 37 55 38 55 7 0 -36 27 -93 52 -110 34 -24 90 -20 122 8 41 34 80 108 99 187 l11 46 45 0 c36 0 49 5 69 28 20 24 23 35 18 73 -3 24 -14 57 -23 73 -16 27 -16 29 5 52 45 48 15 136 -52 153 -54 13 -150 -1 -209 -30 l-57 -29 -45 46 c-73 73 -157 106 -211 82z m348 -254 c34 -38 36 -78 7 -114 -43 -55 -155 -55 -198 0 -57 71 9 158 113 150 40 -4 55 -10 78 -36z" transform="translate(0.000000,0.000000) scale(1,1)" stroke="none" fill="#A798B9"/>
</g>
<g id="pattern2" transform="matrix(0.618,0,0,0.618,1928,566)">
<path d="M385 519 c-44 -26 -65 -53 -65 -84 0 -70 79 -117 159 -95 79 21 104 94 53 151 -23 26 -38 32 -78 36 -27 2 -58 -2 -69 -8z" transform="translate(2554,0.000000) scale(-1,1)" stroke="none" fill="#B9CF64"/>
<path d="M184 745 c-38 -17 -50 -31 -58 -74 -9 -48 9 -104 46 -140 l31 -30 -27 -11 c-15 -5 -33 -10 -39 -10 -17 0 -79 -38 -94 -58 -18 -22 -16 -67 3 -83 18 -15 63 -17 117 -6 48 10 47 -3 -2 -37 -67 -47 -85 -126 -37 -165 29 -24 131 -8 181 28 52 37 55 38 55 7 0 -36 27 -93 52 -110 34 -24 90 -20 122 8 41 34 80 108 99 187 l11 46 45 0 c36 0 49 5 69 28 20 24 23 35 18 73 -3 24 -14 57 -23 73 -16 27 -16 29 5 52 45 48 15 136 -52 153 -54 13 -150 -1 -209 -30 l-57 -29 -45 46 c-73 73 -157 106 -211 82z m348 -254 c34 -38 36 -78 7 -114 -43 -55 -155 -55 -198 0 -57 71 9 158 113 150 40 -4 55 -10 78 -36z" transform="translate(2554,0.000000) scale(-1,1)" stroke="none" fill="#A798B9"/>
</g>
<g id="pattern3" transform="matrix(0.618,0,0,0.618,723,2554)matrix(0.71,0.71,-0.71,0.71,0,0)">
<path d="M385 519 c-44 -26 -65 -53 -65 -84 0 -70 79 -117 159 -95 79 21 104 94 53 151 -23 26 -38 32 -78 36 -27 2 -58 -2 -69 -8z" transform="translate(410,-410) scale(1,1)" stroke="none" fill="#B9CF64"/>
<path d="M184 745 c-38 -17 -50 -31 -58 -74 -9 -48 9 -104 46 -140 l31 -30 -27 -11 c-15 -5 -33 -10 -39 -10 -17 0 -79 -38 -94 -58 -18 -22 -16 -67 3 -83 18 -15 63 -17 117 -6 48 10 47 -3 -2 -37 -67 -47 -85 -126 -37 -165 29 -24 131 -8 181 28 52 37 55 38 55 7 0 -36 27 -93 52 -110 34 -24 90 -20 122 8 41 34 80 108 99 187 l11 46 45 0 c36 0 49 5 69 28 20 24 23 35 18 73 -3 24 -14 57 -23 73 -16 27 -16 29 5 52 45 48 15 136 -52 153 -54 13 -150 -1 -209 -30 l-57 -29 -45 46 c-73 73 -157 106 -211 82z m348 -254 c34 -38 36 -78 7 -114 -43 -55 -155 -55 -198 0 -57 71 9 158 113 150 40 -4 55 -10 78 -36z" transform="translate(410,-410) scale(1,1)" stroke="none" fill="#A798B9"/>
</g>
<g id="pattern4" transform="matrix(1.618,0,0,1.618,1071,1071)matrix(0.87,0.5,-0.5,0.87,0,0)">
<path d="M385 519 c-44 -26 -65 -53 -65 -84 0 -70 79 -117 159 -95 79 21 104 94 53 151 -23 26 -38 32 -78 36 -27 2 -58 -2 -69 -8z" transform="translate(410,-410) scale(1,1)" stroke="none" fill="#B9CF64"/>
<path d="M184 745 c-38 -17 -50 -31 -58 -74 -9 -48 9 -104 46 -140 l31 -30 -27 -11 c-15 -5 -33 -10 -39 -10 -17 0 -79 -38 -94 -58 -18 -22 -16 -67 3 -83 18 -15 63 -17 117 -6 48 10 47 -3 -2 -37 -67 -47 -85 -126 -37 -165 29 -24 131 -8 181 28 52 37 55 38 55 7 0 -36 27 -93 52 -110 34 -24 90 -20 122 8 41 34 80 108 99 187 l11 46 45 0 c36 0 49 5 69 28 20 24 23 35 18 73 -3 24 -14 57 -23 73 -16 27 -16 29 5 52 45 48 15 136 -52 153 -54 13 -150 -1 -209 -30 l-57 -29 -45 46 c-73 73 -157 106 -211 82z m348 -254 c34 -38 36 -78 7 -114 -43 -55 -155 -55 -198 0 -57 71 9 158 113 150 40 -4 55 -10 78 -36z" transform="translate(410,-410) scale(1,1)" stroke="none" fill="#A798B9"/>
</g>
</g>
</g>

</g>
<g id="row1" transform="translate(0,939.0)">
<g id="0" transform="translate(0.0,0)scale(0.25,0.25)">

<g id="pattern">
<rect width="4069" height="4069" fill="#DDDEE6"/>
<g id="pattern1" transform="matrix(1,0,0,1,253,253)">
<path d="M385 519 c-44 -26 -65 -53 -65 -84 0 -70 79 -117 159 -95 79 21 104 94 53 151 -23 26 -38 32 -78 36 -27 2 -58 -2 -69 -8z" transform="translate(0.000000,0.000000) scale(1,1)" stroke="none" fill="#B9CF64"/>
<path d="M184 745 c-38 -17 -50 -31 -58 -74 -9 -48 9 -104 46 -140 l31 -30 -27 -11 c-15 -5 -33 -10 -39 -10 -17 0 -79 -38 -94 -58 -18 -22 -16 -67 3 -83 18 -15 63 -17 117 -6 48 10 47 -3 -2 -37 -67 -47 -85 -126 -37 -165 29 -24 131 -8 181 28 52 37 55 38 55 7 0 -36 27 -93 52 -110 34 -24 90 -20 122 8 41 34 80 108 99 187 l11 46 45 0 c36 0 49 5 69 28 20 24 23 35 18 73 -3 24 -14 57 -23 73 -16 27 -16 29 5 52 45 48 15 136 -52 153 -54 13 -150 -1 -209 -30 l-57 -29 -45 46 c-73 73 -157 106 -211 82z m348 -254 c34 -38 36 -78 7 -114 -43 -55 -155 -55 -198 0 -57 71 9 158 113 150 40 -4 55 -10 78 -36z" transform="translate(0.000000,0.000000) scale(1,1)" stroke="none" fill="#A798B9"/>
</g>
<g id="pattern2" transform="matrix(0.618,0,0,0.618,1928,566)">
<path d="M385 519 c-44 -26 -65 -53 -65 -84 0 -70 79 -117 159 -95 79 21 104 94 53 151 -23 26 -38 32 -78 36 -27 2 -58 -2 -69 -8z" transform="translate(2554,0.000000) scale(-1,1)" stroke="none" fill="#B9CF64"/>
<path d="M184 745 c-38 -17 -50 -31 -58 -74 -9 -48 9 -104 46 -140 l31 -30 -27 -11 c-15 -5 -33 -10 -39 -10 -17 0 -79 -38 -94 -58 -18 -22 -16 -67 3 -83 18 -15 63 -17 117 -6 48 10 47 -3 -2 -37 -67 -47 -85 -126 -37 -165 29 -24 131 -8 181 28 52 37 55 38 55 7 0 -36 27 -93 52 -110 34 -24 90 -20 122 8 41 34 80 108 99 187 l11 46 45 0 c36 0 49 5 69 28 20 24 23 35 18 73 -3 24 -14 57 -23 73 -16 27 -16 29 5 52 45 48 15 136 -52 153 -54 13 -150 -1 -209 -30 l-57 -29 -45 46 c-73 73 -157 106 -211 82z m348 -254 c34 -38 36 -78 7 -114 -43 -55 -155 -55 -198 0 -57 71 9 158 113 150 40 -4 55 -10 78 -36z" transform="translate(2554,0.000000) scale(-1,1)" stroke="none" fill="#A798B9"/>
</g>
<g id="pattern3" transform="matrix(0.618,0,0,0.618,723,2554)matrix(0.71,0.71,-0.71,0.71,0,0)">
<path d="M385 519 c-44 -26 -65 -53 -65 -84 0 -70 79 -117 159 -95 79 21 104 94 53 151 -23 26 -38 32 -78 36 -27 2 -58 -2 -69 -8z" transform="translate(410,-410) scale(1,1)" stroke="none" fill="#B9CF64"/>
<path d="M184 745 c-38 -17 -50 -31 -58 -74 -9 -48 9 -104 46 -140 l31 -30 -27 -11 c-15 -5 -33 -10 -39 -10 -17 0 -79 -38 -94 -58 -18 -22 -16 -67 3 -83 18 -15 63 -17 117 -6 48 10 47 -3 -2 -37 -67 -47 -85 -126 -37 -165 29 -24 131 -8 181 28 52 37 55 38 55 7 0 -36 27 -93 52 -110 34 -24 90 -20 122 8 41 34 80 108 99 187 l11 46 45 0 c36 0 49 5 69 28 20 24 23 35 18 73 -3 24 -14 57 -23 73 -16 27 -16 29 5 52 45 48 15 136 -52 153 -54 13 -150 -1 -209 -30 l-57 -29 -45 46 c-73 73 -157 106 -211 82z m348 -254 c34 -38 36 -78 7 -114 -43 -55 -155 -55 -198 0 -57 71 9 158 113 150 40 -4 55 -10 78 -36z" transform="translate(410,-410) scale(1,1)" stroke="none" fill="#A798B9"/>
</g>
<g id="pattern4" transform="matrix(1.618,0,0,1.618,1071,1071)matrix(0.87,0.5,-0.5,0.87,0,0)">
<path d="M385 519 c-44 -26 -65 -53 -65 -84 0 -70 79 -117 159 -95 79 21 104 94 53 151 -23 26 -38 32 -78 36 -27 2 -58 -2 -69 -8z" transform="translate(410,-410) scale(1,1)" stroke="none" fill="#B9CF64"/>
<path d="M184 745 c-38 -17 -50 -31 -58 -74 -9 -48 9 -104 46 -140 l31 -30 -27 -11 c-15 -5 -33 -10 -39 -10 -17 0 -79 -38 -94 -58 -18 -22 -16 -67 3 -83 18 -15 63 -17 117 -6 48 10 47 -3 -2 -37 -67 -47 -85 -126 -37 -165 29 -24 131 -8 181 28 52 37 55 38 55 7 0 -36 27 -93 52 -110 34 -24 90 -20 122 8 41 34 80 108 99 187 l11 46 45 0 c36 0 49 5 69 28 20 24 23 35 18 73 -3 24 -14 57 -23 73 -16 27 -16 29 5 52 45 48 15 136 -52 153 -54 13 -150 -1 -209 -30 l-57 -29 -45 46 c-73 73 -157 106 -211 82z m348 -254 c34 -38 36 -78 7 -114 -43 -55 -155 -55 -198 0 -57 71 9 158 113 150 40 -4 55 -10 78 -36z" transform="translate(410,-410) scale(1,1)" stroke="none" fill="#A798B9"/>
</g>
</g>
</g>

<g id="1" transform="translate(939.0,0)scale(0.25,0.25)">

<g id="pattern">
<rect width="4069" height="4069" fill="#DDDEE6"/>
<g id="pattern1" transform="matrix(1,0,0,1,253,253)">
<path d="M385 519 c-44 -26 -65 -53 -65 -84 0 -70 79 -117 159 -95 79 21 104 94 53 151 -23 26 -38 32 -78 36 -27 2 -58 -2 -69 -8z" transform="translate(0.000000,0.000000) scale(1,1)" stroke="none" fill="#B9CF64"/>
<path d="M184 745 c-38 -17 -50 -31 -58 -74 -9 -48 9 -104 46 -140 l31 -30 -27 -11 c-15 -5 -33 -10 -39 -10 -17 0 -79 -38 -94 -58 -18 -22 -16 -67 3 -83 18 -15 63 -17 117 -6 48 10 47 -3 -2 -37 -67 -47 -85 -126 -37 -165 29 -24 131 -8 181 28 52 37 55 38 55 7 0 -36 27 -93 52 -110 34 -24 90 -20 122 8 41 34 80 108 99 187 l11 46 45 0 c36 0 49 5 69 28 20 24 23 35 18 73 -3 24 -14 57 -23 73 -16 27 -16 29 5 52 45 48 15 136 -52 153 -54 13 -150 -1 -209 -30 l-57 -29 -45 46 c-73 73 -157 106 -211 82z m348 -254 c34 -38 36 -78 7 -114 -43 -55 -155 -55 -198 0 -57 71 9 158 113 150 40 -4 55 -10 78 -36z" transform="translate(0.000000,0.000000) scale(1,1)" stroke="none" fill="#A798B9"/>
</g>
<g id="pattern2" transform="matrix(0.618,0,0,0.618,1928,566)">
<path d="M385 519 c-44 -26 -65 -53 -65 -84 0 -70 79 -117 159 -95 79 21 104 94 53 151 -23 26 -38 32 -78 36 -27 2 -58 -2 -69 -8z" transform="translate(2554,0.000000) scale(-1,1)" stroke="none" fill="#B9CF64"/>
<path d="M184 745 c-38 -17 -50 -31 -58 -74 -9 -48 9 -104 46 -140 l31 -30 -27 -11 c-15 -5 -33 -10 -39 -10 -17 0 -79 -38 -94 -58 -18 -22 -16 -67 3 -83 18 -15 63 -17 117 -6 48 10 47 -3 -2 -37 -67 -47 -85 -126 -37 -165 29 -24 131 -8 181 28 52 37 55 38 55 7 0 -36 27 -93 52 -110 34 -24 90 -20 122 8 41 34 80 108 99 187 l11 46 45 0 c36 0 49 5 69 28 20 24 23 35 18 73 -3 24 -14 57 -23 73 -16 27 -16 29 5 52 45 48 15 136 -52 153 -54 13 -150 -1 -209 -30 l-57 -29 -45 46 c-73 73 -157 106 -211 82z m348 -254 c34 -38 36 -78 7 -114 -43 -55 -155 -55 -198 0 -57 71 9 158 113 150 40 -4 55 -10 78 -36z" transform="translate(2554,0.000000) scale(-1,1)" stroke="none" fill="#A798B9"/>
</g>
<g id="pattern3" transform="matrix(0.618,0,0,0.618,723,2554)matrix(0.71,0.71,-0.71,0.71,0,0)">
<path d="M385 519 c-44 -26 -65 -53 -65 -84 0 -70 79 -117 159 -95 79 21 104 94 53 151 -23 26 -38 32 -78 36 -27 2 -58 -2 -69 -8z" transform="translate(410,-410) scale(1,1)" stroke="none" fill="#B9CF64"/>
<path d="M184 745 c-38 -17 -50 -31 -58 -74 -9 -48 9 -104 46 -140 l31 -30 -27 -11 c-15 -5 -33 -10 -39 -10 -17 0 -79 -38 -94 -58 -18 -22 -16 -67 3 -83 18 -15 63 -17 117 -6 48 10 47 -3 -2 -37 -67 -47 -85 -126 -37 -165 29 -24 131 -8 181 28 52 37 55 38 55 7 0 -36 27 -93 52 -110 34 -24 90 -20 122 8 41 34 80 108 99 187 l11 46 45 0 c36 0 49 5 69 28 20 24 23 35 18 73 -3 24 -14 57 -23 73 -16 27 -16 29 5 52 45 48 15 136 -52 153 -54 13 -150 -1 -209 -30 l-57 -29 -45 46 c-73 73 -157 106 -211 82z m348 -254 c34 -38 36 -78 7 -114 -43 -55 -155 -55 -198 0 -57 71 9 158 113 150 40 -4 55 -10 78 -36z" transform="translate(410,-410) scale(1,1)" stroke="none" fill="#A798B9"/>
</g>
<g id="pattern4" transform="matrix(1.618,0,0,1.618,1071,1071)matrix(0.87,0.5,-0.5,0.87,0,0)">
<path d="M385 519 c-44 -26 -65 -53 -65 -84 0 -70 79 -117 159 -95 79 21 104 94 53 151 -23 26 -38 32 -78 36 -27 2 -58 -2 -69 -8z" transform="translate(410,-410) scale(1,1)" stroke="none" fill="#B9CF64"/>
<path d="M184 745 c-38 -17 -50 -31 -58 -74 -9 -48 9 -104 46 -140 l31 -30 -27 -11 c-15 -5 -33 -10 -39 -10 -17 0 -79 -38 -94 -58 -18 -22 -16 -67 3 -83 18 -15 63 -17 117 -6 48 10 47 -3 -2 -37 -67 -47 -85 -126 -37 -165 29 -24 131 -8 181 28 52 37 55 38 55 7 0 -36 27 -93 52 -110 34 -24 90 -20 122 8 41 34 80 108 99 187 l11 46 45 0 c36 0 49 5 69 28 20 24 23 35 18 73 -3 24 -14 57 -23 73 -16 27 -16 29 5 52 45 48 15 136 -52 153 -54 13 -150 -1 -209 -30 l-57 -29 -45 46 c-73 73 -157 106 -211 82z m348 -254 c34 -38 36 -78 7 -114 -43 -55 -155 -55 -198 0 -57 71 9 158 113 150 40 -4 55 -10 78 -36z" transform="translate(410,-410) scale(1,1)" stroke="none" fill="#A798B9"/>
</g>
</g>
</g>

<g id="2" transform="translate(1878.0,0)scale(0.25,0.25)">

<g id="pattern">
<rect width="4069" height="4069" fill="#DDDEE6"/>
<g id="pattern1" transform="matrix(1,0,0,1,253,253)">
<path d="M385 519 c-44 -26 -65 -53 -65 -84 0 -70 79 -117 159 -95 79 21 104 94 53 151 -23 26 -38 32 -78 36 -27 2 -58 -2 -69 -8z" transform="translate(0.000000,0.000000) scale(1,1)" stroke="none" fill="#B9CF64"/>
<path d="M184 745 c-38 -17 -50 -31 -58 -74 -9 -48 9 -104 46 -140 l31 -30 -27 -11 c-15 -5 -33 -10 -39 -10 -17 0 -79 -38 -94 -58 -18 -22 -16 -67 3 -83 18 -15 63 -17 117 -6 48 10 47 -3 -2 -37 -67 -47 -85 -126 -37 -165 29 -24 131 -8 181 28 52 37 55 38 55 7 0 -36 27 -93 52 -110 34 -24 90 -20 122 8 41 34 80 108 99 187 l11 46 45 0 c36 0 49 5 69 28 20 24 23 35 18 73 -3 24 -14 57 -23 73 -16 27 -16 29 5 52 45 48 15 136 -52 153 -54 13 -150 -1 -209 -30 l-57 -29 -45 46 c-73 73 -157 106 -211 82z m348 -254 c34 -38 36 -78 7 -114 -43 -55 -155 -55 -198 0 -57 71 9 158 113 150 40 -4 55 -10 78 -36z" transform="translate(0.000000,0.000000) scale(1,1)" stroke="none" fill="#A798B9"/>
</g>
<g id="pattern2" transform="matrix(0.618,0,0,0.618,1928,566)">
<path d="M385 519 c-44 -26 -65 -53 -65 -84 0 -70 79 -117 159 -95 79 21 104 94 53 151 -23 26 -38 32 -78 36 -27 2 -58 -2 -69 -8z" transform="translate(2554,0.000000) scale(-1,1)" stroke="none" fill="#B9CF64"/>
<path d="M184 745 c-38 -17 -50 -31 -58 -74 -9 -48 9 -104 46 -140 l31 -30 -27 -11 c-15 -5 -33 -10 -39 -10 -17 0 -79 -38 -94 -58 -18 -22 -16 -67 3 -83 18 -15 63 -17 117 -6 48 10 47 -3 -2 -37 -67 -47 -85 -126 -37 -165 29 -24 131 -8 181 28 52 37 55 38 55 7 0 -36 27 -93 52 -110 34 -24 90 -20 122 8 41 34 80 108 99 187 l11 46 45 0 c36 0 49 5 69 28 20 24 23 35 18 73 -3 24 -14 57 -23 73 -16 27 -16 29 5 52 45 48 15 136 -52 153 -54 13 -150 -1 -209 -30 l-57 -29 -45 46 c-73 73 -157 106 -211 82z m348 -254 c34 -38 36 -78 7 -114 -43 -55 -155 -55 -198 0 -57 71 9 158 113 150 40 -4 55 -10 78 -36z" transform="translate(2554,0.000000) scale(-1,1)" stroke="none" fill="#A798B9"/>
</g>
<g id="pattern3" transform="matrix(0.618,0,0,0.618,723,2554)matrix(0.71,0.71,-0.71,0.71,0,0)">
<path d="M385 519 c-44 -26 -65 -53 -65 -84 0 -70 79 -117 159 -95 79 21 104 94 53 151 -23 26 -38 32 -78 36 -27 2 -58 -2 -69 -8z" transform="translate(410,-410) scale(1,1)" stroke="none" fill="#B9CF64"/>
<path d="M184 745 c-38 -17 -50 -31 -58 -74 -9 -48 9 -104 46 -140 l31 -30 -27 -11 c-15 -5 -33 -10 -39 -10 -17 0 -79 -38 -94 -58 -18 -22 -16 -67 3 -83 18 -15 63 -17 117 -6 48 10 47 -3 -2 -37 -67 -47 -85 -126 -37 -165 29 -24 131 -8 181 28 52 37 55 38 55 7 0 -36 27 -93 52 -110 34 -24 90 -20 122 8 41 34 80 108 99 187 l11 46 45 0 c36 0 49 5 69 28 20 24 23 35 18 73 -3 24 -14 57 -23 73 -16 27 -16 29 5 52 45 48 15 136 -52 153 -54 13 -150 -1 -209 -30 l-57 -29 -45 46 c-73 73 -157 106 -211 82z m348 -254 c34 -38 36 -78 7 -114 -43 -55 -155 -55 -198 0 -57 71 9 158 113 150 40 -4 55 -10 78 -36z" transform="translate(410,-410) scale(1,1)" stroke="none" fill="#A798B9"/>
</g>
<g id="pattern4" transform="matrix(1.618,0,0,1.618,1071,1071)matrix(0.87,0.5,-0.5,0.87,0,0)">
<path d="M385 519 c-44 -26 -65 -53 -65 -84 0 -70 79 -117 159 -95 79 21 104 94 53 151 -23 26 -38 32 -78 36 -27 2 -58 -2 -69 -8z" transform="translate(410,-410) scale(1,1)" stroke="none" fill="#B9CF64"/>
<path d="M184 745 c-38 -17 -50 -31 -58 -74 -9 -48 9 -104 46 -140 l31 -30 -27 -11 c-15 -5 -33 -10 -39 -10 -17 0 -79 -38 -94 -58 -18 -22 -16 -67 3 -83 18 -15 63 -17 117 -6 48 10 47 -3 -2 -37 -67 -47 -85 -126 -37 -165 29 -24 131 -8 181 28 52 37 55 38 55 7 0 -36 27 -93 52 -110 34 -24 90 -20 122 8 41 34 80 108 99 187 l11 46 45 0 c36 0 49 5 69 28 20 24 23 35 18 73 -3 24 -14 57 -23 73 -16 27 -16 29 5 52 45 48 15 136 -52 153 -54 13 -150 -1 -209 -30 l-57 -29 -45 46 c-73 73 -157 106 -211 82z m348 -254 c34 -38 36 -78 7 -114 -43 -55 -155 -55 -198 0 -57 71 9 158 113 150 40 -4 55 -10 78 -36z" transform="translate(410,-410) scale(1,1)" stroke="none" fill="#A798B9"/>
</g>
</g>
</g>

<g id="3" transform="translate(2817.0,0)scale(0.25,0.25)">

<g id="pattern">
<rect width="4069" height="4069" fill="#DDDEE6"/>
<g id="pattern1" transform="matrix(1,0,0,1,253,253)">
<path d="M385 519 c-44 -26 -65 -53 -65 -84 0 -70 79 -117 159 -95 79 21 104 94 53 151 -23 26 -38 32 -78 36 -27 2 -58 -2 -69 -8z" transform="translate(0.000000,0.000000) scale(1,1)" stroke="none" fill="#B9CF64"/>
<path d="M184 745 c-38 -17 -50 -31 -58 -74 -9 -48 9 -104 46 -140 l31 -30 -27 -11 c-15 -5 -33 -10 -39 -10 -17 0 -79 -38 -94 -58 -18 -22 -16 -67 3 -83 18 -15 63 -17 117 -6 48 10 47 -3 -2 -37 -67 -47 -85 -126 -37 -165 29 -24 131 -8 181 28 52 37 55 38 55 7 0 -36 27 -93 52 -110 34 -24 90 -20 122 8 41 34 80 108 99 187 l11 46 45 0 c36 0 49 5 69 28 20 24 23 35 18 73 -3 24 -14 57 -23 73 -16 27 -16 29 5 52 45 48 15 136 -52 153 -54 13 -150 -1 -209 -30 l-57 -29 -45 46 c-73 73 -157 106 -211 82z m348 -254 c34 -38 36 -78 7 -114 -43 -55 -155 -55 -198 0 -57 71 9 158 113 150 40 -4 55 -10 78 -36z" transform="translate(0.000000,0.000000) scale(1,1)" stroke="none" fill="#A798B9"/>
</g>
<g id="pattern2" transform="matrix(0.618,0,0,0.618,1928,566)">
<path d="M385 519 c-44 -26 -65 -53 -65 -84 0 -70 79 -117 159 -95 79 21 104 94 53 151 -23 26 -38 32 -78 36 -27 2 -58 -2 -69 -8z" transform="translate(2554,0.000000) scale(-1,1)" stroke="none" fill="#B9CF64"/>
<path d="M184 745 c-38 -17 -50 -31 -58 -74 -9 -48 9 -104 46 -140 l31 -30 -27 -11 c-15 -5 -33 -10 -39 -10 -17 0 -79 -38 -94 -58 -18 -22 -16 -67 3 -83 18 -15 63 -17 117 -6 48 10 47 -3 -2 -37 -67 -47 -85 -126 -37 -165 29 -24 131 -8 181 28 52 37 55 38 55 7 0 -36 27 -93 52 -110 34 -24 90 -20 122 8 41 34 80 108 99 187 l11 46 45 0 c36 0 49 5 69 28 20 24 23 35 18 73 -3 24 -14 57 -23 73 -16 27 -16 29 5 52 45 48 15 136 -52 153 -54 13 -150 -1 -209 -30 l-57 -29 -45 46 c-73 73 -157 106 -211 82z m348 -254 c34 -38 36 -78 7 -114 -43 -55 -155 -55 -198 0 -57 71 9 158 113 150 40 -4 55 -10 78 -36z" transform="translate(2554,0.000000) scale(-1,1)" stroke="none" fill="#A798B9"/>
</g>
<g id="pattern3" transform="matrix(0.618,0,0,0.618,723,2554)matrix(0.71,0.71,-0.71,0.71,0,0)">
<path d="M385 519 c-44 -26 -65 -53 -65 -84 0 -70 79 -117 159 -95 79 21 104 94 53 151 -23 26 -38 32 -78 36 -27 2 -58 -2 -69 -8z" transform="translate(410,-410) scale(1,1)" stroke="none" fill="#B9CF64"/>
<path d="M184 745 c-38 -17 -50 -31 -58 -74 -9 -48 9 -104 46 -140 l31 -30 -27 -11 c-15 -5 -33 -10 -39 -10 -17 0 -79 -38 -94 -58 -18 -22 -16 -67 3 -83 18 -15 63 -17 117 -6 48 10 47 -3 -2 -37 -67 -47 -85 -126 -37 -165 29 -24 131 -8 181 28 52 37 55 38 55 7 0 -36 27 -93 52 -110 34 -24 90 -20 122 8 41 34 80 108 99 187 l11 46 45 0 c36 0 49 5 69 28 20 24 23 35 18 73 -3 24 -14 57 -23 73 -16 27 -16 29 5 52 45 48 15 136 -52 153 -54 13 -150 -1 -209 -30 l-57 -29 -45 46 c-73 73 -157 106 -211 82z m348 -254 c34 -38 36 -78 7 -114 -43 -55 -155 -55 -198 0 -57 71 9 158 113 150 40 -4 55 -10 78 -36z" transform="translate(410,-410) scale(1,1)" stroke="none" fill="#A798B9"/>
</g>
<g id="pattern4" transform="matrix(1.618,0,0,1.618,1071,1071)matrix(0.87,0.5,-0.5,0.87,0,0)">
<path d="M385 519 c-44 -26 -65 -53 -65 -84 0 -70 79 -117 159 -95 79 21 104 94 53 151 -23 26 -38 32 -78 36 -27 2 -58 -2 -69 -8z" transform="translate(410,-410) scale(1,1)" stroke="none" fill="#B9CF64"/>
<path d="M184 745 c-38 -17 -50 -31 -58 -74 -9 -48 9 -104 46 -140 l31 -30 -27 -11 c-15 -5 -33 -10 -39 -10 -17 0 -79 -38 -94 -58 -18 -22 -16 -67 3 -83 18 -15 63 -17 117 -6 48 10 47 -3 -2 -37 -67 -47 -85 -126 -37 -165 29 -24 131 -8 181 28 52 37 55 38 55 7 0 -36 27 -93 52 -110 34 -24 90 -20 122 8 41 34 80 108 99 187 l11 46 45 0 c36 0 49 5 69 28 20 24 23 35 18 73 -3 24 -14 57 -23 73 -16 27 -16 29 5 52 45 48 15 136 -52 153 -54 13 -150 -1 -209 -30 l-57 -29 -45 46 c-73 73 -157 106 -211 82z m348 -254 c34 -38 36 -78 7 -114 -43 -55 -155 -55 -198 0 -57 71 9 158 113 150 40 -4 55 -10 78 -36z" transform="translate(410,-410) scale(1,1)" stroke="none" fill="#A798B9"/>
</g>
</g>
</g>

<g id="4" transform="translate(3756.0,0)scale(0.25,0.25)">

<g id="pattern">
<rect width="4069" height="4069" fill="#DDDEE6"/>
<g id="pattern1" transform="matrix(1,0,0,1,253,253)">
<path d="M385 519 c-44 -26 -65 -53 -65 -84 0 -70 79 -117 159 -95 79 21 104 94 53 151 -23 26 -38 32 -78 36 -27 2 -58 -2 -69 -8z" transform="translate(0.000000,0.000000) scale(1,1)" stroke="none" fill="#B9CF64"/>
<path d="M184 745 c-38 -17 -50 -31 -58 -74 -9 -48 9 -104 46 -140 l31 -30 -27 -11 c-15 -5 -33 -10 -39 -10 -17 0 -79 -38 -94 -58 -18 -22 -16 -67 3 -83 18 -15 63 -17 117 -6 48 10 47 -3 -2 -37 -67 -47 -85 -126 -37 -165 29 -24 131 -8 181 28 52 37 55 38 55 7 0 -36 27 -93 52 -110 34 -24 90 -20 122 8 41 34 80 108 99 187 l11 46 45 0 c36 0 49 5 69 28 20 24 23 35 18 73 -3 24 -14 57 -23 73 -16 27 -16 29 5 52 45 48 15 136 -52 153 -54 13 -150 -1 -209 -30 l-57 -29 -45 46 c-73 73 -157 106 -211 82z m348 -254 c34 -38 36 -78 7 -114 -43 -55 -155 -55 -198 0 -57 71 9 158 113 150 40 -4 55 -10 78 -36z" transform="translate(0.000000,0.000000) scale(1,1)" stroke="none" fill="#A798B9"/>
</g>
<g id="pattern2" transform="matrix(0.618,0,0,0.618,1928,566)">
<path d="M385 519 c-44 -26 -65 -53 -65 -84 0 -70 79 -117 159 -95 79 21 104 94 53 151 -23 26 -38 32 -78 36 -27 2 -58 -2 -69 -8z" transform="translate(2554,0.000000) scale(-1,1)" stroke="none" fill="#B9CF64"/>
<path d="M184 745 c-38 -17 -50 -31 -58 -74 -9 -48 9 -104 46 -140 l31 -30 -27 -11 c-15 -5 -33 -10 -39 -10 -17 0 -79 -38 -94 -58 -18 -22 -16 -67 3 -83 18 -15 63 -17 117 -6 48 10 47 -3 -2 -37 -67 -47 -85 -126 -37 -165 29 -24 131 -8 181 28 52 37 55 38 55 7 0 -36 27 -93 52 -110 34 -24 90 -20 122 8 41 34 80 108 99 187 l11 46 45 0 c36 0 49 5 69 28 20 24 23 35 18 73 -3 24 -14 57 -23 73 -16 27 -16 29 5 52 45 48 15 136 -52 153 -54 13 -150 -1 -209 -30 l-57 -29 -45 46 c-73 73 -157 106 -211 82z m348 -254 c34 -38 36 -78 7 -114 -43 -55 -155 -55 -198 0 -57 71 9 158 113 150 40 -4 55 -10 78 -36z" transform="translate(2554,0.000000) scale(-1,1)" stroke="none" fill="#A798B9"/>
</g>
<g id="pattern3" transform="matrix(0.618,0,0,0.618,723,2554)matrix(0.71,0.71,-0.71,0.71,0,0)">
<path d="M385 519 c-44 -26 -65 -53 -65 -84 0 -70 79 -117 159 -95 79 21 104 94 53 151 -23 26 -38 32 -78 36 -27 2 -58 -2 -69 -8z" transform="translate(410,-410) scale(1,1)" stroke="none" fill="#B9CF64"/>
<path d="M184 745 c-38 -17 -50 -31 -58 -74 -9 -48 9 -104 46 -140 l31 -30 -27 -11 c-15 -5 -33 -10 -39 -10 -17 0 -79 -38 -94 -58 -18 -22 -16 -67 3 -83 18 -15 63 -17 117 -6 48 10 47 -3 -2 -37 -67 -47 -85 -126 -37 -165 29 -24 131 -8 181 28 52 37 55 38 55 7 0 -36 27 -93 52 -110 34 -24 90 -20 122 8 41 34 80 108 99 187 l11 46 45 0 c36 0 49 5 69 28 20 24 23 35 18 73 -3 24 -14 57 -23 73 -16 27 -16 29 5 52 45 48 15 136 -52 153 -54 13 -150 -1 -209 -30 l-57 -29 -45 46 c-73 73 -157 106 -211 82z m348 -254 c34 -38 36 -78 7 -114 -43 -55 -155 -55 -198 0 -57 71 9 158 113 150 40 -4 55 -10 78 -36z" transform="translate(410,-410) scale(1,1)" stroke="none" fill="#A798B9"/>
</g>
<g id="pattern4" transform="matrix(1.618,0,0,1.618,1071,1071)matrix(0.87,0.5,-0.5,0.87,0,0)">
<path d="M385 519 c-44 -26 -65 -53 -65 -84 0 -70 79 -117 159 -95 79 21 104 94 53 151 -23 26 -38 32 -78 36 -27 2 -58 -2 -69 -8z" transform="translate(410,-410) scale(1,1)" stroke="none" fill="#B9CF64"/>
<path d="M184 745 c-38 -17 -50 -31 -58 -74 -9 -48 9 -104 46 -140 l31 -30 -27 -11 c-15 -5 -33 -10 -39 -10 -17 0 -79 -38 -94 -58 -18 -22 -16 -67 3 -83 18 -15 63 -17 117 -6 48 10 47 -3 -2 -37 -67 -47 -85 -126 -37 -165 29 -24 131 -8 181 28 52 37 55 38 55 7 0 -36 27 -93 52 -110 34 -24 90 -20 122 8 41 34 80 108 99 187 l11 46 45 0 c36 0 49 5 69 28 20 24 23 35 18 73 -3 24 -14 57 -23 73 -16 27 -16 29 5 52 45 48 15 136 -52 153 -54 13 -150 -1 -209 -30 l-57 -29 -45 46 c-73 73 -157 106 -211 82z m348 -254 c34 -38 36 -78 7 -114 -43 -55 -155 -55 -198 0 -57 71 9 158 113 150 40 -4 55 -10 78 -36z" transform="translate(410,-410) scale(1,1)" stroke="none" fill="#A798B9"/>
</g>
</g>
</g>

</g>
<g id="row2" transform="translate(0,1878.0)">
<g id="0" transform="translate(0.0,0)scale(0.25,0.25)">

<g id="pattern">
<rect width="4069" height="4069" fill="#DDDEE6"/>
<g id="pattern1" transform="matrix(1,0,0,1,253,253)">
<path d="M385 519 c-44 -26 -65 -53 -65 -84 0 -70 79 -117 159 -95 79 21 104 94 53 151 -23 26 -38 32 -78 36 -27 2 -58 -2 -69 -8z" transform="translate(0.000000,0.000000) scale(1,1)" stroke="none" fill="#B9CF64"/>
<path d="M184 745 c-38 -17 -50 -31 -58 -74 -9 -48 9 -104 46 -140 l31 -30 -27 -11 c-15 -5 -33 -10 -39 -10 -17 0 -79 -38 -94 -58 -18 -22 -16 -67 3 -83 18 -15 63 -17 117 -6 48 10 47 -3 -2 -37 -67 -47 -85 -126 -37 -165 29 -24 131 -8 181 28 52 37 55 38 55 7 0 -36 27 -93 52 -110 34 -24 90 -20 122 8 41 34 80 108 99 187 l11 46 45 0 c36 0 49 5 69 28 20 24 23 35 18 73 -3 24 -14 57 -23 73 -16 27 -16 29 5 52 45 48 15 136 -52 153 -54 13 -150 -1 -209 -30 l-57 -29 -45 46 c-73 73 -157 106 -211 82z m348 -254 c34 -38 36 -78 7 -114 -43 -55 -155 -55 -198 0 -57 71 9 158 113 150 40 -4 55 -10 78 -36z" transform="translate(0.000000,0.000000) scale(1,1)" stroke="none" fill="#A798B9"/>
</g>
<g id="pattern2" transform="matrix(0.618,0,0,0.618,1928,566)">
<path d="M385 519 c-44 -26 -65 -53 -65 -84 0 -70 79 -117 159 -95 79 21 104 94 53 151 -23 26 -38 32 -78 36 -27 2 -58 -2 -69 -8z" transform="translate(2554,0.000000) scale(-1,1)" stroke="none" fill="#B9CF64"/>
<path d="M184 745 c-38 -17 -50 -31 -58 -74 -9 -48 9 -104 46 -140 l31 -30 -27 -11 c-15 -5 -33 -10 -39 -10 -17 0 -79 -38 -94 -58 -18 -22 -16 -67 3 -83 18 -15 63 -17 117 -6 48 10 47 -3 -2 -37 -67 -47 -85 -126 -37 -165 29 -24 131 -8 181 28 52 37 55 38 55 7 0 -36 27 -93 52 -110 34 -24 90 -20 122 8 41 34 80 108 99 187 l11 46 45 0 c36 0 49 5 69 28 20 24 23 35 18 73 -3 24 -14 57 -23 73 -16 27 -16 29 5 52 45 48 15 136 -52 153 -54 13 -150 -1 -209 -30 l-57 -29 -45 46 c-73 73 -157 106 -211 82z m348 -254 c34 -38 36 -78 7 -114 -43 -55 -155 -55 -198 0 -57 71 9 158 113 150 40 -4 55 -10 78 -36z" transform="translate(2554,0.000000) scale(-1,1)" stroke="none" fill="#A798B9"/>
</g>
<g id="pattern3" transform="matrix(0.618,0,0,0.618,723,2554)matrix(0.71,0.71,-0.71,0.71,0,0)">
<path d="M385 519 c-44 -26 -65 -53 -65 -84 0 -70 79 -117 159 -95 79 21 104 94 53 151 -23 26 -38 32 -78 36 -27 2 -58 -2 -69 -8z" transform="translate(410,-410) scale(1,1)" stroke="none" fill="#B9CF64"/>
<path d="M184 745 c-38 -17 -50 -31 -58 -74 -9 -48 9 -104 46 -140 l31 -30 -27 -11 c-15 -5 -33 -10 -39 -10 -17 0 -79 -38 -94 -58 -18 -22 -16 -67 3 -83 18 -15 63 -17 117 -6 48 10 47 -3 -2 -37 -67 -47 -85 -126 -37 -165 29 -24 131 -8 181 28 52 37 55 38 55 7 0 -36 27 -93 52 -110 34 -24 90 -20 122 8 41 34 80 108 99 187 l11 46 45 0 c36 0 49 5 69 28 20 24 23 35 18 73 -3 24 -14 57 -23 73 -16 27 -16 29 5 52 45 48 15 136 -52 153 -54 13 -150 -1 -209 -30 l-57 -29 -45 46 c-73 73 -157 106 -211 82z m348 -254 c34 -38 36 -78 7 -114 -43 -55 -155 -55 -198 0 -57 71 9 158 113 150 40 -4 55 -10 78 -36z" transform="translate(410,-410) scale(1,1)" stroke="none" fill="#A798B9"/>
</g>
<g id="pattern4" transform="matrix(1.618,0,0,1.618,1071,1071)matrix(0.87,0.5,-0.5,0.87,0,0)">
<path d="M385 519 c-44 -26 -65 -53 -65 -84 0 -70 79 -117 159 -95 79 21 104 94 53 151 -23 26 -38 32 -78 36 -27 2 -58 -2 -69 -8z" transform="translate(410,-410) scale(1,1)" stroke="none" fill="#B9CF64"/>
<path d="M184 745 c-38 -17 -50 -31 -58 -74 -9 -48 9 -104 46 -140 l31 -30 -27 -11 c-15 -5 -33 -10 -39 -10 -17 0 -79 -38 -94 -58 -18 -22 -16 -67 3 -83 18 -15 63 -17 117 -6 48 10 47 -3 -2 -37 -67 -47 -85 -126 -37 -165 29 -24 131 -8 181 28 52 37 55 38 55 7 0 -36 27 -93 52 -110 34 -24 90 -20 122 8 41 34 80 108 99 187 l11 46 45 0 c36 0 49 5 69 28 20 24 23 35 18 73 -3 24 -14 57 -23 73 -16 27 -16 29 5 52 45 48 15 136 -52 153 -54 13 -150 -1 -209 -30 l-57 -29 -45 46 c-73 73 -157 106 -211 82z m348 -254 c34 -38 36 -78 7 -114 -43 -55 -155 -55 -198 0 -57 71 9 158 113 150 40 -4 55 -10 78 -36z" transform="translate(410,-410) scale(1,1)" stroke="none" fill="#A798B9"/>
</g>
</g>
</g>

<g id="1" transform="translate(939.0,0)scale(0.25,0.25)">

<g id="pattern">
<rect width="4069" height="4069" fill="#DDDEE6"/>
<g id="pattern1" transform="matrix(1,0,0,1,253,253)">
<path d="M385 519 c-44 -26 -65 -53 -65 -84 0 -70 79 -117 159 -95 79 21 104 94 53 151 -23 26 -38 32 -78 36 -27 2 -58 -2 -69 -8z" transform="translate(0.000000,0.000000) scale(1,1)" stroke="none" fill="#B9CF64"/>
<path d="M184 745 c-38 -17 -50 -31 -58 -74 -9 -48 9 -104 46 -140 l31 -30 -27 -11 c-15 -5 -33 -10 -39 -10 -17 0 -79 -38 -94 -58 -18 -22 -16 -67 3 -83 18 -15 63 -17 117 -6 48 10 47 -3 -2 -37 -67 -47 -85 -126 -37 -165 29 -24 131 -8 181 28 52 37 55 38 55 7 0 -36 27 -93 52 -110 34 -24 90 -20 122 8 41 34 80 108 99 187 l11 46 45 0 c36 0 49 5 69 28 20 24 23 35 18 73 -3 24 -14 57 -23 73 -16 27 -16 29 5 52 45 48 15 136 -52 153 -54 13 -150 -1 -209 -30 l-57 -29 -45 46 c-73 73 -157 106 -211 82z m348 -254 c34 -38 36 -78 7 -114 -43 -55 -155 -55 -198 0 -57 71 9 158 113 150 40 -4 55 -10 78 -36z" transform="translate(0.000000,0.000000) scale(1,1)" stroke="none" fill="#A798B9"/>
</g>
<g id="pattern2" transform="matrix(0.618,0,0,0.618,1928,566)">
<path d="M385 519 c-44 -26 -65 -53 -65 -84 0 -70 79 -117 159 -95 79 21 104 94 53 151 -23 26 -38 32 -78 36 -27 2 -58 -2 -69 -8z" transform="translate(2554,0.000000) scale(-1,1)" stroke="none" fill="#B9CF64"/>
<path d="M184 745 c-38 -17 -50 -31 -58 -74 -9 -48 9 -104 46 -140 l31 -30 -27 -11 c-15 -5 -33 -10 -39 -10 -17 0 -79 -38 -94 -58 -18 -22 -16 -67 3 -83 18 -15 63 -17 117 -6 48 10 47 -3 -2 -37 -67 -47 -85 -126 -37 -165 29 -24 131 -8 181 28 52 37 55 38 55 7 0 -36 27 -93 52 -110 34 -24 90 -20 122 8 41 34 80 108 99 187 l11 46 45 0 c36 0 49 5 69 28 20 24 23 35 18 73 -3 24 -14 57 -23 73 -16 27 -16 29 5 52 45 48 15 136 -52 153 -54 13 -150 -1 -209 -30 l-57 -29 -45 46 c-73 73 -157 106 -211 82z m348 -254 c34 -38 36 -78 7 -114 -43 -55 -155 -55 -198 0 -57 71 9 158 113 150 40 -4 55 -10 78 -36z" transform="translate(2554,0.000000) scale(-1,1)" stroke="none" fill="#A798B9"/>
</g>
<g id="pattern3" transform="matrix(0.618,0,0,0.618,723,2554)matrix(0.71,0.71,-0.71,0.71,0,0)">
<path d="M385 519 c-44 -26 -65 -53 -65 -84 0 -70 79 -117 159 -95 79 21 104 94 53 151 -23 26 -38 32 -78 36 -27 2 -58 -2 -69 -8z" transform="translate(410,-410) scale(1,1)" stroke="none" fill="#B9CF64"/>
<path d="M184 745 c-38 -17 -50 -31 -58 -74 -9 -48 9 -104 46 -140 l31 -30 -27 -11 c-15 -5 -33 -10 -39 -10 -17 0 -79 -38 -94 -58 -18 -22 -16 -67 3 -83 18 -15 63 -17 117 -6 48 10 47 -3 -2 -37 -67 -47 -85 -126 -37 -165 29 -24 131 -8 181 28 52 37 55 38 55 7 0 -36 27 -93 52 -110 34 -24 90 -20 122 8 41 34 80 108 99 187 l11 46 45 0 c36 0 49 5 69 28 20 24 23 35 18 73 -3 24 -14 57 -23 73 -16 27 -16 29 5 52 45 48 15 136 -52 153 -54 13 -150 -1 -209 -30 l-57 -29 -45 46 c-73 73 -157 106 -211 82z m348 -254 c34 -38 36 -78 7 -114 -43 -55 -155 -55 -198 0 -57 71 9 158 113 150 40 -4 55 -10 78 -36z" transform="translate(410,-410) scale(1,1)" stroke="none" fill="#A798B9"/>
</g>
<g id="pattern4" transform="matrix(1.618,0,0,1.618,1071,1071)matrix(0.87,0.5,-0.5,0.87,0,0)">
<path d="M385 519 c-44 -26 -65 -53 -65 -84 0 -70 79 -117 159 -95 79 21 104 94 53 151 -23 26 -38 32 -78 36 -27 2 -58 -2 -69 -8z" transform="translate(410,-410) scale(1,1)" stroke="none" fill="#B9CF64"/>
<path d="M184 745 c-38 -17 -50 -31 -58 -74 -9 -48 9 -104 46 -140 l31 -30 -27 -11 c-15 -5 -33 -10 -39 -10 -17 0 -79 -38 -94 -58 -18 -22 -16 -67 3 -83 18 -15 63 -17 117 -6 48 10 47 -3 -2 -37 -67 -47 -85 -126 -37 -165 29 -24 131 -8 181 28 52 37 55 38 55 7 0 -36 27 -93 52 -110 34 -24 90 -20 122 8 41 34 80 108 99 187 l11 46 45 0 c36 0 49 5 69 28 20 24 23 35 18 73 -3 24 -14 57 -23 73 -16 27 -16 29 5 52 45 48 15 136 -52 153 -54 13 -150 -1 -209 -30 l-57 -29 -45 46 c-73 73 -157 106 -211 82z m348 -254 c34 -38 36 -78 7 -114 -43 -55 -155 -55 -198 0 -57 71 9 158 113 150 40 -4 55 -10 78 -36z" transform="translate(410,-410) scale(1,1)" stroke="none" fill="#A798B9"/>
</g>
</g>
</g>

<g id="2" transform="translate(1878.0,0)scale(0.25,0.25)">

<g id="pattern">
<rect width="4069" height="4069" fill="#DDDEE6"/>
<g id="pattern1" transform="matrix(1,0,0,1,253,253)">
<path d="M385 519 c-44 -26 -65 -53 -65 -84 0 -70 79 -117 159 -95 79 21 104 94 53 151 -23 26 -38 32 -78 36 -27 2 -58 -2 -69 -8z" transform="translate(0.000000,0.000000) scale(1,1)" stroke="none" fill="#B9CF64"/>
<path d="M184 745 c-38 -17 -50 -31 -58 -74 -9 -48 9 -104 46 -140 l31 -30 -27 -11 c-15 -5 -33 -10 -39 -10 -17 0 -79 -38 -94 -58 -18 -22 -16 -67 3 -83 18 -15 63 -17 117 -6 48 10 47 -3 -2 -37 -67 -47 -85 -126 -37 -165 29 -24 131 -8 181 28 52 37 55 38 55 7 0 -36 27 -93 52 -110 34 -24 90 -20 122 8 41 34 80 108 99 187 l11 46 45 0 c36 0 49 5 69 28 20 24 23 35 18 73 -3 24 -14 57 -23 73 -16 27 -16 29 5 52 45 48 15 136 -52 153 -54 13 -150 -1 -209 -30 l-57 -29 -45 46 c-73 73 -157 106 -211 82z m348 -254 c34 -38 36 -78 7 -114 -43 -55 -155 -55 -198 0 -57 71 9 158 113 150 40 -4 55 -10 78 -36z" transform="translate(0.000000,0.000000) scale(1,1)" stroke="none" fill="#A798B9"/>
</g>
<g id="pattern2" transform="matrix(0.618,0,0,0.618,1928,566)">
<path d="M385 519 c-44 -26 -65 -53 -65 -84 0 -70 79 -117 159 -95 79 21 104 94 53 151 -23 26 -38 32 -78 36 -27 2 -58 -2 -69 -8z" transform="translate(2554,0.000000) scale(-1,1)" stroke="none" fill="#B9CF64"/>
<path d="M184 745 c-38 -17 -50 -31 -58 -74 -9 -48 9 -104 46 -140 l31 -30 -27 -11 c-15 -5 -33 -10 -39 -10 -17 0 -79 -38 -94 -58 -18 -22 -16 -67 3 -83 18 -15 63 -17 117 -6 48 10 47 -3 -2 -37 -67 -47 -85 -126 -37 -165 29 -24 131 -8 181 28 52 37 55 38 55 7 0 -36 27 -93 52 -110 34 -24 90 -20 122 8 41 34 80 108 99 187 l11 46 45 0 c36 0 49 5 69 28 20 24 23 35 18 73 -3 24 -14 57 -23 73 -16 27 -16 29 5 52 45 48 15 136 -52 153 -54 13 -150 -1 -209 -30 l-57 -29 -45 46 c-73 73 -157 106 -211 82z m348 -254 c34 -38 36 -78 7 -114 -43 -55 -155 -55 -198 0 -57 71 9 158 113 150 40 -4 55 -10 78 -36z" transform="translate(2554,0.000000) scale(-1,1)" stroke="none" fill="#A798B9"/>
</g>
<g id="pattern3" transform="matrix(0.618,0,0,0.618,723,2554)matrix(0.71,0.71,-0.71,0.71,0,0)">
<path d="M385 519 c-44 -26 -65 -53 -65 -84 0 -70 79 -117 159 -95 79 21 104 94 53 151 -23 26 -38 32 -78 36 -27 2 -58 -2 -69 -8z" transform="translate(410,-410) scale(1,1)" stroke="none" fill="#B9CF64"/>
<path d="M184 745 c-38 -17 -50 -31 -58 -74 -9 -48 9 -104 46 -140 l31 -30 -27 -11 c-15 -5 -33 -10 -39 -10 -17 0 -79 -38 -94 -58 -18 -22 -16 -67 3 -83 18 -15 63 -17 117 -6 48 10 47 -3 -2 -37 -67 -47 -85 -126 -37 -165 29 -24 131 -8 181 28 52 37 55 38 55 7 0 -36 27 -93 52 -110 34 -24 90 -20 122 8 41 34 80 108 99 187 l11 46 45 0 c36 0 49 5 69 28 20 24 23 35 18 73 -3 24 -14 57 -23 73 -16 27 -16 29 5 52 45 48 15 136 -52 153 -54 13 -150 -1 -209 -30 l-57 -29 -45 46 c-73 73 -157 106 -211 82z m348 -254 c34 -38 36 -78 7 -114 -43 -55 -155 -55 -198 0 -57 71 9 158 113 150 40 -4 55 -10 78 -36z" transform="translate(410,-410) scale(1,1)" stroke="none" fill="#A798B9"/>
</g>
<g id="pattern4" transform="matrix(1.618,0,0,1.618,1071,1071)matrix(0.87,0.5,-0.5,0.87,0,0)">
<path d="M385 519 c-44 -26 -65 -53 -65 -84 0 -70 79 -117 159 -95 79 21 104 94 53 151 -23 26 -38 32 -78 36 -27 2 -58 -2 -69 -8z" transform="translate(410,-410) scale(1,1)" stroke="none" fill="#B9CF64"/>
<path d="M184 745 c-38 -17 -50 -31 -58 -74 -9 -48 9 -104 46 -140 l31 -30 -27 -11 c-15 -5 -33 -10 -39 -10 -17 0 -79 -38 -94 -58 -18 -22 -16 -67 3 -83 18 -15 63 -17 117 -6 48 10 47 -3 -2 -37 -67 -47 -85 -126 -37 -165 29 -24 131 -8 181 28 52 37 55 38 55 7 0 -36 27 -93 52 -110 34 -24 90 -20 122 8 41 34 80 108 99 187 l11 46 45 0 c36 0 49 5 69 28 20 24 23 35 18 73 -3 24 -14 57 -23 73 -16 27 -16 29 5 52 45 48 15 136 -52 153 -54 13 -150 -1 -209 -30 l-57 -29 -45 46 c-73 73 -157 106 -211 82z m348 -254 c34 -38 36 -78 7 -114 -43 -55 -155 -55 -198 0 -57 71 9 158 113 150 40 -4 55 -10 78 -36z" transform="translate(410,-410) scale(1,1)" stroke="none" fill="#A798B9"/>
</g>
</g>
</g>

<g id="3" transform="translate(2817.0,0)scale(0.25,0.25)">

<g id="pattern">
<rect width="4069" height="4069" fill="#DDDEE6"/>
<g id="pattern1" transform="matrix(1,0,0,1,253,253)">
<path d="M385 519 c-44 -26 -65 -53 -65 -84 0 -70 79 -117 159 -95 79 21 104 94 53 151 -23 26 -38 32 -78 36 -27 2 -58 -2 -69 -8z" transform="translate(0.000000,0.000000) scale(1,1)" stroke="none" fill="#B9CF64"/>
<path d="M184 745 c-38 -17 -50 -31 -58 -74 -9 -48 9 -104 46 -140 l31 -30 -27 -11 c-15 -5 -33 -10 -39 -10 -17 0 -79 -38 -94 -58 -18 -22 -16 -67 3 -83 18 -15 63 -17 117 -6 48 10 47 -3 -2 -37 -67 -47 -85 -126 -37 -165 29 -24 131 -8 181 28 52 37 55 38 55 7 0 -36 27 -93 52 -110 34 -24 90 -20 122 8 41 34 80 108 99 187 l11 46 45 0 c36 0 49 5 69 28 20 24 23 35 18 73 -3 24 -14 57 -23 73 -16 27 -16 29 5 52 45 48 15 136 -52 153 -54 13 -150 -1 -209 -30 l-57 -29 -45 46 c-73 73 -157 106 -211 82z m348 -254 c34 -38 36 -78 7 -114 -43 -55 -155 -55 -198 0 -57 71 9 158 113 150 40 -4 55 -10 78 -36z" transform="translate(0.000000,0.000000) scale(1,1)" stroke="none" fill="#A798B9"/>
</g>
<g id="pattern2" transform="matrix(0.618,0,0,0.618,1928,566)">
<path d="M385 519 c-44 -26 -65 -53 -65 -84 0 -70 79 -117 159 -95 79 21 104 94 53 151 -23 26 -38 32 -78 36 -27 2 -58 -2 -69 -8z" transform="translate(2554,0.000000) scale(-1,1)" stroke="none" fill="#B9CF64"/>
<path d="M184 745 c-38 -17 -50 -31 -58 -74 -9 -48 9 -104 46 -140 l31 -30 -27 -11 c-15 -5 -33 -10 -39 -10 -17 0 -79 -38 -94 -58 -18 -22 -16 -67 3 -83 18 -15 63 -17 117 -6 48 10 47 -3 -2 -37 -67 -47 -85 -126 -37 -165 29 -24 131 -8 181 28 52 37 55 38 55 7 0 -36 27 -93 52 -110 34 -24 90 -20 122 8 41 34 80 108 99 187 l11 46 45 0 c36 0 49 5 69 28 20 24 23 35 18 73 -3 24 -14 57 -23 73 -16 27 -16 29 5 52 45 48 15 136 -52 153 -54 13 -150 -1 -209 -30 l-57 -29 -45 46 c-73 73 -157 106 -211 82z m348 -254 c34 -38 36 -78 7 -114 -43 -55 -155 -55 -198 0 -57 71 9 158 113 150 40 -4 55 -10 78 -36z" transform="translate(2554,0.000000) scale(-1,1)" stroke="none" fill="#A798B9"/>
</g>
<g id="pattern3" transform="matrix(0.618,0,0,0.618,723,2554)matrix(0.71,0.71,-0.71,0.71,0,0)">
<path d="M385 519 c-44 -26 -65 -53 -65 -84 0 -70 79 -117 159 -95 79 21 104 94 53 151 -23 26 -38 32 -78 36 -27 2 -58 -2 -69 -8z" transform="translate(410,-410) scale(1,1)" stroke="none" fill="#B9CF64"/>
<path d="M184 745 c-38 -17 -50 -31 -58 -74 -9 -48 9 -104 46 -140 l31 -30 -27 -11 c-15 -5 -33 -10 -39 -10 -17 0 -79 -38 -94 -58 -18 -22 -16 -67 3 -83 18 -15 63 -17 117 -6 48 10 47 -3 -2 -37 -67 -47 -85 -126 -37 -165 29 -24 131 -8 181 28 52 37 55 38 55 7 0 -36 27 -93 52 -110 34 -24 90 -20 122 8 41 34 80 108 99 187 l11 46 45 0 c36 0 49 5 69 28 20 24 23 35 18 73 -3 24 -14 57 -23 73 -16 27 -16 29 5 52 45 48 15 136 -52 153 -54 13 -150 -1 -209 -30 l-57 -29 -45 46 c-73 73 -157 106 -211 82z m348 -254 c34 -38 36 -78 7 -114 -43 -55 -155 -55 -198 0 -57 71 9 158 113 150 40 -4 55 -10 78 -36z" transform="translate(410,-410) scale(1,1)" stroke="none" fill="#A798B9"/>
</g>
<g id="pattern4" transform="matrix(1.618,0,0,1.618,1071,1071)matrix(0.87,0.5,-0.5,0.87,0,0)">
<path d="M385 519 c-44 -26 -65 -53 -65 -84 0 -70 79 -117 159 -95 79 21 104 94 53 151 -23 26 -38 32 -78 36 -27 2 -58 -2 -69 -8z" transform="translate(410,-410) scale(1,1)" stroke="none" fill="#B9CF64"/>
<path d="M184 745 c-38 -17 -50 -31 -58 -74 -9 -48 9 -104 46 -140 l31 -30 -27 -11 c-15 -5 -33 -10 -39 -10 -17 0 -79 -38 -94 -58 -18 -22 -16 -67 3 -83 18 -15 63 -17 117 -6 48 10 47 -3 -2 -37 -67 -47 -85 -126 -37 -165 29 -24 131 -8 181 28 52 37 55 38 55 7 0 -36 27 -93 52 -110 34 -24 90 -20 122 8 41 34 80 108 99 187 l11 46 45 0 c36 0 49 5 69 28 20 24 23 35 18 73 -3 24 -14 57 -23 73 -16 27 -16 29 5 52 45 48 15 136 -52 153 -54 13 -150 -1 -209 -30 l-57 -29 -45 46 c-73 73 -157 106 -211 82z m348 -254 c34 -38 36 -78 7 -114 -43 -55 -155 -55 -198 0 -57 71 9 158 113 150 40 -4 55 -10 78 -36z" transform="translate(410,-410) scale(1,1)" stroke="none" fill="#A798B9"/>
</g>
</g>
</g>

<g id="4" transform="translate(3756.0,0)scale(0.25,0.25)">

<g id="pattern">
<rect width="4069" height="4069" fill="#DDDEE6"/>
<g id="pattern1" transform="matrix(1,0,0,1,253,253)">
<path d="M385 519 c-44 -26 -65 -53 -65 -84 0 -70 79 -117 159 -95 79 21 104 94 53 151 -23 26 -38 32 -78 36 -27 2 -58 -2 -69 -8z" transform="translate(0.000000,0.000000) scale(1,1)" stroke="none" fill="#B9CF64"/>
<path d="M184 745 c-38 -17 -50 -31 -58 -74 -9 -48 9 -104 46 -140 l31 -30 -27 -11 c-15 -5 -33 -10 -39 -10 -17 0 -79 -38 -94 -58 -18 -22 -16 -67 3 -83 18 -15 63 -17 117 -6 48 10 47 -3 -2 -37 -67 -47 -85 -126 -37 -165 29 -24 131 -8 181 28 52 37 55 38 55 7 0 -36 27 -93 52 -110 34 -24 90 -20 122 8 41 34 80 108 99 187 l11 46 45 0 c36 0 49 5 69 28 20 24 23 35 18 73 -3 24 -14 57 -23 73 -16 27 -16 29 5 52 45 48 15 136 -52 153 -54 13 -150 -1 -209 -30 l-57 -29 -45 46 c-73 73 -157 106 -211 82z m348 -254 c34 -38 36 -78 7 -114 -43 -55 -155 -55 -198 0 -57 71 9 158 113 150 40 -4 55 -10 78 -36z" transform="translate(0.000000,0.000000) scale(1,1)" stroke="none" fill="#A798B9"/>
</g>
<g id="pattern2" transform="matrix(0.618,0,0,0.618,1928,566)">
<path d="M385 519 c-44 -26 -65 -53 -65 -84 0 -70 79 -117 159 -95 79 21 104 94 53 151 -23 26 -38 32 -78 36 -27 2 -58 -2 -69 -8z" transform="translate(2554,0.000000) scale(-1,1)" stroke="none" fill="#B9CF64"/>
<path d="M184 745 c-38 -17 -50 -31 -58 -74 -9 -48 9 -104 46 -140 l31 -30 -27 -11 c-15 -5 -33 -10 -39 -10 -17 0 -79 -38 -94 -58 -18 -22 -16 -67 3 -83 18 -15 63 -17 117 -6 48 10 47 -3 -2 -37 -67 -47 -85 -126 -37 -165 29 -24 131 -8 181 28 52 37 55 38 55 7 0 -36 27 -93 52 -110 34 -24 90 -20 122 8 41 34 80 108 99 187 l11 46 45 0 c36 0 49 5 69 28 20 24 23 35 18 73 -3 24 -14 57 -23 73 -16 27 -16 29 5 52 45 48 15 136 -52 153 -54 13 -150 -1 -209 -30 l-57 -29 -45 46 c-73 73 -157 106 -211 82z m348 -254 c34 -38 36 -78 7 -114 -43 -55 -155 -55 -198 0 -57 71 9 158 113 150 40 -4 55 -10 78 -36z" transform="translate(2554,0.000000) scale(-1,1)" stroke="none" fill="#A798B9"/>
</g>
<g id="pattern3" transform="matrix(0.618,0,0,0.618,723,2554)matrix(0.71,0.71,-0.71,0.71,0,0)">
<path d="M385 519 c-44 -26 -65 -53 -65 -84 0 -70 79 -117 159 -95 79 21 104 94 53 151 -23 26 -38 32 -78 36 -27 2 -58 -2 -69 -8z" transform="translate(410,-410) scale(1,1)" stroke="none" fill="#B9CF64"/>
<path d="M184 745 c-38 -17 -50 -31 -58 -74 -9 -48 9 -104 46 -140 l31 -30 -27 -11 c-15 -5 -33 -10 -39 -10 -17 0 -79 -38 -94 -58 -18 -22 -16 -67 3 -83 18 -15 63 -17 117 -6 48 10 47 -3 -2 -37 -67 -47 -85 -126 -37 -165 29 -24 131 -8 181 28 52 37 55 38 55 7 0 -36 27 -93 52 -110 34 -24 90 -20 122 8 41 34 80 108 99 187 l11 46 45 0 c36 0 49 5 69 28 20 24 23 35 18 73 -3 24 -14 57 -23 73 -16 27 -16 29 5 52 45 48 15 136 -52 153 -54 13 -150 -1 -209 -30 l-57 -29 -45 46 c-73 73 -157 106 -211 82z m348 -254 c34 -38 36 -78 7 -114 -43 -55 -155 -55 -198 0 -57 71 9 158 113 150 40 -4 55 -10 78 -36z" transform="translate(410,-410) scale(1,1)" stroke="none" fill="#A798B9"/>
</g>
<g id="pattern4" transform="matrix(1.618,0,0,1.618,1071,1071)matrix(0.87,0.5,-0.5,0.87,0,0)">
<path d="M385 519 c-44 -26 -65 -53 -65 -84 0 -70 79 -117 159 -95 79 21 104 94 53 151 -23 26 -38 32 -78 36 -27 2 -58 -2 -69 -8z" transform="translate(410,-410) scale(1,1)" stroke="none" fill="#B9CF64"/>
<path d="M184 745 c-38 -17 -50 -31 -58 -74 -9 -48 9 -104 46 -140 l31 -30 -27 -11 c-15 -5 -33 -10 -39 -10 -17 0 -79 -38 -94 -58 -18 -22 -16 -67 3 -83 18 -15 63 -17 117 -6 48 10 47 -3 -2 -37 -67 -47 -85 -126 -37 -165 29 -24 131 -8 181 28 52 37 55 38 55 7 0 -36 27 -93 52 -110 34 -24 90 -20 122 8 41 34 80 108 99 187 l11 46 45 0 c36 0 49 5 69 28 20 24 23 35 18 73 -3 24 -14 57 -23 73 -16 27 -16 29 5 52 45 48 15 136 -52 153 -54 13 -150 -1 -209 -30 l-57 -29 -45 46 c-73 73 -157 106 -211 82z m348 -254 c34 -38 36 -78 7 -114 -43 -55 -155 -55 -198 0 -57 71 9 158 113 150 40 -4 55 -10 78 -36z" transform="translate(410,-410) scale(1,1)" stroke="none" fill="#A798B9"/>
</g>
</g>
</g>

</g>
<g id="row3" transform="translate(0,2817.0)">
<g id="0" transform="translate(0.0,0)scale(0.25,0.25)">

<g id="pattern">
<rect width="4069" height="4069" fill="#DDDEE6"/>
<g id="pattern1" transform="matrix(1,0,0,1,253,253)">
<path d="M385 519 c-44 -26 -65 -53 -65 -84 0 -70 79 -117 159 -95 79 21 104 94 53 151 -23 26 -38 32 -78 36 -27 2 -58 -2 -69 -8z" transform="translate(0.000000,0.000000) scale(1,1)" stroke="none" fill="#B9CF64"/>
<path d="M184 745 c-38 -17 -50 -31 -58 -74 -9 -48 9 -104 46 -140 l31 -30 -27 -11 c-15 -5 -33 -10 -39 -10 -17 0 -79 -38 -94 -58 -18 -22 -16 -67 3 -83 18 -15 63 -17 117 -6 48 10 47 -3 -2 -37 -67 -47 -85 -126 -37 -165 29 -24 131 -8 181 28 52 37 55 38 55 7 0 -36 27 -93 52 -110 34 -24 90 -20 122 8 41 34 80 108 99 187 l11 46 45 0 c36 0 49 5 69 28 20 24 23 35 18 73 -3 24 -14 57 -23 73 -16 27 -16 29 5 52 45 48 15 136 -52 153 -54 13 -150 -1 -209 -30 l-57 -29 -45 46 c-73 73 -157 106 -211 82z m348 -254 c34 -38 36 -78 7 -114 -43 -55 -155 -55 -198 0 -57 71 9 158 113 150 40 -4 55 -10 78 -36z" transform="translate(0.000000,0.000000) scale(1,1)" stroke="none" fill="#A798B9"/>
</g>
<g id="pattern2" transform="matrix(0.618,0,0,0.618,1928,566)">
<path d="M385 519 c-44 -26 -65 -53 -65 -84 0 -70 79 -117 159 -95 79 21 104 94 53 151 -23 26 -38 32 -78 36 -27 2 -58 -2 -69 -8z" transform="translate(2554,0.000000) scale(-1,1)" stroke="none" fill="#B9CF64"/>
<path d="M184 745 c-38 -17 -50 -31 -58 -74 -9 -48 9 -104 46 -140 l31 -30 -27 -11 c-15 -5 -33 -10 -39 -10 -17 0 -79 -38 -94 -58 -18 -22 -16 -67 3 -83 18 -15 63 -17 117 -6 48 10 47 -3 -2 -37 -67 -47 -85 -126 -37 -165 29 -24 131 -8 181 28 52 37 55 38 55 7 0 -36 27 -93 52 -110 34 -24 90 -20 122 8 41 34 80 108 99 187 l11 46 45 0 c36 0 49 5 69 28 20 24 23 35 18 73 -3 24 -14 57 -23 73 -16 27 -16 29 5 52 45 48 15 136 -52 153 -54 13 -150 -1 -209 -30 l-57 -29 -45 46 c-73 73 -157 106 -211 82z m348 -254 c34 -38 36 -78 7 -114 -43 -55 -155 -55 -198 0 -57 71 9 158 113 150 40 -4 55 -10 78 -36z" transform="translate(2554,0.000000) scale(-1,1)" stroke="none" fill="#A798B9"/>
</g>
<g id="pattern3" transform="matrix(0.618,0,0,0.618,723,2554)matrix(0.71,0.71,-0.71,0.71,0,0)">
<path d="M385 519 c-44 -26 -65 -53 -65 -84 0 -70 79 -117 159 -95 79 21 104 94 53 151 -23 26 -38 32 -78 36 -27 2 -58 -2 -69 -8z" transform="translate(410,-410) scale(1,1)" stroke="none" fill="#B9CF64"/>
<path d="M184 745 c-38 -17 -50 -31 -58 -74 -9 -48 9 -104 46 -140 l31 -30 -27 -11 c-15 -5 -33 -10 -39 -10 -17 0 -79 -38 -94 -58 -18 -22 -16 -67 3 -83 18 -15 63 -17 117 -6 48 10 47 -3 -2 -37 -67 -47 -85 -126 -37 -165 29 -24 131 -8 181 28 52 37 55 38 55 7 0 -36 27 -93 52 -110 34 -24 90 -20 122 8 41 34 80 108 99 187 l11 46 45 0 c36 0 49 5 69 28 20 24 23 35 18 73 -3 24 -14 57 -23 73 -16 27 -16 29 5 52 45 48 15 136 -52 153 -54 13 -150 -1 -209 -30 l-57 -29 -45 46 c-73 73 -157 106 -211 82z m348 -254 c34 -38 36 -78 7 -114 -43 -55 -155 -55 -198 0 -57 71 9 158 113 150 40 -4 55 -10 78 -36z" transform="translate(410,-410) scale(1,1)" stroke="none" fill="#A798B9"/>
</g>
<g id="pattern4" transform="matrix(1.618,0,0,1.618,1071,1071)matrix(0.87,0.5,-0.5,0.87,0,0)">
<path d="M385 519 c-44 -26 -65 -53 -65 -84 0 -70 79 -117 159 -95 79 21 104 94 53 151 -23 26 -38 32 -78 36 -27 2 -58 -2 -69 -8z" transform="translate(410,-410) scale(1,1)" stroke="none" fill="#B9CF64"/>
<path d="M184 745 c-38 -17 -50 -31 -58 -74 -9 -48 9 -104 46 -140 l31 -30 -27 -11 c-15 -5 -33 -10 -39 -10 -17 0 -79 -38 -94 -58 -18 -22 -16 -67 3 -83 18 -15 63 -17 117 -6 48 10 47 -3 -2 -37 -67 -47 -85 -126 -37 -165 29 -24 131 -8 181 28 52 37 55 38 55 7 0 -36 27 -93 52 -110 34 -24 90 -20 122 8 41 34 80 108 99 187 l11 46 45 0 c36 0 49 5 69 28 20 24 23 35 18 73 -3 24 -14 57 -23 73 -16 27 -16 29 5 52 45 48 15 136 -52 153 -54 13 -150 -1 -209 -30 l-57 -29 -45 46 c-73 73 -157 106 -211 82z m348 -254 c34 -38 36 -78 7 -114 -43 -55 -155 -55 -198 0 -57 71 9 158 113 150 40 -4 55 -10 78 -36z" transform="translate(410,-410) scale(1,1)" stroke="none" fill="#A798B9"/>
</g>
</g>
</g>

<g id="1" transform="translate(939.0,0)scale(0.25,0.25)">

<g id="pattern">
<rect width="4069" height="4069" fill="#DDDEE6"/>
<g id="pattern1" transform="matrix(1,0,0,1,253,253)">
<path d="M385 519 c-44 -26 -65 -53 -65 -84 0 -70 79 -117 159 -95 79 21 104 94 53 151 -23 26 -38 32 -78 36 -27 2 -58 -2 -69 -8z" transform="translate(0.000000,0.000000) scale(1,1)" stroke="none" fill="#B9CF64"/>
<path d="M184 745 c-38 -17 -50 -31 -58 -74 -9 -48 9 -104 46 -140 l31 -30 -27 -11 c-15 -5 -33 -10 -39 -10 -17 0 -79 -38 -94 -58 -18 -22 -16 -67 3 -83 18 -15 63 -17 117 -6 48 10 47 -3 -2 -37 -67 -47 -85 -126 -37 -165 29 -24 131 -8 181 28 52 37 55 38 55 7 0 -36 27 -93 52 -110 34 -24 90 -20 122 8 41 34 80 108 99 187 l11 46 45 0 c36 0 49 5 69 28 20 24 23 35 18 73 -3 24 -14 57 -23 73 -16 27 -16 29 5 52 45 48 15 136 -52 153 -54 13 -150 -1 -209 -30 l-57 -29 -45 46 c-73 73 -157 106 -211 82z m348 -254 c34 -38 36 -78 7 -114 -43 -55 -155 -55 -198 0 -57 71 9 158 113 150 40 -4 55 -10 78 -36z" transform="translate(0.000000,0.000000) scale(1,1)" stroke="none" fill="#A798B9"/>
</g>
<g id="pattern2" transform="matrix(0.618,0,0,0.618,1928,566)">
<path d="M385 519 c-44 -26 -65 -53 -65 -84 0 -70 79 -117 159 -95 79 21 104 94 53 151 -23 26 -38 32 -78 36 -27 2 -58 -2 -69 -8z" transform="translate(2554,0.000000) scale(-1,1)" stroke="none" fill="#B9CF64"/>
<path d="M184 745 c-38 -17 -50 -31 -58 -74 -9 -48 9 -104 46 -140 l31 -30 -27 -11 c-15 -5 -33 -10 -39 -10 -17 0 -79 -38 -94 -58 -18 -22 -16 -67 3 -83 18 -15 63 -17 117 -6 48 10 47 -3 -2 -37 -67 -47 -85 -126 -37 -165 29 -24 131 -8 181 28 52 37 55 38 55 7 0 -36 27 -93 52 -110 34 -24 90 -20 122 8 41 34 80 108 99 187 l11 46 45 0 c36 0 49 5 69 28 20 24 23 35 18 73 -3 24 -14 57 -23 73 -16 27 -16 29 5 52 45 48 15 136 -52 153 -54 13 -150 -1 -209 -30 l-57 -29 -45 46 c-73 73 -157 106 -211 82z m348 -254 c34 -38 36 -78 7 -114 -43 -55 -155 -55 -198 0 -57 71 9 158 113 150 40 -4 55 -10 78 -36z" transform="translate(2554,0.000000) scale(-1,1)" stroke="none" fill="#A798B9"/>
</g>
<g id="pattern3" transform="matrix(0.618,0,0,0.618,723,2554)matrix(0.71,0.71,-0.71,0.71,0,0)">
<path d="M385 519 c-44 -26 -65 -53 -65 -84 0 -70 79 -117 159 -95 79 21 104 94 53 151 -23 26 -38 32 -78 36 -27 2 -58 -2 -69 -8z" transform="translate(410,-410) scale(1,1)" stroke="none" fill="#B9CF64"/>
<path d="M184 745 c-38 -17 -50 -31 -58 -74 -9 -48 9 -104 46 -140 l31 -30 -27 -11 c-15 -5 -33 -10 -39 -10 -17 0 -79 -38 -94 -58 -18 -22 -16 -67 3 -83 18 -15 63 -17 117 -6 48 10 47 -3 -2 -37 -67 -47 -85 -126 -37 -165 29 -24 131 -8 181 28 52 37 55 38 55 7 0 -36 27 -93 52 -110 34 -24 90 -20 122 8 41 34 80 108 99 187 l11 46 45 0 c36 0 49 5 69 28 20 24 23 35 18 73 -3 24 -14 57 -23 73 -16 27 -16 29 5 52 45 48 15 136 -52 153 -54 13 -150 -1 -209 -30 l-57 -29 -45 46 c-73 73 -157 106 -211 82z m348 -254 c34 -38 36 -78 7 -114 -43 -55 -155 -55 -198 0 -57 71 9 158 113 150 40 -4 55 -10 78 -36z" transform="translate(410,-410) scale(1,1)" stroke="none" fill="#A798B9"/>
</g>
<g id="pattern4" transform="matrix(1.618,0,0,1.618,1071,1071)matrix(0.87,0.5,-0.5,0.87,0,0)">
<path d="M385 519 c-44 -26 -65 -53 -65 -84 0 -70 79 -117 159 -95 79 21 104 94 53 151 -23 26 -38 32 -78 36 -27 2 -58 -2 -69 -8z" transform="translate(410,-410) scale(1,1)" stroke="none" fill="#B9CF64"/>
<path d="M184 745 c-38 -17 -50 -31 -58 -74 -9 -48 9 -104 46 -140 l31 -30 -27 -11 c-15 -5 -33 -10 -39 -10 -17 0 -79 -38 -94 -58 -18 -22 -16 -67 3 -83 18 -15 63 -17 117 -6 48 10 47 -3 -2 -37 -67 -47 -85 -126 -37 -165 29 -24 131 -8 181 28 52 37 55 38 55 7 0 -36 27 -93 52 -110 34 -24 90 -20 122 8 41 34 80 108 99 187 l11 46 45 0 c36 0 49 5 69 28 20 24 23 35 18 73 -3 24 -14 57 -23 73 -16 27 -16 29 5 52 45 48 15 136 -52 153 -54 13 -150 -1 -209 -30 l-57 -29 -45 46 c-73 73 -157 106 -211 82z m348 -254 c34 -38 36 -78 7 -114 -43 -55 -155 -55 -198 0 -57 71 9 158 113 150 40 -4 55 -10 78 -36z" transform="translate(410,-410) scale(1,1)" stroke="none" fill="#A798B9"/>
</g>
</g>
</g>

<g id="2" transform="translate(1878.0,0)scale(0.25,0.25)">

<g id="pattern">
<rect width="4069" height="4069" fill="#DDDEE6"/>
<g id="pattern1" transform="matrix(1,0,0,1,253,253)">
<path d="M385 519 c-44 -26 -65 -53 -65 -84 0 -70 79 -117 159 -95 79 21 104 94 53 151 -23 26 -38 32 -78 36 -27 2 -58 -2 -69 -8z" transform="translate(0.000000,0.000000) scale(1,1)" stroke="none" fill="#B9CF64"/>
<path d="M184 745 c-38 -17 -50 -31 -58 -74 -9 -48 9 -104 46 -140 l31 -30 -27 -11 c-15 -5 -33 -10 -39 -10 -17 0 -79 -38 -94 -58 -18 -22 -16 -67 3 -83 18 -15 63 -17 117 -6 48 10 47 -3 -2 -37 -67 -47 -85 -126 -37 -165 29 -24 131 -8 181 28 52 37 55 38 55 7 0 -36 27 -93 52 -110 34 -24 90 -20 122 8 41 34 80 108 99 187 l11 46 45 0 c36 0 49 5 69 28 20 24 23 35 18 73 -3 24 -14 57 -23 73 -16 27 -16 29 5 52 45 48 15 136 -52 153 -54 13 -150 -1 -209 -30 l-57 -29 -45 46 c-73 73 -157 106 -211 82z m348 -254 c34 -38 36 -78 7 -114 -43 -55 -155 -55 -198 0 -57 71 9 158 113 150 40 -4 55 -10 78 -36z" transform="translate(0.000000,0.000000) scale(1,1)" stroke="none" fill="#A798B9"/>
</g>
<g id="pattern2" transform="matrix(0.618,0,0,0.618,1928,566)">
<path d="M385 519 c-44 -26 -65 -53 -65 -84 0 -70 79 -117 159 -95 79 21 104 94 53 151 -23 26 -38 32 -78 36 -27 2 -58 -2 -69 -8z" transform="translate(2554,0.000000) scale(-1,1)" stroke="none" fill="#B9CF64"/>
<path d="M184 745 c-38 -17 -50 -31 -58 -74 -9 -48 9 -104 46 -140 l31 -30 -27 -11 c-15 -5 -33 -10 -39 -10 -17 0 -79 -38 -94 -58 -18 -22 -16 -67 3 -83 18 -15 63 -17 117 -6 48 10 47 -3 -2 -37 -67 -47 -85 -126 -37 -165 29 -24 131 -8 181 28 52 37 55 38 55 7 0 -36 27 -93 52 -110 34 -24 90 -20 122 8 41 34 80 108 99 187 l11 46 45 0 c36 0 49 5 69 28 20 24 23 35 18 73 -3 24 -14 57 -23 73 -16 27 -16 29 5 52 45 48 15 136 -52 153 -54 13 -150 -1 -209 -30 l-57 -29 -45 46 c-73 73 -157 106 -211 82z m348 -254 c34 -38 36 -78 7 -114 -43 -55 -155 -55 -198 0 -57 71 9 158 113 150 40 -4 55 -10 78 -36z" transform="translate(2554,0.000000) scale(-1,1)" stroke="none" fill="#A798B9"/>
</g>
<g id="pattern3" transform="matrix(0.618,0,0,0.618,723,2554)matrix(0.71,0.71,-0.71,0.71,0,0)">
<path d="M385 519 c-44 -26 -65 -53 -65 -84 0 -70 79 -117 159 -95 79 21 104 94 53 151 -23 26 -38 32 -78 36 -27 2 -58 -2 -69 -8z" transform="translate(410,-410) scale(1,1)" stroke="none" fill="#B9CF64"/>
<path d="M184 745 c-38 -17 -50 -31 -58 -74 -9 -48 9 -104 46 -140 l31 -30 -27 -11 c-15 -5 -33 -10 -39 -10 -17 0 -79 -38 -94 -58 -18 -22 -16 -67 3 -83 18 -15 63 -17 117 -6 48 10 47 -3 -2 -37 -67 -47 -85 -126 -37 -165 29 -24 131 -8 181 28 52 37 55 38 55 7 0 -36 27 -93 52 -110 34 -24 90 -20 122 8 41 34 80 108 99 187 l11 46 45 0 c36 0 49 5 69 28 20 24 23 35 18 73 -3 24 -14 57 -23 73 -16 27 -16 29 5 52 45 48 15 136 -52 153 -54 13 -150 -1 -209 -30 l-57 -29 -45 46 c-73 73 -157 106 -211 82z m348 -254 c34 -38 36 -78 7 -114 -43 -55 -155 -55 -198 0 -57 71 9 158 113 150 40 -4 55 -10 78 -36z" transform="translate(410,-410) scale(1,1)" stroke="none" fill="#A798B9"/>
</g>
<g id="pattern4" transform="matrix(1.618,0,0,1.618,1071,1071)matrix(0.87,0.5,-0.5,0.87,0,0)">
<path d="M385 519 c-44 -26 -65 -53 -65 -84 0 -70 79 -117 159 -95 79 21 104 94 53 151 -23 26 -38 32 -78 36 -27 2 -58 -2 -69 -8z" transform="translate(410,-410) scale(1,1)" stroke="none" fill="#B9CF64"/>
<path d="M184 745 c-38 -17 -50 -31 -58 -74 -9 -48 9 -104 46 -140 l31 -30 -27 -11 c-15 -5 -33 -10 -39 -10 -17 0 -79 -38 -94 -58 -18 -22 -16 -67 3 -83 18 -15 63 -17 117 -6 48 10 47 -3 -2 -37 -67 -47 -85 -126 -37 -165 29 -24 131 -8 181 28 52 37 55 38 55 7 0 -36 27 -93 52 -110 34 -24 90 -20 122 8 41 34 80 108 99 187 l11 46 45 0 c36 0 49 5 69 28 20 24 23 35 18 73 -3 24 -14 57 -23 73 -16 27 -16 29 5 52 45 48 15 136 -52 153 -54 13 -150 -1 -209 -30 l-57 -29 -45 46 c-73 73 -157 106 -211 82z m348 -254 c34 -38 36 -78 7 -114 -43 -55 -155 -55 -198 0 -57 71 9 158 113 150 40 -4 55 -10 78 -36z" transform="translate(410,-410) scale(1,1)" stroke="none" fill="#A798B9"/>
</g>
</g>
</g>

<g id="3" transform="translate(2817.0,0)scale(0.25,0.25)">

<g id="pattern">
<rect width="4069" height="4069" fill="#DDDEE6"/>
<g id="pattern1" transform="matrix(1,0,0,1,253,253)">
<path d="M385 519 c-44 -26 -65 -53 -65 -84 0 -70 79 -117 159 -95 79 21 104 94 53 151 -23 26 -38 32 -78 36 -27 2 -58 -2 -69 -8z" transform="translate(0.000000,0.000000) scale(1,1)" stroke="none" fill="#B9CF64"/>
<path d="M184 745 c-38 -17 -50 -31 -58 -74 -9 -48 9 -104 46 -140 l31 -30 -27 -11 c-15 -5 -33 -10 -39 -10 -17 0 -79 -38 -94 -58 -18 -22 -16 -67 3 -83 18 -15 63 -17 117 -6 48 10 47 -3 -2 -37 -67 -47 -85 -126 -37 -165 29 -24 131 -8 181 28 52 37 55 38 55 7 0 -36 27 -93 52 -110 34 -24 90 -20 122 8 41 34 80 108 99 187 l11 46 45 0 c36 0 49 5 69 28 20 24 23 35 18 73 -3 24 -14 57 -23 73 -16 27 -16 29 5 52 45 48 15 136 -52 153 -54 13 -150 -1 -209 -30 l-57 -29 -45 46 c-73 73 -157 106 -211 82z m348 -254 c34 -38 36 -78 7 -114 -43 -55 -155 -55 -198 0 -57 71 9 158 113 150 40 -4 55 -10 78 -36z" transform="translate(0.000000,0.000000) scale(1,1)" stroke="none" fill="#A798B9"/>
</g>
<g id="pattern2" transform="matrix(0.618,0,0,0.618,1928,566)">
<path d="M385 519 c-44 -26 -65 -53 -65 -84 0 -70 79 -117 159 -95 79 21 104 94 53 151 -23 26 -38 32 -78 36 -27 2 -58 -2 -69 -8z" transform="translate(2554,0.000000) scale(-1,1)" stroke="none" fill="#B9CF64"/>
<path d="M184 745 c-38 -17 -50 -31 -58 -74 -9 -48 9 -104 46 -140 l31 -30 -27 -11 c-15 -5 -33 -10 -39 -10 -17 0 -79 -38 -94 -58 -18 -22 -16 -67 3 -83 18 -15 63 -17 117 -6 48 10 47 -3 -2 -37 -67 -47 -85 -126 -37 -165 29 -24 131 -8 181 28 52 37 55 38 55 7 0 -36 27 -93 52 -110 34 -24 90 -20 122 8 41 34 80 108 99 187 l11 46 45 0 c36 0 49 5 69 28 20 24 23 35 18 73 -3 24 -14 57 -23 73 -16 27 -16 29 5 52 45 48 15 136 -52 153 -54 13 -150 -1 -209 -30 l-57 -29 -45 46 c-73 73 -157 106 -211 82z m348 -254 c34 -38 36 -78 7 -114 -43 -55 -155 -55 -198 0 -57 71 9 158 113 150 40 -4 55 -10 78 -36z" transform="translate(2554,0.000000) scale(-1,1)" stroke="none" fill="#A798B9"/>
</g>
<g id="pattern3" transform="matrix(0.618,0,0,0.618,723,2554)matrix(0.71,0.71,-0.71,0.71,0,0)">
<path d="M385 519 c-44 -26 -65 -53 -65 -84 0 -70 79 -117 159 -95 79 21 104 94 53 151 -23 26 -38 32 -78 36 -27 2 -58 -2 -69 -8z" transform="translate(410,-410) scale(1,1)" stroke="none" fill="#B9CF64"/>
<path d="M184 745 c-38 -17 -50 -31 -58 -74 -9 -48 9 -104 46 -140 l31 -30 -27 -11 c-15 -5 -33 -10 -39 -10 -17 0 -79 -38 -94 -58 -18 -22 -16 -67 3 -83 18 -15 63 -17 117 -6 48 10 47 -3 -2 -37 -67 -47 -85 -126 -37 -165 29 -24 131 -8 181 28 52 37 55 38 55 7 0 -36 27 -93 52 -110 34 -24 90 -20 122 8 41 34 80 108 99 187 l11 46 45 0 c36 0 49 5 69 28 20 24 23 35 18 73 -3 24 -14 57 -23 73 -16 27 -16 29 5 52 45 48 15 136 -52 153 -54 13 -150 -1 -209 -30 l-57 -29 -45 46 c-73 73 -157 106 -211 82z m348 -254 c34 -38 36 -78 7 -114 -43 -55 -155 -55 -198 0 -57 71 9 158 113 150 40 -4 55 -10 78 -36z" transform="translate(410,-410) scale(1,1)" stroke="none" fill="#A798B9"/>
</g>
<g id="pattern4" transform="matrix(1.618,0,0,1.618,1071,1071)matrix(0.87,0.5,-0.5,0.87,0,0)">
<path d="M385 519 c-44 -26 -65 -53 -65 -84 0 -70 79 -117 159 -95 79 21 104 94 53 151 -23 26 -38 32 -78 36 -27 2 -58 -2 -69 -8z" transform="translate(410,-410) scale(1,1)" stroke="none" fill="#B9CF64"/>
<path d="M184 745 c-38 -17 -50 -31 -58 -74 -9 -48 9 -104 46 -140 l31 -30 -27 -11 c-15 -5 -33 -10 -39 -10 -17 0 -79 -38 -94 -58 -18 -22 -16 -67 3 -83 18 -15 63 -17 117 -6 48 10 47 -3 -2 -37 -67 -47 -85 -126 -37 -165 29 -24 131 -8 181 28 52 37 55 38 55 7 0 -36 27 -93 52 -110 34 -24 90 -20 122 8 41 34 80 108 99 187 l11 46 45 0 c36 0 49 5 69 28 20 24 23 35 18 73 -3 24 -14 57 -23 73 -16 27 -16 29 5 52 45 48 15 136 -52 153 -54 13 -150 -1 -209 -30 l-57 -29 -45 46 c-73 73 -157 106 -211 82z m348 -254 c34 -38 36 -78 7 -114 -43 -55 -155 -55 -198 0 -57 71 9 158 113 150 40 -4 55 -10 78 -36z" transform="translate(410,-410) scale(1,1)" stroke="none" fill="#A798B9"/>
</g>
</g>
</g>

<g id="4" transform="translate(3756.0,0)scale(0.25,0.25)">

<g id="pattern">
<rect width="4069" height="4069" fill="#DDDEE6"/>
<g id="pattern1" transform="matrix(1,0,0,1,253,253)">
<path d="M385 519 c-44 -26 -65 -53 -65 -84 0 -70 79 -117 159 -95 79 21 104 94 53 151 -23 26 -38 32 -78 36 -27 2 -58 -2 -69 -8z" transform="translate(0.000000,0.000000) scale(1,1)" stroke="none" fill="#B9CF64"/>
<path d="M184 745 c-38 -17 -50 -31 -58 -74 -9 -48 9 -104 46 -140 l31 -30 -27 -11 c-15 -5 -33 -10 -39 -10 -17 0 -79 -38 -94 -58 -18 -22 -16 -67 3 -83 18 -15 63 -17 117 -6 48 10 47 -3 -2 -37 -67 -47 -85 -126 -37 -165 29 -24 131 -8 181 28 52 37 55 38 55 7 0 -36 27 -93 52 -110 34 -24 90 -20 122 8 41 34 80 108 99 187 l11 46 45 0 c36 0 49 5 69 28 20 24 23 35 18 73 -3 24 -14 57 -23 73 -16 27 -16 29 5 52 45 48 15 136 -52 153 -54 13 -150 -1 -209 -30 l-57 -29 -45 46 c-73 73 -157 106 -211 82z m348 -254 c34 -38 36 -78 7 -114 -43 -55 -155 -55 -198 0 -57 71 9 158 113 150 40 -4 55 -10 78 -36z" transform="translate(0.000000,0.000000) scale(1,1)" stroke="none" fill="#A798B9"/>
</g>
<g id="pattern2" transform="matrix(0.618,0,0,0.618,1928,566)">
<path d="M385 519 c-44 -26 -65 -53 -65 -84 0 -70 79 -117 159 -95 79 21 104 94 53 151 -23 26 -38 32 -78 36 -27 2 -58 -2 -69 -8z" transform="translate(2554,0.000000) scale(-1,1)" stroke="none" fill="#B9CF64"/>
<path d="M184 745 c-38 -17 -50 -31 -58 -74 -9 -48 9 -104 46 -140 l31 -30 -27 -11 c-15 -5 -33 -10 -39 -10 -17 0 -79 -38 -94 -58 -18 -22 -16 -67 3 -83 18 -15 63 -17 117 -6 48 10 47 -3 -2 -37 -67 -47 -85 -126 -37 -165 29 -24 131 -8 181 28 52 37 55 38 55 7 0 -36 27 -93 52 -110 34 -24 90 -20 122 8 41 34 80 108 99 187 l11 46 45 0 c36 0 49 5 69 28 20 24 23 35 18 73 -3 24 -14 57 -23 73 -16 27 -16 29 5 52 45 48 15 136 -52 153 -54 13 -150 -1 -209 -30 l-57 -29 -45 46 c-73 73 -157 106 -211 82z m348 -254 c34 -38 36 -78 7 -114 -43 -55 -155 -55 -198 0 -57 71 9 158 113 150 40 -4 55 -10 78 -36z" transform="translate(2554,0.000000) scale(-1,1)" stroke="none" fill="#A798B9"/>
</g>
<g id="pattern3" transform="matrix(0.618,0,0,0.618,723,2554)matrix(0.71,0.71,-0.71,0.71,0,0)">
<path d="M385 519 c-44 -26 -65 -53 -65 -84 0 -70 79 -117 159 -95 79 21 104 94 53 151 -23 26 -38 32 -78 36 -27 2 -58 -2 -69 -8z" transform="translate(410,-410) scale(1,1)" stroke="none" fill="#B9CF64"/>
<path d="M184 745 c-38 -17 -50 -31 -58 -74 -9 -48 9 -104 46 -140 l31 -30 -27 -11 c-15 -5 -33 -10 -39 -10 -17 0 -79 -38 -94 -58 -18 -22 -16 -67 3 -83 18 -15 63 -17 117 -6 48 10 47 -3 -2 -37 -67 -47 -85 -126 -37 -165 29 -24 131 -8 181 28 52 37 55 38 55 7 0 -36 27 -93 52 -110 34 -24 90 -20 122 8 41 34 80 108 99 187 l11 46 45 0 c36 0 49 5 69 28 20 24 23 35 18 73 -3 24 -14 57 -23 73 -16 27 -16 29 5 52 45 48 15 136 -52 153 -54 13 -150 -1 -209 -30 l-57 -29 -45 46 c-73 73 -157 106 -211 82z m348 -254 c34 -38 36 -78 7 -114 -43 -55 -155 -55 -198 0 -57 71 9 158 113 150 40 -4 55 -10 78 -36z" transform="translate(410,-410) scale(1,1)" stroke="none" fill="#A798B9"/>
</g>
<g id="pattern4" transform="matrix(1.618,0,0,1.618,1071,1071)matrix(0.87,0.5,-0.5,0.87,0,0)">
<path d="M385 519 c-44 -26 -65 -53 -65 -84 0 -70 79 -117 159 -95 79 21 104 94 53 151 -23 26 -38 32 -78 36 -27 2 -58 -2 -69 -8z" transform="translate(410,-410) scale(1,1)" stroke="none" fill="#B9CF64"/>
<path d="M184 745 c-38 -17 -50 -31 -58 -74 -9 -48 9 -104 46 -140 l31 -30 -27 -11 c-15 -5 -33 -10 -39 -10 -17 0 -79 -38 -94 -58 -18 -22 -16 -67 3 -83 18 -15 63 -17 117 -6 48 10 47 -3 -2 -37 -67 -47 -85 -126 -37 -165 29 -24 131 -8 181 28 52 37 55 38 55 7 0 -36 27 -93 52 -110 34 -24 90 -20 122 8 41 34 80 108 99 187 l11 46 45 0 c36 0 49 5 69 28 20 24 23 35 18 73 -3 24 -14 57 -23 73 -16 27 -16 29 5 52 45 48 15 136 -52 153 -54 13 -150 -1 -209 -30 l-57 -29 -45 46 c-73 73 -157 106 -211 82z m348 -254 c34 -38 36 -78 7 -114 -43 -55 -155 -55 -198 0 -57 71 9 158 113 150 40 -4 55 -10 78 -36z" transform="translate(410,-410) scale(1,1)" stroke="none" fill="#A798B9"/>
</g>
</g>
</g>

</g>
</svg>