<?xml version="1.0" standalone="no"?>
<!DOCTYPE svg PUBLIC "-//W3C//DTD SVG 20010904//EN"
 "http://www.w3.org/TR/2001/REC-SVG-20010904/DTD/svg10.dtd">
<svg version="1.0" xmlns="http://www.w3.org/2000/svg" 
width="38.000000pt" height="78.000000pt" viewBox="0 0 38.000000 78.000000"
preserveAspectRatio = "xMidYMid meet" >
<metadata>
Created by ZoeQU, 2022
</metadata>
<rect width="38.000000" height="78.000000" fill="#EFB664"/>
<path d="M63 78 c1 -23 7 -33 20 -34 11 -1 12 0 3 3 -8 2 -17 17 -20 34 -6 28 -6 28 -3 -3z" transform="translate(0.000000,78.000000) scale(0.100000,-0.100000)" stroke="none" fill="#949271"/>

<path d="M248 284 c-38 -20 -36 -28 2 -9 17 9 30 18 30 20 0 7 -1 6 -32 -11z" transform="translate(0.000000,78.000000) scale(0.100000,-0.100000)" stroke="none" fill="#949271"/>

<path d="M283 329 c9 -6 15 -14 12 -20 -4 -5 -1 -9 4 -9 6 0 11 4 11 8 0 12 -22 32 -34 32 -6 0 -3 -5 7 -11z" transform="translate(0.000000,78.000000) scale(0.100000,-0.100000)" stroke="none" fill="#949271"/>

<path d="M272 135 c15 -16 29 -27 31 -24 3 2 -10 15 -27 28 l-31 24 27 -28z" transform="translate(0.000000,78.000000) scale(0.100000,-0.100000)" stroke="none" fill="#949271"/>

<path d="M180 245 c-11 -13 -11 -18 0 -28 10 -10 11 -9 5 2 -5 9 -1 19 10 28 11 7 14 13 8 13 -6 0 -16 -7 -23 -15z" transform="translate(0.000000,78.000000) scale(0.100000,-0.100000)" stroke="none" fill="#949271"/>

<path d="M43 330 c0 -41 2 -58 4 -37 2 20 2 54 0 75 -2 20 -4 3 -4 -38z" transform="translate(0.000000,78.000000) scale(0.100000,-0.100000)" stroke="none" fill="#949271"/>

<path d="M142 627 c-23 -25 -29 -47 -11 -47 5 0 7 5 4 11 -4 6 3 21 16 35 12 13 20 24 17 24 -2 0 -14 -10 -26 -23z" transform="translate(0.000000,78.000000) scale(0.100000,-0.100000)" stroke="none" fill="#949271"/>

<path d="M240 70 c-27 -6 -29 -8 -10 -8 14 -1 43 3 65 7 33 7 35 9 10 9 -16 -1 -46 -4 -65 -8z" transform="translate(0.000000,78.000000) scale(0.100000,-0.100000)" stroke="none" fill="#949271"/>

<path d="M268 496 c-54 -32 -60 -42 -11 -17 23 11 44 25 48 31 8 13 7 13 -37 -14z" transform="translate(0.000000,78.000000) scale(0.100000,-0.100000)" stroke="none" fill="#949271"/>

<path d="M155 729 l-50 -7 53 2 c28 0 52 -3 52 -8 0 -6 -10 -21 -22 -35 l-23 -26 28 24 c26 24 35 46 20 53 -5 2 -30 1 -58 -3z" transform="translate(0.000000,78.000000) scale(0.100000,-0.100000)" stroke="none" fill="#949271"/>

<path d="M21 629 c1 -35 5 -91 9 -124 5 -40 6 -21 3 60 -6 128 -14 171 -12 64z" transform="translate(0.000000,78.000000) scale(0.100000,-0.100000)" stroke="none" fill="#949271"/>

<path d="M146 425 c-11 -8 -18 -17 -15 -19 10 -9 129 -66 129 -61 0 2 -24 17 -52 31 -67 33 -67 33 -44 50 11 8 16 14 10 14 -5 0 -18 -7 -28 -15z" transform="translate(0.000000,78.000000) scale(0.100000,-0.100000)" stroke="none" fill="#949271"/>

<path d="M115 720 l-90 -5 4 -80 c1 -44 4 -82 6 -85 2 -3 6 -61 10 -130 3 -69 10 -177 16 -240 5 -63 9 -119 9 -123 0 -7 52 -3 130 9 14 2 51 6 83 10 47 5 55 9 46 20 -6 8 -17 14 -24 14 -6 0 -25 15 -42 33 -17 18 -45 45 -63 59 -18 14 -30 30 -26 36 3 5 29 22 58 37 29 15 57 31 62 35 5 5 -30 28 -78 52 -47 23 -86 45 -86 49 0 4 12 13 28 21 15 7 53 29 86 47 l59 34 -92 36 c-50 20 -91 40 -91 44 0 5 21 33 46 63 25 29 44 57 42 61 -1 4 -43 6 -93 3z" transform="translate(0.000000,78.000000) scale(0.100000,-0.100000)" stroke="none" fill="#167F79"/>

</svg>