<?xml version="1.0" standalone="no"?>
<!DOCTYPE svg PUBLIC "-//W3C//DTD SVG 20010904//EN"
 "http://www.w3.org/TR/2001/REC-SVG-20010904/DTD/svg10.dtd">
<svg version="1.0" xmlns="http://www.w3.org/2000/svg" width="432pt" height="376pt" viewBox="0 0 432 376" preserveAspectRatio = "xMidYMid meet" >
<metadata>
Created by ZoeQu, written in 2022
</metadata>
<rect width="432" height="376" fill="#4D3725"/>
<g id="row0" transform="translate(14,0.0)">
<g id="0" transform="translate(0.0,0)scale(1,1)">

<path d="M114 870 c-30 -19 -31 -23 -23 -58 4 -21 15 -51 22 -66 13 -23 13 -33 0 -74 -8 -26 -12 -68 -10 -95 3 -35 -2 -59 -19 -95 -28 -57 -29 -81 -4 -152 11 -30 19 -61 20 -69 0 -20 38 -97 53 -109 7 -5 35 -12 62 -16 44 -5 55 -3 85 19 19 14 39 25 44 25 6 0 22 17 36 38 14 20 29 40 34 44 5 3 11 13 12 22 1 8 9 30 18 47 9 18 16 38 16 46 0 7 5 13 11 13 8 0 9 -17 4 -55 -5 -43 -4 -55 7 -55 8 0 19 5 26 12 7 7 12 10 13 7 0 -2 2 -17 4 -34 6 -47 66 -155 100 -181 18 -13 45 -24 61 -24 35 0 122 52 131 77 4 10 23 43 42 73 62 94 65 102 52 157 -10 41 -9 54 3 78 9 17 16 37 16 45 0 9 7 26 16 39 11 15 15 35 11 62 -4 33 -1 43 29 74 41 43 42 55 9 87 -59 59 -244 42 -357 -34 -36 -24 -41 -23 -22 7 23 35 11 31 -36 -12 l-41 -36 -29 34 c-16 19 -29 40 -30 47 0 18 -20 15 -20 -4 0 -12 -8 -8 -28 14 -44 47 -136 102 -161 95 -11 -3 -27 -1 -34 5 -7 6 -22 11 -32 11 -11 -1 -29 2 -40 5 -12 4 -33 -2 -51 -14z m138 -122 c71 -42 96 -66 121 -113 25 -49 38 -103 27 -110 -5 -3 -33 7 -62 23 -29 16 -65 32 -79 35 -32 8 -43 31 -28 59 19 35 -5 94 -42 107 -17 6 -28 15 -24 21 10 17 32 12 87 -22z m660 -64 c10 -9 -25 -62 -47 -72 -11 -5 -26 -22 -34 -38 -7 -16 -17 -36 -21 -44 -6 -12 -24 -14 -86 -12 -44 2 -83 8 -88 13 -11 10 43 70 89 99 17 10 51 21 77 25 26 4 53 13 59 21 12 14 41 19 51 8z m-552 -259 c30 -1 55 -7 55 -11 0 -25 -43 -88 -86 -129 -70 -66 -86 -61 -121 39 -35 103 -29 118 45 110 28 -3 77 -7 107 -9z m254 -3 c28 -25 99 -52 136 -52 32 0 46 -24 33 -57 -13 -31 -97 -142 -109 -142 -13 -1 -74 91 -74 112 0 9 -4 19 -10 22 -11 7 -14 135 -3 135 4 0 16 -8 27 -18z" transform="translate(0,94) scale(0.1,-0.1)" stroke="none" fill="#C8814D"/>

</g>

<g id="1" transform="translate(108.0,0)scale(1,1)">

<path d="M114 870 c-30 -19 -31 -23 -23 -58 4 -21 15 -51 22 -66 13 -23 13 -33 0 -74 -8 -26 -12 -68 -10 -95 3 -35 -2 -59 -19 -95 -28 -57 -29 -81 -4 -152 11 -30 19 -61 20 -69 0 -20 38 -97 53 -109 7 -5 35 -12 62 -16 44 -5 55 -3 85 19 19 14 39 25 44 25 6 0 22 17 36 38 14 20 29 40 34 44 5 3 11 13 12 22 1 8 9 30 18 47 9 18 16 38 16 46 0 7 5 13 11 13 8 0 9 -17 4 -55 -5 -43 -4 -55 7 -55 8 0 19 5 26 12 7 7 12 10 13 7 0 -2 2 -17 4 -34 6 -47 66 -155 100 -181 18 -13 45 -24 61 -24 35 0 122 52 131 77 4 10 23 43 42 73 62 94 65 102 52 157 -10 41 -9 54 3 78 9 17 16 37 16 45 0 9 7 26 16 39 11 15 15 35 11 62 -4 33 -1 43 29 74 41 43 42 55 9 87 -59 59 -244 42 -357 -34 -36 -24 -41 -23 -22 7 23 35 11 31 -36 -12 l-41 -36 -29 34 c-16 19 -29 40 -30 47 0 18 -20 15 -20 -4 0 -12 -8 -8 -28 14 -44 47 -136 102 -161 95 -11 -3 -27 -1 -34 5 -7 6 -22 11 -32 11 -11 -1 -29 2 -40 5 -12 4 -33 -2 -51 -14z m138 -122 c71 -42 96 -66 121 -113 25 -49 38 -103 27 -110 -5 -3 -33 7 -62 23 -29 16 -65 32 -79 35 -32 8 -43 31 -28 59 19 35 -5 94 -42 107 -17 6 -28 15 -24 21 10 17 32 12 87 -22z m660 -64 c10 -9 -25 -62 -47 -72 -11 -5 -26 -22 -34 -38 -7 -16 -17 -36 -21 -44 -6 -12 -24 -14 -86 -12 -44 2 -83 8 -88 13 -11 10 43 70 89 99 17 10 51 21 77 25 26 4 53 13 59 21 12 14 41 19 51 8z m-552 -259 c30 -1 55 -7 55 -11 0 -25 -43 -88 -86 -129 -70 -66 -86 -61 -121 39 -35 103 -29 118 45 110 28 -3 77 -7 107 -9z m254 -3 c28 -25 99 -52 136 -52 32 0 46 -24 33 -57 -13 -31 -97 -142 -109 -142 -13 -1 -74 91 -74 112 0 9 -4 19 -10 22 -11 7 -14 135 -3 135 4 0 16 -8 27 -18z" transform="translate(0,94) scale(0.1,-0.1)" stroke="none" fill="#C8814D"/>

</g>

<g id="2" transform="translate(216.0,0)scale(1,1)">

<path d="M114 870 c-30 -19 -31 -23 -23 -58 4 -21 15 -51 22 -66 13 -23 13 -33 0 -74 -8 -26 -12 -68 -10 -95 3 -35 -2 -59 -19 -95 -28 -57 -29 -81 -4 -152 11 -30 19 -61 20 -69 0 -20 38 -97 53 -109 7 -5 35 -12 62 -16 44 -5 55 -3 85 19 19 14 39 25 44 25 6 0 22 17 36 38 14 20 29 40 34 44 5 3 11 13 12 22 1 8 9 30 18 47 9 18 16 38 16 46 0 7 5 13 11 13 8 0 9 -17 4 -55 -5 -43 -4 -55 7 -55 8 0 19 5 26 12 7 7 12 10 13 7 0 -2 2 -17 4 -34 6 -47 66 -155 100 -181 18 -13 45 -24 61 -24 35 0 122 52 131 77 4 10 23 43 42 73 62 94 65 102 52 157 -10 41 -9 54 3 78 9 17 16 37 16 45 0 9 7 26 16 39 11 15 15 35 11 62 -4 33 -1 43 29 74 41 43 42 55 9 87 -59 59 -244 42 -357 -34 -36 -24 -41 -23 -22 7 23 35 11 31 -36 -12 l-41 -36 -29 34 c-16 19 -29 40 -30 47 0 18 -20 15 -20 -4 0 -12 -8 -8 -28 14 -44 47 -136 102 -161 95 -11 -3 -27 -1 -34 5 -7 6 -22 11 -32 11 -11 -1 -29 2 -40 5 -12 4 -33 -2 -51 -14z m138 -122 c71 -42 96 -66 121 -113 25 -49 38 -103 27 -110 -5 -3 -33 7 -62 23 -29 16 -65 32 -79 35 -32 8 -43 31 -28 59 19 35 -5 94 -42 107 -17 6 -28 15 -24 21 10 17 32 12 87 -22z m660 -64 c10 -9 -25 -62 -47 -72 -11 -5 -26 -22 -34 -38 -7 -16 -17 -36 -21 -44 -6 -12 -24 -14 -86 -12 -44 2 -83 8 -88 13 -11 10 43 70 89 99 17 10 51 21 77 25 26 4 53 13 59 21 12 14 41 19 51 8z m-552 -259 c30 -1 55 -7 55 -11 0 -25 -43 -88 -86 -129 -70 -66 -86 -61 -121 39 -35 103 -29 118 45 110 28 -3 77 -7 107 -9z m254 -3 c28 -25 99 -52 136 -52 32 0 46 -24 33 -57 -13 -31 -97 -142 -109 -142 -13 -1 -74 91 -74 112 0 9 -4 19 -10 22 -11 7 -14 135 -3 135 4 0 16 -8 27 -18z" transform="translate(0,94) scale(0.1,-0.1)" stroke="none" fill="#C8814D"/>

</g>

<g id="3" transform="translate(324.0,0)scale(1,1)">

<path d="M114 870 c-30 -19 -31 -23 -23 -58 4 -21 15 -51 22 -66 13 -23 13 -33 0 -74 -8 -26 -12 -68 -10 -95 3 -35 -2 -59 -19 -95 -28 -57 -29 -81 -4 -152 11 -30 19 -61 20 -69 0 -20 38 -97 53 -109 7 -5 35 -12 62 -16 44 -5 55 -3 85 19 19 14 39 25 44 25 6 0 22 17 36 38 14 20 29 40 34 44 5 3 11 13 12 22 1 8 9 30 18 47 9 18 16 38 16 46 0 7 5 13 11 13 8 0 9 -17 4 -55 -5 -43 -4 -55 7 -55 8 0 19 5 26 12 7 7 12 10 13 7 0 -2 2 -17 4 -34 6 -47 66 -155 100 -181 18 -13 45 -24 61 -24 35 0 122 52 131 77 4 10 23 43 42 73 62 94 65 102 52 157 -10 41 -9 54 3 78 9 17 16 37 16 45 0 9 7 26 16 39 11 15 15 35 11 62 -4 33 -1 43 29 74 41 43 42 55 9 87 -59 59 -244 42 -357 -34 -36 -24 -41 -23 -22 7 23 35 11 31 -36 -12 l-41 -36 -29 34 c-16 19 -29 40 -30 47 0 18 -20 15 -20 -4 0 -12 -8 -8 -28 14 -44 47 -136 102 -161 95 -11 -3 -27 -1 -34 5 -7 6 -22 11 -32 11 -11 -1 -29 2 -40 5 -12 4 -33 -2 -51 -14z m138 -122 c71 -42 96 -66 121 -113 25 -49 38 -103 27 -110 -5 -3 -33 7 -62 23 -29 16 -65 32 -79 35 -32 8 -43 31 -28 59 19 35 -5 94 -42 107 -17 6 -28 15 -24 21 10 17 32 12 87 -22z m660 -64 c10 -9 -25 -62 -47 -72 -11 -5 -26 -22 -34 -38 -7 -16 -17 -36 -21 -44 -6 -12 -24 -14 -86 -12 -44 2 -83 8 -88 13 -11 10 43 70 89 99 17 10 51 21 77 25 26 4 53 13 59 21 12 14 41 19 51 8z m-552 -259 c30 -1 55 -7 55 -11 0 -25 -43 -88 -86 -129 -70 -66 -86 -61 -121 39 -35 103 -29 118 45 110 28 -3 77 -7 107 -9z m254 -3 c28 -25 99 -52 136 -52 32 0 46 -24 33 -57 -13 -31 -97 -142 -109 -142 -13 -1 -74 91 -74 112 0 9 -4 19 -10 22 -11 7 -14 135 -3 135 4 0 16 -8 27 -18z" transform="translate(0,94) scale(0.1,-0.1)" stroke="none" fill="#C8814D"/>

</g>

<g id="4" transform="translate(432.0,0)scale(1,1)">

<path d="M114 870 c-30 -19 -31 -23 -23 -58 4 -21 15 -51 22 -66 13 -23 13 -33 0 -74 -8 -26 -12 -68 -10 -95 3 -35 -2 -59 -19 -95 -28 -57 -29 -81 -4 -152 11 -30 19 -61 20 -69 0 -20 38 -97 53 -109 7 -5 35 -12 62 -16 44 -5 55 -3 85 19 19 14 39 25 44 25 6 0 22 17 36 38 14 20 29 40 34 44 5 3 11 13 12 22 1 8 9 30 18 47 9 18 16 38 16 46 0 7 5 13 11 13 8 0 9 -17 4 -55 -5 -43 -4 -55 7 -55 8 0 19 5 26 12 7 7 12 10 13 7 0 -2 2 -17 4 -34 6 -47 66 -155 100 -181 18 -13 45 -24 61 -24 35 0 122 52 131 77 4 10 23 43 42 73 62 94 65 102 52 157 -10 41 -9 54 3 78 9 17 16 37 16 45 0 9 7 26 16 39 11 15 15 35 11 62 -4 33 -1 43 29 74 41 43 42 55 9 87 -59 59 -244 42 -357 -34 -36 -24 -41 -23 -22 7 23 35 11 31 -36 -12 l-41 -36 -29 34 c-16 19 -29 40 -30 47 0 18 -20 15 -20 -4 0 -12 -8 -8 -28 14 -44 47 -136 102 -161 95 -11 -3 -27 -1 -34 5 -7 6 -22 11 -32 11 -11 -1 -29 2 -40 5 -12 4 -33 -2 -51 -14z m138 -122 c71 -42 96 -66 121 -113 25 -49 38 -103 27 -110 -5 -3 -33 7 -62 23 -29 16 -65 32 -79 35 -32 8 -43 31 -28 59 19 35 -5 94 -42 107 -17 6 -28 15 -24 21 10 17 32 12 87 -22z m660 -64 c10 -9 -25 -62 -47 -72 -11 -5 -26 -22 -34 -38 -7 -16 -17 -36 -21 -44 -6 -12 -24 -14 -86 -12 -44 2 -83 8 -88 13 -11 10 43 70 89 99 17 10 51 21 77 25 26 4 53 13 59 21 12 14 41 19 51 8z m-552 -259 c30 -1 55 -7 55 -11 0 -25 -43 -88 -86 -129 -70 -66 -86 -61 -121 39 -35 103 -29 118 45 110 28 -3 77 -7 107 -9z m254 -3 c28 -25 99 -52 136 -52 32 0 46 -24 33 -57 -13 -31 -97 -142 -109 -142 -13 -1 -74 91 -74 112 0 9 -4 19 -10 22 -11 7 -14 135 -3 135 4 0 16 -8 27 -18z" transform="translate(0,94) scale(0.1,-0.1)" stroke="none" fill="#C8814D"/>

</g>

</g>
<g id="row1" transform="translate(14,94.0)">
<g id="0" transform="translate(0.0,0)scale(1,1)">

<path d="M114 870 c-30 -19 -31 -23 -23 -58 4 -21 15 -51 22 -66 13 -23 13 -33 0 -74 -8 -26 -12 -68 -10 -95 3 -35 -2 -59 -19 -95 -28 -57 -29 -81 -4 -152 11 -30 19 -61 20 -69 0 -20 38 -97 53 -109 7 -5 35 -12 62 -16 44 -5 55 -3 85 19 19 14 39 25 44 25 6 0 22 17 36 38 14 20 29 40 34 44 5 3 11 13 12 22 1 8 9 30 18 47 9 18 16 38 16 46 0 7 5 13 11 13 8 0 9 -17 4 -55 -5 -43 -4 -55 7 -55 8 0 19 5 26 12 7 7 12 10 13 7 0 -2 2 -17 4 -34 6 -47 66 -155 100 -181 18 -13 45 -24 61 -24 35 0 122 52 131 77 4 10 23 43 42 73 62 94 65 102 52 157 -10 41 -9 54 3 78 9 17 16 37 16 45 0 9 7 26 16 39 11 15 15 35 11 62 -4 33 -1 43 29 74 41 43 42 55 9 87 -59 59 -244 42 -357 -34 -36 -24 -41 -23 -22 7 23 35 11 31 -36 -12 l-41 -36 -29 34 c-16 19 -29 40 -30 47 0 18 -20 15 -20 -4 0 -12 -8 -8 -28 14 -44 47 -136 102 -161 95 -11 -3 -27 -1 -34 5 -7 6 -22 11 -32 11 -11 -1 -29 2 -40 5 -12 4 -33 -2 -51 -14z m138 -122 c71 -42 96 -66 121 -113 25 -49 38 -103 27 -110 -5 -3 -33 7 -62 23 -29 16 -65 32 -79 35 -32 8 -43 31 -28 59 19 35 -5 94 -42 107 -17 6 -28 15 -24 21 10 17 32 12 87 -22z m660 -64 c10 -9 -25 -62 -47 -72 -11 -5 -26 -22 -34 -38 -7 -16 -17 -36 -21 -44 -6 -12 -24 -14 -86 -12 -44 2 -83 8 -88 13 -11 10 43 70 89 99 17 10 51 21 77 25 26 4 53 13 59 21 12 14 41 19 51 8z m-552 -259 c30 -1 55 -7 55 -11 0 -25 -43 -88 -86 -129 -70 -66 -86 -61 -121 39 -35 103 -29 118 45 110 28 -3 77 -7 107 -9z m254 -3 c28 -25 99 -52 136 -52 32 0 46 -24 33 -57 -13 -31 -97 -142 -109 -142 -13 -1 -74 91 -74 112 0 9 -4 19 -10 22 -11 7 -14 135 -3 135 4 0 16 -8 27 -18z" transform="translate(0,94) scale(0.1,-0.1)" stroke="none" fill="#C8814D"/>

</g>

<g id="1" transform="translate(108.0,0)scale(1,1)">

<path d="M114 870 c-30 -19 -31 -23 -23 -58 4 -21 15 -51 22 -66 13 -23 13 -33 0 -74 -8 -26 -12 -68 -10 -95 3 -35 -2 -59 -19 -95 -28 -57 -29 -81 -4 -152 11 -30 19 -61 20 -69 0 -20 38 -97 53 -109 7 -5 35 -12 62 -16 44 -5 55 -3 85 19 19 14 39 25 44 25 6 0 22 17 36 38 14 20 29 40 34 44 5 3 11 13 12 22 1 8 9 30 18 47 9 18 16 38 16 46 0 7 5 13 11 13 8 0 9 -17 4 -55 -5 -43 -4 -55 7 -55 8 0 19 5 26 12 7 7 12 10 13 7 0 -2 2 -17 4 -34 6 -47 66 -155 100 -181 18 -13 45 -24 61 -24 35 0 122 52 131 77 4 10 23 43 42 73 62 94 65 102 52 157 -10 41 -9 54 3 78 9 17 16 37 16 45 0 9 7 26 16 39 11 15 15 35 11 62 -4 33 -1 43 29 74 41 43 42 55 9 87 -59 59 -244 42 -357 -34 -36 -24 -41 -23 -22 7 23 35 11 31 -36 -12 l-41 -36 -29 34 c-16 19 -29 40 -30 47 0 18 -20 15 -20 -4 0 -12 -8 -8 -28 14 -44 47 -136 102 -161 95 -11 -3 -27 -1 -34 5 -7 6 -22 11 -32 11 -11 -1 -29 2 -40 5 -12 4 -33 -2 -51 -14z m138 -122 c71 -42 96 -66 121 -113 25 -49 38 -103 27 -110 -5 -3 -33 7 -62 23 -29 16 -65 32 -79 35 -32 8 -43 31 -28 59 19 35 -5 94 -42 107 -17 6 -28 15 -24 21 10 17 32 12 87 -22z m660 -64 c10 -9 -25 -62 -47 -72 -11 -5 -26 -22 -34 -38 -7 -16 -17 -36 -21 -44 -6 -12 -24 -14 -86 -12 -44 2 -83 8 -88 13 -11 10 43 70 89 99 17 10 51 21 77 25 26 4 53 13 59 21 12 14 41 19 51 8z m-552 -259 c30 -1 55 -7 55 -11 0 -25 -43 -88 -86 -129 -70 -66 -86 -61 -121 39 -35 103 -29 118 45 110 28 -3 77 -7 107 -9z m254 -3 c28 -25 99 -52 136 -52 32 0 46 -24 33 -57 -13 -31 -97 -142 -109 -142 -13 -1 -74 91 -74 112 0 9 -4 19 -10 22 -11 7 -14 135 -3 135 4 0 16 -8 27 -18z" transform="translate(0,94) scale(0.1,-0.1)" stroke="none" fill="#C8814D"/>

</g>

<g id="2" transform="translate(216.0,0)scale(1,1)">

<path d="M114 870 c-30 -19 -31 -23 -23 -58 4 -21 15 -51 22 -66 13 -23 13 -33 0 -74 -8 -26 -12 -68 -10 -95 3 -35 -2 -59 -19 -95 -28 -57 -29 -81 -4 -152 11 -30 19 -61 20 -69 0 -20 38 -97 53 -109 7 -5 35 -12 62 -16 44 -5 55 -3 85 19 19 14 39 25 44 25 6 0 22 17 36 38 14 20 29 40 34 44 5 3 11 13 12 22 1 8 9 30 18 47 9 18 16 38 16 46 0 7 5 13 11 13 8 0 9 -17 4 -55 -5 -43 -4 -55 7 -55 8 0 19 5 26 12 7 7 12 10 13 7 0 -2 2 -17 4 -34 6 -47 66 -155 100 -181 18 -13 45 -24 61 -24 35 0 122 52 131 77 4 10 23 43 42 73 62 94 65 102 52 157 -10 41 -9 54 3 78 9 17 16 37 16 45 0 9 7 26 16 39 11 15 15 35 11 62 -4 33 -1 43 29 74 41 43 42 55 9 87 -59 59 -244 42 -357 -34 -36 -24 -41 -23 -22 7 23 35 11 31 -36 -12 l-41 -36 -29 34 c-16 19 -29 40 -30 47 0 18 -20 15 -20 -4 0 -12 -8 -8 -28 14 -44 47 -136 102 -161 95 -11 -3 -27 -1 -34 5 -7 6 -22 11 -32 11 -11 -1 -29 2 -40 5 -12 4 -33 -2 -51 -14z m138 -122 c71 -42 96 -66 121 -113 25 -49 38 -103 27 -110 -5 -3 -33 7 -62 23 -29 16 -65 32 -79 35 -32 8 -43 31 -28 59 19 35 -5 94 -42 107 -17 6 -28 15 -24 21 10 17 32 12 87 -22z m660 -64 c10 -9 -25 -62 -47 -72 -11 -5 -26 -22 -34 -38 -7 -16 -17 -36 -21 -44 -6 -12 -24 -14 -86 -12 -44 2 -83 8 -88 13 -11 10 43 70 89 99 17 10 51 21 77 25 26 4 53 13 59 21 12 14 41 19 51 8z m-552 -259 c30 -1 55 -7 55 -11 0 -25 -43 -88 -86 -129 -70 -66 -86 -61 -121 39 -35 103 -29 118 45 110 28 -3 77 -7 107 -9z m254 -3 c28 -25 99 -52 136 -52 32 0 46 -24 33 -57 -13 -31 -97 -142 -109 -142 -13 -1 -74 91 -74 112 0 9 -4 19 -10 22 -11 7 -14 135 -3 135 4 0 16 -8 27 -18z" transform="translate(0,94) scale(0.1,-0.1)" stroke="none" fill="#C8814D"/>

</g>

<g id="3" transform="translate(324.0,0)scale(1,1)">

<path d="M114 870 c-30 -19 -31 -23 -23 -58 4 -21 15 -51 22 -66 13 -23 13 -33 0 -74 -8 -26 -12 -68 -10 -95 3 -35 -2 -59 -19 -95 -28 -57 -29 -81 -4 -152 11 -30 19 -61 20 -69 0 -20 38 -97 53 -109 7 -5 35 -12 62 -16 44 -5 55 -3 85 19 19 14 39 25 44 25 6 0 22 17 36 38 14 20 29 40 34 44 5 3 11 13 12 22 1 8 9 30 18 47 9 18 16 38 16 46 0 7 5 13 11 13 8 0 9 -17 4 -55 -5 -43 -4 -55 7 -55 8 0 19 5 26 12 7 7 12 10 13 7 0 -2 2 -17 4 -34 6 -47 66 -155 100 -181 18 -13 45 -24 61 -24 35 0 122 52 131 77 4 10 23 43 42 73 62 94 65 102 52 157 -10 41 -9 54 3 78 9 17 16 37 16 45 0 9 7 26 16 39 11 15 15 35 11 62 -4 33 -1 43 29 74 41 43 42 55 9 87 -59 59 -244 42 -357 -34 -36 -24 -41 -23 -22 7 23 35 11 31 -36 -12 l-41 -36 -29 34 c-16 19 -29 40 -30 47 0 18 -20 15 -20 -4 0 -12 -8 -8 -28 14 -44 47 -136 102 -161 95 -11 -3 -27 -1 -34 5 -7 6 -22 11 -32 11 -11 -1 -29 2 -40 5 -12 4 -33 -2 -51 -14z m138 -122 c71 -42 96 -66 121 -113 25 -49 38 -103 27 -110 -5 -3 -33 7 -62 23 -29 16 -65 32 -79 35 -32 8 -43 31 -28 59 19 35 -5 94 -42 107 -17 6 -28 15 -24 21 10 17 32 12 87 -22z m660 -64 c10 -9 -25 -62 -47 -72 -11 -5 -26 -22 -34 -38 -7 -16 -17 -36 -21 -44 -6 -12 -24 -14 -86 -12 -44 2 -83 8 -88 13 -11 10 43 70 89 99 17 10 51 21 77 25 26 4 53 13 59 21 12 14 41 19 51 8z m-552 -259 c30 -1 55 -7 55 -11 0 -25 -43 -88 -86 -129 -70 -66 -86 -61 -121 39 -35 103 -29 118 45 110 28 -3 77 -7 107 -9z m254 -3 c28 -25 99 -52 136 -52 32 0 46 -24 33 -57 -13 -31 -97 -142 -109 -142 -13 -1 -74 91 -74 112 0 9 -4 19 -10 22 -11 7 -14 135 -3 135 4 0 16 -8 27 -18z" transform="translate(0,94) scale(0.1,-0.1)" stroke="none" fill="#C8814D"/>

</g>

<g id="4" transform="translate(432.0,0)scale(1,1)">

<path d="M114 870 c-30 -19 -31 -23 -23 -58 4 -21 15 -51 22 -66 13 -23 13 -33 0 -74 -8 -26 -12 -68 -10 -95 3 -35 -2 -59 -19 -95 -28 -57 -29 -81 -4 -152 11 -30 19 -61 20 -69 0 -20 38 -97 53 -109 7 -5 35 -12 62 -16 44 -5 55 -3 85 19 19 14 39 25 44 25 6 0 22 17 36 38 14 20 29 40 34 44 5 3 11 13 12 22 1 8 9 30 18 47 9 18 16 38 16 46 0 7 5 13 11 13 8 0 9 -17 4 -55 -5 -43 -4 -55 7 -55 8 0 19 5 26 12 7 7 12 10 13 7 0 -2 2 -17 4 -34 6 -47 66 -155 100 -181 18 -13 45 -24 61 -24 35 0 122 52 131 77 4 10 23 43 42 73 62 94 65 102 52 157 -10 41 -9 54 3 78 9 17 16 37 16 45 0 9 7 26 16 39 11 15 15 35 11 62 -4 33 -1 43 29 74 41 43 42 55 9 87 -59 59 -244 42 -357 -34 -36 -24 -41 -23 -22 7 23 35 11 31 -36 -12 l-41 -36 -29 34 c-16 19 -29 40 -30 47 0 18 -20 15 -20 -4 0 -12 -8 -8 -28 14 -44 47 -136 102 -161 95 -11 -3 -27 -1 -34 5 -7 6 -22 11 -32 11 -11 -1 -29 2 -40 5 -12 4 -33 -2 -51 -14z m138 -122 c71 -42 96 -66 121 -113 25 -49 38 -103 27 -110 -5 -3 -33 7 -62 23 -29 16 -65 32 -79 35 -32 8 -43 31 -28 59 19 35 -5 94 -42 107 -17 6 -28 15 -24 21 10 17 32 12 87 -22z m660 -64 c10 -9 -25 -62 -47 -72 -11 -5 -26 -22 -34 -38 -7 -16 -17 -36 -21 -44 -6 -12 -24 -14 -86 -12 -44 2 -83 8 -88 13 -11 10 43 70 89 99 17 10 51 21 77 25 26 4 53 13 59 21 12 14 41 19 51 8z m-552 -259 c30 -1 55 -7 55 -11 0 -25 -43 -88 -86 -129 -70 -66 -86 -61 -121 39 -35 103 -29 118 45 110 28 -3 77 -7 107 -9z m254 -3 c28 -25 99 -52 136 -52 32 0 46 -24 33 -57 -13 -31 -97 -142 -109 -142 -13 -1 -74 91 -74 112 0 9 -4 19 -10 22 -11 7 -14 135 -3 135 4 0 16 -8 27 -18z" transform="translate(0,94) scale(0.1,-0.1)" stroke="none" fill="#C8814D"/>

</g>

</g>
<g id="row2" transform="translate(14,188.0)">
<g id="0" transform="translate(0.0,0)scale(1,1)">

<path d="M114 870 c-30 -19 -31 -23 -23 -58 4 -21 15 -51 22 -66 13 -23 13 -33 0 -74 -8 -26 -12 -68 -10 -95 3 -35 -2 -59 -19 -95 -28 -57 -29 -81 -4 -152 11 -30 19 -61 20 -69 0 -20 38 -97 53 -109 7 -5 35 -12 62 -16 44 -5 55 -3 85 19 19 14 39 25 44 25 6 0 22 17 36 38 14 20 29 40 34 44 5 3 11 13 12 22 1 8 9 30 18 47 9 18 16 38 16 46 0 7 5 13 11 13 8 0 9 -17 4 -55 -5 -43 -4 -55 7 -55 8 0 19 5 26 12 7 7 12 10 13 7 0 -2 2 -17 4 -34 6 -47 66 -155 100 -181 18 -13 45 -24 61 -24 35 0 122 52 131 77 4 10 23 43 42 73 62 94 65 102 52 157 -10 41 -9 54 3 78 9 17 16 37 16 45 0 9 7 26 16 39 11 15 15 35 11 62 -4 33 -1 43 29 74 41 43 42 55 9 87 -59 59 -244 42 -357 -34 -36 -24 -41 -23 -22 7 23 35 11 31 -36 -12 l-41 -36 -29 34 c-16 19 -29 40 -30 47 0 18 -20 15 -20 -4 0 -12 -8 -8 -28 14 -44 47 -136 102 -161 95 -11 -3 -27 -1 -34 5 -7 6 -22 11 -32 11 -11 -1 -29 2 -40 5 -12 4 -33 -2 -51 -14z m138 -122 c71 -42 96 -66 121 -113 25 -49 38 -103 27 -110 -5 -3 -33 7 -62 23 -29 16 -65 32 -79 35 -32 8 -43 31 -28 59 19 35 -5 94 -42 107 -17 6 -28 15 -24 21 10 17 32 12 87 -22z m660 -64 c10 -9 -25 -62 -47 -72 -11 -5 -26 -22 -34 -38 -7 -16 -17 -36 -21 -44 -6 -12 -24 -14 -86 -12 -44 2 -83 8 -88 13 -11 10 43 70 89 99 17 10 51 21 77 25 26 4 53 13 59 21 12 14 41 19 51 8z m-552 -259 c30 -1 55 -7 55 -11 0 -25 -43 -88 -86 -129 -70 -66 -86 -61 -121 39 -35 103 -29 118 45 110 28 -3 77 -7 107 -9z m254 -3 c28 -25 99 -52 136 -52 32 0 46 -24 33 -57 -13 -31 -97 -142 -109 -142 -13 -1 -74 91 -74 112 0 9 -4 19 -10 22 -11 7 -14 135 -3 135 4 0 16 -8 27 -18z" transform="translate(0,94) scale(0.1,-0.1)" stroke="none" fill="#C8814D"/>

</g>

<g id="1" transform="translate(108.0,0)scale(1,1)">

<path d="M114 870 c-30 -19 -31 -23 -23 -58 4 -21 15 -51 22 -66 13 -23 13 -33 0 -74 -8 -26 -12 -68 -10 -95 3 -35 -2 -59 -19 -95 -28 -57 -29 -81 -4 -152 11 -30 19 -61 20 -69 0 -20 38 -97 53 -109 7 -5 35 -12 62 -16 44 -5 55 -3 85 19 19 14 39 25 44 25 6 0 22 17 36 38 14 20 29 40 34 44 5 3 11 13 12 22 1 8 9 30 18 47 9 18 16 38 16 46 0 7 5 13 11 13 8 0 9 -17 4 -55 -5 -43 -4 -55 7 -55 8 0 19 5 26 12 7 7 12 10 13 7 0 -2 2 -17 4 -34 6 -47 66 -155 100 -181 18 -13 45 -24 61 -24 35 0 122 52 131 77 4 10 23 43 42 73 62 94 65 102 52 157 -10 41 -9 54 3 78 9 17 16 37 16 45 0 9 7 26 16 39 11 15 15 35 11 62 -4 33 -1 43 29 74 41 43 42 55 9 87 -59 59 -244 42 -357 -34 -36 -24 -41 -23 -22 7 23 35 11 31 -36 -12 l-41 -36 -29 34 c-16 19 -29 40 -30 47 0 18 -20 15 -20 -4 0 -12 -8 -8 -28 14 -44 47 -136 102 -161 95 -11 -3 -27 -1 -34 5 -7 6 -22 11 -32 11 -11 -1 -29 2 -40 5 -12 4 -33 -2 -51 -14z m138 -122 c71 -42 96 -66 121 -113 25 -49 38 -103 27 -110 -5 -3 -33 7 -62 23 -29 16 -65 32 -79 35 -32 8 -43 31 -28 59 19 35 -5 94 -42 107 -17 6 -28 15 -24 21 10 17 32 12 87 -22z m660 -64 c10 -9 -25 -62 -47 -72 -11 -5 -26 -22 -34 -38 -7 -16 -17 -36 -21 -44 -6 -12 -24 -14 -86 -12 -44 2 -83 8 -88 13 -11 10 43 70 89 99 17 10 51 21 77 25 26 4 53 13 59 21 12 14 41 19 51 8z m-552 -259 c30 -1 55 -7 55 -11 0 -25 -43 -88 -86 -129 -70 -66 -86 -61 -121 39 -35 103 -29 118 45 110 28 -3 77 -7 107 -9z m254 -3 c28 -25 99 -52 136 -52 32 0 46 -24 33 -57 -13 -31 -97 -142 -109 -142 -13 -1 -74 91 -74 112 0 9 -4 19 -10 22 -11 7 -14 135 -3 135 4 0 16 -8 27 -18z" transform="translate(0,94) scale(0.1,-0.1)" stroke="none" fill="#C8814D"/>

</g>

<g id="2" transform="translate(216.0,0)scale(1,1)">

<path d="M114 870 c-30 -19 -31 -23 -23 -58 4 -21 15 -51 22 -66 13 -23 13 -33 0 -74 -8 -26 -12 -68 -10 -95 3 -35 -2 -59 -19 -95 -28 -57 -29 -81 -4 -152 11 -30 19 -61 20 -69 0 -20 38 -97 53 -109 7 -5 35 -12 62 -16 44 -5 55 -3 85 19 19 14 39 25 44 25 6 0 22 17 36 38 14 20 29 40 34 44 5 3 11 13 12 22 1 8 9 30 18 47 9 18 16 38 16 46 0 7 5 13 11 13 8 0 9 -17 4 -55 -5 -43 -4 -55 7 -55 8 0 19 5 26 12 7 7 12 10 13 7 0 -2 2 -17 4 -34 6 -47 66 -155 100 -181 18 -13 45 -24 61 -24 35 0 122 52 131 77 4 10 23 43 42 73 62 94 65 102 52 157 -10 41 -9 54 3 78 9 17 16 37 16 45 0 9 7 26 16 39 11 15 15 35 11 62 -4 33 -1 43 29 74 41 43 42 55 9 87 -59 59 -244 42 -357 -34 -36 -24 -41 -23 -22 7 23 35 11 31 -36 -12 l-41 -36 -29 34 c-16 19 -29 40 -30 47 0 18 -20 15 -20 -4 0 -12 -8 -8 -28 14 -44 47 -136 102 -161 95 -11 -3 -27 -1 -34 5 -7 6 -22 11 -32 11 -11 -1 -29 2 -40 5 -12 4 -33 -2 -51 -14z m138 -122 c71 -42 96 -66 121 -113 25 -49 38 -103 27 -110 -5 -3 -33 7 -62 23 -29 16 -65 32 -79 35 -32 8 -43 31 -28 59 19 35 -5 94 -42 107 -17 6 -28 15 -24 21 10 17 32 12 87 -22z m660 -64 c10 -9 -25 -62 -47 -72 -11 -5 -26 -22 -34 -38 -7 -16 -17 -36 -21 -44 -6 -12 -24 -14 -86 -12 -44 2 -83 8 -88 13 -11 10 43 70 89 99 17 10 51 21 77 25 26 4 53 13 59 21 12 14 41 19 51 8z m-552 -259 c30 -1 55 -7 55 -11 0 -25 -43 -88 -86 -129 -70 -66 -86 -61 -121 39 -35 103 -29 118 45 110 28 -3 77 -7 107 -9z m254 -3 c28 -25 99 -52 136 -52 32 0 46 -24 33 -57 -13 -31 -97 -142 -109 -142 -13 -1 -74 91 -74 112 0 9 -4 19 -10 22 -11 7 -14 135 -3 135 4 0 16 -8 27 -18z" transform="translate(0,94) scale(0.1,-0.1)" stroke="none" fill="#C8814D"/>

</g>

<g id="3" transform="translate(324.0,0)scale(1,1)">

<path d="M114 870 c-30 -19 -31 -23 -23 -58 4 -21 15 -51 22 -66 13 -23 13 -33 0 -74 -8 -26 -12 -68 -10 -95 3 -35 -2 -59 -19 -95 -28 -57 -29 -81 -4 -152 11 -30 19 -61 20 -69 0 -20 38 -97 53 -109 7 -5 35 -12 62 -16 44 -5 55 -3 85 19 19 14 39 25 44 25 6 0 22 17 36 38 14 20 29 40 34 44 5 3 11 13 12 22 1 8 9 30 18 47 9 18 16 38 16 46 0 7 5 13 11 13 8 0 9 -17 4 -55 -5 -43 -4 -55 7 -55 8 0 19 5 26 12 7 7 12 10 13 7 0 -2 2 -17 4 -34 6 -47 66 -155 100 -181 18 -13 45 -24 61 -24 35 0 122 52 131 77 4 10 23 43 42 73 62 94 65 102 52 157 -10 41 -9 54 3 78 9 17 16 37 16 45 0 9 7 26 16 39 11 15 15 35 11 62 -4 33 -1 43 29 74 41 43 42 55 9 87 -59 59 -244 42 -357 -34 -36 -24 -41 -23 -22 7 23 35 11 31 -36 -12 l-41 -36 -29 34 c-16 19 -29 40 -30 47 0 18 -20 15 -20 -4 0 -12 -8 -8 -28 14 -44 47 -136 102 -161 95 -11 -3 -27 -1 -34 5 -7 6 -22 11 -32 11 -11 -1 -29 2 -40 5 -12 4 -33 -2 -51 -14z m138 -122 c71 -42 96 -66 121 -113 25 -49 38 -103 27 -110 -5 -3 -33 7 -62 23 -29 16 -65 32 -79 35 -32 8 -43 31 -28 59 19 35 -5 94 -42 107 -17 6 -28 15 -24 21 10 17 32 12 87 -22z m660 -64 c10 -9 -25 -62 -47 -72 -11 -5 -26 -22 -34 -38 -7 -16 -17 -36 -21 -44 -6 -12 -24 -14 -86 -12 -44 2 -83 8 -88 13 -11 10 43 70 89 99 17 10 51 21 77 25 26 4 53 13 59 21 12 14 41 19 51 8z m-552 -259 c30 -1 55 -7 55 -11 0 -25 -43 -88 -86 -129 -70 -66 -86 -61 -121 39 -35 103 -29 118 45 110 28 -3 77 -7 107 -9z m254 -3 c28 -25 99 -52 136 -52 32 0 46 -24 33 -57 -13 -31 -97 -142 -109 -142 -13 -1 -74 91 -74 112 0 9 -4 19 -10 22 -11 7 -14 135 -3 135 4 0 16 -8 27 -18z" transform="translate(0,94) scale(0.1,-0.1)" stroke="none" fill="#C8814D"/>

</g>

<g id="4" transform="translate(432.0,0)scale(1,1)">

<path d="M114 870 c-30 -19 -31 -23 -23 -58 4 -21 15 -51 22 -66 13 -23 13 -33 0 -74 -8 -26 -12 -68 -10 -95 3 -35 -2 -59 -19 -95 -28 -57 -29 -81 -4 -152 11 -30 19 -61 20 -69 0 -20 38 -97 53 -109 7 -5 35 -12 62 -16 44 -5 55 -3 85 19 19 14 39 25 44 25 6 0 22 17 36 38 14 20 29 40 34 44 5 3 11 13 12 22 1 8 9 30 18 47 9 18 16 38 16 46 0 7 5 13 11 13 8 0 9 -17 4 -55 -5 -43 -4 -55 7 -55 8 0 19 5 26 12 7 7 12 10 13 7 0 -2 2 -17 4 -34 6 -47 66 -155 100 -181 18 -13 45 -24 61 -24 35 0 122 52 131 77 4 10 23 43 42 73 62 94 65 102 52 157 -10 41 -9 54 3 78 9 17 16 37 16 45 0 9 7 26 16 39 11 15 15 35 11 62 -4 33 -1 43 29 74 41 43 42 55 9 87 -59 59 -244 42 -357 -34 -36 -24 -41 -23 -22 7 23 35 11 31 -36 -12 l-41 -36 -29 34 c-16 19 -29 40 -30 47 0 18 -20 15 -20 -4 0 -12 -8 -8 -28 14 -44 47 -136 102 -161 95 -11 -3 -27 -1 -34 5 -7 6 -22 11 -32 11 -11 -1 -29 2 -40 5 -12 4 -33 -2 -51 -14z m138 -122 c71 -42 96 -66 121 -113 25 -49 38 -103 27 -110 -5 -3 -33 7 -62 23 -29 16 -65 32 -79 35 -32 8 -43 31 -28 59 19 35 -5 94 -42 107 -17 6 -28 15 -24 21 10 17 32 12 87 -22z m660 -64 c10 -9 -25 -62 -47 -72 -11 -5 -26 -22 -34 -38 -7 -16 -17 -36 -21 -44 -6 -12 -24 -14 -86 -12 -44 2 -83 8 -88 13 -11 10 43 70 89 99 17 10 51 21 77 25 26 4 53 13 59 21 12 14 41 19 51 8z m-552 -259 c30 -1 55 -7 55 -11 0 -25 -43 -88 -86 -129 -70 -66 -86 -61 -121 39 -35 103 -29 118 45 110 28 -3 77 -7 107 -9z m254 -3 c28 -25 99 -52 136 -52 32 0 46 -24 33 -57 -13 -31 -97 -142 -109 -142 -13 -1 -74 91 -74 112 0 9 -4 19 -10 22 -11 7 -14 135 -3 135 4 0 16 -8 27 -18z" transform="translate(0,94) scale(0.1,-0.1)" stroke="none" fill="#C8814D"/>

</g>

</g>
<g id="row3" transform="translate(14,282.0)">
<g id="0" transform="translate(0.0,0)scale(1,1)">

<path d="M114 870 c-30 -19 -31 -23 -23 -58 4 -21 15 -51 22 -66 13 -23 13 -33 0 -74 -8 -26 -12 -68 -10 -95 3 -35 -2 -59 -19 -95 -28 -57 -29 -81 -4 -152 11 -30 19 -61 20 -69 0 -20 38 -97 53 -109 7 -5 35 -12 62 -16 44 -5 55 -3 85 19 19 14 39 25 44 25 6 0 22 17 36 38 14 20 29 40 34 44 5 3 11 13 12 22 1 8 9 30 18 47 9 18 16 38 16 46 0 7 5 13 11 13 8 0 9 -17 4 -55 -5 -43 -4 -55 7 -55 8 0 19 5 26 12 7 7 12 10 13 7 0 -2 2 -17 4 -34 6 -47 66 -155 100 -181 18 -13 45 -24 61 -24 35 0 122 52 131 77 4 10 23 43 42 73 62 94 65 102 52 157 -10 41 -9 54 3 78 9 17 16 37 16 45 0 9 7 26 16 39 11 15 15 35 11 62 -4 33 -1 43 29 74 41 43 42 55 9 87 -59 59 -244 42 -357 -34 -36 -24 -41 -23 -22 7 23 35 11 31 -36 -12 l-41 -36 -29 34 c-16 19 -29 40 -30 47 0 18 -20 15 -20 -4 0 -12 -8 -8 -28 14 -44 47 -136 102 -161 95 -11 -3 -27 -1 -34 5 -7 6 -22 11 -32 11 -11 -1 -29 2 -40 5 -12 4 -33 -2 -51 -14z m138 -122 c71 -42 96 -66 121 -113 25 -49 38 -103 27 -110 -5 -3 -33 7 -62 23 -29 16 -65 32 -79 35 -32 8 -43 31 -28 59 19 35 -5 94 -42 107 -17 6 -28 15 -24 21 10 17 32 12 87 -22z m660 -64 c10 -9 -25 -62 -47 -72 -11 -5 -26 -22 -34 -38 -7 -16 -17 -36 -21 -44 -6 -12 -24 -14 -86 -12 -44 2 -83 8 -88 13 -11 10 43 70 89 99 17 10 51 21 77 25 26 4 53 13 59 21 12 14 41 19 51 8z m-552 -259 c30 -1 55 -7 55 -11 0 -25 -43 -88 -86 -129 -70 -66 -86 -61 -121 39 -35 103 -29 118 45 110 28 -3 77 -7 107 -9z m254 -3 c28 -25 99 -52 136 -52 32 0 46 -24 33 -57 -13 -31 -97 -142 -109 -142 -13 -1 -74 91 -74 112 0 9 -4 19 -10 22 -11 7 -14 135 -3 135 4 0 16 -8 27 -18z" transform="translate(0,94) scale(0.1,-0.1)" stroke="none" fill="#C8814D"/>

</g>

<g id="1" transform="translate(108.0,0)scale(1,1)">

<path d="M114 870 c-30 -19 -31 -23 -23 -58 4 -21 15 -51 22 -66 13 -23 13 -33 0 -74 -8 -26 -12 -68 -10 -95 3 -35 -2 -59 -19 -95 -28 -57 -29 -81 -4 -152 11 -30 19 -61 20 -69 0 -20 38 -97 53 -109 7 -5 35 -12 62 -16 44 -5 55 -3 85 19 19 14 39 25 44 25 6 0 22 17 36 38 14 20 29 40 34 44 5 3 11 13 12 22 1 8 9 30 18 47 9 18 16 38 16 46 0 7 5 13 11 13 8 0 9 -17 4 -55 -5 -43 -4 -55 7 -55 8 0 19 5 26 12 7 7 12 10 13 7 0 -2 2 -17 4 -34 6 -47 66 -155 100 -181 18 -13 45 -24 61 -24 35 0 122 52 131 77 4 10 23 43 42 73 62 94 65 102 52 157 -10 41 -9 54 3 78 9 17 16 37 16 45 0 9 7 26 16 39 11 15 15 35 11 62 -4 33 -1 43 29 74 41 43 42 55 9 87 -59 59 -244 42 -357 -34 -36 -24 -41 -23 -22 7 23 35 11 31 -36 -12 l-41 -36 -29 34 c-16 19 -29 40 -30 47 0 18 -20 15 -20 -4 0 -12 -8 -8 -28 14 -44 47 -136 102 -161 95 -11 -3 -27 -1 -34 5 -7 6 -22 11 -32 11 -11 -1 -29 2 -40 5 -12 4 -33 -2 -51 -14z m138 -122 c71 -42 96 -66 121 -113 25 -49 38 -103 27 -110 -5 -3 -33 7 -62 23 -29 16 -65 32 -79 35 -32 8 -43 31 -28 59 19 35 -5 94 -42 107 -17 6 -28 15 -24 21 10 17 32 12 87 -22z m660 -64 c10 -9 -25 -62 -47 -72 -11 -5 -26 -22 -34 -38 -7 -16 -17 -36 -21 -44 -6 -12 -24 -14 -86 -12 -44 2 -83 8 -88 13 -11 10 43 70 89 99 17 10 51 21 77 25 26 4 53 13 59 21 12 14 41 19 51 8z m-552 -259 c30 -1 55 -7 55 -11 0 -25 -43 -88 -86 -129 -70 -66 -86 -61 -121 39 -35 103 -29 118 45 110 28 -3 77 -7 107 -9z m254 -3 c28 -25 99 -52 136 -52 32 0 46 -24 33 -57 -13 -31 -97 -142 -109 -142 -13 -1 -74 91 -74 112 0 9 -4 19 -10 22 -11 7 -14 135 -3 135 4 0 16 -8 27 -18z" transform="translate(0,94) scale(0.1,-0.1)" stroke="none" fill="#C8814D"/>

</g>

<g id="2" transform="translate(216.0,0)scale(1,1)">

<path d="M114 870 c-30 -19 -31 -23 -23 -58 4 -21 15 -51 22 -66 13 -23 13 -33 0 -74 -8 -26 -12 -68 -10 -95 3 -35 -2 -59 -19 -95 -28 -57 -29 -81 -4 -152 11 -30 19 -61 20 -69 0 -20 38 -97 53 -109 7 -5 35 -12 62 -16 44 -5 55 -3 85 19 19 14 39 25 44 25 6 0 22 17 36 38 14 20 29 40 34 44 5 3 11 13 12 22 1 8 9 30 18 47 9 18 16 38 16 46 0 7 5 13 11 13 8 0 9 -17 4 -55 -5 -43 -4 -55 7 -55 8 0 19 5 26 12 7 7 12 10 13 7 0 -2 2 -17 4 -34 6 -47 66 -155 100 -181 18 -13 45 -24 61 -24 35 0 122 52 131 77 4 10 23 43 42 73 62 94 65 102 52 157 -10 41 -9 54 3 78 9 17 16 37 16 45 0 9 7 26 16 39 11 15 15 35 11 62 -4 33 -1 43 29 74 41 43 42 55 9 87 -59 59 -244 42 -357 -34 -36 -24 -41 -23 -22 7 23 35 11 31 -36 -12 l-41 -36 -29 34 c-16 19 -29 40 -30 47 0 18 -20 15 -20 -4 0 -12 -8 -8 -28 14 -44 47 -136 102 -161 95 -11 -3 -27 -1 -34 5 -7 6 -22 11 -32 11 -11 -1 -29 2 -40 5 -12 4 -33 -2 -51 -14z m138 -122 c71 -42 96 -66 121 -113 25 -49 38 -103 27 -110 -5 -3 -33 7 -62 23 -29 16 -65 32 -79 35 -32 8 -43 31 -28 59 19 35 -5 94 -42 107 -17 6 -28 15 -24 21 10 17 32 12 87 -22z m660 -64 c10 -9 -25 -62 -47 -72 -11 -5 -26 -22 -34 -38 -7 -16 -17 -36 -21 -44 -6 -12 -24 -14 -86 -12 -44 2 -83 8 -88 13 -11 10 43 70 89 99 17 10 51 21 77 25 26 4 53 13 59 21 12 14 41 19 51 8z m-552 -259 c30 -1 55 -7 55 -11 0 -25 -43 -88 -86 -129 -70 -66 -86 -61 -121 39 -35 103 -29 118 45 110 28 -3 77 -7 107 -9z m254 -3 c28 -25 99 -52 136 -52 32 0 46 -24 33 -57 -13 -31 -97 -142 -109 -142 -13 -1 -74 91 -74 112 0 9 -4 19 -10 22 -11 7 -14 135 -3 135 4 0 16 -8 27 -18z" transform="translate(0,94) scale(0.1,-0.1)" stroke="none" fill="#C8814D"/>

</g>

<g id="3" transform="translate(324.0,0)scale(1,1)">

<path d="M114 870 c-30 -19 -31 -23 -23 -58 4 -21 15 -51 22 -66 13 -23 13 -33 0 -74 -8 -26 -12 -68 -10 -95 3 -35 -2 -59 -19 -95 -28 -57 -29 -81 -4 -152 11 -30 19 -61 20 -69 0 -20 38 -97 53 -109 7 -5 35 -12 62 -16 44 -5 55 -3 85 19 19 14 39 25 44 25 6 0 22 17 36 38 14 20 29 40 34 44 5 3 11 13 12 22 1 8 9 30 18 47 9 18 16 38 16 46 0 7 5 13 11 13 8 0 9 -17 4 -55 -5 -43 -4 -55 7 -55 8 0 19 5 26 12 7 7 12 10 13 7 0 -2 2 -17 4 -34 6 -47 66 -155 100 -181 18 -13 45 -24 61 -24 35 0 122 52 131 77 4 10 23 43 42 73 62 94 65 102 52 157 -10 41 -9 54 3 78 9 17 16 37 16 45 0 9 7 26 16 39 11 15 15 35 11 62 -4 33 -1 43 29 74 41 43 42 55 9 87 -59 59 -244 42 -357 -34 -36 -24 -41 -23 -22 7 23 35 11 31 -36 -12 l-41 -36 -29 34 c-16 19 -29 40 -30 47 0 18 -20 15 -20 -4 0 -12 -8 -8 -28 14 -44 47 -136 102 -161 95 -11 -3 -27 -1 -34 5 -7 6 -22 11 -32 11 -11 -1 -29 2 -40 5 -12 4 -33 -2 -51 -14z m138 -122 c71 -42 96 -66 121 -113 25 -49 38 -103 27 -110 -5 -3 -33 7 -62 23 -29 16 -65 32 -79 35 -32 8 -43 31 -28 59 19 35 -5 94 -42 107 -17 6 -28 15 -24 21 10 17 32 12 87 -22z m660 -64 c10 -9 -25 -62 -47 -72 -11 -5 -26 -22 -34 -38 -7 -16 -17 -36 -21 -44 -6 -12 -24 -14 -86 -12 -44 2 -83 8 -88 13 -11 10 43 70 89 99 17 10 51 21 77 25 26 4 53 13 59 21 12 14 41 19 51 8z m-552 -259 c30 -1 55 -7 55 -11 0 -25 -43 -88 -86 -129 -70 -66 -86 -61 -121 39 -35 103 -29 118 45 110 28 -3 77 -7 107 -9z m254 -3 c28 -25 99 -52 136 -52 32 0 46 -24 33 -57 -13 -31 -97 -142 -109 -142 -13 -1 -74 91 -74 112 0 9 -4 19 -10 22 -11 7 -14 135 -3 135 4 0 16 -8 27 -18z" transform="translate(0,94) scale(0.1,-0.1)" stroke="none" fill="#C8814D"/>

</g>

<g id="4" transform="translate(432.0,0)scale(1,1)">

<path d="M114 870 c-30 -19 -31 -23 -23 -58 4 -21 15 -51 22 -66 13 -23 13 -33 0 -74 -8 -26 -12 -68 -10 -95 3 -35 -2 -59 -19 -95 -28 -57 -29 -81 -4 -152 11 -30 19 -61 20 -69 0 -20 38 -97 53 -109 7 -5 35 -12 62 -16 44 -5 55 -3 85 19 19 14 39 25 44 25 6 0 22 17 36 38 14 20 29 40 34 44 5 3 11 13 12 22 1 8 9 30 18 47 9 18 16 38 16 46 0 7 5 13 11 13 8 0 9 -17 4 -55 -5 -43 -4 -55 7 -55 8 0 19 5 26 12 7 7 12 10 13 7 0 -2 2 -17 4 -34 6 -47 66 -155 100 -181 18 -13 45 -24 61 -24 35 0 122 52 131 77 4 10 23 43 42 73 62 94 65 102 52 157 -10 41 -9 54 3 78 9 17 16 37 16 45 0 9 7 26 16 39 11 15 15 35 11 62 -4 33 -1 43 29 74 41 43 42 55 9 87 -59 59 -244 42 -357 -34 -36 -24 -41 -23 -22 7 23 35 11 31 -36 -12 l-41 -36 -29 34 c-16 19 -29 40 -30 47 0 18 -20 15 -20 -4 0 -12 -8 -8 -28 14 -44 47 -136 102 -161 95 -11 -3 -27 -1 -34 5 -7 6 -22 11 -32 11 -11 -1 -29 2 -40 5 -12 4 -33 -2 -51 -14z m138 -122 c71 -42 96 -66 121 -113 25 -49 38 -103 27 -110 -5 -3 -33 7 -62 23 -29 16 -65 32 -79 35 -32 8 -43 31 -28 59 19 35 -5 94 -42 107 -17 6 -28 15 -24 21 10 17 32 12 87 -22z m660 -64 c10 -9 -25 -62 -47 -72 -11 -5 -26 -22 -34 -38 -7 -16 -17 -36 -21 -44 -6 -12 -24 -14 -86 -12 -44 2 -83 8 -88 13 -11 10 43 70 89 99 17 10 51 21 77 25 26 4 53 13 59 21 12 14 41 19 51 8z m-552 -259 c30 -1 55 -7 55 -11 0 -25 -43 -88 -86 -129 -70 -66 -86 -61 -121 39 -35 103 -29 118 45 110 28 -3 77 -7 107 -9z m254 -3 c28 -25 99 -52 136 -52 32 0 46 -24 33 -57 -13 -31 -97 -142 -109 -142 -13 -1 -74 91 -74 112 0 9 -4 19 -10 22 -11 7 -14 135 -3 135 4 0 16 -8 27 -18z" transform="translate(0,94) scale(0.1,-0.1)" stroke="none" fill="#C8814D"/>

</g>

</g>
</svg>