<?xml version="1.0" standalone="no"?>
<!DOCTYPE svg PUBLIC "-//W3C//DTD SVG 20010904//EN"
 "http://www.w3.org/TR/2001/REC-SVG-20010904/DTD/svg10.dtd">
<svg version="1.0" xmlns="http://www.w3.org/2000/svg" 
width="100.000000pt" height="58.000000pt" viewBox="0 0 100.000000 58.000000"
preserveAspectRatio = "xMidYMid meet" >
<metadata>
Created by ZoeQU, 2022
</metadata>
<rect width="100.000000" height="58.000000" fill="#BBBBDD"/>
<path d="M400 290 c-15 -5 10 -6 60 -3 47 3 87 7 89 9 9 8 -125 2 -149 -6z" transform="translate(0.000000,58.000000) scale(0.100000,-0.100000)" stroke="none" fill="#3970D6"/>

<path d="M515 191 c-22 -4 33 -7 123 -7 90 1 153 4 140 8 -29 8 -211 7 -263 -1z" transform="translate(0.000000,58.000000) scale(0.100000,-0.100000)" stroke="none" fill="#3970D6"/>

<path d="M303 156 c-87 -21 -148 -52 -200 -98 -12 -11 -26 -17 -32 -13 -6 3 -11 -1 -11 -9 0 -22 3 -21 69 29 69 52 103 66 221 88 125 24 129 25 85 25 -22 0 -81 -10 -132 -22z" transform="translate(0.000000,58.000000) scale(0.100000,-0.100000)" stroke="none" fill="#3970D6"/>

<path d="M735 402 c44 -27 131 -109 124 -116 -3 -4 -32 0 -65 9 -35 9 -95 14 -149 13 l-90 -1 110 -7 c61 -4 132 -15 158 -24 56 -20 66 -16 44 16 -37 52 -125 128 -149 128 -7 0 1 -8 17 -18z" transform="translate(0.000000,58.000000) scale(0.100000,-0.100000)" stroke="none" fill="#3970D6"/>

<path d="M465 443 c-93 -22 -184 -67 -248 -123 -47 -42 -105 -126 -93 -137 3 -3 24 6 47 21 23 16 58 34 78 41 20 8 28 14 18 14 -20 1 -93 -34 -102 -49 -8 -13 -25 -13 -25 0 0 20 126 143 170 165 89 45 184 68 263 62 40 -3 86 -8 102 -11 21 -4 18 -1 -10 8 -38 14 -158 19 -200 9z" transform="translate(0.000000,58.000000) scale(0.100000,-0.100000)" stroke="none" fill="#3970D6"/>

<path d="M440 550 c-209 -49 -324 -158 -389 -366 -10 -30 -11 -53 -4 -80 l10 -39 0 55 c0 74 51 203 103 263 50 56 117 101 184 123 28 9 56 20 61 24 6 4 45 11 87 15 144 13 261 -43 363 -173 58 -73 95 -147 95 -189 0 -38 -1 -38 -63 -17 -25 9 -54 14 -64 12 -16 -4 36 -20 110 -35 26 -5 27 -4 27 37 0 64 -52 151 -145 246 -64 66 -92 86 -140 105 -65 24 -176 33 -235 19z" transform="translate(0.000000,58.000000) scale(0.100000,-0.100000)" stroke="none" fill="#3970D6"/>

<path d="M465 543 c-22 -2 -49 -8 -60 -13 -11 -5 -46 -19 -78 -30 -64 -24 -141 -81 -182 -134 -45 -60 -89 -183 -88 -250 1 -32 6 -63 11 -68 6 -6 26 3 57 27 26 20 59 42 74 49 63 32 327 76 461 76 72 0 190 -19 245 -40 40 -15 45 -13 45 23 0 68 -95 211 -189 286 -30 23 -78 47 -117 60 -64 20 -90 22 -179 14z m210 -111 c82 -23 180 -100 202 -158 5 -14 2 -16 -13 -11 -91 28 -139 37 -204 37 -91 0 -249 -16 -310 -30 -107 -26 -128 -33 -173 -62 -26 -17 -50 -28 -54 -25 -11 11 47 95 94 137 64 56 155 101 248 123 47 11 154 6 210 -11z" transform="translate(0.000000,58.000000) scale(0.100000,-0.100000)" stroke="none" fill="#72A4DD"/>

</svg>