<?xml version="1.0" standalone="no"?>
<!DOCTYPE svg PUBLIC "-//W3C//DTD SVG 20010904//EN"
 "http://www.w3.org/TR/2001/REC-SVG-20010904/DTD/svg10.dtd">
<svg version="1.0" xmlns="http://www.w3.org/2000/svg" width="240pt" height="344pt" viewBox="0 0 240 344" preserveAspectRatio = "xMidYMid meet" >
<metadata>
Created by ZoeQu, written in 2022
</metadata>
<rect width="240" height="344" fill="#191F33"/>
<g id="row0" transform="translate(8,0.0)">
<g id="0" transform="translate(0.0,0)scale(1,1)">

<path d="M143 273 c-23 -75 -23 -77 -3 -34 11 25 19 51 18 59 -2 7 -8 -4 -15 -25z" transform="translate(0,86) scale(0.1,-0.1)" stroke="none" fill="#D6A76A"/>

<path d="M321 757 c16 -13 99 -57 99 -53 0 7 -84 56 -95 56 -5 0 -6 -1 -4 -3z" transform="translate(0,86) scale(0.1,-0.1)" stroke="none" fill="#B35819"/>

<path d="M156 108 c-22 -31 -20 -38 12 -37 16 1 20 3 10 6 -21 5 -23 24 -6 41 7 7 9 12 6 12 -4 0 -14 -10 -22 -22z" transform="translate(0,86) scale(0.1,-0.1)" stroke="none" fill="#B35819"/>

<path d="M443 388 c-6 -24 -13 -52 -17 -63 -5 -12 -1 -10 7 5 15 25 33 100 25 100 -3 0 -9 -19 -15 -42z" transform="translate(0,86) scale(0.1,-0.1)" stroke="none" fill="#B35819"/>

<path d="M470 658 c25 -25 47 -44 49 -42 6 5 -10 23 -52 55 l-42 32 45 -45z" transform="translate(0,86) scale(0.1,-0.1)" stroke="none" fill="#B35819"/>

<path d="M241 796 c10 -10 129 -54 124 -46 -3 5 -30 18 -61 29 -53 20 -72 25 -63 17z" transform="translate(0,86) scale(0.1,-0.1)" stroke="none" fill="#D6A76A"/>

<path d="M168 803 c-28 -3 -38 -9 -38 -21 1 -19 30 -63 30 -45 0 7 -4 15 -10 18 -21 13 -10 35 18 36 15 0 36 4 47 9 21 9 15 9 -47 3z" transform="translate(0,86) scale(0.1,-0.1)" stroke="none" fill="#D6A76A"/>

<path d="M241 247 c-7 -19 -27 -61 -46 -93 -19 -33 -25 -48 -14 -34 26 30 84 149 76 156 -3 3 -10 -10 -16 -29z" transform="translate(0,86) scale(0.1,-0.1)" stroke="none" fill="#D6A76A"/>

<path d="M545 485 c0 -52 3 -87 7 -77 9 22 9 132 0 154 -4 10 -7 -25 -7 -77z" transform="translate(0,86) scale(0.1,-0.1)" stroke="none" fill="#D6A76A"/>

<path d="M102 178 c-7 -7 -12 -16 -12 -21 0 -4 -14 -28 -31 -53 -17 -25 -28 -50 -26 -57 4 -9 6 -8 6 1 1 7 14 32 30 55 47 69 62 104 33 75z" transform="translate(0,86) scale(0.1,-0.1)" stroke="none" fill="#D6A76A"/>

<path d="M380 737 c3 -3 33 -26 68 -51 34 -26 67 -58 72 -71 11 -30 20 -33 13 -5 -6 23 -74 86 -124 114 -19 11 -32 17 -29 13z" transform="translate(0,86) scale(0.1,-0.1)" stroke="none" fill="#D6A76A"/>

<path d="M384 249 c-14 -29 -48 -74 -75 -101 -26 -26 -40 -44 -30 -38 29 15 90 89 117 143 13 26 22 47 19 47 -2 0 -16 -23 -31 -51z" transform="translate(0,86) scale(0.1,-0.1)" stroke="none" fill="#B35819"/>

<path d="M451 238 c-30 -48 -60 -80 -114 -121 -27 -21 -45 -37 -42 -37 19 0 108 76 138 118 40 55 50 72 43 72 -2 0 -14 -15 -25 -32z" transform="translate(0,86) scale(0.1,-0.1)" stroke="none" fill="#B35819"/>

<path d="M66 100 c-14 -22 -26 -44 -26 -50 0 -12 135 -13 164 -1 11 4 -19 6 -67 3 -48 -2 -87 -1 -87 3 0 4 8 19 18 33 26 37 34 52 29 52 -2 0 -16 -18 -31 -40z" transform="translate(0,86) scale(0.1,-0.1)" stroke="none" fill="#B35819"/>

<path d="M530 569 c16 -54 12 -135 -9 -194 -11 -31 -16 -53 -12 -50 5 2 16 30 26 61 19 61 17 186 -4 207 -8 8 -8 2 -1 -24z" transform="translate(0,86) scale(0.1,-0.1)" stroke="none" fill="#B35819"/>

<path d="M185 533 c0 -79 3 -134 7 -121 9 32 9 241 0 254 -4 7 -7 -53 -7 -133z" transform="translate(0,86) scale(0.1,-0.1)" stroke="none" fill="#D6A76A"/>

<path d="M260 726 c0 -2 8 -21 17 -42 11 -24 20 -77 24 -139 l5 -100 2 91 c1 64 -3 103 -14 129 -18 45 -14 52 20 30 14 -10 26 -15 26 -12 0 3 -15 15 -34 26 -32 20 -46 25 -46 17z" transform="translate(0,86) scale(0.1,-0.1)" stroke="none" fill="#D6A76A"/>

<path d="M515 337 c-33 -78 -106 -177 -159 -217 -28 -21 -78 -48 -111 -59 -36 -12 -46 -18 -25 -15 92 17 185 87 247 187 44 69 77 137 71 143 -3 2 -13 -15 -23 -39z" transform="translate(0,86) scale(0.1,-0.1)" stroke="none" fill="#D6A76A"/>

<path d="M447 519 c16 -138 -98 -362 -212 -415 -24 -11 -25 -13 -5 -8 123 31 271 332 220 449 -6 13 -7 5 -3 -26z" transform="translate(0,86) scale(0.1,-0.1)" stroke="none" fill="#D6A76A"/>

<path d="M173 793 c-18 -2 -33 -7 -33 -11 0 -4 13 -34 30 -67 27 -55 29 -69 29 -165 1 -115 -27 -245 -73 -346 -14 -30 -23 -54 -20 -54 11 0 56 114 79 201 19 71 25 120 25 200 0 100 -2 111 -30 164 -16 31 -30 58 -30 60 0 1 18 5 39 9 25 4 52 1 75 -9 50 -21 59 -17 11 5 -41 19 -47 20 -102 13z" transform="translate(0,86) scale(0.1,-0.1)" stroke="none" fill="#B35819"/>

<path d="M250 731 c0 -5 9 -30 20 -56 32 -75 25 -241 -16 -364 -8 -24 -13 -46 -10 -48 2 -3 10 12 16 34 46 151 53 300 20 379 -11 26 -18 49 -16 52 9 8 104 -58 136 -95 38 -43 50 -72 60 -143 7 -51 7 -52 9 -14 2 86 -48 168 -140 228 -56 36 -79 44 -79 27z" transform="translate(0,86) scale(0.1,-0.1)" stroke="none" fill="#B35819"/>

<path d="M178 783 c-16 -2 -28 -6 -28 -8 0 -1 14 -29 30 -60 28 -53 30 -64 30 -164 0 -159 -43 -308 -124 -435 -20 -31 -36 -59 -36 -61 0 -13 135 -3 189 14 193 60 342 319 290 504 -12 45 -71 105 -144 147 -54 30 -154 71 -170 68 -5 0 -22 -3 -37 -5z m151 -79 c151 -98 177 -233 81 -423 -66 -131 -133 -192 -229 -207 -46 -7 -51 1 -21 39 104 133 164 436 110 562 -34 79 -25 83 59 29z" transform="translate(0,86) scale(0.1,-0.1)" stroke="none" fill="#6E2D13"/>

</g>

<g id="1" transform="translate(60.0,0)scale(1,1)">

<path d="M143 273 c-23 -75 -23 -77 -3 -34 11 25 19 51 18 59 -2 7 -8 -4 -15 -25z" transform="translate(0,86) scale(0.1,-0.1)" stroke="none" fill="#D6A76A"/>

<path d="M321 757 c16 -13 99 -57 99 -53 0 7 -84 56 -95 56 -5 0 -6 -1 -4 -3z" transform="translate(0,86) scale(0.1,-0.1)" stroke="none" fill="#B35819"/>

<path d="M156 108 c-22 -31 -20 -38 12 -37 16 1 20 3 10 6 -21 5 -23 24 -6 41 7 7 9 12 6 12 -4 0 -14 -10 -22 -22z" transform="translate(0,86) scale(0.1,-0.1)" stroke="none" fill="#B35819"/>

<path d="M443 388 c-6 -24 -13 -52 -17 -63 -5 -12 -1 -10 7 5 15 25 33 100 25 100 -3 0 -9 -19 -15 -42z" transform="translate(0,86) scale(0.1,-0.1)" stroke="none" fill="#B35819"/>

<path d="M470 658 c25 -25 47 -44 49 -42 6 5 -10 23 -52 55 l-42 32 45 -45z" transform="translate(0,86) scale(0.1,-0.1)" stroke="none" fill="#B35819"/>

<path d="M241 796 c10 -10 129 -54 124 -46 -3 5 -30 18 -61 29 -53 20 -72 25 -63 17z" transform="translate(0,86) scale(0.1,-0.1)" stroke="none" fill="#D6A76A"/>

<path d="M168 803 c-28 -3 -38 -9 -38 -21 1 -19 30 -63 30 -45 0 7 -4 15 -10 18 -21 13 -10 35 18 36 15 0 36 4 47 9 21 9 15 9 -47 3z" transform="translate(0,86) scale(0.1,-0.1)" stroke="none" fill="#D6A76A"/>

<path d="M241 247 c-7 -19 -27 -61 -46 -93 -19 -33 -25 -48 -14 -34 26 30 84 149 76 156 -3 3 -10 -10 -16 -29z" transform="translate(0,86) scale(0.1,-0.1)" stroke="none" fill="#D6A76A"/>

<path d="M545 485 c0 -52 3 -87 7 -77 9 22 9 132 0 154 -4 10 -7 -25 -7 -77z" transform="translate(0,86) scale(0.1,-0.1)" stroke="none" fill="#D6A76A"/>

<path d="M102 178 c-7 -7 -12 -16 -12 -21 0 -4 -14 -28 -31 -53 -17 -25 -28 -50 -26 -57 4 -9 6 -8 6 1 1 7 14 32 30 55 47 69 62 104 33 75z" transform="translate(0,86) scale(0.1,-0.1)" stroke="none" fill="#D6A76A"/>

<path d="M380 737 c3 -3 33 -26 68 -51 34 -26 67 -58 72 -71 11 -30 20 -33 13 -5 -6 23 -74 86 -124 114 -19 11 -32 17 -29 13z" transform="translate(0,86) scale(0.1,-0.1)" stroke="none" fill="#D6A76A"/>

<path d="M384 249 c-14 -29 -48 -74 -75 -101 -26 -26 -40 -44 -30 -38 29 15 90 89 117 143 13 26 22 47 19 47 -2 0 -16 -23 -31 -51z" transform="translate(0,86) scale(0.1,-0.1)" stroke="none" fill="#B35819"/>

<path d="M451 238 c-30 -48 -60 -80 -114 -121 -27 -21 -45 -37 -42 -37 19 0 108 76 138 118 40 55 50 72 43 72 -2 0 -14 -15 -25 -32z" transform="translate(0,86) scale(0.1,-0.1)" stroke="none" fill="#B35819"/>

<path d="M66 100 c-14 -22 -26 -44 -26 -50 0 -12 135 -13 164 -1 11 4 -19 6 -67 3 -48 -2 -87 -1 -87 3 0 4 8 19 18 33 26 37 34 52 29 52 -2 0 -16 -18 -31 -40z" transform="translate(0,86) scale(0.1,-0.1)" stroke="none" fill="#B35819"/>

<path d="M530 569 c16 -54 12 -135 -9 -194 -11 -31 -16 -53 -12 -50 5 2 16 30 26 61 19 61 17 186 -4 207 -8 8 -8 2 -1 -24z" transform="translate(0,86) scale(0.1,-0.1)" stroke="none" fill="#B35819"/>

<path d="M185 533 c0 -79 3 -134 7 -121 9 32 9 241 0 254 -4 7 -7 -53 -7 -133z" transform="translate(0,86) scale(0.1,-0.1)" stroke="none" fill="#D6A76A"/>

<path d="M260 726 c0 -2 8 -21 17 -42 11 -24 20 -77 24 -139 l5 -100 2 91 c1 64 -3 103 -14 129 -18 45 -14 52 20 30 14 -10 26 -15 26 -12 0 3 -15 15 -34 26 -32 20 -46 25 -46 17z" transform="translate(0,86) scale(0.1,-0.1)" stroke="none" fill="#D6A76A"/>

<path d="M515 337 c-33 -78 -106 -177 -159 -217 -28 -21 -78 -48 -111 -59 -36 -12 -46 -18 -25 -15 92 17 185 87 247 187 44 69 77 137 71 143 -3 2 -13 -15 -23 -39z" transform="translate(0,86) scale(0.1,-0.1)" stroke="none" fill="#D6A76A"/>

<path d="M447 519 c16 -138 -98 -362 -212 -415 -24 -11 -25 -13 -5 -8 123 31 271 332 220 449 -6 13 -7 5 -3 -26z" transform="translate(0,86) scale(0.1,-0.1)" stroke="none" fill="#D6A76A"/>

<path d="M173 793 c-18 -2 -33 -7 -33 -11 0 -4 13 -34 30 -67 27 -55 29 -69 29 -165 1 -115 -27 -245 -73 -346 -14 -30 -23 -54 -20 -54 11 0 56 114 79 201 19 71 25 120 25 200 0 100 -2 111 -30 164 -16 31 -30 58 -30 60 0 1 18 5 39 9 25 4 52 1 75 -9 50 -21 59 -17 11 5 -41 19 -47 20 -102 13z" transform="translate(0,86) scale(0.1,-0.1)" stroke="none" fill="#B35819"/>

<path d="M250 731 c0 -5 9 -30 20 -56 32 -75 25 -241 -16 -364 -8 -24 -13 -46 -10 -48 2 -3 10 12 16 34 46 151 53 300 20 379 -11 26 -18 49 -16 52 9 8 104 -58 136 -95 38 -43 50 -72 60 -143 7 -51 7 -52 9 -14 2 86 -48 168 -140 228 -56 36 -79 44 -79 27z" transform="translate(0,86) scale(0.1,-0.1)" stroke="none" fill="#B35819"/>

<path d="M178 783 c-16 -2 -28 -6 -28 -8 0 -1 14 -29 30 -60 28 -53 30 -64 30 -164 0 -159 -43 -308 -124 -435 -20 -31 -36 -59 -36 -61 0 -13 135 -3 189 14 193 60 342 319 290 504 -12 45 -71 105 -144 147 -54 30 -154 71 -170 68 -5 0 -22 -3 -37 -5z m151 -79 c151 -98 177 -233 81 -423 -66 -131 -133 -192 -229 -207 -46 -7 -51 1 -21 39 104 133 164 436 110 562 -34 79 -25 83 59 29z" transform="translate(0,86) scale(0.1,-0.1)" stroke="none" fill="#6E2D13"/>

</g>

<g id="2" transform="translate(120.0,0)scale(1,1)">

<path d="M143 273 c-23 -75 -23 -77 -3 -34 11 25 19 51 18 59 -2 7 -8 -4 -15 -25z" transform="translate(0,86) scale(0.1,-0.1)" stroke="none" fill="#D6A76A"/>

<path d="M321 757 c16 -13 99 -57 99 -53 0 7 -84 56 -95 56 -5 0 -6 -1 -4 -3z" transform="translate(0,86) scale(0.1,-0.1)" stroke="none" fill="#B35819"/>

<path d="M156 108 c-22 -31 -20 -38 12 -37 16 1 20 3 10 6 -21 5 -23 24 -6 41 7 7 9 12 6 12 -4 0 -14 -10 -22 -22z" transform="translate(0,86) scale(0.1,-0.1)" stroke="none" fill="#B35819"/>

<path d="M443 388 c-6 -24 -13 -52 -17 -63 -5 -12 -1 -10 7 5 15 25 33 100 25 100 -3 0 -9 -19 -15 -42z" transform="translate(0,86) scale(0.1,-0.1)" stroke="none" fill="#B35819"/>

<path d="M470 658 c25 -25 47 -44 49 -42 6 5 -10 23 -52 55 l-42 32 45 -45z" transform="translate(0,86) scale(0.1,-0.1)" stroke="none" fill="#B35819"/>

<path d="M241 796 c10 -10 129 -54 124 -46 -3 5 -30 18 -61 29 -53 20 -72 25 -63 17z" transform="translate(0,86) scale(0.1,-0.1)" stroke="none" fill="#D6A76A"/>

<path d="M168 803 c-28 -3 -38 -9 -38 -21 1 -19 30 -63 30 -45 0 7 -4 15 -10 18 -21 13 -10 35 18 36 15 0 36 4 47 9 21 9 15 9 -47 3z" transform="translate(0,86) scale(0.1,-0.1)" stroke="none" fill="#D6A76A"/>

<path d="M241 247 c-7 -19 -27 -61 -46 -93 -19 -33 -25 -48 -14 -34 26 30 84 149 76 156 -3 3 -10 -10 -16 -29z" transform="translate(0,86) scale(0.1,-0.1)" stroke="none" fill="#D6A76A"/>

<path d="M545 485 c0 -52 3 -87 7 -77 9 22 9 132 0 154 -4 10 -7 -25 -7 -77z" transform="translate(0,86) scale(0.1,-0.1)" stroke="none" fill="#D6A76A"/>

<path d="M102 178 c-7 -7 -12 -16 -12 -21 0 -4 -14 -28 -31 -53 -17 -25 -28 -50 -26 -57 4 -9 6 -8 6 1 1 7 14 32 30 55 47 69 62 104 33 75z" transform="translate(0,86) scale(0.1,-0.1)" stroke="none" fill="#D6A76A"/>

<path d="M380 737 c3 -3 33 -26 68 -51 34 -26 67 -58 72 -71 11 -30 20 -33 13 -5 -6 23 -74 86 -124 114 -19 11 -32 17 -29 13z" transform="translate(0,86) scale(0.1,-0.1)" stroke="none" fill="#D6A76A"/>

<path d="M384 249 c-14 -29 -48 -74 -75 -101 -26 -26 -40 -44 -30 -38 29 15 90 89 117 143 13 26 22 47 19 47 -2 0 -16 -23 -31 -51z" transform="translate(0,86) scale(0.1,-0.1)" stroke="none" fill="#B35819"/>

<path d="M451 238 c-30 -48 -60 -80 -114 -121 -27 -21 -45 -37 -42 -37 19 0 108 76 138 118 40 55 50 72 43 72 -2 0 -14 -15 -25 -32z" transform="translate(0,86) scale(0.1,-0.1)" stroke="none" fill="#B35819"/>

<path d="M66 100 c-14 -22 -26 -44 -26 -50 0 -12 135 -13 164 -1 11 4 -19 6 -67 3 -48 -2 -87 -1 -87 3 0 4 8 19 18 33 26 37 34 52 29 52 -2 0 -16 -18 -31 -40z" transform="translate(0,86) scale(0.1,-0.1)" stroke="none" fill="#B35819"/>

<path d="M530 569 c16 -54 12 -135 -9 -194 -11 -31 -16 -53 -12 -50 5 2 16 30 26 61 19 61 17 186 -4 207 -8 8 -8 2 -1 -24z" transform="translate(0,86) scale(0.1,-0.1)" stroke="none" fill="#B35819"/>

<path d="M185 533 c0 -79 3 -134 7 -121 9 32 9 241 0 254 -4 7 -7 -53 -7 -133z" transform="translate(0,86) scale(0.1,-0.1)" stroke="none" fill="#D6A76A"/>

<path d="M260 726 c0 -2 8 -21 17 -42 11 -24 20 -77 24 -139 l5 -100 2 91 c1 64 -3 103 -14 129 -18 45 -14 52 20 30 14 -10 26 -15 26 -12 0 3 -15 15 -34 26 -32 20 -46 25 -46 17z" transform="translate(0,86) scale(0.1,-0.1)" stroke="none" fill="#D6A76A"/>

<path d="M515 337 c-33 -78 -106 -177 -159 -217 -28 -21 -78 -48 -111 -59 -36 -12 -46 -18 -25 -15 92 17 185 87 247 187 44 69 77 137 71 143 -3 2 -13 -15 -23 -39z" transform="translate(0,86) scale(0.1,-0.1)" stroke="none" fill="#D6A76A"/>

<path d="M447 519 c16 -138 -98 -362 -212 -415 -24 -11 -25 -13 -5 -8 123 31 271 332 220 449 -6 13 -7 5 -3 -26z" transform="translate(0,86) scale(0.1,-0.1)" stroke="none" fill="#D6A76A"/>

<path d="M173 793 c-18 -2 -33 -7 -33 -11 0 -4 13 -34 30 -67 27 -55 29 -69 29 -165 1 -115 -27 -245 -73 -346 -14 -30 -23 -54 -20 -54 11 0 56 114 79 201 19 71 25 120 25 200 0 100 -2 111 -30 164 -16 31 -30 58 -30 60 0 1 18 5 39 9 25 4 52 1 75 -9 50 -21 59 -17 11 5 -41 19 -47 20 -102 13z" transform="translate(0,86) scale(0.1,-0.1)" stroke="none" fill="#B35819"/>

<path d="M250 731 c0 -5 9 -30 20 -56 32 -75 25 -241 -16 -364 -8 -24 -13 -46 -10 -48 2 -3 10 12 16 34 46 151 53 300 20 379 -11 26 -18 49 -16 52 9 8 104 -58 136 -95 38 -43 50 -72 60 -143 7 -51 7 -52 9 -14 2 86 -48 168 -140 228 -56 36 -79 44 -79 27z" transform="translate(0,86) scale(0.1,-0.1)" stroke="none" fill="#B35819"/>

<path d="M178 783 c-16 -2 -28 -6 -28 -8 0 -1 14 -29 30 -60 28 -53 30 -64 30 -164 0 -159 -43 -308 -124 -435 -20 -31 -36 -59 -36 -61 0 -13 135 -3 189 14 193 60 342 319 290 504 -12 45 -71 105 -144 147 -54 30 -154 71 -170 68 -5 0 -22 -3 -37 -5z m151 -79 c151 -98 177 -233 81 -423 -66 -131 -133 -192 -229 -207 -46 -7 -51 1 -21 39 104 133 164 436 110 562 -34 79 -25 83 59 29z" transform="translate(0,86) scale(0.1,-0.1)" stroke="none" fill="#6E2D13"/>

</g>

<g id="3" transform="translate(180.0,0)scale(1,1)">

<path d="M143 273 c-23 -75 -23 -77 -3 -34 11 25 19 51 18 59 -2 7 -8 -4 -15 -25z" transform="translate(0,86) scale(0.1,-0.1)" stroke="none" fill="#D6A76A"/>

<path d="M321 757 c16 -13 99 -57 99 -53 0 7 -84 56 -95 56 -5 0 -6 -1 -4 -3z" transform="translate(0,86) scale(0.1,-0.1)" stroke="none" fill="#B35819"/>

<path d="M156 108 c-22 -31 -20 -38 12 -37 16 1 20 3 10 6 -21 5 -23 24 -6 41 7 7 9 12 6 12 -4 0 -14 -10 -22 -22z" transform="translate(0,86) scale(0.1,-0.1)" stroke="none" fill="#B35819"/>

<path d="M443 388 c-6 -24 -13 -52 -17 -63 -5 -12 -1 -10 7 5 15 25 33 100 25 100 -3 0 -9 -19 -15 -42z" transform="translate(0,86) scale(0.1,-0.1)" stroke="none" fill="#B35819"/>

<path d="M470 658 c25 -25 47 -44 49 -42 6 5 -10 23 -52 55 l-42 32 45 -45z" transform="translate(0,86) scale(0.1,-0.1)" stroke="none" fill="#B35819"/>

<path d="M241 796 c10 -10 129 -54 124 -46 -3 5 -30 18 -61 29 -53 20 -72 25 -63 17z" transform="translate(0,86) scale(0.1,-0.1)" stroke="none" fill="#D6A76A"/>

<path d="M168 803 c-28 -3 -38 -9 -38 -21 1 -19 30 -63 30 -45 0 7 -4 15 -10 18 -21 13 -10 35 18 36 15 0 36 4 47 9 21 9 15 9 -47 3z" transform="translate(0,86) scale(0.1,-0.1)" stroke="none" fill="#D6A76A"/>

<path d="M241 247 c-7 -19 -27 -61 -46 -93 -19 -33 -25 -48 -14 -34 26 30 84 149 76 156 -3 3 -10 -10 -16 -29z" transform="translate(0,86) scale(0.1,-0.1)" stroke="none" fill="#D6A76A"/>

<path d="M545 485 c0 -52 3 -87 7 -77 9 22 9 132 0 154 -4 10 -7 -25 -7 -77z" transform="translate(0,86) scale(0.1,-0.1)" stroke="none" fill="#D6A76A"/>

<path d="M102 178 c-7 -7 -12 -16 -12 -21 0 -4 -14 -28 -31 -53 -17 -25 -28 -50 -26 -57 4 -9 6 -8 6 1 1 7 14 32 30 55 47 69 62 104 33 75z" transform="translate(0,86) scale(0.1,-0.1)" stroke="none" fill="#D6A76A"/>

<path d="M380 737 c3 -3 33 -26 68 -51 34 -26 67 -58 72 -71 11 -30 20 -33 13 -5 -6 23 -74 86 -124 114 -19 11 -32 17 -29 13z" transform="translate(0,86) scale(0.1,-0.1)" stroke="none" fill="#D6A76A"/>

<path d="M384 249 c-14 -29 -48 -74 -75 -101 -26 -26 -40 -44 -30 -38 29 15 90 89 117 143 13 26 22 47 19 47 -2 0 -16 -23 -31 -51z" transform="translate(0,86) scale(0.1,-0.1)" stroke="none" fill="#B35819"/>

<path d="M451 238 c-30 -48 -60 -80 -114 -121 -27 -21 -45 -37 -42 -37 19 0 108 76 138 118 40 55 50 72 43 72 -2 0 -14 -15 -25 -32z" transform="translate(0,86) scale(0.1,-0.1)" stroke="none" fill="#B35819"/>

<path d="M66 100 c-14 -22 -26 -44 -26 -50 0 -12 135 -13 164 -1 11 4 -19 6 -67 3 -48 -2 -87 -1 -87 3 0 4 8 19 18 33 26 37 34 52 29 52 -2 0 -16 -18 -31 -40z" transform="translate(0,86) scale(0.1,-0.1)" stroke="none" fill="#B35819"/>

<path d="M530 569 c16 -54 12 -135 -9 -194 -11 -31 -16 -53 -12 -50 5 2 16 30 26 61 19 61 17 186 -4 207 -8 8 -8 2 -1 -24z" transform="translate(0,86) scale(0.1,-0.1)" stroke="none" fill="#B35819"/>

<path d="M185 533 c0 -79 3 -134 7 -121 9 32 9 241 0 254 -4 7 -7 -53 -7 -133z" transform="translate(0,86) scale(0.1,-0.1)" stroke="none" fill="#D6A76A"/>

<path d="M260 726 c0 -2 8 -21 17 -42 11 -24 20 -77 24 -139 l5 -100 2 91 c1 64 -3 103 -14 129 -18 45 -14 52 20 30 14 -10 26 -15 26 -12 0 3 -15 15 -34 26 -32 20 -46 25 -46 17z" transform="translate(0,86) scale(0.1,-0.1)" stroke="none" fill="#D6A76A"/>

<path d="M515 337 c-33 -78 -106 -177 -159 -217 -28 -21 -78 -48 -111 -59 -36 -12 -46 -18 -25 -15 92 17 185 87 247 187 44 69 77 137 71 143 -3 2 -13 -15 -23 -39z" transform="translate(0,86) scale(0.1,-0.1)" stroke="none" fill="#D6A76A"/>

<path d="M447 519 c16 -138 -98 -362 -212 -415 -24 -11 -25 -13 -5 -8 123 31 271 332 220 449 -6 13 -7 5 -3 -26z" transform="translate(0,86) scale(0.1,-0.1)" stroke="none" fill="#D6A76A"/>

<path d="M173 793 c-18 -2 -33 -7 -33 -11 0 -4 13 -34 30 -67 27 -55 29 -69 29 -165 1 -115 -27 -245 -73 -346 -14 -30 -23 -54 -20 -54 11 0 56 114 79 201 19 71 25 120 25 200 0 100 -2 111 -30 164 -16 31 -30 58 -30 60 0 1 18 5 39 9 25 4 52 1 75 -9 50 -21 59 -17 11 5 -41 19 -47 20 -102 13z" transform="translate(0,86) scale(0.1,-0.1)" stroke="none" fill="#B35819"/>

<path d="M250 731 c0 -5 9 -30 20 -56 32 -75 25 -241 -16 -364 -8 -24 -13 -46 -10 -48 2 -3 10 12 16 34 46 151 53 300 20 379 -11 26 -18 49 -16 52 9 8 104 -58 136 -95 38 -43 50 -72 60 -143 7 -51 7 -52 9 -14 2 86 -48 168 -140 228 -56 36 -79 44 -79 27z" transform="translate(0,86) scale(0.1,-0.1)" stroke="none" fill="#B35819"/>

<path d="M178 783 c-16 -2 -28 -6 -28 -8 0 -1 14 -29 30 -60 28 -53 30 -64 30 -164 0 -159 -43 -308 -124 -435 -20 -31 -36 -59 -36 -61 0 -13 135 -3 189 14 193 60 342 319 290 504 -12 45 -71 105 -144 147 -54 30 -154 71 -170 68 -5 0 -22 -3 -37 -5z m151 -79 c151 -98 177 -233 81 -423 -66 -131 -133 -192 -229 -207 -46 -7 -51 1 -21 39 104 133 164 436 110 562 -34 79 -25 83 59 29z" transform="translate(0,86) scale(0.1,-0.1)" stroke="none" fill="#6E2D13"/>

</g>

<g id="4" transform="translate(240.0,0)scale(1,1)">

<path d="M143 273 c-23 -75 -23 -77 -3 -34 11 25 19 51 18 59 -2 7 -8 -4 -15 -25z" transform="translate(0,86) scale(0.1,-0.1)" stroke="none" fill="#D6A76A"/>

<path d="M321 757 c16 -13 99 -57 99 -53 0 7 -84 56 -95 56 -5 0 -6 -1 -4 -3z" transform="translate(0,86) scale(0.1,-0.1)" stroke="none" fill="#B35819"/>

<path d="M156 108 c-22 -31 -20 -38 12 -37 16 1 20 3 10 6 -21 5 -23 24 -6 41 7 7 9 12 6 12 -4 0 -14 -10 -22 -22z" transform="translate(0,86) scale(0.1,-0.1)" stroke="none" fill="#B35819"/>

<path d="M443 388 c-6 -24 -13 -52 -17 -63 -5 -12 -1 -10 7 5 15 25 33 100 25 100 -3 0 -9 -19 -15 -42z" transform="translate(0,86) scale(0.1,-0.1)" stroke="none" fill="#B35819"/>

<path d="M470 658 c25 -25 47 -44 49 -42 6 5 -10 23 -52 55 l-42 32 45 -45z" transform="translate(0,86) scale(0.1,-0.1)" stroke="none" fill="#B35819"/>

<path d="M241 796 c10 -10 129 -54 124 -46 -3 5 -30 18 -61 29 -53 20 -72 25 -63 17z" transform="translate(0,86) scale(0.1,-0.1)" stroke="none" fill="#D6A76A"/>

<path d="M168 803 c-28 -3 -38 -9 -38 -21 1 -19 30 -63 30 -45 0 7 -4 15 -10 18 -21 13 -10 35 18 36 15 0 36 4 47 9 21 9 15 9 -47 3z" transform="translate(0,86) scale(0.1,-0.1)" stroke="none" fill="#D6A76A"/>

<path d="M241 247 c-7 -19 -27 -61 -46 -93 -19 -33 -25 -48 -14 -34 26 30 84 149 76 156 -3 3 -10 -10 -16 -29z" transform="translate(0,86) scale(0.1,-0.1)" stroke="none" fill="#D6A76A"/>

<path d="M545 485 c0 -52 3 -87 7 -77 9 22 9 132 0 154 -4 10 -7 -25 -7 -77z" transform="translate(0,86) scale(0.1,-0.1)" stroke="none" fill="#D6A76A"/>

<path d="M102 178 c-7 -7 -12 -16 -12 -21 0 -4 -14 -28 -31 -53 -17 -25 -28 -50 -26 -57 4 -9 6 -8 6 1 1 7 14 32 30 55 47 69 62 104 33 75z" transform="translate(0,86) scale(0.1,-0.1)" stroke="none" fill="#D6A76A"/>

<path d="M380 737 c3 -3 33 -26 68 -51 34 -26 67 -58 72 -71 11 -30 20 -33 13 -5 -6 23 -74 86 -124 114 -19 11 -32 17 -29 13z" transform="translate(0,86) scale(0.1,-0.1)" stroke="none" fill="#D6A76A"/>

<path d="M384 249 c-14 -29 -48 -74 -75 -101 -26 -26 -40 -44 -30 -38 29 15 90 89 117 143 13 26 22 47 19 47 -2 0 -16 -23 -31 -51z" transform="translate(0,86) scale(0.1,-0.1)" stroke="none" fill="#B35819"/>

<path d="M451 238 c-30 -48 -60 -80 -114 -121 -27 -21 -45 -37 -42 -37 19 0 108 76 138 118 40 55 50 72 43 72 -2 0 -14 -15 -25 -32z" transform="translate(0,86) scale(0.1,-0.1)" stroke="none" fill="#B35819"/>

<path d="M66 100 c-14 -22 -26 -44 -26 -50 0 -12 135 -13 164 -1 11 4 -19 6 -67 3 -48 -2 -87 -1 -87 3 0 4 8 19 18 33 26 37 34 52 29 52 -2 0 -16 -18 -31 -40z" transform="translate(0,86) scale(0.1,-0.1)" stroke="none" fill="#B35819"/>

<path d="M530 569 c16 -54 12 -135 -9 -194 -11 -31 -16 -53 -12 -50 5 2 16 30 26 61 19 61 17 186 -4 207 -8 8 -8 2 -1 -24z" transform="translate(0,86) scale(0.1,-0.1)" stroke="none" fill="#B35819"/>

<path d="M185 533 c0 -79 3 -134 7 -121 9 32 9 241 0 254 -4 7 -7 -53 -7 -133z" transform="translate(0,86) scale(0.1,-0.1)" stroke="none" fill="#D6A76A"/>

<path d="M260 726 c0 -2 8 -21 17 -42 11 -24 20 -77 24 -139 l5 -100 2 91 c1 64 -3 103 -14 129 -18 45 -14 52 20 30 14 -10 26 -15 26 -12 0 3 -15 15 -34 26 -32 20 -46 25 -46 17z" transform="translate(0,86) scale(0.1,-0.1)" stroke="none" fill="#D6A76A"/>

<path d="M515 337 c-33 -78 -106 -177 -159 -217 -28 -21 -78 -48 -111 -59 -36 -12 -46 -18 -25 -15 92 17 185 87 247 187 44 69 77 137 71 143 -3 2 -13 -15 -23 -39z" transform="translate(0,86) scale(0.1,-0.1)" stroke="none" fill="#D6A76A"/>

<path d="M447 519 c16 -138 -98 -362 -212 -415 -24 -11 -25 -13 -5 -8 123 31 271 332 220 449 -6 13 -7 5 -3 -26z" transform="translate(0,86) scale(0.1,-0.1)" stroke="none" fill="#D6A76A"/>

<path d="M173 793 c-18 -2 -33 -7 -33 -11 0 -4 13 -34 30 -67 27 -55 29 -69 29 -165 1 -115 -27 -245 -73 -346 -14 -30 -23 -54 -20 -54 11 0 56 114 79 201 19 71 25 120 25 200 0 100 -2 111 -30 164 -16 31 -30 58 -30 60 0 1 18 5 39 9 25 4 52 1 75 -9 50 -21 59 -17 11 5 -41 19 -47 20 -102 13z" transform="translate(0,86) scale(0.1,-0.1)" stroke="none" fill="#B35819"/>

<path d="M250 731 c0 -5 9 -30 20 -56 32 -75 25 -241 -16 -364 -8 -24 -13 -46 -10 -48 2 -3 10 12 16 34 46 151 53 300 20 379 -11 26 -18 49 -16 52 9 8 104 -58 136 -95 38 -43 50 -72 60 -143 7 -51 7 -52 9 -14 2 86 -48 168 -140 228 -56 36 -79 44 -79 27z" transform="translate(0,86) scale(0.1,-0.1)" stroke="none" fill="#B35819"/>

<path d="M178 783 c-16 -2 -28 -6 -28 -8 0 -1 14 -29 30 -60 28 -53 30 -64 30 -164 0 -159 -43 -308 -124 -435 -20 -31 -36 -59 -36 -61 0 -13 135 -3 189 14 193 60 342 319 290 504 -12 45 -71 105 -144 147 -54 30 -154 71 -170 68 -5 0 -22 -3 -37 -5z m151 -79 c151 -98 177 -233 81 -423 -66 -131 -133 -192 -229 -207 -46 -7 -51 1 -21 39 104 133 164 436 110 562 -34 79 -25 83 59 29z" transform="translate(0,86) scale(0.1,-0.1)" stroke="none" fill="#6E2D13"/>

</g>

</g>
<g id="row1" transform="translate(8,86.0)">
<g id="0" transform="translate(0.0,0)scale(1,1)">

<path d="M143 273 c-23 -75 -23 -77 -3 -34 11 25 19 51 18 59 -2 7 -8 -4 -15 -25z" transform="translate(0,86) scale(0.1,-0.1)" stroke="none" fill="#D6A76A"/>

<path d="M321 757 c16 -13 99 -57 99 -53 0 7 -84 56 -95 56 -5 0 -6 -1 -4 -3z" transform="translate(0,86) scale(0.1,-0.1)" stroke="none" fill="#B35819"/>

<path d="M156 108 c-22 -31 -20 -38 12 -37 16 1 20 3 10 6 -21 5 -23 24 -6 41 7 7 9 12 6 12 -4 0 -14 -10 -22 -22z" transform="translate(0,86) scale(0.1,-0.1)" stroke="none" fill="#B35819"/>

<path d="M443 388 c-6 -24 -13 -52 -17 -63 -5 -12 -1 -10 7 5 15 25 33 100 25 100 -3 0 -9 -19 -15 -42z" transform="translate(0,86) scale(0.1,-0.1)" stroke="none" fill="#B35819"/>

<path d="M470 658 c25 -25 47 -44 49 -42 6 5 -10 23 -52 55 l-42 32 45 -45z" transform="translate(0,86) scale(0.1,-0.1)" stroke="none" fill="#B35819"/>

<path d="M241 796 c10 -10 129 -54 124 -46 -3 5 -30 18 -61 29 -53 20 -72 25 -63 17z" transform="translate(0,86) scale(0.1,-0.1)" stroke="none" fill="#D6A76A"/>

<path d="M168 803 c-28 -3 -38 -9 -38 -21 1 -19 30 -63 30 -45 0 7 -4 15 -10 18 -21 13 -10 35 18 36 15 0 36 4 47 9 21 9 15 9 -47 3z" transform="translate(0,86) scale(0.1,-0.1)" stroke="none" fill="#D6A76A"/>

<path d="M241 247 c-7 -19 -27 -61 -46 -93 -19 -33 -25 -48 -14 -34 26 30 84 149 76 156 -3 3 -10 -10 -16 -29z" transform="translate(0,86) scale(0.1,-0.1)" stroke="none" fill="#D6A76A"/>

<path d="M545 485 c0 -52 3 -87 7 -77 9 22 9 132 0 154 -4 10 -7 -25 -7 -77z" transform="translate(0,86) scale(0.1,-0.1)" stroke="none" fill="#D6A76A"/>

<path d="M102 178 c-7 -7 -12 -16 -12 -21 0 -4 -14 -28 -31 -53 -17 -25 -28 -50 -26 -57 4 -9 6 -8 6 1 1 7 14 32 30 55 47 69 62 104 33 75z" transform="translate(0,86) scale(0.1,-0.1)" stroke="none" fill="#D6A76A"/>

<path d="M380 737 c3 -3 33 -26 68 -51 34 -26 67 -58 72 -71 11 -30 20 -33 13 -5 -6 23 -74 86 -124 114 -19 11 -32 17 -29 13z" transform="translate(0,86) scale(0.1,-0.1)" stroke="none" fill="#D6A76A"/>

<path d="M384 249 c-14 -29 -48 -74 -75 -101 -26 -26 -40 -44 -30 -38 29 15 90 89 117 143 13 26 22 47 19 47 -2 0 -16 -23 -31 -51z" transform="translate(0,86) scale(0.1,-0.1)" stroke="none" fill="#B35819"/>

<path d="M451 238 c-30 -48 -60 -80 -114 -121 -27 -21 -45 -37 -42 -37 19 0 108 76 138 118 40 55 50 72 43 72 -2 0 -14 -15 -25 -32z" transform="translate(0,86) scale(0.1,-0.1)" stroke="none" fill="#B35819"/>

<path d="M66 100 c-14 -22 -26 -44 -26 -50 0 -12 135 -13 164 -1 11 4 -19 6 -67 3 -48 -2 -87 -1 -87 3 0 4 8 19 18 33 26 37 34 52 29 52 -2 0 -16 -18 -31 -40z" transform="translate(0,86) scale(0.1,-0.1)" stroke="none" fill="#B35819"/>

<path d="M530 569 c16 -54 12 -135 -9 -194 -11 -31 -16 -53 -12 -50 5 2 16 30 26 61 19 61 17 186 -4 207 -8 8 -8 2 -1 -24z" transform="translate(0,86) scale(0.1,-0.1)" stroke="none" fill="#B35819"/>

<path d="M185 533 c0 -79 3 -134 7 -121 9 32 9 241 0 254 -4 7 -7 -53 -7 -133z" transform="translate(0,86) scale(0.1,-0.1)" stroke="none" fill="#D6A76A"/>

<path d="M260 726 c0 -2 8 -21 17 -42 11 -24 20 -77 24 -139 l5 -100 2 91 c1 64 -3 103 -14 129 -18 45 -14 52 20 30 14 -10 26 -15 26 -12 0 3 -15 15 -34 26 -32 20 -46 25 -46 17z" transform="translate(0,86) scale(0.1,-0.1)" stroke="none" fill="#D6A76A"/>

<path d="M515 337 c-33 -78 -106 -177 -159 -217 -28 -21 -78 -48 -111 -59 -36 -12 -46 -18 -25 -15 92 17 185 87 247 187 44 69 77 137 71 143 -3 2 -13 -15 -23 -39z" transform="translate(0,86) scale(0.1,-0.1)" stroke="none" fill="#D6A76A"/>

<path d="M447 519 c16 -138 -98 -362 -212 -415 -24 -11 -25 -13 -5 -8 123 31 271 332 220 449 -6 13 -7 5 -3 -26z" transform="translate(0,86) scale(0.1,-0.1)" stroke="none" fill="#D6A76A"/>

<path d="M173 793 c-18 -2 -33 -7 -33 -11 0 -4 13 -34 30 -67 27 -55 29 -69 29 -165 1 -115 -27 -245 -73 -346 -14 -30 -23 -54 -20 -54 11 0 56 114 79 201 19 71 25 120 25 200 0 100 -2 111 -30 164 -16 31 -30 58 -30 60 0 1 18 5 39 9 25 4 52 1 75 -9 50 -21 59 -17 11 5 -41 19 -47 20 -102 13z" transform="translate(0,86) scale(0.1,-0.1)" stroke="none" fill="#B35819"/>

<path d="M250 731 c0 -5 9 -30 20 -56 32 -75 25 -241 -16 -364 -8 -24 -13 -46 -10 -48 2 -3 10 12 16 34 46 151 53 300 20 379 -11 26 -18 49 -16 52 9 8 104 -58 136 -95 38 -43 50 -72 60 -143 7 -51 7 -52 9 -14 2 86 -48 168 -140 228 -56 36 -79 44 -79 27z" transform="translate(0,86) scale(0.1,-0.1)" stroke="none" fill="#B35819"/>

<path d="M178 783 c-16 -2 -28 -6 -28 -8 0 -1 14 -29 30 -60 28 -53 30 -64 30 -164 0 -159 -43 -308 -124 -435 -20 -31 -36 -59 -36 -61 0 -13 135 -3 189 14 193 60 342 319 290 504 -12 45 -71 105 -144 147 -54 30 -154 71 -170 68 -5 0 -22 -3 -37 -5z m151 -79 c151 -98 177 -233 81 -423 -66 -131 -133 -192 -229 -207 -46 -7 -51 1 -21 39 104 133 164 436 110 562 -34 79 -25 83 59 29z" transform="translate(0,86) scale(0.1,-0.1)" stroke="none" fill="#6E2D13"/>

</g>

<g id="1" transform="translate(60.0,0)scale(1,1)">

<path d="M143 273 c-23 -75 -23 -77 -3 -34 11 25 19 51 18 59 -2 7 -8 -4 -15 -25z" transform="translate(0,86) scale(0.1,-0.1)" stroke="none" fill="#D6A76A"/>

<path d="M321 757 c16 -13 99 -57 99 -53 0 7 -84 56 -95 56 -5 0 -6 -1 -4 -3z" transform="translate(0,86) scale(0.1,-0.1)" stroke="none" fill="#B35819"/>

<path d="M156 108 c-22 -31 -20 -38 12 -37 16 1 20 3 10 6 -21 5 -23 24 -6 41 7 7 9 12 6 12 -4 0 -14 -10 -22 -22z" transform="translate(0,86) scale(0.1,-0.1)" stroke="none" fill="#B35819"/>

<path d="M443 388 c-6 -24 -13 -52 -17 -63 -5 -12 -1 -10 7 5 15 25 33 100 25 100 -3 0 -9 -19 -15 -42z" transform="translate(0,86) scale(0.1,-0.1)" stroke="none" fill="#B35819"/>

<path d="M470 658 c25 -25 47 -44 49 -42 6 5 -10 23 -52 55 l-42 32 45 -45z" transform="translate(0,86) scale(0.1,-0.1)" stroke="none" fill="#B35819"/>

<path d="M241 796 c10 -10 129 -54 124 -46 -3 5 -30 18 -61 29 -53 20 -72 25 -63 17z" transform="translate(0,86) scale(0.1,-0.1)" stroke="none" fill="#D6A76A"/>

<path d="M168 803 c-28 -3 -38 -9 -38 -21 1 -19 30 -63 30 -45 0 7 -4 15 -10 18 -21 13 -10 35 18 36 15 0 36 4 47 9 21 9 15 9 -47 3z" transform="translate(0,86) scale(0.1,-0.1)" stroke="none" fill="#D6A76A"/>

<path d="M241 247 c-7 -19 -27 -61 -46 -93 -19 -33 -25 -48 -14 -34 26 30 84 149 76 156 -3 3 -10 -10 -16 -29z" transform="translate(0,86) scale(0.1,-0.1)" stroke="none" fill="#D6A76A"/>

<path d="M545 485 c0 -52 3 -87 7 -77 9 22 9 132 0 154 -4 10 -7 -25 -7 -77z" transform="translate(0,86) scale(0.1,-0.1)" stroke="none" fill="#D6A76A"/>

<path d="M102 178 c-7 -7 -12 -16 -12 -21 0 -4 -14 -28 -31 -53 -17 -25 -28 -50 -26 -57 4 -9 6 -8 6 1 1 7 14 32 30 55 47 69 62 104 33 75z" transform="translate(0,86) scale(0.1,-0.1)" stroke="none" fill="#D6A76A"/>

<path d="M380 737 c3 -3 33 -26 68 -51 34 -26 67 -58 72 -71 11 -30 20 -33 13 -5 -6 23 -74 86 -124 114 -19 11 -32 17 -29 13z" transform="translate(0,86) scale(0.1,-0.1)" stroke="none" fill="#D6A76A"/>

<path d="M384 249 c-14 -29 -48 -74 -75 -101 -26 -26 -40 -44 -30 -38 29 15 90 89 117 143 13 26 22 47 19 47 -2 0 -16 -23 -31 -51z" transform="translate(0,86) scale(0.1,-0.1)" stroke="none" fill="#B35819"/>

<path d="M451 238 c-30 -48 -60 -80 -114 -121 -27 -21 -45 -37 -42 -37 19 0 108 76 138 118 40 55 50 72 43 72 -2 0 -14 -15 -25 -32z" transform="translate(0,86) scale(0.1,-0.1)" stroke="none" fill="#B35819"/>

<path d="M66 100 c-14 -22 -26 -44 -26 -50 0 -12 135 -13 164 -1 11 4 -19 6 -67 3 -48 -2 -87 -1 -87 3 0 4 8 19 18 33 26 37 34 52 29 52 -2 0 -16 -18 -31 -40z" transform="translate(0,86) scale(0.1,-0.1)" stroke="none" fill="#B35819"/>

<path d="M530 569 c16 -54 12 -135 -9 -194 -11 -31 -16 -53 -12 -50 5 2 16 30 26 61 19 61 17 186 -4 207 -8 8 -8 2 -1 -24z" transform="translate(0,86) scale(0.1,-0.1)" stroke="none" fill="#B35819"/>

<path d="M185 533 c0 -79 3 -134 7 -121 9 32 9 241 0 254 -4 7 -7 -53 -7 -133z" transform="translate(0,86) scale(0.1,-0.1)" stroke="none" fill="#D6A76A"/>

<path d="M260 726 c0 -2 8 -21 17 -42 11 -24 20 -77 24 -139 l5 -100 2 91 c1 64 -3 103 -14 129 -18 45 -14 52 20 30 14 -10 26 -15 26 -12 0 3 -15 15 -34 26 -32 20 -46 25 -46 17z" transform="translate(0,86) scale(0.1,-0.1)" stroke="none" fill="#D6A76A"/>

<path d="M515 337 c-33 -78 -106 -177 -159 -217 -28 -21 -78 -48 -111 -59 -36 -12 -46 -18 -25 -15 92 17 185 87 247 187 44 69 77 137 71 143 -3 2 -13 -15 -23 -39z" transform="translate(0,86) scale(0.1,-0.1)" stroke="none" fill="#D6A76A"/>

<path d="M447 519 c16 -138 -98 -362 -212 -415 -24 -11 -25 -13 -5 -8 123 31 271 332 220 449 -6 13 -7 5 -3 -26z" transform="translate(0,86) scale(0.1,-0.1)" stroke="none" fill="#D6A76A"/>

<path d="M173 793 c-18 -2 -33 -7 -33 -11 0 -4 13 -34 30 -67 27 -55 29 -69 29 -165 1 -115 -27 -245 -73 -346 -14 -30 -23 -54 -20 -54 11 0 56 114 79 201 19 71 25 120 25 200 0 100 -2 111 -30 164 -16 31 -30 58 -30 60 0 1 18 5 39 9 25 4 52 1 75 -9 50 -21 59 -17 11 5 -41 19 -47 20 -102 13z" transform="translate(0,86) scale(0.1,-0.1)" stroke="none" fill="#B35819"/>

<path d="M250 731 c0 -5 9 -30 20 -56 32 -75 25 -241 -16 -364 -8 -24 -13 -46 -10 -48 2 -3 10 12 16 34 46 151 53 300 20 379 -11 26 -18 49 -16 52 9 8 104 -58 136 -95 38 -43 50 -72 60 -143 7 -51 7 -52 9 -14 2 86 -48 168 -140 228 -56 36 -79 44 -79 27z" transform="translate(0,86) scale(0.1,-0.1)" stroke="none" fill="#B35819"/>

<path d="M178 783 c-16 -2 -28 -6 -28 -8 0 -1 14 -29 30 -60 28 -53 30 -64 30 -164 0 -159 -43 -308 -124 -435 -20 -31 -36 -59 -36 -61 0 -13 135 -3 189 14 193 60 342 319 290 504 -12 45 -71 105 -144 147 -54 30 -154 71 -170 68 -5 0 -22 -3 -37 -5z m151 -79 c151 -98 177 -233 81 -423 -66 -131 -133 -192 -229 -207 -46 -7 -51 1 -21 39 104 133 164 436 110 562 -34 79 -25 83 59 29z" transform="translate(0,86) scale(0.1,-0.1)" stroke="none" fill="#6E2D13"/>

</g>

<g id="2" transform="translate(120.0,0)scale(1,1)">

<path d="M143 273 c-23 -75 -23 -77 -3 -34 11 25 19 51 18 59 -2 7 -8 -4 -15 -25z" transform="translate(0,86) scale(0.1,-0.1)" stroke="none" fill="#D6A76A"/>

<path d="M321 757 c16 -13 99 -57 99 -53 0 7 -84 56 -95 56 -5 0 -6 -1 -4 -3z" transform="translate(0,86) scale(0.1,-0.1)" stroke="none" fill="#B35819"/>

<path d="M156 108 c-22 -31 -20 -38 12 -37 16 1 20 3 10 6 -21 5 -23 24 -6 41 7 7 9 12 6 12 -4 0 -14 -10 -22 -22z" transform="translate(0,86) scale(0.1,-0.1)" stroke="none" fill="#B35819"/>

<path d="M443 388 c-6 -24 -13 -52 -17 -63 -5 -12 -1 -10 7 5 15 25 33 100 25 100 -3 0 -9 -19 -15 -42z" transform="translate(0,86) scale(0.1,-0.1)" stroke="none" fill="#B35819"/>

<path d="M470 658 c25 -25 47 -44 49 -42 6 5 -10 23 -52 55 l-42 32 45 -45z" transform="translate(0,86) scale(0.1,-0.1)" stroke="none" fill="#B35819"/>

<path d="M241 796 c10 -10 129 -54 124 -46 -3 5 -30 18 -61 29 -53 20 -72 25 -63 17z" transform="translate(0,86) scale(0.1,-0.1)" stroke="none" fill="#D6A76A"/>

<path d="M168 803 c-28 -3 -38 -9 -38 -21 1 -19 30 -63 30 -45 0 7 -4 15 -10 18 -21 13 -10 35 18 36 15 0 36 4 47 9 21 9 15 9 -47 3z" transform="translate(0,86) scale(0.1,-0.1)" stroke="none" fill="#D6A76A"/>

<path d="M241 247 c-7 -19 -27 -61 -46 -93 -19 -33 -25 -48 -14 -34 26 30 84 149 76 156 -3 3 -10 -10 -16 -29z" transform="translate(0,86) scale(0.1,-0.1)" stroke="none" fill="#D6A76A"/>

<path d="M545 485 c0 -52 3 -87 7 -77 9 22 9 132 0 154 -4 10 -7 -25 -7 -77z" transform="translate(0,86) scale(0.1,-0.1)" stroke="none" fill="#D6A76A"/>

<path d="M102 178 c-7 -7 -12 -16 -12 -21 0 -4 -14 -28 -31 -53 -17 -25 -28 -50 -26 -57 4 -9 6 -8 6 1 1 7 14 32 30 55 47 69 62 104 33 75z" transform="translate(0,86) scale(0.1,-0.1)" stroke="none" fill="#D6A76A"/>

<path d="M380 737 c3 -3 33 -26 68 -51 34 -26 67 -58 72 -71 11 -30 20 -33 13 -5 -6 23 -74 86 -124 114 -19 11 -32 17 -29 13z" transform="translate(0,86) scale(0.1,-0.1)" stroke="none" fill="#D6A76A"/>

<path d="M384 249 c-14 -29 -48 -74 -75 -101 -26 -26 -40 -44 -30 -38 29 15 90 89 117 143 13 26 22 47 19 47 -2 0 -16 -23 -31 -51z" transform="translate(0,86) scale(0.1,-0.1)" stroke="none" fill="#B35819"/>

<path d="M451 238 c-30 -48 -60 -80 -114 -121 -27 -21 -45 -37 -42 -37 19 0 108 76 138 118 40 55 50 72 43 72 -2 0 -14 -15 -25 -32z" transform="translate(0,86) scale(0.1,-0.1)" stroke="none" fill="#B35819"/>

<path d="M66 100 c-14 -22 -26 -44 -26 -50 0 -12 135 -13 164 -1 11 4 -19 6 -67 3 -48 -2 -87 -1 -87 3 0 4 8 19 18 33 26 37 34 52 29 52 -2 0 -16 -18 -31 -40z" transform="translate(0,86) scale(0.1,-0.1)" stroke="none" fill="#B35819"/>

<path d="M530 569 c16 -54 12 -135 -9 -194 -11 -31 -16 -53 -12 -50 5 2 16 30 26 61 19 61 17 186 -4 207 -8 8 -8 2 -1 -24z" transform="translate(0,86) scale(0.1,-0.1)" stroke="none" fill="#B35819"/>

<path d="M185 533 c0 -79 3 -134 7 -121 9 32 9 241 0 254 -4 7 -7 -53 -7 -133z" transform="translate(0,86) scale(0.1,-0.1)" stroke="none" fill="#D6A76A"/>

<path d="M260 726 c0 -2 8 -21 17 -42 11 -24 20 -77 24 -139 l5 -100 2 91 c1 64 -3 103 -14 129 -18 45 -14 52 20 30 14 -10 26 -15 26 -12 0 3 -15 15 -34 26 -32 20 -46 25 -46 17z" transform="translate(0,86) scale(0.1,-0.1)" stroke="none" fill="#D6A76A"/>

<path d="M515 337 c-33 -78 -106 -177 -159 -217 -28 -21 -78 -48 -111 -59 -36 -12 -46 -18 -25 -15 92 17 185 87 247 187 44 69 77 137 71 143 -3 2 -13 -15 -23 -39z" transform="translate(0,86) scale(0.1,-0.1)" stroke="none" fill="#D6A76A"/>

<path d="M447 519 c16 -138 -98 -362 -212 -415 -24 -11 -25 -13 -5 -8 123 31 271 332 220 449 -6 13 -7 5 -3 -26z" transform="translate(0,86) scale(0.1,-0.1)" stroke="none" fill="#D6A76A"/>

<path d="M173 793 c-18 -2 -33 -7 -33 -11 0 -4 13 -34 30 -67 27 -55 29 -69 29 -165 1 -115 -27 -245 -73 -346 -14 -30 -23 -54 -20 -54 11 0 56 114 79 201 19 71 25 120 25 200 0 100 -2 111 -30 164 -16 31 -30 58 -30 60 0 1 18 5 39 9 25 4 52 1 75 -9 50 -21 59 -17 11 5 -41 19 -47 20 -102 13z" transform="translate(0,86) scale(0.1,-0.1)" stroke="none" fill="#B35819"/>

<path d="M250 731 c0 -5 9 -30 20 -56 32 -75 25 -241 -16 -364 -8 -24 -13 -46 -10 -48 2 -3 10 12 16 34 46 151 53 300 20 379 -11 26 -18 49 -16 52 9 8 104 -58 136 -95 38 -43 50 -72 60 -143 7 -51 7 -52 9 -14 2 86 -48 168 -140 228 -56 36 -79 44 -79 27z" transform="translate(0,86) scale(0.1,-0.1)" stroke="none" fill="#B35819"/>

<path d="M178 783 c-16 -2 -28 -6 -28 -8 0 -1 14 -29 30 -60 28 -53 30 -64 30 -164 0 -159 -43 -308 -124 -435 -20 -31 -36 -59 -36 -61 0 -13 135 -3 189 14 193 60 342 319 290 504 -12 45 -71 105 -144 147 -54 30 -154 71 -170 68 -5 0 -22 -3 -37 -5z m151 -79 c151 -98 177 -233 81 -423 -66 -131 -133 -192 -229 -207 -46 -7 -51 1 -21 39 104 133 164 436 110 562 -34 79 -25 83 59 29z" transform="translate(0,86) scale(0.1,-0.1)" stroke="none" fill="#6E2D13"/>

</g>

<g id="3" transform="translate(180.0,0)scale(1,1)">

<path d="M143 273 c-23 -75 -23 -77 -3 -34 11 25 19 51 18 59 -2 7 -8 -4 -15 -25z" transform="translate(0,86) scale(0.1,-0.1)" stroke="none" fill="#D6A76A"/>

<path d="M321 757 c16 -13 99 -57 99 -53 0 7 -84 56 -95 56 -5 0 -6 -1 -4 -3z" transform="translate(0,86) scale(0.1,-0.1)" stroke="none" fill="#B35819"/>

<path d="M156 108 c-22 -31 -20 -38 12 -37 16 1 20 3 10 6 -21 5 -23 24 -6 41 7 7 9 12 6 12 -4 0 -14 -10 -22 -22z" transform="translate(0,86) scale(0.1,-0.1)" stroke="none" fill="#B35819"/>

<path d="M443 388 c-6 -24 -13 -52 -17 -63 -5 -12 -1 -10 7 5 15 25 33 100 25 100 -3 0 -9 -19 -15 -42z" transform="translate(0,86) scale(0.1,-0.1)" stroke="none" fill="#B35819"/>

<path d="M470 658 c25 -25 47 -44 49 -42 6 5 -10 23 -52 55 l-42 32 45 -45z" transform="translate(0,86) scale(0.1,-0.1)" stroke="none" fill="#B35819"/>

<path d="M241 796 c10 -10 129 -54 124 -46 -3 5 -30 18 -61 29 -53 20 -72 25 -63 17z" transform="translate(0,86) scale(0.1,-0.1)" stroke="none" fill="#D6A76A"/>

<path d="M168 803 c-28 -3 -38 -9 -38 -21 1 -19 30 -63 30 -45 0 7 -4 15 -10 18 -21 13 -10 35 18 36 15 0 36 4 47 9 21 9 15 9 -47 3z" transform="translate(0,86) scale(0.1,-0.1)" stroke="none" fill="#D6A76A"/>

<path d="M241 247 c-7 -19 -27 -61 -46 -93 -19 -33 -25 -48 -14 -34 26 30 84 149 76 156 -3 3 -10 -10 -16 -29z" transform="translate(0,86) scale(0.1,-0.1)" stroke="none" fill="#D6A76A"/>

<path d="M545 485 c0 -52 3 -87 7 -77 9 22 9 132 0 154 -4 10 -7 -25 -7 -77z" transform="translate(0,86) scale(0.1,-0.1)" stroke="none" fill="#D6A76A"/>

<path d="M102 178 c-7 -7 -12 -16 -12 -21 0 -4 -14 -28 -31 -53 -17 -25 -28 -50 -26 -57 4 -9 6 -8 6 1 1 7 14 32 30 55 47 69 62 104 33 75z" transform="translate(0,86) scale(0.1,-0.1)" stroke="none" fill="#D6A76A"/>

<path d="M380 737 c3 -3 33 -26 68 -51 34 -26 67 -58 72 -71 11 -30 20 -33 13 -5 -6 23 -74 86 -124 114 -19 11 -32 17 -29 13z" transform="translate(0,86) scale(0.1,-0.1)" stroke="none" fill="#D6A76A"/>

<path d="M384 249 c-14 -29 -48 -74 -75 -101 -26 -26 -40 -44 -30 -38 29 15 90 89 117 143 13 26 22 47 19 47 -2 0 -16 -23 -31 -51z" transform="translate(0,86) scale(0.1,-0.1)" stroke="none" fill="#B35819"/>

<path d="M451 238 c-30 -48 -60 -80 -114 -121 -27 -21 -45 -37 -42 -37 19 0 108 76 138 118 40 55 50 72 43 72 -2 0 -14 -15 -25 -32z" transform="translate(0,86) scale(0.1,-0.1)" stroke="none" fill="#B35819"/>

<path d="M66 100 c-14 -22 -26 -44 -26 -50 0 -12 135 -13 164 -1 11 4 -19 6 -67 3 -48 -2 -87 -1 -87 3 0 4 8 19 18 33 26 37 34 52 29 52 -2 0 -16 -18 -31 -40z" transform="translate(0,86) scale(0.1,-0.1)" stroke="none" fill="#B35819"/>

<path d="M530 569 c16 -54 12 -135 -9 -194 -11 -31 -16 -53 -12 -50 5 2 16 30 26 61 19 61 17 186 -4 207 -8 8 -8 2 -1 -24z" transform="translate(0,86) scale(0.1,-0.1)" stroke="none" fill="#B35819"/>

<path d="M185 533 c0 -79 3 -134 7 -121 9 32 9 241 0 254 -4 7 -7 -53 -7 -133z" transform="translate(0,86) scale(0.1,-0.1)" stroke="none" fill="#D6A76A"/>

<path d="M260 726 c0 -2 8 -21 17 -42 11 -24 20 -77 24 -139 l5 -100 2 91 c1 64 -3 103 -14 129 -18 45 -14 52 20 30 14 -10 26 -15 26 -12 0 3 -15 15 -34 26 -32 20 -46 25 -46 17z" transform="translate(0,86) scale(0.1,-0.1)" stroke="none" fill="#D6A76A"/>

<path d="M515 337 c-33 -78 -106 -177 -159 -217 -28 -21 -78 -48 -111 -59 -36 -12 -46 -18 -25 -15 92 17 185 87 247 187 44 69 77 137 71 143 -3 2 -13 -15 -23 -39z" transform="translate(0,86) scale(0.1,-0.1)" stroke="none" fill="#D6A76A"/>

<path d="M447 519 c16 -138 -98 -362 -212 -415 -24 -11 -25 -13 -5 -8 123 31 271 332 220 449 -6 13 -7 5 -3 -26z" transform="translate(0,86) scale(0.1,-0.1)" stroke="none" fill="#D6A76A"/>

<path d="M173 793 c-18 -2 -33 -7 -33 -11 0 -4 13 -34 30 -67 27 -55 29 -69 29 -165 1 -115 -27 -245 -73 -346 -14 -30 -23 -54 -20 -54 11 0 56 114 79 201 19 71 25 120 25 200 0 100 -2 111 -30 164 -16 31 -30 58 -30 60 0 1 18 5 39 9 25 4 52 1 75 -9 50 -21 59 -17 11 5 -41 19 -47 20 -102 13z" transform="translate(0,86) scale(0.1,-0.1)" stroke="none" fill="#B35819"/>

<path d="M250 731 c0 -5 9 -30 20 -56 32 -75 25 -241 -16 -364 -8 -24 -13 -46 -10 -48 2 -3 10 12 16 34 46 151 53 300 20 379 -11 26 -18 49 -16 52 9 8 104 -58 136 -95 38 -43 50 -72 60 -143 7 -51 7 -52 9 -14 2 86 -48 168 -140 228 -56 36 -79 44 -79 27z" transform="translate(0,86) scale(0.1,-0.1)" stroke="none" fill="#B35819"/>

<path d="M178 783 c-16 -2 -28 -6 -28 -8 0 -1 14 -29 30 -60 28 -53 30 -64 30 -164 0 -159 -43 -308 -124 -435 -20 -31 -36 -59 -36 -61 0 -13 135 -3 189 14 193 60 342 319 290 504 -12 45 -71 105 -144 147 -54 30 -154 71 -170 68 -5 0 -22 -3 -37 -5z m151 -79 c151 -98 177 -233 81 -423 -66 -131 -133 -192 -229 -207 -46 -7 -51 1 -21 39 104 133 164 436 110 562 -34 79 -25 83 59 29z" transform="translate(0,86) scale(0.1,-0.1)" stroke="none" fill="#6E2D13"/>

</g>

<g id="4" transform="translate(240.0,0)scale(1,1)">

<path d="M143 273 c-23 -75 -23 -77 -3 -34 11 25 19 51 18 59 -2 7 -8 -4 -15 -25z" transform="translate(0,86) scale(0.1,-0.1)" stroke="none" fill="#D6A76A"/>

<path d="M321 757 c16 -13 99 -57 99 -53 0 7 -84 56 -95 56 -5 0 -6 -1 -4 -3z" transform="translate(0,86) scale(0.1,-0.1)" stroke="none" fill="#B35819"/>

<path d="M156 108 c-22 -31 -20 -38 12 -37 16 1 20 3 10 6 -21 5 -23 24 -6 41 7 7 9 12 6 12 -4 0 -14 -10 -22 -22z" transform="translate(0,86) scale(0.1,-0.1)" stroke="none" fill="#B35819"/>

<path d="M443 388 c-6 -24 -13 -52 -17 -63 -5 -12 -1 -10 7 5 15 25 33 100 25 100 -3 0 -9 -19 -15 -42z" transform="translate(0,86) scale(0.1,-0.1)" stroke="none" fill="#B35819"/>

<path d="M470 658 c25 -25 47 -44 49 -42 6 5 -10 23 -52 55 l-42 32 45 -45z" transform="translate(0,86) scale(0.1,-0.1)" stroke="none" fill="#B35819"/>

<path d="M241 796 c10 -10 129 -54 124 -46 -3 5 -30 18 -61 29 -53 20 -72 25 -63 17z" transform="translate(0,86) scale(0.1,-0.1)" stroke="none" fill="#D6A76A"/>

<path d="M168 803 c-28 -3 -38 -9 -38 -21 1 -19 30 -63 30 -45 0 7 -4 15 -10 18 -21 13 -10 35 18 36 15 0 36 4 47 9 21 9 15 9 -47 3z" transform="translate(0,86) scale(0.1,-0.1)" stroke="none" fill="#D6A76A"/>

<path d="M241 247 c-7 -19 -27 -61 -46 -93 -19 -33 -25 -48 -14 -34 26 30 84 149 76 156 -3 3 -10 -10 -16 -29z" transform="translate(0,86) scale(0.1,-0.1)" stroke="none" fill="#D6A76A"/>

<path d="M545 485 c0 -52 3 -87 7 -77 9 22 9 132 0 154 -4 10 -7 -25 -7 -77z" transform="translate(0,86) scale(0.1,-0.1)" stroke="none" fill="#D6A76A"/>

<path d="M102 178 c-7 -7 -12 -16 -12 -21 0 -4 -14 -28 -31 -53 -17 -25 -28 -50 -26 -57 4 -9 6 -8 6 1 1 7 14 32 30 55 47 69 62 104 33 75z" transform="translate(0,86) scale(0.1,-0.1)" stroke="none" fill="#D6A76A"/>

<path d="M380 737 c3 -3 33 -26 68 -51 34 -26 67 -58 72 -71 11 -30 20 -33 13 -5 -6 23 -74 86 -124 114 -19 11 -32 17 -29 13z" transform="translate(0,86) scale(0.1,-0.1)" stroke="none" fill="#D6A76A"/>

<path d="M384 249 c-14 -29 -48 -74 -75 -101 -26 -26 -40 -44 -30 -38 29 15 90 89 117 143 13 26 22 47 19 47 -2 0 -16 -23 -31 -51z" transform="translate(0,86) scale(0.1,-0.1)" stroke="none" fill="#B35819"/>

<path d="M451 238 c-30 -48 -60 -80 -114 -121 -27 -21 -45 -37 -42 -37 19 0 108 76 138 118 40 55 50 72 43 72 -2 0 -14 -15 -25 -32z" transform="translate(0,86) scale(0.1,-0.1)" stroke="none" fill="#B35819"/>

<path d="M66 100 c-14 -22 -26 -44 -26 -50 0 -12 135 -13 164 -1 11 4 -19 6 -67 3 -48 -2 -87 -1 -87 3 0 4 8 19 18 33 26 37 34 52 29 52 -2 0 -16 -18 -31 -40z" transform="translate(0,86) scale(0.1,-0.1)" stroke="none" fill="#B35819"/>

<path d="M530 569 c16 -54 12 -135 -9 -194 -11 -31 -16 -53 -12 -50 5 2 16 30 26 61 19 61 17 186 -4 207 -8 8 -8 2 -1 -24z" transform="translate(0,86) scale(0.1,-0.1)" stroke="none" fill="#B35819"/>

<path d="M185 533 c0 -79 3 -134 7 -121 9 32 9 241 0 254 -4 7 -7 -53 -7 -133z" transform="translate(0,86) scale(0.1,-0.1)" stroke="none" fill="#D6A76A"/>

<path d="M260 726 c0 -2 8 -21 17 -42 11 -24 20 -77 24 -139 l5 -100 2 91 c1 64 -3 103 -14 129 -18 45 -14 52 20 30 14 -10 26 -15 26 -12 0 3 -15 15 -34 26 -32 20 -46 25 -46 17z" transform="translate(0,86) scale(0.1,-0.1)" stroke="none" fill="#D6A76A"/>

<path d="M515 337 c-33 -78 -106 -177 -159 -217 -28 -21 -78 -48 -111 -59 -36 -12 -46 -18 -25 -15 92 17 185 87 247 187 44 69 77 137 71 143 -3 2 -13 -15 -23 -39z" transform="translate(0,86) scale(0.1,-0.1)" stroke="none" fill="#D6A76A"/>

<path d="M447 519 c16 -138 -98 -362 -212 -415 -24 -11 -25 -13 -5 -8 123 31 271 332 220 449 -6 13 -7 5 -3 -26z" transform="translate(0,86) scale(0.1,-0.1)" stroke="none" fill="#D6A76A"/>

<path d="M173 793 c-18 -2 -33 -7 -33 -11 0 -4 13 -34 30 -67 27 -55 29 -69 29 -165 1 -115 -27 -245 -73 -346 -14 -30 -23 -54 -20 -54 11 0 56 114 79 201 19 71 25 120 25 200 0 100 -2 111 -30 164 -16 31 -30 58 -30 60 0 1 18 5 39 9 25 4 52 1 75 -9 50 -21 59 -17 11 5 -41 19 -47 20 -102 13z" transform="translate(0,86) scale(0.1,-0.1)" stroke="none" fill="#B35819"/>

<path d="M250 731 c0 -5 9 -30 20 -56 32 -75 25 -241 -16 -364 -8 -24 -13 -46 -10 -48 2 -3 10 12 16 34 46 151 53 300 20 379 -11 26 -18 49 -16 52 9 8 104 -58 136 -95 38 -43 50 -72 60 -143 7 -51 7 -52 9 -14 2 86 -48 168 -140 228 -56 36 -79 44 -79 27z" transform="translate(0,86) scale(0.1,-0.1)" stroke="none" fill="#B35819"/>

<path d="M178 783 c-16 -2 -28 -6 -28 -8 0 -1 14 -29 30 -60 28 -53 30 -64 30 -164 0 -159 -43 -308 -124 -435 -20 -31 -36 -59 -36 -61 0 -13 135 -3 189 14 193 60 342 319 290 504 -12 45 -71 105 -144 147 -54 30 -154 71 -170 68 -5 0 -22 -3 -37 -5z m151 -79 c151 -98 177 -233 81 -423 -66 -131 -133 -192 -229 -207 -46 -7 -51 1 -21 39 104 133 164 436 110 562 -34 79 -25 83 59 29z" transform="translate(0,86) scale(0.1,-0.1)" stroke="none" fill="#6E2D13"/>

</g>

</g>
<g id="row2" transform="translate(8,172.0)">
<g id="0" transform="translate(0.0,0)scale(1,1)">

<path d="M143 273 c-23 -75 -23 -77 -3 -34 11 25 19 51 18 59 -2 7 -8 -4 -15 -25z" transform="translate(0,86) scale(0.1,-0.1)" stroke="none" fill="#D6A76A"/>

<path d="M321 757 c16 -13 99 -57 99 -53 0 7 -84 56 -95 56 -5 0 -6 -1 -4 -3z" transform="translate(0,86) scale(0.1,-0.1)" stroke="none" fill="#B35819"/>

<path d="M156 108 c-22 -31 -20 -38 12 -37 16 1 20 3 10 6 -21 5 -23 24 -6 41 7 7 9 12 6 12 -4 0 -14 -10 -22 -22z" transform="translate(0,86) scale(0.1,-0.1)" stroke="none" fill="#B35819"/>

<path d="M443 388 c-6 -24 -13 -52 -17 -63 -5 -12 -1 -10 7 5 15 25 33 100 25 100 -3 0 -9 -19 -15 -42z" transform="translate(0,86) scale(0.1,-0.1)" stroke="none" fill="#B35819"/>

<path d="M470 658 c25 -25 47 -44 49 -42 6 5 -10 23 -52 55 l-42 32 45 -45z" transform="translate(0,86) scale(0.1,-0.1)" stroke="none" fill="#B35819"/>

<path d="M241 796 c10 -10 129 -54 124 -46 -3 5 -30 18 -61 29 -53 20 -72 25 -63 17z" transform="translate(0,86) scale(0.1,-0.1)" stroke="none" fill="#D6A76A"/>

<path d="M168 803 c-28 -3 -38 -9 -38 -21 1 -19 30 -63 30 -45 0 7 -4 15 -10 18 -21 13 -10 35 18 36 15 0 36 4 47 9 21 9 15 9 -47 3z" transform="translate(0,86) scale(0.1,-0.1)" stroke="none" fill="#D6A76A"/>

<path d="M241 247 c-7 -19 -27 -61 -46 -93 -19 -33 -25 -48 -14 -34 26 30 84 149 76 156 -3 3 -10 -10 -16 -29z" transform="translate(0,86) scale(0.1,-0.1)" stroke="none" fill="#D6A76A"/>

<path d="M545 485 c0 -52 3 -87 7 -77 9 22 9 132 0 154 -4 10 -7 -25 -7 -77z" transform="translate(0,86) scale(0.1,-0.1)" stroke="none" fill="#D6A76A"/>

<path d="M102 178 c-7 -7 -12 -16 -12 -21 0 -4 -14 -28 -31 -53 -17 -25 -28 -50 -26 -57 4 -9 6 -8 6 1 1 7 14 32 30 55 47 69 62 104 33 75z" transform="translate(0,86) scale(0.1,-0.1)" stroke="none" fill="#D6A76A"/>

<path d="M380 737 c3 -3 33 -26 68 -51 34 -26 67 -58 72 -71 11 -30 20 -33 13 -5 -6 23 -74 86 -124 114 -19 11 -32 17 -29 13z" transform="translate(0,86) scale(0.1,-0.1)" stroke="none" fill="#D6A76A"/>

<path d="M384 249 c-14 -29 -48 -74 -75 -101 -26 -26 -40 -44 -30 -38 29 15 90 89 117 143 13 26 22 47 19 47 -2 0 -16 -23 -31 -51z" transform="translate(0,86) scale(0.1,-0.1)" stroke="none" fill="#B35819"/>

<path d="M451 238 c-30 -48 -60 -80 -114 -121 -27 -21 -45 -37 -42 -37 19 0 108 76 138 118 40 55 50 72 43 72 -2 0 -14 -15 -25 -32z" transform="translate(0,86) scale(0.1,-0.1)" stroke="none" fill="#B35819"/>

<path d="M66 100 c-14 -22 -26 -44 -26 -50 0 -12 135 -13 164 -1 11 4 -19 6 -67 3 -48 -2 -87 -1 -87 3 0 4 8 19 18 33 26 37 34 52 29 52 -2 0 -16 -18 -31 -40z" transform="translate(0,86) scale(0.1,-0.1)" stroke="none" fill="#B35819"/>

<path d="M530 569 c16 -54 12 -135 -9 -194 -11 -31 -16 -53 -12 -50 5 2 16 30 26 61 19 61 17 186 -4 207 -8 8 -8 2 -1 -24z" transform="translate(0,86) scale(0.1,-0.1)" stroke="none" fill="#B35819"/>

<path d="M185 533 c0 -79 3 -134 7 -121 9 32 9 241 0 254 -4 7 -7 -53 -7 -133z" transform="translate(0,86) scale(0.1,-0.1)" stroke="none" fill="#D6A76A"/>

<path d="M260 726 c0 -2 8 -21 17 -42 11 -24 20 -77 24 -139 l5 -100 2 91 c1 64 -3 103 -14 129 -18 45 -14 52 20 30 14 -10 26 -15 26 -12 0 3 -15 15 -34 26 -32 20 -46 25 -46 17z" transform="translate(0,86) scale(0.1,-0.1)" stroke="none" fill="#D6A76A"/>

<path d="M515 337 c-33 -78 -106 -177 -159 -217 -28 -21 -78 -48 -111 -59 -36 -12 -46 -18 -25 -15 92 17 185 87 247 187 44 69 77 137 71 143 -3 2 -13 -15 -23 -39z" transform="translate(0,86) scale(0.1,-0.1)" stroke="none" fill="#D6A76A"/>

<path d="M447 519 c16 -138 -98 -362 -212 -415 -24 -11 -25 -13 -5 -8 123 31 271 332 220 449 -6 13 -7 5 -3 -26z" transform="translate(0,86) scale(0.1,-0.1)" stroke="none" fill="#D6A76A"/>

<path d="M173 793 c-18 -2 -33 -7 -33 -11 0 -4 13 -34 30 -67 27 -55 29 -69 29 -165 1 -115 -27 -245 -73 -346 -14 -30 -23 -54 -20 -54 11 0 56 114 79 201 19 71 25 120 25 200 0 100 -2 111 -30 164 -16 31 -30 58 -30 60 0 1 18 5 39 9 25 4 52 1 75 -9 50 -21 59 -17 11 5 -41 19 -47 20 -102 13z" transform="translate(0,86) scale(0.1,-0.1)" stroke="none" fill="#B35819"/>

<path d="M250 731 c0 -5 9 -30 20 -56 32 -75 25 -241 -16 -364 -8 -24 -13 -46 -10 -48 2 -3 10 12 16 34 46 151 53 300 20 379 -11 26 -18 49 -16 52 9 8 104 -58 136 -95 38 -43 50 -72 60 -143 7 -51 7 -52 9 -14 2 86 -48 168 -140 228 -56 36 -79 44 -79 27z" transform="translate(0,86) scale(0.1,-0.1)" stroke="none" fill="#B35819"/>

<path d="M178 783 c-16 -2 -28 -6 -28 -8 0 -1 14 -29 30 -60 28 -53 30 -64 30 -164 0 -159 -43 -308 -124 -435 -20 -31 -36 -59 -36 -61 0 -13 135 -3 189 14 193 60 342 319 290 504 -12 45 -71 105 -144 147 -54 30 -154 71 -170 68 -5 0 -22 -3 -37 -5z m151 -79 c151 -98 177 -233 81 -423 -66 -131 -133 -192 -229 -207 -46 -7 -51 1 -21 39 104 133 164 436 110 562 -34 79 -25 83 59 29z" transform="translate(0,86) scale(0.1,-0.1)" stroke="none" fill="#6E2D13"/>

</g>

<g id="1" transform="translate(60.0,0)scale(1,1)">

<path d="M143 273 c-23 -75 -23 -77 -3 -34 11 25 19 51 18 59 -2 7 -8 -4 -15 -25z" transform="translate(0,86) scale(0.1,-0.1)" stroke="none" fill="#D6A76A"/>

<path d="M321 757 c16 -13 99 -57 99 -53 0 7 -84 56 -95 56 -5 0 -6 -1 -4 -3z" transform="translate(0,86) scale(0.1,-0.1)" stroke="none" fill="#B35819"/>

<path d="M156 108 c-22 -31 -20 -38 12 -37 16 1 20 3 10 6 -21 5 -23 24 -6 41 7 7 9 12 6 12 -4 0 -14 -10 -22 -22z" transform="translate(0,86) scale(0.1,-0.1)" stroke="none" fill="#B35819"/>

<path d="M443 388 c-6 -24 -13 -52 -17 -63 -5 -12 -1 -10 7 5 15 25 33 100 25 100 -3 0 -9 -19 -15 -42z" transform="translate(0,86) scale(0.1,-0.1)" stroke="none" fill="#B35819"/>

<path d="M470 658 c25 -25 47 -44 49 -42 6 5 -10 23 -52 55 l-42 32 45 -45z" transform="translate(0,86) scale(0.1,-0.1)" stroke="none" fill="#B35819"/>

<path d="M241 796 c10 -10 129 -54 124 -46 -3 5 -30 18 -61 29 -53 20 -72 25 -63 17z" transform="translate(0,86) scale(0.1,-0.1)" stroke="none" fill="#D6A76A"/>

<path d="M168 803 c-28 -3 -38 -9 -38 -21 1 -19 30 -63 30 -45 0 7 -4 15 -10 18 -21 13 -10 35 18 36 15 0 36 4 47 9 21 9 15 9 -47 3z" transform="translate(0,86) scale(0.1,-0.1)" stroke="none" fill="#D6A76A"/>

<path d="M241 247 c-7 -19 -27 -61 -46 -93 -19 -33 -25 -48 -14 -34 26 30 84 149 76 156 -3 3 -10 -10 -16 -29z" transform="translate(0,86) scale(0.1,-0.1)" stroke="none" fill="#D6A76A"/>

<path d="M545 485 c0 -52 3 -87 7 -77 9 22 9 132 0 154 -4 10 -7 -25 -7 -77z" transform="translate(0,86) scale(0.1,-0.1)" stroke="none" fill="#D6A76A"/>

<path d="M102 178 c-7 -7 -12 -16 -12 -21 0 -4 -14 -28 -31 -53 -17 -25 -28 -50 -26 -57 4 -9 6 -8 6 1 1 7 14 32 30 55 47 69 62 104 33 75z" transform="translate(0,86) scale(0.1,-0.1)" stroke="none" fill="#D6A76A"/>

<path d="M380 737 c3 -3 33 -26 68 -51 34 -26 67 -58 72 -71 11 -30 20 -33 13 -5 -6 23 -74 86 -124 114 -19 11 -32 17 -29 13z" transform="translate(0,86) scale(0.1,-0.1)" stroke="none" fill="#D6A76A"/>

<path d="M384 249 c-14 -29 -48 -74 -75 -101 -26 -26 -40 -44 -30 -38 29 15 90 89 117 143 13 26 22 47 19 47 -2 0 -16 -23 -31 -51z" transform="translate(0,86) scale(0.1,-0.1)" stroke="none" fill="#B35819"/>

<path d="M451 238 c-30 -48 -60 -80 -114 -121 -27 -21 -45 -37 -42 -37 19 0 108 76 138 118 40 55 50 72 43 72 -2 0 -14 -15 -25 -32z" transform="translate(0,86) scale(0.1,-0.1)" stroke="none" fill="#B35819"/>

<path d="M66 100 c-14 -22 -26 -44 -26 -50 0 -12 135 -13 164 -1 11 4 -19 6 -67 3 -48 -2 -87 -1 -87 3 0 4 8 19 18 33 26 37 34 52 29 52 -2 0 -16 -18 -31 -40z" transform="translate(0,86) scale(0.1,-0.1)" stroke="none" fill="#B35819"/>

<path d="M530 569 c16 -54 12 -135 -9 -194 -11 -31 -16 -53 -12 -50 5 2 16 30 26 61 19 61 17 186 -4 207 -8 8 -8 2 -1 -24z" transform="translate(0,86) scale(0.1,-0.1)" stroke="none" fill="#B35819"/>

<path d="M185 533 c0 -79 3 -134 7 -121 9 32 9 241 0 254 -4 7 -7 -53 -7 -133z" transform="translate(0,86) scale(0.1,-0.1)" stroke="none" fill="#D6A76A"/>

<path d="M260 726 c0 -2 8 -21 17 -42 11 -24 20 -77 24 -139 l5 -100 2 91 c1 64 -3 103 -14 129 -18 45 -14 52 20 30 14 -10 26 -15 26 -12 0 3 -15 15 -34 26 -32 20 -46 25 -46 17z" transform="translate(0,86) scale(0.1,-0.1)" stroke="none" fill="#D6A76A"/>

<path d="M515 337 c-33 -78 -106 -177 -159 -217 -28 -21 -78 -48 -111 -59 -36 -12 -46 -18 -25 -15 92 17 185 87 247 187 44 69 77 137 71 143 -3 2 -13 -15 -23 -39z" transform="translate(0,86) scale(0.1,-0.1)" stroke="none" fill="#D6A76A"/>

<path d="M447 519 c16 -138 -98 -362 -212 -415 -24 -11 -25 -13 -5 -8 123 31 271 332 220 449 -6 13 -7 5 -3 -26z" transform="translate(0,86) scale(0.1,-0.1)" stroke="none" fill="#D6A76A"/>

<path d="M173 793 c-18 -2 -33 -7 -33 -11 0 -4 13 -34 30 -67 27 -55 29 -69 29 -165 1 -115 -27 -245 -73 -346 -14 -30 -23 -54 -20 -54 11 0 56 114 79 201 19 71 25 120 25 200 0 100 -2 111 -30 164 -16 31 -30 58 -30 60 0 1 18 5 39 9 25 4 52 1 75 -9 50 -21 59 -17 11 5 -41 19 -47 20 -102 13z" transform="translate(0,86) scale(0.1,-0.1)" stroke="none" fill="#B35819"/>

<path d="M250 731 c0 -5 9 -30 20 -56 32 -75 25 -241 -16 -364 -8 -24 -13 -46 -10 -48 2 -3 10 12 16 34 46 151 53 300 20 379 -11 26 -18 49 -16 52 9 8 104 -58 136 -95 38 -43 50 -72 60 -143 7 -51 7 -52 9 -14 2 86 -48 168 -140 228 -56 36 -79 44 -79 27z" transform="translate(0,86) scale(0.1,-0.1)" stroke="none" fill="#B35819"/>

<path d="M178 783 c-16 -2 -28 -6 -28 -8 0 -1 14 -29 30 -60 28 -53 30 -64 30 -164 0 -159 -43 -308 -124 -435 -20 -31 -36 -59 -36 -61 0 -13 135 -3 189 14 193 60 342 319 290 504 -12 45 -71 105 -144 147 -54 30 -154 71 -170 68 -5 0 -22 -3 -37 -5z m151 -79 c151 -98 177 -233 81 -423 -66 -131 -133 -192 -229 -207 -46 -7 -51 1 -21 39 104 133 164 436 110 562 -34 79 -25 83 59 29z" transform="translate(0,86) scale(0.1,-0.1)" stroke="none" fill="#6E2D13"/>

</g>

<g id="2" transform="translate(120.0,0)scale(1,1)">

<path d="M143 273 c-23 -75 -23 -77 -3 -34 11 25 19 51 18 59 -2 7 -8 -4 -15 -25z" transform="translate(0,86) scale(0.1,-0.1)" stroke="none" fill="#D6A76A"/>

<path d="M321 757 c16 -13 99 -57 99 -53 0 7 -84 56 -95 56 -5 0 -6 -1 -4 -3z" transform="translate(0,86) scale(0.1,-0.1)" stroke="none" fill="#B35819"/>

<path d="M156 108 c-22 -31 -20 -38 12 -37 16 1 20 3 10 6 -21 5 -23 24 -6 41 7 7 9 12 6 12 -4 0 -14 -10 -22 -22z" transform="translate(0,86) scale(0.1,-0.1)" stroke="none" fill="#B35819"/>

<path d="M443 388 c-6 -24 -13 -52 -17 -63 -5 -12 -1 -10 7 5 15 25 33 100 25 100 -3 0 -9 -19 -15 -42z" transform="translate(0,86) scale(0.1,-0.1)" stroke="none" fill="#B35819"/>

<path d="M470 658 c25 -25 47 -44 49 -42 6 5 -10 23 -52 55 l-42 32 45 -45z" transform="translate(0,86) scale(0.1,-0.1)" stroke="none" fill="#B35819"/>

<path d="M241 796 c10 -10 129 -54 124 -46 -3 5 -30 18 -61 29 -53 20 -72 25 -63 17z" transform="translate(0,86) scale(0.1,-0.1)" stroke="none" fill="#D6A76A"/>

<path d="M168 803 c-28 -3 -38 -9 -38 -21 1 -19 30 -63 30 -45 0 7 -4 15 -10 18 -21 13 -10 35 18 36 15 0 36 4 47 9 21 9 15 9 -47 3z" transform="translate(0,86) scale(0.1,-0.1)" stroke="none" fill="#D6A76A"/>

<path d="M241 247 c-7 -19 -27 -61 -46 -93 -19 -33 -25 -48 -14 -34 26 30 84 149 76 156 -3 3 -10 -10 -16 -29z" transform="translate(0,86) scale(0.1,-0.1)" stroke="none" fill="#D6A76A"/>

<path d="M545 485 c0 -52 3 -87 7 -77 9 22 9 132 0 154 -4 10 -7 -25 -7 -77z" transform="translate(0,86) scale(0.1,-0.1)" stroke="none" fill="#D6A76A"/>

<path d="M102 178 c-7 -7 -12 -16 -12 -21 0 -4 -14 -28 -31 -53 -17 -25 -28 -50 -26 -57 4 -9 6 -8 6 1 1 7 14 32 30 55 47 69 62 104 33 75z" transform="translate(0,86) scale(0.1,-0.1)" stroke="none" fill="#D6A76A"/>

<path d="M380 737 c3 -3 33 -26 68 -51 34 -26 67 -58 72 -71 11 -30 20 -33 13 -5 -6 23 -74 86 -124 114 -19 11 -32 17 -29 13z" transform="translate(0,86) scale(0.1,-0.1)" stroke="none" fill="#D6A76A"/>

<path d="M384 249 c-14 -29 -48 -74 -75 -101 -26 -26 -40 -44 -30 -38 29 15 90 89 117 143 13 26 22 47 19 47 -2 0 -16 -23 -31 -51z" transform="translate(0,86) scale(0.1,-0.1)" stroke="none" fill="#B35819"/>

<path d="M451 238 c-30 -48 -60 -80 -114 -121 -27 -21 -45 -37 -42 -37 19 0 108 76 138 118 40 55 50 72 43 72 -2 0 -14 -15 -25 -32z" transform="translate(0,86) scale(0.1,-0.1)" stroke="none" fill="#B35819"/>

<path d="M66 100 c-14 -22 -26 -44 -26 -50 0 -12 135 -13 164 -1 11 4 -19 6 -67 3 -48 -2 -87 -1 -87 3 0 4 8 19 18 33 26 37 34 52 29 52 -2 0 -16 -18 -31 -40z" transform="translate(0,86) scale(0.1,-0.1)" stroke="none" fill="#B35819"/>

<path d="M530 569 c16 -54 12 -135 -9 -194 -11 -31 -16 -53 -12 -50 5 2 16 30 26 61 19 61 17 186 -4 207 -8 8 -8 2 -1 -24z" transform="translate(0,86) scale(0.1,-0.1)" stroke="none" fill="#B35819"/>

<path d="M185 533 c0 -79 3 -134 7 -121 9 32 9 241 0 254 -4 7 -7 -53 -7 -133z" transform="translate(0,86) scale(0.1,-0.1)" stroke="none" fill="#D6A76A"/>

<path d="M260 726 c0 -2 8 -21 17 -42 11 -24 20 -77 24 -139 l5 -100 2 91 c1 64 -3 103 -14 129 -18 45 -14 52 20 30 14 -10 26 -15 26 -12 0 3 -15 15 -34 26 -32 20 -46 25 -46 17z" transform="translate(0,86) scale(0.1,-0.1)" stroke="none" fill="#D6A76A"/>

<path d="M515 337 c-33 -78 -106 -177 -159 -217 -28 -21 -78 -48 -111 -59 -36 -12 -46 -18 -25 -15 92 17 185 87 247 187 44 69 77 137 71 143 -3 2 -13 -15 -23 -39z" transform="translate(0,86) scale(0.1,-0.1)" stroke="none" fill="#D6A76A"/>

<path d="M447 519 c16 -138 -98 -362 -212 -415 -24 -11 -25 -13 -5 -8 123 31 271 332 220 449 -6 13 -7 5 -3 -26z" transform="translate(0,86) scale(0.1,-0.1)" stroke="none" fill="#D6A76A"/>

<path d="M173 793 c-18 -2 -33 -7 -33 -11 0 -4 13 -34 30 -67 27 -55 29 -69 29 -165 1 -115 -27 -245 -73 -346 -14 -30 -23 -54 -20 -54 11 0 56 114 79 201 19 71 25 120 25 200 0 100 -2 111 -30 164 -16 31 -30 58 -30 60 0 1 18 5 39 9 25 4 52 1 75 -9 50 -21 59 -17 11 5 -41 19 -47 20 -102 13z" transform="translate(0,86) scale(0.1,-0.1)" stroke="none" fill="#B35819"/>

<path d="M250 731 c0 -5 9 -30 20 -56 32 -75 25 -241 -16 -364 -8 -24 -13 -46 -10 -48 2 -3 10 12 16 34 46 151 53 300 20 379 -11 26 -18 49 -16 52 9 8 104 -58 136 -95 38 -43 50 -72 60 -143 7 -51 7 -52 9 -14 2 86 -48 168 -140 228 -56 36 -79 44 -79 27z" transform="translate(0,86) scale(0.1,-0.1)" stroke="none" fill="#B35819"/>

<path d="M178 783 c-16 -2 -28 -6 -28 -8 0 -1 14 -29 30 -60 28 -53 30 -64 30 -164 0 -159 -43 -308 -124 -435 -20 -31 -36 -59 -36 -61 0 -13 135 -3 189 14 193 60 342 319 290 504 -12 45 -71 105 -144 147 -54 30 -154 71 -170 68 -5 0 -22 -3 -37 -5z m151 -79 c151 -98 177 -233 81 -423 -66 -131 -133 -192 -229 -207 -46 -7 -51 1 -21 39 104 133 164 436 110 562 -34 79 -25 83 59 29z" transform="translate(0,86) scale(0.1,-0.1)" stroke="none" fill="#6E2D13"/>

</g>

<g id="3" transform="translate(180.0,0)scale(1,1)">

<path d="M143 273 c-23 -75 -23 -77 -3 -34 11 25 19 51 18 59 -2 7 -8 -4 -15 -25z" transform="translate(0,86) scale(0.1,-0.1)" stroke="none" fill="#D6A76A"/>

<path d="M321 757 c16 -13 99 -57 99 -53 0 7 -84 56 -95 56 -5 0 -6 -1 -4 -3z" transform="translate(0,86) scale(0.1,-0.1)" stroke="none" fill="#B35819"/>

<path d="M156 108 c-22 -31 -20 -38 12 -37 16 1 20 3 10 6 -21 5 -23 24 -6 41 7 7 9 12 6 12 -4 0 -14 -10 -22 -22z" transform="translate(0,86) scale(0.1,-0.1)" stroke="none" fill="#B35819"/>

<path d="M443 388 c-6 -24 -13 -52 -17 -63 -5 -12 -1 -10 7 5 15 25 33 100 25 100 -3 0 -9 -19 -15 -42z" transform="translate(0,86) scale(0.1,-0.1)" stroke="none" fill="#B35819"/>

<path d="M470 658 c25 -25 47 -44 49 -42 6 5 -10 23 -52 55 l-42 32 45 -45z" transform="translate(0,86) scale(0.1,-0.1)" stroke="none" fill="#B35819"/>

<path d="M241 796 c10 -10 129 -54 124 -46 -3 5 -30 18 -61 29 -53 20 -72 25 -63 17z" transform="translate(0,86) scale(0.1,-0.1)" stroke="none" fill="#D6A76A"/>

<path d="M168 803 c-28 -3 -38 -9 -38 -21 1 -19 30 -63 30 -45 0 7 -4 15 -10 18 -21 13 -10 35 18 36 15 0 36 4 47 9 21 9 15 9 -47 3z" transform="translate(0,86) scale(0.1,-0.1)" stroke="none" fill="#D6A76A"/>

<path d="M241 247 c-7 -19 -27 -61 -46 -93 -19 -33 -25 -48 -14 -34 26 30 84 149 76 156 -3 3 -10 -10 -16 -29z" transform="translate(0,86) scale(0.1,-0.1)" stroke="none" fill="#D6A76A"/>

<path d="M545 485 c0 -52 3 -87 7 -77 9 22 9 132 0 154 -4 10 -7 -25 -7 -77z" transform="translate(0,86) scale(0.1,-0.1)" stroke="none" fill="#D6A76A"/>

<path d="M102 178 c-7 -7 -12 -16 -12 -21 0 -4 -14 -28 -31 -53 -17 -25 -28 -50 -26 -57 4 -9 6 -8 6 1 1 7 14 32 30 55 47 69 62 104 33 75z" transform="translate(0,86) scale(0.1,-0.1)" stroke="none" fill="#D6A76A"/>

<path d="M380 737 c3 -3 33 -26 68 -51 34 -26 67 -58 72 -71 11 -30 20 -33 13 -5 -6 23 -74 86 -124 114 -19 11 -32 17 -29 13z" transform="translate(0,86) scale(0.1,-0.1)" stroke="none" fill="#D6A76A"/>

<path d="M384 249 c-14 -29 -48 -74 -75 -101 -26 -26 -40 -44 -30 -38 29 15 90 89 117 143 13 26 22 47 19 47 -2 0 -16 -23 -31 -51z" transform="translate(0,86) scale(0.1,-0.1)" stroke="none" fill="#B35819"/>

<path d="M451 238 c-30 -48 -60 -80 -114 -121 -27 -21 -45 -37 -42 -37 19 0 108 76 138 118 40 55 50 72 43 72 -2 0 -14 -15 -25 -32z" transform="translate(0,86) scale(0.1,-0.1)" stroke="none" fill="#B35819"/>

<path d="M66 100 c-14 -22 -26 -44 -26 -50 0 -12 135 -13 164 -1 11 4 -19 6 -67 3 -48 -2 -87 -1 -87 3 0 4 8 19 18 33 26 37 34 52 29 52 -2 0 -16 -18 -31 -40z" transform="translate(0,86) scale(0.1,-0.1)" stroke="none" fill="#B35819"/>

<path d="M530 569 c16 -54 12 -135 -9 -194 -11 -31 -16 -53 -12 -50 5 2 16 30 26 61 19 61 17 186 -4 207 -8 8 -8 2 -1 -24z" transform="translate(0,86) scale(0.1,-0.1)" stroke="none" fill="#B35819"/>

<path d="M185 533 c0 -79 3 -134 7 -121 9 32 9 241 0 254 -4 7 -7 -53 -7 -133z" transform="translate(0,86) scale(0.1,-0.1)" stroke="none" fill="#D6A76A"/>

<path d="M260 726 c0 -2 8 -21 17 -42 11 -24 20 -77 24 -139 l5 -100 2 91 c1 64 -3 103 -14 129 -18 45 -14 52 20 30 14 -10 26 -15 26 -12 0 3 -15 15 -34 26 -32 20 -46 25 -46 17z" transform="translate(0,86) scale(0.1,-0.1)" stroke="none" fill="#D6A76A"/>

<path d="M515 337 c-33 -78 -106 -177 -159 -217 -28 -21 -78 -48 -111 -59 -36 -12 -46 -18 -25 -15 92 17 185 87 247 187 44 69 77 137 71 143 -3 2 -13 -15 -23 -39z" transform="translate(0,86) scale(0.1,-0.1)" stroke="none" fill="#D6A76A"/>

<path d="M447 519 c16 -138 -98 -362 -212 -415 -24 -11 -25 -13 -5 -8 123 31 271 332 220 449 -6 13 -7 5 -3 -26z" transform="translate(0,86) scale(0.1,-0.1)" stroke="none" fill="#D6A76A"/>

<path d="M173 793 c-18 -2 -33 -7 -33 -11 0 -4 13 -34 30 -67 27 -55 29 -69 29 -165 1 -115 -27 -245 -73 -346 -14 -30 -23 -54 -20 -54 11 0 56 114 79 201 19 71 25 120 25 200 0 100 -2 111 -30 164 -16 31 -30 58 -30 60 0 1 18 5 39 9 25 4 52 1 75 -9 50 -21 59 -17 11 5 -41 19 -47 20 -102 13z" transform="translate(0,86) scale(0.1,-0.1)" stroke="none" fill="#B35819"/>

<path d="M250 731 c0 -5 9 -30 20 -56 32 -75 25 -241 -16 -364 -8 -24 -13 -46 -10 -48 2 -3 10 12 16 34 46 151 53 300 20 379 -11 26 -18 49 -16 52 9 8 104 -58 136 -95 38 -43 50 -72 60 -143 7 -51 7 -52 9 -14 2 86 -48 168 -140 228 -56 36 -79 44 -79 27z" transform="translate(0,86) scale(0.1,-0.1)" stroke="none" fill="#B35819"/>

<path d="M178 783 c-16 -2 -28 -6 -28 -8 0 -1 14 -29 30 -60 28 -53 30 -64 30 -164 0 -159 -43 -308 -124 -435 -20 -31 -36 -59 -36 -61 0 -13 135 -3 189 14 193 60 342 319 290 504 -12 45 -71 105 -144 147 -54 30 -154 71 -170 68 -5 0 -22 -3 -37 -5z m151 -79 c151 -98 177 -233 81 -423 -66 -131 -133 -192 -229 -207 -46 -7 -51 1 -21 39 104 133 164 436 110 562 -34 79 -25 83 59 29z" transform="translate(0,86) scale(0.1,-0.1)" stroke="none" fill="#6E2D13"/>

</g>

<g id="4" transform="translate(240.0,0)scale(1,1)">

<path d="M143 273 c-23 -75 -23 -77 -3 -34 11 25 19 51 18 59 -2 7 -8 -4 -15 -25z" transform="translate(0,86) scale(0.1,-0.1)" stroke="none" fill="#D6A76A"/>

<path d="M321 757 c16 -13 99 -57 99 -53 0 7 -84 56 -95 56 -5 0 -6 -1 -4 -3z" transform="translate(0,86) scale(0.1,-0.1)" stroke="none" fill="#B35819"/>

<path d="M156 108 c-22 -31 -20 -38 12 -37 16 1 20 3 10 6 -21 5 -23 24 -6 41 7 7 9 12 6 12 -4 0 -14 -10 -22 -22z" transform="translate(0,86) scale(0.1,-0.1)" stroke="none" fill="#B35819"/>

<path d="M443 388 c-6 -24 -13 -52 -17 -63 -5 -12 -1 -10 7 5 15 25 33 100 25 100 -3 0 -9 -19 -15 -42z" transform="translate(0,86) scale(0.1,-0.1)" stroke="none" fill="#B35819"/>

<path d="M470 658 c25 -25 47 -44 49 -42 6 5 -10 23 -52 55 l-42 32 45 -45z" transform="translate(0,86) scale(0.1,-0.1)" stroke="none" fill="#B35819"/>

<path d="M241 796 c10 -10 129 -54 124 -46 -3 5 -30 18 -61 29 -53 20 -72 25 -63 17z" transform="translate(0,86) scale(0.1,-0.1)" stroke="none" fill="#D6A76A"/>

<path d="M168 803 c-28 -3 -38 -9 -38 -21 1 -19 30 -63 30 -45 0 7 -4 15 -10 18 -21 13 -10 35 18 36 15 0 36 4 47 9 21 9 15 9 -47 3z" transform="translate(0,86) scale(0.1,-0.1)" stroke="none" fill="#D6A76A"/>

<path d="M241 247 c-7 -19 -27 -61 -46 -93 -19 -33 -25 -48 -14 -34 26 30 84 149 76 156 -3 3 -10 -10 -16 -29z" transform="translate(0,86) scale(0.1,-0.1)" stroke="none" fill="#D6A76A"/>

<path d="M545 485 c0 -52 3 -87 7 -77 9 22 9 132 0 154 -4 10 -7 -25 -7 -77z" transform="translate(0,86) scale(0.1,-0.1)" stroke="none" fill="#D6A76A"/>

<path d="M102 178 c-7 -7 -12 -16 -12 -21 0 -4 -14 -28 -31 -53 -17 -25 -28 -50 -26 -57 4 -9 6 -8 6 1 1 7 14 32 30 55 47 69 62 104 33 75z" transform="translate(0,86) scale(0.1,-0.1)" stroke="none" fill="#D6A76A"/>

<path d="M380 737 c3 -3 33 -26 68 -51 34 -26 67 -58 72 -71 11 -30 20 -33 13 -5 -6 23 -74 86 -124 114 -19 11 -32 17 -29 13z" transform="translate(0,86) scale(0.1,-0.1)" stroke="none" fill="#D6A76A"/>

<path d="M384 249 c-14 -29 -48 -74 -75 -101 -26 -26 -40 -44 -30 -38 29 15 90 89 117 143 13 26 22 47 19 47 -2 0 -16 -23 -31 -51z" transform="translate(0,86) scale(0.1,-0.1)" stroke="none" fill="#B35819"/>

<path d="M451 238 c-30 -48 -60 -80 -114 -121 -27 -21 -45 -37 -42 -37 19 0 108 76 138 118 40 55 50 72 43 72 -2 0 -14 -15 -25 -32z" transform="translate(0,86) scale(0.1,-0.1)" stroke="none" fill="#B35819"/>

<path d="M66 100 c-14 -22 -26 -44 -26 -50 0 -12 135 -13 164 -1 11 4 -19 6 -67 3 -48 -2 -87 -1 -87 3 0 4 8 19 18 33 26 37 34 52 29 52 -2 0 -16 -18 -31 -40z" transform="translate(0,86) scale(0.1,-0.1)" stroke="none" fill="#B35819"/>

<path d="M530 569 c16 -54 12 -135 -9 -194 -11 -31 -16 -53 -12 -50 5 2 16 30 26 61 19 61 17 186 -4 207 -8 8 -8 2 -1 -24z" transform="translate(0,86) scale(0.1,-0.1)" stroke="none" fill="#B35819"/>

<path d="M185 533 c0 -79 3 -134 7 -121 9 32 9 241 0 254 -4 7 -7 -53 -7 -133z" transform="translate(0,86) scale(0.1,-0.1)" stroke="none" fill="#D6A76A"/>

<path d="M260 726 c0 -2 8 -21 17 -42 11 -24 20 -77 24 -139 l5 -100 2 91 c1 64 -3 103 -14 129 -18 45 -14 52 20 30 14 -10 26 -15 26 -12 0 3 -15 15 -34 26 -32 20 -46 25 -46 17z" transform="translate(0,86) scale(0.1,-0.1)" stroke="none" fill="#D6A76A"/>

<path d="M515 337 c-33 -78 -106 -177 -159 -217 -28 -21 -78 -48 -111 -59 -36 -12 -46 -18 -25 -15 92 17 185 87 247 187 44 69 77 137 71 143 -3 2 -13 -15 -23 -39z" transform="translate(0,86) scale(0.1,-0.1)" stroke="none" fill="#D6A76A"/>

<path d="M447 519 c16 -138 -98 -362 -212 -415 -24 -11 -25 -13 -5 -8 123 31 271 332 220 449 -6 13 -7 5 -3 -26z" transform="translate(0,86) scale(0.1,-0.1)" stroke="none" fill="#D6A76A"/>

<path d="M173 793 c-18 -2 -33 -7 -33 -11 0 -4 13 -34 30 -67 27 -55 29 -69 29 -165 1 -115 -27 -245 -73 -346 -14 -30 -23 -54 -20 -54 11 0 56 114 79 201 19 71 25 120 25 200 0 100 -2 111 -30 164 -16 31 -30 58 -30 60 0 1 18 5 39 9 25 4 52 1 75 -9 50 -21 59 -17 11 5 -41 19 -47 20 -102 13z" transform="translate(0,86) scale(0.1,-0.1)" stroke="none" fill="#B35819"/>

<path d="M250 731 c0 -5 9 -30 20 -56 32 -75 25 -241 -16 -364 -8 -24 -13 -46 -10 -48 2 -3 10 12 16 34 46 151 53 300 20 379 -11 26 -18 49 -16 52 9 8 104 -58 136 -95 38 -43 50 -72 60 -143 7 -51 7 -52 9 -14 2 86 -48 168 -140 228 -56 36 -79 44 -79 27z" transform="translate(0,86) scale(0.1,-0.1)" stroke="none" fill="#B35819"/>

<path d="M178 783 c-16 -2 -28 -6 -28 -8 0 -1 14 -29 30 -60 28 -53 30 -64 30 -164 0 -159 -43 -308 -124 -435 -20 -31 -36 -59 -36 -61 0 -13 135 -3 189 14 193 60 342 319 290 504 -12 45 -71 105 -144 147 -54 30 -154 71 -170 68 -5 0 -22 -3 -37 -5z m151 -79 c151 -98 177 -233 81 -423 -66 -131 -133 -192 -229 -207 -46 -7 -51 1 -21 39 104 133 164 436 110 562 -34 79 -25 83 59 29z" transform="translate(0,86) scale(0.1,-0.1)" stroke="none" fill="#6E2D13"/>

</g>

</g>
<g id="row3" transform="translate(8,258.0)">
<g id="0" transform="translate(0.0,0)scale(1,1)">

<path d="M143 273 c-23 -75 -23 -77 -3 -34 11 25 19 51 18 59 -2 7 -8 -4 -15 -25z" transform="translate(0,86) scale(0.1,-0.1)" stroke="none" fill="#D6A76A"/>

<path d="M321 757 c16 -13 99 -57 99 -53 0 7 -84 56 -95 56 -5 0 -6 -1 -4 -3z" transform="translate(0,86) scale(0.1,-0.1)" stroke="none" fill="#B35819"/>

<path d="M156 108 c-22 -31 -20 -38 12 -37 16 1 20 3 10 6 -21 5 -23 24 -6 41 7 7 9 12 6 12 -4 0 -14 -10 -22 -22z" transform="translate(0,86) scale(0.1,-0.1)" stroke="none" fill="#B35819"/>

<path d="M443 388 c-6 -24 -13 -52 -17 -63 -5 -12 -1 -10 7 5 15 25 33 100 25 100 -3 0 -9 -19 -15 -42z" transform="translate(0,86) scale(0.1,-0.1)" stroke="none" fill="#B35819"/>

<path d="M470 658 c25 -25 47 -44 49 -42 6 5 -10 23 -52 55 l-42 32 45 -45z" transform="translate(0,86) scale(0.1,-0.1)" stroke="none" fill="#B35819"/>

<path d="M241 796 c10 -10 129 -54 124 -46 -3 5 -30 18 -61 29 -53 20 -72 25 -63 17z" transform="translate(0,86) scale(0.1,-0.1)" stroke="none" fill="#D6A76A"/>

<path d="M168 803 c-28 -3 -38 -9 -38 -21 1 -19 30 -63 30 -45 0 7 -4 15 -10 18 -21 13 -10 35 18 36 15 0 36 4 47 9 21 9 15 9 -47 3z" transform="translate(0,86) scale(0.1,-0.1)" stroke="none" fill="#D6A76A"/>

<path d="M241 247 c-7 -19 -27 -61 -46 -93 -19 -33 -25 -48 -14 -34 26 30 84 149 76 156 -3 3 -10 -10 -16 -29z" transform="translate(0,86) scale(0.1,-0.1)" stroke="none" fill="#D6A76A"/>

<path d="M545 485 c0 -52 3 -87 7 -77 9 22 9 132 0 154 -4 10 -7 -25 -7 -77z" transform="translate(0,86) scale(0.1,-0.1)" stroke="none" fill="#D6A76A"/>

<path d="M102 178 c-7 -7 -12 -16 -12 -21 0 -4 -14 -28 -31 -53 -17 -25 -28 -50 -26 -57 4 -9 6 -8 6 1 1 7 14 32 30 55 47 69 62 104 33 75z" transform="translate(0,86) scale(0.1,-0.1)" stroke="none" fill="#D6A76A"/>

<path d="M380 737 c3 -3 33 -26 68 -51 34 -26 67 -58 72 -71 11 -30 20 -33 13 -5 -6 23 -74 86 -124 114 -19 11 -32 17 -29 13z" transform="translate(0,86) scale(0.1,-0.1)" stroke="none" fill="#D6A76A"/>

<path d="M384 249 c-14 -29 -48 -74 -75 -101 -26 -26 -40 -44 -30 -38 29 15 90 89 117 143 13 26 22 47 19 47 -2 0 -16 -23 -31 -51z" transform="translate(0,86) scale(0.1,-0.1)" stroke="none" fill="#B35819"/>

<path d="M451 238 c-30 -48 -60 -80 -114 -121 -27 -21 -45 -37 -42 -37 19 0 108 76 138 118 40 55 50 72 43 72 -2 0 -14 -15 -25 -32z" transform="translate(0,86) scale(0.1,-0.1)" stroke="none" fill="#B35819"/>

<path d="M66 100 c-14 -22 -26 -44 -26 -50 0 -12 135 -13 164 -1 11 4 -19 6 -67 3 -48 -2 -87 -1 -87 3 0 4 8 19 18 33 26 37 34 52 29 52 -2 0 -16 -18 -31 -40z" transform="translate(0,86) scale(0.1,-0.1)" stroke="none" fill="#B35819"/>

<path d="M530 569 c16 -54 12 -135 -9 -194 -11 -31 -16 -53 -12 -50 5 2 16 30 26 61 19 61 17 186 -4 207 -8 8 -8 2 -1 -24z" transform="translate(0,86) scale(0.1,-0.1)" stroke="none" fill="#B35819"/>

<path d="M185 533 c0 -79 3 -134 7 -121 9 32 9 241 0 254 -4 7 -7 -53 -7 -133z" transform="translate(0,86) scale(0.1,-0.1)" stroke="none" fill="#D6A76A"/>

<path d="M260 726 c0 -2 8 -21 17 -42 11 -24 20 -77 24 -139 l5 -100 2 91 c1 64 -3 103 -14 129 -18 45 -14 52 20 30 14 -10 26 -15 26 -12 0 3 -15 15 -34 26 -32 20 -46 25 -46 17z" transform="translate(0,86) scale(0.1,-0.1)" stroke="none" fill="#D6A76A"/>

<path d="M515 337 c-33 -78 -106 -177 -159 -217 -28 -21 -78 -48 -111 -59 -36 -12 -46 -18 -25 -15 92 17 185 87 247 187 44 69 77 137 71 143 -3 2 -13 -15 -23 -39z" transform="translate(0,86) scale(0.1,-0.1)" stroke="none" fill="#D6A76A"/>

<path d="M447 519 c16 -138 -98 -362 -212 -415 -24 -11 -25 -13 -5 -8 123 31 271 332 220 449 -6 13 -7 5 -3 -26z" transform="translate(0,86) scale(0.1,-0.1)" stroke="none" fill="#D6A76A"/>

<path d="M173 793 c-18 -2 -33 -7 -33 -11 0 -4 13 -34 30 -67 27 -55 29 -69 29 -165 1 -115 -27 -245 -73 -346 -14 -30 -23 -54 -20 -54 11 0 56 114 79 201 19 71 25 120 25 200 0 100 -2 111 -30 164 -16 31 -30 58 -30 60 0 1 18 5 39 9 25 4 52 1 75 -9 50 -21 59 -17 11 5 -41 19 -47 20 -102 13z" transform="translate(0,86) scale(0.1,-0.1)" stroke="none" fill="#B35819"/>

<path d="M250 731 c0 -5 9 -30 20 -56 32 -75 25 -241 -16 -364 -8 -24 -13 -46 -10 -48 2 -3 10 12 16 34 46 151 53 300 20 379 -11 26 -18 49 -16 52 9 8 104 -58 136 -95 38 -43 50 -72 60 -143 7 -51 7 -52 9 -14 2 86 -48 168 -140 228 -56 36 -79 44 -79 27z" transform="translate(0,86) scale(0.1,-0.1)" stroke="none" fill="#B35819"/>

<path d="M178 783 c-16 -2 -28 -6 -28 -8 0 -1 14 -29 30 -60 28 -53 30 -64 30 -164 0 -159 -43 -308 -124 -435 -20 -31 -36 -59 -36 -61 0 -13 135 -3 189 14 193 60 342 319 290 504 -12 45 -71 105 -144 147 -54 30 -154 71 -170 68 -5 0 -22 -3 -37 -5z m151 -79 c151 -98 177 -233 81 -423 -66 -131 -133 -192 -229 -207 -46 -7 -51 1 -21 39 104 133 164 436 110 562 -34 79 -25 83 59 29z" transform="translate(0,86) scale(0.1,-0.1)" stroke="none" fill="#6E2D13"/>

</g>

<g id="1" transform="translate(60.0,0)scale(1,1)">

<path d="M143 273 c-23 -75 -23 -77 -3 -34 11 25 19 51 18 59 -2 7 -8 -4 -15 -25z" transform="translate(0,86) scale(0.1,-0.1)" stroke="none" fill="#D6A76A"/>

<path d="M321 757 c16 -13 99 -57 99 -53 0 7 -84 56 -95 56 -5 0 -6 -1 -4 -3z" transform="translate(0,86) scale(0.1,-0.1)" stroke="none" fill="#B35819"/>

<path d="M156 108 c-22 -31 -20 -38 12 -37 16 1 20 3 10 6 -21 5 -23 24 -6 41 7 7 9 12 6 12 -4 0 -14 -10 -22 -22z" transform="translate(0,86) scale(0.1,-0.1)" stroke="none" fill="#B35819"/>

<path d="M443 388 c-6 -24 -13 -52 -17 -63 -5 -12 -1 -10 7 5 15 25 33 100 25 100 -3 0 -9 -19 -15 -42z" transform="translate(0,86) scale(0.1,-0.1)" stroke="none" fill="#B35819"/>

<path d="M470 658 c25 -25 47 -44 49 -42 6 5 -10 23 -52 55 l-42 32 45 -45z" transform="translate(0,86) scale(0.1,-0.1)" stroke="none" fill="#B35819"/>

<path d="M241 796 c10 -10 129 -54 124 -46 -3 5 -30 18 -61 29 -53 20 -72 25 -63 17z" transform="translate(0,86) scale(0.1,-0.1)" stroke="none" fill="#D6A76A"/>

<path d="M168 803 c-28 -3 -38 -9 -38 -21 1 -19 30 -63 30 -45 0 7 -4 15 -10 18 -21 13 -10 35 18 36 15 0 36 4 47 9 21 9 15 9 -47 3z" transform="translate(0,86) scale(0.1,-0.1)" stroke="none" fill="#D6A76A"/>

<path d="M241 247 c-7 -19 -27 -61 -46 -93 -19 -33 -25 -48 -14 -34 26 30 84 149 76 156 -3 3 -10 -10 -16 -29z" transform="translate(0,86) scale(0.1,-0.1)" stroke="none" fill="#D6A76A"/>

<path d="M545 485 c0 -52 3 -87 7 -77 9 22 9 132 0 154 -4 10 -7 -25 -7 -77z" transform="translate(0,86) scale(0.1,-0.1)" stroke="none" fill="#D6A76A"/>

<path d="M102 178 c-7 -7 -12 -16 -12 -21 0 -4 -14 -28 -31 -53 -17 -25 -28 -50 -26 -57 4 -9 6 -8 6 1 1 7 14 32 30 55 47 69 62 104 33 75z" transform="translate(0,86) scale(0.1,-0.1)" stroke="none" fill="#D6A76A"/>

<path d="M380 737 c3 -3 33 -26 68 -51 34 -26 67 -58 72 -71 11 -30 20 -33 13 -5 -6 23 -74 86 -124 114 -19 11 -32 17 -29 13z" transform="translate(0,86) scale(0.1,-0.1)" stroke="none" fill="#D6A76A"/>

<path d="M384 249 c-14 -29 -48 -74 -75 -101 -26 -26 -40 -44 -30 -38 29 15 90 89 117 143 13 26 22 47 19 47 -2 0 -16 -23 -31 -51z" transform="translate(0,86) scale(0.1,-0.1)" stroke="none" fill="#B35819"/>

<path d="M451 238 c-30 -48 -60 -80 -114 -121 -27 -21 -45 -37 -42 -37 19 0 108 76 138 118 40 55 50 72 43 72 -2 0 -14 -15 -25 -32z" transform="translate(0,86) scale(0.1,-0.1)" stroke="none" fill="#B35819"/>

<path d="M66 100 c-14 -22 -26 -44 -26 -50 0 -12 135 -13 164 -1 11 4 -19 6 -67 3 -48 -2 -87 -1 -87 3 0 4 8 19 18 33 26 37 34 52 29 52 -2 0 -16 -18 -31 -40z" transform="translate(0,86) scale(0.1,-0.1)" stroke="none" fill="#B35819"/>

<path d="M530 569 c16 -54 12 -135 -9 -194 -11 -31 -16 -53 -12 -50 5 2 16 30 26 61 19 61 17 186 -4 207 -8 8 -8 2 -1 -24z" transform="translate(0,86) scale(0.1,-0.1)" stroke="none" fill="#B35819"/>

<path d="M185 533 c0 -79 3 -134 7 -121 9 32 9 241 0 254 -4 7 -7 -53 -7 -133z" transform="translate(0,86) scale(0.1,-0.1)" stroke="none" fill="#D6A76A"/>

<path d="M260 726 c0 -2 8 -21 17 -42 11 -24 20 -77 24 -139 l5 -100 2 91 c1 64 -3 103 -14 129 -18 45 -14 52 20 30 14 -10 26 -15 26 -12 0 3 -15 15 -34 26 -32 20 -46 25 -46 17z" transform="translate(0,86) scale(0.1,-0.1)" stroke="none" fill="#D6A76A"/>

<path d="M515 337 c-33 -78 -106 -177 -159 -217 -28 -21 -78 -48 -111 -59 -36 -12 -46 -18 -25 -15 92 17 185 87 247 187 44 69 77 137 71 143 -3 2 -13 -15 -23 -39z" transform="translate(0,86) scale(0.1,-0.1)" stroke="none" fill="#D6A76A"/>

<path d="M447 519 c16 -138 -98 -362 -212 -415 -24 -11 -25 -13 -5 -8 123 31 271 332 220 449 -6 13 -7 5 -3 -26z" transform="translate(0,86) scale(0.1,-0.1)" stroke="none" fill="#D6A76A"/>

<path d="M173 793 c-18 -2 -33 -7 -33 -11 0 -4 13 -34 30 -67 27 -55 29 -69 29 -165 1 -115 -27 -245 -73 -346 -14 -30 -23 -54 -20 -54 11 0 56 114 79 201 19 71 25 120 25 200 0 100 -2 111 -30 164 -16 31 -30 58 -30 60 0 1 18 5 39 9 25 4 52 1 75 -9 50 -21 59 -17 11 5 -41 19 -47 20 -102 13z" transform="translate(0,86) scale(0.1,-0.1)" stroke="none" fill="#B35819"/>

<path d="M250 731 c0 -5 9 -30 20 -56 32 -75 25 -241 -16 -364 -8 -24 -13 -46 -10 -48 2 -3 10 12 16 34 46 151 53 300 20 379 -11 26 -18 49 -16 52 9 8 104 -58 136 -95 38 -43 50 -72 60 -143 7 -51 7 -52 9 -14 2 86 -48 168 -140 228 -56 36 -79 44 -79 27z" transform="translate(0,86) scale(0.1,-0.1)" stroke="none" fill="#B35819"/>

<path d="M178 783 c-16 -2 -28 -6 -28 -8 0 -1 14 -29 30 -60 28 -53 30 -64 30 -164 0 -159 -43 -308 -124 -435 -20 -31 -36 -59 -36 -61 0 -13 135 -3 189 14 193 60 342 319 290 504 -12 45 -71 105 -144 147 -54 30 -154 71 -170 68 -5 0 -22 -3 -37 -5z m151 -79 c151 -98 177 -233 81 -423 -66 -131 -133 -192 -229 -207 -46 -7 -51 1 -21 39 104 133 164 436 110 562 -34 79 -25 83 59 29z" transform="translate(0,86) scale(0.1,-0.1)" stroke="none" fill="#6E2D13"/>

</g>

<g id="2" transform="translate(120.0,0)scale(1,1)">

<path d="M143 273 c-23 -75 -23 -77 -3 -34 11 25 19 51 18 59 -2 7 -8 -4 -15 -25z" transform="translate(0,86) scale(0.1,-0.1)" stroke="none" fill="#D6A76A"/>

<path d="M321 757 c16 -13 99 -57 99 -53 0 7 -84 56 -95 56 -5 0 -6 -1 -4 -3z" transform="translate(0,86) scale(0.1,-0.1)" stroke="none" fill="#B35819"/>

<path d="M156 108 c-22 -31 -20 -38 12 -37 16 1 20 3 10 6 -21 5 -23 24 -6 41 7 7 9 12 6 12 -4 0 -14 -10 -22 -22z" transform="translate(0,86) scale(0.1,-0.1)" stroke="none" fill="#B35819"/>

<path d="M443 388 c-6 -24 -13 -52 -17 -63 -5 -12 -1 -10 7 5 15 25 33 100 25 100 -3 0 -9 -19 -15 -42z" transform="translate(0,86) scale(0.1,-0.1)" stroke="none" fill="#B35819"/>

<path d="M470 658 c25 -25 47 -44 49 -42 6 5 -10 23 -52 55 l-42 32 45 -45z" transform="translate(0,86) scale(0.1,-0.1)" stroke="none" fill="#B35819"/>

<path d="M241 796 c10 -10 129 -54 124 -46 -3 5 -30 18 -61 29 -53 20 -72 25 -63 17z" transform="translate(0,86) scale(0.1,-0.1)" stroke="none" fill="#D6A76A"/>

<path d="M168 803 c-28 -3 -38 -9 -38 -21 1 -19 30 -63 30 -45 0 7 -4 15 -10 18 -21 13 -10 35 18 36 15 0 36 4 47 9 21 9 15 9 -47 3z" transform="translate(0,86) scale(0.1,-0.1)" stroke="none" fill="#D6A76A"/>

<path d="M241 247 c-7 -19 -27 -61 -46 -93 -19 -33 -25 -48 -14 -34 26 30 84 149 76 156 -3 3 -10 -10 -16 -29z" transform="translate(0,86) scale(0.1,-0.1)" stroke="none" fill="#D6A76A"/>

<path d="M545 485 c0 -52 3 -87 7 -77 9 22 9 132 0 154 -4 10 -7 -25 -7 -77z" transform="translate(0,86) scale(0.1,-0.1)" stroke="none" fill="#D6A76A"/>

<path d="M102 178 c-7 -7 -12 -16 -12 -21 0 -4 -14 -28 -31 -53 -17 -25 -28 -50 -26 -57 4 -9 6 -8 6 1 1 7 14 32 30 55 47 69 62 104 33 75z" transform="translate(0,86) scale(0.1,-0.1)" stroke="none" fill="#D6A76A"/>

<path d="M380 737 c3 -3 33 -26 68 -51 34 -26 67 -58 72 -71 11 -30 20 -33 13 -5 -6 23 -74 86 -124 114 -19 11 -32 17 -29 13z" transform="translate(0,86) scale(0.1,-0.1)" stroke="none" fill="#D6A76A"/>

<path d="M384 249 c-14 -29 -48 -74 -75 -101 -26 -26 -40 -44 -30 -38 29 15 90 89 117 143 13 26 22 47 19 47 -2 0 -16 -23 -31 -51z" transform="translate(0,86) scale(0.1,-0.1)" stroke="none" fill="#B35819"/>

<path d="M451 238 c-30 -48 -60 -80 -114 -121 -27 -21 -45 -37 -42 -37 19 0 108 76 138 118 40 55 50 72 43 72 -2 0 -14 -15 -25 -32z" transform="translate(0,86) scale(0.1,-0.1)" stroke="none" fill="#B35819"/>

<path d="M66 100 c-14 -22 -26 -44 -26 -50 0 -12 135 -13 164 -1 11 4 -19 6 -67 3 -48 -2 -87 -1 -87 3 0 4 8 19 18 33 26 37 34 52 29 52 -2 0 -16 -18 -31 -40z" transform="translate(0,86) scale(0.1,-0.1)" stroke="none" fill="#B35819"/>

<path d="M530 569 c16 -54 12 -135 -9 -194 -11 -31 -16 -53 -12 -50 5 2 16 30 26 61 19 61 17 186 -4 207 -8 8 -8 2 -1 -24z" transform="translate(0,86) scale(0.1,-0.1)" stroke="none" fill="#B35819"/>

<path d="M185 533 c0 -79 3 -134 7 -121 9 32 9 241 0 254 -4 7 -7 -53 -7 -133z" transform="translate(0,86) scale(0.1,-0.1)" stroke="none" fill="#D6A76A"/>

<path d="M260 726 c0 -2 8 -21 17 -42 11 -24 20 -77 24 -139 l5 -100 2 91 c1 64 -3 103 -14 129 -18 45 -14 52 20 30 14 -10 26 -15 26 -12 0 3 -15 15 -34 26 -32 20 -46 25 -46 17z" transform="translate(0,86) scale(0.1,-0.1)" stroke="none" fill="#D6A76A"/>

<path d="M515 337 c-33 -78 -106 -177 -159 -217 -28 -21 -78 -48 -111 -59 -36 -12 -46 -18 -25 -15 92 17 185 87 247 187 44 69 77 137 71 143 -3 2 -13 -15 -23 -39z" transform="translate(0,86) scale(0.1,-0.1)" stroke="none" fill="#D6A76A"/>

<path d="M447 519 c16 -138 -98 -362 -212 -415 -24 -11 -25 -13 -5 -8 123 31 271 332 220 449 -6 13 -7 5 -3 -26z" transform="translate(0,86) scale(0.1,-0.1)" stroke="none" fill="#D6A76A"/>

<path d="M173 793 c-18 -2 -33 -7 -33 -11 0 -4 13 -34 30 -67 27 -55 29 -69 29 -165 1 -115 -27 -245 -73 -346 -14 -30 -23 -54 -20 -54 11 0 56 114 79 201 19 71 25 120 25 200 0 100 -2 111 -30 164 -16 31 -30 58 -30 60 0 1 18 5 39 9 25 4 52 1 75 -9 50 -21 59 -17 11 5 -41 19 -47 20 -102 13z" transform="translate(0,86) scale(0.1,-0.1)" stroke="none" fill="#B35819"/>

<path d="M250 731 c0 -5 9 -30 20 -56 32 -75 25 -241 -16 -364 -8 -24 -13 -46 -10 -48 2 -3 10 12 16 34 46 151 53 300 20 379 -11 26 -18 49 -16 52 9 8 104 -58 136 -95 38 -43 50 -72 60 -143 7 -51 7 -52 9 -14 2 86 -48 168 -140 228 -56 36 -79 44 -79 27z" transform="translate(0,86) scale(0.1,-0.1)" stroke="none" fill="#B35819"/>

<path d="M178 783 c-16 -2 -28 -6 -28 -8 0 -1 14 -29 30 -60 28 -53 30 -64 30 -164 0 -159 -43 -308 -124 -435 -20 -31 -36 -59 -36 -61 0 -13 135 -3 189 14 193 60 342 319 290 504 -12 45 -71 105 -144 147 -54 30 -154 71 -170 68 -5 0 -22 -3 -37 -5z m151 -79 c151 -98 177 -233 81 -423 -66 -131 -133 -192 -229 -207 -46 -7 -51 1 -21 39 104 133 164 436 110 562 -34 79 -25 83 59 29z" transform="translate(0,86) scale(0.1,-0.1)" stroke="none" fill="#6E2D13"/>

</g>

<g id="3" transform="translate(180.0,0)scale(1,1)">

<path d="M143 273 c-23 -75 -23 -77 -3 -34 11 25 19 51 18 59 -2 7 -8 -4 -15 -25z" transform="translate(0,86) scale(0.1,-0.1)" stroke="none" fill="#D6A76A"/>

<path d="M321 757 c16 -13 99 -57 99 -53 0 7 -84 56 -95 56 -5 0 -6 -1 -4 -3z" transform="translate(0,86) scale(0.1,-0.1)" stroke="none" fill="#B35819"/>

<path d="M156 108 c-22 -31 -20 -38 12 -37 16 1 20 3 10 6 -21 5 -23 24 -6 41 7 7 9 12 6 12 -4 0 -14 -10 -22 -22z" transform="translate(0,86) scale(0.1,-0.1)" stroke="none" fill="#B35819"/>

<path d="M443 388 c-6 -24 -13 -52 -17 -63 -5 -12 -1 -10 7 5 15 25 33 100 25 100 -3 0 -9 -19 -15 -42z" transform="translate(0,86) scale(0.1,-0.1)" stroke="none" fill="#B35819"/>

<path d="M470 658 c25 -25 47 -44 49 -42 6 5 -10 23 -52 55 l-42 32 45 -45z" transform="translate(0,86) scale(0.1,-0.1)" stroke="none" fill="#B35819"/>

<path d="M241 796 c10 -10 129 -54 124 -46 -3 5 -30 18 -61 29 -53 20 -72 25 -63 17z" transform="translate(0,86) scale(0.1,-0.1)" stroke="none" fill="#D6A76A"/>

<path d="M168 803 c-28 -3 -38 -9 -38 -21 1 -19 30 -63 30 -45 0 7 -4 15 -10 18 -21 13 -10 35 18 36 15 0 36 4 47 9 21 9 15 9 -47 3z" transform="translate(0,86) scale(0.1,-0.1)" stroke="none" fill="#D6A76A"/>

<path d="M241 247 c-7 -19 -27 -61 -46 -93 -19 -33 -25 -48 -14 -34 26 30 84 149 76 156 -3 3 -10 -10 -16 -29z" transform="translate(0,86) scale(0.1,-0.1)" stroke="none" fill="#D6A76A"/>

<path d="M545 485 c0 -52 3 -87 7 -77 9 22 9 132 0 154 -4 10 -7 -25 -7 -77z" transform="translate(0,86) scale(0.1,-0.1)" stroke="none" fill="#D6A76A"/>

<path d="M102 178 c-7 -7 -12 -16 -12 -21 0 -4 -14 -28 -31 -53 -17 -25 -28 -50 -26 -57 4 -9 6 -8 6 1 1 7 14 32 30 55 47 69 62 104 33 75z" transform="translate(0,86) scale(0.1,-0.1)" stroke="none" fill="#D6A76A"/>

<path d="M380 737 c3 -3 33 -26 68 -51 34 -26 67 -58 72 -71 11 -30 20 -33 13 -5 -6 23 -74 86 -124 114 -19 11 -32 17 -29 13z" transform="translate(0,86) scale(0.1,-0.1)" stroke="none" fill="#D6A76A"/>

<path d="M384 249 c-14 -29 -48 -74 -75 -101 -26 -26 -40 -44 -30 -38 29 15 90 89 117 143 13 26 22 47 19 47 -2 0 -16 -23 -31 -51z" transform="translate(0,86) scale(0.1,-0.1)" stroke="none" fill="#B35819"/>

<path d="M451 238 c-30 -48 -60 -80 -114 -121 -27 -21 -45 -37 -42 -37 19 0 108 76 138 118 40 55 50 72 43 72 -2 0 -14 -15 -25 -32z" transform="translate(0,86) scale(0.1,-0.1)" stroke="none" fill="#B35819"/>

<path d="M66 100 c-14 -22 -26 -44 -26 -50 0 -12 135 -13 164 -1 11 4 -19 6 -67 3 -48 -2 -87 -1 -87 3 0 4 8 19 18 33 26 37 34 52 29 52 -2 0 -16 -18 -31 -40z" transform="translate(0,86) scale(0.1,-0.1)" stroke="none" fill="#B35819"/>

<path d="M530 569 c16 -54 12 -135 -9 -194 -11 -31 -16 -53 -12 -50 5 2 16 30 26 61 19 61 17 186 -4 207 -8 8 -8 2 -1 -24z" transform="translate(0,86) scale(0.1,-0.1)" stroke="none" fill="#B35819"/>

<path d="M185 533 c0 -79 3 -134 7 -121 9 32 9 241 0 254 -4 7 -7 -53 -7 -133z" transform="translate(0,86) scale(0.1,-0.1)" stroke="none" fill="#D6A76A"/>

<path d="M260 726 c0 -2 8 -21 17 -42 11 -24 20 -77 24 -139 l5 -100 2 91 c1 64 -3 103 -14 129 -18 45 -14 52 20 30 14 -10 26 -15 26 -12 0 3 -15 15 -34 26 -32 20 -46 25 -46 17z" transform="translate(0,86) scale(0.1,-0.1)" stroke="none" fill="#D6A76A"/>

<path d="M515 337 c-33 -78 -106 -177 -159 -217 -28 -21 -78 -48 -111 -59 -36 -12 -46 -18 -25 -15 92 17 185 87 247 187 44 69 77 137 71 143 -3 2 -13 -15 -23 -39z" transform="translate(0,86) scale(0.1,-0.1)" stroke="none" fill="#D6A76A"/>

<path d="M447 519 c16 -138 -98 -362 -212 -415 -24 -11 -25 -13 -5 -8 123 31 271 332 220 449 -6 13 -7 5 -3 -26z" transform="translate(0,86) scale(0.1,-0.1)" stroke="none" fill="#D6A76A"/>

<path d="M173 793 c-18 -2 -33 -7 -33 -11 0 -4 13 -34 30 -67 27 -55 29 -69 29 -165 1 -115 -27 -245 -73 -346 -14 -30 -23 -54 -20 -54 11 0 56 114 79 201 19 71 25 120 25 200 0 100 -2 111 -30 164 -16 31 -30 58 -30 60 0 1 18 5 39 9 25 4 52 1 75 -9 50 -21 59 -17 11 5 -41 19 -47 20 -102 13z" transform="translate(0,86) scale(0.1,-0.1)" stroke="none" fill="#B35819"/>

<path d="M250 731 c0 -5 9 -30 20 -56 32 -75 25 -241 -16 -364 -8 -24 -13 -46 -10 -48 2 -3 10 12 16 34 46 151 53 300 20 379 -11 26 -18 49 -16 52 9 8 104 -58 136 -95 38 -43 50 -72 60 -143 7 -51 7 -52 9 -14 2 86 -48 168 -140 228 -56 36 -79 44 -79 27z" transform="translate(0,86) scale(0.1,-0.1)" stroke="none" fill="#B35819"/>

<path d="M178 783 c-16 -2 -28 -6 -28 -8 0 -1 14 -29 30 -60 28 -53 30 -64 30 -164 0 -159 -43 -308 -124 -435 -20 -31 -36 -59 -36 -61 0 -13 135 -3 189 14 193 60 342 319 290 504 -12 45 -71 105 -144 147 -54 30 -154 71 -170 68 -5 0 -22 -3 -37 -5z m151 -79 c151 -98 177 -233 81 -423 -66 -131 -133 -192 -229 -207 -46 -7 -51 1 -21 39 104 133 164 436 110 562 -34 79 -25 83 59 29z" transform="translate(0,86) scale(0.1,-0.1)" stroke="none" fill="#6E2D13"/>

</g>

<g id="4" transform="translate(240.0,0)scale(1,1)">

<path d="M143 273 c-23 -75 -23 -77 -3 -34 11 25 19 51 18 59 -2 7 -8 -4 -15 -25z" transform="translate(0,86) scale(0.1,-0.1)" stroke="none" fill="#D6A76A"/>

<path d="M321 757 c16 -13 99 -57 99 -53 0 7 -84 56 -95 56 -5 0 -6 -1 -4 -3z" transform="translate(0,86) scale(0.1,-0.1)" stroke="none" fill="#B35819"/>

<path d="M156 108 c-22 -31 -20 -38 12 -37 16 1 20 3 10 6 -21 5 -23 24 -6 41 7 7 9 12 6 12 -4 0 -14 -10 -22 -22z" transform="translate(0,86) scale(0.1,-0.1)" stroke="none" fill="#B35819"/>

<path d="M443 388 c-6 -24 -13 -52 -17 -63 -5 -12 -1 -10 7 5 15 25 33 100 25 100 -3 0 -9 -19 -15 -42z" transform="translate(0,86) scale(0.1,-0.1)" stroke="none" fill="#B35819"/>

<path d="M470 658 c25 -25 47 -44 49 -42 6 5 -10 23 -52 55 l-42 32 45 -45z" transform="translate(0,86) scale(0.1,-0.1)" stroke="none" fill="#B35819"/>

<path d="M241 796 c10 -10 129 -54 124 -46 -3 5 -30 18 -61 29 -53 20 -72 25 -63 17z" transform="translate(0,86) scale(0.1,-0.1)" stroke="none" fill="#D6A76A"/>

<path d="M168 803 c-28 -3 -38 -9 -38 -21 1 -19 30 -63 30 -45 0 7 -4 15 -10 18 -21 13 -10 35 18 36 15 0 36 4 47 9 21 9 15 9 -47 3z" transform="translate(0,86) scale(0.1,-0.1)" stroke="none" fill="#D6A76A"/>

<path d="M241 247 c-7 -19 -27 -61 -46 -93 -19 -33 -25 -48 -14 -34 26 30 84 149 76 156 -3 3 -10 -10 -16 -29z" transform="translate(0,86) scale(0.1,-0.1)" stroke="none" fill="#D6A76A"/>

<path d="M545 485 c0 -52 3 -87 7 -77 9 22 9 132 0 154 -4 10 -7 -25 -7 -77z" transform="translate(0,86) scale(0.1,-0.1)" stroke="none" fill="#D6A76A"/>

<path d="M102 178 c-7 -7 -12 -16 -12 -21 0 -4 -14 -28 -31 -53 -17 -25 -28 -50 -26 -57 4 -9 6 -8 6 1 1 7 14 32 30 55 47 69 62 104 33 75z" transform="translate(0,86) scale(0.1,-0.1)" stroke="none" fill="#D6A76A"/>

<path d="M380 737 c3 -3 33 -26 68 -51 34 -26 67 -58 72 -71 11 -30 20 -33 13 -5 -6 23 -74 86 -124 114 -19 11 -32 17 -29 13z" transform="translate(0,86) scale(0.1,-0.1)" stroke="none" fill="#D6A76A"/>

<path d="M384 249 c-14 -29 -48 -74 -75 -101 -26 -26 -40 -44 -30 -38 29 15 90 89 117 143 13 26 22 47 19 47 -2 0 -16 -23 -31 -51z" transform="translate(0,86) scale(0.1,-0.1)" stroke="none" fill="#B35819"/>

<path d="M451 238 c-30 -48 -60 -80 -114 -121 -27 -21 -45 -37 -42 -37 19 0 108 76 138 118 40 55 50 72 43 72 -2 0 -14 -15 -25 -32z" transform="translate(0,86) scale(0.1,-0.1)" stroke="none" fill="#B35819"/>

<path d="M66 100 c-14 -22 -26 -44 -26 -50 0 -12 135 -13 164 -1 11 4 -19 6 -67 3 -48 -2 -87 -1 -87 3 0 4 8 19 18 33 26 37 34 52 29 52 -2 0 -16 -18 -31 -40z" transform="translate(0,86) scale(0.1,-0.1)" stroke="none" fill="#B35819"/>

<path d="M530 569 c16 -54 12 -135 -9 -194 -11 -31 -16 -53 -12 -50 5 2 16 30 26 61 19 61 17 186 -4 207 -8 8 -8 2 -1 -24z" transform="translate(0,86) scale(0.1,-0.1)" stroke="none" fill="#B35819"/>

<path d="M185 533 c0 -79 3 -134 7 -121 9 32 9 241 0 254 -4 7 -7 -53 -7 -133z" transform="translate(0,86) scale(0.1,-0.1)" stroke="none" fill="#D6A76A"/>

<path d="M260 726 c0 -2 8 -21 17 -42 11 -24 20 -77 24 -139 l5 -100 2 91 c1 64 -3 103 -14 129 -18 45 -14 52 20 30 14 -10 26 -15 26 -12 0 3 -15 15 -34 26 -32 20 -46 25 -46 17z" transform="translate(0,86) scale(0.1,-0.1)" stroke="none" fill="#D6A76A"/>

<path d="M515 337 c-33 -78 -106 -177 -159 -217 -28 -21 -78 -48 -111 -59 -36 -12 -46 -18 -25 -15 92 17 185 87 247 187 44 69 77 137 71 143 -3 2 -13 -15 -23 -39z" transform="translate(0,86) scale(0.1,-0.1)" stroke="none" fill="#D6A76A"/>

<path d="M447 519 c16 -138 -98 -362 -212 -415 -24 -11 -25 -13 -5 -8 123 31 271 332 220 449 -6 13 -7 5 -3 -26z" transform="translate(0,86) scale(0.1,-0.1)" stroke="none" fill="#D6A76A"/>

<path d="M173 793 c-18 -2 -33 -7 -33 -11 0 -4 13 -34 30 -67 27 -55 29 -69 29 -165 1 -115 -27 -245 -73 -346 -14 -30 -23 -54 -20 -54 11 0 56 114 79 201 19 71 25 120 25 200 0 100 -2 111 -30 164 -16 31 -30 58 -30 60 0 1 18 5 39 9 25 4 52 1 75 -9 50 -21 59 -17 11 5 -41 19 -47 20 -102 13z" transform="translate(0,86) scale(0.1,-0.1)" stroke="none" fill="#B35819"/>

<path d="M250 731 c0 -5 9 -30 20 -56 32 -75 25 -241 -16 -364 -8 -24 -13 -46 -10 -48 2 -3 10 12 16 34 46 151 53 300 20 379 -11 26 -18 49 -16 52 9 8 104 -58 136 -95 38 -43 50 -72 60 -143 7 -51 7 -52 9 -14 2 86 -48 168 -140 228 -56 36 -79 44 -79 27z" transform="translate(0,86) scale(0.1,-0.1)" stroke="none" fill="#B35819"/>

<path d="M178 783 c-16 -2 -28 -6 -28 -8 0 -1 14 -29 30 -60 28 -53 30 -64 30 -164 0 -159 -43 -308 -124 -435 -20 -31 -36 -59 -36 -61 0 -13 135 -3 189 14 193 60 342 319 290 504 -12 45 -71 105 -144 147 -54 30 -154 71 -170 68 -5 0 -22 -3 -37 -5z m151 -79 c151 -98 177 -233 81 -423 -66 -131 -133 -192 -229 -207 -46 -7 -51 1 -21 39 104 133 164 436 110 562 -34 79 -25 83 59 29z" transform="translate(0,86) scale(0.1,-0.1)" stroke="none" fill="#6E2D13"/>

</g>

</g>
</svg>