<?xml version="1.0" standalone="no"?>
<!DOCTYPE svg PUBLIC "-//W3C//DTD SVG 20010904//EN"
 "http://www.w3.org/TR/2001/REC-SVG-20010904/DTD/svg10.dtd">
<svg version="1.0" xmlns="http://www.w3.org/2000/svg" 
width="104.000000pt" height="62.000000pt" viewBox="0 0 104.000000 62.000000"
preserveAspectRatio = "xMidYMid meet" >
<metadata>
Created by ZoeQU, 2022
</metadata>
<rect width="104.000000" height="62.000000" fill="#C1D0DF"/>
<path d="M230 339 c-58 -20 -39 -18 75 6 54 12 56 13 20 13 -22 0 -65 -8 -95 -19z" transform="translate(0.000000,62.000000) scale(0.100000,-0.100000)" stroke="none" fill="#4C7486"/>

<path d="M377 479 c-55 -13 -115 -46 -174 -97 -52 -44 -64 -62 -41 -62 6 0 9 3 5 6 -7 8 87 90 127 111 49 26 87 35 181 42 l90 8 -75 0 c-41 1 -92 -3 -113 -8z" transform="translate(0.000000,62.000000) scale(0.100000,-0.100000)" stroke="none" fill="#4C7486"/>

<path d="M585 473 c99 -21 194 -85 261 -175 24 -33 44 -64 44 -69 0 -5 -46 16 -102 45 -112 59 -204 87 -276 84 -39 -1 -41 -2 -12 -5 125 -13 257 -62 376 -140 35 -22 39 -11 13 38 -54 107 -214 231 -294 228 -20 -1 -23 -3 -10 -6z" transform="translate(0.000000,62.000000) scale(0.100000,-0.100000)" stroke="none" fill="#4C7486"/>

<path d="M338 576 c-68 -28 -119 -67 -193 -148 -63 -70 -90 -122 -100 -190 -7 -53 -1 -57 52 -37 93 36 141 43 298 43 103 0 142 3 110 7 -105 15 -237 9 -325 -15 -47 -12 -93 -26 -102 -30 -16 -7 -18 -2 -18 35 0 51 15 83 73 158 65 84 151 148 230 173 95 29 260 23 327 -12 75 -38 194 -166 235 -252 41 -86 56 -187 35 -238 -15 -36 -20 -37 -50 -5 -47 50 -250 157 -320 169 -40 7 -23 -2 55 -28 67 -22 209 -103 253 -143 19 -18 40 -33 47 -33 20 0 35 48 35 110 0 134 -97 298 -234 394 -83 58 -111 66 -240 66 -93 0 -120 -4 -168 -24z" transform="translate(0.000000,62.000000) scale(0.100000,-0.100000)" stroke="none" fill="#4C7486"/>

<path d="M357 571 c-71 -24 -154 -87 -218 -166 -61 -75 -79 -112 -79 -165 0 -36 2 -41 18 -34 9 4 58 18 107 31 81 22 103 24 220 19 139 -6 219 -23 299 -63 89 -45 182 -103 206 -128 30 -32 35 -31 50 5 21 51 6 152 -35 238 -41 86 -159 213 -235 252 -64 33 -248 39 -333 11z m322 -117 c69 -30 175 -132 210 -202 26 -50 22 -61 -13 -39 -183 121 -394 169 -571 131 -111 -23 -155 -28 -155 -16 0 15 99 96 147 121 67 33 110 41 221 36 83 -3 113 -9 161 -31z" transform="translate(0.000000,62.000000) scale(0.100000,-0.100000)" stroke="none" fill="#0F2E33"/>

</svg>