<?xml version="1.0" standalone="no"?>
<!DOCTYPE svg PUBLIC "-//W3C//DTD SVG 20010904//EN"
 "http://www.w3.org/TR/2001/REC-SVG-20010904/DTD/svg10.dtd">
<svg version="1.0" xmlns="http://www.w3.org/2000/svg" width="7788pt" height="7788pt" viewBox="0 0 7788 7788" preserveAspectRatio = "xMidYMid meet" >
<metadata>
Created by ZoeQu, written in 2022
</metadata>
<rect width="7788" height="7788" fill="#EFB664"/>
<g id="row0" transform="translate(0,0.0)">
<g id="0" transform="translate(0.0,0)scale(0.25,0.25)">

<g id="pattern">
<rect width="8437" height="8437" fill="#EFB664"/>
<g id="pattern1" transform="matrix(1,0,0,1,525,525)">
<path d="M585 748 c-122 -44 -154 -181 -59 -253 10 -8 40 -15 66 -15 41 0 54 5 86 35 37 33 62 87 62 134 0 38 -30 82 -65 97 -39 16 -49 16 -90 2z" transform="translate(0.000000,0.000000) scale(1,1)" stroke="none" fill="#949271"/>
<path d="M1055 699 c-5 -7 -10 -47 -12 -88 -3 -90 -16 -131 -50 -165 -30 -31 -89 -35 -146 -11 -20 8 -39 15 -42 15 -13 0 -3 -37 20 -76 49 -84 199 -183 355 -233 66 -22 285 -70 352 -79 61 -7 58 15 -21 130 -92 136 -166 222 -246 288 -36 29 -65 59 -65 64 0 7 50 12 141 13 135 2 178 11 163 34 -9 15 -114 65 -184 88 -82 27 -253 40 -265 20z" transform="translate(0.000000,0.000000) scale(1,1)" stroke="none" fill="#167F79"/>
</g>
<g id="pattern2" transform="matrix(0.618,0,0,0.618,3997,1174)">
<path d="M585 748 c-122 -44 -154 -181 -59 -253 10 -8 40 -15 66 -15 41 0 54 5 86 35 37 33 62 87 62 134 0 38 -30 82 -65 97 -39 16 -49 16 -90 2z" transform="translate(5295,0.000000) scale(-1,1)" stroke="none" fill="#949271"/>
<path d="M1055 699 c-5 -7 -10 -47 -12 -88 -3 -90 -16 -131 -50 -165 -30 -31 -89 -35 -146 -11 -20 8 -39 15 -42 15 -13 0 -3 -37 20 -76 49 -84 199 -183 355 -233 66 -22 285 -70 352 -79 61 -7 58 15 -21 130 -92 136 -166 222 -246 288 -36 29 -65 59 -65 64 0 7 50 12 141 13 135 2 178 11 163 34 -9 15 -114 65 -184 88 -82 27 -253 40 -265 20z" transform="translate(5295,0.000000) scale(-1,1)" stroke="none" fill="#167F79"/>
</g>
<g id="pattern3" transform="matrix(0.618,0,0,0.618,1499,5295)matrix(0.71,0.71,-0.71,0.71,0,0)">
<path d="M585 748 c-122 -44 -154 -181 -59 -253 10 -8 40 -15 66 -15 41 0 54 5 86 35 37 33 62 87 62 134 0 38 -30 82 -65 97 -39 16 -49 16 -90 2z" transform="translate(850,-850) scale(1,1)" stroke="none" fill="#949271"/>
<path d="M1055 699 c-5 -7 -10 -47 -12 -88 -3 -90 -16 -131 -50 -165 -30 -31 -89 -35 -146 -11 -20 8 -39 15 -42 15 -13 0 -3 -37 20 -76 49 -84 199 -183 355 -233 66 -22 285 -70 352 -79 61 -7 58 15 -21 130 -92 136 -166 222 -246 288 -36 29 -65 59 -65 64 0 7 50 12 141 13 135 2 178 11 163 34 -9 15 -114 65 -184 88 -82 27 -253 40 -265 20z" transform="translate(850,-850) scale(1,1)" stroke="none" fill="#167F79"/>
</g>
<g id="pattern4" transform="matrix(1.618,0,0,1.618,2222,2222)matrix(0.87,0.5,-0.5,0.87,0,0)">
<path d="M585 748 c-122 -44 -154 -181 -59 -253 10 -8 40 -15 66 -15 41 0 54 5 86 35 37 33 62 87 62 134 0 38 -30 82 -65 97 -39 16 -49 16 -90 2z" transform="translate(850,-850) scale(1,1)" stroke="none" fill="#949271"/>
<path d="M1055 699 c-5 -7 -10 -47 -12 -88 -3 -90 -16 -131 -50 -165 -30 -31 -89 -35 -146 -11 -20 8 -39 15 -42 15 -13 0 -3 -37 20 -76 49 -84 199 -183 355 -233 66 -22 285 -70 352 -79 61 -7 58 15 -21 130 -92 136 -166 222 -246 288 -36 29 -65 59 -65 64 0 7 50 12 141 13 135 2 178 11 163 34 -9 15 -114 65 -184 88 -82 27 -253 40 -265 20z" transform="translate(850,-850) scale(1,1)" stroke="none" fill="#167F79"/>
</g>
</g>
</g>

<g id="1" transform="translate(1947.0,0)scale(0.25,0.25)">

<g id="pattern">
<rect width="8437" height="8437" fill="#EFB664"/>
<g id="pattern1" transform="matrix(1,0,0,1,525,525)">
<path d="M585 748 c-122 -44 -154 -181 -59 -253 10 -8 40 -15 66 -15 41 0 54 5 86 35 37 33 62 87 62 134 0 38 -30 82 -65 97 -39 16 -49 16 -90 2z" transform="translate(0.000000,0.000000) scale(1,1)" stroke="none" fill="#949271"/>
<path d="M1055 699 c-5 -7 -10 -47 -12 -88 -3 -90 -16 -131 -50 -165 -30 -31 -89 -35 -146 -11 -20 8 -39 15 -42 15 -13 0 -3 -37 20 -76 49 -84 199 -183 355 -233 66 -22 285 -70 352 -79 61 -7 58 15 -21 130 -92 136 -166 222 -246 288 -36 29 -65 59 -65 64 0 7 50 12 141 13 135 2 178 11 163 34 -9 15 -114 65 -184 88 -82 27 -253 40 -265 20z" transform="translate(0.000000,0.000000) scale(1,1)" stroke="none" fill="#167F79"/>
</g>
<g id="pattern2" transform="matrix(0.618,0,0,0.618,3997,1174)">
<path d="M585 748 c-122 -44 -154 -181 -59 -253 10 -8 40 -15 66 -15 41 0 54 5 86 35 37 33 62 87 62 134 0 38 -30 82 -65 97 -39 16 -49 16 -90 2z" transform="translate(5295,0.000000) scale(-1,1)" stroke="none" fill="#949271"/>
<path d="M1055 699 c-5 -7 -10 -47 -12 -88 -3 -90 -16 -131 -50 -165 -30 -31 -89 -35 -146 -11 -20 8 -39 15 -42 15 -13 0 -3 -37 20 -76 49 -84 199 -183 355 -233 66 -22 285 -70 352 -79 61 -7 58 15 -21 130 -92 136 -166 222 -246 288 -36 29 -65 59 -65 64 0 7 50 12 141 13 135 2 178 11 163 34 -9 15 -114 65 -184 88 -82 27 -253 40 -265 20z" transform="translate(5295,0.000000) scale(-1,1)" stroke="none" fill="#167F79"/>
</g>
<g id="pattern3" transform="matrix(0.618,0,0,0.618,1499,5295)matrix(0.71,0.71,-0.71,0.71,0,0)">
<path d="M585 748 c-122 -44 -154 -181 -59 -253 10 -8 40 -15 66 -15 41 0 54 5 86 35 37 33 62 87 62 134 0 38 -30 82 -65 97 -39 16 -49 16 -90 2z" transform="translate(850,-850) scale(1,1)" stroke="none" fill="#949271"/>
<path d="M1055 699 c-5 -7 -10 -47 -12 -88 -3 -90 -16 -131 -50 -165 -30 -31 -89 -35 -146 -11 -20 8 -39 15 -42 15 -13 0 -3 -37 20 -76 49 -84 199 -183 355 -233 66 -22 285 -70 352 -79 61 -7 58 15 -21 130 -92 136 -166 222 -246 288 -36 29 -65 59 -65 64 0 7 50 12 141 13 135 2 178 11 163 34 -9 15 -114 65 -184 88 -82 27 -253 40 -265 20z" transform="translate(850,-850) scale(1,1)" stroke="none" fill="#167F79"/>
</g>
<g id="pattern4" transform="matrix(1.618,0,0,1.618,2222,2222)matrix(0.87,0.5,-0.5,0.87,0,0)">
<path d="M585 748 c-122 -44 -154 -181 -59 -253 10 -8 40 -15 66 -15 41 0 54 5 86 35 37 33 62 87 62 134 0 38 -30 82 -65 97 -39 16 -49 16 -90 2z" transform="translate(850,-850) scale(1,1)" stroke="none" fill="#949271"/>
<path d="M1055 699 c-5 -7 -10 -47 -12 -88 -3 -90 -16 -131 -50 -165 -30 -31 -89 -35 -146 -11 -20 8 -39 15 -42 15 -13 0 -3 -37 20 -76 49 -84 199 -183 355 -233 66 -22 285 -70 352 -79 61 -7 58 15 -21 130 -92 136 -166 222 -246 288 -36 29 -65 59 -65 64 0 7 50 12 141 13 135 2 178 11 163 34 -9 15 -114 65 -184 88 -82 27 -253 40 -265 20z" transform="translate(850,-850) scale(1,1)" stroke="none" fill="#167F79"/>
</g>
</g>
</g>

<g id="2" transform="translate(3894.0,0)scale(0.25,0.25)">

<g id="pattern">
<rect width="8437" height="8437" fill="#EFB664"/>
<g id="pattern1" transform="matrix(1,0,0,1,525,525)">
<path d="M585 748 c-122 -44 -154 -181 -59 -253 10 -8 40 -15 66 -15 41 0 54 5 86 35 37 33 62 87 62 134 0 38 -30 82 -65 97 -39 16 -49 16 -90 2z" transform="translate(0.000000,0.000000) scale(1,1)" stroke="none" fill="#949271"/>
<path d="M1055 699 c-5 -7 -10 -47 -12 -88 -3 -90 -16 -131 -50 -165 -30 -31 -89 -35 -146 -11 -20 8 -39 15 -42 15 -13 0 -3 -37 20 -76 49 -84 199 -183 355 -233 66 -22 285 -70 352 -79 61 -7 58 15 -21 130 -92 136 -166 222 -246 288 -36 29 -65 59 -65 64 0 7 50 12 141 13 135 2 178 11 163 34 -9 15 -114 65 -184 88 -82 27 -253 40 -265 20z" transform="translate(0.000000,0.000000) scale(1,1)" stroke="none" fill="#167F79"/>
</g>
<g id="pattern2" transform="matrix(0.618,0,0,0.618,3997,1174)">
<path d="M585 748 c-122 -44 -154 -181 -59 -253 10 -8 40 -15 66 -15 41 0 54 5 86 35 37 33 62 87 62 134 0 38 -30 82 -65 97 -39 16 -49 16 -90 2z" transform="translate(5295,0.000000) scale(-1,1)" stroke="none" fill="#949271"/>
<path d="M1055 699 c-5 -7 -10 -47 -12 -88 -3 -90 -16 -131 -50 -165 -30 -31 -89 -35 -146 -11 -20 8 -39 15 -42 15 -13 0 -3 -37 20 -76 49 -84 199 -183 355 -233 66 -22 285 -70 352 -79 61 -7 58 15 -21 130 -92 136 -166 222 -246 288 -36 29 -65 59 -65 64 0 7 50 12 141 13 135 2 178 11 163 34 -9 15 -114 65 -184 88 -82 27 -253 40 -265 20z" transform="translate(5295,0.000000) scale(-1,1)" stroke="none" fill="#167F79"/>
</g>
<g id="pattern3" transform="matrix(0.618,0,0,0.618,1499,5295)matrix(0.71,0.71,-0.71,0.71,0,0)">
<path d="M585 748 c-122 -44 -154 -181 -59 -253 10 -8 40 -15 66 -15 41 0 54 5 86 35 37 33 62 87 62 134 0 38 -30 82 -65 97 -39 16 -49 16 -90 2z" transform="translate(850,-850) scale(1,1)" stroke="none" fill="#949271"/>
<path d="M1055 699 c-5 -7 -10 -47 -12 -88 -3 -90 -16 -131 -50 -165 -30 -31 -89 -35 -146 -11 -20 8 -39 15 -42 15 -13 0 -3 -37 20 -76 49 -84 199 -183 355 -233 66 -22 285 -70 352 -79 61 -7 58 15 -21 130 -92 136 -166 222 -246 288 -36 29 -65 59 -65 64 0 7 50 12 141 13 135 2 178 11 163 34 -9 15 -114 65 -184 88 -82 27 -253 40 -265 20z" transform="translate(850,-850) scale(1,1)" stroke="none" fill="#167F79"/>
</g>
<g id="pattern4" transform="matrix(1.618,0,0,1.618,2222,2222)matrix(0.87,0.5,-0.5,0.87,0,0)">
<path d="M585 748 c-122 -44 -154 -181 -59 -253 10 -8 40 -15 66 -15 41 0 54 5 86 35 37 33 62 87 62 134 0 38 -30 82 -65 97 -39 16 -49 16 -90 2z" transform="translate(850,-850) scale(1,1)" stroke="none" fill="#949271"/>
<path d="M1055 699 c-5 -7 -10 -47 -12 -88 -3 -90 -16 -131 -50 -165 -30 -31 -89 -35 -146 -11 -20 8 -39 15 -42 15 -13 0 -3 -37 20 -76 49 -84 199 -183 355 -233 66 -22 285 -70 352 -79 61 -7 58 15 -21 130 -92 136 -166 222 -246 288 -36 29 -65 59 -65 64 0 7 50 12 141 13 135 2 178 11 163 34 -9 15 -114 65 -184 88 -82 27 -253 40 -265 20z" transform="translate(850,-850) scale(1,1)" stroke="none" fill="#167F79"/>
</g>
</g>
</g>

<g id="3" transform="translate(5841.0,0)scale(0.25,0.25)">

<g id="pattern">
<rect width="8437" height="8437" fill="#EFB664"/>
<g id="pattern1" transform="matrix(1,0,0,1,525,525)">
<path d="M585 748 c-122 -44 -154 -181 -59 -253 10 -8 40 -15 66 -15 41 0 54 5 86 35 37 33 62 87 62 134 0 38 -30 82 -65 97 -39 16 -49 16 -90 2z" transform="translate(0.000000,0.000000) scale(1,1)" stroke="none" fill="#949271"/>
<path d="M1055 699 c-5 -7 -10 -47 -12 -88 -3 -90 -16 -131 -50 -165 -30 -31 -89 -35 -146 -11 -20 8 -39 15 -42 15 -13 0 -3 -37 20 -76 49 -84 199 -183 355 -233 66 -22 285 -70 352 -79 61 -7 58 15 -21 130 -92 136 -166 222 -246 288 -36 29 -65 59 -65 64 0 7 50 12 141 13 135 2 178 11 163 34 -9 15 -114 65 -184 88 -82 27 -253 40 -265 20z" transform="translate(0.000000,0.000000) scale(1,1)" stroke="none" fill="#167F79"/>
</g>
<g id="pattern2" transform="matrix(0.618,0,0,0.618,3997,1174)">
<path d="M585 748 c-122 -44 -154 -181 -59 -253 10 -8 40 -15 66 -15 41 0 54 5 86 35 37 33 62 87 62 134 0 38 -30 82 -65 97 -39 16 -49 16 -90 2z" transform="translate(5295,0.000000) scale(-1,1)" stroke="none" fill="#949271"/>
<path d="M1055 699 c-5 -7 -10 -47 -12 -88 -3 -90 -16 -131 -50 -165 -30 -31 -89 -35 -146 -11 -20 8 -39 15 -42 15 -13 0 -3 -37 20 -76 49 -84 199 -183 355 -233 66 -22 285 -70 352 -79 61 -7 58 15 -21 130 -92 136 -166 222 -246 288 -36 29 -65 59 -65 64 0 7 50 12 141 13 135 2 178 11 163 34 -9 15 -114 65 -184 88 -82 27 -253 40 -265 20z" transform="translate(5295,0.000000) scale(-1,1)" stroke="none" fill="#167F79"/>
</g>
<g id="pattern3" transform="matrix(0.618,0,0,0.618,1499,5295)matrix(0.71,0.71,-0.71,0.71,0,0)">
<path d="M585 748 c-122 -44 -154 -181 -59 -253 10 -8 40 -15 66 -15 41 0 54 5 86 35 37 33 62 87 62 134 0 38 -30 82 -65 97 -39 16 -49 16 -90 2z" transform="translate(850,-850) scale(1,1)" stroke="none" fill="#949271"/>
<path d="M1055 699 c-5 -7 -10 -47 -12 -88 -3 -90 -16 -131 -50 -165 -30 -31 -89 -35 -146 -11 -20 8 -39 15 -42 15 -13 0 -3 -37 20 -76 49 -84 199 -183 355 -233 66 -22 285 -70 352 -79 61 -7 58 15 -21 130 -92 136 -166 222 -246 288 -36 29 -65 59 -65 64 0 7 50 12 141 13 135 2 178 11 163 34 -9 15 -114 65 -184 88 -82 27 -253 40 -265 20z" transform="translate(850,-850) scale(1,1)" stroke="none" fill="#167F79"/>
</g>
<g id="pattern4" transform="matrix(1.618,0,0,1.618,2222,2222)matrix(0.87,0.5,-0.5,0.87,0,0)">
<path d="M585 748 c-122 -44 -154 -181 -59 -253 10 -8 40 -15 66 -15 41 0 54 5 86 35 37 33 62 87 62 134 0 38 -30 82 -65 97 -39 16 -49 16 -90 2z" transform="translate(850,-850) scale(1,1)" stroke="none" fill="#949271"/>
<path d="M1055 699 c-5 -7 -10 -47 -12 -88 -3 -90 -16 -131 -50 -165 -30 -31 -89 -35 -146 -11 -20 8 -39 15 -42 15 -13 0 -3 -37 20 -76 49 -84 199 -183 355 -233 66 -22 285 -70 352 -79 61 -7 58 15 -21 130 -92 136 -166 222 -246 288 -36 29 -65 59 -65 64 0 7 50 12 141 13 135 2 178 11 163 34 -9 15 -114 65 -184 88 -82 27 -253 40 -265 20z" transform="translate(850,-850) scale(1,1)" stroke="none" fill="#167F79"/>
</g>
</g>
</g>

<g id="4" transform="translate(7788.0,0)scale(0.25,0.25)">

<g id="pattern">
<rect width="8437" height="8437" fill="#EFB664"/>
<g id="pattern1" transform="matrix(1,0,0,1,525,525)">
<path d="M585 748 c-122 -44 -154 -181 -59 -253 10 -8 40 -15 66 -15 41 0 54 5 86 35 37 33 62 87 62 134 0 38 -30 82 -65 97 -39 16 -49 16 -90 2z" transform="translate(0.000000,0.000000) scale(1,1)" stroke="none" fill="#949271"/>
<path d="M1055 699 c-5 -7 -10 -47 -12 -88 -3 -90 -16 -131 -50 -165 -30 -31 -89 -35 -146 -11 -20 8 -39 15 -42 15 -13 0 -3 -37 20 -76 49 -84 199 -183 355 -233 66 -22 285 -70 352 -79 61 -7 58 15 -21 130 -92 136 -166 222 -246 288 -36 29 -65 59 -65 64 0 7 50 12 141 13 135 2 178 11 163 34 -9 15 -114 65 -184 88 -82 27 -253 40 -265 20z" transform="translate(0.000000,0.000000) scale(1,1)" stroke="none" fill="#167F79"/>
</g>
<g id="pattern2" transform="matrix(0.618,0,0,0.618,3997,1174)">
<path d="M585 748 c-122 -44 -154 -181 -59 -253 10 -8 40 -15 66 -15 41 0 54 5 86 35 37 33 62 87 62 134 0 38 -30 82 -65 97 -39 16 -49 16 -90 2z" transform="translate(5295,0.000000) scale(-1,1)" stroke="none" fill="#949271"/>
<path d="M1055 699 c-5 -7 -10 -47 -12 -88 -3 -90 -16 -131 -50 -165 -30 -31 -89 -35 -146 -11 -20 8 -39 15 -42 15 -13 0 -3 -37 20 -76 49 -84 199 -183 355 -233 66 -22 285 -70 352 -79 61 -7 58 15 -21 130 -92 136 -166 222 -246 288 -36 29 -65 59 -65 64 0 7 50 12 141 13 135 2 178 11 163 34 -9 15 -114 65 -184 88 -82 27 -253 40 -265 20z" transform="translate(5295,0.000000) scale(-1,1)" stroke="none" fill="#167F79"/>
</g>
<g id="pattern3" transform="matrix(0.618,0,0,0.618,1499,5295)matrix(0.71,0.71,-0.71,0.71,0,0)">
<path d="M585 748 c-122 -44 -154 -181 -59 -253 10 -8 40 -15 66 -15 41 0 54 5 86 35 37 33 62 87 62 134 0 38 -30 82 -65 97 -39 16 -49 16 -90 2z" transform="translate(850,-850) scale(1,1)" stroke="none" fill="#949271"/>
<path d="M1055 699 c-5 -7 -10 -47 -12 -88 -3 -90 -16 -131 -50 -165 -30 -31 -89 -35 -146 -11 -20 8 -39 15 -42 15 -13 0 -3 -37 20 -76 49 -84 199 -183 355 -233 66 -22 285 -70 352 -79 61 -7 58 15 -21 130 -92 136 -166 222 -246 288 -36 29 -65 59 -65 64 0 7 50 12 141 13 135 2 178 11 163 34 -9 15 -114 65 -184 88 -82 27 -253 40 -265 20z" transform="translate(850,-850) scale(1,1)" stroke="none" fill="#167F79"/>
</g>
<g id="pattern4" transform="matrix(1.618,0,0,1.618,2222,2222)matrix(0.87,0.5,-0.5,0.87,0,0)">
<path d="M585 748 c-122 -44 -154 -181 -59 -253 10 -8 40 -15 66 -15 41 0 54 5 86 35 37 33 62 87 62 134 0 38 -30 82 -65 97 -39 16 -49 16 -90 2z" transform="translate(850,-850) scale(1,1)" stroke="none" fill="#949271"/>
<path d="M1055 699 c-5 -7 -10 -47 -12 -88 -3 -90 -16 -131 -50 -165 -30 -31 -89 -35 -146 -11 -20 8 -39 15 -42 15 -13 0 -3 -37 20 -76 49 -84 199 -183 355 -233 66 -22 285 -70 352 -79 61 -7 58 15 -21 130 -92 136 -166 222 -246 288 -36 29 -65 59 -65 64 0 7 50 12 141 13 135 2 178 11 163 34 -9 15 -114 65 -184 88 -82 27 -253 40 -265 20z" transform="translate(850,-850) scale(1,1)" stroke="none" fill="#167F79"/>
</g>
</g>
</g>

</g>
<g id="row1" transform="translate(0,1947.0)">
<g id="0" transform="translate(0.0,0)scale(0.25,0.25)">

<g id="pattern">
<rect width="8437" height="8437" fill="#EFB664"/>
<g id="pattern1" transform="matrix(1,0,0,1,525,525)">
<path d="M585 748 c-122 -44 -154 -181 -59 -253 10 -8 40 -15 66 -15 41 0 54 5 86 35 37 33 62 87 62 134 0 38 -30 82 -65 97 -39 16 -49 16 -90 2z" transform="translate(0.000000,0.000000) scale(1,1)" stroke="none" fill="#949271"/>
<path d="M1055 699 c-5 -7 -10 -47 -12 -88 -3 -90 -16 -131 -50 -165 -30 -31 -89 -35 -146 -11 -20 8 -39 15 -42 15 -13 0 -3 -37 20 -76 49 -84 199 -183 355 -233 66 -22 285 -70 352 -79 61 -7 58 15 -21 130 -92 136 -166 222 -246 288 -36 29 -65 59 -65 64 0 7 50 12 141 13 135 2 178 11 163 34 -9 15 -114 65 -184 88 -82 27 -253 40 -265 20z" transform="translate(0.000000,0.000000) scale(1,1)" stroke="none" fill="#167F79"/>
</g>
<g id="pattern2" transform="matrix(0.618,0,0,0.618,3997,1174)">
<path d="M585 748 c-122 -44 -154 -181 -59 -253 10 -8 40 -15 66 -15 41 0 54 5 86 35 37 33 62 87 62 134 0 38 -30 82 -65 97 -39 16 -49 16 -90 2z" transform="translate(5295,0.000000) scale(-1,1)" stroke="none" fill="#949271"/>
<path d="M1055 699 c-5 -7 -10 -47 -12 -88 -3 -90 -16 -131 -50 -165 -30 -31 -89 -35 -146 -11 -20 8 -39 15 -42 15 -13 0 -3 -37 20 -76 49 -84 199 -183 355 -233 66 -22 285 -70 352 -79 61 -7 58 15 -21 130 -92 136 -166 222 -246 288 -36 29 -65 59 -65 64 0 7 50 12 141 13 135 2 178 11 163 34 -9 15 -114 65 -184 88 -82 27 -253 40 -265 20z" transform="translate(5295,0.000000) scale(-1,1)" stroke="none" fill="#167F79"/>
</g>
<g id="pattern3" transform="matrix(0.618,0,0,0.618,1499,5295)matrix(0.71,0.71,-0.71,0.71,0,0)">
<path d="M585 748 c-122 -44 -154 -181 -59 -253 10 -8 40 -15 66 -15 41 0 54 5 86 35 37 33 62 87 62 134 0 38 -30 82 -65 97 -39 16 -49 16 -90 2z" transform="translate(850,-850) scale(1,1)" stroke="none" fill="#949271"/>
<path d="M1055 699 c-5 -7 -10 -47 -12 -88 -3 -90 -16 -131 -50 -165 -30 -31 -89 -35 -146 -11 -20 8 -39 15 -42 15 -13 0 -3 -37 20 -76 49 -84 199 -183 355 -233 66 -22 285 -70 352 -79 61 -7 58 15 -21 130 -92 136 -166 222 -246 288 -36 29 -65 59 -65 64 0 7 50 12 141 13 135 2 178 11 163 34 -9 15 -114 65 -184 88 -82 27 -253 40 -265 20z" transform="translate(850,-850) scale(1,1)" stroke="none" fill="#167F79"/>
</g>
<g id="pattern4" transform="matrix(1.618,0,0,1.618,2222,2222)matrix(0.87,0.5,-0.5,0.87,0,0)">
<path d="M585 748 c-122 -44 -154 -181 -59 -253 10 -8 40 -15 66 -15 41 0 54 5 86 35 37 33 62 87 62 134 0 38 -30 82 -65 97 -39 16 -49 16 -90 2z" transform="translate(850,-850) scale(1,1)" stroke="none" fill="#949271"/>
<path d="M1055 699 c-5 -7 -10 -47 -12 -88 -3 -90 -16 -131 -50 -165 -30 -31 -89 -35 -146 -11 -20 8 -39 15 -42 15 -13 0 -3 -37 20 -76 49 -84 199 -183 355 -233 66 -22 285 -70 352 -79 61 -7 58 15 -21 130 -92 136 -166 222 -246 288 -36 29 -65 59 -65 64 0 7 50 12 141 13 135 2 178 11 163 34 -9 15 -114 65 -184 88 -82 27 -253 40 -265 20z" transform="translate(850,-850) scale(1,1)" stroke="none" fill="#167F79"/>
</g>
</g>
</g>

<g id="1" transform="translate(1947.0,0)scale(0.25,0.25)">

<g id="pattern">
<rect width="8437" height="8437" fill="#EFB664"/>
<g id="pattern1" transform="matrix(1,0,0,1,525,525)">
<path d="M585 748 c-122 -44 -154 -181 -59 -253 10 -8 40 -15 66 -15 41 0 54 5 86 35 37 33 62 87 62 134 0 38 -30 82 -65 97 -39 16 -49 16 -90 2z" transform="translate(0.000000,0.000000) scale(1,1)" stroke="none" fill="#949271"/>
<path d="M1055 699 c-5 -7 -10 -47 -12 -88 -3 -90 -16 -131 -50 -165 -30 -31 -89 -35 -146 -11 -20 8 -39 15 -42 15 -13 0 -3 -37 20 -76 49 -84 199 -183 355 -233 66 -22 285 -70 352 -79 61 -7 58 15 -21 130 -92 136 -166 222 -246 288 -36 29 -65 59 -65 64 0 7 50 12 141 13 135 2 178 11 163 34 -9 15 -114 65 -184 88 -82 27 -253 40 -265 20z" transform="translate(0.000000,0.000000) scale(1,1)" stroke="none" fill="#167F79"/>
</g>
<g id="pattern2" transform="matrix(0.618,0,0,0.618,3997,1174)">
<path d="M585 748 c-122 -44 -154 -181 -59 -253 10 -8 40 -15 66 -15 41 0 54 5 86 35 37 33 62 87 62 134 0 38 -30 82 -65 97 -39 16 -49 16 -90 2z" transform="translate(5295,0.000000) scale(-1,1)" stroke="none" fill="#949271"/>
<path d="M1055 699 c-5 -7 -10 -47 -12 -88 -3 -90 -16 -131 -50 -165 -30 -31 -89 -35 -146 -11 -20 8 -39 15 -42 15 -13 0 -3 -37 20 -76 49 -84 199 -183 355 -233 66 -22 285 -70 352 -79 61 -7 58 15 -21 130 -92 136 -166 222 -246 288 -36 29 -65 59 -65 64 0 7 50 12 141 13 135 2 178 11 163 34 -9 15 -114 65 -184 88 -82 27 -253 40 -265 20z" transform="translate(5295,0.000000) scale(-1,1)" stroke="none" fill="#167F79"/>
</g>
<g id="pattern3" transform="matrix(0.618,0,0,0.618,1499,5295)matrix(0.71,0.71,-0.71,0.71,0,0)">
<path d="M585 748 c-122 -44 -154 -181 -59 -253 10 -8 40 -15 66 -15 41 0 54 5 86 35 37 33 62 87 62 134 0 38 -30 82 -65 97 -39 16 -49 16 -90 2z" transform="translate(850,-850) scale(1,1)" stroke="none" fill="#949271"/>
<path d="M1055 699 c-5 -7 -10 -47 -12 -88 -3 -90 -16 -131 -50 -165 -30 -31 -89 -35 -146 -11 -20 8 -39 15 -42 15 -13 0 -3 -37 20 -76 49 -84 199 -183 355 -233 66 -22 285 -70 352 -79 61 -7 58 15 -21 130 -92 136 -166 222 -246 288 -36 29 -65 59 -65 64 0 7 50 12 141 13 135 2 178 11 163 34 -9 15 -114 65 -184 88 -82 27 -253 40 -265 20z" transform="translate(850,-850) scale(1,1)" stroke="none" fill="#167F79"/>
</g>
<g id="pattern4" transform="matrix(1.618,0,0,1.618,2222,2222)matrix(0.87,0.5,-0.5,0.87,0,0)">
<path d="M585 748 c-122 -44 -154 -181 -59 -253 10 -8 40 -15 66 -15 41 0 54 5 86 35 37 33 62 87 62 134 0 38 -30 82 -65 97 -39 16 -49 16 -90 2z" transform="translate(850,-850) scale(1,1)" stroke="none" fill="#949271"/>
<path d="M1055 699 c-5 -7 -10 -47 -12 -88 -3 -90 -16 -131 -50 -165 -30 -31 -89 -35 -146 -11 -20 8 -39 15 -42 15 -13 0 -3 -37 20 -76 49 -84 199 -183 355 -233 66 -22 285 -70 352 -79 61 -7 58 15 -21 130 -92 136 -166 222 -246 288 -36 29 -65 59 -65 64 0 7 50 12 141 13 135 2 178 11 163 34 -9 15 -114 65 -184 88 -82 27 -253 40 -265 20z" transform="translate(850,-850) scale(1,1)" stroke="none" fill="#167F79"/>
</g>
</g>
</g>

<g id="2" transform="translate(3894.0,0)scale(0.25,0.25)">

<g id="pattern">
<rect width="8437" height="8437" fill="#EFB664"/>
<g id="pattern1" transform="matrix(1,0,0,1,525,525)">
<path d="M585 748 c-122 -44 -154 -181 -59 -253 10 -8 40 -15 66 -15 41 0 54 5 86 35 37 33 62 87 62 134 0 38 -30 82 -65 97 -39 16 -49 16 -90 2z" transform="translate(0.000000,0.000000) scale(1,1)" stroke="none" fill="#949271"/>
<path d="M1055 699 c-5 -7 -10 -47 -12 -88 -3 -90 -16 -131 -50 -165 -30 -31 -89 -35 -146 -11 -20 8 -39 15 -42 15 -13 0 -3 -37 20 -76 49 -84 199 -183 355 -233 66 -22 285 -70 352 -79 61 -7 58 15 -21 130 -92 136 -166 222 -246 288 -36 29 -65 59 -65 64 0 7 50 12 141 13 135 2 178 11 163 34 -9 15 -114 65 -184 88 -82 27 -253 40 -265 20z" transform="translate(0.000000,0.000000) scale(1,1)" stroke="none" fill="#167F79"/>
</g>
<g id="pattern2" transform="matrix(0.618,0,0,0.618,3997,1174)">
<path d="M585 748 c-122 -44 -154 -181 -59 -253 10 -8 40 -15 66 -15 41 0 54 5 86 35 37 33 62 87 62 134 0 38 -30 82 -65 97 -39 16 -49 16 -90 2z" transform="translate(5295,0.000000) scale(-1,1)" stroke="none" fill="#949271"/>
<path d="M1055 699 c-5 -7 -10 -47 -12 -88 -3 -90 -16 -131 -50 -165 -30 -31 -89 -35 -146 -11 -20 8 -39 15 -42 15 -13 0 -3 -37 20 -76 49 -84 199 -183 355 -233 66 -22 285 -70 352 -79 61 -7 58 15 -21 130 -92 136 -166 222 -246 288 -36 29 -65 59 -65 64 0 7 50 12 141 13 135 2 178 11 163 34 -9 15 -114 65 -184 88 -82 27 -253 40 -265 20z" transform="translate(5295,0.000000) scale(-1,1)" stroke="none" fill="#167F79"/>
</g>
<g id="pattern3" transform="matrix(0.618,0,0,0.618,1499,5295)matrix(0.71,0.71,-0.71,0.71,0,0)">
<path d="M585 748 c-122 -44 -154 -181 -59 -253 10 -8 40 -15 66 -15 41 0 54 5 86 35 37 33 62 87 62 134 0 38 -30 82 -65 97 -39 16 -49 16 -90 2z" transform="translate(850,-850) scale(1,1)" stroke="none" fill="#949271"/>
<path d="M1055 699 c-5 -7 -10 -47 -12 -88 -3 -90 -16 -131 -50 -165 -30 -31 -89 -35 -146 -11 -20 8 -39 15 -42 15 -13 0 -3 -37 20 -76 49 -84 199 -183 355 -233 66 -22 285 -70 352 -79 61 -7 58 15 -21 130 -92 136 -166 222 -246 288 -36 29 -65 59 -65 64 0 7 50 12 141 13 135 2 178 11 163 34 -9 15 -114 65 -184 88 -82 27 -253 40 -265 20z" transform="translate(850,-850) scale(1,1)" stroke="none" fill="#167F79"/>
</g>
<g id="pattern4" transform="matrix(1.618,0,0,1.618,2222,2222)matrix(0.87,0.5,-0.5,0.87,0,0)">
<path d="M585 748 c-122 -44 -154 -181 -59 -253 10 -8 40 -15 66 -15 41 0 54 5 86 35 37 33 62 87 62 134 0 38 -30 82 -65 97 -39 16 -49 16 -90 2z" transform="translate(850,-850) scale(1,1)" stroke="none" fill="#949271"/>
<path d="M1055 699 c-5 -7 -10 -47 -12 -88 -3 -90 -16 -131 -50 -165 -30 -31 -89 -35 -146 -11 -20 8 -39 15 -42 15 -13 0 -3 -37 20 -76 49 -84 199 -183 355 -233 66 -22 285 -70 352 -79 61 -7 58 15 -21 130 -92 136 -166 222 -246 288 -36 29 -65 59 -65 64 0 7 50 12 141 13 135 2 178 11 163 34 -9 15 -114 65 -184 88 -82 27 -253 40 -265 20z" transform="translate(850,-850) scale(1,1)" stroke="none" fill="#167F79"/>
</g>
</g>
</g>

<g id="3" transform="translate(5841.0,0)scale(0.25,0.25)">

<g id="pattern">
<rect width="8437" height="8437" fill="#EFB664"/>
<g id="pattern1" transform="matrix(1,0,0,1,525,525)">
<path d="M585 748 c-122 -44 -154 -181 -59 -253 10 -8 40 -15 66 -15 41 0 54 5 86 35 37 33 62 87 62 134 0 38 -30 82 -65 97 -39 16 -49 16 -90 2z" transform="translate(0.000000,0.000000) scale(1,1)" stroke="none" fill="#949271"/>
<path d="M1055 699 c-5 -7 -10 -47 -12 -88 -3 -90 -16 -131 -50 -165 -30 -31 -89 -35 -146 -11 -20 8 -39 15 -42 15 -13 0 -3 -37 20 -76 49 -84 199 -183 355 -233 66 -22 285 -70 352 -79 61 -7 58 15 -21 130 -92 136 -166 222 -246 288 -36 29 -65 59 -65 64 0 7 50 12 141 13 135 2 178 11 163 34 -9 15 -114 65 -184 88 -82 27 -253 40 -265 20z" transform="translate(0.000000,0.000000) scale(1,1)" stroke="none" fill="#167F79"/>
</g>
<g id="pattern2" transform="matrix(0.618,0,0,0.618,3997,1174)">
<path d="M585 748 c-122 -44 -154 -181 -59 -253 10 -8 40 -15 66 -15 41 0 54 5 86 35 37 33 62 87 62 134 0 38 -30 82 -65 97 -39 16 -49 16 -90 2z" transform="translate(5295,0.000000) scale(-1,1)" stroke="none" fill="#949271"/>
<path d="M1055 699 c-5 -7 -10 -47 -12 -88 -3 -90 -16 -131 -50 -165 -30 -31 -89 -35 -146 -11 -20 8 -39 15 -42 15 -13 0 -3 -37 20 -76 49 -84 199 -183 355 -233 66 -22 285 -70 352 -79 61 -7 58 15 -21 130 -92 136 -166 222 -246 288 -36 29 -65 59 -65 64 0 7 50 12 141 13 135 2 178 11 163 34 -9 15 -114 65 -184 88 -82 27 -253 40 -265 20z" transform="translate(5295,0.000000) scale(-1,1)" stroke="none" fill="#167F79"/>
</g>
<g id="pattern3" transform="matrix(0.618,0,0,0.618,1499,5295)matrix(0.71,0.71,-0.71,0.71,0,0)">
<path d="M585 748 c-122 -44 -154 -181 -59 -253 10 -8 40 -15 66 -15 41 0 54 5 86 35 37 33 62 87 62 134 0 38 -30 82 -65 97 -39 16 -49 16 -90 2z" transform="translate(850,-850) scale(1,1)" stroke="none" fill="#949271"/>
<path d="M1055 699 c-5 -7 -10 -47 -12 -88 -3 -90 -16 -131 -50 -165 -30 -31 -89 -35 -146 -11 -20 8 -39 15 -42 15 -13 0 -3 -37 20 -76 49 -84 199 -183 355 -233 66 -22 285 -70 352 -79 61 -7 58 15 -21 130 -92 136 -166 222 -246 288 -36 29 -65 59 -65 64 0 7 50 12 141 13 135 2 178 11 163 34 -9 15 -114 65 -184 88 -82 27 -253 40 -265 20z" transform="translate(850,-850) scale(1,1)" stroke="none" fill="#167F79"/>
</g>
<g id="pattern4" transform="matrix(1.618,0,0,1.618,2222,2222)matrix(0.87,0.5,-0.5,0.87,0,0)">
<path d="M585 748 c-122 -44 -154 -181 -59 -253 10 -8 40 -15 66 -15 41 0 54 5 86 35 37 33 62 87 62 134 0 38 -30 82 -65 97 -39 16 -49 16 -90 2z" transform="translate(850,-850) scale(1,1)" stroke="none" fill="#949271"/>
<path d="M1055 699 c-5 -7 -10 -47 -12 -88 -3 -90 -16 -131 -50 -165 -30 -31 -89 -35 -146 -11 -20 8 -39 15 -42 15 -13 0 -3 -37 20 -76 49 -84 199 -183 355 -233 66 -22 285 -70 352 -79 61 -7 58 15 -21 130 -92 136 -166 222 -246 288 -36 29 -65 59 -65 64 0 7 50 12 141 13 135 2 178 11 163 34 -9 15 -114 65 -184 88 -82 27 -253 40 -265 20z" transform="translate(850,-850) scale(1,1)" stroke="none" fill="#167F79"/>
</g>
</g>
</g>

<g id="4" transform="translate(7788.0,0)scale(0.25,0.25)">

<g id="pattern">
<rect width="8437" height="8437" fill="#EFB664"/>
<g id="pattern1" transform="matrix(1,0,0,1,525,525)">
<path d="M585 748 c-122 -44 -154 -181 -59 -253 10 -8 40 -15 66 -15 41 0 54 5 86 35 37 33 62 87 62 134 0 38 -30 82 -65 97 -39 16 -49 16 -90 2z" transform="translate(0.000000,0.000000) scale(1,1)" stroke="none" fill="#949271"/>
<path d="M1055 699 c-5 -7 -10 -47 -12 -88 -3 -90 -16 -131 -50 -165 -30 -31 -89 -35 -146 -11 -20 8 -39 15 -42 15 -13 0 -3 -37 20 -76 49 -84 199 -183 355 -233 66 -22 285 -70 352 -79 61 -7 58 15 -21 130 -92 136 -166 222 -246 288 -36 29 -65 59 -65 64 0 7 50 12 141 13 135 2 178 11 163 34 -9 15 -114 65 -184 88 -82 27 -253 40 -265 20z" transform="translate(0.000000,0.000000) scale(1,1)" stroke="none" fill="#167F79"/>
</g>
<g id="pattern2" transform="matrix(0.618,0,0,0.618,3997,1174)">
<path d="M585 748 c-122 -44 -154 -181 -59 -253 10 -8 40 -15 66 -15 41 0 54 5 86 35 37 33 62 87 62 134 0 38 -30 82 -65 97 -39 16 -49 16 -90 2z" transform="translate(5295,0.000000) scale(-1,1)" stroke="none" fill="#949271"/>
<path d="M1055 699 c-5 -7 -10 -47 -12 -88 -3 -90 -16 -131 -50 -165 -30 -31 -89 -35 -146 -11 -20 8 -39 15 -42 15 -13 0 -3 -37 20 -76 49 -84 199 -183 355 -233 66 -22 285 -70 352 -79 61 -7 58 15 -21 130 -92 136 -166 222 -246 288 -36 29 -65 59 -65 64 0 7 50 12 141 13 135 2 178 11 163 34 -9 15 -114 65 -184 88 -82 27 -253 40 -265 20z" transform="translate(5295,0.000000) scale(-1,1)" stroke="none" fill="#167F79"/>
</g>
<g id="pattern3" transform="matrix(0.618,0,0,0.618,1499,5295)matrix(0.71,0.71,-0.71,0.71,0,0)">
<path d="M585 748 c-122 -44 -154 -181 -59 -253 10 -8 40 -15 66 -15 41 0 54 5 86 35 37 33 62 87 62 134 0 38 -30 82 -65 97 -39 16 -49 16 -90 2z" transform="translate(850,-850) scale(1,1)" stroke="none" fill="#949271"/>
<path d="M1055 699 c-5 -7 -10 -47 -12 -88 -3 -90 -16 -131 -50 -165 -30 -31 -89 -35 -146 -11 -20 8 -39 15 -42 15 -13 0 -3 -37 20 -76 49 -84 199 -183 355 -233 66 -22 285 -70 352 -79 61 -7 58 15 -21 130 -92 136 -166 222 -246 288 -36 29 -65 59 -65 64 0 7 50 12 141 13 135 2 178 11 163 34 -9 15 -114 65 -184 88 -82 27 -253 40 -265 20z" transform="translate(850,-850) scale(1,1)" stroke="none" fill="#167F79"/>
</g>
<g id="pattern4" transform="matrix(1.618,0,0,1.618,2222,2222)matrix(0.87,0.5,-0.5,0.87,0,0)">
<path d="M585 748 c-122 -44 -154 -181 -59 -253 10 -8 40 -15 66 -15 41 0 54 5 86 35 37 33 62 87 62 134 0 38 -30 82 -65 97 -39 16 -49 16 -90 2z" transform="translate(850,-850) scale(1,1)" stroke="none" fill="#949271"/>
<path d="M1055 699 c-5 -7 -10 -47 -12 -88 -3 -90 -16 -131 -50 -165 -30 -31 -89 -35 -146 -11 -20 8 -39 15 -42 15 -13 0 -3 -37 20 -76 49 -84 199 -183 355 -233 66 -22 285 -70 352 -79 61 -7 58 15 -21 130 -92 136 -166 222 -246 288 -36 29 -65 59 -65 64 0 7 50 12 141 13 135 2 178 11 163 34 -9 15 -114 65 -184 88 -82 27 -253 40 -265 20z" transform="translate(850,-850) scale(1,1)" stroke="none" fill="#167F79"/>
</g>
</g>
</g>

</g>
<g id="row2" transform="translate(0,3894.0)">
<g id="0" transform="translate(0.0,0)scale(0.25,0.25)">

<g id="pattern">
<rect width="8437" height="8437" fill="#EFB664"/>
<g id="pattern1" transform="matrix(1,0,0,1,525,525)">
<path d="M585 748 c-122 -44 -154 -181 -59 -253 10 -8 40 -15 66 -15 41 0 54 5 86 35 37 33 62 87 62 134 0 38 -30 82 -65 97 -39 16 -49 16 -90 2z" transform="translate(0.000000,0.000000) scale(1,1)" stroke="none" fill="#949271"/>
<path d="M1055 699 c-5 -7 -10 -47 -12 -88 -3 -90 -16 -131 -50 -165 -30 -31 -89 -35 -146 -11 -20 8 -39 15 -42 15 -13 0 -3 -37 20 -76 49 -84 199 -183 355 -233 66 -22 285 -70 352 -79 61 -7 58 15 -21 130 -92 136 -166 222 -246 288 -36 29 -65 59 -65 64 0 7 50 12 141 13 135 2 178 11 163 34 -9 15 -114 65 -184 88 -82 27 -253 40 -265 20z" transform="translate(0.000000,0.000000) scale(1,1)" stroke="none" fill="#167F79"/>
</g>
<g id="pattern2" transform="matrix(0.618,0,0,0.618,3997,1174)">
<path d="M585 748 c-122 -44 -154 -181 -59 -253 10 -8 40 -15 66 -15 41 0 54 5 86 35 37 33 62 87 62 134 0 38 -30 82 -65 97 -39 16 -49 16 -90 2z" transform="translate(5295,0.000000) scale(-1,1)" stroke="none" fill="#949271"/>
<path d="M1055 699 c-5 -7 -10 -47 -12 -88 -3 -90 -16 -131 -50 -165 -30 -31 -89 -35 -146 -11 -20 8 -39 15 -42 15 -13 0 -3 -37 20 -76 49 -84 199 -183 355 -233 66 -22 285 -70 352 -79 61 -7 58 15 -21 130 -92 136 -166 222 -246 288 -36 29 -65 59 -65 64 0 7 50 12 141 13 135 2 178 11 163 34 -9 15 -114 65 -184 88 -82 27 -253 40 -265 20z" transform="translate(5295,0.000000) scale(-1,1)" stroke="none" fill="#167F79"/>
</g>
<g id="pattern3" transform="matrix(0.618,0,0,0.618,1499,5295)matrix(0.71,0.71,-0.71,0.71,0,0)">
<path d="M585 748 c-122 -44 -154 -181 -59 -253 10 -8 40 -15 66 -15 41 0 54 5 86 35 37 33 62 87 62 134 0 38 -30 82 -65 97 -39 16 -49 16 -90 2z" transform="translate(850,-850) scale(1,1)" stroke="none" fill="#949271"/>
<path d="M1055 699 c-5 -7 -10 -47 -12 -88 -3 -90 -16 -131 -50 -165 -30 -31 -89 -35 -146 -11 -20 8 -39 15 -42 15 -13 0 -3 -37 20 -76 49 -84 199 -183 355 -233 66 -22 285 -70 352 -79 61 -7 58 15 -21 130 -92 136 -166 222 -246 288 -36 29 -65 59 -65 64 0 7 50 12 141 13 135 2 178 11 163 34 -9 15 -114 65 -184 88 -82 27 -253 40 -265 20z" transform="translate(850,-850) scale(1,1)" stroke="none" fill="#167F79"/>
</g>
<g id="pattern4" transform="matrix(1.618,0,0,1.618,2222,2222)matrix(0.87,0.5,-0.5,0.87,0,0)">
<path d="M585 748 c-122 -44 -154 -181 -59 -253 10 -8 40 -15 66 -15 41 0 54 5 86 35 37 33 62 87 62 134 0 38 -30 82 -65 97 -39 16 -49 16 -90 2z" transform="translate(850,-850) scale(1,1)" stroke="none" fill="#949271"/>
<path d="M1055 699 c-5 -7 -10 -47 -12 -88 -3 -90 -16 -131 -50 -165 -30 -31 -89 -35 -146 -11 -20 8 -39 15 -42 15 -13 0 -3 -37 20 -76 49 -84 199 -183 355 -233 66 -22 285 -70 352 -79 61 -7 58 15 -21 130 -92 136 -166 222 -246 288 -36 29 -65 59 -65 64 0 7 50 12 141 13 135 2 178 11 163 34 -9 15 -114 65 -184 88 -82 27 -253 40 -265 20z" transform="translate(850,-850) scale(1,1)" stroke="none" fill="#167F79"/>
</g>
</g>
</g>

<g id="1" transform="translate(1947.0,0)scale(0.25,0.25)">

<g id="pattern">
<rect width="8437" height="8437" fill="#EFB664"/>
<g id="pattern1" transform="matrix(1,0,0,1,525,525)">
<path d="M585 748 c-122 -44 -154 -181 -59 -253 10 -8 40 -15 66 -15 41 0 54 5 86 35 37 33 62 87 62 134 0 38 -30 82 -65 97 -39 16 -49 16 -90 2z" transform="translate(0.000000,0.000000) scale(1,1)" stroke="none" fill="#949271"/>
<path d="M1055 699 c-5 -7 -10 -47 -12 -88 -3 -90 -16 -131 -50 -165 -30 -31 -89 -35 -146 -11 -20 8 -39 15 -42 15 -13 0 -3 -37 20 -76 49 -84 199 -183 355 -233 66 -22 285 -70 352 -79 61 -7 58 15 -21 130 -92 136 -166 222 -246 288 -36 29 -65 59 -65 64 0 7 50 12 141 13 135 2 178 11 163 34 -9 15 -114 65 -184 88 -82 27 -253 40 -265 20z" transform="translate(0.000000,0.000000) scale(1,1)" stroke="none" fill="#167F79"/>
</g>
<g id="pattern2" transform="matrix(0.618,0,0,0.618,3997,1174)">
<path d="M585 748 c-122 -44 -154 -181 -59 -253 10 -8 40 -15 66 -15 41 0 54 5 86 35 37 33 62 87 62 134 0 38 -30 82 -65 97 -39 16 -49 16 -90 2z" transform="translate(5295,0.000000) scale(-1,1)" stroke="none" fill="#949271"/>
<path d="M1055 699 c-5 -7 -10 -47 -12 -88 -3 -90 -16 -131 -50 -165 -30 -31 -89 -35 -146 -11 -20 8 -39 15 -42 15 -13 0 -3 -37 20 -76 49 -84 199 -183 355 -233 66 -22 285 -70 352 -79 61 -7 58 15 -21 130 -92 136 -166 222 -246 288 -36 29 -65 59 -65 64 0 7 50 12 141 13 135 2 178 11 163 34 -9 15 -114 65 -184 88 -82 27 -253 40 -265 20z" transform="translate(5295,0.000000) scale(-1,1)" stroke="none" fill="#167F79"/>
</g>
<g id="pattern3" transform="matrix(0.618,0,0,0.618,1499,5295)matrix(0.71,0.71,-0.71,0.71,0,0)">
<path d="M585 748 c-122 -44 -154 -181 -59 -253 10 -8 40 -15 66 -15 41 0 54 5 86 35 37 33 62 87 62 134 0 38 -30 82 -65 97 -39 16 -49 16 -90 2z" transform="translate(850,-850) scale(1,1)" stroke="none" fill="#949271"/>
<path d="M1055 699 c-5 -7 -10 -47 -12 -88 -3 -90 -16 -131 -50 -165 -30 -31 -89 -35 -146 -11 -20 8 -39 15 -42 15 -13 0 -3 -37 20 -76 49 -84 199 -183 355 -233 66 -22 285 -70 352 -79 61 -7 58 15 -21 130 -92 136 -166 222 -246 288 -36 29 -65 59 -65 64 0 7 50 12 141 13 135 2 178 11 163 34 -9 15 -114 65 -184 88 -82 27 -253 40 -265 20z" transform="translate(850,-850) scale(1,1)" stroke="none" fill="#167F79"/>
</g>
<g id="pattern4" transform="matrix(1.618,0,0,1.618,2222,2222)matrix(0.87,0.5,-0.5,0.87,0,0)">
<path d="M585 748 c-122 -44 -154 -181 -59 -253 10 -8 40 -15 66 -15 41 0 54 5 86 35 37 33 62 87 62 134 0 38 -30 82 -65 97 -39 16 -49 16 -90 2z" transform="translate(850,-850) scale(1,1)" stroke="none" fill="#949271"/>
<path d="M1055 699 c-5 -7 -10 -47 -12 -88 -3 -90 -16 -131 -50 -165 -30 -31 -89 -35 -146 -11 -20 8 -39 15 -42 15 -13 0 -3 -37 20 -76 49 -84 199 -183 355 -233 66 -22 285 -70 352 -79 61 -7 58 15 -21 130 -92 136 -166 222 -246 288 -36 29 -65 59 -65 64 0 7 50 12 141 13 135 2 178 11 163 34 -9 15 -114 65 -184 88 -82 27 -253 40 -265 20z" transform="translate(850,-850) scale(1,1)" stroke="none" fill="#167F79"/>
</g>
</g>
</g>

<g id="2" transform="translate(3894.0,0)scale(0.25,0.25)">

<g id="pattern">
<rect width="8437" height="8437" fill="#EFB664"/>
<g id="pattern1" transform="matrix(1,0,0,1,525,525)">
<path d="M585 748 c-122 -44 -154 -181 -59 -253 10 -8 40 -15 66 -15 41 0 54 5 86 35 37 33 62 87 62 134 0 38 -30 82 -65 97 -39 16 -49 16 -90 2z" transform="translate(0.000000,0.000000) scale(1,1)" stroke="none" fill="#949271"/>
<path d="M1055 699 c-5 -7 -10 -47 -12 -88 -3 -90 -16 -131 -50 -165 -30 -31 -89 -35 -146 -11 -20 8 -39 15 -42 15 -13 0 -3 -37 20 -76 49 -84 199 -183 355 -233 66 -22 285 -70 352 -79 61 -7 58 15 -21 130 -92 136 -166 222 -246 288 -36 29 -65 59 -65 64 0 7 50 12 141 13 135 2 178 11 163 34 -9 15 -114 65 -184 88 -82 27 -253 40 -265 20z" transform="translate(0.000000,0.000000) scale(1,1)" stroke="none" fill="#167F79"/>
</g>
<g id="pattern2" transform="matrix(0.618,0,0,0.618,3997,1174)">
<path d="M585 748 c-122 -44 -154 -181 -59 -253 10 -8 40 -15 66 -15 41 0 54 5 86 35 37 33 62 87 62 134 0 38 -30 82 -65 97 -39 16 -49 16 -90 2z" transform="translate(5295,0.000000) scale(-1,1)" stroke="none" fill="#949271"/>
<path d="M1055 699 c-5 -7 -10 -47 -12 -88 -3 -90 -16 -131 -50 -165 -30 -31 -89 -35 -146 -11 -20 8 -39 15 -42 15 -13 0 -3 -37 20 -76 49 -84 199 -183 355 -233 66 -22 285 -70 352 -79 61 -7 58 15 -21 130 -92 136 -166 222 -246 288 -36 29 -65 59 -65 64 0 7 50 12 141 13 135 2 178 11 163 34 -9 15 -114 65 -184 88 -82 27 -253 40 -265 20z" transform="translate(5295,0.000000) scale(-1,1)" stroke="none" fill="#167F79"/>
</g>
<g id="pattern3" transform="matrix(0.618,0,0,0.618,1499,5295)matrix(0.71,0.71,-0.71,0.71,0,0)">
<path d="M585 748 c-122 -44 -154 -181 -59 -253 10 -8 40 -15 66 -15 41 0 54 5 86 35 37 33 62 87 62 134 0 38 -30 82 -65 97 -39 16 -49 16 -90 2z" transform="translate(850,-850) scale(1,1)" stroke="none" fill="#949271"/>
<path d="M1055 699 c-5 -7 -10 -47 -12 -88 -3 -90 -16 -131 -50 -165 -30 -31 -89 -35 -146 -11 -20 8 -39 15 -42 15 -13 0 -3 -37 20 -76 49 -84 199 -183 355 -233 66 -22 285 -70 352 -79 61 -7 58 15 -21 130 -92 136 -166 222 -246 288 -36 29 -65 59 -65 64 0 7 50 12 141 13 135 2 178 11 163 34 -9 15 -114 65 -184 88 -82 27 -253 40 -265 20z" transform="translate(850,-850) scale(1,1)" stroke="none" fill="#167F79"/>
</g>
<g id="pattern4" transform="matrix(1.618,0,0,1.618,2222,2222)matrix(0.87,0.5,-0.5,0.87,0,0)">
<path d="M585 748 c-122 -44 -154 -181 -59 -253 10 -8 40 -15 66 -15 41 0 54 5 86 35 37 33 62 87 62 134 0 38 -30 82 -65 97 -39 16 -49 16 -90 2z" transform="translate(850,-850) scale(1,1)" stroke="none" fill="#949271"/>
<path d="M1055 699 c-5 -7 -10 -47 -12 -88 -3 -90 -16 -131 -50 -165 -30 -31 -89 -35 -146 -11 -20 8 -39 15 -42 15 -13 0 -3 -37 20 -76 49 -84 199 -183 355 -233 66 -22 285 -70 352 -79 61 -7 58 15 -21 130 -92 136 -166 222 -246 288 -36 29 -65 59 -65 64 0 7 50 12 141 13 135 2 178 11 163 34 -9 15 -114 65 -184 88 -82 27 -253 40 -265 20z" transform="translate(850,-850) scale(1,1)" stroke="none" fill="#167F79"/>
</g>
</g>
</g>

<g id="3" transform="translate(5841.0,0)scale(0.25,0.25)">

<g id="pattern">
<rect width="8437" height="8437" fill="#EFB664"/>
<g id="pattern1" transform="matrix(1,0,0,1,525,525)">
<path d="M585 748 c-122 -44 -154 -181 -59 -253 10 -8 40 -15 66 -15 41 0 54 5 86 35 37 33 62 87 62 134 0 38 -30 82 -65 97 -39 16 -49 16 -90 2z" transform="translate(0.000000,0.000000) scale(1,1)" stroke="none" fill="#949271"/>
<path d="M1055 699 c-5 -7 -10 -47 -12 -88 -3 -90 -16 -131 -50 -165 -30 -31 -89 -35 -146 -11 -20 8 -39 15 -42 15 -13 0 -3 -37 20 -76 49 -84 199 -183 355 -233 66 -22 285 -70 352 -79 61 -7 58 15 -21 130 -92 136 -166 222 -246 288 -36 29 -65 59 -65 64 0 7 50 12 141 13 135 2 178 11 163 34 -9 15 -114 65 -184 88 -82 27 -253 40 -265 20z" transform="translate(0.000000,0.000000) scale(1,1)" stroke="none" fill="#167F79"/>
</g>
<g id="pattern2" transform="matrix(0.618,0,0,0.618,3997,1174)">
<path d="M585 748 c-122 -44 -154 -181 -59 -253 10 -8 40 -15 66 -15 41 0 54 5 86 35 37 33 62 87 62 134 0 38 -30 82 -65 97 -39 16 -49 16 -90 2z" transform="translate(5295,0.000000) scale(-1,1)" stroke="none" fill="#949271"/>
<path d="M1055 699 c-5 -7 -10 -47 -12 -88 -3 -90 -16 -131 -50 -165 -30 -31 -89 -35 -146 -11 -20 8 -39 15 -42 15 -13 0 -3 -37 20 -76 49 -84 199 -183 355 -233 66 -22 285 -70 352 -79 61 -7 58 15 -21 130 -92 136 -166 222 -246 288 -36 29 -65 59 -65 64 0 7 50 12 141 13 135 2 178 11 163 34 -9 15 -114 65 -184 88 -82 27 -253 40 -265 20z" transform="translate(5295,0.000000) scale(-1,1)" stroke="none" fill="#167F79"/>
</g>
<g id="pattern3" transform="matrix(0.618,0,0,0.618,1499,5295)matrix(0.71,0.71,-0.71,0.71,0,0)">
<path d="M585 748 c-122 -44 -154 -181 -59 -253 10 -8 40 -15 66 -15 41 0 54 5 86 35 37 33 62 87 62 134 0 38 -30 82 -65 97 -39 16 -49 16 -90 2z" transform="translate(850,-850) scale(1,1)" stroke="none" fill="#949271"/>
<path d="M1055 699 c-5 -7 -10 -47 -12 -88 -3 -90 -16 -131 -50 -165 -30 -31 -89 -35 -146 -11 -20 8 -39 15 -42 15 -13 0 -3 -37 20 -76 49 -84 199 -183 355 -233 66 -22 285 -70 352 -79 61 -7 58 15 -21 130 -92 136 -166 222 -246 288 -36 29 -65 59 -65 64 0 7 50 12 141 13 135 2 178 11 163 34 -9 15 -114 65 -184 88 -82 27 -253 40 -265 20z" transform="translate(850,-850) scale(1,1)" stroke="none" fill="#167F79"/>
</g>
<g id="pattern4" transform="matrix(1.618,0,0,1.618,2222,2222)matrix(0.87,0.5,-0.5,0.87,0,0)">
<path d="M585 748 c-122 -44 -154 -181 -59 -253 10 -8 40 -15 66 -15 41 0 54 5 86 35 37 33 62 87 62 134 0 38 -30 82 -65 97 -39 16 -49 16 -90 2z" transform="translate(850,-850) scale(1,1)" stroke="none" fill="#949271"/>
<path d="M1055 699 c-5 -7 -10 -47 -12 -88 -3 -90 -16 -131 -50 -165 -30 -31 -89 -35 -146 -11 -20 8 -39 15 -42 15 -13 0 -3 -37 20 -76 49 -84 199 -183 355 -233 66 -22 285 -70 352 -79 61 -7 58 15 -21 130 -92 136 -166 222 -246 288 -36 29 -65 59 -65 64 0 7 50 12 141 13 135 2 178 11 163 34 -9 15 -114 65 -184 88 -82 27 -253 40 -265 20z" transform="translate(850,-850) scale(1,1)" stroke="none" fill="#167F79"/>
</g>
</g>
</g>

<g id="4" transform="translate(7788.0,0)scale(0.25,0.25)">

<g id="pattern">
<rect width="8437" height="8437" fill="#EFB664"/>
<g id="pattern1" transform="matrix(1,0,0,1,525,525)">
<path d="M585 748 c-122 -44 -154 -181 -59 -253 10 -8 40 -15 66 -15 41 0 54 5 86 35 37 33 62 87 62 134 0 38 -30 82 -65 97 -39 16 -49 16 -90 2z" transform="translate(0.000000,0.000000) scale(1,1)" stroke="none" fill="#949271"/>
<path d="M1055 699 c-5 -7 -10 -47 -12 -88 -3 -90 -16 -131 -50 -165 -30 -31 -89 -35 -146 -11 -20 8 -39 15 -42 15 -13 0 -3 -37 20 -76 49 -84 199 -183 355 -233 66 -22 285 -70 352 -79 61 -7 58 15 -21 130 -92 136 -166 222 -246 288 -36 29 -65 59 -65 64 0 7 50 12 141 13 135 2 178 11 163 34 -9 15 -114 65 -184 88 -82 27 -253 40 -265 20z" transform="translate(0.000000,0.000000) scale(1,1)" stroke="none" fill="#167F79"/>
</g>
<g id="pattern2" transform="matrix(0.618,0,0,0.618,3997,1174)">
<path d="M585 748 c-122 -44 -154 -181 -59 -253 10 -8 40 -15 66 -15 41 0 54 5 86 35 37 33 62 87 62 134 0 38 -30 82 -65 97 -39 16 -49 16 -90 2z" transform="translate(5295,0.000000) scale(-1,1)" stroke="none" fill="#949271"/>
<path d="M1055 699 c-5 -7 -10 -47 -12 -88 -3 -90 -16 -131 -50 -165 -30 -31 -89 -35 -146 -11 -20 8 -39 15 -42 15 -13 0 -3 -37 20 -76 49 -84 199 -183 355 -233 66 -22 285 -70 352 -79 61 -7 58 15 -21 130 -92 136 -166 222 -246 288 -36 29 -65 59 -65 64 0 7 50 12 141 13 135 2 178 11 163 34 -9 15 -114 65 -184 88 -82 27 -253 40 -265 20z" transform="translate(5295,0.000000) scale(-1,1)" stroke="none" fill="#167F79"/>
</g>
<g id="pattern3" transform="matrix(0.618,0,0,0.618,1499,5295)matrix(0.71,0.71,-0.71,0.71,0,0)">
<path d="M585 748 c-122 -44 -154 -181 -59 -253 10 -8 40 -15 66 -15 41 0 54 5 86 35 37 33 62 87 62 134 0 38 -30 82 -65 97 -39 16 -49 16 -90 2z" transform="translate(850,-850) scale(1,1)" stroke="none" fill="#949271"/>
<path d="M1055 699 c-5 -7 -10 -47 -12 -88 -3 -90 -16 -131 -50 -165 -30 -31 -89 -35 -146 -11 -20 8 -39 15 -42 15 -13 0 -3 -37 20 -76 49 -84 199 -183 355 -233 66 -22 285 -70 352 -79 61 -7 58 15 -21 130 -92 136 -166 222 -246 288 -36 29 -65 59 -65 64 0 7 50 12 141 13 135 2 178 11 163 34 -9 15 -114 65 -184 88 -82 27 -253 40 -265 20z" transform="translate(850,-850) scale(1,1)" stroke="none" fill="#167F79"/>
</g>
<g id="pattern4" transform="matrix(1.618,0,0,1.618,2222,2222)matrix(0.87,0.5,-0.5,0.87,0,0)">
<path d="M585 748 c-122 -44 -154 -181 -59 -253 10 -8 40 -15 66 -15 41 0 54 5 86 35 37 33 62 87 62 134 0 38 -30 82 -65 97 -39 16 -49 16 -90 2z" transform="translate(850,-850) scale(1,1)" stroke="none" fill="#949271"/>
<path d="M1055 699 c-5 -7 -10 -47 -12 -88 -3 -90 -16 -131 -50 -165 -30 -31 -89 -35 -146 -11 -20 8 -39 15 -42 15 -13 0 -3 -37 20 -76 49 -84 199 -183 355 -233 66 -22 285 -70 352 -79 61 -7 58 15 -21 130 -92 136 -166 222 -246 288 -36 29 -65 59 -65 64 0 7 50 12 141 13 135 2 178 11 163 34 -9 15 -114 65 -184 88 -82 27 -253 40 -265 20z" transform="translate(850,-850) scale(1,1)" stroke="none" fill="#167F79"/>
</g>
</g>
</g>

</g>
<g id="row3" transform="translate(0,5841.0)">
<g id="0" transform="translate(0.0,0)scale(0.25,0.25)">

<g id="pattern">
<rect width="8437" height="8437" fill="#EFB664"/>
<g id="pattern1" transform="matrix(1,0,0,1,525,525)">
<path d="M585 748 c-122 -44 -154 -181 -59 -253 10 -8 40 -15 66 -15 41 0 54 5 86 35 37 33 62 87 62 134 0 38 -30 82 -65 97 -39 16 -49 16 -90 2z" transform="translate(0.000000,0.000000) scale(1,1)" stroke="none" fill="#949271"/>
<path d="M1055 699 c-5 -7 -10 -47 -12 -88 -3 -90 -16 -131 -50 -165 -30 -31 -89 -35 -146 -11 -20 8 -39 15 -42 15 -13 0 -3 -37 20 -76 49 -84 199 -183 355 -233 66 -22 285 -70 352 -79 61 -7 58 15 -21 130 -92 136 -166 222 -246 288 -36 29 -65 59 -65 64 0 7 50 12 141 13 135 2 178 11 163 34 -9 15 -114 65 -184 88 -82 27 -253 40 -265 20z" transform="translate(0.000000,0.000000) scale(1,1)" stroke="none" fill="#167F79"/>
</g>
<g id="pattern2" transform="matrix(0.618,0,0,0.618,3997,1174)">
<path d="M585 748 c-122 -44 -154 -181 -59 -253 10 -8 40 -15 66 -15 41 0 54 5 86 35 37 33 62 87 62 134 0 38 -30 82 -65 97 -39 16 -49 16 -90 2z" transform="translate(5295,0.000000) scale(-1,1)" stroke="none" fill="#949271"/>
<path d="M1055 699 c-5 -7 -10 -47 -12 -88 -3 -90 -16 -131 -50 -165 -30 -31 -89 -35 -146 -11 -20 8 -39 15 -42 15 -13 0 -3 -37 20 -76 49 -84 199 -183 355 -233 66 -22 285 -70 352 -79 61 -7 58 15 -21 130 -92 136 -166 222 -246 288 -36 29 -65 59 -65 64 0 7 50 12 141 13 135 2 178 11 163 34 -9 15 -114 65 -184 88 -82 27 -253 40 -265 20z" transform="translate(5295,0.000000) scale(-1,1)" stroke="none" fill="#167F79"/>
</g>
<g id="pattern3" transform="matrix(0.618,0,0,0.618,1499,5295)matrix(0.71,0.71,-0.71,0.71,0,0)">
<path d="M585 748 c-122 -44 -154 -181 -59 -253 10 -8 40 -15 66 -15 41 0 54 5 86 35 37 33 62 87 62 134 0 38 -30 82 -65 97 -39 16 -49 16 -90 2z" transform="translate(850,-850) scale(1,1)" stroke="none" fill="#949271"/>
<path d="M1055 699 c-5 -7 -10 -47 -12 -88 -3 -90 -16 -131 -50 -165 -30 -31 -89 -35 -146 -11 -20 8 -39 15 -42 15 -13 0 -3 -37 20 -76 49 -84 199 -183 355 -233 66 -22 285 -70 352 -79 61 -7 58 15 -21 130 -92 136 -166 222 -246 288 -36 29 -65 59 -65 64 0 7 50 12 141 13 135 2 178 11 163 34 -9 15 -114 65 -184 88 -82 27 -253 40 -265 20z" transform="translate(850,-850) scale(1,1)" stroke="none" fill="#167F79"/>
</g>
<g id="pattern4" transform="matrix(1.618,0,0,1.618,2222,2222)matrix(0.87,0.5,-0.5,0.87,0,0)">
<path d="M585 748 c-122 -44 -154 -181 -59 -253 10 -8 40 -15 66 -15 41 0 54 5 86 35 37 33 62 87 62 134 0 38 -30 82 -65 97 -39 16 -49 16 -90 2z" transform="translate(850,-850) scale(1,1)" stroke="none" fill="#949271"/>
<path d="M1055 699 c-5 -7 -10 -47 -12 -88 -3 -90 -16 -131 -50 -165 -30 -31 -89 -35 -146 -11 -20 8 -39 15 -42 15 -13 0 -3 -37 20 -76 49 -84 199 -183 355 -233 66 -22 285 -70 352 -79 61 -7 58 15 -21 130 -92 136 -166 222 -246 288 -36 29 -65 59 -65 64 0 7 50 12 141 13 135 2 178 11 163 34 -9 15 -114 65 -184 88 -82 27 -253 40 -265 20z" transform="translate(850,-850) scale(1,1)" stroke="none" fill="#167F79"/>
</g>
</g>
</g>

<g id="1" transform="translate(1947.0,0)scale(0.25,0.25)">

<g id="pattern">
<rect width="8437" height="8437" fill="#EFB664"/>
<g id="pattern1" transform="matrix(1,0,0,1,525,525)">
<path d="M585 748 c-122 -44 -154 -181 -59 -253 10 -8 40 -15 66 -15 41 0 54 5 86 35 37 33 62 87 62 134 0 38 -30 82 -65 97 -39 16 -49 16 -90 2z" transform="translate(0.000000,0.000000) scale(1,1)" stroke="none" fill="#949271"/>
<path d="M1055 699 c-5 -7 -10 -47 -12 -88 -3 -90 -16 -131 -50 -165 -30 -31 -89 -35 -146 -11 -20 8 -39 15 -42 15 -13 0 -3 -37 20 -76 49 -84 199 -183 355 -233 66 -22 285 -70 352 -79 61 -7 58 15 -21 130 -92 136 -166 222 -246 288 -36 29 -65 59 -65 64 0 7 50 12 141 13 135 2 178 11 163 34 -9 15 -114 65 -184 88 -82 27 -253 40 -265 20z" transform="translate(0.000000,0.000000) scale(1,1)" stroke="none" fill="#167F79"/>
</g>
<g id="pattern2" transform="matrix(0.618,0,0,0.618,3997,1174)">
<path d="M585 748 c-122 -44 -154 -181 -59 -253 10 -8 40 -15 66 -15 41 0 54 5 86 35 37 33 62 87 62 134 0 38 -30 82 -65 97 -39 16 -49 16 -90 2z" transform="translate(5295,0.000000) scale(-1,1)" stroke="none" fill="#949271"/>
<path d="M1055 699 c-5 -7 -10 -47 -12 -88 -3 -90 -16 -131 -50 -165 -30 -31 -89 -35 -146 -11 -20 8 -39 15 -42 15 -13 0 -3 -37 20 -76 49 -84 199 -183 355 -233 66 -22 285 -70 352 -79 61 -7 58 15 -21 130 -92 136 -166 222 -246 288 -36 29 -65 59 -65 64 0 7 50 12 141 13 135 2 178 11 163 34 -9 15 -114 65 -184 88 -82 27 -253 40 -265 20z" transform="translate(5295,0.000000) scale(-1,1)" stroke="none" fill="#167F79"/>
</g>
<g id="pattern3" transform="matrix(0.618,0,0,0.618,1499,5295)matrix(0.71,0.71,-0.71,0.71,0,0)">
<path d="M585 748 c-122 -44 -154 -181 -59 -253 10 -8 40 -15 66 -15 41 0 54 5 86 35 37 33 62 87 62 134 0 38 -30 82 -65 97 -39 16 -49 16 -90 2z" transform="translate(850,-850) scale(1,1)" stroke="none" fill="#949271"/>
<path d="M1055 699 c-5 -7 -10 -47 -12 -88 -3 -90 -16 -131 -50 -165 -30 -31 -89 -35 -146 -11 -20 8 -39 15 -42 15 -13 0 -3 -37 20 -76 49 -84 199 -183 355 -233 66 -22 285 -70 352 -79 61 -7 58 15 -21 130 -92 136 -166 222 -246 288 -36 29 -65 59 -65 64 0 7 50 12 141 13 135 2 178 11 163 34 -9 15 -114 65 -184 88 -82 27 -253 40 -265 20z" transform="translate(850,-850) scale(1,1)" stroke="none" fill="#167F79"/>
</g>
<g id="pattern4" transform="matrix(1.618,0,0,1.618,2222,2222)matrix(0.87,0.5,-0.5,0.87,0,0)">
<path d="M585 748 c-122 -44 -154 -181 -59 -253 10 -8 40 -15 66 -15 41 0 54 5 86 35 37 33 62 87 62 134 0 38 -30 82 -65 97 -39 16 -49 16 -90 2z" transform="translate(850,-850) scale(1,1)" stroke="none" fill="#949271"/>
<path d="M1055 699 c-5 -7 -10 -47 -12 -88 -3 -90 -16 -131 -50 -165 -30 -31 -89 -35 -146 -11 -20 8 -39 15 -42 15 -13 0 -3 -37 20 -76 49 -84 199 -183 355 -233 66 -22 285 -70 352 -79 61 -7 58 15 -21 130 -92 136 -166 222 -246 288 -36 29 -65 59 -65 64 0 7 50 12 141 13 135 2 178 11 163 34 -9 15 -114 65 -184 88 -82 27 -253 40 -265 20z" transform="translate(850,-850) scale(1,1)" stroke="none" fill="#167F79"/>
</g>
</g>
</g>

<g id="2" transform="translate(3894.0,0)scale(0.25,0.25)">

<g id="pattern">
<rect width="8437" height="8437" fill="#EFB664"/>
<g id="pattern1" transform="matrix(1,0,0,1,525,525)">
<path d="M585 748 c-122 -44 -154 -181 -59 -253 10 -8 40 -15 66 -15 41 0 54 5 86 35 37 33 62 87 62 134 0 38 -30 82 -65 97 -39 16 -49 16 -90 2z" transform="translate(0.000000,0.000000) scale(1,1)" stroke="none" fill="#949271"/>
<path d="M1055 699 c-5 -7 -10 -47 -12 -88 -3 -90 -16 -131 -50 -165 -30 -31 -89 -35 -146 -11 -20 8 -39 15 -42 15 -13 0 -3 -37 20 -76 49 -84 199 -183 355 -233 66 -22 285 -70 352 -79 61 -7 58 15 -21 130 -92 136 -166 222 -246 288 -36 29 -65 59 -65 64 0 7 50 12 141 13 135 2 178 11 163 34 -9 15 -114 65 -184 88 -82 27 -253 40 -265 20z" transform="translate(0.000000,0.000000) scale(1,1)" stroke="none" fill="#167F79"/>
</g>
<g id="pattern2" transform="matrix(0.618,0,0,0.618,3997,1174)">
<path d="M585 748 c-122 -44 -154 -181 -59 -253 10 -8 40 -15 66 -15 41 0 54 5 86 35 37 33 62 87 62 134 0 38 -30 82 -65 97 -39 16 -49 16 -90 2z" transform="translate(5295,0.000000) scale(-1,1)" stroke="none" fill="#949271"/>
<path d="M1055 699 c-5 -7 -10 -47 -12 -88 -3 -90 -16 -131 -50 -165 -30 -31 -89 -35 -146 -11 -20 8 -39 15 -42 15 -13 0 -3 -37 20 -76 49 -84 199 -183 355 -233 66 -22 285 -70 352 -79 61 -7 58 15 -21 130 -92 136 -166 222 -246 288 -36 29 -65 59 -65 64 0 7 50 12 141 13 135 2 178 11 163 34 -9 15 -114 65 -184 88 -82 27 -253 40 -265 20z" transform="translate(5295,0.000000) scale(-1,1)" stroke="none" fill="#167F79"/>
</g>
<g id="pattern3" transform="matrix(0.618,0,0,0.618,1499,5295)matrix(0.71,0.71,-0.71,0.71,0,0)">
<path d="M585 748 c-122 -44 -154 -181 -59 -253 10 -8 40 -15 66 -15 41 0 54 5 86 35 37 33 62 87 62 134 0 38 -30 82 -65 97 -39 16 -49 16 -90 2z" transform="translate(850,-850) scale(1,1)" stroke="none" fill="#949271"/>
<path d="M1055 699 c-5 -7 -10 -47 -12 -88 -3 -90 -16 -131 -50 -165 -30 -31 -89 -35 -146 -11 -20 8 -39 15 -42 15 -13 0 -3 -37 20 -76 49 -84 199 -183 355 -233 66 -22 285 -70 352 -79 61 -7 58 15 -21 130 -92 136 -166 222 -246 288 -36 29 -65 59 -65 64 0 7 50 12 141 13 135 2 178 11 163 34 -9 15 -114 65 -184 88 -82 27 -253 40 -265 20z" transform="translate(850,-850) scale(1,1)" stroke="none" fill="#167F79"/>
</g>
<g id="pattern4" transform="matrix(1.618,0,0,1.618,2222,2222)matrix(0.87,0.5,-0.5,0.87,0,0)">
<path d="M585 748 c-122 -44 -154 -181 -59 -253 10 -8 40 -15 66 -15 41 0 54 5 86 35 37 33 62 87 62 134 0 38 -30 82 -65 97 -39 16 -49 16 -90 2z" transform="translate(850,-850) scale(1,1)" stroke="none" fill="#949271"/>
<path d="M1055 699 c-5 -7 -10 -47 -12 -88 -3 -90 -16 -131 -50 -165 -30 -31 -89 -35 -146 -11 -20 8 -39 15 -42 15 -13 0 -3 -37 20 -76 49 -84 199 -183 355 -233 66 -22 285 -70 352 -79 61 -7 58 15 -21 130 -92 136 -166 222 -246 288 -36 29 -65 59 -65 64 0 7 50 12 141 13 135 2 178 11 163 34 -9 15 -114 65 -184 88 -82 27 -253 40 -265 20z" transform="translate(850,-850) scale(1,1)" stroke="none" fill="#167F79"/>
</g>
</g>
</g>

<g id="3" transform="translate(5841.0,0)scale(0.25,0.25)">

<g id="pattern">
<rect width="8437" height="8437" fill="#EFB664"/>
<g id="pattern1" transform="matrix(1,0,0,1,525,525)">
<path d="M585 748 c-122 -44 -154 -181 -59 -253 10 -8 40 -15 66 -15 41 0 54 5 86 35 37 33 62 87 62 134 0 38 -30 82 -65 97 -39 16 -49 16 -90 2z" transform="translate(0.000000,0.000000) scale(1,1)" stroke="none" fill="#949271"/>
<path d="M1055 699 c-5 -7 -10 -47 -12 -88 -3 -90 -16 -131 -50 -165 -30 -31 -89 -35 -146 -11 -20 8 -39 15 -42 15 -13 0 -3 -37 20 -76 49 -84 199 -183 355 -233 66 -22 285 -70 352 -79 61 -7 58 15 -21 130 -92 136 -166 222 -246 288 -36 29 -65 59 -65 64 0 7 50 12 141 13 135 2 178 11 163 34 -9 15 -114 65 -184 88 -82 27 -253 40 -265 20z" transform="translate(0.000000,0.000000) scale(1,1)" stroke="none" fill="#167F79"/>
</g>
<g id="pattern2" transform="matrix(0.618,0,0,0.618,3997,1174)">
<path d="M585 748 c-122 -44 -154 -181 -59 -253 10 -8 40 -15 66 -15 41 0 54 5 86 35 37 33 62 87 62 134 0 38 -30 82 -65 97 -39 16 -49 16 -90 2z" transform="translate(5295,0.000000) scale(-1,1)" stroke="none" fill="#949271"/>
<path d="M1055 699 c-5 -7 -10 -47 -12 -88 -3 -90 -16 -131 -50 -165 -30 -31 -89 -35 -146 -11 -20 8 -39 15 -42 15 -13 0 -3 -37 20 -76 49 -84 199 -183 355 -233 66 -22 285 -70 352 -79 61 -7 58 15 -21 130 -92 136 -166 222 -246 288 -36 29 -65 59 -65 64 0 7 50 12 141 13 135 2 178 11 163 34 -9 15 -114 65 -184 88 -82 27 -253 40 -265 20z" transform="translate(5295,0.000000) scale(-1,1)" stroke="none" fill="#167F79"/>
</g>
<g id="pattern3" transform="matrix(0.618,0,0,0.618,1499,5295)matrix(0.71,0.71,-0.71,0.71,0,0)">
<path d="M585 748 c-122 -44 -154 -181 -59 -253 10 -8 40 -15 66 -15 41 0 54 5 86 35 37 33 62 87 62 134 0 38 -30 82 -65 97 -39 16 -49 16 -90 2z" transform="translate(850,-850) scale(1,1)" stroke="none" fill="#949271"/>
<path d="M1055 699 c-5 -7 -10 -47 -12 -88 -3 -90 -16 -131 -50 -165 -30 -31 -89 -35 -146 -11 -20 8 -39 15 -42 15 -13 0 -3 -37 20 -76 49 -84 199 -183 355 -233 66 -22 285 -70 352 -79 61 -7 58 15 -21 130 -92 136 -166 222 -246 288 -36 29 -65 59 -65 64 0 7 50 12 141 13 135 2 178 11 163 34 -9 15 -114 65 -184 88 -82 27 -253 40 -265 20z" transform="translate(850,-850) scale(1,1)" stroke="none" fill="#167F79"/>
</g>
<g id="pattern4" transform="matrix(1.618,0,0,1.618,2222,2222)matrix(0.87,0.5,-0.5,0.87,0,0)">
<path d="M585 748 c-122 -44 -154 -181 -59 -253 10 -8 40 -15 66 -15 41 0 54 5 86 35 37 33 62 87 62 134 0 38 -30 82 -65 97 -39 16 -49 16 -90 2z" transform="translate(850,-850) scale(1,1)" stroke="none" fill="#949271"/>
<path d="M1055 699 c-5 -7 -10 -47 -12 -88 -3 -90 -16 -131 -50 -165 -30 -31 -89 -35 -146 -11 -20 8 -39 15 -42 15 -13 0 -3 -37 20 -76 49 -84 199 -183 355 -233 66 -22 285 -70 352 -79 61 -7 58 15 -21 130 -92 136 -166 222 -246 288 -36 29 -65 59 -65 64 0 7 50 12 141 13 135 2 178 11 163 34 -9 15 -114 65 -184 88 -82 27 -253 40 -265 20z" transform="translate(850,-850) scale(1,1)" stroke="none" fill="#167F79"/>
</g>
</g>
</g>

<g id="4" transform="translate(7788.0,0)scale(0.25,0.25)">

<g id="pattern">
<rect width="8437" height="8437" fill="#EFB664"/>
<g id="pattern1" transform="matrix(1,0,0,1,525,525)">
<path d="M585 748 c-122 -44 -154 -181 -59 -253 10 -8 40 -15 66 -15 41 0 54 5 86 35 37 33 62 87 62 134 0 38 -30 82 -65 97 -39 16 -49 16 -90 2z" transform="translate(0.000000,0.000000) scale(1,1)" stroke="none" fill="#949271"/>
<path d="M1055 699 c-5 -7 -10 -47 -12 -88 -3 -90 -16 -131 -50 -165 -30 -31 -89 -35 -146 -11 -20 8 -39 15 -42 15 -13 0 -3 -37 20 -76 49 -84 199 -183 355 -233 66 -22 285 -70 352 -79 61 -7 58 15 -21 130 -92 136 -166 222 -246 288 -36 29 -65 59 -65 64 0 7 50 12 141 13 135 2 178 11 163 34 -9 15 -114 65 -184 88 -82 27 -253 40 -265 20z" transform="translate(0.000000,0.000000) scale(1,1)" stroke="none" fill="#167F79"/>
</g>
<g id="pattern2" transform="matrix(0.618,0,0,0.618,3997,1174)">
<path d="M585 748 c-122 -44 -154 -181 -59 -253 10 -8 40 -15 66 -15 41 0 54 5 86 35 37 33 62 87 62 134 0 38 -30 82 -65 97 -39 16 -49 16 -90 2z" transform="translate(5295,0.000000) scale(-1,1)" stroke="none" fill="#949271"/>
<path d="M1055 699 c-5 -7 -10 -47 -12 -88 -3 -90 -16 -131 -50 -165 -30 -31 -89 -35 -146 -11 -20 8 -39 15 -42 15 -13 0 -3 -37 20 -76 49 -84 199 -183 355 -233 66 -22 285 -70 352 -79 61 -7 58 15 -21 130 -92 136 -166 222 -246 288 -36 29 -65 59 -65 64 0 7 50 12 141 13 135 2 178 11 163 34 -9 15 -114 65 -184 88 -82 27 -253 40 -265 20z" transform="translate(5295,0.000000) scale(-1,1)" stroke="none" fill="#167F79"/>
</g>
<g id="pattern3" transform="matrix(0.618,0,0,0.618,1499,5295)matrix(0.71,0.71,-0.71,0.71,0,0)">
<path d="M585 748 c-122 -44 -154 -181 -59 -253 10 -8 40 -15 66 -15 41 0 54 5 86 35 37 33 62 87 62 134 0 38 -30 82 -65 97 -39 16 -49 16 -90 2z" transform="translate(850,-850) scale(1,1)" stroke="none" fill="#949271"/>
<path d="M1055 699 c-5 -7 -10 -47 -12 -88 -3 -90 -16 -131 -50 -165 -30 -31 -89 -35 -146 -11 -20 8 -39 15 -42 15 -13 0 -3 -37 20 -76 49 -84 199 -183 355 -233 66 -22 285 -70 352 -79 61 -7 58 15 -21 130 -92 136 -166 222 -246 288 -36 29 -65 59 -65 64 0 7 50 12 141 13 135 2 178 11 163 34 -9 15 -114 65 -184 88 -82 27 -253 40 -265 20z" transform="translate(850,-850) scale(1,1)" stroke="none" fill="#167F79"/>
</g>
<g id="pattern4" transform="matrix(1.618,0,0,1.618,2222,2222)matrix(0.87,0.5,-0.5,0.87,0,0)">
<path d="M585 748 c-122 -44 -154 -181 -59 -253 10 -8 40 -15 66 -15 41 0 54 5 86 35 37 33 62 87 62 134 0 38 -30 82 -65 97 -39 16 -49 16 -90 2z" transform="translate(850,-850) scale(1,1)" stroke="none" fill="#949271"/>
<path d="M1055 699 c-5 -7 -10 -47 -12 -88 -3 -90 -16 -131 -50 -165 -30 -31 -89 -35 -146 -11 -20 8 -39 15 -42 15 -13 0 -3 -37 20 -76 49 -84 199 -183 355 -233 66 -22 285 -70 352 -79 61 -7 58 15 -21 130 -92 136 -166 222 -246 288 -36 29 -65 59 -65 64 0 7 50 12 141 13 135 2 178 11 163 34 -9 15 -114 65 -184 88 -82 27 -253 40 -265 20z" transform="translate(850,-850) scale(1,1)" stroke="none" fill="#167F79"/>
</g>
</g>
</g>

</g>
</svg>