<?xml version="1.0" standalone="no"?>
<!DOCTYPE svg PUBLIC "-//W3C//DTD SVG 20010904//EN"
 "http://www.w3.org/TR/2001/REC-SVG-20010904/DTD/svg10.dtd">
<svg version="1.0" xmlns="http://www.w3.org/2000/svg" width="444pt" height="308pt" viewBox="0 0 444 308" preserveAspectRatio = "xMidYMid meet" >
<metadata>
Created by ZoeQu, written in 2022
</metadata>
<rect width="444" height="308" fill="#D7DEEA"/>
<g id="col0" transform="translate(0, 10)">
<g id="0" transform="translate(0,0.0)scale(0.8,0.8)">

<path d="M241 429 c-59 -38 -65 -45 -50 -54 7 -5 10 -4 6 3 -4 5 13 22 37 36 25 15 48 31 51 36 8 14 6 13 -44 -21z" transform="translate(0,77) scale(0.1,-0.1)" stroke="none" fill="#567C8C"/>

<path d="M466 273 c-4 -4 -23 -6 -42 -4 -42 3 -44 -9 -4 -32 35 -21 46 -17 52 18 6 27 5 29 -6 18z" transform="translate(0,77) scale(0.1,-0.1)" stroke="none" fill="#1D4C5A"/>

<path d="M525 430 c-3 -5 4 -14 15 -20 34 -18 25 -56 -20 -86 -22 -15 -40 -28 -40 -30 0 -9 59 20 64 32 3 8 12 14 20 14 10 0 13 6 9 16 -3 9 -2 19 3 23 5 3 -3 18 -18 33 -15 14 -30 23 -33 18z" transform="translate(0,77) scale(0.1,-0.1)" stroke="none" fill="#0A1E1F"/>

<path d="M474 196 c-11 -11 -2 -19 56 -48 14 -6 34 -19 44 -27 16 -14 18 -14 11 -1 -17 28 -58 70 -69 70 -6 0 -3 -5 7 -11 9 -5 17 -14 17 -20 0 -5 -9 -4 -20 3 -11 7 -20 18 -20 25 0 17 -13 22 -26 9z" transform="translate(0,77) scale(0.1,-0.1)" stroke="none" fill="#96B4C7"/>

<path d="M598 383 c-33 -5 -38 -33 -6 -33 11 0 36 -11 55 -26 38 -28 42 -24 13 13 -11 14 -20 32 -20 39 0 8 -3 13 -7 13 -5 -1 -20 -4 -35 -6z m32 -17 c0 -9 -8 -12 -27 -8 l-28 6 25 7 c14 4 26 7 28 8 1 1 2 -5 2 -13z" transform="translate(0,77) scale(0.1,-0.1)" stroke="none" fill="#567C8C"/>

<path d="M700 543 c24 -12 2 -80 -39 -117 -12 -11 -21 -27 -21 -37 0 -18 46 -79 60 -79 5 0 -5 13 -21 29 -36 36 -36 45 -2 77 15 14 28 35 30 47 9 52 7 80 -5 83 -7 1 -8 0 -2 -3z" transform="translate(0,77) scale(0.1,-0.1)" stroke="none" fill="#96B4C7"/>

<path d="M310 412 c-29 -14 -36 -23 -38 -52 -3 -33 1 -37 58 -73 61 -38 85 -36 30 3 -16 12 -30 19 -30 16 0 -3 -11 4 -25 16 -37 32 -33 66 10 84 19 8 35 16 35 19 0 7 -2 7 -40 -13z" transform="translate(0,77) scale(0.1,-0.1)" stroke="none" fill="#567C8C"/>

<path d="M952 408 c10 -28 9 -33 -15 -54 -15 -13 -34 -27 -43 -32 -9 -5 -15 -14 -13 -21 5 -13 130 67 137 87 2 7 -9 18 -27 25 -17 6 -31 15 -31 19 0 4 -4 8 -9 8 -6 0 -5 -13 1 -32z" transform="translate(0,77) scale(0.1,-0.1)" stroke="none" fill="#1D4C5A"/>

<path d="M680 305 c0 -3 9 -15 20 -27 39 -42 25 -71 -65 -133 -77 -53 -4 -15 108 56 95 61 167 112 118 84 -32 -19 -93 -23 -122 -8 -16 8 -31 18 -34 24 -7 10 -25 13 -25 4z" transform="translate(0,77) scale(0.1,-0.1)" stroke="none" fill="#1D4C5A"/>

<path d="M560 739 c-36 -32 -25 -30 21 4 l26 19 77 -49 c42 -26 84 -52 94 -58 26 -15 178 -112 244 -157 62 -42 70 -45 62 -24 -3 8 -38 34 -77 57 -40 23 -108 65 -152 94 -110 71 -124 80 -173 115 -54 38 -78 37 -122 -1z" transform="translate(0,77) scale(0.1,-0.1)" stroke="none" fill="#1D4C5A"/>

<path d="M575 633 c-16 -9 -51 -31 -77 -49 -26 -19 -52 -34 -56 -34 -5 0 -27 -16 -49 -35 -23 -19 -46 -35 -52 -35 -8 0 -130 -77 -149 -95 -1 -1 15 -14 37 -28 l40 -26 3 32 c3 27 11 36 53 59 100 54 104 54 183 21 9 -4 10 1 2 22 -20 51 -13 72 36 104 53 36 81 39 117 11 14 -11 32 -20 41 -20 17 0 31 -41 22 -65 -5 -13 3 -14 49 -9 45 6 60 3 90 -15 40 -23 55 -26 55 -11 0 6 -5 10 -10 10 -6 0 -41 20 -78 44 -99 65 -216 136 -222 136 -3 -1 -18 -8 -35 -17z" transform="translate(0,77) scale(0.1,-0.1)" stroke="none" fill="#1D4C5A"/>

<path d="M393 641 c-29 -16 -70 -43 -92 -60 -21 -17 -64 -46 -94 -64 -69 -40 -195 -125 -202 -137 -3 -4 19 -23 48 -40 28 -18 108 -70 177 -115 69 -46 157 -101 195 -123 39 -23 89 -55 112 -71 59 -43 99 -42 166 7 29 21 90 60 137 86 121 67 264 168 268 189 3 14 -8 10 -50 -18 -29 -19 -69 -44 -88 -55 -19 -11 -80 -49 -135 -84 -55 -36 -126 -81 -158 -101 -56 -34 -97 -45 -97 -26 0 5 -8 11 -17 15 -22 7 -50 25 -77 49 -11 9 -24 17 -28 17 -5 0 -61 35 -126 77 -64 43 -126 83 -137 89 -77 41 -156 98 -153 111 2 8 33 34 70 57 37 22 123 77 191 121 69 44 133 85 143 92 38 24 -3 12 -53 -16z" transform="translate(0,77) scale(0.1,-0.1)" stroke="none" fill="#1D4C5A"/>

</g>

<g id="1" transform="translate(0,77.0)scale(0.8,0.8)">

<path d="M241 429 c-59 -38 -65 -45 -50 -54 7 -5 10 -4 6 3 -4 5 13 22 37 36 25 15 48 31 51 36 8 14 6 13 -44 -21z" transform="translate(0,77) scale(0.1,-0.1)" stroke="none" fill="#567C8C"/>

<path d="M466 273 c-4 -4 -23 -6 -42 -4 -42 3 -44 -9 -4 -32 35 -21 46 -17 52 18 6 27 5 29 -6 18z" transform="translate(0,77) scale(0.1,-0.1)" stroke="none" fill="#1D4C5A"/>

<path d="M525 430 c-3 -5 4 -14 15 -20 34 -18 25 -56 -20 -86 -22 -15 -40 -28 -40 -30 0 -9 59 20 64 32 3 8 12 14 20 14 10 0 13 6 9 16 -3 9 -2 19 3 23 5 3 -3 18 -18 33 -15 14 -30 23 -33 18z" transform="translate(0,77) scale(0.1,-0.1)" stroke="none" fill="#0A1E1F"/>

<path d="M474 196 c-11 -11 -2 -19 56 -48 14 -6 34 -19 44 -27 16 -14 18 -14 11 -1 -17 28 -58 70 -69 70 -6 0 -3 -5 7 -11 9 -5 17 -14 17 -20 0 -5 -9 -4 -20 3 -11 7 -20 18 -20 25 0 17 -13 22 -26 9z" transform="translate(0,77) scale(0.1,-0.1)" stroke="none" fill="#96B4C7"/>

<path d="M598 383 c-33 -5 -38 -33 -6 -33 11 0 36 -11 55 -26 38 -28 42 -24 13 13 -11 14 -20 32 -20 39 0 8 -3 13 -7 13 -5 -1 -20 -4 -35 -6z m32 -17 c0 -9 -8 -12 -27 -8 l-28 6 25 7 c14 4 26 7 28 8 1 1 2 -5 2 -13z" transform="translate(0,77) scale(0.1,-0.1)" stroke="none" fill="#567C8C"/>

<path d="M700 543 c24 -12 2 -80 -39 -117 -12 -11 -21 -27 -21 -37 0 -18 46 -79 60 -79 5 0 -5 13 -21 29 -36 36 -36 45 -2 77 15 14 28 35 30 47 9 52 7 80 -5 83 -7 1 -8 0 -2 -3z" transform="translate(0,77) scale(0.1,-0.1)" stroke="none" fill="#96B4C7"/>

<path d="M310 412 c-29 -14 -36 -23 -38 -52 -3 -33 1 -37 58 -73 61 -38 85 -36 30 3 -16 12 -30 19 -30 16 0 -3 -11 4 -25 16 -37 32 -33 66 10 84 19 8 35 16 35 19 0 7 -2 7 -40 -13z" transform="translate(0,77) scale(0.1,-0.1)" stroke="none" fill="#567C8C"/>

<path d="M952 408 c10 -28 9 -33 -15 -54 -15 -13 -34 -27 -43 -32 -9 -5 -15 -14 -13 -21 5 -13 130 67 137 87 2 7 -9 18 -27 25 -17 6 -31 15 -31 19 0 4 -4 8 -9 8 -6 0 -5 -13 1 -32z" transform="translate(0,77) scale(0.1,-0.1)" stroke="none" fill="#1D4C5A"/>

<path d="M680 305 c0 -3 9 -15 20 -27 39 -42 25 -71 -65 -133 -77 -53 -4 -15 108 56 95 61 167 112 118 84 -32 -19 -93 -23 -122 -8 -16 8 -31 18 -34 24 -7 10 -25 13 -25 4z" transform="translate(0,77) scale(0.1,-0.1)" stroke="none" fill="#1D4C5A"/>

<path d="M560 739 c-36 -32 -25 -30 21 4 l26 19 77 -49 c42 -26 84 -52 94 -58 26 -15 178 -112 244 -157 62 -42 70 -45 62 -24 -3 8 -38 34 -77 57 -40 23 -108 65 -152 94 -110 71 -124 80 -173 115 -54 38 -78 37 -122 -1z" transform="translate(0,77) scale(0.1,-0.1)" stroke="none" fill="#1D4C5A"/>

<path d="M575 633 c-16 -9 -51 -31 -77 -49 -26 -19 -52 -34 -56 -34 -5 0 -27 -16 -49 -35 -23 -19 -46 -35 -52 -35 -8 0 -130 -77 -149 -95 -1 -1 15 -14 37 -28 l40 -26 3 32 c3 27 11 36 53 59 100 54 104 54 183 21 9 -4 10 1 2 22 -20 51 -13 72 36 104 53 36 81 39 117 11 14 -11 32 -20 41 -20 17 0 31 -41 22 -65 -5 -13 3 -14 49 -9 45 6 60 3 90 -15 40 -23 55 -26 55 -11 0 6 -5 10 -10 10 -6 0 -41 20 -78 44 -99 65 -216 136 -222 136 -3 -1 -18 -8 -35 -17z" transform="translate(0,77) scale(0.1,-0.1)" stroke="none" fill="#1D4C5A"/>

<path d="M393 641 c-29 -16 -70 -43 -92 -60 -21 -17 -64 -46 -94 -64 -69 -40 -195 -125 -202 -137 -3 -4 19 -23 48 -40 28 -18 108 -70 177 -115 69 -46 157 -101 195 -123 39 -23 89 -55 112 -71 59 -43 99 -42 166 7 29 21 90 60 137 86 121 67 264 168 268 189 3 14 -8 10 -50 -18 -29 -19 -69 -44 -88 -55 -19 -11 -80 -49 -135 -84 -55 -36 -126 -81 -158 -101 -56 -34 -97 -45 -97 -26 0 5 -8 11 -17 15 -22 7 -50 25 -77 49 -11 9 -24 17 -28 17 -5 0 -61 35 -126 77 -64 43 -126 83 -137 89 -77 41 -156 98 -153 111 2 8 33 34 70 57 37 22 123 77 191 121 69 44 133 85 143 92 38 24 -3 12 -53 -16z" transform="translate(0,77) scale(0.1,-0.1)" stroke="none" fill="#1D4C5A"/>

</g>

<g id="2" transform="translate(0,154.0)scale(0.8,0.8)">

<path d="M241 429 c-59 -38 -65 -45 -50 -54 7 -5 10 -4 6 3 -4 5 13 22 37 36 25 15 48 31 51 36 8 14 6 13 -44 -21z" transform="translate(0,77) scale(0.1,-0.1)" stroke="none" fill="#567C8C"/>

<path d="M466 273 c-4 -4 -23 -6 -42 -4 -42 3 -44 -9 -4 -32 35 -21 46 -17 52 18 6 27 5 29 -6 18z" transform="translate(0,77) scale(0.1,-0.1)" stroke="none" fill="#1D4C5A"/>

<path d="M525 430 c-3 -5 4 -14 15 -20 34 -18 25 -56 -20 -86 -22 -15 -40 -28 -40 -30 0 -9 59 20 64 32 3 8 12 14 20 14 10 0 13 6 9 16 -3 9 -2 19 3 23 5 3 -3 18 -18 33 -15 14 -30 23 -33 18z" transform="translate(0,77) scale(0.1,-0.1)" stroke="none" fill="#0A1E1F"/>

<path d="M474 196 c-11 -11 -2 -19 56 -48 14 -6 34 -19 44 -27 16 -14 18 -14 11 -1 -17 28 -58 70 -69 70 -6 0 -3 -5 7 -11 9 -5 17 -14 17 -20 0 -5 -9 -4 -20 3 -11 7 -20 18 -20 25 0 17 -13 22 -26 9z" transform="translate(0,77) scale(0.1,-0.1)" stroke="none" fill="#96B4C7"/>

<path d="M598 383 c-33 -5 -38 -33 -6 -33 11 0 36 -11 55 -26 38 -28 42 -24 13 13 -11 14 -20 32 -20 39 0 8 -3 13 -7 13 -5 -1 -20 -4 -35 -6z m32 -17 c0 -9 -8 -12 -27 -8 l-28 6 25 7 c14 4 26 7 28 8 1 1 2 -5 2 -13z" transform="translate(0,77) scale(0.1,-0.1)" stroke="none" fill="#567C8C"/>

<path d="M700 543 c24 -12 2 -80 -39 -117 -12 -11 -21 -27 -21 -37 0 -18 46 -79 60 -79 5 0 -5 13 -21 29 -36 36 -36 45 -2 77 15 14 28 35 30 47 9 52 7 80 -5 83 -7 1 -8 0 -2 -3z" transform="translate(0,77) scale(0.1,-0.1)" stroke="none" fill="#96B4C7"/>

<path d="M310 412 c-29 -14 -36 -23 -38 -52 -3 -33 1 -37 58 -73 61 -38 85 -36 30 3 -16 12 -30 19 -30 16 0 -3 -11 4 -25 16 -37 32 -33 66 10 84 19 8 35 16 35 19 0 7 -2 7 -40 -13z" transform="translate(0,77) scale(0.1,-0.1)" stroke="none" fill="#567C8C"/>

<path d="M952 408 c10 -28 9 -33 -15 -54 -15 -13 -34 -27 -43 -32 -9 -5 -15 -14 -13 -21 5 -13 130 67 137 87 2 7 -9 18 -27 25 -17 6 -31 15 -31 19 0 4 -4 8 -9 8 -6 0 -5 -13 1 -32z" transform="translate(0,77) scale(0.1,-0.1)" stroke="none" fill="#1D4C5A"/>

<path d="M680 305 c0 -3 9 -15 20 -27 39 -42 25 -71 -65 -133 -77 -53 -4 -15 108 56 95 61 167 112 118 84 -32 -19 -93 -23 -122 -8 -16 8 -31 18 -34 24 -7 10 -25 13 -25 4z" transform="translate(0,77) scale(0.1,-0.1)" stroke="none" fill="#1D4C5A"/>

<path d="M560 739 c-36 -32 -25 -30 21 4 l26 19 77 -49 c42 -26 84 -52 94 -58 26 -15 178 -112 244 -157 62 -42 70 -45 62 -24 -3 8 -38 34 -77 57 -40 23 -108 65 -152 94 -110 71 -124 80 -173 115 -54 38 -78 37 -122 -1z" transform="translate(0,77) scale(0.1,-0.1)" stroke="none" fill="#1D4C5A"/>

<path d="M575 633 c-16 -9 -51 -31 -77 -49 -26 -19 -52 -34 -56 -34 -5 0 -27 -16 -49 -35 -23 -19 -46 -35 -52 -35 -8 0 -130 -77 -149 -95 -1 -1 15 -14 37 -28 l40 -26 3 32 c3 27 11 36 53 59 100 54 104 54 183 21 9 -4 10 1 2 22 -20 51 -13 72 36 104 53 36 81 39 117 11 14 -11 32 -20 41 -20 17 0 31 -41 22 -65 -5 -13 3 -14 49 -9 45 6 60 3 90 -15 40 -23 55 -26 55 -11 0 6 -5 10 -10 10 -6 0 -41 20 -78 44 -99 65 -216 136 -222 136 -3 -1 -18 -8 -35 -17z" transform="translate(0,77) scale(0.1,-0.1)" stroke="none" fill="#1D4C5A"/>

<path d="M393 641 c-29 -16 -70 -43 -92 -60 -21 -17 -64 -46 -94 -64 -69 -40 -195 -125 -202 -137 -3 -4 19 -23 48 -40 28 -18 108 -70 177 -115 69 -46 157 -101 195 -123 39 -23 89 -55 112 -71 59 -43 99 -42 166 7 29 21 90 60 137 86 121 67 264 168 268 189 3 14 -8 10 -50 -18 -29 -19 -69 -44 -88 -55 -19 -11 -80 -49 -135 -84 -55 -36 -126 -81 -158 -101 -56 -34 -97 -45 -97 -26 0 5 -8 11 -17 15 -22 7 -50 25 -77 49 -11 9 -24 17 -28 17 -5 0 -61 35 -126 77 -64 43 -126 83 -137 89 -77 41 -156 98 -153 111 2 8 33 34 70 57 37 22 123 77 191 121 69 44 133 85 143 92 38 24 -3 12 -53 -16z" transform="translate(0,77) scale(0.1,-0.1)" stroke="none" fill="#1D4C5A"/>

</g>

<g id="3" transform="translate(0,231.0)scale(0.8,0.8)">

<path d="M241 429 c-59 -38 -65 -45 -50 -54 7 -5 10 -4 6 3 -4 5 13 22 37 36 25 15 48 31 51 36 8 14 6 13 -44 -21z" transform="translate(0,77) scale(0.1,-0.1)" stroke="none" fill="#567C8C"/>

<path d="M466 273 c-4 -4 -23 -6 -42 -4 -42 3 -44 -9 -4 -32 35 -21 46 -17 52 18 6 27 5 29 -6 18z" transform="translate(0,77) scale(0.1,-0.1)" stroke="none" fill="#1D4C5A"/>

<path d="M525 430 c-3 -5 4 -14 15 -20 34 -18 25 -56 -20 -86 -22 -15 -40 -28 -40 -30 0 -9 59 20 64 32 3 8 12 14 20 14 10 0 13 6 9 16 -3 9 -2 19 3 23 5 3 -3 18 -18 33 -15 14 -30 23 -33 18z" transform="translate(0,77) scale(0.1,-0.1)" stroke="none" fill="#0A1E1F"/>

<path d="M474 196 c-11 -11 -2 -19 56 -48 14 -6 34 -19 44 -27 16 -14 18 -14 11 -1 -17 28 -58 70 -69 70 -6 0 -3 -5 7 -11 9 -5 17 -14 17 -20 0 -5 -9 -4 -20 3 -11 7 -20 18 -20 25 0 17 -13 22 -26 9z" transform="translate(0,77) scale(0.1,-0.1)" stroke="none" fill="#96B4C7"/>

<path d="M598 383 c-33 -5 -38 -33 -6 -33 11 0 36 -11 55 -26 38 -28 42 -24 13 13 -11 14 -20 32 -20 39 0 8 -3 13 -7 13 -5 -1 -20 -4 -35 -6z m32 -17 c0 -9 -8 -12 -27 -8 l-28 6 25 7 c14 4 26 7 28 8 1 1 2 -5 2 -13z" transform="translate(0,77) scale(0.1,-0.1)" stroke="none" fill="#567C8C"/>

<path d="M700 543 c24 -12 2 -80 -39 -117 -12 -11 -21 -27 -21 -37 0 -18 46 -79 60 -79 5 0 -5 13 -21 29 -36 36 -36 45 -2 77 15 14 28 35 30 47 9 52 7 80 -5 83 -7 1 -8 0 -2 -3z" transform="translate(0,77) scale(0.1,-0.1)" stroke="none" fill="#96B4C7"/>

<path d="M310 412 c-29 -14 -36 -23 -38 -52 -3 -33 1 -37 58 -73 61 -38 85 -36 30 3 -16 12 -30 19 -30 16 0 -3 -11 4 -25 16 -37 32 -33 66 10 84 19 8 35 16 35 19 0 7 -2 7 -40 -13z" transform="translate(0,77) scale(0.1,-0.1)" stroke="none" fill="#567C8C"/>

<path d="M952 408 c10 -28 9 -33 -15 -54 -15 -13 -34 -27 -43 -32 -9 -5 -15 -14 -13 -21 5 -13 130 67 137 87 2 7 -9 18 -27 25 -17 6 -31 15 -31 19 0 4 -4 8 -9 8 -6 0 -5 -13 1 -32z" transform="translate(0,77) scale(0.1,-0.1)" stroke="none" fill="#1D4C5A"/>

<path d="M680 305 c0 -3 9 -15 20 -27 39 -42 25 -71 -65 -133 -77 -53 -4 -15 108 56 95 61 167 112 118 84 -32 -19 -93 -23 -122 -8 -16 8 -31 18 -34 24 -7 10 -25 13 -25 4z" transform="translate(0,77) scale(0.1,-0.1)" stroke="none" fill="#1D4C5A"/>

<path d="M560 739 c-36 -32 -25 -30 21 4 l26 19 77 -49 c42 -26 84 -52 94 -58 26 -15 178 -112 244 -157 62 -42 70 -45 62 -24 -3 8 -38 34 -77 57 -40 23 -108 65 -152 94 -110 71 -124 80 -173 115 -54 38 -78 37 -122 -1z" transform="translate(0,77) scale(0.1,-0.1)" stroke="none" fill="#1D4C5A"/>

<path d="M575 633 c-16 -9 -51 -31 -77 -49 -26 -19 -52 -34 -56 -34 -5 0 -27 -16 -49 -35 -23 -19 -46 -35 -52 -35 -8 0 -130 -77 -149 -95 -1 -1 15 -14 37 -28 l40 -26 3 32 c3 27 11 36 53 59 100 54 104 54 183 21 9 -4 10 1 2 22 -20 51 -13 72 36 104 53 36 81 39 117 11 14 -11 32 -20 41 -20 17 0 31 -41 22 -65 -5 -13 3 -14 49 -9 45 6 60 3 90 -15 40 -23 55 -26 55 -11 0 6 -5 10 -10 10 -6 0 -41 20 -78 44 -99 65 -216 136 -222 136 -3 -1 -18 -8 -35 -17z" transform="translate(0,77) scale(0.1,-0.1)" stroke="none" fill="#1D4C5A"/>

<path d="M393 641 c-29 -16 -70 -43 -92 -60 -21 -17 -64 -46 -94 -64 -69 -40 -195 -125 -202 -137 -3 -4 19 -23 48 -40 28 -18 108 -70 177 -115 69 -46 157 -101 195 -123 39 -23 89 -55 112 -71 59 -43 99 -42 166 7 29 21 90 60 137 86 121 67 264 168 268 189 3 14 -8 10 -50 -18 -29 -19 -69 -44 -88 -55 -19 -11 -80 -49 -135 -84 -55 -36 -126 -81 -158 -101 -56 -34 -97 -45 -97 -26 0 5 -8 11 -17 15 -22 7 -50 25 -77 49 -11 9 -24 17 -28 17 -5 0 -61 35 -126 77 -64 43 -126 83 -137 89 -77 41 -156 98 -153 111 2 8 33 34 70 57 37 22 123 77 191 121 69 44 133 85 143 92 38 24 -3 12 -53 -16z" transform="translate(0,77) scale(0.1,-0.1)" stroke="none" fill="#1D4C5A"/>

</g>

<g id="4" transform="translate(0,308.0)scale(0.8,0.8)">

<path d="M241 429 c-59 -38 -65 -45 -50 -54 7 -5 10 -4 6 3 -4 5 13 22 37 36 25 15 48 31 51 36 8 14 6 13 -44 -21z" transform="translate(0,77) scale(0.1,-0.1)" stroke="none" fill="#567C8C"/>

<path d="M466 273 c-4 -4 -23 -6 -42 -4 -42 3 -44 -9 -4 -32 35 -21 46 -17 52 18 6 27 5 29 -6 18z" transform="translate(0,77) scale(0.1,-0.1)" stroke="none" fill="#1D4C5A"/>

<path d="M525 430 c-3 -5 4 -14 15 -20 34 -18 25 -56 -20 -86 -22 -15 -40 -28 -40 -30 0 -9 59 20 64 32 3 8 12 14 20 14 10 0 13 6 9 16 -3 9 -2 19 3 23 5 3 -3 18 -18 33 -15 14 -30 23 -33 18z" transform="translate(0,77) scale(0.1,-0.1)" stroke="none" fill="#0A1E1F"/>

<path d="M474 196 c-11 -11 -2 -19 56 -48 14 -6 34 -19 44 -27 16 -14 18 -14 11 -1 -17 28 -58 70 -69 70 -6 0 -3 -5 7 -11 9 -5 17 -14 17 -20 0 -5 -9 -4 -20 3 -11 7 -20 18 -20 25 0 17 -13 22 -26 9z" transform="translate(0,77) scale(0.1,-0.1)" stroke="none" fill="#96B4C7"/>

<path d="M598 383 c-33 -5 -38 -33 -6 -33 11 0 36 -11 55 -26 38 -28 42 -24 13 13 -11 14 -20 32 -20 39 0 8 -3 13 -7 13 -5 -1 -20 -4 -35 -6z m32 -17 c0 -9 -8 -12 -27 -8 l-28 6 25 7 c14 4 26 7 28 8 1 1 2 -5 2 -13z" transform="translate(0,77) scale(0.1,-0.1)" stroke="none" fill="#567C8C"/>

<path d="M700 543 c24 -12 2 -80 -39 -117 -12 -11 -21 -27 -21 -37 0 -18 46 -79 60 -79 5 0 -5 13 -21 29 -36 36 -36 45 -2 77 15 14 28 35 30 47 9 52 7 80 -5 83 -7 1 -8 0 -2 -3z" transform="translate(0,77) scale(0.1,-0.1)" stroke="none" fill="#96B4C7"/>

<path d="M310 412 c-29 -14 -36 -23 -38 -52 -3 -33 1 -37 58 -73 61 -38 85 -36 30 3 -16 12 -30 19 -30 16 0 -3 -11 4 -25 16 -37 32 -33 66 10 84 19 8 35 16 35 19 0 7 -2 7 -40 -13z" transform="translate(0,77) scale(0.1,-0.1)" stroke="none" fill="#567C8C"/>

<path d="M952 408 c10 -28 9 -33 -15 -54 -15 -13 -34 -27 -43 -32 -9 -5 -15 -14 -13 -21 5 -13 130 67 137 87 2 7 -9 18 -27 25 -17 6 -31 15 -31 19 0 4 -4 8 -9 8 -6 0 -5 -13 1 -32z" transform="translate(0,77) scale(0.1,-0.1)" stroke="none" fill="#1D4C5A"/>

<path d="M680 305 c0 -3 9 -15 20 -27 39 -42 25 -71 -65 -133 -77 -53 -4 -15 108 56 95 61 167 112 118 84 -32 -19 -93 -23 -122 -8 -16 8 -31 18 -34 24 -7 10 -25 13 -25 4z" transform="translate(0,77) scale(0.1,-0.1)" stroke="none" fill="#1D4C5A"/>

<path d="M560 739 c-36 -32 -25 -30 21 4 l26 19 77 -49 c42 -26 84 -52 94 -58 26 -15 178 -112 244 -157 62 -42 70 -45 62 -24 -3 8 -38 34 -77 57 -40 23 -108 65 -152 94 -110 71 -124 80 -173 115 -54 38 -78 37 -122 -1z" transform="translate(0,77) scale(0.1,-0.1)" stroke="none" fill="#1D4C5A"/>

<path d="M575 633 c-16 -9 -51 -31 -77 -49 -26 -19 -52 -34 -56 -34 -5 0 -27 -16 -49 -35 -23 -19 -46 -35 -52 -35 -8 0 -130 -77 -149 -95 -1 -1 15 -14 37 -28 l40 -26 3 32 c3 27 11 36 53 59 100 54 104 54 183 21 9 -4 10 1 2 22 -20 51 -13 72 36 104 53 36 81 39 117 11 14 -11 32 -20 41 -20 17 0 31 -41 22 -65 -5 -13 3 -14 49 -9 45 6 60 3 90 -15 40 -23 55 -26 55 -11 0 6 -5 10 -10 10 -6 0 -41 20 -78 44 -99 65 -216 136 -222 136 -3 -1 -18 -8 -35 -17z" transform="translate(0,77) scale(0.1,-0.1)" stroke="none" fill="#1D4C5A"/>

<path d="M393 641 c-29 -16 -70 -43 -92 -60 -21 -17 -64 -46 -94 -64 -69 -40 -195 -125 -202 -137 -3 -4 19 -23 48 -40 28 -18 108 -70 177 -115 69 -46 157 -101 195 -123 39 -23 89 -55 112 -71 59 -43 99 -42 166 7 29 21 90 60 137 86 121 67 264 168 268 189 3 14 -8 10 -50 -18 -29 -19 -69 -44 -88 -55 -19 -11 -80 -49 -135 -84 -55 -36 -126 -81 -158 -101 -56 -34 -97 -45 -97 -26 0 5 -8 11 -17 15 -22 7 -50 25 -77 49 -11 9 -24 17 -28 17 -5 0 -61 35 -126 77 -64 43 -126 83 -137 89 -77 41 -156 98 -153 111 2 8 33 34 70 57 37 22 123 77 191 121 69 44 133 85 143 92 38 24 -3 12 -53 -16z" transform="translate(0,77) scale(0.1,-0.1)" stroke="none" fill="#1D4C5A"/>

</g>

</g>
<g id="col1" transform="translate(111, -28.5)">
<g id="0" transform="translate(0,0.0)scale(0.8,0.8)">

<path d="M241 429 c-59 -38 -65 -45 -50 -54 7 -5 10 -4 6 3 -4 5 13 22 37 36 25 15 48 31 51 36 8 14 6 13 -44 -21z" transform="translate(0,77) scale(0.1,-0.1)" stroke="none" fill="#567C8C"/>

<path d="M466 273 c-4 -4 -23 -6 -42 -4 -42 3 -44 -9 -4 -32 35 -21 46 -17 52 18 6 27 5 29 -6 18z" transform="translate(0,77) scale(0.1,-0.1)" stroke="none" fill="#1D4C5A"/>

<path d="M525 430 c-3 -5 4 -14 15 -20 34 -18 25 -56 -20 -86 -22 -15 -40 -28 -40 -30 0 -9 59 20 64 32 3 8 12 14 20 14 10 0 13 6 9 16 -3 9 -2 19 3 23 5 3 -3 18 -18 33 -15 14 -30 23 -33 18z" transform="translate(0,77) scale(0.1,-0.1)" stroke="none" fill="#0A1E1F"/>

<path d="M474 196 c-11 -11 -2 -19 56 -48 14 -6 34 -19 44 -27 16 -14 18 -14 11 -1 -17 28 -58 70 -69 70 -6 0 -3 -5 7 -11 9 -5 17 -14 17 -20 0 -5 -9 -4 -20 3 -11 7 -20 18 -20 25 0 17 -13 22 -26 9z" transform="translate(0,77) scale(0.1,-0.1)" stroke="none" fill="#96B4C7"/>

<path d="M598 383 c-33 -5 -38 -33 -6 -33 11 0 36 -11 55 -26 38 -28 42 -24 13 13 -11 14 -20 32 -20 39 0 8 -3 13 -7 13 -5 -1 -20 -4 -35 -6z m32 -17 c0 -9 -8 -12 -27 -8 l-28 6 25 7 c14 4 26 7 28 8 1 1 2 -5 2 -13z" transform="translate(0,77) scale(0.1,-0.1)" stroke="none" fill="#567C8C"/>

<path d="M700 543 c24 -12 2 -80 -39 -117 -12 -11 -21 -27 -21 -37 0 -18 46 -79 60 -79 5 0 -5 13 -21 29 -36 36 -36 45 -2 77 15 14 28 35 30 47 9 52 7 80 -5 83 -7 1 -8 0 -2 -3z" transform="translate(0,77) scale(0.1,-0.1)" stroke="none" fill="#96B4C7"/>

<path d="M310 412 c-29 -14 -36 -23 -38 -52 -3 -33 1 -37 58 -73 61 -38 85 -36 30 3 -16 12 -30 19 -30 16 0 -3 -11 4 -25 16 -37 32 -33 66 10 84 19 8 35 16 35 19 0 7 -2 7 -40 -13z" transform="translate(0,77) scale(0.1,-0.1)" stroke="none" fill="#567C8C"/>

<path d="M952 408 c10 -28 9 -33 -15 -54 -15 -13 -34 -27 -43 -32 -9 -5 -15 -14 -13 -21 5 -13 130 67 137 87 2 7 -9 18 -27 25 -17 6 -31 15 -31 19 0 4 -4 8 -9 8 -6 0 -5 -13 1 -32z" transform="translate(0,77) scale(0.1,-0.1)" stroke="none" fill="#1D4C5A"/>

<path d="M680 305 c0 -3 9 -15 20 -27 39 -42 25 -71 -65 -133 -77 -53 -4 -15 108 56 95 61 167 112 118 84 -32 -19 -93 -23 -122 -8 -16 8 -31 18 -34 24 -7 10 -25 13 -25 4z" transform="translate(0,77) scale(0.1,-0.1)" stroke="none" fill="#1D4C5A"/>

<path d="M560 739 c-36 -32 -25 -30 21 4 l26 19 77 -49 c42 -26 84 -52 94 -58 26 -15 178 -112 244 -157 62 -42 70 -45 62 -24 -3 8 -38 34 -77 57 -40 23 -108 65 -152 94 -110 71 -124 80 -173 115 -54 38 -78 37 -122 -1z" transform="translate(0,77) scale(0.1,-0.1)" stroke="none" fill="#1D4C5A"/>

<path d="M575 633 c-16 -9 -51 -31 -77 -49 -26 -19 -52 -34 -56 -34 -5 0 -27 -16 -49 -35 -23 -19 -46 -35 -52 -35 -8 0 -130 -77 -149 -95 -1 -1 15 -14 37 -28 l40 -26 3 32 c3 27 11 36 53 59 100 54 104 54 183 21 9 -4 10 1 2 22 -20 51 -13 72 36 104 53 36 81 39 117 11 14 -11 32 -20 41 -20 17 0 31 -41 22 -65 -5 -13 3 -14 49 -9 45 6 60 3 90 -15 40 -23 55 -26 55 -11 0 6 -5 10 -10 10 -6 0 -41 20 -78 44 -99 65 -216 136 -222 136 -3 -1 -18 -8 -35 -17z" transform="translate(0,77) scale(0.1,-0.1)" stroke="none" fill="#1D4C5A"/>

<path d="M393 641 c-29 -16 -70 -43 -92 -60 -21 -17 -64 -46 -94 -64 -69 -40 -195 -125 -202 -137 -3 -4 19 -23 48 -40 28 -18 108 -70 177 -115 69 -46 157 -101 195 -123 39 -23 89 -55 112 -71 59 -43 99 -42 166 7 29 21 90 60 137 86 121 67 264 168 268 189 3 14 -8 10 -50 -18 -29 -19 -69 -44 -88 -55 -19 -11 -80 -49 -135 -84 -55 -36 -126 -81 -158 -101 -56 -34 -97 -45 -97 -26 0 5 -8 11 -17 15 -22 7 -50 25 -77 49 -11 9 -24 17 -28 17 -5 0 -61 35 -126 77 -64 43 -126 83 -137 89 -77 41 -156 98 -153 111 2 8 33 34 70 57 37 22 123 77 191 121 69 44 133 85 143 92 38 24 -3 12 -53 -16z" transform="translate(0,77) scale(0.1,-0.1)" stroke="none" fill="#1D4C5A"/>

</g>

<g id="1" transform="translate(0,77.0)scale(0.8,0.8)">

<path d="M241 429 c-59 -38 -65 -45 -50 -54 7 -5 10 -4 6 3 -4 5 13 22 37 36 25 15 48 31 51 36 8 14 6 13 -44 -21z" transform="translate(0,77) scale(0.1,-0.1)" stroke="none" fill="#567C8C"/>

<path d="M466 273 c-4 -4 -23 -6 -42 -4 -42 3 -44 -9 -4 -32 35 -21 46 -17 52 18 6 27 5 29 -6 18z" transform="translate(0,77) scale(0.1,-0.1)" stroke="none" fill="#1D4C5A"/>

<path d="M525 430 c-3 -5 4 -14 15 -20 34 -18 25 -56 -20 -86 -22 -15 -40 -28 -40 -30 0 -9 59 20 64 32 3 8 12 14 20 14 10 0 13 6 9 16 -3 9 -2 19 3 23 5 3 -3 18 -18 33 -15 14 -30 23 -33 18z" transform="translate(0,77) scale(0.1,-0.1)" stroke="none" fill="#0A1E1F"/>

<path d="M474 196 c-11 -11 -2 -19 56 -48 14 -6 34 -19 44 -27 16 -14 18 -14 11 -1 -17 28 -58 70 -69 70 -6 0 -3 -5 7 -11 9 -5 17 -14 17 -20 0 -5 -9 -4 -20 3 -11 7 -20 18 -20 25 0 17 -13 22 -26 9z" transform="translate(0,77) scale(0.1,-0.1)" stroke="none" fill="#96B4C7"/>

<path d="M598 383 c-33 -5 -38 -33 -6 -33 11 0 36 -11 55 -26 38 -28 42 -24 13 13 -11 14 -20 32 -20 39 0 8 -3 13 -7 13 -5 -1 -20 -4 -35 -6z m32 -17 c0 -9 -8 -12 -27 -8 l-28 6 25 7 c14 4 26 7 28 8 1 1 2 -5 2 -13z" transform="translate(0,77) scale(0.1,-0.1)" stroke="none" fill="#567C8C"/>

<path d="M700 543 c24 -12 2 -80 -39 -117 -12 -11 -21 -27 -21 -37 0 -18 46 -79 60 -79 5 0 -5 13 -21 29 -36 36 -36 45 -2 77 15 14 28 35 30 47 9 52 7 80 -5 83 -7 1 -8 0 -2 -3z" transform="translate(0,77) scale(0.1,-0.1)" stroke="none" fill="#96B4C7"/>

<path d="M310 412 c-29 -14 -36 -23 -38 -52 -3 -33 1 -37 58 -73 61 -38 85 -36 30 3 -16 12 -30 19 -30 16 0 -3 -11 4 -25 16 -37 32 -33 66 10 84 19 8 35 16 35 19 0 7 -2 7 -40 -13z" transform="translate(0,77) scale(0.1,-0.1)" stroke="none" fill="#567C8C"/>

<path d="M952 408 c10 -28 9 -33 -15 -54 -15 -13 -34 -27 -43 -32 -9 -5 -15 -14 -13 -21 5 -13 130 67 137 87 2 7 -9 18 -27 25 -17 6 -31 15 -31 19 0 4 -4 8 -9 8 -6 0 -5 -13 1 -32z" transform="translate(0,77) scale(0.1,-0.1)" stroke="none" fill="#1D4C5A"/>

<path d="M680 305 c0 -3 9 -15 20 -27 39 -42 25 -71 -65 -133 -77 -53 -4 -15 108 56 95 61 167 112 118 84 -32 -19 -93 -23 -122 -8 -16 8 -31 18 -34 24 -7 10 -25 13 -25 4z" transform="translate(0,77) scale(0.1,-0.1)" stroke="none" fill="#1D4C5A"/>

<path d="M560 739 c-36 -32 -25 -30 21 4 l26 19 77 -49 c42 -26 84 -52 94 -58 26 -15 178 -112 244 -157 62 -42 70 -45 62 -24 -3 8 -38 34 -77 57 -40 23 -108 65 -152 94 -110 71 -124 80 -173 115 -54 38 -78 37 -122 -1z" transform="translate(0,77) scale(0.1,-0.1)" stroke="none" fill="#1D4C5A"/>

<path d="M575 633 c-16 -9 -51 -31 -77 -49 -26 -19 -52 -34 -56 -34 -5 0 -27 -16 -49 -35 -23 -19 -46 -35 -52 -35 -8 0 -130 -77 -149 -95 -1 -1 15 -14 37 -28 l40 -26 3 32 c3 27 11 36 53 59 100 54 104 54 183 21 9 -4 10 1 2 22 -20 51 -13 72 36 104 53 36 81 39 117 11 14 -11 32 -20 41 -20 17 0 31 -41 22 -65 -5 -13 3 -14 49 -9 45 6 60 3 90 -15 40 -23 55 -26 55 -11 0 6 -5 10 -10 10 -6 0 -41 20 -78 44 -99 65 -216 136 -222 136 -3 -1 -18 -8 -35 -17z" transform="translate(0,77) scale(0.1,-0.1)" stroke="none" fill="#1D4C5A"/>

<path d="M393 641 c-29 -16 -70 -43 -92 -60 -21 -17 -64 -46 -94 -64 -69 -40 -195 -125 -202 -137 -3 -4 19 -23 48 -40 28 -18 108 -70 177 -115 69 -46 157 -101 195 -123 39 -23 89 -55 112 -71 59 -43 99 -42 166 7 29 21 90 60 137 86 121 67 264 168 268 189 3 14 -8 10 -50 -18 -29 -19 -69 -44 -88 -55 -19 -11 -80 -49 -135 -84 -55 -36 -126 -81 -158 -101 -56 -34 -97 -45 -97 -26 0 5 -8 11 -17 15 -22 7 -50 25 -77 49 -11 9 -24 17 -28 17 -5 0 -61 35 -126 77 -64 43 -126 83 -137 89 -77 41 -156 98 -153 111 2 8 33 34 70 57 37 22 123 77 191 121 69 44 133 85 143 92 38 24 -3 12 -53 -16z" transform="translate(0,77) scale(0.1,-0.1)" stroke="none" fill="#1D4C5A"/>

</g>

<g id="2" transform="translate(0,154.0)scale(0.8,0.8)">

<path d="M241 429 c-59 -38 -65 -45 -50 -54 7 -5 10 -4 6 3 -4 5 13 22 37 36 25 15 48 31 51 36 8 14 6 13 -44 -21z" transform="translate(0,77) scale(0.1,-0.1)" stroke="none" fill="#567C8C"/>

<path d="M466 273 c-4 -4 -23 -6 -42 -4 -42 3 -44 -9 -4 -32 35 -21 46 -17 52 18 6 27 5 29 -6 18z" transform="translate(0,77) scale(0.1,-0.1)" stroke="none" fill="#1D4C5A"/>

<path d="M525 430 c-3 -5 4 -14 15 -20 34 -18 25 -56 -20 -86 -22 -15 -40 -28 -40 -30 0 -9 59 20 64 32 3 8 12 14 20 14 10 0 13 6 9 16 -3 9 -2 19 3 23 5 3 -3 18 -18 33 -15 14 -30 23 -33 18z" transform="translate(0,77) scale(0.1,-0.1)" stroke="none" fill="#0A1E1F"/>

<path d="M474 196 c-11 -11 -2 -19 56 -48 14 -6 34 -19 44 -27 16 -14 18 -14 11 -1 -17 28 -58 70 -69 70 -6 0 -3 -5 7 -11 9 -5 17 -14 17 -20 0 -5 -9 -4 -20 3 -11 7 -20 18 -20 25 0 17 -13 22 -26 9z" transform="translate(0,77) scale(0.1,-0.1)" stroke="none" fill="#96B4C7"/>

<path d="M598 383 c-33 -5 -38 -33 -6 -33 11 0 36 -11 55 -26 38 -28 42 -24 13 13 -11 14 -20 32 -20 39 0 8 -3 13 -7 13 -5 -1 -20 -4 -35 -6z m32 -17 c0 -9 -8 -12 -27 -8 l-28 6 25 7 c14 4 26 7 28 8 1 1 2 -5 2 -13z" transform="translate(0,77) scale(0.1,-0.1)" stroke="none" fill="#567C8C"/>

<path d="M700 543 c24 -12 2 -80 -39 -117 -12 -11 -21 -27 -21 -37 0 -18 46 -79 60 -79 5 0 -5 13 -21 29 -36 36 -36 45 -2 77 15 14 28 35 30 47 9 52 7 80 -5 83 -7 1 -8 0 -2 -3z" transform="translate(0,77) scale(0.1,-0.1)" stroke="none" fill="#96B4C7"/>

<path d="M310 412 c-29 -14 -36 -23 -38 -52 -3 -33 1 -37 58 -73 61 -38 85 -36 30 3 -16 12 -30 19 -30 16 0 -3 -11 4 -25 16 -37 32 -33 66 10 84 19 8 35 16 35 19 0 7 -2 7 -40 -13z" transform="translate(0,77) scale(0.1,-0.1)" stroke="none" fill="#567C8C"/>

<path d="M952 408 c10 -28 9 -33 -15 -54 -15 -13 -34 -27 -43 -32 -9 -5 -15 -14 -13 -21 5 -13 130 67 137 87 2 7 -9 18 -27 25 -17 6 -31 15 -31 19 0 4 -4 8 -9 8 -6 0 -5 -13 1 -32z" transform="translate(0,77) scale(0.1,-0.1)" stroke="none" fill="#1D4C5A"/>

<path d="M680 305 c0 -3 9 -15 20 -27 39 -42 25 -71 -65 -133 -77 -53 -4 -15 108 56 95 61 167 112 118 84 -32 -19 -93 -23 -122 -8 -16 8 -31 18 -34 24 -7 10 -25 13 -25 4z" transform="translate(0,77) scale(0.1,-0.1)" stroke="none" fill="#1D4C5A"/>

<path d="M560 739 c-36 -32 -25 -30 21 4 l26 19 77 -49 c42 -26 84 -52 94 -58 26 -15 178 -112 244 -157 62 -42 70 -45 62 -24 -3 8 -38 34 -77 57 -40 23 -108 65 -152 94 -110 71 -124 80 -173 115 -54 38 -78 37 -122 -1z" transform="translate(0,77) scale(0.1,-0.1)" stroke="none" fill="#1D4C5A"/>

<path d="M575 633 c-16 -9 -51 -31 -77 -49 -26 -19 -52 -34 -56 -34 -5 0 -27 -16 -49 -35 -23 -19 -46 -35 -52 -35 -8 0 -130 -77 -149 -95 -1 -1 15 -14 37 -28 l40 -26 3 32 c3 27 11 36 53 59 100 54 104 54 183 21 9 -4 10 1 2 22 -20 51 -13 72 36 104 53 36 81 39 117 11 14 -11 32 -20 41 -20 17 0 31 -41 22 -65 -5 -13 3 -14 49 -9 45 6 60 3 90 -15 40 -23 55 -26 55 -11 0 6 -5 10 -10 10 -6 0 -41 20 -78 44 -99 65 -216 136 -222 136 -3 -1 -18 -8 -35 -17z" transform="translate(0,77) scale(0.1,-0.1)" stroke="none" fill="#1D4C5A"/>

<path d="M393 641 c-29 -16 -70 -43 -92 -60 -21 -17 -64 -46 -94 -64 -69 -40 -195 -125 -202 -137 -3 -4 19 -23 48 -40 28 -18 108 -70 177 -115 69 -46 157 -101 195 -123 39 -23 89 -55 112 -71 59 -43 99 -42 166 7 29 21 90 60 137 86 121 67 264 168 268 189 3 14 -8 10 -50 -18 -29 -19 -69 -44 -88 -55 -19 -11 -80 -49 -135 -84 -55 -36 -126 -81 -158 -101 -56 -34 -97 -45 -97 -26 0 5 -8 11 -17 15 -22 7 -50 25 -77 49 -11 9 -24 17 -28 17 -5 0 -61 35 -126 77 -64 43 -126 83 -137 89 -77 41 -156 98 -153 111 2 8 33 34 70 57 37 22 123 77 191 121 69 44 133 85 143 92 38 24 -3 12 -53 -16z" transform="translate(0,77) scale(0.1,-0.1)" stroke="none" fill="#1D4C5A"/>

</g>

<g id="3" transform="translate(0,231.0)scale(0.8,0.8)">

<path d="M241 429 c-59 -38 -65 -45 -50 -54 7 -5 10 -4 6 3 -4 5 13 22 37 36 25 15 48 31 51 36 8 14 6 13 -44 -21z" transform="translate(0,77) scale(0.1,-0.1)" stroke="none" fill="#567C8C"/>

<path d="M466 273 c-4 -4 -23 -6 -42 -4 -42 3 -44 -9 -4 -32 35 -21 46 -17 52 18 6 27 5 29 -6 18z" transform="translate(0,77) scale(0.1,-0.1)" stroke="none" fill="#1D4C5A"/>

<path d="M525 430 c-3 -5 4 -14 15 -20 34 -18 25 -56 -20 -86 -22 -15 -40 -28 -40 -30 0 -9 59 20 64 32 3 8 12 14 20 14 10 0 13 6 9 16 -3 9 -2 19 3 23 5 3 -3 18 -18 33 -15 14 -30 23 -33 18z" transform="translate(0,77) scale(0.1,-0.1)" stroke="none" fill="#0A1E1F"/>

<path d="M474 196 c-11 -11 -2 -19 56 -48 14 -6 34 -19 44 -27 16 -14 18 -14 11 -1 -17 28 -58 70 -69 70 -6 0 -3 -5 7 -11 9 -5 17 -14 17 -20 0 -5 -9 -4 -20 3 -11 7 -20 18 -20 25 0 17 -13 22 -26 9z" transform="translate(0,77) scale(0.1,-0.1)" stroke="none" fill="#96B4C7"/>

<path d="M598 383 c-33 -5 -38 -33 -6 -33 11 0 36 -11 55 -26 38 -28 42 -24 13 13 -11 14 -20 32 -20 39 0 8 -3 13 -7 13 -5 -1 -20 -4 -35 -6z m32 -17 c0 -9 -8 -12 -27 -8 l-28 6 25 7 c14 4 26 7 28 8 1 1 2 -5 2 -13z" transform="translate(0,77) scale(0.1,-0.1)" stroke="none" fill="#567C8C"/>

<path d="M700 543 c24 -12 2 -80 -39 -117 -12 -11 -21 -27 -21 -37 0 -18 46 -79 60 -79 5 0 -5 13 -21 29 -36 36 -36 45 -2 77 15 14 28 35 30 47 9 52 7 80 -5 83 -7 1 -8 0 -2 -3z" transform="translate(0,77) scale(0.1,-0.1)" stroke="none" fill="#96B4C7"/>

<path d="M310 412 c-29 -14 -36 -23 -38 -52 -3 -33 1 -37 58 -73 61 -38 85 -36 30 3 -16 12 -30 19 -30 16 0 -3 -11 4 -25 16 -37 32 -33 66 10 84 19 8 35 16 35 19 0 7 -2 7 -40 -13z" transform="translate(0,77) scale(0.1,-0.1)" stroke="none" fill="#567C8C"/>

<path d="M952 408 c10 -28 9 -33 -15 -54 -15 -13 -34 -27 -43 -32 -9 -5 -15 -14 -13 -21 5 -13 130 67 137 87 2 7 -9 18 -27 25 -17 6 -31 15 -31 19 0 4 -4 8 -9 8 -6 0 -5 -13 1 -32z" transform="translate(0,77) scale(0.1,-0.1)" stroke="none" fill="#1D4C5A"/>

<path d="M680 305 c0 -3 9 -15 20 -27 39 -42 25 -71 -65 -133 -77 -53 -4 -15 108 56 95 61 167 112 118 84 -32 -19 -93 -23 -122 -8 -16 8 -31 18 -34 24 -7 10 -25 13 -25 4z" transform="translate(0,77) scale(0.1,-0.1)" stroke="none" fill="#1D4C5A"/>

<path d="M560 739 c-36 -32 -25 -30 21 4 l26 19 77 -49 c42 -26 84 -52 94 -58 26 -15 178 -112 244 -157 62 -42 70 -45 62 -24 -3 8 -38 34 -77 57 -40 23 -108 65 -152 94 -110 71 -124 80 -173 115 -54 38 -78 37 -122 -1z" transform="translate(0,77) scale(0.1,-0.1)" stroke="none" fill="#1D4C5A"/>

<path d="M575 633 c-16 -9 -51 -31 -77 -49 -26 -19 -52 -34 -56 -34 -5 0 -27 -16 -49 -35 -23 -19 -46 -35 -52 -35 -8 0 -130 -77 -149 -95 -1 -1 15 -14 37 -28 l40 -26 3 32 c3 27 11 36 53 59 100 54 104 54 183 21 9 -4 10 1 2 22 -20 51 -13 72 36 104 53 36 81 39 117 11 14 -11 32 -20 41 -20 17 0 31 -41 22 -65 -5 -13 3 -14 49 -9 45 6 60 3 90 -15 40 -23 55 -26 55 -11 0 6 -5 10 -10 10 -6 0 -41 20 -78 44 -99 65 -216 136 -222 136 -3 -1 -18 -8 -35 -17z" transform="translate(0,77) scale(0.1,-0.1)" stroke="none" fill="#1D4C5A"/>

<path d="M393 641 c-29 -16 -70 -43 -92 -60 -21 -17 -64 -46 -94 -64 -69 -40 -195 -125 -202 -137 -3 -4 19 -23 48 -40 28 -18 108 -70 177 -115 69 -46 157 -101 195 -123 39 -23 89 -55 112 -71 59 -43 99 -42 166 7 29 21 90 60 137 86 121 67 264 168 268 189 3 14 -8 10 -50 -18 -29 -19 -69 -44 -88 -55 -19 -11 -80 -49 -135 -84 -55 -36 -126 -81 -158 -101 -56 -34 -97 -45 -97 -26 0 5 -8 11 -17 15 -22 7 -50 25 -77 49 -11 9 -24 17 -28 17 -5 0 -61 35 -126 77 -64 43 -126 83 -137 89 -77 41 -156 98 -153 111 2 8 33 34 70 57 37 22 123 77 191 121 69 44 133 85 143 92 38 24 -3 12 -53 -16z" transform="translate(0,77) scale(0.1,-0.1)" stroke="none" fill="#1D4C5A"/>

</g>

<g id="4" transform="translate(0,308.0)scale(0.8,0.8)">

<path d="M241 429 c-59 -38 -65 -45 -50 -54 7 -5 10 -4 6 3 -4 5 13 22 37 36 25 15 48 31 51 36 8 14 6 13 -44 -21z" transform="translate(0,77) scale(0.1,-0.1)" stroke="none" fill="#567C8C"/>

<path d="M466 273 c-4 -4 -23 -6 -42 -4 -42 3 -44 -9 -4 -32 35 -21 46 -17 52 18 6 27 5 29 -6 18z" transform="translate(0,77) scale(0.1,-0.1)" stroke="none" fill="#1D4C5A"/>

<path d="M525 430 c-3 -5 4 -14 15 -20 34 -18 25 -56 -20 -86 -22 -15 -40 -28 -40 -30 0 -9 59 20 64 32 3 8 12 14 20 14 10 0 13 6 9 16 -3 9 -2 19 3 23 5 3 -3 18 -18 33 -15 14 -30 23 -33 18z" transform="translate(0,77) scale(0.1,-0.1)" stroke="none" fill="#0A1E1F"/>

<path d="M474 196 c-11 -11 -2 -19 56 -48 14 -6 34 -19 44 -27 16 -14 18 -14 11 -1 -17 28 -58 70 -69 70 -6 0 -3 -5 7 -11 9 -5 17 -14 17 -20 0 -5 -9 -4 -20 3 -11 7 -20 18 -20 25 0 17 -13 22 -26 9z" transform="translate(0,77) scale(0.1,-0.1)" stroke="none" fill="#96B4C7"/>

<path d="M598 383 c-33 -5 -38 -33 -6 -33 11 0 36 -11 55 -26 38 -28 42 -24 13 13 -11 14 -20 32 -20 39 0 8 -3 13 -7 13 -5 -1 -20 -4 -35 -6z m32 -17 c0 -9 -8 -12 -27 -8 l-28 6 25 7 c14 4 26 7 28 8 1 1 2 -5 2 -13z" transform="translate(0,77) scale(0.1,-0.1)" stroke="none" fill="#567C8C"/>

<path d="M700 543 c24 -12 2 -80 -39 -117 -12 -11 -21 -27 -21 -37 0 -18 46 -79 60 -79 5 0 -5 13 -21 29 -36 36 -36 45 -2 77 15 14 28 35 30 47 9 52 7 80 -5 83 -7 1 -8 0 -2 -3z" transform="translate(0,77) scale(0.1,-0.1)" stroke="none" fill="#96B4C7"/>

<path d="M310 412 c-29 -14 -36 -23 -38 -52 -3 -33 1 -37 58 -73 61 -38 85 -36 30 3 -16 12 -30 19 -30 16 0 -3 -11 4 -25 16 -37 32 -33 66 10 84 19 8 35 16 35 19 0 7 -2 7 -40 -13z" transform="translate(0,77) scale(0.1,-0.1)" stroke="none" fill="#567C8C"/>

<path d="M952 408 c10 -28 9 -33 -15 -54 -15 -13 -34 -27 -43 -32 -9 -5 -15 -14 -13 -21 5 -13 130 67 137 87 2 7 -9 18 -27 25 -17 6 -31 15 -31 19 0 4 -4 8 -9 8 -6 0 -5 -13 1 -32z" transform="translate(0,77) scale(0.1,-0.1)" stroke="none" fill="#1D4C5A"/>

<path d="M680 305 c0 -3 9 -15 20 -27 39 -42 25 -71 -65 -133 -77 -53 -4 -15 108 56 95 61 167 112 118 84 -32 -19 -93 -23 -122 -8 -16 8 -31 18 -34 24 -7 10 -25 13 -25 4z" transform="translate(0,77) scale(0.1,-0.1)" stroke="none" fill="#1D4C5A"/>

<path d="M560 739 c-36 -32 -25 -30 21 4 l26 19 77 -49 c42 -26 84 -52 94 -58 26 -15 178 -112 244 -157 62 -42 70 -45 62 -24 -3 8 -38 34 -77 57 -40 23 -108 65 -152 94 -110 71 -124 80 -173 115 -54 38 -78 37 -122 -1z" transform="translate(0,77) scale(0.1,-0.1)" stroke="none" fill="#1D4C5A"/>

<path d="M575 633 c-16 -9 -51 -31 -77 -49 -26 -19 -52 -34 -56 -34 -5 0 -27 -16 -49 -35 -23 -19 -46 -35 -52 -35 -8 0 -130 -77 -149 -95 -1 -1 15 -14 37 -28 l40 -26 3 32 c3 27 11 36 53 59 100 54 104 54 183 21 9 -4 10 1 2 22 -20 51 -13 72 36 104 53 36 81 39 117 11 14 -11 32 -20 41 -20 17 0 31 -41 22 -65 -5 -13 3 -14 49 -9 45 6 60 3 90 -15 40 -23 55 -26 55 -11 0 6 -5 10 -10 10 -6 0 -41 20 -78 44 -99 65 -216 136 -222 136 -3 -1 -18 -8 -35 -17z" transform="translate(0,77) scale(0.1,-0.1)" stroke="none" fill="#1D4C5A"/>

<path d="M393 641 c-29 -16 -70 -43 -92 -60 -21 -17 -64 -46 -94 -64 -69 -40 -195 -125 -202 -137 -3 -4 19 -23 48 -40 28 -18 108 -70 177 -115 69 -46 157 -101 195 -123 39 -23 89 -55 112 -71 59 -43 99 -42 166 7 29 21 90 60 137 86 121 67 264 168 268 189 3 14 -8 10 -50 -18 -29 -19 -69 -44 -88 -55 -19 -11 -80 -49 -135 -84 -55 -36 -126 -81 -158 -101 -56 -34 -97 -45 -97 -26 0 5 -8 11 -17 15 -22 7 -50 25 -77 49 -11 9 -24 17 -28 17 -5 0 -61 35 -126 77 -64 43 -126 83 -137 89 -77 41 -156 98 -153 111 2 8 33 34 70 57 37 22 123 77 191 121 69 44 133 85 143 92 38 24 -3 12 -53 -16z" transform="translate(0,77) scale(0.1,-0.1)" stroke="none" fill="#1D4C5A"/>

</g>

</g>
<g id="col2" transform="translate(222, 10)">
<g id="0" transform="translate(0,0.0)scale(0.8,0.8)">

<path d="M241 429 c-59 -38 -65 -45 -50 -54 7 -5 10 -4 6 3 -4 5 13 22 37 36 25 15 48 31 51 36 8 14 6 13 -44 -21z" transform="translate(0,77) scale(0.1,-0.1)" stroke="none" fill="#567C8C"/>

<path d="M466 273 c-4 -4 -23 -6 -42 -4 -42 3 -44 -9 -4 -32 35 -21 46 -17 52 18 6 27 5 29 -6 18z" transform="translate(0,77) scale(0.1,-0.1)" stroke="none" fill="#1D4C5A"/>

<path d="M525 430 c-3 -5 4 -14 15 -20 34 -18 25 -56 -20 -86 -22 -15 -40 -28 -40 -30 0 -9 59 20 64 32 3 8 12 14 20 14 10 0 13 6 9 16 -3 9 -2 19 3 23 5 3 -3 18 -18 33 -15 14 -30 23 -33 18z" transform="translate(0,77) scale(0.1,-0.1)" stroke="none" fill="#0A1E1F"/>

<path d="M474 196 c-11 -11 -2 -19 56 -48 14 -6 34 -19 44 -27 16 -14 18 -14 11 -1 -17 28 -58 70 -69 70 -6 0 -3 -5 7 -11 9 -5 17 -14 17 -20 0 -5 -9 -4 -20 3 -11 7 -20 18 -20 25 0 17 -13 22 -26 9z" transform="translate(0,77) scale(0.1,-0.1)" stroke="none" fill="#96B4C7"/>

<path d="M598 383 c-33 -5 -38 -33 -6 -33 11 0 36 -11 55 -26 38 -28 42 -24 13 13 -11 14 -20 32 -20 39 0 8 -3 13 -7 13 -5 -1 -20 -4 -35 -6z m32 -17 c0 -9 -8 -12 -27 -8 l-28 6 25 7 c14 4 26 7 28 8 1 1 2 -5 2 -13z" transform="translate(0,77) scale(0.1,-0.1)" stroke="none" fill="#567C8C"/>

<path d="M700 543 c24 -12 2 -80 -39 -117 -12 -11 -21 -27 -21 -37 0 -18 46 -79 60 -79 5 0 -5 13 -21 29 -36 36 -36 45 -2 77 15 14 28 35 30 47 9 52 7 80 -5 83 -7 1 -8 0 -2 -3z" transform="translate(0,77) scale(0.1,-0.1)" stroke="none" fill="#96B4C7"/>

<path d="M310 412 c-29 -14 -36 -23 -38 -52 -3 -33 1 -37 58 -73 61 -38 85 -36 30 3 -16 12 -30 19 -30 16 0 -3 -11 4 -25 16 -37 32 -33 66 10 84 19 8 35 16 35 19 0 7 -2 7 -40 -13z" transform="translate(0,77) scale(0.1,-0.1)" stroke="none" fill="#567C8C"/>

<path d="M952 408 c10 -28 9 -33 -15 -54 -15 -13 -34 -27 -43 -32 -9 -5 -15 -14 -13 -21 5 -13 130 67 137 87 2 7 -9 18 -27 25 -17 6 -31 15 -31 19 0 4 -4 8 -9 8 -6 0 -5 -13 1 -32z" transform="translate(0,77) scale(0.1,-0.1)" stroke="none" fill="#1D4C5A"/>

<path d="M680 305 c0 -3 9 -15 20 -27 39 -42 25 -71 -65 -133 -77 -53 -4 -15 108 56 95 61 167 112 118 84 -32 -19 -93 -23 -122 -8 -16 8 -31 18 -34 24 -7 10 -25 13 -25 4z" transform="translate(0,77) scale(0.1,-0.1)" stroke="none" fill="#1D4C5A"/>

<path d="M560 739 c-36 -32 -25 -30 21 4 l26 19 77 -49 c42 -26 84 -52 94 -58 26 -15 178 -112 244 -157 62 -42 70 -45 62 -24 -3 8 -38 34 -77 57 -40 23 -108 65 -152 94 -110 71 -124 80 -173 115 -54 38 -78 37 -122 -1z" transform="translate(0,77) scale(0.1,-0.1)" stroke="none" fill="#1D4C5A"/>

<path d="M575 633 c-16 -9 -51 -31 -77 -49 -26 -19 -52 -34 -56 -34 -5 0 -27 -16 -49 -35 -23 -19 -46 -35 -52 -35 -8 0 -130 -77 -149 -95 -1 -1 15 -14 37 -28 l40 -26 3 32 c3 27 11 36 53 59 100 54 104 54 183 21 9 -4 10 1 2 22 -20 51 -13 72 36 104 53 36 81 39 117 11 14 -11 32 -20 41 -20 17 0 31 -41 22 -65 -5 -13 3 -14 49 -9 45 6 60 3 90 -15 40 -23 55 -26 55 -11 0 6 -5 10 -10 10 -6 0 -41 20 -78 44 -99 65 -216 136 -222 136 -3 -1 -18 -8 -35 -17z" transform="translate(0,77) scale(0.1,-0.1)" stroke="none" fill="#1D4C5A"/>

<path d="M393 641 c-29 -16 -70 -43 -92 -60 -21 -17 -64 -46 -94 -64 -69 -40 -195 -125 -202 -137 -3 -4 19 -23 48 -40 28 -18 108 -70 177 -115 69 -46 157 -101 195 -123 39 -23 89 -55 112 -71 59 -43 99 -42 166 7 29 21 90 60 137 86 121 67 264 168 268 189 3 14 -8 10 -50 -18 -29 -19 -69 -44 -88 -55 -19 -11 -80 -49 -135 -84 -55 -36 -126 -81 -158 -101 -56 -34 -97 -45 -97 -26 0 5 -8 11 -17 15 -22 7 -50 25 -77 49 -11 9 -24 17 -28 17 -5 0 -61 35 -126 77 -64 43 -126 83 -137 89 -77 41 -156 98 -153 111 2 8 33 34 70 57 37 22 123 77 191 121 69 44 133 85 143 92 38 24 -3 12 -53 -16z" transform="translate(0,77) scale(0.1,-0.1)" stroke="none" fill="#1D4C5A"/>

</g>

<g id="1" transform="translate(0,77.0)scale(0.8,0.8)">

<path d="M241 429 c-59 -38 -65 -45 -50 -54 7 -5 10 -4 6 3 -4 5 13 22 37 36 25 15 48 31 51 36 8 14 6 13 -44 -21z" transform="translate(0,77) scale(0.1,-0.1)" stroke="none" fill="#567C8C"/>

<path d="M466 273 c-4 -4 -23 -6 -42 -4 -42 3 -44 -9 -4 -32 35 -21 46 -17 52 18 6 27 5 29 -6 18z" transform="translate(0,77) scale(0.1,-0.1)" stroke="none" fill="#1D4C5A"/>

<path d="M525 430 c-3 -5 4 -14 15 -20 34 -18 25 -56 -20 -86 -22 -15 -40 -28 -40 -30 0 -9 59 20 64 32 3 8 12 14 20 14 10 0 13 6 9 16 -3 9 -2 19 3 23 5 3 -3 18 -18 33 -15 14 -30 23 -33 18z" transform="translate(0,77) scale(0.1,-0.1)" stroke="none" fill="#0A1E1F"/>

<path d="M474 196 c-11 -11 -2 -19 56 -48 14 -6 34 -19 44 -27 16 -14 18 -14 11 -1 -17 28 -58 70 -69 70 -6 0 -3 -5 7 -11 9 -5 17 -14 17 -20 0 -5 -9 -4 -20 3 -11 7 -20 18 -20 25 0 17 -13 22 -26 9z" transform="translate(0,77) scale(0.1,-0.1)" stroke="none" fill="#96B4C7"/>

<path d="M598 383 c-33 -5 -38 -33 -6 -33 11 0 36 -11 55 -26 38 -28 42 -24 13 13 -11 14 -20 32 -20 39 0 8 -3 13 -7 13 -5 -1 -20 -4 -35 -6z m32 -17 c0 -9 -8 -12 -27 -8 l-28 6 25 7 c14 4 26 7 28 8 1 1 2 -5 2 -13z" transform="translate(0,77) scale(0.1,-0.1)" stroke="none" fill="#567C8C"/>

<path d="M700 543 c24 -12 2 -80 -39 -117 -12 -11 -21 -27 -21 -37 0 -18 46 -79 60 -79 5 0 -5 13 -21 29 -36 36 -36 45 -2 77 15 14 28 35 30 47 9 52 7 80 -5 83 -7 1 -8 0 -2 -3z" transform="translate(0,77) scale(0.1,-0.1)" stroke="none" fill="#96B4C7"/>

<path d="M310 412 c-29 -14 -36 -23 -38 -52 -3 -33 1 -37 58 -73 61 -38 85 -36 30 3 -16 12 -30 19 -30 16 0 -3 -11 4 -25 16 -37 32 -33 66 10 84 19 8 35 16 35 19 0 7 -2 7 -40 -13z" transform="translate(0,77) scale(0.1,-0.1)" stroke="none" fill="#567C8C"/>

<path d="M952 408 c10 -28 9 -33 -15 -54 -15 -13 -34 -27 -43 -32 -9 -5 -15 -14 -13 -21 5 -13 130 67 137 87 2 7 -9 18 -27 25 -17 6 -31 15 -31 19 0 4 -4 8 -9 8 -6 0 -5 -13 1 -32z" transform="translate(0,77) scale(0.1,-0.1)" stroke="none" fill="#1D4C5A"/>

<path d="M680 305 c0 -3 9 -15 20 -27 39 -42 25 -71 -65 -133 -77 -53 -4 -15 108 56 95 61 167 112 118 84 -32 -19 -93 -23 -122 -8 -16 8 -31 18 -34 24 -7 10 -25 13 -25 4z" transform="translate(0,77) scale(0.1,-0.1)" stroke="none" fill="#1D4C5A"/>

<path d="M560 739 c-36 -32 -25 -30 21 4 l26 19 77 -49 c42 -26 84 -52 94 -58 26 -15 178 -112 244 -157 62 -42 70 -45 62 -24 -3 8 -38 34 -77 57 -40 23 -108 65 -152 94 -110 71 -124 80 -173 115 -54 38 -78 37 -122 -1z" transform="translate(0,77) scale(0.1,-0.1)" stroke="none" fill="#1D4C5A"/>

<path d="M575 633 c-16 -9 -51 -31 -77 -49 -26 -19 -52 -34 -56 -34 -5 0 -27 -16 -49 -35 -23 -19 -46 -35 -52 -35 -8 0 -130 -77 -149 -95 -1 -1 15 -14 37 -28 l40 -26 3 32 c3 27 11 36 53 59 100 54 104 54 183 21 9 -4 10 1 2 22 -20 51 -13 72 36 104 53 36 81 39 117 11 14 -11 32 -20 41 -20 17 0 31 -41 22 -65 -5 -13 3 -14 49 -9 45 6 60 3 90 -15 40 -23 55 -26 55 -11 0 6 -5 10 -10 10 -6 0 -41 20 -78 44 -99 65 -216 136 -222 136 -3 -1 -18 -8 -35 -17z" transform="translate(0,77) scale(0.1,-0.1)" stroke="none" fill="#1D4C5A"/>

<path d="M393 641 c-29 -16 -70 -43 -92 -60 -21 -17 -64 -46 -94 -64 -69 -40 -195 -125 -202 -137 -3 -4 19 -23 48 -40 28 -18 108 -70 177 -115 69 -46 157 -101 195 -123 39 -23 89 -55 112 -71 59 -43 99 -42 166 7 29 21 90 60 137 86 121 67 264 168 268 189 3 14 -8 10 -50 -18 -29 -19 -69 -44 -88 -55 -19 -11 -80 -49 -135 -84 -55 -36 -126 -81 -158 -101 -56 -34 -97 -45 -97 -26 0 5 -8 11 -17 15 -22 7 -50 25 -77 49 -11 9 -24 17 -28 17 -5 0 -61 35 -126 77 -64 43 -126 83 -137 89 -77 41 -156 98 -153 111 2 8 33 34 70 57 37 22 123 77 191 121 69 44 133 85 143 92 38 24 -3 12 -53 -16z" transform="translate(0,77) scale(0.1,-0.1)" stroke="none" fill="#1D4C5A"/>

</g>

<g id="2" transform="translate(0,154.0)scale(0.8,0.8)">

<path d="M241 429 c-59 -38 -65 -45 -50 -54 7 -5 10 -4 6 3 -4 5 13 22 37 36 25 15 48 31 51 36 8 14 6 13 -44 -21z" transform="translate(0,77) scale(0.1,-0.1)" stroke="none" fill="#567C8C"/>

<path d="M466 273 c-4 -4 -23 -6 -42 -4 -42 3 -44 -9 -4 -32 35 -21 46 -17 52 18 6 27 5 29 -6 18z" transform="translate(0,77) scale(0.1,-0.1)" stroke="none" fill="#1D4C5A"/>

<path d="M525 430 c-3 -5 4 -14 15 -20 34 -18 25 -56 -20 -86 -22 -15 -40 -28 -40 -30 0 -9 59 20 64 32 3 8 12 14 20 14 10 0 13 6 9 16 -3 9 -2 19 3 23 5 3 -3 18 -18 33 -15 14 -30 23 -33 18z" transform="translate(0,77) scale(0.1,-0.1)" stroke="none" fill="#0A1E1F"/>

<path d="M474 196 c-11 -11 -2 -19 56 -48 14 -6 34 -19 44 -27 16 -14 18 -14 11 -1 -17 28 -58 70 -69 70 -6 0 -3 -5 7 -11 9 -5 17 -14 17 -20 0 -5 -9 -4 -20 3 -11 7 -20 18 -20 25 0 17 -13 22 -26 9z" transform="translate(0,77) scale(0.1,-0.1)" stroke="none" fill="#96B4C7"/>

<path d="M598 383 c-33 -5 -38 -33 -6 -33 11 0 36 -11 55 -26 38 -28 42 -24 13 13 -11 14 -20 32 -20 39 0 8 -3 13 -7 13 -5 -1 -20 -4 -35 -6z m32 -17 c0 -9 -8 -12 -27 -8 l-28 6 25 7 c14 4 26 7 28 8 1 1 2 -5 2 -13z" transform="translate(0,77) scale(0.1,-0.1)" stroke="none" fill="#567C8C"/>

<path d="M700 543 c24 -12 2 -80 -39 -117 -12 -11 -21 -27 -21 -37 0 -18 46 -79 60 -79 5 0 -5 13 -21 29 -36 36 -36 45 -2 77 15 14 28 35 30 47 9 52 7 80 -5 83 -7 1 -8 0 -2 -3z" transform="translate(0,77) scale(0.1,-0.1)" stroke="none" fill="#96B4C7"/>

<path d="M310 412 c-29 -14 -36 -23 -38 -52 -3 -33 1 -37 58 -73 61 -38 85 -36 30 3 -16 12 -30 19 -30 16 0 -3 -11 4 -25 16 -37 32 -33 66 10 84 19 8 35 16 35 19 0 7 -2 7 -40 -13z" transform="translate(0,77) scale(0.1,-0.1)" stroke="none" fill="#567C8C"/>

<path d="M952 408 c10 -28 9 -33 -15 -54 -15 -13 -34 -27 -43 -32 -9 -5 -15 -14 -13 -21 5 -13 130 67 137 87 2 7 -9 18 -27 25 -17 6 -31 15 -31 19 0 4 -4 8 -9 8 -6 0 -5 -13 1 -32z" transform="translate(0,77) scale(0.1,-0.1)" stroke="none" fill="#1D4C5A"/>

<path d="M680 305 c0 -3 9 -15 20 -27 39 -42 25 -71 -65 -133 -77 -53 -4 -15 108 56 95 61 167 112 118 84 -32 -19 -93 -23 -122 -8 -16 8 -31 18 -34 24 -7 10 -25 13 -25 4z" transform="translate(0,77) scale(0.1,-0.1)" stroke="none" fill="#1D4C5A"/>

<path d="M560 739 c-36 -32 -25 -30 21 4 l26 19 77 -49 c42 -26 84 -52 94 -58 26 -15 178 -112 244 -157 62 -42 70 -45 62 -24 -3 8 -38 34 -77 57 -40 23 -108 65 -152 94 -110 71 -124 80 -173 115 -54 38 -78 37 -122 -1z" transform="translate(0,77) scale(0.1,-0.1)" stroke="none" fill="#1D4C5A"/>

<path d="M575 633 c-16 -9 -51 -31 -77 -49 -26 -19 -52 -34 -56 -34 -5 0 -27 -16 -49 -35 -23 -19 -46 -35 -52 -35 -8 0 -130 -77 -149 -95 -1 -1 15 -14 37 -28 l40 -26 3 32 c3 27 11 36 53 59 100 54 104 54 183 21 9 -4 10 1 2 22 -20 51 -13 72 36 104 53 36 81 39 117 11 14 -11 32 -20 41 -20 17 0 31 -41 22 -65 -5 -13 3 -14 49 -9 45 6 60 3 90 -15 40 -23 55 -26 55 -11 0 6 -5 10 -10 10 -6 0 -41 20 -78 44 -99 65 -216 136 -222 136 -3 -1 -18 -8 -35 -17z" transform="translate(0,77) scale(0.1,-0.1)" stroke="none" fill="#1D4C5A"/>

<path d="M393 641 c-29 -16 -70 -43 -92 -60 -21 -17 -64 -46 -94 -64 -69 -40 -195 -125 -202 -137 -3 -4 19 -23 48 -40 28 -18 108 -70 177 -115 69 -46 157 -101 195 -123 39 -23 89 -55 112 -71 59 -43 99 -42 166 7 29 21 90 60 137 86 121 67 264 168 268 189 3 14 -8 10 -50 -18 -29 -19 -69 -44 -88 -55 -19 -11 -80 -49 -135 -84 -55 -36 -126 -81 -158 -101 -56 -34 -97 -45 -97 -26 0 5 -8 11 -17 15 -22 7 -50 25 -77 49 -11 9 -24 17 -28 17 -5 0 -61 35 -126 77 -64 43 -126 83 -137 89 -77 41 -156 98 -153 111 2 8 33 34 70 57 37 22 123 77 191 121 69 44 133 85 143 92 38 24 -3 12 -53 -16z" transform="translate(0,77) scale(0.1,-0.1)" stroke="none" fill="#1D4C5A"/>

</g>

<g id="3" transform="translate(0,231.0)scale(0.8,0.8)">

<path d="M241 429 c-59 -38 -65 -45 -50 -54 7 -5 10 -4 6 3 -4 5 13 22 37 36 25 15 48 31 51 36 8 14 6 13 -44 -21z" transform="translate(0,77) scale(0.1,-0.1)" stroke="none" fill="#567C8C"/>

<path d="M466 273 c-4 -4 -23 -6 -42 -4 -42 3 -44 -9 -4 -32 35 -21 46 -17 52 18 6 27 5 29 -6 18z" transform="translate(0,77) scale(0.1,-0.1)" stroke="none" fill="#1D4C5A"/>

<path d="M525 430 c-3 -5 4 -14 15 -20 34 -18 25 -56 -20 -86 -22 -15 -40 -28 -40 -30 0 -9 59 20 64 32 3 8 12 14 20 14 10 0 13 6 9 16 -3 9 -2 19 3 23 5 3 -3 18 -18 33 -15 14 -30 23 -33 18z" transform="translate(0,77) scale(0.1,-0.1)" stroke="none" fill="#0A1E1F"/>

<path d="M474 196 c-11 -11 -2 -19 56 -48 14 -6 34 -19 44 -27 16 -14 18 -14 11 -1 -17 28 -58 70 -69 70 -6 0 -3 -5 7 -11 9 -5 17 -14 17 -20 0 -5 -9 -4 -20 3 -11 7 -20 18 -20 25 0 17 -13 22 -26 9z" transform="translate(0,77) scale(0.1,-0.1)" stroke="none" fill="#96B4C7"/>

<path d="M598 383 c-33 -5 -38 -33 -6 -33 11 0 36 -11 55 -26 38 -28 42 -24 13 13 -11 14 -20 32 -20 39 0 8 -3 13 -7 13 -5 -1 -20 -4 -35 -6z m32 -17 c0 -9 -8 -12 -27 -8 l-28 6 25 7 c14 4 26 7 28 8 1 1 2 -5 2 -13z" transform="translate(0,77) scale(0.1,-0.1)" stroke="none" fill="#567C8C"/>

<path d="M700 543 c24 -12 2 -80 -39 -117 -12 -11 -21 -27 -21 -37 0 -18 46 -79 60 -79 5 0 -5 13 -21 29 -36 36 -36 45 -2 77 15 14 28 35 30 47 9 52 7 80 -5 83 -7 1 -8 0 -2 -3z" transform="translate(0,77) scale(0.1,-0.1)" stroke="none" fill="#96B4C7"/>

<path d="M310 412 c-29 -14 -36 -23 -38 -52 -3 -33 1 -37 58 -73 61 -38 85 -36 30 3 -16 12 -30 19 -30 16 0 -3 -11 4 -25 16 -37 32 -33 66 10 84 19 8 35 16 35 19 0 7 -2 7 -40 -13z" transform="translate(0,77) scale(0.1,-0.1)" stroke="none" fill="#567C8C"/>

<path d="M952 408 c10 -28 9 -33 -15 -54 -15 -13 -34 -27 -43 -32 -9 -5 -15 -14 -13 -21 5 -13 130 67 137 87 2 7 -9 18 -27 25 -17 6 -31 15 -31 19 0 4 -4 8 -9 8 -6 0 -5 -13 1 -32z" transform="translate(0,77) scale(0.1,-0.1)" stroke="none" fill="#1D4C5A"/>

<path d="M680 305 c0 -3 9 -15 20 -27 39 -42 25 -71 -65 -133 -77 -53 -4 -15 108 56 95 61 167 112 118 84 -32 -19 -93 -23 -122 -8 -16 8 -31 18 -34 24 -7 10 -25 13 -25 4z" transform="translate(0,77) scale(0.1,-0.1)" stroke="none" fill="#1D4C5A"/>

<path d="M560 739 c-36 -32 -25 -30 21 4 l26 19 77 -49 c42 -26 84 -52 94 -58 26 -15 178 -112 244 -157 62 -42 70 -45 62 -24 -3 8 -38 34 -77 57 -40 23 -108 65 -152 94 -110 71 -124 80 -173 115 -54 38 -78 37 -122 -1z" transform="translate(0,77) scale(0.1,-0.1)" stroke="none" fill="#1D4C5A"/>

<path d="M575 633 c-16 -9 -51 -31 -77 -49 -26 -19 -52 -34 -56 -34 -5 0 -27 -16 -49 -35 -23 -19 -46 -35 -52 -35 -8 0 -130 -77 -149 -95 -1 -1 15 -14 37 -28 l40 -26 3 32 c3 27 11 36 53 59 100 54 104 54 183 21 9 -4 10 1 2 22 -20 51 -13 72 36 104 53 36 81 39 117 11 14 -11 32 -20 41 -20 17 0 31 -41 22 -65 -5 -13 3 -14 49 -9 45 6 60 3 90 -15 40 -23 55 -26 55 -11 0 6 -5 10 -10 10 -6 0 -41 20 -78 44 -99 65 -216 136 -222 136 -3 -1 -18 -8 -35 -17z" transform="translate(0,77) scale(0.1,-0.1)" stroke="none" fill="#1D4C5A"/>

<path d="M393 641 c-29 -16 -70 -43 -92 -60 -21 -17 -64 -46 -94 -64 -69 -40 -195 -125 -202 -137 -3 -4 19 -23 48 -40 28 -18 108 -70 177 -115 69 -46 157 -101 195 -123 39 -23 89 -55 112 -71 59 -43 99 -42 166 7 29 21 90 60 137 86 121 67 264 168 268 189 3 14 -8 10 -50 -18 -29 -19 -69 -44 -88 -55 -19 -11 -80 -49 -135 -84 -55 -36 -126 -81 -158 -101 -56 -34 -97 -45 -97 -26 0 5 -8 11 -17 15 -22 7 -50 25 -77 49 -11 9 -24 17 -28 17 -5 0 -61 35 -126 77 -64 43 -126 83 -137 89 -77 41 -156 98 -153 111 2 8 33 34 70 57 37 22 123 77 191 121 69 44 133 85 143 92 38 24 -3 12 -53 -16z" transform="translate(0,77) scale(0.1,-0.1)" stroke="none" fill="#1D4C5A"/>

</g>

<g id="4" transform="translate(0,308.0)scale(0.8,0.8)">

<path d="M241 429 c-59 -38 -65 -45 -50 -54 7 -5 10 -4 6 3 -4 5 13 22 37 36 25 15 48 31 51 36 8 14 6 13 -44 -21z" transform="translate(0,77) scale(0.1,-0.1)" stroke="none" fill="#567C8C"/>

<path d="M466 273 c-4 -4 -23 -6 -42 -4 -42 3 -44 -9 -4 -32 35 -21 46 -17 52 18 6 27 5 29 -6 18z" transform="translate(0,77) scale(0.1,-0.1)" stroke="none" fill="#1D4C5A"/>

<path d="M525 430 c-3 -5 4 -14 15 -20 34 -18 25 -56 -20 -86 -22 -15 -40 -28 -40 -30 0 -9 59 20 64 32 3 8 12 14 20 14 10 0 13 6 9 16 -3 9 -2 19 3 23 5 3 -3 18 -18 33 -15 14 -30 23 -33 18z" transform="translate(0,77) scale(0.1,-0.1)" stroke="none" fill="#0A1E1F"/>

<path d="M474 196 c-11 -11 -2 -19 56 -48 14 -6 34 -19 44 -27 16 -14 18 -14 11 -1 -17 28 -58 70 -69 70 -6 0 -3 -5 7 -11 9 -5 17 -14 17 -20 0 -5 -9 -4 -20 3 -11 7 -20 18 -20 25 0 17 -13 22 -26 9z" transform="translate(0,77) scale(0.1,-0.1)" stroke="none" fill="#96B4C7"/>

<path d="M598 383 c-33 -5 -38 -33 -6 -33 11 0 36 -11 55 -26 38 -28 42 -24 13 13 -11 14 -20 32 -20 39 0 8 -3 13 -7 13 -5 -1 -20 -4 -35 -6z m32 -17 c0 -9 -8 -12 -27 -8 l-28 6 25 7 c14 4 26 7 28 8 1 1 2 -5 2 -13z" transform="translate(0,77) scale(0.1,-0.1)" stroke="none" fill="#567C8C"/>

<path d="M700 543 c24 -12 2 -80 -39 -117 -12 -11 -21 -27 -21 -37 0 -18 46 -79 60 -79 5 0 -5 13 -21 29 -36 36 -36 45 -2 77 15 14 28 35 30 47 9 52 7 80 -5 83 -7 1 -8 0 -2 -3z" transform="translate(0,77) scale(0.1,-0.1)" stroke="none" fill="#96B4C7"/>

<path d="M310 412 c-29 -14 -36 -23 -38 -52 -3 -33 1 -37 58 -73 61 -38 85 -36 30 3 -16 12 -30 19 -30 16 0 -3 -11 4 -25 16 -37 32 -33 66 10 84 19 8 35 16 35 19 0 7 -2 7 -40 -13z" transform="translate(0,77) scale(0.1,-0.1)" stroke="none" fill="#567C8C"/>

<path d="M952 408 c10 -28 9 -33 -15 -54 -15 -13 -34 -27 -43 -32 -9 -5 -15 -14 -13 -21 5 -13 130 67 137 87 2 7 -9 18 -27 25 -17 6 -31 15 -31 19 0 4 -4 8 -9 8 -6 0 -5 -13 1 -32z" transform="translate(0,77) scale(0.1,-0.1)" stroke="none" fill="#1D4C5A"/>

<path d="M680 305 c0 -3 9 -15 20 -27 39 -42 25 -71 -65 -133 -77 -53 -4 -15 108 56 95 61 167 112 118 84 -32 -19 -93 -23 -122 -8 -16 8 -31 18 -34 24 -7 10 -25 13 -25 4z" transform="translate(0,77) scale(0.1,-0.1)" stroke="none" fill="#1D4C5A"/>

<path d="M560 739 c-36 -32 -25 -30 21 4 l26 19 77 -49 c42 -26 84 -52 94 -58 26 -15 178 -112 244 -157 62 -42 70 -45 62 -24 -3 8 -38 34 -77 57 -40 23 -108 65 -152 94 -110 71 -124 80 -173 115 -54 38 -78 37 -122 -1z" transform="translate(0,77) scale(0.1,-0.1)" stroke="none" fill="#1D4C5A"/>

<path d="M575 633 c-16 -9 -51 -31 -77 -49 -26 -19 -52 -34 -56 -34 -5 0 -27 -16 -49 -35 -23 -19 -46 -35 -52 -35 -8 0 -130 -77 -149 -95 -1 -1 15 -14 37 -28 l40 -26 3 32 c3 27 11 36 53 59 100 54 104 54 183 21 9 -4 10 1 2 22 -20 51 -13 72 36 104 53 36 81 39 117 11 14 -11 32 -20 41 -20 17 0 31 -41 22 -65 -5 -13 3 -14 49 -9 45 6 60 3 90 -15 40 -23 55 -26 55 -11 0 6 -5 10 -10 10 -6 0 -41 20 -78 44 -99 65 -216 136 -222 136 -3 -1 -18 -8 -35 -17z" transform="translate(0,77) scale(0.1,-0.1)" stroke="none" fill="#1D4C5A"/>

<path d="M393 641 c-29 -16 -70 -43 -92 -60 -21 -17 -64 -46 -94 -64 -69 -40 -195 -125 -202 -137 -3 -4 19 -23 48 -40 28 -18 108 -70 177 -115 69 -46 157 -101 195 -123 39 -23 89 -55 112 -71 59 -43 99 -42 166 7 29 21 90 60 137 86 121 67 264 168 268 189 3 14 -8 10 -50 -18 -29 -19 -69 -44 -88 -55 -19 -11 -80 -49 -135 -84 -55 -36 -126 -81 -158 -101 -56 -34 -97 -45 -97 -26 0 5 -8 11 -17 15 -22 7 -50 25 -77 49 -11 9 -24 17 -28 17 -5 0 -61 35 -126 77 -64 43 -126 83 -137 89 -77 41 -156 98 -153 111 2 8 33 34 70 57 37 22 123 77 191 121 69 44 133 85 143 92 38 24 -3 12 -53 -16z" transform="translate(0,77) scale(0.1,-0.1)" stroke="none" fill="#1D4C5A"/>

</g>

</g>
<g id="col3" transform="translate(333, -28.5)">
<g id="0" transform="translate(0,0.0)scale(0.8,0.8)">

<path d="M241 429 c-59 -38 -65 -45 -50 -54 7 -5 10 -4 6 3 -4 5 13 22 37 36 25 15 48 31 51 36 8 14 6 13 -44 -21z" transform="translate(0,77) scale(0.1,-0.1)" stroke="none" fill="#567C8C"/>

<path d="M466 273 c-4 -4 -23 -6 -42 -4 -42 3 -44 -9 -4 -32 35 -21 46 -17 52 18 6 27 5 29 -6 18z" transform="translate(0,77) scale(0.1,-0.1)" stroke="none" fill="#1D4C5A"/>

<path d="M525 430 c-3 -5 4 -14 15 -20 34 -18 25 -56 -20 -86 -22 -15 -40 -28 -40 -30 0 -9 59 20 64 32 3 8 12 14 20 14 10 0 13 6 9 16 -3 9 -2 19 3 23 5 3 -3 18 -18 33 -15 14 -30 23 -33 18z" transform="translate(0,77) scale(0.1,-0.1)" stroke="none" fill="#0A1E1F"/>

<path d="M474 196 c-11 -11 -2 -19 56 -48 14 -6 34 -19 44 -27 16 -14 18 -14 11 -1 -17 28 -58 70 -69 70 -6 0 -3 -5 7 -11 9 -5 17 -14 17 -20 0 -5 -9 -4 -20 3 -11 7 -20 18 -20 25 0 17 -13 22 -26 9z" transform="translate(0,77) scale(0.1,-0.1)" stroke="none" fill="#96B4C7"/>

<path d="M598 383 c-33 -5 -38 -33 -6 -33 11 0 36 -11 55 -26 38 -28 42 -24 13 13 -11 14 -20 32 -20 39 0 8 -3 13 -7 13 -5 -1 -20 -4 -35 -6z m32 -17 c0 -9 -8 -12 -27 -8 l-28 6 25 7 c14 4 26 7 28 8 1 1 2 -5 2 -13z" transform="translate(0,77) scale(0.1,-0.1)" stroke="none" fill="#567C8C"/>

<path d="M700 543 c24 -12 2 -80 -39 -117 -12 -11 -21 -27 -21 -37 0 -18 46 -79 60 -79 5 0 -5 13 -21 29 -36 36 -36 45 -2 77 15 14 28 35 30 47 9 52 7 80 -5 83 -7 1 -8 0 -2 -3z" transform="translate(0,77) scale(0.1,-0.1)" stroke="none" fill="#96B4C7"/>

<path d="M310 412 c-29 -14 -36 -23 -38 -52 -3 -33 1 -37 58 -73 61 -38 85 -36 30 3 -16 12 -30 19 -30 16 0 -3 -11 4 -25 16 -37 32 -33 66 10 84 19 8 35 16 35 19 0 7 -2 7 -40 -13z" transform="translate(0,77) scale(0.1,-0.1)" stroke="none" fill="#567C8C"/>

<path d="M952 408 c10 -28 9 -33 -15 -54 -15 -13 -34 -27 -43 -32 -9 -5 -15 -14 -13 -21 5 -13 130 67 137 87 2 7 -9 18 -27 25 -17 6 -31 15 -31 19 0 4 -4 8 -9 8 -6 0 -5 -13 1 -32z" transform="translate(0,77) scale(0.1,-0.1)" stroke="none" fill="#1D4C5A"/>

<path d="M680 305 c0 -3 9 -15 20 -27 39 -42 25 -71 -65 -133 -77 -53 -4 -15 108 56 95 61 167 112 118 84 -32 -19 -93 -23 -122 -8 -16 8 -31 18 -34 24 -7 10 -25 13 -25 4z" transform="translate(0,77) scale(0.1,-0.1)" stroke="none" fill="#1D4C5A"/>

<path d="M560 739 c-36 -32 -25 -30 21 4 l26 19 77 -49 c42 -26 84 -52 94 -58 26 -15 178 -112 244 -157 62 -42 70 -45 62 -24 -3 8 -38 34 -77 57 -40 23 -108 65 -152 94 -110 71 -124 80 -173 115 -54 38 -78 37 -122 -1z" transform="translate(0,77) scale(0.1,-0.1)" stroke="none" fill="#1D4C5A"/>

<path d="M575 633 c-16 -9 -51 -31 -77 -49 -26 -19 -52 -34 -56 -34 -5 0 -27 -16 -49 -35 -23 -19 -46 -35 -52 -35 -8 0 -130 -77 -149 -95 -1 -1 15 -14 37 -28 l40 -26 3 32 c3 27 11 36 53 59 100 54 104 54 183 21 9 -4 10 1 2 22 -20 51 -13 72 36 104 53 36 81 39 117 11 14 -11 32 -20 41 -20 17 0 31 -41 22 -65 -5 -13 3 -14 49 -9 45 6 60 3 90 -15 40 -23 55 -26 55 -11 0 6 -5 10 -10 10 -6 0 -41 20 -78 44 -99 65 -216 136 -222 136 -3 -1 -18 -8 -35 -17z" transform="translate(0,77) scale(0.1,-0.1)" stroke="none" fill="#1D4C5A"/>

<path d="M393 641 c-29 -16 -70 -43 -92 -60 -21 -17 -64 -46 -94 -64 -69 -40 -195 -125 -202 -137 -3 -4 19 -23 48 -40 28 -18 108 -70 177 -115 69 -46 157 -101 195 -123 39 -23 89 -55 112 -71 59 -43 99 -42 166 7 29 21 90 60 137 86 121 67 264 168 268 189 3 14 -8 10 -50 -18 -29 -19 -69 -44 -88 -55 -19 -11 -80 -49 -135 -84 -55 -36 -126 -81 -158 -101 -56 -34 -97 -45 -97 -26 0 5 -8 11 -17 15 -22 7 -50 25 -77 49 -11 9 -24 17 -28 17 -5 0 -61 35 -126 77 -64 43 -126 83 -137 89 -77 41 -156 98 -153 111 2 8 33 34 70 57 37 22 123 77 191 121 69 44 133 85 143 92 38 24 -3 12 -53 -16z" transform="translate(0,77) scale(0.1,-0.1)" stroke="none" fill="#1D4C5A"/>

</g>

<g id="1" transform="translate(0,77.0)scale(0.8,0.8)">

<path d="M241 429 c-59 -38 -65 -45 -50 -54 7 -5 10 -4 6 3 -4 5 13 22 37 36 25 15 48 31 51 36 8 14 6 13 -44 -21z" transform="translate(0,77) scale(0.1,-0.1)" stroke="none" fill="#567C8C"/>

<path d="M466 273 c-4 -4 -23 -6 -42 -4 -42 3 -44 -9 -4 -32 35 -21 46 -17 52 18 6 27 5 29 -6 18z" transform="translate(0,77) scale(0.1,-0.1)" stroke="none" fill="#1D4C5A"/>

<path d="M525 430 c-3 -5 4 -14 15 -20 34 -18 25 -56 -20 -86 -22 -15 -40 -28 -40 -30 0 -9 59 20 64 32 3 8 12 14 20 14 10 0 13 6 9 16 -3 9 -2 19 3 23 5 3 -3 18 -18 33 -15 14 -30 23 -33 18z" transform="translate(0,77) scale(0.1,-0.1)" stroke="none" fill="#0A1E1F"/>

<path d="M474 196 c-11 -11 -2 -19 56 -48 14 -6 34 -19 44 -27 16 -14 18 -14 11 -1 -17 28 -58 70 -69 70 -6 0 -3 -5 7 -11 9 -5 17 -14 17 -20 0 -5 -9 -4 -20 3 -11 7 -20 18 -20 25 0 17 -13 22 -26 9z" transform="translate(0,77) scale(0.1,-0.1)" stroke="none" fill="#96B4C7"/>

<path d="M598 383 c-33 -5 -38 -33 -6 -33 11 0 36 -11 55 -26 38 -28 42 -24 13 13 -11 14 -20 32 -20 39 0 8 -3 13 -7 13 -5 -1 -20 -4 -35 -6z m32 -17 c0 -9 -8 -12 -27 -8 l-28 6 25 7 c14 4 26 7 28 8 1 1 2 -5 2 -13z" transform="translate(0,77) scale(0.1,-0.1)" stroke="none" fill="#567C8C"/>

<path d="M700 543 c24 -12 2 -80 -39 -117 -12 -11 -21 -27 -21 -37 0 -18 46 -79 60 -79 5 0 -5 13 -21 29 -36 36 -36 45 -2 77 15 14 28 35 30 47 9 52 7 80 -5 83 -7 1 -8 0 -2 -3z" transform="translate(0,77) scale(0.1,-0.1)" stroke="none" fill="#96B4C7"/>

<path d="M310 412 c-29 -14 -36 -23 -38 -52 -3 -33 1 -37 58 -73 61 -38 85 -36 30 3 -16 12 -30 19 -30 16 0 -3 -11 4 -25 16 -37 32 -33 66 10 84 19 8 35 16 35 19 0 7 -2 7 -40 -13z" transform="translate(0,77) scale(0.1,-0.1)" stroke="none" fill="#567C8C"/>

<path d="M952 408 c10 -28 9 -33 -15 -54 -15 -13 -34 -27 -43 -32 -9 -5 -15 -14 -13 -21 5 -13 130 67 137 87 2 7 -9 18 -27 25 -17 6 -31 15 -31 19 0 4 -4 8 -9 8 -6 0 -5 -13 1 -32z" transform="translate(0,77) scale(0.1,-0.1)" stroke="none" fill="#1D4C5A"/>

<path d="M680 305 c0 -3 9 -15 20 -27 39 -42 25 -71 -65 -133 -77 -53 -4 -15 108 56 95 61 167 112 118 84 -32 -19 -93 -23 -122 -8 -16 8 -31 18 -34 24 -7 10 -25 13 -25 4z" transform="translate(0,77) scale(0.1,-0.1)" stroke="none" fill="#1D4C5A"/>

<path d="M560 739 c-36 -32 -25 -30 21 4 l26 19 77 -49 c42 -26 84 -52 94 -58 26 -15 178 -112 244 -157 62 -42 70 -45 62 -24 -3 8 -38 34 -77 57 -40 23 -108 65 -152 94 -110 71 -124 80 -173 115 -54 38 -78 37 -122 -1z" transform="translate(0,77) scale(0.1,-0.1)" stroke="none" fill="#1D4C5A"/>

<path d="M575 633 c-16 -9 -51 -31 -77 -49 -26 -19 -52 -34 -56 -34 -5 0 -27 -16 -49 -35 -23 -19 -46 -35 -52 -35 -8 0 -130 -77 -149 -95 -1 -1 15 -14 37 -28 l40 -26 3 32 c3 27 11 36 53 59 100 54 104 54 183 21 9 -4 10 1 2 22 -20 51 -13 72 36 104 53 36 81 39 117 11 14 -11 32 -20 41 -20 17 0 31 -41 22 -65 -5 -13 3 -14 49 -9 45 6 60 3 90 -15 40 -23 55 -26 55 -11 0 6 -5 10 -10 10 -6 0 -41 20 -78 44 -99 65 -216 136 -222 136 -3 -1 -18 -8 -35 -17z" transform="translate(0,77) scale(0.1,-0.1)" stroke="none" fill="#1D4C5A"/>

<path d="M393 641 c-29 -16 -70 -43 -92 -60 -21 -17 -64 -46 -94 -64 -69 -40 -195 -125 -202 -137 -3 -4 19 -23 48 -40 28 -18 108 -70 177 -115 69 -46 157 -101 195 -123 39 -23 89 -55 112 -71 59 -43 99 -42 166 7 29 21 90 60 137 86 121 67 264 168 268 189 3 14 -8 10 -50 -18 -29 -19 -69 -44 -88 -55 -19 -11 -80 -49 -135 -84 -55 -36 -126 -81 -158 -101 -56 -34 -97 -45 -97 -26 0 5 -8 11 -17 15 -22 7 -50 25 -77 49 -11 9 -24 17 -28 17 -5 0 -61 35 -126 77 -64 43 -126 83 -137 89 -77 41 -156 98 -153 111 2 8 33 34 70 57 37 22 123 77 191 121 69 44 133 85 143 92 38 24 -3 12 -53 -16z" transform="translate(0,77) scale(0.1,-0.1)" stroke="none" fill="#1D4C5A"/>

</g>

<g id="2" transform="translate(0,154.0)scale(0.8,0.8)">

<path d="M241 429 c-59 -38 -65 -45 -50 -54 7 -5 10 -4 6 3 -4 5 13 22 37 36 25 15 48 31 51 36 8 14 6 13 -44 -21z" transform="translate(0,77) scale(0.1,-0.1)" stroke="none" fill="#567C8C"/>

<path d="M466 273 c-4 -4 -23 -6 -42 -4 -42 3 -44 -9 -4 -32 35 -21 46 -17 52 18 6 27 5 29 -6 18z" transform="translate(0,77) scale(0.1,-0.1)" stroke="none" fill="#1D4C5A"/>

<path d="M525 430 c-3 -5 4 -14 15 -20 34 -18 25 -56 -20 -86 -22 -15 -40 -28 -40 -30 0 -9 59 20 64 32 3 8 12 14 20 14 10 0 13 6 9 16 -3 9 -2 19 3 23 5 3 -3 18 -18 33 -15 14 -30 23 -33 18z" transform="translate(0,77) scale(0.1,-0.1)" stroke="none" fill="#0A1E1F"/>

<path d="M474 196 c-11 -11 -2 -19 56 -48 14 -6 34 -19 44 -27 16 -14 18 -14 11 -1 -17 28 -58 70 -69 70 -6 0 -3 -5 7 -11 9 -5 17 -14 17 -20 0 -5 -9 -4 -20 3 -11 7 -20 18 -20 25 0 17 -13 22 -26 9z" transform="translate(0,77) scale(0.1,-0.1)" stroke="none" fill="#96B4C7"/>

<path d="M598 383 c-33 -5 -38 -33 -6 -33 11 0 36 -11 55 -26 38 -28 42 -24 13 13 -11 14 -20 32 -20 39 0 8 -3 13 -7 13 -5 -1 -20 -4 -35 -6z m32 -17 c0 -9 -8 -12 -27 -8 l-28 6 25 7 c14 4 26 7 28 8 1 1 2 -5 2 -13z" transform="translate(0,77) scale(0.1,-0.1)" stroke="none" fill="#567C8C"/>

<path d="M700 543 c24 -12 2 -80 -39 -117 -12 -11 -21 -27 -21 -37 0 -18 46 -79 60 -79 5 0 -5 13 -21 29 -36 36 -36 45 -2 77 15 14 28 35 30 47 9 52 7 80 -5 83 -7 1 -8 0 -2 -3z" transform="translate(0,77) scale(0.1,-0.1)" stroke="none" fill="#96B4C7"/>

<path d="M310 412 c-29 -14 -36 -23 -38 -52 -3 -33 1 -37 58 -73 61 -38 85 -36 30 3 -16 12 -30 19 -30 16 0 -3 -11 4 -25 16 -37 32 -33 66 10 84 19 8 35 16 35 19 0 7 -2 7 -40 -13z" transform="translate(0,77) scale(0.1,-0.1)" stroke="none" fill="#567C8C"/>

<path d="M952 408 c10 -28 9 -33 -15 -54 -15 -13 -34 -27 -43 -32 -9 -5 -15 -14 -13 -21 5 -13 130 67 137 87 2 7 -9 18 -27 25 -17 6 -31 15 -31 19 0 4 -4 8 -9 8 -6 0 -5 -13 1 -32z" transform="translate(0,77) scale(0.1,-0.1)" stroke="none" fill="#1D4C5A"/>

<path d="M680 305 c0 -3 9 -15 20 -27 39 -42 25 -71 -65 -133 -77 -53 -4 -15 108 56 95 61 167 112 118 84 -32 -19 -93 -23 -122 -8 -16 8 -31 18 -34 24 -7 10 -25 13 -25 4z" transform="translate(0,77) scale(0.1,-0.1)" stroke="none" fill="#1D4C5A"/>

<path d="M560 739 c-36 -32 -25 -30 21 4 l26 19 77 -49 c42 -26 84 -52 94 -58 26 -15 178 -112 244 -157 62 -42 70 -45 62 -24 -3 8 -38 34 -77 57 -40 23 -108 65 -152 94 -110 71 -124 80 -173 115 -54 38 -78 37 -122 -1z" transform="translate(0,77) scale(0.1,-0.1)" stroke="none" fill="#1D4C5A"/>

<path d="M575 633 c-16 -9 -51 -31 -77 -49 -26 -19 -52 -34 -56 -34 -5 0 -27 -16 -49 -35 -23 -19 -46 -35 -52 -35 -8 0 -130 -77 -149 -95 -1 -1 15 -14 37 -28 l40 -26 3 32 c3 27 11 36 53 59 100 54 104 54 183 21 9 -4 10 1 2 22 -20 51 -13 72 36 104 53 36 81 39 117 11 14 -11 32 -20 41 -20 17 0 31 -41 22 -65 -5 -13 3 -14 49 -9 45 6 60 3 90 -15 40 -23 55 -26 55 -11 0 6 -5 10 -10 10 -6 0 -41 20 -78 44 -99 65 -216 136 -222 136 -3 -1 -18 -8 -35 -17z" transform="translate(0,77) scale(0.1,-0.1)" stroke="none" fill="#1D4C5A"/>

<path d="M393 641 c-29 -16 -70 -43 -92 -60 -21 -17 -64 -46 -94 -64 -69 -40 -195 -125 -202 -137 -3 -4 19 -23 48 -40 28 -18 108 -70 177 -115 69 -46 157 -101 195 -123 39 -23 89 -55 112 -71 59 -43 99 -42 166 7 29 21 90 60 137 86 121 67 264 168 268 189 3 14 -8 10 -50 -18 -29 -19 -69 -44 -88 -55 -19 -11 -80 -49 -135 -84 -55 -36 -126 -81 -158 -101 -56 -34 -97 -45 -97 -26 0 5 -8 11 -17 15 -22 7 -50 25 -77 49 -11 9 -24 17 -28 17 -5 0 -61 35 -126 77 -64 43 -126 83 -137 89 -77 41 -156 98 -153 111 2 8 33 34 70 57 37 22 123 77 191 121 69 44 133 85 143 92 38 24 -3 12 -53 -16z" transform="translate(0,77) scale(0.1,-0.1)" stroke="none" fill="#1D4C5A"/>

</g>

<g id="3" transform="translate(0,231.0)scale(0.8,0.8)">

<path d="M241 429 c-59 -38 -65 -45 -50 -54 7 -5 10 -4 6 3 -4 5 13 22 37 36 25 15 48 31 51 36 8 14 6 13 -44 -21z" transform="translate(0,77) scale(0.1,-0.1)" stroke="none" fill="#567C8C"/>

<path d="M466 273 c-4 -4 -23 -6 -42 -4 -42 3 -44 -9 -4 -32 35 -21 46 -17 52 18 6 27 5 29 -6 18z" transform="translate(0,77) scale(0.1,-0.1)" stroke="none" fill="#1D4C5A"/>

<path d="M525 430 c-3 -5 4 -14 15 -20 34 -18 25 -56 -20 -86 -22 -15 -40 -28 -40 -30 0 -9 59 20 64 32 3 8 12 14 20 14 10 0 13 6 9 16 -3 9 -2 19 3 23 5 3 -3 18 -18 33 -15 14 -30 23 -33 18z" transform="translate(0,77) scale(0.1,-0.1)" stroke="none" fill="#0A1E1F"/>

<path d="M474 196 c-11 -11 -2 -19 56 -48 14 -6 34 -19 44 -27 16 -14 18 -14 11 -1 -17 28 -58 70 -69 70 -6 0 -3 -5 7 -11 9 -5 17 -14 17 -20 0 -5 -9 -4 -20 3 -11 7 -20 18 -20 25 0 17 -13 22 -26 9z" transform="translate(0,77) scale(0.1,-0.1)" stroke="none" fill="#96B4C7"/>

<path d="M598 383 c-33 -5 -38 -33 -6 -33 11 0 36 -11 55 -26 38 -28 42 -24 13 13 -11 14 -20 32 -20 39 0 8 -3 13 -7 13 -5 -1 -20 -4 -35 -6z m32 -17 c0 -9 -8 -12 -27 -8 l-28 6 25 7 c14 4 26 7 28 8 1 1 2 -5 2 -13z" transform="translate(0,77) scale(0.1,-0.1)" stroke="none" fill="#567C8C"/>

<path d="M700 543 c24 -12 2 -80 -39 -117 -12 -11 -21 -27 -21 -37 0 -18 46 -79 60 -79 5 0 -5 13 -21 29 -36 36 -36 45 -2 77 15 14 28 35 30 47 9 52 7 80 -5 83 -7 1 -8 0 -2 -3z" transform="translate(0,77) scale(0.1,-0.1)" stroke="none" fill="#96B4C7"/>

<path d="M310 412 c-29 -14 -36 -23 -38 -52 -3 -33 1 -37 58 -73 61 -38 85 -36 30 3 -16 12 -30 19 -30 16 0 -3 -11 4 -25 16 -37 32 -33 66 10 84 19 8 35 16 35 19 0 7 -2 7 -40 -13z" transform="translate(0,77) scale(0.1,-0.1)" stroke="none" fill="#567C8C"/>

<path d="M952 408 c10 -28 9 -33 -15 -54 -15 -13 -34 -27 -43 -32 -9 -5 -15 -14 -13 -21 5 -13 130 67 137 87 2 7 -9 18 -27 25 -17 6 -31 15 -31 19 0 4 -4 8 -9 8 -6 0 -5 -13 1 -32z" transform="translate(0,77) scale(0.1,-0.1)" stroke="none" fill="#1D4C5A"/>

<path d="M680 305 c0 -3 9 -15 20 -27 39 -42 25 -71 -65 -133 -77 -53 -4 -15 108 56 95 61 167 112 118 84 -32 -19 -93 -23 -122 -8 -16 8 -31 18 -34 24 -7 10 -25 13 -25 4z" transform="translate(0,77) scale(0.1,-0.1)" stroke="none" fill="#1D4C5A"/>

<path d="M560 739 c-36 -32 -25 -30 21 4 l26 19 77 -49 c42 -26 84 -52 94 -58 26 -15 178 -112 244 -157 62 -42 70 -45 62 -24 -3 8 -38 34 -77 57 -40 23 -108 65 -152 94 -110 71 -124 80 -173 115 -54 38 -78 37 -122 -1z" transform="translate(0,77) scale(0.1,-0.1)" stroke="none" fill="#1D4C5A"/>

<path d="M575 633 c-16 -9 -51 -31 -77 -49 -26 -19 -52 -34 -56 -34 -5 0 -27 -16 -49 -35 -23 -19 -46 -35 -52 -35 -8 0 -130 -77 -149 -95 -1 -1 15 -14 37 -28 l40 -26 3 32 c3 27 11 36 53 59 100 54 104 54 183 21 9 -4 10 1 2 22 -20 51 -13 72 36 104 53 36 81 39 117 11 14 -11 32 -20 41 -20 17 0 31 -41 22 -65 -5 -13 3 -14 49 -9 45 6 60 3 90 -15 40 -23 55 -26 55 -11 0 6 -5 10 -10 10 -6 0 -41 20 -78 44 -99 65 -216 136 -222 136 -3 -1 -18 -8 -35 -17z" transform="translate(0,77) scale(0.1,-0.1)" stroke="none" fill="#1D4C5A"/>

<path d="M393 641 c-29 -16 -70 -43 -92 -60 -21 -17 -64 -46 -94 -64 -69 -40 -195 -125 -202 -137 -3 -4 19 -23 48 -40 28 -18 108 -70 177 -115 69 -46 157 -101 195 -123 39 -23 89 -55 112 -71 59 -43 99 -42 166 7 29 21 90 60 137 86 121 67 264 168 268 189 3 14 -8 10 -50 -18 -29 -19 -69 -44 -88 -55 -19 -11 -80 -49 -135 -84 -55 -36 -126 -81 -158 -101 -56 -34 -97 -45 -97 -26 0 5 -8 11 -17 15 -22 7 -50 25 -77 49 -11 9 -24 17 -28 17 -5 0 -61 35 -126 77 -64 43 -126 83 -137 89 -77 41 -156 98 -153 111 2 8 33 34 70 57 37 22 123 77 191 121 69 44 133 85 143 92 38 24 -3 12 -53 -16z" transform="translate(0,77) scale(0.1,-0.1)" stroke="none" fill="#1D4C5A"/>

</g>

<g id="4" transform="translate(0,308.0)scale(0.8,0.8)">

<path d="M241 429 c-59 -38 -65 -45 -50 -54 7 -5 10 -4 6 3 -4 5 13 22 37 36 25 15 48 31 51 36 8 14 6 13 -44 -21z" transform="translate(0,77) scale(0.1,-0.1)" stroke="none" fill="#567C8C"/>

<path d="M466 273 c-4 -4 -23 -6 -42 -4 -42 3 -44 -9 -4 -32 35 -21 46 -17 52 18 6 27 5 29 -6 18z" transform="translate(0,77) scale(0.1,-0.1)" stroke="none" fill="#1D4C5A"/>

<path d="M525 430 c-3 -5 4 -14 15 -20 34 -18 25 -56 -20 -86 -22 -15 -40 -28 -40 -30 0 -9 59 20 64 32 3 8 12 14 20 14 10 0 13 6 9 16 -3 9 -2 19 3 23 5 3 -3 18 -18 33 -15 14 -30 23 -33 18z" transform="translate(0,77) scale(0.1,-0.1)" stroke="none" fill="#0A1E1F"/>

<path d="M474 196 c-11 -11 -2 -19 56 -48 14 -6 34 -19 44 -27 16 -14 18 -14 11 -1 -17 28 -58 70 -69 70 -6 0 -3 -5 7 -11 9 -5 17 -14 17 -20 0 -5 -9 -4 -20 3 -11 7 -20 18 -20 25 0 17 -13 22 -26 9z" transform="translate(0,77) scale(0.1,-0.1)" stroke="none" fill="#96B4C7"/>

<path d="M598 383 c-33 -5 -38 -33 -6 -33 11 0 36 -11 55 -26 38 -28 42 -24 13 13 -11 14 -20 32 -20 39 0 8 -3 13 -7 13 -5 -1 -20 -4 -35 -6z m32 -17 c0 -9 -8 -12 -27 -8 l-28 6 25 7 c14 4 26 7 28 8 1 1 2 -5 2 -13z" transform="translate(0,77) scale(0.1,-0.1)" stroke="none" fill="#567C8C"/>

<path d="M700 543 c24 -12 2 -80 -39 -117 -12 -11 -21 -27 -21 -37 0 -18 46 -79 60 -79 5 0 -5 13 -21 29 -36 36 -36 45 -2 77 15 14 28 35 30 47 9 52 7 80 -5 83 -7 1 -8 0 -2 -3z" transform="translate(0,77) scale(0.1,-0.1)" stroke="none" fill="#96B4C7"/>

<path d="M310 412 c-29 -14 -36 -23 -38 -52 -3 -33 1 -37 58 -73 61 -38 85 -36 30 3 -16 12 -30 19 -30 16 0 -3 -11 4 -25 16 -37 32 -33 66 10 84 19 8 35 16 35 19 0 7 -2 7 -40 -13z" transform="translate(0,77) scale(0.1,-0.1)" stroke="none" fill="#567C8C"/>

<path d="M952 408 c10 -28 9 -33 -15 -54 -15 -13 -34 -27 -43 -32 -9 -5 -15 -14 -13 -21 5 -13 130 67 137 87 2 7 -9 18 -27 25 -17 6 -31 15 -31 19 0 4 -4 8 -9 8 -6 0 -5 -13 1 -32z" transform="translate(0,77) scale(0.1,-0.1)" stroke="none" fill="#1D4C5A"/>

<path d="M680 305 c0 -3 9 -15 20 -27 39 -42 25 -71 -65 -133 -77 -53 -4 -15 108 56 95 61 167 112 118 84 -32 -19 -93 -23 -122 -8 -16 8 -31 18 -34 24 -7 10 -25 13 -25 4z" transform="translate(0,77) scale(0.1,-0.1)" stroke="none" fill="#1D4C5A"/>

<path d="M560 739 c-36 -32 -25 -30 21 4 l26 19 77 -49 c42 -26 84 -52 94 -58 26 -15 178 -112 244 -157 62 -42 70 -45 62 -24 -3 8 -38 34 -77 57 -40 23 -108 65 -152 94 -110 71 -124 80 -173 115 -54 38 -78 37 -122 -1z" transform="translate(0,77) scale(0.1,-0.1)" stroke="none" fill="#1D4C5A"/>

<path d="M575 633 c-16 -9 -51 -31 -77 -49 -26 -19 -52 -34 -56 -34 -5 0 -27 -16 -49 -35 -23 -19 -46 -35 -52 -35 -8 0 -130 -77 -149 -95 -1 -1 15 -14 37 -28 l40 -26 3 32 c3 27 11 36 53 59 100 54 104 54 183 21 9 -4 10 1 2 22 -20 51 -13 72 36 104 53 36 81 39 117 11 14 -11 32 -20 41 -20 17 0 31 -41 22 -65 -5 -13 3 -14 49 -9 45 6 60 3 90 -15 40 -23 55 -26 55 -11 0 6 -5 10 -10 10 -6 0 -41 20 -78 44 -99 65 -216 136 -222 136 -3 -1 -18 -8 -35 -17z" transform="translate(0,77) scale(0.1,-0.1)" stroke="none" fill="#1D4C5A"/>

<path d="M393 641 c-29 -16 -70 -43 -92 -60 -21 -17 -64 -46 -94 -64 -69 -40 -195 -125 -202 -137 -3 -4 19 -23 48 -40 28 -18 108 -70 177 -115 69 -46 157 -101 195 -123 39 -23 89 -55 112 -71 59 -43 99 -42 166 7 29 21 90 60 137 86 121 67 264 168 268 189 3 14 -8 10 -50 -18 -29 -19 -69 -44 -88 -55 -19 -11 -80 -49 -135 -84 -55 -36 -126 -81 -158 -101 -56 -34 -97 -45 -97 -26 0 5 -8 11 -17 15 -22 7 -50 25 -77 49 -11 9 -24 17 -28 17 -5 0 -61 35 -126 77 -64 43 -126 83 -137 89 -77 41 -156 98 -153 111 2 8 33 34 70 57 37 22 123 77 191 121 69 44 133 85 143 92 38 24 -3 12 -53 -16z" transform="translate(0,77) scale(0.1,-0.1)" stroke="none" fill="#1D4C5A"/>

</g>

</g>
</svg>