<?xml version="1.0" standalone="no"?>
<!DOCTYPE svg PUBLIC "-//W3C//DTD SVG 20010904//EN"
 "http://www.w3.org/TR/2001/REC-SVG-20010904/DTD/svg10.dtd">
<svg version="1.0" xmlns="http://www.w3.org/2000/svg" width="472pt" height="424pt" viewBox="0 0 472 424" preserveAspectRatio = "xMidYMid meet" >
<metadata>
Created by ZoeQu, written in 2022
</metadata>
<rect width="472" height="424" fill="#D8DCC0"/>
<g id="col0" transform="translate(0, 14)">
<g id="0" transform="translate(0,0.0)scale(0.8,0.8)">

<path d="M335 982 c-107 -37 -204 -132 -253 -248 -34 -83 -35 -231 -2 -319 67 -176 215 -279 430 -300 48 -4 94 -16 128 -32 82 -40 176 -38 263 4 123 60 219 191 219 298 0 66 -16 101 -77 166 -29 31 -52 70 -68 114 -59 161 -186 263 -394 316 -90 23 -179 23 -246 1z m289 -62 c98 -33 171 -78 222 -137 56 -65 73 -91 74 -115 0 -15 -9 -17 -77 -12 -66 5 -87 3 -137 -16 -74 -28 -141 -93 -182 -175 -25 -52 -29 -70 -28 -140 1 -53 7 -91 18 -112 29 -57 19 -63 -71 -42 -167 39 -286 150 -328 306 -45 167 43 363 195 436 86 41 209 44 314 7z" transform="translate(0,106) scale(0.1,-0.1)" stroke="none" fill="#A89BB9"/>

</g>

<g id="1" transform="translate(0,106.0)scale(0.8,0.8)">

<path d="M335 982 c-107 -37 -204 -132 -253 -248 -34 -83 -35 -231 -2 -319 67 -176 215 -279 430 -300 48 -4 94 -16 128 -32 82 -40 176 -38 263 4 123 60 219 191 219 298 0 66 -16 101 -77 166 -29 31 -52 70 -68 114 -59 161 -186 263 -394 316 -90 23 -179 23 -246 1z m289 -62 c98 -33 171 -78 222 -137 56 -65 73 -91 74 -115 0 -15 -9 -17 -77 -12 -66 5 -87 3 -137 -16 -74 -28 -141 -93 -182 -175 -25 -52 -29 -70 -28 -140 1 -53 7 -91 18 -112 29 -57 19 -63 -71 -42 -167 39 -286 150 -328 306 -45 167 43 363 195 436 86 41 209 44 314 7z" transform="translate(0,106) scale(0.1,-0.1)" stroke="none" fill="#A89BB9"/>

</g>

<g id="2" transform="translate(0,212.0)scale(0.8,0.8)">

<path d="M335 982 c-107 -37 -204 -132 -253 -248 -34 -83 -35 -231 -2 -319 67 -176 215 -279 430 -300 48 -4 94 -16 128 -32 82 -40 176 -38 263 4 123 60 219 191 219 298 0 66 -16 101 -77 166 -29 31 -52 70 -68 114 -59 161 -186 263 -394 316 -90 23 -179 23 -246 1z m289 -62 c98 -33 171 -78 222 -137 56 -65 73 -91 74 -115 0 -15 -9 -17 -77 -12 -66 5 -87 3 -137 -16 -74 -28 -141 -93 -182 -175 -25 -52 -29 -70 -28 -140 1 -53 7 -91 18 -112 29 -57 19 -63 -71 -42 -167 39 -286 150 -328 306 -45 167 43 363 195 436 86 41 209 44 314 7z" transform="translate(0,106) scale(0.1,-0.1)" stroke="none" fill="#A89BB9"/>

</g>

<g id="3" transform="translate(0,318.0)scale(0.8,0.8)">

<path d="M335 982 c-107 -37 -204 -132 -253 -248 -34 -83 -35 -231 -2 -319 67 -176 215 -279 430 -300 48 -4 94 -16 128 -32 82 -40 176 -38 263 4 123 60 219 191 219 298 0 66 -16 101 -77 166 -29 31 -52 70 -68 114 -59 161 -186 263 -394 316 -90 23 -179 23 -246 1z m289 -62 c98 -33 171 -78 222 -137 56 -65 73 -91 74 -115 0 -15 -9 -17 -77 -12 -66 5 -87 3 -137 -16 -74 -28 -141 -93 -182 -175 -25 -52 -29 -70 -28 -140 1 -53 7 -91 18 -112 29 -57 19 -63 -71 -42 -167 39 -286 150 -328 306 -45 167 43 363 195 436 86 41 209 44 314 7z" transform="translate(0,106) scale(0.1,-0.1)" stroke="none" fill="#A89BB9"/>

</g>

<g id="4" transform="translate(0,424.0)scale(0.8,0.8)">

<path d="M335 982 c-107 -37 -204 -132 -253 -248 -34 -83 -35 -231 -2 -319 67 -176 215 -279 430 -300 48 -4 94 -16 128 -32 82 -40 176 -38 263 4 123 60 219 191 219 298 0 66 -16 101 -77 166 -29 31 -52 70 -68 114 -59 161 -186 263 -394 316 -90 23 -179 23 -246 1z m289 -62 c98 -33 171 -78 222 -137 56 -65 73 -91 74 -115 0 -15 -9 -17 -77 -12 -66 5 -87 3 -137 -16 -74 -28 -141 -93 -182 -175 -25 -52 -29 -70 -28 -140 1 -53 7 -91 18 -112 29 -57 19 -63 -71 -42 -167 39 -286 150 -328 306 -45 167 43 363 195 436 86 41 209 44 314 7z" transform="translate(0,106) scale(0.1,-0.1)" stroke="none" fill="#A89BB9"/>

</g>

</g>
<g id="col1" transform="translate(118, -39.0)">
<g id="0" transform="translate(0,0.0)scale(0.8,0.8)">

<path d="M335 982 c-107 -37 -204 -132 -253 -248 -34 -83 -35 -231 -2 -319 67 -176 215 -279 430 -300 48 -4 94 -16 128 -32 82 -40 176 -38 263 4 123 60 219 191 219 298 0 66 -16 101 -77 166 -29 31 -52 70 -68 114 -59 161 -186 263 -394 316 -90 23 -179 23 -246 1z m289 -62 c98 -33 171 -78 222 -137 56 -65 73 -91 74 -115 0 -15 -9 -17 -77 -12 -66 5 -87 3 -137 -16 -74 -28 -141 -93 -182 -175 -25 -52 -29 -70 -28 -140 1 -53 7 -91 18 -112 29 -57 19 -63 -71 -42 -167 39 -286 150 -328 306 -45 167 43 363 195 436 86 41 209 44 314 7z" transform="translate(0,106) scale(0.1,-0.1)" stroke="none" fill="#A89BB9"/>

</g>

<g id="1" transform="translate(0,106.0)scale(0.8,0.8)">

<path d="M335 982 c-107 -37 -204 -132 -253 -248 -34 -83 -35 -231 -2 -319 67 -176 215 -279 430 -300 48 -4 94 -16 128 -32 82 -40 176 -38 263 4 123 60 219 191 219 298 0 66 -16 101 -77 166 -29 31 -52 70 -68 114 -59 161 -186 263 -394 316 -90 23 -179 23 -246 1z m289 -62 c98 -33 171 -78 222 -137 56 -65 73 -91 74 -115 0 -15 -9 -17 -77 -12 -66 5 -87 3 -137 -16 -74 -28 -141 -93 -182 -175 -25 -52 -29 -70 -28 -140 1 -53 7 -91 18 -112 29 -57 19 -63 -71 -42 -167 39 -286 150 -328 306 -45 167 43 363 195 436 86 41 209 44 314 7z" transform="translate(0,106) scale(0.1,-0.1)" stroke="none" fill="#A89BB9"/>

</g>

<g id="2" transform="translate(0,212.0)scale(0.8,0.8)">

<path d="M335 982 c-107 -37 -204 -132 -253 -248 -34 -83 -35 -231 -2 -319 67 -176 215 -279 430 -300 48 -4 94 -16 128 -32 82 -40 176 -38 263 4 123 60 219 191 219 298 0 66 -16 101 -77 166 -29 31 -52 70 -68 114 -59 161 -186 263 -394 316 -90 23 -179 23 -246 1z m289 -62 c98 -33 171 -78 222 -137 56 -65 73 -91 74 -115 0 -15 -9 -17 -77 -12 -66 5 -87 3 -137 -16 -74 -28 -141 -93 -182 -175 -25 -52 -29 -70 -28 -140 1 -53 7 -91 18 -112 29 -57 19 -63 -71 -42 -167 39 -286 150 -328 306 -45 167 43 363 195 436 86 41 209 44 314 7z" transform="translate(0,106) scale(0.1,-0.1)" stroke="none" fill="#A89BB9"/>

</g>

<g id="3" transform="translate(0,318.0)scale(0.8,0.8)">

<path d="M335 982 c-107 -37 -204 -132 -253 -248 -34 -83 -35 -231 -2 -319 67 -176 215 -279 430 -300 48 -4 94 -16 128 -32 82 -40 176 -38 263 4 123 60 219 191 219 298 0 66 -16 101 -77 166 -29 31 -52 70 -68 114 -59 161 -186 263 -394 316 -90 23 -179 23 -246 1z m289 -62 c98 -33 171 -78 222 -137 56 -65 73 -91 74 -115 0 -15 -9 -17 -77 -12 -66 5 -87 3 -137 -16 -74 -28 -141 -93 -182 -175 -25 -52 -29 -70 -28 -140 1 -53 7 -91 18 -112 29 -57 19 -63 -71 -42 -167 39 -286 150 -328 306 -45 167 43 363 195 436 86 41 209 44 314 7z" transform="translate(0,106) scale(0.1,-0.1)" stroke="none" fill="#A89BB9"/>

</g>

<g id="4" transform="translate(0,424.0)scale(0.8,0.8)">

<path d="M335 982 c-107 -37 -204 -132 -253 -248 -34 -83 -35 -231 -2 -319 67 -176 215 -279 430 -300 48 -4 94 -16 128 -32 82 -40 176 -38 263 4 123 60 219 191 219 298 0 66 -16 101 -77 166 -29 31 -52 70 -68 114 -59 161 -186 263 -394 316 -90 23 -179 23 -246 1z m289 -62 c98 -33 171 -78 222 -137 56 -65 73 -91 74 -115 0 -15 -9 -17 -77 -12 -66 5 -87 3 -137 -16 -74 -28 -141 -93 -182 -175 -25 -52 -29 -70 -28 -140 1 -53 7 -91 18 -112 29 -57 19 -63 -71 -42 -167 39 -286 150 -328 306 -45 167 43 363 195 436 86 41 209 44 314 7z" transform="translate(0,106) scale(0.1,-0.1)" stroke="none" fill="#A89BB9"/>

</g>

</g>
<g id="col2" transform="translate(236, 14)">
<g id="0" transform="translate(0,0.0)scale(0.8,0.8)">

<path d="M335 982 c-107 -37 -204 -132 -253 -248 -34 -83 -35 -231 -2 -319 67 -176 215 -279 430 -300 48 -4 94 -16 128 -32 82 -40 176 -38 263 4 123 60 219 191 219 298 0 66 -16 101 -77 166 -29 31 -52 70 -68 114 -59 161 -186 263 -394 316 -90 23 -179 23 -246 1z m289 -62 c98 -33 171 -78 222 -137 56 -65 73 -91 74 -115 0 -15 -9 -17 -77 -12 -66 5 -87 3 -137 -16 -74 -28 -141 -93 -182 -175 -25 -52 -29 -70 -28 -140 1 -53 7 -91 18 -112 29 -57 19 -63 -71 -42 -167 39 -286 150 -328 306 -45 167 43 363 195 436 86 41 209 44 314 7z" transform="translate(0,106) scale(0.1,-0.1)" stroke="none" fill="#A89BB9"/>

</g>

<g id="1" transform="translate(0,106.0)scale(0.8,0.8)">

<path d="M335 982 c-107 -37 -204 -132 -253 -248 -34 -83 -35 -231 -2 -319 67 -176 215 -279 430 -300 48 -4 94 -16 128 -32 82 -40 176 -38 263 4 123 60 219 191 219 298 0 66 -16 101 -77 166 -29 31 -52 70 -68 114 -59 161 -186 263 -394 316 -90 23 -179 23 -246 1z m289 -62 c98 -33 171 -78 222 -137 56 -65 73 -91 74 -115 0 -15 -9 -17 -77 -12 -66 5 -87 3 -137 -16 -74 -28 -141 -93 -182 -175 -25 -52 -29 -70 -28 -140 1 -53 7 -91 18 -112 29 -57 19 -63 -71 -42 -167 39 -286 150 -328 306 -45 167 43 363 195 436 86 41 209 44 314 7z" transform="translate(0,106) scale(0.1,-0.1)" stroke="none" fill="#A89BB9"/>

</g>

<g id="2" transform="translate(0,212.0)scale(0.8,0.8)">

<path d="M335 982 c-107 -37 -204 -132 -253 -248 -34 -83 -35 -231 -2 -319 67 -176 215 -279 430 -300 48 -4 94 -16 128 -32 82 -40 176 -38 263 4 123 60 219 191 219 298 0 66 -16 101 -77 166 -29 31 -52 70 -68 114 -59 161 -186 263 -394 316 -90 23 -179 23 -246 1z m289 -62 c98 -33 171 -78 222 -137 56 -65 73 -91 74 -115 0 -15 -9 -17 -77 -12 -66 5 -87 3 -137 -16 -74 -28 -141 -93 -182 -175 -25 -52 -29 -70 -28 -140 1 -53 7 -91 18 -112 29 -57 19 -63 -71 -42 -167 39 -286 150 -328 306 -45 167 43 363 195 436 86 41 209 44 314 7z" transform="translate(0,106) scale(0.1,-0.1)" stroke="none" fill="#A89BB9"/>

</g>

<g id="3" transform="translate(0,318.0)scale(0.8,0.8)">

<path d="M335 982 c-107 -37 -204 -132 -253 -248 -34 -83 -35 -231 -2 -319 67 -176 215 -279 430 -300 48 -4 94 -16 128 -32 82 -40 176 -38 263 4 123 60 219 191 219 298 0 66 -16 101 -77 166 -29 31 -52 70 -68 114 -59 161 -186 263 -394 316 -90 23 -179 23 -246 1z m289 -62 c98 -33 171 -78 222 -137 56 -65 73 -91 74 -115 0 -15 -9 -17 -77 -12 -66 5 -87 3 -137 -16 -74 -28 -141 -93 -182 -175 -25 -52 -29 -70 -28 -140 1 -53 7 -91 18 -112 29 -57 19 -63 -71 -42 -167 39 -286 150 -328 306 -45 167 43 363 195 436 86 41 209 44 314 7z" transform="translate(0,106) scale(0.1,-0.1)" stroke="none" fill="#A89BB9"/>

</g>

<g id="4" transform="translate(0,424.0)scale(0.8,0.8)">

<path d="M335 982 c-107 -37 -204 -132 -253 -248 -34 -83 -35 -231 -2 -319 67 -176 215 -279 430 -300 48 -4 94 -16 128 -32 82 -40 176 -38 263 4 123 60 219 191 219 298 0 66 -16 101 -77 166 -29 31 -52 70 -68 114 -59 161 -186 263 -394 316 -90 23 -179 23 -246 1z m289 -62 c98 -33 171 -78 222 -137 56 -65 73 -91 74 -115 0 -15 -9 -17 -77 -12 -66 5 -87 3 -137 -16 -74 -28 -141 -93 -182 -175 -25 -52 -29 -70 -28 -140 1 -53 7 -91 18 -112 29 -57 19 -63 -71 -42 -167 39 -286 150 -328 306 -45 167 43 363 195 436 86 41 209 44 314 7z" transform="translate(0,106) scale(0.1,-0.1)" stroke="none" fill="#A89BB9"/>

</g>

</g>
<g id="col3" transform="translate(354, -39.0)">
<g id="0" transform="translate(0,0.0)scale(0.8,0.8)">

<path d="M335 982 c-107 -37 -204 -132 -253 -248 -34 -83 -35 -231 -2 -319 67 -176 215 -279 430 -300 48 -4 94 -16 128 -32 82 -40 176 -38 263 4 123 60 219 191 219 298 0 66 -16 101 -77 166 -29 31 -52 70 -68 114 -59 161 -186 263 -394 316 -90 23 -179 23 -246 1z m289 -62 c98 -33 171 -78 222 -137 56 -65 73 -91 74 -115 0 -15 -9 -17 -77 -12 -66 5 -87 3 -137 -16 -74 -28 -141 -93 -182 -175 -25 -52 -29 -70 -28 -140 1 -53 7 -91 18 -112 29 -57 19 -63 -71 -42 -167 39 -286 150 -328 306 -45 167 43 363 195 436 86 41 209 44 314 7z" transform="translate(0,106) scale(0.1,-0.1)" stroke="none" fill="#A89BB9"/>

</g>

<g id="1" transform="translate(0,106.0)scale(0.8,0.8)">

<path d="M335 982 c-107 -37 -204 -132 -253 -248 -34 -83 -35 -231 -2 -319 67 -176 215 -279 430 -300 48 -4 94 -16 128 -32 82 -40 176 -38 263 4 123 60 219 191 219 298 0 66 -16 101 -77 166 -29 31 -52 70 -68 114 -59 161 -186 263 -394 316 -90 23 -179 23 -246 1z m289 -62 c98 -33 171 -78 222 -137 56 -65 73 -91 74 -115 0 -15 -9 -17 -77 -12 -66 5 -87 3 -137 -16 -74 -28 -141 -93 -182 -175 -25 -52 -29 -70 -28 -140 1 -53 7 -91 18 -112 29 -57 19 -63 -71 -42 -167 39 -286 150 -328 306 -45 167 43 363 195 436 86 41 209 44 314 7z" transform="translate(0,106) scale(0.1,-0.1)" stroke="none" fill="#A89BB9"/>

</g>

<g id="2" transform="translate(0,212.0)scale(0.8,0.8)">

<path d="M335 982 c-107 -37 -204 -132 -253 -248 -34 -83 -35 -231 -2 -319 67 -176 215 -279 430 -300 48 -4 94 -16 128 -32 82 -40 176 -38 263 4 123 60 219 191 219 298 0 66 -16 101 -77 166 -29 31 -52 70 -68 114 -59 161 -186 263 -394 316 -90 23 -179 23 -246 1z m289 -62 c98 -33 171 -78 222 -137 56 -65 73 -91 74 -115 0 -15 -9 -17 -77 -12 -66 5 -87 3 -137 -16 -74 -28 -141 -93 -182 -175 -25 -52 -29 -70 -28 -140 1 -53 7 -91 18 -112 29 -57 19 -63 -71 -42 -167 39 -286 150 -328 306 -45 167 43 363 195 436 86 41 209 44 314 7z" transform="translate(0,106) scale(0.1,-0.1)" stroke="none" fill="#A89BB9"/>

</g>

<g id="3" transform="translate(0,318.0)scale(0.8,0.8)">

<path d="M335 982 c-107 -37 -204 -132 -253 -248 -34 -83 -35 -231 -2 -319 67 -176 215 -279 430 -300 48 -4 94 -16 128 -32 82 -40 176 -38 263 4 123 60 219 191 219 298 0 66 -16 101 -77 166 -29 31 -52 70 -68 114 -59 161 -186 263 -394 316 -90 23 -179 23 -246 1z m289 -62 c98 -33 171 -78 222 -137 56 -65 73 -91 74 -115 0 -15 -9 -17 -77 -12 -66 5 -87 3 -137 -16 -74 -28 -141 -93 -182 -175 -25 -52 -29 -70 -28 -140 1 -53 7 -91 18 -112 29 -57 19 -63 -71 -42 -167 39 -286 150 -328 306 -45 167 43 363 195 436 86 41 209 44 314 7z" transform="translate(0,106) scale(0.1,-0.1)" stroke="none" fill="#A89BB9"/>

</g>

<g id="4" transform="translate(0,424.0)scale(0.8,0.8)">

<path d="M335 982 c-107 -37 -204 -132 -253 -248 -34 -83 -35 -231 -2 -319 67 -176 215 -279 430 -300 48 -4 94 -16 128 -32 82 -40 176 -38 263 4 123 60 219 191 219 298 0 66 -16 101 -77 166 -29 31 -52 70 -68 114 -59 161 -186 263 -394 316 -90 23 -179 23 -246 1z m289 -62 c98 -33 171 -78 222 -137 56 -65 73 -91 74 -115 0 -15 -9 -17 -77 -12 -66 5 -87 3 -137 -16 -74 -28 -141 -93 -182 -175 -25 -52 -29 -70 -28 -140 1 -53 7 -91 18 -112 29 -57 19 -63 -71 -42 -167 39 -286 150 -328 306 -45 167 43 363 195 436 86 41 209 44 314 7z" transform="translate(0,106) scale(0.1,-0.1)" stroke="none" fill="#A89BB9"/>

</g>

</g>
</svg>