<?xml version="1.0" standalone="no"?>
<!DOCTYPE svg PUBLIC "-//W3C//DTD SVG 20010904//EN"
 "http://www.w3.org/TR/2001/REC-SVG-20010904/DTD/svg10.dtd">
<svg version="1.0" xmlns="http://www.w3.org/2000/svg" width="5400pt" height="5400pt" viewBox="0 0 5400 5400" preserveAspectRatio = "xMidYMid meet" >
<metadata>
Created by ZoeQu, written in 2022
</metadata>
<rect width="5400" height="5400" fill="#324144"/>
<g id="row0" transform="translate(0,0.0)">
<g id="0" transform="translate(0.0,0)scale(0.25,0.25)">

<g id="pattern">
<rect width="5850" height="5850" fill="#324144"/>
<g id="pattern1" transform="matrix(1,0,0,1,364,364)">
<path d="M335 982 c-107 -37 -204 -132 -253 -248 -34 -83 -35 -231 -2 -319 67 -176 215 -279 430 -300 48 -4 94 -16 128 -32 82 -40 176 -38 263 4 123 60 219 191 219 298 0 66 -16 101 -77 166 -29 31 -52 70 -68 114 -59 161 -186 263 -394 316 -90 23 -179 23 -246 1z m289 -62 c98 -33 171 -78 222 -137 56 -65 73 -91 74 -115 0 -15 -9 -17 -77 -12 -66 5 -87 3 -137 -16 -74 -28 -141 -93 -182 -175 -25 -52 -29 -70 -28 -140 1 -53 7 -91 18 -112 29 -57 19 -63 -71 -42 -167 39 -286 150 -328 306 -45 167 43 363 195 436 86 41 209 44 314 7z" transform="translate(0.000000,0.000000) scale(1,1)" stroke="none" fill="#617376"/>
</g>
<g id="pattern2" transform="matrix(0.618,0,0,0.618,2772,814)">
<path d="M335 982 c-107 -37 -204 -132 -253 -248 -34 -83 -35 -231 -2 -319 67 -176 215 -279 430 -300 48 -4 94 -16 128 -32 82 -40 176 -38 263 4 123 60 219 191 219 298 0 66 -16 101 -77 166 -29 31 -52 70 -68 114 -59 161 -186 263 -394 316 -90 23 -179 23 -246 1z m289 -62 c98 -33 171 -78 222 -137 56 -65 73 -91 74 -115 0 -15 -9 -17 -77 -12 -66 5 -87 3 -137 -16 -74 -28 -141 -93 -182 -175 -25 -52 -29 -70 -28 -140 1 -53 7 -91 18 -112 29 -57 19 -63 -71 -42 -167 39 -286 150 -328 306 -45 167 43 363 195 436 86 41 209 44 314 7z" transform="translate(3672,0.000000) scale(-1,1)" stroke="none" fill="#617376"/>
</g>
<g id="pattern3" transform="matrix(0.618,0,0,0.618,1039,3672)matrix(0.71,0.71,-0.71,0.71,0,0)">
<path d="M335 982 c-107 -37 -204 -132 -253 -248 -34 -83 -35 -231 -2 -319 67 -176 215 -279 430 -300 48 -4 94 -16 128 -32 82 -40 176 -38 263 4 123 60 219 191 219 298 0 66 -16 101 -77 166 -29 31 -52 70 -68 114 -59 161 -186 263 -394 316 -90 23 -179 23 -246 1z m289 -62 c98 -33 171 -78 222 -137 56 -65 73 -91 74 -115 0 -15 -9 -17 -77 -12 -66 5 -87 3 -137 -16 -74 -28 -141 -93 -182 -175 -25 -52 -29 -70 -28 -140 1 -53 7 -91 18 -112 29 -57 19 -63 -71 -42 -167 39 -286 150 -328 306 -45 167 43 363 195 436 86 41 209 44 314 7z" transform="translate(589,-589) scale(1,1)" stroke="none" fill="#617376"/>
</g>
<g id="pattern4" transform="matrix(1.618,0,0,1.618,1540,1540)matrix(0.87,0.5,-0.5,0.87,0,0)">
<path d="M335 982 c-107 -37 -204 -132 -253 -248 -34 -83 -35 -231 -2 -319 67 -176 215 -279 430 -300 48 -4 94 -16 128 -32 82 -40 176 -38 263 4 123 60 219 191 219 298 0 66 -16 101 -77 166 -29 31 -52 70 -68 114 -59 161 -186 263 -394 316 -90 23 -179 23 -246 1z m289 -62 c98 -33 171 -78 222 -137 56 -65 73 -91 74 -115 0 -15 -9 -17 -77 -12 -66 5 -87 3 -137 -16 -74 -28 -141 -93 -182 -175 -25 -52 -29 -70 -28 -140 1 -53 7 -91 18 -112 29 -57 19 -63 -71 -42 -167 39 -286 150 -328 306 -45 167 43 363 195 436 86 41 209 44 314 7z" transform="translate(589,-589) scale(1,1)" stroke="none" fill="#617376"/>
</g>
</g>
</g>

<g id="1" transform="translate(1350.0,0)scale(0.25,0.25)">

<g id="pattern">
<rect width="5850" height="5850" fill="#324144"/>
<g id="pattern1" transform="matrix(1,0,0,1,364,364)">
<path d="M335 982 c-107 -37 -204 -132 -253 -248 -34 -83 -35 -231 -2 -319 67 -176 215 -279 430 -300 48 -4 94 -16 128 -32 82 -40 176 -38 263 4 123 60 219 191 219 298 0 66 -16 101 -77 166 -29 31 -52 70 -68 114 -59 161 -186 263 -394 316 -90 23 -179 23 -246 1z m289 -62 c98 -33 171 -78 222 -137 56 -65 73 -91 74 -115 0 -15 -9 -17 -77 -12 -66 5 -87 3 -137 -16 -74 -28 -141 -93 -182 -175 -25 -52 -29 -70 -28 -140 1 -53 7 -91 18 -112 29 -57 19 -63 -71 -42 -167 39 -286 150 -328 306 -45 167 43 363 195 436 86 41 209 44 314 7z" transform="translate(0.000000,0.000000) scale(1,1)" stroke="none" fill="#617376"/>
</g>
<g id="pattern2" transform="matrix(0.618,0,0,0.618,2772,814)">
<path d="M335 982 c-107 -37 -204 -132 -253 -248 -34 -83 -35 -231 -2 -319 67 -176 215 -279 430 -300 48 -4 94 -16 128 -32 82 -40 176 -38 263 4 123 60 219 191 219 298 0 66 -16 101 -77 166 -29 31 -52 70 -68 114 -59 161 -186 263 -394 316 -90 23 -179 23 -246 1z m289 -62 c98 -33 171 -78 222 -137 56 -65 73 -91 74 -115 0 -15 -9 -17 -77 -12 -66 5 -87 3 -137 -16 -74 -28 -141 -93 -182 -175 -25 -52 -29 -70 -28 -140 1 -53 7 -91 18 -112 29 -57 19 -63 -71 -42 -167 39 -286 150 -328 306 -45 167 43 363 195 436 86 41 209 44 314 7z" transform="translate(3672,0.000000) scale(-1,1)" stroke="none" fill="#617376"/>
</g>
<g id="pattern3" transform="matrix(0.618,0,0,0.618,1039,3672)matrix(0.71,0.71,-0.71,0.71,0,0)">
<path d="M335 982 c-107 -37 -204 -132 -253 -248 -34 -83 -35 -231 -2 -319 67 -176 215 -279 430 -300 48 -4 94 -16 128 -32 82 -40 176 -38 263 4 123 60 219 191 219 298 0 66 -16 101 -77 166 -29 31 -52 70 -68 114 -59 161 -186 263 -394 316 -90 23 -179 23 -246 1z m289 -62 c98 -33 171 -78 222 -137 56 -65 73 -91 74 -115 0 -15 -9 -17 -77 -12 -66 5 -87 3 -137 -16 -74 -28 -141 -93 -182 -175 -25 -52 -29 -70 -28 -140 1 -53 7 -91 18 -112 29 -57 19 -63 -71 -42 -167 39 -286 150 -328 306 -45 167 43 363 195 436 86 41 209 44 314 7z" transform="translate(589,-589) scale(1,1)" stroke="none" fill="#617376"/>
</g>
<g id="pattern4" transform="matrix(1.618,0,0,1.618,1540,1540)matrix(0.87,0.5,-0.5,0.87,0,0)">
<path d="M335 982 c-107 -37 -204 -132 -253 -248 -34 -83 -35 -231 -2 -319 67 -176 215 -279 430 -300 48 -4 94 -16 128 -32 82 -40 176 -38 263 4 123 60 219 191 219 298 0 66 -16 101 -77 166 -29 31 -52 70 -68 114 -59 161 -186 263 -394 316 -90 23 -179 23 -246 1z m289 -62 c98 -33 171 -78 222 -137 56 -65 73 -91 74 -115 0 -15 -9 -17 -77 -12 -66 5 -87 3 -137 -16 -74 -28 -141 -93 -182 -175 -25 -52 -29 -70 -28 -140 1 -53 7 -91 18 -112 29 -57 19 -63 -71 -42 -167 39 -286 150 -328 306 -45 167 43 363 195 436 86 41 209 44 314 7z" transform="translate(589,-589) scale(1,1)" stroke="none" fill="#617376"/>
</g>
</g>
</g>

<g id="2" transform="translate(2700.0,0)scale(0.25,0.25)">

<g id="pattern">
<rect width="5850" height="5850" fill="#324144"/>
<g id="pattern1" transform="matrix(1,0,0,1,364,364)">
<path d="M335 982 c-107 -37 -204 -132 -253 -248 -34 -83 -35 -231 -2 -319 67 -176 215 -279 430 -300 48 -4 94 -16 128 -32 82 -40 176 -38 263 4 123 60 219 191 219 298 0 66 -16 101 -77 166 -29 31 -52 70 -68 114 -59 161 -186 263 -394 316 -90 23 -179 23 -246 1z m289 -62 c98 -33 171 -78 222 -137 56 -65 73 -91 74 -115 0 -15 -9 -17 -77 -12 -66 5 -87 3 -137 -16 -74 -28 -141 -93 -182 -175 -25 -52 -29 -70 -28 -140 1 -53 7 -91 18 -112 29 -57 19 -63 -71 -42 -167 39 -286 150 -328 306 -45 167 43 363 195 436 86 41 209 44 314 7z" transform="translate(0.000000,0.000000) scale(1,1)" stroke="none" fill="#617376"/>
</g>
<g id="pattern2" transform="matrix(0.618,0,0,0.618,2772,814)">
<path d="M335 982 c-107 -37 -204 -132 -253 -248 -34 -83 -35 -231 -2 -319 67 -176 215 -279 430 -300 48 -4 94 -16 128 -32 82 -40 176 -38 263 4 123 60 219 191 219 298 0 66 -16 101 -77 166 -29 31 -52 70 -68 114 -59 161 -186 263 -394 316 -90 23 -179 23 -246 1z m289 -62 c98 -33 171 -78 222 -137 56 -65 73 -91 74 -115 0 -15 -9 -17 -77 -12 -66 5 -87 3 -137 -16 -74 -28 -141 -93 -182 -175 -25 -52 -29 -70 -28 -140 1 -53 7 -91 18 -112 29 -57 19 -63 -71 -42 -167 39 -286 150 -328 306 -45 167 43 363 195 436 86 41 209 44 314 7z" transform="translate(3672,0.000000) scale(-1,1)" stroke="none" fill="#617376"/>
</g>
<g id="pattern3" transform="matrix(0.618,0,0,0.618,1039,3672)matrix(0.71,0.71,-0.71,0.71,0,0)">
<path d="M335 982 c-107 -37 -204 -132 -253 -248 -34 -83 -35 -231 -2 -319 67 -176 215 -279 430 -300 48 -4 94 -16 128 -32 82 -40 176 -38 263 4 123 60 219 191 219 298 0 66 -16 101 -77 166 -29 31 -52 70 -68 114 -59 161 -186 263 -394 316 -90 23 -179 23 -246 1z m289 -62 c98 -33 171 -78 222 -137 56 -65 73 -91 74 -115 0 -15 -9 -17 -77 -12 -66 5 -87 3 -137 -16 -74 -28 -141 -93 -182 -175 -25 -52 -29 -70 -28 -140 1 -53 7 -91 18 -112 29 -57 19 -63 -71 -42 -167 39 -286 150 -328 306 -45 167 43 363 195 436 86 41 209 44 314 7z" transform="translate(589,-589) scale(1,1)" stroke="none" fill="#617376"/>
</g>
<g id="pattern4" transform="matrix(1.618,0,0,1.618,1540,1540)matrix(0.87,0.5,-0.5,0.87,0,0)">
<path d="M335 982 c-107 -37 -204 -132 -253 -248 -34 -83 -35 -231 -2 -319 67 -176 215 -279 430 -300 48 -4 94 -16 128 -32 82 -40 176 -38 263 4 123 60 219 191 219 298 0 66 -16 101 -77 166 -29 31 -52 70 -68 114 -59 161 -186 263 -394 316 -90 23 -179 23 -246 1z m289 -62 c98 -33 171 -78 222 -137 56 -65 73 -91 74 -115 0 -15 -9 -17 -77 -12 -66 5 -87 3 -137 -16 -74 -28 -141 -93 -182 -175 -25 -52 -29 -70 -28 -140 1 -53 7 -91 18 -112 29 -57 19 -63 -71 -42 -167 39 -286 150 -328 306 -45 167 43 363 195 436 86 41 209 44 314 7z" transform="translate(589,-589) scale(1,1)" stroke="none" fill="#617376"/>
</g>
</g>
</g>

<g id="3" transform="translate(4050.0,0)scale(0.25,0.25)">

<g id="pattern">
<rect width="5850" height="5850" fill="#324144"/>
<g id="pattern1" transform="matrix(1,0,0,1,364,364)">
<path d="M335 982 c-107 -37 -204 -132 -253 -248 -34 -83 -35 -231 -2 -319 67 -176 215 -279 430 -300 48 -4 94 -16 128 -32 82 -40 176 -38 263 4 123 60 219 191 219 298 0 66 -16 101 -77 166 -29 31 -52 70 -68 114 -59 161 -186 263 -394 316 -90 23 -179 23 -246 1z m289 -62 c98 -33 171 -78 222 -137 56 -65 73 -91 74 -115 0 -15 -9 -17 -77 -12 -66 5 -87 3 -137 -16 -74 -28 -141 -93 -182 -175 -25 -52 -29 -70 -28 -140 1 -53 7 -91 18 -112 29 -57 19 -63 -71 -42 -167 39 -286 150 -328 306 -45 167 43 363 195 436 86 41 209 44 314 7z" transform="translate(0.000000,0.000000) scale(1,1)" stroke="none" fill="#617376"/>
</g>
<g id="pattern2" transform="matrix(0.618,0,0,0.618,2772,814)">
<path d="M335 982 c-107 -37 -204 -132 -253 -248 -34 -83 -35 -231 -2 -319 67 -176 215 -279 430 -300 48 -4 94 -16 128 -32 82 -40 176 -38 263 4 123 60 219 191 219 298 0 66 -16 101 -77 166 -29 31 -52 70 -68 114 -59 161 -186 263 -394 316 -90 23 -179 23 -246 1z m289 -62 c98 -33 171 -78 222 -137 56 -65 73 -91 74 -115 0 -15 -9 -17 -77 -12 -66 5 -87 3 -137 -16 -74 -28 -141 -93 -182 -175 -25 -52 -29 -70 -28 -140 1 -53 7 -91 18 -112 29 -57 19 -63 -71 -42 -167 39 -286 150 -328 306 -45 167 43 363 195 436 86 41 209 44 314 7z" transform="translate(3672,0.000000) scale(-1,1)" stroke="none" fill="#617376"/>
</g>
<g id="pattern3" transform="matrix(0.618,0,0,0.618,1039,3672)matrix(0.71,0.71,-0.71,0.71,0,0)">
<path d="M335 982 c-107 -37 -204 -132 -253 -248 -34 -83 -35 -231 -2 -319 67 -176 215 -279 430 -300 48 -4 94 -16 128 -32 82 -40 176 -38 263 4 123 60 219 191 219 298 0 66 -16 101 -77 166 -29 31 -52 70 -68 114 -59 161 -186 263 -394 316 -90 23 -179 23 -246 1z m289 -62 c98 -33 171 -78 222 -137 56 -65 73 -91 74 -115 0 -15 -9 -17 -77 -12 -66 5 -87 3 -137 -16 -74 -28 -141 -93 -182 -175 -25 -52 -29 -70 -28 -140 1 -53 7 -91 18 -112 29 -57 19 -63 -71 -42 -167 39 -286 150 -328 306 -45 167 43 363 195 436 86 41 209 44 314 7z" transform="translate(589,-589) scale(1,1)" stroke="none" fill="#617376"/>
</g>
<g id="pattern4" transform="matrix(1.618,0,0,1.618,1540,1540)matrix(0.87,0.5,-0.5,0.87,0,0)">
<path d="M335 982 c-107 -37 -204 -132 -253 -248 -34 -83 -35 -231 -2 -319 67 -176 215 -279 430 -300 48 -4 94 -16 128 -32 82 -40 176 -38 263 4 123 60 219 191 219 298 0 66 -16 101 -77 166 -29 31 -52 70 -68 114 -59 161 -186 263 -394 316 -90 23 -179 23 -246 1z m289 -62 c98 -33 171 -78 222 -137 56 -65 73 -91 74 -115 0 -15 -9 -17 -77 -12 -66 5 -87 3 -137 -16 -74 -28 -141 -93 -182 -175 -25 -52 -29 -70 -28 -140 1 -53 7 -91 18 -112 29 -57 19 -63 -71 -42 -167 39 -286 150 -328 306 -45 167 43 363 195 436 86 41 209 44 314 7z" transform="translate(589,-589) scale(1,1)" stroke="none" fill="#617376"/>
</g>
</g>
</g>

<g id="4" transform="translate(5400.0,0)scale(0.25,0.25)">

<g id="pattern">
<rect width="5850" height="5850" fill="#324144"/>
<g id="pattern1" transform="matrix(1,0,0,1,364,364)">
<path d="M335 982 c-107 -37 -204 -132 -253 -248 -34 -83 -35 -231 -2 -319 67 -176 215 -279 430 -300 48 -4 94 -16 128 -32 82 -40 176 -38 263 4 123 60 219 191 219 298 0 66 -16 101 -77 166 -29 31 -52 70 -68 114 -59 161 -186 263 -394 316 -90 23 -179 23 -246 1z m289 -62 c98 -33 171 -78 222 -137 56 -65 73 -91 74 -115 0 -15 -9 -17 -77 -12 -66 5 -87 3 -137 -16 -74 -28 -141 -93 -182 -175 -25 -52 -29 -70 -28 -140 1 -53 7 -91 18 -112 29 -57 19 -63 -71 -42 -167 39 -286 150 -328 306 -45 167 43 363 195 436 86 41 209 44 314 7z" transform="translate(0.000000,0.000000) scale(1,1)" stroke="none" fill="#617376"/>
</g>
<g id="pattern2" transform="matrix(0.618,0,0,0.618,2772,814)">
<path d="M335 982 c-107 -37 -204 -132 -253 -248 -34 -83 -35 -231 -2 -319 67 -176 215 -279 430 -300 48 -4 94 -16 128 -32 82 -40 176 -38 263 4 123 60 219 191 219 298 0 66 -16 101 -77 166 -29 31 -52 70 -68 114 -59 161 -186 263 -394 316 -90 23 -179 23 -246 1z m289 -62 c98 -33 171 -78 222 -137 56 -65 73 -91 74 -115 0 -15 -9 -17 -77 -12 -66 5 -87 3 -137 -16 -74 -28 -141 -93 -182 -175 -25 -52 -29 -70 -28 -140 1 -53 7 -91 18 -112 29 -57 19 -63 -71 -42 -167 39 -286 150 -328 306 -45 167 43 363 195 436 86 41 209 44 314 7z" transform="translate(3672,0.000000) scale(-1,1)" stroke="none" fill="#617376"/>
</g>
<g id="pattern3" transform="matrix(0.618,0,0,0.618,1039,3672)matrix(0.71,0.71,-0.71,0.71,0,0)">
<path d="M335 982 c-107 -37 -204 -132 -253 -248 -34 -83 -35 -231 -2 -319 67 -176 215 -279 430 -300 48 -4 94 -16 128 -32 82 -40 176 -38 263 4 123 60 219 191 219 298 0 66 -16 101 -77 166 -29 31 -52 70 -68 114 -59 161 -186 263 -394 316 -90 23 -179 23 -246 1z m289 -62 c98 -33 171 -78 222 -137 56 -65 73 -91 74 -115 0 -15 -9 -17 -77 -12 -66 5 -87 3 -137 -16 -74 -28 -141 -93 -182 -175 -25 -52 -29 -70 -28 -140 1 -53 7 -91 18 -112 29 -57 19 -63 -71 -42 -167 39 -286 150 -328 306 -45 167 43 363 195 436 86 41 209 44 314 7z" transform="translate(589,-589) scale(1,1)" stroke="none" fill="#617376"/>
</g>
<g id="pattern4" transform="matrix(1.618,0,0,1.618,1540,1540)matrix(0.87,0.5,-0.5,0.87,0,0)">
<path d="M335 982 c-107 -37 -204 -132 -253 -248 -34 -83 -35 -231 -2 -319 67 -176 215 -279 430 -300 48 -4 94 -16 128 -32 82 -40 176 -38 263 4 123 60 219 191 219 298 0 66 -16 101 -77 166 -29 31 -52 70 -68 114 -59 161 -186 263 -394 316 -90 23 -179 23 -246 1z m289 -62 c98 -33 171 -78 222 -137 56 -65 73 -91 74 -115 0 -15 -9 -17 -77 -12 -66 5 -87 3 -137 -16 -74 -28 -141 -93 -182 -175 -25 -52 -29 -70 -28 -140 1 -53 7 -91 18 -112 29 -57 19 -63 -71 -42 -167 39 -286 150 -328 306 -45 167 43 363 195 436 86 41 209 44 314 7z" transform="translate(589,-589) scale(1,1)" stroke="none" fill="#617376"/>
</g>
</g>
</g>

</g>
<g id="row1" transform="translate(0,1350.0)">
<g id="0" transform="translate(0.0,0)scale(0.25,0.25)">

<g id="pattern">
<rect width="5850" height="5850" fill="#324144"/>
<g id="pattern1" transform="matrix(1,0,0,1,364,364)">
<path d="M335 982 c-107 -37 -204 -132 -253 -248 -34 -83 -35 -231 -2 -319 67 -176 215 -279 430 -300 48 -4 94 -16 128 -32 82 -40 176 -38 263 4 123 60 219 191 219 298 0 66 -16 101 -77 166 -29 31 -52 70 -68 114 -59 161 -186 263 -394 316 -90 23 -179 23 -246 1z m289 -62 c98 -33 171 -78 222 -137 56 -65 73 -91 74 -115 0 -15 -9 -17 -77 -12 -66 5 -87 3 -137 -16 -74 -28 -141 -93 -182 -175 -25 -52 -29 -70 -28 -140 1 -53 7 -91 18 -112 29 -57 19 -63 -71 -42 -167 39 -286 150 -328 306 -45 167 43 363 195 436 86 41 209 44 314 7z" transform="translate(0.000000,0.000000) scale(1,1)" stroke="none" fill="#617376"/>
</g>
<g id="pattern2" transform="matrix(0.618,0,0,0.618,2772,814)">
<path d="M335 982 c-107 -37 -204 -132 -253 -248 -34 -83 -35 -231 -2 -319 67 -176 215 -279 430 -300 48 -4 94 -16 128 -32 82 -40 176 -38 263 4 123 60 219 191 219 298 0 66 -16 101 -77 166 -29 31 -52 70 -68 114 -59 161 -186 263 -394 316 -90 23 -179 23 -246 1z m289 -62 c98 -33 171 -78 222 -137 56 -65 73 -91 74 -115 0 -15 -9 -17 -77 -12 -66 5 -87 3 -137 -16 -74 -28 -141 -93 -182 -175 -25 -52 -29 -70 -28 -140 1 -53 7 -91 18 -112 29 -57 19 -63 -71 -42 -167 39 -286 150 -328 306 -45 167 43 363 195 436 86 41 209 44 314 7z" transform="translate(3672,0.000000) scale(-1,1)" stroke="none" fill="#617376"/>
</g>
<g id="pattern3" transform="matrix(0.618,0,0,0.618,1039,3672)matrix(0.71,0.71,-0.71,0.71,0,0)">
<path d="M335 982 c-107 -37 -204 -132 -253 -248 -34 -83 -35 -231 -2 -319 67 -176 215 -279 430 -300 48 -4 94 -16 128 -32 82 -40 176 -38 263 4 123 60 219 191 219 298 0 66 -16 101 -77 166 -29 31 -52 70 -68 114 -59 161 -186 263 -394 316 -90 23 -179 23 -246 1z m289 -62 c98 -33 171 -78 222 -137 56 -65 73 -91 74 -115 0 -15 -9 -17 -77 -12 -66 5 -87 3 -137 -16 -74 -28 -141 -93 -182 -175 -25 -52 -29 -70 -28 -140 1 -53 7 -91 18 -112 29 -57 19 -63 -71 -42 -167 39 -286 150 -328 306 -45 167 43 363 195 436 86 41 209 44 314 7z" transform="translate(589,-589) scale(1,1)" stroke="none" fill="#617376"/>
</g>
<g id="pattern4" transform="matrix(1.618,0,0,1.618,1540,1540)matrix(0.87,0.5,-0.5,0.87,0,0)">
<path d="M335 982 c-107 -37 -204 -132 -253 -248 -34 -83 -35 -231 -2 -319 67 -176 215 -279 430 -300 48 -4 94 -16 128 -32 82 -40 176 -38 263 4 123 60 219 191 219 298 0 66 -16 101 -77 166 -29 31 -52 70 -68 114 -59 161 -186 263 -394 316 -90 23 -179 23 -246 1z m289 -62 c98 -33 171 -78 222 -137 56 -65 73 -91 74 -115 0 -15 -9 -17 -77 -12 -66 5 -87 3 -137 -16 -74 -28 -141 -93 -182 -175 -25 -52 -29 -70 -28 -140 1 -53 7 -91 18 -112 29 -57 19 -63 -71 -42 -167 39 -286 150 -328 306 -45 167 43 363 195 436 86 41 209 44 314 7z" transform="translate(589,-589) scale(1,1)" stroke="none" fill="#617376"/>
</g>
</g>
</g>

<g id="1" transform="translate(1350.0,0)scale(0.25,0.25)">

<g id="pattern">
<rect width="5850" height="5850" fill="#324144"/>
<g id="pattern1" transform="matrix(1,0,0,1,364,364)">
<path d="M335 982 c-107 -37 -204 -132 -253 -248 -34 -83 -35 -231 -2 -319 67 -176 215 -279 430 -300 48 -4 94 -16 128 -32 82 -40 176 -38 263 4 123 60 219 191 219 298 0 66 -16 101 -77 166 -29 31 -52 70 -68 114 -59 161 -186 263 -394 316 -90 23 -179 23 -246 1z m289 -62 c98 -33 171 -78 222 -137 56 -65 73 -91 74 -115 0 -15 -9 -17 -77 -12 -66 5 -87 3 -137 -16 -74 -28 -141 -93 -182 -175 -25 -52 -29 -70 -28 -140 1 -53 7 -91 18 -112 29 -57 19 -63 -71 -42 -167 39 -286 150 -328 306 -45 167 43 363 195 436 86 41 209 44 314 7z" transform="translate(0.000000,0.000000) scale(1,1)" stroke="none" fill="#617376"/>
</g>
<g id="pattern2" transform="matrix(0.618,0,0,0.618,2772,814)">
<path d="M335 982 c-107 -37 -204 -132 -253 -248 -34 -83 -35 -231 -2 -319 67 -176 215 -279 430 -300 48 -4 94 -16 128 -32 82 -40 176 -38 263 4 123 60 219 191 219 298 0 66 -16 101 -77 166 -29 31 -52 70 -68 114 -59 161 -186 263 -394 316 -90 23 -179 23 -246 1z m289 -62 c98 -33 171 -78 222 -137 56 -65 73 -91 74 -115 0 -15 -9 -17 -77 -12 -66 5 -87 3 -137 -16 -74 -28 -141 -93 -182 -175 -25 -52 -29 -70 -28 -140 1 -53 7 -91 18 -112 29 -57 19 -63 -71 -42 -167 39 -286 150 -328 306 -45 167 43 363 195 436 86 41 209 44 314 7z" transform="translate(3672,0.000000) scale(-1,1)" stroke="none" fill="#617376"/>
</g>
<g id="pattern3" transform="matrix(0.618,0,0,0.618,1039,3672)matrix(0.71,0.71,-0.71,0.71,0,0)">
<path d="M335 982 c-107 -37 -204 -132 -253 -248 -34 -83 -35 -231 -2 -319 67 -176 215 -279 430 -300 48 -4 94 -16 128 -32 82 -40 176 -38 263 4 123 60 219 191 219 298 0 66 -16 101 -77 166 -29 31 -52 70 -68 114 -59 161 -186 263 -394 316 -90 23 -179 23 -246 1z m289 -62 c98 -33 171 -78 222 -137 56 -65 73 -91 74 -115 0 -15 -9 -17 -77 -12 -66 5 -87 3 -137 -16 -74 -28 -141 -93 -182 -175 -25 -52 -29 -70 -28 -140 1 -53 7 -91 18 -112 29 -57 19 -63 -71 -42 -167 39 -286 150 -328 306 -45 167 43 363 195 436 86 41 209 44 314 7z" transform="translate(589,-589) scale(1,1)" stroke="none" fill="#617376"/>
</g>
<g id="pattern4" transform="matrix(1.618,0,0,1.618,1540,1540)matrix(0.87,0.5,-0.5,0.87,0,0)">
<path d="M335 982 c-107 -37 -204 -132 -253 -248 -34 -83 -35 -231 -2 -319 67 -176 215 -279 430 -300 48 -4 94 -16 128 -32 82 -40 176 -38 263 4 123 60 219 191 219 298 0 66 -16 101 -77 166 -29 31 -52 70 -68 114 -59 161 -186 263 -394 316 -90 23 -179 23 -246 1z m289 -62 c98 -33 171 -78 222 -137 56 -65 73 -91 74 -115 0 -15 -9 -17 -77 -12 -66 5 -87 3 -137 -16 -74 -28 -141 -93 -182 -175 -25 -52 -29 -70 -28 -140 1 -53 7 -91 18 -112 29 -57 19 -63 -71 -42 -167 39 -286 150 -328 306 -45 167 43 363 195 436 86 41 209 44 314 7z" transform="translate(589,-589) scale(1,1)" stroke="none" fill="#617376"/>
</g>
</g>
</g>

<g id="2" transform="translate(2700.0,0)scale(0.25,0.25)">

<g id="pattern">
<rect width="5850" height="5850" fill="#324144"/>
<g id="pattern1" transform="matrix(1,0,0,1,364,364)">
<path d="M335 982 c-107 -37 -204 -132 -253 -248 -34 -83 -35 -231 -2 -319 67 -176 215 -279 430 -300 48 -4 94 -16 128 -32 82 -40 176 -38 263 4 123 60 219 191 219 298 0 66 -16 101 -77 166 -29 31 -52 70 -68 114 -59 161 -186 263 -394 316 -90 23 -179 23 -246 1z m289 -62 c98 -33 171 -78 222 -137 56 -65 73 -91 74 -115 0 -15 -9 -17 -77 -12 -66 5 -87 3 -137 -16 -74 -28 -141 -93 -182 -175 -25 -52 -29 -70 -28 -140 1 -53 7 -91 18 -112 29 -57 19 -63 -71 -42 -167 39 -286 150 -328 306 -45 167 43 363 195 436 86 41 209 44 314 7z" transform="translate(0.000000,0.000000) scale(1,1)" stroke="none" fill="#617376"/>
</g>
<g id="pattern2" transform="matrix(0.618,0,0,0.618,2772,814)">
<path d="M335 982 c-107 -37 -204 -132 -253 -248 -34 -83 -35 -231 -2 -319 67 -176 215 -279 430 -300 48 -4 94 -16 128 -32 82 -40 176 -38 263 4 123 60 219 191 219 298 0 66 -16 101 -77 166 -29 31 -52 70 -68 114 -59 161 -186 263 -394 316 -90 23 -179 23 -246 1z m289 -62 c98 -33 171 -78 222 -137 56 -65 73 -91 74 -115 0 -15 -9 -17 -77 -12 -66 5 -87 3 -137 -16 -74 -28 -141 -93 -182 -175 -25 -52 -29 -70 -28 -140 1 -53 7 -91 18 -112 29 -57 19 -63 -71 -42 -167 39 -286 150 -328 306 -45 167 43 363 195 436 86 41 209 44 314 7z" transform="translate(3672,0.000000) scale(-1,1)" stroke="none" fill="#617376"/>
</g>
<g id="pattern3" transform="matrix(0.618,0,0,0.618,1039,3672)matrix(0.71,0.71,-0.71,0.71,0,0)">
<path d="M335 982 c-107 -37 -204 -132 -253 -248 -34 -83 -35 -231 -2 -319 67 -176 215 -279 430 -300 48 -4 94 -16 128 -32 82 -40 176 -38 263 4 123 60 219 191 219 298 0 66 -16 101 -77 166 -29 31 -52 70 -68 114 -59 161 -186 263 -394 316 -90 23 -179 23 -246 1z m289 -62 c98 -33 171 -78 222 -137 56 -65 73 -91 74 -115 0 -15 -9 -17 -77 -12 -66 5 -87 3 -137 -16 -74 -28 -141 -93 -182 -175 -25 -52 -29 -70 -28 -140 1 -53 7 -91 18 -112 29 -57 19 -63 -71 -42 -167 39 -286 150 -328 306 -45 167 43 363 195 436 86 41 209 44 314 7z" transform="translate(589,-589) scale(1,1)" stroke="none" fill="#617376"/>
</g>
<g id="pattern4" transform="matrix(1.618,0,0,1.618,1540,1540)matrix(0.87,0.5,-0.5,0.87,0,0)">
<path d="M335 982 c-107 -37 -204 -132 -253 -248 -34 -83 -35 -231 -2 -319 67 -176 215 -279 430 -300 48 -4 94 -16 128 -32 82 -40 176 -38 263 4 123 60 219 191 219 298 0 66 -16 101 -77 166 -29 31 -52 70 -68 114 -59 161 -186 263 -394 316 -90 23 -179 23 -246 1z m289 -62 c98 -33 171 -78 222 -137 56 -65 73 -91 74 -115 0 -15 -9 -17 -77 -12 -66 5 -87 3 -137 -16 -74 -28 -141 -93 -182 -175 -25 -52 -29 -70 -28 -140 1 -53 7 -91 18 -112 29 -57 19 -63 -71 -42 -167 39 -286 150 -328 306 -45 167 43 363 195 436 86 41 209 44 314 7z" transform="translate(589,-589) scale(1,1)" stroke="none" fill="#617376"/>
</g>
</g>
</g>

<g id="3" transform="translate(4050.0,0)scale(0.25,0.25)">

<g id="pattern">
<rect width="5850" height="5850" fill="#324144"/>
<g id="pattern1" transform="matrix(1,0,0,1,364,364)">
<path d="M335 982 c-107 -37 -204 -132 -253 -248 -34 -83 -35 -231 -2 -319 67 -176 215 -279 430 -300 48 -4 94 -16 128 -32 82 -40 176 -38 263 4 123 60 219 191 219 298 0 66 -16 101 -77 166 -29 31 -52 70 -68 114 -59 161 -186 263 -394 316 -90 23 -179 23 -246 1z m289 -62 c98 -33 171 -78 222 -137 56 -65 73 -91 74 -115 0 -15 -9 -17 -77 -12 -66 5 -87 3 -137 -16 -74 -28 -141 -93 -182 -175 -25 -52 -29 -70 -28 -140 1 -53 7 -91 18 -112 29 -57 19 -63 -71 -42 -167 39 -286 150 -328 306 -45 167 43 363 195 436 86 41 209 44 314 7z" transform="translate(0.000000,0.000000) scale(1,1)" stroke="none" fill="#617376"/>
</g>
<g id="pattern2" transform="matrix(0.618,0,0,0.618,2772,814)">
<path d="M335 982 c-107 -37 -204 -132 -253 -248 -34 -83 -35 -231 -2 -319 67 -176 215 -279 430 -300 48 -4 94 -16 128 -32 82 -40 176 -38 263 4 123 60 219 191 219 298 0 66 -16 101 -77 166 -29 31 -52 70 -68 114 -59 161 -186 263 -394 316 -90 23 -179 23 -246 1z m289 -62 c98 -33 171 -78 222 -137 56 -65 73 -91 74 -115 0 -15 -9 -17 -77 -12 -66 5 -87 3 -137 -16 -74 -28 -141 -93 -182 -175 -25 -52 -29 -70 -28 -140 1 -53 7 -91 18 -112 29 -57 19 -63 -71 -42 -167 39 -286 150 -328 306 -45 167 43 363 195 436 86 41 209 44 314 7z" transform="translate(3672,0.000000) scale(-1,1)" stroke="none" fill="#617376"/>
</g>
<g id="pattern3" transform="matrix(0.618,0,0,0.618,1039,3672)matrix(0.71,0.71,-0.71,0.71,0,0)">
<path d="M335 982 c-107 -37 -204 -132 -253 -248 -34 -83 -35 -231 -2 -319 67 -176 215 -279 430 -300 48 -4 94 -16 128 -32 82 -40 176 -38 263 4 123 60 219 191 219 298 0 66 -16 101 -77 166 -29 31 -52 70 -68 114 -59 161 -186 263 -394 316 -90 23 -179 23 -246 1z m289 -62 c98 -33 171 -78 222 -137 56 -65 73 -91 74 -115 0 -15 -9 -17 -77 -12 -66 5 -87 3 -137 -16 -74 -28 -141 -93 -182 -175 -25 -52 -29 -70 -28 -140 1 -53 7 -91 18 -112 29 -57 19 -63 -71 -42 -167 39 -286 150 -328 306 -45 167 43 363 195 436 86 41 209 44 314 7z" transform="translate(589,-589) scale(1,1)" stroke="none" fill="#617376"/>
</g>
<g id="pattern4" transform="matrix(1.618,0,0,1.618,1540,1540)matrix(0.87,0.5,-0.5,0.87,0,0)">
<path d="M335 982 c-107 -37 -204 -132 -253 -248 -34 -83 -35 -231 -2 -319 67 -176 215 -279 430 -300 48 -4 94 -16 128 -32 82 -40 176 -38 263 4 123 60 219 191 219 298 0 66 -16 101 -77 166 -29 31 -52 70 -68 114 -59 161 -186 263 -394 316 -90 23 -179 23 -246 1z m289 -62 c98 -33 171 -78 222 -137 56 -65 73 -91 74 -115 0 -15 -9 -17 -77 -12 -66 5 -87 3 -137 -16 -74 -28 -141 -93 -182 -175 -25 -52 -29 -70 -28 -140 1 -53 7 -91 18 -112 29 -57 19 -63 -71 -42 -167 39 -286 150 -328 306 -45 167 43 363 195 436 86 41 209 44 314 7z" transform="translate(589,-589) scale(1,1)" stroke="none" fill="#617376"/>
</g>
</g>
</g>

<g id="4" transform="translate(5400.0,0)scale(0.25,0.25)">

<g id="pattern">
<rect width="5850" height="5850" fill="#324144"/>
<g id="pattern1" transform="matrix(1,0,0,1,364,364)">
<path d="M335 982 c-107 -37 -204 -132 -253 -248 -34 -83 -35 -231 -2 -319 67 -176 215 -279 430 -300 48 -4 94 -16 128 -32 82 -40 176 -38 263 4 123 60 219 191 219 298 0 66 -16 101 -77 166 -29 31 -52 70 -68 114 -59 161 -186 263 -394 316 -90 23 -179 23 -246 1z m289 -62 c98 -33 171 -78 222 -137 56 -65 73 -91 74 -115 0 -15 -9 -17 -77 -12 -66 5 -87 3 -137 -16 -74 -28 -141 -93 -182 -175 -25 -52 -29 -70 -28 -140 1 -53 7 -91 18 -112 29 -57 19 -63 -71 -42 -167 39 -286 150 -328 306 -45 167 43 363 195 436 86 41 209 44 314 7z" transform="translate(0.000000,0.000000) scale(1,1)" stroke="none" fill="#617376"/>
</g>
<g id="pattern2" transform="matrix(0.618,0,0,0.618,2772,814)">
<path d="M335 982 c-107 -37 -204 -132 -253 -248 -34 -83 -35 -231 -2 -319 67 -176 215 -279 430 -300 48 -4 94 -16 128 -32 82 -40 176 -38 263 4 123 60 219 191 219 298 0 66 -16 101 -77 166 -29 31 -52 70 -68 114 -59 161 -186 263 -394 316 -90 23 -179 23 -246 1z m289 -62 c98 -33 171 -78 222 -137 56 -65 73 -91 74 -115 0 -15 -9 -17 -77 -12 -66 5 -87 3 -137 -16 -74 -28 -141 -93 -182 -175 -25 -52 -29 -70 -28 -140 1 -53 7 -91 18 -112 29 -57 19 -63 -71 -42 -167 39 -286 150 -328 306 -45 167 43 363 195 436 86 41 209 44 314 7z" transform="translate(3672,0.000000) scale(-1,1)" stroke="none" fill="#617376"/>
</g>
<g id="pattern3" transform="matrix(0.618,0,0,0.618,1039,3672)matrix(0.71,0.71,-0.71,0.71,0,0)">
<path d="M335 982 c-107 -37 -204 -132 -253 -248 -34 -83 -35 -231 -2 -319 67 -176 215 -279 430 -300 48 -4 94 -16 128 -32 82 -40 176 -38 263 4 123 60 219 191 219 298 0 66 -16 101 -77 166 -29 31 -52 70 -68 114 -59 161 -186 263 -394 316 -90 23 -179 23 -246 1z m289 -62 c98 -33 171 -78 222 -137 56 -65 73 -91 74 -115 0 -15 -9 -17 -77 -12 -66 5 -87 3 -137 -16 -74 -28 -141 -93 -182 -175 -25 -52 -29 -70 -28 -140 1 -53 7 -91 18 -112 29 -57 19 -63 -71 -42 -167 39 -286 150 -328 306 -45 167 43 363 195 436 86 41 209 44 314 7z" transform="translate(589,-589) scale(1,1)" stroke="none" fill="#617376"/>
</g>
<g id="pattern4" transform="matrix(1.618,0,0,1.618,1540,1540)matrix(0.87,0.5,-0.5,0.87,0,0)">
<path d="M335 982 c-107 -37 -204 -132 -253 -248 -34 -83 -35 -231 -2 -319 67 -176 215 -279 430 -300 48 -4 94 -16 128 -32 82 -40 176 -38 263 4 123 60 219 191 219 298 0 66 -16 101 -77 166 -29 31 -52 70 -68 114 -59 161 -186 263 -394 316 -90 23 -179 23 -246 1z m289 -62 c98 -33 171 -78 222 -137 56 -65 73 -91 74 -115 0 -15 -9 -17 -77 -12 -66 5 -87 3 -137 -16 -74 -28 -141 -93 -182 -175 -25 -52 -29 -70 -28 -140 1 -53 7 -91 18 -112 29 -57 19 -63 -71 -42 -167 39 -286 150 -328 306 -45 167 43 363 195 436 86 41 209 44 314 7z" transform="translate(589,-589) scale(1,1)" stroke="none" fill="#617376"/>
</g>
</g>
</g>

</g>
<g id="row2" transform="translate(0,2700.0)">
<g id="0" transform="translate(0.0,0)scale(0.25,0.25)">

<g id="pattern">
<rect width="5850" height="5850" fill="#324144"/>
<g id="pattern1" transform="matrix(1,0,0,1,364,364)">
<path d="M335 982 c-107 -37 -204 -132 -253 -248 -34 -83 -35 -231 -2 -319 67 -176 215 -279 430 -300 48 -4 94 -16 128 -32 82 -40 176 -38 263 4 123 60 219 191 219 298 0 66 -16 101 -77 166 -29 31 -52 70 -68 114 -59 161 -186 263 -394 316 -90 23 -179 23 -246 1z m289 -62 c98 -33 171 -78 222 -137 56 -65 73 -91 74 -115 0 -15 -9 -17 -77 -12 -66 5 -87 3 -137 -16 -74 -28 -141 -93 -182 -175 -25 -52 -29 -70 -28 -140 1 -53 7 -91 18 -112 29 -57 19 -63 -71 -42 -167 39 -286 150 -328 306 -45 167 43 363 195 436 86 41 209 44 314 7z" transform="translate(0.000000,0.000000) scale(1,1)" stroke="none" fill="#617376"/>
</g>
<g id="pattern2" transform="matrix(0.618,0,0,0.618,2772,814)">
<path d="M335 982 c-107 -37 -204 -132 -253 -248 -34 -83 -35 -231 -2 -319 67 -176 215 -279 430 -300 48 -4 94 -16 128 -32 82 -40 176 -38 263 4 123 60 219 191 219 298 0 66 -16 101 -77 166 -29 31 -52 70 -68 114 -59 161 -186 263 -394 316 -90 23 -179 23 -246 1z m289 -62 c98 -33 171 -78 222 -137 56 -65 73 -91 74 -115 0 -15 -9 -17 -77 -12 -66 5 -87 3 -137 -16 -74 -28 -141 -93 -182 -175 -25 -52 -29 -70 -28 -140 1 -53 7 -91 18 -112 29 -57 19 -63 -71 -42 -167 39 -286 150 -328 306 -45 167 43 363 195 436 86 41 209 44 314 7z" transform="translate(3672,0.000000) scale(-1,1)" stroke="none" fill="#617376"/>
</g>
<g id="pattern3" transform="matrix(0.618,0,0,0.618,1039,3672)matrix(0.71,0.71,-0.71,0.71,0,0)">
<path d="M335 982 c-107 -37 -204 -132 -253 -248 -34 -83 -35 -231 -2 -319 67 -176 215 -279 430 -300 48 -4 94 -16 128 -32 82 -40 176 -38 263 4 123 60 219 191 219 298 0 66 -16 101 -77 166 -29 31 -52 70 -68 114 -59 161 -186 263 -394 316 -90 23 -179 23 -246 1z m289 -62 c98 -33 171 -78 222 -137 56 -65 73 -91 74 -115 0 -15 -9 -17 -77 -12 -66 5 -87 3 -137 -16 -74 -28 -141 -93 -182 -175 -25 -52 -29 -70 -28 -140 1 -53 7 -91 18 -112 29 -57 19 -63 -71 -42 -167 39 -286 150 -328 306 -45 167 43 363 195 436 86 41 209 44 314 7z" transform="translate(589,-589) scale(1,1)" stroke="none" fill="#617376"/>
</g>
<g id="pattern4" transform="matrix(1.618,0,0,1.618,1540,1540)matrix(0.87,0.5,-0.5,0.87,0,0)">
<path d="M335 982 c-107 -37 -204 -132 -253 -248 -34 -83 -35 -231 -2 -319 67 -176 215 -279 430 -300 48 -4 94 -16 128 -32 82 -40 176 -38 263 4 123 60 219 191 219 298 0 66 -16 101 -77 166 -29 31 -52 70 -68 114 -59 161 -186 263 -394 316 -90 23 -179 23 -246 1z m289 -62 c98 -33 171 -78 222 -137 56 -65 73 -91 74 -115 0 -15 -9 -17 -77 -12 -66 5 -87 3 -137 -16 -74 -28 -141 -93 -182 -175 -25 -52 -29 -70 -28 -140 1 -53 7 -91 18 -112 29 -57 19 -63 -71 -42 -167 39 -286 150 -328 306 -45 167 43 363 195 436 86 41 209 44 314 7z" transform="translate(589,-589) scale(1,1)" stroke="none" fill="#617376"/>
</g>
</g>
</g>

<g id="1" transform="translate(1350.0,0)scale(0.25,0.25)">

<g id="pattern">
<rect width="5850" height="5850" fill="#324144"/>
<g id="pattern1" transform="matrix(1,0,0,1,364,364)">
<path d="M335 982 c-107 -37 -204 -132 -253 -248 -34 -83 -35 -231 -2 -319 67 -176 215 -279 430 -300 48 -4 94 -16 128 -32 82 -40 176 -38 263 4 123 60 219 191 219 298 0 66 -16 101 -77 166 -29 31 -52 70 -68 114 -59 161 -186 263 -394 316 -90 23 -179 23 -246 1z m289 -62 c98 -33 171 -78 222 -137 56 -65 73 -91 74 -115 0 -15 -9 -17 -77 -12 -66 5 -87 3 -137 -16 -74 -28 -141 -93 -182 -175 -25 -52 -29 -70 -28 -140 1 -53 7 -91 18 -112 29 -57 19 -63 -71 -42 -167 39 -286 150 -328 306 -45 167 43 363 195 436 86 41 209 44 314 7z" transform="translate(0.000000,0.000000) scale(1,1)" stroke="none" fill="#617376"/>
</g>
<g id="pattern2" transform="matrix(0.618,0,0,0.618,2772,814)">
<path d="M335 982 c-107 -37 -204 -132 -253 -248 -34 -83 -35 -231 -2 -319 67 -176 215 -279 430 -300 48 -4 94 -16 128 -32 82 -40 176 -38 263 4 123 60 219 191 219 298 0 66 -16 101 -77 166 -29 31 -52 70 -68 114 -59 161 -186 263 -394 316 -90 23 -179 23 -246 1z m289 -62 c98 -33 171 -78 222 -137 56 -65 73 -91 74 -115 0 -15 -9 -17 -77 -12 -66 5 -87 3 -137 -16 -74 -28 -141 -93 -182 -175 -25 -52 -29 -70 -28 -140 1 -53 7 -91 18 -112 29 -57 19 -63 -71 -42 -167 39 -286 150 -328 306 -45 167 43 363 195 436 86 41 209 44 314 7z" transform="translate(3672,0.000000) scale(-1,1)" stroke="none" fill="#617376"/>
</g>
<g id="pattern3" transform="matrix(0.618,0,0,0.618,1039,3672)matrix(0.71,0.71,-0.71,0.71,0,0)">
<path d="M335 982 c-107 -37 -204 -132 -253 -248 -34 -83 -35 -231 -2 -319 67 -176 215 -279 430 -300 48 -4 94 -16 128 -32 82 -40 176 -38 263 4 123 60 219 191 219 298 0 66 -16 101 -77 166 -29 31 -52 70 -68 114 -59 161 -186 263 -394 316 -90 23 -179 23 -246 1z m289 -62 c98 -33 171 -78 222 -137 56 -65 73 -91 74 -115 0 -15 -9 -17 -77 -12 -66 5 -87 3 -137 -16 -74 -28 -141 -93 -182 -175 -25 -52 -29 -70 -28 -140 1 -53 7 -91 18 -112 29 -57 19 -63 -71 -42 -167 39 -286 150 -328 306 -45 167 43 363 195 436 86 41 209 44 314 7z" transform="translate(589,-589) scale(1,1)" stroke="none" fill="#617376"/>
</g>
<g id="pattern4" transform="matrix(1.618,0,0,1.618,1540,1540)matrix(0.87,0.5,-0.5,0.87,0,0)">
<path d="M335 982 c-107 -37 -204 -132 -253 -248 -34 -83 -35 -231 -2 -319 67 -176 215 -279 430 -300 48 -4 94 -16 128 -32 82 -40 176 -38 263 4 123 60 219 191 219 298 0 66 -16 101 -77 166 -29 31 -52 70 -68 114 -59 161 -186 263 -394 316 -90 23 -179 23 -246 1z m289 -62 c98 -33 171 -78 222 -137 56 -65 73 -91 74 -115 0 -15 -9 -17 -77 -12 -66 5 -87 3 -137 -16 -74 -28 -141 -93 -182 -175 -25 -52 -29 -70 -28 -140 1 -53 7 -91 18 -112 29 -57 19 -63 -71 -42 -167 39 -286 150 -328 306 -45 167 43 363 195 436 86 41 209 44 314 7z" transform="translate(589,-589) scale(1,1)" stroke="none" fill="#617376"/>
</g>
</g>
</g>

<g id="2" transform="translate(2700.0,0)scale(0.25,0.25)">

<g id="pattern">
<rect width="5850" height="5850" fill="#324144"/>
<g id="pattern1" transform="matrix(1,0,0,1,364,364)">
<path d="M335 982 c-107 -37 -204 -132 -253 -248 -34 -83 -35 -231 -2 -319 67 -176 215 -279 430 -300 48 -4 94 -16 128 -32 82 -40 176 -38 263 4 123 60 219 191 219 298 0 66 -16 101 -77 166 -29 31 -52 70 -68 114 -59 161 -186 263 -394 316 -90 23 -179 23 -246 1z m289 -62 c98 -33 171 -78 222 -137 56 -65 73 -91 74 -115 0 -15 -9 -17 -77 -12 -66 5 -87 3 -137 -16 -74 -28 -141 -93 -182 -175 -25 -52 -29 -70 -28 -140 1 -53 7 -91 18 -112 29 -57 19 -63 -71 -42 -167 39 -286 150 -328 306 -45 167 43 363 195 436 86 41 209 44 314 7z" transform="translate(0.000000,0.000000) scale(1,1)" stroke="none" fill="#617376"/>
</g>
<g id="pattern2" transform="matrix(0.618,0,0,0.618,2772,814)">
<path d="M335 982 c-107 -37 -204 -132 -253 -248 -34 -83 -35 -231 -2 -319 67 -176 215 -279 430 -300 48 -4 94 -16 128 -32 82 -40 176 -38 263 4 123 60 219 191 219 298 0 66 -16 101 -77 166 -29 31 -52 70 -68 114 -59 161 -186 263 -394 316 -90 23 -179 23 -246 1z m289 -62 c98 -33 171 -78 222 -137 56 -65 73 -91 74 -115 0 -15 -9 -17 -77 -12 -66 5 -87 3 -137 -16 -74 -28 -141 -93 -182 -175 -25 -52 -29 -70 -28 -140 1 -53 7 -91 18 -112 29 -57 19 -63 -71 -42 -167 39 -286 150 -328 306 -45 167 43 363 195 436 86 41 209 44 314 7z" transform="translate(3672,0.000000) scale(-1,1)" stroke="none" fill="#617376"/>
</g>
<g id="pattern3" transform="matrix(0.618,0,0,0.618,1039,3672)matrix(0.71,0.71,-0.71,0.71,0,0)">
<path d="M335 982 c-107 -37 -204 -132 -253 -248 -34 -83 -35 -231 -2 -319 67 -176 215 -279 430 -300 48 -4 94 -16 128 -32 82 -40 176 -38 263 4 123 60 219 191 219 298 0 66 -16 101 -77 166 -29 31 -52 70 -68 114 -59 161 -186 263 -394 316 -90 23 -179 23 -246 1z m289 -62 c98 -33 171 -78 222 -137 56 -65 73 -91 74 -115 0 -15 -9 -17 -77 -12 -66 5 -87 3 -137 -16 -74 -28 -141 -93 -182 -175 -25 -52 -29 -70 -28 -140 1 -53 7 -91 18 -112 29 -57 19 -63 -71 -42 -167 39 -286 150 -328 306 -45 167 43 363 195 436 86 41 209 44 314 7z" transform="translate(589,-589) scale(1,1)" stroke="none" fill="#617376"/>
</g>
<g id="pattern4" transform="matrix(1.618,0,0,1.618,1540,1540)matrix(0.87,0.5,-0.5,0.87,0,0)">
<path d="M335 982 c-107 -37 -204 -132 -253 -248 -34 -83 -35 -231 -2 -319 67 -176 215 -279 430 -300 48 -4 94 -16 128 -32 82 -40 176 -38 263 4 123 60 219 191 219 298 0 66 -16 101 -77 166 -29 31 -52 70 -68 114 -59 161 -186 263 -394 316 -90 23 -179 23 -246 1z m289 -62 c98 -33 171 -78 222 -137 56 -65 73 -91 74 -115 0 -15 -9 -17 -77 -12 -66 5 -87 3 -137 -16 -74 -28 -141 -93 -182 -175 -25 -52 -29 -70 -28 -140 1 -53 7 -91 18 -112 29 -57 19 -63 -71 -42 -167 39 -286 150 -328 306 -45 167 43 363 195 436 86 41 209 44 314 7z" transform="translate(589,-589) scale(1,1)" stroke="none" fill="#617376"/>
</g>
</g>
</g>

<g id="3" transform="translate(4050.0,0)scale(0.25,0.25)">

<g id="pattern">
<rect width="5850" height="5850" fill="#324144"/>
<g id="pattern1" transform="matrix(1,0,0,1,364,364)">
<path d="M335 982 c-107 -37 -204 -132 -253 -248 -34 -83 -35 -231 -2 -319 67 -176 215 -279 430 -300 48 -4 94 -16 128 -32 82 -40 176 -38 263 4 123 60 219 191 219 298 0 66 -16 101 -77 166 -29 31 -52 70 -68 114 -59 161 -186 263 -394 316 -90 23 -179 23 -246 1z m289 -62 c98 -33 171 -78 222 -137 56 -65 73 -91 74 -115 0 -15 -9 -17 -77 -12 -66 5 -87 3 -137 -16 -74 -28 -141 -93 -182 -175 -25 -52 -29 -70 -28 -140 1 -53 7 -91 18 -112 29 -57 19 -63 -71 -42 -167 39 -286 150 -328 306 -45 167 43 363 195 436 86 41 209 44 314 7z" transform="translate(0.000000,0.000000) scale(1,1)" stroke="none" fill="#617376"/>
</g>
<g id="pattern2" transform="matrix(0.618,0,0,0.618,2772,814)">
<path d="M335 982 c-107 -37 -204 -132 -253 -248 -34 -83 -35 -231 -2 -319 67 -176 215 -279 430 -300 48 -4 94 -16 128 -32 82 -40 176 -38 263 4 123 60 219 191 219 298 0 66 -16 101 -77 166 -29 31 -52 70 -68 114 -59 161 -186 263 -394 316 -90 23 -179 23 -246 1z m289 -62 c98 -33 171 -78 222 -137 56 -65 73 -91 74 -115 0 -15 -9 -17 -77 -12 -66 5 -87 3 -137 -16 -74 -28 -141 -93 -182 -175 -25 -52 -29 -70 -28 -140 1 -53 7 -91 18 -112 29 -57 19 -63 -71 -42 -167 39 -286 150 -328 306 -45 167 43 363 195 436 86 41 209 44 314 7z" transform="translate(3672,0.000000) scale(-1,1)" stroke="none" fill="#617376"/>
</g>
<g id="pattern3" transform="matrix(0.618,0,0,0.618,1039,3672)matrix(0.71,0.71,-0.71,0.71,0,0)">
<path d="M335 982 c-107 -37 -204 -132 -253 -248 -34 -83 -35 -231 -2 -319 67 -176 215 -279 430 -300 48 -4 94 -16 128 -32 82 -40 176 -38 263 4 123 60 219 191 219 298 0 66 -16 101 -77 166 -29 31 -52 70 -68 114 -59 161 -186 263 -394 316 -90 23 -179 23 -246 1z m289 -62 c98 -33 171 -78 222 -137 56 -65 73 -91 74 -115 0 -15 -9 -17 -77 -12 -66 5 -87 3 -137 -16 -74 -28 -141 -93 -182 -175 -25 -52 -29 -70 -28 -140 1 -53 7 -91 18 -112 29 -57 19 -63 -71 -42 -167 39 -286 150 -328 306 -45 167 43 363 195 436 86 41 209 44 314 7z" transform="translate(589,-589) scale(1,1)" stroke="none" fill="#617376"/>
</g>
<g id="pattern4" transform="matrix(1.618,0,0,1.618,1540,1540)matrix(0.87,0.5,-0.5,0.87,0,0)">
<path d="M335 982 c-107 -37 -204 -132 -253 -248 -34 -83 -35 -231 -2 -319 67 -176 215 -279 430 -300 48 -4 94 -16 128 -32 82 -40 176 -38 263 4 123 60 219 191 219 298 0 66 -16 101 -77 166 -29 31 -52 70 -68 114 -59 161 -186 263 -394 316 -90 23 -179 23 -246 1z m289 -62 c98 -33 171 -78 222 -137 56 -65 73 -91 74 -115 0 -15 -9 -17 -77 -12 -66 5 -87 3 -137 -16 -74 -28 -141 -93 -182 -175 -25 -52 -29 -70 -28 -140 1 -53 7 -91 18 -112 29 -57 19 -63 -71 -42 -167 39 -286 150 -328 306 -45 167 43 363 195 436 86 41 209 44 314 7z" transform="translate(589,-589) scale(1,1)" stroke="none" fill="#617376"/>
</g>
</g>
</g>

<g id="4" transform="translate(5400.0,0)scale(0.25,0.25)">

<g id="pattern">
<rect width="5850" height="5850" fill="#324144"/>
<g id="pattern1" transform="matrix(1,0,0,1,364,364)">
<path d="M335 982 c-107 -37 -204 -132 -253 -248 -34 -83 -35 -231 -2 -319 67 -176 215 -279 430 -300 48 -4 94 -16 128 -32 82 -40 176 -38 263 4 123 60 219 191 219 298 0 66 -16 101 -77 166 -29 31 -52 70 -68 114 -59 161 -186 263 -394 316 -90 23 -179 23 -246 1z m289 -62 c98 -33 171 -78 222 -137 56 -65 73 -91 74 -115 0 -15 -9 -17 -77 -12 -66 5 -87 3 -137 -16 -74 -28 -141 -93 -182 -175 -25 -52 -29 -70 -28 -140 1 -53 7 -91 18 -112 29 -57 19 -63 -71 -42 -167 39 -286 150 -328 306 -45 167 43 363 195 436 86 41 209 44 314 7z" transform="translate(0.000000,0.000000) scale(1,1)" stroke="none" fill="#617376"/>
</g>
<g id="pattern2" transform="matrix(0.618,0,0,0.618,2772,814)">
<path d="M335 982 c-107 -37 -204 -132 -253 -248 -34 -83 -35 -231 -2 -319 67 -176 215 -279 430 -300 48 -4 94 -16 128 -32 82 -40 176 -38 263 4 123 60 219 191 219 298 0 66 -16 101 -77 166 -29 31 -52 70 -68 114 -59 161 -186 263 -394 316 -90 23 -179 23 -246 1z m289 -62 c98 -33 171 -78 222 -137 56 -65 73 -91 74 -115 0 -15 -9 -17 -77 -12 -66 5 -87 3 -137 -16 -74 -28 -141 -93 -182 -175 -25 -52 -29 -70 -28 -140 1 -53 7 -91 18 -112 29 -57 19 -63 -71 -42 -167 39 -286 150 -328 306 -45 167 43 363 195 436 86 41 209 44 314 7z" transform="translate(3672,0.000000) scale(-1,1)" stroke="none" fill="#617376"/>
</g>
<g id="pattern3" transform="matrix(0.618,0,0,0.618,1039,3672)matrix(0.71,0.71,-0.71,0.71,0,0)">
<path d="M335 982 c-107 -37 -204 -132 -253 -248 -34 -83 -35 -231 -2 -319 67 -176 215 -279 430 -300 48 -4 94 -16 128 -32 82 -40 176 -38 263 4 123 60 219 191 219 298 0 66 -16 101 -77 166 -29 31 -52 70 -68 114 -59 161 -186 263 -394 316 -90 23 -179 23 -246 1z m289 -62 c98 -33 171 -78 222 -137 56 -65 73 -91 74 -115 0 -15 -9 -17 -77 -12 -66 5 -87 3 -137 -16 -74 -28 -141 -93 -182 -175 -25 -52 -29 -70 -28 -140 1 -53 7 -91 18 -112 29 -57 19 -63 -71 -42 -167 39 -286 150 -328 306 -45 167 43 363 195 436 86 41 209 44 314 7z" transform="translate(589,-589) scale(1,1)" stroke="none" fill="#617376"/>
</g>
<g id="pattern4" transform="matrix(1.618,0,0,1.618,1540,1540)matrix(0.87,0.5,-0.5,0.87,0,0)">
<path d="M335 982 c-107 -37 -204 -132 -253 -248 -34 -83 -35 -231 -2 -319 67 -176 215 -279 430 -300 48 -4 94 -16 128 -32 82 -40 176 -38 263 4 123 60 219 191 219 298 0 66 -16 101 -77 166 -29 31 -52 70 -68 114 -59 161 -186 263 -394 316 -90 23 -179 23 -246 1z m289 -62 c98 -33 171 -78 222 -137 56 -65 73 -91 74 -115 0 -15 -9 -17 -77 -12 -66 5 -87 3 -137 -16 -74 -28 -141 -93 -182 -175 -25 -52 -29 -70 -28 -140 1 -53 7 -91 18 -112 29 -57 19 -63 -71 -42 -167 39 -286 150 -328 306 -45 167 43 363 195 436 86 41 209 44 314 7z" transform="translate(589,-589) scale(1,1)" stroke="none" fill="#617376"/>
</g>
</g>
</g>

</g>
<g id="row3" transform="translate(0,4050.0)">
<g id="0" transform="translate(0.0,0)scale(0.25,0.25)">

<g id="pattern">
<rect width="5850" height="5850" fill="#324144"/>
<g id="pattern1" transform="matrix(1,0,0,1,364,364)">
<path d="M335 982 c-107 -37 -204 -132 -253 -248 -34 -83 -35 -231 -2 -319 67 -176 215 -279 430 -300 48 -4 94 -16 128 -32 82 -40 176 -38 263 4 123 60 219 191 219 298 0 66 -16 101 -77 166 -29 31 -52 70 -68 114 -59 161 -186 263 -394 316 -90 23 -179 23 -246 1z m289 -62 c98 -33 171 -78 222 -137 56 -65 73 -91 74 -115 0 -15 -9 -17 -77 -12 -66 5 -87 3 -137 -16 -74 -28 -141 -93 -182 -175 -25 -52 -29 -70 -28 -140 1 -53 7 -91 18 -112 29 -57 19 -63 -71 -42 -167 39 -286 150 -328 306 -45 167 43 363 195 436 86 41 209 44 314 7z" transform="translate(0.000000,0.000000) scale(1,1)" stroke="none" fill="#617376"/>
</g>
<g id="pattern2" transform="matrix(0.618,0,0,0.618,2772,814)">
<path d="M335 982 c-107 -37 -204 -132 -253 -248 -34 -83 -35 -231 -2 -319 67 -176 215 -279 430 -300 48 -4 94 -16 128 -32 82 -40 176 -38 263 4 123 60 219 191 219 298 0 66 -16 101 -77 166 -29 31 -52 70 -68 114 -59 161 -186 263 -394 316 -90 23 -179 23 -246 1z m289 -62 c98 -33 171 -78 222 -137 56 -65 73 -91 74 -115 0 -15 -9 -17 -77 -12 -66 5 -87 3 -137 -16 -74 -28 -141 -93 -182 -175 -25 -52 -29 -70 -28 -140 1 -53 7 -91 18 -112 29 -57 19 -63 -71 -42 -167 39 -286 150 -328 306 -45 167 43 363 195 436 86 41 209 44 314 7z" transform="translate(3672,0.000000) scale(-1,1)" stroke="none" fill="#617376"/>
</g>
<g id="pattern3" transform="matrix(0.618,0,0,0.618,1039,3672)matrix(0.71,0.71,-0.71,0.71,0,0)">
<path d="M335 982 c-107 -37 -204 -132 -253 -248 -34 -83 -35 -231 -2 -319 67 -176 215 -279 430 -300 48 -4 94 -16 128 -32 82 -40 176 -38 263 4 123 60 219 191 219 298 0 66 -16 101 -77 166 -29 31 -52 70 -68 114 -59 161 -186 263 -394 316 -90 23 -179 23 -246 1z m289 -62 c98 -33 171 -78 222 -137 56 -65 73 -91 74 -115 0 -15 -9 -17 -77 -12 -66 5 -87 3 -137 -16 -74 -28 -141 -93 -182 -175 -25 -52 -29 -70 -28 -140 1 -53 7 -91 18 -112 29 -57 19 -63 -71 -42 -167 39 -286 150 -328 306 -45 167 43 363 195 436 86 41 209 44 314 7z" transform="translate(589,-589) scale(1,1)" stroke="none" fill="#617376"/>
</g>
<g id="pattern4" transform="matrix(1.618,0,0,1.618,1540,1540)matrix(0.87,0.5,-0.5,0.87,0,0)">
<path d="M335 982 c-107 -37 -204 -132 -253 -248 -34 -83 -35 -231 -2 -319 67 -176 215 -279 430 -300 48 -4 94 -16 128 -32 82 -40 176 -38 263 4 123 60 219 191 219 298 0 66 -16 101 -77 166 -29 31 -52 70 -68 114 -59 161 -186 263 -394 316 -90 23 -179 23 -246 1z m289 -62 c98 -33 171 -78 222 -137 56 -65 73 -91 74 -115 0 -15 -9 -17 -77 -12 -66 5 -87 3 -137 -16 -74 -28 -141 -93 -182 -175 -25 -52 -29 -70 -28 -140 1 -53 7 -91 18 -112 29 -57 19 -63 -71 -42 -167 39 -286 150 -328 306 -45 167 43 363 195 436 86 41 209 44 314 7z" transform="translate(589,-589) scale(1,1)" stroke="none" fill="#617376"/>
</g>
</g>
</g>

<g id="1" transform="translate(1350.0,0)scale(0.25,0.25)">

<g id="pattern">
<rect width="5850" height="5850" fill="#324144"/>
<g id="pattern1" transform="matrix(1,0,0,1,364,364)">
<path d="M335 982 c-107 -37 -204 -132 -253 -248 -34 -83 -35 -231 -2 -319 67 -176 215 -279 430 -300 48 -4 94 -16 128 -32 82 -40 176 -38 263 4 123 60 219 191 219 298 0 66 -16 101 -77 166 -29 31 -52 70 -68 114 -59 161 -186 263 -394 316 -90 23 -179 23 -246 1z m289 -62 c98 -33 171 -78 222 -137 56 -65 73 -91 74 -115 0 -15 -9 -17 -77 -12 -66 5 -87 3 -137 -16 -74 -28 -141 -93 -182 -175 -25 -52 -29 -70 -28 -140 1 -53 7 -91 18 -112 29 -57 19 -63 -71 -42 -167 39 -286 150 -328 306 -45 167 43 363 195 436 86 41 209 44 314 7z" transform="translate(0.000000,0.000000) scale(1,1)" stroke="none" fill="#617376"/>
</g>
<g id="pattern2" transform="matrix(0.618,0,0,0.618,2772,814)">
<path d="M335 982 c-107 -37 -204 -132 -253 -248 -34 -83 -35 -231 -2 -319 67 -176 215 -279 430 -300 48 -4 94 -16 128 -32 82 -40 176 -38 263 4 123 60 219 191 219 298 0 66 -16 101 -77 166 -29 31 -52 70 -68 114 -59 161 -186 263 -394 316 -90 23 -179 23 -246 1z m289 -62 c98 -33 171 -78 222 -137 56 -65 73 -91 74 -115 0 -15 -9 -17 -77 -12 -66 5 -87 3 -137 -16 -74 -28 -141 -93 -182 -175 -25 -52 -29 -70 -28 -140 1 -53 7 -91 18 -112 29 -57 19 -63 -71 -42 -167 39 -286 150 -328 306 -45 167 43 363 195 436 86 41 209 44 314 7z" transform="translate(3672,0.000000) scale(-1,1)" stroke="none" fill="#617376"/>
</g>
<g id="pattern3" transform="matrix(0.618,0,0,0.618,1039,3672)matrix(0.71,0.71,-0.71,0.71,0,0)">
<path d="M335 982 c-107 -37 -204 -132 -253 -248 -34 -83 -35 -231 -2 -319 67 -176 215 -279 430 -300 48 -4 94 -16 128 -32 82 -40 176 -38 263 4 123 60 219 191 219 298 0 66 -16 101 -77 166 -29 31 -52 70 -68 114 -59 161 -186 263 -394 316 -90 23 -179 23 -246 1z m289 -62 c98 -33 171 -78 222 -137 56 -65 73 -91 74 -115 0 -15 -9 -17 -77 -12 -66 5 -87 3 -137 -16 -74 -28 -141 -93 -182 -175 -25 -52 -29 -70 -28 -140 1 -53 7 -91 18 -112 29 -57 19 -63 -71 -42 -167 39 -286 150 -328 306 -45 167 43 363 195 436 86 41 209 44 314 7z" transform="translate(589,-589) scale(1,1)" stroke="none" fill="#617376"/>
</g>
<g id="pattern4" transform="matrix(1.618,0,0,1.618,1540,1540)matrix(0.87,0.5,-0.5,0.87,0,0)">
<path d="M335 982 c-107 -37 -204 -132 -253 -248 -34 -83 -35 -231 -2 -319 67 -176 215 -279 430 -300 48 -4 94 -16 128 -32 82 -40 176 -38 263 4 123 60 219 191 219 298 0 66 -16 101 -77 166 -29 31 -52 70 -68 114 -59 161 -186 263 -394 316 -90 23 -179 23 -246 1z m289 -62 c98 -33 171 -78 222 -137 56 -65 73 -91 74 -115 0 -15 -9 -17 -77 -12 -66 5 -87 3 -137 -16 -74 -28 -141 -93 -182 -175 -25 -52 -29 -70 -28 -140 1 -53 7 -91 18 -112 29 -57 19 -63 -71 -42 -167 39 -286 150 -328 306 -45 167 43 363 195 436 86 41 209 44 314 7z" transform="translate(589,-589) scale(1,1)" stroke="none" fill="#617376"/>
</g>
</g>
</g>

<g id="2" transform="translate(2700.0,0)scale(0.25,0.25)">

<g id="pattern">
<rect width="5850" height="5850" fill="#324144"/>
<g id="pattern1" transform="matrix(1,0,0,1,364,364)">
<path d="M335 982 c-107 -37 -204 -132 -253 -248 -34 -83 -35 -231 -2 -319 67 -176 215 -279 430 -300 48 -4 94 -16 128 -32 82 -40 176 -38 263 4 123 60 219 191 219 298 0 66 -16 101 -77 166 -29 31 -52 70 -68 114 -59 161 -186 263 -394 316 -90 23 -179 23 -246 1z m289 -62 c98 -33 171 -78 222 -137 56 -65 73 -91 74 -115 0 -15 -9 -17 -77 -12 -66 5 -87 3 -137 -16 -74 -28 -141 -93 -182 -175 -25 -52 -29 -70 -28 -140 1 -53 7 -91 18 -112 29 -57 19 -63 -71 -42 -167 39 -286 150 -328 306 -45 167 43 363 195 436 86 41 209 44 314 7z" transform="translate(0.000000,0.000000) scale(1,1)" stroke="none" fill="#617376"/>
</g>
<g id="pattern2" transform="matrix(0.618,0,0,0.618,2772,814)">
<path d="M335 982 c-107 -37 -204 -132 -253 -248 -34 -83 -35 -231 -2 -319 67 -176 215 -279 430 -300 48 -4 94 -16 128 -32 82 -40 176 -38 263 4 123 60 219 191 219 298 0 66 -16 101 -77 166 -29 31 -52 70 -68 114 -59 161 -186 263 -394 316 -90 23 -179 23 -246 1z m289 -62 c98 -33 171 -78 222 -137 56 -65 73 -91 74 -115 0 -15 -9 -17 -77 -12 -66 5 -87 3 -137 -16 -74 -28 -141 -93 -182 -175 -25 -52 -29 -70 -28 -140 1 -53 7 -91 18 -112 29 -57 19 -63 -71 -42 -167 39 -286 150 -328 306 -45 167 43 363 195 436 86 41 209 44 314 7z" transform="translate(3672,0.000000) scale(-1,1)" stroke="none" fill="#617376"/>
</g>
<g id="pattern3" transform="matrix(0.618,0,0,0.618,1039,3672)matrix(0.71,0.71,-0.71,0.71,0,0)">
<path d="M335 982 c-107 -37 -204 -132 -253 -248 -34 -83 -35 -231 -2 -319 67 -176 215 -279 430 -300 48 -4 94 -16 128 -32 82 -40 176 -38 263 4 123 60 219 191 219 298 0 66 -16 101 -77 166 -29 31 -52 70 -68 114 -59 161 -186 263 -394 316 -90 23 -179 23 -246 1z m289 -62 c98 -33 171 -78 222 -137 56 -65 73 -91 74 -115 0 -15 -9 -17 -77 -12 -66 5 -87 3 -137 -16 -74 -28 -141 -93 -182 -175 -25 -52 -29 -70 -28 -140 1 -53 7 -91 18 -112 29 -57 19 -63 -71 -42 -167 39 -286 150 -328 306 -45 167 43 363 195 436 86 41 209 44 314 7z" transform="translate(589,-589) scale(1,1)" stroke="none" fill="#617376"/>
</g>
<g id="pattern4" transform="matrix(1.618,0,0,1.618,1540,1540)matrix(0.87,0.5,-0.5,0.87,0,0)">
<path d="M335 982 c-107 -37 -204 -132 -253 -248 -34 -83 -35 -231 -2 -319 67 -176 215 -279 430 -300 48 -4 94 -16 128 -32 82 -40 176 -38 263 4 123 60 219 191 219 298 0 66 -16 101 -77 166 -29 31 -52 70 -68 114 -59 161 -186 263 -394 316 -90 23 -179 23 -246 1z m289 -62 c98 -33 171 -78 222 -137 56 -65 73 -91 74 -115 0 -15 -9 -17 -77 -12 -66 5 -87 3 -137 -16 -74 -28 -141 -93 -182 -175 -25 -52 -29 -70 -28 -140 1 -53 7 -91 18 -112 29 -57 19 -63 -71 -42 -167 39 -286 150 -328 306 -45 167 43 363 195 436 86 41 209 44 314 7z" transform="translate(589,-589) scale(1,1)" stroke="none" fill="#617376"/>
</g>
</g>
</g>

<g id="3" transform="translate(4050.0,0)scale(0.25,0.25)">

<g id="pattern">
<rect width="5850" height="5850" fill="#324144"/>
<g id="pattern1" transform="matrix(1,0,0,1,364,364)">
<path d="M335 982 c-107 -37 -204 -132 -253 -248 -34 -83 -35 -231 -2 -319 67 -176 215 -279 430 -300 48 -4 94 -16 128 -32 82 -40 176 -38 263 4 123 60 219 191 219 298 0 66 -16 101 -77 166 -29 31 -52 70 -68 114 -59 161 -186 263 -394 316 -90 23 -179 23 -246 1z m289 -62 c98 -33 171 -78 222 -137 56 -65 73 -91 74 -115 0 -15 -9 -17 -77 -12 -66 5 -87 3 -137 -16 -74 -28 -141 -93 -182 -175 -25 -52 -29 -70 -28 -140 1 -53 7 -91 18 -112 29 -57 19 -63 -71 -42 -167 39 -286 150 -328 306 -45 167 43 363 195 436 86 41 209 44 314 7z" transform="translate(0.000000,0.000000) scale(1,1)" stroke="none" fill="#617376"/>
</g>
<g id="pattern2" transform="matrix(0.618,0,0,0.618,2772,814)">
<path d="M335 982 c-107 -37 -204 -132 -253 -248 -34 -83 -35 -231 -2 -319 67 -176 215 -279 430 -300 48 -4 94 -16 128 -32 82 -40 176 -38 263 4 123 60 219 191 219 298 0 66 -16 101 -77 166 -29 31 -52 70 -68 114 -59 161 -186 263 -394 316 -90 23 -179 23 -246 1z m289 -62 c98 -33 171 -78 222 -137 56 -65 73 -91 74 -115 0 -15 -9 -17 -77 -12 -66 5 -87 3 -137 -16 -74 -28 -141 -93 -182 -175 -25 -52 -29 -70 -28 -140 1 -53 7 -91 18 -112 29 -57 19 -63 -71 -42 -167 39 -286 150 -328 306 -45 167 43 363 195 436 86 41 209 44 314 7z" transform="translate(3672,0.000000) scale(-1,1)" stroke="none" fill="#617376"/>
</g>
<g id="pattern3" transform="matrix(0.618,0,0,0.618,1039,3672)matrix(0.71,0.71,-0.71,0.71,0,0)">
<path d="M335 982 c-107 -37 -204 -132 -253 -248 -34 -83 -35 -231 -2 -319 67 -176 215 -279 430 -300 48 -4 94 -16 128 -32 82 -40 176 -38 263 4 123 60 219 191 219 298 0 66 -16 101 -77 166 -29 31 -52 70 -68 114 -59 161 -186 263 -394 316 -90 23 -179 23 -246 1z m289 -62 c98 -33 171 -78 222 -137 56 -65 73 -91 74 -115 0 -15 -9 -17 -77 -12 -66 5 -87 3 -137 -16 -74 -28 -141 -93 -182 -175 -25 -52 -29 -70 -28 -140 1 -53 7 -91 18 -112 29 -57 19 -63 -71 -42 -167 39 -286 150 -328 306 -45 167 43 363 195 436 86 41 209 44 314 7z" transform="translate(589,-589) scale(1,1)" stroke="none" fill="#617376"/>
</g>
<g id="pattern4" transform="matrix(1.618,0,0,1.618,1540,1540)matrix(0.87,0.5,-0.5,0.87,0,0)">
<path d="M335 982 c-107 -37 -204 -132 -253 -248 -34 -83 -35 -231 -2 -319 67 -176 215 -279 430 -300 48 -4 94 -16 128 -32 82 -40 176 -38 263 4 123 60 219 191 219 298 0 66 -16 101 -77 166 -29 31 -52 70 -68 114 -59 161 -186 263 -394 316 -90 23 -179 23 -246 1z m289 -62 c98 -33 171 -78 222 -137 56 -65 73 -91 74 -115 0 -15 -9 -17 -77 -12 -66 5 -87 3 -137 -16 -74 -28 -141 -93 -182 -175 -25 -52 -29 -70 -28 -140 1 -53 7 -91 18 -112 29 -57 19 -63 -71 -42 -167 39 -286 150 -328 306 -45 167 43 363 195 436 86 41 209 44 314 7z" transform="translate(589,-589) scale(1,1)" stroke="none" fill="#617376"/>
</g>
</g>
</g>

<g id="4" transform="translate(5400.0,0)scale(0.25,0.25)">

<g id="pattern">
<rect width="5850" height="5850" fill="#324144"/>
<g id="pattern1" transform="matrix(1,0,0,1,364,364)">
<path d="M335 982 c-107 -37 -204 -132 -253 -248 -34 -83 -35 -231 -2 -319 67 -176 215 -279 430 -300 48 -4 94 -16 128 -32 82 -40 176 -38 263 4 123 60 219 191 219 298 0 66 -16 101 -77 166 -29 31 -52 70 -68 114 -59 161 -186 263 -394 316 -90 23 -179 23 -246 1z m289 -62 c98 -33 171 -78 222 -137 56 -65 73 -91 74 -115 0 -15 -9 -17 -77 -12 -66 5 -87 3 -137 -16 -74 -28 -141 -93 -182 -175 -25 -52 -29 -70 -28 -140 1 -53 7 -91 18 -112 29 -57 19 -63 -71 -42 -167 39 -286 150 -328 306 -45 167 43 363 195 436 86 41 209 44 314 7z" transform="translate(0.000000,0.000000) scale(1,1)" stroke="none" fill="#617376"/>
</g>
<g id="pattern2" transform="matrix(0.618,0,0,0.618,2772,814)">
<path d="M335 982 c-107 -37 -204 -132 -253 -248 -34 -83 -35 -231 -2 -319 67 -176 215 -279 430 -300 48 -4 94 -16 128 -32 82 -40 176 -38 263 4 123 60 219 191 219 298 0 66 -16 101 -77 166 -29 31 -52 70 -68 114 -59 161 -186 263 -394 316 -90 23 -179 23 -246 1z m289 -62 c98 -33 171 -78 222 -137 56 -65 73 -91 74 -115 0 -15 -9 -17 -77 -12 -66 5 -87 3 -137 -16 -74 -28 -141 -93 -182 -175 -25 -52 -29 -70 -28 -140 1 -53 7 -91 18 -112 29 -57 19 -63 -71 -42 -167 39 -286 150 -328 306 -45 167 43 363 195 436 86 41 209 44 314 7z" transform="translate(3672,0.000000) scale(-1,1)" stroke="none" fill="#617376"/>
</g>
<g id="pattern3" transform="matrix(0.618,0,0,0.618,1039,3672)matrix(0.71,0.71,-0.71,0.71,0,0)">
<path d="M335 982 c-107 -37 -204 -132 -253 -248 -34 -83 -35 -231 -2 -319 67 -176 215 -279 430 -300 48 -4 94 -16 128 -32 82 -40 176 -38 263 4 123 60 219 191 219 298 0 66 -16 101 -77 166 -29 31 -52 70 -68 114 -59 161 -186 263 -394 316 -90 23 -179 23 -246 1z m289 -62 c98 -33 171 -78 222 -137 56 -65 73 -91 74 -115 0 -15 -9 -17 -77 -12 -66 5 -87 3 -137 -16 -74 -28 -141 -93 -182 -175 -25 -52 -29 -70 -28 -140 1 -53 7 -91 18 -112 29 -57 19 -63 -71 -42 -167 39 -286 150 -328 306 -45 167 43 363 195 436 86 41 209 44 314 7z" transform="translate(589,-589) scale(1,1)" stroke="none" fill="#617376"/>
</g>
<g id="pattern4" transform="matrix(1.618,0,0,1.618,1540,1540)matrix(0.87,0.5,-0.5,0.87,0,0)">
<path d="M335 982 c-107 -37 -204 -132 -253 -248 -34 -83 -35 -231 -2 -319 67 -176 215 -279 430 -300 48 -4 94 -16 128 -32 82 -40 176 -38 263 4 123 60 219 191 219 298 0 66 -16 101 -77 166 -29 31 -52 70 -68 114 -59 161 -186 263 -394 316 -90 23 -179 23 -246 1z m289 -62 c98 -33 171 -78 222 -137 56 -65 73 -91 74 -115 0 -15 -9 -17 -77 -12 -66 5 -87 3 -137 -16 -74 -28 -141 -93 -182 -175 -25 -52 -29 -70 -28 -140 1 -53 7 -91 18 -112 29 -57 19 -63 -71 -42 -167 39 -286 150 -328 306 -45 167 43 363 195 436 86 41 209 44 314 7z" transform="translate(589,-589) scale(1,1)" stroke="none" fill="#617376"/>
</g>
</g>
</g>

</g>
</svg>