<?xml version="1.0" standalone="no"?>
<!DOCTYPE svg PUBLIC "-//W3C//DTD SVG 20010904//EN"
 "http://www.w3.org/TR/2001/REC-SVG-20010904/DTD/svg10.dtd">
<svg version="1.0" xmlns="http://www.w3.org/2000/svg" width="484pt" height="360pt" viewBox="0 0 484 360" preserveAspectRatio = "xMidYMid meet" >
<metadata>
Created by ZoeQu, written in 2022
</metadata>
<rect width="484" height="360" fill="#E3E4EA"/>
<g id="col0" transform="translate(0, 12)">
<g id="0" transform="translate(0,0.0)scale(0.8,0.8)">

<path d="M387 889 c-47 -11 -103 -53 -123 -90 -18 -35 -18 -69 0 -136 l14 -52 -49 24 c-29 15 -65 25 -92 25 -92 0 -148 -111 -127 -257 13 -96 37 -135 94 -157 42 -16 80 -14 159 10 17 5 17 3 -2 -35 -28 -55 -27 -108 4 -152 23 -35 27 -37 98 -44 61 -5 88 -3 145 15 89 26 112 53 112 131 l0 53 48 -46 c70 -69 171 -114 328 -149 163 -35 214 -38 214 -10 0 33 -107 181 -197 272 l-85 87 105 7 c95 7 106 9 115 29 9 21 4 26 -82 68 -82 41 -103 47 -183 53 l-90 7 -18 49 c-27 76 -78 99 -145 64 -17 -9 -30 -14 -30 -13 0 2 7 28 15 58 22 83 19 126 -11 166 -26 34 -27 34 -103 33 -42 -1 -93 -5 -114 -10z m181 -40 c49 -17 58 -59 34 -159 -11 -44 -17 -79 -13 -77 101 56 142 40 165 -65 6 -27 9 -28 69 -28 34 0 85 -6 112 -14 67 -18 155 -63 155 -80 0 -17 -52 -26 -147 -26 l-72 0 83 -82 c89 -89 198 -241 189 -265 -6 -17 -28 -14 -193 23 -116 27 -220 72 -292 127 l-48 37 0 -43 c0 -23 -7 -52 -15 -64 -30 -43 -204 -80 -273 -59 -51 17 -67 107 -31 178 18 36 19 40 4 34 -48 -18 -108 -28 -139 -22 -87 17 -130 151 -91 284 26 87 88 110 181 68 31 -14 59 -25 61 -23 2 2 -4 23 -12 47 -20 58 -19 109 4 146 21 35 55 50 146 63 85 12 89 12 123 0z" transform="translate(0,90) scale(0.1,-0.1)" stroke="none" fill="#7F6278"/>

<path d="M752 461 c-4 -139 -46 -178 -146 -136 -41 17 -41 17 -22 -29 39 -93 196 -179 409 -224 116 -24 140 -27 144 -15 9 23 -105 181 -195 269 l-83 82 43 -5 c58 -6 180 9 185 23 4 11 -109 67 -158 79 -14 3 -59 9 -100 13 l-75 8 -2 -65z" transform="translate(0,90) scale(0.1,-0.1)" stroke="none" fill="#B9CF64"/>

<path d="M400 834 c-35 -7 -72 -22 -83 -32 -29 -29 -36 -80 -19 -145 7 -32 11 -61 8 -64 -3 -3 -29 4 -57 16 -92 38 -139 26 -170 -42 -23 -51 -26 -172 -5 -221 30 -72 102 -94 196 -61 23 8 44 15 46 15 2 0 -8 -24 -21 -52 -29 -61 -30 -77 -11 -122 15 -36 54 -56 111 -56 43 0 165 38 188 58 22 19 23 114 2 165 -20 49 -20 49 21 32 103 -43 144 -1 146 147 2 150 -48 203 -138 147 -39 -24 -40 -22 -19 66 38 158 -4 191 -195 149z" transform="translate(0,90) scale(0.1,-0.1)" stroke="none" fill="#B6AECD"/>

</g>

<g id="1" transform="translate(0,90.0)scale(0.8,0.8)">

<path d="M387 889 c-47 -11 -103 -53 -123 -90 -18 -35 -18 -69 0 -136 l14 -52 -49 24 c-29 15 -65 25 -92 25 -92 0 -148 -111 -127 -257 13 -96 37 -135 94 -157 42 -16 80 -14 159 10 17 5 17 3 -2 -35 -28 -55 -27 -108 4 -152 23 -35 27 -37 98 -44 61 -5 88 -3 145 15 89 26 112 53 112 131 l0 53 48 -46 c70 -69 171 -114 328 -149 163 -35 214 -38 214 -10 0 33 -107 181 -197 272 l-85 87 105 7 c95 7 106 9 115 29 9 21 4 26 -82 68 -82 41 -103 47 -183 53 l-90 7 -18 49 c-27 76 -78 99 -145 64 -17 -9 -30 -14 -30 -13 0 2 7 28 15 58 22 83 19 126 -11 166 -26 34 -27 34 -103 33 -42 -1 -93 -5 -114 -10z m181 -40 c49 -17 58 -59 34 -159 -11 -44 -17 -79 -13 -77 101 56 142 40 165 -65 6 -27 9 -28 69 -28 34 0 85 -6 112 -14 67 -18 155 -63 155 -80 0 -17 -52 -26 -147 -26 l-72 0 83 -82 c89 -89 198 -241 189 -265 -6 -17 -28 -14 -193 23 -116 27 -220 72 -292 127 l-48 37 0 -43 c0 -23 -7 -52 -15 -64 -30 -43 -204 -80 -273 -59 -51 17 -67 107 -31 178 18 36 19 40 4 34 -48 -18 -108 -28 -139 -22 -87 17 -130 151 -91 284 26 87 88 110 181 68 31 -14 59 -25 61 -23 2 2 -4 23 -12 47 -20 58 -19 109 4 146 21 35 55 50 146 63 85 12 89 12 123 0z" transform="translate(0,90) scale(0.1,-0.1)" stroke="none" fill="#7F6278"/>

<path d="M752 461 c-4 -139 -46 -178 -146 -136 -41 17 -41 17 -22 -29 39 -93 196 -179 409 -224 116 -24 140 -27 144 -15 9 23 -105 181 -195 269 l-83 82 43 -5 c58 -6 180 9 185 23 4 11 -109 67 -158 79 -14 3 -59 9 -100 13 l-75 8 -2 -65z" transform="translate(0,90) scale(0.1,-0.1)" stroke="none" fill="#B9CF64"/>

<path d="M400 834 c-35 -7 -72 -22 -83 -32 -29 -29 -36 -80 -19 -145 7 -32 11 -61 8 -64 -3 -3 -29 4 -57 16 -92 38 -139 26 -170 -42 -23 -51 -26 -172 -5 -221 30 -72 102 -94 196 -61 23 8 44 15 46 15 2 0 -8 -24 -21 -52 -29 -61 -30 -77 -11 -122 15 -36 54 -56 111 -56 43 0 165 38 188 58 22 19 23 114 2 165 -20 49 -20 49 21 32 103 -43 144 -1 146 147 2 150 -48 203 -138 147 -39 -24 -40 -22 -19 66 38 158 -4 191 -195 149z" transform="translate(0,90) scale(0.1,-0.1)" stroke="none" fill="#B6AECD"/>

</g>

<g id="2" transform="translate(0,180.0)scale(0.8,0.8)">

<path d="M387 889 c-47 -11 -103 -53 -123 -90 -18 -35 -18 -69 0 -136 l14 -52 -49 24 c-29 15 -65 25 -92 25 -92 0 -148 -111 -127 -257 13 -96 37 -135 94 -157 42 -16 80 -14 159 10 17 5 17 3 -2 -35 -28 -55 -27 -108 4 -152 23 -35 27 -37 98 -44 61 -5 88 -3 145 15 89 26 112 53 112 131 l0 53 48 -46 c70 -69 171 -114 328 -149 163 -35 214 -38 214 -10 0 33 -107 181 -197 272 l-85 87 105 7 c95 7 106 9 115 29 9 21 4 26 -82 68 -82 41 -103 47 -183 53 l-90 7 -18 49 c-27 76 -78 99 -145 64 -17 -9 -30 -14 -30 -13 0 2 7 28 15 58 22 83 19 126 -11 166 -26 34 -27 34 -103 33 -42 -1 -93 -5 -114 -10z m181 -40 c49 -17 58 -59 34 -159 -11 -44 -17 -79 -13 -77 101 56 142 40 165 -65 6 -27 9 -28 69 -28 34 0 85 -6 112 -14 67 -18 155 -63 155 -80 0 -17 -52 -26 -147 -26 l-72 0 83 -82 c89 -89 198 -241 189 -265 -6 -17 -28 -14 -193 23 -116 27 -220 72 -292 127 l-48 37 0 -43 c0 -23 -7 -52 -15 -64 -30 -43 -204 -80 -273 -59 -51 17 -67 107 -31 178 18 36 19 40 4 34 -48 -18 -108 -28 -139 -22 -87 17 -130 151 -91 284 26 87 88 110 181 68 31 -14 59 -25 61 -23 2 2 -4 23 -12 47 -20 58 -19 109 4 146 21 35 55 50 146 63 85 12 89 12 123 0z" transform="translate(0,90) scale(0.1,-0.1)" stroke="none" fill="#7F6278"/>

<path d="M752 461 c-4 -139 -46 -178 -146 -136 -41 17 -41 17 -22 -29 39 -93 196 -179 409 -224 116 -24 140 -27 144 -15 9 23 -105 181 -195 269 l-83 82 43 -5 c58 -6 180 9 185 23 4 11 -109 67 -158 79 -14 3 -59 9 -100 13 l-75 8 -2 -65z" transform="translate(0,90) scale(0.1,-0.1)" stroke="none" fill="#B9CF64"/>

<path d="M400 834 c-35 -7 -72 -22 -83 -32 -29 -29 -36 -80 -19 -145 7 -32 11 -61 8 -64 -3 -3 -29 4 -57 16 -92 38 -139 26 -170 -42 -23 -51 -26 -172 -5 -221 30 -72 102 -94 196 -61 23 8 44 15 46 15 2 0 -8 -24 -21 -52 -29 -61 -30 -77 -11 -122 15 -36 54 -56 111 -56 43 0 165 38 188 58 22 19 23 114 2 165 -20 49 -20 49 21 32 103 -43 144 -1 146 147 2 150 -48 203 -138 147 -39 -24 -40 -22 -19 66 38 158 -4 191 -195 149z" transform="translate(0,90) scale(0.1,-0.1)" stroke="none" fill="#B6AECD"/>

</g>

<g id="3" transform="translate(0,270.0)scale(0.8,0.8)">

<path d="M387 889 c-47 -11 -103 -53 -123 -90 -18 -35 -18 -69 0 -136 l14 -52 -49 24 c-29 15 -65 25 -92 25 -92 0 -148 -111 -127 -257 13 -96 37 -135 94 -157 42 -16 80 -14 159 10 17 5 17 3 -2 -35 -28 -55 -27 -108 4 -152 23 -35 27 -37 98 -44 61 -5 88 -3 145 15 89 26 112 53 112 131 l0 53 48 -46 c70 -69 171 -114 328 -149 163 -35 214 -38 214 -10 0 33 -107 181 -197 272 l-85 87 105 7 c95 7 106 9 115 29 9 21 4 26 -82 68 -82 41 -103 47 -183 53 l-90 7 -18 49 c-27 76 -78 99 -145 64 -17 -9 -30 -14 -30 -13 0 2 7 28 15 58 22 83 19 126 -11 166 -26 34 -27 34 -103 33 -42 -1 -93 -5 -114 -10z m181 -40 c49 -17 58 -59 34 -159 -11 -44 -17 -79 -13 -77 101 56 142 40 165 -65 6 -27 9 -28 69 -28 34 0 85 -6 112 -14 67 -18 155 -63 155 -80 0 -17 -52 -26 -147 -26 l-72 0 83 -82 c89 -89 198 -241 189 -265 -6 -17 -28 -14 -193 23 -116 27 -220 72 -292 127 l-48 37 0 -43 c0 -23 -7 -52 -15 -64 -30 -43 -204 -80 -273 -59 -51 17 -67 107 -31 178 18 36 19 40 4 34 -48 -18 -108 -28 -139 -22 -87 17 -130 151 -91 284 26 87 88 110 181 68 31 -14 59 -25 61 -23 2 2 -4 23 -12 47 -20 58 -19 109 4 146 21 35 55 50 146 63 85 12 89 12 123 0z" transform="translate(0,90) scale(0.1,-0.1)" stroke="none" fill="#7F6278"/>

<path d="M752 461 c-4 -139 -46 -178 -146 -136 -41 17 -41 17 -22 -29 39 -93 196 -179 409 -224 116 -24 140 -27 144 -15 9 23 -105 181 -195 269 l-83 82 43 -5 c58 -6 180 9 185 23 4 11 -109 67 -158 79 -14 3 -59 9 -100 13 l-75 8 -2 -65z" transform="translate(0,90) scale(0.1,-0.1)" stroke="none" fill="#B9CF64"/>

<path d="M400 834 c-35 -7 -72 -22 -83 -32 -29 -29 -36 -80 -19 -145 7 -32 11 -61 8 -64 -3 -3 -29 4 -57 16 -92 38 -139 26 -170 -42 -23 -51 -26 -172 -5 -221 30 -72 102 -94 196 -61 23 8 44 15 46 15 2 0 -8 -24 -21 -52 -29 -61 -30 -77 -11 -122 15 -36 54 -56 111 -56 43 0 165 38 188 58 22 19 23 114 2 165 -20 49 -20 49 21 32 103 -43 144 -1 146 147 2 150 -48 203 -138 147 -39 -24 -40 -22 -19 66 38 158 -4 191 -195 149z" transform="translate(0,90) scale(0.1,-0.1)" stroke="none" fill="#B6AECD"/>

</g>

<g id="4" transform="translate(0,360.0)scale(0.8,0.8)">

<path d="M387 889 c-47 -11 -103 -53 -123 -90 -18 -35 -18 -69 0 -136 l14 -52 -49 24 c-29 15 -65 25 -92 25 -92 0 -148 -111 -127 -257 13 -96 37 -135 94 -157 42 -16 80 -14 159 10 17 5 17 3 -2 -35 -28 -55 -27 -108 4 -152 23 -35 27 -37 98 -44 61 -5 88 -3 145 15 89 26 112 53 112 131 l0 53 48 -46 c70 -69 171 -114 328 -149 163 -35 214 -38 214 -10 0 33 -107 181 -197 272 l-85 87 105 7 c95 7 106 9 115 29 9 21 4 26 -82 68 -82 41 -103 47 -183 53 l-90 7 -18 49 c-27 76 -78 99 -145 64 -17 -9 -30 -14 -30 -13 0 2 7 28 15 58 22 83 19 126 -11 166 -26 34 -27 34 -103 33 -42 -1 -93 -5 -114 -10z m181 -40 c49 -17 58 -59 34 -159 -11 -44 -17 -79 -13 -77 101 56 142 40 165 -65 6 -27 9 -28 69 -28 34 0 85 -6 112 -14 67 -18 155 -63 155 -80 0 -17 -52 -26 -147 -26 l-72 0 83 -82 c89 -89 198 -241 189 -265 -6 -17 -28 -14 -193 23 -116 27 -220 72 -292 127 l-48 37 0 -43 c0 -23 -7 -52 -15 -64 -30 -43 -204 -80 -273 -59 -51 17 -67 107 -31 178 18 36 19 40 4 34 -48 -18 -108 -28 -139 -22 -87 17 -130 151 -91 284 26 87 88 110 181 68 31 -14 59 -25 61 -23 2 2 -4 23 -12 47 -20 58 -19 109 4 146 21 35 55 50 146 63 85 12 89 12 123 0z" transform="translate(0,90) scale(0.1,-0.1)" stroke="none" fill="#7F6278"/>

<path d="M752 461 c-4 -139 -46 -178 -146 -136 -41 17 -41 17 -22 -29 39 -93 196 -179 409 -224 116 -24 140 -27 144 -15 9 23 -105 181 -195 269 l-83 82 43 -5 c58 -6 180 9 185 23 4 11 -109 67 -158 79 -14 3 -59 9 -100 13 l-75 8 -2 -65z" transform="translate(0,90) scale(0.1,-0.1)" stroke="none" fill="#B9CF64"/>

<path d="M400 834 c-35 -7 -72 -22 -83 -32 -29 -29 -36 -80 -19 -145 7 -32 11 -61 8 -64 -3 -3 -29 4 -57 16 -92 38 -139 26 -170 -42 -23 -51 -26 -172 -5 -221 30 -72 102 -94 196 -61 23 8 44 15 46 15 2 0 -8 -24 -21 -52 -29 -61 -30 -77 -11 -122 15 -36 54 -56 111 -56 43 0 165 38 188 58 22 19 23 114 2 165 -20 49 -20 49 21 32 103 -43 144 -1 146 147 2 150 -48 203 -138 147 -39 -24 -40 -22 -19 66 38 158 -4 191 -195 149z" transform="translate(0,90) scale(0.1,-0.1)" stroke="none" fill="#B6AECD"/>

</g>

</g>
<g id="col1" transform="translate(121, -33.0)">
<g id="0" transform="translate(0,0.0)scale(0.8,0.8)">

<path d="M387 889 c-47 -11 -103 -53 -123 -90 -18 -35 -18 -69 0 -136 l14 -52 -49 24 c-29 15 -65 25 -92 25 -92 0 -148 -111 -127 -257 13 -96 37 -135 94 -157 42 -16 80 -14 159 10 17 5 17 3 -2 -35 -28 -55 -27 -108 4 -152 23 -35 27 -37 98 -44 61 -5 88 -3 145 15 89 26 112 53 112 131 l0 53 48 -46 c70 -69 171 -114 328 -149 163 -35 214 -38 214 -10 0 33 -107 181 -197 272 l-85 87 105 7 c95 7 106 9 115 29 9 21 4 26 -82 68 -82 41 -103 47 -183 53 l-90 7 -18 49 c-27 76 -78 99 -145 64 -17 -9 -30 -14 -30 -13 0 2 7 28 15 58 22 83 19 126 -11 166 -26 34 -27 34 -103 33 -42 -1 -93 -5 -114 -10z m181 -40 c49 -17 58 -59 34 -159 -11 -44 -17 -79 -13 -77 101 56 142 40 165 -65 6 -27 9 -28 69 -28 34 0 85 -6 112 -14 67 -18 155 -63 155 -80 0 -17 -52 -26 -147 -26 l-72 0 83 -82 c89 -89 198 -241 189 -265 -6 -17 -28 -14 -193 23 -116 27 -220 72 -292 127 l-48 37 0 -43 c0 -23 -7 -52 -15 -64 -30 -43 -204 -80 -273 -59 -51 17 -67 107 -31 178 18 36 19 40 4 34 -48 -18 -108 -28 -139 -22 -87 17 -130 151 -91 284 26 87 88 110 181 68 31 -14 59 -25 61 -23 2 2 -4 23 -12 47 -20 58 -19 109 4 146 21 35 55 50 146 63 85 12 89 12 123 0z" transform="translate(0,90) scale(0.1,-0.1)" stroke="none" fill="#7F6278"/>

<path d="M752 461 c-4 -139 -46 -178 -146 -136 -41 17 -41 17 -22 -29 39 -93 196 -179 409 -224 116 -24 140 -27 144 -15 9 23 -105 181 -195 269 l-83 82 43 -5 c58 -6 180 9 185 23 4 11 -109 67 -158 79 -14 3 -59 9 -100 13 l-75 8 -2 -65z" transform="translate(0,90) scale(0.1,-0.1)" stroke="none" fill="#B9CF64"/>

<path d="M400 834 c-35 -7 -72 -22 -83 -32 -29 -29 -36 -80 -19 -145 7 -32 11 -61 8 -64 -3 -3 -29 4 -57 16 -92 38 -139 26 -170 -42 -23 -51 -26 -172 -5 -221 30 -72 102 -94 196 -61 23 8 44 15 46 15 2 0 -8 -24 -21 -52 -29 -61 -30 -77 -11 -122 15 -36 54 -56 111 -56 43 0 165 38 188 58 22 19 23 114 2 165 -20 49 -20 49 21 32 103 -43 144 -1 146 147 2 150 -48 203 -138 147 -39 -24 -40 -22 -19 66 38 158 -4 191 -195 149z" transform="translate(0,90) scale(0.1,-0.1)" stroke="none" fill="#B6AECD"/>

</g>

<g id="1" transform="translate(0,90.0)scale(0.8,0.8)">

<path d="M387 889 c-47 -11 -103 -53 -123 -90 -18 -35 -18 -69 0 -136 l14 -52 -49 24 c-29 15 -65 25 -92 25 -92 0 -148 -111 -127 -257 13 -96 37 -135 94 -157 42 -16 80 -14 159 10 17 5 17 3 -2 -35 -28 -55 -27 -108 4 -152 23 -35 27 -37 98 -44 61 -5 88 -3 145 15 89 26 112 53 112 131 l0 53 48 -46 c70 -69 171 -114 328 -149 163 -35 214 -38 214 -10 0 33 -107 181 -197 272 l-85 87 105 7 c95 7 106 9 115 29 9 21 4 26 -82 68 -82 41 -103 47 -183 53 l-90 7 -18 49 c-27 76 -78 99 -145 64 -17 -9 -30 -14 -30 -13 0 2 7 28 15 58 22 83 19 126 -11 166 -26 34 -27 34 -103 33 -42 -1 -93 -5 -114 -10z m181 -40 c49 -17 58 -59 34 -159 -11 -44 -17 -79 -13 -77 101 56 142 40 165 -65 6 -27 9 -28 69 -28 34 0 85 -6 112 -14 67 -18 155 -63 155 -80 0 -17 -52 -26 -147 -26 l-72 0 83 -82 c89 -89 198 -241 189 -265 -6 -17 -28 -14 -193 23 -116 27 -220 72 -292 127 l-48 37 0 -43 c0 -23 -7 -52 -15 -64 -30 -43 -204 -80 -273 -59 -51 17 -67 107 -31 178 18 36 19 40 4 34 -48 -18 -108 -28 -139 -22 -87 17 -130 151 -91 284 26 87 88 110 181 68 31 -14 59 -25 61 -23 2 2 -4 23 -12 47 -20 58 -19 109 4 146 21 35 55 50 146 63 85 12 89 12 123 0z" transform="translate(0,90) scale(0.1,-0.1)" stroke="none" fill="#7F6278"/>

<path d="M752 461 c-4 -139 -46 -178 -146 -136 -41 17 -41 17 -22 -29 39 -93 196 -179 409 -224 116 -24 140 -27 144 -15 9 23 -105 181 -195 269 l-83 82 43 -5 c58 -6 180 9 185 23 4 11 -109 67 -158 79 -14 3 -59 9 -100 13 l-75 8 -2 -65z" transform="translate(0,90) scale(0.1,-0.1)" stroke="none" fill="#B9CF64"/>

<path d="M400 834 c-35 -7 -72 -22 -83 -32 -29 -29 -36 -80 -19 -145 7 -32 11 -61 8 -64 -3 -3 -29 4 -57 16 -92 38 -139 26 -170 -42 -23 -51 -26 -172 -5 -221 30 -72 102 -94 196 -61 23 8 44 15 46 15 2 0 -8 -24 -21 -52 -29 -61 -30 -77 -11 -122 15 -36 54 -56 111 -56 43 0 165 38 188 58 22 19 23 114 2 165 -20 49 -20 49 21 32 103 -43 144 -1 146 147 2 150 -48 203 -138 147 -39 -24 -40 -22 -19 66 38 158 -4 191 -195 149z" transform="translate(0,90) scale(0.1,-0.1)" stroke="none" fill="#B6AECD"/>

</g>

<g id="2" transform="translate(0,180.0)scale(0.8,0.8)">

<path d="M387 889 c-47 -11 -103 -53 -123 -90 -18 -35 -18 -69 0 -136 l14 -52 -49 24 c-29 15 -65 25 -92 25 -92 0 -148 -111 -127 -257 13 -96 37 -135 94 -157 42 -16 80 -14 159 10 17 5 17 3 -2 -35 -28 -55 -27 -108 4 -152 23 -35 27 -37 98 -44 61 -5 88 -3 145 15 89 26 112 53 112 131 l0 53 48 -46 c70 -69 171 -114 328 -149 163 -35 214 -38 214 -10 0 33 -107 181 -197 272 l-85 87 105 7 c95 7 106 9 115 29 9 21 4 26 -82 68 -82 41 -103 47 -183 53 l-90 7 -18 49 c-27 76 -78 99 -145 64 -17 -9 -30 -14 -30 -13 0 2 7 28 15 58 22 83 19 126 -11 166 -26 34 -27 34 -103 33 -42 -1 -93 -5 -114 -10z m181 -40 c49 -17 58 -59 34 -159 -11 -44 -17 -79 -13 -77 101 56 142 40 165 -65 6 -27 9 -28 69 -28 34 0 85 -6 112 -14 67 -18 155 -63 155 -80 0 -17 -52 -26 -147 -26 l-72 0 83 -82 c89 -89 198 -241 189 -265 -6 -17 -28 -14 -193 23 -116 27 -220 72 -292 127 l-48 37 0 -43 c0 -23 -7 -52 -15 -64 -30 -43 -204 -80 -273 -59 -51 17 -67 107 -31 178 18 36 19 40 4 34 -48 -18 -108 -28 -139 -22 -87 17 -130 151 -91 284 26 87 88 110 181 68 31 -14 59 -25 61 -23 2 2 -4 23 -12 47 -20 58 -19 109 4 146 21 35 55 50 146 63 85 12 89 12 123 0z" transform="translate(0,90) scale(0.1,-0.1)" stroke="none" fill="#7F6278"/>

<path d="M752 461 c-4 -139 -46 -178 -146 -136 -41 17 -41 17 -22 -29 39 -93 196 -179 409 -224 116 -24 140 -27 144 -15 9 23 -105 181 -195 269 l-83 82 43 -5 c58 -6 180 9 185 23 4 11 -109 67 -158 79 -14 3 -59 9 -100 13 l-75 8 -2 -65z" transform="translate(0,90) scale(0.1,-0.1)" stroke="none" fill="#B9CF64"/>

<path d="M400 834 c-35 -7 -72 -22 -83 -32 -29 -29 -36 -80 -19 -145 7 -32 11 -61 8 -64 -3 -3 -29 4 -57 16 -92 38 -139 26 -170 -42 -23 -51 -26 -172 -5 -221 30 -72 102 -94 196 -61 23 8 44 15 46 15 2 0 -8 -24 -21 -52 -29 -61 -30 -77 -11 -122 15 -36 54 -56 111 -56 43 0 165 38 188 58 22 19 23 114 2 165 -20 49 -20 49 21 32 103 -43 144 -1 146 147 2 150 -48 203 -138 147 -39 -24 -40 -22 -19 66 38 158 -4 191 -195 149z" transform="translate(0,90) scale(0.1,-0.1)" stroke="none" fill="#B6AECD"/>

</g>

<g id="3" transform="translate(0,270.0)scale(0.8,0.8)">

<path d="M387 889 c-47 -11 -103 -53 -123 -90 -18 -35 -18 -69 0 -136 l14 -52 -49 24 c-29 15 -65 25 -92 25 -92 0 -148 -111 -127 -257 13 -96 37 -135 94 -157 42 -16 80 -14 159 10 17 5 17 3 -2 -35 -28 -55 -27 -108 4 -152 23 -35 27 -37 98 -44 61 -5 88 -3 145 15 89 26 112 53 112 131 l0 53 48 -46 c70 -69 171 -114 328 -149 163 -35 214 -38 214 -10 0 33 -107 181 -197 272 l-85 87 105 7 c95 7 106 9 115 29 9 21 4 26 -82 68 -82 41 -103 47 -183 53 l-90 7 -18 49 c-27 76 -78 99 -145 64 -17 -9 -30 -14 -30 -13 0 2 7 28 15 58 22 83 19 126 -11 166 -26 34 -27 34 -103 33 -42 -1 -93 -5 -114 -10z m181 -40 c49 -17 58 -59 34 -159 -11 -44 -17 -79 -13 -77 101 56 142 40 165 -65 6 -27 9 -28 69 -28 34 0 85 -6 112 -14 67 -18 155 -63 155 -80 0 -17 -52 -26 -147 -26 l-72 0 83 -82 c89 -89 198 -241 189 -265 -6 -17 -28 -14 -193 23 -116 27 -220 72 -292 127 l-48 37 0 -43 c0 -23 -7 -52 -15 -64 -30 -43 -204 -80 -273 -59 -51 17 -67 107 -31 178 18 36 19 40 4 34 -48 -18 -108 -28 -139 -22 -87 17 -130 151 -91 284 26 87 88 110 181 68 31 -14 59 -25 61 -23 2 2 -4 23 -12 47 -20 58 -19 109 4 146 21 35 55 50 146 63 85 12 89 12 123 0z" transform="translate(0,90) scale(0.1,-0.1)" stroke="none" fill="#7F6278"/>

<path d="M752 461 c-4 -139 -46 -178 -146 -136 -41 17 -41 17 -22 -29 39 -93 196 -179 409 -224 116 -24 140 -27 144 -15 9 23 -105 181 -195 269 l-83 82 43 -5 c58 -6 180 9 185 23 4 11 -109 67 -158 79 -14 3 -59 9 -100 13 l-75 8 -2 -65z" transform="translate(0,90) scale(0.1,-0.1)" stroke="none" fill="#B9CF64"/>

<path d="M400 834 c-35 -7 -72 -22 -83 -32 -29 -29 -36 -80 -19 -145 7 -32 11 -61 8 -64 -3 -3 -29 4 -57 16 -92 38 -139 26 -170 -42 -23 -51 -26 -172 -5 -221 30 -72 102 -94 196 -61 23 8 44 15 46 15 2 0 -8 -24 -21 -52 -29 -61 -30 -77 -11 -122 15 -36 54 -56 111 -56 43 0 165 38 188 58 22 19 23 114 2 165 -20 49 -20 49 21 32 103 -43 144 -1 146 147 2 150 -48 203 -138 147 -39 -24 -40 -22 -19 66 38 158 -4 191 -195 149z" transform="translate(0,90) scale(0.1,-0.1)" stroke="none" fill="#B6AECD"/>

</g>

<g id="4" transform="translate(0,360.0)scale(0.8,0.8)">

<path d="M387 889 c-47 -11 -103 -53 -123 -90 -18 -35 -18 -69 0 -136 l14 -52 -49 24 c-29 15 -65 25 -92 25 -92 0 -148 -111 -127 -257 13 -96 37 -135 94 -157 42 -16 80 -14 159 10 17 5 17 3 -2 -35 -28 -55 -27 -108 4 -152 23 -35 27 -37 98 -44 61 -5 88 -3 145 15 89 26 112 53 112 131 l0 53 48 -46 c70 -69 171 -114 328 -149 163 -35 214 -38 214 -10 0 33 -107 181 -197 272 l-85 87 105 7 c95 7 106 9 115 29 9 21 4 26 -82 68 -82 41 -103 47 -183 53 l-90 7 -18 49 c-27 76 -78 99 -145 64 -17 -9 -30 -14 -30 -13 0 2 7 28 15 58 22 83 19 126 -11 166 -26 34 -27 34 -103 33 -42 -1 -93 -5 -114 -10z m181 -40 c49 -17 58 -59 34 -159 -11 -44 -17 -79 -13 -77 101 56 142 40 165 -65 6 -27 9 -28 69 -28 34 0 85 -6 112 -14 67 -18 155 -63 155 -80 0 -17 -52 -26 -147 -26 l-72 0 83 -82 c89 -89 198 -241 189 -265 -6 -17 -28 -14 -193 23 -116 27 -220 72 -292 127 l-48 37 0 -43 c0 -23 -7 -52 -15 -64 -30 -43 -204 -80 -273 -59 -51 17 -67 107 -31 178 18 36 19 40 4 34 -48 -18 -108 -28 -139 -22 -87 17 -130 151 -91 284 26 87 88 110 181 68 31 -14 59 -25 61 -23 2 2 -4 23 -12 47 -20 58 -19 109 4 146 21 35 55 50 146 63 85 12 89 12 123 0z" transform="translate(0,90) scale(0.1,-0.1)" stroke="none" fill="#7F6278"/>

<path d="M752 461 c-4 -139 -46 -178 -146 -136 -41 17 -41 17 -22 -29 39 -93 196 -179 409 -224 116 -24 140 -27 144 -15 9 23 -105 181 -195 269 l-83 82 43 -5 c58 -6 180 9 185 23 4 11 -109 67 -158 79 -14 3 -59 9 -100 13 l-75 8 -2 -65z" transform="translate(0,90) scale(0.1,-0.1)" stroke="none" fill="#B9CF64"/>

<path d="M400 834 c-35 -7 -72 -22 -83 -32 -29 -29 -36 -80 -19 -145 7 -32 11 -61 8 -64 -3 -3 -29 4 -57 16 -92 38 -139 26 -170 -42 -23 -51 -26 -172 -5 -221 30 -72 102 -94 196 -61 23 8 44 15 46 15 2 0 -8 -24 -21 -52 -29 -61 -30 -77 -11 -122 15 -36 54 -56 111 -56 43 0 165 38 188 58 22 19 23 114 2 165 -20 49 -20 49 21 32 103 -43 144 -1 146 147 2 150 -48 203 -138 147 -39 -24 -40 -22 -19 66 38 158 -4 191 -195 149z" transform="translate(0,90) scale(0.1,-0.1)" stroke="none" fill="#B6AECD"/>

</g>

</g>
<g id="col2" transform="translate(242, 12)">
<g id="0" transform="translate(0,0.0)scale(0.8,0.8)">

<path d="M387 889 c-47 -11 -103 -53 -123 -90 -18 -35 -18 -69 0 -136 l14 -52 -49 24 c-29 15 -65 25 -92 25 -92 0 -148 -111 -127 -257 13 -96 37 -135 94 -157 42 -16 80 -14 159 10 17 5 17 3 -2 -35 -28 -55 -27 -108 4 -152 23 -35 27 -37 98 -44 61 -5 88 -3 145 15 89 26 112 53 112 131 l0 53 48 -46 c70 -69 171 -114 328 -149 163 -35 214 -38 214 -10 0 33 -107 181 -197 272 l-85 87 105 7 c95 7 106 9 115 29 9 21 4 26 -82 68 -82 41 -103 47 -183 53 l-90 7 -18 49 c-27 76 -78 99 -145 64 -17 -9 -30 -14 -30 -13 0 2 7 28 15 58 22 83 19 126 -11 166 -26 34 -27 34 -103 33 -42 -1 -93 -5 -114 -10z m181 -40 c49 -17 58 -59 34 -159 -11 -44 -17 -79 -13 -77 101 56 142 40 165 -65 6 -27 9 -28 69 -28 34 0 85 -6 112 -14 67 -18 155 -63 155 -80 0 -17 -52 -26 -147 -26 l-72 0 83 -82 c89 -89 198 -241 189 -265 -6 -17 -28 -14 -193 23 -116 27 -220 72 -292 127 l-48 37 0 -43 c0 -23 -7 -52 -15 -64 -30 -43 -204 -80 -273 -59 -51 17 -67 107 -31 178 18 36 19 40 4 34 -48 -18 -108 -28 -139 -22 -87 17 -130 151 -91 284 26 87 88 110 181 68 31 -14 59 -25 61 -23 2 2 -4 23 -12 47 -20 58 -19 109 4 146 21 35 55 50 146 63 85 12 89 12 123 0z" transform="translate(0,90) scale(0.1,-0.1)" stroke="none" fill="#7F6278"/>

<path d="M752 461 c-4 -139 -46 -178 -146 -136 -41 17 -41 17 -22 -29 39 -93 196 -179 409 -224 116 -24 140 -27 144 -15 9 23 -105 181 -195 269 l-83 82 43 -5 c58 -6 180 9 185 23 4 11 -109 67 -158 79 -14 3 -59 9 -100 13 l-75 8 -2 -65z" transform="translate(0,90) scale(0.1,-0.1)" stroke="none" fill="#B9CF64"/>

<path d="M400 834 c-35 -7 -72 -22 -83 -32 -29 -29 -36 -80 -19 -145 7 -32 11 -61 8 -64 -3 -3 -29 4 -57 16 -92 38 -139 26 -170 -42 -23 -51 -26 -172 -5 -221 30 -72 102 -94 196 -61 23 8 44 15 46 15 2 0 -8 -24 -21 -52 -29 -61 -30 -77 -11 -122 15 -36 54 -56 111 -56 43 0 165 38 188 58 22 19 23 114 2 165 -20 49 -20 49 21 32 103 -43 144 -1 146 147 2 150 -48 203 -138 147 -39 -24 -40 -22 -19 66 38 158 -4 191 -195 149z" transform="translate(0,90) scale(0.1,-0.1)" stroke="none" fill="#B6AECD"/>

</g>

<g id="1" transform="translate(0,90.0)scale(0.8,0.8)">

<path d="M387 889 c-47 -11 -103 -53 -123 -90 -18 -35 -18 -69 0 -136 l14 -52 -49 24 c-29 15 -65 25 -92 25 -92 0 -148 -111 -127 -257 13 -96 37 -135 94 -157 42 -16 80 -14 159 10 17 5 17 3 -2 -35 -28 -55 -27 -108 4 -152 23 -35 27 -37 98 -44 61 -5 88 -3 145 15 89 26 112 53 112 131 l0 53 48 -46 c70 -69 171 -114 328 -149 163 -35 214 -38 214 -10 0 33 -107 181 -197 272 l-85 87 105 7 c95 7 106 9 115 29 9 21 4 26 -82 68 -82 41 -103 47 -183 53 l-90 7 -18 49 c-27 76 -78 99 -145 64 -17 -9 -30 -14 -30 -13 0 2 7 28 15 58 22 83 19 126 -11 166 -26 34 -27 34 -103 33 -42 -1 -93 -5 -114 -10z m181 -40 c49 -17 58 -59 34 -159 -11 -44 -17 -79 -13 -77 101 56 142 40 165 -65 6 -27 9 -28 69 -28 34 0 85 -6 112 -14 67 -18 155 -63 155 -80 0 -17 -52 -26 -147 -26 l-72 0 83 -82 c89 -89 198 -241 189 -265 -6 -17 -28 -14 -193 23 -116 27 -220 72 -292 127 l-48 37 0 -43 c0 -23 -7 -52 -15 -64 -30 -43 -204 -80 -273 -59 -51 17 -67 107 -31 178 18 36 19 40 4 34 -48 -18 -108 -28 -139 -22 -87 17 -130 151 -91 284 26 87 88 110 181 68 31 -14 59 -25 61 -23 2 2 -4 23 -12 47 -20 58 -19 109 4 146 21 35 55 50 146 63 85 12 89 12 123 0z" transform="translate(0,90) scale(0.1,-0.1)" stroke="none" fill="#7F6278"/>

<path d="M752 461 c-4 -139 -46 -178 -146 -136 -41 17 -41 17 -22 -29 39 -93 196 -179 409 -224 116 -24 140 -27 144 -15 9 23 -105 181 -195 269 l-83 82 43 -5 c58 -6 180 9 185 23 4 11 -109 67 -158 79 -14 3 -59 9 -100 13 l-75 8 -2 -65z" transform="translate(0,90) scale(0.1,-0.1)" stroke="none" fill="#B9CF64"/>

<path d="M400 834 c-35 -7 -72 -22 -83 -32 -29 -29 -36 -80 -19 -145 7 -32 11 -61 8 -64 -3 -3 -29 4 -57 16 -92 38 -139 26 -170 -42 -23 -51 -26 -172 -5 -221 30 -72 102 -94 196 -61 23 8 44 15 46 15 2 0 -8 -24 -21 -52 -29 -61 -30 -77 -11 -122 15 -36 54 -56 111 -56 43 0 165 38 188 58 22 19 23 114 2 165 -20 49 -20 49 21 32 103 -43 144 -1 146 147 2 150 -48 203 -138 147 -39 -24 -40 -22 -19 66 38 158 -4 191 -195 149z" transform="translate(0,90) scale(0.1,-0.1)" stroke="none" fill="#B6AECD"/>

</g>

<g id="2" transform="translate(0,180.0)scale(0.8,0.8)">

<path d="M387 889 c-47 -11 -103 -53 -123 -90 -18 -35 -18 -69 0 -136 l14 -52 -49 24 c-29 15 -65 25 -92 25 -92 0 -148 -111 -127 -257 13 -96 37 -135 94 -157 42 -16 80 -14 159 10 17 5 17 3 -2 -35 -28 -55 -27 -108 4 -152 23 -35 27 -37 98 -44 61 -5 88 -3 145 15 89 26 112 53 112 131 l0 53 48 -46 c70 -69 171 -114 328 -149 163 -35 214 -38 214 -10 0 33 -107 181 -197 272 l-85 87 105 7 c95 7 106 9 115 29 9 21 4 26 -82 68 -82 41 -103 47 -183 53 l-90 7 -18 49 c-27 76 -78 99 -145 64 -17 -9 -30 -14 -30 -13 0 2 7 28 15 58 22 83 19 126 -11 166 -26 34 -27 34 -103 33 -42 -1 -93 -5 -114 -10z m181 -40 c49 -17 58 -59 34 -159 -11 -44 -17 -79 -13 -77 101 56 142 40 165 -65 6 -27 9 -28 69 -28 34 0 85 -6 112 -14 67 -18 155 -63 155 -80 0 -17 -52 -26 -147 -26 l-72 0 83 -82 c89 -89 198 -241 189 -265 -6 -17 -28 -14 -193 23 -116 27 -220 72 -292 127 l-48 37 0 -43 c0 -23 -7 -52 -15 -64 -30 -43 -204 -80 -273 -59 -51 17 -67 107 -31 178 18 36 19 40 4 34 -48 -18 -108 -28 -139 -22 -87 17 -130 151 -91 284 26 87 88 110 181 68 31 -14 59 -25 61 -23 2 2 -4 23 -12 47 -20 58 -19 109 4 146 21 35 55 50 146 63 85 12 89 12 123 0z" transform="translate(0,90) scale(0.1,-0.1)" stroke="none" fill="#7F6278"/>

<path d="M752 461 c-4 -139 -46 -178 -146 -136 -41 17 -41 17 -22 -29 39 -93 196 -179 409 -224 116 -24 140 -27 144 -15 9 23 -105 181 -195 269 l-83 82 43 -5 c58 -6 180 9 185 23 4 11 -109 67 -158 79 -14 3 -59 9 -100 13 l-75 8 -2 -65z" transform="translate(0,90) scale(0.1,-0.1)" stroke="none" fill="#B9CF64"/>

<path d="M400 834 c-35 -7 -72 -22 -83 -32 -29 -29 -36 -80 -19 -145 7 -32 11 -61 8 -64 -3 -3 -29 4 -57 16 -92 38 -139 26 -170 -42 -23 -51 -26 -172 -5 -221 30 -72 102 -94 196 -61 23 8 44 15 46 15 2 0 -8 -24 -21 -52 -29 -61 -30 -77 -11 -122 15 -36 54 -56 111 -56 43 0 165 38 188 58 22 19 23 114 2 165 -20 49 -20 49 21 32 103 -43 144 -1 146 147 2 150 -48 203 -138 147 -39 -24 -40 -22 -19 66 38 158 -4 191 -195 149z" transform="translate(0,90) scale(0.1,-0.1)" stroke="none" fill="#B6AECD"/>

</g>

<g id="3" transform="translate(0,270.0)scale(0.8,0.8)">

<path d="M387 889 c-47 -11 -103 -53 -123 -90 -18 -35 -18 -69 0 -136 l14 -52 -49 24 c-29 15 -65 25 -92 25 -92 0 -148 -111 -127 -257 13 -96 37 -135 94 -157 42 -16 80 -14 159 10 17 5 17 3 -2 -35 -28 -55 -27 -108 4 -152 23 -35 27 -37 98 -44 61 -5 88 -3 145 15 89 26 112 53 112 131 l0 53 48 -46 c70 -69 171 -114 328 -149 163 -35 214 -38 214 -10 0 33 -107 181 -197 272 l-85 87 105 7 c95 7 106 9 115 29 9 21 4 26 -82 68 -82 41 -103 47 -183 53 l-90 7 -18 49 c-27 76 -78 99 -145 64 -17 -9 -30 -14 -30 -13 0 2 7 28 15 58 22 83 19 126 -11 166 -26 34 -27 34 -103 33 -42 -1 -93 -5 -114 -10z m181 -40 c49 -17 58 -59 34 -159 -11 -44 -17 -79 -13 -77 101 56 142 40 165 -65 6 -27 9 -28 69 -28 34 0 85 -6 112 -14 67 -18 155 -63 155 -80 0 -17 -52 -26 -147 -26 l-72 0 83 -82 c89 -89 198 -241 189 -265 -6 -17 -28 -14 -193 23 -116 27 -220 72 -292 127 l-48 37 0 -43 c0 -23 -7 -52 -15 -64 -30 -43 -204 -80 -273 -59 -51 17 -67 107 -31 178 18 36 19 40 4 34 -48 -18 -108 -28 -139 -22 -87 17 -130 151 -91 284 26 87 88 110 181 68 31 -14 59 -25 61 -23 2 2 -4 23 -12 47 -20 58 -19 109 4 146 21 35 55 50 146 63 85 12 89 12 123 0z" transform="translate(0,90) scale(0.1,-0.1)" stroke="none" fill="#7F6278"/>

<path d="M752 461 c-4 -139 -46 -178 -146 -136 -41 17 -41 17 -22 -29 39 -93 196 -179 409 -224 116 -24 140 -27 144 -15 9 23 -105 181 -195 269 l-83 82 43 -5 c58 -6 180 9 185 23 4 11 -109 67 -158 79 -14 3 -59 9 -100 13 l-75 8 -2 -65z" transform="translate(0,90) scale(0.1,-0.1)" stroke="none" fill="#B9CF64"/>

<path d="M400 834 c-35 -7 -72 -22 -83 -32 -29 -29 -36 -80 -19 -145 7 -32 11 -61 8 -64 -3 -3 -29 4 -57 16 -92 38 -139 26 -170 -42 -23 -51 -26 -172 -5 -221 30 -72 102 -94 196 -61 23 8 44 15 46 15 2 0 -8 -24 -21 -52 -29 -61 -30 -77 -11 -122 15 -36 54 -56 111 -56 43 0 165 38 188 58 22 19 23 114 2 165 -20 49 -20 49 21 32 103 -43 144 -1 146 147 2 150 -48 203 -138 147 -39 -24 -40 -22 -19 66 38 158 -4 191 -195 149z" transform="translate(0,90) scale(0.1,-0.1)" stroke="none" fill="#B6AECD"/>

</g>

<g id="4" transform="translate(0,360.0)scale(0.8,0.8)">

<path d="M387 889 c-47 -11 -103 -53 -123 -90 -18 -35 -18 -69 0 -136 l14 -52 -49 24 c-29 15 -65 25 -92 25 -92 0 -148 -111 -127 -257 13 -96 37 -135 94 -157 42 -16 80 -14 159 10 17 5 17 3 -2 -35 -28 -55 -27 -108 4 -152 23 -35 27 -37 98 -44 61 -5 88 -3 145 15 89 26 112 53 112 131 l0 53 48 -46 c70 -69 171 -114 328 -149 163 -35 214 -38 214 -10 0 33 -107 181 -197 272 l-85 87 105 7 c95 7 106 9 115 29 9 21 4 26 -82 68 -82 41 -103 47 -183 53 l-90 7 -18 49 c-27 76 -78 99 -145 64 -17 -9 -30 -14 -30 -13 0 2 7 28 15 58 22 83 19 126 -11 166 -26 34 -27 34 -103 33 -42 -1 -93 -5 -114 -10z m181 -40 c49 -17 58 -59 34 -159 -11 -44 -17 -79 -13 -77 101 56 142 40 165 -65 6 -27 9 -28 69 -28 34 0 85 -6 112 -14 67 -18 155 -63 155 -80 0 -17 -52 -26 -147 -26 l-72 0 83 -82 c89 -89 198 -241 189 -265 -6 -17 -28 -14 -193 23 -116 27 -220 72 -292 127 l-48 37 0 -43 c0 -23 -7 -52 -15 -64 -30 -43 -204 -80 -273 -59 -51 17 -67 107 -31 178 18 36 19 40 4 34 -48 -18 -108 -28 -139 -22 -87 17 -130 151 -91 284 26 87 88 110 181 68 31 -14 59 -25 61 -23 2 2 -4 23 -12 47 -20 58 -19 109 4 146 21 35 55 50 146 63 85 12 89 12 123 0z" transform="translate(0,90) scale(0.1,-0.1)" stroke="none" fill="#7F6278"/>

<path d="M752 461 c-4 -139 -46 -178 -146 -136 -41 17 -41 17 -22 -29 39 -93 196 -179 409 -224 116 -24 140 -27 144 -15 9 23 -105 181 -195 269 l-83 82 43 -5 c58 -6 180 9 185 23 4 11 -109 67 -158 79 -14 3 -59 9 -100 13 l-75 8 -2 -65z" transform="translate(0,90) scale(0.1,-0.1)" stroke="none" fill="#B9CF64"/>

<path d="M400 834 c-35 -7 -72 -22 -83 -32 -29 -29 -36 -80 -19 -145 7 -32 11 -61 8 -64 -3 -3 -29 4 -57 16 -92 38 -139 26 -170 -42 -23 -51 -26 -172 -5 -221 30 -72 102 -94 196 -61 23 8 44 15 46 15 2 0 -8 -24 -21 -52 -29 -61 -30 -77 -11 -122 15 -36 54 -56 111 -56 43 0 165 38 188 58 22 19 23 114 2 165 -20 49 -20 49 21 32 103 -43 144 -1 146 147 2 150 -48 203 -138 147 -39 -24 -40 -22 -19 66 38 158 -4 191 -195 149z" transform="translate(0,90) scale(0.1,-0.1)" stroke="none" fill="#B6AECD"/>

</g>

</g>
<g id="col3" transform="translate(363, -33.0)">
<g id="0" transform="translate(0,0.0)scale(0.8,0.8)">

<path d="M387 889 c-47 -11 -103 -53 -123 -90 -18 -35 -18 -69 0 -136 l14 -52 -49 24 c-29 15 -65 25 -92 25 -92 0 -148 -111 -127 -257 13 -96 37 -135 94 -157 42 -16 80 -14 159 10 17 5 17 3 -2 -35 -28 -55 -27 -108 4 -152 23 -35 27 -37 98 -44 61 -5 88 -3 145 15 89 26 112 53 112 131 l0 53 48 -46 c70 -69 171 -114 328 -149 163 -35 214 -38 214 -10 0 33 -107 181 -197 272 l-85 87 105 7 c95 7 106 9 115 29 9 21 4 26 -82 68 -82 41 -103 47 -183 53 l-90 7 -18 49 c-27 76 -78 99 -145 64 -17 -9 -30 -14 -30 -13 0 2 7 28 15 58 22 83 19 126 -11 166 -26 34 -27 34 -103 33 -42 -1 -93 -5 -114 -10z m181 -40 c49 -17 58 -59 34 -159 -11 -44 -17 -79 -13 -77 101 56 142 40 165 -65 6 -27 9 -28 69 -28 34 0 85 -6 112 -14 67 -18 155 -63 155 -80 0 -17 -52 -26 -147 -26 l-72 0 83 -82 c89 -89 198 -241 189 -265 -6 -17 -28 -14 -193 23 -116 27 -220 72 -292 127 l-48 37 0 -43 c0 -23 -7 -52 -15 -64 -30 -43 -204 -80 -273 -59 -51 17 -67 107 -31 178 18 36 19 40 4 34 -48 -18 -108 -28 -139 -22 -87 17 -130 151 -91 284 26 87 88 110 181 68 31 -14 59 -25 61 -23 2 2 -4 23 -12 47 -20 58 -19 109 4 146 21 35 55 50 146 63 85 12 89 12 123 0z" transform="translate(0,90) scale(0.1,-0.1)" stroke="none" fill="#7F6278"/>

<path d="M752 461 c-4 -139 -46 -178 -146 -136 -41 17 -41 17 -22 -29 39 -93 196 -179 409 -224 116 -24 140 -27 144 -15 9 23 -105 181 -195 269 l-83 82 43 -5 c58 -6 180 9 185 23 4 11 -109 67 -158 79 -14 3 -59 9 -100 13 l-75 8 -2 -65z" transform="translate(0,90) scale(0.1,-0.1)" stroke="none" fill="#B9CF64"/>

<path d="M400 834 c-35 -7 -72 -22 -83 -32 -29 -29 -36 -80 -19 -145 7 -32 11 -61 8 -64 -3 -3 -29 4 -57 16 -92 38 -139 26 -170 -42 -23 -51 -26 -172 -5 -221 30 -72 102 -94 196 -61 23 8 44 15 46 15 2 0 -8 -24 -21 -52 -29 -61 -30 -77 -11 -122 15 -36 54 -56 111 -56 43 0 165 38 188 58 22 19 23 114 2 165 -20 49 -20 49 21 32 103 -43 144 -1 146 147 2 150 -48 203 -138 147 -39 -24 -40 -22 -19 66 38 158 -4 191 -195 149z" transform="translate(0,90) scale(0.1,-0.1)" stroke="none" fill="#B6AECD"/>

</g>

<g id="1" transform="translate(0,90.0)scale(0.8,0.8)">

<path d="M387 889 c-47 -11 -103 -53 -123 -90 -18 -35 -18 -69 0 -136 l14 -52 -49 24 c-29 15 -65 25 -92 25 -92 0 -148 -111 -127 -257 13 -96 37 -135 94 -157 42 -16 80 -14 159 10 17 5 17 3 -2 -35 -28 -55 -27 -108 4 -152 23 -35 27 -37 98 -44 61 -5 88 -3 145 15 89 26 112 53 112 131 l0 53 48 -46 c70 -69 171 -114 328 -149 163 -35 214 -38 214 -10 0 33 -107 181 -197 272 l-85 87 105 7 c95 7 106 9 115 29 9 21 4 26 -82 68 -82 41 -103 47 -183 53 l-90 7 -18 49 c-27 76 -78 99 -145 64 -17 -9 -30 -14 -30 -13 0 2 7 28 15 58 22 83 19 126 -11 166 -26 34 -27 34 -103 33 -42 -1 -93 -5 -114 -10z m181 -40 c49 -17 58 -59 34 -159 -11 -44 -17 -79 -13 -77 101 56 142 40 165 -65 6 -27 9 -28 69 -28 34 0 85 -6 112 -14 67 -18 155 -63 155 -80 0 -17 -52 -26 -147 -26 l-72 0 83 -82 c89 -89 198 -241 189 -265 -6 -17 -28 -14 -193 23 -116 27 -220 72 -292 127 l-48 37 0 -43 c0 -23 -7 -52 -15 -64 -30 -43 -204 -80 -273 -59 -51 17 -67 107 -31 178 18 36 19 40 4 34 -48 -18 -108 -28 -139 -22 -87 17 -130 151 -91 284 26 87 88 110 181 68 31 -14 59 -25 61 -23 2 2 -4 23 -12 47 -20 58 -19 109 4 146 21 35 55 50 146 63 85 12 89 12 123 0z" transform="translate(0,90) scale(0.1,-0.1)" stroke="none" fill="#7F6278"/>

<path d="M752 461 c-4 -139 -46 -178 -146 -136 -41 17 -41 17 -22 -29 39 -93 196 -179 409 -224 116 -24 140 -27 144 -15 9 23 -105 181 -195 269 l-83 82 43 -5 c58 -6 180 9 185 23 4 11 -109 67 -158 79 -14 3 -59 9 -100 13 l-75 8 -2 -65z" transform="translate(0,90) scale(0.1,-0.1)" stroke="none" fill="#B9CF64"/>

<path d="M400 834 c-35 -7 -72 -22 -83 -32 -29 -29 -36 -80 -19 -145 7 -32 11 -61 8 -64 -3 -3 -29 4 -57 16 -92 38 -139 26 -170 -42 -23 -51 -26 -172 -5 -221 30 -72 102 -94 196 -61 23 8 44 15 46 15 2 0 -8 -24 -21 -52 -29 -61 -30 -77 -11 -122 15 -36 54 -56 111 -56 43 0 165 38 188 58 22 19 23 114 2 165 -20 49 -20 49 21 32 103 -43 144 -1 146 147 2 150 -48 203 -138 147 -39 -24 -40 -22 -19 66 38 158 -4 191 -195 149z" transform="translate(0,90) scale(0.1,-0.1)" stroke="none" fill="#B6AECD"/>

</g>

<g id="2" transform="translate(0,180.0)scale(0.8,0.8)">

<path d="M387 889 c-47 -11 -103 -53 -123 -90 -18 -35 -18 -69 0 -136 l14 -52 -49 24 c-29 15 -65 25 -92 25 -92 0 -148 -111 -127 -257 13 -96 37 -135 94 -157 42 -16 80 -14 159 10 17 5 17 3 -2 -35 -28 -55 -27 -108 4 -152 23 -35 27 -37 98 -44 61 -5 88 -3 145 15 89 26 112 53 112 131 l0 53 48 -46 c70 -69 171 -114 328 -149 163 -35 214 -38 214 -10 0 33 -107 181 -197 272 l-85 87 105 7 c95 7 106 9 115 29 9 21 4 26 -82 68 -82 41 -103 47 -183 53 l-90 7 -18 49 c-27 76 -78 99 -145 64 -17 -9 -30 -14 -30 -13 0 2 7 28 15 58 22 83 19 126 -11 166 -26 34 -27 34 -103 33 -42 -1 -93 -5 -114 -10z m181 -40 c49 -17 58 -59 34 -159 -11 -44 -17 -79 -13 -77 101 56 142 40 165 -65 6 -27 9 -28 69 -28 34 0 85 -6 112 -14 67 -18 155 -63 155 -80 0 -17 -52 -26 -147 -26 l-72 0 83 -82 c89 -89 198 -241 189 -265 -6 -17 -28 -14 -193 23 -116 27 -220 72 -292 127 l-48 37 0 -43 c0 -23 -7 -52 -15 -64 -30 -43 -204 -80 -273 -59 -51 17 -67 107 -31 178 18 36 19 40 4 34 -48 -18 -108 -28 -139 -22 -87 17 -130 151 -91 284 26 87 88 110 181 68 31 -14 59 -25 61 -23 2 2 -4 23 -12 47 -20 58 -19 109 4 146 21 35 55 50 146 63 85 12 89 12 123 0z" transform="translate(0,90) scale(0.1,-0.1)" stroke="none" fill="#7F6278"/>

<path d="M752 461 c-4 -139 -46 -178 -146 -136 -41 17 -41 17 -22 -29 39 -93 196 -179 409 -224 116 -24 140 -27 144 -15 9 23 -105 181 -195 269 l-83 82 43 -5 c58 -6 180 9 185 23 4 11 -109 67 -158 79 -14 3 -59 9 -100 13 l-75 8 -2 -65z" transform="translate(0,90) scale(0.1,-0.1)" stroke="none" fill="#B9CF64"/>

<path d="M400 834 c-35 -7 -72 -22 -83 -32 -29 -29 -36 -80 -19 -145 7 -32 11 -61 8 -64 -3 -3 -29 4 -57 16 -92 38 -139 26 -170 -42 -23 -51 -26 -172 -5 -221 30 -72 102 -94 196 -61 23 8 44 15 46 15 2 0 -8 -24 -21 -52 -29 -61 -30 -77 -11 -122 15 -36 54 -56 111 -56 43 0 165 38 188 58 22 19 23 114 2 165 -20 49 -20 49 21 32 103 -43 144 -1 146 147 2 150 -48 203 -138 147 -39 -24 -40 -22 -19 66 38 158 -4 191 -195 149z" transform="translate(0,90) scale(0.1,-0.1)" stroke="none" fill="#B6AECD"/>

</g>

<g id="3" transform="translate(0,270.0)scale(0.8,0.8)">

<path d="M387 889 c-47 -11 -103 -53 -123 -90 -18 -35 -18 -69 0 -136 l14 -52 -49 24 c-29 15 -65 25 -92 25 -92 0 -148 -111 -127 -257 13 -96 37 -135 94 -157 42 -16 80 -14 159 10 17 5 17 3 -2 -35 -28 -55 -27 -108 4 -152 23 -35 27 -37 98 -44 61 -5 88 -3 145 15 89 26 112 53 112 131 l0 53 48 -46 c70 -69 171 -114 328 -149 163 -35 214 -38 214 -10 0 33 -107 181 -197 272 l-85 87 105 7 c95 7 106 9 115 29 9 21 4 26 -82 68 -82 41 -103 47 -183 53 l-90 7 -18 49 c-27 76 -78 99 -145 64 -17 -9 -30 -14 -30 -13 0 2 7 28 15 58 22 83 19 126 -11 166 -26 34 -27 34 -103 33 -42 -1 -93 -5 -114 -10z m181 -40 c49 -17 58 -59 34 -159 -11 -44 -17 -79 -13 -77 101 56 142 40 165 -65 6 -27 9 -28 69 -28 34 0 85 -6 112 -14 67 -18 155 -63 155 -80 0 -17 -52 -26 -147 -26 l-72 0 83 -82 c89 -89 198 -241 189 -265 -6 -17 -28 -14 -193 23 -116 27 -220 72 -292 127 l-48 37 0 -43 c0 -23 -7 -52 -15 -64 -30 -43 -204 -80 -273 -59 -51 17 -67 107 -31 178 18 36 19 40 4 34 -48 -18 -108 -28 -139 -22 -87 17 -130 151 -91 284 26 87 88 110 181 68 31 -14 59 -25 61 -23 2 2 -4 23 -12 47 -20 58 -19 109 4 146 21 35 55 50 146 63 85 12 89 12 123 0z" transform="translate(0,90) scale(0.1,-0.1)" stroke="none" fill="#7F6278"/>

<path d="M752 461 c-4 -139 -46 -178 -146 -136 -41 17 -41 17 -22 -29 39 -93 196 -179 409 -224 116 -24 140 -27 144 -15 9 23 -105 181 -195 269 l-83 82 43 -5 c58 -6 180 9 185 23 4 11 -109 67 -158 79 -14 3 -59 9 -100 13 l-75 8 -2 -65z" transform="translate(0,90) scale(0.1,-0.1)" stroke="none" fill="#B9CF64"/>

<path d="M400 834 c-35 -7 -72 -22 -83 -32 -29 -29 -36 -80 -19 -145 7 -32 11 -61 8 -64 -3 -3 -29 4 -57 16 -92 38 -139 26 -170 -42 -23 -51 -26 -172 -5 -221 30 -72 102 -94 196 -61 23 8 44 15 46 15 2 0 -8 -24 -21 -52 -29 -61 -30 -77 -11 -122 15 -36 54 -56 111 -56 43 0 165 38 188 58 22 19 23 114 2 165 -20 49 -20 49 21 32 103 -43 144 -1 146 147 2 150 -48 203 -138 147 -39 -24 -40 -22 -19 66 38 158 -4 191 -195 149z" transform="translate(0,90) scale(0.1,-0.1)" stroke="none" fill="#B6AECD"/>

</g>

<g id="4" transform="translate(0,360.0)scale(0.8,0.8)">

<path d="M387 889 c-47 -11 -103 -53 -123 -90 -18 -35 -18 -69 0 -136 l14 -52 -49 24 c-29 15 -65 25 -92 25 -92 0 -148 -111 -127 -257 13 -96 37 -135 94 -157 42 -16 80 -14 159 10 17 5 17 3 -2 -35 -28 -55 -27 -108 4 -152 23 -35 27 -37 98 -44 61 -5 88 -3 145 15 89 26 112 53 112 131 l0 53 48 -46 c70 -69 171 -114 328 -149 163 -35 214 -38 214 -10 0 33 -107 181 -197 272 l-85 87 105 7 c95 7 106 9 115 29 9 21 4 26 -82 68 -82 41 -103 47 -183 53 l-90 7 -18 49 c-27 76 -78 99 -145 64 -17 -9 -30 -14 -30 -13 0 2 7 28 15 58 22 83 19 126 -11 166 -26 34 -27 34 -103 33 -42 -1 -93 -5 -114 -10z m181 -40 c49 -17 58 -59 34 -159 -11 -44 -17 -79 -13 -77 101 56 142 40 165 -65 6 -27 9 -28 69 -28 34 0 85 -6 112 -14 67 -18 155 -63 155 -80 0 -17 -52 -26 -147 -26 l-72 0 83 -82 c89 -89 198 -241 189 -265 -6 -17 -28 -14 -193 23 -116 27 -220 72 -292 127 l-48 37 0 -43 c0 -23 -7 -52 -15 -64 -30 -43 -204 -80 -273 -59 -51 17 -67 107 -31 178 18 36 19 40 4 34 -48 -18 -108 -28 -139 -22 -87 17 -130 151 -91 284 26 87 88 110 181 68 31 -14 59 -25 61 -23 2 2 -4 23 -12 47 -20 58 -19 109 4 146 21 35 55 50 146 63 85 12 89 12 123 0z" transform="translate(0,90) scale(0.1,-0.1)" stroke="none" fill="#7F6278"/>

<path d="M752 461 c-4 -139 -46 -178 -146 -136 -41 17 -41 17 -22 -29 39 -93 196 -179 409 -224 116 -24 140 -27 144 -15 9 23 -105 181 -195 269 l-83 82 43 -5 c58 -6 180 9 185 23 4 11 -109 67 -158 79 -14 3 -59 9 -100 13 l-75 8 -2 -65z" transform="translate(0,90) scale(0.1,-0.1)" stroke="none" fill="#B9CF64"/>

<path d="M400 834 c-35 -7 -72 -22 -83 -32 -29 -29 -36 -80 -19 -145 7 -32 11 -61 8 -64 -3 -3 -29 4 -57 16 -92 38 -139 26 -170 -42 -23 -51 -26 -172 -5 -221 30 -72 102 -94 196 -61 23 8 44 15 46 15 2 0 -8 -24 -21 -52 -29 -61 -30 -77 -11 -122 15 -36 54 -56 111 -56 43 0 165 38 188 58 22 19 23 114 2 165 -20 49 -20 49 21 32 103 -43 144 -1 146 147 2 150 -48 203 -138 147 -39 -24 -40 -22 -19 66 38 158 -4 191 -195 149z" transform="translate(0,90) scale(0.1,-0.1)" stroke="none" fill="#B6AECD"/>

</g>

</g>
</svg>