<?xml version="1.0" standalone="no"?>
<!DOCTYPE svg PUBLIC "-//W3C//DTD SVG 20010904//EN"
 "http://www.w3.org/TR/2001/REC-SVG-20010904/DTD/svg10.dtd">
<svg version="1.0" xmlns="http://www.w3.org/2000/svg" width="280pt" height="404pt" viewBox="0 0 280 404" preserveAspectRatio = "xMidYMid meet" >
<metadata>
Created by ZoeQu, written in 2022
</metadata>
<rect width="280" height="404" fill="#DDDEE6"/>
<g id="row0" transform="translate(9,0.0)">
<g id="0" transform="translate(0.0,0)scale(1,1)">

<path d="M117 223 c3 -7 22 -17 43 -23 20 -6 48 -18 61 -28 26 -20 94 -42 127 -42 13 0 29 -12 39 -27 10 -16 22 -31 28 -35 16 -12 66 -8 124 10 l54 17 -62 35 c-35 19 -73 45 -85 57 -18 20 -26 22 -54 13 -29 -8 -34 -6 -41 12 -7 20 -15 21 -123 22 -88 1 -114 -2 -111 -11z" transform="translate(0,101) scale(0.1,-0.1)" stroke="none" fill="#A798B9"/>

<path d="M185 541 c-6 -5 -16 -11 -24 -13 -48 -11 -114 -116 -109 -175 3 -37 4 -38 41 -35 33 3 37 1 35 -18 -2 -13 6 -26 23 -37 25 -15 28 -15 51 3 14 10 35 33 47 51 l21 32 -24 28 c-12 15 -31 42 -41 60 -18 30 -18 33 -2 51 31 34 14 84 -18 53z" transform="translate(0,101) scale(0.1,-0.1)" stroke="none" fill="#B9CF64"/>

<path d="M483 477 c-52 -40 -53 -45 -13 -90 51 -59 32 -86 -49 -68 -41 9 -41 9 -41 -20 0 -20 -5 -29 -16 -29 -10 0 -14 -6 -10 -15 3 -8 1 -15 -4 -15 -6 0 -6 -9 -1 -22 10 -27 23 -26 101 5 103 40 134 62 159 110 28 55 23 77 -19 77 -26 0 -30 3 -25 23 11 48 -40 76 -82 44z" transform="translate(0,101) scale(0.1,-0.1)" stroke="none" fill="#B9CF64"/>

<path d="M340 921 c0 -38 -2 -41 -22 -36 -17 4 -28 -2 -40 -19 -17 -24 -17 -25 21 -71 l39 -47 -34 -34 c-18 -19 -40 -34 -48 -34 -19 0 -73 -63 -91 -107 -21 -49 -19 -58 10 -39 13 9 29 16 35 16 16 0 12 -41 -7 -62 -15 -17 -15 -20 1 -51 36 -65 63 -88 108 -91 24 -1 52 -7 63 -13 28 -15 89 -25 109 -17 24 9 20 32 -15 71 -17 19 -28 41 -25 49 3 8 0 11 -8 8 -8 -3 -17 6 -23 23 -6 16 -24 49 -41 73 l-31 45 24 13 c16 8 26 25 31 48 4 24 14 38 29 44 12 5 25 15 28 23 9 25 65 32 88 11 14 -13 16 -20 7 -25 -9 -6 -9 -13 0 -33 9 -21 19 -26 46 -26 39 0 56 17 59 57 2 25 -1 28 -28 25 -28 -2 -33 2 -65 65 -57 110 -104 153 -183 168 l-37 7 0 -41z" transform="translate(0,101) scale(0.1,-0.1)" stroke="none" fill="#A798B9"/>

</g>

<g id="1" transform="translate(70.0,0)scale(1,1)">

<path d="M117 223 c3 -7 22 -17 43 -23 20 -6 48 -18 61 -28 26 -20 94 -42 127 -42 13 0 29 -12 39 -27 10 -16 22 -31 28 -35 16 -12 66 -8 124 10 l54 17 -62 35 c-35 19 -73 45 -85 57 -18 20 -26 22 -54 13 -29 -8 -34 -6 -41 12 -7 20 -15 21 -123 22 -88 1 -114 -2 -111 -11z" transform="translate(0,101) scale(0.1,-0.1)" stroke="none" fill="#A798B9"/>

<path d="M185 541 c-6 -5 -16 -11 -24 -13 -48 -11 -114 -116 -109 -175 3 -37 4 -38 41 -35 33 3 37 1 35 -18 -2 -13 6 -26 23 -37 25 -15 28 -15 51 3 14 10 35 33 47 51 l21 32 -24 28 c-12 15 -31 42 -41 60 -18 30 -18 33 -2 51 31 34 14 84 -18 53z" transform="translate(0,101) scale(0.1,-0.1)" stroke="none" fill="#B9CF64"/>

<path d="M483 477 c-52 -40 -53 -45 -13 -90 51 -59 32 -86 -49 -68 -41 9 -41 9 -41 -20 0 -20 -5 -29 -16 -29 -10 0 -14 -6 -10 -15 3 -8 1 -15 -4 -15 -6 0 -6 -9 -1 -22 10 -27 23 -26 101 5 103 40 134 62 159 110 28 55 23 77 -19 77 -26 0 -30 3 -25 23 11 48 -40 76 -82 44z" transform="translate(0,101) scale(0.1,-0.1)" stroke="none" fill="#B9CF64"/>

<path d="M340 921 c0 -38 -2 -41 -22 -36 -17 4 -28 -2 -40 -19 -17 -24 -17 -25 21 -71 l39 -47 -34 -34 c-18 -19 -40 -34 -48 -34 -19 0 -73 -63 -91 -107 -21 -49 -19 -58 10 -39 13 9 29 16 35 16 16 0 12 -41 -7 -62 -15 -17 -15 -20 1 -51 36 -65 63 -88 108 -91 24 -1 52 -7 63 -13 28 -15 89 -25 109 -17 24 9 20 32 -15 71 -17 19 -28 41 -25 49 3 8 0 11 -8 8 -8 -3 -17 6 -23 23 -6 16 -24 49 -41 73 l-31 45 24 13 c16 8 26 25 31 48 4 24 14 38 29 44 12 5 25 15 28 23 9 25 65 32 88 11 14 -13 16 -20 7 -25 -9 -6 -9 -13 0 -33 9 -21 19 -26 46 -26 39 0 56 17 59 57 2 25 -1 28 -28 25 -28 -2 -33 2 -65 65 -57 110 -104 153 -183 168 l-37 7 0 -41z" transform="translate(0,101) scale(0.1,-0.1)" stroke="none" fill="#A798B9"/>

</g>

<g id="2" transform="translate(140.0,0)scale(1,1)">

<path d="M117 223 c3 -7 22 -17 43 -23 20 -6 48 -18 61 -28 26 -20 94 -42 127 -42 13 0 29 -12 39 -27 10 -16 22 -31 28 -35 16 -12 66 -8 124 10 l54 17 -62 35 c-35 19 -73 45 -85 57 -18 20 -26 22 -54 13 -29 -8 -34 -6 -41 12 -7 20 -15 21 -123 22 -88 1 -114 -2 -111 -11z" transform="translate(0,101) scale(0.1,-0.1)" stroke="none" fill="#A798B9"/>

<path d="M185 541 c-6 -5 -16 -11 -24 -13 -48 -11 -114 -116 -109 -175 3 -37 4 -38 41 -35 33 3 37 1 35 -18 -2 -13 6 -26 23 -37 25 -15 28 -15 51 3 14 10 35 33 47 51 l21 32 -24 28 c-12 15 -31 42 -41 60 -18 30 -18 33 -2 51 31 34 14 84 -18 53z" transform="translate(0,101) scale(0.1,-0.1)" stroke="none" fill="#B9CF64"/>

<path d="M483 477 c-52 -40 -53 -45 -13 -90 51 -59 32 -86 -49 -68 -41 9 -41 9 -41 -20 0 -20 -5 -29 -16 -29 -10 0 -14 -6 -10 -15 3 -8 1 -15 -4 -15 -6 0 -6 -9 -1 -22 10 -27 23 -26 101 5 103 40 134 62 159 110 28 55 23 77 -19 77 -26 0 -30 3 -25 23 11 48 -40 76 -82 44z" transform="translate(0,101) scale(0.1,-0.1)" stroke="none" fill="#B9CF64"/>

<path d="M340 921 c0 -38 -2 -41 -22 -36 -17 4 -28 -2 -40 -19 -17 -24 -17 -25 21 -71 l39 -47 -34 -34 c-18 -19 -40 -34 -48 -34 -19 0 -73 -63 -91 -107 -21 -49 -19 -58 10 -39 13 9 29 16 35 16 16 0 12 -41 -7 -62 -15 -17 -15 -20 1 -51 36 -65 63 -88 108 -91 24 -1 52 -7 63 -13 28 -15 89 -25 109 -17 24 9 20 32 -15 71 -17 19 -28 41 -25 49 3 8 0 11 -8 8 -8 -3 -17 6 -23 23 -6 16 -24 49 -41 73 l-31 45 24 13 c16 8 26 25 31 48 4 24 14 38 29 44 12 5 25 15 28 23 9 25 65 32 88 11 14 -13 16 -20 7 -25 -9 -6 -9 -13 0 -33 9 -21 19 -26 46 -26 39 0 56 17 59 57 2 25 -1 28 -28 25 -28 -2 -33 2 -65 65 -57 110 -104 153 -183 168 l-37 7 0 -41z" transform="translate(0,101) scale(0.1,-0.1)" stroke="none" fill="#A798B9"/>

</g>

<g id="3" transform="translate(210.0,0)scale(1,1)">

<path d="M117 223 c3 -7 22 -17 43 -23 20 -6 48 -18 61 -28 26 -20 94 -42 127 -42 13 0 29 -12 39 -27 10 -16 22 -31 28 -35 16 -12 66 -8 124 10 l54 17 -62 35 c-35 19 -73 45 -85 57 -18 20 -26 22 -54 13 -29 -8 -34 -6 -41 12 -7 20 -15 21 -123 22 -88 1 -114 -2 -111 -11z" transform="translate(0,101) scale(0.1,-0.1)" stroke="none" fill="#A798B9"/>

<path d="M185 541 c-6 -5 -16 -11 -24 -13 -48 -11 -114 -116 -109 -175 3 -37 4 -38 41 -35 33 3 37 1 35 -18 -2 -13 6 -26 23 -37 25 -15 28 -15 51 3 14 10 35 33 47 51 l21 32 -24 28 c-12 15 -31 42 -41 60 -18 30 -18 33 -2 51 31 34 14 84 -18 53z" transform="translate(0,101) scale(0.1,-0.1)" stroke="none" fill="#B9CF64"/>

<path d="M483 477 c-52 -40 -53 -45 -13 -90 51 -59 32 -86 -49 -68 -41 9 -41 9 -41 -20 0 -20 -5 -29 -16 -29 -10 0 -14 -6 -10 -15 3 -8 1 -15 -4 -15 -6 0 -6 -9 -1 -22 10 -27 23 -26 101 5 103 40 134 62 159 110 28 55 23 77 -19 77 -26 0 -30 3 -25 23 11 48 -40 76 -82 44z" transform="translate(0,101) scale(0.1,-0.1)" stroke="none" fill="#B9CF64"/>

<path d="M340 921 c0 -38 -2 -41 -22 -36 -17 4 -28 -2 -40 -19 -17 -24 -17 -25 21 -71 l39 -47 -34 -34 c-18 -19 -40 -34 -48 -34 -19 0 -73 -63 -91 -107 -21 -49 -19 -58 10 -39 13 9 29 16 35 16 16 0 12 -41 -7 -62 -15 -17 -15 -20 1 -51 36 -65 63 -88 108 -91 24 -1 52 -7 63 -13 28 -15 89 -25 109 -17 24 9 20 32 -15 71 -17 19 -28 41 -25 49 3 8 0 11 -8 8 -8 -3 -17 6 -23 23 -6 16 -24 49 -41 73 l-31 45 24 13 c16 8 26 25 31 48 4 24 14 38 29 44 12 5 25 15 28 23 9 25 65 32 88 11 14 -13 16 -20 7 -25 -9 -6 -9 -13 0 -33 9 -21 19 -26 46 -26 39 0 56 17 59 57 2 25 -1 28 -28 25 -28 -2 -33 2 -65 65 -57 110 -104 153 -183 168 l-37 7 0 -41z" transform="translate(0,101) scale(0.1,-0.1)" stroke="none" fill="#A798B9"/>

</g>

<g id="4" transform="translate(280.0,0)scale(1,1)">

<path d="M117 223 c3 -7 22 -17 43 -23 20 -6 48 -18 61 -28 26 -20 94 -42 127 -42 13 0 29 -12 39 -27 10 -16 22 -31 28 -35 16 -12 66 -8 124 10 l54 17 -62 35 c-35 19 -73 45 -85 57 -18 20 -26 22 -54 13 -29 -8 -34 -6 -41 12 -7 20 -15 21 -123 22 -88 1 -114 -2 -111 -11z" transform="translate(0,101) scale(0.1,-0.1)" stroke="none" fill="#A798B9"/>

<path d="M185 541 c-6 -5 -16 -11 -24 -13 -48 -11 -114 -116 -109 -175 3 -37 4 -38 41 -35 33 3 37 1 35 -18 -2 -13 6 -26 23 -37 25 -15 28 -15 51 3 14 10 35 33 47 51 l21 32 -24 28 c-12 15 -31 42 -41 60 -18 30 -18 33 -2 51 31 34 14 84 -18 53z" transform="translate(0,101) scale(0.1,-0.1)" stroke="none" fill="#B9CF64"/>

<path d="M483 477 c-52 -40 -53 -45 -13 -90 51 -59 32 -86 -49 -68 -41 9 -41 9 -41 -20 0 -20 -5 -29 -16 -29 -10 0 -14 -6 -10 -15 3 -8 1 -15 -4 -15 -6 0 -6 -9 -1 -22 10 -27 23 -26 101 5 103 40 134 62 159 110 28 55 23 77 -19 77 -26 0 -30 3 -25 23 11 48 -40 76 -82 44z" transform="translate(0,101) scale(0.1,-0.1)" stroke="none" fill="#B9CF64"/>

<path d="M340 921 c0 -38 -2 -41 -22 -36 -17 4 -28 -2 -40 -19 -17 -24 -17 -25 21 -71 l39 -47 -34 -34 c-18 -19 -40 -34 -48 -34 -19 0 -73 -63 -91 -107 -21 -49 -19 -58 10 -39 13 9 29 16 35 16 16 0 12 -41 -7 -62 -15 -17 -15 -20 1 -51 36 -65 63 -88 108 -91 24 -1 52 -7 63 -13 28 -15 89 -25 109 -17 24 9 20 32 -15 71 -17 19 -28 41 -25 49 3 8 0 11 -8 8 -8 -3 -17 6 -23 23 -6 16 -24 49 -41 73 l-31 45 24 13 c16 8 26 25 31 48 4 24 14 38 29 44 12 5 25 15 28 23 9 25 65 32 88 11 14 -13 16 -20 7 -25 -9 -6 -9 -13 0 -33 9 -21 19 -26 46 -26 39 0 56 17 59 57 2 25 -1 28 -28 25 -28 -2 -33 2 -65 65 -57 110 -104 153 -183 168 l-37 7 0 -41z" transform="translate(0,101) scale(0.1,-0.1)" stroke="none" fill="#A798B9"/>

</g>

</g>
<g id="row1" transform="translate(-26,101.0)">
<g id="0" transform="translate(0.0,0)scale(1,1)">

<path d="M117 223 c3 -7 22 -17 43 -23 20 -6 48 -18 61 -28 26 -20 94 -42 127 -42 13 0 29 -12 39 -27 10 -16 22 -31 28 -35 16 -12 66 -8 124 10 l54 17 -62 35 c-35 19 -73 45 -85 57 -18 20 -26 22 -54 13 -29 -8 -34 -6 -41 12 -7 20 -15 21 -123 22 -88 1 -114 -2 -111 -11z" transform="translate(0,101) scale(0.1,-0.1)" stroke="none" fill="#A798B9"/>

<path d="M185 541 c-6 -5 -16 -11 -24 -13 -48 -11 -114 -116 -109 -175 3 -37 4 -38 41 -35 33 3 37 1 35 -18 -2 -13 6 -26 23 -37 25 -15 28 -15 51 3 14 10 35 33 47 51 l21 32 -24 28 c-12 15 -31 42 -41 60 -18 30 -18 33 -2 51 31 34 14 84 -18 53z" transform="translate(0,101) scale(0.1,-0.1)" stroke="none" fill="#B9CF64"/>

<path d="M483 477 c-52 -40 -53 -45 -13 -90 51 -59 32 -86 -49 -68 -41 9 -41 9 -41 -20 0 -20 -5 -29 -16 -29 -10 0 -14 -6 -10 -15 3 -8 1 -15 -4 -15 -6 0 -6 -9 -1 -22 10 -27 23 -26 101 5 103 40 134 62 159 110 28 55 23 77 -19 77 -26 0 -30 3 -25 23 11 48 -40 76 -82 44z" transform="translate(0,101) scale(0.1,-0.1)" stroke="none" fill="#B9CF64"/>

<path d="M340 921 c0 -38 -2 -41 -22 -36 -17 4 -28 -2 -40 -19 -17 -24 -17 -25 21 -71 l39 -47 -34 -34 c-18 -19 -40 -34 -48 -34 -19 0 -73 -63 -91 -107 -21 -49 -19 -58 10 -39 13 9 29 16 35 16 16 0 12 -41 -7 -62 -15 -17 -15 -20 1 -51 36 -65 63 -88 108 -91 24 -1 52 -7 63 -13 28 -15 89 -25 109 -17 24 9 20 32 -15 71 -17 19 -28 41 -25 49 3 8 0 11 -8 8 -8 -3 -17 6 -23 23 -6 16 -24 49 -41 73 l-31 45 24 13 c16 8 26 25 31 48 4 24 14 38 29 44 12 5 25 15 28 23 9 25 65 32 88 11 14 -13 16 -20 7 -25 -9 -6 -9 -13 0 -33 9 -21 19 -26 46 -26 39 0 56 17 59 57 2 25 -1 28 -28 25 -28 -2 -33 2 -65 65 -57 110 -104 153 -183 168 l-37 7 0 -41z" transform="translate(0,101) scale(0.1,-0.1)" stroke="none" fill="#A798B9"/>

</g>

<g id="1" transform="translate(70.0,0)scale(1,1)">

<path d="M117 223 c3 -7 22 -17 43 -23 20 -6 48 -18 61 -28 26 -20 94 -42 127 -42 13 0 29 -12 39 -27 10 -16 22 -31 28 -35 16 -12 66 -8 124 10 l54 17 -62 35 c-35 19 -73 45 -85 57 -18 20 -26 22 -54 13 -29 -8 -34 -6 -41 12 -7 20 -15 21 -123 22 -88 1 -114 -2 -111 -11z" transform="translate(0,101) scale(0.1,-0.1)" stroke="none" fill="#A798B9"/>

<path d="M185 541 c-6 -5 -16 -11 -24 -13 -48 -11 -114 -116 -109 -175 3 -37 4 -38 41 -35 33 3 37 1 35 -18 -2 -13 6 -26 23 -37 25 -15 28 -15 51 3 14 10 35 33 47 51 l21 32 -24 28 c-12 15 -31 42 -41 60 -18 30 -18 33 -2 51 31 34 14 84 -18 53z" transform="translate(0,101) scale(0.1,-0.1)" stroke="none" fill="#B9CF64"/>

<path d="M483 477 c-52 -40 -53 -45 -13 -90 51 -59 32 -86 -49 -68 -41 9 -41 9 -41 -20 0 -20 -5 -29 -16 -29 -10 0 -14 -6 -10 -15 3 -8 1 -15 -4 -15 -6 0 -6 -9 -1 -22 10 -27 23 -26 101 5 103 40 134 62 159 110 28 55 23 77 -19 77 -26 0 -30 3 -25 23 11 48 -40 76 -82 44z" transform="translate(0,101) scale(0.1,-0.1)" stroke="none" fill="#B9CF64"/>

<path d="M340 921 c0 -38 -2 -41 -22 -36 -17 4 -28 -2 -40 -19 -17 -24 -17 -25 21 -71 l39 -47 -34 -34 c-18 -19 -40 -34 -48 -34 -19 0 -73 -63 -91 -107 -21 -49 -19 -58 10 -39 13 9 29 16 35 16 16 0 12 -41 -7 -62 -15 -17 -15 -20 1 -51 36 -65 63 -88 108 -91 24 -1 52 -7 63 -13 28 -15 89 -25 109 -17 24 9 20 32 -15 71 -17 19 -28 41 -25 49 3 8 0 11 -8 8 -8 -3 -17 6 -23 23 -6 16 -24 49 -41 73 l-31 45 24 13 c16 8 26 25 31 48 4 24 14 38 29 44 12 5 25 15 28 23 9 25 65 32 88 11 14 -13 16 -20 7 -25 -9 -6 -9 -13 0 -33 9 -21 19 -26 46 -26 39 0 56 17 59 57 2 25 -1 28 -28 25 -28 -2 -33 2 -65 65 -57 110 -104 153 -183 168 l-37 7 0 -41z" transform="translate(0,101) scale(0.1,-0.1)" stroke="none" fill="#A798B9"/>

</g>

<g id="2" transform="translate(140.0,0)scale(1,1)">

<path d="M117 223 c3 -7 22 -17 43 -23 20 -6 48 -18 61 -28 26 -20 94 -42 127 -42 13 0 29 -12 39 -27 10 -16 22 -31 28 -35 16 -12 66 -8 124 10 l54 17 -62 35 c-35 19 -73 45 -85 57 -18 20 -26 22 -54 13 -29 -8 -34 -6 -41 12 -7 20 -15 21 -123 22 -88 1 -114 -2 -111 -11z" transform="translate(0,101) scale(0.1,-0.1)" stroke="none" fill="#A798B9"/>

<path d="M185 541 c-6 -5 -16 -11 -24 -13 -48 -11 -114 -116 -109 -175 3 -37 4 -38 41 -35 33 3 37 1 35 -18 -2 -13 6 -26 23 -37 25 -15 28 -15 51 3 14 10 35 33 47 51 l21 32 -24 28 c-12 15 -31 42 -41 60 -18 30 -18 33 -2 51 31 34 14 84 -18 53z" transform="translate(0,101) scale(0.1,-0.1)" stroke="none" fill="#B9CF64"/>

<path d="M483 477 c-52 -40 -53 -45 -13 -90 51 -59 32 -86 -49 -68 -41 9 -41 9 -41 -20 0 -20 -5 -29 -16 -29 -10 0 -14 -6 -10 -15 3 -8 1 -15 -4 -15 -6 0 -6 -9 -1 -22 10 -27 23 -26 101 5 103 40 134 62 159 110 28 55 23 77 -19 77 -26 0 -30 3 -25 23 11 48 -40 76 -82 44z" transform="translate(0,101) scale(0.1,-0.1)" stroke="none" fill="#B9CF64"/>

<path d="M340 921 c0 -38 -2 -41 -22 -36 -17 4 -28 -2 -40 -19 -17 -24 -17 -25 21 -71 l39 -47 -34 -34 c-18 -19 -40 -34 -48 -34 -19 0 -73 -63 -91 -107 -21 -49 -19 -58 10 -39 13 9 29 16 35 16 16 0 12 -41 -7 -62 -15 -17 -15 -20 1 -51 36 -65 63 -88 108 -91 24 -1 52 -7 63 -13 28 -15 89 -25 109 -17 24 9 20 32 -15 71 -17 19 -28 41 -25 49 3 8 0 11 -8 8 -8 -3 -17 6 -23 23 -6 16 -24 49 -41 73 l-31 45 24 13 c16 8 26 25 31 48 4 24 14 38 29 44 12 5 25 15 28 23 9 25 65 32 88 11 14 -13 16 -20 7 -25 -9 -6 -9 -13 0 -33 9 -21 19 -26 46 -26 39 0 56 17 59 57 2 25 -1 28 -28 25 -28 -2 -33 2 -65 65 -57 110 -104 153 -183 168 l-37 7 0 -41z" transform="translate(0,101) scale(0.1,-0.1)" stroke="none" fill="#A798B9"/>

</g>

<g id="3" transform="translate(210.0,0)scale(1,1)">

<path d="M117 223 c3 -7 22 -17 43 -23 20 -6 48 -18 61 -28 26 -20 94 -42 127 -42 13 0 29 -12 39 -27 10 -16 22 -31 28 -35 16 -12 66 -8 124 10 l54 17 -62 35 c-35 19 -73 45 -85 57 -18 20 -26 22 -54 13 -29 -8 -34 -6 -41 12 -7 20 -15 21 -123 22 -88 1 -114 -2 -111 -11z" transform="translate(0,101) scale(0.1,-0.1)" stroke="none" fill="#A798B9"/>

<path d="M185 541 c-6 -5 -16 -11 -24 -13 -48 -11 -114 -116 -109 -175 3 -37 4 -38 41 -35 33 3 37 1 35 -18 -2 -13 6 -26 23 -37 25 -15 28 -15 51 3 14 10 35 33 47 51 l21 32 -24 28 c-12 15 -31 42 -41 60 -18 30 -18 33 -2 51 31 34 14 84 -18 53z" transform="translate(0,101) scale(0.1,-0.1)" stroke="none" fill="#B9CF64"/>

<path d="M483 477 c-52 -40 -53 -45 -13 -90 51 -59 32 -86 -49 -68 -41 9 -41 9 -41 -20 0 -20 -5 -29 -16 -29 -10 0 -14 -6 -10 -15 3 -8 1 -15 -4 -15 -6 0 -6 -9 -1 -22 10 -27 23 -26 101 5 103 40 134 62 159 110 28 55 23 77 -19 77 -26 0 -30 3 -25 23 11 48 -40 76 -82 44z" transform="translate(0,101) scale(0.1,-0.1)" stroke="none" fill="#B9CF64"/>

<path d="M340 921 c0 -38 -2 -41 -22 -36 -17 4 -28 -2 -40 -19 -17 -24 -17 -25 21 -71 l39 -47 -34 -34 c-18 -19 -40 -34 -48 -34 -19 0 -73 -63 -91 -107 -21 -49 -19 -58 10 -39 13 9 29 16 35 16 16 0 12 -41 -7 -62 -15 -17 -15 -20 1 -51 36 -65 63 -88 108 -91 24 -1 52 -7 63 -13 28 -15 89 -25 109 -17 24 9 20 32 -15 71 -17 19 -28 41 -25 49 3 8 0 11 -8 8 -8 -3 -17 6 -23 23 -6 16 -24 49 -41 73 l-31 45 24 13 c16 8 26 25 31 48 4 24 14 38 29 44 12 5 25 15 28 23 9 25 65 32 88 11 14 -13 16 -20 7 -25 -9 -6 -9 -13 0 -33 9 -21 19 -26 46 -26 39 0 56 17 59 57 2 25 -1 28 -28 25 -28 -2 -33 2 -65 65 -57 110 -104 153 -183 168 l-37 7 0 -41z" transform="translate(0,101) scale(0.1,-0.1)" stroke="none" fill="#A798B9"/>

</g>

<g id="4" transform="translate(280.0,0)scale(1,1)">

<path d="M117 223 c3 -7 22 -17 43 -23 20 -6 48 -18 61 -28 26 -20 94 -42 127 -42 13 0 29 -12 39 -27 10 -16 22 -31 28 -35 16 -12 66 -8 124 10 l54 17 -62 35 c-35 19 -73 45 -85 57 -18 20 -26 22 -54 13 -29 -8 -34 -6 -41 12 -7 20 -15 21 -123 22 -88 1 -114 -2 -111 -11z" transform="translate(0,101) scale(0.1,-0.1)" stroke="none" fill="#A798B9"/>

<path d="M185 541 c-6 -5 -16 -11 -24 -13 -48 -11 -114 -116 -109 -175 3 -37 4 -38 41 -35 33 3 37 1 35 -18 -2 -13 6 -26 23 -37 25 -15 28 -15 51 3 14 10 35 33 47 51 l21 32 -24 28 c-12 15 -31 42 -41 60 -18 30 -18 33 -2 51 31 34 14 84 -18 53z" transform="translate(0,101) scale(0.1,-0.1)" stroke="none" fill="#B9CF64"/>

<path d="M483 477 c-52 -40 -53 -45 -13 -90 51 -59 32 -86 -49 -68 -41 9 -41 9 -41 -20 0 -20 -5 -29 -16 -29 -10 0 -14 -6 -10 -15 3 -8 1 -15 -4 -15 -6 0 -6 -9 -1 -22 10 -27 23 -26 101 5 103 40 134 62 159 110 28 55 23 77 -19 77 -26 0 -30 3 -25 23 11 48 -40 76 -82 44z" transform="translate(0,101) scale(0.1,-0.1)" stroke="none" fill="#B9CF64"/>

<path d="M340 921 c0 -38 -2 -41 -22 -36 -17 4 -28 -2 -40 -19 -17 -24 -17 -25 21 -71 l39 -47 -34 -34 c-18 -19 -40 -34 -48 -34 -19 0 -73 -63 -91 -107 -21 -49 -19 -58 10 -39 13 9 29 16 35 16 16 0 12 -41 -7 -62 -15 -17 -15 -20 1 -51 36 -65 63 -88 108 -91 24 -1 52 -7 63 -13 28 -15 89 -25 109 -17 24 9 20 32 -15 71 -17 19 -28 41 -25 49 3 8 0 11 -8 8 -8 -3 -17 6 -23 23 -6 16 -24 49 -41 73 l-31 45 24 13 c16 8 26 25 31 48 4 24 14 38 29 44 12 5 25 15 28 23 9 25 65 32 88 11 14 -13 16 -20 7 -25 -9 -6 -9 -13 0 -33 9 -21 19 -26 46 -26 39 0 56 17 59 57 2 25 -1 28 -28 25 -28 -2 -33 2 -65 65 -57 110 -104 153 -183 168 l-37 7 0 -41z" transform="translate(0,101) scale(0.1,-0.1)" stroke="none" fill="#A798B9"/>

</g>

</g>
<g id="row2" transform="translate(9,202.0)">
<g id="0" transform="translate(0.0,0)scale(1,1)">

<path d="M117 223 c3 -7 22 -17 43 -23 20 -6 48 -18 61 -28 26 -20 94 -42 127 -42 13 0 29 -12 39 -27 10 -16 22 -31 28 -35 16 -12 66 -8 124 10 l54 17 -62 35 c-35 19 -73 45 -85 57 -18 20 -26 22 -54 13 -29 -8 -34 -6 -41 12 -7 20 -15 21 -123 22 -88 1 -114 -2 -111 -11z" transform="translate(0,101) scale(0.1,-0.1)" stroke="none" fill="#A798B9"/>

<path d="M185 541 c-6 -5 -16 -11 -24 -13 -48 -11 -114 -116 -109 -175 3 -37 4 -38 41 -35 33 3 37 1 35 -18 -2 -13 6 -26 23 -37 25 -15 28 -15 51 3 14 10 35 33 47 51 l21 32 -24 28 c-12 15 -31 42 -41 60 -18 30 -18 33 -2 51 31 34 14 84 -18 53z" transform="translate(0,101) scale(0.1,-0.1)" stroke="none" fill="#B9CF64"/>

<path d="M483 477 c-52 -40 -53 -45 -13 -90 51 -59 32 -86 -49 -68 -41 9 -41 9 -41 -20 0 -20 -5 -29 -16 -29 -10 0 -14 -6 -10 -15 3 -8 1 -15 -4 -15 -6 0 -6 -9 -1 -22 10 -27 23 -26 101 5 103 40 134 62 159 110 28 55 23 77 -19 77 -26 0 -30 3 -25 23 11 48 -40 76 -82 44z" transform="translate(0,101) scale(0.1,-0.1)" stroke="none" fill="#B9CF64"/>

<path d="M340 921 c0 -38 -2 -41 -22 -36 -17 4 -28 -2 -40 -19 -17 -24 -17 -25 21 -71 l39 -47 -34 -34 c-18 -19 -40 -34 -48 -34 -19 0 -73 -63 -91 -107 -21 -49 -19 -58 10 -39 13 9 29 16 35 16 16 0 12 -41 -7 -62 -15 -17 -15 -20 1 -51 36 -65 63 -88 108 -91 24 -1 52 -7 63 -13 28 -15 89 -25 109 -17 24 9 20 32 -15 71 -17 19 -28 41 -25 49 3 8 0 11 -8 8 -8 -3 -17 6 -23 23 -6 16 -24 49 -41 73 l-31 45 24 13 c16 8 26 25 31 48 4 24 14 38 29 44 12 5 25 15 28 23 9 25 65 32 88 11 14 -13 16 -20 7 -25 -9 -6 -9 -13 0 -33 9 -21 19 -26 46 -26 39 0 56 17 59 57 2 25 -1 28 -28 25 -28 -2 -33 2 -65 65 -57 110 -104 153 -183 168 l-37 7 0 -41z" transform="translate(0,101) scale(0.1,-0.1)" stroke="none" fill="#A798B9"/>

</g>

<g id="1" transform="translate(70.0,0)scale(1,1)">

<path d="M117 223 c3 -7 22 -17 43 -23 20 -6 48 -18 61 -28 26 -20 94 -42 127 -42 13 0 29 -12 39 -27 10 -16 22 -31 28 -35 16 -12 66 -8 124 10 l54 17 -62 35 c-35 19 -73 45 -85 57 -18 20 -26 22 -54 13 -29 -8 -34 -6 -41 12 -7 20 -15 21 -123 22 -88 1 -114 -2 -111 -11z" transform="translate(0,101) scale(0.1,-0.1)" stroke="none" fill="#A798B9"/>

<path d="M185 541 c-6 -5 -16 -11 -24 -13 -48 -11 -114 -116 -109 -175 3 -37 4 -38 41 -35 33 3 37 1 35 -18 -2 -13 6 -26 23 -37 25 -15 28 -15 51 3 14 10 35 33 47 51 l21 32 -24 28 c-12 15 -31 42 -41 60 -18 30 -18 33 -2 51 31 34 14 84 -18 53z" transform="translate(0,101) scale(0.1,-0.1)" stroke="none" fill="#B9CF64"/>

<path d="M483 477 c-52 -40 -53 -45 -13 -90 51 -59 32 -86 -49 -68 -41 9 -41 9 -41 -20 0 -20 -5 -29 -16 -29 -10 0 -14 -6 -10 -15 3 -8 1 -15 -4 -15 -6 0 -6 -9 -1 -22 10 -27 23 -26 101 5 103 40 134 62 159 110 28 55 23 77 -19 77 -26 0 -30 3 -25 23 11 48 -40 76 -82 44z" transform="translate(0,101) scale(0.1,-0.1)" stroke="none" fill="#B9CF64"/>

<path d="M340 921 c0 -38 -2 -41 -22 -36 -17 4 -28 -2 -40 -19 -17 -24 -17 -25 21 -71 l39 -47 -34 -34 c-18 -19 -40 -34 -48 -34 -19 0 -73 -63 -91 -107 -21 -49 -19 -58 10 -39 13 9 29 16 35 16 16 0 12 -41 -7 -62 -15 -17 -15 -20 1 -51 36 -65 63 -88 108 -91 24 -1 52 -7 63 -13 28 -15 89 -25 109 -17 24 9 20 32 -15 71 -17 19 -28 41 -25 49 3 8 0 11 -8 8 -8 -3 -17 6 -23 23 -6 16 -24 49 -41 73 l-31 45 24 13 c16 8 26 25 31 48 4 24 14 38 29 44 12 5 25 15 28 23 9 25 65 32 88 11 14 -13 16 -20 7 -25 -9 -6 -9 -13 0 -33 9 -21 19 -26 46 -26 39 0 56 17 59 57 2 25 -1 28 -28 25 -28 -2 -33 2 -65 65 -57 110 -104 153 -183 168 l-37 7 0 -41z" transform="translate(0,101) scale(0.1,-0.1)" stroke="none" fill="#A798B9"/>

</g>

<g id="2" transform="translate(140.0,0)scale(1,1)">

<path d="M117 223 c3 -7 22 -17 43 -23 20 -6 48 -18 61 -28 26 -20 94 -42 127 -42 13 0 29 -12 39 -27 10 -16 22 -31 28 -35 16 -12 66 -8 124 10 l54 17 -62 35 c-35 19 -73 45 -85 57 -18 20 -26 22 -54 13 -29 -8 -34 -6 -41 12 -7 20 -15 21 -123 22 -88 1 -114 -2 -111 -11z" transform="translate(0,101) scale(0.1,-0.1)" stroke="none" fill="#A798B9"/>

<path d="M185 541 c-6 -5 -16 -11 -24 -13 -48 -11 -114 -116 -109 -175 3 -37 4 -38 41 -35 33 3 37 1 35 -18 -2 -13 6 -26 23 -37 25 -15 28 -15 51 3 14 10 35 33 47 51 l21 32 -24 28 c-12 15 -31 42 -41 60 -18 30 -18 33 -2 51 31 34 14 84 -18 53z" transform="translate(0,101) scale(0.1,-0.1)" stroke="none" fill="#B9CF64"/>

<path d="M483 477 c-52 -40 -53 -45 -13 -90 51 -59 32 -86 -49 -68 -41 9 -41 9 -41 -20 0 -20 -5 -29 -16 -29 -10 0 -14 -6 -10 -15 3 -8 1 -15 -4 -15 -6 0 -6 -9 -1 -22 10 -27 23 -26 101 5 103 40 134 62 159 110 28 55 23 77 -19 77 -26 0 -30 3 -25 23 11 48 -40 76 -82 44z" transform="translate(0,101) scale(0.1,-0.1)" stroke="none" fill="#B9CF64"/>

<path d="M340 921 c0 -38 -2 -41 -22 -36 -17 4 -28 -2 -40 -19 -17 -24 -17 -25 21 -71 l39 -47 -34 -34 c-18 -19 -40 -34 -48 -34 -19 0 -73 -63 -91 -107 -21 -49 -19 -58 10 -39 13 9 29 16 35 16 16 0 12 -41 -7 -62 -15 -17 -15 -20 1 -51 36 -65 63 -88 108 -91 24 -1 52 -7 63 -13 28 -15 89 -25 109 -17 24 9 20 32 -15 71 -17 19 -28 41 -25 49 3 8 0 11 -8 8 -8 -3 -17 6 -23 23 -6 16 -24 49 -41 73 l-31 45 24 13 c16 8 26 25 31 48 4 24 14 38 29 44 12 5 25 15 28 23 9 25 65 32 88 11 14 -13 16 -20 7 -25 -9 -6 -9 -13 0 -33 9 -21 19 -26 46 -26 39 0 56 17 59 57 2 25 -1 28 -28 25 -28 -2 -33 2 -65 65 -57 110 -104 153 -183 168 l-37 7 0 -41z" transform="translate(0,101) scale(0.1,-0.1)" stroke="none" fill="#A798B9"/>

</g>

<g id="3" transform="translate(210.0,0)scale(1,1)">

<path d="M117 223 c3 -7 22 -17 43 -23 20 -6 48 -18 61 -28 26 -20 94 -42 127 -42 13 0 29 -12 39 -27 10 -16 22 -31 28 -35 16 -12 66 -8 124 10 l54 17 -62 35 c-35 19 -73 45 -85 57 -18 20 -26 22 -54 13 -29 -8 -34 -6 -41 12 -7 20 -15 21 -123 22 -88 1 -114 -2 -111 -11z" transform="translate(0,101) scale(0.1,-0.1)" stroke="none" fill="#A798B9"/>

<path d="M185 541 c-6 -5 -16 -11 -24 -13 -48 -11 -114 -116 -109 -175 3 -37 4 -38 41 -35 33 3 37 1 35 -18 -2 -13 6 -26 23 -37 25 -15 28 -15 51 3 14 10 35 33 47 51 l21 32 -24 28 c-12 15 -31 42 -41 60 -18 30 -18 33 -2 51 31 34 14 84 -18 53z" transform="translate(0,101) scale(0.1,-0.1)" stroke="none" fill="#B9CF64"/>

<path d="M483 477 c-52 -40 -53 -45 -13 -90 51 -59 32 -86 -49 -68 -41 9 -41 9 -41 -20 0 -20 -5 -29 -16 -29 -10 0 -14 -6 -10 -15 3 -8 1 -15 -4 -15 -6 0 -6 -9 -1 -22 10 -27 23 -26 101 5 103 40 134 62 159 110 28 55 23 77 -19 77 -26 0 -30 3 -25 23 11 48 -40 76 -82 44z" transform="translate(0,101) scale(0.1,-0.1)" stroke="none" fill="#B9CF64"/>

<path d="M340 921 c0 -38 -2 -41 -22 -36 -17 4 -28 -2 -40 -19 -17 -24 -17 -25 21 -71 l39 -47 -34 -34 c-18 -19 -40 -34 -48 -34 -19 0 -73 -63 -91 -107 -21 -49 -19 -58 10 -39 13 9 29 16 35 16 16 0 12 -41 -7 -62 -15 -17 -15 -20 1 -51 36 -65 63 -88 108 -91 24 -1 52 -7 63 -13 28 -15 89 -25 109 -17 24 9 20 32 -15 71 -17 19 -28 41 -25 49 3 8 0 11 -8 8 -8 -3 -17 6 -23 23 -6 16 -24 49 -41 73 l-31 45 24 13 c16 8 26 25 31 48 4 24 14 38 29 44 12 5 25 15 28 23 9 25 65 32 88 11 14 -13 16 -20 7 -25 -9 -6 -9 -13 0 -33 9 -21 19 -26 46 -26 39 0 56 17 59 57 2 25 -1 28 -28 25 -28 -2 -33 2 -65 65 -57 110 -104 153 -183 168 l-37 7 0 -41z" transform="translate(0,101) scale(0.1,-0.1)" stroke="none" fill="#A798B9"/>

</g>

<g id="4" transform="translate(280.0,0)scale(1,1)">

<path d="M117 223 c3 -7 22 -17 43 -23 20 -6 48 -18 61 -28 26 -20 94 -42 127 -42 13 0 29 -12 39 -27 10 -16 22 -31 28 -35 16 -12 66 -8 124 10 l54 17 -62 35 c-35 19 -73 45 -85 57 -18 20 -26 22 -54 13 -29 -8 -34 -6 -41 12 -7 20 -15 21 -123 22 -88 1 -114 -2 -111 -11z" transform="translate(0,101) scale(0.1,-0.1)" stroke="none" fill="#A798B9"/>

<path d="M185 541 c-6 -5 -16 -11 -24 -13 -48 -11 -114 -116 -109 -175 3 -37 4 -38 41 -35 33 3 37 1 35 -18 -2 -13 6 -26 23 -37 25 -15 28 -15 51 3 14 10 35 33 47 51 l21 32 -24 28 c-12 15 -31 42 -41 60 -18 30 -18 33 -2 51 31 34 14 84 -18 53z" transform="translate(0,101) scale(0.1,-0.1)" stroke="none" fill="#B9CF64"/>

<path d="M483 477 c-52 -40 -53 -45 -13 -90 51 -59 32 -86 -49 -68 -41 9 -41 9 -41 -20 0 -20 -5 -29 -16 -29 -10 0 -14 -6 -10 -15 3 -8 1 -15 -4 -15 -6 0 -6 -9 -1 -22 10 -27 23 -26 101 5 103 40 134 62 159 110 28 55 23 77 -19 77 -26 0 -30 3 -25 23 11 48 -40 76 -82 44z" transform="translate(0,101) scale(0.1,-0.1)" stroke="none" fill="#B9CF64"/>

<path d="M340 921 c0 -38 -2 -41 -22 -36 -17 4 -28 -2 -40 -19 -17 -24 -17 -25 21 -71 l39 -47 -34 -34 c-18 -19 -40 -34 -48 -34 -19 0 -73 -63 -91 -107 -21 -49 -19 -58 10 -39 13 9 29 16 35 16 16 0 12 -41 -7 -62 -15 -17 -15 -20 1 -51 36 -65 63 -88 108 -91 24 -1 52 -7 63 -13 28 -15 89 -25 109 -17 24 9 20 32 -15 71 -17 19 -28 41 -25 49 3 8 0 11 -8 8 -8 -3 -17 6 -23 23 -6 16 -24 49 -41 73 l-31 45 24 13 c16 8 26 25 31 48 4 24 14 38 29 44 12 5 25 15 28 23 9 25 65 32 88 11 14 -13 16 -20 7 -25 -9 -6 -9 -13 0 -33 9 -21 19 -26 46 -26 39 0 56 17 59 57 2 25 -1 28 -28 25 -28 -2 -33 2 -65 65 -57 110 -104 153 -183 168 l-37 7 0 -41z" transform="translate(0,101) scale(0.1,-0.1)" stroke="none" fill="#A798B9"/>

</g>

</g>
<g id="row3" transform="translate(-26,303.0)">
<g id="0" transform="translate(0.0,0)scale(1,1)">

<path d="M117 223 c3 -7 22 -17 43 -23 20 -6 48 -18 61 -28 26 -20 94 -42 127 -42 13 0 29 -12 39 -27 10 -16 22 -31 28 -35 16 -12 66 -8 124 10 l54 17 -62 35 c-35 19 -73 45 -85 57 -18 20 -26 22 -54 13 -29 -8 -34 -6 -41 12 -7 20 -15 21 -123 22 -88 1 -114 -2 -111 -11z" transform="translate(0,101) scale(0.1,-0.1)" stroke="none" fill="#A798B9"/>

<path d="M185 541 c-6 -5 -16 -11 -24 -13 -48 -11 -114 -116 -109 -175 3 -37 4 -38 41 -35 33 3 37 1 35 -18 -2 -13 6 -26 23 -37 25 -15 28 -15 51 3 14 10 35 33 47 51 l21 32 -24 28 c-12 15 -31 42 -41 60 -18 30 -18 33 -2 51 31 34 14 84 -18 53z" transform="translate(0,101) scale(0.1,-0.1)" stroke="none" fill="#B9CF64"/>

<path d="M483 477 c-52 -40 -53 -45 -13 -90 51 -59 32 -86 -49 -68 -41 9 -41 9 -41 -20 0 -20 -5 -29 -16 -29 -10 0 -14 -6 -10 -15 3 -8 1 -15 -4 -15 -6 0 -6 -9 -1 -22 10 -27 23 -26 101 5 103 40 134 62 159 110 28 55 23 77 -19 77 -26 0 -30 3 -25 23 11 48 -40 76 -82 44z" transform="translate(0,101) scale(0.1,-0.1)" stroke="none" fill="#B9CF64"/>

<path d="M340 921 c0 -38 -2 -41 -22 -36 -17 4 -28 -2 -40 -19 -17 -24 -17 -25 21 -71 l39 -47 -34 -34 c-18 -19 -40 -34 -48 -34 -19 0 -73 -63 -91 -107 -21 -49 -19 -58 10 -39 13 9 29 16 35 16 16 0 12 -41 -7 -62 -15 -17 -15 -20 1 -51 36 -65 63 -88 108 -91 24 -1 52 -7 63 -13 28 -15 89 -25 109 -17 24 9 20 32 -15 71 -17 19 -28 41 -25 49 3 8 0 11 -8 8 -8 -3 -17 6 -23 23 -6 16 -24 49 -41 73 l-31 45 24 13 c16 8 26 25 31 48 4 24 14 38 29 44 12 5 25 15 28 23 9 25 65 32 88 11 14 -13 16 -20 7 -25 -9 -6 -9 -13 0 -33 9 -21 19 -26 46 -26 39 0 56 17 59 57 2 25 -1 28 -28 25 -28 -2 -33 2 -65 65 -57 110 -104 153 -183 168 l-37 7 0 -41z" transform="translate(0,101) scale(0.1,-0.1)" stroke="none" fill="#A798B9"/>

</g>

<g id="1" transform="translate(70.0,0)scale(1,1)">

<path d="M117 223 c3 -7 22 -17 43 -23 20 -6 48 -18 61 -28 26 -20 94 -42 127 -42 13 0 29 -12 39 -27 10 -16 22 -31 28 -35 16 -12 66 -8 124 10 l54 17 -62 35 c-35 19 -73 45 -85 57 -18 20 -26 22 -54 13 -29 -8 -34 -6 -41 12 -7 20 -15 21 -123 22 -88 1 -114 -2 -111 -11z" transform="translate(0,101) scale(0.1,-0.1)" stroke="none" fill="#A798B9"/>

<path d="M185 541 c-6 -5 -16 -11 -24 -13 -48 -11 -114 -116 -109 -175 3 -37 4 -38 41 -35 33 3 37 1 35 -18 -2 -13 6 -26 23 -37 25 -15 28 -15 51 3 14 10 35 33 47 51 l21 32 -24 28 c-12 15 -31 42 -41 60 -18 30 -18 33 -2 51 31 34 14 84 -18 53z" transform="translate(0,101) scale(0.1,-0.1)" stroke="none" fill="#B9CF64"/>

<path d="M483 477 c-52 -40 -53 -45 -13 -90 51 -59 32 -86 -49 -68 -41 9 -41 9 -41 -20 0 -20 -5 -29 -16 -29 -10 0 -14 -6 -10 -15 3 -8 1 -15 -4 -15 -6 0 -6 -9 -1 -22 10 -27 23 -26 101 5 103 40 134 62 159 110 28 55 23 77 -19 77 -26 0 -30 3 -25 23 11 48 -40 76 -82 44z" transform="translate(0,101) scale(0.1,-0.1)" stroke="none" fill="#B9CF64"/>

<path d="M340 921 c0 -38 -2 -41 -22 -36 -17 4 -28 -2 -40 -19 -17 -24 -17 -25 21 -71 l39 -47 -34 -34 c-18 -19 -40 -34 -48 -34 -19 0 -73 -63 -91 -107 -21 -49 -19 -58 10 -39 13 9 29 16 35 16 16 0 12 -41 -7 -62 -15 -17 -15 -20 1 -51 36 -65 63 -88 108 -91 24 -1 52 -7 63 -13 28 -15 89 -25 109 -17 24 9 20 32 -15 71 -17 19 -28 41 -25 49 3 8 0 11 -8 8 -8 -3 -17 6 -23 23 -6 16 -24 49 -41 73 l-31 45 24 13 c16 8 26 25 31 48 4 24 14 38 29 44 12 5 25 15 28 23 9 25 65 32 88 11 14 -13 16 -20 7 -25 -9 -6 -9 -13 0 -33 9 -21 19 -26 46 -26 39 0 56 17 59 57 2 25 -1 28 -28 25 -28 -2 -33 2 -65 65 -57 110 -104 153 -183 168 l-37 7 0 -41z" transform="translate(0,101) scale(0.1,-0.1)" stroke="none" fill="#A798B9"/>

</g>

<g id="2" transform="translate(140.0,0)scale(1,1)">

<path d="M117 223 c3 -7 22 -17 43 -23 20 -6 48 -18 61 -28 26 -20 94 -42 127 -42 13 0 29 -12 39 -27 10 -16 22 -31 28 -35 16 -12 66 -8 124 10 l54 17 -62 35 c-35 19 -73 45 -85 57 -18 20 -26 22 -54 13 -29 -8 -34 -6 -41 12 -7 20 -15 21 -123 22 -88 1 -114 -2 -111 -11z" transform="translate(0,101) scale(0.1,-0.1)" stroke="none" fill="#A798B9"/>

<path d="M185 541 c-6 -5 -16 -11 -24 -13 -48 -11 -114 -116 -109 -175 3 -37 4 -38 41 -35 33 3 37 1 35 -18 -2 -13 6 -26 23 -37 25 -15 28 -15 51 3 14 10 35 33 47 51 l21 32 -24 28 c-12 15 -31 42 -41 60 -18 30 -18 33 -2 51 31 34 14 84 -18 53z" transform="translate(0,101) scale(0.1,-0.1)" stroke="none" fill="#B9CF64"/>

<path d="M483 477 c-52 -40 -53 -45 -13 -90 51 -59 32 -86 -49 -68 -41 9 -41 9 -41 -20 0 -20 -5 -29 -16 -29 -10 0 -14 -6 -10 -15 3 -8 1 -15 -4 -15 -6 0 -6 -9 -1 -22 10 -27 23 -26 101 5 103 40 134 62 159 110 28 55 23 77 -19 77 -26 0 -30 3 -25 23 11 48 -40 76 -82 44z" transform="translate(0,101) scale(0.1,-0.1)" stroke="none" fill="#B9CF64"/>

<path d="M340 921 c0 -38 -2 -41 -22 -36 -17 4 -28 -2 -40 -19 -17 -24 -17 -25 21 -71 l39 -47 -34 -34 c-18 -19 -40 -34 -48 -34 -19 0 -73 -63 -91 -107 -21 -49 -19 -58 10 -39 13 9 29 16 35 16 16 0 12 -41 -7 -62 -15 -17 -15 -20 1 -51 36 -65 63 -88 108 -91 24 -1 52 -7 63 -13 28 -15 89 -25 109 -17 24 9 20 32 -15 71 -17 19 -28 41 -25 49 3 8 0 11 -8 8 -8 -3 -17 6 -23 23 -6 16 -24 49 -41 73 l-31 45 24 13 c16 8 26 25 31 48 4 24 14 38 29 44 12 5 25 15 28 23 9 25 65 32 88 11 14 -13 16 -20 7 -25 -9 -6 -9 -13 0 -33 9 -21 19 -26 46 -26 39 0 56 17 59 57 2 25 -1 28 -28 25 -28 -2 -33 2 -65 65 -57 110 -104 153 -183 168 l-37 7 0 -41z" transform="translate(0,101) scale(0.1,-0.1)" stroke="none" fill="#A798B9"/>

</g>

<g id="3" transform="translate(210.0,0)scale(1,1)">

<path d="M117 223 c3 -7 22 -17 43 -23 20 -6 48 -18 61 -28 26 -20 94 -42 127 -42 13 0 29 -12 39 -27 10 -16 22 -31 28 -35 16 -12 66 -8 124 10 l54 17 -62 35 c-35 19 -73 45 -85 57 -18 20 -26 22 -54 13 -29 -8 -34 -6 -41 12 -7 20 -15 21 -123 22 -88 1 -114 -2 -111 -11z" transform="translate(0,101) scale(0.1,-0.1)" stroke="none" fill="#A798B9"/>

<path d="M185 541 c-6 -5 -16 -11 -24 -13 -48 -11 -114 -116 -109 -175 3 -37 4 -38 41 -35 33 3 37 1 35 -18 -2 -13 6 -26 23 -37 25 -15 28 -15 51 3 14 10 35 33 47 51 l21 32 -24 28 c-12 15 -31 42 -41 60 -18 30 -18 33 -2 51 31 34 14 84 -18 53z" transform="translate(0,101) scale(0.1,-0.1)" stroke="none" fill="#B9CF64"/>

<path d="M483 477 c-52 -40 -53 -45 -13 -90 51 -59 32 -86 -49 -68 -41 9 -41 9 -41 -20 0 -20 -5 -29 -16 -29 -10 0 -14 -6 -10 -15 3 -8 1 -15 -4 -15 -6 0 -6 -9 -1 -22 10 -27 23 -26 101 5 103 40 134 62 159 110 28 55 23 77 -19 77 -26 0 -30 3 -25 23 11 48 -40 76 -82 44z" transform="translate(0,101) scale(0.1,-0.1)" stroke="none" fill="#B9CF64"/>

<path d="M340 921 c0 -38 -2 -41 -22 -36 -17 4 -28 -2 -40 -19 -17 -24 -17 -25 21 -71 l39 -47 -34 -34 c-18 -19 -40 -34 -48 -34 -19 0 -73 -63 -91 -107 -21 -49 -19 -58 10 -39 13 9 29 16 35 16 16 0 12 -41 -7 -62 -15 -17 -15 -20 1 -51 36 -65 63 -88 108 -91 24 -1 52 -7 63 -13 28 -15 89 -25 109 -17 24 9 20 32 -15 71 -17 19 -28 41 -25 49 3 8 0 11 -8 8 -8 -3 -17 6 -23 23 -6 16 -24 49 -41 73 l-31 45 24 13 c16 8 26 25 31 48 4 24 14 38 29 44 12 5 25 15 28 23 9 25 65 32 88 11 14 -13 16 -20 7 -25 -9 -6 -9 -13 0 -33 9 -21 19 -26 46 -26 39 0 56 17 59 57 2 25 -1 28 -28 25 -28 -2 -33 2 -65 65 -57 110 -104 153 -183 168 l-37 7 0 -41z" transform="translate(0,101) scale(0.1,-0.1)" stroke="none" fill="#A798B9"/>

</g>

<g id="4" transform="translate(280.0,0)scale(1,1)">

<path d="M117 223 c3 -7 22 -17 43 -23 20 -6 48 -18 61 -28 26 -20 94 -42 127 -42 13 0 29 -12 39 -27 10 -16 22 -31 28 -35 16 -12 66 -8 124 10 l54 17 -62 35 c-35 19 -73 45 -85 57 -18 20 -26 22 -54 13 -29 -8 -34 -6 -41 12 -7 20 -15 21 -123 22 -88 1 -114 -2 -111 -11z" transform="translate(0,101) scale(0.1,-0.1)" stroke="none" fill="#A798B9"/>

<path d="M185 541 c-6 -5 -16 -11 -24 -13 -48 -11 -114 -116 -109 -175 3 -37 4 -38 41 -35 33 3 37 1 35 -18 -2 -13 6 -26 23 -37 25 -15 28 -15 51 3 14 10 35 33 47 51 l21 32 -24 28 c-12 15 -31 42 -41 60 -18 30 -18 33 -2 51 31 34 14 84 -18 53z" transform="translate(0,101) scale(0.1,-0.1)" stroke="none" fill="#B9CF64"/>

<path d="M483 477 c-52 -40 -53 -45 -13 -90 51 -59 32 -86 -49 -68 -41 9 -41 9 -41 -20 0 -20 -5 -29 -16 -29 -10 0 -14 -6 -10 -15 3 -8 1 -15 -4 -15 -6 0 -6 -9 -1 -22 10 -27 23 -26 101 5 103 40 134 62 159 110 28 55 23 77 -19 77 -26 0 -30 3 -25 23 11 48 -40 76 -82 44z" transform="translate(0,101) scale(0.1,-0.1)" stroke="none" fill="#B9CF64"/>

<path d="M340 921 c0 -38 -2 -41 -22 -36 -17 4 -28 -2 -40 -19 -17 -24 -17 -25 21 -71 l39 -47 -34 -34 c-18 -19 -40 -34 -48 -34 -19 0 -73 -63 -91 -107 -21 -49 -19 -58 10 -39 13 9 29 16 35 16 16 0 12 -41 -7 -62 -15 -17 -15 -20 1 -51 36 -65 63 -88 108 -91 24 -1 52 -7 63 -13 28 -15 89 -25 109 -17 24 9 20 32 -15 71 -17 19 -28 41 -25 49 3 8 0 11 -8 8 -8 -3 -17 6 -23 23 -6 16 -24 49 -41 73 l-31 45 24 13 c16 8 26 25 31 48 4 24 14 38 29 44 12 5 25 15 28 23 9 25 65 32 88 11 14 -13 16 -20 7 -25 -9 -6 -9 -13 0 -33 9 -21 19 -26 46 -26 39 0 56 17 59 57 2 25 -1 28 -28 25 -28 -2 -33 2 -65 65 -57 110 -104 153 -183 168 l-37 7 0 -41z" transform="translate(0,101) scale(0.1,-0.1)" stroke="none" fill="#A798B9"/>

</g>

</g>
</svg>