<?xml version="1.0" standalone="no"?>
<!DOCTYPE svg PUBLIC "-//W3C//DTD SVG 20010904//EN"
 "http://www.w3.org/TR/2001/REC-SVG-20010904/DTD/svg10.dtd">
<svg version="1.0" xmlns="http://www.w3.org/2000/svg" width="240pt" height="328pt" viewBox="0 0 240 328" preserveAspectRatio = "xMidYMid meet" >
<metadata>
Created by ZoeQu, written in 2022
</metadata>
<rect width="240" height="328" fill="#EFB664"/>
<g id="row0" transform="translate(8,0.0)">
<g id="0" transform="translate(0.0,0)scale(1,1)">

<path d="M260 722 c0 -5 8 -24 17 -43 12 -23 19 -68 23 -134 5 -97 5 -98 13 -45 8 55 -4 144 -25 183 -15 28 -3 31 34 9 55 -34 108 -97 123 -143 10 -31 14 -37 14 -20 1 41 -47 110 -111 157 -57 42 -88 54 -88 36z" transform="translate(0,82) scale(0.1,-0.1)" stroke="none" fill="#949271"/>

<path d="M449 418 c-8 -56 -66 -184 -110 -239 -32 -41 -95 -82 -141 -93 -16 -4 -28 -4 -28 -1 0 2 14 27 31 55 39 64 99 231 98 273 -1 31 -1 31 -10 -8 -24 -110 -79 -247 -115 -286 -8 -8 -14 -23 -14 -33 0 -15 6 -16 33 -11 54 12 103 42 143 88 70 79 128 209 122 270 -3 28 -4 25 -9 -15z" transform="translate(0,82) scale(0.1,-0.1)" stroke="none" fill="#949271"/>

<path d="M168 793 c-35 -5 -35 -14 2 -88 27 -54 30 -69 30 -160 0 -153 -44 -304 -124 -429 -20 -31 -36 -61 -36 -66 0 -15 17 -12 17 3 0 6 18 41 40 77 22 36 47 85 56 110 75 213 82 359 25 474 -16 32 -28 60 -25 62 9 10 99 6 129 -5 87 -33 181 -93 221 -140 80 -96 55 -266 -62 -425 -61 -83 -119 -122 -221 -151 -26 -8 -36 -14 -23 -14 12 -1 48 9 80 21 131 48 273 249 281 398 4 72 -8 127 -40 172 -25 36 -144 114 -220 144 -60 23 -75 25 -130 17z" transform="translate(0,82) scale(0.1,-0.1)" stroke="none" fill="#949271"/>

<path d="M188 782 c-21 -2 -38 -5 -38 -8 0 -2 13 -30 29 -62 37 -74 45 -161 27 -267 -27 -153 -65 -256 -131 -353 -13 -19 -21 -40 -18 -45 8 -14 139 -2 198 18 144 48 281 233 293 396 8 111 -23 168 -127 237 -97 65 -166 90 -233 84z m160 -96 c87 -64 114 -114 113 -211 -1 -183 -126 -369 -268 -400 -27 -5 -33 -4 -33 11 0 10 6 25 14 33 39 44 95 185 116 297 16 83 10 220 -13 263 -34 67 -13 68 71 7z" transform="translate(0,82) scale(0.1,-0.1)" stroke="none" fill="#167F79"/>

</g>

<g id="1" transform="translate(60.0,0)scale(1,1)">

<path d="M260 722 c0 -5 8 -24 17 -43 12 -23 19 -68 23 -134 5 -97 5 -98 13 -45 8 55 -4 144 -25 183 -15 28 -3 31 34 9 55 -34 108 -97 123 -143 10 -31 14 -37 14 -20 1 41 -47 110 -111 157 -57 42 -88 54 -88 36z" transform="translate(0,82) scale(0.1,-0.1)" stroke="none" fill="#949271"/>

<path d="M449 418 c-8 -56 -66 -184 -110 -239 -32 -41 -95 -82 -141 -93 -16 -4 -28 -4 -28 -1 0 2 14 27 31 55 39 64 99 231 98 273 -1 31 -1 31 -10 -8 -24 -110 -79 -247 -115 -286 -8 -8 -14 -23 -14 -33 0 -15 6 -16 33 -11 54 12 103 42 143 88 70 79 128 209 122 270 -3 28 -4 25 -9 -15z" transform="translate(0,82) scale(0.1,-0.1)" stroke="none" fill="#949271"/>

<path d="M168 793 c-35 -5 -35 -14 2 -88 27 -54 30 -69 30 -160 0 -153 -44 -304 -124 -429 -20 -31 -36 -61 -36 -66 0 -15 17 -12 17 3 0 6 18 41 40 77 22 36 47 85 56 110 75 213 82 359 25 474 -16 32 -28 60 -25 62 9 10 99 6 129 -5 87 -33 181 -93 221 -140 80 -96 55 -266 -62 -425 -61 -83 -119 -122 -221 -151 -26 -8 -36 -14 -23 -14 12 -1 48 9 80 21 131 48 273 249 281 398 4 72 -8 127 -40 172 -25 36 -144 114 -220 144 -60 23 -75 25 -130 17z" transform="translate(0,82) scale(0.1,-0.1)" stroke="none" fill="#949271"/>

<path d="M188 782 c-21 -2 -38 -5 -38 -8 0 -2 13 -30 29 -62 37 -74 45 -161 27 -267 -27 -153 -65 -256 -131 -353 -13 -19 -21 -40 -18 -45 8 -14 139 -2 198 18 144 48 281 233 293 396 8 111 -23 168 -127 237 -97 65 -166 90 -233 84z m160 -96 c87 -64 114 -114 113 -211 -1 -183 -126 -369 -268 -400 -27 -5 -33 -4 -33 11 0 10 6 25 14 33 39 44 95 185 116 297 16 83 10 220 -13 263 -34 67 -13 68 71 7z" transform="translate(0,82) scale(0.1,-0.1)" stroke="none" fill="#167F79"/>

</g>

<g id="2" transform="translate(120.0,0)scale(1,1)">

<path d="M260 722 c0 -5 8 -24 17 -43 12 -23 19 -68 23 -134 5 -97 5 -98 13 -45 8 55 -4 144 -25 183 -15 28 -3 31 34 9 55 -34 108 -97 123 -143 10 -31 14 -37 14 -20 1 41 -47 110 -111 157 -57 42 -88 54 -88 36z" transform="translate(0,82) scale(0.1,-0.1)" stroke="none" fill="#949271"/>

<path d="M449 418 c-8 -56 -66 -184 -110 -239 -32 -41 -95 -82 -141 -93 -16 -4 -28 -4 -28 -1 0 2 14 27 31 55 39 64 99 231 98 273 -1 31 -1 31 -10 -8 -24 -110 -79 -247 -115 -286 -8 -8 -14 -23 -14 -33 0 -15 6 -16 33 -11 54 12 103 42 143 88 70 79 128 209 122 270 -3 28 -4 25 -9 -15z" transform="translate(0,82) scale(0.1,-0.1)" stroke="none" fill="#949271"/>

<path d="M168 793 c-35 -5 -35 -14 2 -88 27 -54 30 -69 30 -160 0 -153 -44 -304 -124 -429 -20 -31 -36 -61 -36 -66 0 -15 17 -12 17 3 0 6 18 41 40 77 22 36 47 85 56 110 75 213 82 359 25 474 -16 32 -28 60 -25 62 9 10 99 6 129 -5 87 -33 181 -93 221 -140 80 -96 55 -266 -62 -425 -61 -83 -119 -122 -221 -151 -26 -8 -36 -14 -23 -14 12 -1 48 9 80 21 131 48 273 249 281 398 4 72 -8 127 -40 172 -25 36 -144 114 -220 144 -60 23 -75 25 -130 17z" transform="translate(0,82) scale(0.1,-0.1)" stroke="none" fill="#949271"/>

<path d="M188 782 c-21 -2 -38 -5 -38 -8 0 -2 13 -30 29 -62 37 -74 45 -161 27 -267 -27 -153 -65 -256 -131 -353 -13 -19 -21 -40 -18 -45 8 -14 139 -2 198 18 144 48 281 233 293 396 8 111 -23 168 -127 237 -97 65 -166 90 -233 84z m160 -96 c87 -64 114 -114 113 -211 -1 -183 -126 -369 -268 -400 -27 -5 -33 -4 -33 11 0 10 6 25 14 33 39 44 95 185 116 297 16 83 10 220 -13 263 -34 67 -13 68 71 7z" transform="translate(0,82) scale(0.1,-0.1)" stroke="none" fill="#167F79"/>

</g>

<g id="3" transform="translate(180.0,0)scale(1,1)">

<path d="M260 722 c0 -5 8 -24 17 -43 12 -23 19 -68 23 -134 5 -97 5 -98 13 -45 8 55 -4 144 -25 183 -15 28 -3 31 34 9 55 -34 108 -97 123 -143 10 -31 14 -37 14 -20 1 41 -47 110 -111 157 -57 42 -88 54 -88 36z" transform="translate(0,82) scale(0.1,-0.1)" stroke="none" fill="#949271"/>

<path d="M449 418 c-8 -56 -66 -184 -110 -239 -32 -41 -95 -82 -141 -93 -16 -4 -28 -4 -28 -1 0 2 14 27 31 55 39 64 99 231 98 273 -1 31 -1 31 -10 -8 -24 -110 -79 -247 -115 -286 -8 -8 -14 -23 -14 -33 0 -15 6 -16 33 -11 54 12 103 42 143 88 70 79 128 209 122 270 -3 28 -4 25 -9 -15z" transform="translate(0,82) scale(0.1,-0.1)" stroke="none" fill="#949271"/>

<path d="M168 793 c-35 -5 -35 -14 2 -88 27 -54 30 -69 30 -160 0 -153 -44 -304 -124 -429 -20 -31 -36 -61 -36 -66 0 -15 17 -12 17 3 0 6 18 41 40 77 22 36 47 85 56 110 75 213 82 359 25 474 -16 32 -28 60 -25 62 9 10 99 6 129 -5 87 -33 181 -93 221 -140 80 -96 55 -266 -62 -425 -61 -83 -119 -122 -221 -151 -26 -8 -36 -14 -23 -14 12 -1 48 9 80 21 131 48 273 249 281 398 4 72 -8 127 -40 172 -25 36 -144 114 -220 144 -60 23 -75 25 -130 17z" transform="translate(0,82) scale(0.1,-0.1)" stroke="none" fill="#949271"/>

<path d="M188 782 c-21 -2 -38 -5 -38 -8 0 -2 13 -30 29 -62 37 -74 45 -161 27 -267 -27 -153 -65 -256 -131 -353 -13 -19 -21 -40 -18 -45 8 -14 139 -2 198 18 144 48 281 233 293 396 8 111 -23 168 -127 237 -97 65 -166 90 -233 84z m160 -96 c87 -64 114 -114 113 -211 -1 -183 -126 -369 -268 -400 -27 -5 -33 -4 -33 11 0 10 6 25 14 33 39 44 95 185 116 297 16 83 10 220 -13 263 -34 67 -13 68 71 7z" transform="translate(0,82) scale(0.1,-0.1)" stroke="none" fill="#167F79"/>

</g>

<g id="4" transform="translate(240.0,0)scale(1,1)">

<path d="M260 722 c0 -5 8 -24 17 -43 12 -23 19 -68 23 -134 5 -97 5 -98 13 -45 8 55 -4 144 -25 183 -15 28 -3 31 34 9 55 -34 108 -97 123 -143 10 -31 14 -37 14 -20 1 41 -47 110 -111 157 -57 42 -88 54 -88 36z" transform="translate(0,82) scale(0.1,-0.1)" stroke="none" fill="#949271"/>

<path d="M449 418 c-8 -56 -66 -184 -110 -239 -32 -41 -95 -82 -141 -93 -16 -4 -28 -4 -28 -1 0 2 14 27 31 55 39 64 99 231 98 273 -1 31 -1 31 -10 -8 -24 -110 -79 -247 -115 -286 -8 -8 -14 -23 -14 -33 0 -15 6 -16 33 -11 54 12 103 42 143 88 70 79 128 209 122 270 -3 28 -4 25 -9 -15z" transform="translate(0,82) scale(0.1,-0.1)" stroke="none" fill="#949271"/>

<path d="M168 793 c-35 -5 -35 -14 2 -88 27 -54 30 -69 30 -160 0 -153 -44 -304 -124 -429 -20 -31 -36 -61 -36 -66 0 -15 17 -12 17 3 0 6 18 41 40 77 22 36 47 85 56 110 75 213 82 359 25 474 -16 32 -28 60 -25 62 9 10 99 6 129 -5 87 -33 181 -93 221 -140 80 -96 55 -266 -62 -425 -61 -83 -119 -122 -221 -151 -26 -8 -36 -14 -23 -14 12 -1 48 9 80 21 131 48 273 249 281 398 4 72 -8 127 -40 172 -25 36 -144 114 -220 144 -60 23 -75 25 -130 17z" transform="translate(0,82) scale(0.1,-0.1)" stroke="none" fill="#949271"/>

<path d="M188 782 c-21 -2 -38 -5 -38 -8 0 -2 13 -30 29 -62 37 -74 45 -161 27 -267 -27 -153 -65 -256 -131 -353 -13 -19 -21 -40 -18 -45 8 -14 139 -2 198 18 144 48 281 233 293 396 8 111 -23 168 -127 237 -97 65 -166 90 -233 84z m160 -96 c87 -64 114 -114 113 -211 -1 -183 -126 -369 -268 -400 -27 -5 -33 -4 -33 11 0 10 6 25 14 33 39 44 95 185 116 297 16 83 10 220 -13 263 -34 67 -13 68 71 7z" transform="translate(0,82) scale(0.1,-0.1)" stroke="none" fill="#167F79"/>

</g>

</g>
<g id="row1" transform="translate(8,82.0)">
<g id="0" transform="translate(0.0,0)scale(1,1)">

<path d="M260 722 c0 -5 8 -24 17 -43 12 -23 19 -68 23 -134 5 -97 5 -98 13 -45 8 55 -4 144 -25 183 -15 28 -3 31 34 9 55 -34 108 -97 123 -143 10 -31 14 -37 14 -20 1 41 -47 110 -111 157 -57 42 -88 54 -88 36z" transform="translate(0,82) scale(0.1,-0.1)" stroke="none" fill="#949271"/>

<path d="M449 418 c-8 -56 -66 -184 -110 -239 -32 -41 -95 -82 -141 -93 -16 -4 -28 -4 -28 -1 0 2 14 27 31 55 39 64 99 231 98 273 -1 31 -1 31 -10 -8 -24 -110 -79 -247 -115 -286 -8 -8 -14 -23 -14 -33 0 -15 6 -16 33 -11 54 12 103 42 143 88 70 79 128 209 122 270 -3 28 -4 25 -9 -15z" transform="translate(0,82) scale(0.1,-0.1)" stroke="none" fill="#949271"/>

<path d="M168 793 c-35 -5 -35 -14 2 -88 27 -54 30 -69 30 -160 0 -153 -44 -304 -124 -429 -20 -31 -36 -61 -36 -66 0 -15 17 -12 17 3 0 6 18 41 40 77 22 36 47 85 56 110 75 213 82 359 25 474 -16 32 -28 60 -25 62 9 10 99 6 129 -5 87 -33 181 -93 221 -140 80 -96 55 -266 -62 -425 -61 -83 -119 -122 -221 -151 -26 -8 -36 -14 -23 -14 12 -1 48 9 80 21 131 48 273 249 281 398 4 72 -8 127 -40 172 -25 36 -144 114 -220 144 -60 23 -75 25 -130 17z" transform="translate(0,82) scale(0.1,-0.1)" stroke="none" fill="#949271"/>

<path d="M188 782 c-21 -2 -38 -5 -38 -8 0 -2 13 -30 29 -62 37 -74 45 -161 27 -267 -27 -153 -65 -256 -131 -353 -13 -19 -21 -40 -18 -45 8 -14 139 -2 198 18 144 48 281 233 293 396 8 111 -23 168 -127 237 -97 65 -166 90 -233 84z m160 -96 c87 -64 114 -114 113 -211 -1 -183 -126 -369 -268 -400 -27 -5 -33 -4 -33 11 0 10 6 25 14 33 39 44 95 185 116 297 16 83 10 220 -13 263 -34 67 -13 68 71 7z" transform="translate(0,82) scale(0.1,-0.1)" stroke="none" fill="#167F79"/>

</g>

<g id="1" transform="translate(60.0,0)scale(1,1)">

<path d="M260 722 c0 -5 8 -24 17 -43 12 -23 19 -68 23 -134 5 -97 5 -98 13 -45 8 55 -4 144 -25 183 -15 28 -3 31 34 9 55 -34 108 -97 123 -143 10 -31 14 -37 14 -20 1 41 -47 110 -111 157 -57 42 -88 54 -88 36z" transform="translate(0,82) scale(0.1,-0.1)" stroke="none" fill="#949271"/>

<path d="M449 418 c-8 -56 -66 -184 -110 -239 -32 -41 -95 -82 -141 -93 -16 -4 -28 -4 -28 -1 0 2 14 27 31 55 39 64 99 231 98 273 -1 31 -1 31 -10 -8 -24 -110 -79 -247 -115 -286 -8 -8 -14 -23 -14 -33 0 -15 6 -16 33 -11 54 12 103 42 143 88 70 79 128 209 122 270 -3 28 -4 25 -9 -15z" transform="translate(0,82) scale(0.1,-0.1)" stroke="none" fill="#949271"/>

<path d="M168 793 c-35 -5 -35 -14 2 -88 27 -54 30 -69 30 -160 0 -153 -44 -304 -124 -429 -20 -31 -36 -61 -36 -66 0 -15 17 -12 17 3 0 6 18 41 40 77 22 36 47 85 56 110 75 213 82 359 25 474 -16 32 -28 60 -25 62 9 10 99 6 129 -5 87 -33 181 -93 221 -140 80 -96 55 -266 -62 -425 -61 -83 -119 -122 -221 -151 -26 -8 -36 -14 -23 -14 12 -1 48 9 80 21 131 48 273 249 281 398 4 72 -8 127 -40 172 -25 36 -144 114 -220 144 -60 23 -75 25 -130 17z" transform="translate(0,82) scale(0.1,-0.1)" stroke="none" fill="#949271"/>

<path d="M188 782 c-21 -2 -38 -5 -38 -8 0 -2 13 -30 29 -62 37 -74 45 -161 27 -267 -27 -153 -65 -256 -131 -353 -13 -19 -21 -40 -18 -45 8 -14 139 -2 198 18 144 48 281 233 293 396 8 111 -23 168 -127 237 -97 65 -166 90 -233 84z m160 -96 c87 -64 114 -114 113 -211 -1 -183 -126 -369 -268 -400 -27 -5 -33 -4 -33 11 0 10 6 25 14 33 39 44 95 185 116 297 16 83 10 220 -13 263 -34 67 -13 68 71 7z" transform="translate(0,82) scale(0.1,-0.1)" stroke="none" fill="#167F79"/>

</g>

<g id="2" transform="translate(120.0,0)scale(1,1)">

<path d="M260 722 c0 -5 8 -24 17 -43 12 -23 19 -68 23 -134 5 -97 5 -98 13 -45 8 55 -4 144 -25 183 -15 28 -3 31 34 9 55 -34 108 -97 123 -143 10 -31 14 -37 14 -20 1 41 -47 110 -111 157 -57 42 -88 54 -88 36z" transform="translate(0,82) scale(0.1,-0.1)" stroke="none" fill="#949271"/>

<path d="M449 418 c-8 -56 -66 -184 -110 -239 -32 -41 -95 -82 -141 -93 -16 -4 -28 -4 -28 -1 0 2 14 27 31 55 39 64 99 231 98 273 -1 31 -1 31 -10 -8 -24 -110 -79 -247 -115 -286 -8 -8 -14 -23 -14 -33 0 -15 6 -16 33 -11 54 12 103 42 143 88 70 79 128 209 122 270 -3 28 -4 25 -9 -15z" transform="translate(0,82) scale(0.1,-0.1)" stroke="none" fill="#949271"/>

<path d="M168 793 c-35 -5 -35 -14 2 -88 27 -54 30 -69 30 -160 0 -153 -44 -304 -124 -429 -20 -31 -36 -61 -36 -66 0 -15 17 -12 17 3 0 6 18 41 40 77 22 36 47 85 56 110 75 213 82 359 25 474 -16 32 -28 60 -25 62 9 10 99 6 129 -5 87 -33 181 -93 221 -140 80 -96 55 -266 -62 -425 -61 -83 -119 -122 -221 -151 -26 -8 -36 -14 -23 -14 12 -1 48 9 80 21 131 48 273 249 281 398 4 72 -8 127 -40 172 -25 36 -144 114 -220 144 -60 23 -75 25 -130 17z" transform="translate(0,82) scale(0.1,-0.1)" stroke="none" fill="#949271"/>

<path d="M188 782 c-21 -2 -38 -5 -38 -8 0 -2 13 -30 29 -62 37 -74 45 -161 27 -267 -27 -153 -65 -256 -131 -353 -13 -19 -21 -40 -18 -45 8 -14 139 -2 198 18 144 48 281 233 293 396 8 111 -23 168 -127 237 -97 65 -166 90 -233 84z m160 -96 c87 -64 114 -114 113 -211 -1 -183 -126 -369 -268 -400 -27 -5 -33 -4 -33 11 0 10 6 25 14 33 39 44 95 185 116 297 16 83 10 220 -13 263 -34 67 -13 68 71 7z" transform="translate(0,82) scale(0.1,-0.1)" stroke="none" fill="#167F79"/>

</g>

<g id="3" transform="translate(180.0,0)scale(1,1)">

<path d="M260 722 c0 -5 8 -24 17 -43 12 -23 19 -68 23 -134 5 -97 5 -98 13 -45 8 55 -4 144 -25 183 -15 28 -3 31 34 9 55 -34 108 -97 123 -143 10 -31 14 -37 14 -20 1 41 -47 110 -111 157 -57 42 -88 54 -88 36z" transform="translate(0,82) scale(0.1,-0.1)" stroke="none" fill="#949271"/>

<path d="M449 418 c-8 -56 -66 -184 -110 -239 -32 -41 -95 -82 -141 -93 -16 -4 -28 -4 -28 -1 0 2 14 27 31 55 39 64 99 231 98 273 -1 31 -1 31 -10 -8 -24 -110 -79 -247 -115 -286 -8 -8 -14 -23 -14 -33 0 -15 6 -16 33 -11 54 12 103 42 143 88 70 79 128 209 122 270 -3 28 -4 25 -9 -15z" transform="translate(0,82) scale(0.1,-0.1)" stroke="none" fill="#949271"/>

<path d="M168 793 c-35 -5 -35 -14 2 -88 27 -54 30 -69 30 -160 0 -153 -44 -304 -124 -429 -20 -31 -36 -61 -36 -66 0 -15 17 -12 17 3 0 6 18 41 40 77 22 36 47 85 56 110 75 213 82 359 25 474 -16 32 -28 60 -25 62 9 10 99 6 129 -5 87 -33 181 -93 221 -140 80 -96 55 -266 -62 -425 -61 -83 -119 -122 -221 -151 -26 -8 -36 -14 -23 -14 12 -1 48 9 80 21 131 48 273 249 281 398 4 72 -8 127 -40 172 -25 36 -144 114 -220 144 -60 23 -75 25 -130 17z" transform="translate(0,82) scale(0.1,-0.1)" stroke="none" fill="#949271"/>

<path d="M188 782 c-21 -2 -38 -5 -38 -8 0 -2 13 -30 29 -62 37 -74 45 -161 27 -267 -27 -153 -65 -256 -131 -353 -13 -19 -21 -40 -18 -45 8 -14 139 -2 198 18 144 48 281 233 293 396 8 111 -23 168 -127 237 -97 65 -166 90 -233 84z m160 -96 c87 -64 114 -114 113 -211 -1 -183 -126 -369 -268 -400 -27 -5 -33 -4 -33 11 0 10 6 25 14 33 39 44 95 185 116 297 16 83 10 220 -13 263 -34 67 -13 68 71 7z" transform="translate(0,82) scale(0.1,-0.1)" stroke="none" fill="#167F79"/>

</g>

<g id="4" transform="translate(240.0,0)scale(1,1)">

<path d="M260 722 c0 -5 8 -24 17 -43 12 -23 19 -68 23 -134 5 -97 5 -98 13 -45 8 55 -4 144 -25 183 -15 28 -3 31 34 9 55 -34 108 -97 123 -143 10 -31 14 -37 14 -20 1 41 -47 110 -111 157 -57 42 -88 54 -88 36z" transform="translate(0,82) scale(0.1,-0.1)" stroke="none" fill="#949271"/>

<path d="M449 418 c-8 -56 -66 -184 -110 -239 -32 -41 -95 -82 -141 -93 -16 -4 -28 -4 -28 -1 0 2 14 27 31 55 39 64 99 231 98 273 -1 31 -1 31 -10 -8 -24 -110 -79 -247 -115 -286 -8 -8 -14 -23 -14 -33 0 -15 6 -16 33 -11 54 12 103 42 143 88 70 79 128 209 122 270 -3 28 -4 25 -9 -15z" transform="translate(0,82) scale(0.1,-0.1)" stroke="none" fill="#949271"/>

<path d="M168 793 c-35 -5 -35 -14 2 -88 27 -54 30 -69 30 -160 0 -153 -44 -304 -124 -429 -20 -31 -36 -61 -36 -66 0 -15 17 -12 17 3 0 6 18 41 40 77 22 36 47 85 56 110 75 213 82 359 25 474 -16 32 -28 60 -25 62 9 10 99 6 129 -5 87 -33 181 -93 221 -140 80 -96 55 -266 -62 -425 -61 -83 -119 -122 -221 -151 -26 -8 -36 -14 -23 -14 12 -1 48 9 80 21 131 48 273 249 281 398 4 72 -8 127 -40 172 -25 36 -144 114 -220 144 -60 23 -75 25 -130 17z" transform="translate(0,82) scale(0.1,-0.1)" stroke="none" fill="#949271"/>

<path d="M188 782 c-21 -2 -38 -5 -38 -8 0 -2 13 -30 29 -62 37 -74 45 -161 27 -267 -27 -153 -65 -256 -131 -353 -13 -19 -21 -40 -18 -45 8 -14 139 -2 198 18 144 48 281 233 293 396 8 111 -23 168 -127 237 -97 65 -166 90 -233 84z m160 -96 c87 -64 114 -114 113 -211 -1 -183 -126 -369 -268 -400 -27 -5 -33 -4 -33 11 0 10 6 25 14 33 39 44 95 185 116 297 16 83 10 220 -13 263 -34 67 -13 68 71 7z" transform="translate(0,82) scale(0.1,-0.1)" stroke="none" fill="#167F79"/>

</g>

</g>
<g id="row2" transform="translate(8,164.0)">
<g id="0" transform="translate(0.0,0)scale(1,1)">

<path d="M260 722 c0 -5 8 -24 17 -43 12 -23 19 -68 23 -134 5 -97 5 -98 13 -45 8 55 -4 144 -25 183 -15 28 -3 31 34 9 55 -34 108 -97 123 -143 10 -31 14 -37 14 -20 1 41 -47 110 -111 157 -57 42 -88 54 -88 36z" transform="translate(0,82) scale(0.1,-0.1)" stroke="none" fill="#949271"/>

<path d="M449 418 c-8 -56 -66 -184 -110 -239 -32 -41 -95 -82 -141 -93 -16 -4 -28 -4 -28 -1 0 2 14 27 31 55 39 64 99 231 98 273 -1 31 -1 31 -10 -8 -24 -110 -79 -247 -115 -286 -8 -8 -14 -23 -14 -33 0 -15 6 -16 33 -11 54 12 103 42 143 88 70 79 128 209 122 270 -3 28 -4 25 -9 -15z" transform="translate(0,82) scale(0.1,-0.1)" stroke="none" fill="#949271"/>

<path d="M168 793 c-35 -5 -35 -14 2 -88 27 -54 30 -69 30 -160 0 -153 -44 -304 -124 -429 -20 -31 -36 -61 -36 -66 0 -15 17 -12 17 3 0 6 18 41 40 77 22 36 47 85 56 110 75 213 82 359 25 474 -16 32 -28 60 -25 62 9 10 99 6 129 -5 87 -33 181 -93 221 -140 80 -96 55 -266 -62 -425 -61 -83 -119 -122 -221 -151 -26 -8 -36 -14 -23 -14 12 -1 48 9 80 21 131 48 273 249 281 398 4 72 -8 127 -40 172 -25 36 -144 114 -220 144 -60 23 -75 25 -130 17z" transform="translate(0,82) scale(0.1,-0.1)" stroke="none" fill="#949271"/>

<path d="M188 782 c-21 -2 -38 -5 -38 -8 0 -2 13 -30 29 -62 37 -74 45 -161 27 -267 -27 -153 -65 -256 -131 -353 -13 -19 -21 -40 -18 -45 8 -14 139 -2 198 18 144 48 281 233 293 396 8 111 -23 168 -127 237 -97 65 -166 90 -233 84z m160 -96 c87 -64 114 -114 113 -211 -1 -183 -126 -369 -268 -400 -27 -5 -33 -4 -33 11 0 10 6 25 14 33 39 44 95 185 116 297 16 83 10 220 -13 263 -34 67 -13 68 71 7z" transform="translate(0,82) scale(0.1,-0.1)" stroke="none" fill="#167F79"/>

</g>

<g id="1" transform="translate(60.0,0)scale(1,1)">

<path d="M260 722 c0 -5 8 -24 17 -43 12 -23 19 -68 23 -134 5 -97 5 -98 13 -45 8 55 -4 144 -25 183 -15 28 -3 31 34 9 55 -34 108 -97 123 -143 10 -31 14 -37 14 -20 1 41 -47 110 -111 157 -57 42 -88 54 -88 36z" transform="translate(0,82) scale(0.1,-0.1)" stroke="none" fill="#949271"/>

<path d="M449 418 c-8 -56 -66 -184 -110 -239 -32 -41 -95 -82 -141 -93 -16 -4 -28 -4 -28 -1 0 2 14 27 31 55 39 64 99 231 98 273 -1 31 -1 31 -10 -8 -24 -110 -79 -247 -115 -286 -8 -8 -14 -23 -14 -33 0 -15 6 -16 33 -11 54 12 103 42 143 88 70 79 128 209 122 270 -3 28 -4 25 -9 -15z" transform="translate(0,82) scale(0.1,-0.1)" stroke="none" fill="#949271"/>

<path d="M168 793 c-35 -5 -35 -14 2 -88 27 -54 30 -69 30 -160 0 -153 -44 -304 -124 -429 -20 -31 -36 -61 -36 -66 0 -15 17 -12 17 3 0 6 18 41 40 77 22 36 47 85 56 110 75 213 82 359 25 474 -16 32 -28 60 -25 62 9 10 99 6 129 -5 87 -33 181 -93 221 -140 80 -96 55 -266 -62 -425 -61 -83 -119 -122 -221 -151 -26 -8 -36 -14 -23 -14 12 -1 48 9 80 21 131 48 273 249 281 398 4 72 -8 127 -40 172 -25 36 -144 114 -220 144 -60 23 -75 25 -130 17z" transform="translate(0,82) scale(0.1,-0.1)" stroke="none" fill="#949271"/>

<path d="M188 782 c-21 -2 -38 -5 -38 -8 0 -2 13 -30 29 -62 37 -74 45 -161 27 -267 -27 -153 -65 -256 -131 -353 -13 -19 -21 -40 -18 -45 8 -14 139 -2 198 18 144 48 281 233 293 396 8 111 -23 168 -127 237 -97 65 -166 90 -233 84z m160 -96 c87 -64 114 -114 113 -211 -1 -183 -126 -369 -268 -400 -27 -5 -33 -4 -33 11 0 10 6 25 14 33 39 44 95 185 116 297 16 83 10 220 -13 263 -34 67 -13 68 71 7z" transform="translate(0,82) scale(0.1,-0.1)" stroke="none" fill="#167F79"/>

</g>

<g id="2" transform="translate(120.0,0)scale(1,1)">

<path d="M260 722 c0 -5 8 -24 17 -43 12 -23 19 -68 23 -134 5 -97 5 -98 13 -45 8 55 -4 144 -25 183 -15 28 -3 31 34 9 55 -34 108 -97 123 -143 10 -31 14 -37 14 -20 1 41 -47 110 -111 157 -57 42 -88 54 -88 36z" transform="translate(0,82) scale(0.1,-0.1)" stroke="none" fill="#949271"/>

<path d="M449 418 c-8 -56 -66 -184 -110 -239 -32 -41 -95 -82 -141 -93 -16 -4 -28 -4 -28 -1 0 2 14 27 31 55 39 64 99 231 98 273 -1 31 -1 31 -10 -8 -24 -110 -79 -247 -115 -286 -8 -8 -14 -23 -14 -33 0 -15 6 -16 33 -11 54 12 103 42 143 88 70 79 128 209 122 270 -3 28 -4 25 -9 -15z" transform="translate(0,82) scale(0.1,-0.1)" stroke="none" fill="#949271"/>

<path d="M168 793 c-35 -5 -35 -14 2 -88 27 -54 30 -69 30 -160 0 -153 -44 -304 -124 -429 -20 -31 -36 -61 -36 -66 0 -15 17 -12 17 3 0 6 18 41 40 77 22 36 47 85 56 110 75 213 82 359 25 474 -16 32 -28 60 -25 62 9 10 99 6 129 -5 87 -33 181 -93 221 -140 80 -96 55 -266 -62 -425 -61 -83 -119 -122 -221 -151 -26 -8 -36 -14 -23 -14 12 -1 48 9 80 21 131 48 273 249 281 398 4 72 -8 127 -40 172 -25 36 -144 114 -220 144 -60 23 -75 25 -130 17z" transform="translate(0,82) scale(0.1,-0.1)" stroke="none" fill="#949271"/>

<path d="M188 782 c-21 -2 -38 -5 -38 -8 0 -2 13 -30 29 -62 37 -74 45 -161 27 -267 -27 -153 -65 -256 -131 -353 -13 -19 -21 -40 -18 -45 8 -14 139 -2 198 18 144 48 281 233 293 396 8 111 -23 168 -127 237 -97 65 -166 90 -233 84z m160 -96 c87 -64 114 -114 113 -211 -1 -183 -126 -369 -268 -400 -27 -5 -33 -4 -33 11 0 10 6 25 14 33 39 44 95 185 116 297 16 83 10 220 -13 263 -34 67 -13 68 71 7z" transform="translate(0,82) scale(0.1,-0.1)" stroke="none" fill="#167F79"/>

</g>

<g id="3" transform="translate(180.0,0)scale(1,1)">

<path d="M260 722 c0 -5 8 -24 17 -43 12 -23 19 -68 23 -134 5 -97 5 -98 13 -45 8 55 -4 144 -25 183 -15 28 -3 31 34 9 55 -34 108 -97 123 -143 10 -31 14 -37 14 -20 1 41 -47 110 -111 157 -57 42 -88 54 -88 36z" transform="translate(0,82) scale(0.1,-0.1)" stroke="none" fill="#949271"/>

<path d="M449 418 c-8 -56 -66 -184 -110 -239 -32 -41 -95 -82 -141 -93 -16 -4 -28 -4 -28 -1 0 2 14 27 31 55 39 64 99 231 98 273 -1 31 -1 31 -10 -8 -24 -110 -79 -247 -115 -286 -8 -8 -14 -23 -14 -33 0 -15 6 -16 33 -11 54 12 103 42 143 88 70 79 128 209 122 270 -3 28 -4 25 -9 -15z" transform="translate(0,82) scale(0.1,-0.1)" stroke="none" fill="#949271"/>

<path d="M168 793 c-35 -5 -35 -14 2 -88 27 -54 30 -69 30 -160 0 -153 -44 -304 -124 -429 -20 -31 -36 -61 -36 -66 0 -15 17 -12 17 3 0 6 18 41 40 77 22 36 47 85 56 110 75 213 82 359 25 474 -16 32 -28 60 -25 62 9 10 99 6 129 -5 87 -33 181 -93 221 -140 80 -96 55 -266 -62 -425 -61 -83 -119 -122 -221 -151 -26 -8 -36 -14 -23 -14 12 -1 48 9 80 21 131 48 273 249 281 398 4 72 -8 127 -40 172 -25 36 -144 114 -220 144 -60 23 -75 25 -130 17z" transform="translate(0,82) scale(0.1,-0.1)" stroke="none" fill="#949271"/>

<path d="M188 782 c-21 -2 -38 -5 -38 -8 0 -2 13 -30 29 -62 37 -74 45 -161 27 -267 -27 -153 -65 -256 -131 -353 -13 -19 -21 -40 -18 -45 8 -14 139 -2 198 18 144 48 281 233 293 396 8 111 -23 168 -127 237 -97 65 -166 90 -233 84z m160 -96 c87 -64 114 -114 113 -211 -1 -183 -126 -369 -268 -400 -27 -5 -33 -4 -33 11 0 10 6 25 14 33 39 44 95 185 116 297 16 83 10 220 -13 263 -34 67 -13 68 71 7z" transform="translate(0,82) scale(0.1,-0.1)" stroke="none" fill="#167F79"/>

</g>

<g id="4" transform="translate(240.0,0)scale(1,1)">

<path d="M260 722 c0 -5 8 -24 17 -43 12 -23 19 -68 23 -134 5 -97 5 -98 13 -45 8 55 -4 144 -25 183 -15 28 -3 31 34 9 55 -34 108 -97 123 -143 10 -31 14 -37 14 -20 1 41 -47 110 -111 157 -57 42 -88 54 -88 36z" transform="translate(0,82) scale(0.1,-0.1)" stroke="none" fill="#949271"/>

<path d="M449 418 c-8 -56 -66 -184 -110 -239 -32 -41 -95 -82 -141 -93 -16 -4 -28 -4 -28 -1 0 2 14 27 31 55 39 64 99 231 98 273 -1 31 -1 31 -10 -8 -24 -110 -79 -247 -115 -286 -8 -8 -14 -23 -14 -33 0 -15 6 -16 33 -11 54 12 103 42 143 88 70 79 128 209 122 270 -3 28 -4 25 -9 -15z" transform="translate(0,82) scale(0.1,-0.1)" stroke="none" fill="#949271"/>

<path d="M168 793 c-35 -5 -35 -14 2 -88 27 -54 30 -69 30 -160 0 -153 -44 -304 -124 -429 -20 -31 -36 -61 -36 -66 0 -15 17 -12 17 3 0 6 18 41 40 77 22 36 47 85 56 110 75 213 82 359 25 474 -16 32 -28 60 -25 62 9 10 99 6 129 -5 87 -33 181 -93 221 -140 80 -96 55 -266 -62 -425 -61 -83 -119 -122 -221 -151 -26 -8 -36 -14 -23 -14 12 -1 48 9 80 21 131 48 273 249 281 398 4 72 -8 127 -40 172 -25 36 -144 114 -220 144 -60 23 -75 25 -130 17z" transform="translate(0,82) scale(0.1,-0.1)" stroke="none" fill="#949271"/>

<path d="M188 782 c-21 -2 -38 -5 -38 -8 0 -2 13 -30 29 -62 37 -74 45 -161 27 -267 -27 -153 -65 -256 -131 -353 -13 -19 -21 -40 -18 -45 8 -14 139 -2 198 18 144 48 281 233 293 396 8 111 -23 168 -127 237 -97 65 -166 90 -233 84z m160 -96 c87 -64 114 -114 113 -211 -1 -183 -126 -369 -268 -400 -27 -5 -33 -4 -33 11 0 10 6 25 14 33 39 44 95 185 116 297 16 83 10 220 -13 263 -34 67 -13 68 71 7z" transform="translate(0,82) scale(0.1,-0.1)" stroke="none" fill="#167F79"/>

</g>

</g>
<g id="row3" transform="translate(8,246.0)">
<g id="0" transform="translate(0.0,0)scale(1,1)">

<path d="M260 722 c0 -5 8 -24 17 -43 12 -23 19 -68 23 -134 5 -97 5 -98 13 -45 8 55 -4 144 -25 183 -15 28 -3 31 34 9 55 -34 108 -97 123 -143 10 -31 14 -37 14 -20 1 41 -47 110 -111 157 -57 42 -88 54 -88 36z" transform="translate(0,82) scale(0.1,-0.1)" stroke="none" fill="#949271"/>

<path d="M449 418 c-8 -56 -66 -184 -110 -239 -32 -41 -95 -82 -141 -93 -16 -4 -28 -4 -28 -1 0 2 14 27 31 55 39 64 99 231 98 273 -1 31 -1 31 -10 -8 -24 -110 -79 -247 -115 -286 -8 -8 -14 -23 -14 -33 0 -15 6 -16 33 -11 54 12 103 42 143 88 70 79 128 209 122 270 -3 28 -4 25 -9 -15z" transform="translate(0,82) scale(0.1,-0.1)" stroke="none" fill="#949271"/>

<path d="M168 793 c-35 -5 -35 -14 2 -88 27 -54 30 -69 30 -160 0 -153 -44 -304 -124 -429 -20 -31 -36 -61 -36 -66 0 -15 17 -12 17 3 0 6 18 41 40 77 22 36 47 85 56 110 75 213 82 359 25 474 -16 32 -28 60 -25 62 9 10 99 6 129 -5 87 -33 181 -93 221 -140 80 -96 55 -266 -62 -425 -61 -83 -119 -122 -221 -151 -26 -8 -36 -14 -23 -14 12 -1 48 9 80 21 131 48 273 249 281 398 4 72 -8 127 -40 172 -25 36 -144 114 -220 144 -60 23 -75 25 -130 17z" transform="translate(0,82) scale(0.1,-0.1)" stroke="none" fill="#949271"/>

<path d="M188 782 c-21 -2 -38 -5 -38 -8 0 -2 13 -30 29 -62 37 -74 45 -161 27 -267 -27 -153 -65 -256 -131 -353 -13 -19 -21 -40 -18 -45 8 -14 139 -2 198 18 144 48 281 233 293 396 8 111 -23 168 -127 237 -97 65 -166 90 -233 84z m160 -96 c87 -64 114 -114 113 -211 -1 -183 -126 -369 -268 -400 -27 -5 -33 -4 -33 11 0 10 6 25 14 33 39 44 95 185 116 297 16 83 10 220 -13 263 -34 67 -13 68 71 7z" transform="translate(0,82) scale(0.1,-0.1)" stroke="none" fill="#167F79"/>

</g>

<g id="1" transform="translate(60.0,0)scale(1,1)">

<path d="M260 722 c0 -5 8 -24 17 -43 12 -23 19 -68 23 -134 5 -97 5 -98 13 -45 8 55 -4 144 -25 183 -15 28 -3 31 34 9 55 -34 108 -97 123 -143 10 -31 14 -37 14 -20 1 41 -47 110 -111 157 -57 42 -88 54 -88 36z" transform="translate(0,82) scale(0.1,-0.1)" stroke="none" fill="#949271"/>

<path d="M449 418 c-8 -56 -66 -184 -110 -239 -32 -41 -95 -82 -141 -93 -16 -4 -28 -4 -28 -1 0 2 14 27 31 55 39 64 99 231 98 273 -1 31 -1 31 -10 -8 -24 -110 -79 -247 -115 -286 -8 -8 -14 -23 -14 -33 0 -15 6 -16 33 -11 54 12 103 42 143 88 70 79 128 209 122 270 -3 28 -4 25 -9 -15z" transform="translate(0,82) scale(0.1,-0.1)" stroke="none" fill="#949271"/>

<path d="M168 793 c-35 -5 -35 -14 2 -88 27 -54 30 -69 30 -160 0 -153 -44 -304 -124 -429 -20 -31 -36 -61 -36 -66 0 -15 17 -12 17 3 0 6 18 41 40 77 22 36 47 85 56 110 75 213 82 359 25 474 -16 32 -28 60 -25 62 9 10 99 6 129 -5 87 -33 181 -93 221 -140 80 -96 55 -266 -62 -425 -61 -83 -119 -122 -221 -151 -26 -8 -36 -14 -23 -14 12 -1 48 9 80 21 131 48 273 249 281 398 4 72 -8 127 -40 172 -25 36 -144 114 -220 144 -60 23 -75 25 -130 17z" transform="translate(0,82) scale(0.1,-0.1)" stroke="none" fill="#949271"/>

<path d="M188 782 c-21 -2 -38 -5 -38 -8 0 -2 13 -30 29 -62 37 -74 45 -161 27 -267 -27 -153 -65 -256 -131 -353 -13 -19 -21 -40 -18 -45 8 -14 139 -2 198 18 144 48 281 233 293 396 8 111 -23 168 -127 237 -97 65 -166 90 -233 84z m160 -96 c87 -64 114 -114 113 -211 -1 -183 -126 -369 -268 -400 -27 -5 -33 -4 -33 11 0 10 6 25 14 33 39 44 95 185 116 297 16 83 10 220 -13 263 -34 67 -13 68 71 7z" transform="translate(0,82) scale(0.1,-0.1)" stroke="none" fill="#167F79"/>

</g>

<g id="2" transform="translate(120.0,0)scale(1,1)">

<path d="M260 722 c0 -5 8 -24 17 -43 12 -23 19 -68 23 -134 5 -97 5 -98 13 -45 8 55 -4 144 -25 183 -15 28 -3 31 34 9 55 -34 108 -97 123 -143 10 -31 14 -37 14 -20 1 41 -47 110 -111 157 -57 42 -88 54 -88 36z" transform="translate(0,82) scale(0.1,-0.1)" stroke="none" fill="#949271"/>

<path d="M449 418 c-8 -56 -66 -184 -110 -239 -32 -41 -95 -82 -141 -93 -16 -4 -28 -4 -28 -1 0 2 14 27 31 55 39 64 99 231 98 273 -1 31 -1 31 -10 -8 -24 -110 -79 -247 -115 -286 -8 -8 -14 -23 -14 -33 0 -15 6 -16 33 -11 54 12 103 42 143 88 70 79 128 209 122 270 -3 28 -4 25 -9 -15z" transform="translate(0,82) scale(0.1,-0.1)" stroke="none" fill="#949271"/>

<path d="M168 793 c-35 -5 -35 -14 2 -88 27 -54 30 -69 30 -160 0 -153 -44 -304 -124 -429 -20 -31 -36 -61 -36 -66 0 -15 17 -12 17 3 0 6 18 41 40 77 22 36 47 85 56 110 75 213 82 359 25 474 -16 32 -28 60 -25 62 9 10 99 6 129 -5 87 -33 181 -93 221 -140 80 -96 55 -266 -62 -425 -61 -83 -119 -122 -221 -151 -26 -8 -36 -14 -23 -14 12 -1 48 9 80 21 131 48 273 249 281 398 4 72 -8 127 -40 172 -25 36 -144 114 -220 144 -60 23 -75 25 -130 17z" transform="translate(0,82) scale(0.1,-0.1)" stroke="none" fill="#949271"/>

<path d="M188 782 c-21 -2 -38 -5 -38 -8 0 -2 13 -30 29 -62 37 -74 45 -161 27 -267 -27 -153 -65 -256 -131 -353 -13 -19 -21 -40 -18 -45 8 -14 139 -2 198 18 144 48 281 233 293 396 8 111 -23 168 -127 237 -97 65 -166 90 -233 84z m160 -96 c87 -64 114 -114 113 -211 -1 -183 -126 -369 -268 -400 -27 -5 -33 -4 -33 11 0 10 6 25 14 33 39 44 95 185 116 297 16 83 10 220 -13 263 -34 67 -13 68 71 7z" transform="translate(0,82) scale(0.1,-0.1)" stroke="none" fill="#167F79"/>

</g>

<g id="3" transform="translate(180.0,0)scale(1,1)">

<path d="M260 722 c0 -5 8 -24 17 -43 12 -23 19 -68 23 -134 5 -97 5 -98 13 -45 8 55 -4 144 -25 183 -15 28 -3 31 34 9 55 -34 108 -97 123 -143 10 -31 14 -37 14 -20 1 41 -47 110 -111 157 -57 42 -88 54 -88 36z" transform="translate(0,82) scale(0.1,-0.1)" stroke="none" fill="#949271"/>

<path d="M449 418 c-8 -56 -66 -184 -110 -239 -32 -41 -95 -82 -141 -93 -16 -4 -28 -4 -28 -1 0 2 14 27 31 55 39 64 99 231 98 273 -1 31 -1 31 -10 -8 -24 -110 -79 -247 -115 -286 -8 -8 -14 -23 -14 -33 0 -15 6 -16 33 -11 54 12 103 42 143 88 70 79 128 209 122 270 -3 28 -4 25 -9 -15z" transform="translate(0,82) scale(0.1,-0.1)" stroke="none" fill="#949271"/>

<path d="M168 793 c-35 -5 -35 -14 2 -88 27 -54 30 -69 30 -160 0 -153 -44 -304 -124 -429 -20 -31 -36 -61 -36 -66 0 -15 17 -12 17 3 0 6 18 41 40 77 22 36 47 85 56 110 75 213 82 359 25 474 -16 32 -28 60 -25 62 9 10 99 6 129 -5 87 -33 181 -93 221 -140 80 -96 55 -266 -62 -425 -61 -83 -119 -122 -221 -151 -26 -8 -36 -14 -23 -14 12 -1 48 9 80 21 131 48 273 249 281 398 4 72 -8 127 -40 172 -25 36 -144 114 -220 144 -60 23 -75 25 -130 17z" transform="translate(0,82) scale(0.1,-0.1)" stroke="none" fill="#949271"/>

<path d="M188 782 c-21 -2 -38 -5 -38 -8 0 -2 13 -30 29 -62 37 -74 45 -161 27 -267 -27 -153 -65 -256 -131 -353 -13 -19 -21 -40 -18 -45 8 -14 139 -2 198 18 144 48 281 233 293 396 8 111 -23 168 -127 237 -97 65 -166 90 -233 84z m160 -96 c87 -64 114 -114 113 -211 -1 -183 -126 -369 -268 -400 -27 -5 -33 -4 -33 11 0 10 6 25 14 33 39 44 95 185 116 297 16 83 10 220 -13 263 -34 67 -13 68 71 7z" transform="translate(0,82) scale(0.1,-0.1)" stroke="none" fill="#167F79"/>

</g>

<g id="4" transform="translate(240.0,0)scale(1,1)">

<path d="M260 722 c0 -5 8 -24 17 -43 12 -23 19 -68 23 -134 5 -97 5 -98 13 -45 8 55 -4 144 -25 183 -15 28 -3 31 34 9 55 -34 108 -97 123 -143 10 -31 14 -37 14 -20 1 41 -47 110 -111 157 -57 42 -88 54 -88 36z" transform="translate(0,82) scale(0.1,-0.1)" stroke="none" fill="#949271"/>

<path d="M449 418 c-8 -56 -66 -184 -110 -239 -32 -41 -95 -82 -141 -93 -16 -4 -28 -4 -28 -1 0 2 14 27 31 55 39 64 99 231 98 273 -1 31 -1 31 -10 -8 -24 -110 -79 -247 -115 -286 -8 -8 -14 -23 -14 -33 0 -15 6 -16 33 -11 54 12 103 42 143 88 70 79 128 209 122 270 -3 28 -4 25 -9 -15z" transform="translate(0,82) scale(0.1,-0.1)" stroke="none" fill="#949271"/>

<path d="M168 793 c-35 -5 -35 -14 2 -88 27 -54 30 -69 30 -160 0 -153 -44 -304 -124 -429 -20 -31 -36 -61 -36 -66 0 -15 17 -12 17 3 0 6 18 41 40 77 22 36 47 85 56 110 75 213 82 359 25 474 -16 32 -28 60 -25 62 9 10 99 6 129 -5 87 -33 181 -93 221 -140 80 -96 55 -266 -62 -425 -61 -83 -119 -122 -221 -151 -26 -8 -36 -14 -23 -14 12 -1 48 9 80 21 131 48 273 249 281 398 4 72 -8 127 -40 172 -25 36 -144 114 -220 144 -60 23 -75 25 -130 17z" transform="translate(0,82) scale(0.1,-0.1)" stroke="none" fill="#949271"/>

<path d="M188 782 c-21 -2 -38 -5 -38 -8 0 -2 13 -30 29 -62 37 -74 45 -161 27 -267 -27 -153 -65 -256 -131 -353 -13 -19 -21 -40 -18 -45 8 -14 139 -2 198 18 144 48 281 233 293 396 8 111 -23 168 -127 237 -97 65 -166 90 -233 84z m160 -96 c87 -64 114 -114 113 -211 -1 -183 -126 -369 -268 -400 -27 -5 -33 -4 -33 11 0 10 6 25 14 33 39 44 95 185 116 297 16 83 10 220 -13 263 -34 67 -13 68 71 7z" transform="translate(0,82) scale(0.1,-0.1)" stroke="none" fill="#167F79"/>

</g>

</g>
</svg>