<?xml version="1.0" standalone="no"?>
<!DOCTYPE svg PUBLIC "-//W3C//DTD SVG 20010904//EN"
 "http://www.w3.org/TR/2001/REC-SVG-20010904/DTD/svg10.dtd">
<svg version="1.0" xmlns="http://www.w3.org/2000/svg" width="800pt" height="860pt" viewBox="0 0 800 860" preserveAspectRatio = "xMidYMid meet" >
<metadata>
Created by ZoeQu, written in 2022
</metadata>
<rect width="800" height="860" fill="#A49E98"/>
<g id="row0" transform="translate(26,0.0)">
<g id="0" transform="translate(0.0,0)scale(1,1)">

<path d="M1511 2046 c-25 -9 -49 -9 -89 -2 -90 16 -278 -15 -540 -90 -187 -53 -356 -156 -507 -308 -83 -84 -154 -180 -142 -193 3 -3 14 12 25 33 11 21 46 68 78 104 51 57 94 95 216 193 126 101 399 195 701 242 77 12 113 13 165 5 50 -8 78 -8 110 1 55 15 118 6 147 -21 12 -12 28 -41 35 -66 7 -24 19 -49 26 -55 8 -6 14 -18 14 -25 0 -8 9 -22 20 -31 11 -10 20 -23 20 -31 0 -7 6 -23 14 -35 21 -33 67 -199 65 -233 -2 -16 4 -42 13 -59 28 -56 8 -203 -54 -395 -11 -36 -28 -81 -38 -100 -10 -19 -34 -70 -55 -112 -21 -43 -41 -78 -46 -78 -4 0 -11 -10 -15 -22 -9 -31 -113 -157 -171 -208 -103 -91 -349 -229 -436 -245 -20 -4 -40 -11 -43 -16 -3 -5 -16 -9 -29 -9 -13 0 -30 -6 -37 -13 -7 -7 -58 -29 -113 -49 -76 -27 -114 -35 -158 -33 -44 1 -57 -1 -53 -11 3 -8 0 -11 -9 -8 -8 3 -20 2 -26 -2 -7 -4 -45 -8 -83 -9 -39 -2 -87 -9 -107 -18 -20 -8 -54 -18 -75 -21 -51 -9 -82 14 -119 87 -23 44 -26 47 -20 18 23 -112 125 -161 214 -102 18 12 60 18 156 22 121 6 139 10 256 52 69 24 139 51 155 59 16 9 70 30 119 48 177 63 338 163 456 281 178 178 313 457 352 727 9 64 7 94 -13 215 -13 78 -28 148 -33 155 -5 7 -7 15 -4 18 7 7 -48 120 -63 129 -10 6 -59 105 -81 163 -6 18 -24 39 -40 47 -34 18 -111 18 -158 1z" transform="translate(0,215) scale(0.1,-0.1)" stroke="none" fill="#696959"/>

<path d="M1245 2025 c-304 -50 -570 -143 -693 -242 -122 -98 -165 -136 -215 -192 -67 -76 -86 -108 -149 -251 -53 -121 -73 -195 -89 -335 -24 -208 7 -439 77 -565 22 -39 24 -52 18 -107 -6 -56 -3 -69 20 -118 37 -74 68 -98 120 -89 21 3 55 13 75 21 20 9 68 17 106 18 39 1 78 6 87 10 9 4 22 4 27 0 6 -3 8 0 5 8 -4 11 7 13 53 12 44 -2 82 6 158 33 55 20 106 42 113 49 7 7 24 13 37 13 13 0 26 4 29 9 3 5 23 12 43 16 87 16 333 154 436 245 58 51 162 177 171 208 4 12 11 22 15 22 5 0 25 35 46 77 21 43 45 94 55 113 10 19 27 64 38 100 62 192 82 339 54 395 -9 17 -15 43 -13 59 2 34 -44 200 -65 233 -8 12 -14 28 -14 35 0 8 -9 21 -20 31 -11 9 -20 23 -20 31 0 7 -6 19 -14 25 -7 6 -19 31 -26 55 -7 25 -23 55 -37 68 -25 24 -38 25 -190 16 -21 -1 -65 0 -98 4 -35 4 -93 1 -140 -7z m-15 -244 c0 -11 -9 -23 -21 -26 -27 -9 -33 -1 -19 24 14 26 40 27 40 2z m184 10 c3 -4 3 -11 0 -14 -8 -8 -34 3 -34 14 0 11 27 12 34 0z m-414 -31 c0 -5 -4 -10 -10 -10 -5 0 -10 5 -10 10 0 6 5 10 10 10 6 0 10 -4 10 -10z m306 -88 c-3 -5 -15 -12 -26 -15 -23 -6 -28 21 -8 41 10 10 15 9 26 -2 8 -8 12 -18 8 -24z m-191 -8 c0 -10 -8 -20 -18 -22 -22 -4 -35 27 -16 39 20 12 34 5 34 -17z m263 -96 c-3 -7 -11 -13 -18 -13 -7 0 -15 6 -17 13 -3 7 4 12 17 12 13 0 20 -5 18 -12z m-428 -18 c0 -5 -7 -10 -15 -10 -8 0 -15 5 -15 10 0 6 7 10 15 10 8 0 15 -4 15 -10z m246 -29 c-9 -13 -43 -15 -51 -2 -3 5 2 17 11 26 15 14 19 15 32 2 8 -8 11 -20 8 -26z" transform="translate(0,215) scale(0.1,-0.1)" stroke="none" fill="#C0CCC8"/>

</g>

<g id="1" transform="translate(200.0,0)scale(1,1)">

<path d="M1511 2046 c-25 -9 -49 -9 -89 -2 -90 16 -278 -15 -540 -90 -187 -53 -356 -156 -507 -308 -83 -84 -154 -180 -142 -193 3 -3 14 12 25 33 11 21 46 68 78 104 51 57 94 95 216 193 126 101 399 195 701 242 77 12 113 13 165 5 50 -8 78 -8 110 1 55 15 118 6 147 -21 12 -12 28 -41 35 -66 7 -24 19 -49 26 -55 8 -6 14 -18 14 -25 0 -8 9 -22 20 -31 11 -10 20 -23 20 -31 0 -7 6 -23 14 -35 21 -33 67 -199 65 -233 -2 -16 4 -42 13 -59 28 -56 8 -203 -54 -395 -11 -36 -28 -81 -38 -100 -10 -19 -34 -70 -55 -112 -21 -43 -41 -78 -46 -78 -4 0 -11 -10 -15 -22 -9 -31 -113 -157 -171 -208 -103 -91 -349 -229 -436 -245 -20 -4 -40 -11 -43 -16 -3 -5 -16 -9 -29 -9 -13 0 -30 -6 -37 -13 -7 -7 -58 -29 -113 -49 -76 -27 -114 -35 -158 -33 -44 1 -57 -1 -53 -11 3 -8 0 -11 -9 -8 -8 3 -20 2 -26 -2 -7 -4 -45 -8 -83 -9 -39 -2 -87 -9 -107 -18 -20 -8 -54 -18 -75 -21 -51 -9 -82 14 -119 87 -23 44 -26 47 -20 18 23 -112 125 -161 214 -102 18 12 60 18 156 22 121 6 139 10 256 52 69 24 139 51 155 59 16 9 70 30 119 48 177 63 338 163 456 281 178 178 313 457 352 727 9 64 7 94 -13 215 -13 78 -28 148 -33 155 -5 7 -7 15 -4 18 7 7 -48 120 -63 129 -10 6 -59 105 -81 163 -6 18 -24 39 -40 47 -34 18 -111 18 -158 1z" transform="translate(0,215) scale(0.1,-0.1)" stroke="none" fill="#696959"/>

<path d="M1245 2025 c-304 -50 -570 -143 -693 -242 -122 -98 -165 -136 -215 -192 -67 -76 -86 -108 -149 -251 -53 -121 -73 -195 -89 -335 -24 -208 7 -439 77 -565 22 -39 24 -52 18 -107 -6 -56 -3 -69 20 -118 37 -74 68 -98 120 -89 21 3 55 13 75 21 20 9 68 17 106 18 39 1 78 6 87 10 9 4 22 4 27 0 6 -3 8 0 5 8 -4 11 7 13 53 12 44 -2 82 6 158 33 55 20 106 42 113 49 7 7 24 13 37 13 13 0 26 4 29 9 3 5 23 12 43 16 87 16 333 154 436 245 58 51 162 177 171 208 4 12 11 22 15 22 5 0 25 35 46 77 21 43 45 94 55 113 10 19 27 64 38 100 62 192 82 339 54 395 -9 17 -15 43 -13 59 2 34 -44 200 -65 233 -8 12 -14 28 -14 35 0 8 -9 21 -20 31 -11 9 -20 23 -20 31 0 7 -6 19 -14 25 -7 6 -19 31 -26 55 -7 25 -23 55 -37 68 -25 24 -38 25 -190 16 -21 -1 -65 0 -98 4 -35 4 -93 1 -140 -7z m-15 -244 c0 -11 -9 -23 -21 -26 -27 -9 -33 -1 -19 24 14 26 40 27 40 2z m184 10 c3 -4 3 -11 0 -14 -8 -8 -34 3 -34 14 0 11 27 12 34 0z m-414 -31 c0 -5 -4 -10 -10 -10 -5 0 -10 5 -10 10 0 6 5 10 10 10 6 0 10 -4 10 -10z m306 -88 c-3 -5 -15 -12 -26 -15 -23 -6 -28 21 -8 41 10 10 15 9 26 -2 8 -8 12 -18 8 -24z m-191 -8 c0 -10 -8 -20 -18 -22 -22 -4 -35 27 -16 39 20 12 34 5 34 -17z m263 -96 c-3 -7 -11 -13 -18 -13 -7 0 -15 6 -17 13 -3 7 4 12 17 12 13 0 20 -5 18 -12z m-428 -18 c0 -5 -7 -10 -15 -10 -8 0 -15 5 -15 10 0 6 7 10 15 10 8 0 15 -4 15 -10z m246 -29 c-9 -13 -43 -15 -51 -2 -3 5 2 17 11 26 15 14 19 15 32 2 8 -8 11 -20 8 -26z" transform="translate(0,215) scale(0.1,-0.1)" stroke="none" fill="#C0CCC8"/>

</g>

<g id="2" transform="translate(400.0,0)scale(1,1)">

<path d="M1511 2046 c-25 -9 -49 -9 -89 -2 -90 16 -278 -15 -540 -90 -187 -53 -356 -156 -507 -308 -83 -84 -154 -180 -142 -193 3 -3 14 12 25 33 11 21 46 68 78 104 51 57 94 95 216 193 126 101 399 195 701 242 77 12 113 13 165 5 50 -8 78 -8 110 1 55 15 118 6 147 -21 12 -12 28 -41 35 -66 7 -24 19 -49 26 -55 8 -6 14 -18 14 -25 0 -8 9 -22 20 -31 11 -10 20 -23 20 -31 0 -7 6 -23 14 -35 21 -33 67 -199 65 -233 -2 -16 4 -42 13 -59 28 -56 8 -203 -54 -395 -11 -36 -28 -81 -38 -100 -10 -19 -34 -70 -55 -112 -21 -43 -41 -78 -46 -78 -4 0 -11 -10 -15 -22 -9 -31 -113 -157 -171 -208 -103 -91 -349 -229 -436 -245 -20 -4 -40 -11 -43 -16 -3 -5 -16 -9 -29 -9 -13 0 -30 -6 -37 -13 -7 -7 -58 -29 -113 -49 -76 -27 -114 -35 -158 -33 -44 1 -57 -1 -53 -11 3 -8 0 -11 -9 -8 -8 3 -20 2 -26 -2 -7 -4 -45 -8 -83 -9 -39 -2 -87 -9 -107 -18 -20 -8 -54 -18 -75 -21 -51 -9 -82 14 -119 87 -23 44 -26 47 -20 18 23 -112 125 -161 214 -102 18 12 60 18 156 22 121 6 139 10 256 52 69 24 139 51 155 59 16 9 70 30 119 48 177 63 338 163 456 281 178 178 313 457 352 727 9 64 7 94 -13 215 -13 78 -28 148 -33 155 -5 7 -7 15 -4 18 7 7 -48 120 -63 129 -10 6 -59 105 -81 163 -6 18 -24 39 -40 47 -34 18 -111 18 -158 1z" transform="translate(0,215) scale(0.1,-0.1)" stroke="none" fill="#696959"/>

<path d="M1245 2025 c-304 -50 -570 -143 -693 -242 -122 -98 -165 -136 -215 -192 -67 -76 -86 -108 -149 -251 -53 -121 -73 -195 -89 -335 -24 -208 7 -439 77 -565 22 -39 24 -52 18 -107 -6 -56 -3 -69 20 -118 37 -74 68 -98 120 -89 21 3 55 13 75 21 20 9 68 17 106 18 39 1 78 6 87 10 9 4 22 4 27 0 6 -3 8 0 5 8 -4 11 7 13 53 12 44 -2 82 6 158 33 55 20 106 42 113 49 7 7 24 13 37 13 13 0 26 4 29 9 3 5 23 12 43 16 87 16 333 154 436 245 58 51 162 177 171 208 4 12 11 22 15 22 5 0 25 35 46 77 21 43 45 94 55 113 10 19 27 64 38 100 62 192 82 339 54 395 -9 17 -15 43 -13 59 2 34 -44 200 -65 233 -8 12 -14 28 -14 35 0 8 -9 21 -20 31 -11 9 -20 23 -20 31 0 7 -6 19 -14 25 -7 6 -19 31 -26 55 -7 25 -23 55 -37 68 -25 24 -38 25 -190 16 -21 -1 -65 0 -98 4 -35 4 -93 1 -140 -7z m-15 -244 c0 -11 -9 -23 -21 -26 -27 -9 -33 -1 -19 24 14 26 40 27 40 2z m184 10 c3 -4 3 -11 0 -14 -8 -8 -34 3 -34 14 0 11 27 12 34 0z m-414 -31 c0 -5 -4 -10 -10 -10 -5 0 -10 5 -10 10 0 6 5 10 10 10 6 0 10 -4 10 -10z m306 -88 c-3 -5 -15 -12 -26 -15 -23 -6 -28 21 -8 41 10 10 15 9 26 -2 8 -8 12 -18 8 -24z m-191 -8 c0 -10 -8 -20 -18 -22 -22 -4 -35 27 -16 39 20 12 34 5 34 -17z m263 -96 c-3 -7 -11 -13 -18 -13 -7 0 -15 6 -17 13 -3 7 4 12 17 12 13 0 20 -5 18 -12z m-428 -18 c0 -5 -7 -10 -15 -10 -8 0 -15 5 -15 10 0 6 7 10 15 10 8 0 15 -4 15 -10z m246 -29 c-9 -13 -43 -15 -51 -2 -3 5 2 17 11 26 15 14 19 15 32 2 8 -8 11 -20 8 -26z" transform="translate(0,215) scale(0.1,-0.1)" stroke="none" fill="#C0CCC8"/>

</g>

<g id="3" transform="translate(600.0,0)scale(1,1)">

<path d="M1511 2046 c-25 -9 -49 -9 -89 -2 -90 16 -278 -15 -540 -90 -187 -53 -356 -156 -507 -308 -83 -84 -154 -180 -142 -193 3 -3 14 12 25 33 11 21 46 68 78 104 51 57 94 95 216 193 126 101 399 195 701 242 77 12 113 13 165 5 50 -8 78 -8 110 1 55 15 118 6 147 -21 12 -12 28 -41 35 -66 7 -24 19 -49 26 -55 8 -6 14 -18 14 -25 0 -8 9 -22 20 -31 11 -10 20 -23 20 -31 0 -7 6 -23 14 -35 21 -33 67 -199 65 -233 -2 -16 4 -42 13 -59 28 -56 8 -203 -54 -395 -11 -36 -28 -81 -38 -100 -10 -19 -34 -70 -55 -112 -21 -43 -41 -78 -46 -78 -4 0 -11 -10 -15 -22 -9 -31 -113 -157 -171 -208 -103 -91 -349 -229 -436 -245 -20 -4 -40 -11 -43 -16 -3 -5 -16 -9 -29 -9 -13 0 -30 -6 -37 -13 -7 -7 -58 -29 -113 -49 -76 -27 -114 -35 -158 -33 -44 1 -57 -1 -53 -11 3 -8 0 -11 -9 -8 -8 3 -20 2 -26 -2 -7 -4 -45 -8 -83 -9 -39 -2 -87 -9 -107 -18 -20 -8 -54 -18 -75 -21 -51 -9 -82 14 -119 87 -23 44 -26 47 -20 18 23 -112 125 -161 214 -102 18 12 60 18 156 22 121 6 139 10 256 52 69 24 139 51 155 59 16 9 70 30 119 48 177 63 338 163 456 281 178 178 313 457 352 727 9 64 7 94 -13 215 -13 78 -28 148 -33 155 -5 7 -7 15 -4 18 7 7 -48 120 -63 129 -10 6 -59 105 -81 163 -6 18 -24 39 -40 47 -34 18 -111 18 -158 1z" transform="translate(0,215) scale(0.1,-0.1)" stroke="none" fill="#696959"/>

<path d="M1245 2025 c-304 -50 -570 -143 -693 -242 -122 -98 -165 -136 -215 -192 -67 -76 -86 -108 -149 -251 -53 -121 -73 -195 -89 -335 -24 -208 7 -439 77 -565 22 -39 24 -52 18 -107 -6 -56 -3 -69 20 -118 37 -74 68 -98 120 -89 21 3 55 13 75 21 20 9 68 17 106 18 39 1 78 6 87 10 9 4 22 4 27 0 6 -3 8 0 5 8 -4 11 7 13 53 12 44 -2 82 6 158 33 55 20 106 42 113 49 7 7 24 13 37 13 13 0 26 4 29 9 3 5 23 12 43 16 87 16 333 154 436 245 58 51 162 177 171 208 4 12 11 22 15 22 5 0 25 35 46 77 21 43 45 94 55 113 10 19 27 64 38 100 62 192 82 339 54 395 -9 17 -15 43 -13 59 2 34 -44 200 -65 233 -8 12 -14 28 -14 35 0 8 -9 21 -20 31 -11 9 -20 23 -20 31 0 7 -6 19 -14 25 -7 6 -19 31 -26 55 -7 25 -23 55 -37 68 -25 24 -38 25 -190 16 -21 -1 -65 0 -98 4 -35 4 -93 1 -140 -7z m-15 -244 c0 -11 -9 -23 -21 -26 -27 -9 -33 -1 -19 24 14 26 40 27 40 2z m184 10 c3 -4 3 -11 0 -14 -8 -8 -34 3 -34 14 0 11 27 12 34 0z m-414 -31 c0 -5 -4 -10 -10 -10 -5 0 -10 5 -10 10 0 6 5 10 10 10 6 0 10 -4 10 -10z m306 -88 c-3 -5 -15 -12 -26 -15 -23 -6 -28 21 -8 41 10 10 15 9 26 -2 8 -8 12 -18 8 -24z m-191 -8 c0 -10 -8 -20 -18 -22 -22 -4 -35 27 -16 39 20 12 34 5 34 -17z m263 -96 c-3 -7 -11 -13 -18 -13 -7 0 -15 6 -17 13 -3 7 4 12 17 12 13 0 20 -5 18 -12z m-428 -18 c0 -5 -7 -10 -15 -10 -8 0 -15 5 -15 10 0 6 7 10 15 10 8 0 15 -4 15 -10z m246 -29 c-9 -13 -43 -15 -51 -2 -3 5 2 17 11 26 15 14 19 15 32 2 8 -8 11 -20 8 -26z" transform="translate(0,215) scale(0.1,-0.1)" stroke="none" fill="#C0CCC8"/>

</g>

<g id="4" transform="translate(800.0,0)scale(1,1)">

<path d="M1511 2046 c-25 -9 -49 -9 -89 -2 -90 16 -278 -15 -540 -90 -187 -53 -356 -156 -507 -308 -83 -84 -154 -180 -142 -193 3 -3 14 12 25 33 11 21 46 68 78 104 51 57 94 95 216 193 126 101 399 195 701 242 77 12 113 13 165 5 50 -8 78 -8 110 1 55 15 118 6 147 -21 12 -12 28 -41 35 -66 7 -24 19 -49 26 -55 8 -6 14 -18 14 -25 0 -8 9 -22 20 -31 11 -10 20 -23 20 -31 0 -7 6 -23 14 -35 21 -33 67 -199 65 -233 -2 -16 4 -42 13 -59 28 -56 8 -203 -54 -395 -11 -36 -28 -81 -38 -100 -10 -19 -34 -70 -55 -112 -21 -43 -41 -78 -46 -78 -4 0 -11 -10 -15 -22 -9 -31 -113 -157 -171 -208 -103 -91 -349 -229 -436 -245 -20 -4 -40 -11 -43 -16 -3 -5 -16 -9 -29 -9 -13 0 -30 -6 -37 -13 -7 -7 -58 -29 -113 -49 -76 -27 -114 -35 -158 -33 -44 1 -57 -1 -53 -11 3 -8 0 -11 -9 -8 -8 3 -20 2 -26 -2 -7 -4 -45 -8 -83 -9 -39 -2 -87 -9 -107 -18 -20 -8 -54 -18 -75 -21 -51 -9 -82 14 -119 87 -23 44 -26 47 -20 18 23 -112 125 -161 214 -102 18 12 60 18 156 22 121 6 139 10 256 52 69 24 139 51 155 59 16 9 70 30 119 48 177 63 338 163 456 281 178 178 313 457 352 727 9 64 7 94 -13 215 -13 78 -28 148 -33 155 -5 7 -7 15 -4 18 7 7 -48 120 -63 129 -10 6 -59 105 -81 163 -6 18 -24 39 -40 47 -34 18 -111 18 -158 1z" transform="translate(0,215) scale(0.1,-0.1)" stroke="none" fill="#696959"/>

<path d="M1245 2025 c-304 -50 -570 -143 -693 -242 -122 -98 -165 -136 -215 -192 -67 -76 -86 -108 -149 -251 -53 -121 -73 -195 -89 -335 -24 -208 7 -439 77 -565 22 -39 24 -52 18 -107 -6 -56 -3 -69 20 -118 37 -74 68 -98 120 -89 21 3 55 13 75 21 20 9 68 17 106 18 39 1 78 6 87 10 9 4 22 4 27 0 6 -3 8 0 5 8 -4 11 7 13 53 12 44 -2 82 6 158 33 55 20 106 42 113 49 7 7 24 13 37 13 13 0 26 4 29 9 3 5 23 12 43 16 87 16 333 154 436 245 58 51 162 177 171 208 4 12 11 22 15 22 5 0 25 35 46 77 21 43 45 94 55 113 10 19 27 64 38 100 62 192 82 339 54 395 -9 17 -15 43 -13 59 2 34 -44 200 -65 233 -8 12 -14 28 -14 35 0 8 -9 21 -20 31 -11 9 -20 23 -20 31 0 7 -6 19 -14 25 -7 6 -19 31 -26 55 -7 25 -23 55 -37 68 -25 24 -38 25 -190 16 -21 -1 -65 0 -98 4 -35 4 -93 1 -140 -7z m-15 -244 c0 -11 -9 -23 -21 -26 -27 -9 -33 -1 -19 24 14 26 40 27 40 2z m184 10 c3 -4 3 -11 0 -14 -8 -8 -34 3 -34 14 0 11 27 12 34 0z m-414 -31 c0 -5 -4 -10 -10 -10 -5 0 -10 5 -10 10 0 6 5 10 10 10 6 0 10 -4 10 -10z m306 -88 c-3 -5 -15 -12 -26 -15 -23 -6 -28 21 -8 41 10 10 15 9 26 -2 8 -8 12 -18 8 -24z m-191 -8 c0 -10 -8 -20 -18 -22 -22 -4 -35 27 -16 39 20 12 34 5 34 -17z m263 -96 c-3 -7 -11 -13 -18 -13 -7 0 -15 6 -17 13 -3 7 4 12 17 12 13 0 20 -5 18 -12z m-428 -18 c0 -5 -7 -10 -15 -10 -8 0 -15 5 -15 10 0 6 7 10 15 10 8 0 15 -4 15 -10z m246 -29 c-9 -13 -43 -15 -51 -2 -3 5 2 17 11 26 15 14 19 15 32 2 8 -8 11 -20 8 -26z" transform="translate(0,215) scale(0.1,-0.1)" stroke="none" fill="#C0CCC8"/>

</g>

</g>
<g id="row1" transform="translate(26,215.0)">
<g id="0" transform="translate(0.0,0)scale(1,1)">

<path d="M1511 2046 c-25 -9 -49 -9 -89 -2 -90 16 -278 -15 -540 -90 -187 -53 -356 -156 -507 -308 -83 -84 -154 -180 -142 -193 3 -3 14 12 25 33 11 21 46 68 78 104 51 57 94 95 216 193 126 101 399 195 701 242 77 12 113 13 165 5 50 -8 78 -8 110 1 55 15 118 6 147 -21 12 -12 28 -41 35 -66 7 -24 19 -49 26 -55 8 -6 14 -18 14 -25 0 -8 9 -22 20 -31 11 -10 20 -23 20 -31 0 -7 6 -23 14 -35 21 -33 67 -199 65 -233 -2 -16 4 -42 13 -59 28 -56 8 -203 -54 -395 -11 -36 -28 -81 -38 -100 -10 -19 -34 -70 -55 -112 -21 -43 -41 -78 -46 -78 -4 0 -11 -10 -15 -22 -9 -31 -113 -157 -171 -208 -103 -91 -349 -229 -436 -245 -20 -4 -40 -11 -43 -16 -3 -5 -16 -9 -29 -9 -13 0 -30 -6 -37 -13 -7 -7 -58 -29 -113 -49 -76 -27 -114 -35 -158 -33 -44 1 -57 -1 -53 -11 3 -8 0 -11 -9 -8 -8 3 -20 2 -26 -2 -7 -4 -45 -8 -83 -9 -39 -2 -87 -9 -107 -18 -20 -8 -54 -18 -75 -21 -51 -9 -82 14 -119 87 -23 44 -26 47 -20 18 23 -112 125 -161 214 -102 18 12 60 18 156 22 121 6 139 10 256 52 69 24 139 51 155 59 16 9 70 30 119 48 177 63 338 163 456 281 178 178 313 457 352 727 9 64 7 94 -13 215 -13 78 -28 148 -33 155 -5 7 -7 15 -4 18 7 7 -48 120 -63 129 -10 6 -59 105 -81 163 -6 18 -24 39 -40 47 -34 18 -111 18 -158 1z" transform="translate(0,215) scale(0.1,-0.1)" stroke="none" fill="#696959"/>

<path d="M1245 2025 c-304 -50 -570 -143 -693 -242 -122 -98 -165 -136 -215 -192 -67 -76 -86 -108 -149 -251 -53 -121 -73 -195 -89 -335 -24 -208 7 -439 77 -565 22 -39 24 -52 18 -107 -6 -56 -3 -69 20 -118 37 -74 68 -98 120 -89 21 3 55 13 75 21 20 9 68 17 106 18 39 1 78 6 87 10 9 4 22 4 27 0 6 -3 8 0 5 8 -4 11 7 13 53 12 44 -2 82 6 158 33 55 20 106 42 113 49 7 7 24 13 37 13 13 0 26 4 29 9 3 5 23 12 43 16 87 16 333 154 436 245 58 51 162 177 171 208 4 12 11 22 15 22 5 0 25 35 46 77 21 43 45 94 55 113 10 19 27 64 38 100 62 192 82 339 54 395 -9 17 -15 43 -13 59 2 34 -44 200 -65 233 -8 12 -14 28 -14 35 0 8 -9 21 -20 31 -11 9 -20 23 -20 31 0 7 -6 19 -14 25 -7 6 -19 31 -26 55 -7 25 -23 55 -37 68 -25 24 -38 25 -190 16 -21 -1 -65 0 -98 4 -35 4 -93 1 -140 -7z m-15 -244 c0 -11 -9 -23 -21 -26 -27 -9 -33 -1 -19 24 14 26 40 27 40 2z m184 10 c3 -4 3 -11 0 -14 -8 -8 -34 3 -34 14 0 11 27 12 34 0z m-414 -31 c0 -5 -4 -10 -10 -10 -5 0 -10 5 -10 10 0 6 5 10 10 10 6 0 10 -4 10 -10z m306 -88 c-3 -5 -15 -12 -26 -15 -23 -6 -28 21 -8 41 10 10 15 9 26 -2 8 -8 12 -18 8 -24z m-191 -8 c0 -10 -8 -20 -18 -22 -22 -4 -35 27 -16 39 20 12 34 5 34 -17z m263 -96 c-3 -7 -11 -13 -18 -13 -7 0 -15 6 -17 13 -3 7 4 12 17 12 13 0 20 -5 18 -12z m-428 -18 c0 -5 -7 -10 -15 -10 -8 0 -15 5 -15 10 0 6 7 10 15 10 8 0 15 -4 15 -10z m246 -29 c-9 -13 -43 -15 -51 -2 -3 5 2 17 11 26 15 14 19 15 32 2 8 -8 11 -20 8 -26z" transform="translate(0,215) scale(0.1,-0.1)" stroke="none" fill="#C0CCC8"/>

</g>

<g id="1" transform="translate(200.0,0)scale(1,1)">

<path d="M1511 2046 c-25 -9 -49 -9 -89 -2 -90 16 -278 -15 -540 -90 -187 -53 -356 -156 -507 -308 -83 -84 -154 -180 -142 -193 3 -3 14 12 25 33 11 21 46 68 78 104 51 57 94 95 216 193 126 101 399 195 701 242 77 12 113 13 165 5 50 -8 78 -8 110 1 55 15 118 6 147 -21 12 -12 28 -41 35 -66 7 -24 19 -49 26 -55 8 -6 14 -18 14 -25 0 -8 9 -22 20 -31 11 -10 20 -23 20 -31 0 -7 6 -23 14 -35 21 -33 67 -199 65 -233 -2 -16 4 -42 13 -59 28 -56 8 -203 -54 -395 -11 -36 -28 -81 -38 -100 -10 -19 -34 -70 -55 -112 -21 -43 -41 -78 -46 -78 -4 0 -11 -10 -15 -22 -9 -31 -113 -157 -171 -208 -103 -91 -349 -229 -436 -245 -20 -4 -40 -11 -43 -16 -3 -5 -16 -9 -29 -9 -13 0 -30 -6 -37 -13 -7 -7 -58 -29 -113 -49 -76 -27 -114 -35 -158 -33 -44 1 -57 -1 -53 -11 3 -8 0 -11 -9 -8 -8 3 -20 2 -26 -2 -7 -4 -45 -8 -83 -9 -39 -2 -87 -9 -107 -18 -20 -8 -54 -18 -75 -21 -51 -9 -82 14 -119 87 -23 44 -26 47 -20 18 23 -112 125 -161 214 -102 18 12 60 18 156 22 121 6 139 10 256 52 69 24 139 51 155 59 16 9 70 30 119 48 177 63 338 163 456 281 178 178 313 457 352 727 9 64 7 94 -13 215 -13 78 -28 148 -33 155 -5 7 -7 15 -4 18 7 7 -48 120 -63 129 -10 6 -59 105 -81 163 -6 18 -24 39 -40 47 -34 18 -111 18 -158 1z" transform="translate(0,215) scale(0.1,-0.1)" stroke="none" fill="#696959"/>

<path d="M1245 2025 c-304 -50 -570 -143 -693 -242 -122 -98 -165 -136 -215 -192 -67 -76 -86 -108 -149 -251 -53 -121 -73 -195 -89 -335 -24 -208 7 -439 77 -565 22 -39 24 -52 18 -107 -6 -56 -3 -69 20 -118 37 -74 68 -98 120 -89 21 3 55 13 75 21 20 9 68 17 106 18 39 1 78 6 87 10 9 4 22 4 27 0 6 -3 8 0 5 8 -4 11 7 13 53 12 44 -2 82 6 158 33 55 20 106 42 113 49 7 7 24 13 37 13 13 0 26 4 29 9 3 5 23 12 43 16 87 16 333 154 436 245 58 51 162 177 171 208 4 12 11 22 15 22 5 0 25 35 46 77 21 43 45 94 55 113 10 19 27 64 38 100 62 192 82 339 54 395 -9 17 -15 43 -13 59 2 34 -44 200 -65 233 -8 12 -14 28 -14 35 0 8 -9 21 -20 31 -11 9 -20 23 -20 31 0 7 -6 19 -14 25 -7 6 -19 31 -26 55 -7 25 -23 55 -37 68 -25 24 -38 25 -190 16 -21 -1 -65 0 -98 4 -35 4 -93 1 -140 -7z m-15 -244 c0 -11 -9 -23 -21 -26 -27 -9 -33 -1 -19 24 14 26 40 27 40 2z m184 10 c3 -4 3 -11 0 -14 -8 -8 -34 3 -34 14 0 11 27 12 34 0z m-414 -31 c0 -5 -4 -10 -10 -10 -5 0 -10 5 -10 10 0 6 5 10 10 10 6 0 10 -4 10 -10z m306 -88 c-3 -5 -15 -12 -26 -15 -23 -6 -28 21 -8 41 10 10 15 9 26 -2 8 -8 12 -18 8 -24z m-191 -8 c0 -10 -8 -20 -18 -22 -22 -4 -35 27 -16 39 20 12 34 5 34 -17z m263 -96 c-3 -7 -11 -13 -18 -13 -7 0 -15 6 -17 13 -3 7 4 12 17 12 13 0 20 -5 18 -12z m-428 -18 c0 -5 -7 -10 -15 -10 -8 0 -15 5 -15 10 0 6 7 10 15 10 8 0 15 -4 15 -10z m246 -29 c-9 -13 -43 -15 -51 -2 -3 5 2 17 11 26 15 14 19 15 32 2 8 -8 11 -20 8 -26z" transform="translate(0,215) scale(0.1,-0.1)" stroke="none" fill="#C0CCC8"/>

</g>

<g id="2" transform="translate(400.0,0)scale(1,1)">

<path d="M1511 2046 c-25 -9 -49 -9 -89 -2 -90 16 -278 -15 -540 -90 -187 -53 -356 -156 -507 -308 -83 -84 -154 -180 -142 -193 3 -3 14 12 25 33 11 21 46 68 78 104 51 57 94 95 216 193 126 101 399 195 701 242 77 12 113 13 165 5 50 -8 78 -8 110 1 55 15 118 6 147 -21 12 -12 28 -41 35 -66 7 -24 19 -49 26 -55 8 -6 14 -18 14 -25 0 -8 9 -22 20 -31 11 -10 20 -23 20 -31 0 -7 6 -23 14 -35 21 -33 67 -199 65 -233 -2 -16 4 -42 13 -59 28 -56 8 -203 -54 -395 -11 -36 -28 -81 -38 -100 -10 -19 -34 -70 -55 -112 -21 -43 -41 -78 -46 -78 -4 0 -11 -10 -15 -22 -9 -31 -113 -157 -171 -208 -103 -91 -349 -229 -436 -245 -20 -4 -40 -11 -43 -16 -3 -5 -16 -9 -29 -9 -13 0 -30 -6 -37 -13 -7 -7 -58 -29 -113 -49 -76 -27 -114 -35 -158 -33 -44 1 -57 -1 -53 -11 3 -8 0 -11 -9 -8 -8 3 -20 2 -26 -2 -7 -4 -45 -8 -83 -9 -39 -2 -87 -9 -107 -18 -20 -8 -54 -18 -75 -21 -51 -9 -82 14 -119 87 -23 44 -26 47 -20 18 23 -112 125 -161 214 -102 18 12 60 18 156 22 121 6 139 10 256 52 69 24 139 51 155 59 16 9 70 30 119 48 177 63 338 163 456 281 178 178 313 457 352 727 9 64 7 94 -13 215 -13 78 -28 148 -33 155 -5 7 -7 15 -4 18 7 7 -48 120 -63 129 -10 6 -59 105 -81 163 -6 18 -24 39 -40 47 -34 18 -111 18 -158 1z" transform="translate(0,215) scale(0.1,-0.1)" stroke="none" fill="#696959"/>

<path d="M1245 2025 c-304 -50 -570 -143 -693 -242 -122 -98 -165 -136 -215 -192 -67 -76 -86 -108 -149 -251 -53 -121 -73 -195 -89 -335 -24 -208 7 -439 77 -565 22 -39 24 -52 18 -107 -6 -56 -3 -69 20 -118 37 -74 68 -98 120 -89 21 3 55 13 75 21 20 9 68 17 106 18 39 1 78 6 87 10 9 4 22 4 27 0 6 -3 8 0 5 8 -4 11 7 13 53 12 44 -2 82 6 158 33 55 20 106 42 113 49 7 7 24 13 37 13 13 0 26 4 29 9 3 5 23 12 43 16 87 16 333 154 436 245 58 51 162 177 171 208 4 12 11 22 15 22 5 0 25 35 46 77 21 43 45 94 55 113 10 19 27 64 38 100 62 192 82 339 54 395 -9 17 -15 43 -13 59 2 34 -44 200 -65 233 -8 12 -14 28 -14 35 0 8 -9 21 -20 31 -11 9 -20 23 -20 31 0 7 -6 19 -14 25 -7 6 -19 31 -26 55 -7 25 -23 55 -37 68 -25 24 -38 25 -190 16 -21 -1 -65 0 -98 4 -35 4 -93 1 -140 -7z m-15 -244 c0 -11 -9 -23 -21 -26 -27 -9 -33 -1 -19 24 14 26 40 27 40 2z m184 10 c3 -4 3 -11 0 -14 -8 -8 -34 3 -34 14 0 11 27 12 34 0z m-414 -31 c0 -5 -4 -10 -10 -10 -5 0 -10 5 -10 10 0 6 5 10 10 10 6 0 10 -4 10 -10z m306 -88 c-3 -5 -15 -12 -26 -15 -23 -6 -28 21 -8 41 10 10 15 9 26 -2 8 -8 12 -18 8 -24z m-191 -8 c0 -10 -8 -20 -18 -22 -22 -4 -35 27 -16 39 20 12 34 5 34 -17z m263 -96 c-3 -7 -11 -13 -18 -13 -7 0 -15 6 -17 13 -3 7 4 12 17 12 13 0 20 -5 18 -12z m-428 -18 c0 -5 -7 -10 -15 -10 -8 0 -15 5 -15 10 0 6 7 10 15 10 8 0 15 -4 15 -10z m246 -29 c-9 -13 -43 -15 -51 -2 -3 5 2 17 11 26 15 14 19 15 32 2 8 -8 11 -20 8 -26z" transform="translate(0,215) scale(0.1,-0.1)" stroke="none" fill="#C0CCC8"/>

</g>

<g id="3" transform="translate(600.0,0)scale(1,1)">

<path d="M1511 2046 c-25 -9 -49 -9 -89 -2 -90 16 -278 -15 -540 -90 -187 -53 -356 -156 -507 -308 -83 -84 -154 -180 -142 -193 3 -3 14 12 25 33 11 21 46 68 78 104 51 57 94 95 216 193 126 101 399 195 701 242 77 12 113 13 165 5 50 -8 78 -8 110 1 55 15 118 6 147 -21 12 -12 28 -41 35 -66 7 -24 19 -49 26 -55 8 -6 14 -18 14 -25 0 -8 9 -22 20 -31 11 -10 20 -23 20 -31 0 -7 6 -23 14 -35 21 -33 67 -199 65 -233 -2 -16 4 -42 13 -59 28 -56 8 -203 -54 -395 -11 -36 -28 -81 -38 -100 -10 -19 -34 -70 -55 -112 -21 -43 -41 -78 -46 -78 -4 0 -11 -10 -15 -22 -9 -31 -113 -157 -171 -208 -103 -91 -349 -229 -436 -245 -20 -4 -40 -11 -43 -16 -3 -5 -16 -9 -29 -9 -13 0 -30 -6 -37 -13 -7 -7 -58 -29 -113 -49 -76 -27 -114 -35 -158 -33 -44 1 -57 -1 -53 -11 3 -8 0 -11 -9 -8 -8 3 -20 2 -26 -2 -7 -4 -45 -8 -83 -9 -39 -2 -87 -9 -107 -18 -20 -8 -54 -18 -75 -21 -51 -9 -82 14 -119 87 -23 44 -26 47 -20 18 23 -112 125 -161 214 -102 18 12 60 18 156 22 121 6 139 10 256 52 69 24 139 51 155 59 16 9 70 30 119 48 177 63 338 163 456 281 178 178 313 457 352 727 9 64 7 94 -13 215 -13 78 -28 148 -33 155 -5 7 -7 15 -4 18 7 7 -48 120 -63 129 -10 6 -59 105 -81 163 -6 18 -24 39 -40 47 -34 18 -111 18 -158 1z" transform="translate(0,215) scale(0.1,-0.1)" stroke="none" fill="#696959"/>

<path d="M1245 2025 c-304 -50 -570 -143 -693 -242 -122 -98 -165 -136 -215 -192 -67 -76 -86 -108 -149 -251 -53 -121 -73 -195 -89 -335 -24 -208 7 -439 77 -565 22 -39 24 -52 18 -107 -6 -56 -3 -69 20 -118 37 -74 68 -98 120 -89 21 3 55 13 75 21 20 9 68 17 106 18 39 1 78 6 87 10 9 4 22 4 27 0 6 -3 8 0 5 8 -4 11 7 13 53 12 44 -2 82 6 158 33 55 20 106 42 113 49 7 7 24 13 37 13 13 0 26 4 29 9 3 5 23 12 43 16 87 16 333 154 436 245 58 51 162 177 171 208 4 12 11 22 15 22 5 0 25 35 46 77 21 43 45 94 55 113 10 19 27 64 38 100 62 192 82 339 54 395 -9 17 -15 43 -13 59 2 34 -44 200 -65 233 -8 12 -14 28 -14 35 0 8 -9 21 -20 31 -11 9 -20 23 -20 31 0 7 -6 19 -14 25 -7 6 -19 31 -26 55 -7 25 -23 55 -37 68 -25 24 -38 25 -190 16 -21 -1 -65 0 -98 4 -35 4 -93 1 -140 -7z m-15 -244 c0 -11 -9 -23 -21 -26 -27 -9 -33 -1 -19 24 14 26 40 27 40 2z m184 10 c3 -4 3 -11 0 -14 -8 -8 -34 3 -34 14 0 11 27 12 34 0z m-414 -31 c0 -5 -4 -10 -10 -10 -5 0 -10 5 -10 10 0 6 5 10 10 10 6 0 10 -4 10 -10z m306 -88 c-3 -5 -15 -12 -26 -15 -23 -6 -28 21 -8 41 10 10 15 9 26 -2 8 -8 12 -18 8 -24z m-191 -8 c0 -10 -8 -20 -18 -22 -22 -4 -35 27 -16 39 20 12 34 5 34 -17z m263 -96 c-3 -7 -11 -13 -18 -13 -7 0 -15 6 -17 13 -3 7 4 12 17 12 13 0 20 -5 18 -12z m-428 -18 c0 -5 -7 -10 -15 -10 -8 0 -15 5 -15 10 0 6 7 10 15 10 8 0 15 -4 15 -10z m246 -29 c-9 -13 -43 -15 -51 -2 -3 5 2 17 11 26 15 14 19 15 32 2 8 -8 11 -20 8 -26z" transform="translate(0,215) scale(0.1,-0.1)" stroke="none" fill="#C0CCC8"/>

</g>

<g id="4" transform="translate(800.0,0)scale(1,1)">

<path d="M1511 2046 c-25 -9 -49 -9 -89 -2 -90 16 -278 -15 -540 -90 -187 -53 -356 -156 -507 -308 -83 -84 -154 -180 -142 -193 3 -3 14 12 25 33 11 21 46 68 78 104 51 57 94 95 216 193 126 101 399 195 701 242 77 12 113 13 165 5 50 -8 78 -8 110 1 55 15 118 6 147 -21 12 -12 28 -41 35 -66 7 -24 19 -49 26 -55 8 -6 14 -18 14 -25 0 -8 9 -22 20 -31 11 -10 20 -23 20 -31 0 -7 6 -23 14 -35 21 -33 67 -199 65 -233 -2 -16 4 -42 13 -59 28 -56 8 -203 -54 -395 -11 -36 -28 -81 -38 -100 -10 -19 -34 -70 -55 -112 -21 -43 -41 -78 -46 -78 -4 0 -11 -10 -15 -22 -9 -31 -113 -157 -171 -208 -103 -91 -349 -229 -436 -245 -20 -4 -40 -11 -43 -16 -3 -5 -16 -9 -29 -9 -13 0 -30 -6 -37 -13 -7 -7 -58 -29 -113 -49 -76 -27 -114 -35 -158 -33 -44 1 -57 -1 -53 -11 3 -8 0 -11 -9 -8 -8 3 -20 2 -26 -2 -7 -4 -45 -8 -83 -9 -39 -2 -87 -9 -107 -18 -20 -8 -54 -18 -75 -21 -51 -9 -82 14 -119 87 -23 44 -26 47 -20 18 23 -112 125 -161 214 -102 18 12 60 18 156 22 121 6 139 10 256 52 69 24 139 51 155 59 16 9 70 30 119 48 177 63 338 163 456 281 178 178 313 457 352 727 9 64 7 94 -13 215 -13 78 -28 148 -33 155 -5 7 -7 15 -4 18 7 7 -48 120 -63 129 -10 6 -59 105 -81 163 -6 18 -24 39 -40 47 -34 18 -111 18 -158 1z" transform="translate(0,215) scale(0.1,-0.1)" stroke="none" fill="#696959"/>

<path d="M1245 2025 c-304 -50 -570 -143 -693 -242 -122 -98 -165 -136 -215 -192 -67 -76 -86 -108 -149 -251 -53 -121 -73 -195 -89 -335 -24 -208 7 -439 77 -565 22 -39 24 -52 18 -107 -6 -56 -3 -69 20 -118 37 -74 68 -98 120 -89 21 3 55 13 75 21 20 9 68 17 106 18 39 1 78 6 87 10 9 4 22 4 27 0 6 -3 8 0 5 8 -4 11 7 13 53 12 44 -2 82 6 158 33 55 20 106 42 113 49 7 7 24 13 37 13 13 0 26 4 29 9 3 5 23 12 43 16 87 16 333 154 436 245 58 51 162 177 171 208 4 12 11 22 15 22 5 0 25 35 46 77 21 43 45 94 55 113 10 19 27 64 38 100 62 192 82 339 54 395 -9 17 -15 43 -13 59 2 34 -44 200 -65 233 -8 12 -14 28 -14 35 0 8 -9 21 -20 31 -11 9 -20 23 -20 31 0 7 -6 19 -14 25 -7 6 -19 31 -26 55 -7 25 -23 55 -37 68 -25 24 -38 25 -190 16 -21 -1 -65 0 -98 4 -35 4 -93 1 -140 -7z m-15 -244 c0 -11 -9 -23 -21 -26 -27 -9 -33 -1 -19 24 14 26 40 27 40 2z m184 10 c3 -4 3 -11 0 -14 -8 -8 -34 3 -34 14 0 11 27 12 34 0z m-414 -31 c0 -5 -4 -10 -10 -10 -5 0 -10 5 -10 10 0 6 5 10 10 10 6 0 10 -4 10 -10z m306 -88 c-3 -5 -15 -12 -26 -15 -23 -6 -28 21 -8 41 10 10 15 9 26 -2 8 -8 12 -18 8 -24z m-191 -8 c0 -10 -8 -20 -18 -22 -22 -4 -35 27 -16 39 20 12 34 5 34 -17z m263 -96 c-3 -7 -11 -13 -18 -13 -7 0 -15 6 -17 13 -3 7 4 12 17 12 13 0 20 -5 18 -12z m-428 -18 c0 -5 -7 -10 -15 -10 -8 0 -15 5 -15 10 0 6 7 10 15 10 8 0 15 -4 15 -10z m246 -29 c-9 -13 -43 -15 -51 -2 -3 5 2 17 11 26 15 14 19 15 32 2 8 -8 11 -20 8 -26z" transform="translate(0,215) scale(0.1,-0.1)" stroke="none" fill="#C0CCC8"/>

</g>

</g>
<g id="row2" transform="translate(26,430.0)">
<g id="0" transform="translate(0.0,0)scale(1,1)">

<path d="M1511 2046 c-25 -9 -49 -9 -89 -2 -90 16 -278 -15 -540 -90 -187 -53 -356 -156 -507 -308 -83 -84 -154 -180 -142 -193 3 -3 14 12 25 33 11 21 46 68 78 104 51 57 94 95 216 193 126 101 399 195 701 242 77 12 113 13 165 5 50 -8 78 -8 110 1 55 15 118 6 147 -21 12 -12 28 -41 35 -66 7 -24 19 -49 26 -55 8 -6 14 -18 14 -25 0 -8 9 -22 20 -31 11 -10 20 -23 20 -31 0 -7 6 -23 14 -35 21 -33 67 -199 65 -233 -2 -16 4 -42 13 -59 28 -56 8 -203 -54 -395 -11 -36 -28 -81 -38 -100 -10 -19 -34 -70 -55 -112 -21 -43 -41 -78 -46 -78 -4 0 -11 -10 -15 -22 -9 -31 -113 -157 -171 -208 -103 -91 -349 -229 -436 -245 -20 -4 -40 -11 -43 -16 -3 -5 -16 -9 -29 -9 -13 0 -30 -6 -37 -13 -7 -7 -58 -29 -113 -49 -76 -27 -114 -35 -158 -33 -44 1 -57 -1 -53 -11 3 -8 0 -11 -9 -8 -8 3 -20 2 -26 -2 -7 -4 -45 -8 -83 -9 -39 -2 -87 -9 -107 -18 -20 -8 -54 -18 -75 -21 -51 -9 -82 14 -119 87 -23 44 -26 47 -20 18 23 -112 125 -161 214 -102 18 12 60 18 156 22 121 6 139 10 256 52 69 24 139 51 155 59 16 9 70 30 119 48 177 63 338 163 456 281 178 178 313 457 352 727 9 64 7 94 -13 215 -13 78 -28 148 -33 155 -5 7 -7 15 -4 18 7 7 -48 120 -63 129 -10 6 -59 105 -81 163 -6 18 -24 39 -40 47 -34 18 -111 18 -158 1z" transform="translate(0,215) scale(0.1,-0.1)" stroke="none" fill="#696959"/>

<path d="M1245 2025 c-304 -50 -570 -143 -693 -242 -122 -98 -165 -136 -215 -192 -67 -76 -86 -108 -149 -251 -53 -121 -73 -195 -89 -335 -24 -208 7 -439 77 -565 22 -39 24 -52 18 -107 -6 -56 -3 -69 20 -118 37 -74 68 -98 120 -89 21 3 55 13 75 21 20 9 68 17 106 18 39 1 78 6 87 10 9 4 22 4 27 0 6 -3 8 0 5 8 -4 11 7 13 53 12 44 -2 82 6 158 33 55 20 106 42 113 49 7 7 24 13 37 13 13 0 26 4 29 9 3 5 23 12 43 16 87 16 333 154 436 245 58 51 162 177 171 208 4 12 11 22 15 22 5 0 25 35 46 77 21 43 45 94 55 113 10 19 27 64 38 100 62 192 82 339 54 395 -9 17 -15 43 -13 59 2 34 -44 200 -65 233 -8 12 -14 28 -14 35 0 8 -9 21 -20 31 -11 9 -20 23 -20 31 0 7 -6 19 -14 25 -7 6 -19 31 -26 55 -7 25 -23 55 -37 68 -25 24 -38 25 -190 16 -21 -1 -65 0 -98 4 -35 4 -93 1 -140 -7z m-15 -244 c0 -11 -9 -23 -21 -26 -27 -9 -33 -1 -19 24 14 26 40 27 40 2z m184 10 c3 -4 3 -11 0 -14 -8 -8 -34 3 -34 14 0 11 27 12 34 0z m-414 -31 c0 -5 -4 -10 -10 -10 -5 0 -10 5 -10 10 0 6 5 10 10 10 6 0 10 -4 10 -10z m306 -88 c-3 -5 -15 -12 -26 -15 -23 -6 -28 21 -8 41 10 10 15 9 26 -2 8 -8 12 -18 8 -24z m-191 -8 c0 -10 -8 -20 -18 -22 -22 -4 -35 27 -16 39 20 12 34 5 34 -17z m263 -96 c-3 -7 -11 -13 -18 -13 -7 0 -15 6 -17 13 -3 7 4 12 17 12 13 0 20 -5 18 -12z m-428 -18 c0 -5 -7 -10 -15 -10 -8 0 -15 5 -15 10 0 6 7 10 15 10 8 0 15 -4 15 -10z m246 -29 c-9 -13 -43 -15 -51 -2 -3 5 2 17 11 26 15 14 19 15 32 2 8 -8 11 -20 8 -26z" transform="translate(0,215) scale(0.1,-0.1)" stroke="none" fill="#C0CCC8"/>

</g>

<g id="1" transform="translate(200.0,0)scale(1,1)">

<path d="M1511 2046 c-25 -9 -49 -9 -89 -2 -90 16 -278 -15 -540 -90 -187 -53 -356 -156 -507 -308 -83 -84 -154 -180 -142 -193 3 -3 14 12 25 33 11 21 46 68 78 104 51 57 94 95 216 193 126 101 399 195 701 242 77 12 113 13 165 5 50 -8 78 -8 110 1 55 15 118 6 147 -21 12 -12 28 -41 35 -66 7 -24 19 -49 26 -55 8 -6 14 -18 14 -25 0 -8 9 -22 20 -31 11 -10 20 -23 20 -31 0 -7 6 -23 14 -35 21 -33 67 -199 65 -233 -2 -16 4 -42 13 -59 28 -56 8 -203 -54 -395 -11 -36 -28 -81 -38 -100 -10 -19 -34 -70 -55 -112 -21 -43 -41 -78 -46 -78 -4 0 -11 -10 -15 -22 -9 -31 -113 -157 -171 -208 -103 -91 -349 -229 -436 -245 -20 -4 -40 -11 -43 -16 -3 -5 -16 -9 -29 -9 -13 0 -30 -6 -37 -13 -7 -7 -58 -29 -113 -49 -76 -27 -114 -35 -158 -33 -44 1 -57 -1 -53 -11 3 -8 0 -11 -9 -8 -8 3 -20 2 -26 -2 -7 -4 -45 -8 -83 -9 -39 -2 -87 -9 -107 -18 -20 -8 -54 -18 -75 -21 -51 -9 -82 14 -119 87 -23 44 -26 47 -20 18 23 -112 125 -161 214 -102 18 12 60 18 156 22 121 6 139 10 256 52 69 24 139 51 155 59 16 9 70 30 119 48 177 63 338 163 456 281 178 178 313 457 352 727 9 64 7 94 -13 215 -13 78 -28 148 -33 155 -5 7 -7 15 -4 18 7 7 -48 120 -63 129 -10 6 -59 105 -81 163 -6 18 -24 39 -40 47 -34 18 -111 18 -158 1z" transform="translate(0,215) scale(0.1,-0.1)" stroke="none" fill="#696959"/>

<path d="M1245 2025 c-304 -50 -570 -143 -693 -242 -122 -98 -165 -136 -215 -192 -67 -76 -86 -108 -149 -251 -53 -121 -73 -195 -89 -335 -24 -208 7 -439 77 -565 22 -39 24 -52 18 -107 -6 -56 -3 -69 20 -118 37 -74 68 -98 120 -89 21 3 55 13 75 21 20 9 68 17 106 18 39 1 78 6 87 10 9 4 22 4 27 0 6 -3 8 0 5 8 -4 11 7 13 53 12 44 -2 82 6 158 33 55 20 106 42 113 49 7 7 24 13 37 13 13 0 26 4 29 9 3 5 23 12 43 16 87 16 333 154 436 245 58 51 162 177 171 208 4 12 11 22 15 22 5 0 25 35 46 77 21 43 45 94 55 113 10 19 27 64 38 100 62 192 82 339 54 395 -9 17 -15 43 -13 59 2 34 -44 200 -65 233 -8 12 -14 28 -14 35 0 8 -9 21 -20 31 -11 9 -20 23 -20 31 0 7 -6 19 -14 25 -7 6 -19 31 -26 55 -7 25 -23 55 -37 68 -25 24 -38 25 -190 16 -21 -1 -65 0 -98 4 -35 4 -93 1 -140 -7z m-15 -244 c0 -11 -9 -23 -21 -26 -27 -9 -33 -1 -19 24 14 26 40 27 40 2z m184 10 c3 -4 3 -11 0 -14 -8 -8 -34 3 -34 14 0 11 27 12 34 0z m-414 -31 c0 -5 -4 -10 -10 -10 -5 0 -10 5 -10 10 0 6 5 10 10 10 6 0 10 -4 10 -10z m306 -88 c-3 -5 -15 -12 -26 -15 -23 -6 -28 21 -8 41 10 10 15 9 26 -2 8 -8 12 -18 8 -24z m-191 -8 c0 -10 -8 -20 -18 -22 -22 -4 -35 27 -16 39 20 12 34 5 34 -17z m263 -96 c-3 -7 -11 -13 -18 -13 -7 0 -15 6 -17 13 -3 7 4 12 17 12 13 0 20 -5 18 -12z m-428 -18 c0 -5 -7 -10 -15 -10 -8 0 -15 5 -15 10 0 6 7 10 15 10 8 0 15 -4 15 -10z m246 -29 c-9 -13 -43 -15 -51 -2 -3 5 2 17 11 26 15 14 19 15 32 2 8 -8 11 -20 8 -26z" transform="translate(0,215) scale(0.1,-0.1)" stroke="none" fill="#C0CCC8"/>

</g>

<g id="2" transform="translate(400.0,0)scale(1,1)">

<path d="M1511 2046 c-25 -9 -49 -9 -89 -2 -90 16 -278 -15 -540 -90 -187 -53 -356 -156 -507 -308 -83 -84 -154 -180 -142 -193 3 -3 14 12 25 33 11 21 46 68 78 104 51 57 94 95 216 193 126 101 399 195 701 242 77 12 113 13 165 5 50 -8 78 -8 110 1 55 15 118 6 147 -21 12 -12 28 -41 35 -66 7 -24 19 -49 26 -55 8 -6 14 -18 14 -25 0 -8 9 -22 20 -31 11 -10 20 -23 20 -31 0 -7 6 -23 14 -35 21 -33 67 -199 65 -233 -2 -16 4 -42 13 -59 28 -56 8 -203 -54 -395 -11 -36 -28 -81 -38 -100 -10 -19 -34 -70 -55 -112 -21 -43 -41 -78 -46 -78 -4 0 -11 -10 -15 -22 -9 -31 -113 -157 -171 -208 -103 -91 -349 -229 -436 -245 -20 -4 -40 -11 -43 -16 -3 -5 -16 -9 -29 -9 -13 0 -30 -6 -37 -13 -7 -7 -58 -29 -113 -49 -76 -27 -114 -35 -158 -33 -44 1 -57 -1 -53 -11 3 -8 0 -11 -9 -8 -8 3 -20 2 -26 -2 -7 -4 -45 -8 -83 -9 -39 -2 -87 -9 -107 -18 -20 -8 -54 -18 -75 -21 -51 -9 -82 14 -119 87 -23 44 -26 47 -20 18 23 -112 125 -161 214 -102 18 12 60 18 156 22 121 6 139 10 256 52 69 24 139 51 155 59 16 9 70 30 119 48 177 63 338 163 456 281 178 178 313 457 352 727 9 64 7 94 -13 215 -13 78 -28 148 -33 155 -5 7 -7 15 -4 18 7 7 -48 120 -63 129 -10 6 -59 105 -81 163 -6 18 -24 39 -40 47 -34 18 -111 18 -158 1z" transform="translate(0,215) scale(0.1,-0.1)" stroke="none" fill="#696959"/>

<path d="M1245 2025 c-304 -50 -570 -143 -693 -242 -122 -98 -165 -136 -215 -192 -67 -76 -86 -108 -149 -251 -53 -121 -73 -195 -89 -335 -24 -208 7 -439 77 -565 22 -39 24 -52 18 -107 -6 -56 -3 -69 20 -118 37 -74 68 -98 120 -89 21 3 55 13 75 21 20 9 68 17 106 18 39 1 78 6 87 10 9 4 22 4 27 0 6 -3 8 0 5 8 -4 11 7 13 53 12 44 -2 82 6 158 33 55 20 106 42 113 49 7 7 24 13 37 13 13 0 26 4 29 9 3 5 23 12 43 16 87 16 333 154 436 245 58 51 162 177 171 208 4 12 11 22 15 22 5 0 25 35 46 77 21 43 45 94 55 113 10 19 27 64 38 100 62 192 82 339 54 395 -9 17 -15 43 -13 59 2 34 -44 200 -65 233 -8 12 -14 28 -14 35 0 8 -9 21 -20 31 -11 9 -20 23 -20 31 0 7 -6 19 -14 25 -7 6 -19 31 -26 55 -7 25 -23 55 -37 68 -25 24 -38 25 -190 16 -21 -1 -65 0 -98 4 -35 4 -93 1 -140 -7z m-15 -244 c0 -11 -9 -23 -21 -26 -27 -9 -33 -1 -19 24 14 26 40 27 40 2z m184 10 c3 -4 3 -11 0 -14 -8 -8 -34 3 -34 14 0 11 27 12 34 0z m-414 -31 c0 -5 -4 -10 -10 -10 -5 0 -10 5 -10 10 0 6 5 10 10 10 6 0 10 -4 10 -10z m306 -88 c-3 -5 -15 -12 -26 -15 -23 -6 -28 21 -8 41 10 10 15 9 26 -2 8 -8 12 -18 8 -24z m-191 -8 c0 -10 -8 -20 -18 -22 -22 -4 -35 27 -16 39 20 12 34 5 34 -17z m263 -96 c-3 -7 -11 -13 -18 -13 -7 0 -15 6 -17 13 -3 7 4 12 17 12 13 0 20 -5 18 -12z m-428 -18 c0 -5 -7 -10 -15 -10 -8 0 -15 5 -15 10 0 6 7 10 15 10 8 0 15 -4 15 -10z m246 -29 c-9 -13 -43 -15 -51 -2 -3 5 2 17 11 26 15 14 19 15 32 2 8 -8 11 -20 8 -26z" transform="translate(0,215) scale(0.1,-0.1)" stroke="none" fill="#C0CCC8"/>

</g>

<g id="3" transform="translate(600.0,0)scale(1,1)">

<path d="M1511 2046 c-25 -9 -49 -9 -89 -2 -90 16 -278 -15 -540 -90 -187 -53 -356 -156 -507 -308 -83 -84 -154 -180 -142 -193 3 -3 14 12 25 33 11 21 46 68 78 104 51 57 94 95 216 193 126 101 399 195 701 242 77 12 113 13 165 5 50 -8 78 -8 110 1 55 15 118 6 147 -21 12 -12 28 -41 35 -66 7 -24 19 -49 26 -55 8 -6 14 -18 14 -25 0 -8 9 -22 20 -31 11 -10 20 -23 20 -31 0 -7 6 -23 14 -35 21 -33 67 -199 65 -233 -2 -16 4 -42 13 -59 28 -56 8 -203 -54 -395 -11 -36 -28 -81 -38 -100 -10 -19 -34 -70 -55 -112 -21 -43 -41 -78 -46 -78 -4 0 -11 -10 -15 -22 -9 -31 -113 -157 -171 -208 -103 -91 -349 -229 -436 -245 -20 -4 -40 -11 -43 -16 -3 -5 -16 -9 -29 -9 -13 0 -30 -6 -37 -13 -7 -7 -58 -29 -113 -49 -76 -27 -114 -35 -158 -33 -44 1 -57 -1 -53 -11 3 -8 0 -11 -9 -8 -8 3 -20 2 -26 -2 -7 -4 -45 -8 -83 -9 -39 -2 -87 -9 -107 -18 -20 -8 -54 -18 -75 -21 -51 -9 -82 14 -119 87 -23 44 -26 47 -20 18 23 -112 125 -161 214 -102 18 12 60 18 156 22 121 6 139 10 256 52 69 24 139 51 155 59 16 9 70 30 119 48 177 63 338 163 456 281 178 178 313 457 352 727 9 64 7 94 -13 215 -13 78 -28 148 -33 155 -5 7 -7 15 -4 18 7 7 -48 120 -63 129 -10 6 -59 105 -81 163 -6 18 -24 39 -40 47 -34 18 -111 18 -158 1z" transform="translate(0,215) scale(0.1,-0.1)" stroke="none" fill="#696959"/>

<path d="M1245 2025 c-304 -50 -570 -143 -693 -242 -122 -98 -165 -136 -215 -192 -67 -76 -86 -108 -149 -251 -53 -121 -73 -195 -89 -335 -24 -208 7 -439 77 -565 22 -39 24 -52 18 -107 -6 -56 -3 -69 20 -118 37 -74 68 -98 120 -89 21 3 55 13 75 21 20 9 68 17 106 18 39 1 78 6 87 10 9 4 22 4 27 0 6 -3 8 0 5 8 -4 11 7 13 53 12 44 -2 82 6 158 33 55 20 106 42 113 49 7 7 24 13 37 13 13 0 26 4 29 9 3 5 23 12 43 16 87 16 333 154 436 245 58 51 162 177 171 208 4 12 11 22 15 22 5 0 25 35 46 77 21 43 45 94 55 113 10 19 27 64 38 100 62 192 82 339 54 395 -9 17 -15 43 -13 59 2 34 -44 200 -65 233 -8 12 -14 28 -14 35 0 8 -9 21 -20 31 -11 9 -20 23 -20 31 0 7 -6 19 -14 25 -7 6 -19 31 -26 55 -7 25 -23 55 -37 68 -25 24 -38 25 -190 16 -21 -1 -65 0 -98 4 -35 4 -93 1 -140 -7z m-15 -244 c0 -11 -9 -23 -21 -26 -27 -9 -33 -1 -19 24 14 26 40 27 40 2z m184 10 c3 -4 3 -11 0 -14 -8 -8 -34 3 -34 14 0 11 27 12 34 0z m-414 -31 c0 -5 -4 -10 -10 -10 -5 0 -10 5 -10 10 0 6 5 10 10 10 6 0 10 -4 10 -10z m306 -88 c-3 -5 -15 -12 -26 -15 -23 -6 -28 21 -8 41 10 10 15 9 26 -2 8 -8 12 -18 8 -24z m-191 -8 c0 -10 -8 -20 -18 -22 -22 -4 -35 27 -16 39 20 12 34 5 34 -17z m263 -96 c-3 -7 -11 -13 -18 -13 -7 0 -15 6 -17 13 -3 7 4 12 17 12 13 0 20 -5 18 -12z m-428 -18 c0 -5 -7 -10 -15 -10 -8 0 -15 5 -15 10 0 6 7 10 15 10 8 0 15 -4 15 -10z m246 -29 c-9 -13 -43 -15 -51 -2 -3 5 2 17 11 26 15 14 19 15 32 2 8 -8 11 -20 8 -26z" transform="translate(0,215) scale(0.1,-0.1)" stroke="none" fill="#C0CCC8"/>

</g>

<g id="4" transform="translate(800.0,0)scale(1,1)">

<path d="M1511 2046 c-25 -9 -49 -9 -89 -2 -90 16 -278 -15 -540 -90 -187 -53 -356 -156 -507 -308 -83 -84 -154 -180 -142 -193 3 -3 14 12 25 33 11 21 46 68 78 104 51 57 94 95 216 193 126 101 399 195 701 242 77 12 113 13 165 5 50 -8 78 -8 110 1 55 15 118 6 147 -21 12 -12 28 -41 35 -66 7 -24 19 -49 26 -55 8 -6 14 -18 14 -25 0 -8 9 -22 20 -31 11 -10 20 -23 20 -31 0 -7 6 -23 14 -35 21 -33 67 -199 65 -233 -2 -16 4 -42 13 -59 28 -56 8 -203 -54 -395 -11 -36 -28 -81 -38 -100 -10 -19 -34 -70 -55 -112 -21 -43 -41 -78 -46 -78 -4 0 -11 -10 -15 -22 -9 -31 -113 -157 -171 -208 -103 -91 -349 -229 -436 -245 -20 -4 -40 -11 -43 -16 -3 -5 -16 -9 -29 -9 -13 0 -30 -6 -37 -13 -7 -7 -58 -29 -113 -49 -76 -27 -114 -35 -158 -33 -44 1 -57 -1 -53 -11 3 -8 0 -11 -9 -8 -8 3 -20 2 -26 -2 -7 -4 -45 -8 -83 -9 -39 -2 -87 -9 -107 -18 -20 -8 -54 -18 -75 -21 -51 -9 -82 14 -119 87 -23 44 -26 47 -20 18 23 -112 125 -161 214 -102 18 12 60 18 156 22 121 6 139 10 256 52 69 24 139 51 155 59 16 9 70 30 119 48 177 63 338 163 456 281 178 178 313 457 352 727 9 64 7 94 -13 215 -13 78 -28 148 -33 155 -5 7 -7 15 -4 18 7 7 -48 120 -63 129 -10 6 -59 105 -81 163 -6 18 -24 39 -40 47 -34 18 -111 18 -158 1z" transform="translate(0,215) scale(0.1,-0.1)" stroke="none" fill="#696959"/>

<path d="M1245 2025 c-304 -50 -570 -143 -693 -242 -122 -98 -165 -136 -215 -192 -67 -76 -86 -108 -149 -251 -53 -121 -73 -195 -89 -335 -24 -208 7 -439 77 -565 22 -39 24 -52 18 -107 -6 -56 -3 -69 20 -118 37 -74 68 -98 120 -89 21 3 55 13 75 21 20 9 68 17 106 18 39 1 78 6 87 10 9 4 22 4 27 0 6 -3 8 0 5 8 -4 11 7 13 53 12 44 -2 82 6 158 33 55 20 106 42 113 49 7 7 24 13 37 13 13 0 26 4 29 9 3 5 23 12 43 16 87 16 333 154 436 245 58 51 162 177 171 208 4 12 11 22 15 22 5 0 25 35 46 77 21 43 45 94 55 113 10 19 27 64 38 100 62 192 82 339 54 395 -9 17 -15 43 -13 59 2 34 -44 200 -65 233 -8 12 -14 28 -14 35 0 8 -9 21 -20 31 -11 9 -20 23 -20 31 0 7 -6 19 -14 25 -7 6 -19 31 -26 55 -7 25 -23 55 -37 68 -25 24 -38 25 -190 16 -21 -1 -65 0 -98 4 -35 4 -93 1 -140 -7z m-15 -244 c0 -11 -9 -23 -21 -26 -27 -9 -33 -1 -19 24 14 26 40 27 40 2z m184 10 c3 -4 3 -11 0 -14 -8 -8 -34 3 -34 14 0 11 27 12 34 0z m-414 -31 c0 -5 -4 -10 -10 -10 -5 0 -10 5 -10 10 0 6 5 10 10 10 6 0 10 -4 10 -10z m306 -88 c-3 -5 -15 -12 -26 -15 -23 -6 -28 21 -8 41 10 10 15 9 26 -2 8 -8 12 -18 8 -24z m-191 -8 c0 -10 -8 -20 -18 -22 -22 -4 -35 27 -16 39 20 12 34 5 34 -17z m263 -96 c-3 -7 -11 -13 -18 -13 -7 0 -15 6 -17 13 -3 7 4 12 17 12 13 0 20 -5 18 -12z m-428 -18 c0 -5 -7 -10 -15 -10 -8 0 -15 5 -15 10 0 6 7 10 15 10 8 0 15 -4 15 -10z m246 -29 c-9 -13 -43 -15 -51 -2 -3 5 2 17 11 26 15 14 19 15 32 2 8 -8 11 -20 8 -26z" transform="translate(0,215) scale(0.1,-0.1)" stroke="none" fill="#C0CCC8"/>

</g>

</g>
<g id="row3" transform="translate(26,645.0)">
<g id="0" transform="translate(0.0,0)scale(1,1)">

<path d="M1511 2046 c-25 -9 -49 -9 -89 -2 -90 16 -278 -15 -540 -90 -187 -53 -356 -156 -507 -308 -83 -84 -154 -180 -142 -193 3 -3 14 12 25 33 11 21 46 68 78 104 51 57 94 95 216 193 126 101 399 195 701 242 77 12 113 13 165 5 50 -8 78 -8 110 1 55 15 118 6 147 -21 12 -12 28 -41 35 -66 7 -24 19 -49 26 -55 8 -6 14 -18 14 -25 0 -8 9 -22 20 -31 11 -10 20 -23 20 -31 0 -7 6 -23 14 -35 21 -33 67 -199 65 -233 -2 -16 4 -42 13 -59 28 -56 8 -203 -54 -395 -11 -36 -28 -81 -38 -100 -10 -19 -34 -70 -55 -112 -21 -43 -41 -78 -46 -78 -4 0 -11 -10 -15 -22 -9 -31 -113 -157 -171 -208 -103 -91 -349 -229 -436 -245 -20 -4 -40 -11 -43 -16 -3 -5 -16 -9 -29 -9 -13 0 -30 -6 -37 -13 -7 -7 -58 -29 -113 -49 -76 -27 -114 -35 -158 -33 -44 1 -57 -1 -53 -11 3 -8 0 -11 -9 -8 -8 3 -20 2 -26 -2 -7 -4 -45 -8 -83 -9 -39 -2 -87 -9 -107 -18 -20 -8 -54 -18 -75 -21 -51 -9 -82 14 -119 87 -23 44 -26 47 -20 18 23 -112 125 -161 214 -102 18 12 60 18 156 22 121 6 139 10 256 52 69 24 139 51 155 59 16 9 70 30 119 48 177 63 338 163 456 281 178 178 313 457 352 727 9 64 7 94 -13 215 -13 78 -28 148 -33 155 -5 7 -7 15 -4 18 7 7 -48 120 -63 129 -10 6 -59 105 -81 163 -6 18 -24 39 -40 47 -34 18 -111 18 -158 1z" transform="translate(0,215) scale(0.1,-0.1)" stroke="none" fill="#696959"/>

<path d="M1245 2025 c-304 -50 -570 -143 -693 -242 -122 -98 -165 -136 -215 -192 -67 -76 -86 -108 -149 -251 -53 -121 -73 -195 -89 -335 -24 -208 7 -439 77 -565 22 -39 24 -52 18 -107 -6 -56 -3 -69 20 -118 37 -74 68 -98 120 -89 21 3 55 13 75 21 20 9 68 17 106 18 39 1 78 6 87 10 9 4 22 4 27 0 6 -3 8 0 5 8 -4 11 7 13 53 12 44 -2 82 6 158 33 55 20 106 42 113 49 7 7 24 13 37 13 13 0 26 4 29 9 3 5 23 12 43 16 87 16 333 154 436 245 58 51 162 177 171 208 4 12 11 22 15 22 5 0 25 35 46 77 21 43 45 94 55 113 10 19 27 64 38 100 62 192 82 339 54 395 -9 17 -15 43 -13 59 2 34 -44 200 -65 233 -8 12 -14 28 -14 35 0 8 -9 21 -20 31 -11 9 -20 23 -20 31 0 7 -6 19 -14 25 -7 6 -19 31 -26 55 -7 25 -23 55 -37 68 -25 24 -38 25 -190 16 -21 -1 -65 0 -98 4 -35 4 -93 1 -140 -7z m-15 -244 c0 -11 -9 -23 -21 -26 -27 -9 -33 -1 -19 24 14 26 40 27 40 2z m184 10 c3 -4 3 -11 0 -14 -8 -8 -34 3 -34 14 0 11 27 12 34 0z m-414 -31 c0 -5 -4 -10 -10 -10 -5 0 -10 5 -10 10 0 6 5 10 10 10 6 0 10 -4 10 -10z m306 -88 c-3 -5 -15 -12 -26 -15 -23 -6 -28 21 -8 41 10 10 15 9 26 -2 8 -8 12 -18 8 -24z m-191 -8 c0 -10 -8 -20 -18 -22 -22 -4 -35 27 -16 39 20 12 34 5 34 -17z m263 -96 c-3 -7 -11 -13 -18 -13 -7 0 -15 6 -17 13 -3 7 4 12 17 12 13 0 20 -5 18 -12z m-428 -18 c0 -5 -7 -10 -15 -10 -8 0 -15 5 -15 10 0 6 7 10 15 10 8 0 15 -4 15 -10z m246 -29 c-9 -13 -43 -15 -51 -2 -3 5 2 17 11 26 15 14 19 15 32 2 8 -8 11 -20 8 -26z" transform="translate(0,215) scale(0.1,-0.1)" stroke="none" fill="#C0CCC8"/>

</g>

<g id="1" transform="translate(200.0,0)scale(1,1)">

<path d="M1511 2046 c-25 -9 -49 -9 -89 -2 -90 16 -278 -15 -540 -90 -187 -53 -356 -156 -507 -308 -83 -84 -154 -180 -142 -193 3 -3 14 12 25 33 11 21 46 68 78 104 51 57 94 95 216 193 126 101 399 195 701 242 77 12 113 13 165 5 50 -8 78 -8 110 1 55 15 118 6 147 -21 12 -12 28 -41 35 -66 7 -24 19 -49 26 -55 8 -6 14 -18 14 -25 0 -8 9 -22 20 -31 11 -10 20 -23 20 -31 0 -7 6 -23 14 -35 21 -33 67 -199 65 -233 -2 -16 4 -42 13 -59 28 -56 8 -203 -54 -395 -11 -36 -28 -81 -38 -100 -10 -19 -34 -70 -55 -112 -21 -43 -41 -78 -46 -78 -4 0 -11 -10 -15 -22 -9 -31 -113 -157 -171 -208 -103 -91 -349 -229 -436 -245 -20 -4 -40 -11 -43 -16 -3 -5 -16 -9 -29 -9 -13 0 -30 -6 -37 -13 -7 -7 -58 -29 -113 -49 -76 -27 -114 -35 -158 -33 -44 1 -57 -1 -53 -11 3 -8 0 -11 -9 -8 -8 3 -20 2 -26 -2 -7 -4 -45 -8 -83 -9 -39 -2 -87 -9 -107 -18 -20 -8 -54 -18 -75 -21 -51 -9 -82 14 -119 87 -23 44 -26 47 -20 18 23 -112 125 -161 214 -102 18 12 60 18 156 22 121 6 139 10 256 52 69 24 139 51 155 59 16 9 70 30 119 48 177 63 338 163 456 281 178 178 313 457 352 727 9 64 7 94 -13 215 -13 78 -28 148 -33 155 -5 7 -7 15 -4 18 7 7 -48 120 -63 129 -10 6 -59 105 -81 163 -6 18 -24 39 -40 47 -34 18 -111 18 -158 1z" transform="translate(0,215) scale(0.1,-0.1)" stroke="none" fill="#696959"/>

<path d="M1245 2025 c-304 -50 -570 -143 -693 -242 -122 -98 -165 -136 -215 -192 -67 -76 -86 -108 -149 -251 -53 -121 -73 -195 -89 -335 -24 -208 7 -439 77 -565 22 -39 24 -52 18 -107 -6 -56 -3 -69 20 -118 37 -74 68 -98 120 -89 21 3 55 13 75 21 20 9 68 17 106 18 39 1 78 6 87 10 9 4 22 4 27 0 6 -3 8 0 5 8 -4 11 7 13 53 12 44 -2 82 6 158 33 55 20 106 42 113 49 7 7 24 13 37 13 13 0 26 4 29 9 3 5 23 12 43 16 87 16 333 154 436 245 58 51 162 177 171 208 4 12 11 22 15 22 5 0 25 35 46 77 21 43 45 94 55 113 10 19 27 64 38 100 62 192 82 339 54 395 -9 17 -15 43 -13 59 2 34 -44 200 -65 233 -8 12 -14 28 -14 35 0 8 -9 21 -20 31 -11 9 -20 23 -20 31 0 7 -6 19 -14 25 -7 6 -19 31 -26 55 -7 25 -23 55 -37 68 -25 24 -38 25 -190 16 -21 -1 -65 0 -98 4 -35 4 -93 1 -140 -7z m-15 -244 c0 -11 -9 -23 -21 -26 -27 -9 -33 -1 -19 24 14 26 40 27 40 2z m184 10 c3 -4 3 -11 0 -14 -8 -8 -34 3 -34 14 0 11 27 12 34 0z m-414 -31 c0 -5 -4 -10 -10 -10 -5 0 -10 5 -10 10 0 6 5 10 10 10 6 0 10 -4 10 -10z m306 -88 c-3 -5 -15 -12 -26 -15 -23 -6 -28 21 -8 41 10 10 15 9 26 -2 8 -8 12 -18 8 -24z m-191 -8 c0 -10 -8 -20 -18 -22 -22 -4 -35 27 -16 39 20 12 34 5 34 -17z m263 -96 c-3 -7 -11 -13 -18 -13 -7 0 -15 6 -17 13 -3 7 4 12 17 12 13 0 20 -5 18 -12z m-428 -18 c0 -5 -7 -10 -15 -10 -8 0 -15 5 -15 10 0 6 7 10 15 10 8 0 15 -4 15 -10z m246 -29 c-9 -13 -43 -15 -51 -2 -3 5 2 17 11 26 15 14 19 15 32 2 8 -8 11 -20 8 -26z" transform="translate(0,215) scale(0.1,-0.1)" stroke="none" fill="#C0CCC8"/>

</g>

<g id="2" transform="translate(400.0,0)scale(1,1)">

<path d="M1511 2046 c-25 -9 -49 -9 -89 -2 -90 16 -278 -15 -540 -90 -187 -53 -356 -156 -507 -308 -83 -84 -154 -180 -142 -193 3 -3 14 12 25 33 11 21 46 68 78 104 51 57 94 95 216 193 126 101 399 195 701 242 77 12 113 13 165 5 50 -8 78 -8 110 1 55 15 118 6 147 -21 12 -12 28 -41 35 -66 7 -24 19 -49 26 -55 8 -6 14 -18 14 -25 0 -8 9 -22 20 -31 11 -10 20 -23 20 -31 0 -7 6 -23 14 -35 21 -33 67 -199 65 -233 -2 -16 4 -42 13 -59 28 -56 8 -203 -54 -395 -11 -36 -28 -81 -38 -100 -10 -19 -34 -70 -55 -112 -21 -43 -41 -78 -46 -78 -4 0 -11 -10 -15 -22 -9 -31 -113 -157 -171 -208 -103 -91 -349 -229 -436 -245 -20 -4 -40 -11 -43 -16 -3 -5 -16 -9 -29 -9 -13 0 -30 -6 -37 -13 -7 -7 -58 -29 -113 -49 -76 -27 -114 -35 -158 -33 -44 1 -57 -1 -53 -11 3 -8 0 -11 -9 -8 -8 3 -20 2 -26 -2 -7 -4 -45 -8 -83 -9 -39 -2 -87 -9 -107 -18 -20 -8 -54 -18 -75 -21 -51 -9 -82 14 -119 87 -23 44 -26 47 -20 18 23 -112 125 -161 214 -102 18 12 60 18 156 22 121 6 139 10 256 52 69 24 139 51 155 59 16 9 70 30 119 48 177 63 338 163 456 281 178 178 313 457 352 727 9 64 7 94 -13 215 -13 78 -28 148 -33 155 -5 7 -7 15 -4 18 7 7 -48 120 -63 129 -10 6 -59 105 -81 163 -6 18 -24 39 -40 47 -34 18 -111 18 -158 1z" transform="translate(0,215) scale(0.1,-0.1)" stroke="none" fill="#696959"/>

<path d="M1245 2025 c-304 -50 -570 -143 -693 -242 -122 -98 -165 -136 -215 -192 -67 -76 -86 -108 -149 -251 -53 -121 -73 -195 -89 -335 -24 -208 7 -439 77 -565 22 -39 24 -52 18 -107 -6 -56 -3 -69 20 -118 37 -74 68 -98 120 -89 21 3 55 13 75 21 20 9 68 17 106 18 39 1 78 6 87 10 9 4 22 4 27 0 6 -3 8 0 5 8 -4 11 7 13 53 12 44 -2 82 6 158 33 55 20 106 42 113 49 7 7 24 13 37 13 13 0 26 4 29 9 3 5 23 12 43 16 87 16 333 154 436 245 58 51 162 177 171 208 4 12 11 22 15 22 5 0 25 35 46 77 21 43 45 94 55 113 10 19 27 64 38 100 62 192 82 339 54 395 -9 17 -15 43 -13 59 2 34 -44 200 -65 233 -8 12 -14 28 -14 35 0 8 -9 21 -20 31 -11 9 -20 23 -20 31 0 7 -6 19 -14 25 -7 6 -19 31 -26 55 -7 25 -23 55 -37 68 -25 24 -38 25 -190 16 -21 -1 -65 0 -98 4 -35 4 -93 1 -140 -7z m-15 -244 c0 -11 -9 -23 -21 -26 -27 -9 -33 -1 -19 24 14 26 40 27 40 2z m184 10 c3 -4 3 -11 0 -14 -8 -8 -34 3 -34 14 0 11 27 12 34 0z m-414 -31 c0 -5 -4 -10 -10 -10 -5 0 -10 5 -10 10 0 6 5 10 10 10 6 0 10 -4 10 -10z m306 -88 c-3 -5 -15 -12 -26 -15 -23 -6 -28 21 -8 41 10 10 15 9 26 -2 8 -8 12 -18 8 -24z m-191 -8 c0 -10 -8 -20 -18 -22 -22 -4 -35 27 -16 39 20 12 34 5 34 -17z m263 -96 c-3 -7 -11 -13 -18 -13 -7 0 -15 6 -17 13 -3 7 4 12 17 12 13 0 20 -5 18 -12z m-428 -18 c0 -5 -7 -10 -15 -10 -8 0 -15 5 -15 10 0 6 7 10 15 10 8 0 15 -4 15 -10z m246 -29 c-9 -13 -43 -15 -51 -2 -3 5 2 17 11 26 15 14 19 15 32 2 8 -8 11 -20 8 -26z" transform="translate(0,215) scale(0.1,-0.1)" stroke="none" fill="#C0CCC8"/>

</g>

<g id="3" transform="translate(600.0,0)scale(1,1)">

<path d="M1511 2046 c-25 -9 -49 -9 -89 -2 -90 16 -278 -15 -540 -90 -187 -53 -356 -156 -507 -308 -83 -84 -154 -180 -142 -193 3 -3 14 12 25 33 11 21 46 68 78 104 51 57 94 95 216 193 126 101 399 195 701 242 77 12 113 13 165 5 50 -8 78 -8 110 1 55 15 118 6 147 -21 12 -12 28 -41 35 -66 7 -24 19 -49 26 -55 8 -6 14 -18 14 -25 0 -8 9 -22 20 -31 11 -10 20 -23 20 -31 0 -7 6 -23 14 -35 21 -33 67 -199 65 -233 -2 -16 4 -42 13 -59 28 -56 8 -203 -54 -395 -11 -36 -28 -81 -38 -100 -10 -19 -34 -70 -55 -112 -21 -43 -41 -78 -46 -78 -4 0 -11 -10 -15 -22 -9 -31 -113 -157 -171 -208 -103 -91 -349 -229 -436 -245 -20 -4 -40 -11 -43 -16 -3 -5 -16 -9 -29 -9 -13 0 -30 -6 -37 -13 -7 -7 -58 -29 -113 -49 -76 -27 -114 -35 -158 -33 -44 1 -57 -1 -53 -11 3 -8 0 -11 -9 -8 -8 3 -20 2 -26 -2 -7 -4 -45 -8 -83 -9 -39 -2 -87 -9 -107 -18 -20 -8 -54 -18 -75 -21 -51 -9 -82 14 -119 87 -23 44 -26 47 -20 18 23 -112 125 -161 214 -102 18 12 60 18 156 22 121 6 139 10 256 52 69 24 139 51 155 59 16 9 70 30 119 48 177 63 338 163 456 281 178 178 313 457 352 727 9 64 7 94 -13 215 -13 78 -28 148 -33 155 -5 7 -7 15 -4 18 7 7 -48 120 -63 129 -10 6 -59 105 -81 163 -6 18 -24 39 -40 47 -34 18 -111 18 -158 1z" transform="translate(0,215) scale(0.1,-0.1)" stroke="none" fill="#696959"/>

<path d="M1245 2025 c-304 -50 -570 -143 -693 -242 -122 -98 -165 -136 -215 -192 -67 -76 -86 -108 -149 -251 -53 -121 -73 -195 -89 -335 -24 -208 7 -439 77 -565 22 -39 24 -52 18 -107 -6 -56 -3 -69 20 -118 37 -74 68 -98 120 -89 21 3 55 13 75 21 20 9 68 17 106 18 39 1 78 6 87 10 9 4 22 4 27 0 6 -3 8 0 5 8 -4 11 7 13 53 12 44 -2 82 6 158 33 55 20 106 42 113 49 7 7 24 13 37 13 13 0 26 4 29 9 3 5 23 12 43 16 87 16 333 154 436 245 58 51 162 177 171 208 4 12 11 22 15 22 5 0 25 35 46 77 21 43 45 94 55 113 10 19 27 64 38 100 62 192 82 339 54 395 -9 17 -15 43 -13 59 2 34 -44 200 -65 233 -8 12 -14 28 -14 35 0 8 -9 21 -20 31 -11 9 -20 23 -20 31 0 7 -6 19 -14 25 -7 6 -19 31 -26 55 -7 25 -23 55 -37 68 -25 24 -38 25 -190 16 -21 -1 -65 0 -98 4 -35 4 -93 1 -140 -7z m-15 -244 c0 -11 -9 -23 -21 -26 -27 -9 -33 -1 -19 24 14 26 40 27 40 2z m184 10 c3 -4 3 -11 0 -14 -8 -8 -34 3 -34 14 0 11 27 12 34 0z m-414 -31 c0 -5 -4 -10 -10 -10 -5 0 -10 5 -10 10 0 6 5 10 10 10 6 0 10 -4 10 -10z m306 -88 c-3 -5 -15 -12 -26 -15 -23 -6 -28 21 -8 41 10 10 15 9 26 -2 8 -8 12 -18 8 -24z m-191 -8 c0 -10 -8 -20 -18 -22 -22 -4 -35 27 -16 39 20 12 34 5 34 -17z m263 -96 c-3 -7 -11 -13 -18 -13 -7 0 -15 6 -17 13 -3 7 4 12 17 12 13 0 20 -5 18 -12z m-428 -18 c0 -5 -7 -10 -15 -10 -8 0 -15 5 -15 10 0 6 7 10 15 10 8 0 15 -4 15 -10z m246 -29 c-9 -13 -43 -15 -51 -2 -3 5 2 17 11 26 15 14 19 15 32 2 8 -8 11 -20 8 -26z" transform="translate(0,215) scale(0.1,-0.1)" stroke="none" fill="#C0CCC8"/>

</g>

<g id="4" transform="translate(800.0,0)scale(1,1)">

<path d="M1511 2046 c-25 -9 -49 -9 -89 -2 -90 16 -278 -15 -540 -90 -187 -53 -356 -156 -507 -308 -83 -84 -154 -180 -142 -193 3 -3 14 12 25 33 11 21 46 68 78 104 51 57 94 95 216 193 126 101 399 195 701 242 77 12 113 13 165 5 50 -8 78 -8 110 1 55 15 118 6 147 -21 12 -12 28 -41 35 -66 7 -24 19 -49 26 -55 8 -6 14 -18 14 -25 0 -8 9 -22 20 -31 11 -10 20 -23 20 -31 0 -7 6 -23 14 -35 21 -33 67 -199 65 -233 -2 -16 4 -42 13 -59 28 -56 8 -203 -54 -395 -11 -36 -28 -81 -38 -100 -10 -19 -34 -70 -55 -112 -21 -43 -41 -78 -46 -78 -4 0 -11 -10 -15 -22 -9 -31 -113 -157 -171 -208 -103 -91 -349 -229 -436 -245 -20 -4 -40 -11 -43 -16 -3 -5 -16 -9 -29 -9 -13 0 -30 -6 -37 -13 -7 -7 -58 -29 -113 -49 -76 -27 -114 -35 -158 -33 -44 1 -57 -1 -53 -11 3 -8 0 -11 -9 -8 -8 3 -20 2 -26 -2 -7 -4 -45 -8 -83 -9 -39 -2 -87 -9 -107 -18 -20 -8 -54 -18 -75 -21 -51 -9 -82 14 -119 87 -23 44 -26 47 -20 18 23 -112 125 -161 214 -102 18 12 60 18 156 22 121 6 139 10 256 52 69 24 139 51 155 59 16 9 70 30 119 48 177 63 338 163 456 281 178 178 313 457 352 727 9 64 7 94 -13 215 -13 78 -28 148 -33 155 -5 7 -7 15 -4 18 7 7 -48 120 -63 129 -10 6 -59 105 -81 163 -6 18 -24 39 -40 47 -34 18 -111 18 -158 1z" transform="translate(0,215) scale(0.1,-0.1)" stroke="none" fill="#696959"/>

<path d="M1245 2025 c-304 -50 -570 -143 -693 -242 -122 -98 -165 -136 -215 -192 -67 -76 -86 -108 -149 -251 -53 -121 -73 -195 -89 -335 -24 -208 7 -439 77 -565 22 -39 24 -52 18 -107 -6 -56 -3 -69 20 -118 37 -74 68 -98 120 -89 21 3 55 13 75 21 20 9 68 17 106 18 39 1 78 6 87 10 9 4 22 4 27 0 6 -3 8 0 5 8 -4 11 7 13 53 12 44 -2 82 6 158 33 55 20 106 42 113 49 7 7 24 13 37 13 13 0 26 4 29 9 3 5 23 12 43 16 87 16 333 154 436 245 58 51 162 177 171 208 4 12 11 22 15 22 5 0 25 35 46 77 21 43 45 94 55 113 10 19 27 64 38 100 62 192 82 339 54 395 -9 17 -15 43 -13 59 2 34 -44 200 -65 233 -8 12 -14 28 -14 35 0 8 -9 21 -20 31 -11 9 -20 23 -20 31 0 7 -6 19 -14 25 -7 6 -19 31 -26 55 -7 25 -23 55 -37 68 -25 24 -38 25 -190 16 -21 -1 -65 0 -98 4 -35 4 -93 1 -140 -7z m-15 -244 c0 -11 -9 -23 -21 -26 -27 -9 -33 -1 -19 24 14 26 40 27 40 2z m184 10 c3 -4 3 -11 0 -14 -8 -8 -34 3 -34 14 0 11 27 12 34 0z m-414 -31 c0 -5 -4 -10 -10 -10 -5 0 -10 5 -10 10 0 6 5 10 10 10 6 0 10 -4 10 -10z m306 -88 c-3 -5 -15 -12 -26 -15 -23 -6 -28 21 -8 41 10 10 15 9 26 -2 8 -8 12 -18 8 -24z m-191 -8 c0 -10 -8 -20 -18 -22 -22 -4 -35 27 -16 39 20 12 34 5 34 -17z m263 -96 c-3 -7 -11 -13 -18 -13 -7 0 -15 6 -17 13 -3 7 4 12 17 12 13 0 20 -5 18 -12z m-428 -18 c0 -5 -7 -10 -15 -10 -8 0 -15 5 -15 10 0 6 7 10 15 10 8 0 15 -4 15 -10z m246 -29 c-9 -13 -43 -15 -51 -2 -3 5 2 17 11 26 15 14 19 15 32 2 8 -8 11 -20 8 -26z" transform="translate(0,215) scale(0.1,-0.1)" stroke="none" fill="#C0CCC8"/>

</g>

</g>
</svg>