<?xml version="1.0" standalone="no"?>
<!DOCTYPE svg PUBLIC "-//W3C//DTD SVG 20010904//EN"
 "http://www.w3.org/TR/2001/REC-SVG-20010904/DTD/svg10.dtd">
<svg version="1.0" xmlns="http://www.w3.org/2000/svg" width="404pt" height="232pt" viewBox="0 0 404 232" preserveAspectRatio = "xMidYMid meet" >
<metadata>
Created by ZoeQu, written in 2022
</metadata>
<rect width="404" height="232" fill="#324144"/>
<g id="col0" transform="translate(0, 7)">
<g id="0" transform="translate(0,0.0)scale(0.8,0.8)">

<path d="M609 525 c-18 -10 -52 -14 -100 -12 l-74 2 -66 -51 c-47 -36 -83 -55 -120 -64 -30 -7 -68 -23 -86 -36 -39 -30 -101 -153 -105 -209 l-3 -40 77 -39 c95 -48 163 -53 246 -18 29 13 89 27 133 32 130 15 201 56 255 147 17 30 42 53 80 74 55 31 90 69 112 121 11 27 10 29 -28 48 -25 13 -59 20 -94 20 -32 0 -71 8 -97 20 -52 23 -94 25 -130 5z" transform="translate(0,58) scale(0.1,-0.1)" stroke="none" fill="#617376"/>

</g>

<g id="1" transform="translate(0,58.0)scale(0.8,0.8)">

<path d="M609 525 c-18 -10 -52 -14 -100 -12 l-74 2 -66 -51 c-47 -36 -83 -55 -120 -64 -30 -7 -68 -23 -86 -36 -39 -30 -101 -153 -105 -209 l-3 -40 77 -39 c95 -48 163 -53 246 -18 29 13 89 27 133 32 130 15 201 56 255 147 17 30 42 53 80 74 55 31 90 69 112 121 11 27 10 29 -28 48 -25 13 -59 20 -94 20 -32 0 -71 8 -97 20 -52 23 -94 25 -130 5z" transform="translate(0,58) scale(0.1,-0.1)" stroke="none" fill="#617376"/>

</g>

<g id="2" transform="translate(0,116.0)scale(0.8,0.8)">

<path d="M609 525 c-18 -10 -52 -14 -100 -12 l-74 2 -66 -51 c-47 -36 -83 -55 -120 -64 -30 -7 -68 -23 -86 -36 -39 -30 -101 -153 -105 -209 l-3 -40 77 -39 c95 -48 163 -53 246 -18 29 13 89 27 133 32 130 15 201 56 255 147 17 30 42 53 80 74 55 31 90 69 112 121 11 27 10 29 -28 48 -25 13 -59 20 -94 20 -32 0 -71 8 -97 20 -52 23 -94 25 -130 5z" transform="translate(0,58) scale(0.1,-0.1)" stroke="none" fill="#617376"/>

</g>

<g id="3" transform="translate(0,174.0)scale(0.8,0.8)">

<path d="M609 525 c-18 -10 -52 -14 -100 -12 l-74 2 -66 -51 c-47 -36 -83 -55 -120 -64 -30 -7 -68 -23 -86 -36 -39 -30 -101 -153 -105 -209 l-3 -40 77 -39 c95 -48 163 -53 246 -18 29 13 89 27 133 32 130 15 201 56 255 147 17 30 42 53 80 74 55 31 90 69 112 121 11 27 10 29 -28 48 -25 13 -59 20 -94 20 -32 0 -71 8 -97 20 -52 23 -94 25 -130 5z" transform="translate(0,58) scale(0.1,-0.1)" stroke="none" fill="#617376"/>

</g>

<g id="4" transform="translate(0,232.0)scale(0.8,0.8)">

<path d="M609 525 c-18 -10 -52 -14 -100 -12 l-74 2 -66 -51 c-47 -36 -83 -55 -120 -64 -30 -7 -68 -23 -86 -36 -39 -30 -101 -153 -105 -209 l-3 -40 77 -39 c95 -48 163 -53 246 -18 29 13 89 27 133 32 130 15 201 56 255 147 17 30 42 53 80 74 55 31 90 69 112 121 11 27 10 29 -28 48 -25 13 -59 20 -94 20 -32 0 -71 8 -97 20 -52 23 -94 25 -130 5z" transform="translate(0,58) scale(0.1,-0.1)" stroke="none" fill="#617376"/>

</g>

</g>
<g id="col1" transform="translate(101, -22.0)">
<g id="0" transform="translate(0,0.0)scale(0.8,0.8)">

<path d="M609 525 c-18 -10 -52 -14 -100 -12 l-74 2 -66 -51 c-47 -36 -83 -55 -120 -64 -30 -7 -68 -23 -86 -36 -39 -30 -101 -153 -105 -209 l-3 -40 77 -39 c95 -48 163 -53 246 -18 29 13 89 27 133 32 130 15 201 56 255 147 17 30 42 53 80 74 55 31 90 69 112 121 11 27 10 29 -28 48 -25 13 -59 20 -94 20 -32 0 -71 8 -97 20 -52 23 -94 25 -130 5z" transform="translate(0,58) scale(0.1,-0.1)" stroke="none" fill="#617376"/>

</g>

<g id="1" transform="translate(0,58.0)scale(0.8,0.8)">

<path d="M609 525 c-18 -10 -52 -14 -100 -12 l-74 2 -66 -51 c-47 -36 -83 -55 -120 -64 -30 -7 -68 -23 -86 -36 -39 -30 -101 -153 -105 -209 l-3 -40 77 -39 c95 -48 163 -53 246 -18 29 13 89 27 133 32 130 15 201 56 255 147 17 30 42 53 80 74 55 31 90 69 112 121 11 27 10 29 -28 48 -25 13 -59 20 -94 20 -32 0 -71 8 -97 20 -52 23 -94 25 -130 5z" transform="translate(0,58) scale(0.1,-0.1)" stroke="none" fill="#617376"/>

</g>

<g id="2" transform="translate(0,116.0)scale(0.8,0.8)">

<path d="M609 525 c-18 -10 -52 -14 -100 -12 l-74 2 -66 -51 c-47 -36 -83 -55 -120 -64 -30 -7 -68 -23 -86 -36 -39 -30 -101 -153 -105 -209 l-3 -40 77 -39 c95 -48 163 -53 246 -18 29 13 89 27 133 32 130 15 201 56 255 147 17 30 42 53 80 74 55 31 90 69 112 121 11 27 10 29 -28 48 -25 13 -59 20 -94 20 -32 0 -71 8 -97 20 -52 23 -94 25 -130 5z" transform="translate(0,58) scale(0.1,-0.1)" stroke="none" fill="#617376"/>

</g>

<g id="3" transform="translate(0,174.0)scale(0.8,0.8)">

<path d="M609 525 c-18 -10 -52 -14 -100 -12 l-74 2 -66 -51 c-47 -36 -83 -55 -120 -64 -30 -7 -68 -23 -86 -36 -39 -30 -101 -153 -105 -209 l-3 -40 77 -39 c95 -48 163 -53 246 -18 29 13 89 27 133 32 130 15 201 56 255 147 17 30 42 53 80 74 55 31 90 69 112 121 11 27 10 29 -28 48 -25 13 -59 20 -94 20 -32 0 -71 8 -97 20 -52 23 -94 25 -130 5z" transform="translate(0,58) scale(0.1,-0.1)" stroke="none" fill="#617376"/>

</g>

<g id="4" transform="translate(0,232.0)scale(0.8,0.8)">

<path d="M609 525 c-18 -10 -52 -14 -100 -12 l-74 2 -66 -51 c-47 -36 -83 -55 -120 -64 -30 -7 -68 -23 -86 -36 -39 -30 -101 -153 -105 -209 l-3 -40 77 -39 c95 -48 163 -53 246 -18 29 13 89 27 133 32 130 15 201 56 255 147 17 30 42 53 80 74 55 31 90 69 112 121 11 27 10 29 -28 48 -25 13 -59 20 -94 20 -32 0 -71 8 -97 20 -52 23 -94 25 -130 5z" transform="translate(0,58) scale(0.1,-0.1)" stroke="none" fill="#617376"/>

</g>

</g>
<g id="col2" transform="translate(202, 7)">
<g id="0" transform="translate(0,0.0)scale(0.8,0.8)">

<path d="M609 525 c-18 -10 -52 -14 -100 -12 l-74 2 -66 -51 c-47 -36 -83 -55 -120 -64 -30 -7 -68 -23 -86 -36 -39 -30 -101 -153 -105 -209 l-3 -40 77 -39 c95 -48 163 -53 246 -18 29 13 89 27 133 32 130 15 201 56 255 147 17 30 42 53 80 74 55 31 90 69 112 121 11 27 10 29 -28 48 -25 13 -59 20 -94 20 -32 0 -71 8 -97 20 -52 23 -94 25 -130 5z" transform="translate(0,58) scale(0.1,-0.1)" stroke="none" fill="#617376"/>

</g>

<g id="1" transform="translate(0,58.0)scale(0.8,0.8)">

<path d="M609 525 c-18 -10 -52 -14 -100 -12 l-74 2 -66 -51 c-47 -36 -83 -55 -120 -64 -30 -7 -68 -23 -86 -36 -39 -30 -101 -153 -105 -209 l-3 -40 77 -39 c95 -48 163 -53 246 -18 29 13 89 27 133 32 130 15 201 56 255 147 17 30 42 53 80 74 55 31 90 69 112 121 11 27 10 29 -28 48 -25 13 -59 20 -94 20 -32 0 -71 8 -97 20 -52 23 -94 25 -130 5z" transform="translate(0,58) scale(0.1,-0.1)" stroke="none" fill="#617376"/>

</g>

<g id="2" transform="translate(0,116.0)scale(0.8,0.8)">

<path d="M609 525 c-18 -10 -52 -14 -100 -12 l-74 2 -66 -51 c-47 -36 -83 -55 -120 -64 -30 -7 -68 -23 -86 -36 -39 -30 -101 -153 -105 -209 l-3 -40 77 -39 c95 -48 163 -53 246 -18 29 13 89 27 133 32 130 15 201 56 255 147 17 30 42 53 80 74 55 31 90 69 112 121 11 27 10 29 -28 48 -25 13 -59 20 -94 20 -32 0 -71 8 -97 20 -52 23 -94 25 -130 5z" transform="translate(0,58) scale(0.1,-0.1)" stroke="none" fill="#617376"/>

</g>

<g id="3" transform="translate(0,174.0)scale(0.8,0.8)">

<path d="M609 525 c-18 -10 -52 -14 -100 -12 l-74 2 -66 -51 c-47 -36 -83 -55 -120 -64 -30 -7 -68 -23 -86 -36 -39 -30 -101 -153 -105 -209 l-3 -40 77 -39 c95 -48 163 -53 246 -18 29 13 89 27 133 32 130 15 201 56 255 147 17 30 42 53 80 74 55 31 90 69 112 121 11 27 10 29 -28 48 -25 13 -59 20 -94 20 -32 0 -71 8 -97 20 -52 23 -94 25 -130 5z" transform="translate(0,58) scale(0.1,-0.1)" stroke="none" fill="#617376"/>

</g>

<g id="4" transform="translate(0,232.0)scale(0.8,0.8)">

<path d="M609 525 c-18 -10 -52 -14 -100 -12 l-74 2 -66 -51 c-47 -36 -83 -55 -120 -64 -30 -7 -68 -23 -86 -36 -39 -30 -101 -153 -105 -209 l-3 -40 77 -39 c95 -48 163 -53 246 -18 29 13 89 27 133 32 130 15 201 56 255 147 17 30 42 53 80 74 55 31 90 69 112 121 11 27 10 29 -28 48 -25 13 -59 20 -94 20 -32 0 -71 8 -97 20 -52 23 -94 25 -130 5z" transform="translate(0,58) scale(0.1,-0.1)" stroke="none" fill="#617376"/>

</g>

</g>
<g id="col3" transform="translate(303, -22.0)">
<g id="0" transform="translate(0,0.0)scale(0.8,0.8)">

<path d="M609 525 c-18 -10 -52 -14 -100 -12 l-74 2 -66 -51 c-47 -36 -83 -55 -120 -64 -30 -7 -68 -23 -86 -36 -39 -30 -101 -153 -105 -209 l-3 -40 77 -39 c95 -48 163 -53 246 -18 29 13 89 27 133 32 130 15 201 56 255 147 17 30 42 53 80 74 55 31 90 69 112 121 11 27 10 29 -28 48 -25 13 -59 20 -94 20 -32 0 -71 8 -97 20 -52 23 -94 25 -130 5z" transform="translate(0,58) scale(0.1,-0.1)" stroke="none" fill="#617376"/>

</g>

<g id="1" transform="translate(0,58.0)scale(0.8,0.8)">

<path d="M609 525 c-18 -10 -52 -14 -100 -12 l-74 2 -66 -51 c-47 -36 -83 -55 -120 -64 -30 -7 -68 -23 -86 -36 -39 -30 -101 -153 -105 -209 l-3 -40 77 -39 c95 -48 163 -53 246 -18 29 13 89 27 133 32 130 15 201 56 255 147 17 30 42 53 80 74 55 31 90 69 112 121 11 27 10 29 -28 48 -25 13 -59 20 -94 20 -32 0 -71 8 -97 20 -52 23 -94 25 -130 5z" transform="translate(0,58) scale(0.1,-0.1)" stroke="none" fill="#617376"/>

</g>

<g id="2" transform="translate(0,116.0)scale(0.8,0.8)">

<path d="M609 525 c-18 -10 -52 -14 -100 -12 l-74 2 -66 -51 c-47 -36 -83 -55 -120 -64 -30 -7 -68 -23 -86 -36 -39 -30 -101 -153 -105 -209 l-3 -40 77 -39 c95 -48 163 -53 246 -18 29 13 89 27 133 32 130 15 201 56 255 147 17 30 42 53 80 74 55 31 90 69 112 121 11 27 10 29 -28 48 -25 13 -59 20 -94 20 -32 0 -71 8 -97 20 -52 23 -94 25 -130 5z" transform="translate(0,58) scale(0.1,-0.1)" stroke="none" fill="#617376"/>

</g>

<g id="3" transform="translate(0,174.0)scale(0.8,0.8)">

<path d="M609 525 c-18 -10 -52 -14 -100 -12 l-74 2 -66 -51 c-47 -36 -83 -55 -120 -64 -30 -7 -68 -23 -86 -36 -39 -30 -101 -153 -105 -209 l-3 -40 77 -39 c95 -48 163 -53 246 -18 29 13 89 27 133 32 130 15 201 56 255 147 17 30 42 53 80 74 55 31 90 69 112 121 11 27 10 29 -28 48 -25 13 -59 20 -94 20 -32 0 -71 8 -97 20 -52 23 -94 25 -130 5z" transform="translate(0,58) scale(0.1,-0.1)" stroke="none" fill="#617376"/>

</g>

<g id="4" transform="translate(0,232.0)scale(0.8,0.8)">

<path d="M609 525 c-18 -10 -52 -14 -100 -12 l-74 2 -66 -51 c-47 -36 -83 -55 -120 -64 -30 -7 -68 -23 -86 -36 -39 -30 -101 -153 -105 -209 l-3 -40 77 -39 c95 -48 163 -53 246 -18 29 13 89 27 133 32 130 15 201 56 255 147 17 30 42 53 80 74 55 31 90 69 112 121 11 27 10 29 -28 48 -25 13 -59 20 -94 20 -32 0 -71 8 -97 20 -52 23 -94 25 -130 5z" transform="translate(0,58) scale(0.1,-0.1)" stroke="none" fill="#617376"/>

</g>

</g>
</svg>