<?xml version="1.0" standalone="no"?>
<!DOCTYPE svg PUBLIC "-//W3C//DTD SVG 20010904//EN"
 "http://www.w3.org/TR/2001/REC-SVG-20010904/DTD/svg10.dtd">
<svg version="1.0" xmlns="http://www.w3.org/2000/svg" width="6324pt" height="6324pt" viewBox="0 0 6324 6324" preserveAspectRatio = "xMidYMid meet" >
<metadata>
Created by ZoeQu, written in 2022
</metadata>
<rect width="6324" height="6324" fill="#FA8D1C"/>
<g id="row0" transform="translate(0,0.0)">
<g id="0" transform="translate(0.0,0)scale(0.25,0.25)">

<g id="pattern">
<rect width="6851" height="6851" fill="#FA8D1C"/>
<g id="pattern1" transform="matrix(1,0,0,1,426,426)">
<path d="M1135 960 c-14 -14 -36 -21 -73 -22 -41 -2 -52 -7 -52 -20 0 -10 -14 -21 -37 -29 -21 -6 -60 -22 -88 -34 -58 -25 -74 -31 -260 -95 -174 -59 -324 -115 -393 -146 -29 -13 -55 -24 -59 -24 -3 0 -35 -14 -70 -30 -51 -24 -62 -34 -54 -44 15 -17 147 -86 166 -86 8 0 38 -15 67 -32 29 -18 62 -34 73 -36 11 -2 47 -16 80 -32 132 -63 262 -117 293 -123 30 -6 103 -32 212 -77 25 -10 74 -26 109 -35 35 -9 74 -23 87 -31 12 -9 35 -14 51 -12 23 2 33 14 61 69 34 68 43 116 56 294 4 44 8 107 11 140 3 33 7 83 9 110 7 102 -33 284 -68 307 -24 16 -101 8 -121 -12z" transform="translate(0.000000,0.000000) scale(1,1)" stroke="none" fill="#AAC8C7"/>
</g>
<g id="pattern2" transform="matrix(0.618,0,0,0.618,3246,953)">
<path d="M1135 960 c-14 -14 -36 -21 -73 -22 -41 -2 -52 -7 -52 -20 0 -10 -14 -21 -37 -29 -21 -6 -60 -22 -88 -34 -58 -25 -74 -31 -260 -95 -174 -59 -324 -115 -393 -146 -29 -13 -55 -24 -59 -24 -3 0 -35 -14 -70 -30 -51 -24 -62 -34 -54 -44 15 -17 147 -86 166 -86 8 0 38 -15 67 -32 29 -18 62 -34 73 -36 11 -2 47 -16 80 -32 132 -63 262 -117 293 -123 30 -6 103 -32 212 -77 25 -10 74 -26 109 -35 35 -9 74 -23 87 -31 12 -9 35 -14 51 -12 23 2 33 14 61 69 34 68 43 116 56 294 4 44 8 107 11 140 3 33 7 83 9 110 7 102 -33 284 -68 307 -24 16 -101 8 -121 -12z" transform="translate(4300,0.000000) scale(-1,1)" stroke="none" fill="#AAC8C7"/>
</g>
<g id="pattern3" transform="matrix(0.618,0,0,0.618,1217,4300)matrix(0.71,0.71,-0.71,0.71,0,0)">
<path d="M1135 960 c-14 -14 -36 -21 -73 -22 -41 -2 -52 -7 -52 -20 0 -10 -14 -21 -37 -29 -21 -6 -60 -22 -88 -34 -58 -25 -74 -31 -260 -95 -174 -59 -324 -115 -393 -146 -29 -13 -55 -24 -59 -24 -3 0 -35 -14 -70 -30 -51 -24 -62 -34 -54 -44 15 -17 147 -86 166 -86 8 0 38 -15 67 -32 29 -18 62 -34 73 -36 11 -2 47 -16 80 -32 132 -63 262 -117 293 -123 30 -6 103 -32 212 -77 25 -10 74 -26 109 -35 35 -9 74 -23 87 -31 12 -9 35 -14 51 -12 23 2 33 14 61 69 34 68 43 116 56 294 4 44 8 107 11 140 3 33 7 83 9 110 7 102 -33 284 -68 307 -24 16 -101 8 -121 -12z" transform="translate(690,-690) scale(1,1)" stroke="none" fill="#AAC8C7"/>
</g>
<g id="pattern4" transform="matrix(1.618,0,0,1.618,1804,1804)matrix(0.87,0.5,-0.5,0.87,0,0)">
<path d="M1135 960 c-14 -14 -36 -21 -73 -22 -41 -2 -52 -7 -52 -20 0 -10 -14 -21 -37 -29 -21 -6 -60 -22 -88 -34 -58 -25 -74 -31 -260 -95 -174 -59 -324 -115 -393 -146 -29 -13 -55 -24 -59 -24 -3 0 -35 -14 -70 -30 -51 -24 -62 -34 -54 -44 15 -17 147 -86 166 -86 8 0 38 -15 67 -32 29 -18 62 -34 73 -36 11 -2 47 -16 80 -32 132 -63 262 -117 293 -123 30 -6 103 -32 212 -77 25 -10 74 -26 109 -35 35 -9 74 -23 87 -31 12 -9 35 -14 51 -12 23 2 33 14 61 69 34 68 43 116 56 294 4 44 8 107 11 140 3 33 7 83 9 110 7 102 -33 284 -68 307 -24 16 -101 8 -121 -12z" transform="translate(690,-690) scale(1,1)" stroke="none" fill="#AAC8C7"/>
</g>
</g>
</g>

<g id="1" transform="translate(1581.0,0)scale(0.25,0.25)">

<g id="pattern">
<rect width="6851" height="6851" fill="#FA8D1C"/>
<g id="pattern1" transform="matrix(1,0,0,1,426,426)">
<path d="M1135 960 c-14 -14 -36 -21 -73 -22 -41 -2 -52 -7 -52 -20 0 -10 -14 -21 -37 -29 -21 -6 -60 -22 -88 -34 -58 -25 -74 -31 -260 -95 -174 -59 -324 -115 -393 -146 -29 -13 -55 -24 -59 -24 -3 0 -35 -14 -70 -30 -51 -24 -62 -34 -54 -44 15 -17 147 -86 166 -86 8 0 38 -15 67 -32 29 -18 62 -34 73 -36 11 -2 47 -16 80 -32 132 -63 262 -117 293 -123 30 -6 103 -32 212 -77 25 -10 74 -26 109 -35 35 -9 74 -23 87 -31 12 -9 35 -14 51 -12 23 2 33 14 61 69 34 68 43 116 56 294 4 44 8 107 11 140 3 33 7 83 9 110 7 102 -33 284 -68 307 -24 16 -101 8 -121 -12z" transform="translate(0.000000,0.000000) scale(1,1)" stroke="none" fill="#AAC8C7"/>
</g>
<g id="pattern2" transform="matrix(0.618,0,0,0.618,3246,953)">
<path d="M1135 960 c-14 -14 -36 -21 -73 -22 -41 -2 -52 -7 -52 -20 0 -10 -14 -21 -37 -29 -21 -6 -60 -22 -88 -34 -58 -25 -74 -31 -260 -95 -174 -59 -324 -115 -393 -146 -29 -13 -55 -24 -59 -24 -3 0 -35 -14 -70 -30 -51 -24 -62 -34 -54 -44 15 -17 147 -86 166 -86 8 0 38 -15 67 -32 29 -18 62 -34 73 -36 11 -2 47 -16 80 -32 132 -63 262 -117 293 -123 30 -6 103 -32 212 -77 25 -10 74 -26 109 -35 35 -9 74 -23 87 -31 12 -9 35 -14 51 -12 23 2 33 14 61 69 34 68 43 116 56 294 4 44 8 107 11 140 3 33 7 83 9 110 7 102 -33 284 -68 307 -24 16 -101 8 -121 -12z" transform="translate(4300,0.000000) scale(-1,1)" stroke="none" fill="#AAC8C7"/>
</g>
<g id="pattern3" transform="matrix(0.618,0,0,0.618,1217,4300)matrix(0.71,0.71,-0.71,0.71,0,0)">
<path d="M1135 960 c-14 -14 -36 -21 -73 -22 -41 -2 -52 -7 -52 -20 0 -10 -14 -21 -37 -29 -21 -6 -60 -22 -88 -34 -58 -25 -74 -31 -260 -95 -174 -59 -324 -115 -393 -146 -29 -13 -55 -24 -59 -24 -3 0 -35 -14 -70 -30 -51 -24 -62 -34 -54 -44 15 -17 147 -86 166 -86 8 0 38 -15 67 -32 29 -18 62 -34 73 -36 11 -2 47 -16 80 -32 132 -63 262 -117 293 -123 30 -6 103 -32 212 -77 25 -10 74 -26 109 -35 35 -9 74 -23 87 -31 12 -9 35 -14 51 -12 23 2 33 14 61 69 34 68 43 116 56 294 4 44 8 107 11 140 3 33 7 83 9 110 7 102 -33 284 -68 307 -24 16 -101 8 -121 -12z" transform="translate(690,-690) scale(1,1)" stroke="none" fill="#AAC8C7"/>
</g>
<g id="pattern4" transform="matrix(1.618,0,0,1.618,1804,1804)matrix(0.87,0.5,-0.5,0.87,0,0)">
<path d="M1135 960 c-14 -14 -36 -21 -73 -22 -41 -2 -52 -7 -52 -20 0 -10 -14 -21 -37 -29 -21 -6 -60 -22 -88 -34 -58 -25 -74 -31 -260 -95 -174 -59 -324 -115 -393 -146 -29 -13 -55 -24 -59 -24 -3 0 -35 -14 -70 -30 -51 -24 -62 -34 -54 -44 15 -17 147 -86 166 -86 8 0 38 -15 67 -32 29 -18 62 -34 73 -36 11 -2 47 -16 80 -32 132 -63 262 -117 293 -123 30 -6 103 -32 212 -77 25 -10 74 -26 109 -35 35 -9 74 -23 87 -31 12 -9 35 -14 51 -12 23 2 33 14 61 69 34 68 43 116 56 294 4 44 8 107 11 140 3 33 7 83 9 110 7 102 -33 284 -68 307 -24 16 -101 8 -121 -12z" transform="translate(690,-690) scale(1,1)" stroke="none" fill="#AAC8C7"/>
</g>
</g>
</g>

<g id="2" transform="translate(3162.0,0)scale(0.25,0.25)">

<g id="pattern">
<rect width="6851" height="6851" fill="#FA8D1C"/>
<g id="pattern1" transform="matrix(1,0,0,1,426,426)">
<path d="M1135 960 c-14 -14 -36 -21 -73 -22 -41 -2 -52 -7 -52 -20 0 -10 -14 -21 -37 -29 -21 -6 -60 -22 -88 -34 -58 -25 -74 -31 -260 -95 -174 -59 -324 -115 -393 -146 -29 -13 -55 -24 -59 -24 -3 0 -35 -14 -70 -30 -51 -24 -62 -34 -54 -44 15 -17 147 -86 166 -86 8 0 38 -15 67 -32 29 -18 62 -34 73 -36 11 -2 47 -16 80 -32 132 -63 262 -117 293 -123 30 -6 103 -32 212 -77 25 -10 74 -26 109 -35 35 -9 74 -23 87 -31 12 -9 35 -14 51 -12 23 2 33 14 61 69 34 68 43 116 56 294 4 44 8 107 11 140 3 33 7 83 9 110 7 102 -33 284 -68 307 -24 16 -101 8 -121 -12z" transform="translate(0.000000,0.000000) scale(1,1)" stroke="none" fill="#AAC8C7"/>
</g>
<g id="pattern2" transform="matrix(0.618,0,0,0.618,3246,953)">
<path d="M1135 960 c-14 -14 -36 -21 -73 -22 -41 -2 -52 -7 -52 -20 0 -10 -14 -21 -37 -29 -21 -6 -60 -22 -88 -34 -58 -25 -74 -31 -260 -95 -174 -59 -324 -115 -393 -146 -29 -13 -55 -24 -59 -24 -3 0 -35 -14 -70 -30 -51 -24 -62 -34 -54 -44 15 -17 147 -86 166 -86 8 0 38 -15 67 -32 29 -18 62 -34 73 -36 11 -2 47 -16 80 -32 132 -63 262 -117 293 -123 30 -6 103 -32 212 -77 25 -10 74 -26 109 -35 35 -9 74 -23 87 -31 12 -9 35 -14 51 -12 23 2 33 14 61 69 34 68 43 116 56 294 4 44 8 107 11 140 3 33 7 83 9 110 7 102 -33 284 -68 307 -24 16 -101 8 -121 -12z" transform="translate(4300,0.000000) scale(-1,1)" stroke="none" fill="#AAC8C7"/>
</g>
<g id="pattern3" transform="matrix(0.618,0,0,0.618,1217,4300)matrix(0.71,0.71,-0.71,0.71,0,0)">
<path d="M1135 960 c-14 -14 -36 -21 -73 -22 -41 -2 -52 -7 -52 -20 0 -10 -14 -21 -37 -29 -21 -6 -60 -22 -88 -34 -58 -25 -74 -31 -260 -95 -174 -59 -324 -115 -393 -146 -29 -13 -55 -24 -59 -24 -3 0 -35 -14 -70 -30 -51 -24 -62 -34 -54 -44 15 -17 147 -86 166 -86 8 0 38 -15 67 -32 29 -18 62 -34 73 -36 11 -2 47 -16 80 -32 132 -63 262 -117 293 -123 30 -6 103 -32 212 -77 25 -10 74 -26 109 -35 35 -9 74 -23 87 -31 12 -9 35 -14 51 -12 23 2 33 14 61 69 34 68 43 116 56 294 4 44 8 107 11 140 3 33 7 83 9 110 7 102 -33 284 -68 307 -24 16 -101 8 -121 -12z" transform="translate(690,-690) scale(1,1)" stroke="none" fill="#AAC8C7"/>
</g>
<g id="pattern4" transform="matrix(1.618,0,0,1.618,1804,1804)matrix(0.87,0.5,-0.5,0.87,0,0)">
<path d="M1135 960 c-14 -14 -36 -21 -73 -22 -41 -2 -52 -7 -52 -20 0 -10 -14 -21 -37 -29 -21 -6 -60 -22 -88 -34 -58 -25 -74 -31 -260 -95 -174 -59 -324 -115 -393 -146 -29 -13 -55 -24 -59 -24 -3 0 -35 -14 -70 -30 -51 -24 -62 -34 -54 -44 15 -17 147 -86 166 -86 8 0 38 -15 67 -32 29 -18 62 -34 73 -36 11 -2 47 -16 80 -32 132 -63 262 -117 293 -123 30 -6 103 -32 212 -77 25 -10 74 -26 109 -35 35 -9 74 -23 87 -31 12 -9 35 -14 51 -12 23 2 33 14 61 69 34 68 43 116 56 294 4 44 8 107 11 140 3 33 7 83 9 110 7 102 -33 284 -68 307 -24 16 -101 8 -121 -12z" transform="translate(690,-690) scale(1,1)" stroke="none" fill="#AAC8C7"/>
</g>
</g>
</g>

<g id="3" transform="translate(4743.0,0)scale(0.25,0.25)">

<g id="pattern">
<rect width="6851" height="6851" fill="#FA8D1C"/>
<g id="pattern1" transform="matrix(1,0,0,1,426,426)">
<path d="M1135 960 c-14 -14 -36 -21 -73 -22 -41 -2 -52 -7 -52 -20 0 -10 -14 -21 -37 -29 -21 -6 -60 -22 -88 -34 -58 -25 -74 -31 -260 -95 -174 -59 -324 -115 -393 -146 -29 -13 -55 -24 -59 -24 -3 0 -35 -14 -70 -30 -51 -24 -62 -34 -54 -44 15 -17 147 -86 166 -86 8 0 38 -15 67 -32 29 -18 62 -34 73 -36 11 -2 47 -16 80 -32 132 -63 262 -117 293 -123 30 -6 103 -32 212 -77 25 -10 74 -26 109 -35 35 -9 74 -23 87 -31 12 -9 35 -14 51 -12 23 2 33 14 61 69 34 68 43 116 56 294 4 44 8 107 11 140 3 33 7 83 9 110 7 102 -33 284 -68 307 -24 16 -101 8 -121 -12z" transform="translate(0.000000,0.000000) scale(1,1)" stroke="none" fill="#AAC8C7"/>
</g>
<g id="pattern2" transform="matrix(0.618,0,0,0.618,3246,953)">
<path d="M1135 960 c-14 -14 -36 -21 -73 -22 -41 -2 -52 -7 -52 -20 0 -10 -14 -21 -37 -29 -21 -6 -60 -22 -88 -34 -58 -25 -74 -31 -260 -95 -174 -59 -324 -115 -393 -146 -29 -13 -55 -24 -59 -24 -3 0 -35 -14 -70 -30 -51 -24 -62 -34 -54 -44 15 -17 147 -86 166 -86 8 0 38 -15 67 -32 29 -18 62 -34 73 -36 11 -2 47 -16 80 -32 132 -63 262 -117 293 -123 30 -6 103 -32 212 -77 25 -10 74 -26 109 -35 35 -9 74 -23 87 -31 12 -9 35 -14 51 -12 23 2 33 14 61 69 34 68 43 116 56 294 4 44 8 107 11 140 3 33 7 83 9 110 7 102 -33 284 -68 307 -24 16 -101 8 -121 -12z" transform="translate(4300,0.000000) scale(-1,1)" stroke="none" fill="#AAC8C7"/>
</g>
<g id="pattern3" transform="matrix(0.618,0,0,0.618,1217,4300)matrix(0.71,0.71,-0.71,0.71,0,0)">
<path d="M1135 960 c-14 -14 -36 -21 -73 -22 -41 -2 -52 -7 -52 -20 0 -10 -14 -21 -37 -29 -21 -6 -60 -22 -88 -34 -58 -25 -74 -31 -260 -95 -174 -59 -324 -115 -393 -146 -29 -13 -55 -24 -59 -24 -3 0 -35 -14 -70 -30 -51 -24 -62 -34 -54 -44 15 -17 147 -86 166 -86 8 0 38 -15 67 -32 29 -18 62 -34 73 -36 11 -2 47 -16 80 -32 132 -63 262 -117 293 -123 30 -6 103 -32 212 -77 25 -10 74 -26 109 -35 35 -9 74 -23 87 -31 12 -9 35 -14 51 -12 23 2 33 14 61 69 34 68 43 116 56 294 4 44 8 107 11 140 3 33 7 83 9 110 7 102 -33 284 -68 307 -24 16 -101 8 -121 -12z" transform="translate(690,-690) scale(1,1)" stroke="none" fill="#AAC8C7"/>
</g>
<g id="pattern4" transform="matrix(1.618,0,0,1.618,1804,1804)matrix(0.87,0.5,-0.5,0.87,0,0)">
<path d="M1135 960 c-14 -14 -36 -21 -73 -22 -41 -2 -52 -7 -52 -20 0 -10 -14 -21 -37 -29 -21 -6 -60 -22 -88 -34 -58 -25 -74 -31 -260 -95 -174 -59 -324 -115 -393 -146 -29 -13 -55 -24 -59 -24 -3 0 -35 -14 -70 -30 -51 -24 -62 -34 -54 -44 15 -17 147 -86 166 -86 8 0 38 -15 67 -32 29 -18 62 -34 73 -36 11 -2 47 -16 80 -32 132 -63 262 -117 293 -123 30 -6 103 -32 212 -77 25 -10 74 -26 109 -35 35 -9 74 -23 87 -31 12 -9 35 -14 51 -12 23 2 33 14 61 69 34 68 43 116 56 294 4 44 8 107 11 140 3 33 7 83 9 110 7 102 -33 284 -68 307 -24 16 -101 8 -121 -12z" transform="translate(690,-690) scale(1,1)" stroke="none" fill="#AAC8C7"/>
</g>
</g>
</g>

<g id="4" transform="translate(6324.0,0)scale(0.25,0.25)">

<g id="pattern">
<rect width="6851" height="6851" fill="#FA8D1C"/>
<g id="pattern1" transform="matrix(1,0,0,1,426,426)">
<path d="M1135 960 c-14 -14 -36 -21 -73 -22 -41 -2 -52 -7 -52 -20 0 -10 -14 -21 -37 -29 -21 -6 -60 -22 -88 -34 -58 -25 -74 -31 -260 -95 -174 -59 -324 -115 -393 -146 -29 -13 -55 -24 -59 -24 -3 0 -35 -14 -70 -30 -51 -24 -62 -34 -54 -44 15 -17 147 -86 166 -86 8 0 38 -15 67 -32 29 -18 62 -34 73 -36 11 -2 47 -16 80 -32 132 -63 262 -117 293 -123 30 -6 103 -32 212 -77 25 -10 74 -26 109 -35 35 -9 74 -23 87 -31 12 -9 35 -14 51 -12 23 2 33 14 61 69 34 68 43 116 56 294 4 44 8 107 11 140 3 33 7 83 9 110 7 102 -33 284 -68 307 -24 16 -101 8 -121 -12z" transform="translate(0.000000,0.000000) scale(1,1)" stroke="none" fill="#AAC8C7"/>
</g>
<g id="pattern2" transform="matrix(0.618,0,0,0.618,3246,953)">
<path d="M1135 960 c-14 -14 -36 -21 -73 -22 -41 -2 -52 -7 -52 -20 0 -10 -14 -21 -37 -29 -21 -6 -60 -22 -88 -34 -58 -25 -74 -31 -260 -95 -174 -59 -324 -115 -393 -146 -29 -13 -55 -24 -59 -24 -3 0 -35 -14 -70 -30 -51 -24 -62 -34 -54 -44 15 -17 147 -86 166 -86 8 0 38 -15 67 -32 29 -18 62 -34 73 -36 11 -2 47 -16 80 -32 132 -63 262 -117 293 -123 30 -6 103 -32 212 -77 25 -10 74 -26 109 -35 35 -9 74 -23 87 -31 12 -9 35 -14 51 -12 23 2 33 14 61 69 34 68 43 116 56 294 4 44 8 107 11 140 3 33 7 83 9 110 7 102 -33 284 -68 307 -24 16 -101 8 -121 -12z" transform="translate(4300,0.000000) scale(-1,1)" stroke="none" fill="#AAC8C7"/>
</g>
<g id="pattern3" transform="matrix(0.618,0,0,0.618,1217,4300)matrix(0.71,0.71,-0.71,0.71,0,0)">
<path d="M1135 960 c-14 -14 -36 -21 -73 -22 -41 -2 -52 -7 -52 -20 0 -10 -14 -21 -37 -29 -21 -6 -60 -22 -88 -34 -58 -25 -74 -31 -260 -95 -174 -59 -324 -115 -393 -146 -29 -13 -55 -24 -59 -24 -3 0 -35 -14 -70 -30 -51 -24 -62 -34 -54 -44 15 -17 147 -86 166 -86 8 0 38 -15 67 -32 29 -18 62 -34 73 -36 11 -2 47 -16 80 -32 132 -63 262 -117 293 -123 30 -6 103 -32 212 -77 25 -10 74 -26 109 -35 35 -9 74 -23 87 -31 12 -9 35 -14 51 -12 23 2 33 14 61 69 34 68 43 116 56 294 4 44 8 107 11 140 3 33 7 83 9 110 7 102 -33 284 -68 307 -24 16 -101 8 -121 -12z" transform="translate(690,-690) scale(1,1)" stroke="none" fill="#AAC8C7"/>
</g>
<g id="pattern4" transform="matrix(1.618,0,0,1.618,1804,1804)matrix(0.87,0.5,-0.5,0.87,0,0)">
<path d="M1135 960 c-14 -14 -36 -21 -73 -22 -41 -2 -52 -7 -52 -20 0 -10 -14 -21 -37 -29 -21 -6 -60 -22 -88 -34 -58 -25 -74 -31 -260 -95 -174 -59 -324 -115 -393 -146 -29 -13 -55 -24 -59 -24 -3 0 -35 -14 -70 -30 -51 -24 -62 -34 -54 -44 15 -17 147 -86 166 -86 8 0 38 -15 67 -32 29 -18 62 -34 73 -36 11 -2 47 -16 80 -32 132 -63 262 -117 293 -123 30 -6 103 -32 212 -77 25 -10 74 -26 109 -35 35 -9 74 -23 87 -31 12 -9 35 -14 51 -12 23 2 33 14 61 69 34 68 43 116 56 294 4 44 8 107 11 140 3 33 7 83 9 110 7 102 -33 284 -68 307 -24 16 -101 8 -121 -12z" transform="translate(690,-690) scale(1,1)" stroke="none" fill="#AAC8C7"/>
</g>
</g>
</g>

</g>
<g id="row1" transform="translate(0,1581.0)">
<g id="0" transform="translate(0.0,0)scale(0.25,0.25)">

<g id="pattern">
<rect width="6851" height="6851" fill="#FA8D1C"/>
<g id="pattern1" transform="matrix(1,0,0,1,426,426)">
<path d="M1135 960 c-14 -14 -36 -21 -73 -22 -41 -2 -52 -7 -52 -20 0 -10 -14 -21 -37 -29 -21 -6 -60 -22 -88 -34 -58 -25 -74 -31 -260 -95 -174 -59 -324 -115 -393 -146 -29 -13 -55 -24 -59 -24 -3 0 -35 -14 -70 -30 -51 -24 -62 -34 -54 -44 15 -17 147 -86 166 -86 8 0 38 -15 67 -32 29 -18 62 -34 73 -36 11 -2 47 -16 80 -32 132 -63 262 -117 293 -123 30 -6 103 -32 212 -77 25 -10 74 -26 109 -35 35 -9 74 -23 87 -31 12 -9 35 -14 51 -12 23 2 33 14 61 69 34 68 43 116 56 294 4 44 8 107 11 140 3 33 7 83 9 110 7 102 -33 284 -68 307 -24 16 -101 8 -121 -12z" transform="translate(0.000000,0.000000) scale(1,1)" stroke="none" fill="#AAC8C7"/>
</g>
<g id="pattern2" transform="matrix(0.618,0,0,0.618,3246,953)">
<path d="M1135 960 c-14 -14 -36 -21 -73 -22 -41 -2 -52 -7 -52 -20 0 -10 -14 -21 -37 -29 -21 -6 -60 -22 -88 -34 -58 -25 -74 -31 -260 -95 -174 -59 -324 -115 -393 -146 -29 -13 -55 -24 -59 -24 -3 0 -35 -14 -70 -30 -51 -24 -62 -34 -54 -44 15 -17 147 -86 166 -86 8 0 38 -15 67 -32 29 -18 62 -34 73 -36 11 -2 47 -16 80 -32 132 -63 262 -117 293 -123 30 -6 103 -32 212 -77 25 -10 74 -26 109 -35 35 -9 74 -23 87 -31 12 -9 35 -14 51 -12 23 2 33 14 61 69 34 68 43 116 56 294 4 44 8 107 11 140 3 33 7 83 9 110 7 102 -33 284 -68 307 -24 16 -101 8 -121 -12z" transform="translate(4300,0.000000) scale(-1,1)" stroke="none" fill="#AAC8C7"/>
</g>
<g id="pattern3" transform="matrix(0.618,0,0,0.618,1217,4300)matrix(0.71,0.71,-0.71,0.71,0,0)">
<path d="M1135 960 c-14 -14 -36 -21 -73 -22 -41 -2 -52 -7 -52 -20 0 -10 -14 -21 -37 -29 -21 -6 -60 -22 -88 -34 -58 -25 -74 -31 -260 -95 -174 -59 -324 -115 -393 -146 -29 -13 -55 -24 -59 -24 -3 0 -35 -14 -70 -30 -51 -24 -62 -34 -54 -44 15 -17 147 -86 166 -86 8 0 38 -15 67 -32 29 -18 62 -34 73 -36 11 -2 47 -16 80 -32 132 -63 262 -117 293 -123 30 -6 103 -32 212 -77 25 -10 74 -26 109 -35 35 -9 74 -23 87 -31 12 -9 35 -14 51 -12 23 2 33 14 61 69 34 68 43 116 56 294 4 44 8 107 11 140 3 33 7 83 9 110 7 102 -33 284 -68 307 -24 16 -101 8 -121 -12z" transform="translate(690,-690) scale(1,1)" stroke="none" fill="#AAC8C7"/>
</g>
<g id="pattern4" transform="matrix(1.618,0,0,1.618,1804,1804)matrix(0.87,0.5,-0.5,0.87,0,0)">
<path d="M1135 960 c-14 -14 -36 -21 -73 -22 -41 -2 -52 -7 -52 -20 0 -10 -14 -21 -37 -29 -21 -6 -60 -22 -88 -34 -58 -25 -74 -31 -260 -95 -174 -59 -324 -115 -393 -146 -29 -13 -55 -24 -59 -24 -3 0 -35 -14 -70 -30 -51 -24 -62 -34 -54 -44 15 -17 147 -86 166 -86 8 0 38 -15 67 -32 29 -18 62 -34 73 -36 11 -2 47 -16 80 -32 132 -63 262 -117 293 -123 30 -6 103 -32 212 -77 25 -10 74 -26 109 -35 35 -9 74 -23 87 -31 12 -9 35 -14 51 -12 23 2 33 14 61 69 34 68 43 116 56 294 4 44 8 107 11 140 3 33 7 83 9 110 7 102 -33 284 -68 307 -24 16 -101 8 -121 -12z" transform="translate(690,-690) scale(1,1)" stroke="none" fill="#AAC8C7"/>
</g>
</g>
</g>

<g id="1" transform="translate(1581.0,0)scale(0.25,0.25)">

<g id="pattern">
<rect width="6851" height="6851" fill="#FA8D1C"/>
<g id="pattern1" transform="matrix(1,0,0,1,426,426)">
<path d="M1135 960 c-14 -14 -36 -21 -73 -22 -41 -2 -52 -7 -52 -20 0 -10 -14 -21 -37 -29 -21 -6 -60 -22 -88 -34 -58 -25 -74 -31 -260 -95 -174 -59 -324 -115 -393 -146 -29 -13 -55 -24 -59 -24 -3 0 -35 -14 -70 -30 -51 -24 -62 -34 -54 -44 15 -17 147 -86 166 -86 8 0 38 -15 67 -32 29 -18 62 -34 73 -36 11 -2 47 -16 80 -32 132 -63 262 -117 293 -123 30 -6 103 -32 212 -77 25 -10 74 -26 109 -35 35 -9 74 -23 87 -31 12 -9 35 -14 51 -12 23 2 33 14 61 69 34 68 43 116 56 294 4 44 8 107 11 140 3 33 7 83 9 110 7 102 -33 284 -68 307 -24 16 -101 8 -121 -12z" transform="translate(0.000000,0.000000) scale(1,1)" stroke="none" fill="#AAC8C7"/>
</g>
<g id="pattern2" transform="matrix(0.618,0,0,0.618,3246,953)">
<path d="M1135 960 c-14 -14 -36 -21 -73 -22 -41 -2 -52 -7 -52 -20 0 -10 -14 -21 -37 -29 -21 -6 -60 -22 -88 -34 -58 -25 -74 -31 -260 -95 -174 -59 -324 -115 -393 -146 -29 -13 -55 -24 -59 -24 -3 0 -35 -14 -70 -30 -51 -24 -62 -34 -54 -44 15 -17 147 -86 166 -86 8 0 38 -15 67 -32 29 -18 62 -34 73 -36 11 -2 47 -16 80 -32 132 -63 262 -117 293 -123 30 -6 103 -32 212 -77 25 -10 74 -26 109 -35 35 -9 74 -23 87 -31 12 -9 35 -14 51 -12 23 2 33 14 61 69 34 68 43 116 56 294 4 44 8 107 11 140 3 33 7 83 9 110 7 102 -33 284 -68 307 -24 16 -101 8 -121 -12z" transform="translate(4300,0.000000) scale(-1,1)" stroke="none" fill="#AAC8C7"/>
</g>
<g id="pattern3" transform="matrix(0.618,0,0,0.618,1217,4300)matrix(0.71,0.71,-0.71,0.71,0,0)">
<path d="M1135 960 c-14 -14 -36 -21 -73 -22 -41 -2 -52 -7 -52 -20 0 -10 -14 -21 -37 -29 -21 -6 -60 -22 -88 -34 -58 -25 -74 -31 -260 -95 -174 -59 -324 -115 -393 -146 -29 -13 -55 -24 -59 -24 -3 0 -35 -14 -70 -30 -51 -24 -62 -34 -54 -44 15 -17 147 -86 166 -86 8 0 38 -15 67 -32 29 -18 62 -34 73 -36 11 -2 47 -16 80 -32 132 -63 262 -117 293 -123 30 -6 103 -32 212 -77 25 -10 74 -26 109 -35 35 -9 74 -23 87 -31 12 -9 35 -14 51 -12 23 2 33 14 61 69 34 68 43 116 56 294 4 44 8 107 11 140 3 33 7 83 9 110 7 102 -33 284 -68 307 -24 16 -101 8 -121 -12z" transform="translate(690,-690) scale(1,1)" stroke="none" fill="#AAC8C7"/>
</g>
<g id="pattern4" transform="matrix(1.618,0,0,1.618,1804,1804)matrix(0.87,0.5,-0.5,0.87,0,0)">
<path d="M1135 960 c-14 -14 -36 -21 -73 -22 -41 -2 -52 -7 -52 -20 0 -10 -14 -21 -37 -29 -21 -6 -60 -22 -88 -34 -58 -25 -74 -31 -260 -95 -174 -59 -324 -115 -393 -146 -29 -13 -55 -24 -59 -24 -3 0 -35 -14 -70 -30 -51 -24 -62 -34 -54 -44 15 -17 147 -86 166 -86 8 0 38 -15 67 -32 29 -18 62 -34 73 -36 11 -2 47 -16 80 -32 132 -63 262 -117 293 -123 30 -6 103 -32 212 -77 25 -10 74 -26 109 -35 35 -9 74 -23 87 -31 12 -9 35 -14 51 -12 23 2 33 14 61 69 34 68 43 116 56 294 4 44 8 107 11 140 3 33 7 83 9 110 7 102 -33 284 -68 307 -24 16 -101 8 -121 -12z" transform="translate(690,-690) scale(1,1)" stroke="none" fill="#AAC8C7"/>
</g>
</g>
</g>

<g id="2" transform="translate(3162.0,0)scale(0.25,0.25)">

<g id="pattern">
<rect width="6851" height="6851" fill="#FA8D1C"/>
<g id="pattern1" transform="matrix(1,0,0,1,426,426)">
<path d="M1135 960 c-14 -14 -36 -21 -73 -22 -41 -2 -52 -7 -52 -20 0 -10 -14 -21 -37 -29 -21 -6 -60 -22 -88 -34 -58 -25 -74 -31 -260 -95 -174 -59 -324 -115 -393 -146 -29 -13 -55 -24 -59 -24 -3 0 -35 -14 -70 -30 -51 -24 -62 -34 -54 -44 15 -17 147 -86 166 -86 8 0 38 -15 67 -32 29 -18 62 -34 73 -36 11 -2 47 -16 80 -32 132 -63 262 -117 293 -123 30 -6 103 -32 212 -77 25 -10 74 -26 109 -35 35 -9 74 -23 87 -31 12 -9 35 -14 51 -12 23 2 33 14 61 69 34 68 43 116 56 294 4 44 8 107 11 140 3 33 7 83 9 110 7 102 -33 284 -68 307 -24 16 -101 8 -121 -12z" transform="translate(0.000000,0.000000) scale(1,1)" stroke="none" fill="#AAC8C7"/>
</g>
<g id="pattern2" transform="matrix(0.618,0,0,0.618,3246,953)">
<path d="M1135 960 c-14 -14 -36 -21 -73 -22 -41 -2 -52 -7 -52 -20 0 -10 -14 -21 -37 -29 -21 -6 -60 -22 -88 -34 -58 -25 -74 -31 -260 -95 -174 -59 -324 -115 -393 -146 -29 -13 -55 -24 -59 -24 -3 0 -35 -14 -70 -30 -51 -24 -62 -34 -54 -44 15 -17 147 -86 166 -86 8 0 38 -15 67 -32 29 -18 62 -34 73 -36 11 -2 47 -16 80 -32 132 -63 262 -117 293 -123 30 -6 103 -32 212 -77 25 -10 74 -26 109 -35 35 -9 74 -23 87 -31 12 -9 35 -14 51 -12 23 2 33 14 61 69 34 68 43 116 56 294 4 44 8 107 11 140 3 33 7 83 9 110 7 102 -33 284 -68 307 -24 16 -101 8 -121 -12z" transform="translate(4300,0.000000) scale(-1,1)" stroke="none" fill="#AAC8C7"/>
</g>
<g id="pattern3" transform="matrix(0.618,0,0,0.618,1217,4300)matrix(0.71,0.71,-0.71,0.71,0,0)">
<path d="M1135 960 c-14 -14 -36 -21 -73 -22 -41 -2 -52 -7 -52 -20 0 -10 -14 -21 -37 -29 -21 -6 -60 -22 -88 -34 -58 -25 -74 -31 -260 -95 -174 -59 -324 -115 -393 -146 -29 -13 -55 -24 -59 -24 -3 0 -35 -14 -70 -30 -51 -24 -62 -34 -54 -44 15 -17 147 -86 166 -86 8 0 38 -15 67 -32 29 -18 62 -34 73 -36 11 -2 47 -16 80 -32 132 -63 262 -117 293 -123 30 -6 103 -32 212 -77 25 -10 74 -26 109 -35 35 -9 74 -23 87 -31 12 -9 35 -14 51 -12 23 2 33 14 61 69 34 68 43 116 56 294 4 44 8 107 11 140 3 33 7 83 9 110 7 102 -33 284 -68 307 -24 16 -101 8 -121 -12z" transform="translate(690,-690) scale(1,1)" stroke="none" fill="#AAC8C7"/>
</g>
<g id="pattern4" transform="matrix(1.618,0,0,1.618,1804,1804)matrix(0.87,0.5,-0.5,0.87,0,0)">
<path d="M1135 960 c-14 -14 -36 -21 -73 -22 -41 -2 -52 -7 -52 -20 0 -10 -14 -21 -37 -29 -21 -6 -60 -22 -88 -34 -58 -25 -74 -31 -260 -95 -174 -59 -324 -115 -393 -146 -29 -13 -55 -24 -59 -24 -3 0 -35 -14 -70 -30 -51 -24 -62 -34 -54 -44 15 -17 147 -86 166 -86 8 0 38 -15 67 -32 29 -18 62 -34 73 -36 11 -2 47 -16 80 -32 132 -63 262 -117 293 -123 30 -6 103 -32 212 -77 25 -10 74 -26 109 -35 35 -9 74 -23 87 -31 12 -9 35 -14 51 -12 23 2 33 14 61 69 34 68 43 116 56 294 4 44 8 107 11 140 3 33 7 83 9 110 7 102 -33 284 -68 307 -24 16 -101 8 -121 -12z" transform="translate(690,-690) scale(1,1)" stroke="none" fill="#AAC8C7"/>
</g>
</g>
</g>

<g id="3" transform="translate(4743.0,0)scale(0.25,0.25)">

<g id="pattern">
<rect width="6851" height="6851" fill="#FA8D1C"/>
<g id="pattern1" transform="matrix(1,0,0,1,426,426)">
<path d="M1135 960 c-14 -14 -36 -21 -73 -22 -41 -2 -52 -7 -52 -20 0 -10 -14 -21 -37 -29 -21 -6 -60 -22 -88 -34 -58 -25 -74 -31 -260 -95 -174 -59 -324 -115 -393 -146 -29 -13 -55 -24 -59 -24 -3 0 -35 -14 -70 -30 -51 -24 -62 -34 -54 -44 15 -17 147 -86 166 -86 8 0 38 -15 67 -32 29 -18 62 -34 73 -36 11 -2 47 -16 80 -32 132 -63 262 -117 293 -123 30 -6 103 -32 212 -77 25 -10 74 -26 109 -35 35 -9 74 -23 87 -31 12 -9 35 -14 51 -12 23 2 33 14 61 69 34 68 43 116 56 294 4 44 8 107 11 140 3 33 7 83 9 110 7 102 -33 284 -68 307 -24 16 -101 8 -121 -12z" transform="translate(0.000000,0.000000) scale(1,1)" stroke="none" fill="#AAC8C7"/>
</g>
<g id="pattern2" transform="matrix(0.618,0,0,0.618,3246,953)">
<path d="M1135 960 c-14 -14 -36 -21 -73 -22 -41 -2 -52 -7 -52 -20 0 -10 -14 -21 -37 -29 -21 -6 -60 -22 -88 -34 -58 -25 -74 -31 -260 -95 -174 -59 -324 -115 -393 -146 -29 -13 -55 -24 -59 -24 -3 0 -35 -14 -70 -30 -51 -24 -62 -34 -54 -44 15 -17 147 -86 166 -86 8 0 38 -15 67 -32 29 -18 62 -34 73 -36 11 -2 47 -16 80 -32 132 -63 262 -117 293 -123 30 -6 103 -32 212 -77 25 -10 74 -26 109 -35 35 -9 74 -23 87 -31 12 -9 35 -14 51 -12 23 2 33 14 61 69 34 68 43 116 56 294 4 44 8 107 11 140 3 33 7 83 9 110 7 102 -33 284 -68 307 -24 16 -101 8 -121 -12z" transform="translate(4300,0.000000) scale(-1,1)" stroke="none" fill="#AAC8C7"/>
</g>
<g id="pattern3" transform="matrix(0.618,0,0,0.618,1217,4300)matrix(0.71,0.71,-0.71,0.71,0,0)">
<path d="M1135 960 c-14 -14 -36 -21 -73 -22 -41 -2 -52 -7 -52 -20 0 -10 -14 -21 -37 -29 -21 -6 -60 -22 -88 -34 -58 -25 -74 -31 -260 -95 -174 -59 -324 -115 -393 -146 -29 -13 -55 -24 -59 -24 -3 0 -35 -14 -70 -30 -51 -24 -62 -34 -54 -44 15 -17 147 -86 166 -86 8 0 38 -15 67 -32 29 -18 62 -34 73 -36 11 -2 47 -16 80 -32 132 -63 262 -117 293 -123 30 -6 103 -32 212 -77 25 -10 74 -26 109 -35 35 -9 74 -23 87 -31 12 -9 35 -14 51 -12 23 2 33 14 61 69 34 68 43 116 56 294 4 44 8 107 11 140 3 33 7 83 9 110 7 102 -33 284 -68 307 -24 16 -101 8 -121 -12z" transform="translate(690,-690) scale(1,1)" stroke="none" fill="#AAC8C7"/>
</g>
<g id="pattern4" transform="matrix(1.618,0,0,1.618,1804,1804)matrix(0.87,0.5,-0.5,0.87,0,0)">
<path d="M1135 960 c-14 -14 -36 -21 -73 -22 -41 -2 -52 -7 -52 -20 0 -10 -14 -21 -37 -29 -21 -6 -60 -22 -88 -34 -58 -25 -74 -31 -260 -95 -174 -59 -324 -115 -393 -146 -29 -13 -55 -24 -59 -24 -3 0 -35 -14 -70 -30 -51 -24 -62 -34 -54 -44 15 -17 147 -86 166 -86 8 0 38 -15 67 -32 29 -18 62 -34 73 -36 11 -2 47 -16 80 -32 132 -63 262 -117 293 -123 30 -6 103 -32 212 -77 25 -10 74 -26 109 -35 35 -9 74 -23 87 -31 12 -9 35 -14 51 -12 23 2 33 14 61 69 34 68 43 116 56 294 4 44 8 107 11 140 3 33 7 83 9 110 7 102 -33 284 -68 307 -24 16 -101 8 -121 -12z" transform="translate(690,-690) scale(1,1)" stroke="none" fill="#AAC8C7"/>
</g>
</g>
</g>

<g id="4" transform="translate(6324.0,0)scale(0.25,0.25)">

<g id="pattern">
<rect width="6851" height="6851" fill="#FA8D1C"/>
<g id="pattern1" transform="matrix(1,0,0,1,426,426)">
<path d="M1135 960 c-14 -14 -36 -21 -73 -22 -41 -2 -52 -7 -52 -20 0 -10 -14 -21 -37 -29 -21 -6 -60 -22 -88 -34 -58 -25 -74 -31 -260 -95 -174 -59 -324 -115 -393 -146 -29 -13 -55 -24 -59 -24 -3 0 -35 -14 -70 -30 -51 -24 -62 -34 -54 -44 15 -17 147 -86 166 -86 8 0 38 -15 67 -32 29 -18 62 -34 73 -36 11 -2 47 -16 80 -32 132 -63 262 -117 293 -123 30 -6 103 -32 212 -77 25 -10 74 -26 109 -35 35 -9 74 -23 87 -31 12 -9 35 -14 51 -12 23 2 33 14 61 69 34 68 43 116 56 294 4 44 8 107 11 140 3 33 7 83 9 110 7 102 -33 284 -68 307 -24 16 -101 8 -121 -12z" transform="translate(0.000000,0.000000) scale(1,1)" stroke="none" fill="#AAC8C7"/>
</g>
<g id="pattern2" transform="matrix(0.618,0,0,0.618,3246,953)">
<path d="M1135 960 c-14 -14 -36 -21 -73 -22 -41 -2 -52 -7 -52 -20 0 -10 -14 -21 -37 -29 -21 -6 -60 -22 -88 -34 -58 -25 -74 -31 -260 -95 -174 -59 -324 -115 -393 -146 -29 -13 -55 -24 -59 -24 -3 0 -35 -14 -70 -30 -51 -24 -62 -34 -54 -44 15 -17 147 -86 166 -86 8 0 38 -15 67 -32 29 -18 62 -34 73 -36 11 -2 47 -16 80 -32 132 -63 262 -117 293 -123 30 -6 103 -32 212 -77 25 -10 74 -26 109 -35 35 -9 74 -23 87 -31 12 -9 35 -14 51 -12 23 2 33 14 61 69 34 68 43 116 56 294 4 44 8 107 11 140 3 33 7 83 9 110 7 102 -33 284 -68 307 -24 16 -101 8 -121 -12z" transform="translate(4300,0.000000) scale(-1,1)" stroke="none" fill="#AAC8C7"/>
</g>
<g id="pattern3" transform="matrix(0.618,0,0,0.618,1217,4300)matrix(0.71,0.71,-0.71,0.71,0,0)">
<path d="M1135 960 c-14 -14 -36 -21 -73 -22 -41 -2 -52 -7 -52 -20 0 -10 -14 -21 -37 -29 -21 -6 -60 -22 -88 -34 -58 -25 -74 -31 -260 -95 -174 -59 -324 -115 -393 -146 -29 -13 -55 -24 -59 -24 -3 0 -35 -14 -70 -30 -51 -24 -62 -34 -54 -44 15 -17 147 -86 166 -86 8 0 38 -15 67 -32 29 -18 62 -34 73 -36 11 -2 47 -16 80 -32 132 -63 262 -117 293 -123 30 -6 103 -32 212 -77 25 -10 74 -26 109 -35 35 -9 74 -23 87 -31 12 -9 35 -14 51 -12 23 2 33 14 61 69 34 68 43 116 56 294 4 44 8 107 11 140 3 33 7 83 9 110 7 102 -33 284 -68 307 -24 16 -101 8 -121 -12z" transform="translate(690,-690) scale(1,1)" stroke="none" fill="#AAC8C7"/>
</g>
<g id="pattern4" transform="matrix(1.618,0,0,1.618,1804,1804)matrix(0.87,0.5,-0.5,0.87,0,0)">
<path d="M1135 960 c-14 -14 -36 -21 -73 -22 -41 -2 -52 -7 -52 -20 0 -10 -14 -21 -37 -29 -21 -6 -60 -22 -88 -34 -58 -25 -74 -31 -260 -95 -174 -59 -324 -115 -393 -146 -29 -13 -55 -24 -59 -24 -3 0 -35 -14 -70 -30 -51 -24 -62 -34 -54 -44 15 -17 147 -86 166 -86 8 0 38 -15 67 -32 29 -18 62 -34 73 -36 11 -2 47 -16 80 -32 132 -63 262 -117 293 -123 30 -6 103 -32 212 -77 25 -10 74 -26 109 -35 35 -9 74 -23 87 -31 12 -9 35 -14 51 -12 23 2 33 14 61 69 34 68 43 116 56 294 4 44 8 107 11 140 3 33 7 83 9 110 7 102 -33 284 -68 307 -24 16 -101 8 -121 -12z" transform="translate(690,-690) scale(1,1)" stroke="none" fill="#AAC8C7"/>
</g>
</g>
</g>

</g>
<g id="row2" transform="translate(0,3162.0)">
<g id="0" transform="translate(0.0,0)scale(0.25,0.25)">

<g id="pattern">
<rect width="6851" height="6851" fill="#FA8D1C"/>
<g id="pattern1" transform="matrix(1,0,0,1,426,426)">
<path d="M1135 960 c-14 -14 -36 -21 -73 -22 -41 -2 -52 -7 -52 -20 0 -10 -14 -21 -37 -29 -21 -6 -60 -22 -88 -34 -58 -25 -74 -31 -260 -95 -174 -59 -324 -115 -393 -146 -29 -13 -55 -24 -59 -24 -3 0 -35 -14 -70 -30 -51 -24 -62 -34 -54 -44 15 -17 147 -86 166 -86 8 0 38 -15 67 -32 29 -18 62 -34 73 -36 11 -2 47 -16 80 -32 132 -63 262 -117 293 -123 30 -6 103 -32 212 -77 25 -10 74 -26 109 -35 35 -9 74 -23 87 -31 12 -9 35 -14 51 -12 23 2 33 14 61 69 34 68 43 116 56 294 4 44 8 107 11 140 3 33 7 83 9 110 7 102 -33 284 -68 307 -24 16 -101 8 -121 -12z" transform="translate(0.000000,0.000000) scale(1,1)" stroke="none" fill="#AAC8C7"/>
</g>
<g id="pattern2" transform="matrix(0.618,0,0,0.618,3246,953)">
<path d="M1135 960 c-14 -14 -36 -21 -73 -22 -41 -2 -52 -7 -52 -20 0 -10 -14 -21 -37 -29 -21 -6 -60 -22 -88 -34 -58 -25 -74 -31 -260 -95 -174 -59 -324 -115 -393 -146 -29 -13 -55 -24 -59 -24 -3 0 -35 -14 -70 -30 -51 -24 -62 -34 -54 -44 15 -17 147 -86 166 -86 8 0 38 -15 67 -32 29 -18 62 -34 73 -36 11 -2 47 -16 80 -32 132 -63 262 -117 293 -123 30 -6 103 -32 212 -77 25 -10 74 -26 109 -35 35 -9 74 -23 87 -31 12 -9 35 -14 51 -12 23 2 33 14 61 69 34 68 43 116 56 294 4 44 8 107 11 140 3 33 7 83 9 110 7 102 -33 284 -68 307 -24 16 -101 8 -121 -12z" transform="translate(4300,0.000000) scale(-1,1)" stroke="none" fill="#AAC8C7"/>
</g>
<g id="pattern3" transform="matrix(0.618,0,0,0.618,1217,4300)matrix(0.71,0.71,-0.71,0.71,0,0)">
<path d="M1135 960 c-14 -14 -36 -21 -73 -22 -41 -2 -52 -7 -52 -20 0 -10 -14 -21 -37 -29 -21 -6 -60 -22 -88 -34 -58 -25 -74 -31 -260 -95 -174 -59 -324 -115 -393 -146 -29 -13 -55 -24 -59 -24 -3 0 -35 -14 -70 -30 -51 -24 -62 -34 -54 -44 15 -17 147 -86 166 -86 8 0 38 -15 67 -32 29 -18 62 -34 73 -36 11 -2 47 -16 80 -32 132 -63 262 -117 293 -123 30 -6 103 -32 212 -77 25 -10 74 -26 109 -35 35 -9 74 -23 87 -31 12 -9 35 -14 51 -12 23 2 33 14 61 69 34 68 43 116 56 294 4 44 8 107 11 140 3 33 7 83 9 110 7 102 -33 284 -68 307 -24 16 -101 8 -121 -12z" transform="translate(690,-690) scale(1,1)" stroke="none" fill="#AAC8C7"/>
</g>
<g id="pattern4" transform="matrix(1.618,0,0,1.618,1804,1804)matrix(0.87,0.5,-0.5,0.87,0,0)">
<path d="M1135 960 c-14 -14 -36 -21 -73 -22 -41 -2 -52 -7 -52 -20 0 -10 -14 -21 -37 -29 -21 -6 -60 -22 -88 -34 -58 -25 -74 -31 -260 -95 -174 -59 -324 -115 -393 -146 -29 -13 -55 -24 -59 -24 -3 0 -35 -14 -70 -30 -51 -24 -62 -34 -54 -44 15 -17 147 -86 166 -86 8 0 38 -15 67 -32 29 -18 62 -34 73 -36 11 -2 47 -16 80 -32 132 -63 262 -117 293 -123 30 -6 103 -32 212 -77 25 -10 74 -26 109 -35 35 -9 74 -23 87 -31 12 -9 35 -14 51 -12 23 2 33 14 61 69 34 68 43 116 56 294 4 44 8 107 11 140 3 33 7 83 9 110 7 102 -33 284 -68 307 -24 16 -101 8 -121 -12z" transform="translate(690,-690) scale(1,1)" stroke="none" fill="#AAC8C7"/>
</g>
</g>
</g>

<g id="1" transform="translate(1581.0,0)scale(0.25,0.25)">

<g id="pattern">
<rect width="6851" height="6851" fill="#FA8D1C"/>
<g id="pattern1" transform="matrix(1,0,0,1,426,426)">
<path d="M1135 960 c-14 -14 -36 -21 -73 -22 -41 -2 -52 -7 -52 -20 0 -10 -14 -21 -37 -29 -21 -6 -60 -22 -88 -34 -58 -25 -74 -31 -260 -95 -174 -59 -324 -115 -393 -146 -29 -13 -55 -24 -59 -24 -3 0 -35 -14 -70 -30 -51 -24 -62 -34 -54 -44 15 -17 147 -86 166 -86 8 0 38 -15 67 -32 29 -18 62 -34 73 -36 11 -2 47 -16 80 -32 132 -63 262 -117 293 -123 30 -6 103 -32 212 -77 25 -10 74 -26 109 -35 35 -9 74 -23 87 -31 12 -9 35 -14 51 -12 23 2 33 14 61 69 34 68 43 116 56 294 4 44 8 107 11 140 3 33 7 83 9 110 7 102 -33 284 -68 307 -24 16 -101 8 -121 -12z" transform="translate(0.000000,0.000000) scale(1,1)" stroke="none" fill="#AAC8C7"/>
</g>
<g id="pattern2" transform="matrix(0.618,0,0,0.618,3246,953)">
<path d="M1135 960 c-14 -14 -36 -21 -73 -22 -41 -2 -52 -7 -52 -20 0 -10 -14 -21 -37 -29 -21 -6 -60 -22 -88 -34 -58 -25 -74 -31 -260 -95 -174 -59 -324 -115 -393 -146 -29 -13 -55 -24 -59 -24 -3 0 -35 -14 -70 -30 -51 -24 -62 -34 -54 -44 15 -17 147 -86 166 -86 8 0 38 -15 67 -32 29 -18 62 -34 73 -36 11 -2 47 -16 80 -32 132 -63 262 -117 293 -123 30 -6 103 -32 212 -77 25 -10 74 -26 109 -35 35 -9 74 -23 87 -31 12 -9 35 -14 51 -12 23 2 33 14 61 69 34 68 43 116 56 294 4 44 8 107 11 140 3 33 7 83 9 110 7 102 -33 284 -68 307 -24 16 -101 8 -121 -12z" transform="translate(4300,0.000000) scale(-1,1)" stroke="none" fill="#AAC8C7"/>
</g>
<g id="pattern3" transform="matrix(0.618,0,0,0.618,1217,4300)matrix(0.71,0.71,-0.71,0.71,0,0)">
<path d="M1135 960 c-14 -14 -36 -21 -73 -22 -41 -2 -52 -7 -52 -20 0 -10 -14 -21 -37 -29 -21 -6 -60 -22 -88 -34 -58 -25 -74 -31 -260 -95 -174 -59 -324 -115 -393 -146 -29 -13 -55 -24 -59 -24 -3 0 -35 -14 -70 -30 -51 -24 -62 -34 -54 -44 15 -17 147 -86 166 -86 8 0 38 -15 67 -32 29 -18 62 -34 73 -36 11 -2 47 -16 80 -32 132 -63 262 -117 293 -123 30 -6 103 -32 212 -77 25 -10 74 -26 109 -35 35 -9 74 -23 87 -31 12 -9 35 -14 51 -12 23 2 33 14 61 69 34 68 43 116 56 294 4 44 8 107 11 140 3 33 7 83 9 110 7 102 -33 284 -68 307 -24 16 -101 8 -121 -12z" transform="translate(690,-690) scale(1,1)" stroke="none" fill="#AAC8C7"/>
</g>
<g id="pattern4" transform="matrix(1.618,0,0,1.618,1804,1804)matrix(0.87,0.5,-0.5,0.87,0,0)">
<path d="M1135 960 c-14 -14 -36 -21 -73 -22 -41 -2 -52 -7 -52 -20 0 -10 -14 -21 -37 -29 -21 -6 -60 -22 -88 -34 -58 -25 -74 -31 -260 -95 -174 -59 -324 -115 -393 -146 -29 -13 -55 -24 -59 -24 -3 0 -35 -14 -70 -30 -51 -24 -62 -34 -54 -44 15 -17 147 -86 166 -86 8 0 38 -15 67 -32 29 -18 62 -34 73 -36 11 -2 47 -16 80 -32 132 -63 262 -117 293 -123 30 -6 103 -32 212 -77 25 -10 74 -26 109 -35 35 -9 74 -23 87 -31 12 -9 35 -14 51 -12 23 2 33 14 61 69 34 68 43 116 56 294 4 44 8 107 11 140 3 33 7 83 9 110 7 102 -33 284 -68 307 -24 16 -101 8 -121 -12z" transform="translate(690,-690) scale(1,1)" stroke="none" fill="#AAC8C7"/>
</g>
</g>
</g>

<g id="2" transform="translate(3162.0,0)scale(0.25,0.25)">

<g id="pattern">
<rect width="6851" height="6851" fill="#FA8D1C"/>
<g id="pattern1" transform="matrix(1,0,0,1,426,426)">
<path d="M1135 960 c-14 -14 -36 -21 -73 -22 -41 -2 -52 -7 -52 -20 0 -10 -14 -21 -37 -29 -21 -6 -60 -22 -88 -34 -58 -25 -74 -31 -260 -95 -174 -59 -324 -115 -393 -146 -29 -13 -55 -24 -59 -24 -3 0 -35 -14 -70 -30 -51 -24 -62 -34 -54 -44 15 -17 147 -86 166 -86 8 0 38 -15 67 -32 29 -18 62 -34 73 -36 11 -2 47 -16 80 -32 132 -63 262 -117 293 -123 30 -6 103 -32 212 -77 25 -10 74 -26 109 -35 35 -9 74 -23 87 -31 12 -9 35 -14 51 -12 23 2 33 14 61 69 34 68 43 116 56 294 4 44 8 107 11 140 3 33 7 83 9 110 7 102 -33 284 -68 307 -24 16 -101 8 -121 -12z" transform="translate(0.000000,0.000000) scale(1,1)" stroke="none" fill="#AAC8C7"/>
</g>
<g id="pattern2" transform="matrix(0.618,0,0,0.618,3246,953)">
<path d="M1135 960 c-14 -14 -36 -21 -73 -22 -41 -2 -52 -7 -52 -20 0 -10 -14 -21 -37 -29 -21 -6 -60 -22 -88 -34 -58 -25 -74 -31 -260 -95 -174 -59 -324 -115 -393 -146 -29 -13 -55 -24 -59 -24 -3 0 -35 -14 -70 -30 -51 -24 -62 -34 -54 -44 15 -17 147 -86 166 -86 8 0 38 -15 67 -32 29 -18 62 -34 73 -36 11 -2 47 -16 80 -32 132 -63 262 -117 293 -123 30 -6 103 -32 212 -77 25 -10 74 -26 109 -35 35 -9 74 -23 87 -31 12 -9 35 -14 51 -12 23 2 33 14 61 69 34 68 43 116 56 294 4 44 8 107 11 140 3 33 7 83 9 110 7 102 -33 284 -68 307 -24 16 -101 8 -121 -12z" transform="translate(4300,0.000000) scale(-1,1)" stroke="none" fill="#AAC8C7"/>
</g>
<g id="pattern3" transform="matrix(0.618,0,0,0.618,1217,4300)matrix(0.71,0.71,-0.71,0.71,0,0)">
<path d="M1135 960 c-14 -14 -36 -21 -73 -22 -41 -2 -52 -7 -52 -20 0 -10 -14 -21 -37 -29 -21 -6 -60 -22 -88 -34 -58 -25 -74 -31 -260 -95 -174 -59 -324 -115 -393 -146 -29 -13 -55 -24 -59 -24 -3 0 -35 -14 -70 -30 -51 -24 -62 -34 -54 -44 15 -17 147 -86 166 -86 8 0 38 -15 67 -32 29 -18 62 -34 73 -36 11 -2 47 -16 80 -32 132 -63 262 -117 293 -123 30 -6 103 -32 212 -77 25 -10 74 -26 109 -35 35 -9 74 -23 87 -31 12 -9 35 -14 51 -12 23 2 33 14 61 69 34 68 43 116 56 294 4 44 8 107 11 140 3 33 7 83 9 110 7 102 -33 284 -68 307 -24 16 -101 8 -121 -12z" transform="translate(690,-690) scale(1,1)" stroke="none" fill="#AAC8C7"/>
</g>
<g id="pattern4" transform="matrix(1.618,0,0,1.618,1804,1804)matrix(0.87,0.5,-0.5,0.87,0,0)">
<path d="M1135 960 c-14 -14 -36 -21 -73 -22 -41 -2 -52 -7 -52 -20 0 -10 -14 -21 -37 -29 -21 -6 -60 -22 -88 -34 -58 -25 -74 -31 -260 -95 -174 -59 -324 -115 -393 -146 -29 -13 -55 -24 -59 -24 -3 0 -35 -14 -70 -30 -51 -24 -62 -34 -54 -44 15 -17 147 -86 166 -86 8 0 38 -15 67 -32 29 -18 62 -34 73 -36 11 -2 47 -16 80 -32 132 -63 262 -117 293 -123 30 -6 103 -32 212 -77 25 -10 74 -26 109 -35 35 -9 74 -23 87 -31 12 -9 35 -14 51 -12 23 2 33 14 61 69 34 68 43 116 56 294 4 44 8 107 11 140 3 33 7 83 9 110 7 102 -33 284 -68 307 -24 16 -101 8 -121 -12z" transform="translate(690,-690) scale(1,1)" stroke="none" fill="#AAC8C7"/>
</g>
</g>
</g>

<g id="3" transform="translate(4743.0,0)scale(0.25,0.25)">

<g id="pattern">
<rect width="6851" height="6851" fill="#FA8D1C"/>
<g id="pattern1" transform="matrix(1,0,0,1,426,426)">
<path d="M1135 960 c-14 -14 -36 -21 -73 -22 -41 -2 -52 -7 -52 -20 0 -10 -14 -21 -37 -29 -21 -6 -60 -22 -88 -34 -58 -25 -74 -31 -260 -95 -174 -59 -324 -115 -393 -146 -29 -13 -55 -24 -59 -24 -3 0 -35 -14 -70 -30 -51 -24 -62 -34 -54 -44 15 -17 147 -86 166 -86 8 0 38 -15 67 -32 29 -18 62 -34 73 -36 11 -2 47 -16 80 -32 132 -63 262 -117 293 -123 30 -6 103 -32 212 -77 25 -10 74 -26 109 -35 35 -9 74 -23 87 -31 12 -9 35 -14 51 -12 23 2 33 14 61 69 34 68 43 116 56 294 4 44 8 107 11 140 3 33 7 83 9 110 7 102 -33 284 -68 307 -24 16 -101 8 -121 -12z" transform="translate(0.000000,0.000000) scale(1,1)" stroke="none" fill="#AAC8C7"/>
</g>
<g id="pattern2" transform="matrix(0.618,0,0,0.618,3246,953)">
<path d="M1135 960 c-14 -14 -36 -21 -73 -22 -41 -2 -52 -7 -52 -20 0 -10 -14 -21 -37 -29 -21 -6 -60 -22 -88 -34 -58 -25 -74 -31 -260 -95 -174 -59 -324 -115 -393 -146 -29 -13 -55 -24 -59 -24 -3 0 -35 -14 -70 -30 -51 -24 -62 -34 -54 -44 15 -17 147 -86 166 -86 8 0 38 -15 67 -32 29 -18 62 -34 73 -36 11 -2 47 -16 80 -32 132 -63 262 -117 293 -123 30 -6 103 -32 212 -77 25 -10 74 -26 109 -35 35 -9 74 -23 87 -31 12 -9 35 -14 51 -12 23 2 33 14 61 69 34 68 43 116 56 294 4 44 8 107 11 140 3 33 7 83 9 110 7 102 -33 284 -68 307 -24 16 -101 8 -121 -12z" transform="translate(4300,0.000000) scale(-1,1)" stroke="none" fill="#AAC8C7"/>
</g>
<g id="pattern3" transform="matrix(0.618,0,0,0.618,1217,4300)matrix(0.71,0.71,-0.71,0.71,0,0)">
<path d="M1135 960 c-14 -14 -36 -21 -73 -22 -41 -2 -52 -7 -52 -20 0 -10 -14 -21 -37 -29 -21 -6 -60 -22 -88 -34 -58 -25 -74 -31 -260 -95 -174 -59 -324 -115 -393 -146 -29 -13 -55 -24 -59 -24 -3 0 -35 -14 -70 -30 -51 -24 -62 -34 -54 -44 15 -17 147 -86 166 -86 8 0 38 -15 67 -32 29 -18 62 -34 73 -36 11 -2 47 -16 80 -32 132 -63 262 -117 293 -123 30 -6 103 -32 212 -77 25 -10 74 -26 109 -35 35 -9 74 -23 87 -31 12 -9 35 -14 51 -12 23 2 33 14 61 69 34 68 43 116 56 294 4 44 8 107 11 140 3 33 7 83 9 110 7 102 -33 284 -68 307 -24 16 -101 8 -121 -12z" transform="translate(690,-690) scale(1,1)" stroke="none" fill="#AAC8C7"/>
</g>
<g id="pattern4" transform="matrix(1.618,0,0,1.618,1804,1804)matrix(0.87,0.5,-0.5,0.87,0,0)">
<path d="M1135 960 c-14 -14 -36 -21 -73 -22 -41 -2 -52 -7 -52 -20 0 -10 -14 -21 -37 -29 -21 -6 -60 -22 -88 -34 -58 -25 -74 -31 -260 -95 -174 -59 -324 -115 -393 -146 -29 -13 -55 -24 -59 -24 -3 0 -35 -14 -70 -30 -51 -24 -62 -34 -54 -44 15 -17 147 -86 166 -86 8 0 38 -15 67 -32 29 -18 62 -34 73 -36 11 -2 47 -16 80 -32 132 -63 262 -117 293 -123 30 -6 103 -32 212 -77 25 -10 74 -26 109 -35 35 -9 74 -23 87 -31 12 -9 35 -14 51 -12 23 2 33 14 61 69 34 68 43 116 56 294 4 44 8 107 11 140 3 33 7 83 9 110 7 102 -33 284 -68 307 -24 16 -101 8 -121 -12z" transform="translate(690,-690) scale(1,1)" stroke="none" fill="#AAC8C7"/>
</g>
</g>
</g>

<g id="4" transform="translate(6324.0,0)scale(0.25,0.25)">

<g id="pattern">
<rect width="6851" height="6851" fill="#FA8D1C"/>
<g id="pattern1" transform="matrix(1,0,0,1,426,426)">
<path d="M1135 960 c-14 -14 -36 -21 -73 -22 -41 -2 -52 -7 -52 -20 0 -10 -14 -21 -37 -29 -21 -6 -60 -22 -88 -34 -58 -25 -74 -31 -260 -95 -174 -59 -324 -115 -393 -146 -29 -13 -55 -24 -59 -24 -3 0 -35 -14 -70 -30 -51 -24 -62 -34 -54 -44 15 -17 147 -86 166 -86 8 0 38 -15 67 -32 29 -18 62 -34 73 -36 11 -2 47 -16 80 -32 132 -63 262 -117 293 -123 30 -6 103 -32 212 -77 25 -10 74 -26 109 -35 35 -9 74 -23 87 -31 12 -9 35 -14 51 -12 23 2 33 14 61 69 34 68 43 116 56 294 4 44 8 107 11 140 3 33 7 83 9 110 7 102 -33 284 -68 307 -24 16 -101 8 -121 -12z" transform="translate(0.000000,0.000000) scale(1,1)" stroke="none" fill="#AAC8C7"/>
</g>
<g id="pattern2" transform="matrix(0.618,0,0,0.618,3246,953)">
<path d="M1135 960 c-14 -14 -36 -21 -73 -22 -41 -2 -52 -7 -52 -20 0 -10 -14 -21 -37 -29 -21 -6 -60 -22 -88 -34 -58 -25 -74 -31 -260 -95 -174 -59 -324 -115 -393 -146 -29 -13 -55 -24 -59 -24 -3 0 -35 -14 -70 -30 -51 -24 -62 -34 -54 -44 15 -17 147 -86 166 -86 8 0 38 -15 67 -32 29 -18 62 -34 73 -36 11 -2 47 -16 80 -32 132 -63 262 -117 293 -123 30 -6 103 -32 212 -77 25 -10 74 -26 109 -35 35 -9 74 -23 87 -31 12 -9 35 -14 51 -12 23 2 33 14 61 69 34 68 43 116 56 294 4 44 8 107 11 140 3 33 7 83 9 110 7 102 -33 284 -68 307 -24 16 -101 8 -121 -12z" transform="translate(4300,0.000000) scale(-1,1)" stroke="none" fill="#AAC8C7"/>
</g>
<g id="pattern3" transform="matrix(0.618,0,0,0.618,1217,4300)matrix(0.71,0.71,-0.71,0.71,0,0)">
<path d="M1135 960 c-14 -14 -36 -21 -73 -22 -41 -2 -52 -7 -52 -20 0 -10 -14 -21 -37 -29 -21 -6 -60 -22 -88 -34 -58 -25 -74 -31 -260 -95 -174 -59 -324 -115 -393 -146 -29 -13 -55 -24 -59 -24 -3 0 -35 -14 -70 -30 -51 -24 -62 -34 -54 -44 15 -17 147 -86 166 -86 8 0 38 -15 67 -32 29 -18 62 -34 73 -36 11 -2 47 -16 80 -32 132 -63 262 -117 293 -123 30 -6 103 -32 212 -77 25 -10 74 -26 109 -35 35 -9 74 -23 87 -31 12 -9 35 -14 51 -12 23 2 33 14 61 69 34 68 43 116 56 294 4 44 8 107 11 140 3 33 7 83 9 110 7 102 -33 284 -68 307 -24 16 -101 8 -121 -12z" transform="translate(690,-690) scale(1,1)" stroke="none" fill="#AAC8C7"/>
</g>
<g id="pattern4" transform="matrix(1.618,0,0,1.618,1804,1804)matrix(0.87,0.5,-0.5,0.87,0,0)">
<path d="M1135 960 c-14 -14 -36 -21 -73 -22 -41 -2 -52 -7 -52 -20 0 -10 -14 -21 -37 -29 -21 -6 -60 -22 -88 -34 -58 -25 -74 -31 -260 -95 -174 -59 -324 -115 -393 -146 -29 -13 -55 -24 -59 -24 -3 0 -35 -14 -70 -30 -51 -24 -62 -34 -54 -44 15 -17 147 -86 166 -86 8 0 38 -15 67 -32 29 -18 62 -34 73 -36 11 -2 47 -16 80 -32 132 -63 262 -117 293 -123 30 -6 103 -32 212 -77 25 -10 74 -26 109 -35 35 -9 74 -23 87 -31 12 -9 35 -14 51 -12 23 2 33 14 61 69 34 68 43 116 56 294 4 44 8 107 11 140 3 33 7 83 9 110 7 102 -33 284 -68 307 -24 16 -101 8 -121 -12z" transform="translate(690,-690) scale(1,1)" stroke="none" fill="#AAC8C7"/>
</g>
</g>
</g>

</g>
<g id="row3" transform="translate(0,4743.0)">
<g id="0" transform="translate(0.0,0)scale(0.25,0.25)">

<g id="pattern">
<rect width="6851" height="6851" fill="#FA8D1C"/>
<g id="pattern1" transform="matrix(1,0,0,1,426,426)">
<path d="M1135 960 c-14 -14 -36 -21 -73 -22 -41 -2 -52 -7 -52 -20 0 -10 -14 -21 -37 -29 -21 -6 -60 -22 -88 -34 -58 -25 -74 -31 -260 -95 -174 -59 -324 -115 -393 -146 -29 -13 -55 -24 -59 -24 -3 0 -35 -14 -70 -30 -51 -24 -62 -34 -54 -44 15 -17 147 -86 166 -86 8 0 38 -15 67 -32 29 -18 62 -34 73 -36 11 -2 47 -16 80 -32 132 -63 262 -117 293 -123 30 -6 103 -32 212 -77 25 -10 74 -26 109 -35 35 -9 74 -23 87 -31 12 -9 35 -14 51 -12 23 2 33 14 61 69 34 68 43 116 56 294 4 44 8 107 11 140 3 33 7 83 9 110 7 102 -33 284 -68 307 -24 16 -101 8 -121 -12z" transform="translate(0.000000,0.000000) scale(1,1)" stroke="none" fill="#AAC8C7"/>
</g>
<g id="pattern2" transform="matrix(0.618,0,0,0.618,3246,953)">
<path d="M1135 960 c-14 -14 -36 -21 -73 -22 -41 -2 -52 -7 -52 -20 0 -10 -14 -21 -37 -29 -21 -6 -60 -22 -88 -34 -58 -25 -74 -31 -260 -95 -174 -59 -324 -115 -393 -146 -29 -13 -55 -24 -59 -24 -3 0 -35 -14 -70 -30 -51 -24 -62 -34 -54 -44 15 -17 147 -86 166 -86 8 0 38 -15 67 -32 29 -18 62 -34 73 -36 11 -2 47 -16 80 -32 132 -63 262 -117 293 -123 30 -6 103 -32 212 -77 25 -10 74 -26 109 -35 35 -9 74 -23 87 -31 12 -9 35 -14 51 -12 23 2 33 14 61 69 34 68 43 116 56 294 4 44 8 107 11 140 3 33 7 83 9 110 7 102 -33 284 -68 307 -24 16 -101 8 -121 -12z" transform="translate(4300,0.000000) scale(-1,1)" stroke="none" fill="#AAC8C7"/>
</g>
<g id="pattern3" transform="matrix(0.618,0,0,0.618,1217,4300)matrix(0.71,0.71,-0.71,0.71,0,0)">
<path d="M1135 960 c-14 -14 -36 -21 -73 -22 -41 -2 -52 -7 -52 -20 0 -10 -14 -21 -37 -29 -21 -6 -60 -22 -88 -34 -58 -25 -74 -31 -260 -95 -174 -59 -324 -115 -393 -146 -29 -13 -55 -24 -59 -24 -3 0 -35 -14 -70 -30 -51 -24 -62 -34 -54 -44 15 -17 147 -86 166 -86 8 0 38 -15 67 -32 29 -18 62 -34 73 -36 11 -2 47 -16 80 -32 132 -63 262 -117 293 -123 30 -6 103 -32 212 -77 25 -10 74 -26 109 -35 35 -9 74 -23 87 -31 12 -9 35 -14 51 -12 23 2 33 14 61 69 34 68 43 116 56 294 4 44 8 107 11 140 3 33 7 83 9 110 7 102 -33 284 -68 307 -24 16 -101 8 -121 -12z" transform="translate(690,-690) scale(1,1)" stroke="none" fill="#AAC8C7"/>
</g>
<g id="pattern4" transform="matrix(1.618,0,0,1.618,1804,1804)matrix(0.87,0.5,-0.5,0.87,0,0)">
<path d="M1135 960 c-14 -14 -36 -21 -73 -22 -41 -2 -52 -7 -52 -20 0 -10 -14 -21 -37 -29 -21 -6 -60 -22 -88 -34 -58 -25 -74 -31 -260 -95 -174 -59 -324 -115 -393 -146 -29 -13 -55 -24 -59 -24 -3 0 -35 -14 -70 -30 -51 -24 -62 -34 -54 -44 15 -17 147 -86 166 -86 8 0 38 -15 67 -32 29 -18 62 -34 73 -36 11 -2 47 -16 80 -32 132 -63 262 -117 293 -123 30 -6 103 -32 212 -77 25 -10 74 -26 109 -35 35 -9 74 -23 87 -31 12 -9 35 -14 51 -12 23 2 33 14 61 69 34 68 43 116 56 294 4 44 8 107 11 140 3 33 7 83 9 110 7 102 -33 284 -68 307 -24 16 -101 8 -121 -12z" transform="translate(690,-690) scale(1,1)" stroke="none" fill="#AAC8C7"/>
</g>
</g>
</g>

<g id="1" transform="translate(1581.0,0)scale(0.25,0.25)">

<g id="pattern">
<rect width="6851" height="6851" fill="#FA8D1C"/>
<g id="pattern1" transform="matrix(1,0,0,1,426,426)">
<path d="M1135 960 c-14 -14 -36 -21 -73 -22 -41 -2 -52 -7 -52 -20 0 -10 -14 -21 -37 -29 -21 -6 -60 -22 -88 -34 -58 -25 -74 -31 -260 -95 -174 -59 -324 -115 -393 -146 -29 -13 -55 -24 -59 -24 -3 0 -35 -14 -70 -30 -51 -24 -62 -34 -54 -44 15 -17 147 -86 166 -86 8 0 38 -15 67 -32 29 -18 62 -34 73 -36 11 -2 47 -16 80 -32 132 -63 262 -117 293 -123 30 -6 103 -32 212 -77 25 -10 74 -26 109 -35 35 -9 74 -23 87 -31 12 -9 35 -14 51 -12 23 2 33 14 61 69 34 68 43 116 56 294 4 44 8 107 11 140 3 33 7 83 9 110 7 102 -33 284 -68 307 -24 16 -101 8 -121 -12z" transform="translate(0.000000,0.000000) scale(1,1)" stroke="none" fill="#AAC8C7"/>
</g>
<g id="pattern2" transform="matrix(0.618,0,0,0.618,3246,953)">
<path d="M1135 960 c-14 -14 -36 -21 -73 -22 -41 -2 -52 -7 -52 -20 0 -10 -14 -21 -37 -29 -21 -6 -60 -22 -88 -34 -58 -25 -74 -31 -260 -95 -174 -59 -324 -115 -393 -146 -29 -13 -55 -24 -59 -24 -3 0 -35 -14 -70 -30 -51 -24 -62 -34 -54 -44 15 -17 147 -86 166 -86 8 0 38 -15 67 -32 29 -18 62 -34 73 -36 11 -2 47 -16 80 -32 132 -63 262 -117 293 -123 30 -6 103 -32 212 -77 25 -10 74 -26 109 -35 35 -9 74 -23 87 -31 12 -9 35 -14 51 -12 23 2 33 14 61 69 34 68 43 116 56 294 4 44 8 107 11 140 3 33 7 83 9 110 7 102 -33 284 -68 307 -24 16 -101 8 -121 -12z" transform="translate(4300,0.000000) scale(-1,1)" stroke="none" fill="#AAC8C7"/>
</g>
<g id="pattern3" transform="matrix(0.618,0,0,0.618,1217,4300)matrix(0.71,0.71,-0.71,0.71,0,0)">
<path d="M1135 960 c-14 -14 -36 -21 -73 -22 -41 -2 -52 -7 -52 -20 0 -10 -14 -21 -37 -29 -21 -6 -60 -22 -88 -34 -58 -25 -74 -31 -260 -95 -174 -59 -324 -115 -393 -146 -29 -13 -55 -24 -59 -24 -3 0 -35 -14 -70 -30 -51 -24 -62 -34 -54 -44 15 -17 147 -86 166 -86 8 0 38 -15 67 -32 29 -18 62 -34 73 -36 11 -2 47 -16 80 -32 132 -63 262 -117 293 -123 30 -6 103 -32 212 -77 25 -10 74 -26 109 -35 35 -9 74 -23 87 -31 12 -9 35 -14 51 -12 23 2 33 14 61 69 34 68 43 116 56 294 4 44 8 107 11 140 3 33 7 83 9 110 7 102 -33 284 -68 307 -24 16 -101 8 -121 -12z" transform="translate(690,-690) scale(1,1)" stroke="none" fill="#AAC8C7"/>
</g>
<g id="pattern4" transform="matrix(1.618,0,0,1.618,1804,1804)matrix(0.87,0.5,-0.5,0.87,0,0)">
<path d="M1135 960 c-14 -14 -36 -21 -73 -22 -41 -2 -52 -7 -52 -20 0 -10 -14 -21 -37 -29 -21 -6 -60 -22 -88 -34 -58 -25 -74 -31 -260 -95 -174 -59 -324 -115 -393 -146 -29 -13 -55 -24 -59 -24 -3 0 -35 -14 -70 -30 -51 -24 -62 -34 -54 -44 15 -17 147 -86 166 -86 8 0 38 -15 67 -32 29 -18 62 -34 73 -36 11 -2 47 -16 80 -32 132 -63 262 -117 293 -123 30 -6 103 -32 212 -77 25 -10 74 -26 109 -35 35 -9 74 -23 87 -31 12 -9 35 -14 51 -12 23 2 33 14 61 69 34 68 43 116 56 294 4 44 8 107 11 140 3 33 7 83 9 110 7 102 -33 284 -68 307 -24 16 -101 8 -121 -12z" transform="translate(690,-690) scale(1,1)" stroke="none" fill="#AAC8C7"/>
</g>
</g>
</g>

<g id="2" transform="translate(3162.0,0)scale(0.25,0.25)">

<g id="pattern">
<rect width="6851" height="6851" fill="#FA8D1C"/>
<g id="pattern1" transform="matrix(1,0,0,1,426,426)">
<path d="M1135 960 c-14 -14 -36 -21 -73 -22 -41 -2 -52 -7 -52 -20 0 -10 -14 -21 -37 -29 -21 -6 -60 -22 -88 -34 -58 -25 -74 -31 -260 -95 -174 -59 -324 -115 -393 -146 -29 -13 -55 -24 -59 -24 -3 0 -35 -14 -70 -30 -51 -24 -62 -34 -54 -44 15 -17 147 -86 166 -86 8 0 38 -15 67 -32 29 -18 62 -34 73 -36 11 -2 47 -16 80 -32 132 -63 262 -117 293 -123 30 -6 103 -32 212 -77 25 -10 74 -26 109 -35 35 -9 74 -23 87 -31 12 -9 35 -14 51 -12 23 2 33 14 61 69 34 68 43 116 56 294 4 44 8 107 11 140 3 33 7 83 9 110 7 102 -33 284 -68 307 -24 16 -101 8 -121 -12z" transform="translate(0.000000,0.000000) scale(1,1)" stroke="none" fill="#AAC8C7"/>
</g>
<g id="pattern2" transform="matrix(0.618,0,0,0.618,3246,953)">
<path d="M1135 960 c-14 -14 -36 -21 -73 -22 -41 -2 -52 -7 -52 -20 0 -10 -14 -21 -37 -29 -21 -6 -60 -22 -88 -34 -58 -25 -74 -31 -260 -95 -174 -59 -324 -115 -393 -146 -29 -13 -55 -24 -59 -24 -3 0 -35 -14 -70 -30 -51 -24 -62 -34 -54 -44 15 -17 147 -86 166 -86 8 0 38 -15 67 -32 29 -18 62 -34 73 -36 11 -2 47 -16 80 -32 132 -63 262 -117 293 -123 30 -6 103 -32 212 -77 25 -10 74 -26 109 -35 35 -9 74 -23 87 -31 12 -9 35 -14 51 -12 23 2 33 14 61 69 34 68 43 116 56 294 4 44 8 107 11 140 3 33 7 83 9 110 7 102 -33 284 -68 307 -24 16 -101 8 -121 -12z" transform="translate(4300,0.000000) scale(-1,1)" stroke="none" fill="#AAC8C7"/>
</g>
<g id="pattern3" transform="matrix(0.618,0,0,0.618,1217,4300)matrix(0.71,0.71,-0.71,0.71,0,0)">
<path d="M1135 960 c-14 -14 -36 -21 -73 -22 -41 -2 -52 -7 -52 -20 0 -10 -14 -21 -37 -29 -21 -6 -60 -22 -88 -34 -58 -25 -74 -31 -260 -95 -174 -59 -324 -115 -393 -146 -29 -13 -55 -24 -59 -24 -3 0 -35 -14 -70 -30 -51 -24 -62 -34 -54 -44 15 -17 147 -86 166 -86 8 0 38 -15 67 -32 29 -18 62 -34 73 -36 11 -2 47 -16 80 -32 132 -63 262 -117 293 -123 30 -6 103 -32 212 -77 25 -10 74 -26 109 -35 35 -9 74 -23 87 -31 12 -9 35 -14 51 -12 23 2 33 14 61 69 34 68 43 116 56 294 4 44 8 107 11 140 3 33 7 83 9 110 7 102 -33 284 -68 307 -24 16 -101 8 -121 -12z" transform="translate(690,-690) scale(1,1)" stroke="none" fill="#AAC8C7"/>
</g>
<g id="pattern4" transform="matrix(1.618,0,0,1.618,1804,1804)matrix(0.87,0.5,-0.5,0.87,0,0)">
<path d="M1135 960 c-14 -14 -36 -21 -73 -22 -41 -2 -52 -7 -52 -20 0 -10 -14 -21 -37 -29 -21 -6 -60 -22 -88 -34 -58 -25 -74 -31 -260 -95 -174 -59 -324 -115 -393 -146 -29 -13 -55 -24 -59 -24 -3 0 -35 -14 -70 -30 -51 -24 -62 -34 -54 -44 15 -17 147 -86 166 -86 8 0 38 -15 67 -32 29 -18 62 -34 73 -36 11 -2 47 -16 80 -32 132 -63 262 -117 293 -123 30 -6 103 -32 212 -77 25 -10 74 -26 109 -35 35 -9 74 -23 87 -31 12 -9 35 -14 51 -12 23 2 33 14 61 69 34 68 43 116 56 294 4 44 8 107 11 140 3 33 7 83 9 110 7 102 -33 284 -68 307 -24 16 -101 8 -121 -12z" transform="translate(690,-690) scale(1,1)" stroke="none" fill="#AAC8C7"/>
</g>
</g>
</g>

<g id="3" transform="translate(4743.0,0)scale(0.25,0.25)">

<g id="pattern">
<rect width="6851" height="6851" fill="#FA8D1C"/>
<g id="pattern1" transform="matrix(1,0,0,1,426,426)">
<path d="M1135 960 c-14 -14 -36 -21 -73 -22 -41 -2 -52 -7 -52 -20 0 -10 -14 -21 -37 -29 -21 -6 -60 -22 -88 -34 -58 -25 -74 -31 -260 -95 -174 -59 -324 -115 -393 -146 -29 -13 -55 -24 -59 -24 -3 0 -35 -14 -70 -30 -51 -24 -62 -34 -54 -44 15 -17 147 -86 166 -86 8 0 38 -15 67 -32 29 -18 62 -34 73 -36 11 -2 47 -16 80 -32 132 -63 262 -117 293 -123 30 -6 103 -32 212 -77 25 -10 74 -26 109 -35 35 -9 74 -23 87 -31 12 -9 35 -14 51 -12 23 2 33 14 61 69 34 68 43 116 56 294 4 44 8 107 11 140 3 33 7 83 9 110 7 102 -33 284 -68 307 -24 16 -101 8 -121 -12z" transform="translate(0.000000,0.000000) scale(1,1)" stroke="none" fill="#AAC8C7"/>
</g>
<g id="pattern2" transform="matrix(0.618,0,0,0.618,3246,953)">
<path d="M1135 960 c-14 -14 -36 -21 -73 -22 -41 -2 -52 -7 -52 -20 0 -10 -14 -21 -37 -29 -21 -6 -60 -22 -88 -34 -58 -25 -74 -31 -260 -95 -174 -59 -324 -115 -393 -146 -29 -13 -55 -24 -59 -24 -3 0 -35 -14 -70 -30 -51 -24 -62 -34 -54 -44 15 -17 147 -86 166 -86 8 0 38 -15 67 -32 29 -18 62 -34 73 -36 11 -2 47 -16 80 -32 132 -63 262 -117 293 -123 30 -6 103 -32 212 -77 25 -10 74 -26 109 -35 35 -9 74 -23 87 -31 12 -9 35 -14 51 -12 23 2 33 14 61 69 34 68 43 116 56 294 4 44 8 107 11 140 3 33 7 83 9 110 7 102 -33 284 -68 307 -24 16 -101 8 -121 -12z" transform="translate(4300,0.000000) scale(-1,1)" stroke="none" fill="#AAC8C7"/>
</g>
<g id="pattern3" transform="matrix(0.618,0,0,0.618,1217,4300)matrix(0.71,0.71,-0.71,0.71,0,0)">
<path d="M1135 960 c-14 -14 -36 -21 -73 -22 -41 -2 -52 -7 -52 -20 0 -10 -14 -21 -37 -29 -21 -6 -60 -22 -88 -34 -58 -25 -74 -31 -260 -95 -174 -59 -324 -115 -393 -146 -29 -13 -55 -24 -59 -24 -3 0 -35 -14 -70 -30 -51 -24 -62 -34 -54 -44 15 -17 147 -86 166 -86 8 0 38 -15 67 -32 29 -18 62 -34 73 -36 11 -2 47 -16 80 -32 132 -63 262 -117 293 -123 30 -6 103 -32 212 -77 25 -10 74 -26 109 -35 35 -9 74 -23 87 -31 12 -9 35 -14 51 -12 23 2 33 14 61 69 34 68 43 116 56 294 4 44 8 107 11 140 3 33 7 83 9 110 7 102 -33 284 -68 307 -24 16 -101 8 -121 -12z" transform="translate(690,-690) scale(1,1)" stroke="none" fill="#AAC8C7"/>
</g>
<g id="pattern4" transform="matrix(1.618,0,0,1.618,1804,1804)matrix(0.87,0.5,-0.5,0.87,0,0)">
<path d="M1135 960 c-14 -14 -36 -21 -73 -22 -41 -2 -52 -7 -52 -20 0 -10 -14 -21 -37 -29 -21 -6 -60 -22 -88 -34 -58 -25 -74 -31 -260 -95 -174 -59 -324 -115 -393 -146 -29 -13 -55 -24 -59 -24 -3 0 -35 -14 -70 -30 -51 -24 -62 -34 -54 -44 15 -17 147 -86 166 -86 8 0 38 -15 67 -32 29 -18 62 -34 73 -36 11 -2 47 -16 80 -32 132 -63 262 -117 293 -123 30 -6 103 -32 212 -77 25 -10 74 -26 109 -35 35 -9 74 -23 87 -31 12 -9 35 -14 51 -12 23 2 33 14 61 69 34 68 43 116 56 294 4 44 8 107 11 140 3 33 7 83 9 110 7 102 -33 284 -68 307 -24 16 -101 8 -121 -12z" transform="translate(690,-690) scale(1,1)" stroke="none" fill="#AAC8C7"/>
</g>
</g>
</g>

<g id="4" transform="translate(6324.0,0)scale(0.25,0.25)">

<g id="pattern">
<rect width="6851" height="6851" fill="#FA8D1C"/>
<g id="pattern1" transform="matrix(1,0,0,1,426,426)">
<path d="M1135 960 c-14 -14 -36 -21 -73 -22 -41 -2 -52 -7 -52 -20 0 -10 -14 -21 -37 -29 -21 -6 -60 -22 -88 -34 -58 -25 -74 -31 -260 -95 -174 -59 -324 -115 -393 -146 -29 -13 -55 -24 -59 -24 -3 0 -35 -14 -70 -30 -51 -24 -62 -34 -54 -44 15 -17 147 -86 166 -86 8 0 38 -15 67 -32 29 -18 62 -34 73 -36 11 -2 47 -16 80 -32 132 -63 262 -117 293 -123 30 -6 103 -32 212 -77 25 -10 74 -26 109 -35 35 -9 74 -23 87 -31 12 -9 35 -14 51 -12 23 2 33 14 61 69 34 68 43 116 56 294 4 44 8 107 11 140 3 33 7 83 9 110 7 102 -33 284 -68 307 -24 16 -101 8 -121 -12z" transform="translate(0.000000,0.000000) scale(1,1)" stroke="none" fill="#AAC8C7"/>
</g>
<g id="pattern2" transform="matrix(0.618,0,0,0.618,3246,953)">
<path d="M1135 960 c-14 -14 -36 -21 -73 -22 -41 -2 -52 -7 -52 -20 0 -10 -14 -21 -37 -29 -21 -6 -60 -22 -88 -34 -58 -25 -74 -31 -260 -95 -174 -59 -324 -115 -393 -146 -29 -13 -55 -24 -59 -24 -3 0 -35 -14 -70 -30 -51 -24 -62 -34 -54 -44 15 -17 147 -86 166 -86 8 0 38 -15 67 -32 29 -18 62 -34 73 -36 11 -2 47 -16 80 -32 132 -63 262 -117 293 -123 30 -6 103 -32 212 -77 25 -10 74 -26 109 -35 35 -9 74 -23 87 -31 12 -9 35 -14 51 -12 23 2 33 14 61 69 34 68 43 116 56 294 4 44 8 107 11 140 3 33 7 83 9 110 7 102 -33 284 -68 307 -24 16 -101 8 -121 -12z" transform="translate(4300,0.000000) scale(-1,1)" stroke="none" fill="#AAC8C7"/>
</g>
<g id="pattern3" transform="matrix(0.618,0,0,0.618,1217,4300)matrix(0.71,0.71,-0.71,0.71,0,0)">
<path d="M1135 960 c-14 -14 -36 -21 -73 -22 -41 -2 -52 -7 -52 -20 0 -10 -14 -21 -37 -29 -21 -6 -60 -22 -88 -34 -58 -25 -74 -31 -260 -95 -174 -59 -324 -115 -393 -146 -29 -13 -55 -24 -59 -24 -3 0 -35 -14 -70 -30 -51 -24 -62 -34 -54 -44 15 -17 147 -86 166 -86 8 0 38 -15 67 -32 29 -18 62 -34 73 -36 11 -2 47 -16 80 -32 132 -63 262 -117 293 -123 30 -6 103 -32 212 -77 25 -10 74 -26 109 -35 35 -9 74 -23 87 -31 12 -9 35 -14 51 -12 23 2 33 14 61 69 34 68 43 116 56 294 4 44 8 107 11 140 3 33 7 83 9 110 7 102 -33 284 -68 307 -24 16 -101 8 -121 -12z" transform="translate(690,-690) scale(1,1)" stroke="none" fill="#AAC8C7"/>
</g>
<g id="pattern4" transform="matrix(1.618,0,0,1.618,1804,1804)matrix(0.87,0.5,-0.5,0.87,0,0)">
<path d="M1135 960 c-14 -14 -36 -21 -73 -22 -41 -2 -52 -7 -52 -20 0 -10 -14 -21 -37 -29 -21 -6 -60 -22 -88 -34 -58 -25 -74 -31 -260 -95 -174 -59 -324 -115 -393 -146 -29 -13 -55 -24 -59 -24 -3 0 -35 -14 -70 -30 -51 -24 -62 -34 -54 -44 15 -17 147 -86 166 -86 8 0 38 -15 67 -32 29 -18 62 -34 73 -36 11 -2 47 -16 80 -32 132 -63 262 -117 293 -123 30 -6 103 -32 212 -77 25 -10 74 -26 109 -35 35 -9 74 -23 87 -31 12 -9 35 -14 51 -12 23 2 33 14 61 69 34 68 43 116 56 294 4 44 8 107 11 140 3 33 7 83 9 110 7 102 -33 284 -68 307 -24 16 -101 8 -121 -12z" transform="translate(690,-690) scale(1,1)" stroke="none" fill="#AAC8C7"/>
</g>
</g>
</g>

</g>
</svg>