<?xml version="1.0" standalone="no"?>
<!DOCTYPE svg PUBLIC "-//W3C//DTD SVG 20010904//EN"
 "http://www.w3.org/TR/2001/REC-SVG-20010904/DTD/svg10.dtd">
<svg version="1.0" xmlns="http://www.w3.org/2000/svg" 
width="138.000000pt" height="104.000000pt" viewBox="0 0 138.000000 104.000000"
preserveAspectRatio = "xMidYMid meet" >
<metadata>
Created by ZoeQU, 2022
</metadata>
<rect width="138.000000" height="104.000000" fill="#FA8D1C"/>
<path d="M1135 960 c-14 -14 -36 -21 -73 -22 -41 -2 -52 -7 -52 -20 0 -10 -14 -21 -37 -29 -21 -6 -60 -22 -88 -34 -58 -25 -74 -31 -260 -95 -174 -59 -324 -115 -393 -146 -29 -13 -55 -24 -59 -24 -3 0 -35 -14 -70 -30 -51 -24 -62 -34 -54 -44 15 -17 147 -86 166 -86 8 0 38 -15 67 -32 29 -18 62 -34 73 -36 11 -2 47 -16 80 -32 132 -63 262 -117 293 -123 30 -6 103 -32 212 -77 25 -10 74 -26 109 -35 35 -9 74 -23 87 -31 12 -9 35 -14 51 -12 23 2 33 14 61 69 34 68 43 116 56 294 4 44 8 107 11 140 3 33 7 83 9 110 7 102 -33 284 -68 307 -24 16 -101 8 -121 -12z" transform="translate(0.000000,104.000000) scale(0.100000,-0.100000)" stroke="none" fill="#AAC8C7"/>

</svg>