<?xml version="1.0" standalone="no"?>
<!DOCTYPE svg PUBLIC "-//W3C//DTD SVG 20010904//EN"
 "http://www.w3.org/TR/2001/REC-SVG-20010904/DTD/svg10.dtd">
<svg version="1.0" xmlns="http://www.w3.org/2000/svg" width="484pt" height="772pt" viewBox="0 0 484 772" preserveAspectRatio = "xMidYMid meet" >
<metadata>
Created by ZoeQu, written in 2022
</metadata>
<rect width="484" height="772" fill="#3D2527"/>
<g id="row0" transform="translate(16,0.0)">
<g id="0" transform="translate(0.0,0)scale(1,1)">

<path d="M175 1663 c-43 -70 -89 -210 -104 -316 -20 -144 -10 -383 29 -697 27 -216 85 -500 106 -520 15 -14 16 -13 11 5 -67 251 -104 512 -122 855 l-16 305 36 150 c25 105 46 167 71 212 44 79 38 82 -11 6z" transform="translate(0,193) scale(0.1,-0.1)" stroke="none" fill="#BF7537"/>

<path d="M653 1770 c57 -68 70 -103 56 -148 -6 -20 -20 -53 -30 -74 -35 -67 -49 -119 -69 -260 -12 -78 -27 -150 -35 -162 -8 -11 -15 -24 -15 -28 0 -16 53 -7 81 13 25 17 34 19 66 10 63 -18 83 -14 119 26 34 37 34 37 79 25 64 -17 68 -16 117 24 23 20 61 45 84 54 23 10 44 25 47 33 7 20 -12 37 -41 37 -31 0 -80 53 -134 142 -44 75 -104 134 -144 144 -15 4 -36 16 -46 26 -11 11 -26 17 -33 14 -8 -3 -22 14 -39 47 -14 29 -42 68 -63 87 l-37 35 37 -45z m78 -291 c-5 -13 -10 -19 -10 -12 -1 15 10 45 15 40 3 -2 0 -15 -5 -28z m170 -41 c19 -34 2 -17 -30 30 -25 35 -26 40 -6 17 14 -16 30 -38 36 -47z m-184 -10 c-3 -8 -6 -5 -6 6 -1 11 2 17 5 13 3 -3 4 -12 1 -19z m223 -62 c0 -12 -5 -7 -19 24 -11 24 -11 24 3 6 9 -11 16 -24 16 -30z m-233 -28 c-3 -8 -6 -5 -6 6 -1 11 2 17 5 13 3 -3 4 -12 1 -19z m10 -60 c-3 -8 -6 -5 -6 6 -1 11 2 17 5 13 3 -3 4 -12 1 -19z" transform="translate(0,193) scale(0.1,-0.1)" stroke="none" fill="#BF7537"/>

</g>

<g id="1" transform="translate(121.0,0)scale(1,1)">

<path d="M175 1663 c-43 -70 -89 -210 -104 -316 -20 -144 -10 -383 29 -697 27 -216 85 -500 106 -520 15 -14 16 -13 11 5 -67 251 -104 512 -122 855 l-16 305 36 150 c25 105 46 167 71 212 44 79 38 82 -11 6z" transform="translate(0,193) scale(0.1,-0.1)" stroke="none" fill="#BF7537"/>

<path d="M653 1770 c57 -68 70 -103 56 -148 -6 -20 -20 -53 -30 -74 -35 -67 -49 -119 -69 -260 -12 -78 -27 -150 -35 -162 -8 -11 -15 -24 -15 -28 0 -16 53 -7 81 13 25 17 34 19 66 10 63 -18 83 -14 119 26 34 37 34 37 79 25 64 -17 68 -16 117 24 23 20 61 45 84 54 23 10 44 25 47 33 7 20 -12 37 -41 37 -31 0 -80 53 -134 142 -44 75 -104 134 -144 144 -15 4 -36 16 -46 26 -11 11 -26 17 -33 14 -8 -3 -22 14 -39 47 -14 29 -42 68 -63 87 l-37 35 37 -45z m78 -291 c-5 -13 -10 -19 -10 -12 -1 15 10 45 15 40 3 -2 0 -15 -5 -28z m170 -41 c19 -34 2 -17 -30 30 -25 35 -26 40 -6 17 14 -16 30 -38 36 -47z m-184 -10 c-3 -8 -6 -5 -6 6 -1 11 2 17 5 13 3 -3 4 -12 1 -19z m223 -62 c0 -12 -5 -7 -19 24 -11 24 -11 24 3 6 9 -11 16 -24 16 -30z m-233 -28 c-3 -8 -6 -5 -6 6 -1 11 2 17 5 13 3 -3 4 -12 1 -19z m10 -60 c-3 -8 -6 -5 -6 6 -1 11 2 17 5 13 3 -3 4 -12 1 -19z" transform="translate(0,193) scale(0.1,-0.1)" stroke="none" fill="#BF7537"/>

</g>

<g id="2" transform="translate(242.0,0)scale(1,1)">

<path d="M175 1663 c-43 -70 -89 -210 -104 -316 -20 -144 -10 -383 29 -697 27 -216 85 -500 106 -520 15 -14 16 -13 11 5 -67 251 -104 512 -122 855 l-16 305 36 150 c25 105 46 167 71 212 44 79 38 82 -11 6z" transform="translate(0,193) scale(0.1,-0.1)" stroke="none" fill="#BF7537"/>

<path d="M653 1770 c57 -68 70 -103 56 -148 -6 -20 -20 -53 -30 -74 -35 -67 -49 -119 -69 -260 -12 -78 -27 -150 -35 -162 -8 -11 -15 -24 -15 -28 0 -16 53 -7 81 13 25 17 34 19 66 10 63 -18 83 -14 119 26 34 37 34 37 79 25 64 -17 68 -16 117 24 23 20 61 45 84 54 23 10 44 25 47 33 7 20 -12 37 -41 37 -31 0 -80 53 -134 142 -44 75 -104 134 -144 144 -15 4 -36 16 -46 26 -11 11 -26 17 -33 14 -8 -3 -22 14 -39 47 -14 29 -42 68 -63 87 l-37 35 37 -45z m78 -291 c-5 -13 -10 -19 -10 -12 -1 15 10 45 15 40 3 -2 0 -15 -5 -28z m170 -41 c19 -34 2 -17 -30 30 -25 35 -26 40 -6 17 14 -16 30 -38 36 -47z m-184 -10 c-3 -8 -6 -5 -6 6 -1 11 2 17 5 13 3 -3 4 -12 1 -19z m223 -62 c0 -12 -5 -7 -19 24 -11 24 -11 24 3 6 9 -11 16 -24 16 -30z m-233 -28 c-3 -8 -6 -5 -6 6 -1 11 2 17 5 13 3 -3 4 -12 1 -19z m10 -60 c-3 -8 -6 -5 -6 6 -1 11 2 17 5 13 3 -3 4 -12 1 -19z" transform="translate(0,193) scale(0.1,-0.1)" stroke="none" fill="#BF7537"/>

</g>

<g id="3" transform="translate(363.0,0)scale(1,1)">

<path d="M175 1663 c-43 -70 -89 -210 -104 -316 -20 -144 -10 -383 29 -697 27 -216 85 -500 106 -520 15 -14 16 -13 11 5 -67 251 -104 512 -122 855 l-16 305 36 150 c25 105 46 167 71 212 44 79 38 82 -11 6z" transform="translate(0,193) scale(0.1,-0.1)" stroke="none" fill="#BF7537"/>

<path d="M653 1770 c57 -68 70 -103 56 -148 -6 -20 -20 -53 -30 -74 -35 -67 -49 -119 -69 -260 -12 -78 -27 -150 -35 -162 -8 -11 -15 -24 -15 -28 0 -16 53 -7 81 13 25 17 34 19 66 10 63 -18 83 -14 119 26 34 37 34 37 79 25 64 -17 68 -16 117 24 23 20 61 45 84 54 23 10 44 25 47 33 7 20 -12 37 -41 37 -31 0 -80 53 -134 142 -44 75 -104 134 -144 144 -15 4 -36 16 -46 26 -11 11 -26 17 -33 14 -8 -3 -22 14 -39 47 -14 29 -42 68 -63 87 l-37 35 37 -45z m78 -291 c-5 -13 -10 -19 -10 -12 -1 15 10 45 15 40 3 -2 0 -15 -5 -28z m170 -41 c19 -34 2 -17 -30 30 -25 35 -26 40 -6 17 14 -16 30 -38 36 -47z m-184 -10 c-3 -8 -6 -5 -6 6 -1 11 2 17 5 13 3 -3 4 -12 1 -19z m223 -62 c0 -12 -5 -7 -19 24 -11 24 -11 24 3 6 9 -11 16 -24 16 -30z m-233 -28 c-3 -8 -6 -5 -6 6 -1 11 2 17 5 13 3 -3 4 -12 1 -19z m10 -60 c-3 -8 -6 -5 -6 6 -1 11 2 17 5 13 3 -3 4 -12 1 -19z" transform="translate(0,193) scale(0.1,-0.1)" stroke="none" fill="#BF7537"/>

</g>

<g id="4" transform="translate(484.0,0)scale(1,1)">

<path d="M175 1663 c-43 -70 -89 -210 -104 -316 -20 -144 -10 -383 29 -697 27 -216 85 -500 106 -520 15 -14 16 -13 11 5 -67 251 -104 512 -122 855 l-16 305 36 150 c25 105 46 167 71 212 44 79 38 82 -11 6z" transform="translate(0,193) scale(0.1,-0.1)" stroke="none" fill="#BF7537"/>

<path d="M653 1770 c57 -68 70 -103 56 -148 -6 -20 -20 -53 -30 -74 -35 -67 -49 -119 -69 -260 -12 -78 -27 -150 -35 -162 -8 -11 -15 -24 -15 -28 0 -16 53 -7 81 13 25 17 34 19 66 10 63 -18 83 -14 119 26 34 37 34 37 79 25 64 -17 68 -16 117 24 23 20 61 45 84 54 23 10 44 25 47 33 7 20 -12 37 -41 37 -31 0 -80 53 -134 142 -44 75 -104 134 -144 144 -15 4 -36 16 -46 26 -11 11 -26 17 -33 14 -8 -3 -22 14 -39 47 -14 29 -42 68 -63 87 l-37 35 37 -45z m78 -291 c-5 -13 -10 -19 -10 -12 -1 15 10 45 15 40 3 -2 0 -15 -5 -28z m170 -41 c19 -34 2 -17 -30 30 -25 35 -26 40 -6 17 14 -16 30 -38 36 -47z m-184 -10 c-3 -8 -6 -5 -6 6 -1 11 2 17 5 13 3 -3 4 -12 1 -19z m223 -62 c0 -12 -5 -7 -19 24 -11 24 -11 24 3 6 9 -11 16 -24 16 -30z m-233 -28 c-3 -8 -6 -5 -6 6 -1 11 2 17 5 13 3 -3 4 -12 1 -19z m10 -60 c-3 -8 -6 -5 -6 6 -1 11 2 17 5 13 3 -3 4 -12 1 -19z" transform="translate(0,193) scale(0.1,-0.1)" stroke="none" fill="#BF7537"/>

</g>

</g>
<g id="row1" transform="translate(16,193.0)">
<g id="0" transform="translate(0.0,0)scale(1,1)">

<path d="M175 1663 c-43 -70 -89 -210 -104 -316 -20 -144 -10 -383 29 -697 27 -216 85 -500 106 -520 15 -14 16 -13 11 5 -67 251 -104 512 -122 855 l-16 305 36 150 c25 105 46 167 71 212 44 79 38 82 -11 6z" transform="translate(0,193) scale(0.1,-0.1)" stroke="none" fill="#BF7537"/>

<path d="M653 1770 c57 -68 70 -103 56 -148 -6 -20 -20 -53 -30 -74 -35 -67 -49 -119 -69 -260 -12 -78 -27 -150 -35 -162 -8 -11 -15 -24 -15 -28 0 -16 53 -7 81 13 25 17 34 19 66 10 63 -18 83 -14 119 26 34 37 34 37 79 25 64 -17 68 -16 117 24 23 20 61 45 84 54 23 10 44 25 47 33 7 20 -12 37 -41 37 -31 0 -80 53 -134 142 -44 75 -104 134 -144 144 -15 4 -36 16 -46 26 -11 11 -26 17 -33 14 -8 -3 -22 14 -39 47 -14 29 -42 68 -63 87 l-37 35 37 -45z m78 -291 c-5 -13 -10 -19 -10 -12 -1 15 10 45 15 40 3 -2 0 -15 -5 -28z m170 -41 c19 -34 2 -17 -30 30 -25 35 -26 40 -6 17 14 -16 30 -38 36 -47z m-184 -10 c-3 -8 -6 -5 -6 6 -1 11 2 17 5 13 3 -3 4 -12 1 -19z m223 -62 c0 -12 -5 -7 -19 24 -11 24 -11 24 3 6 9 -11 16 -24 16 -30z m-233 -28 c-3 -8 -6 -5 -6 6 -1 11 2 17 5 13 3 -3 4 -12 1 -19z m10 -60 c-3 -8 -6 -5 -6 6 -1 11 2 17 5 13 3 -3 4 -12 1 -19z" transform="translate(0,193) scale(0.1,-0.1)" stroke="none" fill="#BF7537"/>

</g>

<g id="1" transform="translate(121.0,0)scale(1,1)">

<path d="M175 1663 c-43 -70 -89 -210 -104 -316 -20 -144 -10 -383 29 -697 27 -216 85 -500 106 -520 15 -14 16 -13 11 5 -67 251 -104 512 -122 855 l-16 305 36 150 c25 105 46 167 71 212 44 79 38 82 -11 6z" transform="translate(0,193) scale(0.1,-0.1)" stroke="none" fill="#BF7537"/>

<path d="M653 1770 c57 -68 70 -103 56 -148 -6 -20 -20 -53 -30 -74 -35 -67 -49 -119 -69 -260 -12 -78 -27 -150 -35 -162 -8 -11 -15 -24 -15 -28 0 -16 53 -7 81 13 25 17 34 19 66 10 63 -18 83 -14 119 26 34 37 34 37 79 25 64 -17 68 -16 117 24 23 20 61 45 84 54 23 10 44 25 47 33 7 20 -12 37 -41 37 -31 0 -80 53 -134 142 -44 75 -104 134 -144 144 -15 4 -36 16 -46 26 -11 11 -26 17 -33 14 -8 -3 -22 14 -39 47 -14 29 -42 68 -63 87 l-37 35 37 -45z m78 -291 c-5 -13 -10 -19 -10 -12 -1 15 10 45 15 40 3 -2 0 -15 -5 -28z m170 -41 c19 -34 2 -17 -30 30 -25 35 -26 40 -6 17 14 -16 30 -38 36 -47z m-184 -10 c-3 -8 -6 -5 -6 6 -1 11 2 17 5 13 3 -3 4 -12 1 -19z m223 -62 c0 -12 -5 -7 -19 24 -11 24 -11 24 3 6 9 -11 16 -24 16 -30z m-233 -28 c-3 -8 -6 -5 -6 6 -1 11 2 17 5 13 3 -3 4 -12 1 -19z m10 -60 c-3 -8 -6 -5 -6 6 -1 11 2 17 5 13 3 -3 4 -12 1 -19z" transform="translate(0,193) scale(0.1,-0.1)" stroke="none" fill="#BF7537"/>

</g>

<g id="2" transform="translate(242.0,0)scale(1,1)">

<path d="M175 1663 c-43 -70 -89 -210 -104 -316 -20 -144 -10 -383 29 -697 27 -216 85 -500 106 -520 15 -14 16 -13 11 5 -67 251 -104 512 -122 855 l-16 305 36 150 c25 105 46 167 71 212 44 79 38 82 -11 6z" transform="translate(0,193) scale(0.1,-0.1)" stroke="none" fill="#BF7537"/>

<path d="M653 1770 c57 -68 70 -103 56 -148 -6 -20 -20 -53 -30 -74 -35 -67 -49 -119 -69 -260 -12 -78 -27 -150 -35 -162 -8 -11 -15 -24 -15 -28 0 -16 53 -7 81 13 25 17 34 19 66 10 63 -18 83 -14 119 26 34 37 34 37 79 25 64 -17 68 -16 117 24 23 20 61 45 84 54 23 10 44 25 47 33 7 20 -12 37 -41 37 -31 0 -80 53 -134 142 -44 75 -104 134 -144 144 -15 4 -36 16 -46 26 -11 11 -26 17 -33 14 -8 -3 -22 14 -39 47 -14 29 -42 68 -63 87 l-37 35 37 -45z m78 -291 c-5 -13 -10 -19 -10 -12 -1 15 10 45 15 40 3 -2 0 -15 -5 -28z m170 -41 c19 -34 2 -17 -30 30 -25 35 -26 40 -6 17 14 -16 30 -38 36 -47z m-184 -10 c-3 -8 -6 -5 -6 6 -1 11 2 17 5 13 3 -3 4 -12 1 -19z m223 -62 c0 -12 -5 -7 -19 24 -11 24 -11 24 3 6 9 -11 16 -24 16 -30z m-233 -28 c-3 -8 -6 -5 -6 6 -1 11 2 17 5 13 3 -3 4 -12 1 -19z m10 -60 c-3 -8 -6 -5 -6 6 -1 11 2 17 5 13 3 -3 4 -12 1 -19z" transform="translate(0,193) scale(0.1,-0.1)" stroke="none" fill="#BF7537"/>

</g>

<g id="3" transform="translate(363.0,0)scale(1,1)">

<path d="M175 1663 c-43 -70 -89 -210 -104 -316 -20 -144 -10 -383 29 -697 27 -216 85 -500 106 -520 15 -14 16 -13 11 5 -67 251 -104 512 -122 855 l-16 305 36 150 c25 105 46 167 71 212 44 79 38 82 -11 6z" transform="translate(0,193) scale(0.1,-0.1)" stroke="none" fill="#BF7537"/>

<path d="M653 1770 c57 -68 70 -103 56 -148 -6 -20 -20 -53 -30 -74 -35 -67 -49 -119 -69 -260 -12 -78 -27 -150 -35 -162 -8 -11 -15 -24 -15 -28 0 -16 53 -7 81 13 25 17 34 19 66 10 63 -18 83 -14 119 26 34 37 34 37 79 25 64 -17 68 -16 117 24 23 20 61 45 84 54 23 10 44 25 47 33 7 20 -12 37 -41 37 -31 0 -80 53 -134 142 -44 75 -104 134 -144 144 -15 4 -36 16 -46 26 -11 11 -26 17 -33 14 -8 -3 -22 14 -39 47 -14 29 -42 68 -63 87 l-37 35 37 -45z m78 -291 c-5 -13 -10 -19 -10 -12 -1 15 10 45 15 40 3 -2 0 -15 -5 -28z m170 -41 c19 -34 2 -17 -30 30 -25 35 -26 40 -6 17 14 -16 30 -38 36 -47z m-184 -10 c-3 -8 -6 -5 -6 6 -1 11 2 17 5 13 3 -3 4 -12 1 -19z m223 -62 c0 -12 -5 -7 -19 24 -11 24 -11 24 3 6 9 -11 16 -24 16 -30z m-233 -28 c-3 -8 -6 -5 -6 6 -1 11 2 17 5 13 3 -3 4 -12 1 -19z m10 -60 c-3 -8 -6 -5 -6 6 -1 11 2 17 5 13 3 -3 4 -12 1 -19z" transform="translate(0,193) scale(0.1,-0.1)" stroke="none" fill="#BF7537"/>

</g>

<g id="4" transform="translate(484.0,0)scale(1,1)">

<path d="M175 1663 c-43 -70 -89 -210 -104 -316 -20 -144 -10 -383 29 -697 27 -216 85 -500 106 -520 15 -14 16 -13 11 5 -67 251 -104 512 -122 855 l-16 305 36 150 c25 105 46 167 71 212 44 79 38 82 -11 6z" transform="translate(0,193) scale(0.1,-0.1)" stroke="none" fill="#BF7537"/>

<path d="M653 1770 c57 -68 70 -103 56 -148 -6 -20 -20 -53 -30 -74 -35 -67 -49 -119 -69 -260 -12 -78 -27 -150 -35 -162 -8 -11 -15 -24 -15 -28 0 -16 53 -7 81 13 25 17 34 19 66 10 63 -18 83 -14 119 26 34 37 34 37 79 25 64 -17 68 -16 117 24 23 20 61 45 84 54 23 10 44 25 47 33 7 20 -12 37 -41 37 -31 0 -80 53 -134 142 -44 75 -104 134 -144 144 -15 4 -36 16 -46 26 -11 11 -26 17 -33 14 -8 -3 -22 14 -39 47 -14 29 -42 68 -63 87 l-37 35 37 -45z m78 -291 c-5 -13 -10 -19 -10 -12 -1 15 10 45 15 40 3 -2 0 -15 -5 -28z m170 -41 c19 -34 2 -17 -30 30 -25 35 -26 40 -6 17 14 -16 30 -38 36 -47z m-184 -10 c-3 -8 -6 -5 -6 6 -1 11 2 17 5 13 3 -3 4 -12 1 -19z m223 -62 c0 -12 -5 -7 -19 24 -11 24 -11 24 3 6 9 -11 16 -24 16 -30z m-233 -28 c-3 -8 -6 -5 -6 6 -1 11 2 17 5 13 3 -3 4 -12 1 -19z m10 -60 c-3 -8 -6 -5 -6 6 -1 11 2 17 5 13 3 -3 4 -12 1 -19z" transform="translate(0,193) scale(0.1,-0.1)" stroke="none" fill="#BF7537"/>

</g>

</g>
<g id="row2" transform="translate(16,386.0)">
<g id="0" transform="translate(0.0,0)scale(1,1)">

<path d="M175 1663 c-43 -70 -89 -210 -104 -316 -20 -144 -10 -383 29 -697 27 -216 85 -500 106 -520 15 -14 16 -13 11 5 -67 251 -104 512 -122 855 l-16 305 36 150 c25 105 46 167 71 212 44 79 38 82 -11 6z" transform="translate(0,193) scale(0.1,-0.1)" stroke="none" fill="#BF7537"/>

<path d="M653 1770 c57 -68 70 -103 56 -148 -6 -20 -20 -53 -30 -74 -35 -67 -49 -119 -69 -260 -12 -78 -27 -150 -35 -162 -8 -11 -15 -24 -15 -28 0 -16 53 -7 81 13 25 17 34 19 66 10 63 -18 83 -14 119 26 34 37 34 37 79 25 64 -17 68 -16 117 24 23 20 61 45 84 54 23 10 44 25 47 33 7 20 -12 37 -41 37 -31 0 -80 53 -134 142 -44 75 -104 134 -144 144 -15 4 -36 16 -46 26 -11 11 -26 17 -33 14 -8 -3 -22 14 -39 47 -14 29 -42 68 -63 87 l-37 35 37 -45z m78 -291 c-5 -13 -10 -19 -10 -12 -1 15 10 45 15 40 3 -2 0 -15 -5 -28z m170 -41 c19 -34 2 -17 -30 30 -25 35 -26 40 -6 17 14 -16 30 -38 36 -47z m-184 -10 c-3 -8 -6 -5 -6 6 -1 11 2 17 5 13 3 -3 4 -12 1 -19z m223 -62 c0 -12 -5 -7 -19 24 -11 24 -11 24 3 6 9 -11 16 -24 16 -30z m-233 -28 c-3 -8 -6 -5 -6 6 -1 11 2 17 5 13 3 -3 4 -12 1 -19z m10 -60 c-3 -8 -6 -5 -6 6 -1 11 2 17 5 13 3 -3 4 -12 1 -19z" transform="translate(0,193) scale(0.1,-0.1)" stroke="none" fill="#BF7537"/>

</g>

<g id="1" transform="translate(121.0,0)scale(1,1)">

<path d="M175 1663 c-43 -70 -89 -210 -104 -316 -20 -144 -10 -383 29 -697 27 -216 85 -500 106 -520 15 -14 16 -13 11 5 -67 251 -104 512 -122 855 l-16 305 36 150 c25 105 46 167 71 212 44 79 38 82 -11 6z" transform="translate(0,193) scale(0.1,-0.1)" stroke="none" fill="#BF7537"/>

<path d="M653 1770 c57 -68 70 -103 56 -148 -6 -20 -20 -53 -30 -74 -35 -67 -49 -119 -69 -260 -12 -78 -27 -150 -35 -162 -8 -11 -15 -24 -15 -28 0 -16 53 -7 81 13 25 17 34 19 66 10 63 -18 83 -14 119 26 34 37 34 37 79 25 64 -17 68 -16 117 24 23 20 61 45 84 54 23 10 44 25 47 33 7 20 -12 37 -41 37 -31 0 -80 53 -134 142 -44 75 -104 134 -144 144 -15 4 -36 16 -46 26 -11 11 -26 17 -33 14 -8 -3 -22 14 -39 47 -14 29 -42 68 -63 87 l-37 35 37 -45z m78 -291 c-5 -13 -10 -19 -10 -12 -1 15 10 45 15 40 3 -2 0 -15 -5 -28z m170 -41 c19 -34 2 -17 -30 30 -25 35 -26 40 -6 17 14 -16 30 -38 36 -47z m-184 -10 c-3 -8 -6 -5 -6 6 -1 11 2 17 5 13 3 -3 4 -12 1 -19z m223 -62 c0 -12 -5 -7 -19 24 -11 24 -11 24 3 6 9 -11 16 -24 16 -30z m-233 -28 c-3 -8 -6 -5 -6 6 -1 11 2 17 5 13 3 -3 4 -12 1 -19z m10 -60 c-3 -8 -6 -5 -6 6 -1 11 2 17 5 13 3 -3 4 -12 1 -19z" transform="translate(0,193) scale(0.1,-0.1)" stroke="none" fill="#BF7537"/>

</g>

<g id="2" transform="translate(242.0,0)scale(1,1)">

<path d="M175 1663 c-43 -70 -89 -210 -104 -316 -20 -144 -10 -383 29 -697 27 -216 85 -500 106 -520 15 -14 16 -13 11 5 -67 251 -104 512 -122 855 l-16 305 36 150 c25 105 46 167 71 212 44 79 38 82 -11 6z" transform="translate(0,193) scale(0.1,-0.1)" stroke="none" fill="#BF7537"/>

<path d="M653 1770 c57 -68 70 -103 56 -148 -6 -20 -20 -53 -30 -74 -35 -67 -49 -119 -69 -260 -12 -78 -27 -150 -35 -162 -8 -11 -15 -24 -15 -28 0 -16 53 -7 81 13 25 17 34 19 66 10 63 -18 83 -14 119 26 34 37 34 37 79 25 64 -17 68 -16 117 24 23 20 61 45 84 54 23 10 44 25 47 33 7 20 -12 37 -41 37 -31 0 -80 53 -134 142 -44 75 -104 134 -144 144 -15 4 -36 16 -46 26 -11 11 -26 17 -33 14 -8 -3 -22 14 -39 47 -14 29 -42 68 -63 87 l-37 35 37 -45z m78 -291 c-5 -13 -10 -19 -10 -12 -1 15 10 45 15 40 3 -2 0 -15 -5 -28z m170 -41 c19 -34 2 -17 -30 30 -25 35 -26 40 -6 17 14 -16 30 -38 36 -47z m-184 -10 c-3 -8 -6 -5 -6 6 -1 11 2 17 5 13 3 -3 4 -12 1 -19z m223 -62 c0 -12 -5 -7 -19 24 -11 24 -11 24 3 6 9 -11 16 -24 16 -30z m-233 -28 c-3 -8 -6 -5 -6 6 -1 11 2 17 5 13 3 -3 4 -12 1 -19z m10 -60 c-3 -8 -6 -5 -6 6 -1 11 2 17 5 13 3 -3 4 -12 1 -19z" transform="translate(0,193) scale(0.1,-0.1)" stroke="none" fill="#BF7537"/>

</g>

<g id="3" transform="translate(363.0,0)scale(1,1)">

<path d="M175 1663 c-43 -70 -89 -210 -104 -316 -20 -144 -10 -383 29 -697 27 -216 85 -500 106 -520 15 -14 16 -13 11 5 -67 251 -104 512 -122 855 l-16 305 36 150 c25 105 46 167 71 212 44 79 38 82 -11 6z" transform="translate(0,193) scale(0.1,-0.1)" stroke="none" fill="#BF7537"/>

<path d="M653 1770 c57 -68 70 -103 56 -148 -6 -20 -20 -53 -30 -74 -35 -67 -49 -119 -69 -260 -12 -78 -27 -150 -35 -162 -8 -11 -15 -24 -15 -28 0 -16 53 -7 81 13 25 17 34 19 66 10 63 -18 83 -14 119 26 34 37 34 37 79 25 64 -17 68 -16 117 24 23 20 61 45 84 54 23 10 44 25 47 33 7 20 -12 37 -41 37 -31 0 -80 53 -134 142 -44 75 -104 134 -144 144 -15 4 -36 16 -46 26 -11 11 -26 17 -33 14 -8 -3 -22 14 -39 47 -14 29 -42 68 -63 87 l-37 35 37 -45z m78 -291 c-5 -13 -10 -19 -10 -12 -1 15 10 45 15 40 3 -2 0 -15 -5 -28z m170 -41 c19 -34 2 -17 -30 30 -25 35 -26 40 -6 17 14 -16 30 -38 36 -47z m-184 -10 c-3 -8 -6 -5 -6 6 -1 11 2 17 5 13 3 -3 4 -12 1 -19z m223 -62 c0 -12 -5 -7 -19 24 -11 24 -11 24 3 6 9 -11 16 -24 16 -30z m-233 -28 c-3 -8 -6 -5 -6 6 -1 11 2 17 5 13 3 -3 4 -12 1 -19z m10 -60 c-3 -8 -6 -5 -6 6 -1 11 2 17 5 13 3 -3 4 -12 1 -19z" transform="translate(0,193) scale(0.1,-0.1)" stroke="none" fill="#BF7537"/>

</g>

<g id="4" transform="translate(484.0,0)scale(1,1)">

<path d="M175 1663 c-43 -70 -89 -210 -104 -316 -20 -144 -10 -383 29 -697 27 -216 85 -500 106 -520 15 -14 16 -13 11 5 -67 251 -104 512 -122 855 l-16 305 36 150 c25 105 46 167 71 212 44 79 38 82 -11 6z" transform="translate(0,193) scale(0.1,-0.1)" stroke="none" fill="#BF7537"/>

<path d="M653 1770 c57 -68 70 -103 56 -148 -6 -20 -20 -53 -30 -74 -35 -67 -49 -119 -69 -260 -12 -78 -27 -150 -35 -162 -8 -11 -15 -24 -15 -28 0 -16 53 -7 81 13 25 17 34 19 66 10 63 -18 83 -14 119 26 34 37 34 37 79 25 64 -17 68 -16 117 24 23 20 61 45 84 54 23 10 44 25 47 33 7 20 -12 37 -41 37 -31 0 -80 53 -134 142 -44 75 -104 134 -144 144 -15 4 -36 16 -46 26 -11 11 -26 17 -33 14 -8 -3 -22 14 -39 47 -14 29 -42 68 -63 87 l-37 35 37 -45z m78 -291 c-5 -13 -10 -19 -10 -12 -1 15 10 45 15 40 3 -2 0 -15 -5 -28z m170 -41 c19 -34 2 -17 -30 30 -25 35 -26 40 -6 17 14 -16 30 -38 36 -47z m-184 -10 c-3 -8 -6 -5 -6 6 -1 11 2 17 5 13 3 -3 4 -12 1 -19z m223 -62 c0 -12 -5 -7 -19 24 -11 24 -11 24 3 6 9 -11 16 -24 16 -30z m-233 -28 c-3 -8 -6 -5 -6 6 -1 11 2 17 5 13 3 -3 4 -12 1 -19z m10 -60 c-3 -8 -6 -5 -6 6 -1 11 2 17 5 13 3 -3 4 -12 1 -19z" transform="translate(0,193) scale(0.1,-0.1)" stroke="none" fill="#BF7537"/>

</g>

</g>
<g id="row3" transform="translate(16,579.0)">
<g id="0" transform="translate(0.0,0)scale(1,1)">

<path d="M175 1663 c-43 -70 -89 -210 -104 -316 -20 -144 -10 -383 29 -697 27 -216 85 -500 106 -520 15 -14 16 -13 11 5 -67 251 -104 512 -122 855 l-16 305 36 150 c25 105 46 167 71 212 44 79 38 82 -11 6z" transform="translate(0,193) scale(0.1,-0.1)" stroke="none" fill="#BF7537"/>

<path d="M653 1770 c57 -68 70 -103 56 -148 -6 -20 -20 -53 -30 -74 -35 -67 -49 -119 -69 -260 -12 -78 -27 -150 -35 -162 -8 -11 -15 -24 -15 -28 0 -16 53 -7 81 13 25 17 34 19 66 10 63 -18 83 -14 119 26 34 37 34 37 79 25 64 -17 68 -16 117 24 23 20 61 45 84 54 23 10 44 25 47 33 7 20 -12 37 -41 37 -31 0 -80 53 -134 142 -44 75 -104 134 -144 144 -15 4 -36 16 -46 26 -11 11 -26 17 -33 14 -8 -3 -22 14 -39 47 -14 29 -42 68 -63 87 l-37 35 37 -45z m78 -291 c-5 -13 -10 -19 -10 -12 -1 15 10 45 15 40 3 -2 0 -15 -5 -28z m170 -41 c19 -34 2 -17 -30 30 -25 35 -26 40 -6 17 14 -16 30 -38 36 -47z m-184 -10 c-3 -8 -6 -5 -6 6 -1 11 2 17 5 13 3 -3 4 -12 1 -19z m223 -62 c0 -12 -5 -7 -19 24 -11 24 -11 24 3 6 9 -11 16 -24 16 -30z m-233 -28 c-3 -8 -6 -5 -6 6 -1 11 2 17 5 13 3 -3 4 -12 1 -19z m10 -60 c-3 -8 -6 -5 -6 6 -1 11 2 17 5 13 3 -3 4 -12 1 -19z" transform="translate(0,193) scale(0.1,-0.1)" stroke="none" fill="#BF7537"/>

</g>

<g id="1" transform="translate(121.0,0)scale(1,1)">

<path d="M175 1663 c-43 -70 -89 -210 -104 -316 -20 -144 -10 -383 29 -697 27 -216 85 -500 106 -520 15 -14 16 -13 11 5 -67 251 -104 512 -122 855 l-16 305 36 150 c25 105 46 167 71 212 44 79 38 82 -11 6z" transform="translate(0,193) scale(0.1,-0.1)" stroke="none" fill="#BF7537"/>

<path d="M653 1770 c57 -68 70 -103 56 -148 -6 -20 -20 -53 -30 -74 -35 -67 -49 -119 -69 -260 -12 -78 -27 -150 -35 -162 -8 -11 -15 -24 -15 -28 0 -16 53 -7 81 13 25 17 34 19 66 10 63 -18 83 -14 119 26 34 37 34 37 79 25 64 -17 68 -16 117 24 23 20 61 45 84 54 23 10 44 25 47 33 7 20 -12 37 -41 37 -31 0 -80 53 -134 142 -44 75 -104 134 -144 144 -15 4 -36 16 -46 26 -11 11 -26 17 -33 14 -8 -3 -22 14 -39 47 -14 29 -42 68 -63 87 l-37 35 37 -45z m78 -291 c-5 -13 -10 -19 -10 -12 -1 15 10 45 15 40 3 -2 0 -15 -5 -28z m170 -41 c19 -34 2 -17 -30 30 -25 35 -26 40 -6 17 14 -16 30 -38 36 -47z m-184 -10 c-3 -8 -6 -5 -6 6 -1 11 2 17 5 13 3 -3 4 -12 1 -19z m223 -62 c0 -12 -5 -7 -19 24 -11 24 -11 24 3 6 9 -11 16 -24 16 -30z m-233 -28 c-3 -8 -6 -5 -6 6 -1 11 2 17 5 13 3 -3 4 -12 1 -19z m10 -60 c-3 -8 -6 -5 -6 6 -1 11 2 17 5 13 3 -3 4 -12 1 -19z" transform="translate(0,193) scale(0.1,-0.1)" stroke="none" fill="#BF7537"/>

</g>

<g id="2" transform="translate(242.0,0)scale(1,1)">

<path d="M175 1663 c-43 -70 -89 -210 -104 -316 -20 -144 -10 -383 29 -697 27 -216 85 -500 106 -520 15 -14 16 -13 11 5 -67 251 -104 512 -122 855 l-16 305 36 150 c25 105 46 167 71 212 44 79 38 82 -11 6z" transform="translate(0,193) scale(0.1,-0.1)" stroke="none" fill="#BF7537"/>

<path d="M653 1770 c57 -68 70 -103 56 -148 -6 -20 -20 -53 -30 -74 -35 -67 -49 -119 -69 -260 -12 -78 -27 -150 -35 -162 -8 -11 -15 -24 -15 -28 0 -16 53 -7 81 13 25 17 34 19 66 10 63 -18 83 -14 119 26 34 37 34 37 79 25 64 -17 68 -16 117 24 23 20 61 45 84 54 23 10 44 25 47 33 7 20 -12 37 -41 37 -31 0 -80 53 -134 142 -44 75 -104 134 -144 144 -15 4 -36 16 -46 26 -11 11 -26 17 -33 14 -8 -3 -22 14 -39 47 -14 29 -42 68 -63 87 l-37 35 37 -45z m78 -291 c-5 -13 -10 -19 -10 -12 -1 15 10 45 15 40 3 -2 0 -15 -5 -28z m170 -41 c19 -34 2 -17 -30 30 -25 35 -26 40 -6 17 14 -16 30 -38 36 -47z m-184 -10 c-3 -8 -6 -5 -6 6 -1 11 2 17 5 13 3 -3 4 -12 1 -19z m223 -62 c0 -12 -5 -7 -19 24 -11 24 -11 24 3 6 9 -11 16 -24 16 -30z m-233 -28 c-3 -8 -6 -5 -6 6 -1 11 2 17 5 13 3 -3 4 -12 1 -19z m10 -60 c-3 -8 -6 -5 -6 6 -1 11 2 17 5 13 3 -3 4 -12 1 -19z" transform="translate(0,193) scale(0.1,-0.1)" stroke="none" fill="#BF7537"/>

</g>

<g id="3" transform="translate(363.0,0)scale(1,1)">

<path d="M175 1663 c-43 -70 -89 -210 -104 -316 -20 -144 -10 -383 29 -697 27 -216 85 -500 106 -520 15 -14 16 -13 11 5 -67 251 -104 512 -122 855 l-16 305 36 150 c25 105 46 167 71 212 44 79 38 82 -11 6z" transform="translate(0,193) scale(0.1,-0.1)" stroke="none" fill="#BF7537"/>

<path d="M653 1770 c57 -68 70 -103 56 -148 -6 -20 -20 -53 -30 -74 -35 -67 -49 -119 -69 -260 -12 -78 -27 -150 -35 -162 -8 -11 -15 -24 -15 -28 0 -16 53 -7 81 13 25 17 34 19 66 10 63 -18 83 -14 119 26 34 37 34 37 79 25 64 -17 68 -16 117 24 23 20 61 45 84 54 23 10 44 25 47 33 7 20 -12 37 -41 37 -31 0 -80 53 -134 142 -44 75 -104 134 -144 144 -15 4 -36 16 -46 26 -11 11 -26 17 -33 14 -8 -3 -22 14 -39 47 -14 29 -42 68 -63 87 l-37 35 37 -45z m78 -291 c-5 -13 -10 -19 -10 -12 -1 15 10 45 15 40 3 -2 0 -15 -5 -28z m170 -41 c19 -34 2 -17 -30 30 -25 35 -26 40 -6 17 14 -16 30 -38 36 -47z m-184 -10 c-3 -8 -6 -5 -6 6 -1 11 2 17 5 13 3 -3 4 -12 1 -19z m223 -62 c0 -12 -5 -7 -19 24 -11 24 -11 24 3 6 9 -11 16 -24 16 -30z m-233 -28 c-3 -8 -6 -5 -6 6 -1 11 2 17 5 13 3 -3 4 -12 1 -19z m10 -60 c-3 -8 -6 -5 -6 6 -1 11 2 17 5 13 3 -3 4 -12 1 -19z" transform="translate(0,193) scale(0.1,-0.1)" stroke="none" fill="#BF7537"/>

</g>

<g id="4" transform="translate(484.0,0)scale(1,1)">

<path d="M175 1663 c-43 -70 -89 -210 -104 -316 -20 -144 -10 -383 29 -697 27 -216 85 -500 106 -520 15 -14 16 -13 11 5 -67 251 -104 512 -122 855 l-16 305 36 150 c25 105 46 167 71 212 44 79 38 82 -11 6z" transform="translate(0,193) scale(0.1,-0.1)" stroke="none" fill="#BF7537"/>

<path d="M653 1770 c57 -68 70 -103 56 -148 -6 -20 -20 -53 -30 -74 -35 -67 -49 -119 -69 -260 -12 -78 -27 -150 -35 -162 -8 -11 -15 -24 -15 -28 0 -16 53 -7 81 13 25 17 34 19 66 10 63 -18 83 -14 119 26 34 37 34 37 79 25 64 -17 68 -16 117 24 23 20 61 45 84 54 23 10 44 25 47 33 7 20 -12 37 -41 37 -31 0 -80 53 -134 142 -44 75 -104 134 -144 144 -15 4 -36 16 -46 26 -11 11 -26 17 -33 14 -8 -3 -22 14 -39 47 -14 29 -42 68 -63 87 l-37 35 37 -45z m78 -291 c-5 -13 -10 -19 -10 -12 -1 15 10 45 15 40 3 -2 0 -15 -5 -28z m170 -41 c19 -34 2 -17 -30 30 -25 35 -26 40 -6 17 14 -16 30 -38 36 -47z m-184 -10 c-3 -8 -6 -5 -6 6 -1 11 2 17 5 13 3 -3 4 -12 1 -19z m223 -62 c0 -12 -5 -7 -19 24 -11 24 -11 24 3 6 9 -11 16 -24 16 -30z m-233 -28 c-3 -8 -6 -5 -6 6 -1 11 2 17 5 13 3 -3 4 -12 1 -19z m10 -60 c-3 -8 -6 -5 -6 6 -1 11 2 17 5 13 3 -3 4 -12 1 -19z" transform="translate(0,193) scale(0.1,-0.1)" stroke="none" fill="#BF7537"/>

</g>

</g>
</svg>