<?xml version="1.0" standalone="no"?>
<!DOCTYPE svg PUBLIC "-//W3C//DTD SVG 20010904//EN"
 "http://www.w3.org/TR/2001/REC-SVG-20010904/DTD/svg10.dtd">
<svg version="1.0" xmlns="http://www.w3.org/2000/svg" width="440pt" height="472pt" viewBox="0 0 440 472" preserveAspectRatio = "xMidYMid meet" >
<metadata>
Created by ZoeQu, written in 2022
</metadata>
<rect width="440" height="472" fill="#BBBBDD"/>
<g id="row0" transform="translate(14,0.0)">
<g id="0" transform="translate(0.0,0)scale(1,1)">

<path d="M473 737 c-4 -8 -16 -16 -25 -20 -25 -9 -19 -78 7 -88 11 -4 16 -8 10 -9 -5 0 -2 -7 8 -14 22 -17 54 -4 80 30 17 23 16 23 -18 40 -19 9 -32 20 -29 26 3 5 12 1 19 -8 7 -11 19 -15 29 -11 23 9 16 42 -9 42 -11 0 -24 6 -28 13 -10 16 -34 15 -44 -1z" transform="translate(0,118) scale(0.1,-0.1)" stroke="none" fill="#3970D6"/>

<path d="M596 445 c-3 -12 -26 -45 -51 -73 -25 -27 -45 -56 -45 -64 0 -80 97 -201 184 -231 74 -25 86 -15 86 81 0 78 -25 203 -51 257 -11 24 -24 32 -66 41 -50 11 -52 11 -57 -11z" transform="translate(0,118) scale(0.1,-0.1)" stroke="none" fill="#3970D6"/>

<path d="M885 1112 c-66 -19 -124 -48 -170 -86 -29 -23 -30 -27 -30 -108 l0 -83 47 -22 48 -22 44 25 c96 54 237 249 210 291 -15 24 -75 26 -149 5z" transform="translate(0,118) scale(0.1,-0.1)" stroke="none" fill="#3970D6"/>

<path d="M475 1109 c-68 -20 -135 -102 -135 -166 l0 -28 -78 0 c-84 -1 -123 -15 -167 -63 -80 -86 -42 -202 82 -247 l49 -17 -4 -65 c-5 -79 16 -140 63 -182 59 -51 137 -58 198 -18 39 25 89 81 103 114 16 38 15 38 87 19 118 -31 190 23 189 142 -1 77 -39 152 -99 191 -26 17 -54 31 -64 31 -14 0 -17 14 -21 93 -5 113 -23 152 -88 185 -47 23 -67 25 -115 11z m57 -340 c27 -15 51 -74 43 -110 -8 -38 -49 -69 -90 -69 -86 0 -115 92 -51 156 35 35 63 42 98 23z" transform="translate(0,118) scale(0.1,-0.1)" stroke="none" fill="#73A5DE"/>

</g>

<g id="1" transform="translate(110.0,0)scale(1,1)">

<path d="M473 737 c-4 -8 -16 -16 -25 -20 -25 -9 -19 -78 7 -88 11 -4 16 -8 10 -9 -5 0 -2 -7 8 -14 22 -17 54 -4 80 30 17 23 16 23 -18 40 -19 9 -32 20 -29 26 3 5 12 1 19 -8 7 -11 19 -15 29 -11 23 9 16 42 -9 42 -11 0 -24 6 -28 13 -10 16 -34 15 -44 -1z" transform="translate(0,118) scale(0.1,-0.1)" stroke="none" fill="#3970D6"/>

<path d="M596 445 c-3 -12 -26 -45 -51 -73 -25 -27 -45 -56 -45 -64 0 -80 97 -201 184 -231 74 -25 86 -15 86 81 0 78 -25 203 -51 257 -11 24 -24 32 -66 41 -50 11 -52 11 -57 -11z" transform="translate(0,118) scale(0.1,-0.1)" stroke="none" fill="#3970D6"/>

<path d="M885 1112 c-66 -19 -124 -48 -170 -86 -29 -23 -30 -27 -30 -108 l0 -83 47 -22 48 -22 44 25 c96 54 237 249 210 291 -15 24 -75 26 -149 5z" transform="translate(0,118) scale(0.1,-0.1)" stroke="none" fill="#3970D6"/>

<path d="M475 1109 c-68 -20 -135 -102 -135 -166 l0 -28 -78 0 c-84 -1 -123 -15 -167 -63 -80 -86 -42 -202 82 -247 l49 -17 -4 -65 c-5 -79 16 -140 63 -182 59 -51 137 -58 198 -18 39 25 89 81 103 114 16 38 15 38 87 19 118 -31 190 23 189 142 -1 77 -39 152 -99 191 -26 17 -54 31 -64 31 -14 0 -17 14 -21 93 -5 113 -23 152 -88 185 -47 23 -67 25 -115 11z m57 -340 c27 -15 51 -74 43 -110 -8 -38 -49 -69 -90 -69 -86 0 -115 92 -51 156 35 35 63 42 98 23z" transform="translate(0,118) scale(0.1,-0.1)" stroke="none" fill="#73A5DE"/>

</g>

<g id="2" transform="translate(220.0,0)scale(1,1)">

<path d="M473 737 c-4 -8 -16 -16 -25 -20 -25 -9 -19 -78 7 -88 11 -4 16 -8 10 -9 -5 0 -2 -7 8 -14 22 -17 54 -4 80 30 17 23 16 23 -18 40 -19 9 -32 20 -29 26 3 5 12 1 19 -8 7 -11 19 -15 29 -11 23 9 16 42 -9 42 -11 0 -24 6 -28 13 -10 16 -34 15 -44 -1z" transform="translate(0,118) scale(0.1,-0.1)" stroke="none" fill="#3970D6"/>

<path d="M596 445 c-3 -12 -26 -45 -51 -73 -25 -27 -45 -56 -45 -64 0 -80 97 -201 184 -231 74 -25 86 -15 86 81 0 78 -25 203 -51 257 -11 24 -24 32 -66 41 -50 11 -52 11 -57 -11z" transform="translate(0,118) scale(0.1,-0.1)" stroke="none" fill="#3970D6"/>

<path d="M885 1112 c-66 -19 -124 -48 -170 -86 -29 -23 -30 -27 -30 -108 l0 -83 47 -22 48 -22 44 25 c96 54 237 249 210 291 -15 24 -75 26 -149 5z" transform="translate(0,118) scale(0.1,-0.1)" stroke="none" fill="#3970D6"/>

<path d="M475 1109 c-68 -20 -135 -102 -135 -166 l0 -28 -78 0 c-84 -1 -123 -15 -167 -63 -80 -86 -42 -202 82 -247 l49 -17 -4 -65 c-5 -79 16 -140 63 -182 59 -51 137 -58 198 -18 39 25 89 81 103 114 16 38 15 38 87 19 118 -31 190 23 189 142 -1 77 -39 152 -99 191 -26 17 -54 31 -64 31 -14 0 -17 14 -21 93 -5 113 -23 152 -88 185 -47 23 -67 25 -115 11z m57 -340 c27 -15 51 -74 43 -110 -8 -38 -49 -69 -90 -69 -86 0 -115 92 -51 156 35 35 63 42 98 23z" transform="translate(0,118) scale(0.1,-0.1)" stroke="none" fill="#73A5DE"/>

</g>

<g id="3" transform="translate(330.0,0)scale(1,1)">

<path d="M473 737 c-4 -8 -16 -16 -25 -20 -25 -9 -19 -78 7 -88 11 -4 16 -8 10 -9 -5 0 -2 -7 8 -14 22 -17 54 -4 80 30 17 23 16 23 -18 40 -19 9 -32 20 -29 26 3 5 12 1 19 -8 7 -11 19 -15 29 -11 23 9 16 42 -9 42 -11 0 -24 6 -28 13 -10 16 -34 15 -44 -1z" transform="translate(0,118) scale(0.1,-0.1)" stroke="none" fill="#3970D6"/>

<path d="M596 445 c-3 -12 -26 -45 -51 -73 -25 -27 -45 -56 -45 -64 0 -80 97 -201 184 -231 74 -25 86 -15 86 81 0 78 -25 203 -51 257 -11 24 -24 32 -66 41 -50 11 -52 11 -57 -11z" transform="translate(0,118) scale(0.1,-0.1)" stroke="none" fill="#3970D6"/>

<path d="M885 1112 c-66 -19 -124 -48 -170 -86 -29 -23 -30 -27 -30 -108 l0 -83 47 -22 48 -22 44 25 c96 54 237 249 210 291 -15 24 -75 26 -149 5z" transform="translate(0,118) scale(0.1,-0.1)" stroke="none" fill="#3970D6"/>

<path d="M475 1109 c-68 -20 -135 -102 -135 -166 l0 -28 -78 0 c-84 -1 -123 -15 -167 -63 -80 -86 -42 -202 82 -247 l49 -17 -4 -65 c-5 -79 16 -140 63 -182 59 -51 137 -58 198 -18 39 25 89 81 103 114 16 38 15 38 87 19 118 -31 190 23 189 142 -1 77 -39 152 -99 191 -26 17 -54 31 -64 31 -14 0 -17 14 -21 93 -5 113 -23 152 -88 185 -47 23 -67 25 -115 11z m57 -340 c27 -15 51 -74 43 -110 -8 -38 -49 -69 -90 -69 -86 0 -115 92 -51 156 35 35 63 42 98 23z" transform="translate(0,118) scale(0.1,-0.1)" stroke="none" fill="#73A5DE"/>

</g>

<g id="4" transform="translate(440.0,0)scale(1,1)">

<path d="M473 737 c-4 -8 -16 -16 -25 -20 -25 -9 -19 -78 7 -88 11 -4 16 -8 10 -9 -5 0 -2 -7 8 -14 22 -17 54 -4 80 30 17 23 16 23 -18 40 -19 9 -32 20 -29 26 3 5 12 1 19 -8 7 -11 19 -15 29 -11 23 9 16 42 -9 42 -11 0 -24 6 -28 13 -10 16 -34 15 -44 -1z" transform="translate(0,118) scale(0.1,-0.1)" stroke="none" fill="#3970D6"/>

<path d="M596 445 c-3 -12 -26 -45 -51 -73 -25 -27 -45 -56 -45 -64 0 -80 97 -201 184 -231 74 -25 86 -15 86 81 0 78 -25 203 -51 257 -11 24 -24 32 -66 41 -50 11 -52 11 -57 -11z" transform="translate(0,118) scale(0.1,-0.1)" stroke="none" fill="#3970D6"/>

<path d="M885 1112 c-66 -19 -124 -48 -170 -86 -29 -23 -30 -27 -30 -108 l0 -83 47 -22 48 -22 44 25 c96 54 237 249 210 291 -15 24 -75 26 -149 5z" transform="translate(0,118) scale(0.1,-0.1)" stroke="none" fill="#3970D6"/>

<path d="M475 1109 c-68 -20 -135 -102 -135 -166 l0 -28 -78 0 c-84 -1 -123 -15 -167 -63 -80 -86 -42 -202 82 -247 l49 -17 -4 -65 c-5 -79 16 -140 63 -182 59 -51 137 -58 198 -18 39 25 89 81 103 114 16 38 15 38 87 19 118 -31 190 23 189 142 -1 77 -39 152 -99 191 -26 17 -54 31 -64 31 -14 0 -17 14 -21 93 -5 113 -23 152 -88 185 -47 23 -67 25 -115 11z m57 -340 c27 -15 51 -74 43 -110 -8 -38 -49 -69 -90 -69 -86 0 -115 92 -51 156 35 35 63 42 98 23z" transform="translate(0,118) scale(0.1,-0.1)" stroke="none" fill="#73A5DE"/>

</g>

</g>
<g id="row1" transform="translate(-41,118.0)">
<g id="0" transform="translate(0.0,0)scale(1,1)">

<path d="M473 737 c-4 -8 -16 -16 -25 -20 -25 -9 -19 -78 7 -88 11 -4 16 -8 10 -9 -5 0 -2 -7 8 -14 22 -17 54 -4 80 30 17 23 16 23 -18 40 -19 9 -32 20 -29 26 3 5 12 1 19 -8 7 -11 19 -15 29 -11 23 9 16 42 -9 42 -11 0 -24 6 -28 13 -10 16 -34 15 -44 -1z" transform="translate(0,118) scale(0.1,-0.1)" stroke="none" fill="#3970D6"/>

<path d="M596 445 c-3 -12 -26 -45 -51 -73 -25 -27 -45 -56 -45 -64 0 -80 97 -201 184 -231 74 -25 86 -15 86 81 0 78 -25 203 -51 257 -11 24 -24 32 -66 41 -50 11 -52 11 -57 -11z" transform="translate(0,118) scale(0.1,-0.1)" stroke="none" fill="#3970D6"/>

<path d="M885 1112 c-66 -19 -124 -48 -170 -86 -29 -23 -30 -27 -30 -108 l0 -83 47 -22 48 -22 44 25 c96 54 237 249 210 291 -15 24 -75 26 -149 5z" transform="translate(0,118) scale(0.1,-0.1)" stroke="none" fill="#3970D6"/>

<path d="M475 1109 c-68 -20 -135 -102 -135 -166 l0 -28 -78 0 c-84 -1 -123 -15 -167 -63 -80 -86 -42 -202 82 -247 l49 -17 -4 -65 c-5 -79 16 -140 63 -182 59 -51 137 -58 198 -18 39 25 89 81 103 114 16 38 15 38 87 19 118 -31 190 23 189 142 -1 77 -39 152 -99 191 -26 17 -54 31 -64 31 -14 0 -17 14 -21 93 -5 113 -23 152 -88 185 -47 23 -67 25 -115 11z m57 -340 c27 -15 51 -74 43 -110 -8 -38 -49 -69 -90 -69 -86 0 -115 92 -51 156 35 35 63 42 98 23z" transform="translate(0,118) scale(0.1,-0.1)" stroke="none" fill="#73A5DE"/>

</g>

<g id="1" transform="translate(110.0,0)scale(1,1)">

<path d="M473 737 c-4 -8 -16 -16 -25 -20 -25 -9 -19 -78 7 -88 11 -4 16 -8 10 -9 -5 0 -2 -7 8 -14 22 -17 54 -4 80 30 17 23 16 23 -18 40 -19 9 -32 20 -29 26 3 5 12 1 19 -8 7 -11 19 -15 29 -11 23 9 16 42 -9 42 -11 0 -24 6 -28 13 -10 16 -34 15 -44 -1z" transform="translate(0,118) scale(0.1,-0.1)" stroke="none" fill="#3970D6"/>

<path d="M596 445 c-3 -12 -26 -45 -51 -73 -25 -27 -45 -56 -45 -64 0 -80 97 -201 184 -231 74 -25 86 -15 86 81 0 78 -25 203 -51 257 -11 24 -24 32 -66 41 -50 11 -52 11 -57 -11z" transform="translate(0,118) scale(0.1,-0.1)" stroke="none" fill="#3970D6"/>

<path d="M885 1112 c-66 -19 -124 -48 -170 -86 -29 -23 -30 -27 -30 -108 l0 -83 47 -22 48 -22 44 25 c96 54 237 249 210 291 -15 24 -75 26 -149 5z" transform="translate(0,118) scale(0.1,-0.1)" stroke="none" fill="#3970D6"/>

<path d="M475 1109 c-68 -20 -135 -102 -135 -166 l0 -28 -78 0 c-84 -1 -123 -15 -167 -63 -80 -86 -42 -202 82 -247 l49 -17 -4 -65 c-5 -79 16 -140 63 -182 59 -51 137 -58 198 -18 39 25 89 81 103 114 16 38 15 38 87 19 118 -31 190 23 189 142 -1 77 -39 152 -99 191 -26 17 -54 31 -64 31 -14 0 -17 14 -21 93 -5 113 -23 152 -88 185 -47 23 -67 25 -115 11z m57 -340 c27 -15 51 -74 43 -110 -8 -38 -49 -69 -90 -69 -86 0 -115 92 -51 156 35 35 63 42 98 23z" transform="translate(0,118) scale(0.1,-0.1)" stroke="none" fill="#73A5DE"/>

</g>

<g id="2" transform="translate(220.0,0)scale(1,1)">

<path d="M473 737 c-4 -8 -16 -16 -25 -20 -25 -9 -19 -78 7 -88 11 -4 16 -8 10 -9 -5 0 -2 -7 8 -14 22 -17 54 -4 80 30 17 23 16 23 -18 40 -19 9 -32 20 -29 26 3 5 12 1 19 -8 7 -11 19 -15 29 -11 23 9 16 42 -9 42 -11 0 -24 6 -28 13 -10 16 -34 15 -44 -1z" transform="translate(0,118) scale(0.1,-0.1)" stroke="none" fill="#3970D6"/>

<path d="M596 445 c-3 -12 -26 -45 -51 -73 -25 -27 -45 -56 -45 -64 0 -80 97 -201 184 -231 74 -25 86 -15 86 81 0 78 -25 203 -51 257 -11 24 -24 32 -66 41 -50 11 -52 11 -57 -11z" transform="translate(0,118) scale(0.1,-0.1)" stroke="none" fill="#3970D6"/>

<path d="M885 1112 c-66 -19 -124 -48 -170 -86 -29 -23 -30 -27 -30 -108 l0 -83 47 -22 48 -22 44 25 c96 54 237 249 210 291 -15 24 -75 26 -149 5z" transform="translate(0,118) scale(0.1,-0.1)" stroke="none" fill="#3970D6"/>

<path d="M475 1109 c-68 -20 -135 -102 -135 -166 l0 -28 -78 0 c-84 -1 -123 -15 -167 -63 -80 -86 -42 -202 82 -247 l49 -17 -4 -65 c-5 -79 16 -140 63 -182 59 -51 137 -58 198 -18 39 25 89 81 103 114 16 38 15 38 87 19 118 -31 190 23 189 142 -1 77 -39 152 -99 191 -26 17 -54 31 -64 31 -14 0 -17 14 -21 93 -5 113 -23 152 -88 185 -47 23 -67 25 -115 11z m57 -340 c27 -15 51 -74 43 -110 -8 -38 -49 -69 -90 -69 -86 0 -115 92 -51 156 35 35 63 42 98 23z" transform="translate(0,118) scale(0.1,-0.1)" stroke="none" fill="#73A5DE"/>

</g>

<g id="3" transform="translate(330.0,0)scale(1,1)">

<path d="M473 737 c-4 -8 -16 -16 -25 -20 -25 -9 -19 -78 7 -88 11 -4 16 -8 10 -9 -5 0 -2 -7 8 -14 22 -17 54 -4 80 30 17 23 16 23 -18 40 -19 9 -32 20 -29 26 3 5 12 1 19 -8 7 -11 19 -15 29 -11 23 9 16 42 -9 42 -11 0 -24 6 -28 13 -10 16 -34 15 -44 -1z" transform="translate(0,118) scale(0.1,-0.1)" stroke="none" fill="#3970D6"/>

<path d="M596 445 c-3 -12 -26 -45 -51 -73 -25 -27 -45 -56 -45 -64 0 -80 97 -201 184 -231 74 -25 86 -15 86 81 0 78 -25 203 -51 257 -11 24 -24 32 -66 41 -50 11 -52 11 -57 -11z" transform="translate(0,118) scale(0.1,-0.1)" stroke="none" fill="#3970D6"/>

<path d="M885 1112 c-66 -19 -124 -48 -170 -86 -29 -23 -30 -27 -30 -108 l0 -83 47 -22 48 -22 44 25 c96 54 237 249 210 291 -15 24 -75 26 -149 5z" transform="translate(0,118) scale(0.1,-0.1)" stroke="none" fill="#3970D6"/>

<path d="M475 1109 c-68 -20 -135 -102 -135 -166 l0 -28 -78 0 c-84 -1 -123 -15 -167 -63 -80 -86 -42 -202 82 -247 l49 -17 -4 -65 c-5 -79 16 -140 63 -182 59 -51 137 -58 198 -18 39 25 89 81 103 114 16 38 15 38 87 19 118 -31 190 23 189 142 -1 77 -39 152 -99 191 -26 17 -54 31 -64 31 -14 0 -17 14 -21 93 -5 113 -23 152 -88 185 -47 23 -67 25 -115 11z m57 -340 c27 -15 51 -74 43 -110 -8 -38 -49 -69 -90 -69 -86 0 -115 92 -51 156 35 35 63 42 98 23z" transform="translate(0,118) scale(0.1,-0.1)" stroke="none" fill="#73A5DE"/>

</g>

<g id="4" transform="translate(440.0,0)scale(1,1)">

<path d="M473 737 c-4 -8 -16 -16 -25 -20 -25 -9 -19 -78 7 -88 11 -4 16 -8 10 -9 -5 0 -2 -7 8 -14 22 -17 54 -4 80 30 17 23 16 23 -18 40 -19 9 -32 20 -29 26 3 5 12 1 19 -8 7 -11 19 -15 29 -11 23 9 16 42 -9 42 -11 0 -24 6 -28 13 -10 16 -34 15 -44 -1z" transform="translate(0,118) scale(0.1,-0.1)" stroke="none" fill="#3970D6"/>

<path d="M596 445 c-3 -12 -26 -45 -51 -73 -25 -27 -45 -56 -45 -64 0 -80 97 -201 184 -231 74 -25 86 -15 86 81 0 78 -25 203 -51 257 -11 24 -24 32 -66 41 -50 11 -52 11 -57 -11z" transform="translate(0,118) scale(0.1,-0.1)" stroke="none" fill="#3970D6"/>

<path d="M885 1112 c-66 -19 -124 -48 -170 -86 -29 -23 -30 -27 -30 -108 l0 -83 47 -22 48 -22 44 25 c96 54 237 249 210 291 -15 24 -75 26 -149 5z" transform="translate(0,118) scale(0.1,-0.1)" stroke="none" fill="#3970D6"/>

<path d="M475 1109 c-68 -20 -135 -102 -135 -166 l0 -28 -78 0 c-84 -1 -123 -15 -167 -63 -80 -86 -42 -202 82 -247 l49 -17 -4 -65 c-5 -79 16 -140 63 -182 59 -51 137 -58 198 -18 39 25 89 81 103 114 16 38 15 38 87 19 118 -31 190 23 189 142 -1 77 -39 152 -99 191 -26 17 -54 31 -64 31 -14 0 -17 14 -21 93 -5 113 -23 152 -88 185 -47 23 -67 25 -115 11z m57 -340 c27 -15 51 -74 43 -110 -8 -38 -49 -69 -90 -69 -86 0 -115 92 -51 156 35 35 63 42 98 23z" transform="translate(0,118) scale(0.1,-0.1)" stroke="none" fill="#73A5DE"/>

</g>

</g>
<g id="row2" transform="translate(14,236.0)">
<g id="0" transform="translate(0.0,0)scale(1,1)">

<path d="M473 737 c-4 -8 -16 -16 -25 -20 -25 -9 -19 -78 7 -88 11 -4 16 -8 10 -9 -5 0 -2 -7 8 -14 22 -17 54 -4 80 30 17 23 16 23 -18 40 -19 9 -32 20 -29 26 3 5 12 1 19 -8 7 -11 19 -15 29 -11 23 9 16 42 -9 42 -11 0 -24 6 -28 13 -10 16 -34 15 -44 -1z" transform="translate(0,118) scale(0.1,-0.1)" stroke="none" fill="#3970D6"/>

<path d="M596 445 c-3 -12 -26 -45 -51 -73 -25 -27 -45 -56 -45 -64 0 -80 97 -201 184 -231 74 -25 86 -15 86 81 0 78 -25 203 -51 257 -11 24 -24 32 -66 41 -50 11 -52 11 -57 -11z" transform="translate(0,118) scale(0.1,-0.1)" stroke="none" fill="#3970D6"/>

<path d="M885 1112 c-66 -19 -124 -48 -170 -86 -29 -23 -30 -27 -30 -108 l0 -83 47 -22 48 -22 44 25 c96 54 237 249 210 291 -15 24 -75 26 -149 5z" transform="translate(0,118) scale(0.1,-0.1)" stroke="none" fill="#3970D6"/>

<path d="M475 1109 c-68 -20 -135 -102 -135 -166 l0 -28 -78 0 c-84 -1 -123 -15 -167 -63 -80 -86 -42 -202 82 -247 l49 -17 -4 -65 c-5 -79 16 -140 63 -182 59 -51 137 -58 198 -18 39 25 89 81 103 114 16 38 15 38 87 19 118 -31 190 23 189 142 -1 77 -39 152 -99 191 -26 17 -54 31 -64 31 -14 0 -17 14 -21 93 -5 113 -23 152 -88 185 -47 23 -67 25 -115 11z m57 -340 c27 -15 51 -74 43 -110 -8 -38 -49 -69 -90 -69 -86 0 -115 92 -51 156 35 35 63 42 98 23z" transform="translate(0,118) scale(0.1,-0.1)" stroke="none" fill="#73A5DE"/>

</g>

<g id="1" transform="translate(110.0,0)scale(1,1)">

<path d="M473 737 c-4 -8 -16 -16 -25 -20 -25 -9 -19 -78 7 -88 11 -4 16 -8 10 -9 -5 0 -2 -7 8 -14 22 -17 54 -4 80 30 17 23 16 23 -18 40 -19 9 -32 20 -29 26 3 5 12 1 19 -8 7 -11 19 -15 29 -11 23 9 16 42 -9 42 -11 0 -24 6 -28 13 -10 16 -34 15 -44 -1z" transform="translate(0,118) scale(0.1,-0.1)" stroke="none" fill="#3970D6"/>

<path d="M596 445 c-3 -12 -26 -45 -51 -73 -25 -27 -45 -56 -45 -64 0 -80 97 -201 184 -231 74 -25 86 -15 86 81 0 78 -25 203 -51 257 -11 24 -24 32 -66 41 -50 11 -52 11 -57 -11z" transform="translate(0,118) scale(0.1,-0.1)" stroke="none" fill="#3970D6"/>

<path d="M885 1112 c-66 -19 -124 -48 -170 -86 -29 -23 -30 -27 -30 -108 l0 -83 47 -22 48 -22 44 25 c96 54 237 249 210 291 -15 24 -75 26 -149 5z" transform="translate(0,118) scale(0.1,-0.1)" stroke="none" fill="#3970D6"/>

<path d="M475 1109 c-68 -20 -135 -102 -135 -166 l0 -28 -78 0 c-84 -1 -123 -15 -167 -63 -80 -86 -42 -202 82 -247 l49 -17 -4 -65 c-5 -79 16 -140 63 -182 59 -51 137 -58 198 -18 39 25 89 81 103 114 16 38 15 38 87 19 118 -31 190 23 189 142 -1 77 -39 152 -99 191 -26 17 -54 31 -64 31 -14 0 -17 14 -21 93 -5 113 -23 152 -88 185 -47 23 -67 25 -115 11z m57 -340 c27 -15 51 -74 43 -110 -8 -38 -49 -69 -90 -69 -86 0 -115 92 -51 156 35 35 63 42 98 23z" transform="translate(0,118) scale(0.1,-0.1)" stroke="none" fill="#73A5DE"/>

</g>

<g id="2" transform="translate(220.0,0)scale(1,1)">

<path d="M473 737 c-4 -8 -16 -16 -25 -20 -25 -9 -19 -78 7 -88 11 -4 16 -8 10 -9 -5 0 -2 -7 8 -14 22 -17 54 -4 80 30 17 23 16 23 -18 40 -19 9 -32 20 -29 26 3 5 12 1 19 -8 7 -11 19 -15 29 -11 23 9 16 42 -9 42 -11 0 -24 6 -28 13 -10 16 -34 15 -44 -1z" transform="translate(0,118) scale(0.1,-0.1)" stroke="none" fill="#3970D6"/>

<path d="M596 445 c-3 -12 -26 -45 -51 -73 -25 -27 -45 -56 -45 -64 0 -80 97 -201 184 -231 74 -25 86 -15 86 81 0 78 -25 203 -51 257 -11 24 -24 32 -66 41 -50 11 -52 11 -57 -11z" transform="translate(0,118) scale(0.1,-0.1)" stroke="none" fill="#3970D6"/>

<path d="M885 1112 c-66 -19 -124 -48 -170 -86 -29 -23 -30 -27 -30 -108 l0 -83 47 -22 48 -22 44 25 c96 54 237 249 210 291 -15 24 -75 26 -149 5z" transform="translate(0,118) scale(0.1,-0.1)" stroke="none" fill="#3970D6"/>

<path d="M475 1109 c-68 -20 -135 -102 -135 -166 l0 -28 -78 0 c-84 -1 -123 -15 -167 -63 -80 -86 -42 -202 82 -247 l49 -17 -4 -65 c-5 -79 16 -140 63 -182 59 -51 137 -58 198 -18 39 25 89 81 103 114 16 38 15 38 87 19 118 -31 190 23 189 142 -1 77 -39 152 -99 191 -26 17 -54 31 -64 31 -14 0 -17 14 -21 93 -5 113 -23 152 -88 185 -47 23 -67 25 -115 11z m57 -340 c27 -15 51 -74 43 -110 -8 -38 -49 -69 -90 -69 -86 0 -115 92 -51 156 35 35 63 42 98 23z" transform="translate(0,118) scale(0.1,-0.1)" stroke="none" fill="#73A5DE"/>

</g>

<g id="3" transform="translate(330.0,0)scale(1,1)">

<path d="M473 737 c-4 -8 -16 -16 -25 -20 -25 -9 -19 -78 7 -88 11 -4 16 -8 10 -9 -5 0 -2 -7 8 -14 22 -17 54 -4 80 30 17 23 16 23 -18 40 -19 9 -32 20 -29 26 3 5 12 1 19 -8 7 -11 19 -15 29 -11 23 9 16 42 -9 42 -11 0 -24 6 -28 13 -10 16 -34 15 -44 -1z" transform="translate(0,118) scale(0.1,-0.1)" stroke="none" fill="#3970D6"/>

<path d="M596 445 c-3 -12 -26 -45 -51 -73 -25 -27 -45 -56 -45 -64 0 -80 97 -201 184 -231 74 -25 86 -15 86 81 0 78 -25 203 -51 257 -11 24 -24 32 -66 41 -50 11 -52 11 -57 -11z" transform="translate(0,118) scale(0.1,-0.1)" stroke="none" fill="#3970D6"/>

<path d="M885 1112 c-66 -19 -124 -48 -170 -86 -29 -23 -30 -27 -30 -108 l0 -83 47 -22 48 -22 44 25 c96 54 237 249 210 291 -15 24 -75 26 -149 5z" transform="translate(0,118) scale(0.1,-0.1)" stroke="none" fill="#3970D6"/>

<path d="M475 1109 c-68 -20 -135 -102 -135 -166 l0 -28 -78 0 c-84 -1 -123 -15 -167 -63 -80 -86 -42 -202 82 -247 l49 -17 -4 -65 c-5 -79 16 -140 63 -182 59 -51 137 -58 198 -18 39 25 89 81 103 114 16 38 15 38 87 19 118 -31 190 23 189 142 -1 77 -39 152 -99 191 -26 17 -54 31 -64 31 -14 0 -17 14 -21 93 -5 113 -23 152 -88 185 -47 23 -67 25 -115 11z m57 -340 c27 -15 51 -74 43 -110 -8 -38 -49 -69 -90 -69 -86 0 -115 92 -51 156 35 35 63 42 98 23z" transform="translate(0,118) scale(0.1,-0.1)" stroke="none" fill="#73A5DE"/>

</g>

<g id="4" transform="translate(440.0,0)scale(1,1)">

<path d="M473 737 c-4 -8 -16 -16 -25 -20 -25 -9 -19 -78 7 -88 11 -4 16 -8 10 -9 -5 0 -2 -7 8 -14 22 -17 54 -4 80 30 17 23 16 23 -18 40 -19 9 -32 20 -29 26 3 5 12 1 19 -8 7 -11 19 -15 29 -11 23 9 16 42 -9 42 -11 0 -24 6 -28 13 -10 16 -34 15 -44 -1z" transform="translate(0,118) scale(0.1,-0.1)" stroke="none" fill="#3970D6"/>

<path d="M596 445 c-3 -12 -26 -45 -51 -73 -25 -27 -45 -56 -45 -64 0 -80 97 -201 184 -231 74 -25 86 -15 86 81 0 78 -25 203 -51 257 -11 24 -24 32 -66 41 -50 11 -52 11 -57 -11z" transform="translate(0,118) scale(0.1,-0.1)" stroke="none" fill="#3970D6"/>

<path d="M885 1112 c-66 -19 -124 -48 -170 -86 -29 -23 -30 -27 -30 -108 l0 -83 47 -22 48 -22 44 25 c96 54 237 249 210 291 -15 24 -75 26 -149 5z" transform="translate(0,118) scale(0.1,-0.1)" stroke="none" fill="#3970D6"/>

<path d="M475 1109 c-68 -20 -135 -102 -135 -166 l0 -28 -78 0 c-84 -1 -123 -15 -167 -63 -80 -86 -42 -202 82 -247 l49 -17 -4 -65 c-5 -79 16 -140 63 -182 59 -51 137 -58 198 -18 39 25 89 81 103 114 16 38 15 38 87 19 118 -31 190 23 189 142 -1 77 -39 152 -99 191 -26 17 -54 31 -64 31 -14 0 -17 14 -21 93 -5 113 -23 152 -88 185 -47 23 -67 25 -115 11z m57 -340 c27 -15 51 -74 43 -110 -8 -38 -49 -69 -90 -69 -86 0 -115 92 -51 156 35 35 63 42 98 23z" transform="translate(0,118) scale(0.1,-0.1)" stroke="none" fill="#73A5DE"/>

</g>

</g>
<g id="row3" transform="translate(-41,354.0)">
<g id="0" transform="translate(0.0,0)scale(1,1)">

<path d="M473 737 c-4 -8 -16 -16 -25 -20 -25 -9 -19 -78 7 -88 11 -4 16 -8 10 -9 -5 0 -2 -7 8 -14 22 -17 54 -4 80 30 17 23 16 23 -18 40 -19 9 -32 20 -29 26 3 5 12 1 19 -8 7 -11 19 -15 29 -11 23 9 16 42 -9 42 -11 0 -24 6 -28 13 -10 16 -34 15 -44 -1z" transform="translate(0,118) scale(0.1,-0.1)" stroke="none" fill="#3970D6"/>

<path d="M596 445 c-3 -12 -26 -45 -51 -73 -25 -27 -45 -56 -45 -64 0 -80 97 -201 184 -231 74 -25 86 -15 86 81 0 78 -25 203 -51 257 -11 24 -24 32 -66 41 -50 11 -52 11 -57 -11z" transform="translate(0,118) scale(0.1,-0.1)" stroke="none" fill="#3970D6"/>

<path d="M885 1112 c-66 -19 -124 -48 -170 -86 -29 -23 -30 -27 -30 -108 l0 -83 47 -22 48 -22 44 25 c96 54 237 249 210 291 -15 24 -75 26 -149 5z" transform="translate(0,118) scale(0.1,-0.1)" stroke="none" fill="#3970D6"/>

<path d="M475 1109 c-68 -20 -135 -102 -135 -166 l0 -28 -78 0 c-84 -1 -123 -15 -167 -63 -80 -86 -42 -202 82 -247 l49 -17 -4 -65 c-5 -79 16 -140 63 -182 59 -51 137 -58 198 -18 39 25 89 81 103 114 16 38 15 38 87 19 118 -31 190 23 189 142 -1 77 -39 152 -99 191 -26 17 -54 31 -64 31 -14 0 -17 14 -21 93 -5 113 -23 152 -88 185 -47 23 -67 25 -115 11z m57 -340 c27 -15 51 -74 43 -110 -8 -38 -49 -69 -90 -69 -86 0 -115 92 -51 156 35 35 63 42 98 23z" transform="translate(0,118) scale(0.1,-0.1)" stroke="none" fill="#73A5DE"/>

</g>

<g id="1" transform="translate(110.0,0)scale(1,1)">

<path d="M473 737 c-4 -8 -16 -16 -25 -20 -25 -9 -19 -78 7 -88 11 -4 16 -8 10 -9 -5 0 -2 -7 8 -14 22 -17 54 -4 80 30 17 23 16 23 -18 40 -19 9 -32 20 -29 26 3 5 12 1 19 -8 7 -11 19 -15 29 -11 23 9 16 42 -9 42 -11 0 -24 6 -28 13 -10 16 -34 15 -44 -1z" transform="translate(0,118) scale(0.1,-0.1)" stroke="none" fill="#3970D6"/>

<path d="M596 445 c-3 -12 -26 -45 -51 -73 -25 -27 -45 -56 -45 -64 0 -80 97 -201 184 -231 74 -25 86 -15 86 81 0 78 -25 203 -51 257 -11 24 -24 32 -66 41 -50 11 -52 11 -57 -11z" transform="translate(0,118) scale(0.1,-0.1)" stroke="none" fill="#3970D6"/>

<path d="M885 1112 c-66 -19 -124 -48 -170 -86 -29 -23 -30 -27 -30 -108 l0 -83 47 -22 48 -22 44 25 c96 54 237 249 210 291 -15 24 -75 26 -149 5z" transform="translate(0,118) scale(0.1,-0.1)" stroke="none" fill="#3970D6"/>

<path d="M475 1109 c-68 -20 -135 -102 -135 -166 l0 -28 -78 0 c-84 -1 -123 -15 -167 -63 -80 -86 -42 -202 82 -247 l49 -17 -4 -65 c-5 -79 16 -140 63 -182 59 -51 137 -58 198 -18 39 25 89 81 103 114 16 38 15 38 87 19 118 -31 190 23 189 142 -1 77 -39 152 -99 191 -26 17 -54 31 -64 31 -14 0 -17 14 -21 93 -5 113 -23 152 -88 185 -47 23 -67 25 -115 11z m57 -340 c27 -15 51 -74 43 -110 -8 -38 -49 -69 -90 -69 -86 0 -115 92 -51 156 35 35 63 42 98 23z" transform="translate(0,118) scale(0.1,-0.1)" stroke="none" fill="#73A5DE"/>

</g>

<g id="2" transform="translate(220.0,0)scale(1,1)">

<path d="M473 737 c-4 -8 -16 -16 -25 -20 -25 -9 -19 -78 7 -88 11 -4 16 -8 10 -9 -5 0 -2 -7 8 -14 22 -17 54 -4 80 30 17 23 16 23 -18 40 -19 9 -32 20 -29 26 3 5 12 1 19 -8 7 -11 19 -15 29 -11 23 9 16 42 -9 42 -11 0 -24 6 -28 13 -10 16 -34 15 -44 -1z" transform="translate(0,118) scale(0.1,-0.1)" stroke="none" fill="#3970D6"/>

<path d="M596 445 c-3 -12 -26 -45 -51 -73 -25 -27 -45 -56 -45 -64 0 -80 97 -201 184 -231 74 -25 86 -15 86 81 0 78 -25 203 -51 257 -11 24 -24 32 -66 41 -50 11 -52 11 -57 -11z" transform="translate(0,118) scale(0.1,-0.1)" stroke="none" fill="#3970D6"/>

<path d="M885 1112 c-66 -19 -124 -48 -170 -86 -29 -23 -30 -27 -30 -108 l0 -83 47 -22 48 -22 44 25 c96 54 237 249 210 291 -15 24 -75 26 -149 5z" transform="translate(0,118) scale(0.1,-0.1)" stroke="none" fill="#3970D6"/>

<path d="M475 1109 c-68 -20 -135 -102 -135 -166 l0 -28 -78 0 c-84 -1 -123 -15 -167 -63 -80 -86 -42 -202 82 -247 l49 -17 -4 -65 c-5 -79 16 -140 63 -182 59 -51 137 -58 198 -18 39 25 89 81 103 114 16 38 15 38 87 19 118 -31 190 23 189 142 -1 77 -39 152 -99 191 -26 17 -54 31 -64 31 -14 0 -17 14 -21 93 -5 113 -23 152 -88 185 -47 23 -67 25 -115 11z m57 -340 c27 -15 51 -74 43 -110 -8 -38 -49 -69 -90 -69 -86 0 -115 92 -51 156 35 35 63 42 98 23z" transform="translate(0,118) scale(0.1,-0.1)" stroke="none" fill="#73A5DE"/>

</g>

<g id="3" transform="translate(330.0,0)scale(1,1)">

<path d="M473 737 c-4 -8 -16 -16 -25 -20 -25 -9 -19 -78 7 -88 11 -4 16 -8 10 -9 -5 0 -2 -7 8 -14 22 -17 54 -4 80 30 17 23 16 23 -18 40 -19 9 -32 20 -29 26 3 5 12 1 19 -8 7 -11 19 -15 29 -11 23 9 16 42 -9 42 -11 0 -24 6 -28 13 -10 16 -34 15 -44 -1z" transform="translate(0,118) scale(0.1,-0.1)" stroke="none" fill="#3970D6"/>

<path d="M596 445 c-3 -12 -26 -45 -51 -73 -25 -27 -45 -56 -45 -64 0 -80 97 -201 184 -231 74 -25 86 -15 86 81 0 78 -25 203 -51 257 -11 24 -24 32 -66 41 -50 11 -52 11 -57 -11z" transform="translate(0,118) scale(0.1,-0.1)" stroke="none" fill="#3970D6"/>

<path d="M885 1112 c-66 -19 -124 -48 -170 -86 -29 -23 -30 -27 -30 -108 l0 -83 47 -22 48 -22 44 25 c96 54 237 249 210 291 -15 24 -75 26 -149 5z" transform="translate(0,118) scale(0.1,-0.1)" stroke="none" fill="#3970D6"/>

<path d="M475 1109 c-68 -20 -135 -102 -135 -166 l0 -28 -78 0 c-84 -1 -123 -15 -167 -63 -80 -86 -42 -202 82 -247 l49 -17 -4 -65 c-5 -79 16 -140 63 -182 59 -51 137 -58 198 -18 39 25 89 81 103 114 16 38 15 38 87 19 118 -31 190 23 189 142 -1 77 -39 152 -99 191 -26 17 -54 31 -64 31 -14 0 -17 14 -21 93 -5 113 -23 152 -88 185 -47 23 -67 25 -115 11z m57 -340 c27 -15 51 -74 43 -110 -8 -38 -49 -69 -90 -69 -86 0 -115 92 -51 156 35 35 63 42 98 23z" transform="translate(0,118) scale(0.1,-0.1)" stroke="none" fill="#73A5DE"/>

</g>

<g id="4" transform="translate(440.0,0)scale(1,1)">

<path d="M473 737 c-4 -8 -16 -16 -25 -20 -25 -9 -19 -78 7 -88 11 -4 16 -8 10 -9 -5 0 -2 -7 8 -14 22 -17 54 -4 80 30 17 23 16 23 -18 40 -19 9 -32 20 -29 26 3 5 12 1 19 -8 7 -11 19 -15 29 -11 23 9 16 42 -9 42 -11 0 -24 6 -28 13 -10 16 -34 15 -44 -1z" transform="translate(0,118) scale(0.1,-0.1)" stroke="none" fill="#3970D6"/>

<path d="M596 445 c-3 -12 -26 -45 -51 -73 -25 -27 -45 -56 -45 -64 0 -80 97 -201 184 -231 74 -25 86 -15 86 81 0 78 -25 203 -51 257 -11 24 -24 32 -66 41 -50 11 -52 11 -57 -11z" transform="translate(0,118) scale(0.1,-0.1)" stroke="none" fill="#3970D6"/>

<path d="M885 1112 c-66 -19 -124 -48 -170 -86 -29 -23 -30 -27 -30 -108 l0 -83 47 -22 48 -22 44 25 c96 54 237 249 210 291 -15 24 -75 26 -149 5z" transform="translate(0,118) scale(0.1,-0.1)" stroke="none" fill="#3970D6"/>

<path d="M475 1109 c-68 -20 -135 -102 -135 -166 l0 -28 -78 0 c-84 -1 -123 -15 -167 -63 -80 -86 -42 -202 82 -247 l49 -17 -4 -65 c-5 -79 16 -140 63 -182 59 -51 137 -58 198 -18 39 25 89 81 103 114 16 38 15 38 87 19 118 -31 190 23 189 142 -1 77 -39 152 -99 191 -26 17 -54 31 -64 31 -14 0 -17 14 -21 93 -5 113 -23 152 -88 185 -47 23 -67 25 -115 11z m57 -340 c27 -15 51 -74 43 -110 -8 -38 -49 -69 -90 -69 -86 0 -115 92 -51 156 35 35 63 42 98 23z" transform="translate(0,118) scale(0.1,-0.1)" stroke="none" fill="#73A5DE"/>

</g>

</g>
</svg>