<?xml version="1.0" standalone="no"?>
<!DOCTYPE svg PUBLIC "-//W3C//DTD SVG 20010904//EN"
 "http://www.w3.org/TR/2001/REC-SVG-20010904/DTD/svg10.dtd">
<svg version="1.0" xmlns="http://www.w3.org/2000/svg" width="736pt" height="600pt" viewBox="0 0 736 600" preserveAspectRatio = "xMidYMid meet" >
<metadata>
Created by ZoeQu, written in 2022
</metadata>
<rect width="736" height="600" fill="#FA8D1C"/>
<g id="row0" transform="translate(24,0.0)">
<g id="0" transform="translate(0.0,0)scale(1,1)">

<path d="M1298 1420 c-107 -32 -190 -140 -192 -250 -1 -68 25 -116 80 -148 105 -61 276 22 319 155 32 99 -1 188 -85 231 -46 23 -76 26 -122 12z" transform="translate(0,150) scale(0.1,-0.1)" stroke="none" fill="#5DB4B7"/>

<path d="M1256 880 c-57 -22 -119 -78 -148 -133 -24 -49 -34 -155 -19 -227 19 -94 22 -103 36 -129 8 -14 24 -52 36 -84 11 -31 24 -57 28 -57 4 0 38 28 76 61 39 34 84 73 100 87 40 35 322 289 360 325 l30 28 -35 29 c-123 101 -340 148 -464 100z" transform="translate(0,150) scale(0.1,-0.1)" stroke="none" fill="#2A8B8F"/>

<path d="M933 1395 c-99 -27 -181 -82 -222 -148 -10 -18 -36 -79 -55 -137 -56 -160 -75 -177 -217 -200 -88 -13 -124 -30 -182 -80 -68 -60 -99 -126 -105 -222 -2 -42 -2 -89 2 -103 l7 -27 22 29 c32 41 56 60 115 89 112 56 248 29 319 -65 30 -38 33 -49 33 -109 0 -72 -25 -141 -75 -206 -14 -18 -25 -36 -25 -39 0 -15 122 -6 184 13 70 22 122 57 213 145 32 31 82 70 110 86 49 28 52 32 41 52 -7 13 -12 64 -13 127 0 122 14 159 87 227 62 57 128 77 232 70 44 -3 91 -8 104 -12 21 -7 22 -5 22 62 0 68 -23 173 -39 173 -4 0 -20 -14 -37 -31 -77 -82 -194 -111 -268 -67 -22 13 -49 39 -60 58 -41 70 -18 188 52 263 32 34 24 42 -52 56 -77 14 -129 13 -193 -4z" transform="translate(0,150) scale(0.1,-0.1)" stroke="none" fill="#E9E4E1"/>

</g>

<g id="1" transform="translate(184.0,0)scale(1,1)">

<path d="M1298 1420 c-107 -32 -190 -140 -192 -250 -1 -68 25 -116 80 -148 105 -61 276 22 319 155 32 99 -1 188 -85 231 -46 23 -76 26 -122 12z" transform="translate(0,150) scale(0.1,-0.1)" stroke="none" fill="#5DB4B7"/>

<path d="M1256 880 c-57 -22 -119 -78 -148 -133 -24 -49 -34 -155 -19 -227 19 -94 22 -103 36 -129 8 -14 24 -52 36 -84 11 -31 24 -57 28 -57 4 0 38 28 76 61 39 34 84 73 100 87 40 35 322 289 360 325 l30 28 -35 29 c-123 101 -340 148 -464 100z" transform="translate(0,150) scale(0.1,-0.1)" stroke="none" fill="#2A8B8F"/>

<path d="M933 1395 c-99 -27 -181 -82 -222 -148 -10 -18 -36 -79 -55 -137 -56 -160 -75 -177 -217 -200 -88 -13 -124 -30 -182 -80 -68 -60 -99 -126 -105 -222 -2 -42 -2 -89 2 -103 l7 -27 22 29 c32 41 56 60 115 89 112 56 248 29 319 -65 30 -38 33 -49 33 -109 0 -72 -25 -141 -75 -206 -14 -18 -25 -36 -25 -39 0 -15 122 -6 184 13 70 22 122 57 213 145 32 31 82 70 110 86 49 28 52 32 41 52 -7 13 -12 64 -13 127 0 122 14 159 87 227 62 57 128 77 232 70 44 -3 91 -8 104 -12 21 -7 22 -5 22 62 0 68 -23 173 -39 173 -4 0 -20 -14 -37 -31 -77 -82 -194 -111 -268 -67 -22 13 -49 39 -60 58 -41 70 -18 188 52 263 32 34 24 42 -52 56 -77 14 -129 13 -193 -4z" transform="translate(0,150) scale(0.1,-0.1)" stroke="none" fill="#E9E4E1"/>

</g>

<g id="2" transform="translate(368.0,0)scale(1,1)">

<path d="M1298 1420 c-107 -32 -190 -140 -192 -250 -1 -68 25 -116 80 -148 105 -61 276 22 319 155 32 99 -1 188 -85 231 -46 23 -76 26 -122 12z" transform="translate(0,150) scale(0.1,-0.1)" stroke="none" fill="#5DB4B7"/>

<path d="M1256 880 c-57 -22 -119 -78 -148 -133 -24 -49 -34 -155 -19 -227 19 -94 22 -103 36 -129 8 -14 24 -52 36 -84 11 -31 24 -57 28 -57 4 0 38 28 76 61 39 34 84 73 100 87 40 35 322 289 360 325 l30 28 -35 29 c-123 101 -340 148 -464 100z" transform="translate(0,150) scale(0.1,-0.1)" stroke="none" fill="#2A8B8F"/>

<path d="M933 1395 c-99 -27 -181 -82 -222 -148 -10 -18 -36 -79 -55 -137 -56 -160 -75 -177 -217 -200 -88 -13 -124 -30 -182 -80 -68 -60 -99 -126 -105 -222 -2 -42 -2 -89 2 -103 l7 -27 22 29 c32 41 56 60 115 89 112 56 248 29 319 -65 30 -38 33 -49 33 -109 0 -72 -25 -141 -75 -206 -14 -18 -25 -36 -25 -39 0 -15 122 -6 184 13 70 22 122 57 213 145 32 31 82 70 110 86 49 28 52 32 41 52 -7 13 -12 64 -13 127 0 122 14 159 87 227 62 57 128 77 232 70 44 -3 91 -8 104 -12 21 -7 22 -5 22 62 0 68 -23 173 -39 173 -4 0 -20 -14 -37 -31 -77 -82 -194 -111 -268 -67 -22 13 -49 39 -60 58 -41 70 -18 188 52 263 32 34 24 42 -52 56 -77 14 -129 13 -193 -4z" transform="translate(0,150) scale(0.1,-0.1)" stroke="none" fill="#E9E4E1"/>

</g>

<g id="3" transform="translate(552.0,0)scale(1,1)">

<path d="M1298 1420 c-107 -32 -190 -140 -192 -250 -1 -68 25 -116 80 -148 105 -61 276 22 319 155 32 99 -1 188 -85 231 -46 23 -76 26 -122 12z" transform="translate(0,150) scale(0.1,-0.1)" stroke="none" fill="#5DB4B7"/>

<path d="M1256 880 c-57 -22 -119 -78 -148 -133 -24 -49 -34 -155 -19 -227 19 -94 22 -103 36 -129 8 -14 24 -52 36 -84 11 -31 24 -57 28 -57 4 0 38 28 76 61 39 34 84 73 100 87 40 35 322 289 360 325 l30 28 -35 29 c-123 101 -340 148 -464 100z" transform="translate(0,150) scale(0.1,-0.1)" stroke="none" fill="#2A8B8F"/>

<path d="M933 1395 c-99 -27 -181 -82 -222 -148 -10 -18 -36 -79 -55 -137 -56 -160 -75 -177 -217 -200 -88 -13 -124 -30 -182 -80 -68 -60 -99 -126 -105 -222 -2 -42 -2 -89 2 -103 l7 -27 22 29 c32 41 56 60 115 89 112 56 248 29 319 -65 30 -38 33 -49 33 -109 0 -72 -25 -141 -75 -206 -14 -18 -25 -36 -25 -39 0 -15 122 -6 184 13 70 22 122 57 213 145 32 31 82 70 110 86 49 28 52 32 41 52 -7 13 -12 64 -13 127 0 122 14 159 87 227 62 57 128 77 232 70 44 -3 91 -8 104 -12 21 -7 22 -5 22 62 0 68 -23 173 -39 173 -4 0 -20 -14 -37 -31 -77 -82 -194 -111 -268 -67 -22 13 -49 39 -60 58 -41 70 -18 188 52 263 32 34 24 42 -52 56 -77 14 -129 13 -193 -4z" transform="translate(0,150) scale(0.1,-0.1)" stroke="none" fill="#E9E4E1"/>

</g>

<g id="4" transform="translate(736.0,0)scale(1,1)">

<path d="M1298 1420 c-107 -32 -190 -140 -192 -250 -1 -68 25 -116 80 -148 105 -61 276 22 319 155 32 99 -1 188 -85 231 -46 23 -76 26 -122 12z" transform="translate(0,150) scale(0.1,-0.1)" stroke="none" fill="#5DB4B7"/>

<path d="M1256 880 c-57 -22 -119 -78 -148 -133 -24 -49 -34 -155 -19 -227 19 -94 22 -103 36 -129 8 -14 24 -52 36 -84 11 -31 24 -57 28 -57 4 0 38 28 76 61 39 34 84 73 100 87 40 35 322 289 360 325 l30 28 -35 29 c-123 101 -340 148 -464 100z" transform="translate(0,150) scale(0.1,-0.1)" stroke="none" fill="#2A8B8F"/>

<path d="M933 1395 c-99 -27 -181 -82 -222 -148 -10 -18 -36 -79 -55 -137 -56 -160 -75 -177 -217 -200 -88 -13 -124 -30 -182 -80 -68 -60 -99 -126 -105 -222 -2 -42 -2 -89 2 -103 l7 -27 22 29 c32 41 56 60 115 89 112 56 248 29 319 -65 30 -38 33 -49 33 -109 0 -72 -25 -141 -75 -206 -14 -18 -25 -36 -25 -39 0 -15 122 -6 184 13 70 22 122 57 213 145 32 31 82 70 110 86 49 28 52 32 41 52 -7 13 -12 64 -13 127 0 122 14 159 87 227 62 57 128 77 232 70 44 -3 91 -8 104 -12 21 -7 22 -5 22 62 0 68 -23 173 -39 173 -4 0 -20 -14 -37 -31 -77 -82 -194 -111 -268 -67 -22 13 -49 39 -60 58 -41 70 -18 188 52 263 32 34 24 42 -52 56 -77 14 -129 13 -193 -4z" transform="translate(0,150) scale(0.1,-0.1)" stroke="none" fill="#E9E4E1"/>

</g>

</g>
<g id="row1" transform="translate(24,150.0)">
<g id="0" transform="translate(0.0,0)scale(1,1)">

<path d="M1298 1420 c-107 -32 -190 -140 -192 -250 -1 -68 25 -116 80 -148 105 -61 276 22 319 155 32 99 -1 188 -85 231 -46 23 -76 26 -122 12z" transform="translate(0,150) scale(0.1,-0.1)" stroke="none" fill="#5DB4B7"/>

<path d="M1256 880 c-57 -22 -119 -78 -148 -133 -24 -49 -34 -155 -19 -227 19 -94 22 -103 36 -129 8 -14 24 -52 36 -84 11 -31 24 -57 28 -57 4 0 38 28 76 61 39 34 84 73 100 87 40 35 322 289 360 325 l30 28 -35 29 c-123 101 -340 148 -464 100z" transform="translate(0,150) scale(0.1,-0.1)" stroke="none" fill="#2A8B8F"/>

<path d="M933 1395 c-99 -27 -181 -82 -222 -148 -10 -18 -36 -79 -55 -137 -56 -160 -75 -177 -217 -200 -88 -13 -124 -30 -182 -80 -68 -60 -99 -126 -105 -222 -2 -42 -2 -89 2 -103 l7 -27 22 29 c32 41 56 60 115 89 112 56 248 29 319 -65 30 -38 33 -49 33 -109 0 -72 -25 -141 -75 -206 -14 -18 -25 -36 -25 -39 0 -15 122 -6 184 13 70 22 122 57 213 145 32 31 82 70 110 86 49 28 52 32 41 52 -7 13 -12 64 -13 127 0 122 14 159 87 227 62 57 128 77 232 70 44 -3 91 -8 104 -12 21 -7 22 -5 22 62 0 68 -23 173 -39 173 -4 0 -20 -14 -37 -31 -77 -82 -194 -111 -268 -67 -22 13 -49 39 -60 58 -41 70 -18 188 52 263 32 34 24 42 -52 56 -77 14 -129 13 -193 -4z" transform="translate(0,150) scale(0.1,-0.1)" stroke="none" fill="#E9E4E1"/>

</g>

<g id="1" transform="translate(184.0,0)scale(1,1)">

<path d="M1298 1420 c-107 -32 -190 -140 -192 -250 -1 -68 25 -116 80 -148 105 -61 276 22 319 155 32 99 -1 188 -85 231 -46 23 -76 26 -122 12z" transform="translate(0,150) scale(0.1,-0.1)" stroke="none" fill="#5DB4B7"/>

<path d="M1256 880 c-57 -22 -119 -78 -148 -133 -24 -49 -34 -155 -19 -227 19 -94 22 -103 36 -129 8 -14 24 -52 36 -84 11 -31 24 -57 28 -57 4 0 38 28 76 61 39 34 84 73 100 87 40 35 322 289 360 325 l30 28 -35 29 c-123 101 -340 148 -464 100z" transform="translate(0,150) scale(0.1,-0.1)" stroke="none" fill="#2A8B8F"/>

<path d="M933 1395 c-99 -27 -181 -82 -222 -148 -10 -18 -36 -79 -55 -137 -56 -160 -75 -177 -217 -200 -88 -13 -124 -30 -182 -80 -68 -60 -99 -126 -105 -222 -2 -42 -2 -89 2 -103 l7 -27 22 29 c32 41 56 60 115 89 112 56 248 29 319 -65 30 -38 33 -49 33 -109 0 -72 -25 -141 -75 -206 -14 -18 -25 -36 -25 -39 0 -15 122 -6 184 13 70 22 122 57 213 145 32 31 82 70 110 86 49 28 52 32 41 52 -7 13 -12 64 -13 127 0 122 14 159 87 227 62 57 128 77 232 70 44 -3 91 -8 104 -12 21 -7 22 -5 22 62 0 68 -23 173 -39 173 -4 0 -20 -14 -37 -31 -77 -82 -194 -111 -268 -67 -22 13 -49 39 -60 58 -41 70 -18 188 52 263 32 34 24 42 -52 56 -77 14 -129 13 -193 -4z" transform="translate(0,150) scale(0.1,-0.1)" stroke="none" fill="#E9E4E1"/>

</g>

<g id="2" transform="translate(368.0,0)scale(1,1)">

<path d="M1298 1420 c-107 -32 -190 -140 -192 -250 -1 -68 25 -116 80 -148 105 -61 276 22 319 155 32 99 -1 188 -85 231 -46 23 -76 26 -122 12z" transform="translate(0,150) scale(0.1,-0.1)" stroke="none" fill="#5DB4B7"/>

<path d="M1256 880 c-57 -22 -119 -78 -148 -133 -24 -49 -34 -155 -19 -227 19 -94 22 -103 36 -129 8 -14 24 -52 36 -84 11 -31 24 -57 28 -57 4 0 38 28 76 61 39 34 84 73 100 87 40 35 322 289 360 325 l30 28 -35 29 c-123 101 -340 148 -464 100z" transform="translate(0,150) scale(0.1,-0.1)" stroke="none" fill="#2A8B8F"/>

<path d="M933 1395 c-99 -27 -181 -82 -222 -148 -10 -18 -36 -79 -55 -137 -56 -160 -75 -177 -217 -200 -88 -13 -124 -30 -182 -80 -68 -60 -99 -126 -105 -222 -2 -42 -2 -89 2 -103 l7 -27 22 29 c32 41 56 60 115 89 112 56 248 29 319 -65 30 -38 33 -49 33 -109 0 -72 -25 -141 -75 -206 -14 -18 -25 -36 -25 -39 0 -15 122 -6 184 13 70 22 122 57 213 145 32 31 82 70 110 86 49 28 52 32 41 52 -7 13 -12 64 -13 127 0 122 14 159 87 227 62 57 128 77 232 70 44 -3 91 -8 104 -12 21 -7 22 -5 22 62 0 68 -23 173 -39 173 -4 0 -20 -14 -37 -31 -77 -82 -194 -111 -268 -67 -22 13 -49 39 -60 58 -41 70 -18 188 52 263 32 34 24 42 -52 56 -77 14 -129 13 -193 -4z" transform="translate(0,150) scale(0.1,-0.1)" stroke="none" fill="#E9E4E1"/>

</g>

<g id="3" transform="translate(552.0,0)scale(1,1)">

<path d="M1298 1420 c-107 -32 -190 -140 -192 -250 -1 -68 25 -116 80 -148 105 -61 276 22 319 155 32 99 -1 188 -85 231 -46 23 -76 26 -122 12z" transform="translate(0,150) scale(0.1,-0.1)" stroke="none" fill="#5DB4B7"/>

<path d="M1256 880 c-57 -22 -119 -78 -148 -133 -24 -49 -34 -155 -19 -227 19 -94 22 -103 36 -129 8 -14 24 -52 36 -84 11 -31 24 -57 28 -57 4 0 38 28 76 61 39 34 84 73 100 87 40 35 322 289 360 325 l30 28 -35 29 c-123 101 -340 148 -464 100z" transform="translate(0,150) scale(0.1,-0.1)" stroke="none" fill="#2A8B8F"/>

<path d="M933 1395 c-99 -27 -181 -82 -222 -148 -10 -18 -36 -79 -55 -137 -56 -160 -75 -177 -217 -200 -88 -13 -124 -30 -182 -80 -68 -60 -99 -126 -105 -222 -2 -42 -2 -89 2 -103 l7 -27 22 29 c32 41 56 60 115 89 112 56 248 29 319 -65 30 -38 33 -49 33 -109 0 -72 -25 -141 -75 -206 -14 -18 -25 -36 -25 -39 0 -15 122 -6 184 13 70 22 122 57 213 145 32 31 82 70 110 86 49 28 52 32 41 52 -7 13 -12 64 -13 127 0 122 14 159 87 227 62 57 128 77 232 70 44 -3 91 -8 104 -12 21 -7 22 -5 22 62 0 68 -23 173 -39 173 -4 0 -20 -14 -37 -31 -77 -82 -194 -111 -268 -67 -22 13 -49 39 -60 58 -41 70 -18 188 52 263 32 34 24 42 -52 56 -77 14 -129 13 -193 -4z" transform="translate(0,150) scale(0.1,-0.1)" stroke="none" fill="#E9E4E1"/>

</g>

<g id="4" transform="translate(736.0,0)scale(1,1)">

<path d="M1298 1420 c-107 -32 -190 -140 -192 -250 -1 -68 25 -116 80 -148 105 -61 276 22 319 155 32 99 -1 188 -85 231 -46 23 -76 26 -122 12z" transform="translate(0,150) scale(0.1,-0.1)" stroke="none" fill="#5DB4B7"/>

<path d="M1256 880 c-57 -22 -119 -78 -148 -133 -24 -49 -34 -155 -19 -227 19 -94 22 -103 36 -129 8 -14 24 -52 36 -84 11 -31 24 -57 28 -57 4 0 38 28 76 61 39 34 84 73 100 87 40 35 322 289 360 325 l30 28 -35 29 c-123 101 -340 148 -464 100z" transform="translate(0,150) scale(0.1,-0.1)" stroke="none" fill="#2A8B8F"/>

<path d="M933 1395 c-99 -27 -181 -82 -222 -148 -10 -18 -36 -79 -55 -137 -56 -160 -75 -177 -217 -200 -88 -13 -124 -30 -182 -80 -68 -60 -99 -126 -105 -222 -2 -42 -2 -89 2 -103 l7 -27 22 29 c32 41 56 60 115 89 112 56 248 29 319 -65 30 -38 33 -49 33 -109 0 -72 -25 -141 -75 -206 -14 -18 -25 -36 -25 -39 0 -15 122 -6 184 13 70 22 122 57 213 145 32 31 82 70 110 86 49 28 52 32 41 52 -7 13 -12 64 -13 127 0 122 14 159 87 227 62 57 128 77 232 70 44 -3 91 -8 104 -12 21 -7 22 -5 22 62 0 68 -23 173 -39 173 -4 0 -20 -14 -37 -31 -77 -82 -194 -111 -268 -67 -22 13 -49 39 -60 58 -41 70 -18 188 52 263 32 34 24 42 -52 56 -77 14 -129 13 -193 -4z" transform="translate(0,150) scale(0.1,-0.1)" stroke="none" fill="#E9E4E1"/>

</g>

</g>
<g id="row2" transform="translate(24,300.0)">
<g id="0" transform="translate(0.0,0)scale(1,1)">

<path d="M1298 1420 c-107 -32 -190 -140 -192 -250 -1 -68 25 -116 80 -148 105 -61 276 22 319 155 32 99 -1 188 -85 231 -46 23 -76 26 -122 12z" transform="translate(0,150) scale(0.1,-0.1)" stroke="none" fill="#5DB4B7"/>

<path d="M1256 880 c-57 -22 -119 -78 -148 -133 -24 -49 -34 -155 -19 -227 19 -94 22 -103 36 -129 8 -14 24 -52 36 -84 11 -31 24 -57 28 -57 4 0 38 28 76 61 39 34 84 73 100 87 40 35 322 289 360 325 l30 28 -35 29 c-123 101 -340 148 -464 100z" transform="translate(0,150) scale(0.1,-0.1)" stroke="none" fill="#2A8B8F"/>

<path d="M933 1395 c-99 -27 -181 -82 -222 -148 -10 -18 -36 -79 -55 -137 -56 -160 -75 -177 -217 -200 -88 -13 -124 -30 -182 -80 -68 -60 -99 -126 -105 -222 -2 -42 -2 -89 2 -103 l7 -27 22 29 c32 41 56 60 115 89 112 56 248 29 319 -65 30 -38 33 -49 33 -109 0 -72 -25 -141 -75 -206 -14 -18 -25 -36 -25 -39 0 -15 122 -6 184 13 70 22 122 57 213 145 32 31 82 70 110 86 49 28 52 32 41 52 -7 13 -12 64 -13 127 0 122 14 159 87 227 62 57 128 77 232 70 44 -3 91 -8 104 -12 21 -7 22 -5 22 62 0 68 -23 173 -39 173 -4 0 -20 -14 -37 -31 -77 -82 -194 -111 -268 -67 -22 13 -49 39 -60 58 -41 70 -18 188 52 263 32 34 24 42 -52 56 -77 14 -129 13 -193 -4z" transform="translate(0,150) scale(0.1,-0.1)" stroke="none" fill="#E9E4E1"/>

</g>

<g id="1" transform="translate(184.0,0)scale(1,1)">

<path d="M1298 1420 c-107 -32 -190 -140 -192 -250 -1 -68 25 -116 80 -148 105 -61 276 22 319 155 32 99 -1 188 -85 231 -46 23 -76 26 -122 12z" transform="translate(0,150) scale(0.1,-0.1)" stroke="none" fill="#5DB4B7"/>

<path d="M1256 880 c-57 -22 -119 -78 -148 -133 -24 -49 -34 -155 -19 -227 19 -94 22 -103 36 -129 8 -14 24 -52 36 -84 11 -31 24 -57 28 -57 4 0 38 28 76 61 39 34 84 73 100 87 40 35 322 289 360 325 l30 28 -35 29 c-123 101 -340 148 -464 100z" transform="translate(0,150) scale(0.1,-0.1)" stroke="none" fill="#2A8B8F"/>

<path d="M933 1395 c-99 -27 -181 -82 -222 -148 -10 -18 -36 -79 -55 -137 -56 -160 -75 -177 -217 -200 -88 -13 -124 -30 -182 -80 -68 -60 -99 -126 -105 -222 -2 -42 -2 -89 2 -103 l7 -27 22 29 c32 41 56 60 115 89 112 56 248 29 319 -65 30 -38 33 -49 33 -109 0 -72 -25 -141 -75 -206 -14 -18 -25 -36 -25 -39 0 -15 122 -6 184 13 70 22 122 57 213 145 32 31 82 70 110 86 49 28 52 32 41 52 -7 13 -12 64 -13 127 0 122 14 159 87 227 62 57 128 77 232 70 44 -3 91 -8 104 -12 21 -7 22 -5 22 62 0 68 -23 173 -39 173 -4 0 -20 -14 -37 -31 -77 -82 -194 -111 -268 -67 -22 13 -49 39 -60 58 -41 70 -18 188 52 263 32 34 24 42 -52 56 -77 14 -129 13 -193 -4z" transform="translate(0,150) scale(0.1,-0.1)" stroke="none" fill="#E9E4E1"/>

</g>

<g id="2" transform="translate(368.0,0)scale(1,1)">

<path d="M1298 1420 c-107 -32 -190 -140 -192 -250 -1 -68 25 -116 80 -148 105 -61 276 22 319 155 32 99 -1 188 -85 231 -46 23 -76 26 -122 12z" transform="translate(0,150) scale(0.1,-0.1)" stroke="none" fill="#5DB4B7"/>

<path d="M1256 880 c-57 -22 -119 -78 -148 -133 -24 -49 -34 -155 -19 -227 19 -94 22 -103 36 -129 8 -14 24 -52 36 -84 11 -31 24 -57 28 -57 4 0 38 28 76 61 39 34 84 73 100 87 40 35 322 289 360 325 l30 28 -35 29 c-123 101 -340 148 -464 100z" transform="translate(0,150) scale(0.1,-0.1)" stroke="none" fill="#2A8B8F"/>

<path d="M933 1395 c-99 -27 -181 -82 -222 -148 -10 -18 -36 -79 -55 -137 -56 -160 -75 -177 -217 -200 -88 -13 -124 -30 -182 -80 -68 -60 -99 -126 -105 -222 -2 -42 -2 -89 2 -103 l7 -27 22 29 c32 41 56 60 115 89 112 56 248 29 319 -65 30 -38 33 -49 33 -109 0 -72 -25 -141 -75 -206 -14 -18 -25 -36 -25 -39 0 -15 122 -6 184 13 70 22 122 57 213 145 32 31 82 70 110 86 49 28 52 32 41 52 -7 13 -12 64 -13 127 0 122 14 159 87 227 62 57 128 77 232 70 44 -3 91 -8 104 -12 21 -7 22 -5 22 62 0 68 -23 173 -39 173 -4 0 -20 -14 -37 -31 -77 -82 -194 -111 -268 -67 -22 13 -49 39 -60 58 -41 70 -18 188 52 263 32 34 24 42 -52 56 -77 14 -129 13 -193 -4z" transform="translate(0,150) scale(0.1,-0.1)" stroke="none" fill="#E9E4E1"/>

</g>

<g id="3" transform="translate(552.0,0)scale(1,1)">

<path d="M1298 1420 c-107 -32 -190 -140 -192 -250 -1 -68 25 -116 80 -148 105 -61 276 22 319 155 32 99 -1 188 -85 231 -46 23 -76 26 -122 12z" transform="translate(0,150) scale(0.1,-0.1)" stroke="none" fill="#5DB4B7"/>

<path d="M1256 880 c-57 -22 -119 -78 -148 -133 -24 -49 -34 -155 -19 -227 19 -94 22 -103 36 -129 8 -14 24 -52 36 -84 11 -31 24 -57 28 -57 4 0 38 28 76 61 39 34 84 73 100 87 40 35 322 289 360 325 l30 28 -35 29 c-123 101 -340 148 -464 100z" transform="translate(0,150) scale(0.1,-0.1)" stroke="none" fill="#2A8B8F"/>

<path d="M933 1395 c-99 -27 -181 -82 -222 -148 -10 -18 -36 -79 -55 -137 -56 -160 -75 -177 -217 -200 -88 -13 -124 -30 -182 -80 -68 -60 -99 -126 -105 -222 -2 -42 -2 -89 2 -103 l7 -27 22 29 c32 41 56 60 115 89 112 56 248 29 319 -65 30 -38 33 -49 33 -109 0 -72 -25 -141 -75 -206 -14 -18 -25 -36 -25 -39 0 -15 122 -6 184 13 70 22 122 57 213 145 32 31 82 70 110 86 49 28 52 32 41 52 -7 13 -12 64 -13 127 0 122 14 159 87 227 62 57 128 77 232 70 44 -3 91 -8 104 -12 21 -7 22 -5 22 62 0 68 -23 173 -39 173 -4 0 -20 -14 -37 -31 -77 -82 -194 -111 -268 -67 -22 13 -49 39 -60 58 -41 70 -18 188 52 263 32 34 24 42 -52 56 -77 14 -129 13 -193 -4z" transform="translate(0,150) scale(0.1,-0.1)" stroke="none" fill="#E9E4E1"/>

</g>

<g id="4" transform="translate(736.0,0)scale(1,1)">

<path d="M1298 1420 c-107 -32 -190 -140 -192 -250 -1 -68 25 -116 80 -148 105 -61 276 22 319 155 32 99 -1 188 -85 231 -46 23 -76 26 -122 12z" transform="translate(0,150) scale(0.1,-0.1)" stroke="none" fill="#5DB4B7"/>

<path d="M1256 880 c-57 -22 -119 -78 -148 -133 -24 -49 -34 -155 -19 -227 19 -94 22 -103 36 -129 8 -14 24 -52 36 -84 11 -31 24 -57 28 -57 4 0 38 28 76 61 39 34 84 73 100 87 40 35 322 289 360 325 l30 28 -35 29 c-123 101 -340 148 -464 100z" transform="translate(0,150) scale(0.1,-0.1)" stroke="none" fill="#2A8B8F"/>

<path d="M933 1395 c-99 -27 -181 -82 -222 -148 -10 -18 -36 -79 -55 -137 -56 -160 -75 -177 -217 -200 -88 -13 -124 -30 -182 -80 -68 -60 -99 -126 -105 -222 -2 -42 -2 -89 2 -103 l7 -27 22 29 c32 41 56 60 115 89 112 56 248 29 319 -65 30 -38 33 -49 33 -109 0 -72 -25 -141 -75 -206 -14 -18 -25 -36 -25 -39 0 -15 122 -6 184 13 70 22 122 57 213 145 32 31 82 70 110 86 49 28 52 32 41 52 -7 13 -12 64 -13 127 0 122 14 159 87 227 62 57 128 77 232 70 44 -3 91 -8 104 -12 21 -7 22 -5 22 62 0 68 -23 173 -39 173 -4 0 -20 -14 -37 -31 -77 -82 -194 -111 -268 -67 -22 13 -49 39 -60 58 -41 70 -18 188 52 263 32 34 24 42 -52 56 -77 14 -129 13 -193 -4z" transform="translate(0,150) scale(0.1,-0.1)" stroke="none" fill="#E9E4E1"/>

</g>

</g>
<g id="row3" transform="translate(24,450.0)">
<g id="0" transform="translate(0.0,0)scale(1,1)">

<path d="M1298 1420 c-107 -32 -190 -140 -192 -250 -1 -68 25 -116 80 -148 105 -61 276 22 319 155 32 99 -1 188 -85 231 -46 23 -76 26 -122 12z" transform="translate(0,150) scale(0.1,-0.1)" stroke="none" fill="#5DB4B7"/>

<path d="M1256 880 c-57 -22 -119 -78 -148 -133 -24 -49 -34 -155 -19 -227 19 -94 22 -103 36 -129 8 -14 24 -52 36 -84 11 -31 24 -57 28 -57 4 0 38 28 76 61 39 34 84 73 100 87 40 35 322 289 360 325 l30 28 -35 29 c-123 101 -340 148 -464 100z" transform="translate(0,150) scale(0.1,-0.1)" stroke="none" fill="#2A8B8F"/>

<path d="M933 1395 c-99 -27 -181 -82 -222 -148 -10 -18 -36 -79 -55 -137 -56 -160 -75 -177 -217 -200 -88 -13 -124 -30 -182 -80 -68 -60 -99 -126 -105 -222 -2 -42 -2 -89 2 -103 l7 -27 22 29 c32 41 56 60 115 89 112 56 248 29 319 -65 30 -38 33 -49 33 -109 0 -72 -25 -141 -75 -206 -14 -18 -25 -36 -25 -39 0 -15 122 -6 184 13 70 22 122 57 213 145 32 31 82 70 110 86 49 28 52 32 41 52 -7 13 -12 64 -13 127 0 122 14 159 87 227 62 57 128 77 232 70 44 -3 91 -8 104 -12 21 -7 22 -5 22 62 0 68 -23 173 -39 173 -4 0 -20 -14 -37 -31 -77 -82 -194 -111 -268 -67 -22 13 -49 39 -60 58 -41 70 -18 188 52 263 32 34 24 42 -52 56 -77 14 -129 13 -193 -4z" transform="translate(0,150) scale(0.1,-0.1)" stroke="none" fill="#E9E4E1"/>

</g>

<g id="1" transform="translate(184.0,0)scale(1,1)">

<path d="M1298 1420 c-107 -32 -190 -140 -192 -250 -1 -68 25 -116 80 -148 105 -61 276 22 319 155 32 99 -1 188 -85 231 -46 23 -76 26 -122 12z" transform="translate(0,150) scale(0.1,-0.1)" stroke="none" fill="#5DB4B7"/>

<path d="M1256 880 c-57 -22 -119 -78 -148 -133 -24 -49 -34 -155 -19 -227 19 -94 22 -103 36 -129 8 -14 24 -52 36 -84 11 -31 24 -57 28 -57 4 0 38 28 76 61 39 34 84 73 100 87 40 35 322 289 360 325 l30 28 -35 29 c-123 101 -340 148 -464 100z" transform="translate(0,150) scale(0.1,-0.1)" stroke="none" fill="#2A8B8F"/>

<path d="M933 1395 c-99 -27 -181 -82 -222 -148 -10 -18 -36 -79 -55 -137 -56 -160 -75 -177 -217 -200 -88 -13 -124 -30 -182 -80 -68 -60 -99 -126 -105 -222 -2 -42 -2 -89 2 -103 l7 -27 22 29 c32 41 56 60 115 89 112 56 248 29 319 -65 30 -38 33 -49 33 -109 0 -72 -25 -141 -75 -206 -14 -18 -25 -36 -25 -39 0 -15 122 -6 184 13 70 22 122 57 213 145 32 31 82 70 110 86 49 28 52 32 41 52 -7 13 -12 64 -13 127 0 122 14 159 87 227 62 57 128 77 232 70 44 -3 91 -8 104 -12 21 -7 22 -5 22 62 0 68 -23 173 -39 173 -4 0 -20 -14 -37 -31 -77 -82 -194 -111 -268 -67 -22 13 -49 39 -60 58 -41 70 -18 188 52 263 32 34 24 42 -52 56 -77 14 -129 13 -193 -4z" transform="translate(0,150) scale(0.1,-0.1)" stroke="none" fill="#E9E4E1"/>

</g>

<g id="2" transform="translate(368.0,0)scale(1,1)">

<path d="M1298 1420 c-107 -32 -190 -140 -192 -250 -1 -68 25 -116 80 -148 105 -61 276 22 319 155 32 99 -1 188 -85 231 -46 23 -76 26 -122 12z" transform="translate(0,150) scale(0.1,-0.1)" stroke="none" fill="#5DB4B7"/>

<path d="M1256 880 c-57 -22 -119 -78 -148 -133 -24 -49 -34 -155 -19 -227 19 -94 22 -103 36 -129 8 -14 24 -52 36 -84 11 -31 24 -57 28 -57 4 0 38 28 76 61 39 34 84 73 100 87 40 35 322 289 360 325 l30 28 -35 29 c-123 101 -340 148 -464 100z" transform="translate(0,150) scale(0.1,-0.1)" stroke="none" fill="#2A8B8F"/>

<path d="M933 1395 c-99 -27 -181 -82 -222 -148 -10 -18 -36 -79 -55 -137 -56 -160 -75 -177 -217 -200 -88 -13 -124 -30 -182 -80 -68 -60 -99 -126 -105 -222 -2 -42 -2 -89 2 -103 l7 -27 22 29 c32 41 56 60 115 89 112 56 248 29 319 -65 30 -38 33 -49 33 -109 0 -72 -25 -141 -75 -206 -14 -18 -25 -36 -25 -39 0 -15 122 -6 184 13 70 22 122 57 213 145 32 31 82 70 110 86 49 28 52 32 41 52 -7 13 -12 64 -13 127 0 122 14 159 87 227 62 57 128 77 232 70 44 -3 91 -8 104 -12 21 -7 22 -5 22 62 0 68 -23 173 -39 173 -4 0 -20 -14 -37 -31 -77 -82 -194 -111 -268 -67 -22 13 -49 39 -60 58 -41 70 -18 188 52 263 32 34 24 42 -52 56 -77 14 -129 13 -193 -4z" transform="translate(0,150) scale(0.1,-0.1)" stroke="none" fill="#E9E4E1"/>

</g>

<g id="3" transform="translate(552.0,0)scale(1,1)">

<path d="M1298 1420 c-107 -32 -190 -140 -192 -250 -1 -68 25 -116 80 -148 105 -61 276 22 319 155 32 99 -1 188 -85 231 -46 23 -76 26 -122 12z" transform="translate(0,150) scale(0.1,-0.1)" stroke="none" fill="#5DB4B7"/>

<path d="M1256 880 c-57 -22 -119 -78 -148 -133 -24 -49 -34 -155 -19 -227 19 -94 22 -103 36 -129 8 -14 24 -52 36 -84 11 -31 24 -57 28 -57 4 0 38 28 76 61 39 34 84 73 100 87 40 35 322 289 360 325 l30 28 -35 29 c-123 101 -340 148 -464 100z" transform="translate(0,150) scale(0.1,-0.1)" stroke="none" fill="#2A8B8F"/>

<path d="M933 1395 c-99 -27 -181 -82 -222 -148 -10 -18 -36 -79 -55 -137 -56 -160 -75 -177 -217 -200 -88 -13 -124 -30 -182 -80 -68 -60 -99 -126 -105 -222 -2 -42 -2 -89 2 -103 l7 -27 22 29 c32 41 56 60 115 89 112 56 248 29 319 -65 30 -38 33 -49 33 -109 0 -72 -25 -141 -75 -206 -14 -18 -25 -36 -25 -39 0 -15 122 -6 184 13 70 22 122 57 213 145 32 31 82 70 110 86 49 28 52 32 41 52 -7 13 -12 64 -13 127 0 122 14 159 87 227 62 57 128 77 232 70 44 -3 91 -8 104 -12 21 -7 22 -5 22 62 0 68 -23 173 -39 173 -4 0 -20 -14 -37 -31 -77 -82 -194 -111 -268 -67 -22 13 -49 39 -60 58 -41 70 -18 188 52 263 32 34 24 42 -52 56 -77 14 -129 13 -193 -4z" transform="translate(0,150) scale(0.1,-0.1)" stroke="none" fill="#E9E4E1"/>

</g>

<g id="4" transform="translate(736.0,0)scale(1,1)">

<path d="M1298 1420 c-107 -32 -190 -140 -192 -250 -1 -68 25 -116 80 -148 105 -61 276 22 319 155 32 99 -1 188 -85 231 -46 23 -76 26 -122 12z" transform="translate(0,150) scale(0.1,-0.1)" stroke="none" fill="#5DB4B7"/>

<path d="M1256 880 c-57 -22 -119 -78 -148 -133 -24 -49 -34 -155 -19 -227 19 -94 22 -103 36 -129 8 -14 24 -52 36 -84 11 -31 24 -57 28 -57 4 0 38 28 76 61 39 34 84 73 100 87 40 35 322 289 360 325 l30 28 -35 29 c-123 101 -340 148 -464 100z" transform="translate(0,150) scale(0.1,-0.1)" stroke="none" fill="#2A8B8F"/>

<path d="M933 1395 c-99 -27 -181 -82 -222 -148 -10 -18 -36 -79 -55 -137 -56 -160 -75 -177 -217 -200 -88 -13 -124 -30 -182 -80 -68 -60 -99 -126 -105 -222 -2 -42 -2 -89 2 -103 l7 -27 22 29 c32 41 56 60 115 89 112 56 248 29 319 -65 30 -38 33 -49 33 -109 0 -72 -25 -141 -75 -206 -14 -18 -25 -36 -25 -39 0 -15 122 -6 184 13 70 22 122 57 213 145 32 31 82 70 110 86 49 28 52 32 41 52 -7 13 -12 64 -13 127 0 122 14 159 87 227 62 57 128 77 232 70 44 -3 91 -8 104 -12 21 -7 22 -5 22 62 0 68 -23 173 -39 173 -4 0 -20 -14 -37 -31 -77 -82 -194 -111 -268 -67 -22 13 -49 39 -60 58 -41 70 -18 188 52 263 32 34 24 42 -52 56 -77 14 -129 13 -193 -4z" transform="translate(0,150) scale(0.1,-0.1)" stroke="none" fill="#E9E4E1"/>

</g>

</g>
</svg>