<?xml version="1.0" standalone="no"?>
<!DOCTYPE svg PUBLIC "-//W3C//DTD SVG 20010904//EN"
 "http://www.w3.org/TR/2001/REC-SVG-20010904/DTD/svg10.dtd">
<svg version="1.0" xmlns="http://www.w3.org/2000/svg" width="328pt" height="452pt" viewBox="0 0 328 452" preserveAspectRatio = "xMidYMid meet" >
<metadata>
Created by ZoeQu, written in 2022
</metadata>
<rect width="328" height="452" fill="#D8DCC0"/>
<g id="row0" transform="translate(10,0.0)">
<g id="0" transform="translate(0.0,0)scale(1,1)">

<path d="M2 975 c-1 -178 0 -184 71 -269 44 -52 128 -103 282 -170 155 -67 155 -67 170 -96 20 -40 57 -236 64 -340 6 -89 7 -95 29 -98 15 -2 22 2 22 12 0 9 -4 16 -8 16 -4 0 -13 53 -19 117 -17 172 -48 297 -85 339 -17 19 -37 34 -47 34 -53 1 -278 111 -373 183 -40 30 -73 64 -79 82 -7 16 -15 102 -19 190 l-6 160 -2 -160z" transform="translate(0,113) scale(0.1,-0.1)" stroke="none" fill="#A89BB9"/>

</g>

<g id="1" transform="translate(82.0,0)scale(1,1)">

<path d="M2 975 c-1 -178 0 -184 71 -269 44 -52 128 -103 282 -170 155 -67 155 -67 170 -96 20 -40 57 -236 64 -340 6 -89 7 -95 29 -98 15 -2 22 2 22 12 0 9 -4 16 -8 16 -4 0 -13 53 -19 117 -17 172 -48 297 -85 339 -17 19 -37 34 -47 34 -53 1 -278 111 -373 183 -40 30 -73 64 -79 82 -7 16 -15 102 -19 190 l-6 160 -2 -160z" transform="translate(0,113) scale(0.1,-0.1)" stroke="none" fill="#A89BB9"/>

</g>

<g id="2" transform="translate(164.0,0)scale(1,1)">

<path d="M2 975 c-1 -178 0 -184 71 -269 44 -52 128 -103 282 -170 155 -67 155 -67 170 -96 20 -40 57 -236 64 -340 6 -89 7 -95 29 -98 15 -2 22 2 22 12 0 9 -4 16 -8 16 -4 0 -13 53 -19 117 -17 172 -48 297 -85 339 -17 19 -37 34 -47 34 -53 1 -278 111 -373 183 -40 30 -73 64 -79 82 -7 16 -15 102 -19 190 l-6 160 -2 -160z" transform="translate(0,113) scale(0.1,-0.1)" stroke="none" fill="#A89BB9"/>

</g>

<g id="3" transform="translate(246.0,0)scale(1,1)">

<path d="M2 975 c-1 -178 0 -184 71 -269 44 -52 128 -103 282 -170 155 -67 155 -67 170 -96 20 -40 57 -236 64 -340 6 -89 7 -95 29 -98 15 -2 22 2 22 12 0 9 -4 16 -8 16 -4 0 -13 53 -19 117 -17 172 -48 297 -85 339 -17 19 -37 34 -47 34 -53 1 -278 111 -373 183 -40 30 -73 64 -79 82 -7 16 -15 102 -19 190 l-6 160 -2 -160z" transform="translate(0,113) scale(0.1,-0.1)" stroke="none" fill="#A89BB9"/>

</g>

<g id="4" transform="translate(328.0,0)scale(1,1)">

<path d="M2 975 c-1 -178 0 -184 71 -269 44 -52 128 -103 282 -170 155 -67 155 -67 170 -96 20 -40 57 -236 64 -340 6 -89 7 -95 29 -98 15 -2 22 2 22 12 0 9 -4 16 -8 16 -4 0 -13 53 -19 117 -17 172 -48 297 -85 339 -17 19 -37 34 -47 34 -53 1 -278 111 -373 183 -40 30 -73 64 -79 82 -7 16 -15 102 -19 190 l-6 160 -2 -160z" transform="translate(0,113) scale(0.1,-0.1)" stroke="none" fill="#A89BB9"/>

</g>

</g>
<g id="row1" transform="translate(10,113.0)">
<g id="0" transform="translate(0.0,0)scale(1,1)">

<path d="M2 975 c-1 -178 0 -184 71 -269 44 -52 128 -103 282 -170 155 -67 155 -67 170 -96 20 -40 57 -236 64 -340 6 -89 7 -95 29 -98 15 -2 22 2 22 12 0 9 -4 16 -8 16 -4 0 -13 53 -19 117 -17 172 -48 297 -85 339 -17 19 -37 34 -47 34 -53 1 -278 111 -373 183 -40 30 -73 64 -79 82 -7 16 -15 102 -19 190 l-6 160 -2 -160z" transform="translate(0,113) scale(0.1,-0.1)" stroke="none" fill="#A89BB9"/>

</g>

<g id="1" transform="translate(82.0,0)scale(1,1)">

<path d="M2 975 c-1 -178 0 -184 71 -269 44 -52 128 -103 282 -170 155 -67 155 -67 170 -96 20 -40 57 -236 64 -340 6 -89 7 -95 29 -98 15 -2 22 2 22 12 0 9 -4 16 -8 16 -4 0 -13 53 -19 117 -17 172 -48 297 -85 339 -17 19 -37 34 -47 34 -53 1 -278 111 -373 183 -40 30 -73 64 -79 82 -7 16 -15 102 -19 190 l-6 160 -2 -160z" transform="translate(0,113) scale(0.1,-0.1)" stroke="none" fill="#A89BB9"/>

</g>

<g id="2" transform="translate(164.0,0)scale(1,1)">

<path d="M2 975 c-1 -178 0 -184 71 -269 44 -52 128 -103 282 -170 155 -67 155 -67 170 -96 20 -40 57 -236 64 -340 6 -89 7 -95 29 -98 15 -2 22 2 22 12 0 9 -4 16 -8 16 -4 0 -13 53 -19 117 -17 172 -48 297 -85 339 -17 19 -37 34 -47 34 -53 1 -278 111 -373 183 -40 30 -73 64 -79 82 -7 16 -15 102 -19 190 l-6 160 -2 -160z" transform="translate(0,113) scale(0.1,-0.1)" stroke="none" fill="#A89BB9"/>

</g>

<g id="3" transform="translate(246.0,0)scale(1,1)">

<path d="M2 975 c-1 -178 0 -184 71 -269 44 -52 128 -103 282 -170 155 -67 155 -67 170 -96 20 -40 57 -236 64 -340 6 -89 7 -95 29 -98 15 -2 22 2 22 12 0 9 -4 16 -8 16 -4 0 -13 53 -19 117 -17 172 -48 297 -85 339 -17 19 -37 34 -47 34 -53 1 -278 111 -373 183 -40 30 -73 64 -79 82 -7 16 -15 102 -19 190 l-6 160 -2 -160z" transform="translate(0,113) scale(0.1,-0.1)" stroke="none" fill="#A89BB9"/>

</g>

<g id="4" transform="translate(328.0,0)scale(1,1)">

<path d="M2 975 c-1 -178 0 -184 71 -269 44 -52 128 -103 282 -170 155 -67 155 -67 170 -96 20 -40 57 -236 64 -340 6 -89 7 -95 29 -98 15 -2 22 2 22 12 0 9 -4 16 -8 16 -4 0 -13 53 -19 117 -17 172 -48 297 -85 339 -17 19 -37 34 -47 34 -53 1 -278 111 -373 183 -40 30 -73 64 -79 82 -7 16 -15 102 -19 190 l-6 160 -2 -160z" transform="translate(0,113) scale(0.1,-0.1)" stroke="none" fill="#A89BB9"/>

</g>

</g>
<g id="row2" transform="translate(10,226.0)">
<g id="0" transform="translate(0.0,0)scale(1,1)">

<path d="M2 975 c-1 -178 0 -184 71 -269 44 -52 128 -103 282 -170 155 -67 155 -67 170 -96 20 -40 57 -236 64 -340 6 -89 7 -95 29 -98 15 -2 22 2 22 12 0 9 -4 16 -8 16 -4 0 -13 53 -19 117 -17 172 -48 297 -85 339 -17 19 -37 34 -47 34 -53 1 -278 111 -373 183 -40 30 -73 64 -79 82 -7 16 -15 102 -19 190 l-6 160 -2 -160z" transform="translate(0,113) scale(0.1,-0.1)" stroke="none" fill="#A89BB9"/>

</g>

<g id="1" transform="translate(82.0,0)scale(1,1)">

<path d="M2 975 c-1 -178 0 -184 71 -269 44 -52 128 -103 282 -170 155 -67 155 -67 170 -96 20 -40 57 -236 64 -340 6 -89 7 -95 29 -98 15 -2 22 2 22 12 0 9 -4 16 -8 16 -4 0 -13 53 -19 117 -17 172 -48 297 -85 339 -17 19 -37 34 -47 34 -53 1 -278 111 -373 183 -40 30 -73 64 -79 82 -7 16 -15 102 -19 190 l-6 160 -2 -160z" transform="translate(0,113) scale(0.1,-0.1)" stroke="none" fill="#A89BB9"/>

</g>

<g id="2" transform="translate(164.0,0)scale(1,1)">

<path d="M2 975 c-1 -178 0 -184 71 -269 44 -52 128 -103 282 -170 155 -67 155 -67 170 -96 20 -40 57 -236 64 -340 6 -89 7 -95 29 -98 15 -2 22 2 22 12 0 9 -4 16 -8 16 -4 0 -13 53 -19 117 -17 172 -48 297 -85 339 -17 19 -37 34 -47 34 -53 1 -278 111 -373 183 -40 30 -73 64 -79 82 -7 16 -15 102 -19 190 l-6 160 -2 -160z" transform="translate(0,113) scale(0.1,-0.1)" stroke="none" fill="#A89BB9"/>

</g>

<g id="3" transform="translate(246.0,0)scale(1,1)">

<path d="M2 975 c-1 -178 0 -184 71 -269 44 -52 128 -103 282 -170 155 -67 155 -67 170 -96 20 -40 57 -236 64 -340 6 -89 7 -95 29 -98 15 -2 22 2 22 12 0 9 -4 16 -8 16 -4 0 -13 53 -19 117 -17 172 -48 297 -85 339 -17 19 -37 34 -47 34 -53 1 -278 111 -373 183 -40 30 -73 64 -79 82 -7 16 -15 102 -19 190 l-6 160 -2 -160z" transform="translate(0,113) scale(0.1,-0.1)" stroke="none" fill="#A89BB9"/>

</g>

<g id="4" transform="translate(328.0,0)scale(1,1)">

<path d="M2 975 c-1 -178 0 -184 71 -269 44 -52 128 -103 282 -170 155 -67 155 -67 170 -96 20 -40 57 -236 64 -340 6 -89 7 -95 29 -98 15 -2 22 2 22 12 0 9 -4 16 -8 16 -4 0 -13 53 -19 117 -17 172 -48 297 -85 339 -17 19 -37 34 -47 34 -53 1 -278 111 -373 183 -40 30 -73 64 -79 82 -7 16 -15 102 -19 190 l-6 160 -2 -160z" transform="translate(0,113) scale(0.1,-0.1)" stroke="none" fill="#A89BB9"/>

</g>

</g>
<g id="row3" transform="translate(10,339.0)">
<g id="0" transform="translate(0.0,0)scale(1,1)">

<path d="M2 975 c-1 -178 0 -184 71 -269 44 -52 128 -103 282 -170 155 -67 155 -67 170 -96 20 -40 57 -236 64 -340 6 -89 7 -95 29 -98 15 -2 22 2 22 12 0 9 -4 16 -8 16 -4 0 -13 53 -19 117 -17 172 -48 297 -85 339 -17 19 -37 34 -47 34 -53 1 -278 111 -373 183 -40 30 -73 64 -79 82 -7 16 -15 102 -19 190 l-6 160 -2 -160z" transform="translate(0,113) scale(0.1,-0.1)" stroke="none" fill="#A89BB9"/>

</g>

<g id="1" transform="translate(82.0,0)scale(1,1)">

<path d="M2 975 c-1 -178 0 -184 71 -269 44 -52 128 -103 282 -170 155 -67 155 -67 170 -96 20 -40 57 -236 64 -340 6 -89 7 -95 29 -98 15 -2 22 2 22 12 0 9 -4 16 -8 16 -4 0 -13 53 -19 117 -17 172 -48 297 -85 339 -17 19 -37 34 -47 34 -53 1 -278 111 -373 183 -40 30 -73 64 -79 82 -7 16 -15 102 -19 190 l-6 160 -2 -160z" transform="translate(0,113) scale(0.1,-0.1)" stroke="none" fill="#A89BB9"/>

</g>

<g id="2" transform="translate(164.0,0)scale(1,1)">

<path d="M2 975 c-1 -178 0 -184 71 -269 44 -52 128 -103 282 -170 155 -67 155 -67 170 -96 20 -40 57 -236 64 -340 6 -89 7 -95 29 -98 15 -2 22 2 22 12 0 9 -4 16 -8 16 -4 0 -13 53 -19 117 -17 172 -48 297 -85 339 -17 19 -37 34 -47 34 -53 1 -278 111 -373 183 -40 30 -73 64 -79 82 -7 16 -15 102 -19 190 l-6 160 -2 -160z" transform="translate(0,113) scale(0.1,-0.1)" stroke="none" fill="#A89BB9"/>

</g>

<g id="3" transform="translate(246.0,0)scale(1,1)">

<path d="M2 975 c-1 -178 0 -184 71 -269 44 -52 128 -103 282 -170 155 -67 155 -67 170 -96 20 -40 57 -236 64 -340 6 -89 7 -95 29 -98 15 -2 22 2 22 12 0 9 -4 16 -8 16 -4 0 -13 53 -19 117 -17 172 -48 297 -85 339 -17 19 -37 34 -47 34 -53 1 -278 111 -373 183 -40 30 -73 64 -79 82 -7 16 -15 102 -19 190 l-6 160 -2 -160z" transform="translate(0,113) scale(0.1,-0.1)" stroke="none" fill="#A89BB9"/>

</g>

<g id="4" transform="translate(328.0,0)scale(1,1)">

<path d="M2 975 c-1 -178 0 -184 71 -269 44 -52 128 -103 282 -170 155 -67 155 -67 170 -96 20 -40 57 -236 64 -340 6 -89 7 -95 29 -98 15 -2 22 2 22 12 0 9 -4 16 -8 16 -4 0 -13 53 -19 117 -17 172 -48 297 -85 339 -17 19 -37 34 -47 34 -53 1 -278 111 -373 183 -40 30 -73 64 -79 82 -7 16 -15 102 -19 190 l-6 160 -2 -160z" transform="translate(0,113) scale(0.1,-0.1)" stroke="none" fill="#A89BB9"/>

</g>

</g>
</svg>