<?xml version="1.0" standalone="no"?>
<!DOCTYPE svg PUBLIC "-//W3C//DTD SVG 20010904//EN"
 "http://www.w3.org/TR/2001/REC-SVG-20010904/DTD/svg10.dtd">
<svg version="1.0" xmlns="http://www.w3.org/2000/svg" width="5172pt" height="5172pt" viewBox="0 0 5172 5172" preserveAspectRatio = "xMidYMid meet" >
<metadata>
Created by ZoeQu, written in 2022
</metadata>
<rect width="5172" height="5172" fill="#4D3725"/>
<g id="row0" transform="translate(0,0.0)">
<g id="0" transform="translate(0.0,0)scale(0.25,0.25)">

<g id="pattern">
<rect width="5603" height="5603" fill="#4D3725"/>
<g id="pattern1" transform="matrix(1,0,0,1,349,349)">
<path d="M2 975 c-1 -178 0 -184 71 -269 44 -52 128 -103 282 -170 155 -67 155 -67 170 -96 20 -40 57 -236 64 -340 6 -89 7 -95 29 -98 15 -2 22 2 22 12 0 9 -4 16 -8 16 -4 0 -13 53 -19 117 -17 172 -48 297 -85 339 -17 19 -37 34 -47 34 -53 1 -278 111 -373 183 -40 30 -73 64 -79 82 -7 16 -15 102 -19 190 l-6 160 -2 -160z" transform="translate(0.000000,0.000000) scale(1,1)" stroke="none" fill="#C8814D"/>
</g>
<g id="pattern2" transform="matrix(0.618,0,0,0.618,2654,780)">
<path d="M2 975 c-1 -178 0 -184 71 -269 44 -52 128 -103 282 -170 155 -67 155 -67 170 -96 20 -40 57 -236 64 -340 6 -89 7 -95 29 -98 15 -2 22 2 22 12 0 9 -4 16 -8 16 -4 0 -13 53 -19 117 -17 172 -48 297 -85 339 -17 19 -37 34 -47 34 -53 1 -278 111 -373 183 -40 30 -73 64 -79 82 -7 16 -15 102 -19 190 l-6 160 -2 -160z" transform="translate(3516,0.000000) scale(-1,1)" stroke="none" fill="#C8814D"/>
</g>
<g id="pattern3" transform="matrix(0.618,0,0,0.618,995,3516)matrix(0.71,0.71,-0.71,0.71,0,0)">
<path d="M2 975 c-1 -178 0 -184 71 -269 44 -52 128 -103 282 -170 155 -67 155 -67 170 -96 20 -40 57 -236 64 -340 6 -89 7 -95 29 -98 15 -2 22 2 22 12 0 9 -4 16 -8 16 -4 0 -13 53 -19 117 -17 172 -48 297 -85 339 -17 19 -37 34 -47 34 -53 1 -278 111 -373 183 -40 30 -73 64 -79 82 -7 16 -15 102 -19 190 l-6 160 -2 -160z" transform="translate(564,-564) scale(1,1)" stroke="none" fill="#C8814D"/>
</g>
<g id="pattern4" transform="matrix(1.618,0,0,1.618,1475,1475)matrix(0.87,0.5,-0.5,0.87,0,0)">
<path d="M2 975 c-1 -178 0 -184 71 -269 44 -52 128 -103 282 -170 155 -67 155 -67 170 -96 20 -40 57 -236 64 -340 6 -89 7 -95 29 -98 15 -2 22 2 22 12 0 9 -4 16 -8 16 -4 0 -13 53 -19 117 -17 172 -48 297 -85 339 -17 19 -37 34 -47 34 -53 1 -278 111 -373 183 -40 30 -73 64 -79 82 -7 16 -15 102 -19 190 l-6 160 -2 -160z" transform="translate(564,-564) scale(1,1)" stroke="none" fill="#C8814D"/>
</g>
</g>
</g>

<g id="1" transform="translate(1293.0,0)scale(0.25,0.25)">

<g id="pattern">
<rect width="5603" height="5603" fill="#4D3725"/>
<g id="pattern1" transform="matrix(1,0,0,1,349,349)">
<path d="M2 975 c-1 -178 0 -184 71 -269 44 -52 128 -103 282 -170 155 -67 155 -67 170 -96 20 -40 57 -236 64 -340 6 -89 7 -95 29 -98 15 -2 22 2 22 12 0 9 -4 16 -8 16 -4 0 -13 53 -19 117 -17 172 -48 297 -85 339 -17 19 -37 34 -47 34 -53 1 -278 111 -373 183 -40 30 -73 64 -79 82 -7 16 -15 102 -19 190 l-6 160 -2 -160z" transform="translate(0.000000,0.000000) scale(1,1)" stroke="none" fill="#C8814D"/>
</g>
<g id="pattern2" transform="matrix(0.618,0,0,0.618,2654,780)">
<path d="M2 975 c-1 -178 0 -184 71 -269 44 -52 128 -103 282 -170 155 -67 155 -67 170 -96 20 -40 57 -236 64 -340 6 -89 7 -95 29 -98 15 -2 22 2 22 12 0 9 -4 16 -8 16 -4 0 -13 53 -19 117 -17 172 -48 297 -85 339 -17 19 -37 34 -47 34 -53 1 -278 111 -373 183 -40 30 -73 64 -79 82 -7 16 -15 102 -19 190 l-6 160 -2 -160z" transform="translate(3516,0.000000) scale(-1,1)" stroke="none" fill="#C8814D"/>
</g>
<g id="pattern3" transform="matrix(0.618,0,0,0.618,995,3516)matrix(0.71,0.71,-0.71,0.71,0,0)">
<path d="M2 975 c-1 -178 0 -184 71 -269 44 -52 128 -103 282 -170 155 -67 155 -67 170 -96 20 -40 57 -236 64 -340 6 -89 7 -95 29 -98 15 -2 22 2 22 12 0 9 -4 16 -8 16 -4 0 -13 53 -19 117 -17 172 -48 297 -85 339 -17 19 -37 34 -47 34 -53 1 -278 111 -373 183 -40 30 -73 64 -79 82 -7 16 -15 102 -19 190 l-6 160 -2 -160z" transform="translate(564,-564) scale(1,1)" stroke="none" fill="#C8814D"/>
</g>
<g id="pattern4" transform="matrix(1.618,0,0,1.618,1475,1475)matrix(0.87,0.5,-0.5,0.87,0,0)">
<path d="M2 975 c-1 -178 0 -184 71 -269 44 -52 128 -103 282 -170 155 -67 155 -67 170 -96 20 -40 57 -236 64 -340 6 -89 7 -95 29 -98 15 -2 22 2 22 12 0 9 -4 16 -8 16 -4 0 -13 53 -19 117 -17 172 -48 297 -85 339 -17 19 -37 34 -47 34 -53 1 -278 111 -373 183 -40 30 -73 64 -79 82 -7 16 -15 102 -19 190 l-6 160 -2 -160z" transform="translate(564,-564) scale(1,1)" stroke="none" fill="#C8814D"/>
</g>
</g>
</g>

<g id="2" transform="translate(2586.0,0)scale(0.25,0.25)">

<g id="pattern">
<rect width="5603" height="5603" fill="#4D3725"/>
<g id="pattern1" transform="matrix(1,0,0,1,349,349)">
<path d="M2 975 c-1 -178 0 -184 71 -269 44 -52 128 -103 282 -170 155 -67 155 -67 170 -96 20 -40 57 -236 64 -340 6 -89 7 -95 29 -98 15 -2 22 2 22 12 0 9 -4 16 -8 16 -4 0 -13 53 -19 117 -17 172 -48 297 -85 339 -17 19 -37 34 -47 34 -53 1 -278 111 -373 183 -40 30 -73 64 -79 82 -7 16 -15 102 -19 190 l-6 160 -2 -160z" transform="translate(0.000000,0.000000) scale(1,1)" stroke="none" fill="#C8814D"/>
</g>
<g id="pattern2" transform="matrix(0.618,0,0,0.618,2654,780)">
<path d="M2 975 c-1 -178 0 -184 71 -269 44 -52 128 -103 282 -170 155 -67 155 -67 170 -96 20 -40 57 -236 64 -340 6 -89 7 -95 29 -98 15 -2 22 2 22 12 0 9 -4 16 -8 16 -4 0 -13 53 -19 117 -17 172 -48 297 -85 339 -17 19 -37 34 -47 34 -53 1 -278 111 -373 183 -40 30 -73 64 -79 82 -7 16 -15 102 -19 190 l-6 160 -2 -160z" transform="translate(3516,0.000000) scale(-1,1)" stroke="none" fill="#C8814D"/>
</g>
<g id="pattern3" transform="matrix(0.618,0,0,0.618,995,3516)matrix(0.71,0.71,-0.71,0.71,0,0)">
<path d="M2 975 c-1 -178 0 -184 71 -269 44 -52 128 -103 282 -170 155 -67 155 -67 170 -96 20 -40 57 -236 64 -340 6 -89 7 -95 29 -98 15 -2 22 2 22 12 0 9 -4 16 -8 16 -4 0 -13 53 -19 117 -17 172 -48 297 -85 339 -17 19 -37 34 -47 34 -53 1 -278 111 -373 183 -40 30 -73 64 -79 82 -7 16 -15 102 -19 190 l-6 160 -2 -160z" transform="translate(564,-564) scale(1,1)" stroke="none" fill="#C8814D"/>
</g>
<g id="pattern4" transform="matrix(1.618,0,0,1.618,1475,1475)matrix(0.87,0.5,-0.5,0.87,0,0)">
<path d="M2 975 c-1 -178 0 -184 71 -269 44 -52 128 -103 282 -170 155 -67 155 -67 170 -96 20 -40 57 -236 64 -340 6 -89 7 -95 29 -98 15 -2 22 2 22 12 0 9 -4 16 -8 16 -4 0 -13 53 -19 117 -17 172 -48 297 -85 339 -17 19 -37 34 -47 34 -53 1 -278 111 -373 183 -40 30 -73 64 -79 82 -7 16 -15 102 -19 190 l-6 160 -2 -160z" transform="translate(564,-564) scale(1,1)" stroke="none" fill="#C8814D"/>
</g>
</g>
</g>

<g id="3" transform="translate(3879.0,0)scale(0.25,0.25)">

<g id="pattern">
<rect width="5603" height="5603" fill="#4D3725"/>
<g id="pattern1" transform="matrix(1,0,0,1,349,349)">
<path d="M2 975 c-1 -178 0 -184 71 -269 44 -52 128 -103 282 -170 155 -67 155 -67 170 -96 20 -40 57 -236 64 -340 6 -89 7 -95 29 -98 15 -2 22 2 22 12 0 9 -4 16 -8 16 -4 0 -13 53 -19 117 -17 172 -48 297 -85 339 -17 19 -37 34 -47 34 -53 1 -278 111 -373 183 -40 30 -73 64 -79 82 -7 16 -15 102 -19 190 l-6 160 -2 -160z" transform="translate(0.000000,0.000000) scale(1,1)" stroke="none" fill="#C8814D"/>
</g>
<g id="pattern2" transform="matrix(0.618,0,0,0.618,2654,780)">
<path d="M2 975 c-1 -178 0 -184 71 -269 44 -52 128 -103 282 -170 155 -67 155 -67 170 -96 20 -40 57 -236 64 -340 6 -89 7 -95 29 -98 15 -2 22 2 22 12 0 9 -4 16 -8 16 -4 0 -13 53 -19 117 -17 172 -48 297 -85 339 -17 19 -37 34 -47 34 -53 1 -278 111 -373 183 -40 30 -73 64 -79 82 -7 16 -15 102 -19 190 l-6 160 -2 -160z" transform="translate(3516,0.000000) scale(-1,1)" stroke="none" fill="#C8814D"/>
</g>
<g id="pattern3" transform="matrix(0.618,0,0,0.618,995,3516)matrix(0.71,0.71,-0.71,0.71,0,0)">
<path d="M2 975 c-1 -178 0 -184 71 -269 44 -52 128 -103 282 -170 155 -67 155 -67 170 -96 20 -40 57 -236 64 -340 6 -89 7 -95 29 -98 15 -2 22 2 22 12 0 9 -4 16 -8 16 -4 0 -13 53 -19 117 -17 172 -48 297 -85 339 -17 19 -37 34 -47 34 -53 1 -278 111 -373 183 -40 30 -73 64 -79 82 -7 16 -15 102 -19 190 l-6 160 -2 -160z" transform="translate(564,-564) scale(1,1)" stroke="none" fill="#C8814D"/>
</g>
<g id="pattern4" transform="matrix(1.618,0,0,1.618,1475,1475)matrix(0.87,0.5,-0.5,0.87,0,0)">
<path d="M2 975 c-1 -178 0 -184 71 -269 44 -52 128 -103 282 -170 155 -67 155 -67 170 -96 20 -40 57 -236 64 -340 6 -89 7 -95 29 -98 15 -2 22 2 22 12 0 9 -4 16 -8 16 -4 0 -13 53 -19 117 -17 172 -48 297 -85 339 -17 19 -37 34 -47 34 -53 1 -278 111 -373 183 -40 30 -73 64 -79 82 -7 16 -15 102 -19 190 l-6 160 -2 -160z" transform="translate(564,-564) scale(1,1)" stroke="none" fill="#C8814D"/>
</g>
</g>
</g>

<g id="4" transform="translate(5172.0,0)scale(0.25,0.25)">

<g id="pattern">
<rect width="5603" height="5603" fill="#4D3725"/>
<g id="pattern1" transform="matrix(1,0,0,1,349,349)">
<path d="M2 975 c-1 -178 0 -184 71 -269 44 -52 128 -103 282 -170 155 -67 155 -67 170 -96 20 -40 57 -236 64 -340 6 -89 7 -95 29 -98 15 -2 22 2 22 12 0 9 -4 16 -8 16 -4 0 -13 53 -19 117 -17 172 -48 297 -85 339 -17 19 -37 34 -47 34 -53 1 -278 111 -373 183 -40 30 -73 64 -79 82 -7 16 -15 102 -19 190 l-6 160 -2 -160z" transform="translate(0.000000,0.000000) scale(1,1)" stroke="none" fill="#C8814D"/>
</g>
<g id="pattern2" transform="matrix(0.618,0,0,0.618,2654,780)">
<path d="M2 975 c-1 -178 0 -184 71 -269 44 -52 128 -103 282 -170 155 -67 155 -67 170 -96 20 -40 57 -236 64 -340 6 -89 7 -95 29 -98 15 -2 22 2 22 12 0 9 -4 16 -8 16 -4 0 -13 53 -19 117 -17 172 -48 297 -85 339 -17 19 -37 34 -47 34 -53 1 -278 111 -373 183 -40 30 -73 64 -79 82 -7 16 -15 102 -19 190 l-6 160 -2 -160z" transform="translate(3516,0.000000) scale(-1,1)" stroke="none" fill="#C8814D"/>
</g>
<g id="pattern3" transform="matrix(0.618,0,0,0.618,995,3516)matrix(0.71,0.71,-0.71,0.71,0,0)">
<path d="M2 975 c-1 -178 0 -184 71 -269 44 -52 128 -103 282 -170 155 -67 155 -67 170 -96 20 -40 57 -236 64 -340 6 -89 7 -95 29 -98 15 -2 22 2 22 12 0 9 -4 16 -8 16 -4 0 -13 53 -19 117 -17 172 -48 297 -85 339 -17 19 -37 34 -47 34 -53 1 -278 111 -373 183 -40 30 -73 64 -79 82 -7 16 -15 102 -19 190 l-6 160 -2 -160z" transform="translate(564,-564) scale(1,1)" stroke="none" fill="#C8814D"/>
</g>
<g id="pattern4" transform="matrix(1.618,0,0,1.618,1475,1475)matrix(0.87,0.5,-0.5,0.87,0,0)">
<path d="M2 975 c-1 -178 0 -184 71 -269 44 -52 128 -103 282 -170 155 -67 155 -67 170 -96 20 -40 57 -236 64 -340 6 -89 7 -95 29 -98 15 -2 22 2 22 12 0 9 -4 16 -8 16 -4 0 -13 53 -19 117 -17 172 -48 297 -85 339 -17 19 -37 34 -47 34 -53 1 -278 111 -373 183 -40 30 -73 64 -79 82 -7 16 -15 102 -19 190 l-6 160 -2 -160z" transform="translate(564,-564) scale(1,1)" stroke="none" fill="#C8814D"/>
</g>
</g>
</g>

</g>
<g id="row1" transform="translate(0,1293.0)">
<g id="0" transform="translate(0.0,0)scale(0.25,0.25)">

<g id="pattern">
<rect width="5603" height="5603" fill="#4D3725"/>
<g id="pattern1" transform="matrix(1,0,0,1,349,349)">
<path d="M2 975 c-1 -178 0 -184 71 -269 44 -52 128 -103 282 -170 155 -67 155 -67 170 -96 20 -40 57 -236 64 -340 6 -89 7 -95 29 -98 15 -2 22 2 22 12 0 9 -4 16 -8 16 -4 0 -13 53 -19 117 -17 172 -48 297 -85 339 -17 19 -37 34 -47 34 -53 1 -278 111 -373 183 -40 30 -73 64 -79 82 -7 16 -15 102 -19 190 l-6 160 -2 -160z" transform="translate(0.000000,0.000000) scale(1,1)" stroke="none" fill="#C8814D"/>
</g>
<g id="pattern2" transform="matrix(0.618,0,0,0.618,2654,780)">
<path d="M2 975 c-1 -178 0 -184 71 -269 44 -52 128 -103 282 -170 155 -67 155 -67 170 -96 20 -40 57 -236 64 -340 6 -89 7 -95 29 -98 15 -2 22 2 22 12 0 9 -4 16 -8 16 -4 0 -13 53 -19 117 -17 172 -48 297 -85 339 -17 19 -37 34 -47 34 -53 1 -278 111 -373 183 -40 30 -73 64 -79 82 -7 16 -15 102 -19 190 l-6 160 -2 -160z" transform="translate(3516,0.000000) scale(-1,1)" stroke="none" fill="#C8814D"/>
</g>
<g id="pattern3" transform="matrix(0.618,0,0,0.618,995,3516)matrix(0.71,0.71,-0.71,0.71,0,0)">
<path d="M2 975 c-1 -178 0 -184 71 -269 44 -52 128 -103 282 -170 155 -67 155 -67 170 -96 20 -40 57 -236 64 -340 6 -89 7 -95 29 -98 15 -2 22 2 22 12 0 9 -4 16 -8 16 -4 0 -13 53 -19 117 -17 172 -48 297 -85 339 -17 19 -37 34 -47 34 -53 1 -278 111 -373 183 -40 30 -73 64 -79 82 -7 16 -15 102 -19 190 l-6 160 -2 -160z" transform="translate(564,-564) scale(1,1)" stroke="none" fill="#C8814D"/>
</g>
<g id="pattern4" transform="matrix(1.618,0,0,1.618,1475,1475)matrix(0.87,0.5,-0.5,0.87,0,0)">
<path d="M2 975 c-1 -178 0 -184 71 -269 44 -52 128 -103 282 -170 155 -67 155 -67 170 -96 20 -40 57 -236 64 -340 6 -89 7 -95 29 -98 15 -2 22 2 22 12 0 9 -4 16 -8 16 -4 0 -13 53 -19 117 -17 172 -48 297 -85 339 -17 19 -37 34 -47 34 -53 1 -278 111 -373 183 -40 30 -73 64 -79 82 -7 16 -15 102 -19 190 l-6 160 -2 -160z" transform="translate(564,-564) scale(1,1)" stroke="none" fill="#C8814D"/>
</g>
</g>
</g>

<g id="1" transform="translate(1293.0,0)scale(0.25,0.25)">

<g id="pattern">
<rect width="5603" height="5603" fill="#4D3725"/>
<g id="pattern1" transform="matrix(1,0,0,1,349,349)">
<path d="M2 975 c-1 -178 0 -184 71 -269 44 -52 128 -103 282 -170 155 -67 155 -67 170 -96 20 -40 57 -236 64 -340 6 -89 7 -95 29 -98 15 -2 22 2 22 12 0 9 -4 16 -8 16 -4 0 -13 53 -19 117 -17 172 -48 297 -85 339 -17 19 -37 34 -47 34 -53 1 -278 111 -373 183 -40 30 -73 64 -79 82 -7 16 -15 102 -19 190 l-6 160 -2 -160z" transform="translate(0.000000,0.000000) scale(1,1)" stroke="none" fill="#C8814D"/>
</g>
<g id="pattern2" transform="matrix(0.618,0,0,0.618,2654,780)">
<path d="M2 975 c-1 -178 0 -184 71 -269 44 -52 128 -103 282 -170 155 -67 155 -67 170 -96 20 -40 57 -236 64 -340 6 -89 7 -95 29 -98 15 -2 22 2 22 12 0 9 -4 16 -8 16 -4 0 -13 53 -19 117 -17 172 -48 297 -85 339 -17 19 -37 34 -47 34 -53 1 -278 111 -373 183 -40 30 -73 64 -79 82 -7 16 -15 102 -19 190 l-6 160 -2 -160z" transform="translate(3516,0.000000) scale(-1,1)" stroke="none" fill="#C8814D"/>
</g>
<g id="pattern3" transform="matrix(0.618,0,0,0.618,995,3516)matrix(0.71,0.71,-0.71,0.71,0,0)">
<path d="M2 975 c-1 -178 0 -184 71 -269 44 -52 128 -103 282 -170 155 -67 155 -67 170 -96 20 -40 57 -236 64 -340 6 -89 7 -95 29 -98 15 -2 22 2 22 12 0 9 -4 16 -8 16 -4 0 -13 53 -19 117 -17 172 -48 297 -85 339 -17 19 -37 34 -47 34 -53 1 -278 111 -373 183 -40 30 -73 64 -79 82 -7 16 -15 102 -19 190 l-6 160 -2 -160z" transform="translate(564,-564) scale(1,1)" stroke="none" fill="#C8814D"/>
</g>
<g id="pattern4" transform="matrix(1.618,0,0,1.618,1475,1475)matrix(0.87,0.5,-0.5,0.87,0,0)">
<path d="M2 975 c-1 -178 0 -184 71 -269 44 -52 128 -103 282 -170 155 -67 155 -67 170 -96 20 -40 57 -236 64 -340 6 -89 7 -95 29 -98 15 -2 22 2 22 12 0 9 -4 16 -8 16 -4 0 -13 53 -19 117 -17 172 -48 297 -85 339 -17 19 -37 34 -47 34 -53 1 -278 111 -373 183 -40 30 -73 64 -79 82 -7 16 -15 102 -19 190 l-6 160 -2 -160z" transform="translate(564,-564) scale(1,1)" stroke="none" fill="#C8814D"/>
</g>
</g>
</g>

<g id="2" transform="translate(2586.0,0)scale(0.25,0.25)">

<g id="pattern">
<rect width="5603" height="5603" fill="#4D3725"/>
<g id="pattern1" transform="matrix(1,0,0,1,349,349)">
<path d="M2 975 c-1 -178 0 -184 71 -269 44 -52 128 -103 282 -170 155 -67 155 -67 170 -96 20 -40 57 -236 64 -340 6 -89 7 -95 29 -98 15 -2 22 2 22 12 0 9 -4 16 -8 16 -4 0 -13 53 -19 117 -17 172 -48 297 -85 339 -17 19 -37 34 -47 34 -53 1 -278 111 -373 183 -40 30 -73 64 -79 82 -7 16 -15 102 -19 190 l-6 160 -2 -160z" transform="translate(0.000000,0.000000) scale(1,1)" stroke="none" fill="#C8814D"/>
</g>
<g id="pattern2" transform="matrix(0.618,0,0,0.618,2654,780)">
<path d="M2 975 c-1 -178 0 -184 71 -269 44 -52 128 -103 282 -170 155 -67 155 -67 170 -96 20 -40 57 -236 64 -340 6 -89 7 -95 29 -98 15 -2 22 2 22 12 0 9 -4 16 -8 16 -4 0 -13 53 -19 117 -17 172 -48 297 -85 339 -17 19 -37 34 -47 34 -53 1 -278 111 -373 183 -40 30 -73 64 -79 82 -7 16 -15 102 -19 190 l-6 160 -2 -160z" transform="translate(3516,0.000000) scale(-1,1)" stroke="none" fill="#C8814D"/>
</g>
<g id="pattern3" transform="matrix(0.618,0,0,0.618,995,3516)matrix(0.71,0.71,-0.71,0.71,0,0)">
<path d="M2 975 c-1 -178 0 -184 71 -269 44 -52 128 -103 282 -170 155 -67 155 -67 170 -96 20 -40 57 -236 64 -340 6 -89 7 -95 29 -98 15 -2 22 2 22 12 0 9 -4 16 -8 16 -4 0 -13 53 -19 117 -17 172 -48 297 -85 339 -17 19 -37 34 -47 34 -53 1 -278 111 -373 183 -40 30 -73 64 -79 82 -7 16 -15 102 -19 190 l-6 160 -2 -160z" transform="translate(564,-564) scale(1,1)" stroke="none" fill="#C8814D"/>
</g>
<g id="pattern4" transform="matrix(1.618,0,0,1.618,1475,1475)matrix(0.87,0.5,-0.5,0.87,0,0)">
<path d="M2 975 c-1 -178 0 -184 71 -269 44 -52 128 -103 282 -170 155 -67 155 -67 170 -96 20 -40 57 -236 64 -340 6 -89 7 -95 29 -98 15 -2 22 2 22 12 0 9 -4 16 -8 16 -4 0 -13 53 -19 117 -17 172 -48 297 -85 339 -17 19 -37 34 -47 34 -53 1 -278 111 -373 183 -40 30 -73 64 -79 82 -7 16 -15 102 -19 190 l-6 160 -2 -160z" transform="translate(564,-564) scale(1,1)" stroke="none" fill="#C8814D"/>
</g>
</g>
</g>

<g id="3" transform="translate(3879.0,0)scale(0.25,0.25)">

<g id="pattern">
<rect width="5603" height="5603" fill="#4D3725"/>
<g id="pattern1" transform="matrix(1,0,0,1,349,349)">
<path d="M2 975 c-1 -178 0 -184 71 -269 44 -52 128 -103 282 -170 155 -67 155 -67 170 -96 20 -40 57 -236 64 -340 6 -89 7 -95 29 -98 15 -2 22 2 22 12 0 9 -4 16 -8 16 -4 0 -13 53 -19 117 -17 172 -48 297 -85 339 -17 19 -37 34 -47 34 -53 1 -278 111 -373 183 -40 30 -73 64 -79 82 -7 16 -15 102 -19 190 l-6 160 -2 -160z" transform="translate(0.000000,0.000000) scale(1,1)" stroke="none" fill="#C8814D"/>
</g>
<g id="pattern2" transform="matrix(0.618,0,0,0.618,2654,780)">
<path d="M2 975 c-1 -178 0 -184 71 -269 44 -52 128 -103 282 -170 155 -67 155 -67 170 -96 20 -40 57 -236 64 -340 6 -89 7 -95 29 -98 15 -2 22 2 22 12 0 9 -4 16 -8 16 -4 0 -13 53 -19 117 -17 172 -48 297 -85 339 -17 19 -37 34 -47 34 -53 1 -278 111 -373 183 -40 30 -73 64 -79 82 -7 16 -15 102 -19 190 l-6 160 -2 -160z" transform="translate(3516,0.000000) scale(-1,1)" stroke="none" fill="#C8814D"/>
</g>
<g id="pattern3" transform="matrix(0.618,0,0,0.618,995,3516)matrix(0.71,0.71,-0.71,0.71,0,0)">
<path d="M2 975 c-1 -178 0 -184 71 -269 44 -52 128 -103 282 -170 155 -67 155 -67 170 -96 20 -40 57 -236 64 -340 6 -89 7 -95 29 -98 15 -2 22 2 22 12 0 9 -4 16 -8 16 -4 0 -13 53 -19 117 -17 172 -48 297 -85 339 -17 19 -37 34 -47 34 -53 1 -278 111 -373 183 -40 30 -73 64 -79 82 -7 16 -15 102 -19 190 l-6 160 -2 -160z" transform="translate(564,-564) scale(1,1)" stroke="none" fill="#C8814D"/>
</g>
<g id="pattern4" transform="matrix(1.618,0,0,1.618,1475,1475)matrix(0.87,0.5,-0.5,0.87,0,0)">
<path d="M2 975 c-1 -178 0 -184 71 -269 44 -52 128 -103 282 -170 155 -67 155 -67 170 -96 20 -40 57 -236 64 -340 6 -89 7 -95 29 -98 15 -2 22 2 22 12 0 9 -4 16 -8 16 -4 0 -13 53 -19 117 -17 172 -48 297 -85 339 -17 19 -37 34 -47 34 -53 1 -278 111 -373 183 -40 30 -73 64 -79 82 -7 16 -15 102 -19 190 l-6 160 -2 -160z" transform="translate(564,-564) scale(1,1)" stroke="none" fill="#C8814D"/>
</g>
</g>
</g>

<g id="4" transform="translate(5172.0,0)scale(0.25,0.25)">

<g id="pattern">
<rect width="5603" height="5603" fill="#4D3725"/>
<g id="pattern1" transform="matrix(1,0,0,1,349,349)">
<path d="M2 975 c-1 -178 0 -184 71 -269 44 -52 128 -103 282 -170 155 -67 155 -67 170 -96 20 -40 57 -236 64 -340 6 -89 7 -95 29 -98 15 -2 22 2 22 12 0 9 -4 16 -8 16 -4 0 -13 53 -19 117 -17 172 -48 297 -85 339 -17 19 -37 34 -47 34 -53 1 -278 111 -373 183 -40 30 -73 64 -79 82 -7 16 -15 102 -19 190 l-6 160 -2 -160z" transform="translate(0.000000,0.000000) scale(1,1)" stroke="none" fill="#C8814D"/>
</g>
<g id="pattern2" transform="matrix(0.618,0,0,0.618,2654,780)">
<path d="M2 975 c-1 -178 0 -184 71 -269 44 -52 128 -103 282 -170 155 -67 155 -67 170 -96 20 -40 57 -236 64 -340 6 -89 7 -95 29 -98 15 -2 22 2 22 12 0 9 -4 16 -8 16 -4 0 -13 53 -19 117 -17 172 -48 297 -85 339 -17 19 -37 34 -47 34 -53 1 -278 111 -373 183 -40 30 -73 64 -79 82 -7 16 -15 102 -19 190 l-6 160 -2 -160z" transform="translate(3516,0.000000) scale(-1,1)" stroke="none" fill="#C8814D"/>
</g>
<g id="pattern3" transform="matrix(0.618,0,0,0.618,995,3516)matrix(0.71,0.71,-0.71,0.71,0,0)">
<path d="M2 975 c-1 -178 0 -184 71 -269 44 -52 128 -103 282 -170 155 -67 155 -67 170 -96 20 -40 57 -236 64 -340 6 -89 7 -95 29 -98 15 -2 22 2 22 12 0 9 -4 16 -8 16 -4 0 -13 53 -19 117 -17 172 -48 297 -85 339 -17 19 -37 34 -47 34 -53 1 -278 111 -373 183 -40 30 -73 64 -79 82 -7 16 -15 102 -19 190 l-6 160 -2 -160z" transform="translate(564,-564) scale(1,1)" stroke="none" fill="#C8814D"/>
</g>
<g id="pattern4" transform="matrix(1.618,0,0,1.618,1475,1475)matrix(0.87,0.5,-0.5,0.87,0,0)">
<path d="M2 975 c-1 -178 0 -184 71 -269 44 -52 128 -103 282 -170 155 -67 155 -67 170 -96 20 -40 57 -236 64 -340 6 -89 7 -95 29 -98 15 -2 22 2 22 12 0 9 -4 16 -8 16 -4 0 -13 53 -19 117 -17 172 -48 297 -85 339 -17 19 -37 34 -47 34 -53 1 -278 111 -373 183 -40 30 -73 64 -79 82 -7 16 -15 102 -19 190 l-6 160 -2 -160z" transform="translate(564,-564) scale(1,1)" stroke="none" fill="#C8814D"/>
</g>
</g>
</g>

</g>
<g id="row2" transform="translate(0,2586.0)">
<g id="0" transform="translate(0.0,0)scale(0.25,0.25)">

<g id="pattern">
<rect width="5603" height="5603" fill="#4D3725"/>
<g id="pattern1" transform="matrix(1,0,0,1,349,349)">
<path d="M2 975 c-1 -178 0 -184 71 -269 44 -52 128 -103 282 -170 155 -67 155 -67 170 -96 20 -40 57 -236 64 -340 6 -89 7 -95 29 -98 15 -2 22 2 22 12 0 9 -4 16 -8 16 -4 0 -13 53 -19 117 -17 172 -48 297 -85 339 -17 19 -37 34 -47 34 -53 1 -278 111 -373 183 -40 30 -73 64 -79 82 -7 16 -15 102 -19 190 l-6 160 -2 -160z" transform="translate(0.000000,0.000000) scale(1,1)" stroke="none" fill="#C8814D"/>
</g>
<g id="pattern2" transform="matrix(0.618,0,0,0.618,2654,780)">
<path d="M2 975 c-1 -178 0 -184 71 -269 44 -52 128 -103 282 -170 155 -67 155 -67 170 -96 20 -40 57 -236 64 -340 6 -89 7 -95 29 -98 15 -2 22 2 22 12 0 9 -4 16 -8 16 -4 0 -13 53 -19 117 -17 172 -48 297 -85 339 -17 19 -37 34 -47 34 -53 1 -278 111 -373 183 -40 30 -73 64 -79 82 -7 16 -15 102 -19 190 l-6 160 -2 -160z" transform="translate(3516,0.000000) scale(-1,1)" stroke="none" fill="#C8814D"/>
</g>
<g id="pattern3" transform="matrix(0.618,0,0,0.618,995,3516)matrix(0.71,0.71,-0.71,0.71,0,0)">
<path d="M2 975 c-1 -178 0 -184 71 -269 44 -52 128 -103 282 -170 155 -67 155 -67 170 -96 20 -40 57 -236 64 -340 6 -89 7 -95 29 -98 15 -2 22 2 22 12 0 9 -4 16 -8 16 -4 0 -13 53 -19 117 -17 172 -48 297 -85 339 -17 19 -37 34 -47 34 -53 1 -278 111 -373 183 -40 30 -73 64 -79 82 -7 16 -15 102 -19 190 l-6 160 -2 -160z" transform="translate(564,-564) scale(1,1)" stroke="none" fill="#C8814D"/>
</g>
<g id="pattern4" transform="matrix(1.618,0,0,1.618,1475,1475)matrix(0.87,0.5,-0.5,0.87,0,0)">
<path d="M2 975 c-1 -178 0 -184 71 -269 44 -52 128 -103 282 -170 155 -67 155 -67 170 -96 20 -40 57 -236 64 -340 6 -89 7 -95 29 -98 15 -2 22 2 22 12 0 9 -4 16 -8 16 -4 0 -13 53 -19 117 -17 172 -48 297 -85 339 -17 19 -37 34 -47 34 -53 1 -278 111 -373 183 -40 30 -73 64 -79 82 -7 16 -15 102 -19 190 l-6 160 -2 -160z" transform="translate(564,-564) scale(1,1)" stroke="none" fill="#C8814D"/>
</g>
</g>
</g>

<g id="1" transform="translate(1293.0,0)scale(0.25,0.25)">

<g id="pattern">
<rect width="5603" height="5603" fill="#4D3725"/>
<g id="pattern1" transform="matrix(1,0,0,1,349,349)">
<path d="M2 975 c-1 -178 0 -184 71 -269 44 -52 128 -103 282 -170 155 -67 155 -67 170 -96 20 -40 57 -236 64 -340 6 -89 7 -95 29 -98 15 -2 22 2 22 12 0 9 -4 16 -8 16 -4 0 -13 53 -19 117 -17 172 -48 297 -85 339 -17 19 -37 34 -47 34 -53 1 -278 111 -373 183 -40 30 -73 64 -79 82 -7 16 -15 102 -19 190 l-6 160 -2 -160z" transform="translate(0.000000,0.000000) scale(1,1)" stroke="none" fill="#C8814D"/>
</g>
<g id="pattern2" transform="matrix(0.618,0,0,0.618,2654,780)">
<path d="M2 975 c-1 -178 0 -184 71 -269 44 -52 128 -103 282 -170 155 -67 155 -67 170 -96 20 -40 57 -236 64 -340 6 -89 7 -95 29 -98 15 -2 22 2 22 12 0 9 -4 16 -8 16 -4 0 -13 53 -19 117 -17 172 -48 297 -85 339 -17 19 -37 34 -47 34 -53 1 -278 111 -373 183 -40 30 -73 64 -79 82 -7 16 -15 102 -19 190 l-6 160 -2 -160z" transform="translate(3516,0.000000) scale(-1,1)" stroke="none" fill="#C8814D"/>
</g>
<g id="pattern3" transform="matrix(0.618,0,0,0.618,995,3516)matrix(0.71,0.71,-0.71,0.71,0,0)">
<path d="M2 975 c-1 -178 0 -184 71 -269 44 -52 128 -103 282 -170 155 -67 155 -67 170 -96 20 -40 57 -236 64 -340 6 -89 7 -95 29 -98 15 -2 22 2 22 12 0 9 -4 16 -8 16 -4 0 -13 53 -19 117 -17 172 -48 297 -85 339 -17 19 -37 34 -47 34 -53 1 -278 111 -373 183 -40 30 -73 64 -79 82 -7 16 -15 102 -19 190 l-6 160 -2 -160z" transform="translate(564,-564) scale(1,1)" stroke="none" fill="#C8814D"/>
</g>
<g id="pattern4" transform="matrix(1.618,0,0,1.618,1475,1475)matrix(0.87,0.5,-0.5,0.87,0,0)">
<path d="M2 975 c-1 -178 0 -184 71 -269 44 -52 128 -103 282 -170 155 -67 155 -67 170 -96 20 -40 57 -236 64 -340 6 -89 7 -95 29 -98 15 -2 22 2 22 12 0 9 -4 16 -8 16 -4 0 -13 53 -19 117 -17 172 -48 297 -85 339 -17 19 -37 34 -47 34 -53 1 -278 111 -373 183 -40 30 -73 64 -79 82 -7 16 -15 102 -19 190 l-6 160 -2 -160z" transform="translate(564,-564) scale(1,1)" stroke="none" fill="#C8814D"/>
</g>
</g>
</g>

<g id="2" transform="translate(2586.0,0)scale(0.25,0.25)">

<g id="pattern">
<rect width="5603" height="5603" fill="#4D3725"/>
<g id="pattern1" transform="matrix(1,0,0,1,349,349)">
<path d="M2 975 c-1 -178 0 -184 71 -269 44 -52 128 -103 282 -170 155 -67 155 -67 170 -96 20 -40 57 -236 64 -340 6 -89 7 -95 29 -98 15 -2 22 2 22 12 0 9 -4 16 -8 16 -4 0 -13 53 -19 117 -17 172 -48 297 -85 339 -17 19 -37 34 -47 34 -53 1 -278 111 -373 183 -40 30 -73 64 -79 82 -7 16 -15 102 -19 190 l-6 160 -2 -160z" transform="translate(0.000000,0.000000) scale(1,1)" stroke="none" fill="#C8814D"/>
</g>
<g id="pattern2" transform="matrix(0.618,0,0,0.618,2654,780)">
<path d="M2 975 c-1 -178 0 -184 71 -269 44 -52 128 -103 282 -170 155 -67 155 -67 170 -96 20 -40 57 -236 64 -340 6 -89 7 -95 29 -98 15 -2 22 2 22 12 0 9 -4 16 -8 16 -4 0 -13 53 -19 117 -17 172 -48 297 -85 339 -17 19 -37 34 -47 34 -53 1 -278 111 -373 183 -40 30 -73 64 -79 82 -7 16 -15 102 -19 190 l-6 160 -2 -160z" transform="translate(3516,0.000000) scale(-1,1)" stroke="none" fill="#C8814D"/>
</g>
<g id="pattern3" transform="matrix(0.618,0,0,0.618,995,3516)matrix(0.71,0.71,-0.71,0.71,0,0)">
<path d="M2 975 c-1 -178 0 -184 71 -269 44 -52 128 -103 282 -170 155 -67 155 -67 170 -96 20 -40 57 -236 64 -340 6 -89 7 -95 29 -98 15 -2 22 2 22 12 0 9 -4 16 -8 16 -4 0 -13 53 -19 117 -17 172 -48 297 -85 339 -17 19 -37 34 -47 34 -53 1 -278 111 -373 183 -40 30 -73 64 -79 82 -7 16 -15 102 -19 190 l-6 160 -2 -160z" transform="translate(564,-564) scale(1,1)" stroke="none" fill="#C8814D"/>
</g>
<g id="pattern4" transform="matrix(1.618,0,0,1.618,1475,1475)matrix(0.87,0.5,-0.5,0.87,0,0)">
<path d="M2 975 c-1 -178 0 -184 71 -269 44 -52 128 -103 282 -170 155 -67 155 -67 170 -96 20 -40 57 -236 64 -340 6 -89 7 -95 29 -98 15 -2 22 2 22 12 0 9 -4 16 -8 16 -4 0 -13 53 -19 117 -17 172 -48 297 -85 339 -17 19 -37 34 -47 34 -53 1 -278 111 -373 183 -40 30 -73 64 -79 82 -7 16 -15 102 -19 190 l-6 160 -2 -160z" transform="translate(564,-564) scale(1,1)" stroke="none" fill="#C8814D"/>
</g>
</g>
</g>

<g id="3" transform="translate(3879.0,0)scale(0.25,0.25)">

<g id="pattern">
<rect width="5603" height="5603" fill="#4D3725"/>
<g id="pattern1" transform="matrix(1,0,0,1,349,349)">
<path d="M2 975 c-1 -178 0 -184 71 -269 44 -52 128 -103 282 -170 155 -67 155 -67 170 -96 20 -40 57 -236 64 -340 6 -89 7 -95 29 -98 15 -2 22 2 22 12 0 9 -4 16 -8 16 -4 0 -13 53 -19 117 -17 172 -48 297 -85 339 -17 19 -37 34 -47 34 -53 1 -278 111 -373 183 -40 30 -73 64 -79 82 -7 16 -15 102 -19 190 l-6 160 -2 -160z" transform="translate(0.000000,0.000000) scale(1,1)" stroke="none" fill="#C8814D"/>
</g>
<g id="pattern2" transform="matrix(0.618,0,0,0.618,2654,780)">
<path d="M2 975 c-1 -178 0 -184 71 -269 44 -52 128 -103 282 -170 155 -67 155 -67 170 -96 20 -40 57 -236 64 -340 6 -89 7 -95 29 -98 15 -2 22 2 22 12 0 9 -4 16 -8 16 -4 0 -13 53 -19 117 -17 172 -48 297 -85 339 -17 19 -37 34 -47 34 -53 1 -278 111 -373 183 -40 30 -73 64 -79 82 -7 16 -15 102 -19 190 l-6 160 -2 -160z" transform="translate(3516,0.000000) scale(-1,1)" stroke="none" fill="#C8814D"/>
</g>
<g id="pattern3" transform="matrix(0.618,0,0,0.618,995,3516)matrix(0.71,0.71,-0.71,0.71,0,0)">
<path d="M2 975 c-1 -178 0 -184 71 -269 44 -52 128 -103 282 -170 155 -67 155 -67 170 -96 20 -40 57 -236 64 -340 6 -89 7 -95 29 -98 15 -2 22 2 22 12 0 9 -4 16 -8 16 -4 0 -13 53 -19 117 -17 172 -48 297 -85 339 -17 19 -37 34 -47 34 -53 1 -278 111 -373 183 -40 30 -73 64 -79 82 -7 16 -15 102 -19 190 l-6 160 -2 -160z" transform="translate(564,-564) scale(1,1)" stroke="none" fill="#C8814D"/>
</g>
<g id="pattern4" transform="matrix(1.618,0,0,1.618,1475,1475)matrix(0.87,0.5,-0.5,0.87,0,0)">
<path d="M2 975 c-1 -178 0 -184 71 -269 44 -52 128 -103 282 -170 155 -67 155 -67 170 -96 20 -40 57 -236 64 -340 6 -89 7 -95 29 -98 15 -2 22 2 22 12 0 9 -4 16 -8 16 -4 0 -13 53 -19 117 -17 172 -48 297 -85 339 -17 19 -37 34 -47 34 -53 1 -278 111 -373 183 -40 30 -73 64 -79 82 -7 16 -15 102 -19 190 l-6 160 -2 -160z" transform="translate(564,-564) scale(1,1)" stroke="none" fill="#C8814D"/>
</g>
</g>
</g>

<g id="4" transform="translate(5172.0,0)scale(0.25,0.25)">

<g id="pattern">
<rect width="5603" height="5603" fill="#4D3725"/>
<g id="pattern1" transform="matrix(1,0,0,1,349,349)">
<path d="M2 975 c-1 -178 0 -184 71 -269 44 -52 128 -103 282 -170 155 -67 155 -67 170 -96 20 -40 57 -236 64 -340 6 -89 7 -95 29 -98 15 -2 22 2 22 12 0 9 -4 16 -8 16 -4 0 -13 53 -19 117 -17 172 -48 297 -85 339 -17 19 -37 34 -47 34 -53 1 -278 111 -373 183 -40 30 -73 64 -79 82 -7 16 -15 102 -19 190 l-6 160 -2 -160z" transform="translate(0.000000,0.000000) scale(1,1)" stroke="none" fill="#C8814D"/>
</g>
<g id="pattern2" transform="matrix(0.618,0,0,0.618,2654,780)">
<path d="M2 975 c-1 -178 0 -184 71 -269 44 -52 128 -103 282 -170 155 -67 155 -67 170 -96 20 -40 57 -236 64 -340 6 -89 7 -95 29 -98 15 -2 22 2 22 12 0 9 -4 16 -8 16 -4 0 -13 53 -19 117 -17 172 -48 297 -85 339 -17 19 -37 34 -47 34 -53 1 -278 111 -373 183 -40 30 -73 64 -79 82 -7 16 -15 102 -19 190 l-6 160 -2 -160z" transform="translate(3516,0.000000) scale(-1,1)" stroke="none" fill="#C8814D"/>
</g>
<g id="pattern3" transform="matrix(0.618,0,0,0.618,995,3516)matrix(0.71,0.71,-0.71,0.71,0,0)">
<path d="M2 975 c-1 -178 0 -184 71 -269 44 -52 128 -103 282 -170 155 -67 155 -67 170 -96 20 -40 57 -236 64 -340 6 -89 7 -95 29 -98 15 -2 22 2 22 12 0 9 -4 16 -8 16 -4 0 -13 53 -19 117 -17 172 -48 297 -85 339 -17 19 -37 34 -47 34 -53 1 -278 111 -373 183 -40 30 -73 64 -79 82 -7 16 -15 102 -19 190 l-6 160 -2 -160z" transform="translate(564,-564) scale(1,1)" stroke="none" fill="#C8814D"/>
</g>
<g id="pattern4" transform="matrix(1.618,0,0,1.618,1475,1475)matrix(0.87,0.5,-0.5,0.87,0,0)">
<path d="M2 975 c-1 -178 0 -184 71 -269 44 -52 128 -103 282 -170 155 -67 155 -67 170 -96 20 -40 57 -236 64 -340 6 -89 7 -95 29 -98 15 -2 22 2 22 12 0 9 -4 16 -8 16 -4 0 -13 53 -19 117 -17 172 -48 297 -85 339 -17 19 -37 34 -47 34 -53 1 -278 111 -373 183 -40 30 -73 64 -79 82 -7 16 -15 102 -19 190 l-6 160 -2 -160z" transform="translate(564,-564) scale(1,1)" stroke="none" fill="#C8814D"/>
</g>
</g>
</g>

</g>
<g id="row3" transform="translate(0,3879.0)">
<g id="0" transform="translate(0.0,0)scale(0.25,0.25)">

<g id="pattern">
<rect width="5603" height="5603" fill="#4D3725"/>
<g id="pattern1" transform="matrix(1,0,0,1,349,349)">
<path d="M2 975 c-1 -178 0 -184 71 -269 44 -52 128 -103 282 -170 155 -67 155 -67 170 -96 20 -40 57 -236 64 -340 6 -89 7 -95 29 -98 15 -2 22 2 22 12 0 9 -4 16 -8 16 -4 0 -13 53 -19 117 -17 172 -48 297 -85 339 -17 19 -37 34 -47 34 -53 1 -278 111 -373 183 -40 30 -73 64 -79 82 -7 16 -15 102 -19 190 l-6 160 -2 -160z" transform="translate(0.000000,0.000000) scale(1,1)" stroke="none" fill="#C8814D"/>
</g>
<g id="pattern2" transform="matrix(0.618,0,0,0.618,2654,780)">
<path d="M2 975 c-1 -178 0 -184 71 -269 44 -52 128 -103 282 -170 155 -67 155 -67 170 -96 20 -40 57 -236 64 -340 6 -89 7 -95 29 -98 15 -2 22 2 22 12 0 9 -4 16 -8 16 -4 0 -13 53 -19 117 -17 172 -48 297 -85 339 -17 19 -37 34 -47 34 -53 1 -278 111 -373 183 -40 30 -73 64 -79 82 -7 16 -15 102 -19 190 l-6 160 -2 -160z" transform="translate(3516,0.000000) scale(-1,1)" stroke="none" fill="#C8814D"/>
</g>
<g id="pattern3" transform="matrix(0.618,0,0,0.618,995,3516)matrix(0.71,0.71,-0.71,0.71,0,0)">
<path d="M2 975 c-1 -178 0 -184 71 -269 44 -52 128 -103 282 -170 155 -67 155 -67 170 -96 20 -40 57 -236 64 -340 6 -89 7 -95 29 -98 15 -2 22 2 22 12 0 9 -4 16 -8 16 -4 0 -13 53 -19 117 -17 172 -48 297 -85 339 -17 19 -37 34 -47 34 -53 1 -278 111 -373 183 -40 30 -73 64 -79 82 -7 16 -15 102 -19 190 l-6 160 -2 -160z" transform="translate(564,-564) scale(1,1)" stroke="none" fill="#C8814D"/>
</g>
<g id="pattern4" transform="matrix(1.618,0,0,1.618,1475,1475)matrix(0.87,0.5,-0.5,0.87,0,0)">
<path d="M2 975 c-1 -178 0 -184 71 -269 44 -52 128 -103 282 -170 155 -67 155 -67 170 -96 20 -40 57 -236 64 -340 6 -89 7 -95 29 -98 15 -2 22 2 22 12 0 9 -4 16 -8 16 -4 0 -13 53 -19 117 -17 172 -48 297 -85 339 -17 19 -37 34 -47 34 -53 1 -278 111 -373 183 -40 30 -73 64 -79 82 -7 16 -15 102 -19 190 l-6 160 -2 -160z" transform="translate(564,-564) scale(1,1)" stroke="none" fill="#C8814D"/>
</g>
</g>
</g>

<g id="1" transform="translate(1293.0,0)scale(0.25,0.25)">

<g id="pattern">
<rect width="5603" height="5603" fill="#4D3725"/>
<g id="pattern1" transform="matrix(1,0,0,1,349,349)">
<path d="M2 975 c-1 -178 0 -184 71 -269 44 -52 128 -103 282 -170 155 -67 155 -67 170 -96 20 -40 57 -236 64 -340 6 -89 7 -95 29 -98 15 -2 22 2 22 12 0 9 -4 16 -8 16 -4 0 -13 53 -19 117 -17 172 -48 297 -85 339 -17 19 -37 34 -47 34 -53 1 -278 111 -373 183 -40 30 -73 64 -79 82 -7 16 -15 102 -19 190 l-6 160 -2 -160z" transform="translate(0.000000,0.000000) scale(1,1)" stroke="none" fill="#C8814D"/>
</g>
<g id="pattern2" transform="matrix(0.618,0,0,0.618,2654,780)">
<path d="M2 975 c-1 -178 0 -184 71 -269 44 -52 128 -103 282 -170 155 -67 155 -67 170 -96 20 -40 57 -236 64 -340 6 -89 7 -95 29 -98 15 -2 22 2 22 12 0 9 -4 16 -8 16 -4 0 -13 53 -19 117 -17 172 -48 297 -85 339 -17 19 -37 34 -47 34 -53 1 -278 111 -373 183 -40 30 -73 64 -79 82 -7 16 -15 102 -19 190 l-6 160 -2 -160z" transform="translate(3516,0.000000) scale(-1,1)" stroke="none" fill="#C8814D"/>
</g>
<g id="pattern3" transform="matrix(0.618,0,0,0.618,995,3516)matrix(0.71,0.71,-0.71,0.71,0,0)">
<path d="M2 975 c-1 -178 0 -184 71 -269 44 -52 128 -103 282 -170 155 -67 155 -67 170 -96 20 -40 57 -236 64 -340 6 -89 7 -95 29 -98 15 -2 22 2 22 12 0 9 -4 16 -8 16 -4 0 -13 53 -19 117 -17 172 -48 297 -85 339 -17 19 -37 34 -47 34 -53 1 -278 111 -373 183 -40 30 -73 64 -79 82 -7 16 -15 102 -19 190 l-6 160 -2 -160z" transform="translate(564,-564) scale(1,1)" stroke="none" fill="#C8814D"/>
</g>
<g id="pattern4" transform="matrix(1.618,0,0,1.618,1475,1475)matrix(0.87,0.5,-0.5,0.87,0,0)">
<path d="M2 975 c-1 -178 0 -184 71 -269 44 -52 128 -103 282 -170 155 -67 155 -67 170 -96 20 -40 57 -236 64 -340 6 -89 7 -95 29 -98 15 -2 22 2 22 12 0 9 -4 16 -8 16 -4 0 -13 53 -19 117 -17 172 -48 297 -85 339 -17 19 -37 34 -47 34 -53 1 -278 111 -373 183 -40 30 -73 64 -79 82 -7 16 -15 102 -19 190 l-6 160 -2 -160z" transform="translate(564,-564) scale(1,1)" stroke="none" fill="#C8814D"/>
</g>
</g>
</g>

<g id="2" transform="translate(2586.0,0)scale(0.25,0.25)">

<g id="pattern">
<rect width="5603" height="5603" fill="#4D3725"/>
<g id="pattern1" transform="matrix(1,0,0,1,349,349)">
<path d="M2 975 c-1 -178 0 -184 71 -269 44 -52 128 -103 282 -170 155 -67 155 -67 170 -96 20 -40 57 -236 64 -340 6 -89 7 -95 29 -98 15 -2 22 2 22 12 0 9 -4 16 -8 16 -4 0 -13 53 -19 117 -17 172 -48 297 -85 339 -17 19 -37 34 -47 34 -53 1 -278 111 -373 183 -40 30 -73 64 -79 82 -7 16 -15 102 -19 190 l-6 160 -2 -160z" transform="translate(0.000000,0.000000) scale(1,1)" stroke="none" fill="#C8814D"/>
</g>
<g id="pattern2" transform="matrix(0.618,0,0,0.618,2654,780)">
<path d="M2 975 c-1 -178 0 -184 71 -269 44 -52 128 -103 282 -170 155 -67 155 -67 170 -96 20 -40 57 -236 64 -340 6 -89 7 -95 29 -98 15 -2 22 2 22 12 0 9 -4 16 -8 16 -4 0 -13 53 -19 117 -17 172 -48 297 -85 339 -17 19 -37 34 -47 34 -53 1 -278 111 -373 183 -40 30 -73 64 -79 82 -7 16 -15 102 -19 190 l-6 160 -2 -160z" transform="translate(3516,0.000000) scale(-1,1)" stroke="none" fill="#C8814D"/>
</g>
<g id="pattern3" transform="matrix(0.618,0,0,0.618,995,3516)matrix(0.71,0.71,-0.71,0.71,0,0)">
<path d="M2 975 c-1 -178 0 -184 71 -269 44 -52 128 -103 282 -170 155 -67 155 -67 170 -96 20 -40 57 -236 64 -340 6 -89 7 -95 29 -98 15 -2 22 2 22 12 0 9 -4 16 -8 16 -4 0 -13 53 -19 117 -17 172 -48 297 -85 339 -17 19 -37 34 -47 34 -53 1 -278 111 -373 183 -40 30 -73 64 -79 82 -7 16 -15 102 -19 190 l-6 160 -2 -160z" transform="translate(564,-564) scale(1,1)" stroke="none" fill="#C8814D"/>
</g>
<g id="pattern4" transform="matrix(1.618,0,0,1.618,1475,1475)matrix(0.87,0.5,-0.5,0.87,0,0)">
<path d="M2 975 c-1 -178 0 -184 71 -269 44 -52 128 -103 282 -170 155 -67 155 -67 170 -96 20 -40 57 -236 64 -340 6 -89 7 -95 29 -98 15 -2 22 2 22 12 0 9 -4 16 -8 16 -4 0 -13 53 -19 117 -17 172 -48 297 -85 339 -17 19 -37 34 -47 34 -53 1 -278 111 -373 183 -40 30 -73 64 -79 82 -7 16 -15 102 -19 190 l-6 160 -2 -160z" transform="translate(564,-564) scale(1,1)" stroke="none" fill="#C8814D"/>
</g>
</g>
</g>

<g id="3" transform="translate(3879.0,0)scale(0.25,0.25)">

<g id="pattern">
<rect width="5603" height="5603" fill="#4D3725"/>
<g id="pattern1" transform="matrix(1,0,0,1,349,349)">
<path d="M2 975 c-1 -178 0 -184 71 -269 44 -52 128 -103 282 -170 155 -67 155 -67 170 -96 20 -40 57 -236 64 -340 6 -89 7 -95 29 -98 15 -2 22 2 22 12 0 9 -4 16 -8 16 -4 0 -13 53 -19 117 -17 172 -48 297 -85 339 -17 19 -37 34 -47 34 -53 1 -278 111 -373 183 -40 30 -73 64 -79 82 -7 16 -15 102 -19 190 l-6 160 -2 -160z" transform="translate(0.000000,0.000000) scale(1,1)" stroke="none" fill="#C8814D"/>
</g>
<g id="pattern2" transform="matrix(0.618,0,0,0.618,2654,780)">
<path d="M2 975 c-1 -178 0 -184 71 -269 44 -52 128 -103 282 -170 155 -67 155 -67 170 -96 20 -40 57 -236 64 -340 6 -89 7 -95 29 -98 15 -2 22 2 22 12 0 9 -4 16 -8 16 -4 0 -13 53 -19 117 -17 172 -48 297 -85 339 -17 19 -37 34 -47 34 -53 1 -278 111 -373 183 -40 30 -73 64 -79 82 -7 16 -15 102 -19 190 l-6 160 -2 -160z" transform="translate(3516,0.000000) scale(-1,1)" stroke="none" fill="#C8814D"/>
</g>
<g id="pattern3" transform="matrix(0.618,0,0,0.618,995,3516)matrix(0.71,0.71,-0.71,0.71,0,0)">
<path d="M2 975 c-1 -178 0 -184 71 -269 44 -52 128 -103 282 -170 155 -67 155 -67 170 -96 20 -40 57 -236 64 -340 6 -89 7 -95 29 -98 15 -2 22 2 22 12 0 9 -4 16 -8 16 -4 0 -13 53 -19 117 -17 172 -48 297 -85 339 -17 19 -37 34 -47 34 -53 1 -278 111 -373 183 -40 30 -73 64 -79 82 -7 16 -15 102 -19 190 l-6 160 -2 -160z" transform="translate(564,-564) scale(1,1)" stroke="none" fill="#C8814D"/>
</g>
<g id="pattern4" transform="matrix(1.618,0,0,1.618,1475,1475)matrix(0.87,0.5,-0.5,0.87,0,0)">
<path d="M2 975 c-1 -178 0 -184 71 -269 44 -52 128 -103 282 -170 155 -67 155 -67 170 -96 20 -40 57 -236 64 -340 6 -89 7 -95 29 -98 15 -2 22 2 22 12 0 9 -4 16 -8 16 -4 0 -13 53 -19 117 -17 172 -48 297 -85 339 -17 19 -37 34 -47 34 -53 1 -278 111 -373 183 -40 30 -73 64 -79 82 -7 16 -15 102 -19 190 l-6 160 -2 -160z" transform="translate(564,-564) scale(1,1)" stroke="none" fill="#C8814D"/>
</g>
</g>
</g>

<g id="4" transform="translate(5172.0,0)scale(0.25,0.25)">

<g id="pattern">
<rect width="5603" height="5603" fill="#4D3725"/>
<g id="pattern1" transform="matrix(1,0,0,1,349,349)">
<path d="M2 975 c-1 -178 0 -184 71 -269 44 -52 128 -103 282 -170 155 -67 155 -67 170 -96 20 -40 57 -236 64 -340 6 -89 7 -95 29 -98 15 -2 22 2 22 12 0 9 -4 16 -8 16 -4 0 -13 53 -19 117 -17 172 -48 297 -85 339 -17 19 -37 34 -47 34 -53 1 -278 111 -373 183 -40 30 -73 64 -79 82 -7 16 -15 102 -19 190 l-6 160 -2 -160z" transform="translate(0.000000,0.000000) scale(1,1)" stroke="none" fill="#C8814D"/>
</g>
<g id="pattern2" transform="matrix(0.618,0,0,0.618,2654,780)">
<path d="M2 975 c-1 -178 0 -184 71 -269 44 -52 128 -103 282 -170 155 -67 155 -67 170 -96 20 -40 57 -236 64 -340 6 -89 7 -95 29 -98 15 -2 22 2 22 12 0 9 -4 16 -8 16 -4 0 -13 53 -19 117 -17 172 -48 297 -85 339 -17 19 -37 34 -47 34 -53 1 -278 111 -373 183 -40 30 -73 64 -79 82 -7 16 -15 102 -19 190 l-6 160 -2 -160z" transform="translate(3516,0.000000) scale(-1,1)" stroke="none" fill="#C8814D"/>
</g>
<g id="pattern3" transform="matrix(0.618,0,0,0.618,995,3516)matrix(0.71,0.71,-0.71,0.71,0,0)">
<path d="M2 975 c-1 -178 0 -184 71 -269 44 -52 128 -103 282 -170 155 -67 155 -67 170 -96 20 -40 57 -236 64 -340 6 -89 7 -95 29 -98 15 -2 22 2 22 12 0 9 -4 16 -8 16 -4 0 -13 53 -19 117 -17 172 -48 297 -85 339 -17 19 -37 34 -47 34 -53 1 -278 111 -373 183 -40 30 -73 64 -79 82 -7 16 -15 102 -19 190 l-6 160 -2 -160z" transform="translate(564,-564) scale(1,1)" stroke="none" fill="#C8814D"/>
</g>
<g id="pattern4" transform="matrix(1.618,0,0,1.618,1475,1475)matrix(0.87,0.5,-0.5,0.87,0,0)">
<path d="M2 975 c-1 -178 0 -184 71 -269 44 -52 128 -103 282 -170 155 -67 155 -67 170 -96 20 -40 57 -236 64 -340 6 -89 7 -95 29 -98 15 -2 22 2 22 12 0 9 -4 16 -8 16 -4 0 -13 53 -19 117 -17 172 -48 297 -85 339 -17 19 -37 34 -47 34 -53 1 -278 111 -373 183 -40 30 -73 64 -79 82 -7 16 -15 102 -19 190 l-6 160 -2 -160z" transform="translate(564,-564) scale(1,1)" stroke="none" fill="#C8814D"/>
</g>
</g>
</g>

</g>
</svg>