<?xml version="1.0" standalone="no"?>
<!DOCTYPE svg PUBLIC "-//W3C//DTD SVG 20010904//EN"
 "http://www.w3.org/TR/2001/REC-SVG-20010904/DTD/svg10.dtd">
<svg version="1.0" xmlns="http://www.w3.org/2000/svg" width="552pt" height="552pt" viewBox="0 0 552 552" preserveAspectRatio = "xMidYMid meet" >
<metadata>
Created by ZoeQu, written in 2022
</metadata>
<rect width="552" height="552" fill="#DDDEE6"/>
<g id="row0" transform="translate(18,0.0)">
<g id="0" transform="translate(0.0,0)scale(1,1)">

<path d="M755 1153 c-34 -73 -55 -151 -55 -208 l0 -45 -54 0 c-65 0 -102 -12 -137 -46 l-26 -25 -64 44 c-83 57 -191 110 -215 105 -12 -2 12 -18 69 -46 85 -43 170 -99 194 -130 7 -8 10 -25 7 -38 -7 -29 25 -99 66 -143 32 -34 140 -80 187 -81 44 0 74 -97 75 -238 0 -59 -2 -113 -4 -121 -1 -7 2 -15 9 -18 25 -9 29 256 3 306 -36 72 -36 91 -1 91 9 0 29 12 43 28 91 94 50 198 -118 298 -17 10 -17 16 -5 95 8 46 17 91 21 99 4 8 17 35 29 58 11 24 21 50 21 58 0 30 -19 12 -45 -43z" transform="translate(0,138) scale(0.1,-0.1)" stroke="none" fill="#B9CF64"/>

<path d="M685 1279 c-76 -40 -145 -140 -145 -211 0 -26 -10 -23 -78 22 -162 108 -365 50 -402 -114 -22 -97 6 -172 93 -254 45 -42 52 -64 21 -76 -8 -3 -28 -34 -44 -68 -25 -53 -30 -75 -30 -141 0 -71 3 -83 30 -122 16 -23 53 -60 82 -81 l53 -38 105 -1 c103 0 107 1 175 38 38 20 75 37 81 37 6 0 19 -21 29 -47 33 -86 110 -143 194 -143 58 0 103 25 140 80 l33 48 -4 109 c-2 59 -6 115 -9 123 -3 11 12 16 66 22 115 14 179 56 216 141 19 45 21 63 16 134 -5 70 -11 90 -36 126 -50 73 -154 113 -268 103 l-74 -7 8 38 c4 21 7 71 6 111 -2 87 -30 145 -83 174 -47 25 -125 24 -175 -3z m115 -83 c0 -8 -10 -34 -21 -58 -12 -23 -25 -50 -29 -58 -4 -8 -13 -53 -21 -99 -12 -79 -12 -85 5 -95 104 -62 166 -133 166 -189 0 -57 -53 -137 -91 -137 -35 0 -35 -19 1 -91 26 -50 22 -315 -3 -306 -7 3 -10 11 -9 18 2 8 4 62 4 121 -1 141 -31 238 -75 238 -47 1 -155 47 -187 81 -41 44 -73 114 -66 143 3 13 0 30 -7 38 -24 31 -109 87 -194 130 -57 28 -81 44 -69 46 24 5 132 -48 215 -105 l64 -44 26 25 c35 34 72 46 137 46 l54 0 0 45 c0 57 21 135 55 208 26 55 45 73 45 43z m-260 -626 c0 -5 -4 -10 -10 -10 -5 0 -10 5 -10 10 0 6 5 10 10 10 6 0 10 -4 10 -10z m-76 -41 c-16 -12 -66 -60 -111 -107 -46 -47 -85 -83 -89 -80 -3 4 6 19 19 35 14 15 38 43 54 60 31 37 145 124 152 118 2 -3 -9 -14 -25 -26z" transform="translate(0,138) scale(0.1,-0.1)" stroke="none" fill="#A798B9"/>

</g>

<g id="1" transform="translate(138.0,0)scale(1,1)">

<path d="M755 1153 c-34 -73 -55 -151 -55 -208 l0 -45 -54 0 c-65 0 -102 -12 -137 -46 l-26 -25 -64 44 c-83 57 -191 110 -215 105 -12 -2 12 -18 69 -46 85 -43 170 -99 194 -130 7 -8 10 -25 7 -38 -7 -29 25 -99 66 -143 32 -34 140 -80 187 -81 44 0 74 -97 75 -238 0 -59 -2 -113 -4 -121 -1 -7 2 -15 9 -18 25 -9 29 256 3 306 -36 72 -36 91 -1 91 9 0 29 12 43 28 91 94 50 198 -118 298 -17 10 -17 16 -5 95 8 46 17 91 21 99 4 8 17 35 29 58 11 24 21 50 21 58 0 30 -19 12 -45 -43z" transform="translate(0,138) scale(0.1,-0.1)" stroke="none" fill="#B9CF64"/>

<path d="M685 1279 c-76 -40 -145 -140 -145 -211 0 -26 -10 -23 -78 22 -162 108 -365 50 -402 -114 -22 -97 6 -172 93 -254 45 -42 52 -64 21 -76 -8 -3 -28 -34 -44 -68 -25 -53 -30 -75 -30 -141 0 -71 3 -83 30 -122 16 -23 53 -60 82 -81 l53 -38 105 -1 c103 0 107 1 175 38 38 20 75 37 81 37 6 0 19 -21 29 -47 33 -86 110 -143 194 -143 58 0 103 25 140 80 l33 48 -4 109 c-2 59 -6 115 -9 123 -3 11 12 16 66 22 115 14 179 56 216 141 19 45 21 63 16 134 -5 70 -11 90 -36 126 -50 73 -154 113 -268 103 l-74 -7 8 38 c4 21 7 71 6 111 -2 87 -30 145 -83 174 -47 25 -125 24 -175 -3z m115 -83 c0 -8 -10 -34 -21 -58 -12 -23 -25 -50 -29 -58 -4 -8 -13 -53 -21 -99 -12 -79 -12 -85 5 -95 104 -62 166 -133 166 -189 0 -57 -53 -137 -91 -137 -35 0 -35 -19 1 -91 26 -50 22 -315 -3 -306 -7 3 -10 11 -9 18 2 8 4 62 4 121 -1 141 -31 238 -75 238 -47 1 -155 47 -187 81 -41 44 -73 114 -66 143 3 13 0 30 -7 38 -24 31 -109 87 -194 130 -57 28 -81 44 -69 46 24 5 132 -48 215 -105 l64 -44 26 25 c35 34 72 46 137 46 l54 0 0 45 c0 57 21 135 55 208 26 55 45 73 45 43z m-260 -626 c0 -5 -4 -10 -10 -10 -5 0 -10 5 -10 10 0 6 5 10 10 10 6 0 10 -4 10 -10z m-76 -41 c-16 -12 -66 -60 -111 -107 -46 -47 -85 -83 -89 -80 -3 4 6 19 19 35 14 15 38 43 54 60 31 37 145 124 152 118 2 -3 -9 -14 -25 -26z" transform="translate(0,138) scale(0.1,-0.1)" stroke="none" fill="#A798B9"/>

</g>

<g id="2" transform="translate(276.0,0)scale(1,1)">

<path d="M755 1153 c-34 -73 -55 -151 -55 -208 l0 -45 -54 0 c-65 0 -102 -12 -137 -46 l-26 -25 -64 44 c-83 57 -191 110 -215 105 -12 -2 12 -18 69 -46 85 -43 170 -99 194 -130 7 -8 10 -25 7 -38 -7 -29 25 -99 66 -143 32 -34 140 -80 187 -81 44 0 74 -97 75 -238 0 -59 -2 -113 -4 -121 -1 -7 2 -15 9 -18 25 -9 29 256 3 306 -36 72 -36 91 -1 91 9 0 29 12 43 28 91 94 50 198 -118 298 -17 10 -17 16 -5 95 8 46 17 91 21 99 4 8 17 35 29 58 11 24 21 50 21 58 0 30 -19 12 -45 -43z" transform="translate(0,138) scale(0.1,-0.1)" stroke="none" fill="#B9CF64"/>

<path d="M685 1279 c-76 -40 -145 -140 -145 -211 0 -26 -10 -23 -78 22 -162 108 -365 50 -402 -114 -22 -97 6 -172 93 -254 45 -42 52 -64 21 -76 -8 -3 -28 -34 -44 -68 -25 -53 -30 -75 -30 -141 0 -71 3 -83 30 -122 16 -23 53 -60 82 -81 l53 -38 105 -1 c103 0 107 1 175 38 38 20 75 37 81 37 6 0 19 -21 29 -47 33 -86 110 -143 194 -143 58 0 103 25 140 80 l33 48 -4 109 c-2 59 -6 115 -9 123 -3 11 12 16 66 22 115 14 179 56 216 141 19 45 21 63 16 134 -5 70 -11 90 -36 126 -50 73 -154 113 -268 103 l-74 -7 8 38 c4 21 7 71 6 111 -2 87 -30 145 -83 174 -47 25 -125 24 -175 -3z m115 -83 c0 -8 -10 -34 -21 -58 -12 -23 -25 -50 -29 -58 -4 -8 -13 -53 -21 -99 -12 -79 -12 -85 5 -95 104 -62 166 -133 166 -189 0 -57 -53 -137 -91 -137 -35 0 -35 -19 1 -91 26 -50 22 -315 -3 -306 -7 3 -10 11 -9 18 2 8 4 62 4 121 -1 141 -31 238 -75 238 -47 1 -155 47 -187 81 -41 44 -73 114 -66 143 3 13 0 30 -7 38 -24 31 -109 87 -194 130 -57 28 -81 44 -69 46 24 5 132 -48 215 -105 l64 -44 26 25 c35 34 72 46 137 46 l54 0 0 45 c0 57 21 135 55 208 26 55 45 73 45 43z m-260 -626 c0 -5 -4 -10 -10 -10 -5 0 -10 5 -10 10 0 6 5 10 10 10 6 0 10 -4 10 -10z m-76 -41 c-16 -12 -66 -60 -111 -107 -46 -47 -85 -83 -89 -80 -3 4 6 19 19 35 14 15 38 43 54 60 31 37 145 124 152 118 2 -3 -9 -14 -25 -26z" transform="translate(0,138) scale(0.1,-0.1)" stroke="none" fill="#A798B9"/>

</g>

<g id="3" transform="translate(414.0,0)scale(1,1)">

<path d="M755 1153 c-34 -73 -55 -151 -55 -208 l0 -45 -54 0 c-65 0 -102 -12 -137 -46 l-26 -25 -64 44 c-83 57 -191 110 -215 105 -12 -2 12 -18 69 -46 85 -43 170 -99 194 -130 7 -8 10 -25 7 -38 -7 -29 25 -99 66 -143 32 -34 140 -80 187 -81 44 0 74 -97 75 -238 0 -59 -2 -113 -4 -121 -1 -7 2 -15 9 -18 25 -9 29 256 3 306 -36 72 -36 91 -1 91 9 0 29 12 43 28 91 94 50 198 -118 298 -17 10 -17 16 -5 95 8 46 17 91 21 99 4 8 17 35 29 58 11 24 21 50 21 58 0 30 -19 12 -45 -43z" transform="translate(0,138) scale(0.1,-0.1)" stroke="none" fill="#B9CF64"/>

<path d="M685 1279 c-76 -40 -145 -140 -145 -211 0 -26 -10 -23 -78 22 -162 108 -365 50 -402 -114 -22 -97 6 -172 93 -254 45 -42 52 -64 21 -76 -8 -3 -28 -34 -44 -68 -25 -53 -30 -75 -30 -141 0 -71 3 -83 30 -122 16 -23 53 -60 82 -81 l53 -38 105 -1 c103 0 107 1 175 38 38 20 75 37 81 37 6 0 19 -21 29 -47 33 -86 110 -143 194 -143 58 0 103 25 140 80 l33 48 -4 109 c-2 59 -6 115 -9 123 -3 11 12 16 66 22 115 14 179 56 216 141 19 45 21 63 16 134 -5 70 -11 90 -36 126 -50 73 -154 113 -268 103 l-74 -7 8 38 c4 21 7 71 6 111 -2 87 -30 145 -83 174 -47 25 -125 24 -175 -3z m115 -83 c0 -8 -10 -34 -21 -58 -12 -23 -25 -50 -29 -58 -4 -8 -13 -53 -21 -99 -12 -79 -12 -85 5 -95 104 -62 166 -133 166 -189 0 -57 -53 -137 -91 -137 -35 0 -35 -19 1 -91 26 -50 22 -315 -3 -306 -7 3 -10 11 -9 18 2 8 4 62 4 121 -1 141 -31 238 -75 238 -47 1 -155 47 -187 81 -41 44 -73 114 -66 143 3 13 0 30 -7 38 -24 31 -109 87 -194 130 -57 28 -81 44 -69 46 24 5 132 -48 215 -105 l64 -44 26 25 c35 34 72 46 137 46 l54 0 0 45 c0 57 21 135 55 208 26 55 45 73 45 43z m-260 -626 c0 -5 -4 -10 -10 -10 -5 0 -10 5 -10 10 0 6 5 10 10 10 6 0 10 -4 10 -10z m-76 -41 c-16 -12 -66 -60 -111 -107 -46 -47 -85 -83 -89 -80 -3 4 6 19 19 35 14 15 38 43 54 60 31 37 145 124 152 118 2 -3 -9 -14 -25 -26z" transform="translate(0,138) scale(0.1,-0.1)" stroke="none" fill="#A798B9"/>

</g>

<g id="4" transform="translate(552.0,0)scale(1,1)">

<path d="M755 1153 c-34 -73 -55 -151 -55 -208 l0 -45 -54 0 c-65 0 -102 -12 -137 -46 l-26 -25 -64 44 c-83 57 -191 110 -215 105 -12 -2 12 -18 69 -46 85 -43 170 -99 194 -130 7 -8 10 -25 7 -38 -7 -29 25 -99 66 -143 32 -34 140 -80 187 -81 44 0 74 -97 75 -238 0 -59 -2 -113 -4 -121 -1 -7 2 -15 9 -18 25 -9 29 256 3 306 -36 72 -36 91 -1 91 9 0 29 12 43 28 91 94 50 198 -118 298 -17 10 -17 16 -5 95 8 46 17 91 21 99 4 8 17 35 29 58 11 24 21 50 21 58 0 30 -19 12 -45 -43z" transform="translate(0,138) scale(0.1,-0.1)" stroke="none" fill="#B9CF64"/>

<path d="M685 1279 c-76 -40 -145 -140 -145 -211 0 -26 -10 -23 -78 22 -162 108 -365 50 -402 -114 -22 -97 6 -172 93 -254 45 -42 52 -64 21 -76 -8 -3 -28 -34 -44 -68 -25 -53 -30 -75 -30 -141 0 -71 3 -83 30 -122 16 -23 53 -60 82 -81 l53 -38 105 -1 c103 0 107 1 175 38 38 20 75 37 81 37 6 0 19 -21 29 -47 33 -86 110 -143 194 -143 58 0 103 25 140 80 l33 48 -4 109 c-2 59 -6 115 -9 123 -3 11 12 16 66 22 115 14 179 56 216 141 19 45 21 63 16 134 -5 70 -11 90 -36 126 -50 73 -154 113 -268 103 l-74 -7 8 38 c4 21 7 71 6 111 -2 87 -30 145 -83 174 -47 25 -125 24 -175 -3z m115 -83 c0 -8 -10 -34 -21 -58 -12 -23 -25 -50 -29 -58 -4 -8 -13 -53 -21 -99 -12 -79 -12 -85 5 -95 104 -62 166 -133 166 -189 0 -57 -53 -137 -91 -137 -35 0 -35 -19 1 -91 26 -50 22 -315 -3 -306 -7 3 -10 11 -9 18 2 8 4 62 4 121 -1 141 -31 238 -75 238 -47 1 -155 47 -187 81 -41 44 -73 114 -66 143 3 13 0 30 -7 38 -24 31 -109 87 -194 130 -57 28 -81 44 -69 46 24 5 132 -48 215 -105 l64 -44 26 25 c35 34 72 46 137 46 l54 0 0 45 c0 57 21 135 55 208 26 55 45 73 45 43z m-260 -626 c0 -5 -4 -10 -10 -10 -5 0 -10 5 -10 10 0 6 5 10 10 10 6 0 10 -4 10 -10z m-76 -41 c-16 -12 -66 -60 -111 -107 -46 -47 -85 -83 -89 -80 -3 4 6 19 19 35 14 15 38 43 54 60 31 37 145 124 152 118 2 -3 -9 -14 -25 -26z" transform="translate(0,138) scale(0.1,-0.1)" stroke="none" fill="#A798B9"/>

</g>

</g>
<g id="row1" transform="translate(18,138.0)">
<g id="0" transform="translate(0.0,0)scale(1,1)">

<path d="M755 1153 c-34 -73 -55 -151 -55 -208 l0 -45 -54 0 c-65 0 -102 -12 -137 -46 l-26 -25 -64 44 c-83 57 -191 110 -215 105 -12 -2 12 -18 69 -46 85 -43 170 -99 194 -130 7 -8 10 -25 7 -38 -7 -29 25 -99 66 -143 32 -34 140 -80 187 -81 44 0 74 -97 75 -238 0 -59 -2 -113 -4 -121 -1 -7 2 -15 9 -18 25 -9 29 256 3 306 -36 72 -36 91 -1 91 9 0 29 12 43 28 91 94 50 198 -118 298 -17 10 -17 16 -5 95 8 46 17 91 21 99 4 8 17 35 29 58 11 24 21 50 21 58 0 30 -19 12 -45 -43z" transform="translate(0,138) scale(0.1,-0.1)" stroke="none" fill="#B9CF64"/>

<path d="M685 1279 c-76 -40 -145 -140 -145 -211 0 -26 -10 -23 -78 22 -162 108 -365 50 -402 -114 -22 -97 6 -172 93 -254 45 -42 52 -64 21 -76 -8 -3 -28 -34 -44 -68 -25 -53 -30 -75 -30 -141 0 -71 3 -83 30 -122 16 -23 53 -60 82 -81 l53 -38 105 -1 c103 0 107 1 175 38 38 20 75 37 81 37 6 0 19 -21 29 -47 33 -86 110 -143 194 -143 58 0 103 25 140 80 l33 48 -4 109 c-2 59 -6 115 -9 123 -3 11 12 16 66 22 115 14 179 56 216 141 19 45 21 63 16 134 -5 70 -11 90 -36 126 -50 73 -154 113 -268 103 l-74 -7 8 38 c4 21 7 71 6 111 -2 87 -30 145 -83 174 -47 25 -125 24 -175 -3z m115 -83 c0 -8 -10 -34 -21 -58 -12 -23 -25 -50 -29 -58 -4 -8 -13 -53 -21 -99 -12 -79 -12 -85 5 -95 104 -62 166 -133 166 -189 0 -57 -53 -137 -91 -137 -35 0 -35 -19 1 -91 26 -50 22 -315 -3 -306 -7 3 -10 11 -9 18 2 8 4 62 4 121 -1 141 -31 238 -75 238 -47 1 -155 47 -187 81 -41 44 -73 114 -66 143 3 13 0 30 -7 38 -24 31 -109 87 -194 130 -57 28 -81 44 -69 46 24 5 132 -48 215 -105 l64 -44 26 25 c35 34 72 46 137 46 l54 0 0 45 c0 57 21 135 55 208 26 55 45 73 45 43z m-260 -626 c0 -5 -4 -10 -10 -10 -5 0 -10 5 -10 10 0 6 5 10 10 10 6 0 10 -4 10 -10z m-76 -41 c-16 -12 -66 -60 -111 -107 -46 -47 -85 -83 -89 -80 -3 4 6 19 19 35 14 15 38 43 54 60 31 37 145 124 152 118 2 -3 -9 -14 -25 -26z" transform="translate(0,138) scale(0.1,-0.1)" stroke="none" fill="#A798B9"/>

</g>

<g id="1" transform="translate(138.0,0)scale(1,1)">

<path d="M755 1153 c-34 -73 -55 -151 -55 -208 l0 -45 -54 0 c-65 0 -102 -12 -137 -46 l-26 -25 -64 44 c-83 57 -191 110 -215 105 -12 -2 12 -18 69 -46 85 -43 170 -99 194 -130 7 -8 10 -25 7 -38 -7 -29 25 -99 66 -143 32 -34 140 -80 187 -81 44 0 74 -97 75 -238 0 -59 -2 -113 -4 -121 -1 -7 2 -15 9 -18 25 -9 29 256 3 306 -36 72 -36 91 -1 91 9 0 29 12 43 28 91 94 50 198 -118 298 -17 10 -17 16 -5 95 8 46 17 91 21 99 4 8 17 35 29 58 11 24 21 50 21 58 0 30 -19 12 -45 -43z" transform="translate(0,138) scale(0.1,-0.1)" stroke="none" fill="#B9CF64"/>

<path d="M685 1279 c-76 -40 -145 -140 -145 -211 0 -26 -10 -23 -78 22 -162 108 -365 50 -402 -114 -22 -97 6 -172 93 -254 45 -42 52 -64 21 -76 -8 -3 -28 -34 -44 -68 -25 -53 -30 -75 -30 -141 0 -71 3 -83 30 -122 16 -23 53 -60 82 -81 l53 -38 105 -1 c103 0 107 1 175 38 38 20 75 37 81 37 6 0 19 -21 29 -47 33 -86 110 -143 194 -143 58 0 103 25 140 80 l33 48 -4 109 c-2 59 -6 115 -9 123 -3 11 12 16 66 22 115 14 179 56 216 141 19 45 21 63 16 134 -5 70 -11 90 -36 126 -50 73 -154 113 -268 103 l-74 -7 8 38 c4 21 7 71 6 111 -2 87 -30 145 -83 174 -47 25 -125 24 -175 -3z m115 -83 c0 -8 -10 -34 -21 -58 -12 -23 -25 -50 -29 -58 -4 -8 -13 -53 -21 -99 -12 -79 -12 -85 5 -95 104 -62 166 -133 166 -189 0 -57 -53 -137 -91 -137 -35 0 -35 -19 1 -91 26 -50 22 -315 -3 -306 -7 3 -10 11 -9 18 2 8 4 62 4 121 -1 141 -31 238 -75 238 -47 1 -155 47 -187 81 -41 44 -73 114 -66 143 3 13 0 30 -7 38 -24 31 -109 87 -194 130 -57 28 -81 44 -69 46 24 5 132 -48 215 -105 l64 -44 26 25 c35 34 72 46 137 46 l54 0 0 45 c0 57 21 135 55 208 26 55 45 73 45 43z m-260 -626 c0 -5 -4 -10 -10 -10 -5 0 -10 5 -10 10 0 6 5 10 10 10 6 0 10 -4 10 -10z m-76 -41 c-16 -12 -66 -60 -111 -107 -46 -47 -85 -83 -89 -80 -3 4 6 19 19 35 14 15 38 43 54 60 31 37 145 124 152 118 2 -3 -9 -14 -25 -26z" transform="translate(0,138) scale(0.1,-0.1)" stroke="none" fill="#A798B9"/>

</g>

<g id="2" transform="translate(276.0,0)scale(1,1)">

<path d="M755 1153 c-34 -73 -55 -151 -55 -208 l0 -45 -54 0 c-65 0 -102 -12 -137 -46 l-26 -25 -64 44 c-83 57 -191 110 -215 105 -12 -2 12 -18 69 -46 85 -43 170 -99 194 -130 7 -8 10 -25 7 -38 -7 -29 25 -99 66 -143 32 -34 140 -80 187 -81 44 0 74 -97 75 -238 0 -59 -2 -113 -4 -121 -1 -7 2 -15 9 -18 25 -9 29 256 3 306 -36 72 -36 91 -1 91 9 0 29 12 43 28 91 94 50 198 -118 298 -17 10 -17 16 -5 95 8 46 17 91 21 99 4 8 17 35 29 58 11 24 21 50 21 58 0 30 -19 12 -45 -43z" transform="translate(0,138) scale(0.1,-0.1)" stroke="none" fill="#B9CF64"/>

<path d="M685 1279 c-76 -40 -145 -140 -145 -211 0 -26 -10 -23 -78 22 -162 108 -365 50 -402 -114 -22 -97 6 -172 93 -254 45 -42 52 -64 21 -76 -8 -3 -28 -34 -44 -68 -25 -53 -30 -75 -30 -141 0 -71 3 -83 30 -122 16 -23 53 -60 82 -81 l53 -38 105 -1 c103 0 107 1 175 38 38 20 75 37 81 37 6 0 19 -21 29 -47 33 -86 110 -143 194 -143 58 0 103 25 140 80 l33 48 -4 109 c-2 59 -6 115 -9 123 -3 11 12 16 66 22 115 14 179 56 216 141 19 45 21 63 16 134 -5 70 -11 90 -36 126 -50 73 -154 113 -268 103 l-74 -7 8 38 c4 21 7 71 6 111 -2 87 -30 145 -83 174 -47 25 -125 24 -175 -3z m115 -83 c0 -8 -10 -34 -21 -58 -12 -23 -25 -50 -29 -58 -4 -8 -13 -53 -21 -99 -12 -79 -12 -85 5 -95 104 -62 166 -133 166 -189 0 -57 -53 -137 -91 -137 -35 0 -35 -19 1 -91 26 -50 22 -315 -3 -306 -7 3 -10 11 -9 18 2 8 4 62 4 121 -1 141 -31 238 -75 238 -47 1 -155 47 -187 81 -41 44 -73 114 -66 143 3 13 0 30 -7 38 -24 31 -109 87 -194 130 -57 28 -81 44 -69 46 24 5 132 -48 215 -105 l64 -44 26 25 c35 34 72 46 137 46 l54 0 0 45 c0 57 21 135 55 208 26 55 45 73 45 43z m-260 -626 c0 -5 -4 -10 -10 -10 -5 0 -10 5 -10 10 0 6 5 10 10 10 6 0 10 -4 10 -10z m-76 -41 c-16 -12 -66 -60 -111 -107 -46 -47 -85 -83 -89 -80 -3 4 6 19 19 35 14 15 38 43 54 60 31 37 145 124 152 118 2 -3 -9 -14 -25 -26z" transform="translate(0,138) scale(0.1,-0.1)" stroke="none" fill="#A798B9"/>

</g>

<g id="3" transform="translate(414.0,0)scale(1,1)">

<path d="M755 1153 c-34 -73 -55 -151 -55 -208 l0 -45 -54 0 c-65 0 -102 -12 -137 -46 l-26 -25 -64 44 c-83 57 -191 110 -215 105 -12 -2 12 -18 69 -46 85 -43 170 -99 194 -130 7 -8 10 -25 7 -38 -7 -29 25 -99 66 -143 32 -34 140 -80 187 -81 44 0 74 -97 75 -238 0 -59 -2 -113 -4 -121 -1 -7 2 -15 9 -18 25 -9 29 256 3 306 -36 72 -36 91 -1 91 9 0 29 12 43 28 91 94 50 198 -118 298 -17 10 -17 16 -5 95 8 46 17 91 21 99 4 8 17 35 29 58 11 24 21 50 21 58 0 30 -19 12 -45 -43z" transform="translate(0,138) scale(0.1,-0.1)" stroke="none" fill="#B9CF64"/>

<path d="M685 1279 c-76 -40 -145 -140 -145 -211 0 -26 -10 -23 -78 22 -162 108 -365 50 -402 -114 -22 -97 6 -172 93 -254 45 -42 52 -64 21 -76 -8 -3 -28 -34 -44 -68 -25 -53 -30 -75 -30 -141 0 -71 3 -83 30 -122 16 -23 53 -60 82 -81 l53 -38 105 -1 c103 0 107 1 175 38 38 20 75 37 81 37 6 0 19 -21 29 -47 33 -86 110 -143 194 -143 58 0 103 25 140 80 l33 48 -4 109 c-2 59 -6 115 -9 123 -3 11 12 16 66 22 115 14 179 56 216 141 19 45 21 63 16 134 -5 70 -11 90 -36 126 -50 73 -154 113 -268 103 l-74 -7 8 38 c4 21 7 71 6 111 -2 87 -30 145 -83 174 -47 25 -125 24 -175 -3z m115 -83 c0 -8 -10 -34 -21 -58 -12 -23 -25 -50 -29 -58 -4 -8 -13 -53 -21 -99 -12 -79 -12 -85 5 -95 104 -62 166 -133 166 -189 0 -57 -53 -137 -91 -137 -35 0 -35 -19 1 -91 26 -50 22 -315 -3 -306 -7 3 -10 11 -9 18 2 8 4 62 4 121 -1 141 -31 238 -75 238 -47 1 -155 47 -187 81 -41 44 -73 114 -66 143 3 13 0 30 -7 38 -24 31 -109 87 -194 130 -57 28 -81 44 -69 46 24 5 132 -48 215 -105 l64 -44 26 25 c35 34 72 46 137 46 l54 0 0 45 c0 57 21 135 55 208 26 55 45 73 45 43z m-260 -626 c0 -5 -4 -10 -10 -10 -5 0 -10 5 -10 10 0 6 5 10 10 10 6 0 10 -4 10 -10z m-76 -41 c-16 -12 -66 -60 -111 -107 -46 -47 -85 -83 -89 -80 -3 4 6 19 19 35 14 15 38 43 54 60 31 37 145 124 152 118 2 -3 -9 -14 -25 -26z" transform="translate(0,138) scale(0.1,-0.1)" stroke="none" fill="#A798B9"/>

</g>

<g id="4" transform="translate(552.0,0)scale(1,1)">

<path d="M755 1153 c-34 -73 -55 -151 -55 -208 l0 -45 -54 0 c-65 0 -102 -12 -137 -46 l-26 -25 -64 44 c-83 57 -191 110 -215 105 -12 -2 12 -18 69 -46 85 -43 170 -99 194 -130 7 -8 10 -25 7 -38 -7 -29 25 -99 66 -143 32 -34 140 -80 187 -81 44 0 74 -97 75 -238 0 -59 -2 -113 -4 -121 -1 -7 2 -15 9 -18 25 -9 29 256 3 306 -36 72 -36 91 -1 91 9 0 29 12 43 28 91 94 50 198 -118 298 -17 10 -17 16 -5 95 8 46 17 91 21 99 4 8 17 35 29 58 11 24 21 50 21 58 0 30 -19 12 -45 -43z" transform="translate(0,138) scale(0.1,-0.1)" stroke="none" fill="#B9CF64"/>

<path d="M685 1279 c-76 -40 -145 -140 -145 -211 0 -26 -10 -23 -78 22 -162 108 -365 50 -402 -114 -22 -97 6 -172 93 -254 45 -42 52 -64 21 -76 -8 -3 -28 -34 -44 -68 -25 -53 -30 -75 -30 -141 0 -71 3 -83 30 -122 16 -23 53 -60 82 -81 l53 -38 105 -1 c103 0 107 1 175 38 38 20 75 37 81 37 6 0 19 -21 29 -47 33 -86 110 -143 194 -143 58 0 103 25 140 80 l33 48 -4 109 c-2 59 -6 115 -9 123 -3 11 12 16 66 22 115 14 179 56 216 141 19 45 21 63 16 134 -5 70 -11 90 -36 126 -50 73 -154 113 -268 103 l-74 -7 8 38 c4 21 7 71 6 111 -2 87 -30 145 -83 174 -47 25 -125 24 -175 -3z m115 -83 c0 -8 -10 -34 -21 -58 -12 -23 -25 -50 -29 -58 -4 -8 -13 -53 -21 -99 -12 -79 -12 -85 5 -95 104 -62 166 -133 166 -189 0 -57 -53 -137 -91 -137 -35 0 -35 -19 1 -91 26 -50 22 -315 -3 -306 -7 3 -10 11 -9 18 2 8 4 62 4 121 -1 141 -31 238 -75 238 -47 1 -155 47 -187 81 -41 44 -73 114 -66 143 3 13 0 30 -7 38 -24 31 -109 87 -194 130 -57 28 -81 44 -69 46 24 5 132 -48 215 -105 l64 -44 26 25 c35 34 72 46 137 46 l54 0 0 45 c0 57 21 135 55 208 26 55 45 73 45 43z m-260 -626 c0 -5 -4 -10 -10 -10 -5 0 -10 5 -10 10 0 6 5 10 10 10 6 0 10 -4 10 -10z m-76 -41 c-16 -12 -66 -60 -111 -107 -46 -47 -85 -83 -89 -80 -3 4 6 19 19 35 14 15 38 43 54 60 31 37 145 124 152 118 2 -3 -9 -14 -25 -26z" transform="translate(0,138) scale(0.1,-0.1)" stroke="none" fill="#A798B9"/>

</g>

</g>
<g id="row2" transform="translate(18,276.0)">
<g id="0" transform="translate(0.0,0)scale(1,1)">

<path d="M755 1153 c-34 -73 -55 -151 -55 -208 l0 -45 -54 0 c-65 0 -102 -12 -137 -46 l-26 -25 -64 44 c-83 57 -191 110 -215 105 -12 -2 12 -18 69 -46 85 -43 170 -99 194 -130 7 -8 10 -25 7 -38 -7 -29 25 -99 66 -143 32 -34 140 -80 187 -81 44 0 74 -97 75 -238 0 -59 -2 -113 -4 -121 -1 -7 2 -15 9 -18 25 -9 29 256 3 306 -36 72 -36 91 -1 91 9 0 29 12 43 28 91 94 50 198 -118 298 -17 10 -17 16 -5 95 8 46 17 91 21 99 4 8 17 35 29 58 11 24 21 50 21 58 0 30 -19 12 -45 -43z" transform="translate(0,138) scale(0.1,-0.1)" stroke="none" fill="#B9CF64"/>

<path d="M685 1279 c-76 -40 -145 -140 -145 -211 0 -26 -10 -23 -78 22 -162 108 -365 50 -402 -114 -22 -97 6 -172 93 -254 45 -42 52 -64 21 -76 -8 -3 -28 -34 -44 -68 -25 -53 -30 -75 -30 -141 0 -71 3 -83 30 -122 16 -23 53 -60 82 -81 l53 -38 105 -1 c103 0 107 1 175 38 38 20 75 37 81 37 6 0 19 -21 29 -47 33 -86 110 -143 194 -143 58 0 103 25 140 80 l33 48 -4 109 c-2 59 -6 115 -9 123 -3 11 12 16 66 22 115 14 179 56 216 141 19 45 21 63 16 134 -5 70 -11 90 -36 126 -50 73 -154 113 -268 103 l-74 -7 8 38 c4 21 7 71 6 111 -2 87 -30 145 -83 174 -47 25 -125 24 -175 -3z m115 -83 c0 -8 -10 -34 -21 -58 -12 -23 -25 -50 -29 -58 -4 -8 -13 -53 -21 -99 -12 -79 -12 -85 5 -95 104 -62 166 -133 166 -189 0 -57 -53 -137 -91 -137 -35 0 -35 -19 1 -91 26 -50 22 -315 -3 -306 -7 3 -10 11 -9 18 2 8 4 62 4 121 -1 141 -31 238 -75 238 -47 1 -155 47 -187 81 -41 44 -73 114 -66 143 3 13 0 30 -7 38 -24 31 -109 87 -194 130 -57 28 -81 44 -69 46 24 5 132 -48 215 -105 l64 -44 26 25 c35 34 72 46 137 46 l54 0 0 45 c0 57 21 135 55 208 26 55 45 73 45 43z m-260 -626 c0 -5 -4 -10 -10 -10 -5 0 -10 5 -10 10 0 6 5 10 10 10 6 0 10 -4 10 -10z m-76 -41 c-16 -12 -66 -60 -111 -107 -46 -47 -85 -83 -89 -80 -3 4 6 19 19 35 14 15 38 43 54 60 31 37 145 124 152 118 2 -3 -9 -14 -25 -26z" transform="translate(0,138) scale(0.1,-0.1)" stroke="none" fill="#A798B9"/>

</g>

<g id="1" transform="translate(138.0,0)scale(1,1)">

<path d="M755 1153 c-34 -73 -55 -151 -55 -208 l0 -45 -54 0 c-65 0 -102 -12 -137 -46 l-26 -25 -64 44 c-83 57 -191 110 -215 105 -12 -2 12 -18 69 -46 85 -43 170 -99 194 -130 7 -8 10 -25 7 -38 -7 -29 25 -99 66 -143 32 -34 140 -80 187 -81 44 0 74 -97 75 -238 0 -59 -2 -113 -4 -121 -1 -7 2 -15 9 -18 25 -9 29 256 3 306 -36 72 -36 91 -1 91 9 0 29 12 43 28 91 94 50 198 -118 298 -17 10 -17 16 -5 95 8 46 17 91 21 99 4 8 17 35 29 58 11 24 21 50 21 58 0 30 -19 12 -45 -43z" transform="translate(0,138) scale(0.1,-0.1)" stroke="none" fill="#B9CF64"/>

<path d="M685 1279 c-76 -40 -145 -140 -145 -211 0 -26 -10 -23 -78 22 -162 108 -365 50 -402 -114 -22 -97 6 -172 93 -254 45 -42 52 -64 21 -76 -8 -3 -28 -34 -44 -68 -25 -53 -30 -75 -30 -141 0 -71 3 -83 30 -122 16 -23 53 -60 82 -81 l53 -38 105 -1 c103 0 107 1 175 38 38 20 75 37 81 37 6 0 19 -21 29 -47 33 -86 110 -143 194 -143 58 0 103 25 140 80 l33 48 -4 109 c-2 59 -6 115 -9 123 -3 11 12 16 66 22 115 14 179 56 216 141 19 45 21 63 16 134 -5 70 -11 90 -36 126 -50 73 -154 113 -268 103 l-74 -7 8 38 c4 21 7 71 6 111 -2 87 -30 145 -83 174 -47 25 -125 24 -175 -3z m115 -83 c0 -8 -10 -34 -21 -58 -12 -23 -25 -50 -29 -58 -4 -8 -13 -53 -21 -99 -12 -79 -12 -85 5 -95 104 -62 166 -133 166 -189 0 -57 -53 -137 -91 -137 -35 0 -35 -19 1 -91 26 -50 22 -315 -3 -306 -7 3 -10 11 -9 18 2 8 4 62 4 121 -1 141 -31 238 -75 238 -47 1 -155 47 -187 81 -41 44 -73 114 -66 143 3 13 0 30 -7 38 -24 31 -109 87 -194 130 -57 28 -81 44 -69 46 24 5 132 -48 215 -105 l64 -44 26 25 c35 34 72 46 137 46 l54 0 0 45 c0 57 21 135 55 208 26 55 45 73 45 43z m-260 -626 c0 -5 -4 -10 -10 -10 -5 0 -10 5 -10 10 0 6 5 10 10 10 6 0 10 -4 10 -10z m-76 -41 c-16 -12 -66 -60 -111 -107 -46 -47 -85 -83 -89 -80 -3 4 6 19 19 35 14 15 38 43 54 60 31 37 145 124 152 118 2 -3 -9 -14 -25 -26z" transform="translate(0,138) scale(0.1,-0.1)" stroke="none" fill="#A798B9"/>

</g>

<g id="2" transform="translate(276.0,0)scale(1,1)">

<path d="M755 1153 c-34 -73 -55 -151 -55 -208 l0 -45 -54 0 c-65 0 -102 -12 -137 -46 l-26 -25 -64 44 c-83 57 -191 110 -215 105 -12 -2 12 -18 69 -46 85 -43 170 -99 194 -130 7 -8 10 -25 7 -38 -7 -29 25 -99 66 -143 32 -34 140 -80 187 -81 44 0 74 -97 75 -238 0 -59 -2 -113 -4 -121 -1 -7 2 -15 9 -18 25 -9 29 256 3 306 -36 72 -36 91 -1 91 9 0 29 12 43 28 91 94 50 198 -118 298 -17 10 -17 16 -5 95 8 46 17 91 21 99 4 8 17 35 29 58 11 24 21 50 21 58 0 30 -19 12 -45 -43z" transform="translate(0,138) scale(0.1,-0.1)" stroke="none" fill="#B9CF64"/>

<path d="M685 1279 c-76 -40 -145 -140 -145 -211 0 -26 -10 -23 -78 22 -162 108 -365 50 -402 -114 -22 -97 6 -172 93 -254 45 -42 52 -64 21 -76 -8 -3 -28 -34 -44 -68 -25 -53 -30 -75 -30 -141 0 -71 3 -83 30 -122 16 -23 53 -60 82 -81 l53 -38 105 -1 c103 0 107 1 175 38 38 20 75 37 81 37 6 0 19 -21 29 -47 33 -86 110 -143 194 -143 58 0 103 25 140 80 l33 48 -4 109 c-2 59 -6 115 -9 123 -3 11 12 16 66 22 115 14 179 56 216 141 19 45 21 63 16 134 -5 70 -11 90 -36 126 -50 73 -154 113 -268 103 l-74 -7 8 38 c4 21 7 71 6 111 -2 87 -30 145 -83 174 -47 25 -125 24 -175 -3z m115 -83 c0 -8 -10 -34 -21 -58 -12 -23 -25 -50 -29 -58 -4 -8 -13 -53 -21 -99 -12 -79 -12 -85 5 -95 104 -62 166 -133 166 -189 0 -57 -53 -137 -91 -137 -35 0 -35 -19 1 -91 26 -50 22 -315 -3 -306 -7 3 -10 11 -9 18 2 8 4 62 4 121 -1 141 -31 238 -75 238 -47 1 -155 47 -187 81 -41 44 -73 114 -66 143 3 13 0 30 -7 38 -24 31 -109 87 -194 130 -57 28 -81 44 -69 46 24 5 132 -48 215 -105 l64 -44 26 25 c35 34 72 46 137 46 l54 0 0 45 c0 57 21 135 55 208 26 55 45 73 45 43z m-260 -626 c0 -5 -4 -10 -10 -10 -5 0 -10 5 -10 10 0 6 5 10 10 10 6 0 10 -4 10 -10z m-76 -41 c-16 -12 -66 -60 -111 -107 -46 -47 -85 -83 -89 -80 -3 4 6 19 19 35 14 15 38 43 54 60 31 37 145 124 152 118 2 -3 -9 -14 -25 -26z" transform="translate(0,138) scale(0.1,-0.1)" stroke="none" fill="#A798B9"/>

</g>

<g id="3" transform="translate(414.0,0)scale(1,1)">

<path d="M755 1153 c-34 -73 -55 -151 -55 -208 l0 -45 -54 0 c-65 0 -102 -12 -137 -46 l-26 -25 -64 44 c-83 57 -191 110 -215 105 -12 -2 12 -18 69 -46 85 -43 170 -99 194 -130 7 -8 10 -25 7 -38 -7 -29 25 -99 66 -143 32 -34 140 -80 187 -81 44 0 74 -97 75 -238 0 -59 -2 -113 -4 -121 -1 -7 2 -15 9 -18 25 -9 29 256 3 306 -36 72 -36 91 -1 91 9 0 29 12 43 28 91 94 50 198 -118 298 -17 10 -17 16 -5 95 8 46 17 91 21 99 4 8 17 35 29 58 11 24 21 50 21 58 0 30 -19 12 -45 -43z" transform="translate(0,138) scale(0.1,-0.1)" stroke="none" fill="#B9CF64"/>

<path d="M685 1279 c-76 -40 -145 -140 -145 -211 0 -26 -10 -23 -78 22 -162 108 -365 50 -402 -114 -22 -97 6 -172 93 -254 45 -42 52 -64 21 -76 -8 -3 -28 -34 -44 -68 -25 -53 -30 -75 -30 -141 0 -71 3 -83 30 -122 16 -23 53 -60 82 -81 l53 -38 105 -1 c103 0 107 1 175 38 38 20 75 37 81 37 6 0 19 -21 29 -47 33 -86 110 -143 194 -143 58 0 103 25 140 80 l33 48 -4 109 c-2 59 -6 115 -9 123 -3 11 12 16 66 22 115 14 179 56 216 141 19 45 21 63 16 134 -5 70 -11 90 -36 126 -50 73 -154 113 -268 103 l-74 -7 8 38 c4 21 7 71 6 111 -2 87 -30 145 -83 174 -47 25 -125 24 -175 -3z m115 -83 c0 -8 -10 -34 -21 -58 -12 -23 -25 -50 -29 -58 -4 -8 -13 -53 -21 -99 -12 -79 -12 -85 5 -95 104 -62 166 -133 166 -189 0 -57 -53 -137 -91 -137 -35 0 -35 -19 1 -91 26 -50 22 -315 -3 -306 -7 3 -10 11 -9 18 2 8 4 62 4 121 -1 141 -31 238 -75 238 -47 1 -155 47 -187 81 -41 44 -73 114 -66 143 3 13 0 30 -7 38 -24 31 -109 87 -194 130 -57 28 -81 44 -69 46 24 5 132 -48 215 -105 l64 -44 26 25 c35 34 72 46 137 46 l54 0 0 45 c0 57 21 135 55 208 26 55 45 73 45 43z m-260 -626 c0 -5 -4 -10 -10 -10 -5 0 -10 5 -10 10 0 6 5 10 10 10 6 0 10 -4 10 -10z m-76 -41 c-16 -12 -66 -60 -111 -107 -46 -47 -85 -83 -89 -80 -3 4 6 19 19 35 14 15 38 43 54 60 31 37 145 124 152 118 2 -3 -9 -14 -25 -26z" transform="translate(0,138) scale(0.1,-0.1)" stroke="none" fill="#A798B9"/>

</g>

<g id="4" transform="translate(552.0,0)scale(1,1)">

<path d="M755 1153 c-34 -73 -55 -151 -55 -208 l0 -45 -54 0 c-65 0 -102 -12 -137 -46 l-26 -25 -64 44 c-83 57 -191 110 -215 105 -12 -2 12 -18 69 -46 85 -43 170 -99 194 -130 7 -8 10 -25 7 -38 -7 -29 25 -99 66 -143 32 -34 140 -80 187 -81 44 0 74 -97 75 -238 0 -59 -2 -113 -4 -121 -1 -7 2 -15 9 -18 25 -9 29 256 3 306 -36 72 -36 91 -1 91 9 0 29 12 43 28 91 94 50 198 -118 298 -17 10 -17 16 -5 95 8 46 17 91 21 99 4 8 17 35 29 58 11 24 21 50 21 58 0 30 -19 12 -45 -43z" transform="translate(0,138) scale(0.1,-0.1)" stroke="none" fill="#B9CF64"/>

<path d="M685 1279 c-76 -40 -145 -140 -145 -211 0 -26 -10 -23 -78 22 -162 108 -365 50 -402 -114 -22 -97 6 -172 93 -254 45 -42 52 -64 21 -76 -8 -3 -28 -34 -44 -68 -25 -53 -30 -75 -30 -141 0 -71 3 -83 30 -122 16 -23 53 -60 82 -81 l53 -38 105 -1 c103 0 107 1 175 38 38 20 75 37 81 37 6 0 19 -21 29 -47 33 -86 110 -143 194 -143 58 0 103 25 140 80 l33 48 -4 109 c-2 59 -6 115 -9 123 -3 11 12 16 66 22 115 14 179 56 216 141 19 45 21 63 16 134 -5 70 -11 90 -36 126 -50 73 -154 113 -268 103 l-74 -7 8 38 c4 21 7 71 6 111 -2 87 -30 145 -83 174 -47 25 -125 24 -175 -3z m115 -83 c0 -8 -10 -34 -21 -58 -12 -23 -25 -50 -29 -58 -4 -8 -13 -53 -21 -99 -12 -79 -12 -85 5 -95 104 -62 166 -133 166 -189 0 -57 -53 -137 -91 -137 -35 0 -35 -19 1 -91 26 -50 22 -315 -3 -306 -7 3 -10 11 -9 18 2 8 4 62 4 121 -1 141 -31 238 -75 238 -47 1 -155 47 -187 81 -41 44 -73 114 -66 143 3 13 0 30 -7 38 -24 31 -109 87 -194 130 -57 28 -81 44 -69 46 24 5 132 -48 215 -105 l64 -44 26 25 c35 34 72 46 137 46 l54 0 0 45 c0 57 21 135 55 208 26 55 45 73 45 43z m-260 -626 c0 -5 -4 -10 -10 -10 -5 0 -10 5 -10 10 0 6 5 10 10 10 6 0 10 -4 10 -10z m-76 -41 c-16 -12 -66 -60 -111 -107 -46 -47 -85 -83 -89 -80 -3 4 6 19 19 35 14 15 38 43 54 60 31 37 145 124 152 118 2 -3 -9 -14 -25 -26z" transform="translate(0,138) scale(0.1,-0.1)" stroke="none" fill="#A798B9"/>

</g>

</g>
<g id="row3" transform="translate(18,414.0)">
<g id="0" transform="translate(0.0,0)scale(1,1)">

<path d="M755 1153 c-34 -73 -55 -151 -55 -208 l0 -45 -54 0 c-65 0 -102 -12 -137 -46 l-26 -25 -64 44 c-83 57 -191 110 -215 105 -12 -2 12 -18 69 -46 85 -43 170 -99 194 -130 7 -8 10 -25 7 -38 -7 -29 25 -99 66 -143 32 -34 140 -80 187 -81 44 0 74 -97 75 -238 0 -59 -2 -113 -4 -121 -1 -7 2 -15 9 -18 25 -9 29 256 3 306 -36 72 -36 91 -1 91 9 0 29 12 43 28 91 94 50 198 -118 298 -17 10 -17 16 -5 95 8 46 17 91 21 99 4 8 17 35 29 58 11 24 21 50 21 58 0 30 -19 12 -45 -43z" transform="translate(0,138) scale(0.1,-0.1)" stroke="none" fill="#B9CF64"/>

<path d="M685 1279 c-76 -40 -145 -140 -145 -211 0 -26 -10 -23 -78 22 -162 108 -365 50 -402 -114 -22 -97 6 -172 93 -254 45 -42 52 -64 21 -76 -8 -3 -28 -34 -44 -68 -25 -53 -30 -75 -30 -141 0 -71 3 -83 30 -122 16 -23 53 -60 82 -81 l53 -38 105 -1 c103 0 107 1 175 38 38 20 75 37 81 37 6 0 19 -21 29 -47 33 -86 110 -143 194 -143 58 0 103 25 140 80 l33 48 -4 109 c-2 59 -6 115 -9 123 -3 11 12 16 66 22 115 14 179 56 216 141 19 45 21 63 16 134 -5 70 -11 90 -36 126 -50 73 -154 113 -268 103 l-74 -7 8 38 c4 21 7 71 6 111 -2 87 -30 145 -83 174 -47 25 -125 24 -175 -3z m115 -83 c0 -8 -10 -34 -21 -58 -12 -23 -25 -50 -29 -58 -4 -8 -13 -53 -21 -99 -12 -79 -12 -85 5 -95 104 -62 166 -133 166 -189 0 -57 -53 -137 -91 -137 -35 0 -35 -19 1 -91 26 -50 22 -315 -3 -306 -7 3 -10 11 -9 18 2 8 4 62 4 121 -1 141 -31 238 -75 238 -47 1 -155 47 -187 81 -41 44 -73 114 -66 143 3 13 0 30 -7 38 -24 31 -109 87 -194 130 -57 28 -81 44 -69 46 24 5 132 -48 215 -105 l64 -44 26 25 c35 34 72 46 137 46 l54 0 0 45 c0 57 21 135 55 208 26 55 45 73 45 43z m-260 -626 c0 -5 -4 -10 -10 -10 -5 0 -10 5 -10 10 0 6 5 10 10 10 6 0 10 -4 10 -10z m-76 -41 c-16 -12 -66 -60 -111 -107 -46 -47 -85 -83 -89 -80 -3 4 6 19 19 35 14 15 38 43 54 60 31 37 145 124 152 118 2 -3 -9 -14 -25 -26z" transform="translate(0,138) scale(0.1,-0.1)" stroke="none" fill="#A798B9"/>

</g>

<g id="1" transform="translate(138.0,0)scale(1,1)">

<path d="M755 1153 c-34 -73 -55 -151 -55 -208 l0 -45 -54 0 c-65 0 -102 -12 -137 -46 l-26 -25 -64 44 c-83 57 -191 110 -215 105 -12 -2 12 -18 69 -46 85 -43 170 -99 194 -130 7 -8 10 -25 7 -38 -7 -29 25 -99 66 -143 32 -34 140 -80 187 -81 44 0 74 -97 75 -238 0 -59 -2 -113 -4 -121 -1 -7 2 -15 9 -18 25 -9 29 256 3 306 -36 72 -36 91 -1 91 9 0 29 12 43 28 91 94 50 198 -118 298 -17 10 -17 16 -5 95 8 46 17 91 21 99 4 8 17 35 29 58 11 24 21 50 21 58 0 30 -19 12 -45 -43z" transform="translate(0,138) scale(0.1,-0.1)" stroke="none" fill="#B9CF64"/>

<path d="M685 1279 c-76 -40 -145 -140 -145 -211 0 -26 -10 -23 -78 22 -162 108 -365 50 -402 -114 -22 -97 6 -172 93 -254 45 -42 52 -64 21 -76 -8 -3 -28 -34 -44 -68 -25 -53 -30 -75 -30 -141 0 -71 3 -83 30 -122 16 -23 53 -60 82 -81 l53 -38 105 -1 c103 0 107 1 175 38 38 20 75 37 81 37 6 0 19 -21 29 -47 33 -86 110 -143 194 -143 58 0 103 25 140 80 l33 48 -4 109 c-2 59 -6 115 -9 123 -3 11 12 16 66 22 115 14 179 56 216 141 19 45 21 63 16 134 -5 70 -11 90 -36 126 -50 73 -154 113 -268 103 l-74 -7 8 38 c4 21 7 71 6 111 -2 87 -30 145 -83 174 -47 25 -125 24 -175 -3z m115 -83 c0 -8 -10 -34 -21 -58 -12 -23 -25 -50 -29 -58 -4 -8 -13 -53 -21 -99 -12 -79 -12 -85 5 -95 104 -62 166 -133 166 -189 0 -57 -53 -137 -91 -137 -35 0 -35 -19 1 -91 26 -50 22 -315 -3 -306 -7 3 -10 11 -9 18 2 8 4 62 4 121 -1 141 -31 238 -75 238 -47 1 -155 47 -187 81 -41 44 -73 114 -66 143 3 13 0 30 -7 38 -24 31 -109 87 -194 130 -57 28 -81 44 -69 46 24 5 132 -48 215 -105 l64 -44 26 25 c35 34 72 46 137 46 l54 0 0 45 c0 57 21 135 55 208 26 55 45 73 45 43z m-260 -626 c0 -5 -4 -10 -10 -10 -5 0 -10 5 -10 10 0 6 5 10 10 10 6 0 10 -4 10 -10z m-76 -41 c-16 -12 -66 -60 -111 -107 -46 -47 -85 -83 -89 -80 -3 4 6 19 19 35 14 15 38 43 54 60 31 37 145 124 152 118 2 -3 -9 -14 -25 -26z" transform="translate(0,138) scale(0.1,-0.1)" stroke="none" fill="#A798B9"/>

</g>

<g id="2" transform="translate(276.0,0)scale(1,1)">

<path d="M755 1153 c-34 -73 -55 -151 -55 -208 l0 -45 -54 0 c-65 0 -102 -12 -137 -46 l-26 -25 -64 44 c-83 57 -191 110 -215 105 -12 -2 12 -18 69 -46 85 -43 170 -99 194 -130 7 -8 10 -25 7 -38 -7 -29 25 -99 66 -143 32 -34 140 -80 187 -81 44 0 74 -97 75 -238 0 -59 -2 -113 -4 -121 -1 -7 2 -15 9 -18 25 -9 29 256 3 306 -36 72 -36 91 -1 91 9 0 29 12 43 28 91 94 50 198 -118 298 -17 10 -17 16 -5 95 8 46 17 91 21 99 4 8 17 35 29 58 11 24 21 50 21 58 0 30 -19 12 -45 -43z" transform="translate(0,138) scale(0.1,-0.1)" stroke="none" fill="#B9CF64"/>

<path d="M685 1279 c-76 -40 -145 -140 -145 -211 0 -26 -10 -23 -78 22 -162 108 -365 50 -402 -114 -22 -97 6 -172 93 -254 45 -42 52 -64 21 -76 -8 -3 -28 -34 -44 -68 -25 -53 -30 -75 -30 -141 0 -71 3 -83 30 -122 16 -23 53 -60 82 -81 l53 -38 105 -1 c103 0 107 1 175 38 38 20 75 37 81 37 6 0 19 -21 29 -47 33 -86 110 -143 194 -143 58 0 103 25 140 80 l33 48 -4 109 c-2 59 -6 115 -9 123 -3 11 12 16 66 22 115 14 179 56 216 141 19 45 21 63 16 134 -5 70 -11 90 -36 126 -50 73 -154 113 -268 103 l-74 -7 8 38 c4 21 7 71 6 111 -2 87 -30 145 -83 174 -47 25 -125 24 -175 -3z m115 -83 c0 -8 -10 -34 -21 -58 -12 -23 -25 -50 -29 -58 -4 -8 -13 -53 -21 -99 -12 -79 -12 -85 5 -95 104 -62 166 -133 166 -189 0 -57 -53 -137 -91 -137 -35 0 -35 -19 1 -91 26 -50 22 -315 -3 -306 -7 3 -10 11 -9 18 2 8 4 62 4 121 -1 141 -31 238 -75 238 -47 1 -155 47 -187 81 -41 44 -73 114 -66 143 3 13 0 30 -7 38 -24 31 -109 87 -194 130 -57 28 -81 44 -69 46 24 5 132 -48 215 -105 l64 -44 26 25 c35 34 72 46 137 46 l54 0 0 45 c0 57 21 135 55 208 26 55 45 73 45 43z m-260 -626 c0 -5 -4 -10 -10 -10 -5 0 -10 5 -10 10 0 6 5 10 10 10 6 0 10 -4 10 -10z m-76 -41 c-16 -12 -66 -60 -111 -107 -46 -47 -85 -83 -89 -80 -3 4 6 19 19 35 14 15 38 43 54 60 31 37 145 124 152 118 2 -3 -9 -14 -25 -26z" transform="translate(0,138) scale(0.1,-0.1)" stroke="none" fill="#A798B9"/>

</g>

<g id="3" transform="translate(414.0,0)scale(1,1)">

<path d="M755 1153 c-34 -73 -55 -151 -55 -208 l0 -45 -54 0 c-65 0 -102 -12 -137 -46 l-26 -25 -64 44 c-83 57 -191 110 -215 105 -12 -2 12 -18 69 -46 85 -43 170 -99 194 -130 7 -8 10 -25 7 -38 -7 -29 25 -99 66 -143 32 -34 140 -80 187 -81 44 0 74 -97 75 -238 0 -59 -2 -113 -4 -121 -1 -7 2 -15 9 -18 25 -9 29 256 3 306 -36 72 -36 91 -1 91 9 0 29 12 43 28 91 94 50 198 -118 298 -17 10 -17 16 -5 95 8 46 17 91 21 99 4 8 17 35 29 58 11 24 21 50 21 58 0 30 -19 12 -45 -43z" transform="translate(0,138) scale(0.1,-0.1)" stroke="none" fill="#B9CF64"/>

<path d="M685 1279 c-76 -40 -145 -140 -145 -211 0 -26 -10 -23 -78 22 -162 108 -365 50 -402 -114 -22 -97 6 -172 93 -254 45 -42 52 -64 21 -76 -8 -3 -28 -34 -44 -68 -25 -53 -30 -75 -30 -141 0 -71 3 -83 30 -122 16 -23 53 -60 82 -81 l53 -38 105 -1 c103 0 107 1 175 38 38 20 75 37 81 37 6 0 19 -21 29 -47 33 -86 110 -143 194 -143 58 0 103 25 140 80 l33 48 -4 109 c-2 59 -6 115 -9 123 -3 11 12 16 66 22 115 14 179 56 216 141 19 45 21 63 16 134 -5 70 -11 90 -36 126 -50 73 -154 113 -268 103 l-74 -7 8 38 c4 21 7 71 6 111 -2 87 -30 145 -83 174 -47 25 -125 24 -175 -3z m115 -83 c0 -8 -10 -34 -21 -58 -12 -23 -25 -50 -29 -58 -4 -8 -13 -53 -21 -99 -12 -79 -12 -85 5 -95 104 -62 166 -133 166 -189 0 -57 -53 -137 -91 -137 -35 0 -35 -19 1 -91 26 -50 22 -315 -3 -306 -7 3 -10 11 -9 18 2 8 4 62 4 121 -1 141 -31 238 -75 238 -47 1 -155 47 -187 81 -41 44 -73 114 -66 143 3 13 0 30 -7 38 -24 31 -109 87 -194 130 -57 28 -81 44 -69 46 24 5 132 -48 215 -105 l64 -44 26 25 c35 34 72 46 137 46 l54 0 0 45 c0 57 21 135 55 208 26 55 45 73 45 43z m-260 -626 c0 -5 -4 -10 -10 -10 -5 0 -10 5 -10 10 0 6 5 10 10 10 6 0 10 -4 10 -10z m-76 -41 c-16 -12 -66 -60 -111 -107 -46 -47 -85 -83 -89 -80 -3 4 6 19 19 35 14 15 38 43 54 60 31 37 145 124 152 118 2 -3 -9 -14 -25 -26z" transform="translate(0,138) scale(0.1,-0.1)" stroke="none" fill="#A798B9"/>

</g>

<g id="4" transform="translate(552.0,0)scale(1,1)">

<path d="M755 1153 c-34 -73 -55 -151 -55 -208 l0 -45 -54 0 c-65 0 -102 -12 -137 -46 l-26 -25 -64 44 c-83 57 -191 110 -215 105 -12 -2 12 -18 69 -46 85 -43 170 -99 194 -130 7 -8 10 -25 7 -38 -7 -29 25 -99 66 -143 32 -34 140 -80 187 -81 44 0 74 -97 75 -238 0 -59 -2 -113 -4 -121 -1 -7 2 -15 9 -18 25 -9 29 256 3 306 -36 72 -36 91 -1 91 9 0 29 12 43 28 91 94 50 198 -118 298 -17 10 -17 16 -5 95 8 46 17 91 21 99 4 8 17 35 29 58 11 24 21 50 21 58 0 30 -19 12 -45 -43z" transform="translate(0,138) scale(0.1,-0.1)" stroke="none" fill="#B9CF64"/>

<path d="M685 1279 c-76 -40 -145 -140 -145 -211 0 -26 -10 -23 -78 22 -162 108 -365 50 -402 -114 -22 -97 6 -172 93 -254 45 -42 52 -64 21 -76 -8 -3 -28 -34 -44 -68 -25 -53 -30 -75 -30 -141 0 -71 3 -83 30 -122 16 -23 53 -60 82 -81 l53 -38 105 -1 c103 0 107 1 175 38 38 20 75 37 81 37 6 0 19 -21 29 -47 33 -86 110 -143 194 -143 58 0 103 25 140 80 l33 48 -4 109 c-2 59 -6 115 -9 123 -3 11 12 16 66 22 115 14 179 56 216 141 19 45 21 63 16 134 -5 70 -11 90 -36 126 -50 73 -154 113 -268 103 l-74 -7 8 38 c4 21 7 71 6 111 -2 87 -30 145 -83 174 -47 25 -125 24 -175 -3z m115 -83 c0 -8 -10 -34 -21 -58 -12 -23 -25 -50 -29 -58 -4 -8 -13 -53 -21 -99 -12 -79 -12 -85 5 -95 104 -62 166 -133 166 -189 0 -57 -53 -137 -91 -137 -35 0 -35 -19 1 -91 26 -50 22 -315 -3 -306 -7 3 -10 11 -9 18 2 8 4 62 4 121 -1 141 -31 238 -75 238 -47 1 -155 47 -187 81 -41 44 -73 114 -66 143 3 13 0 30 -7 38 -24 31 -109 87 -194 130 -57 28 -81 44 -69 46 24 5 132 -48 215 -105 l64 -44 26 25 c35 34 72 46 137 46 l54 0 0 45 c0 57 21 135 55 208 26 55 45 73 45 43z m-260 -626 c0 -5 -4 -10 -10 -10 -5 0 -10 5 -10 10 0 6 5 10 10 10 6 0 10 -4 10 -10z m-76 -41 c-16 -12 -66 -60 -111 -107 -46 -47 -85 -83 -89 -80 -3 4 6 19 19 35 14 15 38 43 54 60 31 37 145 124 152 118 2 -3 -9 -14 -25 -26z" transform="translate(0,138) scale(0.1,-0.1)" stroke="none" fill="#A798B9"/>

</g>

</g>
</svg>