<?xml version="1.0" standalone="no"?>
<!DOCTYPE svg PUBLIC "-//W3C//DTD SVG 20010904//EN"
 "http://www.w3.org/TR/2001/REC-SVG-20010904/DTD/svg10.dtd">
<svg version="1.0" xmlns="http://www.w3.org/2000/svg" width="424pt" height="404pt" viewBox="0 0 424 404" preserveAspectRatio = "xMidYMid meet" >
<metadata>
Created by ZoeQu, written in 2022
</metadata>
<rect width="424" height="404" fill="#A8D6DA"/>
<g id="col0" transform="translate(0, 13)">
<g id="0" transform="translate(0,0.0)scale(0.8,0.8)">

<path d="M972 613 c-14 -6 -66 -102 -58 -110 3 -3 24 6 48 19 31 17 44 30 46 49 3 28 -15 49 -36 42z" transform="translate(0,101) scale(0.1,-0.1)" stroke="none" fill="#93822A"/>

<path d="M63 324 c-9 -23 9 -48 37 -52 26 -4 113 18 105 26 -6 6 -115 42 -128 42 -4 0 -10 -7 -14 -16z" transform="translate(0,101) scale(0.1,-0.1)" stroke="none" fill="#93822A"/>

<path d="M777 718 c-16 -12 -16 -20 -3 -102 13 -80 26 -121 26 -85 0 8 11 36 25 63 31 62 32 100 3 120 -27 19 -30 19 -51 4z" transform="translate(0,101) scale(0.1,-0.1)" stroke="none" fill="#93822A"/>

<path d="M572 925 c-19 -24 -49 -121 -40 -130 8 -8 97 55 116 83 19 26 20 31 6 50 -20 29 -58 28 -82 -3z" transform="translate(0,101) scale(0.1,-0.1)" stroke="none" fill="#93822A"/>

<path d="M446 479 c49 -57 101 -149 124 -218 17 -51 20 -77 15 -126 -8 -68 4 -89 47 -83 39 5 37 61 -4 114 -28 35 -52 118 -32 110 7 -3 30 -8 51 -11 21 -4 59 -18 86 -31 26 -14 57 -24 69 -22 26 4 43 30 35 52 -5 13 -24 16 -119 16 -73 1 -119 5 -129 13 -13 10 -69 107 -69 119 0 2 53 2 118 1 146 -3 212 -24 285 -91 39 -37 52 -44 65 -35 47 29 14 75 -63 88 -22 4 -65 17 -95 28 l-56 21 58 28 c32 15 58 30 58 33 0 3 -19 -4 -42 -16 -23 -12 -55 -23 -71 -26 l-30 -5 22 28 c38 49 22 50 -20 2 -40 -48 -41 -48 -102 -48 -102 1 -144 14 -190 56 l-41 39 30 -36z" transform="translate(0,101) scale(0.1,-0.1)" stroke="none" fill="#93822A"/>

<path d="M208 693 c158 -124 160 -127 169 -233 5 -59 3 -69 -18 -94 -14 -15 -49 -36 -79 -46 -32 -11 -45 -19 -32 -20 12 0 39 7 59 15 19 8 37 15 39 15 11 0 -43 -90 -77 -129 -43 -48 -49 -79 -20 -105 32 -29 51 -11 51 50 0 40 8 70 32 119 33 66 48 81 48 46 0 -10 8 -29 19 -42 10 -13 22 -38 25 -56 15 -67 67 -103 97 -67 12 14 5 25 -58 83 l-72 66 -3 127 c-2 82 1 124 7 121 6 -3 -12 18 -40 47 -49 51 -49 52 -20 46 85 -19 139 -39 159 -60 11 -13 40 -35 63 -50 47 -31 74 -29 91 9 9 19 8 28 -8 47 -15 19 -31 24 -97 29 -75 6 -242 42 -273 59 -8 4 -14 13 -13 19 2 6 -6 11 -16 11 -11 0 -28 3 -38 6 -14 4 -12 1 5 -13z" transform="translate(0,101) scale(0.1,-0.1)" stroke="none" fill="#93822A"/>

</g>

<g id="1" transform="translate(0,101.0)scale(0.8,0.8)">

<path d="M972 613 c-14 -6 -66 -102 -58 -110 3 -3 24 6 48 19 31 17 44 30 46 49 3 28 -15 49 -36 42z" transform="translate(0,101) scale(0.1,-0.1)" stroke="none" fill="#93822A"/>

<path d="M63 324 c-9 -23 9 -48 37 -52 26 -4 113 18 105 26 -6 6 -115 42 -128 42 -4 0 -10 -7 -14 -16z" transform="translate(0,101) scale(0.1,-0.1)" stroke="none" fill="#93822A"/>

<path d="M777 718 c-16 -12 -16 -20 -3 -102 13 -80 26 -121 26 -85 0 8 11 36 25 63 31 62 32 100 3 120 -27 19 -30 19 -51 4z" transform="translate(0,101) scale(0.1,-0.1)" stroke="none" fill="#93822A"/>

<path d="M572 925 c-19 -24 -49 -121 -40 -130 8 -8 97 55 116 83 19 26 20 31 6 50 -20 29 -58 28 -82 -3z" transform="translate(0,101) scale(0.1,-0.1)" stroke="none" fill="#93822A"/>

<path d="M446 479 c49 -57 101 -149 124 -218 17 -51 20 -77 15 -126 -8 -68 4 -89 47 -83 39 5 37 61 -4 114 -28 35 -52 118 -32 110 7 -3 30 -8 51 -11 21 -4 59 -18 86 -31 26 -14 57 -24 69 -22 26 4 43 30 35 52 -5 13 -24 16 -119 16 -73 1 -119 5 -129 13 -13 10 -69 107 -69 119 0 2 53 2 118 1 146 -3 212 -24 285 -91 39 -37 52 -44 65 -35 47 29 14 75 -63 88 -22 4 -65 17 -95 28 l-56 21 58 28 c32 15 58 30 58 33 0 3 -19 -4 -42 -16 -23 -12 -55 -23 -71 -26 l-30 -5 22 28 c38 49 22 50 -20 2 -40 -48 -41 -48 -102 -48 -102 1 -144 14 -190 56 l-41 39 30 -36z" transform="translate(0,101) scale(0.1,-0.1)" stroke="none" fill="#93822A"/>

<path d="M208 693 c158 -124 160 -127 169 -233 5 -59 3 -69 -18 -94 -14 -15 -49 -36 -79 -46 -32 -11 -45 -19 -32 -20 12 0 39 7 59 15 19 8 37 15 39 15 11 0 -43 -90 -77 -129 -43 -48 -49 -79 -20 -105 32 -29 51 -11 51 50 0 40 8 70 32 119 33 66 48 81 48 46 0 -10 8 -29 19 -42 10 -13 22 -38 25 -56 15 -67 67 -103 97 -67 12 14 5 25 -58 83 l-72 66 -3 127 c-2 82 1 124 7 121 6 -3 -12 18 -40 47 -49 51 -49 52 -20 46 85 -19 139 -39 159 -60 11 -13 40 -35 63 -50 47 -31 74 -29 91 9 9 19 8 28 -8 47 -15 19 -31 24 -97 29 -75 6 -242 42 -273 59 -8 4 -14 13 -13 19 2 6 -6 11 -16 11 -11 0 -28 3 -38 6 -14 4 -12 1 5 -13z" transform="translate(0,101) scale(0.1,-0.1)" stroke="none" fill="#93822A"/>

</g>

<g id="2" transform="translate(0,202.0)scale(0.8,0.8)">

<path d="M972 613 c-14 -6 -66 -102 -58 -110 3 -3 24 6 48 19 31 17 44 30 46 49 3 28 -15 49 -36 42z" transform="translate(0,101) scale(0.1,-0.1)" stroke="none" fill="#93822A"/>

<path d="M63 324 c-9 -23 9 -48 37 -52 26 -4 113 18 105 26 -6 6 -115 42 -128 42 -4 0 -10 -7 -14 -16z" transform="translate(0,101) scale(0.1,-0.1)" stroke="none" fill="#93822A"/>

<path d="M777 718 c-16 -12 -16 -20 -3 -102 13 -80 26 -121 26 -85 0 8 11 36 25 63 31 62 32 100 3 120 -27 19 -30 19 -51 4z" transform="translate(0,101) scale(0.1,-0.1)" stroke="none" fill="#93822A"/>

<path d="M572 925 c-19 -24 -49 -121 -40 -130 8 -8 97 55 116 83 19 26 20 31 6 50 -20 29 -58 28 -82 -3z" transform="translate(0,101) scale(0.1,-0.1)" stroke="none" fill="#93822A"/>

<path d="M446 479 c49 -57 101 -149 124 -218 17 -51 20 -77 15 -126 -8 -68 4 -89 47 -83 39 5 37 61 -4 114 -28 35 -52 118 -32 110 7 -3 30 -8 51 -11 21 -4 59 -18 86 -31 26 -14 57 -24 69 -22 26 4 43 30 35 52 -5 13 -24 16 -119 16 -73 1 -119 5 -129 13 -13 10 -69 107 -69 119 0 2 53 2 118 1 146 -3 212 -24 285 -91 39 -37 52 -44 65 -35 47 29 14 75 -63 88 -22 4 -65 17 -95 28 l-56 21 58 28 c32 15 58 30 58 33 0 3 -19 -4 -42 -16 -23 -12 -55 -23 -71 -26 l-30 -5 22 28 c38 49 22 50 -20 2 -40 -48 -41 -48 -102 -48 -102 1 -144 14 -190 56 l-41 39 30 -36z" transform="translate(0,101) scale(0.1,-0.1)" stroke="none" fill="#93822A"/>

<path d="M208 693 c158 -124 160 -127 169 -233 5 -59 3 -69 -18 -94 -14 -15 -49 -36 -79 -46 -32 -11 -45 -19 -32 -20 12 0 39 7 59 15 19 8 37 15 39 15 11 0 -43 -90 -77 -129 -43 -48 -49 -79 -20 -105 32 -29 51 -11 51 50 0 40 8 70 32 119 33 66 48 81 48 46 0 -10 8 -29 19 -42 10 -13 22 -38 25 -56 15 -67 67 -103 97 -67 12 14 5 25 -58 83 l-72 66 -3 127 c-2 82 1 124 7 121 6 -3 -12 18 -40 47 -49 51 -49 52 -20 46 85 -19 139 -39 159 -60 11 -13 40 -35 63 -50 47 -31 74 -29 91 9 9 19 8 28 -8 47 -15 19 -31 24 -97 29 -75 6 -242 42 -273 59 -8 4 -14 13 -13 19 2 6 -6 11 -16 11 -11 0 -28 3 -38 6 -14 4 -12 1 5 -13z" transform="translate(0,101) scale(0.1,-0.1)" stroke="none" fill="#93822A"/>

</g>

<g id="3" transform="translate(0,303.0)scale(0.8,0.8)">

<path d="M972 613 c-14 -6 -66 -102 -58 -110 3 -3 24 6 48 19 31 17 44 30 46 49 3 28 -15 49 -36 42z" transform="translate(0,101) scale(0.1,-0.1)" stroke="none" fill="#93822A"/>

<path d="M63 324 c-9 -23 9 -48 37 -52 26 -4 113 18 105 26 -6 6 -115 42 -128 42 -4 0 -10 -7 -14 -16z" transform="translate(0,101) scale(0.1,-0.1)" stroke="none" fill="#93822A"/>

<path d="M777 718 c-16 -12 -16 -20 -3 -102 13 -80 26 -121 26 -85 0 8 11 36 25 63 31 62 32 100 3 120 -27 19 -30 19 -51 4z" transform="translate(0,101) scale(0.1,-0.1)" stroke="none" fill="#93822A"/>

<path d="M572 925 c-19 -24 -49 -121 -40 -130 8 -8 97 55 116 83 19 26 20 31 6 50 -20 29 -58 28 -82 -3z" transform="translate(0,101) scale(0.1,-0.1)" stroke="none" fill="#93822A"/>

<path d="M446 479 c49 -57 101 -149 124 -218 17 -51 20 -77 15 -126 -8 -68 4 -89 47 -83 39 5 37 61 -4 114 -28 35 -52 118 -32 110 7 -3 30 -8 51 -11 21 -4 59 -18 86 -31 26 -14 57 -24 69 -22 26 4 43 30 35 52 -5 13 -24 16 -119 16 -73 1 -119 5 -129 13 -13 10 -69 107 -69 119 0 2 53 2 118 1 146 -3 212 -24 285 -91 39 -37 52 -44 65 -35 47 29 14 75 -63 88 -22 4 -65 17 -95 28 l-56 21 58 28 c32 15 58 30 58 33 0 3 -19 -4 -42 -16 -23 -12 -55 -23 -71 -26 l-30 -5 22 28 c38 49 22 50 -20 2 -40 -48 -41 -48 -102 -48 -102 1 -144 14 -190 56 l-41 39 30 -36z" transform="translate(0,101) scale(0.1,-0.1)" stroke="none" fill="#93822A"/>

<path d="M208 693 c158 -124 160 -127 169 -233 5 -59 3 -69 -18 -94 -14 -15 -49 -36 -79 -46 -32 -11 -45 -19 -32 -20 12 0 39 7 59 15 19 8 37 15 39 15 11 0 -43 -90 -77 -129 -43 -48 -49 -79 -20 -105 32 -29 51 -11 51 50 0 40 8 70 32 119 33 66 48 81 48 46 0 -10 8 -29 19 -42 10 -13 22 -38 25 -56 15 -67 67 -103 97 -67 12 14 5 25 -58 83 l-72 66 -3 127 c-2 82 1 124 7 121 6 -3 -12 18 -40 47 -49 51 -49 52 -20 46 85 -19 139 -39 159 -60 11 -13 40 -35 63 -50 47 -31 74 -29 91 9 9 19 8 28 -8 47 -15 19 -31 24 -97 29 -75 6 -242 42 -273 59 -8 4 -14 13 -13 19 2 6 -6 11 -16 11 -11 0 -28 3 -38 6 -14 4 -12 1 5 -13z" transform="translate(0,101) scale(0.1,-0.1)" stroke="none" fill="#93822A"/>

</g>

<g id="4" transform="translate(0,404.0)scale(0.8,0.8)">

<path d="M972 613 c-14 -6 -66 -102 -58 -110 3 -3 24 6 48 19 31 17 44 30 46 49 3 28 -15 49 -36 42z" transform="translate(0,101) scale(0.1,-0.1)" stroke="none" fill="#93822A"/>

<path d="M63 324 c-9 -23 9 -48 37 -52 26 -4 113 18 105 26 -6 6 -115 42 -128 42 -4 0 -10 -7 -14 -16z" transform="translate(0,101) scale(0.1,-0.1)" stroke="none" fill="#93822A"/>

<path d="M777 718 c-16 -12 -16 -20 -3 -102 13 -80 26 -121 26 -85 0 8 11 36 25 63 31 62 32 100 3 120 -27 19 -30 19 -51 4z" transform="translate(0,101) scale(0.1,-0.1)" stroke="none" fill="#93822A"/>

<path d="M572 925 c-19 -24 -49 -121 -40 -130 8 -8 97 55 116 83 19 26 20 31 6 50 -20 29 -58 28 -82 -3z" transform="translate(0,101) scale(0.1,-0.1)" stroke="none" fill="#93822A"/>

<path d="M446 479 c49 -57 101 -149 124 -218 17 -51 20 -77 15 -126 -8 -68 4 -89 47 -83 39 5 37 61 -4 114 -28 35 -52 118 -32 110 7 -3 30 -8 51 -11 21 -4 59 -18 86 -31 26 -14 57 -24 69 -22 26 4 43 30 35 52 -5 13 -24 16 -119 16 -73 1 -119 5 -129 13 -13 10 -69 107 -69 119 0 2 53 2 118 1 146 -3 212 -24 285 -91 39 -37 52 -44 65 -35 47 29 14 75 -63 88 -22 4 -65 17 -95 28 l-56 21 58 28 c32 15 58 30 58 33 0 3 -19 -4 -42 -16 -23 -12 -55 -23 -71 -26 l-30 -5 22 28 c38 49 22 50 -20 2 -40 -48 -41 -48 -102 -48 -102 1 -144 14 -190 56 l-41 39 30 -36z" transform="translate(0,101) scale(0.1,-0.1)" stroke="none" fill="#93822A"/>

<path d="M208 693 c158 -124 160 -127 169 -233 5 -59 3 -69 -18 -94 -14 -15 -49 -36 -79 -46 -32 -11 -45 -19 -32 -20 12 0 39 7 59 15 19 8 37 15 39 15 11 0 -43 -90 -77 -129 -43 -48 -49 -79 -20 -105 32 -29 51 -11 51 50 0 40 8 70 32 119 33 66 48 81 48 46 0 -10 8 -29 19 -42 10 -13 22 -38 25 -56 15 -67 67 -103 97 -67 12 14 5 25 -58 83 l-72 66 -3 127 c-2 82 1 124 7 121 6 -3 -12 18 -40 47 -49 51 -49 52 -20 46 85 -19 139 -39 159 -60 11 -13 40 -35 63 -50 47 -31 74 -29 91 9 9 19 8 28 -8 47 -15 19 -31 24 -97 29 -75 6 -242 42 -273 59 -8 4 -14 13 -13 19 2 6 -6 11 -16 11 -11 0 -28 3 -38 6 -14 4 -12 1 5 -13z" transform="translate(0,101) scale(0.1,-0.1)" stroke="none" fill="#93822A"/>

</g>

</g>
<g id="col1" transform="translate(106, -37.5)">
<g id="0" transform="translate(0,0.0)scale(0.8,0.8)">

<path d="M972 613 c-14 -6 -66 -102 -58 -110 3 -3 24 6 48 19 31 17 44 30 46 49 3 28 -15 49 -36 42z" transform="translate(0,101) scale(0.1,-0.1)" stroke="none" fill="#93822A"/>

<path d="M63 324 c-9 -23 9 -48 37 -52 26 -4 113 18 105 26 -6 6 -115 42 -128 42 -4 0 -10 -7 -14 -16z" transform="translate(0,101) scale(0.1,-0.1)" stroke="none" fill="#93822A"/>

<path d="M777 718 c-16 -12 -16 -20 -3 -102 13 -80 26 -121 26 -85 0 8 11 36 25 63 31 62 32 100 3 120 -27 19 -30 19 -51 4z" transform="translate(0,101) scale(0.1,-0.1)" stroke="none" fill="#93822A"/>

<path d="M572 925 c-19 -24 -49 -121 -40 -130 8 -8 97 55 116 83 19 26 20 31 6 50 -20 29 -58 28 -82 -3z" transform="translate(0,101) scale(0.1,-0.1)" stroke="none" fill="#93822A"/>

<path d="M446 479 c49 -57 101 -149 124 -218 17 -51 20 -77 15 -126 -8 -68 4 -89 47 -83 39 5 37 61 -4 114 -28 35 -52 118 -32 110 7 -3 30 -8 51 -11 21 -4 59 -18 86 -31 26 -14 57 -24 69 -22 26 4 43 30 35 52 -5 13 -24 16 -119 16 -73 1 -119 5 -129 13 -13 10 -69 107 -69 119 0 2 53 2 118 1 146 -3 212 -24 285 -91 39 -37 52 -44 65 -35 47 29 14 75 -63 88 -22 4 -65 17 -95 28 l-56 21 58 28 c32 15 58 30 58 33 0 3 -19 -4 -42 -16 -23 -12 -55 -23 -71 -26 l-30 -5 22 28 c38 49 22 50 -20 2 -40 -48 -41 -48 -102 -48 -102 1 -144 14 -190 56 l-41 39 30 -36z" transform="translate(0,101) scale(0.1,-0.1)" stroke="none" fill="#93822A"/>

<path d="M208 693 c158 -124 160 -127 169 -233 5 -59 3 -69 -18 -94 -14 -15 -49 -36 -79 -46 -32 -11 -45 -19 -32 -20 12 0 39 7 59 15 19 8 37 15 39 15 11 0 -43 -90 -77 -129 -43 -48 -49 -79 -20 -105 32 -29 51 -11 51 50 0 40 8 70 32 119 33 66 48 81 48 46 0 -10 8 -29 19 -42 10 -13 22 -38 25 -56 15 -67 67 -103 97 -67 12 14 5 25 -58 83 l-72 66 -3 127 c-2 82 1 124 7 121 6 -3 -12 18 -40 47 -49 51 -49 52 -20 46 85 -19 139 -39 159 -60 11 -13 40 -35 63 -50 47 -31 74 -29 91 9 9 19 8 28 -8 47 -15 19 -31 24 -97 29 -75 6 -242 42 -273 59 -8 4 -14 13 -13 19 2 6 -6 11 -16 11 -11 0 -28 3 -38 6 -14 4 -12 1 5 -13z" transform="translate(0,101) scale(0.1,-0.1)" stroke="none" fill="#93822A"/>

</g>

<g id="1" transform="translate(0,101.0)scale(0.8,0.8)">

<path d="M972 613 c-14 -6 -66 -102 -58 -110 3 -3 24 6 48 19 31 17 44 30 46 49 3 28 -15 49 -36 42z" transform="translate(0,101) scale(0.1,-0.1)" stroke="none" fill="#93822A"/>

<path d="M63 324 c-9 -23 9 -48 37 -52 26 -4 113 18 105 26 -6 6 -115 42 -128 42 -4 0 -10 -7 -14 -16z" transform="translate(0,101) scale(0.1,-0.1)" stroke="none" fill="#93822A"/>

<path d="M777 718 c-16 -12 -16 -20 -3 -102 13 -80 26 -121 26 -85 0 8 11 36 25 63 31 62 32 100 3 120 -27 19 -30 19 -51 4z" transform="translate(0,101) scale(0.1,-0.1)" stroke="none" fill="#93822A"/>

<path d="M572 925 c-19 -24 -49 -121 -40 -130 8 -8 97 55 116 83 19 26 20 31 6 50 -20 29 -58 28 -82 -3z" transform="translate(0,101) scale(0.1,-0.1)" stroke="none" fill="#93822A"/>

<path d="M446 479 c49 -57 101 -149 124 -218 17 -51 20 -77 15 -126 -8 -68 4 -89 47 -83 39 5 37 61 -4 114 -28 35 -52 118 -32 110 7 -3 30 -8 51 -11 21 -4 59 -18 86 -31 26 -14 57 -24 69 -22 26 4 43 30 35 52 -5 13 -24 16 -119 16 -73 1 -119 5 -129 13 -13 10 -69 107 -69 119 0 2 53 2 118 1 146 -3 212 -24 285 -91 39 -37 52 -44 65 -35 47 29 14 75 -63 88 -22 4 -65 17 -95 28 l-56 21 58 28 c32 15 58 30 58 33 0 3 -19 -4 -42 -16 -23 -12 -55 -23 -71 -26 l-30 -5 22 28 c38 49 22 50 -20 2 -40 -48 -41 -48 -102 -48 -102 1 -144 14 -190 56 l-41 39 30 -36z" transform="translate(0,101) scale(0.1,-0.1)" stroke="none" fill="#93822A"/>

<path d="M208 693 c158 -124 160 -127 169 -233 5 -59 3 -69 -18 -94 -14 -15 -49 -36 -79 -46 -32 -11 -45 -19 -32 -20 12 0 39 7 59 15 19 8 37 15 39 15 11 0 -43 -90 -77 -129 -43 -48 -49 -79 -20 -105 32 -29 51 -11 51 50 0 40 8 70 32 119 33 66 48 81 48 46 0 -10 8 -29 19 -42 10 -13 22 -38 25 -56 15 -67 67 -103 97 -67 12 14 5 25 -58 83 l-72 66 -3 127 c-2 82 1 124 7 121 6 -3 -12 18 -40 47 -49 51 -49 52 -20 46 85 -19 139 -39 159 -60 11 -13 40 -35 63 -50 47 -31 74 -29 91 9 9 19 8 28 -8 47 -15 19 -31 24 -97 29 -75 6 -242 42 -273 59 -8 4 -14 13 -13 19 2 6 -6 11 -16 11 -11 0 -28 3 -38 6 -14 4 -12 1 5 -13z" transform="translate(0,101) scale(0.1,-0.1)" stroke="none" fill="#93822A"/>

</g>

<g id="2" transform="translate(0,202.0)scale(0.8,0.8)">

<path d="M972 613 c-14 -6 -66 -102 -58 -110 3 -3 24 6 48 19 31 17 44 30 46 49 3 28 -15 49 -36 42z" transform="translate(0,101) scale(0.1,-0.1)" stroke="none" fill="#93822A"/>

<path d="M63 324 c-9 -23 9 -48 37 -52 26 -4 113 18 105 26 -6 6 -115 42 -128 42 -4 0 -10 -7 -14 -16z" transform="translate(0,101) scale(0.1,-0.1)" stroke="none" fill="#93822A"/>

<path d="M777 718 c-16 -12 -16 -20 -3 -102 13 -80 26 -121 26 -85 0 8 11 36 25 63 31 62 32 100 3 120 -27 19 -30 19 -51 4z" transform="translate(0,101) scale(0.1,-0.1)" stroke="none" fill="#93822A"/>

<path d="M572 925 c-19 -24 -49 -121 -40 -130 8 -8 97 55 116 83 19 26 20 31 6 50 -20 29 -58 28 -82 -3z" transform="translate(0,101) scale(0.1,-0.1)" stroke="none" fill="#93822A"/>

<path d="M446 479 c49 -57 101 -149 124 -218 17 -51 20 -77 15 -126 -8 -68 4 -89 47 -83 39 5 37 61 -4 114 -28 35 -52 118 -32 110 7 -3 30 -8 51 -11 21 -4 59 -18 86 -31 26 -14 57 -24 69 -22 26 4 43 30 35 52 -5 13 -24 16 -119 16 -73 1 -119 5 -129 13 -13 10 -69 107 -69 119 0 2 53 2 118 1 146 -3 212 -24 285 -91 39 -37 52 -44 65 -35 47 29 14 75 -63 88 -22 4 -65 17 -95 28 l-56 21 58 28 c32 15 58 30 58 33 0 3 -19 -4 -42 -16 -23 -12 -55 -23 -71 -26 l-30 -5 22 28 c38 49 22 50 -20 2 -40 -48 -41 -48 -102 -48 -102 1 -144 14 -190 56 l-41 39 30 -36z" transform="translate(0,101) scale(0.1,-0.1)" stroke="none" fill="#93822A"/>

<path d="M208 693 c158 -124 160 -127 169 -233 5 -59 3 -69 -18 -94 -14 -15 -49 -36 -79 -46 -32 -11 -45 -19 -32 -20 12 0 39 7 59 15 19 8 37 15 39 15 11 0 -43 -90 -77 -129 -43 -48 -49 -79 -20 -105 32 -29 51 -11 51 50 0 40 8 70 32 119 33 66 48 81 48 46 0 -10 8 -29 19 -42 10 -13 22 -38 25 -56 15 -67 67 -103 97 -67 12 14 5 25 -58 83 l-72 66 -3 127 c-2 82 1 124 7 121 6 -3 -12 18 -40 47 -49 51 -49 52 -20 46 85 -19 139 -39 159 -60 11 -13 40 -35 63 -50 47 -31 74 -29 91 9 9 19 8 28 -8 47 -15 19 -31 24 -97 29 -75 6 -242 42 -273 59 -8 4 -14 13 -13 19 2 6 -6 11 -16 11 -11 0 -28 3 -38 6 -14 4 -12 1 5 -13z" transform="translate(0,101) scale(0.1,-0.1)" stroke="none" fill="#93822A"/>

</g>

<g id="3" transform="translate(0,303.0)scale(0.8,0.8)">

<path d="M972 613 c-14 -6 -66 -102 -58 -110 3 -3 24 6 48 19 31 17 44 30 46 49 3 28 -15 49 -36 42z" transform="translate(0,101) scale(0.1,-0.1)" stroke="none" fill="#93822A"/>

<path d="M63 324 c-9 -23 9 -48 37 -52 26 -4 113 18 105 26 -6 6 -115 42 -128 42 -4 0 -10 -7 -14 -16z" transform="translate(0,101) scale(0.1,-0.1)" stroke="none" fill="#93822A"/>

<path d="M777 718 c-16 -12 -16 -20 -3 -102 13 -80 26 -121 26 -85 0 8 11 36 25 63 31 62 32 100 3 120 -27 19 -30 19 -51 4z" transform="translate(0,101) scale(0.1,-0.1)" stroke="none" fill="#93822A"/>

<path d="M572 925 c-19 -24 -49 -121 -40 -130 8 -8 97 55 116 83 19 26 20 31 6 50 -20 29 -58 28 -82 -3z" transform="translate(0,101) scale(0.1,-0.1)" stroke="none" fill="#93822A"/>

<path d="M446 479 c49 -57 101 -149 124 -218 17 -51 20 -77 15 -126 -8 -68 4 -89 47 -83 39 5 37 61 -4 114 -28 35 -52 118 -32 110 7 -3 30 -8 51 -11 21 -4 59 -18 86 -31 26 -14 57 -24 69 -22 26 4 43 30 35 52 -5 13 -24 16 -119 16 -73 1 -119 5 -129 13 -13 10 -69 107 -69 119 0 2 53 2 118 1 146 -3 212 -24 285 -91 39 -37 52 -44 65 -35 47 29 14 75 -63 88 -22 4 -65 17 -95 28 l-56 21 58 28 c32 15 58 30 58 33 0 3 -19 -4 -42 -16 -23 -12 -55 -23 -71 -26 l-30 -5 22 28 c38 49 22 50 -20 2 -40 -48 -41 -48 -102 -48 -102 1 -144 14 -190 56 l-41 39 30 -36z" transform="translate(0,101) scale(0.1,-0.1)" stroke="none" fill="#93822A"/>

<path d="M208 693 c158 -124 160 -127 169 -233 5 -59 3 -69 -18 -94 -14 -15 -49 -36 -79 -46 -32 -11 -45 -19 -32 -20 12 0 39 7 59 15 19 8 37 15 39 15 11 0 -43 -90 -77 -129 -43 -48 -49 -79 -20 -105 32 -29 51 -11 51 50 0 40 8 70 32 119 33 66 48 81 48 46 0 -10 8 -29 19 -42 10 -13 22 -38 25 -56 15 -67 67 -103 97 -67 12 14 5 25 -58 83 l-72 66 -3 127 c-2 82 1 124 7 121 6 -3 -12 18 -40 47 -49 51 -49 52 -20 46 85 -19 139 -39 159 -60 11 -13 40 -35 63 -50 47 -31 74 -29 91 9 9 19 8 28 -8 47 -15 19 -31 24 -97 29 -75 6 -242 42 -273 59 -8 4 -14 13 -13 19 2 6 -6 11 -16 11 -11 0 -28 3 -38 6 -14 4 -12 1 5 -13z" transform="translate(0,101) scale(0.1,-0.1)" stroke="none" fill="#93822A"/>

</g>

<g id="4" transform="translate(0,404.0)scale(0.8,0.8)">

<path d="M972 613 c-14 -6 -66 -102 -58 -110 3 -3 24 6 48 19 31 17 44 30 46 49 3 28 -15 49 -36 42z" transform="translate(0,101) scale(0.1,-0.1)" stroke="none" fill="#93822A"/>

<path d="M63 324 c-9 -23 9 -48 37 -52 26 -4 113 18 105 26 -6 6 -115 42 -128 42 -4 0 -10 -7 -14 -16z" transform="translate(0,101) scale(0.1,-0.1)" stroke="none" fill="#93822A"/>

<path d="M777 718 c-16 -12 -16 -20 -3 -102 13 -80 26 -121 26 -85 0 8 11 36 25 63 31 62 32 100 3 120 -27 19 -30 19 -51 4z" transform="translate(0,101) scale(0.1,-0.1)" stroke="none" fill="#93822A"/>

<path d="M572 925 c-19 -24 -49 -121 -40 -130 8 -8 97 55 116 83 19 26 20 31 6 50 -20 29 -58 28 -82 -3z" transform="translate(0,101) scale(0.1,-0.1)" stroke="none" fill="#93822A"/>

<path d="M446 479 c49 -57 101 -149 124 -218 17 -51 20 -77 15 -126 -8 -68 4 -89 47 -83 39 5 37 61 -4 114 -28 35 -52 118 -32 110 7 -3 30 -8 51 -11 21 -4 59 -18 86 -31 26 -14 57 -24 69 -22 26 4 43 30 35 52 -5 13 -24 16 -119 16 -73 1 -119 5 -129 13 -13 10 -69 107 -69 119 0 2 53 2 118 1 146 -3 212 -24 285 -91 39 -37 52 -44 65 -35 47 29 14 75 -63 88 -22 4 -65 17 -95 28 l-56 21 58 28 c32 15 58 30 58 33 0 3 -19 -4 -42 -16 -23 -12 -55 -23 -71 -26 l-30 -5 22 28 c38 49 22 50 -20 2 -40 -48 -41 -48 -102 -48 -102 1 -144 14 -190 56 l-41 39 30 -36z" transform="translate(0,101) scale(0.1,-0.1)" stroke="none" fill="#93822A"/>

<path d="M208 693 c158 -124 160 -127 169 -233 5 -59 3 -69 -18 -94 -14 -15 -49 -36 -79 -46 -32 -11 -45 -19 -32 -20 12 0 39 7 59 15 19 8 37 15 39 15 11 0 -43 -90 -77 -129 -43 -48 -49 -79 -20 -105 32 -29 51 -11 51 50 0 40 8 70 32 119 33 66 48 81 48 46 0 -10 8 -29 19 -42 10 -13 22 -38 25 -56 15 -67 67 -103 97 -67 12 14 5 25 -58 83 l-72 66 -3 127 c-2 82 1 124 7 121 6 -3 -12 18 -40 47 -49 51 -49 52 -20 46 85 -19 139 -39 159 -60 11 -13 40 -35 63 -50 47 -31 74 -29 91 9 9 19 8 28 -8 47 -15 19 -31 24 -97 29 -75 6 -242 42 -273 59 -8 4 -14 13 -13 19 2 6 -6 11 -16 11 -11 0 -28 3 -38 6 -14 4 -12 1 5 -13z" transform="translate(0,101) scale(0.1,-0.1)" stroke="none" fill="#93822A"/>

</g>

</g>
<g id="col2" transform="translate(212, 13)">
<g id="0" transform="translate(0,0.0)scale(0.8,0.8)">

<path d="M972 613 c-14 -6 -66 -102 -58 -110 3 -3 24 6 48 19 31 17 44 30 46 49 3 28 -15 49 -36 42z" transform="translate(0,101) scale(0.1,-0.1)" stroke="none" fill="#93822A"/>

<path d="M63 324 c-9 -23 9 -48 37 -52 26 -4 113 18 105 26 -6 6 -115 42 -128 42 -4 0 -10 -7 -14 -16z" transform="translate(0,101) scale(0.1,-0.1)" stroke="none" fill="#93822A"/>

<path d="M777 718 c-16 -12 -16 -20 -3 -102 13 -80 26 -121 26 -85 0 8 11 36 25 63 31 62 32 100 3 120 -27 19 -30 19 -51 4z" transform="translate(0,101) scale(0.1,-0.1)" stroke="none" fill="#93822A"/>

<path d="M572 925 c-19 -24 -49 -121 -40 -130 8 -8 97 55 116 83 19 26 20 31 6 50 -20 29 -58 28 -82 -3z" transform="translate(0,101) scale(0.1,-0.1)" stroke="none" fill="#93822A"/>

<path d="M446 479 c49 -57 101 -149 124 -218 17 -51 20 -77 15 -126 -8 -68 4 -89 47 -83 39 5 37 61 -4 114 -28 35 -52 118 -32 110 7 -3 30 -8 51 -11 21 -4 59 -18 86 -31 26 -14 57 -24 69 -22 26 4 43 30 35 52 -5 13 -24 16 -119 16 -73 1 -119 5 -129 13 -13 10 -69 107 -69 119 0 2 53 2 118 1 146 -3 212 -24 285 -91 39 -37 52 -44 65 -35 47 29 14 75 -63 88 -22 4 -65 17 -95 28 l-56 21 58 28 c32 15 58 30 58 33 0 3 -19 -4 -42 -16 -23 -12 -55 -23 -71 -26 l-30 -5 22 28 c38 49 22 50 -20 2 -40 -48 -41 -48 -102 -48 -102 1 -144 14 -190 56 l-41 39 30 -36z" transform="translate(0,101) scale(0.1,-0.1)" stroke="none" fill="#93822A"/>

<path d="M208 693 c158 -124 160 -127 169 -233 5 -59 3 -69 -18 -94 -14 -15 -49 -36 -79 -46 -32 -11 -45 -19 -32 -20 12 0 39 7 59 15 19 8 37 15 39 15 11 0 -43 -90 -77 -129 -43 -48 -49 -79 -20 -105 32 -29 51 -11 51 50 0 40 8 70 32 119 33 66 48 81 48 46 0 -10 8 -29 19 -42 10 -13 22 -38 25 -56 15 -67 67 -103 97 -67 12 14 5 25 -58 83 l-72 66 -3 127 c-2 82 1 124 7 121 6 -3 -12 18 -40 47 -49 51 -49 52 -20 46 85 -19 139 -39 159 -60 11 -13 40 -35 63 -50 47 -31 74 -29 91 9 9 19 8 28 -8 47 -15 19 -31 24 -97 29 -75 6 -242 42 -273 59 -8 4 -14 13 -13 19 2 6 -6 11 -16 11 -11 0 -28 3 -38 6 -14 4 -12 1 5 -13z" transform="translate(0,101) scale(0.1,-0.1)" stroke="none" fill="#93822A"/>

</g>

<g id="1" transform="translate(0,101.0)scale(0.8,0.8)">

<path d="M972 613 c-14 -6 -66 -102 -58 -110 3 -3 24 6 48 19 31 17 44 30 46 49 3 28 -15 49 -36 42z" transform="translate(0,101) scale(0.1,-0.1)" stroke="none" fill="#93822A"/>

<path d="M63 324 c-9 -23 9 -48 37 -52 26 -4 113 18 105 26 -6 6 -115 42 -128 42 -4 0 -10 -7 -14 -16z" transform="translate(0,101) scale(0.1,-0.1)" stroke="none" fill="#93822A"/>

<path d="M777 718 c-16 -12 -16 -20 -3 -102 13 -80 26 -121 26 -85 0 8 11 36 25 63 31 62 32 100 3 120 -27 19 -30 19 -51 4z" transform="translate(0,101) scale(0.1,-0.1)" stroke="none" fill="#93822A"/>

<path d="M572 925 c-19 -24 -49 -121 -40 -130 8 -8 97 55 116 83 19 26 20 31 6 50 -20 29 -58 28 -82 -3z" transform="translate(0,101) scale(0.1,-0.1)" stroke="none" fill="#93822A"/>

<path d="M446 479 c49 -57 101 -149 124 -218 17 -51 20 -77 15 -126 -8 -68 4 -89 47 -83 39 5 37 61 -4 114 -28 35 -52 118 -32 110 7 -3 30 -8 51 -11 21 -4 59 -18 86 -31 26 -14 57 -24 69 -22 26 4 43 30 35 52 -5 13 -24 16 -119 16 -73 1 -119 5 -129 13 -13 10 -69 107 -69 119 0 2 53 2 118 1 146 -3 212 -24 285 -91 39 -37 52 -44 65 -35 47 29 14 75 -63 88 -22 4 -65 17 -95 28 l-56 21 58 28 c32 15 58 30 58 33 0 3 -19 -4 -42 -16 -23 -12 -55 -23 -71 -26 l-30 -5 22 28 c38 49 22 50 -20 2 -40 -48 -41 -48 -102 -48 -102 1 -144 14 -190 56 l-41 39 30 -36z" transform="translate(0,101) scale(0.1,-0.1)" stroke="none" fill="#93822A"/>

<path d="M208 693 c158 -124 160 -127 169 -233 5 -59 3 -69 -18 -94 -14 -15 -49 -36 -79 -46 -32 -11 -45 -19 -32 -20 12 0 39 7 59 15 19 8 37 15 39 15 11 0 -43 -90 -77 -129 -43 -48 -49 -79 -20 -105 32 -29 51 -11 51 50 0 40 8 70 32 119 33 66 48 81 48 46 0 -10 8 -29 19 -42 10 -13 22 -38 25 -56 15 -67 67 -103 97 -67 12 14 5 25 -58 83 l-72 66 -3 127 c-2 82 1 124 7 121 6 -3 -12 18 -40 47 -49 51 -49 52 -20 46 85 -19 139 -39 159 -60 11 -13 40 -35 63 -50 47 -31 74 -29 91 9 9 19 8 28 -8 47 -15 19 -31 24 -97 29 -75 6 -242 42 -273 59 -8 4 -14 13 -13 19 2 6 -6 11 -16 11 -11 0 -28 3 -38 6 -14 4 -12 1 5 -13z" transform="translate(0,101) scale(0.1,-0.1)" stroke="none" fill="#93822A"/>

</g>

<g id="2" transform="translate(0,202.0)scale(0.8,0.8)">

<path d="M972 613 c-14 -6 -66 -102 -58 -110 3 -3 24 6 48 19 31 17 44 30 46 49 3 28 -15 49 -36 42z" transform="translate(0,101) scale(0.1,-0.1)" stroke="none" fill="#93822A"/>

<path d="M63 324 c-9 -23 9 -48 37 -52 26 -4 113 18 105 26 -6 6 -115 42 -128 42 -4 0 -10 -7 -14 -16z" transform="translate(0,101) scale(0.1,-0.1)" stroke="none" fill="#93822A"/>

<path d="M777 718 c-16 -12 -16 -20 -3 -102 13 -80 26 -121 26 -85 0 8 11 36 25 63 31 62 32 100 3 120 -27 19 -30 19 -51 4z" transform="translate(0,101) scale(0.1,-0.1)" stroke="none" fill="#93822A"/>

<path d="M572 925 c-19 -24 -49 -121 -40 -130 8 -8 97 55 116 83 19 26 20 31 6 50 -20 29 -58 28 -82 -3z" transform="translate(0,101) scale(0.1,-0.1)" stroke="none" fill="#93822A"/>

<path d="M446 479 c49 -57 101 -149 124 -218 17 -51 20 -77 15 -126 -8 -68 4 -89 47 -83 39 5 37 61 -4 114 -28 35 -52 118 -32 110 7 -3 30 -8 51 -11 21 -4 59 -18 86 -31 26 -14 57 -24 69 -22 26 4 43 30 35 52 -5 13 -24 16 -119 16 -73 1 -119 5 -129 13 -13 10 -69 107 -69 119 0 2 53 2 118 1 146 -3 212 -24 285 -91 39 -37 52 -44 65 -35 47 29 14 75 -63 88 -22 4 -65 17 -95 28 l-56 21 58 28 c32 15 58 30 58 33 0 3 -19 -4 -42 -16 -23 -12 -55 -23 -71 -26 l-30 -5 22 28 c38 49 22 50 -20 2 -40 -48 -41 -48 -102 -48 -102 1 -144 14 -190 56 l-41 39 30 -36z" transform="translate(0,101) scale(0.1,-0.1)" stroke="none" fill="#93822A"/>

<path d="M208 693 c158 -124 160 -127 169 -233 5 -59 3 -69 -18 -94 -14 -15 -49 -36 -79 -46 -32 -11 -45 -19 -32 -20 12 0 39 7 59 15 19 8 37 15 39 15 11 0 -43 -90 -77 -129 -43 -48 -49 -79 -20 -105 32 -29 51 -11 51 50 0 40 8 70 32 119 33 66 48 81 48 46 0 -10 8 -29 19 -42 10 -13 22 -38 25 -56 15 -67 67 -103 97 -67 12 14 5 25 -58 83 l-72 66 -3 127 c-2 82 1 124 7 121 6 -3 -12 18 -40 47 -49 51 -49 52 -20 46 85 -19 139 -39 159 -60 11 -13 40 -35 63 -50 47 -31 74 -29 91 9 9 19 8 28 -8 47 -15 19 -31 24 -97 29 -75 6 -242 42 -273 59 -8 4 -14 13 -13 19 2 6 -6 11 -16 11 -11 0 -28 3 -38 6 -14 4 -12 1 5 -13z" transform="translate(0,101) scale(0.1,-0.1)" stroke="none" fill="#93822A"/>

</g>

<g id="3" transform="translate(0,303.0)scale(0.8,0.8)">

<path d="M972 613 c-14 -6 -66 -102 -58 -110 3 -3 24 6 48 19 31 17 44 30 46 49 3 28 -15 49 -36 42z" transform="translate(0,101) scale(0.1,-0.1)" stroke="none" fill="#93822A"/>

<path d="M63 324 c-9 -23 9 -48 37 -52 26 -4 113 18 105 26 -6 6 -115 42 -128 42 -4 0 -10 -7 -14 -16z" transform="translate(0,101) scale(0.1,-0.1)" stroke="none" fill="#93822A"/>

<path d="M777 718 c-16 -12 -16 -20 -3 -102 13 -80 26 -121 26 -85 0 8 11 36 25 63 31 62 32 100 3 120 -27 19 -30 19 -51 4z" transform="translate(0,101) scale(0.1,-0.1)" stroke="none" fill="#93822A"/>

<path d="M572 925 c-19 -24 -49 -121 -40 -130 8 -8 97 55 116 83 19 26 20 31 6 50 -20 29 -58 28 -82 -3z" transform="translate(0,101) scale(0.1,-0.1)" stroke="none" fill="#93822A"/>

<path d="M446 479 c49 -57 101 -149 124 -218 17 -51 20 -77 15 -126 -8 -68 4 -89 47 -83 39 5 37 61 -4 114 -28 35 -52 118 -32 110 7 -3 30 -8 51 -11 21 -4 59 -18 86 -31 26 -14 57 -24 69 -22 26 4 43 30 35 52 -5 13 -24 16 -119 16 -73 1 -119 5 -129 13 -13 10 -69 107 -69 119 0 2 53 2 118 1 146 -3 212 -24 285 -91 39 -37 52 -44 65 -35 47 29 14 75 -63 88 -22 4 -65 17 -95 28 l-56 21 58 28 c32 15 58 30 58 33 0 3 -19 -4 -42 -16 -23 -12 -55 -23 -71 -26 l-30 -5 22 28 c38 49 22 50 -20 2 -40 -48 -41 -48 -102 -48 -102 1 -144 14 -190 56 l-41 39 30 -36z" transform="translate(0,101) scale(0.1,-0.1)" stroke="none" fill="#93822A"/>

<path d="M208 693 c158 -124 160 -127 169 -233 5 -59 3 -69 -18 -94 -14 -15 -49 -36 -79 -46 -32 -11 -45 -19 -32 -20 12 0 39 7 59 15 19 8 37 15 39 15 11 0 -43 -90 -77 -129 -43 -48 -49 -79 -20 -105 32 -29 51 -11 51 50 0 40 8 70 32 119 33 66 48 81 48 46 0 -10 8 -29 19 -42 10 -13 22 -38 25 -56 15 -67 67 -103 97 -67 12 14 5 25 -58 83 l-72 66 -3 127 c-2 82 1 124 7 121 6 -3 -12 18 -40 47 -49 51 -49 52 -20 46 85 -19 139 -39 159 -60 11 -13 40 -35 63 -50 47 -31 74 -29 91 9 9 19 8 28 -8 47 -15 19 -31 24 -97 29 -75 6 -242 42 -273 59 -8 4 -14 13 -13 19 2 6 -6 11 -16 11 -11 0 -28 3 -38 6 -14 4 -12 1 5 -13z" transform="translate(0,101) scale(0.1,-0.1)" stroke="none" fill="#93822A"/>

</g>

<g id="4" transform="translate(0,404.0)scale(0.8,0.8)">

<path d="M972 613 c-14 -6 -66 -102 -58 -110 3 -3 24 6 48 19 31 17 44 30 46 49 3 28 -15 49 -36 42z" transform="translate(0,101) scale(0.1,-0.1)" stroke="none" fill="#93822A"/>

<path d="M63 324 c-9 -23 9 -48 37 -52 26 -4 113 18 105 26 -6 6 -115 42 -128 42 -4 0 -10 -7 -14 -16z" transform="translate(0,101) scale(0.1,-0.1)" stroke="none" fill="#93822A"/>

<path d="M777 718 c-16 -12 -16 -20 -3 -102 13 -80 26 -121 26 -85 0 8 11 36 25 63 31 62 32 100 3 120 -27 19 -30 19 -51 4z" transform="translate(0,101) scale(0.1,-0.1)" stroke="none" fill="#93822A"/>

<path d="M572 925 c-19 -24 -49 -121 -40 -130 8 -8 97 55 116 83 19 26 20 31 6 50 -20 29 -58 28 -82 -3z" transform="translate(0,101) scale(0.1,-0.1)" stroke="none" fill="#93822A"/>

<path d="M446 479 c49 -57 101 -149 124 -218 17 -51 20 -77 15 -126 -8 -68 4 -89 47 -83 39 5 37 61 -4 114 -28 35 -52 118 -32 110 7 -3 30 -8 51 -11 21 -4 59 -18 86 -31 26 -14 57 -24 69 -22 26 4 43 30 35 52 -5 13 -24 16 -119 16 -73 1 -119 5 -129 13 -13 10 -69 107 -69 119 0 2 53 2 118 1 146 -3 212 -24 285 -91 39 -37 52 -44 65 -35 47 29 14 75 -63 88 -22 4 -65 17 -95 28 l-56 21 58 28 c32 15 58 30 58 33 0 3 -19 -4 -42 -16 -23 -12 -55 -23 -71 -26 l-30 -5 22 28 c38 49 22 50 -20 2 -40 -48 -41 -48 -102 -48 -102 1 -144 14 -190 56 l-41 39 30 -36z" transform="translate(0,101) scale(0.1,-0.1)" stroke="none" fill="#93822A"/>

<path d="M208 693 c158 -124 160 -127 169 -233 5 -59 3 -69 -18 -94 -14 -15 -49 -36 -79 -46 -32 -11 -45 -19 -32 -20 12 0 39 7 59 15 19 8 37 15 39 15 11 0 -43 -90 -77 -129 -43 -48 -49 -79 -20 -105 32 -29 51 -11 51 50 0 40 8 70 32 119 33 66 48 81 48 46 0 -10 8 -29 19 -42 10 -13 22 -38 25 -56 15 -67 67 -103 97 -67 12 14 5 25 -58 83 l-72 66 -3 127 c-2 82 1 124 7 121 6 -3 -12 18 -40 47 -49 51 -49 52 -20 46 85 -19 139 -39 159 -60 11 -13 40 -35 63 -50 47 -31 74 -29 91 9 9 19 8 28 -8 47 -15 19 -31 24 -97 29 -75 6 -242 42 -273 59 -8 4 -14 13 -13 19 2 6 -6 11 -16 11 -11 0 -28 3 -38 6 -14 4 -12 1 5 -13z" transform="translate(0,101) scale(0.1,-0.1)" stroke="none" fill="#93822A"/>

</g>

</g>
<g id="col3" transform="translate(318, -37.5)">
<g id="0" transform="translate(0,0.0)scale(0.8,0.8)">

<path d="M972 613 c-14 -6 -66 -102 -58 -110 3 -3 24 6 48 19 31 17 44 30 46 49 3 28 -15 49 -36 42z" transform="translate(0,101) scale(0.1,-0.1)" stroke="none" fill="#93822A"/>

<path d="M63 324 c-9 -23 9 -48 37 -52 26 -4 113 18 105 26 -6 6 -115 42 -128 42 -4 0 -10 -7 -14 -16z" transform="translate(0,101) scale(0.1,-0.1)" stroke="none" fill="#93822A"/>

<path d="M777 718 c-16 -12 -16 -20 -3 -102 13 -80 26 -121 26 -85 0 8 11 36 25 63 31 62 32 100 3 120 -27 19 -30 19 -51 4z" transform="translate(0,101) scale(0.1,-0.1)" stroke="none" fill="#93822A"/>

<path d="M572 925 c-19 -24 -49 -121 -40 -130 8 -8 97 55 116 83 19 26 20 31 6 50 -20 29 -58 28 -82 -3z" transform="translate(0,101) scale(0.1,-0.1)" stroke="none" fill="#93822A"/>

<path d="M446 479 c49 -57 101 -149 124 -218 17 -51 20 -77 15 -126 -8 -68 4 -89 47 -83 39 5 37 61 -4 114 -28 35 -52 118 -32 110 7 -3 30 -8 51 -11 21 -4 59 -18 86 -31 26 -14 57 -24 69 -22 26 4 43 30 35 52 -5 13 -24 16 -119 16 -73 1 -119 5 -129 13 -13 10 -69 107 -69 119 0 2 53 2 118 1 146 -3 212 -24 285 -91 39 -37 52 -44 65 -35 47 29 14 75 -63 88 -22 4 -65 17 -95 28 l-56 21 58 28 c32 15 58 30 58 33 0 3 -19 -4 -42 -16 -23 -12 -55 -23 -71 -26 l-30 -5 22 28 c38 49 22 50 -20 2 -40 -48 -41 -48 -102 -48 -102 1 -144 14 -190 56 l-41 39 30 -36z" transform="translate(0,101) scale(0.1,-0.1)" stroke="none" fill="#93822A"/>

<path d="M208 693 c158 -124 160 -127 169 -233 5 -59 3 -69 -18 -94 -14 -15 -49 -36 -79 -46 -32 -11 -45 -19 -32 -20 12 0 39 7 59 15 19 8 37 15 39 15 11 0 -43 -90 -77 -129 -43 -48 -49 -79 -20 -105 32 -29 51 -11 51 50 0 40 8 70 32 119 33 66 48 81 48 46 0 -10 8 -29 19 -42 10 -13 22 -38 25 -56 15 -67 67 -103 97 -67 12 14 5 25 -58 83 l-72 66 -3 127 c-2 82 1 124 7 121 6 -3 -12 18 -40 47 -49 51 -49 52 -20 46 85 -19 139 -39 159 -60 11 -13 40 -35 63 -50 47 -31 74 -29 91 9 9 19 8 28 -8 47 -15 19 -31 24 -97 29 -75 6 -242 42 -273 59 -8 4 -14 13 -13 19 2 6 -6 11 -16 11 -11 0 -28 3 -38 6 -14 4 -12 1 5 -13z" transform="translate(0,101) scale(0.1,-0.1)" stroke="none" fill="#93822A"/>

</g>

<g id="1" transform="translate(0,101.0)scale(0.8,0.8)">

<path d="M972 613 c-14 -6 -66 -102 -58 -110 3 -3 24 6 48 19 31 17 44 30 46 49 3 28 -15 49 -36 42z" transform="translate(0,101) scale(0.1,-0.1)" stroke="none" fill="#93822A"/>

<path d="M63 324 c-9 -23 9 -48 37 -52 26 -4 113 18 105 26 -6 6 -115 42 -128 42 -4 0 -10 -7 -14 -16z" transform="translate(0,101) scale(0.1,-0.1)" stroke="none" fill="#93822A"/>

<path d="M777 718 c-16 -12 -16 -20 -3 -102 13 -80 26 -121 26 -85 0 8 11 36 25 63 31 62 32 100 3 120 -27 19 -30 19 -51 4z" transform="translate(0,101) scale(0.1,-0.1)" stroke="none" fill="#93822A"/>

<path d="M572 925 c-19 -24 -49 -121 -40 -130 8 -8 97 55 116 83 19 26 20 31 6 50 -20 29 -58 28 -82 -3z" transform="translate(0,101) scale(0.1,-0.1)" stroke="none" fill="#93822A"/>

<path d="M446 479 c49 -57 101 -149 124 -218 17 -51 20 -77 15 -126 -8 -68 4 -89 47 -83 39 5 37 61 -4 114 -28 35 -52 118 -32 110 7 -3 30 -8 51 -11 21 -4 59 -18 86 -31 26 -14 57 -24 69 -22 26 4 43 30 35 52 -5 13 -24 16 -119 16 -73 1 -119 5 -129 13 -13 10 -69 107 -69 119 0 2 53 2 118 1 146 -3 212 -24 285 -91 39 -37 52 -44 65 -35 47 29 14 75 -63 88 -22 4 -65 17 -95 28 l-56 21 58 28 c32 15 58 30 58 33 0 3 -19 -4 -42 -16 -23 -12 -55 -23 -71 -26 l-30 -5 22 28 c38 49 22 50 -20 2 -40 -48 -41 -48 -102 -48 -102 1 -144 14 -190 56 l-41 39 30 -36z" transform="translate(0,101) scale(0.1,-0.1)" stroke="none" fill="#93822A"/>

<path d="M208 693 c158 -124 160 -127 169 -233 5 -59 3 -69 -18 -94 -14 -15 -49 -36 -79 -46 -32 -11 -45 -19 -32 -20 12 0 39 7 59 15 19 8 37 15 39 15 11 0 -43 -90 -77 -129 -43 -48 -49 -79 -20 -105 32 -29 51 -11 51 50 0 40 8 70 32 119 33 66 48 81 48 46 0 -10 8 -29 19 -42 10 -13 22 -38 25 -56 15 -67 67 -103 97 -67 12 14 5 25 -58 83 l-72 66 -3 127 c-2 82 1 124 7 121 6 -3 -12 18 -40 47 -49 51 -49 52 -20 46 85 -19 139 -39 159 -60 11 -13 40 -35 63 -50 47 -31 74 -29 91 9 9 19 8 28 -8 47 -15 19 -31 24 -97 29 -75 6 -242 42 -273 59 -8 4 -14 13 -13 19 2 6 -6 11 -16 11 -11 0 -28 3 -38 6 -14 4 -12 1 5 -13z" transform="translate(0,101) scale(0.1,-0.1)" stroke="none" fill="#93822A"/>

</g>

<g id="2" transform="translate(0,202.0)scale(0.8,0.8)">

<path d="M972 613 c-14 -6 -66 -102 -58 -110 3 -3 24 6 48 19 31 17 44 30 46 49 3 28 -15 49 -36 42z" transform="translate(0,101) scale(0.1,-0.1)" stroke="none" fill="#93822A"/>

<path d="M63 324 c-9 -23 9 -48 37 -52 26 -4 113 18 105 26 -6 6 -115 42 -128 42 -4 0 -10 -7 -14 -16z" transform="translate(0,101) scale(0.1,-0.1)" stroke="none" fill="#93822A"/>

<path d="M777 718 c-16 -12 -16 -20 -3 -102 13 -80 26 -121 26 -85 0 8 11 36 25 63 31 62 32 100 3 120 -27 19 -30 19 -51 4z" transform="translate(0,101) scale(0.1,-0.1)" stroke="none" fill="#93822A"/>

<path d="M572 925 c-19 -24 -49 -121 -40 -130 8 -8 97 55 116 83 19 26 20 31 6 50 -20 29 -58 28 -82 -3z" transform="translate(0,101) scale(0.1,-0.1)" stroke="none" fill="#93822A"/>

<path d="M446 479 c49 -57 101 -149 124 -218 17 -51 20 -77 15 -126 -8 -68 4 -89 47 -83 39 5 37 61 -4 114 -28 35 -52 118 -32 110 7 -3 30 -8 51 -11 21 -4 59 -18 86 -31 26 -14 57 -24 69 -22 26 4 43 30 35 52 -5 13 -24 16 -119 16 -73 1 -119 5 -129 13 -13 10 -69 107 -69 119 0 2 53 2 118 1 146 -3 212 -24 285 -91 39 -37 52 -44 65 -35 47 29 14 75 -63 88 -22 4 -65 17 -95 28 l-56 21 58 28 c32 15 58 30 58 33 0 3 -19 -4 -42 -16 -23 -12 -55 -23 -71 -26 l-30 -5 22 28 c38 49 22 50 -20 2 -40 -48 -41 -48 -102 -48 -102 1 -144 14 -190 56 l-41 39 30 -36z" transform="translate(0,101) scale(0.1,-0.1)" stroke="none" fill="#93822A"/>

<path d="M208 693 c158 -124 160 -127 169 -233 5 -59 3 -69 -18 -94 -14 -15 -49 -36 -79 -46 -32 -11 -45 -19 -32 -20 12 0 39 7 59 15 19 8 37 15 39 15 11 0 -43 -90 -77 -129 -43 -48 -49 -79 -20 -105 32 -29 51 -11 51 50 0 40 8 70 32 119 33 66 48 81 48 46 0 -10 8 -29 19 -42 10 -13 22 -38 25 -56 15 -67 67 -103 97 -67 12 14 5 25 -58 83 l-72 66 -3 127 c-2 82 1 124 7 121 6 -3 -12 18 -40 47 -49 51 -49 52 -20 46 85 -19 139 -39 159 -60 11 -13 40 -35 63 -50 47 -31 74 -29 91 9 9 19 8 28 -8 47 -15 19 -31 24 -97 29 -75 6 -242 42 -273 59 -8 4 -14 13 -13 19 2 6 -6 11 -16 11 -11 0 -28 3 -38 6 -14 4 -12 1 5 -13z" transform="translate(0,101) scale(0.1,-0.1)" stroke="none" fill="#93822A"/>

</g>

<g id="3" transform="translate(0,303.0)scale(0.8,0.8)">

<path d="M972 613 c-14 -6 -66 -102 -58 -110 3 -3 24 6 48 19 31 17 44 30 46 49 3 28 -15 49 -36 42z" transform="translate(0,101) scale(0.1,-0.1)" stroke="none" fill="#93822A"/>

<path d="M63 324 c-9 -23 9 -48 37 -52 26 -4 113 18 105 26 -6 6 -115 42 -128 42 -4 0 -10 -7 -14 -16z" transform="translate(0,101) scale(0.1,-0.1)" stroke="none" fill="#93822A"/>

<path d="M777 718 c-16 -12 -16 -20 -3 -102 13 -80 26 -121 26 -85 0 8 11 36 25 63 31 62 32 100 3 120 -27 19 -30 19 -51 4z" transform="translate(0,101) scale(0.1,-0.1)" stroke="none" fill="#93822A"/>

<path d="M572 925 c-19 -24 -49 -121 -40 -130 8 -8 97 55 116 83 19 26 20 31 6 50 -20 29 -58 28 -82 -3z" transform="translate(0,101) scale(0.1,-0.1)" stroke="none" fill="#93822A"/>

<path d="M446 479 c49 -57 101 -149 124 -218 17 -51 20 -77 15 -126 -8 -68 4 -89 47 -83 39 5 37 61 -4 114 -28 35 -52 118 -32 110 7 -3 30 -8 51 -11 21 -4 59 -18 86 -31 26 -14 57 -24 69 -22 26 4 43 30 35 52 -5 13 -24 16 -119 16 -73 1 -119 5 -129 13 -13 10 -69 107 -69 119 0 2 53 2 118 1 146 -3 212 -24 285 -91 39 -37 52 -44 65 -35 47 29 14 75 -63 88 -22 4 -65 17 -95 28 l-56 21 58 28 c32 15 58 30 58 33 0 3 -19 -4 -42 -16 -23 -12 -55 -23 -71 -26 l-30 -5 22 28 c38 49 22 50 -20 2 -40 -48 -41 -48 -102 -48 -102 1 -144 14 -190 56 l-41 39 30 -36z" transform="translate(0,101) scale(0.1,-0.1)" stroke="none" fill="#93822A"/>

<path d="M208 693 c158 -124 160 -127 169 -233 5 -59 3 -69 -18 -94 -14 -15 -49 -36 -79 -46 -32 -11 -45 -19 -32 -20 12 0 39 7 59 15 19 8 37 15 39 15 11 0 -43 -90 -77 -129 -43 -48 -49 -79 -20 -105 32 -29 51 -11 51 50 0 40 8 70 32 119 33 66 48 81 48 46 0 -10 8 -29 19 -42 10 -13 22 -38 25 -56 15 -67 67 -103 97 -67 12 14 5 25 -58 83 l-72 66 -3 127 c-2 82 1 124 7 121 6 -3 -12 18 -40 47 -49 51 -49 52 -20 46 85 -19 139 -39 159 -60 11 -13 40 -35 63 -50 47 -31 74 -29 91 9 9 19 8 28 -8 47 -15 19 -31 24 -97 29 -75 6 -242 42 -273 59 -8 4 -14 13 -13 19 2 6 -6 11 -16 11 -11 0 -28 3 -38 6 -14 4 -12 1 5 -13z" transform="translate(0,101) scale(0.1,-0.1)" stroke="none" fill="#93822A"/>

</g>

<g id="4" transform="translate(0,404.0)scale(0.8,0.8)">

<path d="M972 613 c-14 -6 -66 -102 -58 -110 3 -3 24 6 48 19 31 17 44 30 46 49 3 28 -15 49 -36 42z" transform="translate(0,101) scale(0.1,-0.1)" stroke="none" fill="#93822A"/>

<path d="M63 324 c-9 -23 9 -48 37 -52 26 -4 113 18 105 26 -6 6 -115 42 -128 42 -4 0 -10 -7 -14 -16z" transform="translate(0,101) scale(0.1,-0.1)" stroke="none" fill="#93822A"/>

<path d="M777 718 c-16 -12 -16 -20 -3 -102 13 -80 26 -121 26 -85 0 8 11 36 25 63 31 62 32 100 3 120 -27 19 -30 19 -51 4z" transform="translate(0,101) scale(0.1,-0.1)" stroke="none" fill="#93822A"/>

<path d="M572 925 c-19 -24 -49 -121 -40 -130 8 -8 97 55 116 83 19 26 20 31 6 50 -20 29 -58 28 -82 -3z" transform="translate(0,101) scale(0.1,-0.1)" stroke="none" fill="#93822A"/>

<path d="M446 479 c49 -57 101 -149 124 -218 17 -51 20 -77 15 -126 -8 -68 4 -89 47 -83 39 5 37 61 -4 114 -28 35 -52 118 -32 110 7 -3 30 -8 51 -11 21 -4 59 -18 86 -31 26 -14 57 -24 69 -22 26 4 43 30 35 52 -5 13 -24 16 -119 16 -73 1 -119 5 -129 13 -13 10 -69 107 -69 119 0 2 53 2 118 1 146 -3 212 -24 285 -91 39 -37 52 -44 65 -35 47 29 14 75 -63 88 -22 4 -65 17 -95 28 l-56 21 58 28 c32 15 58 30 58 33 0 3 -19 -4 -42 -16 -23 -12 -55 -23 -71 -26 l-30 -5 22 28 c38 49 22 50 -20 2 -40 -48 -41 -48 -102 -48 -102 1 -144 14 -190 56 l-41 39 30 -36z" transform="translate(0,101) scale(0.1,-0.1)" stroke="none" fill="#93822A"/>

<path d="M208 693 c158 -124 160 -127 169 -233 5 -59 3 -69 -18 -94 -14 -15 -49 -36 -79 -46 -32 -11 -45 -19 -32 -20 12 0 39 7 59 15 19 8 37 15 39 15 11 0 -43 -90 -77 -129 -43 -48 -49 -79 -20 -105 32 -29 51 -11 51 50 0 40 8 70 32 119 33 66 48 81 48 46 0 -10 8 -29 19 -42 10 -13 22 -38 25 -56 15 -67 67 -103 97 -67 12 14 5 25 -58 83 l-72 66 -3 127 c-2 82 1 124 7 121 6 -3 -12 18 -40 47 -49 51 -49 52 -20 46 85 -19 139 -39 159 -60 11 -13 40 -35 63 -50 47 -31 74 -29 91 9 9 19 8 28 -8 47 -15 19 -31 24 -97 29 -75 6 -242 42 -273 59 -8 4 -14 13 -13 19 2 6 -6 11 -16 11 -11 0 -28 3 -38 6 -14 4 -12 1 5 -13z" transform="translate(0,101) scale(0.1,-0.1)" stroke="none" fill="#93822A"/>

</g>

</g>
</svg>