<?xml version="1.0" standalone="no"?>
<!DOCTYPE svg PUBLIC "-//W3C//DTD SVG 20010904//EN"
 "http://www.w3.org/TR/2001/REC-SVG-20010904/DTD/svg10.dtd">
<svg version="1.0" xmlns="http://www.w3.org/2000/svg" width="416pt" height="568pt" viewBox="0 0 416 568" preserveAspectRatio = "xMidYMid meet" >
<metadata>
Created by ZoeQu, written in 2022
</metadata>
<rect width="416" height="568" fill="#C2CCC8"/>
<g id="row0" transform="translate(13,0.0)">
<g id="0" transform="translate(0.0,0)scale(1,1)">

<path d="M580 943 c-7 -21 -30 -73 -51 -115 -21 -43 -36 -78 -34 -78 15 0 112 216 101 227 -2 2 -9 -13 -16 -34z" transform="translate(0,142) scale(0.1,-0.1)" stroke="none" fill="#696959"/>

<path d="M430 309 c0 -68 5 -131 10 -139 7 -10 8 31 4 120 -4 74 -8 137 -10 139 -2 2 -4 -52 -4 -120z" transform="translate(0,142) scale(0.1,-0.1)" stroke="none" fill="#696959"/>

<path d="M95 1160 c-4 -6 -3 -9 2 -8 4 1 50 -41 102 -92 l94 -95 -93 103 c-51 56 -94 102 -96 102 -1 0 -6 -5 -9 -10z" transform="translate(0,142) scale(0.1,-0.1)" stroke="none" fill="#696959"/>

<path d="M775 552 c-16 -20 -60 -66 -97 -101 -38 -35 -73 -73 -79 -85 -9 -20 -9 -20 5 -3 8 10 18 19 23 20 4 1 7 6 5 10 -1 4 4 7 11 5 7 -2 12 0 12 4 0 3 30 37 66 75 55 57 98 113 87 113 -2 0 -16 -17 -33 -38z" transform="translate(0,142) scale(0.1,-0.1)" stroke="none" fill="#696959"/>

<path d="M166 511 c32 -21 73 -53 89 -71 36 -38 74 -60 104 -57 20 1 31 17 11 17 -5 0 -9 3 -7 8 1 4 -1 7 -5 7 -4 0 -24 16 -45 35 -31 29 -30 26 7 -13 26 -28 38 -47 29 -47 -19 0 -54 24 -109 75 -25 23 -61 52 -81 63 -61 37 -56 24 7 -17z" transform="translate(0,142) scale(0.1,-0.1)" stroke="none" fill="#696959"/>

<path d="M130 822 c0 -27 41 -91 101 -157 34 -38 74 -95 89 -128 22 -49 28 -56 33 -38 3 13 1 19 -6 14 -7 -4 -8 0 -4 11 5 11 3 15 -5 10 -8 -5 -9 -2 -5 10 5 11 3 15 -5 10 -8 -5 -9 -2 -5 10 4 9 3 14 -2 11 -5 -3 -13 4 -16 16 -4 11 -36 51 -71 88 -35 38 -73 88 -84 112 -11 24 -20 38 -20 31z" transform="translate(0,142) scale(0.1,-0.1)" stroke="none" fill="#696959"/>

<path d="M809 606 c-42 -29 -84 -70 -124 -122 -33 -44 -60 -81 -60 -84 0 -3 -4 -12 -9 -19 -12 -18 37 15 126 86 43 35 79 75 102 115 20 33 35 62 33 64 -2 2 -32 -16 -68 -40z m-10 -38 c-16 -31 -150 -168 -163 -168 -6 0 21 31 61 69 39 38 79 81 88 95 21 32 30 34 14 4z" transform="translate(0,142) scale(0.1,-0.1)" stroke="none" fill="#A49E98"/>

<path d="M905 879 c-49 -20 -111 -68 -209 -161 -49 -47 -74 -61 -61 -35 4 6 -6 -3 -22 -21 -15 -18 -33 -32 -39 -32 -7 0 -15 -11 -18 -24 -3 -13 -9 -32 -12 -41 -4 -9 8 -2 27 15 19 17 59 44 89 59 96 48 146 84 222 158 95 92 105 103 87 102 -8 0 -36 -9 -64 -20z m-24 -46 c-5 -10 -26 -34 -47 -53 -36 -33 -35 -32 7 17 47 56 55 63 40 36z m-91 -88 c0 -2 -10 -9 -22 -15 -22 -11 -22 -10 -4 4 21 17 26 19 26 11z" transform="translate(0,142) scale(0.1,-0.1)" stroke="none" fill="#A49E98"/>

<path d="M321 1218 c9 -68 24 -165 34 -216 9 -51 15 -95 12 -98 -3 -3 -18 14 -33 38 -88 137 -126 188 -189 250 -38 37 -74 68 -78 68 -12 0 0 -36 40 -120 39 -81 124 -175 201 -223 23 -15 42 -32 42 -37 0 -6 6 -10 14 -10 9 0 15 -20 20 -62 3 -35 10 -94 16 -133 5 -38 9 -115 9 -170 l-1 -100 -66 135 c-46 92 -96 173 -157 254 -90 119 -90 120 -93 85 -5 -58 33 -138 118 -249 91 -119 158 -213 165 -233 7 -18 -32 -19 -64 -2 -14 7 -44 33 -66 57 l-40 43 40 -36 c51 -46 86 -69 104 -69 10 0 5 10 -14 30 -15 16 -32 27 -37 24 -4 -3 -26 8 -47 25 -21 17 -41 28 -43 25 -3 -3 -27 9 -54 25 -54 35 -51 42 5 10 36 -21 36 -21 11 0 -59 49 -110 81 -110 70 0 -24 111 -160 166 -203 68 -53 132 -86 168 -86 26 0 26 0 26 -82 0 -46 3 -100 6 -120 6 -31 9 -35 20 -23 8 8 14 35 14 67 0 42 6 62 30 98 16 25 30 52 30 60 0 8 -12 -3 -26 -25 l-25 -40 5 45 5 45 -14 -35 c-7 -19 -14 -60 -15 -90 0 -44 -3 -51 -11 -37 -13 23 -6 314 10 412 9 55 20 82 51 125 89 123 113 183 123 318 5 63 5 63 -14 46 -60 -54 -141 -246 -161 -381 -6 -40 -14 -73 -17 -73 -4 0 -15 62 -25 138 -10 75 -28 198 -41 272 -13 74 -26 160 -30 190 -9 83 -16 120 -24 120 -4 0 0 -55 10 -122z m-120 -150 l93 -103 -78 75 c-71 69 -124 130 -113 130 3 0 47 -46 98 -102z m375 -162 c-23 -60 -73 -156 -81 -156 -2 0 13 35 34 78 21 42 44 94 51 115 7 21 14 36 16 34 3 -2 -6 -34 -20 -71z m-347 -221 c54 -56 122 -167 121 -197 -1 -7 -14 14 -29 48 -16 33 -56 91 -90 129 -60 66 -101 130 -101 157 0 7 10 -7 21 -32 11 -24 46 -72 78 -105z m92 -262 c13 -16 12 -17 -3 -4 -17 13 -22 21 -14 21 2 0 10 -8 17 -17z" transform="translate(0,142) scale(0.1,-0.1)" stroke="none" fill="#A49E98"/>

</g>

<g id="1" transform="translate(104.0,0)scale(1,1)">

<path d="M580 943 c-7 -21 -30 -73 -51 -115 -21 -43 -36 -78 -34 -78 15 0 112 216 101 227 -2 2 -9 -13 -16 -34z" transform="translate(0,142) scale(0.1,-0.1)" stroke="none" fill="#696959"/>

<path d="M430 309 c0 -68 5 -131 10 -139 7 -10 8 31 4 120 -4 74 -8 137 -10 139 -2 2 -4 -52 -4 -120z" transform="translate(0,142) scale(0.1,-0.1)" stroke="none" fill="#696959"/>

<path d="M95 1160 c-4 -6 -3 -9 2 -8 4 1 50 -41 102 -92 l94 -95 -93 103 c-51 56 -94 102 -96 102 -1 0 -6 -5 -9 -10z" transform="translate(0,142) scale(0.1,-0.1)" stroke="none" fill="#696959"/>

<path d="M775 552 c-16 -20 -60 -66 -97 -101 -38 -35 -73 -73 -79 -85 -9 -20 -9 -20 5 -3 8 10 18 19 23 20 4 1 7 6 5 10 -1 4 4 7 11 5 7 -2 12 0 12 4 0 3 30 37 66 75 55 57 98 113 87 113 -2 0 -16 -17 -33 -38z" transform="translate(0,142) scale(0.1,-0.1)" stroke="none" fill="#696959"/>

<path d="M166 511 c32 -21 73 -53 89 -71 36 -38 74 -60 104 -57 20 1 31 17 11 17 -5 0 -9 3 -7 8 1 4 -1 7 -5 7 -4 0 -24 16 -45 35 -31 29 -30 26 7 -13 26 -28 38 -47 29 -47 -19 0 -54 24 -109 75 -25 23 -61 52 -81 63 -61 37 -56 24 7 -17z" transform="translate(0,142) scale(0.1,-0.1)" stroke="none" fill="#696959"/>

<path d="M130 822 c0 -27 41 -91 101 -157 34 -38 74 -95 89 -128 22 -49 28 -56 33 -38 3 13 1 19 -6 14 -7 -4 -8 0 -4 11 5 11 3 15 -5 10 -8 -5 -9 -2 -5 10 5 11 3 15 -5 10 -8 -5 -9 -2 -5 10 4 9 3 14 -2 11 -5 -3 -13 4 -16 16 -4 11 -36 51 -71 88 -35 38 -73 88 -84 112 -11 24 -20 38 -20 31z" transform="translate(0,142) scale(0.1,-0.1)" stroke="none" fill="#696959"/>

<path d="M809 606 c-42 -29 -84 -70 -124 -122 -33 -44 -60 -81 -60 -84 0 -3 -4 -12 -9 -19 -12 -18 37 15 126 86 43 35 79 75 102 115 20 33 35 62 33 64 -2 2 -32 -16 -68 -40z m-10 -38 c-16 -31 -150 -168 -163 -168 -6 0 21 31 61 69 39 38 79 81 88 95 21 32 30 34 14 4z" transform="translate(0,142) scale(0.1,-0.1)" stroke="none" fill="#A49E98"/>

<path d="M905 879 c-49 -20 -111 -68 -209 -161 -49 -47 -74 -61 -61 -35 4 6 -6 -3 -22 -21 -15 -18 -33 -32 -39 -32 -7 0 -15 -11 -18 -24 -3 -13 -9 -32 -12 -41 -4 -9 8 -2 27 15 19 17 59 44 89 59 96 48 146 84 222 158 95 92 105 103 87 102 -8 0 -36 -9 -64 -20z m-24 -46 c-5 -10 -26 -34 -47 -53 -36 -33 -35 -32 7 17 47 56 55 63 40 36z m-91 -88 c0 -2 -10 -9 -22 -15 -22 -11 -22 -10 -4 4 21 17 26 19 26 11z" transform="translate(0,142) scale(0.1,-0.1)" stroke="none" fill="#A49E98"/>

<path d="M321 1218 c9 -68 24 -165 34 -216 9 -51 15 -95 12 -98 -3 -3 -18 14 -33 38 -88 137 -126 188 -189 250 -38 37 -74 68 -78 68 -12 0 0 -36 40 -120 39 -81 124 -175 201 -223 23 -15 42 -32 42 -37 0 -6 6 -10 14 -10 9 0 15 -20 20 -62 3 -35 10 -94 16 -133 5 -38 9 -115 9 -170 l-1 -100 -66 135 c-46 92 -96 173 -157 254 -90 119 -90 120 -93 85 -5 -58 33 -138 118 -249 91 -119 158 -213 165 -233 7 -18 -32 -19 -64 -2 -14 7 -44 33 -66 57 l-40 43 40 -36 c51 -46 86 -69 104 -69 10 0 5 10 -14 30 -15 16 -32 27 -37 24 -4 -3 -26 8 -47 25 -21 17 -41 28 -43 25 -3 -3 -27 9 -54 25 -54 35 -51 42 5 10 36 -21 36 -21 11 0 -59 49 -110 81 -110 70 0 -24 111 -160 166 -203 68 -53 132 -86 168 -86 26 0 26 0 26 -82 0 -46 3 -100 6 -120 6 -31 9 -35 20 -23 8 8 14 35 14 67 0 42 6 62 30 98 16 25 30 52 30 60 0 8 -12 -3 -26 -25 l-25 -40 5 45 5 45 -14 -35 c-7 -19 -14 -60 -15 -90 0 -44 -3 -51 -11 -37 -13 23 -6 314 10 412 9 55 20 82 51 125 89 123 113 183 123 318 5 63 5 63 -14 46 -60 -54 -141 -246 -161 -381 -6 -40 -14 -73 -17 -73 -4 0 -15 62 -25 138 -10 75 -28 198 -41 272 -13 74 -26 160 -30 190 -9 83 -16 120 -24 120 -4 0 0 -55 10 -122z m-120 -150 l93 -103 -78 75 c-71 69 -124 130 -113 130 3 0 47 -46 98 -102z m375 -162 c-23 -60 -73 -156 -81 -156 -2 0 13 35 34 78 21 42 44 94 51 115 7 21 14 36 16 34 3 -2 -6 -34 -20 -71z m-347 -221 c54 -56 122 -167 121 -197 -1 -7 -14 14 -29 48 -16 33 -56 91 -90 129 -60 66 -101 130 -101 157 0 7 10 -7 21 -32 11 -24 46 -72 78 -105z m92 -262 c13 -16 12 -17 -3 -4 -17 13 -22 21 -14 21 2 0 10 -8 17 -17z" transform="translate(0,142) scale(0.1,-0.1)" stroke="none" fill="#A49E98"/>

</g>

<g id="2" transform="translate(208.0,0)scale(1,1)">

<path d="M580 943 c-7 -21 -30 -73 -51 -115 -21 -43 -36 -78 -34 -78 15 0 112 216 101 227 -2 2 -9 -13 -16 -34z" transform="translate(0,142) scale(0.1,-0.1)" stroke="none" fill="#696959"/>

<path d="M430 309 c0 -68 5 -131 10 -139 7 -10 8 31 4 120 -4 74 -8 137 -10 139 -2 2 -4 -52 -4 -120z" transform="translate(0,142) scale(0.1,-0.1)" stroke="none" fill="#696959"/>

<path d="M95 1160 c-4 -6 -3 -9 2 -8 4 1 50 -41 102 -92 l94 -95 -93 103 c-51 56 -94 102 -96 102 -1 0 -6 -5 -9 -10z" transform="translate(0,142) scale(0.1,-0.1)" stroke="none" fill="#696959"/>

<path d="M775 552 c-16 -20 -60 -66 -97 -101 -38 -35 -73 -73 -79 -85 -9 -20 -9 -20 5 -3 8 10 18 19 23 20 4 1 7 6 5 10 -1 4 4 7 11 5 7 -2 12 0 12 4 0 3 30 37 66 75 55 57 98 113 87 113 -2 0 -16 -17 -33 -38z" transform="translate(0,142) scale(0.1,-0.1)" stroke="none" fill="#696959"/>

<path d="M166 511 c32 -21 73 -53 89 -71 36 -38 74 -60 104 -57 20 1 31 17 11 17 -5 0 -9 3 -7 8 1 4 -1 7 -5 7 -4 0 -24 16 -45 35 -31 29 -30 26 7 -13 26 -28 38 -47 29 -47 -19 0 -54 24 -109 75 -25 23 -61 52 -81 63 -61 37 -56 24 7 -17z" transform="translate(0,142) scale(0.1,-0.1)" stroke="none" fill="#696959"/>

<path d="M130 822 c0 -27 41 -91 101 -157 34 -38 74 -95 89 -128 22 -49 28 -56 33 -38 3 13 1 19 -6 14 -7 -4 -8 0 -4 11 5 11 3 15 -5 10 -8 -5 -9 -2 -5 10 5 11 3 15 -5 10 -8 -5 -9 -2 -5 10 4 9 3 14 -2 11 -5 -3 -13 4 -16 16 -4 11 -36 51 -71 88 -35 38 -73 88 -84 112 -11 24 -20 38 -20 31z" transform="translate(0,142) scale(0.1,-0.1)" stroke="none" fill="#696959"/>

<path d="M809 606 c-42 -29 -84 -70 -124 -122 -33 -44 -60 -81 -60 -84 0 -3 -4 -12 -9 -19 -12 -18 37 15 126 86 43 35 79 75 102 115 20 33 35 62 33 64 -2 2 -32 -16 -68 -40z m-10 -38 c-16 -31 -150 -168 -163 -168 -6 0 21 31 61 69 39 38 79 81 88 95 21 32 30 34 14 4z" transform="translate(0,142) scale(0.1,-0.1)" stroke="none" fill="#A49E98"/>

<path d="M905 879 c-49 -20 -111 -68 -209 -161 -49 -47 -74 -61 -61 -35 4 6 -6 -3 -22 -21 -15 -18 -33 -32 -39 -32 -7 0 -15 -11 -18 -24 -3 -13 -9 -32 -12 -41 -4 -9 8 -2 27 15 19 17 59 44 89 59 96 48 146 84 222 158 95 92 105 103 87 102 -8 0 -36 -9 -64 -20z m-24 -46 c-5 -10 -26 -34 -47 -53 -36 -33 -35 -32 7 17 47 56 55 63 40 36z m-91 -88 c0 -2 -10 -9 -22 -15 -22 -11 -22 -10 -4 4 21 17 26 19 26 11z" transform="translate(0,142) scale(0.1,-0.1)" stroke="none" fill="#A49E98"/>

<path d="M321 1218 c9 -68 24 -165 34 -216 9 -51 15 -95 12 -98 -3 -3 -18 14 -33 38 -88 137 -126 188 -189 250 -38 37 -74 68 -78 68 -12 0 0 -36 40 -120 39 -81 124 -175 201 -223 23 -15 42 -32 42 -37 0 -6 6 -10 14 -10 9 0 15 -20 20 -62 3 -35 10 -94 16 -133 5 -38 9 -115 9 -170 l-1 -100 -66 135 c-46 92 -96 173 -157 254 -90 119 -90 120 -93 85 -5 -58 33 -138 118 -249 91 -119 158 -213 165 -233 7 -18 -32 -19 -64 -2 -14 7 -44 33 -66 57 l-40 43 40 -36 c51 -46 86 -69 104 -69 10 0 5 10 -14 30 -15 16 -32 27 -37 24 -4 -3 -26 8 -47 25 -21 17 -41 28 -43 25 -3 -3 -27 9 -54 25 -54 35 -51 42 5 10 36 -21 36 -21 11 0 -59 49 -110 81 -110 70 0 -24 111 -160 166 -203 68 -53 132 -86 168 -86 26 0 26 0 26 -82 0 -46 3 -100 6 -120 6 -31 9 -35 20 -23 8 8 14 35 14 67 0 42 6 62 30 98 16 25 30 52 30 60 0 8 -12 -3 -26 -25 l-25 -40 5 45 5 45 -14 -35 c-7 -19 -14 -60 -15 -90 0 -44 -3 -51 -11 -37 -13 23 -6 314 10 412 9 55 20 82 51 125 89 123 113 183 123 318 5 63 5 63 -14 46 -60 -54 -141 -246 -161 -381 -6 -40 -14 -73 -17 -73 -4 0 -15 62 -25 138 -10 75 -28 198 -41 272 -13 74 -26 160 -30 190 -9 83 -16 120 -24 120 -4 0 0 -55 10 -122z m-120 -150 l93 -103 -78 75 c-71 69 -124 130 -113 130 3 0 47 -46 98 -102z m375 -162 c-23 -60 -73 -156 -81 -156 -2 0 13 35 34 78 21 42 44 94 51 115 7 21 14 36 16 34 3 -2 -6 -34 -20 -71z m-347 -221 c54 -56 122 -167 121 -197 -1 -7 -14 14 -29 48 -16 33 -56 91 -90 129 -60 66 -101 130 -101 157 0 7 10 -7 21 -32 11 -24 46 -72 78 -105z m92 -262 c13 -16 12 -17 -3 -4 -17 13 -22 21 -14 21 2 0 10 -8 17 -17z" transform="translate(0,142) scale(0.1,-0.1)" stroke="none" fill="#A49E98"/>

</g>

<g id="3" transform="translate(312.0,0)scale(1,1)">

<path d="M580 943 c-7 -21 -30 -73 -51 -115 -21 -43 -36 -78 -34 -78 15 0 112 216 101 227 -2 2 -9 -13 -16 -34z" transform="translate(0,142) scale(0.1,-0.1)" stroke="none" fill="#696959"/>

<path d="M430 309 c0 -68 5 -131 10 -139 7 -10 8 31 4 120 -4 74 -8 137 -10 139 -2 2 -4 -52 -4 -120z" transform="translate(0,142) scale(0.1,-0.1)" stroke="none" fill="#696959"/>

<path d="M95 1160 c-4 -6 -3 -9 2 -8 4 1 50 -41 102 -92 l94 -95 -93 103 c-51 56 -94 102 -96 102 -1 0 -6 -5 -9 -10z" transform="translate(0,142) scale(0.1,-0.1)" stroke="none" fill="#696959"/>

<path d="M775 552 c-16 -20 -60 -66 -97 -101 -38 -35 -73 -73 -79 -85 -9 -20 -9 -20 5 -3 8 10 18 19 23 20 4 1 7 6 5 10 -1 4 4 7 11 5 7 -2 12 0 12 4 0 3 30 37 66 75 55 57 98 113 87 113 -2 0 -16 -17 -33 -38z" transform="translate(0,142) scale(0.1,-0.1)" stroke="none" fill="#696959"/>

<path d="M166 511 c32 -21 73 -53 89 -71 36 -38 74 -60 104 -57 20 1 31 17 11 17 -5 0 -9 3 -7 8 1 4 -1 7 -5 7 -4 0 -24 16 -45 35 -31 29 -30 26 7 -13 26 -28 38 -47 29 -47 -19 0 -54 24 -109 75 -25 23 -61 52 -81 63 -61 37 -56 24 7 -17z" transform="translate(0,142) scale(0.1,-0.1)" stroke="none" fill="#696959"/>

<path d="M130 822 c0 -27 41 -91 101 -157 34 -38 74 -95 89 -128 22 -49 28 -56 33 -38 3 13 1 19 -6 14 -7 -4 -8 0 -4 11 5 11 3 15 -5 10 -8 -5 -9 -2 -5 10 5 11 3 15 -5 10 -8 -5 -9 -2 -5 10 4 9 3 14 -2 11 -5 -3 -13 4 -16 16 -4 11 -36 51 -71 88 -35 38 -73 88 -84 112 -11 24 -20 38 -20 31z" transform="translate(0,142) scale(0.1,-0.1)" stroke="none" fill="#696959"/>

<path d="M809 606 c-42 -29 -84 -70 -124 -122 -33 -44 -60 -81 -60 -84 0 -3 -4 -12 -9 -19 -12 -18 37 15 126 86 43 35 79 75 102 115 20 33 35 62 33 64 -2 2 -32 -16 -68 -40z m-10 -38 c-16 -31 -150 -168 -163 -168 -6 0 21 31 61 69 39 38 79 81 88 95 21 32 30 34 14 4z" transform="translate(0,142) scale(0.1,-0.1)" stroke="none" fill="#A49E98"/>

<path d="M905 879 c-49 -20 -111 -68 -209 -161 -49 -47 -74 -61 -61 -35 4 6 -6 -3 -22 -21 -15 -18 -33 -32 -39 -32 -7 0 -15 -11 -18 -24 -3 -13 -9 -32 -12 -41 -4 -9 8 -2 27 15 19 17 59 44 89 59 96 48 146 84 222 158 95 92 105 103 87 102 -8 0 -36 -9 -64 -20z m-24 -46 c-5 -10 -26 -34 -47 -53 -36 -33 -35 -32 7 17 47 56 55 63 40 36z m-91 -88 c0 -2 -10 -9 -22 -15 -22 -11 -22 -10 -4 4 21 17 26 19 26 11z" transform="translate(0,142) scale(0.1,-0.1)" stroke="none" fill="#A49E98"/>

<path d="M321 1218 c9 -68 24 -165 34 -216 9 -51 15 -95 12 -98 -3 -3 -18 14 -33 38 -88 137 -126 188 -189 250 -38 37 -74 68 -78 68 -12 0 0 -36 40 -120 39 -81 124 -175 201 -223 23 -15 42 -32 42 -37 0 -6 6 -10 14 -10 9 0 15 -20 20 -62 3 -35 10 -94 16 -133 5 -38 9 -115 9 -170 l-1 -100 -66 135 c-46 92 -96 173 -157 254 -90 119 -90 120 -93 85 -5 -58 33 -138 118 -249 91 -119 158 -213 165 -233 7 -18 -32 -19 -64 -2 -14 7 -44 33 -66 57 l-40 43 40 -36 c51 -46 86 -69 104 -69 10 0 5 10 -14 30 -15 16 -32 27 -37 24 -4 -3 -26 8 -47 25 -21 17 -41 28 -43 25 -3 -3 -27 9 -54 25 -54 35 -51 42 5 10 36 -21 36 -21 11 0 -59 49 -110 81 -110 70 0 -24 111 -160 166 -203 68 -53 132 -86 168 -86 26 0 26 0 26 -82 0 -46 3 -100 6 -120 6 -31 9 -35 20 -23 8 8 14 35 14 67 0 42 6 62 30 98 16 25 30 52 30 60 0 8 -12 -3 -26 -25 l-25 -40 5 45 5 45 -14 -35 c-7 -19 -14 -60 -15 -90 0 -44 -3 -51 -11 -37 -13 23 -6 314 10 412 9 55 20 82 51 125 89 123 113 183 123 318 5 63 5 63 -14 46 -60 -54 -141 -246 -161 -381 -6 -40 -14 -73 -17 -73 -4 0 -15 62 -25 138 -10 75 -28 198 -41 272 -13 74 -26 160 -30 190 -9 83 -16 120 -24 120 -4 0 0 -55 10 -122z m-120 -150 l93 -103 -78 75 c-71 69 -124 130 -113 130 3 0 47 -46 98 -102z m375 -162 c-23 -60 -73 -156 -81 -156 -2 0 13 35 34 78 21 42 44 94 51 115 7 21 14 36 16 34 3 -2 -6 -34 -20 -71z m-347 -221 c54 -56 122 -167 121 -197 -1 -7 -14 14 -29 48 -16 33 -56 91 -90 129 -60 66 -101 130 -101 157 0 7 10 -7 21 -32 11 -24 46 -72 78 -105z m92 -262 c13 -16 12 -17 -3 -4 -17 13 -22 21 -14 21 2 0 10 -8 17 -17z" transform="translate(0,142) scale(0.1,-0.1)" stroke="none" fill="#A49E98"/>

</g>

<g id="4" transform="translate(416.0,0)scale(1,1)">

<path d="M580 943 c-7 -21 -30 -73 -51 -115 -21 -43 -36 -78 -34 -78 15 0 112 216 101 227 -2 2 -9 -13 -16 -34z" transform="translate(0,142) scale(0.1,-0.1)" stroke="none" fill="#696959"/>

<path d="M430 309 c0 -68 5 -131 10 -139 7 -10 8 31 4 120 -4 74 -8 137 -10 139 -2 2 -4 -52 -4 -120z" transform="translate(0,142) scale(0.1,-0.1)" stroke="none" fill="#696959"/>

<path d="M95 1160 c-4 -6 -3 -9 2 -8 4 1 50 -41 102 -92 l94 -95 -93 103 c-51 56 -94 102 -96 102 -1 0 -6 -5 -9 -10z" transform="translate(0,142) scale(0.1,-0.1)" stroke="none" fill="#696959"/>

<path d="M775 552 c-16 -20 -60 -66 -97 -101 -38 -35 -73 -73 -79 -85 -9 -20 -9 -20 5 -3 8 10 18 19 23 20 4 1 7 6 5 10 -1 4 4 7 11 5 7 -2 12 0 12 4 0 3 30 37 66 75 55 57 98 113 87 113 -2 0 -16 -17 -33 -38z" transform="translate(0,142) scale(0.1,-0.1)" stroke="none" fill="#696959"/>

<path d="M166 511 c32 -21 73 -53 89 -71 36 -38 74 -60 104 -57 20 1 31 17 11 17 -5 0 -9 3 -7 8 1 4 -1 7 -5 7 -4 0 -24 16 -45 35 -31 29 -30 26 7 -13 26 -28 38 -47 29 -47 -19 0 -54 24 -109 75 -25 23 -61 52 -81 63 -61 37 -56 24 7 -17z" transform="translate(0,142) scale(0.1,-0.1)" stroke="none" fill="#696959"/>

<path d="M130 822 c0 -27 41 -91 101 -157 34 -38 74 -95 89 -128 22 -49 28 -56 33 -38 3 13 1 19 -6 14 -7 -4 -8 0 -4 11 5 11 3 15 -5 10 -8 -5 -9 -2 -5 10 5 11 3 15 -5 10 -8 -5 -9 -2 -5 10 4 9 3 14 -2 11 -5 -3 -13 4 -16 16 -4 11 -36 51 -71 88 -35 38 -73 88 -84 112 -11 24 -20 38 -20 31z" transform="translate(0,142) scale(0.1,-0.1)" stroke="none" fill="#696959"/>

<path d="M809 606 c-42 -29 -84 -70 -124 -122 -33 -44 -60 -81 -60 -84 0 -3 -4 -12 -9 -19 -12 -18 37 15 126 86 43 35 79 75 102 115 20 33 35 62 33 64 -2 2 -32 -16 -68 -40z m-10 -38 c-16 -31 -150 -168 -163 -168 -6 0 21 31 61 69 39 38 79 81 88 95 21 32 30 34 14 4z" transform="translate(0,142) scale(0.1,-0.1)" stroke="none" fill="#A49E98"/>

<path d="M905 879 c-49 -20 -111 -68 -209 -161 -49 -47 -74 -61 -61 -35 4 6 -6 -3 -22 -21 -15 -18 -33 -32 -39 -32 -7 0 -15 -11 -18 -24 -3 -13 -9 -32 -12 -41 -4 -9 8 -2 27 15 19 17 59 44 89 59 96 48 146 84 222 158 95 92 105 103 87 102 -8 0 -36 -9 -64 -20z m-24 -46 c-5 -10 -26 -34 -47 -53 -36 -33 -35 -32 7 17 47 56 55 63 40 36z m-91 -88 c0 -2 -10 -9 -22 -15 -22 -11 -22 -10 -4 4 21 17 26 19 26 11z" transform="translate(0,142) scale(0.1,-0.1)" stroke="none" fill="#A49E98"/>

<path d="M321 1218 c9 -68 24 -165 34 -216 9 -51 15 -95 12 -98 -3 -3 -18 14 -33 38 -88 137 -126 188 -189 250 -38 37 -74 68 -78 68 -12 0 0 -36 40 -120 39 -81 124 -175 201 -223 23 -15 42 -32 42 -37 0 -6 6 -10 14 -10 9 0 15 -20 20 -62 3 -35 10 -94 16 -133 5 -38 9 -115 9 -170 l-1 -100 -66 135 c-46 92 -96 173 -157 254 -90 119 -90 120 -93 85 -5 -58 33 -138 118 -249 91 -119 158 -213 165 -233 7 -18 -32 -19 -64 -2 -14 7 -44 33 -66 57 l-40 43 40 -36 c51 -46 86 -69 104 -69 10 0 5 10 -14 30 -15 16 -32 27 -37 24 -4 -3 -26 8 -47 25 -21 17 -41 28 -43 25 -3 -3 -27 9 -54 25 -54 35 -51 42 5 10 36 -21 36 -21 11 0 -59 49 -110 81 -110 70 0 -24 111 -160 166 -203 68 -53 132 -86 168 -86 26 0 26 0 26 -82 0 -46 3 -100 6 -120 6 -31 9 -35 20 -23 8 8 14 35 14 67 0 42 6 62 30 98 16 25 30 52 30 60 0 8 -12 -3 -26 -25 l-25 -40 5 45 5 45 -14 -35 c-7 -19 -14 -60 -15 -90 0 -44 -3 -51 -11 -37 -13 23 -6 314 10 412 9 55 20 82 51 125 89 123 113 183 123 318 5 63 5 63 -14 46 -60 -54 -141 -246 -161 -381 -6 -40 -14 -73 -17 -73 -4 0 -15 62 -25 138 -10 75 -28 198 -41 272 -13 74 -26 160 -30 190 -9 83 -16 120 -24 120 -4 0 0 -55 10 -122z m-120 -150 l93 -103 -78 75 c-71 69 -124 130 -113 130 3 0 47 -46 98 -102z m375 -162 c-23 -60 -73 -156 -81 -156 -2 0 13 35 34 78 21 42 44 94 51 115 7 21 14 36 16 34 3 -2 -6 -34 -20 -71z m-347 -221 c54 -56 122 -167 121 -197 -1 -7 -14 14 -29 48 -16 33 -56 91 -90 129 -60 66 -101 130 -101 157 0 7 10 -7 21 -32 11 -24 46 -72 78 -105z m92 -262 c13 -16 12 -17 -3 -4 -17 13 -22 21 -14 21 2 0 10 -8 17 -17z" transform="translate(0,142) scale(0.1,-0.1)" stroke="none" fill="#A49E98"/>

</g>

</g>
<g id="row1" transform="translate(-39,142.0)">
<g id="0" transform="translate(0.0,0)scale(1,1)">

<path d="M580 943 c-7 -21 -30 -73 -51 -115 -21 -43 -36 -78 -34 -78 15 0 112 216 101 227 -2 2 -9 -13 -16 -34z" transform="translate(0,142) scale(0.1,-0.1)" stroke="none" fill="#696959"/>

<path d="M430 309 c0 -68 5 -131 10 -139 7 -10 8 31 4 120 -4 74 -8 137 -10 139 -2 2 -4 -52 -4 -120z" transform="translate(0,142) scale(0.1,-0.1)" stroke="none" fill="#696959"/>

<path d="M95 1160 c-4 -6 -3 -9 2 -8 4 1 50 -41 102 -92 l94 -95 -93 103 c-51 56 -94 102 -96 102 -1 0 -6 -5 -9 -10z" transform="translate(0,142) scale(0.1,-0.1)" stroke="none" fill="#696959"/>

<path d="M775 552 c-16 -20 -60 -66 -97 -101 -38 -35 -73 -73 -79 -85 -9 -20 -9 -20 5 -3 8 10 18 19 23 20 4 1 7 6 5 10 -1 4 4 7 11 5 7 -2 12 0 12 4 0 3 30 37 66 75 55 57 98 113 87 113 -2 0 -16 -17 -33 -38z" transform="translate(0,142) scale(0.1,-0.1)" stroke="none" fill="#696959"/>

<path d="M166 511 c32 -21 73 -53 89 -71 36 -38 74 -60 104 -57 20 1 31 17 11 17 -5 0 -9 3 -7 8 1 4 -1 7 -5 7 -4 0 -24 16 -45 35 -31 29 -30 26 7 -13 26 -28 38 -47 29 -47 -19 0 -54 24 -109 75 -25 23 -61 52 -81 63 -61 37 -56 24 7 -17z" transform="translate(0,142) scale(0.1,-0.1)" stroke="none" fill="#696959"/>

<path d="M130 822 c0 -27 41 -91 101 -157 34 -38 74 -95 89 -128 22 -49 28 -56 33 -38 3 13 1 19 -6 14 -7 -4 -8 0 -4 11 5 11 3 15 -5 10 -8 -5 -9 -2 -5 10 5 11 3 15 -5 10 -8 -5 -9 -2 -5 10 4 9 3 14 -2 11 -5 -3 -13 4 -16 16 -4 11 -36 51 -71 88 -35 38 -73 88 -84 112 -11 24 -20 38 -20 31z" transform="translate(0,142) scale(0.1,-0.1)" stroke="none" fill="#696959"/>

<path d="M809 606 c-42 -29 -84 -70 -124 -122 -33 -44 -60 -81 -60 -84 0 -3 -4 -12 -9 -19 -12 -18 37 15 126 86 43 35 79 75 102 115 20 33 35 62 33 64 -2 2 -32 -16 -68 -40z m-10 -38 c-16 -31 -150 -168 -163 -168 -6 0 21 31 61 69 39 38 79 81 88 95 21 32 30 34 14 4z" transform="translate(0,142) scale(0.1,-0.1)" stroke="none" fill="#A49E98"/>

<path d="M905 879 c-49 -20 -111 -68 -209 -161 -49 -47 -74 -61 -61 -35 4 6 -6 -3 -22 -21 -15 -18 -33 -32 -39 -32 -7 0 -15 -11 -18 -24 -3 -13 -9 -32 -12 -41 -4 -9 8 -2 27 15 19 17 59 44 89 59 96 48 146 84 222 158 95 92 105 103 87 102 -8 0 -36 -9 -64 -20z m-24 -46 c-5 -10 -26 -34 -47 -53 -36 -33 -35 -32 7 17 47 56 55 63 40 36z m-91 -88 c0 -2 -10 -9 -22 -15 -22 -11 -22 -10 -4 4 21 17 26 19 26 11z" transform="translate(0,142) scale(0.1,-0.1)" stroke="none" fill="#A49E98"/>

<path d="M321 1218 c9 -68 24 -165 34 -216 9 -51 15 -95 12 -98 -3 -3 -18 14 -33 38 -88 137 -126 188 -189 250 -38 37 -74 68 -78 68 -12 0 0 -36 40 -120 39 -81 124 -175 201 -223 23 -15 42 -32 42 -37 0 -6 6 -10 14 -10 9 0 15 -20 20 -62 3 -35 10 -94 16 -133 5 -38 9 -115 9 -170 l-1 -100 -66 135 c-46 92 -96 173 -157 254 -90 119 -90 120 -93 85 -5 -58 33 -138 118 -249 91 -119 158 -213 165 -233 7 -18 -32 -19 -64 -2 -14 7 -44 33 -66 57 l-40 43 40 -36 c51 -46 86 -69 104 -69 10 0 5 10 -14 30 -15 16 -32 27 -37 24 -4 -3 -26 8 -47 25 -21 17 -41 28 -43 25 -3 -3 -27 9 -54 25 -54 35 -51 42 5 10 36 -21 36 -21 11 0 -59 49 -110 81 -110 70 0 -24 111 -160 166 -203 68 -53 132 -86 168 -86 26 0 26 0 26 -82 0 -46 3 -100 6 -120 6 -31 9 -35 20 -23 8 8 14 35 14 67 0 42 6 62 30 98 16 25 30 52 30 60 0 8 -12 -3 -26 -25 l-25 -40 5 45 5 45 -14 -35 c-7 -19 -14 -60 -15 -90 0 -44 -3 -51 -11 -37 -13 23 -6 314 10 412 9 55 20 82 51 125 89 123 113 183 123 318 5 63 5 63 -14 46 -60 -54 -141 -246 -161 -381 -6 -40 -14 -73 -17 -73 -4 0 -15 62 -25 138 -10 75 -28 198 -41 272 -13 74 -26 160 -30 190 -9 83 -16 120 -24 120 -4 0 0 -55 10 -122z m-120 -150 l93 -103 -78 75 c-71 69 -124 130 -113 130 3 0 47 -46 98 -102z m375 -162 c-23 -60 -73 -156 -81 -156 -2 0 13 35 34 78 21 42 44 94 51 115 7 21 14 36 16 34 3 -2 -6 -34 -20 -71z m-347 -221 c54 -56 122 -167 121 -197 -1 -7 -14 14 -29 48 -16 33 -56 91 -90 129 -60 66 -101 130 -101 157 0 7 10 -7 21 -32 11 -24 46 -72 78 -105z m92 -262 c13 -16 12 -17 -3 -4 -17 13 -22 21 -14 21 2 0 10 -8 17 -17z" transform="translate(0,142) scale(0.1,-0.1)" stroke="none" fill="#A49E98"/>

</g>

<g id="1" transform="translate(104.0,0)scale(1,1)">

<path d="M580 943 c-7 -21 -30 -73 -51 -115 -21 -43 -36 -78 -34 -78 15 0 112 216 101 227 -2 2 -9 -13 -16 -34z" transform="translate(0,142) scale(0.1,-0.1)" stroke="none" fill="#696959"/>

<path d="M430 309 c0 -68 5 -131 10 -139 7 -10 8 31 4 120 -4 74 -8 137 -10 139 -2 2 -4 -52 -4 -120z" transform="translate(0,142) scale(0.1,-0.1)" stroke="none" fill="#696959"/>

<path d="M95 1160 c-4 -6 -3 -9 2 -8 4 1 50 -41 102 -92 l94 -95 -93 103 c-51 56 -94 102 -96 102 -1 0 -6 -5 -9 -10z" transform="translate(0,142) scale(0.1,-0.1)" stroke="none" fill="#696959"/>

<path d="M775 552 c-16 -20 -60 -66 -97 -101 -38 -35 -73 -73 -79 -85 -9 -20 -9 -20 5 -3 8 10 18 19 23 20 4 1 7 6 5 10 -1 4 4 7 11 5 7 -2 12 0 12 4 0 3 30 37 66 75 55 57 98 113 87 113 -2 0 -16 -17 -33 -38z" transform="translate(0,142) scale(0.1,-0.1)" stroke="none" fill="#696959"/>

<path d="M166 511 c32 -21 73 -53 89 -71 36 -38 74 -60 104 -57 20 1 31 17 11 17 -5 0 -9 3 -7 8 1 4 -1 7 -5 7 -4 0 -24 16 -45 35 -31 29 -30 26 7 -13 26 -28 38 -47 29 -47 -19 0 -54 24 -109 75 -25 23 -61 52 -81 63 -61 37 -56 24 7 -17z" transform="translate(0,142) scale(0.1,-0.1)" stroke="none" fill="#696959"/>

<path d="M130 822 c0 -27 41 -91 101 -157 34 -38 74 -95 89 -128 22 -49 28 -56 33 -38 3 13 1 19 -6 14 -7 -4 -8 0 -4 11 5 11 3 15 -5 10 -8 -5 -9 -2 -5 10 5 11 3 15 -5 10 -8 -5 -9 -2 -5 10 4 9 3 14 -2 11 -5 -3 -13 4 -16 16 -4 11 -36 51 -71 88 -35 38 -73 88 -84 112 -11 24 -20 38 -20 31z" transform="translate(0,142) scale(0.1,-0.1)" stroke="none" fill="#696959"/>

<path d="M809 606 c-42 -29 -84 -70 -124 -122 -33 -44 -60 -81 -60 -84 0 -3 -4 -12 -9 -19 -12 -18 37 15 126 86 43 35 79 75 102 115 20 33 35 62 33 64 -2 2 -32 -16 -68 -40z m-10 -38 c-16 -31 -150 -168 -163 -168 -6 0 21 31 61 69 39 38 79 81 88 95 21 32 30 34 14 4z" transform="translate(0,142) scale(0.1,-0.1)" stroke="none" fill="#A49E98"/>

<path d="M905 879 c-49 -20 -111 -68 -209 -161 -49 -47 -74 -61 -61 -35 4 6 -6 -3 -22 -21 -15 -18 -33 -32 -39 -32 -7 0 -15 -11 -18 -24 -3 -13 -9 -32 -12 -41 -4 -9 8 -2 27 15 19 17 59 44 89 59 96 48 146 84 222 158 95 92 105 103 87 102 -8 0 -36 -9 -64 -20z m-24 -46 c-5 -10 -26 -34 -47 -53 -36 -33 -35 -32 7 17 47 56 55 63 40 36z m-91 -88 c0 -2 -10 -9 -22 -15 -22 -11 -22 -10 -4 4 21 17 26 19 26 11z" transform="translate(0,142) scale(0.1,-0.1)" stroke="none" fill="#A49E98"/>

<path d="M321 1218 c9 -68 24 -165 34 -216 9 -51 15 -95 12 -98 -3 -3 -18 14 -33 38 -88 137 -126 188 -189 250 -38 37 -74 68 -78 68 -12 0 0 -36 40 -120 39 -81 124 -175 201 -223 23 -15 42 -32 42 -37 0 -6 6 -10 14 -10 9 0 15 -20 20 -62 3 -35 10 -94 16 -133 5 -38 9 -115 9 -170 l-1 -100 -66 135 c-46 92 -96 173 -157 254 -90 119 -90 120 -93 85 -5 -58 33 -138 118 -249 91 -119 158 -213 165 -233 7 -18 -32 -19 -64 -2 -14 7 -44 33 -66 57 l-40 43 40 -36 c51 -46 86 -69 104 -69 10 0 5 10 -14 30 -15 16 -32 27 -37 24 -4 -3 -26 8 -47 25 -21 17 -41 28 -43 25 -3 -3 -27 9 -54 25 -54 35 -51 42 5 10 36 -21 36 -21 11 0 -59 49 -110 81 -110 70 0 -24 111 -160 166 -203 68 -53 132 -86 168 -86 26 0 26 0 26 -82 0 -46 3 -100 6 -120 6 -31 9 -35 20 -23 8 8 14 35 14 67 0 42 6 62 30 98 16 25 30 52 30 60 0 8 -12 -3 -26 -25 l-25 -40 5 45 5 45 -14 -35 c-7 -19 -14 -60 -15 -90 0 -44 -3 -51 -11 -37 -13 23 -6 314 10 412 9 55 20 82 51 125 89 123 113 183 123 318 5 63 5 63 -14 46 -60 -54 -141 -246 -161 -381 -6 -40 -14 -73 -17 -73 -4 0 -15 62 -25 138 -10 75 -28 198 -41 272 -13 74 -26 160 -30 190 -9 83 -16 120 -24 120 -4 0 0 -55 10 -122z m-120 -150 l93 -103 -78 75 c-71 69 -124 130 -113 130 3 0 47 -46 98 -102z m375 -162 c-23 -60 -73 -156 -81 -156 -2 0 13 35 34 78 21 42 44 94 51 115 7 21 14 36 16 34 3 -2 -6 -34 -20 -71z m-347 -221 c54 -56 122 -167 121 -197 -1 -7 -14 14 -29 48 -16 33 -56 91 -90 129 -60 66 -101 130 -101 157 0 7 10 -7 21 -32 11 -24 46 -72 78 -105z m92 -262 c13 -16 12 -17 -3 -4 -17 13 -22 21 -14 21 2 0 10 -8 17 -17z" transform="translate(0,142) scale(0.1,-0.1)" stroke="none" fill="#A49E98"/>

</g>

<g id="2" transform="translate(208.0,0)scale(1,1)">

<path d="M580 943 c-7 -21 -30 -73 -51 -115 -21 -43 -36 -78 -34 -78 15 0 112 216 101 227 -2 2 -9 -13 -16 -34z" transform="translate(0,142) scale(0.1,-0.1)" stroke="none" fill="#696959"/>

<path d="M430 309 c0 -68 5 -131 10 -139 7 -10 8 31 4 120 -4 74 -8 137 -10 139 -2 2 -4 -52 -4 -120z" transform="translate(0,142) scale(0.1,-0.1)" stroke="none" fill="#696959"/>

<path d="M95 1160 c-4 -6 -3 -9 2 -8 4 1 50 -41 102 -92 l94 -95 -93 103 c-51 56 -94 102 -96 102 -1 0 -6 -5 -9 -10z" transform="translate(0,142) scale(0.1,-0.1)" stroke="none" fill="#696959"/>

<path d="M775 552 c-16 -20 -60 -66 -97 -101 -38 -35 -73 -73 -79 -85 -9 -20 -9 -20 5 -3 8 10 18 19 23 20 4 1 7 6 5 10 -1 4 4 7 11 5 7 -2 12 0 12 4 0 3 30 37 66 75 55 57 98 113 87 113 -2 0 -16 -17 -33 -38z" transform="translate(0,142) scale(0.1,-0.1)" stroke="none" fill="#696959"/>

<path d="M166 511 c32 -21 73 -53 89 -71 36 -38 74 -60 104 -57 20 1 31 17 11 17 -5 0 -9 3 -7 8 1 4 -1 7 -5 7 -4 0 -24 16 -45 35 -31 29 -30 26 7 -13 26 -28 38 -47 29 -47 -19 0 -54 24 -109 75 -25 23 -61 52 -81 63 -61 37 -56 24 7 -17z" transform="translate(0,142) scale(0.1,-0.1)" stroke="none" fill="#696959"/>

<path d="M130 822 c0 -27 41 -91 101 -157 34 -38 74 -95 89 -128 22 -49 28 -56 33 -38 3 13 1 19 -6 14 -7 -4 -8 0 -4 11 5 11 3 15 -5 10 -8 -5 -9 -2 -5 10 5 11 3 15 -5 10 -8 -5 -9 -2 -5 10 4 9 3 14 -2 11 -5 -3 -13 4 -16 16 -4 11 -36 51 -71 88 -35 38 -73 88 -84 112 -11 24 -20 38 -20 31z" transform="translate(0,142) scale(0.1,-0.1)" stroke="none" fill="#696959"/>

<path d="M809 606 c-42 -29 -84 -70 -124 -122 -33 -44 -60 -81 -60 -84 0 -3 -4 -12 -9 -19 -12 -18 37 15 126 86 43 35 79 75 102 115 20 33 35 62 33 64 -2 2 -32 -16 -68 -40z m-10 -38 c-16 -31 -150 -168 -163 -168 -6 0 21 31 61 69 39 38 79 81 88 95 21 32 30 34 14 4z" transform="translate(0,142) scale(0.1,-0.1)" stroke="none" fill="#A49E98"/>

<path d="M905 879 c-49 -20 -111 -68 -209 -161 -49 -47 -74 -61 -61 -35 4 6 -6 -3 -22 -21 -15 -18 -33 -32 -39 -32 -7 0 -15 -11 -18 -24 -3 -13 -9 -32 -12 -41 -4 -9 8 -2 27 15 19 17 59 44 89 59 96 48 146 84 222 158 95 92 105 103 87 102 -8 0 -36 -9 -64 -20z m-24 -46 c-5 -10 -26 -34 -47 -53 -36 -33 -35 -32 7 17 47 56 55 63 40 36z m-91 -88 c0 -2 -10 -9 -22 -15 -22 -11 -22 -10 -4 4 21 17 26 19 26 11z" transform="translate(0,142) scale(0.1,-0.1)" stroke="none" fill="#A49E98"/>

<path d="M321 1218 c9 -68 24 -165 34 -216 9 -51 15 -95 12 -98 -3 -3 -18 14 -33 38 -88 137 -126 188 -189 250 -38 37 -74 68 -78 68 -12 0 0 -36 40 -120 39 -81 124 -175 201 -223 23 -15 42 -32 42 -37 0 -6 6 -10 14 -10 9 0 15 -20 20 -62 3 -35 10 -94 16 -133 5 -38 9 -115 9 -170 l-1 -100 -66 135 c-46 92 -96 173 -157 254 -90 119 -90 120 -93 85 -5 -58 33 -138 118 -249 91 -119 158 -213 165 -233 7 -18 -32 -19 -64 -2 -14 7 -44 33 -66 57 l-40 43 40 -36 c51 -46 86 -69 104 -69 10 0 5 10 -14 30 -15 16 -32 27 -37 24 -4 -3 -26 8 -47 25 -21 17 -41 28 -43 25 -3 -3 -27 9 -54 25 -54 35 -51 42 5 10 36 -21 36 -21 11 0 -59 49 -110 81 -110 70 0 -24 111 -160 166 -203 68 -53 132 -86 168 -86 26 0 26 0 26 -82 0 -46 3 -100 6 -120 6 -31 9 -35 20 -23 8 8 14 35 14 67 0 42 6 62 30 98 16 25 30 52 30 60 0 8 -12 -3 -26 -25 l-25 -40 5 45 5 45 -14 -35 c-7 -19 -14 -60 -15 -90 0 -44 -3 -51 -11 -37 -13 23 -6 314 10 412 9 55 20 82 51 125 89 123 113 183 123 318 5 63 5 63 -14 46 -60 -54 -141 -246 -161 -381 -6 -40 -14 -73 -17 -73 -4 0 -15 62 -25 138 -10 75 -28 198 -41 272 -13 74 -26 160 -30 190 -9 83 -16 120 -24 120 -4 0 0 -55 10 -122z m-120 -150 l93 -103 -78 75 c-71 69 -124 130 -113 130 3 0 47 -46 98 -102z m375 -162 c-23 -60 -73 -156 -81 -156 -2 0 13 35 34 78 21 42 44 94 51 115 7 21 14 36 16 34 3 -2 -6 -34 -20 -71z m-347 -221 c54 -56 122 -167 121 -197 -1 -7 -14 14 -29 48 -16 33 -56 91 -90 129 -60 66 -101 130 -101 157 0 7 10 -7 21 -32 11 -24 46 -72 78 -105z m92 -262 c13 -16 12 -17 -3 -4 -17 13 -22 21 -14 21 2 0 10 -8 17 -17z" transform="translate(0,142) scale(0.1,-0.1)" stroke="none" fill="#A49E98"/>

</g>

<g id="3" transform="translate(312.0,0)scale(1,1)">

<path d="M580 943 c-7 -21 -30 -73 -51 -115 -21 -43 -36 -78 -34 -78 15 0 112 216 101 227 -2 2 -9 -13 -16 -34z" transform="translate(0,142) scale(0.1,-0.1)" stroke="none" fill="#696959"/>

<path d="M430 309 c0 -68 5 -131 10 -139 7 -10 8 31 4 120 -4 74 -8 137 -10 139 -2 2 -4 -52 -4 -120z" transform="translate(0,142) scale(0.1,-0.1)" stroke="none" fill="#696959"/>

<path d="M95 1160 c-4 -6 -3 -9 2 -8 4 1 50 -41 102 -92 l94 -95 -93 103 c-51 56 -94 102 -96 102 -1 0 -6 -5 -9 -10z" transform="translate(0,142) scale(0.1,-0.1)" stroke="none" fill="#696959"/>

<path d="M775 552 c-16 -20 -60 -66 -97 -101 -38 -35 -73 -73 -79 -85 -9 -20 -9 -20 5 -3 8 10 18 19 23 20 4 1 7 6 5 10 -1 4 4 7 11 5 7 -2 12 0 12 4 0 3 30 37 66 75 55 57 98 113 87 113 -2 0 -16 -17 -33 -38z" transform="translate(0,142) scale(0.1,-0.1)" stroke="none" fill="#696959"/>

<path d="M166 511 c32 -21 73 -53 89 -71 36 -38 74 -60 104 -57 20 1 31 17 11 17 -5 0 -9 3 -7 8 1 4 -1 7 -5 7 -4 0 -24 16 -45 35 -31 29 -30 26 7 -13 26 -28 38 -47 29 -47 -19 0 -54 24 -109 75 -25 23 -61 52 -81 63 -61 37 -56 24 7 -17z" transform="translate(0,142) scale(0.1,-0.1)" stroke="none" fill="#696959"/>

<path d="M130 822 c0 -27 41 -91 101 -157 34 -38 74 -95 89 -128 22 -49 28 -56 33 -38 3 13 1 19 -6 14 -7 -4 -8 0 -4 11 5 11 3 15 -5 10 -8 -5 -9 -2 -5 10 5 11 3 15 -5 10 -8 -5 -9 -2 -5 10 4 9 3 14 -2 11 -5 -3 -13 4 -16 16 -4 11 -36 51 -71 88 -35 38 -73 88 -84 112 -11 24 -20 38 -20 31z" transform="translate(0,142) scale(0.1,-0.1)" stroke="none" fill="#696959"/>

<path d="M809 606 c-42 -29 -84 -70 -124 -122 -33 -44 -60 -81 -60 -84 0 -3 -4 -12 -9 -19 -12 -18 37 15 126 86 43 35 79 75 102 115 20 33 35 62 33 64 -2 2 -32 -16 -68 -40z m-10 -38 c-16 -31 -150 -168 -163 -168 -6 0 21 31 61 69 39 38 79 81 88 95 21 32 30 34 14 4z" transform="translate(0,142) scale(0.1,-0.1)" stroke="none" fill="#A49E98"/>

<path d="M905 879 c-49 -20 -111 -68 -209 -161 -49 -47 -74 -61 -61 -35 4 6 -6 -3 -22 -21 -15 -18 -33 -32 -39 -32 -7 0 -15 -11 -18 -24 -3 -13 -9 -32 -12 -41 -4 -9 8 -2 27 15 19 17 59 44 89 59 96 48 146 84 222 158 95 92 105 103 87 102 -8 0 -36 -9 -64 -20z m-24 -46 c-5 -10 -26 -34 -47 -53 -36 -33 -35 -32 7 17 47 56 55 63 40 36z m-91 -88 c0 -2 -10 -9 -22 -15 -22 -11 -22 -10 -4 4 21 17 26 19 26 11z" transform="translate(0,142) scale(0.1,-0.1)" stroke="none" fill="#A49E98"/>

<path d="M321 1218 c9 -68 24 -165 34 -216 9 -51 15 -95 12 -98 -3 -3 -18 14 -33 38 -88 137 -126 188 -189 250 -38 37 -74 68 -78 68 -12 0 0 -36 40 -120 39 -81 124 -175 201 -223 23 -15 42 -32 42 -37 0 -6 6 -10 14 -10 9 0 15 -20 20 -62 3 -35 10 -94 16 -133 5 -38 9 -115 9 -170 l-1 -100 -66 135 c-46 92 -96 173 -157 254 -90 119 -90 120 -93 85 -5 -58 33 -138 118 -249 91 -119 158 -213 165 -233 7 -18 -32 -19 -64 -2 -14 7 -44 33 -66 57 l-40 43 40 -36 c51 -46 86 -69 104 -69 10 0 5 10 -14 30 -15 16 -32 27 -37 24 -4 -3 -26 8 -47 25 -21 17 -41 28 -43 25 -3 -3 -27 9 -54 25 -54 35 -51 42 5 10 36 -21 36 -21 11 0 -59 49 -110 81 -110 70 0 -24 111 -160 166 -203 68 -53 132 -86 168 -86 26 0 26 0 26 -82 0 -46 3 -100 6 -120 6 -31 9 -35 20 -23 8 8 14 35 14 67 0 42 6 62 30 98 16 25 30 52 30 60 0 8 -12 -3 -26 -25 l-25 -40 5 45 5 45 -14 -35 c-7 -19 -14 -60 -15 -90 0 -44 -3 -51 -11 -37 -13 23 -6 314 10 412 9 55 20 82 51 125 89 123 113 183 123 318 5 63 5 63 -14 46 -60 -54 -141 -246 -161 -381 -6 -40 -14 -73 -17 -73 -4 0 -15 62 -25 138 -10 75 -28 198 -41 272 -13 74 -26 160 -30 190 -9 83 -16 120 -24 120 -4 0 0 -55 10 -122z m-120 -150 l93 -103 -78 75 c-71 69 -124 130 -113 130 3 0 47 -46 98 -102z m375 -162 c-23 -60 -73 -156 -81 -156 -2 0 13 35 34 78 21 42 44 94 51 115 7 21 14 36 16 34 3 -2 -6 -34 -20 -71z m-347 -221 c54 -56 122 -167 121 -197 -1 -7 -14 14 -29 48 -16 33 -56 91 -90 129 -60 66 -101 130 -101 157 0 7 10 -7 21 -32 11 -24 46 -72 78 -105z m92 -262 c13 -16 12 -17 -3 -4 -17 13 -22 21 -14 21 2 0 10 -8 17 -17z" transform="translate(0,142) scale(0.1,-0.1)" stroke="none" fill="#A49E98"/>

</g>

<g id="4" transform="translate(416.0,0)scale(1,1)">

<path d="M580 943 c-7 -21 -30 -73 -51 -115 -21 -43 -36 -78 -34 -78 15 0 112 216 101 227 -2 2 -9 -13 -16 -34z" transform="translate(0,142) scale(0.1,-0.1)" stroke="none" fill="#696959"/>

<path d="M430 309 c0 -68 5 -131 10 -139 7 -10 8 31 4 120 -4 74 -8 137 -10 139 -2 2 -4 -52 -4 -120z" transform="translate(0,142) scale(0.1,-0.1)" stroke="none" fill="#696959"/>

<path d="M95 1160 c-4 -6 -3 -9 2 -8 4 1 50 -41 102 -92 l94 -95 -93 103 c-51 56 -94 102 -96 102 -1 0 -6 -5 -9 -10z" transform="translate(0,142) scale(0.1,-0.1)" stroke="none" fill="#696959"/>

<path d="M775 552 c-16 -20 -60 -66 -97 -101 -38 -35 -73 -73 -79 -85 -9 -20 -9 -20 5 -3 8 10 18 19 23 20 4 1 7 6 5 10 -1 4 4 7 11 5 7 -2 12 0 12 4 0 3 30 37 66 75 55 57 98 113 87 113 -2 0 -16 -17 -33 -38z" transform="translate(0,142) scale(0.1,-0.1)" stroke="none" fill="#696959"/>

<path d="M166 511 c32 -21 73 -53 89 -71 36 -38 74 -60 104 -57 20 1 31 17 11 17 -5 0 -9 3 -7 8 1 4 -1 7 -5 7 -4 0 -24 16 -45 35 -31 29 -30 26 7 -13 26 -28 38 -47 29 -47 -19 0 -54 24 -109 75 -25 23 -61 52 -81 63 -61 37 -56 24 7 -17z" transform="translate(0,142) scale(0.1,-0.1)" stroke="none" fill="#696959"/>

<path d="M130 822 c0 -27 41 -91 101 -157 34 -38 74 -95 89 -128 22 -49 28 -56 33 -38 3 13 1 19 -6 14 -7 -4 -8 0 -4 11 5 11 3 15 -5 10 -8 -5 -9 -2 -5 10 5 11 3 15 -5 10 -8 -5 -9 -2 -5 10 4 9 3 14 -2 11 -5 -3 -13 4 -16 16 -4 11 -36 51 -71 88 -35 38 -73 88 -84 112 -11 24 -20 38 -20 31z" transform="translate(0,142) scale(0.1,-0.1)" stroke="none" fill="#696959"/>

<path d="M809 606 c-42 -29 -84 -70 -124 -122 -33 -44 -60 -81 -60 -84 0 -3 -4 -12 -9 -19 -12 -18 37 15 126 86 43 35 79 75 102 115 20 33 35 62 33 64 -2 2 -32 -16 -68 -40z m-10 -38 c-16 -31 -150 -168 -163 -168 -6 0 21 31 61 69 39 38 79 81 88 95 21 32 30 34 14 4z" transform="translate(0,142) scale(0.1,-0.1)" stroke="none" fill="#A49E98"/>

<path d="M905 879 c-49 -20 -111 -68 -209 -161 -49 -47 -74 -61 -61 -35 4 6 -6 -3 -22 -21 -15 -18 -33 -32 -39 -32 -7 0 -15 -11 -18 -24 -3 -13 -9 -32 -12 -41 -4 -9 8 -2 27 15 19 17 59 44 89 59 96 48 146 84 222 158 95 92 105 103 87 102 -8 0 -36 -9 -64 -20z m-24 -46 c-5 -10 -26 -34 -47 -53 -36 -33 -35 -32 7 17 47 56 55 63 40 36z m-91 -88 c0 -2 -10 -9 -22 -15 -22 -11 -22 -10 -4 4 21 17 26 19 26 11z" transform="translate(0,142) scale(0.1,-0.1)" stroke="none" fill="#A49E98"/>

<path d="M321 1218 c9 -68 24 -165 34 -216 9 -51 15 -95 12 -98 -3 -3 -18 14 -33 38 -88 137 -126 188 -189 250 -38 37 -74 68 -78 68 -12 0 0 -36 40 -120 39 -81 124 -175 201 -223 23 -15 42 -32 42 -37 0 -6 6 -10 14 -10 9 0 15 -20 20 -62 3 -35 10 -94 16 -133 5 -38 9 -115 9 -170 l-1 -100 -66 135 c-46 92 -96 173 -157 254 -90 119 -90 120 -93 85 -5 -58 33 -138 118 -249 91 -119 158 -213 165 -233 7 -18 -32 -19 -64 -2 -14 7 -44 33 -66 57 l-40 43 40 -36 c51 -46 86 -69 104 -69 10 0 5 10 -14 30 -15 16 -32 27 -37 24 -4 -3 -26 8 -47 25 -21 17 -41 28 -43 25 -3 -3 -27 9 -54 25 -54 35 -51 42 5 10 36 -21 36 -21 11 0 -59 49 -110 81 -110 70 0 -24 111 -160 166 -203 68 -53 132 -86 168 -86 26 0 26 0 26 -82 0 -46 3 -100 6 -120 6 -31 9 -35 20 -23 8 8 14 35 14 67 0 42 6 62 30 98 16 25 30 52 30 60 0 8 -12 -3 -26 -25 l-25 -40 5 45 5 45 -14 -35 c-7 -19 -14 -60 -15 -90 0 -44 -3 -51 -11 -37 -13 23 -6 314 10 412 9 55 20 82 51 125 89 123 113 183 123 318 5 63 5 63 -14 46 -60 -54 -141 -246 -161 -381 -6 -40 -14 -73 -17 -73 -4 0 -15 62 -25 138 -10 75 -28 198 -41 272 -13 74 -26 160 -30 190 -9 83 -16 120 -24 120 -4 0 0 -55 10 -122z m-120 -150 l93 -103 -78 75 c-71 69 -124 130 -113 130 3 0 47 -46 98 -102z m375 -162 c-23 -60 -73 -156 -81 -156 -2 0 13 35 34 78 21 42 44 94 51 115 7 21 14 36 16 34 3 -2 -6 -34 -20 -71z m-347 -221 c54 -56 122 -167 121 -197 -1 -7 -14 14 -29 48 -16 33 -56 91 -90 129 -60 66 -101 130 -101 157 0 7 10 -7 21 -32 11 -24 46 -72 78 -105z m92 -262 c13 -16 12 -17 -3 -4 -17 13 -22 21 -14 21 2 0 10 -8 17 -17z" transform="translate(0,142) scale(0.1,-0.1)" stroke="none" fill="#A49E98"/>

</g>

</g>
<g id="row2" transform="translate(13,284.0)">
<g id="0" transform="translate(0.0,0)scale(1,1)">

<path d="M580 943 c-7 -21 -30 -73 -51 -115 -21 -43 -36 -78 -34 -78 15 0 112 216 101 227 -2 2 -9 -13 -16 -34z" transform="translate(0,142) scale(0.1,-0.1)" stroke="none" fill="#696959"/>

<path d="M430 309 c0 -68 5 -131 10 -139 7 -10 8 31 4 120 -4 74 -8 137 -10 139 -2 2 -4 -52 -4 -120z" transform="translate(0,142) scale(0.1,-0.1)" stroke="none" fill="#696959"/>

<path d="M95 1160 c-4 -6 -3 -9 2 -8 4 1 50 -41 102 -92 l94 -95 -93 103 c-51 56 -94 102 -96 102 -1 0 -6 -5 -9 -10z" transform="translate(0,142) scale(0.1,-0.1)" stroke="none" fill="#696959"/>

<path d="M775 552 c-16 -20 -60 -66 -97 -101 -38 -35 -73 -73 -79 -85 -9 -20 -9 -20 5 -3 8 10 18 19 23 20 4 1 7 6 5 10 -1 4 4 7 11 5 7 -2 12 0 12 4 0 3 30 37 66 75 55 57 98 113 87 113 -2 0 -16 -17 -33 -38z" transform="translate(0,142) scale(0.1,-0.1)" stroke="none" fill="#696959"/>

<path d="M166 511 c32 -21 73 -53 89 -71 36 -38 74 -60 104 -57 20 1 31 17 11 17 -5 0 -9 3 -7 8 1 4 -1 7 -5 7 -4 0 -24 16 -45 35 -31 29 -30 26 7 -13 26 -28 38 -47 29 -47 -19 0 -54 24 -109 75 -25 23 -61 52 -81 63 -61 37 -56 24 7 -17z" transform="translate(0,142) scale(0.1,-0.1)" stroke="none" fill="#696959"/>

<path d="M130 822 c0 -27 41 -91 101 -157 34 -38 74 -95 89 -128 22 -49 28 -56 33 -38 3 13 1 19 -6 14 -7 -4 -8 0 -4 11 5 11 3 15 -5 10 -8 -5 -9 -2 -5 10 5 11 3 15 -5 10 -8 -5 -9 -2 -5 10 4 9 3 14 -2 11 -5 -3 -13 4 -16 16 -4 11 -36 51 -71 88 -35 38 -73 88 -84 112 -11 24 -20 38 -20 31z" transform="translate(0,142) scale(0.1,-0.1)" stroke="none" fill="#696959"/>

<path d="M809 606 c-42 -29 -84 -70 -124 -122 -33 -44 -60 -81 -60 -84 0 -3 -4 -12 -9 -19 -12 -18 37 15 126 86 43 35 79 75 102 115 20 33 35 62 33 64 -2 2 -32 -16 -68 -40z m-10 -38 c-16 -31 -150 -168 -163 -168 -6 0 21 31 61 69 39 38 79 81 88 95 21 32 30 34 14 4z" transform="translate(0,142) scale(0.1,-0.1)" stroke="none" fill="#A49E98"/>

<path d="M905 879 c-49 -20 -111 -68 -209 -161 -49 -47 -74 -61 -61 -35 4 6 -6 -3 -22 -21 -15 -18 -33 -32 -39 -32 -7 0 -15 -11 -18 -24 -3 -13 -9 -32 -12 -41 -4 -9 8 -2 27 15 19 17 59 44 89 59 96 48 146 84 222 158 95 92 105 103 87 102 -8 0 -36 -9 -64 -20z m-24 -46 c-5 -10 -26 -34 -47 -53 -36 -33 -35 -32 7 17 47 56 55 63 40 36z m-91 -88 c0 -2 -10 -9 -22 -15 -22 -11 -22 -10 -4 4 21 17 26 19 26 11z" transform="translate(0,142) scale(0.1,-0.1)" stroke="none" fill="#A49E98"/>

<path d="M321 1218 c9 -68 24 -165 34 -216 9 -51 15 -95 12 -98 -3 -3 -18 14 -33 38 -88 137 -126 188 -189 250 -38 37 -74 68 -78 68 -12 0 0 -36 40 -120 39 -81 124 -175 201 -223 23 -15 42 -32 42 -37 0 -6 6 -10 14 -10 9 0 15 -20 20 -62 3 -35 10 -94 16 -133 5 -38 9 -115 9 -170 l-1 -100 -66 135 c-46 92 -96 173 -157 254 -90 119 -90 120 -93 85 -5 -58 33 -138 118 -249 91 -119 158 -213 165 -233 7 -18 -32 -19 -64 -2 -14 7 -44 33 -66 57 l-40 43 40 -36 c51 -46 86 -69 104 -69 10 0 5 10 -14 30 -15 16 -32 27 -37 24 -4 -3 -26 8 -47 25 -21 17 -41 28 -43 25 -3 -3 -27 9 -54 25 -54 35 -51 42 5 10 36 -21 36 -21 11 0 -59 49 -110 81 -110 70 0 -24 111 -160 166 -203 68 -53 132 -86 168 -86 26 0 26 0 26 -82 0 -46 3 -100 6 -120 6 -31 9 -35 20 -23 8 8 14 35 14 67 0 42 6 62 30 98 16 25 30 52 30 60 0 8 -12 -3 -26 -25 l-25 -40 5 45 5 45 -14 -35 c-7 -19 -14 -60 -15 -90 0 -44 -3 -51 -11 -37 -13 23 -6 314 10 412 9 55 20 82 51 125 89 123 113 183 123 318 5 63 5 63 -14 46 -60 -54 -141 -246 -161 -381 -6 -40 -14 -73 -17 -73 -4 0 -15 62 -25 138 -10 75 -28 198 -41 272 -13 74 -26 160 -30 190 -9 83 -16 120 -24 120 -4 0 0 -55 10 -122z m-120 -150 l93 -103 -78 75 c-71 69 -124 130 -113 130 3 0 47 -46 98 -102z m375 -162 c-23 -60 -73 -156 -81 -156 -2 0 13 35 34 78 21 42 44 94 51 115 7 21 14 36 16 34 3 -2 -6 -34 -20 -71z m-347 -221 c54 -56 122 -167 121 -197 -1 -7 -14 14 -29 48 -16 33 -56 91 -90 129 -60 66 -101 130 -101 157 0 7 10 -7 21 -32 11 -24 46 -72 78 -105z m92 -262 c13 -16 12 -17 -3 -4 -17 13 -22 21 -14 21 2 0 10 -8 17 -17z" transform="translate(0,142) scale(0.1,-0.1)" stroke="none" fill="#A49E98"/>

</g>

<g id="1" transform="translate(104.0,0)scale(1,1)">

<path d="M580 943 c-7 -21 -30 -73 -51 -115 -21 -43 -36 -78 -34 -78 15 0 112 216 101 227 -2 2 -9 -13 -16 -34z" transform="translate(0,142) scale(0.1,-0.1)" stroke="none" fill="#696959"/>

<path d="M430 309 c0 -68 5 -131 10 -139 7 -10 8 31 4 120 -4 74 -8 137 -10 139 -2 2 -4 -52 -4 -120z" transform="translate(0,142) scale(0.1,-0.1)" stroke="none" fill="#696959"/>

<path d="M95 1160 c-4 -6 -3 -9 2 -8 4 1 50 -41 102 -92 l94 -95 -93 103 c-51 56 -94 102 -96 102 -1 0 -6 -5 -9 -10z" transform="translate(0,142) scale(0.1,-0.1)" stroke="none" fill="#696959"/>

<path d="M775 552 c-16 -20 -60 -66 -97 -101 -38 -35 -73 -73 -79 -85 -9 -20 -9 -20 5 -3 8 10 18 19 23 20 4 1 7 6 5 10 -1 4 4 7 11 5 7 -2 12 0 12 4 0 3 30 37 66 75 55 57 98 113 87 113 -2 0 -16 -17 -33 -38z" transform="translate(0,142) scale(0.1,-0.1)" stroke="none" fill="#696959"/>

<path d="M166 511 c32 -21 73 -53 89 -71 36 -38 74 -60 104 -57 20 1 31 17 11 17 -5 0 -9 3 -7 8 1 4 -1 7 -5 7 -4 0 -24 16 -45 35 -31 29 -30 26 7 -13 26 -28 38 -47 29 -47 -19 0 -54 24 -109 75 -25 23 -61 52 -81 63 -61 37 -56 24 7 -17z" transform="translate(0,142) scale(0.1,-0.1)" stroke="none" fill="#696959"/>

<path d="M130 822 c0 -27 41 -91 101 -157 34 -38 74 -95 89 -128 22 -49 28 -56 33 -38 3 13 1 19 -6 14 -7 -4 -8 0 -4 11 5 11 3 15 -5 10 -8 -5 -9 -2 -5 10 5 11 3 15 -5 10 -8 -5 -9 -2 -5 10 4 9 3 14 -2 11 -5 -3 -13 4 -16 16 -4 11 -36 51 -71 88 -35 38 -73 88 -84 112 -11 24 -20 38 -20 31z" transform="translate(0,142) scale(0.1,-0.1)" stroke="none" fill="#696959"/>

<path d="M809 606 c-42 -29 -84 -70 -124 -122 -33 -44 -60 -81 -60 -84 0 -3 -4 -12 -9 -19 -12 -18 37 15 126 86 43 35 79 75 102 115 20 33 35 62 33 64 -2 2 -32 -16 -68 -40z m-10 -38 c-16 -31 -150 -168 -163 -168 -6 0 21 31 61 69 39 38 79 81 88 95 21 32 30 34 14 4z" transform="translate(0,142) scale(0.1,-0.1)" stroke="none" fill="#A49E98"/>

<path d="M905 879 c-49 -20 -111 -68 -209 -161 -49 -47 -74 -61 -61 -35 4 6 -6 -3 -22 -21 -15 -18 -33 -32 -39 -32 -7 0 -15 -11 -18 -24 -3 -13 -9 -32 -12 -41 -4 -9 8 -2 27 15 19 17 59 44 89 59 96 48 146 84 222 158 95 92 105 103 87 102 -8 0 -36 -9 -64 -20z m-24 -46 c-5 -10 -26 -34 -47 -53 -36 -33 -35 -32 7 17 47 56 55 63 40 36z m-91 -88 c0 -2 -10 -9 -22 -15 -22 -11 -22 -10 -4 4 21 17 26 19 26 11z" transform="translate(0,142) scale(0.1,-0.1)" stroke="none" fill="#A49E98"/>

<path d="M321 1218 c9 -68 24 -165 34 -216 9 -51 15 -95 12 -98 -3 -3 -18 14 -33 38 -88 137 -126 188 -189 250 -38 37 -74 68 -78 68 -12 0 0 -36 40 -120 39 -81 124 -175 201 -223 23 -15 42 -32 42 -37 0 -6 6 -10 14 -10 9 0 15 -20 20 -62 3 -35 10 -94 16 -133 5 -38 9 -115 9 -170 l-1 -100 -66 135 c-46 92 -96 173 -157 254 -90 119 -90 120 -93 85 -5 -58 33 -138 118 -249 91 -119 158 -213 165 -233 7 -18 -32 -19 -64 -2 -14 7 -44 33 -66 57 l-40 43 40 -36 c51 -46 86 -69 104 -69 10 0 5 10 -14 30 -15 16 -32 27 -37 24 -4 -3 -26 8 -47 25 -21 17 -41 28 -43 25 -3 -3 -27 9 -54 25 -54 35 -51 42 5 10 36 -21 36 -21 11 0 -59 49 -110 81 -110 70 0 -24 111 -160 166 -203 68 -53 132 -86 168 -86 26 0 26 0 26 -82 0 -46 3 -100 6 -120 6 -31 9 -35 20 -23 8 8 14 35 14 67 0 42 6 62 30 98 16 25 30 52 30 60 0 8 -12 -3 -26 -25 l-25 -40 5 45 5 45 -14 -35 c-7 -19 -14 -60 -15 -90 0 -44 -3 -51 -11 -37 -13 23 -6 314 10 412 9 55 20 82 51 125 89 123 113 183 123 318 5 63 5 63 -14 46 -60 -54 -141 -246 -161 -381 -6 -40 -14 -73 -17 -73 -4 0 -15 62 -25 138 -10 75 -28 198 -41 272 -13 74 -26 160 -30 190 -9 83 -16 120 -24 120 -4 0 0 -55 10 -122z m-120 -150 l93 -103 -78 75 c-71 69 -124 130 -113 130 3 0 47 -46 98 -102z m375 -162 c-23 -60 -73 -156 -81 -156 -2 0 13 35 34 78 21 42 44 94 51 115 7 21 14 36 16 34 3 -2 -6 -34 -20 -71z m-347 -221 c54 -56 122 -167 121 -197 -1 -7 -14 14 -29 48 -16 33 -56 91 -90 129 -60 66 -101 130 -101 157 0 7 10 -7 21 -32 11 -24 46 -72 78 -105z m92 -262 c13 -16 12 -17 -3 -4 -17 13 -22 21 -14 21 2 0 10 -8 17 -17z" transform="translate(0,142) scale(0.1,-0.1)" stroke="none" fill="#A49E98"/>

</g>

<g id="2" transform="translate(208.0,0)scale(1,1)">

<path d="M580 943 c-7 -21 -30 -73 -51 -115 -21 -43 -36 -78 -34 -78 15 0 112 216 101 227 -2 2 -9 -13 -16 -34z" transform="translate(0,142) scale(0.1,-0.1)" stroke="none" fill="#696959"/>

<path d="M430 309 c0 -68 5 -131 10 -139 7 -10 8 31 4 120 -4 74 -8 137 -10 139 -2 2 -4 -52 -4 -120z" transform="translate(0,142) scale(0.1,-0.1)" stroke="none" fill="#696959"/>

<path d="M95 1160 c-4 -6 -3 -9 2 -8 4 1 50 -41 102 -92 l94 -95 -93 103 c-51 56 -94 102 -96 102 -1 0 -6 -5 -9 -10z" transform="translate(0,142) scale(0.1,-0.1)" stroke="none" fill="#696959"/>

<path d="M775 552 c-16 -20 -60 -66 -97 -101 -38 -35 -73 -73 -79 -85 -9 -20 -9 -20 5 -3 8 10 18 19 23 20 4 1 7 6 5 10 -1 4 4 7 11 5 7 -2 12 0 12 4 0 3 30 37 66 75 55 57 98 113 87 113 -2 0 -16 -17 -33 -38z" transform="translate(0,142) scale(0.1,-0.1)" stroke="none" fill="#696959"/>

<path d="M166 511 c32 -21 73 -53 89 -71 36 -38 74 -60 104 -57 20 1 31 17 11 17 -5 0 -9 3 -7 8 1 4 -1 7 -5 7 -4 0 -24 16 -45 35 -31 29 -30 26 7 -13 26 -28 38 -47 29 -47 -19 0 -54 24 -109 75 -25 23 -61 52 -81 63 -61 37 -56 24 7 -17z" transform="translate(0,142) scale(0.1,-0.1)" stroke="none" fill="#696959"/>

<path d="M130 822 c0 -27 41 -91 101 -157 34 -38 74 -95 89 -128 22 -49 28 -56 33 -38 3 13 1 19 -6 14 -7 -4 -8 0 -4 11 5 11 3 15 -5 10 -8 -5 -9 -2 -5 10 5 11 3 15 -5 10 -8 -5 -9 -2 -5 10 4 9 3 14 -2 11 -5 -3 -13 4 -16 16 -4 11 -36 51 -71 88 -35 38 -73 88 -84 112 -11 24 -20 38 -20 31z" transform="translate(0,142) scale(0.1,-0.1)" stroke="none" fill="#696959"/>

<path d="M809 606 c-42 -29 -84 -70 -124 -122 -33 -44 -60 -81 -60 -84 0 -3 -4 -12 -9 -19 -12 -18 37 15 126 86 43 35 79 75 102 115 20 33 35 62 33 64 -2 2 -32 -16 -68 -40z m-10 -38 c-16 -31 -150 -168 -163 -168 -6 0 21 31 61 69 39 38 79 81 88 95 21 32 30 34 14 4z" transform="translate(0,142) scale(0.1,-0.1)" stroke="none" fill="#A49E98"/>

<path d="M905 879 c-49 -20 -111 -68 -209 -161 -49 -47 -74 -61 -61 -35 4 6 -6 -3 -22 -21 -15 -18 -33 -32 -39 -32 -7 0 -15 -11 -18 -24 -3 -13 -9 -32 -12 -41 -4 -9 8 -2 27 15 19 17 59 44 89 59 96 48 146 84 222 158 95 92 105 103 87 102 -8 0 -36 -9 -64 -20z m-24 -46 c-5 -10 -26 -34 -47 -53 -36 -33 -35 -32 7 17 47 56 55 63 40 36z m-91 -88 c0 -2 -10 -9 -22 -15 -22 -11 -22 -10 -4 4 21 17 26 19 26 11z" transform="translate(0,142) scale(0.1,-0.1)" stroke="none" fill="#A49E98"/>

<path d="M321 1218 c9 -68 24 -165 34 -216 9 -51 15 -95 12 -98 -3 -3 -18 14 -33 38 -88 137 -126 188 -189 250 -38 37 -74 68 -78 68 -12 0 0 -36 40 -120 39 -81 124 -175 201 -223 23 -15 42 -32 42 -37 0 -6 6 -10 14 -10 9 0 15 -20 20 -62 3 -35 10 -94 16 -133 5 -38 9 -115 9 -170 l-1 -100 -66 135 c-46 92 -96 173 -157 254 -90 119 -90 120 -93 85 -5 -58 33 -138 118 -249 91 -119 158 -213 165 -233 7 -18 -32 -19 -64 -2 -14 7 -44 33 -66 57 l-40 43 40 -36 c51 -46 86 -69 104 -69 10 0 5 10 -14 30 -15 16 -32 27 -37 24 -4 -3 -26 8 -47 25 -21 17 -41 28 -43 25 -3 -3 -27 9 -54 25 -54 35 -51 42 5 10 36 -21 36 -21 11 0 -59 49 -110 81 -110 70 0 -24 111 -160 166 -203 68 -53 132 -86 168 -86 26 0 26 0 26 -82 0 -46 3 -100 6 -120 6 -31 9 -35 20 -23 8 8 14 35 14 67 0 42 6 62 30 98 16 25 30 52 30 60 0 8 -12 -3 -26 -25 l-25 -40 5 45 5 45 -14 -35 c-7 -19 -14 -60 -15 -90 0 -44 -3 -51 -11 -37 -13 23 -6 314 10 412 9 55 20 82 51 125 89 123 113 183 123 318 5 63 5 63 -14 46 -60 -54 -141 -246 -161 -381 -6 -40 -14 -73 -17 -73 -4 0 -15 62 -25 138 -10 75 -28 198 -41 272 -13 74 -26 160 -30 190 -9 83 -16 120 -24 120 -4 0 0 -55 10 -122z m-120 -150 l93 -103 -78 75 c-71 69 -124 130 -113 130 3 0 47 -46 98 -102z m375 -162 c-23 -60 -73 -156 -81 -156 -2 0 13 35 34 78 21 42 44 94 51 115 7 21 14 36 16 34 3 -2 -6 -34 -20 -71z m-347 -221 c54 -56 122 -167 121 -197 -1 -7 -14 14 -29 48 -16 33 -56 91 -90 129 -60 66 -101 130 -101 157 0 7 10 -7 21 -32 11 -24 46 -72 78 -105z m92 -262 c13 -16 12 -17 -3 -4 -17 13 -22 21 -14 21 2 0 10 -8 17 -17z" transform="translate(0,142) scale(0.1,-0.1)" stroke="none" fill="#A49E98"/>

</g>

<g id="3" transform="translate(312.0,0)scale(1,1)">

<path d="M580 943 c-7 -21 -30 -73 -51 -115 -21 -43 -36 -78 -34 -78 15 0 112 216 101 227 -2 2 -9 -13 -16 -34z" transform="translate(0,142) scale(0.1,-0.1)" stroke="none" fill="#696959"/>

<path d="M430 309 c0 -68 5 -131 10 -139 7 -10 8 31 4 120 -4 74 -8 137 -10 139 -2 2 -4 -52 -4 -120z" transform="translate(0,142) scale(0.1,-0.1)" stroke="none" fill="#696959"/>

<path d="M95 1160 c-4 -6 -3 -9 2 -8 4 1 50 -41 102 -92 l94 -95 -93 103 c-51 56 -94 102 -96 102 -1 0 -6 -5 -9 -10z" transform="translate(0,142) scale(0.1,-0.1)" stroke="none" fill="#696959"/>

<path d="M775 552 c-16 -20 -60 -66 -97 -101 -38 -35 -73 -73 -79 -85 -9 -20 -9 -20 5 -3 8 10 18 19 23 20 4 1 7 6 5 10 -1 4 4 7 11 5 7 -2 12 0 12 4 0 3 30 37 66 75 55 57 98 113 87 113 -2 0 -16 -17 -33 -38z" transform="translate(0,142) scale(0.1,-0.1)" stroke="none" fill="#696959"/>

<path d="M166 511 c32 -21 73 -53 89 -71 36 -38 74 -60 104 -57 20 1 31 17 11 17 -5 0 -9 3 -7 8 1 4 -1 7 -5 7 -4 0 -24 16 -45 35 -31 29 -30 26 7 -13 26 -28 38 -47 29 -47 -19 0 -54 24 -109 75 -25 23 -61 52 -81 63 -61 37 -56 24 7 -17z" transform="translate(0,142) scale(0.1,-0.1)" stroke="none" fill="#696959"/>

<path d="M130 822 c0 -27 41 -91 101 -157 34 -38 74 -95 89 -128 22 -49 28 -56 33 -38 3 13 1 19 -6 14 -7 -4 -8 0 -4 11 5 11 3 15 -5 10 -8 -5 -9 -2 -5 10 5 11 3 15 -5 10 -8 -5 -9 -2 -5 10 4 9 3 14 -2 11 -5 -3 -13 4 -16 16 -4 11 -36 51 -71 88 -35 38 -73 88 -84 112 -11 24 -20 38 -20 31z" transform="translate(0,142) scale(0.1,-0.1)" stroke="none" fill="#696959"/>

<path d="M809 606 c-42 -29 -84 -70 -124 -122 -33 -44 -60 -81 -60 -84 0 -3 -4 -12 -9 -19 -12 -18 37 15 126 86 43 35 79 75 102 115 20 33 35 62 33 64 -2 2 -32 -16 -68 -40z m-10 -38 c-16 -31 -150 -168 -163 -168 -6 0 21 31 61 69 39 38 79 81 88 95 21 32 30 34 14 4z" transform="translate(0,142) scale(0.1,-0.1)" stroke="none" fill="#A49E98"/>

<path d="M905 879 c-49 -20 -111 -68 -209 -161 -49 -47 -74 -61 -61 -35 4 6 -6 -3 -22 -21 -15 -18 -33 -32 -39 -32 -7 0 -15 -11 -18 -24 -3 -13 -9 -32 -12 -41 -4 -9 8 -2 27 15 19 17 59 44 89 59 96 48 146 84 222 158 95 92 105 103 87 102 -8 0 -36 -9 -64 -20z m-24 -46 c-5 -10 -26 -34 -47 -53 -36 -33 -35 -32 7 17 47 56 55 63 40 36z m-91 -88 c0 -2 -10 -9 -22 -15 -22 -11 -22 -10 -4 4 21 17 26 19 26 11z" transform="translate(0,142) scale(0.1,-0.1)" stroke="none" fill="#A49E98"/>

<path d="M321 1218 c9 -68 24 -165 34 -216 9 -51 15 -95 12 -98 -3 -3 -18 14 -33 38 -88 137 -126 188 -189 250 -38 37 -74 68 -78 68 -12 0 0 -36 40 -120 39 -81 124 -175 201 -223 23 -15 42 -32 42 -37 0 -6 6 -10 14 -10 9 0 15 -20 20 -62 3 -35 10 -94 16 -133 5 -38 9 -115 9 -170 l-1 -100 -66 135 c-46 92 -96 173 -157 254 -90 119 -90 120 -93 85 -5 -58 33 -138 118 -249 91 -119 158 -213 165 -233 7 -18 -32 -19 -64 -2 -14 7 -44 33 -66 57 l-40 43 40 -36 c51 -46 86 -69 104 -69 10 0 5 10 -14 30 -15 16 -32 27 -37 24 -4 -3 -26 8 -47 25 -21 17 -41 28 -43 25 -3 -3 -27 9 -54 25 -54 35 -51 42 5 10 36 -21 36 -21 11 0 -59 49 -110 81 -110 70 0 -24 111 -160 166 -203 68 -53 132 -86 168 -86 26 0 26 0 26 -82 0 -46 3 -100 6 -120 6 -31 9 -35 20 -23 8 8 14 35 14 67 0 42 6 62 30 98 16 25 30 52 30 60 0 8 -12 -3 -26 -25 l-25 -40 5 45 5 45 -14 -35 c-7 -19 -14 -60 -15 -90 0 -44 -3 -51 -11 -37 -13 23 -6 314 10 412 9 55 20 82 51 125 89 123 113 183 123 318 5 63 5 63 -14 46 -60 -54 -141 -246 -161 -381 -6 -40 -14 -73 -17 -73 -4 0 -15 62 -25 138 -10 75 -28 198 -41 272 -13 74 -26 160 -30 190 -9 83 -16 120 -24 120 -4 0 0 -55 10 -122z m-120 -150 l93 -103 -78 75 c-71 69 -124 130 -113 130 3 0 47 -46 98 -102z m375 -162 c-23 -60 -73 -156 -81 -156 -2 0 13 35 34 78 21 42 44 94 51 115 7 21 14 36 16 34 3 -2 -6 -34 -20 -71z m-347 -221 c54 -56 122 -167 121 -197 -1 -7 -14 14 -29 48 -16 33 -56 91 -90 129 -60 66 -101 130 -101 157 0 7 10 -7 21 -32 11 -24 46 -72 78 -105z m92 -262 c13 -16 12 -17 -3 -4 -17 13 -22 21 -14 21 2 0 10 -8 17 -17z" transform="translate(0,142) scale(0.1,-0.1)" stroke="none" fill="#A49E98"/>

</g>

<g id="4" transform="translate(416.0,0)scale(1,1)">

<path d="M580 943 c-7 -21 -30 -73 -51 -115 -21 -43 -36 -78 -34 -78 15 0 112 216 101 227 -2 2 -9 -13 -16 -34z" transform="translate(0,142) scale(0.1,-0.1)" stroke="none" fill="#696959"/>

<path d="M430 309 c0 -68 5 -131 10 -139 7 -10 8 31 4 120 -4 74 -8 137 -10 139 -2 2 -4 -52 -4 -120z" transform="translate(0,142) scale(0.1,-0.1)" stroke="none" fill="#696959"/>

<path d="M95 1160 c-4 -6 -3 -9 2 -8 4 1 50 -41 102 -92 l94 -95 -93 103 c-51 56 -94 102 -96 102 -1 0 -6 -5 -9 -10z" transform="translate(0,142) scale(0.1,-0.1)" stroke="none" fill="#696959"/>

<path d="M775 552 c-16 -20 -60 -66 -97 -101 -38 -35 -73 -73 -79 -85 -9 -20 -9 -20 5 -3 8 10 18 19 23 20 4 1 7 6 5 10 -1 4 4 7 11 5 7 -2 12 0 12 4 0 3 30 37 66 75 55 57 98 113 87 113 -2 0 -16 -17 -33 -38z" transform="translate(0,142) scale(0.1,-0.1)" stroke="none" fill="#696959"/>

<path d="M166 511 c32 -21 73 -53 89 -71 36 -38 74 -60 104 -57 20 1 31 17 11 17 -5 0 -9 3 -7 8 1 4 -1 7 -5 7 -4 0 -24 16 -45 35 -31 29 -30 26 7 -13 26 -28 38 -47 29 -47 -19 0 -54 24 -109 75 -25 23 -61 52 -81 63 -61 37 -56 24 7 -17z" transform="translate(0,142) scale(0.1,-0.1)" stroke="none" fill="#696959"/>

<path d="M130 822 c0 -27 41 -91 101 -157 34 -38 74 -95 89 -128 22 -49 28 -56 33 -38 3 13 1 19 -6 14 -7 -4 -8 0 -4 11 5 11 3 15 -5 10 -8 -5 -9 -2 -5 10 5 11 3 15 -5 10 -8 -5 -9 -2 -5 10 4 9 3 14 -2 11 -5 -3 -13 4 -16 16 -4 11 -36 51 -71 88 -35 38 -73 88 -84 112 -11 24 -20 38 -20 31z" transform="translate(0,142) scale(0.1,-0.1)" stroke="none" fill="#696959"/>

<path d="M809 606 c-42 -29 -84 -70 -124 -122 -33 -44 -60 -81 -60 -84 0 -3 -4 -12 -9 -19 -12 -18 37 15 126 86 43 35 79 75 102 115 20 33 35 62 33 64 -2 2 -32 -16 -68 -40z m-10 -38 c-16 -31 -150 -168 -163 -168 -6 0 21 31 61 69 39 38 79 81 88 95 21 32 30 34 14 4z" transform="translate(0,142) scale(0.1,-0.1)" stroke="none" fill="#A49E98"/>

<path d="M905 879 c-49 -20 -111 -68 -209 -161 -49 -47 -74 -61 -61 -35 4 6 -6 -3 -22 -21 -15 -18 -33 -32 -39 -32 -7 0 -15 -11 -18 -24 -3 -13 -9 -32 -12 -41 -4 -9 8 -2 27 15 19 17 59 44 89 59 96 48 146 84 222 158 95 92 105 103 87 102 -8 0 -36 -9 -64 -20z m-24 -46 c-5 -10 -26 -34 -47 -53 -36 -33 -35 -32 7 17 47 56 55 63 40 36z m-91 -88 c0 -2 -10 -9 -22 -15 -22 -11 -22 -10 -4 4 21 17 26 19 26 11z" transform="translate(0,142) scale(0.1,-0.1)" stroke="none" fill="#A49E98"/>

<path d="M321 1218 c9 -68 24 -165 34 -216 9 -51 15 -95 12 -98 -3 -3 -18 14 -33 38 -88 137 -126 188 -189 250 -38 37 -74 68 -78 68 -12 0 0 -36 40 -120 39 -81 124 -175 201 -223 23 -15 42 -32 42 -37 0 -6 6 -10 14 -10 9 0 15 -20 20 -62 3 -35 10 -94 16 -133 5 -38 9 -115 9 -170 l-1 -100 -66 135 c-46 92 -96 173 -157 254 -90 119 -90 120 -93 85 -5 -58 33 -138 118 -249 91 -119 158 -213 165 -233 7 -18 -32 -19 -64 -2 -14 7 -44 33 -66 57 l-40 43 40 -36 c51 -46 86 -69 104 -69 10 0 5 10 -14 30 -15 16 -32 27 -37 24 -4 -3 -26 8 -47 25 -21 17 -41 28 -43 25 -3 -3 -27 9 -54 25 -54 35 -51 42 5 10 36 -21 36 -21 11 0 -59 49 -110 81 -110 70 0 -24 111 -160 166 -203 68 -53 132 -86 168 -86 26 0 26 0 26 -82 0 -46 3 -100 6 -120 6 -31 9 -35 20 -23 8 8 14 35 14 67 0 42 6 62 30 98 16 25 30 52 30 60 0 8 -12 -3 -26 -25 l-25 -40 5 45 5 45 -14 -35 c-7 -19 -14 -60 -15 -90 0 -44 -3 -51 -11 -37 -13 23 -6 314 10 412 9 55 20 82 51 125 89 123 113 183 123 318 5 63 5 63 -14 46 -60 -54 -141 -246 -161 -381 -6 -40 -14 -73 -17 -73 -4 0 -15 62 -25 138 -10 75 -28 198 -41 272 -13 74 -26 160 -30 190 -9 83 -16 120 -24 120 -4 0 0 -55 10 -122z m-120 -150 l93 -103 -78 75 c-71 69 -124 130 -113 130 3 0 47 -46 98 -102z m375 -162 c-23 -60 -73 -156 -81 -156 -2 0 13 35 34 78 21 42 44 94 51 115 7 21 14 36 16 34 3 -2 -6 -34 -20 -71z m-347 -221 c54 -56 122 -167 121 -197 -1 -7 -14 14 -29 48 -16 33 -56 91 -90 129 -60 66 -101 130 -101 157 0 7 10 -7 21 -32 11 -24 46 -72 78 -105z m92 -262 c13 -16 12 -17 -3 -4 -17 13 -22 21 -14 21 2 0 10 -8 17 -17z" transform="translate(0,142) scale(0.1,-0.1)" stroke="none" fill="#A49E98"/>

</g>

</g>
<g id="row3" transform="translate(-39,426.0)">
<g id="0" transform="translate(0.0,0)scale(1,1)">

<path d="M580 943 c-7 -21 -30 -73 -51 -115 -21 -43 -36 -78 -34 -78 15 0 112 216 101 227 -2 2 -9 -13 -16 -34z" transform="translate(0,142) scale(0.1,-0.1)" stroke="none" fill="#696959"/>

<path d="M430 309 c0 -68 5 -131 10 -139 7 -10 8 31 4 120 -4 74 -8 137 -10 139 -2 2 -4 -52 -4 -120z" transform="translate(0,142) scale(0.1,-0.1)" stroke="none" fill="#696959"/>

<path d="M95 1160 c-4 -6 -3 -9 2 -8 4 1 50 -41 102 -92 l94 -95 -93 103 c-51 56 -94 102 -96 102 -1 0 -6 -5 -9 -10z" transform="translate(0,142) scale(0.1,-0.1)" stroke="none" fill="#696959"/>

<path d="M775 552 c-16 -20 -60 -66 -97 -101 -38 -35 -73 -73 -79 -85 -9 -20 -9 -20 5 -3 8 10 18 19 23 20 4 1 7 6 5 10 -1 4 4 7 11 5 7 -2 12 0 12 4 0 3 30 37 66 75 55 57 98 113 87 113 -2 0 -16 -17 -33 -38z" transform="translate(0,142) scale(0.1,-0.1)" stroke="none" fill="#696959"/>

<path d="M166 511 c32 -21 73 -53 89 -71 36 -38 74 -60 104 -57 20 1 31 17 11 17 -5 0 -9 3 -7 8 1 4 -1 7 -5 7 -4 0 -24 16 -45 35 -31 29 -30 26 7 -13 26 -28 38 -47 29 -47 -19 0 -54 24 -109 75 -25 23 -61 52 -81 63 -61 37 -56 24 7 -17z" transform="translate(0,142) scale(0.1,-0.1)" stroke="none" fill="#696959"/>

<path d="M130 822 c0 -27 41 -91 101 -157 34 -38 74 -95 89 -128 22 -49 28 -56 33 -38 3 13 1 19 -6 14 -7 -4 -8 0 -4 11 5 11 3 15 -5 10 -8 -5 -9 -2 -5 10 5 11 3 15 -5 10 -8 -5 -9 -2 -5 10 4 9 3 14 -2 11 -5 -3 -13 4 -16 16 -4 11 -36 51 -71 88 -35 38 -73 88 -84 112 -11 24 -20 38 -20 31z" transform="translate(0,142) scale(0.1,-0.1)" stroke="none" fill="#696959"/>

<path d="M809 606 c-42 -29 -84 -70 -124 -122 -33 -44 -60 -81 -60 -84 0 -3 -4 -12 -9 -19 -12 -18 37 15 126 86 43 35 79 75 102 115 20 33 35 62 33 64 -2 2 -32 -16 -68 -40z m-10 -38 c-16 -31 -150 -168 -163 -168 -6 0 21 31 61 69 39 38 79 81 88 95 21 32 30 34 14 4z" transform="translate(0,142) scale(0.1,-0.1)" stroke="none" fill="#A49E98"/>

<path d="M905 879 c-49 -20 -111 -68 -209 -161 -49 -47 -74 -61 -61 -35 4 6 -6 -3 -22 -21 -15 -18 -33 -32 -39 -32 -7 0 -15 -11 -18 -24 -3 -13 -9 -32 -12 -41 -4 -9 8 -2 27 15 19 17 59 44 89 59 96 48 146 84 222 158 95 92 105 103 87 102 -8 0 -36 -9 -64 -20z m-24 -46 c-5 -10 -26 -34 -47 -53 -36 -33 -35 -32 7 17 47 56 55 63 40 36z m-91 -88 c0 -2 -10 -9 -22 -15 -22 -11 -22 -10 -4 4 21 17 26 19 26 11z" transform="translate(0,142) scale(0.1,-0.1)" stroke="none" fill="#A49E98"/>

<path d="M321 1218 c9 -68 24 -165 34 -216 9 -51 15 -95 12 -98 -3 -3 -18 14 -33 38 -88 137 -126 188 -189 250 -38 37 -74 68 -78 68 -12 0 0 -36 40 -120 39 -81 124 -175 201 -223 23 -15 42 -32 42 -37 0 -6 6 -10 14 -10 9 0 15 -20 20 -62 3 -35 10 -94 16 -133 5 -38 9 -115 9 -170 l-1 -100 -66 135 c-46 92 -96 173 -157 254 -90 119 -90 120 -93 85 -5 -58 33 -138 118 -249 91 -119 158 -213 165 -233 7 -18 -32 -19 -64 -2 -14 7 -44 33 -66 57 l-40 43 40 -36 c51 -46 86 -69 104 -69 10 0 5 10 -14 30 -15 16 -32 27 -37 24 -4 -3 -26 8 -47 25 -21 17 -41 28 -43 25 -3 -3 -27 9 -54 25 -54 35 -51 42 5 10 36 -21 36 -21 11 0 -59 49 -110 81 -110 70 0 -24 111 -160 166 -203 68 -53 132 -86 168 -86 26 0 26 0 26 -82 0 -46 3 -100 6 -120 6 -31 9 -35 20 -23 8 8 14 35 14 67 0 42 6 62 30 98 16 25 30 52 30 60 0 8 -12 -3 -26 -25 l-25 -40 5 45 5 45 -14 -35 c-7 -19 -14 -60 -15 -90 0 -44 -3 -51 -11 -37 -13 23 -6 314 10 412 9 55 20 82 51 125 89 123 113 183 123 318 5 63 5 63 -14 46 -60 -54 -141 -246 -161 -381 -6 -40 -14 -73 -17 -73 -4 0 -15 62 -25 138 -10 75 -28 198 -41 272 -13 74 -26 160 -30 190 -9 83 -16 120 -24 120 -4 0 0 -55 10 -122z m-120 -150 l93 -103 -78 75 c-71 69 -124 130 -113 130 3 0 47 -46 98 -102z m375 -162 c-23 -60 -73 -156 -81 -156 -2 0 13 35 34 78 21 42 44 94 51 115 7 21 14 36 16 34 3 -2 -6 -34 -20 -71z m-347 -221 c54 -56 122 -167 121 -197 -1 -7 -14 14 -29 48 -16 33 -56 91 -90 129 -60 66 -101 130 -101 157 0 7 10 -7 21 -32 11 -24 46 -72 78 -105z m92 -262 c13 -16 12 -17 -3 -4 -17 13 -22 21 -14 21 2 0 10 -8 17 -17z" transform="translate(0,142) scale(0.1,-0.1)" stroke="none" fill="#A49E98"/>

</g>

<g id="1" transform="translate(104.0,0)scale(1,1)">

<path d="M580 943 c-7 -21 -30 -73 -51 -115 -21 -43 -36 -78 -34 -78 15 0 112 216 101 227 -2 2 -9 -13 -16 -34z" transform="translate(0,142) scale(0.1,-0.1)" stroke="none" fill="#696959"/>

<path d="M430 309 c0 -68 5 -131 10 -139 7 -10 8 31 4 120 -4 74 -8 137 -10 139 -2 2 -4 -52 -4 -120z" transform="translate(0,142) scale(0.1,-0.1)" stroke="none" fill="#696959"/>

<path d="M95 1160 c-4 -6 -3 -9 2 -8 4 1 50 -41 102 -92 l94 -95 -93 103 c-51 56 -94 102 -96 102 -1 0 -6 -5 -9 -10z" transform="translate(0,142) scale(0.1,-0.1)" stroke="none" fill="#696959"/>

<path d="M775 552 c-16 -20 -60 -66 -97 -101 -38 -35 -73 -73 -79 -85 -9 -20 -9 -20 5 -3 8 10 18 19 23 20 4 1 7 6 5 10 -1 4 4 7 11 5 7 -2 12 0 12 4 0 3 30 37 66 75 55 57 98 113 87 113 -2 0 -16 -17 -33 -38z" transform="translate(0,142) scale(0.1,-0.1)" stroke="none" fill="#696959"/>

<path d="M166 511 c32 -21 73 -53 89 -71 36 -38 74 -60 104 -57 20 1 31 17 11 17 -5 0 -9 3 -7 8 1 4 -1 7 -5 7 -4 0 -24 16 -45 35 -31 29 -30 26 7 -13 26 -28 38 -47 29 -47 -19 0 -54 24 -109 75 -25 23 -61 52 -81 63 -61 37 -56 24 7 -17z" transform="translate(0,142) scale(0.1,-0.1)" stroke="none" fill="#696959"/>

<path d="M130 822 c0 -27 41 -91 101 -157 34 -38 74 -95 89 -128 22 -49 28 -56 33 -38 3 13 1 19 -6 14 -7 -4 -8 0 -4 11 5 11 3 15 -5 10 -8 -5 -9 -2 -5 10 5 11 3 15 -5 10 -8 -5 -9 -2 -5 10 4 9 3 14 -2 11 -5 -3 -13 4 -16 16 -4 11 -36 51 -71 88 -35 38 -73 88 -84 112 -11 24 -20 38 -20 31z" transform="translate(0,142) scale(0.1,-0.1)" stroke="none" fill="#696959"/>

<path d="M809 606 c-42 -29 -84 -70 -124 -122 -33 -44 -60 -81 -60 -84 0 -3 -4 -12 -9 -19 -12 -18 37 15 126 86 43 35 79 75 102 115 20 33 35 62 33 64 -2 2 -32 -16 -68 -40z m-10 -38 c-16 -31 -150 -168 -163 -168 -6 0 21 31 61 69 39 38 79 81 88 95 21 32 30 34 14 4z" transform="translate(0,142) scale(0.1,-0.1)" stroke="none" fill="#A49E98"/>

<path d="M905 879 c-49 -20 -111 -68 -209 -161 -49 -47 -74 -61 -61 -35 4 6 -6 -3 -22 -21 -15 -18 -33 -32 -39 -32 -7 0 -15 -11 -18 -24 -3 -13 -9 -32 -12 -41 -4 -9 8 -2 27 15 19 17 59 44 89 59 96 48 146 84 222 158 95 92 105 103 87 102 -8 0 -36 -9 -64 -20z m-24 -46 c-5 -10 -26 -34 -47 -53 -36 -33 -35 -32 7 17 47 56 55 63 40 36z m-91 -88 c0 -2 -10 -9 -22 -15 -22 -11 -22 -10 -4 4 21 17 26 19 26 11z" transform="translate(0,142) scale(0.1,-0.1)" stroke="none" fill="#A49E98"/>

<path d="M321 1218 c9 -68 24 -165 34 -216 9 -51 15 -95 12 -98 -3 -3 -18 14 -33 38 -88 137 -126 188 -189 250 -38 37 -74 68 -78 68 -12 0 0 -36 40 -120 39 -81 124 -175 201 -223 23 -15 42 -32 42 -37 0 -6 6 -10 14 -10 9 0 15 -20 20 -62 3 -35 10 -94 16 -133 5 -38 9 -115 9 -170 l-1 -100 -66 135 c-46 92 -96 173 -157 254 -90 119 -90 120 -93 85 -5 -58 33 -138 118 -249 91 -119 158 -213 165 -233 7 -18 -32 -19 -64 -2 -14 7 -44 33 -66 57 l-40 43 40 -36 c51 -46 86 -69 104 -69 10 0 5 10 -14 30 -15 16 -32 27 -37 24 -4 -3 -26 8 -47 25 -21 17 -41 28 -43 25 -3 -3 -27 9 -54 25 -54 35 -51 42 5 10 36 -21 36 -21 11 0 -59 49 -110 81 -110 70 0 -24 111 -160 166 -203 68 -53 132 -86 168 -86 26 0 26 0 26 -82 0 -46 3 -100 6 -120 6 -31 9 -35 20 -23 8 8 14 35 14 67 0 42 6 62 30 98 16 25 30 52 30 60 0 8 -12 -3 -26 -25 l-25 -40 5 45 5 45 -14 -35 c-7 -19 -14 -60 -15 -90 0 -44 -3 -51 -11 -37 -13 23 -6 314 10 412 9 55 20 82 51 125 89 123 113 183 123 318 5 63 5 63 -14 46 -60 -54 -141 -246 -161 -381 -6 -40 -14 -73 -17 -73 -4 0 -15 62 -25 138 -10 75 -28 198 -41 272 -13 74 -26 160 -30 190 -9 83 -16 120 -24 120 -4 0 0 -55 10 -122z m-120 -150 l93 -103 -78 75 c-71 69 -124 130 -113 130 3 0 47 -46 98 -102z m375 -162 c-23 -60 -73 -156 -81 -156 -2 0 13 35 34 78 21 42 44 94 51 115 7 21 14 36 16 34 3 -2 -6 -34 -20 -71z m-347 -221 c54 -56 122 -167 121 -197 -1 -7 -14 14 -29 48 -16 33 -56 91 -90 129 -60 66 -101 130 -101 157 0 7 10 -7 21 -32 11 -24 46 -72 78 -105z m92 -262 c13 -16 12 -17 -3 -4 -17 13 -22 21 -14 21 2 0 10 -8 17 -17z" transform="translate(0,142) scale(0.1,-0.1)" stroke="none" fill="#A49E98"/>

</g>

<g id="2" transform="translate(208.0,0)scale(1,1)">

<path d="M580 943 c-7 -21 -30 -73 -51 -115 -21 -43 -36 -78 -34 -78 15 0 112 216 101 227 -2 2 -9 -13 -16 -34z" transform="translate(0,142) scale(0.1,-0.1)" stroke="none" fill="#696959"/>

<path d="M430 309 c0 -68 5 -131 10 -139 7 -10 8 31 4 120 -4 74 -8 137 -10 139 -2 2 -4 -52 -4 -120z" transform="translate(0,142) scale(0.1,-0.1)" stroke="none" fill="#696959"/>

<path d="M95 1160 c-4 -6 -3 -9 2 -8 4 1 50 -41 102 -92 l94 -95 -93 103 c-51 56 -94 102 -96 102 -1 0 -6 -5 -9 -10z" transform="translate(0,142) scale(0.1,-0.1)" stroke="none" fill="#696959"/>

<path d="M775 552 c-16 -20 -60 -66 -97 -101 -38 -35 -73 -73 -79 -85 -9 -20 -9 -20 5 -3 8 10 18 19 23 20 4 1 7 6 5 10 -1 4 4 7 11 5 7 -2 12 0 12 4 0 3 30 37 66 75 55 57 98 113 87 113 -2 0 -16 -17 -33 -38z" transform="translate(0,142) scale(0.1,-0.1)" stroke="none" fill="#696959"/>

<path d="M166 511 c32 -21 73 -53 89 -71 36 -38 74 -60 104 -57 20 1 31 17 11 17 -5 0 -9 3 -7 8 1 4 -1 7 -5 7 -4 0 -24 16 -45 35 -31 29 -30 26 7 -13 26 -28 38 -47 29 -47 -19 0 -54 24 -109 75 -25 23 -61 52 -81 63 -61 37 -56 24 7 -17z" transform="translate(0,142) scale(0.1,-0.1)" stroke="none" fill="#696959"/>

<path d="M130 822 c0 -27 41 -91 101 -157 34 -38 74 -95 89 -128 22 -49 28 -56 33 -38 3 13 1 19 -6 14 -7 -4 -8 0 -4 11 5 11 3 15 -5 10 -8 -5 -9 -2 -5 10 5 11 3 15 -5 10 -8 -5 -9 -2 -5 10 4 9 3 14 -2 11 -5 -3 -13 4 -16 16 -4 11 -36 51 -71 88 -35 38 -73 88 -84 112 -11 24 -20 38 -20 31z" transform="translate(0,142) scale(0.1,-0.1)" stroke="none" fill="#696959"/>

<path d="M809 606 c-42 -29 -84 -70 -124 -122 -33 -44 -60 -81 -60 -84 0 -3 -4 -12 -9 -19 -12 -18 37 15 126 86 43 35 79 75 102 115 20 33 35 62 33 64 -2 2 -32 -16 -68 -40z m-10 -38 c-16 -31 -150 -168 -163 -168 -6 0 21 31 61 69 39 38 79 81 88 95 21 32 30 34 14 4z" transform="translate(0,142) scale(0.1,-0.1)" stroke="none" fill="#A49E98"/>

<path d="M905 879 c-49 -20 -111 -68 -209 -161 -49 -47 -74 -61 -61 -35 4 6 -6 -3 -22 -21 -15 -18 -33 -32 -39 -32 -7 0 -15 -11 -18 -24 -3 -13 -9 -32 -12 -41 -4 -9 8 -2 27 15 19 17 59 44 89 59 96 48 146 84 222 158 95 92 105 103 87 102 -8 0 -36 -9 -64 -20z m-24 -46 c-5 -10 -26 -34 -47 -53 -36 -33 -35 -32 7 17 47 56 55 63 40 36z m-91 -88 c0 -2 -10 -9 -22 -15 -22 -11 -22 -10 -4 4 21 17 26 19 26 11z" transform="translate(0,142) scale(0.1,-0.1)" stroke="none" fill="#A49E98"/>

<path d="M321 1218 c9 -68 24 -165 34 -216 9 -51 15 -95 12 -98 -3 -3 -18 14 -33 38 -88 137 -126 188 -189 250 -38 37 -74 68 -78 68 -12 0 0 -36 40 -120 39 -81 124 -175 201 -223 23 -15 42 -32 42 -37 0 -6 6 -10 14 -10 9 0 15 -20 20 -62 3 -35 10 -94 16 -133 5 -38 9 -115 9 -170 l-1 -100 -66 135 c-46 92 -96 173 -157 254 -90 119 -90 120 -93 85 -5 -58 33 -138 118 -249 91 -119 158 -213 165 -233 7 -18 -32 -19 -64 -2 -14 7 -44 33 -66 57 l-40 43 40 -36 c51 -46 86 -69 104 -69 10 0 5 10 -14 30 -15 16 -32 27 -37 24 -4 -3 -26 8 -47 25 -21 17 -41 28 -43 25 -3 -3 -27 9 -54 25 -54 35 -51 42 5 10 36 -21 36 -21 11 0 -59 49 -110 81 -110 70 0 -24 111 -160 166 -203 68 -53 132 -86 168 -86 26 0 26 0 26 -82 0 -46 3 -100 6 -120 6 -31 9 -35 20 -23 8 8 14 35 14 67 0 42 6 62 30 98 16 25 30 52 30 60 0 8 -12 -3 -26 -25 l-25 -40 5 45 5 45 -14 -35 c-7 -19 -14 -60 -15 -90 0 -44 -3 -51 -11 -37 -13 23 -6 314 10 412 9 55 20 82 51 125 89 123 113 183 123 318 5 63 5 63 -14 46 -60 -54 -141 -246 -161 -381 -6 -40 -14 -73 -17 -73 -4 0 -15 62 -25 138 -10 75 -28 198 -41 272 -13 74 -26 160 -30 190 -9 83 -16 120 -24 120 -4 0 0 -55 10 -122z m-120 -150 l93 -103 -78 75 c-71 69 -124 130 -113 130 3 0 47 -46 98 -102z m375 -162 c-23 -60 -73 -156 -81 -156 -2 0 13 35 34 78 21 42 44 94 51 115 7 21 14 36 16 34 3 -2 -6 -34 -20 -71z m-347 -221 c54 -56 122 -167 121 -197 -1 -7 -14 14 -29 48 -16 33 -56 91 -90 129 -60 66 -101 130 -101 157 0 7 10 -7 21 -32 11 -24 46 -72 78 -105z m92 -262 c13 -16 12 -17 -3 -4 -17 13 -22 21 -14 21 2 0 10 -8 17 -17z" transform="translate(0,142) scale(0.1,-0.1)" stroke="none" fill="#A49E98"/>

</g>

<g id="3" transform="translate(312.0,0)scale(1,1)">

<path d="M580 943 c-7 -21 -30 -73 -51 -115 -21 -43 -36 -78 -34 -78 15 0 112 216 101 227 -2 2 -9 -13 -16 -34z" transform="translate(0,142) scale(0.1,-0.1)" stroke="none" fill="#696959"/>

<path d="M430 309 c0 -68 5 -131 10 -139 7 -10 8 31 4 120 -4 74 -8 137 -10 139 -2 2 -4 -52 -4 -120z" transform="translate(0,142) scale(0.1,-0.1)" stroke="none" fill="#696959"/>

<path d="M95 1160 c-4 -6 -3 -9 2 -8 4 1 50 -41 102 -92 l94 -95 -93 103 c-51 56 -94 102 -96 102 -1 0 -6 -5 -9 -10z" transform="translate(0,142) scale(0.1,-0.1)" stroke="none" fill="#696959"/>

<path d="M775 552 c-16 -20 -60 -66 -97 -101 -38 -35 -73 -73 -79 -85 -9 -20 -9 -20 5 -3 8 10 18 19 23 20 4 1 7 6 5 10 -1 4 4 7 11 5 7 -2 12 0 12 4 0 3 30 37 66 75 55 57 98 113 87 113 -2 0 -16 -17 -33 -38z" transform="translate(0,142) scale(0.1,-0.1)" stroke="none" fill="#696959"/>

<path d="M166 511 c32 -21 73 -53 89 -71 36 -38 74 -60 104 -57 20 1 31 17 11 17 -5 0 -9 3 -7 8 1 4 -1 7 -5 7 -4 0 -24 16 -45 35 -31 29 -30 26 7 -13 26 -28 38 -47 29 -47 -19 0 -54 24 -109 75 -25 23 -61 52 -81 63 -61 37 -56 24 7 -17z" transform="translate(0,142) scale(0.1,-0.1)" stroke="none" fill="#696959"/>

<path d="M130 822 c0 -27 41 -91 101 -157 34 -38 74 -95 89 -128 22 -49 28 -56 33 -38 3 13 1 19 -6 14 -7 -4 -8 0 -4 11 5 11 3 15 -5 10 -8 -5 -9 -2 -5 10 5 11 3 15 -5 10 -8 -5 -9 -2 -5 10 4 9 3 14 -2 11 -5 -3 -13 4 -16 16 -4 11 -36 51 -71 88 -35 38 -73 88 -84 112 -11 24 -20 38 -20 31z" transform="translate(0,142) scale(0.1,-0.1)" stroke="none" fill="#696959"/>

<path d="M809 606 c-42 -29 -84 -70 -124 -122 -33 -44 -60 -81 -60 -84 0 -3 -4 -12 -9 -19 -12 -18 37 15 126 86 43 35 79 75 102 115 20 33 35 62 33 64 -2 2 -32 -16 -68 -40z m-10 -38 c-16 -31 -150 -168 -163 -168 -6 0 21 31 61 69 39 38 79 81 88 95 21 32 30 34 14 4z" transform="translate(0,142) scale(0.1,-0.1)" stroke="none" fill="#A49E98"/>

<path d="M905 879 c-49 -20 -111 -68 -209 -161 -49 -47 -74 -61 -61 -35 4 6 -6 -3 -22 -21 -15 -18 -33 -32 -39 -32 -7 0 -15 -11 -18 -24 -3 -13 -9 -32 -12 -41 -4 -9 8 -2 27 15 19 17 59 44 89 59 96 48 146 84 222 158 95 92 105 103 87 102 -8 0 -36 -9 -64 -20z m-24 -46 c-5 -10 -26 -34 -47 -53 -36 -33 -35 -32 7 17 47 56 55 63 40 36z m-91 -88 c0 -2 -10 -9 -22 -15 -22 -11 -22 -10 -4 4 21 17 26 19 26 11z" transform="translate(0,142) scale(0.1,-0.1)" stroke="none" fill="#A49E98"/>

<path d="M321 1218 c9 -68 24 -165 34 -216 9 -51 15 -95 12 -98 -3 -3 -18 14 -33 38 -88 137 -126 188 -189 250 -38 37 -74 68 -78 68 -12 0 0 -36 40 -120 39 -81 124 -175 201 -223 23 -15 42 -32 42 -37 0 -6 6 -10 14 -10 9 0 15 -20 20 -62 3 -35 10 -94 16 -133 5 -38 9 -115 9 -170 l-1 -100 -66 135 c-46 92 -96 173 -157 254 -90 119 -90 120 -93 85 -5 -58 33 -138 118 -249 91 -119 158 -213 165 -233 7 -18 -32 -19 -64 -2 -14 7 -44 33 -66 57 l-40 43 40 -36 c51 -46 86 -69 104 -69 10 0 5 10 -14 30 -15 16 -32 27 -37 24 -4 -3 -26 8 -47 25 -21 17 -41 28 -43 25 -3 -3 -27 9 -54 25 -54 35 -51 42 5 10 36 -21 36 -21 11 0 -59 49 -110 81 -110 70 0 -24 111 -160 166 -203 68 -53 132 -86 168 -86 26 0 26 0 26 -82 0 -46 3 -100 6 -120 6 -31 9 -35 20 -23 8 8 14 35 14 67 0 42 6 62 30 98 16 25 30 52 30 60 0 8 -12 -3 -26 -25 l-25 -40 5 45 5 45 -14 -35 c-7 -19 -14 -60 -15 -90 0 -44 -3 -51 -11 -37 -13 23 -6 314 10 412 9 55 20 82 51 125 89 123 113 183 123 318 5 63 5 63 -14 46 -60 -54 -141 -246 -161 -381 -6 -40 -14 -73 -17 -73 -4 0 -15 62 -25 138 -10 75 -28 198 -41 272 -13 74 -26 160 -30 190 -9 83 -16 120 -24 120 -4 0 0 -55 10 -122z m-120 -150 l93 -103 -78 75 c-71 69 -124 130 -113 130 3 0 47 -46 98 -102z m375 -162 c-23 -60 -73 -156 -81 -156 -2 0 13 35 34 78 21 42 44 94 51 115 7 21 14 36 16 34 3 -2 -6 -34 -20 -71z m-347 -221 c54 -56 122 -167 121 -197 -1 -7 -14 14 -29 48 -16 33 -56 91 -90 129 -60 66 -101 130 -101 157 0 7 10 -7 21 -32 11 -24 46 -72 78 -105z m92 -262 c13 -16 12 -17 -3 -4 -17 13 -22 21 -14 21 2 0 10 -8 17 -17z" transform="translate(0,142) scale(0.1,-0.1)" stroke="none" fill="#A49E98"/>

</g>

<g id="4" transform="translate(416.0,0)scale(1,1)">

<path d="M580 943 c-7 -21 -30 -73 -51 -115 -21 -43 -36 -78 -34 -78 15 0 112 216 101 227 -2 2 -9 -13 -16 -34z" transform="translate(0,142) scale(0.1,-0.1)" stroke="none" fill="#696959"/>

<path d="M430 309 c0 -68 5 -131 10 -139 7 -10 8 31 4 120 -4 74 -8 137 -10 139 -2 2 -4 -52 -4 -120z" transform="translate(0,142) scale(0.1,-0.1)" stroke="none" fill="#696959"/>

<path d="M95 1160 c-4 -6 -3 -9 2 -8 4 1 50 -41 102 -92 l94 -95 -93 103 c-51 56 -94 102 -96 102 -1 0 -6 -5 -9 -10z" transform="translate(0,142) scale(0.1,-0.1)" stroke="none" fill="#696959"/>

<path d="M775 552 c-16 -20 -60 -66 -97 -101 -38 -35 -73 -73 -79 -85 -9 -20 -9 -20 5 -3 8 10 18 19 23 20 4 1 7 6 5 10 -1 4 4 7 11 5 7 -2 12 0 12 4 0 3 30 37 66 75 55 57 98 113 87 113 -2 0 -16 -17 -33 -38z" transform="translate(0,142) scale(0.1,-0.1)" stroke="none" fill="#696959"/>

<path d="M166 511 c32 -21 73 -53 89 -71 36 -38 74 -60 104 -57 20 1 31 17 11 17 -5 0 -9 3 -7 8 1 4 -1 7 -5 7 -4 0 -24 16 -45 35 -31 29 -30 26 7 -13 26 -28 38 -47 29 -47 -19 0 -54 24 -109 75 -25 23 -61 52 -81 63 -61 37 -56 24 7 -17z" transform="translate(0,142) scale(0.1,-0.1)" stroke="none" fill="#696959"/>

<path d="M130 822 c0 -27 41 -91 101 -157 34 -38 74 -95 89 -128 22 -49 28 -56 33 -38 3 13 1 19 -6 14 -7 -4 -8 0 -4 11 5 11 3 15 -5 10 -8 -5 -9 -2 -5 10 5 11 3 15 -5 10 -8 -5 -9 -2 -5 10 4 9 3 14 -2 11 -5 -3 -13 4 -16 16 -4 11 -36 51 -71 88 -35 38 -73 88 -84 112 -11 24 -20 38 -20 31z" transform="translate(0,142) scale(0.1,-0.1)" stroke="none" fill="#696959"/>

<path d="M809 606 c-42 -29 -84 -70 -124 -122 -33 -44 -60 -81 -60 -84 0 -3 -4 -12 -9 -19 -12 -18 37 15 126 86 43 35 79 75 102 115 20 33 35 62 33 64 -2 2 -32 -16 -68 -40z m-10 -38 c-16 -31 -150 -168 -163 -168 -6 0 21 31 61 69 39 38 79 81 88 95 21 32 30 34 14 4z" transform="translate(0,142) scale(0.1,-0.1)" stroke="none" fill="#A49E98"/>

<path d="M905 879 c-49 -20 -111 -68 -209 -161 -49 -47 -74 -61 -61 -35 4 6 -6 -3 -22 -21 -15 -18 -33 -32 -39 -32 -7 0 -15 -11 -18 -24 -3 -13 -9 -32 -12 -41 -4 -9 8 -2 27 15 19 17 59 44 89 59 96 48 146 84 222 158 95 92 105 103 87 102 -8 0 -36 -9 -64 -20z m-24 -46 c-5 -10 -26 -34 -47 -53 -36 -33 -35 -32 7 17 47 56 55 63 40 36z m-91 -88 c0 -2 -10 -9 -22 -15 -22 -11 -22 -10 -4 4 21 17 26 19 26 11z" transform="translate(0,142) scale(0.1,-0.1)" stroke="none" fill="#A49E98"/>

<path d="M321 1218 c9 -68 24 -165 34 -216 9 -51 15 -95 12 -98 -3 -3 -18 14 -33 38 -88 137 -126 188 -189 250 -38 37 -74 68 -78 68 -12 0 0 -36 40 -120 39 -81 124 -175 201 -223 23 -15 42 -32 42 -37 0 -6 6 -10 14 -10 9 0 15 -20 20 -62 3 -35 10 -94 16 -133 5 -38 9 -115 9 -170 l-1 -100 -66 135 c-46 92 -96 173 -157 254 -90 119 -90 120 -93 85 -5 -58 33 -138 118 -249 91 -119 158 -213 165 -233 7 -18 -32 -19 -64 -2 -14 7 -44 33 -66 57 l-40 43 40 -36 c51 -46 86 -69 104 -69 10 0 5 10 -14 30 -15 16 -32 27 -37 24 -4 -3 -26 8 -47 25 -21 17 -41 28 -43 25 -3 -3 -27 9 -54 25 -54 35 -51 42 5 10 36 -21 36 -21 11 0 -59 49 -110 81 -110 70 0 -24 111 -160 166 -203 68 -53 132 -86 168 -86 26 0 26 0 26 -82 0 -46 3 -100 6 -120 6 -31 9 -35 20 -23 8 8 14 35 14 67 0 42 6 62 30 98 16 25 30 52 30 60 0 8 -12 -3 -26 -25 l-25 -40 5 45 5 45 -14 -35 c-7 -19 -14 -60 -15 -90 0 -44 -3 -51 -11 -37 -13 23 -6 314 10 412 9 55 20 82 51 125 89 123 113 183 123 318 5 63 5 63 -14 46 -60 -54 -141 -246 -161 -381 -6 -40 -14 -73 -17 -73 -4 0 -15 62 -25 138 -10 75 -28 198 -41 272 -13 74 -26 160 -30 190 -9 83 -16 120 -24 120 -4 0 0 -55 10 -122z m-120 -150 l93 -103 -78 75 c-71 69 -124 130 -113 130 3 0 47 -46 98 -102z m375 -162 c-23 -60 -73 -156 -81 -156 -2 0 13 35 34 78 21 42 44 94 51 115 7 21 14 36 16 34 3 -2 -6 -34 -20 -71z m-347 -221 c54 -56 122 -167 121 -197 -1 -7 -14 14 -29 48 -16 33 -56 91 -90 129 -60 66 -101 130 -101 157 0 7 10 -7 21 -32 11 -24 46 -72 78 -105z m92 -262 c13 -16 12 -17 -3 -4 -17 13 -22 21 -14 21 2 0 10 -8 17 -17z" transform="translate(0,142) scale(0.1,-0.1)" stroke="none" fill="#A49E98"/>

</g>

</g>
</svg>