<?xml version="1.0" standalone="no"?>
<!DOCTYPE svg PUBLIC "-//W3C//DTD SVG 20010904//EN"
 "http://www.w3.org/TR/2001/REC-SVG-20010904/DTD/svg10.dtd">
<svg version="1.0" xmlns="http://www.w3.org/2000/svg" width="624pt" height="360pt" viewBox="0 0 624 360" preserveAspectRatio = "xMidYMid meet" >
<metadata>
Created by ZoeQu, written in 2022
</metadata>
<rect width="624" height="360" fill="#191F33"/>
<g id="row0" transform="translate(20,0.0)">
<g id="0" transform="translate(0.0,0)scale(1,1)">

<path d="M60 404 c0 -10 52 -74 60 -74 4 0 11 11 14 24 3 13 9 31 12 40 5 13 -2 16 -40 16 -25 0 -46 -3 -46 -6z" transform="translate(0,90) scale(0.1,-0.1)" stroke="none" fill="#D6A76A"/>

<path d="M1035 204 c-16 -7 -40 -13 -52 -14 -17 0 -23 -6 -23 -24 0 -25 16 -36 54 -36 31 0 65 39 57 66 -6 19 -8 20 -36 8z" transform="translate(0,90) scale(0.1,-0.1)" stroke="none" fill="#D6A76A"/>

<path d="M615 211 c-6 -5 -21 -11 -34 -13 -34 -4 -52 -56 -25 -75 37 -27 84 7 84 61 0 36 -8 44 -25 27z" transform="translate(0,90) scale(0.1,-0.1)" stroke="none" fill="#D6A76A"/>

<path d="M1172 491 l-24 -6 23 -28 c14 -19 28 -27 40 -24 11 3 19 1 19 -4 0 -5 -12 -9 -26 -9 -41 0 -28 -34 15 -38 30 -3 33 -1 28 18 -4 15 -2 20 8 16 21 -8 26 22 10 55 -9 16 -18 29 -21 29 -2 0 0 -9 5 -19 8 -15 7 -20 -5 -25 -21 -8 -26 -8 -20 3 10 15 -28 38 -52 32z" transform="translate(0,90) scale(0.1,-0.1)" stroke="none" fill="#6E2D13"/>

<path d="M805 621 c-48 -8 -65 -17 -65 -37 0 -18 3 -18 50 6 22 11 44 20 50 20 5 0 10 -9 10 -20 0 -27 23 -25 35 3 16 36 125 37 111 0 -5 -11 -2 -14 10 -9 8 3 18 6 20 6 2 0 4 6 4 14 0 7 -10 16 -22 20 -29 7 -150 6 -203 -3z" transform="translate(0,90) scale(0.1,-0.1)" stroke="none" fill="#B35819"/>

<path d="M288 684 c-3 -2 -2 -24 3 -47 4 -23 8 -45 9 -49 0 -4 -22 -4 -50 -1 -27 3 -50 2 -50 -3 0 -5 13 -24 28 -43 l28 -33 40 21 c95 53 114 65 114 75 0 6 -21 25 -48 42 -61 41 -68 44 -74 38z" transform="translate(0,90) scale(0.1,-0.1)" stroke="none" fill="#D6A76A"/>

<path d="M1074 589 c0 -16 5 -19 24 -14 13 3 33 3 43 0 16 -5 18 -10 8 -21 -13 -16 2 -19 18 -3 8 8 15 4 27 -12 11 -16 12 -25 5 -30 -13 -8 -49 0 -49 11 0 15 -60 17 -73 2 -10 -13 -8 -14 10 -8 16 5 23 2 28 -14 11 -33 -13 -53 -57 -47 -21 3 -41 1 -44 -4 -3 -5 -13 -5 -24 1 -10 5 -26 7 -34 4 -9 -3 -16 -1 -16 5 0 6 -13 11 -30 11 -22 0 -30 5 -30 18 0 10 5 23 12 30 18 18 65 15 78 -5 9 -15 10 -13 8 12 -3 28 -6 30 -45 30 -28 0 -43 -4 -43 -13 0 -7 -7 -15 -15 -18 -8 -4 -15 -16 -15 -28 0 -31 -16 -50 -34 -43 -19 7 -22 47 -3 47 6 1 -1 8 -17 16 -28 15 -30 15 -58 -14 -25 -25 -28 -33 -19 -50 6 -11 11 -35 11 -52 0 -24 -7 -35 -30 -48 -17 -9 -30 -24 -29 -32 3 -31 -2 -41 -38 -78 -21 -21 -34 -34 -29 -30 19 16 26 7 26 -32 0 -22 -3 -40 -7 -40 -14 0 -7 -81 8 -91 43 -27 102 5 125 68 9 27 20 51 24 56 3 4 51 9 106 10 63 2 113 9 137 20 36 15 37 15 38 -4 1 -10 2 -22 3 -26 1 -5 5 -22 10 -39 7 -30 8 -31 48 -24 47 9 73 37 83 87 l6 33 59 -7 c63 -6 139 8 180 34 23 16 23 17 5 24 -11 4 -33 8 -48 8 -50 2 -85 28 -116 89 -17 31 -30 52 -31 45 0 -7 -6 -10 -14 -7 -11 4 -13 0 -9 -16 5 -19 2 -21 -28 -18 -43 4 -56 38 -15 38 14 0 26 4 26 9 0 5 -8 7 -19 4 -12 -3 -26 5 -40 24 l-23 28 24 6 c26 7 62 -17 51 -34 -4 -6 0 -8 11 -4 10 4 20 7 22 7 3 0 -2 13 -10 29 -17 32 -78 89 -110 100 -57 22 -62 22 -62 0z" transform="translate(0,90) scale(0.1,-0.1)" stroke="none" fill="#B35819"/>

<path d="M562 837 c-6 -7 -16 -25 -22 -41 -5 -15 -37 -70 -70 -120 -55 -86 -65 -95 -132 -132 -39 -21 -75 -38 -78 -37 -17 5 -90 -70 -101 -105 -6 -20 -15 -41 -19 -47 -15 -22 -32 -94 -25 -105 4 -7 23 -18 41 -26 32 -13 36 -12 82 16 27 16 52 30 56 30 4 0 5 -17 2 -37 -8 -52 4 -66 57 -67 35 -1 54 6 88 30 60 43 83 49 104 27 25 -25 44 -25 76 0 37 27 63 66 61 92 -1 13 9 26 28 37 23 13 30 24 30 48 0 17 -5 41 -11 52 -9 17 -6 25 19 50 28 29 30 29 58 14 16 -8 23 -15 17 -16 -19 0 -16 -40 3 -47 18 -7 34 12 34 43 0 12 7 24 15 28 8 3 15 11 15 18 0 9 15 13 43 13 39 0 42 -2 45 -30 2 -25 1 -27 -8 -12 -13 20 -60 23 -78 5 -7 -7 -12 -20 -12 -30 0 -13 8 -18 30 -18 17 0 30 -5 30 -11 0 -6 7 -8 16 -5 8 3 24 1 34 -4 11 -6 21 -6 24 -1 3 5 23 7 44 4 44 -6 68 14 57 47 -5 16 -12 19 -28 14 -19 -6 -20 -5 -9 8 12 15 61 13 72 -2 3 -5 12 -9 20 -10 31 -5 39 0 33 18 -6 15 -4 15 18 -3 17 -14 16 -10 -6 14 -28 30 -74 64 -62 44 3 -4 -14 -8 -37 -9 -39 -1 -43 1 -40 22 2 18 -4 23 -33 29 -19 3 -38 4 -41 1 -3 -3 2 -6 11 -6 22 0 22 -26 1 -34 -22 -9 -24 -8 -18 9 4 9 -3 16 -19 20 -43 11 -81 2 -92 -22 -12 -28 -35 -30 -35 -3 0 25 -11 25 -60 0 -22 -11 -42 -20 -45 -20 -11 0 -4 29 9 37 21 12 -6 73 -32 73 -23 0 -32 18 -32 62 0 22 -11 41 -39 69 -40 40 -70 49 -89 26z m629 -284 c13 -16 12 -17 -3 -5 -11 9 -18 10 -23 2 -3 -5 -11 -10 -17 -10 -7 0 -6 6 2 15 16 19 24 19 41 -2z m-161 -63 c0 -5 -2 -10 -4 -10 -3 0 -8 5 -11 10 -3 6 -1 10 4 10 6 0 11 -4 11 -10z m-641 -14 c10 -12 3 -15 -36 -18 -57 -5 -65 -1 -39 18 25 18 60 18 75 0z m76 -66 c11 -18 -15 -50 -40 -50 -27 0 -34 27 -13 48 14 14 45 16 53 2z" transform="translate(0,90) scale(0.1,-0.1)" stroke="none" fill="#6E2D13"/>

</g>

<g id="1" transform="translate(156.0,0)scale(1,1)">

<path d="M60 404 c0 -10 52 -74 60 -74 4 0 11 11 14 24 3 13 9 31 12 40 5 13 -2 16 -40 16 -25 0 -46 -3 -46 -6z" transform="translate(0,90) scale(0.1,-0.1)" stroke="none" fill="#D6A76A"/>

<path d="M1035 204 c-16 -7 -40 -13 -52 -14 -17 0 -23 -6 -23 -24 0 -25 16 -36 54 -36 31 0 65 39 57 66 -6 19 -8 20 -36 8z" transform="translate(0,90) scale(0.1,-0.1)" stroke="none" fill="#D6A76A"/>

<path d="M615 211 c-6 -5 -21 -11 -34 -13 -34 -4 -52 -56 -25 -75 37 -27 84 7 84 61 0 36 -8 44 -25 27z" transform="translate(0,90) scale(0.1,-0.1)" stroke="none" fill="#D6A76A"/>

<path d="M1172 491 l-24 -6 23 -28 c14 -19 28 -27 40 -24 11 3 19 1 19 -4 0 -5 -12 -9 -26 -9 -41 0 -28 -34 15 -38 30 -3 33 -1 28 18 -4 15 -2 20 8 16 21 -8 26 22 10 55 -9 16 -18 29 -21 29 -2 0 0 -9 5 -19 8 -15 7 -20 -5 -25 -21 -8 -26 -8 -20 3 10 15 -28 38 -52 32z" transform="translate(0,90) scale(0.1,-0.1)" stroke="none" fill="#6E2D13"/>

<path d="M805 621 c-48 -8 -65 -17 -65 -37 0 -18 3 -18 50 6 22 11 44 20 50 20 5 0 10 -9 10 -20 0 -27 23 -25 35 3 16 36 125 37 111 0 -5 -11 -2 -14 10 -9 8 3 18 6 20 6 2 0 4 6 4 14 0 7 -10 16 -22 20 -29 7 -150 6 -203 -3z" transform="translate(0,90) scale(0.1,-0.1)" stroke="none" fill="#B35819"/>

<path d="M288 684 c-3 -2 -2 -24 3 -47 4 -23 8 -45 9 -49 0 -4 -22 -4 -50 -1 -27 3 -50 2 -50 -3 0 -5 13 -24 28 -43 l28 -33 40 21 c95 53 114 65 114 75 0 6 -21 25 -48 42 -61 41 -68 44 -74 38z" transform="translate(0,90) scale(0.1,-0.1)" stroke="none" fill="#D6A76A"/>

<path d="M1074 589 c0 -16 5 -19 24 -14 13 3 33 3 43 0 16 -5 18 -10 8 -21 -13 -16 2 -19 18 -3 8 8 15 4 27 -12 11 -16 12 -25 5 -30 -13 -8 -49 0 -49 11 0 15 -60 17 -73 2 -10 -13 -8 -14 10 -8 16 5 23 2 28 -14 11 -33 -13 -53 -57 -47 -21 3 -41 1 -44 -4 -3 -5 -13 -5 -24 1 -10 5 -26 7 -34 4 -9 -3 -16 -1 -16 5 0 6 -13 11 -30 11 -22 0 -30 5 -30 18 0 10 5 23 12 30 18 18 65 15 78 -5 9 -15 10 -13 8 12 -3 28 -6 30 -45 30 -28 0 -43 -4 -43 -13 0 -7 -7 -15 -15 -18 -8 -4 -15 -16 -15 -28 0 -31 -16 -50 -34 -43 -19 7 -22 47 -3 47 6 1 -1 8 -17 16 -28 15 -30 15 -58 -14 -25 -25 -28 -33 -19 -50 6 -11 11 -35 11 -52 0 -24 -7 -35 -30 -48 -17 -9 -30 -24 -29 -32 3 -31 -2 -41 -38 -78 -21 -21 -34 -34 -29 -30 19 16 26 7 26 -32 0 -22 -3 -40 -7 -40 -14 0 -7 -81 8 -91 43 -27 102 5 125 68 9 27 20 51 24 56 3 4 51 9 106 10 63 2 113 9 137 20 36 15 37 15 38 -4 1 -10 2 -22 3 -26 1 -5 5 -22 10 -39 7 -30 8 -31 48 -24 47 9 73 37 83 87 l6 33 59 -7 c63 -6 139 8 180 34 23 16 23 17 5 24 -11 4 -33 8 -48 8 -50 2 -85 28 -116 89 -17 31 -30 52 -31 45 0 -7 -6 -10 -14 -7 -11 4 -13 0 -9 -16 5 -19 2 -21 -28 -18 -43 4 -56 38 -15 38 14 0 26 4 26 9 0 5 -8 7 -19 4 -12 -3 -26 5 -40 24 l-23 28 24 6 c26 7 62 -17 51 -34 -4 -6 0 -8 11 -4 10 4 20 7 22 7 3 0 -2 13 -10 29 -17 32 -78 89 -110 100 -57 22 -62 22 -62 0z" transform="translate(0,90) scale(0.1,-0.1)" stroke="none" fill="#B35819"/>

<path d="M562 837 c-6 -7 -16 -25 -22 -41 -5 -15 -37 -70 -70 -120 -55 -86 -65 -95 -132 -132 -39 -21 -75 -38 -78 -37 -17 5 -90 -70 -101 -105 -6 -20 -15 -41 -19 -47 -15 -22 -32 -94 -25 -105 4 -7 23 -18 41 -26 32 -13 36 -12 82 16 27 16 52 30 56 30 4 0 5 -17 2 -37 -8 -52 4 -66 57 -67 35 -1 54 6 88 30 60 43 83 49 104 27 25 -25 44 -25 76 0 37 27 63 66 61 92 -1 13 9 26 28 37 23 13 30 24 30 48 0 17 -5 41 -11 52 -9 17 -6 25 19 50 28 29 30 29 58 14 16 -8 23 -15 17 -16 -19 0 -16 -40 3 -47 18 -7 34 12 34 43 0 12 7 24 15 28 8 3 15 11 15 18 0 9 15 13 43 13 39 0 42 -2 45 -30 2 -25 1 -27 -8 -12 -13 20 -60 23 -78 5 -7 -7 -12 -20 -12 -30 0 -13 8 -18 30 -18 17 0 30 -5 30 -11 0 -6 7 -8 16 -5 8 3 24 1 34 -4 11 -6 21 -6 24 -1 3 5 23 7 44 4 44 -6 68 14 57 47 -5 16 -12 19 -28 14 -19 -6 -20 -5 -9 8 12 15 61 13 72 -2 3 -5 12 -9 20 -10 31 -5 39 0 33 18 -6 15 -4 15 18 -3 17 -14 16 -10 -6 14 -28 30 -74 64 -62 44 3 -4 -14 -8 -37 -9 -39 -1 -43 1 -40 22 2 18 -4 23 -33 29 -19 3 -38 4 -41 1 -3 -3 2 -6 11 -6 22 0 22 -26 1 -34 -22 -9 -24 -8 -18 9 4 9 -3 16 -19 20 -43 11 -81 2 -92 -22 -12 -28 -35 -30 -35 -3 0 25 -11 25 -60 0 -22 -11 -42 -20 -45 -20 -11 0 -4 29 9 37 21 12 -6 73 -32 73 -23 0 -32 18 -32 62 0 22 -11 41 -39 69 -40 40 -70 49 -89 26z m629 -284 c13 -16 12 -17 -3 -5 -11 9 -18 10 -23 2 -3 -5 -11 -10 -17 -10 -7 0 -6 6 2 15 16 19 24 19 41 -2z m-161 -63 c0 -5 -2 -10 -4 -10 -3 0 -8 5 -11 10 -3 6 -1 10 4 10 6 0 11 -4 11 -10z m-641 -14 c10 -12 3 -15 -36 -18 -57 -5 -65 -1 -39 18 25 18 60 18 75 0z m76 -66 c11 -18 -15 -50 -40 -50 -27 0 -34 27 -13 48 14 14 45 16 53 2z" transform="translate(0,90) scale(0.1,-0.1)" stroke="none" fill="#6E2D13"/>

</g>

<g id="2" transform="translate(312.0,0)scale(1,1)">

<path d="M60 404 c0 -10 52 -74 60 -74 4 0 11 11 14 24 3 13 9 31 12 40 5 13 -2 16 -40 16 -25 0 -46 -3 -46 -6z" transform="translate(0,90) scale(0.1,-0.1)" stroke="none" fill="#D6A76A"/>

<path d="M1035 204 c-16 -7 -40 -13 -52 -14 -17 0 -23 -6 -23 -24 0 -25 16 -36 54 -36 31 0 65 39 57 66 -6 19 -8 20 -36 8z" transform="translate(0,90) scale(0.1,-0.1)" stroke="none" fill="#D6A76A"/>

<path d="M615 211 c-6 -5 -21 -11 -34 -13 -34 -4 -52 -56 -25 -75 37 -27 84 7 84 61 0 36 -8 44 -25 27z" transform="translate(0,90) scale(0.1,-0.1)" stroke="none" fill="#D6A76A"/>

<path d="M1172 491 l-24 -6 23 -28 c14 -19 28 -27 40 -24 11 3 19 1 19 -4 0 -5 -12 -9 -26 -9 -41 0 -28 -34 15 -38 30 -3 33 -1 28 18 -4 15 -2 20 8 16 21 -8 26 22 10 55 -9 16 -18 29 -21 29 -2 0 0 -9 5 -19 8 -15 7 -20 -5 -25 -21 -8 -26 -8 -20 3 10 15 -28 38 -52 32z" transform="translate(0,90) scale(0.1,-0.1)" stroke="none" fill="#6E2D13"/>

<path d="M805 621 c-48 -8 -65 -17 -65 -37 0 -18 3 -18 50 6 22 11 44 20 50 20 5 0 10 -9 10 -20 0 -27 23 -25 35 3 16 36 125 37 111 0 -5 -11 -2 -14 10 -9 8 3 18 6 20 6 2 0 4 6 4 14 0 7 -10 16 -22 20 -29 7 -150 6 -203 -3z" transform="translate(0,90) scale(0.1,-0.1)" stroke="none" fill="#B35819"/>

<path d="M288 684 c-3 -2 -2 -24 3 -47 4 -23 8 -45 9 -49 0 -4 -22 -4 -50 -1 -27 3 -50 2 -50 -3 0 -5 13 -24 28 -43 l28 -33 40 21 c95 53 114 65 114 75 0 6 -21 25 -48 42 -61 41 -68 44 -74 38z" transform="translate(0,90) scale(0.1,-0.1)" stroke="none" fill="#D6A76A"/>

<path d="M1074 589 c0 -16 5 -19 24 -14 13 3 33 3 43 0 16 -5 18 -10 8 -21 -13 -16 2 -19 18 -3 8 8 15 4 27 -12 11 -16 12 -25 5 -30 -13 -8 -49 0 -49 11 0 15 -60 17 -73 2 -10 -13 -8 -14 10 -8 16 5 23 2 28 -14 11 -33 -13 -53 -57 -47 -21 3 -41 1 -44 -4 -3 -5 -13 -5 -24 1 -10 5 -26 7 -34 4 -9 -3 -16 -1 -16 5 0 6 -13 11 -30 11 -22 0 -30 5 -30 18 0 10 5 23 12 30 18 18 65 15 78 -5 9 -15 10 -13 8 12 -3 28 -6 30 -45 30 -28 0 -43 -4 -43 -13 0 -7 -7 -15 -15 -18 -8 -4 -15 -16 -15 -28 0 -31 -16 -50 -34 -43 -19 7 -22 47 -3 47 6 1 -1 8 -17 16 -28 15 -30 15 -58 -14 -25 -25 -28 -33 -19 -50 6 -11 11 -35 11 -52 0 -24 -7 -35 -30 -48 -17 -9 -30 -24 -29 -32 3 -31 -2 -41 -38 -78 -21 -21 -34 -34 -29 -30 19 16 26 7 26 -32 0 -22 -3 -40 -7 -40 -14 0 -7 -81 8 -91 43 -27 102 5 125 68 9 27 20 51 24 56 3 4 51 9 106 10 63 2 113 9 137 20 36 15 37 15 38 -4 1 -10 2 -22 3 -26 1 -5 5 -22 10 -39 7 -30 8 -31 48 -24 47 9 73 37 83 87 l6 33 59 -7 c63 -6 139 8 180 34 23 16 23 17 5 24 -11 4 -33 8 -48 8 -50 2 -85 28 -116 89 -17 31 -30 52 -31 45 0 -7 -6 -10 -14 -7 -11 4 -13 0 -9 -16 5 -19 2 -21 -28 -18 -43 4 -56 38 -15 38 14 0 26 4 26 9 0 5 -8 7 -19 4 -12 -3 -26 5 -40 24 l-23 28 24 6 c26 7 62 -17 51 -34 -4 -6 0 -8 11 -4 10 4 20 7 22 7 3 0 -2 13 -10 29 -17 32 -78 89 -110 100 -57 22 -62 22 -62 0z" transform="translate(0,90) scale(0.1,-0.1)" stroke="none" fill="#B35819"/>

<path d="M562 837 c-6 -7 -16 -25 -22 -41 -5 -15 -37 -70 -70 -120 -55 -86 -65 -95 -132 -132 -39 -21 -75 -38 -78 -37 -17 5 -90 -70 -101 -105 -6 -20 -15 -41 -19 -47 -15 -22 -32 -94 -25 -105 4 -7 23 -18 41 -26 32 -13 36 -12 82 16 27 16 52 30 56 30 4 0 5 -17 2 -37 -8 -52 4 -66 57 -67 35 -1 54 6 88 30 60 43 83 49 104 27 25 -25 44 -25 76 0 37 27 63 66 61 92 -1 13 9 26 28 37 23 13 30 24 30 48 0 17 -5 41 -11 52 -9 17 -6 25 19 50 28 29 30 29 58 14 16 -8 23 -15 17 -16 -19 0 -16 -40 3 -47 18 -7 34 12 34 43 0 12 7 24 15 28 8 3 15 11 15 18 0 9 15 13 43 13 39 0 42 -2 45 -30 2 -25 1 -27 -8 -12 -13 20 -60 23 -78 5 -7 -7 -12 -20 -12 -30 0 -13 8 -18 30 -18 17 0 30 -5 30 -11 0 -6 7 -8 16 -5 8 3 24 1 34 -4 11 -6 21 -6 24 -1 3 5 23 7 44 4 44 -6 68 14 57 47 -5 16 -12 19 -28 14 -19 -6 -20 -5 -9 8 12 15 61 13 72 -2 3 -5 12 -9 20 -10 31 -5 39 0 33 18 -6 15 -4 15 18 -3 17 -14 16 -10 -6 14 -28 30 -74 64 -62 44 3 -4 -14 -8 -37 -9 -39 -1 -43 1 -40 22 2 18 -4 23 -33 29 -19 3 -38 4 -41 1 -3 -3 2 -6 11 -6 22 0 22 -26 1 -34 -22 -9 -24 -8 -18 9 4 9 -3 16 -19 20 -43 11 -81 2 -92 -22 -12 -28 -35 -30 -35 -3 0 25 -11 25 -60 0 -22 -11 -42 -20 -45 -20 -11 0 -4 29 9 37 21 12 -6 73 -32 73 -23 0 -32 18 -32 62 0 22 -11 41 -39 69 -40 40 -70 49 -89 26z m629 -284 c13 -16 12 -17 -3 -5 -11 9 -18 10 -23 2 -3 -5 -11 -10 -17 -10 -7 0 -6 6 2 15 16 19 24 19 41 -2z m-161 -63 c0 -5 -2 -10 -4 -10 -3 0 -8 5 -11 10 -3 6 -1 10 4 10 6 0 11 -4 11 -10z m-641 -14 c10 -12 3 -15 -36 -18 -57 -5 -65 -1 -39 18 25 18 60 18 75 0z m76 -66 c11 -18 -15 -50 -40 -50 -27 0 -34 27 -13 48 14 14 45 16 53 2z" transform="translate(0,90) scale(0.1,-0.1)" stroke="none" fill="#6E2D13"/>

</g>

<g id="3" transform="translate(468.0,0)scale(1,1)">

<path d="M60 404 c0 -10 52 -74 60 -74 4 0 11 11 14 24 3 13 9 31 12 40 5 13 -2 16 -40 16 -25 0 -46 -3 -46 -6z" transform="translate(0,90) scale(0.1,-0.1)" stroke="none" fill="#D6A76A"/>

<path d="M1035 204 c-16 -7 -40 -13 -52 -14 -17 0 -23 -6 -23 -24 0 -25 16 -36 54 -36 31 0 65 39 57 66 -6 19 -8 20 -36 8z" transform="translate(0,90) scale(0.1,-0.1)" stroke="none" fill="#D6A76A"/>

<path d="M615 211 c-6 -5 -21 -11 -34 -13 -34 -4 -52 -56 -25 -75 37 -27 84 7 84 61 0 36 -8 44 -25 27z" transform="translate(0,90) scale(0.1,-0.1)" stroke="none" fill="#D6A76A"/>

<path d="M1172 491 l-24 -6 23 -28 c14 -19 28 -27 40 -24 11 3 19 1 19 -4 0 -5 -12 -9 -26 -9 -41 0 -28 -34 15 -38 30 -3 33 -1 28 18 -4 15 -2 20 8 16 21 -8 26 22 10 55 -9 16 -18 29 -21 29 -2 0 0 -9 5 -19 8 -15 7 -20 -5 -25 -21 -8 -26 -8 -20 3 10 15 -28 38 -52 32z" transform="translate(0,90) scale(0.1,-0.1)" stroke="none" fill="#6E2D13"/>

<path d="M805 621 c-48 -8 -65 -17 -65 -37 0 -18 3 -18 50 6 22 11 44 20 50 20 5 0 10 -9 10 -20 0 -27 23 -25 35 3 16 36 125 37 111 0 -5 -11 -2 -14 10 -9 8 3 18 6 20 6 2 0 4 6 4 14 0 7 -10 16 -22 20 -29 7 -150 6 -203 -3z" transform="translate(0,90) scale(0.1,-0.1)" stroke="none" fill="#B35819"/>

<path d="M288 684 c-3 -2 -2 -24 3 -47 4 -23 8 -45 9 -49 0 -4 -22 -4 -50 -1 -27 3 -50 2 -50 -3 0 -5 13 -24 28 -43 l28 -33 40 21 c95 53 114 65 114 75 0 6 -21 25 -48 42 -61 41 -68 44 -74 38z" transform="translate(0,90) scale(0.1,-0.1)" stroke="none" fill="#D6A76A"/>

<path d="M1074 589 c0 -16 5 -19 24 -14 13 3 33 3 43 0 16 -5 18 -10 8 -21 -13 -16 2 -19 18 -3 8 8 15 4 27 -12 11 -16 12 -25 5 -30 -13 -8 -49 0 -49 11 0 15 -60 17 -73 2 -10 -13 -8 -14 10 -8 16 5 23 2 28 -14 11 -33 -13 -53 -57 -47 -21 3 -41 1 -44 -4 -3 -5 -13 -5 -24 1 -10 5 -26 7 -34 4 -9 -3 -16 -1 -16 5 0 6 -13 11 -30 11 -22 0 -30 5 -30 18 0 10 5 23 12 30 18 18 65 15 78 -5 9 -15 10 -13 8 12 -3 28 -6 30 -45 30 -28 0 -43 -4 -43 -13 0 -7 -7 -15 -15 -18 -8 -4 -15 -16 -15 -28 0 -31 -16 -50 -34 -43 -19 7 -22 47 -3 47 6 1 -1 8 -17 16 -28 15 -30 15 -58 -14 -25 -25 -28 -33 -19 -50 6 -11 11 -35 11 -52 0 -24 -7 -35 -30 -48 -17 -9 -30 -24 -29 -32 3 -31 -2 -41 -38 -78 -21 -21 -34 -34 -29 -30 19 16 26 7 26 -32 0 -22 -3 -40 -7 -40 -14 0 -7 -81 8 -91 43 -27 102 5 125 68 9 27 20 51 24 56 3 4 51 9 106 10 63 2 113 9 137 20 36 15 37 15 38 -4 1 -10 2 -22 3 -26 1 -5 5 -22 10 -39 7 -30 8 -31 48 -24 47 9 73 37 83 87 l6 33 59 -7 c63 -6 139 8 180 34 23 16 23 17 5 24 -11 4 -33 8 -48 8 -50 2 -85 28 -116 89 -17 31 -30 52 -31 45 0 -7 -6 -10 -14 -7 -11 4 -13 0 -9 -16 5 -19 2 -21 -28 -18 -43 4 -56 38 -15 38 14 0 26 4 26 9 0 5 -8 7 -19 4 -12 -3 -26 5 -40 24 l-23 28 24 6 c26 7 62 -17 51 -34 -4 -6 0 -8 11 -4 10 4 20 7 22 7 3 0 -2 13 -10 29 -17 32 -78 89 -110 100 -57 22 -62 22 -62 0z" transform="translate(0,90) scale(0.1,-0.1)" stroke="none" fill="#B35819"/>

<path d="M562 837 c-6 -7 -16 -25 -22 -41 -5 -15 -37 -70 -70 -120 -55 -86 -65 -95 -132 -132 -39 -21 -75 -38 -78 -37 -17 5 -90 -70 -101 -105 -6 -20 -15 -41 -19 -47 -15 -22 -32 -94 -25 -105 4 -7 23 -18 41 -26 32 -13 36 -12 82 16 27 16 52 30 56 30 4 0 5 -17 2 -37 -8 -52 4 -66 57 -67 35 -1 54 6 88 30 60 43 83 49 104 27 25 -25 44 -25 76 0 37 27 63 66 61 92 -1 13 9 26 28 37 23 13 30 24 30 48 0 17 -5 41 -11 52 -9 17 -6 25 19 50 28 29 30 29 58 14 16 -8 23 -15 17 -16 -19 0 -16 -40 3 -47 18 -7 34 12 34 43 0 12 7 24 15 28 8 3 15 11 15 18 0 9 15 13 43 13 39 0 42 -2 45 -30 2 -25 1 -27 -8 -12 -13 20 -60 23 -78 5 -7 -7 -12 -20 -12 -30 0 -13 8 -18 30 -18 17 0 30 -5 30 -11 0 -6 7 -8 16 -5 8 3 24 1 34 -4 11 -6 21 -6 24 -1 3 5 23 7 44 4 44 -6 68 14 57 47 -5 16 -12 19 -28 14 -19 -6 -20 -5 -9 8 12 15 61 13 72 -2 3 -5 12 -9 20 -10 31 -5 39 0 33 18 -6 15 -4 15 18 -3 17 -14 16 -10 -6 14 -28 30 -74 64 -62 44 3 -4 -14 -8 -37 -9 -39 -1 -43 1 -40 22 2 18 -4 23 -33 29 -19 3 -38 4 -41 1 -3 -3 2 -6 11 -6 22 0 22 -26 1 -34 -22 -9 -24 -8 -18 9 4 9 -3 16 -19 20 -43 11 -81 2 -92 -22 -12 -28 -35 -30 -35 -3 0 25 -11 25 -60 0 -22 -11 -42 -20 -45 -20 -11 0 -4 29 9 37 21 12 -6 73 -32 73 -23 0 -32 18 -32 62 0 22 -11 41 -39 69 -40 40 -70 49 -89 26z m629 -284 c13 -16 12 -17 -3 -5 -11 9 -18 10 -23 2 -3 -5 -11 -10 -17 -10 -7 0 -6 6 2 15 16 19 24 19 41 -2z m-161 -63 c0 -5 -2 -10 -4 -10 -3 0 -8 5 -11 10 -3 6 -1 10 4 10 6 0 11 -4 11 -10z m-641 -14 c10 -12 3 -15 -36 -18 -57 -5 -65 -1 -39 18 25 18 60 18 75 0z m76 -66 c11 -18 -15 -50 -40 -50 -27 0 -34 27 -13 48 14 14 45 16 53 2z" transform="translate(0,90) scale(0.1,-0.1)" stroke="none" fill="#6E2D13"/>

</g>

<g id="4" transform="translate(624.0,0)scale(1,1)">

<path d="M60 404 c0 -10 52 -74 60 -74 4 0 11 11 14 24 3 13 9 31 12 40 5 13 -2 16 -40 16 -25 0 -46 -3 -46 -6z" transform="translate(0,90) scale(0.1,-0.1)" stroke="none" fill="#D6A76A"/>

<path d="M1035 204 c-16 -7 -40 -13 -52 -14 -17 0 -23 -6 -23 -24 0 -25 16 -36 54 -36 31 0 65 39 57 66 -6 19 -8 20 -36 8z" transform="translate(0,90) scale(0.1,-0.1)" stroke="none" fill="#D6A76A"/>

<path d="M615 211 c-6 -5 -21 -11 -34 -13 -34 -4 -52 -56 -25 -75 37 -27 84 7 84 61 0 36 -8 44 -25 27z" transform="translate(0,90) scale(0.1,-0.1)" stroke="none" fill="#D6A76A"/>

<path d="M1172 491 l-24 -6 23 -28 c14 -19 28 -27 40 -24 11 3 19 1 19 -4 0 -5 -12 -9 -26 -9 -41 0 -28 -34 15 -38 30 -3 33 -1 28 18 -4 15 -2 20 8 16 21 -8 26 22 10 55 -9 16 -18 29 -21 29 -2 0 0 -9 5 -19 8 -15 7 -20 -5 -25 -21 -8 -26 -8 -20 3 10 15 -28 38 -52 32z" transform="translate(0,90) scale(0.1,-0.1)" stroke="none" fill="#6E2D13"/>

<path d="M805 621 c-48 -8 -65 -17 -65 -37 0 -18 3 -18 50 6 22 11 44 20 50 20 5 0 10 -9 10 -20 0 -27 23 -25 35 3 16 36 125 37 111 0 -5 -11 -2 -14 10 -9 8 3 18 6 20 6 2 0 4 6 4 14 0 7 -10 16 -22 20 -29 7 -150 6 -203 -3z" transform="translate(0,90) scale(0.1,-0.1)" stroke="none" fill="#B35819"/>

<path d="M288 684 c-3 -2 -2 -24 3 -47 4 -23 8 -45 9 -49 0 -4 -22 -4 -50 -1 -27 3 -50 2 -50 -3 0 -5 13 -24 28 -43 l28 -33 40 21 c95 53 114 65 114 75 0 6 -21 25 -48 42 -61 41 -68 44 -74 38z" transform="translate(0,90) scale(0.1,-0.1)" stroke="none" fill="#D6A76A"/>

<path d="M1074 589 c0 -16 5 -19 24 -14 13 3 33 3 43 0 16 -5 18 -10 8 -21 -13 -16 2 -19 18 -3 8 8 15 4 27 -12 11 -16 12 -25 5 -30 -13 -8 -49 0 -49 11 0 15 -60 17 -73 2 -10 -13 -8 -14 10 -8 16 5 23 2 28 -14 11 -33 -13 -53 -57 -47 -21 3 -41 1 -44 -4 -3 -5 -13 -5 -24 1 -10 5 -26 7 -34 4 -9 -3 -16 -1 -16 5 0 6 -13 11 -30 11 -22 0 -30 5 -30 18 0 10 5 23 12 30 18 18 65 15 78 -5 9 -15 10 -13 8 12 -3 28 -6 30 -45 30 -28 0 -43 -4 -43 -13 0 -7 -7 -15 -15 -18 -8 -4 -15 -16 -15 -28 0 -31 -16 -50 -34 -43 -19 7 -22 47 -3 47 6 1 -1 8 -17 16 -28 15 -30 15 -58 -14 -25 -25 -28 -33 -19 -50 6 -11 11 -35 11 -52 0 -24 -7 -35 -30 -48 -17 -9 -30 -24 -29 -32 3 -31 -2 -41 -38 -78 -21 -21 -34 -34 -29 -30 19 16 26 7 26 -32 0 -22 -3 -40 -7 -40 -14 0 -7 -81 8 -91 43 -27 102 5 125 68 9 27 20 51 24 56 3 4 51 9 106 10 63 2 113 9 137 20 36 15 37 15 38 -4 1 -10 2 -22 3 -26 1 -5 5 -22 10 -39 7 -30 8 -31 48 -24 47 9 73 37 83 87 l6 33 59 -7 c63 -6 139 8 180 34 23 16 23 17 5 24 -11 4 -33 8 -48 8 -50 2 -85 28 -116 89 -17 31 -30 52 -31 45 0 -7 -6 -10 -14 -7 -11 4 -13 0 -9 -16 5 -19 2 -21 -28 -18 -43 4 -56 38 -15 38 14 0 26 4 26 9 0 5 -8 7 -19 4 -12 -3 -26 5 -40 24 l-23 28 24 6 c26 7 62 -17 51 -34 -4 -6 0 -8 11 -4 10 4 20 7 22 7 3 0 -2 13 -10 29 -17 32 -78 89 -110 100 -57 22 -62 22 -62 0z" transform="translate(0,90) scale(0.1,-0.1)" stroke="none" fill="#B35819"/>

<path d="M562 837 c-6 -7 -16 -25 -22 -41 -5 -15 -37 -70 -70 -120 -55 -86 -65 -95 -132 -132 -39 -21 -75 -38 -78 -37 -17 5 -90 -70 -101 -105 -6 -20 -15 -41 -19 -47 -15 -22 -32 -94 -25 -105 4 -7 23 -18 41 -26 32 -13 36 -12 82 16 27 16 52 30 56 30 4 0 5 -17 2 -37 -8 -52 4 -66 57 -67 35 -1 54 6 88 30 60 43 83 49 104 27 25 -25 44 -25 76 0 37 27 63 66 61 92 -1 13 9 26 28 37 23 13 30 24 30 48 0 17 -5 41 -11 52 -9 17 -6 25 19 50 28 29 30 29 58 14 16 -8 23 -15 17 -16 -19 0 -16 -40 3 -47 18 -7 34 12 34 43 0 12 7 24 15 28 8 3 15 11 15 18 0 9 15 13 43 13 39 0 42 -2 45 -30 2 -25 1 -27 -8 -12 -13 20 -60 23 -78 5 -7 -7 -12 -20 -12 -30 0 -13 8 -18 30 -18 17 0 30 -5 30 -11 0 -6 7 -8 16 -5 8 3 24 1 34 -4 11 -6 21 -6 24 -1 3 5 23 7 44 4 44 -6 68 14 57 47 -5 16 -12 19 -28 14 -19 -6 -20 -5 -9 8 12 15 61 13 72 -2 3 -5 12 -9 20 -10 31 -5 39 0 33 18 -6 15 -4 15 18 -3 17 -14 16 -10 -6 14 -28 30 -74 64 -62 44 3 -4 -14 -8 -37 -9 -39 -1 -43 1 -40 22 2 18 -4 23 -33 29 -19 3 -38 4 -41 1 -3 -3 2 -6 11 -6 22 0 22 -26 1 -34 -22 -9 -24 -8 -18 9 4 9 -3 16 -19 20 -43 11 -81 2 -92 -22 -12 -28 -35 -30 -35 -3 0 25 -11 25 -60 0 -22 -11 -42 -20 -45 -20 -11 0 -4 29 9 37 21 12 -6 73 -32 73 -23 0 -32 18 -32 62 0 22 -11 41 -39 69 -40 40 -70 49 -89 26z m629 -284 c13 -16 12 -17 -3 -5 -11 9 -18 10 -23 2 -3 -5 -11 -10 -17 -10 -7 0 -6 6 2 15 16 19 24 19 41 -2z m-161 -63 c0 -5 -2 -10 -4 -10 -3 0 -8 5 -11 10 -3 6 -1 10 4 10 6 0 11 -4 11 -10z m-641 -14 c10 -12 3 -15 -36 -18 -57 -5 -65 -1 -39 18 25 18 60 18 75 0z m76 -66 c11 -18 -15 -50 -40 -50 -27 0 -34 27 -13 48 14 14 45 16 53 2z" transform="translate(0,90) scale(0.1,-0.1)" stroke="none" fill="#6E2D13"/>

</g>

</g>
<g id="row1" transform="translate(-58,90.0)">
<g id="0" transform="translate(0.0,0)scale(1,1)">

<path d="M60 404 c0 -10 52 -74 60 -74 4 0 11 11 14 24 3 13 9 31 12 40 5 13 -2 16 -40 16 -25 0 -46 -3 -46 -6z" transform="translate(0,90) scale(0.1,-0.1)" stroke="none" fill="#D6A76A"/>

<path d="M1035 204 c-16 -7 -40 -13 -52 -14 -17 0 -23 -6 -23 -24 0 -25 16 -36 54 -36 31 0 65 39 57 66 -6 19 -8 20 -36 8z" transform="translate(0,90) scale(0.1,-0.1)" stroke="none" fill="#D6A76A"/>

<path d="M615 211 c-6 -5 -21 -11 -34 -13 -34 -4 -52 -56 -25 -75 37 -27 84 7 84 61 0 36 -8 44 -25 27z" transform="translate(0,90) scale(0.1,-0.1)" stroke="none" fill="#D6A76A"/>

<path d="M1172 491 l-24 -6 23 -28 c14 -19 28 -27 40 -24 11 3 19 1 19 -4 0 -5 -12 -9 -26 -9 -41 0 -28 -34 15 -38 30 -3 33 -1 28 18 -4 15 -2 20 8 16 21 -8 26 22 10 55 -9 16 -18 29 -21 29 -2 0 0 -9 5 -19 8 -15 7 -20 -5 -25 -21 -8 -26 -8 -20 3 10 15 -28 38 -52 32z" transform="translate(0,90) scale(0.1,-0.1)" stroke="none" fill="#6E2D13"/>

<path d="M805 621 c-48 -8 -65 -17 -65 -37 0 -18 3 -18 50 6 22 11 44 20 50 20 5 0 10 -9 10 -20 0 -27 23 -25 35 3 16 36 125 37 111 0 -5 -11 -2 -14 10 -9 8 3 18 6 20 6 2 0 4 6 4 14 0 7 -10 16 -22 20 -29 7 -150 6 -203 -3z" transform="translate(0,90) scale(0.1,-0.1)" stroke="none" fill="#B35819"/>

<path d="M288 684 c-3 -2 -2 -24 3 -47 4 -23 8 -45 9 -49 0 -4 -22 -4 -50 -1 -27 3 -50 2 -50 -3 0 -5 13 -24 28 -43 l28 -33 40 21 c95 53 114 65 114 75 0 6 -21 25 -48 42 -61 41 -68 44 -74 38z" transform="translate(0,90) scale(0.1,-0.1)" stroke="none" fill="#D6A76A"/>

<path d="M1074 589 c0 -16 5 -19 24 -14 13 3 33 3 43 0 16 -5 18 -10 8 -21 -13 -16 2 -19 18 -3 8 8 15 4 27 -12 11 -16 12 -25 5 -30 -13 -8 -49 0 -49 11 0 15 -60 17 -73 2 -10 -13 -8 -14 10 -8 16 5 23 2 28 -14 11 -33 -13 -53 -57 -47 -21 3 -41 1 -44 -4 -3 -5 -13 -5 -24 1 -10 5 -26 7 -34 4 -9 -3 -16 -1 -16 5 0 6 -13 11 -30 11 -22 0 -30 5 -30 18 0 10 5 23 12 30 18 18 65 15 78 -5 9 -15 10 -13 8 12 -3 28 -6 30 -45 30 -28 0 -43 -4 -43 -13 0 -7 -7 -15 -15 -18 -8 -4 -15 -16 -15 -28 0 -31 -16 -50 -34 -43 -19 7 -22 47 -3 47 6 1 -1 8 -17 16 -28 15 -30 15 -58 -14 -25 -25 -28 -33 -19 -50 6 -11 11 -35 11 -52 0 -24 -7 -35 -30 -48 -17 -9 -30 -24 -29 -32 3 -31 -2 -41 -38 -78 -21 -21 -34 -34 -29 -30 19 16 26 7 26 -32 0 -22 -3 -40 -7 -40 -14 0 -7 -81 8 -91 43 -27 102 5 125 68 9 27 20 51 24 56 3 4 51 9 106 10 63 2 113 9 137 20 36 15 37 15 38 -4 1 -10 2 -22 3 -26 1 -5 5 -22 10 -39 7 -30 8 -31 48 -24 47 9 73 37 83 87 l6 33 59 -7 c63 -6 139 8 180 34 23 16 23 17 5 24 -11 4 -33 8 -48 8 -50 2 -85 28 -116 89 -17 31 -30 52 -31 45 0 -7 -6 -10 -14 -7 -11 4 -13 0 -9 -16 5 -19 2 -21 -28 -18 -43 4 -56 38 -15 38 14 0 26 4 26 9 0 5 -8 7 -19 4 -12 -3 -26 5 -40 24 l-23 28 24 6 c26 7 62 -17 51 -34 -4 -6 0 -8 11 -4 10 4 20 7 22 7 3 0 -2 13 -10 29 -17 32 -78 89 -110 100 -57 22 -62 22 -62 0z" transform="translate(0,90) scale(0.1,-0.1)" stroke="none" fill="#B35819"/>

<path d="M562 837 c-6 -7 -16 -25 -22 -41 -5 -15 -37 -70 -70 -120 -55 -86 -65 -95 -132 -132 -39 -21 -75 -38 -78 -37 -17 5 -90 -70 -101 -105 -6 -20 -15 -41 -19 -47 -15 -22 -32 -94 -25 -105 4 -7 23 -18 41 -26 32 -13 36 -12 82 16 27 16 52 30 56 30 4 0 5 -17 2 -37 -8 -52 4 -66 57 -67 35 -1 54 6 88 30 60 43 83 49 104 27 25 -25 44 -25 76 0 37 27 63 66 61 92 -1 13 9 26 28 37 23 13 30 24 30 48 0 17 -5 41 -11 52 -9 17 -6 25 19 50 28 29 30 29 58 14 16 -8 23 -15 17 -16 -19 0 -16 -40 3 -47 18 -7 34 12 34 43 0 12 7 24 15 28 8 3 15 11 15 18 0 9 15 13 43 13 39 0 42 -2 45 -30 2 -25 1 -27 -8 -12 -13 20 -60 23 -78 5 -7 -7 -12 -20 -12 -30 0 -13 8 -18 30 -18 17 0 30 -5 30 -11 0 -6 7 -8 16 -5 8 3 24 1 34 -4 11 -6 21 -6 24 -1 3 5 23 7 44 4 44 -6 68 14 57 47 -5 16 -12 19 -28 14 -19 -6 -20 -5 -9 8 12 15 61 13 72 -2 3 -5 12 -9 20 -10 31 -5 39 0 33 18 -6 15 -4 15 18 -3 17 -14 16 -10 -6 14 -28 30 -74 64 -62 44 3 -4 -14 -8 -37 -9 -39 -1 -43 1 -40 22 2 18 -4 23 -33 29 -19 3 -38 4 -41 1 -3 -3 2 -6 11 -6 22 0 22 -26 1 -34 -22 -9 -24 -8 -18 9 4 9 -3 16 -19 20 -43 11 -81 2 -92 -22 -12 -28 -35 -30 -35 -3 0 25 -11 25 -60 0 -22 -11 -42 -20 -45 -20 -11 0 -4 29 9 37 21 12 -6 73 -32 73 -23 0 -32 18 -32 62 0 22 -11 41 -39 69 -40 40 -70 49 -89 26z m629 -284 c13 -16 12 -17 -3 -5 -11 9 -18 10 -23 2 -3 -5 -11 -10 -17 -10 -7 0 -6 6 2 15 16 19 24 19 41 -2z m-161 -63 c0 -5 -2 -10 -4 -10 -3 0 -8 5 -11 10 -3 6 -1 10 4 10 6 0 11 -4 11 -10z m-641 -14 c10 -12 3 -15 -36 -18 -57 -5 -65 -1 -39 18 25 18 60 18 75 0z m76 -66 c11 -18 -15 -50 -40 -50 -27 0 -34 27 -13 48 14 14 45 16 53 2z" transform="translate(0,90) scale(0.1,-0.1)" stroke="none" fill="#6E2D13"/>

</g>

<g id="1" transform="translate(156.0,0)scale(1,1)">

<path d="M60 404 c0 -10 52 -74 60 -74 4 0 11 11 14 24 3 13 9 31 12 40 5 13 -2 16 -40 16 -25 0 -46 -3 -46 -6z" transform="translate(0,90) scale(0.1,-0.1)" stroke="none" fill="#D6A76A"/>

<path d="M1035 204 c-16 -7 -40 -13 -52 -14 -17 0 -23 -6 -23 -24 0 -25 16 -36 54 -36 31 0 65 39 57 66 -6 19 -8 20 -36 8z" transform="translate(0,90) scale(0.1,-0.1)" stroke="none" fill="#D6A76A"/>

<path d="M615 211 c-6 -5 -21 -11 -34 -13 -34 -4 -52 -56 -25 -75 37 -27 84 7 84 61 0 36 -8 44 -25 27z" transform="translate(0,90) scale(0.1,-0.1)" stroke="none" fill="#D6A76A"/>

<path d="M1172 491 l-24 -6 23 -28 c14 -19 28 -27 40 -24 11 3 19 1 19 -4 0 -5 -12 -9 -26 -9 -41 0 -28 -34 15 -38 30 -3 33 -1 28 18 -4 15 -2 20 8 16 21 -8 26 22 10 55 -9 16 -18 29 -21 29 -2 0 0 -9 5 -19 8 -15 7 -20 -5 -25 -21 -8 -26 -8 -20 3 10 15 -28 38 -52 32z" transform="translate(0,90) scale(0.1,-0.1)" stroke="none" fill="#6E2D13"/>

<path d="M805 621 c-48 -8 -65 -17 -65 -37 0 -18 3 -18 50 6 22 11 44 20 50 20 5 0 10 -9 10 -20 0 -27 23 -25 35 3 16 36 125 37 111 0 -5 -11 -2 -14 10 -9 8 3 18 6 20 6 2 0 4 6 4 14 0 7 -10 16 -22 20 -29 7 -150 6 -203 -3z" transform="translate(0,90) scale(0.1,-0.1)" stroke="none" fill="#B35819"/>

<path d="M288 684 c-3 -2 -2 -24 3 -47 4 -23 8 -45 9 -49 0 -4 -22 -4 -50 -1 -27 3 -50 2 -50 -3 0 -5 13 -24 28 -43 l28 -33 40 21 c95 53 114 65 114 75 0 6 -21 25 -48 42 -61 41 -68 44 -74 38z" transform="translate(0,90) scale(0.1,-0.1)" stroke="none" fill="#D6A76A"/>

<path d="M1074 589 c0 -16 5 -19 24 -14 13 3 33 3 43 0 16 -5 18 -10 8 -21 -13 -16 2 -19 18 -3 8 8 15 4 27 -12 11 -16 12 -25 5 -30 -13 -8 -49 0 -49 11 0 15 -60 17 -73 2 -10 -13 -8 -14 10 -8 16 5 23 2 28 -14 11 -33 -13 -53 -57 -47 -21 3 -41 1 -44 -4 -3 -5 -13 -5 -24 1 -10 5 -26 7 -34 4 -9 -3 -16 -1 -16 5 0 6 -13 11 -30 11 -22 0 -30 5 -30 18 0 10 5 23 12 30 18 18 65 15 78 -5 9 -15 10 -13 8 12 -3 28 -6 30 -45 30 -28 0 -43 -4 -43 -13 0 -7 -7 -15 -15 -18 -8 -4 -15 -16 -15 -28 0 -31 -16 -50 -34 -43 -19 7 -22 47 -3 47 6 1 -1 8 -17 16 -28 15 -30 15 -58 -14 -25 -25 -28 -33 -19 -50 6 -11 11 -35 11 -52 0 -24 -7 -35 -30 -48 -17 -9 -30 -24 -29 -32 3 -31 -2 -41 -38 -78 -21 -21 -34 -34 -29 -30 19 16 26 7 26 -32 0 -22 -3 -40 -7 -40 -14 0 -7 -81 8 -91 43 -27 102 5 125 68 9 27 20 51 24 56 3 4 51 9 106 10 63 2 113 9 137 20 36 15 37 15 38 -4 1 -10 2 -22 3 -26 1 -5 5 -22 10 -39 7 -30 8 -31 48 -24 47 9 73 37 83 87 l6 33 59 -7 c63 -6 139 8 180 34 23 16 23 17 5 24 -11 4 -33 8 -48 8 -50 2 -85 28 -116 89 -17 31 -30 52 -31 45 0 -7 -6 -10 -14 -7 -11 4 -13 0 -9 -16 5 -19 2 -21 -28 -18 -43 4 -56 38 -15 38 14 0 26 4 26 9 0 5 -8 7 -19 4 -12 -3 -26 5 -40 24 l-23 28 24 6 c26 7 62 -17 51 -34 -4 -6 0 -8 11 -4 10 4 20 7 22 7 3 0 -2 13 -10 29 -17 32 -78 89 -110 100 -57 22 -62 22 -62 0z" transform="translate(0,90) scale(0.1,-0.1)" stroke="none" fill="#B35819"/>

<path d="M562 837 c-6 -7 -16 -25 -22 -41 -5 -15 -37 -70 -70 -120 -55 -86 -65 -95 -132 -132 -39 -21 -75 -38 -78 -37 -17 5 -90 -70 -101 -105 -6 -20 -15 -41 -19 -47 -15 -22 -32 -94 -25 -105 4 -7 23 -18 41 -26 32 -13 36 -12 82 16 27 16 52 30 56 30 4 0 5 -17 2 -37 -8 -52 4 -66 57 -67 35 -1 54 6 88 30 60 43 83 49 104 27 25 -25 44 -25 76 0 37 27 63 66 61 92 -1 13 9 26 28 37 23 13 30 24 30 48 0 17 -5 41 -11 52 -9 17 -6 25 19 50 28 29 30 29 58 14 16 -8 23 -15 17 -16 -19 0 -16 -40 3 -47 18 -7 34 12 34 43 0 12 7 24 15 28 8 3 15 11 15 18 0 9 15 13 43 13 39 0 42 -2 45 -30 2 -25 1 -27 -8 -12 -13 20 -60 23 -78 5 -7 -7 -12 -20 -12 -30 0 -13 8 -18 30 -18 17 0 30 -5 30 -11 0 -6 7 -8 16 -5 8 3 24 1 34 -4 11 -6 21 -6 24 -1 3 5 23 7 44 4 44 -6 68 14 57 47 -5 16 -12 19 -28 14 -19 -6 -20 -5 -9 8 12 15 61 13 72 -2 3 -5 12 -9 20 -10 31 -5 39 0 33 18 -6 15 -4 15 18 -3 17 -14 16 -10 -6 14 -28 30 -74 64 -62 44 3 -4 -14 -8 -37 -9 -39 -1 -43 1 -40 22 2 18 -4 23 -33 29 -19 3 -38 4 -41 1 -3 -3 2 -6 11 -6 22 0 22 -26 1 -34 -22 -9 -24 -8 -18 9 4 9 -3 16 -19 20 -43 11 -81 2 -92 -22 -12 -28 -35 -30 -35 -3 0 25 -11 25 -60 0 -22 -11 -42 -20 -45 -20 -11 0 -4 29 9 37 21 12 -6 73 -32 73 -23 0 -32 18 -32 62 0 22 -11 41 -39 69 -40 40 -70 49 -89 26z m629 -284 c13 -16 12 -17 -3 -5 -11 9 -18 10 -23 2 -3 -5 -11 -10 -17 -10 -7 0 -6 6 2 15 16 19 24 19 41 -2z m-161 -63 c0 -5 -2 -10 -4 -10 -3 0 -8 5 -11 10 -3 6 -1 10 4 10 6 0 11 -4 11 -10z m-641 -14 c10 -12 3 -15 -36 -18 -57 -5 -65 -1 -39 18 25 18 60 18 75 0z m76 -66 c11 -18 -15 -50 -40 -50 -27 0 -34 27 -13 48 14 14 45 16 53 2z" transform="translate(0,90) scale(0.1,-0.1)" stroke="none" fill="#6E2D13"/>

</g>

<g id="2" transform="translate(312.0,0)scale(1,1)">

<path d="M60 404 c0 -10 52 -74 60 -74 4 0 11 11 14 24 3 13 9 31 12 40 5 13 -2 16 -40 16 -25 0 -46 -3 -46 -6z" transform="translate(0,90) scale(0.1,-0.1)" stroke="none" fill="#D6A76A"/>

<path d="M1035 204 c-16 -7 -40 -13 -52 -14 -17 0 -23 -6 -23 -24 0 -25 16 -36 54 -36 31 0 65 39 57 66 -6 19 -8 20 -36 8z" transform="translate(0,90) scale(0.1,-0.1)" stroke="none" fill="#D6A76A"/>

<path d="M615 211 c-6 -5 -21 -11 -34 -13 -34 -4 -52 -56 -25 -75 37 -27 84 7 84 61 0 36 -8 44 -25 27z" transform="translate(0,90) scale(0.1,-0.1)" stroke="none" fill="#D6A76A"/>

<path d="M1172 491 l-24 -6 23 -28 c14 -19 28 -27 40 -24 11 3 19 1 19 -4 0 -5 -12 -9 -26 -9 -41 0 -28 -34 15 -38 30 -3 33 -1 28 18 -4 15 -2 20 8 16 21 -8 26 22 10 55 -9 16 -18 29 -21 29 -2 0 0 -9 5 -19 8 -15 7 -20 -5 -25 -21 -8 -26 -8 -20 3 10 15 -28 38 -52 32z" transform="translate(0,90) scale(0.1,-0.1)" stroke="none" fill="#6E2D13"/>

<path d="M805 621 c-48 -8 -65 -17 -65 -37 0 -18 3 -18 50 6 22 11 44 20 50 20 5 0 10 -9 10 -20 0 -27 23 -25 35 3 16 36 125 37 111 0 -5 -11 -2 -14 10 -9 8 3 18 6 20 6 2 0 4 6 4 14 0 7 -10 16 -22 20 -29 7 -150 6 -203 -3z" transform="translate(0,90) scale(0.1,-0.1)" stroke="none" fill="#B35819"/>

<path d="M288 684 c-3 -2 -2 -24 3 -47 4 -23 8 -45 9 -49 0 -4 -22 -4 -50 -1 -27 3 -50 2 -50 -3 0 -5 13 -24 28 -43 l28 -33 40 21 c95 53 114 65 114 75 0 6 -21 25 -48 42 -61 41 -68 44 -74 38z" transform="translate(0,90) scale(0.1,-0.1)" stroke="none" fill="#D6A76A"/>

<path d="M1074 589 c0 -16 5 -19 24 -14 13 3 33 3 43 0 16 -5 18 -10 8 -21 -13 -16 2 -19 18 -3 8 8 15 4 27 -12 11 -16 12 -25 5 -30 -13 -8 -49 0 -49 11 0 15 -60 17 -73 2 -10 -13 -8 -14 10 -8 16 5 23 2 28 -14 11 -33 -13 -53 -57 -47 -21 3 -41 1 -44 -4 -3 -5 -13 -5 -24 1 -10 5 -26 7 -34 4 -9 -3 -16 -1 -16 5 0 6 -13 11 -30 11 -22 0 -30 5 -30 18 0 10 5 23 12 30 18 18 65 15 78 -5 9 -15 10 -13 8 12 -3 28 -6 30 -45 30 -28 0 -43 -4 -43 -13 0 -7 -7 -15 -15 -18 -8 -4 -15 -16 -15 -28 0 -31 -16 -50 -34 -43 -19 7 -22 47 -3 47 6 1 -1 8 -17 16 -28 15 -30 15 -58 -14 -25 -25 -28 -33 -19 -50 6 -11 11 -35 11 -52 0 -24 -7 -35 -30 -48 -17 -9 -30 -24 -29 -32 3 -31 -2 -41 -38 -78 -21 -21 -34 -34 -29 -30 19 16 26 7 26 -32 0 -22 -3 -40 -7 -40 -14 0 -7 -81 8 -91 43 -27 102 5 125 68 9 27 20 51 24 56 3 4 51 9 106 10 63 2 113 9 137 20 36 15 37 15 38 -4 1 -10 2 -22 3 -26 1 -5 5 -22 10 -39 7 -30 8 -31 48 -24 47 9 73 37 83 87 l6 33 59 -7 c63 -6 139 8 180 34 23 16 23 17 5 24 -11 4 -33 8 -48 8 -50 2 -85 28 -116 89 -17 31 -30 52 -31 45 0 -7 -6 -10 -14 -7 -11 4 -13 0 -9 -16 5 -19 2 -21 -28 -18 -43 4 -56 38 -15 38 14 0 26 4 26 9 0 5 -8 7 -19 4 -12 -3 -26 5 -40 24 l-23 28 24 6 c26 7 62 -17 51 -34 -4 -6 0 -8 11 -4 10 4 20 7 22 7 3 0 -2 13 -10 29 -17 32 -78 89 -110 100 -57 22 -62 22 -62 0z" transform="translate(0,90) scale(0.1,-0.1)" stroke="none" fill="#B35819"/>

<path d="M562 837 c-6 -7 -16 -25 -22 -41 -5 -15 -37 -70 -70 -120 -55 -86 -65 -95 -132 -132 -39 -21 -75 -38 -78 -37 -17 5 -90 -70 -101 -105 -6 -20 -15 -41 -19 -47 -15 -22 -32 -94 -25 -105 4 -7 23 -18 41 -26 32 -13 36 -12 82 16 27 16 52 30 56 30 4 0 5 -17 2 -37 -8 -52 4 -66 57 -67 35 -1 54 6 88 30 60 43 83 49 104 27 25 -25 44 -25 76 0 37 27 63 66 61 92 -1 13 9 26 28 37 23 13 30 24 30 48 0 17 -5 41 -11 52 -9 17 -6 25 19 50 28 29 30 29 58 14 16 -8 23 -15 17 -16 -19 0 -16 -40 3 -47 18 -7 34 12 34 43 0 12 7 24 15 28 8 3 15 11 15 18 0 9 15 13 43 13 39 0 42 -2 45 -30 2 -25 1 -27 -8 -12 -13 20 -60 23 -78 5 -7 -7 -12 -20 -12 -30 0 -13 8 -18 30 -18 17 0 30 -5 30 -11 0 -6 7 -8 16 -5 8 3 24 1 34 -4 11 -6 21 -6 24 -1 3 5 23 7 44 4 44 -6 68 14 57 47 -5 16 -12 19 -28 14 -19 -6 -20 -5 -9 8 12 15 61 13 72 -2 3 -5 12 -9 20 -10 31 -5 39 0 33 18 -6 15 -4 15 18 -3 17 -14 16 -10 -6 14 -28 30 -74 64 -62 44 3 -4 -14 -8 -37 -9 -39 -1 -43 1 -40 22 2 18 -4 23 -33 29 -19 3 -38 4 -41 1 -3 -3 2 -6 11 -6 22 0 22 -26 1 -34 -22 -9 -24 -8 -18 9 4 9 -3 16 -19 20 -43 11 -81 2 -92 -22 -12 -28 -35 -30 -35 -3 0 25 -11 25 -60 0 -22 -11 -42 -20 -45 -20 -11 0 -4 29 9 37 21 12 -6 73 -32 73 -23 0 -32 18 -32 62 0 22 -11 41 -39 69 -40 40 -70 49 -89 26z m629 -284 c13 -16 12 -17 -3 -5 -11 9 -18 10 -23 2 -3 -5 -11 -10 -17 -10 -7 0 -6 6 2 15 16 19 24 19 41 -2z m-161 -63 c0 -5 -2 -10 -4 -10 -3 0 -8 5 -11 10 -3 6 -1 10 4 10 6 0 11 -4 11 -10z m-641 -14 c10 -12 3 -15 -36 -18 -57 -5 -65 -1 -39 18 25 18 60 18 75 0z m76 -66 c11 -18 -15 -50 -40 -50 -27 0 -34 27 -13 48 14 14 45 16 53 2z" transform="translate(0,90) scale(0.1,-0.1)" stroke="none" fill="#6E2D13"/>

</g>

<g id="3" transform="translate(468.0,0)scale(1,1)">

<path d="M60 404 c0 -10 52 -74 60 -74 4 0 11 11 14 24 3 13 9 31 12 40 5 13 -2 16 -40 16 -25 0 -46 -3 -46 -6z" transform="translate(0,90) scale(0.1,-0.1)" stroke="none" fill="#D6A76A"/>

<path d="M1035 204 c-16 -7 -40 -13 -52 -14 -17 0 -23 -6 -23 -24 0 -25 16 -36 54 -36 31 0 65 39 57 66 -6 19 -8 20 -36 8z" transform="translate(0,90) scale(0.1,-0.1)" stroke="none" fill="#D6A76A"/>

<path d="M615 211 c-6 -5 -21 -11 -34 -13 -34 -4 -52 -56 -25 -75 37 -27 84 7 84 61 0 36 -8 44 -25 27z" transform="translate(0,90) scale(0.1,-0.1)" stroke="none" fill="#D6A76A"/>

<path d="M1172 491 l-24 -6 23 -28 c14 -19 28 -27 40 -24 11 3 19 1 19 -4 0 -5 -12 -9 -26 -9 -41 0 -28 -34 15 -38 30 -3 33 -1 28 18 -4 15 -2 20 8 16 21 -8 26 22 10 55 -9 16 -18 29 -21 29 -2 0 0 -9 5 -19 8 -15 7 -20 -5 -25 -21 -8 -26 -8 -20 3 10 15 -28 38 -52 32z" transform="translate(0,90) scale(0.1,-0.1)" stroke="none" fill="#6E2D13"/>

<path d="M805 621 c-48 -8 -65 -17 -65 -37 0 -18 3 -18 50 6 22 11 44 20 50 20 5 0 10 -9 10 -20 0 -27 23 -25 35 3 16 36 125 37 111 0 -5 -11 -2 -14 10 -9 8 3 18 6 20 6 2 0 4 6 4 14 0 7 -10 16 -22 20 -29 7 -150 6 -203 -3z" transform="translate(0,90) scale(0.1,-0.1)" stroke="none" fill="#B35819"/>

<path d="M288 684 c-3 -2 -2 -24 3 -47 4 -23 8 -45 9 -49 0 -4 -22 -4 -50 -1 -27 3 -50 2 -50 -3 0 -5 13 -24 28 -43 l28 -33 40 21 c95 53 114 65 114 75 0 6 -21 25 -48 42 -61 41 -68 44 -74 38z" transform="translate(0,90) scale(0.1,-0.1)" stroke="none" fill="#D6A76A"/>

<path d="M1074 589 c0 -16 5 -19 24 -14 13 3 33 3 43 0 16 -5 18 -10 8 -21 -13 -16 2 -19 18 -3 8 8 15 4 27 -12 11 -16 12 -25 5 -30 -13 -8 -49 0 -49 11 0 15 -60 17 -73 2 -10 -13 -8 -14 10 -8 16 5 23 2 28 -14 11 -33 -13 -53 -57 -47 -21 3 -41 1 -44 -4 -3 -5 -13 -5 -24 1 -10 5 -26 7 -34 4 -9 -3 -16 -1 -16 5 0 6 -13 11 -30 11 -22 0 -30 5 -30 18 0 10 5 23 12 30 18 18 65 15 78 -5 9 -15 10 -13 8 12 -3 28 -6 30 -45 30 -28 0 -43 -4 -43 -13 0 -7 -7 -15 -15 -18 -8 -4 -15 -16 -15 -28 0 -31 -16 -50 -34 -43 -19 7 -22 47 -3 47 6 1 -1 8 -17 16 -28 15 -30 15 -58 -14 -25 -25 -28 -33 -19 -50 6 -11 11 -35 11 -52 0 -24 -7 -35 -30 -48 -17 -9 -30 -24 -29 -32 3 -31 -2 -41 -38 -78 -21 -21 -34 -34 -29 -30 19 16 26 7 26 -32 0 -22 -3 -40 -7 -40 -14 0 -7 -81 8 -91 43 -27 102 5 125 68 9 27 20 51 24 56 3 4 51 9 106 10 63 2 113 9 137 20 36 15 37 15 38 -4 1 -10 2 -22 3 -26 1 -5 5 -22 10 -39 7 -30 8 -31 48 -24 47 9 73 37 83 87 l6 33 59 -7 c63 -6 139 8 180 34 23 16 23 17 5 24 -11 4 -33 8 -48 8 -50 2 -85 28 -116 89 -17 31 -30 52 -31 45 0 -7 -6 -10 -14 -7 -11 4 -13 0 -9 -16 5 -19 2 -21 -28 -18 -43 4 -56 38 -15 38 14 0 26 4 26 9 0 5 -8 7 -19 4 -12 -3 -26 5 -40 24 l-23 28 24 6 c26 7 62 -17 51 -34 -4 -6 0 -8 11 -4 10 4 20 7 22 7 3 0 -2 13 -10 29 -17 32 -78 89 -110 100 -57 22 -62 22 -62 0z" transform="translate(0,90) scale(0.1,-0.1)" stroke="none" fill="#B35819"/>

<path d="M562 837 c-6 -7 -16 -25 -22 -41 -5 -15 -37 -70 -70 -120 -55 -86 -65 -95 -132 -132 -39 -21 -75 -38 -78 -37 -17 5 -90 -70 -101 -105 -6 -20 -15 -41 -19 -47 -15 -22 -32 -94 -25 -105 4 -7 23 -18 41 -26 32 -13 36 -12 82 16 27 16 52 30 56 30 4 0 5 -17 2 -37 -8 -52 4 -66 57 -67 35 -1 54 6 88 30 60 43 83 49 104 27 25 -25 44 -25 76 0 37 27 63 66 61 92 -1 13 9 26 28 37 23 13 30 24 30 48 0 17 -5 41 -11 52 -9 17 -6 25 19 50 28 29 30 29 58 14 16 -8 23 -15 17 -16 -19 0 -16 -40 3 -47 18 -7 34 12 34 43 0 12 7 24 15 28 8 3 15 11 15 18 0 9 15 13 43 13 39 0 42 -2 45 -30 2 -25 1 -27 -8 -12 -13 20 -60 23 -78 5 -7 -7 -12 -20 -12 -30 0 -13 8 -18 30 -18 17 0 30 -5 30 -11 0 -6 7 -8 16 -5 8 3 24 1 34 -4 11 -6 21 -6 24 -1 3 5 23 7 44 4 44 -6 68 14 57 47 -5 16 -12 19 -28 14 -19 -6 -20 -5 -9 8 12 15 61 13 72 -2 3 -5 12 -9 20 -10 31 -5 39 0 33 18 -6 15 -4 15 18 -3 17 -14 16 -10 -6 14 -28 30 -74 64 -62 44 3 -4 -14 -8 -37 -9 -39 -1 -43 1 -40 22 2 18 -4 23 -33 29 -19 3 -38 4 -41 1 -3 -3 2 -6 11 -6 22 0 22 -26 1 -34 -22 -9 -24 -8 -18 9 4 9 -3 16 -19 20 -43 11 -81 2 -92 -22 -12 -28 -35 -30 -35 -3 0 25 -11 25 -60 0 -22 -11 -42 -20 -45 -20 -11 0 -4 29 9 37 21 12 -6 73 -32 73 -23 0 -32 18 -32 62 0 22 -11 41 -39 69 -40 40 -70 49 -89 26z m629 -284 c13 -16 12 -17 -3 -5 -11 9 -18 10 -23 2 -3 -5 -11 -10 -17 -10 -7 0 -6 6 2 15 16 19 24 19 41 -2z m-161 -63 c0 -5 -2 -10 -4 -10 -3 0 -8 5 -11 10 -3 6 -1 10 4 10 6 0 11 -4 11 -10z m-641 -14 c10 -12 3 -15 -36 -18 -57 -5 -65 -1 -39 18 25 18 60 18 75 0z m76 -66 c11 -18 -15 -50 -40 -50 -27 0 -34 27 -13 48 14 14 45 16 53 2z" transform="translate(0,90) scale(0.1,-0.1)" stroke="none" fill="#6E2D13"/>

</g>

<g id="4" transform="translate(624.0,0)scale(1,1)">

<path d="M60 404 c0 -10 52 -74 60 -74 4 0 11 11 14 24 3 13 9 31 12 40 5 13 -2 16 -40 16 -25 0 -46 -3 -46 -6z" transform="translate(0,90) scale(0.1,-0.1)" stroke="none" fill="#D6A76A"/>

<path d="M1035 204 c-16 -7 -40 -13 -52 -14 -17 0 -23 -6 -23 -24 0 -25 16 -36 54 -36 31 0 65 39 57 66 -6 19 -8 20 -36 8z" transform="translate(0,90) scale(0.1,-0.1)" stroke="none" fill="#D6A76A"/>

<path d="M615 211 c-6 -5 -21 -11 -34 -13 -34 -4 -52 -56 -25 -75 37 -27 84 7 84 61 0 36 -8 44 -25 27z" transform="translate(0,90) scale(0.1,-0.1)" stroke="none" fill="#D6A76A"/>

<path d="M1172 491 l-24 -6 23 -28 c14 -19 28 -27 40 -24 11 3 19 1 19 -4 0 -5 -12 -9 -26 -9 -41 0 -28 -34 15 -38 30 -3 33 -1 28 18 -4 15 -2 20 8 16 21 -8 26 22 10 55 -9 16 -18 29 -21 29 -2 0 0 -9 5 -19 8 -15 7 -20 -5 -25 -21 -8 -26 -8 -20 3 10 15 -28 38 -52 32z" transform="translate(0,90) scale(0.1,-0.1)" stroke="none" fill="#6E2D13"/>

<path d="M805 621 c-48 -8 -65 -17 -65 -37 0 -18 3 -18 50 6 22 11 44 20 50 20 5 0 10 -9 10 -20 0 -27 23 -25 35 3 16 36 125 37 111 0 -5 -11 -2 -14 10 -9 8 3 18 6 20 6 2 0 4 6 4 14 0 7 -10 16 -22 20 -29 7 -150 6 -203 -3z" transform="translate(0,90) scale(0.1,-0.1)" stroke="none" fill="#B35819"/>

<path d="M288 684 c-3 -2 -2 -24 3 -47 4 -23 8 -45 9 -49 0 -4 -22 -4 -50 -1 -27 3 -50 2 -50 -3 0 -5 13 -24 28 -43 l28 -33 40 21 c95 53 114 65 114 75 0 6 -21 25 -48 42 -61 41 -68 44 -74 38z" transform="translate(0,90) scale(0.1,-0.1)" stroke="none" fill="#D6A76A"/>

<path d="M1074 589 c0 -16 5 -19 24 -14 13 3 33 3 43 0 16 -5 18 -10 8 -21 -13 -16 2 -19 18 -3 8 8 15 4 27 -12 11 -16 12 -25 5 -30 -13 -8 -49 0 -49 11 0 15 -60 17 -73 2 -10 -13 -8 -14 10 -8 16 5 23 2 28 -14 11 -33 -13 -53 -57 -47 -21 3 -41 1 -44 -4 -3 -5 -13 -5 -24 1 -10 5 -26 7 -34 4 -9 -3 -16 -1 -16 5 0 6 -13 11 -30 11 -22 0 -30 5 -30 18 0 10 5 23 12 30 18 18 65 15 78 -5 9 -15 10 -13 8 12 -3 28 -6 30 -45 30 -28 0 -43 -4 -43 -13 0 -7 -7 -15 -15 -18 -8 -4 -15 -16 -15 -28 0 -31 -16 -50 -34 -43 -19 7 -22 47 -3 47 6 1 -1 8 -17 16 -28 15 -30 15 -58 -14 -25 -25 -28 -33 -19 -50 6 -11 11 -35 11 -52 0 -24 -7 -35 -30 -48 -17 -9 -30 -24 -29 -32 3 -31 -2 -41 -38 -78 -21 -21 -34 -34 -29 -30 19 16 26 7 26 -32 0 -22 -3 -40 -7 -40 -14 0 -7 -81 8 -91 43 -27 102 5 125 68 9 27 20 51 24 56 3 4 51 9 106 10 63 2 113 9 137 20 36 15 37 15 38 -4 1 -10 2 -22 3 -26 1 -5 5 -22 10 -39 7 -30 8 -31 48 -24 47 9 73 37 83 87 l6 33 59 -7 c63 -6 139 8 180 34 23 16 23 17 5 24 -11 4 -33 8 -48 8 -50 2 -85 28 -116 89 -17 31 -30 52 -31 45 0 -7 -6 -10 -14 -7 -11 4 -13 0 -9 -16 5 -19 2 -21 -28 -18 -43 4 -56 38 -15 38 14 0 26 4 26 9 0 5 -8 7 -19 4 -12 -3 -26 5 -40 24 l-23 28 24 6 c26 7 62 -17 51 -34 -4 -6 0 -8 11 -4 10 4 20 7 22 7 3 0 -2 13 -10 29 -17 32 -78 89 -110 100 -57 22 -62 22 -62 0z" transform="translate(0,90) scale(0.1,-0.1)" stroke="none" fill="#B35819"/>

<path d="M562 837 c-6 -7 -16 -25 -22 -41 -5 -15 -37 -70 -70 -120 -55 -86 -65 -95 -132 -132 -39 -21 -75 -38 -78 -37 -17 5 -90 -70 -101 -105 -6 -20 -15 -41 -19 -47 -15 -22 -32 -94 -25 -105 4 -7 23 -18 41 -26 32 -13 36 -12 82 16 27 16 52 30 56 30 4 0 5 -17 2 -37 -8 -52 4 -66 57 -67 35 -1 54 6 88 30 60 43 83 49 104 27 25 -25 44 -25 76 0 37 27 63 66 61 92 -1 13 9 26 28 37 23 13 30 24 30 48 0 17 -5 41 -11 52 -9 17 -6 25 19 50 28 29 30 29 58 14 16 -8 23 -15 17 -16 -19 0 -16 -40 3 -47 18 -7 34 12 34 43 0 12 7 24 15 28 8 3 15 11 15 18 0 9 15 13 43 13 39 0 42 -2 45 -30 2 -25 1 -27 -8 -12 -13 20 -60 23 -78 5 -7 -7 -12 -20 -12 -30 0 -13 8 -18 30 -18 17 0 30 -5 30 -11 0 -6 7 -8 16 -5 8 3 24 1 34 -4 11 -6 21 -6 24 -1 3 5 23 7 44 4 44 -6 68 14 57 47 -5 16 -12 19 -28 14 -19 -6 -20 -5 -9 8 12 15 61 13 72 -2 3 -5 12 -9 20 -10 31 -5 39 0 33 18 -6 15 -4 15 18 -3 17 -14 16 -10 -6 14 -28 30 -74 64 -62 44 3 -4 -14 -8 -37 -9 -39 -1 -43 1 -40 22 2 18 -4 23 -33 29 -19 3 -38 4 -41 1 -3 -3 2 -6 11 -6 22 0 22 -26 1 -34 -22 -9 -24 -8 -18 9 4 9 -3 16 -19 20 -43 11 -81 2 -92 -22 -12 -28 -35 -30 -35 -3 0 25 -11 25 -60 0 -22 -11 -42 -20 -45 -20 -11 0 -4 29 9 37 21 12 -6 73 -32 73 -23 0 -32 18 -32 62 0 22 -11 41 -39 69 -40 40 -70 49 -89 26z m629 -284 c13 -16 12 -17 -3 -5 -11 9 -18 10 -23 2 -3 -5 -11 -10 -17 -10 -7 0 -6 6 2 15 16 19 24 19 41 -2z m-161 -63 c0 -5 -2 -10 -4 -10 -3 0 -8 5 -11 10 -3 6 -1 10 4 10 6 0 11 -4 11 -10z m-641 -14 c10 -12 3 -15 -36 -18 -57 -5 -65 -1 -39 18 25 18 60 18 75 0z m76 -66 c11 -18 -15 -50 -40 -50 -27 0 -34 27 -13 48 14 14 45 16 53 2z" transform="translate(0,90) scale(0.1,-0.1)" stroke="none" fill="#6E2D13"/>

</g>

</g>
<g id="row2" transform="translate(20,180.0)">
<g id="0" transform="translate(0.0,0)scale(1,1)">

<path d="M60 404 c0 -10 52 -74 60 -74 4 0 11 11 14 24 3 13 9 31 12 40 5 13 -2 16 -40 16 -25 0 -46 -3 -46 -6z" transform="translate(0,90) scale(0.1,-0.1)" stroke="none" fill="#D6A76A"/>

<path d="M1035 204 c-16 -7 -40 -13 -52 -14 -17 0 -23 -6 -23 -24 0 -25 16 -36 54 -36 31 0 65 39 57 66 -6 19 -8 20 -36 8z" transform="translate(0,90) scale(0.1,-0.1)" stroke="none" fill="#D6A76A"/>

<path d="M615 211 c-6 -5 -21 -11 -34 -13 -34 -4 -52 -56 -25 -75 37 -27 84 7 84 61 0 36 -8 44 -25 27z" transform="translate(0,90) scale(0.1,-0.1)" stroke="none" fill="#D6A76A"/>

<path d="M1172 491 l-24 -6 23 -28 c14 -19 28 -27 40 -24 11 3 19 1 19 -4 0 -5 -12 -9 -26 -9 -41 0 -28 -34 15 -38 30 -3 33 -1 28 18 -4 15 -2 20 8 16 21 -8 26 22 10 55 -9 16 -18 29 -21 29 -2 0 0 -9 5 -19 8 -15 7 -20 -5 -25 -21 -8 -26 -8 -20 3 10 15 -28 38 -52 32z" transform="translate(0,90) scale(0.1,-0.1)" stroke="none" fill="#6E2D13"/>

<path d="M805 621 c-48 -8 -65 -17 -65 -37 0 -18 3 -18 50 6 22 11 44 20 50 20 5 0 10 -9 10 -20 0 -27 23 -25 35 3 16 36 125 37 111 0 -5 -11 -2 -14 10 -9 8 3 18 6 20 6 2 0 4 6 4 14 0 7 -10 16 -22 20 -29 7 -150 6 -203 -3z" transform="translate(0,90) scale(0.1,-0.1)" stroke="none" fill="#B35819"/>

<path d="M288 684 c-3 -2 -2 -24 3 -47 4 -23 8 -45 9 -49 0 -4 -22 -4 -50 -1 -27 3 -50 2 -50 -3 0 -5 13 -24 28 -43 l28 -33 40 21 c95 53 114 65 114 75 0 6 -21 25 -48 42 -61 41 -68 44 -74 38z" transform="translate(0,90) scale(0.1,-0.1)" stroke="none" fill="#D6A76A"/>

<path d="M1074 589 c0 -16 5 -19 24 -14 13 3 33 3 43 0 16 -5 18 -10 8 -21 -13 -16 2 -19 18 -3 8 8 15 4 27 -12 11 -16 12 -25 5 -30 -13 -8 -49 0 -49 11 0 15 -60 17 -73 2 -10 -13 -8 -14 10 -8 16 5 23 2 28 -14 11 -33 -13 -53 -57 -47 -21 3 -41 1 -44 -4 -3 -5 -13 -5 -24 1 -10 5 -26 7 -34 4 -9 -3 -16 -1 -16 5 0 6 -13 11 -30 11 -22 0 -30 5 -30 18 0 10 5 23 12 30 18 18 65 15 78 -5 9 -15 10 -13 8 12 -3 28 -6 30 -45 30 -28 0 -43 -4 -43 -13 0 -7 -7 -15 -15 -18 -8 -4 -15 -16 -15 -28 0 -31 -16 -50 -34 -43 -19 7 -22 47 -3 47 6 1 -1 8 -17 16 -28 15 -30 15 -58 -14 -25 -25 -28 -33 -19 -50 6 -11 11 -35 11 -52 0 -24 -7 -35 -30 -48 -17 -9 -30 -24 -29 -32 3 -31 -2 -41 -38 -78 -21 -21 -34 -34 -29 -30 19 16 26 7 26 -32 0 -22 -3 -40 -7 -40 -14 0 -7 -81 8 -91 43 -27 102 5 125 68 9 27 20 51 24 56 3 4 51 9 106 10 63 2 113 9 137 20 36 15 37 15 38 -4 1 -10 2 -22 3 -26 1 -5 5 -22 10 -39 7 -30 8 -31 48 -24 47 9 73 37 83 87 l6 33 59 -7 c63 -6 139 8 180 34 23 16 23 17 5 24 -11 4 -33 8 -48 8 -50 2 -85 28 -116 89 -17 31 -30 52 -31 45 0 -7 -6 -10 -14 -7 -11 4 -13 0 -9 -16 5 -19 2 -21 -28 -18 -43 4 -56 38 -15 38 14 0 26 4 26 9 0 5 -8 7 -19 4 -12 -3 -26 5 -40 24 l-23 28 24 6 c26 7 62 -17 51 -34 -4 -6 0 -8 11 -4 10 4 20 7 22 7 3 0 -2 13 -10 29 -17 32 -78 89 -110 100 -57 22 -62 22 -62 0z" transform="translate(0,90) scale(0.1,-0.1)" stroke="none" fill="#B35819"/>

<path d="M562 837 c-6 -7 -16 -25 -22 -41 -5 -15 -37 -70 -70 -120 -55 -86 -65 -95 -132 -132 -39 -21 -75 -38 -78 -37 -17 5 -90 -70 -101 -105 -6 -20 -15 -41 -19 -47 -15 -22 -32 -94 -25 -105 4 -7 23 -18 41 -26 32 -13 36 -12 82 16 27 16 52 30 56 30 4 0 5 -17 2 -37 -8 -52 4 -66 57 -67 35 -1 54 6 88 30 60 43 83 49 104 27 25 -25 44 -25 76 0 37 27 63 66 61 92 -1 13 9 26 28 37 23 13 30 24 30 48 0 17 -5 41 -11 52 -9 17 -6 25 19 50 28 29 30 29 58 14 16 -8 23 -15 17 -16 -19 0 -16 -40 3 -47 18 -7 34 12 34 43 0 12 7 24 15 28 8 3 15 11 15 18 0 9 15 13 43 13 39 0 42 -2 45 -30 2 -25 1 -27 -8 -12 -13 20 -60 23 -78 5 -7 -7 -12 -20 -12 -30 0 -13 8 -18 30 -18 17 0 30 -5 30 -11 0 -6 7 -8 16 -5 8 3 24 1 34 -4 11 -6 21 -6 24 -1 3 5 23 7 44 4 44 -6 68 14 57 47 -5 16 -12 19 -28 14 -19 -6 -20 -5 -9 8 12 15 61 13 72 -2 3 -5 12 -9 20 -10 31 -5 39 0 33 18 -6 15 -4 15 18 -3 17 -14 16 -10 -6 14 -28 30 -74 64 -62 44 3 -4 -14 -8 -37 -9 -39 -1 -43 1 -40 22 2 18 -4 23 -33 29 -19 3 -38 4 -41 1 -3 -3 2 -6 11 -6 22 0 22 -26 1 -34 -22 -9 -24 -8 -18 9 4 9 -3 16 -19 20 -43 11 -81 2 -92 -22 -12 -28 -35 -30 -35 -3 0 25 -11 25 -60 0 -22 -11 -42 -20 -45 -20 -11 0 -4 29 9 37 21 12 -6 73 -32 73 -23 0 -32 18 -32 62 0 22 -11 41 -39 69 -40 40 -70 49 -89 26z m629 -284 c13 -16 12 -17 -3 -5 -11 9 -18 10 -23 2 -3 -5 -11 -10 -17 -10 -7 0 -6 6 2 15 16 19 24 19 41 -2z m-161 -63 c0 -5 -2 -10 -4 -10 -3 0 -8 5 -11 10 -3 6 -1 10 4 10 6 0 11 -4 11 -10z m-641 -14 c10 -12 3 -15 -36 -18 -57 -5 -65 -1 -39 18 25 18 60 18 75 0z m76 -66 c11 -18 -15 -50 -40 -50 -27 0 -34 27 -13 48 14 14 45 16 53 2z" transform="translate(0,90) scale(0.1,-0.1)" stroke="none" fill="#6E2D13"/>

</g>

<g id="1" transform="translate(156.0,0)scale(1,1)">

<path d="M60 404 c0 -10 52 -74 60 -74 4 0 11 11 14 24 3 13 9 31 12 40 5 13 -2 16 -40 16 -25 0 -46 -3 -46 -6z" transform="translate(0,90) scale(0.1,-0.1)" stroke="none" fill="#D6A76A"/>

<path d="M1035 204 c-16 -7 -40 -13 -52 -14 -17 0 -23 -6 -23 -24 0 -25 16 -36 54 -36 31 0 65 39 57 66 -6 19 -8 20 -36 8z" transform="translate(0,90) scale(0.1,-0.1)" stroke="none" fill="#D6A76A"/>

<path d="M615 211 c-6 -5 -21 -11 -34 -13 -34 -4 -52 -56 -25 -75 37 -27 84 7 84 61 0 36 -8 44 -25 27z" transform="translate(0,90) scale(0.1,-0.1)" stroke="none" fill="#D6A76A"/>

<path d="M1172 491 l-24 -6 23 -28 c14 -19 28 -27 40 -24 11 3 19 1 19 -4 0 -5 -12 -9 -26 -9 -41 0 -28 -34 15 -38 30 -3 33 -1 28 18 -4 15 -2 20 8 16 21 -8 26 22 10 55 -9 16 -18 29 -21 29 -2 0 0 -9 5 -19 8 -15 7 -20 -5 -25 -21 -8 -26 -8 -20 3 10 15 -28 38 -52 32z" transform="translate(0,90) scale(0.1,-0.1)" stroke="none" fill="#6E2D13"/>

<path d="M805 621 c-48 -8 -65 -17 -65 -37 0 -18 3 -18 50 6 22 11 44 20 50 20 5 0 10 -9 10 -20 0 -27 23 -25 35 3 16 36 125 37 111 0 -5 -11 -2 -14 10 -9 8 3 18 6 20 6 2 0 4 6 4 14 0 7 -10 16 -22 20 -29 7 -150 6 -203 -3z" transform="translate(0,90) scale(0.1,-0.1)" stroke="none" fill="#B35819"/>

<path d="M288 684 c-3 -2 -2 -24 3 -47 4 -23 8 -45 9 -49 0 -4 -22 -4 -50 -1 -27 3 -50 2 -50 -3 0 -5 13 -24 28 -43 l28 -33 40 21 c95 53 114 65 114 75 0 6 -21 25 -48 42 -61 41 -68 44 -74 38z" transform="translate(0,90) scale(0.1,-0.1)" stroke="none" fill="#D6A76A"/>

<path d="M1074 589 c0 -16 5 -19 24 -14 13 3 33 3 43 0 16 -5 18 -10 8 -21 -13 -16 2 -19 18 -3 8 8 15 4 27 -12 11 -16 12 -25 5 -30 -13 -8 -49 0 -49 11 0 15 -60 17 -73 2 -10 -13 -8 -14 10 -8 16 5 23 2 28 -14 11 -33 -13 -53 -57 -47 -21 3 -41 1 -44 -4 -3 -5 -13 -5 -24 1 -10 5 -26 7 -34 4 -9 -3 -16 -1 -16 5 0 6 -13 11 -30 11 -22 0 -30 5 -30 18 0 10 5 23 12 30 18 18 65 15 78 -5 9 -15 10 -13 8 12 -3 28 -6 30 -45 30 -28 0 -43 -4 -43 -13 0 -7 -7 -15 -15 -18 -8 -4 -15 -16 -15 -28 0 -31 -16 -50 -34 -43 -19 7 -22 47 -3 47 6 1 -1 8 -17 16 -28 15 -30 15 -58 -14 -25 -25 -28 -33 -19 -50 6 -11 11 -35 11 -52 0 -24 -7 -35 -30 -48 -17 -9 -30 -24 -29 -32 3 -31 -2 -41 -38 -78 -21 -21 -34 -34 -29 -30 19 16 26 7 26 -32 0 -22 -3 -40 -7 -40 -14 0 -7 -81 8 -91 43 -27 102 5 125 68 9 27 20 51 24 56 3 4 51 9 106 10 63 2 113 9 137 20 36 15 37 15 38 -4 1 -10 2 -22 3 -26 1 -5 5 -22 10 -39 7 -30 8 -31 48 -24 47 9 73 37 83 87 l6 33 59 -7 c63 -6 139 8 180 34 23 16 23 17 5 24 -11 4 -33 8 -48 8 -50 2 -85 28 -116 89 -17 31 -30 52 -31 45 0 -7 -6 -10 -14 -7 -11 4 -13 0 -9 -16 5 -19 2 -21 -28 -18 -43 4 -56 38 -15 38 14 0 26 4 26 9 0 5 -8 7 -19 4 -12 -3 -26 5 -40 24 l-23 28 24 6 c26 7 62 -17 51 -34 -4 -6 0 -8 11 -4 10 4 20 7 22 7 3 0 -2 13 -10 29 -17 32 -78 89 -110 100 -57 22 -62 22 -62 0z" transform="translate(0,90) scale(0.1,-0.1)" stroke="none" fill="#B35819"/>

<path d="M562 837 c-6 -7 -16 -25 -22 -41 -5 -15 -37 -70 -70 -120 -55 -86 -65 -95 -132 -132 -39 -21 -75 -38 -78 -37 -17 5 -90 -70 -101 -105 -6 -20 -15 -41 -19 -47 -15 -22 -32 -94 -25 -105 4 -7 23 -18 41 -26 32 -13 36 -12 82 16 27 16 52 30 56 30 4 0 5 -17 2 -37 -8 -52 4 -66 57 -67 35 -1 54 6 88 30 60 43 83 49 104 27 25 -25 44 -25 76 0 37 27 63 66 61 92 -1 13 9 26 28 37 23 13 30 24 30 48 0 17 -5 41 -11 52 -9 17 -6 25 19 50 28 29 30 29 58 14 16 -8 23 -15 17 -16 -19 0 -16 -40 3 -47 18 -7 34 12 34 43 0 12 7 24 15 28 8 3 15 11 15 18 0 9 15 13 43 13 39 0 42 -2 45 -30 2 -25 1 -27 -8 -12 -13 20 -60 23 -78 5 -7 -7 -12 -20 -12 -30 0 -13 8 -18 30 -18 17 0 30 -5 30 -11 0 -6 7 -8 16 -5 8 3 24 1 34 -4 11 -6 21 -6 24 -1 3 5 23 7 44 4 44 -6 68 14 57 47 -5 16 -12 19 -28 14 -19 -6 -20 -5 -9 8 12 15 61 13 72 -2 3 -5 12 -9 20 -10 31 -5 39 0 33 18 -6 15 -4 15 18 -3 17 -14 16 -10 -6 14 -28 30 -74 64 -62 44 3 -4 -14 -8 -37 -9 -39 -1 -43 1 -40 22 2 18 -4 23 -33 29 -19 3 -38 4 -41 1 -3 -3 2 -6 11 -6 22 0 22 -26 1 -34 -22 -9 -24 -8 -18 9 4 9 -3 16 -19 20 -43 11 -81 2 -92 -22 -12 -28 -35 -30 -35 -3 0 25 -11 25 -60 0 -22 -11 -42 -20 -45 -20 -11 0 -4 29 9 37 21 12 -6 73 -32 73 -23 0 -32 18 -32 62 0 22 -11 41 -39 69 -40 40 -70 49 -89 26z m629 -284 c13 -16 12 -17 -3 -5 -11 9 -18 10 -23 2 -3 -5 -11 -10 -17 -10 -7 0 -6 6 2 15 16 19 24 19 41 -2z m-161 -63 c0 -5 -2 -10 -4 -10 -3 0 -8 5 -11 10 -3 6 -1 10 4 10 6 0 11 -4 11 -10z m-641 -14 c10 -12 3 -15 -36 -18 -57 -5 -65 -1 -39 18 25 18 60 18 75 0z m76 -66 c11 -18 -15 -50 -40 -50 -27 0 -34 27 -13 48 14 14 45 16 53 2z" transform="translate(0,90) scale(0.1,-0.1)" stroke="none" fill="#6E2D13"/>

</g>

<g id="2" transform="translate(312.0,0)scale(1,1)">

<path d="M60 404 c0 -10 52 -74 60 -74 4 0 11 11 14 24 3 13 9 31 12 40 5 13 -2 16 -40 16 -25 0 -46 -3 -46 -6z" transform="translate(0,90) scale(0.1,-0.1)" stroke="none" fill="#D6A76A"/>

<path d="M1035 204 c-16 -7 -40 -13 -52 -14 -17 0 -23 -6 -23 -24 0 -25 16 -36 54 -36 31 0 65 39 57 66 -6 19 -8 20 -36 8z" transform="translate(0,90) scale(0.1,-0.1)" stroke="none" fill="#D6A76A"/>

<path d="M615 211 c-6 -5 -21 -11 -34 -13 -34 -4 -52 -56 -25 -75 37 -27 84 7 84 61 0 36 -8 44 -25 27z" transform="translate(0,90) scale(0.1,-0.1)" stroke="none" fill="#D6A76A"/>

<path d="M1172 491 l-24 -6 23 -28 c14 -19 28 -27 40 -24 11 3 19 1 19 -4 0 -5 -12 -9 -26 -9 -41 0 -28 -34 15 -38 30 -3 33 -1 28 18 -4 15 -2 20 8 16 21 -8 26 22 10 55 -9 16 -18 29 -21 29 -2 0 0 -9 5 -19 8 -15 7 -20 -5 -25 -21 -8 -26 -8 -20 3 10 15 -28 38 -52 32z" transform="translate(0,90) scale(0.1,-0.1)" stroke="none" fill="#6E2D13"/>

<path d="M805 621 c-48 -8 -65 -17 -65 -37 0 -18 3 -18 50 6 22 11 44 20 50 20 5 0 10 -9 10 -20 0 -27 23 -25 35 3 16 36 125 37 111 0 -5 -11 -2 -14 10 -9 8 3 18 6 20 6 2 0 4 6 4 14 0 7 -10 16 -22 20 -29 7 -150 6 -203 -3z" transform="translate(0,90) scale(0.1,-0.1)" stroke="none" fill="#B35819"/>

<path d="M288 684 c-3 -2 -2 -24 3 -47 4 -23 8 -45 9 -49 0 -4 -22 -4 -50 -1 -27 3 -50 2 -50 -3 0 -5 13 -24 28 -43 l28 -33 40 21 c95 53 114 65 114 75 0 6 -21 25 -48 42 -61 41 -68 44 -74 38z" transform="translate(0,90) scale(0.1,-0.1)" stroke="none" fill="#D6A76A"/>

<path d="M1074 589 c0 -16 5 -19 24 -14 13 3 33 3 43 0 16 -5 18 -10 8 -21 -13 -16 2 -19 18 -3 8 8 15 4 27 -12 11 -16 12 -25 5 -30 -13 -8 -49 0 -49 11 0 15 -60 17 -73 2 -10 -13 -8 -14 10 -8 16 5 23 2 28 -14 11 -33 -13 -53 -57 -47 -21 3 -41 1 -44 -4 -3 -5 -13 -5 -24 1 -10 5 -26 7 -34 4 -9 -3 -16 -1 -16 5 0 6 -13 11 -30 11 -22 0 -30 5 -30 18 0 10 5 23 12 30 18 18 65 15 78 -5 9 -15 10 -13 8 12 -3 28 -6 30 -45 30 -28 0 -43 -4 -43 -13 0 -7 -7 -15 -15 -18 -8 -4 -15 -16 -15 -28 0 -31 -16 -50 -34 -43 -19 7 -22 47 -3 47 6 1 -1 8 -17 16 -28 15 -30 15 -58 -14 -25 -25 -28 -33 -19 -50 6 -11 11 -35 11 -52 0 -24 -7 -35 -30 -48 -17 -9 -30 -24 -29 -32 3 -31 -2 -41 -38 -78 -21 -21 -34 -34 -29 -30 19 16 26 7 26 -32 0 -22 -3 -40 -7 -40 -14 0 -7 -81 8 -91 43 -27 102 5 125 68 9 27 20 51 24 56 3 4 51 9 106 10 63 2 113 9 137 20 36 15 37 15 38 -4 1 -10 2 -22 3 -26 1 -5 5 -22 10 -39 7 -30 8 -31 48 -24 47 9 73 37 83 87 l6 33 59 -7 c63 -6 139 8 180 34 23 16 23 17 5 24 -11 4 -33 8 -48 8 -50 2 -85 28 -116 89 -17 31 -30 52 -31 45 0 -7 -6 -10 -14 -7 -11 4 -13 0 -9 -16 5 -19 2 -21 -28 -18 -43 4 -56 38 -15 38 14 0 26 4 26 9 0 5 -8 7 -19 4 -12 -3 -26 5 -40 24 l-23 28 24 6 c26 7 62 -17 51 -34 -4 -6 0 -8 11 -4 10 4 20 7 22 7 3 0 -2 13 -10 29 -17 32 -78 89 -110 100 -57 22 -62 22 -62 0z" transform="translate(0,90) scale(0.1,-0.1)" stroke="none" fill="#B35819"/>

<path d="M562 837 c-6 -7 -16 -25 -22 -41 -5 -15 -37 -70 -70 -120 -55 -86 -65 -95 -132 -132 -39 -21 -75 -38 -78 -37 -17 5 -90 -70 -101 -105 -6 -20 -15 -41 -19 -47 -15 -22 -32 -94 -25 -105 4 -7 23 -18 41 -26 32 -13 36 -12 82 16 27 16 52 30 56 30 4 0 5 -17 2 -37 -8 -52 4 -66 57 -67 35 -1 54 6 88 30 60 43 83 49 104 27 25 -25 44 -25 76 0 37 27 63 66 61 92 -1 13 9 26 28 37 23 13 30 24 30 48 0 17 -5 41 -11 52 -9 17 -6 25 19 50 28 29 30 29 58 14 16 -8 23 -15 17 -16 -19 0 -16 -40 3 -47 18 -7 34 12 34 43 0 12 7 24 15 28 8 3 15 11 15 18 0 9 15 13 43 13 39 0 42 -2 45 -30 2 -25 1 -27 -8 -12 -13 20 -60 23 -78 5 -7 -7 -12 -20 -12 -30 0 -13 8 -18 30 -18 17 0 30 -5 30 -11 0 -6 7 -8 16 -5 8 3 24 1 34 -4 11 -6 21 -6 24 -1 3 5 23 7 44 4 44 -6 68 14 57 47 -5 16 -12 19 -28 14 -19 -6 -20 -5 -9 8 12 15 61 13 72 -2 3 -5 12 -9 20 -10 31 -5 39 0 33 18 -6 15 -4 15 18 -3 17 -14 16 -10 -6 14 -28 30 -74 64 -62 44 3 -4 -14 -8 -37 -9 -39 -1 -43 1 -40 22 2 18 -4 23 -33 29 -19 3 -38 4 -41 1 -3 -3 2 -6 11 -6 22 0 22 -26 1 -34 -22 -9 -24 -8 -18 9 4 9 -3 16 -19 20 -43 11 -81 2 -92 -22 -12 -28 -35 -30 -35 -3 0 25 -11 25 -60 0 -22 -11 -42 -20 -45 -20 -11 0 -4 29 9 37 21 12 -6 73 -32 73 -23 0 -32 18 -32 62 0 22 -11 41 -39 69 -40 40 -70 49 -89 26z m629 -284 c13 -16 12 -17 -3 -5 -11 9 -18 10 -23 2 -3 -5 -11 -10 -17 -10 -7 0 -6 6 2 15 16 19 24 19 41 -2z m-161 -63 c0 -5 -2 -10 -4 -10 -3 0 -8 5 -11 10 -3 6 -1 10 4 10 6 0 11 -4 11 -10z m-641 -14 c10 -12 3 -15 -36 -18 -57 -5 -65 -1 -39 18 25 18 60 18 75 0z m76 -66 c11 -18 -15 -50 -40 -50 -27 0 -34 27 -13 48 14 14 45 16 53 2z" transform="translate(0,90) scale(0.1,-0.1)" stroke="none" fill="#6E2D13"/>

</g>

<g id="3" transform="translate(468.0,0)scale(1,1)">

<path d="M60 404 c0 -10 52 -74 60 -74 4 0 11 11 14 24 3 13 9 31 12 40 5 13 -2 16 -40 16 -25 0 -46 -3 -46 -6z" transform="translate(0,90) scale(0.1,-0.1)" stroke="none" fill="#D6A76A"/>

<path d="M1035 204 c-16 -7 -40 -13 -52 -14 -17 0 -23 -6 -23 -24 0 -25 16 -36 54 -36 31 0 65 39 57 66 -6 19 -8 20 -36 8z" transform="translate(0,90) scale(0.1,-0.1)" stroke="none" fill="#D6A76A"/>

<path d="M615 211 c-6 -5 -21 -11 -34 -13 -34 -4 -52 -56 -25 -75 37 -27 84 7 84 61 0 36 -8 44 -25 27z" transform="translate(0,90) scale(0.1,-0.1)" stroke="none" fill="#D6A76A"/>

<path d="M1172 491 l-24 -6 23 -28 c14 -19 28 -27 40 -24 11 3 19 1 19 -4 0 -5 -12 -9 -26 -9 -41 0 -28 -34 15 -38 30 -3 33 -1 28 18 -4 15 -2 20 8 16 21 -8 26 22 10 55 -9 16 -18 29 -21 29 -2 0 0 -9 5 -19 8 -15 7 -20 -5 -25 -21 -8 -26 -8 -20 3 10 15 -28 38 -52 32z" transform="translate(0,90) scale(0.1,-0.1)" stroke="none" fill="#6E2D13"/>

<path d="M805 621 c-48 -8 -65 -17 -65 -37 0 -18 3 -18 50 6 22 11 44 20 50 20 5 0 10 -9 10 -20 0 -27 23 -25 35 3 16 36 125 37 111 0 -5 -11 -2 -14 10 -9 8 3 18 6 20 6 2 0 4 6 4 14 0 7 -10 16 -22 20 -29 7 -150 6 -203 -3z" transform="translate(0,90) scale(0.1,-0.1)" stroke="none" fill="#B35819"/>

<path d="M288 684 c-3 -2 -2 -24 3 -47 4 -23 8 -45 9 -49 0 -4 -22 -4 -50 -1 -27 3 -50 2 -50 -3 0 -5 13 -24 28 -43 l28 -33 40 21 c95 53 114 65 114 75 0 6 -21 25 -48 42 -61 41 -68 44 -74 38z" transform="translate(0,90) scale(0.1,-0.1)" stroke="none" fill="#D6A76A"/>

<path d="M1074 589 c0 -16 5 -19 24 -14 13 3 33 3 43 0 16 -5 18 -10 8 -21 -13 -16 2 -19 18 -3 8 8 15 4 27 -12 11 -16 12 -25 5 -30 -13 -8 -49 0 -49 11 0 15 -60 17 -73 2 -10 -13 -8 -14 10 -8 16 5 23 2 28 -14 11 -33 -13 -53 -57 -47 -21 3 -41 1 -44 -4 -3 -5 -13 -5 -24 1 -10 5 -26 7 -34 4 -9 -3 -16 -1 -16 5 0 6 -13 11 -30 11 -22 0 -30 5 -30 18 0 10 5 23 12 30 18 18 65 15 78 -5 9 -15 10 -13 8 12 -3 28 -6 30 -45 30 -28 0 -43 -4 -43 -13 0 -7 -7 -15 -15 -18 -8 -4 -15 -16 -15 -28 0 -31 -16 -50 -34 -43 -19 7 -22 47 -3 47 6 1 -1 8 -17 16 -28 15 -30 15 -58 -14 -25 -25 -28 -33 -19 -50 6 -11 11 -35 11 -52 0 -24 -7 -35 -30 -48 -17 -9 -30 -24 -29 -32 3 -31 -2 -41 -38 -78 -21 -21 -34 -34 -29 -30 19 16 26 7 26 -32 0 -22 -3 -40 -7 -40 -14 0 -7 -81 8 -91 43 -27 102 5 125 68 9 27 20 51 24 56 3 4 51 9 106 10 63 2 113 9 137 20 36 15 37 15 38 -4 1 -10 2 -22 3 -26 1 -5 5 -22 10 -39 7 -30 8 -31 48 -24 47 9 73 37 83 87 l6 33 59 -7 c63 -6 139 8 180 34 23 16 23 17 5 24 -11 4 -33 8 -48 8 -50 2 -85 28 -116 89 -17 31 -30 52 -31 45 0 -7 -6 -10 -14 -7 -11 4 -13 0 -9 -16 5 -19 2 -21 -28 -18 -43 4 -56 38 -15 38 14 0 26 4 26 9 0 5 -8 7 -19 4 -12 -3 -26 5 -40 24 l-23 28 24 6 c26 7 62 -17 51 -34 -4 -6 0 -8 11 -4 10 4 20 7 22 7 3 0 -2 13 -10 29 -17 32 -78 89 -110 100 -57 22 -62 22 -62 0z" transform="translate(0,90) scale(0.1,-0.1)" stroke="none" fill="#B35819"/>

<path d="M562 837 c-6 -7 -16 -25 -22 -41 -5 -15 -37 -70 -70 -120 -55 -86 -65 -95 -132 -132 -39 -21 -75 -38 -78 -37 -17 5 -90 -70 -101 -105 -6 -20 -15 -41 -19 -47 -15 -22 -32 -94 -25 -105 4 -7 23 -18 41 -26 32 -13 36 -12 82 16 27 16 52 30 56 30 4 0 5 -17 2 -37 -8 -52 4 -66 57 -67 35 -1 54 6 88 30 60 43 83 49 104 27 25 -25 44 -25 76 0 37 27 63 66 61 92 -1 13 9 26 28 37 23 13 30 24 30 48 0 17 -5 41 -11 52 -9 17 -6 25 19 50 28 29 30 29 58 14 16 -8 23 -15 17 -16 -19 0 -16 -40 3 -47 18 -7 34 12 34 43 0 12 7 24 15 28 8 3 15 11 15 18 0 9 15 13 43 13 39 0 42 -2 45 -30 2 -25 1 -27 -8 -12 -13 20 -60 23 -78 5 -7 -7 -12 -20 -12 -30 0 -13 8 -18 30 -18 17 0 30 -5 30 -11 0 -6 7 -8 16 -5 8 3 24 1 34 -4 11 -6 21 -6 24 -1 3 5 23 7 44 4 44 -6 68 14 57 47 -5 16 -12 19 -28 14 -19 -6 -20 -5 -9 8 12 15 61 13 72 -2 3 -5 12 -9 20 -10 31 -5 39 0 33 18 -6 15 -4 15 18 -3 17 -14 16 -10 -6 14 -28 30 -74 64 -62 44 3 -4 -14 -8 -37 -9 -39 -1 -43 1 -40 22 2 18 -4 23 -33 29 -19 3 -38 4 -41 1 -3 -3 2 -6 11 -6 22 0 22 -26 1 -34 -22 -9 -24 -8 -18 9 4 9 -3 16 -19 20 -43 11 -81 2 -92 -22 -12 -28 -35 -30 -35 -3 0 25 -11 25 -60 0 -22 -11 -42 -20 -45 -20 -11 0 -4 29 9 37 21 12 -6 73 -32 73 -23 0 -32 18 -32 62 0 22 -11 41 -39 69 -40 40 -70 49 -89 26z m629 -284 c13 -16 12 -17 -3 -5 -11 9 -18 10 -23 2 -3 -5 -11 -10 -17 -10 -7 0 -6 6 2 15 16 19 24 19 41 -2z m-161 -63 c0 -5 -2 -10 -4 -10 -3 0 -8 5 -11 10 -3 6 -1 10 4 10 6 0 11 -4 11 -10z m-641 -14 c10 -12 3 -15 -36 -18 -57 -5 -65 -1 -39 18 25 18 60 18 75 0z m76 -66 c11 -18 -15 -50 -40 -50 -27 0 -34 27 -13 48 14 14 45 16 53 2z" transform="translate(0,90) scale(0.1,-0.1)" stroke="none" fill="#6E2D13"/>

</g>

<g id="4" transform="translate(624.0,0)scale(1,1)">

<path d="M60 404 c0 -10 52 -74 60 -74 4 0 11 11 14 24 3 13 9 31 12 40 5 13 -2 16 -40 16 -25 0 -46 -3 -46 -6z" transform="translate(0,90) scale(0.1,-0.1)" stroke="none" fill="#D6A76A"/>

<path d="M1035 204 c-16 -7 -40 -13 -52 -14 -17 0 -23 -6 -23 -24 0 -25 16 -36 54 -36 31 0 65 39 57 66 -6 19 -8 20 -36 8z" transform="translate(0,90) scale(0.1,-0.1)" stroke="none" fill="#D6A76A"/>

<path d="M615 211 c-6 -5 -21 -11 -34 -13 -34 -4 -52 -56 -25 -75 37 -27 84 7 84 61 0 36 -8 44 -25 27z" transform="translate(0,90) scale(0.1,-0.1)" stroke="none" fill="#D6A76A"/>

<path d="M1172 491 l-24 -6 23 -28 c14 -19 28 -27 40 -24 11 3 19 1 19 -4 0 -5 -12 -9 -26 -9 -41 0 -28 -34 15 -38 30 -3 33 -1 28 18 -4 15 -2 20 8 16 21 -8 26 22 10 55 -9 16 -18 29 -21 29 -2 0 0 -9 5 -19 8 -15 7 -20 -5 -25 -21 -8 -26 -8 -20 3 10 15 -28 38 -52 32z" transform="translate(0,90) scale(0.1,-0.1)" stroke="none" fill="#6E2D13"/>

<path d="M805 621 c-48 -8 -65 -17 -65 -37 0 -18 3 -18 50 6 22 11 44 20 50 20 5 0 10 -9 10 -20 0 -27 23 -25 35 3 16 36 125 37 111 0 -5 -11 -2 -14 10 -9 8 3 18 6 20 6 2 0 4 6 4 14 0 7 -10 16 -22 20 -29 7 -150 6 -203 -3z" transform="translate(0,90) scale(0.1,-0.1)" stroke="none" fill="#B35819"/>

<path d="M288 684 c-3 -2 -2 -24 3 -47 4 -23 8 -45 9 -49 0 -4 -22 -4 -50 -1 -27 3 -50 2 -50 -3 0 -5 13 -24 28 -43 l28 -33 40 21 c95 53 114 65 114 75 0 6 -21 25 -48 42 -61 41 -68 44 -74 38z" transform="translate(0,90) scale(0.1,-0.1)" stroke="none" fill="#D6A76A"/>

<path d="M1074 589 c0 -16 5 -19 24 -14 13 3 33 3 43 0 16 -5 18 -10 8 -21 -13 -16 2 -19 18 -3 8 8 15 4 27 -12 11 -16 12 -25 5 -30 -13 -8 -49 0 -49 11 0 15 -60 17 -73 2 -10 -13 -8 -14 10 -8 16 5 23 2 28 -14 11 -33 -13 -53 -57 -47 -21 3 -41 1 -44 -4 -3 -5 -13 -5 -24 1 -10 5 -26 7 -34 4 -9 -3 -16 -1 -16 5 0 6 -13 11 -30 11 -22 0 -30 5 -30 18 0 10 5 23 12 30 18 18 65 15 78 -5 9 -15 10 -13 8 12 -3 28 -6 30 -45 30 -28 0 -43 -4 -43 -13 0 -7 -7 -15 -15 -18 -8 -4 -15 -16 -15 -28 0 -31 -16 -50 -34 -43 -19 7 -22 47 -3 47 6 1 -1 8 -17 16 -28 15 -30 15 -58 -14 -25 -25 -28 -33 -19 -50 6 -11 11 -35 11 -52 0 -24 -7 -35 -30 -48 -17 -9 -30 -24 -29 -32 3 -31 -2 -41 -38 -78 -21 -21 -34 -34 -29 -30 19 16 26 7 26 -32 0 -22 -3 -40 -7 -40 -14 0 -7 -81 8 -91 43 -27 102 5 125 68 9 27 20 51 24 56 3 4 51 9 106 10 63 2 113 9 137 20 36 15 37 15 38 -4 1 -10 2 -22 3 -26 1 -5 5 -22 10 -39 7 -30 8 -31 48 -24 47 9 73 37 83 87 l6 33 59 -7 c63 -6 139 8 180 34 23 16 23 17 5 24 -11 4 -33 8 -48 8 -50 2 -85 28 -116 89 -17 31 -30 52 -31 45 0 -7 -6 -10 -14 -7 -11 4 -13 0 -9 -16 5 -19 2 -21 -28 -18 -43 4 -56 38 -15 38 14 0 26 4 26 9 0 5 -8 7 -19 4 -12 -3 -26 5 -40 24 l-23 28 24 6 c26 7 62 -17 51 -34 -4 -6 0 -8 11 -4 10 4 20 7 22 7 3 0 -2 13 -10 29 -17 32 -78 89 -110 100 -57 22 -62 22 -62 0z" transform="translate(0,90) scale(0.1,-0.1)" stroke="none" fill="#B35819"/>

<path d="M562 837 c-6 -7 -16 -25 -22 -41 -5 -15 -37 -70 -70 -120 -55 -86 -65 -95 -132 -132 -39 -21 -75 -38 -78 -37 -17 5 -90 -70 -101 -105 -6 -20 -15 -41 -19 -47 -15 -22 -32 -94 -25 -105 4 -7 23 -18 41 -26 32 -13 36 -12 82 16 27 16 52 30 56 30 4 0 5 -17 2 -37 -8 -52 4 -66 57 -67 35 -1 54 6 88 30 60 43 83 49 104 27 25 -25 44 -25 76 0 37 27 63 66 61 92 -1 13 9 26 28 37 23 13 30 24 30 48 0 17 -5 41 -11 52 -9 17 -6 25 19 50 28 29 30 29 58 14 16 -8 23 -15 17 -16 -19 0 -16 -40 3 -47 18 -7 34 12 34 43 0 12 7 24 15 28 8 3 15 11 15 18 0 9 15 13 43 13 39 0 42 -2 45 -30 2 -25 1 -27 -8 -12 -13 20 -60 23 -78 5 -7 -7 -12 -20 -12 -30 0 -13 8 -18 30 -18 17 0 30 -5 30 -11 0 -6 7 -8 16 -5 8 3 24 1 34 -4 11 -6 21 -6 24 -1 3 5 23 7 44 4 44 -6 68 14 57 47 -5 16 -12 19 -28 14 -19 -6 -20 -5 -9 8 12 15 61 13 72 -2 3 -5 12 -9 20 -10 31 -5 39 0 33 18 -6 15 -4 15 18 -3 17 -14 16 -10 -6 14 -28 30 -74 64 -62 44 3 -4 -14 -8 -37 -9 -39 -1 -43 1 -40 22 2 18 -4 23 -33 29 -19 3 -38 4 -41 1 -3 -3 2 -6 11 -6 22 0 22 -26 1 -34 -22 -9 -24 -8 -18 9 4 9 -3 16 -19 20 -43 11 -81 2 -92 -22 -12 -28 -35 -30 -35 -3 0 25 -11 25 -60 0 -22 -11 -42 -20 -45 -20 -11 0 -4 29 9 37 21 12 -6 73 -32 73 -23 0 -32 18 -32 62 0 22 -11 41 -39 69 -40 40 -70 49 -89 26z m629 -284 c13 -16 12 -17 -3 -5 -11 9 -18 10 -23 2 -3 -5 -11 -10 -17 -10 -7 0 -6 6 2 15 16 19 24 19 41 -2z m-161 -63 c0 -5 -2 -10 -4 -10 -3 0 -8 5 -11 10 -3 6 -1 10 4 10 6 0 11 -4 11 -10z m-641 -14 c10 -12 3 -15 -36 -18 -57 -5 -65 -1 -39 18 25 18 60 18 75 0z m76 -66 c11 -18 -15 -50 -40 -50 -27 0 -34 27 -13 48 14 14 45 16 53 2z" transform="translate(0,90) scale(0.1,-0.1)" stroke="none" fill="#6E2D13"/>

</g>

</g>
<g id="row3" transform="translate(-58,270.0)">
<g id="0" transform="translate(0.0,0)scale(1,1)">

<path d="M60 404 c0 -10 52 -74 60 -74 4 0 11 11 14 24 3 13 9 31 12 40 5 13 -2 16 -40 16 -25 0 -46 -3 -46 -6z" transform="translate(0,90) scale(0.1,-0.1)" stroke="none" fill="#D6A76A"/>

<path d="M1035 204 c-16 -7 -40 -13 -52 -14 -17 0 -23 -6 -23 -24 0 -25 16 -36 54 -36 31 0 65 39 57 66 -6 19 -8 20 -36 8z" transform="translate(0,90) scale(0.1,-0.1)" stroke="none" fill="#D6A76A"/>

<path d="M615 211 c-6 -5 -21 -11 -34 -13 -34 -4 -52 -56 -25 -75 37 -27 84 7 84 61 0 36 -8 44 -25 27z" transform="translate(0,90) scale(0.1,-0.1)" stroke="none" fill="#D6A76A"/>

<path d="M1172 491 l-24 -6 23 -28 c14 -19 28 -27 40 -24 11 3 19 1 19 -4 0 -5 -12 -9 -26 -9 -41 0 -28 -34 15 -38 30 -3 33 -1 28 18 -4 15 -2 20 8 16 21 -8 26 22 10 55 -9 16 -18 29 -21 29 -2 0 0 -9 5 -19 8 -15 7 -20 -5 -25 -21 -8 -26 -8 -20 3 10 15 -28 38 -52 32z" transform="translate(0,90) scale(0.1,-0.1)" stroke="none" fill="#6E2D13"/>

<path d="M805 621 c-48 -8 -65 -17 -65 -37 0 -18 3 -18 50 6 22 11 44 20 50 20 5 0 10 -9 10 -20 0 -27 23 -25 35 3 16 36 125 37 111 0 -5 -11 -2 -14 10 -9 8 3 18 6 20 6 2 0 4 6 4 14 0 7 -10 16 -22 20 -29 7 -150 6 -203 -3z" transform="translate(0,90) scale(0.1,-0.1)" stroke="none" fill="#B35819"/>

<path d="M288 684 c-3 -2 -2 -24 3 -47 4 -23 8 -45 9 -49 0 -4 -22 -4 -50 -1 -27 3 -50 2 -50 -3 0 -5 13 -24 28 -43 l28 -33 40 21 c95 53 114 65 114 75 0 6 -21 25 -48 42 -61 41 -68 44 -74 38z" transform="translate(0,90) scale(0.1,-0.1)" stroke="none" fill="#D6A76A"/>

<path d="M1074 589 c0 -16 5 -19 24 -14 13 3 33 3 43 0 16 -5 18 -10 8 -21 -13 -16 2 -19 18 -3 8 8 15 4 27 -12 11 -16 12 -25 5 -30 -13 -8 -49 0 -49 11 0 15 -60 17 -73 2 -10 -13 -8 -14 10 -8 16 5 23 2 28 -14 11 -33 -13 -53 -57 -47 -21 3 -41 1 -44 -4 -3 -5 -13 -5 -24 1 -10 5 -26 7 -34 4 -9 -3 -16 -1 -16 5 0 6 -13 11 -30 11 -22 0 -30 5 -30 18 0 10 5 23 12 30 18 18 65 15 78 -5 9 -15 10 -13 8 12 -3 28 -6 30 -45 30 -28 0 -43 -4 -43 -13 0 -7 -7 -15 -15 -18 -8 -4 -15 -16 -15 -28 0 -31 -16 -50 -34 -43 -19 7 -22 47 -3 47 6 1 -1 8 -17 16 -28 15 -30 15 -58 -14 -25 -25 -28 -33 -19 -50 6 -11 11 -35 11 -52 0 -24 -7 -35 -30 -48 -17 -9 -30 -24 -29 -32 3 -31 -2 -41 -38 -78 -21 -21 -34 -34 -29 -30 19 16 26 7 26 -32 0 -22 -3 -40 -7 -40 -14 0 -7 -81 8 -91 43 -27 102 5 125 68 9 27 20 51 24 56 3 4 51 9 106 10 63 2 113 9 137 20 36 15 37 15 38 -4 1 -10 2 -22 3 -26 1 -5 5 -22 10 -39 7 -30 8 -31 48 -24 47 9 73 37 83 87 l6 33 59 -7 c63 -6 139 8 180 34 23 16 23 17 5 24 -11 4 -33 8 -48 8 -50 2 -85 28 -116 89 -17 31 -30 52 -31 45 0 -7 -6 -10 -14 -7 -11 4 -13 0 -9 -16 5 -19 2 -21 -28 -18 -43 4 -56 38 -15 38 14 0 26 4 26 9 0 5 -8 7 -19 4 -12 -3 -26 5 -40 24 l-23 28 24 6 c26 7 62 -17 51 -34 -4 -6 0 -8 11 -4 10 4 20 7 22 7 3 0 -2 13 -10 29 -17 32 -78 89 -110 100 -57 22 -62 22 -62 0z" transform="translate(0,90) scale(0.1,-0.1)" stroke="none" fill="#B35819"/>

<path d="M562 837 c-6 -7 -16 -25 -22 -41 -5 -15 -37 -70 -70 -120 -55 -86 -65 -95 -132 -132 -39 -21 -75 -38 -78 -37 -17 5 -90 -70 -101 -105 -6 -20 -15 -41 -19 -47 -15 -22 -32 -94 -25 -105 4 -7 23 -18 41 -26 32 -13 36 -12 82 16 27 16 52 30 56 30 4 0 5 -17 2 -37 -8 -52 4 -66 57 -67 35 -1 54 6 88 30 60 43 83 49 104 27 25 -25 44 -25 76 0 37 27 63 66 61 92 -1 13 9 26 28 37 23 13 30 24 30 48 0 17 -5 41 -11 52 -9 17 -6 25 19 50 28 29 30 29 58 14 16 -8 23 -15 17 -16 -19 0 -16 -40 3 -47 18 -7 34 12 34 43 0 12 7 24 15 28 8 3 15 11 15 18 0 9 15 13 43 13 39 0 42 -2 45 -30 2 -25 1 -27 -8 -12 -13 20 -60 23 -78 5 -7 -7 -12 -20 -12 -30 0 -13 8 -18 30 -18 17 0 30 -5 30 -11 0 -6 7 -8 16 -5 8 3 24 1 34 -4 11 -6 21 -6 24 -1 3 5 23 7 44 4 44 -6 68 14 57 47 -5 16 -12 19 -28 14 -19 -6 -20 -5 -9 8 12 15 61 13 72 -2 3 -5 12 -9 20 -10 31 -5 39 0 33 18 -6 15 -4 15 18 -3 17 -14 16 -10 -6 14 -28 30 -74 64 -62 44 3 -4 -14 -8 -37 -9 -39 -1 -43 1 -40 22 2 18 -4 23 -33 29 -19 3 -38 4 -41 1 -3 -3 2 -6 11 -6 22 0 22 -26 1 -34 -22 -9 -24 -8 -18 9 4 9 -3 16 -19 20 -43 11 -81 2 -92 -22 -12 -28 -35 -30 -35 -3 0 25 -11 25 -60 0 -22 -11 -42 -20 -45 -20 -11 0 -4 29 9 37 21 12 -6 73 -32 73 -23 0 -32 18 -32 62 0 22 -11 41 -39 69 -40 40 -70 49 -89 26z m629 -284 c13 -16 12 -17 -3 -5 -11 9 -18 10 -23 2 -3 -5 -11 -10 -17 -10 -7 0 -6 6 2 15 16 19 24 19 41 -2z m-161 -63 c0 -5 -2 -10 -4 -10 -3 0 -8 5 -11 10 -3 6 -1 10 4 10 6 0 11 -4 11 -10z m-641 -14 c10 -12 3 -15 -36 -18 -57 -5 -65 -1 -39 18 25 18 60 18 75 0z m76 -66 c11 -18 -15 -50 -40 -50 -27 0 -34 27 -13 48 14 14 45 16 53 2z" transform="translate(0,90) scale(0.1,-0.1)" stroke="none" fill="#6E2D13"/>

</g>

<g id="1" transform="translate(156.0,0)scale(1,1)">

<path d="M60 404 c0 -10 52 -74 60 -74 4 0 11 11 14 24 3 13 9 31 12 40 5 13 -2 16 -40 16 -25 0 -46 -3 -46 -6z" transform="translate(0,90) scale(0.1,-0.1)" stroke="none" fill="#D6A76A"/>

<path d="M1035 204 c-16 -7 -40 -13 -52 -14 -17 0 -23 -6 -23 -24 0 -25 16 -36 54 -36 31 0 65 39 57 66 -6 19 -8 20 -36 8z" transform="translate(0,90) scale(0.1,-0.1)" stroke="none" fill="#D6A76A"/>

<path d="M615 211 c-6 -5 -21 -11 -34 -13 -34 -4 -52 -56 -25 -75 37 -27 84 7 84 61 0 36 -8 44 -25 27z" transform="translate(0,90) scale(0.1,-0.1)" stroke="none" fill="#D6A76A"/>

<path d="M1172 491 l-24 -6 23 -28 c14 -19 28 -27 40 -24 11 3 19 1 19 -4 0 -5 -12 -9 -26 -9 -41 0 -28 -34 15 -38 30 -3 33 -1 28 18 -4 15 -2 20 8 16 21 -8 26 22 10 55 -9 16 -18 29 -21 29 -2 0 0 -9 5 -19 8 -15 7 -20 -5 -25 -21 -8 -26 -8 -20 3 10 15 -28 38 -52 32z" transform="translate(0,90) scale(0.1,-0.1)" stroke="none" fill="#6E2D13"/>

<path d="M805 621 c-48 -8 -65 -17 -65 -37 0 -18 3 -18 50 6 22 11 44 20 50 20 5 0 10 -9 10 -20 0 -27 23 -25 35 3 16 36 125 37 111 0 -5 -11 -2 -14 10 -9 8 3 18 6 20 6 2 0 4 6 4 14 0 7 -10 16 -22 20 -29 7 -150 6 -203 -3z" transform="translate(0,90) scale(0.1,-0.1)" stroke="none" fill="#B35819"/>

<path d="M288 684 c-3 -2 -2 -24 3 -47 4 -23 8 -45 9 -49 0 -4 -22 -4 -50 -1 -27 3 -50 2 -50 -3 0 -5 13 -24 28 -43 l28 -33 40 21 c95 53 114 65 114 75 0 6 -21 25 -48 42 -61 41 -68 44 -74 38z" transform="translate(0,90) scale(0.1,-0.1)" stroke="none" fill="#D6A76A"/>

<path d="M1074 589 c0 -16 5 -19 24 -14 13 3 33 3 43 0 16 -5 18 -10 8 -21 -13 -16 2 -19 18 -3 8 8 15 4 27 -12 11 -16 12 -25 5 -30 -13 -8 -49 0 -49 11 0 15 -60 17 -73 2 -10 -13 -8 -14 10 -8 16 5 23 2 28 -14 11 -33 -13 -53 -57 -47 -21 3 -41 1 -44 -4 -3 -5 -13 -5 -24 1 -10 5 -26 7 -34 4 -9 -3 -16 -1 -16 5 0 6 -13 11 -30 11 -22 0 -30 5 -30 18 0 10 5 23 12 30 18 18 65 15 78 -5 9 -15 10 -13 8 12 -3 28 -6 30 -45 30 -28 0 -43 -4 -43 -13 0 -7 -7 -15 -15 -18 -8 -4 -15 -16 -15 -28 0 -31 -16 -50 -34 -43 -19 7 -22 47 -3 47 6 1 -1 8 -17 16 -28 15 -30 15 -58 -14 -25 -25 -28 -33 -19 -50 6 -11 11 -35 11 -52 0 -24 -7 -35 -30 -48 -17 -9 -30 -24 -29 -32 3 -31 -2 -41 -38 -78 -21 -21 -34 -34 -29 -30 19 16 26 7 26 -32 0 -22 -3 -40 -7 -40 -14 0 -7 -81 8 -91 43 -27 102 5 125 68 9 27 20 51 24 56 3 4 51 9 106 10 63 2 113 9 137 20 36 15 37 15 38 -4 1 -10 2 -22 3 -26 1 -5 5 -22 10 -39 7 -30 8 -31 48 -24 47 9 73 37 83 87 l6 33 59 -7 c63 -6 139 8 180 34 23 16 23 17 5 24 -11 4 -33 8 -48 8 -50 2 -85 28 -116 89 -17 31 -30 52 -31 45 0 -7 -6 -10 -14 -7 -11 4 -13 0 -9 -16 5 -19 2 -21 -28 -18 -43 4 -56 38 -15 38 14 0 26 4 26 9 0 5 -8 7 -19 4 -12 -3 -26 5 -40 24 l-23 28 24 6 c26 7 62 -17 51 -34 -4 -6 0 -8 11 -4 10 4 20 7 22 7 3 0 -2 13 -10 29 -17 32 -78 89 -110 100 -57 22 -62 22 -62 0z" transform="translate(0,90) scale(0.1,-0.1)" stroke="none" fill="#B35819"/>

<path d="M562 837 c-6 -7 -16 -25 -22 -41 -5 -15 -37 -70 -70 -120 -55 -86 -65 -95 -132 -132 -39 -21 -75 -38 -78 -37 -17 5 -90 -70 -101 -105 -6 -20 -15 -41 -19 -47 -15 -22 -32 -94 -25 -105 4 -7 23 -18 41 -26 32 -13 36 -12 82 16 27 16 52 30 56 30 4 0 5 -17 2 -37 -8 -52 4 -66 57 -67 35 -1 54 6 88 30 60 43 83 49 104 27 25 -25 44 -25 76 0 37 27 63 66 61 92 -1 13 9 26 28 37 23 13 30 24 30 48 0 17 -5 41 -11 52 -9 17 -6 25 19 50 28 29 30 29 58 14 16 -8 23 -15 17 -16 -19 0 -16 -40 3 -47 18 -7 34 12 34 43 0 12 7 24 15 28 8 3 15 11 15 18 0 9 15 13 43 13 39 0 42 -2 45 -30 2 -25 1 -27 -8 -12 -13 20 -60 23 -78 5 -7 -7 -12 -20 -12 -30 0 -13 8 -18 30 -18 17 0 30 -5 30 -11 0 -6 7 -8 16 -5 8 3 24 1 34 -4 11 -6 21 -6 24 -1 3 5 23 7 44 4 44 -6 68 14 57 47 -5 16 -12 19 -28 14 -19 -6 -20 -5 -9 8 12 15 61 13 72 -2 3 -5 12 -9 20 -10 31 -5 39 0 33 18 -6 15 -4 15 18 -3 17 -14 16 -10 -6 14 -28 30 -74 64 -62 44 3 -4 -14 -8 -37 -9 -39 -1 -43 1 -40 22 2 18 -4 23 -33 29 -19 3 -38 4 -41 1 -3 -3 2 -6 11 -6 22 0 22 -26 1 -34 -22 -9 -24 -8 -18 9 4 9 -3 16 -19 20 -43 11 -81 2 -92 -22 -12 -28 -35 -30 -35 -3 0 25 -11 25 -60 0 -22 -11 -42 -20 -45 -20 -11 0 -4 29 9 37 21 12 -6 73 -32 73 -23 0 -32 18 -32 62 0 22 -11 41 -39 69 -40 40 -70 49 -89 26z m629 -284 c13 -16 12 -17 -3 -5 -11 9 -18 10 -23 2 -3 -5 -11 -10 -17 -10 -7 0 -6 6 2 15 16 19 24 19 41 -2z m-161 -63 c0 -5 -2 -10 -4 -10 -3 0 -8 5 -11 10 -3 6 -1 10 4 10 6 0 11 -4 11 -10z m-641 -14 c10 -12 3 -15 -36 -18 -57 -5 -65 -1 -39 18 25 18 60 18 75 0z m76 -66 c11 -18 -15 -50 -40 -50 -27 0 -34 27 -13 48 14 14 45 16 53 2z" transform="translate(0,90) scale(0.1,-0.1)" stroke="none" fill="#6E2D13"/>

</g>

<g id="2" transform="translate(312.0,0)scale(1,1)">

<path d="M60 404 c0 -10 52 -74 60 -74 4 0 11 11 14 24 3 13 9 31 12 40 5 13 -2 16 -40 16 -25 0 -46 -3 -46 -6z" transform="translate(0,90) scale(0.1,-0.1)" stroke="none" fill="#D6A76A"/>

<path d="M1035 204 c-16 -7 -40 -13 -52 -14 -17 0 -23 -6 -23 -24 0 -25 16 -36 54 -36 31 0 65 39 57 66 -6 19 -8 20 -36 8z" transform="translate(0,90) scale(0.1,-0.1)" stroke="none" fill="#D6A76A"/>

<path d="M615 211 c-6 -5 -21 -11 -34 -13 -34 -4 -52 -56 -25 -75 37 -27 84 7 84 61 0 36 -8 44 -25 27z" transform="translate(0,90) scale(0.1,-0.1)" stroke="none" fill="#D6A76A"/>

<path d="M1172 491 l-24 -6 23 -28 c14 -19 28 -27 40 -24 11 3 19 1 19 -4 0 -5 -12 -9 -26 -9 -41 0 -28 -34 15 -38 30 -3 33 -1 28 18 -4 15 -2 20 8 16 21 -8 26 22 10 55 -9 16 -18 29 -21 29 -2 0 0 -9 5 -19 8 -15 7 -20 -5 -25 -21 -8 -26 -8 -20 3 10 15 -28 38 -52 32z" transform="translate(0,90) scale(0.1,-0.1)" stroke="none" fill="#6E2D13"/>

<path d="M805 621 c-48 -8 -65 -17 -65 -37 0 -18 3 -18 50 6 22 11 44 20 50 20 5 0 10 -9 10 -20 0 -27 23 -25 35 3 16 36 125 37 111 0 -5 -11 -2 -14 10 -9 8 3 18 6 20 6 2 0 4 6 4 14 0 7 -10 16 -22 20 -29 7 -150 6 -203 -3z" transform="translate(0,90) scale(0.1,-0.1)" stroke="none" fill="#B35819"/>

<path d="M288 684 c-3 -2 -2 -24 3 -47 4 -23 8 -45 9 -49 0 -4 -22 -4 -50 -1 -27 3 -50 2 -50 -3 0 -5 13 -24 28 -43 l28 -33 40 21 c95 53 114 65 114 75 0 6 -21 25 -48 42 -61 41 -68 44 -74 38z" transform="translate(0,90) scale(0.1,-0.1)" stroke="none" fill="#D6A76A"/>

<path d="M1074 589 c0 -16 5 -19 24 -14 13 3 33 3 43 0 16 -5 18 -10 8 -21 -13 -16 2 -19 18 -3 8 8 15 4 27 -12 11 -16 12 -25 5 -30 -13 -8 -49 0 -49 11 0 15 -60 17 -73 2 -10 -13 -8 -14 10 -8 16 5 23 2 28 -14 11 -33 -13 -53 -57 -47 -21 3 -41 1 -44 -4 -3 -5 -13 -5 -24 1 -10 5 -26 7 -34 4 -9 -3 -16 -1 -16 5 0 6 -13 11 -30 11 -22 0 -30 5 -30 18 0 10 5 23 12 30 18 18 65 15 78 -5 9 -15 10 -13 8 12 -3 28 -6 30 -45 30 -28 0 -43 -4 -43 -13 0 -7 -7 -15 -15 -18 -8 -4 -15 -16 -15 -28 0 -31 -16 -50 -34 -43 -19 7 -22 47 -3 47 6 1 -1 8 -17 16 -28 15 -30 15 -58 -14 -25 -25 -28 -33 -19 -50 6 -11 11 -35 11 -52 0 -24 -7 -35 -30 -48 -17 -9 -30 -24 -29 -32 3 -31 -2 -41 -38 -78 -21 -21 -34 -34 -29 -30 19 16 26 7 26 -32 0 -22 -3 -40 -7 -40 -14 0 -7 -81 8 -91 43 -27 102 5 125 68 9 27 20 51 24 56 3 4 51 9 106 10 63 2 113 9 137 20 36 15 37 15 38 -4 1 -10 2 -22 3 -26 1 -5 5 -22 10 -39 7 -30 8 -31 48 -24 47 9 73 37 83 87 l6 33 59 -7 c63 -6 139 8 180 34 23 16 23 17 5 24 -11 4 -33 8 -48 8 -50 2 -85 28 -116 89 -17 31 -30 52 -31 45 0 -7 -6 -10 -14 -7 -11 4 -13 0 -9 -16 5 -19 2 -21 -28 -18 -43 4 -56 38 -15 38 14 0 26 4 26 9 0 5 -8 7 -19 4 -12 -3 -26 5 -40 24 l-23 28 24 6 c26 7 62 -17 51 -34 -4 -6 0 -8 11 -4 10 4 20 7 22 7 3 0 -2 13 -10 29 -17 32 -78 89 -110 100 -57 22 -62 22 -62 0z" transform="translate(0,90) scale(0.1,-0.1)" stroke="none" fill="#B35819"/>

<path d="M562 837 c-6 -7 -16 -25 -22 -41 -5 -15 -37 -70 -70 -120 -55 -86 -65 -95 -132 -132 -39 -21 -75 -38 -78 -37 -17 5 -90 -70 -101 -105 -6 -20 -15 -41 -19 -47 -15 -22 -32 -94 -25 -105 4 -7 23 -18 41 -26 32 -13 36 -12 82 16 27 16 52 30 56 30 4 0 5 -17 2 -37 -8 -52 4 -66 57 -67 35 -1 54 6 88 30 60 43 83 49 104 27 25 -25 44 -25 76 0 37 27 63 66 61 92 -1 13 9 26 28 37 23 13 30 24 30 48 0 17 -5 41 -11 52 -9 17 -6 25 19 50 28 29 30 29 58 14 16 -8 23 -15 17 -16 -19 0 -16 -40 3 -47 18 -7 34 12 34 43 0 12 7 24 15 28 8 3 15 11 15 18 0 9 15 13 43 13 39 0 42 -2 45 -30 2 -25 1 -27 -8 -12 -13 20 -60 23 -78 5 -7 -7 -12 -20 -12 -30 0 -13 8 -18 30 -18 17 0 30 -5 30 -11 0 -6 7 -8 16 -5 8 3 24 1 34 -4 11 -6 21 -6 24 -1 3 5 23 7 44 4 44 -6 68 14 57 47 -5 16 -12 19 -28 14 -19 -6 -20 -5 -9 8 12 15 61 13 72 -2 3 -5 12 -9 20 -10 31 -5 39 0 33 18 -6 15 -4 15 18 -3 17 -14 16 -10 -6 14 -28 30 -74 64 -62 44 3 -4 -14 -8 -37 -9 -39 -1 -43 1 -40 22 2 18 -4 23 -33 29 -19 3 -38 4 -41 1 -3 -3 2 -6 11 -6 22 0 22 -26 1 -34 -22 -9 -24 -8 -18 9 4 9 -3 16 -19 20 -43 11 -81 2 -92 -22 -12 -28 -35 -30 -35 -3 0 25 -11 25 -60 0 -22 -11 -42 -20 -45 -20 -11 0 -4 29 9 37 21 12 -6 73 -32 73 -23 0 -32 18 -32 62 0 22 -11 41 -39 69 -40 40 -70 49 -89 26z m629 -284 c13 -16 12 -17 -3 -5 -11 9 -18 10 -23 2 -3 -5 -11 -10 -17 -10 -7 0 -6 6 2 15 16 19 24 19 41 -2z m-161 -63 c0 -5 -2 -10 -4 -10 -3 0 -8 5 -11 10 -3 6 -1 10 4 10 6 0 11 -4 11 -10z m-641 -14 c10 -12 3 -15 -36 -18 -57 -5 -65 -1 -39 18 25 18 60 18 75 0z m76 -66 c11 -18 -15 -50 -40 -50 -27 0 -34 27 -13 48 14 14 45 16 53 2z" transform="translate(0,90) scale(0.1,-0.1)" stroke="none" fill="#6E2D13"/>

</g>

<g id="3" transform="translate(468.0,0)scale(1,1)">

<path d="M60 404 c0 -10 52 -74 60 -74 4 0 11 11 14 24 3 13 9 31 12 40 5 13 -2 16 -40 16 -25 0 -46 -3 -46 -6z" transform="translate(0,90) scale(0.1,-0.1)" stroke="none" fill="#D6A76A"/>

<path d="M1035 204 c-16 -7 -40 -13 -52 -14 -17 0 -23 -6 -23 -24 0 -25 16 -36 54 -36 31 0 65 39 57 66 -6 19 -8 20 -36 8z" transform="translate(0,90) scale(0.1,-0.1)" stroke="none" fill="#D6A76A"/>

<path d="M615 211 c-6 -5 -21 -11 -34 -13 -34 -4 -52 -56 -25 -75 37 -27 84 7 84 61 0 36 -8 44 -25 27z" transform="translate(0,90) scale(0.1,-0.1)" stroke="none" fill="#D6A76A"/>

<path d="M1172 491 l-24 -6 23 -28 c14 -19 28 -27 40 -24 11 3 19 1 19 -4 0 -5 -12 -9 -26 -9 -41 0 -28 -34 15 -38 30 -3 33 -1 28 18 -4 15 -2 20 8 16 21 -8 26 22 10 55 -9 16 -18 29 -21 29 -2 0 0 -9 5 -19 8 -15 7 -20 -5 -25 -21 -8 -26 -8 -20 3 10 15 -28 38 -52 32z" transform="translate(0,90) scale(0.1,-0.1)" stroke="none" fill="#6E2D13"/>

<path d="M805 621 c-48 -8 -65 -17 -65 -37 0 -18 3 -18 50 6 22 11 44 20 50 20 5 0 10 -9 10 -20 0 -27 23 -25 35 3 16 36 125 37 111 0 -5 -11 -2 -14 10 -9 8 3 18 6 20 6 2 0 4 6 4 14 0 7 -10 16 -22 20 -29 7 -150 6 -203 -3z" transform="translate(0,90) scale(0.1,-0.1)" stroke="none" fill="#B35819"/>

<path d="M288 684 c-3 -2 -2 -24 3 -47 4 -23 8 -45 9 -49 0 -4 -22 -4 -50 -1 -27 3 -50 2 -50 -3 0 -5 13 -24 28 -43 l28 -33 40 21 c95 53 114 65 114 75 0 6 -21 25 -48 42 -61 41 -68 44 -74 38z" transform="translate(0,90) scale(0.1,-0.1)" stroke="none" fill="#D6A76A"/>

<path d="M1074 589 c0 -16 5 -19 24 -14 13 3 33 3 43 0 16 -5 18 -10 8 -21 -13 -16 2 -19 18 -3 8 8 15 4 27 -12 11 -16 12 -25 5 -30 -13 -8 -49 0 -49 11 0 15 -60 17 -73 2 -10 -13 -8 -14 10 -8 16 5 23 2 28 -14 11 -33 -13 -53 -57 -47 -21 3 -41 1 -44 -4 -3 -5 -13 -5 -24 1 -10 5 -26 7 -34 4 -9 -3 -16 -1 -16 5 0 6 -13 11 -30 11 -22 0 -30 5 -30 18 0 10 5 23 12 30 18 18 65 15 78 -5 9 -15 10 -13 8 12 -3 28 -6 30 -45 30 -28 0 -43 -4 -43 -13 0 -7 -7 -15 -15 -18 -8 -4 -15 -16 -15 -28 0 -31 -16 -50 -34 -43 -19 7 -22 47 -3 47 6 1 -1 8 -17 16 -28 15 -30 15 -58 -14 -25 -25 -28 -33 -19 -50 6 -11 11 -35 11 -52 0 -24 -7 -35 -30 -48 -17 -9 -30 -24 -29 -32 3 -31 -2 -41 -38 -78 -21 -21 -34 -34 -29 -30 19 16 26 7 26 -32 0 -22 -3 -40 -7 -40 -14 0 -7 -81 8 -91 43 -27 102 5 125 68 9 27 20 51 24 56 3 4 51 9 106 10 63 2 113 9 137 20 36 15 37 15 38 -4 1 -10 2 -22 3 -26 1 -5 5 -22 10 -39 7 -30 8 -31 48 -24 47 9 73 37 83 87 l6 33 59 -7 c63 -6 139 8 180 34 23 16 23 17 5 24 -11 4 -33 8 -48 8 -50 2 -85 28 -116 89 -17 31 -30 52 -31 45 0 -7 -6 -10 -14 -7 -11 4 -13 0 -9 -16 5 -19 2 -21 -28 -18 -43 4 -56 38 -15 38 14 0 26 4 26 9 0 5 -8 7 -19 4 -12 -3 -26 5 -40 24 l-23 28 24 6 c26 7 62 -17 51 -34 -4 -6 0 -8 11 -4 10 4 20 7 22 7 3 0 -2 13 -10 29 -17 32 -78 89 -110 100 -57 22 -62 22 -62 0z" transform="translate(0,90) scale(0.1,-0.1)" stroke="none" fill="#B35819"/>

<path d="M562 837 c-6 -7 -16 -25 -22 -41 -5 -15 -37 -70 -70 -120 -55 -86 -65 -95 -132 -132 -39 -21 -75 -38 -78 -37 -17 5 -90 -70 -101 -105 -6 -20 -15 -41 -19 -47 -15 -22 -32 -94 -25 -105 4 -7 23 -18 41 -26 32 -13 36 -12 82 16 27 16 52 30 56 30 4 0 5 -17 2 -37 -8 -52 4 -66 57 -67 35 -1 54 6 88 30 60 43 83 49 104 27 25 -25 44 -25 76 0 37 27 63 66 61 92 -1 13 9 26 28 37 23 13 30 24 30 48 0 17 -5 41 -11 52 -9 17 -6 25 19 50 28 29 30 29 58 14 16 -8 23 -15 17 -16 -19 0 -16 -40 3 -47 18 -7 34 12 34 43 0 12 7 24 15 28 8 3 15 11 15 18 0 9 15 13 43 13 39 0 42 -2 45 -30 2 -25 1 -27 -8 -12 -13 20 -60 23 -78 5 -7 -7 -12 -20 -12 -30 0 -13 8 -18 30 -18 17 0 30 -5 30 -11 0 -6 7 -8 16 -5 8 3 24 1 34 -4 11 -6 21 -6 24 -1 3 5 23 7 44 4 44 -6 68 14 57 47 -5 16 -12 19 -28 14 -19 -6 -20 -5 -9 8 12 15 61 13 72 -2 3 -5 12 -9 20 -10 31 -5 39 0 33 18 -6 15 -4 15 18 -3 17 -14 16 -10 -6 14 -28 30 -74 64 -62 44 3 -4 -14 -8 -37 -9 -39 -1 -43 1 -40 22 2 18 -4 23 -33 29 -19 3 -38 4 -41 1 -3 -3 2 -6 11 -6 22 0 22 -26 1 -34 -22 -9 -24 -8 -18 9 4 9 -3 16 -19 20 -43 11 -81 2 -92 -22 -12 -28 -35 -30 -35 -3 0 25 -11 25 -60 0 -22 -11 -42 -20 -45 -20 -11 0 -4 29 9 37 21 12 -6 73 -32 73 -23 0 -32 18 -32 62 0 22 -11 41 -39 69 -40 40 -70 49 -89 26z m629 -284 c13 -16 12 -17 -3 -5 -11 9 -18 10 -23 2 -3 -5 -11 -10 -17 -10 -7 0 -6 6 2 15 16 19 24 19 41 -2z m-161 -63 c0 -5 -2 -10 -4 -10 -3 0 -8 5 -11 10 -3 6 -1 10 4 10 6 0 11 -4 11 -10z m-641 -14 c10 -12 3 -15 -36 -18 -57 -5 -65 -1 -39 18 25 18 60 18 75 0z m76 -66 c11 -18 -15 -50 -40 -50 -27 0 -34 27 -13 48 14 14 45 16 53 2z" transform="translate(0,90) scale(0.1,-0.1)" stroke="none" fill="#6E2D13"/>

</g>

<g id="4" transform="translate(624.0,0)scale(1,1)">

<path d="M60 404 c0 -10 52 -74 60 -74 4 0 11 11 14 24 3 13 9 31 12 40 5 13 -2 16 -40 16 -25 0 -46 -3 -46 -6z" transform="translate(0,90) scale(0.1,-0.1)" stroke="none" fill="#D6A76A"/>

<path d="M1035 204 c-16 -7 -40 -13 -52 -14 -17 0 -23 -6 -23 -24 0 -25 16 -36 54 -36 31 0 65 39 57 66 -6 19 -8 20 -36 8z" transform="translate(0,90) scale(0.1,-0.1)" stroke="none" fill="#D6A76A"/>

<path d="M615 211 c-6 -5 -21 -11 -34 -13 -34 -4 -52 -56 -25 -75 37 -27 84 7 84 61 0 36 -8 44 -25 27z" transform="translate(0,90) scale(0.1,-0.1)" stroke="none" fill="#D6A76A"/>

<path d="M1172 491 l-24 -6 23 -28 c14 -19 28 -27 40 -24 11 3 19 1 19 -4 0 -5 -12 -9 -26 -9 -41 0 -28 -34 15 -38 30 -3 33 -1 28 18 -4 15 -2 20 8 16 21 -8 26 22 10 55 -9 16 -18 29 -21 29 -2 0 0 -9 5 -19 8 -15 7 -20 -5 -25 -21 -8 -26 -8 -20 3 10 15 -28 38 -52 32z" transform="translate(0,90) scale(0.1,-0.1)" stroke="none" fill="#6E2D13"/>

<path d="M805 621 c-48 -8 -65 -17 -65 -37 0 -18 3 -18 50 6 22 11 44 20 50 20 5 0 10 -9 10 -20 0 -27 23 -25 35 3 16 36 125 37 111 0 -5 -11 -2 -14 10 -9 8 3 18 6 20 6 2 0 4 6 4 14 0 7 -10 16 -22 20 -29 7 -150 6 -203 -3z" transform="translate(0,90) scale(0.1,-0.1)" stroke="none" fill="#B35819"/>

<path d="M288 684 c-3 -2 -2 -24 3 -47 4 -23 8 -45 9 -49 0 -4 -22 -4 -50 -1 -27 3 -50 2 -50 -3 0 -5 13 -24 28 -43 l28 -33 40 21 c95 53 114 65 114 75 0 6 -21 25 -48 42 -61 41 -68 44 -74 38z" transform="translate(0,90) scale(0.1,-0.1)" stroke="none" fill="#D6A76A"/>

<path d="M1074 589 c0 -16 5 -19 24 -14 13 3 33 3 43 0 16 -5 18 -10 8 -21 -13 -16 2 -19 18 -3 8 8 15 4 27 -12 11 -16 12 -25 5 -30 -13 -8 -49 0 -49 11 0 15 -60 17 -73 2 -10 -13 -8 -14 10 -8 16 5 23 2 28 -14 11 -33 -13 -53 -57 -47 -21 3 -41 1 -44 -4 -3 -5 -13 -5 -24 1 -10 5 -26 7 -34 4 -9 -3 -16 -1 -16 5 0 6 -13 11 -30 11 -22 0 -30 5 -30 18 0 10 5 23 12 30 18 18 65 15 78 -5 9 -15 10 -13 8 12 -3 28 -6 30 -45 30 -28 0 -43 -4 -43 -13 0 -7 -7 -15 -15 -18 -8 -4 -15 -16 -15 -28 0 -31 -16 -50 -34 -43 -19 7 -22 47 -3 47 6 1 -1 8 -17 16 -28 15 -30 15 -58 -14 -25 -25 -28 -33 -19 -50 6 -11 11 -35 11 -52 0 -24 -7 -35 -30 -48 -17 -9 -30 -24 -29 -32 3 -31 -2 -41 -38 -78 -21 -21 -34 -34 -29 -30 19 16 26 7 26 -32 0 -22 -3 -40 -7 -40 -14 0 -7 -81 8 -91 43 -27 102 5 125 68 9 27 20 51 24 56 3 4 51 9 106 10 63 2 113 9 137 20 36 15 37 15 38 -4 1 -10 2 -22 3 -26 1 -5 5 -22 10 -39 7 -30 8 -31 48 -24 47 9 73 37 83 87 l6 33 59 -7 c63 -6 139 8 180 34 23 16 23 17 5 24 -11 4 -33 8 -48 8 -50 2 -85 28 -116 89 -17 31 -30 52 -31 45 0 -7 -6 -10 -14 -7 -11 4 -13 0 -9 -16 5 -19 2 -21 -28 -18 -43 4 -56 38 -15 38 14 0 26 4 26 9 0 5 -8 7 -19 4 -12 -3 -26 5 -40 24 l-23 28 24 6 c26 7 62 -17 51 -34 -4 -6 0 -8 11 -4 10 4 20 7 22 7 3 0 -2 13 -10 29 -17 32 -78 89 -110 100 -57 22 -62 22 -62 0z" transform="translate(0,90) scale(0.1,-0.1)" stroke="none" fill="#B35819"/>

<path d="M562 837 c-6 -7 -16 -25 -22 -41 -5 -15 -37 -70 -70 -120 -55 -86 -65 -95 -132 -132 -39 -21 -75 -38 -78 -37 -17 5 -90 -70 -101 -105 -6 -20 -15 -41 -19 -47 -15 -22 -32 -94 -25 -105 4 -7 23 -18 41 -26 32 -13 36 -12 82 16 27 16 52 30 56 30 4 0 5 -17 2 -37 -8 -52 4 -66 57 -67 35 -1 54 6 88 30 60 43 83 49 104 27 25 -25 44 -25 76 0 37 27 63 66 61 92 -1 13 9 26 28 37 23 13 30 24 30 48 0 17 -5 41 -11 52 -9 17 -6 25 19 50 28 29 30 29 58 14 16 -8 23 -15 17 -16 -19 0 -16 -40 3 -47 18 -7 34 12 34 43 0 12 7 24 15 28 8 3 15 11 15 18 0 9 15 13 43 13 39 0 42 -2 45 -30 2 -25 1 -27 -8 -12 -13 20 -60 23 -78 5 -7 -7 -12 -20 -12 -30 0 -13 8 -18 30 -18 17 0 30 -5 30 -11 0 -6 7 -8 16 -5 8 3 24 1 34 -4 11 -6 21 -6 24 -1 3 5 23 7 44 4 44 -6 68 14 57 47 -5 16 -12 19 -28 14 -19 -6 -20 -5 -9 8 12 15 61 13 72 -2 3 -5 12 -9 20 -10 31 -5 39 0 33 18 -6 15 -4 15 18 -3 17 -14 16 -10 -6 14 -28 30 -74 64 -62 44 3 -4 -14 -8 -37 -9 -39 -1 -43 1 -40 22 2 18 -4 23 -33 29 -19 3 -38 4 -41 1 -3 -3 2 -6 11 -6 22 0 22 -26 1 -34 -22 -9 -24 -8 -18 9 4 9 -3 16 -19 20 -43 11 -81 2 -92 -22 -12 -28 -35 -30 -35 -3 0 25 -11 25 -60 0 -22 -11 -42 -20 -45 -20 -11 0 -4 29 9 37 21 12 -6 73 -32 73 -23 0 -32 18 -32 62 0 22 -11 41 -39 69 -40 40 -70 49 -89 26z m629 -284 c13 -16 12 -17 -3 -5 -11 9 -18 10 -23 2 -3 -5 -11 -10 -17 -10 -7 0 -6 6 2 15 16 19 24 19 41 -2z m-161 -63 c0 -5 -2 -10 -4 -10 -3 0 -8 5 -11 10 -3 6 -1 10 4 10 6 0 11 -4 11 -10z m-641 -14 c10 -12 3 -15 -36 -18 -57 -5 -65 -1 -39 18 25 18 60 18 75 0z m76 -66 c11 -18 -15 -50 -40 -50 -27 0 -34 27 -13 48 14 14 45 16 53 2z" transform="translate(0,90) scale(0.1,-0.1)" stroke="none" fill="#6E2D13"/>

</g>

</g>
</svg>