<?xml version="1.0" standalone="no"?>
<!DOCTYPE svg PUBLIC "-//W3C//DTD SVG 20010904//EN"
 "http://www.w3.org/TR/2001/REC-SVG-20010904/DTD/svg10.dtd">
<svg version="1.0" xmlns="http://www.w3.org/2000/svg" width="416pt" height="752pt" viewBox="0 0 416 752" preserveAspectRatio = "xMidYMid meet" >
<metadata>
Created by ZoeQu, written in 2022
</metadata>
<rect width="416" height="752" fill="#E8BF96"/>
<g id="row0" transform="translate(13,0.0)">
<g id="0" transform="translate(0.0,0)scale(1,1)">

<path d="M885 1766 c-164 -79 -335 -251 -499 -503 -211 -325 -316 -688 -241 -832 15 -29 13 -35 -35 -154 -49 -121 -73 -202 -53 -182 10 11 43 95 47 120 1 9 8 21 14 27 7 7 12 17 12 23 0 6 9 30 20 53 11 22 20 47 20 55 0 7 23 21 54 30 176 56 357 295 531 703 26 60 63 154 82 209 81 229 107 305 133 393 l28 92 -22 0 c-12 0 -53 -15 -91 -34z m-199 -271 c3 -20 4 -39 0 -42 -9 -9 -13 -2 -19 40 -7 47 10 49 19 2z m9 -95 c3 -5 1 -10 -4 -10 -6 0 -11 5 -11 10 0 6 2 10 4 10 3 0 8 -4 11 -10z m55 6 c0 -3 -4 -8 -10 -11 -5 -3 -10 -1 -10 4 0 6 5 11 10 11 6 0 10 -2 10 -4z m-80 -64 c0 -14 -25 -62 -32 -62 -14 0 -18 19 -8 44 9 24 40 37 40 18z m-90 -157 c0 -15 -34 -55 -46 -55 -18 0 -18 5 2 35 14 22 44 35 44 20z m-120 -207 c0 -19 -2 -20 -10 -8 -13 19 -13 30 0 30 6 0 10 -10 10 -22z m-33 -64 c-3 -3 -12 -4 -19 -1 -8 3 -5 6 6 6 11 1 17 -2 13 -5z" transform="translate(0,188) scale(0.1,-0.1)" stroke="none" fill="#9B7044"/>

</g>

<g id="1" transform="translate(104.0,0)scale(1,1)">

<path d="M885 1766 c-164 -79 -335 -251 -499 -503 -211 -325 -316 -688 -241 -832 15 -29 13 -35 -35 -154 -49 -121 -73 -202 -53 -182 10 11 43 95 47 120 1 9 8 21 14 27 7 7 12 17 12 23 0 6 9 30 20 53 11 22 20 47 20 55 0 7 23 21 54 30 176 56 357 295 531 703 26 60 63 154 82 209 81 229 107 305 133 393 l28 92 -22 0 c-12 0 -53 -15 -91 -34z m-199 -271 c3 -20 4 -39 0 -42 -9 -9 -13 -2 -19 40 -7 47 10 49 19 2z m9 -95 c3 -5 1 -10 -4 -10 -6 0 -11 5 -11 10 0 6 2 10 4 10 3 0 8 -4 11 -10z m55 6 c0 -3 -4 -8 -10 -11 -5 -3 -10 -1 -10 4 0 6 5 11 10 11 6 0 10 -2 10 -4z m-80 -64 c0 -14 -25 -62 -32 -62 -14 0 -18 19 -8 44 9 24 40 37 40 18z m-90 -157 c0 -15 -34 -55 -46 -55 -18 0 -18 5 2 35 14 22 44 35 44 20z m-120 -207 c0 -19 -2 -20 -10 -8 -13 19 -13 30 0 30 6 0 10 -10 10 -22z m-33 -64 c-3 -3 -12 -4 -19 -1 -8 3 -5 6 6 6 11 1 17 -2 13 -5z" transform="translate(0,188) scale(0.1,-0.1)" stroke="none" fill="#9B7044"/>

</g>

<g id="2" transform="translate(208.0,0)scale(1,1)">

<path d="M885 1766 c-164 -79 -335 -251 -499 -503 -211 -325 -316 -688 -241 -832 15 -29 13 -35 -35 -154 -49 -121 -73 -202 -53 -182 10 11 43 95 47 120 1 9 8 21 14 27 7 7 12 17 12 23 0 6 9 30 20 53 11 22 20 47 20 55 0 7 23 21 54 30 176 56 357 295 531 703 26 60 63 154 82 209 81 229 107 305 133 393 l28 92 -22 0 c-12 0 -53 -15 -91 -34z m-199 -271 c3 -20 4 -39 0 -42 -9 -9 -13 -2 -19 40 -7 47 10 49 19 2z m9 -95 c3 -5 1 -10 -4 -10 -6 0 -11 5 -11 10 0 6 2 10 4 10 3 0 8 -4 11 -10z m55 6 c0 -3 -4 -8 -10 -11 -5 -3 -10 -1 -10 4 0 6 5 11 10 11 6 0 10 -2 10 -4z m-80 -64 c0 -14 -25 -62 -32 -62 -14 0 -18 19 -8 44 9 24 40 37 40 18z m-90 -157 c0 -15 -34 -55 -46 -55 -18 0 -18 5 2 35 14 22 44 35 44 20z m-120 -207 c0 -19 -2 -20 -10 -8 -13 19 -13 30 0 30 6 0 10 -10 10 -22z m-33 -64 c-3 -3 -12 -4 -19 -1 -8 3 -5 6 6 6 11 1 17 -2 13 -5z" transform="translate(0,188) scale(0.1,-0.1)" stroke="none" fill="#9B7044"/>

</g>

<g id="3" transform="translate(312.0,0)scale(1,1)">

<path d="M885 1766 c-164 -79 -335 -251 -499 -503 -211 -325 -316 -688 -241 -832 15 -29 13 -35 -35 -154 -49 -121 -73 -202 -53 -182 10 11 43 95 47 120 1 9 8 21 14 27 7 7 12 17 12 23 0 6 9 30 20 53 11 22 20 47 20 55 0 7 23 21 54 30 176 56 357 295 531 703 26 60 63 154 82 209 81 229 107 305 133 393 l28 92 -22 0 c-12 0 -53 -15 -91 -34z m-199 -271 c3 -20 4 -39 0 -42 -9 -9 -13 -2 -19 40 -7 47 10 49 19 2z m9 -95 c3 -5 1 -10 -4 -10 -6 0 -11 5 -11 10 0 6 2 10 4 10 3 0 8 -4 11 -10z m55 6 c0 -3 -4 -8 -10 -11 -5 -3 -10 -1 -10 4 0 6 5 11 10 11 6 0 10 -2 10 -4z m-80 -64 c0 -14 -25 -62 -32 -62 -14 0 -18 19 -8 44 9 24 40 37 40 18z m-90 -157 c0 -15 -34 -55 -46 -55 -18 0 -18 5 2 35 14 22 44 35 44 20z m-120 -207 c0 -19 -2 -20 -10 -8 -13 19 -13 30 0 30 6 0 10 -10 10 -22z m-33 -64 c-3 -3 -12 -4 -19 -1 -8 3 -5 6 6 6 11 1 17 -2 13 -5z" transform="translate(0,188) scale(0.1,-0.1)" stroke="none" fill="#9B7044"/>

</g>

<g id="4" transform="translate(416.0,0)scale(1,1)">

<path d="M885 1766 c-164 -79 -335 -251 -499 -503 -211 -325 -316 -688 -241 -832 15 -29 13 -35 -35 -154 -49 -121 -73 -202 -53 -182 10 11 43 95 47 120 1 9 8 21 14 27 7 7 12 17 12 23 0 6 9 30 20 53 11 22 20 47 20 55 0 7 23 21 54 30 176 56 357 295 531 703 26 60 63 154 82 209 81 229 107 305 133 393 l28 92 -22 0 c-12 0 -53 -15 -91 -34z m-199 -271 c3 -20 4 -39 0 -42 -9 -9 -13 -2 -19 40 -7 47 10 49 19 2z m9 -95 c3 -5 1 -10 -4 -10 -6 0 -11 5 -11 10 0 6 2 10 4 10 3 0 8 -4 11 -10z m55 6 c0 -3 -4 -8 -10 -11 -5 -3 -10 -1 -10 4 0 6 5 11 10 11 6 0 10 -2 10 -4z m-80 -64 c0 -14 -25 -62 -32 -62 -14 0 -18 19 -8 44 9 24 40 37 40 18z m-90 -157 c0 -15 -34 -55 -46 -55 -18 0 -18 5 2 35 14 22 44 35 44 20z m-120 -207 c0 -19 -2 -20 -10 -8 -13 19 -13 30 0 30 6 0 10 -10 10 -22z m-33 -64 c-3 -3 -12 -4 -19 -1 -8 3 -5 6 6 6 11 1 17 -2 13 -5z" transform="translate(0,188) scale(0.1,-0.1)" stroke="none" fill="#9B7044"/>

</g>

</g>
<g id="row1" transform="translate(-39,188.0)">
<g id="0" transform="translate(0.0,0)scale(1,1)">

<path d="M885 1766 c-164 -79 -335 -251 -499 -503 -211 -325 -316 -688 -241 -832 15 -29 13 -35 -35 -154 -49 -121 -73 -202 -53 -182 10 11 43 95 47 120 1 9 8 21 14 27 7 7 12 17 12 23 0 6 9 30 20 53 11 22 20 47 20 55 0 7 23 21 54 30 176 56 357 295 531 703 26 60 63 154 82 209 81 229 107 305 133 393 l28 92 -22 0 c-12 0 -53 -15 -91 -34z m-199 -271 c3 -20 4 -39 0 -42 -9 -9 -13 -2 -19 40 -7 47 10 49 19 2z m9 -95 c3 -5 1 -10 -4 -10 -6 0 -11 5 -11 10 0 6 2 10 4 10 3 0 8 -4 11 -10z m55 6 c0 -3 -4 -8 -10 -11 -5 -3 -10 -1 -10 4 0 6 5 11 10 11 6 0 10 -2 10 -4z m-80 -64 c0 -14 -25 -62 -32 -62 -14 0 -18 19 -8 44 9 24 40 37 40 18z m-90 -157 c0 -15 -34 -55 -46 -55 -18 0 -18 5 2 35 14 22 44 35 44 20z m-120 -207 c0 -19 -2 -20 -10 -8 -13 19 -13 30 0 30 6 0 10 -10 10 -22z m-33 -64 c-3 -3 -12 -4 -19 -1 -8 3 -5 6 6 6 11 1 17 -2 13 -5z" transform="translate(0,188) scale(0.1,-0.1)" stroke="none" fill="#9B7044"/>

</g>

<g id="1" transform="translate(104.0,0)scale(1,1)">

<path d="M885 1766 c-164 -79 -335 -251 -499 -503 -211 -325 -316 -688 -241 -832 15 -29 13 -35 -35 -154 -49 -121 -73 -202 -53 -182 10 11 43 95 47 120 1 9 8 21 14 27 7 7 12 17 12 23 0 6 9 30 20 53 11 22 20 47 20 55 0 7 23 21 54 30 176 56 357 295 531 703 26 60 63 154 82 209 81 229 107 305 133 393 l28 92 -22 0 c-12 0 -53 -15 -91 -34z m-199 -271 c3 -20 4 -39 0 -42 -9 -9 -13 -2 -19 40 -7 47 10 49 19 2z m9 -95 c3 -5 1 -10 -4 -10 -6 0 -11 5 -11 10 0 6 2 10 4 10 3 0 8 -4 11 -10z m55 6 c0 -3 -4 -8 -10 -11 -5 -3 -10 -1 -10 4 0 6 5 11 10 11 6 0 10 -2 10 -4z m-80 -64 c0 -14 -25 -62 -32 -62 -14 0 -18 19 -8 44 9 24 40 37 40 18z m-90 -157 c0 -15 -34 -55 -46 -55 -18 0 -18 5 2 35 14 22 44 35 44 20z m-120 -207 c0 -19 -2 -20 -10 -8 -13 19 -13 30 0 30 6 0 10 -10 10 -22z m-33 -64 c-3 -3 -12 -4 -19 -1 -8 3 -5 6 6 6 11 1 17 -2 13 -5z" transform="translate(0,188) scale(0.1,-0.1)" stroke="none" fill="#9B7044"/>

</g>

<g id="2" transform="translate(208.0,0)scale(1,1)">

<path d="M885 1766 c-164 -79 -335 -251 -499 -503 -211 -325 -316 -688 -241 -832 15 -29 13 -35 -35 -154 -49 -121 -73 -202 -53 -182 10 11 43 95 47 120 1 9 8 21 14 27 7 7 12 17 12 23 0 6 9 30 20 53 11 22 20 47 20 55 0 7 23 21 54 30 176 56 357 295 531 703 26 60 63 154 82 209 81 229 107 305 133 393 l28 92 -22 0 c-12 0 -53 -15 -91 -34z m-199 -271 c3 -20 4 -39 0 -42 -9 -9 -13 -2 -19 40 -7 47 10 49 19 2z m9 -95 c3 -5 1 -10 -4 -10 -6 0 -11 5 -11 10 0 6 2 10 4 10 3 0 8 -4 11 -10z m55 6 c0 -3 -4 -8 -10 -11 -5 -3 -10 -1 -10 4 0 6 5 11 10 11 6 0 10 -2 10 -4z m-80 -64 c0 -14 -25 -62 -32 -62 -14 0 -18 19 -8 44 9 24 40 37 40 18z m-90 -157 c0 -15 -34 -55 -46 -55 -18 0 -18 5 2 35 14 22 44 35 44 20z m-120 -207 c0 -19 -2 -20 -10 -8 -13 19 -13 30 0 30 6 0 10 -10 10 -22z m-33 -64 c-3 -3 -12 -4 -19 -1 -8 3 -5 6 6 6 11 1 17 -2 13 -5z" transform="translate(0,188) scale(0.1,-0.1)" stroke="none" fill="#9B7044"/>

</g>

<g id="3" transform="translate(312.0,0)scale(1,1)">

<path d="M885 1766 c-164 -79 -335 -251 -499 -503 -211 -325 -316 -688 -241 -832 15 -29 13 -35 -35 -154 -49 -121 -73 -202 -53 -182 10 11 43 95 47 120 1 9 8 21 14 27 7 7 12 17 12 23 0 6 9 30 20 53 11 22 20 47 20 55 0 7 23 21 54 30 176 56 357 295 531 703 26 60 63 154 82 209 81 229 107 305 133 393 l28 92 -22 0 c-12 0 -53 -15 -91 -34z m-199 -271 c3 -20 4 -39 0 -42 -9 -9 -13 -2 -19 40 -7 47 10 49 19 2z m9 -95 c3 -5 1 -10 -4 -10 -6 0 -11 5 -11 10 0 6 2 10 4 10 3 0 8 -4 11 -10z m55 6 c0 -3 -4 -8 -10 -11 -5 -3 -10 -1 -10 4 0 6 5 11 10 11 6 0 10 -2 10 -4z m-80 -64 c0 -14 -25 -62 -32 -62 -14 0 -18 19 -8 44 9 24 40 37 40 18z m-90 -157 c0 -15 -34 -55 -46 -55 -18 0 -18 5 2 35 14 22 44 35 44 20z m-120 -207 c0 -19 -2 -20 -10 -8 -13 19 -13 30 0 30 6 0 10 -10 10 -22z m-33 -64 c-3 -3 -12 -4 -19 -1 -8 3 -5 6 6 6 11 1 17 -2 13 -5z" transform="translate(0,188) scale(0.1,-0.1)" stroke="none" fill="#9B7044"/>

</g>

<g id="4" transform="translate(416.0,0)scale(1,1)">

<path d="M885 1766 c-164 -79 -335 -251 -499 -503 -211 -325 -316 -688 -241 -832 15 -29 13 -35 -35 -154 -49 -121 -73 -202 -53 -182 10 11 43 95 47 120 1 9 8 21 14 27 7 7 12 17 12 23 0 6 9 30 20 53 11 22 20 47 20 55 0 7 23 21 54 30 176 56 357 295 531 703 26 60 63 154 82 209 81 229 107 305 133 393 l28 92 -22 0 c-12 0 -53 -15 -91 -34z m-199 -271 c3 -20 4 -39 0 -42 -9 -9 -13 -2 -19 40 -7 47 10 49 19 2z m9 -95 c3 -5 1 -10 -4 -10 -6 0 -11 5 -11 10 0 6 2 10 4 10 3 0 8 -4 11 -10z m55 6 c0 -3 -4 -8 -10 -11 -5 -3 -10 -1 -10 4 0 6 5 11 10 11 6 0 10 -2 10 -4z m-80 -64 c0 -14 -25 -62 -32 -62 -14 0 -18 19 -8 44 9 24 40 37 40 18z m-90 -157 c0 -15 -34 -55 -46 -55 -18 0 -18 5 2 35 14 22 44 35 44 20z m-120 -207 c0 -19 -2 -20 -10 -8 -13 19 -13 30 0 30 6 0 10 -10 10 -22z m-33 -64 c-3 -3 -12 -4 -19 -1 -8 3 -5 6 6 6 11 1 17 -2 13 -5z" transform="translate(0,188) scale(0.1,-0.1)" stroke="none" fill="#9B7044"/>

</g>

</g>
<g id="row2" transform="translate(13,376.0)">
<g id="0" transform="translate(0.0,0)scale(1,1)">

<path d="M885 1766 c-164 -79 -335 -251 -499 -503 -211 -325 -316 -688 -241 -832 15 -29 13 -35 -35 -154 -49 -121 -73 -202 -53 -182 10 11 43 95 47 120 1 9 8 21 14 27 7 7 12 17 12 23 0 6 9 30 20 53 11 22 20 47 20 55 0 7 23 21 54 30 176 56 357 295 531 703 26 60 63 154 82 209 81 229 107 305 133 393 l28 92 -22 0 c-12 0 -53 -15 -91 -34z m-199 -271 c3 -20 4 -39 0 -42 -9 -9 -13 -2 -19 40 -7 47 10 49 19 2z m9 -95 c3 -5 1 -10 -4 -10 -6 0 -11 5 -11 10 0 6 2 10 4 10 3 0 8 -4 11 -10z m55 6 c0 -3 -4 -8 -10 -11 -5 -3 -10 -1 -10 4 0 6 5 11 10 11 6 0 10 -2 10 -4z m-80 -64 c0 -14 -25 -62 -32 -62 -14 0 -18 19 -8 44 9 24 40 37 40 18z m-90 -157 c0 -15 -34 -55 -46 -55 -18 0 -18 5 2 35 14 22 44 35 44 20z m-120 -207 c0 -19 -2 -20 -10 -8 -13 19 -13 30 0 30 6 0 10 -10 10 -22z m-33 -64 c-3 -3 -12 -4 -19 -1 -8 3 -5 6 6 6 11 1 17 -2 13 -5z" transform="translate(0,188) scale(0.1,-0.1)" stroke="none" fill="#9B7044"/>

</g>

<g id="1" transform="translate(104.0,0)scale(1,1)">

<path d="M885 1766 c-164 -79 -335 -251 -499 -503 -211 -325 -316 -688 -241 -832 15 -29 13 -35 -35 -154 -49 -121 -73 -202 -53 -182 10 11 43 95 47 120 1 9 8 21 14 27 7 7 12 17 12 23 0 6 9 30 20 53 11 22 20 47 20 55 0 7 23 21 54 30 176 56 357 295 531 703 26 60 63 154 82 209 81 229 107 305 133 393 l28 92 -22 0 c-12 0 -53 -15 -91 -34z m-199 -271 c3 -20 4 -39 0 -42 -9 -9 -13 -2 -19 40 -7 47 10 49 19 2z m9 -95 c3 -5 1 -10 -4 -10 -6 0 -11 5 -11 10 0 6 2 10 4 10 3 0 8 -4 11 -10z m55 6 c0 -3 -4 -8 -10 -11 -5 -3 -10 -1 -10 4 0 6 5 11 10 11 6 0 10 -2 10 -4z m-80 -64 c0 -14 -25 -62 -32 -62 -14 0 -18 19 -8 44 9 24 40 37 40 18z m-90 -157 c0 -15 -34 -55 -46 -55 -18 0 -18 5 2 35 14 22 44 35 44 20z m-120 -207 c0 -19 -2 -20 -10 -8 -13 19 -13 30 0 30 6 0 10 -10 10 -22z m-33 -64 c-3 -3 -12 -4 -19 -1 -8 3 -5 6 6 6 11 1 17 -2 13 -5z" transform="translate(0,188) scale(0.1,-0.1)" stroke="none" fill="#9B7044"/>

</g>

<g id="2" transform="translate(208.0,0)scale(1,1)">

<path d="M885 1766 c-164 -79 -335 -251 -499 -503 -211 -325 -316 -688 -241 -832 15 -29 13 -35 -35 -154 -49 -121 -73 -202 -53 -182 10 11 43 95 47 120 1 9 8 21 14 27 7 7 12 17 12 23 0 6 9 30 20 53 11 22 20 47 20 55 0 7 23 21 54 30 176 56 357 295 531 703 26 60 63 154 82 209 81 229 107 305 133 393 l28 92 -22 0 c-12 0 -53 -15 -91 -34z m-199 -271 c3 -20 4 -39 0 -42 -9 -9 -13 -2 -19 40 -7 47 10 49 19 2z m9 -95 c3 -5 1 -10 -4 -10 -6 0 -11 5 -11 10 0 6 2 10 4 10 3 0 8 -4 11 -10z m55 6 c0 -3 -4 -8 -10 -11 -5 -3 -10 -1 -10 4 0 6 5 11 10 11 6 0 10 -2 10 -4z m-80 -64 c0 -14 -25 -62 -32 -62 -14 0 -18 19 -8 44 9 24 40 37 40 18z m-90 -157 c0 -15 -34 -55 -46 -55 -18 0 -18 5 2 35 14 22 44 35 44 20z m-120 -207 c0 -19 -2 -20 -10 -8 -13 19 -13 30 0 30 6 0 10 -10 10 -22z m-33 -64 c-3 -3 -12 -4 -19 -1 -8 3 -5 6 6 6 11 1 17 -2 13 -5z" transform="translate(0,188) scale(0.1,-0.1)" stroke="none" fill="#9B7044"/>

</g>

<g id="3" transform="translate(312.0,0)scale(1,1)">

<path d="M885 1766 c-164 -79 -335 -251 -499 -503 -211 -325 -316 -688 -241 -832 15 -29 13 -35 -35 -154 -49 -121 -73 -202 -53 -182 10 11 43 95 47 120 1 9 8 21 14 27 7 7 12 17 12 23 0 6 9 30 20 53 11 22 20 47 20 55 0 7 23 21 54 30 176 56 357 295 531 703 26 60 63 154 82 209 81 229 107 305 133 393 l28 92 -22 0 c-12 0 -53 -15 -91 -34z m-199 -271 c3 -20 4 -39 0 -42 -9 -9 -13 -2 -19 40 -7 47 10 49 19 2z m9 -95 c3 -5 1 -10 -4 -10 -6 0 -11 5 -11 10 0 6 2 10 4 10 3 0 8 -4 11 -10z m55 6 c0 -3 -4 -8 -10 -11 -5 -3 -10 -1 -10 4 0 6 5 11 10 11 6 0 10 -2 10 -4z m-80 -64 c0 -14 -25 -62 -32 -62 -14 0 -18 19 -8 44 9 24 40 37 40 18z m-90 -157 c0 -15 -34 -55 -46 -55 -18 0 -18 5 2 35 14 22 44 35 44 20z m-120 -207 c0 -19 -2 -20 -10 -8 -13 19 -13 30 0 30 6 0 10 -10 10 -22z m-33 -64 c-3 -3 -12 -4 -19 -1 -8 3 -5 6 6 6 11 1 17 -2 13 -5z" transform="translate(0,188) scale(0.1,-0.1)" stroke="none" fill="#9B7044"/>

</g>

<g id="4" transform="translate(416.0,0)scale(1,1)">

<path d="M885 1766 c-164 -79 -335 -251 -499 -503 -211 -325 -316 -688 -241 -832 15 -29 13 -35 -35 -154 -49 -121 -73 -202 -53 -182 10 11 43 95 47 120 1 9 8 21 14 27 7 7 12 17 12 23 0 6 9 30 20 53 11 22 20 47 20 55 0 7 23 21 54 30 176 56 357 295 531 703 26 60 63 154 82 209 81 229 107 305 133 393 l28 92 -22 0 c-12 0 -53 -15 -91 -34z m-199 -271 c3 -20 4 -39 0 -42 -9 -9 -13 -2 -19 40 -7 47 10 49 19 2z m9 -95 c3 -5 1 -10 -4 -10 -6 0 -11 5 -11 10 0 6 2 10 4 10 3 0 8 -4 11 -10z m55 6 c0 -3 -4 -8 -10 -11 -5 -3 -10 -1 -10 4 0 6 5 11 10 11 6 0 10 -2 10 -4z m-80 -64 c0 -14 -25 -62 -32 -62 -14 0 -18 19 -8 44 9 24 40 37 40 18z m-90 -157 c0 -15 -34 -55 -46 -55 -18 0 -18 5 2 35 14 22 44 35 44 20z m-120 -207 c0 -19 -2 -20 -10 -8 -13 19 -13 30 0 30 6 0 10 -10 10 -22z m-33 -64 c-3 -3 -12 -4 -19 -1 -8 3 -5 6 6 6 11 1 17 -2 13 -5z" transform="translate(0,188) scale(0.1,-0.1)" stroke="none" fill="#9B7044"/>

</g>

</g>
<g id="row3" transform="translate(-39,564.0)">
<g id="0" transform="translate(0.0,0)scale(1,1)">

<path d="M885 1766 c-164 -79 -335 -251 -499 -503 -211 -325 -316 -688 -241 -832 15 -29 13 -35 -35 -154 -49 -121 -73 -202 -53 -182 10 11 43 95 47 120 1 9 8 21 14 27 7 7 12 17 12 23 0 6 9 30 20 53 11 22 20 47 20 55 0 7 23 21 54 30 176 56 357 295 531 703 26 60 63 154 82 209 81 229 107 305 133 393 l28 92 -22 0 c-12 0 -53 -15 -91 -34z m-199 -271 c3 -20 4 -39 0 -42 -9 -9 -13 -2 -19 40 -7 47 10 49 19 2z m9 -95 c3 -5 1 -10 -4 -10 -6 0 -11 5 -11 10 0 6 2 10 4 10 3 0 8 -4 11 -10z m55 6 c0 -3 -4 -8 -10 -11 -5 -3 -10 -1 -10 4 0 6 5 11 10 11 6 0 10 -2 10 -4z m-80 -64 c0 -14 -25 -62 -32 -62 -14 0 -18 19 -8 44 9 24 40 37 40 18z m-90 -157 c0 -15 -34 -55 -46 -55 -18 0 -18 5 2 35 14 22 44 35 44 20z m-120 -207 c0 -19 -2 -20 -10 -8 -13 19 -13 30 0 30 6 0 10 -10 10 -22z m-33 -64 c-3 -3 -12 -4 -19 -1 -8 3 -5 6 6 6 11 1 17 -2 13 -5z" transform="translate(0,188) scale(0.1,-0.1)" stroke="none" fill="#9B7044"/>

</g>

<g id="1" transform="translate(104.0,0)scale(1,1)">

<path d="M885 1766 c-164 -79 -335 -251 -499 -503 -211 -325 -316 -688 -241 -832 15 -29 13 -35 -35 -154 -49 -121 -73 -202 -53 -182 10 11 43 95 47 120 1 9 8 21 14 27 7 7 12 17 12 23 0 6 9 30 20 53 11 22 20 47 20 55 0 7 23 21 54 30 176 56 357 295 531 703 26 60 63 154 82 209 81 229 107 305 133 393 l28 92 -22 0 c-12 0 -53 -15 -91 -34z m-199 -271 c3 -20 4 -39 0 -42 -9 -9 -13 -2 -19 40 -7 47 10 49 19 2z m9 -95 c3 -5 1 -10 -4 -10 -6 0 -11 5 -11 10 0 6 2 10 4 10 3 0 8 -4 11 -10z m55 6 c0 -3 -4 -8 -10 -11 -5 -3 -10 -1 -10 4 0 6 5 11 10 11 6 0 10 -2 10 -4z m-80 -64 c0 -14 -25 -62 -32 -62 -14 0 -18 19 -8 44 9 24 40 37 40 18z m-90 -157 c0 -15 -34 -55 -46 -55 -18 0 -18 5 2 35 14 22 44 35 44 20z m-120 -207 c0 -19 -2 -20 -10 -8 -13 19 -13 30 0 30 6 0 10 -10 10 -22z m-33 -64 c-3 -3 -12 -4 -19 -1 -8 3 -5 6 6 6 11 1 17 -2 13 -5z" transform="translate(0,188) scale(0.1,-0.1)" stroke="none" fill="#9B7044"/>

</g>

<g id="2" transform="translate(208.0,0)scale(1,1)">

<path d="M885 1766 c-164 -79 -335 -251 -499 -503 -211 -325 -316 -688 -241 -832 15 -29 13 -35 -35 -154 -49 -121 -73 -202 -53 -182 10 11 43 95 47 120 1 9 8 21 14 27 7 7 12 17 12 23 0 6 9 30 20 53 11 22 20 47 20 55 0 7 23 21 54 30 176 56 357 295 531 703 26 60 63 154 82 209 81 229 107 305 133 393 l28 92 -22 0 c-12 0 -53 -15 -91 -34z m-199 -271 c3 -20 4 -39 0 -42 -9 -9 -13 -2 -19 40 -7 47 10 49 19 2z m9 -95 c3 -5 1 -10 -4 -10 -6 0 -11 5 -11 10 0 6 2 10 4 10 3 0 8 -4 11 -10z m55 6 c0 -3 -4 -8 -10 -11 -5 -3 -10 -1 -10 4 0 6 5 11 10 11 6 0 10 -2 10 -4z m-80 -64 c0 -14 -25 -62 -32 -62 -14 0 -18 19 -8 44 9 24 40 37 40 18z m-90 -157 c0 -15 -34 -55 -46 -55 -18 0 -18 5 2 35 14 22 44 35 44 20z m-120 -207 c0 -19 -2 -20 -10 -8 -13 19 -13 30 0 30 6 0 10 -10 10 -22z m-33 -64 c-3 -3 -12 -4 -19 -1 -8 3 -5 6 6 6 11 1 17 -2 13 -5z" transform="translate(0,188) scale(0.1,-0.1)" stroke="none" fill="#9B7044"/>

</g>

<g id="3" transform="translate(312.0,0)scale(1,1)">

<path d="M885 1766 c-164 -79 -335 -251 -499 -503 -211 -325 -316 -688 -241 -832 15 -29 13 -35 -35 -154 -49 -121 -73 -202 -53 -182 10 11 43 95 47 120 1 9 8 21 14 27 7 7 12 17 12 23 0 6 9 30 20 53 11 22 20 47 20 55 0 7 23 21 54 30 176 56 357 295 531 703 26 60 63 154 82 209 81 229 107 305 133 393 l28 92 -22 0 c-12 0 -53 -15 -91 -34z m-199 -271 c3 -20 4 -39 0 -42 -9 -9 -13 -2 -19 40 -7 47 10 49 19 2z m9 -95 c3 -5 1 -10 -4 -10 -6 0 -11 5 -11 10 0 6 2 10 4 10 3 0 8 -4 11 -10z m55 6 c0 -3 -4 -8 -10 -11 -5 -3 -10 -1 -10 4 0 6 5 11 10 11 6 0 10 -2 10 -4z m-80 -64 c0 -14 -25 -62 -32 -62 -14 0 -18 19 -8 44 9 24 40 37 40 18z m-90 -157 c0 -15 -34 -55 -46 -55 -18 0 -18 5 2 35 14 22 44 35 44 20z m-120 -207 c0 -19 -2 -20 -10 -8 -13 19 -13 30 0 30 6 0 10 -10 10 -22z m-33 -64 c-3 -3 -12 -4 -19 -1 -8 3 -5 6 6 6 11 1 17 -2 13 -5z" transform="translate(0,188) scale(0.1,-0.1)" stroke="none" fill="#9B7044"/>

</g>

<g id="4" transform="translate(416.0,0)scale(1,1)">

<path d="M885 1766 c-164 -79 -335 -251 -499 -503 -211 -325 -316 -688 -241 -832 15 -29 13 -35 -35 -154 -49 -121 -73 -202 -53 -182 10 11 43 95 47 120 1 9 8 21 14 27 7 7 12 17 12 23 0 6 9 30 20 53 11 22 20 47 20 55 0 7 23 21 54 30 176 56 357 295 531 703 26 60 63 154 82 209 81 229 107 305 133 393 l28 92 -22 0 c-12 0 -53 -15 -91 -34z m-199 -271 c3 -20 4 -39 0 -42 -9 -9 -13 -2 -19 40 -7 47 10 49 19 2z m9 -95 c3 -5 1 -10 -4 -10 -6 0 -11 5 -11 10 0 6 2 10 4 10 3 0 8 -4 11 -10z m55 6 c0 -3 -4 -8 -10 -11 -5 -3 -10 -1 -10 4 0 6 5 11 10 11 6 0 10 -2 10 -4z m-80 -64 c0 -14 -25 -62 -32 -62 -14 0 -18 19 -8 44 9 24 40 37 40 18z m-90 -157 c0 -15 -34 -55 -46 -55 -18 0 -18 5 2 35 14 22 44 35 44 20z m-120 -207 c0 -19 -2 -20 -10 -8 -13 19 -13 30 0 30 6 0 10 -10 10 -22z m-33 -64 c-3 -3 -12 -4 -19 -1 -8 3 -5 6 6 6 11 1 17 -2 13 -5z" transform="translate(0,188) scale(0.1,-0.1)" stroke="none" fill="#9B7044"/>

</g>

</g>
</svg>