<?xml version="1.0" standalone="no"?>
<!DOCTYPE svg PUBLIC "-//W3C//DTD SVG 20010904//EN"
 "http://www.w3.org/TR/2001/REC-SVG-20010904/DTD/svg10.dtd">
<svg version="1.0" xmlns="http://www.w3.org/2000/svg" 
width="175.000000pt" height="118.000000pt" viewBox="0 0 175.000000 118.000000"
preserveAspectRatio = "xMidYMid meet" >
<metadata>
Created by ZoeQU, 2022
</metadata>
<rect width="175.000000" height="118.000000" fill="#202031"/>
<path d="M905 876 c-15 -22 -24 -26 -67 -26 -56 0 -57 -16 -1 -26 23 -4 44 -2 56 6 21 13 36 1 37 -30 0 -12 2 -12 9 -2 6 10 12 5 21 -18 8 -19 16 -27 20 -20 5 8 9 7 13 -3 3 -8 20 -17 39 -21 31 -7 32 -8 10 -17 l-22 -9 22 -33 c20 -32 26 -34 75 -35 72 -1 70 10 -20 81 -21 16 -34 34 -31 42 3 8 -5 19 -18 26 -13 7 -29 20 -36 31 -7 10 -18 18 -25 18 -6 0 -23 14 -38 31 l-27 32 -17 -27z" transform="translate(0.000000,118.000000) scale(0.100000,-0.100000)" stroke="none" fill="#903F12"/>

<path d="M1009 842 c25 -20 95 -86 156 -147 131 -130 161 -157 236 -212 31 -23 68 -55 82 -72 14 -18 28 -30 29 -29 5 5 88 -74 88 -84 0 -12 -38 11 -83 50 -21 18 -49 38 -63 44 -13 6 -27 22 -30 35 -4 13 -12 23 -19 23 -6 0 -21 8 -33 18 -11 9 -29 24 -39 32 -19 16 -113 23 -113 8 0 -13 -30 -9 -46 7 -14 13 -7 15 58 16 60 0 69 2 51 11 -13 6 -23 15 -23 20 0 16 -94 68 -124 68 -57 0 -60 -12 -16 -74 22 -31 40 -61 40 -66 0 -5 52 -65 116 -134 117 -127 140 -142 214 -147 43 -3 108 24 117 47 4 10 14 25 24 35 27 27 32 73 14 136 -14 49 -27 69 -83 123 -80 78 -151 127 -312 216 -118 64 -236 114 -269 114 -10 -1 1 -15 28 -38z m436 -462 c3 -5 -1 -10 -9 -10 -8 0 -18 5 -21 10 -3 6 1 10 9 10 8 0 18 -4 21 -10z m-68 -6 c36 -10 16 -24 -32 -24 -47 0 -70 16 -33 23 37 7 42 7 65 1z m123 -104 c0 -5 -5 -10 -11 -10 -5 0 -7 5 -4 10 3 6 8 10 11 10 2 0 4 -4 4 -10z" transform="translate(0.000000,118.000000) scale(0.100000,-0.100000)" stroke="none" fill="#903F12"/>

<path d="M743 1081 c-53 -38 -61 -77 -31 -138 13 -25 33 -53 45 -63 l23 -18 -27 -58 c-24 -52 -28 -74 -31 -186 -4 -124 0 -142 25 -117 9 9 24 7 62 -10 54 -23 86 -27 96 -11 7 12 25 13 25 2 0 -5 -18 -18 -40 -31 -34 -19 -45 -20 -77 -12 -21 6 -48 18 -61 27 -13 9 -26 14 -29 11 -9 -10 29 -240 49 -291 10 -27 33 -67 50 -88 29 -37 31 -38 49 -22 11 9 19 27 19 39 0 11 4 25 9 30 4 6 25 73 46 150 36 136 37 144 32 267 -2 69 -8 131 -11 137 -5 7 -16 0 -32 -19 -43 -50 -111 -50 -172 0 -38 31 -16 43 26 15 51 -35 101 -33 141 4 l31 29 -21 54 c-25 65 -23 62 -46 47 -12 -7 -34 -9 -56 -5 -56 10 -55 26 1 26 49 0 50 1 85 53 29 42 34 58 30 87 -6 40 -42 82 -88 105 -48 22 -77 19 -122 -14z m127 -56 c0 -8 -7 -15 -15 -15 -8 0 -15 7 -15 15 0 8 7 15 15 15 8 0 15 -7 15 -15z m-62 -12 c-2 -10 -10 -18 -18 -18 -8 0 -16 8 -18 18 -2 12 3 17 18 17 15 0 20 -5 18 -17z m102 -230 c-1 -26 -45 -53 -87 -53 -32 0 -72 24 -60 36 4 4 13 2 19 -4 17 -17 49 -15 83 7 33 21 45 25 45 14z m-131 -187 c22 -26 66 -29 110 -8 47 23 54 13 12 -17 -17 -13 -45 -21 -68 -21 -41 0 -108 34 -98 50 9 14 31 12 44 -4z m77 -236 c19 0 44 5 55 10 24 13 25 -2 2 -23 -33 -29 -96 -26 -138 7 -26 21 -28 26 -16 40 13 16 16 15 38 -8 17 -19 34 -26 59 -26z m29 -97 c40 19 44 13 13 -20 -26 -27 -60 -29 -107 -4 -31 16 -32 19 -16 34 15 16 18 15 46 -5 28 -21 30 -21 64 -5z" transform="translate(0.000000,118.000000) scale(0.100000,-0.100000)" stroke="none" fill="#D29A5B"/>

<path d="M734 893 l19 -23 -37 0 c-108 0 -499 -312 -595 -474 -40 -67 -55 -143 -40 -200 12 -43 36 -68 58 -61 8 3 11 0 8 -9 -7 -17 68 -56 107 -56 44 0 47 20 15 89 l-30 64 -34 -33 c-47 -45 -44 -28 8 44 45 64 76 88 56 43 -9 -20 -7 -39 12 -101 21 -65 27 -76 47 -76 16 0 30 13 50 45 15 25 56 83 92 130 50 64 81 120 133 238 37 85 77 163 87 172 11 10 20 25 21 34 0 13 2 13 6 1 6 -14 34 70 34 103 0 9 5 15 11 11 18 -11 -3 40 -25 61 l-21 20 18 -22z m-114 -188 c-7 -9 -15 -13 -18 -10 -3 2 1 11 8 20 7 9 15 13 18 10 3 -2 -1 -11 -8 -20z m-93 -127 c-3 -8 -6 -5 -6 6 -1 11 2 17 5 13 3 -3 4 -12 1 -19z m-126 -141 c-10 -9 -11 -8 -5 6 3 10 9 15 12 12 3 -3 0 -11 -7 -18z m49 -19 l-1 -33 -13 25 c-14 25 -13 40 5 40 5 0 9 -15 9 -32z m-102 -70 c2 -11 -7 -17 -27 -20 -36 -5 -38 -1 -13 23 20 20 36 19 40 -3z m32 -87 c0 -21 -16 -2 -24 29 -7 24 -6 24 8 6 9 -11 16 -27 16 -35z" transform="translate(0.000000,118.000000) scale(0.100000,-0.100000)" stroke="none" fill="#903F12"/>

</svg>