<?xml version="1.0" standalone="no"?>
<!DOCTYPE svg PUBLIC "-//W3C//DTD SVG 20010904//EN"
 "http://www.w3.org/TR/2001/REC-SVG-20010904/DTD/svg10.dtd">
<svg version="1.0" xmlns="http://www.w3.org/2000/svg" 
width="105.000000pt" height="122.000000pt" viewBox="0 0 105.000000 122.000000"
preserveAspectRatio = "xMidYMid meet" >
<metadata>
Created by ZoeQU, 2022
</metadata>
<rect width="105.000000" height="122.000000" fill="#C2D1E0"/>
<path d="M885 899 c-25 -7 -22 -7 13 -3 l43 4 -6 -44 c-6 -39 -4 -46 15 -56 11 -6 25 -21 30 -33 7 -17 9 -18 9 -4 1 9 -10 27 -24 39 -26 23 -32 47 -15 64 15 15 1 44 -19 43 -9 -1 -29 -5 -46 -10z" transform="translate(0.000000,122.000000) scale(0.100000,-0.100000)" stroke="none" fill="#4F7789"/>

<path d="M981 717 c-1 -21 -24 -59 -63 -105 -15 -18 -28 -42 -28 -53 0 -26 -52 -78 -88 -89 -24 -7 -24 -8 -5 -9 28 -1 103 64 103 89 0 10 10 31 23 47 41 49 69 102 64 120 -4 17 -5 17 -6 0z" transform="translate(0.000000,122.000000) scale(0.100000,-0.100000)" stroke="none" fill="#4F7789"/>

<path d="M227 966 c-29 -33 -32 -43 -18 -65 9 -14 42 -9 40 6 -4 24 4 33 29 33 37 0 42 -6 28 -35 -7 -16 -17 -23 -27 -20 -17 6 -34 -20 -20 -29 12 -8 71 17 71 30 0 6 3 25 6 42 6 27 3 32 -20 38 -14 3 -26 10 -26 14 0 4 -8 10 -18 12 -12 4 -28 -5 -45 -26z" transform="translate(0.000000,122.000000) scale(0.100000,-0.100000)" stroke="none" fill="#0E3035"/>

<path d="M510 302 c0 -5 -17 -14 -38 -21 -22 -8 -42 -23 -49 -37 -11 -24 -8 -28 55 -74 37 -27 70 -46 74 -42 4 4 -1 43 -11 87 -11 44 -17 83 -15 87 3 5 0 8 -5 8 -6 0 -11 -4 -11 -8z" transform="translate(0.000000,122.000000) scale(0.100000,-0.100000)" stroke="none" fill="#4F7789"/>

<path d="M211 209 c-1 -23 6 -53 19 -76 11 -21 20 -45 20 -54 0 -32 14 -27 59 23 43 49 98 145 68 119 -11 -8 -22 -7 -48 6 -19 9 -52 18 -75 18 -40 2 -40 1 -43 -36z" transform="translate(0.000000,122.000000) scale(0.100000,-0.100000)" stroke="none" fill="#4F7789"/>

<path d="M178 1162 c-34 -16 -35 -26 -6 -39 20 -9 19 -12 -34 -64 -39 -40 -57 -66 -62 -92 -4 -21 -11 -37 -16 -37 -13 0 -13 -67 0 -75 6 -3 10 -16 10 -28 0 -12 9 -28 20 -35 11 -7 20 -20 20 -30 1 -24 44 -74 61 -70 8 1 14 0 14 -3 0 -14 29 -39 44 -39 9 0 22 -9 29 -20 16 -26 63 -26 87 0 10 11 29 20 42 20 12 0 23 4 23 8 0 5 17 27 38 48 20 22 38 50 40 62 4 28 -13 59 -37 67 -19 6 -18 8 10 52 19 31 29 60 29 85 0 34 -4 41 -30 52 -17 7 -43 33 -59 58 -43 68 -69 82 -135 74 -41 -6 -55 -4 -58 6 -2 11 -8 11 -30 0z m112 -182 c0 -4 12 -11 26 -14 23 -6 26 -11 20 -38 -3 -17 -6 -36 -6 -43 0 -11 -36 -28 -64 -29 -5 -1 -10 15 -10 34 0 28 4 36 22 38 12 2 22 -2 22 -8 0 -6 5 -8 10 -5 18 11 0 25 -31 25 -26 0 -34 -9 -30 -33 2 -15 -31 -20 -40 -6 -14 22 -11 32 18 65 17 21 33 30 45 26 10 -2 18 -8 18 -12z m-72 -125 c-3 -3 -9 2 -12 12 -6 14 -5 15 5 6 7 -7 10 -15 7 -18z m102 1 c0 -3 -4 -8 -10 -11 -5 -3 -10 -1 -10 4 0 6 5 11 10 11 6 0 10 -2 10 -4z" transform="translate(0.000000,122.000000) scale(0.100000,-0.100000)" stroke="none" fill="#4F7789"/>

<path d="M577 895 l-38 -43 26 -52 c15 -29 25 -53 23 -54 -2 -2 -17 -8 -34 -15 -26 -10 -36 -10 -53 0 -18 12 -24 10 -56 -26 -19 -22 -35 -43 -35 -47 0 -5 -11 -8 -23 -8 -13 0 -32 -9 -42 -20 -24 -26 -71 -26 -87 0 -7 11 -20 20 -29 20 -16 0 -36 17 -38 33 -1 4 -3 7 -6 7 -3 0 -9 0 -14 0 -5 0 -12 -9 -16 -19 -3 -11 -16 -23 -28 -27 -33 -10 -50 -32 -44 -59 2 -14 -2 -30 -9 -36 -16 -13 -7 -38 24 -74 22 -25 23 -29 9 -63 -8 -21 -18 -58 -21 -85 -6 -40 -5 -48 11 -53 10 -3 32 -12 48 -20 19 -9 50 -13 85 -10 40 3 65 -1 94 -15 27 -13 43 -16 50 -9 5 5 19 10 29 10 10 0 21 8 24 19 3 10 21 24 44 31 21 7 39 16 39 21 0 4 11 10 24 13 33 8 40 58 23 161 l-13 80 34 3 c26 2 39 -3 49 -18 8 -11 23 -20 33 -20 11 0 27 -11 35 -24 19 -28 61 -39 104 -26 39 11 91 62 91 89 0 11 13 35 28 53 74 87 86 145 38 183 -26 21 -28 26 -21 65 7 41 7 43 -17 37 -13 -4 -51 -9 -83 -13 -33 -4 -68 -14 -78 -23 -17 -14 -21 -12 -62 32 -25 26 -52 47 -62 46 -10 0 -35 -20 -56 -44z m103 -177 c8 -3 23 -1 34 4 27 14 41 -4 24 -31 -18 -29 -68 -29 -68 0 0 12 -4 18 -11 13 -14 -8 -29 15 -21 34 5 13 7 13 16 0 6 -8 18 -17 26 -20z" transform="translate(0.000000,122.000000) scale(0.100000,-0.100000)" stroke="none" fill="#0E3035"/>

</svg>