<?xml version="1.0" standalone="no"?>
<!DOCTYPE svg PUBLIC "-//W3C//DTD SVG 20010904//EN"
 "http://www.w3.org/TR/2001/REC-SVG-20010904/DTD/svg10.dtd">
<svg version="1.0" xmlns="http://www.w3.org/2000/svg" width="256pt" height="152pt" viewBox="0 0 256 152" preserveAspectRatio = "xMidYMid meet" >
<metadata>
Created by ZoeQu, written in 2022
</metadata>
<rect width="256" height="152" fill="#FA8D1C"/>
<g id="row0" transform="translate(8,0.0)">
<g id="0" transform="translate(0.0,0)scale(1,1)">

<path d="M400 300 c0 -11 5 -20 10 -20 6 0 10 9 10 20 0 11 -4 20 -10 20 -5 0 -10 -9 -10 -20z" transform="translate(0,38) scale(0.1,-0.1)" stroke="none" fill="#38999E"/>

<path d="M64 195 c10 -8 23 -12 28 -9 14 9 -2 24 -25 24 -21 -1 -21 -1 -3 -15z" transform="translate(0,38) scale(0.1,-0.1)" stroke="none" fill="#E5E3DF"/>

<path d="M540 315 c0 -12 50 -59 56 -53 3 4 -5 18 -19 32 -25 25 -37 32 -37 21z" transform="translate(0,38) scale(0.1,-0.1)" stroke="none" fill="#38999E"/>

<path d="M85 230 c4 -6 -5 -10 -19 -10 -33 0 -35 -27 -3 -39 28 -10 50 -3 43 15 -3 7 0 16 6 20 7 4 6 9 -3 15 -19 12 -32 11 -24 -1z m10 -29 c10 -17 -11 -21 -31 -6 -18 14 -18 14 3 15 12 0 24 -4 28 -9z" transform="translate(0,38) scale(0.1,-0.1)" stroke="none" fill="#38999E"/>

<path d="M167 199 c-45 -24 -53 -37 -34 -57 13 -13 21 -13 42 -4 14 7 36 12 49 12 19 0 22 4 18 29 -5 37 -29 43 -75 20z" transform="translate(0,38) scale(0.1,-0.1)" stroke="none" fill="#E5E3DF"/>

<path d="M461 283 c0 -11 3 -13 6 -5 6 15 45 16 61 0 7 -7 12 -22 12 -33 0 -31 9 -36 36 -18 38 25 32 -10 -7 -39 -66 -49 -99 -86 -99 -111 0 -35 -20 -49 -44 -31 -11 8 -25 14 -30 14 -6 0 4 -10 22 -21 38 -25 62 -14 62 30 1 33 22 60 81 99 53 36 64 55 43 73 -11 9 -18 9 -26 1 -16 -16 -31 -15 -25 2 3 7 -1 23 -9 35 -20 28 -84 30 -83 4z" transform="translate(0,38) scale(0.1,-0.1)" stroke="none" fill="#38999E"/>

<path d="M140 333 c-25 -9 -70 -56 -70 -73 0 -8 14 -21 31 -27 53 -20 99 13 99 72 0 29 -25 41 -60 28z" transform="translate(0,38) scale(0.1,-0.1)" stroke="none" fill="#E5E3DF"/>

<path d="M260 330 c-26 -26 -35 -66 -20 -85 17 -21 27 -19 62 10 16 14 38 25 48 25 30 0 34 20 9 46 -28 29 -72 31 -99 4z" transform="translate(0,38) scale(0.1,-0.1)" stroke="none" fill="#E5E3DF"/>

<path d="M335 370 c-3 -5 -19 -10 -34 -10 -16 0 -37 -10 -50 -24 l-23 -25 -28 21 c-25 18 -32 19 -64 8 -40 -13 -80 -61 -73 -88 4 -14 5 -13 6 4 1 22 44 67 75 78 33 11 56 -3 56 -35 0 -29 -30 -69 -53 -69 -8 0 -8 -3 2 -9 12 -8 11 -13 -10 -30 -22 -19 -21 -19 18 1 28 15 38 25 30 31 -9 6 -9 10 1 14 6 2 12 11 12 19 0 8 5 14 10 14 6 0 10 -7 10 -15 0 -8 5 -15 10 -15 17 0 11 -18 -7 -23 -15 -4 -16 -5 -2 -6 11 -1 18 -12 21 -31 4 -26 1 -30 -18 -30 -13 0 -34 -5 -48 -11 -20 -10 -29 -9 -43 2 -16 13 -17 12 -4 -4 7 -9 23 -17 34 -17 19 0 19 -1 4 -18 -10 -10 -17 -23 -17 -29 0 -28 139 -43 200 -23 16 6 0 7 -45 4 -118 -7 -178 18 -118 50 21 11 23 15 10 16 -34 0 -6 20 29 20 28 0 34 4 34 21 0 11 -5 29 -10 40 -9 15 -7 19 7 19 9 0 27 10 40 22 35 33 38 15 3 -20 -37 -37 -38 -55 -5 -76 14 -9 25 -21 25 -26 0 -13 -33 -13 -46 0 -5 5 -15 6 -23 0 -11 -6 -4 -10 23 -15 55 -11 67 7 30 46 l-29 30 37 35 c45 41 57 42 88 9 29 -31 46 -32 60 -2 10 20 10 20 -3 5 -18 -23 -34 -23 -47 1 -5 11 -20 23 -32 27 -20 6 -20 8 -5 19 9 7 17 16 17 21 0 4 -5 3 -12 -4 -7 -7 -20 -12 -29 -12 -10 0 -31 -11 -47 -25 -17 -14 -34 -25 -40 -25 -19 0 -34 30 -28 55 16 62 79 84 123 43 13 -12 23 -16 23 -9 0 6 -7 14 -15 17 -10 4 -13 13 -10 25 7 20 -9 27 -20 9z" transform="translate(0,38) scale(0.1,-0.1)" stroke="none" fill="#38999E"/>

<path d="M465 269 c-4 -11 -4 -23 -1 -26 8 -9 -13 -43 -28 -43 -7 0 -23 11 -36 25 -31 33 -43 32 -88 -9 l-37 -35 29 -30 c23 -24 27 -34 18 -43 -9 -9 -22 -9 -57 0 -39 10 -50 10 -76 -4 -66 -34 -2 -58 128 -48 66 5 88 3 107 -9 28 -19 46 -6 46 31 0 24 34 62 99 110 39 29 45 64 7 39 -27 -18 -36 -13 -36 18 0 44 -62 65 -75 24z" transform="translate(0,38) scale(0.1,-0.1)" stroke="none" fill="#E5E3DF"/>

</g>

<g id="1" transform="translate(64.0,0)scale(1,1)">

<path d="M400 300 c0 -11 5 -20 10 -20 6 0 10 9 10 20 0 11 -4 20 -10 20 -5 0 -10 -9 -10 -20z" transform="translate(0,38) scale(0.1,-0.1)" stroke="none" fill="#38999E"/>

<path d="M64 195 c10 -8 23 -12 28 -9 14 9 -2 24 -25 24 -21 -1 -21 -1 -3 -15z" transform="translate(0,38) scale(0.1,-0.1)" stroke="none" fill="#E5E3DF"/>

<path d="M540 315 c0 -12 50 -59 56 -53 3 4 -5 18 -19 32 -25 25 -37 32 -37 21z" transform="translate(0,38) scale(0.1,-0.1)" stroke="none" fill="#38999E"/>

<path d="M85 230 c4 -6 -5 -10 -19 -10 -33 0 -35 -27 -3 -39 28 -10 50 -3 43 15 -3 7 0 16 6 20 7 4 6 9 -3 15 -19 12 -32 11 -24 -1z m10 -29 c10 -17 -11 -21 -31 -6 -18 14 -18 14 3 15 12 0 24 -4 28 -9z" transform="translate(0,38) scale(0.1,-0.1)" stroke="none" fill="#38999E"/>

<path d="M167 199 c-45 -24 -53 -37 -34 -57 13 -13 21 -13 42 -4 14 7 36 12 49 12 19 0 22 4 18 29 -5 37 -29 43 -75 20z" transform="translate(0,38) scale(0.1,-0.1)" stroke="none" fill="#E5E3DF"/>

<path d="M461 283 c0 -11 3 -13 6 -5 6 15 45 16 61 0 7 -7 12 -22 12 -33 0 -31 9 -36 36 -18 38 25 32 -10 -7 -39 -66 -49 -99 -86 -99 -111 0 -35 -20 -49 -44 -31 -11 8 -25 14 -30 14 -6 0 4 -10 22 -21 38 -25 62 -14 62 30 1 33 22 60 81 99 53 36 64 55 43 73 -11 9 -18 9 -26 1 -16 -16 -31 -15 -25 2 3 7 -1 23 -9 35 -20 28 -84 30 -83 4z" transform="translate(0,38) scale(0.1,-0.1)" stroke="none" fill="#38999E"/>

<path d="M140 333 c-25 -9 -70 -56 -70 -73 0 -8 14 -21 31 -27 53 -20 99 13 99 72 0 29 -25 41 -60 28z" transform="translate(0,38) scale(0.1,-0.1)" stroke="none" fill="#E5E3DF"/>

<path d="M260 330 c-26 -26 -35 -66 -20 -85 17 -21 27 -19 62 10 16 14 38 25 48 25 30 0 34 20 9 46 -28 29 -72 31 -99 4z" transform="translate(0,38) scale(0.1,-0.1)" stroke="none" fill="#E5E3DF"/>

<path d="M335 370 c-3 -5 -19 -10 -34 -10 -16 0 -37 -10 -50 -24 l-23 -25 -28 21 c-25 18 -32 19 -64 8 -40 -13 -80 -61 -73 -88 4 -14 5 -13 6 4 1 22 44 67 75 78 33 11 56 -3 56 -35 0 -29 -30 -69 -53 -69 -8 0 -8 -3 2 -9 12 -8 11 -13 -10 -30 -22 -19 -21 -19 18 1 28 15 38 25 30 31 -9 6 -9 10 1 14 6 2 12 11 12 19 0 8 5 14 10 14 6 0 10 -7 10 -15 0 -8 5 -15 10 -15 17 0 11 -18 -7 -23 -15 -4 -16 -5 -2 -6 11 -1 18 -12 21 -31 4 -26 1 -30 -18 -30 -13 0 -34 -5 -48 -11 -20 -10 -29 -9 -43 2 -16 13 -17 12 -4 -4 7 -9 23 -17 34 -17 19 0 19 -1 4 -18 -10 -10 -17 -23 -17 -29 0 -28 139 -43 200 -23 16 6 0 7 -45 4 -118 -7 -178 18 -118 50 21 11 23 15 10 16 -34 0 -6 20 29 20 28 0 34 4 34 21 0 11 -5 29 -10 40 -9 15 -7 19 7 19 9 0 27 10 40 22 35 33 38 15 3 -20 -37 -37 -38 -55 -5 -76 14 -9 25 -21 25 -26 0 -13 -33 -13 -46 0 -5 5 -15 6 -23 0 -11 -6 -4 -10 23 -15 55 -11 67 7 30 46 l-29 30 37 35 c45 41 57 42 88 9 29 -31 46 -32 60 -2 10 20 10 20 -3 5 -18 -23 -34 -23 -47 1 -5 11 -20 23 -32 27 -20 6 -20 8 -5 19 9 7 17 16 17 21 0 4 -5 3 -12 -4 -7 -7 -20 -12 -29 -12 -10 0 -31 -11 -47 -25 -17 -14 -34 -25 -40 -25 -19 0 -34 30 -28 55 16 62 79 84 123 43 13 -12 23 -16 23 -9 0 6 -7 14 -15 17 -10 4 -13 13 -10 25 7 20 -9 27 -20 9z" transform="translate(0,38) scale(0.1,-0.1)" stroke="none" fill="#38999E"/>

<path d="M465 269 c-4 -11 -4 -23 -1 -26 8 -9 -13 -43 -28 -43 -7 0 -23 11 -36 25 -31 33 -43 32 -88 -9 l-37 -35 29 -30 c23 -24 27 -34 18 -43 -9 -9 -22 -9 -57 0 -39 10 -50 10 -76 -4 -66 -34 -2 -58 128 -48 66 5 88 3 107 -9 28 -19 46 -6 46 31 0 24 34 62 99 110 39 29 45 64 7 39 -27 -18 -36 -13 -36 18 0 44 -62 65 -75 24z" transform="translate(0,38) scale(0.1,-0.1)" stroke="none" fill="#E5E3DF"/>

</g>

<g id="2" transform="translate(128.0,0)scale(1,1)">

<path d="M400 300 c0 -11 5 -20 10 -20 6 0 10 9 10 20 0 11 -4 20 -10 20 -5 0 -10 -9 -10 -20z" transform="translate(0,38) scale(0.1,-0.1)" stroke="none" fill="#38999E"/>

<path d="M64 195 c10 -8 23 -12 28 -9 14 9 -2 24 -25 24 -21 -1 -21 -1 -3 -15z" transform="translate(0,38) scale(0.1,-0.1)" stroke="none" fill="#E5E3DF"/>

<path d="M540 315 c0 -12 50 -59 56 -53 3 4 -5 18 -19 32 -25 25 -37 32 -37 21z" transform="translate(0,38) scale(0.1,-0.1)" stroke="none" fill="#38999E"/>

<path d="M85 230 c4 -6 -5 -10 -19 -10 -33 0 -35 -27 -3 -39 28 -10 50 -3 43 15 -3 7 0 16 6 20 7 4 6 9 -3 15 -19 12 -32 11 -24 -1z m10 -29 c10 -17 -11 -21 -31 -6 -18 14 -18 14 3 15 12 0 24 -4 28 -9z" transform="translate(0,38) scale(0.1,-0.1)" stroke="none" fill="#38999E"/>

<path d="M167 199 c-45 -24 -53 -37 -34 -57 13 -13 21 -13 42 -4 14 7 36 12 49 12 19 0 22 4 18 29 -5 37 -29 43 -75 20z" transform="translate(0,38) scale(0.1,-0.1)" stroke="none" fill="#E5E3DF"/>

<path d="M461 283 c0 -11 3 -13 6 -5 6 15 45 16 61 0 7 -7 12 -22 12 -33 0 -31 9 -36 36 -18 38 25 32 -10 -7 -39 -66 -49 -99 -86 -99 -111 0 -35 -20 -49 -44 -31 -11 8 -25 14 -30 14 -6 0 4 -10 22 -21 38 -25 62 -14 62 30 1 33 22 60 81 99 53 36 64 55 43 73 -11 9 -18 9 -26 1 -16 -16 -31 -15 -25 2 3 7 -1 23 -9 35 -20 28 -84 30 -83 4z" transform="translate(0,38) scale(0.1,-0.1)" stroke="none" fill="#38999E"/>

<path d="M140 333 c-25 -9 -70 -56 -70 -73 0 -8 14 -21 31 -27 53 -20 99 13 99 72 0 29 -25 41 -60 28z" transform="translate(0,38) scale(0.1,-0.1)" stroke="none" fill="#E5E3DF"/>

<path d="M260 330 c-26 -26 -35 -66 -20 -85 17 -21 27 -19 62 10 16 14 38 25 48 25 30 0 34 20 9 46 -28 29 -72 31 -99 4z" transform="translate(0,38) scale(0.1,-0.1)" stroke="none" fill="#E5E3DF"/>

<path d="M335 370 c-3 -5 -19 -10 -34 -10 -16 0 -37 -10 -50 -24 l-23 -25 -28 21 c-25 18 -32 19 -64 8 -40 -13 -80 -61 -73 -88 4 -14 5 -13 6 4 1 22 44 67 75 78 33 11 56 -3 56 -35 0 -29 -30 -69 -53 -69 -8 0 -8 -3 2 -9 12 -8 11 -13 -10 -30 -22 -19 -21 -19 18 1 28 15 38 25 30 31 -9 6 -9 10 1 14 6 2 12 11 12 19 0 8 5 14 10 14 6 0 10 -7 10 -15 0 -8 5 -15 10 -15 17 0 11 -18 -7 -23 -15 -4 -16 -5 -2 -6 11 -1 18 -12 21 -31 4 -26 1 -30 -18 -30 -13 0 -34 -5 -48 -11 -20 -10 -29 -9 -43 2 -16 13 -17 12 -4 -4 7 -9 23 -17 34 -17 19 0 19 -1 4 -18 -10 -10 -17 -23 -17 -29 0 -28 139 -43 200 -23 16 6 0 7 -45 4 -118 -7 -178 18 -118 50 21 11 23 15 10 16 -34 0 -6 20 29 20 28 0 34 4 34 21 0 11 -5 29 -10 40 -9 15 -7 19 7 19 9 0 27 10 40 22 35 33 38 15 3 -20 -37 -37 -38 -55 -5 -76 14 -9 25 -21 25 -26 0 -13 -33 -13 -46 0 -5 5 -15 6 -23 0 -11 -6 -4 -10 23 -15 55 -11 67 7 30 46 l-29 30 37 35 c45 41 57 42 88 9 29 -31 46 -32 60 -2 10 20 10 20 -3 5 -18 -23 -34 -23 -47 1 -5 11 -20 23 -32 27 -20 6 -20 8 -5 19 9 7 17 16 17 21 0 4 -5 3 -12 -4 -7 -7 -20 -12 -29 -12 -10 0 -31 -11 -47 -25 -17 -14 -34 -25 -40 -25 -19 0 -34 30 -28 55 16 62 79 84 123 43 13 -12 23 -16 23 -9 0 6 -7 14 -15 17 -10 4 -13 13 -10 25 7 20 -9 27 -20 9z" transform="translate(0,38) scale(0.1,-0.1)" stroke="none" fill="#38999E"/>

<path d="M465 269 c-4 -11 -4 -23 -1 -26 8 -9 -13 -43 -28 -43 -7 0 -23 11 -36 25 -31 33 -43 32 -88 -9 l-37 -35 29 -30 c23 -24 27 -34 18 -43 -9 -9 -22 -9 -57 0 -39 10 -50 10 -76 -4 -66 -34 -2 -58 128 -48 66 5 88 3 107 -9 28 -19 46 -6 46 31 0 24 34 62 99 110 39 29 45 64 7 39 -27 -18 -36 -13 -36 18 0 44 -62 65 -75 24z" transform="translate(0,38) scale(0.1,-0.1)" stroke="none" fill="#E5E3DF"/>

</g>

<g id="3" transform="translate(192.0,0)scale(1,1)">

<path d="M400 300 c0 -11 5 -20 10 -20 6 0 10 9 10 20 0 11 -4 20 -10 20 -5 0 -10 -9 -10 -20z" transform="translate(0,38) scale(0.1,-0.1)" stroke="none" fill="#38999E"/>

<path d="M64 195 c10 -8 23 -12 28 -9 14 9 -2 24 -25 24 -21 -1 -21 -1 -3 -15z" transform="translate(0,38) scale(0.1,-0.1)" stroke="none" fill="#E5E3DF"/>

<path d="M540 315 c0 -12 50 -59 56 -53 3 4 -5 18 -19 32 -25 25 -37 32 -37 21z" transform="translate(0,38) scale(0.1,-0.1)" stroke="none" fill="#38999E"/>

<path d="M85 230 c4 -6 -5 -10 -19 -10 -33 0 -35 -27 -3 -39 28 -10 50 -3 43 15 -3 7 0 16 6 20 7 4 6 9 -3 15 -19 12 -32 11 -24 -1z m10 -29 c10 -17 -11 -21 -31 -6 -18 14 -18 14 3 15 12 0 24 -4 28 -9z" transform="translate(0,38) scale(0.1,-0.1)" stroke="none" fill="#38999E"/>

<path d="M167 199 c-45 -24 -53 -37 -34 -57 13 -13 21 -13 42 -4 14 7 36 12 49 12 19 0 22 4 18 29 -5 37 -29 43 -75 20z" transform="translate(0,38) scale(0.1,-0.1)" stroke="none" fill="#E5E3DF"/>

<path d="M461 283 c0 -11 3 -13 6 -5 6 15 45 16 61 0 7 -7 12 -22 12 -33 0 -31 9 -36 36 -18 38 25 32 -10 -7 -39 -66 -49 -99 -86 -99 -111 0 -35 -20 -49 -44 -31 -11 8 -25 14 -30 14 -6 0 4 -10 22 -21 38 -25 62 -14 62 30 1 33 22 60 81 99 53 36 64 55 43 73 -11 9 -18 9 -26 1 -16 -16 -31 -15 -25 2 3 7 -1 23 -9 35 -20 28 -84 30 -83 4z" transform="translate(0,38) scale(0.1,-0.1)" stroke="none" fill="#38999E"/>

<path d="M140 333 c-25 -9 -70 -56 -70 -73 0 -8 14 -21 31 -27 53 -20 99 13 99 72 0 29 -25 41 -60 28z" transform="translate(0,38) scale(0.1,-0.1)" stroke="none" fill="#E5E3DF"/>

<path d="M260 330 c-26 -26 -35 -66 -20 -85 17 -21 27 -19 62 10 16 14 38 25 48 25 30 0 34 20 9 46 -28 29 -72 31 -99 4z" transform="translate(0,38) scale(0.1,-0.1)" stroke="none" fill="#E5E3DF"/>

<path d="M335 370 c-3 -5 -19 -10 -34 -10 -16 0 -37 -10 -50 -24 l-23 -25 -28 21 c-25 18 -32 19 -64 8 -40 -13 -80 -61 -73 -88 4 -14 5 -13 6 4 1 22 44 67 75 78 33 11 56 -3 56 -35 0 -29 -30 -69 -53 -69 -8 0 -8 -3 2 -9 12 -8 11 -13 -10 -30 -22 -19 -21 -19 18 1 28 15 38 25 30 31 -9 6 -9 10 1 14 6 2 12 11 12 19 0 8 5 14 10 14 6 0 10 -7 10 -15 0 -8 5 -15 10 -15 17 0 11 -18 -7 -23 -15 -4 -16 -5 -2 -6 11 -1 18 -12 21 -31 4 -26 1 -30 -18 -30 -13 0 -34 -5 -48 -11 -20 -10 -29 -9 -43 2 -16 13 -17 12 -4 -4 7 -9 23 -17 34 -17 19 0 19 -1 4 -18 -10 -10 -17 -23 -17 -29 0 -28 139 -43 200 -23 16 6 0 7 -45 4 -118 -7 -178 18 -118 50 21 11 23 15 10 16 -34 0 -6 20 29 20 28 0 34 4 34 21 0 11 -5 29 -10 40 -9 15 -7 19 7 19 9 0 27 10 40 22 35 33 38 15 3 -20 -37 -37 -38 -55 -5 -76 14 -9 25 -21 25 -26 0 -13 -33 -13 -46 0 -5 5 -15 6 -23 0 -11 -6 -4 -10 23 -15 55 -11 67 7 30 46 l-29 30 37 35 c45 41 57 42 88 9 29 -31 46 -32 60 -2 10 20 10 20 -3 5 -18 -23 -34 -23 -47 1 -5 11 -20 23 -32 27 -20 6 -20 8 -5 19 9 7 17 16 17 21 0 4 -5 3 -12 -4 -7 -7 -20 -12 -29 -12 -10 0 -31 -11 -47 -25 -17 -14 -34 -25 -40 -25 -19 0 -34 30 -28 55 16 62 79 84 123 43 13 -12 23 -16 23 -9 0 6 -7 14 -15 17 -10 4 -13 13 -10 25 7 20 -9 27 -20 9z" transform="translate(0,38) scale(0.1,-0.1)" stroke="none" fill="#38999E"/>

<path d="M465 269 c-4 -11 -4 -23 -1 -26 8 -9 -13 -43 -28 -43 -7 0 -23 11 -36 25 -31 33 -43 32 -88 -9 l-37 -35 29 -30 c23 -24 27 -34 18 -43 -9 -9 -22 -9 -57 0 -39 10 -50 10 -76 -4 -66 -34 -2 -58 128 -48 66 5 88 3 107 -9 28 -19 46 -6 46 31 0 24 34 62 99 110 39 29 45 64 7 39 -27 -18 -36 -13 -36 18 0 44 -62 65 -75 24z" transform="translate(0,38) scale(0.1,-0.1)" stroke="none" fill="#E5E3DF"/>

</g>

<g id="4" transform="translate(256.0,0)scale(1,1)">

<path d="M400 300 c0 -11 5 -20 10 -20 6 0 10 9 10 20 0 11 -4 20 -10 20 -5 0 -10 -9 -10 -20z" transform="translate(0,38) scale(0.1,-0.1)" stroke="none" fill="#38999E"/>

<path d="M64 195 c10 -8 23 -12 28 -9 14 9 -2 24 -25 24 -21 -1 -21 -1 -3 -15z" transform="translate(0,38) scale(0.1,-0.1)" stroke="none" fill="#E5E3DF"/>

<path d="M540 315 c0 -12 50 -59 56 -53 3 4 -5 18 -19 32 -25 25 -37 32 -37 21z" transform="translate(0,38) scale(0.1,-0.1)" stroke="none" fill="#38999E"/>

<path d="M85 230 c4 -6 -5 -10 -19 -10 -33 0 -35 -27 -3 -39 28 -10 50 -3 43 15 -3 7 0 16 6 20 7 4 6 9 -3 15 -19 12 -32 11 -24 -1z m10 -29 c10 -17 -11 -21 -31 -6 -18 14 -18 14 3 15 12 0 24 -4 28 -9z" transform="translate(0,38) scale(0.1,-0.1)" stroke="none" fill="#38999E"/>

<path d="M167 199 c-45 -24 -53 -37 -34 -57 13 -13 21 -13 42 -4 14 7 36 12 49 12 19 0 22 4 18 29 -5 37 -29 43 -75 20z" transform="translate(0,38) scale(0.1,-0.1)" stroke="none" fill="#E5E3DF"/>

<path d="M461 283 c0 -11 3 -13 6 -5 6 15 45 16 61 0 7 -7 12 -22 12 -33 0 -31 9 -36 36 -18 38 25 32 -10 -7 -39 -66 -49 -99 -86 -99 -111 0 -35 -20 -49 -44 -31 -11 8 -25 14 -30 14 -6 0 4 -10 22 -21 38 -25 62 -14 62 30 1 33 22 60 81 99 53 36 64 55 43 73 -11 9 -18 9 -26 1 -16 -16 -31 -15 -25 2 3 7 -1 23 -9 35 -20 28 -84 30 -83 4z" transform="translate(0,38) scale(0.1,-0.1)" stroke="none" fill="#38999E"/>

<path d="M140 333 c-25 -9 -70 -56 -70 -73 0 -8 14 -21 31 -27 53 -20 99 13 99 72 0 29 -25 41 -60 28z" transform="translate(0,38) scale(0.1,-0.1)" stroke="none" fill="#E5E3DF"/>

<path d="M260 330 c-26 -26 -35 -66 -20 -85 17 -21 27 -19 62 10 16 14 38 25 48 25 30 0 34 20 9 46 -28 29 -72 31 -99 4z" transform="translate(0,38) scale(0.1,-0.1)" stroke="none" fill="#E5E3DF"/>

<path d="M335 370 c-3 -5 -19 -10 -34 -10 -16 0 -37 -10 -50 -24 l-23 -25 -28 21 c-25 18 -32 19 -64 8 -40 -13 -80 -61 -73 -88 4 -14 5 -13 6 4 1 22 44 67 75 78 33 11 56 -3 56 -35 0 -29 -30 -69 -53 -69 -8 0 -8 -3 2 -9 12 -8 11 -13 -10 -30 -22 -19 -21 -19 18 1 28 15 38 25 30 31 -9 6 -9 10 1 14 6 2 12 11 12 19 0 8 5 14 10 14 6 0 10 -7 10 -15 0 -8 5 -15 10 -15 17 0 11 -18 -7 -23 -15 -4 -16 -5 -2 -6 11 -1 18 -12 21 -31 4 -26 1 -30 -18 -30 -13 0 -34 -5 -48 -11 -20 -10 -29 -9 -43 2 -16 13 -17 12 -4 -4 7 -9 23 -17 34 -17 19 0 19 -1 4 -18 -10 -10 -17 -23 -17 -29 0 -28 139 -43 200 -23 16 6 0 7 -45 4 -118 -7 -178 18 -118 50 21 11 23 15 10 16 -34 0 -6 20 29 20 28 0 34 4 34 21 0 11 -5 29 -10 40 -9 15 -7 19 7 19 9 0 27 10 40 22 35 33 38 15 3 -20 -37 -37 -38 -55 -5 -76 14 -9 25 -21 25 -26 0 -13 -33 -13 -46 0 -5 5 -15 6 -23 0 -11 -6 -4 -10 23 -15 55 -11 67 7 30 46 l-29 30 37 35 c45 41 57 42 88 9 29 -31 46 -32 60 -2 10 20 10 20 -3 5 -18 -23 -34 -23 -47 1 -5 11 -20 23 -32 27 -20 6 -20 8 -5 19 9 7 17 16 17 21 0 4 -5 3 -12 -4 -7 -7 -20 -12 -29 -12 -10 0 -31 -11 -47 -25 -17 -14 -34 -25 -40 -25 -19 0 -34 30 -28 55 16 62 79 84 123 43 13 -12 23 -16 23 -9 0 6 -7 14 -15 17 -10 4 -13 13 -10 25 7 20 -9 27 -20 9z" transform="translate(0,38) scale(0.1,-0.1)" stroke="none" fill="#38999E"/>

<path d="M465 269 c-4 -11 -4 -23 -1 -26 8 -9 -13 -43 -28 -43 -7 0 -23 11 -36 25 -31 33 -43 32 -88 -9 l-37 -35 29 -30 c23 -24 27 -34 18 -43 -9 -9 -22 -9 -57 0 -39 10 -50 10 -76 -4 -66 -34 -2 -58 128 -48 66 5 88 3 107 -9 28 -19 46 -6 46 31 0 24 34 62 99 110 39 29 45 64 7 39 -27 -18 -36 -13 -36 18 0 44 -62 65 -75 24z" transform="translate(0,38) scale(0.1,-0.1)" stroke="none" fill="#E5E3DF"/>

</g>

</g>
<g id="row1" transform="translate(-24,38.0)">
<g id="0" transform="translate(0.0,0)scale(1,1)">

<path d="M400 300 c0 -11 5 -20 10 -20 6 0 10 9 10 20 0 11 -4 20 -10 20 -5 0 -10 -9 -10 -20z" transform="translate(0,38) scale(0.1,-0.1)" stroke="none" fill="#38999E"/>

<path d="M64 195 c10 -8 23 -12 28 -9 14 9 -2 24 -25 24 -21 -1 -21 -1 -3 -15z" transform="translate(0,38) scale(0.1,-0.1)" stroke="none" fill="#E5E3DF"/>

<path d="M540 315 c0 -12 50 -59 56 -53 3 4 -5 18 -19 32 -25 25 -37 32 -37 21z" transform="translate(0,38) scale(0.1,-0.1)" stroke="none" fill="#38999E"/>

<path d="M85 230 c4 -6 -5 -10 -19 -10 -33 0 -35 -27 -3 -39 28 -10 50 -3 43 15 -3 7 0 16 6 20 7 4 6 9 -3 15 -19 12 -32 11 -24 -1z m10 -29 c10 -17 -11 -21 -31 -6 -18 14 -18 14 3 15 12 0 24 -4 28 -9z" transform="translate(0,38) scale(0.1,-0.1)" stroke="none" fill="#38999E"/>

<path d="M167 199 c-45 -24 -53 -37 -34 -57 13 -13 21 -13 42 -4 14 7 36 12 49 12 19 0 22 4 18 29 -5 37 -29 43 -75 20z" transform="translate(0,38) scale(0.1,-0.1)" stroke="none" fill="#E5E3DF"/>

<path d="M461 283 c0 -11 3 -13 6 -5 6 15 45 16 61 0 7 -7 12 -22 12 -33 0 -31 9 -36 36 -18 38 25 32 -10 -7 -39 -66 -49 -99 -86 -99 -111 0 -35 -20 -49 -44 -31 -11 8 -25 14 -30 14 -6 0 4 -10 22 -21 38 -25 62 -14 62 30 1 33 22 60 81 99 53 36 64 55 43 73 -11 9 -18 9 -26 1 -16 -16 -31 -15 -25 2 3 7 -1 23 -9 35 -20 28 -84 30 -83 4z" transform="translate(0,38) scale(0.1,-0.1)" stroke="none" fill="#38999E"/>

<path d="M140 333 c-25 -9 -70 -56 -70 -73 0 -8 14 -21 31 -27 53 -20 99 13 99 72 0 29 -25 41 -60 28z" transform="translate(0,38) scale(0.1,-0.1)" stroke="none" fill="#E5E3DF"/>

<path d="M260 330 c-26 -26 -35 -66 -20 -85 17 -21 27 -19 62 10 16 14 38 25 48 25 30 0 34 20 9 46 -28 29 -72 31 -99 4z" transform="translate(0,38) scale(0.1,-0.1)" stroke="none" fill="#E5E3DF"/>

<path d="M335 370 c-3 -5 -19 -10 -34 -10 -16 0 -37 -10 -50 -24 l-23 -25 -28 21 c-25 18 -32 19 -64 8 -40 -13 -80 -61 -73 -88 4 -14 5 -13 6 4 1 22 44 67 75 78 33 11 56 -3 56 -35 0 -29 -30 -69 -53 -69 -8 0 -8 -3 2 -9 12 -8 11 -13 -10 -30 -22 -19 -21 -19 18 1 28 15 38 25 30 31 -9 6 -9 10 1 14 6 2 12 11 12 19 0 8 5 14 10 14 6 0 10 -7 10 -15 0 -8 5 -15 10 -15 17 0 11 -18 -7 -23 -15 -4 -16 -5 -2 -6 11 -1 18 -12 21 -31 4 -26 1 -30 -18 -30 -13 0 -34 -5 -48 -11 -20 -10 -29 -9 -43 2 -16 13 -17 12 -4 -4 7 -9 23 -17 34 -17 19 0 19 -1 4 -18 -10 -10 -17 -23 -17 -29 0 -28 139 -43 200 -23 16 6 0 7 -45 4 -118 -7 -178 18 -118 50 21 11 23 15 10 16 -34 0 -6 20 29 20 28 0 34 4 34 21 0 11 -5 29 -10 40 -9 15 -7 19 7 19 9 0 27 10 40 22 35 33 38 15 3 -20 -37 -37 -38 -55 -5 -76 14 -9 25 -21 25 -26 0 -13 -33 -13 -46 0 -5 5 -15 6 -23 0 -11 -6 -4 -10 23 -15 55 -11 67 7 30 46 l-29 30 37 35 c45 41 57 42 88 9 29 -31 46 -32 60 -2 10 20 10 20 -3 5 -18 -23 -34 -23 -47 1 -5 11 -20 23 -32 27 -20 6 -20 8 -5 19 9 7 17 16 17 21 0 4 -5 3 -12 -4 -7 -7 -20 -12 -29 -12 -10 0 -31 -11 -47 -25 -17 -14 -34 -25 -40 -25 -19 0 -34 30 -28 55 16 62 79 84 123 43 13 -12 23 -16 23 -9 0 6 -7 14 -15 17 -10 4 -13 13 -10 25 7 20 -9 27 -20 9z" transform="translate(0,38) scale(0.1,-0.1)" stroke="none" fill="#38999E"/>

<path d="M465 269 c-4 -11 -4 -23 -1 -26 8 -9 -13 -43 -28 -43 -7 0 -23 11 -36 25 -31 33 -43 32 -88 -9 l-37 -35 29 -30 c23 -24 27 -34 18 -43 -9 -9 -22 -9 -57 0 -39 10 -50 10 -76 -4 -66 -34 -2 -58 128 -48 66 5 88 3 107 -9 28 -19 46 -6 46 31 0 24 34 62 99 110 39 29 45 64 7 39 -27 -18 -36 -13 -36 18 0 44 -62 65 -75 24z" transform="translate(0,38) scale(0.1,-0.1)" stroke="none" fill="#E5E3DF"/>

</g>

<g id="1" transform="translate(64.0,0)scale(1,1)">

<path d="M400 300 c0 -11 5 -20 10 -20 6 0 10 9 10 20 0 11 -4 20 -10 20 -5 0 -10 -9 -10 -20z" transform="translate(0,38) scale(0.1,-0.1)" stroke="none" fill="#38999E"/>

<path d="M64 195 c10 -8 23 -12 28 -9 14 9 -2 24 -25 24 -21 -1 -21 -1 -3 -15z" transform="translate(0,38) scale(0.1,-0.1)" stroke="none" fill="#E5E3DF"/>

<path d="M540 315 c0 -12 50 -59 56 -53 3 4 -5 18 -19 32 -25 25 -37 32 -37 21z" transform="translate(0,38) scale(0.1,-0.1)" stroke="none" fill="#38999E"/>

<path d="M85 230 c4 -6 -5 -10 -19 -10 -33 0 -35 -27 -3 -39 28 -10 50 -3 43 15 -3 7 0 16 6 20 7 4 6 9 -3 15 -19 12 -32 11 -24 -1z m10 -29 c10 -17 -11 -21 -31 -6 -18 14 -18 14 3 15 12 0 24 -4 28 -9z" transform="translate(0,38) scale(0.1,-0.1)" stroke="none" fill="#38999E"/>

<path d="M167 199 c-45 -24 -53 -37 -34 -57 13 -13 21 -13 42 -4 14 7 36 12 49 12 19 0 22 4 18 29 -5 37 -29 43 -75 20z" transform="translate(0,38) scale(0.1,-0.1)" stroke="none" fill="#E5E3DF"/>

<path d="M461 283 c0 -11 3 -13 6 -5 6 15 45 16 61 0 7 -7 12 -22 12 -33 0 -31 9 -36 36 -18 38 25 32 -10 -7 -39 -66 -49 -99 -86 -99 -111 0 -35 -20 -49 -44 -31 -11 8 -25 14 -30 14 -6 0 4 -10 22 -21 38 -25 62 -14 62 30 1 33 22 60 81 99 53 36 64 55 43 73 -11 9 -18 9 -26 1 -16 -16 -31 -15 -25 2 3 7 -1 23 -9 35 -20 28 -84 30 -83 4z" transform="translate(0,38) scale(0.1,-0.1)" stroke="none" fill="#38999E"/>

<path d="M140 333 c-25 -9 -70 -56 -70 -73 0 -8 14 -21 31 -27 53 -20 99 13 99 72 0 29 -25 41 -60 28z" transform="translate(0,38) scale(0.1,-0.1)" stroke="none" fill="#E5E3DF"/>

<path d="M260 330 c-26 -26 -35 -66 -20 -85 17 -21 27 -19 62 10 16 14 38 25 48 25 30 0 34 20 9 46 -28 29 -72 31 -99 4z" transform="translate(0,38) scale(0.1,-0.1)" stroke="none" fill="#E5E3DF"/>

<path d="M335 370 c-3 -5 -19 -10 -34 -10 -16 0 -37 -10 -50 -24 l-23 -25 -28 21 c-25 18 -32 19 -64 8 -40 -13 -80 -61 -73 -88 4 -14 5 -13 6 4 1 22 44 67 75 78 33 11 56 -3 56 -35 0 -29 -30 -69 -53 -69 -8 0 -8 -3 2 -9 12 -8 11 -13 -10 -30 -22 -19 -21 -19 18 1 28 15 38 25 30 31 -9 6 -9 10 1 14 6 2 12 11 12 19 0 8 5 14 10 14 6 0 10 -7 10 -15 0 -8 5 -15 10 -15 17 0 11 -18 -7 -23 -15 -4 -16 -5 -2 -6 11 -1 18 -12 21 -31 4 -26 1 -30 -18 -30 -13 0 -34 -5 -48 -11 -20 -10 -29 -9 -43 2 -16 13 -17 12 -4 -4 7 -9 23 -17 34 -17 19 0 19 -1 4 -18 -10 -10 -17 -23 -17 -29 0 -28 139 -43 200 -23 16 6 0 7 -45 4 -118 -7 -178 18 -118 50 21 11 23 15 10 16 -34 0 -6 20 29 20 28 0 34 4 34 21 0 11 -5 29 -10 40 -9 15 -7 19 7 19 9 0 27 10 40 22 35 33 38 15 3 -20 -37 -37 -38 -55 -5 -76 14 -9 25 -21 25 -26 0 -13 -33 -13 -46 0 -5 5 -15 6 -23 0 -11 -6 -4 -10 23 -15 55 -11 67 7 30 46 l-29 30 37 35 c45 41 57 42 88 9 29 -31 46 -32 60 -2 10 20 10 20 -3 5 -18 -23 -34 -23 -47 1 -5 11 -20 23 -32 27 -20 6 -20 8 -5 19 9 7 17 16 17 21 0 4 -5 3 -12 -4 -7 -7 -20 -12 -29 -12 -10 0 -31 -11 -47 -25 -17 -14 -34 -25 -40 -25 -19 0 -34 30 -28 55 16 62 79 84 123 43 13 -12 23 -16 23 -9 0 6 -7 14 -15 17 -10 4 -13 13 -10 25 7 20 -9 27 -20 9z" transform="translate(0,38) scale(0.1,-0.1)" stroke="none" fill="#38999E"/>

<path d="M465 269 c-4 -11 -4 -23 -1 -26 8 -9 -13 -43 -28 -43 -7 0 -23 11 -36 25 -31 33 -43 32 -88 -9 l-37 -35 29 -30 c23 -24 27 -34 18 -43 -9 -9 -22 -9 -57 0 -39 10 -50 10 -76 -4 -66 -34 -2 -58 128 -48 66 5 88 3 107 -9 28 -19 46 -6 46 31 0 24 34 62 99 110 39 29 45 64 7 39 -27 -18 -36 -13 -36 18 0 44 -62 65 -75 24z" transform="translate(0,38) scale(0.1,-0.1)" stroke="none" fill="#E5E3DF"/>

</g>

<g id="2" transform="translate(128.0,0)scale(1,1)">

<path d="M400 300 c0 -11 5 -20 10 -20 6 0 10 9 10 20 0 11 -4 20 -10 20 -5 0 -10 -9 -10 -20z" transform="translate(0,38) scale(0.1,-0.1)" stroke="none" fill="#38999E"/>

<path d="M64 195 c10 -8 23 -12 28 -9 14 9 -2 24 -25 24 -21 -1 -21 -1 -3 -15z" transform="translate(0,38) scale(0.1,-0.1)" stroke="none" fill="#E5E3DF"/>

<path d="M540 315 c0 -12 50 -59 56 -53 3 4 -5 18 -19 32 -25 25 -37 32 -37 21z" transform="translate(0,38) scale(0.1,-0.1)" stroke="none" fill="#38999E"/>

<path d="M85 230 c4 -6 -5 -10 -19 -10 -33 0 -35 -27 -3 -39 28 -10 50 -3 43 15 -3 7 0 16 6 20 7 4 6 9 -3 15 -19 12 -32 11 -24 -1z m10 -29 c10 -17 -11 -21 -31 -6 -18 14 -18 14 3 15 12 0 24 -4 28 -9z" transform="translate(0,38) scale(0.1,-0.1)" stroke="none" fill="#38999E"/>

<path d="M167 199 c-45 -24 -53 -37 -34 -57 13 -13 21 -13 42 -4 14 7 36 12 49 12 19 0 22 4 18 29 -5 37 -29 43 -75 20z" transform="translate(0,38) scale(0.1,-0.1)" stroke="none" fill="#E5E3DF"/>

<path d="M461 283 c0 -11 3 -13 6 -5 6 15 45 16 61 0 7 -7 12 -22 12 -33 0 -31 9 -36 36 -18 38 25 32 -10 -7 -39 -66 -49 -99 -86 -99 -111 0 -35 -20 -49 -44 -31 -11 8 -25 14 -30 14 -6 0 4 -10 22 -21 38 -25 62 -14 62 30 1 33 22 60 81 99 53 36 64 55 43 73 -11 9 -18 9 -26 1 -16 -16 -31 -15 -25 2 3 7 -1 23 -9 35 -20 28 -84 30 -83 4z" transform="translate(0,38) scale(0.1,-0.1)" stroke="none" fill="#38999E"/>

<path d="M140 333 c-25 -9 -70 -56 -70 -73 0 -8 14 -21 31 -27 53 -20 99 13 99 72 0 29 -25 41 -60 28z" transform="translate(0,38) scale(0.1,-0.1)" stroke="none" fill="#E5E3DF"/>

<path d="M260 330 c-26 -26 -35 -66 -20 -85 17 -21 27 -19 62 10 16 14 38 25 48 25 30 0 34 20 9 46 -28 29 -72 31 -99 4z" transform="translate(0,38) scale(0.1,-0.1)" stroke="none" fill="#E5E3DF"/>

<path d="M335 370 c-3 -5 -19 -10 -34 -10 -16 0 -37 -10 -50 -24 l-23 -25 -28 21 c-25 18 -32 19 -64 8 -40 -13 -80 -61 -73 -88 4 -14 5 -13 6 4 1 22 44 67 75 78 33 11 56 -3 56 -35 0 -29 -30 -69 -53 -69 -8 0 -8 -3 2 -9 12 -8 11 -13 -10 -30 -22 -19 -21 -19 18 1 28 15 38 25 30 31 -9 6 -9 10 1 14 6 2 12 11 12 19 0 8 5 14 10 14 6 0 10 -7 10 -15 0 -8 5 -15 10 -15 17 0 11 -18 -7 -23 -15 -4 -16 -5 -2 -6 11 -1 18 -12 21 -31 4 -26 1 -30 -18 -30 -13 0 -34 -5 -48 -11 -20 -10 -29 -9 -43 2 -16 13 -17 12 -4 -4 7 -9 23 -17 34 -17 19 0 19 -1 4 -18 -10 -10 -17 -23 -17 -29 0 -28 139 -43 200 -23 16 6 0 7 -45 4 -118 -7 -178 18 -118 50 21 11 23 15 10 16 -34 0 -6 20 29 20 28 0 34 4 34 21 0 11 -5 29 -10 40 -9 15 -7 19 7 19 9 0 27 10 40 22 35 33 38 15 3 -20 -37 -37 -38 -55 -5 -76 14 -9 25 -21 25 -26 0 -13 -33 -13 -46 0 -5 5 -15 6 -23 0 -11 -6 -4 -10 23 -15 55 -11 67 7 30 46 l-29 30 37 35 c45 41 57 42 88 9 29 -31 46 -32 60 -2 10 20 10 20 -3 5 -18 -23 -34 -23 -47 1 -5 11 -20 23 -32 27 -20 6 -20 8 -5 19 9 7 17 16 17 21 0 4 -5 3 -12 -4 -7 -7 -20 -12 -29 -12 -10 0 -31 -11 -47 -25 -17 -14 -34 -25 -40 -25 -19 0 -34 30 -28 55 16 62 79 84 123 43 13 -12 23 -16 23 -9 0 6 -7 14 -15 17 -10 4 -13 13 -10 25 7 20 -9 27 -20 9z" transform="translate(0,38) scale(0.1,-0.1)" stroke="none" fill="#38999E"/>

<path d="M465 269 c-4 -11 -4 -23 -1 -26 8 -9 -13 -43 -28 -43 -7 0 -23 11 -36 25 -31 33 -43 32 -88 -9 l-37 -35 29 -30 c23 -24 27 -34 18 -43 -9 -9 -22 -9 -57 0 -39 10 -50 10 -76 -4 -66 -34 -2 -58 128 -48 66 5 88 3 107 -9 28 -19 46 -6 46 31 0 24 34 62 99 110 39 29 45 64 7 39 -27 -18 -36 -13 -36 18 0 44 -62 65 -75 24z" transform="translate(0,38) scale(0.1,-0.1)" stroke="none" fill="#E5E3DF"/>

</g>

<g id="3" transform="translate(192.0,0)scale(1,1)">

<path d="M400 300 c0 -11 5 -20 10 -20 6 0 10 9 10 20 0 11 -4 20 -10 20 -5 0 -10 -9 -10 -20z" transform="translate(0,38) scale(0.1,-0.1)" stroke="none" fill="#38999E"/>

<path d="M64 195 c10 -8 23 -12 28 -9 14 9 -2 24 -25 24 -21 -1 -21 -1 -3 -15z" transform="translate(0,38) scale(0.1,-0.1)" stroke="none" fill="#E5E3DF"/>

<path d="M540 315 c0 -12 50 -59 56 -53 3 4 -5 18 -19 32 -25 25 -37 32 -37 21z" transform="translate(0,38) scale(0.1,-0.1)" stroke="none" fill="#38999E"/>

<path d="M85 230 c4 -6 -5 -10 -19 -10 -33 0 -35 -27 -3 -39 28 -10 50 -3 43 15 -3 7 0 16 6 20 7 4 6 9 -3 15 -19 12 -32 11 -24 -1z m10 -29 c10 -17 -11 -21 -31 -6 -18 14 -18 14 3 15 12 0 24 -4 28 -9z" transform="translate(0,38) scale(0.1,-0.1)" stroke="none" fill="#38999E"/>

<path d="M167 199 c-45 -24 -53 -37 -34 -57 13 -13 21 -13 42 -4 14 7 36 12 49 12 19 0 22 4 18 29 -5 37 -29 43 -75 20z" transform="translate(0,38) scale(0.1,-0.1)" stroke="none" fill="#E5E3DF"/>

<path d="M461 283 c0 -11 3 -13 6 -5 6 15 45 16 61 0 7 -7 12 -22 12 -33 0 -31 9 -36 36 -18 38 25 32 -10 -7 -39 -66 -49 -99 -86 -99 -111 0 -35 -20 -49 -44 -31 -11 8 -25 14 -30 14 -6 0 4 -10 22 -21 38 -25 62 -14 62 30 1 33 22 60 81 99 53 36 64 55 43 73 -11 9 -18 9 -26 1 -16 -16 -31 -15 -25 2 3 7 -1 23 -9 35 -20 28 -84 30 -83 4z" transform="translate(0,38) scale(0.1,-0.1)" stroke="none" fill="#38999E"/>

<path d="M140 333 c-25 -9 -70 -56 -70 -73 0 -8 14 -21 31 -27 53 -20 99 13 99 72 0 29 -25 41 -60 28z" transform="translate(0,38) scale(0.1,-0.1)" stroke="none" fill="#E5E3DF"/>

<path d="M260 330 c-26 -26 -35 -66 -20 -85 17 -21 27 -19 62 10 16 14 38 25 48 25 30 0 34 20 9 46 -28 29 -72 31 -99 4z" transform="translate(0,38) scale(0.1,-0.1)" stroke="none" fill="#E5E3DF"/>

<path d="M335 370 c-3 -5 -19 -10 -34 -10 -16 0 -37 -10 -50 -24 l-23 -25 -28 21 c-25 18 -32 19 -64 8 -40 -13 -80 -61 -73 -88 4 -14 5 -13 6 4 1 22 44 67 75 78 33 11 56 -3 56 -35 0 -29 -30 -69 -53 -69 -8 0 -8 -3 2 -9 12 -8 11 -13 -10 -30 -22 -19 -21 -19 18 1 28 15 38 25 30 31 -9 6 -9 10 1 14 6 2 12 11 12 19 0 8 5 14 10 14 6 0 10 -7 10 -15 0 -8 5 -15 10 -15 17 0 11 -18 -7 -23 -15 -4 -16 -5 -2 -6 11 -1 18 -12 21 -31 4 -26 1 -30 -18 -30 -13 0 -34 -5 -48 -11 -20 -10 -29 -9 -43 2 -16 13 -17 12 -4 -4 7 -9 23 -17 34 -17 19 0 19 -1 4 -18 -10 -10 -17 -23 -17 -29 0 -28 139 -43 200 -23 16 6 0 7 -45 4 -118 -7 -178 18 -118 50 21 11 23 15 10 16 -34 0 -6 20 29 20 28 0 34 4 34 21 0 11 -5 29 -10 40 -9 15 -7 19 7 19 9 0 27 10 40 22 35 33 38 15 3 -20 -37 -37 -38 -55 -5 -76 14 -9 25 -21 25 -26 0 -13 -33 -13 -46 0 -5 5 -15 6 -23 0 -11 -6 -4 -10 23 -15 55 -11 67 7 30 46 l-29 30 37 35 c45 41 57 42 88 9 29 -31 46 -32 60 -2 10 20 10 20 -3 5 -18 -23 -34 -23 -47 1 -5 11 -20 23 -32 27 -20 6 -20 8 -5 19 9 7 17 16 17 21 0 4 -5 3 -12 -4 -7 -7 -20 -12 -29 -12 -10 0 -31 -11 -47 -25 -17 -14 -34 -25 -40 -25 -19 0 -34 30 -28 55 16 62 79 84 123 43 13 -12 23 -16 23 -9 0 6 -7 14 -15 17 -10 4 -13 13 -10 25 7 20 -9 27 -20 9z" transform="translate(0,38) scale(0.1,-0.1)" stroke="none" fill="#38999E"/>

<path d="M465 269 c-4 -11 -4 -23 -1 -26 8 -9 -13 -43 -28 -43 -7 0 -23 11 -36 25 -31 33 -43 32 -88 -9 l-37 -35 29 -30 c23 -24 27 -34 18 -43 -9 -9 -22 -9 -57 0 -39 10 -50 10 -76 -4 -66 -34 -2 -58 128 -48 66 5 88 3 107 -9 28 -19 46 -6 46 31 0 24 34 62 99 110 39 29 45 64 7 39 -27 -18 -36 -13 -36 18 0 44 -62 65 -75 24z" transform="translate(0,38) scale(0.1,-0.1)" stroke="none" fill="#E5E3DF"/>

</g>

<g id="4" transform="translate(256.0,0)scale(1,1)">

<path d="M400 300 c0 -11 5 -20 10 -20 6 0 10 9 10 20 0 11 -4 20 -10 20 -5 0 -10 -9 -10 -20z" transform="translate(0,38) scale(0.1,-0.1)" stroke="none" fill="#38999E"/>

<path d="M64 195 c10 -8 23 -12 28 -9 14 9 -2 24 -25 24 -21 -1 -21 -1 -3 -15z" transform="translate(0,38) scale(0.1,-0.1)" stroke="none" fill="#E5E3DF"/>

<path d="M540 315 c0 -12 50 -59 56 -53 3 4 -5 18 -19 32 -25 25 -37 32 -37 21z" transform="translate(0,38) scale(0.1,-0.1)" stroke="none" fill="#38999E"/>

<path d="M85 230 c4 -6 -5 -10 -19 -10 -33 0 -35 -27 -3 -39 28 -10 50 -3 43 15 -3 7 0 16 6 20 7 4 6 9 -3 15 -19 12 -32 11 -24 -1z m10 -29 c10 -17 -11 -21 -31 -6 -18 14 -18 14 3 15 12 0 24 -4 28 -9z" transform="translate(0,38) scale(0.1,-0.1)" stroke="none" fill="#38999E"/>

<path d="M167 199 c-45 -24 -53 -37 -34 -57 13 -13 21 -13 42 -4 14 7 36 12 49 12 19 0 22 4 18 29 -5 37 -29 43 -75 20z" transform="translate(0,38) scale(0.1,-0.1)" stroke="none" fill="#E5E3DF"/>

<path d="M461 283 c0 -11 3 -13 6 -5 6 15 45 16 61 0 7 -7 12 -22 12 -33 0 -31 9 -36 36 -18 38 25 32 -10 -7 -39 -66 -49 -99 -86 -99 -111 0 -35 -20 -49 -44 -31 -11 8 -25 14 -30 14 -6 0 4 -10 22 -21 38 -25 62 -14 62 30 1 33 22 60 81 99 53 36 64 55 43 73 -11 9 -18 9 -26 1 -16 -16 -31 -15 -25 2 3 7 -1 23 -9 35 -20 28 -84 30 -83 4z" transform="translate(0,38) scale(0.1,-0.1)" stroke="none" fill="#38999E"/>

<path d="M140 333 c-25 -9 -70 -56 -70 -73 0 -8 14 -21 31 -27 53 -20 99 13 99 72 0 29 -25 41 -60 28z" transform="translate(0,38) scale(0.1,-0.1)" stroke="none" fill="#E5E3DF"/>

<path d="M260 330 c-26 -26 -35 -66 -20 -85 17 -21 27 -19 62 10 16 14 38 25 48 25 30 0 34 20 9 46 -28 29 -72 31 -99 4z" transform="translate(0,38) scale(0.1,-0.1)" stroke="none" fill="#E5E3DF"/>

<path d="M335 370 c-3 -5 -19 -10 -34 -10 -16 0 -37 -10 -50 -24 l-23 -25 -28 21 c-25 18 -32 19 -64 8 -40 -13 -80 -61 -73 -88 4 -14 5 -13 6 4 1 22 44 67 75 78 33 11 56 -3 56 -35 0 -29 -30 -69 -53 -69 -8 0 -8 -3 2 -9 12 -8 11 -13 -10 -30 -22 -19 -21 -19 18 1 28 15 38 25 30 31 -9 6 -9 10 1 14 6 2 12 11 12 19 0 8 5 14 10 14 6 0 10 -7 10 -15 0 -8 5 -15 10 -15 17 0 11 -18 -7 -23 -15 -4 -16 -5 -2 -6 11 -1 18 -12 21 -31 4 -26 1 -30 -18 -30 -13 0 -34 -5 -48 -11 -20 -10 -29 -9 -43 2 -16 13 -17 12 -4 -4 7 -9 23 -17 34 -17 19 0 19 -1 4 -18 -10 -10 -17 -23 -17 -29 0 -28 139 -43 200 -23 16 6 0 7 -45 4 -118 -7 -178 18 -118 50 21 11 23 15 10 16 -34 0 -6 20 29 20 28 0 34 4 34 21 0 11 -5 29 -10 40 -9 15 -7 19 7 19 9 0 27 10 40 22 35 33 38 15 3 -20 -37 -37 -38 -55 -5 -76 14 -9 25 -21 25 -26 0 -13 -33 -13 -46 0 -5 5 -15 6 -23 0 -11 -6 -4 -10 23 -15 55 -11 67 7 30 46 l-29 30 37 35 c45 41 57 42 88 9 29 -31 46 -32 60 -2 10 20 10 20 -3 5 -18 -23 -34 -23 -47 1 -5 11 -20 23 -32 27 -20 6 -20 8 -5 19 9 7 17 16 17 21 0 4 -5 3 -12 -4 -7 -7 -20 -12 -29 -12 -10 0 -31 -11 -47 -25 -17 -14 -34 -25 -40 -25 -19 0 -34 30 -28 55 16 62 79 84 123 43 13 -12 23 -16 23 -9 0 6 -7 14 -15 17 -10 4 -13 13 -10 25 7 20 -9 27 -20 9z" transform="translate(0,38) scale(0.1,-0.1)" stroke="none" fill="#38999E"/>

<path d="M465 269 c-4 -11 -4 -23 -1 -26 8 -9 -13 -43 -28 -43 -7 0 -23 11 -36 25 -31 33 -43 32 -88 -9 l-37 -35 29 -30 c23 -24 27 -34 18 -43 -9 -9 -22 -9 -57 0 -39 10 -50 10 -76 -4 -66 -34 -2 -58 128 -48 66 5 88 3 107 -9 28 -19 46 -6 46 31 0 24 34 62 99 110 39 29 45 64 7 39 -27 -18 -36 -13 -36 18 0 44 -62 65 -75 24z" transform="translate(0,38) scale(0.1,-0.1)" stroke="none" fill="#E5E3DF"/>

</g>

</g>
<g id="row2" transform="translate(8,76.0)">
<g id="0" transform="translate(0.0,0)scale(1,1)">

<path d="M400 300 c0 -11 5 -20 10 -20 6 0 10 9 10 20 0 11 -4 20 -10 20 -5 0 -10 -9 -10 -20z" transform="translate(0,38) scale(0.1,-0.1)" stroke="none" fill="#38999E"/>

<path d="M64 195 c10 -8 23 -12 28 -9 14 9 -2 24 -25 24 -21 -1 -21 -1 -3 -15z" transform="translate(0,38) scale(0.1,-0.1)" stroke="none" fill="#E5E3DF"/>

<path d="M540 315 c0 -12 50 -59 56 -53 3 4 -5 18 -19 32 -25 25 -37 32 -37 21z" transform="translate(0,38) scale(0.1,-0.1)" stroke="none" fill="#38999E"/>

<path d="M85 230 c4 -6 -5 -10 -19 -10 -33 0 -35 -27 -3 -39 28 -10 50 -3 43 15 -3 7 0 16 6 20 7 4 6 9 -3 15 -19 12 -32 11 -24 -1z m10 -29 c10 -17 -11 -21 -31 -6 -18 14 -18 14 3 15 12 0 24 -4 28 -9z" transform="translate(0,38) scale(0.1,-0.1)" stroke="none" fill="#38999E"/>

<path d="M167 199 c-45 -24 -53 -37 -34 -57 13 -13 21 -13 42 -4 14 7 36 12 49 12 19 0 22 4 18 29 -5 37 -29 43 -75 20z" transform="translate(0,38) scale(0.1,-0.1)" stroke="none" fill="#E5E3DF"/>

<path d="M461 283 c0 -11 3 -13 6 -5 6 15 45 16 61 0 7 -7 12 -22 12 -33 0 -31 9 -36 36 -18 38 25 32 -10 -7 -39 -66 -49 -99 -86 -99 -111 0 -35 -20 -49 -44 -31 -11 8 -25 14 -30 14 -6 0 4 -10 22 -21 38 -25 62 -14 62 30 1 33 22 60 81 99 53 36 64 55 43 73 -11 9 -18 9 -26 1 -16 -16 -31 -15 -25 2 3 7 -1 23 -9 35 -20 28 -84 30 -83 4z" transform="translate(0,38) scale(0.1,-0.1)" stroke="none" fill="#38999E"/>

<path d="M140 333 c-25 -9 -70 -56 -70 -73 0 -8 14 -21 31 -27 53 -20 99 13 99 72 0 29 -25 41 -60 28z" transform="translate(0,38) scale(0.1,-0.1)" stroke="none" fill="#E5E3DF"/>

<path d="M260 330 c-26 -26 -35 -66 -20 -85 17 -21 27 -19 62 10 16 14 38 25 48 25 30 0 34 20 9 46 -28 29 -72 31 -99 4z" transform="translate(0,38) scale(0.1,-0.1)" stroke="none" fill="#E5E3DF"/>

<path d="M335 370 c-3 -5 -19 -10 -34 -10 -16 0 -37 -10 -50 -24 l-23 -25 -28 21 c-25 18 -32 19 -64 8 -40 -13 -80 -61 -73 -88 4 -14 5 -13 6 4 1 22 44 67 75 78 33 11 56 -3 56 -35 0 -29 -30 -69 -53 -69 -8 0 -8 -3 2 -9 12 -8 11 -13 -10 -30 -22 -19 -21 -19 18 1 28 15 38 25 30 31 -9 6 -9 10 1 14 6 2 12 11 12 19 0 8 5 14 10 14 6 0 10 -7 10 -15 0 -8 5 -15 10 -15 17 0 11 -18 -7 -23 -15 -4 -16 -5 -2 -6 11 -1 18 -12 21 -31 4 -26 1 -30 -18 -30 -13 0 -34 -5 -48 -11 -20 -10 -29 -9 -43 2 -16 13 -17 12 -4 -4 7 -9 23 -17 34 -17 19 0 19 -1 4 -18 -10 -10 -17 -23 -17 -29 0 -28 139 -43 200 -23 16 6 0 7 -45 4 -118 -7 -178 18 -118 50 21 11 23 15 10 16 -34 0 -6 20 29 20 28 0 34 4 34 21 0 11 -5 29 -10 40 -9 15 -7 19 7 19 9 0 27 10 40 22 35 33 38 15 3 -20 -37 -37 -38 -55 -5 -76 14 -9 25 -21 25 -26 0 -13 -33 -13 -46 0 -5 5 -15 6 -23 0 -11 -6 -4 -10 23 -15 55 -11 67 7 30 46 l-29 30 37 35 c45 41 57 42 88 9 29 -31 46 -32 60 -2 10 20 10 20 -3 5 -18 -23 -34 -23 -47 1 -5 11 -20 23 -32 27 -20 6 -20 8 -5 19 9 7 17 16 17 21 0 4 -5 3 -12 -4 -7 -7 -20 -12 -29 -12 -10 0 -31 -11 -47 -25 -17 -14 -34 -25 -40 -25 -19 0 -34 30 -28 55 16 62 79 84 123 43 13 -12 23 -16 23 -9 0 6 -7 14 -15 17 -10 4 -13 13 -10 25 7 20 -9 27 -20 9z" transform="translate(0,38) scale(0.1,-0.1)" stroke="none" fill="#38999E"/>

<path d="M465 269 c-4 -11 -4 -23 -1 -26 8 -9 -13 -43 -28 -43 -7 0 -23 11 -36 25 -31 33 -43 32 -88 -9 l-37 -35 29 -30 c23 -24 27 -34 18 -43 -9 -9 -22 -9 -57 0 -39 10 -50 10 -76 -4 -66 -34 -2 -58 128 -48 66 5 88 3 107 -9 28 -19 46 -6 46 31 0 24 34 62 99 110 39 29 45 64 7 39 -27 -18 -36 -13 -36 18 0 44 -62 65 -75 24z" transform="translate(0,38) scale(0.1,-0.1)" stroke="none" fill="#E5E3DF"/>

</g>

<g id="1" transform="translate(64.0,0)scale(1,1)">

<path d="M400 300 c0 -11 5 -20 10 -20 6 0 10 9 10 20 0 11 -4 20 -10 20 -5 0 -10 -9 -10 -20z" transform="translate(0,38) scale(0.1,-0.1)" stroke="none" fill="#38999E"/>

<path d="M64 195 c10 -8 23 -12 28 -9 14 9 -2 24 -25 24 -21 -1 -21 -1 -3 -15z" transform="translate(0,38) scale(0.1,-0.1)" stroke="none" fill="#E5E3DF"/>

<path d="M540 315 c0 -12 50 -59 56 -53 3 4 -5 18 -19 32 -25 25 -37 32 -37 21z" transform="translate(0,38) scale(0.1,-0.1)" stroke="none" fill="#38999E"/>

<path d="M85 230 c4 -6 -5 -10 -19 -10 -33 0 -35 -27 -3 -39 28 -10 50 -3 43 15 -3 7 0 16 6 20 7 4 6 9 -3 15 -19 12 -32 11 -24 -1z m10 -29 c10 -17 -11 -21 -31 -6 -18 14 -18 14 3 15 12 0 24 -4 28 -9z" transform="translate(0,38) scale(0.1,-0.1)" stroke="none" fill="#38999E"/>

<path d="M167 199 c-45 -24 -53 -37 -34 -57 13 -13 21 -13 42 -4 14 7 36 12 49 12 19 0 22 4 18 29 -5 37 -29 43 -75 20z" transform="translate(0,38) scale(0.1,-0.1)" stroke="none" fill="#E5E3DF"/>

<path d="M461 283 c0 -11 3 -13 6 -5 6 15 45 16 61 0 7 -7 12 -22 12 -33 0 -31 9 -36 36 -18 38 25 32 -10 -7 -39 -66 -49 -99 -86 -99 -111 0 -35 -20 -49 -44 -31 -11 8 -25 14 -30 14 -6 0 4 -10 22 -21 38 -25 62 -14 62 30 1 33 22 60 81 99 53 36 64 55 43 73 -11 9 -18 9 -26 1 -16 -16 -31 -15 -25 2 3 7 -1 23 -9 35 -20 28 -84 30 -83 4z" transform="translate(0,38) scale(0.1,-0.1)" stroke="none" fill="#38999E"/>

<path d="M140 333 c-25 -9 -70 -56 -70 -73 0 -8 14 -21 31 -27 53 -20 99 13 99 72 0 29 -25 41 -60 28z" transform="translate(0,38) scale(0.1,-0.1)" stroke="none" fill="#E5E3DF"/>

<path d="M260 330 c-26 -26 -35 -66 -20 -85 17 -21 27 -19 62 10 16 14 38 25 48 25 30 0 34 20 9 46 -28 29 -72 31 -99 4z" transform="translate(0,38) scale(0.1,-0.1)" stroke="none" fill="#E5E3DF"/>

<path d="M335 370 c-3 -5 -19 -10 -34 -10 -16 0 -37 -10 -50 -24 l-23 -25 -28 21 c-25 18 -32 19 -64 8 -40 -13 -80 -61 -73 -88 4 -14 5 -13 6 4 1 22 44 67 75 78 33 11 56 -3 56 -35 0 -29 -30 -69 -53 -69 -8 0 -8 -3 2 -9 12 -8 11 -13 -10 -30 -22 -19 -21 -19 18 1 28 15 38 25 30 31 -9 6 -9 10 1 14 6 2 12 11 12 19 0 8 5 14 10 14 6 0 10 -7 10 -15 0 -8 5 -15 10 -15 17 0 11 -18 -7 -23 -15 -4 -16 -5 -2 -6 11 -1 18 -12 21 -31 4 -26 1 -30 -18 -30 -13 0 -34 -5 -48 -11 -20 -10 -29 -9 -43 2 -16 13 -17 12 -4 -4 7 -9 23 -17 34 -17 19 0 19 -1 4 -18 -10 -10 -17 -23 -17 -29 0 -28 139 -43 200 -23 16 6 0 7 -45 4 -118 -7 -178 18 -118 50 21 11 23 15 10 16 -34 0 -6 20 29 20 28 0 34 4 34 21 0 11 -5 29 -10 40 -9 15 -7 19 7 19 9 0 27 10 40 22 35 33 38 15 3 -20 -37 -37 -38 -55 -5 -76 14 -9 25 -21 25 -26 0 -13 -33 -13 -46 0 -5 5 -15 6 -23 0 -11 -6 -4 -10 23 -15 55 -11 67 7 30 46 l-29 30 37 35 c45 41 57 42 88 9 29 -31 46 -32 60 -2 10 20 10 20 -3 5 -18 -23 -34 -23 -47 1 -5 11 -20 23 -32 27 -20 6 -20 8 -5 19 9 7 17 16 17 21 0 4 -5 3 -12 -4 -7 -7 -20 -12 -29 -12 -10 0 -31 -11 -47 -25 -17 -14 -34 -25 -40 -25 -19 0 -34 30 -28 55 16 62 79 84 123 43 13 -12 23 -16 23 -9 0 6 -7 14 -15 17 -10 4 -13 13 -10 25 7 20 -9 27 -20 9z" transform="translate(0,38) scale(0.1,-0.1)" stroke="none" fill="#38999E"/>

<path d="M465 269 c-4 -11 -4 -23 -1 -26 8 -9 -13 -43 -28 -43 -7 0 -23 11 -36 25 -31 33 -43 32 -88 -9 l-37 -35 29 -30 c23 -24 27 -34 18 -43 -9 -9 -22 -9 -57 0 -39 10 -50 10 -76 -4 -66 -34 -2 -58 128 -48 66 5 88 3 107 -9 28 -19 46 -6 46 31 0 24 34 62 99 110 39 29 45 64 7 39 -27 -18 -36 -13 -36 18 0 44 -62 65 -75 24z" transform="translate(0,38) scale(0.1,-0.1)" stroke="none" fill="#E5E3DF"/>

</g>

<g id="2" transform="translate(128.0,0)scale(1,1)">

<path d="M400 300 c0 -11 5 -20 10 -20 6 0 10 9 10 20 0 11 -4 20 -10 20 -5 0 -10 -9 -10 -20z" transform="translate(0,38) scale(0.1,-0.1)" stroke="none" fill="#38999E"/>

<path d="M64 195 c10 -8 23 -12 28 -9 14 9 -2 24 -25 24 -21 -1 -21 -1 -3 -15z" transform="translate(0,38) scale(0.1,-0.1)" stroke="none" fill="#E5E3DF"/>

<path d="M540 315 c0 -12 50 -59 56 -53 3 4 -5 18 -19 32 -25 25 -37 32 -37 21z" transform="translate(0,38) scale(0.1,-0.1)" stroke="none" fill="#38999E"/>

<path d="M85 230 c4 -6 -5 -10 -19 -10 -33 0 -35 -27 -3 -39 28 -10 50 -3 43 15 -3 7 0 16 6 20 7 4 6 9 -3 15 -19 12 -32 11 -24 -1z m10 -29 c10 -17 -11 -21 -31 -6 -18 14 -18 14 3 15 12 0 24 -4 28 -9z" transform="translate(0,38) scale(0.1,-0.1)" stroke="none" fill="#38999E"/>

<path d="M167 199 c-45 -24 -53 -37 -34 -57 13 -13 21 -13 42 -4 14 7 36 12 49 12 19 0 22 4 18 29 -5 37 -29 43 -75 20z" transform="translate(0,38) scale(0.1,-0.1)" stroke="none" fill="#E5E3DF"/>

<path d="M461 283 c0 -11 3 -13 6 -5 6 15 45 16 61 0 7 -7 12 -22 12 -33 0 -31 9 -36 36 -18 38 25 32 -10 -7 -39 -66 -49 -99 -86 -99 -111 0 -35 -20 -49 -44 -31 -11 8 -25 14 -30 14 -6 0 4 -10 22 -21 38 -25 62 -14 62 30 1 33 22 60 81 99 53 36 64 55 43 73 -11 9 -18 9 -26 1 -16 -16 -31 -15 -25 2 3 7 -1 23 -9 35 -20 28 -84 30 -83 4z" transform="translate(0,38) scale(0.1,-0.1)" stroke="none" fill="#38999E"/>

<path d="M140 333 c-25 -9 -70 -56 -70 -73 0 -8 14 -21 31 -27 53 -20 99 13 99 72 0 29 -25 41 -60 28z" transform="translate(0,38) scale(0.1,-0.1)" stroke="none" fill="#E5E3DF"/>

<path d="M260 330 c-26 -26 -35 -66 -20 -85 17 -21 27 -19 62 10 16 14 38 25 48 25 30 0 34 20 9 46 -28 29 -72 31 -99 4z" transform="translate(0,38) scale(0.1,-0.1)" stroke="none" fill="#E5E3DF"/>

<path d="M335 370 c-3 -5 -19 -10 -34 -10 -16 0 -37 -10 -50 -24 l-23 -25 -28 21 c-25 18 -32 19 -64 8 -40 -13 -80 -61 -73 -88 4 -14 5 -13 6 4 1 22 44 67 75 78 33 11 56 -3 56 -35 0 -29 -30 -69 -53 -69 -8 0 -8 -3 2 -9 12 -8 11 -13 -10 -30 -22 -19 -21 -19 18 1 28 15 38 25 30 31 -9 6 -9 10 1 14 6 2 12 11 12 19 0 8 5 14 10 14 6 0 10 -7 10 -15 0 -8 5 -15 10 -15 17 0 11 -18 -7 -23 -15 -4 -16 -5 -2 -6 11 -1 18 -12 21 -31 4 -26 1 -30 -18 -30 -13 0 -34 -5 -48 -11 -20 -10 -29 -9 -43 2 -16 13 -17 12 -4 -4 7 -9 23 -17 34 -17 19 0 19 -1 4 -18 -10 -10 -17 -23 -17 -29 0 -28 139 -43 200 -23 16 6 0 7 -45 4 -118 -7 -178 18 -118 50 21 11 23 15 10 16 -34 0 -6 20 29 20 28 0 34 4 34 21 0 11 -5 29 -10 40 -9 15 -7 19 7 19 9 0 27 10 40 22 35 33 38 15 3 -20 -37 -37 -38 -55 -5 -76 14 -9 25 -21 25 -26 0 -13 -33 -13 -46 0 -5 5 -15 6 -23 0 -11 -6 -4 -10 23 -15 55 -11 67 7 30 46 l-29 30 37 35 c45 41 57 42 88 9 29 -31 46 -32 60 -2 10 20 10 20 -3 5 -18 -23 -34 -23 -47 1 -5 11 -20 23 -32 27 -20 6 -20 8 -5 19 9 7 17 16 17 21 0 4 -5 3 -12 -4 -7 -7 -20 -12 -29 -12 -10 0 -31 -11 -47 -25 -17 -14 -34 -25 -40 -25 -19 0 -34 30 -28 55 16 62 79 84 123 43 13 -12 23 -16 23 -9 0 6 -7 14 -15 17 -10 4 -13 13 -10 25 7 20 -9 27 -20 9z" transform="translate(0,38) scale(0.1,-0.1)" stroke="none" fill="#38999E"/>

<path d="M465 269 c-4 -11 -4 -23 -1 -26 8 -9 -13 -43 -28 -43 -7 0 -23 11 -36 25 -31 33 -43 32 -88 -9 l-37 -35 29 -30 c23 -24 27 -34 18 -43 -9 -9 -22 -9 -57 0 -39 10 -50 10 -76 -4 -66 -34 -2 -58 128 -48 66 5 88 3 107 -9 28 -19 46 -6 46 31 0 24 34 62 99 110 39 29 45 64 7 39 -27 -18 -36 -13 -36 18 0 44 -62 65 -75 24z" transform="translate(0,38) scale(0.1,-0.1)" stroke="none" fill="#E5E3DF"/>

</g>

<g id="3" transform="translate(192.0,0)scale(1,1)">

<path d="M400 300 c0 -11 5 -20 10 -20 6 0 10 9 10 20 0 11 -4 20 -10 20 -5 0 -10 -9 -10 -20z" transform="translate(0,38) scale(0.1,-0.1)" stroke="none" fill="#38999E"/>

<path d="M64 195 c10 -8 23 -12 28 -9 14 9 -2 24 -25 24 -21 -1 -21 -1 -3 -15z" transform="translate(0,38) scale(0.1,-0.1)" stroke="none" fill="#E5E3DF"/>

<path d="M540 315 c0 -12 50 -59 56 -53 3 4 -5 18 -19 32 -25 25 -37 32 -37 21z" transform="translate(0,38) scale(0.1,-0.1)" stroke="none" fill="#38999E"/>

<path d="M85 230 c4 -6 -5 -10 -19 -10 -33 0 -35 -27 -3 -39 28 -10 50 -3 43 15 -3 7 0 16 6 20 7 4 6 9 -3 15 -19 12 -32 11 -24 -1z m10 -29 c10 -17 -11 -21 -31 -6 -18 14 -18 14 3 15 12 0 24 -4 28 -9z" transform="translate(0,38) scale(0.1,-0.1)" stroke="none" fill="#38999E"/>

<path d="M167 199 c-45 -24 -53 -37 -34 -57 13 -13 21 -13 42 -4 14 7 36 12 49 12 19 0 22 4 18 29 -5 37 -29 43 -75 20z" transform="translate(0,38) scale(0.1,-0.1)" stroke="none" fill="#E5E3DF"/>

<path d="M461 283 c0 -11 3 -13 6 -5 6 15 45 16 61 0 7 -7 12 -22 12 -33 0 -31 9 -36 36 -18 38 25 32 -10 -7 -39 -66 -49 -99 -86 -99 -111 0 -35 -20 -49 -44 -31 -11 8 -25 14 -30 14 -6 0 4 -10 22 -21 38 -25 62 -14 62 30 1 33 22 60 81 99 53 36 64 55 43 73 -11 9 -18 9 -26 1 -16 -16 -31 -15 -25 2 3 7 -1 23 -9 35 -20 28 -84 30 -83 4z" transform="translate(0,38) scale(0.1,-0.1)" stroke="none" fill="#38999E"/>

<path d="M140 333 c-25 -9 -70 -56 -70 -73 0 -8 14 -21 31 -27 53 -20 99 13 99 72 0 29 -25 41 -60 28z" transform="translate(0,38) scale(0.1,-0.1)" stroke="none" fill="#E5E3DF"/>

<path d="M260 330 c-26 -26 -35 -66 -20 -85 17 -21 27 -19 62 10 16 14 38 25 48 25 30 0 34 20 9 46 -28 29 -72 31 -99 4z" transform="translate(0,38) scale(0.1,-0.1)" stroke="none" fill="#E5E3DF"/>

<path d="M335 370 c-3 -5 -19 -10 -34 -10 -16 0 -37 -10 -50 -24 l-23 -25 -28 21 c-25 18 -32 19 -64 8 -40 -13 -80 -61 -73 -88 4 -14 5 -13 6 4 1 22 44 67 75 78 33 11 56 -3 56 -35 0 -29 -30 -69 -53 -69 -8 0 -8 -3 2 -9 12 -8 11 -13 -10 -30 -22 -19 -21 -19 18 1 28 15 38 25 30 31 -9 6 -9 10 1 14 6 2 12 11 12 19 0 8 5 14 10 14 6 0 10 -7 10 -15 0 -8 5 -15 10 -15 17 0 11 -18 -7 -23 -15 -4 -16 -5 -2 -6 11 -1 18 -12 21 -31 4 -26 1 -30 -18 -30 -13 0 -34 -5 -48 -11 -20 -10 -29 -9 -43 2 -16 13 -17 12 -4 -4 7 -9 23 -17 34 -17 19 0 19 -1 4 -18 -10 -10 -17 -23 -17 -29 0 -28 139 -43 200 -23 16 6 0 7 -45 4 -118 -7 -178 18 -118 50 21 11 23 15 10 16 -34 0 -6 20 29 20 28 0 34 4 34 21 0 11 -5 29 -10 40 -9 15 -7 19 7 19 9 0 27 10 40 22 35 33 38 15 3 -20 -37 -37 -38 -55 -5 -76 14 -9 25 -21 25 -26 0 -13 -33 -13 -46 0 -5 5 -15 6 -23 0 -11 -6 -4 -10 23 -15 55 -11 67 7 30 46 l-29 30 37 35 c45 41 57 42 88 9 29 -31 46 -32 60 -2 10 20 10 20 -3 5 -18 -23 -34 -23 -47 1 -5 11 -20 23 -32 27 -20 6 -20 8 -5 19 9 7 17 16 17 21 0 4 -5 3 -12 -4 -7 -7 -20 -12 -29 -12 -10 0 -31 -11 -47 -25 -17 -14 -34 -25 -40 -25 -19 0 -34 30 -28 55 16 62 79 84 123 43 13 -12 23 -16 23 -9 0 6 -7 14 -15 17 -10 4 -13 13 -10 25 7 20 -9 27 -20 9z" transform="translate(0,38) scale(0.1,-0.1)" stroke="none" fill="#38999E"/>

<path d="M465 269 c-4 -11 -4 -23 -1 -26 8 -9 -13 -43 -28 -43 -7 0 -23 11 -36 25 -31 33 -43 32 -88 -9 l-37 -35 29 -30 c23 -24 27 -34 18 -43 -9 -9 -22 -9 -57 0 -39 10 -50 10 -76 -4 -66 -34 -2 -58 128 -48 66 5 88 3 107 -9 28 -19 46 -6 46 31 0 24 34 62 99 110 39 29 45 64 7 39 -27 -18 -36 -13 -36 18 0 44 -62 65 -75 24z" transform="translate(0,38) scale(0.1,-0.1)" stroke="none" fill="#E5E3DF"/>

</g>

<g id="4" transform="translate(256.0,0)scale(1,1)">

<path d="M400 300 c0 -11 5 -20 10 -20 6 0 10 9 10 20 0 11 -4 20 -10 20 -5 0 -10 -9 -10 -20z" transform="translate(0,38) scale(0.1,-0.1)" stroke="none" fill="#38999E"/>

<path d="M64 195 c10 -8 23 -12 28 -9 14 9 -2 24 -25 24 -21 -1 -21 -1 -3 -15z" transform="translate(0,38) scale(0.1,-0.1)" stroke="none" fill="#E5E3DF"/>

<path d="M540 315 c0 -12 50 -59 56 -53 3 4 -5 18 -19 32 -25 25 -37 32 -37 21z" transform="translate(0,38) scale(0.1,-0.1)" stroke="none" fill="#38999E"/>

<path d="M85 230 c4 -6 -5 -10 -19 -10 -33 0 -35 -27 -3 -39 28 -10 50 -3 43 15 -3 7 0 16 6 20 7 4 6 9 -3 15 -19 12 -32 11 -24 -1z m10 -29 c10 -17 -11 -21 -31 -6 -18 14 -18 14 3 15 12 0 24 -4 28 -9z" transform="translate(0,38) scale(0.1,-0.1)" stroke="none" fill="#38999E"/>

<path d="M167 199 c-45 -24 -53 -37 -34 -57 13 -13 21 -13 42 -4 14 7 36 12 49 12 19 0 22 4 18 29 -5 37 -29 43 -75 20z" transform="translate(0,38) scale(0.1,-0.1)" stroke="none" fill="#E5E3DF"/>

<path d="M461 283 c0 -11 3 -13 6 -5 6 15 45 16 61 0 7 -7 12 -22 12 -33 0 -31 9 -36 36 -18 38 25 32 -10 -7 -39 -66 -49 -99 -86 -99 -111 0 -35 -20 -49 -44 -31 -11 8 -25 14 -30 14 -6 0 4 -10 22 -21 38 -25 62 -14 62 30 1 33 22 60 81 99 53 36 64 55 43 73 -11 9 -18 9 -26 1 -16 -16 -31 -15 -25 2 3 7 -1 23 -9 35 -20 28 -84 30 -83 4z" transform="translate(0,38) scale(0.1,-0.1)" stroke="none" fill="#38999E"/>

<path d="M140 333 c-25 -9 -70 -56 -70 -73 0 -8 14 -21 31 -27 53 -20 99 13 99 72 0 29 -25 41 -60 28z" transform="translate(0,38) scale(0.1,-0.1)" stroke="none" fill="#E5E3DF"/>

<path d="M260 330 c-26 -26 -35 -66 -20 -85 17 -21 27 -19 62 10 16 14 38 25 48 25 30 0 34 20 9 46 -28 29 -72 31 -99 4z" transform="translate(0,38) scale(0.1,-0.1)" stroke="none" fill="#E5E3DF"/>

<path d="M335 370 c-3 -5 -19 -10 -34 -10 -16 0 -37 -10 -50 -24 l-23 -25 -28 21 c-25 18 -32 19 -64 8 -40 -13 -80 -61 -73 -88 4 -14 5 -13 6 4 1 22 44 67 75 78 33 11 56 -3 56 -35 0 -29 -30 -69 -53 -69 -8 0 -8 -3 2 -9 12 -8 11 -13 -10 -30 -22 -19 -21 -19 18 1 28 15 38 25 30 31 -9 6 -9 10 1 14 6 2 12 11 12 19 0 8 5 14 10 14 6 0 10 -7 10 -15 0 -8 5 -15 10 -15 17 0 11 -18 -7 -23 -15 -4 -16 -5 -2 -6 11 -1 18 -12 21 -31 4 -26 1 -30 -18 -30 -13 0 -34 -5 -48 -11 -20 -10 -29 -9 -43 2 -16 13 -17 12 -4 -4 7 -9 23 -17 34 -17 19 0 19 -1 4 -18 -10 -10 -17 -23 -17 -29 0 -28 139 -43 200 -23 16 6 0 7 -45 4 -118 -7 -178 18 -118 50 21 11 23 15 10 16 -34 0 -6 20 29 20 28 0 34 4 34 21 0 11 -5 29 -10 40 -9 15 -7 19 7 19 9 0 27 10 40 22 35 33 38 15 3 -20 -37 -37 -38 -55 -5 -76 14 -9 25 -21 25 -26 0 -13 -33 -13 -46 0 -5 5 -15 6 -23 0 -11 -6 -4 -10 23 -15 55 -11 67 7 30 46 l-29 30 37 35 c45 41 57 42 88 9 29 -31 46 -32 60 -2 10 20 10 20 -3 5 -18 -23 -34 -23 -47 1 -5 11 -20 23 -32 27 -20 6 -20 8 -5 19 9 7 17 16 17 21 0 4 -5 3 -12 -4 -7 -7 -20 -12 -29 -12 -10 0 -31 -11 -47 -25 -17 -14 -34 -25 -40 -25 -19 0 -34 30 -28 55 16 62 79 84 123 43 13 -12 23 -16 23 -9 0 6 -7 14 -15 17 -10 4 -13 13 -10 25 7 20 -9 27 -20 9z" transform="translate(0,38) scale(0.1,-0.1)" stroke="none" fill="#38999E"/>

<path d="M465 269 c-4 -11 -4 -23 -1 -26 8 -9 -13 -43 -28 -43 -7 0 -23 11 -36 25 -31 33 -43 32 -88 -9 l-37 -35 29 -30 c23 -24 27 -34 18 -43 -9 -9 -22 -9 -57 0 -39 10 -50 10 -76 -4 -66 -34 -2 -58 128 -48 66 5 88 3 107 -9 28 -19 46 -6 46 31 0 24 34 62 99 110 39 29 45 64 7 39 -27 -18 -36 -13 -36 18 0 44 -62 65 -75 24z" transform="translate(0,38) scale(0.1,-0.1)" stroke="none" fill="#E5E3DF"/>

</g>

</g>
<g id="row3" transform="translate(-24,114.0)">
<g id="0" transform="translate(0.0,0)scale(1,1)">

<path d="M400 300 c0 -11 5 -20 10 -20 6 0 10 9 10 20 0 11 -4 20 -10 20 -5 0 -10 -9 -10 -20z" transform="translate(0,38) scale(0.1,-0.1)" stroke="none" fill="#38999E"/>

<path d="M64 195 c10 -8 23 -12 28 -9 14 9 -2 24 -25 24 -21 -1 -21 -1 -3 -15z" transform="translate(0,38) scale(0.1,-0.1)" stroke="none" fill="#E5E3DF"/>

<path d="M540 315 c0 -12 50 -59 56 -53 3 4 -5 18 -19 32 -25 25 -37 32 -37 21z" transform="translate(0,38) scale(0.1,-0.1)" stroke="none" fill="#38999E"/>

<path d="M85 230 c4 -6 -5 -10 -19 -10 -33 0 -35 -27 -3 -39 28 -10 50 -3 43 15 -3 7 0 16 6 20 7 4 6 9 -3 15 -19 12 -32 11 -24 -1z m10 -29 c10 -17 -11 -21 -31 -6 -18 14 -18 14 3 15 12 0 24 -4 28 -9z" transform="translate(0,38) scale(0.1,-0.1)" stroke="none" fill="#38999E"/>

<path d="M167 199 c-45 -24 -53 -37 -34 -57 13 -13 21 -13 42 -4 14 7 36 12 49 12 19 0 22 4 18 29 -5 37 -29 43 -75 20z" transform="translate(0,38) scale(0.1,-0.1)" stroke="none" fill="#E5E3DF"/>

<path d="M461 283 c0 -11 3 -13 6 -5 6 15 45 16 61 0 7 -7 12 -22 12 -33 0 -31 9 -36 36 -18 38 25 32 -10 -7 -39 -66 -49 -99 -86 -99 -111 0 -35 -20 -49 -44 -31 -11 8 -25 14 -30 14 -6 0 4 -10 22 -21 38 -25 62 -14 62 30 1 33 22 60 81 99 53 36 64 55 43 73 -11 9 -18 9 -26 1 -16 -16 -31 -15 -25 2 3 7 -1 23 -9 35 -20 28 -84 30 -83 4z" transform="translate(0,38) scale(0.1,-0.1)" stroke="none" fill="#38999E"/>

<path d="M140 333 c-25 -9 -70 -56 -70 -73 0 -8 14 -21 31 -27 53 -20 99 13 99 72 0 29 -25 41 -60 28z" transform="translate(0,38) scale(0.1,-0.1)" stroke="none" fill="#E5E3DF"/>

<path d="M260 330 c-26 -26 -35 -66 -20 -85 17 -21 27 -19 62 10 16 14 38 25 48 25 30 0 34 20 9 46 -28 29 -72 31 -99 4z" transform="translate(0,38) scale(0.1,-0.1)" stroke="none" fill="#E5E3DF"/>

<path d="M335 370 c-3 -5 -19 -10 -34 -10 -16 0 -37 -10 -50 -24 l-23 -25 -28 21 c-25 18 -32 19 -64 8 -40 -13 -80 -61 -73 -88 4 -14 5 -13 6 4 1 22 44 67 75 78 33 11 56 -3 56 -35 0 -29 -30 -69 -53 -69 -8 0 -8 -3 2 -9 12 -8 11 -13 -10 -30 -22 -19 -21 -19 18 1 28 15 38 25 30 31 -9 6 -9 10 1 14 6 2 12 11 12 19 0 8 5 14 10 14 6 0 10 -7 10 -15 0 -8 5 -15 10 -15 17 0 11 -18 -7 -23 -15 -4 -16 -5 -2 -6 11 -1 18 -12 21 -31 4 -26 1 -30 -18 -30 -13 0 -34 -5 -48 -11 -20 -10 -29 -9 -43 2 -16 13 -17 12 -4 -4 7 -9 23 -17 34 -17 19 0 19 -1 4 -18 -10 -10 -17 -23 -17 -29 0 -28 139 -43 200 -23 16 6 0 7 -45 4 -118 -7 -178 18 -118 50 21 11 23 15 10 16 -34 0 -6 20 29 20 28 0 34 4 34 21 0 11 -5 29 -10 40 -9 15 -7 19 7 19 9 0 27 10 40 22 35 33 38 15 3 -20 -37 -37 -38 -55 -5 -76 14 -9 25 -21 25 -26 0 -13 -33 -13 -46 0 -5 5 -15 6 -23 0 -11 -6 -4 -10 23 -15 55 -11 67 7 30 46 l-29 30 37 35 c45 41 57 42 88 9 29 -31 46 -32 60 -2 10 20 10 20 -3 5 -18 -23 -34 -23 -47 1 -5 11 -20 23 -32 27 -20 6 -20 8 -5 19 9 7 17 16 17 21 0 4 -5 3 -12 -4 -7 -7 -20 -12 -29 -12 -10 0 -31 -11 -47 -25 -17 -14 -34 -25 -40 -25 -19 0 -34 30 -28 55 16 62 79 84 123 43 13 -12 23 -16 23 -9 0 6 -7 14 -15 17 -10 4 -13 13 -10 25 7 20 -9 27 -20 9z" transform="translate(0,38) scale(0.1,-0.1)" stroke="none" fill="#38999E"/>

<path d="M465 269 c-4 -11 -4 -23 -1 -26 8 -9 -13 -43 -28 -43 -7 0 -23 11 -36 25 -31 33 -43 32 -88 -9 l-37 -35 29 -30 c23 -24 27 -34 18 -43 -9 -9 -22 -9 -57 0 -39 10 -50 10 -76 -4 -66 -34 -2 -58 128 -48 66 5 88 3 107 -9 28 -19 46 -6 46 31 0 24 34 62 99 110 39 29 45 64 7 39 -27 -18 -36 -13 -36 18 0 44 -62 65 -75 24z" transform="translate(0,38) scale(0.1,-0.1)" stroke="none" fill="#E5E3DF"/>

</g>

<g id="1" transform="translate(64.0,0)scale(1,1)">

<path d="M400 300 c0 -11 5 -20 10 -20 6 0 10 9 10 20 0 11 -4 20 -10 20 -5 0 -10 -9 -10 -20z" transform="translate(0,38) scale(0.1,-0.1)" stroke="none" fill="#38999E"/>

<path d="M64 195 c10 -8 23 -12 28 -9 14 9 -2 24 -25 24 -21 -1 -21 -1 -3 -15z" transform="translate(0,38) scale(0.1,-0.1)" stroke="none" fill="#E5E3DF"/>

<path d="M540 315 c0 -12 50 -59 56 -53 3 4 -5 18 -19 32 -25 25 -37 32 -37 21z" transform="translate(0,38) scale(0.1,-0.1)" stroke="none" fill="#38999E"/>

<path d="M85 230 c4 -6 -5 -10 -19 -10 -33 0 -35 -27 -3 -39 28 -10 50 -3 43 15 -3 7 0 16 6 20 7 4 6 9 -3 15 -19 12 -32 11 -24 -1z m10 -29 c10 -17 -11 -21 -31 -6 -18 14 -18 14 3 15 12 0 24 -4 28 -9z" transform="translate(0,38) scale(0.1,-0.1)" stroke="none" fill="#38999E"/>

<path d="M167 199 c-45 -24 -53 -37 -34 -57 13 -13 21 -13 42 -4 14 7 36 12 49 12 19 0 22 4 18 29 -5 37 -29 43 -75 20z" transform="translate(0,38) scale(0.1,-0.1)" stroke="none" fill="#E5E3DF"/>

<path d="M461 283 c0 -11 3 -13 6 -5 6 15 45 16 61 0 7 -7 12 -22 12 -33 0 -31 9 -36 36 -18 38 25 32 -10 -7 -39 -66 -49 -99 -86 -99 -111 0 -35 -20 -49 -44 -31 -11 8 -25 14 -30 14 -6 0 4 -10 22 -21 38 -25 62 -14 62 30 1 33 22 60 81 99 53 36 64 55 43 73 -11 9 -18 9 -26 1 -16 -16 -31 -15 -25 2 3 7 -1 23 -9 35 -20 28 -84 30 -83 4z" transform="translate(0,38) scale(0.1,-0.1)" stroke="none" fill="#38999E"/>

<path d="M140 333 c-25 -9 -70 -56 -70 -73 0 -8 14 -21 31 -27 53 -20 99 13 99 72 0 29 -25 41 -60 28z" transform="translate(0,38) scale(0.1,-0.1)" stroke="none" fill="#E5E3DF"/>

<path d="M260 330 c-26 -26 -35 -66 -20 -85 17 -21 27 -19 62 10 16 14 38 25 48 25 30 0 34 20 9 46 -28 29 -72 31 -99 4z" transform="translate(0,38) scale(0.1,-0.1)" stroke="none" fill="#E5E3DF"/>

<path d="M335 370 c-3 -5 -19 -10 -34 -10 -16 0 -37 -10 -50 -24 l-23 -25 -28 21 c-25 18 -32 19 -64 8 -40 -13 -80 -61 -73 -88 4 -14 5 -13 6 4 1 22 44 67 75 78 33 11 56 -3 56 -35 0 -29 -30 -69 -53 -69 -8 0 -8 -3 2 -9 12 -8 11 -13 -10 -30 -22 -19 -21 -19 18 1 28 15 38 25 30 31 -9 6 -9 10 1 14 6 2 12 11 12 19 0 8 5 14 10 14 6 0 10 -7 10 -15 0 -8 5 -15 10 -15 17 0 11 -18 -7 -23 -15 -4 -16 -5 -2 -6 11 -1 18 -12 21 -31 4 -26 1 -30 -18 -30 -13 0 -34 -5 -48 -11 -20 -10 -29 -9 -43 2 -16 13 -17 12 -4 -4 7 -9 23 -17 34 -17 19 0 19 -1 4 -18 -10 -10 -17 -23 -17 -29 0 -28 139 -43 200 -23 16 6 0 7 -45 4 -118 -7 -178 18 -118 50 21 11 23 15 10 16 -34 0 -6 20 29 20 28 0 34 4 34 21 0 11 -5 29 -10 40 -9 15 -7 19 7 19 9 0 27 10 40 22 35 33 38 15 3 -20 -37 -37 -38 -55 -5 -76 14 -9 25 -21 25 -26 0 -13 -33 -13 -46 0 -5 5 -15 6 -23 0 -11 -6 -4 -10 23 -15 55 -11 67 7 30 46 l-29 30 37 35 c45 41 57 42 88 9 29 -31 46 -32 60 -2 10 20 10 20 -3 5 -18 -23 -34 -23 -47 1 -5 11 -20 23 -32 27 -20 6 -20 8 -5 19 9 7 17 16 17 21 0 4 -5 3 -12 -4 -7 -7 -20 -12 -29 -12 -10 0 -31 -11 -47 -25 -17 -14 -34 -25 -40 -25 -19 0 -34 30 -28 55 16 62 79 84 123 43 13 -12 23 -16 23 -9 0 6 -7 14 -15 17 -10 4 -13 13 -10 25 7 20 -9 27 -20 9z" transform="translate(0,38) scale(0.1,-0.1)" stroke="none" fill="#38999E"/>

<path d="M465 269 c-4 -11 -4 -23 -1 -26 8 -9 -13 -43 -28 -43 -7 0 -23 11 -36 25 -31 33 -43 32 -88 -9 l-37 -35 29 -30 c23 -24 27 -34 18 -43 -9 -9 -22 -9 -57 0 -39 10 -50 10 -76 -4 -66 -34 -2 -58 128 -48 66 5 88 3 107 -9 28 -19 46 -6 46 31 0 24 34 62 99 110 39 29 45 64 7 39 -27 -18 -36 -13 -36 18 0 44 -62 65 -75 24z" transform="translate(0,38) scale(0.1,-0.1)" stroke="none" fill="#E5E3DF"/>

</g>

<g id="2" transform="translate(128.0,0)scale(1,1)">

<path d="M400 300 c0 -11 5 -20 10 -20 6 0 10 9 10 20 0 11 -4 20 -10 20 -5 0 -10 -9 -10 -20z" transform="translate(0,38) scale(0.1,-0.1)" stroke="none" fill="#38999E"/>

<path d="M64 195 c10 -8 23 -12 28 -9 14 9 -2 24 -25 24 -21 -1 -21 -1 -3 -15z" transform="translate(0,38) scale(0.1,-0.1)" stroke="none" fill="#E5E3DF"/>

<path d="M540 315 c0 -12 50 -59 56 -53 3 4 -5 18 -19 32 -25 25 -37 32 -37 21z" transform="translate(0,38) scale(0.1,-0.1)" stroke="none" fill="#38999E"/>

<path d="M85 230 c4 -6 -5 -10 -19 -10 -33 0 -35 -27 -3 -39 28 -10 50 -3 43 15 -3 7 0 16 6 20 7 4 6 9 -3 15 -19 12 -32 11 -24 -1z m10 -29 c10 -17 -11 -21 -31 -6 -18 14 -18 14 3 15 12 0 24 -4 28 -9z" transform="translate(0,38) scale(0.1,-0.1)" stroke="none" fill="#38999E"/>

<path d="M167 199 c-45 -24 -53 -37 -34 -57 13 -13 21 -13 42 -4 14 7 36 12 49 12 19 0 22 4 18 29 -5 37 -29 43 -75 20z" transform="translate(0,38) scale(0.1,-0.1)" stroke="none" fill="#E5E3DF"/>

<path d="M461 283 c0 -11 3 -13 6 -5 6 15 45 16 61 0 7 -7 12 -22 12 -33 0 -31 9 -36 36 -18 38 25 32 -10 -7 -39 -66 -49 -99 -86 -99 -111 0 -35 -20 -49 -44 -31 -11 8 -25 14 -30 14 -6 0 4 -10 22 -21 38 -25 62 -14 62 30 1 33 22 60 81 99 53 36 64 55 43 73 -11 9 -18 9 -26 1 -16 -16 -31 -15 -25 2 3 7 -1 23 -9 35 -20 28 -84 30 -83 4z" transform="translate(0,38) scale(0.1,-0.1)" stroke="none" fill="#38999E"/>

<path d="M140 333 c-25 -9 -70 -56 -70 -73 0 -8 14 -21 31 -27 53 -20 99 13 99 72 0 29 -25 41 -60 28z" transform="translate(0,38) scale(0.1,-0.1)" stroke="none" fill="#E5E3DF"/>

<path d="M260 330 c-26 -26 -35 -66 -20 -85 17 -21 27 -19 62 10 16 14 38 25 48 25 30 0 34 20 9 46 -28 29 -72 31 -99 4z" transform="translate(0,38) scale(0.1,-0.1)" stroke="none" fill="#E5E3DF"/>

<path d="M335 370 c-3 -5 -19 -10 -34 -10 -16 0 -37 -10 -50 -24 l-23 -25 -28 21 c-25 18 -32 19 -64 8 -40 -13 -80 -61 -73 -88 4 -14 5 -13 6 4 1 22 44 67 75 78 33 11 56 -3 56 -35 0 -29 -30 -69 -53 -69 -8 0 -8 -3 2 -9 12 -8 11 -13 -10 -30 -22 -19 -21 -19 18 1 28 15 38 25 30 31 -9 6 -9 10 1 14 6 2 12 11 12 19 0 8 5 14 10 14 6 0 10 -7 10 -15 0 -8 5 -15 10 -15 17 0 11 -18 -7 -23 -15 -4 -16 -5 -2 -6 11 -1 18 -12 21 -31 4 -26 1 -30 -18 -30 -13 0 -34 -5 -48 -11 -20 -10 -29 -9 -43 2 -16 13 -17 12 -4 -4 7 -9 23 -17 34 -17 19 0 19 -1 4 -18 -10 -10 -17 -23 -17 -29 0 -28 139 -43 200 -23 16 6 0 7 -45 4 -118 -7 -178 18 -118 50 21 11 23 15 10 16 -34 0 -6 20 29 20 28 0 34 4 34 21 0 11 -5 29 -10 40 -9 15 -7 19 7 19 9 0 27 10 40 22 35 33 38 15 3 -20 -37 -37 -38 -55 -5 -76 14 -9 25 -21 25 -26 0 -13 -33 -13 -46 0 -5 5 -15 6 -23 0 -11 -6 -4 -10 23 -15 55 -11 67 7 30 46 l-29 30 37 35 c45 41 57 42 88 9 29 -31 46 -32 60 -2 10 20 10 20 -3 5 -18 -23 -34 -23 -47 1 -5 11 -20 23 -32 27 -20 6 -20 8 -5 19 9 7 17 16 17 21 0 4 -5 3 -12 -4 -7 -7 -20 -12 -29 -12 -10 0 -31 -11 -47 -25 -17 -14 -34 -25 -40 -25 -19 0 -34 30 -28 55 16 62 79 84 123 43 13 -12 23 -16 23 -9 0 6 -7 14 -15 17 -10 4 -13 13 -10 25 7 20 -9 27 -20 9z" transform="translate(0,38) scale(0.1,-0.1)" stroke="none" fill="#38999E"/>

<path d="M465 269 c-4 -11 -4 -23 -1 -26 8 -9 -13 -43 -28 -43 -7 0 -23 11 -36 25 -31 33 -43 32 -88 -9 l-37 -35 29 -30 c23 -24 27 -34 18 -43 -9 -9 -22 -9 -57 0 -39 10 -50 10 -76 -4 -66 -34 -2 -58 128 -48 66 5 88 3 107 -9 28 -19 46 -6 46 31 0 24 34 62 99 110 39 29 45 64 7 39 -27 -18 -36 -13 -36 18 0 44 -62 65 -75 24z" transform="translate(0,38) scale(0.1,-0.1)" stroke="none" fill="#E5E3DF"/>

</g>

<g id="3" transform="translate(192.0,0)scale(1,1)">

<path d="M400 300 c0 -11 5 -20 10 -20 6 0 10 9 10 20 0 11 -4 20 -10 20 -5 0 -10 -9 -10 -20z" transform="translate(0,38) scale(0.1,-0.1)" stroke="none" fill="#38999E"/>

<path d="M64 195 c10 -8 23 -12 28 -9 14 9 -2 24 -25 24 -21 -1 -21 -1 -3 -15z" transform="translate(0,38) scale(0.1,-0.1)" stroke="none" fill="#E5E3DF"/>

<path d="M540 315 c0 -12 50 -59 56 -53 3 4 -5 18 -19 32 -25 25 -37 32 -37 21z" transform="translate(0,38) scale(0.1,-0.1)" stroke="none" fill="#38999E"/>

<path d="M85 230 c4 -6 -5 -10 -19 -10 -33 0 -35 -27 -3 -39 28 -10 50 -3 43 15 -3 7 0 16 6 20 7 4 6 9 -3 15 -19 12 -32 11 -24 -1z m10 -29 c10 -17 -11 -21 -31 -6 -18 14 -18 14 3 15 12 0 24 -4 28 -9z" transform="translate(0,38) scale(0.1,-0.1)" stroke="none" fill="#38999E"/>

<path d="M167 199 c-45 -24 -53 -37 -34 -57 13 -13 21 -13 42 -4 14 7 36 12 49 12 19 0 22 4 18 29 -5 37 -29 43 -75 20z" transform="translate(0,38) scale(0.1,-0.1)" stroke="none" fill="#E5E3DF"/>

<path d="M461 283 c0 -11 3 -13 6 -5 6 15 45 16 61 0 7 -7 12 -22 12 -33 0 -31 9 -36 36 -18 38 25 32 -10 -7 -39 -66 -49 -99 -86 -99 -111 0 -35 -20 -49 -44 -31 -11 8 -25 14 -30 14 -6 0 4 -10 22 -21 38 -25 62 -14 62 30 1 33 22 60 81 99 53 36 64 55 43 73 -11 9 -18 9 -26 1 -16 -16 -31 -15 -25 2 3 7 -1 23 -9 35 -20 28 -84 30 -83 4z" transform="translate(0,38) scale(0.1,-0.1)" stroke="none" fill="#38999E"/>

<path d="M140 333 c-25 -9 -70 -56 -70 -73 0 -8 14 -21 31 -27 53 -20 99 13 99 72 0 29 -25 41 -60 28z" transform="translate(0,38) scale(0.1,-0.1)" stroke="none" fill="#E5E3DF"/>

<path d="M260 330 c-26 -26 -35 -66 -20 -85 17 -21 27 -19 62 10 16 14 38 25 48 25 30 0 34 20 9 46 -28 29 -72 31 -99 4z" transform="translate(0,38) scale(0.1,-0.1)" stroke="none" fill="#E5E3DF"/>

<path d="M335 370 c-3 -5 -19 -10 -34 -10 -16 0 -37 -10 -50 -24 l-23 -25 -28 21 c-25 18 -32 19 -64 8 -40 -13 -80 -61 -73 -88 4 -14 5 -13 6 4 1 22 44 67 75 78 33 11 56 -3 56 -35 0 -29 -30 -69 -53 -69 -8 0 -8 -3 2 -9 12 -8 11 -13 -10 -30 -22 -19 -21 -19 18 1 28 15 38 25 30 31 -9 6 -9 10 1 14 6 2 12 11 12 19 0 8 5 14 10 14 6 0 10 -7 10 -15 0 -8 5 -15 10 -15 17 0 11 -18 -7 -23 -15 -4 -16 -5 -2 -6 11 -1 18 -12 21 -31 4 -26 1 -30 -18 -30 -13 0 -34 -5 -48 -11 -20 -10 -29 -9 -43 2 -16 13 -17 12 -4 -4 7 -9 23 -17 34 -17 19 0 19 -1 4 -18 -10 -10 -17 -23 -17 -29 0 -28 139 -43 200 -23 16 6 0 7 -45 4 -118 -7 -178 18 -118 50 21 11 23 15 10 16 -34 0 -6 20 29 20 28 0 34 4 34 21 0 11 -5 29 -10 40 -9 15 -7 19 7 19 9 0 27 10 40 22 35 33 38 15 3 -20 -37 -37 -38 -55 -5 -76 14 -9 25 -21 25 -26 0 -13 -33 -13 -46 0 -5 5 -15 6 -23 0 -11 -6 -4 -10 23 -15 55 -11 67 7 30 46 l-29 30 37 35 c45 41 57 42 88 9 29 -31 46 -32 60 -2 10 20 10 20 -3 5 -18 -23 -34 -23 -47 1 -5 11 -20 23 -32 27 -20 6 -20 8 -5 19 9 7 17 16 17 21 0 4 -5 3 -12 -4 -7 -7 -20 -12 -29 -12 -10 0 -31 -11 -47 -25 -17 -14 -34 -25 -40 -25 -19 0 -34 30 -28 55 16 62 79 84 123 43 13 -12 23 -16 23 -9 0 6 -7 14 -15 17 -10 4 -13 13 -10 25 7 20 -9 27 -20 9z" transform="translate(0,38) scale(0.1,-0.1)" stroke="none" fill="#38999E"/>

<path d="M465 269 c-4 -11 -4 -23 -1 -26 8 -9 -13 -43 -28 -43 -7 0 -23 11 -36 25 -31 33 -43 32 -88 -9 l-37 -35 29 -30 c23 -24 27 -34 18 -43 -9 -9 -22 -9 -57 0 -39 10 -50 10 -76 -4 -66 -34 -2 -58 128 -48 66 5 88 3 107 -9 28 -19 46 -6 46 31 0 24 34 62 99 110 39 29 45 64 7 39 -27 -18 -36 -13 -36 18 0 44 -62 65 -75 24z" transform="translate(0,38) scale(0.1,-0.1)" stroke="none" fill="#E5E3DF"/>

</g>

<g id="4" transform="translate(256.0,0)scale(1,1)">

<path d="M400 300 c0 -11 5 -20 10 -20 6 0 10 9 10 20 0 11 -4 20 -10 20 -5 0 -10 -9 -10 -20z" transform="translate(0,38) scale(0.1,-0.1)" stroke="none" fill="#38999E"/>

<path d="M64 195 c10 -8 23 -12 28 -9 14 9 -2 24 -25 24 -21 -1 -21 -1 -3 -15z" transform="translate(0,38) scale(0.1,-0.1)" stroke="none" fill="#E5E3DF"/>

<path d="M540 315 c0 -12 50 -59 56 -53 3 4 -5 18 -19 32 -25 25 -37 32 -37 21z" transform="translate(0,38) scale(0.1,-0.1)" stroke="none" fill="#38999E"/>

<path d="M85 230 c4 -6 -5 -10 -19 -10 -33 0 -35 -27 -3 -39 28 -10 50 -3 43 15 -3 7 0 16 6 20 7 4 6 9 -3 15 -19 12 -32 11 -24 -1z m10 -29 c10 -17 -11 -21 -31 -6 -18 14 -18 14 3 15 12 0 24 -4 28 -9z" transform="translate(0,38) scale(0.1,-0.1)" stroke="none" fill="#38999E"/>

<path d="M167 199 c-45 -24 -53 -37 -34 -57 13 -13 21 -13 42 -4 14 7 36 12 49 12 19 0 22 4 18 29 -5 37 -29 43 -75 20z" transform="translate(0,38) scale(0.1,-0.1)" stroke="none" fill="#E5E3DF"/>

<path d="M461 283 c0 -11 3 -13 6 -5 6 15 45 16 61 0 7 -7 12 -22 12 -33 0 -31 9 -36 36 -18 38 25 32 -10 -7 -39 -66 -49 -99 -86 -99 -111 0 -35 -20 -49 -44 -31 -11 8 -25 14 -30 14 -6 0 4 -10 22 -21 38 -25 62 -14 62 30 1 33 22 60 81 99 53 36 64 55 43 73 -11 9 -18 9 -26 1 -16 -16 -31 -15 -25 2 3 7 -1 23 -9 35 -20 28 -84 30 -83 4z" transform="translate(0,38) scale(0.1,-0.1)" stroke="none" fill="#38999E"/>

<path d="M140 333 c-25 -9 -70 -56 -70 -73 0 -8 14 -21 31 -27 53 -20 99 13 99 72 0 29 -25 41 -60 28z" transform="translate(0,38) scale(0.1,-0.1)" stroke="none" fill="#E5E3DF"/>

<path d="M260 330 c-26 -26 -35 -66 -20 -85 17 -21 27 -19 62 10 16 14 38 25 48 25 30 0 34 20 9 46 -28 29 -72 31 -99 4z" transform="translate(0,38) scale(0.1,-0.1)" stroke="none" fill="#E5E3DF"/>

<path d="M335 370 c-3 -5 -19 -10 -34 -10 -16 0 -37 -10 -50 -24 l-23 -25 -28 21 c-25 18 -32 19 -64 8 -40 -13 -80 -61 -73 -88 4 -14 5 -13 6 4 1 22 44 67 75 78 33 11 56 -3 56 -35 0 -29 -30 -69 -53 -69 -8 0 -8 -3 2 -9 12 -8 11 -13 -10 -30 -22 -19 -21 -19 18 1 28 15 38 25 30 31 -9 6 -9 10 1 14 6 2 12 11 12 19 0 8 5 14 10 14 6 0 10 -7 10 -15 0 -8 5 -15 10 -15 17 0 11 -18 -7 -23 -15 -4 -16 -5 -2 -6 11 -1 18 -12 21 -31 4 -26 1 -30 -18 -30 -13 0 -34 -5 -48 -11 -20 -10 -29 -9 -43 2 -16 13 -17 12 -4 -4 7 -9 23 -17 34 -17 19 0 19 -1 4 -18 -10 -10 -17 -23 -17 -29 0 -28 139 -43 200 -23 16 6 0 7 -45 4 -118 -7 -178 18 -118 50 21 11 23 15 10 16 -34 0 -6 20 29 20 28 0 34 4 34 21 0 11 -5 29 -10 40 -9 15 -7 19 7 19 9 0 27 10 40 22 35 33 38 15 3 -20 -37 -37 -38 -55 -5 -76 14 -9 25 -21 25 -26 0 -13 -33 -13 -46 0 -5 5 -15 6 -23 0 -11 -6 -4 -10 23 -15 55 -11 67 7 30 46 l-29 30 37 35 c45 41 57 42 88 9 29 -31 46 -32 60 -2 10 20 10 20 -3 5 -18 -23 -34 -23 -47 1 -5 11 -20 23 -32 27 -20 6 -20 8 -5 19 9 7 17 16 17 21 0 4 -5 3 -12 -4 -7 -7 -20 -12 -29 -12 -10 0 -31 -11 -47 -25 -17 -14 -34 -25 -40 -25 -19 0 -34 30 -28 55 16 62 79 84 123 43 13 -12 23 -16 23 -9 0 6 -7 14 -15 17 -10 4 -13 13 -10 25 7 20 -9 27 -20 9z" transform="translate(0,38) scale(0.1,-0.1)" stroke="none" fill="#38999E"/>

<path d="M465 269 c-4 -11 -4 -23 -1 -26 8 -9 -13 -43 -28 -43 -7 0 -23 11 -36 25 -31 33 -43 32 -88 -9 l-37 -35 29 -30 c23 -24 27 -34 18 -43 -9 -9 -22 -9 -57 0 -39 10 -50 10 -76 -4 -66 -34 -2 -58 128 -48 66 5 88 3 107 -9 28 -19 46 -6 46 31 0 24 34 62 99 110 39 29 45 64 7 39 -27 -18 -36 -13 -36 18 0 44 -62 65 -75 24z" transform="translate(0,38) scale(0.1,-0.1)" stroke="none" fill="#E5E3DF"/>

</g>

</g>
</svg>