<?xml version="1.0" standalone="no"?>
<!DOCTYPE svg PUBLIC "-//W3C//DTD SVG 20010904//EN"
 "http://www.w3.org/TR/2001/REC-SVG-20010904/DTD/svg10.dtd">
<svg version="1.0" xmlns="http://www.w3.org/2000/svg" width="664pt" height="592pt" viewBox="0 0 664 592" preserveAspectRatio = "xMidYMid meet" >
<metadata>
Created by ZoeQu, written in 2022
</metadata>
<rect width="664" height="592" fill="#BBC3BD"/>
<g id="row0" transform="translate(22,0.0)">
<g id="0" transform="translate(0.0,0)scale(1,1)">

<g transform="matrix(0.5,0,0,0.5,0,0)">

<path d="M905 1403 c-253 -21 -517 -128 -586 -239 -53 -87 12 -266 147 -401 l77 -76 -17 -26 c-9 -14 -29 -47 -43 -72 -24 -41 -31 -46 -65 -47 -21 -1 -38 3 -38 8 0 6 -13 10 -30 10 -16 0 -30 5 -30 10 0 6 -7 10 -16 10 -9 0 -30 13 -46 30 -15 16 -35 30 -42 30 -8 0 -16 5 -18 11 -3 9 -10 9 -26 0 -15 -8 -28 -9 -41 -2 -21 12 -48 -10 -37 -28 11 -17 66 -23 95 -11 26 10 33 8 82 -29 30 -23 80 -51 112 -64 56 -21 57 -23 50 -52 -5 -16 -8 -80 -8 -142 0 -97 3 -115 21 -140 28 -38 95 -73 168 -89 113 -24 344 -15 501 21 65 15 213 68 259 93 70 38 142 110 154 154 13 48 -6 131 -53 226 -35 69 -36 74 -21 97 20 31 20 32 -6 38 -13 4 -26 0 -33 -9 -9 -14 -20 -8 -73 37 -34 29 -62 53 -62 54 0 2 21 42 47 90 88 167 99 347 25 427 -63 69 -230 99 -447 81z m170 -262 c0 -34 -30 -51 -51 -29 -25 24 -10 60 24 56 21 -2 27 -8 27 -27z m-400 -56 c0 -25 -4 -30 -25 -30 -16 0 -26 6 -28 18 -6 30 6 49 30 45 18 -2 23 -9 23 -33z m405 -582 c0 -26 -8 -43 -33 -68 -60 -60 -137 -59 -195 2 -39 42 -38 67 2 71 21 3 36 -3 53 -22 37 -40 81 -29 102 27 9 23 43 39 64 29 4 -2 7 -19 7 -39z" transform="translate(0,148.0) scale(0.1,-0.1)" stroke="none" fill="#81786C"/>

<path d="M905 1403 c-253 -21 -517 -128 -586 -239 -53 -87 12 -266 147 -401 l77 -76 -17 -26 c-9 -14 -29 -47 -43 -72 -24 -41 -31 -46 -65 -47 -21 -1 -38 3 -38 8 0 6 -13 10 -30 10 -16 0 -30 5 -30 10 0 6 -7 10 -16 10 -9 0 -30 13 -46 30 -15 16 -35 30 -42 30 -8 0 -16 5 -18 11 -3 9 -10 9 -26 0 -15 -8 -28 -9 -41 -2 -21 12 -48 -10 -37 -28 11 -17 66 -23 95 -11 26 10 33 8 82 -29 30 -23 80 -51 112 -64 56 -21 57 -23 50 -52 -5 -16 -8 -80 -8 -142 0 -97 3 -115 21 -140 28 -38 95 -73 168 -89 113 -24 344 -15 501 21 65 15 213 68 259 93 70 38 142 110 154 154 13 48 -6 131 -53 226 -35 69 -36 74 -21 97 20 31 20 32 -6 38 -13 4 -26 0 -33 -9 -9 -14 -20 -8 -73 37 -34 29 -62 53 -62 54 0 2 21 42 47 90 88 167 99 347 25 427 -63 69 -230 99 -447 81z m170 -262 c0 -34 -30 -51 -51 -29 -25 24 -10 60 24 56 21 -2 27 -8 27 -27z m-400 -56 c0 -25 -4 -30 -25 -30 -16 0 -26 6 -28 18 -6 30 6 49 30 45 18 -2 23 -9 23 -33z m405 -582 c0 -26 -8 -43 -33 -68 -60 -60 -137 -59 -195 2 -39 42 -38 67 2 71 21 3 36 -3 53 -22 37 -40 81 -29 102 27 9 23 43 39 64 29 4 -2 7 -19 7 -39z" transform="translate(332.0,148.0) scale(-0.1,-0.1)" stroke="none" fill="#81786C"/>

<path d="M905 1403 c-253 -21 -517 -128 -586 -239 -53 -87 12 -266 147 -401 l77 -76 -17 -26 c-9 -14 -29 -47 -43 -72 -24 -41 -31 -46 -65 -47 -21 -1 -38 3 -38 8 0 6 -13 10 -30 10 -16 0 -30 5 -30 10 0 6 -7 10 -16 10 -9 0 -30 13 -46 30 -15 16 -35 30 -42 30 -8 0 -16 5 -18 11 -3 9 -10 9 -26 0 -15 -8 -28 -9 -41 -2 -21 12 -48 -10 -37 -28 11 -17 66 -23 95 -11 26 10 33 8 82 -29 30 -23 80 -51 112 -64 56 -21 57 -23 50 -52 -5 -16 -8 -80 -8 -142 0 -97 3 -115 21 -140 28 -38 95 -73 168 -89 113 -24 344 -15 501 21 65 15 213 68 259 93 70 38 142 110 154 154 13 48 -6 131 -53 226 -35 69 -36 74 -21 97 20 31 20 32 -6 38 -13 4 -26 0 -33 -9 -9 -14 -20 -8 -73 37 -34 29 -62 53 -62 54 0 2 21 42 47 90 88 167 99 347 25 427 -63 69 -230 99 -447 81z m170 -262 c0 -34 -30 -51 -51 -29 -25 24 -10 60 24 56 21 -2 27 -8 27 -27z m-400 -56 c0 -25 -4 -30 -25 -30 -16 0 -26 6 -28 18 -6 30 6 49 30 45 18 -2 23 -9 23 -33z m405 -582 c0 -26 -8 -43 -33 -68 -60 -60 -137 -59 -195 2 -39 42 -38 67 2 71 21 3 36 -3 53 -22 37 -40 81 -29 102 27 9 23 43 39 64 29 4 -2 7 -19 7 -39z" transform="translate(0,148.0) scale(0.1,0.1)" stroke="none" fill="#81786C"/>

<path d="M905 1403 c-253 -21 -517 -128 -586 -239 -53 -87 12 -266 147 -401 l77 -76 -17 -26 c-9 -14 -29 -47 -43 -72 -24 -41 -31 -46 -65 -47 -21 -1 -38 3 -38 8 0 6 -13 10 -30 10 -16 0 -30 5 -30 10 0 6 -7 10 -16 10 -9 0 -30 13 -46 30 -15 16 -35 30 -42 30 -8 0 -16 5 -18 11 -3 9 -10 9 -26 0 -15 -8 -28 -9 -41 -2 -21 12 -48 -10 -37 -28 11 -17 66 -23 95 -11 26 10 33 8 82 -29 30 -23 80 -51 112 -64 56 -21 57 -23 50 -52 -5 -16 -8 -80 -8 -142 0 -97 3 -115 21 -140 28 -38 95 -73 168 -89 113 -24 344 -15 501 21 65 15 213 68 259 93 70 38 142 110 154 154 13 48 -6 131 -53 226 -35 69 -36 74 -21 97 20 31 20 32 -6 38 -13 4 -26 0 -33 -9 -9 -14 -20 -8 -73 37 -34 29 -62 53 -62 54 0 2 21 42 47 90 88 167 99 347 25 427 -63 69 -230 99 -447 81z m170 -262 c0 -34 -30 -51 -51 -29 -25 24 -10 60 24 56 21 -2 27 -8 27 -27z m-400 -56 c0 -25 -4 -30 -25 -30 -16 0 -26 6 -28 18 -6 30 6 49 30 45 18 -2 23 -9 23 -33z m405 -582 c0 -26 -8 -43 -33 -68 -60 -60 -137 -59 -195 2 -39 42 -38 67 2 71 21 3 36 -3 53 -22 37 -40 81 -29 102 27 9 23 43 39 64 29 4 -2 7 -19 7 -39z" transform="translate(332.0,148.0) scale(-0.1,0.1)" stroke="none" fill="#81786C"/>

</g>

</g>

<g id="1" transform="translate(166.0,0)scale(1,1)">

<g transform="matrix(0.5,0,0,0.5,0,0)">

<path d="M905 1403 c-253 -21 -517 -128 -586 -239 -53 -87 12 -266 147 -401 l77 -76 -17 -26 c-9 -14 -29 -47 -43 -72 -24 -41 -31 -46 -65 -47 -21 -1 -38 3 -38 8 0 6 -13 10 -30 10 -16 0 -30 5 -30 10 0 6 -7 10 -16 10 -9 0 -30 13 -46 30 -15 16 -35 30 -42 30 -8 0 -16 5 -18 11 -3 9 -10 9 -26 0 -15 -8 -28 -9 -41 -2 -21 12 -48 -10 -37 -28 11 -17 66 -23 95 -11 26 10 33 8 82 -29 30 -23 80 -51 112 -64 56 -21 57 -23 50 -52 -5 -16 -8 -80 -8 -142 0 -97 3 -115 21 -140 28 -38 95 -73 168 -89 113 -24 344 -15 501 21 65 15 213 68 259 93 70 38 142 110 154 154 13 48 -6 131 -53 226 -35 69 -36 74 -21 97 20 31 20 32 -6 38 -13 4 -26 0 -33 -9 -9 -14 -20 -8 -73 37 -34 29 -62 53 -62 54 0 2 21 42 47 90 88 167 99 347 25 427 -63 69 -230 99 -447 81z m170 -262 c0 -34 -30 -51 -51 -29 -25 24 -10 60 24 56 21 -2 27 -8 27 -27z m-400 -56 c0 -25 -4 -30 -25 -30 -16 0 -26 6 -28 18 -6 30 6 49 30 45 18 -2 23 -9 23 -33z m405 -582 c0 -26 -8 -43 -33 -68 -60 -60 -137 -59 -195 2 -39 42 -38 67 2 71 21 3 36 -3 53 -22 37 -40 81 -29 102 27 9 23 43 39 64 29 4 -2 7 -19 7 -39z" transform="translate(0,148.0) scale(0.1,-0.1)" stroke="none" fill="#81786C"/>

<path d="M905 1403 c-253 -21 -517 -128 -586 -239 -53 -87 12 -266 147 -401 l77 -76 -17 -26 c-9 -14 -29 -47 -43 -72 -24 -41 -31 -46 -65 -47 -21 -1 -38 3 -38 8 0 6 -13 10 -30 10 -16 0 -30 5 -30 10 0 6 -7 10 -16 10 -9 0 -30 13 -46 30 -15 16 -35 30 -42 30 -8 0 -16 5 -18 11 -3 9 -10 9 -26 0 -15 -8 -28 -9 -41 -2 -21 12 -48 -10 -37 -28 11 -17 66 -23 95 -11 26 10 33 8 82 -29 30 -23 80 -51 112 -64 56 -21 57 -23 50 -52 -5 -16 -8 -80 -8 -142 0 -97 3 -115 21 -140 28 -38 95 -73 168 -89 113 -24 344 -15 501 21 65 15 213 68 259 93 70 38 142 110 154 154 13 48 -6 131 -53 226 -35 69 -36 74 -21 97 20 31 20 32 -6 38 -13 4 -26 0 -33 -9 -9 -14 -20 -8 -73 37 -34 29 -62 53 -62 54 0 2 21 42 47 90 88 167 99 347 25 427 -63 69 -230 99 -447 81z m170 -262 c0 -34 -30 -51 -51 -29 -25 24 -10 60 24 56 21 -2 27 -8 27 -27z m-400 -56 c0 -25 -4 -30 -25 -30 -16 0 -26 6 -28 18 -6 30 6 49 30 45 18 -2 23 -9 23 -33z m405 -582 c0 -26 -8 -43 -33 -68 -60 -60 -137 -59 -195 2 -39 42 -38 67 2 71 21 3 36 -3 53 -22 37 -40 81 -29 102 27 9 23 43 39 64 29 4 -2 7 -19 7 -39z" transform="translate(332.0,148.0) scale(-0.1,-0.1)" stroke="none" fill="#81786C"/>

<path d="M905 1403 c-253 -21 -517 -128 -586 -239 -53 -87 12 -266 147 -401 l77 -76 -17 -26 c-9 -14 -29 -47 -43 -72 -24 -41 -31 -46 -65 -47 -21 -1 -38 3 -38 8 0 6 -13 10 -30 10 -16 0 -30 5 -30 10 0 6 -7 10 -16 10 -9 0 -30 13 -46 30 -15 16 -35 30 -42 30 -8 0 -16 5 -18 11 -3 9 -10 9 -26 0 -15 -8 -28 -9 -41 -2 -21 12 -48 -10 -37 -28 11 -17 66 -23 95 -11 26 10 33 8 82 -29 30 -23 80 -51 112 -64 56 -21 57 -23 50 -52 -5 -16 -8 -80 -8 -142 0 -97 3 -115 21 -140 28 -38 95 -73 168 -89 113 -24 344 -15 501 21 65 15 213 68 259 93 70 38 142 110 154 154 13 48 -6 131 -53 226 -35 69 -36 74 -21 97 20 31 20 32 -6 38 -13 4 -26 0 -33 -9 -9 -14 -20 -8 -73 37 -34 29 -62 53 -62 54 0 2 21 42 47 90 88 167 99 347 25 427 -63 69 -230 99 -447 81z m170 -262 c0 -34 -30 -51 -51 -29 -25 24 -10 60 24 56 21 -2 27 -8 27 -27z m-400 -56 c0 -25 -4 -30 -25 -30 -16 0 -26 6 -28 18 -6 30 6 49 30 45 18 -2 23 -9 23 -33z m405 -582 c0 -26 -8 -43 -33 -68 -60 -60 -137 -59 -195 2 -39 42 -38 67 2 71 21 3 36 -3 53 -22 37 -40 81 -29 102 27 9 23 43 39 64 29 4 -2 7 -19 7 -39z" transform="translate(0,148.0) scale(0.1,0.1)" stroke="none" fill="#81786C"/>

<path d="M905 1403 c-253 -21 -517 -128 -586 -239 -53 -87 12 -266 147 -401 l77 -76 -17 -26 c-9 -14 -29 -47 -43 -72 -24 -41 -31 -46 -65 -47 -21 -1 -38 3 -38 8 0 6 -13 10 -30 10 -16 0 -30 5 -30 10 0 6 -7 10 -16 10 -9 0 -30 13 -46 30 -15 16 -35 30 -42 30 -8 0 -16 5 -18 11 -3 9 -10 9 -26 0 -15 -8 -28 -9 -41 -2 -21 12 -48 -10 -37 -28 11 -17 66 -23 95 -11 26 10 33 8 82 -29 30 -23 80 -51 112 -64 56 -21 57 -23 50 -52 -5 -16 -8 -80 -8 -142 0 -97 3 -115 21 -140 28 -38 95 -73 168 -89 113 -24 344 -15 501 21 65 15 213 68 259 93 70 38 142 110 154 154 13 48 -6 131 -53 226 -35 69 -36 74 -21 97 20 31 20 32 -6 38 -13 4 -26 0 -33 -9 -9 -14 -20 -8 -73 37 -34 29 -62 53 -62 54 0 2 21 42 47 90 88 167 99 347 25 427 -63 69 -230 99 -447 81z m170 -262 c0 -34 -30 -51 -51 -29 -25 24 -10 60 24 56 21 -2 27 -8 27 -27z m-400 -56 c0 -25 -4 -30 -25 -30 -16 0 -26 6 -28 18 -6 30 6 49 30 45 18 -2 23 -9 23 -33z m405 -582 c0 -26 -8 -43 -33 -68 -60 -60 -137 -59 -195 2 -39 42 -38 67 2 71 21 3 36 -3 53 -22 37 -40 81 -29 102 27 9 23 43 39 64 29 4 -2 7 -19 7 -39z" transform="translate(332.0,148.0) scale(-0.1,0.1)" stroke="none" fill="#81786C"/>

</g>

</g>

<g id="2" transform="translate(332.0,0)scale(1,1)">

<g transform="matrix(0.5,0,0,0.5,0,0)">

<path d="M905 1403 c-253 -21 -517 -128 -586 -239 -53 -87 12 -266 147 -401 l77 -76 -17 -26 c-9 -14 -29 -47 -43 -72 -24 -41 -31 -46 -65 -47 -21 -1 -38 3 -38 8 0 6 -13 10 -30 10 -16 0 -30 5 -30 10 0 6 -7 10 -16 10 -9 0 -30 13 -46 30 -15 16 -35 30 -42 30 -8 0 -16 5 -18 11 -3 9 -10 9 -26 0 -15 -8 -28 -9 -41 -2 -21 12 -48 -10 -37 -28 11 -17 66 -23 95 -11 26 10 33 8 82 -29 30 -23 80 -51 112 -64 56 -21 57 -23 50 -52 -5 -16 -8 -80 -8 -142 0 -97 3 -115 21 -140 28 -38 95 -73 168 -89 113 -24 344 -15 501 21 65 15 213 68 259 93 70 38 142 110 154 154 13 48 -6 131 -53 226 -35 69 -36 74 -21 97 20 31 20 32 -6 38 -13 4 -26 0 -33 -9 -9 -14 -20 -8 -73 37 -34 29 -62 53 -62 54 0 2 21 42 47 90 88 167 99 347 25 427 -63 69 -230 99 -447 81z m170 -262 c0 -34 -30 -51 -51 -29 -25 24 -10 60 24 56 21 -2 27 -8 27 -27z m-400 -56 c0 -25 -4 -30 -25 -30 -16 0 -26 6 -28 18 -6 30 6 49 30 45 18 -2 23 -9 23 -33z m405 -582 c0 -26 -8 -43 -33 -68 -60 -60 -137 -59 -195 2 -39 42 -38 67 2 71 21 3 36 -3 53 -22 37 -40 81 -29 102 27 9 23 43 39 64 29 4 -2 7 -19 7 -39z" transform="translate(0,148.0) scale(0.1,-0.1)" stroke="none" fill="#81786C"/>

<path d="M905 1403 c-253 -21 -517 -128 -586 -239 -53 -87 12 -266 147 -401 l77 -76 -17 -26 c-9 -14 -29 -47 -43 -72 -24 -41 -31 -46 -65 -47 -21 -1 -38 3 -38 8 0 6 -13 10 -30 10 -16 0 -30 5 -30 10 0 6 -7 10 -16 10 -9 0 -30 13 -46 30 -15 16 -35 30 -42 30 -8 0 -16 5 -18 11 -3 9 -10 9 -26 0 -15 -8 -28 -9 -41 -2 -21 12 -48 -10 -37 -28 11 -17 66 -23 95 -11 26 10 33 8 82 -29 30 -23 80 -51 112 -64 56 -21 57 -23 50 -52 -5 -16 -8 -80 -8 -142 0 -97 3 -115 21 -140 28 -38 95 -73 168 -89 113 -24 344 -15 501 21 65 15 213 68 259 93 70 38 142 110 154 154 13 48 -6 131 -53 226 -35 69 -36 74 -21 97 20 31 20 32 -6 38 -13 4 -26 0 -33 -9 -9 -14 -20 -8 -73 37 -34 29 -62 53 -62 54 0 2 21 42 47 90 88 167 99 347 25 427 -63 69 -230 99 -447 81z m170 -262 c0 -34 -30 -51 -51 -29 -25 24 -10 60 24 56 21 -2 27 -8 27 -27z m-400 -56 c0 -25 -4 -30 -25 -30 -16 0 -26 6 -28 18 -6 30 6 49 30 45 18 -2 23 -9 23 -33z m405 -582 c0 -26 -8 -43 -33 -68 -60 -60 -137 -59 -195 2 -39 42 -38 67 2 71 21 3 36 -3 53 -22 37 -40 81 -29 102 27 9 23 43 39 64 29 4 -2 7 -19 7 -39z" transform="translate(332.0,148.0) scale(-0.1,-0.1)" stroke="none" fill="#81786C"/>

<path d="M905 1403 c-253 -21 -517 -128 -586 -239 -53 -87 12 -266 147 -401 l77 -76 -17 -26 c-9 -14 -29 -47 -43 -72 -24 -41 -31 -46 -65 -47 -21 -1 -38 3 -38 8 0 6 -13 10 -30 10 -16 0 -30 5 -30 10 0 6 -7 10 -16 10 -9 0 -30 13 -46 30 -15 16 -35 30 -42 30 -8 0 -16 5 -18 11 -3 9 -10 9 -26 0 -15 -8 -28 -9 -41 -2 -21 12 -48 -10 -37 -28 11 -17 66 -23 95 -11 26 10 33 8 82 -29 30 -23 80 -51 112 -64 56 -21 57 -23 50 -52 -5 -16 -8 -80 -8 -142 0 -97 3 -115 21 -140 28 -38 95 -73 168 -89 113 -24 344 -15 501 21 65 15 213 68 259 93 70 38 142 110 154 154 13 48 -6 131 -53 226 -35 69 -36 74 -21 97 20 31 20 32 -6 38 -13 4 -26 0 -33 -9 -9 -14 -20 -8 -73 37 -34 29 -62 53 -62 54 0 2 21 42 47 90 88 167 99 347 25 427 -63 69 -230 99 -447 81z m170 -262 c0 -34 -30 -51 -51 -29 -25 24 -10 60 24 56 21 -2 27 -8 27 -27z m-400 -56 c0 -25 -4 -30 -25 -30 -16 0 -26 6 -28 18 -6 30 6 49 30 45 18 -2 23 -9 23 -33z m405 -582 c0 -26 -8 -43 -33 -68 -60 -60 -137 -59 -195 2 -39 42 -38 67 2 71 21 3 36 -3 53 -22 37 -40 81 -29 102 27 9 23 43 39 64 29 4 -2 7 -19 7 -39z" transform="translate(0,148.0) scale(0.1,0.1)" stroke="none" fill="#81786C"/>

<path d="M905 1403 c-253 -21 -517 -128 -586 -239 -53 -87 12 -266 147 -401 l77 -76 -17 -26 c-9 -14 -29 -47 -43 -72 -24 -41 -31 -46 -65 -47 -21 -1 -38 3 -38 8 0 6 -13 10 -30 10 -16 0 -30 5 -30 10 0 6 -7 10 -16 10 -9 0 -30 13 -46 30 -15 16 -35 30 -42 30 -8 0 -16 5 -18 11 -3 9 -10 9 -26 0 -15 -8 -28 -9 -41 -2 -21 12 -48 -10 -37 -28 11 -17 66 -23 95 -11 26 10 33 8 82 -29 30 -23 80 -51 112 -64 56 -21 57 -23 50 -52 -5 -16 -8 -80 -8 -142 0 -97 3 -115 21 -140 28 -38 95 -73 168 -89 113 -24 344 -15 501 21 65 15 213 68 259 93 70 38 142 110 154 154 13 48 -6 131 -53 226 -35 69 -36 74 -21 97 20 31 20 32 -6 38 -13 4 -26 0 -33 -9 -9 -14 -20 -8 -73 37 -34 29 -62 53 -62 54 0 2 21 42 47 90 88 167 99 347 25 427 -63 69 -230 99 -447 81z m170 -262 c0 -34 -30 -51 -51 -29 -25 24 -10 60 24 56 21 -2 27 -8 27 -27z m-400 -56 c0 -25 -4 -30 -25 -30 -16 0 -26 6 -28 18 -6 30 6 49 30 45 18 -2 23 -9 23 -33z m405 -582 c0 -26 -8 -43 -33 -68 -60 -60 -137 -59 -195 2 -39 42 -38 67 2 71 21 3 36 -3 53 -22 37 -40 81 -29 102 27 9 23 43 39 64 29 4 -2 7 -19 7 -39z" transform="translate(332.0,148.0) scale(-0.1,0.1)" stroke="none" fill="#81786C"/>

</g>

</g>

<g id="3" transform="translate(498.0,0)scale(1,1)">

<g transform="matrix(0.5,0,0,0.5,0,0)">

<path d="M905 1403 c-253 -21 -517 -128 -586 -239 -53 -87 12 -266 147 -401 l77 -76 -17 -26 c-9 -14 -29 -47 -43 -72 -24 -41 -31 -46 -65 -47 -21 -1 -38 3 -38 8 0 6 -13 10 -30 10 -16 0 -30 5 -30 10 0 6 -7 10 -16 10 -9 0 -30 13 -46 30 -15 16 -35 30 -42 30 -8 0 -16 5 -18 11 -3 9 -10 9 -26 0 -15 -8 -28 -9 -41 -2 -21 12 -48 -10 -37 -28 11 -17 66 -23 95 -11 26 10 33 8 82 -29 30 -23 80 -51 112 -64 56 -21 57 -23 50 -52 -5 -16 -8 -80 -8 -142 0 -97 3 -115 21 -140 28 -38 95 -73 168 -89 113 -24 344 -15 501 21 65 15 213 68 259 93 70 38 142 110 154 154 13 48 -6 131 -53 226 -35 69 -36 74 -21 97 20 31 20 32 -6 38 -13 4 -26 0 -33 -9 -9 -14 -20 -8 -73 37 -34 29 -62 53 -62 54 0 2 21 42 47 90 88 167 99 347 25 427 -63 69 -230 99 -447 81z m170 -262 c0 -34 -30 -51 -51 -29 -25 24 -10 60 24 56 21 -2 27 -8 27 -27z m-400 -56 c0 -25 -4 -30 -25 -30 -16 0 -26 6 -28 18 -6 30 6 49 30 45 18 -2 23 -9 23 -33z m405 -582 c0 -26 -8 -43 -33 -68 -60 -60 -137 -59 -195 2 -39 42 -38 67 2 71 21 3 36 -3 53 -22 37 -40 81 -29 102 27 9 23 43 39 64 29 4 -2 7 -19 7 -39z" transform="translate(0,148.0) scale(0.1,-0.1)" stroke="none" fill="#81786C"/>

<path d="M905 1403 c-253 -21 -517 -128 -586 -239 -53 -87 12 -266 147 -401 l77 -76 -17 -26 c-9 -14 -29 -47 -43 -72 -24 -41 -31 -46 -65 -47 -21 -1 -38 3 -38 8 0 6 -13 10 -30 10 -16 0 -30 5 -30 10 0 6 -7 10 -16 10 -9 0 -30 13 -46 30 -15 16 -35 30 -42 30 -8 0 -16 5 -18 11 -3 9 -10 9 -26 0 -15 -8 -28 -9 -41 -2 -21 12 -48 -10 -37 -28 11 -17 66 -23 95 -11 26 10 33 8 82 -29 30 -23 80 -51 112 -64 56 -21 57 -23 50 -52 -5 -16 -8 -80 -8 -142 0 -97 3 -115 21 -140 28 -38 95 -73 168 -89 113 -24 344 -15 501 21 65 15 213 68 259 93 70 38 142 110 154 154 13 48 -6 131 -53 226 -35 69 -36 74 -21 97 20 31 20 32 -6 38 -13 4 -26 0 -33 -9 -9 -14 -20 -8 -73 37 -34 29 -62 53 -62 54 0 2 21 42 47 90 88 167 99 347 25 427 -63 69 -230 99 -447 81z m170 -262 c0 -34 -30 -51 -51 -29 -25 24 -10 60 24 56 21 -2 27 -8 27 -27z m-400 -56 c0 -25 -4 -30 -25 -30 -16 0 -26 6 -28 18 -6 30 6 49 30 45 18 -2 23 -9 23 -33z m405 -582 c0 -26 -8 -43 -33 -68 -60 -60 -137 -59 -195 2 -39 42 -38 67 2 71 21 3 36 -3 53 -22 37 -40 81 -29 102 27 9 23 43 39 64 29 4 -2 7 -19 7 -39z" transform="translate(332.0,148.0) scale(-0.1,-0.1)" stroke="none" fill="#81786C"/>

<path d="M905 1403 c-253 -21 -517 -128 -586 -239 -53 -87 12 -266 147 -401 l77 -76 -17 -26 c-9 -14 -29 -47 -43 -72 -24 -41 -31 -46 -65 -47 -21 -1 -38 3 -38 8 0 6 -13 10 -30 10 -16 0 -30 5 -30 10 0 6 -7 10 -16 10 -9 0 -30 13 -46 30 -15 16 -35 30 -42 30 -8 0 -16 5 -18 11 -3 9 -10 9 -26 0 -15 -8 -28 -9 -41 -2 -21 12 -48 -10 -37 -28 11 -17 66 -23 95 -11 26 10 33 8 82 -29 30 -23 80 -51 112 -64 56 -21 57 -23 50 -52 -5 -16 -8 -80 -8 -142 0 -97 3 -115 21 -140 28 -38 95 -73 168 -89 113 -24 344 -15 501 21 65 15 213 68 259 93 70 38 142 110 154 154 13 48 -6 131 -53 226 -35 69 -36 74 -21 97 20 31 20 32 -6 38 -13 4 -26 0 -33 -9 -9 -14 -20 -8 -73 37 -34 29 -62 53 -62 54 0 2 21 42 47 90 88 167 99 347 25 427 -63 69 -230 99 -447 81z m170 -262 c0 -34 -30 -51 -51 -29 -25 24 -10 60 24 56 21 -2 27 -8 27 -27z m-400 -56 c0 -25 -4 -30 -25 -30 -16 0 -26 6 -28 18 -6 30 6 49 30 45 18 -2 23 -9 23 -33z m405 -582 c0 -26 -8 -43 -33 -68 -60 -60 -137 -59 -195 2 -39 42 -38 67 2 71 21 3 36 -3 53 -22 37 -40 81 -29 102 27 9 23 43 39 64 29 4 -2 7 -19 7 -39z" transform="translate(0,148.0) scale(0.1,0.1)" stroke="none" fill="#81786C"/>

<path d="M905 1403 c-253 -21 -517 -128 -586 -239 -53 -87 12 -266 147 -401 l77 -76 -17 -26 c-9 -14 -29 -47 -43 -72 -24 -41 -31 -46 -65 -47 -21 -1 -38 3 -38 8 0 6 -13 10 -30 10 -16 0 -30 5 -30 10 0 6 -7 10 -16 10 -9 0 -30 13 -46 30 -15 16 -35 30 -42 30 -8 0 -16 5 -18 11 -3 9 -10 9 -26 0 -15 -8 -28 -9 -41 -2 -21 12 -48 -10 -37 -28 11 -17 66 -23 95 -11 26 10 33 8 82 -29 30 -23 80 -51 112 -64 56 -21 57 -23 50 -52 -5 -16 -8 -80 -8 -142 0 -97 3 -115 21 -140 28 -38 95 -73 168 -89 113 -24 344 -15 501 21 65 15 213 68 259 93 70 38 142 110 154 154 13 48 -6 131 -53 226 -35 69 -36 74 -21 97 20 31 20 32 -6 38 -13 4 -26 0 -33 -9 -9 -14 -20 -8 -73 37 -34 29 -62 53 -62 54 0 2 21 42 47 90 88 167 99 347 25 427 -63 69 -230 99 -447 81z m170 -262 c0 -34 -30 -51 -51 -29 -25 24 -10 60 24 56 21 -2 27 -8 27 -27z m-400 -56 c0 -25 -4 -30 -25 -30 -16 0 -26 6 -28 18 -6 30 6 49 30 45 18 -2 23 -9 23 -33z m405 -582 c0 -26 -8 -43 -33 -68 -60 -60 -137 -59 -195 2 -39 42 -38 67 2 71 21 3 36 -3 53 -22 37 -40 81 -29 102 27 9 23 43 39 64 29 4 -2 7 -19 7 -39z" transform="translate(332.0,148.0) scale(-0.1,0.1)" stroke="none" fill="#81786C"/>

</g>

</g>

<g id="4" transform="translate(664.0,0)scale(1,1)">

<g transform="matrix(0.5,0,0,0.5,0,0)">

<path d="M905 1403 c-253 -21 -517 -128 -586 -239 -53 -87 12 -266 147 -401 l77 -76 -17 -26 c-9 -14 -29 -47 -43 -72 -24 -41 -31 -46 -65 -47 -21 -1 -38 3 -38 8 0 6 -13 10 -30 10 -16 0 -30 5 -30 10 0 6 -7 10 -16 10 -9 0 -30 13 -46 30 -15 16 -35 30 -42 30 -8 0 -16 5 -18 11 -3 9 -10 9 -26 0 -15 -8 -28 -9 -41 -2 -21 12 -48 -10 -37 -28 11 -17 66 -23 95 -11 26 10 33 8 82 -29 30 -23 80 -51 112 -64 56 -21 57 -23 50 -52 -5 -16 -8 -80 -8 -142 0 -97 3 -115 21 -140 28 -38 95 -73 168 -89 113 -24 344 -15 501 21 65 15 213 68 259 93 70 38 142 110 154 154 13 48 -6 131 -53 226 -35 69 -36 74 -21 97 20 31 20 32 -6 38 -13 4 -26 0 -33 -9 -9 -14 -20 -8 -73 37 -34 29 -62 53 -62 54 0 2 21 42 47 90 88 167 99 347 25 427 -63 69 -230 99 -447 81z m170 -262 c0 -34 -30 -51 -51 -29 -25 24 -10 60 24 56 21 -2 27 -8 27 -27z m-400 -56 c0 -25 -4 -30 -25 -30 -16 0 -26 6 -28 18 -6 30 6 49 30 45 18 -2 23 -9 23 -33z m405 -582 c0 -26 -8 -43 -33 -68 -60 -60 -137 -59 -195 2 -39 42 -38 67 2 71 21 3 36 -3 53 -22 37 -40 81 -29 102 27 9 23 43 39 64 29 4 -2 7 -19 7 -39z" transform="translate(0,148.0) scale(0.1,-0.1)" stroke="none" fill="#81786C"/>

<path d="M905 1403 c-253 -21 -517 -128 -586 -239 -53 -87 12 -266 147 -401 l77 -76 -17 -26 c-9 -14 -29 -47 -43 -72 -24 -41 -31 -46 -65 -47 -21 -1 -38 3 -38 8 0 6 -13 10 -30 10 -16 0 -30 5 -30 10 0 6 -7 10 -16 10 -9 0 -30 13 -46 30 -15 16 -35 30 -42 30 -8 0 -16 5 -18 11 -3 9 -10 9 -26 0 -15 -8 -28 -9 -41 -2 -21 12 -48 -10 -37 -28 11 -17 66 -23 95 -11 26 10 33 8 82 -29 30 -23 80 -51 112 -64 56 -21 57 -23 50 -52 -5 -16 -8 -80 -8 -142 0 -97 3 -115 21 -140 28 -38 95 -73 168 -89 113 -24 344 -15 501 21 65 15 213 68 259 93 70 38 142 110 154 154 13 48 -6 131 -53 226 -35 69 -36 74 -21 97 20 31 20 32 -6 38 -13 4 -26 0 -33 -9 -9 -14 -20 -8 -73 37 -34 29 -62 53 -62 54 0 2 21 42 47 90 88 167 99 347 25 427 -63 69 -230 99 -447 81z m170 -262 c0 -34 -30 -51 -51 -29 -25 24 -10 60 24 56 21 -2 27 -8 27 -27z m-400 -56 c0 -25 -4 -30 -25 -30 -16 0 -26 6 -28 18 -6 30 6 49 30 45 18 -2 23 -9 23 -33z m405 -582 c0 -26 -8 -43 -33 -68 -60 -60 -137 -59 -195 2 -39 42 -38 67 2 71 21 3 36 -3 53 -22 37 -40 81 -29 102 27 9 23 43 39 64 29 4 -2 7 -19 7 -39z" transform="translate(332.0,148.0) scale(-0.1,-0.1)" stroke="none" fill="#81786C"/>

<path d="M905 1403 c-253 -21 -517 -128 -586 -239 -53 -87 12 -266 147 -401 l77 -76 -17 -26 c-9 -14 -29 -47 -43 -72 -24 -41 -31 -46 -65 -47 -21 -1 -38 3 -38 8 0 6 -13 10 -30 10 -16 0 -30 5 -30 10 0 6 -7 10 -16 10 -9 0 -30 13 -46 30 -15 16 -35 30 -42 30 -8 0 -16 5 -18 11 -3 9 -10 9 -26 0 -15 -8 -28 -9 -41 -2 -21 12 -48 -10 -37 -28 11 -17 66 -23 95 -11 26 10 33 8 82 -29 30 -23 80 -51 112 -64 56 -21 57 -23 50 -52 -5 -16 -8 -80 -8 -142 0 -97 3 -115 21 -140 28 -38 95 -73 168 -89 113 -24 344 -15 501 21 65 15 213 68 259 93 70 38 142 110 154 154 13 48 -6 131 -53 226 -35 69 -36 74 -21 97 20 31 20 32 -6 38 -13 4 -26 0 -33 -9 -9 -14 -20 -8 -73 37 -34 29 -62 53 -62 54 0 2 21 42 47 90 88 167 99 347 25 427 -63 69 -230 99 -447 81z m170 -262 c0 -34 -30 -51 -51 -29 -25 24 -10 60 24 56 21 -2 27 -8 27 -27z m-400 -56 c0 -25 -4 -30 -25 -30 -16 0 -26 6 -28 18 -6 30 6 49 30 45 18 -2 23 -9 23 -33z m405 -582 c0 -26 -8 -43 -33 -68 -60 -60 -137 -59 -195 2 -39 42 -38 67 2 71 21 3 36 -3 53 -22 37 -40 81 -29 102 27 9 23 43 39 64 29 4 -2 7 -19 7 -39z" transform="translate(0,148.0) scale(0.1,0.1)" stroke="none" fill="#81786C"/>

<path d="M905 1403 c-253 -21 -517 -128 -586 -239 -53 -87 12 -266 147 -401 l77 -76 -17 -26 c-9 -14 -29 -47 -43 -72 -24 -41 -31 -46 -65 -47 -21 -1 -38 3 -38 8 0 6 -13 10 -30 10 -16 0 -30 5 -30 10 0 6 -7 10 -16 10 -9 0 -30 13 -46 30 -15 16 -35 30 -42 30 -8 0 -16 5 -18 11 -3 9 -10 9 -26 0 -15 -8 -28 -9 -41 -2 -21 12 -48 -10 -37 -28 11 -17 66 -23 95 -11 26 10 33 8 82 -29 30 -23 80 -51 112 -64 56 -21 57 -23 50 -52 -5 -16 -8 -80 -8 -142 0 -97 3 -115 21 -140 28 -38 95 -73 168 -89 113 -24 344 -15 501 21 65 15 213 68 259 93 70 38 142 110 154 154 13 48 -6 131 -53 226 -35 69 -36 74 -21 97 20 31 20 32 -6 38 -13 4 -26 0 -33 -9 -9 -14 -20 -8 -73 37 -34 29 -62 53 -62 54 0 2 21 42 47 90 88 167 99 347 25 427 -63 69 -230 99 -447 81z m170 -262 c0 -34 -30 -51 -51 -29 -25 24 -10 60 24 56 21 -2 27 -8 27 -27z m-400 -56 c0 -25 -4 -30 -25 -30 -16 0 -26 6 -28 18 -6 30 6 49 30 45 18 -2 23 -9 23 -33z m405 -582 c0 -26 -8 -43 -33 -68 -60 -60 -137 -59 -195 2 -39 42 -38 67 2 71 21 3 36 -3 53 -22 37 -40 81 -29 102 27 9 23 43 39 64 29 4 -2 7 -19 7 -39z" transform="translate(332.0,148.0) scale(-0.1,0.1)" stroke="none" fill="#81786C"/>

</g>

</g>

</g>
<g id="row1" transform="translate(22,148.0)">
<g id="0" transform="translate(0.0,0)scale(1,1)">

<g transform="matrix(0.5,0,0,0.5,0,0)">

<path d="M905 1403 c-253 -21 -517 -128 -586 -239 -53 -87 12 -266 147 -401 l77 -76 -17 -26 c-9 -14 -29 -47 -43 -72 -24 -41 -31 -46 -65 -47 -21 -1 -38 3 -38 8 0 6 -13 10 -30 10 -16 0 -30 5 -30 10 0 6 -7 10 -16 10 -9 0 -30 13 -46 30 -15 16 -35 30 -42 30 -8 0 -16 5 -18 11 -3 9 -10 9 -26 0 -15 -8 -28 -9 -41 -2 -21 12 -48 -10 -37 -28 11 -17 66 -23 95 -11 26 10 33 8 82 -29 30 -23 80 -51 112 -64 56 -21 57 -23 50 -52 -5 -16 -8 -80 -8 -142 0 -97 3 -115 21 -140 28 -38 95 -73 168 -89 113 -24 344 -15 501 21 65 15 213 68 259 93 70 38 142 110 154 154 13 48 -6 131 -53 226 -35 69 -36 74 -21 97 20 31 20 32 -6 38 -13 4 -26 0 -33 -9 -9 -14 -20 -8 -73 37 -34 29 -62 53 -62 54 0 2 21 42 47 90 88 167 99 347 25 427 -63 69 -230 99 -447 81z m170 -262 c0 -34 -30 -51 -51 -29 -25 24 -10 60 24 56 21 -2 27 -8 27 -27z m-400 -56 c0 -25 -4 -30 -25 -30 -16 0 -26 6 -28 18 -6 30 6 49 30 45 18 -2 23 -9 23 -33z m405 -582 c0 -26 -8 -43 -33 -68 -60 -60 -137 -59 -195 2 -39 42 -38 67 2 71 21 3 36 -3 53 -22 37 -40 81 -29 102 27 9 23 43 39 64 29 4 -2 7 -19 7 -39z" transform="translate(0,148.0) scale(0.1,-0.1)" stroke="none" fill="#81786C"/>

<path d="M905 1403 c-253 -21 -517 -128 -586 -239 -53 -87 12 -266 147 -401 l77 -76 -17 -26 c-9 -14 -29 -47 -43 -72 -24 -41 -31 -46 -65 -47 -21 -1 -38 3 -38 8 0 6 -13 10 -30 10 -16 0 -30 5 -30 10 0 6 -7 10 -16 10 -9 0 -30 13 -46 30 -15 16 -35 30 -42 30 -8 0 -16 5 -18 11 -3 9 -10 9 -26 0 -15 -8 -28 -9 -41 -2 -21 12 -48 -10 -37 -28 11 -17 66 -23 95 -11 26 10 33 8 82 -29 30 -23 80 -51 112 -64 56 -21 57 -23 50 -52 -5 -16 -8 -80 -8 -142 0 -97 3 -115 21 -140 28 -38 95 -73 168 -89 113 -24 344 -15 501 21 65 15 213 68 259 93 70 38 142 110 154 154 13 48 -6 131 -53 226 -35 69 -36 74 -21 97 20 31 20 32 -6 38 -13 4 -26 0 -33 -9 -9 -14 -20 -8 -73 37 -34 29 -62 53 -62 54 0 2 21 42 47 90 88 167 99 347 25 427 -63 69 -230 99 -447 81z m170 -262 c0 -34 -30 -51 -51 -29 -25 24 -10 60 24 56 21 -2 27 -8 27 -27z m-400 -56 c0 -25 -4 -30 -25 -30 -16 0 -26 6 -28 18 -6 30 6 49 30 45 18 -2 23 -9 23 -33z m405 -582 c0 -26 -8 -43 -33 -68 -60 -60 -137 -59 -195 2 -39 42 -38 67 2 71 21 3 36 -3 53 -22 37 -40 81 -29 102 27 9 23 43 39 64 29 4 -2 7 -19 7 -39z" transform="translate(332.0,148.0) scale(-0.1,-0.1)" stroke="none" fill="#81786C"/>

<path d="M905 1403 c-253 -21 -517 -128 -586 -239 -53 -87 12 -266 147 -401 l77 -76 -17 -26 c-9 -14 -29 -47 -43 -72 -24 -41 -31 -46 -65 -47 -21 -1 -38 3 -38 8 0 6 -13 10 -30 10 -16 0 -30 5 -30 10 0 6 -7 10 -16 10 -9 0 -30 13 -46 30 -15 16 -35 30 -42 30 -8 0 -16 5 -18 11 -3 9 -10 9 -26 0 -15 -8 -28 -9 -41 -2 -21 12 -48 -10 -37 -28 11 -17 66 -23 95 -11 26 10 33 8 82 -29 30 -23 80 -51 112 -64 56 -21 57 -23 50 -52 -5 -16 -8 -80 -8 -142 0 -97 3 -115 21 -140 28 -38 95 -73 168 -89 113 -24 344 -15 501 21 65 15 213 68 259 93 70 38 142 110 154 154 13 48 -6 131 -53 226 -35 69 -36 74 -21 97 20 31 20 32 -6 38 -13 4 -26 0 -33 -9 -9 -14 -20 -8 -73 37 -34 29 -62 53 -62 54 0 2 21 42 47 90 88 167 99 347 25 427 -63 69 -230 99 -447 81z m170 -262 c0 -34 -30 -51 -51 -29 -25 24 -10 60 24 56 21 -2 27 -8 27 -27z m-400 -56 c0 -25 -4 -30 -25 -30 -16 0 -26 6 -28 18 -6 30 6 49 30 45 18 -2 23 -9 23 -33z m405 -582 c0 -26 -8 -43 -33 -68 -60 -60 -137 -59 -195 2 -39 42 -38 67 2 71 21 3 36 -3 53 -22 37 -40 81 -29 102 27 9 23 43 39 64 29 4 -2 7 -19 7 -39z" transform="translate(0,148.0) scale(0.1,0.1)" stroke="none" fill="#81786C"/>

<path d="M905 1403 c-253 -21 -517 -128 -586 -239 -53 -87 12 -266 147 -401 l77 -76 -17 -26 c-9 -14 -29 -47 -43 -72 -24 -41 -31 -46 -65 -47 -21 -1 -38 3 -38 8 0 6 -13 10 -30 10 -16 0 -30 5 -30 10 0 6 -7 10 -16 10 -9 0 -30 13 -46 30 -15 16 -35 30 -42 30 -8 0 -16 5 -18 11 -3 9 -10 9 -26 0 -15 -8 -28 -9 -41 -2 -21 12 -48 -10 -37 -28 11 -17 66 -23 95 -11 26 10 33 8 82 -29 30 -23 80 -51 112 -64 56 -21 57 -23 50 -52 -5 -16 -8 -80 -8 -142 0 -97 3 -115 21 -140 28 -38 95 -73 168 -89 113 -24 344 -15 501 21 65 15 213 68 259 93 70 38 142 110 154 154 13 48 -6 131 -53 226 -35 69 -36 74 -21 97 20 31 20 32 -6 38 -13 4 -26 0 -33 -9 -9 -14 -20 -8 -73 37 -34 29 -62 53 -62 54 0 2 21 42 47 90 88 167 99 347 25 427 -63 69 -230 99 -447 81z m170 -262 c0 -34 -30 -51 -51 -29 -25 24 -10 60 24 56 21 -2 27 -8 27 -27z m-400 -56 c0 -25 -4 -30 -25 -30 -16 0 -26 6 -28 18 -6 30 6 49 30 45 18 -2 23 -9 23 -33z m405 -582 c0 -26 -8 -43 -33 -68 -60 -60 -137 -59 -195 2 -39 42 -38 67 2 71 21 3 36 -3 53 -22 37 -40 81 -29 102 27 9 23 43 39 64 29 4 -2 7 -19 7 -39z" transform="translate(332.0,148.0) scale(-0.1,0.1)" stroke="none" fill="#81786C"/>

</g>

</g>

<g id="1" transform="translate(166.0,0)scale(1,1)">

<g transform="matrix(0.5,0,0,0.5,0,0)">

<path d="M905 1403 c-253 -21 -517 -128 -586 -239 -53 -87 12 -266 147 -401 l77 -76 -17 -26 c-9 -14 -29 -47 -43 -72 -24 -41 -31 -46 -65 -47 -21 -1 -38 3 -38 8 0 6 -13 10 -30 10 -16 0 -30 5 -30 10 0 6 -7 10 -16 10 -9 0 -30 13 -46 30 -15 16 -35 30 -42 30 -8 0 -16 5 -18 11 -3 9 -10 9 -26 0 -15 -8 -28 -9 -41 -2 -21 12 -48 -10 -37 -28 11 -17 66 -23 95 -11 26 10 33 8 82 -29 30 -23 80 -51 112 -64 56 -21 57 -23 50 -52 -5 -16 -8 -80 -8 -142 0 -97 3 -115 21 -140 28 -38 95 -73 168 -89 113 -24 344 -15 501 21 65 15 213 68 259 93 70 38 142 110 154 154 13 48 -6 131 -53 226 -35 69 -36 74 -21 97 20 31 20 32 -6 38 -13 4 -26 0 -33 -9 -9 -14 -20 -8 -73 37 -34 29 -62 53 -62 54 0 2 21 42 47 90 88 167 99 347 25 427 -63 69 -230 99 -447 81z m170 -262 c0 -34 -30 -51 -51 -29 -25 24 -10 60 24 56 21 -2 27 -8 27 -27z m-400 -56 c0 -25 -4 -30 -25 -30 -16 0 -26 6 -28 18 -6 30 6 49 30 45 18 -2 23 -9 23 -33z m405 -582 c0 -26 -8 -43 -33 -68 -60 -60 -137 -59 -195 2 -39 42 -38 67 2 71 21 3 36 -3 53 -22 37 -40 81 -29 102 27 9 23 43 39 64 29 4 -2 7 -19 7 -39z" transform="translate(0,148.0) scale(0.1,-0.1)" stroke="none" fill="#81786C"/>

<path d="M905 1403 c-253 -21 -517 -128 -586 -239 -53 -87 12 -266 147 -401 l77 -76 -17 -26 c-9 -14 -29 -47 -43 -72 -24 -41 -31 -46 -65 -47 -21 -1 -38 3 -38 8 0 6 -13 10 -30 10 -16 0 -30 5 -30 10 0 6 -7 10 -16 10 -9 0 -30 13 -46 30 -15 16 -35 30 -42 30 -8 0 -16 5 -18 11 -3 9 -10 9 -26 0 -15 -8 -28 -9 -41 -2 -21 12 -48 -10 -37 -28 11 -17 66 -23 95 -11 26 10 33 8 82 -29 30 -23 80 -51 112 -64 56 -21 57 -23 50 -52 -5 -16 -8 -80 -8 -142 0 -97 3 -115 21 -140 28 -38 95 -73 168 -89 113 -24 344 -15 501 21 65 15 213 68 259 93 70 38 142 110 154 154 13 48 -6 131 -53 226 -35 69 -36 74 -21 97 20 31 20 32 -6 38 -13 4 -26 0 -33 -9 -9 -14 -20 -8 -73 37 -34 29 -62 53 -62 54 0 2 21 42 47 90 88 167 99 347 25 427 -63 69 -230 99 -447 81z m170 -262 c0 -34 -30 -51 -51 -29 -25 24 -10 60 24 56 21 -2 27 -8 27 -27z m-400 -56 c0 -25 -4 -30 -25 -30 -16 0 -26 6 -28 18 -6 30 6 49 30 45 18 -2 23 -9 23 -33z m405 -582 c0 -26 -8 -43 -33 -68 -60 -60 -137 -59 -195 2 -39 42 -38 67 2 71 21 3 36 -3 53 -22 37 -40 81 -29 102 27 9 23 43 39 64 29 4 -2 7 -19 7 -39z" transform="translate(332.0,148.0) scale(-0.1,-0.1)" stroke="none" fill="#81786C"/>

<path d="M905 1403 c-253 -21 -517 -128 -586 -239 -53 -87 12 -266 147 -401 l77 -76 -17 -26 c-9 -14 -29 -47 -43 -72 -24 -41 -31 -46 -65 -47 -21 -1 -38 3 -38 8 0 6 -13 10 -30 10 -16 0 -30 5 -30 10 0 6 -7 10 -16 10 -9 0 -30 13 -46 30 -15 16 -35 30 -42 30 -8 0 -16 5 -18 11 -3 9 -10 9 -26 0 -15 -8 -28 -9 -41 -2 -21 12 -48 -10 -37 -28 11 -17 66 -23 95 -11 26 10 33 8 82 -29 30 -23 80 -51 112 -64 56 -21 57 -23 50 -52 -5 -16 -8 -80 -8 -142 0 -97 3 -115 21 -140 28 -38 95 -73 168 -89 113 -24 344 -15 501 21 65 15 213 68 259 93 70 38 142 110 154 154 13 48 -6 131 -53 226 -35 69 -36 74 -21 97 20 31 20 32 -6 38 -13 4 -26 0 -33 -9 -9 -14 -20 -8 -73 37 -34 29 -62 53 -62 54 0 2 21 42 47 90 88 167 99 347 25 427 -63 69 -230 99 -447 81z m170 -262 c0 -34 -30 -51 -51 -29 -25 24 -10 60 24 56 21 -2 27 -8 27 -27z m-400 -56 c0 -25 -4 -30 -25 -30 -16 0 -26 6 -28 18 -6 30 6 49 30 45 18 -2 23 -9 23 -33z m405 -582 c0 -26 -8 -43 -33 -68 -60 -60 -137 -59 -195 2 -39 42 -38 67 2 71 21 3 36 -3 53 -22 37 -40 81 -29 102 27 9 23 43 39 64 29 4 -2 7 -19 7 -39z" transform="translate(0,148.0) scale(0.1,0.1)" stroke="none" fill="#81786C"/>

<path d="M905 1403 c-253 -21 -517 -128 -586 -239 -53 -87 12 -266 147 -401 l77 -76 -17 -26 c-9 -14 -29 -47 -43 -72 -24 -41 -31 -46 -65 -47 -21 -1 -38 3 -38 8 0 6 -13 10 -30 10 -16 0 -30 5 -30 10 0 6 -7 10 -16 10 -9 0 -30 13 -46 30 -15 16 -35 30 -42 30 -8 0 -16 5 -18 11 -3 9 -10 9 -26 0 -15 -8 -28 -9 -41 -2 -21 12 -48 -10 -37 -28 11 -17 66 -23 95 -11 26 10 33 8 82 -29 30 -23 80 -51 112 -64 56 -21 57 -23 50 -52 -5 -16 -8 -80 -8 -142 0 -97 3 -115 21 -140 28 -38 95 -73 168 -89 113 -24 344 -15 501 21 65 15 213 68 259 93 70 38 142 110 154 154 13 48 -6 131 -53 226 -35 69 -36 74 -21 97 20 31 20 32 -6 38 -13 4 -26 0 -33 -9 -9 -14 -20 -8 -73 37 -34 29 -62 53 -62 54 0 2 21 42 47 90 88 167 99 347 25 427 -63 69 -230 99 -447 81z m170 -262 c0 -34 -30 -51 -51 -29 -25 24 -10 60 24 56 21 -2 27 -8 27 -27z m-400 -56 c0 -25 -4 -30 -25 -30 -16 0 -26 6 -28 18 -6 30 6 49 30 45 18 -2 23 -9 23 -33z m405 -582 c0 -26 -8 -43 -33 -68 -60 -60 -137 -59 -195 2 -39 42 -38 67 2 71 21 3 36 -3 53 -22 37 -40 81 -29 102 27 9 23 43 39 64 29 4 -2 7 -19 7 -39z" transform="translate(332.0,148.0) scale(-0.1,0.1)" stroke="none" fill="#81786C"/>

</g>

</g>

<g id="2" transform="translate(332.0,0)scale(1,1)">

<g transform="matrix(0.5,0,0,0.5,0,0)">

<path d="M905 1403 c-253 -21 -517 -128 -586 -239 -53 -87 12 -266 147 -401 l77 -76 -17 -26 c-9 -14 -29 -47 -43 -72 -24 -41 -31 -46 -65 -47 -21 -1 -38 3 -38 8 0 6 -13 10 -30 10 -16 0 -30 5 -30 10 0 6 -7 10 -16 10 -9 0 -30 13 -46 30 -15 16 -35 30 -42 30 -8 0 -16 5 -18 11 -3 9 -10 9 -26 0 -15 -8 -28 -9 -41 -2 -21 12 -48 -10 -37 -28 11 -17 66 -23 95 -11 26 10 33 8 82 -29 30 -23 80 -51 112 -64 56 -21 57 -23 50 -52 -5 -16 -8 -80 -8 -142 0 -97 3 -115 21 -140 28 -38 95 -73 168 -89 113 -24 344 -15 501 21 65 15 213 68 259 93 70 38 142 110 154 154 13 48 -6 131 -53 226 -35 69 -36 74 -21 97 20 31 20 32 -6 38 -13 4 -26 0 -33 -9 -9 -14 -20 -8 -73 37 -34 29 -62 53 -62 54 0 2 21 42 47 90 88 167 99 347 25 427 -63 69 -230 99 -447 81z m170 -262 c0 -34 -30 -51 -51 -29 -25 24 -10 60 24 56 21 -2 27 -8 27 -27z m-400 -56 c0 -25 -4 -30 -25 -30 -16 0 -26 6 -28 18 -6 30 6 49 30 45 18 -2 23 -9 23 -33z m405 -582 c0 -26 -8 -43 -33 -68 -60 -60 -137 -59 -195 2 -39 42 -38 67 2 71 21 3 36 -3 53 -22 37 -40 81 -29 102 27 9 23 43 39 64 29 4 -2 7 -19 7 -39z" transform="translate(0,148.0) scale(0.1,-0.1)" stroke="none" fill="#81786C"/>

<path d="M905 1403 c-253 -21 -517 -128 -586 -239 -53 -87 12 -266 147 -401 l77 -76 -17 -26 c-9 -14 -29 -47 -43 -72 -24 -41 -31 -46 -65 -47 -21 -1 -38 3 -38 8 0 6 -13 10 -30 10 -16 0 -30 5 -30 10 0 6 -7 10 -16 10 -9 0 -30 13 -46 30 -15 16 -35 30 -42 30 -8 0 -16 5 -18 11 -3 9 -10 9 -26 0 -15 -8 -28 -9 -41 -2 -21 12 -48 -10 -37 -28 11 -17 66 -23 95 -11 26 10 33 8 82 -29 30 -23 80 -51 112 -64 56 -21 57 -23 50 -52 -5 -16 -8 -80 -8 -142 0 -97 3 -115 21 -140 28 -38 95 -73 168 -89 113 -24 344 -15 501 21 65 15 213 68 259 93 70 38 142 110 154 154 13 48 -6 131 -53 226 -35 69 -36 74 -21 97 20 31 20 32 -6 38 -13 4 -26 0 -33 -9 -9 -14 -20 -8 -73 37 -34 29 -62 53 -62 54 0 2 21 42 47 90 88 167 99 347 25 427 -63 69 -230 99 -447 81z m170 -262 c0 -34 -30 -51 -51 -29 -25 24 -10 60 24 56 21 -2 27 -8 27 -27z m-400 -56 c0 -25 -4 -30 -25 -30 -16 0 -26 6 -28 18 -6 30 6 49 30 45 18 -2 23 -9 23 -33z m405 -582 c0 -26 -8 -43 -33 -68 -60 -60 -137 -59 -195 2 -39 42 -38 67 2 71 21 3 36 -3 53 -22 37 -40 81 -29 102 27 9 23 43 39 64 29 4 -2 7 -19 7 -39z" transform="translate(332.0,148.0) scale(-0.1,-0.1)" stroke="none" fill="#81786C"/>

<path d="M905 1403 c-253 -21 -517 -128 -586 -239 -53 -87 12 -266 147 -401 l77 -76 -17 -26 c-9 -14 -29 -47 -43 -72 -24 -41 -31 -46 -65 -47 -21 -1 -38 3 -38 8 0 6 -13 10 -30 10 -16 0 -30 5 -30 10 0 6 -7 10 -16 10 -9 0 -30 13 -46 30 -15 16 -35 30 -42 30 -8 0 -16 5 -18 11 -3 9 -10 9 -26 0 -15 -8 -28 -9 -41 -2 -21 12 -48 -10 -37 -28 11 -17 66 -23 95 -11 26 10 33 8 82 -29 30 -23 80 -51 112 -64 56 -21 57 -23 50 -52 -5 -16 -8 -80 -8 -142 0 -97 3 -115 21 -140 28 -38 95 -73 168 -89 113 -24 344 -15 501 21 65 15 213 68 259 93 70 38 142 110 154 154 13 48 -6 131 -53 226 -35 69 -36 74 -21 97 20 31 20 32 -6 38 -13 4 -26 0 -33 -9 -9 -14 -20 -8 -73 37 -34 29 -62 53 -62 54 0 2 21 42 47 90 88 167 99 347 25 427 -63 69 -230 99 -447 81z m170 -262 c0 -34 -30 -51 -51 -29 -25 24 -10 60 24 56 21 -2 27 -8 27 -27z m-400 -56 c0 -25 -4 -30 -25 -30 -16 0 -26 6 -28 18 -6 30 6 49 30 45 18 -2 23 -9 23 -33z m405 -582 c0 -26 -8 -43 -33 -68 -60 -60 -137 -59 -195 2 -39 42 -38 67 2 71 21 3 36 -3 53 -22 37 -40 81 -29 102 27 9 23 43 39 64 29 4 -2 7 -19 7 -39z" transform="translate(0,148.0) scale(0.1,0.1)" stroke="none" fill="#81786C"/>

<path d="M905 1403 c-253 -21 -517 -128 -586 -239 -53 -87 12 -266 147 -401 l77 -76 -17 -26 c-9 -14 -29 -47 -43 -72 -24 -41 -31 -46 -65 -47 -21 -1 -38 3 -38 8 0 6 -13 10 -30 10 -16 0 -30 5 -30 10 0 6 -7 10 -16 10 -9 0 -30 13 -46 30 -15 16 -35 30 -42 30 -8 0 -16 5 -18 11 -3 9 -10 9 -26 0 -15 -8 -28 -9 -41 -2 -21 12 -48 -10 -37 -28 11 -17 66 -23 95 -11 26 10 33 8 82 -29 30 -23 80 -51 112 -64 56 -21 57 -23 50 -52 -5 -16 -8 -80 -8 -142 0 -97 3 -115 21 -140 28 -38 95 -73 168 -89 113 -24 344 -15 501 21 65 15 213 68 259 93 70 38 142 110 154 154 13 48 -6 131 -53 226 -35 69 -36 74 -21 97 20 31 20 32 -6 38 -13 4 -26 0 -33 -9 -9 -14 -20 -8 -73 37 -34 29 -62 53 -62 54 0 2 21 42 47 90 88 167 99 347 25 427 -63 69 -230 99 -447 81z m170 -262 c0 -34 -30 -51 -51 -29 -25 24 -10 60 24 56 21 -2 27 -8 27 -27z m-400 -56 c0 -25 -4 -30 -25 -30 -16 0 -26 6 -28 18 -6 30 6 49 30 45 18 -2 23 -9 23 -33z m405 -582 c0 -26 -8 -43 -33 -68 -60 -60 -137 -59 -195 2 -39 42 -38 67 2 71 21 3 36 -3 53 -22 37 -40 81 -29 102 27 9 23 43 39 64 29 4 -2 7 -19 7 -39z" transform="translate(332.0,148.0) scale(-0.1,0.1)" stroke="none" fill="#81786C"/>

</g>

</g>

<g id="3" transform="translate(498.0,0)scale(1,1)">

<g transform="matrix(0.5,0,0,0.5,0,0)">

<path d="M905 1403 c-253 -21 -517 -128 -586 -239 -53 -87 12 -266 147 -401 l77 -76 -17 -26 c-9 -14 -29 -47 -43 -72 -24 -41 -31 -46 -65 -47 -21 -1 -38 3 -38 8 0 6 -13 10 -30 10 -16 0 -30 5 -30 10 0 6 -7 10 -16 10 -9 0 -30 13 -46 30 -15 16 -35 30 -42 30 -8 0 -16 5 -18 11 -3 9 -10 9 -26 0 -15 -8 -28 -9 -41 -2 -21 12 -48 -10 -37 -28 11 -17 66 -23 95 -11 26 10 33 8 82 -29 30 -23 80 -51 112 -64 56 -21 57 -23 50 -52 -5 -16 -8 -80 -8 -142 0 -97 3 -115 21 -140 28 -38 95 -73 168 -89 113 -24 344 -15 501 21 65 15 213 68 259 93 70 38 142 110 154 154 13 48 -6 131 -53 226 -35 69 -36 74 -21 97 20 31 20 32 -6 38 -13 4 -26 0 -33 -9 -9 -14 -20 -8 -73 37 -34 29 -62 53 -62 54 0 2 21 42 47 90 88 167 99 347 25 427 -63 69 -230 99 -447 81z m170 -262 c0 -34 -30 -51 -51 -29 -25 24 -10 60 24 56 21 -2 27 -8 27 -27z m-400 -56 c0 -25 -4 -30 -25 -30 -16 0 -26 6 -28 18 -6 30 6 49 30 45 18 -2 23 -9 23 -33z m405 -582 c0 -26 -8 -43 -33 -68 -60 -60 -137 -59 -195 2 -39 42 -38 67 2 71 21 3 36 -3 53 -22 37 -40 81 -29 102 27 9 23 43 39 64 29 4 -2 7 -19 7 -39z" transform="translate(0,148.0) scale(0.1,-0.1)" stroke="none" fill="#81786C"/>

<path d="M905 1403 c-253 -21 -517 -128 -586 -239 -53 -87 12 -266 147 -401 l77 -76 -17 -26 c-9 -14 -29 -47 -43 -72 -24 -41 -31 -46 -65 -47 -21 -1 -38 3 -38 8 0 6 -13 10 -30 10 -16 0 -30 5 -30 10 0 6 -7 10 -16 10 -9 0 -30 13 -46 30 -15 16 -35 30 -42 30 -8 0 -16 5 -18 11 -3 9 -10 9 -26 0 -15 -8 -28 -9 -41 -2 -21 12 -48 -10 -37 -28 11 -17 66 -23 95 -11 26 10 33 8 82 -29 30 -23 80 -51 112 -64 56 -21 57 -23 50 -52 -5 -16 -8 -80 -8 -142 0 -97 3 -115 21 -140 28 -38 95 -73 168 -89 113 -24 344 -15 501 21 65 15 213 68 259 93 70 38 142 110 154 154 13 48 -6 131 -53 226 -35 69 -36 74 -21 97 20 31 20 32 -6 38 -13 4 -26 0 -33 -9 -9 -14 -20 -8 -73 37 -34 29 -62 53 -62 54 0 2 21 42 47 90 88 167 99 347 25 427 -63 69 -230 99 -447 81z m170 -262 c0 -34 -30 -51 -51 -29 -25 24 -10 60 24 56 21 -2 27 -8 27 -27z m-400 -56 c0 -25 -4 -30 -25 -30 -16 0 -26 6 -28 18 -6 30 6 49 30 45 18 -2 23 -9 23 -33z m405 -582 c0 -26 -8 -43 -33 -68 -60 -60 -137 -59 -195 2 -39 42 -38 67 2 71 21 3 36 -3 53 -22 37 -40 81 -29 102 27 9 23 43 39 64 29 4 -2 7 -19 7 -39z" transform="translate(332.0,148.0) scale(-0.1,-0.1)" stroke="none" fill="#81786C"/>

<path d="M905 1403 c-253 -21 -517 -128 -586 -239 -53 -87 12 -266 147 -401 l77 -76 -17 -26 c-9 -14 -29 -47 -43 -72 -24 -41 -31 -46 -65 -47 -21 -1 -38 3 -38 8 0 6 -13 10 -30 10 -16 0 -30 5 -30 10 0 6 -7 10 -16 10 -9 0 -30 13 -46 30 -15 16 -35 30 -42 30 -8 0 -16 5 -18 11 -3 9 -10 9 -26 0 -15 -8 -28 -9 -41 -2 -21 12 -48 -10 -37 -28 11 -17 66 -23 95 -11 26 10 33 8 82 -29 30 -23 80 -51 112 -64 56 -21 57 -23 50 -52 -5 -16 -8 -80 -8 -142 0 -97 3 -115 21 -140 28 -38 95 -73 168 -89 113 -24 344 -15 501 21 65 15 213 68 259 93 70 38 142 110 154 154 13 48 -6 131 -53 226 -35 69 -36 74 -21 97 20 31 20 32 -6 38 -13 4 -26 0 -33 -9 -9 -14 -20 -8 -73 37 -34 29 -62 53 -62 54 0 2 21 42 47 90 88 167 99 347 25 427 -63 69 -230 99 -447 81z m170 -262 c0 -34 -30 -51 -51 -29 -25 24 -10 60 24 56 21 -2 27 -8 27 -27z m-400 -56 c0 -25 -4 -30 -25 -30 -16 0 -26 6 -28 18 -6 30 6 49 30 45 18 -2 23 -9 23 -33z m405 -582 c0 -26 -8 -43 -33 -68 -60 -60 -137 -59 -195 2 -39 42 -38 67 2 71 21 3 36 -3 53 -22 37 -40 81 -29 102 27 9 23 43 39 64 29 4 -2 7 -19 7 -39z" transform="translate(0,148.0) scale(0.1,0.1)" stroke="none" fill="#81786C"/>

<path d="M905 1403 c-253 -21 -517 -128 -586 -239 -53 -87 12 -266 147 -401 l77 -76 -17 -26 c-9 -14 -29 -47 -43 -72 -24 -41 -31 -46 -65 -47 -21 -1 -38 3 -38 8 0 6 -13 10 -30 10 -16 0 -30 5 -30 10 0 6 -7 10 -16 10 -9 0 -30 13 -46 30 -15 16 -35 30 -42 30 -8 0 -16 5 -18 11 -3 9 -10 9 -26 0 -15 -8 -28 -9 -41 -2 -21 12 -48 -10 -37 -28 11 -17 66 -23 95 -11 26 10 33 8 82 -29 30 -23 80 -51 112 -64 56 -21 57 -23 50 -52 -5 -16 -8 -80 -8 -142 0 -97 3 -115 21 -140 28 -38 95 -73 168 -89 113 -24 344 -15 501 21 65 15 213 68 259 93 70 38 142 110 154 154 13 48 -6 131 -53 226 -35 69 -36 74 -21 97 20 31 20 32 -6 38 -13 4 -26 0 -33 -9 -9 -14 -20 -8 -73 37 -34 29 -62 53 -62 54 0 2 21 42 47 90 88 167 99 347 25 427 -63 69 -230 99 -447 81z m170 -262 c0 -34 -30 -51 -51 -29 -25 24 -10 60 24 56 21 -2 27 -8 27 -27z m-400 -56 c0 -25 -4 -30 -25 -30 -16 0 -26 6 -28 18 -6 30 6 49 30 45 18 -2 23 -9 23 -33z m405 -582 c0 -26 -8 -43 -33 -68 -60 -60 -137 -59 -195 2 -39 42 -38 67 2 71 21 3 36 -3 53 -22 37 -40 81 -29 102 27 9 23 43 39 64 29 4 -2 7 -19 7 -39z" transform="translate(332.0,148.0) scale(-0.1,0.1)" stroke="none" fill="#81786C"/>

</g>

</g>

<g id="4" transform="translate(664.0,0)scale(1,1)">

<g transform="matrix(0.5,0,0,0.5,0,0)">

<path d="M905 1403 c-253 -21 -517 -128 -586 -239 -53 -87 12 -266 147 -401 l77 -76 -17 -26 c-9 -14 -29 -47 -43 -72 -24 -41 -31 -46 -65 -47 -21 -1 -38 3 -38 8 0 6 -13 10 -30 10 -16 0 -30 5 -30 10 0 6 -7 10 -16 10 -9 0 -30 13 -46 30 -15 16 -35 30 -42 30 -8 0 -16 5 -18 11 -3 9 -10 9 -26 0 -15 -8 -28 -9 -41 -2 -21 12 -48 -10 -37 -28 11 -17 66 -23 95 -11 26 10 33 8 82 -29 30 -23 80 -51 112 -64 56 -21 57 -23 50 -52 -5 -16 -8 -80 -8 -142 0 -97 3 -115 21 -140 28 -38 95 -73 168 -89 113 -24 344 -15 501 21 65 15 213 68 259 93 70 38 142 110 154 154 13 48 -6 131 -53 226 -35 69 -36 74 -21 97 20 31 20 32 -6 38 -13 4 -26 0 -33 -9 -9 -14 -20 -8 -73 37 -34 29 -62 53 -62 54 0 2 21 42 47 90 88 167 99 347 25 427 -63 69 -230 99 -447 81z m170 -262 c0 -34 -30 -51 -51 -29 -25 24 -10 60 24 56 21 -2 27 -8 27 -27z m-400 -56 c0 -25 -4 -30 -25 -30 -16 0 -26 6 -28 18 -6 30 6 49 30 45 18 -2 23 -9 23 -33z m405 -582 c0 -26 -8 -43 -33 -68 -60 -60 -137 -59 -195 2 -39 42 -38 67 2 71 21 3 36 -3 53 -22 37 -40 81 -29 102 27 9 23 43 39 64 29 4 -2 7 -19 7 -39z" transform="translate(0,148.0) scale(0.1,-0.1)" stroke="none" fill="#81786C"/>

<path d="M905 1403 c-253 -21 -517 -128 -586 -239 -53 -87 12 -266 147 -401 l77 -76 -17 -26 c-9 -14 -29 -47 -43 -72 -24 -41 -31 -46 -65 -47 -21 -1 -38 3 -38 8 0 6 -13 10 -30 10 -16 0 -30 5 -30 10 0 6 -7 10 -16 10 -9 0 -30 13 -46 30 -15 16 -35 30 -42 30 -8 0 -16 5 -18 11 -3 9 -10 9 -26 0 -15 -8 -28 -9 -41 -2 -21 12 -48 -10 -37 -28 11 -17 66 -23 95 -11 26 10 33 8 82 -29 30 -23 80 -51 112 -64 56 -21 57 -23 50 -52 -5 -16 -8 -80 -8 -142 0 -97 3 -115 21 -140 28 -38 95 -73 168 -89 113 -24 344 -15 501 21 65 15 213 68 259 93 70 38 142 110 154 154 13 48 -6 131 -53 226 -35 69 -36 74 -21 97 20 31 20 32 -6 38 -13 4 -26 0 -33 -9 -9 -14 -20 -8 -73 37 -34 29 -62 53 -62 54 0 2 21 42 47 90 88 167 99 347 25 427 -63 69 -230 99 -447 81z m170 -262 c0 -34 -30 -51 -51 -29 -25 24 -10 60 24 56 21 -2 27 -8 27 -27z m-400 -56 c0 -25 -4 -30 -25 -30 -16 0 -26 6 -28 18 -6 30 6 49 30 45 18 -2 23 -9 23 -33z m405 -582 c0 -26 -8 -43 -33 -68 -60 -60 -137 -59 -195 2 -39 42 -38 67 2 71 21 3 36 -3 53 -22 37 -40 81 -29 102 27 9 23 43 39 64 29 4 -2 7 -19 7 -39z" transform="translate(332.0,148.0) scale(-0.1,-0.1)" stroke="none" fill="#81786C"/>

<path d="M905 1403 c-253 -21 -517 -128 -586 -239 -53 -87 12 -266 147 -401 l77 -76 -17 -26 c-9 -14 -29 -47 -43 -72 -24 -41 -31 -46 -65 -47 -21 -1 -38 3 -38 8 0 6 -13 10 -30 10 -16 0 -30 5 -30 10 0 6 -7 10 -16 10 -9 0 -30 13 -46 30 -15 16 -35 30 -42 30 -8 0 -16 5 -18 11 -3 9 -10 9 -26 0 -15 -8 -28 -9 -41 -2 -21 12 -48 -10 -37 -28 11 -17 66 -23 95 -11 26 10 33 8 82 -29 30 -23 80 -51 112 -64 56 -21 57 -23 50 -52 -5 -16 -8 -80 -8 -142 0 -97 3 -115 21 -140 28 -38 95 -73 168 -89 113 -24 344 -15 501 21 65 15 213 68 259 93 70 38 142 110 154 154 13 48 -6 131 -53 226 -35 69 -36 74 -21 97 20 31 20 32 -6 38 -13 4 -26 0 -33 -9 -9 -14 -20 -8 -73 37 -34 29 -62 53 -62 54 0 2 21 42 47 90 88 167 99 347 25 427 -63 69 -230 99 -447 81z m170 -262 c0 -34 -30 -51 -51 -29 -25 24 -10 60 24 56 21 -2 27 -8 27 -27z m-400 -56 c0 -25 -4 -30 -25 -30 -16 0 -26 6 -28 18 -6 30 6 49 30 45 18 -2 23 -9 23 -33z m405 -582 c0 -26 -8 -43 -33 -68 -60 -60 -137 -59 -195 2 -39 42 -38 67 2 71 21 3 36 -3 53 -22 37 -40 81 -29 102 27 9 23 43 39 64 29 4 -2 7 -19 7 -39z" transform="translate(0,148.0) scale(0.1,0.1)" stroke="none" fill="#81786C"/>

<path d="M905 1403 c-253 -21 -517 -128 -586 -239 -53 -87 12 -266 147 -401 l77 -76 -17 -26 c-9 -14 -29 -47 -43 -72 -24 -41 -31 -46 -65 -47 -21 -1 -38 3 -38 8 0 6 -13 10 -30 10 -16 0 -30 5 -30 10 0 6 -7 10 -16 10 -9 0 -30 13 -46 30 -15 16 -35 30 -42 30 -8 0 -16 5 -18 11 -3 9 -10 9 -26 0 -15 -8 -28 -9 -41 -2 -21 12 -48 -10 -37 -28 11 -17 66 -23 95 -11 26 10 33 8 82 -29 30 -23 80 -51 112 -64 56 -21 57 -23 50 -52 -5 -16 -8 -80 -8 -142 0 -97 3 -115 21 -140 28 -38 95 -73 168 -89 113 -24 344 -15 501 21 65 15 213 68 259 93 70 38 142 110 154 154 13 48 -6 131 -53 226 -35 69 -36 74 -21 97 20 31 20 32 -6 38 -13 4 -26 0 -33 -9 -9 -14 -20 -8 -73 37 -34 29 -62 53 -62 54 0 2 21 42 47 90 88 167 99 347 25 427 -63 69 -230 99 -447 81z m170 -262 c0 -34 -30 -51 -51 -29 -25 24 -10 60 24 56 21 -2 27 -8 27 -27z m-400 -56 c0 -25 -4 -30 -25 -30 -16 0 -26 6 -28 18 -6 30 6 49 30 45 18 -2 23 -9 23 -33z m405 -582 c0 -26 -8 -43 -33 -68 -60 -60 -137 -59 -195 2 -39 42 -38 67 2 71 21 3 36 -3 53 -22 37 -40 81 -29 102 27 9 23 43 39 64 29 4 -2 7 -19 7 -39z" transform="translate(332.0,148.0) scale(-0.1,0.1)" stroke="none" fill="#81786C"/>

</g>

</g>

</g>
<g id="row2" transform="translate(22,296.0)">
<g id="0" transform="translate(0.0,0)scale(1,1)">

<g transform="matrix(0.5,0,0,0.5,0,0)">

<path d="M905 1403 c-253 -21 -517 -128 -586 -239 -53 -87 12 -266 147 -401 l77 -76 -17 -26 c-9 -14 -29 -47 -43 -72 -24 -41 -31 -46 -65 -47 -21 -1 -38 3 -38 8 0 6 -13 10 -30 10 -16 0 -30 5 -30 10 0 6 -7 10 -16 10 -9 0 -30 13 -46 30 -15 16 -35 30 -42 30 -8 0 -16 5 -18 11 -3 9 -10 9 -26 0 -15 -8 -28 -9 -41 -2 -21 12 -48 -10 -37 -28 11 -17 66 -23 95 -11 26 10 33 8 82 -29 30 -23 80 -51 112 -64 56 -21 57 -23 50 -52 -5 -16 -8 -80 -8 -142 0 -97 3 -115 21 -140 28 -38 95 -73 168 -89 113 -24 344 -15 501 21 65 15 213 68 259 93 70 38 142 110 154 154 13 48 -6 131 -53 226 -35 69 -36 74 -21 97 20 31 20 32 -6 38 -13 4 -26 0 -33 -9 -9 -14 -20 -8 -73 37 -34 29 -62 53 -62 54 0 2 21 42 47 90 88 167 99 347 25 427 -63 69 -230 99 -447 81z m170 -262 c0 -34 -30 -51 -51 -29 -25 24 -10 60 24 56 21 -2 27 -8 27 -27z m-400 -56 c0 -25 -4 -30 -25 -30 -16 0 -26 6 -28 18 -6 30 6 49 30 45 18 -2 23 -9 23 -33z m405 -582 c0 -26 -8 -43 -33 -68 -60 -60 -137 -59 -195 2 -39 42 -38 67 2 71 21 3 36 -3 53 -22 37 -40 81 -29 102 27 9 23 43 39 64 29 4 -2 7 -19 7 -39z" transform="translate(0,148.0) scale(0.1,-0.1)" stroke="none" fill="#81786C"/>

<path d="M905 1403 c-253 -21 -517 -128 -586 -239 -53 -87 12 -266 147 -401 l77 -76 -17 -26 c-9 -14 -29 -47 -43 -72 -24 -41 -31 -46 -65 -47 -21 -1 -38 3 -38 8 0 6 -13 10 -30 10 -16 0 -30 5 -30 10 0 6 -7 10 -16 10 -9 0 -30 13 -46 30 -15 16 -35 30 -42 30 -8 0 -16 5 -18 11 -3 9 -10 9 -26 0 -15 -8 -28 -9 -41 -2 -21 12 -48 -10 -37 -28 11 -17 66 -23 95 -11 26 10 33 8 82 -29 30 -23 80 -51 112 -64 56 -21 57 -23 50 -52 -5 -16 -8 -80 -8 -142 0 -97 3 -115 21 -140 28 -38 95 -73 168 -89 113 -24 344 -15 501 21 65 15 213 68 259 93 70 38 142 110 154 154 13 48 -6 131 -53 226 -35 69 -36 74 -21 97 20 31 20 32 -6 38 -13 4 -26 0 -33 -9 -9 -14 -20 -8 -73 37 -34 29 -62 53 -62 54 0 2 21 42 47 90 88 167 99 347 25 427 -63 69 -230 99 -447 81z m170 -262 c0 -34 -30 -51 -51 -29 -25 24 -10 60 24 56 21 -2 27 -8 27 -27z m-400 -56 c0 -25 -4 -30 -25 -30 -16 0 -26 6 -28 18 -6 30 6 49 30 45 18 -2 23 -9 23 -33z m405 -582 c0 -26 -8 -43 -33 -68 -60 -60 -137 -59 -195 2 -39 42 -38 67 2 71 21 3 36 -3 53 -22 37 -40 81 -29 102 27 9 23 43 39 64 29 4 -2 7 -19 7 -39z" transform="translate(332.0,148.0) scale(-0.1,-0.1)" stroke="none" fill="#81786C"/>

<path d="M905 1403 c-253 -21 -517 -128 -586 -239 -53 -87 12 -266 147 -401 l77 -76 -17 -26 c-9 -14 -29 -47 -43 -72 -24 -41 -31 -46 -65 -47 -21 -1 -38 3 -38 8 0 6 -13 10 -30 10 -16 0 -30 5 -30 10 0 6 -7 10 -16 10 -9 0 -30 13 -46 30 -15 16 -35 30 -42 30 -8 0 -16 5 -18 11 -3 9 -10 9 -26 0 -15 -8 -28 -9 -41 -2 -21 12 -48 -10 -37 -28 11 -17 66 -23 95 -11 26 10 33 8 82 -29 30 -23 80 -51 112 -64 56 -21 57 -23 50 -52 -5 -16 -8 -80 -8 -142 0 -97 3 -115 21 -140 28 -38 95 -73 168 -89 113 -24 344 -15 501 21 65 15 213 68 259 93 70 38 142 110 154 154 13 48 -6 131 -53 226 -35 69 -36 74 -21 97 20 31 20 32 -6 38 -13 4 -26 0 -33 -9 -9 -14 -20 -8 -73 37 -34 29 -62 53 -62 54 0 2 21 42 47 90 88 167 99 347 25 427 -63 69 -230 99 -447 81z m170 -262 c0 -34 -30 -51 -51 -29 -25 24 -10 60 24 56 21 -2 27 -8 27 -27z m-400 -56 c0 -25 -4 -30 -25 -30 -16 0 -26 6 -28 18 -6 30 6 49 30 45 18 -2 23 -9 23 -33z m405 -582 c0 -26 -8 -43 -33 -68 -60 -60 -137 -59 -195 2 -39 42 -38 67 2 71 21 3 36 -3 53 -22 37 -40 81 -29 102 27 9 23 43 39 64 29 4 -2 7 -19 7 -39z" transform="translate(0,148.0) scale(0.1,0.1)" stroke="none" fill="#81786C"/>

<path d="M905 1403 c-253 -21 -517 -128 -586 -239 -53 -87 12 -266 147 -401 l77 -76 -17 -26 c-9 -14 -29 -47 -43 -72 -24 -41 -31 -46 -65 -47 -21 -1 -38 3 -38 8 0 6 -13 10 -30 10 -16 0 -30 5 -30 10 0 6 -7 10 -16 10 -9 0 -30 13 -46 30 -15 16 -35 30 -42 30 -8 0 -16 5 -18 11 -3 9 -10 9 -26 0 -15 -8 -28 -9 -41 -2 -21 12 -48 -10 -37 -28 11 -17 66 -23 95 -11 26 10 33 8 82 -29 30 -23 80 -51 112 -64 56 -21 57 -23 50 -52 -5 -16 -8 -80 -8 -142 0 -97 3 -115 21 -140 28 -38 95 -73 168 -89 113 -24 344 -15 501 21 65 15 213 68 259 93 70 38 142 110 154 154 13 48 -6 131 -53 226 -35 69 -36 74 -21 97 20 31 20 32 -6 38 -13 4 -26 0 -33 -9 -9 -14 -20 -8 -73 37 -34 29 -62 53 -62 54 0 2 21 42 47 90 88 167 99 347 25 427 -63 69 -230 99 -447 81z m170 -262 c0 -34 -30 -51 -51 -29 -25 24 -10 60 24 56 21 -2 27 -8 27 -27z m-400 -56 c0 -25 -4 -30 -25 -30 -16 0 -26 6 -28 18 -6 30 6 49 30 45 18 -2 23 -9 23 -33z m405 -582 c0 -26 -8 -43 -33 -68 -60 -60 -137 -59 -195 2 -39 42 -38 67 2 71 21 3 36 -3 53 -22 37 -40 81 -29 102 27 9 23 43 39 64 29 4 -2 7 -19 7 -39z" transform="translate(332.0,148.0) scale(-0.1,0.1)" stroke="none" fill="#81786C"/>

</g>

</g>

<g id="1" transform="translate(166.0,0)scale(1,1)">

<g transform="matrix(0.5,0,0,0.5,0,0)">

<path d="M905 1403 c-253 -21 -517 -128 -586 -239 -53 -87 12 -266 147 -401 l77 -76 -17 -26 c-9 -14 -29 -47 -43 -72 -24 -41 -31 -46 -65 -47 -21 -1 -38 3 -38 8 0 6 -13 10 -30 10 -16 0 -30 5 -30 10 0 6 -7 10 -16 10 -9 0 -30 13 -46 30 -15 16 -35 30 -42 30 -8 0 -16 5 -18 11 -3 9 -10 9 -26 0 -15 -8 -28 -9 -41 -2 -21 12 -48 -10 -37 -28 11 -17 66 -23 95 -11 26 10 33 8 82 -29 30 -23 80 -51 112 -64 56 -21 57 -23 50 -52 -5 -16 -8 -80 -8 -142 0 -97 3 -115 21 -140 28 -38 95 -73 168 -89 113 -24 344 -15 501 21 65 15 213 68 259 93 70 38 142 110 154 154 13 48 -6 131 -53 226 -35 69 -36 74 -21 97 20 31 20 32 -6 38 -13 4 -26 0 -33 -9 -9 -14 -20 -8 -73 37 -34 29 -62 53 -62 54 0 2 21 42 47 90 88 167 99 347 25 427 -63 69 -230 99 -447 81z m170 -262 c0 -34 -30 -51 -51 -29 -25 24 -10 60 24 56 21 -2 27 -8 27 -27z m-400 -56 c0 -25 -4 -30 -25 -30 -16 0 -26 6 -28 18 -6 30 6 49 30 45 18 -2 23 -9 23 -33z m405 -582 c0 -26 -8 -43 -33 -68 -60 -60 -137 -59 -195 2 -39 42 -38 67 2 71 21 3 36 -3 53 -22 37 -40 81 -29 102 27 9 23 43 39 64 29 4 -2 7 -19 7 -39z" transform="translate(0,148.0) scale(0.1,-0.1)" stroke="none" fill="#81786C"/>

<path d="M905 1403 c-253 -21 -517 -128 -586 -239 -53 -87 12 -266 147 -401 l77 -76 -17 -26 c-9 -14 -29 -47 -43 -72 -24 -41 -31 -46 -65 -47 -21 -1 -38 3 -38 8 0 6 -13 10 -30 10 -16 0 -30 5 -30 10 0 6 -7 10 -16 10 -9 0 -30 13 -46 30 -15 16 -35 30 -42 30 -8 0 -16 5 -18 11 -3 9 -10 9 -26 0 -15 -8 -28 -9 -41 -2 -21 12 -48 -10 -37 -28 11 -17 66 -23 95 -11 26 10 33 8 82 -29 30 -23 80 -51 112 -64 56 -21 57 -23 50 -52 -5 -16 -8 -80 -8 -142 0 -97 3 -115 21 -140 28 -38 95 -73 168 -89 113 -24 344 -15 501 21 65 15 213 68 259 93 70 38 142 110 154 154 13 48 -6 131 -53 226 -35 69 -36 74 -21 97 20 31 20 32 -6 38 -13 4 -26 0 -33 -9 -9 -14 -20 -8 -73 37 -34 29 -62 53 -62 54 0 2 21 42 47 90 88 167 99 347 25 427 -63 69 -230 99 -447 81z m170 -262 c0 -34 -30 -51 -51 -29 -25 24 -10 60 24 56 21 -2 27 -8 27 -27z m-400 -56 c0 -25 -4 -30 -25 -30 -16 0 -26 6 -28 18 -6 30 6 49 30 45 18 -2 23 -9 23 -33z m405 -582 c0 -26 -8 -43 -33 -68 -60 -60 -137 -59 -195 2 -39 42 -38 67 2 71 21 3 36 -3 53 -22 37 -40 81 -29 102 27 9 23 43 39 64 29 4 -2 7 -19 7 -39z" transform="translate(332.0,148.0) scale(-0.1,-0.1)" stroke="none" fill="#81786C"/>

<path d="M905 1403 c-253 -21 -517 -128 -586 -239 -53 -87 12 -266 147 -401 l77 -76 -17 -26 c-9 -14 -29 -47 -43 -72 -24 -41 -31 -46 -65 -47 -21 -1 -38 3 -38 8 0 6 -13 10 -30 10 -16 0 -30 5 -30 10 0 6 -7 10 -16 10 -9 0 -30 13 -46 30 -15 16 -35 30 -42 30 -8 0 -16 5 -18 11 -3 9 -10 9 -26 0 -15 -8 -28 -9 -41 -2 -21 12 -48 -10 -37 -28 11 -17 66 -23 95 -11 26 10 33 8 82 -29 30 -23 80 -51 112 -64 56 -21 57 -23 50 -52 -5 -16 -8 -80 -8 -142 0 -97 3 -115 21 -140 28 -38 95 -73 168 -89 113 -24 344 -15 501 21 65 15 213 68 259 93 70 38 142 110 154 154 13 48 -6 131 -53 226 -35 69 -36 74 -21 97 20 31 20 32 -6 38 -13 4 -26 0 -33 -9 -9 -14 -20 -8 -73 37 -34 29 -62 53 -62 54 0 2 21 42 47 90 88 167 99 347 25 427 -63 69 -230 99 -447 81z m170 -262 c0 -34 -30 -51 -51 -29 -25 24 -10 60 24 56 21 -2 27 -8 27 -27z m-400 -56 c0 -25 -4 -30 -25 -30 -16 0 -26 6 -28 18 -6 30 6 49 30 45 18 -2 23 -9 23 -33z m405 -582 c0 -26 -8 -43 -33 -68 -60 -60 -137 -59 -195 2 -39 42 -38 67 2 71 21 3 36 -3 53 -22 37 -40 81 -29 102 27 9 23 43 39 64 29 4 -2 7 -19 7 -39z" transform="translate(0,148.0) scale(0.1,0.1)" stroke="none" fill="#81786C"/>

<path d="M905 1403 c-253 -21 -517 -128 -586 -239 -53 -87 12 -266 147 -401 l77 -76 -17 -26 c-9 -14 -29 -47 -43 -72 -24 -41 -31 -46 -65 -47 -21 -1 -38 3 -38 8 0 6 -13 10 -30 10 -16 0 -30 5 -30 10 0 6 -7 10 -16 10 -9 0 -30 13 -46 30 -15 16 -35 30 -42 30 -8 0 -16 5 -18 11 -3 9 -10 9 -26 0 -15 -8 -28 -9 -41 -2 -21 12 -48 -10 -37 -28 11 -17 66 -23 95 -11 26 10 33 8 82 -29 30 -23 80 -51 112 -64 56 -21 57 -23 50 -52 -5 -16 -8 -80 -8 -142 0 -97 3 -115 21 -140 28 -38 95 -73 168 -89 113 -24 344 -15 501 21 65 15 213 68 259 93 70 38 142 110 154 154 13 48 -6 131 -53 226 -35 69 -36 74 -21 97 20 31 20 32 -6 38 -13 4 -26 0 -33 -9 -9 -14 -20 -8 -73 37 -34 29 -62 53 -62 54 0 2 21 42 47 90 88 167 99 347 25 427 -63 69 -230 99 -447 81z m170 -262 c0 -34 -30 -51 -51 -29 -25 24 -10 60 24 56 21 -2 27 -8 27 -27z m-400 -56 c0 -25 -4 -30 -25 -30 -16 0 -26 6 -28 18 -6 30 6 49 30 45 18 -2 23 -9 23 -33z m405 -582 c0 -26 -8 -43 -33 -68 -60 -60 -137 -59 -195 2 -39 42 -38 67 2 71 21 3 36 -3 53 -22 37 -40 81 -29 102 27 9 23 43 39 64 29 4 -2 7 -19 7 -39z" transform="translate(332.0,148.0) scale(-0.1,0.1)" stroke="none" fill="#81786C"/>

</g>

</g>

<g id="2" transform="translate(332.0,0)scale(1,1)">

<g transform="matrix(0.5,0,0,0.5,0,0)">

<path d="M905 1403 c-253 -21 -517 -128 -586 -239 -53 -87 12 -266 147 -401 l77 -76 -17 -26 c-9 -14 -29 -47 -43 -72 -24 -41 -31 -46 -65 -47 -21 -1 -38 3 -38 8 0 6 -13 10 -30 10 -16 0 -30 5 -30 10 0 6 -7 10 -16 10 -9 0 -30 13 -46 30 -15 16 -35 30 -42 30 -8 0 -16 5 -18 11 -3 9 -10 9 -26 0 -15 -8 -28 -9 -41 -2 -21 12 -48 -10 -37 -28 11 -17 66 -23 95 -11 26 10 33 8 82 -29 30 -23 80 -51 112 -64 56 -21 57 -23 50 -52 -5 -16 -8 -80 -8 -142 0 -97 3 -115 21 -140 28 -38 95 -73 168 -89 113 -24 344 -15 501 21 65 15 213 68 259 93 70 38 142 110 154 154 13 48 -6 131 -53 226 -35 69 -36 74 -21 97 20 31 20 32 -6 38 -13 4 -26 0 -33 -9 -9 -14 -20 -8 -73 37 -34 29 -62 53 -62 54 0 2 21 42 47 90 88 167 99 347 25 427 -63 69 -230 99 -447 81z m170 -262 c0 -34 -30 -51 -51 -29 -25 24 -10 60 24 56 21 -2 27 -8 27 -27z m-400 -56 c0 -25 -4 -30 -25 -30 -16 0 -26 6 -28 18 -6 30 6 49 30 45 18 -2 23 -9 23 -33z m405 -582 c0 -26 -8 -43 -33 -68 -60 -60 -137 -59 -195 2 -39 42 -38 67 2 71 21 3 36 -3 53 -22 37 -40 81 -29 102 27 9 23 43 39 64 29 4 -2 7 -19 7 -39z" transform="translate(0,148.0) scale(0.1,-0.1)" stroke="none" fill="#81786C"/>

<path d="M905 1403 c-253 -21 -517 -128 -586 -239 -53 -87 12 -266 147 -401 l77 -76 -17 -26 c-9 -14 -29 -47 -43 -72 -24 -41 -31 -46 -65 -47 -21 -1 -38 3 -38 8 0 6 -13 10 -30 10 -16 0 -30 5 -30 10 0 6 -7 10 -16 10 -9 0 -30 13 -46 30 -15 16 -35 30 -42 30 -8 0 -16 5 -18 11 -3 9 -10 9 -26 0 -15 -8 -28 -9 -41 -2 -21 12 -48 -10 -37 -28 11 -17 66 -23 95 -11 26 10 33 8 82 -29 30 -23 80 -51 112 -64 56 -21 57 -23 50 -52 -5 -16 -8 -80 -8 -142 0 -97 3 -115 21 -140 28 -38 95 -73 168 -89 113 -24 344 -15 501 21 65 15 213 68 259 93 70 38 142 110 154 154 13 48 -6 131 -53 226 -35 69 -36 74 -21 97 20 31 20 32 -6 38 -13 4 -26 0 -33 -9 -9 -14 -20 -8 -73 37 -34 29 -62 53 -62 54 0 2 21 42 47 90 88 167 99 347 25 427 -63 69 -230 99 -447 81z m170 -262 c0 -34 -30 -51 -51 -29 -25 24 -10 60 24 56 21 -2 27 -8 27 -27z m-400 -56 c0 -25 -4 -30 -25 -30 -16 0 -26 6 -28 18 -6 30 6 49 30 45 18 -2 23 -9 23 -33z m405 -582 c0 -26 -8 -43 -33 -68 -60 -60 -137 -59 -195 2 -39 42 -38 67 2 71 21 3 36 -3 53 -22 37 -40 81 -29 102 27 9 23 43 39 64 29 4 -2 7 -19 7 -39z" transform="translate(332.0,148.0) scale(-0.1,-0.1)" stroke="none" fill="#81786C"/>

<path d="M905 1403 c-253 -21 -517 -128 -586 -239 -53 -87 12 -266 147 -401 l77 -76 -17 -26 c-9 -14 -29 -47 -43 -72 -24 -41 -31 -46 -65 -47 -21 -1 -38 3 -38 8 0 6 -13 10 -30 10 -16 0 -30 5 -30 10 0 6 -7 10 -16 10 -9 0 -30 13 -46 30 -15 16 -35 30 -42 30 -8 0 -16 5 -18 11 -3 9 -10 9 -26 0 -15 -8 -28 -9 -41 -2 -21 12 -48 -10 -37 -28 11 -17 66 -23 95 -11 26 10 33 8 82 -29 30 -23 80 -51 112 -64 56 -21 57 -23 50 -52 -5 -16 -8 -80 -8 -142 0 -97 3 -115 21 -140 28 -38 95 -73 168 -89 113 -24 344 -15 501 21 65 15 213 68 259 93 70 38 142 110 154 154 13 48 -6 131 -53 226 -35 69 -36 74 -21 97 20 31 20 32 -6 38 -13 4 -26 0 -33 -9 -9 -14 -20 -8 -73 37 -34 29 -62 53 -62 54 0 2 21 42 47 90 88 167 99 347 25 427 -63 69 -230 99 -447 81z m170 -262 c0 -34 -30 -51 -51 -29 -25 24 -10 60 24 56 21 -2 27 -8 27 -27z m-400 -56 c0 -25 -4 -30 -25 -30 -16 0 -26 6 -28 18 -6 30 6 49 30 45 18 -2 23 -9 23 -33z m405 -582 c0 -26 -8 -43 -33 -68 -60 -60 -137 -59 -195 2 -39 42 -38 67 2 71 21 3 36 -3 53 -22 37 -40 81 -29 102 27 9 23 43 39 64 29 4 -2 7 -19 7 -39z" transform="translate(0,148.0) scale(0.1,0.1)" stroke="none" fill="#81786C"/>

<path d="M905 1403 c-253 -21 -517 -128 -586 -239 -53 -87 12 -266 147 -401 l77 -76 -17 -26 c-9 -14 -29 -47 -43 -72 -24 -41 -31 -46 -65 -47 -21 -1 -38 3 -38 8 0 6 -13 10 -30 10 -16 0 -30 5 -30 10 0 6 -7 10 -16 10 -9 0 -30 13 -46 30 -15 16 -35 30 -42 30 -8 0 -16 5 -18 11 -3 9 -10 9 -26 0 -15 -8 -28 -9 -41 -2 -21 12 -48 -10 -37 -28 11 -17 66 -23 95 -11 26 10 33 8 82 -29 30 -23 80 -51 112 -64 56 -21 57 -23 50 -52 -5 -16 -8 -80 -8 -142 0 -97 3 -115 21 -140 28 -38 95 -73 168 -89 113 -24 344 -15 501 21 65 15 213 68 259 93 70 38 142 110 154 154 13 48 -6 131 -53 226 -35 69 -36 74 -21 97 20 31 20 32 -6 38 -13 4 -26 0 -33 -9 -9 -14 -20 -8 -73 37 -34 29 -62 53 -62 54 0 2 21 42 47 90 88 167 99 347 25 427 -63 69 -230 99 -447 81z m170 -262 c0 -34 -30 -51 -51 -29 -25 24 -10 60 24 56 21 -2 27 -8 27 -27z m-400 -56 c0 -25 -4 -30 -25 -30 -16 0 -26 6 -28 18 -6 30 6 49 30 45 18 -2 23 -9 23 -33z m405 -582 c0 -26 -8 -43 -33 -68 -60 -60 -137 -59 -195 2 -39 42 -38 67 2 71 21 3 36 -3 53 -22 37 -40 81 -29 102 27 9 23 43 39 64 29 4 -2 7 -19 7 -39z" transform="translate(332.0,148.0) scale(-0.1,0.1)" stroke="none" fill="#81786C"/>

</g>

</g>

<g id="3" transform="translate(498.0,0)scale(1,1)">

<g transform="matrix(0.5,0,0,0.5,0,0)">

<path d="M905 1403 c-253 -21 -517 -128 -586 -239 -53 -87 12 -266 147 -401 l77 -76 -17 -26 c-9 -14 -29 -47 -43 -72 -24 -41 -31 -46 -65 -47 -21 -1 -38 3 -38 8 0 6 -13 10 -30 10 -16 0 -30 5 -30 10 0 6 -7 10 -16 10 -9 0 -30 13 -46 30 -15 16 -35 30 -42 30 -8 0 -16 5 -18 11 -3 9 -10 9 -26 0 -15 -8 -28 -9 -41 -2 -21 12 -48 -10 -37 -28 11 -17 66 -23 95 -11 26 10 33 8 82 -29 30 -23 80 -51 112 -64 56 -21 57 -23 50 -52 -5 -16 -8 -80 -8 -142 0 -97 3 -115 21 -140 28 -38 95 -73 168 -89 113 -24 344 -15 501 21 65 15 213 68 259 93 70 38 142 110 154 154 13 48 -6 131 -53 226 -35 69 -36 74 -21 97 20 31 20 32 -6 38 -13 4 -26 0 -33 -9 -9 -14 -20 -8 -73 37 -34 29 -62 53 -62 54 0 2 21 42 47 90 88 167 99 347 25 427 -63 69 -230 99 -447 81z m170 -262 c0 -34 -30 -51 -51 -29 -25 24 -10 60 24 56 21 -2 27 -8 27 -27z m-400 -56 c0 -25 -4 -30 -25 -30 -16 0 -26 6 -28 18 -6 30 6 49 30 45 18 -2 23 -9 23 -33z m405 -582 c0 -26 -8 -43 -33 -68 -60 -60 -137 -59 -195 2 -39 42 -38 67 2 71 21 3 36 -3 53 -22 37 -40 81 -29 102 27 9 23 43 39 64 29 4 -2 7 -19 7 -39z" transform="translate(0,148.0) scale(0.1,-0.1)" stroke="none" fill="#81786C"/>

<path d="M905 1403 c-253 -21 -517 -128 -586 -239 -53 -87 12 -266 147 -401 l77 -76 -17 -26 c-9 -14 -29 -47 -43 -72 -24 -41 -31 -46 -65 -47 -21 -1 -38 3 -38 8 0 6 -13 10 -30 10 -16 0 -30 5 -30 10 0 6 -7 10 -16 10 -9 0 -30 13 -46 30 -15 16 -35 30 -42 30 -8 0 -16 5 -18 11 -3 9 -10 9 -26 0 -15 -8 -28 -9 -41 -2 -21 12 -48 -10 -37 -28 11 -17 66 -23 95 -11 26 10 33 8 82 -29 30 -23 80 -51 112 -64 56 -21 57 -23 50 -52 -5 -16 -8 -80 -8 -142 0 -97 3 -115 21 -140 28 -38 95 -73 168 -89 113 -24 344 -15 501 21 65 15 213 68 259 93 70 38 142 110 154 154 13 48 -6 131 -53 226 -35 69 -36 74 -21 97 20 31 20 32 -6 38 -13 4 -26 0 -33 -9 -9 -14 -20 -8 -73 37 -34 29 -62 53 -62 54 0 2 21 42 47 90 88 167 99 347 25 427 -63 69 -230 99 -447 81z m170 -262 c0 -34 -30 -51 -51 -29 -25 24 -10 60 24 56 21 -2 27 -8 27 -27z m-400 -56 c0 -25 -4 -30 -25 -30 -16 0 -26 6 -28 18 -6 30 6 49 30 45 18 -2 23 -9 23 -33z m405 -582 c0 -26 -8 -43 -33 -68 -60 -60 -137 -59 -195 2 -39 42 -38 67 2 71 21 3 36 -3 53 -22 37 -40 81 -29 102 27 9 23 43 39 64 29 4 -2 7 -19 7 -39z" transform="translate(332.0,148.0) scale(-0.1,-0.1)" stroke="none" fill="#81786C"/>

<path d="M905 1403 c-253 -21 -517 -128 -586 -239 -53 -87 12 -266 147 -401 l77 -76 -17 -26 c-9 -14 -29 -47 -43 -72 -24 -41 -31 -46 -65 -47 -21 -1 -38 3 -38 8 0 6 -13 10 -30 10 -16 0 -30 5 -30 10 0 6 -7 10 -16 10 -9 0 -30 13 -46 30 -15 16 -35 30 -42 30 -8 0 -16 5 -18 11 -3 9 -10 9 -26 0 -15 -8 -28 -9 -41 -2 -21 12 -48 -10 -37 -28 11 -17 66 -23 95 -11 26 10 33 8 82 -29 30 -23 80 -51 112 -64 56 -21 57 -23 50 -52 -5 -16 -8 -80 -8 -142 0 -97 3 -115 21 -140 28 -38 95 -73 168 -89 113 -24 344 -15 501 21 65 15 213 68 259 93 70 38 142 110 154 154 13 48 -6 131 -53 226 -35 69 -36 74 -21 97 20 31 20 32 -6 38 -13 4 -26 0 -33 -9 -9 -14 -20 -8 -73 37 -34 29 -62 53 -62 54 0 2 21 42 47 90 88 167 99 347 25 427 -63 69 -230 99 -447 81z m170 -262 c0 -34 -30 -51 -51 -29 -25 24 -10 60 24 56 21 -2 27 -8 27 -27z m-400 -56 c0 -25 -4 -30 -25 -30 -16 0 -26 6 -28 18 -6 30 6 49 30 45 18 -2 23 -9 23 -33z m405 -582 c0 -26 -8 -43 -33 -68 -60 -60 -137 -59 -195 2 -39 42 -38 67 2 71 21 3 36 -3 53 -22 37 -40 81 -29 102 27 9 23 43 39 64 29 4 -2 7 -19 7 -39z" transform="translate(0,148.0) scale(0.1,0.1)" stroke="none" fill="#81786C"/>

<path d="M905 1403 c-253 -21 -517 -128 -586 -239 -53 -87 12 -266 147 -401 l77 -76 -17 -26 c-9 -14 -29 -47 -43 -72 -24 -41 -31 -46 -65 -47 -21 -1 -38 3 -38 8 0 6 -13 10 -30 10 -16 0 -30 5 -30 10 0 6 -7 10 -16 10 -9 0 -30 13 -46 30 -15 16 -35 30 -42 30 -8 0 -16 5 -18 11 -3 9 -10 9 -26 0 -15 -8 -28 -9 -41 -2 -21 12 -48 -10 -37 -28 11 -17 66 -23 95 -11 26 10 33 8 82 -29 30 -23 80 -51 112 -64 56 -21 57 -23 50 -52 -5 -16 -8 -80 -8 -142 0 -97 3 -115 21 -140 28 -38 95 -73 168 -89 113 -24 344 -15 501 21 65 15 213 68 259 93 70 38 142 110 154 154 13 48 -6 131 -53 226 -35 69 -36 74 -21 97 20 31 20 32 -6 38 -13 4 -26 0 -33 -9 -9 -14 -20 -8 -73 37 -34 29 -62 53 -62 54 0 2 21 42 47 90 88 167 99 347 25 427 -63 69 -230 99 -447 81z m170 -262 c0 -34 -30 -51 -51 -29 -25 24 -10 60 24 56 21 -2 27 -8 27 -27z m-400 -56 c0 -25 -4 -30 -25 -30 -16 0 -26 6 -28 18 -6 30 6 49 30 45 18 -2 23 -9 23 -33z m405 -582 c0 -26 -8 -43 -33 -68 -60 -60 -137 -59 -195 2 -39 42 -38 67 2 71 21 3 36 -3 53 -22 37 -40 81 -29 102 27 9 23 43 39 64 29 4 -2 7 -19 7 -39z" transform="translate(332.0,148.0) scale(-0.1,0.1)" stroke="none" fill="#81786C"/>

</g>

</g>

<g id="4" transform="translate(664.0,0)scale(1,1)">

<g transform="matrix(0.5,0,0,0.5,0,0)">

<path d="M905 1403 c-253 -21 -517 -128 -586 -239 -53 -87 12 -266 147 -401 l77 -76 -17 -26 c-9 -14 -29 -47 -43 -72 -24 -41 -31 -46 -65 -47 -21 -1 -38 3 -38 8 0 6 -13 10 -30 10 -16 0 -30 5 -30 10 0 6 -7 10 -16 10 -9 0 -30 13 -46 30 -15 16 -35 30 -42 30 -8 0 -16 5 -18 11 -3 9 -10 9 -26 0 -15 -8 -28 -9 -41 -2 -21 12 -48 -10 -37 -28 11 -17 66 -23 95 -11 26 10 33 8 82 -29 30 -23 80 -51 112 -64 56 -21 57 -23 50 -52 -5 -16 -8 -80 -8 -142 0 -97 3 -115 21 -140 28 -38 95 -73 168 -89 113 -24 344 -15 501 21 65 15 213 68 259 93 70 38 142 110 154 154 13 48 -6 131 -53 226 -35 69 -36 74 -21 97 20 31 20 32 -6 38 -13 4 -26 0 -33 -9 -9 -14 -20 -8 -73 37 -34 29 -62 53 -62 54 0 2 21 42 47 90 88 167 99 347 25 427 -63 69 -230 99 -447 81z m170 -262 c0 -34 -30 -51 -51 -29 -25 24 -10 60 24 56 21 -2 27 -8 27 -27z m-400 -56 c0 -25 -4 -30 -25 -30 -16 0 -26 6 -28 18 -6 30 6 49 30 45 18 -2 23 -9 23 -33z m405 -582 c0 -26 -8 -43 -33 -68 -60 -60 -137 -59 -195 2 -39 42 -38 67 2 71 21 3 36 -3 53 -22 37 -40 81 -29 102 27 9 23 43 39 64 29 4 -2 7 -19 7 -39z" transform="translate(0,148.0) scale(0.1,-0.1)" stroke="none" fill="#81786C"/>

<path d="M905 1403 c-253 -21 -517 -128 -586 -239 -53 -87 12 -266 147 -401 l77 -76 -17 -26 c-9 -14 -29 -47 -43 -72 -24 -41 -31 -46 -65 -47 -21 -1 -38 3 -38 8 0 6 -13 10 -30 10 -16 0 -30 5 -30 10 0 6 -7 10 -16 10 -9 0 -30 13 -46 30 -15 16 -35 30 -42 30 -8 0 -16 5 -18 11 -3 9 -10 9 -26 0 -15 -8 -28 -9 -41 -2 -21 12 -48 -10 -37 -28 11 -17 66 -23 95 -11 26 10 33 8 82 -29 30 -23 80 -51 112 -64 56 -21 57 -23 50 -52 -5 -16 -8 -80 -8 -142 0 -97 3 -115 21 -140 28 -38 95 -73 168 -89 113 -24 344 -15 501 21 65 15 213 68 259 93 70 38 142 110 154 154 13 48 -6 131 -53 226 -35 69 -36 74 -21 97 20 31 20 32 -6 38 -13 4 -26 0 -33 -9 -9 -14 -20 -8 -73 37 -34 29 -62 53 -62 54 0 2 21 42 47 90 88 167 99 347 25 427 -63 69 -230 99 -447 81z m170 -262 c0 -34 -30 -51 -51 -29 -25 24 -10 60 24 56 21 -2 27 -8 27 -27z m-400 -56 c0 -25 -4 -30 -25 -30 -16 0 -26 6 -28 18 -6 30 6 49 30 45 18 -2 23 -9 23 -33z m405 -582 c0 -26 -8 -43 -33 -68 -60 -60 -137 -59 -195 2 -39 42 -38 67 2 71 21 3 36 -3 53 -22 37 -40 81 -29 102 27 9 23 43 39 64 29 4 -2 7 -19 7 -39z" transform="translate(332.0,148.0) scale(-0.1,-0.1)" stroke="none" fill="#81786C"/>

<path d="M905 1403 c-253 -21 -517 -128 -586 -239 -53 -87 12 -266 147 -401 l77 -76 -17 -26 c-9 -14 -29 -47 -43 -72 -24 -41 -31 -46 -65 -47 -21 -1 -38 3 -38 8 0 6 -13 10 -30 10 -16 0 -30 5 -30 10 0 6 -7 10 -16 10 -9 0 -30 13 -46 30 -15 16 -35 30 -42 30 -8 0 -16 5 -18 11 -3 9 -10 9 -26 0 -15 -8 -28 -9 -41 -2 -21 12 -48 -10 -37 -28 11 -17 66 -23 95 -11 26 10 33 8 82 -29 30 -23 80 -51 112 -64 56 -21 57 -23 50 -52 -5 -16 -8 -80 -8 -142 0 -97 3 -115 21 -140 28 -38 95 -73 168 -89 113 -24 344 -15 501 21 65 15 213 68 259 93 70 38 142 110 154 154 13 48 -6 131 -53 226 -35 69 -36 74 -21 97 20 31 20 32 -6 38 -13 4 -26 0 -33 -9 -9 -14 -20 -8 -73 37 -34 29 -62 53 -62 54 0 2 21 42 47 90 88 167 99 347 25 427 -63 69 -230 99 -447 81z m170 -262 c0 -34 -30 -51 -51 -29 -25 24 -10 60 24 56 21 -2 27 -8 27 -27z m-400 -56 c0 -25 -4 -30 -25 -30 -16 0 -26 6 -28 18 -6 30 6 49 30 45 18 -2 23 -9 23 -33z m405 -582 c0 -26 -8 -43 -33 -68 -60 -60 -137 -59 -195 2 -39 42 -38 67 2 71 21 3 36 -3 53 -22 37 -40 81 -29 102 27 9 23 43 39 64 29 4 -2 7 -19 7 -39z" transform="translate(0,148.0) scale(0.1,0.1)" stroke="none" fill="#81786C"/>

<path d="M905 1403 c-253 -21 -517 -128 -586 -239 -53 -87 12 -266 147 -401 l77 -76 -17 -26 c-9 -14 -29 -47 -43 -72 -24 -41 -31 -46 -65 -47 -21 -1 -38 3 -38 8 0 6 -13 10 -30 10 -16 0 -30 5 -30 10 0 6 -7 10 -16 10 -9 0 -30 13 -46 30 -15 16 -35 30 -42 30 -8 0 -16 5 -18 11 -3 9 -10 9 -26 0 -15 -8 -28 -9 -41 -2 -21 12 -48 -10 -37 -28 11 -17 66 -23 95 -11 26 10 33 8 82 -29 30 -23 80 -51 112 -64 56 -21 57 -23 50 -52 -5 -16 -8 -80 -8 -142 0 -97 3 -115 21 -140 28 -38 95 -73 168 -89 113 -24 344 -15 501 21 65 15 213 68 259 93 70 38 142 110 154 154 13 48 -6 131 -53 226 -35 69 -36 74 -21 97 20 31 20 32 -6 38 -13 4 -26 0 -33 -9 -9 -14 -20 -8 -73 37 -34 29 -62 53 -62 54 0 2 21 42 47 90 88 167 99 347 25 427 -63 69 -230 99 -447 81z m170 -262 c0 -34 -30 -51 -51 -29 -25 24 -10 60 24 56 21 -2 27 -8 27 -27z m-400 -56 c0 -25 -4 -30 -25 -30 -16 0 -26 6 -28 18 -6 30 6 49 30 45 18 -2 23 -9 23 -33z m405 -582 c0 -26 -8 -43 -33 -68 -60 -60 -137 -59 -195 2 -39 42 -38 67 2 71 21 3 36 -3 53 -22 37 -40 81 -29 102 27 9 23 43 39 64 29 4 -2 7 -19 7 -39z" transform="translate(332.0,148.0) scale(-0.1,0.1)" stroke="none" fill="#81786C"/>

</g>

</g>

</g>
<g id="row3" transform="translate(22,444.0)">
<g id="0" transform="translate(0.0,0)scale(1,1)">

<g transform="matrix(0.5,0,0,0.5,0,0)">

<path d="M905 1403 c-253 -21 -517 -128 -586 -239 -53 -87 12 -266 147 -401 l77 -76 -17 -26 c-9 -14 -29 -47 -43 -72 -24 -41 -31 -46 -65 -47 -21 -1 -38 3 -38 8 0 6 -13 10 -30 10 -16 0 -30 5 -30 10 0 6 -7 10 -16 10 -9 0 -30 13 -46 30 -15 16 -35 30 -42 30 -8 0 -16 5 -18 11 -3 9 -10 9 -26 0 -15 -8 -28 -9 -41 -2 -21 12 -48 -10 -37 -28 11 -17 66 -23 95 -11 26 10 33 8 82 -29 30 -23 80 -51 112 -64 56 -21 57 -23 50 -52 -5 -16 -8 -80 -8 -142 0 -97 3 -115 21 -140 28 -38 95 -73 168 -89 113 -24 344 -15 501 21 65 15 213 68 259 93 70 38 142 110 154 154 13 48 -6 131 -53 226 -35 69 -36 74 -21 97 20 31 20 32 -6 38 -13 4 -26 0 -33 -9 -9 -14 -20 -8 -73 37 -34 29 -62 53 -62 54 0 2 21 42 47 90 88 167 99 347 25 427 -63 69 -230 99 -447 81z m170 -262 c0 -34 -30 -51 -51 -29 -25 24 -10 60 24 56 21 -2 27 -8 27 -27z m-400 -56 c0 -25 -4 -30 -25 -30 -16 0 -26 6 -28 18 -6 30 6 49 30 45 18 -2 23 -9 23 -33z m405 -582 c0 -26 -8 -43 -33 -68 -60 -60 -137 -59 -195 2 -39 42 -38 67 2 71 21 3 36 -3 53 -22 37 -40 81 -29 102 27 9 23 43 39 64 29 4 -2 7 -19 7 -39z" transform="translate(0,148.0) scale(0.1,-0.1)" stroke="none" fill="#81786C"/>

<path d="M905 1403 c-253 -21 -517 -128 -586 -239 -53 -87 12 -266 147 -401 l77 -76 -17 -26 c-9 -14 -29 -47 -43 -72 -24 -41 -31 -46 -65 -47 -21 -1 -38 3 -38 8 0 6 -13 10 -30 10 -16 0 -30 5 -30 10 0 6 -7 10 -16 10 -9 0 -30 13 -46 30 -15 16 -35 30 -42 30 -8 0 -16 5 -18 11 -3 9 -10 9 -26 0 -15 -8 -28 -9 -41 -2 -21 12 -48 -10 -37 -28 11 -17 66 -23 95 -11 26 10 33 8 82 -29 30 -23 80 -51 112 -64 56 -21 57 -23 50 -52 -5 -16 -8 -80 -8 -142 0 -97 3 -115 21 -140 28 -38 95 -73 168 -89 113 -24 344 -15 501 21 65 15 213 68 259 93 70 38 142 110 154 154 13 48 -6 131 -53 226 -35 69 -36 74 -21 97 20 31 20 32 -6 38 -13 4 -26 0 -33 -9 -9 -14 -20 -8 -73 37 -34 29 -62 53 -62 54 0 2 21 42 47 90 88 167 99 347 25 427 -63 69 -230 99 -447 81z m170 -262 c0 -34 -30 -51 -51 -29 -25 24 -10 60 24 56 21 -2 27 -8 27 -27z m-400 -56 c0 -25 -4 -30 -25 -30 -16 0 -26 6 -28 18 -6 30 6 49 30 45 18 -2 23 -9 23 -33z m405 -582 c0 -26 -8 -43 -33 -68 -60 -60 -137 -59 -195 2 -39 42 -38 67 2 71 21 3 36 -3 53 -22 37 -40 81 -29 102 27 9 23 43 39 64 29 4 -2 7 -19 7 -39z" transform="translate(332.0,148.0) scale(-0.1,-0.1)" stroke="none" fill="#81786C"/>

<path d="M905 1403 c-253 -21 -517 -128 -586 -239 -53 -87 12 -266 147 -401 l77 -76 -17 -26 c-9 -14 -29 -47 -43 -72 -24 -41 -31 -46 -65 -47 -21 -1 -38 3 -38 8 0 6 -13 10 -30 10 -16 0 -30 5 -30 10 0 6 -7 10 -16 10 -9 0 -30 13 -46 30 -15 16 -35 30 -42 30 -8 0 -16 5 -18 11 -3 9 -10 9 -26 0 -15 -8 -28 -9 -41 -2 -21 12 -48 -10 -37 -28 11 -17 66 -23 95 -11 26 10 33 8 82 -29 30 -23 80 -51 112 -64 56 -21 57 -23 50 -52 -5 -16 -8 -80 -8 -142 0 -97 3 -115 21 -140 28 -38 95 -73 168 -89 113 -24 344 -15 501 21 65 15 213 68 259 93 70 38 142 110 154 154 13 48 -6 131 -53 226 -35 69 -36 74 -21 97 20 31 20 32 -6 38 -13 4 -26 0 -33 -9 -9 -14 -20 -8 -73 37 -34 29 -62 53 -62 54 0 2 21 42 47 90 88 167 99 347 25 427 -63 69 -230 99 -447 81z m170 -262 c0 -34 -30 -51 -51 -29 -25 24 -10 60 24 56 21 -2 27 -8 27 -27z m-400 -56 c0 -25 -4 -30 -25 -30 -16 0 -26 6 -28 18 -6 30 6 49 30 45 18 -2 23 -9 23 -33z m405 -582 c0 -26 -8 -43 -33 -68 -60 -60 -137 -59 -195 2 -39 42 -38 67 2 71 21 3 36 -3 53 -22 37 -40 81 -29 102 27 9 23 43 39 64 29 4 -2 7 -19 7 -39z" transform="translate(0,148.0) scale(0.1,0.1)" stroke="none" fill="#81786C"/>

<path d="M905 1403 c-253 -21 -517 -128 -586 -239 -53 -87 12 -266 147 -401 l77 -76 -17 -26 c-9 -14 -29 -47 -43 -72 -24 -41 -31 -46 -65 -47 -21 -1 -38 3 -38 8 0 6 -13 10 -30 10 -16 0 -30 5 -30 10 0 6 -7 10 -16 10 -9 0 -30 13 -46 30 -15 16 -35 30 -42 30 -8 0 -16 5 -18 11 -3 9 -10 9 -26 0 -15 -8 -28 -9 -41 -2 -21 12 -48 -10 -37 -28 11 -17 66 -23 95 -11 26 10 33 8 82 -29 30 -23 80 -51 112 -64 56 -21 57 -23 50 -52 -5 -16 -8 -80 -8 -142 0 -97 3 -115 21 -140 28 -38 95 -73 168 -89 113 -24 344 -15 501 21 65 15 213 68 259 93 70 38 142 110 154 154 13 48 -6 131 -53 226 -35 69 -36 74 -21 97 20 31 20 32 -6 38 -13 4 -26 0 -33 -9 -9 -14 -20 -8 -73 37 -34 29 -62 53 -62 54 0 2 21 42 47 90 88 167 99 347 25 427 -63 69 -230 99 -447 81z m170 -262 c0 -34 -30 -51 -51 -29 -25 24 -10 60 24 56 21 -2 27 -8 27 -27z m-400 -56 c0 -25 -4 -30 -25 -30 -16 0 -26 6 -28 18 -6 30 6 49 30 45 18 -2 23 -9 23 -33z m405 -582 c0 -26 -8 -43 -33 -68 -60 -60 -137 -59 -195 2 -39 42 -38 67 2 71 21 3 36 -3 53 -22 37 -40 81 -29 102 27 9 23 43 39 64 29 4 -2 7 -19 7 -39z" transform="translate(332.0,148.0) scale(-0.1,0.1)" stroke="none" fill="#81786C"/>

</g>

</g>

<g id="1" transform="translate(166.0,0)scale(1,1)">

<g transform="matrix(0.5,0,0,0.5,0,0)">

<path d="M905 1403 c-253 -21 -517 -128 -586 -239 -53 -87 12 -266 147 -401 l77 -76 -17 -26 c-9 -14 -29 -47 -43 -72 -24 -41 -31 -46 -65 -47 -21 -1 -38 3 -38 8 0 6 -13 10 -30 10 -16 0 -30 5 -30 10 0 6 -7 10 -16 10 -9 0 -30 13 -46 30 -15 16 -35 30 -42 30 -8 0 -16 5 -18 11 -3 9 -10 9 -26 0 -15 -8 -28 -9 -41 -2 -21 12 -48 -10 -37 -28 11 -17 66 -23 95 -11 26 10 33 8 82 -29 30 -23 80 -51 112 -64 56 -21 57 -23 50 -52 -5 -16 -8 -80 -8 -142 0 -97 3 -115 21 -140 28 -38 95 -73 168 -89 113 -24 344 -15 501 21 65 15 213 68 259 93 70 38 142 110 154 154 13 48 -6 131 -53 226 -35 69 -36 74 -21 97 20 31 20 32 -6 38 -13 4 -26 0 -33 -9 -9 -14 -20 -8 -73 37 -34 29 -62 53 -62 54 0 2 21 42 47 90 88 167 99 347 25 427 -63 69 -230 99 -447 81z m170 -262 c0 -34 -30 -51 -51 -29 -25 24 -10 60 24 56 21 -2 27 -8 27 -27z m-400 -56 c0 -25 -4 -30 -25 -30 -16 0 -26 6 -28 18 -6 30 6 49 30 45 18 -2 23 -9 23 -33z m405 -582 c0 -26 -8 -43 -33 -68 -60 -60 -137 -59 -195 2 -39 42 -38 67 2 71 21 3 36 -3 53 -22 37 -40 81 -29 102 27 9 23 43 39 64 29 4 -2 7 -19 7 -39z" transform="translate(0,148.0) scale(0.1,-0.1)" stroke="none" fill="#81786C"/>

<path d="M905 1403 c-253 -21 -517 -128 -586 -239 -53 -87 12 -266 147 -401 l77 -76 -17 -26 c-9 -14 -29 -47 -43 -72 -24 -41 -31 -46 -65 -47 -21 -1 -38 3 -38 8 0 6 -13 10 -30 10 -16 0 -30 5 -30 10 0 6 -7 10 -16 10 -9 0 -30 13 -46 30 -15 16 -35 30 -42 30 -8 0 -16 5 -18 11 -3 9 -10 9 -26 0 -15 -8 -28 -9 -41 -2 -21 12 -48 -10 -37 -28 11 -17 66 -23 95 -11 26 10 33 8 82 -29 30 -23 80 -51 112 -64 56 -21 57 -23 50 -52 -5 -16 -8 -80 -8 -142 0 -97 3 -115 21 -140 28 -38 95 -73 168 -89 113 -24 344 -15 501 21 65 15 213 68 259 93 70 38 142 110 154 154 13 48 -6 131 -53 226 -35 69 -36 74 -21 97 20 31 20 32 -6 38 -13 4 -26 0 -33 -9 -9 -14 -20 -8 -73 37 -34 29 -62 53 -62 54 0 2 21 42 47 90 88 167 99 347 25 427 -63 69 -230 99 -447 81z m170 -262 c0 -34 -30 -51 -51 -29 -25 24 -10 60 24 56 21 -2 27 -8 27 -27z m-400 -56 c0 -25 -4 -30 -25 -30 -16 0 -26 6 -28 18 -6 30 6 49 30 45 18 -2 23 -9 23 -33z m405 -582 c0 -26 -8 -43 -33 -68 -60 -60 -137 -59 -195 2 -39 42 -38 67 2 71 21 3 36 -3 53 -22 37 -40 81 -29 102 27 9 23 43 39 64 29 4 -2 7 -19 7 -39z" transform="translate(332.0,148.0) scale(-0.1,-0.1)" stroke="none" fill="#81786C"/>

<path d="M905 1403 c-253 -21 -517 -128 -586 -239 -53 -87 12 -266 147 -401 l77 -76 -17 -26 c-9 -14 -29 -47 -43 -72 -24 -41 -31 -46 -65 -47 -21 -1 -38 3 -38 8 0 6 -13 10 -30 10 -16 0 -30 5 -30 10 0 6 -7 10 -16 10 -9 0 -30 13 -46 30 -15 16 -35 30 -42 30 -8 0 -16 5 -18 11 -3 9 -10 9 -26 0 -15 -8 -28 -9 -41 -2 -21 12 -48 -10 -37 -28 11 -17 66 -23 95 -11 26 10 33 8 82 -29 30 -23 80 -51 112 -64 56 -21 57 -23 50 -52 -5 -16 -8 -80 -8 -142 0 -97 3 -115 21 -140 28 -38 95 -73 168 -89 113 -24 344 -15 501 21 65 15 213 68 259 93 70 38 142 110 154 154 13 48 -6 131 -53 226 -35 69 -36 74 -21 97 20 31 20 32 -6 38 -13 4 -26 0 -33 -9 -9 -14 -20 -8 -73 37 -34 29 -62 53 -62 54 0 2 21 42 47 90 88 167 99 347 25 427 -63 69 -230 99 -447 81z m170 -262 c0 -34 -30 -51 -51 -29 -25 24 -10 60 24 56 21 -2 27 -8 27 -27z m-400 -56 c0 -25 -4 -30 -25 -30 -16 0 -26 6 -28 18 -6 30 6 49 30 45 18 -2 23 -9 23 -33z m405 -582 c0 -26 -8 -43 -33 -68 -60 -60 -137 -59 -195 2 -39 42 -38 67 2 71 21 3 36 -3 53 -22 37 -40 81 -29 102 27 9 23 43 39 64 29 4 -2 7 -19 7 -39z" transform="translate(0,148.0) scale(0.1,0.1)" stroke="none" fill="#81786C"/>

<path d="M905 1403 c-253 -21 -517 -128 -586 -239 -53 -87 12 -266 147 -401 l77 -76 -17 -26 c-9 -14 -29 -47 -43 -72 -24 -41 -31 -46 -65 -47 -21 -1 -38 3 -38 8 0 6 -13 10 -30 10 -16 0 -30 5 -30 10 0 6 -7 10 -16 10 -9 0 -30 13 -46 30 -15 16 -35 30 -42 30 -8 0 -16 5 -18 11 -3 9 -10 9 -26 0 -15 -8 -28 -9 -41 -2 -21 12 -48 -10 -37 -28 11 -17 66 -23 95 -11 26 10 33 8 82 -29 30 -23 80 -51 112 -64 56 -21 57 -23 50 -52 -5 -16 -8 -80 -8 -142 0 -97 3 -115 21 -140 28 -38 95 -73 168 -89 113 -24 344 -15 501 21 65 15 213 68 259 93 70 38 142 110 154 154 13 48 -6 131 -53 226 -35 69 -36 74 -21 97 20 31 20 32 -6 38 -13 4 -26 0 -33 -9 -9 -14 -20 -8 -73 37 -34 29 -62 53 -62 54 0 2 21 42 47 90 88 167 99 347 25 427 -63 69 -230 99 -447 81z m170 -262 c0 -34 -30 -51 -51 -29 -25 24 -10 60 24 56 21 -2 27 -8 27 -27z m-400 -56 c0 -25 -4 -30 -25 -30 -16 0 -26 6 -28 18 -6 30 6 49 30 45 18 -2 23 -9 23 -33z m405 -582 c0 -26 -8 -43 -33 -68 -60 -60 -137 -59 -195 2 -39 42 -38 67 2 71 21 3 36 -3 53 -22 37 -40 81 -29 102 27 9 23 43 39 64 29 4 -2 7 -19 7 -39z" transform="translate(332.0,148.0) scale(-0.1,0.1)" stroke="none" fill="#81786C"/>

</g>

</g>

<g id="2" transform="translate(332.0,0)scale(1,1)">

<g transform="matrix(0.5,0,0,0.5,0,0)">

<path d="M905 1403 c-253 -21 -517 -128 -586 -239 -53 -87 12 -266 147 -401 l77 -76 -17 -26 c-9 -14 -29 -47 -43 -72 -24 -41 -31 -46 -65 -47 -21 -1 -38 3 -38 8 0 6 -13 10 -30 10 -16 0 -30 5 -30 10 0 6 -7 10 -16 10 -9 0 -30 13 -46 30 -15 16 -35 30 -42 30 -8 0 -16 5 -18 11 -3 9 -10 9 -26 0 -15 -8 -28 -9 -41 -2 -21 12 -48 -10 -37 -28 11 -17 66 -23 95 -11 26 10 33 8 82 -29 30 -23 80 -51 112 -64 56 -21 57 -23 50 -52 -5 -16 -8 -80 -8 -142 0 -97 3 -115 21 -140 28 -38 95 -73 168 -89 113 -24 344 -15 501 21 65 15 213 68 259 93 70 38 142 110 154 154 13 48 -6 131 -53 226 -35 69 -36 74 -21 97 20 31 20 32 -6 38 -13 4 -26 0 -33 -9 -9 -14 -20 -8 -73 37 -34 29 -62 53 -62 54 0 2 21 42 47 90 88 167 99 347 25 427 -63 69 -230 99 -447 81z m170 -262 c0 -34 -30 -51 -51 -29 -25 24 -10 60 24 56 21 -2 27 -8 27 -27z m-400 -56 c0 -25 -4 -30 -25 -30 -16 0 -26 6 -28 18 -6 30 6 49 30 45 18 -2 23 -9 23 -33z m405 -582 c0 -26 -8 -43 -33 -68 -60 -60 -137 -59 -195 2 -39 42 -38 67 2 71 21 3 36 -3 53 -22 37 -40 81 -29 102 27 9 23 43 39 64 29 4 -2 7 -19 7 -39z" transform="translate(0,148.0) scale(0.1,-0.1)" stroke="none" fill="#81786C"/>

<path d="M905 1403 c-253 -21 -517 -128 -586 -239 -53 -87 12 -266 147 -401 l77 -76 -17 -26 c-9 -14 -29 -47 -43 -72 -24 -41 -31 -46 -65 -47 -21 -1 -38 3 -38 8 0 6 -13 10 -30 10 -16 0 -30 5 -30 10 0 6 -7 10 -16 10 -9 0 -30 13 -46 30 -15 16 -35 30 -42 30 -8 0 -16 5 -18 11 -3 9 -10 9 -26 0 -15 -8 -28 -9 -41 -2 -21 12 -48 -10 -37 -28 11 -17 66 -23 95 -11 26 10 33 8 82 -29 30 -23 80 -51 112 -64 56 -21 57 -23 50 -52 -5 -16 -8 -80 -8 -142 0 -97 3 -115 21 -140 28 -38 95 -73 168 -89 113 -24 344 -15 501 21 65 15 213 68 259 93 70 38 142 110 154 154 13 48 -6 131 -53 226 -35 69 -36 74 -21 97 20 31 20 32 -6 38 -13 4 -26 0 -33 -9 -9 -14 -20 -8 -73 37 -34 29 -62 53 -62 54 0 2 21 42 47 90 88 167 99 347 25 427 -63 69 -230 99 -447 81z m170 -262 c0 -34 -30 -51 -51 -29 -25 24 -10 60 24 56 21 -2 27 -8 27 -27z m-400 -56 c0 -25 -4 -30 -25 -30 -16 0 -26 6 -28 18 -6 30 6 49 30 45 18 -2 23 -9 23 -33z m405 -582 c0 -26 -8 -43 -33 -68 -60 -60 -137 -59 -195 2 -39 42 -38 67 2 71 21 3 36 -3 53 -22 37 -40 81 -29 102 27 9 23 43 39 64 29 4 -2 7 -19 7 -39z" transform="translate(332.0,148.0) scale(-0.1,-0.1)" stroke="none" fill="#81786C"/>

<path d="M905 1403 c-253 -21 -517 -128 -586 -239 -53 -87 12 -266 147 -401 l77 -76 -17 -26 c-9 -14 -29 -47 -43 -72 -24 -41 -31 -46 -65 -47 -21 -1 -38 3 -38 8 0 6 -13 10 -30 10 -16 0 -30 5 -30 10 0 6 -7 10 -16 10 -9 0 -30 13 -46 30 -15 16 -35 30 -42 30 -8 0 -16 5 -18 11 -3 9 -10 9 -26 0 -15 -8 -28 -9 -41 -2 -21 12 -48 -10 -37 -28 11 -17 66 -23 95 -11 26 10 33 8 82 -29 30 -23 80 -51 112 -64 56 -21 57 -23 50 -52 -5 -16 -8 -80 -8 -142 0 -97 3 -115 21 -140 28 -38 95 -73 168 -89 113 -24 344 -15 501 21 65 15 213 68 259 93 70 38 142 110 154 154 13 48 -6 131 -53 226 -35 69 -36 74 -21 97 20 31 20 32 -6 38 -13 4 -26 0 -33 -9 -9 -14 -20 -8 -73 37 -34 29 -62 53 -62 54 0 2 21 42 47 90 88 167 99 347 25 427 -63 69 -230 99 -447 81z m170 -262 c0 -34 -30 -51 -51 -29 -25 24 -10 60 24 56 21 -2 27 -8 27 -27z m-400 -56 c0 -25 -4 -30 -25 -30 -16 0 -26 6 -28 18 -6 30 6 49 30 45 18 -2 23 -9 23 -33z m405 -582 c0 -26 -8 -43 -33 -68 -60 -60 -137 -59 -195 2 -39 42 -38 67 2 71 21 3 36 -3 53 -22 37 -40 81 -29 102 27 9 23 43 39 64 29 4 -2 7 -19 7 -39z" transform="translate(0,148.0) scale(0.1,0.1)" stroke="none" fill="#81786C"/>

<path d="M905 1403 c-253 -21 -517 -128 -586 -239 -53 -87 12 -266 147 -401 l77 -76 -17 -26 c-9 -14 -29 -47 -43 -72 -24 -41 -31 -46 -65 -47 -21 -1 -38 3 -38 8 0 6 -13 10 -30 10 -16 0 -30 5 -30 10 0 6 -7 10 -16 10 -9 0 -30 13 -46 30 -15 16 -35 30 -42 30 -8 0 -16 5 -18 11 -3 9 -10 9 -26 0 -15 -8 -28 -9 -41 -2 -21 12 -48 -10 -37 -28 11 -17 66 -23 95 -11 26 10 33 8 82 -29 30 -23 80 -51 112 -64 56 -21 57 -23 50 -52 -5 -16 -8 -80 -8 -142 0 -97 3 -115 21 -140 28 -38 95 -73 168 -89 113 -24 344 -15 501 21 65 15 213 68 259 93 70 38 142 110 154 154 13 48 -6 131 -53 226 -35 69 -36 74 -21 97 20 31 20 32 -6 38 -13 4 -26 0 -33 -9 -9 -14 -20 -8 -73 37 -34 29 -62 53 -62 54 0 2 21 42 47 90 88 167 99 347 25 427 -63 69 -230 99 -447 81z m170 -262 c0 -34 -30 -51 -51 -29 -25 24 -10 60 24 56 21 -2 27 -8 27 -27z m-400 -56 c0 -25 -4 -30 -25 -30 -16 0 -26 6 -28 18 -6 30 6 49 30 45 18 -2 23 -9 23 -33z m405 -582 c0 -26 -8 -43 -33 -68 -60 -60 -137 -59 -195 2 -39 42 -38 67 2 71 21 3 36 -3 53 -22 37 -40 81 -29 102 27 9 23 43 39 64 29 4 -2 7 -19 7 -39z" transform="translate(332.0,148.0) scale(-0.1,0.1)" stroke="none" fill="#81786C"/>

</g>

</g>

<g id="3" transform="translate(498.0,0)scale(1,1)">

<g transform="matrix(0.5,0,0,0.5,0,0)">

<path d="M905 1403 c-253 -21 -517 -128 -586 -239 -53 -87 12 -266 147 -401 l77 -76 -17 -26 c-9 -14 -29 -47 -43 -72 -24 -41 -31 -46 -65 -47 -21 -1 -38 3 -38 8 0 6 -13 10 -30 10 -16 0 -30 5 -30 10 0 6 -7 10 -16 10 -9 0 -30 13 -46 30 -15 16 -35 30 -42 30 -8 0 -16 5 -18 11 -3 9 -10 9 -26 0 -15 -8 -28 -9 -41 -2 -21 12 -48 -10 -37 -28 11 -17 66 -23 95 -11 26 10 33 8 82 -29 30 -23 80 -51 112 -64 56 -21 57 -23 50 -52 -5 -16 -8 -80 -8 -142 0 -97 3 -115 21 -140 28 -38 95 -73 168 -89 113 -24 344 -15 501 21 65 15 213 68 259 93 70 38 142 110 154 154 13 48 -6 131 -53 226 -35 69 -36 74 -21 97 20 31 20 32 -6 38 -13 4 -26 0 -33 -9 -9 -14 -20 -8 -73 37 -34 29 -62 53 -62 54 0 2 21 42 47 90 88 167 99 347 25 427 -63 69 -230 99 -447 81z m170 -262 c0 -34 -30 -51 -51 -29 -25 24 -10 60 24 56 21 -2 27 -8 27 -27z m-400 -56 c0 -25 -4 -30 -25 -30 -16 0 -26 6 -28 18 -6 30 6 49 30 45 18 -2 23 -9 23 -33z m405 -582 c0 -26 -8 -43 -33 -68 -60 -60 -137 -59 -195 2 -39 42 -38 67 2 71 21 3 36 -3 53 -22 37 -40 81 -29 102 27 9 23 43 39 64 29 4 -2 7 -19 7 -39z" transform="translate(0,148.0) scale(0.1,-0.1)" stroke="none" fill="#81786C"/>

<path d="M905 1403 c-253 -21 -517 -128 -586 -239 -53 -87 12 -266 147 -401 l77 -76 -17 -26 c-9 -14 -29 -47 -43 -72 -24 -41 -31 -46 -65 -47 -21 -1 -38 3 -38 8 0 6 -13 10 -30 10 -16 0 -30 5 -30 10 0 6 -7 10 -16 10 -9 0 -30 13 -46 30 -15 16 -35 30 -42 30 -8 0 -16 5 -18 11 -3 9 -10 9 -26 0 -15 -8 -28 -9 -41 -2 -21 12 -48 -10 -37 -28 11 -17 66 -23 95 -11 26 10 33 8 82 -29 30 -23 80 -51 112 -64 56 -21 57 -23 50 -52 -5 -16 -8 -80 -8 -142 0 -97 3 -115 21 -140 28 -38 95 -73 168 -89 113 -24 344 -15 501 21 65 15 213 68 259 93 70 38 142 110 154 154 13 48 -6 131 -53 226 -35 69 -36 74 -21 97 20 31 20 32 -6 38 -13 4 -26 0 -33 -9 -9 -14 -20 -8 -73 37 -34 29 -62 53 -62 54 0 2 21 42 47 90 88 167 99 347 25 427 -63 69 -230 99 -447 81z m170 -262 c0 -34 -30 -51 -51 -29 -25 24 -10 60 24 56 21 -2 27 -8 27 -27z m-400 -56 c0 -25 -4 -30 -25 -30 -16 0 -26 6 -28 18 -6 30 6 49 30 45 18 -2 23 -9 23 -33z m405 -582 c0 -26 -8 -43 -33 -68 -60 -60 -137 -59 -195 2 -39 42 -38 67 2 71 21 3 36 -3 53 -22 37 -40 81 -29 102 27 9 23 43 39 64 29 4 -2 7 -19 7 -39z" transform="translate(332.0,148.0) scale(-0.1,-0.1)" stroke="none" fill="#81786C"/>

<path d="M905 1403 c-253 -21 -517 -128 -586 -239 -53 -87 12 -266 147 -401 l77 -76 -17 -26 c-9 -14 -29 -47 -43 -72 -24 -41 -31 -46 -65 -47 -21 -1 -38 3 -38 8 0 6 -13 10 -30 10 -16 0 -30 5 -30 10 0 6 -7 10 -16 10 -9 0 -30 13 -46 30 -15 16 -35 30 -42 30 -8 0 -16 5 -18 11 -3 9 -10 9 -26 0 -15 -8 -28 -9 -41 -2 -21 12 -48 -10 -37 -28 11 -17 66 -23 95 -11 26 10 33 8 82 -29 30 -23 80 -51 112 -64 56 -21 57 -23 50 -52 -5 -16 -8 -80 -8 -142 0 -97 3 -115 21 -140 28 -38 95 -73 168 -89 113 -24 344 -15 501 21 65 15 213 68 259 93 70 38 142 110 154 154 13 48 -6 131 -53 226 -35 69 -36 74 -21 97 20 31 20 32 -6 38 -13 4 -26 0 -33 -9 -9 -14 -20 -8 -73 37 -34 29 -62 53 -62 54 0 2 21 42 47 90 88 167 99 347 25 427 -63 69 -230 99 -447 81z m170 -262 c0 -34 -30 -51 -51 -29 -25 24 -10 60 24 56 21 -2 27 -8 27 -27z m-400 -56 c0 -25 -4 -30 -25 -30 -16 0 -26 6 -28 18 -6 30 6 49 30 45 18 -2 23 -9 23 -33z m405 -582 c0 -26 -8 -43 -33 -68 -60 -60 -137 -59 -195 2 -39 42 -38 67 2 71 21 3 36 -3 53 -22 37 -40 81 -29 102 27 9 23 43 39 64 29 4 -2 7 -19 7 -39z" transform="translate(0,148.0) scale(0.1,0.1)" stroke="none" fill="#81786C"/>

<path d="M905 1403 c-253 -21 -517 -128 -586 -239 -53 -87 12 -266 147 -401 l77 -76 -17 -26 c-9 -14 -29 -47 -43 -72 -24 -41 -31 -46 -65 -47 -21 -1 -38 3 -38 8 0 6 -13 10 -30 10 -16 0 -30 5 -30 10 0 6 -7 10 -16 10 -9 0 -30 13 -46 30 -15 16 -35 30 -42 30 -8 0 -16 5 -18 11 -3 9 -10 9 -26 0 -15 -8 -28 -9 -41 -2 -21 12 -48 -10 -37 -28 11 -17 66 -23 95 -11 26 10 33 8 82 -29 30 -23 80 -51 112 -64 56 -21 57 -23 50 -52 -5 -16 -8 -80 -8 -142 0 -97 3 -115 21 -140 28 -38 95 -73 168 -89 113 -24 344 -15 501 21 65 15 213 68 259 93 70 38 142 110 154 154 13 48 -6 131 -53 226 -35 69 -36 74 -21 97 20 31 20 32 -6 38 -13 4 -26 0 -33 -9 -9 -14 -20 -8 -73 37 -34 29 -62 53 -62 54 0 2 21 42 47 90 88 167 99 347 25 427 -63 69 -230 99 -447 81z m170 -262 c0 -34 -30 -51 -51 -29 -25 24 -10 60 24 56 21 -2 27 -8 27 -27z m-400 -56 c0 -25 -4 -30 -25 -30 -16 0 -26 6 -28 18 -6 30 6 49 30 45 18 -2 23 -9 23 -33z m405 -582 c0 -26 -8 -43 -33 -68 -60 -60 -137 -59 -195 2 -39 42 -38 67 2 71 21 3 36 -3 53 -22 37 -40 81 -29 102 27 9 23 43 39 64 29 4 -2 7 -19 7 -39z" transform="translate(332.0,148.0) scale(-0.1,0.1)" stroke="none" fill="#81786C"/>

</g>

</g>

<g id="4" transform="translate(664.0,0)scale(1,1)">

<g transform="matrix(0.5,0,0,0.5,0,0)">

<path d="M905 1403 c-253 -21 -517 -128 -586 -239 -53 -87 12 -266 147 -401 l77 -76 -17 -26 c-9 -14 -29 -47 -43 -72 -24 -41 -31 -46 -65 -47 -21 -1 -38 3 -38 8 0 6 -13 10 -30 10 -16 0 -30 5 -30 10 0 6 -7 10 -16 10 -9 0 -30 13 -46 30 -15 16 -35 30 -42 30 -8 0 -16 5 -18 11 -3 9 -10 9 -26 0 -15 -8 -28 -9 -41 -2 -21 12 -48 -10 -37 -28 11 -17 66 -23 95 -11 26 10 33 8 82 -29 30 -23 80 -51 112 -64 56 -21 57 -23 50 -52 -5 -16 -8 -80 -8 -142 0 -97 3 -115 21 -140 28 -38 95 -73 168 -89 113 -24 344 -15 501 21 65 15 213 68 259 93 70 38 142 110 154 154 13 48 -6 131 -53 226 -35 69 -36 74 -21 97 20 31 20 32 -6 38 -13 4 -26 0 -33 -9 -9 -14 -20 -8 -73 37 -34 29 -62 53 -62 54 0 2 21 42 47 90 88 167 99 347 25 427 -63 69 -230 99 -447 81z m170 -262 c0 -34 -30 -51 -51 -29 -25 24 -10 60 24 56 21 -2 27 -8 27 -27z m-400 -56 c0 -25 -4 -30 -25 -30 -16 0 -26 6 -28 18 -6 30 6 49 30 45 18 -2 23 -9 23 -33z m405 -582 c0 -26 -8 -43 -33 -68 -60 -60 -137 -59 -195 2 -39 42 -38 67 2 71 21 3 36 -3 53 -22 37 -40 81 -29 102 27 9 23 43 39 64 29 4 -2 7 -19 7 -39z" transform="translate(0,148.0) scale(0.1,-0.1)" stroke="none" fill="#81786C"/>

<path d="M905 1403 c-253 -21 -517 -128 -586 -239 -53 -87 12 -266 147 -401 l77 -76 -17 -26 c-9 -14 -29 -47 -43 -72 -24 -41 -31 -46 -65 -47 -21 -1 -38 3 -38 8 0 6 -13 10 -30 10 -16 0 -30 5 -30 10 0 6 -7 10 -16 10 -9 0 -30 13 -46 30 -15 16 -35 30 -42 30 -8 0 -16 5 -18 11 -3 9 -10 9 -26 0 -15 -8 -28 -9 -41 -2 -21 12 -48 -10 -37 -28 11 -17 66 -23 95 -11 26 10 33 8 82 -29 30 -23 80 -51 112 -64 56 -21 57 -23 50 -52 -5 -16 -8 -80 -8 -142 0 -97 3 -115 21 -140 28 -38 95 -73 168 -89 113 -24 344 -15 501 21 65 15 213 68 259 93 70 38 142 110 154 154 13 48 -6 131 -53 226 -35 69 -36 74 -21 97 20 31 20 32 -6 38 -13 4 -26 0 -33 -9 -9 -14 -20 -8 -73 37 -34 29 -62 53 -62 54 0 2 21 42 47 90 88 167 99 347 25 427 -63 69 -230 99 -447 81z m170 -262 c0 -34 -30 -51 -51 -29 -25 24 -10 60 24 56 21 -2 27 -8 27 -27z m-400 -56 c0 -25 -4 -30 -25 -30 -16 0 -26 6 -28 18 -6 30 6 49 30 45 18 -2 23 -9 23 -33z m405 -582 c0 -26 -8 -43 -33 -68 -60 -60 -137 -59 -195 2 -39 42 -38 67 2 71 21 3 36 -3 53 -22 37 -40 81 -29 102 27 9 23 43 39 64 29 4 -2 7 -19 7 -39z" transform="translate(332.0,148.0) scale(-0.1,-0.1)" stroke="none" fill="#81786C"/>

<path d="M905 1403 c-253 -21 -517 -128 -586 -239 -53 -87 12 -266 147 -401 l77 -76 -17 -26 c-9 -14 -29 -47 -43 -72 -24 -41 -31 -46 -65 -47 -21 -1 -38 3 -38 8 0 6 -13 10 -30 10 -16 0 -30 5 -30 10 0 6 -7 10 -16 10 -9 0 -30 13 -46 30 -15 16 -35 30 -42 30 -8 0 -16 5 -18 11 -3 9 -10 9 -26 0 -15 -8 -28 -9 -41 -2 -21 12 -48 -10 -37 -28 11 -17 66 -23 95 -11 26 10 33 8 82 -29 30 -23 80 -51 112 -64 56 -21 57 -23 50 -52 -5 -16 -8 -80 -8 -142 0 -97 3 -115 21 -140 28 -38 95 -73 168 -89 113 -24 344 -15 501 21 65 15 213 68 259 93 70 38 142 110 154 154 13 48 -6 131 -53 226 -35 69 -36 74 -21 97 20 31 20 32 -6 38 -13 4 -26 0 -33 -9 -9 -14 -20 -8 -73 37 -34 29 -62 53 -62 54 0 2 21 42 47 90 88 167 99 347 25 427 -63 69 -230 99 -447 81z m170 -262 c0 -34 -30 -51 -51 -29 -25 24 -10 60 24 56 21 -2 27 -8 27 -27z m-400 -56 c0 -25 -4 -30 -25 -30 -16 0 -26 6 -28 18 -6 30 6 49 30 45 18 -2 23 -9 23 -33z m405 -582 c0 -26 -8 -43 -33 -68 -60 -60 -137 -59 -195 2 -39 42 -38 67 2 71 21 3 36 -3 53 -22 37 -40 81 -29 102 27 9 23 43 39 64 29 4 -2 7 -19 7 -39z" transform="translate(0,148.0) scale(0.1,0.1)" stroke="none" fill="#81786C"/>

<path d="M905 1403 c-253 -21 -517 -128 -586 -239 -53 -87 12 -266 147 -401 l77 -76 -17 -26 c-9 -14 -29 -47 -43 -72 -24 -41 -31 -46 -65 -47 -21 -1 -38 3 -38 8 0 6 -13 10 -30 10 -16 0 -30 5 -30 10 0 6 -7 10 -16 10 -9 0 -30 13 -46 30 -15 16 -35 30 -42 30 -8 0 -16 5 -18 11 -3 9 -10 9 -26 0 -15 -8 -28 -9 -41 -2 -21 12 -48 -10 -37 -28 11 -17 66 -23 95 -11 26 10 33 8 82 -29 30 -23 80 -51 112 -64 56 -21 57 -23 50 -52 -5 -16 -8 -80 -8 -142 0 -97 3 -115 21 -140 28 -38 95 -73 168 -89 113 -24 344 -15 501 21 65 15 213 68 259 93 70 38 142 110 154 154 13 48 -6 131 -53 226 -35 69 -36 74 -21 97 20 31 20 32 -6 38 -13 4 -26 0 -33 -9 -9 -14 -20 -8 -73 37 -34 29 -62 53 -62 54 0 2 21 42 47 90 88 167 99 347 25 427 -63 69 -230 99 -447 81z m170 -262 c0 -34 -30 -51 -51 -29 -25 24 -10 60 24 56 21 -2 27 -8 27 -27z m-400 -56 c0 -25 -4 -30 -25 -30 -16 0 -26 6 -28 18 -6 30 6 49 30 45 18 -2 23 -9 23 -33z m405 -582 c0 -26 -8 -43 -33 -68 -60 -60 -137 -59 -195 2 -39 42 -38 67 2 71 21 3 36 -3 53 -22 37 -40 81 -29 102 27 9 23 43 39 64 29 4 -2 7 -19 7 -39z" transform="translate(332.0,148.0) scale(-0.1,0.1)" stroke="none" fill="#81786C"/>

</g>

</g>

</g>
</svg>