<?xml version="1.0" standalone="no"?>
<!DOCTYPE svg PUBLIC "-//W3C//DTD SVG 20010904//EN"
 "http://www.w3.org/TR/2001/REC-SVG-20010904/DTD/svg10.dtd">
<svg version="1.0" xmlns="http://www.w3.org/2000/svg" width="468pt" height="476pt" viewBox="0 0 468 476" preserveAspectRatio = "xMidYMid meet" >
<metadata>
Created by ZoeQu, written in 2022
</metadata>
<rect width="468" height="476" fill="#D9D6A4"/>
<g id="col0" transform="translate(0, 15)">
<g id="0" transform="translate(0,0.0)scale(0.8,0.8)">

<path d="M695 526 c-24 -13 -35 -28 -29 -37 2 -4 -3 -12 -11 -19 -16 -13 -9 -40 10 -40 7 0 15 -9 18 -20 5 -21 47 -29 47 -10 0 6 7 10 16 8 10 -2 24 10 36 31 18 33 19 36 3 47 -9 7 -14 17 -11 23 14 21 -47 35 -79 17z m10 -76 c3 -5 1 -10 -4 -10 -6 0 -11 5 -11 10 0 6 2 10 4 10 3 0 8 -4 11 -10z m40 -10 c-3 -5 -12 -10 -18 -10 -7 0 -6 4 3 10 19 12 23 12 15 0z" transform="translate(0,119) scale(0.1,-0.1)" stroke="none" fill="#936C3F"/>

<path d="M678 1082 c-30 -71 -51 -155 -57 -240 l-7 -84 43 -29 43 -30 33 25 c18 14 54 35 80 46 39 18 47 26 53 56 9 49 -1 126 -23 171 -24 52 -97 123 -125 123 -17 0 -28 -10 -40 -38z" transform="translate(0,119) scale(0.1,-0.1)" stroke="none" fill="#936C3F"/>

<path d="M320 446 c-103 -29 -260 -137 -260 -180 0 -56 209 -87 324 -48 48 17 49 18 76 93 l27 75 -34 37 c-37 41 -56 44 -133 23z" transform="translate(0,119) scale(0.1,-0.1)" stroke="none" fill="#936C3F"/>

<path d="M844 774 c-55 -16 -83 -31 -116 -61 l-26 -25 -48 36 c-55 43 -80 50 -135 43 -74 -10 -119 -78 -119 -182 0 -70 23 -127 68 -168 l30 -29 -25 -54 c-54 -118 -39 -212 42 -259 50 -30 104 -32 160 -6 37 16 98 74 106 100 3 7 20 3 48 -11 54 -26 149 -35 191 -18 41 17 88 72 95 113 9 45 -13 94 -65 150 l-41 45 20 33 c44 75 46 181 4 238 -42 55 -117 77 -189 55z m-50 -255 c39 -31 36 -81 -8 -125 -40 -40 -80 -44 -120 -13 -45 35 -30 133 24 152 33 12 79 6 104 -14z" transform="translate(0,119) scale(0.1,-0.1)" stroke="none" fill="#F3A181"/>

</g>

<g id="1" transform="translate(0,119.0)scale(0.8,0.8)">

<path d="M695 526 c-24 -13 -35 -28 -29 -37 2 -4 -3 -12 -11 -19 -16 -13 -9 -40 10 -40 7 0 15 -9 18 -20 5 -21 47 -29 47 -10 0 6 7 10 16 8 10 -2 24 10 36 31 18 33 19 36 3 47 -9 7 -14 17 -11 23 14 21 -47 35 -79 17z m10 -76 c3 -5 1 -10 -4 -10 -6 0 -11 5 -11 10 0 6 2 10 4 10 3 0 8 -4 11 -10z m40 -10 c-3 -5 -12 -10 -18 -10 -7 0 -6 4 3 10 19 12 23 12 15 0z" transform="translate(0,119) scale(0.1,-0.1)" stroke="none" fill="#936C3F"/>

<path d="M678 1082 c-30 -71 -51 -155 -57 -240 l-7 -84 43 -29 43 -30 33 25 c18 14 54 35 80 46 39 18 47 26 53 56 9 49 -1 126 -23 171 -24 52 -97 123 -125 123 -17 0 -28 -10 -40 -38z" transform="translate(0,119) scale(0.1,-0.1)" stroke="none" fill="#936C3F"/>

<path d="M320 446 c-103 -29 -260 -137 -260 -180 0 -56 209 -87 324 -48 48 17 49 18 76 93 l27 75 -34 37 c-37 41 -56 44 -133 23z" transform="translate(0,119) scale(0.1,-0.1)" stroke="none" fill="#936C3F"/>

<path d="M844 774 c-55 -16 -83 -31 -116 -61 l-26 -25 -48 36 c-55 43 -80 50 -135 43 -74 -10 -119 -78 -119 -182 0 -70 23 -127 68 -168 l30 -29 -25 -54 c-54 -118 -39 -212 42 -259 50 -30 104 -32 160 -6 37 16 98 74 106 100 3 7 20 3 48 -11 54 -26 149 -35 191 -18 41 17 88 72 95 113 9 45 -13 94 -65 150 l-41 45 20 33 c44 75 46 181 4 238 -42 55 -117 77 -189 55z m-50 -255 c39 -31 36 -81 -8 -125 -40 -40 -80 -44 -120 -13 -45 35 -30 133 24 152 33 12 79 6 104 -14z" transform="translate(0,119) scale(0.1,-0.1)" stroke="none" fill="#F3A181"/>

</g>

<g id="2" transform="translate(0,238.0)scale(0.8,0.8)">

<path d="M695 526 c-24 -13 -35 -28 -29 -37 2 -4 -3 -12 -11 -19 -16 -13 -9 -40 10 -40 7 0 15 -9 18 -20 5 -21 47 -29 47 -10 0 6 7 10 16 8 10 -2 24 10 36 31 18 33 19 36 3 47 -9 7 -14 17 -11 23 14 21 -47 35 -79 17z m10 -76 c3 -5 1 -10 -4 -10 -6 0 -11 5 -11 10 0 6 2 10 4 10 3 0 8 -4 11 -10z m40 -10 c-3 -5 -12 -10 -18 -10 -7 0 -6 4 3 10 19 12 23 12 15 0z" transform="translate(0,119) scale(0.1,-0.1)" stroke="none" fill="#936C3F"/>

<path d="M678 1082 c-30 -71 -51 -155 -57 -240 l-7 -84 43 -29 43 -30 33 25 c18 14 54 35 80 46 39 18 47 26 53 56 9 49 -1 126 -23 171 -24 52 -97 123 -125 123 -17 0 -28 -10 -40 -38z" transform="translate(0,119) scale(0.1,-0.1)" stroke="none" fill="#936C3F"/>

<path d="M320 446 c-103 -29 -260 -137 -260 -180 0 -56 209 -87 324 -48 48 17 49 18 76 93 l27 75 -34 37 c-37 41 -56 44 -133 23z" transform="translate(0,119) scale(0.1,-0.1)" stroke="none" fill="#936C3F"/>

<path d="M844 774 c-55 -16 -83 -31 -116 -61 l-26 -25 -48 36 c-55 43 -80 50 -135 43 -74 -10 -119 -78 -119 -182 0 -70 23 -127 68 -168 l30 -29 -25 -54 c-54 -118 -39 -212 42 -259 50 -30 104 -32 160 -6 37 16 98 74 106 100 3 7 20 3 48 -11 54 -26 149 -35 191 -18 41 17 88 72 95 113 9 45 -13 94 -65 150 l-41 45 20 33 c44 75 46 181 4 238 -42 55 -117 77 -189 55z m-50 -255 c39 -31 36 -81 -8 -125 -40 -40 -80 -44 -120 -13 -45 35 -30 133 24 152 33 12 79 6 104 -14z" transform="translate(0,119) scale(0.1,-0.1)" stroke="none" fill="#F3A181"/>

</g>

<g id="3" transform="translate(0,357.0)scale(0.8,0.8)">

<path d="M695 526 c-24 -13 -35 -28 -29 -37 2 -4 -3 -12 -11 -19 -16 -13 -9 -40 10 -40 7 0 15 -9 18 -20 5 -21 47 -29 47 -10 0 6 7 10 16 8 10 -2 24 10 36 31 18 33 19 36 3 47 -9 7 -14 17 -11 23 14 21 -47 35 -79 17z m10 -76 c3 -5 1 -10 -4 -10 -6 0 -11 5 -11 10 0 6 2 10 4 10 3 0 8 -4 11 -10z m40 -10 c-3 -5 -12 -10 -18 -10 -7 0 -6 4 3 10 19 12 23 12 15 0z" transform="translate(0,119) scale(0.1,-0.1)" stroke="none" fill="#936C3F"/>

<path d="M678 1082 c-30 -71 -51 -155 -57 -240 l-7 -84 43 -29 43 -30 33 25 c18 14 54 35 80 46 39 18 47 26 53 56 9 49 -1 126 -23 171 -24 52 -97 123 -125 123 -17 0 -28 -10 -40 -38z" transform="translate(0,119) scale(0.1,-0.1)" stroke="none" fill="#936C3F"/>

<path d="M320 446 c-103 -29 -260 -137 -260 -180 0 -56 209 -87 324 -48 48 17 49 18 76 93 l27 75 -34 37 c-37 41 -56 44 -133 23z" transform="translate(0,119) scale(0.1,-0.1)" stroke="none" fill="#936C3F"/>

<path d="M844 774 c-55 -16 -83 -31 -116 -61 l-26 -25 -48 36 c-55 43 -80 50 -135 43 -74 -10 -119 -78 -119 -182 0 -70 23 -127 68 -168 l30 -29 -25 -54 c-54 -118 -39 -212 42 -259 50 -30 104 -32 160 -6 37 16 98 74 106 100 3 7 20 3 48 -11 54 -26 149 -35 191 -18 41 17 88 72 95 113 9 45 -13 94 -65 150 l-41 45 20 33 c44 75 46 181 4 238 -42 55 -117 77 -189 55z m-50 -255 c39 -31 36 -81 -8 -125 -40 -40 -80 -44 -120 -13 -45 35 -30 133 24 152 33 12 79 6 104 -14z" transform="translate(0,119) scale(0.1,-0.1)" stroke="none" fill="#F3A181"/>

</g>

<g id="4" transform="translate(0,476.0)scale(0.8,0.8)">

<path d="M695 526 c-24 -13 -35 -28 -29 -37 2 -4 -3 -12 -11 -19 -16 -13 -9 -40 10 -40 7 0 15 -9 18 -20 5 -21 47 -29 47 -10 0 6 7 10 16 8 10 -2 24 10 36 31 18 33 19 36 3 47 -9 7 -14 17 -11 23 14 21 -47 35 -79 17z m10 -76 c3 -5 1 -10 -4 -10 -6 0 -11 5 -11 10 0 6 2 10 4 10 3 0 8 -4 11 -10z m40 -10 c-3 -5 -12 -10 -18 -10 -7 0 -6 4 3 10 19 12 23 12 15 0z" transform="translate(0,119) scale(0.1,-0.1)" stroke="none" fill="#936C3F"/>

<path d="M678 1082 c-30 -71 -51 -155 -57 -240 l-7 -84 43 -29 43 -30 33 25 c18 14 54 35 80 46 39 18 47 26 53 56 9 49 -1 126 -23 171 -24 52 -97 123 -125 123 -17 0 -28 -10 -40 -38z" transform="translate(0,119) scale(0.1,-0.1)" stroke="none" fill="#936C3F"/>

<path d="M320 446 c-103 -29 -260 -137 -260 -180 0 -56 209 -87 324 -48 48 17 49 18 76 93 l27 75 -34 37 c-37 41 -56 44 -133 23z" transform="translate(0,119) scale(0.1,-0.1)" stroke="none" fill="#936C3F"/>

<path d="M844 774 c-55 -16 -83 -31 -116 -61 l-26 -25 -48 36 c-55 43 -80 50 -135 43 -74 -10 -119 -78 -119 -182 0 -70 23 -127 68 -168 l30 -29 -25 -54 c-54 -118 -39 -212 42 -259 50 -30 104 -32 160 -6 37 16 98 74 106 100 3 7 20 3 48 -11 54 -26 149 -35 191 -18 41 17 88 72 95 113 9 45 -13 94 -65 150 l-41 45 20 33 c44 75 46 181 4 238 -42 55 -117 77 -189 55z m-50 -255 c39 -31 36 -81 -8 -125 -40 -40 -80 -44 -120 -13 -45 35 -30 133 24 152 33 12 79 6 104 -14z" transform="translate(0,119) scale(0.1,-0.1)" stroke="none" fill="#F3A181"/>

</g>

</g>
<g id="col1" transform="translate(117, -44.5)">
<g id="0" transform="translate(0,0.0)scale(0.8,0.8)">

<path d="M695 526 c-24 -13 -35 -28 -29 -37 2 -4 -3 -12 -11 -19 -16 -13 -9 -40 10 -40 7 0 15 -9 18 -20 5 -21 47 -29 47 -10 0 6 7 10 16 8 10 -2 24 10 36 31 18 33 19 36 3 47 -9 7 -14 17 -11 23 14 21 -47 35 -79 17z m10 -76 c3 -5 1 -10 -4 -10 -6 0 -11 5 -11 10 0 6 2 10 4 10 3 0 8 -4 11 -10z m40 -10 c-3 -5 -12 -10 -18 -10 -7 0 -6 4 3 10 19 12 23 12 15 0z" transform="translate(0,119) scale(0.1,-0.1)" stroke="none" fill="#936C3F"/>

<path d="M678 1082 c-30 -71 -51 -155 -57 -240 l-7 -84 43 -29 43 -30 33 25 c18 14 54 35 80 46 39 18 47 26 53 56 9 49 -1 126 -23 171 -24 52 -97 123 -125 123 -17 0 -28 -10 -40 -38z" transform="translate(0,119) scale(0.1,-0.1)" stroke="none" fill="#936C3F"/>

<path d="M320 446 c-103 -29 -260 -137 -260 -180 0 -56 209 -87 324 -48 48 17 49 18 76 93 l27 75 -34 37 c-37 41 -56 44 -133 23z" transform="translate(0,119) scale(0.1,-0.1)" stroke="none" fill="#936C3F"/>

<path d="M844 774 c-55 -16 -83 -31 -116 -61 l-26 -25 -48 36 c-55 43 -80 50 -135 43 -74 -10 -119 -78 -119 -182 0 -70 23 -127 68 -168 l30 -29 -25 -54 c-54 -118 -39 -212 42 -259 50 -30 104 -32 160 -6 37 16 98 74 106 100 3 7 20 3 48 -11 54 -26 149 -35 191 -18 41 17 88 72 95 113 9 45 -13 94 -65 150 l-41 45 20 33 c44 75 46 181 4 238 -42 55 -117 77 -189 55z m-50 -255 c39 -31 36 -81 -8 -125 -40 -40 -80 -44 -120 -13 -45 35 -30 133 24 152 33 12 79 6 104 -14z" transform="translate(0,119) scale(0.1,-0.1)" stroke="none" fill="#F3A181"/>

</g>

<g id="1" transform="translate(0,119.0)scale(0.8,0.8)">

<path d="M695 526 c-24 -13 -35 -28 -29 -37 2 -4 -3 -12 -11 -19 -16 -13 -9 -40 10 -40 7 0 15 -9 18 -20 5 -21 47 -29 47 -10 0 6 7 10 16 8 10 -2 24 10 36 31 18 33 19 36 3 47 -9 7 -14 17 -11 23 14 21 -47 35 -79 17z m10 -76 c3 -5 1 -10 -4 -10 -6 0 -11 5 -11 10 0 6 2 10 4 10 3 0 8 -4 11 -10z m40 -10 c-3 -5 -12 -10 -18 -10 -7 0 -6 4 3 10 19 12 23 12 15 0z" transform="translate(0,119) scale(0.1,-0.1)" stroke="none" fill="#936C3F"/>

<path d="M678 1082 c-30 -71 -51 -155 -57 -240 l-7 -84 43 -29 43 -30 33 25 c18 14 54 35 80 46 39 18 47 26 53 56 9 49 -1 126 -23 171 -24 52 -97 123 -125 123 -17 0 -28 -10 -40 -38z" transform="translate(0,119) scale(0.1,-0.1)" stroke="none" fill="#936C3F"/>

<path d="M320 446 c-103 -29 -260 -137 -260 -180 0 -56 209 -87 324 -48 48 17 49 18 76 93 l27 75 -34 37 c-37 41 -56 44 -133 23z" transform="translate(0,119) scale(0.1,-0.1)" stroke="none" fill="#936C3F"/>

<path d="M844 774 c-55 -16 -83 -31 -116 -61 l-26 -25 -48 36 c-55 43 -80 50 -135 43 -74 -10 -119 -78 -119 -182 0 -70 23 -127 68 -168 l30 -29 -25 -54 c-54 -118 -39 -212 42 -259 50 -30 104 -32 160 -6 37 16 98 74 106 100 3 7 20 3 48 -11 54 -26 149 -35 191 -18 41 17 88 72 95 113 9 45 -13 94 -65 150 l-41 45 20 33 c44 75 46 181 4 238 -42 55 -117 77 -189 55z m-50 -255 c39 -31 36 -81 -8 -125 -40 -40 -80 -44 -120 -13 -45 35 -30 133 24 152 33 12 79 6 104 -14z" transform="translate(0,119) scale(0.1,-0.1)" stroke="none" fill="#F3A181"/>

</g>

<g id="2" transform="translate(0,238.0)scale(0.8,0.8)">

<path d="M695 526 c-24 -13 -35 -28 -29 -37 2 -4 -3 -12 -11 -19 -16 -13 -9 -40 10 -40 7 0 15 -9 18 -20 5 -21 47 -29 47 -10 0 6 7 10 16 8 10 -2 24 10 36 31 18 33 19 36 3 47 -9 7 -14 17 -11 23 14 21 -47 35 -79 17z m10 -76 c3 -5 1 -10 -4 -10 -6 0 -11 5 -11 10 0 6 2 10 4 10 3 0 8 -4 11 -10z m40 -10 c-3 -5 -12 -10 -18 -10 -7 0 -6 4 3 10 19 12 23 12 15 0z" transform="translate(0,119) scale(0.1,-0.1)" stroke="none" fill="#936C3F"/>

<path d="M678 1082 c-30 -71 -51 -155 -57 -240 l-7 -84 43 -29 43 -30 33 25 c18 14 54 35 80 46 39 18 47 26 53 56 9 49 -1 126 -23 171 -24 52 -97 123 -125 123 -17 0 -28 -10 -40 -38z" transform="translate(0,119) scale(0.1,-0.1)" stroke="none" fill="#936C3F"/>

<path d="M320 446 c-103 -29 -260 -137 -260 -180 0 -56 209 -87 324 -48 48 17 49 18 76 93 l27 75 -34 37 c-37 41 -56 44 -133 23z" transform="translate(0,119) scale(0.1,-0.1)" stroke="none" fill="#936C3F"/>

<path d="M844 774 c-55 -16 -83 -31 -116 -61 l-26 -25 -48 36 c-55 43 -80 50 -135 43 -74 -10 -119 -78 -119 -182 0 -70 23 -127 68 -168 l30 -29 -25 -54 c-54 -118 -39 -212 42 -259 50 -30 104 -32 160 -6 37 16 98 74 106 100 3 7 20 3 48 -11 54 -26 149 -35 191 -18 41 17 88 72 95 113 9 45 -13 94 -65 150 l-41 45 20 33 c44 75 46 181 4 238 -42 55 -117 77 -189 55z m-50 -255 c39 -31 36 -81 -8 -125 -40 -40 -80 -44 -120 -13 -45 35 -30 133 24 152 33 12 79 6 104 -14z" transform="translate(0,119) scale(0.1,-0.1)" stroke="none" fill="#F3A181"/>

</g>

<g id="3" transform="translate(0,357.0)scale(0.8,0.8)">

<path d="M695 526 c-24 -13 -35 -28 -29 -37 2 -4 -3 -12 -11 -19 -16 -13 -9 -40 10 -40 7 0 15 -9 18 -20 5 -21 47 -29 47 -10 0 6 7 10 16 8 10 -2 24 10 36 31 18 33 19 36 3 47 -9 7 -14 17 -11 23 14 21 -47 35 -79 17z m10 -76 c3 -5 1 -10 -4 -10 -6 0 -11 5 -11 10 0 6 2 10 4 10 3 0 8 -4 11 -10z m40 -10 c-3 -5 -12 -10 -18 -10 -7 0 -6 4 3 10 19 12 23 12 15 0z" transform="translate(0,119) scale(0.1,-0.1)" stroke="none" fill="#936C3F"/>

<path d="M678 1082 c-30 -71 -51 -155 -57 -240 l-7 -84 43 -29 43 -30 33 25 c18 14 54 35 80 46 39 18 47 26 53 56 9 49 -1 126 -23 171 -24 52 -97 123 -125 123 -17 0 -28 -10 -40 -38z" transform="translate(0,119) scale(0.1,-0.1)" stroke="none" fill="#936C3F"/>

<path d="M320 446 c-103 -29 -260 -137 -260 -180 0 -56 209 -87 324 -48 48 17 49 18 76 93 l27 75 -34 37 c-37 41 -56 44 -133 23z" transform="translate(0,119) scale(0.1,-0.1)" stroke="none" fill="#936C3F"/>

<path d="M844 774 c-55 -16 -83 -31 -116 -61 l-26 -25 -48 36 c-55 43 -80 50 -135 43 -74 -10 -119 -78 -119 -182 0 -70 23 -127 68 -168 l30 -29 -25 -54 c-54 -118 -39 -212 42 -259 50 -30 104 -32 160 -6 37 16 98 74 106 100 3 7 20 3 48 -11 54 -26 149 -35 191 -18 41 17 88 72 95 113 9 45 -13 94 -65 150 l-41 45 20 33 c44 75 46 181 4 238 -42 55 -117 77 -189 55z m-50 -255 c39 -31 36 -81 -8 -125 -40 -40 -80 -44 -120 -13 -45 35 -30 133 24 152 33 12 79 6 104 -14z" transform="translate(0,119) scale(0.1,-0.1)" stroke="none" fill="#F3A181"/>

</g>

<g id="4" transform="translate(0,476.0)scale(0.8,0.8)">

<path d="M695 526 c-24 -13 -35 -28 -29 -37 2 -4 -3 -12 -11 -19 -16 -13 -9 -40 10 -40 7 0 15 -9 18 -20 5 -21 47 -29 47 -10 0 6 7 10 16 8 10 -2 24 10 36 31 18 33 19 36 3 47 -9 7 -14 17 -11 23 14 21 -47 35 -79 17z m10 -76 c3 -5 1 -10 -4 -10 -6 0 -11 5 -11 10 0 6 2 10 4 10 3 0 8 -4 11 -10z m40 -10 c-3 -5 -12 -10 -18 -10 -7 0 -6 4 3 10 19 12 23 12 15 0z" transform="translate(0,119) scale(0.1,-0.1)" stroke="none" fill="#936C3F"/>

<path d="M678 1082 c-30 -71 -51 -155 -57 -240 l-7 -84 43 -29 43 -30 33 25 c18 14 54 35 80 46 39 18 47 26 53 56 9 49 -1 126 -23 171 -24 52 -97 123 -125 123 -17 0 -28 -10 -40 -38z" transform="translate(0,119) scale(0.1,-0.1)" stroke="none" fill="#936C3F"/>

<path d="M320 446 c-103 -29 -260 -137 -260 -180 0 -56 209 -87 324 -48 48 17 49 18 76 93 l27 75 -34 37 c-37 41 -56 44 -133 23z" transform="translate(0,119) scale(0.1,-0.1)" stroke="none" fill="#936C3F"/>

<path d="M844 774 c-55 -16 -83 -31 -116 -61 l-26 -25 -48 36 c-55 43 -80 50 -135 43 -74 -10 -119 -78 -119 -182 0 -70 23 -127 68 -168 l30 -29 -25 -54 c-54 -118 -39 -212 42 -259 50 -30 104 -32 160 -6 37 16 98 74 106 100 3 7 20 3 48 -11 54 -26 149 -35 191 -18 41 17 88 72 95 113 9 45 -13 94 -65 150 l-41 45 20 33 c44 75 46 181 4 238 -42 55 -117 77 -189 55z m-50 -255 c39 -31 36 -81 -8 -125 -40 -40 -80 -44 -120 -13 -45 35 -30 133 24 152 33 12 79 6 104 -14z" transform="translate(0,119) scale(0.1,-0.1)" stroke="none" fill="#F3A181"/>

</g>

</g>
<g id="col2" transform="translate(234, 15)">
<g id="0" transform="translate(0,0.0)scale(0.8,0.8)">

<path d="M695 526 c-24 -13 -35 -28 -29 -37 2 -4 -3 -12 -11 -19 -16 -13 -9 -40 10 -40 7 0 15 -9 18 -20 5 -21 47 -29 47 -10 0 6 7 10 16 8 10 -2 24 10 36 31 18 33 19 36 3 47 -9 7 -14 17 -11 23 14 21 -47 35 -79 17z m10 -76 c3 -5 1 -10 -4 -10 -6 0 -11 5 -11 10 0 6 2 10 4 10 3 0 8 -4 11 -10z m40 -10 c-3 -5 -12 -10 -18 -10 -7 0 -6 4 3 10 19 12 23 12 15 0z" transform="translate(0,119) scale(0.1,-0.1)" stroke="none" fill="#936C3F"/>

<path d="M678 1082 c-30 -71 -51 -155 -57 -240 l-7 -84 43 -29 43 -30 33 25 c18 14 54 35 80 46 39 18 47 26 53 56 9 49 -1 126 -23 171 -24 52 -97 123 -125 123 -17 0 -28 -10 -40 -38z" transform="translate(0,119) scale(0.1,-0.1)" stroke="none" fill="#936C3F"/>

<path d="M320 446 c-103 -29 -260 -137 -260 -180 0 -56 209 -87 324 -48 48 17 49 18 76 93 l27 75 -34 37 c-37 41 -56 44 -133 23z" transform="translate(0,119) scale(0.1,-0.1)" stroke="none" fill="#936C3F"/>

<path d="M844 774 c-55 -16 -83 -31 -116 -61 l-26 -25 -48 36 c-55 43 -80 50 -135 43 -74 -10 -119 -78 -119 -182 0 -70 23 -127 68 -168 l30 -29 -25 -54 c-54 -118 -39 -212 42 -259 50 -30 104 -32 160 -6 37 16 98 74 106 100 3 7 20 3 48 -11 54 -26 149 -35 191 -18 41 17 88 72 95 113 9 45 -13 94 -65 150 l-41 45 20 33 c44 75 46 181 4 238 -42 55 -117 77 -189 55z m-50 -255 c39 -31 36 -81 -8 -125 -40 -40 -80 -44 -120 -13 -45 35 -30 133 24 152 33 12 79 6 104 -14z" transform="translate(0,119) scale(0.1,-0.1)" stroke="none" fill="#F3A181"/>

</g>

<g id="1" transform="translate(0,119.0)scale(0.8,0.8)">

<path d="M695 526 c-24 -13 -35 -28 -29 -37 2 -4 -3 -12 -11 -19 -16 -13 -9 -40 10 -40 7 0 15 -9 18 -20 5 -21 47 -29 47 -10 0 6 7 10 16 8 10 -2 24 10 36 31 18 33 19 36 3 47 -9 7 -14 17 -11 23 14 21 -47 35 -79 17z m10 -76 c3 -5 1 -10 -4 -10 -6 0 -11 5 -11 10 0 6 2 10 4 10 3 0 8 -4 11 -10z m40 -10 c-3 -5 -12 -10 -18 -10 -7 0 -6 4 3 10 19 12 23 12 15 0z" transform="translate(0,119) scale(0.1,-0.1)" stroke="none" fill="#936C3F"/>

<path d="M678 1082 c-30 -71 -51 -155 -57 -240 l-7 -84 43 -29 43 -30 33 25 c18 14 54 35 80 46 39 18 47 26 53 56 9 49 -1 126 -23 171 -24 52 -97 123 -125 123 -17 0 -28 -10 -40 -38z" transform="translate(0,119) scale(0.1,-0.1)" stroke="none" fill="#936C3F"/>

<path d="M320 446 c-103 -29 -260 -137 -260 -180 0 -56 209 -87 324 -48 48 17 49 18 76 93 l27 75 -34 37 c-37 41 -56 44 -133 23z" transform="translate(0,119) scale(0.1,-0.1)" stroke="none" fill="#936C3F"/>

<path d="M844 774 c-55 -16 -83 -31 -116 -61 l-26 -25 -48 36 c-55 43 -80 50 -135 43 -74 -10 -119 -78 -119 -182 0 -70 23 -127 68 -168 l30 -29 -25 -54 c-54 -118 -39 -212 42 -259 50 -30 104 -32 160 -6 37 16 98 74 106 100 3 7 20 3 48 -11 54 -26 149 -35 191 -18 41 17 88 72 95 113 9 45 -13 94 -65 150 l-41 45 20 33 c44 75 46 181 4 238 -42 55 -117 77 -189 55z m-50 -255 c39 -31 36 -81 -8 -125 -40 -40 -80 -44 -120 -13 -45 35 -30 133 24 152 33 12 79 6 104 -14z" transform="translate(0,119) scale(0.1,-0.1)" stroke="none" fill="#F3A181"/>

</g>

<g id="2" transform="translate(0,238.0)scale(0.8,0.8)">

<path d="M695 526 c-24 -13 -35 -28 -29 -37 2 -4 -3 -12 -11 -19 -16 -13 -9 -40 10 -40 7 0 15 -9 18 -20 5 -21 47 -29 47 -10 0 6 7 10 16 8 10 -2 24 10 36 31 18 33 19 36 3 47 -9 7 -14 17 -11 23 14 21 -47 35 -79 17z m10 -76 c3 -5 1 -10 -4 -10 -6 0 -11 5 -11 10 0 6 2 10 4 10 3 0 8 -4 11 -10z m40 -10 c-3 -5 -12 -10 -18 -10 -7 0 -6 4 3 10 19 12 23 12 15 0z" transform="translate(0,119) scale(0.1,-0.1)" stroke="none" fill="#936C3F"/>

<path d="M678 1082 c-30 -71 -51 -155 -57 -240 l-7 -84 43 -29 43 -30 33 25 c18 14 54 35 80 46 39 18 47 26 53 56 9 49 -1 126 -23 171 -24 52 -97 123 -125 123 -17 0 -28 -10 -40 -38z" transform="translate(0,119) scale(0.1,-0.1)" stroke="none" fill="#936C3F"/>

<path d="M320 446 c-103 -29 -260 -137 -260 -180 0 -56 209 -87 324 -48 48 17 49 18 76 93 l27 75 -34 37 c-37 41 -56 44 -133 23z" transform="translate(0,119) scale(0.1,-0.1)" stroke="none" fill="#936C3F"/>

<path d="M844 774 c-55 -16 -83 -31 -116 -61 l-26 -25 -48 36 c-55 43 -80 50 -135 43 -74 -10 -119 -78 -119 -182 0 -70 23 -127 68 -168 l30 -29 -25 -54 c-54 -118 -39 -212 42 -259 50 -30 104 -32 160 -6 37 16 98 74 106 100 3 7 20 3 48 -11 54 -26 149 -35 191 -18 41 17 88 72 95 113 9 45 -13 94 -65 150 l-41 45 20 33 c44 75 46 181 4 238 -42 55 -117 77 -189 55z m-50 -255 c39 -31 36 -81 -8 -125 -40 -40 -80 -44 -120 -13 -45 35 -30 133 24 152 33 12 79 6 104 -14z" transform="translate(0,119) scale(0.1,-0.1)" stroke="none" fill="#F3A181"/>

</g>

<g id="3" transform="translate(0,357.0)scale(0.8,0.8)">

<path d="M695 526 c-24 -13 -35 -28 -29 -37 2 -4 -3 -12 -11 -19 -16 -13 -9 -40 10 -40 7 0 15 -9 18 -20 5 -21 47 -29 47 -10 0 6 7 10 16 8 10 -2 24 10 36 31 18 33 19 36 3 47 -9 7 -14 17 -11 23 14 21 -47 35 -79 17z m10 -76 c3 -5 1 -10 -4 -10 -6 0 -11 5 -11 10 0 6 2 10 4 10 3 0 8 -4 11 -10z m40 -10 c-3 -5 -12 -10 -18 -10 -7 0 -6 4 3 10 19 12 23 12 15 0z" transform="translate(0,119) scale(0.1,-0.1)" stroke="none" fill="#936C3F"/>

<path d="M678 1082 c-30 -71 -51 -155 -57 -240 l-7 -84 43 -29 43 -30 33 25 c18 14 54 35 80 46 39 18 47 26 53 56 9 49 -1 126 -23 171 -24 52 -97 123 -125 123 -17 0 -28 -10 -40 -38z" transform="translate(0,119) scale(0.1,-0.1)" stroke="none" fill="#936C3F"/>

<path d="M320 446 c-103 -29 -260 -137 -260 -180 0 -56 209 -87 324 -48 48 17 49 18 76 93 l27 75 -34 37 c-37 41 -56 44 -133 23z" transform="translate(0,119) scale(0.1,-0.1)" stroke="none" fill="#936C3F"/>

<path d="M844 774 c-55 -16 -83 -31 -116 -61 l-26 -25 -48 36 c-55 43 -80 50 -135 43 -74 -10 -119 -78 -119 -182 0 -70 23 -127 68 -168 l30 -29 -25 -54 c-54 -118 -39 -212 42 -259 50 -30 104 -32 160 -6 37 16 98 74 106 100 3 7 20 3 48 -11 54 -26 149 -35 191 -18 41 17 88 72 95 113 9 45 -13 94 -65 150 l-41 45 20 33 c44 75 46 181 4 238 -42 55 -117 77 -189 55z m-50 -255 c39 -31 36 -81 -8 -125 -40 -40 -80 -44 -120 -13 -45 35 -30 133 24 152 33 12 79 6 104 -14z" transform="translate(0,119) scale(0.1,-0.1)" stroke="none" fill="#F3A181"/>

</g>

<g id="4" transform="translate(0,476.0)scale(0.8,0.8)">

<path d="M695 526 c-24 -13 -35 -28 -29 -37 2 -4 -3 -12 -11 -19 -16 -13 -9 -40 10 -40 7 0 15 -9 18 -20 5 -21 47 -29 47 -10 0 6 7 10 16 8 10 -2 24 10 36 31 18 33 19 36 3 47 -9 7 -14 17 -11 23 14 21 -47 35 -79 17z m10 -76 c3 -5 1 -10 -4 -10 -6 0 -11 5 -11 10 0 6 2 10 4 10 3 0 8 -4 11 -10z m40 -10 c-3 -5 -12 -10 -18 -10 -7 0 -6 4 3 10 19 12 23 12 15 0z" transform="translate(0,119) scale(0.1,-0.1)" stroke="none" fill="#936C3F"/>

<path d="M678 1082 c-30 -71 -51 -155 -57 -240 l-7 -84 43 -29 43 -30 33 25 c18 14 54 35 80 46 39 18 47 26 53 56 9 49 -1 126 -23 171 -24 52 -97 123 -125 123 -17 0 -28 -10 -40 -38z" transform="translate(0,119) scale(0.1,-0.1)" stroke="none" fill="#936C3F"/>

<path d="M320 446 c-103 -29 -260 -137 -260 -180 0 -56 209 -87 324 -48 48 17 49 18 76 93 l27 75 -34 37 c-37 41 -56 44 -133 23z" transform="translate(0,119) scale(0.1,-0.1)" stroke="none" fill="#936C3F"/>

<path d="M844 774 c-55 -16 -83 -31 -116 -61 l-26 -25 -48 36 c-55 43 -80 50 -135 43 -74 -10 -119 -78 -119 -182 0 -70 23 -127 68 -168 l30 -29 -25 -54 c-54 -118 -39 -212 42 -259 50 -30 104 -32 160 -6 37 16 98 74 106 100 3 7 20 3 48 -11 54 -26 149 -35 191 -18 41 17 88 72 95 113 9 45 -13 94 -65 150 l-41 45 20 33 c44 75 46 181 4 238 -42 55 -117 77 -189 55z m-50 -255 c39 -31 36 -81 -8 -125 -40 -40 -80 -44 -120 -13 -45 35 -30 133 24 152 33 12 79 6 104 -14z" transform="translate(0,119) scale(0.1,-0.1)" stroke="none" fill="#F3A181"/>

</g>

</g>
<g id="col3" transform="translate(351, -44.5)">
<g id="0" transform="translate(0,0.0)scale(0.8,0.8)">

<path d="M695 526 c-24 -13 -35 -28 -29 -37 2 -4 -3 -12 -11 -19 -16 -13 -9 -40 10 -40 7 0 15 -9 18 -20 5 -21 47 -29 47 -10 0 6 7 10 16 8 10 -2 24 10 36 31 18 33 19 36 3 47 -9 7 -14 17 -11 23 14 21 -47 35 -79 17z m10 -76 c3 -5 1 -10 -4 -10 -6 0 -11 5 -11 10 0 6 2 10 4 10 3 0 8 -4 11 -10z m40 -10 c-3 -5 -12 -10 -18 -10 -7 0 -6 4 3 10 19 12 23 12 15 0z" transform="translate(0,119) scale(0.1,-0.1)" stroke="none" fill="#936C3F"/>

<path d="M678 1082 c-30 -71 -51 -155 -57 -240 l-7 -84 43 -29 43 -30 33 25 c18 14 54 35 80 46 39 18 47 26 53 56 9 49 -1 126 -23 171 -24 52 -97 123 -125 123 -17 0 -28 -10 -40 -38z" transform="translate(0,119) scale(0.1,-0.1)" stroke="none" fill="#936C3F"/>

<path d="M320 446 c-103 -29 -260 -137 -260 -180 0 -56 209 -87 324 -48 48 17 49 18 76 93 l27 75 -34 37 c-37 41 -56 44 -133 23z" transform="translate(0,119) scale(0.1,-0.1)" stroke="none" fill="#936C3F"/>

<path d="M844 774 c-55 -16 -83 -31 -116 -61 l-26 -25 -48 36 c-55 43 -80 50 -135 43 -74 -10 -119 -78 -119 -182 0 -70 23 -127 68 -168 l30 -29 -25 -54 c-54 -118 -39 -212 42 -259 50 -30 104 -32 160 -6 37 16 98 74 106 100 3 7 20 3 48 -11 54 -26 149 -35 191 -18 41 17 88 72 95 113 9 45 -13 94 -65 150 l-41 45 20 33 c44 75 46 181 4 238 -42 55 -117 77 -189 55z m-50 -255 c39 -31 36 -81 -8 -125 -40 -40 -80 -44 -120 -13 -45 35 -30 133 24 152 33 12 79 6 104 -14z" transform="translate(0,119) scale(0.1,-0.1)" stroke="none" fill="#F3A181"/>

</g>

<g id="1" transform="translate(0,119.0)scale(0.8,0.8)">

<path d="M695 526 c-24 -13 -35 -28 -29 -37 2 -4 -3 -12 -11 -19 -16 -13 -9 -40 10 -40 7 0 15 -9 18 -20 5 -21 47 -29 47 -10 0 6 7 10 16 8 10 -2 24 10 36 31 18 33 19 36 3 47 -9 7 -14 17 -11 23 14 21 -47 35 -79 17z m10 -76 c3 -5 1 -10 -4 -10 -6 0 -11 5 -11 10 0 6 2 10 4 10 3 0 8 -4 11 -10z m40 -10 c-3 -5 -12 -10 -18 -10 -7 0 -6 4 3 10 19 12 23 12 15 0z" transform="translate(0,119) scale(0.1,-0.1)" stroke="none" fill="#936C3F"/>

<path d="M678 1082 c-30 -71 -51 -155 -57 -240 l-7 -84 43 -29 43 -30 33 25 c18 14 54 35 80 46 39 18 47 26 53 56 9 49 -1 126 -23 171 -24 52 -97 123 -125 123 -17 0 -28 -10 -40 -38z" transform="translate(0,119) scale(0.1,-0.1)" stroke="none" fill="#936C3F"/>

<path d="M320 446 c-103 -29 -260 -137 -260 -180 0 -56 209 -87 324 -48 48 17 49 18 76 93 l27 75 -34 37 c-37 41 -56 44 -133 23z" transform="translate(0,119) scale(0.1,-0.1)" stroke="none" fill="#936C3F"/>

<path d="M844 774 c-55 -16 -83 -31 -116 -61 l-26 -25 -48 36 c-55 43 -80 50 -135 43 -74 -10 -119 -78 -119 -182 0 -70 23 -127 68 -168 l30 -29 -25 -54 c-54 -118 -39 -212 42 -259 50 -30 104 -32 160 -6 37 16 98 74 106 100 3 7 20 3 48 -11 54 -26 149 -35 191 -18 41 17 88 72 95 113 9 45 -13 94 -65 150 l-41 45 20 33 c44 75 46 181 4 238 -42 55 -117 77 -189 55z m-50 -255 c39 -31 36 -81 -8 -125 -40 -40 -80 -44 -120 -13 -45 35 -30 133 24 152 33 12 79 6 104 -14z" transform="translate(0,119) scale(0.1,-0.1)" stroke="none" fill="#F3A181"/>

</g>

<g id="2" transform="translate(0,238.0)scale(0.8,0.8)">

<path d="M695 526 c-24 -13 -35 -28 -29 -37 2 -4 -3 -12 -11 -19 -16 -13 -9 -40 10 -40 7 0 15 -9 18 -20 5 -21 47 -29 47 -10 0 6 7 10 16 8 10 -2 24 10 36 31 18 33 19 36 3 47 -9 7 -14 17 -11 23 14 21 -47 35 -79 17z m10 -76 c3 -5 1 -10 -4 -10 -6 0 -11 5 -11 10 0 6 2 10 4 10 3 0 8 -4 11 -10z m40 -10 c-3 -5 -12 -10 -18 -10 -7 0 -6 4 3 10 19 12 23 12 15 0z" transform="translate(0,119) scale(0.1,-0.1)" stroke="none" fill="#936C3F"/>

<path d="M678 1082 c-30 -71 -51 -155 -57 -240 l-7 -84 43 -29 43 -30 33 25 c18 14 54 35 80 46 39 18 47 26 53 56 9 49 -1 126 -23 171 -24 52 -97 123 -125 123 -17 0 -28 -10 -40 -38z" transform="translate(0,119) scale(0.1,-0.1)" stroke="none" fill="#936C3F"/>

<path d="M320 446 c-103 -29 -260 -137 -260 -180 0 -56 209 -87 324 -48 48 17 49 18 76 93 l27 75 -34 37 c-37 41 -56 44 -133 23z" transform="translate(0,119) scale(0.1,-0.1)" stroke="none" fill="#936C3F"/>

<path d="M844 774 c-55 -16 -83 -31 -116 -61 l-26 -25 -48 36 c-55 43 -80 50 -135 43 -74 -10 -119 -78 -119 -182 0 -70 23 -127 68 -168 l30 -29 -25 -54 c-54 -118 -39 -212 42 -259 50 -30 104 -32 160 -6 37 16 98 74 106 100 3 7 20 3 48 -11 54 -26 149 -35 191 -18 41 17 88 72 95 113 9 45 -13 94 -65 150 l-41 45 20 33 c44 75 46 181 4 238 -42 55 -117 77 -189 55z m-50 -255 c39 -31 36 -81 -8 -125 -40 -40 -80 -44 -120 -13 -45 35 -30 133 24 152 33 12 79 6 104 -14z" transform="translate(0,119) scale(0.1,-0.1)" stroke="none" fill="#F3A181"/>

</g>

<g id="3" transform="translate(0,357.0)scale(0.8,0.8)">

<path d="M695 526 c-24 -13 -35 -28 -29 -37 2 -4 -3 -12 -11 -19 -16 -13 -9 -40 10 -40 7 0 15 -9 18 -20 5 -21 47 -29 47 -10 0 6 7 10 16 8 10 -2 24 10 36 31 18 33 19 36 3 47 -9 7 -14 17 -11 23 14 21 -47 35 -79 17z m10 -76 c3 -5 1 -10 -4 -10 -6 0 -11 5 -11 10 0 6 2 10 4 10 3 0 8 -4 11 -10z m40 -10 c-3 -5 -12 -10 -18 -10 -7 0 -6 4 3 10 19 12 23 12 15 0z" transform="translate(0,119) scale(0.1,-0.1)" stroke="none" fill="#936C3F"/>

<path d="M678 1082 c-30 -71 -51 -155 -57 -240 l-7 -84 43 -29 43 -30 33 25 c18 14 54 35 80 46 39 18 47 26 53 56 9 49 -1 126 -23 171 -24 52 -97 123 -125 123 -17 0 -28 -10 -40 -38z" transform="translate(0,119) scale(0.1,-0.1)" stroke="none" fill="#936C3F"/>

<path d="M320 446 c-103 -29 -260 -137 -260 -180 0 -56 209 -87 324 -48 48 17 49 18 76 93 l27 75 -34 37 c-37 41 -56 44 -133 23z" transform="translate(0,119) scale(0.1,-0.1)" stroke="none" fill="#936C3F"/>

<path d="M844 774 c-55 -16 -83 -31 -116 -61 l-26 -25 -48 36 c-55 43 -80 50 -135 43 -74 -10 -119 -78 -119 -182 0 -70 23 -127 68 -168 l30 -29 -25 -54 c-54 -118 -39 -212 42 -259 50 -30 104 -32 160 -6 37 16 98 74 106 100 3 7 20 3 48 -11 54 -26 149 -35 191 -18 41 17 88 72 95 113 9 45 -13 94 -65 150 l-41 45 20 33 c44 75 46 181 4 238 -42 55 -117 77 -189 55z m-50 -255 c39 -31 36 -81 -8 -125 -40 -40 -80 -44 -120 -13 -45 35 -30 133 24 152 33 12 79 6 104 -14z" transform="translate(0,119) scale(0.1,-0.1)" stroke="none" fill="#F3A181"/>

</g>

<g id="4" transform="translate(0,476.0)scale(0.8,0.8)">

<path d="M695 526 c-24 -13 -35 -28 -29 -37 2 -4 -3 -12 -11 -19 -16 -13 -9 -40 10 -40 7 0 15 -9 18 -20 5 -21 47 -29 47 -10 0 6 7 10 16 8 10 -2 24 10 36 31 18 33 19 36 3 47 -9 7 -14 17 -11 23 14 21 -47 35 -79 17z m10 -76 c3 -5 1 -10 -4 -10 -6 0 -11 5 -11 10 0 6 2 10 4 10 3 0 8 -4 11 -10z m40 -10 c-3 -5 -12 -10 -18 -10 -7 0 -6 4 3 10 19 12 23 12 15 0z" transform="translate(0,119) scale(0.1,-0.1)" stroke="none" fill="#936C3F"/>

<path d="M678 1082 c-30 -71 -51 -155 -57 -240 l-7 -84 43 -29 43 -30 33 25 c18 14 54 35 80 46 39 18 47 26 53 56 9 49 -1 126 -23 171 -24 52 -97 123 -125 123 -17 0 -28 -10 -40 -38z" transform="translate(0,119) scale(0.1,-0.1)" stroke="none" fill="#936C3F"/>

<path d="M320 446 c-103 -29 -260 -137 -260 -180 0 -56 209 -87 324 -48 48 17 49 18 76 93 l27 75 -34 37 c-37 41 -56 44 -133 23z" transform="translate(0,119) scale(0.1,-0.1)" stroke="none" fill="#936C3F"/>

<path d="M844 774 c-55 -16 -83 -31 -116 -61 l-26 -25 -48 36 c-55 43 -80 50 -135 43 -74 -10 -119 -78 -119 -182 0 -70 23 -127 68 -168 l30 -29 -25 -54 c-54 -118 -39 -212 42 -259 50 -30 104 -32 160 -6 37 16 98 74 106 100 3 7 20 3 48 -11 54 -26 149 -35 191 -18 41 17 88 72 95 113 9 45 -13 94 -65 150 l-41 45 20 33 c44 75 46 181 4 238 -42 55 -117 77 -189 55z m-50 -255 c39 -31 36 -81 -8 -125 -40 -40 -80 -44 -120 -13 -45 35 -30 133 24 152 33 12 79 6 104 -14z" transform="translate(0,119) scale(0.1,-0.1)" stroke="none" fill="#F3A181"/>

</g>

</g>
</svg>