<?xml version="1.0" standalone="no"?>
<!DOCTYPE svg PUBLIC "-//W3C//DTD SVG 20010904//EN"
 "http://www.w3.org/TR/2001/REC-SVG-20010904/DTD/svg10.dtd">
<svg version="1.0" xmlns="http://www.w3.org/2000/svg" 
width="116.000000pt" height="98.000000pt" viewBox="0 0 116.000000 98.000000"
preserveAspectRatio = "xMidYMid meet" >
<metadata>
Created by ZoeQU, 2022
</metadata>
<rect width="116.000000" height="98.000000" fill="#A7B6B3"/>
<path d="M180 648 c0 -18 51 -68 69 -68 9 0 2 9 -15 19 -38 23 -51 41 -31 41 8 0 29 -13 46 -29 17 -16 31 -25 31 -20 0 10 -78 69 -92 69 -4 0 -8 -5 -8 -12z" transform="translate(0.000000,98.000000) scale(0.100000,-0.100000)" stroke="none" fill="#525D4B"/>

<path d="M335 599 c-23 -32 -47 -81 -41 -86 20 -20 60 39 54 80 -2 17 -5 18 -13 6z" transform="translate(0.000000,98.000000) scale(0.100000,-0.100000)" stroke="none" fill="#7F9072"/>

<path d="M326 407 c5 -23 3 -26 -11 -21 -9 4 3 -15 28 -42 25 -27 49 -45 53 -41 4 4 -2 17 -13 30 -11 12 -30 40 -42 62 -17 32 -20 34 -15 12z" transform="translate(0.000000,98.000000) scale(0.100000,-0.100000)" stroke="none" fill="#BB778F"/>

<path d="M820 600 c0 -31 28 -80 46 -80 9 0 14 3 12 8 -2 4 -12 26 -22 50 -19 45 -36 55 -36 22z" transform="translate(0.000000,98.000000) scale(0.100000,-0.100000)" stroke="none" fill="#7F9072"/>

<path d="M750 143 l-95 -98 98 95 c53 52 97 96 97 97 0 8 -12 -4 -100 -94z" transform="translate(0.000000,98.000000) scale(0.100000,-0.100000)" stroke="none" fill="#525D4B"/>

<path d="M292 445 c2 -11 7 -23 12 -26 13 -10 -3 -29 -24 -29 -49 0 -67 26 -22 33 26 4 25 4 -5 6 -17 0 -34 -3 -38 -9 -10 -16 40 -40 79 -38 34 3 36 5 31 28 -4 14 -13 32 -21 40 -14 13 -15 13 -12 -5z" transform="translate(0.000000,98.000000) scale(0.100000,-0.100000)" stroke="none" fill="#525D4B"/>

<path d="M842 443 c-6 -10 -12 -27 -13 -38 -2 -11 -9 -24 -15 -30 -19 -16 -47 -65 -38 -65 13 0 64 53 64 66 0 7 10 15 23 17 l22 4 -22 2 c-25 1 -30 20 -11 39 6 6 9 14 6 18 -4 3 -11 -3 -16 -13z" transform="translate(0.000000,98.000000) scale(0.100000,-0.100000)" stroke="none" fill="#BB778F"/>

<path d="M331 608 c-13 -21 -13 -22 2 -9 15 12 17 11 17 -7 0 -32 -18 -72 -35 -78 -25 -10 -29 3 -11 30 22 35 20 46 -4 17 -21 -25 -27 -71 -9 -71 6 0 24 13 40 29 23 23 29 39 29 70 0 46 -9 52 -29 19z" transform="translate(0.000000,98.000000) scale(0.100000,-0.100000)" stroke="none" fill="#525D4B"/>

<path d="M239 668 c13 -14 20 -31 17 -36 -3 -5 1 -15 9 -22 21 -17 19 -28 -7 -33 l-23 -4 23 -2 c14 0 22 -7 22 -18 0 -11 13 1 33 29 17 26 35 48 39 48 4 0 9 -15 11 -32 l4 -33 -1 34 c-1 45 -20 50 -42 12 -24 -41 -34 -39 -34 6 0 20 -3 33 -7 30 -4 -4 -20 5 -37 20 l-31 28 24 -27z" transform="translate(0.000000,98.000000) scale(0.100000,-0.100000)" stroke="none" fill="#BB778F"/>

<path d="M810 972 c0 -4 41 -36 91 -72 111 -79 171 -137 198 -187 11 -21 20 -33 21 -27 1 24 -61 103 -116 147 -97 77 -194 147 -194 139z" transform="translate(0.000000,98.000000) scale(0.100000,-0.100000)" stroke="none" fill="#525D4B"/>

<path d="M692 504 c-33 -23 -72 -89 -72 -121 l1 -28 37 41 c45 51 86 124 69 124 -7 0 -23 -7 -35 -16z" transform="translate(0.000000,98.000000) scale(0.100000,-0.100000)" stroke="none" fill="#BB778F"/>

<path d="M440 512 c0 -12 58 -103 83 -129 38 -42 50 -19 21 40 -30 59 -104 122 -104 89z" transform="translate(0.000000,98.000000) scale(0.100000,-0.100000)" stroke="none" fill="#BB778F"/>

<path d="M974 654 c1 -19 -50 -61 -61 -50 -5 4 6 19 22 33 20 16 23 21 8 14 -12 -6 -25 -16 -28 -21 -4 -6 -10 -8 -15 -5 -4 3 -11 -11 -14 -30 -4 -20 -11 -33 -17 -30 -5 4 -9 2 -9 -4 0 -5 5 -13 10 -16 15 -9 12 -25 -5 -25 -17 0 -45 50 -45 80 0 11 5 20 11 20 5 0 7 5 4 10 -13 20 -25 9 -25 -23 0 -31 45 -117 61 -117 4 0 10 15 14 33 11 57 16 67 30 67 19 0 75 49 75 66 0 8 -4 14 -9 14 -5 0 -8 -7 -7 -16z" transform="translate(0.000000,98.000000) scale(0.100000,-0.100000)" stroke="none" fill="#525D4B"/>

<path d="M250 898 c-135 -102 -155 -122 -185 -182 -25 -49 -32 -120 -17 -158 4 -10 7 16 7 56 0 103 28 145 170 254 61 46 117 87 125 92 8 5 13 10 10 13 -3 2 -52 -32 -110 -75z" transform="translate(0.000000,98.000000) scale(0.100000,-0.100000)" stroke="none" fill="#525D4B"/>

<path d="M987 662 c2 -10 -5 -26 -16 -36 -11 -10 -17 -24 -15 -31 3 -7 1 -16 -5 -20 -6 -3 -11 -14 -11 -24 0 -22 -40 -61 -63 -61 -9 0 -17 -4 -17 -10 0 -5 7 -7 16 -3 13 5 15 2 9 -17 -6 -19 -1 -16 25 13 20 23 41 37 55 37 39 0 75 18 75 38 0 9 -7 28 -16 41 -13 18 -22 21 -43 16 l-26 -7 23 24 c22 24 30 58 13 58 -5 0 -7 -8 -4 -18z" transform="translate(0.000000,98.000000) scale(0.100000,-0.100000)" stroke="none" fill="#BB778F"/>

<path d="M717 400 c-49 -43 -83 -92 -97 -137 -4 -15 -11 -36 -15 -45 -13 -33 21 -19 62 25 35 38 123 175 123 191 0 17 -32 1 -73 -34z" transform="translate(0.000000,98.000000) scale(0.100000,-0.100000)" stroke="none" fill="#BB778F"/>

<path d="M173 655 c-3 -9 3 -25 12 -35 17 -19 17 -20 1 -20 -20 0 -37 -15 -54 -47 -10 -19 -9 -24 10 -37 12 -9 36 -16 53 -16 22 0 41 -10 63 -33 18 -18 29 -37 25 -42 -5 -4 -3 -5 4 -1 7 4 9 14 6 24 -6 15 -5 15 10 3 15 -12 17 -11 17 2 0 9 -4 19 -10 22 -5 3 2 17 18 31 l27 25 -31 -21 c-17 -12 -40 -20 -50 -18 -20 3 -56 65 -49 84 2 7 -7 22 -21 35 -27 25 -33 55 -8 45 8 -3 12 -2 9 4 -9 15 -25 12 -32 -5z m42 -65 c3 -5 1 -10 -4 -10 -6 0 -11 5 -11 10 0 6 2 10 4 10 3 0 8 -4 11 -10z" transform="translate(0.000000,98.000000) scale(0.100000,-0.100000)" stroke="none" fill="#BB778F"/>

<path d="M380 435 c0 -14 90 -153 124 -192 81 -92 80 -10 -1 113 -25 39 -123 102 -123 79z" transform="translate(0.000000,98.000000) scale(0.100000,-0.100000)" stroke="none" fill="#BB778F"/>

<path d="M836 796 c-10 -40 2 -89 30 -122 l24 -29 29 32 c35 37 60 108 44 124 -6 6 -35 13 -65 16 -53 5 -55 5 -62 -21z" transform="translate(0.000000,98.000000) scale(0.100000,-0.100000)" stroke="none" fill="#525D4B"/>

<path d="M237 802 c-36 -4 -44 -25 -27 -71 19 -54 58 -93 81 -80 41 21 67 127 37 146 -14 9 -48 11 -91 5z" transform="translate(0.000000,98.000000) scale(0.100000,-0.100000)" stroke="none" fill="#525D4B"/>

<path d="M1105 540 c-22 -69 -94 -139 -230 -220 -38 -24 -94 -63 -124 -89 -55 -46 -151 -166 -151 -188 0 -28 -21 -10 -64 56 -60 89 -130 153 -253 229 -89 54 -177 133 -210 187 -6 11 -12 16 -12 10 -1 -5 16 -32 37 -60 27 -37 77 -76 184 -147 145 -96 181 -130 256 -237 20 -30 43 -56 49 -58 7 -3 21 14 32 36 45 87 117 157 254 247 72 47 145 98 160 112 37 35 90 118 84 134 -2 7 -7 2 -12 -12z" transform="translate(0.000000,98.000000) scale(0.100000,-0.100000)" stroke="none" fill="#525D4B"/>

<path d="M285 950 c-16 -16 -34 -30 -40 -30 -6 0 -24 -13 -40 -30 -16 -16 -38 -30 -49 -30 -22 0 -76 -47 -76 -66 0 -6 -7 -17 -15 -24 -7 -6 -25 -35 -40 -63 -33 -66 -33 -128 0 -192 25 -50 160 -195 181 -195 6 0 17 -7 24 -15 7 -9 32 -25 55 -35 23 -10 48 -26 55 -35 7 -8 22 -15 34 -15 22 0 66 -37 66 -56 0 -6 14 -23 30 -39 17 -16 30 -34 30 -39 0 -6 16 -28 35 -49 25 -26 44 -37 64 -37 27 0 61 26 61 46 0 13 183 194 196 194 7 0 17 7 24 15 7 9 32 24 54 35 23 10 57 35 75 54 19 20 40 36 46 36 13 0 74 65 93 97 7 15 12 64 12 136 l0 112 -88 88 c-48 48 -92 87 -97 87 -5 0 -28 18 -51 41 -34 34 -47 40 -75 37 l-34 -3 69 -50 c202 -146 253 -214 243 -326 -4 -43 -14 -72 -36 -107 -42 -66 -67 -87 -218 -186 -137 -90 -209 -160 -254 -247 -11 -22 -25 -39 -32 -36 -6 2 -29 28 -49 58 -75 108 -111 141 -253 235 -183 120 -233 178 -243 285 -10 101 35 167 193 285 63 47 115 87 115 90 0 15 -41 -1 -65 -26z" transform="translate(0.000000,98.000000) scale(0.100000,-0.100000)" stroke="none" fill="#7F9072"/>

<path d="M473 948 c-14 -22 -33 -82 -33 -105 0 -37 -14 -26 -39 32 -13 30 -27 55 -32 55 -25 0 -1 -158 36 -230 21 -43 81 -107 117 -126 90 -47 201 17 257 148 19 44 47 185 38 194 -11 11 -34 -10 -50 -47 -20 -46 -32 -44 -41 7 -10 49 -27 85 -40 81 -6 -2 -16 -22 -21 -44 -6 -23 -13 -44 -16 -48 -4 -3 -17 17 -30 44 -13 28 -28 51 -32 51 -5 0 -18 -22 -30 -50 -12 -27 -25 -50 -28 -50 -3 0 -11 23 -18 50 -13 50 -23 60 -38 38z" transform="translate(0.000000,98.000000) scale(0.100000,-0.100000)" stroke="none" fill="#CDD3CD"/>

</svg>